<svg width="1200" height="675" viewBox="-500 -500 1200 675" xmlns="http://www.w3.org/2000/svg"><path d="M-500-500h1200v675h-1200z" fill="#000"/><style>.sparkles path{stroke-linecap:round; stroke-width:1}</style><g class="sparkles"><path d="M100-162.5l-7.4 0.3" stroke="#c2e1ff32"/><path d="M100-162.5l64.7-6" stroke="#fff50033"/><path d="M100-162.5l32.1 73.9" stroke="#fff34"/><path d="M100-162.5l-82.4 4.1" stroke="#005bbb35"/><path d="M100-162.5l-82.3 19.9" stroke="#fff35"/><path d="M100-162.5l-16.8-117.1" stroke="#c2e1ff38"/><path d="M100-162.5l-20.2-117.6" stroke="#c2e1ff38"/><path d="M100-162.5l124.6 0" stroke="#fff39"/><path d="M100-162.5l95.3 81.7" stroke="#fff50039"/><path d="M100-162.5l111.5 74.7" stroke="#fff5003A"/><path d="M100-162.5l-63.6-123.3" stroke="#c2e1ff3B"/><path d="M100-162.5l48.5-134.1" stroke="#005bbb3C"/><path d="M100-162.5l-100.6-106.6" stroke="#fff5003C"/><path d="M100-162.5l-137.8 51" stroke="#c2e1ff3C"/><path d="M100-162.5l-15.2 151.9" stroke="#fff5003D"/><path d="M100-162.5l-87-129" stroke="#fff3E"/><path d="M100-162.5l-72.1 141.4" stroke="#fff5003E"/><path d="M100-162.5l-161.3-1.6" stroke="#c2e1ff3F"/><path d="M100-162.5l104.1-124.8" stroke="#c2e1ff3F"/><path d="M100-162.5l32.8 159.3" stroke="#fff3F"/><path d="M100-162.5l-90-145.5" stroke="#005bbb41"/><path d="M100-162.5l157.7-66.4" stroke="#c2e1ff41"/><path d="M100-162.5l62.4 161.4" stroke="#fff41"/><path d="M100-162.5l-144.1-104" stroke="#005bbb43"/><path d="M100-162.5l-31 175.3" stroke="#fff50043"/><path d="M100-162.5l-127.2 124.9" stroke="#fff50043"/><path d="M100-162.5l-179.3-10.7" stroke="#fff43"/><path d="M100-162.5l180.5-10.1" stroke="#fff43"/><path d="M100-162.5l145.6 119.3" stroke="#005bbb45"/><path d="M100-162.5l128.1-138.1" stroke="#c2e1ff45"/><path d="M100-162.5l163.3 93.9" stroke="#fff45"/><path d="M100-162.5l76.1-175" stroke="#fff46"/><path d="M100-162.5l185.4 66.5" stroke="#c2e1ff48"/><path d="M100-162.5l-147.4-141" stroke="#c2e1ff4A"/><path d="M100-162.5l-12.6 204.3" stroke="#c2e1ff4B"/><path d="M100-162.5l-197-58.1" stroke="#c2e1ff4B"/><path d="M100-162.5l-203.3 33.8" stroke="#c2e1ff4B"/><path d="M100-162.5l205.9-22.2" stroke="#c2e1ff4B"/><path d="M100-162.5l-104.1 185.4" stroke="#005bbb4E"/><path d="M100-162.5l-168.1 131.5" stroke="#fff5004E"/><path d="M100-162.5l-146.1-155.7" stroke="#c2e1ff4E"/><path d="M100-162.5l213.1 24.5" stroke="#fff4F"/><path d="M100-162.5l-214.3-10.6" stroke="#fff5004F"/><path d="M100-162.5l-89.8-195.5" stroke="#fff5004F"/><path d="M100-162.5l138.8 164.4" stroke="#fff5004F"/><path d="M100-162.5l-204.1 69.5" stroke="#005bbb4F"/><path d="M100-162.5l119.5 179.6" stroke="#fff5004F"/><path d="M100-162.5l211.2-45.5" stroke="#fff4F"/><path d="M100-162.5l-209 58.6" stroke="#fff50050"/><path d="M100-162.5l196.9 93.3" stroke="#005bbb50"/><path d="M100-162.5l-113.5-187" stroke="#fff50051"/><path d="M100-162.5l-211.6-55.7" stroke="#fff50051"/><path d="M100-162.5l-17.9-222.9" stroke="#fff50053"/><path d="M100-162.5l220.4 56.6" stroke="#fff56"/><path d="M100-162.5l162 160" stroke="#005bbb56"/><path d="M100-162.5l115.1 196.8" stroke="#005bbb56"/><path d="M100-162.5l-129.3-189.1" stroke="#fff50057"/><path d="M100-162.5l198.6 115.2" stroke="#005bbb58"/><path d="M100-162.5l32.8-227.5" stroke="#fff50058"/><path d="M100-162.5l-229.5 16.1" stroke="#c2e1ff58"/><path d="M100-162.5l162.4-163.1" stroke="#c2e1ff58"/><path d="M100-162.5l-227.1-42.4" stroke="#c2e1ff59"/><path d="M100-162.5l-76.3 218.1" stroke="#fff50059"/><path d="M100-162.5l-29.7-229.4" stroke="#c2e1ff59"/><path d="M100-162.5l37.5 228.3" stroke="#fff59"/><path d="M100-162.5l-91.9 212.6" stroke="#fff5A"/><path d="M100-162.5l228.5 38.8" stroke="#fff5A"/><path d="M100-162.5l-18.7 231.2" stroke="#fff5005A"/><path d="M100-162.5l200.1-117.3" stroke="#fff5005A"/><path d="M100-162.5l-213.9 89.8" stroke="#fff5005A"/><path d="M100-162.5l-216.9-82.9" stroke="#fff5005A"/><path d="M100-162.5l224.4 61.7" stroke="#005bbb5B"/><path d="M100-162.5l-10.7 232.8" stroke="#fff5005B"/><path d="M100-162.5l-111.9-204.4" stroke="#c2e1ff5B"/><path d="M100-162.5l-140.8 186" stroke="#fff5005C"/><path d="M100-162.5l-52.5 228.5" stroke="#c2e1ff5D"/><path d="M100-162.5l232.2 32.7" stroke="#fff5D"/><path d="M100-162.5l-43 231.7" stroke="#fff50060"/><path d="M100-162.5l-212.3-102.4" stroke="#005bbb60"/><path d="M100-162.5l-229.1 55.5" stroke="#fff50060"/><path d="M100-162.5l18.8 235.1" stroke="#005bbb61"/><path d="M100-162.5l14.1 235.5" stroke="#005bbb61"/><path d="M100-162.5l23.3-234.8" stroke="#c2e1ff61"/><path d="M100-162.5l229.5-55.1" stroke="#005bbb61"/><path d="M100-162.5l-63.3-227.4" stroke="#005bbb61"/><path d="M100-162.5l-33-233.8" stroke="#c2e1ff62"/><path d="M100-162.5l-234.4 28.9" stroke="#fff50062"/><path d="M100-162.5l-38.5-233" stroke="#c2e1ff62"/><path d="M100-162.5l-236-10" stroke="#c2e1ff62"/><path d="M100-162.5l-235.8-14.7" stroke="#c2e1ff63"/><path d="M100-162.5l-166.1-168" stroke="#005bbb64"/><path d="M100-162.5l224.5 73.6" stroke="#005bbb64"/><path d="M100-162.5l166.7 167.3" stroke="#fff65"/><path d="M100-162.5l122 202.1" stroke="#fff50066"/><path d="M100-162.5l235.8-5.7" stroke="#fff50066"/><path d="M100-162.5l-155.9 176.9" stroke="#c2e1ff67"/><path d="M100-162.5l-143.5-186.9" stroke="#fff50067"/><path d="M100-162.5l12.6 235.2" stroke="#fff67"/><path d="M100-162.5l141.9-187.9" stroke="#c2e1ff68"/><path d="M100-162.5l33.4 232.9" stroke="#005bbb68"/><path d="M100-162.5l216.9 90.8" stroke="#fff68"/><path d="M100-162.5l78.4 221.5" stroke="#fff69"/><path d="M100-162.5l-233.5 25.4" stroke="#005bbb69"/><path d="M100-162.5l111.4 206.6" stroke="#005bbb69"/><path d="M100-162.5l48.2 229.7" stroke="#fff69"/><path d="M100-162.5l-10.6 234.2" stroke="#fff5006A"/><path d="M100-162.5l157.4-173.7" stroke="#c2e1ff6A"/><path d="M100-162.5l227.3-56.9" stroke="#005bbb6A"/><path d="M100-162.5l-25.2-232.7" stroke="#fff5006A"/><path d="M100-162.5l-161.3-169.3" stroke="#005bbb6B"/><path d="M100-162.5l-24.5 232.4" stroke="#005bbb6B"/><path d="M100-162.5l-221.7 74" stroke="#fff6B"/><path d="M100-162.5l-170 159.2" stroke="#005bbb6C"/><path d="M100-162.5l200.8 117.6" stroke="#c2e1ff6C"/><path d="M100-162.5l171.9-155.6" stroke="#fff5006D"/><path d="M100-162.5l164.1 163.8" stroke="#005bbb6D"/><path d="M100-162.5l-227.6-40" stroke="#005bbb6E"/><path d="M100-162.5l-83.6-215" stroke="#005bbb6E"/><path d="M100-162.5l-219.3 69.4" stroke="#c2e1ff6F"/><path d="M100-162.5l175.9 148" stroke="#fff5006F"/><path d="M100-162.5l-75.1-216.4" stroke="#005bbb70"/><path d="M100-162.5l227.2 26.2" stroke="#fff70"/><path d="M100-162.5l106.2 202.2" stroke="#c2e1ff70"/><path d="M100-162.5l-49.5 221.4" stroke="#005bbb71"/><path d="M100-162.5l-120.6 191.2" stroke="#c2e1ff72"/><path d="M100-162.5l26.2 224.4" stroke="#005bbb72"/><path d="M100-162.5l199.6 104.8" stroke="#fff50072"/><path d="M100-162.5l-106.2 197.5" stroke="#005bbb73"/><path d="M100-162.5l-184.2 126.3" stroke="#fff50074"/><path d="M100-162.5l-96.6-199" stroke="#c2e1ff75"/><path d="M100-162.5l59.3-212.7" stroke="#fff50075"/><path d="M100-162.5l-200.4-91.3" stroke="#005bbb76"/><path d="M100-162.5l-210-60.5" stroke="#fff50077"/><path d="M100-162.5l150.8-156.3" stroke="#fff50077"/><path d="M100-162.5l216.6-2" stroke="#005bbb77"/><path d="M100-162.5l-211.7-34.3" stroke="#fff78"/><path d="M100-162.5l61.8-205.2" stroke="#c2e1ff79"/><path d="M100-162.5l-55.3 205.3" stroke="#005bbb79"/><path d="M100-162.5l-46.4 207.2" stroke="#005bbb79"/><path d="M100-162.5l61.2-203.1" stroke="#fff50079"/><path d="M100-162.5l-58.3-202.4" stroke="#c2e1ff7A"/><path d="M100-162.5l-88.3-189.9" stroke="#c2e1ff7B"/><path d="M100-162.5l-170.6-110.4" stroke="#fff5007D"/><path d="M100-162.5l-161.5 117.6" stroke="#fff7E"/><path d="M100-162.5l-93.4-176.5" stroke="#005bbb7E"/><path d="M100-162.5l-51.3-192.2" stroke="#005bbb7E"/><path d="M100-162.5l-36.3 194.8" stroke="#c2e1ff7F"/><path d="M100-162.5l-146.8-131.5" stroke="#c2e1ff7F"/><path d="M100-162.5l-74.1-179.4" stroke="#fff50080"/><path d="M100-162.5l81.7 174.6" stroke="#fff50080"/><path d="M100-162.5l14.9-189" stroke="#c2e1ff81"/><path d="M100-162.5l-104.3 158.2" stroke="#c2e1ff81"/><path d="M100-162.5l167.2 83.4" stroke="#fff82"/><path d="M100-162.5l174.2 49.6" stroke="#c2e1ff84"/><path d="M100-162.5l-87.2 157.7" stroke="#005bbb84"/><path d="M100-162.5l-177 19" stroke="#c2e1ff84"/><path d="M100-162.5l160.6 68.1" stroke="#c2e1ff85"/><path d="M100-162.5l-72.3 158.7" stroke="#fff85"/><path d="M100-162.5l-131.6-100.6" stroke="#c2e1ff87"/><path d="M100-162.5l-101.4-126.1" stroke="#c2e1ff88"/><path d="M100-162.5l105 119.6" stroke="#fff50088"/><path d="M100-162.5l-158.6 5.3" stroke="#005bbb89"/><path d="M100-162.5l-153.3-28.1" stroke="#c2e1ff89"/><path d="M100-162.5l-0.8-154.9" stroke="#fff89"/><path d="M100-162.5l72.6-131.7" stroke="#fff8A"/><path d="M100-162.5l-85.8-123.4" stroke="#fff8A"/><path d="M100-162.5l-15.3-129" stroke="#fff5008D"/><path d="M100-162.5l-123.5 32.1" stroke="#005bbb8E"/><path d="M100-162.5l-120.6-26.9" stroke="#c2e1ff8E"/><path d="M100-162.5l42.7 113.3" stroke="#fff5008E"/><path d="M100-162.5l-77.8 88.4" stroke="#c2e1ff8F"/><path d="M100-162.5l49.5-97.9" stroke="#005bbb90"/><path d="M100-162.5l-1.4-106" stroke="#005bbb90"/><path d="M100-162.5l-92.9 18" stroke="#fff91"/><path d="M100-162.5l67.7 61.3" stroke="#005bbb92"/><path d="M100-162.5l-65.6 34.3" stroke="#005bbb93"/><path d="M100-162.5l-69.3 14" stroke="#c2e1ff93"/><path d="M100-162.5l-25.5-41.5" stroke="#fff94"/><path d="M100-162.5l11.7 25.6" stroke="#fff95"/><path d="M100-162.5l-27.5-0.7" stroke="#c2e1ff95"/><path d="M100-162.5l-16-12.9" stroke="#fff95"/></g><g class="sparcs"><path d="M92.6-156.3a5.9 5.9 0 1 1 0-11.8 5.9 5.9 0 0 1 0 11.8" fill="#fff7D"/><path d="M164.7-162.5a6 6 0 1 1 0-12 6 6 0 0 1 0 12" fill="#fff5007F"/><path d="M132.1-82.5a6.1 6.1 0 1 1 0-12.2 6.1 6.1 0 0 1 0 12.2" fill="#c2e1ff80"/><path d="M17.6-152.3a6.1 6.1 0 1 1 0-12.2 6.1 6.1 0 0 1 0 12.2" fill="#c2e1ff81"/><path d="M17.7-136.5a6.1 6.1 0 1 1 0-12.2 6.1 6.1 0 0 1 0 12.2" fill="#c2e1ff81"/><path d="M83.2-273.3a6.3 6.3 0 1 1 0-12.6 6.3 6.3 0 0 1 0 12.6" fill="#fff50085"/><path d="M79.8-273.8a6.3 6.3 0 1 1 0-12.6 6.3 6.3 0 0 1 0 12.6" fill="#c2e1ff85"/><path d="M224.6-156.1a6.4 6.4 0 1 1 0-12.7 6.4 6.4 0 0 1 0 12.7" fill="#c2e1ff86"/><path d="M195.3-74.5a6.4 6.4 0 1 1 0-12.7 6.4 6.4 0 0 1 0 12.7" fill="#005bbb86"/><path d="M211.5-81.4a6.4 6.4 0 1 1 0-12.9 6.4 6.4 0 0 1 0 12.9" fill="#fff88"/><path d="M36.4-279.3a6.5 6.5 0 1 1 0-12.9 6.5 6.5 0 0 1 0 12.9" fill="#fff50089"/><path d="M148.5-290.1a6.5 6.5 0 1 1 0-13 6.5 6.5 0 0 1 0 13" fill="#005bbb8A"/><path d="M-0.6-262.6a6.5 6.5 0 1 1 0-13 6.5 6.5 0 0 1 0 13" fill="#c2e1ff8B"/><path d="M-37.8-104.9a6.5 6.5 0 1 1 0-13.1 6.5 6.5 0 0 1 0 13.1" fill="#fff5008B"/><path d="M84.8-4a6.6 6.6 0 1 1 0-13.2 6.6 6.6 0 0 1 0 13.2" fill="#fff5008C"/><path d="M13-284.8a6.6 6.6 0 1 1 0-13.3 6.6 6.6 0 0 1 0 13.3" fill="#c2e1ff8D"/><path d="M27.9-14.4a6.7 6.7 0 1 1 0-13.4 6.7 6.7 0 0 1 0 13.4" fill="#fff5008D"/><path d="M-61.3-157.4a6.7 6.7 0 1 1 0-13.4 6.7 6.7 0 0 1 0 13.4" fill="#c2e1ff8E"/><path d="M204.1-280.6a6.7 6.7 0 1 1 0-13.4 6.7 6.7 0 0 1 0 13.4" fill="#fff5008E"/><path d="M132.8 3.5a6.7 6.7 0 1 1 0-13.4 6.7 6.7 0 0 1 0 13.4" fill="#005bbb8E"/><path d="M10-301.2a6.8 6.8 0 1 1 0-13.6 6.8 6.8 0 0 1 0 13.6" fill="#fff50091"/><path d="M257.7-222.1a6.8 6.8 0 1 1 0-13.6 6.8 6.8 0 0 1 0 13.6" fill="#005bbb91"/><path d="M162.4 5.7a6.8 6.8 0 1 1 0-13.7 6.8 6.8 0 0 1 0 13.7" fill="#fff50091"/><path d="M-44.1-259.6a6.9 6.9 0 1 1 0-13.8 6.9 6.9 0 0 1 0 13.8" fill="#c2e1ff93"/><path d="M69 19.7a6.9 6.9 0 1 1 0-13.9 6.9 6.9 0 0 1 0 13.9" fill="#c2e1ff93"/><path d="M-27.2-30.7a6.9 6.9 0 1 1 0-13.9 6.9 6.9 0 0 1 0 13.9" fill="#005bbb93"/><path d="M-79.3-166.3a6.9 6.9 0 1 1 0-13.9 6.9 6.9 0 0 1 0 13.9" fill="#fff93"/><path d="M280.5-165.6a7 7 0 1 1 0-13.9 7 7 0 0 1 0 13.9" fill="#fff50094"/><path d="M245.6-36.1a7.1 7.1 0 1 1 0-14.1 7.1 7.1 0 0 1 0 14.1" fill="#fff96"/><path d="M228.1-293.5a7.1 7.1 0 1 1 0-14.2 7.1 7.1 0 0 1 0 14.2" fill="#005bbb96"/><path d="M263.3-61.5a7.1 7.1 0 1 1 0-14.1 7.1 7.1 0 0 1 0 14.1" fill="#005bbb96"/><path d="M176.1-330.4a7.1 7.1 0 1 1 0-14.3 7.1 7.1 0 0 1 0 14.3" fill="#fff50097"/><path d="M285.4-88.8a7.2 7.2 0 1 1 0-14.4 7.2 7.2 0 0 1 0 14.4" fill="#fff5009A"/><path d="M-47.4-296.1a7.4 7.4 0 1 1 0-14.8 7.4 7.4 0 0 1 0 14.8" fill="#005bbb9D"/><path d="M87.4 49.2a7.4 7.4 0 1 1 0-14.8 7.4 7.4 0 0 1 0 14.8" fill="#fff5009D"/><path d="M-97-213.2a7.4 7.4 0 1 1 0-14.8 7.4 7.4 0 0 1 0 14.8" fill="#fff5009D"/><path d="M-103.3-121.3a7.4 7.4 0 1 1 0-14.8 7.4 7.4 0 0 1 0 14.8" fill="#fff9E"/><path d="M305.9-177.3a7.4 7.4 0 1 1 0-14.9 7.4 7.4 0 0 1 0 14.9" fill="#005bbb9E"/><path d="M-4.1 30.4a7.6 7.6 0 1 1 0-15.1 7.6 7.6 0 0 1 0 15.1" fill="#fffA1"/><path d="M-68.1-23.4a7.6 7.6 0 1 1 0-15.2 7.6 7.6 0 0 1 0 15.2" fill="#fffA2"/><path d="M-46.1-310.6a7.6 7.6 0 1 1 0-15.2 7.6 7.6 0 0 1 0 15.2" fill="#fffA2"/><path d="M313.1-130.4a7.6 7.6 0 1 1 0-15.3 7.6 7.6 0 0 1 0 15.3" fill="#c2e1ffA2"/><path d="M-114.3-165.4a7.6 7.6 0 1 1 0-15.3 7.6 7.6 0 0 1 0 15.3" fill="#fff500A2"/><path d="M10.2-350.3a7.6 7.6 0 1 1 0-15.3 7.6 7.6 0 0 1 0 15.3" fill="#c2e1ffA3"/><path d="M238.8 9.5a7.6 7.6 0 1 1 0-15.3 7.6 7.6 0 0 1 0 15.3" fill="#fffA3"/><path d="M-104.1-85.4a7.7 7.7 0 1 1 0-15.3 7.7 7.7 0 0 1 0 15.3" fill="#005bbbA3"/><path d="M219.5 24.7a7.7 7.7 0 1 1 0-15.3 7.7 7.7 0 0 1 0 15.3" fill="#c2e1ffA3"/><path d="M311.2-200.3a7.7 7.7 0 1 1 0-15.4 7.7 7.7 0 0 1 0 15.4" fill="#fff500A3"/><path d="M-109-96.2a7.7 7.7 0 1 1 0-15.4 7.7 7.7 0 0 1 0 15.4" fill="#fffA4"/><path d="M296.9-61.5a7.7 7.7 0 1 1 0-15.4 7.7 7.7 0 0 1 0 15.4" fill="#c2e1ffA4"/><path d="M-13.5-341.8a7.7 7.7 0 1 1 0-15.5 7.7 7.7 0 0 1 0 15.5" fill="#fffA5"/><path d="M-111.6-210.4a7.7 7.7 0 1 1 0-15.5 7.7 7.7 0 0 1 0 15.5" fill="#fffA5"/><path d="M82.1-377.5a7.9 7.9 0 1 1 0-15.9 7.9 7.9 0 0 1 0 15.9" fill="#fffA9"/><path d="M320.4-97.8a8.1 8.1 0 1 1 0-16.1 8.1 8.1 0 0 1 0 16.1" fill="#c2e1ffAC"/><path d="M262 5.6a8.1 8.1 0 1 1 0-16.2 8.1 8.1 0 0 1 0 16.2" fill="#fff500AC"/><path d="M215.1 42.4a8.1 8.1 0 1 1 0-16.2 8.1 8.1 0 0 1 0 16.2" fill="#005bbbAC"/><path d="M-29.3-343.5a8.1 8.1 0 1 1 0-16.3 8.1 8.1 0 0 1 0 16.3" fill="#fff500AE"/><path d="M298.6-39.2a8.2 8.2 0 1 1 0-16.3 8.2 8.2 0 0 1 0 16.3" fill="#c2e1ffAE"/><path d="M132.8-381.8a8.2 8.2 0 1 1 0-16.4 8.2 8.2 0 0 1 0 16.4" fill="#005bbbAE"/><path d="M-129.5-138.3a8.2 8.2 0 1 1 0-16.3 8.2 8.2 0 0 1 0 16.3" fill="#005bbbAF"/><path d="M262.4-317.4a8.2 8.2 0 1 1 0-16.4 8.2 8.2 0 0 1 0 16.4" fill="#fff500AF"/><path d="M-127.1-196.6a8.2 8.2 0 1 1 0-16.5 8.2 8.2 0 0 1 0 16.5" fill="#fffB0"/><path d="M23.7 63.8a8.2 8.2 0 1 1 0-16.5 8.2 8.2 0 0 1 0 16.5" fill="#fff500B0"/><path d="M70.3-383.6a8.3 8.3 0 1 1 0-16.6 8.3 8.3 0 0 1 0 16.6" fill="#005bbbB0"/><path d="M137.5 74a8.3 8.3 0 1 1 0-16.5 8.3 8.3 0 0 1 0 16.5" fill="#c2e1ffB0"/><path d="M8.1 58.4a8.3 8.3 0 1 1 0-16.6 8.3 8.3 0 0 1 0 16.6" fill="#fff500B1"/><path d="M328.5-115.4a8.3 8.3 0 1 1 0-16.6 8.3 8.3 0 0 1 0 16.6" fill="#c2e1ffB1"/><path d="M81.3 77a8.3 8.3 0 1 1 0-16.6 8.3 8.3 0 0 1 0 16.6" fill="#c2e1ffB1"/><path d="M300.1-271.5a8.3 8.3 0 1 1 0-16.6 8.3 8.3 0 0 1 0 16.6" fill="#005bbbB1"/><path d="M-113.9-64.4a8.3 8.3 0 1 1 0-16.6 8.3 8.3 0 0 1 0 16.6" fill="#fffB1"/><path d="M-116.9-237.1a8.3 8.3 0 1 1 0-16.7 8.3 8.3 0 0 1 0 16.7" fill="#005bbbB2"/><path d="M324.4-92.4a8.4 8.4 0 1 1 0-16.7 8.4 8.4 0 0 1 0 16.7" fill="#005bbbB2"/><path d="M89.3 78.6a8.4 8.4 0 1 1 0-16.7 8.4 8.4 0 0 1 0 16.7" fill="#fff500B3"/><path d="M-11.9-358.6a8.4 8.4 0 1 1 0-16.7 8.4 8.4 0 0 1 0 16.7" fill="#c2e1ffB3"/><path d="M-40.8 31.9a8.4 8.4 0 1 1 0-16.8 8.4 8.4 0 0 1 0 16.8" fill="#fff500B3"/><path d="M47.5 74.5a8.5 8.5 0 1 1 0-17 8.5 8.5 0 0 1 0 17" fill="#005bbbB5"/><path d="M332.2-121.3a8.5 8.5 0 1 1 0-17 8.5 8.5 0 0 1 0 17" fill="#fff500B6"/><path d="M57 77.8a8.6 8.6 0 1 1 0-17.3 8.6 8.6 0 0 1 0 17.3" fill="#fff500B9"/><path d="M-112.3-256.3a8.7 8.7 0 1 1 0-17.3 8.7 8.7 0 0 1 0 17.3" fill="#c2e1ffB9"/><path d="M-129.1-98.3a8.7 8.7 0 1 1 0-17.4 8.7 8.7 0 0 1 0 17.4" fill="#fff500B9"/><path d="M118.8 81.3a8.7 8.7 0 1 1 0-17.4 8.7 8.7 0 0 1 0 17.4" fill="#005bbbBA"/><path d="M114.1 81.7a8.7 8.7 0 1 1 0-17.4 8.7 8.7 0 0 1 0 17.4" fill="#fff500BA"/><path d="M123.3-388.6a8.7 8.7 0 1 1 0-17.4 8.7 8.7 0 0 1 0 17.4" fill="#fff500BA"/><path d="M329.5-208.8a8.7 8.7 0 1 1 0-17.5 8.7 8.7 0 0 1 0 17.5" fill="#c2e1ffBA"/><path d="M36.7-381.2a8.7 8.7 0 1 1 0-17.4 8.7 8.7 0 0 1 0 17.4" fill="#c2e1ffBB"/><path d="M67-387.6a8.8 8.8 0 1 1 0-17.5 8.8 8.8 0 0 1 0 17.5" fill="#005bbbBC"/><path d="M-134.4-124.8a8.8 8.8 0 1 1 0-17.6 8.8 8.8 0 0 1 0 17.6" fill="#fff500BC"/><path d="M61.5-386.7a8.8 8.8 0 1 1 0-17.6 8.8 8.8 0 0 1 0 17.6" fill="#fffBC"/><path d="M-136-163.7a8.8 8.8 0 1 1 0-17.6 8.8 8.8 0 0 1 0 17.6" fill="#005bbbBC"/><path d="M-135.8-168.3a8.8 8.8 0 1 1 0-17.7 8.8 8.8 0 0 1 0 17.7" fill="#fff500BD"/><path d="M-66.1-321.6a8.9 8.9 0 1 1 0-17.8 8.9 8.9 0 0 1 0 17.8" fill="#fff500BE"/><path d="M324.5-80a8.9 8.9 0 1 1 0-17.8 8.9 8.9 0 0 1 0 17.8" fill="#fff500BE"/><path d="M266.7 13.7a8.9 8.9 0 1 1 0-17.8 8.9 8.9 0 0 1 0 17.8" fill="#005bbbBF"/><path d="M222 48.6a9 9 0 1 1 0-18 9 9 0 0 1 0 18" fill="#c2e1ffC0"/><path d="M335.8-159.2a9 9 0 1 1 0-18 9 9 0 0 1 0 18" fill="#c2e1ffC1"/><path d="M-55.9 23.4a9 9 0 1 1 0-18.1 9 9 0 0 1 0 18.1" fill="#fffC2"/><path d="M-43.5-340.3a9.1 9.1 0 1 1 0-18.1 9.1 9.1 0 0 1 0 18.1" fill="#fffC2"/><path d="M112.6 81.8a9.1 9.1 0 1 1 0-18.2 9.1 9.1 0 0 1 0 18.2" fill="#fffC2"/><path d="M241.9-341.3a9.1 9.1 0 1 1 0-18.2 9.1 9.1 0 0 1 0 18.2" fill="#fffC3"/><path d="M133.4 79.6a9.1 9.1 0 1 1 0-18.3 9.1 9.1 0 0 1 0 18.3" fill="#005bbbC3"/><path d="M316.9-62.6a9.1 9.1 0 1 1 0-18.3 9.1 9.1 0 0 1 0 18.3" fill="#fffC4"/><path d="M178.4 68.1a9.2 9.2 0 1 1 0-18.3 9.2 9.2 0 0 1 0 18.3" fill="#005bbbC4"/><path d="M-133.5-127.9a9.2 9.2 0 1 1 0-18.4 9.2 9.2 0 0 1 0 18.4" fill="#fff500C5"/><path d="M211.4 53.3a9.2 9.2 0 1 1 0-18.4 9.2 9.2 0 0 1 0 18.4" fill="#005bbbC5"/><path d="M148.2 76.4a9.2 9.2 0 1 1 0-18.4 9.2 9.2 0 0 1 0 18.4" fill="#005bbbC5"/><path d="M89.4 80.9a9.2 9.2 0 1 1 0-18.4 9.2 9.2 0 0 1 0 18.4" fill="#fff500C6"/><path d="M257.4-327a9.2 9.2 0 1 1 0-18.4 9.2 9.2 0 0 1 0 18.4" fill="#fffC6"/><path d="M327.3-210.1a9.2 9.2 0 1 1 0-18.5 9.2 9.2 0 0 1 0 18.5" fill="#fffC6"/><path d="M74.8-386a9.3 9.3 0 1 1 0-18.5 9.3 9.3 0 0 1 0 18.5" fill="#fff500C6"/><path d="M-61.3-322.5a9.3 9.3 0 1 1 0-18.6 9.3 9.3 0 0 1 0 18.6" fill="#fffC7"/><path d="M75.5 79.2a9.3 9.3 0 1 1 0-18.6 9.3 9.3 0 0 1 0 18.6" fill="#fffC7"/><path d="M-121.7-79.2a9.3 9.3 0 1 1 0-18.6 9.3 9.3 0 0 1 0 18.6" fill="#fff500C7"/><path d="M-70 6a9.4 9.4 0 1 1 0-18.7 9.4 9.4 0 0 1 0 18.7" fill="#fffC8"/><path d="M300.8-35.6a9.4 9.4 0 1 1 0-18.7 9.4 9.4 0 0 1 0 18.7" fill="#005bbbC9"/><path d="M271.9-308.7a9.4 9.4 0 1 1 0-18.8 9.4 9.4 0 0 1 0 18.8" fill="#fffCA"/><path d="M264.1 10.8a9.4 9.4 0 1 1 0-18.9 9.4 9.4 0 0 1 0 18.9" fill="#005bbbCA"/><path d="M-127.6-193.1a9.5 9.5 0 1 1 0-18.9 9.5 9.5 0 0 1 0 18.9" fill="#fffCB"/><path d="M16.4-368.1a9.5 9.5 0 1 1 0-18.9 9.5 9.5 0 0 1 0 18.9" fill="#005bbbCB"/><path d="M-119.3-83.6a9.5 9.5 0 1 1 0-19 9.5 9.5 0 0 1 0 19" fill="#fffCC"/><path d="M275.9-4.9a9.5 9.5 0 1 1 0-19.1 9.5 9.5 0 0 1 0 19.1" fill="#fffCC"/><path d="M24.9-369.3a9.6 9.6 0 1 1 0-19.2 9.6 9.6 0 0 1 0 19.2" fill="#c2e1ffCD"/><path d="M327.2-126.7a9.6 9.6 0 1 1 0-19.2 9.6 9.6 0 0 1 0 19.2" fill="#fff500CE"/><path d="M206.2 49.3a9.6 9.6 0 1 1 0-19.2 9.6 9.6 0 0 1 0 19.2" fill="#c2e1ffCE"/><path d="M50.5 68.6a9.7 9.7 0 1 1 0-19.4 9.7 9.7 0 0 1 0 19.4" fill="#c2e1ffD0"/><path d="M-20.6 38.4a9.7 9.7 0 1 1 0-19.4 9.7 9.7 0 0 1 0 19.4" fill="#fff500D0"/><path d="M126.2 71.6a9.7 9.7 0 1 1 0-19.4 9.7 9.7 0 0 1 0 19.4" fill="#fffD1"/><path d="M299.6-48a9.7 9.7 0 1 1 0-19.5 9.7 9.7 0 0 1 0 19.5" fill="#fff500D1"/><path d="M-6.2 44.8a9.8 9.8 0 1 1 0-19.6 9.8 9.8 0 0 1 0 19.6" fill="#005bbbD2"/><path d="M-84.2-26.4a9.8 9.8 0 1 1 0-19.6 9.8 9.8 0 0 1 0 19.6" fill="#005bbbD3"/><path d="M3.4-351.6a9.9 9.9 0 1 1 0-19.8 9.9 9.9 0 0 1 0 19.8" fill="#c2e1ffD4"/><path d="M159.3-365.3a9.9 9.9 0 1 1 0-19.8 9.9 9.9 0 0 1 0 19.8" fill="#fff500D5"/><path d="M-100.4-243.9a9.9 9.9 0 1 1 0-19.8 9.9 9.9 0 0 1 0 19.8" fill="#c2e1ffD5"/><path d="M-110-213a10 10 0 1 1 0-20 10 10 0 0 1 0 20" fill="#005bbbD6"/><path d="M250.8-308.8a10 10 0 1 1 0-20.1 10 10 0 0 1 0 20.1" fill="#fffD7"/><path d="M316.6-154.5a10 10 0 1 1 0-20.1 10 10 0 0 1 0 20.1" fill="#005bbbD7"/><path d="M-111.7-186.7a10.1 10.1 0 1 1 0-20.2 10.1 10.1 0 0 1 0 20.2" fill="#005bbbD9"/><path d="M161.8-357.5a10.1 10.1 0 1 1 0-20.3 10.1 10.1 0 0 1 0 20.3" fill="#fffD9"/><path d="M44.7 53a10.1 10.1 0 1 1 0-20.3 10.1 10.1 0 0 1 0 20.3" fill="#fffDA"/><path d="M53.6 54.8a10.2 10.2 0 1 1 0-20.3 10.2 10.2 0 0 1 0 20.3" fill="#c2e1ffDA"/><path d="M161.2-355.5a10.2 10.2 0 1 1 0-20.3 10.2 10.2 0 0 1 0 20.3" fill="#fffDA"/><path d="M41.7-354.7a10.2 10.2 0 1 1 0-20.4 10.2 10.2 0 0 1 0 20.4" fill="#fffDB"/><path d="M11.7-342.2a10.2 10.2 0 1 1 0-20.4 10.2 10.2 0 0 1 0 20.4" fill="#005bbbDC"/><path d="M-70.6-262.6a10.4 10.4 0 1 1 0-20.7 10.4 10.4 0 0 1 0 20.7" fill="#c2e1ffDF"/><path d="M-61.5-34.5a10.4 10.4 0 1 1 0-20.8 10.4 10.4 0 0 1 0 20.8" fill="#fffE0"/><path d="M6.6-328.6a10.4 10.4 0 1 1 0-20.8 10.4 10.4 0 0 1 0 20.8" fill="#fff500E0"/><path d="M48.7-344.2a10.5 10.5 0 1 1 0-20.9 10.5 10.5 0 0 1 0 20.9" fill="#005bbbE1"/><path d="M63.7 42.8a10.5 10.5 0 1 1 0-20.9 10.5 10.5 0 0 1 0 20.9" fill="#fff500E1"/><path d="M-46.8-283.5a10.5 10.5 0 1 1 0-21 10.5 10.5 0 0 1 0 21" fill="#fffE1"/><path d="M25.9-331.4a10.5 10.5 0 1 1 0-21.1 10.5 10.5 0 0 1 0 21.1" fill="#fffE3"/><path d="M181.7 22.7a10.6 10.6 0 1 1 0-21.2 10.6 10.6 0 0 1 0 21.2" fill="#fffE3"/><path d="M114.9-340.8a10.6 10.6 0 1 1 0-21.3 10.6 10.6 0 0 1 0 21.3" fill="#005bbbE4"/><path d="M-4.3 6.3a10.6 10.6 0 1 1 0-21.3 10.6 10.6 0 0 1 0 21.3" fill="#fffE4"/><path d="M267.2-68.4a10.7 10.7 0 1 1 0-21.4 10.7 10.7 0 0 1 0 21.4" fill="#fff500E5"/><path d="M274.2-102.2a10.8 10.8 0 1 1 0-21.5 10.8 10.8 0 0 1 0 21.5" fill="#c2e1ffE7"/><path d="M12.8 5.9a10.8 10.8 0 1 1 0-21.5 10.8 10.8 0 0 1 0 21.5" fill="#fffE8"/><path d="M-77-132.7a10.8 10.8 0 1 1 0-21.6 10.8 10.8 0 0 1 0 21.6" fill="#c2e1ffE8"/><path d="M260.6-83.6a10.9 10.9 0 1 1 0-21.7 10.9 10.9 0 0 1 0 21.7" fill="#fffE9"/><path d="M27.7 7.1a10.9 10.9 0 1 1 0-21.7 10.9 10.9 0 0 1 0 21.7" fill="#c2e1ffE9"/><path d="M-31.6-252.2a11 11 0 1 1 0-21.9 11 11 0 0 1 0 21.9" fill="#c2e1ffEC"/><path d="M-1.4-277.6a11 11 0 1 1 0-22 11 11 0 0 1 0 22" fill="#fff500ED"/><path d="M205-31.9a11 11 0 1 1 0-22 11 11 0 0 1 0 22" fill="#fffEE"/><path d="M-58.6-146.2a11 11 0 1 1 0-22.1 11 11 0 0 1 0 22.1" fill="#fff500EE"/><path d="M-53.3-179.5a11.1 11.1 0 1 1 0-22.2 11.1 11.1 0 0 1 0 22.2" fill="#c2e1ffEE"/><path d="M99.2-306.3a11.1 11.1 0 1 1 0-22.2 11.1 11.1 0 0 1 0 22.2" fill="#005bbbEF"/><path d="M172.6-283a11.1 11.1 0 1 1 0-22.3 11.1 11.1 0 0 1 0 22.3" fill="#fffF0"/><path d="M14.2-274.8a11.1 11.1 0 1 1 0-22.3 11.1 11.1 0 0 1 0 22.3" fill="#005bbbF0"/><path d="M84.7-280.2a11.3 11.3 0 1 1 0-22.6 11.3 11.3 0 0 1 0 22.6" fill="#c2e1ffF4"/><path d="M-23.5-119a11.3 11.3 0 1 1 0-22.7 11.3 11.3 0 0 1 0 22.7" fill="#c2e1ffF4"/><path d="M-20.6-178.1a11.4 11.4 0 1 1 0-22.7 11.4 11.4 0 0 1 0 22.7" fill="#fff500F5"/><path d="M142.7-37.8a11.4 11.4 0 1 1 0-22.8 11.4 11.4 0 0 1 0 22.8" fill="#fffF5"/><path d="M22.2-62.7a11.4 11.4 0 1 1 0-22.9 11.4 11.4 0 0 1 0 22.9" fill="#c2e1ffF6"/><path d="M149.5-248.9a11.5 11.5 0 1 1 0-22.9 11.5 11.5 0 0 1 0 22.9" fill="#fff500F7"/><path d="M98.6-257a11.5 11.5 0 1 1 0-23 11.5 11.5 0 0 1 0 23" fill="#005bbbF8"/><path d="M7.1-133a11.6 11.6 0 1 1 0-23.1 11.6 11.6 0 0 1 0 23.1" fill="#c2e1ffF9"/><path d="M167.7-89.6a11.6 11.6 0 1 1 0-23.1 11.6 11.6 0 0 1 0 23.1" fill="#005bbbF9"/><path d="M34.4-116.5a11.7 11.7 0 1 1 0-23.4 11.7 11.7 0 0 1 0 23.4" fill="#fffFB"/><path d="M30.7-136.9a11.7 11.7 0 1 1 0-23.3 11.7 11.7 0 0 1 0 23.3" fill="#fff500FC"/><path d="M74.5-192.3a11.7 11.7 0 1 1 0-23.5 11.7 11.7 0 0 1 0 23.5" fill="#005bbbFD"/><path d="M111.7-125.1a11.8 11.8 0 1 1 0-23.6 11.8 11.8 0 0 1 0 23.6" fill="#005bbbFE"/><path d="M72.5-151.5a11.8 11.8 0 1 1 0-23.5 11.8 11.8 0 0 1 0 23.5" fill="#fff500FE"/><path d="M84-163.6a11.8 11.8 0 1 1 0-23.6 11.8 11.8 0 0 1 0 23.6" fill="#005bbbFE"/></g></svg>