<svg width="1200" height="675" viewBox="-500 -500 1200 675" xmlns="http://www.w3.org/2000/svg"><path d="M-500-500h1200v675h-1200z" fill="#000"/><style>.sparkles path{stroke-linecap:round; stroke-width:1}</style><g class="sparkles"><path d="M100-162.5l-3.3-22" stroke="#005bbb32"/><path d="M100-162.5l32.1-24.2" stroke="#005bbb32"/><path d="M100-162.5l9.8-53.9" stroke="#005bbb33"/><path d="M100-162.5l32.1-47.8" stroke="#c2e1ff33"/><path d="M100-162.5l33.2 56.3" stroke="#fff33"/><path d="M100-162.5l34.4 73.5" stroke="#005bbb35"/><path d="M100-162.5l19.3 97.7" stroke="#fff36"/><path d="M100-162.5l75.7 69.1" stroke="#c2e1ff36"/><path d="M100-162.5l-18.5-112.9" stroke="#fff38"/><path d="M100-162.5l68-96.2" stroke="#c2e1ff38"/><path d="M100-162.5l42.3 111.4" stroke="#fff50038"/><path d="M100-162.5l-48.4-109.4" stroke="#fff50038"/><path d="M100-162.5l21.2-118.3" stroke="#c2e1ff38"/><path d="M100-162.5l-38.5 118.1" stroke="#fff39"/><path d="M100-162.5l-90 86.5" stroke="#fff50039"/><path d="M100-162.5l-133.8 9.3" stroke="#fff5003A"/><path d="M100-162.5l136.9-12.3" stroke="#005bbb3B"/><path d="M100-162.5l-84.6 112.5" stroke="#fff5003B"/><path d="M100-162.5l120.5-82.9" stroke="#fff5003C"/><path d="M100-162.5l-13.1-145.7" stroke="#fff3C"/><path d="M100-162.5l49.6-139" stroke="#c2e1ff3C"/><path d="M100-162.5l-13.2 151.9" stroke="#fff5003D"/><path d="M100-162.5l-90.3 127.2" stroke="#fff3E"/><path d="M100-162.5l-158-9.2" stroke="#c2e1ff3E"/><path d="M100-162.5l-5.8 165.9" stroke="#c2e1ff40"/><path d="M100-162.5l-165.2 24.3" stroke="#c2e1ff40"/><path d="M100-162.5l-164.7-40" stroke="#005bbb41"/><path d="M100-162.5l169.9-11.8" stroke="#005bbb41"/><path d="M100-162.5l-85.5-151" stroke="#c2e1ff42"/><path d="M100-162.5l173.2-34.2" stroke="#fff42"/><path d="M100-162.5l25.9 175.9" stroke="#c2e1ff43"/><path d="M100-162.5l-153.7 94.9" stroke="#fff43"/><path d="M100-162.5l113.8 141" stroke="#c2e1ff43"/><path d="M100-162.5l176.3-57.3" stroke="#fff45"/><path d="M100-162.5l-187.5-9.3" stroke="#fff50045"/><path d="M100-162.5l-190-48.6" stroke="#fff50048"/><path d="M100-162.5l181-79.5" stroke="#fff48"/><path d="M100-162.5l46.4 192.3" stroke="#fff50048"/><path d="M100-162.5l179.2-85.3" stroke="#c2e1ff48"/><path d="M100-162.5l-198.8-19.1" stroke="#fff50049"/><path d="M100-162.5l77.2 184.8" stroke="#005bbb49"/><path d="M100-162.5l-186-75.1" stroke="#fff50049"/><path d="M100-162.5l201.3 8.6" stroke="#005bbb49"/><path d="M100-162.5l-132.4 154" stroke="#fff4A"/><path d="M100-162.5l51.4 196.7" stroke="#c2e1ff4A"/><path d="M100-162.5l122.2 162.7" stroke="#fff4A"/><path d="M100-162.5l176.6-104.4" stroke="#c2e1ff4B"/><path d="M100-162.5l-78.6 192.1" stroke="#fff4C"/><path d="M100-162.5l-162.4 130.7" stroke="#c2e1ff4C"/><path d="M100-162.5l204.8 46.2" stroke="#fff4D"/><path d="M100-162.5l-185.4-98.6" stroke="#fff4D"/><path d="M100-162.5l-4.4-212.6" stroke="#fff4E"/><path d="M100-162.5l173.7-123.7" stroke="#fff4E"/><path d="M100-162.5l-206.4 56.3" stroke="#005bbb4E"/><path d="M100-162.5l214.4 8.2" stroke="#c2e1ff4F"/><path d="M100-162.5l81 198.8" stroke="#fff4F"/><path d="M100-162.5l-80.6-199.6" stroke="#fff4F"/><path d="M100-162.5l-102.8 191" stroke="#fff50050"/><path d="M100-162.5l-172.5-131.6" stroke="#fff50"/><path d="M100-162.5l209.1 61.3" stroke="#005bbb50"/><path d="M100-162.5l-177.3-128.5" stroke="#fff50051"/><path d="M100-162.5l-113.5-187.6" stroke="#fff51"/><path d="M100-162.5l-182.9 121.3" stroke="#fff50051"/><path d="M100-162.5l98 197" stroke="#c2e1ff51"/><path d="M100-162.5l-10.5-220.8" stroke="#c2e1ff52"/><path d="M100-162.5l212.8 61.6" stroke="#c2e1ff52"/><path d="M100-162.5l-0.1 222.4" stroke="#fff50053"/><path d="M100-162.5l223.5 1.4" stroke="#fff50053"/><path d="M100-162.5l-207.1-85.6" stroke="#fff54"/><path d="M100-162.5l-223.8-16.1" stroke="#c2e1ff54"/><path d="M100-162.5l-99.9-201.2" stroke="#fff54"/><path d="M100-162.5l-220.1-50.5" stroke="#fff55"/><path d="M100-162.5l-222.8-42.1" stroke="#005bbb55"/><path d="M100-162.5l210.3 89.3" stroke="#fff50057"/><path d="M100-162.5l157.3 168.1" stroke="#fff50058"/><path d="M100-162.5l-218-78.9" stroke="#005bbb5A"/><path d="M100-162.5l-193.7-128" stroke="#fff5A"/><path d="M100-162.5l115.8 201.3" stroke="#fff5005A"/><path d="M100-162.5l160 168.5" stroke="#fff5B"/><path d="M100-162.5l-51.6 227" stroke="#c2e1ff5B"/><path d="M100-162.5l36.8 229.9" stroke="#005bbb5B"/><path d="M100-162.5l-233-12.3" stroke="#fff5005C"/><path d="M100-162.5l-224.9 62.7" stroke="#c2e1ff5C"/><path d="M100-162.5l142.3-186.2" stroke="#fff5005D"/><path d="M100-162.5l181.8-148.1" stroke="#fff5D"/><path d="M100-162.5l-232.3 33.3" stroke="#c2e1ff5E"/><path d="M100-162.5l235 0" stroke="#c2e1ff5E"/><path d="M100-162.5l228.3 56.1" stroke="#fff5005F"/><path d="M100-162.5l13 234.9" stroke="#fff5F"/><path d="M100-162.5l-222.7 78.6" stroke="#005bbb62"/><path d="M100-162.5l225.5 70.4" stroke="#fff50064"/><path d="M100-162.5l-164.7-169.3" stroke="#005bbb64"/><path d="M100-162.5l188.9 141.8" stroke="#fff64"/><path d="M100-162.5l95.8-215.9" stroke="#005bbb65"/><path d="M100-162.5l-170.7-163" stroke="#fff66"/><path d="M100-162.5l223 77" stroke="#fff66"/><path d="M100-162.5l-74.7-223.7" stroke="#c2e1ff67"/><path d="M100-162.5l-192 136.2" stroke="#fff50068"/><path d="M100-162.5l159.6 171.7" stroke="#c2e1ff6A"/><path d="M100-162.5l232.2-28.1" stroke="#c2e1ff6B"/><path d="M100-162.5l-176.4 153.4" stroke="#fff5006B"/><path d="M100-162.5l233-9.2" stroke="#fff5006C"/><path d="M100-162.5l155.6 173.6" stroke="#fff5006C"/><path d="M100-162.5l216.4-83.7" stroke="#c2e1ff6D"/><path d="M100-162.5l-226.7 46.4" stroke="#fff5006E"/><path d="M100-162.5l-24.4 230.1" stroke="#005bbb6E"/><path d="M100-162.5l39.3-226.3" stroke="#c2e1ff6F"/><path d="M100-162.5l-1.7-229.7" stroke="#c2e1ff6F"/><path d="M100-162.5l-171.6-152.4" stroke="#005bbb6F"/><path d="M100-162.5l-171.7-151.1" stroke="#fff50070"/><path d="M100-162.5l-75.5-215.7" stroke="#fff50070"/><path d="M100-162.5l209.9 85.1" stroke="#fff50072"/><path d="M100-162.5l211.7-79.9" stroke="#fff72"/><path d="M100-162.5l129.6-183.6" stroke="#005bbb73"/><path d="M100-162.5l15.7 224.1" stroke="#fff73"/><path d="M100-162.5l207.4-79.6" stroke="#fff50074"/><path d="M100-162.5l185.2-120.2" stroke="#005bbb75"/><path d="M100-162.5l-219.6 12.3" stroke="#005bbb76"/><path d="M100-162.5l197.1 92.9" stroke="#c2e1ff77"/><path d="M100-162.5l55.2 210" stroke="#fff77"/><path d="M100-162.5l40.1 212.4" stroke="#fff78"/><path d="M100-162.5l133.9-169.5" stroke="#fff50078"/><path d="M100-162.5l-198.1-80.5" stroke="#005bbb79"/><path d="M100-162.5l-4.1 211.9" stroke="#c2e1ff7A"/><path d="M100-162.5l-97.8-187.5" stroke="#fff5007A"/><path d="M100-162.5l-149.1-144.1" stroke="#005bbb7B"/><path d="M100-162.5l199.6 52.2" stroke="#fff5007C"/><path d="M100-162.5l174.7-108.6" stroke="#005bbb7C"/><path d="M100-162.5l113-164.4" stroke="#005bbb7E"/><path d="M100-162.5l197.4 26.5" stroke="#c2e1ff7E"/><path d="M100-162.5l-84.9-179.9" stroke="#fff5007E"/><path d="M100-162.5l-9 198" stroke="#fff7F"/><path d="M100-162.5l19.8 193.7" stroke="#005bbb80"/><path d="M100-162.5l-159-106.6" stroke="#fff81"/><path d="M100-162.5l77.2-174.3" stroke="#fff50081"/><path d="M100-162.5l-166.1-89.3" stroke="#c2e1ff82"/><path d="M100-162.5l-53 179.9" stroke="#005bbb82"/><path d="M100-162.5l-177 56.6" stroke="#c2e1ff82"/><path d="M100-162.5l104.7-149.7" stroke="#fff83"/><path d="M100-162.5l-178.2 36.5" stroke="#005bbb83"/><path d="M100-162.5l155.7-93" stroke="#005bbb84"/><path d="M100-162.5l69.7 166.3" stroke="#c2e1ff84"/><path d="M100-162.5l112.1 139.5" stroke="#fff84"/><path d="M100-162.5l-174.6-38.2" stroke="#fff84"/><path d="M100-162.5l149.5-97.7" stroke="#c2e1ff84"/><path d="M100-162.5l96 149.6" stroke="#005bbb84"/><path d="M100-162.5l176.8-10.9" stroke="#005bbb85"/><path d="M100-162.5l-174.7 3.8" stroke="#005bbb85"/><path d="M100-162.5l-106.9-137.7" stroke="#fff50085"/><path d="M100-162.5l68.9 153.6" stroke="#fff87"/><path d="M100-162.5l-78.6-148.6" stroke="#fff50087"/><path d="M100-162.5l-100.1-134.6" stroke="#c2e1ff87"/><path d="M100-162.5l128.4-102.3" stroke="#005bbb87"/><path d="M100-162.5l-159.3 27.4" stroke="#fff88"/><path d="M100-162.5l-137.9-72.5" stroke="#fff89"/><path d="M100-162.5l-107.5 107.6" stroke="#005bbb8A"/><path d="M100-162.5l-100.2-111.4" stroke="#c2e1ff8A"/><path d="M100-162.5l23.9 147.4" stroke="#fff8A"/><path d="M100-162.5l-148-4" stroke="#fff8A"/><path d="M100-162.5l-111.6 96.5" stroke="#fff8B"/><path d="M100-162.5l-60 131.9" stroke="#fff8B"/><path d="M100-162.5l128.8 64.7" stroke="#005bbb8B"/><path d="M100-162.5l-143.8-3" stroke="#005bbb8B"/><path d="M100-162.5l141.5-3" stroke="#fff5008C"/><path d="M100-162.5l-134.3 38.2" stroke="#c2e1ff8C"/><path d="M100-162.5l4.1-137.5" stroke="#fff5008C"/><path d="M100-162.5l-133.5-24.6" stroke="#fff8C"/><path d="M100-162.5l-128.5 29.7" stroke="#fff8D"/><path d="M100-162.5l-130.5 14.6" stroke="#c2e1ff8D"/><path d="M100-162.5l117.6 54.5" stroke="#fff5008D"/><path d="M100-162.5l115.3 54.4" stroke="#fff5008E"/><path d="M100-162.5l69.7-105.7" stroke="#005bbb8E"/><path d="M100-162.5l-15.6 122.1" stroke="#fff8E"/><path d="M100-162.5l115.3-36.6" stroke="#fff8E"/><path d="M100-162.5l-51-108.4" stroke="#fff5008F"/><path d="M100-162.5l78.6 87" stroke="#fff8F"/><path d="M100-162.5l0.9 114" stroke="#005bbb8F"/><path d="M100-162.5l-63.1 83.9" stroke="#fff90"/><path d="M100-162.5l54.6-87.5" stroke="#fff50090"/><path d="M100-162.5l-58.4-73.8" stroke="#fff50091"/><path d="M100-162.5l25.5 51.4" stroke="#c2e1ff94"/></g><g class="sparcs"><path d="M96.7-178.6a5.9 5.9 0 1 1 0-11.9 5.9 5.9 0 0 1 0 11.9" fill="#fff7D"/><path d="M132.1-180.8a5.9 5.9 0 1 1 0-11.9 5.9 5.9 0 0 1 0 11.9" fill="#fff5007D"/><path d="M109.8-210.4a6 6 0 1 1 0-12 6 6 0 0 1 0 12" fill="#005bbb7E"/><path d="M132.1-204.3a6 6 0 1 1 0-12 6 6 0 0 1 0 12" fill="#005bbb7E"/><path d="M133.2-100.2a6 6 0 1 1 0-12 6 6 0 0 1 0 12" fill="#c2e1ff7F"/><path d="M134.4-82.9a6.1 6.1 0 1 1 0-12.2 6.1 6.1 0 0 1 0 12.2" fill="#fff80"/><path d="M119.3-58.6a6.2 6.2 0 1 1 0-12.3 6.2 6.2 0 0 1 0 12.3" fill="#fff83"/><path d="M175.7-87.2a6.2 6.2 0 1 1 0-12.4 6.2 6.2 0 0 1 0 12.4" fill="#fff83"/><path d="M81.5-269.1a6.3 6.3 0 1 1 0-12.6 6.3 6.3 0 0 1 0 12.6" fill="#005bbb85"/><path d="M168-252.4a6.3 6.3 0 1 1 0-12.6 6.3 6.3 0 0 1 0 12.6" fill="#005bbb85"/><path d="M142.3-44.8a6.3 6.3 0 1 1 0-12.6 6.3 6.3 0 0 1 0 12.6" fill="#fff50085"/><path d="M51.6-265.6a6.3 6.3 0 1 1 0-12.6 6.3 6.3 0 0 1 0 12.6" fill="#fff85"/><path d="M121.2-274.5a6.3 6.3 0 1 1 0-12.6 6.3 6.3 0 0 1 0 12.6" fill="#c2e1ff86"/><path d="M61.5-38.1a6.3 6.3 0 1 1 0-12.7 6.3 6.3 0 0 1 0 12.7" fill="#005bbb86"/><path d="M10-69.7a6.4 6.4 0 1 1 0-12.7 6.4 6.4 0 0 1 0 12.7" fill="#c2e1ff86"/><path d="M-33.8-146.7a6.4 6.4 0 1 1 0-12.9 6.4 6.4 0 0 1 0 12.9" fill="#fff50088"/><path d="M236.9-168.4a6.5 6.5 0 1 1 0-12.9 6.5 6.5 0 0 1 0 12.9" fill="#fff89"/><path d="M15.4-43.6a6.5 6.5 0 1 1 0-12.9 6.5 6.5 0 0 1 0 12.9" fill="#005bbb89"/><path d="M220.5-238.8a6.5 6.5 0 1 1 0-13.1 6.5 6.5 0 0 1 0 13.1" fill="#fff8A"/><path d="M86.9-301.7a6.5 6.5 0 1 1 0-13.1 6.5 6.5 0 0 1 0 13.1" fill="#005bbb8A"/><path d="M149.6-295a6.6 6.6 0 1 1 0-13.1 6.6 6.6 0 0 1 0 13.1" fill="#fff5008B"/><path d="M86.8-4a6.6 6.6 0 1 1 0-13.2 6.6 6.6 0 0 1 0 13.2" fill="#fff5008C"/><path d="M9.7-28.7a6.6 6.6 0 1 1 0-13.2 6.6 6.6 0 0 1 0 13.2" fill="#c2e1ff8D"/><path d="M-58-165.1a6.7 6.7 0 1 1 0-13.3 6.7 6.7 0 0 1 0 13.3" fill="#c2e1ff8D"/><path d="M94.2 10.2a6.8 6.8 0 1 1 0-13.5 6.8 6.8 0 0 1 0 13.5" fill="#fff5008F"/><path d="M-65.2-131.4a6.8 6.8 0 1 1 0-13.5 6.8 6.8 0 0 1 0 13.5" fill="#fff50090"/><path d="M-64.7-195.7a6.8 6.8 0 1 1 0-13.6 6.8 6.8 0 0 1 0 13.6" fill="#c2e1ff90"/><path d="M269.9-167.5a6.8 6.8 0 1 1 0-13.6 6.8 6.8 0 0 1 0 13.6" fill="#fff90"/><path d="M14.5-306.7a6.9 6.9 0 1 1 0-13.7 6.9 6.9 0 0 1 0 13.7" fill="#005bbb91"/><path d="M273.2-189.8a6.9 6.9 0 1 1 0-13.8 6.9 6.9 0 0 1 0 13.8" fill="#c2e1ff92"/><path d="M125.9 20.3a6.9 6.9 0 1 1 0-13.8 6.9 6.9 0 0 1 0 13.8" fill="#005bbb93"/><path d="M-53.7-60.7a7 7 0 1 1 0-13.9 7 7 0 0 1 0 13.9" fill="#fff50094"/><path d="M213.8-14.6a7 7 0 1 1 0-13.9 7 7 0 0 1 0 13.9" fill="#fff50094"/><path d="M276.3-212.7a7 7 0 1 1 0-14.1 7 7 0 0 1 0 14.1" fill="#fff50095"/><path d="M-87.5-164.7a7.1 7.1 0 1 1 0-14.1 7.1 7.1 0 0 1 0 14.1" fill="#fff50096"/><path d="M-90-203.9a7.2 7.2 0 1 1 0-14.4 7.2 7.2 0 0 1 0 14.4" fill="#005bbb99"/><path d="M281-234.8a7.2 7.2 0 1 1 0-14.4 7.2 7.2 0 0 1 0 14.4" fill="#fff9A"/><path d="M146.4 37a7.2 7.2 0 1 1 0-14.5 7.2 7.2 0 0 1 0 14.5" fill="#005bbb9A"/><path d="M279.2-240.6a7.3 7.3 0 1 1 0-14.5 7.3 7.3 0 0 1 0 14.5" fill="#c2e1ff9A"/><path d="M-98.8-174.3a7.3 7.3 0 1 1 0-14.5 7.3 7.3 0 0 1 0 14.5" fill="#fff5009B"/><path d="M177.2 29.6a7.3 7.3 0 1 1 0-14.6 7.3 7.3 0 0 1 0 14.6" fill="#fff9B"/><path d="M-86-230.3a7.3 7.3 0 1 1 0-14.6 7.3 7.3 0 0 1 0 14.6" fill="#005bbb9B"/><path d="M301.3-146.6a7.3 7.3 0 1 1 0-14.6 7.3 7.3 0 0 1 0 14.6" fill="#005bbb9C"/><path d="M-32.4-1.2a7.3 7.3 0 1 1 0-14.7 7.3 7.3 0 0 1 0 14.7" fill="#fff9C"/><path d="M151.4 41.5a7.4 7.4 0 1 1 0-14.7 7.4 7.4 0 0 1 0 14.7" fill="#fff5009C"/><path d="M222.2 7.5a7.4 7.4 0 1 1 0-14.7 7.4 7.4 0 0 1 0 14.7" fill="#fff9C"/><path d="M276.6-259.5a7.4 7.4 0 1 1 0-14.8 7.4 7.4 0 0 1 0 14.8" fill="#fff5009D"/><path d="M21.4 37a7.4 7.4 0 1 1 0-14.9 7.4 7.4 0 0 1 0 14.9" fill="#fff9E"/><path d="M-62.4-24.3a7.5 7.5 0 1 1 0-14.9 7.5 7.5 0 0 1 0 14.9" fill="#005bbb9F"/><path d="M304.8-108.8a7.5 7.5 0 1 1 0-15 7.5 7.5 0 0 1 0 15" fill="#005bbbA0"/><path d="M-85.4-253.6a7.5 7.5 0 1 1 0-15 7.5 7.5 0 0 1 0 15" fill="#c2e1ffA0"/><path d="M95.6-367.5a7.6 7.6 0 1 1 0-15.1 7.6 7.6 0 0 1 0 15.1" fill="#005bbbA1"/><path d="M273.7-278.6a7.6 7.6 0 1 1 0-15.2 7.6 7.6 0 0 1 0 15.2" fill="#fff500A2"/><path d="M-106.4-98.5a7.6 7.6 0 1 1 0-15.3 7.6 7.6 0 0 1 0 15.3" fill="#c2e1ffA2"/><path d="M314.4-146.7a7.6 7.6 0 1 1 0-15.2 7.6 7.6 0 0 1 0 15.2" fill="#005bbbA2"/><path d="M181 43.9a7.6 7.6 0 1 1 0-15.2 7.6 7.6 0 0 1 0 15.2" fill="#005bbbA2"/><path d="M19.4-354.4a7.6 7.6 0 1 1 0-15.3 7.6 7.6 0 0 1 0 15.3" fill="#005bbbA3"/><path d="M-2.8 36.2a7.7 7.7 0 1 1 0-15.4 7.7 7.7 0 0 1 0 15.4" fill="#005bbbA4"/><path d="M-72.5-286.5a7.7 7.7 0 1 1 0-15.3 7.7 7.7 0 0 1 0 15.3" fill="#005bbbA4"/><path d="M309.1-93.5a7.7 7.7 0 1 1 0-15.4 7.7 7.7 0 0 1 0 15.4" fill="#fffA4"/><path d="M-77.3-283.2a7.7 7.7 0 1 1 0-15.5 7.7 7.7 0 0 1 0 15.5" fill="#fff500A5"/><path d="M-13.5-342.3a7.8 7.8 0 1 1 0-15.5 7.8 7.8 0 0 1 0 15.5" fill="#005bbbA5"/><path d="M-82.9-33.4a7.8 7.8 0 1 1 0-15.6 7.8 7.8 0 0 1 0 15.6" fill="#c2e1ffA5"/><path d="M198 42.3a7.8 7.8 0 1 1 0-15.5 7.8 7.8 0 0 1 0 15.5" fill="#005bbbA6"/><path d="M89.5-375.4a7.8 7.8 0 1 1 0-15.7 7.8 7.8 0 0 1 0 15.7" fill="#fff500A7"/><path d="M312.8-93.1a7.8 7.8 0 1 1 0-15.6 7.8 7.8 0 0 1 0 15.6" fill="#c2e1ffA7"/><path d="M99.9 67.8a7.9 7.9 0 1 1 0-15.8 7.9 7.9 0 0 1 0 15.8" fill="#005bbbA8"/><path d="M323.5-153.2a7.9 7.9 0 1 1 0-15.8 7.9 7.9 0 0 1 0 15.8" fill="#c2e1ffA8"/><path d="M-107.1-240.2a7.9 7.9 0 1 1 0-15.8 7.9 7.9 0 0 1 0 15.8" fill="#fffA9"/><path d="M-123.8-170.7a7.9 7.9 0 1 1 0-15.9 7.9 7.9 0 0 1 0 15.9" fill="#fffA9"/><path d="M0.1-355.8a7.9 7.9 0 1 1 0-15.9 7.9 7.9 0 0 1 0 15.9" fill="#fffA9"/><path d="M-120.1-205a8 8 0 1 1 0-16 8 8 0 0 1 0 16" fill="#fffAA"/><path d="M-122.8-196.6a8 8 0 1 1 0-16 8 8 0 0 1 0 16" fill="#c2e1ffAB"/><path d="M310.3-65.1a8.1 8.1 0 1 1 0-16.2 8.1 8.1 0 0 1 0 16.2" fill="#fff500AD"/><path d="M257.3 13.8a8.2 8.2 0 1 1 0-16.4 8.2 8.2 0 0 1 0 16.4" fill="#c2e1ffAF"/><path d="M-118-233.1a8.3 8.3 0 1 1 0-16.6 8.3 8.3 0 0 1 0 16.6" fill="#fffB1"/><path d="M-93.7-282.2a8.3 8.3 0 1 1 0-16.6 8.3 8.3 0 0 1 0 16.6" fill="#fffB2"/><path d="M215.8 47.1a8.3 8.3 0 1 1 0-16.7 8.3 8.3 0 0 1 0 16.7" fill="#005bbbB2"/><path d="M260 14.4a8.3 8.3 0 1 1 0-16.7 8.3 8.3 0 0 1 0 16.7" fill="#c2e1ffB2"/><path d="M48.4 72.9a8.4 8.4 0 1 1 0-16.7 8.4 8.4 0 0 1 0 16.7" fill="#c2e1ffB2"/><path d="M136.8 75.8a8.4 8.4 0 1 1 0-16.7 8.4 8.4 0 0 1 0 16.7" fill="#fffB3"/><path d="M-133-166.4a8.4 8.4 0 1 1 0-16.8 8.4 8.4 0 0 1 0 16.8" fill="#fffB3"/><path d="M-124.9-91.4a8.4 8.4 0 1 1 0-16.9 8.4 8.4 0 0 1 0 16.9" fill="#c2e1ffB4"/><path d="M242.3-340.2a8.5 8.5 0 1 1 0-17 8.5 8.5 0 0 1 0 17" fill="#fff500B5"/><path d="M281.8-302.1a8.5 8.5 0 1 1 0-17 8.5 8.5 0 0 1 0 17" fill="#fffB6"/><path d="M-132.3-120.7a8.5 8.5 0 1 1 0-17 8.5 8.5 0 0 1 0 17" fill="#fff500B6"/><path d="M335-153.9a8.6 8.6 0 1 1 0-17.2 8.6 8.6 0 0 1 0 17.2" fill="#fff500B7"/><path d="M328.3-97.9a8.6 8.6 0 1 1 0-17.1 8.6 8.6 0 0 1 0 17.1" fill="#fffB7"/><path d="M113 81a8.6 8.6 0 1 1 0-17.2 8.6 8.6 0 0 1 0 17.2" fill="#005bbbB8"/><path d="M-122.7-75.1a8.8 8.8 0 1 1 0-17.6 8.8 8.8 0 0 1 0 17.6" fill="#c2e1ffBB"/><path d="M325.5-83.2a8.9 8.9 0 1 1 0-17.7 8.9 8.9 0 0 1 0 17.7" fill="#c2e1ffBE"/><path d="M-64.7-322.9a8.9 8.9 0 1 1 0-17.8 8.9 8.9 0 0 1 0 17.8" fill="#fff500BE"/><path d="M288.9-11.8a8.9 8.9 0 1 1 0-17.8 8.9 8.9 0 0 1 0 17.8" fill="#005bbbBE"/><path d="M195.8-369.5a8.9 8.9 0 1 1 0-17.8 8.9 8.9 0 0 1 0 17.8" fill="#fff500BF"/><path d="M-70.7-316.6a9 9 0 1 1 0-17.9 9 9 0 0 1 0 17.9" fill="#c2e1ffC0"/><path d="M323-76.5a9 9 0 1 1 0-18 9 9 0 0 1 0 18" fill="#c2e1ffC1"/><path d="M25.3-377.1a9 9 0 1 1 0-18.1 9 9 0 0 1 0 18.1" fill="#c2e1ffC1"/><path d="M-92-17.2a9.1 9.1 0 1 1 0-18.2 9.1 9.1 0 0 1 0 18.2" fill="#fffC3"/><path d="M259.6 18.5a9.2 9.2 0 1 1 0-18.5 9.2 9.2 0 0 1 0 18.5" fill="#fffC6"/><path d="M332.2-181.3a9.3 9.3 0 1 1 0-18.5 9.3 9.3 0 0 1 0 18.5" fill="#fff500C7"/><path d="M-76.4 0.2a9.3 9.3 0 1 1 0-18.5 9.3 9.3 0 0 1 0 18.5" fill="#c2e1ffC7"/><path d="M333-162.4a9.3 9.3 0 1 1 0-18.6 9.3 9.3 0 0 1 0 18.6" fill="#005bbbC8"/><path d="M255.6 20.5a9.3 9.3 0 1 1 0-18.7 9.3 9.3 0 0 1 0 18.7" fill="#c2e1ffC8"/><path d="M316.4-236.8a9.4 9.4 0 1 1 0-18.8 9.4 9.4 0 0 1 0 18.8" fill="#fff500CA"/><path d="M-126.7-106.7a9.5 9.5 0 1 1 0-18.9 9.5 9.5 0 0 1 0 18.9" fill="#fffCB"/><path d="M75.6 77.1a9.5 9.5 0 1 1 0-18.9 9.5 9.5 0 0 1 0 18.9" fill="#005bbbCB"/><path d="M139.3-379.3a9.5 9.5 0 1 1 0-19.1 9.5 9.5 0 0 1 0 19.1" fill="#fff500CD"/><path d="M98.3-382.7a9.5 9.5 0 1 1 0-19.1 9.5 9.5 0 0 1 0 19.1" fill="#fff500CD"/><path d="M-71.6-305.4a9.6 9.6 0 1 1 0-19.1 9.6 9.6 0 0 1 0 19.1" fill="#fffCD"/><path d="M-71.7-304a9.6 9.6 0 1 1 0-19.2 9.6 9.6 0 0 1 0 19.2" fill="#fffCE"/><path d="M24.5-368.6a9.6 9.6 0 1 1 0-19.2 9.6 9.6 0 0 1 0 19.2" fill="#fffCE"/><path d="M309.9-67.7a9.7 9.7 0 1 1 0-19.4 9.7 9.7 0 0 1 0 19.4" fill="#c2e1ffD0"/><path d="M311.7-232.7a9.7 9.7 0 1 1 0-19.4 9.7 9.7 0 0 1 0 19.4" fill="#c2e1ffD0"/><path d="M229.6-336.3a9.8 9.8 0 1 1 0-19.6 9.8 9.8 0 0 1 0 19.6" fill="#c2e1ffD2"/><path d="M115.7 71.3a9.8 9.8 0 1 1 0-19.5 9.8 9.8 0 0 1 0 19.5" fill="#005bbbD2"/><path d="M307.4-232.3a9.9 9.9 0 1 1 0-19.7 9.9 9.9 0 0 1 0 19.7" fill="#005bbbD4"/><path d="M285.2-272.7a9.9 9.9 0 1 1 0-19.9 9.9 9.9 0 0 1 0 19.9" fill="#fffD5"/><path d="M-119.6-140.3a9.9 9.9 0 1 1 0-19.9 9.9 9.9 0 0 1 0 19.9" fill="#005bbbD5"/><path d="M297.1-59.6a10 10 0 1 1 0-20 10 10 0 0 1 0 20" fill="#fff500D7"/><path d="M155.2 57.5a10 10 0 1 1 0-20 10 10 0 0 1 0 20" fill="#fffD7"/><path d="M140.1 59.9a10.1 10.1 0 1 1 0-20.1 10.1 10.1 0 0 1 0 20.1" fill="#fffD8"/><path d="M233.9-322a10.1 10.1 0 1 1 0-20.1 10.1 10.1 0 0 1 0 20.1" fill="#fff500D8"/><path d="M-98.1-232.8a10.1 10.1 0 1 1 0-20.3 10.1 10.1 0 0 1 0 20.3" fill="#005bbbD9"/><path d="M95.9 59.6a10.2 10.2 0 1 1 0-20.4 10.2 10.2 0 0 1 0 20.4" fill="#fff500DA"/><path d="M2.2-339.8a10.2 10.2 0 1 1 0-20.3 10.2 10.2 0 0 1 0 20.3" fill="#c2e1ffDA"/><path d="M-49.1-296.3a10.3 10.3 0 1 1 0-20.6 10.3 10.3 0 0 1 0 20.6" fill="#fffDD"/><path d="M299.6-100a10.3 10.3 0 1 1 0-20.6 10.3 10.3 0 0 1 0 20.6" fill="#fff500DD"/><path d="M274.7-260.7a10.3 10.3 0 1 1 0-20.7 10.3 10.3 0 0 1 0 20.7" fill="#fffDD"/><path d="M213-316.4a10.4 10.4 0 1 1 0-20.9 10.4 10.4 0 0 1 0 20.9" fill="#c2e1ffE0"/><path d="M297.4-125.5a10.4 10.4 0 1 1 0-20.9 10.4 10.4 0 0 1 0 20.9" fill="#fffE0"/><path d="M15.1-331.9a10.5 10.5 0 1 1 0-20.9 10.5 10.5 0 0 1 0 20.9" fill="#fff500E1"/><path d="M91 46a10.5 10.5 0 1 1 0-20.9 10.5 10.5 0 0 1 0 20.9" fill="#c2e1ffE1"/><path d="M119.8 41.8a10.5 10.5 0 1 1 0-21.1 10.5 10.5 0 0 1 0 21.1" fill="#c2e1ffE2"/><path d="M-59-258.5a10.6 10.6 0 1 1 0-21.2 10.6 10.6 0 0 1 0 21.2" fill="#fffE4"/><path d="M177.2-326.2a10.6 10.6 0 1 1 0-21.2 10.6 10.6 0 0 1 0 21.2" fill="#fffE4"/><path d="M-66.1-241.1a10.6 10.6 0 1 1 0-21.3 10.6 10.6 0 0 1 0 21.3" fill="#fffE5"/><path d="M47 28.1a10.7 10.7 0 1 1 0-21.3 10.7 10.7 0 0 1 0 21.3" fill="#005bbbE5"/><path d="M-77-95.2a10.7 10.7 0 1 1 0-21.4 10.7 10.7 0 0 1 0 21.4" fill="#fffE6"/><path d="M204.7-301.5a10.7 10.7 0 1 1 0-21.4 10.7 10.7 0 0 1 0 21.4" fill="#005bbbE7"/><path d="M-78.2-115.3a10.7 10.7 0 1 1 0-21.5 10.7 10.7 0 0 1 0 21.5" fill="#fff500E7"/><path d="M255.7-244.7a10.8 10.8 0 1 1 0-21.5 10.8 10.8 0 0 1 0 21.5" fill="#fffE7"/><path d="M169.7 14.6a10.8 10.8 0 1 1 0-21.6 10.8 10.8 0 0 1 0 21.6" fill="#005bbbE7"/><path d="M212.1-12.2a10.8 10.8 0 1 1 0-21.6 10.8 10.8 0 0 1 0 21.6" fill="#005bbbE8"/><path d="M-74.6-189.9a10.8 10.8 0 1 1 0-21.6 10.8 10.8 0 0 1 0 21.6" fill="#c2e1ffE8"/><path d="M249.5-249.4a10.8 10.8 0 1 1 0-21.6 10.8 10.8 0 0 1 0 21.6" fill="#c2e1ffE8"/><path d="M196-2.1a10.8 10.8 0 1 1 0-21.6 10.8 10.8 0 0 1 0 21.6" fill="#fff500E8"/><path d="M276.8-162.6a10.8 10.8 0 1 1 0-21.6 10.8 10.8 0 0 1 0 21.6" fill="#fffE9"/><path d="M-74.7-147.8a10.8 10.8 0 1 1 0-21.7 10.8 10.8 0 0 1 0 21.7" fill="#fff500E9"/><path d="M-6.9-289.4a10.9 10.9 0 1 1 0-21.7 10.9 10.9 0 0 1 0 21.7" fill="#fffE9"/><path d="M168.9 2a10.9 10.9 0 1 1 0-21.9 10.9 10.9 0 0 1 0 21.9" fill="#005bbbEB"/><path d="M21.4-300.2a10.9 10.9 0 1 1 0-21.9 10.9 10.9 0 0 1 0 21.9" fill="#fffEB"/><path d="M-0.1-286.2a10.9 10.9 0 1 1 0-21.9 10.9 10.9 0 0 1 0 21.9" fill="#005bbbEB"/><path d="M228.4-253.8a11 11 0 1 1 0-22 11 11 0 0 1 0 22" fill="#fffEC"/><path d="M-59.3-124.1a11 11 0 1 1 0-22 11 11 0 0 1 0 22" fill="#fff500ED"/><path d="M-37.9-224a11.1 11.1 0 1 1 0-22.1 11.1 11.1 0 0 1 0 22.1" fill="#c2e1ffEE"/><path d="M-7.5-43.8a11.1 11.1 0 1 1 0-22.2 11.1 11.1 0 0 1 0 22.2" fill="#005bbbEF"/><path d="M-0.2-262.8a11.1 11.1 0 1 1 0-22.3 11.1 11.1 0 0 1 0 22.3" fill="#c2e1ffF0"/><path d="M123.9-4a11.1 11.1 0 1 1 0-22.3 11.1 11.1 0 0 1 0 22.3" fill="#c2e1ffF0"/><path d="M-48-155.4a11.2 11.2 0 1 1 0-22.3 11.2 11.2 0 0 1 0 22.3" fill="#fffF0"/><path d="M-11.6-54.8a11.2 11.2 0 1 1 0-22.3 11.2 11.2 0 0 1 0 22.3" fill="#c2e1ffF0"/><path d="M40-19.4a11.2 11.2 0 1 1 0-22.4 11.2 11.2 0 0 1 0 22.4" fill="#fff500F1"/><path d="M228.8-86.6a11.2 11.2 0 1 1 0-22.4 11.2 11.2 0 0 1 0 22.4" fill="#c2e1ffF1"/><path d="M-43.8-154.3a11.2 11.2 0 1 1 0-22.4 11.2 11.2 0 0 1 0 22.4" fill="#fffF1"/><path d="M241.5-154.3a11.2 11.2 0 1 1 0-22.4 11.2 11.2 0 0 1 0 22.4" fill="#fffF2"/><path d="M-34.3-113a11.2 11.2 0 1 1 0-22.5 11.2 11.2 0 0 1 0 22.5" fill="#005bbbF2"/><path d="M104.1-288.8a11.3 11.3 0 1 1 0-22.5 11.3 11.3 0 0 1 0 22.5" fill="#c2e1ffF2"/><path d="M-33.5-175.8a11.3 11.3 0 1 1 0-22.6 11.3 11.3 0 0 1 0 22.6" fill="#c2e1ffF3"/><path d="M-28.5-121.5a11.3 11.3 0 1 1 0-22.6 11.3 11.3 0 0 1 0 22.6" fill="#005bbbF3"/><path d="M-30.5-136.6a11.3 11.3 0 1 1 0-22.6 11.3 11.3 0 0 1 0 22.6" fill="#fffF4"/><path d="M217.6-96.7a11.3 11.3 0 1 1 0-22.6 11.3 11.3 0 0 1 0 22.6" fill="#fffF4"/><path d="M215.3-96.7a11.3 11.3 0 1 1 0-22.7 11.3 11.3 0 0 1 0 22.7" fill="#fffF4"/><path d="M169.7-256.8a11.4 11.4 0 1 1 0-22.7 11.4 11.4 0 0 1 0 22.7" fill="#fff500F4"/><path d="M84.4-29.1a11.4 11.4 0 1 1 0-22.7 11.4 11.4 0 0 1 0 22.7" fill="#fff500F5"/><path d="M215.3-187.7a11.4 11.4 0 1 1 0-22.8 11.4 11.4 0 0 1 0 22.8" fill="#fffF5"/><path d="M49-259.5a11.4 11.4 0 1 1 0-22.8 11.4 11.4 0 0 1 0 22.8" fill="#fffF6"/><path d="M178.6-64.1a11.4 11.4 0 1 1 0-22.8 11.4 11.4 0 0 1 0 22.8" fill="#c2e1ffF6"/><path d="M100.9-37a11.4 11.4 0 1 1 0-22.9 11.4 11.4 0 0 1 0 22.9" fill="#c2e1ffF6"/><path d="M36.9-67.1a11.5 11.5 0 1 1 0-23 11.5 11.5 0 0 1 0 23" fill="#fff500F8"/><path d="M154.6-238.5a11.5 11.5 0 1 1 0-23 11.5 11.5 0 0 1 0 23" fill="#fff500F8"/><path d="M41.6-224.7a11.6 11.6 0 1 1 0-23.2 11.6 11.6 0 0 1 0 23.2" fill="#fff500F9"/><path d="M125.5-99.4a11.7 11.7 0 1 1 0-23.5 11.7 11.7 0 0 1 0 23.5" fill="#005bbbFD"/></g></svg>