<svg width="1200" height="675" viewBox="-500 -500 1200 675" xmlns="http://www.w3.org/2000/svg"><path d="M-500-500h1200v675h-1200z" fill="#000"/><style>.sparkles path{stroke-linecap:round; stroke-width:1}</style><g class="sparkles"><path d="M100-162.5l-1.6 50.9" stroke="#005bbb33"/><path d="M100-162.5l-29.8 51.2" stroke="#005bbb33"/><path d="M100-162.5l-45.5-45.7" stroke="#005bbb33"/><path d="M100-162.5l17.7-69.9" stroke="#fff50034"/><path d="M100-162.5l74.7 11.2" stroke="#fff50034"/><path d="M100-162.5l-78.3-14.2" stroke="#fff34"/><path d="M100-162.5l53.9-76" stroke="#005bbb36"/><path d="M100-162.5l-72.6 66.8" stroke="#c2e1ff36"/><path d="M100-162.5l-84.4 53.8" stroke="#c2e1ff36"/><path d="M100-162.5l-18.4-98.7" stroke="#c2e1ff36"/><path d="M100-162.5l-80.4-60.1" stroke="#fff36"/><path d="M100-162.5l83.2 60.5" stroke="#005bbb36"/><path d="M100-162.5l-102.5-39.5" stroke="#fff50037"/><path d="M100-162.5l31.7-109.7" stroke="#fff38"/><path d="M100-162.5l-23.8-114.7" stroke="#fff50038"/><path d="M100-162.5l-68.6-96.2" stroke="#005bbb38"/><path d="M100-162.5l-65.5-103.4" stroke="#005bbb39"/><path d="M100-162.5l-124.9 9.5" stroke="#005bbb39"/><path d="M100-162.5l-17-125.9" stroke="#fff50039"/><path d="M100-162.5l-37.8-121.4" stroke="#c2e1ff39"/><path d="M100-162.5l56.3-123.1" stroke="#fff5003B"/><path d="M100-162.5l-135.2-25.6" stroke="#fff3B"/><path d="M100-162.5l-127 62.2" stroke="#fff5003B"/><path d="M100-162.5l-0.4 148.7" stroke="#fff5003D"/><path d="M100-162.5l10.6 149.6" stroke="#fff3D"/><path d="M100-162.5l145.1-56.3" stroke="#fff3E"/><path d="M100-162.5l-158.2-16.4" stroke="#c2e1ff3F"/><path d="M100-162.5l19.1 159.5" stroke="#fff3F"/><path d="M100-162.5l53.4-155.4" stroke="#c2e1ff40"/><path d="M100-162.5l114.1 128.6" stroke="#c2e1ff41"/><path d="M100-162.5l41.3 167.2" stroke="#c2e1ff41"/><path d="M100-162.5l-56.5 164.6" stroke="#005bbb42"/><path d="M100-162.5l10 174.6" stroke="#005bbb42"/><path d="M100-162.5l-179.5-33.1" stroke="#fff44"/><path d="M100-162.5l164.3 80.9" stroke="#fff50044"/><path d="M100-162.5l115.2 145.3" stroke="#005bbb45"/><path d="M100-162.5l114.8-146.9" stroke="#c2e1ff45"/><path d="M100-162.5l-23.8 187.1" stroke="#005bbb45"/><path d="M100-162.5l-144.1-122.1" stroke="#005bbb45"/><path d="M100-162.5l-69.8 178.1" stroke="#c2e1ff46"/><path d="M100-162.5l176.9 87.6" stroke="#fff50048"/><path d="M100-162.5l-43.4 194.3" stroke="#fff50049"/><path d="M100-162.5l-179.1 95" stroke="#fff4A"/><path d="M100-162.5l-5.7 202.7" stroke="#005bbb4A"/><path d="M100-162.5l-209.7 10.2" stroke="#fff5004D"/><path d="M100-162.5l140.6-156.1" stroke="#c2e1ff4D"/><path d="M100-162.5l211.5-12.6" stroke="#fff4D"/><path d="M100-162.5l-211.5-12.8" stroke="#005bbb4D"/><path d="M100-162.5l138.6 160.8" stroke="#005bbb4E"/><path d="M100-162.5l-201.3 68.5" stroke="#fff5004E"/><path d="M100-162.5l-195.1-86.4" stroke="#005bbb4E"/><path d="M100-162.5l197.6 85" stroke="#fff4F"/><path d="M100-162.5l117.4 181.1" stroke="#fff4F"/><path d="M100-162.5l-208.4-59.2" stroke="#c2e1ff50"/><path d="M100-162.5l-160.6-146.1" stroke="#fff50"/><path d="M100-162.5l66.7 207.5" stroke="#c2e1ff50"/><path d="M100-162.5l45.7-214.8" stroke="#c2e1ff51"/><path d="M100-162.5l61.1-211" stroke="#fff50051"/><path d="M100-162.5l-172.7-136.7" stroke="#c2e1ff51"/><path d="M100-162.5l-138.2-172.2" stroke="#fff52"/><path d="M100-162.5l200-94.1" stroke="#c2e1ff52"/><path d="M100-162.5l-219.3-31.4" stroke="#fff50052"/><path d="M100-162.5l212.8 64.5" stroke="#fff50053"/><path d="M100-162.5l-162.2-153" stroke="#c2e1ff53"/><path d="M100-162.5l215.7-57.2" stroke="#c2e1ff53"/><path d="M100-162.5l36.3-220.5" stroke="#005bbb53"/><path d="M100-162.5l-106.4-197.2" stroke="#c2e1ff54"/><path d="M100-162.5l-60.7-216.6" stroke="#c2e1ff54"/><path d="M100-162.5l218.1 58.9" stroke="#fff55"/><path d="M100-162.5l144.1-175.2" stroke="#005bbb56"/><path d="M100-162.5l-72-215.7" stroke="#c2e1ff56"/><path d="M100-162.5l-208.7 92.1" stroke="#005bbb57"/><path d="M100-162.5l217.5 69.7" stroke="#c2e1ff57"/><path d="M100-162.5l-218.1 69.7" stroke="#fff57"/><path d="M100-162.5l-198.6 116.9" stroke="#fff59"/><path d="M100-162.5l-27.1 229" stroke="#005bbb59"/><path d="M100-162.5l-115.4 201.8" stroke="#c2e1ff5B"/><path d="M100-162.5l163.7-165.4" stroke="#fff5B"/><path d="M100-162.5l-233.1 1.8" stroke="#c2e1ff5B"/><path d="M100-162.5l-82.6-218.3" stroke="#005bbb5C"/><path d="M100-162.5l-116.1 203.7" stroke="#c2e1ff5D"/><path d="M100-162.5l208.9 106.8" stroke="#fff5E"/><path d="M100-162.5l-26.5 233.4" stroke="#005bbb5E"/><path d="M100-162.5l-234.7-12.5" stroke="#fff5005E"/><path d="M100-162.5l-7.2-235.4" stroke="#c2e1ff5F"/><path d="M100-162.5l-12 235.3" stroke="#005bbb60"/><path d="M100-162.5l213.1-100.4" stroke="#fff60"/><path d="M100-162.5l-225.7-68.2" stroke="#005bbb60"/><path d="M100-162.5l52.8 229.8" stroke="#fff50060"/><path d="M100-162.5l110.1-208.6" stroke="#fff50061"/><path d="M100-162.5l233.5-33.5" stroke="#c2e1ff61"/><path d="M100-162.5l-204.7-117.7" stroke="#fff62"/><path d="M100-162.5l196.8 130.6" stroke="#c2e1ff62"/><path d="M100-162.5l-48.6 231.2" stroke="#fff63"/><path d="M100-162.5l195 133.3" stroke="#fff50063"/><path d="M100-162.5l7.4 236.1" stroke="#fff50064"/><path d="M100-162.5l191.4 138.5" stroke="#fff64"/><path d="M100-162.5l193.7-135.2" stroke="#fff64"/><path d="M100-162.5l-155.2-178.1" stroke="#c2e1ff65"/><path d="M100-162.5l221-83.3" stroke="#c2e1ff65"/><path d="M100-162.5l149.8 182.5" stroke="#fff50065"/><path d="M100-162.5l-229.2-56.6" stroke="#c2e1ff65"/><path d="M100-162.5l98.4-214.2" stroke="#fff67"/><path d="M100-162.5l70.3-224.9" stroke="#fff67"/><path d="M100-162.5l-229.2 53.4" stroke="#fff50068"/><path d="M100-162.5l234.4 19.4" stroke="#fff68"/><path d="M100-162.5l-156.8 174.9" stroke="#fff69"/><path d="M100-162.5l-164.6 167" stroke="#c2e1ff6A"/><path d="M100-162.5l-152.6 178" stroke="#fff5006A"/><path d="M100-162.5l44.2-230" stroke="#c2e1ff6A"/><path d="M100-162.5l-217.9 85.7" stroke="#c2e1ff6A"/><path d="M100-162.5l-9.7 233.6" stroke="#005bbb6B"/><path d="M100-162.5l-223.9 65.9" stroke="#fff6B"/><path d="M100-162.5l-232.4-20.5" stroke="#005bbb6B"/><path d="M100-162.5l-231.4 22.9" stroke="#fff5006C"/><path d="M100-162.5l-26.4-230.3" stroke="#c2e1ff6D"/><path d="M100-162.5l-212.5 92.3" stroke="#005bbb6D"/><path d="M100-162.5l31.5 228.8" stroke="#fff5006E"/><path d="M100-162.5l210.3-94.1" stroke="#fff5006F"/><path d="M100-162.5l22.4 228.5" stroke="#c2e1ff6F"/><path d="M100-162.5l-16-228.9" stroke="#c2e1ff6F"/><path d="M100-162.5l-104.5 204.2" stroke="#c2e1ff6F"/><path d="M100-162.5l216.7 74.9" stroke="#fff70"/><path d="M100-162.5l221.3 59.8" stroke="#fff50070"/><path d="M100-162.5l-160.7 162.8" stroke="#fff50070"/><path d="M100-162.5l-168.7-153.3" stroke="#fff50071"/><path d="M100-162.5l132-185.5" stroke="#fff50071"/><path d="M100-162.5l-65.1 218.1" stroke="#fff50071"/><path d="M100-162.5l-10.4 226.5" stroke="#fff50072"/><path d="M100-162.5l-225.1 15.3" stroke="#fff50072"/><path d="M100-162.5l207.8-87.8" stroke="#005bbb72"/><path d="M100-162.5l-175.9 140.2" stroke="#fff50073"/><path d="M100-162.5l-186.2 125.6" stroke="#c2e1ff73"/><path d="M100-162.5l26.4-222.1" stroke="#005bbb74"/><path d="M100-162.5l-85.6 205.2" stroke="#fff74"/><path d="M100-162.5l221.7-13" stroke="#005bbb75"/><path d="M100-162.5l187.7 115.6" stroke="#c2e1ff75"/><path d="M100-162.5l-126.3 180.2" stroke="#fff50076"/><path d="M100-162.5l-65.8 209.6" stroke="#005bbb76"/><path d="M100-162.5l-217.4-5.8" stroke="#fff77"/><path d="M100-162.5l216.6 0" stroke="#fff77"/><path d="M100-162.5l165.6-138.5" stroke="#fff78"/><path d="M100-162.5l-113.4 180" stroke="#005bbb79"/><path d="M100-162.5l-128-168.1" stroke="#fff5007A"/><path d="M100-162.5l123 167.2" stroke="#005bbb7B"/><path d="M100-162.5l-125.4 165.1" stroke="#fff7B"/><path d="M100-162.5l143-150.1" stroke="#fff5007B"/><path d="M100-162.5l-19.7-205.1" stroke="#fff7C"/><path d="M100-162.5l-23.8 203.9" stroke="#fff5007C"/><path d="M100-162.5l-82.7 187.8" stroke="#fff7C"/><path d="M100-162.5l203.8-19.2" stroke="#fff5007C"/><path d="M100-162.5l157.2-129.5" stroke="#005bbb7D"/><path d="M100-162.5l-25.9-201.4" stroke="#fff5007D"/><path d="M100-162.5l-97.8 175.9" stroke="#fff5007E"/><path d="M100-162.5l-40.5-194.5" stroke="#005bbb7F"/><path d="M100-162.5l107-166.3" stroke="#005bbb7F"/><path d="M100-162.5l21.2 196.1" stroke="#fff7F"/><path d="M100-162.5l-54.6 189.1" stroke="#005bbb7F"/><path d="M100-162.5l-24.1 189.2" stroke="#fff81"/><path d="M100-162.5l-132.9-131.7" stroke="#fff82"/><path d="M100-162.5l173.5-58.7" stroke="#fff83"/><path d="M100-162.5l53.4-171.5" stroke="#fff84"/><path d="M100-162.5l-73.7-161.4" stroke="#fff50085"/><path d="M100-162.5l167.9 56.8" stroke="#fff50085"/><path d="M100-162.5l-138.6 84.5" stroke="#005bbb88"/><path d="M100-162.5l159.1 31.9" stroke="#fff88"/><path d="M100-162.5l119.2-95.4" stroke="#fff8A"/><path d="M100-162.5l-116.3-94.2" stroke="#c2e1ff8A"/><path d="M100-162.5l-93-105.9" stroke="#fff8C"/><path d="M100-162.5l72.2 120.6" stroke="#fff5008C"/><path d="M100-162.5l118.9 60.2" stroke="#fff8D"/><path d="M100-162.5l73-87.3" stroke="#c2e1ff8F"/><path d="M100-162.5l-83.6 75.5" stroke="#fff8F"/><path d="M100-162.5l-7.2 109.4" stroke="#fff90"/><path d="M100-162.5l-61.5-80.1" stroke="#c2e1ff91"/><path d="M100-162.5l-5.7-91.9" stroke="#005bbb92"/><path d="M100-162.5l-78-45.2" stroke="#c2e1ff92"/><path d="M100-162.5l59.7-63.3" stroke="#c2e1ff92"/><path d="M100-162.5l63.6-28" stroke="#c2e1ff93"/><path d="M100-162.5l1-36.9" stroke="#fff50095"/><path d="M100-162.5l14-5.7" stroke="#c2e1ff95"/></g><g class="sparcs"><path d="M98.4-105.6a6 6 0 1 1 0-11.9 6 6 0 0 1 0 11.9" fill="#005bbb7E"/><path d="M70.2-105.3a6 6 0 1 1 0-12 6 6 0 0 1 0 12" fill="#fff5007F"/><path d="M54.5-202.1a6 6 0 1 1 0-12.1 6 6 0 0 1 0 12.1" fill="#fff5007F"/><path d="M117.7-226.3a6 6 0 1 1 0-12.1 6 6 0 0 1 0 12.1" fill="#fff80"/><path d="M174.7-145.2a6.1 6.1 0 1 1 0-12.1 6.1 6.1 0 0 1 0 12.1" fill="#c2e1ff80"/><path d="M21.7-170.6a6.1 6.1 0 1 1 0-12.2 6.1 6.1 0 0 1 0 12.2" fill="#c2e1ff80"/><path d="M153.9-232.4a6.1 6.1 0 1 1 0-12.3 6.1 6.1 0 0 1 0 12.3" fill="#fff50082"/><path d="M27.4-89.5a6.2 6.2 0 1 1 0-12.4 6.2 6.2 0 0 1 0 12.4" fill="#005bbb82"/><path d="M15.6-102.5a6.2 6.2 0 1 1 0-12.3 6.2 6.2 0 0 1 0 12.3" fill="#c2e1ff83"/><path d="M81.6-255a6.2 6.2 0 1 1 0-12.4 6.2 6.2 0 0 1 0 12.4" fill="#c2e1ff83"/><path d="M19.6-216.5a6.2 6.2 0 1 1 0-12.3 6.2 6.2 0 0 1 0 12.3" fill="#fff50083"/><path d="M183.2-95.8a6.2 6.2 0 1 1 0-12.4 6.2 6.2 0 0 1 0 12.4" fill="#c2e1ff83"/><path d="M-2.5-195.8a6.2 6.2 0 1 1 0-12.4 6.2 6.2 0 0 1 0 12.4" fill="#005bbb84"/><path d="M131.7-265.9a6.3 6.3 0 1 1 0-12.6 6.3 6.3 0 0 1 0 12.6" fill="#005bbb85"/><path d="M76.2-270.9a6.3 6.3 0 1 1 0-12.6 6.3 6.3 0 0 1 0 12.6" fill="#fff50085"/><path d="M31.4-252.4a6.3 6.3 0 1 1 0-12.6 6.3 6.3 0 0 1 0 12.6" fill="#fff50085"/><path d="M34.5-259.5a6.3 6.3 0 1 1 0-12.7 6.3 6.3 0 0 1 0 12.7" fill="#c2e1ff86"/><path d="M-24.9-146.6a6.4 6.4 0 1 1 0-12.7 6.4 6.4 0 0 1 0 12.7" fill="#005bbb86"/><path d="M83-282a6.4 6.4 0 1 1 0-12.7 6.4 6.4 0 0 1 0 12.7" fill="#fff87"/><path d="M62.2-277.5a6.4 6.4 0 1 1 0-12.8 6.4 6.4 0 0 1 0 12.8" fill="#005bbb87"/><path d="M156.3-279.1a6.4 6.4 0 1 1 0-12.9 6.4 6.4 0 0 1 0 12.9" fill="#fff88"/><path d="M-35.2-181.6a6.5 6.5 0 1 1 0-13 6.5 6.5 0 0 1 0 13" fill="#005bbb89"/><path d="M-27-93.8a6.5 6.5 0 1 1 0-13 6.5 6.5 0 0 1 0 13" fill="#fff89"/><path d="M99.6-7.2a6.6 6.6 0 1 1 0-13.2 6.6 6.6 0 0 1 0 13.2" fill="#fff8B"/><path d="M110.6-6.3a6.6 6.6 0 1 1 0-13.2 6.6 6.6 0 0 1 0 13.2" fill="#005bbb8B"/><path d="M245.1-212.2a6.6 6.6 0 1 1 0-13.3 6.6 6.6 0 0 1 0 13.3" fill="#c2e1ff8D"/><path d="M-58.2-172.2a6.7 6.7 0 1 1 0-13.4 6.7 6.7 0 0 1 0 13.4" fill="#fff8D"/><path d="M119.1 3.7a6.7 6.7 0 1 1 0-13.4 6.7 6.7 0 0 1 0 13.4" fill="#c2e1ff8E"/><path d="M153.4-311.2a6.7 6.7 0 1 1 0-13.4 6.7 6.7 0 0 1 0 13.4" fill="#005bbb8F"/><path d="M214.1-27.1a6.8 6.8 0 1 1 0-13.6 6.8 6.8 0 0 1 0 13.6" fill="#005bbb91"/><path d="M141.3 11.5a6.8 6.8 0 1 1 0-13.7 6.8 6.8 0 0 1 0 13.7" fill="#c2e1ff91"/><path d="M43.5 9a6.9 6.9 0 1 1 0-13.8 6.9 6.9 0 0 1 0 13.8" fill="#fff50092"/><path d="M110 19a6.9 6.9 0 1 1 0-13.7 6.9 6.9 0 0 1 0 13.7" fill="#005bbb92"/><path d="M-79.5-188.6a7 7 0 1 1 0-13.9 7 7 0 0 1 0 13.9" fill="#005bbb94"/><path d="M264.3-74.6a7 7 0 1 1 0-14 7 7 0 0 1 0 14" fill="#005bbb94"/><path d="M215.2-10.2a7 7 0 1 1 0-14.1 7 7 0 0 1 0 14.1" fill="#c2e1ff95"/><path d="M214.8-302.4a7 7 0 1 1 0-14.1 7 7 0 0 1 0 14.1" fill="#fff50096"/><path d="M76.2 31.7a7.1 7.1 0 1 1 0-14.2 7.1 7.1 0 0 1 0 14.2" fill="#005bbb96"/><path d="M-44.1-277.5a7.1 7.1 0 1 1 0-14.1 7.1 7.1 0 0 1 0 14.1" fill="#005bbb96"/><path d="M30.2 22.7a7.1 7.1 0 1 1 0-14.3 7.1 7.1 0 0 1 0 14.3" fill="#005bbb97"/><path d="M276.9-67.7a7.2 7.2 0 1 1 0-14.4 7.2 7.2 0 0 1 0 14.4" fill="#005bbb9A"/><path d="M56.6 39.1a7.3 7.3 0 1 1 0-14.6 7.3 7.3 0 0 1 0 14.6" fill="#005bbb9B"/><path d="M-79.1-60.1a7.3 7.3 0 1 1 0-14.7 7.3 7.3 0 0 1 0 14.7" fill="#fff5009C"/><path d="M94.3 47.5a7.3 7.3 0 1 1 0-14.7 7.3 7.3 0 0 1 0 14.7" fill="#005bbb9C"/><path d="M-109.7-144.8a7.5 7.5 0 1 1 0-15 7.5 7.5 0 0 1 0 15" fill="#fffA0"/><path d="M240.6-311.1a7.5 7.5 0 1 1 0-15 7.5 7.5 0 0 1 0 15" fill="#fffA0"/><path d="M311.5-167.6a7.6 7.6 0 1 1 0-15.1 7.6 7.6 0 0 1 0 15.1" fill="#fff500A1"/><path d="M-111.5-167.8a7.6 7.6 0 1 1 0-15.1 7.6 7.6 0 0 1 0 15.1" fill="#c2e1ffA1"/><path d="M238.6 5.9a7.6 7.6 0 1 1 0-15.1 7.6 7.6 0 0 1 0 15.1" fill="#c2e1ffA1"/><path d="M-101.3-86.4a7.6 7.6 0 1 1 0-15.2 7.6 7.6 0 0 1 0 15.2" fill="#005bbbA1"/><path d="M-95.1-241.3a7.6 7.6 0 1 1 0-15.2 7.6 7.6 0 0 1 0 15.2" fill="#005bbbA2"/><path d="M297.6-69.9a7.6 7.6 0 1 1 0-15.2 7.6 7.6 0 0 1 0 15.2" fill="#fff500A3"/><path d="M217.4 26.2a7.7 7.7 0 1 1 0-15.3 7.7 7.7 0 0 1 0 15.3" fill="#005bbbA3"/><path d="M-108.4-214a7.7 7.7 0 1 1 0-15.4 7.7 7.7 0 0 1 0 15.4" fill="#005bbbA4"/><path d="M-60.6-300.9a7.7 7.7 0 1 1 0-15.4 7.7 7.7 0 0 1 0 15.4" fill="#fff500A4"/><path d="M166.7 52.8a7.7 7.7 0 1 1 0-15.5 7.7 7.7 0 0 1 0 15.5" fill="#fff500A4"/><path d="M145.7-369.5a7.8 7.8 0 1 1 0-15.5 7.8 7.8 0 0 1 0 15.5" fill="#005bbbA6"/><path d="M161.1-365.8a7.8 7.8 0 1 1 0-15.5 7.8 7.8 0 0 1 0 15.5" fill="#fff500A6"/><path d="M-72.7-291.4a7.8 7.8 0 1 1 0-15.6 7.8 7.8 0 0 1 0 15.6" fill="#fffA6"/><path d="M-38.2-326.9a7.8 7.8 0 1 1 0-15.6 7.8 7.8 0 0 1 0 15.6" fill="#fffA6"/><path d="M300-248.8a7.8 7.8 0 1 1 0-15.7 7.8 7.8 0 0 1 0 15.7" fill="#fffA7"/><path d="M-119.3-186.1a7.8 7.8 0 1 1 0-15.6 7.8 7.8 0 0 1 0 15.6" fill="#c2e1ffA7"/><path d="M312.8-90.2a7.9 7.9 0 1 1 0-15.7 7.9 7.9 0 0 1 0 15.7" fill="#fff500A8"/><path d="M-62.2-307.6a7.9 7.9 0 1 1 0-15.8 7.9 7.9 0 0 1 0 15.8" fill="#fff500A8"/><path d="M315.7-211.8a7.9 7.9 0 1 1 0-15.8 7.9 7.9 0 0 1 0 15.8" fill="#005bbbA8"/><path d="M136.3-375.1a7.9 7.9 0 1 1 0-15.8 7.9 7.9 0 0 1 0 15.8" fill="#c2e1ffA8"/><path d="M-6.4-351.8a7.9 7.9 0 1 1 0-15.8 7.9 7.9 0 0 1 0 15.8" fill="#fffA9"/><path d="M39.3-371.2a8 8 0 1 1 0-15.9 8 8 0 0 1 0 15.9" fill="#fffAA"/><path d="M318.1-95.6a8 8 0 1 1 0-16 8 8 0 0 1 0 16" fill="#fff500AB"/><path d="M244.1-329.6a8 8 0 1 1 0-16.1 8 8 0 0 1 0 16.1" fill="#fff500AB"/><path d="M28-370.1a8.1 8.1 0 1 1 0-16.1 8.1 8.1 0 0 1 0 16.1" fill="#c2e1ffAC"/><path d="M-108.7-62.3a8.1 8.1 0 1 1 0-16.2 8.1 8.1 0 0 1 0 16.2" fill="#fff500AD"/><path d="M317.5-84.7a8.1 8.1 0 1 1 0-16.2 8.1 8.1 0 0 1 0 16.2" fill="#c2e1ffAD"/><path d="M-118.1-84.7a8.1 8.1 0 1 1 0-16.2 8.1 8.1 0 0 1 0 16.2" fill="#fff500AD"/><path d="M-98.6-37.4a8.2 8.2 0 1 1 0-16.4 8.2 8.2 0 0 1 0 16.4" fill="#c2e1ffAF"/><path d="M72.9 74.7a8.2 8.2 0 1 1 0-16.4 8.2 8.2 0 0 1 0 16.4" fill="#fff500AF"/><path d="M-15.4 47.6a8.3 8.3 0 1 1 0-16.6 8.3 8.3 0 0 1 0 16.6" fill="#005bbbB2"/><path d="M263.7-319.5a8.3 8.3 0 1 1 0-16.7 8.3 8.3 0 0 1 0 16.7" fill="#fff500B2"/><path d="M-133.1-152.3a8.4 8.4 0 1 1 0-16.7 8.4 8.4 0 0 1 0 16.7" fill="#c2e1ffB3"/><path d="M17.4-372.4a8.4 8.4 0 1 1 0-16.8 8.4 8.4 0 0 1 0 16.8" fill="#005bbbB4"/><path d="M-16.1 49.7a8.5 8.5 0 1 1 0-17 8.5 8.5 0 0 1 0 17" fill="#005bbbB5"/><path d="M308.9-47.1a8.5 8.5 0 1 1 0-17.1 8.5 8.5 0 0 1 0 17.1" fill="#fff500B6"/><path d="M73.5 79.4a8.5 8.5 0 1 1 0-17 8.5 8.5 0 0 1 0 17" fill="#fff500B7"/><path d="M-134.7-166.4a8.6 8.6 0 1 1 0-17.2 8.6 8.6 0 0 1 0 17.2" fill="#fff500B7"/><path d="M92.8-389.2a8.6 8.6 0 1 1 0-17.3 8.6 8.6 0 0 1 0 17.3" fill="#005bbbB8"/><path d="M88 81.4a8.6 8.6 0 1 1 0-17.3 8.6 8.6 0 0 1 0 17.3" fill="#fff500B9"/><path d="M313.1-254.3a8.6 8.6 0 1 1 0-17.3 8.6 8.6 0 0 1 0 17.3" fill="#fffB9"/><path d="M-125.7-222.1a8.7 8.7 0 1 1 0-17.3 8.7 8.7 0 0 1 0 17.3" fill="#fff500B9"/><path d="M152.8 75.9a8.7 8.7 0 1 1 0-17.3 8.7 8.7 0 0 1 0 17.3" fill="#005bbbB9"/><path d="M210.1-362.4a8.7 8.7 0 1 1 0-17.3 8.7 8.7 0 0 1 0 17.3" fill="#fff500BA"/><path d="M333.5-187.3a8.7 8.7 0 1 1 0-17.4 8.7 8.7 0 0 1 0 17.4" fill="#005bbbBA"/><path d="M-104.7-271.5a8.8 8.8 0 1 1 0-17.5 8.8 8.8 0 0 1 0 17.5" fill="#c2e1ffBB"/><path d="M296.8-23.1a8.8 8.8 0 1 1 0-17.6 8.8 8.8 0 0 1 0 17.6" fill="#fffBC"/><path d="M51.4 77.5a8.8 8.8 0 1 1 0-17.7 8.8 8.8 0 0 1 0 17.7" fill="#fffBD"/><path d="M295-20.3a8.8 8.8 0 1 1 0-17.7 8.8 8.8 0 0 1 0 17.7" fill="#c2e1ffBD"/><path d="M107.4 82.5a8.9 8.9 0 1 1 0-17.8 8.9 8.9 0 0 1 0 17.8" fill="#fffBE"/><path d="M291.4-15.1a8.9 8.9 0 1 1 0-17.8 8.9 8.9 0 0 1 0 17.8" fill="#005bbbBE"/><path d="M293.7-288.8a8.9 8.9 0 1 1 0-17.8 8.9 8.9 0 0 1 0 17.8" fill="#fff500BF"/><path d="M-55.2-331.7a8.9 8.9 0 1 1 0-17.8 8.9 8.9 0 0 1 0 17.8" fill="#fff500BF"/><path d="M321-236.8a8.9 8.9 0 1 1 0-17.9 8.9 8.9 0 0 1 0 17.9" fill="#c2e1ffBF"/><path d="M249.8 29a9 9 0 1 1 0-17.9 9 9 0 0 1 0 17.9" fill="#c2e1ffC0"/><path d="M-129.2-210.1a9 9 0 1 1 0-17.9 9 9 0 0 1 0 17.9" fill="#fffC0"/><path d="M198.4-367.6a9.1 9.1 0 1 1 0-18.2 9.1 9.1 0 0 1 0 18.2" fill="#005bbbC2"/><path d="M170.3-378.4a9.1 9.1 0 1 1 0-18.1 9.1 9.1 0 0 1 0 18.1" fill="#fff500C2"/><path d="M-129.2-100a9.1 9.1 0 1 1 0-18.2 9.1 9.1 0 0 1 0 18.2" fill="#005bbbC3"/><path d="M334.4-133.9a9.1 9.1 0 1 1 0-18.3 9.1 9.1 0 0 1 0 18.3" fill="#c2e1ffC4"/><path d="M-56.8 21.5a9.2 9.2 0 1 1 0-18.3 9.2 9.2 0 0 1 0 18.3" fill="#fffC5"/><path d="M-64.6 13.7a9.2 9.2 0 1 1 0-18.4 9.2 9.2 0 0 1 0 18.4" fill="#005bbbC5"/><path d="M-52.6 24.7a9.2 9.2 0 1 1 0-18.4 9.2 9.2 0 0 1 0 18.4" fill="#c2e1ffC5"/><path d="M144.2-383.3a9.2 9.2 0 1 1 0-18.4 9.2 9.2 0 0 1 0 18.4" fill="#c2e1ffC6"/><path d="M-117.9-67.5a9.3 9.3 0 1 1 0-18.5 9.3 9.3 0 0 1 0 18.5" fill="#fffC6"/><path d="M90.3 80.4a9.3 9.3 0 1 1 0-18.6 9.3 9.3 0 0 1 0 18.6" fill="#005bbbC7"/><path d="M-123.9-87.3a9.3 9.3 0 1 1 0-18.6 9.3 9.3 0 0 1 0 18.6" fill="#fff500C7"/><path d="M-132.4-173.7a9.3 9.3 0 1 1 0-18.7 9.3 9.3 0 0 1 0 18.7" fill="#fff500C8"/><path d="M-131.4-130.2a9.4 9.4 0 1 1 0-18.8 9.4 9.4 0 0 1 0 18.8" fill="#fff500C9"/><path d="M73.6-383.4a9.4 9.4 0 1 1 0-18.9 9.4 9.4 0 0 1 0 18.9" fill="#fff500CA"/><path d="M-112.5-60.8a9.4 9.4 0 1 1 0-18.9 9.4 9.4 0 0 1 0 18.9" fill="#c2e1ffCA"/><path d="M131.5 75.8a9.5 9.5 0 1 1 0-19 9.5 9.5 0 0 1 0 19" fill="#fff500CB"/><path d="M310.3-247.1a9.5 9.5 0 1 1 0-19 9.5 9.5 0 0 1 0 19" fill="#fff500CC"/><path d="M122.4 75.5a9.6 9.6 0 1 1 0-19.1 9.6 9.6 0 0 1 0 19.1" fill="#fffCD"/><path d="M84-381.8a9.6 9.6 0 1 1 0-19.2 9.6 9.6 0 0 1 0 19.2" fill="#fff500CD"/><path d="M-4.5 51.2a9.6 9.6 0 1 1 0-19.1 9.6 9.6 0 0 1 0 19.1" fill="#fffCD"/><path d="M316.7-78a9.6 9.6 0 1 1 0-19.1 9.6 9.6 0 0 1 0 19.1" fill="#c2e1ffCD"/><path d="M321.3-93.1a9.6 9.6 0 1 1 0-19.1 9.6 9.6 0 0 1 0 19.1" fill="#c2e1ffCD"/><path d="M-60.7 9.9a9.6 9.6 0 1 1 0-19.2 9.6 9.6 0 0 1 0 19.2" fill="#c2e1ffCE"/><path d="M-68.7-306.1a9.6 9.6 0 1 1 0-19.3 9.6 9.6 0 0 1 0 19.3" fill="#005bbbCF"/><path d="M232-338.3a9.6 9.6 0 1 1 0-19.3 9.6 9.6 0 0 1 0 19.3" fill="#fff500CF"/><path d="M34.9 65.3a9.7 9.7 0 1 1 0-19.3 9.7 9.7 0 0 1 0 19.3" fill="#c2e1ffCF"/><path d="M89.6 73.7a9.7 9.7 0 1 1 0-19.4 9.7 9.7 0 0 1 0 19.4" fill="#005bbbD0"/><path d="M-125.1-137.4a9.7 9.7 0 1 1 0-19.5 9.7 9.7 0 0 1 0 19.5" fill="#c2e1ffD1"/><path d="M307.8-240.6a9.7 9.7 0 1 1 0-19.4 9.7 9.7 0 0 1 0 19.4" fill="#fff500D1"/><path d="M-75.9-12.6a9.8 9.8 0 1 1 0-19.5 9.8 9.8 0 0 1 0 19.5" fill="#005bbbD1"/><path d="M-86.2-27.1a9.8 9.8 0 1 1 0-19.6 9.8 9.8 0 0 1 0 19.6" fill="#fffD2"/><path d="M126.4-374.8a9.8 9.8 0 1 1 0-19.6 9.8 9.8 0 0 1 0 19.6" fill="#fff500D2"/><path d="M14.4 52.6a9.9 9.9 0 1 1 0-19.7 9.9 9.9 0 0 1 0 19.7" fill="#005bbbD3"/><path d="M321.7-165.6a9.9 9.9 0 1 1 0-19.8 9.9 9.9 0 0 1 0 19.8" fill="#fffD4"/><path d="M287.7-37a9.9 9.9 0 1 1 0-19.8 9.9 9.9 0 0 1 0 19.8" fill="#c2e1ffD5"/><path d="M-26.3 27.7a9.9 9.9 0 1 1 0-19.9 9.9 9.9 0 0 1 0 19.9" fill="#005bbbD5"/><path d="M34.2 57.1a9.9 9.9 0 1 1 0-19.9 9.9 9.9 0 0 1 0 19.9" fill="#005bbbD5"/><path d="M-117.4-158.3a10 10 0 1 1 0-20.1 10 10 0 0 1 0 20.1" fill="#fffD7"/><path d="M316.6-152.5a10 10 0 1 1 0-20 10 10 0 0 1 0 20" fill="#fff500D7"/><path d="M265.6-291a10.1 10.1 0 1 1 0-20.1 10.1 10.1 0 0 1 0 20.1" fill="#c2e1ffD8"/><path d="M-13.4 27.7a10.1 10.1 0 1 1 0-20.3 10.1 10.1 0 0 1 0 20.3" fill="#fff500DA"/><path d="M-28-320.4a10.2 10.2 0 1 1 0-20.4 10.2 10.2 0 0 1 0 20.4" fill="#005bbbDB"/><path d="M223 15a10.3 10.3 0 1 1 0-20.5 10.3 10.3 0 0 1 0 20.5" fill="#fff500DD"/><path d="M-25.4 12.9a10.3 10.3 0 1 1 0-20.5 10.3 10.3 0 0 1 0 20.5" fill="#fff500DD"/><path d="M243-302.3a10.3 10.3 0 1 1 0-20.6 10.3 10.3 0 0 1 0 20.6" fill="#fff500DD"/><path d="M80.3-357.3a10.3 10.3 0 1 1 0-20.6 10.3 10.3 0 0 1 0 20.6" fill="#c2e1ffDD"/><path d="M76.2 51.7a10.3 10.3 0 1 1 0-20.6 10.3 10.3 0 0 1 0 20.6" fill="#fffDE"/><path d="M17.3 35.6a10.3 10.3 0 1 1 0-20.7 10.3 10.3 0 0 1 0 20.7" fill="#fff500DE"/><path d="M303.8-171.4a10.3 10.3 0 1 1 0-20.7 10.3 10.3 0 0 1 0 20.7" fill="#005bbbDE"/><path d="M257.2-281.6a10.4 10.4 0 1 1 0-20.7 10.4 10.4 0 0 1 0 20.7" fill="#005bbbDE"/><path d="M74.1-353.6a10.4 10.4 0 1 1 0-20.7 10.4 10.4 0 0 1 0 20.7" fill="#005bbbDF"/><path d="M2.2 23.8a10.4 10.4 0 1 1 0-20.8 10.4 10.4 0 0 1 0 20.8" fill="#c2e1ffE0"/><path d="M59.5-346.5a10.5 10.5 0 1 1 0-21 10.5 10.5 0 0 1 0 21" fill="#c2e1ffE1"/><path d="M207-318.3a10.5 10.5 0 1 1 0-21 10.5 10.5 0 0 1 0 21" fill="#fffE1"/><path d="M121.2 44.1a10.5 10.5 0 1 1 0-21 10.5 10.5 0 0 1 0 21" fill="#fff500E1"/><path d="M45.4 37.1a10.5 10.5 0 1 1 0-21 10.5 10.5 0 0 1 0 21" fill="#005bbbE1"/><path d="M75.9 37.3a10.6 10.6 0 1 1 0-21.2 10.6 10.6 0 0 1 0 21.2" fill="#005bbbE4"/><path d="M-32.9-283.5a10.7 10.7 0 1 1 0-21.4 10.7 10.7 0 0 1 0 21.4" fill="#005bbbE5"/><path d="M273.5-210.5a10.7 10.7 0 1 1 0-21.4 10.7 10.7 0 0 1 0 21.4" fill="#fffE7"/><path d="M153.4-323.2a10.8 10.8 0 1 1 0-21.5 10.8 10.8 0 0 1 0 21.5" fill="#005bbbE8"/><path d="M26.3-313.1a10.8 10.8 0 1 1 0-21.7 10.8 10.8 0 0 1 0 21.7" fill="#005bbbE8"/><path d="M267.9-94.9a10.8 10.8 0 1 1 0-21.6 10.8 10.8 0 0 1 0 21.6" fill="#c2e1ffE8"/><path d="M-38.6-67a11 11 0 1 1 0-22 11 11 0 0 1 0 22" fill="#c2e1ffED"/><path d="M259.1-119.6a11 11 0 1 1 0-22 11 11 0 0 1 0 22" fill="#c2e1ffED"/><path d="M219.2-246.8a11.1 11.1 0 1 1 0-22.2 11.1 11.1 0 0 1 0 22.2" fill="#005bbbEF"/><path d="M-16.3-245.6a11.1 11.1 0 1 1 0-22.3 11.1 11.1 0 0 1 0 22.3" fill="#c2e1ffF0"/><path d="M7-257.2a11.2 11.2 0 1 1 0-22.4 11.2 11.2 0 0 1 0 22.4" fill="#fffF2"/><path d="M172.2-30.7a11.2 11.2 0 1 1 0-22.5 11.2 11.2 0 0 1 0 22.5" fill="#c2e1ffF2"/><path d="M218.9-91a11.3 11.3 0 1 1 0-22.6 11.3 11.3 0 0 1 0 22.6" fill="#fffF3"/><path d="M173-238.3a11.4 11.4 0 1 1 0-22.9 11.4 11.4 0 0 1 0 22.9" fill="#fff500F6"/><path d="M16.4-75.6a11.5 11.5 0 1 1 0-22.9 11.5 11.5 0 0 1 0 22.9" fill="#c2e1ffF7"/><path d="M92.8-41.7a11.5 11.5 0 1 1 0-22.9 11.5 11.5 0 0 1 0 22.9" fill="#c2e1ffF7"/><path d="M38.5-231.1a11.5 11.5 0 1 1 0-23.1 11.5 11.5 0 0 1 0 23.1" fill="#005bbbF8"/><path d="M94.3-242.8a11.6 11.6 0 1 1 0-23.1 11.6 11.6 0 0 1 0 23.1" fill="#005bbbF9"/><path d="M22-196.1a11.6 11.6 0 1 1 0-23.2 11.6 11.6 0 0 1 0 23.2" fill="#005bbbFA"/><path d="M159.7-214.2a11.6 11.6 0 1 1 0-23.2 11.6 11.6 0 0 1 0 23.2" fill="#005bbbFA"/><path d="M163.6-178.8a11.7 11.7 0 1 1 0-23.3 11.7 11.7 0 0 1 0 23.3" fill="#fffFC"/><path d="M101-187.6a11.8 11.8 0 1 1 0-23.5 11.8 11.8 0 0 1 0 23.5" fill="#fff500FE"/><path d="M114-156.3a11.8 11.8 0 1 1 0-23.7 11.8 11.8 0 0 1 0 23.7" fill="#fffFE"/></g></svg>