<svg width="1200" height="675" viewBox="-500 -500 1200 675" xmlns="http://www.w3.org/2000/svg"><path d="M-500-500h1200v675h-1200z" fill="#000"/><style>.sparkles path{stroke-linecap:round; stroke-width:1}</style><g class="sparkles"><path d="M100-162.5l2.3 20.5" stroke="#005bbb32"/><path d="M100-162.5l19.6-31.4" stroke="#fff32"/><path d="M100-162.5l28.3-47.1" stroke="#c2e1ff33"/><path d="M100-162.5l21.6-54.6" stroke="#005bbb33"/><path d="M100-162.5l-41 44.2" stroke="#c2e1ff33"/><path d="M100-162.5l15.4 71" stroke="#fff34"/><path d="M100-162.5l7.8 77.1" stroke="#005bbb34"/><path d="M100-162.5l-50.7-67" stroke="#fff35"/><path d="M100-162.5l-13.8 93.3" stroke="#c2e1ff36"/><path d="M100-162.5l102.1-35" stroke="#fff37"/><path d="M100-162.5l55.6 93.6" stroke="#c2e1ff37"/><path d="M100-162.5l-57.8 95.2" stroke="#005bbb37"/><path d="M100-162.5l15.8 111.3" stroke="#c2e1ff38"/><path d="M100-162.5l95.1 61.1" stroke="#fff50038"/><path d="M100-162.5l-59.7 102.2" stroke="#c2e1ff38"/><path d="M100-162.5l-117.4-17.4" stroke="#005bbb38"/><path d="M100-162.5l-118.1-41" stroke="#fff39"/><path d="M100-162.5l115.3-61.9" stroke="#c2e1ff3A"/><path d="M100-162.5l108-74.5" stroke="#fff5003A"/><path d="M100-162.5l-6.9 150.8" stroke="#fff5003D"/><path d="M100-162.5l-99.3 114.4" stroke="#fff3D"/><path d="M100-162.5l-111.6-106.3" stroke="#fff3E"/><path d="M100-162.5l137.6-73.8" stroke="#fff5003E"/><path d="M100-162.5l119.7-101.7" stroke="#fff5003E"/><path d="M100-162.5l105 117.9" stroke="#c2e1ff3E"/><path d="M100-162.5l144.8 70.4" stroke="#fff3F"/><path d="M100-162.5l-97.7 138.2" stroke="#005bbb41"/><path d="M100-162.5l135.9 107.3" stroke="#fff41"/><path d="M100-162.5l38.8-169.1" stroke="#005bbb42"/><path d="M100-162.5l-171.3 31.6" stroke="#005bbb42"/><path d="M100-162.5l-171 34.4" stroke="#c2e1ff42"/><path d="M100-162.5l144.7 98.4" stroke="#fff42"/><path d="M100-162.5l64.6-169.4" stroke="#c2e1ff43"/><path d="M100-162.5l61.4 171.3" stroke="#fff50044"/><path d="M100-162.5l27.7-179.9" stroke="#fff50044"/><path d="M100-162.5l171.8 65.8" stroke="#fff44"/><path d="M100-162.5l-71 173.2" stroke="#c2e1ff45"/><path d="M100-162.5l145.7-123.1" stroke="#fff46"/><path d="M100-162.5l-101.7 164.6" stroke="#c2e1ff47"/><path d="M100-162.5l178.3-80.2" stroke="#005bbb47"/><path d="M100-162.5l-4.6-196.6" stroke="#fff48"/><path d="M100-162.5l-91.2-177.6" stroke="#005bbb49"/><path d="M100-162.5l117.1 171" stroke="#c2e1ff4B"/><path d="M100-162.5l-63.1 198.5" stroke="#fff4C"/><path d="M100-162.5l208.4 2.5" stroke="#fff5004C"/><path d="M100-162.5l13 208.3" stroke="#005bbb4C"/><path d="M100-162.5l-67.7-198.3" stroke="#c2e1ff4C"/><path d="M100-162.5l-73.7 196.5" stroke="#c2e1ff4D"/><path d="M100-162.5l57.3 202.2" stroke="#fff4D"/><path d="M100-162.5l183.5 102.4" stroke="#c2e1ff4D"/><path d="M100-162.5l-198.7 70.4" stroke="#005bbb4D"/><path d="M100-162.5l86.3-192.5" stroke="#005bbb4D"/><path d="M100-162.5l58.3-204" stroke="#005bbb4D"/><path d="M100-162.5l-94 190.3" stroke="#fff5004E"/><path d="M100-162.5l179.6-113.9" stroke="#005bbb4E"/><path d="M100-162.5l-74.8 199.3" stroke="#c2e1ff4E"/><path d="M100-162.5l-30.6-211.8" stroke="#c2e1ff4E"/><path d="M100-162.5l-51.2-208" stroke="#fff5004E"/><path d="M100-162.5l-214.1-10.7" stroke="#fff5004F"/><path d="M100-162.5l-205.9-59.7" stroke="#005bbb4F"/><path d="M100-162.5l-184.3 115.2" stroke="#fff50050"/><path d="M100-162.5l107.3 189.9" stroke="#005bbb50"/><path d="M100-162.5l-155.4 153.2" stroke="#c2e1ff50"/><path d="M100-162.5l-123.1 181.1" stroke="#fff51"/><path d="M100-162.5l131.5 175.1" stroke="#c2e1ff51"/><path d="M100-162.5l-37.9-216.1" stroke="#fff50051"/><path d="M100-162.5l219.7 16.2" stroke="#fff50051"/><path d="M100-162.5l195.7 105" stroke="#005bbb52"/><path d="M100-162.5l-208.6-79.4" stroke="#c2e1ff53"/><path d="M100-162.5l-14.2-223" stroke="#005bbb53"/><path d="M100-162.5l-129.9 182" stroke="#c2e1ff53"/><path d="M100-162.5l19.1 223.3" stroke="#005bbb54"/><path d="M100-162.5l111.4-198.6" stroke="#c2e1ff56"/><path d="M100-162.5l-227.7 23.5" stroke="#fff50057"/><path d="M100-162.5l216.8-75.2" stroke="#fff50058"/><path d="M100-162.5l-95.5 209.8" stroke="#fff59"/><path d="M100-162.5l-34.1 229" stroke="#005bbb5A"/><path d="M100-162.5l-132 190.6" stroke="#fff5A"/><path d="M100-162.5l231.9 13.4" stroke="#fff5A"/><path d="M100-162.5l-99.5 210.9" stroke="#005bbb5B"/><path d="M100-162.5l-141.9-185.3" stroke="#fff5C"/><path d="M100-162.5l-138.7 188" stroke="#fff5C"/><path d="M100-162.5l-117.6-202.1" stroke="#fff5C"/><path d="M100-162.5l228.9-48.6" stroke="#c2e1ff5D"/><path d="M100-162.5l10-234.1" stroke="#fff5D"/><path d="M100-162.5l-195.6 129.9" stroke="#005bbb5E"/><path d="M100-162.5l148.2-182.6" stroke="#fff5F"/><path d="M100-162.5l231-44" stroke="#fff5F"/><path d="M100-162.5l219.5-84.7" stroke="#005bbb5F"/><path d="M100-162.5l139.6 190.1" stroke="#005bbb61"/><path d="M100-162.5l235.8-6.1" stroke="#005bbb61"/><path d="M100-162.5l-235.9-10.1" stroke="#fff62"/><path d="M100-162.5l232.7-39.9" stroke="#c2e1ff62"/><path d="M100-162.5l-155.3-178" stroke="#c2e1ff62"/><path d="M100-162.5l234.5 28.4" stroke="#c2e1ff63"/><path d="M100-162.5l196.3-131.4" stroke="#fff63"/><path d="M100-162.5l32.6 234" stroke="#fff50063"/><path d="M100-162.5l11.4 236" stroke="#005bbb64"/><path d="M100-162.5l180.3 152.7" stroke="#fff50064"/><path d="M100-162.5l53-230.2" stroke="#c2e1ff64"/><path d="M100-162.5l-11.9-235.9" stroke="#c2e1ff65"/><path d="M100-162.5l-59.2-228.5" stroke="#c2e1ff66"/><path d="M100-162.5l-57.3 228.6" stroke="#005bbb67"/><path d="M100-162.5l23.2-234.4" stroke="#fff67"/><path d="M100-162.5l-216.9-91.9" stroke="#c2e1ff67"/><path d="M100-162.5l235.2 10.5" stroke="#005bbb68"/><path d="M100-162.5l-185.1 144.5" stroke="#005bbb69"/><path d="M100-162.5l-199.6-122.9" stroke="#005bbb6A"/><path d="M100-162.5l-90-216.3" stroke="#fff5006A"/><path d="M100-162.5l212.8 98" stroke="#c2e1ff6A"/><path d="M100-162.5l147.6 181.4" stroke="#c2e1ff6B"/><path d="M100-162.5l190.1 135.9" stroke="#c2e1ff6B"/><path d="M100-162.5l-200.1 117.2" stroke="#c2e1ff6D"/><path d="M100-162.5l219.6 73.7" stroke="#c2e1ff6D"/><path d="M100-162.5l-191.4 128.8" stroke="#c2e1ff6E"/><path d="M100-162.5l94.2-209" stroke="#fff50070"/><path d="M100-162.5l13.9 228.4" stroke="#c2e1ff70"/><path d="M100-162.5l-218.5 68" stroke="#fff50070"/><path d="M100-162.5l-71.7 217.2" stroke="#fff70"/><path d="M100-162.5l153.9 169" stroke="#fff50070"/><path d="M100-162.5l-26.2-227" stroke="#fff50070"/><path d="M100-162.5l-140.8-178.2" stroke="#c2e1ff71"/><path d="M100-162.5l111.4 196.4" stroke="#005bbb72"/><path d="M100-162.5l-194.4 114.7" stroke="#005bbb72"/><path d="M100-162.5l223.2-22.2" stroke="#005bbb73"/><path d="M100-162.5l209-80.4" stroke="#005bbb73"/><path d="M100-162.5l-98-199.8" stroke="#005bbb74"/><path d="M100-162.5l216.5-41" stroke="#c2e1ff76"/><path d="M100-162.5l-44.9-215.5" stroke="#c2e1ff76"/><path d="M100-162.5l-113.8-187.6" stroke="#005bbb76"/><path d="M100-162.5l139.9 166.9" stroke="#fff77"/><path d="M100-162.5l216.7 0" stroke="#fff50077"/><path d="M100-162.5l208.7 51.2" stroke="#fff50078"/><path d="M100-162.5l-126.2 173.4" stroke="#fff78"/><path d="M100-162.5l-195.9-84.3" stroke="#fff50079"/><path d="M100-162.5l200.6-67.1" stroke="#fff7A"/><path d="M100-162.5l-154.4 140" stroke="#fff7B"/><path d="M100-162.5l201 48.5" stroke="#fff5007C"/><path d="M100-162.5l195.7 60.4" stroke="#c2e1ff7C"/><path d="M100-162.5l-22.1 203.5" stroke="#fff7C"/><path d="M100-162.5l-14.1 203.1" stroke="#fff7D"/><path d="M100-162.5l-121.2-163.5" stroke="#fff5007D"/><path d="M100-162.5l-139.3 145.5" stroke="#fff5007E"/><path d="M100-162.5l48-191.4" stroke="#fff7F"/><path d="M100-162.5l-189.9-52.2" stroke="#fff5007F"/><path d="M100-162.5l-8.4 196.1" stroke="#005bbb7F"/><path d="M100-162.5l188.2-46.7" stroke="#fff80"/><path d="M100-162.5l65.1 181.6" stroke="#c2e1ff80"/><path d="M100-162.5l-84.8-172.1" stroke="#fff81"/><path d="M100-162.5l-131.2 139.5" stroke="#c2e1ff81"/><path d="M100-162.5l-33.1-187.3" stroke="#fff81"/><path d="M100-162.5l-34.9 186.5" stroke="#fff50081"/><path d="M100-162.5l-2.4 188.8" stroke="#fff82"/><path d="M100-162.5l-149.4 113.9" stroke="#fff50082"/><path d="M100-162.5l58.5 173.3" stroke="#c2e1ff83"/><path d="M100-162.5l-146.6 108.7" stroke="#fff50083"/><path d="M100-162.5l-24-179.7" stroke="#fff84"/><path d="M100-162.5l92-155.6" stroke="#fff50084"/><path d="M100-162.5l-178.7-26.2" stroke="#fff50084"/><path d="M100-162.5l97.3 146.7" stroke="#005bbb85"/><path d="M100-162.5l127.2-120.4" stroke="#fff50085"/><path d="M100-162.5l-27.8 172" stroke="#fff85"/><path d="M100-162.5l-96.6 131.9" stroke="#005bbb88"/><path d="M100-162.5l50.1 146.6" stroke="#005bbb89"/><path d="M100-162.5l25.2-151.1" stroke="#005bbb8A"/><path d="M100-162.5l-22.3-144" stroke="#c2e1ff8B"/><path d="M100-162.5l-113.4-91.1" stroke="#c2e1ff8B"/><path d="M100-162.5l63.3-125.2" stroke="#fff5008C"/><path d="M100-162.5l132.3-25.8" stroke="#c2e1ff8D"/><path d="M100-162.5l129.5 31.3" stroke="#fff8D"/><path d="M100-162.5l126.3 36.1" stroke="#005bbb8D"/><path d="M100-162.5l-126.4 13.7" stroke="#005bbb8E"/><path d="M100-162.5l-85.6-91.6" stroke="#fff8E"/><path d="M100-162.5l-29.4-118" stroke="#005bbb8E"/><path d="M100-162.5l-3.1-119.4" stroke="#c2e1ff8F"/><path d="M100-162.5l2-116.2" stroke="#005bbb8F"/><path d="M100-162.5l69.2-87.4" stroke="#005bbb90"/><path d="M100-162.5l-81.5 75" stroke="#c2e1ff90"/><path d="M100-162.5l-78.7 49.3" stroke="#c2e1ff91"/><path d="M100-162.5l-60 54.3" stroke="#c2e1ff92"/><path d="M100-162.5l69.7 26.7" stroke="#c2e1ff93"/></g><g class="sparcs"><path d="M102.3-136.1a5.9 5.9 0 1 1 0-11.8 5.9 5.9 0 0 1 0 11.8" fill="#fff5007D"/><path d="M119.6-187.9a5.9 5.9 0 1 1 0-11.9 5.9 5.9 0 0 1 0 11.9" fill="#c2e1ff7D"/><path d="M128.3-203.6a6 6 0 1 1 0-12 6 6 0 0 1 0 12" fill="#005bbb7E"/><path d="M121.6-211.1a6 6 0 1 1 0-12 6 6 0 0 1 0 12" fill="#c2e1ff7F"/><path d="M59-112.3a6 6 0 1 1 0-12 6 6 0 0 1 0 12" fill="#fff7F"/><path d="M115.4-85.4a6 6 0 1 1 0-12.1 6 6 0 0 1 0 12.1" fill="#c2e1ff80"/><path d="M107.8-79.4a6.1 6.1 0 1 1 0-12.1 6.1 6.1 0 0 1 0 12.1" fill="#fff50080"/><path d="M49.3-223.4a6.1 6.1 0 1 1 0-12.2 6.1 6.1 0 0 1 0 12.2" fill="#c2e1ff81"/><path d="M86.2-63.1a6.2 6.2 0 1 1 0-12.3 6.2 6.2 0 0 1 0 12.3" fill="#fff50082"/><path d="M202.1-191.3a6.2 6.2 0 1 1 0-12.4 6.2 6.2 0 0 1 0 12.4" fill="#005bbb84"/><path d="M155.6-62.6a6.2 6.2 0 1 1 0-12.5 6.2 6.2 0 0 1 0 12.5" fill="#fff84"/><path d="M42.2-61.1a6.3 6.3 0 1 1 0-12.5 6.3 6.3 0 0 1 0 12.5" fill="#c2e1ff84"/><path d="M115.8-45a6.3 6.3 0 1 1 0-12.5 6.3 6.3 0 0 1 0 12.5" fill="#005bbb84"/><path d="M195.1-95.2a6.3 6.3 0 1 1 0-12.5 6.3 6.3 0 0 1 0 12.5" fill="#c2e1ff84"/><path d="M40.3-54a6.3 6.3 0 1 1 0-12.6 6.3 6.3 0 0 1 0 12.6" fill="#fff85"/><path d="M-17.4-173.6a6.3 6.3 0 1 1 0-12.6 6.3 6.3 0 0 1 0 12.6" fill="#c2e1ff85"/><path d="M-18.1-197.2a6.4 6.4 0 1 1 0-12.7 6.4 6.4 0 0 1 0 12.7" fill="#c2e1ff86"/><path d="M215.3-218a6.4 6.4 0 1 1 0-12.8 6.4 6.4 0 0 1 0 12.8" fill="#005bbb87"/><path d="M208-230.6a6.4 6.4 0 1 1 0-12.8 6.4 6.4 0 0 1 0 12.8" fill="#c2e1ff87"/><path d="M93.1-5.1a6.6 6.6 0 1 1 0-13.2 6.6 6.6 0 0 1 0 13.2" fill="#c2e1ff8C"/><path d="M0.7-41.5a6.6 6.6 0 1 1 0-13.2 6.6 6.6 0 0 1 0 13.2" fill="#fff5008C"/><path d="M-11.6-262.1a6.6 6.6 0 1 1 0-13.3 6.6 6.6 0 0 1 0 13.3" fill="#005bbb8C"/><path d="M237.6-229.6a6.6 6.6 0 1 1 0-13.3 6.6 6.6 0 0 1 0 13.3" fill="#fff8D"/><path d="M219.7-257.6a6.7 6.7 0 1 1 0-13.3 6.7 6.7 0 0 1 0 13.3" fill="#005bbb8D"/><path d="M205-37.9a6.7 6.7 0 1 1 0-13.4 6.7 6.7 0 0 1 0 13.4" fill="#fff5008D"/><path d="M244.8-85.4a6.7 6.7 0 1 1 0-13.4 6.7 6.7 0 0 1 0 13.4" fill="#c2e1ff8E"/><path d="M2.3-17.5a6.8 6.8 0 1 1 0-13.6 6.8 6.8 0 0 1 0 13.6" fill="#005bbb90"/><path d="M235.9-48.4a6.8 6.8 0 1 1 0-13.7 6.8 6.8 0 0 1 0 13.7" fill="#005bbb91"/><path d="M138.8-324.7a6.9 6.9 0 1 1 0-13.8 6.9 6.9 0 0 1 0 13.8" fill="#fff91"/><path d="M-71.3-124.1a6.9 6.9 0 1 1 0-13.7 6.9 6.9 0 0 1 0 13.7" fill="#c2e1ff92"/><path d="M-71-121.2a6.9 6.9 0 1 1 0-13.8 6.9 6.9 0 0 1 0 13.8" fill="#c2e1ff92"/><path d="M244.7-57.2a6.9 6.9 0 1 1 0-13.8 6.9 6.9 0 0 1 0 13.8" fill="#fff50092"/><path d="M164.6-324.9a7 7 0 1 1 0-14 7 7 0 0 1 0 14" fill="#fff94"/><path d="M161.4 15.7a7 7 0 1 1 0-13.9 7 7 0 0 1 0 13.9" fill="#fff50094"/><path d="M127.7-335.4a7 7 0 1 1 0-14 7 7 0 0 1 0 14" fill="#fff94"/><path d="M271.8-89.7a7 7 0 1 1 0-14 7 7 0 0 1 0 14" fill="#fff95"/><path d="M29 17.8a7.1 7.1 0 1 1 0-14.1 7.1 7.1 0 0 1 0 14.1" fill="#005bbb96"/><path d="M245.7-278.5a7.1 7.1 0 1 1 0-14.2 7.1 7.1 0 0 1 0 14.2" fill="#fff97"/><path d="M-1.7 9.3a7.2 7.2 0 1 1 0-14.4 7.2 7.2 0 0 1 0 14.4" fill="#c2e1ff98"/><path d="M278.3-235.5a7.2 7.2 0 1 1 0-14.4 7.2 7.2 0 0 1 0 14.4" fill="#fff50099"/><path d="M95.4-351.8a7.2 7.2 0 1 1 0-14.5 7.2 7.2 0 0 1 0 14.5" fill="#fff50099"/><path d="M8.8-332.8a7.3 7.3 0 1 1 0-14.6 7.3 7.3 0 0 1 0 14.6" fill="#fff5009B"/><path d="M217.1 15.9a7.4 7.4 0 1 1 0-14.9 7.4 7.4 0 0 1 0 14.9" fill="#005bbb9E"/><path d="M36.9 43.5a7.5 7.5 0 1 1 0-14.9 7.5 7.5 0 0 1 0 14.9" fill="#c2e1ff9F"/><path d="M308.4-152.5a7.5 7.5 0 1 1 0-15 7.5 7.5 0 0 1 0 15" fill="#fff5009F"/><path d="M113 53.3a7.5 7.5 0 1 1 0-15 7.5 7.5 0 0 1 0 15" fill="#005bbb9F"/><path d="M32.3-353.3a7.5 7.5 0 1 1 0-15 7.5 7.5 0 0 1 0 15" fill="#c2e1ff9F"/><path d="M26.3 41.5a7.5 7.5 0 1 1 0-15 7.5 7.5 0 0 1 0 15" fill="#fffA0"/><path d="M157.3 47.2a7.5 7.5 0 1 1 0-15 7.5 7.5 0 0 1 0 15" fill="#005bbbA0"/><path d="M283.5-52.6a7.5 7.5 0 1 1 0-15 7.5 7.5 0 0 1 0 15" fill="#fffA0"/><path d="M-98.7-84.6a7.5 7.5 0 1 1 0-15.1 7.5 7.5 0 0 1 0 15.1" fill="#fff500A0"/><path d="M186.3-347.5a7.5 7.5 0 1 1 0-15 7.5 7.5 0 0 1 0 15" fill="#fff500A0"/><path d="M158.3-358.9a7.6 7.6 0 1 1 0-15.1 7.6 7.6 0 0 1 0 15.1" fill="#fffA1"/><path d="M6 35.4a7.6 7.6 0 1 1 0-15.2 7.6 7.6 0 0 1 0 15.2" fill="#c2e1ffA1"/><path d="M279.6-268.8a7.6 7.6 0 1 1 0-15.1 7.6 7.6 0 0 1 0 15.1" fill="#005bbbA1"/><path d="M25.2 44.4a7.6 7.6 0 1 1 0-15.2 7.6 7.6 0 0 1 0 15.2" fill="#fffA1"/><path d="M69.4-366.6a7.6 7.6 0 1 1 0-15.3 7.6 7.6 0 0 1 0 15.3" fill="#c2e1ffA2"/><path d="M48.8-362.9a7.6 7.6 0 1 1 0-15.2 7.6 7.6 0 0 1 0 15.2" fill="#fff500A2"/><path d="M-114.1-165.6a7.6 7.6 0 1 1 0-15.2 7.6 7.6 0 0 1 0 15.2" fill="#c2e1ffA2"/><path d="M-105.9-214.6a7.6 7.6 0 1 1 0-15.3 7.6 7.6 0 0 1 0 15.3" fill="#c2e1ffA2"/><path d="M-84.3-39.6a7.7 7.7 0 1 1 0-15.4 7.7 7.7 0 0 1 0 15.4" fill="#fffA4"/><path d="M207.3 35.2a7.7 7.7 0 1 1 0-15.5 7.7 7.7 0 0 1 0 15.5" fill="#fff500A5"/><path d="M-55.4-1.6a7.7 7.7 0 1 1 0-15.4 7.7 7.7 0 0 1 0 15.4" fill="#c2e1ffA5"/><path d="M-23.1 26.3a7.8 7.8 0 1 1 0-15.5 7.8 7.8 0 0 1 0 15.5" fill="#c2e1ffA5"/><path d="M231.5 20.4a7.8 7.8 0 1 1 0-15.5 7.8 7.8 0 0 1 0 15.5" fill="#fff500A5"/><path d="M62.1-370.9a7.8 7.8 0 1 1 0-15.5 7.8 7.8 0 0 1 0 15.5" fill="#fff500A5"/><path d="M319.7-138.5a7.8 7.8 0 1 1 0-15.6 7.8 7.8 0 0 1 0 15.6" fill="#c2e1ffA6"/><path d="M295.7-49.7a7.9 7.9 0 1 1 0-15.7 7.9 7.9 0 0 1 0 15.7" fill="#fffA7"/><path d="M-108.6-234a7.9 7.9 0 1 1 0-15.8 7.9 7.9 0 0 1 0 15.8" fill="#fff500A8"/><path d="M85.8-377.6a7.9 7.9 0 1 1 0-15.8 7.9 7.9 0 0 1 0 15.8" fill="#c2e1ffA8"/><path d="M-29.9 27.4a7.9 7.9 0 1 1 0-15.8 7.9 7.9 0 0 1 0 15.8" fill="#fffA9"/><path d="M119.1 68.7a7.9 7.9 0 1 1 0-15.8 7.9 7.9 0 0 1 0 15.8" fill="#fffA9"/><path d="M211.4-353a8.1 8.1 0 1 1 0-16.2 8.1 8.1 0 0 1 0 16.2" fill="#c2e1ffAC"/><path d="M-127.7-130.9a8.1 8.1 0 1 1 0-16.2 8.1 8.1 0 0 1 0 16.2" fill="#005bbbAD"/><path d="M316.8-229.6a8.2 8.2 0 1 1 0-16.3 8.2 8.2 0 0 1 0 16.3" fill="#fff500AE"/><path d="M4.5 55.5a8.2 8.2 0 1 1 0-16.4 8.2 8.2 0 0 1 0 16.4" fill="#c2e1ffAF"/><path d="M65.9 74.8a8.3 8.3 0 1 1 0-16.6 8.3 8.3 0 0 1 0 16.6" fill="#fff500B1"/><path d="M-32 36.4a8.3 8.3 0 1 1 0-16.6 8.3 8.3 0 0 1 0 16.6" fill="#fff500B1"/><path d="M331.9-140.8a8.3 8.3 0 1 1 0-16.7 8.3 8.3 0 0 1 0 16.7" fill="#fff500B2"/><path d="M0.5 56.7a8.4 8.4 0 1 1 0-16.7 8.4 8.4 0 0 1 0 16.7" fill="#fff500B3"/><path d="M-41.9-339.4a8.4 8.4 0 1 1 0-16.8 8.4 8.4 0 0 1 0 16.8" fill="#005bbbB3"/><path d="M-38.7 34a8.4 8.4 0 1 1 0-16.9 8.4 8.4 0 0 1 0 16.9" fill="#005bbbB4"/><path d="M-17.6-356.2a8.4 8.4 0 1 1 0-16.8 8.4 8.4 0 0 1 0 16.8" fill="#fff500B4"/><path d="M328.9-202.6a8.5 8.5 0 1 1 0-16.9 8.5 8.5 0 0 1 0 16.9" fill="#c2e1ffB5"/><path d="M110-388.2a8.5 8.5 0 1 1 0-16.9 8.5 8.5 0 0 1 0 16.9" fill="#fff500B5"/><path d="M-95.6-24a8.5 8.5 0 1 1 0-17.1 8.5 8.5 0 0 1 0 17.1" fill="#fff500B6"/><path d="M248.2-336.5a8.6 8.6 0 1 1 0-17.2 8.6 8.6 0 0 1 0 17.2" fill="#c2e1ffB7"/><path d="M331-197.9a8.6 8.6 0 1 1 0-17.2 8.6 8.6 0 0 1 0 17.2" fill="#fff500B7"/><path d="M319.5-238.6a8.6 8.6 0 1 1 0-17.2 8.6 8.6 0 0 1 0 17.2" fill="#c2e1ffB7"/><path d="M239.6 36.3a8.7 8.7 0 1 1 0-17.4 8.7 8.7 0 0 1 0 17.4" fill="#fff500BA"/><path d="M335.8-159.9a8.7 8.7 0 1 1 0-17.4 8.7 8.7 0 0 1 0 17.4" fill="#fff500BA"/><path d="M-135.9-163.9a8.7 8.7 0 1 1 0-17.5 8.7 8.7 0 0 1 0 17.5" fill="#c2e1ffBB"/><path d="M332.7-193.6a8.8 8.8 0 1 1 0-17.5 8.8 8.8 0 0 1 0 17.5" fill="#fff500BC"/><path d="M-55.3-331.7a8.8 8.8 0 1 1 0-17.5 8.8 8.8 0 0 1 0 17.5" fill="#005bbbBC"/><path d="M334.5-125.3a8.8 8.8 0 1 1 0-17.6 8.8 8.8 0 0 1 0 17.6" fill="#c2e1ffBC"/><path d="M296.3-285.1a8.8 8.8 0 1 1 0-17.6 8.8 8.8 0 0 1 0 17.6" fill="#005bbbBD"/><path d="M132.6 80.3a8.8 8.8 0 1 1 0-17.6 8.8 8.8 0 0 1 0 17.6" fill="#005bbbBD"/><path d="M111.4 82.3a8.9 8.9 0 1 1 0-17.7 8.9 8.9 0 0 1 0 17.7" fill="#005bbbBE"/><path d="M280.3-0.9a8.9 8.9 0 1 1 0-17.8 8.9 8.9 0 0 1 0 17.8" fill="#005bbbBE"/><path d="M153-383.8a8.9 8.9 0 1 1 0-17.8 8.9 8.9 0 0 1 0 17.8" fill="#fffBE"/><path d="M88.1-389.4a8.9 8.9 0 1 1 0-17.9 8.9 8.9 0 0 1 0 17.9" fill="#c2e1ffBF"/><path d="M40.8-382a9 9 0 1 1 0-18 9 9 0 0 1 0 18" fill="#c2e1ffC0"/><path d="M42.7 75.2a9.1 9.1 0 1 1 0-18.2 9.1 9.1 0 0 1 0 18.2" fill="#fff500C2"/><path d="M123.2-387.9a9.1 9.1 0 1 1 0-18.1 9.1 9.1 0 0 1 0 18.1" fill="#c2e1ffC2"/><path d="M-116.9-245.3a9.1 9.1 0 1 1 0-18.2 9.1 9.1 0 0 1 0 18.2" fill="#fffC2"/><path d="M335.2-142.9a9.1 9.1 0 1 1 0-18.2 9.1 9.1 0 0 1 0 18.2" fill="#fffC3"/><path d="M-85.1-8.8a9.2 9.2 0 1 1 0-18.4 9.2 9.2 0 0 1 0 18.4" fill="#fffC5"/><path d="M-99.6-276.2a9.2 9.2 0 1 1 0-18.4 9.2 9.2 0 0 1 0 18.4" fill="#005bbbC6"/><path d="M10-369.5a9.2 9.2 0 1 1 0-18.5 9.2 9.2 0 0 1 0 18.5" fill="#005bbbC6"/><path d="M312.8-55.3a9.2 9.2 0 1 1 0-18.5 9.2 9.2 0 0 1 0 18.5" fill="#fff500C6"/><path d="M247.6 28.2a9.3 9.3 0 1 1 0-18.5 9.3 9.3 0 0 1 0 18.5" fill="#005bbbC7"/><path d="M290.1-17.3a9.3 9.3 0 1 1 0-18.6 9.3 9.3 0 0 1 0 18.6" fill="#005bbbC7"/><path d="M-100.1-35.9a9.4 9.4 0 1 1 0-18.9 9.4 9.4 0 0 1 0 18.9" fill="#005bbbCA"/><path d="M319.6-79.3a9.4 9.4 0 1 1 0-18.9 9.4 9.4 0 0 1 0 18.9" fill="#005bbbCA"/><path d="M-91.4-24.2a9.5 9.5 0 1 1 0-19 9.5 9.5 0 0 1 0 19" fill="#fff500CC"/><path d="M194.2-361.9a9.6 9.6 0 1 1 0-19.1 9.6 9.6 0 0 1 0 19.1" fill="#005bbbCD"/><path d="M113.9 75.5a9.6 9.6 0 1 1 0-19.2 9.6 9.6 0 0 1 0 19.2" fill="#005bbbCE"/><path d="M-118.5-85a9.6 9.6 0 1 1 0-19.1 9.6 9.6 0 0 1 0 19.1" fill="#fff500CE"/><path d="M28.3 64.3a9.6 9.6 0 1 1 0-19.2 9.6 9.6 0 0 1 0 19.2" fill="#005bbbCE"/><path d="M253.9 16.1a9.6 9.6 0 1 1 0-19.2 9.6 9.6 0 0 1 0 19.2" fill="#fff500CE"/><path d="M73.8-379.9a9.6 9.6 0 1 1 0-19.2 9.6 9.6 0 0 1 0 19.2" fill="#005bbbCE"/><path d="M-40.8-331a9.7 9.7 0 1 1 0-19.4 9.7 9.7 0 0 1 0 19.4" fill="#c2e1ffCF"/><path d="M211.4 43.7a9.7 9.7 0 1 1 0-19.5 9.7 9.7 0 0 1 0 19.5" fill="#005bbbD1"/><path d="M-94.4-38.1a9.7 9.7 0 1 1 0-19.5 9.7 9.7 0 0 1 0 19.5" fill="#005bbbD1"/><path d="M323.2-174.9a9.8 9.8 0 1 1 0-19.5 9.8 9.8 0 0 1 0 19.5" fill="#005bbbD2"/><path d="M309-233.1a9.8 9.8 0 1 1 0-19.6 9.8 9.8 0 0 1 0 19.6" fill="#fffD2"/><path d="M2-352.5a9.9 9.9 0 1 1 0-19.7 9.9 9.9 0 0 1 0 19.7" fill="#fff500D3"/><path d="M316.5-193.5a9.9 9.9 0 1 1 0-19.9 9.9 9.9 0 0 1 0 19.9" fill="#005bbbD5"/><path d="M55.1-368.1a9.9 9.9 0 1 1 0-19.8 9.9 9.9 0 0 1 0 19.8" fill="#fffD5"/><path d="M-13.8-340.1a10 10 0 1 1 0-19.9 10 10 0 0 1 0 19.9" fill="#fffD6"/><path d="M239.9 14.4a10 10 0 1 1 0-20 10 10 0 0 1 0 20" fill="#c2e1ffD7"/><path d="M316.7-152.5a10 10 0 1 1 0-20 10 10 0 0 1 0 20" fill="#c2e1ffD7"/><path d="M308.7-101.2a10.1 10.1 0 1 1 0-20.1 10.1 10.1 0 0 1 0 20.1" fill="#fff500D9"/><path d="M-26.2 21a10.1 10.1 0 1 1 0-20.2 10.1 10.1 0 0 1 0 20.2" fill="#005bbbD9"/><path d="M-95.9-236.6a10.1 10.1 0 1 1 0-20.3 10.1 10.1 0 0 1 0 20.3" fill="#005bbbD9"/><path d="M300.6-219.4a10.2 10.2 0 1 1 0-20.3 10.2 10.2 0 0 1 0 20.3" fill="#c2e1ffDA"/><path d="M-54.4-12.3a10.3 10.3 0 1 1 0-20.5 10.3 10.3 0 0 1 0 20.5" fill="#c2e1ffDC"/><path d="M301-103.7a10.3 10.3 0 1 1 0-20.6 10.3 10.3 0 0 1 0 20.6" fill="#005bbbDD"/><path d="M295.7-91.8a10.3 10.3 0 1 1 0-20.6 10.3 10.3 0 0 1 0 20.6" fill="#c2e1ffDE"/><path d="M77.9 51.4a10.3 10.3 0 1 1 0-20.7 10.3 10.3 0 0 1 0 20.7" fill="#c2e1ffDE"/><path d="M85.9 51a10.4 10.4 0 1 1 0-20.7 10.4 10.4 0 0 1 0 20.7" fill="#fff500DE"/><path d="M-21.2-315.7a10.4 10.4 0 1 1 0-20.7 10.4 10.4 0 0 1 0 20.7" fill="#fff500DE"/><path d="M-39.3-6.6a10.4 10.4 0 1 1 0-20.8 10.4 10.4 0 0 1 0 20.8" fill="#fff500DF"/><path d="M148-343.4a10.5 10.5 0 1 1 0-21 10.5 10.5 0 0 1 0 21" fill="#fffE1"/><path d="M-89.9-204.2a10.5 10.5 0 1 1 0-21 10.5 10.5 0 0 1 0 21" fill="#fff500E1"/><path d="M91.6 44.1a10.5 10.5 0 1 1 0-21 10.5 10.5 0 0 1 0 21" fill="#fffE2"/><path d="M288.2-198.7a10.5 10.5 0 1 1 0-21.1 10.5 10.5 0 0 1 0 21.1" fill="#c2e1ffE3"/><path d="M165.1 29.7a10.6 10.6 0 1 1 0-21.2 10.6 10.6 0 0 1 0 21.2" fill="#005bbbE3"/><path d="M15.2-324a10.6 10.6 0 1 1 0-21.2 10.6 10.6 0 0 1 0 21.2" fill="#fff500E3"/><path d="M-31.2-12.4a10.6 10.6 0 1 1 0-21.1 10.6 10.6 0 0 1 0 21.1" fill="#005bbbE4"/><path d="M66.9-339.2a10.6 10.6 0 1 1 0-21.2 10.6 10.6 0 0 1 0 21.2" fill="#005bbbE4"/><path d="M65.1 34.6a10.6 10.6 0 1 1 0-21.2 10.6 10.6 0 0 1 0 21.2" fill="#fffE4"/><path d="M97.6 36.9a10.6 10.6 0 1 1 0-21.3 10.6 10.6 0 0 1 0 21.3" fill="#005bbbE5"/><path d="M-49.4-37.9a10.6 10.6 0 1 1 0-21.3 10.6 10.6 0 0 1 0 21.3" fill="#005bbbE5"/><path d="M158.5 21.5a10.7 10.7 0 1 1 0-21.5 10.7 10.7 0 0 1 0 21.5" fill="#fff500E7"/><path d="M-46.6-43.1a10.7 10.7 0 1 1 0-21.4 10.7 10.7 0 0 1 0 21.4" fill="#fff500E7"/><path d="M76-331.4a10.8 10.8 0 1 1 0-21.5 10.8 10.8 0 0 1 0 21.5" fill="#c2e1ffE7"/><path d="M192-307.3a10.8 10.8 0 1 1 0-21.5 10.8 10.8 0 0 1 0 21.5" fill="#005bbbE7"/><path d="M-78.7-177.9a10.8 10.8 0 1 1 0-21.5 10.8 10.8 0 0 1 0 21.5" fill="#fff500E7"/><path d="M197.3-5a10.8 10.8 0 1 1 0-21.6 10.8 10.8 0 0 1 0 21.6" fill="#c2e1ffE9"/><path d="M227.2-272.1a10.8 10.8 0 1 1 0-21.7 10.8 10.8 0 0 1 0 21.7" fill="#fff500E9"/><path d="M72.2 20.3a10.9 10.9 0 1 1 0-21.7 10.9 10.9 0 0 1 0 21.7" fill="#fff500E9"/><path d="M3.4-19.6a11 11 0 1 1 0-22 11 11 0 0 1 0 22" fill="#fff500EC"/><path d="M150.1-4.8a11.1 11.1 0 1 1 0-22.2 11.1 11.1 0 0 1 0 22.2" fill="#fffEF"/><path d="M125.2-302.5a11.1 11.1 0 1 1 0-22.2 11.1 11.1 0 0 1 0 22.2" fill="#c2e1ffEF"/><path d="M77.7-295.3a11.2 11.2 0 1 1 0-22.4 11.2 11.2 0 0 1 0 22.4" fill="#c2e1ffF1"/><path d="M-13.4-242.4a11.2 11.2 0 1 1 0-22.4 11.2 11.2 0 0 1 0 22.4" fill="#c2e1ffF1"/><path d="M163.3-276.5a11.2 11.2 0 1 1 0-22.5 11.2 11.2 0 0 1 0 22.5" fill="#fff500F2"/><path d="M232.3-177a11.3 11.3 0 1 1 0-22.6 11.3 11.3 0 0 1 0 22.6" fill="#c2e1ffF3"/><path d="M229.5-119.9a11.3 11.3 0 1 1 0-22.6 11.3 11.3 0 0 1 0 22.6" fill="#fff500F3"/><path d="M226.3-115.1a11.3 11.3 0 1 1 0-22.6 11.3 11.3 0 0 1 0 22.6" fill="#c2e1ffF4"/><path d="M-26.4-137.4a11.3 11.3 0 1 1 0-22.7 11.3 11.3 0 0 1 0 22.7" fill="#005bbbF4"/><path d="M14.4-242.7a11.4 11.4 0 1 1 0-22.7 11.4 11.4 0 0 1 0 22.7" fill="#c2e1ffF5"/><path d="M70.6-269.1a11.4 11.4 0 1 1 0-22.8 11.4 11.4 0 0 1 0 22.8" fill="#fff500F5"/><path d="M96.9-270.5a11.4 11.4 0 1 1 0-22.8 11.4 11.4 0 0 1 0 22.8" fill="#c2e1ffF6"/><path d="M102-267.3a11.4 11.4 0 1 1 0-22.9 11.4 11.4 0 0 1 0 22.9" fill="#fff500F6"/><path d="M169.2-238.5a11.5 11.5 0 1 1 0-22.9 11.5 11.5 0 0 1 0 22.9" fill="#fffF7"/><path d="M18.5-76.1a11.5 11.5 0 1 1 0-22.9 11.5 11.5 0 0 1 0 22.9" fill="#c2e1ffF7"/><path d="M21.3-101.6a11.6 11.6 0 1 1 0-23.1 11.6 11.6 0 0 1 0 23.1" fill="#fffF9"/><path d="M40-96.6a11.6 11.6 0 1 1 0-23.3 11.6 11.6 0 0 1 0 23.3" fill="#fffFB"/><path d="M169.7-124.1a11.7 11.7 0 1 1 0-23.4 11.7 11.7 0 0 1 0 23.4" fill="#005bbbFB"/></g></svg>