<svg width="1200" height="675" viewBox="-500 -500 1200 675" xmlns="http://www.w3.org/2000/svg"><path d="M-500-500h1200v675h-1200z" fill="#000"/><style>.sparkles path{stroke-linecap:round; stroke-width:1}</style><g class="sparkles"><path d="M100-162.5l-1.9 29.7" stroke="#118ab232"/><path d="M100-162.5l-52.7-38.8" stroke="#06d6a033"/><path d="M100-162.5l62.9 27.2" stroke="#ef476f34"/><path d="M100-162.5l-73.4 0.8" stroke="#ef476f34"/><path d="M100-162.5l-17.8 84.6" stroke="#ef476f35"/><path d="M100-162.5l84.1 39.1" stroke="#ffd16636"/><path d="M100-162.5l30.4 88.9" stroke="#06d6a036"/><path d="M100-162.5l73.5 67.8" stroke="#ef476f36"/><path d="M100-162.5l-20.8 100.6" stroke="#ef476f36"/><path d="M100-162.5l-17.3 104.2" stroke="#ffd16637"/><path d="M100-162.5l105.3-16.4" stroke="#ffd16637"/><path d="M100-162.5l87.5-83.2" stroke="#ef476f39"/><path d="M100-162.5l-21.4-134.3" stroke="#06d6a03B"/><path d="M100-162.5l-22.7-134.7" stroke="#ef476f3B"/><path d="M100-162.5l-59.9 125.6" stroke="#073b4c3B"/><path d="M100-162.5l-135.4-46.8" stroke="#ffd1663C"/><path d="M100-162.5l-58.5-134.3" stroke="#073b4c3C"/><path d="M100-162.5l-42.8-143.1" stroke="#073b4c3D"/><path d="M100-162.5l-38 148.1" stroke="#ffd1663D"/><path d="M100-162.5l-30.1-152.3" stroke="#ef476f3E"/><path d="M100-162.5l71 138.9" stroke="#ef476f3E"/><path d="M100-162.5l161.8 9.3" stroke="#073b4c3F"/><path d="M100-162.5l-19.9-166.4" stroke="#ef476f40"/><path d="M100-162.5l-89.1-143.2" stroke="#ffd16640"/><path d="M100-162.5l171.6-11.5" stroke="#118ab241"/><path d="M100-162.5l-165.1-57" stroke="#ffd16642"/><path d="M100-162.5l86.8-156.1" stroke="#ef476f43"/><path d="M100-162.5l-157.9-84" stroke="#ef476f43"/><path d="M100-162.5l179.2 19.3" stroke="#ef476f43"/><path d="M100-162.5l-180.9-30.6" stroke="#118ab244"/><path d="M100-162.5l3.4-185.7" stroke="#073b4c45"/><path d="M100-162.5l-59.5-181.1" stroke="#118ab246"/><path d="M100-162.5l114.7 156.3" stroke="#06d6a047"/><path d="M100-162.5l-154.4-117.4" stroke="#ef476f47"/><path d="M100-162.5l3.7 194" stroke="#118ab247"/><path d="M100-162.5l-178.6-83.2" stroke="#ffd16648"/><path d="M100-162.5l-73-183.7" stroke="#ffd16648"/><path d="M100-162.5l96.4-174.7" stroke="#06d6a049"/><path d="M100-162.5l132.4-150.6" stroke="#ef476f49"/><path d="M100-162.5l-196.2 51.6" stroke="#118ab24A"/><path d="M100-162.5l-188.5 82.9" stroke="#ef476f4B"/><path d="M100-162.5l-199.5 56.4" stroke="#ffd1664C"/><path d="M100-162.5l208.7 20.2" stroke="#073b4c4C"/><path d="M100-162.5l-91-190.1" stroke="#ffd1664D"/><path d="M100-162.5l-41.1 207.8" stroke="#06d6a04D"/><path d="M100-162.5l150.8-148.8" stroke="#ffd1664D"/><path d="M100-162.5l-118.8-176.4" stroke="#06d6a04E"/><path d="M100-162.5l211.4-28" stroke="#ffd1664E"/><path d="M100-162.5l81.5-197.1" stroke="#06d6a04E"/><path d="M100-162.5l-107.1-186.1" stroke="#073b4c4F"/><path d="M100-162.5l34 212.1" stroke="#ffd1664F"/><path d="M100-162.5l10.7-216.6" stroke="#06d6a050"/><path d="M100-162.5l-214.5 39.8" stroke="#ef476f50"/><path d="M100-162.5l-211.9 53.6" stroke="#118ab251"/><path d="M100-162.5l219.1-8.3" stroke="#ffd16651"/><path d="M100-162.5l-219.3 6.3" stroke="#ef476f51"/><path d="M100-162.5l-72.3-207.2" stroke="#ef476f51"/><path d="M100-162.5l220.8 0" stroke="#ffd16652"/><path d="M100-162.5l-74.2-208.2" stroke="#073b4c52"/><path d="M100-162.5l151-162" stroke="#ffd16652"/><path d="M100-162.5l-191.8-114.7" stroke="#06d6a053"/><path d="M100-162.5l185.8-126.6" stroke="#118ab254"/><path d="M100-162.5l-99.3-203.2" stroke="#ef476f55"/><path d="M100-162.5l-137.8 180.7" stroke="#118ab256"/><path d="M100-162.5l86.9-210.1" stroke="#ef476f56"/><path d="M100-162.5l165.2-156.7" stroke="#06d6a056"/><path d="M100-162.5l-116.1 195.9" stroke="#ffd16656"/><path d="M100-162.5l-218.9-67.8" stroke="#ef476f57"/><path d="M100-162.5l171.8-152.8" stroke="#118ab258"/><path d="M100-162.5l-62 221.8" stroke="#06d6a058"/><path d="M100-162.5l-36.4 227.9" stroke="#ffd16659"/><path d="M100-162.5l225.5 50.9" stroke="#118ab259"/><path d="M100-162.5l-107.1 204.9" stroke="#ef476f59"/><path d="M100-162.5l193.3-127.4" stroke="#073b4c59"/><path d="M100-162.5l232 6.8" stroke="#118ab25A"/><path d="M100-162.5l-228.7 43.2" stroke="#ef476f5B"/><path d="M100-162.5l204.4-111.8" stroke="#073b4c5B"/><path d="M100-162.5l-10.7 233" stroke="#118ab25C"/><path d="M100-162.5l-184.5-143.4" stroke="#118ab25C"/><path d="M100-162.5l15.9 233.9" stroke="#ef476f5D"/><path d="M100-162.5l234.3-10.4" stroke="#ef476f5D"/><path d="M100-162.5l-62.4-226.2" stroke="#118ab25E"/><path d="M100-162.5l62.6-226.3" stroke="#073b4c5E"/><path d="M100-162.5l155.8-176" stroke="#073b4c5E"/><path d="M100-162.5l-48.8 229.9" stroke="#073b4c5E"/><path d="M100-162.5l-169.8 162.8" stroke="#ef476f5F"/><path d="M100-162.5l-150.4 181.7" stroke="#ef476f61"/><path d="M100-162.5l-80.6-221.8" stroke="#118ab261"/><path d="M100-162.5l-192.9 136.1" stroke="#ffd16662"/><path d="M100-162.5l-230 53.3" stroke="#118ab262"/><path d="M100-162.5l50.8 230.7" stroke="#ffd16662"/><path d="M100-162.5l-235.5-19.3" stroke="#ef476f63"/><path d="M100-162.5l-57.4-229.2" stroke="#118ab263"/><path d="M100-162.5l-33.8 233.8" stroke="#073b4c64"/><path d="M100-162.5l157.9 175.5" stroke="#ef476f65"/><path d="M100-162.5l200.8-124.1" stroke="#118ab266"/><path d="M100-162.5l145.8-185.5" stroke="#118ab266"/><path d="M100-162.5l36.8 233" stroke="#06d6a066"/><path d="M100-162.5l174.3 158.7" stroke="#06d6a067"/><path d="M100-162.5l148.5-183" stroke="#073b4c67"/><path d="M100-162.5l-122.4 201.3" stroke="#118ab267"/><path d="M100-162.5l-88.6 218.1" stroke="#118ab268"/><path d="M100-162.5l186.5-141.5" stroke="#118ab26A"/><path d="M100-162.5l14.6 233.6" stroke="#ffd1666A"/><path d="M100-162.5l-183.1-145.5" stroke="#ffd1666B"/><path d="M100-162.5l115-202.6" stroke="#ef476f6C"/><path d="M100-162.5l227.6 47" stroke="#118ab26D"/><path d="M100-162.5l-186.9 137.7" stroke="#073b4c6D"/><path d="M100-162.5l-47.6 227.2" stroke="#073b4c6D"/><path d="M100-162.5l67.6 221.9" stroke="#118ab26D"/><path d="M100-162.5l-210.7 95" stroke="#06d6a06E"/><path d="M100-162.5l227.5 31.1" stroke="#ffd1666F"/><path d="M100-162.5l217.2-74.5" stroke="#118ab26F"/><path d="M100-162.5l-193.7 121.6" stroke="#073b4c70"/><path d="M100-162.5l-4.1-228" stroke="#ef476f71"/><path d="M100-162.5l226-19" stroke="#118ab272"/><path d="M100-162.5l-159.3-161.4" stroke="#06d6a072"/><path d="M100-162.5l-50.2-219.2" stroke="#073b4c73"/><path d="M100-162.5l223.8 17.1" stroke="#ffd16673"/><path d="M100-162.5l-190-119.2" stroke="#ef476f73"/><path d="M100-162.5l-5.8 223.1" stroke="#06d6a074"/><path d="M100-162.5l118.3-189.1" stroke="#073b4c74"/><path d="M100-162.5l160.6 151.7" stroke="#06d6a075"/><path d="M100-162.5l-209.8-68.5" stroke="#06d6a075"/><path d="M100-162.5l125.4 179.8" stroke="#073b4c76"/><path d="M100-162.5l210.3-61.5" stroke="#06d6a076"/><path d="M100-162.5l-210.3-59.9" stroke="#06d6a076"/><path d="M100-162.5l-215 34.3" stroke="#ffd16677"/><path d="M100-162.5l134.4-163.9" stroke="#ffd1667A"/><path d="M100-162.5l-196.6-77.6" stroke="#ef476f7A"/><path d="M100-162.5l200.4-59.8" stroke="#073b4c7B"/><path d="M100-162.5l55.6-198.2" stroke="#073b4c7C"/><path d="M100-162.5l2.8 199.3" stroke="#ef476f7E"/><path d="M100-162.5l25.2 193.8" stroke="#073b4c80"/><path d="M100-162.5l-157.2 115.3" stroke="#073b4c80"/><path d="M100-162.5l144.5-128.4" stroke="#ef476f80"/><path d="M100-162.5l-188.4-40.2" stroke="#06d6a080"/><path d="M100-162.5l31.2 189.4" stroke="#ef476f81"/><path d="M100-162.5l46.6-186.1" stroke="#06d6a081"/><path d="M100-162.5l-65.4-179.6" stroke="#073b4c81"/><path d="M100-162.5l-91.7-162.7" stroke="#ffd16682"/><path d="M100-162.5l-174.5 66.4" stroke="#ffd16682"/><path d="M100-162.5l40.6-181.8" stroke="#118ab282"/><path d="M100-162.5l185.6-5.9" stroke="#118ab282"/><path d="M100-162.5l51.4-174.9" stroke="#118ab283"/><path d="M100-162.5l-104.7 146.8" stroke="#118ab284"/><path d="M100-162.5l-83-159.6" stroke="#ef476f84"/><path d="M100-162.5l-116.4 136.3" stroke="#06d6a084"/><path d="M100-162.5l167.4 58.1" stroke="#ef476f85"/><path d="M100-162.5l36.4-173.3" stroke="#06d6a085"/><path d="M100-162.5l175.3-21.4" stroke="#118ab285"/><path d="M100-162.5l-160.4-62.2" stroke="#06d6a086"/><path d="M100-162.5l-168.4 11" stroke="#06d6a086"/><path d="M100-162.5l-25 166.4" stroke="#ef476f87"/><path d="M100-162.5l-116.5-110.3" stroke="#ffd16688"/><path d="M100-162.5l40.6 153.3" stroke="#073b4c89"/><path d="M100-162.5l-151.4-0.9" stroke="#ef476f8A"/><path d="M100-162.5l-144.7-29" stroke="#ef476f8B"/><path d="M100-162.5l-67-129.8" stroke="#073b4c8B"/><path d="M100-162.5l138.5-30.5" stroke="#073b4c8B"/><path d="M100-162.5l-104.9 82.8" stroke="#118ab28D"/><path d="M100-162.5l52.6 120.9" stroke="#06d6a08D"/><path d="M100-162.5l81.7 97.3" stroke="#ffd1668E"/><path d="M100-162.5l-1.6 122.2" stroke="#ffd1668E"/><path d="M100-162.5l102.8 65.6" stroke="#ef476f8E"/><path d="M100-162.5l-21.5-120" stroke="#ffd1668E"/><path d="M100-162.5l-2.1 117.7" stroke="#ef476f8F"/><path d="M100-162.5l-108.7 23.2" stroke="#ef476f90"/><path d="M100-162.5l97.7-19.2" stroke="#ef476f91"/><path d="M100-162.5l-45.2-85.8" stroke="#ffd16691"/><path d="M100-162.5l33.1-84.9" stroke="#ef476f92"/><path d="M100-162.5l33.8 82.6" stroke="#06d6a092"/><path d="M100-162.5l-27 78.2" stroke="#06d6a092"/><path d="M100-162.5l-79.5-18.9" stroke="#118ab292"/><path d="M100-162.5l76-15.8" stroke="#ffd16693"/><path d="M100-162.5l74.4-3.4" stroke="#073b4c93"/><path d="M100-162.5l4.9 73.1" stroke="#ef476f93"/><path d="M100-162.5l-54.2-34.9" stroke="#118ab294"/><path d="M100-162.5l-54.2 26.5" stroke="#ef476f94"/><path d="M100-162.5l40-11.6" stroke="#ef476f95"/><path d="M100-162.5l10.8 16.8" stroke="#073b4c95"/></g><g class="sparcs"><path d="M98.1-126.9a5.9 5.9 0 1 1 0-11.8 5.9 5.9 0 0 1 0 11.8" fill="#ef476f7D"/><path d="M47.3-195.3a6 6 0 1 1 0-12.1 6 6 0 0 1 0 12.1" fill="#073b4c7F"/><path d="M162.9-129.2a6 6 0 1 1 0-12.1 6 6 0 0 1 0 12.1" fill="#ffd1667F"/><path d="M26.6-155.6a6.1 6.1 0 1 1 0-12.1 6.1 6.1 0 0 1 0 12.1" fill="#ef476f80"/><path d="M82.2-71.8a6.1 6.1 0 1 1 0-12.2 6.1 6.1 0 0 1 0 12.2" fill="#118ab281"/><path d="M184.1-117.3a6.1 6.1 0 1 1 0-12.2 6.1 6.1 0 0 1 0 12.2" fill="#073b4c82"/><path d="M130.4-67.4a6.1 6.1 0 1 1 0-12.3 6.1 6.1 0 0 1 0 12.3" fill="#06d6a082"/><path d="M173.5-88.5a6.2 6.2 0 1 1 0-12.4 6.2 6.2 0 0 1 0 12.4" fill="#06d6a083"/><path d="M79.2-55.7a6.2 6.2 0 1 1 0-12.4 6.2 6.2 0 0 1 0 12.4" fill="#ffd16683"/><path d="M82.7-52.1a6.2 6.2 0 1 1 0-12.4 6.2 6.2 0 0 1 0 12.4" fill="#ef476f83"/><path d="M205.3-172.7a6.2 6.2 0 1 1 0-12.5 6.2 6.2 0 0 1 0 12.5" fill="#06d6a083"/><path d="M187.5-239.4a6.3 6.3 0 1 1 0-12.7 6.3 6.3 0 0 1 0 12.7" fill="#118ab286"/><path d="M78.6-290.4a6.4 6.4 0 1 1 0-12.9 6.4 6.4 0 0 1 0 12.9" fill="#ffd16688"/><path d="M77.3-290.7a6.4 6.4 0 1 1 0-12.9 6.4 6.4 0 0 1 0 12.9" fill="#ffd16688"/><path d="M40.1-30.4a6.5 6.5 0 1 1 0-12.9 6.5 6.5 0 0 1 0 12.9" fill="#118ab289"/><path d="M-35.4-202.8a6.5 6.5 0 1 1 0-13 6.5 6.5 0 0 1 0 13" fill="#ef476f8A"/><path d="M41.5-290.3a6.5 6.5 0 1 1 0-13.1 6.5 6.5 0 0 1 0 13.1" fill="#ef476f8B"/><path d="M57.2-299a6.6 6.6 0 1 1 0-13.2 6.6 6.6 0 0 1 0 13.2" fill="#ef476f8B"/><path d="M62-7.8a6.6 6.6 0 1 1 0-13.2 6.6 6.6 0 0 1 0 13.2" fill="#06d6a08C"/><path d="M69.9-308.2a6.6 6.6 0 1 1 0-13.3 6.6 6.6 0 0 1 0 13.3" fill="#073b4c8D"/><path d="M171-16.9a6.6 6.6 0 1 1 0-13.3 6.6 6.6 0 0 1 0 13.3" fill="#ffd1668D"/><path d="M261.8-146.5a6.7 6.7 0 1 1 0-13.4 6.7 6.7 0 0 1 0 13.4" fill="#ffd1668E"/><path d="M80.1-322.1a6.8 6.8 0 1 1 0-13.6 6.8 6.8 0 0 1 0 13.6" fill="#118ab290"/><path d="M10.9-298.9a6.8 6.8 0 1 1 0-13.6 6.8 6.8 0 0 1 0 13.6" fill="#073b4c90"/><path d="M271.6-167.2a6.8 6.8 0 1 1 0-13.6 6.8 6.8 0 0 1 0 13.6" fill="#118ab291"/><path d="M-65.1-212.7a6.9 6.9 0 1 1 0-13.7 6.9 6.9 0 0 1 0 13.7" fill="#06d6a092"/><path d="M186.8-311.6a6.9 6.9 0 1 1 0-13.9 6.9 6.9 0 0 1 0 13.9" fill="#06d6a093"/><path d="M-57.9-239.5a6.9 6.9 0 1 1 0-13.9 6.9 6.9 0 0 1 0 13.9" fill="#06d6a093"/><path d="M279.2-136.2a6.9 6.9 0 1 1 0-13.9 6.9 6.9 0 0 1 0 13.9" fill="#06d6a093"/><path d="M-80.9-186.1a7 7 0 1 1 0-14 7 7 0 0 1 0 14" fill="#06d6a095"/><path d="M103.4-341.2a7 7 0 1 1 0-14.1 7 7 0 0 1 0 14.1" fill="#073b4c95"/><path d="M40.5-336.5a7.1 7.1 0 1 1 0-14.2 7.1 7.1 0 0 1 0 14.2" fill="#118ab297"/><path d="M214.7 0.9a7.2 7.2 0 1 1 0-14.3 7.2 7.2 0 0 1 0 14.3" fill="#073b4c98"/><path d="M-54.4-272.7a7.2 7.2 0 1 1 0-14.3 7.2 7.2 0 0 1 0 14.3" fill="#118ab298"/><path d="M103.7 38.7a7.2 7.2 0 1 1 0-14.3 7.2 7.2 0 0 1 0 14.3" fill="#06d6a098"/><path d="M-78.6-238.4a7.2 7.2 0 1 1 0-14.5 7.2 7.2 0 0 1 0 14.5" fill="#ffd1669A"/><path d="M27-339a7.2 7.2 0 1 1 0-14.4 7.2 7.2 0 0 1 0 14.4" fill="#073b4c9A"/><path d="M196.4-330a7.3 7.3 0 1 1 0-14.5 7.3 7.3 0 0 1 0 14.5" fill="#073b4c9B"/><path d="M232.4-305.8a7.3 7.3 0 1 1 0-14.6 7.3 7.3 0 0 1 0 14.6" fill="#118ab29B"/><path d="M-96.2-103.6a7.3 7.3 0 1 1 0-14.7 7.3 7.3 0 0 1 0 14.7" fill="#06d6a09C"/><path d="M-88.5-72.2a7.4 7.4 0 1 1 0-14.9 7.4 7.4 0 0 1 0 14.9" fill="#ffd1669E"/><path d="M-99.5-98.7a7.4 7.4 0 1 1 0-14.8 7.4 7.4 0 0 1 0 14.8" fill="#ef476f9E"/><path d="M308.7-134.8a7.5 7.5 0 1 1 0-15 7.5 7.5 0 0 1 0 15" fill="#073b4cA0"/><path d="M9-345.1a7.5 7.5 0 1 1 0-15 7.5 7.5 0 0 1 0 15" fill="#06d6a0A0"/><path d="M58.9 52.9a7.6 7.6 0 1 1 0-15.1 7.6 7.6 0 0 1 0 15.1" fill="#ffd166A1"/><path d="M250.8-303.8a7.6 7.6 0 1 1 0-15.1 7.6 7.6 0 0 1 0 15.1" fill="#118ab2A1"/><path d="M-18.8-331.3a7.6 7.6 0 1 1 0-15.2 7.6 7.6 0 0 1 0 15.2" fill="#118ab2A1"/><path d="M311.4-182.9a7.6 7.6 0 1 1 0-15.2 7.6 7.6 0 0 1 0 15.2" fill="#118ab2A2"/><path d="M181.5-352a7.6 7.6 0 1 1 0-15.2 7.6 7.6 0 0 1 0 15.2" fill="#06d6a0A2"/><path d="M-7.1-340.9a7.6 7.6 0 1 1 0-15.3 7.6 7.6 0 0 1 0 15.3" fill="#06d6a0A2"/><path d="M134 57.2a7.6 7.6 0 1 1 0-15.2 7.6 7.6 0 0 1 0 15.2" fill="#ef476fA2"/><path d="M110.7-371.4a7.7 7.7 0 1 1 0-15.4 7.7 7.7 0 0 1 0 15.4" fill="#073b4cA4"/><path d="M-114.5-115a7.7 7.7 0 1 1 0-15.5 7.7 7.7 0 0 1 0 15.5" fill="#ffd166A5"/><path d="M-111.9-101.2a7.7 7.7 0 1 1 0-15.5 7.7 7.7 0 0 1 0 15.5" fill="#073b4cA5"/><path d="M319.1-163a7.8 7.8 0 1 1 0-15.6 7.8 7.8 0 0 1 0 15.6" fill="#06d6a0A5"/><path d="M-119.3-148.4a7.8 7.8 0 1 1 0-15.6 7.8 7.8 0 0 1 0 15.6" fill="#ffd166A5"/><path d="M27.7-361.9a7.8 7.8 0 1 1 0-15.6 7.8 7.8 0 0 1 0 15.6" fill="#073b4cA5"/><path d="M320.8-154.7a7.8 7.8 0 1 1 0-15.6 7.8 7.8 0 0 1 0 15.6" fill="#118ab2A6"/><path d="M25.8-362.9a7.8 7.8 0 1 1 0-15.6 7.8 7.8 0 0 1 0 15.6" fill="#06d6a0A7"/><path d="M251-316.7a7.8 7.8 0 1 1 0-15.6 7.8 7.8 0 0 1 0 15.6" fill="#073b4cA7"/><path d="M-91.8-269.3a7.9 7.9 0 1 1 0-15.8 7.9 7.9 0 0 1 0 15.8" fill="#06d6a0A8"/><path d="M285.8-281.2a8 8 0 1 1 0-15.9 8 8 0 0 1 0 15.9" fill="#06d6a0AA"/><path d="M0.7-357.7a8 8 0 1 1 0-16 8 8 0 0 1 0 16" fill="#ffd166AB"/><path d="M-37.8 26.2a8.1 8.1 0 1 1 0-16.1 8.1 8.1 0 0 1 0 16.1" fill="#ffd166AC"/><path d="M186.9-364.5a8.1 8.1 0 1 1 0-16.1 8.1 8.1 0 0 1 0 16.1" fill="#06d6a0AC"/><path d="M265.2-311.1a8.1 8.1 0 1 1 0-16.2 8.1 8.1 0 0 1 0 16.2" fill="#073b4cAC"/><path d="M-16.1 41.5a8.1 8.1 0 1 1 0-16.1 8.1 8.1 0 0 1 0 16.1" fill="#118ab2AC"/><path d="M-118.9-222.2a8.1 8.1 0 1 1 0-16.3 8.1 8.1 0 0 1 0 16.3" fill="#118ab2AE"/><path d="M271.8-307.2a8.2 8.2 0 1 1 0-16.3 8.2 8.2 0 0 1 0 16.3" fill="#118ab2AF"/><path d="M38 67.5a8.2 8.2 0 1 1 0-16.4 8.2 8.2 0 0 1 0 16.4" fill="#118ab2AF"/><path d="M63.6 73.6a8.2 8.2 0 1 1 0-16.5 8.2 8.2 0 0 1 0 16.5" fill="#06d6a0B0"/><path d="M325.5-103.3a8.2 8.2 0 1 1 0-16.5 8.2 8.2 0 0 1 0 16.5" fill="#118ab2B0"/><path d="M-7.1 50.6a8.3 8.3 0 1 1 0-16.5 8.3 8.3 0 0 1 0 16.5" fill="#06d6a0B0"/><path d="M293.3-281.6a8.3 8.3 0 1 1 0-16.5 8.3 8.3 0 0 1 0 16.5" fill="#118ab2B0"/><path d="M332-147.4a8.3 8.3 0 1 1 0-16.6 8.3 8.3 0 0 1 0 16.6" fill="#073b4cB1"/><path d="M-128.7-110.9a8.4 8.4 0 1 1 0-16.7 8.4 8.4 0 0 1 0 16.7" fill="#118ab2B2"/><path d="M304.4-266a8.4 8.4 0 1 1 0-16.7 8.4 8.4 0 0 1 0 16.7" fill="#06d6a0B3"/><path d="M89.3 78.9a8.4 8.4 0 1 1 0-16.8 8.4 8.4 0 0 1 0 16.8" fill="#073b4cB3"/><path d="M-84.5-297.5a8.4 8.4 0 1 1 0-16.8 8.4 8.4 0 0 1 0 16.8" fill="#ffd166B4"/><path d="M115.9 79.8a8.5 8.5 0 1 1 0-16.9 8.5 8.5 0 0 1 0 16.9" fill="#ffd166B5"/><path d="M334.3-164.4a8.5 8.5 0 1 1 0-17 8.5 8.5 0 0 1 0 17" fill="#06d6a0B6"/><path d="M37.6-380.2a8.5 8.5 0 1 1 0-17 8.5 8.5 0 0 1 0 17" fill="#ef476fB6"/><path d="M162.6-380.2a8.5 8.5 0 1 1 0-17.1 8.5 8.5 0 0 1 0 17.1" fill="#ef476fB6"/><path d="M255.8-329.9a8.6 8.6 0 1 1 0-17.1 8.6 8.6 0 0 1 0 17.1" fill="#ffd166B7"/><path d="M51.2 76a8.6 8.6 0 1 1 0-17.1 8.6 8.6 0 0 1 0 17.1" fill="#073b4cB7"/><path d="M-69.8 8.9a8.6 8.6 0 1 1 0-17.2 8.6 8.6 0 0 1 0 17.2" fill="#073b4cB8"/><path d="M-50.4 27.9a8.7 8.7 0 1 1 0-17.4 8.7 8.7 0 0 1 0 17.4" fill="#06d6a0BA"/><path d="M19.4-375.6a8.7 8.7 0 1 1 0-17.4 8.7 8.7 0 0 1 0 17.4" fill="#ffd166BA"/><path d="M-92.9-17.7a8.7 8.7 0 1 1 0-17.5 8.7 8.7 0 0 1 0 17.5" fill="#073b4cBB"/><path d="M-130-100.4a8.7 8.7 0 1 1 0-17.5 8.7 8.7 0 0 1 0 17.5" fill="#118ab2BB"/><path d="M150.8 76.9a8.8 8.8 0 1 1 0-17.5 8.8 8.8 0 0 1 0 17.5" fill="#ffd166BC"/><path d="M-135.5-173a8.8 8.8 0 1 1 0-17.6 8.8 8.8 0 0 1 0 17.6" fill="#073b4cBD"/><path d="M42.6-382.8a8.8 8.8 0 1 1 0-17.7 8.8 8.8 0 0 1 0 17.7" fill="#ffd166BD"/><path d="M66.2 80.2a8.9 8.9 0 1 1 0-17.8 8.9 8.9 0 0 1 0 17.8" fill="#118ab2BF"/><path d="M257.9 22a9 9 0 1 1 0-17.9 9 9 0 0 1 0 17.9" fill="#ffd166C0"/><path d="M300.8-277.6a9 9 0 1 1 0-18 9 9 0 0 1 0 18" fill="#ef476fC0"/><path d="M245.8-339a9 9 0 1 1 0-18 9 9 0 0 1 0 18" fill="#118ab2C1"/><path d="M136.8 79.5a9 9 0 1 1 0-18 9 9 0 0 1 0 18" fill="#118ab2C1"/><path d="M274.3 5.3a9.1 9.1 0 1 1 0-18.2 9.1 9.1 0 0 1 0 18.2" fill="#073b4cC2"/><path d="M248.5-336.4a9.1 9.1 0 1 1 0-18.1 9.1 9.1 0 0 1 0 18.1" fill="#ffd166C2"/><path d="M-22.4 47.9a9.1 9.1 0 1 1 0-18.2 9.1 9.1 0 0 1 0 18.2" fill="#073b4cC2"/><path d="M11.4 64.7a9.1 9.1 0 1 1 0-18.2 9.1 9.1 0 0 1 0 18.2" fill="#073b4cC3"/><path d="M286.5-294.7a9.3 9.3 0 1 1 0-18.5 9.3 9.3 0 0 1 0 18.5" fill="#ef476fC6"/><path d="M114.6 80.3a9.3 9.3 0 1 1 0-18.5 9.3 9.3 0 0 1 0 18.5" fill="#ffd166C6"/><path d="M-83.1-298.7a9.3 9.3 0 1 1 0-18.5 9.3 9.3 0 0 1 0 18.5" fill="#118ab2C7"/><path d="M215-355.8a9.3 9.3 0 1 1 0-18.7 9.3 9.3 0 0 1 0 18.7" fill="#118ab2C8"/><path d="M327.6-106.1a9.4 9.4 0 1 1 0-18.8 9.4 9.4 0 0 1 0 18.8" fill="#073b4cC9"/><path d="M-86.9-15.4a9.4 9.4 0 1 1 0-18.8 9.4 9.4 0 0 1 0 18.8" fill="#ffd166C9"/><path d="M52.4 74.1a9.4 9.4 0 1 1 0-18.8 9.4 9.4 0 0 1 0 18.8" fill="#ef476fCA"/><path d="M167.6 68.9a9.4 9.4 0 1 1 0-18.9 9.4 9.4 0 0 1 0 18.9" fill="#073b4cCA"/><path d="M-110.7-58a9.5 9.5 0 1 1 0-19 9.5 9.5 0 0 1 0 19" fill="#118ab2CB"/><path d="M327.5-121.9a9.6 9.6 0 1 1 0-19.1 9.6 9.6 0 0 1 0 19.1" fill="#ef476fCD"/><path d="M317.2-227.5a9.6 9.6 0 1 1 0-19.1 9.6 9.6 0 0 1 0 19.1" fill="#073b4cCD"/><path d="M-93.7-31.3a9.6 9.6 0 1 1 0-19.2 9.6 9.6 0 0 1 0 19.2" fill="#118ab2CE"/><path d="M95.9-380.9a9.6 9.6 0 1 1 0-19.2 9.6 9.6 0 0 1 0 19.2" fill="#ffd166CE"/><path d="M326-171.8a9.7 9.7 0 1 1 0-19.4 9.7 9.7 0 0 1 0 19.4" fill="#ef476fD0"/><path d="M-59.3-314.2a9.7 9.7 0 1 1 0-19.4 9.7 9.7 0 0 1 0 19.4" fill="#ffd166D0"/><path d="M49.8-371.9a9.8 9.8 0 1 1 0-19.6 9.8 9.8 0 0 1 0 19.6" fill="#06d6a0D1"/><path d="M323.8-135.6a9.8 9.8 0 1 1 0-19.5 9.8 9.8 0 0 1 0 19.5" fill="#06d6a0D2"/><path d="M-90-271.9a9.8 9.8 0 1 1 0-19.5 9.8 9.8 0 0 1 0 19.5" fill="#ef476fD2"/><path d="M94.2 70.4a9.8 9.8 0 1 1 0-19.6 9.8 9.8 0 0 1 0 19.6" fill="#ef476fD3"/><path d="M218.3-341.7a9.8 9.8 0 1 1 0-19.7 9.8 9.8 0 0 1 0 19.7" fill="#06d6a0D3"/><path d="M260.6-0.9a9.9 9.9 0 1 1 0-19.8 9.9 9.9 0 0 1 0 19.8" fill="#118ab2D5"/><path d="M-109.8-221.1a9.9 9.9 0 1 1 0-19.8 9.9 9.9 0 0 1 0 19.8" fill="#118ab2D5"/><path d="M225.4 27.2a10 10 0 1 1 0-19.9 10 10 0 0 1 0 19.9" fill="#073b4cD6"/><path d="M310.3-214a10 10 0 1 1 0-19.9 10 10 0 0 1 0 19.9" fill="#ef476fD6"/><path d="M-110.3-212.4a10 10 0 1 1 0-19.9 10 10 0 0 1 0 19.9" fill="#06d6a0D6"/><path d="M-115-118.2a10 10 0 1 1 0-20 10 10 0 0 1 0 20" fill="#ffd166D7"/><path d="M234.4-316.2a10.2 10.2 0 1 1 0-20.4 10.2 10.2 0 0 1 0 20.4" fill="#118ab2DA"/><path d="M-96.6-229.9a10.2 10.2 0 1 1 0-20.3 10.2 10.2 0 0 1 0 20.3" fill="#06d6a0DB"/><path d="M300.4-212a10.2 10.2 0 1 1 0-20.5 10.2 10.2 0 0 1 0 20.5" fill="#06d6a0DC"/><path d="M155.6-350.4a10.3 10.3 0 1 1 0-20.6 10.3 10.3 0 0 1 0 20.6" fill="#ffd166DD"/><path d="M102.8 47.2a10.4 10.4 0 1 1 0-20.9 10.4 10.4 0 0 1 0 20.9" fill="#ffd166E0"/><path d="M125.2 41.8a10.5 10.5 0 1 1 0-21 10.5 10.5 0 0 1 0 21" fill="#073b4cE2"/><path d="M-57.2-36.7a10.5 10.5 0 1 1 0-21 10.5 10.5 0 0 1 0 21" fill="#06d6a0E2"/><path d="M244.5-280.3a10.6 10.6 0 1 1 0-21.2 10.6 10.6 0 0 1 0 21.2" fill="#ef476fE3"/><path d="M-88.4-192.1a10.6 10.6 0 1 1 0-21.2 10.6 10.6 0 0 1 0 21.2" fill="#ef476fE3"/><path d="M131.2 37.5a10.6 10.6 0 1 1 0-21.2 10.6 10.6 0 0 1 0 21.2" fill="#118ab2E3"/><path d="M146.6-338a10.6 10.6 0 1 1 0-21.2 10.6 10.6 0 0 1 0 21.2" fill="#073b4cE3"/><path d="M34.6-331.5a10.6 10.6 0 1 1 0-21.2 10.6 10.6 0 0 1 0 21.2" fill="#073b4cE4"/><path d="M8.3-314.5a10.7 10.7 0 1 1 0-21.3 10.7 10.7 0 0 1 0 21.3" fill="#06d6a0E5"/><path d="M-74.5-85.5a10.7 10.7 0 1 1 0-21.3 10.7 10.7 0 0 1 0 21.3" fill="#ef476fE5"/><path d="M140.6-333.7a10.7 10.7 0 1 1 0-21.3 10.7 10.7 0 0 1 0 21.3" fill="#ef476fE5"/><path d="M285.6-157.7a10.7 10.7 0 1 1 0-21.4 10.7 10.7 0 0 1 0 21.4" fill="#06d6a0E6"/><path d="M151.4-326.7a10.7 10.7 0 1 1 0-21.5 10.7 10.7 0 0 1 0 21.5" fill="#ffd166E7"/><path d="M-4.7-4.9a10.8 10.8 0 1 1 0-21.5 10.8 10.8 0 0 1 0 21.5" fill="#06d6a0E7"/><path d="M17-311.4a10.8 10.8 0 1 1 0-21.5 10.8 10.8 0 0 1 0 21.5" fill="#ffd166E8"/><path d="M-16.4-15.4a10.8 10.8 0 1 1 0-21.6 10.8 10.8 0 0 1 0 21.6" fill="#073b4cE8"/><path d="M267.4-93.6a10.8 10.8 0 1 1 0-21.6 10.8 10.8 0 0 1 0 21.6" fill="#ef476fE8"/><path d="M136.4-325a10.8 10.8 0 1 1 0-21.7 10.8 10.8 0 0 1 0 21.7" fill="#ffd166E9"/><path d="M275.3-173.1a10.8 10.8 0 1 1 0-21.6 10.8 10.8 0 0 1 0 21.6" fill="#06d6a0E9"/><path d="M-60.4-213.8a10.9 10.9 0 1 1 0-21.8 10.9 10.9 0 0 1 0 21.8" fill="#ef476fEA"/><path d="M-68.4-140.6a10.9 10.9 0 1 1 0-21.8 10.9 10.9 0 0 1 0 21.8" fill="#073b4cEB"/><path d="M75 14.9a10.9 10.9 0 1 1 0-21.9 10.9 10.9 0 0 1 0 21.9" fill="#06d6a0EB"/><path d="M-16.5-261.8a11 11 0 1 1 0-22.1 11 11 0 0 1 0 22.1" fill="#ffd166ED"/><path d="M140.6 1.9a11 11 0 1 1 0-22.1 11 11 0 0 1 0 22.1" fill="#ef476fEE"/><path d="M-51.4-152.3a11.1 11.1 0 1 1 0-22.2 11.1 11.1 0 0 1 0 22.2" fill="#ef476fEF"/><path d="M-44.7-180.3a11.2 11.2 0 1 1 0-22.4 11.2 11.2 0 0 1 0 22.4" fill="#06d6a0F0"/><path d="M33-281.1a11.2 11.2 0 1 1 0-22.3 11.2 11.2 0 0 1 0 22.3" fill="#073b4cF1"/><path d="M238.5-181.7a11.2 11.2 0 1 1 0-22.5 11.2 11.2 0 0 1 0 22.5" fill="#ef476fF1"/><path d="M-4.9-68.5a11.3 11.3 0 1 1 0-22.5 11.3 11.3 0 0 1 0 22.5" fill="#06d6a0F3"/><path d="M152.6-30.3a11.3 11.3 0 1 1 0-22.6 11.3 11.3 0 0 1 0 22.6" fill="#ffd166F3"/><path d="M181.7-53.8a11.3 11.3 0 1 1 0-22.7 11.3 11.3 0 0 1 0 22.7" fill="#ffd166F4"/><path d="M98.4-28.9a11.4 11.4 0 1 1 0-22.7 11.4 11.4 0 0 1 0 22.7" fill="#118ab2F5"/><path d="M202.8-85.5a11.4 11.4 0 1 1 0-22.8 11.4 11.4 0 0 1 0 22.8" fill="#06d6a0F5"/><path d="M78.5-271.1a11.4 11.4 0 1 1 0-22.8 11.4 11.4 0 0 1 0 22.8" fill="#ffd166F5"/><path d="M97.9-33.4a11.4 11.4 0 1 1 0-22.8 11.4 11.4 0 0 1 0 22.8" fill="#ef476fF6"/><path d="M-8.7-127.8a11.5 11.5 0 1 1 0-22.9 11.5 11.5 0 0 1 0 22.9" fill="#06d6a0F7"/><path d="M197.7-170.2a11.5 11.5 0 1 1 0-23 11.5 11.5 0 0 1 0 23" fill="#ffd166F8"/><path d="M54.8-236.7a11.6 11.6 0 1 1 0-23.1 11.6 11.6 0 0 1 0 23.1" fill="#ffd166F9"/><path d="M133.1-235.9a11.6 11.6 0 1 1 0-23.1 11.6 11.6 0 0 1 0 23.1" fill="#ffd166F9"/><path d="M133.8-68.3a11.6 11.6 0 1 1 0-23.2 11.6 11.6 0 0 1 0 23.2" fill="#118ab2FA"/><path d="M73-72.6a11.6 11.6 0 1 1 0-23.3 11.6 11.6 0 0 1 0 23.3" fill="#06d6a0FA"/><path d="M20.5-169.8a11.6 11.6 0 1 1 0-23.3 11.6 11.6 0 0 1 0 23.3" fill="#ffd166FA"/><path d="M176-166.6a11.6 11.6 0 1 1 0-23.3 11.6 11.6 0 0 1 0 23.3" fill="#ffd166FB"/><path d="M174.4-154.2a11.7 11.7 0 1 1 0-23.3 11.7 11.7 0 0 1 0 23.3" fill="#ffd166FB"/><path d="M104.9-77.8a11.7 11.7 0 1 1 0-23.3 11.7 11.7 0 0 1 0 23.3" fill="#06d6a0FB"/><path d="M45.8-185.7a11.7 11.7 0 1 1 0-23.4 11.7 11.7 0 0 1 0 23.4" fill="#ef476fFC"/><path d="M45.8-124.2a11.7 11.7 0 1 1 0-23.5 11.7 11.7 0 0 1 0 23.5" fill="#06d6a0FC"/><path d="M140-162.3a11.8 11.8 0 1 1 0-23.6 11.8 11.8 0 0 1 0 23.6" fill="#073b4cFD"/><path d="M110.8-133.9a11.8 11.8 0 1 1 0-23.6 11.8 11.8 0 0 1 0 23.6" fill="#ef476fFE"/></g></svg>