<svg width="1200" height="675" viewBox="-500 -500 1200 675" xmlns="http://www.w3.org/2000/svg"><path d="M-500-500h1200v675h-1200z" fill="#000"/><style>.sparkles path{stroke-linecap:round; stroke-width:1}</style><g class="sparkles"><path d="M100-162.5l-9.4 42.8" stroke="#005bbb32"/><path d="M100-162.5l11-43" stroke="#fff32"/><path d="M100-162.5l55.8-9.7" stroke="#fff33"/><path d="M100-162.5l47.4 32.2" stroke="#fff33"/><path d="M100-162.5l-25.8 77.1" stroke="#fff50035"/><path d="M100-162.5l-22.1-85.1" stroke="#c2e1ff35"/><path d="M100-162.5l30.9 85.4" stroke="#005bbb35"/><path d="M100-162.5l68 60.3" stroke="#c2e1ff35"/><path d="M100-162.5l-48.2 78.2" stroke="#fff35"/><path d="M100-162.5l-64.1-71.5" stroke="#c2e1ff36"/><path d="M100-162.5l112-26.5" stroke="#c2e1ff38"/><path d="M100-162.5l36.8 118.8" stroke="#005bbb39"/><path d="M100-162.5l91.2-92" stroke="#fff3A"/><path d="M100-162.5l119.2 57.2" stroke="#005bbb3A"/><path d="M100-162.5l-132.1 23.4" stroke="#005bbb3A"/><path d="M100-162.5l-133.2 29" stroke="#005bbb3B"/><path d="M100-162.5l62.4 122.5" stroke="#fff3B"/><path d="M100-162.5l-124.9-58" stroke="#fff5003B"/><path d="M100-162.5l-121.5 70" stroke="#005bbb3B"/><path d="M100-162.5l-92.9-106" stroke="#005bbb3B"/><path d="M100-162.5l-106.7-93.7" stroke="#fff3C"/><path d="M100-162.5l97.9-106.2" stroke="#005bbb3C"/><path d="M100-162.5l-21.7 143" stroke="#005bbb3C"/><path d="M100-162.5l95.1-110" stroke="#c2e1ff3C"/><path d="M100-162.5l-16.4 149.3" stroke="#fff5003D"/><path d="M100-162.5l-100.4 115.8" stroke="#fff5003D"/><path d="M100-162.5l119.8 98.9" stroke="#fff3E"/><path d="M100-162.5l2.2-156.9" stroke="#fff5003E"/><path d="M100-162.5l-152.9 59.3" stroke="#fff50040"/><path d="M100-162.5l116.4-115.9" stroke="#fff40"/><path d="M100-162.5l-123.4-110.6" stroke="#fff40"/><path d="M100-162.5l-54.3 156.5" stroke="#005bbb40"/><path d="M100-162.5l-156.3 55.9" stroke="#005bbb40"/><path d="M100-162.5l-37.8 165.2" stroke="#c2e1ff41"/><path d="M100-162.5l-44.1 163.6" stroke="#fff50041"/><path d="M100-162.5l169.8 23.5" stroke="#fff50041"/><path d="M100-162.5l1.2-174.1" stroke="#005bbb42"/><path d="M100-162.5l37.5 174" stroke="#c2e1ff43"/><path d="M100-162.5l-43.8-174.6" stroke="#c2e1ff43"/><path d="M100-162.5l19.3-181.6" stroke="#c2e1ff44"/><path d="M100-162.5l-88.3-160.5" stroke="#fff44"/><path d="M100-162.5l166.4 90.5" stroke="#fff46"/><path d="M100-162.5l97.5-164.4" stroke="#fff46"/><path d="M100-162.5l-165.4 96.4" stroke="#005bbb46"/><path d="M100-162.5l-160.8-104.8" stroke="#c2e1ff46"/><path d="M100-162.5l-159.8-106.7" stroke="#fff50046"/><path d="M100-162.5l45.2 188" stroke="#fff50047"/><path d="M100-162.5l113.2 161.4" stroke="#c2e1ff48"/><path d="M100-162.5l163-119.1" stroke="#fff4A"/><path d="M100-162.5l74.6 190.6" stroke="#c2e1ff4B"/><path d="M100-162.5l-159.1-133.3" stroke="#005bbb4C"/><path d="M100-162.5l129.5 163.1" stroke="#005bbb4C"/><path d="M100-162.5l62.5 199.1" stroke="#fff4C"/><path d="M100-162.5l149.3 148.5" stroke="#fff4D"/><path d="M100-162.5l122.5-172.2" stroke="#fff4D"/><path d="M100-162.5l-24.4 213.9" stroke="#fff5004F"/><path d="M100-162.5l133.7 171.1" stroke="#c2e1ff50"/><path d="M100-162.5l185.1-116.1" stroke="#fff50051"/><path d="M100-162.5l34-216.1" stroke="#fff50051"/><path d="M100-162.5l-219.7-25.3" stroke="#fff50052"/><path d="M100-162.5l192.3-109.5" stroke="#fff52"/><path d="M100-162.5l-165.2-147.6" stroke="#c2e1ff52"/><path d="M100-162.5l-121.2-188" stroke="#fff53"/><path d="M100-162.5l203.2-94.7" stroke="#c2e1ff54"/><path d="M100-162.5l46.4-221.3" stroke="#005bbb55"/><path d="M100-162.5l65.3 217.8" stroke="#fff56"/><path d="M100-162.5l141.3-180" stroke="#c2e1ff57"/><path d="M100-162.5l-195.7-121.7" stroke="#c2e1ff58"/><path d="M100-162.5l17.3-230.5" stroke="#fff59"/><path d="M100-162.5l-220.1-75.4" stroke="#005bbb5B"/><path d="M100-162.5l-108.6 205.8" stroke="#005bbb5B"/><path d="M100-162.5l-229.1-42.7" stroke="#c2e1ff5B"/><path d="M100-162.5l158.4-171" stroke="#005bbb5B"/><path d="M100-162.5l-49.1 228.1" stroke="#fff5C"/><path d="M100-162.5l-9.2-233.2" stroke="#c2e1ff5C"/><path d="M100-162.5l-120.7 200.4" stroke="#c2e1ff5C"/><path d="M100-162.5l-219.2 82.3" stroke="#c2e1ff5D"/><path d="M100-162.5l55.1-227.8" stroke="#c2e1ff5D"/><path d="M100-162.5l-163.1 168.4" stroke="#fff5005D"/><path d="M100-162.5l224-69.2" stroke="#c2e1ff5D"/><path d="M100-162.5l-162.3-169.9" stroke="#fff5005E"/><path d="M100-162.5l151.7-179.7" stroke="#c2e1ff5F"/><path d="M100-162.5l233.1-32.2" stroke="#fff5F"/><path d="M100-162.5l-39.4 232.2" stroke="#c2e1ff60"/><path d="M100-162.5l-174.2 158.7" stroke="#005bbb60"/><path d="M100-162.5l90.3-217.8" stroke="#fff50060"/><path d="M100-162.5l150.7-181.4" stroke="#fff50061"/><path d="M100-162.5l-223.6 75.1" stroke="#c2e1ff61"/><path d="M100-162.5l-154.6-178.2" stroke="#005bbb61"/><path d="M100-162.5l-1.3 236" stroke="#005bbb61"/><path d="M100-162.5l-53.6 230" stroke="#fff62"/><path d="M100-162.5l-73.2 224.6" stroke="#c2e1ff63"/><path d="M100-162.5l-82.5 221.4" stroke="#c2e1ff63"/><path d="M100-162.5l-8.8-236.1" stroke="#005bbb64"/><path d="M100-162.5l191.2 138.7" stroke="#fff65"/><path d="M100-162.5l-212.8 102.3" stroke="#fff50065"/><path d="M100-162.5l-48.6-230.8" stroke="#005bbb66"/><path d="M100-162.5l187.8 142.7" stroke="#c2e1ff67"/><path d="M100-162.5l227.3-62.2" stroke="#fff67"/><path d="M100-162.5l-59-228" stroke="#c2e1ff67"/><path d="M100-162.5l-42.8 229.8" stroke="#fff6B"/><path d="M100-162.5l-231.9 28.3" stroke="#fff6B"/><path d="M100-162.5l203.7 113.8" stroke="#fff6B"/><path d="M100-162.5l51.1 227.3" stroke="#c2e1ff6C"/><path d="M100-162.5l-208 103.7" stroke="#fff6C"/><path d="M100-162.5l-91.6 213.1" stroke="#fff6D"/><path d="M100-162.5l228.9 33.2" stroke="#005bbb6E"/><path d="M100-162.5l72.5-218.7" stroke="#005bbb6F"/><path d="M100-162.5l218.3 71.6" stroke="#005bbb6F"/><path d="M100-162.5l-219.7-60.9" stroke="#fff71"/><path d="M100-162.5l53.2-221.7" stroke="#c2e1ff71"/><path d="M100-162.5l-227.4 3.3" stroke="#fff50071"/><path d="M100-162.5l210.7-82.1" stroke="#005bbb72"/><path d="M100-162.5l-45.4 221.2" stroke="#fff50072"/><path d="M100-162.5l133.8 181.6" stroke="#005bbb72"/><path d="M100-162.5l-29.2 223.6" stroke="#fff50072"/><path d="M100-162.5l29.2-221.5" stroke="#005bbb74"/><path d="M100-162.5l-158 157.8" stroke="#005bbb74"/><path d="M100-162.5l-23.3-219.9" stroke="#c2e1ff75"/><path d="M100-162.5l219.8-20.6" stroke="#fff75"/><path d="M100-162.5l-39.6-214.1" stroke="#fff50077"/><path d="M100-162.5l-88.6 197.3" stroke="#005bbb78"/><path d="M100-162.5l202.9-71.2" stroke="#c2e1ff78"/><path d="M100-162.5l-84.6-196.5" stroke="#005bbb79"/><path d="M100-162.5l212.4 19.4" stroke="#fff79"/><path d="M100-162.5l10.1-211.3" stroke="#fff5007A"/><path d="M100-162.5l139.6-158.8" stroke="#fff7A"/><path d="M100-162.5l87-192.2" stroke="#c2e1ff7A"/><path d="M100-162.5l-192.9 81.1" stroke="#c2e1ff7B"/><path d="M100-162.5l113.1 175.8" stroke="#c2e1ff7B"/><path d="M100-162.5l202.7 33.6" stroke="#fff7C"/><path d="M100-162.5l-94.8 179.3" stroke="#fff5007D"/><path d="M100-162.5l21.7-201.5" stroke="#fff5007D"/><path d="M100-162.5l83.9-184" stroke="#fff5007D"/><path d="M100-162.5l-146.5-138.9" stroke="#c2e1ff7D"/><path d="M100-162.5l-68.1 189.3" stroke="#fff7E"/><path d="M100-162.5l180.5 82.7" stroke="#fff7F"/><path d="M100-162.5l-77.5 182.7" stroke="#fff5007F"/><path d="M100-162.5l105 166" stroke="#fff5007F"/><path d="M100-162.5l-18.6-193.1" stroke="#fff80"/><path d="M100-162.5l164.8 100.7" stroke="#fff50080"/><path d="M100-162.5l-187.5 40" stroke="#fff81"/><path d="M100-162.5l-128.6 140.1" stroke="#fff81"/><path d="M100-162.5l173.4 75.8" stroke="#005bbb81"/><path d="M100-162.5l-69.2 175.9" stroke="#fff50081"/><path d="M100-162.5l-8.7-187.7" stroke="#005bbb82"/><path d="M100-162.5l148.3 110.3" stroke="#c2e1ff83"/><path d="M100-162.5l79.1-166.5" stroke="#c2e1ff83"/><path d="M100-162.5l-169.8-68.8" stroke="#fff83"/><path d="M100-162.5l6.2-179.6" stroke="#fff50084"/><path d="M100-162.5l-77.5-155.5" stroke="#fff50085"/><path d="M100-162.5l40-165.9" stroke="#fff50086"/><path d="M100-162.5l-166.8-26" stroke="#c2e1ff86"/><path d="M100-162.5l159.6-32.3" stroke="#005bbb88"/><path d="M100-162.5l-158.5 5.4" stroke="#fff89"/><path d="M100-162.5l-62.9-145.4" stroke="#c2e1ff89"/><path d="M100-162.5l152.7 39.5" stroke="#005bbb89"/><path d="M100-162.5l-148.7 5.4" stroke="#c2e1ff8A"/><path d="M100-162.5l-145 0.3" stroke="#fff8B"/><path d="M100-162.5l127.2 60.8" stroke="#fff5008C"/><path d="M100-162.5l-32.9-135.5" stroke="#c2e1ff8C"/><path d="M100-162.5l-94.4 96.8" stroke="#fff5008C"/><path d="M100-162.5l116.4 65.7" stroke="#c2e1ff8D"/><path d="M100-162.5l107.9 71.7" stroke="#fff5008D"/><path d="M100-162.5l-107.4-68.6" stroke="#005bbb8E"/><path d="M100-162.5l85.2 84.7" stroke="#fff8F"/><path d="M100-162.5l-118.5 7.9" stroke="#fff8F"/><path d="M100-162.5l-67.7 97.2" stroke="#c2e1ff8F"/><path d="M100-162.5l-40.1-106.1" stroke="#fff5008F"/><path d="M100-162.5l110.9 18.7" stroke="#c2e1ff8F"/><path d="M100-162.5l-81.7-75.6" stroke="#fff50090"/><path d="M100-162.5l-99.3 35.1" stroke="#c2e1ff90"/><path d="M100-162.5l102.6 0" stroke="#fff50091"/><path d="M100-162.5l91 46.1" stroke="#c2e1ff91"/><path d="M100-162.5l91.6-24" stroke="#c2e1ff91"/><path d="M100-162.5l-92.8 3.3" stroke="#fff50091"/><path d="M100-162.5l2.2 90.3" stroke="#fff92"/><path d="M100-162.5l-59.1-48" stroke="#005bbb93"/><path d="M100-162.5l-43-44.3" stroke="#fff94"/><path d="M100-162.5l47.8 17.2" stroke="#fff94"/><path d="M100-162.5l-11.3-6.8" stroke="#fff50095"/></g><g class="sparcs"><path d="M90.6-113.7a6 6 0 1 1 0-11.9 6 6 0 0 1 0 11.9" fill="#fff7E"/><path d="M111-199.6a6 6 0 1 1 0-11.9 6 6 0 0 1 0 11.9" fill="#005bbb7E"/><path d="M155.8-166.2a6 6 0 1 1 0-12 6 6 0 0 1 0 12" fill="#fff7E"/><path d="M147.4-124.3a6 6 0 1 1 0-12 6 6 0 0 1 0 12" fill="#c2e1ff7E"/><path d="M74.2-79.3a6.1 6.1 0 1 1 0-12.2 6.1 6.1 0 0 1 0 12.2" fill="#fff50080"/><path d="M77.9-241.5a6.1 6.1 0 1 1 0-12.3 6.1 6.1 0 0 1 0 12.3" fill="#c2e1ff81"/><path d="M130.9-70.9a6.1 6.1 0 1 1 0-12.3 6.1 6.1 0 0 1 0 12.3" fill="#005bbb82"/><path d="M168-96a6.1 6.1 0 1 1 0-12.3 6.1 6.1 0 0 1 0 12.3" fill="#c2e1ff82"/><path d="M51.8-78.1a6.1 6.1 0 1 1 0-12.3 6.1 6.1 0 0 1 0 12.3" fill="#fff82"/><path d="M35.9-227.8a6.2 6.2 0 1 1 0-12.3 6.2 6.2 0 0 1 0 12.3" fill="#005bbb82"/><path d="M212-182.7a6.3 6.3 0 1 1 0-12.5 6.3 6.3 0 0 1 0 12.5" fill="#c2e1ff85"/><path d="M136.8-37.4a6.3 6.3 0 1 1 0-12.7 6.3 6.3 0 0 1 0 12.7" fill="#c2e1ff86"/><path d="M191.2-248.1a6.4 6.4 0 1 1 0-12.7 6.4 6.4 0 0 1 0 12.7" fill="#fff87"/><path d="M219.2-98.9a6.4 6.4 0 1 1 0-12.8 6.4 6.4 0 0 1 0 12.8" fill="#005bbb88"/><path d="M-32.1-132.6a6.4 6.4 0 1 1 0-12.9 6.4 6.4 0 0 1 0 12.9" fill="#005bbb88"/><path d="M-33.2-127a6.4 6.4 0 1 1 0-12.9 6.4 6.4 0 0 1 0 12.9" fill="#c2e1ff88"/><path d="M162.4-33.6a6.5 6.5 0 1 1 0-12.9 6.5 6.5 0 0 1 0 12.9" fill="#fff50089"/><path d="M-24.9-214a6.5 6.5 0 1 1 0-12.9 6.5 6.5 0 0 1 0 12.9" fill="#005bbb89"/><path d="M-21.5-86a6.5 6.5 0 1 1 0-13 6.5 6.5 0 0 1 0 13" fill="#c2e1ff89"/><path d="M7.1-262a6.5 6.5 0 1 1 0-12.9 6.5 6.5 0 0 1 0 12.9" fill="#fff50089"/><path d="M-6.7-249.7a6.5 6.5 0 1 1 0-13 6.5 6.5 0 0 1 0 13" fill="#fff5008A"/><path d="M197.9-262.2a6.5 6.5 0 1 1 0-13 6.5 6.5 0 0 1 0 13" fill="#005bbb8A"/><path d="M78.3-13a6.5 6.5 0 1 1 0-13.1 6.5 6.5 0 0 1 0 13.1" fill="#005bbb8A"/><path d="M195.1-266a6.5 6.5 0 1 1 0-13 6.5 6.5 0 0 1 0 13" fill="#fff5008A"/><path d="M83.6-6.7a6.6 6.6 0 1 1 0-13.1 6.6 6.6 0 0 1 0 13.1" fill="#fff8B"/><path d="M-0.4-40a6.6 6.6 0 1 1 0-13.3 6.6 6.6 0 0 1 0 13.3" fill="#c2e1ff8C"/><path d="M219.8-57a6.6 6.6 0 1 1 0-13.2 6.6 6.6 0 0 1 0 13.2" fill="#c2e1ff8D"/><path d="M102.2-312.7a6.7 6.7 0 1 1 0-13.3 6.7 6.7 0 0 1 0 13.3" fill="#c2e1ff8D"/><path d="M-52.9-96.5a6.7 6.7 0 1 1 0-13.5 6.7 6.7 0 0 1 0 13.5" fill="#fff8F"/><path d="M216.4-271.6a6.7 6.7 0 1 1 0-13.5 6.7 6.7 0 0 1 0 13.5" fill="#c2e1ff8F"/><path d="M-23.4-266.4a6.8 6.8 0 1 1 0-13.5 6.8 6.8 0 0 1 0 13.5" fill="#005bbb8F"/><path d="M45.7 0.8a6.8 6.8 0 1 1 0-13.5 6.8 6.8 0 0 1 0 13.5" fill="#fff8F"/><path d="M-56.3-99.8a6.8 6.8 0 1 1 0-13.5 6.8 6.8 0 0 1 0 13.5" fill="#005bbb8F"/><path d="M62.2 9.5a6.8 6.8 0 1 1 0-13.6 6.8 6.8 0 0 1 0 13.6" fill="#005bbb90"/><path d="M55.9 7.9a6.8 6.8 0 1 1 0-13.6 6.8 6.8 0 0 1 0 13.6" fill="#fff50090"/><path d="M269.8-132.1a6.8 6.8 0 1 1 0-13.7 6.8 6.8 0 0 1 0 13.7" fill="#005bbb91"/><path d="M101.2-329.7a6.9 6.9 0 1 1 0-13.8 6.9 6.9 0 0 1 0 13.8" fill="#005bbb92"/><path d="M137.5 18.4a6.9 6.9 0 1 1 0-13.8 6.9 6.9 0 0 1 0 13.8" fill="#005bbb93"/><path d="M56.2-330.2a6.9 6.9 0 1 1 0-13.9 6.9 6.9 0 0 1 0 13.9" fill="#fff50093"/><path d="M119.3-337.1a7 7 0 1 1 0-14 7 7 0 0 1 0 14" fill="#005bbb94"/><path d="M11.7-316a7 7 0 1 1 0-14 7 7 0 0 1 0 14" fill="#c2e1ff94"/><path d="M266.4-64.9a7.1 7.1 0 1 1 0-14.2 7.1 7.1 0 0 1 0 14.2" fill="#005bbb97"/><path d="M197.5-319.8a7.1 7.1 0 1 1 0-14.2 7.1 7.1 0 0 1 0 14.2" fill="#fff97"/><path d="M-65.4-59a7.1 7.1 0 1 1 0-14.2 7.1 7.1 0 0 1 0 14.2" fill="#fff50097"/><path d="M-60.8-260.1a7.1 7.1 0 1 1 0-14.3 7.1 7.1 0 0 1 0 14.3" fill="#c2e1ff98"/><path d="M-59.8-262.1a7.1 7.1 0 1 1 0-14.3 7.1 7.1 0 0 1 0 14.3" fill="#fff98"/><path d="M145.2 32.6a7.2 7.2 0 1 1 0-14.3 7.2 7.2 0 0 1 0 14.3" fill="#fff50098"/><path d="M213.2 6.2a7.2 7.2 0 1 1 0-14.5 7.2 7.2 0 0 1 0 14.5" fill="#fff9A"/><path d="M263-274.3a7.3 7.3 0 1 1 0-14.6 7.3 7.3 0 0 1 0 14.6" fill="#c2e1ff9C"/><path d="M174.6 35.5a7.4 7.4 0 1 1 0-14.8 7.4 7.4 0 0 1 0 14.8" fill="#005bbb9D"/><path d="M-59.1-288.4a7.4 7.4 0 1 1 0-14.9 7.4 7.4 0 0 1 0 14.9" fill="#005bbb9E"/><path d="M229.5 8.1a7.5 7.5 0 1 1 0-15 7.5 7.5 0 0 1 0 15" fill="#005bbb9F"/><path d="M162.5 44.1a7.5 7.5 0 1 1 0-15 7.5 7.5 0 0 1 0 15" fill="#c2e1ff9F"/><path d="M249.3-6.5a7.5 7.5 0 1 1 0-15 7.5 7.5 0 0 1 0 15" fill="#fff500A0"/><path d="M222.5-327.1a7.5 7.5 0 1 1 0-15.1 7.5 7.5 0 0 1 0 15.1" fill="#c2e1ffA0"/><path d="M75.6 59a7.6 7.6 0 1 1 0-15.2 7.6 7.6 0 0 1 0 15.2" fill="#fffA3"/><path d="M233.7 16.3a7.7 7.7 0 1 1 0-15.4 7.7 7.7 0 0 1 0 15.4" fill="#c2e1ffA4"/><path d="M285.1-270.9a7.7 7.7 0 1 1 0-15.5 7.7 7.7 0 0 1 0 15.5" fill="#c2e1ffA5"/><path d="M134-370.8a7.7 7.7 0 1 1 0-15.5 7.7 7.7 0 0 1 0 15.5" fill="#c2e1ffA5"/><path d="M-119.7-180a7.8 7.8 0 1 1 0-15.6 7.8 7.8 0 0 1 0 15.6" fill="#005bbbA7"/><path d="M292.3-264.2a7.8 7.8 0 1 1 0-15.7 7.8 7.8 0 0 1 0 15.7" fill="#fffA7"/><path d="M-65.2-302.3a7.8 7.8 0 1 1 0-15.6 7.8 7.8 0 0 1 0 15.6" fill="#c2e1ffA7"/><path d="M-21.2-342.6a7.9 7.9 0 1 1 0-15.8 7.9 7.9 0 0 1 0 15.8" fill="#005bbbA9"/><path d="M303.2-249.3a7.9 7.9 0 1 1 0-15.8 7.9 7.9 0 0 1 0 15.8" fill="#005bbbA9"/><path d="M146.4-375.8a8 8 0 1 1 0-16 8 8 0 0 1 0 16" fill="#c2e1ffAB"/><path d="M165.3 63.3a8.1 8.1 0 1 1 0-16.1 8.1 8.1 0 0 1 0 16.1" fill="#fff500AC"/><path d="M241.3-334.4a8.1 8.1 0 1 1 0-16.2 8.1 8.1 0 0 1 0 16.2" fill="#fff500AD"/><path d="M-95.7-276a8.2 8.2 0 1 1 0-16.4 8.2 8.2 0 0 1 0 16.4" fill="#c2e1ffAF"/><path d="M117.3-384.8a8.2 8.2 0 1 1 0-16.5 8.2 8.2 0 0 1 0 16.5" fill="#fffB0"/><path d="M-120.1-229.6a8.3 8.3 0 1 1 0-16.7 8.3 8.3 0 0 1 0 16.7" fill="#fff500B2"/><path d="M-8.6 51.7a8.3 8.3 0 1 1 0-16.7 8.3 8.3 0 0 1 0 16.7" fill="#fffB2"/><path d="M-129.1-196.9a8.4 8.4 0 1 1 0-16.7 8.4 8.4 0 0 1 0 16.7" fill="#c2e1ffB3"/><path d="M258.4-325.1a8.4 8.4 0 1 1 0-16.8 8.4 8.4 0 0 1 0 16.8" fill="#c2e1ffB3"/><path d="M50.9 73.9a8.4 8.4 0 1 1 0-16.7 8.4 8.4 0 0 1 0 16.7" fill="#005bbbB3"/><path d="M90.8-387.3a8.4 8.4 0 1 1 0-16.9 8.4 8.4 0 0 1 0 16.9" fill="#c2e1ffB3"/><path d="M-20.7 46.3a8.4 8.4 0 1 1 0-16.9 8.4 8.4 0 0 1 0 16.9" fill="#c2e1ffB4"/><path d="M-119.2-71.7a8.5 8.5 0 1 1 0-17 8.5 8.5 0 0 1 0 17" fill="#fff500B5"/><path d="M155.1-381.8a8.5 8.5 0 1 1 0-17 8.5 8.5 0 0 1 0 17" fill="#005bbbB5"/><path d="M-63.1 14.4a8.5 8.5 0 1 1 0-17 8.5 8.5 0 0 1 0 17" fill="#005bbbB5"/><path d="M324-223.2a8.5 8.5 0 1 1 0-17 8.5 8.5 0 0 1 0 17" fill="#fffB5"/><path d="M-62.3-323.9a8.6 8.6 0 1 1 0-17.1 8.6 8.6 0 0 1 0 17.1" fill="#fffB7"/><path d="M251.7-333.6a8.6 8.6 0 1 1 0-17.2 8.6 8.6 0 0 1 0 17.2" fill="#c2e1ffB7"/><path d="M333.1-186.1a8.6 8.6 0 1 1 0-17.2 8.6 8.6 0 0 1 0 17.2" fill="#fff500B8"/><path d="M60.6 78.3a8.6 8.6 0 1 1 0-17.2 8.6 8.6 0 0 1 0 17.2" fill="#fffB8"/><path d="M-74.2 4.9a8.7 8.7 0 1 1 0-17.3 8.7 8.7 0 0 1 0 17.3" fill="#c2e1ffB9"/><path d="M190.3-371.6a8.7 8.7 0 1 1 0-17.4 8.7 8.7 0 0 1 0 17.4" fill="#c2e1ffB9"/><path d="M250.7-335.2a8.7 8.7 0 1 1 0-17.3 8.7 8.7 0 0 1 0 17.3" fill="#fffBA"/><path d="M-123.6-78.7a8.7 8.7 0 1 1 0-17.4 8.7 8.7 0 0 1 0 17.4" fill="#fffBA"/><path d="M-54.6-332a8.7 8.7 0 1 1 0-17.5 8.7 8.7 0 0 1 0 17.5" fill="#fffBA"/><path d="M98.7 82.3a8.7 8.7 0 1 1 0-17.5 8.7 8.7 0 0 1 0 17.5" fill="#fff500BB"/><path d="M46.4 76.3a8.8 8.8 0 1 1 0-17.6 8.8 8.8 0 0 1 0 17.6" fill="#005bbbBC"/><path d="M26.8 70.9a8.8 8.8 0 1 1 0-17.6 8.8 8.8 0 0 1 0 17.6" fill="#c2e1ffBD"/><path d="M17.5 67.7a8.8 8.8 0 1 1 0-17.7 8.8 8.8 0 0 1 0 17.7" fill="#fff500BD"/><path d="M91.2-389.7a8.9 8.9 0 1 1 0-17.8 8.9 8.9 0 0 1 0 17.8" fill="#fff500BE"/><path d="M291.2-14.9a8.9 8.9 0 1 1 0-17.8 8.9 8.9 0 0 1 0 17.8" fill="#005bbbBF"/><path d="M-112.8-51.2a9 9 0 1 1 0-17.9 9 9 0 0 1 0 17.9" fill="#fff500C0"/><path d="M51.4-384.3a9 9 0 1 1 0-18.1 9 9 0 0 1 0 18.1" fill="#c2e1ffC1"/><path d="M287.8-10.8a9 9 0 1 1 0-18.1 9 9 0 0 1 0 18.1" fill="#005bbbC1"/><path d="M327.3-215.6a9.1 9.1 0 1 1 0-18.2 9.1 9.1 0 0 1 0 18.2" fill="#005bbbC2"/><path d="M41-381.5a9.1 9.1 0 1 1 0-18.1 9.1 9.1 0 0 1 0 18.1" fill="#fffC2"/><path d="M57.2 76.6a9.3 9.3 0 1 1 0-18.6 9.3 9.3 0 0 1 0 18.6" fill="#c2e1ffC7"/><path d="M-131.9-124.9a9.3 9.3 0 1 1 0-18.6 9.3 9.3 0 0 1 0 18.6" fill="#c2e1ffC7"/><path d="M303.7-39.4a9.3 9.3 0 1 1 0-18.6 9.3 9.3 0 0 1 0 18.6" fill="#fff500C8"/><path d="M151.1 74.1a9.4 9.4 0 1 1 0-18.7 9.4 9.4 0 0 1 0 18.7" fill="#005bbbC8"/><path d="M-108-49.4a9.4 9.4 0 1 1 0-18.7 9.4 9.4 0 0 1 0 18.7" fill="#fff500C9"/><path d="M8.4 60a9.4 9.4 0 1 1 0-18.8 9.4 9.4 0 0 1 0 18.8" fill="#fffCA"/><path d="M328.9-119.8a9.5 9.5 0 1 1 0-18.9 9.5 9.5 0 0 1 0 18.9" fill="#005bbbCB"/><path d="M172.5-371.6a9.5 9.5 0 1 1 0-19.1 9.5 9.5 0 0 1 0 19.1" fill="#fffCC"/><path d="M318.3-81.3a9.5 9.5 0 1 1 0-19.1 9.5 9.5 0 0 1 0 19.1" fill="#005bbbCD"/><path d="M-119.7-213.8a9.6 9.6 0 1 1 0-19.2 9.6 9.6 0 0 1 0 19.2" fill="#c2e1ffCF"/><path d="M153.2-374.5a9.6 9.6 0 1 1 0-19.3 9.6 9.6 0 0 1 0 19.3" fill="#fffCF"/><path d="M-127.4-149.6a9.7 9.7 0 1 1 0-19.3 9.7 9.7 0 0 1 0 19.3" fill="#fffCF"/><path d="M310.7-234.8a9.7 9.7 0 1 1 0-19.5 9.7 9.7 0 0 1 0 19.5" fill="#fffD0"/><path d="M54.6 68.5a9.7 9.7 0 1 1 0-19.5 9.7 9.7 0 0 1 0 19.5" fill="#c2e1ffD1"/><path d="M233.8 28.8a9.7 9.7 0 1 1 0-19.4 9.7 9.7 0 0 1 0 19.4" fill="#005bbbD1"/><path d="M70.8 70.8a9.7 9.7 0 1 1 0-19.5 9.7 9.7 0 0 1 0 19.5" fill="#fffD1"/><path d="M129.2-374.2a9.8 9.8 0 1 1 0-19.6 9.8 9.8 0 0 1 0 19.6" fill="#c2e1ffD3"/><path d="M-58 5.1a9.8 9.8 0 1 1 0-19.7 9.8 9.8 0 0 1 0 19.7" fill="#c2e1ffD3"/><path d="M76.7-372.5a9.9 9.9 0 1 1 0-19.8 9.9 9.9 0 0 1 0 19.8" fill="#c2e1ffD4"/><path d="M319.8-173.2a9.9 9.9 0 1 1 0-19.8 9.9 9.9 0 0 1 0 19.8" fill="#fffD5"/><path d="M60.4-366.6a10 10 0 1 1 0-20 10 10 0 0 1 0 20" fill="#fffD7"/><path d="M11.4 44.8a10 10 0 1 1 0-20.1 10 10 0 0 1 0 20.1" fill="#c2e1ffD8"/><path d="M302.9-223.7a10.1 10.1 0 1 1 0-20.1 10.1 10.1 0 0 1 0 20.1" fill="#005bbbD8"/><path d="M15.4-348.9a10.1 10.1 0 1 1 0-20.2 10.1 10.1 0 0 1 0 20.2" fill="#005bbbD9"/><path d="M312.4-132.9a10.1 10.1 0 1 1 0-20.3 10.1 10.1 0 0 1 0 20.3" fill="#005bbbD9"/><path d="M110.1-363.7a10.2 10.2 0 1 1 0-20.3 10.2 10.2 0 0 1 0 20.3" fill="#fffDA"/><path d="M239.6-311.2a10.2 10.2 0 1 1 0-20.3 10.2 10.2 0 0 1 0 20.3" fill="#fff500DA"/><path d="M187-344.5a10.2 10.2 0 1 1 0-20.4 10.2 10.2 0 0 1 0 20.4" fill="#fffDB"/><path d="M-92.9-71.2a10.2 10.2 0 1 1 0-20.4 10.2 10.2 0 0 1 0 20.4" fill="#005bbbDC"/><path d="M213.1 23.6a10.2 10.2 0 1 1 0-20.5 10.2 10.2 0 0 1 0 20.5" fill="#fffDC"/><path d="M302.7-118.6a10.3 10.3 0 1 1 0-20.6 10.3 10.3 0 0 1 0 20.6" fill="#005bbbDE"/><path d="M5.2 27.2a10.4 10.4 0 1 1 0-20.7 10.4 10.4 0 0 1 0 20.7" fill="#fffDF"/><path d="M121.7-353.7a10.4 10.4 0 1 1 0-20.7 10.4 10.4 0 0 1 0 20.7" fill="#fffDF"/><path d="M183.9-336.1a10.4 10.4 0 1 1 0-20.7 10.4 10.4 0 0 1 0 20.7" fill="#fff500DF"/><path d="M-46.5-291a10.4 10.4 0 1 1 0-20.8 10.4 10.4 0 0 1 0 20.8" fill="#c2e1ffDF"/><path d="M31.9 37.2a10.4 10.4 0 1 1 0-20.9 10.4 10.4 0 0 1 0 20.9" fill="#fff500E0"/><path d="M280.5-69.4a10.5 10.5 0 1 1 0-20.9 10.5 10.5 0 0 1 0 20.9" fill="#c2e1ffE1"/><path d="M22.5 30.7a10.5 10.5 0 1 1 0-20.9 10.5 10.5 0 0 1 0 20.9" fill="#fff500E1"/><path d="M205 14a10.5 10.5 0 1 1 0-21 10.5 10.5 0 0 1 0 21" fill="#fff500E2"/><path d="M81.4-345a10.5 10.5 0 1 1 0-21.1 10.5 10.5 0 0 1 0 21.1" fill="#005bbbE3"/><path d="M264.8-51.2a10.6 10.6 0 1 1 0-21.2 10.6 10.6 0 0 1 0 21.2" fill="#fffE3"/><path d="M-87.5-111.9a10.6 10.6 0 1 1 0-21.2 10.6 10.6 0 0 1 0 21.2" fill="#c2e1ffE3"/><path d="M-28.6-11.8a10.6 10.6 0 1 1 0-21.2 10.6 10.6 0 0 1 0 21.2" fill="#005bbbE4"/><path d="M273.4-76.1a10.6 10.6 0 1 1 0-21.2 10.6 10.6 0 0 1 0 21.2" fill="#fffE4"/><path d="M30.8 24a10.6 10.6 0 1 1 0-21.2 10.6 10.6 0 0 1 0 21.2" fill="#005bbbE4"/><path d="M91.3-339.5a10.6 10.6 0 1 1 0-21.3 10.6 10.6 0 0 1 0 21.3" fill="#005bbbE5"/><path d="M248.3-41.5a10.7 10.7 0 1 1 0-21.4 10.7 10.7 0 0 1 0 21.4" fill="#fff500E6"/><path d="M179.1-318.3a10.7 10.7 0 1 1 0-21.4 10.7 10.7 0 0 1 0 21.4" fill="#c2e1ffE6"/><path d="M-69.8-220.5a10.7 10.7 0 1 1 0-21.5 10.7 10.7 0 0 1 0 21.5" fill="#fffE7"/><path d="M106.2-331.3a10.8 10.8 0 1 1 0-21.5 10.8 10.8 0 0 1 0 21.5" fill="#c2e1ffE8"/><path d="M22.5-307.2a10.9 10.9 0 1 1 0-21.7 10.9 10.9 0 0 1 0 21.7" fill="#fff500EA"/><path d="M140-317.5a10.9 10.9 0 1 1 0-21.8 10.9 10.9 0 0 1 0 21.8" fill="#fff500EA"/><path d="M-66.8-177.6a10.9 10.9 0 1 1 0-21.8 10.9 10.9 0 0 1 0 21.8" fill="#c2e1ffEB"/><path d="M259.6-183.8a11 11 0 1 1 0-22 11 11 0 0 1 0 22" fill="#fff500ED"/><path d="M-58.5-146a11 11 0 1 1 0-22.1 11 11 0 0 1 0 22.1" fill="#fff500EE"/><path d="M37.1-296.8a11.1 11.1 0 1 1 0-22.1 11.1 11.1 0 0 1 0 22.1" fill="#c2e1ffEE"/><path d="M252.7-112a11.1 11.1 0 1 1 0-22.1 11.1 11.1 0 0 1 0 22.1" fill="#fff500EE"/><path d="M-48.7-145.9a11.2 11.2 0 1 1 0-22.3 11.2 11.2 0 0 1 0 22.3" fill="#c2e1ffF0"/><path d="M-45-151a11.2 11.2 0 1 1 0-22.4 11.2 11.2 0 0 1 0 22.4" fill="#fffF1"/><path d="M227.2-90.5a11.2 11.2 0 1 1 0-22.5 11.2 11.2 0 0 1 0 22.5" fill="#c2e1ffF2"/><path d="M67.1-286.7a11.2 11.2 0 1 1 0-22.5 11.2 11.2 0 0 1 0 22.5" fill="#c2e1ffF2"/><path d="M5.6-54.4a11.3 11.3 0 1 1 0-22.5 11.3 11.3 0 0 1 0 22.5" fill="#c2e1ffF3"/><path d="M216.4-85.5a11.3 11.3 0 1 1 0-22.6 11.3 11.3 0 0 1 0 22.6" fill="#fffF3"/><path d="M207.9-79.5a11.3 11.3 0 1 1 0-22.6 11.3 11.3 0 0 1 0 22.6" fill="#005bbbF4"/><path d="M-7.4-219.7a11.3 11.3 0 1 1 0-22.7 11.3 11.3 0 0 1 0 22.7" fill="#fffF4"/><path d="M185.2-66.4a11.4 11.4 0 1 1 0-22.8 11.4 11.4 0 0 1 0 22.8" fill="#005bbbF5"/><path d="M-18.5-143.2a11.4 11.4 0 1 1 0-22.8 11.4 11.4 0 0 1 0 22.8" fill="#fffF6"/><path d="M32.3-53.9a11.4 11.4 0 1 1 0-22.8 11.4 11.4 0 0 1 0 22.8" fill="#005bbbF6"/><path d="M59.9-257.2a11.4 11.4 0 1 1 0-22.9 11.4 11.4 0 0 1 0 22.9" fill="#c2e1ffF7"/><path d="M210.9-132.3a11.5 11.5 0 1 1 0-22.9 11.5 11.5 0 0 1 0 22.9" fill="#fffF7"/><path d="M18.3-226.6a11.5 11.5 0 1 1 0-22.9 11.5 11.5 0 0 1 0 22.9" fill="#fff500F7"/><path d="M0.7-115.9a11.5 11.5 0 1 1 0-23 11.5 11.5 0 0 1 0 23" fill="#fff500F8"/><path d="M202.6-151a11.5 11.5 0 1 1 0-23 11.5 11.5 0 0 1 0 23" fill="#fff500F8"/><path d="M191-104.9a11.5 11.5 0 1 1 0-23.1 11.5 11.5 0 0 1 0 23.1" fill="#fffF8"/><path d="M191.6-174.9a11.6 11.6 0 1 1 0-23.1 11.6 11.6 0 0 1 0 23.1" fill="#c2e1ffF9"/><path d="M7.2-147.6a11.6 11.6 0 1 1 0-23.1 11.6 11.6 0 0 1 0 23.1" fill="#c2e1ffF9"/><path d="M102.2-60.6a11.6 11.6 0 1 1 0-23.2 11.6 11.6 0 0 1 0 23.2" fill="#fff500FA"/><path d="M40.9-198.8a11.7 11.7 0 1 1 0-23.4 11.7 11.7 0 0 1 0 23.4" fill="#005bbbFB"/><path d="M57-195.1a11.7 11.7 0 1 1 0-23.4 11.7 11.7 0 0 1 0 23.4" fill="#fffFC"/><path d="M147.8-133.5a11.7 11.7 0 1 1 0-23.5 11.7 11.7 0 0 1 0 23.5" fill="#005bbbFD"/><path d="M88.7-157.5a11.8 11.8 0 1 1 0-23.6 11.8 11.8 0 0 1 0 23.6" fill="#c2e1ffFE"/></g></svg>