<svg width="1200" height="675" viewBox="-500 -500 1200 675" xmlns="http://www.w3.org/2000/svg"><path d="M-500-500h1200v675h-1200z" fill="#000"/><style>.sparkles path{stroke-linecap:round; stroke-width:1}</style><g class="sparkles"><path d="M100-162.5l-7.3-25.6" stroke="#fff50032"/><path d="M100-162.5l29.1-16.3" stroke="#c2e1ff32"/><path d="M100-162.5l-17.7 47.2" stroke="#fff50033"/><path d="M100-162.5l18.8-48.6" stroke="#fff50033"/><path d="M100-162.5l-51-85" stroke="#c2e1ff36"/><path d="M100-162.5l77.1-64" stroke="#fff50036"/><path d="M100-162.5l13.8 100" stroke="#c2e1ff36"/><path d="M100-162.5l-109 17.8" stroke="#fff50037"/><path d="M100-162.5l7.2-118.8" stroke="#fff50038"/><path d="M100-162.5l-5.4 131.3" stroke="#fff3A"/><path d="M100-162.5l132.7 37.5" stroke="#c2e1ff3B"/><path d="M100-162.5l-30.8 138.8" stroke="#005bbb3C"/><path d="M100-162.5l131-62.3" stroke="#c2e1ff3C"/><path d="M100-162.5l62-133.9" stroke="#fff3C"/><path d="M100-162.5l-143.2 37.1" stroke="#fff5003D"/><path d="M100-162.5l-117.4 90.9" stroke="#c2e1ff3D"/><path d="M100-162.5l-109.9-105.6" stroke="#005bbb3D"/><path d="M100-162.5l-81.8-136.4" stroke="#fff5003F"/><path d="M100-162.5l158.2 18.8" stroke="#c2e1ff3F"/><path d="M100-162.5l-154.2 41.6" stroke="#fff5003F"/><path d="M100-162.5l161.6-11.2" stroke="#fff5003F"/><path d="M100-162.5l-89.5-136.6" stroke="#fff3F"/><path d="M100-162.5l-141.9 82.5" stroke="#c2e1ff40"/><path d="M100-162.5l-146.1-74.8" stroke="#c2e1ff40"/><path d="M100-162.5l145.7 79.6" stroke="#fff50040"/><path d="M100-162.5l20 167.7" stroke="#005bbb41"/><path d="M100-162.5l146.5 85.8" stroke="#fff41"/><path d="M100-162.5l46.2-172.9" stroke="#c2e1ff43"/><path d="M100-162.5l143.9 106.7" stroke="#c2e1ff43"/><path d="M100-162.5l-36.5 178.8" stroke="#005bbb44"/><path d="M100-162.5l1.3-185.5" stroke="#005bbb45"/><path d="M100-162.5l-89.8-163.6" stroke="#005bbb45"/><path d="M100-162.5l-185.5 29" stroke="#005bbb45"/><path d="M100-162.5l-159.5 109.2" stroke="#c2e1ff47"/><path d="M100-162.5l119.4-157.9" stroke="#c2e1ff48"/><path d="M100-162.5l-190.5-54.2" stroke="#005bbb48"/><path d="M100-162.5l-201.3-15.9" stroke="#fff4A"/><path d="M100-162.5l-134.3 151.6" stroke="#fff5004A"/><path d="M100-162.5l190.7 72.6" stroke="#005bbb4A"/><path d="M100-162.5l41.8 200.5" stroke="#005bbb4B"/><path d="M100-162.5l-185.7 89.3" stroke="#005bbb4B"/><path d="M100-162.5l205.5-21.4" stroke="#005bbb4B"/><path d="M100-162.5l25.6-206.2" stroke="#fff5004C"/><path d="M100-162.5l86.4 189.3" stroke="#005bbb4C"/><path d="M100-162.5l-197.9 64.5" stroke="#c2e1ff4C"/><path d="M100-162.5l-14.1-209.8" stroke="#fff4D"/><path d="M100-162.5l-194.1 83.2" stroke="#fff5004D"/><path d="M100-162.5l146.6 156.1" stroke="#fff5004E"/><path d="M100-162.5l211 42.9" stroke="#fff5004F"/><path d="M100-162.5l193.7 98.2" stroke="#fff50"/><path d="M100-162.5l-110.8 188" stroke="#005bbb50"/><path d="M100-162.5l213.2-54.5" stroke="#fff51"/><path d="M100-162.5l-139.7-171.4" stroke="#005bbb52"/><path d="M100-162.5l217.1 44.1" stroke="#fff50052"/><path d="M100-162.5l154.5-158.8" stroke="#fff52"/><path d="M100-162.5l198.6-100.7" stroke="#c2e1ff53"/><path d="M100-162.5l-156.5-161.1" stroke="#c2e1ff54"/><path d="M100-162.5l-116.4 192.8" stroke="#fff50054"/><path d="M100-162.5l-200 103.5" stroke="#c2e1ff54"/><path d="M100-162.5l226-1.6" stroke="#005bbb55"/><path d="M100-162.5l39.2 222.6" stroke="#005bbb55"/><path d="M100-162.5l-192.8-118.7" stroke="#005bbb55"/><path d="M100-162.5l6.2 227.1" stroke="#005bbb56"/><path d="M100-162.5l-229.4-4.5" stroke="#c2e1ff58"/><path d="M100-162.5l147.5-175.8" stroke="#fff58"/><path d="M100-162.5l116.4-199.2" stroke="#005bbb59"/><path d="M100-162.5l-120.6 196.7" stroke="#005bbb59"/><path d="M100-162.5l-113.6 201.7" stroke="#c2e1ff59"/><path d="M100-162.5l-228.5-40.3" stroke="#c2e1ff5A"/><path d="M100-162.5l-136.7-188.8" stroke="#fff5B"/><path d="M100-162.5l-92.3 214.6" stroke="#fff5005C"/><path d="M100-162.5l-49.6 228.7" stroke="#005bbb5D"/><path d="M100-162.5l-189.9-137.2" stroke="#fff5005D"/><path d="M100-162.5l107.1-208.9" stroke="#fff5E"/><path d="M100-162.5l-99.6 212.8" stroke="#c2e1ff5E"/><path d="M100-162.5l-85.7 218.8" stroke="#c2e1ff5E"/><path d="M100-162.5l-220.5-81.6" stroke="#c2e1ff5F"/><path d="M100-162.5l115.8-204.7" stroke="#005bbb5F"/><path d="M100-162.5l-63.2 227.2" stroke="#c2e1ff60"/><path d="M100-162.5l233.2-37" stroke="#005bbb62"/><path d="M100-162.5l168.7 165.2" stroke="#fff50062"/><path d="M100-162.5l-219.4-87.7" stroke="#fff63"/><path d="M100-162.5l71.1-225.3" stroke="#c2e1ff64"/><path d="M100-162.5l222.6-79" stroke="#fff64"/><path d="M100-162.5l212.3 103.4" stroke="#fff65"/><path d="M100-162.5l21.6-235.1" stroke="#c2e1ff65"/><path d="M100-162.5l-170.3-163.3" stroke="#c2e1ff66"/><path d="M100-162.5l163.4 170.1" stroke="#c2e1ff66"/><path d="M100-162.5l99.4 213.6" stroke="#005bbb67"/><path d="M100-162.5l-9.1-235.3" stroke="#fff50068"/><path d="M100-162.5l109.1-208.4" stroke="#fff50068"/><path d="M100-162.5l29.4-233.1" stroke="#fff69"/><path d="M100-162.5l-230.5 44.9" stroke="#005bbb69"/><path d="M100-162.5l-144.9-184.6" stroke="#fff69"/><path d="M100-162.5l-89.6-216.7" stroke="#fff5006A"/><path d="M100-162.5l-92.1-215.1" stroke="#c2e1ff6A"/><path d="M100-162.5l-98.2-212.2" stroke="#fff6B"/><path d="M100-162.5l-98.3-211.7" stroke="#fff6B"/><path d="M100-162.5l-108.5-204.7" stroke="#fff6D"/><path d="M100-162.5l-203.5-106.8" stroke="#fff6F"/><path d="M100-162.5l113 199.9" stroke="#005bbb6F"/><path d="M100-162.5l131.6-187.1" stroke="#005bbb70"/><path d="M100-162.5l-38-223.2" stroke="#005bbb72"/><path d="M100-162.5l-4.4-226.1" stroke="#fff50072"/><path d="M100-162.5l-222.2-35.8" stroke="#fff73"/><path d="M100-162.5l217.5 57.6" stroke="#fff73"/><path d="M100-162.5l-84.8 207.3" stroke="#fff50073"/><path d="M100-162.5l-142-171.9" stroke="#fff74"/><path d="M100-162.5l-126.2 183.7" stroke="#005bbb74"/><path d="M100-162.5l-122.9-184.4" stroke="#c2e1ff75"/><path d="M100-162.5l-35.9-218.6" stroke="#c2e1ff75"/><path d="M100-162.5l-42.8-216.9" stroke="#fff75"/><path d="M100-162.5l208.2-74.4" stroke="#fff75"/><path d="M100-162.5l-195.6-102.5" stroke="#005bbb75"/><path d="M100-162.5l-144.6-163.6" stroke="#fff77"/><path d="M100-162.5l-154.9 153.5" stroke="#c2e1ff77"/><path d="M100-162.5l208.4-63.8" stroke="#fff50077"/><path d="M100-162.5l181.4-119.7" stroke="#fff77"/><path d="M100-162.5l-129.6-174.4" stroke="#fff77"/><path d="M100-162.5l21.3 216" stroke="#005bbb77"/><path d="M100-162.5l-58.3 207.2" stroke="#005bbb78"/><path d="M100-162.5l-58.2-207" stroke="#fff78"/><path d="M100-162.5l186.8 104.3" stroke="#c2e1ff79"/><path d="M100-162.5l-148.7 153.2" stroke="#005bbb79"/><path d="M100-162.5l40.8-208.8" stroke="#fff50079"/><path d="M100-162.5l31.6-209.8" stroke="#005bbb7A"/><path d="M100-162.5l-178.6 110.5" stroke="#005bbb7A"/><path d="M100-162.5l-44.1-204.9" stroke="#fff5007B"/><path d="M100-162.5l36.9 205.6" stroke="#c2e1ff7B"/><path d="M100-162.5l206.1-29.4" stroke="#fff5007B"/><path d="M100-162.5l55.2 199.7" stroke="#c2e1ff7C"/><path d="M100-162.5l192-77" stroke="#fff7C"/><path d="M100-162.5l-106.6-175.5" stroke="#005bbb7C"/><path d="M100-162.5l72.3 191.6" stroke="#fff7C"/><path d="M100-162.5l-65.1-193.7" stroke="#fff7D"/><path d="M100-162.5l-8.9 202.9" stroke="#c2e1ff7D"/><path d="M100-162.5l201.2 0" stroke="#005bbb7E"/><path d="M100-162.5l173.4 95" stroke="#fff5007F"/><path d="M100-162.5l-182.2 70.6" stroke="#fff80"/><path d="M100-162.5l-17.5-193.6" stroke="#fff80"/><path d="M100-162.5l84.4-175.1" stroke="#fff50080"/><path d="M100-162.5l-108.9 159.9" stroke="#c2e1ff80"/><path d="M100-162.5l-93.1-168.2" stroke="#fff50081"/><path d="M100-162.5l79-175.2" stroke="#fff81"/><path d="M100-162.5l115.4-151.6" stroke="#fff50081"/><path d="M100-162.5l-181.7-42" stroke="#c2e1ff82"/><path d="M100-162.5l-184.4-1.5" stroke="#fff83"/><path d="M100-162.5l148.4 108.9" stroke="#c2e1ff83"/><path d="M100-162.5l-176.6-42.8" stroke="#fff83"/><path d="M100-162.5l132.4 120" stroke="#005bbb84"/><path d="M100-162.5l103.9 144.1" stroke="#fff84"/><path d="M100-162.5l-19-169.8" stroke="#005bbb86"/><path d="M100-162.5l11.9-170.1" stroke="#fff50086"/><path d="M100-162.5l115.5 118.7" stroke="#fff87"/><path d="M100-162.5l139.5-84.3" stroke="#fff50088"/><path d="M100-162.5l-26.7 157.5" stroke="#c2e1ff88"/><path d="M100-162.5l-64.6 139.4" stroke="#fff89"/><path d="M100-162.5l151.3-20.3" stroke="#005bbb8A"/><path d="M100-162.5l-138 64.9" stroke="#fff8A"/><path d="M100-162.5l-40.7 134.8" stroke="#c2e1ff8C"/><path d="M100-162.5l96.3 100.8" stroke="#c2e1ff8C"/><path d="M100-162.5l78.9-114.8" stroke="#005bbb8C"/><path d="M100-162.5l-133 22.3" stroke="#c2e1ff8D"/><path d="M100-162.5l-113.8 68.8" stroke="#005bbb8D"/><path d="M100-162.5l-93.3 85.2" stroke="#fff8E"/><path d="M100-162.5l67.7-96.6" stroke="#c2e1ff8F"/><path d="M100-162.5l-99.4-50.9" stroke="#fff90"/><path d="M100-162.5l-45.1 90.6" stroke="#c2e1ff91"/><path d="M100-162.5l-0.3 99.8" stroke="#fff91"/><path d="M100-162.5l-16.2 97.3" stroke="#c2e1ff91"/><path d="M100-162.5l-82.4 50.4" stroke="#c2e1ff91"/><path d="M100-162.5l54.3-62.7" stroke="#fff92"/><path d="M100-162.5l71.6-11.2" stroke="#fff93"/><path d="M100-162.5l-15.4 67.6" stroke="#fff50093"/><path d="M100-162.5l-63.9 17.3" stroke="#005bbb93"/><path d="M100-162.5l-29.1-57.1" stroke="#005bbb94"/><path d="M100-162.5l51.8 30.4" stroke="#c2e1ff94"/><path d="M100-162.5l-44.8-15" stroke="#fff94"/><path d="M100-162.5l1.2 35.3" stroke="#c2e1ff95"/><path d="M100-162.5l-16.5 31" stroke="#fff95"/><path d="M100-162.5l17.7 26.1" stroke="#005bbb95"/></g><g class="sparcs"><path d="M92.7-182.2a5.9 5.9 0 1 1 0-11.8 5.9 5.9 0 0 1 0 11.8" fill="#fff5007D"/><path d="M129.1-172.8a5.9 5.9 0 1 1 0-11.9 5.9 5.9 0 0 1 0 11.9" fill="#fff5007D"/><path d="M82.3-109.4a6 6 0 1 1 0-11.9 6 6 0 0 1 0 11.9" fill="#fff7E"/><path d="M118.8-205.2a6 6 0 1 1 0-11.9 6 6 0 0 1 0 11.9" fill="#fff5007E"/><path d="M49-241.3a6.2 6.2 0 1 1 0-12.4 6.2 6.2 0 0 1 0 12.4" fill="#005bbb82"/><path d="M177.1-220.3a6.2 6.2 0 1 1 0-12.3 6.2 6.2 0 0 1 0 12.3" fill="#fff50083"/><path d="M113.8-56.3a6.2 6.2 0 1 1 0-12.4 6.2 6.2 0 0 1 0 12.4" fill="#fff83"/><path d="M-9-138.4a6.2 6.2 0 1 1 0-12.5 6.2 6.2 0 0 1 0 12.5" fill="#fff84"/><path d="M107.2-275a6.3 6.3 0 1 1 0-12.6 6.3 6.3 0 0 1 0 12.6" fill="#c2e1ff85"/><path d="M94.6-24.8a6.4 6.4 0 1 1 0-12.8 6.4 6.4 0 0 1 0 12.8" fill="#005bbb87"/><path d="M232.7-118.5a6.5 6.5 0 1 1 0-12.9 6.5 6.5 0 0 1 0 12.9" fill="#fff50089"/><path d="M69.2-17.2a6.5 6.5 0 1 1 0-13 6.5 6.5 0 0 1 0 13" fill="#fff5008A"/><path d="M231-218.2a6.5 6.5 0 1 1 0-13.1 6.5 6.5 0 0 1 0 13.1" fill="#005bbb8A"/><path d="M162-289.8a6.6 6.6 0 1 1 0-13.1 6.6 6.6 0 0 1 0 13.1" fill="#005bbb8B"/><path d="M-43.2-118.9a6.6 6.6 0 1 1 0-13.1 6.6 6.6 0 0 1 0 13.1" fill="#fff5008B"/><path d="M-17.4-65a6.6 6.6 0 1 1 0-13.1 6.6 6.6 0 0 1 0 13.1" fill="#fff5008B"/><path d="M-9.9-261.5a6.6 6.6 0 1 1 0-13.2 6.6 6.6 0 0 1 0 13.2" fill="#fff5008C"/><path d="M18.2-292.2a6.7 6.7 0 1 1 0-13.4 6.7 6.7 0 0 1 0 13.4" fill="#005bbb8D"/><path d="M258.2-137a6.7 6.7 0 1 1 0-13.4 6.7 6.7 0 0 1 0 13.4" fill="#005bbb8E"/><path d="M-54.2-114.2a6.7 6.7 0 1 1 0-13.3 6.7 6.7 0 0 1 0 13.3" fill="#fff8E"/><path d="M261.6-166.9a6.7 6.7 0 1 1 0-13.5 6.7 6.7 0 0 1 0 13.5" fill="#c2e1ff8E"/><path d="M10.5-292.4a6.7 6.7 0 1 1 0-13.5 6.7 6.7 0 0 1 0 13.5" fill="#fff8F"/><path d="M-41.9-73.3a6.7 6.7 0 1 1 0-13.4 6.7 6.7 0 0 1 0 13.4" fill="#fff8F"/><path d="M-46.1-230.5a6.7 6.7 0 1 1 0-13.5 6.7 6.7 0 0 1 0 13.5" fill="#c2e1ff8F"/><path d="M245.7-76.1a6.8 6.8 0 1 1 0-13.6 6.8 6.8 0 0 1 0 13.6" fill="#fff8F"/><path d="M120 12a6.8 6.8 0 1 1 0-13.6 6.8 6.8 0 0 1 0 13.6" fill="#005bbb90"/><path d="M246.5-69.9a6.8 6.8 0 1 1 0-13.6 6.8 6.8 0 0 1 0 13.6" fill="#fff50090"/><path d="M146.2-328.5a6.9 6.9 0 1 1 0-13.8 6.9 6.9 0 0 1 0 13.8" fill="#005bbb93"/><path d="M243.9-48.9a6.9 6.9 0 1 1 0-13.9 6.9 6.9 0 0 1 0 13.9" fill="#005bbb93"/><path d="M63.5 23.3a7 7 0 1 1 0-14 7 7 0 0 1 0 14" fill="#c2e1ff94"/><path d="M101.3-340.9a7 7 0 1 1 0-14.1 7 7 0 0 1 0 14.1" fill="#c2e1ff95"/><path d="M10.2-319a7 7 0 1 1 0-14.1 7 7 0 0 1 0 14.1" fill="#c2e1ff96"/><path d="M-85.5-126.4a7.1 7.1 0 1 1 0-14.2 7.1 7.1 0 0 1 0 14.2" fill="#c2e1ff96"/><path d="M-59.5-46.2a7.2 7.2 0 1 1 0-14.3 7.2 7.2 0 0 1 0 14.3" fill="#fff50098"/><path d="M219.4-313.2a7.2 7.2 0 1 1 0-14.5 7.2 7.2 0 0 1 0 14.5" fill="#fff9A"/><path d="M-90.5-209.5a7.2 7.2 0 1 1 0-14.5 7.2 7.2 0 0 1 0 14.5" fill="#c2e1ff9A"/><path d="M-101.3-171.1a7.3 7.3 0 1 1 0-14.6 7.3 7.3 0 0 1 0 14.6" fill="#fff5009C"/><path d="M-34.3-3.6a7.3 7.3 0 1 1 0-14.7 7.3 7.3 0 0 1 0 14.7" fill="#c2e1ff9C"/><path d="M290.7-82.6a7.4 7.4 0 1 1 0-14.7 7.4 7.4 0 0 1 0 14.7" fill="#005bbb9D"/><path d="M141.8 45.4a7.4 7.4 0 1 1 0-14.8 7.4 7.4 0 0 1 0 14.8" fill="#c2e1ff9D"/><path d="M-85.7-65.7a7.4 7.4 0 1 1 0-14.9 7.4 7.4 0 0 1 0 14.9" fill="#c2e1ff9E"/><path d="M305.5-176.4a7.4 7.4 0 1 1 0-14.9 7.4 7.4 0 0 1 0 14.9" fill="#fff5009E"/><path d="M125.6-361.3a7.5 7.5 0 1 1 0-14.9 7.5 7.5 0 0 1 0 14.9" fill="#fff5009F"/><path d="M186.4 34.3a7.5 7.5 0 1 1 0-14.9 7.5 7.5 0 0 1 0 14.9" fill="#fff5009F"/><path d="M-97.9-90.6a7.5 7.5 0 1 1 0-14.9 7.5 7.5 0 0 1 0 14.9" fill="#c2e1ff9F"/><path d="M85.9-364.8a7.5 7.5 0 1 1 0-15.1 7.5 7.5 0 0 1 0 15.1" fill="#c2e1ffA0"/><path d="M-94.1-71.7a7.5 7.5 0 1 1 0-15.1 7.5 7.5 0 0 1 0 15.1" fill="#fff500A0"/><path d="M246.6 1.2a7.6 7.6 0 1 1 0-15.3 7.6 7.6 0 0 1 0 15.3" fill="#fff500A2"/><path d="M311-112a7.6 7.6 0 1 1 0-15.2 7.6 7.6 0 0 1 0 15.2" fill="#fff500A3"/><path d="M293.7-56.6a7.7 7.7 0 1 1 0-15.4 7.7 7.7 0 0 1 0 15.4" fill="#005bbbA4"/><path d="M-10.8 33.2a7.7 7.7 0 1 1 0-15.4 7.7 7.7 0 0 1 0 15.4" fill="#fff500A5"/><path d="M313.2-209.2a7.8 7.8 0 1 1 0-15.6 7.8 7.8 0 0 1 0 15.6" fill="#fff500A6"/><path d="M-39.7-326.1a7.8 7.8 0 1 1 0-15.6 7.8 7.8 0 0 1 0 15.6" fill="#c2e1ffA7"/><path d="M317.1-110.5a7.8 7.8 0 1 1 0-15.7 7.8 7.8 0 0 1 0 15.7" fill="#fffA7"/><path d="M254.5-313.5a7.8 7.8 0 1 1 0-15.7 7.8 7.8 0 0 1 0 15.7" fill="#005bbbA7"/><path d="M298.6-255.3a7.9 7.9 0 1 1 0-15.8 7.9 7.9 0 0 1 0 15.8" fill="#c2e1ffA8"/><path d="M-56.5-315.6a7.9 7.9 0 1 1 0-15.9 7.9 7.9 0 0 1 0 15.9" fill="#fffA9"/><path d="M-16.4 38.2a8 8 0 1 1 0-15.9 8 8 0 0 1 0 15.9" fill="#fffAA"/><path d="M-100-51.1a8 8 0 1 1 0-15.9 8 8 0 0 1 0 15.9" fill="#c2e1ffAA"/><path d="M326-156.1a8 8 0 1 1 0-16 8 8 0 0 1 0 16" fill="#fffAB"/><path d="M139.2 68.1a8 8 0 1 1 0-16 8 8 0 0 1 0 16" fill="#005bbbAB"/><path d="M-92.8-273.2a8 8 0 1 1 0-16.1 8 8 0 0 1 0 16.1" fill="#005bbbAB"/><path d="M106.2 72.7a8 8 0 1 1 0-16.1 8 8 0 0 1 0 16.1" fill="#005bbbAC"/><path d="M-129.4-158.9a8.2 8.2 0 1 1 0-16.3 8.2 8.2 0 0 1 0 16.3" fill="#c2e1ffAE"/><path d="M247.5-330.2a8.2 8.2 0 1 1 0-16.3 8.2 8.2 0 0 1 0 16.3" fill="#005bbbAE"/><path d="M216.4-353.5a8.2 8.2 0 1 1 0-16.4 8.2 8.2 0 0 1 0 16.4" fill="#005bbbB0"/><path d="M-20.6 42.4a8.2 8.2 0 1 1 0-16.4 8.2 8.2 0 0 1 0 16.4" fill="#fffB0"/><path d="M-13.6 47.4a8.3 8.3 0 1 1 0-16.5 8.3 8.3 0 0 1 0 16.5" fill="#fff500B0"/><path d="M-128.5-194.5a8.3 8.3 0 1 1 0-16.6 8.3 8.3 0 0 1 0 16.6" fill="#fff500B1"/><path d="M-36.7-342.9a8.4 8.4 0 1 1 0-16.8 8.4 8.4 0 0 1 0 16.8" fill="#fff500B3"/><path d="M7.7 60.5a8.4 8.4 0 1 1 0-16.8 8.4 8.4 0 0 1 0 16.8" fill="#fff500B4"/><path d="M50.4 74.7a8.5 8.5 0 1 1 0-17 8.5 8.5 0 0 1 0 17" fill="#c2e1ffB5"/><path d="M-89.9-291.2a8.5 8.5 0 1 1 0-16.9 8.5 8.5 0 0 1 0 16.9" fill="#c2e1ffB5"/><path d="M207.1-362.8a8.5 8.5 0 1 1 0-17.1 8.5 8.5 0 0 1 0 17.1" fill="#fffB6"/><path d="M0.4 58.8a8.6 8.6 0 1 1 0-17.1 8.6 8.6 0 0 1 0 17.1" fill="#005bbbB7"/><path d="M14.3 64.9a8.6 8.6 0 1 1 0-17.2 8.6 8.6 0 0 1 0 17.2" fill="#005bbbB7"/><path d="M-120.5-235.5a8.6 8.6 0 1 1 0-17.1 8.6 8.6 0 0 1 0 17.1" fill="#fff500B7"/><path d="M215.8-358.7a8.6 8.6 0 1 1 0-17.1 8.6 8.6 0 0 1 0 17.1" fill="#005bbbB7"/><path d="M36.8 73.4a8.7 8.7 0 1 1 0-17.4 8.7 8.7 0 0 1 0 17.4" fill="#fff500B9"/><path d="M333.2-190.8a8.8 8.8 0 1 1 0-17.5 8.8 8.8 0 0 1 0 17.5" fill="#fffBB"/><path d="M268.7 11.5a8.8 8.8 0 1 1 0-17.6 8.8 8.8 0 0 1 0 17.6" fill="#005bbbBC"/><path d="M-119.4-241.3a8.8 8.8 0 1 1 0-17.7 8.8 8.8 0 0 1 0 17.7" fill="#c2e1ffBD"/><path d="M171.1-378.9a8.9 8.9 0 1 1 0-17.8 8.9 8.9 0 0 1 0 17.8" fill="#fffBE"/><path d="M322.6-232.6a8.9 8.9 0 1 1 0-17.8 8.9 8.9 0 0 1 0 17.8" fill="#005bbbBF"/><path d="M312.3-50.1a9 9 0 1 1 0-17.9 9 9 0 0 1 0 17.9" fill="#fff500C0"/><path d="M121.6-388.6a9 9 0 1 1 0-18 9 9 0 0 1 0 18" fill="#fffC0"/><path d="M-70.3-316.7a9 9 0 1 1 0-18.1 9 9 0 0 1 0 18.1" fill="#005bbbC1"/><path d="M263.4 16.6a9 9 0 1 1 0-18 9 9 0 0 1 0 18" fill="#fff500C1"/><path d="M199.4 60.2a9.1 9.1 0 1 1 0-18.1 9.1 9.1 0 0 1 0 18.1" fill="#c2e1ffC2"/><path d="M90.9-388.7a9.1 9.1 0 1 1 0-18.2 9.1 9.1 0 0 1 0 18.2" fill="#fffC3"/><path d="M209.1-361.7a9.1 9.1 0 1 1 0-18.3 9.1 9.1 0 0 1 0 18.3" fill="#fffC4"/><path d="M129.4-386.5a9.2 9.2 0 1 1 0-18.3 9.2 9.2 0 0 1 0 18.3" fill="#c2e1ffC4"/><path d="M-130.5-108.4a9.2 9.2 0 1 1 0-18.4 9.2 9.2 0 0 1 0 18.4" fill="#fffC5"/><path d="M-44.9-337.9a9.2 9.2 0 1 1 0-18.4 9.2 9.2 0 0 1 0 18.4" fill="#fffC5"/><path d="M10.4-370a9.2 9.2 0 1 1 0-18.4 9.2 9.2 0 0 1 0 18.4" fill="#fff500C5"/><path d="M7.9-368.3a9.3 9.3 0 1 1 0-18.6 9.3 9.3 0 0 1 0 18.6" fill="#fffC7"/><path d="M1.8-365.4a9.3 9.3 0 1 1 0-18.6 9.3 9.3 0 0 1 0 18.6" fill="#005bbbC7"/><path d="M1.7-364.9a9.3 9.3 0 1 1 0-18.6 9.3 9.3 0 0 1 0 18.6" fill="#005bbbC8"/><path d="M-8.5-357.7a9.4 9.4 0 1 1 0-18.9 9.4 9.4 0 0 1 0 18.9" fill="#fff500CA"/><path d="M-103.5-259.7a9.5 9.5 0 1 1 0-19.1 9.5 9.5 0 0 1 0 19.1" fill="#005bbbCD"/><path d="M213 47a9.6 9.6 0 1 1 0-19.1 9.6 9.6 0 0 1 0 19.1" fill="#005bbbCD"/><path d="M231.6-340a9.6 9.6 0 1 1 0-19.2 9.6 9.6 0 0 1 0 19.2" fill="#c2e1ffCE"/><path d="M62-376a9.7 9.7 0 1 1 0-19.4 9.7 9.7 0 0 1 0 19.4" fill="#fffD0"/><path d="M95.6-378.9a9.7 9.7 0 1 1 0-19.4 9.7 9.7 0 0 1 0 19.4" fill="#fffD0"/><path d="M-122.2-188.5a9.8 9.8 0 1 1 0-19.5 9.8 9.8 0 0 1 0 19.5" fill="#005bbbD1"/><path d="M317.5-95.1a9.8 9.8 0 1 1 0-19.6 9.8 9.8 0 0 1 0 19.6" fill="#005bbbD1"/><path d="M15.2 54.6a9.8 9.8 0 1 1 0-19.6 9.8 9.8 0 0 1 0 19.6" fill="#c2e1ffD2"/><path d="M-42-324.6a9.8 9.8 0 1 1 0-19.6 9.8 9.8 0 0 1 0 19.6" fill="#c2e1ffD3"/><path d="M-26.2 31.1a9.8 9.8 0 1 1 0-19.7 9.8 9.8 0 0 1 0 19.7" fill="#fff500D3"/><path d="M-22.9-337.1a9.9 9.9 0 1 1 0-19.7 9.9 9.9 0 0 1 0 19.7" fill="#c2e1ffD4"/><path d="M64.1-371.2a9.9 9.9 0 1 1 0-19.7 9.9 9.9 0 0 1 0 19.7" fill="#fffD4"/><path d="M57.2-369.5a9.9 9.9 0 1 1 0-19.8 9.9 9.9 0 0 1 0 19.8" fill="#005bbbD4"/><path d="M308.2-227a9.9 9.9 0 1 1 0-19.8 9.9 9.9 0 0 1 0 19.8" fill="#005bbbD4"/><path d="M-95.6-255.1a9.9 9.9 0 1 1 0-19.8 9.9 9.9 0 0 1 0 19.8" fill="#c2e1ffD5"/><path d="M-44.6-316.1a10 10 0 1 1 0-20 10 10 0 0 1 0 20" fill="#fffD6"/><path d="M-54.9 1a10 10 0 1 1 0-20 10 10 0 0 1 0 20" fill="#fff500D6"/><path d="M308.4-216.3a10 10 0 1 1 0-20 10 10 0 0 1 0 20" fill="#fff500D7"/><path d="M281.4-272.2a10 10 0 1 1 0-20 10 10 0 0 1 0 20" fill="#fff500D7"/><path d="M-29.6-326.9a10 10 0 1 1 0-20 10 10 0 0 1 0 20" fill="#c2e1ffD7"/><path d="M121.3 63.5a10 10 0 1 1 0-20 10 10 0 0 1 0 20" fill="#005bbbD7"/><path d="M41.7 54.8a10.1 10.1 0 1 1 0-20.1 10.1 10.1 0 0 1 0 20.1" fill="#fff500D8"/><path d="M41.8-359.5a10.1 10.1 0 1 1 0-20.1 10.1 10.1 0 0 1 0 20.1" fill="#c2e1ffD8"/><path d="M286.8-48a10.1 10.1 0 1 1 0-20.3 10.1 10.1 0 0 1 0 20.3" fill="#c2e1ffD9"/><path d="M-48.7 0.8a10.1 10.1 0 1 1 0-20.2 10.1 10.1 0 0 1 0 20.2" fill="#c2e1ffD9"/><path d="M140.8-361.1a10.1 10.1 0 1 1 0-20.3 10.1 10.1 0 0 1 0 20.3" fill="#005bbbDA"/><path d="M131.6-362.1a10.2 10.2 0 1 1 0-20.3 10.2 10.2 0 0 1 0 20.3" fill="#c2e1ffDA"/><path d="M-78.6-41.8a10.2 10.2 0 1 1 0-20.4 10.2 10.2 0 0 1 0 20.4" fill="#fffDB"/><path d="M55.9-357.2a10.2 10.2 0 1 1 0-20.5 10.2 10.2 0 0 1 0 20.5" fill="#c2e1ffDB"/><path d="M136.9 53.3a10.2 10.2 0 1 1 0-20.5 10.2 10.2 0 0 1 0 20.5" fill="#c2e1ffDC"/><path d="M306.1-181.7a10.3 10.3 0 1 1 0-20.5 10.3 10.3 0 0 1 0 20.5" fill="#fff500DC"/><path d="M155.2 47.5a10.3 10.3 0 1 1 0-20.6 10.3 10.3 0 0 1 0 20.6" fill="#005bbbDD"/><path d="M292-229.2a10.3 10.3 0 1 1 0-20.6 10.3 10.3 0 0 1 0 20.6" fill="#fffDD"/><path d="M-6.6-327.6a10.3 10.3 0 1 1 0-20.7 10.3 10.3 0 0 1 0 20.7" fill="#fff500DE"/><path d="M172.3 39.5a10.3 10.3 0 1 1 0-20.7 10.3 10.3 0 0 1 0 20.7" fill="#fffDE"/><path d="M34.9-345.9a10.3 10.3 0 1 1 0-20.7 10.3 10.3 0 0 1 0 20.7" fill="#fffDE"/><path d="M91.1 50.7a10.4 10.4 0 1 1 0-20.7 10.4 10.4 0 0 1 0 20.7" fill="#c2e1ffDF"/><path d="M301.2-152.1a10.4 10.4 0 1 1 0-20.8 10.4 10.4 0 0 1 0 20.8" fill="#fffE0"/><path d="M273.4-57a10.5 10.5 0 1 1 0-21 10.5 10.5 0 0 1 0 21" fill="#c2e1ffE1"/><path d="M-82.2-81.4a10.5 10.5 0 1 1 0-21 10.5 10.5 0 0 1 0 21" fill="#fff500E2"/><path d="M82.5-345.6a10.5 10.5 0 1 1 0-21 10.5 10.5 0 0 1 0 21" fill="#fff500E2"/><path d="M184.4-327a10.5 10.5 0 1 1 0-21.1 10.5 10.5 0 0 1 0 21.1" fill="#fffE2"/><path d="M-8.9 7.9a10.6 10.6 0 1 1 0-21.1 10.6 10.6 0 0 1 0 21.1" fill="#fffE3"/><path d="M6.9-320.1a10.6 10.6 0 1 1 0-21.2 10.6 10.6 0 0 1 0 21.2" fill="#fffE3"/><path d="M179-327.1a10.6 10.6 0 1 1 0-21.2 10.6 10.6 0 0 1 0 21.2" fill="#fffE3"/><path d="M215.4-303.5a10.6 10.6 0 1 1 0-21.2 10.6 10.6 0 0 1 0 21.2" fill="#fffE4"/><path d="M-81.7-193.8a10.7 10.7 0 1 1 0-21.4 10.7 10.7 0 0 1 0 21.4" fill="#005bbbE5"/><path d="M-84.4-153.3a10.7 10.7 0 1 1 0-21.4 10.7 10.7 0 0 1 0 21.4" fill="#fff500E6"/><path d="M248.4-42.9a10.7 10.7 0 1 1 0-21.5 10.7 10.7 0 0 1 0 21.5" fill="#fffE6"/><path d="M-76.6-194.6a10.7 10.7 0 1 1 0-21.5 10.7 10.7 0 0 1 0 21.5" fill="#fff500E7"/><path d="M232.4-31.7a10.8 10.8 0 1 1 0-21.6 10.8 10.8 0 0 1 0 21.6" fill="#fff500E8"/><path d="M203.9-7.6a10.8 10.8 0 1 1 0-21.6 10.8 10.8 0 0 1 0 21.6" fill="#fffE8"/><path d="M81-321.4a10.9 10.9 0 1 1 0-21.8 10.9 10.9 0 0 1 0 21.8" fill="#fff500EA"/><path d="M111.9-321.7a10.9 10.9 0 1 1 0-21.8 10.9 10.9 0 0 1 0 21.8" fill="#fff500EA"/><path d="M215.5-32.8a11 11 0 1 1 0-22 11 11 0 0 1 0 22" fill="#c2e1ffEC"/><path d="M239.5-235.8a11 11 0 1 1 0-22 11 11 0 0 1 0 22" fill="#c2e1ffED"/><path d="M73.3 6.1a11 11 0 1 1 0-22.1 11 11 0 0 1 0 22.1" fill="#c2e1ffED"/><path d="M35.4-12a11.1 11.1 0 1 1 0-22.2 11.1 11.1 0 0 1 0 22.2" fill="#fffEF"/><path d="M251.3-171.7a11.1 11.1 0 1 1 0-22.2 11.1 11.1 0 0 1 0 22.2" fill="#fffEF"/><path d="M-38-86.5a11.1 11.1 0 1 1 0-22.2 11.1 11.1 0 0 1 0 22.2" fill="#fff500EF"/><path d="M59.3-16.5a11.2 11.2 0 1 1 0-22.5 11.2 11.2 0 0 1 0 22.5" fill="#fff500F2"/><path d="M196.3-50.4a11.2 11.2 0 1 1 0-22.5 11.2 11.2 0 0 1 0 22.5" fill="#005bbbF2"/><path d="M178.9-266a11.2 11.2 0 1 1 0-22.5 11.2 11.2 0 0 1 0 22.5" fill="#fff500F2"/><path d="M-33-128.9a11.3 11.3 0 1 1 0-22.6 11.3 11.3 0 0 1 0 22.6" fill="#fffF3"/><path d="M-13.8-82.4a11.3 11.3 0 1 1 0-22.6 11.3 11.3 0 0 1 0 22.6" fill="#c2e1ffF3"/><path d="M6.7-65.9a11.4 11.4 0 1 1 0-22.7 11.4 11.4 0 0 1 0 22.7" fill="#c2e1ffF4"/><path d="M167.7-247.7a11.4 11.4 0 1 1 0-22.8 11.4 11.4 0 0 1 0 22.8" fill="#005bbbF6"/><path d="M0.6-201.9a11.5 11.5 0 1 1 0-22.9 11.5 11.5 0 0 1 0 22.9" fill="#fff500F7"/><path d="M54.9-60.4a11.5 11.5 0 1 1 0-23.1 11.5 11.5 0 0 1 0 23.1" fill="#fffF8"/><path d="M99.7-51.2a11.5 11.5 0 1 1 0-23 11.5 11.5 0 0 1 0 23" fill="#fff500F8"/><path d="M83.8-53.6a11.5 11.5 0 1 1 0-23.1 11.5 11.5 0 0 1 0 23.1" fill="#fffF9"/><path d="M17.6-100.5a11.6 11.6 0 1 1 0-23.2 11.6 11.6 0 0 1 0 23.2" fill="#fff500F9"/><path d="M154.3-213.5a11.6 11.6 0 1 1 0-23.3 11.6 11.6 0 0 1 0 23.3" fill="#fffFA"/><path d="M171.6-162.1a11.7 11.7 0 1 1 0-23.3 11.7 11.7 0 0 1 0 23.3" fill="#fffFB"/><path d="M84.6-83.2a11.7 11.7 0 1 1 0-23.4 11.7 11.7 0 0 1 0 23.4" fill="#c2e1ffFC"/><path d="M36.1-133.5a11.7 11.7 0 1 1 0-23.3 11.7 11.7 0 0 1 0 23.3" fill="#c2e1ffFC"/><path d="M70.9-207.9a11.7 11.7 0 1 1 0-23.4 11.7 11.7 0 0 1 0 23.4" fill="#fffFC"/><path d="M151.8-120.4a11.7 11.7 0 1 1 0-23.5 11.7 11.7 0 0 1 0 23.5" fill="#fff500FC"/><path d="M55.2-165.8a11.8 11.8 0 1 1 0-23.5 11.8 11.8 0 0 1 0 23.5" fill="#fff500FD"/><path d="M101.2-115.4a11.8 11.8 0 1 1 0-23.6 11.8 11.8 0 0 1 0 23.6" fill="#fffFE"/><path d="M83.5-119.7a11.8 11.8 0 1 1 0-23.6 11.8 11.8 0 0 1 0 23.6" fill="#c2e1ffFE"/><path d="M117.7-124.6a11.8 11.8 0 1 1 0-23.6 11.8 11.8 0 0 1 0 23.6" fill="#fff500FE"/></g></svg>