<svg width="1200" height="675" viewBox="-500 -500 1200 675" xmlns="http://www.w3.org/2000/svg"><path d="M-500-500h1200v675h-1200z" fill="#000"/><style>.sparkles path{stroke-linecap:round; stroke-width:1}</style><g class="sparkles"><path d="M100-162.5l-26.3 1" stroke="#005bbb32"/><path d="M100-162.5l29.3-18.6" stroke="#fff50032"/><path d="M100-162.5l-33.1-33.5" stroke="#c2e1ff33"/><path d="M100-162.5l-2.4 59.1" stroke="#c2e1ff33"/><path d="M100-162.5l-67.9-2.8" stroke="#fff34"/><path d="M100-162.5l-71.1-15.5" stroke="#fff50034"/><path d="M100-162.5l-76-29.6" stroke="#005bbb35"/><path d="M100-162.5l86.6-15.2" stroke="#005bbb35"/><path d="M100-162.5l91.4-16.3" stroke="#fff50036"/><path d="M100-162.5l-1.2 95.5" stroke="#fff50036"/><path d="M100-162.5l53.4 85.8" stroke="#fff36"/><path d="M100-162.5l-88.2 66.4" stroke="#fff37"/><path d="M100-162.5l116.2 20.2" stroke="#fff50038"/><path d="M100-162.5l-118.9 29" stroke="#fff50039"/><path d="M100-162.5l-95.2 85" stroke="#005bbb39"/><path d="M100-162.5l-111.4 72.2" stroke="#fff3A"/><path d="M100-162.5l126.7 60.5" stroke="#005bbb3B"/><path d="M100-162.5l-59.1-127.5" stroke="#fff3B"/><path d="M100-162.5l57.1-132" stroke="#fff3C"/><path d="M100-162.5l-106.3 101.5" stroke="#fff5003C"/><path d="M100-162.5l-121.3-84.1" stroke="#fff5003C"/><path d="M100-162.5l34.7 144.5" stroke="#c2e1ff3D"/><path d="M100-162.5l16.7 154.6" stroke="#c2e1ff3E"/><path d="M100-162.5l87.4-128.7" stroke="#fff3E"/><path d="M100-162.5l-157.8 27.2" stroke="#c2e1ff3F"/><path d="M100-162.5l96.5 130.9" stroke="#005bbb3F"/><path d="M100-162.5l155.5 47.8" stroke="#005bbb3F"/><path d="M100-162.5l153.8-53.8" stroke="#fff3F"/><path d="M100-162.5l50 157.6" stroke="#fff50040"/><path d="M100-162.5l0 168.6" stroke="#005bbb40"/><path d="M100-162.5l3.6-169.4" stroke="#005bbb41"/><path d="M100-162.5l-159.5 61.7" stroke="#005bbb41"/><path d="M100-162.5l-144.5-103.1" stroke="#fff50042"/><path d="M100-162.5l115.5 136.4" stroke="#c2e1ff43"/><path d="M100-162.5l181.6-16.1" stroke="#fff50044"/><path d="M100-162.5l-115-144.1" stroke="#005bbb44"/><path d="M100-162.5l188.3 25.2" stroke="#fff50046"/><path d="M100-162.5l-83.6 171.7" stroke="#005bbb46"/><path d="M100-162.5l1.4-192.3" stroke="#fff50046"/><path d="M100-162.5l86.9 177.3" stroke="#c2e1ff48"/><path d="M100-162.5l-121.9 159.5" stroke="#fff49"/><path d="M100-162.5l75.1 186.5" stroke="#c2e1ff49"/><path d="M100-162.5l-188-77.7" stroke="#fff4A"/><path d="M100-162.5l54.3 203.1" stroke="#fff5004D"/><path d="M100-162.5l-13.4 214.3" stroke="#fff4F"/><path d="M100-162.5l-93 193.8" stroke="#005bbb4F"/><path d="M100-162.5l212.6-43.7" stroke="#c2e1ff50"/><path d="M100-162.5l49 211.9" stroke="#005bbb50"/><path d="M100-162.5l20.7 216.5" stroke="#fff50050"/><path d="M100-162.5l-215.5 40.3" stroke="#fff51"/><path d="M100-162.5l218.9-13.4" stroke="#c2e1ff51"/><path d="M100-162.5l159.8-152" stroke="#005bbb52"/><path d="M100-162.5l-95.6 200.5" stroke="#fff50052"/><path d="M100-162.5l-201.6-94.9" stroke="#fff50053"/><path d="M100-162.5l218.4-46.9" stroke="#fff53"/><path d="M100-162.5l-133.6 179" stroke="#fff53"/><path d="M100-162.5l-104.4 198.3" stroke="#c2e1ff54"/><path d="M100-162.5l-98-203" stroke="#fff55"/><path d="M100-162.5l-223.5-34" stroke="#c2e1ff55"/><path d="M100-162.5l88.9-208.9" stroke="#fff56"/><path d="M100-162.5l-220.3-59.1" stroke="#c2e1ff56"/><path d="M100-162.5l-113.6 198.4" stroke="#c2e1ff57"/><path d="M100-162.5l71.2 218.8" stroke="#fff58"/><path d="M100-162.5l-42.5-226.6" stroke="#005bbb59"/><path d="M100-162.5l-3.8 231.1" stroke="#fff50059"/><path d="M100-162.5l228 39.3" stroke="#c2e1ff59"/><path d="M100-162.5l-66.7 223.8" stroke="#c2e1ff5C"/><path d="M100-162.5l-160.2-170.4" stroke="#fff5005C"/><path d="M100-162.5l233.9-12.3" stroke="#005bbb5D"/><path d="M100-162.5l-233.4-22.8" stroke="#fff5E"/><path d="M100-162.5l219.8 82.2" stroke="#005bbb5E"/><path d="M100-162.5l115 205" stroke="#c2e1ff5E"/><path d="M100-162.5l-22.2 234.4" stroke="#fff5F"/><path d="M100-162.5l-198.9 126" stroke="#c2e1ff5F"/><path d="M100-162.5l128.2 198.1" stroke="#fff61"/><path d="M100-162.5l129 197.7" stroke="#fff50062"/><path d="M100-162.5l230.7-50.4" stroke="#fff50062"/><path d="M100-162.5l10.7 235.9" stroke="#fff50062"/><path d="M100-162.5l206.4 114.9" stroke="#005bbb63"/><path d="M100-162.5l229.8 55" stroke="#005bbb63"/><path d="M100-162.5l-6.2-236.2" stroke="#fff50064"/><path d="M100-162.5l-159.8-174" stroke="#fff64"/><path d="M100-162.5l-143.9 187.3" stroke="#c2e1ff65"/><path d="M100-162.5l-211.6 105" stroke="#fff50065"/><path d="M100-162.5l42-232.3" stroke="#c2e1ff65"/><path d="M100-162.5l183.3 148.7" stroke="#c2e1ff65"/><path d="M100-162.5l-233.7 32.5" stroke="#fff50066"/><path d="M100-162.5l-201.2 123.3" stroke="#fff66"/><path d="M100-162.5l141.4-188.7" stroke="#fff50067"/><path d="M100-162.5l-150.5 181.4" stroke="#fff50067"/><path d="M100-162.5l80.7 221.4" stroke="#005bbb67"/><path d="M100-162.5l-138.7 190.4" stroke="#fff50067"/><path d="M100-162.5l-90.1 217.3" stroke="#c2e1ff68"/><path d="M100-162.5l-217.3 90.2" stroke="#fff50068"/><path d="M100-162.5l-231 44.6" stroke="#fff68"/><path d="M100-162.5l-65.6 225.9" stroke="#c2e1ff68"/><path d="M100-162.5l-209.4-106.4" stroke="#005bbb69"/><path d="M100-162.5l23.3 233.6" stroke="#c2e1ff69"/><path d="M100-162.5l234.4 5.8" stroke="#fff6A"/><path d="M100-162.5l187.7-140.5" stroke="#fff5006A"/><path d="M100-162.5l151.2 179.2" stroke="#005bbb6A"/><path d="M100-162.5l-105.9-209" stroke="#fff6A"/><path d="M100-162.5l226.3-60.4" stroke="#005bbb6A"/><path d="M100-162.5l-220.2-79.4" stroke="#fff5006A"/><path d="M100-162.5l51.5 227.5" stroke="#005bbb6B"/><path d="M100-162.5l123.1 198.1" stroke="#fff5006C"/><path d="M100-162.5l-41.5-229.2" stroke="#c2e1ff6C"/><path d="M100-162.5l-88.6 214.3" stroke="#005bbb6D"/><path d="M100-162.5l-183.7-141.3" stroke="#c2e1ff6D"/><path d="M100-162.5l59.8-223.7" stroke="#fff5006D"/><path d="M100-162.5l-230.1-2.1" stroke="#fff5006F"/><path d="M100-162.5l-201.7 110" stroke="#005bbb6F"/><path d="M100-162.5l189.7 126.5" stroke="#c2e1ff71"/><path d="M100-162.5l7.5-227.7" stroke="#fff50071"/><path d="M100-162.5l227.1 0" stroke="#fff50071"/><path d="M100-162.5l70 215.6" stroke="#c2e1ff72"/><path d="M100-162.5l213.2 77" stroke="#fff50072"/><path d="M100-162.5l-199.9-103.9" stroke="#c2e1ff73"/><path d="M100-162.5l-217.3-58.1" stroke="#005bbb73"/><path d="M100-162.5l-224.9 1.6" stroke="#fff73"/><path d="M100-162.5l-218.1-49.6" stroke="#005bbb74"/><path d="M100-162.5l217.1 45.9" stroke="#fff75"/><path d="M100-162.5l-186.1-120" stroke="#005bbb75"/><path d="M100-162.5l-201.1 92.7" stroke="#fff50075"/><path d="M100-162.5l137.2 171.3" stroke="#fff76"/><path d="M100-162.5l217.5 28.9" stroke="#005bbb76"/><path d="M100-162.5l-58.2-211.5" stroke="#c2e1ff76"/><path d="M100-162.5l-203.5-74.3" stroke="#c2e1ff77"/><path d="M100-162.5l198.2-80.1" stroke="#fff79"/><path d="M100-162.5l-183.2 108.9" stroke="#005bbb79"/><path d="M100-162.5l-212.4-12.9" stroke="#fff79"/><path d="M100-162.5l13.5-211.7" stroke="#fff7A"/><path d="M100-162.5l126.2 167.6" stroke="#fff7B"/><path d="M100-162.5l-138.2 157.3" stroke="#fff5007B"/><path d="M100-162.5l-162.4 130.5" stroke="#fff5007B"/><path d="M100-162.5l32.5 205.1" stroke="#005bbb7B"/><path d="M100-162.5l43.8 202.7" stroke="#fff5007B"/><path d="M100-162.5l202.6-25.5" stroke="#c2e1ff7D"/><path d="M100-162.5l-173.2-107.8" stroke="#c2e1ff7D"/><path d="M100-162.5l-129.1 157.7" stroke="#fff5007D"/><path d="M100-162.5l-138.5-149.3" stroke="#c2e1ff7D"/><path d="M100-162.5l-193.7-59.1" stroke="#005bbb7D"/><path d="M100-162.5l192.2-59" stroke="#c2e1ff7E"/><path d="M100-162.5l-183.8 80.2" stroke="#fff5007E"/><path d="M100-162.5l-82.7-181.5" stroke="#fff7E"/><path d="M100-162.5l63.3 189" stroke="#c2e1ff7E"/><path d="M100-162.5l154.2-125.5" stroke="#fff5007F"/><path d="M100-162.5l192.1 46.8" stroke="#c2e1ff7F"/><path d="M100-162.5l-171.5-97.1" stroke="#fff7F"/><path d="M100-162.5l-139.7 138.4" stroke="#c2e1ff7F"/><path d="M100-162.5l-147.4 128.2" stroke="#fff50080"/><path d="M100-162.5l166.8-101.6" stroke="#fff50080"/><path d="M100-162.5l-69.3 172" stroke="#fff50082"/><path d="M100-162.5l164.6-80.7" stroke="#fff83"/><path d="M100-162.5l102-147.3" stroke="#fff84"/><path d="M100-162.5l-175-22.7" stroke="#c2e1ff85"/><path d="M100-162.5l147.8-91.1" stroke="#fff85"/><path d="M100-162.5l-169.7 23.6" stroke="#fff86"/><path d="M100-162.5l63.8 156.6" stroke="#fff86"/><path d="M100-162.5l32-158.1" stroke="#fff50088"/><path d="M100-162.5l32.8 156.9" stroke="#c2e1ff88"/><path d="M100-162.5l-149.2 33.2" stroke="#c2e1ff8A"/><path d="M100-162.5l-6.3 151.4" stroke="#c2e1ff8A"/><path d="M100-162.5l-145.5-27.6" stroke="#fff8A"/><path d="M100-162.5l-139.6-37.9" stroke="#005bbb8B"/><path d="M100-162.5l107.6 95.6" stroke="#005bbb8B"/><path d="M100-162.5l-140.5-22.9" stroke="#fff5008B"/><path d="M100-162.5l-72.1-121.7" stroke="#c2e1ff8C"/><path d="M100-162.5l-100-99.5" stroke="#c2e1ff8C"/><path d="M100-162.5l-70.4-119.9" stroke="#fff5008C"/><path d="M100-162.5l-34.5 124.4" stroke="#c2e1ff8D"/><path d="M100-162.5l-128.1 1.1" stroke="#005bbb8E"/><path d="M100-162.5l72.2-101.7" stroke="#fff5008E"/><path d="M100-162.5l97.4 74.7" stroke="#005bbb8E"/><path d="M100-162.5l-110.6 17.2" stroke="#fff50090"/><path d="M100-162.5l76.1 78.9" stroke="#fff90"/><path d="M100-162.5l97.4 31.1" stroke="#c2e1ff91"/><path d="M100-162.5l-66.1-31.5" stroke="#005bbb93"/><path d="M100-162.5l27.9-43.7" stroke="#c2e1ff94"/><path d="M100-162.5l-17.7 31.8" stroke="#005bbb95"/><path d="M100-162.5l23.7-16.6" stroke="#fff95"/></g><g class="sparcs"><path d="M73.7-155.6a5.9 5.9 0 1 1 0-11.8 5.9 5.9 0 0 1 0 11.8" fill="#005bbb7D"/><path d="M129.3-175.2a5.9 5.9 0 1 1 0-11.9 5.9 5.9 0 0 1 0 11.9" fill="#c2e1ff7D"/><path d="M66.9-190.1a6 6 0 1 1 0-11.9 6 6 0 0 1 0 11.9" fill="#fff5007E"/><path d="M97.6-97.4a6 6 0 1 1 0-12 6 6 0 0 1 0 12" fill="#fff5007F"/><path d="M32.1-159.3a6 6 0 1 1 0-12.1 6 6 0 0 1 0 12.1" fill="#fff5007F"/><path d="M28.9-171.9a6 6 0 1 1 0-12.1 6 6 0 0 1 0 12.1" fill="#fff80"/><path d="M24-186a6.1 6.1 0 1 1 0-12.2 6.1 6.1 0 0 1 0 12.2" fill="#005bbb81"/><path d="M186.6-171.5a6.1 6.1 0 1 1 0-12.3 6.1 6.1 0 0 1 0 12.3" fill="#c2e1ff81"/><path d="M191.4-172.7a6.1 6.1 0 1 1 0-12.3 6.1 6.1 0 0 1 0 12.3" fill="#c2e1ff82"/><path d="M98.8-60.9a6.2 6.2 0 1 1 0-12.3 6.2 6.2 0 0 1 0 12.3" fill="#c2e1ff82"/><path d="M153.4-70.5a6.2 6.2 0 1 1 0-12.4 6.2 6.2 0 0 1 0 12.4" fill="#005bbb83"/><path d="M11.8-89.8a6.2 6.2 0 1 1 0-12.5 6.2 6.2 0 0 1 0 12.5" fill="#fff84"/><path d="M216.2-136a6.3 6.3 0 1 1 0-12.7 6.3 6.3 0 0 1 0 12.7" fill="#005bbb85"/><path d="M-18.9-127.1a6.3 6.3 0 1 1 0-12.7 6.3 6.3 0 0 1 0 12.7" fill="#fff86"/><path d="M4.8-71.1a6.4 6.4 0 1 1 0-12.8 6.4 6.4 0 0 1 0 12.8" fill="#005bbb87"/><path d="M-11.4-83.9a6.4 6.4 0 1 1 0-12.8 6.4 6.4 0 0 1 0 12.8" fill="#c2e1ff88"/><path d="M226.7-95.5a6.5 6.5 0 1 1 0-13 6.5 6.5 0 0 1 0 13" fill="#fff50089"/><path d="M40.9-283.5a6.5 6.5 0 1 1 0-12.9 6.5 6.5 0 0 1 0 12.9" fill="#c2e1ff89"/><path d="M157.1-288a6.5 6.5 0 1 1 0-13 6.5 6.5 0 0 1 0 13" fill="#005bbb8A"/><path d="M-6.3-54.5a6.5 6.5 0 1 1 0-13.1 6.5 6.5 0 0 1 0 13.1" fill="#005bbb8B"/><path d="M-21.3-240.1a6.6 6.6 0 1 1 0-13.1 6.6 6.6 0 0 1 0 13.1" fill="#fff5008B"/><path d="M134.7-11.4a6.6 6.6 0 1 1 0-13.1 6.6 6.6 0 0 1 0 13.1" fill="#005bbb8B"/><path d="M116.7-1.2a6.6 6.6 0 1 1 0-13.3 6.6 6.6 0 0 1 0 13.3" fill="#c2e1ff8D"/><path d="M187.4-284.6a6.6 6.6 0 1 1 0-13.3 6.6 6.6 0 0 1 0 13.3" fill="#c2e1ff8D"/><path d="M-57.8-128.6a6.7 6.7 0 1 1 0-13.4 6.7 6.7 0 0 1 0 13.4" fill="#c2e1ff8E"/><path d="M196.5-24.9a6.7 6.7 0 1 1 0-13.4 6.7 6.7 0 0 1 0 13.4" fill="#fff8E"/><path d="M255.5-108a6.7 6.7 0 1 1 0-13.4 6.7 6.7 0 0 1 0 13.4" fill="#fff8E"/><path d="M253.8-209.6a6.7 6.7 0 1 1 0-13.4 6.7 6.7 0 0 1 0 13.4" fill="#005bbb8E"/><path d="M150 1.9a6.7 6.7 0 1 1 0-13.5 6.7 6.7 0 0 1 0 13.5" fill="#005bbb8F"/><path d="M100 12.9a6.8 6.8 0 1 1 0-13.6 6.8 6.8 0 0 1 0 13.6" fill="#005bbb90"/><path d="M103.6-325.1a6.8 6.8 0 1 1 0-13.6 6.8 6.8 0 0 1 0 13.6" fill="#005bbb90"/><path d="M-59.5-94a6.8 6.8 0 1 1 0-13.7 6.8 6.8 0 0 1 0 13.7" fill="#fff50091"/><path d="M-44.5-258.7a6.9 6.9 0 1 1 0-13.8 6.9 6.9 0 0 1 0 13.8" fill="#fff93"/><path d="M215.5-19.1a6.9 6.9 0 1 1 0-13.9 6.9 6.9 0 0 1 0 13.9" fill="#fff50093"/><path d="M281.6-171.6a7 7 0 1 1 0-14 7 7 0 0 1 0 14" fill="#005bbb94"/><path d="M-15-299.6a7 7 0 1 1 0-14 7 7 0 0 1 0 14" fill="#005bbb95"/><path d="M288.3-130.2a7.1 7.1 0 1 1 0-14.2 7.1 7.1 0 0 1 0 14.2" fill="#c2e1ff97"/><path d="M16.4 16.3a7.1 7.1 0 1 1 0-14.2 7.1 7.1 0 0 1 0 14.2" fill="#fff97"/><path d="M101.4-347.6a7.1 7.1 0 1 1 0-14.3 7.1 7.1 0 0 1 0 14.3" fill="#fff98"/><path d="M186.9 22a7.2 7.2 0 1 1 0-14.5 7.2 7.2 0 0 1 0 14.5" fill="#fff9A"/><path d="M-21.9 4.3a7.3 7.3 0 1 1 0-14.6 7.3 7.3 0 0 1 0 14.6" fill="#fff5009B"/><path d="M175.1 31.3a7.3 7.3 0 1 1 0-14.6 7.3 7.3 0 0 1 0 14.6" fill="#fff5009B"/><path d="M-88-232.8a7.4 7.4 0 1 1 0-14.7 7.4 7.4 0 0 1 0 14.7" fill="#c2e1ff9C"/><path d="M154.3 48.1a7.5 7.5 0 1 1 0-15.1 7.5 7.5 0 0 1 0 15.1" fill="#005bbbA0"/><path d="M86.6 59.4a7.6 7.6 0 1 1 0-15.3 7.6 7.6 0 0 1 0 15.3" fill="#fffA2"/><path d="M7 38.9a7.6 7.6 0 1 1 0-15.3 7.6 7.6 0 0 1 0 15.3" fill="#fff500A3"/><path d="M312.6-198.5a7.7 7.7 0 1 1 0-15.4 7.7 7.7 0 0 1 0 15.4" fill="#005bbbA4"/><path d="M149 57.1a7.7 7.7 0 1 1 0-15.4 7.7 7.7 0 0 1 0 15.4" fill="#005bbbA4"/><path d="M120.7 61.8a7.7 7.7 0 1 1 0-15.5 7.7 7.7 0 0 1 0 15.5" fill="#fff500A4"/><path d="M-115.5-114.5a7.8 7.8 0 1 1 0-15.5 7.8 7.8 0 0 1 0 15.5" fill="#fff500A5"/><path d="M318.9-168.2a7.8 7.8 0 1 1 0-15.5 7.8 7.8 0 0 1 0 15.5" fill="#c2e1ffA5"/><path d="M259.8-306.7a7.8 7.8 0 1 1 0-15.6 7.8 7.8 0 0 1 0 15.6" fill="#c2e1ffA6"/><path d="M4.4 45.8a7.9 7.9 0 1 1 0-15.7 7.9 7.9 0 0 1 0 15.7" fill="#fffA7"/><path d="M-101.6-249.5a7.9 7.9 0 1 1 0-15.8 7.9 7.9 0 0 1 0 15.8" fill="#fffA8"/><path d="M318.4-201.5a7.9 7.9 0 1 1 0-15.8 7.9 7.9 0 0 1 0 15.8" fill="#005bbbA8"/><path d="M-33.6 24.4a7.9 7.9 0 1 1 0-15.8 7.9 7.9 0 0 1 0 15.8" fill="#005bbbA8"/><path d="M-4.4 43.7a7.9 7.9 0 1 1 0-15.9 7.9 7.9 0 0 1 0 15.9" fill="#fff500A9"/><path d="M2-357.6a8 8 0 1 1 0-15.9 8 8 0 0 1 0 15.9" fill="#fffAA"/><path d="M-123.5-188.5a8 8 0 1 1 0-16 8 8 0 0 1 0 16" fill="#005bbbAB"/><path d="M188.9-363.3a8 8 0 1 1 0-16.1 8 8 0 0 1 0 16.1" fill="#005bbbAB"/><path d="M-120.3-213.5a8.1 8.1 0 1 1 0-16.2 8.1 8.1 0 0 1 0 16.2" fill="#c2e1ffAD"/><path d="M-13.6 44a8.1 8.1 0 1 1 0-16.2 8.1 8.1 0 0 1 0 16.2" fill="#fffAD"/><path d="M171.2 64.5a8.2 8.2 0 1 1 0-16.3 8.2 8.2 0 0 1 0 16.3" fill="#c2e1ffAF"/><path d="M57.5-380.9a8.2 8.2 0 1 1 0-16.4 8.2 8.2 0 0 1 0 16.4" fill="#fff500AF"/><path d="M96.2 76.9a8.3 8.3 0 1 1 0-16.5 8.3 8.3 0 0 1 0 16.5" fill="#005bbbB0"/><path d="M328-115a8.3 8.3 0 1 1 0-16.5 8.3 8.3 0 0 1 0 16.5" fill="#005bbbB0"/><path d="M33.3 69.7a8.4 8.4 0 1 1 0-16.9 8.4 8.4 0 0 1 0 16.9" fill="#fff500B4"/><path d="M-60.2-324.4a8.4 8.4 0 1 1 0-16.9 8.4 8.4 0 0 1 0 16.9" fill="#fff500B4"/><path d="M333.9-166.3a8.5 8.5 0 1 1 0-17 8.5 8.5 0 0 1 0 17" fill="#c2e1ffB5"/><path d="M-133.4-176.8a8.5 8.5 0 1 1 0-17 8.5 8.5 0 0 1 0 17" fill="#005bbbB6"/><path d="M319.8-71.7a8.5 8.5 0 1 1 0-17.1 8.5 8.5 0 0 1 0 17.1" fill="#c2e1ffB6"/><path d="M215 51.1a8.6 8.6 0 1 1 0-17.1 8.6 8.6 0 0 1 0 17.1" fill="#fffB7"/><path d="M77.8 80.5a8.6 8.6 0 1 1 0-17.2 8.6 8.6 0 0 1 0 17.2" fill="#fff500B8"/><path d="M-98.9-27.9a8.6 8.6 0 1 1 0-17.2 8.6 8.6 0 0 1 0 17.2" fill="#fffB8"/><path d="M228.2 44.4a8.7 8.7 0 1 1 0-17.5 8.7 8.7 0 0 1 0 17.5" fill="#c2e1ffBA"/><path d="M229 44a8.8 8.8 0 1 1 0-17.5 8.8 8.8 0 0 1 0 17.5" fill="#fff500BB"/><path d="M330.7-204.1a8.8 8.8 0 1 1 0-17.6 8.8 8.8 0 0 1 0 17.6" fill="#005bbbBC"/><path d="M110.7 82.2a8.8 8.8 0 1 1 0-17.5 8.8 8.8 0 0 1 0 17.5" fill="#fff500BC"/><path d="M306.4-38.8a8.8 8.8 0 1 1 0-17.6 8.8 8.8 0 0 1 0 17.6" fill="#005bbbBC"/><path d="M329.8-98.7a8.9 8.9 0 1 1 0-17.7 8.9 8.9 0 0 1 0 17.7" fill="#005bbbBD"/><path d="M93.8-389.8a8.9 8.9 0 1 1 0-17.7 8.9 8.9 0 0 1 0 17.7" fill="#c2e1ffBE"/><path d="M-59.8-327.6a8.9 8.9 0 1 1 0-17.8 8.9 8.9 0 0 1 0 17.8" fill="#fffBE"/><path d="M-43.9 33.7a8.9 8.9 0 1 1 0-17.8 8.9 8.9 0 0 1 0 17.8" fill="#005bbbBF"/><path d="M-111.6-48.6a8.9 8.9 0 1 1 0-17.9 8.9 8.9 0 0 1 0 17.9" fill="#c2e1ffBF"/><path d="M142-385.9a9 9 0 1 1 0-17.9 9 9 0 0 1 0 17.9" fill="#fff500C0"/><path d="M283.3-4.8a9 9 0 1 1 0-17.9 9 9 0 0 1 0 17.9" fill="#fff500C0"/><path d="M-133.7-121a9 9 0 1 1 0-18 9 9 0 0 1 0 18" fill="#fff500C1"/><path d="M-101.2-30.2a9 9 0 1 1 0-18.1 9 9 0 0 1 0 18.1" fill="#005bbbC1"/><path d="M241.4-342.1a9 9 0 1 1 0-18.1 9 9 0 0 1 0 18.1" fill="#005bbbC2"/><path d="M-50.5 27.9a9.1 9.1 0 1 1 0-18.1 9.1 9.1 0 0 1 0 18.1" fill="#fff500C2"/><path d="M180.7 68a9.1 9.1 0 1 1 0-18.2 9.1 9.1 0 0 1 0 18.2" fill="#fff500C2"/><path d="M-38.7 37a9.1 9.1 0 1 1 0-18.2 9.1 9.1 0 0 1 0 18.2" fill="#fff500C3"/><path d="M9.9 64a9.1 9.1 0 1 1 0-18.3 9.1 9.1 0 0 1 0 18.3" fill="#fffC3"/><path d="M-117.3-63.2a9.1 9.1 0 1 1 0-18.2 9.1 9.1 0 0 1 0 18.2" fill="#c2e1ffC3"/><path d="M-131-108.8a9.1 9.1 0 1 1 0-18.2 9.1 9.1 0 0 1 0 18.2" fill="#fffC3"/><path d="M34.4 72.5a9.1 9.1 0 1 1 0-18.2 9.1 9.1 0 0 1 0 18.2" fill="#c2e1ffC4"/><path d="M-109.4-259.8a9.2 9.2 0 1 1 0-18.3 9.2 9.2 0 0 1 0 18.3" fill="#c2e1ffC4"/><path d="M123.3 80.3a9.2 9.2 0 1 1 0-18.4 9.2 9.2 0 0 1 0 18.4" fill="#fffC5"/><path d="M334.4-147.5a9.2 9.2 0 1 1 0-18.4 9.2 9.2 0 0 1 0 18.4" fill="#fffC5"/><path d="M287.7-293.8a9.2 9.2 0 1 1 0-18.4 9.2 9.2 0 0 1 0 18.4" fill="#fff500C5"/><path d="M251.2 25.9a9.2 9.2 0 1 1 0-18.4 9.2 9.2 0 0 1 0 18.4" fill="#fffC5"/><path d="M-5.9-362.3a9.2 9.2 0 1 1 0-18.4 9.2 9.2 0 0 1 0 18.4" fill="#005bbbC6"/><path d="M326.3-213.7a9.2 9.2 0 1 1 0-18.5 9.2 9.2 0 0 1 0 18.5" fill="#c2e1ffC6"/><path d="M-120.2-232.6a9.3 9.3 0 1 1 0-18.6 9.3 9.3 0 0 1 0 18.6" fill="#c2e1ffC6"/><path d="M151.5 74.3a9.3 9.3 0 1 1 0-18.6 9.3 9.3 0 0 1 0 18.6" fill="#c2e1ffC8"/><path d="M223.1 44.9a9.3 9.3 0 1 1 0-18.7 9.3 9.3 0 0 1 0 18.7" fill="#005bbbC8"/><path d="M58.5-382.3a9.4 9.4 0 1 1 0-18.7 9.4 9.4 0 0 1 0 18.7" fill="#c2e1ffC8"/><path d="M11.4 61.2a9.4 9.4 0 1 1 0-18.8 9.4 9.4 0 0 1 0 18.8" fill="#fff500CA"/><path d="M-83.7-294.3a9.4 9.4 0 1 1 0-18.9 9.4 9.4 0 0 1 0 18.9" fill="#fff500CA"/><path d="M159.8-376.8a9.4 9.4 0 1 1 0-18.9 9.4 9.4 0 0 1 0 18.9" fill="#005bbbCA"/><path d="M-130.1-155a9.5 9.5 0 1 1 0-19.1 9.5 9.5 0 0 1 0 19.1" fill="#c2e1ffCC"/><path d="M-101.7-43a9.5 9.5 0 1 1 0-19.1 9.5 9.5 0 0 1 0 19.1" fill="#c2e1ffCD"/><path d="M289.7-26.4a9.6 9.6 0 1 1 0-19.3 9.6 9.6 0 0 1 0 19.3" fill="#005bbbCF"/><path d="M107.5-380.5a9.6 9.6 0 1 1 0-19.3 9.6 9.6 0 0 1 0 19.3" fill="#c2e1ffCF"/><path d="M327.1-152.8a9.7 9.7 0 1 1 0-19.4 9.7 9.7 0 0 1 0 19.4" fill="#005bbbCF"/><path d="M170 62.8a9.7 9.7 0 1 1 0-19.4 9.7 9.7 0 0 1 0 19.4" fill="#005bbbD0"/><path d="M313.2-75.8a9.7 9.7 0 1 1 0-19.4 9.7 9.7 0 0 1 0 19.4" fill="#005bbbD0"/><path d="M-99.9-256.7a9.7 9.7 0 1 1 0-19.5 9.7 9.7 0 0 1 0 19.5" fill="#fff500D1"/><path d="M-117.3-210.9a9.8 9.8 0 1 1 0-19.5 9.8 9.8 0 0 1 0 19.5" fill="#fffD1"/><path d="M-124.9-151.1a9.8 9.8 0 1 1 0-19.6 9.8 9.8 0 0 1 0 19.6" fill="#005bbbD1"/><path d="M-118.1-202.3a9.8 9.8 0 1 1 0-19.6 9.8 9.8 0 0 1 0 19.6" fill="#fffD2"/><path d="M317.1-106.8a9.9 9.9 0 1 1 0-19.7 9.9 9.9 0 0 1 0 19.7" fill="#c2e1ffD4"/><path d="M-86.1-272.6a9.9 9.9 0 1 1 0-19.8 9.9 9.9 0 0 1 0 19.8" fill="#fffD4"/><path d="M-101.1-59.9a9.9 9.9 0 1 1 0-19.8 9.9 9.9 0 0 1 0 19.8" fill="#fffD4"/><path d="M237.2 18.7a10 10 0 1 1 0-19.9 10 10 0 0 1 0 19.9" fill="#fffD6"/><path d="M317.5-123.6a10 10 0 1 1 0-19.9 10 10 0 0 1 0 19.9" fill="#fffD6"/><path d="M41.8-364.1a10 10 0 1 1 0-19.9 10 10 0 0 1 0 19.9" fill="#c2e1ffD6"/><path d="M-103.5-226.8a10 10 0 1 1 0-20 10 10 0 0 1 0 20" fill="#005bbbD7"/><path d="M298.2-232.5a10.1 10.1 0 1 1 0-20.2 10.1 10.1 0 0 1 0 20.2" fill="#005bbbD9"/><path d="M-83.2-43.5a10.1 10.1 0 1 1 0-20.3 10.1 10.1 0 0 1 0 20.3" fill="#fff500DA"/><path d="M-112.4-165.2a10.1 10.1 0 1 1 0-20.3 10.1 10.1 0 0 1 0 20.3" fill="#fffDA"/><path d="M113.5-364a10.2 10.2 0 1 1 0-20.3 10.2 10.2 0 0 1 0 20.3" fill="#c2e1ffDA"/><path d="M226.2 15.3a10.2 10.2 0 1 1 0-20.4 10.2 10.2 0 0 1 0 20.4" fill="#fff500DB"/><path d="M-38.2 5.1a10.2 10.2 0 1 1 0-20.5 10.2 10.2 0 0 1 0 20.5" fill="#fffDC"/><path d="M-62.4-21.7a10.3 10.3 0 1 1 0-20.5 10.3 10.3 0 0 1 0 20.5" fill="#c2e1ffDC"/><path d="M132.5 52.8a10.3 10.3 0 1 1 0-20.5 10.3 10.3 0 0 1 0 20.5" fill="#fffDD"/><path d="M143.8 50.5a10.3 10.3 0 1 1 0-20.6 10.3 10.3 0 0 1 0 20.6" fill="#c2e1ffDD"/><path d="M302.6-177.7a10.3 10.3 0 1 1 0-20.7 10.3 10.3 0 0 1 0 20.7" fill="#c2e1ffDE"/><path d="M-73.2-259.9a10.3 10.3 0 1 1 0-20.7 10.3 10.3 0 0 1 0 20.7" fill="#fffDE"/><path d="M-29.1 5.6a10.4 10.4 0 1 1 0-20.7 10.4 10.4 0 0 1 0 20.7" fill="#005bbbDE"/><path d="M-38.5-301.4a10.4 10.4 0 1 1 0-20.7 10.4 10.4 0 0 1 0 20.7" fill="#005bbbDE"/><path d="M-93.7-211.2a10.4 10.4 0 1 1 0-20.8 10.4 10.4 0 0 1 0 20.8" fill="#c2e1ffDF"/><path d="M292.2-211.1a10.4 10.4 0 1 1 0-20.8 10.4 10.4 0 0 1 0 20.8" fill="#005bbbE0"/><path d="M-83.8-71.9a10.4 10.4 0 1 1 0-20.9 10.4 10.4 0 0 1 0 20.9" fill="#fffE0"/><path d="M17.3-333.6a10.4 10.4 0 1 1 0-20.8 10.4 10.4 0 0 1 0 20.8" fill="#c2e1ffE0"/><path d="M163.3 37a10.4 10.4 0 1 1 0-20.9 10.4 10.4 0 0 1 0 20.9" fill="#005bbbE0"/><path d="M254.2-277.5a10.5 10.5 0 1 1 0-20.9 10.5 10.5 0 0 1 0 20.9" fill="#fffE1"/><path d="M292.1-105.2a10.5 10.5 0 1 1 0-21 10.5 10.5 0 0 1 0 21" fill="#c2e1ffE1"/><path d="M-71.5-249.2a10.5 10.5 0 1 1 0-20.9 10.5 10.5 0 0 1 0 20.9" fill="#fff500E1"/><path d="M-39.7-13.6a10.5 10.5 0 1 1 0-21 10.5 10.5 0 0 1 0 21" fill="#fff500E2"/><path d="M-47.4-23.8a10.5 10.5 0 1 1 0-21 10.5 10.5 0 0 1 0 21" fill="#fff500E2"/><path d="M266.8-253.6a10.5 10.5 0 1 1 0-21 10.5 10.5 0 0 1 0 21" fill="#005bbbE2"/><path d="M30.7 20.2a10.7 10.7 0 1 1 0-21.4 10.7 10.7 0 0 1 0 21.4" fill="#c2e1ffE6"/><path d="M264.6-232.5a10.7 10.7 0 1 1 0-21.5 10.7 10.7 0 0 1 0 21.5" fill="#fffE7"/><path d="M202-299a10.8 10.8 0 1 1 0-21.6 10.8 10.8 0 0 1 0 21.6" fill="#fffE8"/><path d="M-75-174.4a10.8 10.8 0 1 1 0-21.6 10.8 10.8 0 0 1 0 21.6" fill="#fffE9"/><path d="M247.8-242.7a10.9 10.9 0 1 1 0-21.7 10.9 10.9 0 0 1 0 21.7" fill="#c2e1ffEA"/><path d="M-69.7-128.1a10.9 10.9 0 1 1 0-21.7 10.9 10.9 0 0 1 0 21.7" fill="#fffEA"/><path d="M163.8 5a10.9 10.9 0 1 1 0-21.8 10.9 10.9 0 0 1 0 21.8" fill="#c2e1ffEB"/><path d="M132-309.6a11 11 0 1 1 0-22 11 11 0 0 1 0 22" fill="#fffED"/><path d="M132.8 5.4a11 11 0 1 1 0-22 11 11 0 0 1 0 22" fill="#fffED"/><path d="M-49.2-118.2a11.1 11.1 0 1 1 0-22.2 11.1 11.1 0 0 1 0 22.2" fill="#fff500EF"/><path d="M93.7 0.1a11.1 11.1 0 1 1 0-22.3 11.1 11.1 0 0 1 0 22.3" fill="#005bbbEF"/><path d="M-45.5-178.9a11.2 11.2 0 1 1 0-22.3 11.2 11.2 0 0 1 0 22.3" fill="#c2e1ffF0"/><path d="M-39.6-189.2a11.2 11.2 0 1 1 0-22.4 11.2 11.2 0 0 1 0 22.4" fill="#c2e1ffF1"/><path d="M207.6-55.7a11.2 11.2 0 1 1 0-22.4 11.2 11.2 0 0 1 0 22.4" fill="#fff500F1"/><path d="M-40.5-174.2a11.2 11.2 0 1 1 0-22.4 11.2 11.2 0 0 1 0 22.4" fill="#fff500F1"/><path d="M27.9-273a11.2 11.2 0 1 1 0-22.4 11.2 11.2 0 0 1 0 22.4" fill="#c2e1ffF2"/><path d="M0-250.7a11.2 11.2 0 1 1 0-22.5 11.2 11.2 0 0 1 0 22.5" fill="#fffF2"/><path d="M29.6-271.2a11.2 11.2 0 1 1 0-22.5 11.2 11.2 0 0 1 0 22.5" fill="#c2e1ffF2"/><path d="M65.5-26.8a11.3 11.3 0 1 1 0-22.7 11.3 11.3 0 0 1 0 22.7" fill="#005bbbF4"/><path d="M-28.1-150a11.3 11.3 0 1 1 0-22.7 11.3 11.3 0 0 1 0 22.7" fill="#005bbbF4"/><path d="M172.2-252.8a11.4 11.4 0 1 1 0-22.7 11.4 11.4 0 0 1 0 22.7" fill="#fffF5"/><path d="M197.4-76.4a11.4 11.4 0 1 1 0-22.7 11.4 11.4 0 0 1 0 22.7" fill="#fff500F5"/><path d="M-10.6-133.8a11.5 11.5 0 1 1 0-22.9 11.5 11.5 0 0 1 0 22.9" fill="#fffF7"/><path d="M176.1-72.2a11.5 11.5 0 1 1 0-22.9 11.5 11.5 0 0 1 0 22.9" fill="#005bbbF7"/><path d="M197.4-119.9a11.5 11.5 0 1 1 0-23.1 11.5 11.5 0 0 1 0 23.1" fill="#005bbbF8"/><path d="M33.9-182.3a11.7 11.7 0 1 1 0-23.3 11.7 11.7 0 0 1 0 23.3" fill="#fffFB"/><path d="M127.9-194.5a11.7 11.7 0 1 1 0-23.5 11.7 11.7 0 0 1 0 23.5" fill="#005bbbFD"/><path d="M82.3-118.9a11.8 11.8 0 1 1 0-23.6 11.8 11.8 0 0 1 0 23.6" fill="#c2e1ffFE"/><path d="M123.7-167.3a11.8 11.8 0 1 1 0-23.6 11.8 11.8 0 0 1 0 23.6" fill="#005bbbFE"/></g></svg>