<svg width="1200" height="675" viewBox="-500 -500 1200 675" xmlns="http://www.w3.org/2000/svg"><path d="M-500-500h1200v675h-1200z" fill="#000"/><style>.sparkles path{stroke-linecap:round; stroke-width:1}</style><g class="sparkles"><path d="M100-162.5l30 11.4" stroke="#14213d32"/><path d="M100-162.5l-40.1 22.4" stroke="#fca31132"/><path d="M100-162.5l12.1 58.1" stroke="#11223333"/><path d="M100-162.5l29.9 65.2" stroke="#ffffff34"/><path d="M100-162.5l35.9 62.2" stroke="#ffffff34"/><path d="M100-162.5l54.7 48.7" stroke="#fca31134"/><path d="M100-162.5l86.2-14.3" stroke="#fca31135"/><path d="M100-162.5l45.7-76.9" stroke="#11223335"/><path d="M100-162.5l-2.1 90.6" stroke="#11223335"/><path d="M100-162.5l63.3-66.8" stroke="#11223335"/><path d="M100-162.5l-97.3 41.5" stroke="#ffffff37"/><path d="M100-162.5l79.6-71" stroke="#e5e5e537"/><path d="M100-162.5l-27 109.1" stroke="#ffffff38"/><path d="M100-162.5l124.8-15.8" stroke="#e5e5e539"/><path d="M100-162.5l-133.1-7.9" stroke="#14213d3A"/><path d="M100-162.5l-135.8-40.6" stroke="#fca3113C"/><path d="M100-162.5l-144.8-0.1" stroke="#14213d3C"/><path d="M100-162.5l-136.3 50.2" stroke="#fca3113C"/><path d="M100-162.5l133.2 63" stroke="#e5e5e53C"/><path d="M100-162.5l-132.5-70.9" stroke="#ffffff3D"/><path d="M100-162.5l-145.8 41" stroke="#e5e5e53D"/><path d="M100-162.5l38.5-147.3" stroke="#fca3113D"/><path d="M100-162.5l-83.5-132.6" stroke="#1122333E"/><path d="M100-162.5l135.3-92" stroke="#14213d3F"/><path d="M100-162.5l-146 80.6" stroke="#ffffff40"/><path d="M100-162.5l-87-146.7" stroke="#14213d41"/><path d="M100-162.5l53.3 164.3" stroke="#ffffff41"/><path d="M100-162.5l-148.9 88.6" stroke="#ffffff42"/><path d="M100-162.5l139.4 105.3" stroke="#fca31142"/><path d="M100-162.5l183.8-31.2" stroke="#11223345"/><path d="M100-162.5l24.6 185.1" stroke="#14213d45"/><path d="M100-162.5l-167.4-84.6" stroke="#ffffff45"/><path d="M100-162.5l10.7-189" stroke="#e5e5e546"/><path d="M100-162.5l73.4-176.5" stroke="#11223346"/><path d="M100-162.5l5.7-192.2" stroke="#e5e5e546"/><path d="M100-162.5l126.6 148.1" stroke="#14213d47"/><path d="M100-162.5l93.4 171.9" stroke="#ffffff47"/><path d="M100-162.5l-128.9-147.3" stroke="#11223348"/><path d="M100-162.5l-116.4 162.7" stroke="#11223349"/><path d="M100-162.5l93.1-178.7" stroke="#ffffff49"/><path d="M100-162.5l-145.7-140.2" stroke="#14213d4A"/><path d="M100-162.5l180.5 95.1" stroke="#ffffff4A"/><path d="M100-162.5l-15.3-203.8" stroke="#14213d4A"/><path d="M100-162.5l-202.3 34" stroke="#14213d4B"/><path d="M100-162.5l39.6 201.4" stroke="#fca3114B"/><path d="M100-162.5l-186.1-87.8" stroke="#14213d4B"/><path d="M100-162.5l-200.6 61.2" stroke="#ffffff4C"/><path d="M100-162.5l86.1-193.8" stroke="#ffffff4D"/><path d="M100-162.5l-101.6-186.3" stroke="#ffffff4E"/><path d="M100-162.5l-146.1-154.1" stroke="#e5e5e54E"/><path d="M100-162.5l-62.3-204.8" stroke="#ffffff4E"/><path d="M100-162.5l-192.3-97.2" stroke="#ffffff4F"/><path d="M100-162.5l-14.7 215" stroke="#1122334F"/><path d="M100-162.5l186.7-108.1" stroke="#fca3114F"/><path d="M100-162.5l-196.2-91.4" stroke="#1122334F"/><path d="M100-162.5l-130.2-173.1" stroke="#e5e5e550"/><path d="M100-162.5l-218.8-0.5" stroke="#14213d51"/><path d="M100-162.5l159.7-155.2" stroke="#11223353"/><path d="M100-162.5l219.3 39.3" stroke="#14213d53"/><path d="M100-162.5l-135.7 176.9" stroke="#fca31153"/><path d="M100-162.5l-93.8 204.8" stroke="#e5e5e554"/><path d="M100-162.5l220.4-46.9" stroke="#e5e5e555"/><path d="M100-162.5l-48.2-220.6" stroke="#fca31155"/><path d="M100-162.5l-88-209.1" stroke="#e5e5e556"/><path d="M100-162.5l146.4-174.2" stroke="#e5e5e556"/><path d="M100-162.5l-128.6 189" stroke="#14213d57"/><path d="M100-162.5l84.6 213" stroke="#e5e5e557"/><path d="M100-162.5l226.1 39.3" stroke="#11223358"/><path d="M100-162.5l-107.9-203.9" stroke="#e5e5e559"/><path d="M100-162.5l-199.8-115.3" stroke="#14213d59"/><path d="M100-162.5l146.4 179" stroke="#e5e5e559"/><path d="M100-162.5l212.3-92.5" stroke="#1122335A"/><path d="M100-162.5l-153.9-173.1" stroke="#e5e5e55A"/><path d="M100-162.5l215.8-89.9" stroke="#fca3115C"/><path d="M100-162.5l106.6 208.4" stroke="#ffffff5D"/><path d="M100-162.5l144.5 184.4" stroke="#e5e5e55D"/><path d="M100-162.5l220.7-79.1" stroke="#fca3115D"/><path d="M100-162.5l-79.7-221.3" stroke="#ffffff5F"/><path d="M100-162.5l-42.5 231.3" stroke="#1122335F"/><path d="M100-162.5l42.6-231.5" stroke="#e5e5e55F"/><path d="M100-162.5l225.4 68.7" stroke="#e5e5e560"/><path d="M100-162.5l133 194.6" stroke="#11223360"/><path d="M100-162.5l-233.9 31.1" stroke="#e5e5e561"/><path d="M100-162.5l210.5 107" stroke="#fca31162"/><path d="M100-162.5l121.3 202.6" stroke="#ffffff62"/><path d="M100-162.5l220.9-83.4" stroke="#ffffff62"/><path d="M100-162.5l-180 153" stroke="#11223363"/><path d="M100-162.5l-225.5-70.4" stroke="#11223363"/><path d="M100-162.5l-98.5-214.7" stroke="#fca31164"/><path d="M100-162.5l230.8 50.6" stroke="#e5e5e564"/><path d="M100-162.5l4.1-236.2" stroke="#14213d64"/><path d="M100-162.5l-183.8 148.4" stroke="#e5e5e564"/><path d="M100-162.5l125.6-200.1" stroke="#11223364"/><path d="M100-162.5l-183-149.4" stroke="#e5e5e564"/><path d="M100-162.5l135.4 193.4" stroke="#14213d65"/><path d="M100-162.5l63.9-227.2" stroke="#ffffff66"/><path d="M100-162.5l-235.2 14.8" stroke="#fca31167"/><path d="M100-162.5l81 221.2" stroke="#e5e5e567"/><path d="M100-162.5l226.4 65.1" stroke="#11223367"/><path d="M100-162.5l-220.9-81.3" stroke="#fca31168"/><path d="M100-162.5l-191.6-136.7" stroke="#11223368"/><path d="M100-162.5l218.2-88.2" stroke="#11223368"/><path d="M100-162.5l139.5-189.5" stroke="#fca31168"/><path d="M100-162.5l44.3-230.6" stroke="#14213d69"/><path d="M100-162.5l-10.2-234.4" stroke="#e5e5e569"/><path d="M100-162.5l233.9-18.1" stroke="#e5e5e569"/><path d="M100-162.5l224.7-66.8" stroke="#ffffff6A"/><path d="M100-162.5l222-73.4" stroke="#e5e5e56B"/><path d="M100-162.5l56.7 225.7" stroke="#14213d6C"/><path d="M100-162.5l-224.6 55.4" stroke="#ffffff6E"/><path d="M100-162.5l-225.4-48.9" stroke="#1122336E"/><path d="M100-162.5l11.7 229.8" stroke="#e5e5e56F"/><path d="M100-162.5l129.8 189.2" stroke="#14213d6F"/><path d="M100-162.5l-227.2 29.9" stroke="#ffffff70"/><path d="M100-162.5l-209.5-90.9" stroke="#11223370"/><path d="M100-162.5l215.1-76.7" stroke="#ffffff70"/><path d="M100-162.5l-131.5-185.9" stroke="#fca31171"/><path d="M100-162.5l227.5 0" stroke="#fca31171"/><path d="M100-162.5l-33.9 224.8" stroke="#e5e5e571"/><path d="M100-162.5l135.5-182.1" stroke="#ffffff71"/><path d="M100-162.5l-74.8-214.2" stroke="#14213d71"/><path d="M100-162.5l-83.9-210.6" stroke="#fca31172"/><path d="M100-162.5l-189.5 123.2" stroke="#ffffff72"/><path d="M100-162.5l-181 135" stroke="#11223372"/><path d="M100-162.5l-220.1 45.7" stroke="#11223373"/><path d="M100-162.5l-212.2 73.6" stroke="#14213d73"/><path d="M100-162.5l-177-138.2" stroke="#ffffff73"/><path d="M100-162.5l209.2-79.7" stroke="#11223374"/><path d="M100-162.5l187.1 121.3" stroke="#14213d74"/><path d="M100-162.5l-52.7-214.8" stroke="#14213d75"/><path d="M100-162.5l44.4 215.7" stroke="#fca31176"/><path d="M100-162.5l-210.1-66.1" stroke="#14213d76"/><path d="M100-162.5l124.4-181.7" stroke="#fca31176"/><path d="M100-162.5l7.7-219.9" stroke="#11223376"/><path d="M100-162.5l181 123.9" stroke="#11223376"/><path d="M100-162.5l67.9 207.3" stroke="#14213d77"/><path d="M100-162.5l41.4 213.7" stroke="#e5e5e577"/><path d="M100-162.5l214.9 34.6" stroke="#ffffff77"/><path d="M100-162.5l-176.6 126.6" stroke="#11223377"/><path d="M100-162.5l33.3-213.6" stroke="#11223378"/><path d="M100-162.5l118.6-179.5" stroke="#ffffff78"/><path d="M100-162.5l213.1 13.9" stroke="#ffffff79"/><path d="M100-162.5l-107.4 174.2" stroke="#1122337C"/><path d="M100-162.5l187.6-80" stroke="#14213d7D"/><path d="M100-162.5l-15.5-202.1" stroke="#ffffff7D"/><path d="M100-162.5l192-52.6" stroke="#ffffff7E"/><path d="M100-162.5l-68.3-181.9" stroke="#11223380"/><path d="M100-162.5l189.1-44.9" stroke="#fca31180"/><path d="M100-162.5l141.5-130.6" stroke="#e5e5e580"/><path d="M100-162.5l-51.8 183.3" stroke="#fca31181"/><path d="M100-162.5l178.5-64.7" stroke="#fca31181"/><path d="M100-162.5l186.4-30.7" stroke="#fca31182"/><path d="M100-162.5l150.6-113.6" stroke="#11223382"/><path d="M100-162.5l-183.3 22.3" stroke="#ffffff83"/><path d="M100-162.5l-96.6 150" stroke="#11223384"/><path d="M100-162.5l-177.4 3" stroke="#11223385"/><path d="M100-162.5l-132.2 116.6" stroke="#ffffff85"/><path d="M100-162.5l25-166.9" stroke="#11223386"/><path d="M100-162.5l-138.8 95.3" stroke="#ffffff87"/><path d="M100-162.5l-164.6-0.2" stroke="#ffffff87"/><path d="M100-162.5l-8.2-162.3" stroke="#11223388"/><path d="M100-162.5l5.8-161.1" stroke="#fca31188"/><path d="M100-162.5l148.3-62.9" stroke="#ffffff88"/><path d="M100-162.5l-155.1-24.8" stroke="#ffffff89"/><path d="M100-162.5l113.1-107.6" stroke="#ffffff89"/><path d="M100-162.5l-143.3 58.5" stroke="#11223389"/><path d="M100-162.5l143-32.4" stroke="#e5e5e58B"/><path d="M100-162.5l-11.3-143" stroke="#e5e5e58B"/><path d="M100-162.5l-120.5 77.6" stroke="#1122338B"/><path d="M100-162.5l-74.3 113.7" stroke="#ffffff8C"/><path d="M100-162.5l-84 97.3" stroke="#14213d8D"/><path d="M100-162.5l114.4 56" stroke="#ffffff8E"/><path d="M100-162.5l-55-110.5" stroke="#14213d8E"/><path d="M100-162.5l74.2-96.6" stroke="#14213d8E"/><path d="M100-162.5l-114.2 36.1" stroke="#ffffff8F"/><path d="M100-162.5l24.9 110.4" stroke="#fca3118F"/><path d="M100-162.5l52.6 88.7" stroke="#14213d90"/><path d="M100-162.5l23.1 92.2" stroke="#fca31191"/><path d="M100-162.5l-12.3 74.1" stroke="#e5e5e593"/><path d="M100-162.5l-54.2 38.7" stroke="#fca31193"/><path d="M100-162.5l31.3-51.7" stroke="#fca31194"/></g><g class="sparcs"><path d="M130-145.1a5.9 5.9 0 1 1 0-11.9 5.9 5.9 0 0 1 0 11.9" fill="#fca3117D"/><path d="M59.9-134.1a6 6 0 1 1 0-12 6 6 0 0 1 0 12" fill="#1122337E"/><path d="M112.1-98.4a6 6 0 1 1 0-12 6 6 0 0 1 0 12" fill="#1122337F"/><path d="M129.9-91.3a6 6 0 1 1 0-12 6 6 0 0 1 0 12" fill="#e5e5e580"/><path d="M135.9-94.2a6 6 0 1 1 0-12.1 6 6 0 0 1 0 12.1" fill="#14213d80"/><path d="M154.7-107.7a6.1 6.1 0 1 1 0-12.1 6.1 6.1 0 0 1 0 12.1" fill="#fca31180"/><path d="M186.2-170.7a6.1 6.1 0 1 1 0-12.2 6.1 6.1 0 0 1 0 12.2" fill="#11223381"/><path d="M145.7-233.3a6.1 6.1 0 1 1 0-12.2 6.1 6.1 0 0 1 0 12.2" fill="#14213d81"/><path d="M97.9-65.7a6.1 6.1 0 1 1 0-12.3 6.1 6.1 0 0 1 0 12.3" fill="#fca31181"/><path d="M163.3-223.1a6.1 6.1 0 1 1 0-12.3 6.1 6.1 0 0 1 0 12.3" fill="#e5e5e582"/><path d="M2.7-114.8a6.2 6.2 0 1 1 0-12.5 6.2 6.2 0 0 1 0 12.5" fill="#11223383"/><path d="M179.6-227.3a6.2 6.2 0 1 1 0-12.4 6.2 6.2 0 0 1 0 12.4" fill="#ffffff83"/><path d="M73-47.2a6.3 6.3 0 1 1 0-12.5 6.3 6.3 0 0 1 0 12.5" fill="#11223384"/><path d="M224.8-172a6.4 6.4 0 1 1 0-12.7 6.4 6.4 0 0 1 0 12.7" fill="#11223386"/><path d="M-33.1-164a6.4 6.4 0 1 1 0-12.8 6.4 6.4 0 0 1 0 12.8" fill="#11223388"/><path d="M-35.8-196.6a6.5 6.5 0 1 1 0-13 6.5 6.5 0 0 1 0 13" fill="#fca3118A"/><path d="M-44.8-156.1a6.5 6.5 0 1 1 0-13 6.5 6.5 0 0 1 0 13" fill="#ffffff8A"/><path d="M-36.3-105.8a6.5 6.5 0 1 1 0-13 6.5 6.5 0 0 1 0 13" fill="#fca3118A"/><path d="M233.2-92.9a6.6 6.6 0 1 1 0-13.1 6.6 6.6 0 0 1 0 13.1" fill="#14213d8B"/><path d="M-32.5-226.9a6.6 6.6 0 1 1 0-13.1 6.6 6.6 0 0 1 0 13.1" fill="#1122338B"/><path d="M-45.8-114.9a6.6 6.6 0 1 1 0-13.2 6.6 6.6 0 0 1 0 13.2" fill="#ffffff8C"/><path d="M138.5-303.2a6.6 6.6 0 1 1 0-13.2 6.6 6.6 0 0 1 0 13.2" fill="#fca3118C"/><path d="M16.5-288.5a6.6 6.6 0 1 1 0-13.3 6.6 6.6 0 0 1 0 13.3" fill="#ffffff8D"/><path d="M235.3-247.8a6.7 6.7 0 1 1 0-13.4 6.7 6.7 0 0 1 0 13.4" fill="#fca3118F"/><path d="M-46-75.2a6.8 6.8 0 1 1 0-13.5 6.8 6.8 0 0 1 0 13.5" fill="#ffffff8F"/><path d="M13-302.4a6.8 6.8 0 1 1 0-13.6 6.8 6.8 0 0 1 0 13.6" fill="#ffffff91"/><path d="M153.3 8.6a6.8 6.8 0 1 1 0-13.7 6.8 6.8 0 0 1 0 13.7" fill="#e5e5e591"/><path d="M-48.9-67a6.9 6.9 0 1 1 0-13.7 6.9 6.9 0 0 1 0 13.7" fill="#14213d91"/><path d="M239.4-50.4a6.9 6.9 0 1 1 0-13.7 6.9 6.9 0 0 1 0 13.7" fill="#fca31192"/><path d="M283.8-186.7a7 7 0 1 1 0-14.1 7 7 0 0 1 0 14.1" fill="#14213d96"/><path d="M124.6 29.6a7 7 0 1 1 0-14.1 7 7 0 0 1 0 14.1" fill="#fca31196"/><path d="M-67.4-240.1a7.1 7.1 0 1 1 0-14.1 7.1 7.1 0 0 1 0 14.1" fill="#e5e5e596"/><path d="M110.7-344.4a7.1 7.1 0 1 1 0-14.2 7.1 7.1 0 0 1 0 14.2" fill="#fca31197"/><path d="M173.4-331.9a7.1 7.1 0 1 1 0-14.2 7.1 7.1 0 0 1 0 14.2" fill="#14213d97"/><path d="M105.7-347.6a7.1 7.1 0 1 1 0-14.3 7.1 7.1 0 0 1 0 14.3" fill="#ffffff98"/><path d="M226.6-7.2a7.2 7.2 0 1 1 0-14.4 7.2 7.2 0 0 1 0 14.4" fill="#11223399"/><path d="M193.4 16.7a7.2 7.2 0 1 1 0-14.5 7.2 7.2 0 0 1 0 14.5" fill="#e5e5e599"/><path d="M-28.9-302.6a7.2 7.2 0 1 1 0-14.4 7.2 7.2 0 0 1 0 14.4" fill="#fca31199"/><path d="M-16.4 7.5a7.3 7.3 0 1 1 0-14.6 7.3 7.3 0 0 1 0 14.6" fill="#ffffff9B"/><path d="M193.1-333.9a7.3 7.3 0 1 1 0-14.6 7.3 7.3 0 0 1 0 14.6" fill="#fca3119C"/><path d="M-45.7-295.3a7.3 7.3 0 1 1 0-14.7 7.3 7.3 0 0 1 0 14.7" fill="#e5e5e59C"/><path d="M280.5-60a7.4 7.4 0 1 1 0-14.7 7.4 7.4 0 0 1 0 14.7" fill="#14213d9D"/><path d="M84.7-358.9a7.4 7.4 0 1 1 0-14.8 7.4 7.4 0 0 1 0 14.8" fill="#1122339D"/><path d="M-102.3-121.1a7.4 7.4 0 1 1 0-14.7 7.4 7.4 0 0 1 0 14.7" fill="#1122339D"/><path d="M139.6 46.3a7.4 7.4 0 1 1 0-14.8 7.4 7.4 0 0 1 0 14.8" fill="#fca3119D"/><path d="M-86.1-242.9a7.4 7.4 0 1 1 0-14.8 7.4 7.4 0 0 1 0 14.8" fill="#fca3119E"/><path d="M-100.6-93.8a7.5 7.5 0 1 1 0-15 7.5 7.5 0 0 1 0 15" fill="#e5e5e5A0"/><path d="M186.1-348.7a7.6 7.6 0 1 1 0-15.1 7.6 7.6 0 0 1 0 15.1" fill="#112233A1"/><path d="M-1.6-341.3a7.6 7.6 0 1 1 0-15.1 7.6 7.6 0 0 1 0 15.1" fill="#e5e5e5A1"/><path d="M-46.1-309a7.6 7.6 0 1 1 0-15.2 7.6 7.6 0 0 1 0 15.2" fill="#ffffffA1"/><path d="M37.7-359.7a7.6 7.6 0 1 1 0-15.2 7.6 7.6 0 0 1 0 15.2" fill="#fca311A2"/><path d="M-92.3-252.1a7.6 7.6 0 1 1 0-15.3 7.6 7.6 0 0 1 0 15.3" fill="#fca311A3"/><path d="M85.3 60.1a7.6 7.6 0 1 1 0-15.3 7.6 7.6 0 0 1 0 15.3" fill="#ffffffA3"/><path d="M286.7-262.9a7.7 7.7 0 1 1 0-15.3 7.7 7.7 0 0 1 0 15.3" fill="#fca311A3"/><path d="M-96.2-246.2a7.7 7.7 0 1 1 0-15.4 7.7 7.7 0 0 1 0 15.4" fill="#112233A3"/><path d="M-30.2-327.9a7.7 7.7 0 1 1 0-15.4 7.7 7.7 0 0 1 0 15.4" fill="#fca311A4"/><path d="M-118.8-155.2a7.7 7.7 0 1 1 0-15.5 7.7 7.7 0 0 1 0 15.5" fill="#fca311A5"/><path d="M259.7-309.8a7.9 7.9 0 1 1 0-15.8 7.9 7.9 0 0 1 0 15.8" fill="#e5e5e5A8"/><path d="M319.3-115.3a7.9 7.9 0 1 1 0-15.7 7.9 7.9 0 0 1 0 15.7" fill="#e5e5e5A8"/><path d="M-35.7 22.3a7.9 7.9 0 1 1 0-15.8 7.9 7.9 0 0 1 0 15.8" fill="#14213dA8"/><path d="M6.2 50.3a8 8 0 1 1 0-16 8 8 0 0 1 0 16" fill="#14213dAA"/><path d="M320.4-201.4a8 8 0 1 1 0-15.9 8 8 0 0 1 0 15.9" fill="#14213dAA"/><path d="M51.8-375.1a8 8 0 1 1 0-16 8 8 0 0 1 0 16" fill="#ffffffAA"/><path d="M12-363.5a8 8 0 1 1 0-16.1 8 8 0 0 1 0 16.1" fill="#112233AB"/><path d="M246.4-328.6a8.1 8.1 0 1 1 0-16.1 8.1 8.1 0 0 1 0 16.1" fill="#fca311AC"/><path d="M-28.6 34.7a8.1 8.1 0 1 1 0-16.3 8.1 8.1 0 0 1 0 16.3" fill="#ffffffAD"/><path d="M184.6 58.6a8.1 8.1 0 1 1 0-16.3 8.1 8.1 0 0 1 0 16.3" fill="#14213dAE"/><path d="M326.1-115a8.2 8.2 0 1 1 0-16.3 8.2 8.2 0 0 1 0 16.3" fill="#ffffffAE"/><path d="M-7.9-358.1a8.2 8.2 0 1 1 0-16.5 8.2 8.2 0 0 1 0 16.5" fill="#ffffffAF"/><path d="M-99.8-269.6a8.2 8.2 0 1 1 0-16.4 8.2 8.2 0 0 1 0 16.4" fill="#112233AF"/><path d="M246.4 24.7a8.3 8.3 0 1 1 0-16.5 8.3 8.3 0 0 1 0 16.5" fill="#112233B0"/><path d="M312.3-246.8a8.3 8.3 0 1 1 0-16.5 8.3 8.3 0 0 1 0 16.5" fill="#14213dB1"/><path d="M-53.9-327.3a8.3 8.3 0 1 1 0-16.6 8.3 8.3 0 0 1 0 16.6" fill="#e5e5e5B1"/><path d="M315.8-243.9a8.4 8.4 0 1 1 0-16.9 8.4 8.4 0 0 1 0 16.9" fill="#112233B4"/><path d="M206.6 54.3a8.5 8.5 0 1 1 0-16.9 8.5 8.5 0 0 1 0 16.9" fill="#14213dB5"/><path d="M244.5 30.4a8.5 8.5 0 1 1 0-17 8.5 8.5 0 0 1 0 17" fill="#112233B5"/><path d="M320.7-233.1a8.5 8.5 0 1 1 0-17 8.5 8.5 0 0 1 0 17" fill="#14213dB6"/><path d="M20.3-375.2a8.6 8.6 0 1 1 0-17.1 8.6 8.6 0 0 1 0 17.1" fill="#ffffffB7"/><path d="M57.5 77.4a8.6 8.6 0 1 1 0-17.2 8.6 8.6 0 0 1 0 17.2" fill="#112233B7"/><path d="M142.6-385.4a8.6 8.6 0 1 1 0-17.2 8.6 8.6 0 0 1 0 17.2" fill="#fca311B8"/><path d="M325.4-85.1a8.7 8.7 0 1 1 0-17.3 8.7 8.7 0 0 1 0 17.3" fill="#ffffffB9"/><path d="M233 40.8a8.7 8.7 0 1 1 0-17.4 8.7 8.7 0 0 1 0 17.4" fill="#112233B9"/><path d="M-133.9-122.7a8.7 8.7 0 1 1 0-17.4 8.7 8.7 0 0 1 0 17.4" fill="#fca311BA"/><path d="M310.5-46.8a8.8 8.8 0 1 1 0-17.5 8.8 8.8 0 0 1 0 17.5" fill="#fca311BB"/><path d="M221.3 48.8a8.8 8.8 0 1 1 0-17.5 8.8 8.8 0 0 1 0 17.5" fill="#fca311BB"/><path d="M320.9-237.1a8.8 8.8 0 1 1 0-17.5 8.8 8.8 0 0 1 0 17.5" fill="#e5e5e5BB"/><path d="M-80-0.7a8.8 8.8 0 1 1 0-17.7 8.8 8.8 0 0 1 0 17.7" fill="#112233BD"/><path d="M-125.5-224.1a8.9 8.9 0 1 1 0-17.7 8.9 8.9 0 0 1 0 17.7" fill="#112233BD"/><path d="M1.5-368.4a8.9 8.9 0 1 1 0-17.7 8.9 8.9 0 0 1 0 17.7" fill="#ffffffBE"/><path d="M330.8-103.1a8.9 8.9 0 1 1 0-17.7 8.9 8.9 0 0 1 0 17.7" fill="#112233BE"/><path d="M104.1-389.8a8.9 8.9 0 1 1 0-17.8 8.9 8.9 0 0 1 0 17.8" fill="#fca311BE"/><path d="M-83.8-5.2a8.9 8.9 0 1 1 0-17.8 8.9 8.9 0 0 1 0 17.8" fill="#ffffffBE"/><path d="M225.6-353.7a8.9 8.9 0 1 1 0-17.8 8.9 8.9 0 0 1 0 17.8" fill="#ffffffBE"/><path d="M-83-303a8.9 8.9 0 1 1 0-17.8 8.9 8.9 0 0 1 0 17.8" fill="#fca311BF"/><path d="M235.4 39.9a9 9 0 1 1 0-18 9 9 0 0 1 0 18" fill="#112233C0"/><path d="M163.9-380.7a9 9 0 1 1 0-18 9 9 0 0 1 0 18" fill="#fca311C1"/><path d="M-135.2-138.7a9.1 9.1 0 1 1 0-18.1 9.1 9.1 0 0 1 0 18.1" fill="#fca311C2"/><path d="M181 67.8a9.1 9.1 0 1 1 0-18.1 9.1 9.1 0 0 1 0 18.1" fill="#ffffffC2"/><path d="M326.4-88.3a9.1 9.1 0 1 1 0-18.2 9.1 9.1 0 0 1 0 18.2" fill="#fca311C3"/><path d="M-120.9-234.7a9.1 9.1 0 1 1 0-18.2 9.1 9.1 0 0 1 0 18.2" fill="#ffffffC3"/><path d="M-91.6-290.1a9.1 9.1 0 1 1 0-18.2 9.1 9.1 0 0 1 0 18.2" fill="#fca311C3"/><path d="M318.2-241.6a9.1 9.1 0 1 1 0-18.2 9.1 9.1 0 0 1 0 18.2" fill="#fca311C3"/><path d="M239.5-342.9a9.1 9.1 0 1 1 0-18.2 9.1 9.1 0 0 1 0 18.2" fill="#ffffffC3"/><path d="M144.3-383.9a9.2 9.2 0 1 1 0-18.3 9.2 9.2 0 0 1 0 18.3" fill="#112233C5"/><path d="M89.8-387.7a9.2 9.2 0 1 1 0-18.4 9.2 9.2 0 0 1 0 18.4" fill="#fca311C5"/><path d="M333.9-171.4a9.2 9.2 0 1 1 0-18.4 9.2 9.2 0 0 1 0 18.4" fill="#e5e5e5C5"/><path d="M324.7-220.1a9.2 9.2 0 1 1 0-18.5 9.2 9.2 0 0 1 0 18.5" fill="#e5e5e5C6"/><path d="M322-226.6a9.3 9.3 0 1 1 0-18.6 9.3 9.3 0 0 1 0 18.6" fill="#ffffffC7"/><path d="M156.7 72.6a9.4 9.4 0 1 1 0-18.8 9.4 9.4 0 0 1 0 18.8" fill="#e5e5e5C9"/><path d="M-124.6-97.7a9.5 9.5 0 1 1 0-18.9 9.5 9.5 0 0 1 0 18.9" fill="#112233CB"/><path d="M-125.4-201.9a9.5 9.5 0 1 1 0-19 9.5 9.5 0 0 1 0 19" fill="#ffffffCC"/><path d="M111.7 76.8a9.5 9.5 0 1 1 0-19.1 9.5 9.5 0 0 1 0 19.1" fill="#14213dCC"/><path d="M229.8 36.2a9.6 9.6 0 1 1 0-19.1 9.6 9.6 0 0 1 0 19.1" fill="#e5e5e5CD"/><path d="M-127.2-123a9.6 9.6 0 1 1 0-19.2 9.6 9.6 0 0 1 0 19.2" fill="#fca311CD"/><path d="M-109.5-243.8a9.6 9.6 0 1 1 0-19.3 9.6 9.6 0 0 1 0 19.3" fill="#14213dCE"/><path d="M315.1-229.6a9.6 9.6 0 1 1 0-19.2 9.6 9.6 0 0 1 0 19.2" fill="#ffffffCE"/><path d="M-31.5-338.7a9.6 9.6 0 1 1 0-19.3 9.6 9.6 0 0 1 0 19.3" fill="#14213dCF"/><path d="M327.5-152.8a9.7 9.7 0 1 1 0-19.4 9.7 9.7 0 0 1 0 19.4" fill="#112233CF"/><path d="M66.1 71.9a9.7 9.7 0 1 1 0-19.3 9.7 9.7 0 0 1 0 19.3" fill="#fca311CF"/><path d="M235.5-334.9a9.7 9.7 0 1 1 0-19.3 9.7 9.7 0 0 1 0 19.3" fill="#14213dD0"/><path d="M25.2-367a9.7 9.7 0 1 1 0-19.4 9.7 9.7 0 0 1 0 19.4" fill="#e5e5e5D0"/><path d="M16.1-363.4a9.7 9.7 0 1 1 0-19.4 9.7 9.7 0 0 1 0 19.4" fill="#14213dD0"/><path d="M-89.5-29.6a9.7 9.7 0 1 1 0-19.4 9.7 9.7 0 0 1 0 19.4" fill="#fca311D0"/><path d="M-81-17.8a9.7 9.7 0 1 1 0-19.5 9.7 9.7 0 0 1 0 19.5" fill="#e5e5e5D1"/><path d="M-120.1-107a9.8 9.8 0 1 1 0-19.6 9.8 9.8 0 0 1 0 19.6" fill="#ffffffD1"/><path d="M-112.2-79.1a9.8 9.8 0 1 1 0-19.6 9.8 9.8 0 0 1 0 19.6" fill="#14213dD2"/><path d="M-77-290.9a9.8 9.8 0 1 1 0-19.6 9.8 9.8 0 0 1 0 19.6" fill="#112233D2"/><path d="M309.2-232.4a9.8 9.8 0 1 1 0-19.6 9.8 9.8 0 0 1 0 19.6" fill="#fca311D2"/><path d="M287.1-31.3a9.8 9.8 0 1 1 0-19.7 9.8 9.8 0 0 1 0 19.7" fill="#112233D3"/><path d="M47.3-367.4a9.9 9.9 0 1 1 0-19.8 9.9 9.9 0 0 1 0 19.8" fill="#14213dD4"/><path d="M144.4 63.1a9.9 9.9 0 1 1 0-19.8 9.9 9.9 0 0 1 0 19.8" fill="#fca311D5"/><path d="M-110.1-218.7a9.9 9.9 0 1 1 0-19.9 9.9 9.9 0 0 1 0 19.9" fill="#fca311D5"/><path d="M224.4-334.2a9.9 9.9 0 1 1 0-19.9 9.9 9.9 0 0 1 0 19.9" fill="#ffffffD5"/><path d="M107.7-372.5a9.9 9.9 0 1 1 0-19.9 9.9 9.9 0 0 1 0 19.9" fill="#ffffffD5"/><path d="M281-28.6a10 10 0 1 1 0-19.9 10 10 0 0 1 0 19.9" fill="#ffffffD6"/><path d="M167.9 54.8a10 10 0 1 1 0-20 10 10 0 0 1 0 20" fill="#fca311D6"/><path d="M141.4 61.2a10 10 0 1 1 0-20 10 10 0 0 1 0 20" fill="#e5e5e5D7"/><path d="M314.9-117.9a10 10 0 1 1 0-20 10 10 0 0 1 0 20" fill="#e5e5e5D7"/><path d="M-76.6-25.9a10 10 0 1 1 0-20 10 10 0 0 1 0 20" fill="#ffffffD7"/><path d="M133.3-366.1a10 10 0 1 1 0-20.1 10 10 0 0 1 0 20.1" fill="#112233D8"/><path d="M218.6-331.9a10.1 10.1 0 1 1 0-20.2 10.1 10.1 0 0 1 0 20.2" fill="#fca311D8"/><path d="M313.1-138.5a10.1 10.1 0 1 1 0-20.2 10.1 10.1 0 0 1 0 20.2" fill="#112233D9"/><path d="M-7.4 22.1a10.3 10.3 0 1 1 0-20.7 10.3 10.3 0 0 1 0 20.7" fill="#e5e5e5DE"/><path d="M287.6-232.2a10.3 10.3 0 1 1 0-20.7 10.3 10.3 0 0 1 0 20.7" fill="#fca311DE"/><path d="M84.5-354.2a10.4 10.4 0 1 1 0-20.8 10.4 10.4 0 0 1 0 20.8" fill="#fca311DF"/><path d="M292-204.7a10.5 10.5 0 1 1 0-20.9 10.5 10.5 0 0 1 0 20.9" fill="#112233E1"/><path d="M31.7-333.9a10.5 10.5 0 1 1 0-21.1 10.5 10.5 0 0 1 0 21.1" fill="#fca311E2"/><path d="M289.1-196.8a10.5 10.5 0 1 1 0-21.1 10.5 10.5 0 0 1 0 21.1" fill="#e5e5e5E2"/><path d="M241.5-282.5a10.6 10.6 0 1 1 0-21.1 10.6 10.6 0 0 1 0 21.1" fill="#112233E3"/><path d="M48.2 31.4a10.6 10.6 0 1 1 0-21.2 10.6 10.6 0 0 1 0 21.2" fill="#ffffffE4"/><path d="M278.5-216.6a10.6 10.6 0 1 1 0-21.2 10.6 10.6 0 0 1 0 21.2" fill="#ffffffE4"/><path d="M286.4-182.6a10.6 10.6 0 1 1 0-21.3 10.6 10.6 0 0 1 0 21.3" fill="#112233E5"/><path d="M250.6-265.5a10.6 10.6 0 1 1 0-21.2 10.6 10.6 0 0 1 0 21.2" fill="#14213dE5"/><path d="M-83.3-129.5a10.7 10.7 0 1 1 0-21.4 10.7 10.7 0 0 1 0 21.4" fill="#fca311E6"/><path d="M3.4-1.7a10.8 10.8 0 1 1 0-21.6 10.8 10.8 0 0 1 0 21.6" fill="#e5e5e5E8"/><path d="M-77.4-148.7a10.8 10.8 0 1 1 0-21.6 10.8 10.8 0 0 1 0 21.6" fill="#fca311E8"/><path d="M-32.2-35.1a10.8 10.8 0 1 1 0-21.6 10.8 10.8 0 0 1 0 21.6" fill="#112233E9"/><path d="M125-318.4a10.9 10.9 0 1 1 0-21.9 10.9 10.9 0 0 1 0 21.9" fill="#e5e5e5EB"/><path d="M-38.8-56.3a10.9 10.9 0 1 1 0-21.9 10.9 10.9 0 0 1 0 21.9" fill="#ffffffEB"/><path d="M-64.6-151.7a11 11 0 1 1 0-22 11 11 0 0 1 0 22" fill="#112233EC"/><path d="M91.8-313.8a11 11 0 1 1 0-22 11 11 0 0 1 0 22" fill="#112233ED"/><path d="M105.8-312.6a11 11 0 1 1 0-22 11 11 0 0 1 0 22" fill="#ffffffED"/><path d="M248.3-214.3a11 11 0 1 1 0-22.1 11 11 0 0 1 0 22.1" fill="#fca311ED"/><path d="M-55.1-176.2a11.1 11.1 0 1 1 0-22.2 11.1 11.1 0 0 1 0 22.2" fill="#112233EE"/><path d="M213.1-259a11.1 11.1 0 1 1 0-22.2 11.1 11.1 0 0 1 0 22.2" fill="#ffffffEE"/><path d="M-43.3-92.9a11.1 11.1 0 1 1 0-22.2 11.1 11.1 0 0 1 0 22.2" fill="#e5e5e5EF"/><path d="M243-183.7a11.2 11.2 0 1 1 0-22.3 11.2 11.2 0 0 1 0 22.3" fill="#fca311F0"/><path d="M88.7-294.3a11.2 11.2 0 1 1 0-22.4 11.2 11.2 0 0 1 0 22.4" fill="#fca311F1"/><path d="M-20.5-73.7a11.2 11.2 0 1 1 0-22.5 11.2 11.2 0 0 1 0 22.5" fill="#e5e5e5F1"/><path d="M25.7-37.6a11.3 11.3 0 1 1 0-22.5 11.3 11.3 0 0 1 0 22.5" fill="#112233F3"/><path d="M16-53.9a11.3 11.3 0 1 1 0-22.6 11.3 11.3 0 0 1 0 22.6" fill="#14213dF4"/><path d="M214.4-95.1a11.3 11.3 0 1 1 0-22.7 11.3 11.3 0 0 1 0 22.7" fill="#fca311F4"/><path d="M45-261.6a11.4 11.4 0 1 1 0-22.7 11.4 11.4 0 0 1 0 22.7" fill="#112233F5"/><path d="M174.2-247.7a11.4 11.4 0 1 1 0-22.8 11.4 11.4 0 0 1 0 22.8" fill="#112233F5"/><path d="M-14.2-115a11.4 11.4 0 1 1 0-22.8 11.4 11.4 0 0 1 0 22.8" fill="#14213dF6"/><path d="M124.9-40.6a11.5 11.5 0 1 1 0-22.9 11.5 11.5 0 0 1 0 22.9" fill="#112233F7"/><path d="M152.6-62.3a11.5 11.5 0 1 1 0-23 11.5 11.5 0 0 1 0 23" fill="#fca311F8"/><path d="M123.1-58.7a11.6 11.6 0 1 1 0-23.1 11.6 11.6 0 0 1 0 23.1" fill="#fca311F9"/><path d="M87.7-76.8a11.7 11.7 0 1 1 0-23.3 11.7 11.7 0 0 1 0 23.3" fill="#e5e5e5FB"/><path d="M45.8-112.1a11.7 11.7 0 1 1 0-23.4 11.7 11.7 0 0 1 0 23.4" fill="#fca311FC"/><path d="M131.3-202.5a11.7 11.7 0 1 1 0-23.4 11.7 11.7 0 0 1 0 23.4" fill="#fca311FC"/></g></svg>