<svg width="1200" height="675" viewBox="-500 -500 1200 675" xmlns="http://www.w3.org/2000/svg"><path d="M-500-500h1200v675h-1200z" fill="#000"/><style>.sparkles path{stroke-linecap:round; stroke-width:1}</style><g class="sparkles"><path d="M100-162.5l13.9-30.9" stroke="#005bbb32"/><path d="M100-162.5l12.4-33.3" stroke="#c2e1ff32"/><path d="M100-162.5l-14.2 41.8" stroke="#fff32"/><path d="M100-162.5l-22.5 39.4" stroke="#fff50032"/><path d="M100-162.5l-47.9 3.1" stroke="#005bbb33"/><path d="M100-162.5l29.5-40.6" stroke="#005bbb33"/><path d="M100-162.5l9.5 66.5" stroke="#fff34"/><path d="M100-162.5l-32.7 64.6" stroke="#005bbb34"/><path d="M100-162.5l73.1 4.2" stroke="#005bbb34"/><path d="M100-162.5l-39.3-67.6" stroke="#c2e1ff34"/><path d="M100-162.5l68.7 43.6" stroke="#fff50035"/><path d="M100-162.5l-41.5 84.1" stroke="#fff50036"/><path d="M100-162.5l-100.5 10.1" stroke="#fff36"/><path d="M100-162.5l-78.4 64" stroke="#fff50036"/><path d="M100-162.5l-97.2-41.5" stroke="#fff37"/><path d="M100-162.5l60-98.8" stroke="#c2e1ff38"/><path d="M100-162.5l35.4 112.1" stroke="#005bbb38"/><path d="M100-162.5l95.3-73.4" stroke="#fff50038"/><path d="M100-162.5l123.3 0" stroke="#005bbb39"/><path d="M100-162.5l-85.8-98.4" stroke="#fff5003A"/><path d="M100-162.5l138.5 21.9" stroke="#005bbb3B"/><path d="M100-162.5l-31.9 140.7" stroke="#c2e1ff3C"/><path d="M100-162.5l-48.2 136.5" stroke="#c2e1ff3C"/><path d="M100-162.5l79.1 121.4" stroke="#c2e1ff3C"/><path d="M100-162.5l112.7-97.6" stroke="#fff5003D"/><path d="M100-162.5l-28.2 148" stroke="#fff3D"/><path d="M100-162.5l-89-122" stroke="#c2e1ff3D"/><path d="M100-162.5l-68.8-135.4" stroke="#005bbb3D"/><path d="M100-162.5l-138.9 62.7" stroke="#fff3D"/><path d="M100-162.5l54.2 143.2" stroke="#c2e1ff3D"/><path d="M100-162.5l-152.4-15.7" stroke="#005bbb3D"/><path d="M100-162.5l15.6 153.7" stroke="#fff5003E"/><path d="M100-162.5l-42.7 156" stroke="#fff3F"/><path d="M100-162.5l-90.1 139.5" stroke="#fff40"/><path d="M100-162.5l-77.2 148.6" stroke="#005bbb40"/><path d="M100-162.5l-71.6-157.7" stroke="#fff50041"/><path d="M100-162.5l2.1 175.7" stroke="#fff50042"/><path d="M100-162.5l118.6-136.8" stroke="#fff50043"/><path d="M100-162.5l45.9-176.3" stroke="#005bbb44"/><path d="M100-162.5l178 50.7" stroke="#005bbb44"/><path d="M100-162.5l166 84.4" stroke="#005bbb45"/><path d="M100-162.5l-139 124.9" stroke="#fff50045"/><path d="M100-162.5l180.7 48.9" stroke="#fff50045"/><path d="M100-162.5l19.8 186.7" stroke="#005bbb45"/><path d="M100-162.5l-148.2 119.8" stroke="#fff50046"/><path d="M100-162.5l167.3 95.6" stroke="#fff50047"/><path d="M100-162.5l-36.2-189.6" stroke="#c2e1ff47"/><path d="M100-162.5l-75.5 179.3" stroke="#fff47"/><path d="M100-162.5l101.7 166.2" stroke="#fff47"/><path d="M100-162.5l168.4 103.5" stroke="#fff48"/><path d="M100-162.5l178.7-84.8" stroke="#c2e1ff48"/><path d="M100-162.5l125.6 155.7" stroke="#fff49"/><path d="M100-162.5l-99.7-175.7" stroke="#fff5004A"/><path d="M100-162.5l77.9 187.8" stroke="#fff4A"/><path d="M100-162.5l-125.3-160.2" stroke="#c2e1ff4A"/><path d="M100-162.5l42-199.7" stroke="#fff4A"/><path d="M100-162.5l-11.4 204" stroke="#005bbb4A"/><path d="M100-162.5l135.6-153.9" stroke="#005bbb4B"/><path d="M100-162.5l131.9-158.6" stroke="#005bbb4B"/><path d="M100-162.5l194.8-70.2" stroke="#fff5004B"/><path d="M100-162.5l-159.7 134.6" stroke="#c2e1ff4C"/><path d="M100-162.5l210.2 46.2" stroke="#fff4F"/><path d="M100-162.5l-60.2 209" stroke="#c2e1ff50"/><path d="M100-162.5l-206.4 69.9" stroke="#fff50050"/><path d="M100-162.5l-178.1 130.4" stroke="#fff50052"/><path d="M100-162.5l113.2 190.2" stroke="#005bbb52"/><path d="M100-162.5l209.8-74.2" stroke="#005bbb53"/><path d="M100-162.5l-187.3-126.2" stroke="#fff55"/><path d="M100-162.5l221.9 42.5" stroke="#c2e1ff55"/><path d="M100-162.5l222.4 40.7" stroke="#005bbb55"/><path d="M100-162.5l-221.8 44.3" stroke="#c2e1ff55"/><path d="M100-162.5l-121.5 191.7" stroke="#fff56"/><path d="M100-162.5l227.7-9.3" stroke="#005bbb56"/><path d="M100-162.5l13.9 227.8" stroke="#005bbb57"/><path d="M100-162.5l-225.8-33.9" stroke="#fff50057"/><path d="M100-162.5l-82-214.5" stroke="#c2e1ff58"/><path d="M100-162.5l-189.1 130.3" stroke="#fff58"/><path d="M100-162.5l-208.4 98" stroke="#fff50058"/><path d="M100-162.5l-197.5-118.5" stroke="#c2e1ff58"/><path d="M100-162.5l169.2 157.4" stroke="#005bbb59"/><path d="M100-162.5l181.4 143.4" stroke="#fff59"/><path d="M100-162.5l-229.5-36.1" stroke="#c2e1ff5A"/><path d="M100-162.5l228.3-49.6" stroke="#c2e1ff5C"/><path d="M100-162.5l-199.7 122.1" stroke="#fff5D"/><path d="M100-162.5l226.3 60.9" stroke="#005bbb5D"/><path d="M100-162.5l-227.7-56.5" stroke="#fff5005E"/><path d="M100-162.5l0.6-235" stroke="#005bbb5E"/><path d="M100-162.5l-186.8-143" stroke="#fff5F"/><path d="M100-162.5l82.2-220.5" stroke="#fff5F"/><path d="M100-162.5l221.9 78.3" stroke="#c2e1ff5F"/><path d="M100-162.5l99.1-213.5" stroke="#c2e1ff5F"/><path d="M100-162.5l232.5 38.2" stroke="#fff50060"/><path d="M100-162.5l20.8-235.3" stroke="#005bbb62"/><path d="M100-162.5l-123.7-201.2" stroke="#fff50063"/><path d="M100-162.5l-235.7-16.3" stroke="#fff63"/><path d="M100-162.5l-25.6 234.9" stroke="#c2e1ff64"/><path d="M100-162.5l-233.6-35.4" stroke="#fff50064"/><path d="M100-162.5l-132.7-195.4" stroke="#fff50064"/><path d="M100-162.5l168.4-165.6" stroke="#c2e1ff65"/><path d="M100-162.5l-136 192.9" stroke="#c2e1ff66"/><path d="M100-162.5l123 200.9" stroke="#fff67"/><path d="M100-162.5l-89.3-217.9" stroke="#fff50067"/><path d="M100-162.5l181.6-149.6" stroke="#fff50068"/><path d="M100-162.5l-205.6 113.5" stroke="#005bbb69"/><path d="M100-162.5l170.7-160.9" stroke="#005bbb69"/><path d="M100-162.5l228 52.6" stroke="#fff6A"/><path d="M100-162.5l-119.2-200.7" stroke="#005bbb6B"/><path d="M100-162.5l-75.9 220.2" stroke="#c2e1ff6C"/><path d="M100-162.5l-28.9-230.5" stroke="#005bbb6D"/><path d="M100-162.5l87.4-215" stroke="#fff6D"/><path d="M100-162.5l-217.6-79.2" stroke="#fff6D"/><path d="M100-162.5l145.1 180.2" stroke="#fff6E"/><path d="M100-162.5l-219.4 72.1" stroke="#c2e1ff6E"/><path d="M100-162.5l-126.3 192.4" stroke="#005bbb6F"/><path d="M100-162.5l-188-132.8" stroke="#005bbb6F"/><path d="M100-162.5l-220.6-65.4" stroke="#fff6F"/><path d="M100-162.5l224.1-50.6" stroke="#fff5006F"/><path d="M100-162.5l228.6 17.5" stroke="#005bbb70"/><path d="M100-162.5l-141.9 179.9" stroke="#c2e1ff70"/><path d="M100-162.5l109.4 200.8" stroke="#c2e1ff70"/><path d="M100-162.5l-10-228.3" stroke="#005bbb70"/><path d="M100-162.5l-219.7-54.4" stroke="#fff50072"/><path d="M100-162.5l-74.9-208.9" stroke="#fff50075"/><path d="M100-162.5l195.6 104" stroke="#fff75"/><path d="M100-162.5l188.6-116.3" stroke="#c2e1ff75"/><path d="M100-162.5l210.7 67.7" stroke="#fff75"/><path d="M100-162.5l-161.3-151.4" stroke="#c2e1ff75"/><path d="M100-162.5l-64.8 208" stroke="#fff77"/><path d="M100-162.5l-39.5-212.8" stroke="#c2e1ff78"/><path d="M100-162.5l-116.7-181" stroke="#c2e1ff78"/><path d="M100-162.5l-90.6 193.1" stroke="#c2e1ff79"/><path d="M100-162.5l-212.6-14" stroke="#c2e1ff79"/><path d="M100-162.5l-178.2 107.6" stroke="#fff7B"/><path d="M100-162.5l22-205.9" stroke="#fff5007C"/><path d="M100-162.5l-88.7-186" stroke="#005bbb7C"/><path d="M100-162.5l107.2-173.2" stroke="#fff7D"/><path d="M100-162.5l-110.5 171" stroke="#005bbb7D"/><path d="M100-162.5l102.5-173.8" stroke="#fff7D"/><path d="M100-162.5l79.4-183.8" stroke="#fff7E"/><path d="M100-162.5l27.7 192.4" stroke="#fff80"/><path d="M100-162.5l-175.8-81.6" stroke="#fff50080"/><path d="M100-162.5l188.4 34.7" stroke="#c2e1ff81"/><path d="M100-162.5l182.2 47.6" stroke="#fff50082"/><path d="M100-162.5l-182.4 45.5" stroke="#fff82"/><path d="M100-162.5l140.2 124.4" stroke="#fff50082"/><path d="M100-162.5l184 25.6" stroke="#005bbb82"/><path d="M100-162.5l-182.4 27.6" stroke="#005bbb83"/><path d="M100-162.5l181.6 30" stroke="#fff83"/><path d="M100-162.5l139.6 113" stroke="#c2e1ff84"/><path d="M100-162.5l133-116.6" stroke="#c2e1ff85"/><path d="M100-162.5l-45.1 169" stroke="#c2e1ff85"/><path d="M100-162.5l107.6-137.7" stroke="#fff85"/><path d="M100-162.5l170.5-36.7" stroke="#fff50085"/><path d="M100-162.5l-91.2 148.6" stroke="#fff85"/><path d="M100-162.5l-158.8 67.2" stroke="#fff50086"/><path d="M100-162.5l124.9-115.5" stroke="#c2e1ff86"/><path d="M100-162.5l63.1 156.1" stroke="#c2e1ff87"/><path d="M100-162.5l69.2-149.3" stroke="#005bbb87"/><path d="M100-162.5l-11.9 160.8" stroke="#fff50088"/><path d="M100-162.5l-160.1-10" stroke="#fff50088"/><path d="M100-162.5l-87-128.7" stroke="#fff89"/><path d="M100-162.5l-126.6-88.4" stroke="#c2e1ff89"/><path d="M100-162.5l125.4-85" stroke="#c2e1ff8A"/><path d="M100-162.5l72.9 132.6" stroke="#fff5008A"/><path d="M100-162.5l46.3 142.5" stroke="#fff5008A"/><path d="M100-162.5l35.5 145.4" stroke="#005bbb8A"/><path d="M100-162.5l-80-123.4" stroke="#c2e1ff8B"/><path d="M100-162.5l-119.7-76" stroke="#005bbb8B"/><path d="M100-162.5l138.1-29" stroke="#fff5008C"/><path d="M100-162.5l-101.8 95.3" stroke="#fff5008C"/><path d="M100-162.5l49.4-112.4" stroke="#005bbb8E"/><path d="M100-162.5l-115.7 9.5" stroke="#fff8F"/><path d="M100-162.5l96.8-51.3" stroke="#fff90"/><path d="M100-162.5l107-1.1" stroke="#fff50090"/><path d="M100-162.5l-78 48.7" stroke="#fff92"/><path d="M100-162.5l-8.4-68.6" stroke="#005bbb93"/><path d="M100-162.5l18.3-66.1" stroke="#fff50093"/><path d="M100-162.5l-49.5-13.1" stroke="#fff50094"/><path d="M100-162.5l-26.7-33.5" stroke="#c2e1ff95"/><path d="M100-162.5l-42-8.2" stroke="#fff50095"/><path d="M100-162.5l25.2 15.3" stroke="#fff50095"/></g><g class="sparcs"><path d="M113.9-187.4a5.9 5.9 0 1 1 0-11.9 5.9 5.9 0 0 1 0 11.9" fill="#005bbb7D"/><path d="M112.4-189.8a5.9 5.9 0 1 1 0-11.9 5.9 5.9 0 0 1 0 11.9" fill="#fff5007D"/><path d="M85.8-114.7a6 6 0 1 1 0-11.9 6 6 0 0 1 0 11.9" fill="#fff5007E"/><path d="M77.5-117.2a6 6 0 1 1 0-11.9 6 6 0 0 1 0 11.9" fill="#c2e1ff7E"/><path d="M52.1-153.4a6 6 0 1 1 0-11.9 6 6 0 0 1 0 11.9" fill="#c2e1ff7E"/><path d="M129.5-197.2a6 6 0 1 1 0-11.9 6 6 0 0 1 0 11.9" fill="#005bbb7E"/><path d="M109.5-90a6 6 0 1 1 0-12.1 6 6 0 0 1 0 12.1" fill="#005bbb7F"/><path d="M67.3-91.9a6 6 0 1 1 0-12.1 6 6 0 0 1 0 12.1" fill="#c2e1ff80"/><path d="M173.1-152.3a6.1 6.1 0 1 1 0-12.1 6.1 6.1 0 0 1 0 12.1" fill="#fff50080"/><path d="M60.7-224a6.1 6.1 0 1 1 0-12.1 6.1 6.1 0 0 1 0 12.1" fill="#c2e1ff80"/><path d="M168.7-112.8a6.1 6.1 0 1 1 0-12.2 6.1 6.1 0 0 1 0 12.2" fill="#c2e1ff80"/><path d="M58.5-72.2a6.1 6.1 0 1 1 0-12.3 6.1 6.1 0 0 1 0 12.3" fill="#fff82"/><path d="M-0.5-146.2a6.2 6.2 0 1 1 0-12.4 6.2 6.2 0 0 1 0 12.4" fill="#fff83"/><path d="M21.6-92.3a6.2 6.2 0 1 1 0-12.4 6.2 6.2 0 0 1 0 12.4" fill="#c2e1ff83"/><path d="M2.8-197.8a6.2 6.2 0 1 1 0-12.4 6.2 6.2 0 0 1 0 12.4" fill="#c2e1ff83"/><path d="M160-255a6.3 6.3 0 1 1 0-12.6 6.3 6.3 0 0 1 0 12.6" fill="#fff50085"/><path d="M135.4-44.1a6.3 6.3 0 1 1 0-12.6 6.3 6.3 0 0 1 0 12.6" fill="#c2e1ff85"/><path d="M195.3-229.6a6.3 6.3 0 1 1 0-12.6 6.3 6.3 0 0 1 0 12.6" fill="#fff86"/><path d="M223.3-156.2a6.3 6.3 0 1 1 0-12.6 6.3 6.3 0 0 1 0 12.6" fill="#005bbb86"/><path d="M14.2-254.5a6.4 6.4 0 1 1 0-12.8 6.4 6.4 0 0 1 0 12.8" fill="#005bbb87"/><path d="M238.5-134.1a6.5 6.5 0 1 1 0-13 6.5 6.5 0 0 1 0 13" fill="#fff50089"/><path d="M68.1-15.3a6.5 6.5 0 1 1 0-13 6.5 6.5 0 0 1 0 13" fill="#fff8A"/><path d="M51.8-19.5a6.5 6.5 0 1 1 0-13.1 6.5 6.5 0 0 1 0 13.1" fill="#fff8A"/><path d="M179.1-34.6a6.5 6.5 0 1 1 0-13 6.5 6.5 0 0 1 0 13" fill="#fff5008A"/><path d="M212.7-253.5a6.6 6.6 0 1 1 0-13.2 6.6 6.6 0 0 1 0 13.2" fill="#c2e1ff8B"/><path d="M71.8-7.9a6.6 6.6 0 1 1 0-13.2 6.6 6.6 0 0 1 0 13.2" fill="#c2e1ff8B"/><path d="M11-277.9a6.6 6.6 0 1 1 0-13.2 6.6 6.6 0 0 1 0 13.2" fill="#fff8C"/><path d="M31.2-291.3a6.6 6.6 0 1 1 0-13.2 6.6 6.6 0 0 1 0 13.2" fill="#c2e1ff8C"/><path d="M-38.9-93.2a6.6 6.6 0 1 1 0-13.2 6.6 6.6 0 0 1 0 13.2" fill="#005bbb8C"/><path d="M154.2-12.7a6.6 6.6 0 1 1 0-13.2 6.6 6.6 0 0 1 0 13.2" fill="#fff5008C"/><path d="M-52.4-171.6a6.6 6.6 0 1 1 0-13.2 6.6 6.6 0 0 1 0 13.2" fill="#fff8C"/><path d="M115.6-2.2a6.6 6.6 0 1 1 0-13.3 6.6 6.6 0 0 1 0 13.3" fill="#005bbb8C"/><path d="M57.3 0.2a6.7 6.7 0 1 1 0-13.4 6.7 6.7 0 0 1 0 13.4" fill="#c2e1ff8E"/><path d="M9.9-16.2a6.8 6.8 0 1 1 0-13.6 6.8 6.8 0 0 1 0 13.6" fill="#fff5008F"/><path d="M22.8-7.1a6.8 6.8 0 1 1 0-13.6 6.8 6.8 0 0 1 0 13.6" fill="#fff90"/><path d="M28.4-313.3a6.9 6.9 0 1 1 0-13.7 6.9 6.9 0 0 1 0 13.7" fill="#c2e1ff91"/><path d="M102.1 20.1a6.9 6.9 0 1 1 0-13.8 6.9 6.9 0 0 1 0 13.8" fill="#005bbb92"/><path d="M218.6-292.3a7 7 0 1 1 0-13.9 7 7 0 0 1 0 13.9" fill="#fff50094"/><path d="M145.9-331.8a7 7 0 1 1 0-14 7 7 0 0 1 0 14" fill="#fff50094"/><path d="M278-104.8a7 7 0 1 1 0-14 7 7 0 0 1 0 14" fill="#c2e1ff95"/><path d="M266-71.1a7 7 0 1 1 0-14.1 7 7 0 0 1 0 14.1" fill="#fff50095"/><path d="M-39-30.6a7.1 7.1 0 1 1 0-14.1 7.1 7.1 0 0 1 0 14.1" fill="#fff50096"/><path d="M280.7-106.6a7.1 7.1 0 1 1 0-14.1 7.1 7.1 0 0 1 0 14.1" fill="#fff96"/><path d="M119.8 31.2a7.1 7.1 0 1 1 0-14.1 7.1 7.1 0 0 1 0 14.1" fill="#c2e1ff96"/><path d="M-48.2-35.6a7.1 7.1 0 1 1 0-14.2 7.1 7.1 0 0 1 0 14.2" fill="#fff50097"/><path d="M267.3-59.8a7.2 7.2 0 1 1 0-14.3 7.2 7.2 0 0 1 0 14.3" fill="#fff50098"/><path d="M63.8-345a7.2 7.2 0 1 1 0-14.3 7.2 7.2 0 0 1 0 14.3" fill="#fff98"/><path d="M24.5 24a7.2 7.2 0 1 1 0-14.4 7.2 7.2 0 0 1 0 14.4" fill="#fff99"/><path d="M201.7 10.9a7.2 7.2 0 1 1 0-14.3 7.2 7.2 0 0 1 0 14.3" fill="#fff50099"/><path d="M268.4-51.8a7.2 7.2 0 1 1 0-14.4 7.2 7.2 0 0 1 0 14.4" fill="#c2e1ff9A"/><path d="M278.7-240a7.2 7.2 0 1 1 0-14.5 7.2 7.2 0 0 1 0 14.5" fill="#005bbb9A"/><path d="M225.6 0.5a7.3 7.3 0 1 1 0-14.6 7.3 7.3 0 0 1 0 14.6" fill="#fff5009B"/><path d="M0.3-330.8a7.3 7.3 0 1 1 0-14.7 7.3 7.3 0 0 1 0 14.7" fill="#005bbb9C"/><path d="M177.9 32.6a7.4 7.4 0 1 1 0-14.7 7.4 7.4 0 0 1 0 14.7" fill="#005bbb9C"/><path d="M-25.3-315.3a7.4 7.4 0 1 1 0-14.7 7.4 7.4 0 0 1 0 14.7" fill="#c2e1ff9C"/><path d="M142-354.8a7.4 7.4 0 1 1 0-14.8 7.4 7.4 0 0 1 0 14.8" fill="#fff9D"/><path d="M88.6 48.8a7.4 7.4 0 1 1 0-14.7 7.4 7.4 0 0 1 0 14.7" fill="#fff9D"/><path d="M235.6-309.1a7.4 7.4 0 1 1 0-14.7 7.4 7.4 0 0 1 0 14.7" fill="#fff9D"/><path d="M231.9-313.7a7.4 7.4 0 1 1 0-14.9 7.4 7.4 0 0 1 0 14.9" fill="#c2e1ff9E"/><path d="M294.8-225.2a7.4 7.4 0 1 1 0-14.9 7.4 7.4 0 0 1 0 14.9" fill="#005bbb9E"/><path d="M-59.7-20.4a7.5 7.5 0 1 1 0-15 7.5 7.5 0 0 1 0 15" fill="#c2e1ff9F"/><path d="M310.2-108.6a7.6 7.6 0 1 1 0-15.3 7.6 7.6 0 0 1 0 15.3" fill="#c2e1ffA3"/><path d="M39.8 54.2a7.7 7.7 0 1 1 0-15.4 7.7 7.7 0 0 1 0 15.4" fill="#fffA4"/><path d="M-106.4-84.9a7.7 7.7 0 1 1 0-15.5 7.7 7.7 0 0 1 0 15.5" fill="#fff500A4"/><path d="M-78.1-24.3a7.8 7.8 0 1 1 0-15.7 7.8 7.8 0 0 1 0 15.7" fill="#c2e1ffA6"/><path d="M213.2 35.5a7.8 7.8 0 1 1 0-15.6 7.8 7.8 0 0 1 0 15.6" fill="#fffA7"/><path d="M309.8-228.8a7.9 7.9 0 1 1 0-15.7 7.9 7.9 0 0 1 0 15.7" fill="#fff500A8"/><path d="M-87.3-280.7a8 8 0 1 1 0-16 8 8 0 0 1 0 16" fill="#005bbbAA"/><path d="M321.9-112a8 8 0 1 1 0-16 8 8 0 0 1 0 16" fill="#fffAB"/><path d="M322.4-113.8a8 8 0 1 1 0-16.1 8 8 0 0 1 0 16.1" fill="#c2e1ffAB"/><path d="M-121.8-110.2a8 8 0 1 1 0-16 8 8 0 0 1 0 16" fill="#fff500AB"/><path d="M-21.5 37.3a8 8 0 1 1 0-16.1 8 8 0 0 1 0 16.1" fill="#005bbbAB"/><path d="M327.7-163.7a8.1 8.1 0 1 1 0-16.2 8.1 8.1 0 0 1 0 16.2" fill="#fff500AC"/><path d="M113.9 73.3a8.1 8.1 0 1 1 0-16.1 8.1 8.1 0 0 1 0 16.1" fill="#fffAD"/><path d="M-125.8-188.3a8.1 8.1 0 1 1 0-16.2 8.1 8.1 0 0 1 0 16.2" fill="#fff500AD"/><path d="M18-368.8a8.2 8.2 0 1 1 0-16.4 8.2 8.2 0 0 1 0 16.4" fill="#c2e1ffAE"/><path d="M-89.1-24a8.2 8.2 0 1 1 0-16.4 8.2 8.2 0 0 1 0 16.4" fill="#c2e1ffAE"/><path d="M-108.4-56.3a8.2 8.2 0 1 1 0-16.4 8.2 8.2 0 0 1 0 16.4" fill="#c2e1ffAF"/><path d="M-97.5-272.8a8.2 8.2 0 1 1 0-16.4 8.2 8.2 0 0 1 0 16.4" fill="#005bbbAF"/><path d="M269.2 3.1a8.2 8.2 0 1 1 0-16.5 8.2 8.2 0 0 1 0 16.5" fill="#fffB0"/><path d="M281.4-10.9a8.3 8.3 0 1 1 0-16.5 8.3 8.3 0 0 1 0 16.5" fill="#fff500B0"/><path d="M-129.5-190.3a8.3 8.3 0 1 1 0-16.6 8.3 8.3 0 0 1 0 16.6" fill="#005bbbB2"/><path d="M328.3-203.7a8.4 8.4 0 1 1 0-16.8 8.4 8.4 0 0 1 0 16.8" fill="#fff500B4"/><path d="M-99.7-31.9a8.5 8.5 0 1 1 0-17 8.5 8.5 0 0 1 0 17" fill="#fff500B5"/><path d="M326.3-93.1a8.5 8.5 0 1 1 0-17 8.5 8.5 0 0 1 0 17" fill="#c2e1ffB5"/><path d="M-127.7-210.5a8.5 8.5 0 1 1 0-17 8.5 8.5 0 0 1 0 17" fill="#c2e1ffB6"/><path d="M100.6-388.9a8.6 8.6 0 1 1 0-17.1 8.6 8.6 0 0 1 0 17.1" fill="#fffB7"/><path d="M-86.8-296.9a8.6 8.6 0 1 1 0-17.2 8.6 8.6 0 0 1 0 17.2" fill="#c2e1ffB8"/><path d="M182.2-374.4a8.6 8.6 0 1 1 0-17.2 8.6 8.6 0 0 1 0 17.2" fill="#fffB8"/><path d="M321.9-75.6a8.6 8.6 0 1 1 0-17.2 8.6 8.6 0 0 1 0 17.2" fill="#fffB8"/><path d="M199.1-367.4a8.6 8.6 0 1 1 0-17.2 8.6 8.6 0 0 1 0 17.2" fill="#fff500B8"/><path d="M332.5-115.7a8.6 8.6 0 1 1 0-17.3 8.6 8.6 0 0 1 0 17.3" fill="#005bbbB9"/><path d="M120.8-389a8.8 8.8 0 1 1 0-17.5 8.8 8.8 0 0 1 0 17.5" fill="#005bbbBC"/><path d="M-23.7-354.9a8.8 8.8 0 1 1 0-17.6 8.8 8.8 0 0 1 0 17.6" fill="#005bbbBC"/><path d="M-135.7-170a8.8 8.8 0 1 1 0-17.7 8.8 8.8 0 0 1 0 17.7" fill="#fff500BD"/><path d="M74.4 81.2a8.9 8.9 0 1 1 0-17.7 8.9 8.9 0 0 1 0 17.7" fill="#fff500BE"/><path d="M-133.6-189.1a8.9 8.9 0 1 1 0-17.7 8.9 8.9 0 0 1 0 17.7" fill="#005bbbBE"/><path d="M-32.7-349a8.9 8.9 0 1 1 0-17.8 8.9 8.9 0 0 1 0 17.8" fill="#005bbbBF"/><path d="M268.4-319.1a8.9 8.9 0 1 1 0-17.9 8.9 8.9 0 0 1 0 17.9" fill="#fffBF"/><path d="M-36 39.4a9 9 0 1 1 0-18 9 9 0 0 1 0 18" fill="#fff500C1"/><path d="M223 47.5a9.1 9.1 0 1 1 0-18.2 9.1 9.1 0 0 1 0 18.2" fill="#fff500C2"/><path d="M10.7-371.4a9.1 9.1 0 1 1 0-18.1 9.1 9.1 0 0 1 0 18.1" fill="#005bbbC3"/><path d="M281.6-303a9.1 9.1 0 1 1 0-18.2 9.1 9.1 0 0 1 0 18.2" fill="#fffC3"/><path d="M-105.6-39.9a9.2 9.2 0 1 1 0-18.3 9.2 9.2 0 0 1 0 18.3" fill="#c2e1ffC5"/><path d="M270.7-314.2a9.2 9.2 0 1 1 0-18.4 9.2 9.2 0 0 1 0 18.4" fill="#c2e1ffC5"/><path d="M328-100.7a9.3 9.3 0 1 1 0-18.5 9.3 9.3 0 0 1 0 18.5" fill="#005bbbC6"/><path d="M-19.2-353.9a9.3 9.3 0 1 1 0-18.6 9.3 9.3 0 0 1 0 18.6" fill="#fff500C8"/><path d="M24.1 67a9.4 9.4 0 1 1 0-18.7 9.4 9.4 0 0 1 0 18.7" fill="#fffC8"/><path d="M71.1-383.6a9.4 9.4 0 1 1 0-18.8 9.4 9.4 0 0 1 0 18.8" fill="#005bbbC9"/><path d="M187.4-368.1a9.4 9.4 0 1 1 0-18.8 9.4 9.4 0 0 1 0 18.8" fill="#fffCA"/><path d="M-117.6-232.3a9.4 9.4 0 1 1 0-18.9 9.4 9.4 0 0 1 0 18.9" fill="#005bbbCA"/><path d="M245.1 27.1a9.5 9.5 0 1 1 0-18.9 9.5 9.5 0 0 1 0 18.9" fill="#fffCB"/><path d="M-119.4-80.9a9.5 9.5 0 1 1 0-18.9 9.5 9.5 0 0 1 0 18.9" fill="#c2e1ffCB"/><path d="M-26.3 39.5a9.5 9.5 0 1 1 0-19.1 9.5 9.5 0 0 1 0 19.1" fill="#c2e1ffCC"/><path d="M-88-285.7a9.5 9.5 0 1 1 0-19.1 9.5 9.5 0 0 1 0 19.1" fill="#c2e1ffCC"/><path d="M-120.6-218.3a9.5 9.5 0 1 1 0-19.1 9.5 9.5 0 0 1 0 19.1" fill="#005bbbCC"/><path d="M324.1-203.6a9.5 9.5 0 1 1 0-19.1 9.5 9.5 0 0 1 0 19.1" fill="#fffCD"/><path d="M328.6-135.5a9.6 9.6 0 1 1 0-19.1 9.6 9.6 0 0 1 0 19.1" fill="#c2e1ffCD"/><path d="M-41.9 27a9.6 9.6 0 1 1 0-19.2 9.6 9.6 0 0 1 0 19.2" fill="#c2e1ffCD"/><path d="M209.4 47.9a9.6 9.6 0 1 1 0-19.2 9.6 9.6 0 0 1 0 19.2" fill="#fffCE"/><path d="M90-381.2a9.6 9.6 0 1 1 0-19.2 9.6 9.6 0 0 1 0 19.2" fill="#005bbbCE"/><path d="M-119.7-207.2a9.7 9.7 0 1 1 0-19.4 9.7 9.7 0 0 1 0 19.4" fill="#c2e1ffD0"/><path d="M25.1-361.5a9.9 9.9 0 1 1 0-19.7 9.9 9.9 0 0 1 0 19.7" fill="#fff500D4"/><path d="M295.6-48.7a9.9 9.9 0 1 1 0-19.7 9.9 9.9 0 0 1 0 19.7" fill="#c2e1ffD4"/><path d="M288.6-268.9a9.9 9.9 0 1 1 0-19.7 9.9 9.9 0 0 1 0 19.7" fill="#fff500D4"/><path d="M310.7-84.9a9.9 9.9 0 1 1 0-19.8 9.9 9.9 0 0 1 0 19.8" fill="#005bbbD4"/><path d="M-61.3-304a9.9 9.9 0 1 1 0-19.8 9.9 9.9 0 0 1 0 19.8" fill="#fffD4"/><path d="M35.2 55.5a10 10 0 1 1 0-20 10 10 0 0 1 0 20" fill="#fff500D7"/><path d="M60.5-365.3a10 10 0 1 1 0-20.1 10 10 0 0 1 0 20.1" fill="#005bbbD8"/><path d="M-16.7-333.5a10.1 10.1 0 1 1 0-20.1 10.1 10.1 0 0 1 0 20.1" fill="#005bbbD8"/><path d="M9.4 40.7a10.1 10.1 0 1 1 0-20.3 10.1 10.1 0 0 1 0 20.3" fill="#fff500D9"/><path d="M-112.6-166.4a10.1 10.1 0 1 1 0-20.2 10.1 10.1 0 0 1 0 20.2" fill="#fffDA"/><path d="M-78.2-44.7a10.3 10.3 0 1 1 0-20.5 10.3 10.3 0 0 1 0 20.5" fill="#fff500DC"/><path d="M122-358.1a10.3 10.3 0 1 1 0-20.5 10.3 10.3 0 0 1 0 20.5" fill="#fff500DD"/><path d="M11.3-338.2a10.3 10.3 0 1 1 0-20.6 10.3 10.3 0 0 1 0 20.6" fill="#fffDD"/><path d="M207.2-325.4a10.4 10.4 0 1 1 0-20.7 10.4 10.4 0 0 1 0 20.7" fill="#005bbbDE"/><path d="M-10.5 18.9a10.4 10.4 0 1 1 0-20.7 10.4 10.4 0 0 1 0 20.7" fill="#c2e1ffDE"/><path d="M202.5-325.9a10.4 10.4 0 1 1 0-20.8 10.4 10.4 0 0 1 0 20.8" fill="#005bbbDF"/><path d="M179.4-335.9a10.4 10.4 0 1 1 0-20.8 10.4 10.4 0 0 1 0 20.8" fill="#005bbbE0"/><path d="M127.7 40.5a10.5 10.5 0 1 1 0-21.1 10.5 10.5 0 0 1 0 21.1" fill="#fffE2"/><path d="M-75.8-233.6a10.5 10.5 0 1 1 0-21.1 10.5 10.5 0 0 1 0 21.1" fill="#fffE3"/><path d="M288.4-117.2a10.6 10.6 0 1 1 0-21.1 10.6 10.6 0 0 1 0 21.1" fill="#fff500E4"/><path d="M282.2-104.3a10.6 10.6 0 1 1 0-21.3 10.6 10.6 0 0 1 0 21.3" fill="#fff500E5"/><path d="M-82.4-106.3a10.6 10.6 0 1 1 0-21.3 10.6 10.6 0 0 1 0 21.3" fill="#c2e1ffE5"/><path d="M240.2-27.5a10.7 10.7 0 1 1 0-21.3 10.7 10.7 0 0 1 0 21.3" fill="#fff500E5"/><path d="M284-126.2a10.7 10.7 0 1 1 0-21.4 10.7 10.7 0 0 1 0 21.4" fill="#c2e1ffE6"/><path d="M-82.4-124.2a10.7 10.7 0 1 1 0-21.4 10.7 10.7 0 0 1 0 21.4" fill="#fff500E6"/><path d="M281.6-121.7a10.7 10.7 0 1 1 0-21.5 10.7 10.7 0 0 1 0 21.5" fill="#fffE6"/><path d="M239.6-38.7a10.8 10.8 0 1 1 0-21.5 10.8 10.8 0 0 1 0 21.5" fill="#c2e1ffE8"/><path d="M233-268.3a10.8 10.8 0 1 1 0-21.6 10.8 10.8 0 0 1 0 21.6" fill="#fffE9"/><path d="M54.9 17.3a10.8 10.8 0 1 1 0-21.7 10.8 10.8 0 0 1 0 21.7" fill="#005bbbE9"/><path d="M207.6-289.3a10.8 10.8 0 1 1 0-21.7 10.8 10.8 0 0 1 0 21.7" fill="#fffE9"/><path d="M270.5-188.3a10.9 10.9 0 1 1 0-21.7 10.9 10.9 0 0 1 0 21.7" fill="#c2e1ffE9"/><path d="M8.8-3a10.9 10.9 0 1 1 0-21.7 10.9 10.9 0 0 1 0 21.7" fill="#c2e1ffE9"/><path d="M-58.8-84.4a10.9 10.9 0 1 1 0-21.7 10.9 10.9 0 0 1 0 21.7" fill="#fffEA"/><path d="M224.9-267.1a10.9 10.9 0 1 1 0-21.8 10.9 10.9 0 0 1 0 21.8" fill="#005bbbEB"/><path d="M163.1 4.6a10.9 10.9 0 1 1 0-21.9 10.9 10.9 0 0 1 0 21.9" fill="#fff500EB"/><path d="M169.2-300.8a11 11 0 1 1 0-22 11 11 0 0 1 0 22" fill="#fff500EC"/><path d="M88.1 9.3a11 11 0 1 1 0-22.1 11 11 0 0 1 0 22.1" fill="#005bbbED"/><path d="M-60.1-161.5a11 11 0 1 1 0-22.1 11 11 0 0 1 0 22.1" fill="#c2e1ffED"/><path d="M13-280.1a11.1 11.1 0 1 1 0-22.2 11.1 11.1 0 0 1 0 22.2" fill="#fffEE"/><path d="M-26.6-239.8a11.1 11.1 0 1 1 0-22.2 11.1 11.1 0 0 1 0 22.2" fill="#c2e1ffEF"/><path d="M225.4-236.4a11.1 11.1 0 1 1 0-22.2 11.1 11.1 0 0 1 0 22.2" fill="#fffEF"/><path d="M172.9-18.8a11.1 11.1 0 1 1 0-22.3 11.1 11.1 0 0 1 0 22.3" fill="#005bbbEF"/><path d="M146.3-8.8a11.1 11.1 0 1 1 0-22.3 11.1 11.1 0 0 1 0 22.3" fill="#fffF0"/><path d="M135.5-6a11.1 11.1 0 1 1 0-22.3 11.1 11.1 0 0 1 0 22.3" fill="#fffF0"/><path d="M20-274.7a11.2 11.2 0 1 1 0-22.3 11.2 11.2 0 0 1 0 22.3" fill="#fff500F0"/><path d="M-19.7-227.3a11.2 11.2 0 1 1 0-22.4 11.2 11.2 0 0 1 0 22.4" fill="#005bbbF1"/><path d="M238.1-180.3a11.2 11.2 0 1 1 0-22.4 11.2 11.2 0 0 1 0 22.4" fill="#fffF2"/><path d="M-1.8-56a11.2 11.2 0 1 1 0-22.5 11.2 11.2 0 0 1 0 22.5" fill="#005bbbF2"/><path d="M149.4-263.5a11.4 11.4 0 1 1 0-22.8 11.4 11.4 0 0 1 0 22.8" fill="#c2e1ffF5"/><path d="M-15.7-141.6a11.4 11.4 0 1 1 0-22.8 11.4 11.4 0 0 1 0 22.8" fill="#c2e1ffF6"/><path d="M196.8-202.3a11.5 11.5 0 1 1 0-23 11.5 11.5 0 0 1 0 23" fill="#fffF7"/><path d="M207-152.1a11.5 11.5 0 1 1 0-23 11.5 11.5 0 0 1 0 23" fill="#c2e1ffF7"/><path d="M22-102.2a11.6 11.6 0 1 1 0-23.2 11.6 11.6 0 0 1 0 23.2" fill="#fffF9"/><path d="M91.6-219.5a11.7 11.7 0 1 1 0-23.3 11.7 11.7 0 0 1 0 23.3" fill="#005bbbFC"/><path d="M118.3-216.9a11.7 11.7 0 1 1 0-23.4 11.7 11.7 0 0 1 0 23.4" fill="#005bbbFC"/><path d="M50.5-163.9a11.7 11.7 0 1 1 0-23.5 11.7 11.7 0 0 1 0 23.5" fill="#005bbbFD"/><path d="M73.3-184.2a11.8 11.8 0 1 1 0-23.5 11.8 11.8 0 0 1 0 23.5" fill="#fff500FD"/><path d="M58-158.9a11.8 11.8 0 1 1 0-23.5 11.8 11.8 0 0 1 0 23.5" fill="#005bbbFD"/><path d="M125.2-135.4a11.8 11.8 0 1 1 0-23.6 11.8 11.8 0 0 1 0 23.6" fill="#005bbbFE"/></g></svg>