<svg width="1200" height="675" viewBox="-500 -500 1200 675" xmlns="http://www.w3.org/2000/svg"><path d="M-500-500h1200v675h-1200z" fill="#000"/><style>.sparkles path{stroke-linecap:round; stroke-width:1}</style><g class="sparkles"><path d="M100-162.5l2.7-12.1" stroke="#c2e1ff32"/><path d="M100-162.5l-6.2 22.5" stroke="#005bbb32"/><path d="M100-162.5l17.3-19.6" stroke="#005bbb32"/><path d="M100-162.5l25.7 35" stroke="#c2e1ff32"/><path d="M100-162.5l52.3 0" stroke="#c2e1ff33"/><path d="M100-162.5l3.6-58.4" stroke="#fff33"/><path d="M100-162.5l57 23.2" stroke="#c2e1ff33"/><path d="M100-162.5l1.2 72.8" stroke="#fff34"/><path d="M100-162.5l-54.9 50.9" stroke="#fff50034"/><path d="M100-162.5l-32.9-77.4" stroke="#fff50035"/><path d="M100-162.5l-34.9-98.7" stroke="#005bbb37"/><path d="M100-162.5l-91.5-61.3" stroke="#fff50037"/><path d="M100-162.5l-117.7 27.1" stroke="#c2e1ff39"/><path d="M100-162.5l17.8-127.4" stroke="#fff5003A"/><path d="M100-162.5l120.8-80.1" stroke="#005bbb3C"/><path d="M100-162.5l-122.5 84" stroke="#fff3D"/><path d="M100-162.5l-46.9-141.3" stroke="#fff5003D"/><path d="M100-162.5l-59.5-145.8" stroke="#c2e1ff3E"/><path d="M100-162.5l27.4-155.1" stroke="#c2e1ff3E"/><path d="M100-162.5l49.2 150.6" stroke="#005bbb3E"/><path d="M100-162.5l97 131.3" stroke="#fff5003F"/><path d="M100-162.5l33 160.7" stroke="#005bbb40"/><path d="M100-162.5l172.6 54.9" stroke="#005bbb43"/><path d="M100-162.5l165.4 78.5" stroke="#fff44"/><path d="M100-162.5l-68.4 171.2" stroke="#fff44"/><path d="M100-162.5l-92.8 161.6" stroke="#c2e1ff45"/><path d="M100-162.5l-171.2-74.1" stroke="#005bbb45"/><path d="M100-162.5l-125.9 137.8" stroke="#fff45"/><path d="M100-162.5l134.3 131.8" stroke="#fff45"/><path d="M100-162.5l184.2-53.6" stroke="#005bbb46"/><path d="M100-162.5l175.3 79.1" stroke="#c2e1ff46"/><path d="M100-162.5l142.5 130.5" stroke="#005bbb47"/><path d="M100-162.5l-190.3-36.5" stroke="#fff50047"/><path d="M100-162.5l-178.7-100" stroke="#fff4B"/><path d="M100-162.5l-204.1-21.6" stroke="#fff4B"/><path d="M100-162.5l-197.4 66.7" stroke="#c2e1ff4C"/><path d="M100-162.5l-89.5-189" stroke="#fff5004C"/><path d="M100-162.5l-102.9 182.2" stroke="#fff5004C"/><path d="M100-162.5l204-51.4" stroke="#c2e1ff4D"/><path d="M100-162.5l-70.9-198.7" stroke="#fff5004D"/><path d="M100-162.5l37.8 209.6" stroke="#005bbb4E"/><path d="M100-162.5l-173.5-125.8" stroke="#fff5004E"/><path d="M100-162.5l54.7-208.5" stroke="#c2e1ff4F"/><path d="M100-162.5l170.5-133.9" stroke="#fff50050"/><path d="M100-162.5l190.3 112" stroke="#fff52"/><path d="M100-162.5l-159.2-155.4" stroke="#fff50053"/><path d="M100-162.5l-105-196.9" stroke="#005bbb53"/><path d="M100-162.5l93.1-204.7" stroke="#fff50054"/><path d="M100-162.5l223.2-29.3" stroke="#fff50054"/><path d="M100-162.5l-223.8-30.6" stroke="#005bbb55"/><path d="M100-162.5l192.5-120.1" stroke="#c2e1ff56"/><path d="M100-162.5l50.1-222.5" stroke="#fff50056"/><path d="M100-162.5l211.4-89" stroke="#fff50058"/><path d="M100-162.5l175.8-147.8" stroke="#fff58"/><path d="M100-162.5l-174.4 149.6" stroke="#005bbb58"/><path d="M100-162.5l-221.4-63.9" stroke="#fff50058"/><path d="M100-162.5l-70.6-219.5" stroke="#005bbb59"/><path d="M100-162.5l89.8-213.4" stroke="#fff5005A"/><path d="M100-162.5l-115 201.2" stroke="#005bbb5A"/><path d="M100-162.5l84.8-215.8" stroke="#c2e1ff5A"/><path d="M100-162.5l207.1 104.8" stroke="#005bbb5A"/><path d="M100-162.5l-196.9-124.4" stroke="#c2e1ff5B"/><path d="M100-162.5l94.3 214.3" stroke="#005bbb5D"/><path d="M100-162.5l106.5 208.7" stroke="#c2e1ff5D"/><path d="M100-162.5l-116.4-203.3" stroke="#c2e1ff5D"/><path d="M100-162.5l100.6-211.8" stroke="#fff5005D"/><path d="M100-162.5l-226.9 59.5" stroke="#005bbb5D"/><path d="M100-162.5l150.4-180.6" stroke="#c2e1ff5E"/><path d="M100-162.5l-218.1-88" stroke="#c2e1ff5F"/><path d="M100-162.5l-173.1-159.2" stroke="#fff5F"/><path d="M100-162.5l-221.4-79.7" stroke="#c2e1ff5F"/><path d="M100-162.5l-229.3 52.8" stroke="#005bbb5F"/><path d="M100-162.5l-234.4-20.8" stroke="#fff5F"/><path d="M100-162.5l27.4-233.9" stroke="#fff5005F"/><path d="M100-162.5l144.6 185.9" stroke="#fff50060"/><path d="M100-162.5l81.2 221.1" stroke="#005bbb60"/><path d="M100-162.5l-115.7 205.5" stroke="#005bbb61"/><path d="M100-162.5l-208.3-110.7" stroke="#fff61"/><path d="M100-162.5l12.4-235.6" stroke="#005bbb61"/><path d="M100-162.5l-69.5-225.7" stroke="#fff50062"/><path d="M100-162.5l13.6 235.8" stroke="#fff62"/><path d="M100-162.5l155.4 177.9" stroke="#fff63"/><path d="M100-162.5l233.2 37.5" stroke="#fff64"/><path d="M100-162.5l-59.8-228.5" stroke="#fff65"/><path d="M100-162.5l216.8 93.7" stroke="#fff65"/><path d="M100-162.5l-224.7-71.5" stroke="#fff66"/><path d="M100-162.5l195.3 132" stroke="#c2e1ff67"/><path d="M100-162.5l-123.1 201" stroke="#005bbb67"/><path d="M100-162.5l-73.7 223.8" stroke="#fff67"/><path d="M100-162.5l156.7 175.8" stroke="#005bbb67"/><path d="M100-162.5l-194.7-132.3" stroke="#c2e1ff68"/><path d="M100-162.5l-66.3-225.8" stroke="#005bbb68"/><path d="M100-162.5l-225.3-67.4" stroke="#fff50068"/><path d="M100-162.5l-232.7-31.9" stroke="#c2e1ff69"/><path d="M100-162.5l-234.8-4.6" stroke="#fff50069"/><path d="M100-162.5l205.9-112.6" stroke="#fff69"/><path d="M100-162.5l-234.4 5.1" stroke="#fff5006A"/><path d="M100-162.5l233.4-19.2" stroke="#005bbb6A"/><path d="M100-162.5l20.9 232.4" stroke="#005bbb6B"/><path d="M100-162.5l-192.2 131.1" stroke="#fff6C"/><path d="M100-162.5l183.4 142.9" stroke="#c2e1ff6C"/><path d="M100-162.5l149.2-177.2" stroke="#fff6D"/><path d="M100-162.5l65.8 221.8" stroke="#005bbb6E"/><path d="M100-162.5l175.6 150.5" stroke="#fff6E"/><path d="M100-162.5l-37.9 227.9" stroke="#005bbb6E"/><path d="M100-162.5l127.4-191.9" stroke="#005bbb6F"/><path d="M100-162.5l-196.9 117" stroke="#fff50070"/><path d="M100-162.5l43 224.9" stroke="#005bbb70"/><path d="M100-162.5l-183.1 136.8" stroke="#005bbb70"/><path d="M100-162.5l197.8-112.5" stroke="#fff50071"/><path d="M100-162.5l187.3 128.7" stroke="#c2e1ff71"/><path d="M100-162.5l-32.6 223.9" stroke="#005bbb72"/><path d="M100-162.5l-55 219.2" stroke="#c2e1ff72"/><path d="M100-162.5l-224.2-21.6" stroke="#c2e1ff73"/><path d="M100-162.5l148.3 168.3" stroke="#005bbb73"/><path d="M100-162.5l148.9-166.9" stroke="#c2e1ff74"/><path d="M100-162.5l-166-149.2" stroke="#fff74"/><path d="M100-162.5l-141.9-171" stroke="#005bbb74"/><path d="M100-162.5l-95 199.1" stroke="#fff75"/><path d="M100-162.5l196.7-96" stroke="#c2e1ff76"/><path d="M100-162.5l-216 35" stroke="#fff50076"/><path d="M100-162.5l215-38.5" stroke="#005bbb77"/><path d="M100-162.5l122.1 180.2" stroke="#005bbb77"/><path d="M100-162.5l-136.5 168.5" stroke="#fff50077"/><path d="M100-162.5l0.2-216.8" stroke="#fff50077"/><path d="M100-162.5l-210.8-48.1" stroke="#005bbb78"/><path d="M100-162.5l-93.8 194.2" stroke="#fff50078"/><path d="M100-162.5l-96.9-190.3" stroke="#fff50079"/><path d="M100-162.5l-92 191" stroke="#005bbb7A"/><path d="M100-162.5l146.1 152.8" stroke="#fff5007A"/><path d="M100-162.5l126-168.9" stroke="#005bbb7A"/><path d="M100-162.5l156.4 140.9" stroke="#c2e1ff7A"/><path d="M100-162.5l125.1 168" stroke="#fff5007B"/><path d="M100-162.5l-201.2 56.8" stroke="#c2e1ff7B"/><path d="M100-162.5l207.8 8.6" stroke="#fff7B"/><path d="M100-162.5l-93.9 183.9" stroke="#005bbb7C"/><path d="M100-162.5l59 193.8" stroke="#fff7D"/><path d="M100-162.5l195.4 53.4" stroke="#c2e1ff7D"/><path d="M100-162.5l-200.8-21.1" stroke="#c2e1ff7D"/><path d="M100-162.5l-192.4-58.8" stroke="#fff7E"/><path d="M100-162.5l175.7 96" stroke="#fff7E"/><path d="M100-162.5l-93.5 175.4" stroke="#c2e1ff7F"/><path d="M100-162.5l-140-139.5" stroke="#005bbb7F"/><path d="M100-162.5l67.6-185.7" stroke="#fff7F"/><path d="M100-162.5l-189.8 54.4" stroke="#c2e1ff7F"/><path d="M100-162.5l-104.3-167.4" stroke="#005bbb7F"/><path d="M100-162.5l173.6 90.4" stroke="#fff5007F"/><path d="M100-162.5l31.5 193.1" stroke="#fff50080"/><path d="M100-162.5l-192-37.4" stroke="#c2e1ff80"/><path d="M100-162.5l192 27.1" stroke="#005bbb80"/><path d="M100-162.5l-181.5 52.6" stroke="#005bbb82"/><path d="M100-162.5l-6.1-183.6" stroke="#c2e1ff83"/><path d="M100-162.5l164.9-59.2" stroke="#c2e1ff85"/><path d="M100-162.5l-53.4 164.3" stroke="#fff86"/><path d="M100-162.5l-45 159.8" stroke="#fff87"/><path d="M100-162.5l-45.6-157.3" stroke="#fff88"/><path d="M100-162.5l-65.5 147.4" stroke="#fff88"/><path d="M100-162.5l-124.1-101.3" stroke="#fff50088"/><path d="M100-162.5l-140.1-75.7" stroke="#fff50088"/><path d="M100-162.5l118.1 106.1" stroke="#fff50089"/><path d="M100-162.5l148.4-32.9" stroke="#fff8A"/><path d="M100-162.5l-145-39.1" stroke="#fff5008A"/><path d="M100-162.5l140.5 47" stroke="#fff8A"/><path d="M100-162.5l136 52" stroke="#fff8B"/><path d="M100-162.5l-89.6-102.3" stroke="#fff5008C"/><path d="M100-162.5l134.6 6.7" stroke="#005bbb8D"/><path d="M100-162.5l-41-126.8" stroke="#005bbb8D"/><path d="M100-162.5l127 32.2" stroke="#005bbb8D"/><path d="M100-162.5l-117.3 45.8" stroke="#fff8E"/><path d="M100-162.5l-62.8-108.9" stroke="#fff5008E"/><path d="M100-162.5l-9.1-121.6" stroke="#fff8E"/><path d="M100-162.5l38.6 112.8" stroke="#c2e1ff8F"/><path d="M100-162.5l33.8-101.2" stroke="#fff90"/><path d="M100-162.5l-94.5-35.9" stroke="#fff50091"/><path d="M100-162.5l64 6.7" stroke="#fff94"/><path d="M100-162.5l52.8 34.6" stroke="#c2e1ff94"/><path d="M100-162.5l-58.1-11.7" stroke="#fff50094"/><path d="M100-162.5l54.3 16.7" stroke="#c2e1ff94"/><path d="M100-162.5l25.7-31.7" stroke="#005bbb95"/><path d="M100-162.5l3.9 33.4" stroke="#fff50095"/><path d="M100-162.5l15-16.1" stroke="#c2e1ff95"/></g><g class="sparcs"><path d="M102.7-168.7a5.9 5.9 0 1 1 0-11.8 5.9 5.9 0 0 1 0 11.8" fill="#c2e1ff7D"/><path d="M93.8-134.1a5.9 5.9 0 1 1 0-11.9 5.9 5.9 0 0 1 0 11.9" fill="#fff5007D"/><path d="M117.3-176.2a5.9 5.9 0 1 1 0-11.8 5.9 5.9 0 0 1 0 11.8" fill="#005bbb7D"/><path d="M125.7-121.5a6 6 0 1 1 0-12 6 6 0 0 1 0 12" fill="#fff7E"/><path d="M152.3-156.5a6 6 0 1 1 0-12 6 6 0 0 1 0 12" fill="#fff7E"/><path d="M103.6-214.9a6 6 0 1 1 0-12 6 6 0 0 1 0 12" fill="#fff7F"/><path d="M157-133.3a6 6 0 1 1 0-12 6 6 0 0 1 0 12" fill="#c2e1ff7F"/><path d="M101.2-83.7a6 6 0 1 1 0-12.1 6 6 0 0 1 0 12.1" fill="#c2e1ff80"/><path d="M45.1-105.5a6.1 6.1 0 1 1 0-12.1 6.1 6.1 0 0 1 0 12.1" fill="#fff80"/><path d="M67.1-233.8a6.1 6.1 0 1 1 0-12.2 6.1 6.1 0 0 1 0 12.2" fill="#c2e1ff81"/><path d="M65.1-255a6.2 6.2 0 1 1 0-12.4 6.2 6.2 0 0 1 0 12.4" fill="#fff83"/><path d="M8.5-217.6a6.2 6.2 0 1 1 0-12.5 6.2 6.2 0 0 1 0 12.5" fill="#fff84"/><path d="M-17.7-129.1a6.3 6.3 0 1 1 0-12.7 6.3 6.3 0 0 1 0 12.7" fill="#c2e1ff86"/><path d="M117.8-283.6a6.4 6.4 0 1 1 0-12.7 6.4 6.4 0 0 1 0 12.7" fill="#005bbb87"/><path d="M220.8-236.1a6.5 6.5 0 1 1 0-13 6.5 6.5 0 0 1 0 13" fill="#c2e1ff8A"/><path d="M-22.5-71.9a6.6 6.6 0 1 1 0-13.2 6.6 6.6 0 0 1 0 13.2" fill="#fff8B"/><path d="M53.1-297.2a6.6 6.6 0 1 1 0-13.1 6.6 6.6 0 0 1 0 13.1" fill="#005bbb8B"/><path d="M40.5-301.6a6.7 6.7 0 1 1 0-13.4 6.7 6.7 0 0 1 0 13.4" fill="#005bbb8D"/><path d="M127.4-310.9a6.7 6.7 0 1 1 0-13.3 6.7 6.7 0 0 1 0 13.3" fill="#c2e1ff8D"/><path d="M149.2-5.3a6.7 6.7 0 1 1 0-13.3 6.7 6.7 0 0 1 0 13.3" fill="#fff5008D"/><path d="M197-24.5a6.7 6.7 0 1 1 0-13.4 6.7 6.7 0 0 1 0 13.4" fill="#fff8F"/><path d="M133 4.9a6.7 6.7 0 1 1 0-13.5 6.7 6.7 0 0 1 0 13.5" fill="#fff5008F"/><path d="M272.6-100.6a7 7 0 1 1 0-13.9 7 7 0 0 1 0 13.9" fill="#c2e1ff94"/><path d="M265.4-77a7 7 0 1 1 0-14 7 7 0 0 1 0 14" fill="#fff94"/><path d="M31.6 15.8a7 7 0 1 1 0-14.1 7 7 0 0 1 0 14.1" fill="#005bbb95"/><path d="M7.2 6.1a7 7 0 1 1 0-14.1 7 7 0 0 1 0 14.1" fill="#c2e1ff96"/><path d="M-71.2-229.6a7 7 0 1 1 0-14.1 7 7 0 0 1 0 14.1" fill="#fff50096"/><path d="M-25.9-17.7a7 7 0 1 1 0-14.1 7 7 0 0 1 0 14.1" fill="#005bbb96"/><path d="M234.3-23.7a7.1 7.1 0 1 1 0-14.1 7.1 7.1 0 0 1 0 14.1" fill="#c2e1ff96"/><path d="M284.2-209a7.1 7.1 0 1 1 0-14.3 7.1 7.1 0 0 1 0 14.3" fill="#c2e1ff98"/><path d="M275.3-76.3a7.1 7.1 0 1 1 0-14.3 7.1 7.1 0 0 1 0 14.3" fill="#005bbb98"/><path d="M242.5-24.8a7.2 7.2 0 1 1 0-14.4 7.2 7.2 0 0 1 0 14.4" fill="#fff98"/><path d="M-90.3-191.8a7.2 7.2 0 1 1 0-14.4 7.2 7.2 0 0 1 0 14.4" fill="#005bbb98"/><path d="M-78.7-255.1a7.4 7.4 0 1 1 0-14.7 7.4 7.4 0 0 1 0 14.7" fill="#c2e1ff9D"/><path d="M-104.1-176.7a7.4 7.4 0 1 1 0-14.8 7.4 7.4 0 0 1 0 14.8" fill="#fff5009D"/><path d="M-97.4-88.3a7.5 7.5 0 1 1 0-15 7.5 7.5 0 0 1 0 15" fill="#005bbb9F"/><path d="M10.5-344.1a7.5 7.5 0 1 1 0-14.9 7.5 7.5 0 0 1 0 14.9" fill="#fff5009F"/><path d="M-2.9 27.2a7.5 7.5 0 1 1 0-15 7.5 7.5 0 0 1 0 15" fill="#fff9F"/><path d="M304-206.4a7.5 7.5 0 1 1 0-15 7.5 7.5 0 0 1 0 15" fill="#005bbbA0"/><path d="M29.1-353.7a7.5 7.5 0 1 1 0-15.1 7.5 7.5 0 0 1 0 15.1" fill="#fffA0"/><path d="M137.8 54.7a7.6 7.6 0 1 1 0-15.1 7.6 7.6 0 0 1 0 15.1" fill="#fff500A1"/><path d="M-73.5-280.7a7.6 7.6 0 1 1 0-15.2 7.6 7.6 0 0 1 0 15.2" fill="#005bbbA2"/><path d="M154.7-363.3a7.7 7.7 0 1 1 0-15.3 7.7 7.7 0 0 1 0 15.3" fill="#fff500A3"/><path d="M270.5-288.7a7.7 7.7 0 1 1 0-15.4 7.7 7.7 0 0 1 0 15.4" fill="#005bbbA4"/><path d="M290.3-42.7a7.8 7.8 0 1 1 0-15.6 7.8 7.8 0 0 1 0 15.6" fill="#fffA6"/><path d="M-59.2-310a7.9 7.9 0 1 1 0-15.7 7.9 7.9 0 0 1 0 15.7" fill="#fffA8"/><path d="M-5-351.6a7.9 7.9 0 1 1 0-15.7 7.9 7.9 0 0 1 0 15.7" fill="#c2e1ffA8"/><path d="M193.1-359.3a8 8 0 1 1 0-15.9 8 8 0 0 1 0 15.9" fill="#fffAA"/><path d="M323.2-183.8a8 8 0 1 1 0-15.9 8 8 0 0 1 0 15.9" fill="#fffAA"/><path d="M-123.8-185.1a8 8 0 1 1 0-16 8 8 0 0 1 0 16" fill="#fff500AA"/><path d="M292.5-274.6a8 8 0 1 1 0-16.1 8 8 0 0 1 0 16.1" fill="#c2e1ffAB"/><path d="M150.1-376.9a8.1 8.1 0 1 1 0-16.2 8.1 8.1 0 0 1 0 16.2" fill="#fffAD"/><path d="M311.4-243.4a8.2 8.2 0 1 1 0-16.3 8.2 8.2 0 0 1 0 16.3" fill="#fffAE"/><path d="M275.8-302.2a8.2 8.2 0 1 1 0-16.3 8.2 8.2 0 0 1 0 16.3" fill="#fff500AE"/><path d="M-74.4-4.8a8.2 8.2 0 1 1 0-16.3 8.2 8.2 0 0 1 0 16.3" fill="#c2e1ffAE"/><path d="M-121.4-218.2a8.2 8.2 0 1 1 0-16.4 8.2 8.2 0 0 1 0 16.4" fill="#005bbbAF"/><path d="M29.4-373.8a8.2 8.2 0 1 1 0-16.4 8.2 8.2 0 0 1 0 16.4" fill="#005bbbAF"/><path d="M189.8-367.6a8.3 8.3 0 1 1 0-16.6 8.3 8.3 0 0 1 0 16.6" fill="#fff500B1"/><path d="M-15 47a8.3 8.3 0 1 1 0-16.6 8.3 8.3 0 0 1 0 16.6" fill="#005bbbB1"/><path d="M184.8-370.1a8.3 8.3 0 1 1 0-16.5 8.3 8.3 0 0 1 0 16.5" fill="#fff500B1"/><path d="M307.1-49.3a8.3 8.3 0 1 1 0-16.7 8.3 8.3 0 0 1 0 16.7" fill="#005bbbB1"/><path d="M-96.9-278.5a8.4 8.4 0 1 1 0-16.8 8.4 8.4 0 0 1 0 16.8" fill="#005bbbB3"/><path d="M194.3 60.3a8.5 8.5 0 1 1 0-16.9 8.5 8.5 0 0 1 0 16.9" fill="#fff500B5"/><path d="M206.5 54.7a8.5 8.5 0 1 1 0-17 8.5 8.5 0 0 1 0 17" fill="#005bbbB5"/><path d="M-16.4-357.3a8.5 8.5 0 1 1 0-17 8.5 8.5 0 0 1 0 17" fill="#fffB5"/><path d="M200.6-365.8a8.5 8.5 0 1 1 0-17 8.5 8.5 0 0 1 0 17" fill="#fffB5"/><path d="M-126.9-94.5a8.5 8.5 0 1 1 0-17 8.5 8.5 0 0 1 0 17" fill="#005bbbB6"/><path d="M250.4-334.5a8.6 8.6 0 1 1 0-17.1 8.6 8.6 0 0 1 0 17.1" fill="#fffB7"/><path d="M-118.1-241.9a8.6 8.6 0 1 1 0-17.1 8.6 8.6 0 0 1 0 17.1" fill="#c2e1ffB7"/><path d="M-73.1-313.1a8.6 8.6 0 1 1 0-17.2 8.6 8.6 0 0 1 0 17.2" fill="#005bbbB7"/><path d="M-121.4-233.6a8.6 8.6 0 1 1 0-17.2 8.6 8.6 0 0 1 0 17.2" fill="#fffB8"/><path d="M-129.3-101.1a8.6 8.6 0 1 1 0-17.2 8.6 8.6 0 0 1 0 17.2" fill="#fffB8"/><path d="M-134.4-174.7a8.6 8.6 0 1 1 0-17.2 8.6 8.6 0 0 1 0 17.2" fill="#005bbbB8"/><path d="M127.4-387.7a8.6 8.6 0 1 1 0-17.3 8.6 8.6 0 0 1 0 17.3" fill="#fffB8"/><path d="M244.6 32a8.6 8.6 0 1 1 0-17.2 8.6 8.6 0 0 1 0 17.2" fill="#fff500B8"/><path d="M181.2 67.3a8.6 8.6 0 1 1 0-17.3 8.6 8.6 0 0 1 0 17.3" fill="#fff500B9"/><path d="M-15.7 51.7a8.7 8.7 0 1 1 0-17.4 8.7 8.7 0 0 1 0 17.4" fill="#c2e1ffBA"/><path d="M-108.3-264.5a8.7 8.7 0 1 1 0-17.4 8.7 8.7 0 0 1 0 17.4" fill="#005bbbBA"/><path d="M112.4-389.4a8.7 8.7 0 1 1 0-17.4 8.7 8.7 0 0 1 0 17.4" fill="#fffBA"/><path d="M30.5-379.4a8.8 8.8 0 1 1 0-17.6 8.8 8.8 0 0 1 0 17.6" fill="#c2e1ffBC"/><path d="M113.6 82.1a8.8 8.8 0 1 1 0-17.6 8.8 8.8 0 0 1 0 17.6" fill="#fff500BC"/><path d="M255.4 24.2a8.8 8.8 0 1 1 0-17.6 8.8 8.8 0 0 1 0 17.6" fill="#c2e1ffBD"/><path d="M333.2-116.1a8.9 8.9 0 1 1 0-17.8 8.9 8.9 0 0 1 0 17.8" fill="#fffBF"/><path d="M40.2-382a8.9 8.9 0 1 1 0-17.9 8.9 8.9 0 0 1 0 17.9" fill="#c2e1ffBF"/><path d="M316.8-59.9a9 9 0 1 1 0-17.9 9 9 0 0 1 0 17.9" fill="#fffC0"/><path d="M-124.7-225a9 9 0 1 1 0-18.1 9 9 0 0 1 0 18.1" fill="#005bbbC1"/><path d="M295.3-21.4a9 9 0 1 1 0-18.1 9 9 0 0 1 0 18.1" fill="#fffC2"/><path d="M-23.1 47.6a9.1 9.1 0 1 1 0-18.1 9.1 9.1 0 0 1 0 18.1" fill="#c2e1ffC2"/><path d="M26.3 70.4a9.1 9.1 0 1 1 0-18.2 9.1 9.1 0 0 1 0 18.2" fill="#005bbbC2"/><path d="M256.7 22.4a9.1 9.1 0 1 1 0-18.2 9.1 9.1 0 0 1 0 18.2" fill="#c2e1ffC3"/><path d="M-94.7-285.7a9.1 9.1 0 1 1 0-18.2 9.1 9.1 0 0 1 0 18.2" fill="#c2e1ffC3"/><path d="M33.7-379.1a9.1 9.1 0 1 1 0-18.3 9.1 9.1 0 0 1 0 18.3" fill="#c2e1ffC3"/><path d="M-125.3-220.7a9.1 9.1 0 1 1 0-18.3 9.1 9.1 0 0 1 0 18.3" fill="#fff500C4"/><path d="M-132.7-185.3a9.2 9.2 0 1 1 0-18.3 9.2 9.2 0 0 1 0 18.3" fill="#fffC4"/><path d="M-134.8-157.9a9.2 9.2 0 1 1 0-18.4 9.2 9.2 0 0 1 0 18.4" fill="#005bbbC5"/><path d="M305.9-265.9a9.2 9.2 0 1 1 0-18.4 9.2 9.2 0 0 1 0 18.4" fill="#c2e1ffC5"/><path d="M-134.4-148.2a9.2 9.2 0 1 1 0-18.4 9.2 9.2 0 0 1 0 18.4" fill="#fff500C6"/><path d="M333.4-172.5a9.2 9.2 0 1 1 0-18.5 9.2 9.2 0 0 1 0 18.5" fill="#fffC6"/><path d="M120.9 79.2a9.3 9.3 0 1 1 0-18.6 9.3 9.3 0 0 1 0 18.6" fill="#005bbbC8"/><path d="M-92.2-22a9.4 9.4 0 1 1 0-18.7 9.4 9.4 0 0 1 0 18.7" fill="#fff500C9"/><path d="M283.4-10.2a9.4 9.4 0 1 1 0-18.8 9.4 9.4 0 0 1 0 18.8" fill="#005bbbC9"/><path d="M249.2-330.2a9.4 9.4 0 1 1 0-18.9 9.4 9.4 0 0 1 0 18.9" fill="#c2e1ffCA"/><path d="M165.8 68.7a9.5 9.5 0 1 1 0-18.9 9.5 9.5 0 0 1 0 18.9" fill="#fff500CB"/><path d="M275.6-2.6a9.5 9.5 0 1 1 0-18.9 9.5 9.5 0 0 1 0 18.9" fill="#fffCB"/><path d="M62.1 74.8a9.5 9.5 0 1 1 0-18.9 9.5 9.5 0 0 1 0 18.9" fill="#fff500CB"/><path d="M227.4-344.9a9.5 9.5 0 1 1 0-19 9.5 9.5 0 0 1 0 19" fill="#fffCC"/><path d="M-96.9-35.9a9.6 9.6 0 1 1 0-19.2 9.6 9.6 0 0 1 0 19.2" fill="#fff500CD"/><path d="M143 72a9.6 9.6 0 1 1 0-19.2 9.6 9.6 0 0 1 0 19.2" fill="#c2e1ffCE"/><path d="M-83.1-16.1a9.6 9.6 0 1 1 0-19.3 9.6 9.6 0 0 1 0 19.3" fill="#fffCE"/><path d="M297.8-265.4a9.7 9.7 0 1 1 0-19.3 9.7 9.7 0 0 1 0 19.3" fill="#fff500CF"/><path d="M287.3-24.2a9.7 9.7 0 1 1 0-19.3 9.7 9.7 0 0 1 0 19.3" fill="#fff500CF"/><path d="M67.4 71.1a9.7 9.7 0 1 1 0-19.4 9.7 9.7 0 0 1 0 19.4" fill="#c2e1ffD0"/><path d="M45 66.4a9.7 9.7 0 1 1 0-19.4 9.7 9.7 0 0 1 0 19.4" fill="#fff500D0"/><path d="M-124.2-174.4a9.8 9.8 0 1 1 0-19.5 9.8 9.8 0 0 1 0 19.5" fill="#c2e1ffD1"/><path d="M248.3 15.6a9.8 9.8 0 1 1 0-19.6 9.8 9.8 0 0 1 0 19.6" fill="#c2e1ffD2"/><path d="M248.9-319.6a9.8 9.8 0 1 1 0-19.6 9.8 9.8 0 0 1 0 19.6" fill="#005bbbD2"/><path d="M-66-301.9a9.8 9.8 0 1 1 0-19.6 9.8 9.8 0 0 1 0 19.6" fill="#c2e1ffD3"/><path d="M-41.9-323.6a9.9 9.9 0 1 1 0-19.7 9.9 9.9 0 0 1 0 19.7" fill="#fffD4"/><path d="M5 46.5a9.9 9.9 0 1 1 0-19.9 9.9 9.9 0 0 1 0 19.9" fill="#fff500D5"/><path d="M296.7-248.5a10 10 0 1 1 0-19.9 10 10 0 0 1 0 19.9" fill="#005bbbD6"/><path d="M-116-117.5a10 10 0 1 1 0-19.9 10 10 0 0 1 0 19.9" fill="#fff500D6"/><path d="M315-191a10 10 0 1 1 0-19.9 10 10 0 0 1 0 19.9" fill="#fffD6"/><path d="M222.1 27.7a10 10 0 1 1 0-20 10 10 0 0 1 0 20" fill="#fffD7"/><path d="M-36.5 16a10 10 0 1 1 0-20 10 10 0 0 1 0 20" fill="#c2e1ffD7"/><path d="M100.2-369.2a10 10 0 1 1 0-20.1 10 10 0 0 1 0 20.1" fill="#c2e1ffD7"/><path d="M-110.8-200.6a10 10 0 1 1 0-20.1 10 10 0 0 1 0 20.1" fill="#fffD8"/><path d="M6.2 41.8a10.1 10.1 0 1 1 0-20.1 10.1 10.1 0 0 1 0 20.1" fill="#c2e1ffD8"/><path d="M3.1-342.7a10.1 10.1 0 1 1 0-20.2 10.1 10.1 0 0 1 0 20.2" fill="#fffD9"/><path d="M8 38.7a10.2 10.2 0 1 1 0-20.3 10.2 10.2 0 0 1 0 20.3" fill="#fffDA"/><path d="M246.1 0.5a10.2 10.2 0 1 1 0-20.4 10.2 10.2 0 0 1 0 20.4" fill="#fff500DB"/><path d="M226-321.2a10.2 10.2 0 1 1 0-20.4 10.2 10.2 0 0 1 0 20.4" fill="#fffDB"/><path d="M256.4-11.4a10.2 10.2 0 1 1 0-20.4 10.2 10.2 0 0 1 0 20.4" fill="#005bbbDB"/><path d="M225.1 15.7a10.2 10.2 0 1 1 0-20.5 10.2 10.2 0 0 1 0 20.5" fill="#005bbbDC"/><path d="M-101.2-95.4a10.2 10.2 0 1 1 0-20.5 10.2 10.2 0 0 1 0 20.5" fill="#c2e1ffDC"/><path d="M307.8-143.7a10.3 10.3 0 1 1 0-20.5 10.3 10.3 0 0 1 0 20.5" fill="#fffDC"/><path d="M6.1 31.7a10.3 10.3 0 1 1 0-20.6 10.3 10.3 0 0 1 0 20.6" fill="#c2e1ffDD"/><path d="M159 41.7a10.4 10.4 0 1 1 0-20.8 10.4 10.4 0 0 1 0 20.8" fill="#c2e1ffDF"/><path d="M295.4-98.7a10.4 10.4 0 1 1 0-20.7 10.4 10.4 0 0 1 0 20.7" fill="#fff500DF"/><path d="M-100.8-173.2a10.4 10.4 0 1 1 0-20.8 10.4 10.4 0 0 1 0 20.8" fill="#c2e1ffDF"/><path d="M-92.4-210.9a10.4 10.4 0 1 1 0-20.9 10.4 10.4 0 0 1 0 20.9" fill="#fffE0"/><path d="M275.7-56a10.4 10.4 0 1 1 0-20.9 10.4 10.4 0 0 1 0 20.9" fill="#fffE0"/><path d="M6.5 23.3a10.5 10.5 0 1 1 0-20.9 10.5 10.5 0 0 1 0 20.9" fill="#c2e1ffE1"/><path d="M-40-291.5a10.5 10.5 0 1 1 0-21 10.5 10.5 0 0 1 0 21" fill="#005bbbE1"/><path d="M167.6-337.7a10.5 10.5 0 1 1 0-21 10.5 10.5 0 0 1 0 21" fill="#c2e1ffE1"/><path d="M-89.8-97.7a10.5 10.5 0 1 1 0-20.9 10.5 10.5 0 0 1 0 20.9" fill="#fff500E1"/><path d="M-4.3-319.4a10.5 10.5 0 1 1 0-21 10.5 10.5 0 0 1 0 21" fill="#fff500E1"/><path d="M273.6-61.6a10.5 10.5 0 1 1 0-21 10.5 10.5 0 0 1 0 21" fill="#c2e1ffE2"/><path d="M131.5 41.1a10.5 10.5 0 1 1 0-21 10.5 10.5 0 0 1 0 21" fill="#c2e1ffE2"/><path d="M-92-189.4a10.5 10.5 0 1 1 0-21 10.5 10.5 0 0 1 0 21" fill="#fff500E2"/><path d="M292-124.9a10.5 10.5 0 1 1 0-21 10.5 10.5 0 0 1 0 21" fill="#fff500E3"/><path d="M-81.5-99.3a10.6 10.6 0 1 1 0-21.2 10.6 10.6 0 0 1 0 21.2" fill="#fff500E5"/><path d="M93.9-335.4a10.7 10.7 0 1 1 0-21.4 10.7 10.7 0 0 1 0 21.4" fill="#fff500E6"/><path d="M264.9-210.9a10.8 10.8 0 1 1 0-21.7 10.8 10.8 0 0 1 0 21.7" fill="#c2e1ffE9"/><path d="M46.6 12.7a10.9 10.9 0 1 1 0-21.7 10.9 10.9 0 0 1 0 21.7" fill="#fff500EA"/><path d="M55 8.3a11 11 0 1 1 0-21.9 11 11 0 0 1 0 21.9" fill="#fff500EC"/><path d="M54.4-308.8a11 11 0 1 1 0-22 11 11 0 0 1 0 22" fill="#fffEC"/><path d="M34.5-4a11 11 0 1 1 0-22.1 11 11 0 0 1 0 22.1" fill="#005bbbED"/><path d="M-24.1-252.7a11 11 0 1 1 0-22.1 11 11 0 0 1 0 22.1" fill="#fff500ED"/><path d="M-40.1-227.2a11 11 0 1 1 0-22.1 11 11 0 0 1 0 22.1" fill="#fffED"/><path d="M218.1-45.3a11 11 0 1 1 0-22.1 11 11 0 0 1 0 22.1" fill="#005bbbEE"/><path d="M248.4-184.3a11.1 11.1 0 1 1 0-22.3 11.1 11.1 0 0 1 0 22.3" fill="#fffEF"/><path d="M-45-190.4a11.1 11.1 0 1 1 0-22.3 11.1 11.1 0 0 1 0 22.3" fill="#fff500F0"/><path d="M240.5-104.4a11.2 11.2 0 1 1 0-22.3 11.2 11.2 0 0 1 0 22.3" fill="#fffF0"/><path d="M236-99.3a11.2 11.2 0 1 1 0-22.4 11.2 11.2 0 0 1 0 22.4" fill="#005bbbF1"/><path d="M10.4-253.5a11.3 11.3 0 1 1 0-22.6 11.3 11.3 0 0 1 0 22.6" fill="#fffF3"/><path d="M234.6-144.5a11.3 11.3 0 1 1 0-22.6 11.3 11.3 0 0 1 0 22.6" fill="#005bbbF3"/><path d="M59-278a11.3 11.3 0 1 1 0-22.6 11.3 11.3 0 0 1 0 22.6" fill="#c2e1ffF3"/><path d="M227-119a11.3 11.3 0 1 1 0-22.6 11.3 11.3 0 0 1 0 22.6" fill="#005bbbF4"/><path d="M-17.3-105.3a11.4 11.4 0 1 1 0-22.7 11.4 11.4 0 0 1 0 22.7" fill="#005bbbF4"/><path d="M37.2-260a11.4 11.4 0 1 1 0-22.7 11.4 11.4 0 0 1 0 22.7" fill="#fffF5"/><path d="M90.9-272.7a11.4 11.4 0 1 1 0-22.8 11.4 11.4 0 0 1 0 22.8" fill="#005bbbF5"/><path d="M138.6-38.2a11.4 11.4 0 1 1 0-22.9 11.4 11.4 0 0 1 0 22.9" fill="#fff500F6"/><path d="M133.8-252.3a11.5 11.5 0 1 1 0-22.9 11.5 11.5 0 0 1 0 22.9" fill="#fff500F7"/><path d="M5.5-186.9a11.5 11.5 0 1 1 0-23.1 11.5 11.5 0 0 1 0 23.1" fill="#c2e1ffF8"/><path d="M164-144.1a11.7 11.7 0 1 1 0-23.4 11.7 11.7 0 0 1 0 23.4" fill="#fffFC"/><path d="M152.8-116.2a11.7 11.7 0 1 1 0-23.4 11.7 11.7 0 0 1 0 23.4" fill="#fff500FC"/><path d="M41.9-162.4a11.7 11.7 0 1 1 0-23.5 11.7 11.7 0 0 1 0 23.5" fill="#fff500FC"/><path d="M154.3-134.1a11.7 11.7 0 1 1 0-23.4 11.7 11.7 0 0 1 0 23.4" fill="#c2e1ffFD"/><path d="M125.7-182.4a11.8 11.8 0 1 1 0-23.6 11.8 11.8 0 0 1 0 23.6" fill="#fffFE"/><path d="M103.9-117.3a11.8 11.8 0 1 1 0-23.6 11.8 11.8 0 0 1 0 23.6" fill="#c2e1ffFE"/><path d="M115-166.8a11.8 11.8 0 1 1 0-23.6 11.8 11.8 0 0 1 0 23.6" fill="#c2e1ffFE"/></g></svg>