<svg width="1200" height="675" viewBox="-500 -500 1200 675" xmlns="http://www.w3.org/2000/svg"><path d="M-500-500h1200v675h-1200z" fill="#000"/><style>.sparkles path{stroke-linecap:round; stroke-width:1}</style><g class="sparkles"><path d="M100-162.5l-7.4 5.5" stroke="#c2e1ff32"/><path d="M100-162.5l46.3-28" stroke="#005bbb33"/><path d="M100-162.5l46.7-36.1" stroke="#fff50033"/><path d="M100-162.5l-43.7 41" stroke="#fff50033"/><path d="M100-162.5l53.9 54.8" stroke="#fff50034"/><path d="M100-162.5l-76.1 37" stroke="#fff35"/><path d="M100-162.5l27-84.5" stroke="#fff35"/><path d="M100-162.5l-72.9 68.5" stroke="#005bbb36"/><path d="M100-162.5l-7.5 103.8" stroke="#c2e1ff37"/><path d="M100-162.5l101.1 34.3" stroke="#c2e1ff37"/><path d="M100-162.5l106.9-18.7" stroke="#fff37"/><path d="M100-162.5l-76.5-79.5" stroke="#c2e1ff37"/><path d="M100-162.5l-45.9-100.9" stroke="#fff37"/><path d="M100-162.5l-29.1-111.1" stroke="#005bbb38"/><path d="M100-162.5l66.3 96.8" stroke="#fff50038"/><path d="M100-162.5l80.1-89.6" stroke="#fff50038"/><path d="M100-162.5l-23.1 118.7" stroke="#fff39"/><path d="M100-162.5l-16.9-122.4" stroke="#c2e1ff39"/><path d="M100-162.5l40.7 119.4" stroke="#005bbb39"/><path d="M100-162.5l127.2 12.5" stroke="#c2e1ff39"/><path d="M100-162.5l-90.4-96.1" stroke="#fff3A"/><path d="M100-162.5l111.1 87.7" stroke="#c2e1ff3B"/><path d="M100-162.5l82.5-115.1" stroke="#fff5003B"/><path d="M100-162.5l77.1 133.5" stroke="#c2e1ff3E"/><path d="M100-162.5l54 147" stroke="#fff3E"/><path d="M100-162.5l-5.2-163.4" stroke="#fff5003F"/><path d="M100-162.5l159.7-37.7" stroke="#c2e1ff40"/><path d="M100-162.5l95.9-140.7" stroke="#fff50041"/><path d="M100-162.5l165.7-44.2" stroke="#fff41"/><path d="M100-162.5l-33.2-175.2" stroke="#fff50043"/><path d="M100-162.5l179.1 38" stroke="#c2e1ff44"/><path d="M100-162.5l161.4-92.4" stroke="#005bbb45"/><path d="M100-162.5l188.3 0" stroke="#005bbb45"/><path d="M100-162.5l-60.8 178.5" stroke="#fff45"/><path d="M100-162.5l174.3 77.1" stroke="#c2e1ff46"/><path d="M100-162.5l-9.2-190.6" stroke="#005bbb46"/><path d="M100-162.5l187.8 41.6" stroke="#005bbb46"/><path d="M100-162.5l43.8-187.5" stroke="#fff50047"/><path d="M100-162.5l192-18.7" stroke="#fff50047"/><path d="M100-162.5l-133.1 144.2" stroke="#fff48"/><path d="M100-162.5l-13.6 196.5" stroke="#fff48"/><path d="M100-162.5l50.1-192.1" stroke="#c2e1ff48"/><path d="M100-162.5l110.7 167.6" stroke="#005bbb49"/><path d="M100-162.5l148.6 136.7" stroke="#fff4A"/><path d="M100-162.5l-8.2-203" stroke="#005bbb4A"/><path d="M100-162.5l-160.7 124.9" stroke="#005bbb4A"/><path d="M100-162.5l-118.5 166.3" stroke="#c2e1ff4A"/><path d="M100-162.5l179.5-99.5" stroke="#005bbb4B"/><path d="M100-162.5l-44.7-201.6" stroke="#005bbb4B"/><path d="M100-162.5l-51.9-206.6" stroke="#fff4E"/><path d="M100-162.5l186.8-104.5" stroke="#fff4E"/><path d="M100-162.5l-196.9 84.9" stroke="#fff5004F"/><path d="M100-162.5l43.5-210.4" stroke="#005bbb4F"/><path d="M100-162.5l100.9-189.7" stroke="#c2e1ff4F"/><path d="M100-162.5l131.2 170.6" stroke="#fff4F"/><path d="M100-162.5l-101.2 190.6" stroke="#c2e1ff4F"/><path d="M100-162.5l-119.3-180.8" stroke="#c2e1ff50"/><path d="M100-162.5l-144.4-161.9" stroke="#fff50"/><path d="M100-162.5l-123.6-179.1" stroke="#005bbb50"/><path d="M100-162.5l32.1 217.7" stroke="#c2e1ff51"/><path d="M100-162.5l222.2-12.9" stroke="#005bbb53"/><path d="M100-162.5l-178.2 134.5" stroke="#fff50053"/><path d="M100-162.5l209.3 79.7" stroke="#005bbb54"/><path d="M100-162.5l48.7 221.6" stroke="#fff50056"/><path d="M100-162.5l-189.3 125.3" stroke="#fff56"/><path d="M100-162.5l-24.6-226.3" stroke="#fff56"/><path d="M100-162.5l-123 193.2" stroke="#005bbb57"/><path d="M100-162.5l-57.6-222.4" stroke="#fff58"/><path d="M100-162.5l227-37.9" stroke="#fff50058"/><path d="M100-162.5l-120.1 196.6" stroke="#005bbb58"/><path d="M100-162.5l227.4 37.5" stroke="#c2e1ff58"/><path d="M100-162.5l-160.1 166.9" stroke="#fff59"/><path d="M100-162.5l229.9-29.8" stroke="#005bbb5A"/><path d="M100-162.5l-146.7 180.3" stroke="#005bbb5B"/><path d="M100-162.5l105.6-208.5" stroke="#c2e1ff5C"/><path d="M100-162.5l133.2-193" stroke="#005bbb5D"/><path d="M100-162.5l34.3-232.1" stroke="#005bbb5E"/><path d="M100-162.5l72 223.3" stroke="#fff5005E"/><path d="M100-162.5l-192.1 135.3" stroke="#fff5005E"/><path d="M100-162.5l-222.5 76.3" stroke="#005bbb5F"/><path d="M100-162.5l-122.2-201.6" stroke="#fff50060"/><path d="M100-162.5l212.4-103.1" stroke="#c2e1ff62"/><path d="M100-162.5l102.7 212.6" stroke="#c2e1ff62"/><path d="M100-162.5l-135.3 193.5" stroke="#fff62"/><path d="M100-162.5l32.9-233.8" stroke="#005bbb62"/><path d="M100-162.5l-111.2-208.3" stroke="#fff62"/><path d="M100-162.5l145.4-186.1" stroke="#c2e1ff62"/><path d="M100-162.5l-203.4 120" stroke="#005bbb62"/><path d="M100-162.5l-41.5-232.5" stroke="#fff62"/><path d="M100-162.5l-17.6-235.6" stroke="#fff50063"/><path d="M100-162.5l235.1 23.2" stroke="#fff64"/><path d="M100-162.5l-100.1-213.9" stroke="#fff50065"/><path d="M100-162.5l-113-207.4" stroke="#005bbb65"/><path d="M100-162.5l-228.3 60.2" stroke="#c2e1ff65"/><path d="M100-162.5l106.3 210.8" stroke="#fff65"/><path d="M100-162.5l-227.7-61.6" stroke="#c2e1ff66"/><path d="M100-162.5l-186.1-145" stroke="#fff50066"/><path d="M100-162.5l-11.2-235.4" stroke="#c2e1ff67"/><path d="M100-162.5l234.9 17.5" stroke="#fff50067"/><path d="M100-162.5l-46.8-230.4" stroke="#fff68"/><path d="M100-162.5l185.3 144.1" stroke="#c2e1ff69"/><path d="M100-162.5l73.5-222.6" stroke="#fff5006A"/><path d="M100-162.5l-221.5 76" stroke="#005bbb6A"/><path d="M100-162.5l-27.2 232.1" stroke="#fff5006B"/><path d="M100-162.5l30-231.5" stroke="#005bbb6B"/><path d="M100-162.5l-184.8-141.5" stroke="#fff6C"/><path d="M100-162.5l-86.9-215.2" stroke="#c2e1ff6D"/><path d="M100-162.5l47.5 227" stroke="#c2e1ff6D"/><path d="M100-162.5l165.1 162.2" stroke="#fff6D"/><path d="M100-162.5l-117.5-199.4" stroke="#fff6E"/><path d="M100-162.5l-87.6 213.8" stroke="#005bbb6E"/><path d="M100-162.5l-51.5-225.1" stroke="#fff6E"/><path d="M100-162.5l-161.1-165.3" stroke="#fff6E"/><path d="M100-162.5l138-184.9" stroke="#fff6E"/><path d="M100-162.5l99.8 206.8" stroke="#005bbb6F"/><path d="M100-162.5l37.3 226.4" stroke="#c2e1ff6F"/><path d="M100-162.5l226.2 34.1" stroke="#005bbb70"/><path d="M100-162.5l-194.8-118.4" stroke="#fff50071"/><path d="M100-162.5l205.4-98.8" stroke="#005bbb71"/><path d="M100-162.5l-105.3-201.9" stroke="#005bbb71"/><path d="M100-162.5l-187.6 127.7" stroke="#fff50071"/><path d="M100-162.5l224.6 11" stroke="#c2e1ff73"/><path d="M100-162.5l175.2 139.9" stroke="#fff73"/><path d="M100-162.5l220 32" stroke="#fff74"/><path d="M100-162.5l-126.1 177.4" stroke="#fff50077"/><path d="M100-162.5l102.1-190.5" stroke="#c2e1ff78"/><path d="M100-162.5l-155.7 148.7" stroke="#fff78"/><path d="M100-162.5l-93.8 192.6" stroke="#fff50079"/><path d="M100-162.5l-19.1-213.3" stroke="#fff50079"/><path d="M100-162.5l-146-156.5" stroke="#005bbb79"/><path d="M100-162.5l75.1-200.3" stroke="#fff79"/><path d="M100-162.5l201.2 71.1" stroke="#c2e1ff79"/><path d="M100-162.5l20.5-209.2" stroke="#fff7A"/><path d="M100-162.5l-9-209.6" stroke="#fff7B"/><path d="M100-162.5l-58.1 201.2" stroke="#fff7B"/><path d="M100-162.5l66.4 198.5" stroke="#fff5007B"/><path d="M100-162.5l189.2 83.7" stroke="#c2e1ff7C"/><path d="M100-162.5l154.7-136.1" stroke="#fff7C"/><path d="M100-162.5l-177.2-98.5" stroke="#c2e1ff7D"/><path d="M100-162.5l-174.5 103.2" stroke="#fff7D"/><path d="M100-162.5l193.1-51" stroke="#c2e1ff7E"/><path d="M100-162.5l-182.2 81.2" stroke="#c2e1ff7E"/><path d="M100-162.5l-79.5 180.8" stroke="#fff5007F"/><path d="M100-162.5l-118.1-157.6" stroke="#c2e1ff7F"/><path d="M100-162.5l-192.7-25.2" stroke="#fff80"/><path d="M100-162.5l162.8 102.3" stroke="#c2e1ff81"/><path d="M100-162.5l-60 179.6" stroke="#fff50081"/><path d="M100-162.5l184.6 40.7" stroke="#fff82"/><path d="M100-162.5l-125 139.2" stroke="#005bbb82"/><path d="M100-162.5l166.9 78.3" stroke="#005bbb83"/><path d="M100-162.5l-163.3 79.4" stroke="#fff83"/><path d="M100-162.5l-176.6-39.7" stroke="#fff50084"/><path d="M100-162.5l-8.2-177.5" stroke="#fff84"/><path d="M100-162.5l-166.5 61.3" stroke="#005bbb85"/><path d="M100-162.5l16.7 176.1" stroke="#fff50085"/><path d="M100-162.5l-82.7 151.2" stroke="#fff50086"/><path d="M100-162.5l-66.9-152.1" stroke="#fff87"/><path d="M100-162.5l-163.9 24.7" stroke="#c2e1ff87"/><path d="M100-162.5l123.8-109.7" stroke="#c2e1ff87"/><path d="M100-162.5l-109.9-123.2" stroke="#fff50087"/><path d="M100-162.5l-105.3-124.8" stroke="#fff88"/><path d="M100-162.5l-150.8 53" stroke="#fff50088"/><path d="M100-162.5l113.1 107.7" stroke="#fff89"/><path d="M100-162.5l155.1 5.6" stroke="#fff50089"/><path d="M100-162.5l-50.9-143.4" stroke="#c2e1ff8A"/><path d="M100-162.5l94.1-117" stroke="#c2e1ff8A"/><path d="M100-162.5l-106.6 102.9" stroke="#fff5008A"/><path d="M100-162.5l137.9-38.6" stroke="#fff5008B"/><path d="M100-162.5l122.7 58" stroke="#fff5008C"/><path d="M100-162.5l128.6 34.8" stroke="#c2e1ff8D"/><path d="M100-162.5l126.5-15.2" stroke="#fff8E"/><path d="M100-162.5l72.3-97.2" stroke="#005bbb8E"/><path d="M100-162.5l-80.1-83.1" stroke="#c2e1ff8F"/><path d="M100-162.5l-29.2-94.8" stroke="#005bbb91"/><path d="M100-162.5l89.5-7.4" stroke="#fff92"/><path d="M100-162.5l82.8 7.6" stroke="#fff92"/><path d="M100-162.5l-10.2 67.8" stroke="#c2e1ff93"/><path d="M100-162.5l18.8 64.9" stroke="#fff50093"/><path d="M100-162.5l-57.3-8.9" stroke="#005bbb94"/><path d="M100-162.5l32.2-39" stroke="#c2e1ff94"/><path d="M100-162.5l-9.2 16.6" stroke="#005bbb95"/></g><g class="sparcs"><path d="M92.6-151.1a5.9 5.9 0 1 1 0-11.8 5.9 5.9 0 0 1 0 11.8" fill="#fff7D"/><path d="M146.3-184.5a6 6 0 1 1 0-11.9 6 6 0 0 1 0 11.9" fill="#fff7E"/><path d="M146.7-192.6a6 6 0 1 1 0-12 6 6 0 0 1 0 12" fill="#005bbb7F"/><path d="M56.3-115.5a6 6 0 1 1 0-12 6 6 0 0 1 0 12" fill="#fff7F"/><path d="M153.9-101.6a6.1 6.1 0 1 1 0-12.2 6.1 6.1 0 0 1 0 12.2" fill="#c2e1ff80"/><path d="M23.9-119.4a6.1 6.1 0 1 1 0-12.2 6.1 6.1 0 0 1 0 12.2" fill="#005bbb81"/><path d="M127-240.9a6.1 6.1 0 1 1 0-12.3 6.1 6.1 0 0 1 0 12.3" fill="#fff81"/><path d="M27.1-87.8a6.2 6.2 0 1 1 0-12.4 6.2 6.2 0 0 1 0 12.4" fill="#fff83"/><path d="M92.5-52.5a6.2 6.2 0 1 1 0-12.4 6.2 6.2 0 0 1 0 12.4" fill="#c2e1ff83"/><path d="M201.1-122a6.2 6.2 0 1 1 0-12.4 6.2 6.2 0 0 1 0 12.4" fill="#005bbb84"/><path d="M206.9-175a6.2 6.2 0 1 1 0-12.4 6.2 6.2 0 0 1 0 12.4" fill="#fff84"/><path d="M23.5-235.7a6.2 6.2 0 1 1 0-12.5 6.2 6.2 0 0 1 0 12.5" fill="#fff84"/><path d="M54.1-257.1a6.3 6.3 0 1 1 0-12.5 6.3 6.3 0 0 1 0 12.5" fill="#fff84"/><path d="M70.9-267.3a6.3 6.3 0 1 1 0-12.6 6.3 6.3 0 0 1 0 12.6" fill="#fff85"/><path d="M166.3-59.4a6.3 6.3 0 1 1 0-12.6 6.3 6.3 0 0 1 0 12.6" fill="#fff85"/><path d="M180.1-245.7a6.3 6.3 0 1 1 0-12.7 6.3 6.3 0 0 1 0 12.7" fill="#005bbb86"/><path d="M76.9-37.5a6.3 6.3 0 1 1 0-12.6 6.3 6.3 0 0 1 0 12.6" fill="#fff86"/><path d="M83.1-278.6a6.3 6.3 0 1 1 0-12.7 6.3 6.3 0 0 1 0 12.7" fill="#005bbb86"/><path d="M140.7-36.7a6.4 6.4 0 1 1 0-12.7 6.4 6.4 0 0 1 0 12.7" fill="#fff87"/><path d="M227.2-143.7a6.4 6.4 0 1 1 0-12.7 6.4 6.4 0 0 1 0 12.7" fill="#fff87"/><path d="M9.6-252.2a6.4 6.4 0 1 1 0-12.8 6.4 6.4 0 0 1 0 12.8" fill="#c2e1ff88"/><path d="M211.1-68.3a6.5 6.5 0 1 1 0-13 6.5 6.5 0 0 1 0 13" fill="#c2e1ff89"/><path d="M182.5-271.1a6.5 6.5 0 1 1 0-13 6.5 6.5 0 0 1 0 13" fill="#fff89"/><path d="M177.1-22.4a6.6 6.6 0 1 1 0-13.2 6.6 6.6 0 0 1 0 13.2" fill="#005bbb8C"/><path d="M154-8.9a6.6 6.6 0 1 1 0-13.3 6.6 6.6 0 0 1 0 13.3" fill="#005bbb8D"/><path d="M94.8-319.1a6.7 6.7 0 1 1 0-13.5 6.7 6.7 0 0 1 0 13.5" fill="#005bbb8F"/><path d="M259.7-193.5a6.7 6.7 0 1 1 0-13.4 6.7 6.7 0 0 1 0 13.4" fill="#fff8F"/><path d="M195.9-296.4a6.8 6.8 0 1 1 0-13.6 6.8 6.8 0 0 1 0 13.6" fill="#005bbb90"/><path d="M265.7-199.9a6.8 6.8 0 1 1 0-13.7 6.8 6.8 0 0 1 0 13.7" fill="#fff50091"/><path d="M66.8-330.8a6.9 6.9 0 1 1 0-13.8 6.9 6.9 0 0 1 0 13.8" fill="#005bbb93"/><path d="M279.1-117.5a7 7 0 1 1 0-14 7 7 0 0 1 0 14" fill="#005bbb94"/><path d="M261.4-247.8a7 7 0 1 1 0-14.1 7 7 0 0 1 0 14.1" fill="#c2e1ff95"/><path d="M288.3-155.4a7.1 7.1 0 1 1 0-14.2 7.1 7.1 0 0 1 0 14.2" fill="#fff96"/><path d="M39.2 23.1a7.1 7.1 0 1 1 0-14.2 7.1 7.1 0 0 1 0 14.2" fill="#fff50096"/><path d="M274.3-78.3a7.1 7.1 0 1 1 0-14.2 7.1 7.1 0 0 1 0 14.2" fill="#c2e1ff97"/><path d="M90.8-346a7.1 7.1 0 1 1 0-14.2 7.1 7.1 0 0 1 0 14.2" fill="#005bbb97"/><path d="M287.8-113.7a7.1 7.1 0 1 1 0-14.3 7.1 7.1 0 0 1 0 14.3" fill="#c2e1ff98"/><path d="M143.8-342.9a7.1 7.1 0 1 1 0-14.2 7.1 7.1 0 0 1 0 14.2" fill="#005bbb98"/><path d="M292-174.1a7.2 7.2 0 1 1 0-14.3 7.2 7.2 0 0 1 0 14.3" fill="#c2e1ff98"/><path d="M-33.1-11a7.2 7.2 0 1 1 0-14.5 7.2 7.2 0 0 1 0 14.5" fill="#005bbb99"/><path d="M86.4 41.2a7.2 7.2 0 1 1 0-14.4 7.2 7.2 0 0 1 0 14.4" fill="#fff9A"/><path d="M150.1-347.4a7.3 7.3 0 1 1 0-14.5 7.3 7.3 0 0 1 0 14.5" fill="#005bbb9A"/><path d="M210.7 12.4a7.3 7.3 0 1 1 0-14.6 7.3 7.3 0 0 1 0 14.6" fill="#fff5009B"/><path d="M248.6-18.4a7.3 7.3 0 1 1 0-14.7 7.3 7.3 0 0 1 0 14.7" fill="#005bbb9C"/><path d="M91.8-358.1a7.4 7.4 0 1 1 0-14.7 7.4 7.4 0 0 1 0 14.7" fill="#fff9C"/><path d="M-60.7-30.3a7.4 7.4 0 1 1 0-14.7 7.4 7.4 0 0 1 0 14.7" fill="#fff5009C"/><path d="M-18.5 11.2a7.4 7.4 0 1 1 0-14.8 7.4 7.4 0 0 1 0 14.8" fill="#005bbb9D"/><path d="M279.5-254.6a7.4 7.4 0 1 1 0-14.8 7.4 7.4 0 0 1 0 14.8" fill="#c2e1ff9D"/><path d="M55.3-356.6a7.4 7.4 0 1 1 0-14.9 7.4 7.4 0 0 1 0 14.9" fill="#c2e1ff9E"/><path d="M48.1-361.6a7.6 7.6 0 1 1 0-15.1 7.6 7.6 0 0 1 0 15.1" fill="#c2e1ffA1"/><path d="M286.8-259.4a7.6 7.6 0 1 1 0-15.2 7.6 7.6 0 0 1 0 15.2" fill="#fffA2"/><path d="M-96.9-70a7.6 7.6 0 1 1 0-15.2 7.6 7.6 0 0 1 0 15.2" fill="#fffA2"/><path d="M143.5-365.2a7.6 7.6 0 1 1 0-15.3 7.6 7.6 0 0 1 0 15.3" fill="#c2e1ffA2"/><path d="M200.9-344.6a7.6 7.6 0 1 1 0-15.3 7.6 7.6 0 0 1 0 15.3" fill="#c2e1ffA2"/><path d="M231.2 15.7a7.6 7.6 0 1 1 0-15.3 7.6 7.6 0 0 1 0 15.3" fill="#fffA3"/><path d="M-1.2 35.8a7.7 7.7 0 1 1 0-15.3 7.7 7.7 0 0 1 0 15.3" fill="#005bbbA3"/><path d="M-19.3-335.6a7.7 7.7 0 1 1 0-15.4 7.7 7.7 0 0 1 0 15.4" fill="#fffA4"/><path d="M-44.4-316.7a7.7 7.7 0 1 1 0-15.4 7.7 7.7 0 0 1 0 15.4" fill="#c2e1ffA4"/><path d="M-23.6-333.9a7.7 7.7 0 1 1 0-15.4 7.7 7.7 0 0 1 0 15.4" fill="#fff500A4"/><path d="M132.1 63a7.8 7.8 0 1 1 0-15.5 7.8 7.8 0 0 1 0 15.5" fill="#c2e1ffA6"/><path d="M322.2-167.5a7.9 7.9 0 1 1 0-15.8 7.9 7.9 0 0 1 0 15.8" fill="#c2e1ffA8"/><path d="M-78.2-20.1a7.9 7.9 0 1 1 0-15.8 7.9 7.9 0 0 1 0 15.8" fill="#fff500A8"/><path d="M309.3-74.9a7.9 7.9 0 1 1 0-15.8 7.9 7.9 0 0 1 0 15.8" fill="#c2e1ffA9"/><path d="M148.7 67.1a8 8 0 1 1 0-16 8 8 0 0 1 0 16" fill="#fffAB"/><path d="M-89.3-29.2a8 8 0 1 1 0-16.1 8 8 0 0 1 0 16.1" fill="#005bbbAB"/><path d="M75.4-380.8a8.1 8.1 0 1 1 0-16.1 8.1 8.1 0 0 1 0 16.1" fill="#fffAC"/><path d="M-23 38.9a8.1 8.1 0 1 1 0-16.3 8.1 8.1 0 0 1 0 16.3" fill="#fffAE"/><path d="M42.4-376.7a8.2 8.2 0 1 1 0-16.4 8.2 8.2 0 0 1 0 16.4" fill="#005bbbAE"/><path d="M327-192.2a8.2 8.2 0 1 1 0-16.4 8.2 8.2 0 0 1 0 16.4" fill="#fff500AF"/><path d="M-20.1 42.3a8.2 8.2 0 1 1 0-16.4 8.2 8.2 0 0 1 0 16.4" fill="#c2e1ffAF"/><path d="M327.4-116.8a8.2 8.2 0 1 1 0-16.4 8.2 8.2 0 0 1 0 16.4" fill="#005bbbAF"/><path d="M-60.1 12.7a8.3 8.3 0 1 1 0-16.5 8.3 8.3 0 0 1 0 16.5" fill="#005bbbB0"/><path d="M329.9-184a8.3 8.3 0 1 1 0-16.6 8.3 8.3 0 0 1 0 16.6" fill="#fff500B1"/><path d="M-46.7 26.1a8.3 8.3 0 1 1 0-16.6 8.3 8.3 0 0 1 0 16.6" fill="#fffB2"/><path d="M205.6-362.5a8.4 8.4 0 1 1 0-16.9 8.4 8.4 0 0 1 0 16.9" fill="#c2e1ffB4"/><path d="M233.2-347a8.5 8.5 0 1 1 0-16.9 8.5 8.5 0 0 1 0 16.9" fill="#c2e1ffB5"/><path d="M134.3-386.1a8.5 8.5 0 1 1 0-17 8.5 8.5 0 0 1 0 17" fill="#fffB6"/><path d="M172 69.4a8.5 8.5 0 1 1 0-17.1 8.5 8.5 0 0 1 0 17.1" fill="#c2e1ffB6"/><path d="M-92.1-18.7a8.5 8.5 0 1 1 0-17.1 8.5 8.5 0 0 1 0 17.1" fill="#fff500B7"/><path d="M-122.5-77.6a8.6 8.6 0 1 1 0-17.1 8.6 8.6 0 0 1 0 17.1" fill="#c2e1ffB7"/><path d="M-22.2-355.5a8.7 8.7 0 1 1 0-17.3 8.7 8.7 0 0 1 0 17.3" fill="#c2e1ffB9"/><path d="M312.4-256.8a8.7 8.7 0 1 1 0-17.5 8.7 8.7 0 0 1 0 17.5" fill="#fffBB"/><path d="M202.7 58.8a8.7 8.7 0 1 1 0-17.5 8.7 8.7 0 0 1 0 17.5" fill="#c2e1ffBB"/><path d="M-35.3 39.8a8.8 8.8 0 1 1 0-17.5 8.8 8.8 0 0 1 0 17.5" fill="#fffBB"/><path d="M132.9-387.6a8.8 8.8 0 1 1 0-17.5 8.8 8.8 0 0 1 0 17.5" fill="#005bbbBC"/><path d="M-11.2-362.1a8.8 8.8 0 1 1 0-17.5 8.8 8.8 0 0 1 0 17.5" fill="#005bbbBC"/><path d="M245.4-339.8a8.8 8.8 0 1 1 0-17.6 8.8 8.8 0 0 1 0 17.6" fill="#fff500BC"/><path d="M-103.4-33.7a8.8 8.8 0 1 1 0-17.6 8.8 8.8 0 0 1 0 17.6" fill="#c2e1ffBC"/><path d="M58.5-386.2a8.8 8.8 0 1 1 0-17.6 8.8 8.8 0 0 1 0 17.6" fill="#c2e1ffBC"/><path d="M82.4-389.3a8.8 8.8 0 1 1 0-17.6 8.8 8.8 0 0 1 0 17.6" fill="#c2e1ffBD"/><path d="M335.1-130.4a8.9 8.9 0 1 1 0-17.8 8.9 8.9 0 0 1 0 17.8" fill="#c2e1ffBE"/><path d="M-0.1-367.5a8.9 8.9 0 1 1 0-17.9 8.9 8.9 0 0 1 0 17.9" fill="#c2e1ffBF"/><path d="M-13-361a8.9 8.9 0 1 1 0-17.8 8.9 8.9 0 0 1 0 17.8" fill="#fffBF"/><path d="M-128.3-93.3a8.9 8.9 0 1 1 0-17.9 8.9 8.9 0 0 1 0 17.9" fill="#c2e1ffBF"/><path d="M206.3 57.3a8.9 8.9 0 1 1 0-17.9 8.9 8.9 0 0 1 0 17.9" fill="#fffBF"/><path d="M-127.7-215.1a9 9 0 1 1 0-18 9 9 0 0 1 0 18" fill="#005bbbC1"/><path d="M-86.1-298.4a9 9 0 1 1 0-18.1 9 9 0 0 1 0 18.1" fill="#005bbbC1"/><path d="M88.8-388.9a9.1 9.1 0 1 1 0-18.1 9.1 9.1 0 0 1 0 18.1" fill="#fff500C2"/><path d="M334.9-135.9a9.1 9.1 0 1 1 0-18.2 9.1 9.1 0 0 1 0 18.2" fill="#005bbbC3"/><path d="M53.2-383.8a9.1 9.1 0 1 1 0-18.3 9.1 9.1 0 0 1 0 18.3" fill="#fffC4"/><path d="M285.3-9.2a9.2 9.2 0 1 1 0-18.4 9.2 9.2 0 0 1 0 18.4" fill="#005bbbC5"/><path d="M173.5-375.9a9.2 9.2 0 1 1 0-18.4 9.2 9.2 0 0 1 0 18.4" fill="#c2e1ffC6"/><path d="M-121.5-77.2a9.3 9.3 0 1 1 0-18.5 9.3 9.3 0 0 1 0 18.5" fill="#fffC6"/><path d="M72.8 78.9a9.3 9.3 0 1 1 0-18.6 9.3 9.3 0 0 1 0 18.6" fill="#fffC7"/><path d="M130-384.7a9.3 9.3 0 1 1 0-18.6 9.3 9.3 0 0 1 0 18.6" fill="#c2e1ffC8"/><path d="M-84.8-294.6a9.4 9.4 0 1 1 0-18.7 9.4 9.4 0 0 1 0 18.7" fill="#005bbbC9"/><path d="M13.1-368.3a9.4 9.4 0 1 1 0-18.8 9.4 9.4 0 0 1 0 18.8" fill="#c2e1ffCA"/><path d="M147.5 73.9a9.4 9.4 0 1 1 0-18.8 9.4 9.4 0 0 1 0 18.8" fill="#c2e1ffCA"/><path d="M265.1 9.2a9.4 9.4 0 1 1 0-18.9 9.4 9.4 0 0 1 0 18.9" fill="#fffCA"/><path d="M-17.5-352.5a9.5 9.5 0 1 1 0-18.9 9.5 9.5 0 0 1 0 18.9" fill="#c2e1ffCB"/><path d="M12.4 60.8a9.5 9.5 0 1 1 0-19 9.5 9.5 0 0 1 0 19" fill="#c2e1ffCB"/><path d="M48.5-378.2a9.5 9.5 0 1 1 0-18.9 9.5 9.5 0 0 1 0 18.9" fill="#fff500CB"/><path d="M-61.1-318.4a9.5 9.5 0 1 1 0-18.9 9.5 9.5 0 0 1 0 18.9" fill="#fff500CB"/><path d="M238-337.9a9.5 9.5 0 1 1 0-19 9.5 9.5 0 0 1 0 19" fill="#fffCB"/><path d="M199.8 53.9a9.6 9.6 0 1 1 0-19.1 9.6 9.6 0 0 1 0 19.1" fill="#c2e1ffCD"/><path d="M137.3 73.5a9.6 9.6 0 1 1 0-19.2 9.6 9.6 0 0 1 0 19.2" fill="#c2e1ffCD"/><path d="M326.2-118.8a9.6 9.6 0 1 1 0-19.2 9.6 9.6 0 0 1 0 19.2" fill="#fffCE"/><path d="M-94.8-271.2a9.6 9.6 0 1 1 0-19.3 9.6 9.6 0 0 1 0 19.3" fill="#005bbbCF"/><path d="M305.4-251.7a9.6 9.6 0 1 1 0-19.2 9.6 9.6 0 0 1 0 19.2" fill="#005bbbCF"/><path d="M-5.3-354.8a9.6 9.6 0 1 1 0-19.2 9.6 9.6 0 0 1 0 19.2" fill="#005bbbCF"/><path d="M-87.6-25.1a9.7 9.7 0 1 1 0-19.4 9.7 9.7 0 0 1 0 19.4" fill="#fffD0"/><path d="M324.6-141.8a9.8 9.8 0 1 1 0-19.5 9.8 9.8 0 0 1 0 19.5" fill="#fff500D1"/><path d="M275.2-12.8a9.8 9.8 0 1 1 0-19.6 9.8 9.8 0 0 1 0 19.6" fill="#005bbbD2"/><path d="M320-120.6a9.9 9.9 0 1 1 0-19.7 9.9 9.9 0 0 1 0 19.7" fill="#c2e1ffD3"/><path d="M-26.1 24.9a10 10 0 1 1 0-20 10 10 0 0 1 0 20" fill="#005bbbD7"/><path d="M202.1-343a10.1 10.1 0 1 1 0-20.1 10.1 10.1 0 0 1 0 20.1" fill="#fffD8"/><path d="M-55.7-3.7a10.1 10.1 0 1 1 0-20.2 10.1 10.1 0 0 1 0 20.2" fill="#c2e1ffD8"/><path d="M6.2 40.2a10.1 10.1 0 1 1 0-20.2 10.1 10.1 0 0 1 0 20.2" fill="#fff500D9"/><path d="M80.9-365.7a10.1 10.1 0 1 1 0-20.2 10.1 10.1 0 0 1 0 20.2" fill="#fff500D9"/><path d="M-46-308.8a10.1 10.1 0 1 1 0-20.3 10.1 10.1 0 0 1 0 20.3" fill="#005bbbD9"/><path d="M175.1-352.6a10.1 10.1 0 1 1 0-20.3 10.1 10.1 0 0 1 0 20.3" fill="#005bbbD9"/><path d="M301.2-81.3a10.1 10.1 0 1 1 0-20.2 10.1 10.1 0 0 1 0 20.2" fill="#fff500D9"/><path d="M120.5-361.5a10.2 10.2 0 1 1 0-20.4 10.2 10.2 0 0 1 0 20.4" fill="#fffDB"/><path d="M91-361.8a10.2 10.2 0 1 1 0-20.5 10.2 10.2 0 0 1 0 20.5" fill="#fffDB"/><path d="M41.9 48.9a10.2 10.2 0 1 1 0-20.4 10.2 10.2 0 0 1 0 20.4" fill="#fff500DC"/><path d="M166.4 46.2a10.2 10.2 0 1 1 0-20.5 10.2 10.2 0 0 1 0 20.5" fill="#fffDC"/><path d="M289.2-68.6a10.3 10.3 0 1 1 0-20.5 10.3 10.3 0 0 1 0 20.5" fill="#c2e1ffDD"/><path d="M254.7-288.3a10.3 10.3 0 1 1 0-20.6 10.3 10.3 0 0 1 0 20.6" fill="#c2e1ffDD"/><path d="M-77.2-250.6a10.4 10.4 0 1 1 0-20.8 10.4 10.4 0 0 1 0 20.8" fill="#005bbbDF"/><path d="M-74.5-48.9a10.4 10.4 0 1 1 0-20.7 10.4 10.4 0 0 1 0 20.7" fill="#fffDF"/><path d="M293.1-203.1a10.4 10.4 0 1 1 0-20.9 10.4 10.4 0 0 1 0 20.9" fill="#fffE0"/><path d="M-82.2-70.8a10.4 10.4 0 1 1 0-20.9 10.4 10.4 0 0 1 0 20.9" fill="#fffE0"/><path d="M20.5 28.7a10.5 10.5 0 1 1 0-20.9 10.5 10.5 0 0 1 0 20.9" fill="#c2e1ffE1"/><path d="M-18.1-309.6a10.5 10.5 0 1 1 0-21 10.5 10.5 0 0 1 0 21" fill="#c2e1ffE1"/><path d="M-92.7-177.2a10.5 10.5 0 1 1 0-21 10.5 10.5 0 0 1 0 21" fill="#fffE2"/><path d="M262.8-49.7a10.6 10.6 0 1 1 0-21.1 10.6 10.6 0 0 1 0 21.1" fill="#005bbbE3"/><path d="M40 27.7a10.6 10.6 0 1 1 0-21.3 10.6 10.6 0 0 1 0 21.3" fill="#005bbbE4"/><path d="M284.6-111.2a10.6 10.6 0 1 1 0-21.2 10.6 10.6 0 0 1 0 21.2" fill="#fff500E5"/><path d="M-25-12.6a10.7 10.7 0 1 1 0-21.4 10.7 10.7 0 0 1 0 21.4" fill="#fff500E5"/><path d="M266.9-73.5a10.7 10.7 0 1 1 0-21.4 10.7 10.7 0 0 1 0 21.4" fill="#fff500E6"/><path d="M-63.3-72.4a10.7 10.7 0 1 1 0-21.5 10.7 10.7 0 0 1 0 21.5" fill="#fff500E7"/><path d="M-76.6-191.4a10.8 10.8 0 1 1 0-21.5 10.8 10.8 0 0 1 0 21.5" fill="#c2e1ffE7"/><path d="M91.8-329.2a10.8 10.8 0 1 1 0-21.6 10.8 10.8 0 0 1 0 21.6" fill="#fffE8"/><path d="M-66.5-90.4a10.8 10.8 0 1 1 0-21.6 10.8 10.8 0 0 1 0 21.6" fill="#fffE8"/><path d="M116.7 24.5a10.8 10.8 0 1 1 0-21.7 10.8 10.8 0 0 1 0 21.7" fill="#fffE9"/><path d="M17.3-0.4a10.9 10.9 0 1 1 0-21.8 10.9 10.9 0 0 1 0 21.8" fill="#005bbbEA"/><path d="M33.1-303.7a11 11 0 1 1 0-21.9 11 11 0 0 1 0 21.9" fill="#fffEC"/><path d="M-63.9-126.8a11 11 0 1 1 0-21.9 11 11 0 0 1 0 21.9" fill="#005bbbEC"/><path d="M223.8-261.2a11 11 0 1 1 0-21.9 11 11 0 0 1 0 21.9" fill="#fffEC"/><path d="M-9.9-274.8a11 11 0 1 1 0-21.9 11 11 0 0 1 0 21.9" fill="#c2e1ffEC"/><path d="M-5.3-276.3a11 11 0 1 1 0-22 11 11 0 0 1 0 22" fill="#fffEC"/><path d="M-50.8-98.5a11 11 0 1 1 0-22 11 11 0 0 1 0 22" fill="#005bbbED"/><path d="M213.1-43.8a11.1 11.1 0 1 1 0-22.1 11.1 11.1 0 0 1 0 22.1" fill="#fff500EE"/><path d="M255.1-145.8a11.1 11.1 0 1 1 0-22.1 11.1 11.1 0 0 1 0 22.1" fill="#005bbbEF"/><path d="M49.1-294.8a11.1 11.1 0 1 1 0-22.2 11.1 11.1 0 0 1 0 22.2" fill="#c2e1ffEF"/><path d="M194.1-268.3a11.1 11.1 0 1 1 0-22.3 11.1 11.1 0 0 1 0 22.3" fill="#fffF0"/><path d="M-6.6-48.4a11.2 11.2 0 1 1 0-22.4 11.2 11.2 0 0 1 0 22.4" fill="#fff500F0"/><path d="M237.9-189.9a11.2 11.2 0 1 1 0-22.4 11.2 11.2 0 0 1 0 22.4" fill="#c2e1ffF1"/><path d="M222.7-93.2a11.3 11.3 0 1 1 0-22.5 11.3 11.3 0 0 1 0 22.5" fill="#005bbbF3"/><path d="M228.6-116.4a11.3 11.3 0 1 1 0-22.6 11.3 11.3 0 0 1 0 22.6" fill="#fffF3"/><path d="M226.5-166.3a11.3 11.3 0 1 1 0-22.7 11.3 11.3 0 0 1 0 22.7" fill="#005bbbF4"/><path d="M172.3-248.3a11.4 11.4 0 1 1 0-22.8 11.4 11.4 0 0 1 0 22.8" fill="#005bbbF5"/><path d="M19.9-234.2a11.4 11.4 0 1 1 0-22.9 11.4 11.4 0 0 1 0 22.9" fill="#005bbbF6"/><path d="M70.8-245.8a11.5 11.5 0 1 1 0-23.1 11.5 11.5 0 0 1 0 23.1" fill="#c2e1ffF8"/><path d="M189.5-158.3a11.6 11.6 0 1 1 0-23.2 11.6 11.6 0 0 1 0 23.2" fill="#c2e1ffFA"/><path d="M182.8-143.2a11.6 11.6 0 1 1 0-23.3 11.6 11.6 0 0 1 0 23.3" fill="#c2e1ffFA"/><path d="M89.8-83a11.7 11.7 0 1 1 0-23.4 11.7 11.7 0 0 1 0 23.4" fill="#fff500FC"/><path d="M118.8-85.9a11.7 11.7 0 1 1 0-23.4 11.7 11.7 0 0 1 0 23.4" fill="#005bbbFC"/><path d="M42.7-159.7a11.7 11.7 0 1 1 0-23.4 11.7 11.7 0 0 1 0 23.4" fill="#fffFD"/><path d="M132.2-189.8a11.7 11.7 0 1 1 0-23.4 11.7 11.7 0 0 1 0 23.4" fill="#fff500FD"/><path d="M90.8-134.1a11.8 11.8 0 1 1 0-23.6 11.8 11.8 0 0 1 0 23.6" fill="#fffFE"/></g></svg>