<svg width="1200" height="675" viewBox="-500 -500 1200 675" xmlns="http://www.w3.org/2000/svg"><path d="M-500-500h1200v675h-1200z" fill="#000"/><style>.sparkles path{stroke-linecap:round; stroke-width:1}</style><g class="sparkles"><path d="M100-162.5l-24.5 8.3" stroke="#d6282832"/><path d="M100-162.5l14.1-31.3" stroke="#eae2b732"/><path d="M100-162.5l41.6-53.1" stroke="#fcbf4934"/><path d="M100-162.5l57.3 37.6" stroke="#eae2b734"/><path d="M100-162.5l6.8-77.3" stroke="#d6282834"/><path d="M100-162.5l69.8-35.2" stroke="#eae2b734"/><path d="M100-162.5l46.9-72.6" stroke="#f77f0035"/><path d="M100-162.5l24.4-95.1" stroke="#fcbf4936"/><path d="M100-162.5l-23.3 97.8" stroke="#00304936"/><path d="M100-162.5l52.1-103.6" stroke="#eae2b738"/><path d="M100-162.5l-29.4-121" stroke="#eae2b739"/><path d="M100-162.5l99.2 77.9" stroke="#fcbf4939"/><path d="M100-162.5l102.8 88.3" stroke="#d628283B"/><path d="M100-162.5l145 14.8" stroke="#eae2b73C"/><path d="M100-162.5l-16.3 146.1" stroke="#fcbf493C"/><path d="M100-162.5l-58.7-135.6" stroke="#f77f003C"/><path d="M100-162.5l18.7-148.2" stroke="#fcbf493D"/><path d="M100-162.5l16 149.5" stroke="#f77f003D"/><path d="M100-162.5l-100.1-112.9" stroke="#fcbf493D"/><path d="M100-162.5l-76.9-130.7" stroke="#d628283D"/><path d="M100-162.5l153.7-28.7" stroke="#f77f003E"/><path d="M100-162.5l77.7 136.4" stroke="#f77f003E"/><path d="M100-162.5l116.8-106.8" stroke="#d628283E"/><path d="M100-162.5l-163.7-13.5" stroke="#d6282840"/><path d="M100-162.5l-27.5-163.6" stroke="#00304940"/><path d="M100-162.5l-158.4 53.8" stroke="#00304940"/><path d="M100-162.5l126.7 109.6" stroke="#f77f0040"/><path d="M100-162.5l-157.8-74.9" stroke="#00304942"/><path d="M100-162.5l-170.6 46.6" stroke="#eae2b742"/><path d="M100-162.5l174.1 38.9" stroke="#eae2b743"/><path d="M100-162.5l-36-176.5" stroke="#00304943"/><path d="M100-162.5l-3.5 180.8" stroke="#eae2b743"/><path d="M100-162.5l-151.7 107.2" stroke="#00304945"/><path d="M100-162.5l153.6 111.1" stroke="#eae2b746"/><path d="M100-162.5l-135.7-137.6" stroke="#fcbf4947"/><path d="M100-162.5l-181.9 76.1" stroke="#fcbf4948"/><path d="M100-162.5l-102.4-171.7" stroke="#d6282849"/><path d="M100-162.5l-149.3-134.8" stroke="#f77f0049"/><path d="M100-162.5l204.1-2.6" stroke="#d628284A"/><path d="M100-162.5l136 153.5" stroke="#eae2b74B"/><path d="M100-162.5l107.7 180.8" stroke="#d628284D"/><path d="M100-162.5l114.4-179.2" stroke="#d628284E"/><path d="M100-162.5l-110.6-183.1" stroke="#fcbf494E"/><path d="M100-162.5l178.7-118.3" stroke="#d628284E"/><path d="M100-162.5l176.4 122.7" stroke="#fcbf494F"/><path d="M100-162.5l-208.2-54.4" stroke="#fcbf494F"/><path d="M100-162.5l-216.6-3" stroke="#fcbf4950"/><path d="M100-162.5l-214.3 40.6" stroke="#eae2b750"/><path d="M100-162.5l-211 56.4" stroke="#00304950"/><path d="M100-162.5l18.5-217.8" stroke="#00304951"/><path d="M100-162.5l-89.3 201.4" stroke="#d6282851"/><path d="M100-162.5l153.7-160.1" stroke="#f77f0052"/><path d="M100-162.5l134.2-176.9" stroke="#f77f0052"/><path d="M100-162.5l152.7 163.3" stroke="#f77f0053"/><path d="M100-162.5l186.4-123.7" stroke="#eae2b753"/><path d="M100-162.5l100 200.2" stroke="#00304954"/><path d="M100-162.5l114.7-192.3" stroke="#f77f0054"/><path d="M100-162.5l-188.9 121.5" stroke="#00304954"/><path d="M100-162.5l141.2 175.4" stroke="#d6282854"/><path d="M100-162.5l-218.6 56.8" stroke="#00304955"/><path d="M100-162.5l-221-47.3" stroke="#eae2b755"/><path d="M100-162.5l-95.3-205.2" stroke="#f77f0055"/><path d="M100-162.5l-195.8 113.4" stroke="#eae2b755"/><path d="M100-162.5l-163.4 158" stroke="#eae2b756"/><path d="M100-162.5l226.1 24.3" stroke="#d6282856"/><path d="M100-162.5l-69.4-217.1" stroke="#fcbf4956"/><path d="M100-162.5l-30.4-226.1" stroke="#f77f0057"/><path d="M100-162.5l187.4-131.9" stroke="#fcbf4957"/><path d="M100-162.5l222.2-56.4" stroke="#00304957"/><path d="M100-162.5l-168.5 157.2" stroke="#00304958"/><path d="M100-162.5l174.4 150.7" stroke="#fcbf4959"/><path d="M100-162.5l-99.8-209.7" stroke="#fcbf495A"/><path d="M100-162.5l67.6 222.3" stroke="#fcbf495A"/><path d="M100-162.5l-123.3-197.9" stroke="#eae2b75C"/><path d="M100-162.5l-157-172.5" stroke="#d628285C"/><path d="M100-162.5l-222.5-70.9" stroke="#fcbf495C"/><path d="M100-162.5l233.3 13.5" stroke="#eae2b75C"/><path d="M100-162.5l199.7 121.3" stroke="#f77f005C"/><path d="M100-162.5l-233.5 9.9" stroke="#d628285C"/><path d="M100-162.5l-107.2 208.2" stroke="#0030495D"/><path d="M100-162.5l234.9 0" stroke="#eae2b75E"/><path d="M100-162.5l-225.8 65.8" stroke="#0030495F"/><path d="M100-162.5l235.2 11.8" stroke="#00304960"/><path d="M100-162.5l54.9 229.1" stroke="#fcbf4960"/><path d="M100-162.5l215.3-95.9" stroke="#f77f0060"/><path d="M100-162.5l-151.1-180.9" stroke="#eae2b760"/><path d="M100-162.5l146-185.1" stroke="#f77f0060"/><path d="M100-162.5l218.3-89" stroke="#eae2b760"/><path d="M100-162.5l-32.2-233.8" stroke="#d6282861"/><path d="M100-162.5l-195.8 132" stroke="#d6282862"/><path d="M100-162.5l196.4 131.1" stroke="#00304962"/><path d="M100-162.5l-59.4 228.6" stroke="#d6282863"/><path d="M100-162.5l-125.7-200" stroke="#00304963"/><path d="M100-162.5l-21.9-235.2" stroke="#fcbf4964"/><path d="M100-162.5l220.1-85.8" stroke="#fcbf4964"/><path d="M100-162.5l202.4 121.8" stroke="#eae2b765"/><path d="M100-162.5l-160.2-173.4" stroke="#d6282865"/><path d="M100-162.5l102.9 212.3" stroke="#fcbf4966"/><path d="M100-162.5l188.1 142.3" stroke="#eae2b767"/><path d="M100-162.5l-150.8-181.1" stroke="#d6282867"/><path d="M100-162.5l90 217.7" stroke="#fcbf4967"/><path d="M100-162.5l182.8-148.4" stroke="#00304968"/><path d="M100-162.5l142.4-187.4" stroke="#f77f0068"/><path d="M100-162.5l-113.6 206" stroke="#fcbf4968"/><path d="M100-162.5l-43.3 231.2" stroke="#d6282868"/><path d="M100-162.5l-70.3-224.4" stroke="#f77f0068"/><path d="M100-162.5l-21.9-233.8" stroke="#00304969"/><path d="M100-162.5l-170.1-161.4" stroke="#f77f006A"/><path d="M100-162.5l-107.2 208.4" stroke="#0030496A"/><path d="M100-162.5l224.5 66.3" stroke="#fcbf496A"/><path d="M100-162.5l-202.2-117.3" stroke="#d628286B"/><path d="M100-162.5l-132.2 192.5" stroke="#fcbf496B"/><path d="M100-162.5l3.6 233.4" stroke="#d628286B"/><path d="M100-162.5l180.4-147.3" stroke="#eae2b76C"/><path d="M100-162.5l214.4-89.1" stroke="#d628286D"/><path d="M100-162.5l-226.3-51" stroke="#eae2b76D"/><path d="M100-162.5l179.9-146" stroke="#f77f006D"/><path d="M100-162.5l119.8 198.3" stroke="#0030496D"/><path d="M100-162.5l229.7-14.9" stroke="#eae2b76F"/><path d="M100-162.5l-213.1 85.2" stroke="#fcbf496F"/><path d="M100-162.5l-43.5 225" stroke="#00304970"/><path d="M100-162.5l212.9 84.2" stroke="#00304970"/><path d="M100-162.5l-15.7-227.7" stroke="#fcbf4970"/><path d="M100-162.5l-166.7 153.9" stroke="#f77f0071"/><path d="M100-162.5l209.2-87.7" stroke="#00304971"/><path d="M100-162.5l-84.1 210.5" stroke="#f77f0072"/><path d="M100-162.5l-129.4 185.5" stroke="#d6282872"/><path d="M100-162.5l103.7 199.4" stroke="#f77f0073"/><path d="M100-162.5l218-45.2" stroke="#f77f0074"/><path d="M100-162.5l141.9 170.1" stroke="#00304975"/><path d="M100-162.5l202.3-86.8" stroke="#fcbf4976"/><path d="M100-162.5l104.5 192.3" stroke="#fcbf4976"/><path d="M100-162.5l111.6 187.4" stroke="#eae2b777"/><path d="M100-162.5l215.6 6.7" stroke="#00304978"/><path d="M100-162.5l-212.4 35.5" stroke="#00304978"/><path d="M100-162.5l-130.1 170.6" stroke="#d6282878"/><path d="M100-162.5l208-51.8" stroke="#d6282879"/><path d="M100-162.5l211.9 29.1" stroke="#d6282879"/><path d="M100-162.5l40.5 209.7" stroke="#d6282879"/><path d="M100-162.5l22.9 211.7" stroke="#f77f0079"/><path d="M100-162.5l23.6 211.4" stroke="#eae2b779"/><path d="M100-162.5l-5.7 209.3" stroke="#d628287B"/><path d="M100-162.5l-205.3-22" stroke="#0030497C"/><path d="M100-162.5l204.4-19" stroke="#eae2b77C"/><path d="M100-162.5l196.2-30.7" stroke="#d628287F"/><path d="M100-162.5l119.6 157.1" stroke="#eae2b77F"/><path d="M100-162.5l41.8-191.5" stroke="#f77f007F"/><path d="M100-162.5l130.1-145.9" stroke="#eae2b780"/><path d="M100-162.5l176.4-83.8" stroke="#d6282880"/><path d="M100-162.5l-175.3-75.4" stroke="#fcbf4981"/><path d="M100-162.5l82.1-172" stroke="#f77f0081"/><path d="M100-162.5l-28.4 187.9" stroke="#eae2b781"/><path d="M100-162.5l83.5-169.1" stroke="#fcbf4982"/><path d="M100-162.5l112-149.7" stroke="#f77f0082"/><path d="M100-162.5l-156.3 91.4" stroke="#f77f0084"/><path d="M100-162.5l-58.9-170" stroke="#d6282884"/><path d="M100-162.5l133.6-116.1" stroke="#eae2b785"/><path d="M100-162.5l-109.9-134.7" stroke="#d6282885"/><path d="M100-162.5l-38.2-163.5" stroke="#d6282887"/><path d="M100-162.5l-148.9-73.3" stroke="#eae2b787"/><path d="M100-162.5l138.9-87.3" stroke="#d6282887"/><path d="M100-162.5l159-24.6" stroke="#eae2b788"/><path d="M100-162.5l101.6-119.5" stroke="#eae2b789"/><path d="M100-162.5l-150.6-27.4" stroke="#0030498A"/><path d="M100-162.5l144.1-17.6" stroke="#eae2b78B"/><path d="M100-162.5l-133.8 45.9" stroke="#f77f008C"/><path d="M100-162.5l140.5 11" stroke="#0030498C"/><path d="M100-162.5l52.6-130.3" stroke="#fcbf498C"/><path d="M100-162.5l-85.7-100.6" stroke="#0030498D"/><path d="M100-162.5l87.2-85.9" stroke="#eae2b78E"/><path d="M100-162.5l-87-82.5" stroke="#eae2b78F"/><path d="M100-162.5l1.7-119.4" stroke="#0030498F"/><path d="M100-162.5l113.4 8.4" stroke="#eae2b78F"/><path d="M100-162.5l70.1-83.6" stroke="#fcbf4990"/><path d="M100-162.5l-27.4-91.8" stroke="#d6282891"/><path d="M100-162.5l-65.3 30.3" stroke="#f77f0093"/><path d="M100-162.5l60.6 9.5" stroke="#eae2b794"/><path d="M100-162.5l1.9 59.8" stroke="#eae2b794"/><path d="M100-162.5l-39.1-30.7" stroke="#00304994"/><path d="M100-162.5l45.7 16.6" stroke="#d6282894"/><path d="M100-162.5l45.4 7.7" stroke="#fcbf4995"/></g><g class="sparcs"><path d="M75.5-148.3a5.9 5.9 0 1 1 0-11.9 5.9 5.9 0 0 1 0 11.9" fill="#0030497D"/><path d="M114.1-187.9a5.9 5.9 0 1 1 0-11.8 5.9 5.9 0 0 1 0 11.8" fill="#f77f007D"/><path d="M141.6-209.6a6 6 0 1 1 0-12 6 6 0 0 1 0 12" fill="#eae2b77F"/><path d="M157.3-118.9a6 6 0 1 1 0-12 6 6 0 0 1 0 12" fill="#f77f007F"/><path d="M106.8-233.8a6.1 6.1 0 1 1 0-12.1 6.1 6.1 0 0 1 0 12.1" fill="#eae2b780"/><path d="M169.8-191.6a6.1 6.1 0 1 1 0-12.1 6.1 6.1 0 0 1 0 12.1" fill="#d6282880"/><path d="M146.9-229a6.1 6.1 0 1 1 0-12.2 6.1 6.1 0 0 1 0 12.2" fill="#eae2b781"/><path d="M124.4-251.4a6.2 6.2 0 1 1 0-12.3 6.2 6.2 0 0 1 0 12.3" fill="#eae2b782"/><path d="M76.7-58.5a6.2 6.2 0 1 1 0-12.3 6.2 6.2 0 0 1 0 12.3" fill="#d6282883"/><path d="M152.1-259.8a6.3 6.3 0 1 1 0-12.5 6.3 6.3 0 0 1 0 12.5" fill="#d6282885"/><path d="M70.6-277.2a6.4 6.4 0 1 1 0-12.7 6.4 6.4 0 0 1 0 12.7" fill="#eae2b786"/><path d="M199.2-78.3a6.4 6.4 0 1 1 0-12.7 6.4 6.4 0 0 1 0 12.7" fill="#f77f0087"/><path d="M202.8-67.8a6.4 6.4 0 1 1 0-12.9 6.4 6.4 0 0 1 0 12.9" fill="#d6282888"/><path d="M245-141.2a6.5 6.5 0 1 1 0-13 6.5 6.5 0 0 1 0 13" fill="#eae2b78A"/><path d="M83.7-9.9a6.5 6.5 0 1 1 0-13 6.5 6.5 0 0 1 0 13" fill="#d628288B"/><path d="M41.3-291.5a6.6 6.6 0 1 1 0-13.1 6.6 6.6 0 0 1 0 13.1" fill="#d628288B"/><path d="M118.7-304.1a6.6 6.6 0 1 1 0-13.2 6.6 6.6 0 0 1 0 13.2" fill="#0030498B"/><path d="M116-6.4a6.6 6.6 0 1 1 0-13.2 6.6 6.6 0 0 1 0 13.2" fill="#eae2b78B"/><path d="M-0.1-268.9a6.6 6.6 0 1 1 0-13.1 6.6 6.6 0 0 1 0 13.1" fill="#eae2b78B"/><path d="M23.1-286.6a6.6 6.6 0 1 1 0-13.2 6.6 6.6 0 0 1 0 13.2" fill="#eae2b78C"/><path d="M253.7-184.5a6.6 6.6 0 1 1 0-13.3 6.6 6.6 0 0 1 0 13.3" fill="#f77f008D"/><path d="M177.7-19.5a6.7 6.7 0 1 1 0-13.3 6.7 6.7 0 0 1 0 13.3" fill="#fcbf498D"/><path d="M216.8-262.6a6.7 6.7 0 1 1 0-13.4 6.7 6.7 0 0 1 0 13.4" fill="#eae2b78D"/><path d="M-63.7-169.2a6.7 6.7 0 1 1 0-13.5 6.7 6.7 0 0 1 0 13.5" fill="#0030498F"/><path d="M72.5-319.4a6.8 6.8 0 1 1 0-13.5 6.8 6.8 0 0 1 0 13.5" fill="#0030498F"/><path d="M-58.4-102a6.8 6.8 0 1 1 0-13.5 6.8 6.8 0 0 1 0 13.5" fill="#00304990"/><path d="M226.7-46.1a6.8 6.8 0 1 1 0-13.6 6.8 6.8 0 0 1 0 13.6" fill="#d6282890"/><path d="M-57.8-230.5a6.9 6.9 0 1 1 0-13.7 6.9 6.9 0 0 1 0 13.7" fill="#d6282892"/><path d="M-70.6-109a6.9 6.9 0 1 1 0-13.8 6.9 6.9 0 0 1 0 13.8" fill="#d6282892"/><path d="M274.1-116.7a6.9 6.9 0 1 1 0-13.8 6.9 6.9 0 0 1 0 13.8" fill="#00304993"/><path d="M64-332a6.9 6.9 0 1 1 0-13.9 6.9 6.9 0 0 1 0 13.9" fill="#00304993"/><path d="M96.5 25.2a7 7 0 1 1 0-13.9 7 7 0 0 1 0 13.9" fill="#eae2b794"/><path d="M-51.7-48.3a7 7 0 1 1 0-14 7 7 0 0 1 0 14" fill="#f77f0095"/><path d="M253.6-44.3a7.1 7.1 0 1 1 0-14.2 7.1 7.1 0 0 1 0 14.2" fill="#fcbf4997"/><path d="M-35.7-292.9a7.2 7.2 0 1 1 0-14.3 7.2 7.2 0 0 1 0 14.3" fill="#f77f0098"/><path d="M-81.9-79.2a7.2 7.2 0 1 1 0-14.4 7.2 7.2 0 0 1 0 14.4" fill="#eae2b79A"/><path d="M-2.4-326.9a7.3 7.3 0 1 1 0-14.6 7.3 7.3 0 0 1 0 14.6" fill="#d628289B"/><path d="M-49.3-290a7.3 7.3 0 1 1 0-14.6 7.3 7.3 0 0 1 0 14.6" fill="#d628289B"/><path d="M304.1-157.7a7.4 7.4 0 1 1 0-14.8 7.4 7.4 0 0 1 0 14.8" fill="#fcbf499D"/><path d="M236-1.6a7.4 7.4 0 1 1 0-14.8 7.4 7.4 0 0 1 0 14.8" fill="#eae2b79D"/><path d="M207.7 25.8a7.5 7.5 0 1 1 0-15.1 7.5 7.5 0 0 1 0 15.1" fill="#d62828A0"/><path d="M214.4-334.2a7.6 7.6 0 1 1 0-15.1 7.6 7.6 0 0 1 0 15.1" fill="#f77f00A1"/><path d="M-10.6-338a7.6 7.6 0 1 1 0-15.2 7.6 7.6 0 0 1 0 15.2" fill="#f77f00A2"/><path d="M278.7-273.2a7.6 7.6 0 1 1 0-15.2 7.6 7.6 0 0 1 0 15.2" fill="#003049A2"/><path d="M276.4-32.2a7.6 7.6 0 1 1 0-15.3 7.6 7.6 0 0 1 0 15.3" fill="#f77f00A2"/><path d="M-108.2-209.3a7.6 7.6 0 1 1 0-15.2 7.6 7.6 0 0 1 0 15.2" fill="#eae2b7A3"/><path d="M-116.6-157.8a7.7 7.7 0 1 1 0-15.3 7.7 7.7 0 0 1 0 15.3" fill="#d62828A4"/><path d="M-114.3-114.2a7.7 7.7 0 1 1 0-15.4 7.7 7.7 0 0 1 0 15.4" fill="#fcbf49A5"/><path d="M-111-98.4a7.7 7.7 0 1 1 0-15.4 7.7 7.7 0 0 1 0 15.4" fill="#d62828A5"/><path d="M118.5-372.6a7.7 7.7 0 1 1 0-15.5 7.7 7.7 0 0 1 0 15.5" fill="#f77f00A5"/><path d="M10.7 46.7a7.8 7.8 0 1 1 0-15.6 7.8 7.8 0 0 1 0 15.6" fill="#d62828A6"/><path d="M253.7-314.8a7.8 7.8 0 1 1 0-15.7 7.8 7.8 0 0 1 0 15.7" fill="#003049A7"/><path d="M234.2-331.6a7.9 7.9 0 1 1 0-15.7 7.9 7.9 0 0 1 0 15.7" fill="#fcbf49A7"/><path d="M252.7 8.7a7.9 7.9 0 1 1 0-15.8 7.9 7.9 0 0 1 0 15.8" fill="#f77f00A8"/><path d="M286.4-278.3a7.9 7.9 0 1 1 0-15.8 7.9 7.9 0 0 1 0 15.8" fill="#fcbf49A9"/><path d="M200 45.6a7.9 7.9 0 1 1 0-15.8 7.9 7.9 0 0 1 0 15.8" fill="#fcbf49A9"/><path d="M214.7-346.9a7.9 7.9 0 1 1 0-15.8 7.9 7.9 0 0 1 0 15.8" fill="#eae2b7A9"/><path d="M-88.9-33.1a7.9 7.9 0 1 1 0-15.9 7.9 7.9 0 0 1 0 15.9" fill="#d62828A9"/><path d="M241.2 20.9a8 8 0 1 1 0-15.9 8 8 0 0 1 0 15.9" fill="#f77f00AA"/><path d="M-118.6-97.7a8 8 0 1 1 0-16 8 8 0 0 1 0 16" fill="#fcbf49AA"/><path d="M-121-201.8a8 8 0 1 1 0-16 8 8 0 0 1 0 16" fill="#003049AB"/><path d="M4.7-359.7a8 8 0 1 1 0-16 8 8 0 0 1 0 16" fill="#f77f00AB"/><path d="M-95.8-41.1a8 8 0 1 1 0-16 8 8 0 0 1 0 16" fill="#eae2b7AB"/><path d="M-63.4 3.6a8.1 8.1 0 1 1 0-16.1 8.1 8.1 0 0 1 0 16.1" fill="#eae2b7AC"/><path d="M326.1-130.1a8.1 8.1 0 1 1 0-16.1 8.1 8.1 0 0 1 0 16.1" fill="#eae2b7AC"/><path d="M30.6-371.5a8.1 8.1 0 1 1 0-16.2 8.1 8.1 0 0 1 0 16.2" fill="#d62828AC"/><path d="M69.6-380.5a8.1 8.1 0 1 1 0-16.2 8.1 8.1 0 0 1 0 16.2" fill="#003049AD"/><path d="M287.4-286.2a8.1 8.1 0 1 1 0-16.3 8.1 8.1 0 0 1 0 16.3" fill="#f77f00AE"/><path d="M322.2-210.7a8.1 8.1 0 1 1 0-16.3 8.1 8.1 0 0 1 0 16.3" fill="#eae2b7AE"/><path d="M-68.5 2.9a8.2 8.2 0 1 1 0-16.4 8.2 8.2 0 0 1 0 16.4" fill="#fcbf49AF"/><path d="M274.4-3.5a8.2 8.2 0 1 1 0-16.5 8.2 8.2 0 0 1 0 16.5" fill="#fcbf49AF"/><path d="M0.2-363.9a8.3 8.3 0 1 1 0-16.6 8.3 8.3 0 0 1 0 16.6" fill="#d62828B2"/><path d="M167.6 68.2a8.3 8.3 0 1 1 0-16.7 8.3 8.3 0 0 1 0 16.7" fill="#d62828B2"/><path d="M-23.3-352.1a8.4 8.4 0 1 1 0-16.7 8.4 8.4 0 0 1 0 16.7" fill="#f77f00B3"/><path d="M-57-326.6a8.4 8.4 0 1 1 0-16.8 8.4 8.4 0 0 1 0 16.8" fill="#003049B3"/><path d="M-122.5-225a8.4 8.4 0 1 1 0-16.8 8.4 8.4 0 0 1 0 16.8" fill="#003049B4"/><path d="M333.3-140.6a8.4 8.4 0 1 1 0-16.9 8.4 8.4 0 0 1 0 16.9" fill="#fcbf49B4"/><path d="M299.7-32.8a8.4 8.4 0 1 1 0-16.9 8.4 8.4 0 0 1 0 16.9" fill="#f77f00B4"/><path d="M-133.5-144.2a8.4 8.4 0 1 1 0-16.8 8.4 8.4 0 0 1 0 16.8" fill="#003049B4"/><path d="M-7.2 54.2a8.5 8.5 0 1 1 0-16.9 8.5 8.5 0 0 1 0 16.9" fill="#003049B5"/><path d="M334.9-153.9a8.5 8.5 0 1 1 0-17.1 8.5 8.5 0 0 1 0 17.1" fill="#f77f00B7"/><path d="M-125.8-88.2a8.6 8.6 0 1 1 0-17.1 8.6 8.6 0 0 1 0 17.1" fill="#003049B7"/><path d="M335.2-142.1a8.6 8.6 0 1 1 0-17.3 8.6 8.6 0 0 1 0 17.3" fill="#fcbf49B8"/><path d="M154.9 75.2a8.6 8.6 0 1 1 0-17.2 8.6 8.6 0 0 1 0 17.2" fill="#fcbf49B9"/><path d="M315.3-249.7a8.6 8.6 0 1 1 0-17.3 8.6 8.6 0 0 1 0 17.3" fill="#d62828B9"/><path d="M-51.1-334.7a8.6 8.6 0 1 1 0-17.3 8.6 8.6 0 0 1 0 17.3" fill="#f77f00B9"/><path d="M246-338.9a8.7 8.7 0 1 1 0-17.3 8.7 8.7 0 0 1 0 17.3" fill="#003049B9"/><path d="M318.3-242.8a8.7 8.7 0 1 1 0-17.4 8.7 8.7 0 0 1 0 17.4" fill="#fcbf49B9"/><path d="M67.8-387.5a8.7 8.7 0 1 1 0-17.5 8.7 8.7 0 0 1 0 17.5" fill="#fcbf49BA"/><path d="M-95.8-21.7a8.8 8.8 0 1 1 0-17.6 8.8 8.8 0 0 1 0 17.6" fill="#eae2b7BB"/><path d="M296.4-22.7a8.8 8.8 0 1 1 0-17.5 8.8 8.8 0 0 1 0 17.5" fill="#f77f00BB"/><path d="M40.6 74.9a8.8 8.8 0 1 1 0-17.6 8.8 8.8 0 0 1 0 17.6" fill="#d62828BC"/><path d="M-25.7-353.7a8.8 8.8 0 1 1 0-17.6 8.8 8.8 0 0 1 0 17.6" fill="#fcbf49BD"/><path d="M78.1-388.8a8.9 8.9 0 1 1 0-17.8 8.9 8.9 0 0 1 0 17.8" fill="#003049BF"/><path d="M320.1-239.4a8.9 8.9 0 1 1 0-17.8 8.9 8.9 0 0 1 0 17.8" fill="#d62828BF"/><path d="M302.4-31.7a8.9 8.9 0 1 1 0-17.9 8.9 8.9 0 0 1 0 17.9" fill="#d62828BF"/><path d="M-60.2-327a9 9 0 1 1 0-17.9 9 9 0 0 1 0 17.9" fill="#d62828C0"/><path d="M202.9 58.8a9 9 0 1 1 0-18 9 9 0 0 1 0 18" fill="#d62828C1"/><path d="M288.1-11.2a9 9 0 1 1 0-18.1 9 9 0 0 1 0 18.1" fill="#003049C2"/><path d="M-50.8-334.6a9.1 9.1 0 1 1 0-18.1 9.1 9.1 0 0 1 0 18.1" fill="#d62828C2"/><path d="M190 64.3a9.1 9.1 0 1 1 0-18.2 9.1 9.1 0 0 1 0 18.2" fill="#003049C2"/><path d="M282.8-301.8a9.1 9.1 0 1 1 0-18.2 9.1 9.1 0 0 1 0 18.2" fill="#d62828C3"/><path d="M242.4-340.8a9.1 9.1 0 1 1 0-18.2 9.1 9.1 0 0 1 0 18.2" fill="#003049C3"/><path d="M-13.6 52.6a9.1 9.1 0 1 1 0-18.3 9.1 9.1 0 0 1 0 18.3" fill="#d62828C4"/><path d="M56.7 77.8a9.1 9.1 0 1 1 0-18.3 9.1 9.1 0 0 1 0 18.3" fill="#fcbf49C4"/><path d="M29.7-377.8a9.1 9.1 0 1 1 0-18.3 9.1 9.1 0 0 1 0 18.3" fill="#fcbf49C4"/><path d="M78.1-387.1a9.2 9.2 0 1 1 0-18.4 9.2 9.2 0 0 1 0 18.4" fill="#fcbf49C5"/><path d="M-70.1-314.7a9.2 9.2 0 1 1 0-18.4 9.2 9.2 0 0 1 0 18.4" fill="#eae2b7C5"/><path d="M-7.2 55.2a9.2 9.2 0 1 1 0-18.5 9.2 9.2 0 0 1 0 18.5" fill="#d62828C6"/><path d="M324.5-87a9.3 9.3 0 1 1 0-18.5 9.3 9.3 0 0 1 0 18.5" fill="#eae2b7C6"/><path d="M-102.2-270.5a9.3 9.3 0 1 1 0-18.5 9.3 9.3 0 0 1 0 18.5" fill="#003049C7"/><path d="M-32.2 39.3a9.3 9.3 0 1 1 0-18.6 9.3 9.3 0 0 1 0 18.6" fill="#fcbf49C7"/><path d="M103.6 80.2a9.3 9.3 0 1 1 0-18.6 9.3 9.3 0 0 1 0 18.6" fill="#d62828C7"/><path d="M280.4-300.4a9.4 9.4 0 1 1 0-18.7 9.4 9.4 0 0 1 0 18.7" fill="#eae2b7C8"/><path d="M314.4-242.2a9.4 9.4 0 1 1 0-18.8 9.4 9.4 0 0 1 0 18.8" fill="#003049C9"/><path d="M-126.3-204.1a9.4 9.4 0 1 1 0-18.8 9.4 9.4 0 0 1 0 18.8" fill="#f77f00CA"/><path d="M279.9-299.1a9.4 9.4 0 1 1 0-18.9 9.4 9.4 0 0 1 0 18.9" fill="#d62828CA"/><path d="M219.8 45.2a9.4 9.4 0 1 1 0-18.8 9.4 9.4 0 0 1 0 18.8" fill="#003049CA"/><path d="M329.7-167.9a9.5 9.5 0 1 1 0-19.1 9.5 9.5 0 0 1 0 19.1" fill="#fcbf49CC"/><path d="M-113.1-67.7a9.6 9.6 0 1 1 0-19.2 9.6 9.6 0 0 1 0 19.2" fill="#eae2b7CD"/><path d="M56.5 72.1a9.6 9.6 0 1 1 0-19.1 9.6 9.6 0 0 1 0 19.1" fill="#f77f00CD"/><path d="M312.9-68.7a9.6 9.6 0 1 1 0-19.2 9.6 9.6 0 0 1 0 19.2" fill="#fcbf49CE"/><path d="M84.3-380.5a9.6 9.6 0 1 1 0-19.3 9.6 9.6 0 0 1 0 19.3" fill="#eae2b7CE"/><path d="M-66.7 1.1a9.7 9.7 0 1 1 0-19.3 9.7 9.7 0 0 1 0 19.3" fill="#003049D0"/><path d="M309.2-240.5a9.7 9.7 0 1 1 0-19.4 9.7 9.7 0 0 1 0 19.4" fill="#fcbf49D0"/><path d="M15.9 57.7a9.7 9.7 0 1 1 0-19.4 9.7 9.7 0 0 1 0 19.4" fill="#003049D0"/><path d="M-29.4 32.7a9.7 9.7 0 1 1 0-19.4 9.7 9.7 0 0 1 0 19.4" fill="#fcbf49D0"/><path d="M203.7 46.6a9.8 9.8 0 1 1 0-19.5 9.8 9.8 0 0 1 0 19.5" fill="#d62828D2"/><path d="M318-197.8a9.8 9.8 0 1 1 0-19.7 9.8 9.8 0 0 1 0 19.7" fill="#f77f00D3"/><path d="M241.9 17.5a9.9 9.9 0 1 1 0-19.8 9.9 9.9 0 0 1 0 19.8" fill="#f77f00D4"/><path d="M302.3-239.4a9.9 9.9 0 1 1 0-19.9 9.9 9.9 0 0 1 0 19.9" fill="#d62828D5"/><path d="M204.5 39.8a10 10 0 1 1 0-20 10 10 0 0 1 0 20" fill="#eae2b7D6"/><path d="M211.6 34.9a10 10 0 1 1 0-20 10 10 0 0 1 0 20" fill="#fcbf49D6"/><path d="M315.6-145.8a10.1 10.1 0 1 1 0-20.1 10.1 10.1 0 0 1 0 20.1" fill="#f77f00D8"/><path d="M-112.4-116.9a10.1 10.1 0 1 1 0-20.2 10.1 10.1 0 0 1 0 20.2" fill="#fcbf49D8"/><path d="M-30.1 18.2a10.1 10.1 0 1 1 0-20.2 10.1 10.1 0 0 1 0 20.2" fill="#eae2b7D9"/><path d="M308-204.2a10.1 10.1 0 1 1 0-20.2 10.1 10.1 0 0 1 0 20.2" fill="#d62828D9"/><path d="M311.9-123.3a10.1 10.1 0 1 1 0-20.2 10.1 10.1 0 0 1 0 20.2" fill="#f77f00D9"/><path d="M140.5 57.3a10.1 10.1 0 1 1 0-20.2 10.1 10.1 0 0 1 0 20.2" fill="#fcbf49D9"/><path d="M122.9 59.4a10.1 10.1 0 1 1 0-20.3 10.1 10.1 0 0 1 0 20.3" fill="#fcbf49DA"/><path d="M123.6 59a10.1 10.1 0 1 1 0-20.3 10.1 10.1 0 0 1 0 20.3" fill="#fcbf49DA"/><path d="M94.3 57a10.2 10.2 0 1 1 0-20.5 10.2 10.2 0 0 1 0 20.5" fill="#eae2b7DC"/><path d="M-105.3-174.2a10.3 10.3 0 1 1 0-20.6 10.3 10.3 0 0 1 0 20.6" fill="#eae2b7DD"/><path d="M304.4-171.2a10.3 10.3 0 1 1 0-20.7 10.3 10.3 0 0 1 0 20.7" fill="#003049DE"/><path d="M296.2-182.7a10.5 10.5 0 1 1 0-20.9 10.5 10.5 0 0 1 0 20.9" fill="#003049E1"/><path d="M219.6 5.1a10.5 10.5 0 1 1 0-21 10.5 10.5 0 0 1 0 21" fill="#f77f00E1"/><path d="M141.8-343.5a10.5 10.5 0 1 1 0-21 10.5 10.5 0 0 1 0 21" fill="#eae2b7E2"/><path d="M230.1-297.9a10.5 10.5 0 1 1 0-21 10.5 10.5 0 0 1 0 21" fill="#003049E2"/><path d="M276.4-235.8a10.5 10.5 0 1 1 0-21 10.5 10.5 0 0 1 0 21" fill="#fcbf49E2"/><path d="M-75.3-227.3a10.6 10.6 0 1 1 0-21.2 10.6 10.6 0 0 1 0 21.2" fill="#003049E4"/><path d="M182.1-323.9a10.6 10.6 0 1 1 0-21.2 10.6 10.6 0 0 1 0 21.2" fill="#eae2b7E4"/><path d="M71.6 36.1a10.6 10.6 0 1 1 0-21.3 10.6 10.6 0 0 1 0 21.3" fill="#f77f00E4"/><path d="M183.5-321a10.6 10.6 0 1 1 0-21.2 10.6 10.6 0 0 1 0 21.2" fill="#003049E5"/><path d="M212-301.5a10.7 10.7 0 1 1 0-21.4 10.7 10.7 0 0 1 0 21.4" fill="#eae2b7E5"/><path d="M-56.3-60.3a10.8 10.8 0 1 1 0-21.5 10.8 10.8 0 0 1 0 21.5" fill="#fcbf49E7"/><path d="M41.1-321.7a10.8 10.8 0 1 1 0-21.6 10.8 10.8 0 0 1 0 21.6" fill="#003049E8"/><path d="M233.6-267.8a10.8 10.8 0 1 1 0-21.6 10.8 10.8 0 0 1 0 21.6" fill="#d62828E9"/><path d="M-9.9-286.3a10.9 10.9 0 1 1 0-21.7 10.9 10.9 0 0 1 0 21.7" fill="#003049EA"/><path d="M61.8-315.1a10.9 10.9 0 1 1 0-21.9 10.9 10.9 0 0 1 0 21.9" fill="#f77f00EB"/><path d="M-48.9-224.8a11 11 0 1 1 0-22 11 11 0 0 1 0 22" fill="#f77f00EC"/><path d="M238.9-238.8a11 11 0 1 1 0-21.9 11 11 0 0 1 0 21.9" fill="#f77f00EC"/><path d="M259-176.1a11 11 0 1 1 0-22.1 11 11 0 0 1 0 22.1" fill="#003049ED"/><path d="M201.6-270.9a11.1 11.1 0 1 1 0-22.2 11.1 11.1 0 0 1 0 22.2" fill="#003049EE"/><path d="M-50.6-178.8a11.1 11.1 0 1 1 0-22.2 11.1 11.1 0 0 1 0 22.2" fill="#eae2b7EF"/><path d="M244.1-168.9a11.2 11.2 0 1 1 0-22.4 11.2 11.2 0 0 1 0 22.4" fill="#eae2b7F1"/><path d="M-33.8-105.4a11.2 11.2 0 1 1 0-22.4 11.2 11.2 0 0 1 0 22.4" fill="#003049F2"/><path d="M240.5-140.3a11.2 11.2 0 1 1 0-22.5 11.2 11.2 0 0 1 0 22.5" fill="#fcbf49F2"/><path d="M152.6-281.6a11.2 11.2 0 1 1 0-22.5 11.2 11.2 0 0 1 0 22.5" fill="#d62828F2"/><path d="M14.3-251.8a11.3 11.3 0 1 1 0-22.6 11.3 11.3 0 0 1 0 22.6" fill="#f77f00F3"/><path d="M187.2-237a11.4 11.4 0 1 1 0-22.8 11.4 11.4 0 0 1 0 22.8" fill="#f77f00F5"/><path d="M13-233.6a11.4 11.4 0 1 1 0-22.8 11.4 11.4 0 0 1 0 22.8" fill="#eae2b7F6"/><path d="M101.7-270.5a11.4 11.4 0 1 1 0-22.8 11.4 11.4 0 0 1 0 22.8" fill="#eae2b7F6"/><path d="M213.4-142.6a11.4 11.4 0 1 1 0-22.9 11.4 11.4 0 0 1 0 22.9" fill="#d62828F6"/><path d="M170.1-234.6a11.5 11.5 0 1 1 0-23 11.5 11.5 0 0 1 0 23" fill="#003049F7"/><path d="M72.6-242.8a11.6 11.6 0 1 1 0-23.1 11.6 11.6 0 0 1 0 23.1" fill="#fcbf49F9"/><path d="M34.7-120.5a11.7 11.7 0 1 1 0-23.4 11.7 11.7 0 0 1 0 23.4" fill="#eae2b7FB"/><path d="M160.6-141.3a11.7 11.7 0 1 1 0-23.5 11.7 11.7 0 0 1 0 23.5" fill="#f77f00FC"/><path d="M101.9-91a11.7 11.7 0 1 1 0-23.4 11.7 11.7 0 0 1 0 23.4" fill="#d62828FC"/><path d="M60.9-181.5a11.7 11.7 0 1 1 0-23.5 11.7 11.7 0 0 1 0 23.5" fill="#f77f00FD"/><path d="M145.7-134.2a11.7 11.7 0 1 1 0-23.5 11.7 11.7 0 0 1 0 23.5" fill="#003049FD"/><path d="M145.4-143a11.8 11.8 0 1 1 0-23.5 11.8 11.8 0 0 1 0 23.5" fill="#f77f00FD"/></g></svg>