<svg width="1200" height="675" viewBox="-500 -500 1200 675" xmlns="http://www.w3.org/2000/svg"><path d="M-500-500h1200v675h-1200z" fill="#000"/><style>.sparkles path{stroke-linecap:round; stroke-width:1}</style><g class="sparkles"><path d="M100-162.5l-12.6-32.8" stroke="#fff50032"/><path d="M100-162.5l-5.8 45.9" stroke="#005bbb32"/><path d="M100-162.5l-46.7 9.2" stroke="#fff33"/><path d="M100-162.5l55.8 8.6" stroke="#fff33"/><path d="M100-162.5l64.8 8" stroke="#c2e1ff33"/><path d="M100-162.5l68.2-17.2" stroke="#fff34"/><path d="M100-162.5l-24.9 69.3" stroke="#fff34"/><path d="M100-162.5l74.4 29.6" stroke="#fff34"/><path d="M100-162.5l-85.7 6" stroke="#fff35"/><path d="M100-162.5l-84.1 19.6" stroke="#c2e1ff35"/><path d="M100-162.5l-45.6 76.7" stroke="#fff35"/><path d="M100-162.5l6.4-96.5" stroke="#fff50036"/><path d="M100-162.5l-50.9 87.1" stroke="#005bbb36"/><path d="M100-162.5l-99.3 23.7" stroke="#005bbb36"/><path d="M100-162.5l-28.2 100.4" stroke="#005bbb37"/><path d="M100-162.5l105.2 11.5" stroke="#005bbb37"/><path d="M100-162.5l-71.3 81.3" stroke="#c2e1ff37"/><path d="M100-162.5l-53.2 96" stroke="#fff50037"/><path d="M100-162.5l-24.9 108.2" stroke="#c2e1ff37"/><path d="M100-162.5l-45.3-103" stroke="#005bbb38"/><path d="M100-162.5l-42.6-105.8" stroke="#005bbb38"/><path d="M100-162.5l87.4 75.3" stroke="#c2e1ff38"/><path d="M100-162.5l73-91.5" stroke="#fff38"/><path d="M100-162.5l99.4-66.3" stroke="#fff50038"/><path d="M100-162.5l-68.6 101.3" stroke="#c2e1ff39"/><path d="M100-162.5l-129.8 19" stroke="#005bbb3A"/><path d="M100-162.5l-52.9 121.2" stroke="#fff5003A"/><path d="M100-162.5l43.5 127.6" stroke="#c2e1ff3A"/><path d="M100-162.5l-110.4 87.7" stroke="#c2e1ff3B"/><path d="M100-162.5l132.7 58.4" stroke="#fff3C"/><path d="M100-162.5l-89.7-124.7" stroke="#005bbb3E"/><path d="M100-162.5l112.4-108.6" stroke="#c2e1ff3E"/><path d="M100-162.5l-160.6 38.8" stroke="#005bbb40"/><path d="M100-162.5l-165.6-42.7" stroke="#fff50041"/><path d="M100-162.5l-63.7 164.4" stroke="#fff42"/><path d="M100-162.5l-86.6-154.1" stroke="#005bbb42"/><path d="M100-162.5l176.8-3.1" stroke="#c2e1ff42"/><path d="M100-162.5l119.5 135.1" stroke="#fff43"/><path d="M100-162.5l-66.7 168" stroke="#c2e1ff43"/><path d="M100-162.5l48.5-180.8" stroke="#fff50045"/><path d="M100-162.5l-42.8-187.7" stroke="#fff47"/><path d="M100-162.5l-169.8-96.6" stroke="#fff50047"/><path d="M100-162.5l185.9 69.5" stroke="#005bbb48"/><path d="M100-162.5l-125.2-154.2" stroke="#fff48"/><path d="M100-162.5l185.3-76.1" stroke="#fff50049"/><path d="M100-162.5l160 124.2" stroke="#c2e1ff4A"/><path d="M100-162.5l-161.1-124.7" stroke="#005bbb4A"/><path d="M100-162.5l-203.3 16.5" stroke="#c2e1ff4A"/><path d="M100-162.5l-138.6-154.1" stroke="#005bbb4B"/><path d="M100-162.5l-201.4-53.2" stroke="#c2e1ff4C"/><path d="M100-162.5l-51.3 203" stroke="#fff5004C"/><path d="M100-162.5l91.6 189.1" stroke="#005bbb4D"/><path d="M100-162.5l-211.3 13.2" stroke="#c2e1ff4D"/><path d="M100-162.5l179.9 117.8" stroke="#c2e1ff4F"/><path d="M100-162.5l-107.4-187.7" stroke="#fff4F"/><path d="M100-162.5l74.8 202.9" stroke="#c2e1ff4F"/><path d="M100-162.5l-10.8-216.5" stroke="#c2e1ff50"/><path d="M100-162.5l106.3 193" stroke="#fff50051"/><path d="M100-162.5l-0.6-220.6" stroke="#005bbb52"/><path d="M100-162.5l87.8 203" stroke="#005bbb52"/><path d="M100-162.5l210.1 73.5" stroke="#fff53"/><path d="M100-162.5l-216.9 52.5" stroke="#c2e1ff53"/><path d="M100-162.5l201.8-95.5" stroke="#fff50053"/><path d="M100-162.5l-66.2 213.4" stroke="#fff50053"/><path d="M100-162.5l-135.2-179.8" stroke="#fff50054"/><path d="M100-162.5l-209-86.8" stroke="#c2e1ff55"/><path d="M100-162.5l-10.5 227.4" stroke="#fff50056"/><path d="M100-162.5l78 214.2" stroke="#fff56"/><path d="M100-162.5l-224-46.8" stroke="#fff50057"/><path d="M100-162.5l26.2 228.1" stroke="#fff58"/><path d="M100-162.5l11.7-229.7" stroke="#fff58"/><path d="M100-162.5l217.6-75.9" stroke="#fff58"/><path d="M100-162.5l-5.9 230.8" stroke="#fff59"/><path d="M100-162.5l227.1-43.1" stroke="#fff59"/><path d="M100-162.5l-115.7 201" stroke="#c2e1ff5A"/><path d="M100-162.5l-121.9 197.4" stroke="#c2e1ff5A"/><path d="M100-162.5l16.2 231.5" stroke="#005bbb5A"/><path d="M100-162.5l195.3-125.6" stroke="#fff5A"/><path d="M100-162.5l-229.5-38.4" stroke="#c2e1ff5B"/><path d="M100-162.5l-75.2-220.3" stroke="#fff5005B"/><path d="M100-162.5l170.9-158.6" stroke="#c2e1ff5B"/><path d="M100-162.5l-41.6 229.7" stroke="#fff5C"/><path d="M100-162.5l132.4 192.3" stroke="#005bbb5C"/><path d="M100-162.5l42.1-229.6" stroke="#c2e1ff5C"/><path d="M100-162.5l-145-183" stroke="#fff5C"/><path d="M100-162.5l229.8 42.5" stroke="#fff5C"/><path d="M100-162.5l211.8 99.3" stroke="#fff5D"/><path d="M100-162.5l183 146.7" stroke="#005bbb5D"/><path d="M100-162.5l233.6-24.3" stroke="#fff5005E"/><path d="M100-162.5l79.5-221.1" stroke="#005bbb5E"/><path d="M100-162.5l-87.9-218" stroke="#005bbb5F"/><path d="M100-162.5l-207 112.7" stroke="#005bbb60"/><path d="M100-162.5l-150.6 181.3" stroke="#005bbb60"/><path d="M100-162.5l167.4 166.1" stroke="#fff50060"/><path d="M100-162.5l-164.6 169.2" stroke="#005bbb62"/><path d="M100-162.5l230.1-52.8" stroke="#c2e1ff62"/><path d="M100-162.5l-235.2-20.9" stroke="#c2e1ff62"/><path d="M100-162.5l-194.1-134.5" stroke="#fff50062"/><path d="M100-162.5l-168-166.1" stroke="#fff64"/><path d="M100-162.5l-211 106.2" stroke="#fff64"/><path d="M100-162.5l184.2 147.8" stroke="#fff64"/><path d="M100-162.5l-233.9 33.1" stroke="#c2e1ff64"/><path d="M100-162.5l-236-8.6" stroke="#005bbb65"/><path d="M100-162.5l235.9 4.6" stroke="#fff50066"/><path d="M100-162.5l234.3-26.5" stroke="#fff50067"/><path d="M100-162.5l84.3 220" stroke="#fff67"/><path d="M100-162.5l229.7-49.9" stroke="#c2e1ff68"/><path d="M100-162.5l-35.7-232.3" stroke="#fff69"/><path d="M100-162.5l-227.3-58.4" stroke="#005bbb69"/><path d="M100-162.5l8.2 234.5" stroke="#fff50069"/><path d="M100-162.5l-167.7 163.4" stroke="#fff6A"/><path d="M100-162.5l222.5 72.8" stroke="#c2e1ff6A"/><path d="M100-162.5l193.6 131.6" stroke="#c2e1ff6A"/><path d="M100-162.5l-37.7 229.8" stroke="#fff6C"/><path d="M100-162.5l-232 15.8" stroke="#fff6C"/><path d="M100-162.5l-143.3 181.9" stroke="#c2e1ff6D"/><path d="M100-162.5l216.1-82.7" stroke="#fff6E"/><path d="M100-162.5l-201.6 112.4" stroke="#005bbb6E"/><path d="M100-162.5l-120.8 196.5" stroke="#fff5006E"/><path d="M100-162.5l16.8 229.5" stroke="#fff6F"/><path d="M100-162.5l88.1 212.6" stroke="#005bbb6F"/><path d="M100-162.5l-11.1-229.8" stroke="#fff5006F"/><path d="M100-162.5l-30 227.6" stroke="#fff6F"/><path d="M100-162.5l-13.4 228.4" stroke="#c2e1ff70"/><path d="M100-162.5l143.9 177.1" stroke="#005bbb70"/><path d="M100-162.5l194.6 118.2" stroke="#fff50071"/><path d="M100-162.5l72.2-215.2" stroke="#fff50071"/><path d="M100-162.5l105.8 200.4" stroke="#005bbb72"/><path d="M100-162.5l117-193.4" stroke="#c2e1ff72"/><path d="M100-162.5l81.3-210.6" stroke="#005bbb72"/><path d="M100-162.5l-5.9 225.3" stroke="#005bbb73"/><path d="M100-162.5l-160.8 157.9" stroke="#c2e1ff73"/><path d="M100-162.5l-174.2-142.6" stroke="#005bbb73"/><path d="M100-162.5l203.4 93.9" stroke="#005bbb73"/><path d="M100-162.5l-177.5-130.8" stroke="#005bbb75"/><path d="M100-162.5l171.7-132.7" stroke="#fff50077"/><path d="M100-162.5l-188.7 106.2" stroke="#fff77"/><path d="M100-162.5l58.9 208.3" stroke="#005bbb78"/><path d="M100-162.5l89.2-195.6" stroke="#005bbb78"/><path d="M100-162.5l146.7-151.6" stroke="#005bbb7A"/><path d="M100-162.5l-151.1-144.6" stroke="#fff7B"/><path d="M100-162.5l-102.9-181.1" stroke="#fff7B"/><path d="M100-162.5l123.6-167.5" stroke="#fff7B"/><path d="M100-162.5l207.7 3.5" stroke="#fff5007B"/><path d="M100-162.5l203.8 39.8" stroke="#c2e1ff7B"/><path d="M100-162.5l-1 207.2" stroke="#fff5007C"/><path d="M100-162.5l84.6-189" stroke="#fff5007C"/><path d="M100-162.5l-15.9-205.5" stroke="#fff5007C"/><path d="M100-162.5l116.9 168.9" stroke="#fff7C"/><path d="M100-162.5l0.1 203.8" stroke="#c2e1ff7D"/><path d="M100-162.5l-23.1 200.3" stroke="#fff7E"/><path d="M100-162.5l50.1-193.3" stroke="#fff7E"/><path d="M100-162.5l175.8 79.3" stroke="#fff50080"/><path d="M100-162.5l188.8-10.8" stroke="#c2e1ff81"/><path d="M100-162.5l-75.3 172.5" stroke="#005bbb82"/><path d="M100-162.5l-108.5 151.4" stroke="#c2e1ff82"/><path d="M100-162.5l-137.2-125.6" stroke="#fff50082"/><path d="M100-162.5l-132.6 124" stroke="#c2e1ff83"/><path d="M100-162.5l16.4-180" stroke="#fff84"/><path d="M100-162.5l179.3 0" stroke="#005bbb84"/><path d="M100-162.5l-83.2-152.8" stroke="#c2e1ff85"/><path d="M100-162.5l-170.6-17.5" stroke="#005bbb86"/><path d="M100-162.5l-75.7 151.8" stroke="#005bbb86"/><path d="M100-162.5l-86.9 145.4" stroke="#fff50086"/><path d="M100-162.5l66.3 151.3" stroke="#fff50087"/><path d="M100-162.5l159.6 40.9" stroke="#005bbb87"/><path d="M100-162.5l38.3-159.1" stroke="#fff50088"/><path d="M100-162.5l68.3 139.6" stroke="#fff89"/><path d="M100-162.5l142.8-52.9" stroke="#fff5008A"/><path d="M100-162.5l-90.7-120.3" stroke="#005bbb8A"/><path d="M100-162.5l-75.1 122.4" stroke="#c2e1ff8B"/><path d="M100-162.5l-49.6-131.1" stroke="#005bbb8C"/><path d="M100-162.5l-125.1-17.4" stroke="#fff5008E"/><path d="M100-162.5l-114.4-12.8" stroke="#fff5008F"/><path d="M100-162.5l-9.4-107.4" stroke="#c2e1ff90"/><path d="M100-162.5l-74.6-65.7" stroke="#c2e1ff91"/><path d="M100-162.5l14.8-96.7" stroke="#005bbb91"/><path d="M100-162.5l84.7-29.9" stroke="#fff92"/><path d="M100-162.5l-55.5-32.7" stroke="#fff94"/><path d="M100-162.5l17.5 24.6" stroke="#fff95"/><path d="M100-162.5l8.3-9.1" stroke="#c2e1ff95"/></g><g class="sparcs"><path d="M87.4-189.3a5.9 5.9 0 1 1 0-11.9 5.9 5.9 0 0 1 0 11.9" fill="#005bbb7D"/><path d="M94.2-110.7a6 6 0 1 1 0-11.9 6 6 0 0 1 0 11.9" fill="#c2e1ff7E"/><path d="M53.3-147.3a6 6 0 1 1 0-11.9 6 6 0 0 1 0 11.9" fill="#fff7E"/><path d="M155.8-147.9a6 6 0 1 1 0-12 6 6 0 0 1 0 12" fill="#005bbb7E"/><path d="M164.8-148.5a6 6 0 1 1 0-12.1 6 6 0 0 1 0 12.1" fill="#fff5007F"/><path d="M168.2-173.7a6 6 0 1 1 0-12.1 6 6 0 0 1 0 12.1" fill="#c2e1ff7F"/><path d="M75.1-87.1a6.1 6.1 0 1 1 0-12.1 6.1 6.1 0 0 1 0 12.1" fill="#fff50080"/><path d="M174.4-126.8a6.1 6.1 0 1 1 0-12.2 6.1 6.1 0 0 1 0 12.2" fill="#fff50080"/><path d="M14.3-150.4a6.1 6.1 0 1 1 0-12.2 6.1 6.1 0 0 1 0 12.2" fill="#fff81"/><path d="M15.9-136.8a6.1 6.1 0 1 1 0-12.2 6.1 6.1 0 0 1 0 12.2" fill="#fff50081"/><path d="M54.4-79.7a6.1 6.1 0 1 1 0-12.3 6.1 6.1 0 0 1 0 12.3" fill="#005bbb81"/><path d="M106.4-252.9a6.2 6.2 0 1 1 0-12.3 6.2 6.2 0 0 1 0 12.3" fill="#fff82"/><path d="M49.1-69.3a6.2 6.2 0 1 1 0-12.3 6.2 6.2 0 0 1 0 12.3" fill="#fff83"/><path d="M0.7-132.6a6.2 6.2 0 1 1 0-12.4 6.2 6.2 0 0 1 0 12.4" fill="#fff50083"/><path d="M71.8-55.9a6.2 6.2 0 1 1 0-12.4 6.2 6.2 0 0 1 0 12.4" fill="#fff50083"/><path d="M205.2-144.8a6.2 6.2 0 1 1 0-12.5 6.2 6.2 0 0 1 0 12.5" fill="#005bbb83"/><path d="M28.7-75a6.2 6.2 0 1 1 0-12.5 6.2 6.2 0 0 1 0 12.5" fill="#c2e1ff84"/><path d="M46.8-60.3a6.2 6.2 0 1 1 0-12.5 6.2 6.2 0 0 1 0 12.5" fill="#fff84"/><path d="M75.1-48a6.3 6.3 0 1 1 0-12.5 6.3 6.3 0 0 1 0 12.5" fill="#c2e1ff84"/><path d="M54.7-259.2a6.3 6.3 0 1 1 0-12.6 6.3 6.3 0 0 1 0 12.6" fill="#fff84"/><path d="M57.4-262a6.3 6.3 0 1 1 0-12.6 6.3 6.3 0 0 1 0 12.6" fill="#fff85"/><path d="M187.4-81a6.3 6.3 0 1 1 0-12.5 6.3 6.3 0 0 1 0 12.5" fill="#fff85"/><path d="M173-247.7a6.3 6.3 0 1 1 0-12.6 6.3 6.3 0 0 1 0 12.6" fill="#c2e1ff85"/><path d="M199.4-222.5a6.3 6.3 0 1 1 0-12.6 6.3 6.3 0 0 1 0 12.6" fill="#fff85"/><path d="M31.4-54.8a6.3 6.3 0 1 1 0-12.7 6.3 6.3 0 0 1 0 12.7" fill="#c2e1ff86"/><path d="M-29.8-137.1a6.4 6.4 0 1 1 0-12.8 6.4 6.4 0 0 1 0 12.8" fill="#c2e1ff87"/><path d="M47.1-34.9a6.4 6.4 0 1 1 0-12.8 6.4 6.4 0 0 1 0 12.8" fill="#c2e1ff88"/><path d="M143.5-28.5a6.4 6.4 0 1 1 0-12.9 6.4 6.4 0 0 1 0 12.9" fill="#005bbb88"/><path d="M-10.4-68.4a6.5 6.5 0 1 1 0-12.9 6.5 6.5 0 0 1 0 12.9" fill="#c2e1ff89"/><path d="M232.7-97.6a6.5 6.5 0 1 1 0-13 6.5 6.5 0 0 1 0 13" fill="#fff5008A"/><path d="M10.3-280.6a6.6 6.6 0 1 1 0-13.2 6.6 6.6 0 0 1 0 13.2" fill="#fff5008C"/><path d="M212.4-264.5a6.6 6.6 0 1 1 0-13.3 6.6 6.6 0 0 1 0 13.3" fill="#c2e1ff8D"/><path d="M-60.6-117a6.7 6.7 0 1 1 0-13.5 6.7 6.7 0 0 1 0 13.5" fill="#fff8F"/><path d="M-65.6-198.3a6.8 6.8 0 1 1 0-13.7 6.8 6.8 0 0 1 0 13.7" fill="#005bbb91"/><path d="M36.3 8.8a6.9 6.9 0 1 1 0-13.8 6.9 6.9 0 0 1 0 13.8" fill="#005bbb92"/><path d="M13.4-309.7a6.9 6.9 0 1 1 0-13.8 6.9 6.9 0 0 1 0 13.8" fill="#005bbb92"/><path d="M276.8-158.7a6.9 6.9 0 1 1 0-13.8 6.9 6.9 0 0 1 0 13.8" fill="#005bbb92"/><path d="M219.5-20.5a7 7 0 1 1 0-13.9 7 7 0 0 1 0 13.9" fill="#fff94"/><path d="M33.3 12.5a7 7 0 1 1 0-13.9 7 7 0 0 1 0 13.9" fill="#c2e1ff94"/><path d="M148.5-336.3a7.1 7.1 0 1 1 0-14.1 7.1 7.1 0 0 1 0 14.1" fill="#005bbb96"/><path d="M57.2-343.1a7.1 7.1 0 1 1 0-14.3 7.1 7.1 0 0 1 0 14.3" fill="#c2e1ff98"/><path d="M-69.8-251.9a7.2 7.2 0 1 1 0-14.4 7.2 7.2 0 0 1 0 14.4" fill="#c2e1ff99"/><path d="M285.9-85.7a7.3 7.3 0 1 1 0-14.5 7.3 7.3 0 0 1 0 14.5" fill="#c2e1ff9A"/><path d="M-25.2-309.5a7.3 7.3 0 1 1 0-14.5 7.3 7.3 0 0 1 0 14.5" fill="#fff5009A"/><path d="M285.3-231.3a7.3 7.3 0 1 1 0-14.6 7.3 7.3 0 0 1 0 14.6" fill="#fff5009B"/><path d="M260-31a7.3 7.3 0 1 1 0-14.7 7.3 7.3 0 0 1 0 14.7" fill="#005bbb9C"/><path d="M-61.1-279.8a7.4 7.4 0 1 1 0-14.8 7.4 7.4 0 0 1 0 14.8" fill="#fff9D"/><path d="M-103.3-138.7a7.4 7.4 0 1 1 0-14.7 7.4 7.4 0 0 1 0 14.7" fill="#005bbb9D"/><path d="M-38.6-309.1a7.4 7.4 0 1 1 0-14.9 7.4 7.4 0 0 1 0 14.9" fill="#005bbb9E"/><path d="M-101.4-208.3a7.5 7.5 0 1 1 0-14.9 7.5 7.5 0 0 1 0 14.9" fill="#005bbb9F"/><path d="M48.7 48a7.5 7.5 0 1 1 0-14.9 7.5 7.5 0 0 1 0 14.9" fill="#005bbb9F"/><path d="M191.6 34.1a7.5 7.5 0 1 1 0-15 7.5 7.5 0 0 1 0 15" fill="#c2e1ffA0"/><path d="M-111.3-141.7a7.5 7.5 0 1 1 0-15.1 7.5 7.5 0 0 1 0 15.1" fill="#005bbbA1"/><path d="M279.9-37a7.6 7.6 0 1 1 0-15.3 7.6 7.6 0 0 1 0 15.3" fill="#fff500A3"/><path d="M-7.4-342.6a7.7 7.7 0 1 1 0-15.3 7.7 7.7 0 0 1 0 15.3" fill="#fffA3"/><path d="M174.8 48.1a7.7 7.7 0 1 1 0-15.3 7.7 7.7 0 0 1 0 15.3" fill="#005bbbA3"/><path d="M89.2-371.3a7.7 7.7 0 1 1 0-15.4 7.7 7.7 0 0 1 0 15.4" fill="#fffA4"/><path d="M206.3 38.3a7.8 7.8 0 1 1 0-15.6 7.8 7.8 0 0 1 0 15.6" fill="#fff500A6"/><path d="M99.4-375.3a7.8 7.8 0 1 1 0-15.6 7.8 7.8 0 0 1 0 15.6" fill="#c2e1ffA6"/><path d="M187.8 48.4a7.8 7.8 0 1 1 0-15.7 7.8 7.8 0 0 1 0 15.7" fill="#fffA7"/><path d="M310.1-81.2a7.9 7.9 0 1 1 0-15.7 7.9 7.9 0 0 1 0 15.7" fill="#fff500A8"/><path d="M-116.9-102.1a7.9 7.9 0 1 1 0-15.8 7.9 7.9 0 0 1 0 15.8" fill="#c2e1ffA8"/><path d="M301.8-250.1a7.9 7.9 0 1 1 0-15.8 7.9 7.9 0 0 1 0 15.8" fill="#fffA8"/><path d="M33.8 58.8a7.9 7.9 0 1 1 0-15.8 7.9 7.9 0 0 1 0 15.8" fill="#c2e1ffA8"/><path d="M-35.2-334.3a8 8 0 1 1 0-15.9 8 8 0 0 1 0 15.9" fill="#c2e1ffAA"/><path d="M-109-241.3a8 8 0 1 1 0-16 8 8 0 0 1 0 16" fill="#fff500AB"/><path d="M89.5 73a8.1 8.1 0 1 1 0-16.2 8.1 8.1 0 0 1 0 16.2" fill="#c2e1ffAC"/><path d="M178 59.8a8.1 8.1 0 1 1 0-16.2 8.1 8.1 0 0 1 0 16.2" fill="#c2e1ffAC"/><path d="M-124-201.2a8.1 8.1 0 1 1 0-16.2 8.1 8.1 0 0 1 0 16.2" fill="#fff500AD"/><path d="M126.2 73.7a8.2 8.2 0 1 1 0-16.3 8.2 8.2 0 0 1 0 16.3" fill="#fffAE"/><path d="M111.7-384a8.2 8.2 0 1 1 0-16.4 8.2 8.2 0 0 1 0 16.4" fill="#fffAF"/><path d="M317.6-230.2a8.2 8.2 0 1 1 0-16.4 8.2 8.2 0 0 1 0 16.4" fill="#c2e1ffAF"/><path d="M94.1 76.5a8.2 8.2 0 1 1 0-16.4 8.2 8.2 0 0 1 0 16.4" fill="#c2e1ffB0"/><path d="M327.1-197.3a8.2 8.2 0 1 1 0-16.5 8.2 8.2 0 0 1 0 16.5" fill="#c2e1ffB0"/><path d="M-15.7 46.8a8.3 8.3 0 1 1 0-16.6 8.3 8.3 0 0 1 0 16.6" fill="#fffB1"/><path d="M-21.9 43.2a8.3 8.3 0 1 1 0-16.6 8.3 8.3 0 0 1 0 16.6" fill="#fffB1"/><path d="M116.2 77.3a8.3 8.3 0 1 1 0-16.7 8.3 8.3 0 0 1 0 16.7" fill="#c2e1ffB1"/><path d="M295.3-279.7a8.3 8.3 0 1 1 0-16.7 8.3 8.3 0 0 1 0 16.7" fill="#005bbbB2"/><path d="M-129.5-192.5a8.3 8.3 0 1 1 0-16.7 8.3 8.3 0 0 1 0 16.7" fill="#fffB2"/><path d="M24.8-374.4a8.4 8.4 0 1 1 0-16.7 8.4 8.4 0 0 1 0 16.7" fill="#fffB2"/><path d="M270.9-312.8a8.4 8.4 0 1 1 0-16.7 8.4 8.4 0 0 1 0 16.7" fill="#fff500B3"/><path d="M58.4 75.6a8.4 8.4 0 1 1 0-16.8 8.4 8.4 0 0 1 0 16.8" fill="#fffB4"/><path d="M232.4 38.2a8.4 8.4 0 1 1 0-16.8 8.4 8.4 0 0 1 0 16.8" fill="#c2e1ffB4"/><path d="M142.1-383.7a8.4 8.4 0 1 1 0-16.9 8.4 8.4 0 0 1 0 16.9" fill="#fffB4"/><path d="M-45-337.1a8.4 8.4 0 1 1 0-16.8 8.4 8.4 0 0 1 0 16.8" fill="#005bbbB4"/><path d="M329.8-111.6a8.4 8.4 0 1 1 0-16.8 8.4 8.4 0 0 1 0 16.8" fill="#fffB4"/><path d="M311.8-54.7a8.4 8.4 0 1 1 0-16.9 8.4 8.4 0 0 1 0 16.9" fill="#fff500B4"/><path d="M283-7.3a8.5 8.5 0 1 1 0-17 8.5 8.5 0 0 1 0 17" fill="#c2e1ffB6"/><path d="M333.6-178.2a8.5 8.5 0 1 1 0-17.1 8.5 8.5 0 0 1 0 17.1" fill="#c2e1ffB7"/><path d="M179.5-375.1a8.6 8.6 0 1 1 0-17.1 8.6 8.6 0 0 1 0 17.1" fill="#fff500B7"/><path d="M12.1-372a8.6 8.6 0 1 1 0-17.1 8.6 8.6 0 0 1 0 17.1" fill="#fffB7"/><path d="M-107-41.1a8.7 8.7 0 1 1 0-17.3 8.7 8.7 0 0 1 0 17.3" fill="#fffB9"/><path d="M-50.6 27.5a8.7 8.7 0 1 1 0-17.3 8.7 8.7 0 0 1 0 17.3" fill="#005bbbB9"/><path d="M267.4 12.3a8.7 8.7 0 1 1 0-17.4 8.7 8.7 0 0 1 0 17.4" fill="#c2e1ffB9"/><path d="M-64.6 15.5a8.7 8.7 0 1 1 0-17.5 8.7 8.7 0 0 1 0 17.5" fill="#005bbbBB"/><path d="M330.1-206.5a8.8 8.8 0 1 1 0-17.5 8.8 8.8 0 0 1 0 17.5" fill="#fffBB"/><path d="M-135.2-174.7a8.8 8.8 0 1 1 0-17.5 8.8 8.8 0 0 1 0 17.5" fill="#fff500BB"/><path d="M-94.1-288.2a8.8 8.8 0 1 1 0-17.5 8.8 8.8 0 0 1 0 17.5" fill="#fffBC"/><path d="M-68-319.7a8.9 8.9 0 1 1 0-17.8 8.9 8.9 0 0 1 0 17.8" fill="#005bbbBE"/><path d="M-111-47.4a8.9 8.9 0 1 1 0-17.8 8.9 8.9 0 0 1 0 17.8" fill="#005bbbBE"/><path d="M284.2-5.8a8.9 8.9 0 1 1 0-17.8 8.9 8.9 0 0 1 0 17.8" fill="#fff500BE"/><path d="M-133.9-120.5a8.9 8.9 0 1 1 0-17.8 8.9 8.9 0 0 1 0 17.8" fill="#fffBF"/><path d="M-136-162.1a8.9 8.9 0 1 1 0-17.9 8.9 8.9 0 0 1 0 17.9" fill="#c2e1ffBF"/><path d="M335.9-148.9a9 9 0 1 1 0-18 9 9 0 0 1 0 18" fill="#c2e1ffC1"/><path d="M334.3-179.9a9 9 0 1 1 0-18.1 9 9 0 0 1 0 18.1" fill="#fffC1"/><path d="M184.3 66.6a9.1 9.1 0 1 1 0-18.2 9.1 9.1 0 0 1 0 18.2" fill="#fffC2"/><path d="M329.7-203.3a9.2 9.2 0 1 1 0-18.3 9.2 9.2 0 0 1 0 18.3" fill="#fff500C4"/><path d="M64.3-385.7a9.2 9.2 0 1 1 0-18.3 9.2 9.2 0 0 1 0 18.3" fill="#fffC4"/><path d="M-127.3-211.7a9.2 9.2 0 1 1 0-18.4 9.2 9.2 0 0 1 0 18.4" fill="#fffC5"/><path d="M108.2 81.2a9.2 9.2 0 1 1 0-18.4 9.2 9.2 0 0 1 0 18.4" fill="#c2e1ffC5"/><path d="M-67.7 10.2a9.3 9.3 0 1 1 0-18.5 9.3 9.3 0 0 1 0 18.5" fill="#fffC6"/><path d="M322.5-80.4a9.3 9.3 0 1 1 0-18.5 9.3 9.3 0 0 1 0 18.5" fill="#005bbbC6"/><path d="M293.6-21.6a9.3 9.3 0 1 1 0-18.5 9.3 9.3 0 0 1 0 18.5" fill="#005bbbC6"/><path d="M62.3 76.6a9.4 9.4 0 1 1 0-18.7 9.4 9.4 0 0 1 0 18.7" fill="#005bbbC8"/><path d="M-132-137.3a9.4 9.4 0 1 1 0-18.8 9.4 9.4 0 0 1 0 18.8" fill="#005bbbC9"/><path d="M-43.3 28.8a9.4 9.4 0 1 1 0-18.9 9.4 9.4 0 0 1 0 18.9" fill="#fff500CA"/><path d="M316.1-235.7a9.5 9.5 0 1 1 0-18.9 9.5 9.5 0 0 1 0 18.9" fill="#fff500CB"/><path d="M-101.6-40.6a9.5 9.5 0 1 1 0-19 9.5 9.5 0 0 1 0 19" fill="#005bbbCB"/><path d="M-20.8 43.5a9.5 9.5 0 1 1 0-19 9.5 9.5 0 0 1 0 19" fill="#c2e1ffCC"/><path d="M116.8 76.6a9.5 9.5 0 1 1 0-19.1 9.5 9.5 0 0 1 0 19.1" fill="#c2e1ffCC"/><path d="M188.1 59.6a9.5 9.5 0 1 1 0-19 9.5 9.5 0 0 1 0 19" fill="#c2e1ffCC"/><path d="M88.9-382.7a9.5 9.5 0 1 1 0-19.1 9.5 9.5 0 0 1 0 19.1" fill="#005bbbCC"/><path d="M70 74.7a9.6 9.6 0 1 1 0-19.1 9.6 9.6 0 0 1 0 19.1" fill="#005bbbCD"/><path d="M86.6 75.5a9.6 9.6 0 1 1 0-19.2 9.6 9.6 0 0 1 0 19.2" fill="#005bbbCE"/><path d="M243.9 24.2a9.6 9.6 0 1 1 0-19.3 9.6 9.6 0 0 1 0 19.3" fill="#fffCE"/><path d="M294.6-34.6a9.6 9.6 0 1 1 0-19.3 9.6 9.6 0 0 1 0 19.3" fill="#c2e1ffCF"/><path d="M172.2-368a9.7 9.7 0 1 1 0-19.4 9.7 9.7 0 0 1 0 19.4" fill="#fff500CF"/><path d="M205.8 47.6a9.7 9.7 0 1 1 0-19.4 9.7 9.7 0 0 1 0 19.4" fill="#005bbbD0"/><path d="M217-346.2a9.7 9.7 0 1 1 0-19.4 9.7 9.7 0 0 1 0 19.4" fill="#c2e1ffD0"/><path d="M181.3-363.4a9.7 9.7 0 1 1 0-19.4 9.7 9.7 0 0 1 0 19.4" fill="#fffD1"/><path d="M94.1 72.5a9.7 9.7 0 1 1 0-19.5 9.7 9.7 0 0 1 0 19.5" fill="#fff500D1"/><path d="M-60.8 5.1a9.7 9.7 0 1 1 0-19.5 9.7 9.7 0 0 1 0 19.5" fill="#c2e1ffD1"/><path d="M-74.2-295.3a9.8 9.8 0 1 1 0-19.5 9.8 9.8 0 0 1 0 19.5" fill="#fff500D1"/><path d="M303.4-58.8a9.8 9.8 0 1 1 0-19.6 9.8 9.8 0 0 1 0 19.6" fill="#c2e1ffD2"/><path d="M-77.5-283.3a9.9 9.9 0 1 1 0-19.9 9.9 9.9 0 0 1 0 19.9" fill="#c2e1ffD5"/><path d="M271.7-285.2a10 10 0 1 1 0-20 10 10 0 0 1 0 20" fill="#fff500D7"/><path d="M-88.7-46.2a10 10 0 1 1 0-20.1 10 10 0 0 1 0 20.1" fill="#005bbbD7"/><path d="M158.9 55.9a10 10 0 1 1 0-20.1 10 10 0 0 1 0 20.1" fill="#fffD8"/><path d="M189.2-348.1a10.1 10.1 0 1 1 0-20.1 10.1 10.1 0 0 1 0 20.1" fill="#fffD8"/><path d="M246.7-303.9a10.2 10.2 0 1 1 0-20.3 10.2 10.2 0 0 1 0 20.3" fill="#c2e1ffDB"/><path d="M-51.1-296.9a10.2 10.2 0 1 1 0-20.4 10.2 10.2 0 0 1 0 20.4" fill="#005bbbDC"/><path d="M-2.9-333.3a10.3 10.3 0 1 1 0-20.5 10.3 10.3 0 0 1 0 20.5" fill="#c2e1ffDC"/><path d="M223.6-319.8a10.3 10.3 0 1 1 0-20.5 10.3 10.3 0 0 1 0 20.5" fill="#c2e1ffDC"/><path d="M307.7-148.8a10.3 10.3 0 1 1 0-20.5 10.3 10.3 0 0 1 0 20.5" fill="#fff500DC"/><path d="M303.8-112.5a10.3 10.3 0 1 1 0-20.5 10.3 10.3 0 0 1 0 20.5" fill="#005bbbDD"/><path d="M99 55a10.3 10.3 0 1 1 0-20.5 10.3 10.3 0 0 1 0 20.5" fill="#fff500DD"/><path d="M184.6-341.3a10.3 10.3 0 1 1 0-20.5 10.3 10.3 0 0 1 0 20.5" fill="#fffDD"/><path d="M84.1-357.7a10.3 10.3 0 1 1 0-20.6 10.3 10.3 0 0 1 0 20.6" fill="#fff500DD"/><path d="M216.9 16.7a10.3 10.3 0 1 1 0-20.6 10.3 10.3 0 0 1 0 20.6" fill="#c2e1ffDE"/><path d="M100.1 51.6a10.4 10.4 0 1 1 0-20.7 10.4 10.4 0 0 1 0 20.7" fill="#c2e1ffDE"/><path d="M76.9 48.2a10.4 10.4 0 1 1 0-20.8 10.4 10.4 0 0 1 0 20.8" fill="#fff500DF"/><path d="M150.1-345.4a10.4 10.4 0 1 1 0-20.9 10.4 10.4 0 0 1 0 20.9" fill="#fff500E0"/><path d="M275.8-72.6a10.6 10.6 0 1 1 0-21.2 10.6 10.6 0 0 1 0 21.2" fill="#c2e1ffE3"/><path d="M288.8-162.7a10.6 10.6 0 1 1 0-21.2 10.6 10.6 0 0 1 0 21.2" fill="#005bbbE4"/><path d="M24.7 20.6a10.6 10.6 0 1 1 0-21.3 10.6 10.6 0 0 1 0 21.3" fill="#c2e1ffE5"/><path d="M-8.5-0.4a10.7 10.7 0 1 1 0-21.3 10.7 10.7 0 0 1 0 21.3" fill="#fffE5"/><path d="M-37.2-277.5a10.7 10.7 0 1 1 0-21.3 10.7 10.7 0 0 1 0 21.3" fill="#005bbbE6"/><path d="M-32.6-27.8a10.7 10.7 0 1 1 0-21.5 10.7 10.7 0 0 1 0 21.5" fill="#fffE7"/><path d="M116.4-331.7a10.8 10.8 0 1 1 0-21.6 10.8 10.8 0 0 1 0 21.6" fill="#fffE7"/><path d="M279.3-151.7a10.8 10.8 0 1 1 0-21.6 10.8 10.8 0 0 1 0 21.6" fill="#fff500E8"/><path d="M16.8-304.4a10.9 10.9 0 1 1 0-21.7 10.9 10.9 0 0 1 0 21.7" fill="#fff500E9"/><path d="M-70.6-169.1a10.9 10.9 0 1 1 0-21.8 10.9 10.9 0 0 1 0 21.8" fill="#c2e1ffEA"/><path d="M24.3 0.2a10.9 10.9 0 1 1 0-21.8 10.9 10.9 0 0 1 0 21.8" fill="#c2e1ffEB"/><path d="M13.1-6.2a10.9 10.9 0 1 1 0-21.9 10.9 10.9 0 0 1 0 21.9" fill="#c2e1ffEB"/><path d="M166.3-0.3a11 11 0 1 1 0-21.9 11 11 0 0 1 0 21.9" fill="#fff500EC"/><path d="M259.6-110.7a11 11 0 1 1 0-21.9 11 11 0 0 1 0 21.9" fill="#fffEC"/><path d="M138.3-310.6a11 11 0 1 1 0-22 11 11 0 0 1 0 22" fill="#fff500EC"/><path d="M168.3-11.8a11.1 11.1 0 1 1 0-22.1 11.1 11.1 0 0 1 0 22.1" fill="#c2e1ffEE"/><path d="M242.8-204.3a11.1 11.1 0 1 1 0-22.2 11.1 11.1 0 0 1 0 22.2" fill="#005bbbEF"/><path d="M9.3-271.6a11.1 11.1 0 1 1 0-22.3 11.1 11.1 0 0 1 0 22.3" fill="#c2e1ffF0"/><path d="M24.9-28.9a11.2 11.2 0 1 1 0-22.4 11.2 11.2 0 0 1 0 22.4" fill="#c2e1ffF1"/><path d="M50.4-282.4a11.2 11.2 0 1 1 0-22.5 11.2 11.2 0 0 1 0 22.5" fill="#fff500F2"/><path d="M-25.1-168.5a11.4 11.4 0 1 1 0-22.7 11.4 11.4 0 0 1 0 22.7" fill="#fffF4"/><path d="M-14.4-163.8a11.4 11.4 0 1 1 0-22.9 11.4 11.4 0 0 1 0 22.9" fill="#c2e1ffF6"/><path d="M90.6-258.4a11.5 11.5 0 1 1 0-22.9 11.5 11.5 0 0 1 0 22.9" fill="#fffF7"/><path d="M25.4-216.6a11.5 11.5 0 1 1 0-23.1 11.5 11.5 0 0 1 0 23.1" fill="#fffF8"/><path d="M114.8-247.7a11.5 11.5 0 1 1 0-23.1 11.5 11.5 0 0 1 0 23.1" fill="#fff500F9"/><path d="M184.7-180.8a11.6 11.6 0 1 1 0-23.2 11.6 11.6 0 0 1 0 23.2" fill="#fff500FA"/><path d="M44.5-183.5a11.7 11.7 0 1 1 0-23.4 11.7 11.7 0 0 1 0 23.4" fill="#fffFC"/><path d="M117.5-126.1a11.8 11.8 0 1 1 0-23.6 11.8 11.8 0 0 1 0 23.6" fill="#fffFE"/><path d="M108.3-159.8a11.8 11.8 0 1 1 0-23.6 11.8 11.8 0 0 1 0 23.6" fill="#fffFE"/></g></svg>