<svg width="1200" height="675" viewBox="-500 -500 1200 675" xmlns="http://www.w3.org/2000/svg"><path d="M-500-500h1200v675h-1200z" fill="#000"/><style>.sparkles path{stroke-linecap:round; stroke-width:1}</style><g class="sparkles"><path d="M100-162.5l12.6-27.1" stroke="#005bbb32"/><path d="M100-162.5l-19.1 47.1" stroke="#c2e1ff33"/><path d="M100-162.5l10.5-55.1" stroke="#005bbb33"/><path d="M100-162.5l-15.3-60.3" stroke="#005bbb33"/><path d="M100-162.5l54.5 45.8" stroke="#fff34"/><path d="M100-162.5l75.3 49" stroke="#005bbb35"/><path d="M100-162.5l-92.2 4.2" stroke="#c2e1ff35"/><path d="M100-162.5l-34.8-100" stroke="#fff37"/><path d="M100-162.5l-92.6 55.7" stroke="#005bbb37"/><path d="M100-162.5l-108.1-18" stroke="#fff50037"/><path d="M100-162.5l96.9-51.7" stroke="#c2e1ff37"/><path d="M100-162.5l-89.1-64.1" stroke="#005bbb37"/><path d="M100-162.5l-24.2 110.6" stroke="#c2e1ff38"/><path d="M100-162.5l-21.6 114.4" stroke="#fff38"/><path d="M100-162.5l120.1-2" stroke="#fff50038"/><path d="M100-162.5l-124.2-50.6" stroke="#fff3A"/><path d="M100-162.5l-46.4 127.6" stroke="#c2e1ff3B"/><path d="M100-162.5l-13.8 142" stroke="#fff3C"/><path d="M100-162.5l35.1 140" stroke="#fff3C"/><path d="M100-162.5l-35.9-149.6" stroke="#c2e1ff3E"/><path d="M100-162.5l-77.1 134.3" stroke="#005bbb3E"/><path d="M100-162.5l101.9-117.3" stroke="#005bbb3E"/><path d="M100-162.5l-60.6 143.2" stroke="#c2e1ff3E"/><path d="M100-162.5l-79.2-143.8" stroke="#fff50040"/><path d="M100-162.5l-5.3 164.3" stroke="#fff50040"/><path d="M100-162.5l170.9-3.9" stroke="#fff41"/><path d="M100-162.5l111.4 131.5" stroke="#005bbb41"/><path d="M100-162.5l81.9 152.4" stroke="#005bbb41"/><path d="M100-162.5l-92.2 147.2" stroke="#fff42"/><path d="M100-162.5l-131.7 115.8" stroke="#fff42"/><path d="M100-162.5l-175.3-15.4" stroke="#fff42"/><path d="M100-162.5l-115.8-132.9" stroke="#fff42"/><path d="M100-162.5l165.9-63.1" stroke="#005bbb43"/><path d="M100-162.5l-53.7 171.3" stroke="#fff43"/><path d="M100-162.5l-155.4 91.2" stroke="#fff50043"/><path d="M100-162.5l179.5-40.9" stroke="#fff44"/><path d="M100-162.5l-29 185.9" stroke="#fff50045"/><path d="M100-162.5l183.4 51.7" stroke="#c2e1ff46"/><path d="M100-162.5l-80.1-173.4" stroke="#fff50046"/><path d="M100-162.5l167.7 100.3" stroke="#fff47"/><path d="M100-162.5l-98.9 169.1" stroke="#c2e1ff48"/><path d="M100-162.5l195.9 33.9" stroke="#fff48"/><path d="M100-162.5l156.1-125.7" stroke="#c2e1ff49"/><path d="M100-162.5l-184.1-80.6" stroke="#fff50049"/><path d="M100-162.5l-134.7-149.7" stroke="#c2e1ff49"/><path d="M100-162.5l-134-151" stroke="#fff4A"/><path d="M100-162.5l176.7-98.9" stroke="#c2e1ff4A"/><path d="M100-162.5l-194.4 56.6" stroke="#fff4A"/><path d="M100-162.5l-74 192" stroke="#fff5004B"/><path d="M100-162.5l-30.2 203.9" stroke="#fff5004B"/><path d="M100-162.5l199.5-56.8" stroke="#fff5004C"/><path d="M100-162.5l-167.8 123.7" stroke="#fff4C"/><path d="M100-162.5l-14-208.2" stroke="#c2e1ff4C"/><path d="M100-162.5l91-189.2" stroke="#fff4D"/><path d="M100-162.5l-139.8 161.6" stroke="#c2e1ff4E"/><path d="M100-162.5l72-201.5" stroke="#005bbb4E"/><path d="M100-162.5l17.2 215.7" stroke="#005bbb4F"/><path d="M100-162.5l-4.6 218" stroke="#fff50"/><path d="M100-162.5l88.1-199.5" stroke="#fff50"/><path d="M100-162.5l-25.7 218" stroke="#fff50051"/><path d="M100-162.5l-202.1-90.3" stroke="#c2e1ff52"/><path d="M100-162.5l-207.6 78.9" stroke="#fff52"/><path d="M100-162.5l48.2 217.1" stroke="#005bbb53"/><path d="M100-162.5l-38.5 219.4" stroke="#005bbb53"/><path d="M100-162.5l-133.8 178.7" stroke="#c2e1ff53"/><path d="M100-162.5l-211.2-72.7" stroke="#005bbb53"/><path d="M100-162.5l189.9-118.2" stroke="#fff50053"/><path d="M100-162.5l-70.2-212.4" stroke="#fff53"/><path d="M100-162.5l-222.9 26.9" stroke="#c2e1ff54"/><path d="M100-162.5l91.9-204.9" stroke="#005bbb54"/><path d="M100-162.5l26.3 223.1" stroke="#c2e1ff54"/><path d="M100-162.5l110.6-196.1" stroke="#005bbb54"/><path d="M100-162.5l-194.1 115.3" stroke="#fff55"/><path d="M100-162.5l118.5 192.2" stroke="#fff50055"/><path d="M100-162.5l168.3-151.7" stroke="#fff50055"/><path d="M100-162.5l223.8-37.2" stroke="#fff56"/><path d="M100-162.5l171.1 149.6" stroke="#fff56"/><path d="M100-162.5l165.6-156.1" stroke="#c2e1ff56"/><path d="M100-162.5l-227 19.6" stroke="#c2e1ff56"/><path d="M100-162.5l162.6 161.5" stroke="#fff50057"/><path d="M100-162.5l43.9-225.4" stroke="#fff58"/><path d="M100-162.5l9.1-230.7" stroke="#fff59"/><path d="M100-162.5l-47.5 226.4" stroke="#fff59"/><path d="M100-162.5l-19.7-230.8" stroke="#005bbb5A"/><path d="M100-162.5l195 125.3" stroke="#fff5005A"/><path d="M100-162.5l-65.9-222.5" stroke="#fff5A"/><path d="M100-162.5l-19.8-231.3" stroke="#c2e1ff5A"/><path d="M100-162.5l76.9-219.1" stroke="#fff5A"/><path d="M100-162.5l155.4 174.8" stroke="#fff5005C"/><path d="M100-162.5l146.7-182.9" stroke="#fff5005D"/><path d="M100-162.5l235.1 0" stroke="#fff5F"/><path d="M100-162.5l-184.4 146.3" stroke="#fff5F"/><path d="M100-162.5l119.2 203.5" stroke="#c2e1ff61"/><path d="M100-162.5l215.6 95.8" stroke="#fff61"/><path d="M100-162.5l210.8 106.2" stroke="#fff50061"/><path d="M100-162.5l235.9 12.1" stroke="#005bbb63"/><path d="M100-162.5l234.6 28.2" stroke="#c2e1ff64"/><path d="M100-162.5l-92.9 217.2" stroke="#c2e1ff64"/><path d="M100-162.5l-228.9-58.2" stroke="#c2e1ff64"/><path d="M100-162.5l1.9-236.2" stroke="#c2e1ff65"/><path d="M100-162.5l220.9-83.5" stroke="#005bbb65"/><path d="M100-162.5l228.6 58.8" stroke="#fff50066"/><path d="M100-162.5l-152.3-180.3" stroke="#c2e1ff66"/><path d="M100-162.5l-235.6 10.1" stroke="#c2e1ff66"/><path d="M100-162.5l-40.8 232.2" stroke="#fff67"/><path d="M100-162.5l-232.6 37.6" stroke="#fff50067"/><path d="M100-162.5l-10.4 235.3" stroke="#fff67"/><path d="M100-162.5l10-235.3" stroke="#c2e1ff67"/><path d="M100-162.5l9.5 235.3" stroke="#005bbb68"/><path d="M100-162.5l33.1 232.8" stroke="#c2e1ff68"/><path d="M100-162.5l97.6-213.7" stroke="#fff69"/><path d="M100-162.5l-186.7-141.7" stroke="#c2e1ff6A"/><path d="M100-162.5l-92.7 215.2" stroke="#fff5006A"/><path d="M100-162.5l-20.9-232.3" stroke="#fff5006B"/><path d="M100-162.5l-10.1 232.6" stroke="#fff6C"/><path d="M100-162.5l115 201.8" stroke="#fff5006D"/><path d="M100-162.5l-143.2 181.9" stroke="#005bbb6D"/><path d="M100-162.5l227.2-36.3" stroke="#fff6F"/><path d="M100-162.5l200.6-112.7" stroke="#c2e1ff6F"/><path d="M100-162.5l-91.8 210.9" stroke="#fff5006F"/><path d="M100-162.5l-228.5-20.6" stroke="#c2e1ff6F"/><path d="M100-162.5l51-223.6" stroke="#fff70"/><path d="M100-162.5l144.1-178" stroke="#c2e1ff70"/><path d="M100-162.5l152.6-170.4" stroke="#c2e1ff70"/><path d="M100-162.5l32.8-225.9" stroke="#fff70"/><path d="M100-162.5l221 53.9" stroke="#c2e1ff71"/><path d="M100-162.5l8.9-225.8" stroke="#c2e1ff72"/><path d="M100-162.5l-50.1-220" stroke="#c2e1ff72"/><path d="M100-162.5l221.1 40.7" stroke="#005bbb73"/><path d="M100-162.5l70.8 212.7" stroke="#fff73"/><path d="M100-162.5l197 106.2" stroke="#c2e1ff74"/><path d="M100-162.5l166-150" stroke="#fff50074"/><path d="M100-162.5l94.8 201.3" stroke="#fff74"/><path d="M100-162.5l-102.2 193.2" stroke="#005bbb76"/><path d="M100-162.5l180.7-122.7" stroke="#fff50077"/><path d="M100-162.5l45.7-212.4" stroke="#fff50077"/><path d="M100-162.5l-67.9-206.3" stroke="#fff50077"/><path d="M100-162.5l-3.4-215.7" stroke="#fff50078"/><path d="M100-162.5l-46.4-209.3" stroke="#005bbb78"/><path d="M100-162.5l133.3 166.8" stroke="#fff79"/><path d="M100-162.5l-80.1-197.8" stroke="#005bbb79"/><path d="M100-162.5l74.3 199.1" stroke="#fff79"/><path d="M100-162.5l-174.3-118.6" stroke="#005bbb7A"/><path d="M100-162.5l123.5 166.2" stroke="#005bbb7C"/><path d="M100-162.5l158.9-130.9" stroke="#fff7C"/><path d="M100-162.5l203.7 20.3" stroke="#c2e1ff7C"/><path d="M100-162.5l-65.4 189.9" stroke="#005bbb7E"/><path d="M100-162.5l-68.8 185" stroke="#c2e1ff7F"/><path d="M100-162.5l57.1-186.1" stroke="#005bbb80"/><path d="M100-162.5l62.1 184.1" stroke="#fff80"/><path d="M100-162.5l-96 161" stroke="#fff82"/><path d="M100-162.5l-75.9-170.5" stroke="#fff82"/><path d="M100-162.5l99.1 154.6" stroke="#c2e1ff83"/><path d="M100-162.5l-47-176.3" stroke="#005bbb83"/><path d="M100-162.5l156.4-86.4" stroke="#005bbb84"/><path d="M100-162.5l141.4-101.6" stroke="#005bbb85"/><path d="M100-162.5l-103 140.3" stroke="#c2e1ff85"/><path d="M100-162.5l-84.3-150.5" stroke="#fff86"/><path d="M100-162.5l167.7 14.3" stroke="#005bbb87"/><path d="M100-162.5l-124.4 108.4" stroke="#fff87"/><path d="M100-162.5l56.4 150.1" stroke="#fff50088"/><path d="M100-162.5l60.3 142" stroke="#fff89"/><path d="M100-162.5l-51.5 131" stroke="#005bbb8C"/><path d="M100-162.5l-87.6 103.3" stroke="#fff8C"/><path d="M100-162.5l103.8 74.5" stroke="#fff5008E"/><path d="M100-162.5l116.5 48.1" stroke="#fff5008E"/><path d="M100-162.5l-58.8 109" stroke="#fff8E"/><path d="M100-162.5l64.3-100.7" stroke="#fff8F"/><path d="M100-162.5l10-115.5" stroke="#c2e1ff8F"/><path d="M100-162.5l-109.7 30.7" stroke="#005bbb8F"/><path d="M100-162.5l-58.2 96.5" stroke="#005bbb8F"/><path d="M100-162.5l89.6 50.2" stroke="#c2e1ff91"/><path d="M100-162.5l16.4 77.7" stroke="#fff50093"/><path d="M100-162.5l67.8-3.4" stroke="#c2e1ff93"/><path d="M100-162.5l-52.3 34.2" stroke="#005bbb94"/><path d="M100-162.5l-61.5-8.9" stroke="#fff94"/><path d="M100-162.5l-58.7-12.3" stroke="#005bbb94"/><path d="M100-162.5l-1.4-58.6" stroke="#005bbb94"/><path d="M100-162.5l15.3 20.4" stroke="#fff50095"/><path d="M100-162.5l-18.4 1.8" stroke="#fff50095"/><path d="M100-162.5l-0.1 2.7" stroke="#005bbb95"/></g><g class="sparcs"><path d="M112.6-183.6a5.9 5.9 0 1 1 0-11.9 5.9 5.9 0 0 1 0 11.9" fill="#c2e1ff7D"/><path d="M80.9-109.4a6 6 0 1 1 0-12 6 6 0 0 1 0 12" fill="#c2e1ff7E"/><path d="M110.5-211.6a6 6 0 1 1 0-12 6 6 0 0 1 0 12" fill="#fff7E"/><path d="M84.7-216.8a6 6 0 1 1 0-12.1 6 6 0 0 1 0 12.1" fill="#005bbb7F"/><path d="M154.5-110.6a6 6 0 1 1 0-12.1 6 6 0 0 1 0 12.1" fill="#c2e1ff80"/><path d="M175.3-107.4a6.1 6.1 0 1 1 0-12.2 6.1 6.1 0 0 1 0 12.2" fill="#005bbb81"/><path d="M7.8-152.1a6.1 6.1 0 1 1 0-12.3 6.1 6.1 0 0 1 0 12.3" fill="#c2e1ff82"/><path d="M65.2-256.2a6.2 6.2 0 1 1 0-12.5 6.2 6.2 0 0 1 0 12.5" fill="#005bbb83"/><path d="M7.4-100.6a6.2 6.2 0 1 1 0-12.4 6.2 6.2 0 0 1 0 12.4" fill="#fff84"/><path d="M-8.1-174.2a6.2 6.2 0 1 1 0-12.5 6.2 6.2 0 0 1 0 12.5" fill="#005bbb84"/><path d="M196.9-207.9a6.2 6.2 0 1 1 0-12.5 6.2 6.2 0 0 1 0 12.5" fill="#fff50084"/><path d="M10.9-220.4a6.2 6.2 0 1 1 0-12.4 6.2 6.2 0 0 1 0 12.4" fill="#005bbb84"/><path d="M75.8-45.6a6.3 6.3 0 1 1 0-12.6 6.3 6.3 0 0 1 0 12.6" fill="#c2e1ff84"/><path d="M78.4-41.8a6.3 6.3 0 1 1 0-12.6 6.3 6.3 0 0 1 0 12.6" fill="#fff85"/><path d="M220.1-158.2a6.3 6.3 0 1 1 0-12.7 6.3 6.3 0 0 1 0 12.7" fill="#c2e1ff86"/><path d="M-24.2-206.6a6.4 6.4 0 1 1 0-12.9 6.4 6.4 0 0 1 0 12.9" fill="#c2e1ff88"/><path d="M53.6-28.4a6.4 6.4 0 1 1 0-12.9 6.4 6.4 0 0 1 0 12.9" fill="#fff88"/><path d="M86.2-14a6.5 6.5 0 1 1 0-13 6.5 6.5 0 0 1 0 13" fill="#fff5008A"/><path d="M135.1-16a6.5 6.5 0 1 1 0-13 6.5 6.5 0 0 1 0 13" fill="#fff5008A"/><path d="M64.1-305.5a6.6 6.6 0 1 1 0-13.2 6.6 6.6 0 0 1 0 13.2" fill="#c2e1ff8C"/><path d="M22.9-21.6a6.6 6.6 0 1 1 0-13.2 6.6 6.6 0 0 1 0 13.2" fill="#fff8C"/><path d="M201.9-273.1a6.6 6.6 0 1 1 0-13.3 6.6 6.6 0 0 1 0 13.3" fill="#fff8D"/><path d="M39.4-12.6a6.6 6.6 0 1 1 0-13.3 6.6 6.6 0 0 1 0 13.3" fill="#005bbb8D"/><path d="M20.8-299.6a6.7 6.7 0 1 1 0-13.5 6.7 6.7 0 0 1 0 13.5" fill="#005bbb8F"/><path d="M94.7 8.5a6.7 6.7 0 1 1 0-13.5 6.7 6.7 0 0 1 0 13.5" fill="#c2e1ff8F"/><path d="M270.9-159.5a6.8 6.8 0 1 1 0-13.7 6.8 6.8 0 0 1 0 13.7" fill="#fff91"/><path d="M211.4-24.2a6.8 6.8 0 1 1 0-13.7 6.8 6.8 0 0 1 0 13.7" fill="#fff50091"/><path d="M181.9-3.2a6.8 6.8 0 1 1 0-13.7 6.8 6.8 0 0 1 0 13.7" fill="#c2e1ff91"/><path d="M7.8-8.4a6.9 6.9 0 1 1 0-13.7 6.9 6.9 0 0 1 0 13.7" fill="#005bbb91"/><path d="M-31.7-39.8a6.9 6.9 0 1 1 0-13.7 6.9 6.9 0 0 1 0 13.7" fill="#fff50092"/><path d="M-75.3-171a6.9 6.9 0 1 1 0-13.8 6.9 6.9 0 0 1 0 13.8" fill="#005bbb92"/><path d="M-15.8-288.5a6.9 6.9 0 1 1 0-13.8 6.9 6.9 0 0 1 0 13.8" fill="#fff92"/><path d="M265.9-218.7a6.9 6.9 0 1 1 0-13.9 6.9 6.9 0 0 1 0 13.9" fill="#c2e1ff93"/><path d="M46.3 15.7a6.9 6.9 0 1 1 0-13.8 6.9 6.9 0 0 1 0 13.8" fill="#fff50093"/><path d="M-55.4-64.3a6.9 6.9 0 1 1 0-13.9 6.9 6.9 0 0 1 0 13.9" fill="#fff50093"/><path d="M279.5-196.4a7 7 0 1 1 0-14 7 7 0 0 1 0 14" fill="#fff95"/><path d="M71 30.5a7.1 7.1 0 1 1 0-14.1 7.1 7.1 0 0 1 0 14.1" fill="#fff96"/><path d="M283.4-103.7a7.1 7.1 0 1 1 0-14.3 7.1 7.1 0 0 1 0 14.3" fill="#fff50097"/><path d="M19.9-328.8a7.1 7.1 0 1 1 0-14.3 7.1 7.1 0 0 1 0 14.3" fill="#c2e1ff97"/><path d="M267.7-55a7.2 7.2 0 1 1 0-14.4 7.2 7.2 0 0 1 0 14.4" fill="#005bbb99"/><path d="M1.1 13.8a7.2 7.2 0 1 1 0-14.4 7.2 7.2 0 0 1 0 14.4" fill="#fff50099"/><path d="M295.9-121.3a7.3 7.3 0 1 1 0-14.6 7.3 7.3 0 0 1 0 14.6" fill="#005bbb9A"/><path d="M256.1-280.9a7.3 7.3 0 1 1 0-14.6 7.3 7.3 0 0 1 0 14.6" fill="#c2e1ff9B"/><path d="M-84.1-235.8a7.3 7.3 0 1 1 0-14.6 7.3 7.3 0 0 1 0 14.6" fill="#fff5009B"/><path d="M-34.7-304.9a7.3 7.3 0 1 1 0-14.6 7.3 7.3 0 0 1 0 14.6" fill="#005bbb9C"/><path d="M-34-306.2a7.3 7.3 0 1 1 0-14.6 7.3 7.3 0 0 1 0 14.6" fill="#fff5009C"/><path d="M276.7-254a7.3 7.3 0 1 1 0-14.7 7.3 7.3 0 0 1 0 14.7" fill="#fff9C"/><path d="M-94.4-98.6a7.3 7.3 0 1 1 0-14.6 7.3 7.3 0 0 1 0 14.6" fill="#fff9C"/><path d="M26 36.9a7.4 7.4 0 1 1 0-14.8 7.4 7.4 0 0 1 0 14.8" fill="#fff9E"/><path d="M69.8 48.8a7.4 7.4 0 1 1 0-14.8 7.4 7.4 0 0 1 0 14.8" fill="#005bbb9E"/><path d="M299.5-211.9a7.4 7.4 0 1 1 0-14.9 7.4 7.4 0 0 1 0 14.9" fill="#fff9E"/><path d="M-67.8-31.3a7.5 7.5 0 1 1 0-14.9 7.5 7.5 0 0 1 0 14.9" fill="#005bbb9F"/><path d="M86-363.2a7.5 7.5 0 1 1 0-14.9 7.5 7.5 0 0 1 0 14.9" fill="#fff9F"/><path d="M191-344.2a7.5 7.5 0 1 1 0-15 7.5 7.5 0 0 1 0 15" fill="#c2e1ffA0"/><path d="M-39.8 6.7a7.6 7.6 0 1 1 0-15.2 7.6 7.6 0 0 1 0 15.2" fill="#fff500A2"/><path d="M172-356.4a7.6 7.6 0 1 1 0-15.2 7.6 7.6 0 0 1 0 15.2" fill="#fff500A2"/><path d="M117.2 60.9a7.7 7.7 0 1 1 0-15.4 7.7 7.7 0 0 1 0 15.4" fill="#c2e1ffA3"/><path d="M95.4 63.2a7.7 7.7 0 1 1 0-15.5 7.7 7.7 0 0 1 0 15.5" fill="#fffA4"/><path d="M188.1-354.2a7.7 7.7 0 1 1 0-15.5 7.7 7.7 0 0 1 0 15.5" fill="#005bbbA4"/><path d="M74.3 63.3a7.8 7.8 0 1 1 0-15.6 7.8 7.8 0 0 1 0 15.6" fill="#fff500A5"/><path d="M-102.1-245a7.8 7.8 0 1 1 0-15.6 7.8 7.8 0 0 1 0 15.6" fill="#fff500A7"/><path d="M-107.6-75.8a7.9 7.9 0 1 1 0-15.7 7.9 7.9 0 0 1 0 15.7" fill="#005bbbA7"/><path d="M148.2 62.5a7.9 7.9 0 1 1 0-15.7 7.9 7.9 0 0 1 0 15.7" fill="#fffA8"/><path d="M61.5 64.7a7.9 7.9 0 1 1 0-15.7 7.9 7.9 0 0 1 0 15.7" fill="#c2e1ffA8"/><path d="M-33.8 24.1a7.9 7.9 0 1 1 0-15.8 7.9 7.9 0 0 1 0 15.8" fill="#fff500A8"/><path d="M-111.2-227.3a7.9 7.9 0 1 1 0-15.8 7.9 7.9 0 0 1 0 15.8" fill="#fffA8"/><path d="M289.9-272.8a7.9 7.9 0 1 1 0-15.8 7.9 7.9 0 0 1 0 15.8" fill="#fff500A9"/><path d="M29.8-367a7.9 7.9 0 1 1 0-15.8 7.9 7.9 0 0 1 0 15.8" fill="#c2e1ffA9"/><path d="M-122.9-127.6a7.9 7.9 0 1 1 0-15.9 7.9 7.9 0 0 1 0 15.9" fill="#c2e1ffA9"/><path d="M191.9-359.5a7.9 7.9 0 1 1 0-15.9 7.9 7.9 0 0 1 0 15.9" fill="#c2e1ffA9"/><path d="M126.3 68.6a7.9 7.9 0 1 1 0-15.9 7.9 7.9 0 0 1 0 15.9" fill="#fff500A9"/><path d="M210.6-350.6a8 8 0 1 1 0-16 8 8 0 0 1 0 16" fill="#fff500AA"/><path d="M-94.1-39.2a8 8 0 1 1 0-16 8 8 0 0 1 0 16" fill="#005bbbAA"/><path d="M218.5 37.7a8 8 0 1 1 0-16 8 8 0 0 1 0 16" fill="#fffAA"/><path d="M268.3-306.2a8 8 0 1 1 0-16.1 8 8 0 0 1 0 16.1" fill="#c2e1ffAB"/><path d="M323.8-191.6a8 8 0 1 1 0-16.1 8 8 0 0 1 0 16.1" fill="#fff500AB"/><path d="M271.1-4.9a8.1 8.1 0 1 1 0-16.1 8.1 8.1 0 0 1 0 16.1" fill="#005bbbAC"/><path d="M265.6-310.5a8.1 8.1 0 1 1 0-16.1 8.1 8.1 0 0 1 0 16.1" fill="#c2e1ffAC"/><path d="M-127-134.9a8.1 8.1 0 1 1 0-16.1 8.1 8.1 0 0 1 0 16.1" fill="#005bbbAC"/><path d="M262.6 7.2a8.1 8.1 0 1 1 0-16.3 8.1 8.1 0 0 1 0 16.3" fill="#fffAE"/><path d="M143.9-379.7a8.2 8.2 0 1 1 0-16.3 8.2 8.2 0 0 1 0 16.3" fill="#c2e1ffAE"/><path d="M109.1-384.9a8.2 8.2 0 1 1 0-16.5 8.2 8.2 0 0 1 0 16.5" fill="#fff500B0"/><path d="M52.5 72.2a8.3 8.3 0 1 1 0-16.6 8.3 8.3 0 0 1 0 16.6" fill="#fffB0"/><path d="M80.3-385.1a8.3 8.3 0 1 1 0-16.5 8.3 8.3 0 0 1 0 16.5" fill="#c2e1ffB1"/><path d="M295-28.9a8.3 8.3 0 1 1 0-16.5 8.3 8.3 0 0 1 0 16.5" fill="#c2e1ffB1"/><path d="M34.1-376.7a8.3 8.3 0 1 1 0-16.6 8.3 8.3 0 0 1 0 16.6" fill="#fff500B1"/><path d="M80.2-385.5a8.3 8.3 0 1 1 0-16.6 8.3 8.3 0 0 1 0 16.6" fill="#005bbbB1"/><path d="M176.9-373.3a8.3 8.3 0 1 1 0-16.6 8.3 8.3 0 0 1 0 16.6" fill="#fff500B1"/><path d="M255.4 20.8a8.4 8.4 0 1 1 0-16.9 8.4 8.4 0 0 1 0 16.9" fill="#fff500B4"/><path d="M246.7-336.9a8.5 8.5 0 1 1 0-17 8.5 8.5 0 0 1 0 17" fill="#fffB6"/><path d="M335.1-153.9a8.6 8.6 0 1 1 0-17.2 8.6 8.6 0 0 1 0 17.2" fill="#fffB7"/><path d="M-84.4-7.6a8.6 8.6 0 1 1 0-17.2 8.6 8.6 0 0 1 0 17.2" fill="#fff500B8"/><path d="M219.2 49.7a8.7 8.7 0 1 1 0-17.3 8.7 8.7 0 0 1 0 17.3" fill="#c2e1ffBA"/><path d="M315.6-58a8.7 8.7 0 1 1 0-17.4 8.7 8.7 0 0 1 0 17.4" fill="#c2e1ffBA"/><path d="M310.8-47.6a8.7 8.7 0 1 1 0-17.4 8.7 8.7 0 0 1 0 17.4" fill="#fffBB"/><path d="M335.9-141.6a8.8 8.8 0 1 1 0-17.6 8.8 8.8 0 0 1 0 17.6" fill="#fff500BD"/><path d="M334.6-125.4a8.9 8.9 0 1 1 0-17.7 8.9 8.9 0 0 1 0 17.7" fill="#fffBE"/><path d="M7.1 63.6a8.9 8.9 0 1 1 0-17.7 8.9 8.9 0 0 1 0 17.7" fill="#c2e1ffBE"/><path d="M-128.9-211.7a8.9 8.9 0 1 1 0-17.9 8.9 8.9 0 0 1 0 17.9" fill="#c2e1ffBF"/><path d="M101.9-389.8a8.9 8.9 0 1 1 0-17.8 8.9 8.9 0 0 1 0 17.8" fill="#fffBF"/><path d="M320.9-237a9 9 0 1 1 0-18 9 9 0 0 1 0 18" fill="#c2e1ffC0"/><path d="M328.6-94.7a9 9 0 1 1 0-17.9 9 9 0 0 1 0 17.9" fill="#005bbbC0"/><path d="M-52.3-333.8a9 9 0 1 1 0-18 9 9 0 0 1 0 18" fill="#005bbbC0"/><path d="M-135.6-143.4a9 9 0 1 1 0-18 9 9 0 0 1 0 18" fill="#c2e1ffC1"/><path d="M59.2 78.7a9 9 0 1 1 0-18.1 9 9 0 0 1 0 18.1" fill="#005bbbC2"/><path d="M-132.6-115.9a9.1 9.1 0 1 1 0-18.1 9.1 9.1 0 0 1 0 18.1" fill="#005bbbC2"/><path d="M89.6 81.9a9.1 9.1 0 1 1 0-18.2 9.1 9.1 0 0 1 0 18.2" fill="#fff500C2"/><path d="M110-388.8a9.1 9.1 0 1 1 0-18.1 9.1 9.1 0 0 1 0 18.1" fill="#c2e1ffC2"/><path d="M109.5 81.9a9.1 9.1 0 1 1 0-18.2 9.1 9.1 0 0 1 0 18.2" fill="#fffC3"/><path d="M133.1 79.4a9.1 9.1 0 1 1 0-18.3 9.1 9.1 0 0 1 0 18.3" fill="#fffC4"/><path d="M197.6-367a9.2 9.2 0 1 1 0-18.3 9.2 9.2 0 0 1 0 18.3" fill="#fff500C4"/><path d="M-86.7-295a9.2 9.2 0 1 1 0-18.4 9.2 9.2 0 0 1 0 18.4" fill="#fff500C6"/><path d="M7.3 61.9a9.2 9.2 0 1 1 0-18.4 9.2 9.2 0 0 1 0 18.4" fill="#fffC6"/><path d="M79.1-385.5a9.3 9.3 0 1 1 0-18.7 9.3 9.3 0 0 1 0 18.7" fill="#c2e1ffC8"/><path d="M89.9 79.5a9.4 9.4 0 1 1 0-18.8 9.4 9.4 0 0 1 0 18.8" fill="#fff500C9"/><path d="M215 48.7a9.4 9.4 0 1 1 0-18.8 9.4 9.4 0 0 1 0 18.8" fill="#c2e1ffC9"/><path d="M-43.2 28.9a9.4 9.4 0 1 1 0-18.9 9.4 9.4 0 0 1 0 18.9" fill="#fff500CA"/><path d="M327.2-189.3a9.5 9.5 0 1 1 0-19.1 9.5 9.5 0 0 1 0 19.1" fill="#fff500CC"/><path d="M300.6-265.7a9.5 9.5 0 1 1 0-19 9.5 9.5 0 0 1 0 19" fill="#005bbbCC"/><path d="M8.2 57.9a9.5 9.5 0 1 1 0-19.1 9.5 9.5 0 0 1 0 19.1" fill="#fff500CC"/><path d="M-128.5-173.6a9.6 9.6 0 1 1 0-19.1 9.6 9.6 0 0 1 0 19.1" fill="#fff500CD"/><path d="M151-376.5a9.6 9.6 0 1 1 0-19.1 9.6 9.6 0 0 1 0 19.1" fill="#fff500CD"/><path d="M244.1-331a9.6 9.6 0 1 1 0-19.1 9.6 9.6 0 0 1 0 19.1" fill="#fff500CD"/><path d="M252.6-323.3a9.6 9.6 0 1 1 0-19.2 9.6 9.6 0 0 1 0 19.2" fill="#fff500CE"/><path d="M132.8-378.7a9.6 9.6 0 1 1 0-19.3 9.6 9.6 0 0 1 0 19.3" fill="#c2e1ffCE"/><path d="M321-99a9.7 9.7 0 1 1 0-19.3 9.7 9.7 0 0 1 0 19.3" fill="#fff500CF"/><path d="M108.9-378.6a9.7 9.7 0 1 1 0-19.4 9.7 9.7 0 0 1 0 19.4" fill="#c2e1ffD0"/><path d="M49.9-372.8a9.7 9.7 0 1 1 0-19.4 9.7 9.7 0 0 1 0 19.4" fill="#005bbbD1"/><path d="M321.1-112a9.8 9.8 0 1 1 0-19.5 9.8 9.8 0 0 1 0 19.5" fill="#005bbbD1"/><path d="M170.8 60a9.8 9.8 0 1 1 0-19.6 9.8 9.8 0 0 1 0 19.6" fill="#c2e1ffD2"/><path d="M297-46.5a9.8 9.8 0 1 1 0-19.6 9.8 9.8 0 0 1 0 19.6" fill="#fffD2"/><path d="M266-302.7a9.8 9.8 0 1 1 0-19.6 9.8 9.8 0 0 1 0 19.6" fill="#fffD2"/><path d="M194.8 48.7a9.9 9.9 0 1 1 0-19.7 9.9 9.9 0 0 1 0 19.7" fill="#c2e1ffD3"/><path d="M-2.2 40.7a10 10 0 1 1 0-19.9 10 10 0 0 1 0 19.9" fill="#fff500D6"/><path d="M280.7-275.2a10 10 0 1 1 0-20 10 10 0 0 1 0 20" fill="#c2e1ffD6"/><path d="M145.7-364.9a10 10 0 1 1 0-20 10 10 0 0 1 0 20" fill="#c2e1ffD7"/><path d="M32.1-358.8a10 10 0 1 1 0-20 10 10 0 0 1 0 20" fill="#005bbbD7"/><path d="M96.6-368.2a10.1 10.1 0 1 1 0-20.1 10.1 10.1 0 0 1 0 20.1" fill="#005bbbD8"/><path d="M53.6-361.7a10.1 10.1 0 1 1 0-20.2 10.1 10.1 0 0 1 0 20.2" fill="#fff500D9"/><path d="M233.3 14.4a10.1 10.1 0 1 1 0-20.2 10.1 10.1 0 0 1 0 20.2" fill="#c2e1ffD9"/><path d="M19.9-350.2a10.1 10.1 0 1 1 0-20.2 10.1 10.1 0 0 1 0 20.2" fill="#005bbbD9"/><path d="M174.3 46.7a10.2 10.2 0 1 1 0-20.3 10.2 10.2 0 0 1 0 20.3" fill="#fff500DA"/><path d="M-74.3-270.9a10.2 10.2 0 1 1 0-20.4 10.2 10.2 0 0 1 0 20.4" fill="#005bbbDB"/><path d="M223.5 14a10.3 10.3 0 1 1 0-20.6 10.3 10.3 0 0 1 0 20.6" fill="#fff500DD"/><path d="M258.9-283.1a10.3 10.3 0 1 1 0-20.6 10.3 10.3 0 0 1 0 20.6" fill="#fffDD"/><path d="M303.7-131.9a10.3 10.3 0 1 1 0-20.7 10.3 10.3 0 0 1 0 20.7" fill="#fffDE"/><path d="M34.6 37.8a10.4 10.4 0 1 1 0-20.8 10.4 10.4 0 0 1 0 20.8" fill="#fffE0"/><path d="M31.2 33a10.5 10.5 0 1 1 0-21 10.5 10.5 0 0 1 0 21" fill="#c2e1ffE1"/><path d="M157.1-338.1a10.5 10.5 0 1 1 0-21 10.5 10.5 0 0 1 0 21" fill="#fff500E2"/><path d="M162.1 32.1a10.5 10.5 0 1 1 0-21.1 10.5 10.5 0 0 1 0 21.1" fill="#fffE2"/><path d="M4 9.2a10.7 10.7 0 1 1 0-21.3 10.7 10.7 0 0 1 0 21.3" fill="#005bbbE5"/><path d="M24.1-322.4a10.7 10.7 0 1 1 0-21.3 10.7 10.7 0 0 1 0 21.3" fill="#005bbbE5"/><path d="M199.1 2.8a10.7 10.7 0 1 1 0-21.4 10.7 10.7 0 0 1 0 21.4" fill="#fff500E6"/><path d="M53-328.1a10.7 10.7 0 1 1 0-21.5 10.7 10.7 0 0 1 0 21.5" fill="#fffE7"/><path d="M256.4-238.1a10.8 10.8 0 1 1 0-21.6 10.8 10.8 0 0 1 0 21.6" fill="#fffE8"/><path d="M241.4-253.2a10.9 10.9 0 1 1 0-21.7 10.9 10.9 0 0 1 0 21.7" fill="#005bbbE9"/><path d="M-3-11.3a10.9 10.9 0 1 1 0-21.7 10.9 10.9 0 0 1 0 21.7" fill="#fffE9"/><path d="M15.7-302.1a10.9 10.9 0 1 1 0-21.7 10.9 10.9 0 0 1 0 21.7" fill="#fff500EA"/><path d="M267.7-137.3a10.9 10.9 0 1 1 0-21.8 10.9 10.9 0 0 1 0 21.8" fill="#fff500EB"/><path d="M-24.4-43.1a11 11 0 1 1 0-21.9 11 11 0 0 1 0 21.9" fill="#fff500EC"/><path d="M156.4-1.4a11 11 0 1 1 0-22 11 11 0 0 1 0 22" fill="#fff500ED"/><path d="M160.3-9.4a11.1 11.1 0 1 1 0-22.2 11.1 11.1 0 0 1 0 22.2" fill="#c2e1ffEF"/><path d="M48.5-20.3a11.2 11.2 0 1 1 0-22.4 11.2 11.2 0 0 1 0 22.4" fill="#c2e1ffF2"/><path d="M12.4-47.9a11.3 11.3 0 1 1 0-22.5 11.3 11.3 0 0 1 0 22.5" fill="#fffF3"/><path d="M203.8-76.7a11.3 11.3 0 1 1 0-22.7 11.3 11.3 0 0 1 0 22.7" fill="#fffF4"/><path d="M216.5-103.1a11.4 11.4 0 1 1 0-22.7 11.4 11.4 0 0 1 0 22.7" fill="#c2e1ffF4"/><path d="M41.2-42.1a11.4 11.4 0 1 1 0-22.8 11.4 11.4 0 0 1 0 22.8" fill="#005bbbF5"/><path d="M164.3-251.8a11.4 11.4 0 1 1 0-22.8 11.4 11.4 0 0 1 0 22.8" fill="#c2e1ffF6"/><path d="M110-266.6a11.4 11.4 0 1 1 0-22.9 11.4 11.4 0 0 1 0 22.9" fill="#fffF6"/><path d="M-9.7-120.3a11.4 11.4 0 1 1 0-22.9 11.4 11.4 0 0 1 0 22.9" fill="#fff500F6"/><path d="M41.8-54.6a11.5 11.5 0 1 1 0-22.9 11.5 11.5 0 0 1 0 22.9" fill="#c2e1ffF7"/><path d="M189.6-100.8a11.5 11.5 0 1 1 0-23.1 11.5 11.5 0 0 1 0 23.1" fill="#005bbbF8"/><path d="M116.4-73.2a11.6 11.6 0 1 1 0-23.3 11.6 11.6 0 0 1 0 23.3" fill="#fffFB"/><path d="M167.8-154.2a11.7 11.7 0 1 1 0-23.4 11.7 11.7 0 0 1 0 23.4" fill="#005bbbFC"/><path d="M47.7-116.6a11.7 11.7 0 1 1 0-23.5 11.7 11.7 0 0 1 0 23.5" fill="#c2e1ffFC"/><path d="M38.5-159.7a11.7 11.7 0 1 1 0-23.5 11.7 11.7 0 0 1 0 23.5" fill="#fffFC"/><path d="M41.3-163.1a11.7 11.7 0 1 1 0-23.5 11.7 11.7 0 0 1 0 23.5" fill="#fff500FC"/><path d="M98.6-209.4a11.7 11.7 0 1 1 0-23.5 11.7 11.7 0 0 1 0 23.5" fill="#c2e1ffFC"/><path d="M115.3-130.3a11.8 11.8 0 1 1 0-23.6 11.8 11.8 0 0 1 0 23.6" fill="#005bbbFE"/><path d="M81.6-148.9a11.8 11.8 0 1 1 0-23.6 11.8 11.8 0 0 1 0 23.6" fill="#fffFE"/><path d="M99.9-148a11.8 11.8 0 1 1 0-23.6 11.8 11.8 0 0 1 0 23.6" fill="#c2e1ffFE"/></g></svg>