<svg width="1200" height="675" viewBox="-500 -500 1200 675" xmlns="http://www.w3.org/2000/svg"><path d="M-500-500h1200v675h-1200z" fill="#000"/><style>.sparkles path{stroke-linecap:round; stroke-width:1}</style><g class="sparkles"><path d="M100-162.5l-11-22.5" stroke="#00304932"/><path d="M100-162.5l12.6-42.4" stroke="#fcbf4932"/><path d="M100-162.5l21.3-54.9" stroke="#fcbf4933"/><path d="M100-162.5l39.5 59.5" stroke="#f77f0034"/><path d="M100-162.5l69.7-43.8" stroke="#d6282835"/><path d="M100-162.5l-52.5 67.7" stroke="#fcbf4935"/><path d="M100-162.5l116.7 25" stroke="#f77f0038"/><path d="M100-162.5l-109.8-48.5" stroke="#fcbf4938"/><path d="M100-162.5l-112.2 45.1" stroke="#fcbf4939"/><path d="M100-162.5l-95.3-79" stroke="#fcbf4939"/><path d="M100-162.5l-106.3-74.5" stroke="#d628283A"/><path d="M100-162.5l113.8-77.9" stroke="#eae2b73B"/><path d="M100-162.5l3.1-138.4" stroke="#fcbf493B"/><path d="M100-162.5l32.1 136.3" stroke="#eae2b73B"/><path d="M100-162.5l-132.1-46.7" stroke="#0030493B"/><path d="M100-162.5l21-138.5" stroke="#0030493B"/><path d="M100-162.5l-124.3 65.9" stroke="#0030493B"/><path d="M100-162.5l138.8-47.7" stroke="#0030493C"/><path d="M100-162.5l-140.6 43.5" stroke="#f77f003C"/><path d="M100-162.5l-4.9 151.6" stroke="#fcbf493D"/><path d="M100-162.5l-3.5 153.1" stroke="#f77f003D"/><path d="M100-162.5l27.2 151.4" stroke="#0030493E"/><path d="M100-162.5l161.2 0" stroke="#f77f003F"/><path d="M100-162.5l151.2 60.6" stroke="#fcbf493F"/><path d="M100-162.5l-149.2-73.2" stroke="#00304940"/><path d="M100-162.5l-165.6 15.8" stroke="#f77f0040"/><path d="M100-162.5l89.5 151.1" stroke="#f77f0042"/><path d="M100-162.5l74.8 159.3" stroke="#d6282842"/><path d="M100-162.5l111.8-137.4" stroke="#d6282842"/><path d="M100-162.5l79.3 159.5" stroke="#fcbf4943"/><path d="M100-162.5l-99.3-151.8" stroke="#00304943"/><path d="M100-162.5l-71.4-171.5" stroke="#00304945"/><path d="M100-162.5l-186.7-4.3" stroke="#fcbf4945"/><path d="M100-162.5l-42.1 186.6" stroke="#00304946"/><path d="M100-162.5l182.9 73.5" stroke="#f77f0048"/><path d="M100-162.5l-36-196.5" stroke="#fcbf4949"/><path d="M100-162.5l-13.4 199.5" stroke="#f77f0049"/><path d="M100-162.5l-200.4 16.3" stroke="#d6282849"/><path d="M100-162.5l79.8 185.4" stroke="#0030494A"/><path d="M100-162.5l77.9-191.8" stroke="#d628284B"/><path d="M100-162.5l24.9 209.3" stroke="#eae2b74D"/><path d="M100-162.5l-209.9 28.2" stroke="#f77f004D"/><path d="M100-162.5l23.5 210.7" stroke="#0030494D"/><path d="M100-162.5l-75.2-199.3" stroke="#fcbf494E"/><path d="M100-162.5l31.8 212.8" stroke="#f77f004F"/><path d="M100-162.5l105.6-188.1" stroke="#eae2b74F"/><path d="M100-162.5l-211.6-63.4" stroke="#d6282852"/><path d="M100-162.5l164.1 150.3" stroke="#f77f0053"/><path d="M100-162.5l95.5 201" stroke="#eae2b753"/><path d="M100-162.5l221 28" stroke="#fcbf4953"/><path d="M100-162.5l-53.1-217.1" stroke="#f77f0053"/><path d="M100-162.5l158.3-158.4" stroke="#fcbf4954"/><path d="M100-162.5l-162.6-154.5" stroke="#fcbf4954"/><path d="M100-162.5l14.7 224.9" stroke="#fcbf4954"/><path d="M100-162.5l183.8 130.9" stroke="#fcbf4955"/><path d="M100-162.5l172-146.1" stroke="#00304955"/><path d="M100-162.5l-32.3 224" stroke="#fcbf4955"/><path d="M100-162.5l229.3 2.6" stroke="#eae2b757"/><path d="M100-162.5l201.1-111.4" stroke="#f77f0058"/><path d="M100-162.5l28.3 228.3" stroke="#fcbf4958"/><path d="M100-162.5l171 154.5" stroke="#d6282858"/><path d="M100-162.5l230.5-15.4" stroke="#00304959"/><path d="M100-162.5l-77.4 218.3" stroke="#fcbf495A"/><path d="M100-162.5l-130.2-191.6" stroke="#d628285A"/><path d="M100-162.5l-228.5 42.7" stroke="#fcbf495B"/><path d="M100-162.5l174.3-154.5" stroke="#0030495B"/><path d="M100-162.5l-215.4 89" stroke="#eae2b75B"/><path d="M100-162.5l212.4-98.6" stroke="#f77f005D"/><path d="M100-162.5l-231 45.8" stroke="#eae2b75F"/><path d="M100-162.5l72.4 224.2" stroke="#d6282860"/><path d="M100-162.5l93.2 216.5" stroke="#eae2b760"/><path d="M100-162.5l235.6-12.4" stroke="#f77f0061"/><path d="M100-162.5l150.2-182" stroke="#fcbf4961"/><path d="M100-162.5l-197.1 130" stroke="#f77f0062"/><path d="M100-162.5l203.3 120.2" stroke="#00304962"/><path d="M100-162.5l209.5 109" stroke="#f77f0062"/><path d="M100-162.5l228 61.7" stroke="#f77f0063"/><path d="M100-162.5l-2.2 236.2" stroke="#f77f0063"/><path d="M100-162.5l227.8-62.7" stroke="#f77f0063"/><path d="M100-162.5l-147 184.9" stroke="#fcbf4964"/><path d="M100-162.5l223.5 76.5" stroke="#00304964"/><path d="M100-162.5l-226.9-65.5" stroke="#f77f0065"/><path d="M100-162.5l141.3-189.1" stroke="#f77f0065"/><path d="M100-162.5l-162.7-171" stroke="#f77f0066"/><path d="M100-162.5l199.7-125.4" stroke="#f77f0067"/><path d="M100-162.5l-41 232" stroke="#f77f0067"/><path d="M100-162.5l-202.5 120.2" stroke="#fcbf4968"/><path d="M100-162.5l-208.4 109.4" stroke="#eae2b768"/><path d="M100-162.5l-31.1-233.3" stroke="#f77f0068"/><path d="M100-162.5l-31.2 233.2" stroke="#eae2b768"/><path d="M100-162.5l148.8-182.3" stroke="#fcbf4968"/><path d="M100-162.5l159.2-173" stroke="#d6282868"/><path d="M100-162.5l109.6 207.9" stroke="#d6282869"/><path d="M100-162.5l-13.7 234.6" stroke="#fcbf4969"/><path d="M100-162.5l19.2-233.4" stroke="#d628286A"/><path d="M100-162.5l197.9 124.3" stroke="#d628286B"/><path d="M100-162.5l-218.6-81.1" stroke="#d628286C"/><path d="M100-162.5l-133.7-189.8" stroke="#eae2b76D"/><path d="M100-162.5l195.6-124.8" stroke="#f77f006D"/><path d="M100-162.5l-155.4-172.2" stroke="#d628286D"/><path d="M100-162.5l-178.7-147.9" stroke="#fcbf496D"/><path d="M100-162.5l-66.1 221.8" stroke="#fcbf496E"/><path d="M100-162.5l201.8 106.2" stroke="#eae2b771"/><path d="M100-162.5l-160-161.9" stroke="#f77f0071"/><path d="M100-162.5l-220.5 50.6" stroke="#f77f0072"/><path d="M100-162.5l-213.3 74.8" stroke="#00304972"/><path d="M100-162.5l-216.5-61" stroke="#00304973"/><path d="M100-162.5l-210.1-77.6" stroke="#d6282873"/><path d="M100-162.5l4.6-223.9" stroke="#f77f0073"/><path d="M100-162.5l-150.7-165.6" stroke="#fcbf4973"/><path d="M100-162.5l98.9-200.8" stroke="#eae2b774"/><path d="M100-162.5l68.3-212" stroke="#f77f0074"/><path d="M100-162.5l218.1 37.3" stroke="#fcbf4975"/><path d="M100-162.5l44.1-216.7" stroke="#00304975"/><path d="M100-162.5l132.3 176.7" stroke="#d6282875"/><path d="M100-162.5l116.7 186.9" stroke="#fcbf4976"/><path d="M100-162.5l199.2-93.9" stroke="#f77f0076"/><path d="M100-162.5l-89.1 200.1" stroke="#00304976"/><path d="M100-162.5l-85.7 201.4" stroke="#d6282876"/><path d="M100-162.5l-60.4-209.8" stroke="#fcbf4977"/><path d="M100-162.5l-189.8 107.9" stroke="#d6282877"/><path d="M100-162.5l-38.1 214.9" stroke="#fcbf4977"/><path d="M100-162.5l-215.6-13.7" stroke="#d6282878"/><path d="M100-162.5l-10.5-215.8" stroke="#fcbf4978"/><path d="M100-162.5l101 190" stroke="#d6282878"/><path d="M100-162.5l-192.3 96.1" stroke="#d6282878"/><path d="M100-162.5l67.5 203.8" stroke="#fcbf4978"/><path d="M100-162.5l-205.4 58.2" stroke="#eae2b779"/><path d="M100-162.5l213.3 8" stroke="#f77f0079"/><path d="M100-162.5l205.1 56.7" stroke="#00304979"/><path d="M100-162.5l188.5 94.4" stroke="#d628287A"/><path d="M100-162.5l-131.2 164.8" stroke="#d628287A"/><path d="M100-162.5l205.5 30.7" stroke="#f77f007B"/><path d="M100-162.5l90.5-185.7" stroke="#0030497C"/><path d="M100-162.5l56.9 194.8" stroke="#fcbf497D"/><path d="M100-162.5l195.5-52.1" stroke="#fcbf497D"/><path d="M100-162.5l11.2 201.8" stroke="#f77f007D"/><path d="M100-162.5l-48.7-194.6" stroke="#d628287E"/><path d="M100-162.5l174.5-95.1" stroke="#eae2b77F"/><path d="M100-162.5l48.7 191.1" stroke="#eae2b77F"/><path d="M100-162.5l33-191.4" stroke="#00304980"/><path d="M100-162.5l-80.3-175" stroke="#d6282880"/><path d="M100-162.5l-180.3-64.1" stroke="#f77f0081"/><path d="M100-162.5l37.2 186" stroke="#d6282881"/><path d="M100-162.5l-181.2 54.3" stroke="#d6282881"/><path d="M100-162.5l-66.4-174.3" stroke="#eae2b782"/><path d="M100-162.5l-94.6 159.8" stroke="#d6282882"/><path d="M100-162.5l89.9-161.7" stroke="#eae2b783"/><path d="M100-162.5l-179.7 34.8" stroke="#eae2b783"/><path d="M100-162.5l-104-149.5" stroke="#fcbf4983"/><path d="M100-162.5l-144.1-108.3" stroke="#00304984"/><path d="M100-162.5l6.8-179.9" stroke="#00304984"/><path d="M100-162.5l76.4-160.5" stroke="#00304984"/><path d="M100-162.5l161.4 66.6" stroke="#00304985"/><path d="M100-162.5l-13.1-171.9" stroke="#00304986"/><path d="M100-162.5l-88-146.8" stroke="#d6282886"/><path d="M100-162.5l136.5-95.5" stroke="#d6282887"/><path d="M100-162.5l147.2 76.4" stroke="#d6282887"/><path d="M100-162.5l-163.1 12.4" stroke="#00304988"/><path d="M100-162.5l-118 113" stroke="#00304988"/><path d="M100-162.5l160.4-11.8" stroke="#fcbf4988"/><path d="M100-162.5l-149.3-56.6" stroke="#f77f0088"/><path d="M100-162.5l-104.9 117.2" stroke="#eae2b789"/><path d="M100-162.5l-148.3-48.7" stroke="#fcbf4989"/><path d="M100-162.5l-121.7 91.1" stroke="#0030498A"/><path d="M100-162.5l-74.1 128.5" stroke="#0030498A"/><path d="M100-162.5l117.9 79.1" stroke="#d628288B"/><path d="M100-162.5l119.2 65.6" stroke="#fcbf498C"/><path d="M100-162.5l100.8 89.7" stroke="#fcbf498D"/><path d="M100-162.5l38.1 124.8" stroke="#eae2b78D"/><path d="M100-162.5l19.4-113.5" stroke="#d628288F"/><path d="M100-162.5l-14.8 103.1" stroke="#fcbf4990"/><path d="M100-162.5l-20.7 101.9" stroke="#d6282890"/><path d="M100-162.5l87-39.5" stroke="#d6282891"/><path d="M100-162.5l40.9 74.6" stroke="#fcbf4992"/><path d="M100-162.5l3.4 75.8" stroke="#00304993"/><path d="M100-162.5l9.5 73.7" stroke="#f77f0093"/><path d="M100-162.5l-65.4 14.7" stroke="#eae2b793"/><path d="M100-162.5l-55.2-16.9" stroke="#fcbf4994"/><path d="M100-162.5l42.1 26.7" stroke="#f77f0094"/><path d="M100-162.5l2.3-10.2" stroke="#f77f0095"/></g><g class="sparcs"><path d="M89-179a5.9 5.9 0 1 1 0-11.9 5.9 5.9 0 0 1 0 11.9" fill="#0030497D"/><path d="M112.6-199a6 6 0 1 1 0-11.9 6 6 0 0 1 0 11.9" fill="#d628287E"/><path d="M121.3-211.4a6 6 0 1 1 0-12 6 6 0 0 1 0 12" fill="#fcbf497F"/><path d="M139.5-97a6 6 0 1 1 0-12.1 6 6 0 0 1 0 12.1" fill="#f77f0080"/><path d="M169.7-200.2a6.1 6.1 0 1 1 0-12.1 6.1 6.1 0 0 1 0 12.1" fill="#eae2b781"/><path d="M47.5-88.7a6.1 6.1 0 1 1 0-12.2 6.1 6.1 0 0 1 0 12.2" fill="#f77f0081"/><path d="M216.7-131.2a6.3 6.3 0 1 1 0-12.7 6.3 6.3 0 0 1 0 12.7" fill="#00304985"/><path d="M-9.8-204.6a6.3 6.3 0 1 1 0-12.7 6.3 6.3 0 0 1 0 12.7" fill="#00304986"/><path d="M-12.2-111.1a6.3 6.3 0 1 1 0-12.7 6.3 6.3 0 0 1 0 12.7" fill="#d6282886"/><path d="M4.7-235.1a6.3 6.3 0 1 1 0-12.7 6.3 6.3 0 0 1 0 12.7" fill="#d6282886"/><path d="M-6.3-230.6a6.4 6.4 0 1 1 0-12.8 6.4 6.4 0 0 1 0 12.8" fill="#f77f0087"/><path d="M213.8-234a6.5 6.5 0 1 1 0-12.9 6.5 6.5 0 0 1 0 12.9" fill="#eae2b789"/><path d="M103.1-294.5a6.5 6.5 0 1 1 0-12.9 6.5 6.5 0 0 1 0 12.9" fill="#fcbf4989"/><path d="M132.1-19.7a6.5 6.5 0 1 1 0-13 6.5 6.5 0 0 1 0 13" fill="#00304989"/><path d="M-32.1-202.7a6.5 6.5 0 1 1 0-13 6.5 6.5 0 0 1 0 13" fill="#eae2b789"/><path d="M121-294.6a6.5 6.5 0 1 1 0-12.9 6.5 6.5 0 0 1 0 12.9" fill="#f77f0089"/><path d="M-24.3-90.1a6.5 6.5 0 1 1 0-13 6.5 6.5 0 0 1 0 13" fill="#00304989"/><path d="M238.8-203.6a6.5 6.5 0 1 1 0-13.1 6.5 6.5 0 0 1 0 13.1" fill="#d628288B"/><path d="M-40.6-112.5a6.5 6.5 0 1 1 0-13.1 6.5 6.5 0 0 1 0 13.1" fill="#0030498B"/><path d="M95.1-4.3a6.6 6.6 0 1 1 0-13.2 6.6 6.6 0 0 1 0 13.2" fill="#d628288C"/><path d="M96.5-2.8a6.6 6.6 0 1 1 0-13.3 6.6 6.6 0 0 1 0 13.3" fill="#fcbf498C"/><path d="M127.2-4.5a6.6 6.6 0 1 1 0-13.3 6.6 6.6 0 0 1 0 13.3" fill="#d628288C"/><path d="M261.2-155.8a6.7 6.7 0 1 1 0-13.4 6.7 6.7 0 0 1 0 13.4" fill="#f77f008E"/><path d="M251.2-95.2a6.7 6.7 0 1 1 0-13.5 6.7 6.7 0 0 1 0 13.5" fill="#d628288E"/><path d="M-49.2-229a6.8 6.8 0 1 1 0-13.5 6.8 6.8 0 0 1 0 13.5" fill="#fcbf498F"/><path d="M-65.6-140a6.8 6.8 0 1 1 0-13.5 6.8 6.8 0 0 1 0 13.5" fill="#0030498F"/><path d="M189.5-4.5a6.9 6.9 0 1 1 0-13.8 6.9 6.9 0 0 1 0 13.8" fill="#f77f0092"/><path d="M174.8 3.7a6.9 6.9 0 1 1 0-13.8 6.9 6.9 0 0 1 0 13.8" fill="#f77f0092"/><path d="M211.8-293a6.9 6.9 0 1 1 0-13.9 6.9 6.9 0 0 1 0 13.9" fill="#d6282892"/><path d="M179.3 3.9a6.9 6.9 0 1 1 0-13.9 6.9 6.9 0 0 1 0 13.9" fill="#f77f0093"/><path d="M0.7-307.3a7 7 0 1 1 0-13.9 7 7 0 0 1 0 13.9" fill="#d6282894"/><path d="M28.6-327a7 7 0 1 1 0-14 7 7 0 0 1 0 14" fill="#f77f0095"/><path d="M-86.7-159.8a7.1 7.1 0 1 1 0-14.1 7.1 7.1 0 0 1 0 14.1" fill="#d6282896"/><path d="M57.9 31.2a7.1 7.1 0 1 1 0-14.2 7.1 7.1 0 0 1 0 14.2" fill="#fcbf4997"/><path d="M282.9-81.8a7.2 7.2 0 1 1 0-14.5 7.2 7.2 0 0 1 0 14.5" fill="#d628289A"/><path d="M64-351.7a7.3 7.3 0 1 1 0-14.6 7.3 7.3 0 0 1 0 14.6" fill="#eae2b79B"/><path d="M86.6 44.3a7.3 7.3 0 1 1 0-14.5 7.3 7.3 0 0 1 0 14.5" fill="#f77f009B"/><path d="M-100.4-138.9a7.3 7.3 0 1 1 0-14.6 7.3 7.3 0 0 1 0 14.6" fill="#d628289B"/><path d="M179.8 30.2a7.3 7.3 0 1 1 0-14.6 7.3 7.3 0 0 1 0 14.6" fill="#d628289C"/><path d="M177.9-346.8a7.4 7.4 0 1 1 0-14.9 7.4 7.4 0 0 1 0 14.9" fill="#0030499E"/><path d="M124.9 54.3a7.5 7.5 0 1 1 0-15 7.5 7.5 0 0 1 0 15" fill="#f77f00A0"/><path d="M-109.9-126.8a7.6 7.6 0 1 1 0-15.1 7.6 7.6 0 0 1 0 15.1" fill="#fcbf49A1"/><path d="M123.5 55.7a7.6 7.6 0 1 1 0-15.1 7.6 7.6 0 0 1 0 15.1" fill="#d62828A1"/><path d="M24.8-354.2a7.6 7.6 0 1 1 0-15.2 7.6 7.6 0 0 1 0 15.2" fill="#eae2b7A1"/><path d="M131.8 58a7.6 7.6 0 1 1 0-15.3 7.6 7.6 0 0 1 0 15.3" fill="#fcbf49A3"/><path d="M205.6-342.9a7.7 7.7 0 1 1 0-15.3 7.7 7.7 0 0 1 0 15.3" fill="#f77f00A3"/><path d="M-111.6-218.1a7.8 7.8 0 1 1 0-15.7 7.8 7.8 0 0 1 0 15.7" fill="#f77f00A6"/><path d="M264.1-4.3a7.9 7.9 0 1 1 0-15.7 7.9 7.9 0 0 1 0 15.7" fill="#003049A8"/><path d="M195.5 46.4a7.9 7.9 0 1 1 0-15.8 7.9 7.9 0 0 1 0 15.8" fill="#f77f00A8"/><path d="M321-126.6a7.9 7.9 0 1 1 0-15.8 7.9 7.9 0 0 1 0 15.8" fill="#d62828A8"/><path d="M46.9-371.7a7.9 7.9 0 1 1 0-15.8 7.9 7.9 0 0 1 0 15.8" fill="#eae2b7A8"/><path d="M258.3-313a7.9 7.9 0 1 1 0-15.9 7.9 7.9 0 0 1 0 15.9" fill="#003049A9"/><path d="M-62.6-309.1a7.9 7.9 0 1 1 0-15.8 7.9 7.9 0 0 1 0 15.8" fill="#003049A9"/><path d="M114.7 70.3a8 8 0 1 1 0-15.9 8 8 0 0 1 0 15.9" fill="#003049AA"/><path d="M283.8-23.6a8 8 0 1 1 0-16 8 8 0 0 1 0 16" fill="#fcbf49AA"/><path d="M272-300.6a8 8 0 1 1 0-16 8 8 0 0 1 0 16" fill="#eae2b7AA"/><path d="M67.7 69.5a8 8 0 1 1 0-16 8 8 0 0 1 0 16" fill="#f77f00AB"/><path d="M329.3-151.7a8.1 8.1 0 1 1 0-16.3 8.1 8.1 0 0 1 0 16.3" fill="#fcbf49AE"/><path d="M301.1-265.7a8.2 8.2 0 1 1 0-16.4 8.2 8.2 0 0 1 0 16.4" fill="#003049AF"/><path d="M128.3 74a8.2 8.2 0 1 1 0-16.4 8.2 8.2 0 0 1 0 16.4" fill="#eae2b7AF"/><path d="M271 0.2a8.2 8.2 0 1 1 0-16.4 8.2 8.2 0 0 1 0 16.4" fill="#fcbf49AF"/><path d="M330.5-169.6a8.2 8.2 0 1 1 0-16.5 8.2 8.2 0 0 1 0 16.5" fill="#eae2b7B0"/><path d="M22.6 64a8.3 8.3 0 1 1 0-16.5 8.3 8.3 0 0 1 0 16.5" fill="#fcbf49B1"/><path d="M-30.2-345.8a8.3 8.3 0 1 1 0-16.6 8.3 8.3 0 0 1 0 16.6" fill="#eae2b7B1"/><path d="M-128.5-111.4a8.3 8.3 0 1 1 0-16.7 8.3 8.3 0 0 1 0 16.7" fill="#eae2b7B2"/><path d="M274.3-308.6a8.4 8.4 0 1 1 0-16.7 8.4 8.4 0 0 1 0 16.7" fill="#fcbf49B3"/><path d="M-115.4-65.2a8.4 8.4 0 1 1 0-16.7 8.4 8.4 0 0 1 0 16.7" fill="#fcbf49B3"/><path d="M312.4-252.7a8.5 8.5 0 1 1 0-16.9 8.5 8.5 0 0 1 0 16.9" fill="#d62828B5"/><path d="M-131-108.1a8.6 8.6 0 1 1 0-17.2 8.6 8.6 0 0 1 0 17.2" fill="#003049B8"/><path d="M172.4 70.3a8.6 8.6 0 1 1 0-17.3 8.6 8.6 0 0 1 0 17.3" fill="#fcbf49B8"/><path d="M193.2 62.6a8.7 8.7 0 1 1 0-17.3 8.7 8.7 0 0 1 0 17.3" fill="#003049B9"/><path d="M335.6-166.2a8.7 8.7 0 1 1 0-17.4 8.7 8.7 0 0 1 0 17.4" fill="#eae2b7BA"/><path d="M250.2-335.8a8.7 8.7 0 1 1 0-17.4 8.7 8.7 0 0 1 0 17.4" fill="#d62828BA"/><path d="M-97.1-23.7a8.7 8.7 0 1 1 0-17.5 8.7 8.7 0 0 1 0 17.5" fill="#d62828BB"/><path d="M303.3-33.6a8.8 8.8 0 1 1 0-17.5 8.8 8.8 0 0 1 0 17.5" fill="#fcbf49BC"/><path d="M309.5-44.7a8.8 8.8 0 1 1 0-17.6 8.8 8.8 0 0 1 0 17.6" fill="#d62828BC"/><path d="M328-92a8.8 8.8 0 1 1 0-17.6 8.8 8.8 0 0 1 0 17.6" fill="#fcbf49BD"/><path d="M97.8 82.6a8.8 8.8 0 1 1 0-17.7 8.8 8.8 0 0 1 0 17.7" fill="#d62828BD"/><path d="M327.8-216.3a8.9 8.9 0 1 1 0-17.7 8.9 8.9 0 0 1 0 17.7" fill="#f77f00BD"/><path d="M-47 31.3a8.9 8.9 0 1 1 0-17.8 8.9 8.9 0 0 1 0 17.8" fill="#d62828BE"/><path d="M323.5-77.1a8.9 8.9 0 1 1 0-17.8 8.9 8.9 0 0 1 0 17.8" fill="#003049BF"/><path d="M-126.9-219.1a8.9 8.9 0 1 1 0-17.8 8.9 8.9 0 0 1 0 17.8" fill="#003049BF"/><path d="M241.3-342.6a9 9 0 1 1 0-18 9 9 0 0 1 0 18" fill="#eae2b7C0"/><path d="M-62.7-324.5a9 9 0 1 1 0-18 9 9 0 0 1 0 18" fill="#eae2b7C0"/><path d="M299.7-278.8a9 9 0 1 1 0-18.1 9 9 0 0 1 0 18.1" fill="#003049C2"/><path d="M59 78.6a9.1 9.1 0 1 1 0-18.2 9.1 9.1 0 0 1 0 18.2" fill="#eae2b7C2"/><path d="M-102.5-33.2a9.1 9.1 0 1 1 0-18.2 9.1 9.1 0 0 1 0 18.2" fill="#fcbf49C3"/><path d="M-108.4-44a9.1 9.1 0 1 1 0-18.2 9.1 9.1 0 0 1 0 18.2" fill="#d62828C3"/><path d="M68.9-386.7a9.1 9.1 0 1 1 0-18.2 9.1 9.1 0 0 1 0 18.2" fill="#eae2b7C3"/><path d="M68.8 79.8a9.1 9.1 0 1 1 0-18.2 9.1 9.1 0 0 1 0 18.2" fill="#f77f00C3"/><path d="M248.8-335.6a9.1 9.1 0 1 1 0-18.3 9.1 9.1 0 0 1 0 18.3" fill="#eae2b7C3"/><path d="M259.2-326.4a9.1 9.1 0 1 1 0-18.3 9.1 9.1 0 0 1 0 18.3" fill="#fcbf49C4"/><path d="M209.6 54.6a9.2 9.2 0 1 1 0-18.4 9.2 9.2 0 0 1 0 18.4" fill="#f77f00C4"/><path d="M86.3 81.3a9.2 9.2 0 1 1 0-18.4 9.2 9.2 0 0 1 0 18.4" fill="#eae2b7C4"/><path d="M119.2-386.7a9.2 9.2 0 1 1 0-18.5 9.2 9.2 0 0 1 0 18.5" fill="#f77f00C6"/><path d="M297.9-28.9a9.3 9.3 0 1 1 0-18.6 9.3 9.3 0 0 1 0 18.6" fill="#003049C7"/><path d="M-118.6-234.3a9.3 9.3 0 1 1 0-18.7 9.3 9.3 0 0 1 0 18.7" fill="#eae2b7C8"/><path d="M-33.7-342.9a9.4 9.4 0 1 1 0-18.8 9.4 9.4 0 0 1 0 18.8" fill="#eae2b7CA"/><path d="M295.6-277.9a9.4 9.4 0 1 1 0-18.8 9.4 9.4 0 0 1 0 18.8" fill="#d62828CA"/><path d="M-55.4-325.3a9.4 9.4 0 1 1 0-18.8 9.4 9.4 0 0 1 0 18.8" fill="#fcbf49CA"/><path d="M-78.7-300.9a9.4 9.4 0 1 1 0-18.9 9.4 9.4 0 0 1 0 18.9" fill="#fcbf49CA"/><path d="M33.9 68.8a9.5 9.5 0 1 1 0-18.9 9.5 9.5 0 0 1 0 18.9" fill="#003049CB"/><path d="M301.8-46.7a9.6 9.6 0 1 1 0-19.2 9.6 9.6 0 0 1 0 19.2" fill="#d62828CE"/><path d="M-60-314.7a9.7 9.7 0 1 1 0-19.3 9.7 9.7 0 0 1 0 19.3" fill="#003049CF"/><path d="M-120.5-102.2a9.7 9.7 0 1 1 0-19.4 9.7 9.7 0 0 1 0 19.4" fill="#fcbf49D0"/><path d="M-113.3-78a9.7 9.7 0 1 1 0-19.4 9.7 9.7 0 0 1 0 19.4" fill="#d62828D0"/><path d="M-116.5-213.8a9.8 9.8 0 1 1 0-19.5 9.8 9.8 0 0 1 0 19.5" fill="#fcbf49D1"/><path d="M-110.1-230.3a9.8 9.8 0 1 1 0-19.6 9.8 9.8 0 0 1 0 19.6" fill="#eae2b7D2"/><path d="M104.6-376.6a9.8 9.8 0 1 1 0-19.6 9.8 9.8 0 0 1 0 19.6" fill="#f77f00D2"/><path d="M-50.7-318.3a9.8 9.8 0 1 1 0-19.6 9.8 9.8 0 0 1 0 19.6" fill="#003049D2"/><path d="M198.9-353.5a9.8 9.8 0 1 1 0-19.6 9.8 9.8 0 0 1 0 19.6" fill="#eae2b7D2"/><path d="M168.3-364.7a9.8 9.8 0 1 1 0-19.6 9.8 9.8 0 0 1 0 19.6" fill="#003049D3"/><path d="M318.1-115.3a9.9 9.9 0 1 1 0-19.8 9.9 9.9 0 0 1 0 19.8" fill="#003049D4"/><path d="M144.1-369.3a9.9 9.9 0 1 1 0-19.8 9.9 9.9 0 0 1 0 19.8" fill="#003049D4"/><path d="M232.3 24.2a9.9 9.9 0 1 1 0-19.9 9.9 9.9 0 0 1 0 19.9" fill="#f77f00D5"/><path d="M216.7 34.3a9.9 9.9 0 1 1 0-19.8 9.9 9.9 0 0 1 0 19.8" fill="#d62828D5"/><path d="M299.2-246.5a9.9 9.9 0 1 1 0-19.8 9.9 9.9 0 0 1 0 19.8" fill="#f77f00D5"/><path d="M10.9 47.6a10 10 0 1 1 0-20 10 10 0 0 1 0 20" fill="#f77f00D6"/><path d="M14.3 48.8a10 10 0 1 1 0-19.9 10 10 0 0 1 0 19.9" fill="#f77f00D6"/><path d="M39.6-362.4a10 10 0 1 1 0-19.9 10 10 0 0 1 0 19.9" fill="#eae2b7D6"/><path d="M-89.8-44.6a10 10 0 1 1 0-20 10 10 0 0 1 0 20" fill="#d62828D6"/><path d="M61.9 62.4a10 10 0 1 1 0-20 10 10 0 0 1 0 20" fill="#d62828D6"/><path d="M-115.6-166.2a10.1 10.1 0 1 1 0-20.1 10.1 10.1 0 0 1 0 20.1" fill="#fcbf49D8"/><path d="M89.5-368.2a10.1 10.1 0 1 1 0-20.1 10.1 10.1 0 0 1 0 20.1" fill="#fcbf49D8"/><path d="M201 37.6a10.1 10.1 0 1 1 0-20.1 10.1 10.1 0 0 1 0 20.1" fill="#d62828D8"/><path d="M-92.3-56.3a10.1 10.1 0 1 1 0-20.1 10.1 10.1 0 0 1 0 20.1" fill="#fcbf49D8"/><path d="M167.5 51.4a10.1 10.1 0 1 1 0-20.2 10.1 10.1 0 0 1 0 20.2" fill="#eae2b7D9"/><path d="M-105.4-94.2a10.1 10.1 0 1 1 0-20.2 10.1 10.1 0 0 1 0 20.2" fill="#003049D9"/><path d="M313.3-144.3a10.1 10.1 0 1 1 0-20.3 10.1 10.1 0 0 1 0 20.3" fill="#eae2b7D9"/><path d="M305.1-95.6a10.1 10.1 0 1 1 0-20.3 10.1 10.1 0 0 1 0 20.3" fill="#fcbf49DA"/><path d="M288.5-58a10.2 10.2 0 1 1 0-20.3 10.2 10.2 0 0 1 0 20.3" fill="#eae2b7DB"/><path d="M-31.2 12.5a10.2 10.2 0 1 1 0-20.4 10.2 10.2 0 0 1 0 20.4" fill="#d62828DB"/><path d="M305.5-121.5a10.3 10.3 0 1 1 0-20.6 10.3 10.3 0 0 1 0 20.6" fill="#d62828DC"/><path d="M190.5-337.9a10.3 10.3 0 1 1 0-20.6 10.3 10.3 0 0 1 0 20.6" fill="#eae2b7DD"/><path d="M156.9 42.7a10.4 10.4 0 1 1 0-20.8 10.4 10.4 0 0 1 0 20.8" fill="#f77f00DF"/><path d="M295.5-204.2a10.4 10.4 0 1 1 0-20.8 10.4 10.4 0 0 1 0 20.8" fill="#eae2b7DF"/><path d="M111.2 49.7a10.4 10.4 0 1 1 0-20.8 10.4 10.4 0 0 1 0 20.8" fill="#eae2b7DF"/><path d="M51.3-346.7a10.4 10.4 0 1 1 0-20.8 10.4 10.4 0 0 1 0 20.8" fill="#003049E0"/><path d="M274.5-247.2a10.5 10.5 0 1 1 0-20.9 10.5 10.5 0 0 1 0 20.9" fill="#fcbf49E1"/><path d="M148.7 39a10.5 10.5 0 1 1 0-20.9 10.5 10.5 0 0 1 0 20.9" fill="#d62828E1"/><path d="M133-343.4a10.5 10.5 0 1 1 0-21 10.5 10.5 0 0 1 0 21" fill="#eae2b7E3"/><path d="M19.7-327a10.6 10.6 0 1 1 0-21.1 10.6 10.6 0 0 1 0 21.1" fill="#003049E3"/><path d="M-80.3-216a10.6 10.6 0 1 1 0-21.2 10.6 10.6 0 0 1 0 21.2" fill="#d62828E4"/><path d="M137.2 34.1a10.6 10.6 0 1 1 0-21.2 10.6 10.6 0 0 1 0 21.2" fill="#fcbf49E4"/><path d="M-81.2-97.6a10.6 10.6 0 1 1 0-21.2 10.6 10.6 0 0 1 0 21.2" fill="#f77f00E4"/><path d="M33.6-326.2a10.7 10.7 0 1 1 0-21.3 10.7 10.7 0 0 1 0 21.3" fill="#003049E5"/><path d="M5.4 8a10.7 10.7 0 1 1 0-21.4 10.7 10.7 0 0 1 0 21.4" fill="#eae2b7E6"/><path d="M189.9-313.5a10.7 10.7 0 1 1 0-21.4 10.7 10.7 0 0 1 0 21.4" fill="#003049E6"/><path d="M-79.7-116.9a10.7 10.7 0 1 1 0-21.5 10.7 10.7 0 0 1 0 21.5" fill="#f77f00E7"/><path d="M-4-301.2a10.7 10.7 0 1 1 0-21.5 10.7 10.7 0 0 1 0 21.5" fill="#fcbf49E7"/><path d="M-44.1-260a10.8 10.8 0 1 1 0-21.6 10.8 10.8 0 0 1 0 21.6" fill="#f77f00E8"/><path d="M106.8-331.6a10.8 10.8 0 1 1 0-21.6 10.8 10.8 0 0 1 0 21.6" fill="#eae2b7E8"/><path d="M176.4-312.2a10.8 10.8 0 1 1 0-21.6 10.8 10.8 0 0 1 0 21.6" fill="#eae2b7E8"/><path d="M261.4-85.1a10.8 10.8 0 1 1 0-21.7 10.8 10.8 0 0 1 0 21.7" fill="#fcbf49E9"/><path d="M86.9-323.5a10.9 10.9 0 1 1 0-21.8 10.9 10.9 0 0 1 0 21.8" fill="#d62828EA"/><path d="M12-298.4a10.9 10.9 0 1 1 0-21.8 10.9 10.9 0 0 1 0 21.8" fill="#eae2b7EA"/><path d="M236.5-247a11 11 0 1 1 0-21.9 11 11 0 0 1 0 21.9" fill="#eae2b7EC"/><path d="M247.2-75.1a11 11 0 1 1 0-21.9 11 11 0 0 1 0 21.9" fill="#fcbf49EC"/><path d="M-63.1-139.1a11 11 0 1 1 0-21.9 11 11 0 0 1 0 21.9" fill="#f77f00EC"/><path d="M-18-38.5a11 11 0 1 1 0-22 11 11 0 0 1 0 22" fill="#f77f00EC"/><path d="M260.4-163.2a11 11 0 1 1 0-22.1 11 11 0 0 1 0 22.1" fill="#f77f00ED"/><path d="M-49.3-208.1a11 11 0 1 1 0-22 11 11 0 0 1 0 22" fill="#d62828ED"/><path d="M-4.9-34.2a11.1 11.1 0 1 1 0-22.1 11.1 11.1 0 0 1 0 22.1" fill="#eae2b7EE"/><path d="M-48.3-200.1a11.1 11.1 0 1 1 0-22.1 11.1 11.1 0 0 1 0 22.1" fill="#003049EE"/><path d="M-21.7-60.3a11.1 11.1 0 1 1 0-22.3 11.1 11.1 0 0 1 0 22.3" fill="#eae2b7EF"/><path d="M25.9-22.9a11.2 11.2 0 1 1 0-22.3 11.2 11.2 0 0 1 0 22.3" fill="#d62828F0"/><path d="M217.9-72.2a11.2 11.2 0 1 1 0-22.4 11.2 11.2 0 0 1 0 22.4" fill="#003049F1"/><path d="M219.2-85.6a11.3 11.3 0 1 1 0-22.6 11.3 11.3 0 0 1 0 22.6" fill="#fcbf49F3"/><path d="M200.8-61.5a11.3 11.3 0 1 1 0-22.6 11.3 11.3 0 0 1 0 22.6" fill="#d62828F3"/><path d="M138.1-26.4a11.3 11.3 0 1 1 0-22.6 11.3 11.3 0 0 1 0 22.6" fill="#d62828F4"/><path d="M119.4-264.6a11.4 11.4 0 1 1 0-22.9 11.4 11.4 0 0 1 0 22.9" fill="#f77f00F6"/><path d="M85.2-47.9a11.5 11.5 0 1 1 0-23 11.5 11.5 0 0 1 0 23" fill="#f77f00F8"/><path d="M79.3-49a11.5 11.5 0 1 1 0-23.1 11.5 11.5 0 0 1 0 23.1" fill="#f77f00F8"/><path d="M187-190.5a11.6 11.6 0 1 1 0-23.1 11.6 11.6 0 0 1 0 23.1" fill="#eae2b7F9"/><path d="M140.9-76.2a11.6 11.6 0 1 1 0-23.3 11.6 11.6 0 0 1 0 23.3" fill="#fcbf49FA"/><path d="M103.4-75.1a11.7 11.7 0 1 1 0-23.3 11.7 11.7 0 0 1 0 23.3" fill="#003049FB"/><path d="M109.5-77.2a11.7 11.7 0 1 1 0-23.3 11.7 11.7 0 0 1 0 23.3" fill="#eae2b7FB"/><path d="M34.6-136.1a11.7 11.7 0 1 1 0-23.3 11.7 11.7 0 0 1 0 23.3" fill="#d62828FC"/><path d="M44.8-167.7a11.7 11.7 0 1 1 0-23.5 11.7 11.7 0 0 1 0 23.5" fill="#f77f00FD"/><path d="M142.1-124a11.7 11.7 0 1 1 0-23.5 11.7 11.7 0 0 1 0 23.5" fill="#fcbf49FD"/><path d="M102.3-160.9a11.8 11.8 0 1 1 0-23.6 11.8 11.8 0 0 1 0 23.6" fill="#d62828FE"/></g></svg>