<svg width="1200" height="675" viewBox="-500 -500 1200 675" xmlns="http://www.w3.org/2000/svg"><path d="M-500-500h1200v675h-1200z" fill="#000"/><style>.sparkles path{stroke-linecap:round; stroke-width:1}</style><g class="sparkles"><path d="M100-162.5l-29.8 14.1" stroke="#ffd60a32"/><path d="M100-162.5l19.8 36.9" stroke="#ffc30032"/><path d="M100-162.5l-53.3 27.4" stroke="#ffc30033"/><path d="M100-162.5l77.8 40.1" stroke="#ffd60a35"/><path d="M100-162.5l70.7-62.8" stroke="#ffc30036"/><path d="M100-162.5l85.8 53" stroke="#001d3d36"/><path d="M100-162.5l83-58.1" stroke="#ffc30036"/><path d="M100-162.5l101.5 2.1" stroke="#ffd60a36"/><path d="M100-162.5l-81.6-65" stroke="#00081437"/><path d="M100-162.5l54.7 91" stroke="#ffd60a37"/><path d="M100-162.5l-71.9 80.4" stroke="#00081437"/><path d="M100-162.5l52.1-101.8" stroke="#00356638"/><path d="M100-162.5l120.5 3.5" stroke="#ffd60a38"/><path d="M100-162.5l118.3-33" stroke="#001d3d39"/><path d="M100-162.5l104.5 65.5" stroke="#ffd60a39"/><path d="M100-162.5l45.2 122.3" stroke="#0035663A"/><path d="M100-162.5l67.4-112" stroke="#001d3d3A"/><path d="M100-162.5l16.9-129.6" stroke="#0008143A"/><path d="M100-162.5l118.8-63.3" stroke="#001d3d3A"/><path d="M100-162.5l-55.6 123.1" stroke="#ffd60a3A"/><path d="M100-162.5l128.3-47.8" stroke="#ffc3003B"/><path d="M100-162.5l8.3-138.2" stroke="#001d3d3B"/><path d="M100-162.5l-134.7 32.8" stroke="#0008143B"/><path d="M100-162.5l133.9-42.3" stroke="#ffc3003B"/><path d="M100-162.5l-88.2 117" stroke="#0008143C"/><path d="M100-162.5l111.8-96.1" stroke="#ffc3003C"/><path d="M100-162.5l-60.8 134.5" stroke="#ffc3003C"/><path d="M100-162.5l51.9-139" stroke="#ffc3003D"/><path d="M100-162.5l57.3-137.4" stroke="#ffd60a3D"/><path d="M100-162.5l139.5 57.7" stroke="#ffc3003D"/><path d="M100-162.5l-92.4 123.8" stroke="#ffc3003E"/><path d="M100-162.5l-65.6-142.2" stroke="#ffc3003E"/><path d="M100-162.5l-155.5 24.6" stroke="#ffd60a3E"/><path d="M100-162.5l145.1-61.6" stroke="#001d3d3E"/><path d="M100-162.5l102-121.2" stroke="#ffd60a3E"/><path d="M100-162.5l-120.7-103.5" stroke="#0035663F"/><path d="M100-162.5l159.6-3.7" stroke="#ffd60a3F"/><path d="M100-162.5l-164-0.3" stroke="#ffd60a40"/><path d="M100-162.5l-45.2 163.3" stroke="#00081441"/><path d="M100-162.5l144.7 90.9" stroke="#00356641"/><path d="M100-162.5l-7.9 171.4" stroke="#00356641"/><path d="M100-162.5l-78.2 155.6" stroke="#ffc30042"/><path d="M100-162.5l-133.6 115.7" stroke="#00356642"/><path d="M100-162.5l-134.4-116.6" stroke="#001d3d43"/><path d="M100-162.5l41.6 174" stroke="#001d3d43"/><path d="M100-162.5l-112.1 140.8" stroke="#00081443"/><path d="M100-162.5l91.8 156" stroke="#00356643"/><path d="M100-162.5l30.3-183.6" stroke="#ffc30045"/><path d="M100-162.5l-48-180.3" stroke="#ffc30045"/><path d="M100-162.5l119.1 144" stroke="#ffc30045"/><path d="M100-162.5l20.5 189.2" stroke="#ffd60a46"/><path d="M100-162.5l90.1 169.3" stroke="#00081446"/><path d="M100-162.5l190.6 29.1" stroke="#ffc30047"/><path d="M100-162.5l146.7-125.5" stroke="#00356647"/><path d="M100-162.5l84.8-175.6" stroke="#00081447"/><path d="M100-162.5l95-171.1" stroke="#ffd60a47"/><path d="M100-162.5l-39.4 198.1" stroke="#ffc3004A"/><path d="M100-162.5l-194 58.1" stroke="#001d3d4A"/><path d="M100-162.5l-118.9-167.2" stroke="#ffd60a4B"/><path d="M100-162.5l-123.9-166.6" stroke="#ffc3004C"/><path d="M100-162.5l-188.8 101.9" stroke="#ffc3004F"/><path d="M100-162.5l-177.9 120.9" stroke="#0008144F"/><path d="M100-162.5l12.2-215" stroke="#ffc3004F"/><path d="M100-162.5l-208.4 58.6" stroke="#0035664F"/><path d="M100-162.5l202.3 84.7" stroke="#00356651"/><path d="M100-162.5l-150.7-159.5" stroke="#00356651"/><path d="M100-162.5l-219.3 8" stroke="#00356651"/><path d="M100-162.5l-197.8 96.6" stroke="#ffc30051"/><path d="M100-162.5l-138.4 171.3" stroke="#ffd60a51"/><path d="M100-162.5l-223.6-7.1" stroke="#ffd60a53"/><path d="M100-162.5l-45.6-220.2" stroke="#00356654"/><path d="M100-162.5l154.3-163.6" stroke="#00356654"/><path d="M100-162.5l225.9 28.7" stroke="#ffc30056"/><path d="M100-162.5l-124.5 191.6" stroke="#ffc30057"/><path d="M100-162.5l199.6-111.6" stroke="#001d3d57"/><path d="M100-162.5l110.4-200.3" stroke="#00081457"/><path d="M100-162.5l229.3 4.1" stroke="#ffc30057"/><path d="M100-162.5l228.8-19.1" stroke="#001d3d58"/><path d="M100-162.5l120.4 195.5" stroke="#ffc30058"/><path d="M100-162.5l222.9 55.7" stroke="#ffc30058"/><path d="M100-162.5l-181.8 141.7" stroke="#00356658"/><path d="M100-162.5l-197 119.9" stroke="#001d3d59"/><path d="M100-162.5l105.8 205.7" stroke="#ffc30059"/><path d="M100-162.5l-104.5-206.4" stroke="#ffd60a59"/><path d="M100-162.5l-18.8 231.4" stroke="#ffc3005A"/><path d="M100-162.5l-33.5-230.1" stroke="#ffd60a5B"/><path d="M100-162.5l-156 173.4" stroke="#001d3d5C"/><path d="M100-162.5l-140.4-186.8" stroke="#ffd60a5C"/><path d="M100-162.5l-114.5 204.3" stroke="#ffd60a5D"/><path d="M100-162.5l234.9 0" stroke="#0035665E"/><path d="M100-162.5l19.8 234.4" stroke="#0035665F"/><path d="M100-162.5l49.8 230" stroke="#001d3d5F"/><path d="M100-162.5l191.2-137.1" stroke="#0035665F"/><path d="M100-162.5l-184.7-146.4" stroke="#001d3d60"/><path d="M100-162.5l220.7-83.6" stroke="#ffc30061"/><path d="M100-162.5l221.2 82.3" stroke="#ffd60a61"/><path d="M100-162.5l134-194.4" stroke="#ffc30062"/><path d="M100-162.5l150.4 182.1" stroke="#00356662"/><path d="M100-162.5l73.9 224.3" stroke="#00356662"/><path d="M100-162.5l227.2-64.7" stroke="#ffd60a62"/><path d="M100-162.5l-109.5 209.3" stroke="#001d3d63"/><path d="M100-162.5l-162 171.9" stroke="#ffd60a64"/><path d="M100-162.5l229.3-56.5" stroke="#001d3d65"/><path d="M100-162.5l-88.5 219" stroke="#00081465"/><path d="M100-162.5l-115.6-204.7" stroke="#ffd60a68"/><path d="M100-162.5l122.3 200.7" stroke="#ffc30069"/><path d="M100-162.5l83-219.7" stroke="#ffd60a69"/><path d="M100-162.5l234 17.4" stroke="#001d3d69"/><path d="M100-162.5l30.3 231.6" stroke="#0035666B"/><path d="M100-162.5l190.5-133.1" stroke="#ffc3006D"/><path d="M100-162.5l-24.8-229" stroke="#0008146F"/><path d="M100-162.5l-225.7-42.7" stroke="#ffc3006F"/><path d="M100-162.5l-125.1 192.4" stroke="#0035666F"/><path d="M100-162.5l-196.8 117.5" stroke="#00081470"/><path d="M100-162.5l3.2 229.1" stroke="#001d3d70"/><path d="M100-162.5l191.7-125.5" stroke="#ffc30070"/><path d="M100-162.5l164.1-159.4" stroke="#00356670"/><path d="M100-162.5l-156.4 164.8" stroke="#001d3d71"/><path d="M100-162.5l-223 33.4" stroke="#ffd60a72"/><path d="M100-162.5l72.1-212.2" stroke="#ffc30073"/><path d="M100-162.5l214 63.6" stroke="#00356674"/><path d="M100-162.5l202.6 93" stroke="#001d3d74"/><path d="M100-162.5l-219.6-37.5" stroke="#00356674"/><path d="M100-162.5l160.5 153.8" stroke="#00356674"/><path d="M100-162.5l-211.7-61.7" stroke="#00081475"/><path d="M100-162.5l70.6-208.5" stroke="#ffd60a76"/><path d="M100-162.5l-217.2-28.3" stroke="#001d3d76"/><path d="M100-162.5l108.5-187.8" stroke="#001d3d77"/><path d="M100-162.5l216.1 16.4" stroke="#00081477"/><path d="M100-162.5l-137.9 166.7" stroke="#ffd60a78"/><path d="M100-162.5l27.9-214.3" stroke="#00081478"/><path d="M100-162.5l117.8 180.8" stroke="#00356678"/><path d="M100-162.5l66.5-204.9" stroke="#00081478"/><path d="M100-162.5l-5.2 214.8" stroke="#00356678"/><path d="M100-162.5l-180.8-112.9" stroke="#001d3d79"/><path d="M100-162.5l-202.5 55.9" stroke="#0008147A"/><path d="M100-162.5l-131.4 162.3" stroke="#ffd60a7B"/><path d="M100-162.5l107.6 177.7" stroke="#ffc3007B"/><path d="M100-162.5l-176.6 99.8" stroke="#0008147D"/><path d="M100-162.5l201.7 20.7" stroke="#001d3d7D"/><path d="M100-162.5l199.8-24.1" stroke="#ffc3007E"/><path d="M100-162.5l-103.7 171.4" stroke="#0008147E"/><path d="M100-162.5l145.3-136" stroke="#0035667E"/><path d="M100-162.5l-185.6-61.8" stroke="#ffd60a80"/><path d="M100-162.5l-144.7 131.4" stroke="#ffc30080"/><path d="M100-162.5l-97.1-169.3" stroke="#ffc30080"/><path d="M100-162.5l-153.1-117.6" stroke="#ffd60a80"/><path d="M100-162.5l-26.7 191" stroke="#ffd60a80"/><path d="M100-162.5l-165.9-95.3" stroke="#001d3d81"/><path d="M100-162.5l91.9 167" stroke="#00356681"/><path d="M100-162.5l110.6 153.7" stroke="#ffc30081"/><path d="M100-162.5l-167.5-42.5" stroke="#ffd60a86"/><path d="M100-162.5l68.1-153.3" stroke="#00081487"/><path d="M100-162.5l35.4-161.1" stroke="#ffc30087"/><path d="M100-162.5l81.6-139.6" stroke="#ffd60a88"/><path d="M100-162.5l2.8 158.2" stroke="#00356689"/><path d="M100-162.5l-60.7-145.4" stroke="#00356689"/><path d="M100-162.5l-155.9-15.8" stroke="#ffd60a89"/><path d="M100-162.5l12.4 155.9" stroke="#00356689"/><path d="M100-162.5l146.4-43.9" stroke="#0035668A"/><path d="M100-162.5l-139.8 57.9" stroke="#0008148A"/><path d="M100-162.5l-138.6 51.4" stroke="#001d3d8B"/><path d="M100-162.5l146.3-13.5" stroke="#0035668B"/><path d="M100-162.5l133.5-60.5" stroke="#ffc3008B"/><path d="M100-162.5l-140.9-14.7" stroke="#ffc3008C"/><path d="M100-162.5l131.4-44.3" stroke="#ffc3008C"/><path d="M100-162.5l82.7 100.8" stroke="#0008148D"/><path d="M100-162.5l120.1-48.9" stroke="#001d3d8D"/><path d="M100-162.5l125.1 31" stroke="#ffc3008D"/><path d="M100-162.5l33.7 118.9" stroke="#ffd60a8E"/><path d="M100-162.5l-27.9 116" stroke="#0035668F"/><path d="M100-162.5l-61-101.8" stroke="#001d3d8F"/><path d="M100-162.5l39.8-111.4" stroke="#0008148F"/><path d="M100-162.5l-86.6 72.2" stroke="#0035668F"/><path d="M100-162.5l7-110.1" stroke="#001d3d90"/><path d="M100-162.5l81-63.9" stroke="#00356690"/><path d="M100-162.5l64.5-68.4" stroke="#ffd60a91"/><path d="M100-162.5l60.1 59.3" stroke="#ffd60a92"/><path d="M100-162.5l2 67.1" stroke="#ffd60a93"/><path d="M100-162.5l24.4-28.7" stroke="#00356695"/><path d="M100-162.5l-13.6 31.4" stroke="#00081495"/></g><g class="sparcs"><path d="M70.2-142.5a5.9 5.9 0 1 1 0-11.8 5.9 5.9 0 0 1 0 11.8" fill="#ffd60a7D"/><path d="M119.8-119.7a6 6 0 1 1 0-11.9 6 6 0 0 1 0 11.9" fill="#0008147E"/><path d="M46.7-129.1a6 6 0 1 1 0-12 6 6 0 0 1 0 12" fill="#ffc3007F"/><path d="M177.8-116.3a6.1 6.1 0 1 1 0-12.2 6.1 6.1 0 0 1 0 12.2" fill="#00081481"/><path d="M170.7-219.1a6.2 6.2 0 1 1 0-12.3 6.2 6.2 0 0 1 0 12.3" fill="#00356682"/><path d="M185.8-103.3a6.2 6.2 0 1 1 0-12.4 6.2 6.2 0 0 1 0 12.4" fill="#ffc30083"/><path d="M183-214.5a6.2 6.2 0 1 1 0-12.3 6.2 6.2 0 0 1 0 12.3" fill="#ffd60a83"/><path d="M201.5-154.2a6.2 6.2 0 1 1 0-12.4 6.2 6.2 0 0 1 0 12.4" fill="#001d3d83"/><path d="M18.4-221.2a6.2 6.2 0 1 1 0-12.5 6.2 6.2 0 0 1 0 12.5" fill="#001d3d83"/><path d="M154.7-65.3a6.2 6.2 0 1 1 0-12.5 6.2 6.2 0 0 1 0 12.5" fill="#001d3d83"/><path d="M28.1-75.8a6.2 6.2 0 1 1 0-12.5 6.2 6.2 0 0 1 0 12.5" fill="#00081484"/><path d="M152.1-258a6.3 6.3 0 1 1 0-12.6 6.3 6.3 0 0 1 0 12.6" fill="#ffd60a85"/><path d="M220.5-152.7a6.3 6.3 0 1 1 0-12.6 6.3 6.3 0 0 1 0 12.6" fill="#ffc30086"/><path d="M218.3-189.1a6.3 6.3 0 1 1 0-12.7 6.3 6.3 0 0 1 0 12.7" fill="#ffc30086"/><path d="M204.5-90.7a6.3 6.3 0 1 1 0-12.6 6.3 6.3 0 0 1 0 12.6" fill="#ffd60a86"/><path d="M145.2-33.8a6.4 6.4 0 1 1 0-12.8 6.4 6.4 0 0 1 0 12.8" fill="#ffc30087"/><path d="M167.4-268.1a6.4 6.4 0 1 1 0-12.8 6.4 6.4 0 0 1 0 12.8" fill="#ffc30087"/><path d="M116.9-285.7a6.4 6.4 0 1 1 0-12.8 6.4 6.4 0 0 1 0 12.8" fill="#00081487"/><path d="M218.8-219.3a6.4 6.4 0 1 1 0-12.9 6.4 6.4 0 0 1 0 12.9" fill="#ffc30088"/><path d="M44.4-33a6.4 6.4 0 1 1 0-12.8 6.4 6.4 0 0 1 0 12.8" fill="#001d3d88"/><path d="M228.3-203.8a6.5 6.5 0 1 1 0-12.9 6.5 6.5 0 0 1 0 12.9" fill="#ffd60a89"/><path d="M108.3-294.2a6.5 6.5 0 1 1 0-12.9 6.5 6.5 0 0 1 0 12.9" fill="#001d3d89"/><path d="M-34.7-123.2a6.5 6.5 0 1 1 0-13 6.5 6.5 0 0 1 0 13" fill="#00081489"/><path d="M233.9-198.3a6.5 6.5 0 1 1 0-13 6.5 6.5 0 0 1 0 13" fill="#ffc30089"/><path d="M11.8-39a6.5 6.5 0 1 1 0-13.1 6.5 6.5 0 0 1 0 13.1" fill="#0035668B"/><path d="M211.8-252a6.6 6.6 0 1 1 0-13.1 6.6 6.6 0 0 1 0 13.1" fill="#0008148B"/><path d="M39.2-21.4a6.6 6.6 0 1 1 0-13.1 6.6 6.6 0 0 1 0 13.1" fill="#0035668B"/><path d="M151.9-294.9a6.6 6.6 0 1 1 0-13.1 6.6 6.6 0 0 1 0 13.1" fill="#ffc3008B"/><path d="M157.3-293.3a6.6 6.6 0 1 1 0-13.1 6.6 6.6 0 0 1 0 13.1" fill="#0008148B"/><path d="M239.5-98.2a6.6 6.6 0 1 1 0-13.2 6.6 6.6 0 0 1 0 13.2" fill="#0008148C"/><path d="M7.6-32.1a6.6 6.6 0 1 1 0-13.2 6.6 6.6 0 0 1 0 13.2" fill="#ffc3008C"/><path d="M34.4-298a6.6 6.6 0 1 1 0-13.3 6.6 6.6 0 0 1 0 13.3" fill="#001d3d8D"/><path d="M-55.5-131.3a6.7 6.7 0 1 1 0-13.3 6.7 6.7 0 0 1 0 13.3" fill="#001d3d8D"/><path d="M245.1-217.5a6.7 6.7 0 1 1 0-13.3 6.7 6.7 0 0 1 0 13.3" fill="#0008148D"/><path d="M202-277a6.7 6.7 0 1 1 0-13.4 6.7 6.7 0 0 1 0 13.4" fill="#0008148D"/><path d="M-20.7-259.3a6.7 6.7 0 1 1 0-13.3 6.7 6.7 0 0 1 0 13.3" fill="#001d3d8D"/><path d="M259.6-159.5a6.7 6.7 0 1 1 0-13.3 6.7 6.7 0 0 1 0 13.3" fill="#0035668E"/><path d="M-64-156.1a6.7 6.7 0 1 1 0-13.4 6.7 6.7 0 0 1 0 13.4" fill="#0035668F"/><path d="M54.8 7.6a6.8 6.8 0 1 1 0-13.6 6.8 6.8 0 0 1 0 13.6" fill="#00356690"/><path d="M244.7-64.7a6.8 6.8 0 1 1 0-13.7 6.8 6.8 0 0 1 0 13.7" fill="#ffc30091"/><path d="M92.1 15.7a6.8 6.8 0 1 1 0-13.6 6.8 6.8 0 0 1 0 13.6" fill="#00356691"/><path d="M21.8 0a6.9 6.9 0 1 1 0-13.8 6.9 6.9 0 0 1 0 13.8" fill="#00356692"/><path d="M-33.6-39.9a6.9 6.9 0 1 1 0-13.8 6.9 6.9 0 0 1 0 13.8" fill="#ffc30092"/><path d="M-34.4-272.2a6.9 6.9 0 1 1 0-13.8 6.9 6.9 0 0 1 0 13.8" fill="#ffd60a93"/><path d="M141.6 18.5a6.9 6.9 0 1 1 0-13.9 6.9 6.9 0 0 1 0 13.9" fill="#00081493"/><path d="M-12.1-14.7a6.9 6.9 0 1 1 0-13.9 6.9 6.9 0 0 1 0 13.9" fill="#00081493"/><path d="M191.8 0.4a7 7 0 1 1 0-13.9 7 7 0 0 1 0 13.9" fill="#00081494"/><path d="M130.3-339.1a7 7 0 1 1 0-14 7 7 0 0 1 0 14" fill="#00356695"/><path d="M52-335.8a7 7 0 1 1 0-14.1 7 7 0 0 1 0 14.1" fill="#00356696"/><path d="M219.1-11.5a7.1 7.1 0 1 1 0-14.1 7.1 7.1 0 0 1 0 14.1" fill="#ffd60a96"/><path d="M120.5 33.8a7.1 7.1 0 1 1 0-14.2 7.1 7.1 0 0 1 0 14.2" fill="#00081497"/><path d="M190.1 13.9a7.1 7.1 0 1 1 0-14.2 7.1 7.1 0 0 1 0 14.2" fill="#ffc30098"/><path d="M290.6-126.3a7.2 7.2 0 1 1 0-14.3 7.2 7.2 0 0 1 0 14.3" fill="#ffd60a98"/><path d="M246.7-280.8a7.2 7.2 0 1 1 0-14.3 7.2 7.2 0 0 1 0 14.3" fill="#ffc30098"/><path d="M184.8-331a7.2 7.2 0 1 1 0-14.3 7.2 7.2 0 0 1 0 14.3" fill="#00356699"/><path d="M195-326.3a7.2 7.2 0 1 1 0-14.5 7.2 7.2 0 0 1 0 14.5" fill="#00081499"/><path d="M60.6 42.9a7.3 7.3 0 1 1 0-14.6 7.3 7.3 0 0 1 0 14.6" fill="#001d3d9C"/><path d="M-94-97.1a7.3 7.3 0 1 1 0-14.6 7.3 7.3 0 0 1 0 14.6" fill="#0035669C"/><path d="M-18.9-322.3a7.4 7.4 0 1 1 0-14.7 7.4 7.4 0 0 1 0 14.7" fill="#001d3d9D"/><path d="M-23.9-321.6a7.4 7.4 0 1 1 0-14.9 7.4 7.4 0 0 1 0 14.9" fill="#ffd60a9E"/><path d="M-88.8-53a7.6 7.6 0 1 1 0-15.2 7.6 7.6 0 0 1 0 15.2" fill="#001d3dA2"/><path d="M-77.9-34a7.6 7.6 0 1 1 0-15.3 7.6 7.6 0 0 1 0 15.3" fill="#003566A3"/><path d="M112.2-369.8a7.6 7.6 0 1 1 0-15.3 7.6 7.6 0 0 1 0 15.3" fill="#003566A3"/><path d="M-108.4-96.2a7.7 7.7 0 1 1 0-15.4 7.7 7.7 0 0 1 0 15.4" fill="#001d3dA3"/><path d="M302.3-70.1a7.8 7.8 0 1 1 0-15.5 7.8 7.8 0 0 1 0 15.5" fill="#003566A5"/><path d="M-50.7-314.2a7.8 7.8 0 1 1 0-15.6 7.8 7.8 0 0 1 0 15.6" fill="#ffc300A5"/><path d="M-119.3-146.7a7.8 7.8 0 1 1 0-15.5 7.8 7.8 0 0 1 0 15.5" fill="#001d3dA5"/><path d="M-97.8-58.1a7.8 7.8 0 1 1 0-15.6 7.8 7.8 0 0 1 0 15.6" fill="#001d3dA6"/><path d="M-38.4 16.6a7.8 7.8 0 1 1 0-15.6 7.8 7.8 0 0 1 0 15.6" fill="#ffd60aA6"/><path d="M-123.6-161.7a7.9 7.9 0 1 1 0-15.8 7.9 7.9 0 0 1 0 15.8" fill="#001d3dA9"/><path d="M54.4-374.7a8 8 0 1 1 0-15.9 8 8 0 0 1 0 15.9" fill="#000814AA"/><path d="M254.3-318.1a8 8 0 1 1 0-15.9 8 8 0 0 1 0 15.9" fill="#ffc300AA"/><path d="M325.9-125.7a8.1 8.1 0 1 1 0-16.2 8.1 8.1 0 0 1 0 16.2" fill="#001d3dAC"/><path d="M-24.5 37.2a8.1 8.1 0 1 1 0-16.2 8.1 8.1 0 0 1 0 16.2" fill="#001d3dAD"/><path d="M299.6-266a8.1 8.1 0 1 1 0-16.2 8.1 8.1 0 0 1 0 16.2" fill="#000814AD"/><path d="M210.4-354.7a8.1 8.1 0 1 1 0-16.2 8.1 8.1 0 0 1 0 16.2" fill="#ffd60aAD"/><path d="M329.3-150.3a8.1 8.1 0 1 1 0-16.3 8.1 8.1 0 0 1 0 16.3" fill="#003566AE"/><path d="M328.8-173.4a8.2 8.2 0 1 1 0-16.4 8.2 8.2 0 0 1 0 16.4" fill="#ffd60aAE"/><path d="M220.4 41.1a8.2 8.2 0 1 1 0-16.3 8.2 8.2 0 0 1 0 16.3" fill="#ffc300AE"/><path d="M322.9-98.6a8.2 8.2 0 1 1 0-16.4 8.2 8.2 0 0 1 0 16.4" fill="#ffd60aAE"/><path d="M-81.8-12.6a8.2 8.2 0 1 1 0-16.5 8.2 8.2 0 0 1 0 16.5" fill="#ffd60aAF"/><path d="M-97-34.4a8.2 8.2 0 1 1 0-16.5 8.2 8.2 0 0 1 0 16.5" fill="#000814AF"/><path d="M205.8 51.5a8.3 8.3 0 1 1 0-16.5 8.3 8.3 0 0 1 0 16.5" fill="#ffc300B0"/><path d="M-4.5-360.6a8.3 8.3 0 1 1 0-16.5 8.3 8.3 0 0 1 0 16.5" fill="#000814B0"/><path d="M81.2 77.2a8.3 8.3 0 1 1 0-16.6 8.3 8.3 0 0 1 0 16.6" fill="#001d3dB1"/><path d="M66.5-384.3a8.3 8.3 0 1 1 0-16.6 8.3 8.3 0 0 1 0 16.6" fill="#ffd60aB2"/><path d="M-56 19.3a8.4 8.4 0 1 1 0-16.8 8.4 8.4 0 0 1 0 16.8" fill="#ffd60aB3"/><path d="M-40.4-340.9a8.4 8.4 0 1 1 0-16.8 8.4 8.4 0 0 1 0 16.8" fill="#001d3dB4"/><path d="M-14.5 50.2a8.5 8.5 0 1 1 0-16.9 8.5 8.5 0 0 1 0 16.9" fill="#001d3dB5"/><path d="M334.9-154a8.5 8.5 0 1 1 0-17 8.5 8.5 0 0 1 0 17" fill="#ffd60aB7"/><path d="M119.8 80.5a8.6 8.6 0 1 1 0-17.2 8.6 8.6 0 0 1 0 17.2" fill="#003566B8"/><path d="M149.8 76.1a8.6 8.6 0 1 1 0-17.2 8.6 8.6 0 0 1 0 17.2" fill="#ffc300B8"/><path d="M291.2-291a8.6 8.6 0 1 1 0-17.2 8.6 8.6 0 0 1 0 17.2" fill="#000814B8"/><path d="M-84.7-300.2a8.7 8.7 0 1 1 0-17.3 8.7 8.7 0 0 1 0 17.3" fill="#001d3dB9"/><path d="M320.7-237.3a8.7 8.7 0 1 1 0-17.5 8.7 8.7 0 0 1 0 17.5" fill="#003566BA"/><path d="M321.2-71.4a8.7 8.7 0 1 1 0-17.5 8.7 8.7 0 0 1 0 17.5" fill="#000814BB"/><path d="M234-348.2a8.8 8.8 0 1 1 0-17.5 8.8 8.8 0 0 1 0 17.5" fill="#003566BB"/><path d="M250.4 28.4a8.8 8.8 0 1 1 0-17.6 8.8 8.8 0 0 1 0 17.6" fill="#ffd60aBC"/><path d="M173.9 70.6a8.8 8.8 0 1 1 0-17.6 8.8 8.8 0 0 1 0 17.6" fill="#001d3dBC"/><path d="M327.2-218.4a8.8 8.8 0 1 1 0-17.6 8.8 8.8 0 0 1 0 17.6" fill="#ffd60aBC"/><path d="M-9.5 55.7a8.8 8.8 0 1 1 0-17.7 8.8 8.8 0 0 1 0 17.7" fill="#000814BD"/><path d="M-62 18.3a8.9 8.9 0 1 1 0-17.8 8.9 8.9 0 0 1 0 17.8" fill="#ffd60aBE"/><path d="M329.3-210.1a8.9 8.9 0 1 1 0-17.9 8.9 8.9 0 0 1 0 17.9" fill="#ffd60aBF"/><path d="M11.5 65.4a8.9 8.9 0 1 1 0-17.9 8.9 8.9 0 0 1 0 17.9" fill="#ffd60aBF"/><path d="M-15.6-358.1a9.2 9.2 0 1 1 0-18.3 9.2 9.2 0 0 1 0 18.3" fill="#001d3dC4"/><path d="M222.3 47.4a9.2 9.2 0 1 1 0-18.3 9.2 9.2 0 0 1 0 18.3" fill="#003566C4"/><path d="M183-373a9.2 9.2 0 1 1 0-18.3 9.2 9.2 0 0 1 0 18.3" fill="#ffd60aC5"/><path d="M334-135.9a9.2 9.2 0 1 1 0-18.4 9.2 9.2 0 0 1 0 18.4" fill="#001d3dC5"/><path d="M130.3 78.4a9.3 9.3 0 1 1 0-18.6 9.3 9.3 0 0 1 0 18.6" fill="#000814C7"/><path d="M290.5-286.2a9.4 9.4 0 1 1 0-18.8 9.4 9.4 0 0 1 0 18.8" fill="#000814C9"/><path d="M75.2-382a9.5 9.5 0 1 1 0-19 9.5 9.5 0 0 1 0 19" fill="#ffc300CC"/><path d="M-125.7-195.6a9.5 9.5 0 1 1 0-19.1 9.5 9.5 0 0 1 0 19.1" fill="#000814CD"/><path d="M-25.1 39.5a9.6 9.6 0 1 1 0-19.1 9.6 9.6 0 0 1 0 19.1" fill="#003566CD"/><path d="M-96.8-35.4a9.6 9.6 0 1 1 0-19.2 9.6 9.6 0 0 1 0 19.2" fill="#000814CD"/><path d="M103.2 76.2a9.6 9.6 0 1 1 0-19.2 9.6 9.6 0 0 1 0 19.2" fill="#003566CD"/><path d="M291.7-278.4a9.6 9.6 0 1 1 0-19.2 9.6 9.6 0 0 1 0 19.2" fill="#001d3dCD"/><path d="M264.1-312.3a9.6 9.6 0 1 1 0-19.2 9.6 9.6 0 0 1 0 19.2" fill="#000814CE"/><path d="M-56.4 12a9.7 9.7 0 1 1 0-19.4 9.7 9.7 0 0 1 0 19.4" fill="#000814CF"/><path d="M-123-119.4a9.7 9.7 0 1 1 0-19.4 9.7 9.7 0 0 1 0 19.4" fill="#003566D1"/><path d="M172.1-364.9a9.8 9.8 0 1 1 0-19.6 9.8 9.8 0 0 1 0 19.6" fill="#000814D2"/><path d="M314-89.1a9.8 9.8 0 1 1 0-19.6 9.8 9.8 0 0 1 0 19.6" fill="#000814D3"/><path d="M302.6-59.7a9.8 9.8 0 1 1 0-19.7 9.8 9.8 0 0 1 0 19.7" fill="#003566D3"/><path d="M-119.6-190.2a9.8 9.8 0 1 1 0-19.7 9.8 9.8 0 0 1 0 19.7" fill="#003566D3"/><path d="M260.5 1.2a9.9 9.9 0 1 1 0-19.7 9.9 9.9 0 0 1 0 19.7" fill="#000814D3"/><path d="M-111.7-214.3a9.9 9.9 0 1 1 0-19.9 9.9 9.9 0 0 1 0 19.9" fill="#000814D5"/><path d="M170.6-361.1a9.9 9.9 0 1 1 0-19.8 9.9 9.9 0 0 1 0 19.8" fill="#001d3dD5"/><path d="M-117.2-180.8a10 10 0 1 1 0-19.9 10 10 0 0 1 0 19.9" fill="#003566D6"/><path d="M208.5-340.3a10 10 0 1 1 0-20 10 10 0 0 1 0 20" fill="#000814D7"/><path d="M316.1-136a10 10 0 1 1 0-20.1 10 10 0 0 1 0 20.1" fill="#ffc300D7"/><path d="M-37.9 14.3a10 10 0 1 1 0-20.1 10 10 0 0 1 0 20.1" fill="#001d3dD8"/><path d="M127.9-366.7a10.1 10.1 0 1 1 0-20.1 10.1 10.1 0 0 1 0 20.1" fill="#ffd60aD8"/><path d="M217.8 28.4a10.1 10.1 0 1 1 0-20.1 10.1 10.1 0 0 1 0 20.1" fill="#001d3dD8"/><path d="M166.5-357.3a10.1 10.1 0 1 1 0-20.1 10.1 10.1 0 0 1 0 20.1" fill="#000814D8"/><path d="M94.8 62.3a10.1 10.1 0 1 1 0-20.1 10.1 10.1 0 0 1 0 20.1" fill="#000814D9"/><path d="M-80.8-265.3a10.1 10.1 0 1 1 0-20.2 10.1 10.1 0 0 1 0 20.2" fill="#001d3dDA"/><path d="M-102.5-96.4a10.2 10.2 0 1 1 0-20.5 10.2 10.2 0 0 1 0 20.5" fill="#ffc300DB"/><path d="M-31.4 10a10.2 10.2 0 1 1 0-20.4 10.2 10.2 0 0 1 0 20.4" fill="#ffc300DC"/><path d="M207.6 25.5a10.3 10.3 0 1 1 0-20.5 10.3 10.3 0 0 1 0 20.5" fill="#001d3dDC"/><path d="M-76.6-52.3a10.4 10.4 0 1 1 0-20.7 10.4 10.4 0 0 1 0 20.7" fill="#001d3dDF"/><path d="M301.7-131.4a10.4 10.4 0 1 1 0-20.8 10.4 10.4 0 0 1 0 20.8" fill="#003566DF"/><path d="M299.8-176.2a10.4 10.4 0 1 1 0-20.8 10.4 10.4 0 0 1 0 20.8" fill="#003566E0"/><path d="M-3.7 19.3a10.4 10.4 0 1 1 0-20.9 10.4 10.4 0 0 1 0 20.9" fill="#001d3dE0"/><path d="M245.3-288a10.5 10.5 0 1 1 0-20.9 10.5 10.5 0 0 1 0 20.9" fill="#001d3dE1"/><path d="M-85.6-213.7a10.5 10.5 0 1 1 0-21.1 10.5 10.5 0 0 1 0 21.1" fill="#001d3dE2"/><path d="M-44.7-20.6a10.5 10.5 0 1 1 0-21 10.5 10.5 0 0 1 0 21" fill="#001d3dE2"/><path d="M2.9-321.3a10.5 10.5 0 1 1 0-21 10.5 10.5 0 0 1 0 21" fill="#003566E2"/><path d="M-53.1-269.6a10.6 10.6 0 1 1 0-21.1 10.6 10.6 0 0 1 0 21.1" fill="#003566E3"/><path d="M73.3 39.1a10.6 10.6 0 1 1 0-21.2 10.6 10.6 0 0 1 0 21.2" fill="#ffd60aE3"/><path d="M-65.9-247.2a10.6 10.6 0 1 1 0-21.2 10.6 10.6 0 0 1 0 21.2" fill="#ffd60aE4"/><path d="M191.9 15.1a10.6 10.6 0 1 1 0-21.2 10.6 10.6 0 0 1 0 21.2" fill="#ffd60aE4"/><path d="M210.6 1.8a10.6 10.6 0 1 1 0-21.2 10.6 10.6 0 0 1 0 21.2" fill="#001d3dE4"/><path d="M-67.5-194.1a10.9 10.9 0 1 1 0-21.8 10.9 10.9 0 0 1 0 21.8" fill="#ffc300EA"/><path d="M168.1-304.9a10.9 10.9 0 1 1 0-21.9 10.9 10.9 0 0 1 0 21.9" fill="#003566EB"/><path d="M135.4-312.6a11 11 0 1 1 0-22 11 11 0 0 1 0 22" fill="#ffc300EC"/><path d="M181.6-291.1a11 11 0 1 1 0-22 11 11 0 0 1 0 22" fill="#ffc300ED"/><path d="M102.8 6.8a11.1 11.1 0 1 1 0-22.1 11.1 11.1 0 0 1 0 22.1" fill="#ffd60aEE"/><path d="M39.3-296.9a11.1 11.1 0 1 1 0-22.1 11.1 11.1 0 0 1 0 22.1" fill="#ffc300EE"/><path d="M-55.9-167.2a11.1 11.1 0 1 1 0-22.2 11.1 11.1 0 0 1 0 22.2" fill="#ffd60aEE"/><path d="M112.4 4.4a11.1 11.1 0 1 1 0-22.1 11.1 11.1 0 0 1 0 22.1" fill="#001d3dEE"/><path d="M246.4-195.3a11.1 11.1 0 1 1 0-22.2 11.1 11.1 0 0 1 0 22.2" fill="#000814EF"/><path d="M-39.8-93.5a11.1 11.1 0 1 1 0-22.3 11.1 11.1 0 0 1 0 22.3" fill="#ffc300EF"/><path d="M-38.6-100a11.2 11.2 0 1 1 0-22.3 11.2 11.2 0 0 1 0 22.3" fill="#003566F0"/><path d="M246.3-164.8a11.2 11.2 0 1 1 0-22.4 11.2 11.2 0 0 1 0 22.4" fill="#001d3dF0"/><path d="M233.5-211.8a11.2 11.2 0 1 1 0-22.3 11.2 11.2 0 0 1 0 22.3" fill="#ffc300F0"/><path d="M-40.9-166a11.2 11.2 0 1 1 0-22.4 11.2 11.2 0 0 1 0 22.4" fill="#001d3dF2"/><path d="M231.4-195.6a11.3 11.3 0 1 1 0-22.5 11.3 11.3 0 0 1 0 22.5" fill="#ffc300F2"/><path d="M182.7-50.4a11.3 11.3 0 1 1 0-22.6 11.3 11.3 0 0 1 0 22.6" fill="#003566F4"/><path d="M220.1-200.1a11.3 11.3 0 1 1 0-22.7 11.3 11.3 0 0 1 0 22.7" fill="#001d3dF4"/><path d="M225.1-120.2a11.3 11.3 0 1 1 0-22.6 11.3 11.3 0 0 1 0 22.6" fill="#001d3dF4"/><path d="M133.7-32.2a11.4 11.4 0 1 1 0-22.8 11.4 11.4 0 0 1 0 22.8" fill="#001d3dF5"/><path d="M72.1-35.1a11.4 11.4 0 1 1 0-22.8 11.4 11.4 0 0 1 0 22.8" fill="#ffd60aF6"/><path d="M39-252.9a11.4 11.4 0 1 1 0-22.9 11.4 11.4 0 0 1 0 22.9" fill="#ffc300F6"/><path d="M139.8-262.5a11.4 11.4 0 1 1 0-22.8 11.4 11.4 0 0 1 0 22.8" fill="#001d3dF6"/><path d="M13.4-78.8a11.5 11.5 0 1 1 0-22.9 11.5 11.5 0 0 1 0 22.9" fill="#003566F7"/><path d="M107-261.2a11.5 11.5 0 1 1 0-22.9 11.5 11.5 0 0 1 0 22.9" fill="#000814F7"/><path d="M181-214.8a11.5 11.5 0 1 1 0-23.1 11.5 11.5 0 0 1 0 23.1" fill="#ffd60aF8"/><path d="M164.5-219.3a11.6 11.6 0 1 1 0-23.1 11.6 11.6 0 0 1 0 23.1" fill="#001d3dF9"/><path d="M160.1-91.6a11.6 11.6 0 1 1 0-23.2 11.6 11.6 0 0 1 0 23.2" fill="#003566FA"/><path d="M102-83.7a11.7 11.7 0 1 1 0-23.4 11.7 11.7 0 0 1 0 23.4" fill="#ffd60aFC"/><path d="M124.4-179.5a11.8 11.8 0 1 1 0-23.5 11.8 11.8 0 0 1 0 23.5" fill="#ffd60aFE"/><path d="M86.4-119.3a11.8 11.8 0 1 1 0-23.6 11.8 11.8 0 0 1 0 23.6" fill="#ffd60aFE"/></g></svg>