<svg width="1200" height="675" viewBox="-500 -500 1200 675" xmlns="http://www.w3.org/2000/svg"><path d="M-500-500h1200v675h-1200z" fill="#000"/><style>.sparkles path{stroke-linecap:round; stroke-width:1}</style><g class="sparkles"><path d="M100-162.5l4-20.5" stroke="#001d3d32"/><path d="M100-162.5l-1.6-29.8" stroke="#ffc30032"/><path d="M100-162.5l18.5-37.7" stroke="#001d3d32"/><path d="M100-162.5l38.7 32.7" stroke="#00081433"/><path d="M100-162.5l-30.8 52.6" stroke="#00081433"/><path d="M100-162.5l-57.2 39.6" stroke="#001d3d34"/><path d="M100-162.5l69.2 51.3" stroke="#ffd60a35"/><path d="M100-162.5l-83.1-24.7" stroke="#00356635"/><path d="M100-162.5l89.3-11.1" stroke="#ffc30035"/><path d="M100-162.5l65.3 63.1" stroke="#001d3d35"/><path d="M100-162.5l41.1 83.9" stroke="#00081436"/><path d="M100-162.5l5.8-101.2" stroke="#00081436"/><path d="M100-162.5l-106.8 8" stroke="#001d3d37"/><path d="M100-162.5l-106.4 26.9" stroke="#ffc30037"/><path d="M100-162.5l109.7 25.6" stroke="#001d3d38"/><path d="M100-162.5l74.5-91.5" stroke="#00356638"/><path d="M100-162.5l100-62.6" stroke="#ffc30038"/><path d="M100-162.5l-92 75.4" stroke="#00356638"/><path d="M100-162.5l-124.6-5.2" stroke="#001d3d39"/><path d="M100-162.5l-21.3 124.5" stroke="#ffd60a39"/><path d="M100-162.5l-118.8-52.2" stroke="#001d3d3A"/><path d="M100-162.5l112.5-68.8" stroke="#ffd60a3A"/><path d="M100-162.5l136.1 10.9" stroke="#0008143B"/><path d="M100-162.5l74.9-114.3" stroke="#001d3d3B"/><path d="M100-162.5l125.4 54.4" stroke="#ffd60a3B"/><path d="M100-162.5l13.1-136.3" stroke="#0008143B"/><path d="M100-162.5l136.2 25.8" stroke="#001d3d3B"/><path d="M100-162.5l-15.4 144.4" stroke="#ffd60a3C"/><path d="M100-162.5l-146.8 46" stroke="#001d3d3E"/><path d="M100-162.5l63.9 140.8" stroke="#001d3d3E"/><path d="M100-162.5l76.9-140.1" stroke="#001d3d3F"/><path d="M100-162.5l137-84.6" stroke="#0008143F"/><path d="M100-162.5l155.7-52.1" stroke="#ffc30040"/><path d="M100-162.5l-163.6 37" stroke="#ffd60a40"/><path d="M100-162.5l148.6-88.1" stroke="#00081441"/><path d="M100-162.5l97.8 147" stroke="#ffd60a42"/><path d="M100-162.5l-95.3 155.8" stroke="#ffd60a44"/><path d="M100-162.5l108.3-147.8" stroke="#ffc30044"/><path d="M100-162.5l-33.5-181.5" stroke="#ffc30044"/><path d="M100-162.5l-182.8 35.5" stroke="#ffd60a45"/><path d="M100-162.5l-186.4-2.6" stroke="#001d3d45"/><path d="M100-162.5l-107.9-152.3" stroke="#ffc30045"/><path d="M100-162.5l173.3 77.2" stroke="#ffd60a46"/><path d="M100-162.5l-143 125.1" stroke="#001d3d46"/><path d="M100-162.5l15.9-191.5" stroke="#001d3d46"/><path d="M100-162.5l139 134.9" stroke="#ffd60a47"/><path d="M100-162.5l187.6 48.9" stroke="#00356647"/><path d="M100-162.5l53.5-186.7" stroke="#00081447"/><path d="M100-162.5l-59.5 185.7" stroke="#ffd60a47"/><path d="M100-162.5l37.6-191.4" stroke="#ffc30047"/><path d="M100-162.5l-179.8 80.7" stroke="#00356648"/><path d="M100-162.5l-122.1-157.5" stroke="#00081449"/><path d="M100-162.5l63.9 189.8" stroke="#00081449"/><path d="M100-162.5l-75.1-186.3" stroke="#00081449"/><path d="M100-162.5l-114.4 169.9" stroke="#ffd60a4B"/><path d="M100-162.5l177.8 103.5" stroke="#0008144B"/><path d="M100-162.5l-10.5-208.7" stroke="#001d3d4C"/><path d="M100-162.5l-0.4 211.5" stroke="#001d3d4D"/><path d="M100-162.5l-160.6-137.8" stroke="#0008144D"/><path d="M100-162.5l-54.3-204.7" stroke="#ffd60a4D"/><path d="M100-162.5l-175.2 126.6" stroke="#ffc3004F"/><path d="M100-162.5l10.5-216.3" stroke="#ffd60a50"/><path d="M100-162.5l196.9-91.9" stroke="#001d3d50"/><path d="M100-162.5l123.7-181.5" stroke="#001d3d51"/><path d="M100-162.5l216.4-38.7" stroke="#00081451"/><path d="M100-162.5l219.9 11.1" stroke="#001d3d51"/><path d="M100-162.5l-205.2-81.5" stroke="#ffc30052"/><path d="M100-162.5l57-213.4" stroke="#00356652"/><path d="M100-162.5l-81.6-208.4" stroke="#00081453"/><path d="M100-162.5l65.5 214.3" stroke="#ffc30054"/><path d="M100-162.5l-177.2-137.7" stroke="#001d3d54"/><path d="M100-162.5l214.9 65.8" stroke="#001d3d54"/><path d="M100-162.5l223.6 36.1" stroke="#001d3d55"/><path d="M100-162.5l-225.2 24.2" stroke="#00081455"/><path d="M100-162.5l-217.9-62.5" stroke="#00356655"/><path d="M100-162.5l221.6-51.3" stroke="#00081456"/><path d="M100-162.5l-58.5-221" stroke="#00356657"/><path d="M100-162.5l-131.8-188.6" stroke="#00081458"/><path d="M100-162.5l204.3 106.3" stroke="#ffd60a58"/><path d="M100-162.5l106.1 204.5" stroke="#ffc30058"/><path d="M100-162.5l144.1 179.8" stroke="#00081458"/><path d="M100-162.5l95-210" stroke="#ffc30059"/><path d="M100-162.5l154.1 171.7" stroke="#ffd60a59"/><path d="M100-162.5l201.3-113.6" stroke="#ffc30059"/><path d="M100-162.5l-232.4-19.4" stroke="#0008145B"/><path d="M100-162.5l-101.6 210.4" stroke="#ffc3005C"/><path d="M100-162.5l40-230.5" stroke="#ffc3005D"/><path d="M100-162.5l165.3-166.6" stroke="#ffc3005E"/><path d="M100-162.5l-221.7 77.2" stroke="#0035665E"/><path d="M100-162.5l-104.8 210.5" stroke="#ffd60a5F"/><path d="M100-162.5l233.1-31.8" stroke="#0035665F"/><path d="M100-162.5l170.7 162.6" stroke="#00081460"/><path d="M100-162.5l-83.9 220.4" stroke="#001d3d61"/><path d="M100-162.5l-46-231.4" stroke="#ffd60a61"/><path d="M100-162.5l12.6 235.6" stroke="#00081461"/><path d="M100-162.5l-231.3 47.3" stroke="#00356662"/><path d="M100-162.5l205.2 116.7" stroke="#ffc30062"/><path d="M100-162.5l131.9 195.8" stroke="#001d3d62"/><path d="M100-162.5l58.8-228.7" stroke="#ffd60a62"/><path d="M100-162.5l-65.7-226.9" stroke="#001d3d63"/><path d="M100-162.5l-5.8-236.2" stroke="#ffd60a63"/><path d="M100-162.5l-150.9 181.8" stroke="#ffc30063"/><path d="M100-162.5l53.7-230.1" stroke="#001d3d63"/><path d="M100-162.5l224 75" stroke="#001d3d63"/><path d="M100-162.5l-78.4 222.9" stroke="#00356664"/><path d="M100-162.5l-236-11" stroke="#ffc30064"/><path d="M100-162.5l236.2 0" stroke="#00356664"/><path d="M100-162.5l-230.4-52" stroke="#00081465"/><path d="M100-162.5l-222.2 80.1" stroke="#ffc30065"/><path d="M100-162.5l-234.3-29.6" stroke="#001d3d65"/><path d="M100-162.5l-230.7-50.1" stroke="#00356665"/><path d="M100-162.5l-2.4-236" stroke="#001d3d66"/><path d="M100-162.5l-116.1-205.3" stroke="#00081466"/><path d="M100-162.5l47.3-230.9" stroke="#ffd60a67"/><path d="M100-162.5l177.8-153.6" stroke="#ffd60a69"/><path d="M100-162.5l23.3 233.4" stroke="#001d3d69"/><path d="M100-162.5l-31.5 232.5" stroke="#ffd60a69"/><path d="M100-162.5l94.9-214.1" stroke="#0035666A"/><path d="M100-162.5l105.3-209" stroke="#0008146A"/><path d="M100-162.5l60.3 224.1" stroke="#0008146D"/><path d="M100-162.5l42 227.8" stroke="#ffc3006D"/><path d="M100-162.5l32.1 229.2" stroke="#0035666E"/><path d="M100-162.5l68.9 220.3" stroke="#ffd60a6E"/><path d="M100-162.5l206.6 98.1" stroke="#ffc30070"/><path d="M100-162.5l167.9-154.6" stroke="#00081470"/><path d="M100-162.5l-211.7-80.1" stroke="#ffc30072"/><path d="M100-162.5l-171 145.5" stroke="#ffd60a73"/><path d="M100-162.5l-52.5 217.8" stroke="#00356673"/><path d="M100-162.5l-214.5-63.5" stroke="#ffd60a74"/><path d="M100-162.5l207 84.7" stroke="#ffd60a74"/><path d="M100-162.5l-202.1 94.6" stroke="#ffc30074"/><path d="M100-162.5l173.6-138.5" stroke="#00356675"/><path d="M100-162.5l-221.5 7.3" stroke="#001d3d75"/><path d="M100-162.5l205.5 82.5" stroke="#00356675"/><path d="M100-162.5l179.8-124.5" stroke="#00081476"/><path d="M100-162.5l-40.9-213.6" stroke="#00356677"/><path d="M100-162.5l144.6-159.8" stroke="#00081478"/><path d="M100-162.5l-215.2-4.5" stroke="#00356678"/><path d="M100-162.5l-84.2 196.5" stroke="#ffc30079"/><path d="M100-162.5l192.8 92.2" stroke="#00081479"/><path d="M100-162.5l139.1-161.6" stroke="#001d3d79"/><path d="M100-162.5l-152-149.5" stroke="#ffc30079"/><path d="M100-162.5l-205.2-53" stroke="#ffd60a7A"/><path d="M100-162.5l192.7 86" stroke="#ffc3007A"/><path d="M100-162.5l-169.2-125.4" stroke="#0035667A"/><path d="M100-162.5l-38.2 201.7" stroke="#001d3d7C"/><path d="M100-162.5l165.4-120.7" stroke="#001d3d7C"/><path d="M100-162.5l66.4 193.4" stroke="#0008147D"/><path d="M100-162.5l-199.9-28.4" stroke="#0008147D"/><path d="M100-162.5l-159.4 120.6" stroke="#001d3d7E"/><path d="M100-162.5l-194.7-41.6" stroke="#ffd60a7E"/><path d="M100-162.5l-189.3 48.9" stroke="#ffd60a80"/><path d="M100-162.5l191-32.6" stroke="#00356680"/><path d="M100-162.5l118.4-147.8" stroke="#00356681"/><path d="M100-162.5l167.3-80.8" stroke="#00081482"/><path d="M100-162.5l112.8 147.5" stroke="#ffc30082"/><path d="M100-162.5l-181.2 40.3" stroke="#ffc30082"/><path d="M100-162.5l-36.7 180.5" stroke="#ffc30083"/><path d="M100-162.5l128.1 132" stroke="#ffd60a83"/><path d="M100-162.5l-172.1-63.9" stroke="#00356683"/><path d="M100-162.5l-155.4 89.6" stroke="#001d3d84"/><path d="M100-162.5l-6.6-172.4" stroke="#ffd60a86"/><path d="M100-162.5l-166.6-43.9" stroke="#ffd60a86"/><path d="M100-162.5l164.1 14.2" stroke="#ffc30087"/><path d="M100-162.5l-142.8-77.9" stroke="#ffc30088"/><path d="M100-162.5l155.6-40.6" stroke="#001d3d88"/><path d="M100-162.5l128.9 94.6" stroke="#00356688"/><path d="M100-162.5l-34.8-138.5" stroke="#ffd60a8B"/><path d="M100-162.5l136-38.1" stroke="#ffd60a8C"/><path d="M100-162.5l-74.7 118.6" stroke="#ffd60a8C"/><path d="M100-162.5l134.7 25.6" stroke="#001d3d8C"/><path d="M100-162.5l21.5-117" stroke="#ffd60a8F"/><path d="M100-162.5l-111.2 9" stroke="#00356690"/><path d="M100-162.5l-81.2 59.4" stroke="#ffd60a91"/><path d="M100-162.5l-61.9-55.9" stroke="#ffc30092"/><path d="M100-162.5l-81.5 7.3" stroke="#00081492"/><path d="M100-162.5l-15.1-70.2" stroke="#00081493"/><path d="M100-162.5l-50.7 7.8" stroke="#001d3d94"/><path d="M100-162.5l15.4 37.9" stroke="#ffc30095"/><path d="M100-162.5l19.1-31.6" stroke="#00356695"/><path d="M100-162.5l3.9-15.7" stroke="#00356695"/></g><g class="sparcs"><path d="M104-177.1a5.9 5.9 0 1 1 0-11.8 5.9 5.9 0 0 1 0 11.8" fill="#ffc3007D"/><path d="M98.4-186.3a5.9 5.9 0 1 1 0-11.9 5.9 5.9 0 0 1 0 11.9" fill="#ffc3007D"/><path d="M118.5-194.3a6 6 0 1 1 0-11.9 6 6 0 0 1 0 11.9" fill="#0035667E"/><path d="M138.7-123.8a6 6 0 1 1 0-12 6 6 0 0 1 0 12" fill="#0008147E"/><path d="M69.2-103.8a6 6 0 1 1 0-12.1 6 6 0 0 1 0 12.1" fill="#001d3d7F"/><path d="M42.8-116.8a6 6 0 1 1 0-12.1 6 6 0 0 1 0 12.1" fill="#0008147F"/><path d="M169.2-105.1a6.1 6.1 0 1 1 0-12.2 6.1 6.1 0 0 1 0 12.2" fill="#ffc30081"/><path d="M16.9-181.1a6.1 6.1 0 1 1 0-12.2 6.1 6.1 0 0 1 0 12.2" fill="#001d3d81"/><path d="M189.3-167.5a6.1 6.1 0 1 1 0-12.2 6.1 6.1 0 0 1 0 12.2" fill="#ffc30081"/><path d="M165.3-93.2a6.1 6.1 0 1 1 0-12.3 6.1 6.1 0 0 1 0 12.3" fill="#00356681"/><path d="M141.1-72.4a6.1 6.1 0 1 1 0-12.3 6.1 6.1 0 0 1 0 12.3" fill="#ffc30082"/><path d="M105.8-257.5a6.2 6.2 0 1 1 0-12.4 6.2 6.2 0 0 1 0 12.4" fill="#ffc30083"/><path d="M-6.8-148.3a6.2 6.2 0 1 1 0-12.5 6.2 6.2 0 0 1 0 12.5" fill="#00356684"/><path d="M-6.4-129.4a6.2 6.2 0 1 1 0-12.5 6.2 6.2 0 0 1 0 12.5" fill="#ffd60a84"/><path d="M209.7-130.7a6.3 6.3 0 1 1 0-12.5 6.3 6.3 0 0 1 0 12.5" fill="#ffd60a84"/><path d="M174.5-247.7a6.3 6.3 0 1 1 0-12.6 6.3 6.3 0 0 1 0 12.6" fill="#ffd60a85"/><path d="M200-218.8a6.3 6.3 0 1 1 0-12.6 6.3 6.3 0 0 1 0 12.6" fill="#00081485"/><path d="M8-80.8a6.3 6.3 0 1 1 0-12.6 6.3 6.3 0 0 1 0 12.6" fill="#00356685"/><path d="M-24.6-161.3a6.4 6.4 0 1 1 0-12.7 6.4 6.4 0 0 1 0 12.7" fill="#00356686"/><path d="M78.7-31.6a6.4 6.4 0 1 1 0-12.7 6.4 6.4 0 0 1 0 12.7" fill="#001d3d87"/><path d="M-18.8-208.3a6.4 6.4 0 1 1 0-12.8 6.4 6.4 0 0 1 0 12.8" fill="#00356687"/><path d="M212.5-224.9a6.4 6.4 0 1 1 0-12.8 6.4 6.4 0 0 1 0 12.8" fill="#ffc30088"/><path d="M236.1-145.2a6.4 6.4 0 1 1 0-12.9 6.4 6.4 0 0 1 0 12.9" fill="#00356688"/><path d="M174.9-270.3a6.5 6.5 0 1 1 0-12.9 6.5 6.5 0 0 1 0 12.9" fill="#ffc30088"/><path d="M225.4-101.7a6.5 6.5 0 1 1 0-12.9 6.5 6.5 0 0 1 0 12.9" fill="#00356688"/><path d="M113.1-292.3a6.5 6.5 0 1 1 0-12.9 6.5 6.5 0 0 1 0 12.9" fill="#00356689"/><path d="M236.2-130.2a6.5 6.5 0 1 1 0-13 6.5 6.5 0 0 1 0 13" fill="#001d3d89"/><path d="M84.6-11.6a6.5 6.5 0 1 1 0-13 6.5 6.5 0 0 1 0 13" fill="#0035668A"/><path d="M-46.8-109.9a6.6 6.6 0 1 1 0-13.2 6.6 6.6 0 0 1 0 13.2" fill="#0008148C"/><path d="M163.9-15.1a6.6 6.6 0 1 1 0-13.3 6.6 6.6 0 0 1 0 13.3" fill="#001d3d8C"/><path d="M176.9-295.9a6.7 6.7 0 1 1 0-13.3 6.7 6.7 0 0 1 0 13.3" fill="#ffc3008E"/><path d="M237-240.4a6.7 6.7 0 1 1 0-13.4 6.7 6.7 0 0 1 0 13.4" fill="#0035668E"/><path d="M255.7-207.9a6.7 6.7 0 1 1 0-13.5 6.7 6.7 0 0 1 0 13.5" fill="#ffc3008F"/><path d="M-63.6-118.7a6.8 6.8 0 1 1 0-13.6 6.8 6.8 0 0 1 0 13.6" fill="#00081490"/><path d="M248.6-243.8a6.8 6.8 0 1 1 0-13.6 6.8 6.8 0 0 1 0 13.6" fill="#ffd60a91"/><path d="M197.8-8.6a6.9 6.9 0 1 1 0-13.8 6.9 6.9 0 0 1 0 13.8" fill="#ffc30092"/><path d="M4.7 0.3a7 7 0 1 1 0-13.9 7 7 0 0 1 0 13.9" fill="#00081494"/><path d="M208.3-303.3a7 7 0 1 1 0-14 7 7 0 0 1 0 14" fill="#ffd60a94"/><path d="M66.5-337a7 7 0 1 1 0-14 7 7 0 0 1 0 14" fill="#ffc30095"/><path d="M-82.8-119.9a7 7 0 1 1 0-14.1 7 7 0 0 1 0 14.1" fill="#001d3d96"/><path d="M-86.4-158.1a7 7 0 1 1 0-14.1 7 7 0 0 1 0 14.1" fill="#00081496"/><path d="M-7.9-307.7a7 7 0 1 1 0-14.1 7 7 0 0 1 0 14.1" fill="#00356696"/><path d="M273.3-78.2a7.1 7.1 0 1 1 0-14.2 7.1 7.1 0 0 1 0 14.2" fill="#00081497"/><path d="M-43-30.3a7.1 7.1 0 1 1 0-14.2 7.1 7.1 0 0 1 0 14.2" fill="#00356697"/><path d="M115.9-346.9a7.1 7.1 0 1 1 0-14.2 7.1 7.1 0 0 1 0 14.2" fill="#ffd60a98"/><path d="M239-20.5a7.2 7.2 0 1 1 0-14.3 7.2 7.2 0 0 1 0 14.3" fill="#00081498"/><path d="M287.6-106.4a7.2 7.2 0 1 1 0-14.3 7.2 7.2 0 0 1 0 14.3" fill="#00081498"/><path d="M153.5-342.1a7.2 7.2 0 1 1 0-14.3 7.2 7.2 0 0 1 0 14.3" fill="#00356699"/><path d="M40.5 30.4a7.2 7.2 0 1 1 0-14.4 7.2 7.2 0 0 1 0 14.4" fill="#001d3d99"/><path d="M137.6-346.7a7.2 7.2 0 1 1 0-14.4 7.2 7.2 0 0 1 0 14.4" fill="#00081499"/><path d="M-79.8-74.6a7.2 7.2 0 1 1 0-14.5 7.2 7.2 0 0 1 0 14.5" fill="#001d3d9A"/><path d="M-22.1-312.7a7.3 7.3 0 1 1 0-14.5 7.3 7.3 0 0 1 0 14.5" fill="#001d3d9B"/><path d="M163.9 34.6a7.3 7.3 0 1 1 0-14.6 7.3 7.3 0 0 1 0 14.6" fill="#ffc3009B"/><path d="M24.9-341.5a7.3 7.3 0 1 1 0-14.6 7.3 7.3 0 0 1 0 14.6" fill="#0035669B"/><path d="M-14.4 14.8a7.4 7.4 0 1 1 0-14.8 7.4 7.4 0 0 1 0 14.8" fill="#0035669D"/><path d="M277.8-51.6a7.4 7.4 0 1 1 0-14.8 7.4 7.4 0 0 1 0 14.8" fill="#001d3d9E"/><path d="M89.5-363.7a7.5 7.5 0 1 1 0-15 7.5 7.5 0 0 1 0 15" fill="#0035669F"/><path d="M99.6 56.6a7.5 7.5 0 1 1 0-15.1 7.5 7.5 0 0 1 0 15.1" fill="#ffc300A1"/><path d="M-60.6-292.8a7.5 7.5 0 1 1 0-15.1 7.5 7.5 0 0 1 0 15.1" fill="#003566A1"/><path d="M45.7-359.6a7.6 7.6 0 1 1 0-15.1 7.6 7.6 0 0 1 0 15.1" fill="#001d3dA1"/><path d="M-75.2-28.3a7.7 7.7 0 1 1 0-15.3 7.7 7.7 0 0 1 0 15.3" fill="#003566A3"/><path d="M110.5-371.1a7.7 7.7 0 1 1 0-15.4 7.7 7.7 0 0 1 0 15.4" fill="#000814A4"/><path d="M296.9-246.7a7.7 7.7 0 1 1 0-15.4 7.7 7.7 0 0 1 0 15.4" fill="#001d3dA4"/><path d="M223.7-336.2a7.8 7.8 0 1 1 0-15.5 7.8 7.8 0 0 1 0 15.5" fill="#001d3dA6"/><path d="M316.4-193.4a7.8 7.8 0 1 1 0-15.5 7.8 7.8 0 0 1 0 15.5" fill="#000814A6"/><path d="M319.9-143.6a7.8 7.8 0 1 1 0-15.6 7.8 7.8 0 0 1 0 15.6" fill="#003566A6"/><path d="M-105.2-236.2a7.8 7.8 0 1 1 0-15.6 7.8 7.8 0 0 1 0 15.6" fill="#000814A6"/><path d="M157-368.1a7.8 7.8 0 1 1 0-15.6 7.8 7.8 0 0 1 0 15.6" fill="#003566A6"/><path d="M18.4-363a7.9 7.9 0 1 1 0-15.8 7.9 7.9 0 0 1 0 15.8" fill="#000814A9"/><path d="M165.5 59.7a7.9 7.9 0 1 1 0-15.8 7.9 7.9 0 0 1 0 15.8" fill="#003566A9"/><path d="M-77.2-292.3a7.9 7.9 0 1 1 0-15.9 7.9 7.9 0 0 1 0 15.9" fill="#ffd60aA9"/><path d="M314.9-88.8a8 8 0 1 1 0-15.9 8 8 0 0 1 0 15.9" fill="#003566A9"/><path d="M323.6-118.4a8 8 0 1 1 0-16.1 8 8 0 0 1 0 16.1" fill="#000814AB"/><path d="M-125.2-130.2a8 8 0 1 1 0-16.1 8 8 0 0 1 0 16.1" fill="#001d3dAB"/><path d="M-117.9-217a8 8 0 1 1 0-16 8 8 0 0 1 0 16" fill="#003566AB"/><path d="M321.6-205.7a8.1 8.1 0 1 1 0-16.2 8.1 8.1 0 0 1 0 16.2" fill="#000814AC"/><path d="M41.5-375.4a8.1 8.1 0 1 1 0-16.2 8.1 8.1 0 0 1 0 16.2" fill="#ffd60aAD"/><path d="M-31.8-342.9a8.2 8.2 0 1 1 0-16.4 8.2 8.2 0 0 1 0 16.4" fill="#003566AF"/><path d="M304.3-48a8.2 8.2 0 1 1 0-16.4 8.2 8.2 0 0 1 0 16.4" fill="#001d3dAF"/><path d="M206.1 50.2a8.2 8.2 0 1 1 0-16.4 8.2 8.2 0 0 1 0 16.4" fill="#001d3dAF"/><path d="M244.1 25.5a8.2 8.2 0 1 1 0-16.4 8.2 8.2 0 0 1 0 16.4" fill="#ffc300AF"/><path d="M195-364.3a8.2 8.2 0 1 1 0-16.4 8.2 8.2 0 0 1 0 16.4" fill="#003566AF"/><path d="M254.1 17.4a8.2 8.2 0 1 1 0-16.4 8.2 8.2 0 0 1 0 16.4" fill="#001d3dB0"/><path d="M301.3-267.8a8.2 8.2 0 1 1 0-16.5 8.2 8.2 0 0 1 0 16.5" fill="#ffd60aB0"/><path d="M-132.4-173.5a8.4 8.4 0 1 1 0-16.8 8.4 8.4 0 0 1 0 16.8" fill="#000814B3"/><path d="M-1.6 56.3a8.4 8.4 0 1 1 0-16.8 8.4 8.4 0 0 1 0 16.8" fill="#ffd60aB4"/><path d="M140-384.6a8.5 8.5 0 1 1 0-16.9 8.5 8.5 0 0 1 0 16.9" fill="#003566B4"/><path d="M265.3-320.6a8.5 8.5 0 1 1 0-17.1 8.5 8.5 0 0 1 0 17.1" fill="#000814B6"/><path d="M-121.7-76.8a8.5 8.5 0 1 1 0-17 8.5 8.5 0 0 1 0 17" fill="#003566B6"/><path d="M-4.8 56.6a8.6 8.6 0 1 1 0-17.1 8.6 8.6 0 0 1 0 17.1" fill="#ffd60aB7"/><path d="M333.1-185.7a8.6 8.6 0 1 1 0-17.2 8.6 8.6 0 0 1 0 17.2" fill="#003566B8"/><path d="M270.7 8.8a8.7 8.7 0 1 1 0-17.3 8.7 8.7 0 0 1 0 17.3" fill="#ffd60aB9"/><path d="M16.1 66.6a8.7 8.7 0 1 1 0-17.4 8.7 8.7 0 0 1 0 17.4" fill="#ffd60aBA"/><path d="M54-385.2a8.7 8.7 0 1 1 0-17.4 8.7 8.7 0 0 1 0 17.4" fill="#ffc300BA"/><path d="M112.6 81.8a8.7 8.7 0 1 1 0-17.4 8.7 8.7 0 0 1 0 17.4" fill="#ffc300BA"/><path d="M-131.3-106.4a8.7 8.7 0 1 1 0-17.5 8.7 8.7 0 0 1 0 17.5" fill="#001d3dBB"/><path d="M305.2-37a8.7 8.7 0 1 1 0-17.5 8.7 8.7 0 0 1 0 17.5" fill="#003566BB"/><path d="M231.9 42.1a8.8 8.8 0 1 1 0-17.5 8.8 8.8 0 0 1 0 17.5" fill="#003566BB"/><path d="M158.8-382.4a8.8 8.8 0 1 1 0-17.5 8.8 8.8 0 0 1 0 17.5" fill="#003566BB"/><path d="M34.3-380.6a8.8 8.8 0 1 1 0-17.7 8.8 8.8 0 0 1 0 17.7" fill="#001d3dBD"/><path d="M94.2-389.8a8.8 8.8 0 1 1 0-17.7 8.8 8.8 0 0 1 0 17.7" fill="#ffc300BD"/><path d="M-50.9 28.1a8.8 8.8 0 1 1 0-17.6 8.8 8.8 0 0 1 0 17.6" fill="#000814BD"/><path d="M153.7-383.7a8.8 8.8 0 1 1 0-17.7 8.8 8.8 0 0 1 0 17.7" fill="#ffd60aBD"/><path d="M324-78.7a8.9 8.9 0 1 1 0-17.7 8.9 8.9 0 0 1 0 17.7" fill="#ffc300BD"/><path d="M21.6 69.2a8.9 8.9 0 1 1 0-17.7 8.9 8.9 0 0 1 0 17.7" fill="#ffd60aBE"/><path d="M-136-164.6a8.9 8.9 0 1 1 0-17.7 8.9 8.9 0 0 1 0 17.7" fill="#ffd60aBE"/><path d="M336.2-153.6a8.9 8.9 0 1 1 0-17.8 8.9 8.9 0 0 1 0 17.8" fill="#ffc300BF"/><path d="M-130.4-205.5a8.9 8.9 0 1 1 0-17.9 8.9 8.9 0 0 1 0 17.9" fill="#ffc300BF"/><path d="M-122.2-73.5a8.9 8.9 0 1 1 0-17.9 8.9 8.9 0 0 1 0 17.9" fill="#ffc300BF"/><path d="M-134.3-183.1a8.9 8.9 0 1 1 0-17.9 8.9 8.9 0 0 1 0 17.9" fill="#000814BF"/><path d="M-130.7-203.6a9 9 0 1 1 0-17.9 9 9 0 0 1 0 17.9" fill="#ffc300C0"/><path d="M97.6-389.5a9 9 0 1 1 0-18 9 9 0 0 1 0 18" fill="#001d3dC0"/><path d="M-16.1-358.7a9 9 0 1 1 0-18.1 9 9 0 0 1 0 18.1" fill="#003566C1"/><path d="M147.3-384.3a9.1 9.1 0 1 1 0-18.1 9.1 9.1 0 0 1 0 18.1" fill="#ffd60aC2"/><path d="M277.8-306.9a9.2 9.2 0 1 1 0-18.4 9.2 9.2 0 0 1 0 18.4" fill="#001d3dC4"/><path d="M123.3 80.2a9.2 9.2 0 1 1 0-18.5 9.2 9.2 0 0 1 0 18.5" fill="#003566C5"/><path d="M68.5 79.2a9.2 9.2 0 1 1 0-18.5 9.2 9.2 0 0 1 0 18.5" fill="#001d3dC5"/><path d="M194.9-367.4a9.2 9.2 0 1 1 0-18.5 9.2 9.2 0 0 1 0 18.5" fill="#000814C6"/><path d="M205.3-362.3a9.3 9.3 0 1 1 0-18.5 9.3 9.3 0 0 1 0 18.5" fill="#000814C6"/><path d="M160.3 71a9.4 9.4 0 1 1 0-18.9 9.4 9.4 0 0 1 0 18.9" fill="#ffd60aCA"/><path d="M142 74.7a9.4 9.4 0 1 1 0-18.9 9.4 9.4 0 0 1 0 18.9" fill="#ffd60aCA"/><path d="M132.1 76.1a9.5 9.5 0 1 1 0-18.9 9.5 9.5 0 0 1 0 18.9" fill="#ffc300CB"/><path d="M168.9 67.3a9.5 9.5 0 1 1 0-19 9.5 9.5 0 0 1 0 19" fill="#000814CB"/><path d="M306.6-54.8a9.6 9.6 0 1 1 0-19.2 9.6 9.6 0 0 1 0 19.2" fill="#001d3dCE"/><path d="M267.9-307.4a9.6 9.6 0 1 1 0-19.3 9.6 9.6 0 0 1 0 19.3" fill="#003566CE"/><path d="M-111.7-232.9a9.7 9.7 0 1 1 0-19.4 9.7 9.7 0 0 1 0 19.4" fill="#000814D0"/><path d="M-71-7.3a9.8 9.8 0 1 1 0-19.5 9.8 9.8 0 0 1 0 19.5" fill="#ffc300D2"/><path d="M47.5 65.1a9.8 9.8 0 1 1 0-19.6 9.8 9.8 0 0 1 0 19.6" fill="#003566D2"/><path d="M-114.5-216.2a9.8 9.8 0 1 1 0-19.6 9.8 9.8 0 0 1 0 19.6" fill="#ffd60aD2"/><path d="M307-67.9a9.8 9.8 0 1 1 0-19.7 9.8 9.8 0 0 1 0 19.7" fill="#ffc300D2"/><path d="M-102.1-58.1a9.8 9.8 0 1 1 0-19.6 9.8 9.8 0 0 1 0 19.6" fill="#ffc300D3"/><path d="M273.6-291.2a9.9 9.9 0 1 1 0-19.7 9.9 9.9 0 0 1 0 19.7" fill="#000814D4"/><path d="M-121.5-145.3a9.9 9.9 0 1 1 0-19.8 9.9 9.9 0 0 1 0 19.8" fill="#ffc300D4"/><path d="M305.5-70.1a9.9 9.9 0 1 1 0-19.8 9.9 9.9 0 0 1 0 19.8" fill="#ffd60aD4"/><path d="M279.8-277a10 10 0 1 1 0-20 10 10 0 0 1 0 20" fill="#001d3dD6"/><path d="M59.1-366.1a10 10 0 1 1 0-20 10 10 0 0 1 0 20" fill="#003566D7"/><path d="M244.6-312.2a10.1 10.1 0 1 1 0-20.2 10.1 10.1 0 0 1 0 20.2" fill="#000814D8"/><path d="M-115.2-156.9a10.1 10.1 0 1 1 0-20.1 10.1 10.1 0 0 1 0 20.1" fill="#000814D8"/><path d="M15.8 44.1a10.1 10.1 0 1 1 0-20.2 10.1 10.1 0 0 1 0 20.2" fill="#000814D9"/><path d="M292.8-60.2a10.1 10.1 0 1 1 0-20.2 10.1 10.1 0 0 1 0 20.2" fill="#ffc300D9"/><path d="M239.1-314a10.1 10.1 0 1 1 0-20.3 10.1 10.1 0 0 1 0 20.3" fill="#001d3dD9"/><path d="M-52-301.9a10.1 10.1 0 1 1 0-20.2 10.1 10.1 0 0 1 0 20.2" fill="#000814DA"/><path d="M-105.2-205.3a10.2 10.2 0 1 1 0-20.4 10.2 10.2 0 0 1 0 20.4" fill="#001d3dDA"/><path d="M292.7-66.3a10.2 10.2 0 1 1 0-20.4 10.2 10.2 0 0 1 0 20.4" fill="#ffc300DB"/><path d="M-69.2-277.7a10.2 10.2 0 1 1 0-20.4 10.2 10.2 0 0 1 0 20.4" fill="#000814DB"/><path d="M61.8 49.5a10.3 10.3 0 1 1 0-20.6 10.3 10.3 0 0 1 0 20.6" fill="#000814DE"/><path d="M265.4-272.9a10.3 10.3 0 1 1 0-20.6 10.3 10.3 0 0 1 0 20.6" fill="#ffd60aDE"/><path d="M166.4 41.2a10.3 10.3 0 1 1 0-20.7 10.3 10.3 0 0 1 0 20.7" fill="#ffc300DE"/><path d="M-99.9-180.5a10.4 10.4 0 1 1 0-20.8 10.4 10.4 0 0 1 0 20.8" fill="#000814DF"/><path d="M-59.4-31.4a10.4 10.4 0 1 1 0-20.9 10.4 10.4 0 0 1 0 20.9" fill="#ffd60aE0"/><path d="M-94.7-193.6a10.4 10.4 0 1 1 0-20.9 10.4 10.4 0 0 1 0 20.9" fill="#001d3dE0"/><path d="M-89.3-103.1a10.5 10.5 0 1 1 0-21 10.5 10.5 0 0 1 0 21" fill="#ffd60aE2"/><path d="M291-184.5a10.5 10.5 0 1 1 0-21.1 10.5 10.5 0 0 1 0 21.1" fill="#ffd60aE3"/><path d="M218.4-299.6a10.6 10.6 0 1 1 0-21.3 10.6 10.6 0 0 1 0 21.3" fill="#003566E4"/><path d="M267.3-232.6a10.7 10.7 0 1 1 0-21.4 10.7 10.7 0 0 1 0 21.4" fill="#003566E6"/><path d="M212.8-4.3a10.7 10.7 0 1 1 0-21.4 10.7 10.7 0 0 1 0 21.4" fill="#000814E6"/><path d="M-81.2-111.5a10.7 10.7 0 1 1 0-21.4 10.7 10.7 0 0 1 0 21.4" fill="#003566E6"/><path d="M63.3 28.7a10.7 10.7 0 1 1 0-21.5 10.7 10.7 0 0 1 0 21.5" fill="#ffd60aE6"/><path d="M228.1-19.7a10.7 10.7 0 1 1 0-21.5 10.7 10.7 0 0 1 0 21.5" fill="#ffc300E6"/><path d="M-72.1-215.7a10.7 10.7 0 1 1 0-21.4 10.7 10.7 0 0 1 0 21.4" fill="#000814E6"/><path d="M-55.4-62.1a10.8 10.8 0 1 1 0-21.6 10.8 10.8 0 0 1 0 21.6" fill="#001d3dE8"/><path d="M93.4-324a10.9 10.9 0 1 1 0-21.7 10.9 10.9 0 0 1 0 21.7" fill="#ffd60aEA"/><path d="M-66.6-195.5a10.9 10.9 0 1 1 0-21.7 10.9 10.9 0 0 1 0 21.7" fill="#ffd60aEA"/><path d="M264.1-137.3a11 11 0 1 1 0-22 11 11 0 0 1 0 22" fill="#ffd60aEC"/><path d="M-42.8-229.4a11 11 0 1 1 0-22 11 11 0 0 1 0 22" fill="#ffc300ED"/><path d="M255.6-192.1a11 11 0 1 1 0-22 11 11 0 0 1 0 22" fill="#001d3dED"/><path d="M228.9-56.9a11 11 0 1 1 0-22 11 11 0 0 1 0 22" fill="#000814ED"/><path d="M65.2-289.8a11.2 11.2 0 1 1 0-22.4 11.2 11.2 0 0 1 0 22.4" fill="#003566F1"/><path d="M236-189.4a11.2 11.2 0 1 1 0-22.4 11.2 11.2 0 0 1 0 22.4" fill="#000814F2"/><path d="M25.3-32.7a11.2 11.2 0 1 1 0-22.5 11.2 11.2 0 0 1 0 22.5" fill="#001d3dF2"/><path d="M234.7-125.6a11.3 11.3 0 1 1 0-22.5 11.3 11.3 0 0 1 0 22.5" fill="#003566F2"/><path d="M121.5-268.1a11.4 11.4 0 1 1 0-22.8 11.4 11.4 0 0 1 0 22.8" fill="#003566F6"/><path d="M-11.2-142a11.5 11.5 0 1 1 0-22.9 11.5 11.5 0 0 1 0 22.9" fill="#003566F7"/><path d="M18.8-91.5a11.5 11.5 0 1 1 0-23.1 11.5 11.5 0 0 1 0 23.1" fill="#003566F8"/><path d="M38.1-206.8a11.6 11.6 0 1 1 0-23.2 11.6 11.6 0 0 1 0 23.2" fill="#000814FA"/><path d="M18.5-143.6a11.6 11.6 0 1 1 0-23.2 11.6 11.6 0 0 1 0 23.2" fill="#003566FA"/><path d="M84.9-221a11.7 11.7 0 1 1 0-23.3 11.7 11.7 0 0 1 0 23.3" fill="#003566FB"/><path d="M49.3-143a11.7 11.7 0 1 1 0-23.5 11.7 11.7 0 0 1 0 23.5" fill="#001d3dFD"/><path d="M115.4-112.9a11.8 11.8 0 1 1 0-23.5 11.8 11.8 0 0 1 0 23.5" fill="#000814FE"/><path d="M119.1-182.3a11.8 11.8 0 1 1 0-23.6 11.8 11.8 0 0 1 0 23.6" fill="#ffc300FE"/><path d="M103.9-166.4a11.8 11.8 0 1 1 0-23.6 11.8 11.8 0 0 1 0 23.6" fill="#000814FE"/></g></svg>