<svg width="1200" height="675" viewBox="-500 -500 1200 675" xmlns="http://www.w3.org/2000/svg"><path d="M-500-500h1200v675h-1200z" fill="#000"/><style>.sparkles path{stroke-linecap:round; stroke-width:1}</style><g class="sparkles"><path d="M100-162.5l-3.8 9" stroke="#005bbb32"/><path d="M100-162.5l-29.6 11.5" stroke="#c2e1ff32"/><path d="M100-162.5l24.7 23" stroke="#c2e1ff32"/><path d="M100-162.5l-36.3 4.7" stroke="#005bbb32"/><path d="M100-162.5l39.4 21.6" stroke="#fff32"/><path d="M100-162.5l57-20.2" stroke="#c2e1ff33"/><path d="M100-162.5l64.6 16.4" stroke="#c2e1ff34"/><path d="M100-162.5l45.9 59.8" stroke="#005bbb34"/><path d="M100-162.5l-1.9-90" stroke="#fff50035"/><path d="M100-162.5l-88.9-28.7" stroke="#fff36"/><path d="M100-162.5l76.9-62.5" stroke="#005bbb36"/><path d="M100-162.5l-17.1-114.1" stroke="#005bbb38"/><path d="M100-162.5l-3.3-118.3" stroke="#005bbb38"/><path d="M100-162.5l-78.5-91.2" stroke="#005bbb38"/><path d="M100-162.5l105.4-69.1" stroke="#005bbb39"/><path d="M100-162.5l-80 104.3" stroke="#fff3A"/><path d="M100-162.5l-3.4 136.8" stroke="#c2e1ff3B"/><path d="M100-162.5l-109 83.6" stroke="#fff5003B"/><path d="M100-162.5l126.4 59" stroke="#fff5003B"/><path d="M100-162.5l-68.9 121.5" stroke="#c2e1ff3B"/><path d="M100-162.5l-110.4 86.8" stroke="#fff3B"/><path d="M100-162.5l-109.3 93.8" stroke="#005bbb3C"/><path d="M100-162.5l10.3 148.7" stroke="#c2e1ff3D"/><path d="M100-162.5l-133.1 86.2" stroke="#fff5003E"/><path d="M100-162.5l127.6-95.9" stroke="#fff5003F"/><path d="M100-162.5l148.3 59.2" stroke="#c2e1ff3F"/><path d="M100-162.5l4.5-163.7" stroke="#c2e1ff3F"/><path d="M100-162.5l52.5-155.3" stroke="#005bbb40"/><path d="M100-162.5l-46.7 170.8" stroke="#c2e1ff42"/><path d="M100-162.5l-85.2 157.2" stroke="#005bbb43"/><path d="M100-162.5l60.4 169.4" stroke="#c2e1ff43"/><path d="M100-162.5l-174.4 53.8" stroke="#fff50044"/><path d="M100-162.5l-132.5 127.6" stroke="#c2e1ff44"/><path d="M100-162.5l172 72.4" stroke="#005bbb45"/><path d="M100-162.5l167-85.5" stroke="#005bbb45"/><path d="M100-162.5l107.3-156" stroke="#fff50046"/><path d="M100-162.5l129.4 139.9" stroke="#c2e1ff46"/><path d="M100-162.5l-191.1-2.6" stroke="#fff46"/><path d="M100-162.5l-116.4-151.8" stroke="#005bbb46"/><path d="M100-162.5l-168.6 102.8" stroke="#005bbb48"/><path d="M100-162.5l101.3 170.4" stroke="#fff48"/><path d="M100-162.5l108.5 170.3" stroke="#005bbb4A"/><path d="M100-162.5l147.5-140.8" stroke="#fff5004A"/><path d="M100-162.5l203.9 47.1" stroke="#005bbb4C"/><path d="M100-162.5l139.8 156.8" stroke="#fff5004D"/><path d="M100-162.5l179.2 115.6" stroke="#c2e1ff4E"/><path d="M100-162.5l-181.3 117.3" stroke="#fff4F"/><path d="M100-162.5l-21.2 218.3" stroke="#005bbb51"/><path d="M100-162.5l186-116.7" stroke="#fff51"/><path d="M100-162.5l-220.7 0.8" stroke="#c2e1ff52"/><path d="M100-162.5l132.5 176.8" stroke="#c2e1ff52"/><path d="M100-162.5l-109.4 192.7" stroke="#005bbb52"/><path d="M100-162.5l-154.5-159.5" stroke="#fff50052"/><path d="M100-162.5l-167.1-149.3" stroke="#fff54"/><path d="M100-162.5l-194.3-112.9" stroke="#c2e1ff54"/><path d="M100-162.5l-224.2-21" stroke="#fff54"/><path d="M100-162.5l-156.3 162.7" stroke="#fff55"/><path d="M100-162.5l79.7 211.1" stroke="#fff50055"/><path d="M100-162.5l-31.7-223.9" stroke="#fff50055"/><path d="M100-162.5l138.8-179.3" stroke="#005bbb55"/><path d="M100-162.5l-227.8 12.4" stroke="#c2e1ff56"/><path d="M100-162.5l90.2 209.6" stroke="#fff50057"/><path d="M100-162.5l-69.3 217.6" stroke="#005bbb57"/><path d="M100-162.5l-196.9 115.9" stroke="#fff50057"/><path d="M100-162.5l230 0" stroke="#005bbb58"/><path d="M100-162.5l205.6 103.6" stroke="#005bbb58"/><path d="M100-162.5l220.8-69.9" stroke="#005bbb5A"/><path d="M100-162.5l-184.5-140.4" stroke="#005bbb5A"/><path d="M100-162.5l149.3-178.1" stroke="#005bbb5A"/><path d="M100-162.5l-21.1-233.3" stroke="#c2e1ff5D"/><path d="M100-162.5l219.3-83" stroke="#fff5005D"/><path d="M100-162.5l180.9 149.3" stroke="#005bbb5E"/><path d="M100-162.5l-220-82.2" stroke="#c2e1ff5E"/><path d="M100-162.5l175.4-156.8" stroke="#fff5005F"/><path d="M100-162.5l205.6 115" stroke="#fff50060"/><path d="M100-162.5l-168.8-164.6" stroke="#005bbb60"/><path d="M100-162.5l229.1-56.1" stroke="#fff50060"/><path d="M100-162.5l230.9 48.9" stroke="#c2e1ff61"/><path d="M100-162.5l152-180.5" stroke="#fff61"/><path d="M100-162.5l83.1-221.1" stroke="#fff62"/><path d="M100-162.5l216.7 94.1" stroke="#fff64"/><path d="M100-162.5l-191.6 138.2" stroke="#fff50064"/><path d="M100-162.5l-235.7 13.6" stroke="#005bbb65"/><path d="M100-162.5l-143.2 187.5" stroke="#005bbb66"/><path d="M100-162.5l-232.5 39.6" stroke="#fff66"/><path d="M100-162.5l-115.7 205.5" stroke="#fff66"/><path d="M100-162.5l213.8-99.3" stroke="#fff67"/><path d="M100-162.5l-3.3-235.6" stroke="#fff67"/><path d="M100-162.5l221.8-79.4" stroke="#c2e1ff67"/><path d="M100-162.5l6.6 235.4" stroke="#fff50067"/><path d="M100-162.5l-233.9 25" stroke="#005bbb68"/><path d="M100-162.5l227.8 56.9" stroke="#fff69"/><path d="M100-162.5l-232.7 30.2" stroke="#fff69"/><path d="M100-162.5l-205.5-112.7" stroke="#c2e1ff6A"/><path d="M100-162.5l98.6-212.4" stroke="#c2e1ff6A"/><path d="M100-162.5l124.4-198.2" stroke="#fff6A"/><path d="M100-162.5l207.4 108.1" stroke="#fff6B"/><path d="M100-162.5l37.3 230.8" stroke="#fff6B"/><path d="M100-162.5l171.2 158.7" stroke="#c2e1ff6B"/><path d="M100-162.5l-48.5-228.3" stroke="#c2e1ff6B"/><path d="M100-162.5l-232.8-5.7" stroke="#c2e1ff6C"/><path d="M100-162.5l49.7-227.3" stroke="#fff6C"/><path d="M100-162.5l80.9-218.1" stroke="#fff5006C"/><path d="M100-162.5l-224.6 60.5" stroke="#c2e1ff6C"/><path d="M100-162.5l124.9-196" stroke="#fff6D"/><path d="M100-162.5l-146.6 179.7" stroke="#005bbb6D"/><path d="M100-162.5l-231.5 4.6" stroke="#fff5006D"/><path d="M100-162.5l-226.9 43.7" stroke="#c2e1ff6E"/><path d="M100-162.5l19.5-229.6" stroke="#005bbb6F"/><path d="M100-162.5l-84.3-214.1" stroke="#c2e1ff6F"/><path d="M100-162.5l39.8 225.9" stroke="#005bbb6F"/><path d="M100-162.5l-46.3 224.7" stroke="#005bbb6F"/><path d="M100-162.5l-229.1 6.1" stroke="#c2e1ff70"/><path d="M100-162.5l229 8.4" stroke="#fff70"/><path d="M100-162.5l203.4-104.5" stroke="#fff70"/><path d="M100-162.5l-228 12.8" stroke="#fff50070"/><path d="M100-162.5l-96.5-206.7" stroke="#c2e1ff70"/><path d="M100-162.5l-223.3 43.7" stroke="#fff71"/><path d="M100-162.5l-78.7 212" stroke="#005bbb72"/><path d="M100-162.5l-220.7-29" stroke="#005bbb74"/><path d="M100-162.5l-159.9-151.7" stroke="#fff75"/><path d="M100-162.5l206.1-76.2" stroke="#fff76"/><path d="M100-162.5l-73.1 206.4" stroke="#fff50076"/><path d="M100-162.5l-130.3-171.5" stroke="#005bbb78"/><path d="M100-162.5l214.6-17.1" stroke="#005bbb78"/><path d="M100-162.5l7.4-213.6" stroke="#fff50079"/><path d="M100-162.5l-212.6 2.6" stroke="#005bbb79"/><path d="M100-162.5l-161.5-137.6" stroke="#fff50079"/><path d="M100-162.5l162.5-136" stroke="#005bbb7A"/><path d="M100-162.5l144.4-154.2" stroke="#fff7A"/><path d="M100-162.5l68.5 199" stroke="#fff7A"/><path d="M100-162.5l75.3-195.3" stroke="#c2e1ff7B"/><path d="M100-162.5l-62.8 199.6" stroke="#005bbb7B"/><path d="M100-162.5l-192.7 77.9" stroke="#005bbb7B"/><path d="M100-162.5l-192.3-75" stroke="#c2e1ff7C"/><path d="M100-162.5l184 87.9" stroke="#fff5007D"/><path d="M100-162.5l154.3-116.1" stroke="#fff80"/><path d="M100-162.5l153.9-115.8" stroke="#fff80"/><path d="M100-162.5l25.3-190.7" stroke="#005bbb81"/><path d="M100-162.5l-142.5 127.7" stroke="#fff81"/><path d="M100-162.5l75.8 174.5" stroke="#c2e1ff81"/><path d="M100-162.5l-187.1 24.1" stroke="#fff82"/><path d="M100-162.5l-167.4-85" stroke="#fff50082"/><path d="M100-162.5l28.2 185.5" stroke="#fff50082"/><path d="M100-162.5l180.5-50.9" stroke="#fff50082"/><path d="M100-162.5l-80.6 166.6" stroke="#fff83"/><path d="M100-162.5l165-58.7" stroke="#c2e1ff85"/><path d="M100-162.5l-147.9 93.3" stroke="#fff85"/><path d="M100-162.5l-31.8 171.5" stroke="#fff50085"/><path d="M100-162.5l-35.2-170.7" stroke="#fff50085"/><path d="M100-162.5l171.5-31.2" stroke="#fff50085"/><path d="M100-162.5l149.2-88" stroke="#fff50086"/><path d="M100-162.5l-83.1 150.2" stroke="#005bbb86"/><path d="M100-162.5l-20.9-169.3" stroke="#c2e1ff86"/><path d="M100-162.5l-34.8 164.5" stroke="#c2e1ff87"/><path d="M100-162.5l-137.4 96.8" stroke="#005bbb87"/><path d="M100-162.5l-159.8 50.4" stroke="#005bbb87"/><path d="M100-162.5l166.4-11.8" stroke="#fff50087"/><path d="M100-162.5l-38-161.2" stroke="#fff87"/><path d="M100-162.5l-94.7-130" stroke="#fff50088"/><path d="M100-162.5l-50.9-151.4" stroke="#fff88"/><path d="M100-162.5l-140.7 74.6" stroke="#005bbb88"/><path d="M100-162.5l-138.6 76" stroke="#c2e1ff89"/><path d="M100-162.5l-141-50.9" stroke="#005bbb8A"/><path d="M100-162.5l148.4-2.9" stroke="#005bbb8A"/><path d="M100-162.5l113.1 87.3" stroke="#fff8B"/><path d="M100-162.5l76.5 117.9" stroke="#fff5008C"/><path d="M100-162.5l-36.9-131.8" stroke="#c2e1ff8C"/><path d="M100-162.5l71-100.4" stroke="#005bbb8E"/><path d="M100-162.5l100.2-61.4" stroke="#fff8F"/><path d="M100-162.5l-45.8-102.7" stroke="#fff5008F"/><path d="M100-162.5l-10.7-110" stroke="#fff90"/><path d="M100-162.5l107.8-23.9" stroke="#fff50090"/><path d="M100-162.5l-29.5 99.7" stroke="#fff90"/><path d="M100-162.5l71.3 41.8" stroke="#fff92"/><path d="M100-162.5l-75.3 15.5" stroke="#fff50093"/><path d="M100-162.5l73-5.6" stroke="#c2e1ff93"/><path d="M100-162.5l-45.2-47.3" stroke="#fff94"/><path d="M100-162.5l-50.7-31.9" stroke="#005bbb94"/><path d="M100-162.5l43.7-22.1" stroke="#fff50094"/><path d="M100-162.5l18.4 1.7" stroke="#005bbb95"/></g><g class="sparcs"><path d="M96.2-147.6a5.9 5.9 0 1 1 0-11.8 5.9 5.9 0 0 1 0 11.8" fill="#c2e1ff7D"/><path d="M70.4-145.1a5.9 5.9 0 1 1 0-11.9 5.9 5.9 0 0 1 0 11.9" fill="#c2e1ff7D"/><path d="M124.7-133.6a5.9 5.9 0 1 1 0-11.9 5.9 5.9 0 0 1 0 11.9" fill="#005bbb7D"/><path d="M63.7-151.9a5.9 5.9 0 1 1 0-11.9 5.9 5.9 0 0 1 0 11.9" fill="#fff5007D"/><path d="M139.4-134.9a6 6 0 1 1 0-11.9 6 6 0 0 1 0 11.9" fill="#fff7E"/><path d="M157-176.7a6 6 0 1 1 0-12 6 6 0 0 1 0 12" fill="#005bbb7F"/><path d="M164.6-140.1a6 6 0 1 1 0-12.1 6 6 0 0 1 0 12.1" fill="#fff5007F"/><path d="M145.9-96.6a6.1 6.1 0 1 1 0-12.1 6.1 6.1 0 0 1 0 12.1" fill="#fff50080"/><path d="M98.1-246.3a6.1 6.1 0 1 1 0-12.3 6.1 6.1 0 0 1 0 12.3" fill="#fff50081"/><path d="M11.1-185a6.1 6.1 0 1 1 0-12.3 6.1 6.1 0 0 1 0 12.3" fill="#fff50082"/><path d="M176.9-218.8a6.2 6.2 0 1 1 0-12.4 6.2 6.2 0 0 1 0 12.4" fill="#005bbb82"/><path d="M82.9-270.3a6.3 6.3 0 1 1 0-12.6 6.3 6.3 0 0 1 0 12.6" fill="#fff50085"/><path d="M96.7-274.5a6.3 6.3 0 1 1 0-12.6 6.3 6.3 0 0 1 0 12.6" fill="#fff50085"/><path d="M21.5-247.4a6.3 6.3 0 1 1 0-12.6 6.3 6.3 0 0 1 0 12.6" fill="#fff50086"/><path d="M205.4-225.2a6.4 6.4 0 1 1 0-12.7 6.4 6.4 0 0 1 0 12.7" fill="#c2e1ff87"/><path d="M20-51.8a6.4 6.4 0 1 1 0-12.8 6.4 6.4 0 0 1 0 12.8" fill="#005bbb87"/><path d="M96.6-19.2a6.5 6.5 0 1 1 0-12.9 6.5 6.5 0 0 1 0 12.9" fill="#005bbb89"/><path d="M-9-72.5a6.5 6.5 0 1 1 0-12.9 6.5 6.5 0 0 1 0 12.9" fill="#fff89"/><path d="M226.4-97a6.5 6.5 0 1 1 0-13 6.5 6.5 0 0 1 0 13" fill="#fff50089"/><path d="M31.1-34.5a6.5 6.5 0 1 1 0-13 6.5 6.5 0 0 1 0 13" fill="#005bbb89"/><path d="M-10.4-69.2a6.5 6.5 0 1 1 0-13 6.5 6.5 0 0 1 0 13" fill="#005bbb89"/><path d="M-9.3-62.2a6.5 6.5 0 1 1 0-13 6.5 6.5 0 0 1 0 13" fill="#fff5008A"/><path d="M110.3-7.2a6.6 6.6 0 1 1 0-13.2 6.6 6.6 0 0 1 0 13.2" fill="#fff8B"/><path d="M-33.1-69.7a6.7 6.7 0 1 1 0-13.3 6.7 6.7 0 0 1 0 13.3" fill="#fff8D"/><path d="M227.6-251.7a6.7 6.7 0 1 1 0-13.4 6.7 6.7 0 0 1 0 13.4" fill="#005bbb8E"/><path d="M248.3-96.6a6.7 6.7 0 1 1 0-13.3 6.7 6.7 0 0 1 0 13.3" fill="#fff8E"/><path d="M104.5-319.5a6.7 6.7 0 1 1 0-13.4 6.7 6.7 0 0 1 0 13.4" fill="#fff5008F"/><path d="M152.5-311.1a6.7 6.7 0 1 1 0-13.5 6.7 6.7 0 0 1 0 13.5" fill="#fff8F"/><path d="M53.3 15.2a6.9 6.9 0 1 1 0-13.8 6.9 6.9 0 0 1 0 13.8" fill="#c2e1ff92"/><path d="M14.8 1.7a6.9 6.9 0 1 1 0-13.9 6.9 6.9 0 0 1 0 13.9" fill="#fff50093"/><path d="M160.4 13.8a6.9 6.9 0 1 1 0-13.9 6.9 6.9 0 0 1 0 13.9" fill="#fff93"/><path d="M-74.4-101.7a7 7 0 1 1 0-14 7 7 0 0 1 0 14" fill="#fff50094"/><path d="M-32.5-27.8a7 7 0 1 1 0-14.1 7 7 0 0 1 0 14.1" fill="#005bbb95"/><path d="M272-83a7 7 0 1 1 0-14.1 7 7 0 0 1 0 14.1" fill="#005bbb96"/><path d="M267-240.9a7.1 7.1 0 1 1 0-14.1 7.1 7.1 0 0 1 0 14.1" fill="#c2e1ff96"/><path d="M207.3-311.4a7.1 7.1 0 1 1 0-14.2 7.1 7.1 0 0 1 0 14.2" fill="#c2e1ff97"/><path d="M229.4-15.5a7.1 7.1 0 1 1 0-14.2 7.1 7.1 0 0 1 0 14.2" fill="#c2e1ff97"/><path d="M-91.1-157.9a7.1 7.1 0 1 1 0-14.3 7.1 7.1 0 0 1 0 14.3" fill="#fff50097"/><path d="M-16.4-307.2a7.1 7.1 0 1 1 0-14.3 7.1 7.1 0 0 1 0 14.3" fill="#005bbb97"/><path d="M-68.6-52.5a7.2 7.2 0 1 1 0-14.4 7.2 7.2 0 0 1 0 14.4" fill="#fff9A"/><path d="M201.3 15.1a7.3 7.3 0 1 1 0-14.5 7.3 7.3 0 0 1 0 14.5" fill="#fff9A"/><path d="M208.5 15.1a7.3 7.3 0 1 1 0-14.6 7.3 7.3 0 0 1 0 14.6" fill="#fff9C"/><path d="M247.5-295.9a7.4 7.4 0 1 1 0-14.7 7.4 7.4 0 0 1 0 14.7" fill="#fff9D"/><path d="M303.9-107.9a7.5 7.5 0 1 1 0-15 7.5 7.5 0 0 1 0 15" fill="#fff9F"/><path d="M239.8 1.8a7.5 7.5 0 1 1 0-15 7.5 7.5 0 0 1 0 15" fill="#c2e1ffA0"/><path d="M279.2-39.3a7.6 7.6 0 1 1 0-15.2 7.6 7.6 0 0 1 0 15.2" fill="#fff500A2"/><path d="M-81.3-37.6a7.7 7.7 0 1 1 0-15.3 7.7 7.7 0 0 1 0 15.3" fill="#fffA3"/><path d="M78.8 63.6a7.8 7.8 0 1 1 0-15.6 7.8 7.8 0 0 1 0 15.6" fill="#c2e1ffA5"/><path d="M286-271.4a7.8 7.8 0 1 1 0-15.6 7.8 7.8 0 0 1 0 15.6" fill="#fff500A6"/><path d="M-120.7-153.9a7.8 7.8 0 1 1 0-15.6 7.8 7.8 0 0 1 0 15.6" fill="#005bbbA6"/><path d="M232.5 22.1a7.8 7.8 0 1 1 0-15.6 7.8 7.8 0 0 1 0 15.6" fill="#fffA7"/><path d="M-9.4 38a7.8 7.8 0 1 1 0-15.7 7.8 7.8 0 0 1 0 15.7" fill="#fffA7"/><path d="M-54.5-314.1a7.9 7.9 0 1 1 0-15.7 7.9 7.9 0 0 1 0 15.7" fill="#fffA7"/><path d="M-67.1-303.9a7.9 7.9 0 1 1 0-15.8 7.9 7.9 0 0 1 0 15.8" fill="#005bbbA9"/><path d="M-94.3-267.5a7.9 7.9 0 1 1 0-15.9 7.9 7.9 0 0 1 0 15.9" fill="#fffA9"/><path d="M-124.2-175.5a8 8 0 1 1 0-16 8 8 0 0 1 0 16" fill="#c2e1ffAA"/><path d="M-56.3 8.2a8 8 0 1 1 0-15.9 8 8 0 0 1 0 15.9" fill="#005bbbAA"/><path d="M179.7 56.6a8 8 0 1 1 0-15.9 8 8 0 0 1 0 15.9" fill="#c2e1ffAA"/><path d="M68.3-378.4a8 8 0 1 1 0-16 8 8 0 0 1 0 16" fill="#005bbbAB"/><path d="M238.8-333.8a8 8 0 1 1 0-16 8 8 0 0 1 0 16" fill="#fffAB"/><path d="M-127.8-142.1a8.1 8.1 0 1 1 0-16.1 8.1 8.1 0 0 1 0 16.1" fill="#005bbbAD"/><path d="M190.2 55.2a8.1 8.1 0 1 1 0-16.2 8.1 8.1 0 0 1 0 16.2" fill="#c2e1ffAD"/><path d="M30.7 63.2a8.1 8.1 0 1 1 0-16.2 8.1 8.1 0 0 1 0 16.2" fill="#fff500AD"/><path d="M-96.9-38.5a8.1 8.1 0 1 1 0-16.2 8.1 8.1 0 0 1 0 16.2" fill="#005bbbAD"/><path d="M330-154.3a8.2 8.2 0 1 1 0-16.4 8.2 8.2 0 0 1 0 16.4" fill="#fffAF"/><path d="M305.6-50.7a8.2 8.2 0 1 1 0-16.4 8.2 8.2 0 0 1 0 16.4" fill="#fffAF"/><path d="M320.8-224.2a8.3 8.3 0 1 1 0-16.5 8.3 8.3 0 0 1 0 16.5" fill="#fff500B1"/><path d="M-84.5-294.6a8.3 8.3 0 1 1 0-16.5 8.3 8.3 0 0 1 0 16.5" fill="#fff500B1"/><path d="M249.3-332.3a8.3 8.3 0 1 1 0-16.6 8.3 8.3 0 0 1 0 16.6" fill="#fffB2"/><path d="M78.9-387.4a8.5 8.5 0 1 1 0-16.9 8.5 8.5 0 0 1 0 16.9" fill="#fff500B5"/><path d="M319.3-237a8.5 8.5 0 1 1 0-17 8.5 8.5 0 0 1 0 17" fill="#fff500B5"/><path d="M280.9-4.7a8.5 8.5 0 1 1 0-17 8.5 8.5 0 0 1 0 17" fill="#fffB6"/><path d="M-120-236.2a8.5 8.5 0 1 1 0-17.1 8.5 8.5 0 0 1 0 17.1" fill="#c2e1ffB6"/><path d="M275.4-310.7a8.6 8.6 0 1 1 0-17.2 8.6 8.6 0 0 1 0 17.2" fill="#005bbbB7"/><path d="M305.6-38.9a8.6 8.6 0 1 1 0-17.3 8.6 8.6 0 0 1 0 17.3" fill="#fff500B9"/><path d="M-68.8-318.4a8.7 8.7 0 1 1 0-17.4 8.7 8.7 0 0 1 0 17.4" fill="#005bbbB9"/><path d="M329.1-209.9a8.7 8.7 0 1 1 0-17.4 8.7 8.7 0 0 1 0 17.4" fill="#005bbbBA"/><path d="M330.9-104.9a8.7 8.7 0 1 1 0-17.5 8.7 8.7 0 0 1 0 17.5" fill="#005bbbBB"/><path d="M252-334.3a8.7 8.7 0 1 1 0-17.5 8.7 8.7 0 0 1 0 17.5" fill="#005bbbBB"/><path d="M183.1-374.8a8.8 8.8 0 1 1 0-17.6 8.8 8.8 0 0 1 0 17.6" fill="#c2e1ffBC"/><path d="M316.7-59.5a8.9 8.9 0 1 1 0-17.8 8.9 8.9 0 0 1 0 17.8" fill="#c2e1ffBE"/><path d="M-91.6-15.4a8.9 8.9 0 1 1 0-17.8 8.9 8.9 0 0 1 0 17.8" fill="#c2e1ffBE"/><path d="M-135.7-139.9a9 9 0 1 1 0-18 9 9 0 0 1 0 18" fill="#fffC0"/><path d="M-43.2 34.1a9 9 0 1 1 0-18.1 9 9 0 0 1 0 18.1" fill="#c2e1ffC1"/><path d="M-132.5-113.9a9 9 0 1 1 0-18.1 9 9 0 0 1 0 18.1" fill="#c2e1ffC1"/><path d="M-15.7 52.1a9 9 0 1 1 0-18.1 9 9 0 0 1 0 18.1" fill="#fff500C1"/><path d="M313.8-252.8a9.1 9.1 0 1 1 0-18.1 9.1 9.1 0 0 1 0 18.1" fill="#005bbbC2"/><path d="M96.7-389.1a9.1 9.1 0 1 1 0-18.1 9.1 9.1 0 0 1 0 18.1" fill="#005bbbC2"/><path d="M321.8-232.9a9.1 9.1 0 1 1 0-18.1 9.1 9.1 0 0 1 0 18.1" fill="#005bbbC2"/><path d="M106.6 82a9.1 9.1 0 1 1 0-18.2 9.1 9.1 0 0 1 0 18.2" fill="#005bbbC3"/><path d="M-133.9-128.3a9.1 9.1 0 1 1 0-18.3 9.1 9.1 0 0 1 0 18.3" fill="#c2e1ffC3"/><path d="M327.8-96.5a9.2 9.2 0 1 1 0-18.3 9.2 9.2 0 0 1 0 18.3" fill="#005bbbC5"/><path d="M-132.7-123.1a9.2 9.2 0 1 1 0-18.4 9.2 9.2 0 0 1 0 18.4" fill="#fffC5"/><path d="M-105.5-266a9.2 9.2 0 1 1 0-18.4 9.2 9.2 0 0 1 0 18.4" fill="#005bbbC6"/><path d="M198.6-365.6a9.3 9.3 0 1 1 0-18.5 9.3 9.3 0 0 1 0 18.5" fill="#fffC6"/><path d="M224.4-351.4a9.3 9.3 0 1 1 0-18.6 9.3 9.3 0 0 1 0 18.6" fill="#c2e1ffC6"/><path d="M307.4-45.1a9.3 9.3 0 1 1 0-18.6 9.3 9.3 0 0 1 0 18.6" fill="#fffC7"/><path d="M137.3 77.6a9.3 9.3 0 1 1 0-18.6 9.3 9.3 0 0 1 0 18.6" fill="#005bbbC7"/><path d="M271.2 5.6a9.3 9.3 0 1 1 0-18.7 9.3 9.3 0 0 1 0 18.7" fill="#c2e1ffC7"/><path d="M51.5-381.5a9.3 9.3 0 1 1 0-18.6 9.3 9.3 0 0 1 0 18.6" fill="#fff500C8"/><path d="M-132.8-158.8a9.4 9.4 0 1 1 0-18.7 9.4 9.4 0 0 1 0 18.7" fill="#fffC8"/><path d="M149.7-380.5a9.4 9.4 0 1 1 0-18.7 9.4 9.4 0 0 1 0 18.7" fill="#fff500C9"/><path d="M180.9-371.3a9.4 9.4 0 1 1 0-18.7 9.4 9.4 0 0 1 0 18.7" fill="#fffC9"/><path d="M-124.6-92.6a9.4 9.4 0 1 1 0-18.8 9.4 9.4 0 0 1 0 18.8" fill="#005bbbC9"/><path d="M224.9-349.1a9.4 9.4 0 1 1 0-18.7 9.4 9.4 0 0 1 0 18.7" fill="#005bbbC9"/><path d="M-46.6 26.6a9.4 9.4 0 1 1 0-18.8 9.4 9.4 0 0 1 0 18.8" fill="#fffCA"/><path d="M-131.5-148.5a9.4 9.4 0 1 1 0-18.9 9.4 9.4 0 0 1 0 18.9" fill="#c2e1ffCA"/><path d="M-126.9-109.3a9.5 9.5 0 1 1 0-19 9.5 9.5 0 0 1 0 19" fill="#005bbbCB"/><path d="M119.5-382.6a9.5 9.5 0 1 1 0-19 9.5 9.5 0 0 1 0 19" fill="#fff500CC"/><path d="M15.7-367.1a9.5 9.5 0 1 1 0-19.1 9.5 9.5 0 0 1 0 19.1" fill="#fffCC"/><path d="M139.8 73a9.6 9.6 0 1 1 0-19.1 9.6 9.6 0 0 1 0 19.1" fill="#fffCD"/><path d="M53.7 71.7a9.6 9.6 0 1 1 0-19.1 9.6 9.6 0 0 1 0 19.1" fill="#c2e1ffCD"/><path d="M-129.1-146.8a9.6 9.6 0 1 1 0-19.2 9.6 9.6 0 0 1 0 19.2" fill="#c2e1ffCD"/><path d="M329-144.6a9.6 9.6 0 1 1 0-19.1 9.6 9.6 0 0 1 0 19.1" fill="#005bbbCD"/><path d="M303.4-257.3a9.6 9.6 0 1 1 0-19.3 9.6 9.6 0 0 1 0 19.3" fill="#fffCE"/><path d="M-128-140.1a9.6 9.6 0 1 1 0-19.2 9.6 9.6 0 0 1 0 19.2" fill="#005bbbCE"/><path d="M3.5-359.6a9.6 9.6 0 1 1 0-19.3 9.6 9.6 0 0 1 0 19.3" fill="#fffCE"/><path d="M-123.3-109.2a9.7 9.7 0 1 1 0-19.3 9.7 9.7 0 0 1 0 19.3" fill="#fff500CF"/><path d="M21.3 59.2a9.7 9.7 0 1 1 0-19.4 9.7 9.7 0 0 1 0 19.4" fill="#fff500D0"/><path d="M-120.7-181.7a9.8 9.8 0 1 1 0-19.7 9.8 9.8 0 0 1 0 19.7" fill="#fff500D3"/><path d="M-59.9-304.3a9.9 9.9 0 1 1 0-19.8 9.9 9.9 0 0 1 0 19.8" fill="#005bbbD5"/><path d="M306.1-228.7a9.9 9.9 0 1 1 0-19.9 9.9 9.9 0 0 1 0 19.9" fill="#fffD5"/><path d="M26.9 53.8a10 10 0 1 1 0-19.9 10 10 0 0 1 0 19.9" fill="#c2e1ffD6"/><path d="M-30.3-323.9a10.1 10.1 0 1 1 0-20.2 10.1 10.1 0 0 1 0 20.2" fill="#fffD8"/><path d="M314.6-169.5a10.1 10.1 0 1 1 0-20.2 10.1 10.1 0 0 1 0 20.2" fill="#fff500D8"/><path d="M107.4-366a10.1 10.1 0 1 1 0-20.3 10.1 10.1 0 0 1 0 20.3" fill="#fffD9"/><path d="M-112.6-149.8a10.1 10.1 0 1 1 0-20.3 10.1 10.1 0 0 1 0 20.3" fill="#fffDA"/><path d="M-61.5-290a10.2 10.2 0 1 1 0-20.3 10.2 10.2 0 0 1 0 20.3" fill="#fff500DA"/><path d="M262.5-288.4a10.2 10.2 0 1 1 0-20.3 10.2 10.2 0 0 1 0 20.3" fill="#c2e1ffDA"/><path d="M244.4-306.5a10.2 10.2 0 1 1 0-20.3 10.2 10.2 0 0 1 0 20.3" fill="#fff500DB"/><path d="M168.5 46.7a10.2 10.2 0 1 1 0-20.4 10.2 10.2 0 0 1 0 20.4" fill="#005bbbDB"/><path d="M175.3-347.6a10.2 10.2 0 1 1 0-20.4 10.2 10.2 0 0 1 0 20.4" fill="#fffDC"/><path d="M37.2 47.4a10.2 10.2 0 1 1 0-20.5 10.2 10.2 0 0 1 0 20.5" fill="#c2e1ffDC"/><path d="M-92.7-74.4a10.3 10.3 0 1 1 0-20.5 10.3 10.3 0 0 1 0 20.5" fill="#c2e1ffDC"/><path d="M-92.3-227.2a10.3 10.3 0 1 1 0-20.6 10.3 10.3 0 0 1 0 20.6" fill="#c2e1ffDD"/><path d="M284-64.3a10.4 10.4 0 1 1 0-20.7 10.4 10.4 0 0 1 0 20.7" fill="#005bbbDE"/><path d="M254.3-268.1a10.6 10.6 0 1 1 0-21.1 10.6 10.6 0 0 1 0 21.1" fill="#fffE3"/><path d="M253.9-267.7a10.6 10.6 0 1 1 0-21.1 10.6 10.6 0 0 1 0 21.1" fill="#c2e1ffE3"/><path d="M125.3-342.6a10.6 10.6 0 1 1 0-21.2 10.6 10.6 0 0 1 0 21.2" fill="#c2e1ffE3"/><path d="M-42.5-24.2a10.6 10.6 0 1 1 0-21.2 10.6 10.6 0 0 1 0 21.2" fill="#c2e1ffE4"/><path d="M175.8 22.6a10.6 10.6 0 1 1 0-21.2 10.6 10.6 0 0 1 0 21.2" fill="#005bbbE4"/><path d="M-87.1-127.8a10.6 10.6 0 1 1 0-21.3 10.6 10.6 0 0 1 0 21.3" fill="#fff500E5"/><path d="M-67.4-236.8a10.7 10.7 0 1 1 0-21.3 10.7 10.7 0 0 1 0 21.3" fill="#fff500E5"/><path d="M128.2 33.6a10.7 10.7 0 1 1 0-21.3 10.7 10.7 0 0 1 0 21.3" fill="#005bbbE5"/><path d="M280.5-202.7a10.7 10.7 0 1 1 0-21.3 10.7 10.7 0 0 1 0 21.3" fill="#fff500E5"/><path d="M19.4 14.8a10.7 10.7 0 1 1 0-21.4 10.7 10.7 0 0 1 0 21.4" fill="#005bbbE6"/><path d="M265-210.3a10.8 10.8 0 1 1 0-21.7 10.8 10.8 0 0 1 0 21.7" fill="#fff500E9"/><path d="M-47.9-58.4a10.8 10.8 0 1 1 0-21.7 10.8 10.8 0 0 1 0 21.7" fill="#fffE9"/><path d="M68.2 19.9a10.9 10.9 0 1 1 0-21.7 10.9 10.9 0 0 1 0 21.7" fill="#005bbbE9"/><path d="M64.8-322.4a10.9 10.9 0 1 1 0-21.7 10.9 10.9 0 0 1 0 21.7" fill="#fffE9"/><path d="M271.5-182.9a10.9 10.9 0 1 1 0-21.7 10.9 10.9 0 0 1 0 21.7" fill="#fff500E9"/><path d="M249.2-239.6a10.9 10.9 0 1 1 0-21.8 10.9 10.9 0 0 1 0 21.8" fill="#005bbbEA"/><path d="M16.9-1.5a10.9 10.9 0 1 1 0-21.7 10.9 10.9 0 0 1 0 21.7" fill="#005bbbEA"/><path d="M79.1-320.9a10.9 10.9 0 1 1 0-21.8 10.9 10.9 0 0 1 0 21.8" fill="#fffEA"/><path d="M65.2 12.9a10.9 10.9 0 1 1 0-21.9 10.9 10.9 0 0 1 0 21.9" fill="#c2e1ffEB"/><path d="M-37.4-54.8a10.9 10.9 0 1 1 0-21.9 10.9 10.9 0 0 1 0 21.9" fill="#fff500EB"/><path d="M-59.8-101.2a10.9 10.9 0 1 1 0-21.8 10.9 10.9 0 0 1 0 21.8" fill="#fff500EB"/><path d="M266.4-163.3a11 11 0 1 1 0-21.9 11 11 0 0 1 0 21.9" fill="#c2e1ffEC"/><path d="M62-312.7a11 11 0 1 1 0-22 11 11 0 0 1 0 22" fill="#fff500EC"/><path d="M5.3-281.5a11 11 0 1 1 0-22 11 11 0 0 1 0 22" fill="#c2e1ffED"/><path d="M49.1-302.8a11 11 0 1 1 0-22.1 11 11 0 0 1 0 22.1" fill="#005bbbED"/><path d="M-40.7-76.9a11 11 0 1 1 0-22.1 11 11 0 0 1 0 22.1" fill="#fff500EE"/><path d="M-38.6-75.5a11.1 11.1 0 1 1 0-22.1 11.1 11.1 0 0 1 0 22.1" fill="#c2e1ffEE"/><path d="M-41-202.2a11.1 11.1 0 1 1 0-22.3 11.1 11.1 0 0 1 0 22.3" fill="#fffF0"/><path d="M248.4-154.3a11.2 11.2 0 1 1 0-22.3 11.2 11.2 0 0 1 0 22.3" fill="#fffF0"/><path d="M213.1-64a11.2 11.2 0 1 1 0-22.4 11.2 11.2 0 0 1 0 22.4" fill="#fff500F1"/><path d="M176.5-33.4a11.2 11.2 0 1 1 0-22.5 11.2 11.2 0 0 1 0 22.5" fill="#c2e1ffF2"/><path d="M63.1-283a11.3 11.3 0 1 1 0-22.6 11.3 11.3 0 0 1 0 22.6" fill="#fff500F2"/><path d="M171-251.5a11.4 11.4 0 1 1 0-22.8 11.4 11.4 0 0 1 0 22.8" fill="#c2e1ffF5"/><path d="M200.2-212.5a11.4 11.4 0 1 1 0-22.8 11.4 11.4 0 0 1 0 22.8" fill="#c2e1ffF6"/><path d="M54.2-253.8a11.5 11.5 0 1 1 0-22.9 11.5 11.5 0 0 1 0 22.9" fill="#005bbbF7"/><path d="M89.3-261a11.5 11.5 0 1 1 0-22.9 11.5 11.5 0 0 1 0 22.9" fill="#fffF7"/><path d="M207.8-175a11.5 11.5 0 1 1 0-22.9 11.5 11.5 0 0 1 0 22.9" fill="#fff500F7"/><path d="M70.5-51.3a11.5 11.5 0 1 1 0-23.1 11.5 11.5 0 0 1 0 23.1" fill="#fffF8"/><path d="M171.3-109.1a11.6 11.6 0 1 1 0-23.2 11.6 11.6 0 0 1 0 23.2" fill="#c2e1ffFA"/><path d="M24.7-135.3a11.7 11.7 0 1 1 0-23.3 11.7 11.7 0 0 1 0 23.3" fill="#c2e1ffFB"/><path d="M173-156.4a11.7 11.7 0 1 1 0-23.3 11.7 11.7 0 0 1 0 23.3" fill="#c2e1ffFB"/><path d="M54.8-198.1a11.7 11.7 0 1 1 0-23.4 11.7 11.7 0 0 1 0 23.4" fill="#fff500FC"/><path d="M49.3-182.7a11.7 11.7 0 1 1 0-23.4 11.7 11.7 0 0 1 0 23.4" fill="#fff500FC"/><path d="M143.7-172.9a11.7 11.7 0 1 1 0-23.5 11.7 11.7 0 0 1 0 23.5" fill="#005bbbFD"/><path d="M118.4-148.9a11.8 11.8 0 1 1 0-23.7 11.8 11.8 0 0 1 0 23.7" fill="#c2e1ffFE"/></g></svg>