<svg width="1200" height="675" viewBox="-500 -500 1200 675" xmlns="http://www.w3.org/2000/svg"><path d="M-500-500h1200v675h-1200z" fill="#000"/><style>.sparkles path{stroke-linecap:round; stroke-width:1}</style><g class="sparkles"><path d="M100-162.5l23.1-17.1" stroke="#005bbb32"/><path d="M100-162.5l27.9-17.5" stroke="#fff32"/><path d="M100-162.5l38.1 16.7" stroke="#c2e1ff32"/><path d="M100-162.5l55.6-14.5" stroke="#fff33"/><path d="M100-162.5l-41.3 51.7" stroke="#fff50034"/><path d="M100-162.5l46.5 54.6" stroke="#c2e1ff34"/><path d="M100-162.5l15.8 80.1" stroke="#c2e1ff35"/><path d="M100-162.5l64.4 55.8" stroke="#fff50035"/><path d="M100-162.5l94.8-6.5" stroke="#fff36"/><path d="M100-162.5l86.8-48.1" stroke="#c2e1ff36"/><path d="M100-162.5l-7.6 104.8" stroke="#c2e1ff37"/><path d="M100-162.5l-19.7 110.3" stroke="#fff37"/><path d="M100-162.5l-92.7 64.2" stroke="#c2e1ff38"/><path d="M100-162.5l112.4-18.2" stroke="#fff50038"/><path d="M100-162.5l-34.6 116.3" stroke="#005bbb39"/><path d="M100-162.5l-113.2 52.1" stroke="#005bbb39"/><path d="M100-162.5l10.1-125.1" stroke="#c2e1ff39"/><path d="M100-162.5l35-121" stroke="#005bbb39"/><path d="M100-162.5l52.1-122.4" stroke="#fff5003A"/><path d="M100-162.5l-17.9-135.6" stroke="#fff5003B"/><path d="M100-162.5l108.4 85.5" stroke="#005bbb3B"/><path d="M100-162.5l-115.2 78.2" stroke="#fff5003B"/><path d="M100-162.5l90.2-110.6" stroke="#fff5003C"/><path d="M100-162.5l104.1-101.9" stroke="#fff3C"/><path d="M100-162.5l144.9 18.6" stroke="#005bbb3C"/><path d="M100-162.5l135.7-59.6" stroke="#005bbb3D"/><path d="M100-162.5l-107.8-120.8" stroke="#c2e1ff3F"/><path d="M100-162.5l-160.7-25.7" stroke="#005bbb3F"/><path d="M100-162.5l-164.1-19.9" stroke="#005bbb40"/><path d="M100-162.5l128.7-114.3" stroke="#fff50041"/><path d="M100-162.5l35.5-172.6" stroke="#fff50042"/><path d="M100-162.5l38.8 177.4" stroke="#fff44"/><path d="M100-162.5l145.1-117.6" stroke="#fff50045"/><path d="M100-162.5l189.3-13.2" stroke="#c2e1ff46"/><path d="M100-162.5l-148.3-125.5" stroke="#fff50047"/><path d="M100-162.5l139.1 142.6" stroke="#fff49"/><path d="M100-162.5l-200.6 5.4" stroke="#c2e1ff49"/><path d="M100-162.5l-37 199" stroke="#c2e1ff4A"/><path d="M100-162.5l124.7 160.1" stroke="#005bbb4A"/><path d="M100-162.5l144.2-145.6" stroke="#fff4B"/><path d="M100-162.5l89.9 184.2" stroke="#005bbb4B"/><path d="M100-162.5l5.1-206.9" stroke="#005bbb4B"/><path d="M100-162.5l152.7 143.4" stroke="#c2e1ff4C"/><path d="M100-162.5l193.2-81.6" stroke="#005bbb4C"/><path d="M100-162.5l-131.3-163.6" stroke="#005bbb4D"/><path d="M100-162.5l33 207.2" stroke="#fff5004D"/><path d="M100-162.5l186.3 103.7" stroke="#fff4E"/><path d="M100-162.5l-212.6-39.6" stroke="#fff4F"/><path d="M100-162.5l141.7-166.8" stroke="#005bbb51"/><path d="M100-162.5l-152.4 158.3" stroke="#fff51"/><path d="M100-162.5l107.7-192.2" stroke="#fff51"/><path d="M100-162.5l141.9 174" stroke="#005bbb54"/><path d="M100-162.5l186.3-127.6" stroke="#005bbb55"/><path d="M100-162.5l172.7 147.9" stroke="#005bbb56"/><path d="M100-162.5l177.3 142.7" stroke="#c2e1ff56"/><path d="M100-162.5l190.1 125.4" stroke="#fff50056"/><path d="M100-162.5l-206.1 101.9" stroke="#005bbb58"/><path d="M100-162.5l230.1 0" stroke="#fff50058"/><path d="M100-162.5l174.4 150.4" stroke="#fff58"/><path d="M100-162.5l-66.4 220.6" stroke="#fff50058"/><path d="M100-162.5l-152-173.3" stroke="#c2e1ff59"/><path d="M100-162.5l-5.3-231.6" stroke="#005bbb5A"/><path d="M100-162.5l181.7-144.6" stroke="#c2e1ff5A"/><path d="M100-162.5l-114.8-201.9" stroke="#c2e1ff5A"/><path d="M100-162.5l-168.4-160.5" stroke="#fff5005B"/><path d="M100-162.5l-132.4 191.7" stroke="#c2e1ff5B"/><path d="M100-162.5l-188.5-139" stroke="#fff5005D"/><path d="M100-162.5l125.3 198.3" stroke="#005bbb5E"/><path d="M100-162.5l-170.9 160.7" stroke="#fff5005E"/><path d="M100-162.5l111.7-206.3" stroke="#fff5E"/><path d="M100-162.5l234.6 10" stroke="#005bbb5E"/><path d="M100-162.5l-148.8-181.7" stroke="#c2e1ff5E"/><path d="M100-162.5l-120.1 202" stroke="#c2e1ff5E"/><path d="M100-162.5l215.9-93.7" stroke="#005bbb5F"/><path d="M100-162.5l159.1-173.7" stroke="#fff50060"/><path d="M100-162.5l223 76.8" stroke="#c2e1ff61"/><path d="M100-162.5l-225.3 69.9" stroke="#005bbb61"/><path d="M100-162.5l-230-53" stroke="#005bbb61"/><path d="M100-162.5l-229-57.5" stroke="#005bbb62"/><path d="M100-162.5l221-83.2" stroke="#fff50062"/><path d="M100-162.5l-232.8 40.2" stroke="#005bbb63"/><path d="M100-162.5l3.3 236.2" stroke="#fff64"/><path d="M100-162.5l-137.9 191.8" stroke="#fff50064"/><path d="M100-162.5l-121.5-202.5" stroke="#005bbb64"/><path d="M100-162.5l-196.7-130.8" stroke="#fff50064"/><path d="M100-162.5l-235 23.6" stroke="#fff50065"/><path d="M100-162.5l195.2 132.9" stroke="#005bbb65"/><path d="M100-162.5l-196.6 130.1" stroke="#005bbb67"/><path d="M100-162.5l217.2-91.5" stroke="#fff50067"/><path d="M100-162.5l-218-89" stroke="#fff50068"/><path d="M100-162.5l-123.2-200.5" stroke="#fff50068"/><path d="M100-162.5l219.7-84.3" stroke="#fff50068"/><path d="M100-162.5l139.2 189.6" stroke="#c2e1ff68"/><path d="M100-162.5l-167.3 163.9" stroke="#fff5006A"/><path d="M100-162.5l215.9-90.6" stroke="#fff6A"/><path d="M100-162.5l228.1-50.7" stroke="#fff6B"/><path d="M100-162.5l163.6 166.6" stroke="#fff5006B"/><path d="M100-162.5l68.1 223.4" stroke="#fff6B"/><path d="M100-162.5l68.9 222.7" stroke="#fff6C"/><path d="M100-162.5l15.8 232.3" stroke="#fff5006C"/><path d="M100-162.5l230.7 24.1" stroke="#fff5006D"/><path d="M100-162.5l-229.3-32.6" stroke="#005bbb6D"/><path d="M100-162.5l148.5 177.1" stroke="#fff5006E"/><path d="M100-162.5l-215.8 80" stroke="#005bbb6F"/><path d="M100-162.5l174.5-149.9" stroke="#c2e1ff6F"/><path d="M100-162.5l-169.5 155.2" stroke="#fff6F"/><path d="M100-162.5l42.4 225.6" stroke="#c2e1ff6F"/><path d="M100-162.5l-220.8-60.7" stroke="#005bbb70"/><path d="M100-162.5l-197.4-114.2" stroke="#fff71"/><path d="M100-162.5l19.8 227.1" stroke="#fff50071"/><path d="M100-162.5l208.9-86.9" stroke="#005bbb72"/><path d="M100-162.5l-188.3-122.7" stroke="#c2e1ff73"/><path d="M100-162.5l223.5-23.4" stroke="#005bbb73"/><path d="M100-162.5l130.6 177.5" stroke="#005bbb76"/><path d="M100-162.5l58.7 212.4" stroke="#fff76"/><path d="M100-162.5l58.1-212.3" stroke="#fff50076"/><path d="M100-162.5l121.8-183.1" stroke="#fff50076"/><path d="M100-162.5l-141.8 168" stroke="#005bbb76"/><path d="M100-162.5l-99.1 194.8" stroke="#fff76"/><path d="M100-162.5l44.5 213.5" stroke="#005bbb77"/><path d="M100-162.5l95.1-196.1" stroke="#005bbb77"/><path d="M100-162.5l100.6-192.2" stroke="#c2e1ff77"/><path d="M100-162.5l0.9 215.6" stroke="#fff50078"/><path d="M100-162.5l53.1 208.2" stroke="#c2e1ff78"/><path d="M100-162.5l-196.4-86.8" stroke="#fff50078"/><path d="M100-162.5l-143.7 158.5" stroke="#fff79"/><path d="M100-162.5l-213.3 8.3" stroke="#fff50079"/><path d="M100-162.5l22.8 212.1" stroke="#fff50079"/><path d="M100-162.5l74.1-199" stroke="#c2e1ff79"/><path d="M100-162.5l-191-87.3" stroke="#c2e1ff7A"/><path d="M100-162.5l74.5 195.8" stroke="#fff5007B"/><path d="M100-162.5l-172.7 117.1" stroke="#fff7B"/><path d="M100-162.5l-83.5-188.4" stroke="#c2e1ff7C"/><path d="M100-162.5l81.4 188.7" stroke="#fff5007C"/><path d="M100-162.5l203.2 18" stroke="#fff7D"/><path d="M100-162.5l-200.1-19.6" stroke="#fff5007E"/><path d="M100-162.5l81.5-180.9" stroke="#c2e1ff7F"/><path d="M100-162.5l-196 17.6" stroke="#c2e1ff7F"/><path d="M100-162.5l-181.6-72.1" stroke="#c2e1ff80"/><path d="M100-162.5l104.9-157.8" stroke="#fff50081"/><path d="M100-162.5l-176.3-65.4" stroke="#fff50082"/><path d="M100-162.5l178.3 55" stroke="#005bbb82"/><path d="M100-162.5l-111.8 149.3" stroke="#c2e1ff82"/><path d="M100-162.5l126.6-136.6" stroke="#005bbb82"/><path d="M100-162.5l-115.5 144" stroke="#005bbb83"/><path d="M100-162.5l97.2-154.7" stroke="#fff83"/><path d="M100-162.5l-163-76.3" stroke="#005bbb84"/><path d="M100-162.5l94.1 151.1" stroke="#fff84"/><path d="M100-162.5l-70.8 160.1" stroke="#c2e1ff85"/><path d="M100-162.5l169.5 32.9" stroke="#c2e1ff86"/><path d="M100-162.5l142.4 93.1" stroke="#fff86"/><path d="M100-162.5l-39.1-165.1" stroke="#c2e1ff86"/><path d="M100-162.5l-12.5-167.4" stroke="#c2e1ff87"/><path d="M100-162.5l111.8-124.1" stroke="#c2e1ff87"/><path d="M100-162.5l-57 154.3" stroke="#fff87"/><path d="M100-162.5l-58.9 152.7" stroke="#c2e1ff88"/><path d="M100-162.5l-161.4-15.9" stroke="#c2e1ff88"/><path d="M100-162.5l-56.5-143.9" stroke="#005bbb89"/><path d="M100-162.5l113.5-103.1" stroke="#005bbb8A"/><path d="M100-162.5l-39.1-148" stroke="#fff5008A"/><path d="M100-162.5l144.9 38.7" stroke="#005bbb8A"/><path d="M100-162.5l119.1 87.6" stroke="#c2e1ff8A"/><path d="M100-162.5l-141.5-21.5" stroke="#fff8B"/><path d="M100-162.5l-127.8 44.7" stroke="#fff5008C"/><path d="M100-162.5l-108.3 75.1" stroke="#fff5008D"/><path d="M100-162.5l48.9-119.1" stroke="#c2e1ff8D"/><path d="M100-162.5l-112.7 42" stroke="#fff5008F"/><path d="M100-162.5l-110-18.2" stroke="#fff90"/><path d="M100-162.5l-55.7-91.6" stroke="#fff90"/><path d="M100-162.5l-93.1-35.4" stroke="#005bbb91"/><path d="M100-162.5l-67.7 69.8" stroke="#fff50091"/><path d="M100-162.5l-16.3 94.3" stroke="#005bbb91"/><path d="M100-162.5l91.3 28.9" stroke="#fff91"/><path d="M100-162.5l65.7 62.6" stroke="#fff50092"/><path d="M100-162.5l81.4 24.1" stroke="#fff92"/><path d="M100-162.5l-62.6-32.1" stroke="#005bbb93"/><path d="M100-162.5l-33.4 59.2" stroke="#005bbb93"/><path d="M100-162.5l18.7-45" stroke="#c2e1ff94"/><path d="M100-162.5l3.6 47.5" stroke="#fff50094"/><path d="M100-162.5l21.6 37.4" stroke="#005bbb95"/><path d="M100-162.5l-4.1 23.4" stroke="#fff50095"/></g><g class="sparcs"><path d="M123.1-173.7a5.9 5.9 0 1 1 0-11.9 5.9 5.9 0 0 1 0 11.9" fill="#c2e1ff7D"/><path d="M127.9-174a5.9 5.9 0 1 1 0-11.9 5.9 5.9 0 0 1 0 11.9" fill="#fff5007D"/><path d="M138.1-139.9a6 6 0 1 1 0-11.9 6 6 0 0 1 0 11.9" fill="#fff7E"/><path d="M155.6-171a6 6 0 1 1 0-12 6 6 0 0 1 0 12" fill="#c2e1ff7E"/><path d="M58.7-104.7a6 6 0 1 1 0-12.1 6 6 0 0 1 0 12.1" fill="#fff5007F"/><path d="M146.5-101.9a6 6 0 1 1 0-12.1 6 6 0 0 1 0 12.1" fill="#fff50080"/><path d="M115.8-76.3a6.1 6.1 0 1 1 0-12.1 6.1 6.1 0 0 1 0 12.1" fill="#fff81"/><path d="M164.4-100.5a6.1 6.1 0 1 1 0-12.3 6.1 6.1 0 0 1 0 12.3" fill="#c2e1ff81"/><path d="M194.8-162.8a6.2 6.2 0 1 1 0-12.3 6.2 6.2 0 0 1 0 12.3" fill="#fff82"/><path d="M186.8-204.4a6.2 6.2 0 1 1 0-12.3 6.2 6.2 0 0 1 0 12.3" fill="#005bbb83"/><path d="M92.4-51.5a6.2 6.2 0 1 1 0-12.4 6.2 6.2 0 0 1 0 12.4" fill="#005bbb83"/><path d="M80.3-45.9a6.3 6.3 0 1 1 0-12.6 6.3 6.3 0 0 1 0 12.6" fill="#fff50084"/><path d="M7.3-92a6.3 6.3 0 1 1 0-12.5 6.3 6.3 0 0 1 0 12.5" fill="#c2e1ff84"/><path d="M212.4-174.4a6.3 6.3 0 1 1 0-12.6 6.3 6.3 0 0 1 0 12.6" fill="#005bbb85"/><path d="M65.4-39.8a6.3 6.3 0 1 1 0-12.7 6.3 6.3 0 0 1 0 12.7" fill="#fff86"/><path d="M-13.2-104a6.4 6.4 0 1 1 0-12.7 6.4 6.4 0 0 1 0 12.7" fill="#fff50086"/><path d="M110.1-281.2a6.4 6.4 0 1 1 0-12.8 6.4 6.4 0 0 1 0 12.8" fill="#005bbb86"/><path d="M135-277.2a6.4 6.4 0 1 1 0-12.7 6.4 6.4 0 0 1 0 12.7" fill="#fff87"/><path d="M152.1-278.5a6.4 6.4 0 1 1 0-12.8 6.4 6.4 0 0 1 0 12.8" fill="#c2e1ff88"/><path d="M82.1-291.6a6.5 6.5 0 1 1 0-12.9 6.5 6.5 0 0 1 0 12.9" fill="#c2e1ff88"/><path d="M208.4-70.5a6.5 6.5 0 1 1 0-12.9 6.5 6.5 0 0 1 0 12.9" fill="#fff50089"/><path d="M-15.2-77.8a6.5 6.5 0 1 1 0-13 6.5 6.5 0 0 1 0 13" fill="#fff89"/><path d="M190.2-266.6a6.5 6.5 0 1 1 0-13 6.5 6.5 0 0 1 0 13" fill="#fff5008A"/><path d="M204.1-257.9a6.5 6.5 0 1 1 0-13.1 6.5 6.5 0 0 1 0 13.1" fill="#fff5008A"/><path d="M244.9-137.4a6.5 6.5 0 1 1 0-13.1 6.5 6.5 0 0 1 0 13.1" fill="#005bbb8A"/><path d="M235.7-215.5a6.6 6.6 0 1 1 0-13.2 6.6 6.6 0 0 1 0 13.2" fill="#c2e1ff8B"/><path d="M-7.8-276.6a6.7 6.7 0 1 1 0-13.5 6.7 6.7 0 0 1 0 13.5" fill="#fff5008E"/><path d="M-60.7-181.4a6.7 6.7 0 1 1 0-13.5 6.7 6.7 0 0 1 0 13.5" fill="#005bbb8E"/><path d="M-64.1-175.7a6.7 6.7 0 1 1 0-13.5 6.7 6.7 0 0 1 0 13.5" fill="#005bbb8F"/><path d="M228.7-270a6.8 6.8 0 1 1 0-13.6 6.8 6.8 0 0 1 0 13.6" fill="#fff50091"/><path d="M135.5-328.2a6.9 6.9 0 1 1 0-13.8 6.9 6.9 0 0 1 0 13.8" fill="#c2e1ff92"/><path d="M138.8 21.9a7 7 0 1 1 0-13.9 7 7 0 0 1 0 13.9" fill="#fff94"/><path d="M245.1-273.1a7.1 7.1 0 1 1 0-14.1 7.1 7.1 0 0 1 0 14.1" fill="#fff50096"/><path d="M289.3-168.6a7.1 7.1 0 1 1 0-14.2 7.1 7.1 0 0 1 0 14.2" fill="#005bbb97"/><path d="M-48.3-280.8a7.2 7.2 0 1 1 0-14.3 7.2 7.2 0 0 1 0 14.3" fill="#fff50099"/><path d="M239.1-12.7a7.3 7.3 0 1 1 0-14.5 7.3 7.3 0 0 1 0 14.5" fill="#fff5009B"/><path d="M-100.6-149.8a7.3 7.3 0 1 1 0-14.6 7.3 7.3 0 0 1 0 14.6" fill="#005bbb9B"/><path d="M63 43.9a7.3 7.3 0 1 1 0-14.7 7.3 7.3 0 0 1 0 14.7" fill="#c2e1ff9C"/><path d="M224.7 4.9a7.3 7.3 0 1 1 0-14.7 7.3 7.3 0 0 1 0 14.7" fill="#fff5009C"/><path d="M244.2-300.7a7.4 7.4 0 1 1 0-14.7 7.4 7.4 0 0 1 0 14.7" fill="#fff9D"/><path d="M189.9 29a7.4 7.4 0 1 1 0-14.7 7.4 7.4 0 0 1 0 14.7" fill="#005bbb9D"/><path d="M105.1-361.9a7.4 7.4 0 1 1 0-14.9 7.4 7.4 0 0 1 0 14.9" fill="#fff5009E"/><path d="M252.7-11.6a7.5 7.5 0 1 1 0-15 7.5 7.5 0 0 1 0 15" fill="#fff5009F"/><path d="M293.2-236.6a7.5 7.5 0 1 1 0-15 7.5 7.5 0 0 1 0 15" fill="#fff500A0"/><path d="M-31.3-318.6a7.5 7.5 0 1 1 0-15 7.5 7.5 0 0 1 0 15" fill="#005bbbA0"/><path d="M133 52.2a7.5 7.5 0 1 1 0-15 7.5 7.5 0 0 1 0 15" fill="#fffA0"/><path d="M286.3-51.2a7.6 7.6 0 1 1 0-15.2 7.6 7.6 0 0 1 0 15.2" fill="#c2e1ffA2"/><path d="M-112.6-194.5a7.7 7.7 0 1 1 0-15.3 7.7 7.7 0 0 1 0 15.3" fill="#fff500A3"/><path d="M241.7-321.6a7.7 7.7 0 1 1 0-15.4 7.7 7.7 0 0 1 0 15.4" fill="#005bbbA5"/><path d="M-52.4 3.6a7.8 7.8 0 1 1 0-15.5 7.8 7.8 0 0 1 0 15.5" fill="#fff500A6"/><path d="M207.7-346.9a7.8 7.8 0 1 1 0-15.6 7.8 7.8 0 0 1 0 15.6" fill="#fff500A6"/><path d="M241.9 19.5a7.9 7.9 0 1 1 0-15.9 7.9 7.9 0 0 1 0 15.9" fill="#fffA9"/><path d="M286.3-282.1a8 8 0 1 1 0-16 8 8 0 0 1 0 16" fill="#005bbbAA"/><path d="M272.7-6.5a8.1 8.1 0 1 1 0-16.2 8.1 8.1 0 0 1 0 16.2" fill="#fff500AC"/><path d="M277.3-11.7a8.1 8.1 0 1 1 0-16.1 8.1 8.1 0 0 1 0 16.1" fill="#005bbbAC"/><path d="M290.1-29.1a8.1 8.1 0 1 1 0-16.1 8.1 8.1 0 0 1 0 16.1" fill="#005bbbAC"/><path d="M-106.1-52.5a8.2 8.2 0 1 1 0-16.3 8.2 8.2 0 0 1 0 16.3" fill="#fffAF"/><path d="M330.1-154.3a8.2 8.2 0 1 1 0-16.4 8.2 8.2 0 0 1 0 16.4" fill="#fff500AF"/><path d="M274.4-3.9a8.2 8.2 0 1 1 0-16.4 8.2 8.2 0 0 1 0 16.4" fill="#fffAF"/><path d="M33.6 66.3a8.2 8.2 0 1 1 0-16.4 8.2 8.2 0 0 1 0 16.4" fill="#c2e1ffAF"/><path d="M-52-327.6a8.2 8.2 0 1 1 0-16.4 8.2 8.2 0 0 1 0 16.4" fill="#005bbbAF"/><path d="M94.7-385.9a8.3 8.3 0 1 1 0-16.5 8.3 8.3 0 0 1 0 16.5" fill="#fff500B1"/><path d="M281.7-298.8a8.3 8.3 0 1 1 0-16.6 8.3 8.3 0 0 1 0 16.6" fill="#005bbbB1"/><path d="M-14.8-356.1a8.3 8.3 0 1 1 0-16.7 8.3 8.3 0 0 1 0 16.7" fill="#c2e1ffB2"/><path d="M-68.4-314.6a8.3 8.3 0 1 1 0-16.7 8.3 8.3 0 0 1 0 16.7" fill="#fff500B2"/><path d="M-32.4 37.6a8.4 8.4 0 1 1 0-16.8 8.4 8.4 0 0 1 0 16.8" fill="#fff500B3"/><path d="M-88.5-293.1a8.5 8.5 0 1 1 0-16.9 8.5 8.5 0 0 1 0 16.9" fill="#fffB5"/><path d="M225.3 44.3a8.5 8.5 0 1 1 0-17 8.5 8.5 0 0 1 0 17" fill="#005bbbB6"/><path d="M-70.9 6.7a8.5 8.5 0 1 1 0-17 8.5 8.5 0 0 1 0 17" fill="#fff500B6"/><path d="M211.7-360.3a8.5 8.5 0 1 1 0-17 8.5 8.5 0 0 1 0 17" fill="#fffB6"/><path d="M334.6-143.9a8.5 8.5 0 1 1 0-17.1 8.5 8.5 0 0 1 0 17.1" fill="#fff500B6"/><path d="M-48.8-335.7a8.5 8.5 0 1 1 0-17 8.5 8.5 0 0 1 0 17" fill="#fffB6"/><path d="M-20.1 48.1a8.6 8.6 0 1 1 0-17.1 8.6 8.6 0 0 1 0 17.1" fill="#fffB7"/><path d="M315.9-247.6a8.6 8.6 0 1 1 0-17.2 8.6 8.6 0 0 1 0 17.2" fill="#fff500B8"/><path d="M259.1-327.5a8.6 8.6 0 1 1 0-17.3 8.6 8.6 0 0 1 0 17.3" fill="#c2e1ffB8"/><path d="M323-77a8.7 8.7 0 1 1 0-17.4 8.7 8.7 0 0 1 0 17.4" fill="#fff500BA"/><path d="M-125.3-83.9a8.7 8.7 0 1 1 0-17.4 8.7 8.7 0 0 1 0 17.4" fill="#005bbbBA"/><path d="M-130-206.7a8.7 8.7 0 1 1 0-17.5 8.7 8.7 0 0 1 0 17.5" fill="#c2e1ffBB"/><path d="M-129-211.2a8.8 8.8 0 1 1 0-17.6 8.8 8.8 0 0 1 0 17.6" fill="#c2e1ffBC"/><path d="M321-236.9a8.8 8.8 0 1 1 0-17.6 8.8 8.8 0 0 1 0 17.6" fill="#fffBC"/><path d="M-132.8-113.5a8.8 8.8 0 1 1 0-17.6 8.8 8.8 0 0 1 0 17.6" fill="#005bbbBC"/><path d="M103.3 82.6a8.9 8.9 0 1 1 0-17.7 8.9 8.9 0 0 1 0 17.7" fill="#fffBE"/><path d="M-37.9 38.2a8.9 8.9 0 1 1 0-17.8 8.9 8.9 0 0 1 0 17.8" fill="#c2e1ffBE"/><path d="M-21.5-356.1a8.9 8.9 0 1 1 0-17.9 8.9 8.9 0 0 1 0 17.9" fill="#fff500BF"/><path d="M-96.7-284.4a8.9 8.9 0 1 1 0-17.8 8.9 8.9 0 0 1 0 17.8" fill="#fffBF"/><path d="M-135-129.9a8.9 8.9 0 1 1 0-17.9 8.9 8.9 0 0 1 0 17.9" fill="#fff500BF"/><path d="M295.2-20.6a8.9 8.9 0 1 1 0-17.9 8.9 8.9 0 0 1 0 17.9" fill="#c2e1ffBF"/><path d="M-96.6-23.4a9 9 0 1 1 0-18 9 9 0 0 1 0 18" fill="#005bbbC2"/><path d="M317.2-244.9a9.1 9.1 0 1 1 0-18.1 9.1 9.1 0 0 1 0 18.1" fill="#fff500C2"/><path d="M-118-242.4a9.1 9.1 0 1 1 0-18.2 9.1 9.1 0 0 1 0 18.2" fill="#fffC3"/><path d="M-23.2-353.9a9.1 9.1 0 1 1 0-18.2 9.1 9.1 0 0 1 0 18.2" fill="#c2e1ffC3"/><path d="M319.7-237.7a9.1 9.1 0 1 1 0-18.2 9.1 9.1 0 0 1 0 18.2" fill="#c2e1ffC3"/><path d="M239.2 36.3a9.1 9.1 0 1 1 0-18.3 9.1 9.1 0 0 1 0 18.3" fill="#c2e1ffC3"/><path d="M-67.3 10.6a9.2 9.2 0 1 1 0-18.5 9.2 9.2 0 0 1 0 18.5" fill="#fffC6"/><path d="M315.9-243.9a9.3 9.3 0 1 1 0-18.5 9.3 9.3 0 0 1 0 18.5" fill="#c2e1ffC6"/><path d="M328.1-203.9a9.3 9.3 0 1 1 0-18.6 9.3 9.3 0 0 1 0 18.6" fill="#005bbbC7"/><path d="M263.6 13.4a9.3 9.3 0 1 1 0-18.6 9.3 9.3 0 0 1 0 18.6" fill="#fff500C7"/><path d="M168.1 70.2a9.3 9.3 0 1 1 0-18.6 9.3 9.3 0 0 1 0 18.6" fill="#005bbbC7"/><path d="M168.9 69.6a9.3 9.3 0 1 1 0-18.7 9.3 9.3 0 0 1 0 18.7" fill="#005bbbC8"/><path d="M115.8 79.2a9.4 9.4 0 1 1 0-18.7 9.4 9.4 0 0 1 0 18.7" fill="#005bbbC8"/><path d="M330.7-129a9.4 9.4 0 1 1 0-18.8 9.4 9.4 0 0 1 0 18.8" fill="#fffCA"/><path d="M-129.3-185.7a9.4 9.4 0 1 1 0-18.9 9.4 9.4 0 0 1 0 18.9" fill="#fffCA"/><path d="M248.5 24.1a9.5 9.5 0 1 1 0-19 9.5 9.5 0 0 1 0 19" fill="#c2e1ffCB"/><path d="M-115.8-73a9.5 9.5 0 1 1 0-19 9.5 9.5 0 0 1 0 19" fill="#fff500CC"/><path d="M274.5-302.9a9.5 9.5 0 1 1 0-19.1 9.5 9.5 0 0 1 0 19.1" fill="#c2e1ffCC"/><path d="M-69.5 2.2a9.5 9.5 0 1 1 0-19.1 9.5 9.5 0 0 1 0 19.1" fill="#c2e1ffCD"/><path d="M142.4 72.7a9.6 9.6 0 1 1 0-19.1 9.6 9.6 0 0 1 0 19.1" fill="#005bbbCD"/><path d="M-120.8-213.6a9.6 9.6 0 1 1 0-19.2 9.6 9.6 0 0 1 0 19.2" fill="#fffCE"/><path d="M-97.4-267.1a9.6 9.6 0 1 1 0-19.3 9.6 9.6 0 0 1 0 19.3" fill="#005bbbCE"/><path d="M119.8 74.2a9.6 9.6 0 1 1 0-19.2 9.6 9.6 0 0 1 0 19.2" fill="#fff500CF"/><path d="M308.9-239.7a9.7 9.7 0 1 1 0-19.4 9.7 9.7 0 0 1 0 19.4" fill="#005bbbD0"/><path d="M-88.3-275.5a9.8 9.8 0 1 1 0-19.5 9.8 9.8 0 0 1 0 19.5" fill="#fffD2"/><path d="M323.5-176.1a9.8 9.8 0 1 1 0-19.6 9.8 9.8 0 0 1 0 19.6" fill="#c2e1ffD2"/><path d="M230.6 24.9a9.9 9.9 0 1 1 0-19.9 9.9 9.9 0 0 1 0 19.9" fill="#fff500D5"/><path d="M158.7 59.8a9.9 9.9 0 1 1 0-19.9 9.9 9.9 0 0 1 0 19.9" fill="#005bbbD5"/><path d="M158.1-364.9a9.9 9.9 0 1 1 0-19.8 9.9 9.9 0 0 1 0 19.8" fill="#fffD5"/><path d="M221.8-335.6a9.9 9.9 0 1 1 0-19.9 9.9 9.9 0 0 1 0 19.9" fill="#fffD5"/><path d="M-41.8 15.4a9.9 9.9 0 1 1 0-19.9 9.9 9.9 0 0 1 0 19.9" fill="#fff500D5"/><path d="M0.9 42.3a10 10 0 1 1 0-20 10 10 0 0 1 0 20" fill="#c2e1ffD6"/><path d="M144.5 61a10 10 0 1 1 0-20 10 10 0 0 1 0 20" fill="#c2e1ffD7"/><path d="M195.1-348.5a10 10 0 1 1 0-20.1 10 10 0 0 1 0 20.1" fill="#fffD7"/><path d="M200.6-344.7a10 10 0 1 1 0-20 10 10 0 0 1 0 20" fill="#005bbbD7"/><path d="M100.9 63.1a10.1 10.1 0 1 1 0-20.1 10.1 10.1 0 0 1 0 20.1" fill="#005bbbD8"/><path d="M153.1 55.8a10.1 10.1 0 1 1 0-20.2 10.1 10.1 0 0 1 0 20.2" fill="#005bbbD9"/><path d="M-96.4-239.2a10.1 10.1 0 1 1 0-20.2 10.1 10.1 0 0 1 0 20.2" fill="#fffD9"/><path d="M-43.7 6.1a10.1 10.1 0 1 1 0-20.2 10.1 10.1 0 0 1 0 20.2" fill="#c2e1ffD9"/><path d="M-113.3-144.1a10.1 10.1 0 1 1 0-20.2 10.1 10.1 0 0 1 0 20.2" fill="#fff500D9"/><path d="M122.8 59.7a10.1 10.1 0 1 1 0-20.2 10.1 10.1 0 0 1 0 20.2" fill="#c2e1ffD9"/><path d="M174.1-351.3a10.2 10.2 0 1 1 0-20.3 10.2 10.2 0 0 1 0 20.3" fill="#005bbbDA"/><path d="M-91-239.6a10.2 10.2 0 1 1 0-20.4 10.2 10.2 0 0 1 0 20.4" fill="#fff500DB"/><path d="M174.5 43.5a10.2 10.2 0 1 1 0-20.5 10.2 10.2 0 0 1 0 20.5" fill="#fff500DC"/><path d="M-72.7-35.1a10.2 10.2 0 1 1 0-20.5 10.2 10.2 0 0 1 0 20.5" fill="#fff500DC"/><path d="M16.5-340.6a10.3 10.3 0 1 1 0-20.6 10.3 10.3 0 0 1 0 20.6" fill="#005bbbDD"/><path d="M181.4 36.5a10.3 10.3 0 1 1 0-20.6 10.3 10.3 0 0 1 0 20.6" fill="#fffDE"/><path d="M303.2-134.2a10.3 10.3 0 1 1 0-20.7 10.3 10.3 0 0 1 0 20.7" fill="#005bbbDE"/><path d="M-100.1-171.7a10.4 10.4 0 1 1 0-20.8 10.4 10.4 0 0 1 0 20.8" fill="#c2e1ffE0"/><path d="M181.5-332.9a10.5 10.5 0 1 1 0-21 10.5 10.5 0 0 1 0 21" fill="#005bbbE1"/><path d="M-96-134.4a10.5 10.5 0 1 1 0-21 10.5 10.5 0 0 1 0 21" fill="#c2e1ffE1"/><path d="M-81.6-224.1a10.5 10.5 0 1 1 0-21 10.5 10.5 0 0 1 0 21" fill="#c2e1ffE2"/><path d="M204.9-309.7a10.6 10.6 0 1 1 0-21.3 10.6 10.6 0 0 1 0 21.3" fill="#fff500E4"/><path d="M-76.3-217.2a10.6 10.6 0 1 1 0-21.3 10.6 10.6 0 0 1 0 21.3" fill="#fff500E5"/><path d="M278.3-96.8a10.7 10.7 0 1 1 0-21.3 10.7 10.7 0 0 1 0 21.3" fill="#fff500E5"/><path d="M-11.8-2.5a10.7 10.7 0 1 1 0-21.3 10.7 10.7 0 0 1 0 21.3" fill="#fff500E5"/><path d="M226.6-288.4a10.7 10.7 0 1 1 0-21.4 10.7 10.7 0 0 1 0 21.4" fill="#c2e1ffE6"/><path d="M-15.5-7.8a10.7 10.7 0 1 1 0-21.4 10.7 10.7 0 0 1 0 21.4" fill="#005bbbE6"/><path d="M197.2-306.5a10.7 10.7 0 1 1 0-21.5 10.7 10.7 0 0 1 0 21.5" fill="#c2e1ffE7"/><path d="M-63-228a10.8 10.8 0 1 1 0-21.5 10.8 10.8 0 0 1 0 21.5" fill="#fff500E8"/><path d="M194.1-0.6a10.8 10.8 0 1 1 0-21.6 10.8 10.8 0 0 1 0 21.6" fill="#c2e1ffE8"/><path d="M29.2 8.4a10.8 10.8 0 1 1 0-21.6 10.8 10.8 0 0 1 0 21.6" fill="#fffE9"/><path d="M269.5-118.7a10.9 10.9 0 1 1 0-21.8 10.9 10.9 0 0 1 0 21.8" fill="#fffEA"/><path d="M242.4-58.5a10.9 10.9 0 1 1 0-21.8 10.9 10.9 0 0 1 0 21.8" fill="#fff500EB"/><path d="M60.9-316.7a10.9 10.9 0 1 1 0-21.8 10.9 10.9 0 0 1 0 21.8" fill="#005bbbEB"/><path d="M87.5-319a10.9 10.9 0 1 1 0-21.8 10.9 10.9 0 0 1 0 21.8" fill="#fffEB"/><path d="M211.8-275.7a10.9 10.9 0 1 1 0-21.9 10.9 10.9 0 0 1 0 21.9" fill="#c2e1ffEB"/><path d="M43 2.7a11 11 0 1 1 0-21.9 11 11 0 0 1 0 21.9" fill="#c2e1ffEC"/><path d="M41.1 1.2a11 11 0 1 1 0-21.9 11 11 0 0 1 0 21.9" fill="#005bbbEC"/><path d="M-61.4-167.4a11 11 0 1 1 0-22 11 11 0 0 1 0 22" fill="#005bbbED"/><path d="M43.5-295.3a11.1 11.1 0 1 1 0-22.2 11.1 11.1 0 0 1 0 22.2" fill="#c2e1ffEF"/><path d="M213.5-254.5a11.1 11.1 0 1 1 0-22.2 11.1 11.1 0 0 1 0 22.2" fill="#fffEF"/><path d="M60.9-299.3a11.1 11.1 0 1 1 0-22.3 11.1 11.1 0 0 1 0 22.3" fill="#c2e1ffEF"/><path d="M244.9-112.7a11.1 11.1 0 1 1 0-22.3 11.1 11.1 0 0 1 0 22.3" fill="#fff500F0"/><path d="M219.1-63.7a11.2 11.2 0 1 1 0-22.4 11.2 11.2 0 0 1 0 22.4" fill="#fffF0"/><path d="M-41.5-172.8a11.2 11.2 0 1 1 0-22.4 11.2 11.2 0 0 1 0 22.4" fill="#c2e1ffF1"/><path d="M-27.8-106.5a11.3 11.3 0 1 1 0-22.5 11.3 11.3 0 0 1 0 22.5" fill="#fffF3"/><path d="M-8.3-76.1a11.3 11.3 0 1 1 0-22.6 11.3 11.3 0 0 1 0 22.6" fill="#fffF3"/><path d="M148.9-270.2a11.3 11.3 0 1 1 0-22.7 11.3 11.3 0 0 1 0 22.7" fill="#fff500F4"/><path d="M-12.7-109.1a11.4 11.4 0 1 1 0-22.8 11.4 11.4 0 0 1 0 22.8" fill="#fff500F5"/><path d="M-10-169.2a11.5 11.5 0 1 1 0-22.9 11.5 11.5 0 0 1 0 22.9" fill="#c2e1ffF7"/><path d="M44.3-242.6a11.5 11.5 0 1 1 0-23 11.5 11.5 0 0 1 0 23" fill="#fffF7"/><path d="M6.9-186.3a11.5 11.5 0 1 1 0-23.1 11.5 11.5 0 0 1 0 23.1" fill="#fff500F8"/><path d="M32.3-81.2a11.6 11.6 0 1 1 0-23.1 11.6 11.6 0 0 1 0 23.1" fill="#fff500F9"/><path d="M83.7-56.6a11.6 11.6 0 1 1 0-23.1 11.6 11.6 0 0 1 0 23.1" fill="#fff500F9"/><path d="M191.3-122a11.6 11.6 0 1 1 0-23.2 11.6 11.6 0 0 1 0 23.2" fill="#c2e1ffF9"/><path d="M165.7-88.3a11.6 11.6 0 1 1 0-23.1 11.6 11.6 0 0 1 0 23.1" fill="#fffFA"/><path d="M181.4-126.8a11.6 11.6 0 1 1 0-23.2 11.6 11.6 0 0 1 0 23.2" fill="#fff500FA"/><path d="M37.4-183a11.7 11.7 0 1 1 0-23.3 11.7 11.7 0 0 1 0 23.3" fill="#fffFC"/><path d="M66.6-91.6a11.7 11.7 0 1 1 0-23.4 11.7 11.7 0 0 1 0 23.4" fill="#fff500FC"/><path d="M118.7-195.7a11.7 11.7 0 1 1 0-23.5 11.7 11.7 0 0 1 0 23.5" fill="#fff500FD"/><path d="M103.6-103.2a11.8 11.8 0 1 1 0-23.5 11.8 11.8 0 0 1 0 23.5" fill="#fffFD"/><path d="M121.6-113.3a11.8 11.8 0 1 1 0-23.6 11.8 11.8 0 0 1 0 23.6" fill="#005bbbFD"/><path d="M95.9-127.3a11.8 11.8 0 1 1 0-23.6 11.8 11.8 0 0 1 0 23.6" fill="#fff500FE"/></g></svg>