<svg width="1200" height="675" viewBox="-500 -500 1200 675" xmlns="http://www.w3.org/2000/svg"><path d="M-500-500h1200v675h-1200z" fill="#000"/><style>.sparkles path{stroke-linecap:round; stroke-width:1}</style><g class="sparkles"><path d="M100-162.5l-24.9-6.1" stroke="#c2e1ff32"/><path d="M100-162.5l24.6-10.4" stroke="#c2e1ff32"/><path d="M100-162.5l37.7-33.7" stroke="#005bbb33"/><path d="M100-162.5l14.3-50.1" stroke="#fff33"/><path d="M100-162.5l23.7-56.4" stroke="#fff50033"/><path d="M100-162.5l69.7 19.4" stroke="#fff34"/><path d="M100-162.5l75.2-23.9" stroke="#005bbb34"/><path d="M100-162.5l43.6 72.6" stroke="#c2e1ff35"/><path d="M100-162.5l85.4-23.4" stroke="#fff50035"/><path d="M100-162.5l87-19.6" stroke="#fff50035"/><path d="M100-162.5l-16.4 88.5" stroke="#005bbb35"/><path d="M100-162.5l48.7 80.3" stroke="#005bbb36"/><path d="M100-162.5l-75.2 66.2" stroke="#c2e1ff36"/><path d="M100-162.5l65.2 83.7" stroke="#fff50037"/><path d="M100-162.5l-74.5-77.4" stroke="#fff50037"/><path d="M100-162.5l-7.7 123.4" stroke="#fff39"/><path d="M100-162.5l-112.5 60.5" stroke="#005bbb39"/><path d="M100-162.5l39.2-130.6" stroke="#fff5003B"/><path d="M100-162.5l67.3-128.3" stroke="#fff3C"/><path d="M100-162.5l-142.3-30.7" stroke="#c2e1ff3C"/><path d="M100-162.5l-115.9-92.5" stroke="#c2e1ff3D"/><path d="M100-162.5l-106.8-104.3" stroke="#c2e1ff3D"/><path d="M100-162.5l-42.2-144.4" stroke="#fff5003D"/><path d="M100-162.5l143.4 49.5" stroke="#005bbb3D"/><path d="M100-162.5l111.8-114" stroke="#fff5003F"/><path d="M100-162.5l-87.8-134.5" stroke="#fff5003F"/><path d="M100-162.5l75.4-142.4" stroke="#fff3F"/><path d="M100-162.5l66.9-149.7" stroke="#005bbb3F"/><path d="M100-162.5l-162.9 22.9" stroke="#fff40"/><path d="M100-162.5l107.9-128.2" stroke="#fff40"/><path d="M100-162.5l86.7-143.9" stroke="#fff50040"/><path d="M100-162.5l86.8-145" stroke="#fff41"/><path d="M100-162.5l69 155.6" stroke="#fff41"/><path d="M100-162.5l-26-170.6" stroke="#fff41"/><path d="M100-162.5l-80.2 152.9" stroke="#c2e1ff41"/><path d="M100-162.5l-8-174.3" stroke="#005bbb42"/><path d="M100-162.5l77.1 157.4" stroke="#005bbb42"/><path d="M100-162.5l-145.3-100.2" stroke="#c2e1ff42"/><path d="M100-162.5l92.7-156.1" stroke="#005bbb44"/><path d="M100-162.5l124.8 133.1" stroke="#005bbb44"/><path d="M100-162.5l-69.6-171.4" stroke="#c2e1ff44"/><path d="M100-162.5l51 178.5" stroke="#fff45"/><path d="M100-162.5l184.3 27.6" stroke="#fff45"/><path d="M100-162.5l-145.2 120.5" stroke="#fff50045"/><path d="M100-162.5l-76.3 173.6" stroke="#c2e1ff46"/><path d="M100-162.5l-142.3-134.7" stroke="#005bbb48"/><path d="M100-162.5l126.1 150.3" stroke="#005bbb48"/><path d="M100-162.5l-145.3-132" stroke="#fff50048"/><path d="M100-162.5l37.1-192.9" stroke="#005bbb48"/><path d="M100-162.5l-158.5-121" stroke="#005bbb49"/><path d="M100-162.5l-114.1-164" stroke="#c2e1ff49"/><path d="M100-162.5l-197.2 37.8" stroke="#fff50049"/><path d="M100-162.5l158.5 126.6" stroke="#c2e1ff4A"/><path d="M100-162.5l-114.9 167.3" stroke="#c2e1ff4A"/><path d="M100-162.5l-202.1-19.3" stroke="#c2e1ff4A"/><path d="M100-162.5l201.1 29.9" stroke="#fff5004A"/><path d="M100-162.5l75.1 196.9" stroke="#fff4D"/><path d="M100-162.5l-150.3-149.5" stroke="#fff5004D"/><path d="M100-162.5l130.6 167" stroke="#c2e1ff4D"/><path d="M100-162.5l214 7.7" stroke="#fff4E"/><path d="M100-162.5l109.8 184.4" stroke="#c2e1ff4F"/><path d="M100-162.5l32 214.3" stroke="#fff50"/><path d="M100-162.5l49.2 211.1" stroke="#005bbb50"/><path d="M100-162.5l210.8 66.9" stroke="#fff52"/><path d="M100-162.5l65.1-212.6" stroke="#c2e1ff53"/><path d="M100-162.5l-223.2-2.4" stroke="#005bbb53"/><path d="M100-162.5l139.3-176" stroke="#fff54"/><path d="M100-162.5l-155.8 161.9" stroke="#fff54"/><path d="M100-162.5l-224.9-11.5" stroke="#c2e1ff54"/><path d="M100-162.5l6.4 226.2" stroke="#fff50055"/><path d="M100-162.5l215.7 69.7" stroke="#fff55"/><path d="M100-162.5l-181.3 137.6" stroke="#005bbb56"/><path d="M100-162.5l-109.9-199.5" stroke="#fff50056"/><path d="M100-162.5l52.1-221.8" stroke="#fff56"/><path d="M100-162.5l-69.5 217.6" stroke="#fff50057"/><path d="M100-162.5l15.3-227.9" stroke="#fff57"/><path d="M100-162.5l-211-88.1" stroke="#c2e1ff57"/><path d="M100-162.5l-221.3-60.4" stroke="#005bbb58"/><path d="M100-162.5l-73.7 217.5" stroke="#fff50058"/><path d="M100-162.5l-62.6-222.1" stroke="#005bbb59"/><path d="M100-162.5l-147-177.9" stroke="#fff59"/><path d="M100-162.5l-170.4 156.4" stroke="#fff50059"/><path d="M100-162.5l-41.6-227.9" stroke="#fff5005A"/><path d="M100-162.5l-156.4-171.1" stroke="#005bbb5A"/><path d="M100-162.5l42.8 228" stroke="#fff5A"/><path d="M100-162.5l179.8-147.2" stroke="#c2e1ff5B"/><path d="M100-162.5l118.5-200.2" stroke="#fff5B"/><path d="M100-162.5l111.1 204.6" stroke="#005bbb5B"/><path d="M100-162.5l-224.5-64.5" stroke="#005bbb5C"/><path d="M100-162.5l-229.3 46.2" stroke="#fff5005C"/><path d="M100-162.5l-113.1-204.8" stroke="#fff5D"/><path d="M100-162.5l4.2 234" stroke="#fff5005D"/><path d="M100-162.5l-188.2-141.3" stroke="#fff5005F"/><path d="M100-162.5l-65 226.1" stroke="#005bbb5F"/><path d="M100-162.5l85.7 219.5" stroke="#fff50060"/><path d="M100-162.5l-213.2 100.4" stroke="#fff60"/><path d="M100-162.5l139-190.8" stroke="#005bbb61"/><path d="M100-162.5l156.5-176.9" stroke="#005bbb62"/><path d="M100-162.5l-137.8 191.8" stroke="#fff50065"/><path d="M100-162.5l-228-61.5" stroke="#005bbb65"/><path d="M100-162.5l-75.8 223.5" stroke="#fff50065"/><path d="M100-162.5l217.5 91.4" stroke="#c2e1ff66"/><path d="M100-162.5l124.6-200.3" stroke="#fff50066"/><path d="M100-162.5l221.8-80.3" stroke="#fff66"/><path d="M100-162.5l219.5 84.4" stroke="#fff68"/><path d="M100-162.5l-162-170.4" stroke="#c2e1ff68"/><path d="M100-162.5l-161.3 170.8" stroke="#fff50069"/><path d="M100-162.5l-211.7 98.6" stroke="#c2e1ff6B"/><path d="M100-162.5l-42.7 228.9" stroke="#005bbb6C"/><path d="M100-162.5l-207.9 103.7" stroke="#c2e1ff6D"/><path d="M100-162.5l62.5-221.9" stroke="#005bbb6E"/><path d="M100-162.5l113.1 200.4" stroke="#fff6F"/><path d="M100-162.5l-179.2 144.2" stroke="#fff5006F"/><path d="M100-162.5l192.2 125.6" stroke="#fff6F"/><path d="M100-162.5l204.5 104" stroke="#fff6F"/><path d="M100-162.5l-30.3 227.1" stroke="#c2e1ff70"/><path d="M100-162.5l-143.8 175.9" stroke="#fff50071"/><path d="M100-162.5l227.1 0" stroke="#c2e1ff71"/><path d="M100-162.5l130.2 185.4" stroke="#fff50072"/><path d="M100-162.5l-155.4-163.7" stroke="#fff50072"/><path d="M100-162.5l-51 219.6" stroke="#fff50072"/><path d="M100-162.5l-202.9 96.7" stroke="#c2e1ff73"/><path d="M100-162.5l-208.1-84.1" stroke="#c2e1ff73"/><path d="M100-162.5l-221.4 24.9" stroke="#fff50074"/><path d="M100-162.5l-220.2-25.8" stroke="#fff50075"/><path d="M100-162.5l-58.8 211.7" stroke="#c2e1ff76"/><path d="M100-162.5l-163.7 145.8" stroke="#c2e1ff76"/><path d="M100-162.5l5.4 218.6" stroke="#005bbb76"/><path d="M100-162.5l-154.6 154.5" stroke="#fff50076"/><path d="M100-162.5l-44-213.9" stroke="#fff50077"/><path d="M100-162.5l-126.9-177.6" stroke="#c2e1ff77"/><path d="M100-162.5l28.5-213.5" stroke="#c2e1ff78"/><path d="M100-162.5l207.4-55.5" stroke="#fff78"/><path d="M100-162.5l166.4 135.4" stroke="#005bbb78"/><path d="M100-162.5l-176.6 120.7" stroke="#c2e1ff79"/><path d="M100-162.5l213.6 9.5" stroke="#005bbb79"/><path d="M100-162.5l-210 34.4" stroke="#c2e1ff79"/><path d="M100-162.5l-113.4-178.1" stroke="#fff7A"/><path d="M100-162.5l197.8 73.4" stroke="#c2e1ff7A"/><path d="M100-162.5l197.8-72.7" stroke="#c2e1ff7A"/><path d="M100-162.5l208.6 18" stroke="#c2e1ff7B"/><path d="M100-162.5l-159.9 127.7" stroke="#005bbb7C"/><path d="M100-162.5l58.6 195.7" stroke="#fff7D"/><path d="M100-162.5l-178.6 97" stroke="#fff5007D"/><path d="M100-162.5l48.2 193.9" stroke="#fff7E"/><path d="M100-162.5l126.4-148.3" stroke="#fff80"/><path d="M100-162.5l77.7 178.3" stroke="#fff80"/><path d="M100-162.5l-64.8-181.2" stroke="#005bbb81"/><path d="M100-162.5l18.9 189.4" stroke="#005bbb81"/><path d="M100-162.5l-146.4 117" stroke="#fff82"/><path d="M100-162.5l-148 111.6" stroke="#fff83"/><path d="M100-162.5l35-176.5" stroke="#fff84"/><path d="M100-162.5l172.1-42.3" stroke="#fff50085"/><path d="M100-162.5l145-99.1" stroke="#fff50085"/><path d="M100-162.5l16.2 168.2" stroke="#c2e1ff86"/><path d="M100-162.5l-153.9 68.4" stroke="#fff50087"/><path d="M100-162.5l109.6-118.7" stroke="#fff50088"/><path d="M100-162.5l-66 145.6" stroke="#005bbb88"/><path d="M100-162.5l-69.5 140.7" stroke="#c2e1ff89"/><path d="M100-162.5l-130-78" stroke="#fff5008A"/><path d="M100-162.5l146.6-32.8" stroke="#fff8A"/><path d="M100-162.5l41.9-136.9" stroke="#fff5008B"/><path d="M100-162.5l134.5 48.8" stroke="#c2e1ff8B"/><path d="M100-162.5l126.1 53.6" stroke="#fff8C"/><path d="M100-162.5l119.1 65.8" stroke="#005bbb8C"/><path d="M100-162.5l-44.9 117.5" stroke="#fff8E"/><path d="M100-162.5l65.4 103.6" stroke="#fff8E"/><path d="M100-162.5l119.3 9.4" stroke="#005bbb8F"/><path d="M100-162.5l89 74.6" stroke="#fff8F"/><path d="M100-162.5l57.7 100.4" stroke="#fff5008F"/><path d="M100-162.5l29.7-110.6" stroke="#c2e1ff8F"/><path d="M100-162.5l-94.4-61.5" stroke="#005bbb8F"/><path d="M100-162.5l75 84" stroke="#c2e1ff8F"/><path d="M100-162.5l48.5 99.3" stroke="#c2e1ff90"/><path d="M100-162.5l33 104.2" stroke="#fff90"/><path d="M100-162.5l-49.8-96.2" stroke="#c2e1ff90"/><path d="M100-162.5l-4.2-98.5" stroke="#fff50091"/><path d="M100-162.5l-79.9-17.5" stroke="#005bbb92"/><path d="M100-162.5l-13.5-41.5" stroke="#c2e1ff95"/><path d="M100-162.5l25.8-31.7" stroke="#fff50095"/><path d="M100-162.5l17.4 13.2" stroke="#c2e1ff95"/></g><g class="sparcs"><path d="M75.1-162.6a5.9 5.9 0 1 1 0-11.9 5.9 5.9 0 0 1 0 11.9" fill="#fff7D"/><path d="M124.6-167a5.9 5.9 0 1 1 0-11.8 5.9 5.9 0 0 1 0 11.8" fill="#fff5007D"/><path d="M137.7-190.3a6 6 0 1 1 0-11.9 6 6 0 0 1 0 11.9" fill="#fff7E"/><path d="M114.3-206.6a6 6 0 1 1 0-11.9 6 6 0 0 1 0 11.9" fill="#fff7E"/><path d="M123.7-212.8a6 6 0 1 1 0-12.1 6 6 0 0 1 0 12.1" fill="#c2e1ff7F"/><path d="M169.7-137a6 6 0 1 1 0-12.1 6 6 0 0 1 0 12.1" fill="#005bbb80"/><path d="M175.2-180.3a6.1 6.1 0 1 1 0-12.2 6.1 6.1 0 0 1 0 12.2" fill="#fff50080"/><path d="M143.6-83.8a6.1 6.1 0 1 1 0-12.2 6.1 6.1 0 0 1 0 12.2" fill="#005bbb81"/><path d="M185.4-179.8a6.1 6.1 0 1 1 0-12.3 6.1 6.1 0 0 1 0 12.3" fill="#fff50081"/><path d="M187-176a6.1 6.1 0 1 1 0-12.2 6.1 6.1 0 0 1 0 12.2" fill="#005bbb81"/><path d="M83.6-67.8a6.1 6.1 0 1 1 0-12.3 6.1 6.1 0 0 1 0 12.3" fill="#fff50081"/><path d="M148.7-76.1a6.1 6.1 0 1 1 0-12.3 6.1 6.1 0 0 1 0 12.3" fill="#fff82"/><path d="M24.8-90.1a6.2 6.2 0 1 1 0-12.3 6.2 6.2 0 0 1 0 12.3" fill="#c2e1ff83"/><path d="M165.2-72.6a6.2 6.2 0 1 1 0-12.5 6.2 6.2 0 0 1 0 12.5" fill="#005bbb83"/><path d="M25.5-233.7a6.2 6.2 0 1 1 0-12.4 6.2 6.2 0 0 1 0 12.4" fill="#005bbb84"/><path d="M92.3-32.7a6.3 6.3 0 1 1 0-12.7 6.3 6.3 0 0 1 0 12.7" fill="#005bbb86"/><path d="M-12.5-95.6a6.4 6.4 0 1 1 0-12.8 6.4 6.4 0 0 1 0 12.8" fill="#c2e1ff87"/><path d="M139.2-286.6a6.4 6.4 0 1 1 0-12.9 6.4 6.4 0 0 1 0 12.9" fill="#c2e1ff88"/><path d="M167.3-284.3a6.5 6.5 0 1 1 0-13 6.5 6.5 0 0 1 0 13" fill="#fff5008A"/><path d="M-42.3-186.7a6.5 6.5 0 1 1 0-13.1 6.5 6.5 0 0 1 0 13.1" fill="#c2e1ff8A"/><path d="M-15.9-248.5a6.6 6.6 0 1 1 0-13.1 6.6 6.6 0 0 1 0 13.1" fill="#005bbb8B"/><path d="M-6.8-260.2a6.6 6.6 0 1 1 0-13.1 6.6 6.6 0 0 1 0 13.1" fill="#fff8B"/><path d="M57.8-300.4a6.6 6.6 0 1 1 0-13.1 6.6 6.6 0 0 1 0 13.1" fill="#005bbb8B"/><path d="M243.4-106.4a6.6 6.6 0 1 1 0-13.2 6.6 6.6 0 0 1 0 13.2" fill="#c2e1ff8C"/><path d="M211.8-269.8a6.7 6.7 0 1 1 0-13.4 6.7 6.7 0 0 1 0 13.4" fill="#005bbb8E"/><path d="M12.2-290.3a6.7 6.7 0 1 1 0-13.4 6.7 6.7 0 0 1 0 13.4" fill="#c2e1ff8E"/><path d="M175.4-298.2a6.7 6.7 0 1 1 0-13.4 6.7 6.7 0 0 1 0 13.4" fill="#fff8E"/><path d="M166.9-305.4a6.7 6.7 0 1 1 0-13.5 6.7 6.7 0 0 1 0 13.5" fill="#fff8F"/><path d="M-62.9-132.9a6.7 6.7 0 1 1 0-13.5 6.7 6.7 0 0 1 0 13.5" fill="#c2e1ff8F"/><path d="M207.9-283.9a6.8 6.8 0 1 1 0-13.6 6.8 6.8 0 0 1 0 13.6" fill="#005bbb90"/><path d="M186.7-299.6a6.8 6.8 0 1 1 0-13.6 6.8 6.8 0 0 1 0 13.6" fill="#c2e1ff90"/><path d="M186.8-300.7a6.8 6.8 0 1 1 0-13.6 6.8 6.8 0 0 1 0 13.6" fill="#005bbb90"/><path d="M169-0.1a6.8 6.8 0 1 1 0-13.6 6.8 6.8 0 0 1 0 13.6" fill="#fff50090"/><path d="M74-326.2a6.8 6.8 0 1 1 0-13.7 6.8 6.8 0 0 1 0 13.7" fill="#fff50091"/><path d="M19.8-2.7a6.8 6.8 0 1 1 0-13.7 6.8 6.8 0 0 1 0 13.7" fill="#c2e1ff91"/><path d="M92-329.9a6.9 6.9 0 1 1 0-13.7 6.9 6.9 0 0 1 0 13.7" fill="#c2e1ff92"/><path d="M177.1 1.8a6.9 6.9 0 1 1 0-13.7 6.9 6.9 0 0 1 0 13.7" fill="#c2e1ff92"/><path d="M-45.3-255.8a6.9 6.9 0 1 1 0-13.8 6.9 6.9 0 0 1 0 13.8" fill="#fff92"/><path d="M192.7-311.6a7 7 0 1 1 0-14 7 7 0 0 1 0 14" fill="#c2e1ff94"/><path d="M224.8-22.4a7 7 0 1 1 0-14 7 7 0 0 1 0 14" fill="#c2e1ff94"/><path d="M30.4-326.9a7 7 0 1 1 0-14 7 7 0 0 1 0 14" fill="#fff95"/><path d="M151 23a7 7 0 1 1 0-14 7 7 0 0 1 0 14" fill="#fff50095"/><path d="M284.3-127.9a7 7 0 1 1 0-14.1 7 7 0 0 1 0 14.1" fill="#fff50096"/><path d="M-45.2-34.9a7.1 7.1 0 1 1 0-14.2 7.1 7.1 0 0 1 0 14.2" fill="#c2e1ff96"/><path d="M23.7 18.2a7.1 7.1 0 1 1 0-14.2 7.1 7.1 0 0 1 0 14.2" fill="#005bbb97"/><path d="M-42.3-290a7.2 7.2 0 1 1 0-14.4 7.2 7.2 0 0 1 0 14.4" fill="#fff99"/><path d="M226.1-4.9a7.2 7.2 0 1 1 0-14.5 7.2 7.2 0 0 1 0 14.5" fill="#fff50099"/><path d="M-45.3-287.3a7.2 7.2 0 1 1 0-14.4 7.2 7.2 0 0 1 0 14.4" fill="#005bbb99"/><path d="M137.1-348.2a7.2 7.2 0 1 1 0-14.5 7.2 7.2 0 0 1 0 14.5" fill="#fff99"/><path d="M-58.5-276.2a7.3 7.3 0 1 1 0-14.6 7.3 7.3 0 0 1 0 14.6" fill="#fff9B"/><path d="M-14.1-319.2a7.3 7.3 0 1 1 0-14.6 7.3 7.3 0 0 1 0 14.6" fill="#fff9B"/><path d="M-97.2-117.4a7.3 7.3 0 1 1 0-14.6 7.3 7.3 0 0 1 0 14.6" fill="#005bbb9B"/><path d="M258.5-28.5a7.3 7.3 0 1 1 0-14.7 7.3 7.3 0 0 1 0 14.7" fill="#c2e1ff9C"/><path d="M-14.9 12.2a7.3 7.3 0 1 1 0-14.7 7.3 7.3 0 0 1 0 14.7" fill="#c2e1ff9C"/><path d="M-102.1-174.4a7.3 7.3 0 1 1 0-14.7 7.3 7.3 0 0 1 0 14.7" fill="#005bbb9C"/><path d="M301.1-125.2a7.4 7.4 0 1 1 0-14.7 7.4 7.4 0 0 1 0 14.7" fill="#c2e1ff9C"/><path d="M175.1 41.9a7.5 7.5 0 1 1 0-15 7.5 7.5 0 0 1 0 15" fill="#005bbbA0"/><path d="M-50.3-304.5a7.6 7.6 0 1 1 0-15.1 7.6 7.6 0 0 1 0 15.1" fill="#c2e1ffA1"/><path d="M230.6 12.1a7.6 7.6 0 1 1 0-15.1 7.6 7.6 0 0 1 0 15.1" fill="#005bbbA1"/><path d="M314-147.2a7.6 7.6 0 1 1 0-15.2 7.6 7.6 0 0 1 0 15.2" fill="#c2e1ffA2"/><path d="M209.8 29.5a7.6 7.6 0 1 1 0-15.3 7.6 7.6 0 0 1 0 15.3" fill="#fff500A2"/><path d="M132 59.4a7.7 7.7 0 1 1 0-15.3 7.7 7.7 0 0 1 0 15.3" fill="#c2e1ffA4"/><path d="M149.2 56.3a7.7 7.7 0 1 1 0-15.3 7.7 7.7 0 0 1 0 15.3" fill="#fffA4"/><path d="M310.8-87.8a7.8 7.8 0 1 1 0-15.7 7.8 7.8 0 0 1 0 15.7" fill="#fffA7"/><path d="M165.1-367.3a7.9 7.9 0 1 1 0-15.7 7.9 7.9 0 0 1 0 15.7" fill="#fffA8"/><path d="M-123.2-157a7.9 7.9 0 1 1 0-15.8 7.9 7.9 0 0 1 0 15.8" fill="#c2e1ffA8"/><path d="M239.3-330.5a7.9 7.9 0 1 1 0-15.9 7.9 7.9 0 0 1 0 15.9" fill="#005bbbA9"/><path d="M-55.8 7.3a7.9 7.9 0 1 1 0-15.9 7.9 7.9 0 0 1 0 15.9" fill="#c2e1ffA9"/><path d="M-124.9-166a8 8 0 1 1 0-16 8 8 0 0 1 0 16" fill="#c2e1ffAA"/><path d="M106.4 71.7a8 8 0 1 1 0-16 8 8 0 0 1 0 16" fill="#fff500AB"/><path d="M315.7-84.8a8 8 0 1 1 0-16 8 8 0 0 1 0 16" fill="#005bbbAB"/><path d="M-81.3-16.9a8.1 8.1 0 1 1 0-16.1 8.1 8.1 0 0 1 0 16.1" fill="#fffAC"/><path d="M-9.9-353.9a8.1 8.1 0 1 1 0-16.2 8.1 8.1 0 0 1 0 16.2" fill="#c2e1ffAC"/><path d="M152.1-376.2a8.1 8.1 0 1 1 0-16.1 8.1 8.1 0 0 1 0 16.1" fill="#005bbbAC"/><path d="M30.5 63.2a8.1 8.1 0 1 1 0-16.2 8.1 8.1 0 0 1 0 16.2" fill="#c2e1ffAD"/><path d="M115.3-382.3a8.1 8.1 0 1 1 0-16.2 8.1 8.1 0 0 1 0 16.2" fill="#fffAD"/><path d="M-111-242.5a8.1 8.1 0 1 1 0-16.2 8.1 8.1 0 0 1 0 16.2" fill="#fff500AD"/><path d="M-121.3-214.7a8.2 8.2 0 1 1 0-16.4 8.2 8.2 0 0 1 0 16.4" fill="#c2e1ffAE"/><path d="M26.3 63.2a8.2 8.2 0 1 1 0-16.3 8.2 8.2 0 0 1 0 16.3" fill="#fff500AE"/><path d="M37.4-376.4a8.2 8.2 0 1 1 0-16.5 8.2 8.2 0 0 1 0 16.5" fill="#fffB0"/><path d="M-47-332.2a8.2 8.2 0 1 1 0-16.4 8.2 8.2 0 0 1 0 16.4" fill="#005bbbB0"/><path d="M-70.4 2.2a8.3 8.3 0 1 1 0-16.6 8.3 8.3 0 0 1 0 16.6" fill="#005bbbB0"/><path d="M58.4-382.1a8.3 8.3 0 1 1 0-16.6 8.3 8.3 0 0 1 0 16.6" fill="#005bbbB1"/><path d="M-56.4-325.3a8.3 8.3 0 1 1 0-16.6 8.3 8.3 0 0 1 0 16.6" fill="#c2e1ffB1"/><path d="M142.8 73.8a8.3 8.3 0 1 1 0-16.6 8.3 8.3 0 0 1 0 16.6" fill="#005bbbB1"/><path d="M279.8-301.4a8.3 8.3 0 1 1 0-16.6 8.3 8.3 0 0 1 0 16.6" fill="#fffB2"/><path d="M218.5-354.3a8.3 8.3 0 1 1 0-16.7 8.3 8.3 0 0 1 0 16.7" fill="#fff500B2"/><path d="M211.1 50.4a8.4 8.4 0 1 1 0-16.7 8.4 8.4 0 0 1 0 16.7" fill="#fffB2"/><path d="M-124.5-218.6a8.4 8.4 0 1 1 0-16.8 8.4 8.4 0 0 1 0 16.8" fill="#fff500B4"/><path d="M-129.3-107.9a8.4 8.4 0 1 1 0-16.9 8.4 8.4 0 0 1 0 16.9" fill="#fff500B4"/><path d="M-13.1-358.9a8.5 8.5 0 1 1 0-16.9 8.5 8.5 0 0 1 0 16.9" fill="#fff500B4"/><path d="M104.2 80a8.5 8.5 0 1 1 0-16.9 8.5 8.5 0 0 1 0 16.9" fill="#c2e1ffB5"/><path d="M-88.2-295.2a8.6 8.6 0 1 1 0-17.2 8.6 8.6 0 0 1 0 17.2" fill="#c2e1ffB8"/><path d="M35 72.2a8.6 8.6 0 1 1 0-17.2 8.6 8.6 0 0 1 0 17.2" fill="#fffB8"/><path d="M185.7 65.6a8.6 8.6 0 1 1 0-17.3 8.6 8.6 0 0 1 0 17.3" fill="#005bbbB9"/><path d="M-113.2-53.5a8.7 8.7 0 1 1 0-17.3 8.7 8.7 0 0 1 0 17.3" fill="#c2e1ffB9"/><path d="M239-344.5a8.7 8.7 0 1 1 0-17.5 8.7 8.7 0 0 1 0 17.5" fill="#c2e1ffBB"/><path d="M256.5-330.6a8.8 8.8 0 1 1 0-17.6 8.8 8.8 0 0 1 0 17.6" fill="#005bbbBC"/><path d="M-37.8 38.2a8.9 8.9 0 1 1 0-17.8 8.9 8.9 0 0 1 0 17.8" fill="#fff500BF"/><path d="M-128-215.1a8.9 8.9 0 1 1 0-17.9 8.9 8.9 0 0 1 0 17.9" fill="#c2e1ffBF"/><path d="M24.2 70a9 9 0 1 1 0-17.9 9 9 0 0 1 0 17.9" fill="#fff500C0"/><path d="M317.5-62.1a9 9 0 1 1 0-18 9 9 0 0 1 0 18" fill="#fffC1"/><path d="M224.6-353.8a9 9 0 1 1 0-18 9 9 0 0 1 0 18" fill="#c2e1ffC1"/><path d="M321.8-233.8a9 9 0 1 1 0-18.1 9 9 0 0 1 0 18.1" fill="#fff500C1"/><path d="M319.5-69a9.1 9.1 0 1 1 0-18.3 9.1 9.1 0 0 1 0 18.3" fill="#c2e1ffC4"/><path d="M-62-323.7a9.1 9.1 0 1 1 0-18.3 9.1 9.1 0 0 1 0 18.3" fill="#fff500C4"/><path d="M-61.3 17.4a9.2 9.2 0 1 1 0-18.3 9.2 9.2 0 0 1 0 18.3" fill="#c2e1ffC4"/><path d="M-111.7-54.6a9.3 9.3 0 1 1 0-18.6 9.3 9.3 0 0 1 0 18.6" fill="#fff500C7"/><path d="M57.3 75.7a9.4 9.4 0 1 1 0-18.7 9.4 9.4 0 0 1 0 18.7" fill="#fffC9"/><path d="M-107.9-49.4a9.4 9.4 0 1 1 0-18.8 9.4 9.4 0 0 1 0 18.8" fill="#fff500C9"/><path d="M162.5-374.8a9.5 9.5 0 1 1 0-19.1 9.5 9.5 0 0 1 0 19.1" fill="#fffCC"/><path d="M213.1 47.4a9.5 9.5 0 1 1 0-19 9.5 9.5 0 0 1 0 19" fill="#c2e1ffCC"/><path d="M-79.2-8.8a9.5 9.5 0 1 1 0-19.1 9.5 9.5 0 0 1 0 19.1" fill="#fff500CC"/><path d="M292.2-27.3a9.6 9.6 0 1 1 0-19.1 9.6 9.6 0 0 1 0 19.1" fill="#005bbbCD"/><path d="M304.5-48.9a9.6 9.6 0 1 1 0-19.1 9.6 9.6 0 0 1 0 19.1" fill="#fffCD"/><path d="M69.7 74.1a9.6 9.6 0 1 1 0-19.1 9.6 9.6 0 0 1 0 19.1" fill="#005bbbCD"/><path d="M-43.8 23a9.7 9.7 0 1 1 0-19.3 9.7 9.7 0 0 1 0 19.3" fill="#005bbbCF"/><path d="M327.1-152.8a9.7 9.7 0 1 1 0-19.4 9.7 9.7 0 0 1 0 19.4" fill="#c2e1ffCF"/><path d="M230.2 32.5a9.7 9.7 0 1 1 0-19.3 9.7 9.7 0 0 1 0 19.3" fill="#fff500D0"/><path d="M-55.4-316.5a9.7 9.7 0 1 1 0-19.4 9.7 9.7 0 0 1 0 19.4" fill="#fffD1"/><path d="M49 66.8a9.7 9.7 0 1 1 0-19.5 9.7 9.7 0 0 1 0 19.5" fill="#fff500D1"/><path d="M-102.9-56a9.8 9.8 0 1 1 0-19.6 9.8 9.8 0 0 1 0 19.6" fill="#fffD2"/><path d="M-108.1-236.8a9.8 9.8 0 1 1 0-19.6 9.8 9.8 0 0 1 0 19.6" fill="#fff500D2"/><path d="M-121.4-127.7a9.8 9.8 0 1 1 0-19.7 9.8 9.8 0 0 1 0 19.7" fill="#c2e1ffD3"/><path d="M-120.2-178.4a9.9 9.9 0 1 1 0-19.8 9.9 9.9 0 0 1 0 19.8" fill="#fffD4"/><path d="M41.2 59.1a9.9 9.9 0 1 1 0-19.9 9.9 9.9 0 0 1 0 19.9" fill="#005bbbD5"/><path d="M-63.7-6.7a10 10 0 1 1 0-19.9 10 10 0 0 1 0 19.9" fill="#fff500D6"/><path d="M105.4 66a10 10 0 1 1 0-19.9 10 10 0 0 1 0 19.9" fill="#fffD6"/><path d="M-54.6 1.9a10 10 0 1 1 0-19.9 10 10 0 0 1 0 19.9" fill="#fffD6"/><path d="M56-366.4a10 10 0 1 1 0-20 10 10 0 0 1 0 20" fill="#fffD6"/><path d="M-26.9-330.1a10 10 0 1 1 0-20 10 10 0 0 1 0 20" fill="#fffD6"/><path d="M128.5-366a10.1 10.1 0 1 1 0-20.1 10.1 10.1 0 0 1 0 20.1" fill="#c2e1ffD8"/><path d="M307.4-207.9a10.1 10.1 0 1 1 0-20.2 10.1 10.1 0 0 1 0 20.2" fill="#005bbbD9"/><path d="M266.4-17a10.1 10.1 0 1 1 0-20.2 10.1 10.1 0 0 1 0 20.2" fill="#fffD9"/><path d="M-76.6-31.7a10.1 10.1 0 1 1 0-20.2 10.1 10.1 0 0 1 0 20.2" fill="#c2e1ffD9"/><path d="M313.6-142.9a10.1 10.1 0 1 1 0-20.2 10.1 10.1 0 0 1 0 20.2" fill="#fff500D9"/><path d="M-110-117.9a10.1 10.1 0 1 1 0-20.3 10.1 10.1 0 0 1 0 20.3" fill="#005bbbDA"/><path d="M-13.4-330.4a10.2 10.2 0 1 1 0-20.4 10.2 10.2 0 0 1 0 20.4" fill="#c2e1ffDB"/><path d="M297.8-78.9a10.2 10.2 0 1 1 0-20.4 10.2 10.2 0 0 1 0 20.4" fill="#c2e1ffDB"/><path d="M297.8-225a10.2 10.2 0 1 1 0-20.4 10.2 10.2 0 0 1 0 20.4" fill="#fff500DB"/><path d="M308.6-134.3a10.2 10.2 0 1 1 0-20.4 10.2 10.2 0 0 1 0 20.4" fill="#c2e1ffDC"/><path d="M-59.9-24.4a10.3 10.3 0 1 1 0-20.7 10.3 10.3 0 0 1 0 20.7" fill="#fff500DE"/><path d="M158.6 43.6a10.3 10.3 0 1 1 0-20.7 10.3 10.3 0 0 1 0 20.7" fill="#fffDE"/><path d="M-78.6-55.1a10.4 10.4 0 1 1 0-20.7 10.4 10.4 0 0 1 0 20.7" fill="#005bbbDF"/><path d="M148.2 41.9a10.4 10.4 0 1 1 0-20.9 10.4 10.4 0 0 1 0 20.9" fill="#c2e1ffE0"/><path d="M226.4-300.3a10.5 10.5 0 1 1 0-21.1 10.5 10.5 0 0 1 0 21.1" fill="#005bbbE2"/><path d="M177.7 26.4a10.5 10.5 0 1 1 0-21.1 10.5 10.5 0 0 1 0 21.1" fill="#005bbbE2"/><path d="M35.2-333.1a10.6 10.6 0 1 1 0-21.2 10.6 10.6 0 0 1 0 21.2" fill="#c2e1ffE3"/><path d="M118.9 37.5a10.6 10.6 0 1 1 0-21.2 10.6 10.6 0 0 1 0 21.2" fill="#fffE4"/><path d="M-46.4-34.9a10.7 10.7 0 1 1 0-21.3 10.7 10.7 0 0 1 0 21.3" fill="#fffE5"/><path d="M-48-40.2a10.7 10.7 0 1 1 0-21.4 10.7 10.7 0 0 1 0 21.4" fill="#c2e1ffE6"/><path d="M135-328.3a10.8 10.8 0 1 1 0-21.5 10.8 10.8 0 0 1 0 21.5" fill="#fffE8"/><path d="M272.1-194a10.8 10.8 0 1 1 0-21.6 10.8 10.8 0 0 1 0 21.6" fill="#005bbbE8"/><path d="M245-250.7a10.8 10.8 0 1 1 0-21.7 10.8 10.8 0 0 1 0 21.7" fill="#c2e1ffE9"/><path d="M116.2 16.7a10.9 10.9 0 1 1 0-21.9 10.9 10.9 0 0 1 0 21.9" fill="#fff500EB"/><path d="M-53.9-83.2a10.9 10.9 0 1 1 0-21.9 10.9 10.9 0 0 1 0 21.9" fill="#c2e1ffEB"/><path d="M209.6-270.2a11 11 0 1 1 0-22 11 11 0 0 1 0 22" fill="#fffED"/><path d="M34-5.9a11 11 0 1 1 0-22 11 11 0 0 1 0 22" fill="#fffED"/><path d="M30.5-10.7a11.1 11.1 0 1 1 0-22.2 11.1 11.1 0 0 1 0 22.2" fill="#fff500EE"/><path d="M-30-229.4a11.1 11.1 0 1 1 0-22.2 11.1 11.1 0 0 1 0 22.2" fill="#fff500EF"/><path d="M246.6-184.2a11.1 11.1 0 1 1 0-22.2 11.1 11.1 0 0 1 0 22.2" fill="#005bbbF0"/><path d="M141.9-288.2a11.2 11.2 0 1 1 0-22.5 11.2 11.2 0 0 1 0 22.5" fill="#fff500F1"/><path d="M234.5-102.5a11.2 11.2 0 1 1 0-22.4 11.2 11.2 0 0 1 0 22.4" fill="#fff500F1"/><path d="M226.1-97.7a11.3 11.3 0 1 1 0-22.5 11.3 11.3 0 0 1 0 22.5" fill="#fffF2"/><path d="M219.1-85.4a11.3 11.3 0 1 1 0-22.5 11.3 11.3 0 0 1 0 22.5" fill="#fff500F3"/><path d="M55.1-33.6a11.4 11.4 0 1 1 0-22.7 11.4 11.4 0 0 1 0 22.7" fill="#c2e1ffF5"/><path d="M165.4-47.6a11.4 11.4 0 1 1 0-22.7 11.4 11.4 0 0 1 0 22.7" fill="#fff500F5"/><path d="M219.3-141.7a11.4 11.4 0 1 1 0-22.8 11.4 11.4 0 0 1 0 22.8" fill="#c2e1ffF6"/><path d="M189-76.5a11.4 11.4 0 1 1 0-22.8 11.4 11.4 0 0 1 0 22.8" fill="#fff500F6"/><path d="M157.7-50.6a11.4 11.4 0 1 1 0-22.9 11.4 11.4 0 0 1 0 22.9" fill="#fffF6"/><path d="M129.7-261.7a11.4 11.4 0 1 1 0-22.9 11.4 11.4 0 0 1 0 22.9" fill="#fff500F6"/><path d="M5.6-212.6a11.5 11.5 0 1 1 0-22.9 11.5 11.5 0 0 1 0 22.9" fill="#fff500F7"/><path d="M175-67.1a11.5 11.5 0 1 1 0-22.9 11.5 11.5 0 0 1 0 22.9" fill="#fff500F7"/><path d="M148.5-51.7a11.5 11.5 0 1 1 0-22.9 11.5 11.5 0 0 1 0 22.9" fill="#fff500F7"/><path d="M133-46.9a11.5 11.5 0 1 1 0-22.9 11.5 11.5 0 0 1 0 22.9" fill="#005bbbF7"/><path d="M50.2-247.2a11.5 11.5 0 1 1 0-23 11.5 11.5 0 0 1 0 23" fill="#c2e1ffF7"/><path d="M95.8-249.4a11.5 11.5 0 1 1 0-23.1 11.5 11.5 0 0 1 0 23.1" fill="#c2e1ffF9"/><path d="M20.1-168.3a11.6 11.6 0 1 1 0-23.3 11.6 11.6 0 0 1 0 23.3" fill="#c2e1ffFA"/><path d="M86.5-192.2a11.8 11.8 0 1 1 0-23.6 11.8 11.8 0 0 1 0 23.6" fill="#c2e1ffFD"/><path d="M125.8-182.4a11.8 11.8 0 1 1 0-23.5 11.8 11.8 0 0 1 0 23.5" fill="#fffFE"/><path d="M117.4-137.5a11.8 11.8 0 1 1 0-23.6 11.8 11.8 0 0 1 0 23.6" fill="#c2e1ffFE"/></g></svg>