<svg width="1200" height="675" viewBox="-500 -500 1200 675" xmlns="http://www.w3.org/2000/svg"><path d="M-500-500h1200v675h-1200z" fill="#000"/><style>.sparkles path{stroke-linecap:round; stroke-width:1}</style><g class="sparkles"><path d="M100-162.5l-27.3 22.8" stroke="#005bbb32"/><path d="M100-162.5l-16.8 74.3" stroke="#fff34"/><path d="M100-162.5l41.8-72.1" stroke="#c2e1ff35"/><path d="M100-162.5l-74.5-49.6" stroke="#fff35"/><path d="M100-162.5l-0.6 90.7" stroke="#005bbb35"/><path d="M100-162.5l-32.3-88.3" stroke="#005bbb36"/><path d="M100-162.5l-82.9 45.9" stroke="#fff36"/><path d="M100-162.5l-86.7-42.4" stroke="#fff36"/><path d="M100-162.5l85.1 76.5" stroke="#fff38"/><path d="M100-162.5l-2.5 122.6" stroke="#fff39"/><path d="M100-162.5l116.9-38.3" stroke="#005bbb39"/><path d="M100-162.5l86.4-92.1" stroke="#fff50039"/><path d="M100-162.5l32 129.4" stroke="#fff5003A"/><path d="M100-162.5l130-43" stroke="#fff5003B"/><path d="M100-162.5l-62.3-134.7" stroke="#c2e1ff3D"/><path d="M100-162.5l86.7-120.5" stroke="#fff5003D"/><path d="M100-162.5l149.4 32.3" stroke="#fff3D"/><path d="M100-162.5l-79.1-135.2" stroke="#fff3E"/><path d="M100-162.5l-160.5-2.3" stroke="#fff5003F"/><path d="M100-162.5l66.1-147.8" stroke="#005bbb3F"/><path d="M100-162.5l85.3 139.5" stroke="#005bbb3F"/><path d="M100-162.5l-159.9 46.9" stroke="#fff50040"/><path d="M100-162.5l166.5 14.3" stroke="#fff40"/><path d="M100-162.5l130 110.3" stroke="#c2e1ff41"/><path d="M100-162.5l80.3 153.8" stroke="#fff42"/><path d="M100-162.5l174-4.8" stroke="#c2e1ff42"/><path d="M100-162.5l99.4 143" stroke="#c2e1ff42"/><path d="M100-162.5l176 25.9" stroke="#005bbb43"/><path d="M100-162.5l-91.4-155.4" stroke="#005bbb43"/><path d="M100-162.5l-54.5-173.6" stroke="#fff50044"/><path d="M100-162.5l-164.3 87.1" stroke="#c2e1ff45"/><path d="M100-162.5l189.3-6.5" stroke="#005bbb46"/><path d="M100-162.5l-173.8-80.9" stroke="#005bbb46"/><path d="M100-162.5l54.1-184.7" stroke="#fff50046"/><path d="M100-162.5l158.8-112.4" stroke="#fff50047"/><path d="M100-162.5l-168.2-99.3" stroke="#c2e1ff47"/><path d="M100-162.5l-194.2 23" stroke="#fff47"/><path d="M100-162.5l155-122.6" stroke="#c2e1ff48"/><path d="M100-162.5l-195.3-43.4" stroke="#005bbb49"/><path d="M100-162.5l-16 204.7" stroke="#fff4B"/><path d="M100-162.5l-102-184.5" stroke="#c2e1ff4D"/><path d="M100-162.5l-83.6-194.8" stroke="#005bbb4D"/><path d="M100-162.5l-13.4-211.8" stroke="#fff5004E"/><path d="M100-162.5l-15.9-211.7" stroke="#005bbb4E"/><path d="M100-162.5l46.3 210.6" stroke="#c2e1ff4F"/><path d="M100-162.5l190.9-101.7" stroke="#fff5004F"/><path d="M100-162.5l-173.5 130.5" stroke="#fff50"/><path d="M100-162.5l67.3 208" stroke="#fff50051"/><path d="M100-162.5l-211.6 56.5" stroke="#fff50051"/><path d="M100-162.5l170.1 139.9" stroke="#005bbb51"/><path d="M100-162.5l-176.1 133.8" stroke="#fff52"/><path d="M100-162.5l-56.2 214.1" stroke="#005bbb52"/><path d="M100-162.5l210.6-68.7" stroke="#005bbb52"/><path d="M100-162.5l207.8 80.9" stroke="#fff53"/><path d="M100-162.5l-203.3 92.6" stroke="#fff50053"/><path d="M100-162.5l-188.8-119.5" stroke="#fff53"/><path d="M100-162.5l215.4-64.9" stroke="#fff54"/><path d="M100-162.5l203.4-97.3" stroke="#fff50055"/><path d="M100-162.5l226.3-2.9" stroke="#005bbb55"/><path d="M100-162.5l222.1-50.2" stroke="#fff56"/><path d="M100-162.5l-15.7-228" stroke="#c2e1ff57"/><path d="M100-162.5l-219.8-67.4" stroke="#c2e1ff58"/><path d="M100-162.5l201.2-111.7" stroke="#c2e1ff58"/><path d="M100-162.5l-108.5 203.9" stroke="#fff59"/><path d="M100-162.5l201.4 113.2" stroke="#c2e1ff59"/><path d="M100-162.5l211.1-94" stroke="#fff59"/><path d="M100-162.5l149.3-177.4" stroke="#c2e1ff5A"/><path d="M100-162.5l108.9 205" stroke="#fff5A"/><path d="M100-162.5l70 221.6" stroke="#c2e1ff5B"/><path d="M100-162.5l-186.6-140.9" stroke="#c2e1ff5C"/><path d="M100-162.5l-234.2 17.1" stroke="#fff5E"/><path d="M100-162.5l213.2-98.9" stroke="#fff5E"/><path d="M100-162.5l235 0" stroke="#005bbb5E"/><path d="M100-162.5l173.2 158.9" stroke="#fff5E"/><path d="M100-162.5l-80 221.1" stroke="#fff5F"/><path d="M100-162.5l-9.1-235.5" stroke="#fff60"/><path d="M100-162.5l-127.1-198.7" stroke="#fff50061"/><path d="M100-162.5l220.5-83.7" stroke="#fff50061"/><path d="M100-162.5l-141.3 189.2" stroke="#c2e1ff62"/><path d="M100-162.5l-226.9-65.3" stroke="#c2e1ff62"/><path d="M100-162.5l220.4-84.9" stroke="#fff50062"/><path d="M100-162.5l219.3-87.8" stroke="#fff50063"/><path d="M100-162.5l230-53.8" stroke="#fff50063"/><path d="M100-162.5l13.4 235.9" stroke="#c2e1ff63"/><path d="M100-162.5l233-39.1" stroke="#c2e1ff64"/><path d="M100-162.5l-36.6-233.3" stroke="#c2e1ff65"/><path d="M100-162.5l-90.8 218" stroke="#c2e1ff65"/><path d="M100-162.5l-172-161.7" stroke="#c2e1ff65"/><path d="M100-162.5l-57.7-228.9" stroke="#c2e1ff65"/><path d="M100-162.5l-229.3-55.9" stroke="#fff50066"/><path d="M100-162.5l221.3 82" stroke="#fff66"/><path d="M100-162.5l-170-163.6" stroke="#005bbb66"/><path d="M100-162.5l-103.1 212.1" stroke="#fff66"/><path d="M100-162.5l226-67.1" stroke="#fff50067"/><path d="M100-162.5l65.4-226.5" stroke="#005bbb67"/><path d="M100-162.5l27.7 234.1" stroke="#fff50067"/><path d="M100-162.5l215.2 96" stroke="#005bbb67"/><path d="M100-162.5l134.9 191.3" stroke="#c2e1ff6A"/><path d="M100-162.5l-164.8-166" stroke="#fff5006B"/><path d="M100-162.5l-186.8 140.7" stroke="#c2e1ff6B"/><path d="M100-162.5l161.4 168.6" stroke="#c2e1ff6B"/><path d="M100-162.5l154.9-173.8" stroke="#fff5006C"/><path d="M100-162.5l229.9-36.9" stroke="#c2e1ff6C"/><path d="M100-162.5l150.5 176.5" stroke="#c2e1ff6D"/><path d="M100-162.5l79.8 217.6" stroke="#c2e1ff6D"/><path d="M100-162.5l10.7-230.9" stroke="#fff6E"/><path d="M100-162.5l155.5-170.4" stroke="#fff5006E"/><path d="M100-162.5l-220.5-64.7" stroke="#005bbb6F"/><path d="M100-162.5l-80.8-214.4" stroke="#005bbb70"/><path d="M100-162.5l-166.6 156.9" stroke="#fff50070"/><path d="M100-162.5l144.3-177" stroke="#fff50070"/><path d="M100-162.5l-35.9 224.6" stroke="#fff71"/><path d="M100-162.5l-78.5-212.5" stroke="#c2e1ff72"/><path d="M100-162.5l-214 69.8" stroke="#c2e1ff73"/><path d="M100-162.5l224.3-1.1" stroke="#005bbb73"/><path d="M100-162.5l-183.3 125" stroke="#c2e1ff75"/><path d="M100-162.5l-154.5-159" stroke="#c2e1ff75"/><path d="M100-162.5l-201.9-87.6" stroke="#005bbb76"/><path d="M100-162.5l-186.6-116.3" stroke="#005bbb76"/><path d="M100-162.5l218.2 26.5" stroke="#005bbb76"/><path d="M100-162.5l11.7 218.9" stroke="#005bbb76"/><path d="M100-162.5l85.1-199.3" stroke="#fff50077"/><path d="M100-162.5l216.3 10.1" stroke="#fff78"/><path d="M100-162.5l57.2 206.8" stroke="#fff78"/><path d="M100-162.5l165.3-136" stroke="#005bbb79"/><path d="M100-162.5l91.1-192.8" stroke="#fff50079"/><path d="M100-162.5l176.2 119.6" stroke="#005bbb79"/><path d="M100-162.5l-212-1.4" stroke="#fff7A"/><path d="M100-162.5l-181.5-107.4" stroke="#fff7A"/><path d="M100-162.5l-187.7-95.6" stroke="#fff7A"/><path d="M100-162.5l-205 48.4" stroke="#c2e1ff7A"/><path d="M100-162.5l-203.2 54.9" stroke="#fff7A"/><path d="M100-162.5l-140.6 151.8" stroke="#fff7C"/><path d="M100-162.5l-87.7 185.8" stroke="#005bbb7C"/><path d="M100-162.5l-127.4 159.6" stroke="#fff7D"/><path d="M100-162.5l134.8 152.4" stroke="#fff5007D"/><path d="M100-162.5l-200.2-36.5" stroke="#fff5007D"/><path d="M100-162.5l56.7 194.4" stroke="#c2e1ff7D"/><path d="M100-162.5l134.1 150.8" stroke="#fff5007D"/><path d="M100-162.5l-194.3 43.3" stroke="#005bbb7E"/><path d="M100-162.5l166-101.9" stroke="#005bbb80"/><path d="M100-162.5l-67.7-182.6" stroke="#005bbb80"/><path d="M100-162.5l-56.6-182.2" stroke="#c2e1ff81"/><path d="M100-162.5l-132.5 135.8" stroke="#fff50081"/><path d="M100-162.5l187.3 28.9" stroke="#fff81"/><path d="M100-162.5l-12.5 187.6" stroke="#fff82"/><path d="M100-162.5l-88.9 164.2" stroke="#c2e1ff82"/><path d="M100-162.5l3.7-180.8" stroke="#fff50084"/><path d="M100-162.5l130.3 122.8" stroke="#fff84"/><path d="M100-162.5l-70.1-163.5" stroke="#c2e1ff84"/><path d="M100-162.5l67.2-162.2" stroke="#fff85"/><path d="M100-162.5l36.3 171.6" stroke="#fff85"/><path d="M100-162.5l44.9-169" stroke="#c2e1ff85"/><path d="M100-162.5l97.5-138.5" stroke="#fff86"/><path d="M100-162.5l-164.1 41.2" stroke="#fff50086"/><path d="M100-162.5l160.4 49.7" stroke="#fff50087"/><path d="M100-162.5l102.4 123.7" stroke="#c2e1ff88"/><path d="M100-162.5l114.2-108.5" stroke="#c2e1ff89"/><path d="M100-162.5l86.9-130.7" stroke="#fff50089"/><path d="M100-162.5l41.5-149.2" stroke="#005bbb89"/><path d="M100-162.5l-146.8 39.3" stroke="#fff5008A"/><path d="M100-162.5l-93.3-115.3" stroke="#005bbb8A"/><path d="M100-162.5l-130 55.7" stroke="#fff5008C"/><path d="M100-162.5l-77.3 117.1" stroke="#005bbb8C"/><path d="M100-162.5l-49.4-130.5" stroke="#c2e1ff8C"/><path d="M100-162.5l-41.2 131" stroke="#005bbb8C"/><path d="M100-162.5l134.1 12.7" stroke="#c2e1ff8D"/><path d="M100-162.5l-110.6 70" stroke="#005bbb8D"/><path d="M100-162.5l27.6-124.5" stroke="#fff8E"/><path d="M100-162.5l-65.5 102.1" stroke="#fff8E"/><path d="M100-162.5l-114.9 14.1" stroke="#c2e1ff8F"/><path d="M100-162.5l-23.9-111.8" stroke="#c2e1ff8F"/><path d="M100-162.5l62 86.5" stroke="#fff90"/><path d="M100-162.5l101.5 14.4" stroke="#005bbb91"/><path d="M100-162.5l-95.8 23.5" stroke="#fff50091"/><path d="M100-162.5l55.6 78.3" stroke="#fff91"/><path d="M100-162.5l88.8-31.1" stroke="#c2e1ff91"/><path d="M100-162.5l-11-92.4" stroke="#fff91"/><path d="M100-162.5l-91.1 0" stroke="#fff50092"/><path d="M100-162.5l75.4-7.4" stroke="#c2e1ff93"/><path d="M100-162.5l32.4-48.7" stroke="#c2e1ff94"/></g><g class="sparcs"><path d="M72.7-133.8a5.9 5.9 0 1 1 0-11.8 5.9 5.9 0 0 1 0 11.8" fill="#c2e1ff7D"/><path d="M83.2-82.1a6.1 6.1 0 1 1 0-12.1 6.1 6.1 0 0 1 0 12.1" fill="#c2e1ff80"/><path d="M141.8-228.5a6.1 6.1 0 1 1 0-12.2 6.1 6.1 0 0 1 0 12.2" fill="#fff50081"/><path d="M25.5-206a6.1 6.1 0 1 1 0-12.3 6.1 6.1 0 0 1 0 12.3" fill="#fff50081"/><path d="M99.4-65.7a6.1 6.1 0 1 1 0-12.2 6.1 6.1 0 0 1 0 12.2" fill="#fff81"/><path d="M67.7-244.6a6.2 6.2 0 1 1 0-12.3 6.2 6.2 0 0 1 0 12.3" fill="#fff82"/><path d="M17.1-110.5a6.2 6.2 0 1 1 0-12.3 6.2 6.2 0 0 1 0 12.3" fill="#fff82"/><path d="M13.3-198.8a6.2 6.2 0 1 1 0-12.3 6.2 6.2 0 0 1 0 12.3" fill="#fff50082"/><path d="M185.1-79.7a6.3 6.3 0 1 1 0-12.6 6.3 6.3 0 0 1 0 12.6" fill="#fff85"/><path d="M97.5-33.5a6.3 6.3 0 1 1 0-12.7 6.3 6.3 0 0 1 0 12.7" fill="#c2e1ff86"/><path d="M216.9-194.5a6.3 6.3 0 1 1 0-12.7 6.3 6.3 0 0 1 0 12.7" fill="#fff86"/><path d="M186.4-248.2a6.4 6.4 0 1 1 0-12.8 6.4 6.4 0 0 1 0 12.8" fill="#fff87"/><path d="M132-26.7a6.4 6.4 0 1 1 0-12.8 6.4 6.4 0 0 1 0 12.8" fill="#c2e1ff88"/><path d="M230-199a6.5 6.5 0 1 1 0-12.9 6.5 6.5 0 0 1 0 12.9" fill="#c2e1ff89"/><path d="M37.7-290.6a6.6 6.6 0 1 1 0-13.1 6.6 6.6 0 0 1 0 13.1" fill="#005bbb8B"/><path d="M186.7-276.4a6.6 6.6 0 1 1 0-13.1 6.6 6.6 0 0 1 0 13.1" fill="#c2e1ff8B"/><path d="M249.4-123.6a6.6 6.6 0 1 1 0-13.2 6.6 6.6 0 0 1 0 13.2" fill="#fff8C"/><path d="M20.9-291.1a6.6 6.6 0 1 1 0-13.3 6.6 6.6 0 0 1 0 13.3" fill="#005bbb8D"/><path d="M-60.5-158.1a6.7 6.7 0 1 1 0-13.4 6.7 6.7 0 0 1 0 13.4" fill="#c2e1ff8E"/><path d="M166.1-303.6a6.7 6.7 0 1 1 0-13.5 6.7 6.7 0 0 1 0 13.5" fill="#c2e1ff8E"/><path d="M185.3-16.3a6.7 6.7 0 1 1 0-13.4 6.7 6.7 0 0 1 0 13.4" fill="#fff8F"/><path d="M-59.9-108.8a6.8 6.8 0 1 1 0-13.6 6.8 6.8 0 0 1 0 13.6" fill="#fff5008F"/><path d="M266.5-141.4a6.8 6.8 0 1 1 0-13.5 6.8 6.8 0 0 1 0 13.5" fill="#c2e1ff90"/><path d="M230-45.4a6.8 6.8 0 1 1 0-13.6 6.8 6.8 0 0 1 0 13.6" fill="#fff50091"/><path d="M180.3-1.8a6.9 6.9 0 1 1 0-13.7 6.9 6.9 0 0 1 0 13.7" fill="#005bbb91"/><path d="M274-160.5a6.9 6.9 0 1 1 0-13.7 6.9 6.9 0 0 1 0 13.7" fill="#fff50092"/><path d="M199.4-12.6a6.9 6.9 0 1 1 0-13.7 6.9 6.9 0 0 1 0 13.7" fill="#fff50092"/><path d="M276-129.7a6.9 6.9 0 1 1 0-13.9 6.9 6.9 0 0 1 0 13.9" fill="#fff50093"/><path d="M8.6-310.9a7 7 0 1 1 0-13.9 7 7 0 0 1 0 13.9" fill="#fff93"/><path d="M45.5-329.1a7 7 0 1 1 0-14 7 7 0 0 1 0 14" fill="#005bbb94"/><path d="M-64.3-68.4a7 7 0 1 1 0-14 7 7 0 0 1 0 14" fill="#005bbb95"/><path d="M289.3-161.9a7.1 7.1 0 1 1 0-14.2 7.1 7.1 0 0 1 0 14.2" fill="#fff50097"/><path d="M-73.8-236.3a7.1 7.1 0 1 1 0-14.3 7.1 7.1 0 0 1 0 14.3" fill="#c2e1ff98"/><path d="M154.1-340a7.1 7.1 0 1 1 0-14.3 7.1 7.1 0 0 1 0 14.3" fill="#005bbb98"/><path d="M258.8-267.7a7.2 7.2 0 1 1 0-14.3 7.2 7.2 0 0 1 0 14.3" fill="#c2e1ff99"/><path d="M-68.2-254.6a7.2 7.2 0 1 1 0-14.4 7.2 7.2 0 0 1 0 14.4" fill="#fff50099"/><path d="M-94.2-132.3a7.2 7.2 0 1 1 0-14.4 7.2 7.2 0 0 1 0 14.4" fill="#c2e1ff99"/><path d="M255-277.9a7.2 7.2 0 1 1 0-14.5 7.2 7.2 0 0 1 0 14.5" fill="#fff9A"/><path d="M-95.3-198.6a7.3 7.3 0 1 1 0-14.6 7.3 7.3 0 0 1 0 14.6" fill="#005bbb9B"/><path d="M84 49.6a7.4 7.4 0 1 1 0-14.8 7.4 7.4 0 0 1 0 14.8" fill="#005bbb9D"/><path d="M-2-339.5a7.5 7.5 0 1 1 0-15.1 7.5 7.5 0 0 1 0 15.1" fill="#c2e1ffA0"/><path d="M16.4-349.8a7.6 7.6 0 1 1 0-15.1 7.6 7.6 0 0 1 0 15.1" fill="#fff500A1"/><path d="M86.6-366.8a7.6 7.6 0 1 1 0-15.1 7.6 7.6 0 0 1 0 15.1" fill="#fff500A1"/><path d="M84.1-366.6a7.6 7.6 0 1 1 0-15.1 7.6 7.6 0 0 1 0 15.1" fill="#fff500A1"/><path d="M146.3 55.8a7.7 7.7 0 1 1 0-15.3 7.7 7.7 0 0 1 0 15.3" fill="#fffA3"/><path d="M290.9-256.6a7.7 7.7 0 1 1 0-15.3 7.7 7.7 0 0 1 0 15.3" fill="#005bbbA3"/><path d="M-73.5-24.3a7.7 7.7 0 1 1 0-15.4 7.7 7.7 0 0 1 0 15.4" fill="#c2e1ffA4"/><path d="M167.3 53.3a7.7 7.7 0 1 1 0-15.5 7.7 7.7 0 0 1 0 15.5" fill="#c2e1ffA5"/><path d="M-111.6-98.2a7.8 7.8 0 1 1 0-15.5 7.8 7.8 0 0 1 0 15.5" fill="#c2e1ffA5"/><path d="M270.1-14.8a7.8 7.8 0 1 1 0-15.6 7.8 7.8 0 0 1 0 15.6" fill="#fffA6"/><path d="M-76.1-20.9a7.8 7.8 0 1 1 0-15.7 7.8 7.8 0 0 1 0 15.7" fill="#fffA7"/><path d="M43.8 59.4a7.8 7.8 0 1 1 0-15.7 7.8 7.8 0 0 1 0 15.7" fill="#005bbbA7"/><path d="M310.6-223.3a7.8 7.8 0 1 1 0-15.7 7.8 7.8 0 0 1 0 15.7" fill="#c2e1ffA7"/><path d="M307.8-73.7a7.9 7.9 0 1 1 0-15.8 7.9 7.9 0 0 1 0 15.8" fill="#005bbbA8"/><path d="M-103.3-62a7.9 7.9 0 1 1 0-15.8 7.9 7.9 0 0 1 0 15.8" fill="#fff500A8"/><path d="M-88.8-274.1a7.9 7.9 0 1 1 0-15.8 7.9 7.9 0 0 1 0 15.8" fill="#c2e1ffA8"/><path d="M315.4-219.5a8 8 0 1 1 0-15.9 8 8 0 0 1 0 15.9" fill="#c2e1ffAA"/><path d="M303.4-251.8a8 8 0 1 1 0-15.9 8 8 0 0 1 0 15.9" fill="#005bbbAA"/><path d="M326.3-157.4a8 8 0 1 1 0-16 8 8 0 0 1 0 16" fill="#fff500AB"/><path d="M322.1-204.7a8.1 8.1 0 1 1 0-16.1 8.1 8.1 0 0 1 0 16.1" fill="#c2e1ffAC"/><path d="M84.3-382.4a8.1 8.1 0 1 1 0-16.2 8.1 8.1 0 0 1 0 16.2" fill="#fff500AD"/><path d="M-119.8-221.8a8.2 8.2 0 1 1 0-16.3 8.2 8.2 0 0 1 0 16.3" fill="#fffAF"/><path d="M301.2-266a8.2 8.2 0 1 1 0-16.4 8.2 8.2 0 0 1 0 16.4" fill="#fff500AF"/><path d="M-8.5 49.7a8.2 8.2 0 1 1 0-16.5 8.2 8.2 0 0 1 0 16.5" fill="#fffB0"/><path d="M301.4-41.1a8.2 8.2 0 1 1 0-16.4 8.2 8.2 0 0 1 0 16.4" fill="#005bbbB0"/><path d="M311.1-248.2a8.2 8.2 0 1 1 0-16.5 8.2 8.2 0 0 1 0 16.5" fill="#fff500B0"/><path d="M249.3-331.6a8.3 8.3 0 1 1 0-16.6 8.3 8.3 0 0 1 0 16.6" fill="#fff500B1"/><path d="M208.9 50.8a8.3 8.3 0 1 1 0-16.7 8.3 8.3 0 0 1 0 16.7" fill="#c2e1ffB1"/><path d="M170 67.4a8.3 8.3 0 1 1 0-16.6 8.3 8.3 0 0 1 0 16.6" fill="#fffB2"/><path d="M-86.6-294.9a8.4 8.4 0 1 1 0-16.9 8.4 8.4 0 0 1 0 16.9" fill="#005bbbB4"/><path d="M-134.2-136.8a8.5 8.5 0 1 1 0-17.1 8.5 8.5 0 0 1 0 17.1" fill="#c2e1ffB6"/><path d="M313.2-252.9a8.6 8.6 0 1 1 0-17.1 8.6 8.6 0 0 1 0 17.1" fill="#fff500B7"/><path d="M335-153.9a8.6 8.6 0 1 1 0-17.2 8.6 8.6 0 0 1 0 17.2" fill="#c2e1ffB7"/><path d="M273.2 4.9a8.6 8.6 0 1 1 0-17.1 8.6 8.6 0 0 1 0 17.1" fill="#005bbbB7"/><path d="M20 67.2a8.6 8.6 0 1 1 0-17.2 8.6 8.6 0 0 1 0 17.2" fill="#fff500B7"/><path d="M90.9-389.4a8.7 8.7 0 1 1 0-17.3 8.7 8.7 0 0 1 0 17.3" fill="#005bbbB9"/><path d="M-27.1-352.5a8.7 8.7 0 1 1 0-17.3 8.7 8.7 0 0 1 0 17.3" fill="#c2e1ffBA"/><path d="M320.5-237.5a8.7 8.7 0 1 1 0-17.4 8.7 8.7 0 0 1 0 17.4" fill="#005bbbBA"/><path d="M-41.3 35.4a8.8 8.8 0 1 1 0-17.5 8.8 8.8 0 0 1 0 17.5" fill="#fff500BB"/><path d="M-126.9-219a8.8 8.8 0 1 1 0-17.6 8.8 8.8 0 0 1 0 17.6" fill="#fffBB"/><path d="M320.4-238.6a8.8 8.8 0 1 1 0-17.6 8.8 8.8 0 0 1 0 17.6" fill="#fffBC"/><path d="M319.3-241.5a8.8 8.8 0 1 1 0-17.7 8.8 8.8 0 0 1 0 17.7" fill="#c2e1ffBD"/><path d="M330-207.5a8.8 8.8 0 1 1 0-17.7 8.8 8.8 0 0 1 0 17.7" fill="#c2e1ffBD"/><path d="M113.4 82.2a8.8 8.8 0 1 1 0-17.7 8.8 8.8 0 0 1 0 17.7" fill="#c2e1ffBD"/><path d="M333-192.7a8.9 8.9 0 1 1 0-17.8 8.9 8.9 0 0 1 0 17.8" fill="#c2e1ffBE"/><path d="M63.4-386.9a8.9 8.9 0 1 1 0-17.8 8.9 8.9 0 0 1 0 17.8" fill="#fff500BF"/><path d="M9.2 64.4a9 9 0 1 1 0-17.9 9 9 0 0 1 0 17.9" fill="#005bbbC0"/><path d="M-72-315.3a9 9 0 1 1 0-17.9 9 9 0 0 1 0 17.9" fill="#fffC0"/><path d="M42.3-382.4a9 9 0 1 1 0-18 9 9 0 0 1 0 18" fill="#c2e1ffC0"/><path d="M-129.3-209.4a9 9 0 1 1 0-18 9 9 0 0 1 0 18" fill="#c2e1ffC1"/><path d="M321.3-71.5a9 9 0 1 1 0-18 9 9 0 0 1 0 18" fill="#fffC1"/><path d="M-70-317.1a9 9 0 1 1 0-18 9 9 0 0 1 0 18" fill="#fff500C1"/><path d="M-3.1 58.6a9 9 0 1 1 0-18 9 9 0 0 1 0 18" fill="#c2e1ffC1"/><path d="M326-220.6a9 9 0 1 1 0-18.1 9 9 0 0 1 0 18.1" fill="#c2e1ffC1"/><path d="M165.4-379.9a9.1 9.1 0 1 1 0-18.1 9.1 9.1 0 0 1 0 18.1" fill="#c2e1ffC2"/><path d="M127.7 80.6a9.1 9.1 0 1 1 0-18.1 9.1 9.1 0 0 1 0 18.1" fill="#fff500C2"/><path d="M315.2-57.4a9.1 9.1 0 1 1 0-18.2 9.1 9.1 0 0 1 0 18.2" fill="#c2e1ffC2"/><path d="M234.9 38a9.3 9.3 0 1 1 0-18.5 9.3 9.3 0 0 1 0 18.5" fill="#c2e1ffC6"/><path d="M-64.8-319.3a9.3 9.3 0 1 1 0-18.5 9.3 9.3 0 0 1 0 18.5" fill="#c2e1ffC7"/><path d="M-86.8-12.5a9.3 9.3 0 1 1 0-18.6 9.3 9.3 0 0 1 0 18.6" fill="#005bbbC7"/><path d="M261.4 15.4a9.3 9.3 0 1 1 0-18.6 9.3 9.3 0 0 1 0 18.6" fill="#c2e1ffC8"/><path d="M254.9-327a9.4 9.4 0 1 1 0-18.7 9.4 9.4 0 0 1 0 18.7" fill="#fff500C8"/><path d="M329.9-190a9.4 9.4 0 1 1 0-18.7 9.4 9.4 0 0 1 0 18.7" fill="#fffC9"/><path d="M250.5 23.5a9.4 9.4 0 1 1 0-18.9 9.4 9.4 0 0 1 0 18.9" fill="#c2e1ffCA"/><path d="M179.8 64.5a9.4 9.4 0 1 1 0-18.8 9.4 9.4 0 0 1 0 18.8" fill="#005bbbCA"/><path d="M110.7-384a9.5 9.5 0 1 1 0-18.9 9.5 9.5 0 0 1 0 18.9" fill="#fff500CB"/><path d="M255.5-323.4a9.5 9.5 0 1 1 0-19 9.5 9.5 0 0 1 0 19" fill="#fff500CC"/><path d="M-120.5-217.6a9.5 9.5 0 1 1 0-19.1 9.5 9.5 0 0 1 0 19.1" fill="#fff500CD"/><path d="M19.2-367.3a9.6 9.6 0 1 1 0-19.2 9.6 9.6 0 0 1 0 19.2" fill="#fff500CD"/><path d="M-66.6 4a9.6 9.6 0 1 1 0-19.2 9.6 9.6 0 0 1 0 19.2" fill="#005bbbCE"/><path d="M244.3-329.8a9.6 9.6 0 1 1 0-19.3 9.6 9.6 0 0 1 0 19.3" fill="#005bbbCE"/><path d="M64.1 71.7a9.7 9.7 0 1 1 0-19.3 9.7 9.7 0 0 1 0 19.3" fill="#c2e1ffCF"/><path d="M21.5-365.3a9.7 9.7 0 1 1 0-19.4 9.7 9.7 0 0 1 0 19.4" fill="#fffD0"/><path d="M-114-83a9.8 9.8 0 1 1 0-19.5 9.8 9.8 0 0 1 0 19.5" fill="#fffD1"/><path d="M324.3-153.8a9.8 9.8 0 1 1 0-19.6 9.8 9.8 0 0 1 0 19.6" fill="#005bbbD2"/><path d="M-83.3-27.6a9.9 9.9 0 1 1 0-19.7 9.9 9.9 0 0 1 0 19.7" fill="#fff500D4"/><path d="M-54.5-311.7a9.9 9.9 0 1 1 0-19.7 9.9 9.9 0 0 1 0 19.7" fill="#fff500D4"/><path d="M-101.9-240.1a9.9 9.9 0 1 1 0-19.9 9.9 9.9 0 0 1 0 19.9" fill="#005bbbD5"/><path d="M-86.6-268.9a9.9 9.9 0 1 1 0-19.8 9.9 9.9 0 0 1 0 19.8" fill="#005bbbD5"/><path d="M318.2-126.1a9.9 9.9 0 1 1 0-19.8 9.9 9.9 0 0 1 0 19.8" fill="#fff500D5"/><path d="M111.7 66.3a10 10 0 1 1 0-19.9 10 10 0 0 1 0 19.9" fill="#c2e1ffD6"/><path d="M185.1-351.7a10 10 0 1 1 0-20.1 10 10 0 0 1 0 20.1" fill="#005bbbD7"/><path d="M316.3-142.4a10 10 0 1 1 0-20.1 10 10 0 0 1 0 20.1" fill="#c2e1ffD8"/><path d="M157.2 54.4a10.1 10.1 0 1 1 0-20.2 10.1 10.1 0 0 1 0 20.2" fill="#fffD9"/><path d="M265.3-288.4a10.1 10.1 0 1 1 0-20.2 10.1 10.1 0 0 1 0 20.2" fill="#005bbbD9"/><path d="M191.1-345.2a10.1 10.1 0 1 1 0-20.3 10.1 10.1 0 0 1 0 20.3" fill="#005bbbD9"/><path d="M276.2-32.8a10.1 10.1 0 1 1 0-20.3 10.1 10.1 0 0 1 0 20.3" fill="#fff500DA"/><path d="M-112-153.7a10.2 10.2 0 1 1 0-20.3 10.2 10.2 0 0 1 0 20.3" fill="#fff500DA"/><path d="M-81.5-259.7a10.2 10.2 0 1 1 0-20.4 10.2 10.2 0 0 1 0 20.4" fill="#fff500DB"/><path d="M-87.7-247.9a10.2 10.2 0 1 1 0-20.4 10.2 10.2 0 0 1 0 20.4" fill="#c2e1ffDB"/><path d="M-105-103.9a10.2 10.2 0 1 1 0-20.4 10.2 10.2 0 0 1 0 20.4" fill="#c2e1ffDB"/><path d="M-103.2-97.4a10.2 10.2 0 1 1 0-20.4 10.2 10.2 0 0 1 0 20.4" fill="#005bbbDB"/><path d="M-40.6-0.4a10.3 10.3 0 1 1 0-20.6 10.3 10.3 0 0 1 0 20.6" fill="#005bbbDD"/><path d="M12.3 33.6a10.3 10.3 0 1 1 0-20.7 10.3 10.3 0 0 1 0 20.7" fill="#c2e1ffDE"/><path d="M-27.4 7.5a10.3 10.3 0 1 1 0-20.7 10.3 10.3 0 0 1 0 20.7" fill="#fffDE"/><path d="M234.8 0.3a10.4 10.4 0 1 1 0-20.7 10.4 10.4 0 0 1 0 20.7" fill="#c2e1ffDF"/><path d="M-100.2-188.6a10.4 10.4 0 1 1 0-20.8 10.4 10.4 0 0 1 0 20.8" fill="#005bbbDF"/><path d="M156.7 42.2a10.4 10.4 0 1 1 0-20.7 10.4 10.4 0 0 1 0 20.7" fill="#fffDF"/><path d="M234.1-1.3a10.4 10.4 0 1 1 0-20.7 10.4 10.4 0 0 1 0 20.7" fill="#c2e1ffDF"/><path d="M-94.3-108.7a10.5 10.5 0 1 1 0-20.9 10.5 10.5 0 0 1 0 20.9" fill="#005bbbE1"/><path d="M266-253.8a10.5 10.5 0 1 1 0-21.1 10.5 10.5 0 0 1 0 21.1" fill="#fffE2"/><path d="M32.3-334.6a10.5 10.5 0 1 1 0-21 10.5 10.5 0 0 1 0 21" fill="#fffE2"/><path d="M43.4-334.1a10.6 10.6 0 1 1 0-21.2 10.6 10.6 0 0 1 0 21.2" fill="#005bbbE4"/><path d="M-32.5-16.1a10.6 10.6 0 1 1 0-21.2 10.6 10.6 0 0 1 0 21.2" fill="#fff500E4"/><path d="M287.3-123a10.6 10.6 0 1 1 0-21.2 10.6 10.6 0 0 1 0 21.2" fill="#c2e1ffE4"/><path d="M87.5 35.8a10.6 10.6 0 1 1 0-21.3 10.6 10.6 0 0 1 0 21.3" fill="#fffE5"/><path d="M11.1 12.4a10.7 10.7 0 1 1 0-21.4 10.7 10.7 0 0 1 0 21.4" fill="#005bbbE5"/><path d="M103.7-332.5a10.8 10.8 0 1 1 0-21.5 10.8 10.8 0 0 1 0 21.5" fill="#fffE7"/><path d="M230.3-28.9a10.8 10.8 0 1 1 0-21.6 10.8 10.8 0 0 1 0 21.6" fill="#fff500E8"/><path d="M29.9-315.1a10.8 10.8 0 1 1 0-21.7 10.8 10.8 0 0 1 0 21.7" fill="#fff500E8"/><path d="M167.2-313.9a10.8 10.8 0 1 1 0-21.7 10.8 10.8 0 0 1 0 21.7" fill="#fffE9"/><path d="M136.3 19.9a10.8 10.8 0 1 1 0-21.7 10.8 10.8 0 0 1 0 21.7" fill="#fffE9"/><path d="M144.9-320.6a10.8 10.8 0 1 1 0-21.7 10.8 10.8 0 0 1 0 21.7" fill="#fffE9"/><path d="M197.5-290.1a10.9 10.9 0 1 1 0-21.8 10.9 10.9 0 0 1 0 21.8" fill="#fffEB"/><path d="M-64.1-110.3a10.9 10.9 0 1 1 0-21.9 10.9 10.9 0 0 1 0 21.9" fill="#fff500EB"/><path d="M260.4-101.9a10.9 10.9 0 1 1 0-21.8 10.9 10.9 0 0 1 0 21.8" fill="#c2e1ffEB"/><path d="M202.4-27.8a11 11 0 1 1 0-22 11 11 0 0 1 0 22" fill="#fff500ED"/><path d="M214.2-260a11.1 11.1 0 1 1 0-22.1 11.1 11.1 0 0 1 0 22.1" fill="#c2e1ffEE"/><path d="M186.9-282.1a11.1 11.1 0 1 1 0-22.1 11.1 11.1 0 0 1 0 22.1" fill="#c2e1ffEE"/><path d="M141.5-300.6a11.1 11.1 0 1 1 0-22.2 11.1 11.1 0 0 1 0 22.2" fill="#005bbbEF"/><path d="M-46.8-112.1a11.1 11.1 0 1 1 0-22.2 11.1 11.1 0 0 1 0 22.2" fill="#fffEF"/><path d="M6.7-266.6a11.2 11.2 0 1 1 0-22.3 11.2 11.2 0 0 1 0 22.3" fill="#fffF0"/><path d="M-30-95.6a11.2 11.2 0 1 1 0-22.4 11.2 11.2 0 0 1 0 22.4" fill="#c2e1ffF2"/><path d="M22.7-34.1a11.2 11.2 0 1 1 0-22.5 11.2 11.2 0 0 1 0 22.5" fill="#c2e1ffF2"/><path d="M50.6-281.8a11.2 11.2 0 1 1 0-22.5 11.2 11.2 0 0 1 0 22.5" fill="#005bbbF2"/><path d="M58.8-20.2a11.3 11.3 0 1 1 0-22.6 11.3 11.3 0 0 1 0 22.6" fill="#c2e1ffF2"/><path d="M234.1-138.5a11.3 11.3 0 1 1 0-22.6 11.3 11.3 0 0 1 0 22.6" fill="#005bbbF3"/><path d="M-10.6-81.2a11.3 11.3 0 1 1 0-22.6 11.3 11.3 0 0 1 0 22.6" fill="#fffF4"/><path d="M127.6-275.7a11.3 11.3 0 1 1 0-22.7 11.3 11.3 0 0 1 0 22.7" fill="#c2e1ffF4"/><path d="M34.5-49a11.4 11.4 0 1 1 0-22.8 11.4 11.4 0 0 1 0 22.8" fill="#005bbbF5"/><path d="M-14.9-137a11.4 11.4 0 1 1 0-22.9 11.4 11.4 0 0 1 0 22.9" fill="#c2e1ffF6"/><path d="M76.1-262.9a11.4 11.4 0 1 1 0-22.9 11.4 11.4 0 0 1 0 22.9" fill="#005bbbF6"/><path d="M162-64.5a11.5 11.5 0 1 1 0-23 11.5 11.5 0 0 1 0 23" fill="#fff500F8"/><path d="M201.5-136.5a11.5 11.5 0 1 1 0-23.1 11.5 11.5 0 0 1 0 23.1" fill="#005bbbF8"/><path d="M4.2-127.5a11.5 11.5 0 1 1 0-23.1 11.5 11.5 0 0 1 0 23.1" fill="#fff500F9"/><path d="M155.6-72.6a11.6 11.6 0 1 1 0-23.2 11.6 11.6 0 0 1 0 23.2" fill="#fffF9"/><path d="M188.8-182a11.6 11.6 0 1 1 0-23.2 11.6 11.6 0 0 1 0 23.2" fill="#fff500F9"/><path d="M89-243.3a11.6 11.6 0 1 1 0-23.1 11.6 11.6 0 0 1 0 23.1" fill="#fffF9"/><path d="M8.9-150.9a11.6 11.6 0 1 1 0-23.2 11.6 11.6 0 0 1 0 23.2" fill="#fff500F9"/><path d="M175.4-158.2a11.7 11.7 0 1 1 0-23.4 11.7 11.7 0 0 1 0 23.4" fill="#fffFB"/><path d="M132.4-199.5a11.7 11.7 0 1 1 0-23.4 11.7 11.7 0 0 1 0 23.4" fill="#fffFC"/></g></svg>