<svg width="1200" height="675" viewBox="-500 -500 1200 675" xmlns="http://www.w3.org/2000/svg"><path d="M-500-500h1200v675h-1200z" fill="#000"/><style>.sparkles path{stroke-linecap:round; stroke-width:1}</style><g class="sparkles"><path d="M100-162.5l-31.5-2.3" stroke="#fff50032"/><path d="M100-162.5l23 43.2" stroke="#c2e1ff33"/><path d="M100-162.5l7.2-50.7" stroke="#005bbb33"/><path d="M100-162.5l-52.8 10.3" stroke="#005bbb33"/><path d="M100-162.5l-41.6 68.5" stroke="#005bbb34"/><path d="M100-162.5l74.9 36.4" stroke="#005bbb35"/><path d="M100-162.5l13.6 83.7" stroke="#fff35"/><path d="M100-162.5l-96.3-22.3" stroke="#fff50036"/><path d="M100-162.5l95 30.7" stroke="#c2e1ff36"/><path d="M100-162.5l-84.2-58.2" stroke="#fff50036"/><path d="M100-162.5l90.1-53.5" stroke="#c2e1ff37"/><path d="M100-162.5l-86.7 61" stroke="#005bbb37"/><path d="M100-162.5l-103.6 22.8" stroke="#c2e1ff37"/><path d="M100-162.5l13.7-108.9" stroke="#c2e1ff37"/><path d="M100-162.5l-2.7 111.8" stroke="#fff37"/><path d="M100-162.5l115.6 33.4" stroke="#005bbb38"/><path d="M100-162.5l15.5-127.7" stroke="#fff5003A"/><path d="M100-162.5l-82.5-110.6" stroke="#fff5003B"/><path d="M100-162.5l-141.7 18.2" stroke="#005bbb3C"/><path d="M100-162.5l-130.8-74.7" stroke="#005bbb3D"/><path d="M100-162.5l-8.6 152.5" stroke="#005bbb3D"/><path d="M100-162.5l154.6 28.4" stroke="#005bbb3E"/><path d="M100-162.5l152.3-47" stroke="#005bbb3F"/><path d="M100-162.5l133.5-95.5" stroke="#c2e1ff40"/><path d="M100-162.5l25.3 167.8" stroke="#fff50041"/><path d="M100-162.5l142.3 103.3" stroke="#c2e1ff42"/><path d="M100-162.5l174.5 62.9" stroke="#c2e1ff45"/><path d="M100-162.5l182.1 35.5" stroke="#c2e1ff45"/><path d="M100-162.5l-110.8-151.1" stroke="#c2e1ff45"/><path d="M100-162.5l-186.1 29.8" stroke="#005bbb45"/><path d="M100-162.5l-175.5 81.9" stroke="#005bbb47"/><path d="M100-162.5l188.5-45.7" stroke="#005bbb47"/><path d="M100-162.5l129 145" stroke="#fff47"/><path d="M100-162.5l195.1 2.1" stroke="#fff50047"/><path d="M100-162.5l-124.5 150.7" stroke="#fff47"/><path d="M100-162.5l-57.7 189.3" stroke="#fff50048"/><path d="M100-162.5l150.3-133.2" stroke="#c2e1ff49"/><path d="M100-162.5l97.7-177.5" stroke="#c2e1ff4A"/><path d="M100-162.5l146.7-140.6" stroke="#fff4A"/><path d="M100-162.5l-204.6 28.4" stroke="#005bbb4B"/><path d="M100-162.5l-54.6 200.9" stroke="#c2e1ff4C"/><path d="M100-162.5l141.6 155.1" stroke="#fff5004D"/><path d="M100-162.5l200.3-66.1" stroke="#fff5004D"/><path d="M100-162.5l193.3-87.1" stroke="#fff5004D"/><path d="M100-162.5l74.2-200.6" stroke="#005bbb4E"/><path d="M100-162.5l88.9 195.5" stroke="#005bbb4F"/><path d="M100-162.5l196.9-86.3" stroke="#fff5004F"/><path d="M100-162.5l168.8 134" stroke="#fff5004F"/><path d="M100-162.5l113.3-184.2" stroke="#fff5004F"/><path d="M100-162.5l-137.6-168.8" stroke="#c2e1ff50"/><path d="M100-162.5l-201.3 83.7" stroke="#fff50050"/><path d="M100-162.5l-185.4-115.2" stroke="#005bbb50"/><path d="M100-162.5l158.6 151.4" stroke="#c2e1ff51"/><path d="M100-162.5l76.3-207.6" stroke="#fff50052"/><path d="M100-162.5l-85.9-203.9" stroke="#005bbb52"/><path d="M100-162.5l208.9 76.3" stroke="#005bbb53"/><path d="M100-162.5l19.1-221.8" stroke="#005bbb53"/><path d="M100-162.5l-105.8-196.4" stroke="#c2e1ff53"/><path d="M100-162.5l186 123.7" stroke="#005bbb53"/><path d="M100-162.5l-16.1 223" stroke="#c2e1ff53"/><path d="M100-162.5l211.6 74.6" stroke="#c2e1ff54"/><path d="M100-162.5l-225-9.9" stroke="#fff50054"/><path d="M100-162.5l-225.7-19.5" stroke="#fff55"/><path d="M100-162.5l98.4 205.1" stroke="#fff50056"/><path d="M100-162.5l-16.4 228.2" stroke="#c2e1ff57"/><path d="M100-162.5l76-216" stroke="#fff50057"/><path d="M100-162.5l-214.9-80.3" stroke="#005bbb58"/><path d="M100-162.5l209.8 93.4" stroke="#fff50058"/><path d="M100-162.5l48.4-225.6" stroke="#fff50059"/><path d="M100-162.5l197.2 121" stroke="#fff59"/><path d="M100-162.5l152.9 175.1" stroke="#fff5B"/><path d="M100-162.5l-218.7 78.9" stroke="#fff5B"/><path d="M100-162.5l232.3 22" stroke="#005bbb5C"/><path d="M100-162.5l157.7 173.2" stroke="#c2e1ff5D"/><path d="M100-162.5l-20.8-233.4" stroke="#005bbb5D"/><path d="M100-162.5l-99.9-212.6" stroke="#005bbb5E"/><path d="M100-162.5l-188-140.9" stroke="#fff5E"/><path d="M100-162.5l188-141" stroke="#fff5005E"/><path d="M100-162.5l-217.5 89.6" stroke="#c2e1ff5F"/><path d="M100-162.5l108.5 208.8" stroke="#fff5F"/><path d="M100-162.5l-126.1-198.7" stroke="#005bbb5F"/><path d="M100-162.5l-234-25.6" stroke="#c2e1ff5F"/><path d="M100-162.5l52.1-229.6" stroke="#fff5005F"/><path d="M100-162.5l125.7-199.1" stroke="#c2e1ff5F"/><path d="M100-162.5l76.6-223.1" stroke="#fff61"/><path d="M100-162.5l-140.2-189.8" stroke="#c2e1ff61"/><path d="M100-162.5l58.9-228.6" stroke="#fff50062"/><path d="M100-162.5l-230.7 50.5" stroke="#fff50062"/><path d="M100-162.5l87.7 219.3" stroke="#c2e1ff62"/><path d="M100-162.5l49.2 231" stroke="#fff62"/><path d="M100-162.5l-174.9 158.8" stroke="#fff64"/><path d="M100-162.5l72.5 224.7" stroke="#005bbb65"/><path d="M100-162.5l198.9 126.9" stroke="#fff66"/><path d="M100-162.5l11.9-235.6" stroke="#c2e1ff66"/><path d="M100-162.5l-185.2 146" stroke="#005bbb67"/><path d="M100-162.5l11.3-235.5" stroke="#c2e1ff67"/><path d="M100-162.5l-40.5-232.3" stroke="#fff50067"/><path d="M100-162.5l-162.8 170.3" stroke="#005bbb67"/><path d="M100-162.5l-215.3 95.5" stroke="#c2e1ff67"/><path d="M100-162.5l-161.6 171.3" stroke="#005bbb67"/><path d="M100-162.5l19.6 234.2" stroke="#fff69"/><path d="M100-162.5l126.8 197.7" stroke="#005bbb69"/><path d="M100-162.5l-23.6-232.7" stroke="#005bbb6A"/><path d="M100-162.5l230.8 36.3" stroke="#c2e1ff6B"/><path d="M100-162.5l-77.3-220.1" stroke="#fff5006B"/><path d="M100-162.5l51.7 227.3" stroke="#005bbb6C"/><path d="M100-162.5l-108-206.5" stroke="#005bbb6C"/><path d="M100-162.5l214.3 91.3" stroke="#fff5006C"/><path d="M100-162.5l-131.7-191.8" stroke="#fff5006C"/><path d="M100-162.5l228.9-38.3" stroke="#005bbb6D"/><path d="M100-162.5l-219-73" stroke="#c2e1ff6E"/><path d="M100-162.5l92.3 211.5" stroke="#fff5006E"/><path d="M100-162.5l-207.3 100.8" stroke="#c2e1ff6E"/><path d="M100-162.5l-228.3-26.2" stroke="#fff6F"/><path d="M100-162.5l210.8-89.3" stroke="#fff50070"/><path d="M100-162.5l-99.2-206.1" stroke="#fff70"/><path d="M100-162.5l191.8-123.1" stroke="#005bbb71"/><path d="M100-162.5l-191.5-123.2" stroke="#005bbb71"/><path d="M100-162.5l-44.6 222.5" stroke="#005bbb71"/><path d="M100-162.5l116.4-194.3" stroke="#c2e1ff72"/><path d="M100-162.5l30 224" stroke="#fff72"/><path d="M100-162.5l210.6 75.5" stroke="#c2e1ff74"/><path d="M100-162.5l-207.9 81.8" stroke="#fff50074"/><path d="M100-162.5l200.1 96.4" stroke="#005bbb75"/><path d="M100-162.5l109.8-192.3" stroke="#fff50075"/><path d="M100-162.5l-56.3-212.4" stroke="#fff76"/><path d="M100-162.5l70-207.1" stroke="#c2e1ff76"/><path d="M100-162.5l22.6-215.6" stroke="#fff50077"/><path d="M100-162.5l-189.3-104.4" stroke="#005bbb78"/><path d="M100-162.5l-205.5 65.3" stroke="#c2e1ff78"/><path d="M100-162.5l-155 148.8" stroke="#fff78"/><path d="M100-162.5l-214.5 8.5" stroke="#fff78"/><path d="M100-162.5l-11.8-214.2" stroke="#005bbb78"/><path d="M100-162.5l-10.3-213.8" stroke="#005bbb79"/><path d="M100-162.5l-212.2 27.8" stroke="#c2e1ff79"/><path d="M100-162.5l211.6-17.5" stroke="#fff50079"/><path d="M100-162.5l-169-128.3" stroke="#fff50079"/><path d="M100-162.5l-201.3-59.3" stroke="#005bbb7A"/><path d="M100-162.5l-0.9-209.9" stroke="#005bbb7A"/><path d="M100-162.5l12.4-208.4" stroke="#c2e1ff7B"/><path d="M100-162.5l-142.3-152.5" stroke="#005bbb7B"/><path d="M100-162.5l-34.8-205.5" stroke="#fff5007B"/><path d="M100-162.5l-77.6 193.3" stroke="#c2e1ff7B"/><path d="M100-162.5l-141.2-152.9" stroke="#c2e1ff7B"/><path d="M100-162.5l163-125.1" stroke="#fff7C"/><path d="M100-162.5l167.9-117.6" stroke="#fff7C"/><path d="M100-162.5l-23.6 202.7" stroke="#c2e1ff7D"/><path d="M100-162.5l117.5 166.5" stroke="#c2e1ff7D"/><path d="M100-162.5l107.4 169.1" stroke="#fff7E"/><path d="M100-162.5l197.4 26.8" stroke="#005bbb7E"/><path d="M100-162.5l-27.1 195.2" stroke="#fff5007F"/><path d="M100-162.5l184.6 65.6" stroke="#005bbb7F"/><path d="M100-162.5l156.6 115.7" stroke="#005bbb80"/><path d="M100-162.5l8.7 194.3" stroke="#fff50080"/><path d="M100-162.5l-30.7-189.4" stroke="#fff81"/><path d="M100-162.5l178.5-65.7" stroke="#c2e1ff81"/><path d="M100-162.5l182.9 48.3" stroke="#c2e1ff81"/><path d="M100-162.5l34.3-181.3" stroke="#fff83"/><path d="M100-162.5l-36.9-177.5" stroke="#fff50084"/><path d="M100-162.5l179.4 0" stroke="#c2e1ff84"/><path d="M100-162.5l-166.3-56.4" stroke="#005bbb85"/><path d="M100-162.5l-55 164.5" stroke="#c2e1ff85"/><path d="M100-162.5l93.2-140.6" stroke="#c2e1ff87"/><path d="M100-162.5l-46.5 160.9" stroke="#fff87"/><path d="M100-162.5l-152.9 60.9" stroke="#c2e1ff87"/><path d="M100-162.5l68.4 149.4" stroke="#005bbb87"/><path d="M100-162.5l30.6 158.7" stroke="#fff88"/><path d="M100-162.5l55.7-146.6" stroke="#fff50089"/><path d="M100-162.5l-146.3 28.4" stroke="#fff8A"/><path d="M100-162.5l127-64.9" stroke="#fff5008B"/><path d="M100-162.5l-18.1 140.4" stroke="#fff5008C"/><path d="M100-162.5l129.4-49.4" stroke="#fff5008C"/><path d="M100-162.5l-120.1 65" stroke="#c2e1ff8C"/><path d="M100-162.5l-120 40.6" stroke="#fff5008E"/><path d="M100-162.5l-99.2-70.9" stroke="#c2e1ff8E"/><path d="M100-162.5l-107.9 42.2" stroke="#c2e1ff8F"/><path d="M100-162.5l-88.6 27.7" stroke="#fff91"/><path d="M100-162.5l34.1 80.6" stroke="#fff50092"/><path d="M100-162.5l82.7-14.1" stroke="#fff50092"/><path d="M100-162.5l-69.1-20.6" stroke="#fff93"/><path d="M100-162.5l-38.3-60.5" stroke="#fff93"/></g><g class="sparcs"><path d="M68.5-158.8a5.9 5.9 0 1 1 0-11.9 5.9 5.9 0 0 1 0 11.9" fill="#005bbb7D"/><path d="M123-113.4a6 6 0 1 1 0-11.9 6 6 0 0 1 0 11.9" fill="#fff5007E"/><path d="M107.2-207.2a6 6 0 1 1 0-11.9 6 6 0 0 1 0 11.9" fill="#fff7E"/><path d="M47.2-146.2a6 6 0 1 1 0-12 6 6 0 0 1 0 12" fill="#fff5007E"/><path d="M58.4-87.9a6.1 6.1 0 1 1 0-12.2 6.1 6.1 0 0 1 0 12.2" fill="#005bbb80"/><path d="M174.9-120a6.1 6.1 0 1 1 0-12.2 6.1 6.1 0 0 1 0 12.2" fill="#005bbb81"/><path d="M113.6-72.7a6.1 6.1 0 1 1 0-12.2 6.1 6.1 0 0 1 0 12.2" fill="#c2e1ff81"/><path d="M3.7-178.6a6.2 6.2 0 1 1 0-12.4 6.2 6.2 0 0 1 0 12.4" fill="#c2e1ff82"/><path d="M195-125.6a6.2 6.2 0 1 1 0-12.4 6.2 6.2 0 0 1 0 12.4" fill="#fff50083"/><path d="M15.8-214.5a6.2 6.2 0 1 1 0-12.4 6.2 6.2 0 0 1 0 12.4" fill="#fff83"/><path d="M190.1-209.8a6.2 6.2 0 1 1 0-12.4 6.2 6.2 0 0 1 0 12.4" fill="#fff50083"/><path d="M13.3-95.3a6.2 6.2 0 1 1 0-12.4 6.2 6.2 0 0 1 0 12.4" fill="#fff50083"/><path d="M-3.6-133.5a6.2 6.2 0 1 1 0-12.4 6.2 6.2 0 0 1 0 12.4" fill="#005bbb83"/><path d="M113.7-265.1a6.2 6.2 0 1 1 0-12.5 6.2 6.2 0 0 1 0 12.5" fill="#005bbb84"/><path d="M97.3-44.4a6.3 6.3 0 1 1 0-12.5 6.3 6.3 0 0 1 0 12.5" fill="#005bbb84"/><path d="M215.6-122.8a6.3 6.3 0 1 1 0-12.6 6.3 6.3 0 0 1 0 12.6" fill="#005bbb86"/><path d="M115.5-283.8a6.4 6.4 0 1 1 0-12.8 6.4 6.4 0 0 1 0 12.8" fill="#005bbb87"/><path d="M17.5-266.7a6.5 6.5 0 1 1 0-12.9 6.5 6.5 0 0 1 0 12.9" fill="#fff89"/><path d="M-41.7-137.8a6.5 6.5 0 1 1 0-13 6.5 6.5 0 0 1 0 13" fill="#005bbb8A"/><path d="M-30.8-230.6a6.6 6.6 0 1 1 0-13.1 6.6 6.6 0 0 1 0 13.1" fill="#c2e1ff8B"/><path d="M91.4-3.4a6.6 6.6 0 1 1 0-13.2 6.6 6.6 0 0 1 0 13.2" fill="#005bbb8C"/><path d="M254.6-127.5a6.7 6.7 0 1 1 0-13.3 6.7 6.7 0 0 1 0 13.3" fill="#005bbb8D"/><path d="M252.3-202.9a6.7 6.7 0 1 1 0-13.3 6.7 6.7 0 0 1 0 13.3" fill="#c2e1ff8E"/><path d="M233.5-251.2a6.7 6.7 0 1 1 0-13.5 6.7 6.7 0 0 1 0 13.5" fill="#c2e1ff8F"/><path d="M125.3 12.1a6.8 6.8 0 1 1 0-13.6 6.8 6.8 0 0 1 0 13.6" fill="#fff90"/><path d="M242.3-52.4a6.9 6.9 0 1 1 0-13.7 6.9 6.9 0 0 1 0 13.7" fill="#005bbb92"/><path d="M274.5-92.6a7 7 0 1 1 0-14 7 7 0 0 1 0 14" fill="#fff95"/><path d="M282.1-119.9a7 7 0 1 1 0-14.1 7 7 0 0 1 0 14.1" fill="#c2e1ff95"/><path d="M-10.8-306.5a7.1 7.1 0 1 1 0-14.1 7.1 7.1 0 0 1 0 14.1" fill="#c2e1ff96"/><path d="M-86.1-125.7a7.1 7.1 0 1 1 0-14.1 7.1 7.1 0 0 1 0 14.1" fill="#fff50096"/><path d="M-75.5-73.4a7.2 7.2 0 1 1 0-14.3 7.2 7.2 0 0 1 0 14.3" fill="#c2e1ff98"/><path d="M288.5-201.1a7.2 7.2 0 1 1 0-14.3 7.2 7.2 0 0 1 0 14.3" fill="#c2e1ff98"/><path d="M229-10.3a7.2 7.2 0 1 1 0-14.3 7.2 7.2 0 0 1 0 14.3" fill="#fff98"/><path d="M295.1-153.2a7.2 7.2 0 1 1 0-14.4 7.2 7.2 0 0 1 0 14.4" fill="#c2e1ff99"/><path d="M-24.5-4.6a7.2 7.2 0 1 1 0-14.4 7.2 7.2 0 0 1 0 14.4" fill="#005bbb99"/><path d="M42.3 34.1a7.2 7.2 0 1 1 0-14.5 7.2 7.2 0 0 1 0 14.5" fill="#fff5009A"/><path d="M250.3-288.4a7.3 7.3 0 1 1 0-14.6 7.3 7.3 0 0 1 0 14.6" fill="#c2e1ff9B"/><path d="M197.7-332.7a7.3 7.3 0 1 1 0-14.7 7.3 7.3 0 0 1 0 14.7" fill="#fff9C"/><path d="M246.7-295.8a7.4 7.4 0 1 1 0-14.7 7.4 7.4 0 0 1 0 14.7" fill="#fff5009C"/><path d="M-104.6-126.6a7.4 7.4 0 1 1 0-14.9 7.4 7.4 0 0 1 0 14.9" fill="#c2e1ff9E"/><path d="M45.4 45.8a7.5 7.5 0 1 1 0-14.9 7.5 7.5 0 0 1 0 14.9" fill="#fff9F"/><path d="M241.6 0.1a7.5 7.5 0 1 1 0-15 7.5 7.5 0 0 1 0 15" fill="#c2e1ffA0"/><path d="M300.3-221.1a7.5 7.5 0 1 1 0-15 7.5 7.5 0 0 1 0 15" fill="#c2e1ffA0"/><path d="M293.3-242a7.6 7.6 0 1 1 0-15.1 7.6 7.6 0 0 1 0 15.1" fill="#fffA1"/><path d="M174.2-355.5a7.6 7.6 0 1 1 0-15.2 7.6 7.6 0 0 1 0 15.2" fill="#fff500A2"/><path d="M188.9 40.6a7.6 7.6 0 1 1 0-15.2 7.6 7.6 0 0 1 0 15.2" fill="#005bbbA2"/><path d="M296.9-241.2a7.6 7.6 0 1 1 0-15.3 7.6 7.6 0 0 1 0 15.3" fill="#005bbbA3"/><path d="M268.8-20.8a7.7 7.7 0 1 1 0-15.3 7.7 7.7 0 0 1 0 15.3" fill="#c2e1ffA3"/><path d="M213.3-339a7.7 7.7 0 1 1 0-15.3 7.7 7.7 0 0 1 0 15.3" fill="#005bbbA3"/><path d="M-37.6-323.6a7.7 7.7 0 1 1 0-15.5 7.7 7.7 0 0 1 0 15.5" fill="#005bbbA4"/><path d="M-101.3-71.1a7.7 7.7 0 1 1 0-15.4 7.7 7.7 0 0 1 0 15.4" fill="#005bbbA4"/><path d="M-85.4-270a7.7 7.7 0 1 1 0-15.4 7.7 7.7 0 0 1 0 15.4" fill="#fff500A5"/><path d="M258.6-3.3a7.8 7.8 0 1 1 0-15.5 7.8 7.8 0 0 1 0 15.5" fill="#fffA5"/><path d="M176.3-362.3a7.8 7.8 0 1 1 0-15.6 7.8 7.8 0 0 1 0 15.6" fill="#c2e1ffA7"/><path d="M14.1-358.6a7.8 7.8 0 1 1 0-15.6 7.8 7.8 0 0 1 0 15.6" fill="#fffA7"/><path d="M308.9-78.3a7.9 7.9 0 1 1 0-15.7 7.9 7.9 0 0 1 0 15.7" fill="#fff500A8"/><path d="M119.1-376.4a7.9 7.9 0 1 1 0-15.8 7.9 7.9 0 0 1 0 15.8" fill="#c2e1ffA8"/><path d="M-5.8-351a7.9 7.9 0 1 1 0-15.8 7.9 7.9 0 0 1 0 15.8" fill="#fffA8"/><path d="M286-30.9a7.9 7.9 0 1 1 0-15.8 7.9 7.9 0 0 1 0 15.8" fill="#fffA8"/><path d="M83.9 68.4a7.9 7.9 0 1 1 0-15.8 7.9 7.9 0 0 1 0 15.8" fill="#fff500A9"/><path d="M311.6-80a7.9 7.9 0 1 1 0-15.9 7.9 7.9 0 0 1 0 15.9" fill="#fff500A9"/><path d="M-125-164.4a8 8 0 1 1 0-15.9 8 8 0 0 1 0 15.9" fill="#005bbbAA"/><path d="M-125.7-174a8 8 0 1 1 0-16 8 8 0 0 1 0 16" fill="#c2e1ffAB"/><path d="M198.4 50.7a8.1 8.1 0 1 1 0-16.2 8.1 8.1 0 0 1 0 16.2" fill="#fffAC"/><path d="M83.6 73.9a8.1 8.1 0 1 1 0-16.3 8.1 8.1 0 0 1 0 16.3" fill="#005bbbAD"/><path d="M176-370.3a8.1 8.1 0 1 1 0-16.3 8.1 8.1 0 0 1 0 16.3" fill="#005bbbAD"/><path d="M-114.9-234.7a8.2 8.2 0 1 1 0-16.3 8.2 8.2 0 0 1 0 16.3" fill="#fff500AE"/><path d="M309.8-60.9a8.2 8.2 0 1 1 0-16.4 8.2 8.2 0 0 1 0 16.4" fill="#005bbbAE"/><path d="M148.4-379.8a8.2 8.2 0 1 1 0-16.5 8.2 8.2 0 0 1 0 16.5" fill="#c2e1ffAF"/><path d="M297.2-33.2a8.3 8.3 0 1 1 0-16.5 8.3 8.3 0 0 1 0 16.5" fill="#005bbbB0"/><path d="M252.9 20.9a8.3 8.3 0 1 1 0-16.7 8.3 8.3 0 0 1 0 16.7" fill="#fff500B2"/><path d="M-118.7-75.2a8.3 8.3 0 1 1 0-16.7 8.3 8.3 0 0 1 0 16.7" fill="#fff500B2"/><path d="M332.3-132.1a8.4 8.4 0 1 1 0-16.8 8.4 8.4 0 0 1 0 16.8" fill="#fff500B3"/><path d="M257.7 19.2a8.5 8.5 0 1 1 0-17 8.5 8.5 0 0 1 0 17" fill="#fff500B5"/><path d="M79.2-387.4a8.5 8.5 0 1 1 0-16.9 8.5 8.5 0 0 1 0 16.9" fill="#fffB5"/><path d="M0.1-366.6a8.5 8.5 0 1 1 0-17 8.5 8.5 0 0 1 0 17" fill="#005bbbB7"/><path d="M-88-294.9a8.5 8.5 0 1 1 0-17.1 8.5 8.5 0 0 1 0 17.1" fill="#005bbbB7"/><path d="M288-295a8.6 8.6 0 1 1 0-17.1 8.6 8.6 0 0 1 0 17.1" fill="#fffB7"/><path d="M-117.5-64.3a8.6 8.6 0 1 1 0-17.2 8.6 8.6 0 0 1 0 17.2" fill="#fff500B7"/><path d="M208.5 54.9a8.6 8.6 0 1 1 0-17.2 8.6 8.6 0 0 1 0 17.2" fill="#005bbbB8"/><path d="M-26.1-352.6a8.6 8.6 0 1 1 0-17.2 8.6 8.6 0 0 1 0 17.2" fill="#005bbbB8"/><path d="M-134-179.5a8.6 8.6 0 1 1 0-17.2 8.6 8.6 0 0 1 0 17.2" fill="#c2e1ffB8"/><path d="M152.1-383.5a8.6 8.6 0 1 1 0-17.2 8.6 8.6 0 0 1 0 17.2" fill="#005bbbB8"/><path d="M225.7-353a8.6 8.6 0 1 1 0-17.2 8.6 8.6 0 0 1 0 17.2" fill="#005bbbB8"/><path d="M176.6-376.9a8.7 8.7 0 1 1 0-17.4 8.7 8.7 0 0 1 0 17.4" fill="#005bbbBA"/><path d="M-40.2-343.6a8.7 8.7 0 1 1 0-17.4 8.7 8.7 0 0 1 0 17.4" fill="#fffBA"/><path d="M158.9-382.4a8.8 8.8 0 1 1 0-17.5 8.8 8.8 0 0 1 0 17.5" fill="#c2e1ffBB"/><path d="M-130.7-103.2a8.8 8.8 0 1 1 0-17.5 8.8 8.8 0 0 1 0 17.5" fill="#c2e1ffBC"/><path d="M187.7 65.6a8.8 8.8 0 1 1 0-17.6 8.8 8.8 0 0 1 0 17.6" fill="#fff500BC"/><path d="M149.2 77.3a8.8 8.8 0 1 1 0-17.6 8.8 8.8 0 0 1 0 17.6" fill="#fff500BC"/><path d="M-74.9 5.2a8.9 8.9 0 1 1 0-17.8 8.9 8.9 0 0 1 0 17.8" fill="#005bbbBE"/><path d="M172.5 71.2a9 9 0 1 1 0-17.9 9 9 0 0 1 0 17.9" fill="#fff500C0"/><path d="M298.9-26.6a9 9 0 1 1 0-18 9 9 0 0 1 0 18" fill="#c2e1ffC1"/><path d="M111.9-389a9 9 0 1 1 0-18.1 9 9 0 0 1 0 18.1" fill="#c2e1ffC1"/><path d="M-85.2-7.5a9 9 0 1 1 0-18 9 9 0 0 1 0 18" fill="#c2e1ffC1"/><path d="M111.3-389a9 9 0 1 1 0-18.1 9 9 0 0 1 0 18.1" fill="#c2e1ffC1"/><path d="M59.5-385.7a9 9 0 1 1 0-18.1 9 9 0 0 1 0 18.1" fill="#fffC2"/><path d="M-62.8 16.9a9.1 9.1 0 1 1 0-18.1 9.1 9.1 0 0 1 0 18.1" fill="#005bbbC2"/><path d="M-115.3-57.9a9.1 9.1 0 1 1 0-18.2 9.1 9.1 0 0 1 0 18.2" fill="#c2e1ffC3"/><path d="M-61.6 17.9a9.1 9.1 0 1 1 0-18.2 9.1 9.1 0 0 1 0 18.2" fill="#c2e1ffC3"/><path d="M119.6 80.8a9.2 9.2 0 1 1 0-18.3 9.2 9.2 0 0 1 0 18.3" fill="#fffC4"/><path d="M226.8 44.3a9.2 9.2 0 1 1 0-18.3 9.2 9.2 0 0 1 0 18.3" fill="#fff500C5"/><path d="M76.4-386a9.3 9.3 0 1 1 0-18.5 9.3 9.3 0 0 1 0 18.5" fill="#005bbbC7"/><path d="M330.8-116.9a9.3 9.3 0 1 1 0-18.6 9.3 9.3 0 0 1 0 18.6" fill="#005bbbC7"/><path d="M22.7-373.3a9.3 9.3 0 1 1 0-18.6 9.3 9.3 0 0 1 0 18.6" fill="#fff500C8"/><path d="M151.7 74.2a9.3 9.3 0 1 1 0-18.7 9.3 9.3 0 0 1 0 18.7" fill="#fffC8"/><path d="M-8-359.6a9.3 9.3 0 1 1 0-18.7 9.3 9.3 0 0 1 0 18.7" fill="#005bbbC8"/><path d="M314.3-61.8a9.4 9.4 0 1 1 0-18.8 9.4 9.4 0 0 1 0 18.8" fill="#005bbbC8"/><path d="M-31.7-344.9a9.4 9.4 0 1 1 0-18.7 9.4 9.4 0 0 1 0 18.7" fill="#fff500C9"/><path d="M328.9-191.4a9.4 9.4 0 1 1 0-18.9 9.4 9.4 0 0 1 0 18.9" fill="#fffCA"/><path d="M-119-226.1a9.5 9.5 0 1 1 0-18.9 9.5 9.5 0 0 1 0 18.9" fill="#005bbbCB"/><path d="M192.3 58.5a9.5 9.5 0 1 1 0-19 9.5 9.5 0 0 1 0 19" fill="#005bbbCB"/><path d="M-107.3-52.2a9.5 9.5 0 1 1 0-19 9.5 9.5 0 0 1 0 19" fill="#c2e1ffCC"/><path d="M-128.3-179.2a9.5 9.5 0 1 1 0-19.1 9.5 9.5 0 0 1 0 19.1" fill="#fff500CD"/><path d="M310.8-242.2a9.6 9.6 0 1 1 0-19.2 9.6 9.6 0 0 1 0 19.2" fill="#fffCD"/><path d="M0.8-359a9.6 9.6 0 1 1 0-19.2 9.6 9.6 0 0 1 0 19.2" fill="#c2e1ffCE"/><path d="M291.8-275.9a9.6 9.6 0 1 1 0-19.3 9.6 9.6 0 0 1 0 19.3" fill="#005bbbCF"/><path d="M-91.5-276a9.6 9.6 0 1 1 0-19.3 9.6 9.6 0 0 1 0 19.3" fill="#fffCF"/><path d="M55.4 69.7a9.7 9.7 0 1 1 0-19.4 9.7 9.7 0 0 1 0 19.4" fill="#005bbbD0"/><path d="M216.4-347.1a9.7 9.7 0 1 1 0-19.4 9.7 9.7 0 0 1 0 19.4" fill="#fffD0"/><path d="M130 71.3a9.7 9.7 0 1 1 0-19.5 9.7 9.7 0 0 1 0 19.5" fill="#fff500D0"/><path d="M310.6-77.2a9.8 9.8 0 1 1 0-19.7 9.8 9.8 0 0 1 0 19.7" fill="#fff500D2"/><path d="M-107.9-70.9a9.8 9.8 0 1 1 0-19.6 9.8 9.8 0 0 1 0 19.6" fill="#005bbbD3"/><path d="M300.1-56.2a9.9 9.9 0 1 1 0-19.8 9.9 9.9 0 0 1 0 19.8" fill="#005bbbD4"/><path d="M209.8-344.9a9.9 9.9 0 1 1 0-19.8 9.9 9.9 0 0 1 0 19.8" fill="#fff500D4"/><path d="M43.7-364.9a9.9 9.9 0 1 1 0-19.9 9.9 9.9 0 0 1 0 19.9" fill="#fffD5"/><path d="M170-359.6a10 10 0 1 1 0-19.9 10 10 0 0 1 0 19.9" fill="#fffD6"/><path d="M122.6-368.1a10 10 0 1 1 0-20.1 10 10 0 0 1 0 20.1" fill="#005bbbD7"/><path d="M-89.3-256.9a10 10 0 1 1 0-20.1 10 10 0 0 1 0 20.1" fill="#005bbbD8"/><path d="M-105.5-87.1a10.1 10.1 0 1 1 0-20.2 10.1 10.1 0 0 1 0 20.2" fill="#c2e1ffD8"/><path d="M-55-3.6a10.1 10.1 0 1 1 0-20.2 10.1 10.1 0 0 1 0 20.2" fill="#fffD8"/><path d="M-114.5-144a10.1 10.1 0 1 1 0-20.1 10.1 10.1 0 0 1 0 20.1" fill="#c2e1ffD9"/><path d="M88.2-366.6a10.1 10.1 0 1 1 0-20.2 10.1 10.1 0 0 1 0 20.2" fill="#fffD9"/><path d="M89.7-366.2a10.1 10.1 0 1 1 0-20.2 10.1 10.1 0 0 1 0 20.2" fill="#fff500D9"/><path d="M-112.2-124.5a10.1 10.1 0 1 1 0-20.3 10.1 10.1 0 0 1 0 20.3" fill="#fff500D9"/><path d="M311.6-169.9a10.2 10.2 0 1 1 0-20.3 10.2 10.2 0 0 1 0 20.3" fill="#005bbbDA"/><path d="M-69-280.7a10.2 10.2 0 1 1 0-20.3 10.2 10.2 0 0 1 0 20.3" fill="#c2e1ffDA"/><path d="M-101.3-211.6a10.2 10.2 0 1 1 0-20.5 10.2 10.2 0 0 1 0 20.5" fill="#fffDB"/><path d="M99.1-362.2a10.2 10.2 0 1 1 0-20.4 10.2 10.2 0 0 1 0 20.4" fill="#c2e1ffDB"/><path d="M112.4-360.6a10.2 10.2 0 1 1 0-20.5 10.2 10.2 0 0 1 0 20.5" fill="#fffDC"/><path d="M-42.3-304.8a10.2 10.2 0 1 1 0-20.5 10.2 10.2 0 0 1 0 20.5" fill="#005bbbDC"/><path d="M65.2-357.7a10.3 10.3 0 1 1 0-20.5 10.3 10.3 0 0 1 0 20.5" fill="#fffDC"/><path d="M22.4 41a10.3 10.3 0 1 1 0-20.5 10.3 10.3 0 0 1 0 20.5" fill="#fff500DC"/><path d="M-41.2-305.2a10.3 10.3 0 1 1 0-20.5 10.3 10.3 0 0 1 0 20.5" fill="#c2e1ffDC"/><path d="M263-277.3a10.3 10.3 0 1 1 0-20.7 10.3 10.3 0 0 1 0 20.7" fill="#c2e1ffDE"/><path d="M267.9-269.8a10.3 10.3 0 1 1 0-20.7 10.3 10.3 0 0 1 0 20.7" fill="#fff500DE"/><path d="M76.4 50.6a10.3 10.3 0 1 1 0-20.7 10.3 10.3 0 0 1 0 20.7" fill="#fff500DE"/><path d="M217.5 14.4a10.4 10.4 0 1 1 0-20.7 10.4 10.4 0 0 1 0 20.7" fill="#fffDE"/><path d="M207.4 17a10.4 10.4 0 1 1 0-20.8 10.4 10.4 0 0 1 0 20.8" fill="#fffE0"/><path d="M297.4-125.2a10.4 10.4 0 1 1 0-20.9 10.4 10.4 0 0 1 0 20.9" fill="#fff500E0"/><path d="M72.9 43.2a10.5 10.5 0 1 1 0-21 10.5 10.5 0 0 1 0 21" fill="#fff500E1"/><path d="M284.6-86.4a10.5 10.5 0 1 1 0-21.1 10.5 10.5 0 0 1 0 21.1" fill="#005bbbE2"/><path d="M256.6-36.2a10.5 10.5 0 1 1 0-21.1 10.5 10.5 0 0 1 0 21.1" fill="#005bbbE2"/><path d="M108.7 42.3a10.5 10.5 0 1 1 0-21 10.5 10.5 0 0 1 0 21" fill="#fff500E2"/><path d="M69.3-341.3a10.6 10.6 0 1 1 0-21.2 10.6 10.6 0 0 1 0 21.2" fill="#c2e1ffE3"/><path d="M278.5-217.6a10.6 10.6 0 1 1 0-21.2 10.6 10.6 0 0 1 0 21.2" fill="#fff500E4"/><path d="M282.9-103.6a10.6 10.6 0 1 1 0-21.3 10.6 10.6 0 0 1 0 21.3" fill="#c2e1ffE4"/><path d="M134.3-333.1a10.7 10.7 0 1 1 0-21.4 10.7 10.7 0 0 1 0 21.4" fill="#fffE6"/><path d="M63.1-329.3a10.8 10.8 0 1 1 0-21.5 10.8 10.8 0 0 1 0 21.5" fill="#fffE7"/><path d="M279.4-151.7a10.8 10.8 0 1 1 0-21.6 10.8 10.8 0 0 1 0 21.6" fill="#fff500E8"/><path d="M-66.3-208.1a10.8 10.8 0 1 1 0-21.6 10.8 10.8 0 0 1 0 21.6" fill="#c2e1ffE9"/><path d="M45 12.9a10.9 10.9 0 1 1 0-21.7 10.9 10.9 0 0 1 0 21.7" fill="#005bbbEA"/><path d="M193.2-292.1a10.9 10.9 0 1 1 0-21.9 10.9 10.9 0 0 1 0 21.9" fill="#c2e1ffEB"/><path d="M53.5 9.3a10.9 10.9 0 1 1 0-21.9 10.9 10.9 0 0 1 0 21.9" fill="#fffEB"/><path d="M-52.9-90.6a11 11 0 1 1 0-21.9 11 11 0 0 1 0 21.9" fill="#fff500EC"/><path d="M168.4-2.1a11 11 0 1 1 0-21.9 11 11 0 0 1 0 21.9" fill="#005bbbEC"/><path d="M130.6 7.2a11 11 0 1 1 0-22 11 11 0 0 1 0 22" fill="#fff500ED"/><path d="M155.7-298.1a11.1 11.1 0 1 1 0-22.1 11.1 11.1 0 0 1 0 22.1" fill="#005bbbEE"/><path d="M-46.3-122.9a11.2 11.2 0 1 1 0-22.3 11.2 11.2 0 0 1 0 22.3" fill="#fff500F0"/><path d="M227-216.2a11.2 11.2 0 1 1 0-22.4 11.2 11.2 0 0 1 0 22.4" fill="#c2e1ffF1"/><path d="M81.9-10.9a11.2 11.2 0 1 1 0-22.4 11.2 11.2 0 0 1 0 22.4" fill="#fffF2"/><path d="M229.4-200.7a11.3 11.3 0 1 1 0-22.5 11.3 11.3 0 0 1 0 22.5" fill="#fffF2"/><path d="M-20.1-86.3a11.3 11.3 0 1 1 0-22.5 11.3 11.3 0 0 1 0 22.5" fill="#005bbbF3"/><path d="M-20-110.6a11.4 11.4 0 1 1 0-22.7 11.4 11.4 0 0 1 0 22.7" fill="#c2e1ffF4"/><path d="M0.8-222a11.4 11.4 0 1 1 0-22.8 11.4 11.4 0 0 1 0 22.8" fill="#c2e1ffF5"/><path d="M-7.9-108.8a11.4 11.4 0 1 1 0-22.9 11.4 11.4 0 0 1 0 22.9" fill="#fff500F6"/><path d="M11.4-123.2a11.6 11.6 0 1 1 0-23.2 11.6 11.6 0 0 1 0 23.2" fill="#fff500F9"/><path d="M134.1-70.3a11.6 11.6 0 1 1 0-23.2 11.6 11.6 0 0 1 0 23.2" fill="#c2e1ffFA"/><path d="M182.7-165a11.6 11.6 0 1 1 0-23.2 11.6 11.6 0 0 1 0 23.2" fill="#fff500FA"/><path d="M30.9-171.4a11.7 11.7 0 1 1 0-23.4 11.7 11.7 0 0 1 0 23.4" fill="#fff500FB"/><path d="M61.7-211.3a11.7 11.7 0 1 1 0-23.3 11.7 11.7 0 0 1 0 23.3" fill="#c2e1ffFB"/></g></svg>