<svg width="1200" height="675" viewBox="-500 -500 1200 675" xmlns="http://www.w3.org/2000/svg"><path d="M-500-500h1200v675h-1200z" fill="#000"/><style>.sparkles path{stroke-linecap:round; stroke-width:1}</style><g class="sparkles"><path d="M100-162.5l50.3 16.7" stroke="#fff33"/><path d="M100-162.5l30.3 49.9" stroke="#fff33"/><path d="M100-162.5l31.4 61.9" stroke="#005bbb34"/><path d="M100-162.5l-68.2 21.1" stroke="#c2e1ff34"/><path d="M100-162.5l38.8-69.7" stroke="#fff50034"/><path d="M100-162.5l24.7-83.3" stroke="#c2e1ff35"/><path d="M100-162.5l82.9-45.9" stroke="#fff50036"/><path d="M100-162.5l26.1 94.1" stroke="#c2e1ff36"/><path d="M100-162.5l-93.8-37.8" stroke="#fff50036"/><path d="M100-162.5l49.1 93.8" stroke="#fff50037"/><path d="M100-162.5l99.3-37.3" stroke="#fff50037"/><path d="M100-162.5l59.2-89.3" stroke="#005bbb37"/><path d="M100-162.5l54.5-97.2" stroke="#fff50037"/><path d="M100-162.5l117.7-1.2" stroke="#fff50038"/><path d="M100-162.5l-117.4-27.4" stroke="#005bbb39"/><path d="M100-162.5l-60-112.6" stroke="#fff39"/><path d="M100-162.5l119.2-48.5" stroke="#005bbb3A"/><path d="M100-162.5l132.7-11.3" stroke="#c2e1ff3A"/><path d="M100-162.5l-138.1 8.3" stroke="#005bbb3B"/><path d="M100-162.5l-136.9-39.3" stroke="#005bbb3C"/><path d="M100-162.5l-78.4 119" stroke="#c2e1ff3C"/><path d="M100-162.5l63.6 130.3" stroke="#c2e1ff3C"/><path d="M100-162.5l-128.1 68.7" stroke="#fff3C"/><path d="M100-162.5l-56.4 141.2" stroke="#005bbb3D"/><path d="M100-162.5l130.2 84.2" stroke="#005bbb3E"/><path d="M100-162.5l-102.9-117.1" stroke="#fff3E"/><path d="M100-162.5l-70.4 139.7" stroke="#c2e1ff3E"/><path d="M100-162.5l88.9-129.7" stroke="#005bbb3E"/><path d="M100-162.5l-146.1-58.5" stroke="#005bbb3E"/><path d="M100-162.5l70.5 144.4" stroke="#005bbb3F"/><path d="M100-162.5l123.5-103.4" stroke="#fff5003F"/><path d="M100-162.5l151.2-56.8" stroke="#c2e1ff3F"/><path d="M100-162.5l162.8 0" stroke="#fff5003F"/><path d="M100-162.5l-60.5 153.5" stroke="#005bbb40"/><path d="M100-162.5l67.4 160.5" stroke="#fff50042"/><path d="M100-162.5l-170 38.7" stroke="#fff42"/><path d="M100-162.5l65.6-170.5" stroke="#fff44"/><path d="M100-162.5l-174.9 60.2" stroke="#005bbb44"/><path d="M100-162.5l174.8-72.3" stroke="#c2e1ff46"/><path d="M100-162.5l-113.8-151.3" stroke="#c2e1ff46"/><path d="M100-162.5l84.9 171.1" stroke="#005bbb46"/><path d="M100-162.5l18 190.6" stroke="#fff46"/><path d="M100-162.5l-186.8-48" stroke="#fff50047"/><path d="M100-162.5l87.6-172.4" stroke="#c2e1ff47"/><path d="M100-162.5l-174.7 92.5" stroke="#005bbb48"/><path d="M100-162.5l-66.2-186.6" stroke="#c2e1ff48"/><path d="M100-162.5l200.9 19.6" stroke="#fff5004A"/><path d="M100-162.5l-74.9 191.9" stroke="#fff5004B"/><path d="M100-162.5l4.5-207.1" stroke="#c2e1ff4B"/><path d="M100-162.5l-180.7-103.1" stroke="#005bbb4C"/><path d="M100-162.5l-209.6-3.4" stroke="#fff4C"/><path d="M100-162.5l115.2 175.4" stroke="#fff5004D"/><path d="M100-162.5l-208.4-31.5" stroke="#005bbb4D"/><path d="M100-162.5l-98.4 186.9" stroke="#c2e1ff4D"/><path d="M100-162.5l-182.7-106.3" stroke="#005bbb4D"/><path d="M100-162.5l2.2 212.8" stroke="#c2e1ff4E"/><path d="M100-162.5l-135.4 166.7" stroke="#005bbb4F"/><path d="M100-162.5l148.8-155" stroke="#fff5004F"/><path d="M100-162.5l37-212.4" stroke="#fff5004F"/><path d="M100-162.5l-189.5 104.3" stroke="#fff4F"/><path d="M100-162.5l-40.5 214.1" stroke="#005bbb50"/><path d="M100-162.5l15.5 221.3" stroke="#c2e1ff52"/><path d="M100-162.5l-212.1 67" stroke="#c2e1ff53"/><path d="M100-162.5l-209.4-78.6" stroke="#fff50053"/><path d="M100-162.5l-119.7-191.5" stroke="#fff55"/><path d="M100-162.5l-194.9 114.9" stroke="#005bbb55"/><path d="M100-162.5l-157.3 164.2" stroke="#fff56"/><path d="M100-162.5l-221.7-57.6" stroke="#fff57"/><path d="M100-162.5l-7.2-229.5" stroke="#005bbb58"/><path d="M100-162.5l24.9-228.3" stroke="#005bbb58"/><path d="M100-162.5l38.3 226.9" stroke="#fff50058"/><path d="M100-162.5l-229.2-20.3" stroke="#fff50058"/><path d="M100-162.5l-91.6-211.2" stroke="#005bbb58"/><path d="M100-162.5l219.7 69.1" stroke="#fff50058"/><path d="M100-162.5l-124.4-194.7" stroke="#fff50059"/><path d="M100-162.5l230.7-20.9" stroke="#005bbb5A"/><path d="M100-162.5l-220.5-73" stroke="#c2e1ff5A"/><path d="M100-162.5l-149.5 178" stroke="#c2e1ff5B"/><path d="M100-162.5l31.3-231" stroke="#fff5B"/><path d="M100-162.5l151.3 177.7" stroke="#c2e1ff5C"/><path d="M100-162.5l-207.2 108.4" stroke="#005bbb5C"/><path d="M100-162.5l33.8-231.5" stroke="#c2e1ff5C"/><path d="M100-162.5l231.3-35.4" stroke="#005bbb5D"/><path d="M100-162.5l230.5 43.9" stroke="#fff5E"/><path d="M100-162.5l50.5 229.3" stroke="#005bbb5E"/><path d="M100-162.5l42.8 230.9" stroke="#fff5005E"/><path d="M100-162.5l-231.3 41.5" stroke="#005bbb5E"/><path d="M100-162.5l-222.6 76.7" stroke="#c2e1ff5F"/><path d="M100-162.5l-222-78.6" stroke="#c2e1ff60"/><path d="M100-162.5l208-110.8" stroke="#005bbb60"/><path d="M100-162.5l172.4 160.7" stroke="#fff50060"/><path d="M100-162.5l235.7 1.4" stroke="#c2e1ff60"/><path d="M100-162.5l211.4 104.5" stroke="#fff61"/><path d="M100-162.5l-180.7-151.5" stroke="#fff61"/><path d="M100-162.5l-113.9-206.9" stroke="#c2e1ff62"/><path d="M100-162.5l-146.5 185.3" stroke="#005bbb62"/><path d="M100-162.5l-129.6 197.5" stroke="#fff63"/><path d="M100-162.5l-8.7 236.1" stroke="#fff63"/><path d="M100-162.5l-28.9-234.5" stroke="#005bbb63"/><path d="M100-162.5l150.1 182.4" stroke="#c2e1ff64"/><path d="M100-162.5l-235.3 20.2" stroke="#c2e1ff65"/><path d="M100-162.5l236-1.4" stroke="#c2e1ff66"/><path d="M100-162.5l-224.9 71.5" stroke="#fff66"/><path d="M100-162.5l-218.7 88.5" stroke="#005bbb66"/><path d="M100-162.5l-192.7-135.7" stroke="#c2e1ff67"/><path d="M100-162.5l17 235" stroke="#005bbb67"/><path d="M100-162.5l-235.4 5.2" stroke="#fff68"/><path d="M100-162.5l-235.3-1.6" stroke="#fff68"/><path d="M100-162.5l204.2-116.3" stroke="#005bbb69"/><path d="M100-162.5l231.6-39.4" stroke="#fff69"/><path d="M100-162.5l234.6 3.1" stroke="#fff69"/><path d="M100-162.5l0.2 234.2" stroke="#fff6A"/><path d="M100-162.5l213.1-97.1" stroke="#005bbb6A"/><path d="M100-162.5l59.4 226.2" stroke="#005bbb6B"/><path d="M100-162.5l68.6-223.1" stroke="#fff6B"/><path d="M100-162.5l226.7 55.5" stroke="#fff5006B"/><path d="M100-162.5l151.2 177.8" stroke="#005bbb6B"/><path d="M100-162.5l-2.6 232.1" stroke="#005bbb6D"/><path d="M100-162.5l231.6 13.1" stroke="#005bbb6D"/><path d="M100-162.5l-60.1 223.9" stroke="#c2e1ff6D"/><path d="M100-162.5l-196.9-121.4" stroke="#005bbb6E"/><path d="M100-162.5l197-120.9" stroke="#fff5006E"/><path d="M100-162.5l-228.2-26.5" stroke="#fff5006F"/><path d="M100-162.5l220.5 62.9" stroke="#fff70"/><path d="M100-162.5l-56.3-222" stroke="#c2e1ff70"/><path d="M100-162.5l-216.9-66.9" stroke="#005bbb71"/><path d="M100-162.5l-180.3 136.2" stroke="#fff72"/><path d="M100-162.5l218.1 51.3" stroke="#fff73"/><path d="M100-162.5l139.9-173.1" stroke="#005bbb74"/><path d="M100-162.5l-195.8-105.8" stroke="#fff74"/><path d="M100-162.5l220.9-13.7" stroke="#fff75"/><path d="M100-162.5l211.9 62.6" stroke="#fff50075"/><path d="M100-162.5l178.1-130.1" stroke="#005bbb75"/><path d="M100-162.5l35.8 215.3" stroke="#fff77"/><path d="M100-162.5l-175.5 126.8" stroke="#fff50078"/><path d="M100-162.5l207.2 44.4" stroke="#c2e1ff7A"/><path d="M100-162.5l142.2 156" stroke="#fff7A"/><path d="M100-162.5l-177.9 110.2" stroke="#fff7B"/><path d="M100-162.5l-205.6 34.5" stroke="#fff7B"/><path d="M100-162.5l204 27.5" stroke="#005bbb7C"/><path d="M100-162.5l20.1-204.9" stroke="#fff5007C"/><path d="M100-162.5l-147.5-143.2" stroke="#c2e1ff7C"/><path d="M100-162.5l40.1-201.3" stroke="#005bbb7C"/><path d="M100-162.5l-164.4-121.2" stroke="#c2e1ff7D"/><path d="M100-162.5l-37.1-199.6" stroke="#fff5007D"/><path d="M100-162.5l-93.2 173.9" stroke="#fff5007F"/><path d="M100-162.5l-36.5-191.2" stroke="#c2e1ff80"/><path d="M100-162.5l183.6 56.1" stroke="#c2e1ff81"/><path d="M100-162.5l-158.2-104" stroke="#c2e1ff81"/><path d="M100-162.5l-174.4 73.1" stroke="#fff81"/><path d="M100-162.5l-136.9 128.3" stroke="#c2e1ff82"/><path d="M100-162.5l-133.4-128.4" stroke="#005bbb83"/><path d="M100-162.5l-158.2-94.4" stroke="#fff50083"/><path d="M100-162.5l-7.9 183.2" stroke="#fff50083"/><path d="M100-162.5l123.2-130.2" stroke="#005bbb84"/><path d="M100-162.5l-111.9-138.3" stroke="#fff84"/><path d="M100-162.5l86.3-154.9" stroke="#c2e1ff85"/><path d="M100-162.5l-90.8-150.2" stroke="#fff50085"/><path d="M100-162.5l47.2 165" stroke="#fff50086"/><path d="M100-162.5l110.5 126.9" stroke="#005bbb87"/><path d="M100-162.5l-148.3-66.6" stroke="#fff88"/><path d="M100-162.5l4.3 160.6" stroke="#005bbb88"/><path d="M100-162.5l-115.4 86.8" stroke="#fff5008B"/><path d="M100-162.5l72.8 124.2" stroke="#fff8B"/><path d="M100-162.5l-16.9 142" stroke="#005bbb8B"/><path d="M100-162.5l-132.6-40.1" stroke="#fff8C"/><path d="M100-162.5l-19.3-136.1" stroke="#c2e1ff8C"/><path d="M100-162.5l-51.1 121.6" stroke="#fff5008D"/><path d="M100-162.5l109.9 70.9" stroke="#fff8D"/><path d="M100-162.5l125.7-32.7" stroke="#fff8D"/><path d="M100-162.5l122.5 2.9" stroke="#005bbb8E"/><path d="M100-162.5l91.1-77.9" stroke="#005bbb8F"/><path d="M100-162.5l79.1 85.2" stroke="#fff8F"/><path d="M100-162.5l-56.3-79.5" stroke="#c2e1ff91"/><path d="M100-162.5l-34.7-90.1" stroke="#fff91"/><path d="M100-162.5l-73.2 59.6" stroke="#fff50091"/><path d="M100-162.5l76.6 43.9" stroke="#c2e1ff92"/><path d="M100-162.5l49.9-59.1" stroke="#fff50093"/><path d="M100-162.5l-9.6 75.4" stroke="#005bbb93"/><path d="M100-162.5l20.1 70.2" stroke="#fff50093"/><path d="M100-162.5l-0.9-58.4" stroke="#fff50094"/></g><g class="sparcs"><path d="M150.3-139.8a6 6 0 1 1 0-12 6 6 0 0 1 0 12" fill="#fff5007E"/><path d="M130.3-106.6a6 6 0 1 1 0-12 6 6 0 0 1 0 12" fill="#fff7F"/><path d="M131.4-94.5a6 6 0 1 1 0-12.1 6 6 0 0 1 0 12.1" fill="#005bbb7F"/><path d="M31.8-135.4a6 6 0 1 1 0-12.1 6 6 0 0 1 0 12.1" fill="#fff50080"/><path d="M138.8-226.1a6.1 6.1 0 1 1 0-12.1 6.1 6.1 0 0 1 0 12.1" fill="#fff80"/><path d="M124.7-239.7a6.1 6.1 0 1 1 0-12.2 6.1 6.1 0 0 1 0 12.2" fill="#fff81"/><path d="M182.9-202.2a6.2 6.2 0 1 1 0-12.3 6.2 6.2 0 0 1 0 12.3" fill="#fff82"/><path d="M126.1-62.2a6.2 6.2 0 1 1 0-12.3 6.2 6.2 0 0 1 0 12.3" fill="#fff50082"/><path d="M6.2-194.2a6.2 6.2 0 1 1 0-12.3 6.2 6.2 0 0 1 0 12.3" fill="#fff83"/><path d="M149.1-62.5a6.2 6.2 0 1 1 0-12.4 6.2 6.2 0 0 1 0 12.4" fill="#fff83"/><path d="M199.3-193.6a6.2 6.2 0 1 1 0-12.4 6.2 6.2 0 0 1 0 12.4" fill="#fff50083"/><path d="M159.2-245.6a6.2 6.2 0 1 1 0-12.4 6.2 6.2 0 0 1 0 12.4" fill="#c2e1ff84"/><path d="M154.5-253.5a6.3 6.3 0 1 1 0-12.5 6.3 6.3 0 0 1 0 12.5" fill="#c2e1ff84"/><path d="M217.7-157.4a6.3 6.3 0 1 1 0-12.6 6.3 6.3 0 0 1 0 12.6" fill="#fff50085"/><path d="M-17.4-183.6a6.3 6.3 0 1 1 0-12.6 6.3 6.3 0 0 1 0 12.6" fill="#fff86"/><path d="M40-268.7a6.4 6.4 0 1 1 0-12.7 6.4 6.4 0 0 1 0 12.7" fill="#fff50087"/><path d="M219.2-204.7a6.4 6.4 0 1 1 0-12.7 6.4 6.4 0 0 1 0 12.7" fill="#fff87"/><path d="M232.7-167.3a6.4 6.4 0 1 1 0-12.9 6.4 6.4 0 0 1 0 12.9" fill="#fff88"/><path d="M-38.1-147.7a6.5 6.5 0 1 1 0-12.9 6.5 6.5 0 0 1 0 12.9" fill="#c2e1ff89"/><path d="M-36.9-195.3a6.5 6.5 0 1 1 0-13 6.5 6.5 0 0 1 0 13" fill="#fff8A"/><path d="M21.6-37a6.5 6.5 0 1 1 0-13 6.5 6.5 0 0 1 0 13" fill="#fff5008A"/><path d="M163.6-25.7a6.5 6.5 0 1 1 0-13 6.5 6.5 0 0 1 0 13" fill="#c2e1ff8A"/><path d="M-28.1-87.3a6.5 6.5 0 1 1 0-13.1 6.5 6.5 0 0 1 0 13.1" fill="#005bbb8A"/><path d="M43.6-14.7a6.6 6.6 0 1 1 0-13.2 6.6 6.6 0 0 1 0 13.2" fill="#fff5008C"/><path d="M230.2-71.7a6.6 6.6 0 1 1 0-13.2 6.6 6.6 0 0 1 0 13.2" fill="#fff5008C"/><path d="M-2.9-272.9a6.6 6.6 0 1 1 0-13.3 6.6 6.6 0 0 1 0 13.3" fill="#c2e1ff8D"/><path d="M29.6-16.2a6.6 6.6 0 1 1 0-13.3 6.6 6.6 0 0 1 0 13.3" fill="#fff5008D"/><path d="M188.9-285.5a6.7 6.7 0 1 1 0-13.3 6.7 6.7 0 0 1 0 13.3" fill="#c2e1ff8D"/><path d="M-46.1-214.3a6.7 6.7 0 1 1 0-13.3 6.7 6.7 0 0 1 0 13.3" fill="#fff8D"/><path d="M170.5-11.4a6.7 6.7 0 1 1 0-13.4 6.7 6.7 0 0 1 0 13.4" fill="#fff5008E"/><path d="M223.5-259.2a6.7 6.7 0 1 1 0-13.4 6.7 6.7 0 0 1 0 13.4" fill="#fff5008E"/><path d="M251.2-212.6a6.7 6.7 0 1 1 0-13.4 6.7 6.7 0 0 1 0 13.4" fill="#c2e1ff8E"/><path d="M262.8-155.8a6.7 6.7 0 1 1 0-13.4 6.7 6.7 0 0 1 0 13.4" fill="#fff8E"/><path d="M39.5-2.3a6.7 6.7 0 1 1 0-13.5 6.7 6.7 0 0 1 0 13.5" fill="#c2e1ff8F"/><path d="M167.4 4.9a6.9 6.9 0 1 1 0-13.7 6.9 6.9 0 0 1 0 13.7" fill="#005bbb92"/><path d="M-70-116.9a6.9 6.9 0 1 1 0-13.8 6.9 6.9 0 0 1 0 13.8" fill="#005bbb92"/><path d="M165.6-326a7 7 0 1 1 0-14 7 7 0 0 1 0 14" fill="#fff50094"/><path d="M-74.9-95.3a7 7 0 1 1 0-14.1 7 7 0 0 1 0 14.1" fill="#005bbb95"/><path d="M274.8-227.7a7.1 7.1 0 1 1 0-14.2 7.1 7.1 0 0 1 0 14.2" fill="#fff97"/><path d="M-13.8-306.7a7.1 7.1 0 1 1 0-14.2 7.1 7.1 0 0 1 0 14.2" fill="#fff97"/><path d="M184.9 15.7a7.1 7.1 0 1 1 0-14.2 7.1 7.1 0 0 1 0 14.2" fill="#fff50097"/><path d="M118 35.2a7.1 7.1 0 1 1 0-14.2 7.1 7.1 0 0 1 0 14.2" fill="#c2e1ff97"/><path d="M-86.8-203.4a7.2 7.2 0 1 1 0-14.3 7.2 7.2 0 0 1 0 14.3" fill="#005bbb98"/><path d="M187.6-327.8a7.2 7.2 0 1 1 0-14.3 7.2 7.2 0 0 1 0 14.3" fill="#005bbb98"/><path d="M-74.7-62.8a7.2 7.2 0 1 1 0-14.5 7.2 7.2 0 0 1 0 14.5" fill="#005bbb9A"/><path d="M33.8-341.8a7.2 7.2 0 1 1 0-14.5 7.2 7.2 0 0 1 0 14.5" fill="#005bbb9A"/><path d="M300.9-135.6a7.3 7.3 0 1 1 0-14.6 7.3 7.3 0 0 1 0 14.6" fill="#005bbb9C"/><path d="M25.1 36.8a7.4 7.4 0 1 1 0-14.8 7.4 7.4 0 0 1 0 14.8" fill="#005bbb9E"/><path d="M104.5-362.2a7.4 7.4 0 1 1 0-14.8 7.4 7.4 0 0 1 0 14.8" fill="#fff5009E"/><path d="M-80.7-258.1a7.5 7.5 0 1 1 0-14.9 7.5 7.5 0 0 1 0 14.9" fill="#fff5009F"/><path d="M-109.6-158.4a7.5 7.5 0 1 1 0-15 7.5 7.5 0 0 1 0 15" fill="#c2e1ffA0"/><path d="M215.2 20.4a7.5 7.5 0 1 1 0-15 7.5 7.5 0 0 1 0 15" fill="#fff500A0"/><path d="M-108.4-186.4a7.5 7.5 0 1 1 0-15.1 7.5 7.5 0 0 1 0 15.1" fill="#fff500A0"/><path d="M1.6 31.9a7.5 7.5 0 1 1 0-15.1 7.5 7.5 0 0 1 0 15.1" fill="#fff500A0"/><path d="M-82.7-261.3a7.5 7.5 0 1 1 0-15 7.5 7.5 0 0 1 0 15" fill="#fffA0"/><path d="M102.2 57.9a7.6 7.6 0 1 1 0-15.1 7.6 7.6 0 0 1 0 15.1" fill="#fffA1"/><path d="M-35.4 11.8a7.6 7.6 0 1 1 0-15.2 7.6 7.6 0 0 1 0 15.2" fill="#fff500A2"/><path d="M248.8-309.8a7.6 7.6 0 1 1 0-15.3 7.6 7.6 0 0 1 0 15.3" fill="#c2e1ffA2"/><path d="M137-367.3a7.7 7.7 0 1 1 0-15.3 7.7 7.7 0 0 1 0 15.3" fill="#005bbbA3"/><path d="M-89.5-50.5a7.7 7.7 0 1 1 0-15.4 7.7 7.7 0 0 1 0 15.4" fill="#c2e1ffA3"/><path d="M59.5 59.3a7.7 7.7 0 1 1 0-15.5 7.7 7.7 0 0 1 0 15.5" fill="#c2e1ffA4"/><path d="M115.5 66.7a7.8 7.8 0 1 1 0-15.7 7.8 7.8 0 0 1 0 15.7" fill="#005bbbA7"/><path d="M-112.1-87.6a7.9 7.9 0 1 1 0-15.7 7.9 7.9 0 0 1 0 15.7" fill="#c2e1ffA8"/><path d="M-109.4-233.2a7.9 7.9 0 1 1 0-15.8 7.9 7.9 0 0 1 0 15.8" fill="#c2e1ffA9"/><path d="M-19.7-346a8 8 0 1 1 0-16 8 8 0 0 1 0 16" fill="#fffAA"/><path d="M-94.9-39.6a8 8 0 1 1 0-16 8 8 0 0 1 0 16" fill="#fffAB"/><path d="M-57.3 9.7a8.1 8.1 0 1 1 0-16.1 8.1 8.1 0 0 1 0 16.1" fill="#fffAC"/><path d="M-121.7-211.9a8.1 8.1 0 1 1 0-16.3 8.1 8.1 0 0 1 0 16.3" fill="#fffAE"/><path d="M92.8-383.8a8.2 8.2 0 1 1 0-16.4 8.2 8.2 0 0 1 0 16.4" fill="#005bbbAE"/><path d="M124.9-382.6a8.2 8.2 0 1 1 0-16.3 8.2 8.2 0 0 1 0 16.3" fill="#c2e1ffAE"/><path d="M138.3 72.6a8.2 8.2 0 1 1 0-16.4 8.2 8.2 0 0 1 0 16.4" fill="#fffAF"/><path d="M-129.2-174.6a8.2 8.2 0 1 1 0-16.4 8.2 8.2 0 0 1 0 16.4" fill="#fffAF"/><path d="M8.4-365.5a8.2 8.2 0 1 1 0-16.4 8.2 8.2 0 0 1 0 16.4" fill="#005bbbAF"/><path d="M319.7-85.2a8.2 8.2 0 1 1 0-16.4 8.2 8.2 0 0 1 0 16.4" fill="#fff500AF"/><path d="M-24.4-349a8.2 8.2 0 1 1 0-16.5 8.2 8.2 0 0 1 0 16.5" fill="#005bbbB0"/><path d="M330.7-175.1a8.3 8.3 0 1 1 0-16.5 8.3 8.3 0 0 1 0 16.5" fill="#005bbbB1"/><path d="M-120.5-227.2a8.3 8.3 0 1 1 0-16.7 8.3 8.3 0 0 1 0 16.7" fill="#fff500B2"/><path d="M-49.5 23.9a8.3 8.3 0 1 1 0-16.7 8.3 8.3 0 0 1 0 16.7" fill="#005bbbB2"/><path d="M131.3-385.1a8.4 8.4 0 1 1 0-16.8 8.4 8.4 0 0 1 0 16.8" fill="#005bbbB3"/><path d="M251.3 23.6a8.4 8.4 0 1 1 0-16.8 8.4 8.4 0 0 1 0 16.8" fill="#c2e1ffB3"/><path d="M-107.2-45.7a8.4 8.4 0 1 1 0-16.9 8.4 8.4 0 0 1 0 16.9" fill="#fffB4"/><path d="M133.8-385.5a8.4 8.4 0 1 1 0-16.9 8.4 8.4 0 0 1 0 16.9" fill="#fffB4"/><path d="M331.3-189.4a8.5 8.5 0 1 1 0-16.9 8.5 8.5 0 0 1 0 16.9" fill="#005bbbB5"/><path d="M330.5-110.1a8.5 8.5 0 1 1 0-17 8.5 8.5 0 0 1 0 17" fill="#c2e1ffB6"/><path d="M150.5 75.3a8.5 8.5 0 1 1 0-17 8.5 8.5 0 0 1 0 17" fill="#fff500B6"/><path d="M142.8 76.9a8.5 8.5 0 1 1 0-17.1 8.5 8.5 0 0 1 0 17.1" fill="#fff500B6"/><path d="M-131.3-112.4a8.6 8.6 0 1 1 0-17.1 8.6 8.6 0 0 1 0 17.1" fill="#fff500B7"/><path d="M-122.6-77.2a8.6 8.6 0 1 1 0-17.2 8.6 8.6 0 0 1 0 17.2" fill="#fffB8"/><path d="M-122-232.5a8.6 8.6 0 1 1 0-17.2 8.6 8.6 0 0 1 0 17.2" fill="#fff500B8"/><path d="M308-264.6a8.6 8.6 0 1 1 0-17.3 8.6 8.6 0 0 1 0 17.3" fill="#c2e1ffB9"/><path d="M272.4 6.9a8.7 8.7 0 1 1 0-17.3 8.7 8.7 0 0 1 0 17.3" fill="#fff500B9"/><path d="M335.7-152.4a8.7 8.7 0 1 1 0-17.4 8.7 8.7 0 0 1 0 17.4" fill="#fffB9"/><path d="M311.4-49.3a8.7 8.7 0 1 1 0-17.4 8.7 8.7 0 0 1 0 17.4" fill="#005bbbBA"/><path d="M-80.7-305.3a8.7 8.7 0 1 1 0-17.4 8.7 8.7 0 0 1 0 17.4" fill="#005bbbBA"/><path d="M-13.9-360.6a8.8 8.8 0 1 1 0-17.6 8.8 8.8 0 0 1 0 17.6" fill="#005bbbBC"/><path d="M-46.5 31.6a8.8 8.8 0 1 1 0-17.6 8.8 8.8 0 0 1 0 17.6" fill="#005bbbBC"/><path d="M-29.6 43.8a8.8 8.8 0 1 1 0-17.6 8.8 8.8 0 0 1 0 17.6" fill="#c2e1ffBD"/><path d="M91.3 82.4a8.8 8.8 0 1 1 0-17.7 8.8 8.8 0 0 1 0 17.7" fill="#005bbbBD"/><path d="M71.1-388.1a8.9 8.9 0 1 1 0-17.7 8.9 8.9 0 0 1 0 17.7" fill="#005bbbBD"/><path d="M250.1 28.8a8.9 8.9 0 1 1 0-17.7 8.9 8.9 0 0 1 0 17.7" fill="#c2e1ffBE"/><path d="M-135.3-133.3a8.9 8.9 0 1 1 0-17.9 8.9 8.9 0 0 1 0 17.9" fill="#fffBF"/><path d="M336-154.9a9 9 0 1 1 0-18 9 9 0 0 1 0 18" fill="#fffC0"/><path d="M-124.9-82a9 9 0 1 1 0-18 9 9 0 0 1 0 18" fill="#c2e1ffC1"/><path d="M-118.7-65a9 9 0 1 1 0-18 9 9 0 0 1 0 18" fill="#fff500C1"/><path d="M-92.7-289.1a9.1 9.1 0 1 1 0-18.1 9.1 9.1 0 0 1 0 18.1" fill="#fffC2"/><path d="M117 81.6a9.1 9.1 0 1 1 0-18.2 9.1 9.1 0 0 1 0 18.2" fill="#fffC2"/><path d="M-135.4-148.2a9.1 9.1 0 1 1 0-18.2 9.1 9.1 0 0 1 0 18.2" fill="#005bbbC3"/><path d="M-135.3-155a9.1 9.1 0 1 1 0-18.2 9.1 9.1 0 0 1 0 18.2" fill="#c2e1ffC3"/><path d="M304.2-269.6a9.2 9.2 0 1 1 0-18.3 9.2 9.2 0 0 1 0 18.3" fill="#005bbbC4"/><path d="M331.6-192.7a9.2 9.2 0 1 1 0-18.3 9.2 9.2 0 0 1 0 18.3" fill="#fff500C4"/><path d="M334.6-150.2a9.2 9.2 0 1 1 0-18.4 9.2 9.2 0 0 1 0 18.4" fill="#fff500C5"/><path d="M100.2 81a9.2 9.2 0 1 1 0-18.5 9.2 9.2 0 0 1 0 18.5" fill="#fff500C6"/><path d="M313.1-250.3a9.3 9.3 0 1 1 0-18.5 9.3 9.3 0 0 1 0 18.5" fill="#c2e1ffC6"/><path d="M159.4 73a9.3 9.3 0 1 1 0-18.6 9.3 9.3 0 0 1 0 18.6" fill="#005bbbC7"/><path d="M168.6-376.3a9.3 9.3 0 1 1 0-18.7 9.3 9.3 0 0 1 0 18.7" fill="#c2e1ffC7"/><path d="M326.7-97.7a9.3 9.3 0 1 1 0-18.6 9.3 9.3 0 0 1 0 18.6" fill="#c2e1ffC8"/><path d="M251.2 24.6a9.3 9.3 0 1 1 0-18.7 9.3 9.3 0 0 1 0 18.7" fill="#fff500C8"/><path d="M97.4 79a9.4 9.4 0 1 1 0-18.8 9.4 9.4 0 0 1 0 18.8" fill="#fff500CA"/><path d="M331.6-140a9.4 9.4 0 1 1 0-18.8 9.4 9.4 0 0 1 0 18.8" fill="#fff500CA"/><path d="M39.9 70.8a9.4 9.4 0 1 1 0-18.9 9.4 9.4 0 0 1 0 18.9" fill="#fff500CA"/><path d="M-96.9-274.4a9.5 9.5 0 1 1 0-19 9.5 9.5 0 0 1 0 19" fill="#005bbbCB"/><path d="M297-273.9a9.5 9.5 0 1 1 0-19 9.5 9.5 0 0 1 0 19" fill="#fff500CB"/><path d="M-128.2-179.4a9.5 9.5 0 1 1 0-19.1 9.5 9.5 0 0 1 0 19.1" fill="#fffCD"/><path d="M320.5-90.1a9.6 9.6 0 1 1 0-19.1 9.6 9.6 0 0 1 0 19.1" fill="#c2e1ffCD"/><path d="M43.7-374.9a9.6 9.6 0 1 1 0-19.1 9.6 9.6 0 0 1 0 19.1" fill="#fff500CD"/><path d="M-116.9-219.7a9.7 9.7 0 1 1 0-19.4 9.7 9.7 0 0 1 0 19.4" fill="#c2e1ffD0"/><path d="M-80.3-16.6a9.7 9.7 0 1 1 0-19.4 9.7 9.7 0 0 1 0 19.4" fill="#c2e1ffD0"/><path d="M318.1-101.4a9.8 9.8 0 1 1 0-19.6 9.8 9.8 0 0 1 0 19.6" fill="#005bbbD2"/><path d="M239.9-325.8a9.8 9.8 0 1 1 0-19.7 9.8 9.8 0 0 1 0 19.7" fill="#fff500D3"/><path d="M-95.8-258.4a9.9 9.9 0 1 1 0-19.7 9.9 9.9 0 0 1 0 19.7" fill="#fff500D3"/><path d="M320.9-166.3a9.9 9.9 0 1 1 0-19.8 9.9 9.9 0 0 1 0 19.8" fill="#c2e1ffD4"/><path d="M311.9-90a9.9 9.9 0 1 1 0-19.8 9.9 9.9 0 0 1 0 19.8" fill="#fff500D5"/><path d="M278.1-282.7a9.9 9.9 0 1 1 0-19.8 9.9 9.9 0 0 1 0 19.8" fill="#c2e1ffD5"/><path d="M135.8 62.8a10 10 0 1 1 0-20 10 10 0 0 1 0 20" fill="#fff500D6"/><path d="M-75.5-25.7a10 10 0 1 1 0-20.1 10 10 0 0 1 0 20.1" fill="#fffD8"/><path d="M307.2-108a10.2 10.2 0 1 1 0-20.3 10.2 10.2 0 0 1 0 20.3" fill="#c2e1ffDA"/><path d="M242.2 3.7a10.2 10.2 0 1 1 0-20.3 10.2 10.2 0 0 1 0 20.3" fill="#005bbbDB"/><path d="M-77.9-42.1a10.2 10.2 0 1 1 0-20.5 10.2 10.2 0 0 1 0 20.5" fill="#fffDC"/><path d="M-105.6-117.8a10.2 10.2 0 1 1 0-20.5 10.2 10.2 0 0 1 0 20.5" fill="#005bbbDC"/><path d="M304-124.7a10.3 10.3 0 1 1 0-20.6 10.3 10.3 0 0 1 0 20.6" fill="#fff500DD"/><path d="M120.1-357.1a10.3 10.3 0 1 1 0-20.6 10.3 10.3 0 0 1 0 20.6" fill="#005bbbDD"/><path d="M-47.5-295.4a10.3 10.3 0 1 1 0-20.6 10.3 10.3 0 0 1 0 20.6" fill="#c2e1ffDE"/><path d="M140.1-353.5a10.3 10.3 0 1 1 0-20.7 10.3 10.3 0 0 1 0 20.7" fill="#c2e1ffDE"/><path d="M-64.4-273.3a10.3 10.3 0 1 1 0-20.7 10.3 10.3 0 0 1 0 20.7" fill="#005bbbDE"/><path d="M62.9-351.7a10.4 10.4 0 1 1 0-20.8 10.4 10.4 0 0 1 0 20.8" fill="#fff500DF"/><path d="M6.8 21.9a10.5 10.5 0 1 1 0-21 10.5 10.5 0 0 1 0 21" fill="#005bbbE1"/><path d="M63.5-343.2a10.5 10.5 0 1 1 0-21 10.5 10.5 0 0 1 0 21" fill="#005bbbE2"/><path d="M283.6-95.8a10.6 10.6 0 1 1 0-21.2 10.6 10.6 0 0 1 0 21.2" fill="#fff500E3"/><path d="M-58.2-255.8a10.6 10.6 0 1 1 0-21.3 10.6 10.6 0 0 1 0 21.3" fill="#005bbbE4"/><path d="M-74.4-78.7a10.6 10.6 0 1 1 0-21.3 10.6 10.6 0 0 1 0 21.3" fill="#fff500E4"/><path d="M-36.9-23.6a10.7 10.7 0 1 1 0-21.3 10.7 10.7 0 0 1 0 21.3" fill="#fff500E5"/><path d="M-33.4-280.2a10.7 10.7 0 1 1 0-21.4 10.7 10.7 0 0 1 0 21.4" fill="#fff500E6"/><path d="M-58.2-246.2a10.7 10.7 0 1 1 0-21.4 10.7 10.7 0 0 1 0 21.4" fill="#c2e1ffE6"/><path d="M92.1 31.4a10.7 10.7 0 1 1 0-21.4 10.7 10.7 0 0 1 0 21.4" fill="#005bbbE6"/><path d="M223.2-281.9a10.8 10.8 0 1 1 0-21.6 10.8 10.8 0 0 1 0 21.6" fill="#c2e1ffE8"/><path d="M-11.9-290a10.8 10.8 0 1 1 0-21.6 10.8 10.8 0 0 1 0 21.6" fill="#c2e1ffE8"/><path d="M186.3-306.6a10.8 10.8 0 1 1 0-21.6 10.8 10.8 0 0 1 0 21.6" fill="#fff500E8"/><path d="M9.2-301.8a10.8 10.8 0 1 1 0-21.7 10.8 10.8 0 0 1 0 21.7" fill="#005bbbE9"/><path d="M147.2 13.3a10.9 10.9 0 1 1 0-21.7 10.9 10.9 0 0 1 0 21.7" fill="#fffEA"/><path d="M210.5-24.7a10.9 10.9 0 1 1 0-21.8 10.9 10.9 0 0 1 0 21.8" fill="#fffEB"/><path d="M-48.3-218.1a11 11 0 1 1 0-22 11 11 0 0 1 0 22" fill="#005bbbED"/><path d="M104.3 9.1a11 11 0 1 1 0-22.1 11 11 0 0 1 0 22.1" fill="#fff500ED"/><path d="M-15.4-64.5a11.2 11.2 0 1 1 0-22.4 11.2 11.2 0 0 1 0 22.4" fill="#c2e1ffF1"/><path d="M172.8-27.1a11.2 11.2 0 1 1 0-22.4 11.2 11.2 0 0 1 0 22.4" fill="#c2e1ffF1"/><path d="M83.1-9.3a11.2 11.2 0 1 1 0-22.4 11.2 11.2 0 0 1 0 22.4" fill="#fff500F1"/><path d="M-32.6-191.3a11.3 11.3 0 1 1 0-22.5 11.3 11.3 0 0 1 0 22.5" fill="#fffF2"/><path d="M80.7-287.3a11.3 11.3 0 1 1 0-22.5 11.3 11.3 0 0 1 0 22.5" fill="#005bbbF2"/><path d="M48.9-29.6a11.3 11.3 0 1 1 0-22.6 11.3 11.3 0 0 1 0 22.6" fill="#c2e1ffF3"/><path d="M209.9-80.3a11.3 11.3 0 1 1 0-22.7 11.3 11.3 0 0 1 0 22.7" fill="#c2e1ffF4"/><path d="M225.7-183.8a11.3 11.3 0 1 1 0-22.7 11.3 11.3 0 0 1 0 22.7" fill="#c2e1ffF4"/><path d="M222.5-148.2a11.4 11.4 0 1 1 0-22.8 11.4 11.4 0 0 1 0 22.8" fill="#fffF5"/><path d="M191.1-229a11.4 11.4 0 1 1 0-22.8 11.4 11.4 0 0 1 0 22.8" fill="#fff500F6"/><path d="M179.1-65.8a11.4 11.4 0 1 1 0-22.9 11.4 11.4 0 0 1 0 22.9" fill="#fffF6"/><path d="M43.7-230.5a11.5 11.5 0 1 1 0-23.1 11.5 11.5 0 0 1 0 23.1" fill="#fffF9"/><path d="M65.3-241.1a11.6 11.6 0 1 1 0-23.1 11.6 11.6 0 0 1 0 23.1" fill="#c2e1ffF9"/><path d="M26.8-91.3a11.6 11.6 0 1 1 0-23.1 11.6 11.6 0 0 1 0 23.1" fill="#005bbbF9"/><path d="M176.6-107a11.6 11.6 0 1 1 0-23.2 11.6 11.6 0 0 1 0 23.2" fill="#fff500FA"/><path d="M149.9-210a11.6 11.6 0 1 1 0-23.3 11.6 11.6 0 0 1 0 23.3" fill="#fffFB"/><path d="M90.4-75.4a11.7 11.7 0 1 1 0-23.3 11.7 11.7 0 0 1 0 23.3" fill="#fffFB"/><path d="M120.1-80.6a11.7 11.7 0 1 1 0-23.4 11.7 11.7 0 0 1 0 23.4" fill="#fff500FB"/><path d="M99.1-209.2a11.7 11.7 0 1 1 0-23.4 11.7 11.7 0 0 1 0 23.4" fill="#fffFC"/></g></svg>