<svg width="1200" height="675" viewBox="-500 -500 1200 675" xmlns="http://www.w3.org/2000/svg"><path d="M-500-500h1200v675h-1200z" fill="#000"/><style>.sparkles path{stroke-linecap:round; stroke-width:1}</style><g class="sparkles"><path d="M100-162.5l26.7-5.7" stroke="#11223332"/><path d="M100-162.5l-27.9-21.4" stroke="#11223332"/><path d="M100-162.5l-41-24.1" stroke="#11223333"/><path d="M100-162.5l-1.7-57.2" stroke="#14213d33"/><path d="M100-162.5l48.7 38.4" stroke="#ffffff33"/><path d="M100-162.5l63.3 7.8" stroke="#e5e5e533"/><path d="M100-162.5l47.4-46.8" stroke="#e5e5e534"/><path d="M100-162.5l-37.9 66.3" stroke="#ffffff34"/><path d="M100-162.5l75-47.9" stroke="#11223335"/><path d="M100-162.5l-25.4 88.5" stroke="#14213d35"/><path d="M100-162.5l26.2-95" stroke="#11223336"/><path d="M100-162.5l108.6-1.6" stroke="#e5e5e537"/><path d="M100-162.5l-41.4 103.4" stroke="#e5e5e537"/><path d="M100-162.5l109.1-64.1" stroke="#fca31139"/><path d="M100-162.5l-40.7-120.1" stroke="#14213d39"/><path d="M100-162.5l-90.9-89.4" stroke="#e5e5e539"/><path d="M100-162.5l2 129.9" stroke="#ffffff3A"/><path d="M100-162.5l-129.2-17.7" stroke="#14213d3A"/><path d="M100-162.5l83.5 101.4" stroke="#14213d3A"/><path d="M100-162.5l108.2-74.5" stroke="#e5e5e53A"/><path d="M100-162.5l116.3 74.9" stroke="#ffffff3B"/><path d="M100-162.5l2.8-140" stroke="#fca3113B"/><path d="M100-162.5l10.8-141.4" stroke="#e5e5e53C"/><path d="M100-162.5l-110.9-89.8" stroke="#ffffff3C"/><path d="M100-162.5l-89.3-111.7" stroke="#14213d3C"/><path d="M100-162.5l144 22.8" stroke="#fca3113C"/><path d="M100-162.5l29.9-158.1" stroke="#e5e5e53F"/><path d="M100-162.5l161.3 0" stroke="#1122333F"/><path d="M100-162.5l72.6-144.9" stroke="#1122333F"/><path d="M100-162.5l150.3-67.7" stroke="#e5e5e540"/><path d="M100-162.5l167.9 50.5" stroke="#fca31142"/><path d="M100-162.5l-46.8-170.7" stroke="#14213d42"/><path d="M100-162.5l-14.3-176.7" stroke="#ffffff42"/><path d="M100-162.5l-61.6-166.4" stroke="#ffffff42"/><path d="M100-162.5l-89.9-158.2" stroke="#11223344"/><path d="M100-162.5l-164.8-79.2" stroke="#fca31144"/><path d="M100-162.5l-169.4-68.9" stroke="#e5e5e544"/><path d="M100-162.5l-165.2 79" stroke="#fca31144"/><path d="M100-162.5l-121.2 137.3" stroke="#e5e5e544"/><path d="M100-162.5l-28.1 181.9" stroke="#ffffff44"/><path d="M100-162.5l-116.6 143.5" stroke="#14213d44"/><path d="M100-162.5l48 180.9" stroke="#fca31145"/><path d="M100-162.5l113.2 152.5" stroke="#11223346"/><path d="M100-162.5l-36.4-189" stroke="#e5e5e547"/><path d="M100-162.5l190.3 31.3" stroke="#fca31147"/><path d="M100-162.5l49.3-189.9" stroke="#ffffff48"/><path d="M100-162.5l-170.8 98.2" stroke="#fca31148"/><path d="M100-162.5l-74.7-182.7" stroke="#14213d48"/><path d="M100-162.5l-156.5 123.2" stroke="#ffffff49"/><path d="M100-162.5l-175-96" stroke="#14213d49"/><path d="M100-162.5l120.5-162.8" stroke="#1122334A"/><path d="M100-162.5l-143.1-145" stroke="#fca3114A"/><path d="M100-162.5l-10.4-204.9" stroke="#e5e5e54B"/><path d="M100-162.5l205.1-15.1" stroke="#fca3114B"/><path d="M100-162.5l54.2 200.3" stroke="#14213d4C"/><path d="M100-162.5l-187.5 93.5" stroke="#1122334C"/><path d="M100-162.5l-46.1 206.2" stroke="#fca3114D"/><path d="M100-162.5l-193.6 92.6" stroke="#1122334F"/><path d="M100-162.5l210.6-48.4" stroke="#ffffff4F"/><path d="M100-162.5l13.8-216.3" stroke="#ffffff50"/><path d="M100-162.5l-113.8-186.8" stroke="#e5e5e551"/><path d="M100-162.5l-170.2 137.4" stroke="#fca31151"/><path d="M100-162.5l-91.3 200.5" stroke="#e5e5e551"/><path d="M100-162.5l220.8-3.3" stroke="#fca31152"/><path d="M100-162.5l-55.1 219.5" stroke="#fca31155"/><path d="M100-162.5l-225.6 20.6" stroke="#11223355"/><path d="M100-162.5l226.3-43.5" stroke="#e5e5e558"/><path d="M100-162.5l-230.1-19.7" stroke="#fca31159"/><path d="M100-162.5l10.7-231.5" stroke="#fca3115A"/><path d="M100-162.5l-125-195.4" stroke="#14213d5A"/><path d="M100-162.5l-63.5-223.2" stroke="#e5e5e55A"/><path d="M100-162.5l205.6-109.4" stroke="#ffffff5B"/><path d="M100-162.5l9.4 232.8" stroke="#1122335B"/><path d="M100-162.5l160.5 169.4" stroke="#fca3115C"/><path d="M100-162.5l23.1-232.5" stroke="#1122335C"/><path d="M100-162.5l-82.8-219.1" stroke="#1122335D"/><path d="M100-162.5l-103.5-210.6" stroke="#e5e5e55E"/><path d="M100-162.5l101.8 211.7" stroke="#1122335E"/><path d="M100-162.5l-202 120" stroke="#fca3115E"/><path d="M100-162.5l-234.2-21.1" stroke="#1122335F"/><path d="M100-162.5l58.8 227.8" stroke="#ffffff5F"/><path d="M100-162.5l-123.7 200.4" stroke="#e5e5e55F"/><path d="M100-162.5l122-201.6" stroke="#11223360"/><path d="M100-162.5l194.1 134.2" stroke="#e5e5e561"/><path d="M100-162.5l-217.4-92.6" stroke="#e5e5e564"/><path d="M100-162.5l218.6 89.6" stroke="#ffffff64"/><path d="M100-162.5l197.3-129.7" stroke="#e5e5e565"/><path d="M100-162.5l160.7-173" stroke="#11223365"/><path d="M100-162.5l195.6-131.7" stroke="#14213d66"/><path d="M100-162.5l-124.1-200.1" stroke="#e5e5e568"/><path d="M100-162.5l-208.9-108.6" stroke="#ffffff68"/><path d="M100-162.5l-176.9 155.3" stroke="#ffffff68"/><path d="M100-162.5l200 123.6" stroke="#14213d68"/><path d="M100-162.5l234.9-8" stroke="#11223368"/><path d="M100-162.5l-173.7-158.2" stroke="#fca31169"/><path d="M100-162.5l-221.4 78" stroke="#fca31169"/><path d="M100-162.5l-16.7 234.1" stroke="#e5e5e569"/><path d="M100-162.5l-216.1 91" stroke="#14213d6A"/><path d="M100-162.5l233.4-16.1" stroke="#14213d6A"/><path d="M100-162.5l119.2-200.4" stroke="#e5e5e56C"/><path d="M100-162.5l226.4-44.5" stroke="#14213d6E"/><path d="M100-162.5l222.9 56.8" stroke="#1122336F"/><path d="M100-162.5l-226.5-35.6" stroke="#fca31170"/><path d="M100-162.5l-204 104.7" stroke="#fca31170"/><path d="M100-162.5l-177.5-144.4" stroke="#ffffff70"/><path d="M100-162.5l-24.3-227.5" stroke="#11223370"/><path d="M100-162.5l227.4 24" stroke="#fca31170"/><path d="M100-162.5l-220.4-56.9" stroke="#ffffff71"/><path d="M100-162.5l216.8 65.7" stroke="#fca31172"/><path d="M100-162.5l-84.3 208.5" stroke="#e5e5e573"/><path d="M100-162.5l-223.9 10.1" stroke="#14213d73"/><path d="M100-162.5l-64.9 214.5" stroke="#fca31173"/><path d="M100-162.5l7.4-224" stroke="#11223373"/><path d="M100-162.5l-221.7 25.1" stroke="#ffffff74"/><path d="M100-162.5l-218.1 46.7" stroke="#e5e5e574"/><path d="M100-162.5l-212.1-66.5" stroke="#14213d74"/><path d="M100-162.5l-213.6-58.7" stroke="#ffffff75"/><path d="M100-162.5l-120.9 184.3" stroke="#11223375"/><path d="M100-162.5l-107.5-191.8" stroke="#ffffff76"/><path d="M100-162.5l-217.6-6.3" stroke="#ffffff77"/><path d="M100-162.5l30.9-214.6" stroke="#ffffff77"/><path d="M100-162.5l207.9 51.4" stroke="#fca31179"/><path d="M100-162.5l-15.6 210.6" stroke="#e5e5e57A"/><path d="M100-162.5l27.6-207.1" stroke="#ffffff7B"/><path d="M100-162.5l-188.1 90.4" stroke="#ffffff7B"/><path d="M100-162.5l190.6 84.7" stroke="#ffffff7B"/><path d="M100-162.5l-145.4 147.5" stroke="#fca3117C"/><path d="M100-162.5l-134.9-156.7" stroke="#14213d7C"/><path d="M100-162.5l-64.2-196.1" stroke="#fca3117C"/><path d="M100-162.5l77.4 191.2" stroke="#ffffff7C"/><path d="M100-162.5l200.8-45.8" stroke="#fca3117C"/><path d="M100-162.5l195.2 62.2" stroke="#ffffff7C"/><path d="M100-162.5l-128.5-155.7" stroke="#e5e5e57D"/><path d="M100-162.5l64.5-187.5" stroke="#ffffff7F"/><path d="M100-162.5l-51.3-191.3" stroke="#e5e5e57F"/><path d="M100-162.5l-36-194.6" stroke="#fca3117F"/><path d="M100-162.5l156.2 120.1" stroke="#e5e5e57F"/><path d="M100-162.5l-128.5 144.2" stroke="#14213d80"/><path d="M100-162.5l126.9 144.4" stroke="#14213d81"/><path d="M100-162.5l181-58.7" stroke="#ffffff81"/><path d="M100-162.5l109 153.1" stroke="#e5e5e582"/><path d="M100-162.5l141 121.6" stroke="#ffffff82"/><path d="M100-162.5l-44.6 179.3" stroke="#e5e5e583"/><path d="M100-162.5l182.4 28.1" stroke="#e5e5e583"/><path d="M100-162.5l-152.6-102.7" stroke="#14213d83"/><path d="M100-162.5l140.5 116.4" stroke="#e5e5e583"/><path d="M100-162.5l74.6 165.3" stroke="#fca31184"/><path d="M100-162.5l55.1-172.4" stroke="#e5e5e584"/><path d="M100-162.5l172.6 49.5" stroke="#fca31184"/><path d="M100-162.5l-170.6-43" stroke="#14213d85"/><path d="M100-162.5l173.5 5.4" stroke="#11223385"/><path d="M100-162.5l-58.7 158.1" stroke="#fca31187"/><path d="M100-162.5l-52.4 158.8" stroke="#e5e5e587"/><path d="M100-162.5l139.7 87.5" stroke="#e5e5e587"/><path d="M100-162.5l-72.8 147" stroke="#14213d87"/><path d="M100-162.5l-49.8-155" stroke="#fca31188"/><path d="M100-162.5l-117.9-102.9" stroke="#fca31189"/><path d="M100-162.5l80.4 131.9" stroke="#14213d89"/><path d="M100-162.5l149.4 35.2" stroke="#fca3118A"/><path d="M100-162.5l66.6-135.5" stroke="#e5e5e58A"/><path d="M100-162.5l12.4 142" stroke="#1122338B"/><path d="M100-162.5l-81.2-104.4" stroke="#1122338D"/><path d="M100-162.5l126.9 23.9" stroke="#e5e5e58D"/><path d="M100-162.5l-45.5-120.7" stroke="#1122338D"/><path d="M100-162.5l-90.6 79.9" stroke="#e5e5e58E"/><path d="M100-162.5l115.8-20.4" stroke="#1122338F"/><path d="M100-162.5l-31 112.2" stroke="#fca3118F"/><path d="M100-162.5l25.5-112.6" stroke="#14213d8F"/><path d="M100-162.5l-0.6 115.4" stroke="#e5e5e58F"/><path d="M100-162.5l-93.9 27.2" stroke="#fca31191"/><path d="M100-162.5l85.6-24.9" stroke="#fca31192"/><path d="M100-162.5l-73.3-49.6" stroke="#ffffff92"/><path d="M100-162.5l87.5-8.2" stroke="#11223392"/><path d="M100-162.5l21.9 84.9" stroke="#11223392"/><path d="M100-162.5l-68.3 41.7" stroke="#fca31193"/><path d="M100-162.5l50.9-51" stroke="#fca31193"/><path d="M100-162.5l-29.4-53.5" stroke="#ffffff94"/><path d="M100-162.5l-54.7 7.6" stroke="#14213d94"/><path d="M100-162.5l-0.4-47.1" stroke="#14213d94"/><path d="M100-162.5l25.8 4.1" stroke="#11223395"/><path d="M100-162.5l1.3-23" stroke="#e5e5e595"/></g><g class="sparcs"><path d="M126.7-162.3a5.9 5.9 0 1 1 0-11.8 5.9 5.9 0 0 1 0 11.8" fill="#ffffff7D"/><path d="M72.1-178a5.9 5.9 0 1 1 0-11.8 5.9 5.9 0 0 1 0 11.8" fill="#14213d7D"/><path d="M59-180.6a6 6 0 1 1 0-11.9 6 6 0 0 1 0 11.9" fill="#e5e5e57E"/><path d="M98.3-213.7a6 6 0 1 1 0-12 6 6 0 0 1 0 12" fill="#fca3117E"/><path d="M148.7-118.1a6 6 0 1 1 0-12 6 6 0 0 1 0 12" fill="#e5e5e57F"/><path d="M163.3-148.7a6 6 0 1 1 0-12 6 6 0 0 1 0 12" fill="#14213d7F"/><path d="M147.4-203.3a6 6 0 1 1 0-12 6 6 0 0 1 0 12" fill="#e5e5e57F"/><path d="M62.1-90.2a6.1 6.1 0 1 1 0-12.1 6.1 6.1 0 0 1 0 12.1" fill="#fca31180"/><path d="M175-204.3a6.1 6.1 0 1 1 0-12.3 6.1 6.1 0 0 1 0 12.3" fill="#ffffff81"/><path d="M74.6-67.9a6.1 6.1 0 1 1 0-12.3 6.1 6.1 0 0 1 0 12.3" fill="#11223382"/><path d="M126.2-251.3a6.2 6.2 0 1 1 0-12.3 6.2 6.2 0 0 1 0 12.3" fill="#ffffff82"/><path d="M208.6-157.9a6.2 6.2 0 1 1 0-12.5 6.2 6.2 0 0 1 0 12.5" fill="#14213d84"/><path d="M58.6-52.8a6.3 6.3 0 1 1 0-12.5 6.3 6.3 0 0 1 0 12.5" fill="#e5e5e584"/><path d="M209.1-220.3a6.4 6.4 0 1 1 0-12.7 6.4 6.4 0 0 1 0 12.7" fill="#14213d87"/><path d="M59.3-276.2a6.4 6.4 0 1 1 0-12.7 6.4 6.4 0 0 1 0 12.7" fill="#11223387"/><path d="M9.1-245.5a6.4 6.4 0 1 1 0-12.7 6.4 6.4 0 0 1 0 12.7" fill="#14213d87"/><path d="M102-26.2a6.4 6.4 0 1 1 0-12.8 6.4 6.4 0 0 1 0 12.8" fill="#ffffff87"/><path d="M-29.2-173.8a6.4 6.4 0 1 1 0-12.8 6.4 6.4 0 0 1 0 12.8" fill="#e5e5e587"/><path d="M183.5-54.7a6.4 6.4 0 1 1 0-12.8 6.4 6.4 0 0 1 0 12.8" fill="#e5e5e587"/><path d="M208.2-230.6a6.4 6.4 0 1 1 0-12.8 6.4 6.4 0 0 1 0 12.8" fill="#fca31187"/><path d="M216.3-81.1a6.5 6.5 0 1 1 0-13 6.5 6.5 0 0 1 0 13" fill="#fca31189"/><path d="M102.8-296.1a6.5 6.5 0 1 1 0-12.9 6.5 6.5 0 0 1 0 12.9" fill="#fca31189"/><path d="M110.8-297.4a6.5 6.5 0 1 1 0-13 6.5 6.5 0 0 1 0 13" fill="#ffffff8A"/><path d="M-10.9-245.8a6.5 6.5 0 1 1 0-13 6.5 6.5 0 0 1 0 13" fill="#14213d8A"/><path d="M10.7-267.7a6.5 6.5 0 1 1 0-13 6.5 6.5 0 0 1 0 13" fill="#14213d8A"/><path d="M244-133.2a6.5 6.5 0 1 1 0-13.1 6.5 6.5 0 0 1 0 13.1" fill="#14213d8A"/><path d="M129.9-313.9a6.7 6.7 0 1 1 0-13.4 6.7 6.7 0 0 1 0 13.4" fill="#e5e5e58E"/><path d="M261.3-155.8a6.7 6.7 0 1 1 0-13.4 6.7 6.7 0 0 1 0 13.4" fill="#14213d8E"/><path d="M172.6-300.7a6.7 6.7 0 1 1 0-13.4 6.7 6.7 0 0 1 0 13.4" fill="#ffffff8E"/><path d="M250.3-223.5a6.7 6.7 0 1 1 0-13.5 6.7 6.7 0 0 1 0 13.5" fill="#1122338F"/><path d="M267.9-105.2a6.9 6.9 0 1 1 0-13.7 6.9 6.9 0 0 1 0 13.7" fill="#e5e5e592"/><path d="M53.2-326.3a6.9 6.9 0 1 1 0-13.8 6.9 6.9 0 0 1 0 13.8" fill="#ffffff92"/><path d="M85.7-332.3a6.9 6.9 0 1 1 0-13.8 6.9 6.9 0 0 1 0 13.8" fill="#e5e5e593"/><path d="M38.4-322a6.9 6.9 0 1 1 0-13.8 6.9 6.9 0 0 1 0 13.8" fill="#fca31193"/><path d="M10.1-313.7a7 7 0 1 1 0-14 7 7 0 0 1 0 14" fill="#14213d94"/><path d="M-64.8-234.8a7 7 0 1 1 0-13.9 7 7 0 0 1 0 13.9" fill="#14213d94"/><path d="M-69.4-224.4a7 7 0 1 1 0-14 7 7 0 0 1 0 14" fill="#fca31194"/><path d="M-65.2-76.5a7 7 0 1 1 0-14 7 7 0 0 1 0 14" fill="#e5e5e594"/><path d="M-21.2-18.2a7 7 0 1 1 0-13.9 7 7 0 0 1 0 13.9" fill="#e5e5e594"/><path d="M71.9 26.4a7 7 0 1 1 0-14 7 7 0 0 1 0 14" fill="#fca31195"/><path d="M-16.6-12a7 7 0 1 1 0-14 7 7 0 0 1 0 14" fill="#ffffff95"/><path d="M148 25.5a7.1 7.1 0 1 1 0-14.1 7.1 7.1 0 0 1 0 14.1" fill="#11223396"/><path d="M213.2-2.9a7.1 7.1 0 1 1 0-14.2 7.1 7.1 0 0 1 0 14.2" fill="#11223397"/><path d="M63.6-344.4a7.1 7.1 0 1 1 0-14.3 7.1 7.1 0 0 1 0 14.3" fill="#14213d98"/><path d="M290.3-124.1a7.2 7.2 0 1 1 0-14.3 7.2 7.2 0 0 1 0 14.3" fill="#11223398"/><path d="M149.3-345.2a7.2 7.2 0 1 1 0-14.5 7.2 7.2 0 0 1 0 14.5" fill="#e5e5e599"/><path d="M-70.8-57a7.2 7.2 0 1 1 0-14.5 7.2 7.2 0 0 1 0 14.5" fill="#ffffff9A"/><path d="M25.3-337.9a7.2 7.2 0 1 1 0-14.5 7.2 7.2 0 0 1 0 14.5" fill="#e5e5e59A"/><path d="M-56.5-32.1a7.3 7.3 0 1 1 0-14.5 7.3 7.3 0 0 1 0 14.5" fill="#e5e5e59B"/><path d="M-75-251.2a7.3 7.3 0 1 1 0-14.5 7.3 7.3 0 0 1 0 14.5" fill="#e5e5e59B"/><path d="M220.5-318a7.3 7.3 0 1 1 0-14.6 7.3 7.3 0 0 1 0 14.6" fill="#14213d9C"/><path d="M-43.1-300.1a7.4 7.4 0 1 1 0-14.7 7.4 7.4 0 0 1 0 14.7" fill="#ffffff9D"/><path d="M89.6-360a7.4 7.4 0 1 1 0-14.8 7.4 7.4 0 0 1 0 14.8" fill="#e5e5e59D"/><path d="M305.1-170.2a7.4 7.4 0 1 1 0-14.8 7.4 7.4 0 0 1 0 14.8" fill="#e5e5e59E"/><path d="M154.2 45.2a7.4 7.4 0 1 1 0-14.9 7.4 7.4 0 0 1 0 14.9" fill="#14213d9E"/><path d="M-87.5-61.5a7.5 7.5 0 1 1 0-15 7.5 7.5 0 0 1 0 15" fill="#14213d9F"/><path d="M53.9 51.2a7.5 7.5 0 1 1 0-15 7.5 7.5 0 0 1 0 15" fill="#fca311A0"/><path d="M-93.6-62.3a7.6 7.6 0 1 1 0-15.2 7.6 7.6 0 0 1 0 15.2" fill="#fca311A2"/><path d="M310.6-203.3a7.7 7.7 0 1 1 0-15.3 7.7 7.7 0 0 1 0 15.3" fill="#112233A3"/><path d="M113.8-371.2a7.7 7.7 0 1 1 0-15.3 7.7 7.7 0 0 1 0 15.3" fill="#14213dA4"/><path d="M-13.8-341.6a7.7 7.7 0 1 1 0-15.5 7.7 7.7 0 0 1 0 15.5" fill="#14213dA5"/><path d="M-70.2-17.3a7.7 7.7 0 1 1 0-15.5 7.7 7.7 0 0 1 0 15.5" fill="#14213dA5"/><path d="M8.7 45.7a7.8 7.8 0 1 1 0-15.5 7.8 7.8 0 0 1 0 15.5" fill="#fca311A6"/><path d="M320.8-158a7.8 7.8 0 1 1 0-15.6 7.8 7.8 0 0 1 0 15.6" fill="#ffffffA6"/><path d="M44.9 65a8 8 0 1 1 0-16 8 8 0 0 1 0 16" fill="#14213dAB"/><path d="M-125.6-133.9a8 8 0 1 1 0-16 8 8 0 0 1 0 16" fill="#112233AB"/><path d="M326.3-197.8a8.2 8.2 0 1 1 0-16.4 8.2 8.2 0 0 1 0 16.4" fill="#ffffffAF"/><path d="M-130.1-173.9a8.2 8.2 0 1 1 0-16.5 8.2 8.2 0 0 1 0 16.5" fill="#ffffffB0"/><path d="M110.7-385.7a8.3 8.3 0 1 1 0-16.6 8.3 8.3 0 0 1 0 16.6" fill="#14213dB1"/><path d="M-25-349.6a8.3 8.3 0 1 1 0-16.6 8.3 8.3 0 0 1 0 16.6" fill="#ffffffB1"/><path d="M36.5-377.4a8.3 8.3 0 1 1 0-16.6 8.3 8.3 0 0 1 0 16.6" fill="#14213dB1"/><path d="M305.6-263.6a8.4 8.4 0 1 1 0-16.7 8.4 8.4 0 0 1 0 16.7" fill="#112233B3"/><path d="M109.4 78.7a8.4 8.4 0 1 1 0-16.8 8.4 8.4 0 0 1 0 16.8" fill="#e5e5e5B3"/><path d="M260.5 15.3a8.4 8.4 0 1 1 0-16.8 8.4 8.4 0 0 1 0 16.8" fill="#ffffffB3"/><path d="M123.1-386.6a8.4 8.4 0 1 1 0-16.8 8.4 8.4 0 0 1 0 16.8" fill="#e5e5e5B4"/><path d="M17.2-373.1a8.5 8.5 0 1 1 0-17 8.5 8.5 0 0 1 0 17" fill="#fca311B5"/><path d="M-3.5-364.6a8.5 8.5 0 1 1 0-17 8.5 8.5 0 0 1 0 17" fill="#ffffffB6"/><path d="M201.8 57.7a8.5 8.5 0 1 1 0-17 8.5 8.5 0 0 1 0 17" fill="#112233B7"/><path d="M-102-33.9a8.6 8.6 0 1 1 0-17.2 8.6 8.6 0 0 1 0 17.2" fill="#fca311B7"/><path d="M-134.2-175a8.6 8.6 0 1 1 0-17.2 8.6 8.6 0 0 1 0 17.2" fill="#14213dB7"/><path d="M158.8 73.9a8.6 8.6 0 1 1 0-17.2 8.6 8.6 0 0 1 0 17.2" fill="#fca311B8"/><path d="M-23.7 46.5a8.6 8.6 0 1 1 0-17.3 8.6 8.6 0 0 1 0 17.3" fill="#ffffffB8"/><path d="M222-355.5a8.6 8.6 0 1 1 0-17.3 8.6 8.6 0 0 1 0 17.3" fill="#112233B9"/><path d="M294.1-19.6a8.7 8.7 0 1 1 0-17.5 8.7 8.7 0 0 1 0 17.5" fill="#fca311BA"/><path d="M-117.4-246.2a8.9 8.9 0 1 1 0-17.8 8.9 8.9 0 0 1 0 17.8" fill="#112233BE"/><path d="M318.6-64a8.9 8.9 0 1 1 0-17.8 8.9 8.9 0 0 1 0 17.8" fill="#112233BF"/><path d="M297.3-283.3a9 9 0 1 1 0-17.9 9 9 0 0 1 0 17.9" fill="#fca311C0"/><path d="M260.7-326.6a9 9 0 1 1 0-17.9 9 9 0 0 1 0 17.9" fill="#14213dC0"/><path d="M295.6-285.2a9 9 0 1 1 0-18.1 9 9 0 0 1 0 18.1" fill="#fca311C1"/><path d="M-24.1-353.5a9.1 9.1 0 1 1 0-18.2 9.1 9.1 0 0 1 0 18.2" fill="#e5e5e5C3"/><path d="M-108.9-262a9.1 9.1 0 1 1 0-18.2 9.1 9.1 0 0 1 0 18.2" fill="#ffffffC3"/><path d="M-76.9 1.9a9.1 9.1 0 1 1 0-18.2 9.1 9.1 0 0 1 0 18.2" fill="#fca311C3"/><path d="M300-29.8a9.1 9.1 0 1 1 0-18.3 9.1 9.1 0 0 1 0 18.3" fill="#fca311C4"/><path d="M334.9-161.3a9.2 9.2 0 1 1 0-18.3 9.2 9.2 0 0 1 0 18.3" fill="#ffffffC4"/><path d="M-73.7-311.6a9.2 9.2 0 1 1 0-18.3 9.2 9.2 0 0 1 0 18.3" fill="#112233C4"/><path d="M-121.4-75.3a9.2 9.2 0 1 1 0-18.4 9.2 9.2 0 0 1 0 18.4" fill="#112233C5"/><path d="M83.3 80.8a9.2 9.2 0 1 1 0-18.4 9.2 9.2 0 0 1 0 18.4" fill="#112233C5"/><path d="M-116.1-62.3a9.2 9.2 0 1 1 0-18.5 9.2 9.2 0 0 1 0 18.5" fill="#ffffffC5"/><path d="M333.4-169.3a9.3 9.3 0 1 1 0-18.6 9.3 9.3 0 0 1 0 18.6" fill="#fca311C7"/><path d="M219.2-353.6a9.3 9.3 0 1 1 0-18.6 9.3 9.3 0 0 1 0 18.6" fill="#14213dC8"/><path d="M326.4-197.5a9.5 9.5 0 1 1 0-19 9.5 9.5 0 0 1 0 19" fill="#ffffffCB"/><path d="M322.9-96.2a9.5 9.5 0 1 1 0-19 9.5 9.5 0 0 1 0 19" fill="#ffffffCC"/><path d="M-126.5-188.6a9.6 9.6 0 1 1 0-19.1 9.6 9.6 0 0 1 0 19.1" fill="#112233CD"/><path d="M-104-48.2a9.6 9.6 0 1 1 0-19.2 9.6 9.6 0 0 1 0 19.2" fill="#112233CD"/><path d="M-77.5-297.3a9.6 9.6 0 1 1 0-19.2 9.6 9.6 0 0 1 0 19.2" fill="#14213dCE"/><path d="M75.7-380.4a9.6 9.6 0 1 1 0-19.2 9.6 9.6 0 0 1 0 19.2" fill="#14213dCE"/><path d="M327.4-128.9a9.6 9.6 0 1 1 0-19.2 9.6 9.6 0 0 1 0 19.2" fill="#ffffffCE"/><path d="M-120.4-209.7a9.7 9.7 0 1 1 0-19.4 9.7 9.7 0 0 1 0 19.4" fill="#fca311CF"/><path d="M316.8-87.1a9.7 9.7 0 1 1 0-19.4 9.7 9.7 0 0 1 0 19.4" fill="#fca311D0"/><path d="M15.7 55.8a9.8 9.8 0 1 1 0-19.5 9.8 9.8 0 0 1 0 19.5" fill="#ffffffD1"/><path d="M-123.9-142.6a9.8 9.8 0 1 1 0-19.6 9.8 9.8 0 0 1 0 19.6" fill="#fca311D2"/><path d="M35.1 61.8a9.8 9.8 0 1 1 0-19.6 9.8 9.8 0 0 1 0 19.6" fill="#112233D2"/><path d="M107.4-376.7a9.8 9.8 0 1 1 0-19.6 9.8 9.8 0 0 1 0 19.6" fill="#ffffffD2"/><path d="M-121.7-127.6a9.8 9.8 0 1 1 0-19.7 9.8 9.8 0 0 1 0 19.7" fill="#fca311D3"/><path d="M-118.1-106a9.8 9.8 0 1 1 0-19.7 9.8 9.8 0 0 1 0 19.7" fill="#14213dD3"/><path d="M-112.1-219.2a9.9 9.9 0 1 1 0-19.7 9.9 9.9 0 0 1 0 19.7" fill="#e5e5e5D4"/><path d="M-113.6-211.3a9.9 9.9 0 1 1 0-19.7 9.9 9.9 0 0 1 0 19.7" fill="#ffffffD4"/><path d="M-20.9 31.8a9.9 9.9 0 1 1 0-19.9 9.9 9.9 0 0 1 0 19.9" fill="#e5e5e5D5"/><path d="M-7.5-344.3a9.9 9.9 0 1 1 0-19.9 9.9 9.9 0 0 1 0 19.9" fill="#14213dD5"/><path d="M-117.6-158.8a10 10 0 1 1 0-20 10 10 0 0 1 0 20" fill="#fca311D7"/><path d="M130.9-367.1a10 10 0 1 1 0-20 10 10 0 0 1 0 20" fill="#14213dD7"/><path d="M307.9-101a10.1 10.1 0 1 1 0-20.2 10.1 10.1 0 0 1 0 20.2" fill="#112233D9"/><path d="M84.4 58.3a10.2 10.2 0 1 1 0-20.4 10.2 10.2 0 0 1 0 20.4" fill="#112233DB"/><path d="M127.6-359.3a10.2 10.2 0 1 1 0-20.5 10.2 10.2 0 0 1 0 20.5" fill="#112233DC"/><path d="M-88.1-61.8a10.2 10.2 0 1 1 0-20.5 10.2 10.2 0 0 1 0 20.5" fill="#ffffffDC"/><path d="M290.6-67.5a10.2 10.2 0 1 1 0-20.5 10.2 10.2 0 0 1 0 20.5" fill="#112233DC"/><path d="M-45.4-4.7a10.3 10.3 0 1 1 0-20.5 10.3 10.3 0 0 1 0 20.5" fill="#ffffffDD"/><path d="M-34.9-308.9a10.3 10.3 0 1 1 0-20.6 10.3 10.3 0 0 1 0 20.6" fill="#fca311DD"/><path d="M35.8-348.3a10.3 10.3 0 1 1 0-20.6 10.3 10.3 0 0 1 0 20.6" fill="#14213dDD"/><path d="M177.4 39a10.3 10.3 0 1 1 0-20.6 10.3 10.3 0 0 1 0 20.6" fill="#e5e5e5DD"/><path d="M300.8-198a10.3 10.3 0 1 1 0-20.7 10.3 10.3 0 0 1 0 20.7" fill="#fca311DD"/><path d="M295.2-90a10.3 10.3 0 1 1 0-20.7 10.3 10.3 0 0 1 0 20.7" fill="#14213dDE"/><path d="M-28.5-307.8a10.4 10.4 0 1 1 0-20.8 10.4 10.4 0 0 1 0 20.8" fill="#fca311DF"/><path d="M164.5-339.6a10.5 10.5 0 1 1 0-20.9 10.5 10.5 0 0 1 0 20.9" fill="#ffffffE1"/><path d="M48.7-343.3a10.5 10.5 0 1 1 0-20.9 10.5 10.5 0 0 1 0 20.9" fill="#fca311E1"/><path d="M64-346.7a10.5 10.5 0 1 1 0-20.9 10.5 10.5 0 0 1 0 20.9" fill="#e5e5e5E1"/><path d="M256.2-31.9a10.5 10.5 0 1 1 0-21 10.5 10.5 0 0 1 0 21" fill="#112233E1"/><path d="M-28.5-7.8a10.6 10.6 0 1 1 0-21.1 10.6 10.6 0 0 1 0 21.1" fill="#fca311E3"/><path d="M226.9-7.5a10.6 10.6 0 1 1 0-21.1 10.6 10.6 0 0 1 0 21.1" fill="#ffffffE3"/><path d="M281-210.6a10.6 10.6 0 1 1 0-21.2 10.6 10.6 0 0 1 0 21.2" fill="#fca311E4"/><path d="M209 1.3a10.6 10.6 0 1 1 0-21.3 10.6 10.6 0 0 1 0 21.3" fill="#fca311E5"/><path d="M241-30.2a10.7 10.7 0 1 1 0-21.4 10.7 10.7 0 0 1 0 21.4" fill="#fca311E6"/><path d="M55.4 27.5a10.7 10.7 0 1 1 0-21.4 10.7 10.7 0 0 1 0 21.4" fill="#ffffffE6"/><path d="M282.4-123.7a10.7 10.7 0 1 1 0-21.4 10.7 10.7 0 0 1 0 21.4" fill="#fca311E6"/><path d="M-52.6-254.4a10.7 10.7 0 1 1 0-21.5 10.7 10.7 0 0 1 0 21.5" fill="#112233E6"/><path d="M240.5-35.4a10.7 10.7 0 1 1 0-21.5 10.7 10.7 0 0 1 0 21.5" fill="#ffffffE7"/><path d="M174.6 13.6a10.8 10.8 0 1 1 0-21.5 10.8 10.8 0 0 1 0 21.5" fill="#e5e5e5E7"/><path d="M155.1-324.1a10.8 10.8 0 1 1 0-21.5 10.8 10.8 0 0 1 0 21.5" fill="#ffffffE7"/><path d="M272.6-102.2a10.8 10.8 0 1 1 0-21.6 10.8 10.8 0 0 1 0 21.6" fill="#e5e5e5E8"/><path d="M-70.6-194.7a10.8 10.8 0 1 1 0-21.6 10.8 10.8 0 0 1 0 21.6" fill="#ffffffE9"/><path d="M273.5-146.3a10.9 10.9 0 1 1 0-21.7 10.9 10.9 0 0 1 0 21.7" fill="#ffffffEA"/><path d="M41.3 6.5a10.9 10.9 0 1 1 0-21.8 10.9 10.9 0 0 1 0 21.8" fill="#fca311EB"/><path d="M47.6 7.2a10.9 10.9 0 1 1 0-21.8 10.9 10.9 0 0 1 0 21.8" fill="#e5e5e5EB"/><path d="M239.7-64a11 11 0 1 1 0-22 11 11 0 0 1 0 22" fill="#14213dEC"/><path d="M27.2-4.5a11 11 0 1 1 0-22 11 11 0 0 1 0 22" fill="#e5e5e5EC"/><path d="M50.2-306.5a11 11 0 1 1 0-22 11 11 0 0 1 0 22" fill="#e5e5e5ED"/><path d="M-17.9-254.3a11.1 11.1 0 1 1 0-22.2 11.1 11.1 0 0 1 0 22.2" fill="#fca311EE"/><path d="M180.4-19.5a11.1 11.1 0 1 1 0-22.2 11.1 11.1 0 0 1 0 22.2" fill="#14213dEF"/><path d="M249.4-116.2a11.1 11.1 0 1 1 0-22.2 11.1 11.1 0 0 1 0 22.2" fill="#ffffffEF"/><path d="M166.6-286.8a11.1 11.1 0 1 1 0-22.3 11.1 11.1 0 0 1 0 22.3" fill="#e5e5e5EF"/><path d="M112.4-9.3a11.2 11.2 0 1 1 0-22.4 11.2 11.2 0 0 1 0 22.4" fill="#fca311F1"/><path d="M18.8-255.5a11.3 11.3 0 1 1 0-22.7 11.3 11.3 0 0 1 0 22.7" fill="#112233F3"/><path d="M226.9-127.3a11.3 11.3 0 1 1 0-22.6 11.3 11.3 0 0 1 0 22.6" fill="#e5e5e5F4"/><path d="M54.5-271.9a11.3 11.3 0 1 1 0-22.7 11.3 11.3 0 0 1 0 22.7" fill="#e5e5e5F4"/><path d="M9.4-71.2a11.4 11.4 0 1 1 0-22.8 11.4 11.4 0 0 1 0 22.8" fill="#14213dF5"/><path d="M215.8-171.5a11.4 11.4 0 1 1 0-22.8 11.4 11.4 0 0 1 0 22.8" fill="#14213dF6"/><path d="M69-38.9a11.4 11.4 0 1 1 0-22.8 11.4 11.4 0 0 1 0 22.8" fill="#112233F6"/><path d="M125.5-263.6a11.4 11.4 0 1 1 0-22.9 11.4 11.4 0 0 1 0 22.9" fill="#e5e5e5F6"/><path d="M99.4-35.7a11.4 11.4 0 1 1 0-22.9 11.4 11.4 0 0 1 0 22.9" fill="#112233F6"/><path d="M6.1-123.7a11.5 11.5 0 1 1 0-23.1 11.5 11.5 0 0 1 0 23.1" fill="#ffffffF9"/><path d="M185.6-175.8a11.6 11.6 0 1 1 0-23.2 11.6 11.6 0 0 1 0 23.2" fill="#ffffffFA"/><path d="M26.7-200.5a11.6 11.6 0 1 1 0-23.2 11.6 11.6 0 0 1 0 23.2" fill="#14213dFA"/><path d="M187.5-159.1a11.6 11.6 0 1 1 0-23.2 11.6 11.6 0 0 1 0 23.2" fill="#ffffffFA"/><path d="M121.9-66a11.6 11.6 0 1 1 0-23.2 11.6 11.6 0 0 1 0 23.2" fill="#ffffffFA"/><path d="M31.7-109.1a11.6 11.6 0 1 1 0-23.3 11.6 11.6 0 0 1 0 23.3" fill="#ffffffFB"/><path d="M150.9-201.8a11.7 11.7 0 1 1 0-23.4 11.7 11.7 0 0 1 0 23.4" fill="#14213dFB"/><path d="M70.6-204.3a11.7 11.7 0 1 1 0-23.5 11.7 11.7 0 0 1 0 23.5" fill="#14213dFC"/><path d="M45.3-143.1a11.7 11.7 0 1 1 0-23.5 11.7 11.7 0 0 1 0 23.5" fill="#fca311FD"/><path d="M99.6-197.9a11.8 11.8 0 1 1 0-23.5 11.8 11.8 0 0 1 0 23.5" fill="#e5e5e5FD"/><path d="M125.8-146.6a11.8 11.8 0 1 1 0-23.6 11.8 11.8 0 0 1 0 23.6" fill="#14213dFE"/><path d="M101.3-173.7a11.8 11.8 0 1 1 0-23.6 11.8 11.8 0 0 1 0 23.6" fill="#112233FE"/></g></svg>