<svg width="1200" height="675" viewBox="-500 -500 1200 675" xmlns="http://www.w3.org/2000/svg"><path d="M-500-500h1200v675h-1200z" fill="#000"/><style>.sparkles path{stroke-linecap:round; stroke-width:1}</style><g class="sparkles"><path d="M100-162.5l2.9-38.1" stroke="#005bbb32"/><path d="M100-162.5l-35.1 23.6" stroke="#fff50032"/><path d="M100-162.5l5.8-43.5" stroke="#fff50032"/><path d="M100-162.5l-12.4-58.7" stroke="#c2e1ff33"/><path d="M100-162.5l-53.2-29.8" stroke="#c2e1ff33"/><path d="M100-162.5l70.5-10.4" stroke="#005bbb34"/><path d="M100-162.5l-83.2-17.6" stroke="#c2e1ff35"/><path d="M100-162.5l-64.9 59.2" stroke="#005bbb35"/><path d="M100-162.5l75.9 56.8" stroke="#c2e1ff36"/><path d="M100-162.5l-75.4-76.2" stroke="#005bbb37"/><path d="M100-162.5l-16.6 108.4" stroke="#005bbb37"/><path d="M100-162.5l-5.8-118.9" stroke="#fff50038"/><path d="M100-162.5l101.3-70.8" stroke="#fff50039"/><path d="M100-162.5l-26 122.1" stroke="#fff39"/><path d="M100-162.5l108.4-88.1" stroke="#005bbb3B"/><path d="M100-162.5l-64.8-126" stroke="#005bbb3B"/><path d="M100-162.5l51.3-135" stroke="#c2e1ff3C"/><path d="M100-162.5l-52.9 136.2" stroke="#005bbb3C"/><path d="M100-162.5l-2.8 153.4" stroke="#fff3D"/><path d="M100-162.5l150.1 36.6" stroke="#c2e1ff3E"/><path d="M100-162.5l-102.6-120.7" stroke="#fff3E"/><path d="M100-162.5l-158.2-17.7" stroke="#c2e1ff3F"/><path d="M100-162.5l-158-41.8" stroke="#fff5003F"/><path d="M100-162.5l136-92.7" stroke="#fff50040"/><path d="M100-162.5l-160.3 39" stroke="#fff40"/><path d="M100-162.5l-7.3 166" stroke="#fff40"/><path d="M100-162.5l97.1-136.9" stroke="#c2e1ff40"/><path d="M100-162.5l114.7 123.7" stroke="#c2e1ff41"/><path d="M100-162.5l-117.4-124.6" stroke="#005bbb41"/><path d="M100-162.5l171.3-23.8" stroke="#fff41"/><path d="M100-162.5l-150.6-90.5" stroke="#fff50042"/><path d="M100-162.5l168.9 49.6" stroke="#fff50042"/><path d="M100-162.5l-181.6-10.9" stroke="#005bbb44"/><path d="M100-162.5l-25.1 183" stroke="#fff50044"/><path d="M100-162.5l-87.5-165.8" stroke="#fff50045"/><path d="M100-162.5l176.9-66.3" stroke="#fff50045"/><path d="M100-162.5l81.9 187" stroke="#c2e1ff4A"/><path d="M100-162.5l-128.5-160.4" stroke="#005bbb4B"/><path d="M100-162.5l-186.2-89.8" stroke="#fff5004B"/><path d="M100-162.5l207.4 0" stroke="#005bbb4C"/><path d="M100-162.5l-196.5-67.4" stroke="#005bbb4C"/><path d="M100-162.5l-203.1 47" stroke="#c2e1ff4C"/><path d="M100-162.5l193.1 79.4" stroke="#fff5004C"/><path d="M100-162.5l-106.4 180.5" stroke="#fff5004C"/><path d="M100-162.5l-112-177.1" stroke="#005bbb4C"/><path d="M100-162.5l120.5-172.2" stroke="#fff5004D"/><path d="M100-162.5l-193.9-81.4" stroke="#005bbb4D"/><path d="M100-162.5l1 211.9" stroke="#fff5004D"/><path d="M100-162.5l-22.9 213.2" stroke="#005bbb4F"/><path d="M100-162.5l-205.4 68.4" stroke="#fff5004F"/><path d="M100-162.5l205.3 74.7" stroke="#fff50"/><path d="M100-162.5l-218.5 29.1" stroke="#fff52"/><path d="M100-162.5l-196.5-101" stroke="#fff52"/><path d="M100-162.5l159-154.4" stroke="#c2e1ff52"/><path d="M100-162.5l156.9-156.6" stroke="#fff50052"/><path d="M100-162.5l125.3 183.5" stroke="#c2e1ff53"/><path d="M100-162.5l33.6 224.9" stroke="#c2e1ff56"/><path d="M100-162.5l169.5-152.9" stroke="#fff57"/><path d="M100-162.5l-133.8-185.1" stroke="#fff50057"/><path d="M100-162.5l102 206" stroke="#fff50058"/><path d="M100-162.5l231.9 17.1" stroke="#fff5005B"/><path d="M100-162.5l-90 214.9" stroke="#fff5005B"/><path d="M100-162.5l169.5-160.7" stroke="#fff5C"/><path d="M100-162.5l115.1 203.7" stroke="#c2e1ff5D"/><path d="M100-162.5l53.2 227.9" stroke="#c2e1ff5D"/><path d="M100-162.5l-139.5 188.1" stroke="#c2e1ff5D"/><path d="M100-162.5l155.8 175.5" stroke="#005bbb5E"/><path d="M100-162.5l-212.2-100.6" stroke="#005bbb5E"/><path d="M100-162.5l31.1-233.3" stroke="#fff5005F"/><path d="M100-162.5l-220.9-81.2" stroke="#005bbb5F"/><path d="M100-162.5l93.9-216.1" stroke="#c2e1ff60"/><path d="M100-162.5l-142.6-187.7" stroke="#c2e1ff60"/><path d="M100-162.5l145.5 185.5" stroke="#fff60"/><path d="M100-162.5l-177.3-155.6" stroke="#fff50061"/><path d="M100-162.5l-66-226.6" stroke="#c2e1ff61"/><path d="M100-162.5l-65.1 226.9" stroke="#c2e1ff61"/><path d="M100-162.5l-3.5 236.1" stroke="#c2e1ff62"/><path d="M100-162.5l127.9 198.5" stroke="#fff50062"/><path d="M100-162.5l233.1 37.6" stroke="#fff50062"/><path d="M100-162.5l-42.9 232.3" stroke="#fff50063"/><path d="M100-162.5l222.5 79.3" stroke="#fff50063"/><path d="M100-162.5l-215.6-96.5" stroke="#c2e1ff65"/><path d="M100-162.5l-236.1-7" stroke="#c2e1ff65"/><path d="M100-162.5l-233.8-32.1" stroke="#fff50066"/><path d="M100-162.5l-87.8-218.8" stroke="#c2e1ff67"/><path d="M100-162.5l22.9-234.6" stroke="#005bbb67"/><path d="M100-162.5l235-13.4" stroke="#fff50068"/><path d="M100-162.5l49.9-229.9" stroke="#c2e1ff68"/><path d="M100-162.5l109.7 207.9" stroke="#005bbb68"/><path d="M100-162.5l-162.1-169.4" stroke="#fff5006A"/><path d="M100-162.5l105.3 209.2" stroke="#fff5006A"/><path d="M100-162.5l226.4 57.9" stroke="#fff6B"/><path d="M100-162.5l218-82.3" stroke="#fff6C"/><path d="M100-162.5l216.7 80.8" stroke="#fff6E"/><path d="M100-162.5l-21.5-229.6" stroke="#005bbb6E"/><path d="M100-162.5l25.2 228.2" stroke="#c2e1ff6F"/><path d="M100-162.5l-152.1 171.9" stroke="#005bbb6F"/><path d="M100-162.5l226.9-17.8" stroke="#fff71"/><path d="M100-162.5l-93.5 207" stroke="#c2e1ff71"/><path d="M100-162.5l-181.7 133.3" stroke="#fff50073"/><path d="M100-162.5l218.1 54.4" stroke="#c2e1ff73"/><path d="M100-162.5l93.8 203.9" stroke="#005bbb73"/><path d="M100-162.5l-149.6-167.1" stroke="#fff50073"/><path d="M100-162.5l21-223" stroke="#c2e1ff73"/><path d="M100-162.5l102-198" stroke="#005bbb74"/><path d="M100-162.5l84.2-205.8" stroke="#005bbb74"/><path d="M100-162.5l-164.8-148" stroke="#c2e1ff75"/><path d="M100-162.5l131.6-177.9" stroke="#c2e1ff75"/><path d="M100-162.5l-47.9 214.6" stroke="#005bbb76"/><path d="M100-162.5l-132.5 175.5" stroke="#005bbb76"/><path d="M100-162.5l-119.1 183.5" stroke="#fff76"/><path d="M100-162.5l121.2 181.3" stroke="#005bbb77"/><path d="M100-162.5l-217.4-5.6" stroke="#005bbb77"/><path d="M100-162.5l201.2 82.2" stroke="#c2e1ff77"/><path d="M100-162.5l-159.5 144.4" stroke="#fff78"/><path d="M100-162.5l207.6 56" stroke="#fff50078"/><path d="M100-162.5l-207.6 56.1" stroke="#005bbb78"/><path d="M100-162.5l178.9-117.7" stroke="#c2e1ff79"/><path d="M100-162.5l1.3 213.4" stroke="#c2e1ff79"/><path d="M100-162.5l-187.9 98.2" stroke="#fff5007A"/><path d="M100-162.5l-62.2 201.9" stroke="#005bbb7A"/><path d="M100-162.5l-165 128" stroke="#c2e1ff7B"/><path d="M100-162.5l207.8-13.8" stroke="#fff7B"/><path d="M100-162.5l197.9 61.1" stroke="#c2e1ff7C"/><path d="M100-162.5l78.2-190.4" stroke="#005bbb7C"/><path d="M100-162.5l-205.1-1.1" stroke="#005bbb7C"/><path d="M100-162.5l139.8 147.9" stroke="#c2e1ff7D"/><path d="M100-162.5l33.3 200.8" stroke="#005bbb7D"/><path d="M100-162.5l200.4-33.1" stroke="#fff7D"/><path d="M100-162.5l-68.2 189.4" stroke="#c2e1ff7E"/><path d="M100-162.5l88.8-179.2" stroke="#005bbb7E"/><path d="M100-162.5l184.8 71.5" stroke="#c2e1ff7F"/><path d="M100-162.5l125.7-152.1" stroke="#005bbb7F"/><path d="M100-162.5l120.3 155.7" stroke="#fff7F"/><path d="M100-162.5l-155.7 118.7" stroke="#005bbb7F"/><path d="M100-162.5l151.2 122.3" stroke="#fff80"/><path d="M100-162.5l-188.4-27.9" stroke="#005bbb81"/><path d="M100-162.5l-190.2-0.5" stroke="#c2e1ff81"/><path d="M100-162.5l128.7-139.7" stroke="#fff50081"/><path d="M100-162.5l61.5 174.1" stroke="#c2e1ff83"/><path d="M100-162.5l-166.1-77.3" stroke="#c2e1ff83"/><path d="M100-162.5l147.7 107.5" stroke="#fff50083"/><path d="M100-162.5l-29.5-178.7" stroke="#fff50084"/><path d="M100-162.5l87.5-155.2" stroke="#fff84"/><path d="M100-162.5l168.2-57" stroke="#c2e1ff84"/><path d="M100-162.5l-109.3-131.9" stroke="#c2e1ff86"/><path d="M100-162.5l170-2.2" stroke="#c2e1ff86"/><path d="M100-162.5l-151.9 74.7" stroke="#c2e1ff86"/><path d="M100-162.5l42.4 159.1" stroke="#005bbb87"/><path d="M100-162.5l106.6 125" stroke="#005bbb87"/><path d="M100-162.5l-9.8 160.7" stroke="#005bbb88"/><path d="M100-162.5l-70.7-140.3" stroke="#c2e1ff89"/><path d="M100-162.5l-152.9 31.4" stroke="#fff89"/><path d="M100-162.5l-118.6 101.2" stroke="#005bbb89"/><path d="M100-162.5l-75.7 133.5" stroke="#005bbb8A"/><path d="M100-162.5l94.8 116.8" stroke="#005bbb8A"/><path d="M100-162.5l120.8-79.2" stroke="#005bbb8B"/><path d="M100-162.5l111.5 91" stroke="#fff5008B"/><path d="M100-162.5l38.3-138.2" stroke="#fff8B"/><path d="M100-162.5l106.4 94.9" stroke="#fff8B"/><path d="M100-162.5l-119.7 56.7" stroke="#005bbb8D"/><path d="M100-162.5l90.3-94.4" stroke="#c2e1ff8D"/><path d="M100-162.5l102.9 75.1" stroke="#fff5008E"/><path d="M100-162.5l60.3-111.2" stroke="#c2e1ff8E"/><path d="M100-162.5l-35.5-120.5" stroke="#005bbb8E"/><path d="M100-162.5l-87.4 86.2" stroke="#c2e1ff8E"/><path d="M100-162.5l-109.4 51.5" stroke="#c2e1ff8E"/><path d="M100-162.5l-13-118.8" stroke="#fff8F"/><path d="M100-162.5l107-28.1" stroke="#fff90"/><path d="M100-162.5l43.5 98.9" stroke="#fff50090"/><path d="M100-162.5l-77.2 69.6" stroke="#fff50090"/><path d="M100-162.5l-82.4-58.3" stroke="#fff50091"/><path d="M100-162.5l-84.6-52.5" stroke="#005bbb91"/><path d="M100-162.5l37.7 69.7" stroke="#005bbb93"/><path d="M100-162.5l26.8 72.3" stroke="#fff50093"/><path d="M100-162.5l36.3 59.5" stroke="#fff93"/><path d="M100-162.5l-37.4-47.7" stroke="#fff50094"/><path d="M100-162.5l52.6-15.8" stroke="#fff50094"/><path d="M100-162.5l36.1-24.8" stroke="#005bbb95"/><path d="M100-162.5l17.8-31.4" stroke="#fff95"/><path d="M100-162.5l0.3 26.3" stroke="#fff50095"/></g><g class="sparcs"><path d="M102.9-194.7a5.9 5.9 0 1 1 0-11.9 5.9 5.9 0 0 1 0 11.9" fill="#c2e1ff7D"/><path d="M64.9-133a6 6 0 1 1 0-11.9 6 6 0 0 1 0 11.9" fill="#005bbb7E"/><path d="M105.8-200.1a6 6 0 1 1 0-11.9 6 6 0 0 1 0 11.9" fill="#fff7E"/><path d="M87.6-215.2a6 6 0 1 1 0-12 6 6 0 0 1 0 12" fill="#fff7F"/><path d="M46.8-186.3a6 6 0 1 1 0-12 6 6 0 0 1 0 12" fill="#fff5007F"/><path d="M170.5-166.8a6 6 0 1 1 0-12.1 6 6 0 0 1 0 12.1" fill="#fff50080"/><path d="M16.8-174a6.1 6.1 0 1 1 0-12.2 6.1 6.1 0 0 1 0 12.2" fill="#005bbb81"/><path d="M35.1-97.2a6.1 6.1 0 1 1 0-12.2 6.1 6.1 0 0 1 0 12.2" fill="#fff50081"/><path d="M175.9-99.6a6.2 6.2 0 1 1 0-12.3 6.2 6.2 0 0 1 0 12.3" fill="#fff82"/><path d="M24.6-232.5a6.2 6.2 0 1 1 0-12.5 6.2 6.2 0 0 1 0 12.5" fill="#fff84"/><path d="M83.4-47.9a6.2 6.2 0 1 1 0-12.4 6.2 6.2 0 0 1 0 12.4" fill="#fff50084"/><path d="M94.2-275.1a6.3 6.3 0 1 1 0-12.6 6.3 6.3 0 0 1 0 12.6" fill="#fff85"/><path d="M201.3-226.9a6.3 6.3 0 1 1 0-12.7 6.3 6.3 0 0 1 0 12.7" fill="#005bbb86"/><path d="M74-34a6.4 6.4 0 1 1 0-12.7 6.4 6.4 0 0 1 0 12.7" fill="#c2e1ff86"/><path d="M208.4-244.1a6.5 6.5 0 1 1 0-13 6.5 6.5 0 0 1 0 13" fill="#c2e1ff89"/><path d="M35.2-282a6.5 6.5 0 1 1 0-13 6.5 6.5 0 0 1 0 13" fill="#fff89"/><path d="M151.3-291a6.5 6.5 0 1 1 0-13 6.5 6.5 0 0 1 0 13" fill="#005bbb8A"/><path d="M47.1-19.7a6.5 6.5 0 1 1 0-13.1 6.5 6.5 0 0 1 0 13.1" fill="#005bbb8A"/><path d="M97.2-2.5a6.6 6.6 0 1 1 0-13.2 6.6 6.6 0 0 1 0 13.2" fill="#fff5008C"/><path d="M250.1-119.3a6.6 6.6 0 1 1 0-13.3 6.6 6.6 0 0 1 0 13.3" fill="#005bbb8C"/><path d="M-2.6-276.5a6.7 6.7 0 1 1 0-13.4 6.7 6.7 0 0 1 0 13.4" fill="#fff5008D"/><path d="M-58.2-173.5a6.7 6.7 0 1 1 0-13.4 6.7 6.7 0 0 1 0 13.4" fill="#005bbb8D"/><path d="M-58-197.6a6.7 6.7 0 1 1 0-13.5 6.7 6.7 0 0 1 0 13.5" fill="#fff5008F"/><path d="M236-248.4a6.7 6.7 0 1 1 0-13.5 6.7 6.7 0 0 1 0 13.5" fill="#fff8F"/><path d="M-60.3-116.8a6.7 6.7 0 1 1 0-13.5 6.7 6.7 0 0 1 0 13.5" fill="#fff5008F"/><path d="M92.7 10.3a6.8 6.8 0 1 1 0-13.6 6.8 6.8 0 0 1 0 13.6" fill="#c2e1ff8F"/><path d="M197.1-292.6a6.8 6.8 0 1 1 0-13.6 6.8 6.8 0 0 1 0 13.6" fill="#005bbb90"/><path d="M214.7-32a6.8 6.8 0 1 1 0-13.6 6.8 6.8 0 0 1 0 13.6" fill="#005bbb90"/><path d="M-17.4-280.3a6.8 6.8 0 1 1 0-13.7 6.8 6.8 0 0 1 0 13.7" fill="#fff50091"/><path d="M271.3-179.4a6.8 6.8 0 1 1 0-13.7 6.8 6.8 0 0 1 0 13.7" fill="#005bbb91"/><path d="M-50.6-246.1a6.9 6.9 0 1 1 0-13.8 6.9 6.9 0 0 1 0 13.8" fill="#fff50092"/><path d="M268.9-106a6.9 6.9 0 1 1 0-13.8 6.9 6.9 0 0 1 0 13.8" fill="#c2e1ff92"/><path d="M-81.6-166.4a7 7 0 1 1 0-14 7 7 0 0 1 0 14" fill="#fff94"/><path d="M74.9 27.5a7 7 0 1 1 0-14 7 7 0 0 1 0 14" fill="#c2e1ff95"/><path d="M12.5-321.2a7.1 7.1 0 1 1 0-14.2 7.1 7.1 0 0 1 0 14.2" fill="#fff50096"/><path d="M276.9-221.7a7.1 7.1 0 1 1 0-14.2 7.1 7.1 0 0 1 0 14.2" fill="#fff96"/><path d="M181.9 31.9a7.4 7.4 0 1 1 0-14.8 7.4 7.4 0 0 1 0 14.8" fill="#c2e1ff9D"/><path d="M-28.5-315.5a7.4 7.4 0 1 1 0-14.8 7.4 7.4 0 0 1 0 14.8" fill="#005bbb9D"/><path d="M-86.2-244.8a7.4 7.4 0 1 1 0-14.9 7.4 7.4 0 0 1 0 14.9" fill="#fff5009E"/><path d="M307.4-155.1a7.4 7.4 0 1 1 0-14.8 7.4 7.4 0 0 1 0 14.8" fill="#c2e1ff9E"/><path d="M-96.5-222.5a7.5 7.5 0 1 1 0-14.9 7.5 7.5 0 0 1 0 14.9" fill="#c2e1ff9F"/><path d="M-103.1-108a7.5 7.5 0 1 1 0-15 7.5 7.5 0 0 1 0 15" fill="#c2e1ff9F"/><path d="M293.1-75.7a7.5 7.5 0 1 1 0-14.9 7.5 7.5 0 0 1 0 14.9" fill="#c2e1ff9F"/><path d="M-6.4 25.4a7.5 7.5 0 1 1 0-14.9 7.5 7.5 0 0 1 0 14.9" fill="#fff5009F"/><path d="M-12-332.1a7.5 7.5 0 1 1 0-15 7.5 7.5 0 0 1 0 15" fill="#fff9F"/><path d="M220.5-327.2a7.5 7.5 0 1 1 0-15 7.5 7.5 0 0 1 0 15" fill="#fffA0"/><path d="M-93.9-236.4a7.5 7.5 0 1 1 0-15 7.5 7.5 0 0 1 0 15" fill="#c2e1ffA0"/><path d="M101 56.9a7.6 7.6 0 1 1 0-15.1 7.6 7.6 0 0 1 0 15.1" fill="#fff500A1"/><path d="M77.1 58.3a7.6 7.6 0 1 1 0-15.2 7.6 7.6 0 0 1 0 15.2" fill="#005bbbA2"/><path d="M-105.4-86.4a7.7 7.7 0 1 1 0-15.3 7.7 7.7 0 0 1 0 15.3" fill="#c2e1ffA3"/><path d="M305.3-80.1a7.7 7.7 0 1 1 0-15.5 7.7 7.7 0 0 1 0 15.5" fill="#fff500A5"/><path d="M-118.5-125.6a7.8 7.8 0 1 1 0-15.6 7.8 7.8 0 0 1 0 15.6" fill="#005bbbA6"/><path d="M-96.5-255.7a7.8 7.8 0 1 1 0-15.6 7.8 7.8 0 0 1 0 15.6" fill="#fffA6"/><path d="M259-309.1a7.8 7.8 0 1 1 0-15.6 7.8 7.8 0 0 1 0 15.6" fill="#005bbbA7"/><path d="M256.9-311.3a7.8 7.8 0 1 1 0-15.7 7.8 7.8 0 0 1 0 15.7" fill="#c2e1ffA7"/><path d="M225.3 28.9a7.9 7.9 0 1 1 0-15.7 7.9 7.9 0 0 1 0 15.7" fill="#c2e1ffA7"/><path d="M133.6 70.5a8.1 8.1 0 1 1 0-16.1 8.1 8.1 0 0 1 0 16.1" fill="#005bbbAC"/><path d="M269.5-307.3a8.1 8.1 0 1 1 0-16.2 8.1 8.1 0 0 1 0 16.2" fill="#005bbbAD"/><path d="M-33.8-339.5a8.1 8.1 0 1 1 0-16.2 8.1 8.1 0 0 1 0 16.2" fill="#c2e1ffAD"/><path d="M202 51.6a8.2 8.2 0 1 1 0-16.3 8.2 8.2 0 0 1 0 16.3" fill="#fff500AE"/><path d="M331.9-137.1a8.3 8.3 0 1 1 0-16.6 8.3 8.3 0 0 1 0 16.6" fill="#fffB2"/><path d="M10 60.8a8.4 8.4 0 1 1 0-16.8 8.4 8.4 0 0 1 0 16.8" fill="#c2e1ffB3"/><path d="M269.5-314.8a8.4 8.4 0 1 1 0-16.9 8.4 8.4 0 0 1 0 16.9" fill="#005bbbB4"/><path d="M215.1 49.6a8.5 8.5 0 1 1 0-16.9 8.5 8.5 0 0 1 0 16.9" fill="#fff500B5"/><path d="M153.2 73.9a8.5 8.5 0 1 1 0-17 8.5 8.5 0 0 1 0 17" fill="#005bbbB5"/><path d="M-39.5 34a8.5 8.5 0 1 1 0-16.9 8.5 8.5 0 0 1 0 16.9" fill="#005bbbB5"/><path d="M255.8 21.6a8.5 8.5 0 1 1 0-17.1 8.5 8.5 0 0 1 0 17.1" fill="#fff500B6"/><path d="M-112.2-254.6a8.5 8.5 0 1 1 0-17.1 8.5 8.5 0 0 1 0 17.1" fill="#005bbbB7"/><path d="M131.1-387.2a8.6 8.6 0 1 1 0-17.2 8.6 8.6 0 0 1 0 17.2" fill="#c2e1ffB8"/><path d="M-120.9-235.1a8.6 8.6 0 1 1 0-17.2 8.6 8.6 0 0 1 0 17.2" fill="#fffB8"/><path d="M193.9-370a8.7 8.7 0 1 1 0-17.3 8.7 8.7 0 0 1 0 17.3" fill="#005bbbB9"/><path d="M-42.6-341.6a8.7 8.7 0 1 1 0-17.3 8.7 8.7 0 0 1 0 17.3" fill="#005bbbB9"/><path d="M245.5 31.6a8.7 8.7 0 1 1 0-17.3 8.7 8.7 0 0 1 0 17.3" fill="#c2e1ffB9"/><path d="M-77.3-309.4a8.7 8.7 0 1 1 0-17.4 8.7 8.7 0 0 1 0 17.4" fill="#005bbbBA"/><path d="M34-380.4a8.7 8.7 0 1 1 0-17.4 8.7 8.7 0 0 1 0 17.4" fill="#c2e1ffBB"/><path d="M34.9 73.1a8.7 8.7 0 1 1 0-17.5 8.7 8.7 0 0 1 0 17.5" fill="#fff500BB"/><path d="M96.5 82.3a8.7 8.7 0 1 1 0-17.5 8.7 8.7 0 0 1 0 17.5" fill="#c2e1ffBB"/><path d="M227.9 44.7a8.8 8.8 0 1 1 0-17.5 8.8 8.8 0 0 1 0 17.5" fill="#005bbbBB"/><path d="M333.1-116.2a8.8 8.8 0 1 1 0-17.5 8.8 8.8 0 0 1 0 17.5" fill="#c2e1ffBC"/><path d="M57.1 78.6a8.8 8.8 0 1 1 0-17.6 8.8 8.8 0 0 1 0 17.6" fill="#fffBD"/><path d="M322.5-74.3a8.9 8.9 0 1 1 0-17.7 8.9 8.9 0 0 1 0 17.7" fill="#c2e1ffBD"/><path d="M-115.6-250a8.9 8.9 0 1 1 0-17.9 8.9 8.9 0 0 1 0 17.9" fill="#fffBF"/><path d="M-136.1-160.6a8.9 8.9 0 1 1 0-17.9 8.9 8.9 0 0 1 0 17.9" fill="#c2e1ffBF"/><path d="M-133.8-185.6a9 9 0 1 1 0-18 9 9 0 0 1 0 18" fill="#fffC1"/><path d="M12.2-372.2a9.1 9.1 0 1 1 0-18.1 9.1 9.1 0 0 1 0 18.1" fill="#fff500C2"/><path d="M122.9-388a9.1 9.1 0 1 1 0-18.1 9.1 9.1 0 0 1 0 18.1" fill="#fff500C2"/><path d="M335-166.7a9.1 9.1 0 1 1 0-18.3 9.1 9.1 0 0 1 0 18.3" fill="#fff500C3"/><path d="M149.9-383.3a9.1 9.1 0 1 1 0-18.3 9.1 9.1 0 0 1 0 18.3" fill="#fffC3"/><path d="M209.7 54.6a9.2 9.2 0 1 1 0-18.3 9.2 9.2 0 0 1 0 18.3" fill="#fffC4"/><path d="M-62.1-322.6a9.2 9.2 0 1 1 0-18.5 9.2 9.2 0 0 1 0 18.5" fill="#fff500C6"/><path d="M205.3 56a9.2 9.2 0 1 1 0-18.5 9.2 9.2 0 0 1 0 18.5" fill="#c2e1ffC6"/><path d="M326.4-95.3a9.3 9.3 0 1 1 0-18.6 9.3 9.3 0 0 1 0 18.6" fill="#fffC7"/><path d="M318-235.4a9.3 9.3 0 1 1 0-18.7 9.3 9.3 0 0 1 0 18.7" fill="#fffC8"/><path d="M316.7-72.2a9.5 9.5 0 1 1 0-18.9 9.5 9.5 0 0 1 0 18.9" fill="#fffCB"/><path d="M78.5-382.6a9.5 9.5 0 1 1 0-19 9.5 9.5 0 0 1 0 19" fill="#005bbbCC"/><path d="M125.2 75.3a9.6 9.6 0 1 1 0-19.2 9.6 9.6 0 0 1 0 19.2" fill="#c2e1ffCD"/><path d="M-52.1 19a9.6 9.6 0 1 1 0-19.1 9.6 9.6 0 0 1 0 19.1" fill="#fff500CD"/><path d="M326.9-170.6a9.7 9.7 0 1 1 0-19.3 9.7 9.7 0 0 1 0 19.3" fill="#fff500CF"/><path d="M6.5 54.2a9.7 9.7 0 1 1 0-19.3 9.7 9.7 0 0 1 0 19.3" fill="#fff500CF"/><path d="M-81.7-19.4a9.7 9.7 0 1 1 0-19.5 9.7 9.7 0 0 1 0 19.5" fill="#c2e1ffD1"/><path d="M318.1-98.3a9.8 9.8 0 1 1 0-19.5 9.8 9.8 0 0 1 0 19.5" fill="#c2e1ffD1"/><path d="M193.8 51.2a9.8 9.8 0 1 1 0-19.6 9.8 9.8 0 0 1 0 19.6" fill="#c2e1ffD2"/><path d="M-49.6-319.8a9.8 9.8 0 1 1 0-19.6 9.8 9.8 0 0 1 0 19.6" fill="#fff500D2"/><path d="M121-375.7a9.8 9.8 0 1 1 0-19.6 9.8 9.8 0 0 1 0 19.6" fill="#005bbbD2"/><path d="M202-350.6a9.8 9.8 0 1 1 0-19.7 9.8 9.8 0 0 1 0 19.7" fill="#c2e1ffD3"/><path d="M184.2-358.5a9.9 9.9 0 1 1 0-19.7 9.9 9.9 0 0 1 0 19.7" fill="#c2e1ffD3"/><path d="M-64.8-300.6a9.9 9.9 0 1 1 0-19.7 9.9 9.9 0 0 1 0 19.7" fill="#005bbbD4"/><path d="M231.6-330.5a9.9 9.9 0 1 1 0-19.8 9.9 9.9 0 0 1 0 19.8" fill="#c2e1ffD4"/><path d="M52.1 62a9.9 9.9 0 1 1 0-19.8 9.9 9.9 0 0 1 0 19.8" fill="#c2e1ffD5"/><path d="M-32.5 22.9a9.9 9.9 0 1 1 0-19.8 9.9 9.9 0 0 1 0 19.8" fill="#c2e1ffD5"/><path d="M-19.1 31a10 10 0 1 1 0-19.9 10 10 0 0 1 0 19.9" fill="#fffD6"/><path d="M221.2 28.8a10 10 0 1 1 0-20 10 10 0 0 1 0 20" fill="#005bbbD7"/><path d="M-117.4-158a10 10 0 1 1 0-20.1 10 10 0 0 1 0 20.1" fill="#c2e1ffD7"/><path d="M301.2-70.3a10 10 0 1 1 0-20.1 10 10 0 0 1 0 20.1" fill="#c2e1ffD7"/><path d="M-59.5-8a10.1 10.1 0 1 1 0-20.1 10.1 10.1 0 0 1 0 20.1" fill="#fffD8"/><path d="M307.6-96.5a10.1 10.1 0 1 1 0-20.1 10.1 10.1 0 0 1 0 20.1" fill="#fff500D8"/><path d="M-107.6-96.4a10.1 10.1 0 1 1 0-20.1 10.1 10.1 0 0 1 0 20.1" fill="#c2e1ffD8"/><path d="M278.9-270.1a10.1 10.1 0 1 1 0-20.2 10.1 10.1 0 0 1 0 20.2" fill="#fffD9"/><path d="M101.3 61a10.1 10.1 0 1 1 0-20.2 10.1 10.1 0 0 1 0 20.2" fill="#fffD9"/><path d="M-87.9-54.1a10.2 10.2 0 1 1 0-20.3 10.2 10.2 0 0 1 0 20.3" fill="#005bbbDA"/><path d="M37.8 49.6a10.2 10.2 0 1 1 0-20.4 10.2 10.2 0 0 1 0 20.4" fill="#c2e1ffDB"/><path d="M-65-24.2a10.2 10.2 0 1 1 0-20.5 10.2 10.2 0 0 1 0 20.5" fill="#005bbbDC"/><path d="M307.8-166.1a10.3 10.3 0 1 1 0-20.5 10.3 10.3 0 0 1 0 20.5" fill="#fff500DC"/><path d="M297.9-91.1a10.3 10.3 0 1 1 0-20.5 10.3 10.3 0 0 1 0 20.5" fill="#c2e1ffDD"/><path d="M178.2-342.6a10.3 10.3 0 1 1 0-20.6 10.3 10.3 0 0 1 0 20.6" fill="#c2e1ffDD"/><path d="M-105.1-153.3a10.3 10.3 0 1 1 0-20.6 10.3 10.3 0 0 1 0 20.6" fill="#c2e1ffDE"/><path d="M239.8-4.2a10.4 10.4 0 1 1 0-20.7 10.4 10.4 0 0 1 0 20.7" fill="#fffDE"/><path d="M133.3 48.6a10.4 10.4 0 1 1 0-20.7 10.4 10.4 0 0 1 0 20.7" fill="#c2e1ffDF"/><path d="M300.4-185.2a10.4 10.4 0 1 1 0-20.8 10.4 10.4 0 0 1 0 20.8" fill="#c2e1ffDF"/><path d="M31.8 37.3a10.4 10.4 0 1 1 0-20.8 10.4 10.4 0 0 1 0 20.8" fill="#c2e1ffE0"/><path d="M188.8-331.2a10.4 10.4 0 1 1 0-20.9 10.4 10.4 0 0 1 0 20.9" fill="#fffE0"/><path d="M284.8-80.5a10.5 10.5 0 1 1 0-20.9 10.5 10.5 0 0 1 0 20.9" fill="#fff500E1"/><path d="M225.7-304.1a10.5 10.5 0 1 1 0-21 10.5 10.5 0 0 1 0 21" fill="#fffE1"/><path d="M220.3 3.7a10.5 10.5 0 1 1 0-21 10.5 10.5 0 0 1 0 21" fill="#fffE1"/><path d="M-55.7-33.3a10.5 10.5 0 1 1 0-21 10.5 10.5 0 0 1 0 21" fill="#fffE2"/><path d="M251.2-29.6a10.5 10.5 0 1 1 0-21.1 10.5 10.5 0 0 1 0 21.1" fill="#005bbbE2"/><path d="M-88.4-179.8a10.6 10.6 0 1 1 0-21.2 10.6 10.6 0 0 1 0 21.2" fill="#fffE4"/><path d="M-90.2-152.4a10.6 10.6 0 1 1 0-21.2 10.6 10.6 0 0 1 0 21.2" fill="#005bbbE4"/><path d="M228.7-291.6a10.6 10.6 0 1 1 0-21.2 10.6 10.6 0 0 1 0 21.2" fill="#c2e1ffE4"/><path d="M161.5 22.3a10.7 10.7 0 1 1 0-21.4 10.7 10.7 0 0 1 0 21.4" fill="#c2e1ffE6"/><path d="M-66.1-229.1a10.7 10.7 0 1 1 0-21.5 10.7 10.7 0 0 1 0 21.5" fill="#c2e1ffE7"/><path d="M247.7-44.3a10.7 10.7 0 1 1 0-21.5 10.7 10.7 0 0 1 0 21.5" fill="#fff500E7"/><path d="M70.5-330.5a10.8 10.8 0 1 1 0-21.5 10.8 10.8 0 0 1 0 21.5" fill="#c2e1ffE7"/><path d="M187.5-306.9a10.8 10.8 0 1 1 0-21.6 10.8 10.8 0 0 1 0 21.6" fill="#005bbbE8"/><path d="M268.2-208.7a10.8 10.8 0 1 1 0-21.6 10.8 10.8 0 0 1 0 21.6" fill="#fff500E8"/><path d="M-9.3-283.5a10.9 10.9 0 1 1 0-21.8 10.9 10.9 0 0 1 0 21.8" fill="#c2e1ffEA"/><path d="M270-153.8a10.9 10.9 0 1 1 0-21.8 10.9 10.9 0 0 1 0 21.8" fill="#fff500EB"/><path d="M-51.9-76.8a10.9 10.9 0 1 1 0-21.9 10.9 10.9 0 0 1 0 21.9" fill="#fffEB"/><path d="M142.4 7.6a11 11 0 1 1 0-22 11 11 0 0 1 0 22" fill="#005bbbEC"/><path d="M206.6-26.6a11 11 0 1 1 0-21.9 11 11 0 0 1 0 21.9" fill="#005bbbEC"/><path d="M90.2 9.2a11 11 0 1 1 0-22 11 11 0 0 1 0 22" fill="#fffED"/><path d="M29.3-291.7a11.1 11.1 0 1 1 0-22.1 11.1 11.1 0 0 1 0 22.1" fill="#fffEE"/><path d="M-52.9-120a11.1 11.1 0 1 1 0-22.1 11.1 11.1 0 0 1 0 22.1" fill="#fff500EE"/><path d="M-18.6-50.2a11.1 11.1 0 1 1 0-22.1 11.1 11.1 0 0 1 0 22.1" fill="#c2e1ffEE"/><path d="M24.3-17.9a11.1 11.1 0 1 1 0-22.3 11.1 11.1 0 0 1 0 22.3" fill="#005bbbEF"/><path d="M194.8-34.6a11.1 11.1 0 1 1 0-22.3 11.1 11.1 0 0 1 0 22.3" fill="#c2e1ffF0"/><path d="M220.8-230.5a11.2 11.2 0 1 1 0-22.4 11.2 11.2 0 0 1 0 22.4" fill="#005bbbF1"/><path d="M211.5-60.2a11.2 11.2 0 1 1 0-22.5 11.2 11.2 0 0 1 0 22.5" fill="#fffF1"/><path d="M138.3-289.5a11.2 11.2 0 1 1 0-22.4 11.2 11.2 0 0 1 0 22.4" fill="#fff500F1"/><path d="M206.4-56.4a11.2 11.2 0 1 1 0-22.4 11.2 11.2 0 0 1 0 22.4" fill="#005bbbF1"/><path d="M-19.7-94.5a11.3 11.3 0 1 1 0-22.6 11.3 11.3 0 0 1 0 22.6" fill="#005bbbF3"/><path d="M190.3-245.6a11.3 11.3 0 1 1 0-22.6 11.3 11.3 0 0 1 0 22.6" fill="#fff500F4"/><path d="M202.9-76a11.3 11.3 0 1 1 0-22.7 11.3 11.3 0 0 1 0 22.7" fill="#fff500F4"/><path d="M160.3-262.4a11.4 11.4 0 1 1 0-22.7 11.4 11.4 0 0 1 0 22.7" fill="#fffF4"/><path d="M64.5-271.6a11.4 11.4 0 1 1 0-22.7 11.4 11.4 0 0 1 0 22.7" fill="#fff500F5"/><path d="M12.6-65a11.4 11.4 0 1 1 0-22.7 11.4 11.4 0 0 1 0 22.7" fill="#fff500F5"/><path d="M-9.4-99.6a11.4 11.4 0 1 1 0-22.8 11.4 11.4 0 0 1 0 22.8" fill="#c2e1ffF5"/><path d="M87-269.9a11.4 11.4 0 1 1 0-22.8 11.4 11.4 0 0 1 0 22.8" fill="#fff500F6"/><path d="M207-179.1a11.5 11.5 0 1 1 0-23 11.5 11.5 0 0 1 0 23" fill="#c2e1ffF7"/><path d="M143.5-52.1a11.5 11.5 0 1 1 0-23 11.5 11.5 0 0 1 0 23" fill="#005bbbF7"/><path d="M22.8-81.4a11.5 11.5 0 1 1 0-23 11.5 11.5 0 0 1 0 23" fill="#c2e1ffF8"/><path d="M17.6-209.3a11.5 11.5 0 1 1 0-23.1 11.5 11.5 0 0 1 0 23.1" fill="#c2e1ffF8"/><path d="M15.4-203.5a11.5 11.5 0 1 1 0-23.1 11.5 11.5 0 0 1 0 23.1" fill="#fffF8"/><path d="M137.7-81.2a11.6 11.6 0 1 1 0-23.3 11.6 11.6 0 0 1 0 23.3" fill="#fffFB"/><path d="M126.8-78.5a11.7 11.7 0 1 1 0-23.3 11.7 11.7 0 0 1 0 23.3" fill="#fff500FB"/><path d="M136.3-91.3a11.7 11.7 0 1 1 0-23.3 11.7 11.7 0 0 1 0 23.3" fill="#005bbbFC"/><path d="M62.6-198.5a11.7 11.7 0 1 1 0-23.4 11.7 11.7 0 0 1 0 23.4" fill="#fff500FC"/><path d="M152.6-166.6a11.7 11.7 0 1 1 0-23.5 11.7 11.7 0 0 1 0 23.5" fill="#fffFD"/><path d="M136.1-175.6a11.8 11.8 0 1 1 0-23.5 11.8 11.8 0 0 1 0 23.5" fill="#fffFD"/><path d="M117.8-182.1a11.8 11.8 0 1 1 0-23.6 11.8 11.8 0 0 1 0 23.6" fill="#c2e1ffFE"/><path d="M100.3-124.4a11.8 11.8 0 1 1 0-23.6 11.8 11.8 0 0 1 0 23.6" fill="#c2e1ffFE"/></g></svg>