<svg width="1200" height="675" viewBox="-500 -500 1200 675" xmlns="http://www.w3.org/2000/svg"><path d="M-500-500h1200v675h-1200z" fill="#000"/><style>.sparkles path{stroke-linecap:round; stroke-width:1}</style><g class="sparkles"><path d="M100-162.5l27.5 50" stroke="#fff50033"/><path d="M100-162.5l65.1 13.6" stroke="#fff34"/><path d="M100-162.5l66.8 10.7" stroke="#fff34"/><path d="M100-162.5l18.6-82.8" stroke="#c2e1ff35"/><path d="M100-162.5l-29.2 91.9" stroke="#fff50036"/><path d="M100-162.5l44.9-96.2" stroke="#fff50037"/><path d="M100-162.5l75 77.1" stroke="#fff37"/><path d="M100-162.5l46.8 96.8" stroke="#fff50037"/><path d="M100-162.5l-10.6-108.9" stroke="#c2e1ff37"/><path d="M100-162.5l-90.5 65.1" stroke="#fff50037"/><path d="M100-162.5l106.9 41.2" stroke="#005bbb38"/><path d="M100-162.5l-44.3-115.7" stroke="#fff50039"/><path d="M100-162.5l-92.8-84.4" stroke="#fff50039"/><path d="M100-162.5l-51.5-119.3" stroke="#fff5003A"/><path d="M100-162.5l-85.3 99.8" stroke="#c2e1ff3A"/><path d="M100-162.5l-104.8 86" stroke="#005bbb3B"/><path d="M100-162.5l-134.7-23" stroke="#fff5003B"/><path d="M100-162.5l-67.4-124.7" stroke="#fff5003B"/><path d="M100-162.5l110.9 98.2" stroke="#005bbb3D"/><path d="M100-162.5l91.9 116.4" stroke="#fff3D"/><path d="M100-162.5l22.3 148.3" stroke="#fff5003D"/><path d="M100-162.5l-104.9 108.7" stroke="#c2e1ff3D"/><path d="M100-162.5l-1.2 151.1" stroke="#fff3D"/><path d="M100-162.5l117.5-98.7" stroke="#fff5003D"/><path d="M100-162.5l-114.9-113.7" stroke="#fff3F"/><path d="M100-162.5l-131.5 95.6" stroke="#fff5003F"/><path d="M100-162.5l-97.9-134.6" stroke="#fff50040"/><path d="M100-162.5l-167.5-18.3" stroke="#c2e1ff40"/><path d="M100-162.5l125.5-124.8" stroke="#fff50042"/><path d="M100-162.5l162.2-71.9" stroke="#c2e1ff42"/><path d="M100-162.5l-171.4-49.4" stroke="#fff50043"/><path d="M100-162.5l110.1-143.7" stroke="#fff43"/><path d="M100-162.5l-57.3 173.7" stroke="#005bbb44"/><path d="M100-162.5l173.6-59.7" stroke="#005bbb44"/><path d="M100-162.5l-105.8-151.6" stroke="#c2e1ff44"/><path d="M100-162.5l-168.5 76.3" stroke="#fff50044"/><path d="M100-162.5l14.7-184.5" stroke="#fff50044"/><path d="M100-162.5l-137.3-126.4" stroke="#fff50045"/><path d="M100-162.5l-181.2-46.9" stroke="#fff50045"/><path d="M100-162.5l-177.6 59.9" stroke="#005bbb45"/><path d="M100-162.5l75.1 176.1" stroke="#005bbb46"/><path d="M100-162.5l107.3 160.8" stroke="#fff47"/><path d="M100-162.5l138.5 138.6" stroke="#c2e1ff48"/><path d="M100-162.5l-6-196" stroke="#fff50048"/><path d="M100-162.5l-20.6 196" stroke="#c2e1ff48"/><path d="M100-162.5l-81.9 180.3" stroke="#fff50048"/><path d="M100-162.5l-142.5-138.4" stroke="#005bbb48"/><path d="M100-162.5l140.4-140.8" stroke="#fff48"/><path d="M100-162.5l-115.4 163" stroke="#fff50049"/><path d="M100-162.5l-199.8-22.9" stroke="#c2e1ff49"/><path d="M100-162.5l69.9 190" stroke="#c2e1ff4A"/><path d="M100-162.5l198 43.2" stroke="#005bbb4A"/><path d="M100-162.5l104.2-174" stroke="#c2e1ff4A"/><path d="M100-162.5l200.3-52.4" stroke="#fff5004B"/><path d="M100-162.5l-175.7 109.7" stroke="#005bbb4B"/><path d="M100-162.5l-191 89.2" stroke="#fff5004D"/><path d="M100-162.5l69.3-199.8" stroke="#fff5004D"/><path d="M100-162.5l-174.9-119.5" stroke="#fff4D"/><path d="M100-162.5l173.4 122.3" stroke="#fff5004E"/><path d="M100-162.5l208.6 40.3" stroke="#c2e1ff4E"/><path d="M100-162.5l-97-191.2" stroke="#005bbb4F"/><path d="M100-162.5l139 163.4" stroke="#fff5004F"/><path d="M100-162.5l215.8-3.3" stroke="#c2e1ff4F"/><path d="M100-162.5l214-29" stroke="#fff5004F"/><path d="M100-162.5l-70.6 205.2" stroke="#fff50"/><path d="M100-162.5l-46.3 214.1" stroke="#fff51"/><path d="M100-162.5l211.7-57.4" stroke="#fff51"/><path d="M100-162.5l36.7-221.3" stroke="#c2e1ff54"/><path d="M100-162.5l-198.2-107.2" stroke="#c2e1ff54"/><path d="M100-162.5l217.1-61.8" stroke="#fff50055"/><path d="M100-162.5l217.1-62.6" stroke="#005bbb55"/><path d="M100-162.5l-165 155.2" stroke="#fff55"/><path d="M100-162.5l209.6-87.3" stroke="#c2e1ff56"/><path d="M100-162.5l-218.4-64.7" stroke="#fff50056"/><path d="M100-162.5l-183.3-135.4" stroke="#005bbb56"/><path d="M100-162.5l-157.3 166.4" stroke="#c2e1ff57"/><path d="M100-162.5l72.2-218" stroke="#005bbb58"/><path d="M100-162.5l-227 38.3" stroke="#fff58"/><path d="M100-162.5l161.5-164.4" stroke="#c2e1ff58"/><path d="M100-162.5l34.7 228.5" stroke="#fff59"/><path d="M100-162.5l216.6-81.1" stroke="#fff59"/><path d="M100-162.5l117-200.2" stroke="#fff5005A"/><path d="M100-162.5l13.1 231.7" stroke="#005bbb5A"/><path d="M100-162.5l-134-190.1" stroke="#fff5005B"/><path d="M100-162.5l69.6-222.3" stroke="#005bbb5B"/><path d="M100-162.5l168.9 160.4" stroke="#fff5B"/><path d="M100-162.5l-188.8-136.8" stroke="#c2e1ff5B"/><path d="M100-162.5l-100.8 210.6" stroke="#fff5C"/><path d="M100-162.5l-141.5-186" stroke="#fff5C"/><path d="M100-162.5l222.1 76.8" stroke="#fff5005E"/><path d="M100-162.5l119-202.9" stroke="#fff5005F"/><path d="M100-162.5l139.4 190" stroke="#005bbb60"/><path d="M100-162.5l-230.5-51.3" stroke="#fff50062"/><path d="M100-162.5l-36-233.4" stroke="#fff50063"/><path d="M100-162.5l-199.6 126.2" stroke="#005bbb65"/><path d="M100-162.5l-214.1 99.6" stroke="#fff65"/><path d="M100-162.5l-225.6 69.6" stroke="#fff50065"/><path d="M100-162.5l-235.5-16" stroke="#fff66"/><path d="M100-162.5l-234.6 25.3" stroke="#005bbb66"/><path d="M100-162.5l22.9-234.2" stroke="#fff68"/><path d="M100-162.5l229.9 49.4" stroke="#c2e1ff68"/><path d="M100-162.5l151.3 179.9" stroke="#005bbb69"/><path d="M100-162.5l78.3-221.4" stroke="#005bbb69"/><path d="M100-162.5l-130.7 194.5" stroke="#fff5006A"/><path d="M100-162.5l-221.6 74.9" stroke="#c2e1ff6A"/><path d="M100-162.5l-53.5 227.7" stroke="#fff5006A"/><path d="M100-162.5l-154.7 175.4" stroke="#fff6B"/><path d="M100-162.5l-150.4-178.1" stroke="#fff5006C"/><path d="M100-162.5l86-216.4" stroke="#005bbb6C"/><path d="M100-162.5l56.6-224.6" stroke="#fff5006D"/><path d="M100-162.5l229 31.8" stroke="#005bbb6E"/><path d="M100-162.5l-226 45.5" stroke="#c2e1ff6E"/><path d="M100-162.5l-218.4-72.3" stroke="#005bbb6F"/><path d="M100-162.5l25.5 228.7" stroke="#fff6F"/><path d="M100-162.5l170.8 152.6" stroke="#005bbb70"/><path d="M100-162.5l60.2 220.7" stroke="#fff50070"/><path d="M100-162.5l-225.4-34" stroke="#fff71"/><path d="M100-162.5l-81.9-212.5" stroke="#005bbb71"/><path d="M100-162.5l-181.2 136.4" stroke="#fff50072"/><path d="M100-162.5l-212.3-77.6" stroke="#fff50072"/><path d="M100-162.5l162.3 155.9" stroke="#c2e1ff73"/><path d="M100-162.5l3.1-224.1" stroke="#fff50073"/><path d="M100-162.5l-221.6 12.3" stroke="#fff75"/><path d="M100-162.5l24.1-220.5" stroke="#fff50075"/><path d="M100-162.5l15.1-221.1" stroke="#c2e1ff75"/><path d="M100-162.5l-181.2 124.8" stroke="#fff76"/><path d="M100-162.5l202.2-86.2" stroke="#c2e1ff76"/><path d="M100-162.5l146.4-161.9" stroke="#005bbb77"/><path d="M100-162.5l-3.8-217.7" stroke="#fff50077"/><path d="M100-162.5l-137.1 165.8" stroke="#fff50078"/><path d="M100-162.5l-176.2-119.8" stroke="#c2e1ff79"/><path d="M100-162.5l-40.8-208.1" stroke="#fff5007A"/><path d="M100-162.5l208.1-36.7" stroke="#005bbb7A"/><path d="M100-162.5l143 153.9" stroke="#fff7A"/><path d="M100-162.5l169.9-119.1" stroke="#fff5007B"/><path d="M100-162.5l201.1 0" stroke="#c2e1ff7E"/><path d="M100-162.5l-196.6-38.2" stroke="#005bbb7E"/><path d="M100-162.5l196-33.7" stroke="#c2e1ff7E"/><path d="M100-162.5l122.9 152.2" stroke="#c2e1ff80"/><path d="M100-162.5l-49.9 189" stroke="#005bbb80"/><path d="M100-162.5l12.8-193.3" stroke="#fff50080"/><path d="M100-162.5l-79.1 176.7" stroke="#fff50080"/><path d="M100-162.5l73.3-178.7" stroke="#fff80"/><path d="M100-162.5l-68.7 179.4" stroke="#c2e1ff81"/><path d="M100-162.5l-191.6 12.2" stroke="#fff50081"/><path d="M100-162.5l-63.2-179.5" stroke="#fff81"/><path d="M100-162.5l129.4 139.5" stroke="#fff50081"/><path d="M100-162.5l-108.1 153.8" stroke="#fff50082"/><path d="M100-162.5l152.3-108" stroke="#005bbb82"/><path d="M100-162.5l97.3 158.6" stroke="#fff50082"/><path d="M100-162.5l-84 163.3" stroke="#fff83"/><path d="M100-162.5l106.5-147.5" stroke="#005bbb83"/><path d="M100-162.5l105.9-142.8" stroke="#fff50084"/><path d="M100-162.5l-29.8 172.3" stroke="#005bbb85"/><path d="M100-162.5l-162.7 51.8" stroke="#005bbb86"/><path d="M100-162.5l116.3-122.3" stroke="#fff86"/><path d="M100-162.5l-18-167.1" stroke="#fff87"/><path d="M100-162.5l78.7-147.5" stroke="#fff50087"/><path d="M100-162.5l-99.2-130.3" stroke="#c2e1ff88"/><path d="M100-162.5l-124.3 100.3" stroke="#fff50088"/><path d="M100-162.5l-60.1-139.8" stroke="#c2e1ff8A"/><path d="M100-162.5l-98.5 110.5" stroke="#fff8A"/><path d="M100-162.5l93.2-114.7" stroke="#fff8B"/><path d="M100-162.5l-67.7 130.5" stroke="#fff8B"/><path d="M100-162.5l-78.8-117.7" stroke="#005bbb8C"/><path d="M100-162.5l-139.2-16.4" stroke="#fff8C"/><path d="M100-162.5l-70.7-110.1" stroke="#c2e1ff8D"/><path d="M100-162.5l-95.6 77.1" stroke="#fff5008E"/><path d="M100-162.5l-41.7-112.8" stroke="#c2e1ff8F"/><path d="M100-162.5l-105.5-56" stroke="#fff5008F"/><path d="M100-162.5l-40 109.3" stroke="#005bbb8F"/><path d="M100-162.5l99.9 40.9" stroke="#fff90"/><path d="M100-162.5l55.8-92.1" stroke="#fff50090"/><path d="M100-162.5l73.7 77.6" stroke="#fff90"/><path d="M100-162.5l-96.5-16" stroke="#fff50091"/><path d="M100-162.5l74.2-53.2" stroke="#005bbb92"/><path d="M100-162.5l14.7-88.4" stroke="#005bbb92"/><path d="M100-162.5l58.4 59.5" stroke="#005bbb92"/><path d="M100-162.5l-44.5-29.7" stroke="#c2e1ff94"/><path d="M100-162.5l28.6 35.6" stroke="#005bbb95"/><path d="M100-162.5l14.3 7.3" stroke="#c2e1ff95"/></g><g class="sparcs"><path d="M127.5-106.6a6 6 0 1 1 0-11.9 6 6 0 0 1 0 11.9" fill="#fff5007E"/><path d="M165.1-142.8a6 6 0 1 1 0-12.1 6 6 0 0 1 0 12.1" fill="#fff5007F"/><path d="M166.8-145.7a6 6 0 1 1 0-12.1 6 6 0 0 1 0 12.1" fill="#fff5007F"/><path d="M118.6-239.2a6.1 6.1 0 1 1 0-12.2 6.1 6.1 0 0 1 0 12.2" fill="#005bbb81"/><path d="M70.8-64.4a6.2 6.2 0 1 1 0-12.3 6.2 6.2 0 0 1 0 12.3" fill="#fff50082"/><path d="M144.9-252.5a6.2 6.2 0 1 1 0-12.5 6.2 6.2 0 0 1 0 12.5" fill="#c2e1ff83"/><path d="M175-79.2a6.2 6.2 0 1 1 0-12.5 6.2 6.2 0 0 1 0 12.5" fill="#c2e1ff84"/><path d="M146.8-59.5a6.2 6.2 0 1 1 0-12.4 6.2 6.2 0 0 1 0 12.4" fill="#c2e1ff84"/><path d="M89.4-265.2a6.2 6.2 0 1 1 0-12.4 6.2 6.2 0 0 1 0 12.4" fill="#c2e1ff84"/><path d="M9.5-91.2a6.3 6.3 0 1 1 0-12.5 6.3 6.3 0 0 1 0 12.5" fill="#c2e1ff84"/><path d="M206.9-115a6.3 6.3 0 1 1 0-12.6 6.3 6.3 0 0 1 0 12.6" fill="#fff85"/><path d="M55.7-271.9a6.3 6.3 0 1 1 0-12.7 6.3 6.3 0 0 1 0 12.7" fill="#c2e1ff86"/><path d="M7.2-240.5a6.4 6.4 0 1 1 0-12.7 6.4 6.4 0 0 1 0 12.7" fill="#005bbb86"/><path d="M48.5-275.4a6.4 6.4 0 1 1 0-12.8 6.4 6.4 0 0 1 0 12.8" fill="#fff50087"/><path d="M14.7-56.3a6.4 6.4 0 1 1 0-12.8 6.4 6.4 0 0 1 0 12.8" fill="#fff87"/><path d="M-4.8-70a6.4 6.4 0 1 1 0-12.9 6.4 6.4 0 0 1 0 12.9" fill="#fff50088"/><path d="M-34.7-179a6.5 6.5 0 1 1 0-12.9 6.5 6.5 0 0 1 0 12.9" fill="#fff50088"/><path d="M32.6-280.7a6.5 6.5 0 1 1 0-13 6.5 6.5 0 0 1 0 13" fill="#fff50089"/><path d="M210.9-57.7a6.6 6.6 0 1 1 0-13.1 6.6 6.6 0 0 1 0 13.1" fill="#fff8B"/><path d="M191.9-39.5a6.6 6.6 0 1 1 0-13.1 6.6 6.6 0 0 1 0 13.1" fill="#fff8B"/><path d="M122.3-7.7a6.6 6.6 0 1 1 0-13.1 6.6 6.6 0 0 1 0 13.1" fill="#c2e1ff8B"/><path d="M-4.9-47.2a6.6 6.6 0 1 1 0-13.2 6.6 6.6 0 0 1 0 13.2" fill="#fff5008C"/><path d="M98.8-4.8a6.6 6.6 0 1 1 0-13.2 6.6 6.6 0 0 1 0 13.2" fill="#fff5008C"/><path d="M217.5-254.5a6.6 6.6 0 1 1 0-13.3 6.6 6.6 0 0 1 0 13.3" fill="#fff8C"/><path d="M-14.9-269.5a6.7 6.7 0 1 1 0-13.4 6.7 6.7 0 0 1 0 13.4" fill="#fff5008E"/><path d="M-31.5-60.2a6.7 6.7 0 1 1 0-13.4 6.7 6.7 0 0 1 0 13.4" fill="#c2e1ff8E"/><path d="M2.1-290.3a6.8 6.8 0 1 1 0-13.5 6.8 6.8 0 0 1 0 13.5" fill="#fff5008F"/><path d="M-67.5-174.1a6.8 6.8 0 1 1 0-13.5 6.8 6.8 0 0 1 0 13.5" fill="#fff90"/><path d="M225.5-280.4a6.9 6.9 0 1 1 0-13.8 6.9 6.9 0 0 1 0 13.8" fill="#fff92"/><path d="M262.2-227.5a6.9 6.9 0 1 1 0-13.8 6.9 6.9 0 0 1 0 13.8" fill="#fff93"/><path d="M-71.4-205a6.9 6.9 0 1 1 0-13.8 6.9 6.9 0 0 1 0 13.8" fill="#c2e1ff93"/><path d="M210.1-299.2a7 7 0 1 1 0-14 7 7 0 0 1 0 14" fill="#005bbb94"/><path d="M42.7 18.2a7 7 0 1 1 0-14 7 7 0 0 1 0 14" fill="#c2e1ff94"/><path d="M273.6-215.2a7 7 0 1 1 0-14 7 7 0 0 1 0 14" fill="#005bbb95"/><path d="M-5.8-307.1a7 7 0 1 1 0-14 7 7 0 0 1 0 14" fill="#005bbb95"/><path d="M-68.5-79.2a7 7 0 1 1 0-14 7 7 0 0 1 0 14" fill="#005bbb95"/><path d="M114.7-340a7 7 0 1 1 0-14 7 7 0 0 1 0 14" fill="#005bbb95"/><path d="M-37.3-281.8a7 7 0 1 1 0-14.1 7 7 0 0 1 0 14.1" fill="#005bbb96"/><path d="M-81.2-202.4a7.1 7.1 0 1 1 0-14.1 7.1 7.1 0 0 1 0 14.1" fill="#c2e1ff96"/><path d="M-77.6-95.5a7.1 7.1 0 1 1 0-14.2 7.1 7.1 0 0 1 0 14.2" fill="#c2e1ff96"/><path d="M175.1 20.8a7.1 7.1 0 1 1 0-14.3 7.1 7.1 0 0 1 0 14.3" fill="#fff50097"/><path d="M207.3 5.4a7.2 7.2 0 1 1 0-14.3 7.2 7.2 0 0 1 0 14.3" fill="#005bbb98"/><path d="M238.5-16.7a7.2 7.2 0 1 1 0-14.4 7.2 7.2 0 0 1 0 14.4" fill="#c2e1ff99"/><path d="M94-351.3a7.2 7.2 0 1 1 0-14.4 7.2 7.2 0 0 1 0 14.4" fill="#fff50099"/><path d="M79.4 40.7a7.2 7.2 0 1 1 0-14.5 7.2 7.2 0 0 1 0 14.5" fill="#fff5009A"/><path d="M18.1 25.1a7.2 7.2 0 1 1 0-14.5 7.2 7.2 0 0 1 0 14.5" fill="#fff9A"/><path d="M-42.5-293.7a7.3 7.3 0 1 1 0-14.5 7.3 7.3 0 0 1 0 14.5" fill="#005bbb9A"/><path d="M240.4-296a7.3 7.3 0 1 1 0-14.5 7.3 7.3 0 0 1 0 14.5" fill="#005bbb9A"/><path d="M-15.4 7.8a7.3 7.3 0 1 1 0-14.5 7.3 7.3 0 0 1 0 14.5" fill="#005bbb9B"/><path d="M-99.8-178.1a7.3 7.3 0 1 1 0-14.6 7.3 7.3 0 0 1 0 14.6" fill="#fff9B"/><path d="M169.9 34.8a7.3 7.3 0 1 1 0-14.7 7.3 7.3 0 0 1 0 14.7" fill="#fff5009C"/><path d="M298-111.9a7.3 7.3 0 1 1 0-14.7 7.3 7.3 0 0 1 0 14.7" fill="#fff5009C"/><path d="M204.2-329.1a7.3 7.3 0 1 1 0-14.7 7.3 7.3 0 0 1 0 14.7" fill="#fff9C"/><path d="M300.3-207.5a7.4 7.4 0 1 1 0-14.8 7.4 7.4 0 0 1 0 14.8" fill="#fff5009E"/><path d="M-75.7-45.4a7.4 7.4 0 1 1 0-14.9 7.4 7.4 0 0 1 0 14.9" fill="#005bbb9E"/><path d="M-91-65.8a7.5 7.5 0 1 1 0-15 7.5 7.5 0 0 1 0 15" fill="#fff500A0"/><path d="M169.3-354.8a7.5 7.5 0 1 1 0-15 7.5 7.5 0 0 1 0 15" fill="#fffA1"/><path d="M-74.9-274.4a7.6 7.6 0 1 1 0-15.1 7.6 7.6 0 0 1 0 15.1" fill="#005bbbA1"/><path d="M273.4-32.6a7.6 7.6 0 1 1 0-15.1 7.6 7.6 0 0 1 0 15.1" fill="#fffA1"/><path d="M308.6-114.7a7.6 7.6 0 1 1 0-15.1 7.6 7.6 0 0 1 0 15.1" fill="#005bbbA1"/><path d="M3-346.1a7.6 7.6 0 1 1 0-15.2 7.6 7.6 0 0 1 0 15.2" fill="#005bbbA2"/><path d="M239 8.5a7.6 7.6 0 1 1 0-15.2 7.6 7.6 0 0 1 0 15.2" fill="#fffA2"/><path d="M315.8-158.1a7.7 7.7 0 1 1 0-15.3 7.7 7.7 0 0 1 0 15.3" fill="#c2e1ffA3"/><path d="M314-183.9a7.7 7.7 0 1 1 0-15.3 7.7 7.7 0 0 1 0 15.3" fill="#fffA3"/><path d="M29.4 50.4a7.7 7.7 0 1 1 0-15.4 7.7 7.7 0 0 1 0 15.4" fill="#fff500A4"/><path d="M53.7 59.3a7.8 7.8 0 1 1 0-15.5 7.8 7.8 0 0 1 0 15.5" fill="#c2e1ffA5"/><path d="M311.7-212.1a7.8 7.8 0 1 1 0-15.5 7.8 7.8 0 0 1 0 15.5" fill="#fffA5"/><path d="M136.7-375.9a7.9 7.9 0 1 1 0-15.8 7.9 7.9 0 0 1 0 15.8" fill="#fff500A9"/><path d="M-98.2-261.7a8 8 0 1 1 0-16 8 8 0 0 1 0 16" fill="#005bbbAA"/><path d="M317.1-216.4a8 8 0 1 1 0-15.9 8 8 0 0 1 0 15.9" fill="#fffAA"/><path d="M317.1-217.1a8 8 0 1 1 0-16 8 8 0 0 1 0 16" fill="#c2e1ffAB"/><path d="M-65 0.7a8 8 0 1 1 0-16 8 8 0 0 1 0 16" fill="#c2e1ffAB"/><path d="M309.6-241.8a8 8 0 1 1 0-16 8 8 0 0 1 0 16" fill="#005bbbAC"/><path d="M-118.4-219.2a8.1 8.1 0 1 1 0-16.1 8.1 8.1 0 0 1 0 16.1" fill="#005bbbAC"/><path d="M-83.3-289.9a8.1 8.1 0 1 1 0-16.1 8.1 8.1 0 0 1 0 16.1" fill="#fffAC"/><path d="M-57.3 12a8.1 8.1 0 1 1 0-16.3 8.1 8.1 0 0 1 0 16.3" fill="#fff500AD"/><path d="M172.2-372.3a8.2 8.2 0 1 1 0-16.3 8.2 8.2 0 0 1 0 16.3" fill="#fffAE"/><path d="M-127-116a8.2 8.2 0 1 1 0-16.3 8.2 8.2 0 0 1 0 16.3" fill="#c2e1ffAF"/><path d="M261.5-318.7a8.2 8.2 0 1 1 0-16.4 8.2 8.2 0 0 1 0 16.4" fill="#005bbbAF"/><path d="M134.7 74.2a8.2 8.2 0 1 1 0-16.5 8.2 8.2 0 0 1 0 16.5" fill="#fffB0"/><path d="M316.6-235.4a8.3 8.3 0 1 1 0-16.5 8.3 8.3 0 0 1 0 16.5" fill="#fff500B0"/><path d="M217-354.4a8.3 8.3 0 1 1 0-16.6 8.3 8.3 0 0 1 0 16.6" fill="#fff500B1"/><path d="M113.1 77.5a8.3 8.3 0 1 1 0-16.6 8.3 8.3 0 0 1 0 16.6" fill="#c2e1ffB1"/><path d="M-34-344.2a8.3 8.3 0 1 1 0-16.7 8.3 8.3 0 0 1 0 16.7" fill="#005bbbB2"/><path d="M169.6-376.4a8.4 8.4 0 1 1 0-16.7 8.4 8.4 0 0 1 0 16.7" fill="#fff500B3"/><path d="M268.9 6.3a8.4 8.4 0 1 1 0-16.8 8.4 8.4 0 0 1 0 16.8" fill="#fffB3"/><path d="M-88.8-290.9a8.4 8.4 0 1 1 0-16.7 8.4 8.4 0 0 1 0 16.7" fill="#005bbbB3"/><path d="M-0.8 56.5a8.4 8.4 0 1 1 0-16.8 8.4 8.4 0 0 1 0 16.8" fill="#fffB4"/><path d="M-41.5-340a8.4 8.4 0 1 1 0-16.9 8.4 8.4 0 0 1 0 16.9" fill="#fff500B4"/><path d="M322.1-77.2a8.6 8.6 0 1 1 0-17.1 8.6 8.6 0 0 1 0 17.1" fill="#c2e1ffB7"/><path d="M219-356.8a8.6 8.6 0 1 1 0-17.1 8.6 8.6 0 0 1 0 17.1" fill="#fffB7"/><path d="M239.4 36.2a8.6 8.6 0 1 1 0-17.3 8.6 8.6 0 0 1 0 17.3" fill="#c2e1ffB9"/><path d="M-130.5-205.1a8.8 8.8 0 1 1 0-17.5 8.8 8.8 0 0 1 0 17.5" fill="#fffBB"/><path d="M64-387.1a8.8 8.8 0 1 1 0-17.6 8.8 8.8 0 0 1 0 17.6" fill="#fffBC"/><path d="M-99.6-27.4a8.9 8.9 0 1 1 0-17.8 8.9 8.9 0 0 1 0 17.8" fill="#005bbbBF"/><path d="M-114.1-54a8.9 8.9 0 1 1 0-17.9 8.9 8.9 0 0 1 0 17.9" fill="#fffBF"/><path d="M-125.6-83.9a9 9 0 1 1 0-18 9 9 0 0 1 0 18" fill="#fff500C0"/><path d="M-135.5-169.5a9 9 0 1 1 0-18 9 9 0 0 1 0 18" fill="#005bbbC0"/><path d="M-134.6-128.2a9 9 0 1 1 0-18 9 9 0 0 1 0 18" fill="#fff500C1"/><path d="M122.9-387.6a9.1 9.1 0 1 1 0-18.2 9.1 9.1 0 0 1 0 18.2" fill="#fffC3"/><path d="M329.9-104a9.1 9.1 0 1 1 0-18.3 9.1 9.1 0 0 1 0 18.3" fill="#005bbbC4"/><path d="M251.3 26.6a9.2 9.2 0 1 1 0-18.4 9.2 9.2 0 0 1 0 18.4" fill="#fffC4"/><path d="M178.3-374.7a9.2 9.2 0 1 1 0-18.4 9.2 9.2 0 0 1 0 18.4" fill="#005bbbC5"/><path d="M-30.7 41.2a9.2 9.2 0 1 1 0-18.5 9.2 9.2 0 0 1 0 18.5" fill="#fffC6"/><path d="M-121.6-78.3a9.3 9.3 0 1 1 0-18.6 9.3 9.3 0 0 1 0 18.6" fill="#005bbbC7"/><path d="M46.5 74.5a9.3 9.3 0 1 1 0-18.5 9.3 9.3 0 0 1 0 18.5" fill="#fff500C7"/><path d="M-54.7 22.2a9.3 9.3 0 1 1 0-18.6 9.3 9.3 0 0 1 0 18.6" fill="#c2e1ffC7"/><path d="M-50.4-331.3a9.3 9.3 0 1 1 0-18.6 9.3 9.3 0 0 1 0 18.6" fill="#fff500C8"/><path d="M186-369.5a9.4 9.4 0 1 1 0-18.7 9.4 9.4 0 0 1 0 18.7" fill="#fffC9"/><path d="M156.6-377.6a9.4 9.4 0 1 1 0-18.9 9.4 9.4 0 0 1 0 18.9" fill="#fff500CA"/><path d="M329-121.3a9.5 9.5 0 1 1 0-18.9 9.5 9.5 0 0 1 0 18.9" fill="#c2e1ffCB"/><path d="M-126-107.5a9.5 9.5 0 1 1 0-19 9.5 9.5 0 0 1 0 19" fill="#fffCC"/><path d="M-118.4-225.3a9.5 9.5 0 1 1 0-19 9.5 9.5 0 0 1 0 19" fill="#005bbbCC"/><path d="M125.5 75.7a9.5 9.5 0 1 1 0-19.1 9.5 9.5 0 0 1 0 19.1" fill="#fffCC"/><path d="M270.8-0.3a9.6 9.6 0 1 1 0-19.2 9.6 9.6 0 0 1 0 19.2" fill="#c2e1ffCD"/><path d="M160.2 67.8a9.6 9.6 0 1 1 0-19.2 9.6 9.6 0 0 1 0 19.2" fill="#c2e1ffCE"/><path d="M-125.4-186.9a9.6 9.6 0 1 1 0-19.2 9.6 9.6 0 0 1 0 19.2" fill="#fff500CF"/><path d="M18.1-365.3a9.6 9.6 0 1 1 0-19.3 9.6 9.6 0 0 1 0 19.3" fill="#005bbbCF"/><path d="M-81.2-16.4a9.7 9.7 0 1 1 0-19.4 9.7 9.7 0 0 1 0 19.4" fill="#c2e1ffD0"/><path d="M-112.3-230.4a9.7 9.7 0 1 1 0-19.5 9.7 9.7 0 0 1 0 19.5" fill="#005bbbD0"/><path d="M262.3 3.2a9.8 9.8 0 1 1 0-19.5 9.8 9.8 0 0 1 0 19.5" fill="#c2e1ffD1"/><path d="M103.1-376.9a9.8 9.8 0 1 1 0-19.5 9.8 9.8 0 0 1 0 19.5" fill="#fffD2"/><path d="M-121.6-140.4a9.9 9.9 0 1 1 0-19.7 9.9 9.9 0 0 1 0 19.7" fill="#fff500D4"/><path d="M124.1-373.2a9.9 9.9 0 1 1 0-19.7 9.9 9.9 0 0 1 0 19.7" fill="#005bbbD4"/><path d="M115.1-373.7a9.9 9.9 0 1 1 0-19.8 9.9 9.9 0 0 1 0 19.8" fill="#c2e1ffD4"/><path d="M-81.2-27.7a9.9 9.9 0 1 1 0-19.9 9.9 9.9 0 0 1 0 19.9" fill="#fffD5"/><path d="M302.2-238.8a9.9 9.9 0 1 1 0-19.9 9.9 9.9 0 0 1 0 19.9" fill="#005bbbD5"/><path d="M246.4-314.4a10 10 0 1 1 0-20 10 10 0 0 1 0 20" fill="#fffD6"/><path d="M96.2-370.2a10 10 0 1 1 0-20 10 10 0 0 1 0 20" fill="#fffD7"/><path d="M-37.1 13.3a10.1 10.1 0 1 1 0-20.1 10.1 10.1 0 0 1 0 20.1" fill="#fff500D8"/><path d="M-76.2-272.2a10.1 10.1 0 1 1 0-20.2 10.1 10.1 0 0 1 0 20.2" fill="#fff500DA"/><path d="M59.2-360.5a10.2 10.2 0 1 1 0-20.3 10.2 10.2 0 0 1 0 20.3" fill="#005bbbDA"/><path d="M308.1-189.1a10.2 10.2 0 1 1 0-20.3 10.2 10.2 0 0 1 0 20.3" fill="#fffDB"/><path d="M243 1.6a10.2 10.2 0 1 1 0-20.4 10.2 10.2 0 0 1 0 20.4" fill="#005bbbDB"/><path d="M269.9-271.3a10.3 10.3 0 1 1 0-20.6 10.3 10.3 0 0 1 0 20.6" fill="#c2e1ffDD"/><path d="M301.1-152.1a10.4 10.4 0 1 1 0-20.8 10.4 10.4 0 0 1 0 20.8" fill="#c2e1ffE0"/><path d="M-96.6-190.3a10.4 10.4 0 1 1 0-20.9 10.4 10.4 0 0 1 0 20.9" fill="#fffE0"/><path d="M296-185.8a10.5 10.5 0 1 1 0-20.9 10.5 10.5 0 0 1 0 20.9" fill="#fff500E1"/><path d="M222.9 0.3a10.5 10.5 0 1 1 0-21.1 10.5 10.5 0 0 1 0 21.1" fill="#c2e1ffE2"/><path d="M50.1 37.1a10.5 10.5 0 1 1 0-21.1 10.5 10.5 0 0 1 0 21.1" fill="#fffE2"/><path d="M112.8-345.3a10.5 10.5 0 1 1 0-21.1 10.5 10.5 0 0 1 0 21.1" fill="#005bbbE3"/><path d="M20.9 24.8a10.6 10.6 0 1 1 0-21.1 10.6 10.6 0 0 1 0 21.1" fill="#fff500E3"/><path d="M173.3-330.6a10.6 10.6 0 1 1 0-21.2 10.6 10.6 0 0 1 0 21.2" fill="#fffE3"/><path d="M31.3 27.5a10.6 10.6 0 1 1 0-21.1 10.6 10.6 0 0 1 0 21.1" fill="#fffE3"/><path d="M-91.6-139.7a10.6 10.6 0 1 1 0-21.1 10.6 10.6 0 0 1 0 21.1" fill="#c2e1ffE3"/><path d="M36.8-331.4a10.6 10.6 0 1 1 0-21.2 10.6 10.6 0 0 1 0 21.2" fill="#005bbbE4"/><path d="M229.4-12.4a10.6 10.6 0 1 1 0-21.2 10.6 10.6 0 0 1 0 21.2" fill="#c2e1ffE4"/><path d="M-8.1 2a10.6 10.6 0 1 1 0-21.3 10.6 10.6 0 0 1 0 21.3" fill="#c2e1ffE5"/><path d="M252.3-259.8a10.7 10.7 0 1 1 0-21.3 10.7 10.7 0 0 1 0 21.3" fill="#fff500E5"/><path d="M197.3 6.8a10.7 10.7 0 1 1 0-21.3 10.7 10.7 0 0 1 0 21.3" fill="#fffE6"/><path d="M16 11.6a10.7 10.7 0 1 1 0-21.5 10.7 10.7 0 0 1 0 21.5" fill="#005bbbE6"/><path d="M206.5-299.2a10.7 10.7 0 1 1 0-21.5 10.7 10.7 0 0 1 0 21.5" fill="#c2e1ffE7"/><path d="M205.9-294.5a10.8 10.8 0 1 1 0-21.6 10.8 10.8 0 0 1 0 21.6" fill="#fffE8"/><path d="M70.2 20.6a10.8 10.8 0 1 1 0-21.7 10.8 10.8 0 0 1 0 21.7" fill="#c2e1ffE9"/><path d="M-62.7-99.8a10.9 10.9 0 1 1 0-21.8 10.9 10.9 0 0 1 0 21.8" fill="#005bbbEA"/><path d="M216.3-273.9a10.9 10.9 0 1 1 0-21.8 10.9 10.9 0 0 1 0 21.8" fill="#005bbbEB"/><path d="M82-318.6a10.9 10.9 0 1 1 0-21.9 10.9 10.9 0 0 1 0 21.9" fill="#fff500EB"/><path d="M178.7-299a10.9 10.9 0 1 1 0-21.9 10.9 10.9 0 0 1 0 21.9" fill="#005bbbEB"/><path d="M0.8-281.8a11 11 0 1 1 0-22 11 11 0 0 1 0 22" fill="#c2e1ffEC"/><path d="M-24.3-51.2a11 11 0 1 1 0-22 11 11 0 0 1 0 22" fill="#005bbbED"/><path d="M39.9-291.1a11.1 11.1 0 1 1 0-22.3 11.1 11.1 0 0 1 0 22.3" fill="#c2e1ffEF"/><path d="M1.5-40.8a11.2 11.2 0 1 1 0-22.3 11.2 11.2 0 0 1 0 22.3" fill="#005bbbF0"/><path d="M193.2-266a11.2 11.2 0 1 1 0-22.3 11.2 11.2 0 0 1 0 22.3" fill="#fffF0"/><path d="M32.3-20.8a11.2 11.2 0 1 1 0-22.4 11.2 11.2 0 0 1 0 22.4" fill="#fffF0"/><path d="M21.2-269a11.2 11.2 0 1 1 0-22.4 11.2 11.2 0 0 1 0 22.4" fill="#fff500F2"/><path d="M-39.2-167.7a11.2 11.2 0 1 1 0-22.4 11.2 11.2 0 0 1 0 22.4" fill="#005bbbF2"/><path d="M29.3-261.3a11.3 11.3 0 1 1 0-22.6 11.3 11.3 0 0 1 0 22.6" fill="#fff500F4"/><path d="M4.4-74a11.4 11.4 0 1 1 0-22.8 11.4 11.4 0 0 1 0 22.8" fill="#c2e1ffF5"/><path d="M58.3-263.9a11.4 11.4 0 1 1 0-22.8 11.4 11.4 0 0 1 0 22.8" fill="#005bbbF5"/><path d="M-5.5-207.1a11.4 11.4 0 1 1 0-22.8 11.4 11.4 0 0 1 0 22.8" fill="#c2e1ffF6"/><path d="M60-41.7a11.4 11.4 0 1 1 0-22.9 11.4 11.4 0 0 1 0 22.9" fill="#fff500F6"/><path d="M199.9-110.2a11.5 11.5 0 1 1 0-22.9 11.5 11.5 0 0 1 0 22.9" fill="#fffF7"/><path d="M155.8-243.1a11.5 11.5 0 1 1 0-23 11.5 11.5 0 0 1 0 23" fill="#fff500F7"/><path d="M173.7-73.4a11.5 11.5 0 1 1 0-23 11.5 11.5 0 0 1 0 23" fill="#c2e1ffF7"/><path d="M3.5-167a11.5 11.5 0 1 1 0-23.1 11.5 11.5 0 0 1 0 23.1" fill="#fff500F9"/><path d="M174.2-204.1a11.6 11.6 0 1 1 0-23.2 11.6 11.6 0 0 1 0 23.2" fill="#fffF9"/><path d="M114.7-239.3a11.6 11.6 0 1 1 0-23.2 11.6 11.6 0 0 1 0 23.2" fill="#fff500FA"/><path d="M158.4-91.4a11.6 11.6 0 1 1 0-23.3 11.6 11.6 0 0 1 0 23.3" fill="#005bbbFA"/><path d="M55.5-180.5a11.7 11.7 0 1 1 0-23.4 11.7 11.7 0 0 1 0 23.4" fill="#c2e1ffFD"/><path d="M128.6-115.1a11.8 11.8 0 1 1 0-23.6 11.8 11.8 0 0 1 0 23.6" fill="#c2e1ffFD"/><path d="M114.3-143.4a11.8 11.8 0 1 1 0-23.7 11.8 11.8 0 0 1 0 23.7" fill="#005bbbFE"/></g></svg>