<svg width="1200" height="675" viewBox="-500 -500 1200 675" xmlns="http://www.w3.org/2000/svg"><path d="M-500-500h1200v675h-1200z" fill="#000"/><style>.sparkles path{stroke-linecap:round; stroke-width:1}</style><g class="sparkles"><path d="M100-162.5l-6.3 15.9" stroke="#fff50032"/><path d="M100-162.5l13.2-11.8" stroke="#c2e1ff32"/><path d="M100-162.5l-19.6-33.9" stroke="#c2e1ff32"/><path d="M100-162.5l-38.3 8.7" stroke="#fff50032"/><path d="M100-162.5l48.9-31.6" stroke="#fff33"/><path d="M100-162.5l56.6 19.1" stroke="#fff50033"/><path d="M100-162.5l68.9 6.2" stroke="#fff50034"/><path d="M100-162.5l11.6 74" stroke="#fff34"/><path d="M100-162.5l78.3 3.7" stroke="#005bbb34"/><path d="M100-162.5l63.7-48.4" stroke="#005bbb34"/><path d="M100-162.5l50.6-80.5" stroke="#c2e1ff36"/><path d="M100-162.5l108.9 28.1" stroke="#fff50038"/><path d="M100-162.5l-6.1 116.5" stroke="#c2e1ff38"/><path d="M100-162.5l60.4 100.7" stroke="#fff50038"/><path d="M100-162.5l107.4 67.6" stroke="#c2e1ff39"/><path d="M100-162.5l115.1-55.5" stroke="#fff39"/><path d="M100-162.5l-98.9 84.3" stroke="#005bbb3A"/><path d="M100-162.5l36.7 129.3" stroke="#fff5003A"/><path d="M100-162.5l-130-37.3" stroke="#fff5003B"/><path d="M100-162.5l108.9 81.3" stroke="#fff5003B"/><path d="M100-162.5l-134.8-44" stroke="#fff5003C"/><path d="M100-162.5l11.4 144.5" stroke="#c2e1ff3C"/><path d="M100-162.5l24.8-144.8" stroke="#fff5003C"/><path d="M100-162.5l154.4-22.6" stroke="#c2e1ff3E"/><path d="M100-162.5l70.7 141" stroke="#fff3E"/><path d="M100-162.5l-77.9-145.1" stroke="#c2e1ff40"/><path d="M100-162.5l168.9-14.6" stroke="#005bbb41"/><path d="M100-162.5l19.2-174.8" stroke="#fff42"/><path d="M100-162.5l143.2-104.1" stroke="#c2e1ff42"/><path d="M100-162.5l-159.7 79.6" stroke="#fff50043"/><path d="M100-162.5l-99.6 152.2" stroke="#005bbb44"/><path d="M100-162.5l-180.6 37.7" stroke="#c2e1ff44"/><path d="M100-162.5l156 99" stroke="#c2e1ff44"/><path d="M100-162.5l89.8-161.9" stroke="#c2e1ff44"/><path d="M100-162.5l-130.9-131.5" stroke="#fff45"/><path d="M100-162.5l-185.6-0.4" stroke="#fff50045"/><path d="M100-162.5l-132.9 129.8" stroke="#fff45"/><path d="M100-162.5l168.6 88.4" stroke="#005bbb46"/><path d="M100-162.5l-140.9 128.1" stroke="#fff46"/><path d="M100-162.5l-193.2 22.8" stroke="#c2e1ff47"/><path d="M100-162.5l138.8-137.8" stroke="#005bbb47"/><path d="M100-162.5l-111.7-163.9" stroke="#005bbb48"/><path d="M100-162.5l150.1-131.5" stroke="#005bbb49"/><path d="M100-162.5l144.2 139.7" stroke="#fff50049"/><path d="M100-162.5l201.1 11.7" stroke="#fff50049"/><path d="M100-162.5l-139.5-149.7" stroke="#c2e1ff4A"/><path d="M100-162.5l112.6 175.1" stroke="#c2e1ff4C"/><path d="M100-162.5l-56.2-205.1" stroke="#fff5004E"/><path d="M100-162.5l-31.7 210.3" stroke="#fff5004E"/><path d="M100-162.5l-161 139.5" stroke="#c2e1ff4E"/><path d="M100-162.5l-213.8-7.5" stroke="#005bbb4E"/><path d="M100-162.5l-213.5 20.6" stroke="#005bbb4F"/><path d="M100-162.5l-17.9-214.8" stroke="#005bbb4F"/><path d="M100-162.5l166.7 137.5" stroke="#fff5004F"/><path d="M100-162.5l-212.9-51" stroke="#fff50051"/><path d="M100-162.5l-173.1 135" stroke="#fff51"/><path d="M100-162.5l221 0" stroke="#005bbb52"/><path d="M100-162.5l156.4 157.1" stroke="#fff52"/><path d="M100-162.5l-175.4-136.1" stroke="#fff50052"/><path d="M100-162.5l-210.5-72.4" stroke="#fff53"/><path d="M100-162.5l63.4-213.4" stroke="#fff50053"/><path d="M100-162.5l126.8-184.2" stroke="#c2e1ff53"/><path d="M100-162.5l-219.5-42.3" stroke="#fff50053"/><path d="M100-162.5l-219.7 43.5" stroke="#c2e1ff54"/><path d="M100-162.5l47 220.5" stroke="#fff55"/><path d="M100-162.5l212.4 77.3" stroke="#005bbb55"/><path d="M100-162.5l194.3 119.8" stroke="#fff50057"/><path d="M100-162.5l-229.7 19.6" stroke="#005bbb59"/><path d="M100-162.5l-120 196.8" stroke="#fff50059"/><path d="M100-162.5l220.2-70.8" stroke="#fff59"/><path d="M100-162.5l-23.1-230.9" stroke="#fff5005A"/><path d="M100-162.5l231.7 14.8" stroke="#fff5005A"/><path d="M100-162.5l-94.6 212.4" stroke="#005bbb5B"/><path d="M100-162.5l-232.2 18.2" stroke="#fff5B"/><path d="M100-162.5l-92-214.6" stroke="#fff5C"/><path d="M100-162.5l30.4 232.5" stroke="#005bbb5D"/><path d="M100-162.5l-59.3 227" stroke="#fff5E"/><path d="M100-162.5l-167.7-164.6" stroke="#fff5E"/><path d="M100-162.5l232.1-41.7" stroke="#005bbb60"/><path d="M100-162.5l-227.2-63.3" stroke="#c2e1ff60"/><path d="M100-162.5l-165.1-168.5" stroke="#fff50061"/><path d="M100-162.5l-18.4 235.3" stroke="#c2e1ff61"/><path d="M100-162.5l120.7-202.8" stroke="#fff61"/><path d="M100-162.5l-224.4 73.2" stroke="#fff61"/><path d="M100-162.5l40.3 232.6" stroke="#fff62"/><path d="M100-162.5l72.7-224.6" stroke="#fff50062"/><path d="M100-162.5l92.9 217.1" stroke="#005bbb62"/><path d="M100-162.5l212.7-102.7" stroke="#c2e1ff62"/><path d="M100-162.5l227.6-63.4" stroke="#fff50063"/><path d="M100-162.5l175.2 158.5" stroke="#005bbb63"/><path d="M100-162.5l-203.3-120.3" stroke="#c2e1ff63"/><path d="M100-162.5l-76.7-223.4" stroke="#fff50064"/><path d="M100-162.5l8.1-236" stroke="#005bbb65"/><path d="M100-162.5l220.3 85" stroke="#fff65"/><path d="M100-162.5l121.7-202.2" stroke="#fff50066"/><path d="M100-162.5l-65.1 226.9" stroke="#fff50066"/><path d="M100-162.5l63.8-227.2" stroke="#c2e1ff66"/><path d="M100-162.5l72.6 224.3" stroke="#c2e1ff67"/><path d="M100-162.5l-182.9 148.2" stroke="#fff50068"/><path d="M100-162.5l230.1-49.5" stroke="#fff68"/><path d="M100-162.5l38.3 231.8" stroke="#fff69"/><path d="M100-162.5l-141.1-187.3" stroke="#005bbb6A"/><path d="M100-162.5l-134.4-191.6" stroke="#c2e1ff6A"/><path d="M100-162.5l-216.2 89.1" stroke="#fff5006B"/><path d="M100-162.5l-40.8 229.1" stroke="#c2e1ff6C"/><path d="M100-162.5l-125-196" stroke="#c2e1ff6C"/><path d="M100-162.5l-120.2 198.8" stroke="#c2e1ff6D"/><path d="M100-162.5l-33 229.8" stroke="#fff6D"/><path d="M100-162.5l-27.9-229.5" stroke="#005bbb6E"/><path d="M100-162.5l-89.2 211.4" stroke="#005bbb6F"/><path d="M100-162.5l-175.9-147.1" stroke="#c2e1ff70"/><path d="M100-162.5l164.5-159.3" stroke="#fff70"/><path d="M100-162.5l47-223.7" stroke="#c2e1ff70"/><path d="M100-162.5l-55.7 221.4" stroke="#fff50070"/><path d="M100-162.5l48.3 223" stroke="#fff70"/><path d="M100-162.5l202.8 104.2" stroke="#fff50071"/><path d="M100-162.5l106.6-201.3" stroke="#fff50071"/><path d="M100-162.5l161.4 160.4" stroke="#fff71"/><path d="M100-162.5l205.3-97.9" stroke="#fff71"/><path d="M100-162.5l-15.7 226.5" stroke="#c2e1ff71"/><path d="M100-162.5l-219.5 50.4" stroke="#005bbb73"/><path d="M100-162.5l-146-170.8" stroke="#c2e1ff73"/><path d="M100-162.5l-144.5 171.5" stroke="#005bbb73"/><path d="M100-162.5l167.2 148.7" stroke="#fff50074"/><path d="M100-162.5l-200.1 95.1" stroke="#fff50075"/><path d="M100-162.5l-80.2-206.2" stroke="#fff75"/><path d="M100-162.5l-32.8 218.2" stroke="#fff50075"/><path d="M100-162.5l-220.3-7.5" stroke="#fff75"/><path d="M100-162.5l128.3 178.6" stroke="#fff76"/><path d="M100-162.5l-207.5 68.5" stroke="#005bbb76"/><path d="M100-162.5l-207.5 63.3" stroke="#c2e1ff77"/><path d="M100-162.5l149.2-155.3" stroke="#c2e1ff78"/><path d="M100-162.5l-94.5 191.1" stroke="#fff50079"/><path d="M100-162.5l45.8-208" stroke="#c2e1ff79"/><path d="M100-162.5l-195.3 83" stroke="#fff50079"/><path d="M100-162.5l212-0.8" stroke="#005bbb7A"/><path d="M100-162.5l81 194.7" stroke="#005bbb7A"/><path d="M100-162.5l30.5-208.4" stroke="#005bbb7A"/><path d="M100-162.5l187.3-95.9" stroke="#fff7A"/><path d="M100-162.5l-209.4 13.8" stroke="#005bbb7A"/><path d="M100-162.5l-206.8 32" stroke="#c2e1ff7B"/><path d="M100-162.5l89.3 188" stroke="#fff5007B"/><path d="M100-162.5l-169.1-118.6" stroke="#fff5007C"/><path d="M100-162.5l-84.4 188.3" stroke="#fff7C"/><path d="M100-162.5l-14.2-203.5" stroke="#fff5007D"/><path d="M100-162.5l-191.7-51.3" stroke="#005bbb7F"/><path d="M100-162.5l-52.7 188.7" stroke="#fff5007F"/><path d="M100-162.5l86.5 175.4" stroke="#005bbb80"/><path d="M100-162.5l192.7 27.6" stroke="#c2e1ff80"/><path d="M100-162.5l-104.7 158.8" stroke="#fff50081"/><path d="M100-162.5l-174.7-72.3" stroke="#fff81"/><path d="M100-162.5l43.1 183" stroke="#005bbb82"/><path d="M100-162.5l27.1-182.3" stroke="#fff83"/><path d="M100-162.5l-46.9-173.8" stroke="#c2e1ff84"/><path d="M100-162.5l45.7-169.8" stroke="#fff50085"/><path d="M100-162.5l153.3-73.2" stroke="#fff50086"/><path d="M100-162.5l-54.3-149" stroke="#fff89"/><path d="M100-162.5l-78.8-132.6" stroke="#c2e1ff89"/><path d="M100-162.5l-96.2-119.8" stroke="#c2e1ff89"/><path d="M100-162.5l148.9 37.1" stroke="#fff5008A"/><path d="M100-162.5l138.8-62.4" stroke="#fff8A"/><path d="M100-162.5l96 101.1" stroke="#c2e1ff8C"/><path d="M100-162.5l99.4-94.1" stroke="#fff8C"/><path d="M100-162.5l-89.4-100.3" stroke="#c2e1ff8D"/><path d="M100-162.5l20.8-132.2" stroke="#005bbb8D"/><path d="M100-162.5l-126.1 25.2" stroke="#fff8D"/><path d="M100-162.5l-2.3-111.6" stroke="#005bbb90"/><path d="M100-162.5l-100.8-28.3" stroke="#fff50090"/><path d="M100-162.5l-33.1-97.2" stroke="#fff91"/><path d="M100-162.5l-82.8-57.6" stroke="#005bbb91"/><path d="M100-162.5l-98.1 17.4" stroke="#005bbb91"/><path d="M100-162.5l-39.3 86.5" stroke="#c2e1ff91"/><path d="M100-162.5l46.4-65" stroke="#fff50093"/><path d="M100-162.5l4 76.2" stroke="#c2e1ff93"/><path d="M100-162.5l-43.2-57.4" stroke="#005bbb93"/><path d="M100-162.5l-39.8-51.1" stroke="#005bbb94"/><path d="M100-162.5l48.7 33.7" stroke="#fff50094"/><path d="M100-162.5l-42.5 31.2" stroke="#fff94"/><path d="M100-162.5l50.8-13" stroke="#fff50094"/><path d="M100-162.5l2.8-20.4" stroke="#c2e1ff95"/><path d="M100-162.5l5.6 1.5" stroke="#fff95"/></g><g class="sparcs"><path d="M93.7-140.7a5.9 5.9 0 1 1 0-11.8 5.9 5.9 0 0 1 0 11.8" fill="#005bbb7D"/><path d="M113.2-168.4a5.9 5.9 0 1 1 0-11.8 5.9 5.9 0 0 1 0 11.8" fill="#fff7D"/><path d="M80.4-190.4a5.9 5.9 0 1 1 0-11.9 5.9 5.9 0 0 1 0 11.9" fill="#c2e1ff7D"/><path d="M61.7-147.8a5.9 5.9 0 1 1 0-11.9 5.9 5.9 0 0 1 0 11.9" fill="#fff7D"/><path d="M148.9-188.1a6 6 0 1 1 0-12 6 6 0 0 1 0 12" fill="#fff7F"/><path d="M156.6-137.4a6 6 0 1 1 0-12 6 6 0 0 1 0 12" fill="#005bbb7F"/><path d="M168.9-150.2a6 6 0 1 1 0-12.1 6 6 0 0 1 0 12.1" fill="#fff7F"/><path d="M111.6-82.5a6.1 6.1 0 1 1 0-12.1 6.1 6.1 0 0 1 0 12.1" fill="#fff50080"/><path d="M178.3-152.7a6.1 6.1 0 1 1 0-12.2 6.1 6.1 0 0 1 0 12.2" fill="#005bbb80"/><path d="M163.7-204.8a6.1 6.1 0 1 1 0-12.1 6.1 6.1 0 0 1 0 12.1" fill="#fff80"/><path d="M150.6-236.9a6.2 6.2 0 1 1 0-12.3 6.2 6.2 0 0 1 0 12.3" fill="#fff50082"/><path d="M208.9-128.2a6.3 6.3 0 1 1 0-12.5 6.3 6.3 0 0 1 0 12.5" fill="#fff50084"/><path d="M93.9-39.7a6.3 6.3 0 1 1 0-12.6 6.3 6.3 0 0 1 0 12.6" fill="#c2e1ff85"/><path d="M160.4-55.5a6.3 6.3 0 1 1 0-12.6 6.3 6.3 0 0 1 0 12.6" fill="#005bbb85"/><path d="M207.4-88.5a6.4 6.4 0 1 1 0-12.7 6.4 6.4 0 0 1 0 12.7" fill="#fff50087"/><path d="M215.1-211.6a6.4 6.4 0 1 1 0-12.8 6.4 6.4 0 0 1 0 12.8" fill="#fff87"/><path d="M1.1-71.8a6.4 6.4 0 1 1 0-12.8 6.4 6.4 0 0 1 0 12.8" fill="#005bbb87"/><path d="M136.7-26.7a6.4 6.4 0 1 1 0-12.9 6.4 6.4 0 0 1 0 12.9" fill="#c2e1ff88"/><path d="M-30-193.4a6.4 6.4 0 1 1 0-12.9 6.4 6.4 0 0 1 0 12.9" fill="#005bbb88"/><path d="M208.9-74.7a6.4 6.4 0 1 1 0-12.9 6.4 6.4 0 0 1 0 12.9" fill="#c2e1ff88"/><path d="M-34.8-200a6.5 6.5 0 1 1 0-13 6.5 6.5 0 0 1 0 13" fill="#fff8A"/><path d="M111.4-11.5a6.5 6.5 0 1 1 0-13 6.5 6.5 0 0 1 0 13" fill="#005bbb8A"/><path d="M124.8-300.7a6.5 6.5 0 1 1 0-13.1 6.5 6.5 0 0 1 0 13.1" fill="#c2e1ff8B"/><path d="M254.4-178.5a6.6 6.6 0 1 1 0-13.3 6.6 6.6 0 0 1 0 13.3" fill="#fff5008D"/><path d="M170.7-14.8a6.7 6.7 0 1 1 0-13.3 6.7 6.7 0 0 1 0 13.3" fill="#c2e1ff8D"/><path d="M22.1-300.8a6.7 6.7 0 1 1 0-13.5 6.7 6.7 0 0 1 0 13.5" fill="#fff8F"/><path d="M268.9-170.3a6.8 6.8 0 1 1 0-13.6 6.8 6.8 0 0 1 0 13.6" fill="#c2e1ff90"/><path d="M119.2-330.4a6.9 6.9 0 1 1 0-13.7 6.9 6.9 0 0 1 0 13.7" fill="#c2e1ff92"/><path d="M243.2-259.7a6.9 6.9 0 1 1 0-13.8 6.9 6.9 0 0 1 0 13.8" fill="#c2e1ff92"/><path d="M-59.7-76a6.9 6.9 0 1 1 0-13.8 6.9 6.9 0 0 1 0 13.8" fill="#005bbb93"/><path d="M0.4-3.3a7 7 0 1 1 0-13.9 7 7 0 0 1 0 13.9" fill="#fff50094"/><path d="M-80.6-117.8a7 7 0 1 1 0-14 7 7 0 0 1 0 14" fill="#c2e1ff95"/><path d="M256-56.5a7 7 0 1 1 0-14 7 7 0 0 1 0 14" fill="#c2e1ff95"/><path d="M189.8-317.4a7 7 0 1 1 0-14 7 7 0 0 1 0 14" fill="#005bbb95"/><path d="M-30.9-286.9a7 7 0 1 1 0-14.1 7 7 0 0 1 0 14.1" fill="#fff95"/><path d="M-85.6-155.8a7 7 0 1 1 0-14.1 7 7 0 0 1 0 14.1" fill="#c2e1ff95"/><path d="M-32.9-25.7a7 7 0 1 1 0-14.1 7 7 0 0 1 0 14.1" fill="#c2e1ff95"/><path d="M268.6-67a7.1 7.1 0 1 1 0-14.2 7.1 7.1 0 0 1 0 14.2" fill="#fff50097"/><path d="M-40.9-27.3a7.1 7.1 0 1 1 0-14.2 7.1 7.1 0 0 1 0 14.2" fill="#fff97"/><path d="M-93.2-132.5a7.2 7.2 0 1 1 0-14.4 7.2 7.2 0 0 1 0 14.4" fill="#fff50099"/><path d="M238.8-293.1a7.2 7.2 0 1 1 0-14.4 7.2 7.2 0 0 1 0 14.4" fill="#005bbb99"/><path d="M-11.7-319.2a7.3 7.3 0 1 1 0-14.5 7.3 7.3 0 0 1 0 14.5" fill="#fff9A"/><path d="M250.1-286.7a7.3 7.3 0 1 1 0-14.6 7.3 7.3 0 0 1 0 14.6" fill="#c2e1ff9B"/><path d="M244.2-15.5a7.3 7.3 0 1 1 0-14.6 7.3 7.3 0 0 1 0 14.6" fill="#fff9B"/><path d="M301.1-143.5a7.3 7.3 0 1 1 0-14.6 7.3 7.3 0 0 1 0 14.6" fill="#fff5009C"/><path d="M-39.5-304.8a7.4 7.4 0 1 1 0-14.8 7.4 7.4 0 0 1 0 14.8" fill="#fff5009D"/><path d="M212.6 20.1a7.5 7.5 0 1 1 0-14.9 7.5 7.5 0 0 1 0 14.9" fill="#c2e1ff9F"/><path d="M43.8-360a7.6 7.6 0 1 1 0-15.2 7.6 7.6 0 0 1 0 15.2" fill="#fff500A1"/><path d="M68.3 55.4a7.6 7.6 0 1 1 0-15.2 7.6 7.6 0 0 1 0 15.2" fill="#fffA1"/><path d="M-61-15.4a7.6 7.6 0 1 1 0-15.1 7.6 7.6 0 0 1 0 15.1" fill="#fffA1"/><path d="M-113.8-162.4a7.6 7.6 0 1 1 0-15.2 7.6 7.6 0 0 1 0 15.2" fill="#c2e1ffA2"/><path d="M-113.5-134.2a7.6 7.6 0 1 1 0-15.3 7.6 7.6 0 0 1 0 15.3" fill="#c2e1ffA2"/><path d="M82.1-369.6a7.7 7.7 0 1 1 0-15.3 7.7 7.7 0 0 1 0 15.3" fill="#c2e1ffA3"/><path d="M266.7-17.3a7.7 7.7 0 1 1 0-15.4 7.7 7.7 0 0 1 0 15.4" fill="#005bbbA3"/><path d="M-112.9-205.8a7.7 7.7 0 1 1 0-15.5 7.7 7.7 0 0 1 0 15.5" fill="#fff500A5"/><path d="M-73.1-19.7a7.8 7.8 0 1 1 0-15.5 7.8 7.8 0 0 1 0 15.5" fill="#005bbbA5"/><path d="M321-154.7a7.8 7.8 0 1 1 0-15.6 7.8 7.8 0 0 1 0 15.6" fill="#fff500A7"/><path d="M256.4 2.4a7.8 7.8 0 1 1 0-15.7 7.8 7.8 0 0 1 0 15.7" fill="#005bbbA7"/><path d="M-75.4-290.7a7.8 7.8 0 1 1 0-15.7 7.8 7.8 0 0 1 0 15.7" fill="#fff500A7"/><path d="M-110.5-227.1a7.9 7.9 0 1 1 0-15.7 7.9 7.9 0 0 1 0 15.7" fill="#fffA8"/><path d="M163.4-368.1a7.9 7.9 0 1 1 0-15.7 7.9 7.9 0 0 1 0 15.7" fill="#fffA8"/><path d="M226.8-338.8a7.9 7.9 0 1 1 0-15.8 7.9 7.9 0 0 1 0 15.8" fill="#fffA8"/><path d="M-119.5-196.9a7.9 7.9 0 1 1 0-15.8 7.9 7.9 0 0 1 0 15.8" fill="#fffA8"/><path d="M-119.7-111.1a7.9 7.9 0 1 1 0-15.9 7.9 7.9 0 0 1 0 15.9" fill="#fffA9"/><path d="M147 66a8 8 0 1 1 0-16 8 8 0 0 1 0 16" fill="#005bbbAA"/><path d="M312.4-77.2a8 8 0 1 1 0-16.1 8 8 0 0 1 0 16.1" fill="#005bbbAB"/><path d="M294.3-34.6a8.1 8.1 0 1 1 0-16.2 8.1 8.1 0 0 1 0 16.2" fill="#fffAD"/><path d="M-129.7-134.7a8.2 8.2 0 1 1 0-16.4 8.2 8.2 0 0 1 0 16.4" fill="#c2e1ffAF"/><path d="M-20 42.5a8.2 8.2 0 1 1 0-16.4 8.2 8.2 0 0 1 0 16.4" fill="#005bbbAF"/><path d="M320.2-225.1a8.3 8.3 0 1 1 0-16.5 8.3 8.3 0 0 1 0 16.5" fill="#fffB0"/><path d="M76.9-385.1a8.3 8.3 0 1 1 0-16.6 8.3 8.3 0 0 1 0 16.6" fill="#005bbbB1"/><path d="M331.7-139.4a8.3 8.3 0 1 1 0-16.6 8.3 8.3 0 0 1 0 16.6" fill="#fffB2"/><path d="M5.4 58.2a8.3 8.3 0 1 1 0-16.7 8.3 8.3 0 0 1 0 16.7" fill="#005bbbB2"/><path d="M-132.2-136a8.4 8.4 0 1 1 0-16.7 8.4 8.4 0 0 1 0 16.7" fill="#005bbbB3"/><path d="M8-368.7a8.4 8.4 0 1 1 0-16.8 8.4 8.4 0 0 1 0 16.8" fill="#005bbbB4"/><path d="M130.4 78.5a8.5 8.5 0 1 1 0-17 8.5 8.5 0 0 1 0 17" fill="#fffB6"/><path d="M40.7 73.1a8.5 8.5 0 1 1 0-17.1 8.5 8.5 0 0 1 0 17.1" fill="#c2e1ffB6"/><path d="M-67.7-318.6a8.6 8.6 0 1 1 0-17.1 8.6 8.6 0 0 1 0 17.1" fill="#c2e1ffB7"/><path d="M332.1-195.5a8.7 8.7 0 1 1 0-17.4 8.7 8.7 0 0 1 0 17.4" fill="#005bbbBA"/><path d="M-127.2-217.1a8.7 8.7 0 1 1 0-17.4 8.7 8.7 0 0 1 0 17.4" fill="#c2e1ffBA"/><path d="M-65.1-322.3a8.7 8.7 0 1 1 0-17.4 8.7 8.7 0 0 1 0 17.4" fill="#005bbbBA"/><path d="M81.6 81.5a8.7 8.7 0 1 1 0-17.4 8.7 8.7 0 0 1 0 17.4" fill="#fff500BA"/><path d="M220.7-356.6a8.7 8.7 0 1 1 0-17.4 8.7 8.7 0 0 1 0 17.4" fill="#005bbbBB"/><path d="M-124.4-80.6a8.7 8.7 0 1 1 0-17.5 8.7 8.7 0 0 1 0 17.5" fill="#fff500BB"/><path d="M140.3 78.9a8.8 8.8 0 1 1 0-17.5 8.8 8.8 0 0 1 0 17.5" fill="#fff500BB"/><path d="M172.7-378.4a8.8 8.8 0 1 1 0-17.5 8.8 8.8 0 0 1 0 17.5" fill="#005bbbBB"/><path d="M192.9 63.3a8.8 8.8 0 1 1 0-17.5 8.8 8.8 0 0 1 0 17.5" fill="#fffBB"/><path d="M312.7-256.4a8.8 8.8 0 1 1 0-17.6 8.8 8.8 0 0 1 0 17.6" fill="#005bbbBC"/><path d="M327.6-217.1a8.8 8.8 0 1 1 0-17.6 8.8 8.8 0 0 1 0 17.6" fill="#c2e1ffBD"/><path d="M275.2 4.8a8.8 8.8 0 1 1 0-17.6 8.8 8.8 0 0 1 0 17.6" fill="#fffBD"/><path d="M-103.3-273.9a8.8 8.8 0 1 1 0-17.7 8.8 8.8 0 0 1 0 17.7" fill="#fff500BD"/><path d="M23.3-377a8.9 8.9 0 1 1 0-17.8 8.9 8.9 0 0 1 0 17.8" fill="#005bbbBE"/><path d="M108.1-389.5a9 9 0 1 1 0-17.9 9 9 0 0 1 0 17.9" fill="#fff500C0"/><path d="M320.3-68.6a9 9 0 1 1 0-17.9 9 9 0 0 1 0 17.9" fill="#c2e1ffC0"/><path d="M221.7-355.7a9 9 0 1 1 0-18 9 9 0 0 1 0 18" fill="#fffC0"/><path d="M34.9 73.4a9 9 0 1 1 0-18 9 9 0 0 1 0 18" fill="#005bbbC0"/><path d="M163.8-380.7a9 9 0 1 1 0-18 9 9 0 0 1 0 18" fill="#005bbbC1"/><path d="M172.6 70.9a9.1 9.1 0 1 1 0-18.1 9.1 9.1 0 0 1 0 18.1" fill="#005bbbC2"/><path d="M-82.9-5.2a9.1 9.1 0 1 1 0-18.3 9.1 9.1 0 0 1 0 18.3" fill="#fffC3"/><path d="M330.1-202.9a9.1 9.1 0 1 1 0-18.2 9.1 9.1 0 0 1 0 18.2" fill="#fff500C3"/><path d="M138.3 78.4a9.2 9.2 0 1 1 0-18.3 9.2 9.2 0 0 1 0 18.3" fill="#fff500C4"/><path d="M-41.1-340.5a9.2 9.2 0 1 1 0-18.5 9.2 9.2 0 0 1 0 18.5" fill="#005bbbC5"/><path d="M-34.4-344.8a9.3 9.3 0 1 1 0-18.6 9.3 9.3 0 0 1 0 18.6" fill="#c2e1ffC6"/><path d="M-116.2-64.1a9.3 9.3 0 1 1 0-18.6 9.3 9.3 0 0 1 0 18.6" fill="#fffC7"/><path d="M59.2 76a9.4 9.4 0 1 1 0-18.8 9.4 9.4 0 0 1 0 18.8" fill="#fff500C9"/><path d="M-25-349.1a9.4 9.4 0 1 1 0-18.8 9.4 9.4 0 0 1 0 18.8" fill="#fff500C9"/><path d="M-20.2 45.7a9.4 9.4 0 1 1 0-18.8 9.4 9.4 0 0 1 0 18.8" fill="#005bbbC9"/><path d="M67 76.7a9.4 9.4 0 1 1 0-18.9 9.4 9.4 0 0 1 0 18.9" fill="#c2e1ffCA"/><path d="M72.1-382.5a9.5 9.5 0 1 1 0-18.9 9.5 9.5 0 0 1 0 18.9" fill="#c2e1ffCB"/><path d="M10.8 58.5a9.6 9.6 0 1 1 0-19.1 9.6 9.6 0 0 1 0 19.1" fill="#005bbbCD"/><path d="M-75.9-300.1a9.6 9.6 0 1 1 0-19.1 9.6 9.6 0 0 1 0 19.1" fill="#c2e1ffCD"/><path d="M264.5-312.2a9.6 9.6 0 1 1 0-19.2 9.6 9.6 0 0 1 0 19.2" fill="#c2e1ffCD"/><path d="M147-376.6a9.6 9.6 0 1 1 0-19.2 9.6 9.6 0 0 1 0 19.2" fill="#fff500CE"/><path d="M44.3 68.5a9.6 9.6 0 1 1 0-19.2 9.6 9.6 0 0 1 0 19.2" fill="#fff500CE"/><path d="M148.3 70.1a9.6 9.6 0 1 1 0-19.2 9.6 9.6 0 0 1 0 19.2" fill="#fff500CE"/><path d="M302.8-48.6a9.6 9.6 0 1 1 0-19.3 9.6 9.6 0 0 1 0 19.3" fill="#fff500CE"/><path d="M206.6-354.2a9.6 9.6 0 1 1 0-19.3 9.6 9.6 0 0 1 0 19.3" fill="#005bbbCF"/><path d="M261.4 7.5a9.7 9.7 0 1 1 0-19.3 9.7 9.7 0 0 1 0 19.3" fill="#fffCF"/><path d="M305.3-250.8a9.7 9.7 0 1 1 0-19.3 9.7 9.7 0 0 1 0 19.3" fill="#fff500CF"/><path d="M84.3 73.7a9.7 9.7 0 1 1 0-19.3 9.7 9.7 0 0 1 0 19.3" fill="#c2e1ffCF"/><path d="M-119.5-102.3a9.8 9.8 0 1 1 0-19.5 9.8 9.8 0 0 1 0 19.5" fill="#fff500D1"/><path d="M-46-323.6a9.8 9.8 0 1 1 0-19.5 9.8 9.8 0 0 1 0 19.5" fill="#c2e1ffD2"/><path d="M-44.5 18.8a9.8 9.8 0 1 1 0-19.6 9.8 9.8 0 0 1 0 19.6" fill="#fffD2"/><path d="M267.2-4a9.8 9.8 0 1 1 0-19.6 9.8 9.8 0 0 1 0 19.6" fill="#fffD2"/><path d="M-100.1-57.5a9.9 9.9 0 1 1 0-19.8 9.9 9.9 0 0 1 0 19.8" fill="#fffD4"/><path d="M19.8-358.8a9.9 9.9 0 1 1 0-19.7 9.9 9.9 0 0 1 0 19.7" fill="#fffD4"/><path d="M67.2 65.6a9.9 9.9 0 1 1 0-19.8 9.9 9.9 0 0 1 0 19.8" fill="#c2e1ffD5"/><path d="M-120.3-160a9.9 9.9 0 1 1 0-19.9 9.9 9.9 0 0 1 0 19.9" fill="#fff500D5"/><path d="M228.3 26.1a9.9 9.9 0 1 1 0-19.9 9.9 9.9 0 0 1 0 19.9" fill="#fff500D5"/><path d="M-107.5-84a10 10 0 1 1 0-20 10 10 0 0 1 0 20" fill="#fffD6"/><path d="M-107.5-89.2a10 10 0 1 1 0-20 10 10 0 0 1 0 20" fill="#fff500D7"/><path d="M249.2-307.7a10.1 10.1 0 1 1 0-20.2 10.1 10.1 0 0 1 0 20.2" fill="#005bbbD8"/><path d="M5.5 38.8a10.1 10.1 0 1 1 0-20.3 10.1 10.1 0 0 1 0 20.3" fill="#c2e1ffD9"/><path d="M145.8-360.4a10.1 10.1 0 1 1 0-20.3 10.1 10.1 0 0 1 0 20.3" fill="#fffDA"/><path d="M-95.3-69.3a10.2 10.2 0 1 1 0-20.3 10.2 10.2 0 0 1 0 20.3" fill="#c2e1ffDA"/><path d="M312-153.1a10.2 10.2 0 1 1 0-20.3 10.2 10.2 0 0 1 0 20.3" fill="#fffDA"/><path d="M181 42.4a10.2 10.2 0 1 1 0-20.4 10.2 10.2 0 0 1 0 20.4" fill="#c2e1ffDB"/><path d="M130.5-360.7a10.2 10.2 0 1 1 0-20.4 10.2 10.2 0 0 1 0 20.4" fill="#c2e1ffDB"/><path d="M287.3-248.2a10.2 10.2 0 1 1 0-20.4 10.2 10.2 0 0 1 0 20.4" fill="#fff500DB"/><path d="M-109.4-138.5a10.2 10.2 0 1 1 0-20.4 10.2 10.2 0 0 1 0 20.4" fill="#fff500DB"/><path d="M-106.8-120.2a10.2 10.2 0 1 1 0-20.5 10.2 10.2 0 0 1 0 20.5" fill="#fffDC"/><path d="M189.3 35.8a10.3 10.3 0 1 1 0-20.5 10.3 10.3 0 0 1 0 20.5" fill="#c2e1ffDC"/><path d="M-69.1-270.8a10.3 10.3 0 1 1 0-20.6 10.3 10.3 0 0 1 0 20.6" fill="#c2e1ffDD"/><path d="M15.6 36.1a10.3 10.3 0 1 1 0-20.6 10.3 10.3 0 0 1 0 20.6" fill="#005bbbDD"/><path d="M85.8-355.7a10.3 10.3 0 1 1 0-20.7 10.3 10.3 0 0 1 0 20.7" fill="#fffDE"/><path d="M-91.7-203.3a10.5 10.5 0 1 1 0-21 10.5 10.5 0 0 1 0 21" fill="#005bbbE1"/><path d="M47.3 36.7a10.5 10.5 0 1 1 0-21 10.5 10.5 0 0 1 0 21" fill="#c2e1ffE2"/><path d="M186.5 23.4a10.5 10.5 0 1 1 0-21 10.5 10.5 0 0 1 0 21" fill="#fffE2"/><path d="M292.7-124.3a10.5 10.5 0 1 1 0-21.1 10.5 10.5 0 0 1 0 21.1" fill="#c2e1ffE2"/><path d="M-4.7 6.9a10.6 10.6 0 1 1 0-21.2 10.6 10.6 0 0 1 0 21.2" fill="#c2e1ffE4"/><path d="M-74.7-224.2a10.6 10.6 0 1 1 0-21.2 10.6 10.6 0 0 1 0 21.2" fill="#005bbbE4"/><path d="M143.1 31.1a10.6 10.6 0 1 1 0-21.3 10.6 10.6 0 0 1 0 21.3" fill="#fffE5"/><path d="M127.1-334.1a10.7 10.7 0 1 1 0-21.4 10.7 10.7 0 0 1 0 21.4" fill="#fff500E6"/><path d="M53.1-325.6a10.8 10.8 0 1 1 0-21.5 10.8 10.8 0 0 1 0 21.5" fill="#005bbbE8"/><path d="M145.7-321.4a10.8 10.8 0 1 1 0-21.7 10.8 10.8 0 0 1 0 21.7" fill="#fffE9"/><path d="M253.3-224.8a10.9 10.9 0 1 1 0-21.8 10.9 10.9 0 0 1 0 21.8" fill="#fffEB"/><path d="M45.7-300.4a11 11 0 1 1 0-22.1 11 11 0 0 1 0 22.1" fill="#fff500EE"/><path d="M21.2-284.1a11.1 11.1 0 1 1 0-22.1 11.1 11.1 0 0 1 0 22.1" fill="#005bbbEF"/><path d="M3.8-271.2a11.1 11.1 0 1 1 0-22.2 11.1 11.1 0 0 1 0 22.2" fill="#005bbbEF"/><path d="M248.9-114.2a11.1 11.1 0 1 1 0-22.3 11.1 11.1 0 0 1 0 22.3" fill="#005bbbEF"/><path d="M238.8-213.7a11.1 11.1 0 1 1 0-22.3 11.1 11.1 0 0 1 0 22.3" fill="#005bbbEF"/><path d="M196-50.2a11.2 11.2 0 1 1 0-22.4 11.2 11.2 0 0 1 0 22.4" fill="#fffF2"/><path d="M199.4-245.4a11.3 11.3 0 1 1 0-22.5 11.3 11.3 0 0 1 0 22.5" fill="#c2e1ffF2"/><path d="M10.6-251.5a11.3 11.3 0 1 1 0-22.6 11.3 11.3 0 0 1 0 22.6" fill="#005bbbF3"/><path d="M120.8-283.4a11.3 11.3 0 1 1 0-22.6 11.3 11.3 0 0 1 0 22.6" fill="#fff500F3"/><path d="M-26.1-125.9a11.3 11.3 0 1 1 0-22.7 11.3 11.3 0 0 1 0 22.7" fill="#fff500F4"/><path d="M97.7-262.7a11.5 11.5 0 1 1 0-22.9 11.5 11.5 0 0 1 0 22.9" fill="#005bbbF7"/><path d="M-0.8-179.3a11.5 11.5 0 1 1 0-23 11.5 11.5 0 0 1 0 23" fill="#fffF8"/><path d="M66.9-248.1a11.5 11.5 0 1 1 0-23.1 11.5 11.5 0 0 1 0 23.1" fill="#005bbbF8"/><path d="M17.2-208.6a11.5 11.5 0 1 1 0-23 11.5 11.5 0 0 1 0 23" fill="#fffF8"/><path d="M1.9-133.6a11.5 11.5 0 1 1 0-23.1 11.5 11.5 0 0 1 0 23.1" fill="#005bbbF8"/><path d="M60.7-64.4a11.6 11.6 0 1 1 0-23.1 11.6 11.6 0 0 1 0 23.1" fill="#fff500F9"/><path d="M146.4-215.9a11.6 11.6 0 1 1 0-23.3 11.6 11.6 0 0 1 0 23.3" fill="#fff500FB"/><path d="M104-74.6a11.7 11.7 0 1 1 0-23.3 11.7 11.7 0 0 1 0 23.3" fill="#c2e1ffFB"/><path d="M56.8-208.2a11.7 11.7 0 1 1 0-23.4 11.7 11.7 0 0 1 0 23.4" fill="#fff500FB"/><path d="M60.2-201.9a11.7 11.7 0 1 1 0-23.4 11.7 11.7 0 0 1 0 23.4" fill="#fffFC"/><path d="M148.7-117.1a11.7 11.7 0 1 1 0-23.4 11.7 11.7 0 0 1 0 23.4" fill="#c2e1ffFC"/><path d="M57.5-119.6a11.7 11.7 0 1 1 0-23.5 11.7 11.7 0 0 1 0 23.5" fill="#fff500FD"/><path d="M150.8-163.7a11.7 11.7 0 1 1 0-23.5 11.7 11.7 0 0 1 0 23.5" fill="#005bbbFD"/><path d="M102.8-171.1a11.8 11.8 0 1 1 0-23.6 11.8 11.8 0 0 1 0 23.6" fill="#c2e1ffFE"/><path d="M105.6-149.2a11.8 11.8 0 1 1 0-23.6 11.8 11.8 0 0 1 0 23.6" fill="#005bbbFE"/></g></svg>