<svg width="1200" height="675" viewBox="-500 -500 1200 675" xmlns="http://www.w3.org/2000/svg"><path d="M-500-500h1200v675h-1200z" fill="#000"/><style>.sparkles path{stroke-linecap:round; stroke-width:1}</style><g class="sparkles"><path d="M100-162.5l-14.9 35.3" stroke="#fff32"/><path d="M100-162.5l49.4 0" stroke="#c2e1ff33"/><path d="M100-162.5l4.5 49.2" stroke="#c2e1ff33"/><path d="M100-162.5l-41.5-53.8" stroke="#fff34"/><path d="M100-162.5l-59.2-69.8" stroke="#fff35"/><path d="M100-162.5l-98.2 16.7" stroke="#fff36"/><path d="M100-162.5l81.8-68" stroke="#005bbb37"/><path d="M100-162.5l105 42.7" stroke="#fff50038"/><path d="M100-162.5l40.6-107.5" stroke="#c2e1ff38"/><path d="M100-162.5l44.6-108.5" stroke="#c2e1ff38"/><path d="M100-162.5l-117.3-23.2" stroke="#005bbb38"/><path d="M100-162.5l-96.5-71.4" stroke="#c2e1ff38"/><path d="M100-162.5l-115.2 48.3" stroke="#fff39"/><path d="M100-162.5l-130.5 18.3" stroke="#fff3A"/><path d="M100-162.5l-137.8 2" stroke="#005bbb3B"/><path d="M100-162.5l34.1 134.8" stroke="#fff5003B"/><path d="M100-162.5l122.2-69.9" stroke="#c2e1ff3B"/><path d="M100-162.5l-84.7-119.5" stroke="#c2e1ff3C"/><path d="M100-162.5l95.7 114.4" stroke="#c2e1ff3D"/><path d="M100-162.5l143.1-55.7" stroke="#fff5003D"/><path d="M100-162.5l51.5 150.1" stroke="#fff5003E"/><path d="M100-162.5l-145.2 69.6" stroke="#c2e1ff3F"/><path d="M100-162.5l159.9 23.8" stroke="#fff5003F"/><path d="M100-162.5l162.1 19.7" stroke="#c2e1ff3F"/><path d="M100-162.5l156.8 46" stroke="#c2e1ff3F"/><path d="M100-162.5l100.1 132" stroke="#fff40"/><path d="M100-162.5l145.4 90.1" stroke="#fff41"/><path d="M100-162.5l153.6 89.2" stroke="#c2e1ff43"/><path d="M100-162.5l-140.2-124.7" stroke="#fff45"/><path d="M100-162.5l180.4-70.1" stroke="#fff47"/><path d="M100-162.5l160.4 108.5" stroke="#005bbb47"/><path d="M100-162.5l133.5-140.5" stroke="#fff50047"/><path d="M100-162.5l2.2-194.9" stroke="#fff47"/><path d="M100-162.5l-61.6-186.1" stroke="#fff50048"/><path d="M100-162.5l-36 194" stroke="#fff50048"/><path d="M100-162.5l73.5-184.2" stroke="#fff50048"/><path d="M100-162.5l-162.6-114.4" stroke="#fff50048"/><path d="M100-162.5l199 29.1" stroke="#fff49"/><path d="M100-162.5l115.4 164.7" stroke="#fff49"/><path d="M100-162.5l82.3 183.5" stroke="#005bbb49"/><path d="M100-162.5l192.4 60.5" stroke="#fff50049"/><path d="M100-162.5l-153.4-133.2" stroke="#c2e1ff4A"/><path d="M100-162.5l-151.1-136" stroke="#005bbb4A"/><path d="M100-162.5l29.9 203.5" stroke="#005bbb4B"/><path d="M100-162.5l-39.3 203.8" stroke="#fff5004C"/><path d="M100-162.5l-173.3 115" stroke="#c2e1ff4C"/><path d="M100-162.5l-40.8 207.1" stroke="#c2e1ff4D"/><path d="M100-162.5l195.1 84" stroke="#c2e1ff4E"/><path d="M100-162.5l-208.4 54.8" stroke="#fff4F"/><path d="M100-162.5l-216.3-11.3" stroke="#fff50"/><path d="M100-162.5l43.8-212.7" stroke="#fff50050"/><path d="M100-162.5l-146-161" stroke="#fff50050"/><path d="M100-162.5l149.4-158.5" stroke="#fff50050"/><path d="M100-162.5l79.7-203.5" stroke="#fff51"/><path d="M100-162.5l-195.2-106.1" stroke="#fff53"/><path d="M100-162.5l222.2 0" stroke="#005bbb53"/><path d="M100-162.5l181.8 128.4" stroke="#fff53"/><path d="M100-162.5l-69.3 212.6" stroke="#c2e1ff53"/><path d="M100-162.5l140.8 177.2" stroke="#005bbb55"/><path d="M100-162.5l-98 204.7" stroke="#fff56"/><path d="M100-162.5l171.7 149.1" stroke="#c2e1ff56"/><path d="M100-162.5l-229.4 24.2" stroke="#fff50059"/><path d="M100-162.5l-30.9 228.8" stroke="#fff59"/><path d="M100-162.5l-169.4-157.9" stroke="#c2e1ff5A"/><path d="M100-162.5l36.3-229.8" stroke="#fff5B"/><path d="M100-162.5l232.1 20.9" stroke="#005bbb5B"/><path d="M100-162.5l-65.8-224.1" stroke="#005bbb5C"/><path d="M100-162.5l233.6-5.2" stroke="#fff5005C"/><path d="M100-162.5l185.7 142.5" stroke="#005bbb5D"/><path d="M100-162.5l183-146.1" stroke="#fff5005D"/><path d="M100-162.5l-231.9-33" stroke="#c2e1ff5D"/><path d="M100-162.5l230.8-41" stroke="#c2e1ff5D"/><path d="M100-162.5l-76.4-221.8" stroke="#fff5005E"/><path d="M100-162.5l-83.2-219.8" stroke="#fff5E"/><path d="M100-162.5l227.8 57.7" stroke="#c2e1ff5E"/><path d="M100-162.5l94.8 215.2" stroke="#c2e1ff5F"/><path d="M100-162.5l-203.6-118.9" stroke="#fff50060"/><path d="M100-162.5l-200 125" stroke="#c2e1ff61"/><path d="M100-162.5l-55.3 229.3" stroke="#c2e1ff61"/><path d="M100-162.5l-226.7 65.8" stroke="#fff61"/><path d="M100-162.5l-70.6 225.3" stroke="#fff50062"/><path d="M100-162.5l210.8 106.6" stroke="#005bbb62"/><path d="M100-162.5l116.9-205.2" stroke="#005bbb62"/><path d="M100-162.5l-224.9-72.2" stroke="#005bbb63"/><path d="M100-162.5l145.4-186.2" stroke="#005bbb63"/><path d="M100-162.5l198.9 127.4" stroke="#005bbb64"/><path d="M100-162.5l166.7-167.3" stroke="#fff65"/><path d="M100-162.5l121.2-202.7" stroke="#005bbb65"/><path d="M100-162.5l228.9-57.8" stroke="#fff65"/><path d="M100-162.5l-229.7-54.9" stroke="#fff65"/><path d="M100-162.5l-227.5-63.1" stroke="#c2e1ff65"/><path d="M100-162.5l99.3 214.1" stroke="#fff66"/><path d="M100-162.5l106.5-210.5" stroke="#005bbb66"/><path d="M100-162.5l-32-233.5" stroke="#005bbb67"/><path d="M100-162.5l-156.9-175.6" stroke="#005bbb68"/><path d="M100-162.5l228.1-57.4" stroke="#005bbb68"/><path d="M100-162.5l-156.1-174.5" stroke="#fff6A"/><path d="M100-162.5l100.3 211.3" stroke="#c2e1ff6B"/><path d="M100-162.5l-61.7-225.3" stroke="#fff6B"/><path d="M100-162.5l210.3 101.4" stroke="#fff5006B"/><path d="M100-162.5l90-215.4" stroke="#fff6B"/><path d="M100-162.5l-8.3-233.2" stroke="#005bbb6B"/><path d="M100-162.5l-223.7-66.3" stroke="#fff6B"/><path d="M100-162.5l144 182.2" stroke="#fff5006D"/><path d="M100-162.5l8-231.7" stroke="#fff5006D"/><path d="M100-162.5l184.8-139.3" stroke="#c2e1ff6E"/><path d="M100-162.5l-144.2 180.9" stroke="#fff6E"/><path d="M100-162.5l-16-230.8" stroke="#fff5006E"/><path d="M100-162.5l161.2 165.9" stroke="#c2e1ff6E"/><path d="M100-162.5l-9.9-230.9" stroke="#005bbb6E"/><path d="M100-162.5l35.2 227.9" stroke="#fff6E"/><path d="M100-162.5l-96.1 207.8" stroke="#fff70"/><path d="M100-162.5l-223.4-46.9" stroke="#fff70"/><path d="M100-162.5l-22.8-226.6" stroke="#fff50071"/><path d="M100-162.5l-134.6 182.6" stroke="#c2e1ff71"/><path d="M100-162.5l64.9-216.8" stroke="#fff72"/><path d="M100-162.5l66.3 216" stroke="#005bbb72"/><path d="M100-162.5l210.2 73.5" stroke="#fff50074"/><path d="M100-162.5l21.1-220.1" stroke="#c2e1ff75"/><path d="M100-162.5l179.5 127.9" stroke="#fff76"/><path d="M100-162.5l82-203.6" stroke="#fff50076"/><path d="M100-162.5l44-210.5" stroke="#005bbb78"/><path d="M100-162.5l-84.1-196.5" stroke="#005bbb79"/><path d="M100-162.5l-75.5-198.4" stroke="#005bbb79"/><path d="M100-162.5l128.3-169" stroke="#fff50079"/><path d="M100-162.5l119.9 174.6" stroke="#c2e1ff7A"/><path d="M100-162.5l-144.3-154.7" stroke="#fff5007A"/><path d="M100-162.5l201.8-63.5" stroke="#c2e1ff7A"/><path d="M100-162.5l205.2 38" stroke="#005bbb7B"/><path d="M100-162.5l-184.7 96.4" stroke="#fff5007B"/><path d="M100-162.5l-59.7-199" stroke="#fff5007B"/><path d="M100-162.5l156.9 132.9" stroke="#fff7C"/><path d="M100-162.5l-98.5-179.8" stroke="#c2e1ff7C"/><path d="M100-162.5l-91.5 183.5" stroke="#fff5007C"/><path d="M100-162.5l11.6 203.8" stroke="#c2e1ff7D"/><path d="M100-162.5l197.9-45.4" stroke="#005bbb7D"/><path d="M100-162.5l117 162.2" stroke="#fff7E"/><path d="M100-162.5l-197.3-20.2" stroke="#005bbb7F"/><path d="M100-162.5l-90.2-175.2" stroke="#fff5007F"/><path d="M100-162.5l-93.9-171.1" stroke="#c2e1ff80"/><path d="M100-162.5l-157.6 112.3" stroke="#fff50080"/><path d="M100-162.5l100.3-162.6" stroke="#c2e1ff81"/><path d="M100-162.5l111.8-153.8" stroke="#005bbb81"/><path d="M100-162.5l125.5-139.6" stroke="#fff82"/><path d="M100-162.5l-181.5 43.8" stroke="#c2e1ff82"/><path d="M100-162.5l175.4 58.8" stroke="#fff83"/><path d="M100-162.5l-154.6 98.8" stroke="#fff50083"/><path d="M100-162.5l-82.4 163.2" stroke="#fff83"/><path d="M100-162.5l-13.1-181.6" stroke="#fff83"/><path d="M100-162.5l163.7-79.4" stroke="#c2e1ff83"/><path d="M100-162.5l-69.9 162.8" stroke="#fff85"/><path d="M100-162.5l176.4 0.4" stroke="#fff85"/><path d="M100-162.5l29.2-173.9" stroke="#fff50085"/><path d="M100-162.5l36 172.1" stroke="#fff85"/><path d="M100-162.5l-116.8 129.2" stroke="#fff50085"/><path d="M100-162.5l-106.2-131.7" stroke="#005bbb86"/><path d="M100-162.5l157.1 60.4" stroke="#fff87"/><path d="M100-162.5l-144.2 79.5" stroke="#005bbb87"/><path d="M100-162.5l129.4 101.6" stroke="#fff50087"/><path d="M100-162.5l132.9 96.6" stroke="#fff87"/><path d="M100-162.5l74.3 144.8" stroke="#fff50088"/><path d="M100-162.5l147-66.6" stroke="#fff50088"/><path d="M100-162.5l-117.6-106" stroke="#005bbb89"/><path d="M100-162.5l-157-18.4" stroke="#fff50089"/><path d="M100-162.5l32.2-150.5" stroke="#fff50089"/><path d="M100-162.5l45.1 146.7" stroke="#c2e1ff8A"/><path d="M100-162.5l69.2-133.8" stroke="#c2e1ff8A"/><path d="M100-162.5l58.6-137" stroke="#005bbb8A"/><path d="M100-162.5l-127.5-74.5" stroke="#005bbb8B"/><path d="M100-162.5l-109.7-87.2" stroke="#005bbb8C"/><path d="M100-162.5l89.4 102.4" stroke="#fff5008C"/><path d="M100-162.5l-79.7 106.4" stroke="#005bbb8D"/><path d="M100-162.5l121.2-11.3" stroke="#fff5008E"/><path d="M100-162.5l94.3-76.6" stroke="#fff5008E"/><path d="M100-162.5l109.9-32.6" stroke="#005bbb8F"/><path d="M100-162.5l-9.1-113" stroke="#c2e1ff8F"/><path d="M100-162.5l-87.3-18.8" stroke="#c2e1ff92"/><path d="M100-162.5l10.6 79.9" stroke="#fff93"/><path d="M100-162.5l74.9 9.2" stroke="#fff93"/><path d="M100-162.5l-3.2-56.5" stroke="#fff50094"/><path d="M100-162.5l35.1 21.1" stroke="#c2e1ff95"/></g><g class="sparcs"><path d="M85.1-121.3a5.9 5.9 0 1 1 0-11.9 5.9 5.9 0 0 1 0 11.9" fill="#fff5007D"/><path d="M149.4-156.5a6 6 0 1 1 0-12 6 6 0 0 1 0 12" fill="#fff5007E"/><path d="M104.5-107.3a6 6 0 1 1 0-11.9 6 6 0 0 1 0 11.9" fill="#c2e1ff7E"/><path d="M58.5-210.3a6 6 0 1 1 0-12 6 6 0 0 1 0 12" fill="#005bbb7F"/><path d="M40.8-226.1a6.1 6.1 0 1 1 0-12.3 6.1 6.1 0 0 1 0 12.3" fill="#fff82"/><path d="M1.8-139.7a6.2 6.2 0 1 1 0-12.3 6.2 6.2 0 0 1 0 12.3" fill="#c2e1ff83"/><path d="M181.8-224.2a6.2 6.2 0 1 1 0-12.5 6.2 6.2 0 0 1 0 12.5" fill="#c2e1ff83"/><path d="M205-113.5a6.3 6.3 0 1 1 0-12.6 6.3 6.3 0 0 1 0 12.6" fill="#005bbb84"/><path d="M140.6-263.7a6.3 6.3 0 1 1 0-12.6 6.3 6.3 0 0 1 0 12.6" fill="#fff50085"/><path d="M144.6-264.7a6.3 6.3 0 1 1 0-12.6 6.3 6.3 0 0 1 0 12.6" fill="#005bbb85"/><path d="M-17.3-179.4a6.3 6.3 0 1 1 0-12.6 6.3 6.3 0 0 1 0 12.6" fill="#fff85"/><path d="M3.5-227.5a6.3 6.3 0 1 1 0-12.7 6.3 6.3 0 0 1 0 12.7" fill="#fff50086"/><path d="M-15.2-107.8a6.4 6.4 0 1 1 0-12.7 6.4 6.4 0 0 1 0 12.7" fill="#fff86"/><path d="M-30.5-137.8a6.4 6.4 0 1 1 0-12.8 6.4 6.4 0 0 1 0 12.8" fill="#fff88"/><path d="M-37.8-154a6.5 6.5 0 1 1 0-12.9 6.5 6.5 0 0 1 0 12.9" fill="#fff50089"/><path d="M134.1-21.3a6.5 6.5 0 1 1 0-12.9 6.5 6.5 0 0 1 0 12.9" fill="#fff89"/><path d="M222.2-225.9a6.5 6.5 0 1 1 0-13 6.5 6.5 0 0 1 0 13" fill="#fff50089"/><path d="M15.3-275.4a6.5 6.5 0 1 1 0-13.1 6.5 6.5 0 0 1 0 13.1" fill="#fff5008B"/><path d="M195.7-41.5a6.6 6.6 0 1 1 0-13.1 6.6 6.6 0 0 1 0 13.1" fill="#005bbb8B"/><path d="M243.1-211.5a6.6 6.6 0 1 1 0-13.3 6.6 6.6 0 0 1 0 13.3" fill="#005bbb8C"/><path d="M151.5-5.8a6.7 6.7 0 1 1 0-13.3 6.7 6.7 0 0 1 0 13.3" fill="#c2e1ff8D"/><path d="M-45.2-86.2a6.7 6.7 0 1 1 0-13.4 6.7 6.7 0 0 1 0 13.4" fill="#005bbb8E"/><path d="M259.9-132a6.7 6.7 0 1 1 0-13.4 6.7 6.7 0 0 1 0 13.4" fill="#c2e1ff8E"/><path d="M262.1-136a6.7 6.7 0 1 1 0-13.5 6.7 6.7 0 0 1 0 13.5" fill="#fff8F"/><path d="M256.8-109.8a6.7 6.7 0 1 1 0-13.4 6.7 6.7 0 0 1 0 13.4" fill="#fff8F"/><path d="M200.1-23.7a6.8 6.8 0 1 1 0-13.6 6.8 6.8 0 0 1 0 13.6" fill="#c2e1ff8F"/><path d="M245.4-65.6a6.8 6.8 0 1 1 0-13.6 6.8 6.8 0 0 1 0 13.6" fill="#fff50091"/><path d="M253.6-66.4a6.9 6.9 0 1 1 0-13.8 6.9 6.9 0 0 1 0 13.8" fill="#fff93"/><path d="M-40.2-280.1a7.1 7.1 0 1 1 0-14.1 7.1 7.1 0 0 1 0 14.1" fill="#fff50096"/><path d="M280.4-225.4a7.2 7.2 0 1 1 0-14.3 7.2 7.2 0 0 1 0 14.3" fill="#fff50098"/><path d="M260.4-46.8a7.2 7.2 0 1 1 0-14.4 7.2 7.2 0 0 1 0 14.4" fill="#fff50098"/><path d="M233.5-295.8a7.2 7.2 0 1 1 0-14.4 7.2 7.2 0 0 1 0 14.4" fill="#fff50098"/><path d="M102.2-350.2a7.2 7.2 0 1 1 0-14.4 7.2 7.2 0 0 1 0 14.4" fill="#fff50099"/><path d="M38.4-341.3a7.2 7.2 0 1 1 0-14.5 7.2 7.2 0 0 1 0 14.5" fill="#fff99"/><path d="M64 38.7a7.2 7.2 0 1 1 0-14.4 7.2 7.2 0 0 1 0 14.4" fill="#fff9A"/><path d="M173.5-339.5a7.3 7.3 0 1 1 0-14.5 7.3 7.3 0 0 1 0 14.5" fill="#fff5009A"/><path d="M-62.6-269.6a7.3 7.3 0 1 1 0-14.5 7.3 7.3 0 0 1 0 14.5" fill="#005bbb9A"/><path d="M299-126.1a7.3 7.3 0 1 1 0-14.6 7.3 7.3 0 0 1 0 14.6" fill="#005bbb9B"/><path d="M215.4 9.5a7.3 7.3 0 1 1 0-14.6 7.3 7.3 0 0 1 0 14.6" fill="#c2e1ff9B"/><path d="M182.3 28.4a7.3 7.3 0 1 1 0-14.7 7.3 7.3 0 0 1 0 14.7" fill="#005bbb9B"/><path d="M292.4-94.7a7.3 7.3 0 1 1 0-14.6 7.3 7.3 0 0 1 0 14.6" fill="#fff5009C"/><path d="M-53.4-288.4a7.4 7.4 0 1 1 0-14.7 7.4 7.4 0 0 1 0 14.7" fill="#005bbb9C"/><path d="M-51.1-291.2a7.4 7.4 0 1 1 0-14.7 7.4 7.4 0 0 1 0 14.7" fill="#005bbb9C"/><path d="M129.9 48.4a7.4 7.4 0 1 1 0-14.8 7.4 7.4 0 0 1 0 14.8" fill="#c2e1ff9E"/><path d="M60.7 48.7a7.4 7.4 0 1 1 0-14.9 7.4 7.4 0 0 1 0 14.9" fill="#005bbb9E"/><path d="M-73.3-40.1a7.5 7.5 0 1 1 0-14.9 7.5 7.5 0 0 1 0 14.9" fill="#fff5009F"/><path d="M59.2 52.1a7.5 7.5 0 1 1 0-15.1 7.5 7.5 0 0 1 0 15.1" fill="#c2e1ffA0"/><path d="M295.1-71a7.6 7.6 0 1 1 0-15.1 7.6 7.6 0 0 1 0 15.1" fill="#fffA1"/><path d="M-108.4-100a7.6 7.6 0 1 1 0-15.3 7.6 7.6 0 0 1 0 15.3" fill="#005bbbA3"/><path d="M-116.3-166.1a7.7 7.7 0 1 1 0-15.4 7.7 7.7 0 0 1 0 15.4" fill="#fff500A4"/><path d="M143.8-367.5a7.7 7.7 0 1 1 0-15.4 7.7 7.7 0 0 1 0 15.4" fill="#c2e1ffA4"/><path d="M-46-315.8a7.7 7.7 0 1 1 0-15.4 7.7 7.7 0 0 1 0 15.4" fill="#fff500A4"/><path d="M249.4-313.3a7.7 7.7 0 1 1 0-15.4 7.7 7.7 0 0 1 0 15.4" fill="#005bbbA4"/><path d="M179.7-358.3a7.7 7.7 0 1 1 0-15.4 7.7 7.7 0 0 1 0 15.4" fill="#fff500A5"/><path d="M-95.2-260.8a7.9 7.9 0 1 1 0-15.7 7.9 7.9 0 0 1 0 15.7" fill="#fff500A7"/><path d="M322.2-154.7a7.9 7.9 0 1 1 0-15.7 7.9 7.9 0 0 1 0 15.7" fill="#fffA7"/><path d="M281.8-26.3a7.9 7.9 0 1 1 0-15.7 7.9 7.9 0 0 1 0 15.7" fill="#fffA8"/><path d="M30.7 58a7.9 7.9 0 1 1 0-15.8 7.9 7.9 0 0 1 0 15.8" fill="#c2e1ffA9"/><path d="M240.8 22.7a8 8 0 1 1 0-16.1 8 8 0 0 1 0 16.1" fill="#fff500AB"/><path d="M2 50.3a8 8 0 1 1 0-16.1 8 8 0 0 1 0 16.1" fill="#005bbbAB"/><path d="M271.7-5.3a8.1 8.1 0 1 1 0-16.1 8.1 8.1 0 0 1 0 16.1" fill="#fff500AC"/><path d="M-129.4-130a8.2 8.2 0 1 1 0-16.5 8.2 8.2 0 0 1 0 16.5" fill="#c2e1ffB0"/><path d="M69.1 74.5a8.2 8.2 0 1 1 0-16.4 8.2 8.2 0 0 1 0 16.4" fill="#fff500B0"/><path d="M-69.4-312.2a8.3 8.3 0 1 1 0-16.5 8.3 8.3 0 0 1 0 16.5" fill="#fff500B1"/><path d="M136.3-384a8.3 8.3 0 1 1 0-16.7 8.3 8.3 0 0 1 0 16.7" fill="#fff500B2"/><path d="M332.1-133.2a8.4 8.4 0 1 1 0-16.7 8.4 8.4 0 0 1 0 16.7" fill="#fff500B3"/><path d="M34.2-378.2a8.4 8.4 0 1 1 0-16.8 8.4 8.4 0 0 1 0 16.8" fill="#c2e1ffB4"/><path d="M333.6-159.3a8.4 8.4 0 1 1 0-16.8 8.4 8.4 0 0 1 0 16.8" fill="#fff500B4"/><path d="M285.7-11.6a8.5 8.5 0 1 1 0-16.9 8.5 8.5 0 0 1 0 16.9" fill="#fff500B5"/><path d="M283-300.1a8.5 8.5 0 1 1 0-16.9 8.5 8.5 0 0 1 0 16.9" fill="#fffB5"/><path d="M-131.9-187.1a8.5 8.5 0 1 1 0-16.9 8.5 8.5 0 0 1 0 16.9" fill="#fffB5"/><path d="M330.8-195a8.5 8.5 0 1 1 0-17 8.5 8.5 0 0 1 0 17" fill="#fffB5"/><path d="M23.6-375.8a8.5 8.5 0 1 1 0-17 8.5 8.5 0 0 1 0 17" fill="#005bbbB6"/><path d="M16.8-373.7a8.6 8.6 0 1 1 0-17.1 8.6 8.6 0 0 1 0 17.1" fill="#005bbbB7"/><path d="M327.8-96.3a8.6 8.6 0 1 1 0-17.1 8.6 8.6 0 0 1 0 17.1" fill="#fffB7"/><path d="M194.8 61.3a8.6 8.6 0 1 1 0-17.2 8.6 8.6 0 0 1 0 17.2" fill="#c2e1ffB7"/><path d="M-103.6-272.8a8.7 8.7 0 1 1 0-17.3 8.7 8.7 0 0 1 0 17.3" fill="#fffB9"/><path d="M-100-28.8a8.7 8.7 0 1 1 0-17.3 8.7 8.7 0 0 1 0 17.3" fill="#fffBA"/><path d="M44.7 75.5a8.7 8.7 0 1 1 0-17.4 8.7 8.7 0 0 1 0 17.4" fill="#fffBA"/><path d="M-126.7-88a8.7 8.7 0 1 1 0-17.5 8.7 8.7 0 0 1 0 17.5" fill="#fff500BB"/><path d="M29.4 71.6a8.8 8.8 0 1 1 0-17.5 8.8 8.8 0 0 1 0 17.5" fill="#fff500BB"/><path d="M310.8-47.2a8.8 8.8 0 1 1 0-17.5 8.8 8.8 0 0 1 0 17.5" fill="#fff500BC"/><path d="M216.9-358.9a8.8 8.8 0 1 1 0-17.6 8.8 8.8 0 0 1 0 17.6" fill="#fffBC"/><path d="M-124.9-225.9a8.8 8.8 0 1 1 0-17.6 8.8 8.8 0 0 1 0 17.6" fill="#fffBD"/><path d="M245.4-339.9a8.8 8.8 0 1 1 0-17.6 8.8 8.8 0 0 1 0 17.6" fill="#fffBD"/><path d="M298.9-26.2a8.9 8.9 0 1 1 0-17.8 8.9 8.9 0 0 1 0 17.8" fill="#fff500BF"/><path d="M266.7-320.9a8.9 8.9 0 1 1 0-17.8 8.9 8.9 0 0 1 0 17.8" fill="#fff500BF"/><path d="M221.2-356.3a8.9 8.9 0 1 1 0-17.8 8.9 8.9 0 0 1 0 17.8" fill="#c2e1ffBF"/><path d="M328.9-211.4a8.9 8.9 0 1 1 0-17.9 8.9 8.9 0 0 1 0 17.9" fill="#fffBF"/><path d="M-129.7-208.5a9 9 0 1 1 0-17.9 9 9 0 0 1 0 17.9" fill="#fff500C0"/><path d="M-127.5-216.6a9 9 0 1 1 0-18 9 9 0 0 1 0 18" fill="#c2e1ffC0"/><path d="M199.3 60.6a9 9 0 1 1 0-18 9 9 0 0 1 0 18" fill="#005bbbC0"/><path d="M206.5-363.9a9 9 0 1 1 0-18.1 9 9 0 0 1 0 18.1" fill="#fffC1"/><path d="M68-386.9a9.1 9.1 0 1 1 0-18.2 9.1 9.1 0 0 1 0 18.2" fill="#005bbbC2"/><path d="M-56.9-329a9.1 9.1 0 1 1 0-18.2 9.1 9.1 0 0 1 0 18.2" fill="#fff500C3"/><path d="M328.1-210.8a9.1 9.1 0 1 1 0-18.3 9.1 9.1 0 0 1 0 18.3" fill="#fffC4"/><path d="M-56.1-327.7a9.3 9.3 0 1 1 0-18.5 9.3 9.3 0 0 1 0 18.5" fill="#fff500C6"/><path d="M200.3 58.1a9.3 9.3 0 1 1 0-18.6 9.3 9.3 0 0 1 0 18.6" fill="#c2e1ffC7"/><path d="M38.3-378.5a9.3 9.3 0 1 1 0-18.6 9.3 9.3 0 0 1 0 18.6" fill="#fffC7"/><path d="M310.3-51.7a9.3 9.3 0 1 1 0-18.7 9.3 9.3 0 0 1 0 18.7" fill="#fff500C7"/><path d="M190-368.6a9.3 9.3 0 1 1 0-18.6 9.3 9.3 0 0 1 0 18.6" fill="#005bbbC7"/><path d="M91.7-386.4a9.3 9.3 0 1 1 0-18.6 9.3 9.3 0 0 1 0 18.6" fill="#fff500C8"/><path d="M-123.7-219.5a9.3 9.3 0 1 1 0-18.6 9.3 9.3 0 0 1 0 18.6" fill="#005bbbC8"/><path d="M244 29.1a9.4 9.4 0 1 1 0-18.8 9.4 9.4 0 0 1 0 18.8" fill="#c2e1ffC9"/><path d="M108-384.8a9.4 9.4 0 1 1 0-18.8 9.4 9.4 0 0 1 0 18.8" fill="#fff500CA"/><path d="M284.8-292.4a9.5 9.5 0 1 1 0-18.9 9.5 9.5 0 0 1 0 18.9" fill="#c2e1ffCB"/><path d="M-44.2 27.9a9.5 9.5 0 1 1 0-18.9 9.5 9.5 0 0 1 0 18.9" fill="#fff500CB"/><path d="M84-383.9a9.5 9.5 0 1 1 0-18.9 9.5 9.5 0 0 1 0 18.9" fill="#fffCB"/><path d="M261.2 12.9a9.5 9.5 0 1 1 0-18.9 9.5 9.5 0 0 1 0 18.9" fill="#c2e1ffCB"/><path d="M90.1-383.9a9.5 9.5 0 1 1 0-19 9.5 9.5 0 0 1 0 19" fill="#005bbbCB"/><path d="M135.2 74.9a9.5 9.5 0 1 1 0-19 9.5 9.5 0 0 1 0 19" fill="#005bbbCC"/><path d="M3.9 54.9a9.6 9.6 0 1 1 0-19.1 9.6 9.6 0 0 1 0 19.1" fill="#fff500CD"/><path d="M-123.4-199.8a9.6 9.6 0 1 1 0-19.2 9.6 9.6 0 0 1 0 19.2" fill="#005bbbCE"/><path d="M77.2-379.5a9.6 9.6 0 1 1 0-19.2 9.6 9.6 0 0 1 0 19.2" fill="#fffCF"/><path d="M-34.6 29.8a9.7 9.7 0 1 1 0-19.4 9.7 9.7 0 0 1 0 19.4" fill="#fffD0"/><path d="M164.9-369.6a9.7 9.7 0 1 1 0-19.4 9.7 9.7 0 0 1 0 19.4" fill="#005bbbD0"/><path d="M166.3 63.2a9.7 9.7 0 1 1 0-19.4 9.7 9.7 0 0 1 0 19.4" fill="#fff500D0"/><path d="M310.2-79.1a9.8 9.8 0 1 1 0-19.7 9.8 9.8 0 0 1 0 19.7" fill="#fff500D3"/><path d="M121.1-372.6a9.9 9.9 0 1 1 0-19.9 9.9 9.9 0 0 1 0 19.9" fill="#c2e1ffD4"/><path d="M279.5-24.7a9.9 9.9 0 1 1 0-19.8 9.9 9.9 0 0 1 0 19.8" fill="#c2e1ffD5"/><path d="M182-356.2a10 10 0 1 1 0-19.9 10 10 0 0 1 0 19.9" fill="#fff500D6"/><path d="M144-362.9a10.1 10.1 0 1 1 0-20.2 10.1 10.1 0 0 1 0 20.2" fill="#fff500D8"/><path d="M15.9-348.9a10.1 10.1 0 1 1 0-20.3 10.1 10.1 0 0 1 0 20.3" fill="#fff500D9"/><path d="M24.5-350.8a10.2 10.2 0 1 1 0-20.3 10.2 10.2 0 0 1 0 20.3" fill="#c2e1ffDA"/><path d="M228.3-321.4a10.2 10.2 0 1 1 0-20.3 10.2 10.2 0 0 1 0 20.3" fill="#005bbbDA"/><path d="M219.9 22.3a10.2 10.2 0 1 1 0-20.3 10.2 10.2 0 0 1 0 20.3" fill="#c2e1ffDA"/><path d="M-44.3-307a10.2 10.2 0 1 1 0-20.4 10.2 10.2 0 0 1 0 20.4" fill="#fff500DA"/><path d="M301.8-215.8a10.2 10.2 0 1 1 0-20.4 10.2 10.2 0 0 1 0 20.4" fill="#fff500DA"/><path d="M305.2-114.3a10.2 10.2 0 1 1 0-20.5 10.2 10.2 0 0 1 0 20.5" fill="#005bbbDC"/><path d="M-84.7-55.8a10.3 10.3 0 1 1 0-20.5 10.3 10.3 0 0 1 0 20.5" fill="#fffDC"/><path d="M40.3-351.3a10.3 10.3 0 1 1 0-20.5 10.3 10.3 0 0 1 0 20.5" fill="#fffDC"/><path d="M256.9-19.3a10.3 10.3 0 1 1 0-20.6 10.3 10.3 0 0 1 0 20.6" fill="#c2e1ffDE"/><path d="M1.5-332a10.3 10.3 0 1 1 0-20.7 10.3 10.3 0 0 1 0 20.7" fill="#fff500DE"/><path d="M8.5 31.3a10.3 10.3 0 1 1 0-20.6 10.3 10.3 0 0 1 0 20.6" fill="#fff500DE"/><path d="M111.6 51.7a10.3 10.3 0 1 1 0-20.7 10.3 10.3 0 0 1 0 20.7" fill="#c2e1ffDE"/><path d="M297.9-197.6a10.4 10.4 0 1 1 0-20.7 10.4 10.4 0 0 1 0 20.7" fill="#fff500DF"/><path d="M217 10.1a10.4 10.4 0 1 1 0-20.8 10.4 10.4 0 0 1 0 20.8" fill="#fff500E0"/><path d="M-97.3-172.3a10.5 10.5 0 1 1 0-20.9 10.5 10.5 0 0 1 0 20.9" fill="#c2e1ffE1"/><path d="M9.8-327.2a10.5 10.5 0 1 1 0-21 10.5 10.5 0 0 1 0 21" fill="#c2e1ffE1"/><path d="M6.1-323.1a10.5 10.5 0 1 1 0-21.1 10.5 10.5 0 0 1 0 21.1" fill="#fff500E2"/><path d="M-57.6-39.6a10.6 10.6 0 1 1 0-21.1 10.6 10.6 0 0 1 0 21.1" fill="#005bbbE3"/><path d="M200.3-314.5a10.6 10.6 0 1 1 0-21.2 10.6 10.6 0 0 1 0 21.2" fill="#fff500E4"/><path d="M211.8-305.7a10.6 10.6 0 1 1 0-21.3 10.6 10.6 0 0 1 0 21.3" fill="#c2e1ffE4"/><path d="M225.5-291.5a10.7 10.7 0 1 1 0-21.3 10.7 10.7 0 0 1 0 21.3" fill="#fff500E5"/><path d="M-81.5-108.1a10.7 10.7 0 1 1 0-21.3 10.7 10.7 0 0 1 0 21.3" fill="#fffE5"/><path d="M275.4-93.1a10.7 10.7 0 1 1 0-21.3 10.7 10.7 0 0 1 0 21.3" fill="#005bbbE6"/><path d="M-54.6-53a10.7 10.7 0 1 1 0-21.4 10.7 10.7 0 0 1 0 21.4" fill="#fff500E6"/><path d="M17.6 11.5a10.7 10.7 0 1 1 0-21.5 10.7 10.7 0 0 1 0 21.5" fill="#fffE7"/><path d="M86.9-333.3a10.7 10.7 0 1 1 0-21.5 10.7 10.7 0 0 1 0 21.5" fill="#c2e1ffE7"/><path d="M263.7-231.2a10.7 10.7 0 1 1 0-21.5 10.7 10.7 0 0 1 0 21.5" fill="#fffE7"/><path d="M30.1 11.1a10.8 10.8 0 1 1 0-21.6 10.8 10.8 0 0 1 0 21.6" fill="#005bbbE9"/><path d="M276.4-151.3a10.8 10.8 0 1 1 0-21.7 10.8 10.8 0 0 1 0 21.7" fill="#005bbbE9"/><path d="M129.2-325.6a10.8 10.8 0 1 1 0-21.6 10.8 10.8 0 0 1 0 21.6" fill="#005bbbE9"/><path d="M136 20.4a10.8 10.8 0 1 1 0-21.6 10.8 10.8 0 0 1 0 21.6" fill="#fff500E9"/><path d="M-16.8-22.4a10.9 10.9 0 1 1 0-21.7 10.9 10.9 0 0 1 0 21.7" fill="#c2e1ffE9"/><path d="M-6.2-283.3a10.9 10.9 0 1 1 0-21.8 10.9 10.9 0 0 1 0 21.8" fill="#005bbbEB"/><path d="M257.1-91.1a10.9 10.9 0 1 1 0-21.9 10.9 10.9 0 0 1 0 21.9" fill="#fff500EB"/><path d="M-44.2-72a11 11 0 1 1 0-22 11 11 0 0 1 0 22" fill="#c2e1ffEC"/><path d="M229.4-50a11 11 0 1 1 0-21.9 11 11 0 0 1 0 21.9" fill="#c2e1ffEC"/><path d="M232.9-54.9a11 11 0 1 1 0-22 11 11 0 0 1 0 22" fill="#005bbbEC"/><path d="M174.3-6.7a11 11 0 1 1 0-22 11 11 0 0 1 0 22" fill="#005bbbED"/><path d="M247-218.1a11 11 0 1 1 0-22.1 11 11 0 0 1 0 22.1" fill="#005bbbED"/><path d="M-17.6-257.5a11.1 11.1 0 1 1 0-22.1 11.1 11.1 0 0 1 0 22.1" fill="#fff500EE"/><path d="M-57-169.9a11.1 11.1 0 1 1 0-22.1 11.1 11.1 0 0 1 0 22.1" fill="#c2e1ffEE"/><path d="M132.2-301.9a11.1 11.1 0 1 1 0-22.2 11.1 11.1 0 0 1 0 22.2" fill="#005bbbEF"/><path d="M145.1-4.7a11.1 11.1 0 1 1 0-22.2 11.1 11.1 0 0 1 0 22.2" fill="#005bbbEF"/><path d="M169.2-285.2a11.1 11.1 0 1 1 0-22.3 11.1 11.1 0 0 1 0 22.3" fill="#fffF0"/><path d="M158.6-288.4a11.2 11.2 0 1 1 0-22.3 11.2 11.2 0 0 1 0 22.3" fill="#c2e1ffF0"/><path d="M-27.5-225.8a11.2 11.2 0 1 1 0-22.4 11.2 11.2 0 0 1 0 22.4" fill="#fffF0"/><path d="M-9.7-238.4a11.2 11.2 0 1 1 0-22.5 11.2 11.2 0 0 1 0 22.5" fill="#c2e1ffF2"/><path d="M189.4-48.8a11.3 11.3 0 1 1 0-22.6 11.3 11.3 0 0 1 0 22.6" fill="#fff500F3"/><path d="M20.3-44.8a11.3 11.3 0 1 1 0-22.6 11.3 11.3 0 0 1 0 22.6" fill="#005bbbF3"/><path d="M221.2-162.4a11.4 11.4 0 1 1 0-22.8 11.4 11.4 0 0 1 0 22.8" fill="#fffF5"/><path d="M194.3-227.7a11.4 11.4 0 1 1 0-22.8 11.4 11.4 0 0 1 0 22.8" fill="#fffF5"/><path d="M209.9-183.6a11.4 11.4 0 1 1 0-22.9 11.4 11.4 0 0 1 0 22.9" fill="#005bbbF6"/><path d="M90.9-264.1a11.5 11.5 0 1 1 0-22.9 11.5 11.5 0 0 1 0 22.9" fill="#fff500F7"/><path d="M12.7-169.7a11.6 11.6 0 1 1 0-23.2 11.6 11.6 0 0 1 0 23.2" fill="#fff500FA"/><path d="M110.6-71a11.6 11.6 0 1 1 0-23.3 11.6 11.6 0 0 1 0 23.3" fill="#fffFB"/><path d="M174.9-141.7a11.7 11.7 0 1 1 0-23.3 11.7 11.7 0 0 1 0 23.3" fill="#005bbbFB"/><path d="M96.8-207.2a11.7 11.7 0 1 1 0-23.5 11.7 11.7 0 0 1 0 23.5" fill="#fff500FD"/><path d="M135.1-129.6a11.8 11.8 0 1 1 0-23.5 11.8 11.8 0 0 1 0 23.5" fill="#005bbbFE"/></g></svg>