<svg width="1200" height="675" viewBox="-500 -500 1200 675" xmlns="http://www.w3.org/2000/svg"><path d="M-500-500h1200v675h-1200z" fill="#000"/><style>.sparkles path{stroke-linecap:round; stroke-width:1}</style><g class="sparkles"><path d="M100-162.5l13.2-32.3" stroke="#fff32"/><path d="M100-162.5l39 16.8" stroke="#005bbb32"/><path d="M100-162.5l48.4-9.2" stroke="#fff33"/><path d="M100-162.5l35.3 35.1" stroke="#005bbb33"/><path d="M100-162.5l-30.9 43.3" stroke="#005bbb33"/><path d="M100-162.5l53.6 0" stroke="#005bbb33"/><path d="M100-162.5l-5.7 64.3" stroke="#fff50033"/><path d="M100-162.5l-55.5-54.1" stroke="#c2e1ff34"/><path d="M100-162.5l-86.7 18.2" stroke="#c2e1ff35"/><path d="M100-162.5l-21.7-100.3" stroke="#c2e1ff36"/><path d="M100-162.5l79.8 65.7" stroke="#fff50037"/><path d="M100-162.5l-95.5 58" stroke="#fff50037"/><path d="M100-162.5l-9.1-113.7" stroke="#005bbb38"/><path d="M100-162.5l75.1-103.4" stroke="#c2e1ff39"/><path d="M100-162.5l-103.6-74.9" stroke="#005bbb39"/><path d="M100-162.5l-126.1-35.3" stroke="#005bbb3A"/><path d="M100-162.5l-129.4-39.8" stroke="#005bbb3B"/><path d="M100-162.5l-90.5 101.2" stroke="#fff3B"/><path d="M100-162.5l-0.7-137.9" stroke="#c2e1ff3B"/><path d="M100-162.5l-2.6-143.8" stroke="#005bbb3C"/><path d="M100-162.5l-116.5-85.1" stroke="#c2e1ff3C"/><path d="M100-162.5l87.2 117.5" stroke="#005bbb3C"/><path d="M100-162.5l-130.8-69.5" stroke="#005bbb3D"/><path d="M100-162.5l82.4-124.1" stroke="#005bbb3D"/><path d="M100-162.5l-123.5-84.3" stroke="#c2e1ff3D"/><path d="M100-162.5l-4.8-151.9" stroke="#c2e1ff3D"/><path d="M100-162.5l-117.7-96.7" stroke="#c2e1ff3D"/><path d="M100-162.5l-139-66.2" stroke="#c2e1ff3E"/><path d="M100-162.5l-142.5 85.9" stroke="#c2e1ff40"/><path d="M100-162.5l38.1-166.2" stroke="#fff41"/><path d="M100-162.5l-18.9 170.8" stroke="#c2e1ff41"/><path d="M100-162.5l5.8-171.9" stroke="#c2e1ff41"/><path d="M100-162.5l124.6 124.9" stroke="#fff42"/><path d="M100-162.5l154.1 88" stroke="#fff50043"/><path d="M100-162.5l-51.4 170.7" stroke="#005bbb43"/><path d="M100-162.5l-174.8-44.6" stroke="#fff43"/><path d="M100-162.5l-85.1 161.4" stroke="#fff44"/><path d="M100-162.5l153-99.5" stroke="#fff44"/><path d="M100-162.5l31.3 180.4" stroke="#fff44"/><path d="M100-162.5l42.3 185.4" stroke="#c2e1ff46"/><path d="M100-162.5l17.6 191.3" stroke="#fff46"/><path d="M100-162.5l-192.2 39.3" stroke="#fff50048"/><path d="M100-162.5l-190.1-53.5" stroke="#fff50048"/><path d="M100-162.5l188.7 68.4" stroke="#fff49"/><path d="M100-162.5l-55.8 194.4" stroke="#fff5004A"/><path d="M100-162.5l-76.8-190.1" stroke="#fff5004B"/><path d="M100-162.5l60.9-197.1" stroke="#c2e1ff4B"/><path d="M100-162.5l205.5 27.2" stroke="#005bbb4C"/><path d="M100-162.5l-18.7-208.3" stroke="#fff5004C"/><path d="M100-162.5l169.2 123.2" stroke="#fff4C"/><path d="M100-162.5l-205.5 40.4" stroke="#c2e1ff4C"/><path d="M100-162.5l-4.9-209.5" stroke="#c2e1ff4C"/><path d="M100-162.5l121.8 172.2" stroke="#c2e1ff4D"/><path d="M100-162.5l-187.2 98.1" stroke="#fff4D"/><path d="M100-162.5l120.5 175.3" stroke="#fff4E"/><path d="M100-162.5l32.2 212.6" stroke="#fff4F"/><path d="M100-162.5l-200.6-82.6" stroke="#fff50050"/><path d="M100-162.5l83.3-200.7" stroke="#fff50"/><path d="M100-162.5l1.2 217.3" stroke="#fff50050"/><path d="M100-162.5l-165.8 145.9" stroke="#c2e1ff52"/><path d="M100-162.5l-92-202" stroke="#fff52"/><path d="M100-162.5l-210.6 73.5" stroke="#c2e1ff53"/><path d="M100-162.5l-88.1-205.4" stroke="#fff50053"/><path d="M100-162.5l-146.3 170.2" stroke="#c2e1ff54"/><path d="M100-162.5l183.5-129.5" stroke="#fff50054"/><path d="M100-162.5l-182.7-131.1" stroke="#c2e1ff54"/><path d="M100-162.5l77 211.4" stroke="#fff54"/><path d="M100-162.5l202.2-99.8" stroke="#fff55"/><path d="M100-162.5l110-197.8" stroke="#fff50055"/><path d="M100-162.5l6.7 226.3" stroke="#c2e1ff55"/><path d="M100-162.5l-175.9 144.6" stroke="#c2e1ff56"/><path d="M100-162.5l-98.2-205.9" stroke="#fff56"/><path d="M100-162.5l-225.9-38.2" stroke="#fff50057"/><path d="M100-162.5l230 4.2" stroke="#fff50058"/><path d="M100-162.5l-78.9-216.1" stroke="#c2e1ff58"/><path d="M100-162.5l-130.1 190.6" stroke="#c2e1ff59"/><path d="M100-162.5l20-230.9" stroke="#fff5005A"/><path d="M100-162.5l184.5 141.8" stroke="#fff5005B"/><path d="M100-162.5l68.2-222.5" stroke="#fff5005B"/><path d="M100-162.5l31-231.5" stroke="#005bbb5C"/><path d="M100-162.5l-193.8-130.7" stroke="#c2e1ff5C"/><path d="M100-162.5l233.9-9.5" stroke="#fff5005D"/><path d="M100-162.5l172.3-158.9" stroke="#c2e1ff5D"/><path d="M100-162.5l202.5 118.3" stroke="#c2e1ff5E"/><path d="M100-162.5l218.4-87.9" stroke="#fff5005F"/><path d="M100-162.5l234.3 27.6" stroke="#c2e1ff61"/><path d="M100-162.5l181.5 151" stroke="#c2e1ff62"/><path d="M100-162.5l-220.6 84.4" stroke="#fff63"/><path d="M100-162.5l58.1-229" stroke="#005bbb64"/><path d="M100-162.5l71.5-224.9" stroke="#005bbb66"/><path d="M100-162.5l-2.7-235.2" stroke="#005bbb68"/><path d="M100-162.5l-229.1-52.6" stroke="#c2e1ff69"/><path d="M100-162.5l-19.6 233.5" stroke="#fff6A"/><path d="M100-162.5l192.2-133.7" stroke="#c2e1ff6A"/><path d="M100-162.5l183.5-145.1" stroke="#005bbb6A"/><path d="M100-162.5l-203 114.6" stroke="#fff5006C"/><path d="M100-162.5l-181.7-144.2" stroke="#005bbb6D"/><path d="M100-162.5l-224.4 58.2" stroke="#fff6D"/><path d="M100-162.5l231.4 13.1" stroke="#005bbb6D"/><path d="M100-162.5l186.9-136.4" stroke="#fff5006E"/><path d="M100-162.5l-202.7 109.6" stroke="#c2e1ff6E"/><path d="M100-162.5l-66.5 219.2" stroke="#fff50070"/><path d="M100-162.5l-177.8 143.1" stroke="#fff70"/><path d="M100-162.5l-170.2-151.8" stroke="#005bbb71"/><path d="M100-162.5l200.1 107" stroke="#fff50071"/><path d="M100-162.5l-140.5-177.7" stroke="#005bbb72"/><path d="M100-162.5l-117.4-193.7" stroke="#005bbb72"/><path d="M100-162.5l49.1 219.4" stroke="#fff73"/><path d="M100-162.5l-158.8 158.6" stroke="#005bbb73"/><path d="M100-162.5l218.8 49.2" stroke="#fff50073"/><path d="M100-162.5l-170.9-143.8" stroke="#005bbb74"/><path d="M100-162.5l-122.1-186.1" stroke="#fff74"/><path d="M100-162.5l-157.4-156" stroke="#c2e1ff75"/><path d="M100-162.5l-219.1-7.4" stroke="#fff50076"/><path d="M100-162.5l69.7-207.3" stroke="#fff76"/><path d="M100-162.5l169 138.9" stroke="#fff50076"/><path d="M100-162.5l-106.3 190.8" stroke="#c2e1ff77"/><path d="M100-162.5l-87.6-198.6" stroke="#fff50077"/><path d="M100-162.5l-189.5 103" stroke="#c2e1ff78"/><path d="M100-162.5l209.9-48.4" stroke="#fff78"/><path d="M100-162.5l183.8 109.4" stroke="#fff79"/><path d="M100-162.5l205.8 54.2" stroke="#005bbb79"/><path d="M100-162.5l198.3 73.6" stroke="#fff7A"/><path d="M100-162.5l-85.4-188.3" stroke="#fff5007C"/><path d="M100-162.5l-174.4-110.8" stroke="#c2e1ff7C"/><path d="M100-162.5l20-203.9" stroke="#fff5007C"/><path d="M100-162.5l-75-189.6" stroke="#fff5007D"/><path d="M100-162.5l-170.1-106.6" stroke="#c2e1ff7E"/><path d="M100-162.5l149.6-129.9" stroke="#fff7F"/><path d="M100-162.5l-33.3-195.3" stroke="#c2e1ff7F"/><path d="M100-162.5l137.4 140.9" stroke="#005bbb7F"/><path d="M100-162.5l193.6-32.5" stroke="#fff5007F"/><path d="M100-162.5l132.8 144.2" stroke="#005bbb7F"/><path d="M100-162.5l189.7 27.4" stroke="#005bbb81"/><path d="M100-162.5l-46.3 183.9" stroke="#fff81"/><path d="M100-162.5l-141.3-125.7" stroke="#005bbb81"/><path d="M100-162.5l-41.4 183.9" stroke="#005bbb82"/><path d="M100-162.5l166.1 77.7" stroke="#c2e1ff83"/><path d="M100-162.5l181.2-24.3" stroke="#c2e1ff83"/><path d="M100-162.5l163.1-79.2" stroke="#fff50084"/><path d="M100-162.5l72.4-165.4" stroke="#fff50084"/><path d="M100-162.5l24.8-175.9" stroke="#005bbb84"/><path d="M100-162.5l-98.8-147.1" stroke="#005bbb85"/><path d="M100-162.5l1 174.1" stroke="#005bbb85"/><path d="M100-162.5l141.1 101" stroke="#c2e1ff85"/><path d="M100-162.5l-110.2-130" stroke="#005bbb86"/><path d="M100-162.5l-88.9 143.2" stroke="#c2e1ff87"/><path d="M100-162.5l165.9 29.6" stroke="#fff87"/><path d="M100-162.5l163.4-26.1" stroke="#fff87"/><path d="M100-162.5l-72 141.9" stroke="#c2e1ff88"/><path d="M100-162.5l115.8 102.9" stroke="#fff89"/><path d="M100-162.5l16.6-150.4" stroke="#fff8A"/><path d="M100-162.5l-80.5 125.5" stroke="#c2e1ff8A"/><path d="M100-162.5l146.6 22.9" stroke="#fff8A"/><path d="M100-162.5l-54.8 137.3" stroke="#c2e1ff8A"/><path d="M100-162.5l76.2-124.5" stroke="#fff8B"/><path d="M100-162.5l-75.1-125" stroke="#c2e1ff8B"/><path d="M100-162.5l81.3-119.9" stroke="#fff5008B"/><path d="M100-162.5l87.6-110.9" stroke="#fff5008C"/><path d="M100-162.5l-6.2-138.2" stroke="#c2e1ff8C"/><path d="M100-162.5l91.9 100.6" stroke="#005bbb8C"/><path d="M100-162.5l49.2-126.9" stroke="#c2e1ff8C"/><path d="M100-162.5l-124.4-52.7" stroke="#c2e1ff8D"/><path d="M100-162.5l-118-64.2" stroke="#fff5008D"/><path d="M100-162.5l31.3 130.2" stroke="#005bbb8D"/><path d="M100-162.5l131.8-15.6" stroke="#c2e1ff8D"/><path d="M100-162.5l126.9-21.2" stroke="#fff5008D"/><path d="M100-162.5l114.2-50.1" stroke="#005bbb8E"/><path d="M100-162.5l35 113.5" stroke="#005bbb8F"/><path d="M100-162.5l-102.9-49.6" stroke="#fff5008F"/><path d="M100-162.5l-111-9.9" stroke="#005bbb90"/><path d="M100-162.5l72.1 79.4" stroke="#c2e1ff90"/><path d="M100-162.5l-104-8.3" stroke="#c2e1ff90"/><path d="M100-162.5l-95-13.2" stroke="#fff50091"/><path d="M100-162.5l-82.1 33.1" stroke="#fff50092"/><path d="M100-162.5l-81.8 10.2" stroke="#fff92"/><path d="M100-162.5l82.2 0" stroke="#fff50092"/><path d="M100-162.5l12.4-73.4" stroke="#fff93"/><path d="M100-162.5l-56 10.4" stroke="#005bbb94"/><path d="M100-162.5l17.5 45.8" stroke="#fff94"/><path d="M100-162.5l0-36.1" stroke="#005bbb95"/></g><g class="sparcs"><path d="M113.2-188.8a5.9 5.9 0 1 1 0-11.9 5.9 5.9 0 0 1 0 11.9" fill="#fff5007D"/><path d="M139-139.8a6 6 0 1 1 0-11.9 6 6 0 0 1 0 11.9" fill="#fff5007E"/><path d="M148.4-165.8a6 6 0 1 1 0-11.9 6 6 0 0 1 0 11.9" fill="#fff7E"/><path d="M135.3-121.4a6 6 0 1 1 0-12 6 6 0 0 1 0 12" fill="#fff7E"/><path d="M69.1-113.2a6 6 0 1 1 0-12 6 6 0 0 1 0 12" fill="#fff5007E"/><path d="M153.6-156.5a6 6 0 1 1 0-12 6 6 0 0 1 0 12" fill="#c2e1ff7E"/><path d="M94.3-92.2a6 6 0 1 1 0-12 6 6 0 0 1 0 12" fill="#c2e1ff7F"/><path d="M44.5-210.5a6.1 6.1 0 1 1 0-12.2 6.1 6.1 0 0 1 0 12.2" fill="#fff50080"/><path d="M13.3-138.2a6.1 6.1 0 1 1 0-12.2 6.1 6.1 0 0 1 0 12.2" fill="#fff50081"/><path d="M78.3-256.6a6.2 6.2 0 1 1 0-12.4 6.2 6.2 0 0 1 0 12.4" fill="#fff50083"/><path d="M179.8-90.6a6.2 6.2 0 1 1 0-12.4 6.2 6.2 0 0 1 0 12.4" fill="#005bbb83"/><path d="M4.5-98.2a6.3 6.3 0 1 1 0-12.5 6.3 6.3 0 0 1 0 12.5" fill="#005bbb84"/><path d="M90.9-269.9a6.3 6.3 0 1 1 0-12.5 6.3 6.3 0 0 1 0 12.5" fill="#fff85"/><path d="M175.1-259.5a6.4 6.4 0 1 1 0-12.8 6.4 6.4 0 0 1 0 12.8" fill="#c2e1ff87"/><path d="M-3.6-231a6.4 6.4 0 1 1 0-12.8 6.4 6.4 0 0 1 0 12.8" fill="#fff87"/><path d="M-26.1-191.4a6.4 6.4 0 1 1 0-12.8 6.4 6.4 0 0 1 0 12.8" fill="#c2e1ff87"/><path d="M-29.4-195.8a6.4 6.4 0 1 1 0-12.9 6.4 6.4 0 0 1 0 12.9" fill="#fff88"/><path d="M9.5-54.8a6.4 6.4 0 1 1 0-12.9 6.4 6.4 0 0 1 0 12.9" fill="#005bbb88"/><path d="M99.3-294a6.5 6.5 0 1 1 0-12.9 6.5 6.5 0 0 1 0 12.9" fill="#c2e1ff89"/><path d="M97.4-299.8a6.5 6.5 0 1 1 0-13 6.5 6.5 0 0 1 0 13" fill="#fff8A"/><path d="M-16.5-241.1a6.5 6.5 0 1 1 0-13 6.5 6.5 0 0 1 0 13" fill="#005bbb8A"/><path d="M187.2-38.5a6.5 6.5 0 1 1 0-13.1 6.5 6.5 0 0 1 0 13.1" fill="#fff8A"/><path d="M-30.8-225.5a6.6 6.6 0 1 1 0-13.1 6.6 6.6 0 0 1 0 13.1" fill="#c2e1ff8B"/><path d="M182.4-280a6.6 6.6 0 1 1 0-13.1 6.6 6.6 0 0 1 0 13.1" fill="#fff5008B"/><path d="M-23.5-240.2a6.6 6.6 0 1 1 0-13.1 6.6 6.6 0 0 1 0 13.1" fill="#005bbb8B"/><path d="M95.2-307.8a6.6 6.6 0 1 1 0-13.2 6.6 6.6 0 0 1 0 13.2" fill="#fff8C"/><path d="M-17.7-252.6a6.6 6.6 0 1 1 0-13.2 6.6 6.6 0 0 1 0 13.2" fill="#005bbb8C"/><path d="M-39-222.1a6.6 6.6 0 1 1 0-13.3 6.6 6.6 0 0 1 0 13.3" fill="#fff5008C"/><path d="M-42.5-69.8a6.8 6.8 0 1 1 0-13.6 6.8 6.8 0 0 1 0 13.6" fill="#005bbb8F"/><path d="M138.1-321.9a6.8 6.8 0 1 1 0-13.6 6.8 6.8 0 0 1 0 13.6" fill="#005bbb91"/><path d="M81.1 15.2a6.8 6.8 0 1 1 0-13.7 6.8 6.8 0 0 1 0 13.7" fill="#fff91"/><path d="M105.8-327.5a6.8 6.8 0 1 1 0-13.7 6.8 6.8 0 0 1 0 13.7" fill="#fff50091"/><path d="M224.6-30.7a6.9 6.9 0 1 1 0-13.8 6.9 6.9 0 0 1 0 13.8" fill="#005bbb92"/><path d="M254.1-67.6a6.9 6.9 0 1 1 0-13.8 6.9 6.9 0 0 1 0 13.8" fill="#005bbb93"/><path d="M48.6 15.1a6.9 6.9 0 1 1 0-13.9 6.9 6.9 0 0 1 0 13.9" fill="#fff93"/><path d="M-74.8-200.2a7 7 0 1 1 0-13.9 7 7 0 0 1 0 13.9" fill="#fff50094"/><path d="M14.9 5.8a7 7 0 1 1 0-13.9 7 7 0 0 1 0 13.9" fill="#fff50094"/><path d="M253-255.1a7 7 0 1 1 0-13.9 7 7 0 0 1 0 13.9" fill="#fff50094"/><path d="M131.3 24.9a7 7 0 1 1 0-14 7 7 0 0 1 0 14" fill="#c2e1ff94"/><path d="M142.3 30a7.1 7.1 0 1 1 0-14.2 7.1 7.1 0 0 1 0 14.2" fill="#c2e1ff97"/><path d="M117.6 36a7.1 7.1 0 1 1 0-14.3 7.1 7.1 0 0 1 0 14.3" fill="#005bbb98"/><path d="M-92.2-116a7.2 7.2 0 1 1 0-14.4 7.2 7.2 0 0 1 0 14.4" fill="#fff99"/><path d="M-90.1-208.7a7.2 7.2 0 1 1 0-14.5 7.2 7.2 0 0 1 0 14.5" fill="#fff5009A"/><path d="M288.7-86.8a7.3 7.3 0 1 1 0-14.6 7.3 7.3 0 0 1 0 14.6" fill="#c2e1ff9B"/><path d="M44.2 39.3a7.3 7.3 0 1 1 0-14.7 7.3 7.3 0 0 1 0 14.7" fill="#fff5009C"/><path d="M23.2-345.2a7.4 7.4 0 1 1 0-14.8 7.4 7.4 0 0 1 0 14.8" fill="#c2e1ff9D"/><path d="M160.9-352.2a7.4 7.4 0 1 1 0-14.8 7.4 7.4 0 0 1 0 14.8" fill="#fff5009E"/><path d="M305.5-127.8a7.4 7.4 0 1 1 0-14.9 7.4 7.4 0 0 1 0 14.9" fill="#fff9E"/><path d="M81.3-363.3a7.5 7.5 0 1 1 0-15 7.5 7.5 0 0 1 0 15" fill="#005bbb9F"/><path d="M269.2-31.8a7.5 7.5 0 1 1 0-15 7.5 7.5 0 0 1 0 15" fill="#fff9F"/><path d="M-105.5-114.6a7.5 7.5 0 1 1 0-15 7.5 7.5 0 0 1 0 15" fill="#005bbb9F"/><path d="M95.1-364.5a7.5 7.5 0 1 1 0-15 7.5 7.5 0 0 1 0 15" fill="#c2e1ff9F"/><path d="M221.8 17.2a7.5 7.5 0 1 1 0-15.1 7.5 7.5 0 0 1 0 15.1" fill="#fff500A0"/><path d="M-87.2-56.8a7.5 7.5 0 1 1 0-15.1 7.5 7.5 0 0 1 0 15.1" fill="#fff500A0"/><path d="M220.5 20.4a7.6 7.6 0 1 1 0-15.2 7.6 7.6 0 0 1 0 15.2" fill="#c2e1ffA1"/><path d="M132.2 57.7a7.6 7.6 0 1 1 0-15.3 7.6 7.6 0 0 1 0 15.3" fill="#fffA3"/><path d="M-100.6-237.4a7.7 7.7 0 1 1 0-15.4 7.7 7.7 0 0 1 0 15.4" fill="#fff500A4"/><path d="M183.3-355.5a7.7 7.7 0 1 1 0-15.4 7.7 7.7 0 0 1 0 15.4" fill="#005bbbA4"/><path d="M101.2 62.5a7.7 7.7 0 1 1 0-15.4 7.7 7.7 0 0 1 0 15.4" fill="#c2e1ffA4"/><path d="M-65.8-8.8a7.8 7.8 0 1 1 0-15.6 7.8 7.8 0 0 1 0 15.6" fill="#005bbbA6"/><path d="M8-356.6a7.8 7.8 0 1 1 0-15.7 7.8 7.8 0 0 1 0 15.7" fill="#fff500A7"/><path d="M-110.6-81.2a7.9 7.9 0 1 1 0-15.7 7.9 7.9 0 0 1 0 15.7" fill="#005bbbA8"/><path d="M11.9-360a7.9 7.9 0 1 1 0-15.8 7.9 7.9 0 0 1 0 15.8" fill="#fffA8"/><path d="M-46.3 15.6a7.9 7.9 0 1 1 0-15.8 7.9 7.9 0 0 1 0 15.8" fill="#fffA9"/><path d="M283.5-284.1a7.9 7.9 0 1 1 0-15.9 7.9 7.9 0 0 1 0 15.9" fill="#005bbbA9"/><path d="M-82.7-285.7a8 8 0 1 1 0-15.9 8 8 0 0 1 0 15.9" fill="#005bbbAA"/><path d="M177 56.9a8 8 0 1 1 0-15.9 8 8 0 0 1 0 15.9" fill="#fffAA"/><path d="M302.2-254.3a8 8 0 1 1 0-15.9 8 8 0 0 1 0 15.9" fill="#c2e1ffAA"/><path d="M210-352.3a8 8 0 1 1 0-16 8 8 0 0 1 0 16" fill="#fff500AB"/><path d="M106.7 71.8a8 8 0 1 1 0-16 8 8 0 0 1 0 16" fill="#005bbbAB"/><path d="M-75.9-9.9a8.1 8.1 0 1 1 0-16.1 8.1 8.1 0 0 1 0 16.1" fill="#c2e1ffAC"/><path d="M1.8-360.3a8.1 8.1 0 1 1 0-16.1 8.1 8.1 0 0 1 0 16.1" fill="#005bbbAD"/><path d="M-125.9-192.6a8.1 8.1 0 1 1 0-16.2 8.1 8.1 0 0 1 0 16.2" fill="#005bbbAE"/><path d="M330-150.1a8.2 8.2 0 1 1 0-16.4 8.2 8.2 0 0 1 0 16.4" fill="#fff500AF"/><path d="M21.1-370.4a8.2 8.2 0 1 1 0-16.4 8.2 8.2 0 0 1 0 16.4" fill="#fffAF"/><path d="M-30.1 36.3a8.2 8.2 0 1 1 0-16.4 8.2 8.2 0 0 1 0 16.4" fill="#fff500B0"/><path d="M120-385.1a8.3 8.3 0 1 1 0-16.6 8.3 8.3 0 0 1 0 16.6" fill="#fffB1"/><path d="M284.5-12.4a8.3 8.3 0 1 1 0-16.7 8.3 8.3 0 0 1 0 16.7" fill="#005bbbB2"/><path d="M168.2-376.6a8.4 8.4 0 1 1 0-16.7 8.4 8.4 0 0 1 0 16.7" fill="#c2e1ffB2"/><path d="M131-385.6a8.4 8.4 0 1 1 0-16.8 8.4 8.4 0 0 1 0 16.8" fill="#fffB4"/><path d="M-93.8-284.7a8.4 8.4 0 1 1 0-16.9 8.4 8.4 0 0 1 0 16.9" fill="#fffB4"/><path d="M333.9-163.5a8.5 8.5 0 1 1 0-17 8.5 8.5 0 0 1 0 17" fill="#c2e1ffB5"/><path d="M272.3-312.9a8.5 8.5 0 1 1 0-17 8.5 8.5 0 0 1 0 17" fill="#fff500B5"/><path d="M302.5-35.7a8.5 8.5 0 1 1 0-17 8.5 8.5 0 0 1 0 17" fill="#fffB6"/><path d="M318.4-241.8a8.6 8.6 0 1 1 0-17.3 8.6 8.6 0 0 1 0 17.3" fill="#c2e1ffB8"/><path d="M334.3-126.2a8.7 8.7 0 1 1 0-17.4 8.7 8.7 0 0 1 0 17.4" fill="#fff500BA"/><path d="M281.5-2.7a8.8 8.8 0 1 1 0-17.5 8.8 8.8 0 0 1 0 17.5" fill="#005bbbBB"/><path d="M-120.6-69.3a8.8 8.8 0 1 1 0-17.6 8.8 8.8 0 0 1 0 17.6" fill="#005bbbBD"/><path d="M158.1-382.5a8.9 8.9 0 1 1 0-17.9 8.9 8.9 0 0 1 0 17.9" fill="#c2e1ffBF"/><path d="M171.5-378.4a9 9 0 1 1 0-18 9 9 0 0 1 0 18" fill="#fffC1"/><path d="M97.3-388.6a9.1 9.1 0 1 1 0-18.3 9.1 9.1 0 0 1 0 18.3" fill="#fff500C4"/><path d="M-129.1-205.9a9.2 9.2 0 1 1 0-18.3 9.2 9.2 0 0 1 0 18.3" fill="#005bbbC4"/><path d="M80.4 80.2a9.2 9.2 0 1 1 0-18.4 9.2 9.2 0 0 1 0 18.4" fill="#005bbbC6"/><path d="M292.2-287a9.3 9.3 0 1 1 0-18.5 9.3 9.3 0 0 1 0 18.5" fill="#fffC6"/><path d="M283.5-298.3a9.3 9.3 0 1 1 0-18.6 9.3 9.3 0 0 1 0 18.6" fill="#fffC7"/><path d="M-103-38.5a9.3 9.3 0 1 1 0-18.7 9.3 9.3 0 0 1 0 18.7" fill="#005bbbC8"/><path d="M-81.7-297.2a9.4 9.4 0 1 1 0-18.9 9.4 9.4 0 0 1 0 18.9" fill="#005bbbCA"/><path d="M-124.4-94.8a9.4 9.4 0 1 1 0-18.9 9.4 9.4 0 0 1 0 18.9" fill="#fff500CA"/><path d="M331.4-139.9a9.4 9.4 0 1 1 0-18.9 9.4 9.4 0 0 1 0 18.9" fill="#fffCA"/><path d="M286.9-289.5a9.5 9.5 0 1 1 0-18.9 9.5 9.5 0 0 1 0 18.9" fill="#fff500CB"/><path d="M-102.7-43.4a9.5 9.5 0 1 1 0-19 9.5 9.5 0 0 1 0 19" fill="#c2e1ffCC"/><path d="M33.5 66.2a9.6 9.6 0 1 1 0-19.1 9.6 9.6 0 0 1 0 19.1" fill="#005bbbCD"/><path d="M-77.8-9.8a9.6 9.6 0 1 1 0-19.2 9.6 9.6 0 0 1 0 19.2" fill="#005bbbCE"/><path d="M-70.2-304.7a9.6 9.6 0 1 1 0-19.2 9.6 9.6 0 0 1 0 19.2" fill="#fff500CF"/><path d="M300.1-45.8a9.7 9.7 0 1 1 0-19.4 9.7 9.7 0 0 1 0 19.4" fill="#fff500D0"/><path d="M-40.5-330.5a9.7 9.7 0 1 1 0-19.4 9.7 9.7 0 0 1 0 19.4" fill="#c2e1ffD0"/><path d="M-17.4-346.5a9.7 9.7 0 1 1 0-19.4 9.7 9.7 0 0 1 0 19.4" fill="#c2e1ffD0"/><path d="M149.1 66.6a9.8 9.8 0 1 1 0-19.5 9.8 9.8 0 0 1 0 19.5" fill="#005bbbD1"/><path d="M-58.8 5.9a9.8 9.8 0 1 1 0-19.5 9.8 9.8 0 0 1 0 19.5" fill="#fffD2"/><path d="M318.8-103.6a9.8 9.8 0 1 1 0-19.5 9.8 9.8 0 0 1 0 19.5" fill="#005bbbD2"/><path d="M-70.9-296.5a9.8 9.8 0 1 1 0-19.6 9.8 9.8 0 0 1 0 19.6" fill="#fff500D3"/><path d="M-22.1-338.7a9.8 9.8 0 1 1 0-19.7 9.8 9.8 0 0 1 0 19.7" fill="#fffD3"/><path d="M-57.4-308.6a9.9 9.9 0 1 1 0-19.8 9.9 9.9 0 0 1 0 19.8" fill="#c2e1ffD4"/><path d="M-119.1-160a10 10 0 1 1 0-19.9 10 10 0 0 1 0 19.9" fill="#c2e1ffD6"/><path d="M169.7-359.9a10 10 0 1 1 0-19.9 10 10 0 0 1 0 19.9" fill="#c2e1ffD6"/><path d="M269-13.7a10 10 0 1 1 0-19.9 10 10 0 0 1 0 19.9" fill="#fffD6"/><path d="M-6.3 38.3a10 10 0 1 1 0-20 10 10 0 0 1 0 20" fill="#005bbbD6"/><path d="M12.4-351.1a10 10 0 1 1 0-20.1 10 10 0 0 1 0 20.1" fill="#fffD7"/><path d="M-89.5-49.4a10.1 10.1 0 1 1 0-20.1 10.1 10.1 0 0 1 0 20.1" fill="#fffD8"/><path d="M309.9-200.8a10.1 10.1 0 1 1 0-20.2 10.1 10.1 0 0 1 0 20.2" fill="#005bbbD8"/><path d="M283.8-43a10.1 10.1 0 1 1 0-20.2 10.1 10.1 0 0 1 0 20.2" fill="#c2e1ffD9"/><path d="M305.8-98.2a10.1 10.1 0 1 1 0-20.3 10.1 10.1 0 0 1 0 20.3" fill="#c2e1ffDA"/><path d="M298.3-78.8a10.2 10.2 0 1 1 0-20.3 10.2 10.2 0 0 1 0 20.3" fill="#005bbbDA"/><path d="M14.6-340.5a10.3 10.3 0 1 1 0-20.6 10.3 10.3 0 0 1 0 20.6" fill="#fffDD"/><path d="M-74.4-263a10.3 10.3 0 1 1 0-20.6 10.3 10.3 0 0 1 0 20.6" fill="#c2e1ffDD"/><path d="M120-356a10.3 10.3 0 1 1 0-20.7 10.3 10.3 0 0 1 0 20.7" fill="#fffDE"/><path d="M25-341.8a10.3 10.3 0 1 1 0-20.7 10.3 10.3 0 0 1 0 20.7" fill="#c2e1ffDE"/><path d="M-70.1-258.7a10.4 10.4 0 1 1 0-20.8 10.4 10.4 0 0 1 0 20.8" fill="#fffE0"/><path d="M249.6-281.9a10.5 10.5 0 1 1 0-21 10.5 10.5 0 0 1 0 21" fill="#fff500E1"/><path d="M66.7-347.3a10.5 10.5 0 1 1 0-21 10.5 10.5 0 0 1 0 21" fill="#c2e1ffE1"/><path d="M237.4-11.2a10.5 10.5 0 1 1 0-20.9 10.5 10.5 0 0 1 0 20.9" fill="#fff500E1"/><path d="M293.6-184.5a10.5 10.5 0 1 1 0-21 10.5 10.5 0 0 1 0 21" fill="#fffE2"/><path d="M232.8-7.8a10.5 10.5 0 1 1 0-21 10.5 10.5 0 0 1 0 21" fill="#fffE2"/><path d="M289.7-124.5a10.6 10.6 0 1 1 0-21.2 10.6 10.6 0 0 1 0 21.2" fill="#005bbbE3"/><path d="M53.7 32a10.6 10.6 0 1 1 0-21.2 10.6 10.6 0 0 1 0 21.2" fill="#c2e1ffE4"/><path d="M-41.3-277.5a10.6 10.6 0 1 1 0-21.3 10.6 10.6 0 0 1 0 21.3" fill="#c2e1ffE4"/><path d="M58.6 32a10.6 10.6 0 1 1 0-21.2 10.6 10.6 0 0 1 0 21.2" fill="#005bbbE5"/><path d="M266.1-74.1a10.7 10.7 0 1 1 0-21.4 10.7 10.7 0 0 1 0 21.4" fill="#fff500E6"/><path d="M281.2-176.1a10.7 10.7 0 1 1 0-21.4 10.7 10.7 0 0 1 0 21.4" fill="#005bbbE7"/><path d="M263.1-230.9a10.8 10.8 0 1 1 0-21.5 10.8 10.8 0 0 1 0 21.5" fill="#fff500E7"/><path d="M172.4-317.1a10.8 10.8 0 1 1 0-21.6 10.8 10.8 0 0 1 0 21.6" fill="#c2e1ffE7"/><path d="M124.8-327.6a10.8 10.8 0 1 1 0-21.6 10.8 10.8 0 0 1 0 21.6" fill="#c2e1ffE8"/><path d="M1.2-298.8a10.8 10.8 0 1 1 0-21.7 10.8 10.8 0 0 1 0 21.7" fill="#fff500E8"/><path d="M101 22.5a10.9 10.9 0 1 1 0-21.7 10.9 10.9 0 0 1 0 21.7" fill="#005bbbE9"/><path d="M241.1-50.7a10.9 10.9 0 1 1 0-21.7 10.9 10.9 0 0 1 0 21.7" fill="#fff500EA"/><path d="M-10.2-281.6a10.9 10.9 0 1 1 0-21.8 10.9 10.9 0 0 1 0 21.8" fill="#c2e1ffEB"/><path d="M11.1-8.3a10.9 10.9 0 1 1 0-21.9 10.9 10.9 0 0 1 0 21.9" fill="#005bbbEB"/><path d="M265.9-122a10.9 10.9 0 1 1 0-21.8 10.9 10.9 0 0 1 0 21.8" fill="#fff500EB"/><path d="M263.4-177.6a11 11 0 1 1 0-21.9 11 11 0 0 1 0 21.9" fill="#005bbbEC"/><path d="M28-9.6a11 11 0 1 1 0-22.1 11 11 0 0 1 0 22.1" fill="#c2e1ffEE"/><path d="M215.8-48.5a11.1 11.1 0 1 1 0-22.2 11.1 11.1 0 0 1 0 22.2" fill="#fffEF"/><path d="M116.6-301.7a11.1 11.1 0 1 1 0-22.3 11.1 11.1 0 0 1 0 22.3" fill="#c2e1ffEF"/><path d="M19.5-25.8a11.1 11.1 0 1 1 0-22.3 11.1 11.1 0 0 1 0 22.3" fill="#fffF0"/><path d="M246.6-128.5a11.2 11.2 0 1 1 0-22.3 11.2 11.2 0 0 1 0 22.3" fill="#fff500F0"/><path d="M45.2-14a11.2 11.2 0 1 1 0-22.3 11.2 11.2 0 0 1 0 22.3" fill="#005bbbF0"/><path d="M176.2-275.8a11.2 11.2 0 1 1 0-22.4 11.2 11.2 0 0 1 0 22.4" fill="#fff500F1"/><path d="M24.9-276.4a11.2 11.2 0 1 1 0-22.3 11.2 11.2 0 0 1 0 22.3" fill="#005bbbF1"/><path d="M181.3-271.2a11.2 11.2 0 1 1 0-22.4 11.2 11.2 0 0 1 0 22.4" fill="#fff500F1"/><path d="M187.6-262.2a11.2 11.2 0 1 1 0-22.4 11.2 11.2 0 0 1 0 22.4" fill="#fffF2"/><path d="M93.8-289.5a11.3 11.3 0 1 1 0-22.5 11.3 11.3 0 0 1 0 22.5" fill="#fff500F2"/><path d="M191.9-50.7a11.3 11.3 0 1 1 0-22.5 11.3 11.3 0 0 1 0 22.5" fill="#005bbbF3"/><path d="M149.2-278.1a11.3 11.3 0 1 1 0-22.6 11.3 11.3 0 0 1 0 22.6" fill="#fff500F3"/><path d="M-24.4-203.9a11.3 11.3 0 1 1 0-22.6 11.3 11.3 0 0 1 0 22.6" fill="#fff500F3"/><path d="M-18-215.4a11.3 11.3 0 1 1 0-22.6 11.3 11.3 0 0 1 0 22.6" fill="#c2e1ffF3"/><path d="M131.3-21a11.3 11.3 0 1 1 0-22.6 11.3 11.3 0 0 1 0 22.6" fill="#fffF3"/><path d="M231.8-166.8a11.3 11.3 0 1 1 0-22.6 11.3 11.3 0 0 1 0 22.6" fill="#fffF3"/><path d="M226.9-172.4a11.3 11.3 0 1 1 0-22.7 11.3 11.3 0 0 1 0 22.7" fill="#005bbbF4"/><path d="M214.2-201.3a11.4 11.4 0 1 1 0-22.7 11.4 11.4 0 0 1 0 22.7" fill="#c2e1ffF5"/><path d="M135-37.6a11.4 11.4 0 1 1 0-22.8 11.4 11.4 0 0 1 0 22.8" fill="#c2e1ffF6"/><path d="M-2.9-200.7a11.4 11.4 0 1 1 0-22.9 11.4 11.4 0 0 1 0 22.9" fill="#005bbbF6"/><path d="M-11-160.9a11.5 11.5 0 1 1 0-23 11.5 11.5 0 0 1 0 23" fill="#fff500F7"/><path d="M172.1-71.6a11.5 11.5 0 1 1 0-23 11.5 11.5 0 0 1 0 23" fill="#005bbbF7"/><path d="M-4-159.3a11.5 11.5 0 1 1 0-23 11.5 11.5 0 0 1 0 23" fill="#fff500F8"/><path d="M5-164.1a11.6 11.6 0 1 1 0-23.2 11.6 11.6 0 0 1 0 23.2" fill="#fffF9"/><path d="M17.9-117.8a11.6 11.6 0 1 1 0-23.2 11.6 11.6 0 0 1 0 23.2" fill="#fff500FA"/><path d="M18.2-140.7a11.6 11.6 0 1 1 0-23.2 11.6 11.6 0 0 1 0 23.2" fill="#c2e1ffFA"/><path d="M182.2-150.9a11.6 11.6 0 1 1 0-23.2 11.6 11.6 0 0 1 0 23.2" fill="#c2e1ffFA"/><path d="M112.4-224.2a11.7 11.7 0 1 1 0-23.3 11.7 11.7 0 0 1 0 23.3" fill="#fff500FB"/><path d="M44-140.4a11.7 11.7 0 1 1 0-23.4 11.7 11.7 0 0 1 0 23.4" fill="#fff500FD"/><path d="M117.5-105a11.7 11.7 0 1 1 0-23.5 11.7 11.7 0 0 1 0 23.5" fill="#fffFD"/><path d="M100-186.8a11.8 11.8 0 1 1 0-23.6 11.8 11.8 0 0 1 0 23.6" fill="#fffFE"/></g></svg>