<svg width="1200" height="675" viewBox="-500 -500 1200 675" xmlns="http://www.w3.org/2000/svg"><path d="M-500-500h1200v675h-1200z" fill="#000"/><style>.sparkles path{stroke-linecap:round; stroke-width:1}</style><g class="sparkles"><path d="M100-162.5l34.5-13.9" stroke="#fff32"/><path d="M100-162.5l-19.3 61.1" stroke="#005bbb33"/><path d="M100-162.5l80.4 26.3" stroke="#fff50035"/><path d="M100-162.5l-6.3 88.8" stroke="#fff35"/><path d="M100-162.5l87.6 18.6" stroke="#fff35"/><path d="M100-162.5l72.5 61.2" stroke="#fff36"/><path d="M100-162.5l-80.1 54.7" stroke="#fff36"/><path d="M100-162.5l-31-92" stroke="#fff36"/><path d="M100-162.5l70 73.8" stroke="#c2e1ff36"/><path d="M100-162.5l71.8-73.6" stroke="#fff50036"/><path d="M100-162.5l3.5 104.1" stroke="#fff37"/><path d="M100-162.5l1.2 104.5" stroke="#c2e1ff37"/><path d="M100-162.5l89.8-59.8" stroke="#c2e1ff37"/><path d="M100-162.5l-101.7-42.4" stroke="#fff50037"/><path d="M100-162.5l-109.4-34.1" stroke="#fff38"/><path d="M100-162.5l-123.6 0.1" stroke="#005bbb39"/><path d="M100-162.5l102.5-75.2" stroke="#fff50039"/><path d="M100-162.5l-97.5-84.5" stroke="#fff3A"/><path d="M100-162.5l-114.3-67.8" stroke="#005bbb3A"/><path d="M100-162.5l-51.9-127.1" stroke="#005bbb3B"/><path d="M100-162.5l141.3 18.5" stroke="#c2e1ff3C"/><path d="M100-162.5l-41.1 142.1" stroke="#c2e1ff3D"/><path d="M100-162.5l47.5 140.6" stroke="#005bbb3D"/><path d="M100-162.5l56 139.6" stroke="#c2e1ff3D"/><path d="M100-162.5l65.3 136.2" stroke="#005bbb3D"/><path d="M100-162.5l-86.6 126.3" stroke="#005bbb3D"/><path d="M100-162.5l-4.1-154.4" stroke="#c2e1ff3E"/><path d="M100-162.5l-121.2-97.8" stroke="#fff5003E"/><path d="M100-162.5l148.1-51.6" stroke="#fff3E"/><path d="M100-162.5l-131.8-87.8" stroke="#fff5003E"/><path d="M100-162.5l106.2 121.9" stroke="#005bbb3F"/><path d="M100-162.5l-161.9 17.3" stroke="#005bbb3F"/><path d="M100-162.5l129-100" stroke="#c2e1ff3F"/><path d="M100-162.5l-76.7 146.2" stroke="#fff50040"/><path d="M100-162.5l48.5 160.5" stroke="#fff50040"/><path d="M100-162.5l-166.5-26.2" stroke="#fff50040"/><path d="M100-162.5l-161.2-53.7" stroke="#005bbb41"/><path d="M100-162.5l168.7-51.9" stroke="#fff42"/><path d="M100-162.5l175.3 32.6" stroke="#005bbb43"/><path d="M100-162.5l-53 176.8" stroke="#c2e1ff44"/><path d="M100-162.5l-57.5-176.3" stroke="#fff50045"/><path d="M100-162.5l59.9 177.3" stroke="#c2e1ff45"/><path d="M100-162.5l72.3-175.2" stroke="#c2e1ff46"/><path d="M100-162.5l186-59.7" stroke="#fff50047"/><path d="M100-162.5l30.7 193.3" stroke="#fff47"/><path d="M100-162.5l-82.8-177.5" stroke="#fff50048"/><path d="M100-162.5l-126.1-153" stroke="#c2e1ff48"/><path d="M100-162.5l75.4 183.4" stroke="#c2e1ff48"/><path d="M100-162.5l192.7-49.1" stroke="#005bbb49"/><path d="M100-162.5l39.7 196.1" stroke="#fff50049"/><path d="M100-162.5l-49.9-193.9" stroke="#c2e1ff49"/><path d="M100-162.5l-79.5-188.4" stroke="#fff5004A"/><path d="M100-162.5l185.5-86.8" stroke="#fff5004B"/><path d="M100-162.5l-132.4 159.2" stroke="#c2e1ff4B"/><path d="M100-162.5l198.9-58.5" stroke="#fff5004C"/><path d="M100-162.5l93.8-185.1" stroke="#fff4C"/><path d="M100-162.5l-166.4-126.3" stroke="#005bbb4C"/><path d="M100-162.5l134.1 160.7" stroke="#fff5004C"/><path d="M100-162.5l102.1-184.1" stroke="#fff5004D"/><path d="M100-162.5l195.4 85.4" stroke="#c2e1ff4E"/><path d="M100-162.5l-141-160.1" stroke="#005bbb4E"/><path d="M100-162.5l75.9-201.2" stroke="#005bbb4F"/><path d="M100-162.5l-214.1-23.3" stroke="#fff5004F"/><path d="M100-162.5l31.1 214.4" stroke="#c2e1ff50"/><path d="M100-162.5l-26.5 218.3" stroke="#005bbb51"/><path d="M100-162.5l220.5-5.4" stroke="#fff50052"/><path d="M100-162.5l-33.5-219.3" stroke="#c2e1ff52"/><path d="M100-162.5l-222 10" stroke="#005bbb53"/><path d="M100-162.5l131.6-182.1" stroke="#005bbb54"/><path d="M100-162.5l219.1 56.8" stroke="#fff55"/><path d="M100-162.5l-115.7-194.6" stroke="#fff55"/><path d="M100-162.5l-86.7 209.4" stroke="#fff50055"/><path d="M100-162.5l82.5 211.7" stroke="#005bbb56"/><path d="M100-162.5l190.8-125.4" stroke="#005bbb57"/><path d="M100-162.5l228.3-1.3" stroke="#c2e1ff57"/><path d="M100-162.5l-142-181.4" stroke="#005bbb58"/><path d="M100-162.5l209.1 102.5" stroke="#fff5B"/><path d="M100-162.5l85.9-216.6" stroke="#c2e1ff5B"/><path d="M100-162.5l-158.2 171.5" stroke="#fff5C"/><path d="M100-162.5l-173.8 156.3" stroke="#fff5C"/><path d="M100-162.5l91.4-215.4" stroke="#fff5005D"/><path d="M100-162.5l180.8 149.5" stroke="#fff5E"/><path d="M100-162.5l59.6 227.4" stroke="#fff5E"/><path d="M100-162.5l-151.7-179.8" stroke="#005bbb5F"/><path d="M100-162.5l234.4 20.6" stroke="#fff5005F"/><path d="M100-162.5l-164.9 168.5" stroke="#fff60"/><path d="M100-162.5l-106.6 210.5" stroke="#005bbb61"/><path d="M100-162.5l127.5-198.7" stroke="#005bbb62"/><path d="M100-162.5l-85.1-220.3" stroke="#c2e1ff62"/><path d="M100-162.5l-147.4 184.5" stroke="#fff50062"/><path d="M100-162.5l78.5-222.8" stroke="#c2e1ff62"/><path d="M100-162.5l-47.9-231.3" stroke="#005bbb63"/><path d="M100-162.5l167.2-166.8" stroke="#c2e1ff65"/><path d="M100-162.5l-175.8-157.3" stroke="#005bbb66"/><path d="M100-162.5l-136-192.7" stroke="#c2e1ff66"/><path d="M100-162.5l83.6-220.5" stroke="#c2e1ff66"/><path d="M100-162.5l46.9 231.1" stroke="#fff50066"/><path d="M100-162.5l40.3 232.3" stroke="#fff50067"/><path d="M100-162.5l-215.9 94.5" stroke="#c2e1ff67"/><path d="M100-162.5l193.7-134.2" stroke="#c2e1ff67"/><path d="M100-162.5l139.4 189.7" stroke="#fff68"/><path d="M100-162.5l-233.6 26.8" stroke="#fff50068"/><path d="M100-162.5l129.9 196" stroke="#fff50068"/><path d="M100-162.5l-213.2-98.5" stroke="#fff69"/><path d="M100-162.5l-228.4-52.6" stroke="#fff5006A"/><path d="M100-162.5l-149 180.6" stroke="#c2e1ff6A"/><path d="M100-162.5l231.5 33.4" stroke="#005bbb6B"/><path d="M100-162.5l-12.2-233.4" stroke="#fff6B"/><path d="M100-162.5l-132.3 192" stroke="#c2e1ff6C"/><path d="M100-162.5l-83.9 216.9" stroke="#c2e1ff6C"/><path d="M100-162.5l83.8 216.9" stroke="#fff5006C"/><path d="M100-162.5l203.8 111.1" stroke="#fff5006D"/><path d="M100-162.5l-141.7-183" stroke="#fff6E"/><path d="M100-162.5l226.2-48.8" stroke="#fff5006E"/><path d="M100-162.5l-222.3-63.8" stroke="#c2e1ff6E"/><path d="M100-162.5l-202.1-110.3" stroke="#fff5006F"/><path d="M100-162.5l133.9-187.1" stroke="#fff6F"/><path d="M100-162.5l213.6-84.5" stroke="#005bbb6F"/><path d="M100-162.5l-228.8-4.7" stroke="#005bbb70"/><path d="M100-162.5l227.8-16.7" stroke="#fff70"/><path d="M100-162.5l-167.9-150.2" stroke="#fff73"/><path d="M100-162.5l190.4 110.9" stroke="#005bbb76"/><path d="M100-162.5l197.9 94.9" stroke="#fff50076"/><path d="M100-162.5l151.2-158.2" stroke="#fff50076"/><path d="M100-162.5l211.7 55.3" stroke="#005bbb76"/><path d="M100-162.5l-60.7-210.1" stroke="#fff50076"/><path d="M100-162.5l215.5 29" stroke="#c2e1ff77"/><path d="M100-162.5l79-200.3" stroke="#c2e1ff78"/><path d="M100-162.5l203.7-68.2" stroke="#fff78"/><path d="M100-162.5l188.9-101.1" stroke="#005bbb79"/><path d="M100-162.5l164.2 135.3" stroke="#fff79"/><path d="M100-162.5l166.2 132" stroke="#005bbb79"/><path d="M100-162.5l33.1 208.2" stroke="#005bbb7A"/><path d="M100-162.5l-129.7 165.5" stroke="#c2e1ff7A"/><path d="M100-162.5l-209.6 12.9" stroke="#c2e1ff7A"/><path d="M100-162.5l202-56.1" stroke="#c2e1ff7B"/><path d="M100-162.5l192.4 83" stroke="#fff7B"/><path d="M100-162.5l22.1-206.4" stroke="#fff7B"/><path d="M100-162.5l206.9 14.3" stroke="#c2e1ff7B"/><path d="M100-162.5l-123.5 165.6" stroke="#fff7C"/><path d="M100-162.5l145.3-141.3" stroke="#fff5007D"/><path d="M100-162.5l201 0" stroke="#fff5007E"/><path d="M100-162.5l-199.8-5.2" stroke="#c2e1ff7E"/><path d="M100-162.5l-100.8 169.8" stroke="#c2e1ff7F"/><path d="M100-162.5l-33.8 193.4" stroke="#fff5007F"/><path d="M100-162.5l121.1-149.6" stroke="#c2e1ff80"/><path d="M100-162.5l-47.6 182.8" stroke="#fff82"/><path d="M100-162.5l183.6 34.3" stroke="#fff82"/><path d="M100-162.5l-44.8 180" stroke="#fff82"/><path d="M100-162.5l34.5 181.5" stroke="#005bbb83"/><path d="M100-162.5l43.2-177.8" stroke="#fff50083"/><path d="M100-162.5l-150.9-91.3" stroke="#c2e1ff85"/><path d="M100-162.5l146.8-96.3" stroke="#fff50085"/><path d="M100-162.5l124.6-116.7" stroke="#c2e1ff86"/><path d="M100-162.5l-117.3 123.6" stroke="#fff50086"/><path d="M100-162.5l-146.1 83.5" stroke="#005bbb87"/><path d="M100-162.5l-67.1-150.5" stroke="#fff50087"/><path d="M100-162.5l-49.1 155.8" stroke="#c2e1ff88"/><path d="M100-162.5l138.8 83.7" stroke="#fff88"/><path d="M100-162.5l159.2-19.1" stroke="#fff50088"/><path d="M100-162.5l-138.6 66.3" stroke="#fff89"/><path d="M100-162.5l101.2-106.9" stroke="#005bbb8B"/><path d="M100-162.5l-140.7 26" stroke="#fff8B"/><path d="M100-162.5l142.5 2.1" stroke="#fff8B"/><path d="M100-162.5l13.9-141.6" stroke="#005bbb8B"/><path d="M100-162.5l-91.4-104.7" stroke="#005bbb8C"/><path d="M100-162.5l64.2-120.2" stroke="#005bbb8C"/><path d="M100-162.5l-78.9-108.8" stroke="#fff8D"/><path d="M100-162.5l-85.4-102.4" stroke="#fff8D"/><path d="M100-162.5l-130 1.1" stroke="#fff5008D"/><path d="M100-162.5l-121.8 30.2" stroke="#005bbb8E"/><path d="M100-162.5l96.6 62.1" stroke="#fff8F"/><path d="M100-162.5l38.6-105.8" stroke="#c2e1ff8F"/><path d="M100-162.5l-40.8 94.2" stroke="#fff50091"/><path d="M100-162.5l83-47.4" stroke="#fff91"/><path d="M100-162.5l-44.7-67.8" stroke="#fff50092"/><path d="M100-162.5l75.5-20.5" stroke="#fff93"/><path d="M100-162.5l14.2 66.5" stroke="#005bbb93"/><path d="M100-162.5l-64.7-18.8" stroke="#c2e1ff93"/><path d="M100-162.5l-8.9-58.3" stroke="#fff50094"/><path d="M100-162.5l32.4-47.8" stroke="#fff94"/></g><g class="sparcs"><path d="M134.5-170.5a5.9 5.9 0 1 1 0-11.8 5.9 5.9 0 0 1 0 11.8" fill="#c2e1ff7D"/><path d="M80.7-95.4a6 6 0 1 1 0-12 6 6 0 0 1 0 12" fill="#c2e1ff7F"/><path d="M180.4-130.1a6.1 6.1 0 1 1 0-12.2 6.1 6.1 0 0 1 0 12.2" fill="#fff81"/><path d="M93.7-67.6a6.1 6.1 0 1 1 0-12.2 6.1 6.1 0 0 1 0 12.2" fill="#c2e1ff81"/><path d="M187.6-137.8a6.1 6.1 0 1 1 0-12.2 6.1 6.1 0 0 1 0 12.2" fill="#c2e1ff81"/><path d="M172.5-95.1a6.2 6.2 0 1 1 0-12.3 6.2 6.2 0 0 1 0 12.3" fill="#fff50082"/><path d="M19.9-101.7a6.2 6.2 0 1 1 0-12.3 6.2 6.2 0 0 1 0 12.3" fill="#fff82"/><path d="M69-248.3a6.2 6.2 0 1 1 0-12.3 6.2 6.2 0 0 1 0 12.3" fill="#005bbb82"/><path d="M170-82.5a6.2 6.2 0 1 1 0-12.4 6.2 6.2 0 0 1 0 12.4" fill="#fff50083"/><path d="M171.8-229.9a6.2 6.2 0 1 1 0-12.4 6.2 6.2 0 0 1 0 12.4" fill="#005bbb83"/><path d="M103.5-52.2a6.2 6.2 0 1 1 0-12.4 6.2 6.2 0 0 1 0 12.4" fill="#c2e1ff83"/><path d="M101.2-51.8a6.2 6.2 0 1 1 0-12.5 6.2 6.2 0 0 1 0 12.5" fill="#c2e1ff83"/><path d="M189.8-216.1a6.2 6.2 0 1 1 0-12.4 6.2 6.2 0 0 1 0 12.4" fill="#c2e1ff84"/><path d="M-1.7-198.7a6.2 6.2 0 1 1 0-12.5 6.2 6.2 0 0 1 0 12.5" fill="#c2e1ff84"/><path d="M-9.4-190.3a6.3 6.3 0 1 1 0-12.5 6.3 6.3 0 0 1 0 12.5" fill="#fff85"/><path d="M-23.6-156a6.3 6.3 0 1 1 0-12.7 6.3 6.3 0 0 1 0 12.7" fill="#fff86"/><path d="M202.5-231.4a6.4 6.4 0 1 1 0-12.7 6.4 6.4 0 0 1 0 12.7" fill="#c2e1ff87"/><path d="M2.5-240.7a6.4 6.4 0 1 1 0-12.7 6.4 6.4 0 0 1 0 12.7" fill="#fff50087"/><path d="M-14.3-223.9a6.4 6.4 0 1 1 0-12.8 6.4 6.4 0 0 1 0 12.8" fill="#c2e1ff88"/><path d="M48.1-283.1a6.5 6.5 0 1 1 0-13 6.5 6.5 0 0 1 0 13" fill="#fff50089"/><path d="M241.3-137.5a6.5 6.5 0 1 1 0-13 6.5 6.5 0 0 1 0 13" fill="#fff8A"/><path d="M58.9-13.9a6.6 6.6 0 1 1 0-13.1 6.6 6.6 0 0 1 0 13.1" fill="#c2e1ff8B"/><path d="M147.5-15.4a6.6 6.6 0 1 1 0-13.1 6.6 6.6 0 0 1 0 13.1" fill="#fff8B"/><path d="M156-16.3a6.6 6.6 0 1 1 0-13.2 6.6 6.6 0 0 1 0 13.2" fill="#fff8B"/><path d="M165.3-19.7a6.6 6.6 0 1 1 0-13.2 6.6 6.6 0 0 1 0 13.2" fill="#fff8C"/><path d="M13.4-29.5a6.6 6.6 0 1 1 0-13.3 6.6 6.6 0 0 1 0 13.3" fill="#fff8C"/><path d="M95.9-310.3a6.6 6.6 0 1 1 0-13.3 6.6 6.6 0 0 1 0 13.3" fill="#fff5008C"/><path d="M-21.2-253.6a6.6 6.6 0 1 1 0-13.3 6.6 6.6 0 0 1 0 13.3" fill="#005bbb8D"/><path d="M248.1-207.4a6.7 6.7 0 1 1 0-13.3 6.7 6.7 0 0 1 0 13.3" fill="#fff5008D"/><path d="M-31.8-243.6a6.7 6.7 0 1 1 0-13.4 6.7 6.7 0 0 1 0 13.4" fill="#fff8D"/><path d="M206.2-33.9a6.7 6.7 0 1 1 0-13.4 6.7 6.7 0 0 1 0 13.4" fill="#005bbb8E"/><path d="M-61.9-138.5a6.7 6.7 0 1 1 0-13.4 6.7 6.7 0 0 1 0 13.4" fill="#fff5008E"/><path d="M229-255.8a6.7 6.7 0 1 1 0-13.5 6.7 6.7 0 0 1 0 13.5" fill="#005bbb8F"/><path d="M23.3-9.6a6.7 6.7 0 1 1 0-13.4 6.7 6.7 0 0 1 0 13.4" fill="#005bbb8F"/><path d="M148.5 4.7a6.8 6.8 0 1 1 0-13.5 6.8 6.8 0 0 1 0 13.5" fill="#c2e1ff90"/><path d="M-66.5-181.9a6.8 6.8 0 1 1 0-13.5 6.8 6.8 0 0 1 0 13.5" fill="#c2e1ff90"/><path d="M-61.2-209.4a6.8 6.8 0 1 1 0-13.6 6.8 6.8 0 0 1 0 13.6" fill="#005bbb90"/><path d="M268.7-207.6a6.9 6.9 0 1 1 0-13.7 6.9 6.9 0 0 1 0 13.7" fill="#005bbb92"/><path d="M275.3-123a6.9 6.9 0 1 1 0-13.9 6.9 6.9 0 0 1 0 13.9" fill="#fff93"/><path d="M47 21.3a7 7 0 1 1 0-14 7 7 0 0 1 0 14" fill="#fff95"/><path d="M42.5-331.8a7 7 0 1 1 0-14 7 7 0 0 1 0 14" fill="#fff95"/><path d="M159.9 21.9a7.1 7.1 0 1 1 0-14.1 7.1 7.1 0 0 1 0 14.1" fill="#005bbb96"/><path d="M172.3-330.6a7.1 7.1 0 1 1 0-14.2 7.1 7.1 0 0 1 0 14.2" fill="#fff50097"/><path d="M286-215a7.2 7.2 0 1 1 0-14.4 7.2 7.2 0 0 1 0 14.4" fill="#fff99"/><path d="M130.7 38a7.2 7.2 0 1 1 0-14.4 7.2 7.2 0 0 1 0 14.4" fill="#c2e1ff99"/><path d="M17.2-332.7a7.2 7.2 0 1 1 0-14.5 7.2 7.2 0 0 1 0 14.5" fill="#fff50099"/><path d="M-26.1-308.2a7.3 7.3 0 1 1 0-14.5 7.3 7.3 0 0 1 0 14.5" fill="#fff5009A"/><path d="M175.4 28.1a7.3 7.3 0 1 1 0-14.5 7.3 7.3 0 0 1 0 14.5" fill="#005bbb9A"/><path d="M292.7-204.3a7.3 7.3 0 1 1 0-14.5 7.3 7.3 0 0 1 0 14.5" fill="#c2e1ff9A"/><path d="M139.7 40.9a7.3 7.3 0 1 1 0-14.5 7.3 7.3 0 0 1 0 14.5" fill="#fff5009B"/><path d="M50.1-349.1a7.3 7.3 0 1 1 0-14.5 7.3 7.3 0 0 1 0 14.5" fill="#005bbb9B"/><path d="M20.5-343.5a7.4 7.4 0 1 1 0-14.8 7.4 7.4 0 0 1 0 14.8" fill="#fff9D"/><path d="M285.5-241.9a7.4 7.4 0 1 1 0-14.7 7.4 7.4 0 0 1 0 14.7" fill="#c2e1ff9D"/><path d="M-32.4 4.1a7.4 7.4 0 1 1 0-14.8 7.4 7.4 0 0 1 0 14.8" fill="#005bbb9E"/><path d="M298.9-213.6a7.4 7.4 0 1 1 0-14.9 7.4 7.4 0 0 1 0 14.9" fill="#005bbb9E"/><path d="M193.8-340.1a7.4 7.4 0 1 1 0-14.9 7.4 7.4 0 0 1 0 14.9" fill="#fff9E"/><path d="M-66.4-281.4a7.5 7.5 0 1 1 0-14.9 7.5 7.5 0 0 1 0 14.9" fill="#c2e1ff9F"/><path d="M234.1 5.7a7.5 7.5 0 1 1 0-14.9 7.5 7.5 0 0 1 0 14.9" fill="#fff5009F"/><path d="M202.1-339.1a7.5 7.5 0 1 1 0-15 7.5 7.5 0 0 1 0 15" fill="#fffA0"/><path d="M295.4-69.5a7.6 7.6 0 1 1 0-15.2 7.6 7.6 0 0 1 0 15.2" fill="#c2e1ffA2"/><path d="M-41-315a7.6 7.6 0 1 1 0-15.2 7.6 7.6 0 0 1 0 15.2" fill="#fffA2"/><path d="M175.9-356.1a7.6 7.6 0 1 1 0-15.3 7.6 7.6 0 0 1 0 15.3" fill="#c2e1ffA3"/><path d="M-114.1-178.2a7.6 7.6 0 1 1 0-15.3 7.6 7.6 0 0 1 0 15.3" fill="#fffA3"/><path d="M131.1 59.5a7.7 7.7 0 1 1 0-15.3 7.7 7.7 0 0 1 0 15.3" fill="#fff500A4"/><path d="M73.5 63.6a7.8 7.8 0 1 1 0-15.6 7.8 7.8 0 0 1 0 15.6" fill="#c2e1ffA6"/><path d="M320.5-160.1a7.8 7.8 0 1 1 0-15.6 7.8 7.8 0 0 1 0 15.6" fill="#005bbbA6"/><path d="M66.5-374a7.8 7.8 0 1 1 0-15.6 7.8 7.8 0 0 1 0 15.6" fill="#c2e1ffA7"/><path d="M-122-144.6a7.9 7.9 0 1 1 0-15.8 7.9 7.9 0 0 1 0 15.8" fill="#c2e1ffA7"/><path d="M231.6-336.7a7.9 7.9 0 1 1 0-15.9 7.9 7.9 0 0 1 0 15.9" fill="#005bbbA9"/><path d="M319.1-97.7a8 8 0 1 1 0-16 8 8 0 0 1 0 16" fill="#c2e1ffAB"/><path d="M-15.7-349.1a8 8 0 1 1 0-16 8 8 0 0 1 0 16" fill="#005bbbAB"/><path d="M13.3 54.9a8 8 0 1 1 0-16 8 8 0 0 1 0 16" fill="#c2e1ffAB"/><path d="M182.5 57.3a8.1 8.1 0 1 1 0-16.1 8.1 8.1 0 0 1 0 16.1" fill="#fffAC"/><path d="M290.8-279.8a8.1 8.1 0 1 1 0-16.2 8.1 8.1 0 0 1 0 16.2" fill="#fffAD"/><path d="M328.3-155.7a8.1 8.1 0 1 1 0-16.2 8.1 8.1 0 0 1 0 16.2" fill="#fffAD"/><path d="M-42-335.7a8.2 8.2 0 1 1 0-16.4 8.2 8.2 0 0 1 0 16.4" fill="#fffAF"/><path d="M309.1-51.6a8.4 8.4 0 1 1 0-16.7 8.4 8.4 0 0 1 0 16.7" fill="#c2e1ffB3"/><path d="M185.9-370.7a8.4 8.4 0 1 1 0-16.8 8.4 8.4 0 0 1 0 16.8" fill="#fff500B3"/><path d="M-58.2 17.4a8.4 8.4 0 1 1 0-16.8 8.4 8.4 0 0 1 0 16.8" fill="#fff500B3"/><path d="M-73.8 2.2a8.4 8.4 0 1 1 0-16.8 8.4 8.4 0 0 1 0 16.8" fill="#005bbbB4"/><path d="M191.4-369.5a8.5 8.5 0 1 1 0-16.9 8.5 8.5 0 0 1 0 16.9" fill="#fffB5"/><path d="M280.8-4.5a8.5 8.5 0 1 1 0-17 8.5 8.5 0 0 1 0 17" fill="#c2e1ffB6"/><path d="M159.6 73.4a8.6 8.6 0 1 1 0-17.1 8.6 8.6 0 0 1 0 17.1" fill="#c2e1ffB7"/><path d="M-51.7-333.7a8.6 8.6 0 1 1 0-17.1 8.6 8.6 0 0 1 0 17.1" fill="#005bbbB7"/><path d="M334.4-133.3a8.6 8.6 0 1 1 0-17.2 8.6 8.6 0 0 1 0 17.2" fill="#005bbbB8"/><path d="M-64.9 14.7a8.7 8.7 0 1 1 0-17.3 8.7 8.7 0 0 1 0 17.3" fill="#fff500B9"/><path d="M-6.6 56.7a8.7 8.7 0 1 1 0-17.4 8.7 8.7 0 0 1 0 17.4" fill="#005bbbBA"/><path d="M227.5-352.5a8.8 8.8 0 1 1 0-17.5 8.8 8.8 0 0 1 0 17.5" fill="#005bbbBB"/><path d="M14.9-374a8.8 8.8 0 1 1 0-17.6 8.8 8.8 0 0 1 0 17.6" fill="#005bbbBC"/><path d="M-47.4 30.8a8.8 8.8 0 1 1 0-17.6 8.8 8.8 0 0 1 0 17.6" fill="#c2e1ffBC"/><path d="M178.5-376.5a8.8 8.8 0 1 1 0-17.6 8.8 8.8 0 0 1 0 17.6" fill="#fffBC"/><path d="M52.1-385a8.8 8.8 0 1 1 0-17.6 8.8 8.8 0 0 1 0 17.6" fill="#fff500BD"/><path d="M267.2-320.4a8.9 8.9 0 1 1 0-17.9 8.9 8.9 0 0 1 0 17.9" fill="#c2e1ffBF"/><path d="M-75.8-310.8a9 9 0 1 1 0-18 9 9 0 0 1 0 18" fill="#c2e1ffC1"/><path d="M-36-346.2a9 9 0 1 1 0-18 9 9 0 0 1 0 18" fill="#fffC1"/><path d="M183.6-374a9 9 0 1 1 0-18.1 9 9 0 0 1 0 18.1" fill="#fffC1"/><path d="M146.9 77.7a9 9 0 1 1 0-18.1 9 9 0 0 1 0 18.1" fill="#fff500C1"/><path d="M140.3 78.8a9.1 9.1 0 1 1 0-18.1 9.1 9.1 0 0 1 0 18.1" fill="#fffC2"/><path d="M-115.9-59a9.1 9.1 0 1 1 0-18.1 9.1 9.1 0 0 1 0 18.1" fill="#fffC2"/><path d="M293.7-287.6a9.1 9.1 0 1 1 0-18.2 9.1 9.1 0 0 1 0 18.2" fill="#005bbbC2"/><path d="M239.4 36.3a9.1 9.1 0 1 1 0-18.3 9.1 9.1 0 0 1 0 18.3" fill="#c2e1ffC3"/><path d="M-133.6-126.6a9.1 9.1 0 1 1 0-18.3 9.1 9.1 0 0 1 0 18.3" fill="#005bbbC4"/><path d="M229.9 42.6a9.2 9.2 0 1 1 0-18.3 9.2 9.2 0 0 1 0 18.3" fill="#005bbbC4"/><path d="M-113.2-251.8a9.2 9.2 0 1 1 0-18.4 9.2 9.2 0 0 1 0 18.4" fill="#005bbbC5"/><path d="M-128.4-205.8a9.2 9.2 0 1 1 0-18.5 9.2 9.2 0 0 1 0 18.5" fill="#005bbbC6"/><path d="M-49 27.4a9.3 9.3 0 1 1 0-18.5 9.3 9.3 0 0 1 0 18.5" fill="#005bbbC6"/><path d="M331.5-119.8a9.3 9.3 0 1 1 0-18.6 9.3 9.3 0 0 1 0 18.6" fill="#c2e1ffC7"/><path d="M87.8-386.7a9.3 9.3 0 1 1 0-18.5 9.3 9.3 0 0 1 0 18.5" fill="#fff500C7"/><path d="M-32.3 38.8a9.3 9.3 0 1 1 0-18.7 9.3 9.3 0 0 1 0 18.7" fill="#fff500C8"/><path d="M16.1 63.8a9.4 9.4 0 1 1 0-18.8 9.4 9.4 0 0 1 0 18.8" fill="#005bbbC9"/><path d="M183.8 63.8a9.4 9.4 0 1 1 0-18.7 9.4 9.4 0 0 1 0 18.7" fill="#fffC9"/><path d="M303.8-42a9.4 9.4 0 1 1 0-18.9 9.4 9.4 0 0 1 0 18.9" fill="#fffCA"/><path d="M-41.7-336a9.5 9.5 0 1 1 0-18.9 9.5 9.5 0 0 1 0 18.9" fill="#fff500CB"/><path d="M326.2-201.8a9.5 9.5 0 1 1 0-18.9 9.5 9.5 0 0 1 0 18.9" fill="#fff500CB"/><path d="M-122.3-216.8a9.5 9.5 0 1 1 0-18.9 9.5 9.5 0 0 1 0 18.9" fill="#fff500CB"/><path d="M-102.1-263.3a9.5 9.5 0 1 1 0-19.1 9.5 9.5 0 0 1 0 19.1" fill="#c2e1ffCC"/><path d="M233.9-340.1a9.5 9.5 0 1 1 0-19 9.5 9.5 0 0 1 0 19" fill="#fff500CC"/><path d="M313.6-237.5a9.5 9.5 0 1 1 0-19.1 9.5 9.5 0 0 1 0 19.1" fill="#fffCD"/><path d="M-128.8-157.6a9.6 9.6 0 1 1 0-19.2 9.6 9.6 0 0 1 0 19.2" fill="#005bbbCE"/><path d="M327.8-169.6a9.6 9.6 0 1 1 0-19.2 9.6 9.6 0 0 1 0 19.2" fill="#fffCE"/><path d="M-67.9-303a9.7 9.7 0 1 1 0-19.5 9.7 9.7 0 0 1 0 19.5" fill="#005bbbD1"/><path d="M290.4-41.6a9.9 9.9 0 1 1 0-19.9 9.9 9.9 0 0 1 0 19.9" fill="#c2e1ffD5"/><path d="M297.9-57.7a10 10 0 1 1 0-19.9 10 10 0 0 1 0 19.9" fill="#fffD6"/><path d="M251.2-310.7a10 10 0 1 1 0-20 10 10 0 0 1 0 20" fill="#fff500D6"/><path d="M311.7-97.2a10 10 0 1 1 0-20 10 10 0 0 1 0 20" fill="#c2e1ffD6"/><path d="M39.3-362.7a10 10 0 1 1 0-19.9 10 10 0 0 1 0 19.9" fill="#005bbbD6"/><path d="M315.5-123.5a10 10 0 1 1 0-20.1 10 10 0 0 1 0 20.1" fill="#fffD7"/><path d="M179-352.7a10.1 10.1 0 1 1 0-20.1 10.1 10.1 0 0 1 0 20.1" fill="#005bbbD8"/><path d="M303.7-220.6a10.1 10.1 0 1 1 0-20.2 10.1 10.1 0 0 1 0 20.2" fill="#005bbbD9"/><path d="M288.9-253.5a10.1 10.1 0 1 1 0-20.2 10.1 10.1 0 0 1 0 20.2" fill="#fffD9"/><path d="M264.2-17.1a10.1 10.1 0 1 1 0-20.3 10.1 10.1 0 0 1 0 20.3" fill="#fff500DA"/><path d="M266.2-20.3a10.2 10.2 0 1 1 0-20.3 10.2 10.2 0 0 1 0 20.3" fill="#005bbbDA"/><path d="M133.1 55.9a10.2 10.2 0 1 1 0-20.4 10.2 10.2 0 0 1 0 20.4" fill="#c2e1ffDB"/><path d="M-29.7 13.2a10.2 10.2 0 1 1 0-20.4 10.2 10.2 0 0 1 0 20.4" fill="#005bbbDB"/><path d="M-109.6-139.4a10.2 10.2 0 1 1 0-20.4 10.2 10.2 0 0 1 0 20.4" fill="#c2e1ffDB"/><path d="M302-208.4a10.2 10.2 0 1 1 0-20.4 10.2 10.2 0 0 1 0 20.4" fill="#005bbbDB"/><path d="M292.4-69.3a10.2 10.2 0 1 1 0-20.4 10.2 10.2 0 0 1 0 20.4" fill="#fff500DC"/><path d="M122.1-358.7a10.3 10.3 0 1 1 0-20.5 10.3 10.3 0 0 1 0 20.5" fill="#fff500DD"/><path d="M306.9-138a10.3 10.3 0 1 1 0-20.5 10.3 10.3 0 0 1 0 20.5" fill="#fffDD"/><path d="M-23.5 13.4a10.3 10.3 0 1 1 0-20.6 10.3 10.3 0 0 1 0 20.6" fill="#c2e1ffDD"/><path d="M245.3-293.4a10.4 10.4 0 1 1 0-20.7 10.4 10.4 0 0 1 0 20.7" fill="#c2e1ffDF"/><path d="M301-152.1a10.4 10.4 0 1 1 0-20.8 10.4 10.4 0 0 1 0 20.8" fill="#c2e1ffE0"/><path d="M-99.8-157.3a10.4 10.4 0 1 1 0-20.9 10.4 10.4 0 0 1 0 20.9" fill="#005bbbE0"/><path d="M-0.8 17.8a10.5 10.5 0 1 1 0-21 10.5 10.5 0 0 1 0 21" fill="#005bbbE1"/><path d="M66.2 41.4a10.5 10.5 0 1 1 0-21 10.5 10.5 0 0 1 0 21" fill="#c2e1ffE2"/><path d="M221.1-301.6a10.6 10.6 0 1 1 0-21.1 10.6 10.6 0 0 1 0 21.1" fill="#005bbbE3"/><path d="M52.4 30.9a10.6 10.6 0 1 1 0-21.2 10.6 10.6 0 0 1 0 21.2" fill="#fff500E5"/><path d="M283.6-117.5a10.7 10.7 0 1 1 0-21.3 10.7 10.7 0 0 1 0 21.3" fill="#c2e1ffE5"/><path d="M55.2 28.2a10.7 10.7 0 1 1 0-21.3 10.7 10.7 0 0 1 0 21.3" fill="#fffE6"/><path d="M134.5 29.7a10.7 10.7 0 1 1 0-21.4 10.7 10.7 0 0 1 0 21.4" fill="#fff500E6"/><path d="M143.2-329.6a10.7 10.7 0 1 1 0-21.4 10.7 10.7 0 0 1 0 21.4" fill="#fffE7"/><path d="M-50.9-243a10.8 10.8 0 1 1 0-21.7 10.8 10.8 0 0 1 0 21.7" fill="#fff500E9"/><path d="M246.8-248a10.8 10.8 0 1 1 0-21.6 10.8 10.8 0 0 1 0 21.6" fill="#fff500E9"/><path d="M224.6-268.3a10.9 10.9 0 1 1 0-21.8 10.9 10.9 0 0 1 0 21.8" fill="#fffEA"/><path d="M-17.3-28a10.9 10.9 0 1 1 0-21.8 10.9 10.9 0 0 1 0 21.8" fill="#c2e1ffEB"/><path d="M-46.1-68.1a10.9 10.9 0 1 1 0-21.8 10.9 10.9 0 0 1 0 21.8" fill="#fff500EB"/><path d="M32.9-302.1a11 11 0 1 1 0-21.9 11 11 0 0 1 0 21.9" fill="#005bbbEC"/><path d="M50.9 4.2a11 11 0 1 1 0-21.9 11 11 0 0 1 0 21.9" fill="#005bbbEC"/><path d="M238.8-67.8a11 11 0 1 1 0-22 11 11 0 0 1 0 22" fill="#fff500ED"/><path d="M259.2-170.5a11 11 0 1 1 0-22.1 11 11 0 0 1 0 22.1" fill="#c2e1ffED"/><path d="M-38.6-85.1a11.1 11.1 0 1 1 0-22.2 11.1 11.1 0 0 1 0 22.2" fill="#fff500EF"/><path d="M201.2-258.2a11.2 11.2 0 1 1 0-22.4 11.2 11.2 0 0 1 0 22.4" fill="#005bbbF0"/><path d="M-40.7-125.3a11.2 11.2 0 1 1 0-22.4 11.2 11.2 0 0 1 0 22.4" fill="#c2e1ffF1"/><path d="M242.5-149.2a11.2 11.2 0 1 1 0-22.4 11.2 11.2 0 0 1 0 22.4" fill="#c2e1ffF1"/><path d="M113.9-292.9a11.2 11.2 0 1 1 0-22.4 11.2 11.2 0 0 1 0 22.4" fill="#c2e1ffF1"/><path d="M8.6-255.9a11.2 11.2 0 1 1 0-22.5 11.2 11.2 0 0 1 0 22.5" fill="#fffF2"/><path d="M164.2-271.4a11.3 11.3 0 1 1 0-22.6 11.3 11.3 0 0 1 0 22.6" fill="#fff500F3"/><path d="M21.1-260a11.3 11.3 0 1 1 0-22.6 11.3 11.3 0 0 1 0 22.6" fill="#c2e1ffF3"/><path d="M14.6-253.6a11.3 11.3 0 1 1 0-22.6 11.3 11.3 0 0 1 0 22.6" fill="#c2e1ffF3"/><path d="M-30-150a11.3 11.3 0 1 1 0-22.7 11.3 11.3 0 0 1 0 22.7" fill="#fffF4"/><path d="M-21.8-121a11.4 11.4 0 1 1 0-22.7 11.4 11.4 0 0 1 0 22.7" fill="#005bbbF5"/><path d="M196.6-89a11.4 11.4 0 1 1 0-22.9 11.4 11.4 0 0 1 0 22.9" fill="#c2e1ffF6"/><path d="M138.6-256.9a11.5 11.5 0 1 1 0-22.9 11.5 11.5 0 0 1 0 22.9" fill="#fffF7"/><path d="M59.2-56.8a11.5 11.5 0 1 1 0-23 11.5 11.5 0 0 1 0 23" fill="#c2e1ffF8"/><path d="M183-198.3a11.6 11.6 0 1 1 0-23.2 11.6 11.6 0 0 1 0 23.2" fill="#c2e1ffF9"/><path d="M55.3-218.7a11.6 11.6 0 1 1 0-23.2 11.6 11.6 0 0 1 0 23.2" fill="#fff500FB"/><path d="M175.5-171.3a11.6 11.6 0 1 1 0-23.3 11.6 11.6 0 0 1 0 23.3" fill="#fffFB"/><path d="M114.2-84.3a11.7 11.7 0 1 1 0-23.3 11.7 11.7 0 0 1 0 23.3" fill="#fff500FC"/><path d="M35.3-169.6a11.7 11.7 0 1 1 0-23.4 11.7 11.7 0 0 1 0 23.4" fill="#005bbbFC"/><path d="M91.1-209.1a11.7 11.7 0 1 1 0-23.4 11.7 11.7 0 0 1 0 23.4" fill="#fffFC"/><path d="M132.4-198.6a11.7 11.7 0 1 1 0-23.4 11.7 11.7 0 0 1 0 23.4" fill="#c2e1ffFD"/></g></svg>