<svg width="1200" height="675" viewBox="-500 -500 1200 675" xmlns="http://www.w3.org/2000/svg"><path d="M-500-500h1200v675h-1200z" fill="#000"/><style>.sparkles path{stroke-linecap:round; stroke-width:1}</style><g class="sparkles"><path d="M100-162.5l-71.4-13" stroke="#005bbb34"/><path d="M100-162.5l78.2-33.9" stroke="#fff35"/><path d="M100-162.5l76.3 38.4" stroke="#005bbb35"/><path d="M100-162.5l78.4 37.5" stroke="#005bbb35"/><path d="M100-162.5l60.7-64.8" stroke="#c2e1ff35"/><path d="M100-162.5l97.4 34.5" stroke="#005bbb37"/><path d="M100-162.5l44.5 99.4" stroke="#fff50037"/><path d="M100-162.5l13.1-110.1" stroke="#c2e1ff37"/><path d="M100-162.5l-115.3 11.3" stroke="#fff50038"/><path d="M100-162.5l-116.7 9.9" stroke="#fff38"/><path d="M100-162.5l120.2-59.7" stroke="#fff3A"/><path d="M100-162.5l-76 111.1" stroke="#fff3A"/><path d="M100-162.5l46.9 127" stroke="#005bbb3B"/><path d="M100-162.5l-133.1 39.6" stroke="#c2e1ff3B"/><path d="M100-162.5l131.9-45.7" stroke="#005bbb3B"/><path d="M100-162.5l-32.5-135.9" stroke="#c2e1ff3B"/><path d="M100-162.5l139.5-17.6" stroke="#fff5003B"/><path d="M100-162.5l135.2-45" stroke="#fff3C"/><path d="M100-162.5l-115.5 86.2" stroke="#005bbb3C"/><path d="M100-162.5l-139.5-59.9" stroke="#c2e1ff3D"/><path d="M100-162.5l-156.2-25.5" stroke="#c2e1ff3E"/><path d="M100-162.5l157.1 52.8" stroke="#c2e1ff40"/><path d="M100-162.5l145.6 80.6" stroke="#fff50040"/><path d="M100-162.5l135.3-97.8" stroke="#fff40"/><path d="M100-162.5l-24.3 165.2" stroke="#fff50040"/><path d="M100-162.5l-16.5 166.8" stroke="#fff40"/><path d="M100-162.5l-29.5-165.9" stroke="#fff40"/><path d="M100-162.5l87.6-144.8" stroke="#fff41"/><path d="M100-162.5l-167.5 46" stroke="#005bbb42"/><path d="M100-162.5l89.9 151.3" stroke="#fff50042"/><path d="M100-162.5l178.9 38.1" stroke="#c2e1ff44"/><path d="M100-162.5l123.8 137.8" stroke="#c2e1ff44"/><path d="M100-162.5l6.4-187.3" stroke="#fff45"/><path d="M100-162.5l150.2 116.6" stroke="#fff50046"/><path d="M100-162.5l189.7-20.2" stroke="#fff50046"/><path d="M100-162.5l-178.9-72.8" stroke="#fff50047"/><path d="M100-162.5l-106.2-165.1" stroke="#c2e1ff48"/><path d="M100-162.5l-175.5-93.2" stroke="#fff48"/><path d="M100-162.5l-23.6 197.9" stroke="#005bbb49"/><path d="M100-162.5l-100.6 174" stroke="#fff49"/><path d="M100-162.5l-199.2-43.4" stroke="#fff5004A"/><path d="M100-162.5l176-103.9" stroke="#fff4A"/><path d="M100-162.5l207.4 4.8" stroke="#c2e1ff4C"/><path d="M100-162.5l-67.3 201.9" stroke="#fff4E"/><path d="M100-162.5l78.6 197.8" stroke="#c2e1ff4E"/><path d="M100-162.5l-198.8-76.4" stroke="#fff5004E"/><path d="M100-162.5l-72.9-201.4" stroke="#c2e1ff4E"/><path d="M100-162.5l-31.5-212.7" stroke="#005bbb4F"/><path d="M100-162.5l13.1 216.7" stroke="#005bbb50"/><path d="M100-162.5l-217.2 2.5" stroke="#c2e1ff50"/><path d="M100-162.5l89.4-198.1" stroke="#c2e1ff50"/><path d="M100-162.5l-44-214.9" stroke="#fff51"/><path d="M100-162.5l60.1 211.5" stroke="#fff50051"/><path d="M100-162.5l220.4 3.9" stroke="#c2e1ff52"/><path d="M100-162.5l-191.2-112.4" stroke="#005bbb52"/><path d="M100-162.5l-68.9-211.5" stroke="#fff50053"/><path d="M100-162.5l-135.8-177.4" stroke="#fff53"/><path d="M100-162.5l-57.1 217.2" stroke="#fff50054"/><path d="M100-162.5l-4.1-225" stroke="#fff54"/><path d="M100-162.5l-56.7-218.3" stroke="#005bbb55"/><path d="M100-162.5l17.4-225.3" stroke="#fff55"/><path d="M100-162.5l155.3 165.2" stroke="#fff55"/><path d="M100-162.5l-21.7-226.5" stroke="#fff56"/><path d="M100-162.5l221.3-55.5" stroke="#005bbb57"/><path d="M100-162.5l222.2 58" stroke="#fff58"/><path d="M100-162.5l128.2 191.5" stroke="#fff50059"/><path d="M100-162.5l132.4-188.7" stroke="#fff59"/><path d="M100-162.5l-179.8 145.9" stroke="#005bbb5A"/><path d="M100-162.5l1.9 232" stroke="#c2e1ff5A"/><path d="M100-162.5l162.7-166" stroke="#fff5005B"/><path d="M100-162.5l-81.7 217.7" stroke="#fff5B"/><path d="M100-162.5l-227.3 54.2" stroke="#fff5005C"/><path d="M100-162.5l-19.8-233.4" stroke="#c2e1ff5D"/><path d="M100-162.5l0.4-234.8" stroke="#c2e1ff5E"/><path d="M100-162.5l33.7 232.6" stroke="#fff5005E"/><path d="M100-162.5l-80.7 221.1" stroke="#fff5005F"/><path d="M100-162.5l88.2-218.3" stroke="#005bbb5F"/><path d="M100-162.5l-126-199" stroke="#005bbb5F"/><path d="M100-162.5l-235.3 13" stroke="#fff50060"/><path d="M100-162.5l-164.1 169.4" stroke="#fff50060"/><path d="M100-162.5l22.3-235.1" stroke="#fff62"/><path d="M100-162.5l-134.4 194.2" stroke="#fff50062"/><path d="M100-162.5l-23 235.1" stroke="#fff50063"/><path d="M100-162.5l208.1-111.8" stroke="#c2e1ff64"/><path d="M100-162.5l-187.2-144.1" stroke="#fff50064"/><path d="M100-162.5l-236.2-3.6" stroke="#fff50064"/><path d="M100-162.5l-38.2-233.1" stroke="#005bbb64"/><path d="M100-162.5l146-185.7" stroke="#c2e1ff64"/><path d="M100-162.5l-133.4 194.9" stroke="#fff65"/><path d="M100-162.5l-52.2-230.2" stroke="#fff50066"/><path d="M100-162.5l-235.5-15" stroke="#fff50066"/><path d="M100-162.5l43 231.6" stroke="#fff67"/><path d="M100-162.5l-58.6 227.9" stroke="#c2e1ff68"/><path d="M100-162.5l221 80.5" stroke="#fff50068"/><path d="M100-162.5l-229.2 52.5" stroke="#c2e1ff68"/><path d="M100-162.5l-151.4-179.9" stroke="#fff68"/><path d="M100-162.5l195.2 130.6" stroke="#fff50069"/><path d="M100-162.5l231.1 41" stroke="#fff50069"/><path d="M100-162.5l-230.1 42.9" stroke="#c2e1ff6A"/><path d="M100-162.5l-200.9-119.3" stroke="#c2e1ff6B"/><path d="M100-162.5l-230.9-33.6" stroke="#fff5006B"/><path d="M100-162.5l-111.2-205" stroke="#fff6B"/><path d="M100-162.5l-70.8 221.9" stroke="#005bbb6C"/><path d="M100-162.5l16.7-231.9" stroke="#005bbb6C"/><path d="M100-162.5l-227.5 47.3" stroke="#fff6D"/><path d="M100-162.5l-74.9 219.9" stroke="#fff5006D"/><path d="M100-162.5l213.6 90" stroke="#fff5006D"/><path d="M100-162.5l-82.2-214.7" stroke="#c2e1ff6F"/><path d="M100-162.5l-228.8 21.9" stroke="#fff6F"/><path d="M100-162.5l79.3-215.4" stroke="#fff5006F"/><path d="M100-162.5l215.1-79.7" stroke="#fff6F"/><path d="M100-162.5l206.1 99.5" stroke="#005bbb70"/><path d="M100-162.5l76.7 215" stroke="#c2e1ff70"/><path d="M100-162.5l52.5-221.3" stroke="#c2e1ff71"/><path d="M100-162.5l-122.4 190.2" stroke="#005bbb72"/><path d="M100-162.5l-179.7 136.9" stroke="#fff50072"/><path d="M100-162.5l198.9 107" stroke="#fff50072"/><path d="M100-162.5l-207.8 88" stroke="#fff50072"/><path d="M100-162.5l-28.1-223.3" stroke="#fff73"/><path d="M100-162.5l154.5 162.2" stroke="#005bbb73"/><path d="M100-162.5l206.5 86.3" stroke="#005bbb74"/><path d="M100-162.5l223.2-0.2" stroke="#c2e1ff74"/><path d="M100-162.5l205.7-84.3" stroke="#c2e1ff74"/><path d="M100-162.5l221.4 16.3" stroke="#005bbb75"/><path d="M100-162.5l-173.4 137.7" stroke="#005bbb75"/><path d="M100-162.5l82.7 205.1" stroke="#005bbb75"/><path d="M100-162.5l216.9-28.8" stroke="#fff76"/><path d="M100-162.5l-56.7-211" stroke="#fff50077"/><path d="M100-162.5l-161.7 140.2" stroke="#fff79"/><path d="M100-162.5l-178.4 118" stroke="#fff79"/><path d="M100-162.5l-147.6 154.8" stroke="#fff50079"/><path d="M100-162.5l-193.7 87" stroke="#c2e1ff79"/><path d="M100-162.5l144.7 155.3" stroke="#005bbb79"/><path d="M100-162.5l-211.6-11" stroke="#005bbb7A"/><path d="M100-162.5l148.2-151.3" stroke="#fff5007A"/><path d="M100-162.5l131.9 163.6" stroke="#c2e1ff7A"/><path d="M100-162.5l-1.2 209.8" stroke="#005bbb7B"/><path d="M100-162.5l173.1-117.1" stroke="#c2e1ff7B"/><path d="M100-162.5l-170.9-119.8" stroke="#fff5007B"/><path d="M100-162.5l-19.8 207.8" stroke="#fff7B"/><path d="M100-162.5l-87.9 183.2" stroke="#c2e1ff7D"/><path d="M100-162.5l-68.7 191" stroke="#fff7D"/><path d="M100-162.5l25.4 194.8" stroke="#fff7F"/><path d="M100-162.5l113.4-158.1" stroke="#005bbb80"/><path d="M100-162.5l-192.1-27.6" stroke="#c2e1ff80"/><path d="M100-162.5l-164.5-101.4" stroke="#fff80"/><path d="M100-162.5l0.2 192.2" stroke="#005bbb81"/><path d="M100-162.5l-183-49.7" stroke="#fff50081"/><path d="M100-162.5l137.1-128.6" stroke="#005bbb82"/><path d="M100-162.5l-170.4-76.8" stroke="#fff82"/><path d="M100-162.5l-53.8-177.7" stroke="#005bbb82"/><path d="M100-162.5l-180.9-41.5" stroke="#005bbb82"/><path d="M100-162.5l141.7-119.6" stroke="#fff50082"/><path d="M100-162.5l-133.9 127.8" stroke="#fff50083"/><path d="M100-162.5l104.1-152.8" stroke="#fff83"/><path d="M100-162.5l139.5 117.3" stroke="#005bbb83"/><path d="M100-162.5l-177.4-39.9" stroke="#c2e1ff83"/><path d="M100-162.5l179.3 0" stroke="#fff84"/><path d="M100-162.5l-31.2 171.6" stroke="#fff85"/><path d="M100-162.5l166.4-47.7" stroke="#fff86"/><path d="M100-162.5l-92.7 143" stroke="#005bbb86"/><path d="M100-162.5l-57.3 159.4" stroke="#c2e1ff86"/><path d="M100-162.5l-67.8 149.9" stroke="#005bbb87"/><path d="M100-162.5l-130.2 87.4" stroke="#005bbb89"/><path d="M100-162.5l-13.9 148.1" stroke="#c2e1ff8A"/><path d="M100-162.5l72.7-129.7" stroke="#fff8A"/><path d="M100-162.5l-87.1-118.7" stroke="#005bbb8B"/><path d="M100-162.5l-78.9 119.3" stroke="#c2e1ff8B"/><path d="M100-162.5l138.2 12" stroke="#fff5008C"/><path d="M100-162.5l137.6-5.8" stroke="#c2e1ff8C"/><path d="M100-162.5l-114.4-75.4" stroke="#005bbb8C"/><path d="M100-162.5l-117.1 55.2" stroke="#fff5008D"/><path d="M100-162.5l-85 93.9" stroke="#005bbb8E"/><path d="M100-162.5l69.6 101.9" stroke="#c2e1ff8E"/><path d="M100-162.5l76.8-89.6" stroke="#fff5008F"/><path d="M100-162.5l27.2-97.1" stroke="#c2e1ff91"/><path d="M100-162.5l28.6 95.4" stroke="#c2e1ff91"/><path d="M100-162.5l88.5 19.7" stroke="#005bbb92"/><path d="M100-162.5l39.3-53.7" stroke="#c2e1ff93"/><path d="M100-162.5l-58.1 13.3" stroke="#005bbb94"/><path d="M100-162.5l-32.2-41" stroke="#fff94"/></g><g class="sparcs"><path d="M28.6-169.4a6 6 0 1 1 0-12.1 6 6 0 0 1 0 12.1" fill="#c2e1ff80"/><path d="M178.2-190.3a6.1 6.1 0 1 1 0-12.2 6.1 6.1 0 0 1 0 12.2" fill="#c2e1ff81"/><path d="M176.3-117.9a6.1 6.1 0 1 1 0-12.3 6.1 6.1 0 0 1 0 12.3" fill="#005bbb81"/><path d="M178.4-118.9a6.1 6.1 0 1 1 0-12.2 6.1 6.1 0 0 1 0 12.2" fill="#fff81"/><path d="M160.7-221.2a6.1 6.1 0 1 1 0-12.2 6.1 6.1 0 0 1 0 12.2" fill="#fff50081"/><path d="M197.4-121.8a6.2 6.2 0 1 1 0-12.4 6.2 6.2 0 0 1 0 12.4" fill="#fff50083"/><path d="M144.5-56.9a6.2 6.2 0 1 1 0-12.5 6.2 6.2 0 0 1 0 12.5" fill="#c2e1ff84"/><path d="M113.1-266.3a6.3 6.3 0 1 1 0-12.5 6.3 6.3 0 0 1 0 12.5" fill="#c2e1ff84"/><path d="M-15.3-144.9a6.3 6.3 0 1 1 0-12.6 6.3 6.3 0 0 1 0 12.6" fill="#005bbb85"/><path d="M-16.7-146.3a6.3 6.3 0 1 1 0-12.6 6.3 6.3 0 0 1 0 12.6" fill="#fff85"/><path d="M220.2-215.8a6.4 6.4 0 1 1 0-12.8 6.4 6.4 0 0 1 0 12.8" fill="#fff88"/><path d="M24-45a6.4 6.4 0 1 1 0-12.9 6.4 6.4 0 0 1 0 12.9" fill="#fff88"/><path d="M146.9-29a6.4 6.4 0 1 1 0-12.9 6.4 6.4 0 0 1 0 12.9" fill="#fff50088"/><path d="M-33.1-116.4a6.5 6.5 0 1 1 0-13 6.5 6.5 0 0 1 0 13" fill="#fff50089"/><path d="M231.9-201.7a6.5 6.5 0 1 1 0-13 6.5 6.5 0 0 1 0 13" fill="#fff50089"/><path d="M67.5-291.9a6.5 6.5 0 1 1 0-12.9 6.5 6.5 0 0 1 0 12.9" fill="#fff89"/><path d="M239.5-173.6a6.5 6.5 0 1 1 0-13 6.5 6.5 0 0 1 0 13" fill="#fff50089"/><path d="M235.2-201a6.5 6.5 0 1 1 0-13 6.5 6.5 0 0 1 0 13" fill="#c2e1ff8A"/><path d="M-15.5-69.8a6.5 6.5 0 1 1 0-13 6.5 6.5 0 0 1 0 13" fill="#fff8A"/><path d="M-39.5-215.8a6.6 6.6 0 1 1 0-13.2 6.6 6.6 0 0 1 0 13.2" fill="#fff5008C"/><path d="M-56.2-181.3a6.7 6.7 0 1 1 0-13.4 6.7 6.7 0 0 1 0 13.4" fill="#fff8D"/><path d="M257.1-103a6.8 6.8 0 1 1 0-13.5 6.8 6.8 0 0 1 0 13.5" fill="#fff5008F"/><path d="M245.6-75.1a6.8 6.8 0 1 1 0-13.6 6.8 6.8 0 0 1 0 13.6" fill="#c2e1ff8F"/><path d="M235.3-253.5a6.8 6.8 0 1 1 0-13.6 6.8 6.8 0 0 1 0 13.6" fill="#fff5008F"/><path d="M75.7 9.5a6.8 6.8 0 1 1 0-13.5 6.8 6.8 0 0 1 0 13.5" fill="#fff50090"/><path d="M83.5 11.1a6.8 6.8 0 1 1 0-13.6 6.8 6.8 0 0 1 0 13.6" fill="#005bbb90"/><path d="M70.5-321.6a6.8 6.8 0 1 1 0-13.6 6.8 6.8 0 0 1 0 13.6" fill="#005bbb90"/><path d="M187.6-300.5a6.8 6.8 0 1 1 0-13.6 6.8 6.8 0 0 1 0 13.6" fill="#fff90"/><path d="M-67.5-109.6a6.9 6.9 0 1 1 0-13.7 6.9 6.9 0 0 1 0 13.7" fill="#c2e1ff91"/><path d="M189.9-4.3a6.9 6.9 0 1 1 0-13.8 6.9 6.9 0 0 1 0 13.8" fill="#005bbb92"/><path d="M278.9-117.4a7 7 0 1 1 0-14 7 7 0 0 1 0 14" fill="#fff94"/><path d="M223.8-17.6a7 7 0 1 1 0-14.1 7 7 0 0 1 0 14.1" fill="#005bbb95"/><path d="M106.4-342.7a7.1 7.1 0 1 1 0-14.2 7.1 7.1 0 0 1 0 14.2" fill="#fff50096"/><path d="M250.2-38.7a7.1 7.1 0 1 1 0-14.3 7.1 7.1 0 0 1 0 14.3" fill="#c2e1ff97"/><path d="M289.7-175.6a7.1 7.1 0 1 1 0-14.2 7.1 7.1 0 0 1 0 14.2" fill="#fff50097"/><path d="M-78.9-228.1a7.2 7.2 0 1 1 0-14.3 7.2 7.2 0 0 1 0 14.3" fill="#fff50098"/><path d="M-6.2-320.3a7.2 7.2 0 1 1 0-14.5 7.2 7.2 0 0 1 0 14.5" fill="#c2e1ff99"/><path d="M-75.5-248.4a7.3 7.3 0 1 1 0-14.6 7.3 7.3 0 0 1 0 14.6" fill="#fff9A"/><path d="M76.4 42.6a7.3 7.3 0 1 1 0-14.5 7.3 7.3 0 0 1 0 14.5" fill="#fff5009B"/><path d="M-0.6 18.8a7.3 7.3 0 1 1 0-14.6 7.3 7.3 0 0 1 0 14.6" fill="#005bbb9B"/><path d="M-99.2-198.5a7.4 7.4 0 1 1 0-14.7 7.4 7.4 0 0 1 0 14.7" fill="#c2e1ff9D"/><path d="M276-259a7.4 7.4 0 1 1 0-14.7 7.4 7.4 0 0 1 0 14.7" fill="#fff9D"/><path d="M307.4-150.2a7.4 7.4 0 1 1 0-14.9 7.4 7.4 0 0 1 0 14.9" fill="#c2e1ff9E"/><path d="M32.7 46.9a7.6 7.6 0 1 1 0-15.1 7.6 7.6 0 0 1 0 15.1" fill="#fffA1"/><path d="M178.6 42.8a7.6 7.6 0 1 1 0-15.1 7.6 7.6 0 0 1 0 15.1" fill="#005bbbA1"/><path d="M-98.8-231.4a7.6 7.6 0 1 1 0-15.1 7.6 7.6 0 0 1 0 15.1" fill="#fff500A1"/><path d="M27.1-356.3a7.6 7.6 0 1 1 0-15.2 7.6 7.6 0 0 1 0 15.2" fill="#fffA2"/><path d="M68.5-367.6a7.6 7.6 0 1 1 0-15.2 7.6 7.6 0 0 1 0 15.2" fill="#fffA3"/><path d="M113.1 61.9a7.7 7.7 0 1 1 0-15.4 7.7 7.7 0 0 1 0 15.4" fill="#fff500A4"/><path d="M-117.2-152.3a7.7 7.7 0 1 1 0-15.4 7.7 7.7 0 0 1 0 15.4" fill="#fffA4"/><path d="M189.4-352.9a7.7 7.7 0 1 1 0-15.4 7.7 7.7 0 0 1 0 15.4" fill="#fff500A4"/><path d="M56-369.6a7.8 7.8 0 1 1 0-15.5 7.8 7.8 0 0 1 0 15.5" fill="#fffA5"/><path d="M160.1 56.8a7.8 7.8 0 1 1 0-15.6 7.8 7.8 0 0 1 0 15.6" fill="#fffA6"/><path d="M320.4-150.8a7.8 7.8 0 1 1 0-15.6 7.8 7.8 0 0 1 0 15.6" fill="#005bbbA6"/><path d="M-91.2-267.1a7.8 7.8 0 1 1 0-15.7 7.8 7.8 0 0 1 0 15.7" fill="#fff500A7"/><path d="M31.1-366.1a7.9 7.9 0 1 1 0-15.7 7.9 7.9 0 0 1 0 15.7" fill="#005bbbA8"/><path d="M-35.8-332a7.9 7.9 0 1 1 0-15.8 7.9 7.9 0 0 1 0 15.8" fill="#fffA8"/><path d="M42.9 62.7a7.9 7.9 0 1 1 0-15.9 7.9 7.9 0 0 1 0 15.9" fill="#005bbbA9"/><path d="M95.9-379.6a8 8 0 1 1 0-15.9 8 8 0 0 1 0 15.9" fill="#fffAA"/><path d="M43.3-372.8a8 8 0 1 1 0-16 8 8 0 0 1 0 16" fill="#fff500AA"/><path d="M117.4-379.8a8 8 0 1 1 0-16 8 8 0 0 1 0 16" fill="#005bbbAB"/><path d="M255.3 10.7a8 8 0 1 1 0-16 8 8 0 0 1 0 16" fill="#fff500AB"/><path d="M78.3-380.9a8.1 8.1 0 1 1 0-16.2 8.1 8.1 0 0 1 0 16.2" fill="#fff500AC"/><path d="M321.3-209.9a8.1 8.1 0 1 1 0-16.2 8.1 8.1 0 0 1 0 16.2" fill="#fff500AD"/><path d="M322.2-96.3a8.2 8.2 0 1 1 0-16.4 8.2 8.2 0 0 1 0 16.4" fill="#fffAE"/><path d="M228.2 37.2a8.2 8.2 0 1 1 0-16.4 8.2 8.2 0 0 1 0 16.4" fill="#fff500AF"/><path d="M232.4-343a8.2 8.2 0 1 1 0-16.4 8.2 8.2 0 0 1 0 16.4" fill="#c2e1ffAF"/><path d="M-79.8-8.3a8.3 8.3 0 1 1 0-16.5 8.3 8.3 0 0 1 0 16.5" fill="#c2e1ffB1"/><path d="M101.9 77.8a8.3 8.3 0 1 1 0-16.6 8.3 8.3 0 0 1 0 16.6" fill="#fff500B1"/><path d="M262.7-320.2a8.3 8.3 0 1 1 0-16.6 8.3 8.3 0 0 1 0 16.6" fill="#005bbbB2"/><path d="M18.3 63.6a8.3 8.3 0 1 1 0-16.7 8.3 8.3 0 0 1 0 16.7" fill="#005bbbB2"/><path d="M-127.3-99.9a8.4 8.4 0 1 1 0-16.8 8.4 8.4 0 0 1 0 16.8" fill="#fffB4"/><path d="M80.2-387.5a8.5 8.5 0 1 1 0-16.9 8.5 8.5 0 0 1 0 16.9" fill="#fff500B5"/><path d="M100.4-388.8a8.5 8.5 0 1 1 0-17.1 8.5 8.5 0 0 1 0 17.1" fill="#fffB6"/><path d="M133.7 78.6a8.6 8.6 0 1 1 0-17.1 8.6 8.6 0 0 1 0 17.1" fill="#c2e1ffB7"/><path d="M19.3 67.2a8.6 8.6 0 1 1 0-17.2 8.6 8.6 0 0 1 0 17.2" fill="#005bbbB8"/><path d="M188.2-372.2a8.6 8.6 0 1 1 0-17.2 8.6 8.6 0 0 1 0 17.2" fill="#005bbbB8"/><path d="M-26-352.8a8.6 8.6 0 1 1 0-17.3 8.6 8.6 0 0 1 0 17.3" fill="#005bbbB8"/><path d="M-135.3-140.8a8.7 8.7 0 1 1 0-17.3 8.7 8.7 0 0 1 0 17.3" fill="#c2e1ffB9"/><path d="M-64.1 15.6a8.7 8.7 0 1 1 0-17.4 8.7 8.7 0 0 1 0 17.4" fill="#c2e1ffBA"/><path d="M122.3-388.8a8.8 8.8 0 1 1 0-17.6 8.8 8.8 0 0 1 0 17.6" fill="#005bbbBC"/><path d="M-34.4 40.5a8.8 8.8 0 1 1 0-17.5 8.8 8.8 0 0 1 0 17.5" fill="#005bbbBC"/><path d="M77 81.4a8.8 8.8 0 1 1 0-17.6 8.8 8.8 0 0 1 0 17.6" fill="#005bbbBD"/><path d="M308.1-265.4a8.9 8.9 0 1 1 0-17.8 8.9 8.9 0 0 1 0 17.8" fill="#c2e1ffBE"/><path d="M-87.2-297.7a8.9 8.9 0 1 1 0-17.8 8.9 8.9 0 0 1 0 17.8" fill="#fff500BE"/><path d="M-136.2-157.2a8.9 8.9 0 1 1 0-17.8 8.9 8.9 0 0 1 0 17.8" fill="#c2e1ffBE"/><path d="M61.8-386.7a8.9 8.9 0 1 1 0-17.8 8.9 8.9 0 0 1 0 17.8" fill="#fff500BF"/><path d="M246-339.2a8.9 8.9 0 1 1 0-17.9 8.9 8.9 0 0 1 0 17.9" fill="#c2e1ffBF"/><path d="M-33.4 41.3a8.9 8.9 0 1 1 0-17.8 8.9 8.9 0 0 1 0 17.8" fill="#005bbbBF"/><path d="M47.8-383.7a9 9 0 1 1 0-18 9 9 0 0 1 0 18" fill="#c2e1ffC0"/><path d="M-135.5-168.5a9 9 0 1 1 0-18 9 9 0 0 1 0 18" fill="#fff500C1"/><path d="M143 78.2a9.1 9.1 0 1 1 0-18.2 9.1 9.1 0 0 1 0 18.2" fill="#fffC2"/><path d="M41.4 74.5a9.1 9.1 0 1 1 0-18.3 9.1 9.1 0 0 1 0 18.3" fill="#c2e1ffC3"/><path d="M321-72.9a9.1 9.1 0 1 1 0-18.3 9.1 9.1 0 0 1 0 18.3" fill="#c2e1ffC4"/><path d="M-129.2-100.8a9.1 9.1 0 1 1 0-18.3 9.1 9.1 0 0 1 0 18.3" fill="#fffC4"/><path d="M-51.4-333.2a9.2 9.2 0 1 1 0-18.3 9.2 9.2 0 0 1 0 18.3" fill="#005bbbC4"/><path d="M295.2-22.7a9.2 9.2 0 1 1 0-18.4 9.2 9.2 0 0 1 0 18.4" fill="#fffC5"/><path d="M331.1-112.3a9.2 9.2 0 1 1 0-18.4 9.2 9.2 0 0 1 0 18.4" fill="#005bbbC5"/><path d="M-130.1-110.3a9.3 9.3 0 1 1 0-18.5 9.3 9.3 0 0 1 0 18.5" fill="#005bbbC6"/><path d="M-100.9-272.5a9.3 9.3 0 1 1 0-18.6 9.3 9.3 0 0 1 0 18.6" fill="#fffC7"/><path d="M-130.9-186.8a9.3 9.3 0 1 1 0-18.7 9.3 9.3 0 0 1 0 18.7" fill="#fffC8"/><path d="M-11.2-358.2a9.3 9.3 0 1 1 0-18.6 9.3 9.3 0 0 1 0 18.6" fill="#fffC8"/><path d="M29.2 68.7a9.4 9.4 0 1 1 0-18.7 9.4 9.4 0 0 1 0 18.7" fill="#005bbbC8"/><path d="M116.7-385a9.4 9.4 0 1 1 0-18.7 9.4 9.4 0 0 1 0 18.7" fill="#c2e1ffC9"/><path d="M-127.5-105.8a9.4 9.4 0 1 1 0-18.8 9.4 9.4 0 0 1 0 18.8" fill="#c2e1ffC9"/><path d="M25.1 66.8a9.4 9.4 0 1 1 0-18.8 9.4 9.4 0 0 1 0 18.8" fill="#fffC9"/><path d="M313.6-63.1a9.4 9.4 0 1 1 0-18.8 9.4 9.4 0 0 1 0 18.8" fill="#005bbbCA"/><path d="M17.8-367.7a9.5 9.5 0 1 1 0-19.1 9.5 9.5 0 0 1 0 19.1" fill="#fff500CC"/><path d="M-128.8-131.1a9.5 9.5 0 1 1 0-19.1 9.5 9.5 0 0 1 0 19.1" fill="#c2e1ffCD"/><path d="M179.3-368.4a9.6 9.6 0 1 1 0-19.1 9.6 9.6 0 0 1 0 19.1" fill="#fff500CD"/><path d="M315.1-232.7a9.6 9.6 0 1 1 0-19.1 9.6 9.6 0 0 1 0 19.1" fill="#c2e1ffCD"/><path d="M306.1-53.4a9.6 9.6 0 1 1 0-19.2 9.6 9.6 0 0 1 0 19.2" fill="#fffCE"/><path d="M176.7 62.1a9.6 9.6 0 1 1 0-19.2 9.6 9.6 0 0 1 0 19.2" fill="#c2e1ffCE"/><path d="M152.5-374.1a9.7 9.7 0 1 1 0-19.3 9.7 9.7 0 0 1 0 19.3" fill="#fff500CF"/><path d="M-22.4 37.4a9.7 9.7 0 1 1 0-19.4 9.7 9.7 0 0 1 0 19.4" fill="#c2e1ffD0"/><path d="M-79.7-15.8a9.7 9.7 0 1 1 0-19.5 9.7 9.7 0 0 1 0 19.5" fill="#fffD0"/><path d="M298.9-45.8a9.7 9.7 0 1 1 0-19.4 9.7 9.7 0 0 1 0 19.4" fill="#fff500D1"/><path d="M-107.8-64.8a9.7 9.7 0 1 1 0-19.4 9.7 9.7 0 0 1 0 19.4" fill="#fff500D1"/><path d="M71.9-376a9.8 9.8 0 1 1 0-19.5 9.8 9.8 0 0 1 0 19.5" fill="#c2e1ffD1"/><path d="M254.5 9.5a9.8 9.8 0 1 1 0-19.6 9.8 9.8 0 0 1 0 19.6" fill="#fffD2"/><path d="M306.5-66.4a9.8 9.8 0 1 1 0-19.6 9.8 9.8 0 0 1 0 19.6" fill="#005bbbD2"/><path d="M323.2-152.9a9.8 9.8 0 1 1 0-19.6 9.8 9.8 0 0 1 0 19.6" fill="#c2e1ffD3"/><path d="M305.7-237a9.9 9.9 0 1 1 0-19.7 9.9 9.9 0 0 1 0 19.7" fill="#005bbbD4"/><path d="M321.4-136.3a9.9 9.9 0 1 1 0-19.8 9.9 9.9 0 0 1 0 19.8" fill="#c2e1ffD4"/><path d="M-73.4-14.9a9.9 9.9 0 1 1 0-19.8 9.9 9.9 0 0 1 0 19.8" fill="#fff500D4"/><path d="M182.7 52.5a9.9 9.9 0 1 1 0-19.8 9.9 9.9 0 0 1 0 19.8" fill="#fff500D4"/><path d="M316.9-181.3a10 10 0 1 1 0-20 10 10 0 0 1 0 20" fill="#005bbbD6"/><path d="M43.3-363.5a10 10 0 1 1 0-20 10 10 0 0 1 0 20" fill="#005bbbD6"/><path d="M-61.7-12.2a10.1 10.1 0 1 1 0-20.2 10.1 10.1 0 0 1 0 20.2" fill="#005bbbD9"/><path d="M-78.4-34.4a10.1 10.1 0 1 1 0-20.2 10.1 10.1 0 0 1 0 20.2" fill="#fff500D9"/><path d="M-47.6 2.4a10.1 10.1 0 1 1 0-20.2 10.1 10.1 0 0 1 0 20.2" fill="#005bbbD9"/><path d="M-93.7-65.4a10.2 10.2 0 1 1 0-20.3 10.2 10.2 0 0 1 0 20.3" fill="#c2e1ffDA"/><path d="M244.7 2.9a10.2 10.2 0 1 1 0-20.3 10.2 10.2 0 0 1 0 20.3" fill="#005bbbDA"/><path d="M-111.6-163.3a10.2 10.2 0 1 1 0-20.3 10.2 10.2 0 0 1 0 20.3" fill="#fffDA"/><path d="M248.2-303.6a10.2 10.2 0 1 1 0-20.3 10.2 10.2 0 0 1 0 20.3" fill="#005bbbDA"/><path d="M231.9 11.3a10.2 10.2 0 1 1 0-20.4 10.2 10.2 0 0 1 0 20.4" fill="#c2e1ffDB"/><path d="M98.8 57.5a10.2 10.2 0 1 1 0-20.5 10.2 10.2 0 0 1 0 20.5" fill="#fff500DB"/><path d="M273.1-269.4a10.2 10.2 0 1 1 0-20.5 10.2 10.2 0 0 1 0 20.5" fill="#005bbbDC"/><path d="M-70.9-272.1a10.2 10.2 0 1 1 0-20.5 10.2 10.2 0 0 1 0 20.5" fill="#005bbbDC"/><path d="M80.2 55.5a10.2 10.2 0 1 1 0-20.5 10.2 10.2 0 0 1 0 20.5" fill="#005bbbDC"/><path d="M12.1 31.1a10.4 10.4 0 1 1 0-20.7 10.4 10.4 0 0 1 0 20.7" fill="#fffDF"/><path d="M31.3 38.9a10.4 10.4 0 1 1 0-20.7 10.4 10.4 0 0 1 0 20.7" fill="#fffDF"/><path d="M125.4 42.8a10.5 10.5 0 1 1 0-21 10.5 10.5 0 0 1 0 21" fill="#fffE2"/><path d="M213.4-310a10.5 10.5 0 1 1 0-21.1 10.5 10.5 0 0 1 0 21.1" fill="#c2e1ffE2"/><path d="M-92.1-179.6a10.5 10.5 0 1 1 0-21.1 10.5 10.5 0 0 1 0 21.1" fill="#005bbbE3"/><path d="M-64.5-253.3a10.6 10.6 0 1 1 0-21.1 10.6 10.6 0 0 1 0 21.1" fill="#c2e1ffE3"/><path d="M100.2 40.3a10.6 10.6 0 1 1 0-21.2 10.6 10.6 0 0 1 0 21.2" fill="#fff500E3"/><path d="M-83-201.6a10.6 10.6 0 1 1 0-21.2 10.6 10.6 0 0 1 0 21.2" fill="#005bbbE4"/><path d="M237.1-280.4a10.6 10.6 0 1 1 0-21.3 10.6 10.6 0 0 1 0 21.3" fill="#c2e1ffE5"/><path d="M-70.4-228.7a10.7 10.7 0 1 1 0-21.3 10.7 10.7 0 0 1 0 21.3" fill="#c2e1ffE5"/><path d="M46.2-329.5a10.7 10.7 0 1 1 0-21.4 10.7 10.7 0 0 1 0 21.4" fill="#005bbbE6"/><path d="M-80.9-193.3a10.7 10.7 0 1 1 0-21.4 10.7 10.7 0 0 1 0 21.4" fill="#c2e1ffE6"/><path d="M241.7-271.4a10.7 10.7 0 1 1 0-21.4 10.7 10.7 0 0 1 0 21.4" fill="#c2e1ffE6"/><path d="M-33.9-24a10.7 10.7 0 1 1 0-21.4 10.7 10.7 0 0 1 0 21.4" fill="#fffE6"/><path d="M204.1-304.6a10.7 10.7 0 1 1 0-21.4 10.7 10.7 0 0 1 0 21.4" fill="#c2e1ffE6"/><path d="M239.5-34.4a10.7 10.7 0 1 1 0-21.5 10.7 10.7 0 0 1 0 21.5" fill="#005bbbE7"/><path d="M-77.4-191.6a10.7 10.7 0 1 1 0-21.5 10.7 10.7 0 0 1 0 21.5" fill="#005bbbE7"/><path d="M279.3-151.7a10.8 10.8 0 1 1 0-21.6 10.8 10.8 0 0 1 0 21.6" fill="#005bbbE8"/><path d="M68.8 20a10.9 10.9 0 1 1 0-21.7 10.9 10.9 0 0 1 0 21.7" fill="#fffE9"/><path d="M266.4-199.3a10.9 10.9 0 1 1 0-21.8 10.9 10.9 0 0 1 0 21.8" fill="#fffEA"/><path d="M7.3-8.6a10.9 10.9 0 1 1 0-21.8 10.9 10.9 0 0 1 0 21.8" fill="#fffEB"/><path d="M42.7 7.8a10.9 10.9 0 1 1 0-21.8 10.9 10.9 0 0 1 0 21.8" fill="#005bbbEB"/><path d="M32.2-1.6a11 11 0 1 1 0-21.9 11 11 0 0 1 0 21.9" fill="#fff500EC"/><path d="M-30.2-64a11.1 11.1 0 1 1 0-22.1 11.1 11.1 0 0 1 0 22.1" fill="#005bbbEE"/><path d="M86.1-3.2a11.2 11.2 0 1 1 0-22.3 11.2 11.2 0 0 1 0 22.3" fill="#c2e1ffF0"/><path d="M172.7-281a11.2 11.2 0 1 1 0-22.3 11.2 11.2 0 0 1 0 22.3" fill="#005bbbF0"/><path d="M12.9-270a11.2 11.2 0 1 1 0-22.3 11.2 11.2 0 0 1 0 22.3" fill="#c2e1ffF0"/><path d="M21.1-32a11.2 11.2 0 1 1 0-22.4 11.2 11.2 0 0 1 0 22.4" fill="#fff500F1"/><path d="M238.2-139.3a11.2 11.2 0 1 1 0-22.5 11.2 11.2 0 0 1 0 22.5" fill="#fffF2"/><path d="M237.6-157a11.3 11.3 0 1 1 0-22.5 11.3 11.3 0 0 1 0 22.5" fill="#005bbbF2"/><path d="M-14.4-226.6a11.3 11.3 0 1 1 0-22.6 11.3 11.3 0 0 1 0 22.6" fill="#fffF2"/><path d="M-17.1-96a11.3 11.3 0 1 1 0-22.6 11.3 11.3 0 0 1 0 22.6" fill="#fffF4"/><path d="M15-57.3a11.4 11.4 0 1 1 0-22.7 11.4 11.4 0 0 1 0 22.7" fill="#c2e1ffF4"/><path d="M169.6-49.2a11.4 11.4 0 1 1 0-22.8 11.4 11.4 0 0 1 0 22.8" fill="#005bbbF5"/><path d="M176.8-240.7a11.4 11.4 0 1 1 0-22.8 11.4 11.4 0 0 1 0 22.8" fill="#fffF6"/><path d="M127.2-248.1a11.5 11.5 0 1 1 0-23 11.5 11.5 0 0 1 0 23" fill="#005bbbF8"/><path d="M128.6-55.6a11.5 11.5 0 1 1 0-23 11.5 11.5 0 0 1 0 23" fill="#c2e1ffF8"/><path d="M188.5-131.2a11.6 11.6 0 1 1 0-23.2 11.6 11.6 0 0 1 0 23.2" fill="#fff500FA"/><path d="M139.3-204.6a11.7 11.7 0 1 1 0-23.3 11.7 11.7 0 0 1 0 23.3" fill="#c2e1ffFC"/><path d="M41.9-137.5a11.7 11.7 0 1 1 0-23.4 11.7 11.7 0 0 1 0 23.4" fill="#005bbbFC"/><path d="M67.8-191.7a11.7 11.7 0 1 1 0-23.5 11.7 11.7 0 0 1 0 23.5" fill="#fffFD"/></g></svg>