<svg width="1200" height="675" viewBox="-500 -500 1200 675" xmlns="http://www.w3.org/2000/svg"><path d="M-500-500h1200v675h-1200z" fill="#000"/><style>.sparkles path{stroke-linecap:round; stroke-width:1}</style><g class="sparkles"><path d="M100-162.5l-1-46.5" stroke="#c2e1ff32"/><path d="M100-162.5l27.2-51.5" stroke="#fff33"/><path d="M100-162.5l-4.9 70.7" stroke="#c2e1ff34"/><path d="M100-162.5l46.6-65.6" stroke="#fff34"/><path d="M100-162.5l-1.8-87.8" stroke="#fff50035"/><path d="M100-162.5l90.8 11.7" stroke="#c2e1ff35"/><path d="M100-162.5l-91.7-17.4" stroke="#fff36"/><path d="M100-162.5l86.1-56" stroke="#005bbb36"/><path d="M100-162.5l-104-16.3" stroke="#fff37"/><path d="M100-162.5l14.7 107.1" stroke="#c2e1ff37"/><path d="M100-162.5l60.8-97.1" stroke="#c2e1ff38"/><path d="M100-162.5l-86.5 90.7" stroke="#c2e1ff39"/><path d="M100-162.5l-117.9-59.7" stroke="#fff5003A"/><path d="M100-162.5l-136.6 9.1" stroke="#fff3B"/><path d="M100-162.5l-25.8-137.5" stroke="#005bbb3B"/><path d="M100-162.5l33.6 138.1" stroke="#fff5003C"/><path d="M100-162.5l86.7 115.3" stroke="#005bbb3C"/><path d="M100-162.5l63.1-131.8" stroke="#fff3C"/><path d="M100-162.5l148.3-4" stroke="#fff5003D"/><path d="M100-162.5l116.9-95.8" stroke="#005bbb3D"/><path d="M100-162.5l-152.5 19.8" stroke="#fff5003E"/><path d="M100-162.5l44.1-148.9" stroke="#fff5003E"/><path d="M100-162.5l-140.1-69.9" stroke="#005bbb3E"/><path d="M100-162.5l-154.7-29" stroke="#fff5003E"/><path d="M100-162.5l156.6-35.9" stroke="#fff5003F"/><path d="M100-162.5l108.2-119.5" stroke="#fff3F"/><path d="M100-162.5l-94.3 139.8" stroke="#fff40"/><path d="M100-162.5l-91.9-142" stroke="#fff41"/><path d="M100-162.5l-40.4 164.4" stroke="#005bbb41"/><path d="M100-162.5l136.2 101.6" stroke="#005bbb41"/><path d="M100-162.5l26.2 169.7" stroke="#fff41"/><path d="M100-162.5l-9.8-174.5" stroke="#005bbb42"/><path d="M100-162.5l150-97.5" stroke="#005bbb43"/><path d="M100-162.5l-175-44.3" stroke="#c2e1ff43"/><path d="M100-162.5l155.2 102.4" stroke="#c2e1ff45"/><path d="M100-162.5l-184 46.9" stroke="#fff50046"/><path d="M100-162.5l185.4-57.5" stroke="#c2e1ff47"/><path d="M100-162.5l-146 128.6" stroke="#fff47"/><path d="M100-162.5l130.6 144.9" stroke="#fff47"/><path d="M100-162.5l-191.9 39" stroke="#fff48"/><path d="M100-162.5l47.3 195.7" stroke="#fff50049"/><path d="M100-162.5l29.7-201" stroke="#005bbb4A"/><path d="M100-162.5l155.8 131.5" stroke="#005bbb4A"/><path d="M100-162.5l-196.7 64.4" stroke="#fff4B"/><path d="M100-162.5l-125.2 165.2" stroke="#fff4C"/><path d="M100-162.5l94-187.1" stroke="#fff4C"/><path d="M100-162.5l-82.1-194.5" stroke="#005bbb4D"/><path d="M100-162.5l-68.1 200" stroke="#c2e1ff4D"/><path d="M100-162.5l204.5 53.4" stroke="#fff4D"/><path d="M100-162.5l210.9 18.7" stroke="#005bbb4D"/><path d="M100-162.5l-107.3-183" stroke="#fff4D"/><path d="M100-162.5l147.3 156.2" stroke="#c2e1ff4F"/><path d="M100-162.5l-140.8-162.5" stroke="#005bbb4F"/><path d="M100-162.5l84.8 198.6" stroke="#fff4F"/><path d="M100-162.5l-61-207.4" stroke="#fff4F"/><path d="M100-162.5l-188.4 115.7" stroke="#fff50052"/><path d="M100-162.5l64.6 214" stroke="#c2e1ff53"/><path d="M100-162.5l188-127.6" stroke="#fff56"/><path d="M100-162.5l-227.5 7.6" stroke="#fff56"/><path d="M100-162.5l-126.4 190" stroke="#005bbb57"/><path d="M100-162.5l194.7 119" stroke="#fff50057"/><path d="M100-162.5l2.2-228.9" stroke="#c2e1ff57"/><path d="M100-162.5l-215.3 82.4" stroke="#c2e1ff59"/><path d="M100-162.5l142.7 181.4" stroke="#fff50059"/><path d="M100-162.5l219.2-73.5" stroke="#fff50059"/><path d="M100-162.5l229.5-28.9" stroke="#005bbb59"/><path d="M100-162.5l80.5-217.7" stroke="#005bbb5A"/><path d="M100-162.5l-67.6-222.3" stroke="#fff5A"/><path d="M100-162.5l217.5-83.7" stroke="#fff5005B"/><path d="M100-162.5l188.8 136.9" stroke="#005bbb5B"/><path d="M100-162.5l-64.6-224.3" stroke="#005bbb5C"/><path d="M100-162.5l17.5 232.8" stroke="#fff5005C"/><path d="M100-162.5l83.9 217.9" stroke="#c2e1ff5C"/><path d="M100-162.5l-76.5-221" stroke="#005bbb5C"/><path d="M100-162.5l-58.4 227.3" stroke="#fff5E"/><path d="M100-162.5l197.5 127.1" stroke="#c2e1ff5E"/><path d="M100-162.5l162.6 169.7" stroke="#005bbb5E"/><path d="M100-162.5l235 0" stroke="#005bbb5E"/><path d="M100-162.5l1 235.4" stroke="#c2e1ff5F"/><path d="M100-162.5l222.2 78.1" stroke="#c2e1ff60"/><path d="M100-162.5l-233 37.1" stroke="#c2e1ff61"/><path d="M100-162.5l172.1-161.4" stroke="#fff61"/><path d="M100-162.5l-33.1-233.6" stroke="#fff50061"/><path d="M100-162.5l213.2-101.3" stroke="#005bbb61"/><path d="M100-162.5l-192.4-136.7" stroke="#c2e1ff61"/><path d="M100-162.5l75.1-223.8" stroke="#c2e1ff61"/><path d="M100-162.5l190.3-139.7" stroke="#005bbb62"/><path d="M100-162.5l-233-38.7" stroke="#c2e1ff63"/><path d="M100-162.5l-159.2 174.3" stroke="#c2e1ff65"/><path d="M100-162.5l91 217.8" stroke="#005bbb65"/><path d="M100-162.5l-116.3 205.4" stroke="#c2e1ff66"/><path d="M100-162.5l159.7 173.6" stroke="#005bbb66"/><path d="M100-162.5l-72.3-224.3" stroke="#005bbb67"/><path d="M100-162.5l61.7-227.4" stroke="#fff50067"/><path d="M100-162.5l-230.8-46" stroke="#fff50068"/><path d="M100-162.5l207-111.9" stroke="#c2e1ff68"/><path d="M100-162.5l-122.3 200.6" stroke="#c2e1ff69"/><path d="M100-162.5l234.6 2.7" stroke="#fff69"/><path d="M100-162.5l181-149" stroke="#005bbb6A"/><path d="M100-162.5l-224.9 62.8" stroke="#fff6B"/><path d="M100-162.5l217.1-82.5" stroke="#005bbb6D"/><path d="M100-162.5l-221.5 67.2" stroke="#005bbb6E"/><path d="M100-162.5l75-218.4" stroke="#005bbb6E"/><path d="M100-162.5l-216.1-78" stroke="#005bbb6F"/><path d="M100-162.5l140.7-181.3" stroke="#c2e1ff6F"/><path d="M100-162.5l-214.1 82.5" stroke="#fff6F"/><path d="M100-162.5l-212.3 86.7" stroke="#fff5006F"/><path d="M100-162.5l140.8-179.4" stroke="#005bbb71"/><path d="M100-162.5l-213.5 78.1" stroke="#c2e1ff71"/><path d="M100-162.5l70-216.1" stroke="#c2e1ff71"/><path d="M100-162.5l-212.6-77.5" stroke="#005bbb72"/><path d="M100-162.5l-24.6-224.9" stroke="#c2e1ff72"/><path d="M100-162.5l2.7 226.2" stroke="#005bbb72"/><path d="M100-162.5l218.8 55.9" stroke="#c2e1ff72"/><path d="M100-162.5l103.3-200.6" stroke="#fff50072"/><path d="M100-162.5l-225 12.3" stroke="#fff50072"/><path d="M100-162.5l210.8-73.8" stroke="#005bbb74"/><path d="M100-162.5l141.3 171" stroke="#005bbb75"/><path d="M100-162.5l-29.5 219.5" stroke="#fff75"/><path d="M100-162.5l65.8 211.4" stroke="#fff50075"/><path d="M100-162.5l157.3-155.4" stroke="#c2e1ff75"/><path d="M100-162.5l202-87.7" stroke="#005bbb76"/><path d="M100-162.5l-135.1 173.4" stroke="#c2e1ff76"/><path d="M100-162.5l-114-185.7" stroke="#c2e1ff77"/><path d="M100-162.5l105.7-189.8" stroke="#fff77"/><path d="M100-162.5l-216.7 12.8" stroke="#c2e1ff77"/><path d="M100-162.5l170.2-133.6" stroke="#fff50078"/><path d="M100-162.5l-124.2-176.4" stroke="#c2e1ff78"/><path d="M100-162.5l-213.5-5.1" stroke="#c2e1ff79"/><path d="M100-162.5l-24.9 210.3" stroke="#fff7A"/><path d="M100-162.5l-22.8 210.5" stroke="#005bbb7A"/><path d="M100-162.5l13.2-211" stroke="#c2e1ff7A"/><path d="M100-162.5l198.9-67.6" stroke="#005bbb7A"/><path d="M100-162.5l205.1-38.5" stroke="#c2e1ff7B"/><path d="M100-162.5l5.1-205.6" stroke="#c2e1ff7C"/><path d="M100-162.5l47.6-195.2" stroke="#c2e1ff7E"/><path d="M100-162.5l-113.3-163.1" stroke="#fff7F"/><path d="M100-162.5l39.2 193.5" stroke="#fff7F"/><path d="M100-162.5l-8.6 197" stroke="#fff7F"/><path d="M100-162.5l-141.5 135.5" stroke="#fff7F"/><path d="M100-162.5l-93-169" stroke="#005bbb80"/><path d="M100-162.5l-39.7 185.9" stroke="#c2e1ff81"/><path d="M100-162.5l181.4-53.5" stroke="#c2e1ff81"/><path d="M100-162.5l186.3-26.9" stroke="#fff82"/><path d="M100-162.5l100.5-157.6" stroke="#c2e1ff82"/><path d="M100-162.5l159.4-89.9" stroke="#fff50083"/><path d="M100-162.5l27.5 176.5" stroke="#c2e1ff84"/><path d="M100-162.5l-118.6-119.3" stroke="#c2e1ff87"/><path d="M100-162.5l-158.9 50.5" stroke="#c2e1ff87"/><path d="M100-162.5l-150.9-68.7" stroke="#c2e1ff87"/><path d="M100-162.5l160.5 35.2" stroke="#fff87"/><path d="M100-162.5l156 50" stroke="#005bbb88"/><path d="M100-162.5l-155.6 46.9" stroke="#005bbb88"/><path d="M100-162.5l-16.4 160.4" stroke="#fff50088"/><path d="M100-162.5l98.9-126.6" stroke="#c2e1ff88"/><path d="M100-162.5l-153.3 38.1" stroke="#fff89"/><path d="M100-162.5l-47.7 149.4" stroke="#005bbb89"/><path d="M100-162.5l-155.4 16.2" stroke="#005bbb89"/><path d="M100-162.5l-114.1 103.5" stroke="#c2e1ff89"/><path d="M100-162.5l-35 149" stroke="#fff8A"/><path d="M100-162.5l120.5-91.6" stroke="#c2e1ff8A"/><path d="M100-162.5l-72.2-127.9" stroke="#fff8B"/><path d="M100-162.5l132-58.6" stroke="#005bbb8B"/><path d="M100-162.5l114.3 81.1" stroke="#fff5008C"/><path d="M100-162.5l15 133.1" stroke="#c2e1ff8D"/><path d="M100-162.5l56.3 120" stroke="#c2e1ff8D"/><path d="M100-162.5l12.7 117.4" stroke="#fff5008F"/><path d="M100-162.5l47.6-107.6" stroke="#fff5008F"/><path d="M100-162.5l81.5 79" stroke="#fff8F"/><path d="M100-162.5l-24.4-107.2" stroke="#fff50090"/><path d="M100-162.5l-20.5 98" stroke="#fff50091"/><path d="M100-162.5l-2.3 95.3" stroke="#005bbb91"/><path d="M100-162.5l80-2.4" stroke="#005bbb93"/><path d="M100-162.5l-53.9 58.2" stroke="#fff50093"/><path d="M100-162.5l76.6-15.7" stroke="#fff93"/><path d="M100-162.5l-67.4 19" stroke="#c2e1ff93"/><path d="M100-162.5l-37.7-58.5" stroke="#fff93"/><path d="M100-162.5l40.6-40.7" stroke="#fff94"/><path d="M100-162.5l-46.8 15" stroke="#fff50094"/><path d="M100-162.5l-8.5 43.1" stroke="#005bbb95"/><path d="M100-162.5l6.2-7.2" stroke="#fff95"/></g><g class="sparcs"><path d="M99-203a6 6 0 1 1 0-12 6 6 0 0 1 0 12" fill="#005bbb7E"/><path d="M127.2-208a6 6 0 1 1 0-12 6 6 0 0 1 0 12" fill="#c2e1ff7F"/><path d="M95.1-85.8a6 6 0 1 1 0-12.1 6 6 0 0 1 0 12.1" fill="#c2e1ff7F"/><path d="M146.6-222.1a6.1 6.1 0 1 1 0-12.1 6.1 6.1 0 0 1 0 12.1" fill="#c2e1ff80"/><path d="M98.2-244.2a6.1 6.1 0 1 1 0-12.2 6.1 6.1 0 0 1 0 12.2" fill="#fff50081"/><path d="M190.8-144.7a6.1 6.1 0 1 1 0-12.3 6.1 6.1 0 0 1 0 12.3" fill="#005bbb82"/><path d="M8.3-173.8a6.1 6.1 0 1 1 0-12.3 6.1 6.1 0 0 1 0 12.3" fill="#c2e1ff82"/><path d="M186.1-212.3a6.2 6.2 0 1 1 0-12.4 6.2 6.2 0 0 1 0 12.4" fill="#fff50083"/><path d="M-4-172.5a6.2 6.2 0 1 1 0-12.5 6.2 6.2 0 0 1 0 12.5" fill="#fff83"/><path d="M114.7-49.1a6.2 6.2 0 1 1 0-12.5 6.2 6.2 0 0 1 0 12.5" fill="#c2e1ff84"/><path d="M160.8-253.3a6.3 6.3 0 1 1 0-12.6 6.3 6.3 0 0 1 0 12.6" fill="#005bbb85"/><path d="M13.5-65.4a6.4 6.4 0 1 1 0-12.7 6.4 6.4 0 0 1 0 12.7" fill="#fff86"/><path d="M-17.9-215.7a6.4 6.4 0 1 1 0-12.9 6.4 6.4 0 0 1 0 12.9" fill="#005bbb88"/><path d="M-36.6-147a6.5 6.5 0 1 1 0-12.9 6.5 6.5 0 0 1 0 12.9" fill="#fff89"/><path d="M74.2-293.5a6.5 6.5 0 1 1 0-13 6.5 6.5 0 0 1 0 13" fill="#c2e1ff89"/><path d="M133.6-17.9a6.5 6.5 0 1 1 0-13 6.5 6.5 0 0 1 0 13" fill="#fff8A"/><path d="M186.7-40.7a6.5 6.5 0 1 1 0-13 6.5 6.5 0 0 1 0 13" fill="#005bbb8A"/><path d="M163.1-287.8a6.5 6.5 0 1 1 0-13.1 6.5 6.5 0 0 1 0 13.1" fill="#005bbb8A"/><path d="M248.3-160a6.6 6.6 0 1 1 0-13.1 6.6 6.6 0 0 1 0 13.1" fill="#c2e1ff8B"/><path d="M216.9-251.7a6.6 6.6 0 1 1 0-13.2 6.6 6.6 0 0 1 0 13.2" fill="#c2e1ff8C"/><path d="M-52.5-136.1a6.6 6.6 0 1 1 0-13.2 6.6 6.6 0 0 1 0 13.2" fill="#005bbb8C"/><path d="M144.1-304.8a6.6 6.6 0 1 1 0-13.2 6.6 6.6 0 0 1 0 13.2" fill="#c2e1ff8D"/><path d="M-40.1-225.8a6.6 6.6 0 1 1 0-13.3 6.6 6.6 0 0 1 0 13.3" fill="#005bbb8D"/><path d="M-54.7-184.8a6.7 6.7 0 1 1 0-13.3 6.7 6.7 0 0 1 0 13.3" fill="#c2e1ff8D"/><path d="M256.6-191.7a6.7 6.7 0 1 1 0-13.4 6.7 6.7 0 0 1 0 13.4" fill="#fff8E"/><path d="M208.2-275.3a6.7 6.7 0 1 1 0-13.4 6.7 6.7 0 0 1 0 13.4" fill="#005bbb8E"/><path d="M5.7-15.9a6.8 6.8 0 1 1 0-13.6 6.8 6.8 0 0 1 0 13.6" fill="#c2e1ff90"/><path d="M8.1-297.7a6.8 6.8 0 1 1 0-13.6 6.8 6.8 0 0 1 0 13.6" fill="#005bbb90"/><path d="M59.6 8.7a6.8 6.8 0 1 1 0-13.6 6.8 6.8 0 0 1 0 13.6" fill="#c2e1ff90"/><path d="M236.2-54.1a6.8 6.8 0 1 1 0-13.6 6.8 6.8 0 0 1 0 13.6" fill="#c2e1ff90"/><path d="M126.2 14a6.8 6.8 0 1 1 0-13.7 6.8 6.8 0 0 1 0 13.7" fill="#c2e1ff91"/><path d="M90.2-330.1a6.9 6.9 0 1 1 0-13.7 6.9 6.9 0 0 1 0 13.7" fill="#005bbb92"/><path d="M250-253a6.9 6.9 0 1 1 0-13.9 6.9 6.9 0 0 1 0 13.9" fill="#fff93"/><path d="M-75-199.8a7 7 0 1 1 0-13.9 7 7 0 0 1 0 13.9" fill="#fff50094"/><path d="M255.2-53.1a7 7 0 1 1 0-14 7 7 0 0 1 0 14" fill="#fff95"/><path d="M-84-108.5a7.1 7.1 0 1 1 0-14.2 7.1 7.1 0 0 1 0 14.2" fill="#c2e1ff97"/><path d="M285.4-212.9a7.2 7.2 0 1 1 0-14.3 7.2 7.2 0 0 1 0 14.3" fill="#fff98"/><path d="M-46-26.7a7.2 7.2 0 1 1 0-14.4 7.2 7.2 0 0 1 0 14.4" fill="#005bbb99"/><path d="M230.6-10.4a7.2 7.2 0 1 1 0-14.4 7.2 7.2 0 0 1 0 14.4" fill="#fff99"/><path d="M-91.9-116.3a7.2 7.2 0 1 1 0-14.4 7.2 7.2 0 0 1 0 14.4" fill="#005bbb99"/><path d="M147.3 40.5a7.3 7.3 0 1 1 0-14.6 7.3 7.3 0 0 1 0 14.6" fill="#fff5009B"/><path d="M129.7-356.1a7.4 7.4 0 1 1 0-14.7 7.4 7.4 0 0 1 0 14.7" fill="#005bbb9C"/><path d="M255.8-23.6a7.4 7.4 0 1 1 0-14.7 7.4 7.4 0 0 1 0 14.7" fill="#fff9D"/><path d="M-96.7-90.6a7.4 7.4 0 1 1 0-14.9 7.4 7.4 0 0 1 0 14.9" fill="#fff5009E"/><path d="M-25.2 10.1a7.4 7.4 0 1 1 0-14.9 7.4 7.4 0 0 1 0 14.9" fill="#c2e1ff9E"/><path d="M194-342.1a7.5 7.5 0 1 1 0-14.9 7.5 7.5 0 0 1 0 14.9" fill="#fff5009F"/><path d="M17.9-349.4a7.5 7.5 0 1 1 0-15.1 7.5 7.5 0 0 1 0 15.1" fill="#005bbbA0"/><path d="M31.9 45a7.5 7.5 0 1 1 0-15.1 7.5 7.5 0 0 1 0 15.1" fill="#fffA0"/><path d="M304.5-101.6a7.5 7.5 0 1 1 0-15 7.5 7.5 0 0 1 0 15" fill="#c2e1ffA0"/><path d="M310.9-136.2a7.5 7.5 0 1 1 0-15.1 7.5 7.5 0 0 1 0 15.1" fill="#c2e1ffA1"/><path d="M-7.3-337.9a7.6 7.6 0 1 1 0-15.1 7.6 7.6 0 0 1 0 15.1" fill="#fffA1"/><path d="M247.3 1.3a7.6 7.6 0 1 1 0-15.2 7.6 7.6 0 0 1 0 15.2" fill="#c2e1ffA2"/><path d="M-40.8-317.4a7.6 7.6 0 1 1 0-15.3 7.6 7.6 0 0 1 0 15.3" fill="#005bbbA3"/><path d="M184.8 43.8a7.7 7.7 0 1 1 0-15.4 7.7 7.7 0 0 1 0 15.4" fill="#fffA3"/><path d="M39-362.3a7.7 7.7 0 1 1 0-15.3 7.7 7.7 0 0 1 0 15.3" fill="#005bbbA3"/><path d="M-88.4-39a7.8 7.8 0 1 1 0-15.6 7.8 7.8 0 0 1 0 15.6" fill="#c2e1ffA7"/><path d="M164.6 59.4a7.9 7.9 0 1 1 0-15.8 7.9 7.9 0 0 1 0 15.8" fill="#fff500A8"/><path d="M288-282.1a8.1 8.1 0 1 1 0-16.1 8.1 8.1 0 0 1 0 16.1" fill="#fff500AC"/><path d="M-127.5-146.8a8.1 8.1 0 1 1 0-16.2 8.1 8.1 0 0 1 0 16.2" fill="#005bbbAC"/><path d="M-26.4 35.5a8.1 8.1 0 1 1 0-16.1 8.1 8.1 0 0 1 0 16.1" fill="#fff500AD"/><path d="M294.7-35.4a8.1 8.1 0 1 1 0-16.2 8.1 8.1 0 0 1 0 16.2" fill="#c2e1ffAD"/><path d="M102.2-383.3a8.1 8.1 0 1 1 0-16.2 8.1 8.1 0 0 1 0 16.2" fill="#fff500AD"/><path d="M-115.3-71.9a8.2 8.2 0 1 1 0-16.5 8.2 8.2 0 0 1 0 16.5" fill="#fffAF"/><path d="M242.7 27.1a8.2 8.2 0 1 1 0-16.4 8.2 8.2 0 0 1 0 16.4" fill="#c2e1ffB0"/><path d="M319.2-227.8a8.3 8.3 0 1 1 0-16.5 8.3 8.3 0 0 1 0 16.5" fill="#c2e1ffB0"/><path d="M329.5-183.2a8.3 8.3 0 1 1 0-16.5 8.3 8.3 0 0 1 0 16.5" fill="#005bbbB0"/><path d="M180.5-371.9a8.3 8.3 0 1 1 0-16.6 8.3 8.3 0 0 1 0 16.6" fill="#fff500B1"/><path d="M32.4-376.5a8.3 8.3 0 1 1 0-16.6 8.3 8.3 0 0 1 0 16.6" fill="#fff500B2"/><path d="M317.5-237.8a8.4 8.4 0 1 1 0-16.7 8.4 8.4 0 0 1 0 16.7" fill="#fffB3"/><path d="M288.8-17.2a8.4 8.4 0 1 1 0-16.8 8.4 8.4 0 0 1 0 16.8" fill="#c2e1ffB3"/><path d="M35.4-378.4a8.4 8.4 0 1 1 0-16.8 8.4 8.4 0 0 1 0 16.8" fill="#fff500B3"/><path d="M117.5 78.7a8.4 8.4 0 1 1 0-16.8 8.4 8.4 0 0 1 0 16.8" fill="#fffB3"/><path d="M183.9 63.9a8.4 8.4 0 1 1 0-16.9 8.4 8.4 0 0 1 0 16.9" fill="#fff500B4"/><path d="M23.5-375.1a8.4 8.4 0 1 1 0-16.9 8.4 8.4 0 0 1 0 16.9" fill="#c2e1ffB4"/><path d="M41.6 73.3a8.5 8.5 0 1 1 0-17 8.5 8.5 0 0 1 0 17" fill="#c2e1ffB6"/><path d="M297.5-26.8a8.5 8.5 0 1 1 0-17.1 8.5 8.5 0 0 1 0 17.1" fill="#fff500B7"/><path d="M262.6 15.7a8.6 8.6 0 1 1 0-17.1 8.6 8.6 0 0 1 0 17.1" fill="#c2e1ffB7"/><path d="M335-153.9a8.6 8.6 0 1 1 0-17.2 8.6 8.6 0 0 1 0 17.2" fill="#fffB7"/><path d="M101 81.6a8.6 8.6 0 1 1 0-17.3 8.6 8.6 0 0 1 0 17.3" fill="#fffB8"/><path d="M322.2-75.7a8.6 8.6 0 1 1 0-17.3 8.6 8.6 0 0 1 0 17.3" fill="#fff500B9"/><path d="M-133-116.7a8.7 8.7 0 1 1 0-17.4 8.7 8.7 0 0 1 0 17.4" fill="#fff500BA"/><path d="M272.1-315.2a8.7 8.7 0 1 1 0-17.4 8.7 8.7 0 0 1 0 17.4" fill="#005bbbBA"/><path d="M66.9-387.4a8.7 8.7 0 1 1 0-17.5 8.7 8.7 0 0 1 0 17.5" fill="#c2e1ffBA"/><path d="M313.2-255.1a8.7 8.7 0 1 1 0-17.4 8.7 8.7 0 0 1 0 17.4" fill="#fff500BA"/><path d="M-92.4-290.5a8.7 8.7 0 1 1 0-17.4 8.7 8.7 0 0 1 0 17.4" fill="#c2e1ffBB"/><path d="M175.1-377.5a8.7 8.7 0 1 1 0-17.5 8.7 8.7 0 0 1 0 17.5" fill="#fffBB"/><path d="M290.3-293.4a8.7 8.7 0 1 1 0-17.5 8.7 8.7 0 0 1 0 17.5" fill="#fff500BB"/><path d="M-133-192.4a8.8 8.8 0 1 1 0-17.6 8.8 8.8 0 0 1 0 17.6" fill="#005bbbBC"/><path d="M-59.2 20.8a9 9 0 1 1 0-17.9 9 9 0 0 1 0 17.9" fill="#fff500C0"/><path d="M191 64.3a9 9 0 1 1 0-17.9 9 9 0 0 1 0 17.9" fill="#c2e1ffC0"/><path d="M-16.3 51.9a9 9 0 1 1 0-17.9 9 9 0 0 1 0 17.9" fill="#c2e1ffC0"/><path d="M259.7 20.1a9 9 0 1 1 0-18 9 9 0 0 1 0 18" fill="#c2e1ffC1"/><path d="M27.7-377.8a9.1 9.1 0 1 1 0-18.1 9.1 9.1 0 0 1 0 18.1" fill="#fff500C2"/><path d="M161.7-380.8a9.1 9.1 0 1 1 0-18.1 9.1 9.1 0 0 1 0 18.1" fill="#005bbbC2"/><path d="M-130.8-199.4a9.1 9.1 0 1 1 0-18.2 9.1 9.1 0 0 1 0 18.2" fill="#fff500C3"/><path d="M307-265.2a9.1 9.1 0 1 1 0-18.3 9.1 9.1 0 0 1 0 18.3" fill="#c2e1ffC3"/><path d="M-22.3 47.2a9.2 9.2 0 1 1 0-18.3 9.2 9.2 0 0 1 0 18.3" fill="#c2e1ffC4"/><path d="M334.6-150.6a9.2 9.2 0 1 1 0-18.4 9.2 9.2 0 0 1 0 18.4" fill="#005bbbC5"/><path d="M281-302.2a9.2 9.2 0 1 1 0-18.5 9.2 9.2 0 0 1 0 18.5" fill="#fff500C6"/><path d="M-124.9-90.4a9.3 9.3 0 1 1 0-18.6 9.3 9.3 0 0 1 0 18.6" fill="#c2e1ffC7"/><path d="M317.1-235.6a9.4 9.4 0 1 1 0-18.8 9.4 9.4 0 0 1 0 18.8" fill="#005bbbC9"/><path d="M-121.5-85.9a9.5 9.5 0 1 1 0-18.9 9.5 9.5 0 0 1 0 18.9" fill="#fffCB"/><path d="M175-371.4a9.5 9.5 0 1 1 0-19 9.5 9.5 0 0 1 0 19" fill="#c2e1ffCB"/><path d="M-116.1-231a9.5 9.5 0 1 1 0-19.1 9.5 9.5 0 0 1 0 19.1" fill="#c2e1ffCD"/><path d="M240.7-334.3a9.6 9.6 0 1 1 0-19.1 9.6 9.6 0 0 1 0 19.1" fill="#fffCD"/><path d="M-114.1-70.5a9.6 9.6 0 1 1 0-19.1 9.6 9.6 0 0 1 0 19.1" fill="#fff500CD"/><path d="M-112.3-66.2a9.6 9.6 0 1 1 0-19.1 9.6 9.6 0 0 1 0 19.1" fill="#fff500CD"/><path d="M240.8-332.3a9.6 9.6 0 1 1 0-19.2 9.6 9.6 0 0 1 0 19.2" fill="#fff500CE"/><path d="M-113.5-74.7a9.7 9.7 0 1 1 0-19.3 9.7 9.7 0 0 1 0 19.3" fill="#fff500CF"/><path d="M170-368.9a9.7 9.7 0 1 1 0-19.4 9.7 9.7 0 0 1 0 19.4" fill="#c2e1ffCF"/><path d="M-112.6-230.3a9.7 9.7 0 1 1 0-19.4 9.7 9.7 0 0 1 0 19.4" fill="#c2e1ffD0"/><path d="M75.4-377.7a9.7 9.7 0 1 1 0-19.4 9.7 9.7 0 0 1 0 19.4" fill="#c2e1ffD0"/><path d="M102.7 73.4a9.7 9.7 0 1 1 0-19.4 9.7 9.7 0 0 1 0 19.4" fill="#fffD0"/><path d="M318.8-96.8a9.7 9.7 0 1 1 0-19.5 9.7 9.7 0 0 1 0 19.5" fill="#005bbbD1"/><path d="M203.3-353.4a9.7 9.7 0 1 1 0-19.5 9.7 9.7 0 0 1 0 19.5" fill="#fffD1"/><path d="M-125-140.4a9.7 9.7 0 1 1 0-19.5 9.7 9.7 0 0 1 0 19.5" fill="#005bbbD1"/><path d="M310.8-226.5a9.8 9.8 0 1 1 0-19.7 9.8 9.8 0 0 1 0 19.7" fill="#fffD3"/><path d="M241.3 18.4a9.9 9.9 0 1 1 0-19.7 9.9 9.9 0 0 1 0 19.7" fill="#fffD4"/><path d="M70.5 66.9a9.9 9.9 0 1 1 0-19.7 9.9 9.9 0 0 1 0 19.7" fill="#fffD4"/><path d="M165.8 58.7a9.9 9.9 0 1 1 0-19.7 9.9 9.9 0 0 1 0 19.7" fill="#005bbbD4"/><path d="M257.3-308a9.9 9.9 0 1 1 0-19.8 9.9 9.9 0 0 1 0 19.8" fill="#fff500D4"/><path d="M302-240.3a9.9 9.9 0 1 1 0-19.9 9.9 9.9 0 0 1 0 19.9" fill="#005bbbD5"/><path d="M-35.1 20.9a9.9 9.9 0 1 1 0-19.9 9.9 9.9 0 0 1 0 19.9" fill="#c2e1ffD5"/><path d="M-14-338.2a10 10 0 1 1 0-20 10 10 0 0 1 0 20" fill="#005bbbD7"/><path d="M205.7-342.3a10 10 0 1 1 0-20 10 10 0 0 1 0 20" fill="#c2e1ffD7"/><path d="M-116.7-139.7a10 10 0 1 1 0-20.1 10 10 0 0 1 0 20.1" fill="#005bbbD7"/><path d="M270.2-286a10 10 0 1 1 0-20.1 10 10 0 0 1 0 20.1" fill="#c2e1ffD8"/><path d="M-24.2-328.9a10.1 10.1 0 1 1 0-20.1 10.1 10.1 0 0 1 0 20.1" fill="#005bbbD8"/><path d="M-113.5-157.5a10.1 10.1 0 1 1 0-20.2 10.1 10.1 0 0 1 0 20.2" fill="#fff500D9"/><path d="M75.1 58a10.2 10.2 0 1 1 0-20.3 10.2 10.2 0 0 1 0 20.3" fill="#fff500DA"/><path d="M77.2 58.1a10.2 10.2 0 1 1 0-20.3 10.2 10.2 0 0 1 0 20.3" fill="#fff500DA"/><path d="M113.2-363.4a10.2 10.2 0 1 1 0-20.3 10.2 10.2 0 0 1 0 20.3" fill="#c2e1ffDA"/><path d="M298.9-219.9a10.2 10.2 0 1 1 0-20.4 10.2 10.2 0 0 1 0 20.4" fill="#fffDB"/><path d="M305.1-190.8a10.2 10.2 0 1 1 0-20.4 10.2 10.2 0 0 1 0 20.4" fill="#fffDC"/><path d="M105.1-357.8a10.3 10.3 0 1 1 0-20.6 10.3 10.3 0 0 1 0 20.6" fill="#fffDD"/><path d="M147.6-347.2a10.4 10.4 0 1 1 0-20.9 10.4 10.4 0 0 1 0 20.9" fill="#fff500E0"/><path d="M-13.3-315.2a10.5 10.5 0 1 1 0-20.9 10.5 10.5 0 0 1 0 20.9" fill="#c2e1ffE1"/><path d="M139.2 41.4a10.5 10.5 0 1 1 0-20.9 10.5 10.5 0 0 1 0 20.9" fill="#fffE1"/><path d="M91.4 45a10.5 10.5 0 1 1 0-21 10.5 10.5 0 0 1 0 21" fill="#fff500E1"/><path d="M-41.5-16.5a10.5 10.5 0 1 1 0-21 10.5 10.5 0 0 1 0 21" fill="#005bbbE2"/><path d="M7-320.9a10.6 10.6 0 1 1 0-21.1 10.6 10.6 0 0 1 0 21.1" fill="#fff500E3"/><path d="M60.3 34a10.6 10.6 0 1 1 0-21.2 10.6 10.6 0 0 1 0 21.2" fill="#fffE4"/><path d="M281.4-205.4a10.6 10.6 0 1 1 0-21.3 10.6 10.6 0 0 1 0 21.3" fill="#fffE4"/><path d="M286.3-178.7a10.6 10.6 0 1 1 0-21.3 10.6 10.6 0 0 1 0 21.3" fill="#fff500E5"/><path d="M200.5-309.4a10.7 10.7 0 1 1 0-21.4 10.7 10.7 0 0 1 0 21.4" fill="#c2e1ffE5"/><path d="M259.4-241.7a10.7 10.7 0 1 1 0-21.4 10.7 10.7 0 0 1 0 21.4" fill="#fff500E7"/><path d="M127.5 24.7a10.8 10.8 0 1 1 0-21.5 10.8 10.8 0 0 1 0 21.5" fill="#005bbbE8"/><path d="M-18.6-270.9a10.9 10.9 0 1 1 0-21.9 10.9 10.9 0 0 1 0 21.9" fill="#fff500EB"/><path d="M-58.9-101a11 11 0 1 1 0-21.9 11 11 0 0 1 0 21.9" fill="#fff500EC"/><path d="M-50.9-220.3a11 11 0 1 1 0-21.9 11 11 0 0 1 0 21.9" fill="#c2e1ffEC"/><path d="M260.5-116.3a11 11 0 1 1 0-22 11 11 0 0 1 0 22" fill="#005bbbEC"/><path d="M256-101.5a11 11 0 1 1 0-22 11 11 0 0 1 0 22" fill="#fffEC"/><path d="M-55.6-104.6a11 11 0 1 1 0-22 11 11 0 0 1 0 22" fill="#fff500ED"/><path d="M83.6 9a11 11 0 1 1 0-22.1 11 11 0 0 1 0 22.1" fill="#005bbbED"/><path d="M198.9-278a11 11 0 1 1 0-22.1 11 11 0 0 1 0 22.1" fill="#005bbbED"/><path d="M-53.3-113.4a11.1 11.1 0 1 1 0-22.1 11.1 11.1 0 0 1 0 22.1" fill="#fff500EE"/><path d="M52.3-2.1a11.1 11.1 0 1 1 0-22.1 11.1 11.1 0 0 1 0 22.1" fill="#fffEE"/><path d="M-55.4-135.2a11.1 11.1 0 1 1 0-22.2 11.1 11.1 0 0 1 0 22.2" fill="#c2e1ffEE"/><path d="M-14.1-47.9a11.1 11.1 0 1 1 0-22.2 11.1 11.1 0 0 1 0 22.2" fill="#005bbbEF"/><path d="M65-2.4a11.1 11.1 0 1 1 0-22.2 11.1 11.1 0 0 1 0 22.2" fill="#005bbbEF"/><path d="M220.5-243a11.1 11.1 0 1 1 0-22.2 11.1 11.1 0 0 1 0 22.2" fill="#c2e1ffEF"/><path d="M27.8-279.3a11.2 11.2 0 1 1 0-22.3 11.2 11.2 0 0 1 0 22.3" fill="#c2e1ffF0"/><path d="M232-209.9a11.2 11.2 0 1 1 0-22.4 11.2 11.2 0 0 1 0 22.4" fill="#c2e1ffF1"/><path d="M214.3-70.2a11.2 11.2 0 1 1 0-22.5 11.2 11.2 0 0 1 0 22.5" fill="#c2e1ffF2"/><path d="M115-18.1a11.3 11.3 0 1 1 0-22.6 11.3 11.3 0 0 1 0 22.6" fill="#fffF3"/><path d="M156.3-31.2a11.3 11.3 0 1 1 0-22.6 11.3 11.3 0 0 1 0 22.6" fill="#fff500F3"/><path d="M112.7-33.7a11.4 11.4 0 1 1 0-22.8 11.4 11.4 0 0 1 0 22.8" fill="#c2e1ffF6"/><path d="M147.6-258.7a11.4 11.4 0 1 1 0-22.8 11.4 11.4 0 0 1 0 22.8" fill="#005bbbF6"/><path d="M181.5-72.1a11.4 11.4 0 1 1 0-22.9 11.4 11.4 0 0 1 0 22.9" fill="#fff500F7"/><path d="M75.6-258.3a11.5 11.5 0 1 1 0-22.9 11.5 11.5 0 0 1 0 22.9" fill="#c2e1ffF7"/><path d="M79.5-53a11.5 11.5 0 1 1 0-23.1 11.5 11.5 0 0 1 0 23.1" fill="#c2e1ffF8"/><path d="M97.7-55.7a11.6 11.6 0 1 1 0-23.1 11.6 11.6 0 0 1 0 23.1" fill="#005bbbF9"/><path d="M180-153.3a11.6 11.6 0 1 1 0-23.3 11.6 11.6 0 0 1 0 23.3" fill="#fffFB"/><path d="M46.1-92.6a11.6 11.6 0 1 1 0-23.3 11.6 11.6 0 0 1 0 23.3" fill="#fffFB"/><path d="M176.6-166.6a11.6 11.6 0 1 1 0-23.3 11.6 11.6 0 0 1 0 23.3" fill="#005bbbFB"/><path d="M32.6-131.8a11.7 11.7 0 1 1 0-23.4 11.7 11.7 0 0 1 0 23.4" fill="#005bbbFC"/><path d="M62.3-209.3a11.7 11.7 0 1 1 0-23.4 11.7 11.7 0 0 1 0 23.4" fill="#005bbbFC"/><path d="M140.6-191.5a11.7 11.7 0 1 1 0-23.5 11.7 11.7 0 0 1 0 23.5" fill="#005bbbFD"/><path d="M53.2-135.8a11.7 11.7 0 1 1 0-23.5 11.7 11.7 0 0 1 0 23.5" fill="#fffFD"/><path d="M91.5-107.6a11.8 11.8 0 1 1 0-23.6 11.8 11.8 0 0 1 0 23.6" fill="#005bbbFD"/><path d="M106.2-157.9a11.8 11.8 0 1 1 0-23.6 11.8 11.8 0 0 1 0 23.6" fill="#c2e1ffFE"/></g></svg>