<svg width="1200" height="675" viewBox="-500 -500 1200 675" xmlns="http://www.w3.org/2000/svg"><path d="M-500-500h1200v675h-1200z" fill="#000"/><style>.sparkles path{stroke-linecap:round; stroke-width:1}</style><g class="sparkles"><path d="M100-162.5l-24.8-1.9" stroke="#ffffff32"/><path d="M100-162.5l11.4-38.2" stroke="#e5e5e532"/><path d="M100-162.5l-15.8 61.3" stroke="#e5e5e533"/><path d="M100-162.5l-27.4 62.1" stroke="#14213d34"/><path d="M100-162.5l23.6-86.8" stroke="#ffffff35"/><path d="M100-162.5l84.9-59.9" stroke="#fca31137"/><path d="M100-162.5l-68.7-81.2" stroke="#14213d37"/><path d="M100-162.5l104.8 27.9" stroke="#ffffff37"/><path d="M100-162.5l-40-111.6" stroke="#14213d38"/><path d="M100-162.5l98-68.5" stroke="#14213d38"/><path d="M100-162.5l110.1-47.1" stroke="#14213d38"/><path d="M100-162.5l87.4 82.2" stroke="#14213d38"/><path d="M100-162.5l106.8-58.3" stroke="#ffffff39"/><path d="M100-162.5l-124.9-17.5" stroke="#ffffff39"/><path d="M100-162.5l-122-47.5" stroke="#fca3113A"/><path d="M100-162.5l-131.1-41" stroke="#fca3113B"/><path d="M100-162.5l-73.8 123.5" stroke="#14213d3C"/><path d="M100-162.5l-98.6 107.8" stroke="#fca3113C"/><path d="M100-162.5l127.6 74.6" stroke="#e5e5e53C"/><path d="M100-162.5l-59.2 136.5" stroke="#fca3113D"/><path d="M100-162.5l64.9 137.2" stroke="#e5e5e53D"/><path d="M100-162.5l-28.7-150.5" stroke="#1122333D"/><path d="M100-162.5l126-87.6" stroke="#1122333D"/><path d="M100-162.5l-36-151.1" stroke="#fca3113E"/><path d="M100-162.5l-11-160.4" stroke="#1122333F"/><path d="M100-162.5l-77.5-146.2" stroke="#fca31140"/><path d="M100-162.5l-164.1-21.7" stroke="#11223340"/><path d="M100-162.5l165.3-24.2" stroke="#11223340"/><path d="M100-162.5l88.7 143.5" stroke="#e5e5e540"/><path d="M100-162.5l-169.3-3.9" stroke="#11223341"/><path d="M100-162.5l-143.1-91.5" stroke="#fca31141"/><path d="M100-162.5l-170.4-24.7" stroke="#14213d41"/><path d="M100-162.5l170 29.5" stroke="#fca31141"/><path d="M100-162.5l-102.1 140.9" stroke="#e5e5e542"/><path d="M100-162.5l-131-122.1" stroke="#11223343"/><path d="M100-162.5l-89.3-158.9" stroke="#14213d44"/><path d="M100-162.5l-42-181.4" stroke="#14213d45"/><path d="M100-162.5l1.3 194.1" stroke="#14213d47"/><path d="M100-162.5l167.2-98.8" stroke="#ffffff47"/><path d="M100-162.5l193.4-28.4" stroke="#e5e5e547"/><path d="M100-162.5l198.5-25.5" stroke="#11223349"/><path d="M100-162.5l-194.3 48.6" stroke="#fca31149"/><path d="M100-162.5l-191.5 64.8" stroke="#e5e5e54A"/><path d="M100-162.5l174.7 103.1" stroke="#1122334A"/><path d="M100-162.5l207.2 0" stroke="#14213d4B"/><path d="M100-162.5l-195.5-76.3" stroke="#fca3114D"/><path d="M100-162.5l205.7-41.5" stroke="#1122334D"/><path d="M100-162.5l-99.2 186.3" stroke="#fca3114D"/><path d="M100-162.5l71.6 200.9" stroke="#ffffff4E"/><path d="M100-162.5l207.5 58.2" stroke="#fca3114F"/><path d="M100-162.5l-45.3 211.9" stroke="#e5e5e550"/><path d="M100-162.5l82.2 201.4" stroke="#ffffff50"/><path d="M100-162.5l59.3 210.1" stroke="#11223350"/><path d="M100-162.5l-213.6-45.7" stroke="#11223350"/><path d="M100-162.5l-197.2-97.1" stroke="#fca31151"/><path d="M100-162.5l193-106" stroke="#ffffff51"/><path d="M100-162.5l220 18.3" stroke="#11223352"/><path d="M100-162.5l-136.4-174.1" stroke="#fca31152"/><path d="M100-162.5l108.9-197.5" stroke="#14213d55"/><path d="M100-162.5l-217.8 59.5" stroke="#11223355"/><path d="M100-162.5l-99.1 205.1" stroke="#14213d56"/><path d="M100-162.5l59.8 220.3" stroke="#ffffff57"/><path d="M100-162.5l-65.9 219" stroke="#fca31157"/><path d="M100-162.5l144 178.9" stroke="#11223358"/><path d="M100-162.5l-204.4-105" stroke="#ffffff58"/><path d="M100-162.5l-25.9 229" stroke="#e5e5e558"/><path d="M100-162.5l173.5 152.2" stroke="#11223359"/><path d="M100-162.5l178.4-147.5" stroke="#14213d59"/><path d="M100-162.5l90-213.8" stroke="#1122335A"/><path d="M100-162.5l-155.6-172.8" stroke="#14213d5B"/><path d="M100-162.5l212.9-95" stroke="#e5e5e55B"/><path d="M100-162.5l195.6-126.8" stroke="#1122335B"/><path d="M100-162.5l-71.9 222.6" stroke="#1122335C"/><path d="M100-162.5l233.4 15.7" stroke="#14213d5C"/><path d="M100-162.5l181.2 147.9" stroke="#1122335D"/><path d="M100-162.5l-98.8-212.3" stroke="#e5e5e55D"/><path d="M100-162.5l35.1 232.1" stroke="#fca3115E"/><path d="M100-162.5l35.3-232.4" stroke="#1122335E"/><path d="M100-162.5l220.2-82.5" stroke="#e5e5e55F"/><path d="M100-162.5l-229.1-54.8" stroke="#11223360"/><path d="M100-162.5l-17.6 235" stroke="#14213d60"/><path d="M100-162.5l-88.9-218.4" stroke="#11223360"/><path d="M100-162.5l62.6-227.3" stroke="#11223360"/><path d="M100-162.5l-14 235.4" stroke="#e5e5e561"/><path d="M100-162.5l235.4 17.4" stroke="#14213d62"/><path d="M100-162.5l127.6-198.7" stroke="#14213d62"/><path d="M100-162.5l-201.1 123.9" stroke="#14213d63"/><path d="M100-162.5l-174.2 159.6" stroke="#14213d63"/><path d="M100-162.5l220.3-85.3" stroke="#11223364"/><path d="M100-162.5l-235.1-23.3" stroke="#e5e5e564"/><path d="M100-162.5l236.2-1.3" stroke="#e5e5e564"/><path d="M100-162.5l234.9-24" stroke="#14213d65"/><path d="M100-162.5l123.9-201" stroke="#fca31165"/><path d="M100-162.5l-227.9-60.3" stroke="#ffffff67"/><path d="M100-162.5l234.8 15.1" stroke="#ffffff68"/><path d="M100-162.5l64.6 226.3" stroke="#e5e5e568"/><path d="M100-162.5l-62 226.9" stroke="#e5e5e568"/><path d="M100-162.5l182.7 147" stroke="#1122336A"/><path d="M100-162.5l-196.6 127.7" stroke="#fca3116A"/><path d="M100-162.5l-62.4 225.6" stroke="#14213d6A"/><path d="M100-162.5l231.7-32.6" stroke="#ffffff6A"/><path d="M100-162.5l-33.3-230.3" stroke="#1122336C"/><path d="M100-162.5l97.6-210.8" stroke="#e5e5e56D"/><path d="M100-162.5l107.6-205.3" stroke="#fca3116D"/><path d="M100-162.5l-226.7-43.1" stroke="#e5e5e56E"/><path d="M100-162.5l157.3 166.9" stroke="#14213d6F"/><path d="M100-162.5l-77.1-213.5" stroke="#11223371"/><path d="M100-162.5l-215.5-66.1" stroke="#fca31172"/><path d="M100-162.5l-155.9-161.3" stroke="#ffffff73"/><path d="M100-162.5l-219.7-40.8" stroke="#ffffff74"/><path d="M100-162.5l-125.5 184.6" stroke="#fca31174"/><path d="M100-162.5l-222.6 15.7" stroke="#11223374"/><path d="M100-162.5l94.6-202" stroke="#fca31174"/><path d="M100-162.5l65.8 213.1" stroke="#e5e5e574"/><path d="M100-162.5l-212.4 67.1" stroke="#11223374"/><path d="M100-162.5l-196.3-102.1" stroke="#ffffff75"/><path d="M100-162.5l175.5 129.7" stroke="#fca31177"/><path d="M100-162.5l-1.4-218.1" stroke="#11223377"/><path d="M100-162.5l-68.5-206.1" stroke="#14213d77"/><path d="M100-162.5l216.4-10.3" stroke="#14213d77"/><path d="M100-162.5l130.9-165.9" stroke="#e5e5e57A"/><path d="M100-162.5l77.9 193.3" stroke="#1122337B"/><path d="M100-162.5l188.9 87.3" stroke="#ffffff7B"/><path d="M100-162.5l61.7 198.2" stroke="#fca3117B"/><path d="M100-162.5l205.3-11.3" stroke="#e5e5e57C"/><path d="M100-162.5l202.8-28.3" stroke="#e5e5e57C"/><path d="M100-162.5l-116.1 163.5" stroke="#fca3117E"/><path d="M100-162.5l-152 126.6" stroke="#1122337F"/><path d="M100-162.5l-156.6-119.7" stroke="#14213d7F"/><path d="M100-162.5l137.1-138.7" stroke="#fca31180"/><path d="M100-162.5l165-103.1" stroke="#ffffff80"/><path d="M100-162.5l193.6-6.5" stroke="#ffffff80"/><path d="M100-162.5l-186.9 39.3" stroke="#11223381"/><path d="M100-162.5l-151.2 111.8" stroke="#11223382"/><path d="M100-162.5l185.8-20.2" stroke="#fca31182"/><path d="M100-162.5l114.2 147.2" stroke="#fca31182"/><path d="M100-162.5l-145.4 111.4" stroke="#fca31183"/><path d="M100-162.5l-75.3-165.4" stroke="#fca31183"/><path d="M100-162.5l-135.6-118.9" stroke="#ffffff84"/><path d="M100-162.5l173.3 38.9" stroke="#fca31184"/><path d="M100-162.5l158.6 71.7" stroke="#fca31185"/><path d="M100-162.5l63.8 159.8" stroke="#ffffff86"/><path d="M100-162.5l-129.9 109.2" stroke="#e5e5e586"/><path d="M100-162.5l-138.5-97.6" stroke="#11223386"/><path d="M100-162.5l168.8-6.4" stroke="#11223386"/><path d="M100-162.5l-168.2-8.2" stroke="#e5e5e587"/><path d="M100-162.5l-165.6-15.1" stroke="#ffffff87"/><path d="M100-162.5l-156-55.5" stroke="#14213d87"/><path d="M100-162.5l151 63.2" stroke="#e5e5e588"/><path d="M100-162.5l-146.2 62.9" stroke="#fca31188"/><path d="M100-162.5l-99.1 118.9" stroke="#11223389"/><path d="M100-162.5l-135.4 73.3" stroke="#e5e5e589"/><path d="M100-162.5l-146.4-47.1" stroke="#fca31189"/><path d="M100-162.5l-147.3 38.7" stroke="#14213d8A"/><path d="M100-162.5l-147.8 23" stroke="#1122338A"/><path d="M100-162.5l72.5-128.9" stroke="#e5e5e58A"/><path d="M100-162.5l72.7 127.1" stroke="#e5e5e58B"/><path d="M100-162.5l134.2-53" stroke="#fca3118B"/><path d="M100-162.5l-135.6-31.3" stroke="#14213d8C"/><path d="M100-162.5l80 109.7" stroke="#14213d8C"/><path d="M100-162.5l122.5 16.6" stroke="#e5e5e58E"/><path d="M100-162.5l64-102.6" stroke="#e5e5e58E"/><path d="M100-162.5l-79 88.4" stroke="#14213d8F"/><path d="M100-162.5l84.3-73.5" stroke="#ffffff90"/><path d="M100-162.5l107.8-10.6" stroke="#14213d90"/><path d="M100-162.5l103.9 29.9" stroke="#e5e5e590"/><path d="M100-162.5l41.8 96.4" stroke="#e5e5e590"/><path d="M100-162.5l-77.1 62.7" stroke="#11223391"/><path d="M100-162.5l-93.8 15.9" stroke="#ffffff91"/><path d="M100-162.5l87.8 15.8" stroke="#ffffff92"/><path d="M100-162.5l-88.5 10.2" stroke="#ffffff92"/><path d="M100-162.5l-46.9-61.2" stroke="#e5e5e593"/><path d="M100-162.5l20.5 74" stroke="#ffffff93"/><path d="M100-162.5l6.1 65.5" stroke="#ffffff94"/><path d="M100-162.5l54.5 35.3" stroke="#ffffff94"/><path d="M100-162.5l-39.5 49.4" stroke="#11223394"/><path d="M100-162.5l6.6 61.8" stroke="#ffffff94"/><path d="M100-162.5l28.4-42.4" stroke="#14213d94"/><path d="M100-162.5l29.4 32.5" stroke="#fca31195"/><path d="M100-162.5l0.2-29.8" stroke="#fca31195"/><path d="M100-162.5l-7.4-8.4" stroke="#ffffff95"/></g><g class="sparcs"><path d="M75.2-158.5a5.9 5.9 0 1 1 0-11.8 5.9 5.9 0 0 1 0 11.8" fill="#1122337D"/><path d="M111.4-194.8a5.9 5.9 0 1 1 0-11.9 5.9 5.9 0 0 1 0 11.9" fill="#14213d7D"/><path d="M84.2-95.2a6 6 0 1 1 0-12 6 6 0 0 1 0 12" fill="#fca3117F"/><path d="M72.6-94.3a6 6 0 1 1 0-12.1 6 6 0 0 1 0 12.1" fill="#e5e5e57F"/><path d="M123.6-243.1a6.1 6.1 0 1 1 0-12.3 6.1 6.1 0 0 1 0 12.3" fill="#fca31181"/><path d="M184.9-216.2a6.2 6.2 0 1 1 0-12.4 6.2 6.2 0 0 1 0 12.4" fill="#e5e5e583"/><path d="M31.3-237.4a6.2 6.2 0 1 1 0-12.5 6.2 6.2 0 0 1 0 12.5" fill="#14213d83"/><path d="M204.8-128.3a6.2 6.2 0 1 1 0-12.5 6.2 6.2 0 0 1 0 12.5" fill="#e5e5e584"/><path d="M60-267.8a6.3 6.3 0 1 1 0-12.6 6.3 6.3 0 0 1 0 12.6" fill="#e5e5e585"/><path d="M198-224.7a6.3 6.3 0 1 1 0-12.6 6.3 6.3 0 0 1 0 12.6" fill="#ffffff85"/><path d="M210.1-203.3a6.3 6.3 0 1 1 0-12.6 6.3 6.3 0 0 1 0 12.6" fill="#14213d85"/><path d="M187.4-73.9a6.3 6.3 0 1 1 0-12.7 6.3 6.3 0 0 1 0 12.7" fill="#11223386"/><path d="M206.8-214.4a6.3 6.3 0 1 1 0-12.7 6.3 6.3 0 0 1 0 12.7" fill="#e5e5e586"/><path d="M-24.9-173.7a6.4 6.4 0 1 1 0-12.7 6.4 6.4 0 0 1 0 12.7" fill="#e5e5e587"/><path d="M-22-203.6a6.4 6.4 0 1 1 0-12.8 6.4 6.4 0 0 1 0 12.8" fill="#14213d87"/><path d="M-31.1-197a6.5 6.5 0 1 1 0-13 6.5 6.5 0 0 1 0 13" fill="#14213d89"/><path d="M26.2-32.4a6.5 6.5 0 1 1 0-13.1 6.5 6.5 0 0 1 0 13.1" fill="#1122338A"/><path d="M1.4-48.2a6.5 6.5 0 1 1 0-13.1 6.5 6.5 0 0 1 0 13.1" fill="#fca3118A"/><path d="M227.6-81.3a6.6 6.6 0 1 1 0-13.1 6.6 6.6 0 0 1 0 13.1" fill="#ffffff8B"/><path d="M40.8-19.4a6.6 6.6 0 1 1 0-13.1 6.6 6.6 0 0 1 0 13.1" fill="#14213d8B"/><path d="M164.9-18.7a6.6 6.6 0 1 1 0-13.2 6.6 6.6 0 0 1 0 13.2" fill="#1122338C"/><path d="M71.3-306.4a6.6 6.6 0 1 1 0-13.2 6.6 6.6 0 0 1 0 13.2" fill="#ffffff8C"/><path d="M226-243.5a6.6 6.6 0 1 1 0-13.3 6.6 6.6 0 0 1 0 13.3" fill="#fca3118C"/><path d="M64-307a6.6 6.6 0 1 1 0-13.3 6.6 6.6 0 0 1 0 13.3" fill="#e5e5e58D"/><path d="M89-316.2a6.7 6.7 0 1 1 0-13.4 6.7 6.7 0 0 1 0 13.4" fill="#e5e5e58E"/><path d="M22.5-301.9a6.8 6.8 0 1 1 0-13.5 6.8 6.8 0 0 1 0 13.5" fill="#e5e5e58F"/><path d="M-64.1-177.4a6.8 6.8 0 1 1 0-13.6 6.8 6.8 0 0 1 0 13.6" fill="#fca3118F"/><path d="M265.3-179.9a6.8 6.8 0 1 1 0-13.5 6.8 6.8 0 0 1 0 13.5" fill="#11223390"/><path d="M188.7-12.2a6.8 6.8 0 1 1 0-13.6 6.8 6.8 0 0 1 0 13.6" fill="#11223390"/><path d="M-69.3-159.6a6.8 6.8 0 1 1 0-13.6 6.8 6.8 0 0 1 0 13.6" fill="#11223390"/><path d="M-43.1-247.2a6.8 6.8 0 1 1 0-13.6 6.8 6.8 0 0 1 0 13.6" fill="#11223390"/><path d="M-70.4-180.3a6.8 6.8 0 1 1 0-13.7 6.8 6.8 0 0 1 0 13.7" fill="#fca31191"/><path d="M270-126.2a6.8 6.8 0 1 1 0-13.7 6.8 6.8 0 0 1 0 13.7" fill="#ffffff91"/><path d="M-2.1-14.7a6.9 6.9 0 1 1 0-13.7 6.9 6.9 0 0 1 0 13.7" fill="#11223392"/><path d="M-31-277.7a6.9 6.9 0 1 1 0-13.8 6.9 6.9 0 0 1 0 13.8" fill="#fca31193"/><path d="M10.7-314.4a7 7 0 1 1 0-14 7 7 0 0 1 0 14" fill="#14213d94"/><path d="M58-336.9a7 7 0 1 1 0-14.1 7 7 0 0 1 0 14.1" fill="#11223395"/><path d="M101.3 38.7a7.2 7.2 0 1 1 0-14.3 7.2 7.2 0 0 1 0 14.3" fill="#fca31198"/><path d="M267.2-254.1a7.2 7.2 0 1 1 0-14.4 7.2 7.2 0 0 1 0 14.4" fill="#ffffff98"/><path d="M293.4-183.7a7.2 7.2 0 1 1 0-14.4 7.2 7.2 0 0 1 0 14.4" fill="#ffffff99"/><path d="M298.5-180.7a7.3 7.3 0 1 1 0-14.6 7.3 7.3 0 0 1 0 14.6" fill="#fca3119B"/><path d="M-94.3-106.6a7.3 7.3 0 1 1 0-14.6 7.3 7.3 0 0 1 0 14.6" fill="#1122339B"/><path d="M-91.5-90.4a7.3 7.3 0 1 1 0-14.7 7.3 7.3 0 0 1 0 14.7" fill="#fca3119C"/><path d="M274.7-52a7.3 7.3 0 1 1 0-14.7 7.3 7.3 0 0 1 0 14.7" fill="#14213d9C"/><path d="M307.2-155.1a7.4 7.4 0 1 1 0-14.8 7.4 7.4 0 0 1 0 14.8" fill="#14213d9E"/><path d="M-95.5-231.3a7.5 7.5 0 1 1 0-15 7.5 7.5 0 0 1 0 15" fill="#fca311A0"/><path d="M305.7-196.5a7.5 7.5 0 1 1 0-15 7.5 7.5 0 0 1 0 15" fill="#14213dA0"/><path d="M0.8 31.4a7.5 7.5 0 1 1 0-15.1 7.5 7.5 0 0 1 0 15.1" fill="#ffffffA0"/><path d="M171.6 46a7.6 7.6 0 1 1 0-15.2 7.6 7.6 0 0 1 0 15.2" fill="#14213dA2"/><path d="M307.5-96.7a7.6 7.6 0 1 1 0-15.3 7.6 7.6 0 0 1 0 15.3" fill="#fca311A3"/><path d="M54.7 57.1a7.7 7.7 0 1 1 0-15.4 7.7 7.7 0 0 1 0 15.4" fill="#112233A4"/><path d="M182.2 46.7a7.7 7.7 0 1 1 0-15.5 7.7 7.7 0 0 1 0 15.5" fill="#112233A4"/><path d="M159.3 55.3a7.7 7.7 0 1 1 0-15.4 7.7 7.7 0 0 1 0 15.4" fill="#fca311A5"/><path d="M-113.6-200.4a7.7 7.7 0 1 1 0-15.5 7.7 7.7 0 0 1 0 15.5" fill="#e5e5e5A5"/><path d="M-97.2-251.8a7.8 7.8 0 1 1 0-15.5 7.8 7.8 0 0 1 0 15.5" fill="#ffffffA6"/><path d="M293-260.8a7.8 7.8 0 1 1 0-15.5 7.8 7.8 0 0 1 0 15.5" fill="#ffffffA6"/><path d="M320-136.4a7.8 7.8 0 1 1 0-15.7 7.8 7.8 0 0 1 0 15.7" fill="#e5e5e5A6"/><path d="M-36.4-328.8a7.8 7.8 0 1 1 0-15.6 7.8 7.8 0 0 1 0 15.6" fill="#112233A7"/><path d="M208.9-352a8 8 0 1 1 0-15.9 8 8 0 0 1 0 15.9" fill="#ffffffAA"/><path d="M-117.8-95a8 8 0 1 1 0-16 8 8 0 0 1 0 16" fill="#ffffffAA"/><path d="M0.9 50.7a8.1 8.1 0 1 1 0-16.1 8.1 8.1 0 0 1 0 16.1" fill="#e5e5e5AC"/><path d="M159.8 65.9a8.1 8.1 0 1 1 0-16.2 8.1 8.1 0 0 1 0 16.2" fill="#ffffffAD"/><path d="M34.1 64.6a8.1 8.1 0 1 1 0-16.2 8.1 8.1 0 0 1 0 16.2" fill="#ffffffAD"/><path d="M244 24.5a8.2 8.2 0 1 1 0-16.3 8.2 8.2 0 0 1 0 16.3" fill="#ffffffAE"/><path d="M-104.4-259.3a8.2 8.2 0 1 1 0-16.4 8.2 8.2 0 0 1 0 16.4" fill="#ffffffAE"/><path d="M74.1 74.7a8.2 8.2 0 1 1 0-16.4 8.2 8.2 0 0 1 0 16.4" fill="#ffffffAF"/><path d="M273.5-2.1a8.2 8.2 0 1 1 0-16.5 8.2 8.2 0 0 1 0 16.5" fill="#ffffffB0"/><path d="M278.4-301.7a8.3 8.3 0 1 1 0-16.6 8.3 8.3 0 0 1 0 16.6" fill="#14213dB0"/><path d="M190-368a8.3 8.3 0 1 1 0-16.6 8.3 8.3 0 0 1 0 16.6" fill="#e5e5e5B1"/><path d="M-55.6-327a8.3 8.3 0 1 1 0-16.7 8.3 8.3 0 0 1 0 16.7" fill="#e5e5e5B2"/><path d="M312.9-249.1a8.4 8.4 0 1 1 0-16.8 8.4 8.4 0 0 1 0 16.8" fill="#e5e5e5B3"/><path d="M295.6-280.9a8.4 8.4 0 1 1 0-16.8 8.4 8.4 0 0 1 0 16.8" fill="#ffffffB3"/><path d="M28.1 68.5a8.4 8.4 0 1 1 0-16.9 8.4 8.4 0 0 1 0 16.9" fill="#ffffffB4"/><path d="M333.4-138.3a8.4 8.4 0 1 1 0-16.9 8.4 8.4 0 0 1 0 16.9" fill="#fca311B4"/><path d="M281.2-6.1a8.4 8.4 0 1 1 0-16.9 8.4 8.4 0 0 1 0 16.9" fill="#fca311B4"/><path d="M1.2-366.3a8.5 8.5 0 1 1 0-16.9 8.5 8.5 0 0 1 0 16.9" fill="#112233B5"/><path d="M135.1 78.1a8.5 8.5 0 1 1 0-17.1 8.5 8.5 0 0 1 0 17.1" fill="#e5e5e5B6"/><path d="M135.3-386.3a8.6 8.6 0 1 1 0-17.1 8.6 8.6 0 0 1 0 17.1" fill="#14213dB7"/><path d="M320.2-236.4a8.6 8.6 0 1 1 0-17.2 8.6 8.6 0 0 1 0 17.2" fill="#e5e5e5B7"/><path d="M-129.1-208.7a8.6 8.6 0 1 1 0-17.2 8.6 8.6 0 0 1 0 17.2" fill="#e5e5e5B8"/><path d="M82.4 81.2a8.7 8.7 0 1 1 0-17.3 8.7 8.7 0 0 1 0 17.3" fill="#112233B9"/><path d="M11.1-372.2a8.7 8.7 0 1 1 0-17.4 8.7 8.7 0 0 1 0 17.4" fill="#112233B9"/><path d="M162.6-381.1a8.7 8.7 0 1 1 0-17.4 8.7 8.7 0 0 1 0 17.4" fill="#112233B9"/><path d="M86 81.6a8.7 8.7 0 1 1 0-17.4 8.7 8.7 0 0 1 0 17.4" fill="#e5e5e5BA"/><path d="M335.4-136.3a8.7 8.7 0 1 1 0-17.5 8.7 8.7 0 0 1 0 17.5" fill="#14213dBB"/><path d="M227.6-352.4a8.8 8.8 0 1 1 0-17.6 8.8 8.8 0 0 1 0 17.6" fill="#112233BB"/><path d="M-101.1-29.8a8.8 8.8 0 1 1 0-17.6 8.8 8.8 0 0 1 0 17.6" fill="#fca311BD"/><path d="M-74.2 6a8.9 8.9 0 1 1 0-17.7 8.9 8.9 0 0 1 0 17.7" fill="#ffffffBD"/><path d="M320.3-238.9a8.9 8.9 0 1 1 0-17.8 8.9 8.9 0 0 1 0 17.8" fill="#e5e5e5BE"/><path d="M-135.1-176.9a8.9 8.9 0 1 1 0-17.7 8.9 8.9 0 0 1 0 17.7" fill="#e5e5e5BE"/><path d="M336.2-154.9a8.9 8.9 0 1 1 0-17.8 8.9 8.9 0 0 1 0 17.8" fill="#112233BE"/><path d="M334.9-177.5a9 9 0 1 1 0-18 9 9 0 0 1 0 18" fill="#fca311C0"/><path d="M223.9-354.5a9 9 0 1 1 0-17.9 9 9 0 0 1 0 17.9" fill="#14213dC0"/><path d="M-127.9-213.8a9.1 9.1 0 1 1 0-18.1 9.1 9.1 0 0 1 0 18.1" fill="#ffffffC2"/><path d="M334.8-138.3a9.1 9.1 0 1 1 0-18.3 9.1 9.1 0 0 1 0 18.3" fill="#ffffffC3"/><path d="M164.6 72.9a9.1 9.1 0 1 1 0-18.2 9.1 9.1 0 0 1 0 18.2" fill="#ffffffC3"/><path d="M38 73.5a9.1 9.1 0 1 1 0-18.2 9.1 9.1 0 0 1 0 18.2" fill="#e5e5e5C4"/><path d="M282.7-6.3a9.2 9.2 0 1 1 0-18.4 9.2 9.2 0 0 1 0 18.4" fill="#ffffffC5"/><path d="M-96.6-25.6a9.2 9.2 0 1 1 0-18.4 9.2 9.2 0 0 1 0 18.4" fill="#e5e5e5C6"/><path d="M37.6 72.4a9.3 9.3 0 1 1 0-18.5 9.3 9.3 0 0 1 0 18.5" fill="#14213dC6"/><path d="M331.7-185.8a9.3 9.3 0 1 1 0-18.5 9.3 9.3 0 0 1 0 18.5" fill="#fca311C7"/><path d="M66.7-383.4a9.4 9.4 0 1 1 0-18.8 9.4 9.4 0 0 1 0 18.8" fill="#e5e5e5C9"/><path d="M197.6-363.9a9.4 9.4 0 1 1 0-18.8 9.4 9.4 0 0 1 0 18.8" fill="#e5e5e5C9"/><path d="M207.6-358.3a9.4 9.4 0 1 1 0-18.9 9.4 9.4 0 0 1 0 18.9" fill="#112233CA"/><path d="M-126.7-196.1a9.5 9.5 0 1 1 0-19 9.5 9.5 0 0 1 0 19" fill="#14213dCB"/><path d="M257.3 13.9a9.6 9.6 0 1 1 0-19.1 9.6 9.6 0 0 1 0 19.1" fill="#ffffffCD"/><path d="M22.9-366.4a9.7 9.7 0 1 1 0-19.3 9.7 9.7 0 0 1 0 19.3" fill="#14213dCF"/><path d="M-115.5-218.9a9.7 9.7 0 1 1 0-19.5 9.7 9.7 0 0 1 0 19.5" fill="#14213dD1"/><path d="M-55.9-314a9.8 9.8 0 1 1 0-19.6 9.8 9.8 0 0 1 0 19.6" fill="#fca311D2"/><path d="M-119.7-193.5a9.8 9.8 0 1 1 0-19.6 9.8 9.8 0 0 1 0 19.6" fill="#ffffffD3"/><path d="M-25.5 31.9a9.8 9.8 0 1 1 0-19.7 9.8 9.8 0 0 1 0 19.7" fill="#112233D3"/><path d="M-122.6-137a9.8 9.8 0 1 1 0-19.6 9.8 9.8 0 0 1 0 19.6" fill="#112233D3"/><path d="M194.6-354.7a9.8 9.8 0 1 1 0-19.7 9.8 9.8 0 0 1 0 19.7" fill="#e5e5e5D3"/><path d="M165.8 60.4a9.8 9.8 0 1 1 0-19.7 9.8 9.8 0 0 1 0 19.7" fill="#fca311D3"/><path d="M-112.4-85.6a9.8 9.8 0 1 1 0-19.7 9.8 9.8 0 0 1 0 19.7" fill="#fca311D3"/><path d="M-96.3-254.7a9.9 9.9 0 1 1 0-19.8 9.9 9.9 0 0 1 0 19.8" fill="#14213dD4"/><path d="M275.5-22.8a10 10 0 1 1 0-20 10 10 0 0 1 0 20" fill="#112233D6"/><path d="M98.6-370.6a10 10 0 1 1 0-20 10 10 0 0 1 0 20" fill="#fca311D6"/><path d="M31.5-358.6a10 10 0 1 1 0-20.1 10 10 0 0 1 0 20.1" fill="#fca311D7"/><path d="M316.4-162.8a10 10 0 1 1 0-20 10 10 0 0 1 0 20" fill="#112233D7"/><path d="M230.9-318.2a10.2 10.2 0 1 1 0-20.4 10.2 10.2 0 0 1 0 20.4" fill="#e5e5e5DB"/><path d="M177.9 41a10.2 10.2 0 1 1 0-20.5 10.2 10.2 0 0 1 0 20.5" fill="#ffffffDC"/><path d="M288.9-64.9a10.3 10.3 0 1 1 0-20.5 10.3 10.3 0 0 1 0 20.5" fill="#fca311DC"/><path d="M161.7 46a10.3 10.3 0 1 1 0-20.6 10.3 10.3 0 0 1 0 20.6" fill="#e5e5e5DD"/><path d="M305.3-163.5a10.3 10.3 0 1 1 0-20.6 10.3 10.3 0 0 1 0 20.6" fill="#14213dDE"/><path d="M302.8-180.5a10.3 10.3 0 1 1 0-20.6 10.3 10.3 0 0 1 0 20.6" fill="#112233DE"/><path d="M-16.1 11.5a10.4 10.4 0 1 1 0-20.9 10.4 10.4 0 0 1 0 20.9" fill="#fca311E0"/><path d="M-52-25.5a10.5 10.5 0 1 1 0-20.9 10.5 10.5 0 0 1 0 20.9" fill="#fca311E1"/><path d="M-56.6-271.8a10.5 10.5 0 1 1 0-20.9 10.5 10.5 0 0 1 0 20.9" fill="#fca311E1"/><path d="M237.1-290.7a10.5 10.5 0 1 1 0-21 10.5 10.5 0 0 1 0 21" fill="#14213dE2"/><path d="M265-255.1a10.5 10.5 0 1 1 0-21.1 10.5 10.5 0 0 1 0 21.1" fill="#e5e5e5E2"/><path d="M293.6-158.5a10.5 10.5 0 1 1 0-21.1 10.5 10.5 0 0 1 0 21.1" fill="#e5e5e5E3"/><path d="M-86.9-112.6a10.6 10.6 0 1 1 0-21.2 10.6 10.6 0 0 1 0 21.2" fill="#ffffffE4"/><path d="M-51.2-40.1a10.6 10.6 0 1 1 0-21.2 10.6 10.6 0 0 1 0 21.2" fill="#e5e5e5E5"/><path d="M285.8-172.1a10.7 10.7 0 1 1 0-21.3 10.7 10.7 0 0 1 0 21.3" fill="#ffffffE5"/><path d="M214.2-4.6a10.7 10.7 0 1 1 0-21.3 10.7 10.7 0 0 1 0 21.3" fill="#14213dE5"/><path d="M-45.4-40.3a10.7 10.7 0 1 1 0-21.5 10.7 10.7 0 0 1 0 21.5" fill="#e5e5e5E7"/><path d="M24.7-317.2a10.7 10.7 0 1 1 0-21.5 10.7 10.7 0 0 1 0 21.5" fill="#ffffffE7"/><path d="M-35.6-270.7a10.8 10.8 0 1 1 0-21.5 10.8 10.8 0 0 1 0 21.5" fill="#e5e5e5E7"/><path d="M273.3-112.8a10.8 10.8 0 1 1 0-21.6 10.8 10.8 0 0 1 0 21.6" fill="#ffffffE8"/><path d="M258.6-79.9a10.9 10.9 0 1 1 0-21.8 10.9 10.9 0 0 1 0 21.8" fill="#14213dE9"/><path d="M163.8 8.2a10.9 10.9 0 1 1 0-21.8 10.9 10.9 0 0 1 0 21.8" fill="#ffffffEA"/><path d="M-29.9-42.4a10.9 10.9 0 1 1 0-21.8 10.9 10.9 0 0 1 0 21.8" fill="#e5e5e5EB"/><path d="M-38.5-249.2a10.9 10.9 0 1 1 0-21.8 10.9 10.9 0 0 1 0 21.8" fill="#ffffffEB"/><path d="M268.8-158a10.9 10.9 0 1 1 0-21.8 10.9 10.9 0 0 1 0 21.8" fill="#e5e5e5EB"/><path d="M-68.2-159.7a10.9 10.9 0 1 1 0-21.9 10.9 10.9 0 0 1 0 21.9" fill="#112233EB"/><path d="M-65.6-166.6a11 11 0 1 1 0-22 11 11 0 0 1 0 22" fill="#e5e5e5EC"/><path d="M-56-207a11 11 0 1 1 0-21.9 11 11 0 0 1 0 21.9" fill="#14213dEC"/><path d="M251-88.3a11 11 0 1 1 0-22 11 11 0 0 1 0 22" fill="#e5e5e5EC"/><path d="M-46.2-88.6a11 11 0 1 1 0-22 11 11 0 0 1 0 22" fill="#112233EE"/><path d="M0.9-32.5a11.1 11.1 0 1 1 0-22.2 11.1 11.1 0 0 1 0 22.2" fill="#112233EF"/><path d="M-35.4-78.1a11.1 11.1 0 1 1 0-22.2 11.1 11.1 0 0 1 0 22.2" fill="#e5e5e5EF"/><path d="M-46.4-198.5a11.1 11.1 0 1 1 0-22.2 11.1 11.1 0 0 1 0 22.2" fill="#ffffffEF"/><path d="M-47.3-112.7a11.1 11.1 0 1 1 0-22.2 11.1 11.1 0 0 1 0 22.2" fill="#fca311EF"/><path d="M-47.8-128.4a11.1 11.1 0 1 1 0-22.2 11.1 11.1 0 0 1 0 22.2" fill="#ffffffF0"/><path d="M172.5-280.2a11.2 11.2 0 1 1 0-22.3 11.2 11.2 0 0 1 0 22.3" fill="#14213dF0"/><path d="M172.7-24.2a11.2 11.2 0 1 1 0-22.3 11.2 11.2 0 0 1 0 22.3" fill="#fca311F0"/><path d="M234.2-204.3a11.2 11.2 0 1 1 0-22.4 11.2 11.2 0 0 1 0 22.4" fill="#14213dF1"/><path d="M-35.6-182.5a11.2 11.2 0 1 1 0-22.5 11.2 11.2 0 0 1 0 22.5" fill="#e5e5e5F2"/><path d="M180-41.6a11.3 11.3 0 1 1 0-22.5 11.3 11.3 0 0 1 0 22.5" fill="#e5e5e5F3"/><path d="M222.5-134.5a11.4 11.4 0 1 1 0-22.8 11.4 11.4 0 0 1 0 22.8" fill="#ffffffF5"/><path d="M164-253.7a11.4 11.4 0 1 1 0-22.8 11.4 11.4 0 0 1 0 22.8" fill="#112233F5"/><path d="M21-62.6a11.4 11.4 0 1 1 0-22.9 11.4 11.4 0 0 1 0 22.9" fill="#e5e5e5F6"/><path d="M184.3-224.6a11.5 11.5 0 1 1 0-22.9 11.5 11.5 0 0 1 0 22.9" fill="#e5e5e5F7"/><path d="M207.8-161.6a11.5 11.5 0 1 1 0-23 11.5 11.5 0 0 1 0 23" fill="#112233F7"/><path d="M203.9-121.1a11.5 11.5 0 1 1 0-23 11.5 11.5 0 0 1 0 23" fill="#112233F7"/><path d="M141.8-54.6a11.5 11.5 0 1 1 0-23 11.5 11.5 0 0 1 0 23" fill="#e5e5e5F8"/><path d="M22.9-88.3a11.5 11.5 0 1 1 0-23.1 11.5 11.5 0 0 1 0 23.1" fill="#14213dF8"/><path d="M6.2-135a11.6 11.6 0 1 1 0-23.1 11.6 11.6 0 0 1 0 23.1" fill="#ffffffF9"/><path d="M187.8-135.1a11.6 11.6 0 1 1 0-23.2 11.6 11.6 0 0 1 0 23.2" fill="#14213dFA"/><path d="M11.5-140.7a11.6 11.6 0 1 1 0-23.2 11.6 11.6 0 0 1 0 23.2" fill="#ffffffFA"/><path d="M53.1-212.1a11.7 11.7 0 1 1 0-23.3 11.7 11.7 0 0 1 0 23.3" fill="#fca311FB"/><path d="M120.5-76.8a11.7 11.7 0 1 1 0-23.3 11.7 11.7 0 0 1 0 23.3" fill="#14213dFB"/><path d="M106.1-85.3a11.7 11.7 0 1 1 0-23.4 11.7 11.7 0 0 1 0 23.4" fill="#fca311FC"/><path d="M154.5-115.5a11.7 11.7 0 1 1 0-23.4 11.7 11.7 0 0 1 0 23.4" fill="#112233FC"/><path d="M60.5-101.4a11.7 11.7 0 1 1 0-23.4 11.7 11.7 0 0 1 0 23.4" fill="#112233FC"/><path d="M106.6-89a11.7 11.7 0 1 1 0-23.4 11.7 11.7 0 0 1 0 23.4" fill="#112233FC"/><path d="M128.4-193.1a11.7 11.7 0 1 1 0-23.5 11.7 11.7 0 0 1 0 23.5" fill="#14213dFD"/><path d="M129.4-118.2a11.8 11.8 0 1 1 0-23.5 11.8 11.8 0 0 1 0 23.5" fill="#112233FD"/><path d="M100.2-180.5a11.8 11.8 0 1 1 0-23.6 11.8 11.8 0 0 1 0 23.6" fill="#ffffffFE"/><path d="M92.6-159.1a11.8 11.8 0 1 1 0-23.6 11.8 11.8 0 0 1 0 23.6" fill="#112233FE"/></g></svg>