<svg width="1200" height="675" viewBox="-500 -500 1200 675" xmlns="http://www.w3.org/2000/svg"><path d="M-500-500h1200v675h-1200z" fill="#000"/><style>.sparkles path{stroke-linecap:round; stroke-width:1}</style><g class="sparkles"><path d="M100-162.5l-26-15.7" stroke="#fff50032"/><path d="M100-162.5l-36.2-62.7" stroke="#fff34"/><path d="M100-162.5l-11.5-75.5" stroke="#fff50034"/><path d="M100-162.5l79.9-6.5" stroke="#fff50034"/><path d="M100-162.5l78.6 24" stroke="#fff35"/><path d="M100-162.5l76.5 56.3" stroke="#005bbb36"/><path d="M100-162.5l-9.5 97" stroke="#005bbb36"/><path d="M100-162.5l-4.7-103.3" stroke="#c2e1ff37"/><path d="M100-162.5l100-35.5" stroke="#c2e1ff37"/><path d="M100-162.5l-22.3 104.9" stroke="#fff37"/><path d="M100-162.5l-12.1 107.4" stroke="#005bbb37"/><path d="M100-162.5l-100.2 48.2" stroke="#005bbb37"/><path d="M100-162.5l109.5-27.2" stroke="#005bbb38"/><path d="M100-162.5l-71.2 88.7" stroke="#c2e1ff38"/><path d="M100-162.5l24.6 112.2" stroke="#fff38"/><path d="M100-162.5l109.2-37.7" stroke="#fff50038"/><path d="M100-162.5l31.8-111.2" stroke="#fff50038"/><path d="M100-162.5l-46.3 111.6" stroke="#c2e1ff39"/><path d="M100-162.5l124.7 0" stroke="#c2e1ff39"/><path d="M100-162.5l122.2 31.7" stroke="#c2e1ff39"/><path d="M100-162.5l-11.5-127.5" stroke="#fff50039"/><path d="M100-162.5l56.5-117.4" stroke="#005bbb3A"/><path d="M100-162.5l-120 56.4" stroke="#fff5003A"/><path d="M100-162.5l5.9-134.8" stroke="#c2e1ff3A"/><path d="M100-162.5l58.9-125.6" stroke="#c2e1ff3B"/><path d="M100-162.5l-97.4 109.1" stroke="#fff5003C"/><path d="M100-162.5l34.8 143.2" stroke="#fff5003C"/><path d="M100-162.5l-4-153.8" stroke="#fff5003E"/><path d="M100-162.5l-128.5 94.6" stroke="#005bbb3F"/><path d="M100-162.5l-127.7 96.7" stroke="#005bbb3F"/><path d="M100-162.5l138.5-81.4" stroke="#005bbb3F"/><path d="M100-162.5l115.9-118.1" stroke="#c2e1ff40"/><path d="M100-162.5l-52.4 158.2" stroke="#005bbb40"/><path d="M100-162.5l-70.1-151.5" stroke="#fff40"/><path d="M100-162.5l167.1-12.4" stroke="#fff40"/><path d="M100-162.5l74.1 157.7" stroke="#c2e1ff42"/><path d="M100-162.5l-41.8 169.4" stroke="#fff42"/><path d="M100-162.5l-137.3-111.8" stroke="#fff50042"/><path d="M100-162.5l179-44.5" stroke="#c2e1ff44"/><path d="M100-162.5l129.5 131.5" stroke="#005bbb44"/><path d="M100-162.5l177.8 49.1" stroke="#005bbb44"/><path d="M100-162.5l-14.8 184" stroke="#005bbb44"/><path d="M100-162.5l-151.7-107" stroke="#c2e1ff45"/><path d="M100-162.5l-138.8-128.5" stroke="#fff46"/><path d="M100-162.5l141.2-126" stroke="#c2e1ff46"/><path d="M100-162.5l-187.8 34.9" stroke="#fff50046"/><path d="M100-162.5l-97.7 165" stroke="#005bbb46"/><path d="M100-162.5l-153.9 115.1" stroke="#fff46"/><path d="M100-162.5l-141-133.8" stroke="#fff50047"/><path d="M100-162.5l187.7-51.6" stroke="#fff47"/><path d="M100-162.5l-194.6-8.1" stroke="#c2e1ff47"/><path d="M100-162.5l-150.6 125.2" stroke="#fff48"/><path d="M100-162.5l73.4-181.9" stroke="#fff50048"/><path d="M100-162.5l-170.1-106.7" stroke="#fff49"/><path d="M100-162.5l-99.4 176.4" stroke="#fff5004A"/><path d="M100-162.5l-139 154" stroke="#fff4C"/><path d="M100-162.5l208.9 22.3" stroke="#fff4D"/><path d="M100-162.5l186.8 104.3" stroke="#fff5004E"/><path d="M100-162.5l80.2-200.5" stroke="#c2e1ff4F"/><path d="M100-162.5l217.2-0.1" stroke="#005bbb50"/><path d="M100-162.5l8.3-217.7" stroke="#fff50"/><path d="M100-162.5l-163.6-144.2" stroke="#fff50050"/><path d="M100-162.5l-177.1-128.9" stroke="#c2e1ff51"/><path d="M100-162.5l197.5 96.1" stroke="#005bbb51"/><path d="M100-162.5l217 35.8" stroke="#fff50051"/><path d="M100-162.5l193.2 106.6" stroke="#fff50052"/><path d="M100-162.5l-208.4-75" stroke="#fff50052"/><path d="M100-162.5l-133.9 178.6" stroke="#c2e1ff53"/><path d="M100-162.5l-195-116.3" stroke="#005bbb56"/><path d="M100-162.5l-81.8 212.2" stroke="#fff50056"/><path d="M100-162.5l189.4-125.9" stroke="#c2e1ff56"/><path d="M100-162.5l145.6-175.9" stroke="#005bbb57"/><path d="M100-162.5l-22 228" stroke="#fff50057"/><path d="M100-162.5l39.6 225.9" stroke="#fff57"/><path d="M100-162.5l203.4 106.6" stroke="#c2e1ff58"/><path d="M100-162.5l-71-218.6" stroke="#fff50058"/><path d="M100-162.5l207.3-99.7" stroke="#fff58"/><path d="M100-162.5l198.4 121.7" stroke="#fff5005B"/><path d="M100-162.5l223 67.4" stroke="#c2e1ff5B"/><path d="M100-162.5l-230.1-37.9" stroke="#fff5B"/><path d="M100-162.5l97 212.7" stroke="#fff5005C"/><path d="M100-162.5l145.1-184.2" stroke="#fff5005D"/><path d="M100-162.5l162.9 169.2" stroke="#fff5005E"/><path d="M100-162.5l232.5-35.8" stroke="#fff5005F"/><path d="M100-162.5l-217.6-89.7" stroke="#fff5F"/><path d="M100-162.5l58.6-228.1" stroke="#fff5005F"/><path d="M100-162.5l221.8-79.3" stroke="#c2e1ff60"/><path d="M100-162.5l229.7 55" stroke="#c2e1ff62"/><path d="M100-162.5l-168.8 165.3" stroke="#c2e1ff63"/><path d="M100-162.5l217.8 91.6" stroke="#005bbb63"/><path d="M100-162.5l-196.9-130.6" stroke="#fff50063"/><path d="M100-162.5l-36.3-233.4" stroke="#fff64"/><path d="M100-162.5l-127.4-198.9" stroke="#fff50064"/><path d="M100-162.5l111.8-208" stroke="#fff65"/><path d="M100-162.5l-169.2 164.4" stroke="#fff50066"/><path d="M100-162.5l169.7 163.6" stroke="#c2e1ff67"/><path d="M100-162.5l36.5-232.8" stroke="#fff50067"/><path d="M100-162.5l-230.6-47.8" stroke="#005bbb67"/><path d="M100-162.5l-169-163.8" stroke="#005bbb68"/><path d="M100-162.5l-72.2-223.8" stroke="#fff68"/><path d="M100-162.5l-21-234.1" stroke="#005bbb69"/><path d="M100-162.5l-230.1 47.6" stroke="#fff50069"/><path d="M100-162.5l-28-233.2" stroke="#fff50069"/><path d="M100-162.5l155.8 175.6" stroke="#005bbb69"/><path d="M100-162.5l-12.6 234.2" stroke="#c2e1ff69"/><path d="M100-162.5l79.1 220.5" stroke="#fff6A"/><path d="M100-162.5l-68.6 223.7" stroke="#005bbb6A"/><path d="M100-162.5l-168-162.4" stroke="#fff5006B"/><path d="M100-162.5l-219.9 78.2" stroke="#fff5006B"/><path d="M100-162.5l-226.5 56.1" stroke="#c2e1ff6B"/><path d="M100-162.5l-195.6 127.2" stroke="#005bbb6B"/><path d="M100-162.5l-218 78.6" stroke="#fff5006D"/><path d="M100-162.5l231.5 7.7" stroke="#fff6D"/><path d="M100-162.5l37.8-228.2" stroke="#fff5006E"/><path d="M100-162.5l-161.4 165.1" stroke="#c2e1ff6E"/><path d="M100-162.5l40.9-225.5" stroke="#c2e1ff70"/><path d="M100-162.5l217.9 70.7" stroke="#fff50070"/><path d="M100-162.5l225.2 41.6" stroke="#fff50070"/><path d="M100-162.5l200-110.7" stroke="#005bbb70"/><path d="M100-162.5l-167.8-154.2" stroke="#fff50071"/><path d="M100-162.5l-188.4 126.7" stroke="#c2e1ff71"/><path d="M100-162.5l-222.4 40.4" stroke="#c2e1ff72"/><path d="M100-162.5l-20.6 224.2" stroke="#fff73"/><path d="M100-162.5l-30.5 223" stroke="#005bbb73"/><path d="M100-162.5l-152.5 165.4" stroke="#fff50073"/><path d="M100-162.5l175.3-140.6" stroke="#fff50073"/><path d="M100-162.5l-117.6-191.3" stroke="#005bbb73"/><path d="M100-162.5l125.3-185.5" stroke="#c2e1ff73"/><path d="M100-162.5l163.4-150.2" stroke="#005bbb75"/><path d="M100-162.5l79.4 207" stroke="#c2e1ff75"/><path d="M100-162.5l214.6 52.8" stroke="#c2e1ff75"/><path d="M100-162.5l-174.2 135.9" stroke="#005bbb75"/><path d="M100-162.5l-180.3 127.6" stroke="#fff50075"/><path d="M100-162.5l208.5-69.1" stroke="#005bbb76"/><path d="M100-162.5l-126.4-179" stroke="#005bbb76"/><path d="M100-162.5l-69.3-207.4" stroke="#005bbb76"/><path d="M100-162.5l-139.9 165.6" stroke="#005bbb77"/><path d="M100-162.5l203.6 59.9" stroke="#fff79"/><path d="M100-162.5l-180-105.3" stroke="#fff5007B"/><path d="M100-162.5l-57.1 196.8" stroke="#fff7C"/><path d="M100-162.5l-172.2 110.2" stroke="#005bbb7D"/><path d="M100-162.5l170.3 112.5" stroke="#005bbb7D"/><path d="M100-162.5l-203.2 14.2" stroke="#fff5007D"/><path d="M100-162.5l-124.6 159.1" stroke="#fff5007D"/><path d="M100-162.5l23.7 196.6" stroke="#fff5007F"/><path d="M100-162.5l-184.9-56.7" stroke="#fff50080"/><path d="M100-162.5l-187.9-39" stroke="#c2e1ff81"/><path d="M100-162.5l190.3-8.8" stroke="#fff81"/><path d="M100-162.5l-50.2-181.5" stroke="#fff50082"/><path d="M100-162.5l184.8 8.6" stroke="#fff83"/><path d="M100-162.5l-113.7 141.4" stroke="#fff50084"/><path d="M100-162.5l134.5-119.2" stroke="#005bbb84"/><path d="M100-162.5l-164.9 49.5" stroke="#c2e1ff86"/><path d="M100-162.5l131.8-98" stroke="#005bbb87"/><path d="M100-162.5l162.4-12.3" stroke="#fff50088"/><path d="M100-162.5l139.5 60.8" stroke="#fff8A"/><path d="M100-162.5l132.1 74" stroke="#005bbb8A"/><path d="M100-162.5l-142.5-49.9" stroke="#005bbb8A"/><path d="M100-162.5l-143.1 28.3" stroke="#fff5008B"/><path d="M100-162.5l140.7-13.6" stroke="#fff8C"/><path d="M100-162.5l132.8-41.4" stroke="#005bbb8C"/><path d="M100-162.5l76.2 115.2" stroke="#fff8C"/><path d="M100-162.5l4.3-136.9" stroke="#005bbb8C"/><path d="M100-162.5l86-103.8" stroke="#005bbb8D"/><path d="M100-162.5l96.2-89.8" stroke="#fff8D"/><path d="M100-162.5l126.8-26.8" stroke="#fff8D"/><path d="M100-162.5l-57.9-105.4" stroke="#005bbb8F"/><path d="M100-162.5l15.2-118.5" stroke="#fff5008F"/><path d="M100-162.5l-17.1-115.3" stroke="#fff5008F"/><path d="M100-162.5l-63.3 97.4" stroke="#c2e1ff8F"/><path d="M100-162.5l103.2 21" stroke="#fff90"/><path d="M100-162.5l-80.4-66.8" stroke="#005bbb90"/><path d="M100-162.5l73.3-64.3" stroke="#fff50091"/><path d="M100-162.5l89.2-35.8" stroke="#c2e1ff91"/><path d="M100-162.5l29.5-75.5" stroke="#fff50092"/><path d="M100-162.5l-77.1 15.5" stroke="#fff50093"/><path d="M100-162.5l43.6-52.8" stroke="#005bbb93"/><path d="M100-162.5l46.4-50.3" stroke="#c2e1ff93"/><path d="M100-162.5l32.8-58.8" stroke="#005bbb93"/><path d="M100-162.5l26.7 39.6" stroke="#005bbb94"/><path d="M100-162.5l19.9-6.2" stroke="#c2e1ff95"/></g><g class="sparcs"><path d="M74-172.3a5.9 5.9 0 1 1 0-11.9 5.9 5.9 0 0 1 0 11.9" fill="#c2e1ff7D"/><path d="M63.8-219.2a6 6 0 1 1 0-12.1 6 6 0 0 1 0 12.1" fill="#fff50080"/><path d="M88.5-231.9a6.1 6.1 0 1 1 0-12.2 6.1 6.1 0 0 1 0 12.2" fill="#fff80"/><path d="M179.9-163a6.1 6.1 0 1 1 0-12.1 6.1 6.1 0 0 1 0 12.1" fill="#c2e1ff80"/><path d="M178.6-132.4a6.1 6.1 0 1 1 0-12.1 6.1 6.1 0 0 1 0 12.1" fill="#005bbb81"/><path d="M176.5-100a6.2 6.2 0 1 1 0-12.3 6.2 6.2 0 0 1 0 12.3" fill="#fff82"/><path d="M90.5-59.3a6.2 6.2 0 1 1 0-12.4 6.2 6.2 0 0 1 0 12.4" fill="#fff82"/><path d="M95.3-259.6a6.2 6.2 0 1 1 0-12.4 6.2 6.2 0 0 1 0 12.4" fill="#005bbb83"/><path d="M200-191.7a6.2 6.2 0 1 1 0-12.5 6.2 6.2 0 0 1 0 12.5" fill="#c2e1ff83"/><path d="M77.7-51.4a6.2 6.2 0 1 1 0-12.5 6.2 6.2 0 0 1 0 12.5" fill="#fff50084"/><path d="M87.9-48.8a6.2 6.2 0 1 1 0-12.5 6.2 6.2 0 0 1 0 12.5" fill="#c2e1ff84"/><path d="M-0.2-108a6.3 6.3 0 1 1 0-12.6 6.3 6.3 0 0 1 0 12.6" fill="#c2e1ff84"/><path d="M209.5-183.5a6.3 6.3 0 1 1 0-12.5 6.3 6.3 0 0 1 0 12.5" fill="#fff50084"/><path d="M28.8-67.5a6.3 6.3 0 1 1 0-12.6 6.3 6.3 0 0 1 0 12.6" fill="#fff85"/><path d="M124.6-44.1a6.3 6.3 0 1 1 0-12.5 6.3 6.3 0 0 1 0 12.5" fill="#005bbb85"/><path d="M209.2-193.9a6.3 6.3 0 1 1 0-12.6 6.3 6.3 0 0 1 0 12.6" fill="#fff85"/><path d="M131.8-267.4a6.3 6.3 0 1 1 0-12.5 6.3 6.3 0 0 1 0 12.5" fill="#fff85"/><path d="M53.7-44.5a6.3 6.3 0 1 1 0-12.7 6.3 6.3 0 0 1 0 12.7" fill="#fff86"/><path d="M224.7-156.1a6.4 6.4 0 1 1 0-12.7 6.4 6.4 0 0 1 0 12.7" fill="#fff86"/><path d="M222.2-124.4a6.4 6.4 0 1 1 0-12.7 6.4 6.4 0 0 1 0 12.7" fill="#fff50087"/><path d="M88.5-283.6a6.4 6.4 0 1 1 0-12.7 6.4 6.4 0 0 1 0 12.7" fill="#fff87"/><path d="M156.5-273.5a6.4 6.4 0 1 1 0-12.8 6.4 6.4 0 0 1 0 12.8" fill="#c2e1ff87"/><path d="M-20-99.7a6.4 6.4 0 1 1 0-12.8 6.4 6.4 0 0 1 0 12.8" fill="#fff88"/><path d="M105.9-290.9a6.4 6.4 0 1 1 0-12.9 6.4 6.4 0 0 1 0 12.9" fill="#fff50088"/><path d="M158.9-281.7a6.5 6.5 0 1 1 0-12.9 6.5 6.5 0 0 1 0 12.9" fill="#c2e1ff89"/><path d="M2.6-46.9a6.5 6.5 0 1 1 0-13.1 6.5 6.5 0 0 1 0 13.1" fill="#fff5008A"/><path d="M134.8-12.8a6.6 6.6 0 1 1 0-13.1 6.6 6.6 0 0 1 0 13.1" fill="#005bbb8B"/><path d="M96-309.7a6.6 6.6 0 1 1 0-13.2 6.6 6.6 0 0 1 0 13.2" fill="#fff8C"/><path d="M-28.5-61.2a6.7 6.7 0 1 1 0-13.4 6.7 6.7 0 0 1 0 13.4" fill="#fff5008E"/><path d="M-27.7-59.1a6.7 6.7 0 1 1 0-13.4 6.7 6.7 0 0 1 0 13.4" fill="#fff5008E"/><path d="M238.5-237.2a6.7 6.7 0 1 1 0-13.4 6.7 6.7 0 0 1 0 13.4" fill="#fff8E"/><path d="M215.9-273.8a6.8 6.8 0 1 1 0-13.5 6.8 6.8 0 0 1 0 13.5" fill="#c2e1ff8F"/><path d="M47.6 2.5a6.8 6.8 0 1 1 0-13.6 6.8 6.8 0 0 1 0 13.6" fill="#fff5008F"/><path d="M29.9-307.2a6.8 6.8 0 1 1 0-13.6 6.8 6.8 0 0 1 0 13.6" fill="#005bbb90"/><path d="M267.1-168.2a6.8 6.8 0 1 1 0-13.5 6.8 6.8 0 0 1 0 13.5" fill="#c2e1ff90"/><path d="M174.1 2.1a6.9 6.9 0 1 1 0-13.8 6.9 6.9 0 0 1 0 13.8" fill="#fff92"/><path d="M58.2 13.7a6.9 6.9 0 1 1 0-13.7 6.9 6.9 0 0 1 0 13.7" fill="#fff92"/><path d="M-37.3-267.4a6.9 6.9 0 1 1 0-13.8 6.9 6.9 0 0 1 0 13.8" fill="#005bbb92"/><path d="M279-199.9a7 7 0 1 1 0-14.1 7 7 0 0 1 0 14.1" fill="#c2e1ff95"/><path d="M229.5-24a7 7 0 1 1 0-14.1 7 7 0 0 1 0 14.1" fill="#005bbb95"/><path d="M277.8-106.4a7 7 0 1 1 0-14 7 7 0 0 1 0 14" fill="#005bbb95"/><path d="M85.2 28.6a7 7 0 1 1 0-14.1 7 7 0 0 1 0 14.1" fill="#fff95"/><path d="M-51.7-262.5a7 7 0 1 1 0-14 7 7 0 0 1 0 14" fill="#c2e1ff95"/><path d="M-38.8-283.9a7.1 7.1 0 1 1 0-14.2 7.1 7.1 0 0 1 0 14.2" fill="#005bbb97"/><path d="M241.2-281.4a7.1 7.1 0 1 1 0-14.2 7.1 7.1 0 0 1 0 14.2" fill="#fff50097"/><path d="M-87.8-120.4a7.1 7.1 0 1 1 0-14.3 7.1 7.1 0 0 1 0 14.3" fill="#fff97"/><path d="M2.3 9.7a7.1 7.1 0 1 1 0-14.3 7.1 7.1 0 0 1 0 14.3" fill="#005bbb98"/><path d="M-53.9-40.3a7.1 7.1 0 1 1 0-14.3 7.1 7.1 0 0 1 0 14.3" fill="#005bbb98"/><path d="M-41-289.2a7.2 7.2 0 1 1 0-14.3 7.2 7.2 0 0 1 0 14.3" fill="#005bbb99"/><path d="M287.7-206.9a7.2 7.2 0 1 1 0-14.4 7.2 7.2 0 0 1 0 14.4" fill="#fff99"/><path d="M-94.6-163.4a7.2 7.2 0 1 1 0-14.4 7.2 7.2 0 0 1 0 14.4" fill="#fff99"/><path d="M-50.6-30a7.2 7.2 0 1 1 0-14.5 7.2 7.2 0 0 1 0 14.5" fill="#fff99"/><path d="M173.4-337.2a7.2 7.2 0 1 1 0-14.4 7.2 7.2 0 0 1 0 14.4" fill="#c2e1ff99"/><path d="M-70.1-261.9a7.3 7.3 0 1 1 0-14.6 7.3 7.3 0 0 1 0 14.6" fill="#fff5009B"/><path d="M0.6 21.3a7.3 7.3 0 1 1 0-14.7 7.3 7.3 0 0 1 0 14.7" fill="#fff9C"/><path d="M-39-1a7.4 7.4 0 1 1 0-14.9 7.4 7.4 0 0 1 0 14.9" fill="#fff9E"/><path d="M308.9-132.7a7.5 7.5 0 1 1 0-15 7.5 7.5 0 0 1 0 15" fill="#fff500A0"/><path d="M286.8-50.6a7.6 7.6 0 1 1 0-15.2 7.6 7.6 0 0 1 0 15.2" fill="#005bbbA2"/><path d="M180.2-355.3a7.7 7.7 0 1 1 0-15.4 7.7 7.7 0 0 1 0 15.4" fill="#005bbbA3"/><path d="M317.2-154.9a7.7 7.7 0 1 1 0-15.4 7.7 7.7 0 0 1 0 15.4" fill="#c2e1ffA4"/><path d="M108.3-372.5a7.7 7.7 0 1 1 0-15.4 7.7 7.7 0 0 1 0 15.4" fill="#fffA4"/><path d="M-63.6-299a7.7 7.7 0 1 1 0-15.4 7.7 7.7 0 0 1 0 15.4" fill="#fffA5"/><path d="M-77.1-283.6a7.8 7.8 0 1 1 0-15.5 7.8 7.8 0 0 1 0 15.5" fill="#fffA5"/><path d="M297.5-58.6a7.8 7.8 0 1 1 0-15.6 7.8 7.8 0 0 1 0 15.6" fill="#005bbbA6"/><path d="M317-118.9a7.8 7.8 0 1 1 0-15.5 7.8 7.8 0 0 1 0 15.5" fill="#c2e1ffA6"/><path d="M293.2-48.1a7.8 7.8 0 1 1 0-15.6 7.8 7.8 0 0 1 0 15.6" fill="#c2e1ffA6"/><path d="M-108.4-229.7a7.8 7.8 0 1 1 0-15.7 7.8 7.8 0 0 1 0 15.7" fill="#005bbbA7"/><path d="M-33.9 24a7.9 7.9 0 1 1 0-15.8 7.9 7.9 0 0 1 0 15.8" fill="#fffA8"/><path d="M-95-270.8a8 8 0 1 1 0-16.1 8 8 0 0 1 0 16.1" fill="#fffAC"/><path d="M18.2 57.7a8.1 8.1 0 1 1 0-16.1 8.1 8.1 0 0 1 0 16.1" fill="#c2e1ffAC"/><path d="M289.4-280.4a8.1 8.1 0 1 1 0-16.1 8.1 8.1 0 0 1 0 16.1" fill="#fffAC"/><path d="M245.6-330.3a8.1 8.1 0 1 1 0-16.2 8.1 8.1 0 0 1 0 16.2" fill="#c2e1ffAD"/><path d="M78 73.7a8.1 8.1 0 1 1 0-16.3 8.1 8.1 0 0 1 0 16.3" fill="#c2e1ffAE"/><path d="M139.6 71.5a8.2 8.2 0 1 1 0-16.3 8.2 8.2 0 0 1 0 16.3" fill="#fffAE"/><path d="M303.4-47.7a8.2 8.2 0 1 1 0-16.3 8.2 8.2 0 0 1 0 16.3" fill="#005bbbAE"/><path d="M29-372.9a8.2 8.2 0 1 1 0-16.3 8.2 8.2 0 0 1 0 16.3" fill="#c2e1ffAE"/><path d="M307.3-254a8.2 8.2 0 1 1 0-16.4 8.2 8.2 0 0 1 0 16.4" fill="#005bbbAF"/><path d="M298.4-32.4a8.4 8.4 0 1 1 0-16.7 8.4 8.4 0 0 1 0 16.7" fill="#fff500B2"/><path d="M323-86.7a8.4 8.4 0 1 1 0-16.8 8.4 8.4 0 0 1 0 16.8" fill="#005bbbB3"/><path d="M-130.1-192a8.4 8.4 0 1 1 0-16.8 8.4 8.4 0 0 1 0 16.8" fill="#005bbbB3"/><path d="M197 58.7a8.4 8.4 0 1 1 0-16.9 8.4 8.4 0 0 1 0 16.9" fill="#c2e1ffB4"/><path d="M245.1-338.2a8.5 8.5 0 1 1 0-17 8.5 8.5 0 0 1 0 17" fill="#005bbbB6"/><path d="M262.9 15.2a8.5 8.5 0 1 1 0-17.1 8.5 8.5 0 0 1 0 17.1" fill="#fff500B6"/><path d="M332.5-189.7a8.6 8.6 0 1 1 0-17.1 8.6 8.6 0 0 1 0 17.1" fill="#005bbbB7"/><path d="M-117.6-243.6a8.6 8.6 0 1 1 0-17.2 8.6 8.6 0 0 1 0 17.2" fill="#c2e1ffB8"/><path d="M158.6-381.9a8.6 8.6 0 1 1 0-17.3 8.6 8.6 0 0 1 0 17.3" fill="#fffB8"/><path d="M321.8-233.2a8.6 8.6 0 1 1 0-17.2 8.6 8.6 0 0 1 0 17.2" fill="#c2e1ffB8"/><path d="M329.7-98.7a8.8 8.8 0 1 1 0-17.6 8.8 8.8 0 0 1 0 17.6" fill="#005bbbBC"/><path d="M-68.8 11.6a8.8 8.8 0 1 1 0-17.7 8.8 8.8 0 0 1 0 17.7" fill="#005bbbBD"/><path d="M317.8-62a8.9 8.9 0 1 1 0-17.7 8.9 8.9 0 0 1 0 17.7" fill="#c2e1ffBD"/><path d="M-96.9-284.3a8.9 8.9 0 1 1 0-17.7 8.9 8.9 0 0 1 0 17.7" fill="#005bbbBD"/><path d="M63.7-387.1a8.9 8.9 0 1 1 0-17.7 8.9 8.9 0 0 1 0 17.7" fill="#005bbbBE"/><path d="M-27.4-352.5a8.9 8.9 0 1 1 0-17.8 8.9 8.9 0 0 1 0 17.8" fill="#fff500BE"/><path d="M211.8-361.5a9 9 0 1 1 0-17.9 9 9 0 0 1 0 17.9" fill="#fffC0"/><path d="M-69.2 10.9a9 9 0 1 1 0-18 9 9 0 0 1 0 18" fill="#005bbbC1"/><path d="M269.7 10.2a9.1 9.1 0 1 1 0-18.1 9.1 9.1 0 0 1 0 18.1" fill="#fff500C2"/><path d="M136.5-386.3a9.1 9.1 0 1 1 0-18.1 9.1 9.1 0 0 1 0 18.1" fill="#fffC2"/><path d="M-130.6-201.2a9.1 9.1 0 1 1 0-18.1 9.1 9.1 0 0 1 0 18.1" fill="#005bbbC3"/><path d="M-69-317.2a9.1 9.1 0 1 1 0-18.2 9.1 9.1 0 0 1 0 18.2" fill="#fffC3"/><path d="M27.8-377.2a9.1 9.1 0 1 1 0-18.3 9.1 9.1 0 0 1 0 18.3" fill="#c2e1ffC4"/><path d="M79-387.4a9.2 9.2 0 1 1 0-18.3 9.2 9.2 0 0 1 0 18.3" fill="#fff500C4"/><path d="M-130.1-105.7a9.2 9.2 0 1 1 0-18.3 9.2 9.2 0 0 1 0 18.3" fill="#fff500C4"/><path d="M72-386.5a9.2 9.2 0 1 1 0-18.4 9.2 9.2 0 0 1 0 18.4" fill="#fff500C5"/><path d="M255.8 22.3a9.2 9.2 0 1 1 0-18.4 9.2 9.2 0 0 1 0 18.4" fill="#fff500C5"/><path d="M87.4 81a9.2 9.2 0 1 1 0-18.5 9.2 9.2 0 0 1 0 18.5" fill="#fffC5"/><path d="M179.1 67.3a9.2 9.2 0 1 1 0-18.5 9.2 9.2 0 0 1 0 18.5" fill="#005bbbC6"/><path d="M31.4 70.5a9.3 9.3 0 1 1 0-18.6 9.3 9.3 0 0 1 0 18.6" fill="#fffC6"/><path d="M-68-315.7a9.3 9.3 0 1 1 0-18.5 9.3 9.3 0 0 1 0 18.5" fill="#c2e1ffC7"/><path d="M-119.9-74.9a9.3 9.3 0 1 1 0-18.7 9.3 9.3 0 0 1 0 18.7" fill="#005bbbC8"/><path d="M-126.5-97.1a9.3 9.3 0 1 1 0-18.6 9.3 9.3 0 0 1 0 18.6" fill="#005bbbC8"/><path d="M-95.6-26a9.3 9.3 0 1 1 0-18.7 9.3 9.3 0 0 1 0 18.7" fill="#005bbbC8"/><path d="M-118-74.4a9.4 9.4 0 1 1 0-18.9 9.4 9.4 0 0 1 0 18.9" fill="#c2e1ffCA"/><path d="M331.5-145.4a9.4 9.4 0 1 1 0-18.8 9.4 9.4 0 0 1 0 18.8" fill="#c2e1ffCA"/><path d="M137.8-381.3a9.5 9.5 0 1 1 0-18.9 9.5 9.5 0 0 1 0 18.9" fill="#c2e1ffCB"/><path d="M-61.4 12.1a9.5 9.5 0 1 1 0-19 9.5 9.5 0 0 1 0 19" fill="#fff500CB"/><path d="M140.9-378.4a9.6 9.6 0 1 1 0-19.1 9.6 9.6 0 0 1 0 19.1" fill="#fff500CD"/><path d="M317.9-82.2a9.6 9.6 0 1 1 0-19.1 9.6 9.6 0 0 1 0 19.1" fill="#c2e1ffCD"/><path d="M325.2-111.3a9.6 9.6 0 1 1 0-19.1 9.6 9.6 0 0 1 0 19.1" fill="#fff500CD"/><path d="M300-263.6a9.6 9.6 0 1 1 0-19.2 9.6 9.6 0 0 1 0 19.2" fill="#fffCE"/><path d="M-67.8-307.1a9.6 9.6 0 1 1 0-19.3 9.6 9.6 0 0 1 0 19.3" fill="#005bbbCF"/><path d="M-88.4-26.1a9.7 9.7 0 1 1 0-19.3 9.7 9.7 0 0 1 0 19.3" fill="#fff500CF"/><path d="M-122.4-112.4a9.7 9.7 0 1 1 0-19.5 9.7 9.7 0 0 1 0 19.5" fill="#fffD0"/><path d="M79.4 71.5a9.8 9.8 0 1 1 0-19.5 9.8 9.8 0 0 1 0 19.5" fill="#005bbbD1"/><path d="M69.5 70.3a9.8 9.8 0 1 1 0-19.6 9.8 9.8 0 0 1 0 19.6" fill="#fff500D1"/><path d="M-52.5 12.6a9.8 9.8 0 1 1 0-19.5 9.8 9.8 0 0 1 0 19.5" fill="#fff500D1"/><path d="M275.3-293.3a9.8 9.8 0 1 1 0-19.5 9.8 9.8 0 0 1 0 19.5" fill="#c2e1ffD2"/><path d="M-17.6-344a9.8 9.8 0 1 1 0-19.5 9.8 9.8 0 0 1 0 19.5" fill="#fff500D2"/><path d="M225.3-338.2a9.8 9.8 0 1 1 0-19.6 9.8 9.8 0 0 1 0 19.6" fill="#fffD2"/><path d="M263.4-302.8a9.9 9.9 0 1 1 0-19.8 9.9 9.9 0 0 1 0 19.8" fill="#fffD4"/><path d="M179.4 54.4a9.9 9.9 0 1 1 0-19.7 9.9 9.9 0 0 1 0 19.7" fill="#fffD4"/><path d="M314.6-99.8a9.9 9.9 0 1 1 0-19.8 9.9 9.9 0 0 1 0 19.8" fill="#c2e1ffD4"/><path d="M-74.2-16.7a9.9 9.9 0 1 1 0-19.8 9.9 9.9 0 0 1 0 19.8" fill="#c2e1ffD5"/><path d="M-80.3-25a9.9 9.9 0 1 1 0-19.8 9.9 9.9 0 0 1 0 19.8" fill="#c2e1ffD5"/><path d="M308.5-221.6a9.9 9.9 0 1 1 0-19.9 9.9 9.9 0 0 1 0 19.9" fill="#fff500D5"/><path d="M-26.4-331.6a10 10 0 1 1 0-19.9 10 10 0 0 1 0 19.9" fill="#fff500D6"/><path d="M30.7-359.9a10 10 0 1 1 0-20 10 10 0 0 1 0 20" fill="#005bbbD6"/><path d="M-39.9 13.1a10 10 0 1 1 0-20 10 10 0 0 1 0 20" fill="#c2e1ffD7"/><path d="M303.6-92.5a10.2 10.2 0 1 1 0-20.3 10.2 10.2 0 0 1 0 20.3" fill="#005bbbDA"/><path d="M-80-257.5a10.2 10.2 0 1 1 0-20.5 10.2 10.2 0 0 1 0 20.5" fill="#fff500DC"/><path d="M42.9 44.7a10.3 10.3 0 1 1 0-20.7 10.3 10.3 0 0 1 0 20.7" fill="#fff500DE"/><path d="M-72.2-42a10.3 10.3 0 1 1 0-20.7 10.3 10.3 0 0 1 0 20.7" fill="#c2e1ffDE"/><path d="M270.3-39.7a10.3 10.3 0 1 1 0-20.7 10.3 10.3 0 0 1 0 20.7" fill="#fffDE"/><path d="M-103.2-138a10.4 10.4 0 1 1 0-20.7 10.4 10.4 0 0 1 0 20.7" fill="#fffDE"/><path d="M-24.6 7a10.4 10.4 0 1 1 0-20.8 10.4 10.4 0 0 1 0 20.8" fill="#005bbbDF"/><path d="M123.7 44.6a10.5 10.5 0 1 1 0-21 10.5 10.5 0 0 1 0 21" fill="#fffE1"/><path d="M-84.9-208.6a10.6 10.6 0 1 1 0-21.1 10.6 10.6 0 0 1 0 21.1" fill="#fffE3"/><path d="M-87.9-190.9a10.6 10.6 0 1 1 0-21.1 10.6 10.6 0 0 1 0 21.1" fill="#c2e1ffE3"/><path d="M290.3-160.7a10.6 10.6 0 1 1 0-21.2 10.6 10.6 0 0 1 0 21.2" fill="#005bbbE4"/><path d="M49.8-333.4a10.6 10.6 0 1 1 0-21.3 10.6 10.6 0 0 1 0 21.3" fill="#005bbbE5"/><path d="M284.8-143.2a10.7 10.7 0 1 1 0-21.4 10.7 10.7 0 0 1 0 21.4" fill="#c2e1ffE6"/><path d="M-13.7-10.4a10.8 10.8 0 1 1 0-21.5 10.8 10.8 0 0 1 0 21.5" fill="#c2e1ffE7"/><path d="M234.5-270.9a10.8 10.8 0 1 1 0-21.6 10.8 10.8 0 0 1 0 21.6" fill="#c2e1ffE8"/><path d="M-64.9-102.1a10.9 10.9 0 1 1 0-21.8 10.9 10.9 0 0 1 0 21.8" fill="#fff500EA"/><path d="M231.8-249.5a11 11 0 1 1 0-21.9 11 11 0 0 1 0 21.9" fill="#fff500EC"/><path d="M262.4-163.8a11 11 0 1 1 0-22 11 11 0 0 1 0 22" fill="#fff500ED"/><path d="M239.5-90.6a11.1 11.1 0 1 1 0-22.2 11.1 11.1 0 0 1 0 22.2" fill="#c2e1ffEF"/><path d="M232.1-77.3a11.1 11.1 0 1 1 0-22.3 11.1 11.1 0 0 1 0 22.3" fill="#005bbbEF"/><path d="M-42.5-201.3a11.1 11.1 0 1 1 0-22.2 11.1 11.1 0 0 1 0 22.2" fill="#fff500EF"/><path d="M-43.1-123a11.2 11.2 0 1 1 0-22.4 11.2 11.2 0 0 1 0 22.4" fill="#fff500F1"/><path d="M240.7-164.8a11.2 11.2 0 1 1 0-22.5 11.2 11.2 0 0 1 0 22.5" fill="#fff500F2"/><path d="M232.8-192.6a11.2 11.2 0 1 1 0-22.5 11.2 11.2 0 0 1 0 22.5" fill="#fff500F2"/><path d="M176.2-36.1a11.3 11.3 0 1 1 0-22.5 11.3 11.3 0 0 1 0 22.5" fill="#fff500F2"/><path d="M104.3-288.1a11.3 11.3 0 1 1 0-22.5 11.3 11.3 0 0 1 0 22.5" fill="#005bbbF2"/><path d="M186-255a11.3 11.3 0 1 1 0-22.6 11.3 11.3 0 0 1 0 22.6" fill="#c2e1ffF3"/><path d="M196.2-241a11.3 11.3 0 1 1 0-22.6 11.3 11.3 0 0 1 0 22.6" fill="#fffF3"/><path d="M226.8-178a11.3 11.3 0 1 1 0-22.7 11.3 11.3 0 0 1 0 22.7" fill="#fffF4"/><path d="M42.1-256.5a11.4 11.4 0 1 1 0-22.8 11.4 11.4 0 0 1 0 22.8" fill="#fff500F5"/><path d="M115.2-269.6a11.4 11.4 0 1 1 0-22.8 11.4 11.4 0 0 1 0 22.8" fill="#fffF6"/><path d="M82.9-266.4a11.4 11.4 0 1 1 0-22.8 11.4 11.4 0 0 1 0 22.8" fill="#fff500F6"/><path d="M36.7-53.7a11.4 11.4 0 1 1 0-22.8 11.4 11.4 0 0 1 0 22.8" fill="#005bbbF6"/><path d="M203.2-130a11.5 11.5 0 1 1 0-23 11.5 11.5 0 0 1 0 23" fill="#fffF8"/><path d="M19.6-217.8a11.5 11.5 0 1 1 0-23 11.5 11.5 0 0 1 0 23" fill="#005bbbF8"/><path d="M173.3-215.2a11.5 11.5 0 1 1 0-23.1 11.5 11.5 0 0 1 0 23.1" fill="#005bbbF9"/><path d="M189.2-186.8a11.6 11.6 0 1 1 0-23.1 11.6 11.6 0 0 1 0 23.1" fill="#005bbbF9"/><path d="M129.5-226.4a11.6 11.6 0 1 1 0-23.3 11.6 11.6 0 0 1 0 23.3" fill="#c2e1ffFB"/><path d="M22.9-135.4a11.6 11.6 0 1 1 0-23.3 11.6 11.6 0 0 1 0 23.3" fill="#005bbbFB"/><path d="M143.6-203.7a11.7 11.7 0 1 1 0-23.3 11.7 11.7 0 0 1 0 23.3" fill="#005bbbFC"/><path d="M146.4-201.1a11.7 11.7 0 1 1 0-23.4 11.7 11.7 0 0 1 0 23.4" fill="#c2e1ffFC"/><path d="M132.8-209.6a11.7 11.7 0 1 1 0-23.4 11.7 11.7 0 0 1 0 23.4" fill="#fff500FC"/><path d="M126.7-111.1a11.8 11.8 0 1 1 0-23.5 11.8 11.8 0 0 1 0 23.5" fill="#fff500FD"/><path d="M119.9-156.9a11.8 11.8 0 1 1 0-23.6 11.8 11.8 0 0 1 0 23.6" fill="#fffFE"/></g></svg>