<svg width="1200" height="675" viewBox="-500 -500 1200 675" xmlns="http://www.w3.org/2000/svg"><path d="M-500-500h1200v675h-1200z" fill="#000"/><style>.sparkles path{stroke-linecap:round; stroke-width:1}</style><g class="sparkles"><path d="M100-162.5l-9 48.8" stroke="#c2e1ff33"/><path d="M100-162.5l17.8 61" stroke="#fff50033"/><path d="M100-162.5l29.5 63.8" stroke="#fff34"/><path d="M100-162.5l-67.8 48.2" stroke="#fff35"/><path d="M100-162.5l-92.2-35.3" stroke="#005bbb36"/><path d="M100-162.5l-77.7 61.3" stroke="#fff36"/><path d="M100-162.5l6.5-105.3" stroke="#005bbb37"/><path d="M100-162.5l94.1 55.2" stroke="#fff50037"/><path d="M100-162.5l27.4 113.1" stroke="#005bbb38"/><path d="M100-162.5l-19.2-115.6" stroke="#005bbb38"/><path d="M100-162.5l-94.7-75.8" stroke="#c2e1ff39"/><path d="M100-162.5l130.8-6.4" stroke="#fff3A"/><path d="M100-162.5l59.8-119.8" stroke="#fff5003A"/><path d="M100-162.5l28.4-135.9" stroke="#c2e1ff3B"/><path d="M100-162.5l137.2-21.7" stroke="#fff3B"/><path d="M100-162.5l138.8-9.9" stroke="#fff3B"/><path d="M100-162.5l-99.3 99.6" stroke="#005bbb3B"/><path d="M100-162.5l5.7 147.6" stroke="#005bbb3C"/><path d="M100-162.5l151.4-10.7" stroke="#c2e1ff3D"/><path d="M100-162.5l-132.4 81.5" stroke="#fff3E"/><path d="M100-162.5l-137.9-77.1" stroke="#fff3E"/><path d="M100-162.5l-129.5 91.7" stroke="#005bbb3E"/><path d="M100-162.5l28.6-156.9" stroke="#fff3F"/><path d="M100-162.5l-152 51.8" stroke="#c2e1ff3F"/><path d="M100-162.5l-152.3 61.7" stroke="#fff40"/><path d="M100-162.5l-33.4 161.4" stroke="#c2e1ff40"/><path d="M100-162.5l-32.2-162.6" stroke="#fff50040"/><path d="M100-162.5l167.1 3.1" stroke="#005bbb40"/><path d="M100-162.5l-8-167.7" stroke="#005bbb40"/><path d="M100-162.5l42.2 172.2" stroke="#fff42"/><path d="M100-162.5l-56.7 173.4" stroke="#005bbb44"/><path d="M100-162.5l38.5-179" stroke="#fff44"/><path d="M100-162.5l-27.7-181.2" stroke="#fff50044"/><path d="M100-162.5l71.6-169.6" stroke="#fff50044"/><path d="M100-162.5l-25.2 184.1" stroke="#c2e1ff45"/><path d="M100-162.5l8 187.1" stroke="#c2e1ff45"/><path d="M100-162.5l133.3 135.2" stroke="#c2e1ff46"/><path d="M100-162.5l-189.8-22.6" stroke="#fff46"/><path d="M100-162.5l-24-190" stroke="#c2e1ff46"/><path d="M100-162.5l78.9 175.7" stroke="#c2e1ff47"/><path d="M100-162.5l105.9-163" stroke="#fff50047"/><path d="M100-162.5l13.1-195.9" stroke="#fff48"/><path d="M100-162.5l-159.7 118.6" stroke="#fff50049"/><path d="M100-162.5l-99.8 173.1" stroke="#c2e1ff49"/><path d="M100-162.5l72-189" stroke="#005bbb4A"/><path d="M100-162.5l151 134.6" stroke="#fff5004A"/><path d="M100-162.5l106.2-174.8" stroke="#005bbb4A"/><path d="M100-162.5l-157.2-134.8" stroke="#c2e1ff4B"/><path d="M100-162.5l-206.5 30.1" stroke="#c2e1ff4C"/><path d="M100-162.5l134.6 160" stroke="#fff5004C"/><path d="M100-162.5l79.4 194.8" stroke="#c2e1ff4D"/><path d="M100-162.5l-117.1 175" stroke="#fff5004D"/><path d="M100-162.5l-193.5 87.5" stroke="#fff5004E"/><path d="M100-162.5l-12.3-212.8" stroke="#c2e1ff4E"/><path d="M100-162.5l211.8 29.5" stroke="#c2e1ff4E"/><path d="M100-162.5l-168.1-139.1" stroke="#fff50"/><path d="M100-162.5l-214-43.2" stroke="#fff50"/><path d="M100-162.5l-40.5-215" stroke="#005bbb51"/><path d="M100-162.5l19.5-220.3" stroke="#fff52"/><path d="M100-162.5l-81.1-206.1" stroke="#fff52"/><path d="M100-162.5l179.3-132" stroke="#fff50053"/><path d="M100-162.5l140 173.5" stroke="#c2e1ff53"/><path d="M100-162.5l-5.6-223.8" stroke="#fff50054"/><path d="M100-162.5l-138.5-176.1" stroke="#fff54"/><path d="M100-162.5l-126-185.9" stroke="#005bbb54"/><path d="M100-162.5l186.7-125" stroke="#005bbb54"/><path d="M100-162.5l115.5 192.9" stroke="#fff54"/><path d="M100-162.5l-48.2-220.1" stroke="#fff50054"/><path d="M100-162.5l87.9 208.8" stroke="#c2e1ff55"/><path d="M100-162.5l-218.5 61.1" stroke="#c2e1ff56"/><path d="M100-162.5l-208 91.3" stroke="#fff56"/><path d="M100-162.5l-37.8-224.1" stroke="#c2e1ff56"/><path d="M100-162.5l-218.2-64" stroke="#fff50056"/><path d="M100-162.5l217.6-67.4" stroke="#fff56"/><path d="M100-162.5l-0.1 228.1" stroke="#fff50056"/><path d="M100-162.5l211.1-87.8" stroke="#fff57"/><path d="M100-162.5l-21.5 229.3" stroke="#fff58"/><path d="M100-162.5l144.3 179.9" stroke="#c2e1ff59"/><path d="M100-162.5l-62.3-222.5" stroke="#fff59"/><path d="M100-162.5l-45.1 226.8" stroke="#005bbb59"/><path d="M100-162.5l224.1 57.9" stroke="#fff5A"/><path d="M100-162.5l-230.7 25.7" stroke="#005bbb5A"/><path d="M100-162.5l74.9-220.6" stroke="#005bbb5B"/><path d="M100-162.5l125.9 196.3" stroke="#c2e1ff5B"/><path d="M100-162.5l106.7-207.5" stroke="#c2e1ff5C"/><path d="M100-162.5l-233.4-2.2" stroke="#fff5C"/><path d="M100-162.5l-46.2-228.8" stroke="#c2e1ff5C"/><path d="M100-162.5l-232.9 15.4" stroke="#fff5005C"/><path d="M100-162.5l-226.7-59" stroke="#fff5D"/><path d="M100-162.5l-206.1-111.8" stroke="#fff5D"/><path d="M100-162.5l141-187.4" stroke="#fff5005D"/><path d="M100-162.5l53.5-228.4" stroke="#c2e1ff5E"/><path d="M100-162.5l156.9-174.9" stroke="#fff5E"/><path d="M100-162.5l-154.1-177.8" stroke="#c2e1ff5F"/><path d="M100-162.5l-43.4-231.7" stroke="#005bbb60"/><path d="M100-162.5l84.3 220.7" stroke="#c2e1ff63"/><path d="M100-162.5l-231.3-47.6" stroke="#fff50065"/><path d="M100-162.5l226.3 67.3" stroke="#005bbb65"/><path d="M100-162.5l-155.1-177.8" stroke="#005bbb66"/><path d="M100-162.5l-102.8-212.3" stroke="#fff66"/><path d="M100-162.5l-156.4-176.5" stroke="#005bbb66"/><path d="M100-162.5l-190.2-139.5" stroke="#fff50067"/><path d="M100-162.5l23 234.1" stroke="#fff50068"/><path d="M100-162.5l-63.8 226.3" stroke="#fff68"/><path d="M100-162.5l-234.3 13.9" stroke="#fff69"/><path d="M100-162.5l234.2-13.9" stroke="#c2e1ff69"/><path d="M100-162.5l-224.1 69.4" stroke="#005bbb69"/><path d="M100-162.5l176.8 152.3" stroke="#005bbb6B"/><path d="M100-162.5l-232-22.6" stroke="#fff6C"/><path d="M100-162.5l-170.8-158.1" stroke="#fff6C"/><path d="M100-162.5l-78.7 218.8" stroke="#c2e1ff6C"/><path d="M100-162.5l230.6 27.8" stroke="#fff6D"/><path d="M100-162.5l-43.5 226.5" stroke="#c2e1ff6E"/><path d="M100-162.5l-205 104.4" stroke="#005bbb6F"/><path d="M100-162.5l226.2-25.9" stroke="#005bbb71"/><path d="M100-162.5l-173.4 143.7" stroke="#005bbb73"/><path d="M100-162.5l-219.6-46.3" stroke="#fff73"/><path d="M100-162.5l192.9-113.7" stroke="#fff50073"/><path d="M100-162.5l-223.6 3.9" stroke="#c2e1ff74"/><path d="M100-162.5l-223.6-2.1" stroke="#005bbb74"/><path d="M100-162.5l186.5-115.2" stroke="#fff50076"/><path d="M100-162.5l166.2-141.4" stroke="#fff77"/><path d="M100-162.5l196.4-92.8" stroke="#fff77"/><path d="M100-162.5l215.8-21.5" stroke="#c2e1ff77"/><path d="M100-162.5l-191.5-101.1" stroke="#fff77"/><path d="M100-162.5l169.5 133.4" stroke="#fff78"/><path d="M100-162.5l-214.3-15.5" stroke="#005bbb78"/><path d="M100-162.5l150.6 145.7" stroke="#fff7B"/><path d="M100-162.5l-56.9-201.4" stroke="#fff5007B"/><path d="M100-162.5l-114.9 173.5" stroke="#005bbb7B"/><path d="M100-162.5l119-170.4" stroke="#fff7B"/><path d="M100-162.5l106.3-177.2" stroke="#c2e1ff7C"/><path d="M100-162.5l-181.8-90" stroke="#c2e1ff7D"/><path d="M100-162.5l-201.5-16.8" stroke="#fff7D"/><path d="M100-162.5l201.6 0" stroke="#c2e1ff7E"/><path d="M100-162.5l-19.3 200.6" stroke="#fff5007E"/><path d="M100-162.5l-196.4 44.2" stroke="#fff7E"/><path d="M100-162.5l-114.8 162" stroke="#fff7F"/><path d="M100-162.5l-145.4 133.4" stroke="#005bbb7F"/><path d="M100-162.5l-84 177.9" stroke="#fff7F"/><path d="M100-162.5l185.5 62.4" stroke="#005bbb80"/><path d="M100-162.5l-153.3-114.4" stroke="#fff81"/><path d="M100-162.5l47.1-183.9" stroke="#c2e1ff81"/><path d="M100-162.5l-107.1-154.4" stroke="#005bbb82"/><path d="M100-162.5l70.2-163.8" stroke="#fff50084"/><path d="M100-162.5l13.8-177.6" stroke="#fff84"/><path d="M100-162.5l56.4-166.4" stroke="#fff50085"/><path d="M100-162.5l158.1 72" stroke="#fff85"/><path d="M100-162.5l-79.9-148.2" stroke="#005bbb87"/><path d="M100-162.5l41 163.2" stroke="#fff50087"/><path d="M100-162.5l141.2-81.3" stroke="#c2e1ff88"/><path d="M100-162.5l75.4-144.4" stroke="#fff50088"/><path d="M100-162.5l-111.5-117.2" stroke="#c2e1ff88"/><path d="M100-162.5l-148.7 61.9" stroke="#fff50088"/><path d="M100-162.5l-152.7 47.9" stroke="#fff50088"/><path d="M100-162.5l153.6-3" stroke="#fff50089"/><path d="M100-162.5l-140.9-54.2" stroke="#fff8A"/><path d="M100-162.5l148.1-28.1" stroke="#c2e1ff8A"/><path d="M100-162.5l-57 131.6" stroke="#fff8B"/><path d="M100-162.5l-17.9-125.5" stroke="#fff8E"/><path d="M100-162.5l40.1 119.8" stroke="#005bbb8E"/><path d="M100-162.5l30.4-121" stroke="#fff5008E"/><path d="M100-162.5l-59.7-107.6" stroke="#fff5008E"/><path d="M100-162.5l-119 4.9" stroke="#c2e1ff8F"/><path d="M100-162.5l53.4-106.3" stroke="#c2e1ff8F"/><path d="M100-162.5l-86.2 78.4" stroke="#fff8F"/><path d="M100-162.5l114.8-5.5" stroke="#c2e1ff8F"/><path d="M100-162.5l-113.8 11.1" stroke="#c2e1ff8F"/><path d="M100-162.5l109.8-7.2" stroke="#fff90"/><path d="M100-162.5l74.1 74.6" stroke="#c2e1ff90"/><path d="M100-162.5l-92.8-47.9" stroke="#fff90"/><path d="M100-162.5l78.8 41.5" stroke="#005bbb92"/><path d="M100-162.5l15.5-86.2" stroke="#005bbb92"/><path d="M100-162.5l-80.4 9.4" stroke="#c2e1ff92"/><path d="M100-162.5l-71.4-7.8" stroke="#fff50093"/><path d="M100-162.5l11.7-61.3" stroke="#005bbb94"/><path d="M100-162.5l48.1 12.5" stroke="#c2e1ff94"/><path d="M100-162.5l-16.5-35.9" stroke="#fff95"/><path d="M100-162.5l-23.6 25.4" stroke="#005bbb95"/><path d="M100-162.5l13.3-11.5" stroke="#005bbb95"/><path d="M100-162.5l9.3-11.9" stroke="#005bbb95"/></g><g class="sparcs"><path d="M91-107.7a6 6 0 1 1 0-12 6 6 0 0 1 0 12" fill="#005bbb7E"/><path d="M117.8-95.5a6 6 0 1 1 0-12 6 6 0 0 1 0 12" fill="#c2e1ff7F"/><path d="M129.5-92.6a6 6 0 1 1 0-12.1 6 6 0 0 1 0 12.1" fill="#fff5007F"/><path d="M32.2-108.2a6.1 6.1 0 1 1 0-12.2 6.1 6.1 0 0 1 0 12.2" fill="#c2e1ff81"/><path d="M7.8-191.7a6.2 6.2 0 1 1 0-12.3 6.2 6.2 0 0 1 0 12.3" fill="#005bbb82"/><path d="M22.3-95a6.2 6.2 0 1 1 0-12.4 6.2 6.2 0 0 1 0 12.4" fill="#c2e1ff82"/><path d="M106.5-261.6a6.2 6.2 0 1 1 0-12.4 6.2 6.2 0 0 1 0 12.4" fill="#005bbb83"/><path d="M194.1-101.1a6.2 6.2 0 1 1 0-12.4 6.2 6.2 0 0 1 0 12.4" fill="#c2e1ff84"/><path d="M127.4-43.1a6.3 6.3 0 1 1 0-12.5 6.3 6.3 0 0 1 0 12.5" fill="#c2e1ff85"/><path d="M80.8-271.8a6.3 6.3 0 1 1 0-12.6 6.3 6.3 0 0 1 0 12.6" fill="#fff85"/><path d="M5.3-232a6.3 6.3 0 1 1 0-12.6 6.3 6.3 0 0 1 0 12.6" fill="#c2e1ff86"/><path d="M230.8-162.5a6.4 6.4 0 1 1 0-12.8 6.4 6.4 0 0 1 0 12.8" fill="#fff87"/><path d="M159.8-275.9a6.4 6.4 0 1 1 0-12.8 6.4 6.4 0 0 1 0 12.8" fill="#005bbb88"/><path d="M128.4-291.9a6.5 6.5 0 1 1 0-12.9 6.5 6.5 0 0 1 0 12.9" fill="#fff89"/><path d="M237.2-177.7a6.5 6.5 0 1 1 0-13 6.5 6.5 0 0 1 0 13" fill="#fff50089"/><path d="M238.8-165.9a6.5 6.5 0 1 1 0-13 6.5 6.5 0 0 1 0 13" fill="#fff50089"/><path d="M0.7-56.4a6.5 6.5 0 1 1 0-13 6.5 6.5 0 0 1 0 13" fill="#fff89"/><path d="M105.7-8.3a6.6 6.6 0 1 1 0-13.2 6.6 6.6 0 0 1 0 13.2" fill="#fff5008B"/><path d="M251.4-166.6a6.6 6.6 0 1 1 0-13.2 6.6 6.6 0 0 1 0 13.2" fill="#fff5008C"/><path d="M-32.4-74.3a6.6 6.6 0 1 1 0-13.3 6.6 6.6 0 0 1 0 13.3" fill="#005bbb8D"/><path d="M-37.9-232.9a6.7 6.7 0 1 1 0-13.3 6.7 6.7 0 0 1 0 13.3" fill="#fff5008D"/><path d="M-29.5-64.1a6.7 6.7 0 1 1 0-13.3 6.7 6.7 0 0 1 0 13.3" fill="#fff8D"/><path d="M128.6-312.8a6.7 6.7 0 1 1 0-13.3 6.7 6.7 0 0 1 0 13.3" fill="#fff8E"/><path d="M-52-104a6.7 6.7 0 1 1 0-13.4 6.7 6.7 0 0 1 0 13.4" fill="#fff8E"/><path d="M-52.3-94a6.7 6.7 0 1 1 0-13.5 6.7 6.7 0 0 1 0 13.5" fill="#fff8F"/><path d="M66.6 5.6a6.7 6.7 0 1 1 0-13.5 6.7 6.7 0 0 1 0 13.5" fill="#005bbb8F"/><path d="M67.8-318.3a6.8 6.8 0 1 1 0-13.5 6.8 6.8 0 0 1 0 13.5" fill="#c2e1ff8F"/><path d="M267.1-152.6a6.8 6.8 0 1 1 0-13.6 6.8 6.8 0 0 1 0 13.6" fill="#fff50090"/><path d="M92-323.4a6.8 6.8 0 1 1 0-13.5 6.8 6.8 0 0 1 0 13.5" fill="#005bbb90"/><path d="M142.2 16.6a6.9 6.9 0 1 1 0-13.8 6.9 6.9 0 0 1 0 13.8" fill="#fff93"/><path d="M43.3 17.9a7 7 0 1 1 0-14 7 7 0 0 1 0 14" fill="#005bbb94"/><path d="M138.5-334.5a7 7 0 1 1 0-14 7 7 0 0 1 0 14" fill="#fff94"/><path d="M72.3-336.7a7 7 0 1 1 0-14 7 7 0 0 1 0 14" fill="#fff94"/><path d="M171.6-325.1a7 7 0 1 1 0-14.1 7 7 0 0 1 0 14.1" fill="#fff50095"/><path d="M74.8 28.6a7 7 0 1 1 0-14.1 7 7 0 0 1 0 14.1" fill="#fff95"/><path d="M108 31.7a7.1 7.1 0 1 1 0-14.1 7.1 7.1 0 0 1 0 14.1" fill="#fff96"/><path d="M233.3-20.2a7.1 7.1 0 1 1 0-14.2 7.1 7.1 0 0 1 0 14.2" fill="#fff97"/><path d="M-89.8-178a7.1 7.1 0 1 1 0-14.3 7.1 7.1 0 0 1 0 14.3" fill="#fff50097"/><path d="M76-345.4a7.1 7.1 0 1 1 0-14.3 7.1 7.1 0 0 1 0 14.3" fill="#005bbb97"/><path d="M178.9 20.4a7.1 7.1 0 1 1 0-14.3 7.1 7.1 0 0 1 0 14.3" fill="#fff50098"/><path d="M205.9-318.3a7.2 7.2 0 1 1 0-14.4 7.2 7.2 0 0 1 0 14.4" fill="#c2e1ff99"/><path d="M113.1-351.2a7.2 7.2 0 1 1 0-14.4 7.2 7.2 0 0 1 0 14.4" fill="#c2e1ff99"/><path d="M-59.7-36.6a7.3 7.3 0 1 1 0-14.5 7.3 7.3 0 0 1 0 14.5" fill="#005bbb9A"/><path d="M0.2 17.9a7.3 7.3 0 1 1 0-14.5 7.3 7.3 0 0 1 0 14.5" fill="#fff5009B"/><path d="M172-344.2a7.3 7.3 0 1 1 0-14.6 7.3 7.3 0 0 1 0 14.6" fill="#c2e1ff9C"/><path d="M251-20.5a7.3 7.3 0 1 1 0-14.7 7.3 7.3 0 0 1 0 14.7" fill="#fff9C"/><path d="M206.2-329.9a7.4 7.4 0 1 1 0-14.8 7.4 7.4 0 0 1 0 14.8" fill="#c2e1ff9D"/><path d="M-57.2-289.9a7.4 7.4 0 1 1 0-14.8 7.4 7.4 0 0 1 0 14.8" fill="#fff9E"/><path d="M-106.5-124.9a7.5 7.5 0 1 1 0-14.9 7.5 7.5 0 0 1 0 14.9" fill="#fff9F"/><path d="M234.6 5a7.5 7.5 0 1 1 0-14.9 7.5 7.5 0 0 1 0 14.9" fill="#005bbb9F"/><path d="M179.4 39.8a7.5 7.5 0 1 1 0-15 7.5 7.5 0 0 1 0 15" fill="#fffA0"/><path d="M-17.1 20a7.5 7.5 0 1 1 0-15.1 7.5 7.5 0 0 1 0 15.1" fill="#fff500A0"/><path d="M-93.5-67.5a7.6 7.6 0 1 1 0-15.1 7.6 7.6 0 0 1 0 15.1" fill="#005bbbA1"/><path d="M87.7-367.7a7.6 7.6 0 1 1 0-15.2 7.6 7.6 0 0 1 0 15.2" fill="#fff500A1"/><path d="M311.8-125.4a7.6 7.6 0 1 1 0-15.2 7.6 7.6 0 0 1 0 15.2" fill="#fff500A2"/><path d="M-68.1-293.8a7.7 7.7 0 1 1 0-15.5 7.7 7.7 0 0 1 0 15.5" fill="#fffA5"/><path d="M-114-198a7.7 7.7 0 1 1 0-15.5 7.7 7.7 0 0 1 0 15.5" fill="#005bbbA5"/><path d="M59.5-369.7a7.7 7.7 0 1 1 0-15.5 7.7 7.7 0 0 1 0 15.5" fill="#c2e1ffA5"/><path d="M119.5-375a7.8 7.8 0 1 1 0-15.7 7.8 7.8 0 0 1 0 15.7" fill="#fff500A7"/><path d="M18.9-360.8a7.8 7.8 0 1 1 0-15.7 7.8 7.8 0 0 1 0 15.7" fill="#005bbbA7"/><path d="M279.3-286.6a7.9 7.9 0 1 1 0-15.8 7.9 7.9 0 0 1 0 15.8" fill="#c2e1ffA8"/><path d="M240 18.9a7.9 7.9 0 1 1 0-15.7 7.9 7.9 0 0 1 0 15.7" fill="#fffA8"/><path d="M94.4-378.4a7.9 7.9 0 1 1 0-15.8 7.9 7.9 0 0 1 0 15.8" fill="#fffA9"/><path d="M-38.5-330.7a7.9 7.9 0 1 1 0-15.9 7.9 7.9 0 0 1 0 15.9" fill="#005bbbA9"/><path d="M-26-340.5a7.9 7.9 0 1 1 0-15.9 7.9 7.9 0 0 1 0 15.9" fill="#c2e1ffA9"/><path d="M286.7-279.6a7.9 7.9 0 1 1 0-15.9 7.9 7.9 0 0 1 0 15.9" fill="#fff500A9"/><path d="M215.5 38.3a8 8 0 1 1 0-15.9 8 8 0 0 1 0 15.9" fill="#fffA9"/><path d="M51.8-374.7a8 8 0 1 1 0-15.9 8 8 0 0 1 0 15.9" fill="#fff500AA"/><path d="M187.9 54.3a8 8 0 1 1 0-16 8 8 0 0 1 0 16" fill="#005bbbAB"/><path d="M-118.5-93.4a8 8 0 1 1 0-16.1 8 8 0 0 1 0 16.1" fill="#c2e1ffAB"/><path d="M-108-63.1a8 8 0 1 1 0-16.1 8 8 0 0 1 0 16.1" fill="#c2e1ffAC"/><path d="M62.2-378.6a8.1 8.1 0 1 1 0-16.1 8.1 8.1 0 0 1 0 16.1" fill="#005bbbAC"/><path d="M-118.2-218.4a8.1 8.1 0 1 1 0-16.2 8.1 8.1 0 0 1 0 16.2" fill="#005bbbAC"/><path d="M317.6-221.8a8.1 8.1 0 1 1 0-16.2 8.1 8.1 0 0 1 0 16.2" fill="#fffAC"/><path d="M99.9 73.7a8.1 8.1 0 1 1 0-16.2 8.1 8.1 0 0 1 0 16.2" fill="#c2e1ffAD"/><path d="M311.1-242.2a8.1 8.1 0 1 1 0-16.2 8.1 8.1 0 0 1 0 16.2" fill="#fffAD"/><path d="M78.5 75a8.2 8.2 0 1 1 0-16.4 8.2 8.2 0 0 1 0 16.4" fill="#005bbbAF"/><path d="M244.3 25.6a8.2 8.2 0 1 1 0-16.5 8.2 8.2 0 0 1 0 16.5" fill="#c2e1ffAF"/><path d="M37.7-376.8a8.2 8.2 0 1 1 0-16.4 8.2 8.2 0 0 1 0 16.4" fill="#fff500B0"/><path d="M54.9 72.6a8.3 8.3 0 1 1 0-16.5 8.3 8.3 0 0 1 0 16.5" fill="#fffB0"/><path d="M324.1-96.3a8.3 8.3 0 1 1 0-16.5 8.3 8.3 0 0 1 0 16.5" fill="#005bbbB1"/><path d="M-130.7-128.5a8.3 8.3 0 1 1 0-16.6 8.3 8.3 0 0 1 0 16.6" fill="#c2e1ffB1"/><path d="M174.9-374.7a8.4 8.4 0 1 1 0-16.7 8.4 8.4 0 0 1 0 16.7" fill="#c2e1ffB3"/><path d="M225.9 42.1a8.4 8.4 0 1 1 0-16.7 8.4 8.4 0 0 1 0 16.7" fill="#fff500B3"/><path d="M206.7-361.6a8.4 8.4 0 1 1 0-16.8 8.4 8.4 0 0 1 0 16.8" fill="#005bbbB3"/><path d="M-133.4-156.3a8.4 8.4 0 1 1 0-16.8 8.4 8.4 0 0 1 0 16.8" fill="#005bbbB3"/><path d="M53.8-382.9a8.4 8.4 0 1 1 0-16.8 8.4 8.4 0 0 1 0 16.8" fill="#fff500B3"/><path d="M-132.9-138.7a8.4 8.4 0 1 1 0-16.8 8.4 8.4 0 0 1 0 16.8" fill="#c2e1ffB4"/><path d="M-126.7-213.1a8.5 8.5 0 1 1 0-16.9 8.5 8.5 0 0 1 0 16.9" fill="#fffB5"/><path d="M-106.1-265.8a8.5 8.5 0 1 1 0-17 8.5 8.5 0 0 1 0 17" fill="#fffB5"/><path d="M241-341.3a8.5 8.5 0 1 1 0-17.1 8.5 8.5 0 0 1 0 17.1" fill="#c2e1ffB6"/><path d="M153.5-382.4a8.5 8.5 0 1 1 0-17 8.5 8.5 0 0 1 0 17" fill="#fff500B6"/><path d="M256.9-328.8a8.5 8.5 0 1 1 0-17.1 8.5 8.5 0 0 1 0 17.1" fill="#fffB7"/><path d="M-54.1-331.7a8.6 8.6 0 1 1 0-17.2 8.6 8.6 0 0 1 0 17.2" fill="#fff500B8"/><path d="M56.6-385.5a8.7 8.7 0 1 1 0-17.3 8.7 8.7 0 0 1 0 17.3" fill="#c2e1ffB9"/><path d="M184.3 67a8.8 8.8 0 1 1 0-17.6 8.8 8.8 0 0 1 0 17.6" fill="#fffBC"/><path d="M-131.3-201.1a8.9 8.9 0 1 1 0-17.9 8.9 8.9 0 0 1 0 17.9" fill="#c2e1ffBF"/><path d="M326.3-86.3a9 9 0 1 1 0-17.9 9 9 0 0 1 0 17.9" fill="#fffC0"/><path d="M-55.1-331.3a9 9 0 1 1 0-18.1 9 9 0 0 1 0 18.1" fill="#fffC1"/><path d="M-2.8-365.8a9 9 0 1 1 0-18 9 9 0 0 1 0 18" fill="#fffC1"/><path d="M-56.4-330a9 9 0 1 1 0-18.1 9 9 0 0 1 0 18.1" fill="#c2e1ffC1"/><path d="M-90.2-292.9a9 9 0 1 1 0-18.1 9 9 0 0 1 0 18.1" fill="#fff500C1"/><path d="M123 80.7a9.1 9.1 0 1 1 0-18.2 9.1 9.1 0 0 1 0 18.2" fill="#c2e1ffC3"/><path d="M36.2 72.9a9.2 9.2 0 1 1 0-18.3 9.2 9.2 0 0 1 0 18.3" fill="#fffC4"/><path d="M-134.3-139.4a9.2 9.2 0 1 1 0-18.4 9.2 9.2 0 0 1 0 18.4" fill="#fff500C5"/><path d="M334.2-167.1a9.2 9.2 0 1 1 0-18.5 9.2 9.2 0 0 1 0 18.5" fill="#005bbbC5"/><path d="M-124.1-83.9a9.2 9.2 0 1 1 0-18.4 9.2 9.2 0 0 1 0 18.4" fill="#005bbbC5"/><path d="M276.8-0.9a9.3 9.3 0 1 1 0-18.6 9.3 9.3 0 0 1 0 18.6" fill="#005bbbC8"/><path d="M-132-175.8a9.3 9.3 0 1 1 0-18.7 9.3 9.3 0 0 1 0 18.7" fill="#fff500C8"/><path d="M-70.8-311.2a9.4 9.4 0 1 1 0-18.8 9.4 9.4 0 0 1 0 18.8" fill="#fffC9"/><path d="M21.3 65.6a9.4 9.4 0 1 1 0-18.7 9.4 9.4 0 0 1 0 18.7" fill="#fffC9"/><path d="M330.6-125.3a9.4 9.4 0 1 1 0-18.8 9.4 9.4 0 0 1 0 18.8" fill="#c2e1ffC9"/><path d="M56.5 73.5a9.5 9.5 0 1 1 0-19 9.5 9.5 0 0 1 0 19" fill="#fff500CC"/><path d="M-105-48.6a9.5 9.5 0 1 1 0-19 9.5 9.5 0 0 1 0 19" fill="#fff500CC"/><path d="M326.2-178.7a9.6 9.6 0 1 1 0-19.3 9.6 9.6 0 0 1 0 19.3" fill="#c2e1ffCF"/><path d="M-73.4-9a9.8 9.8 0 1 1 0-19.5 9.8 9.8 0 0 1 0 19.5" fill="#fffD1"/><path d="M-119.6-199.1a9.8 9.8 0 1 1 0-19.5 9.8 9.8 0 0 1 0 19.5" fill="#005bbbD2"/><path d="M292.9-266.4a9.8 9.8 0 1 1 0-19.6 9.8 9.8 0 0 1 0 19.6" fill="#005bbbD2"/><path d="M-123.6-148.7a9.8 9.8 0 1 1 0-19.7 9.8 9.8 0 0 1 0 19.7" fill="#fff500D2"/><path d="M-123.6-154.8a9.8 9.8 0 1 1 0-19.6 9.8 9.8 0 0 1 0 19.6" fill="#005bbbD2"/><path d="M286.5-267.7a10 10 0 1 1 0-19.9 10 10 0 0 1 0 19.9" fill="#fff500D6"/><path d="M266.2-293.9a10 10 0 1 1 0-20 10 10 0 0 1 0 20" fill="#fffD6"/><path d="M296.4-245.3a10 10 0 1 1 0-20 10 10 0 0 1 0 20" fill="#c2e1ffD7"/><path d="M315.8-174a10 10 0 1 1 0-20 10 10 0 0 1 0 20" fill="#c2e1ffD7"/><path d="M-91.5-253.6a10 10 0 1 1 0-20.1 10 10 0 0 1 0 20.1" fill="#c2e1ffD7"/><path d="M269.5-19a10.1 10.1 0 1 1 0-20.2 10.1 10.1 0 0 1 0 20.2" fill="#c2e1ffD8"/><path d="M-114.3-167.9a10.1 10.1 0 1 1 0-20.2 10.1 10.1 0 0 1 0 20.2" fill="#fff500D9"/><path d="M250.6-6.6a10.2 10.2 0 1 1 0-20.5 10.2 10.2 0 0 1 0 20.5" fill="#c2e1ffDC"/><path d="M43.1-353.6a10.2 10.2 0 1 1 0-20.5 10.2 10.2 0 0 1 0 20.5" fill="#fffDC"/><path d="M-14.9 21.3a10.3 10.3 0 1 1 0-20.6 10.3 10.3 0 0 1 0 20.6" fill="#005bbbDC"/><path d="M219-322.6a10.3 10.3 0 1 1 0-20.6 10.3 10.3 0 0 1 0 20.6" fill="#c2e1ffDC"/><path d="M206.3-329.4a10.3 10.3 0 1 1 0-20.6 10.3 10.3 0 0 1 0 20.6" fill="#fff500DD"/><path d="M-81.8-242.1a10.4 10.4 0 1 1 0-20.7 10.4 10.4 0 0 1 0 20.7" fill="#fff500DF"/><path d="M-101.5-168.9a10.4 10.4 0 1 1 0-20.8 10.4 10.4 0 0 1 0 20.8" fill="#005bbbDF"/><path d="M301.6-152.1a10.4 10.4 0 1 1 0-20.8 10.4 10.4 0 0 1 0 20.8" fill="#005bbbDF"/><path d="M80.7 48.5a10.4 10.4 0 1 1 0-20.8 10.4 10.4 0 0 1 0 20.8" fill="#005bbbDF"/><path d="M-96.4-107.9a10.4 10.4 0 1 1 0-20.8 10.4 10.4 0 0 1 0 20.8" fill="#fff500E0"/><path d="M-14.8 10a10.5 10.5 0 1 1 0-21 10.5 10.5 0 0 1 0 21" fill="#fff500E1"/><path d="M-45.4-18.6a10.5 10.5 0 1 1 0-21 10.5 10.5 0 0 1 0 21" fill="#c2e1ffE1"/><path d="M16 25.9a10.5 10.5 0 1 1 0-21 10.5 10.5 0 0 1 0 21" fill="#005bbbE2"/><path d="M285.5-89.6a10.5 10.5 0 1 1 0-21 10.5 10.5 0 0 1 0 21" fill="#fffE2"/><path d="M-53.3-266.3a10.6 10.6 0 1 1 0-21.2 10.6 10.6 0 0 1 0 21.2" fill="#005bbbE4"/><path d="M147.1-335.8a10.6 10.6 0 1 1 0-21.3 10.6 10.6 0 0 1 0 21.3" fill="#c2e1ffE4"/><path d="M-7.1-306.2a10.6 10.6 0 1 1 0-21.3 10.6 10.6 0 0 1 0 21.3" fill="#c2e1ffE5"/><path d="M170.2-315.5a10.8 10.8 0 1 1 0-21.6 10.8 10.8 0 0 1 0 21.6" fill="#005bbbE8"/><path d="M113.8-329.3a10.8 10.8 0 1 1 0-21.6 10.8 10.8 0 0 1 0 21.6" fill="#fff500E8"/><path d="M156.4-318.1a10.8 10.8 0 1 1 0-21.6 10.8 10.8 0 0 1 0 21.6" fill="#c2e1ffE9"/><path d="M258.1-79.7a10.9 10.9 0 1 1 0-21.7 10.9 10.9 0 0 1 0 21.7" fill="#fff500EA"/><path d="M20.1-299.8a10.9 10.9 0 1 1 0-21.8 10.9 10.9 0 0 1 0 21.8" fill="#fff500EB"/><path d="M141 11.6a10.9 10.9 0 1 1 0-21.8 10.9 10.9 0 0 1 0 21.8" fill="#005bbbEB"/><path d="M241.2-232.8a11 11 0 1 1 0-22 11 11 0 0 1 0 22" fill="#fff500ED"/><path d="M175.4-295.9a11 11 0 1 1 0-22 11 11 0 0 1 0 22" fill="#005bbbED"/><path d="M-11.5-268.7a11 11 0 1 1 0-22.1 11 11 0 0 1 0 22.1" fill="#c2e1ffED"/><path d="M-48.7-89.5a11 11 0 1 1 0-22.1 11 11 0 0 1 0 22.1" fill="#005bbbED"/><path d="M-52.7-103.6a11 11 0 1 1 0-22 11 11 0 0 1 0 22" fill="#005bbbED"/><path d="M253.6-154.4a11.1 11.1 0 1 1 0-22.2 11.1 11.1 0 0 1 0 22.2" fill="#fffEF"/><path d="M-40.9-205.6a11.1 11.1 0 1 1 0-22.2 11.1 11.1 0 0 1 0 22.2" fill="#fff500F0"/><path d="M248.1-179.4a11.1 11.1 0 1 1 0-22.3 11.1 11.1 0 0 1 0 22.3" fill="#005bbbF0"/><path d="M43-19.7a11.2 11.2 0 1 1 0-22.4 11.2 11.2 0 0 1 0 22.4" fill="#005bbbF1"/><path d="M82.1-276.7a11.4 11.4 0 1 1 0-22.7 11.4 11.4 0 0 1 0 22.7" fill="#fff500F4"/><path d="M140.1-31.3a11.4 11.4 0 1 1 0-22.7 11.4 11.4 0 0 1 0 22.7" fill="#fffF4"/><path d="M130.4-272.1a11.4 11.4 0 1 1 0-22.7 11.4 11.4 0 0 1 0 22.7" fill="#fffF5"/><path d="M40.3-258.7a11.4 11.4 0 1 1 0-22.8 11.4 11.4 0 0 1 0 22.8" fill="#fff500F5"/><path d="M-19-146.2a11.4 11.4 0 1 1 0-22.8 11.4 11.4 0 0 1 0 22.8" fill="#005bbbF6"/><path d="M153.4-257.4a11.4 11.4 0 1 1 0-22.9 11.4 11.4 0 0 1 0 22.9" fill="#c2e1ffF6"/><path d="M13.8-72.7a11.4 11.4 0 1 1 0-22.8 11.4 11.4 0 0 1 0 22.8" fill="#fffF6"/><path d="M214.8-156.6a11.4 11.4 0 1 1 0-22.9 11.4 11.4 0 0 1 0 22.9" fill="#fff500F6"/><path d="M-13.8-140a11.4 11.4 0 1 1 0-22.8 11.4 11.4 0 0 1 0 22.8" fill="#fff500F6"/><path d="M209.8-158.2a11.5 11.5 0 1 1 0-23 11.5 11.5 0 0 1 0 23" fill="#005bbbF7"/><path d="M174.1-76.4a11.5 11.5 0 1 1 0-23 11.5 11.5 0 0 1 0 23" fill="#fffF8"/><path d="M7.2-198.9a11.5 11.5 0 1 1 0-23 11.5 11.5 0 0 1 0 23" fill="#fff500F8"/><path d="M178.8-109.4a11.6 11.6 0 1 1 0-23.2 11.6 11.6 0 0 1 0 23.2" fill="#005bbbFA"/><path d="M115.5-237.1a11.6 11.6 0 1 1 0-23.2 11.6 11.6 0 0 1 0 23.2" fill="#005bbbFA"/><path d="M19.6-141.4a11.6 11.6 0 1 1 0-23.3 11.6 11.6 0 0 1 0 23.3" fill="#005bbbFB"/><path d="M28.6-158.6a11.7 11.7 0 1 1 0-23.4 11.7 11.7 0 0 1 0 23.4" fill="#fffFB"/><path d="M111.7-212.1a11.7 11.7 0 1 1 0-23.4 11.7 11.7 0 0 1 0 23.4" fill="#fff500FC"/><path d="M148.1-138.3a11.7 11.7 0 1 1 0-23.5 11.7 11.7 0 0 1 0 23.5" fill="#fffFD"/><path d="M83.5-186.6a11.8 11.8 0 1 1 0-23.5 11.8 11.8 0 0 1 0 23.5" fill="#fffFE"/><path d="M76.4-125.3a11.8 11.8 0 1 1 0-23.5 11.8 11.8 0 0 1 0 23.5" fill="#005bbbFE"/><path d="M113.3-162.1a11.8 11.8 0 1 1 0-23.7 11.8 11.8 0 0 1 0 23.7" fill="#c2e1ffFE"/><path d="M109.3-162.6a11.8 11.8 0 1 1 0-23.6 11.8 11.8 0 0 1 0 23.6" fill="#fff500FE"/></g></svg>