<svg width="1200" height="675" viewBox="-500 -500 1200 675" xmlns="http://www.w3.org/2000/svg"><path d="M-500-500h1200v675h-1200z" fill="#000"/><style>.sparkles path{stroke-linecap:round; stroke-width:1}</style><g class="sparkles"><path d="M100-162.5l48.5-38.3" stroke="#fff33"/><path d="M100-162.5l-66.3-0.9" stroke="#fff34"/><path d="M100-162.5l57.8 51.5" stroke="#005bbb34"/><path d="M100-162.5l-44.2 77.1" stroke="#fff50035"/><path d="M100-162.5l40.4-82.8" stroke="#fff35"/><path d="M100-162.5l1.4-96.2" stroke="#005bbb36"/><path d="M100-162.5l-78.8-63.7" stroke="#fff36"/><path d="M100-162.5l-80.8-102.7" stroke="#005bbb3A"/><path d="M100-162.5l-72.4 117.7" stroke="#c2e1ff3B"/><path d="M100-162.5l-119.3 74.6" stroke="#fff3B"/><path d="M100-162.5l-142.4-13.2" stroke="#005bbb3C"/><path d="M100-162.5l90.4-114.8" stroke="#c2e1ff3C"/><path d="M100-162.5l82.5-121" stroke="#c2e1ff3C"/><path d="M100-162.5l-121.8 81.6" stroke="#fff5003C"/><path d="M100-162.5l59.5 137.3" stroke="#fff3D"/><path d="M100-162.5l73.6 133.9" stroke="#005bbb3D"/><path d="M100-162.5l16-154.8" stroke="#c2e1ff3E"/><path d="M100-162.5l62.4-147.2" stroke="#005bbb3F"/><path d="M100-162.5l-13.1-159.5" stroke="#fff3F"/><path d="M100-162.5l149.1-63.6" stroke="#c2e1ff3F"/><path d="M100-162.5l-164.2-24.4" stroke="#fff40"/><path d="M100-162.5l-149.6 72.2" stroke="#fff50040"/><path d="M100-162.5l-41.5 161.3" stroke="#fff50040"/><path d="M100-162.5l76.7-148.9" stroke="#fff50040"/><path d="M100-162.5l11-168.9" stroke="#c2e1ff41"/><path d="M100-162.5l-163.5-54.7" stroke="#fff41"/><path d="M100-162.5l75.7-164.1" stroke="#fff50043"/><path d="M100-162.5l162.2 104.7" stroke="#fff47"/><path d="M100-162.5l154.7 116.7" stroke="#fff50047"/><path d="M100-162.5l179.9 73.7" stroke="#fff47"/><path d="M100-162.5l-164.9-106.6" stroke="#005bbb48"/><path d="M100-162.5l-193.8-38.7" stroke="#c2e1ff48"/><path d="M100-162.5l-175.4 91.7" stroke="#005bbb48"/><path d="M100-162.5l-187.6-63.1" stroke="#fff48"/><path d="M100-162.5l68.8-188.8" stroke="#005bbb49"/><path d="M100-162.5l90.8 182.3" stroke="#c2e1ff4A"/><path d="M100-162.5l123.8-163.3" stroke="#fff5004B"/><path d="M100-162.5l-207.3-22.3" stroke="#005bbb4C"/><path d="M100-162.5l-204.4 52.5" stroke="#fff4D"/><path d="M100-162.5l160.5-141.6" stroke="#fff5004E"/><path d="M100-162.5l-200.1 76.1" stroke="#c2e1ff4E"/><path d="M100-162.5l36.1-211.5" stroke="#fff4F"/><path d="M100-162.5l96.9 192" stroke="#fff5004F"/><path d="M100-162.5l-182.5 116.5" stroke="#005bbb4F"/><path d="M100-162.5l138.7-166.7" stroke="#fff50"/><path d="M100-162.5l197.6 91.8" stroke="#fff50"/><path d="M100-162.5l214.5 44.6" stroke="#fff50051"/><path d="M100-162.5l-203.8 80.5" stroke="#fff51"/><path d="M100-162.5l60.1-215.9" stroke="#fff50054"/><path d="M100-162.5l-216.3 61.7" stroke="#fff50054"/><path d="M100-162.5l-170.4-147.6" stroke="#fff50055"/><path d="M100-162.5l208.7 85.4" stroke="#fff50055"/><path d="M100-162.5l221 46.8" stroke="#c2e1ff55"/><path d="M100-162.5l-172.2 146.7" stroke="#fff55"/><path d="M100-162.5l-91.2 207.3" stroke="#fff50055"/><path d="M100-162.5l-178.8 146.3" stroke="#fff59"/><path d="M100-162.5l116.4-200.4" stroke="#fff5A"/><path d="M100-162.5l-104.5 206.9" stroke="#fff5A"/><path d="M100-162.5l-109.1 205.1" stroke="#005bbb5A"/><path d="M100-162.5l224.5-60" stroke="#fff5005A"/><path d="M100-162.5l194.4 128.1" stroke="#fff5005B"/><path d="M100-162.5l197.1-124.8" stroke="#fff5005C"/><path d="M100-162.5l58.6 225.9" stroke="#fff5C"/><path d="M100-162.5l-202.3 116.9" stroke="#fff5C"/><path d="M100-162.5l208.9-105.2" stroke="#005bbb5C"/><path d="M100-162.5l-201.8 119.4" stroke="#c2e1ff5D"/><path d="M100-162.5l-224.6-67.6" stroke="#fff5E"/><path d="M100-162.5l-64.8 225.5" stroke="#fff5E"/><path d="M100-162.5l-88.3-217.9" stroke="#c2e1ff5F"/><path d="M100-162.5l198 127.1" stroke="#fff5005F"/><path d="M100-162.5l27.1-233.7" stroke="#c2e1ff5F"/><path d="M100-162.5l-229-54.4" stroke="#fff5F"/><path d="M100-162.5l-228.2-59" stroke="#fff60"/><path d="M100-162.5l203.8-118.7" stroke="#005bbb61"/><path d="M100-162.5l210.8 105.8" stroke="#fff61"/><path d="M100-162.5l-54.4 229.5" stroke="#fff50061"/><path d="M100-162.5l-147.3 184.3" stroke="#fff50061"/><path d="M100-162.5l-235.7-11.2" stroke="#fff61"/><path d="M100-162.5l-69.2 225.7" stroke="#fff50062"/><path d="M100-162.5l-227.6 62.7" stroke="#fff62"/><path d="M100-162.5l-45.1 231.8" stroke="#c2e1ff62"/><path d="M100-162.5l136.7 192.6" stroke="#005bbb62"/><path d="M100-162.5l90.1-218.4" stroke="#fff63"/><path d="M100-162.5l173.3-160.6" stroke="#fff63"/><path d="M100-162.5l-199.7-126.2" stroke="#fff50064"/><path d="M100-162.5l185.1-146.7" stroke="#c2e1ff65"/><path d="M100-162.5l98.7 214.5" stroke="#fff65"/><path d="M100-162.5l-222.3 78.3" stroke="#c2e1ff67"/><path d="M100-162.5l-230 50.8" stroke="#005bbb67"/><path d="M100-162.5l89.3-217.7" stroke="#005bbb68"/><path d="M100-162.5l114.2 205.4" stroke="#005bbb69"/><path d="M100-162.5l220.5-81.2" stroke="#fff50069"/><path d="M100-162.5l-34.6-232.4" stroke="#fff69"/><path d="M100-162.5l72.7-223.4" stroke="#c2e1ff69"/><path d="M100-162.5l73.5-223.1" stroke="#fff69"/><path d="M100-162.5l-109.2 207.8" stroke="#fff50069"/><path d="M100-162.5l208.8 106.7" stroke="#fff6A"/><path d="M100-162.5l199.2 123" stroke="#fff5006A"/><path d="M100-162.5l-43-229.9" stroke="#fff6A"/><path d="M100-162.5l-230.1 42.2" stroke="#c2e1ff6B"/><path d="M100-162.5l68.4 223.6" stroke="#fff6B"/><path d="M100-162.5l169.4 161" stroke="#c2e1ff6B"/><path d="M100-162.5l233.6 0" stroke="#c2e1ff6B"/><path d="M100-162.5l-34-230.6" stroke="#c2e1ff6C"/><path d="M100-162.5l42.1 229.2" stroke="#fff6C"/><path d="M100-162.5l229.2-41.6" stroke="#fff6C"/><path d="M100-162.5l156.7-172.3" stroke="#fff5006C"/><path d="M100-162.5l94.7-211.9" stroke="#fff5006D"/><path d="M100-162.5l-107.6-204.2" stroke="#fff6E"/><path d="M100-162.5l-119.2-197.6" stroke="#fff6E"/><path d="M100-162.5l3.5 228.8" stroke="#c2e1ff70"/><path d="M100-162.5l207.7 94.8" stroke="#c2e1ff70"/><path d="M100-162.5l-225.2-31.2" stroke="#fff71"/><path d="M100-162.5l-146.7 171.2" stroke="#c2e1ff72"/><path d="M100-162.5l-216 62.4" stroke="#fff73"/><path d="M100-162.5l-110.8-195.1" stroke="#c2e1ff73"/><path d="M100-162.5l161.8 152.9" stroke="#fff50074"/><path d="M100-162.5l-7.1 222" stroke="#fff50075"/><path d="M100-162.5l204.7 85.4" stroke="#fff50075"/><path d="M100-162.5l-127.9 179.5" stroke="#fff75"/><path d="M100-162.5l-105.3-192.2" stroke="#fff50076"/><path d="M100-162.5l188.3-111.7" stroke="#c2e1ff76"/><path d="M100-162.5l-78.3 203.8" stroke="#fff77"/><path d="M100-162.5l-26.8-214.8" stroke="#c2e1ff78"/><path d="M100-162.5l41.9-208.8" stroke="#fff50079"/><path d="M100-162.5l-73.2-199.8" stroke="#c2e1ff79"/><path d="M100-162.5l163.2 136" stroke="#c2e1ff79"/><path d="M100-162.5l-41.1-207" stroke="#c2e1ff7A"/><path d="M100-162.5l-197.5 68.2" stroke="#005bbb7B"/><path d="M100-162.5l-143.2 149.3" stroke="#fff7C"/><path d="M100-162.5l-206 9.9" stroke="#fff5007C"/><path d="M100-162.5l-22.6 202.8" stroke="#fff7D"/><path d="M100-162.5l185.1-85.8" stroke="#005bbb7D"/><path d="M100-162.5l103.4-174.5" stroke="#fff7D"/><path d="M100-162.5l35.1 199.1" stroke="#005bbb7D"/><path d="M100-162.5l197.2 38.6" stroke="#fff5007E"/><path d="M100-162.5l-197.2-21.1" stroke="#005bbb7F"/><path d="M100-162.5l-188.2-50.5" stroke="#fff50080"/><path d="M100-162.5l124.5 144.8" stroke="#fff81"/><path d="M100-162.5l160.2 102.2" stroke="#fff81"/><path d="M100-162.5l-10.3 188.4" stroke="#fff50082"/><path d="M100-162.5l-172.1 70.8" stroke="#fff50082"/><path d="M100-162.5l179.7 44.9" stroke="#005bbb83"/><path d="M100-162.5l147-108.9" stroke="#c2e1ff83"/><path d="M100-162.5l165.1 74.1" stroke="#c2e1ff84"/><path d="M100-162.5l137.6-115" stroke="#005bbb84"/><path d="M100-162.5l-25.6-176.3" stroke="#c2e1ff84"/><path d="M100-162.5l174.6 34.1" stroke="#fff84"/><path d="M100-162.5l160-75.5" stroke="#005bbb85"/><path d="M100-162.5l-97.2-146" stroke="#005bbb85"/><path d="M100-162.5l-155.5-72.6" stroke="#fff86"/><path d="M100-162.5l132.6 98.2" stroke="#fff50087"/><path d="M100-162.5l49.5 152.4" stroke="#005bbb88"/><path d="M100-162.5l-151.4 46.6" stroke="#fff50089"/><path d="M100-162.5l-113.1 100.9" stroke="#005bbb8A"/><path d="M100-162.5l142.8-46.8" stroke="#c2e1ff8A"/><path d="M100-162.5l134.6 53.5" stroke="#005bbb8B"/><path d="M100-162.5l95.8-106.6" stroke="#c2e1ff8B"/><path d="M100-162.5l17.4-136.3" stroke="#005bbb8C"/><path d="M100-162.5l92.5 101.5" stroke="#fff5008C"/><path d="M100-162.5l-92.4 98.2" stroke="#005bbb8D"/><path d="M100-162.5l130.6 6.4" stroke="#fff5008D"/><path d="M100-162.5l-107.1-74.5" stroke="#c2e1ff8D"/><path d="M100-162.5l-16.1-124.6" stroke="#005bbb8E"/><path d="M100-162.5l-115.3-42.8" stroke="#fff5008E"/><path d="M100-162.5l-97.7-58.8" stroke="#c2e1ff8F"/><path d="M100-162.5l85.9-60.5" stroke="#c2e1ff90"/><path d="M100-162.5l-55.5-89.1" stroke="#c2e1ff90"/><path d="M100-162.5l-44.8-84.9" stroke="#fff91"/><path d="M100-162.5l-32.8-79.7" stroke="#fff50092"/><path d="M100-162.5l76.8-15.2" stroke="#fff93"/><path d="M100-162.5l74.7-14.4" stroke="#c2e1ff93"/><path d="M100-162.5l-73 15.5" stroke="#005bbb93"/><path d="M100-162.5l-70.5 3" stroke="#fff50093"/><path d="M100-162.5l-31.9-51.8" stroke="#005bbb94"/><path d="M100-162.5l-9.6-58.8" stroke="#c2e1ff94"/><path d="M100-162.5l-25.3 43.1" stroke="#005bbb94"/><path d="M100-162.5l-10 47.1" stroke="#fff50094"/><path d="M100-162.5l-46.2-8.1" stroke="#c2e1ff95"/><path d="M100-162.5l-46.7 3.6" stroke="#fff95"/><path d="M100-162.5l-4.4-45.8" stroke="#005bbb95"/></g><g class="sparcs"><path d="M148.5-194.8a6 6 0 1 1 0-12 6 6 0 0 1 0 12" fill="#fff5007F"/><path d="M33.7-157.4a6 6 0 1 1 0-12 6 6 0 0 1 0 12" fill="#fff7F"/><path d="M157.8-104.9a6.1 6.1 0 1 1 0-12.1 6.1 6.1 0 0 1 0 12.1" fill="#c2e1ff80"/><path d="M55.8-79.3a6.1 6.1 0 1 1 0-12.2 6.1 6.1 0 0 1 0 12.2" fill="#c2e1ff81"/><path d="M140.4-239.2a6.1 6.1 0 1 1 0-12.2 6.1 6.1 0 0 1 0 12.2" fill="#005bbb82"/><path d="M101.4-252.5a6.2 6.2 0 1 1 0-12.4 6.2 6.2 0 0 1 0 12.4" fill="#fff50082"/><path d="M21.2-220a6.2 6.2 0 1 1 0-12.4 6.2 6.2 0 0 1 0 12.4" fill="#fff50083"/><path d="M19.2-258.8a6.4 6.4 0 1 1 0-12.8 6.4 6.4 0 0 1 0 12.8" fill="#fff87"/><path d="M27.6-38.3a6.5 6.5 0 1 1 0-12.9 6.5 6.5 0 0 1 0 12.9" fill="#c2e1ff89"/><path d="M-19.3-81.4a6.5 6.5 0 1 1 0-13 6.5 6.5 0 0 1 0 13" fill="#fff89"/><path d="M-42.4-169.2a6.5 6.5 0 1 1 0-13 6.5 6.5 0 0 1 0 13" fill="#005bbb8A"/><path d="M190.4-270.7a6.5 6.5 0 1 1 0-13.1 6.5 6.5 0 0 1 0 13.1" fill="#fff8A"/><path d="M182.5-277a6.5 6.5 0 1 1 0-13.1 6.5 6.5 0 0 1 0 13.1" fill="#c2e1ff8B"/><path d="M-21.8-74.3a6.5 6.5 0 1 1 0-13.1 6.5 6.5 0 0 1 0 13.1" fill="#005bbb8B"/><path d="M159.5-18.7a6.6 6.6 0 1 1 0-13.1 6.6 6.6 0 0 1 0 13.1" fill="#c2e1ff8B"/><path d="M173.6-22a6.6 6.6 0 1 1 0-13.2 6.6 6.6 0 0 1 0 13.2" fill="#c2e1ff8C"/><path d="M116-310.6a6.6 6.6 0 1 1 0-13.3 6.6 6.6 0 0 1 0 13.3" fill="#c2e1ff8D"/><path d="M162.4-303.1a6.7 6.7 0 1 1 0-13.3 6.7 6.7 0 0 1 0 13.3" fill="#fff8E"/><path d="M86.9-315.3a6.7 6.7 0 1 1 0-13.4 6.7 6.7 0 0 1 0 13.4" fill="#fff8E"/><path d="M249.1-219.4a6.7 6.7 0 1 1 0-13.4 6.7 6.7 0 0 1 0 13.4" fill="#c2e1ff8E"/><path d="M-64.2-180.1a6.8 6.8 0 1 1 0-13.6 6.8 6.8 0 0 1 0 13.6" fill="#c2e1ff8F"/><path d="M-49.6-83.5a6.8 6.8 0 1 1 0-13.5 6.8 6.8 0 0 1 0 13.5" fill="#005bbb8F"/><path d="M58.5 5.6a6.8 6.8 0 1 1 0-13.6 6.8 6.8 0 0 1 0 13.6" fill="#fff8F"/><path d="M176.7-304.6a6.8 6.8 0 1 1 0-13.6 6.8 6.8 0 0 1 0 13.6" fill="#c2e1ff90"/><path d="M111-324.6a6.8 6.8 0 1 1 0-13.6 6.8 6.8 0 0 1 0 13.6" fill="#c2e1ff90"/><path d="M-63.5-210.4a6.8 6.8 0 1 1 0-13.6 6.8 6.8 0 0 1 0 13.6" fill="#fff91"/><path d="M175.7-319.6a7 7 0 1 1 0-13.9 7 7 0 0 1 0 13.9" fill="#005bbb94"/><path d="M262.2-50.7a7.2 7.2 0 1 1 0-14.3 7.2 7.2 0 0 1 0 14.3" fill="#fff50098"/><path d="M254.7-38.7a7.2 7.2 0 1 1 0-14.3 7.2 7.2 0 0 1 0 14.3" fill="#005bbb98"/><path d="M279.9-81.6a7.2 7.2 0 1 1 0-14.4 7.2 7.2 0 0 1 0 14.4" fill="#fff50099"/><path d="M-64.9-261.8a7.2 7.2 0 1 1 0-14.5 7.2 7.2 0 0 1 0 14.5" fill="#fff50099"/><path d="M-93.8-194a7.2 7.2 0 1 1 0-14.5 7.2 7.2 0 0 1 0 14.5" fill="#fff5009A"/><path d="M-75.4-63.5a7.2 7.2 0 1 1 0-14.5 7.2 7.2 0 0 1 0 14.5" fill="#c2e1ff9A"/><path d="M-87.6-218.4a7.2 7.2 0 1 1 0-14.5 7.2 7.2 0 0 1 0 14.5" fill="#fff5009A"/><path d="M168.8-344a7.3 7.3 0 1 1 0-14.7 7.3 7.3 0 0 1 0 14.7" fill="#005bbb9B"/><path d="M190.8 27.1a7.4 7.4 0 1 1 0-14.7 7.4 7.4 0 0 1 0 14.7" fill="#fff5009D"/><path d="M223.8-318.5a7.4 7.4 0 1 1 0-14.7 7.4 7.4 0 0 1 0 14.7" fill="#005bbb9D"/><path d="M-107.3-177.3a7.5 7.5 0 1 1 0-15 7.5 7.5 0 0 1 0 15" fill="#005bbb9F"/><path d="M-104.4-102.5a7.5 7.5 0 1 1 0-15.1 7.5 7.5 0 0 1 0 15.1" fill="#005bbbA0"/><path d="M260.5-296.4a7.6 7.6 0 1 1 0-15.3 7.6 7.6 0 0 1 0 15.3" fill="#005bbbA2"/><path d="M-100.1-78.8a7.6 7.6 0 1 1 0-15.2 7.6 7.6 0 0 1 0 15.2" fill="#fffA2"/><path d="M136.1-366.3a7.6 7.6 0 1 1 0-15.3 7.6 7.6 0 0 1 0 15.3" fill="#fffA2"/><path d="M196.9 37.2a7.6 7.6 0 1 1 0-15.3 7.6 7.6 0 0 1 0 15.3" fill="#c2e1ffA3"/><path d="M-82.5-38.3a7.7 7.7 0 1 1 0-15.4 7.7 7.7 0 0 1 0 15.4" fill="#005bbbA3"/><path d="M238.7-321.5a7.7 7.7 0 1 1 0-15.4 7.7 7.7 0 0 1 0 15.4" fill="#fff500A4"/><path d="M297.6-63a7.7 7.7 0 1 1 0-15.4 7.7 7.7 0 0 1 0 15.4" fill="#fff500A4"/><path d="M314.5-110.1a7.8 7.8 0 1 1 0-15.5 7.8 7.8 0 0 1 0 15.5" fill="#fff500A5"/><path d="M-103.8-74.3a7.8 7.8 0 1 1 0-15.5 7.8 7.8 0 0 1 0 15.5" fill="#005bbbA5"/><path d="M160.1-370.5a7.9 7.9 0 1 1 0-15.9 7.9 7.9 0 0 1 0 15.9" fill="#005bbbA9"/><path d="M-116.3-92.8a8 8 0 1 1 0-15.9 8 8 0 0 1 0 15.9" fill="#fff500AA"/><path d="M-70.4-302.1a8 8 0 1 1 0-15.9 8 8 0 0 1 0 15.9" fill="#005bbbAA"/><path d="M308.7-69.2a8 8 0 1 1 0-15.9 8 8 0 0 1 0 15.9" fill="#fff500AA"/><path d="M321-107.7a8 8 0 1 1 0-16 8 8 0 0 1 0 16" fill="#005bbbAA"/><path d="M-72.2-7.8a8 8 0 1 1 0-16 8 8 0 0 1 0 16" fill="#fffAB"/><path d="M8.8 52.9a8 8 0 1 1 0-16.1 8 8 0 0 1 0 16.1" fill="#fff500AB"/><path d="M-78.8-7.9a8.2 8.2 0 1 1 0-16.5 8.2 8.2 0 0 1 0 16.5" fill="#c2e1ffB0"/><path d="M216.4-354.6a8.3 8.3 0 1 1 0-16.5 8.3 8.3 0 0 1 0 16.5" fill="#c2e1ffB1"/><path d="M-4.5 52.7a8.3 8.3 0 1 1 0-16.5 8.3 8.3 0 0 1 0 16.5" fill="#fffB1"/><path d="M-9.1 50.9a8.3 8.3 0 1 1 0-16.6 8.3 8.3 0 0 1 0 16.6" fill="#c2e1ffB2"/><path d="M324.5-214.2a8.3 8.3 0 1 1 0-16.6 8.3 8.3 0 0 1 0 16.6" fill="#fffB2"/><path d="M294.4-26.1a8.4 8.4 0 1 1 0-16.7 8.4 8.4 0 0 1 0 16.7" fill="#c2e1ffB2"/><path d="M297.1-278.9a8.4 8.4 0 1 1 0-16.8 8.4 8.4 0 0 1 0 16.8" fill="#005bbbB3"/><path d="M158.6 71.8a8.4 8.4 0 1 1 0-16.8 8.4 8.4 0 0 1 0 16.8" fill="#005bbbB3"/><path d="M-102.3-37.2a8.4 8.4 0 1 1 0-16.8 8.4 8.4 0 0 1 0 16.8" fill="#c2e1ffB4"/><path d="M308.9-259.3a8.4 8.4 0 1 1 0-16.9 8.4 8.4 0 0 1 0 16.9" fill="#c2e1ffB4"/><path d="M-101.8-34.6a8.5 8.5 0 1 1 0-17 8.5 8.5 0 0 1 0 17" fill="#fffB5"/><path d="M-124.6-221.6a8.5 8.5 0 1 1 0-17 8.5 8.5 0 0 1 0 17" fill="#005bbbB6"/><path d="M35.2 71.5a8.5 8.5 0 1 1 0-17.1 8.5 8.5 0 0 1 0 17.1" fill="#005bbbB6"/><path d="M11.7-371.8a8.6 8.6 0 1 1 0-17.2 8.6 8.6 0 0 1 0 17.2" fill="#fffB7"/><path d="M298-26.8a8.6 8.6 0 1 1 0-17.2 8.6 8.6 0 0 1 0 17.2" fill="#fff500B8"/><path d="M127.1-387.6a8.6 8.6 0 1 1 0-17.2 8.6 8.6 0 0 1 0 17.2" fill="#fff500B8"/><path d="M-129-208.3a8.6 8.6 0 1 1 0-17.2 8.6 8.6 0 0 1 0 17.2" fill="#fffB8"/><path d="M-128.2-212.8a8.7 8.7 0 1 1 0-17.3 8.7 8.7 0 0 1 0 17.3" fill="#fff500B9"/><path d="M303.8-272.5a8.7 8.7 0 1 1 0-17.4 8.7 8.7 0 0 1 0 17.4" fill="#fff500BA"/><path d="M310.8-48a8.7 8.7 0 1 1 0-17.4 8.7 8.7 0 0 1 0 17.4" fill="#005bbbBA"/><path d="M45.6 75.7a8.7 8.7 0 1 1 0-17.4 8.7 8.7 0 0 1 0 17.4" fill="#fff500BA"/><path d="M-47.3 30.5a8.7 8.7 0 1 1 0-17.4 8.7 8.7 0 0 1 0 17.4" fill="#fffBA"/><path d="M-135.7-165a8.7 8.7 0 1 1 0-17.5 8.7 8.7 0 0 1 0 17.5" fill="#c2e1ffBB"/><path d="M30.8 72a8.7 8.7 0 1 1 0-17.5 8.7 8.7 0 0 1 0 17.5" fill="#fffBB"/><path d="M-127.6-91a8.8 8.8 0 1 1 0-17.6 8.8 8.8 0 0 1 0 17.6" fill="#c2e1ffBB"/><path d="M54.9 78.1a8.8 8.8 0 1 1 0-17.6 8.8 8.8 0 0 1 0 17.6" fill="#005bbbBC"/><path d="M236.7 38.9a8.8 8.8 0 1 1 0-17.6 8.8 8.8 0 0 1 0 17.6" fill="#c2e1ffBC"/><path d="M190.1-372.1a8.8 8.8 0 1 1 0-17.6 8.8 8.8 0 0 1 0 17.6" fill="#c2e1ffBC"/><path d="M273.3-314.2a8.8 8.8 0 1 1 0-17.7 8.8 8.8 0 0 1 0 17.7" fill="#c2e1ffBD"/><path d="M-99.7-279.8a8.9 8.9 0 1 1 0-17.8 8.9 8.9 0 0 1 0 17.8" fill="#c2e1ffBE"/><path d="M285.1-300.3a8.9 8.9 0 1 1 0-17.8 8.9 8.9 0 0 1 0 17.8" fill="#c2e1ffBF"/><path d="M198.7 60.9a9 9 0 1 1 0-17.9 9 9 0 0 1 0 17.9" fill="#005bbbC0"/><path d="M-122.3-75.2a9.1 9.1 0 1 1 0-18.1 9.1 9.1 0 0 1 0 18.1" fill="#fffC2"/><path d="M-130-102.6a9.1 9.1 0 1 1 0-18.2 9.1 9.1 0 0 1 0 18.2" fill="#c2e1ffC3"/><path d="M189.3-371.1a9.1 9.1 0 1 1 0-18.2 9.1 9.1 0 0 1 0 18.2" fill="#fff500C3"/><path d="M214.2 52a9.2 9.2 0 1 1 0-18.3 9.2 9.2 0 0 1 0 18.3" fill="#c2e1ffC4"/><path d="M320.5-234.5a9.2 9.2 0 1 1 0-18.4 9.2 9.2 0 0 1 0 18.4" fill="#005bbbC4"/><path d="M65.4-385.7a9.2 9.2 0 1 1 0-18.3 9.2 9.2 0 0 1 0 18.3" fill="#fff500C4"/><path d="M172.7-376.7a9.2 9.2 0 1 1 0-18.3 9.2 9.2 0 0 1 0 18.3" fill="#c2e1ffC4"/><path d="M173.5-376.4a9.2 9.2 0 1 1 0-18.3 9.2 9.2 0 0 1 0 18.3" fill="#fff500C5"/><path d="M-9.2 54.5a9.2 9.2 0 1 1 0-18.4 9.2 9.2 0 0 1 0 18.4" fill="#c2e1ffC5"/><path d="M308.8-46.6a9.2 9.2 0 1 1 0-18.5 9.2 9.2 0 0 1 0 18.5" fill="#fffC5"/><path d="M299.2-30.2a9.3 9.3 0 1 1 0-18.5 9.3 9.3 0 0 1 0 18.5" fill="#005bbbC6"/><path d="M57-383.2a9.3 9.3 0 1 1 0-18.5 9.3 9.3 0 0 1 0 18.5" fill="#c2e1ffC7"/><path d="M-130.1-111.1a9.3 9.3 0 1 1 0-18.5 9.3 9.3 0 0 1 0 18.5" fill="#fffC7"/><path d="M168.4 70.4a9.3 9.3 0 1 1 0-18.5 9.3 9.3 0 0 1 0 18.5" fill="#fffC7"/><path d="M269.4 7.8a9.3 9.3 0 1 1 0-18.6 9.3 9.3 0 0 1 0 18.6" fill="#005bbbC7"/><path d="M333.6-153.2a9.3 9.3 0 1 1 0-18.6 9.3 9.3 0 0 1 0 18.6" fill="#c2e1ffC7"/><path d="M66-383.7a9.3 9.3 0 1 1 0-18.7 9.3 9.3 0 0 1 0 18.7" fill="#fffC8"/><path d="M142.1 76.1a9.3 9.3 0 1 1 0-18.7 9.3 9.3 0 0 1 0 18.7" fill="#fff500C8"/><path d="M329.2-194.7a9.4 9.4 0 1 1 0-18.7 9.4 9.4 0 0 1 0 18.7" fill="#c2e1ffC8"/><path d="M256.7-325.5a9.4 9.4 0 1 1 0-18.7 9.4 9.4 0 0 1 0 18.7" fill="#c2e1ffC8"/><path d="M194.7-364.9a9.4 9.4 0 1 1 0-18.9 9.4 9.4 0 0 1 0 18.9" fill="#005bbbCA"/><path d="M-7.6-357.2a9.5 9.5 0 1 1 0-18.9 9.5 9.5 0 0 1 0 18.9" fill="#fff500CB"/><path d="M-19.2-350.6a9.5 9.5 0 1 1 0-19 9.5 9.5 0 0 1 0 19" fill="#005bbbCB"/><path d="M103.5 75.9a9.6 9.6 0 1 1 0-19.2 9.6 9.6 0 0 1 0 19.2" fill="#fff500CE"/><path d="M307.7-58.1a9.6 9.6 0 1 1 0-19.2 9.6 9.6 0 0 1 0 19.2" fill="#fffCE"/><path d="M-125.2-184a9.7 9.7 0 1 1 0-19.4 9.7 9.7 0 0 1 0 19.4" fill="#c2e1ffCF"/><path d="M-46.7 18.4a9.7 9.7 0 1 1 0-19.5 9.7 9.7 0 0 1 0 19.5" fill="#005bbbD1"/><path d="M-116-90.4a9.8 9.8 0 1 1 0-19.5 9.8 9.8 0 0 1 0 19.5" fill="#c2e1ffD1"/><path d="M-10.8-347.8a9.8 9.8 0 1 1 0-19.6 9.8 9.8 0 0 1 0 19.6" fill="#c2e1ffD2"/><path d="M261.8 0.3a9.8 9.8 0 1 1 0-19.7 9.8 9.8 0 0 1 0 19.7" fill="#fffD3"/><path d="M92.9 69.4a9.9 9.9 0 1 1 0-19.7 9.9 9.9 0 0 1 0 19.7" fill="#005bbbD4"/><path d="M304.7-67.2a9.9 9.9 0 1 1 0-19.8 9.9 9.9 0 0 1 0 19.8" fill="#c2e1ffD4"/><path d="M-27.9 27a9.9 9.9 0 1 1 0-19.9 9.9 9.9 0 0 1 0 19.9" fill="#fffD5"/><path d="M-5.3-344.7a10 10 0 1 1 0-19.9 10 10 0 0 1 0 19.9" fill="#fffD6"/><path d="M288.3-264.2a10 10 0 1 1 0-19.9 10 10 0 0 1 0 19.9" fill="#fff500D6"/><path d="M21.7 51.2a10 10 0 1 1 0-19.9 10 10 0 0 1 0 19.9" fill="#c2e1ffD6"/><path d="M73.2-367.3a10 10 0 1 1 0-20 10 10 0 0 1 0 20" fill="#fff500D8"/><path d="M141.9-361.2a10.1 10.1 0 1 1 0-20.3 10.1 10.1 0 0 1 0 20.3" fill="#fffDA"/><path d="M26.8-352.1a10.1 10.1 0 1 1 0-20.3 10.1 10.1 0 0 1 0 20.3" fill="#fff500DA"/><path d="M263.2-16.3a10.2 10.2 0 1 1 0-20.3 10.2 10.2 0 0 1 0 20.3" fill="#c2e1ffDA"/><path d="M58.9-359.3a10.2 10.2 0 1 1 0-20.3 10.2 10.2 0 0 1 0 20.3" fill="#005bbbDB"/><path d="M-97.5-84.1a10.2 10.2 0 1 1 0-20.5 10.2 10.2 0 0 1 0 20.5" fill="#c2e1ffDC"/><path d="M-43.2-2.9a10.3 10.3 0 1 1 0-20.5 10.3 10.3 0 0 1 0 20.5" fill="#fff500DD"/><path d="M-106-142.3a10.3 10.3 0 1 1 0-20.6 10.3 10.3 0 0 1 0 20.6" fill="#fffDD"/><path d="M77.4 50.7a10.3 10.3 0 1 1 0-20.7 10.3 10.3 0 0 1 0 20.7" fill="#fffDE"/><path d="M285.1-238a10.3 10.3 0 1 1 0-20.7 10.3 10.3 0 0 1 0 20.7" fill="#c2e1ffDE"/><path d="M203.4-326.6a10.4 10.4 0 1 1 0-20.8 10.4 10.4 0 0 1 0 20.8" fill="#fffDF"/><path d="M135.1 47a10.4 10.4 0 1 1 0-20.8 10.4 10.4 0 0 1 0 20.8" fill="#005bbbDF"/><path d="M297.2-113.5a10.4 10.4 0 1 1 0-20.8 10.4 10.4 0 0 1 0 20.8" fill="#005bbbE0"/><path d="M-97.2-173.1a10.5 10.5 0 1 1 0-20.9 10.5 10.5 0 0 1 0 20.9" fill="#c2e1ffE1"/><path d="M-88.2-202.5a10.5 10.5 0 1 1 0-21.1 10.5 10.5 0 0 1 0 21.1" fill="#c2e1ffE2"/><path d="M224.5-7.1a10.6 10.6 0 1 1 0-21.2 10.6 10.6 0 0 1 0 21.2" fill="#fff500E4"/><path d="M260.2-49.7a10.6 10.6 0 1 1 0-21.3 10.6 10.6 0 0 1 0 21.3" fill="#fff500E4"/><path d="M89.7 36.5a10.6 10.6 0 1 1 0-21.3 10.6 10.6 0 0 1 0 21.3" fill="#005bbbE5"/><path d="M-72.1-81a10.7 10.7 0 1 1 0-21.4 10.7 10.7 0 0 1 0 21.4" fill="#c2e1ffE6"/><path d="M279.7-106.9a10.7 10.7 0 1 1 0-21.4 10.7 10.7 0 0 1 0 21.4" fill="#005bbbE6"/><path d="M247-260.7a10.7 10.7 0 1 1 0-21.4 10.7 10.7 0 0 1 0 21.4" fill="#c2e1ffE7"/><path d="M265.1-77.6a10.8 10.8 0 1 1 0-21.5 10.8 10.8 0 0 1 0 21.5" fill="#fff500E7"/><path d="M237.6-266.7a10.8 10.8 0 1 1 0-21.6 10.8 10.8 0 0 1 0 21.6" fill="#c2e1ffE8"/><path d="M74.4-328a10.8 10.8 0 1 1 0-21.6 10.8 10.8 0 0 1 0 21.6" fill="#fffE8"/><path d="M274.6-117.6a10.8 10.8 0 1 1 0-21.6 10.8 10.8 0 0 1 0 21.6" fill="#fffE8"/><path d="M260-227.2a10.8 10.8 0 1 1 0-21.6 10.8 10.8 0 0 1 0 21.6" fill="#c2e1ffE9"/><path d="M2.8-297.7a10.8 10.8 0 1 1 0-21.7 10.8 10.8 0 0 1 0 21.7" fill="#c2e1ffE9"/><path d="M-55.5-224.2a10.9 10.9 0 1 1 0-21.7 10.9 10.9 0 0 1 0 21.7" fill="#fffEA"/><path d="M232.6-53.3a11 11 0 1 1 0-22 11 11 0 0 1 0 22" fill="#005bbbEC"/><path d="M149.5 0.9a11 11 0 1 1 0-22 11 11 0 0 1 0 22" fill="#c2e1ffED"/><path d="M-51.4-104.9a11.1 11.1 0 1 1 0-22.1 11.1 11.1 0 0 1 0 22.1" fill="#005bbbEE"/><path d="M-13.1-50.4a11.1 11.1 0 1 1 0-22.3 11.1 11.1 0 0 1 0 22.3" fill="#005bbbEF"/><path d="M242.8-198.2a11.1 11.1 0 1 1 0-22.3 11.1 11.1 0 0 1 0 22.3" fill="#fff500F0"/><path d="M234.6-97.8a11.2 11.2 0 1 1 0-22.4 11.2 11.2 0 0 1 0 22.4" fill="#c2e1ffF1"/><path d="M195.8-257.8a11.2 11.2 0 1 1 0-22.5 11.2 11.2 0 0 1 0 22.5" fill="#fff500F1"/><path d="M117.4-287.5a11.3 11.3 0 1 1 0-22.6 11.3 11.3 0 0 1 0 22.6" fill="#c2e1ffF2"/><path d="M192.5-49.8a11.3 11.3 0 1 1 0-22.5 11.3 11.3 0 0 1 0 22.5" fill="#fffF2"/><path d="M7.6-53a11.3 11.3 0 1 1 0-22.6 11.3 11.3 0 0 1 0 22.6" fill="#fff500F3"/><path d="M230.6-144.7a11.3 11.3 0 1 1 0-22.7 11.3 11.3 0 0 1 0 22.7" fill="#fff500F4"/><path d="M-7.1-225.7a11.3 11.3 0 1 1 0-22.6 11.3 11.3 0 0 1 0 22.6" fill="#fff500F4"/><path d="M83.9-275.7a11.4 11.4 0 1 1 0-22.7 11.4 11.4 0 0 1 0 22.7" fill="#005bbbF5"/><path d="M-15.3-193.9a11.4 11.4 0 1 1 0-22.8 11.4 11.4 0 0 1 0 22.8" fill="#fffF5"/><path d="M2.3-209.8a11.4 11.4 0 1 1 0-22.9 11.4 11.4 0 0 1 0 22.9" fill="#c2e1ffF6"/><path d="M185.9-211.5a11.5 11.5 0 1 1 0-23 11.5 11.5 0 0 1 0 23" fill="#005bbbF8"/><path d="M44.5-240.1a11.5 11.5 0 1 1 0-23 11.5 11.5 0 0 1 0 23" fill="#fffF8"/><path d="M55.2-235.8a11.6 11.6 0 1 1 0-23.1 11.6 11.6 0 0 1 0 23.1" fill="#c2e1ffF9"/><path d="M67.2-230.6a11.6 11.6 0 1 1 0-23.2 11.6 11.6 0 0 1 0 23.2" fill="#fff500FA"/><path d="M176.8-166.1a11.6 11.6 0 1 1 0-23.3 11.6 11.6 0 0 1 0 23.3" fill="#005bbbFB"/><path d="M174.7-165.3a11.7 11.7 0 1 1 0-23.3 11.7 11.7 0 0 1 0 23.3" fill="#fff500FB"/><path d="M27-135.4a11.7 11.7 0 1 1 0-23.3 11.7 11.7 0 0 1 0 23.3" fill="#c2e1ffFB"/><path d="M29.5-147.8a11.7 11.7 0 1 1 0-23.4 11.7 11.7 0 0 1 0 23.4" fill="#005bbbFC"/><path d="M68.1-202.6a11.7 11.7 0 1 1 0-23.5 11.7 11.7 0 0 1 0 23.5" fill="#005bbbFC"/><path d="M90.4-209.6a11.7 11.7 0 1 1 0-23.4 11.7 11.7 0 0 1 0 23.4" fill="#c2e1ffFC"/><path d="M74.7-107.7a11.7 11.7 0 1 1 0-23.5 11.7 11.7 0 0 1 0 23.5" fill="#fff500FD"/><path d="M90-103.6a11.8 11.8 0 1 1 0-23.5 11.8 11.8 0 0 1 0 23.5" fill="#c2e1ffFD"/><path d="M53.8-158.8a11.8 11.8 0 1 1 0-23.6 11.8 11.8 0 0 1 0 23.6" fill="#fff500FD"/><path d="M53.3-147.1a11.8 11.8 0 1 1 0-23.5 11.8 11.8 0 0 1 0 23.5" fill="#fff500FD"/><path d="M95.6-196.5a11.8 11.8 0 1 1 0-23.5 11.8 11.8 0 0 1 0 23.5" fill="#fffFD"/></g></svg>