<svg width="1200" height="675" viewBox="-500 -500 1200 675" xmlns="http://www.w3.org/2000/svg"><path d="M-500-500h1200v675h-1200z" fill="#000"/><style>.sparkles path{stroke-linecap:round; stroke-width:1}</style><g class="sparkles"><path d="M100-162.5l1 47.1" stroke="#005bbb33"/><path d="M100-162.5l45.1-27.2" stroke="#005bbb33"/><path d="M100-162.5l52.8-20.1" stroke="#005bbb33"/><path d="M100-162.5l48.4 37.8" stroke="#fff33"/><path d="M100-162.5l66.2 29.2" stroke="#005bbb34"/><path d="M100-162.5l-63.3-42.3" stroke="#c2e1ff34"/><path d="M100-162.5l-74.6-16.1" stroke="#005bbb34"/><path d="M100-162.5l67.4-39.7" stroke="#fff50034"/><path d="M100-162.5l-53-60.8" stroke="#c2e1ff35"/><path d="M100-162.5l38.9 86.6" stroke="#fff36"/><path d="M100-162.5l-18.8 93.6" stroke="#005bbb36"/><path d="M100-162.5l3.8 95.9" stroke="#fff36"/><path d="M100-162.5l80.8 62.9" stroke="#005bbb36"/><path d="M100-162.5l-9 102.6" stroke="#fff37"/><path d="M100-162.5l-108.4 28.2" stroke="#c2e1ff37"/><path d="M100-162.5l-56.4 103.7" stroke="#005bbb38"/><path d="M100-162.5l45 115.6" stroke="#fff39"/><path d="M100-162.5l-128.7-15.7" stroke="#005bbb3A"/><path d="M100-162.5l19.1-138.8" stroke="#fff5003B"/><path d="M100-162.5l-111.2 90.3" stroke="#fff5003C"/><path d="M100-162.5l-76.8-125" stroke="#c2e1ff3C"/><path d="M100-162.5l-37.2 142.1" stroke="#c2e1ff3C"/><path d="M100-162.5l23.3-146.8" stroke="#c2e1ff3D"/><path d="M100-162.5l146.8-33.7" stroke="#005bbb3D"/><path d="M100-162.5l126.1 102.3" stroke="#fff3F"/><path d="M100-162.5l53.4 155.2" stroke="#c2e1ff40"/><path d="M100-162.5l-62.8 152.6" stroke="#fff50040"/><path d="M100-162.5l-166.1-0.1" stroke="#fff50040"/><path d="M100-162.5l144 92.7" stroke="#c2e1ff41"/><path d="M100-162.5l142.1 95.6" stroke="#fff41"/><path d="M100-162.5l-115.4-128.6" stroke="#c2e1ff41"/><path d="M100-162.5l5.1 173.9" stroke="#005bbb42"/><path d="M100-162.5l169.6-48.9" stroke="#c2e1ff42"/><path d="M100-162.5l-103.6 143.8" stroke="#005bbb42"/><path d="M100-162.5l162.7 77.6" stroke="#fff50043"/><path d="M100-162.5l-48 174.4" stroke="#fff43"/><path d="M100-162.5l-179.7 23.9" stroke="#c2e1ff43"/><path d="M100-162.5l-137.3-124.8" stroke="#fff45"/><path d="M100-162.5l95.7-159.4" stroke="#005bbb45"/><path d="M100-162.5l-138.3-125.8" stroke="#005bbb45"/><path d="M100-162.5l94.5-162.2" stroke="#005bbb45"/><path d="M100-162.5l-185.3 36.6" stroke="#fff45"/><path d="M100-162.5l189-12.9" stroke="#fff50046"/><path d="M100-162.5l-115.8 154.3" stroke="#fff47"/><path d="M100-162.5l-185.4 53.6" stroke="#005bbb47"/><path d="M100-162.5l-193.6-7.4" stroke="#005bbb47"/><path d="M100-162.5l147.7 127.6" stroke="#fff50047"/><path d="M100-162.5l194.8 22.7" stroke="#fff50048"/><path d="M100-162.5l4.8-196.3" stroke="#fff50048"/><path d="M100-162.5l156.7-119.8" stroke="#fff48"/><path d="M100-162.5l-152.4-130" stroke="#005bbb49"/><path d="M100-162.5l14.4-200.1" stroke="#005bbb49"/><path d="M100-162.5l-168-111.1" stroke="#005bbb49"/><path d="M100-162.5l185.1 83.7" stroke="#fff4A"/><path d="M100-162.5l79.9-188.5" stroke="#fff4B"/><path d="M100-162.5l181.8 94.6" stroke="#fff4B"/><path d="M100-162.5l-175.5 106.3" stroke="#c2e1ff4B"/><path d="M100-162.5l-31.7 203.3" stroke="#005bbb4B"/><path d="M100-162.5l19.6-207" stroke="#005bbb4C"/><path d="M100-162.5l40.4-204" stroke="#fff5004C"/><path d="M100-162.5l-67.7-197" stroke="#005bbb4C"/><path d="M100-162.5l107.9-183.4" stroke="#fff4E"/><path d="M100-162.5l-119 177" stroke="#c2e1ff4E"/><path d="M100-162.5l-151.6 151.5" stroke="#c2e1ff4E"/><path d="M100-162.5l175.1 125.1" stroke="#c2e1ff4F"/><path d="M100-162.5l208.6-62" stroke="#fff50"/><path d="M100-162.5l-87-199.6" stroke="#c2e1ff50"/><path d="M100-162.5l-207.7-67.6" stroke="#005bbb50"/><path d="M100-162.5l-215.4 37.8" stroke="#fff51"/><path d="M100-162.5l3.9 220.4" stroke="#fff52"/><path d="M100-162.5l-97.2 198" stroke="#005bbb52"/><path d="M100-162.5l-175.4-134.6" stroke="#005bbb52"/><path d="M100-162.5l221.6 17.9" stroke="#005bbb53"/><path d="M100-162.5l118.9 188.7" stroke="#fff53"/><path d="M100-162.5l222.9 28.9" stroke="#c2e1ff54"/><path d="M100-162.5l216 64.7" stroke="#c2e1ff55"/><path d="M100-162.5l167-152.3" stroke="#fff55"/><path d="M100-162.5l228.5-2.4" stroke="#005bbb57"/><path d="M100-162.5l-214.2 85.3" stroke="#fff59"/><path d="M100-162.5l221-67.8" stroke="#c2e1ff59"/><path d="M100-162.5l-153.4 173.1" stroke="#fff50059"/><path d="M100-162.5l-224.6 56.9" stroke="#fff5A"/><path d="M100-162.5l26.4-230.9" stroke="#c2e1ff5A"/><path d="M100-162.5l36.9-229.6" stroke="#005bbb5B"/><path d="M100-162.5l106.2 208" stroke="#fff5005C"/><path d="M100-162.5l101.2 210.5" stroke="#005bbb5C"/><path d="M100-162.5l-231.2 34.2" stroke="#005bbb5C"/><path d="M100-162.5l224.1-66.7" stroke="#fff5C"/><path d="M100-162.5l-48.3-228.9" stroke="#fff5D"/><path d="M100-162.5l-196 128.7" stroke="#c2e1ff5D"/><path d="M100-162.5l-48.6 229.6" stroke="#fff5005E"/><path d="M100-162.5l-160.1 171.7" stroke="#fff5005E"/><path d="M100-162.5l-227.6 58.9" stroke="#005bbb5E"/><path d="M100-162.5l228.7 54.3" stroke="#c2e1ff5F"/><path d="M100-162.5l-197.8-127.2" stroke="#c2e1ff5F"/><path d="M100-162.5l229.2-55" stroke="#005bbb60"/><path d="M100-162.5l-224.7 71.9" stroke="#fff50061"/><path d="M100-162.5l158.8 174.6" stroke="#c2e1ff61"/><path d="M100-162.5l-14.6 235.6" stroke="#c2e1ff61"/><path d="M100-162.5l-208.5-111" stroke="#fff50062"/><path d="M100-162.5l191.5 138.3" stroke="#c2e1ff63"/><path d="M100-162.5l12.7-235.9" stroke="#005bbb63"/><path d="M100-162.5l35.4-233.6" stroke="#fff63"/><path d="M100-162.5l219.8-86.6" stroke="#c2e1ff65"/><path d="M100-162.5l-26-234.8" stroke="#fff65"/><path d="M100-162.5l-75.3 223.8" stroke="#fff65"/><path d="M100-162.5l193.8-134.2" stroke="#fff50067"/><path d="M100-162.5l116.1-205.1" stroke="#c2e1ff67"/><path d="M100-162.5l149.3-181.8" stroke="#fff68"/><path d="M100-162.5l5.1-235.2" stroke="#c2e1ff68"/><path d="M100-162.5l178-153.6" stroke="#005bbb68"/><path d="M100-162.5l-21.7-233.1" stroke="#fff5006A"/><path d="M100-162.5l-130.6-194.2" stroke="#fff6A"/><path d="M100-162.5l-196.1-127.3" stroke="#c2e1ff6B"/><path d="M100-162.5l130.7 193.7" stroke="#fff6B"/><path d="M100-162.5l233.7 0" stroke="#fff6B"/><path d="M100-162.5l75.5 221.1" stroke="#c2e1ff6B"/><path d="M100-162.5l-130.4-193.7" stroke="#fff6B"/><path d="M100-162.5l-232.9-15.8" stroke="#fff5006B"/><path d="M100-162.5l226.8 54.3" stroke="#c2e1ff6B"/><path d="M100-162.5l-46.3 228.5" stroke="#fff5006C"/><path d="M100-162.5l-215.4-88.3" stroke="#fff5006C"/><path d="M100-162.5l226.8 48.6" stroke="#fff6D"/><path d="M100-162.5l-220.2-72.8" stroke="#fff6D"/><path d="M100-162.5l-41.3-227.1" stroke="#fff5006E"/><path d="M100-162.5l53.2 224.2" stroke="#005bbb6F"/><path d="M100-162.5l-70.9-219.1" stroke="#fff5006F"/><path d="M100-162.5l181.7-138.9" stroke="#fff50070"/><path d="M100-162.5l-215.8 72.5" stroke="#c2e1ff71"/><path d="M100-162.5l99.6-204.4" stroke="#fff71"/><path d="M100-162.5l21.2 225.8" stroke="#c2e1ff72"/><path d="M100-162.5l-144.7-173.7" stroke="#fff50072"/><path d="M100-162.5l-167.1-151" stroke="#005bbb73"/><path d="M100-162.5l-219.1-48.8" stroke="#c2e1ff73"/><path d="M100-162.5l124.7 186.1" stroke="#c2e1ff73"/><path d="M100-162.5l194.2-110.7" stroke="#c2e1ff74"/><path d="M100-162.5l130.4-180.4" stroke="#c2e1ff74"/><path d="M100-162.5l-173.1-136.4" stroke="#fff50076"/><path d="M100-162.5l162.1 146.4" stroke="#fff77"/><path d="M100-162.5l-95.4-194.3" stroke="#c2e1ff78"/><path d="M100-162.5l156.9 148.1" stroke="#fff78"/><path d="M100-162.5l-195.6-86.9" stroke="#005bbb79"/><path d="M100-162.5l208.3 30.2" stroke="#c2e1ff7A"/><path d="M100-162.5l105.2 178.7" stroke="#fff5007B"/><path d="M100-162.5l-127.7-163.3" stroke="#fff7B"/><path d="M100-162.5l170.2-112.2" stroke="#005bbb7D"/><path d="M100-162.5l-160 121.5" stroke="#005bbb7E"/><path d="M100-162.5l-69 181.6" stroke="#fff50080"/><path d="M100-162.5l-23.4-191.6" stroke="#fff80"/><path d="M100-162.5l-0.8-187" stroke="#fff82"/><path d="M100-162.5l83.4 166.2" stroke="#005bbb82"/><path d="M100-162.5l58.4-173" stroke="#fff83"/><path d="M100-162.5l-172.1-43.3" stroke="#fff50085"/><path d="M100-162.5l-155.1 83.5" stroke="#005bbb85"/><path d="M100-162.5l165.1 48.2" stroke="#005bbb86"/><path d="M100-162.5l-166.4-29.8" stroke="#c2e1ff86"/><path d="M100-162.5l-35.1-162.5" stroke="#c2e1ff87"/><path d="M100-162.5l71.3 149.1" stroke="#005bbb87"/><path d="M100-162.5l-79.4 144.7" stroke="#c2e1ff87"/><path d="M100-162.5l138.7 87.6" stroke="#fff87"/><path d="M100-162.5l-67.2-147.3" stroke="#fff50088"/><path d="M100-162.5l-152.7-8.8" stroke="#fff5008A"/><path d="M100-162.5l-62.1 123.1" stroke="#fff5008C"/><path d="M100-162.5l-90.9-103.5" stroke="#005bbb8C"/><path d="M100-162.5l-63.9 120.2" stroke="#c2e1ff8C"/><path d="M100-162.5l-116.5 47.1" stroke="#fff8E"/><path d="M100-162.5l-71.6-83.8" stroke="#c2e1ff90"/><path d="M100-162.5l107.2 25.3" stroke="#005bbb90"/><path d="M100-162.5l-60.2-88.9" stroke="#fff50090"/><path d="M100-162.5l97.1 42.1" stroke="#fff50090"/><path d="M100-162.5l-94.2 1" stroke="#005bbb91"/><path d="M100-162.5l14.8-86.5" stroke="#c2e1ff92"/><path d="M100-162.5l-72.1 29.6" stroke="#fff93"/><path d="M100-162.5l39.2-66.6" stroke="#c2e1ff93"/><path d="M100-162.5l-58-32.4" stroke="#005bbb93"/><path d="M100-162.5l31.5 51" stroke="#fff94"/><path d="M100-162.5l8.5-58.9" stroke="#005bbb94"/><path d="M100-162.5l-47.4-19.4" stroke="#fff94"/><path d="M100-162.5l-15.9 43.2" stroke="#fff50095"/><path d="M100-162.5l34-18.2" stroke="#c2e1ff95"/><path d="M100-162.5l27.4-0.1" stroke="#fff95"/></g><g class="sparcs"><path d="M101-109.5a6 6 0 1 1 0-11.9 6 6 0 0 1 0 11.9" fill="#005bbb7E"/><path d="M145.1-183.7a6 6 0 1 1 0-12 6 6 0 0 1 0 12" fill="#fff7E"/><path d="M152.8-176.6a6 6 0 1 1 0-12 6 6 0 0 1 0 12" fill="#fff5007E"/><path d="M148.4-118.7a6 6 0 1 1 0-12 6 6 0 0 1 0 12" fill="#fff7F"/><path d="M166.2-127.2a6 6 0 1 1 0-12.1 6 6 0 0 1 0 12.1" fill="#fff80"/><path d="M36.7-198.7a6.1 6.1 0 1 1 0-12.2 6.1 6.1 0 0 1 0 12.2" fill="#005bbb80"/><path d="M25.4-172.5a6.1 6.1 0 1 1 0-12.1 6.1 6.1 0 0 1 0 12.1" fill="#fff50080"/><path d="M167.4-196.1a6.1 6.1 0 1 1 0-12.2 6.1 6.1 0 0 1 0 12.2" fill="#005bbb80"/><path d="M47-217.2a6.1 6.1 0 1 1 0-12.2 6.1 6.1 0 0 1 0 12.2" fill="#005bbb80"/><path d="M138.9-69.7a6.2 6.2 0 1 1 0-12.3 6.2 6.2 0 0 1 0 12.3" fill="#fff82"/><path d="M81.2-62.7a6.2 6.2 0 1 1 0-12.4 6.2 6.2 0 0 1 0 12.4" fill="#fff50082"/><path d="M103.8-60.4a6.2 6.2 0 1 1 0-12.3 6.2 6.2 0 0 1 0 12.3" fill="#c2e1ff82"/><path d="M180.8-93.4a6.2 6.2 0 1 1 0-12.4 6.2 6.2 0 0 1 0 12.4" fill="#fff50083"/><path d="M91-53.7a6.2 6.2 0 1 1 0-12.4 6.2 6.2 0 0 1 0 12.4" fill="#fff83"/><path d="M-8.4-128.1a6.3 6.3 0 1 1 0-12.5 6.3 6.3 0 0 1 0 12.5" fill="#fff50084"/><path d="M43.6-52.5a6.3 6.3 0 1 1 0-12.6 6.3 6.3 0 0 1 0 12.6" fill="#fff85"/><path d="M145-40.5a6.3 6.3 0 1 1 0-12.7 6.3 6.3 0 0 1 0 12.7" fill="#005bbb86"/><path d="M-28.7-171.8a6.4 6.4 0 1 1 0-12.7 6.4 6.4 0 0 1 0 12.7" fill="#fff87"/><path d="M119.1-294.8a6.5 6.5 0 1 1 0-13 6.5 6.5 0 0 1 0 13" fill="#c2e1ff89"/><path d="M-11.2-65.6a6.5 6.5 0 1 1 0-13.1 6.5 6.5 0 0 1 0 13.1" fill="#fff8A"/><path d="M23.2-281a6.5 6.5 0 1 1 0-13 6.5 6.5 0 0 1 0 13" fill="#005bbb8B"/><path d="M62.8-13.9a6.5 6.5 0 1 1 0-13.1 6.5 6.5 0 0 1 0 13.1" fill="#005bbb8B"/><path d="M123.3-302.7a6.6 6.6 0 1 1 0-13.2 6.6 6.6 0 0 1 0 13.2" fill="#fff8B"/><path d="M246.8-189.6a6.6 6.6 0 1 1 0-13.2 6.6 6.6 0 0 1 0 13.2" fill="#005bbb8B"/><path d="M226.1-53.5a6.7 6.7 0 1 1 0-13.4 6.7 6.7 0 0 1 0 13.4" fill="#005bbb8E"/><path d="M153.4-0.5a6.7 6.7 0 1 1 0-13.5 6.7 6.7 0 0 1 0 13.5" fill="#005bbb8F"/><path d="M37.2-3.1a6.7 6.7 0 1 1 0-13.5 6.7 6.7 0 0 1 0 13.5" fill="#fff8F"/><path d="M-66.1-155.8a6.8 6.8 0 1 1 0-13.5 6.8 6.8 0 0 1 0 13.5" fill="#005bbb8F"/><path d="M244-63a6.8 6.8 0 1 1 0-13.7 6.8 6.8 0 0 1 0 13.7" fill="#fff50091"/><path d="M242.1-60.1a6.8 6.8 0 1 1 0-13.6 6.8 6.8 0 0 1 0 13.6" fill="#fff50091"/><path d="M-15.4-284.2a6.8 6.8 0 1 1 0-13.7 6.8 6.8 0 0 1 0 13.7" fill="#c2e1ff91"/><path d="M105.1 18.3a6.9 6.9 0 1 1 0-13.7 6.9 6.9 0 0 1 0 13.7" fill="#005bbb92"/><path d="M269.6-204.5a6.9 6.9 0 1 1 0-13.8 6.9 6.9 0 0 1 0 13.8" fill="#c2e1ff92"/><path d="M-3.6-11.8a6.9 6.9 0 1 1 0-13.8 6.9 6.9 0 0 1 0 13.8" fill="#005bbb93"/><path d="M262.7-77.9a6.9 6.9 0 1 1 0-13.9 6.9 6.9 0 0 1 0 13.9" fill="#005bbb93"/><path d="M52 18.8a7 7 0 1 1 0-13.9 7 7 0 0 1 0 13.9" fill="#fff50094"/><path d="M-79.7-131.7a7 7 0 1 1 0-13.9 7 7 0 0 1 0 13.9" fill="#fff50094"/><path d="M-37.3-280.3a7 7 0 1 1 0-14.1 7 7 0 0 1 0 14.1" fill="#c2e1ff95"/><path d="M195.7-314.9a7 7 0 1 1 0-14.1 7 7 0 0 1 0 14.1" fill="#fff95"/><path d="M-38.3-281.2a7.1 7.1 0 1 1 0-14.1 7.1 7.1 0 0 1 0 14.1" fill="#fff96"/><path d="M194.5-317.6a7.1 7.1 0 1 1 0-14.2 7.1 7.1 0 0 1 0 14.2" fill="#fff96"/><path d="M-85.3-118.8a7.1 7.1 0 1 1 0-14.2 7.1 7.1 0 0 1 0 14.2" fill="#fff96"/><path d="M289-168.3a7.1 7.1 0 1 1 0-14.2 7.1 7.1 0 0 1 0 14.2" fill="#c2e1ff97"/><path d="M-15.8-1.1a7.2 7.2 0 1 1 0-14.3 7.2 7.2 0 0 1 0 14.3" fill="#c2e1ff98"/><path d="M-85.4-101.8a7.2 7.2 0 1 1 0-14.3 7.2 7.2 0 0 1 0 14.3" fill="#005bbb98"/><path d="M-93.6-162.7a7.2 7.2 0 1 1 0-14.4 7.2 7.2 0 0 1 0 14.4" fill="#fff98"/><path d="M247.7-27.7a7.2 7.2 0 1 1 0-14.4 7.2 7.2 0 0 1 0 14.4" fill="#c2e1ff99"/><path d="M294.8-132.5a7.2 7.2 0 1 1 0-14.5 7.2 7.2 0 0 1 0 14.5" fill="#005bbb99"/><path d="M104.8-351.6a7.2 7.2 0 1 1 0-14.4 7.2 7.2 0 0 1 0 14.4" fill="#c2e1ff99"/><path d="M256.7-275.1a7.2 7.2 0 1 1 0-14.5 7.2 7.2 0 0 1 0 14.5" fill="#fff9A"/><path d="M-52.4-285.2a7.3 7.3 0 1 1 0-14.6 7.3 7.3 0 0 1 0 14.6" fill="#005bbb9B"/><path d="M114.4-355.3a7.3 7.3 0 1 1 0-14.6 7.3 7.3 0 0 1 0 14.6" fill="#fff5009B"/><path d="M-68-266.3a7.3 7.3 0 1 1 0-14.6 7.3 7.3 0 0 1 0 14.6" fill="#005bbb9C"/><path d="M285.1-71.5a7.4 7.4 0 1 1 0-14.7 7.4 7.4 0 0 1 0 14.7" fill="#c2e1ff9C"/><path d="M179.9-343.6a7.4 7.4 0 1 1 0-14.8 7.4 7.4 0 0 1 0 14.8" fill="#fff9D"/><path d="M281.8-60.5a7.4 7.4 0 1 1 0-14.8 7.4 7.4 0 0 1 0 14.8" fill="#c2e1ff9D"/><path d="M-75.5-48.8a7.4 7.4 0 1 1 0-14.8 7.4 7.4 0 0 1 0 14.8" fill="#c2e1ff9D"/><path d="M68.3 48.2a7.4 7.4 0 1 1 0-14.8 7.4 7.4 0 0 1 0 14.8" fill="#c2e1ff9E"/><path d="M119.6-362.1a7.5 7.5 0 1 1 0-14.9 7.5 7.5 0 0 1 0 14.9" fill="#fff9F"/><path d="M140.4-359.1a7.5 7.5 0 1 1 0-14.9 7.5 7.5 0 0 1 0 14.9" fill="#c2e1ff9F"/><path d="M32.3-352a7.5 7.5 0 1 1 0-14.9 7.5 7.5 0 0 1 0 14.9" fill="#005bbb9F"/><path d="M207.9-338.3a7.6 7.6 0 1 1 0-15.2 7.6 7.6 0 0 1 0 15.2" fill="#fffA1"/><path d="M-19 22.1a7.6 7.6 0 1 1 0-15.2 7.6 7.6 0 0 1 0 15.2" fill="#005bbbA2"/><path d="M-51.6-3.4a7.6 7.6 0 1 1 0-15.2 7.6 7.6 0 0 1 0 15.2" fill="#fffA2"/><path d="M275.1-29.8a7.6 7.6 0 1 1 0-15.3 7.6 7.6 0 0 1 0 15.3" fill="#fffA3"/><path d="M308.6-216.8a7.7 7.7 0 1 1 0-15.4 7.7 7.7 0 0 1 0 15.4" fill="#c2e1ffA4"/><path d="M13-354.4a7.7 7.7 0 1 1 0-15.4 7.7 7.7 0 0 1 0 15.4" fill="#c2e1ffA4"/><path d="M-107.7-222.4a7.7 7.7 0 1 1 0-15.5 7.7 7.7 0 0 1 0 15.5" fill="#fff500A5"/><path d="M-115.4-117a7.7 7.7 0 1 1 0-15.5 7.7 7.7 0 0 1 0 15.5" fill="#fff500A5"/><path d="M103.9 65.7a7.8 7.8 0 1 1 0-15.5 7.8 7.8 0 0 1 0 15.5" fill="#c2e1ffA6"/><path d="M2.8 43.3a7.8 7.8 0 1 1 0-15.6 7.8 7.8 0 0 1 0 15.6" fill="#fff500A6"/><path d="M-75.4-289.3a7.8 7.8 0 1 1 0-15.6 7.8 7.8 0 0 1 0 15.6" fill="#fff500A7"/><path d="M321.6-136.7a7.9 7.9 0 1 1 0-15.8 7.9 7.9 0 0 1 0 15.8" fill="#005bbbA7"/><path d="M218.9 34.1a7.9 7.9 0 1 1 0-15.8 7.9 7.9 0 0 1 0 15.8" fill="#fffA8"/><path d="M322.9-125.7a7.9 7.9 0 1 1 0-15.9 7.9 7.9 0 0 1 0 15.9" fill="#c2e1ffA9"/><path d="M316-89.8a8 8 0 1 1 0-16 8 8 0 0 1 0 16" fill="#c2e1ffAA"/><path d="M267-306.8a8 8 0 1 1 0-16 8 8 0 0 1 0 16" fill="#005bbbAB"/><path d="M328.5-156.8a8.1 8.1 0 1 1 0-16.2 8.1 8.1 0 0 1 0 16.2" fill="#005bbbAD"/><path d="M-114.2-69a8.2 8.2 0 1 1 0-16.5 8.2 8.2 0 0 1 0 16.5" fill="#005bbbAF"/><path d="M321-222a8.3 8.3 0 1 1 0-16.5 8.3 8.3 0 0 1 0 16.5" fill="#fffB0"/><path d="M-53.4 18.9a8.3 8.3 0 1 1 0-16.5 8.3 8.3 0 0 1 0 16.5" fill="#fffB0"/><path d="M-124.6-97.3a8.3 8.3 0 1 1 0-16.6 8.3 8.3 0 0 1 0 16.6" fill="#005bbbB1"/><path d="M126.4-385a8.3 8.3 0 1 1 0-16.7 8.3 8.3 0 0 1 0 16.7" fill="#fffB2"/><path d="M136.9-383.7a8.3 8.3 0 1 1 0-16.7 8.3 8.3 0 0 1 0 16.7" fill="#005bbbB2"/><path d="M206.2 53.9a8.4 8.4 0 1 1 0-16.8 8.4 8.4 0 0 1 0 16.8" fill="#c2e1ffB4"/><path d="M201.2 56.4a8.4 8.4 0 1 1 0-16.8 8.4 8.4 0 0 1 0 16.8" fill="#fff500B4"/><path d="M-131.2-119.9a8.4 8.4 0 1 1 0-16.8 8.4 8.4 0 0 1 0 16.8" fill="#fffB4"/><path d="M324.1-220.8a8.4 8.4 0 1 1 0-16.9 8.4 8.4 0 0 1 0 16.9" fill="#c2e1ffB4"/><path d="M51.7-383a8.5 8.5 0 1 1 0-16.9 8.5 8.5 0 0 1 0 16.9" fill="#fff500B5"/><path d="M-96-25.3a8.5 8.5 0 1 1 0-17 8.5 8.5 0 0 1 0 17" fill="#fffB6"/><path d="M51.4 75.6a8.5 8.5 0 1 1 0-17 8.5 8.5 0 0 1 0 17" fill="#fffB6"/><path d="M-60.1 17.7a8.5 8.5 0 1 1 0-17 8.5 8.5 0 0 1 0 17" fill="#fff500B6"/><path d="M-127.6-95a8.6 8.6 0 1 1 0-17.2 8.6 8.6 0 0 1 0 17.2" fill="#005bbbB7"/><path d="M328.7-99.7a8.6 8.6 0 1 1 0-17.1 8.6 8.6 0 0 1 0 17.1" fill="#fffB7"/><path d="M-97.8-281.1a8.6 8.6 0 1 1 0-17.2 8.6 8.6 0 0 1 0 17.2" fill="#c2e1ffB7"/><path d="M329.2-208.8a8.7 8.7 0 1 1 0-17.3 8.7 8.7 0 0 1 0 17.3" fill="#005bbbB9"/><path d="M-124.7-81.9a8.7 8.7 0 1 1 0-17.4 8.7 8.7 0 0 1 0 17.4" fill="#c2e1ffBA"/><path d="M258.8 20.8a8.7 8.7 0 1 1 0-17.5 8.7 8.7 0 0 1 0 17.5" fill="#fffBA"/><path d="M85.4 81.8a8.7 8.7 0 1 1 0-17.4 8.7 8.7 0 0 1 0 17.4" fill="#c2e1ffBB"/><path d="M-108.5-264.7a8.8 8.8 0 1 1 0-17.6 8.8 8.8 0 0 1 0 17.6" fill="#c2e1ffBC"/><path d="M291.5-15.4a8.8 8.8 0 1 1 0-17.6 8.8 8.8 0 0 1 0 17.6" fill="#fff500BC"/><path d="M112.7-389.6a8.8 8.8 0 1 1 0-17.6 8.8 8.8 0 0 1 0 17.6" fill="#005bbbBD"/><path d="M135.4-387.2a8.9 8.9 0 1 1 0-17.7 8.9 8.9 0 0 1 0 17.7" fill="#fff500BD"/><path d="M319.8-240.1a8.9 8.9 0 1 1 0-17.9 8.9 8.9 0 0 1 0 17.9" fill="#c2e1ffBF"/><path d="M74-388.3a8.9 8.9 0 1 1 0-17.9 8.9 8.9 0 0 1 0 17.9" fill="#c2e1ffBF"/><path d="M24.7 70.3a8.9 8.9 0 1 1 0-17.9 8.9 8.9 0 0 1 0 17.9" fill="#c2e1ffBF"/><path d="M293.8-287.7a9.1 9.1 0 1 1 0-18.1 9.1 9.1 0 0 1 0 18.1" fill="#c2e1ffC2"/><path d="M216.1-358.5a9.1 9.1 0 1 1 0-18.1 9.1 9.1 0 0 1 0 18.1" fill="#c2e1ffC2"/><path d="M249.3-335.2a9.1 9.1 0 1 1 0-18.3 9.1 9.1 0 0 1 0 18.3" fill="#c2e1ffC3"/><path d="M105.1-388.6a9.1 9.1 0 1 1 0-18.3 9.1 9.1 0 0 1 0 18.3" fill="#005bbbC3"/><path d="M278-307a9.1 9.1 0 1 1 0-18.3 9.1 9.1 0 0 1 0 18.3" fill="#fffC4"/><path d="M78.3-386.3a9.3 9.3 0 1 1 0-18.5 9.3 9.3 0 0 1 0 18.5" fill="#fffC6"/><path d="M-30.6-347.5a9.3 9.3 0 1 1 0-18.5 9.3 9.3 0 0 1 0 18.5" fill="#fffC6"/><path d="M-96.1-280.5a9.3 9.3 0 1 1 0-18.6 9.3 9.3 0 0 1 0 18.6" fill="#fffC7"/><path d="M230.7 40.5a9.3 9.3 0 1 1 0-18.5 9.3 9.3 0 0 1 0 18.5" fill="#fff500C7"/><path d="M333.7-153.2a9.3 9.3 0 1 1 0-18.6 9.3 9.3 0 0 1 0 18.6" fill="#005bbbC7"/><path d="M175.5 67.9a9.3 9.3 0 1 1 0-18.6 9.3 9.3 0 0 1 0 18.6" fill="#c2e1ffC7"/><path d="M-30.4-346.9a9.3 9.3 0 1 1 0-18.6 9.3 9.3 0 0 1 0 18.6" fill="#005bbbC7"/><path d="M-132.9-169a9.3 9.3 0 1 1 0-18.6 9.3 9.3 0 0 1 0 18.6" fill="#c2e1ffC8"/><path d="M326.8-98.8a9.3 9.3 0 1 1 0-18.7 9.3 9.3 0 0 1 0 18.7" fill="#005bbbC8"/><path d="M53.7 75.3a9.3 9.3 0 1 1 0-18.7 9.3 9.3 0 0 1 0 18.7" fill="#fffC8"/><path d="M-115.4-241.5a9.4 9.4 0 1 1 0-18.7 9.4 9.4 0 0 1 0 18.7" fill="#c2e1ffC9"/><path d="M326.8-104.4a9.4 9.4 0 1 1 0-18.9 9.4 9.4 0 0 1 0 18.9" fill="#fffCA"/><path d="M-120.2-225.9a9.4 9.4 0 1 1 0-18.8 9.4 9.4 0 0 1 0 18.8" fill="#005bbbCA"/><path d="M58.7-380.2a9.5 9.5 0 1 1 0-18.9 9.5 9.5 0 0 1 0 18.9" fill="#fff500CB"/><path d="M153.2 71.2a9.5 9.5 0 1 1 0-19 9.5 9.5 0 0 1 0 19" fill="#fff500CC"/><path d="M29.1-372.1a9.5 9.5 0 1 1 0-19.1 9.5 9.5 0 0 1 0 19.1" fill="#fff500CC"/><path d="M281.7-291.8a9.6 9.6 0 1 1 0-19.2 9.6 9.6 0 0 1 0 19.2" fill="#c2e1ffCE"/><path d="M-115.8-80.4a9.6 9.6 0 1 1 0-19.3 9.6 9.6 0 0 1 0 19.3" fill="#005bbbCF"/><path d="M199.6-357.2a9.7 9.7 0 1 1 0-19.3 9.7 9.7 0 0 1 0 19.3" fill="#005bbbCF"/><path d="M121.2 72.9a9.7 9.7 0 1 1 0-19.3 9.7 9.7 0 0 1 0 19.3" fill="#fff500D0"/><path d="M-44.7-326.5a9.7 9.7 0 1 1 0-19.4 9.7 9.7 0 0 1 0 19.4" fill="#005bbbD0"/><path d="M-67.1-303.7a9.8 9.8 0 1 1 0-19.5 9.8 9.8 0 0 1 0 19.5" fill="#c2e1ffD1"/><path d="M-119.1-201.5a9.8 9.8 0 1 1 0-19.5 9.8 9.8 0 0 1 0 19.5" fill="#c2e1ffD2"/><path d="M224.7 33.4a9.8 9.8 0 1 1 0-19.5 9.8 9.8 0 0 1 0 19.5" fill="#005bbbD2"/><path d="M294.2-263.4a9.8 9.8 0 1 1 0-19.6 9.8 9.8 0 0 1 0 19.6" fill="#005bbbD3"/><path d="M230.4-333.1a9.8 9.8 0 1 1 0-19.7 9.8 9.8 0 0 1 0 19.7" fill="#fffD3"/><path d="M-73.1-288.9a9.9 9.9 0 1 1 0-19.9 9.9 9.9 0 0 1 0 19.9" fill="#c2e1ffD5"/><path d="M262.1-6.2a10 10 0 1 1 0-19.9 10 10 0 0 1 0 19.9" fill="#fff500D6"/><path d="M4.6-346.8a10 10 0 1 1 0-20.1 10 10 0 0 1 0 20.1" fill="#fff500D8"/><path d="M256.9-4.3a10.1 10.1 0 1 1 0-20.1 10.1 10.1 0 0 1 0 20.1" fill="#c2e1ffD8"/><path d="M-95.6-239.3a10.1 10.1 0 1 1 0-20.2 10.1 10.1 0 0 1 0 20.2" fill="#fffD9"/><path d="M308.3-122.1a10.2 10.2 0 1 1 0-20.4 10.2 10.2 0 0 1 0 20.4" fill="#fff500DB"/><path d="M205.2 26.5a10.3 10.3 0 1 1 0-20.6 10.3 10.3 0 0 1 0 20.6" fill="#fff500DD"/><path d="M-27.7-315.5a10.3 10.3 0 1 1 0-20.6 10.3 10.3 0 0 1 0 20.6" fill="#c2e1ffDD"/><path d="M270.2-264.3a10.4 10.4 0 1 1 0-20.7 10.4 10.4 0 0 1 0 20.7" fill="#fff500DE"/><path d="M-60-30.6a10.4 10.4 0 1 1 0-20.8 10.4 10.4 0 0 1 0 20.8" fill="#fffE0"/><path d="M31 29.6a10.5 10.5 0 1 1 0-21.1 10.5 10.5 0 0 1 0 21.1" fill="#fff500E3"/><path d="M76.6-343.5a10.6 10.6 0 1 1 0-21.1 10.6 10.6 0 0 1 0 21.1" fill="#fff500E3"/><path d="M99.2-338.9a10.7 10.7 0 1 1 0-21.3 10.7 10.7 0 0 1 0 21.3" fill="#fff500E5"/><path d="M183.4 14.4a10.7 10.7 0 1 1 0-21.4 10.7 10.7 0 0 1 0 21.4" fill="#c2e1ffE6"/><path d="M158.4-324.7a10.7 10.7 0 1 1 0-21.5 10.7 10.7 0 0 1 0 21.5" fill="#c2e1ffE7"/><path d="M-72.1-195a10.8 10.8 0 1 1 0-21.6 10.8 10.8 0 0 1 0 21.6" fill="#005bbbE8"/><path d="M-55.1-68.2a10.8 10.8 0 1 1 0-21.6 10.8 10.8 0 0 1 0 21.6" fill="#fffE9"/><path d="M265.1-103.5a10.9 10.9 0 1 1 0-21.7 10.9 10.9 0 0 1 0 21.7" fill="#005bbbEA"/><path d="M-66.4-181.4a10.9 10.9 0 1 1 0-21.9 10.9 10.9 0 0 1 0 21.9" fill="#fffEB"/><path d="M64.9-314.1a11 11 0 1 1 0-21.9 11 11 0 0 1 0 21.9" fill="#fffEC"/><path d="M171.3-2.4a11 11 0 1 1 0-21.9 11 11 0 0 1 0 21.9" fill="#fff500EC"/><path d="M20.6-6.8a11 11 0 1 1 0-22 11 11 0 0 1 0 22" fill="#c2e1ffEC"/><path d="M238.7-63.9a11 11 0 1 1 0-22 11 11 0 0 1 0 22" fill="#c2e1ffEC"/><path d="M32.8-298.7a11 11 0 1 1 0-22.1 11 11 0 0 1 0 22.1" fill="#fff500ED"/><path d="M-52.7-160.2a11.1 11.1 0 1 1 0-22.2 11.1 11.1 0 0 1 0 22.2" fill="#005bbbEF"/><path d="M37.9-28.2a11.3 11.3 0 1 1 0-22.5 11.3 11.3 0 0 1 0 22.5" fill="#fffF2"/><path d="M9.1-254.8a11.3 11.3 0 1 1 0-22.5 11.3 11.3 0 0 1 0 22.5" fill="#fffF2"/><path d="M36.1-31a11.3 11.3 0 1 1 0-22.5 11.3 11.3 0 0 1 0 22.5" fill="#005bbbF3"/><path d="M-16.5-104.1a11.4 11.4 0 1 1 0-22.7 11.4 11.4 0 0 1 0 22.7" fill="#fff500F5"/><path d="M28.4-234.9a11.5 11.5 0 1 1 0-22.9 11.5 11.5 0 0 1 0 22.9" fill="#fffF7"/><path d="M207.2-125.7a11.5 11.5 0 1 1 0-22.9 11.5 11.5 0 0 1 0 22.9" fill="#fffF7"/><path d="M39.8-239.9a11.5 11.5 0 1 1 0-23 11.5 11.5 0 0 1 0 23" fill="#fffF7"/><path d="M197.1-108.9a11.5 11.5 0 1 1 0-23 11.5 11.5 0 0 1 0 23" fill="#fffF8"/><path d="M5.8-149.9a11.6 11.6 0 1 1 0-23.2 11.6 11.6 0 0 1 0 23.2" fill="#fff500F9"/><path d="M114.8-237.4a11.6 11.6 0 1 1 0-23.2 11.6 11.6 0 0 1 0 23.2" fill="#005bbbFA"/><path d="M27.9-121.3a11.6 11.6 0 1 1 0-23.3 11.6 11.6 0 0 1 0 23.3" fill="#005bbbFB"/><path d="M139.2-217.4a11.7 11.7 0 1 1 0-23.3 11.7 11.7 0 0 1 0 23.3" fill="#c2e1ffFB"/><path d="M42-183.2a11.7 11.7 0 1 1 0-23.4 11.7 11.7 0 0 1 0 23.4" fill="#fff500FC"/><path d="M131.5-99.8a11.7 11.7 0 1 1 0-23.4 11.7 11.7 0 0 1 0 23.4" fill="#fff500FC"/><path d="M108.5-209.7a11.7 11.7 0 1 1 0-23.4 11.7 11.7 0 0 1 0 23.4" fill="#005bbbFC"/><path d="M52.6-170.1a11.7 11.7 0 1 1 0-23.5 11.7 11.7 0 0 1 0 23.5" fill="#fff500FD"/><path d="M84.1-107.5a11.8 11.8 0 1 1 0-23.5 11.8 11.8 0 0 1 0 23.5" fill="#fff500FD"/><path d="M134-168.9a11.8 11.8 0 1 1 0-23.6 11.8 11.8 0 0 1 0 23.6" fill="#fff500FE"/><path d="M127.4-150.8a11.8 11.8 0 1 1 0-23.6 11.8 11.8 0 0 1 0 23.6" fill="#fff500FE"/></g></svg>