<svg width="1200" height="675" viewBox="-500 -500 1200 675" xmlns="http://www.w3.org/2000/svg"><path d="M-500-500h1200v675h-1200z" fill="#000"/><style>.sparkles path{stroke-linecap:round; stroke-width:1}</style><g class="sparkles"><path d="M100-162.5l27.3-8.4" stroke="#fff50032"/><path d="M100-162.5l-43.9-2.2" stroke="#c2e1ff32"/><path d="M100-162.5l45.9 41" stroke="#c2e1ff33"/><path d="M100-162.5l-63.8 12.3" stroke="#005bbb33"/><path d="M100-162.5l45.5-68.1" stroke="#fff50035"/><path d="M100-162.5l21.2 81.3" stroke="#fff50035"/><path d="M100-162.5l-50.7 70.5" stroke="#fff35"/><path d="M100-162.5l102.1-19.3" stroke="#c2e1ff37"/><path d="M100-162.5l-32.4-105.1" stroke="#fff50037"/><path d="M100-162.5l-98.3-55" stroke="#005bbb38"/><path d="M100-162.5l-98.8 59.4" stroke="#fff50038"/><path d="M100-162.5l70.6-97.4" stroke="#fff50038"/><path d="M100-162.5l-120.9 16.2" stroke="#fff39"/><path d="M100-162.5l50.7 113.7" stroke="#fff50039"/><path d="M100-162.5l76.8-108.2" stroke="#fff3A"/><path d="M100-162.5l127.4-39.2" stroke="#fff3A"/><path d="M100-162.5l-131.6 53.9" stroke="#c2e1ff3C"/><path d="M100-162.5l63.7 133.1" stroke="#fff3C"/><path d="M100-162.5l-25 147" stroke="#fff5003D"/><path d="M100-162.5l-148.8 14.5" stroke="#c2e1ff3D"/><path d="M100-162.5l92.3-124.6" stroke="#fff5003E"/><path d="M100-162.5l-92.8 126.8" stroke="#fff5003E"/><path d="M100-162.5l-14.5 159" stroke="#c2e1ff3F"/><path d="M100-162.5l137.6 98.6" stroke="#fff50041"/><path d="M100-162.5l-170.2 3.4" stroke="#fff50041"/><path d="M100-162.5l-76.3-155.9" stroke="#005bbb42"/><path d="M100-162.5l172.6-18.5" stroke="#fff50042"/><path d="M100-162.5l55.5 165.5" stroke="#c2e1ff42"/><path d="M100-162.5l110.3 137.2" stroke="#c2e1ff42"/><path d="M100-162.5l-155.9-93.5" stroke="#fff50044"/><path d="M100-162.5l103.9-156.8" stroke="#fff45"/><path d="M100-162.5l-117.4-148.7" stroke="#c2e1ff46"/><path d="M100-162.5l-186.6 41.9" stroke="#fff46"/><path d="M100-162.5l-165.6-95.9" stroke="#c2e1ff46"/><path d="M100-162.5l139.8-131.7" stroke="#fff46"/><path d="M100-162.5l108.3-159.9" stroke="#c2e1ff47"/><path d="M100-162.5l-14.3 194.3" stroke="#fff47"/><path d="M100-162.5l-185.7-65.1" stroke="#c2e1ff48"/><path d="M100-162.5l22.7 199" stroke="#fff50049"/><path d="M100-162.5l199.4-22.7" stroke="#fff49"/><path d="M100-162.5l40.8 197" stroke="#c2e1ff49"/><path d="M100-162.5l-189.4 82.9" stroke="#c2e1ff4B"/><path d="M100-162.5l208.9 1.7" stroke="#c2e1ff4C"/><path d="M100-162.5l17.7-208.2" stroke="#fff5004C"/><path d="M100-162.5l-130.5 163.5" stroke="#fff5004C"/><path d="M100-162.5l-194.5 80.2" stroke="#fff5004D"/><path d="M100-162.5l178.2-112.8" stroke="#fff5004D"/><path d="M100-162.5l-18.6 210.9" stroke="#fff5004D"/><path d="M100-162.5l156.9 144.3" stroke="#fff4E"/><path d="M100-162.5l-86.4 198.1" stroke="#fff5004F"/><path d="M100-162.5l203.7 79.2" stroke="#fff51"/><path d="M100-162.5l-133.1-173.5" stroke="#fff51"/><path d="M100-162.5l-173.3-133.4" stroke="#fff51"/><path d="M100-162.5l194.1 107.2" stroke="#fff50052"/><path d="M100-162.5l220.2 26.6" stroke="#fff52"/><path d="M100-162.5l195.9-105.8" stroke="#fff50053"/><path d="M100-162.5l-192.1-112.7" stroke="#c2e1ff53"/><path d="M100-162.5l56 215.5" stroke="#c2e1ff53"/><path d="M100-162.5l40 222.2" stroke="#fff50055"/><path d="M100-162.5l-17 225.2" stroke="#005bbb55"/><path d="M100-162.5l205.6 95.9" stroke="#005bbb56"/><path d="M100-162.5l10.7-228.7" stroke="#005bbb57"/><path d="M100-162.5l-186.7 132.7" stroke="#c2e1ff57"/><path d="M100-162.5l-223-53.9" stroke="#fff58"/><path d="M100-162.5l53-226.5" stroke="#005bbb5B"/><path d="M100-162.5l201.7-116.2" stroke="#005bbb5B"/><path d="M100-162.5l-230 37.7" stroke="#fff5005B"/><path d="M100-162.5l-163 167" stroke="#c2e1ff5C"/><path d="M100-162.5l187.5-139" stroke="#c2e1ff5C"/><path d="M100-162.5l233.6 2.7" stroke="#fff5C"/><path d="M100-162.5l-233.9-2.4" stroke="#fff5005C"/><path d="M100-162.5l47.1-229.3" stroke="#fff5D"/><path d="M100-162.5l127.9 196.8" stroke="#c2e1ff5E"/><path d="M100-162.5l-16.1-234.2" stroke="#c2e1ff5E"/><path d="M100-162.5l117.3-203.4" stroke="#c2e1ff5E"/><path d="M100-162.5l139.2 189.1" stroke="#fff5E"/><path d="M100-162.5l145.3-184.6" stroke="#c2e1ff5E"/><path d="M100-162.5l233.2-31.1" stroke="#fff5F"/><path d="M100-162.5l219-87.2" stroke="#c2e1ff60"/><path d="M100-162.5l235.7 4.3" stroke="#fff50060"/><path d="M100-162.5l208.8-109.6" stroke="#fff50060"/><path d="M100-162.5l-122-202" stroke="#c2e1ff61"/><path d="M100-162.5l143.1-187.7" stroke="#fff61"/><path d="M100-162.5l235.8 13.7" stroke="#005bbb62"/><path d="M100-162.5l158.4 175.2" stroke="#c2e1ff62"/><path d="M100-162.5l39.2 232.9" stroke="#005bbb63"/><path d="M100-162.5l89.3 218.7" stroke="#005bbb63"/><path d="M100-162.5l236.2 2.6" stroke="#c2e1ff63"/><path d="M100-162.5l235.4 19.7" stroke="#c2e1ff63"/><path d="M100-162.5l184.7-147.3" stroke="#c2e1ff64"/><path d="M100-162.5l11.1-235.9" stroke="#005bbb65"/><path d="M100-162.5l-92.3 217.4" stroke="#fff50065"/><path d="M100-162.5l-11.6 235.6" stroke="#c2e1ff66"/><path d="M100-162.5l-159.8 173.4" stroke="#fff50067"/><path d="M100-162.5l-221.5 80.7" stroke="#fff67"/><path d="M100-162.5l-54.4-229.2" stroke="#005bbb67"/><path d="M100-162.5l234.1-25.8" stroke="#005bbb68"/><path d="M100-162.5l-220 83.7" stroke="#005bbb68"/><path d="M100-162.5l212.8-100.1" stroke="#fff68"/><path d="M100-162.5l-24.7 233.3" stroke="#fff69"/><path d="M100-162.5l24.1 233.3" stroke="#fff69"/><path d="M100-162.5l-168-163.3" stroke="#005bbb6A"/><path d="M100-162.5l106.4 207.3" stroke="#fff6C"/><path d="M100-162.5l-31.8 230.6" stroke="#fff6C"/><path d="M100-162.5l15.6 231.5" stroke="#005bbb6D"/><path d="M100-162.5l-204.6-108.6" stroke="#fff5006D"/><path d="M100-162.5l-32.6 228.4" stroke="#c2e1ff6E"/><path d="M100-162.5l-229.4 11" stroke="#fff6F"/><path d="M100-162.5l-87.4-210.2" stroke="#005bbb71"/><path d="M100-162.5l227.3 0" stroke="#fff71"/><path d="M100-162.5l184-132.5" stroke="#c2e1ff72"/><path d="M100-162.5l220.2-52.3" stroke="#c2e1ff72"/><path d="M100-162.5l-212.3-75" stroke="#005bbb73"/><path d="M100-162.5l223.8-10" stroke="#fff50073"/><path d="M100-162.5l-217.3-51.2" stroke="#005bbb74"/><path d="M100-162.5l220 30.9" stroke="#005bbb74"/><path d="M100-162.5l-50.5-216.2" stroke="#005bbb75"/><path d="M100-162.5l23-218.2" stroke="#005bbb76"/><path d="M100-162.5l-168.1-138.1" stroke="#fff77"/><path d="M100-162.5l-214.5 3.3" stroke="#fff78"/><path d="M100-162.5l-209.7 43.3" stroke="#c2e1ff79"/><path d="M100-162.5l39.6 210.3" stroke="#fff50079"/><path d="M100-162.5l76.7-199.1" stroke="#fff50079"/><path d="M100-162.5l-195.9 78.1" stroke="#fff5007A"/><path d="M100-162.5l204.5-46.6" stroke="#005bbb7B"/><path d="M100-162.5l-7.6 209.3" stroke="#fff5007B"/><path d="M100-162.5l-172.6-117.9" stroke="#005bbb7B"/><path d="M100-162.5l119.6 171.2" stroke="#005bbb7B"/><path d="M100-162.5l-161-125.3" stroke="#005bbb7D"/><path d="M100-162.5l166.9 115.8" stroke="#005bbb7D"/><path d="M100-162.5l-184.7 81.5" stroke="#c2e1ff7D"/><path d="M100-162.5l15.5 200.5" stroke="#005bbb7E"/><path d="M100-162.5l107.7 167.4" stroke="#005bbb7E"/><path d="M100-162.5l195.8 30.9" stroke="#c2e1ff7F"/><path d="M100-162.5l56.3-189.5" stroke="#c2e1ff7F"/><path d="M100-162.5l-56.5 189" stroke="#005bbb7F"/><path d="M100-162.5l180.2-79.6" stroke="#fff5007F"/><path d="M100-162.5l-12.3 196.5" stroke="#fff7F"/><path d="M100-162.5l190.3 50.1" stroke="#005bbb7F"/><path d="M100-162.5l185.8 58.7" stroke="#fff80"/><path d="M100-162.5l96.6-168.9" stroke="#005bbb80"/><path d="M100-162.5l-53-185.2" stroke="#fff80"/><path d="M100-162.5l-178.3 72.7" stroke="#005bbb80"/><path d="M100-162.5l170 86.8" stroke="#005bbb81"/><path d="M100-162.5l-82.1-172.3" stroke="#fff81"/><path d="M100-162.5l-187.2-32.3" stroke="#005bbb81"/><path d="M100-162.5l189.9 1.6" stroke="#fff81"/><path d="M100-162.5l-175.3 46.4" stroke="#fff84"/><path d="M100-162.5l-135.8 117.4" stroke="#fff50084"/><path d="M100-162.5l-37.7 172.7" stroke="#fff50085"/><path d="M100-162.5l167.8-44.7" stroke="#c2e1ff85"/><path d="M100-162.5l-173.1-0.5" stroke="#005bbb86"/><path d="M100-162.5l-65.6 154.2" stroke="#c2e1ff87"/><path d="M100-162.5l165.8-18.8" stroke="#005bbb87"/><path d="M100-162.5l123.4 111.9" stroke="#005bbb87"/><path d="M100-162.5l32.3-162" stroke="#005bbb87"/><path d="M100-162.5l158.7-34.4" stroke="#fff88"/><path d="M100-162.5l39.6-157" stroke="#fff88"/><path d="M100-162.5l-1.1 158.4" stroke="#c2e1ff89"/><path d="M100-162.5l59.2 145.3" stroke="#005bbb89"/><path d="M100-162.5l-130.3-84.4" stroke="#005bbb89"/><path d="M100-162.5l38 144.9" stroke="#fff5008A"/><path d="M100-162.5l53.7 132.7" stroke="#005bbb8B"/><path d="M100-162.5l51.1-131.4" stroke="#c2e1ff8C"/><path d="M100-162.5l-120.1-20.7" stroke="#fff8E"/><path d="M100-162.5l-63.8 101.9" stroke="#fff8F"/><path d="M100-162.5l-109.9-41.9" stroke="#c2e1ff8F"/><path d="M100-162.5l106.9 43.6" stroke="#fff5008F"/><path d="M100-162.5l-113.2 1.6" stroke="#005bbb8F"/><path d="M100-162.5l-109.4-27.9" stroke="#fff8F"/><path d="M100-162.5l95 56.2" stroke="#c2e1ff90"/><path d="M100-162.5l-102.9-21" stroke="#c2e1ff90"/><path d="M100-162.5l0.9-100.2" stroke="#fff50091"/><path d="M100-162.5l69.6 68.2" stroke="#c2e1ff91"/><path d="M100-162.5l75.8 61" stroke="#fff91"/><path d="M100-162.5l-50.6 79" stroke="#fff91"/><path d="M100-162.5l24.1-85.1" stroke="#fff92"/><path d="M100-162.5l31.1 43.7" stroke="#c2e1ff94"/><path d="M100-162.5l-30.2-3" stroke="#fff50095"/><path d="M100-162.5l-24-5.8" stroke="#fff95"/><path d="M100-162.5l-19.8 12.4" stroke="#fff50095"/></g><g class="sparcs"><path d="M127.3-165a5.9 5.9 0 1 1 0-11.8 5.9 5.9 0 0 1 0 11.8" fill="#fff7D"/><path d="M56.1-158.7a6 6 0 1 1 0-11.9 6 6 0 0 1 0 11.9" fill="#c2e1ff7E"/><path d="M145.9-115.5a6 6 0 1 1 0-12 6 6 0 0 1 0 12" fill="#fff5007F"/><path d="M36.2-144.2a6 6 0 1 1 0-12 6 6 0 0 1 0 12" fill="#fff7F"/><path d="M145.5-224.5a6.1 6.1 0 1 1 0-12.1 6.1 6.1 0 0 1 0 12.1" fill="#005bbb81"/><path d="M121.2-75.1a6.1 6.1 0 1 1 0-12.2 6.1 6.1 0 0 1 0 12.2" fill="#fff50081"/><path d="M49.3-85.9a6.1 6.1 0 1 1 0-12.2 6.1 6.1 0 0 1 0 12.2" fill="#fff50081"/><path d="M202.1-175.6a6.2 6.2 0 1 1 0-12.4 6.2 6.2 0 0 1 0 12.4" fill="#fff50083"/><path d="M67.6-261.4a6.2 6.2 0 1 1 0-12.5 6.2 6.2 0 0 1 0 12.5" fill="#005bbb84"/><path d="M1.7-211.3a6.3 6.3 0 1 1 0-12.5 6.3 6.3 0 0 1 0 12.5" fill="#c2e1ff84"/><path d="M1.2-96.9a6.3 6.3 0 1 1 0-12.5 6.3 6.3 0 0 1 0 12.5" fill="#c2e1ff85"/><path d="M170.6-253.6a6.3 6.3 0 1 1 0-12.6 6.3 6.3 0 0 1 0 12.6" fill="#c2e1ff86"/><path d="M-20.9-139.9a6.3 6.3 0 1 1 0-12.7 6.3 6.3 0 0 1 0 12.7" fill="#fff50086"/><path d="M150.7-42.4a6.3 6.3 0 1 1 0-12.7 6.3 6.3 0 0 1 0 12.7" fill="#fff50086"/><path d="M176.8-264.3a6.4 6.4 0 1 1 0-12.8 6.4 6.4 0 0 1 0 12.8" fill="#fff50088"/><path d="M227.4-195.3a6.4 6.4 0 1 1 0-12.8 6.4 6.4 0 0 1 0 12.8" fill="#c2e1ff88"/><path d="M-31.6-102.1a6.5 6.5 0 1 1 0-13 6.5 6.5 0 0 1 0 13" fill="#005bbb8A"/><path d="M163.7-22.9a6.6 6.6 0 1 1 0-13.1 6.6 6.6 0 0 1 0 13.1" fill="#c2e1ff8B"/><path d="M75-8.9a6.6 6.6 0 1 1 0-13.2 6.6 6.6 0 0 1 0 13.2" fill="#fff5008B"/><path d="M-48.8-141.4a6.6 6.6 0 1 1 0-13.1 6.6 6.6 0 0 1 0 13.1" fill="#fff5008B"/><path d="M192.3-280.5a6.6 6.6 0 1 1 0-13.2 6.6 6.6 0 0 1 0 13.2" fill="#005bbb8C"/><path d="M7.2-29.1a6.7 6.7 0 1 1 0-13.3 6.7 6.7 0 0 1 0 13.3" fill="#fff8D"/><path d="M85.5 3.2a6.7 6.7 0 1 1 0-13.3 6.7 6.7 0 0 1 0 13.3" fill="#005bbb8E"/><path d="M237.6-57.1a6.8 6.8 0 1 1 0-13.6 6.8 6.8 0 0 1 0 13.6" fill="#fff90"/><path d="M-70.2-152.2a6.8 6.8 0 1 1 0-13.7 6.8 6.8 0 0 1 0 13.7" fill="#fff90"/><path d="M23.7-311.5a6.9 6.9 0 1 1 0-13.7 6.9 6.9 0 0 1 0 13.7" fill="#fff50091"/><path d="M272.6-174.2a6.9 6.9 0 1 1 0-13.7 6.9 6.9 0 0 1 0 13.7" fill="#fff91"/><path d="M155.5 9.9a6.9 6.9 0 1 1 0-13.8 6.9 6.9 0 0 1 0 13.8" fill="#005bbb92"/><path d="M210.3-18.4a6.9 6.9 0 1 1 0-13.8 6.9 6.9 0 0 1 0 13.8" fill="#005bbb92"/><path d="M-55.9-249a7 7 0 1 1 0-14 7 7 0 0 1 0 14" fill="#c2e1ff94"/><path d="M203.9-312.3a7.1 7.1 0 1 1 0-14.1 7.1 7.1 0 0 1 0 14.1" fill="#fff50096"/><path d="M-17.4-304.1a7.1 7.1 0 1 1 0-14.2 7.1 7.1 0 0 1 0 14.2" fill="#fff50097"/><path d="M-86.6-113.5a7.1 7.1 0 1 1 0-14.2 7.1 7.1 0 0 1 0 14.2" fill="#c2e1ff97"/><path d="M-65.6-251.3a7.1 7.1 0 1 1 0-14.2 7.1 7.1 0 0 1 0 14.2" fill="#fff50097"/><path d="M239.8-287.1a7.1 7.1 0 1 1 0-14.3 7.1 7.1 0 0 1 0 14.3" fill="#fff50098"/><path d="M208.3-315.3a7.2 7.2 0 1 1 0-14.3 7.2 7.2 0 0 1 0 14.3" fill="#fff98"/><path d="M85.7 39a7.2 7.2 0 1 1 0-14.4 7.2 7.2 0 0 1 0 14.4" fill="#c2e1ff99"/><path d="M-85.7-220.4a7.2 7.2 0 1 1 0-14.4 7.2 7.2 0 0 1 0 14.4" fill="#c2e1ff9A"/><path d="M122.7 43.8a7.3 7.3 0 1 1 0-14.6 7.3 7.3 0 0 1 0 14.6" fill="#fff9B"/><path d="M299.4-177.9a7.3 7.3 0 1 1 0-14.6 7.3 7.3 0 0 1 0 14.6" fill="#005bbb9B"/><path d="M140.8 41.8a7.3 7.3 0 1 1 0-14.6 7.3 7.3 0 0 1 0 14.6" fill="#c2e1ff9B"/><path d="M-89.4-72.2a7.4 7.4 0 1 1 0-14.9 7.4 7.4 0 0 1 0 14.9" fill="#005bbb9E"/><path d="M308.9-153.3a7.5 7.5 0 1 1 0-15 7.5 7.5 0 0 1 0 15" fill="#005bbb9F"/><path d="M117.7-363.2a7.5 7.5 0 1 1 0-15 7.5 7.5 0 0 1 0 15" fill="#c2e1ff9F"/><path d="M-30.5 8.5a7.5 7.5 0 1 1 0-15 7.5 7.5 0 0 1 0 15" fill="#fff9F"/><path d="M-94.5-74.8a7.5 7.5 0 1 1 0-15 7.5 7.5 0 0 1 0 15" fill="#c2e1ffA0"/><path d="M278.2-267.7a7.5 7.5 0 1 1 0-15.1 7.5 7.5 0 0 1 0 15.1" fill="#fff500A0"/><path d="M81.4 56a7.5 7.5 0 1 1 0-15.1 7.5 7.5 0 0 1 0 15.1" fill="#fff500A1"/><path d="M256.9-10.6a7.6 7.6 0 1 1 0-15.2 7.6 7.6 0 0 1 0 15.2" fill="#fffA1"/><path d="M13.6 43.3a7.7 7.7 0 1 1 0-15.3 7.7 7.7 0 0 1 0 15.3" fill="#c2e1ffA3"/><path d="M303.7-75.5a7.7 7.7 0 1 1 0-15.5 7.7 7.7 0 0 1 0 15.5" fill="#c2e1ffA5"/><path d="M-33.1-328.3a7.7 7.7 0 1 1 0-15.5 7.7 7.7 0 0 1 0 15.5" fill="#005bbbA5"/><path d="M-73.3-288.2a7.7 7.7 0 1 1 0-15.5 7.7 7.7 0 0 1 0 15.5" fill="#fff500A5"/><path d="M294.1-47.5a7.8 7.8 0 1 1 0-15.7 7.8 7.8 0 0 1 0 15.7" fill="#fff500A7"/><path d="M320.2-128a7.8 7.8 0 1 1 0-15.7 7.8 7.8 0 0 1 0 15.7" fill="#fffA7"/><path d="M295.9-260.4a7.9 7.9 0 1 1 0-15.8 7.9 7.9 0 0 1 0 15.8" fill="#005bbbA8"/><path d="M-92.1-267.3a7.9 7.9 0 1 1 0-15.8 7.9 7.9 0 0 1 0 15.8" fill="#c2e1ffA8"/><path d="M156 60.9a7.9 7.9 0 1 1 0-15.7 7.9 7.9 0 0 1 0 15.7" fill="#fffA8"/><path d="M140 67.7a8 8 0 1 1 0-16 8 8 0 0 1 0 16" fill="#005bbbAA"/><path d="M83 70.7a8 8 0 1 1 0-16 8 8 0 0 1 0 16" fill="#c2e1ffAA"/><path d="M305.6-58.5a8 8 0 1 1 0-16.1 8 8 0 0 1 0 16.1" fill="#fffAB"/><path d="M110.7-383.1a8.1 8.1 0 1 1 0-16.2 8.1 8.1 0 0 1 0 16.2" fill="#c2e1ffAD"/><path d="M-86.7-21.7a8.1 8.1 0 1 1 0-16.3 8.1 8.1 0 0 1 0 16.3" fill="#005bbbAE"/><path d="M-123-208.2a8.2 8.2 0 1 1 0-16.3 8.2 8.2 0 0 1 0 16.3" fill="#fff500AE"/><path d="M153-380.6a8.3 8.3 0 1 1 0-16.7 8.3 8.3 0 0 1 0 16.7" fill="#fffB2"/><path d="M301.7-270.3a8.4 8.4 0 1 1 0-16.8 8.4 8.4 0 0 1 0 16.8" fill="#005bbbB2"/><path d="M-130-116.4a8.4 8.4 0 1 1 0-16.8 8.4 8.4 0 0 1 0 16.8" fill="#fffB3"/><path d="M-63 12.9a8.4 8.4 0 1 1 0-16.8 8.4 8.4 0 0 1 0 16.8" fill="#fffB3"/><path d="M287.5-293.1a8.4 8.4 0 1 1 0-16.8 8.4 8.4 0 0 1 0 16.8" fill="#005bbbB3"/><path d="M333.6-151.4a8.4 8.4 0 1 1 0-16.8 8.4 8.4 0 0 1 0 16.8" fill="#fff500B4"/><path d="M-133.9-156.5a8.4 8.4 0 1 1 0-16.9 8.4 8.4 0 0 1 0 16.9" fill="#fff500B4"/><path d="M147.1-383.3a8.5 8.5 0 1 1 0-16.9 8.5 8.5 0 0 1 0 16.9" fill="#fffB5"/><path d="M227.9 42.9a8.5 8.5 0 1 1 0-17.1 8.5 8.5 0 0 1 0 17.1" fill="#fffB6"/><path d="M83.9-388.2a8.5 8.5 0 1 1 0-17 8.5 8.5 0 0 1 0 17" fill="#fffB6"/><path d="M217.3-357.4a8.5 8.5 0 1 1 0-17 8.5 8.5 0 0 1 0 17" fill="#fffB6"/><path d="M239.2 35.1a8.5 8.5 0 1 1 0-17 8.5 8.5 0 0 1 0 17" fill="#fffB6"/><path d="M245.3-338.5a8.5 8.5 0 1 1 0-17.1 8.5 8.5 0 0 1 0 17.1" fill="#fffB7"/><path d="M333.2-185a8.6 8.6 0 1 1 0-17.2 8.6 8.6 0 0 1 0 17.2" fill="#005bbbB7"/><path d="M319-241.1a8.7 8.7 0 1 1 0-17.3 8.7 8.7 0 0 1 0 17.3" fill="#fff500B9"/><path d="M335.7-149.5a8.7 8.7 0 1 1 0-17.3 8.7 8.7 0 0 1 0 17.3" fill="#fffB9"/><path d="M308.8-263.4a8.7 8.7 0 1 1 0-17.3 8.7 8.7 0 0 1 0 17.3" fill="#fffBA"/><path d="M-22-355.8a8.7 8.7 0 1 1 0-17.4 8.7 8.7 0 0 1 0 17.4" fill="#fffBA"/><path d="M243.1-341.5a8.7 8.7 0 1 1 0-17.5 8.7 8.7 0 0 1 0 17.5" fill="#fff500BB"/><path d="M335.8-140a8.8 8.8 0 1 1 0-17.5 8.8 8.8 0 0 1 0 17.5" fill="#fffBC"/><path d="M258.4 21.5a8.8 8.8 0 1 1 0-17.6 8.8 8.8 0 0 1 0 17.6" fill="#fff500BC"/><path d="M139.2 79.2a8.8 8.8 0 1 1 0-17.6 8.8 8.8 0 0 1 0 17.6" fill="#005bbbBC"/><path d="M189.3 65a8.8 8.8 0 1 1 0-17.6 8.8 8.8 0 0 1 0 17.6" fill="#fffBD"/><path d="M336.2-151a8.8 8.8 0 1 1 0-17.7 8.8 8.8 0 0 1 0 17.7" fill="#c2e1ffBD"/><path d="M335.4-133.9a8.9 8.9 0 1 1 0-17.7 8.9 8.9 0 0 1 0 17.7" fill="#005bbbBD"/><path d="M284.7-300.9a8.9 8.9 0 1 1 0-17.8 8.9 8.9 0 0 1 0 17.8" fill="#fffBE"/><path d="M111.1-389.4a8.9 8.9 0 1 1 0-17.9 8.9 8.9 0 0 1 0 17.9" fill="#fff500BF"/><path d="M7.7 63.8a8.9 8.9 0 1 1 0-17.9 8.9 8.9 0 0 1 0 17.9" fill="#fffBF"/><path d="M88.4 82.1a9 9 0 1 1 0-18 9 9 0 0 1 0 18" fill="#fff500C1"/><path d="M-59.8 20a9 9 0 1 1 0-18.1 9 9 0 0 1 0 18.1" fill="#fff500C2"/><path d="M-121.5-72.7a9 9 0 1 1 0-18.1 9 9 0 0 1 0 18.1" fill="#fffC2"/><path d="M45.6-382.7a9.1 9.1 0 1 1 0-18.1 9.1 9.1 0 0 1 0 18.1" fill="#fffC2"/><path d="M334.1-179.2a9.1 9.1 0 1 1 0-18.2 9.1 9.1 0 0 1 0 18.2" fill="#fffC3"/><path d="M-120-69.7a9.1 9.1 0 1 1 0-18.2 9.1 9.1 0 0 1 0 18.2" fill="#c2e1ffC3"/><path d="M312.8-253.5a9.1 9.1 0 1 1 0-18.3 9.1 9.1 0 0 1 0 18.3" fill="#005bbbC4"/><path d="M75.3 80a9.2 9.2 0 1 1 0-18.4 9.2 9.2 0 0 1 0 18.4" fill="#c2e1ffC5"/><path d="M124.1 80a9.2 9.2 0 1 1 0-18.4 9.2 9.2 0 0 1 0 18.4" fill="#fffC5"/><path d="M-68-316.6a9.2 9.2 0 1 1 0-18.5 9.2 9.2 0 0 1 0 18.5" fill="#c2e1ffC6"/><path d="M206.4 54.2a9.3 9.3 0 1 1 0-18.7 9.3 9.3 0 0 1 0 18.7" fill="#005bbbC8"/><path d="M68.2 77.5a9.4 9.4 0 1 1 0-18.7 9.4 9.4 0 0 1 0 18.7" fill="#fffC9"/><path d="M115.6 78.4a9.4 9.4 0 1 1 0-18.8 9.4 9.4 0 0 1 0 18.8" fill="#c2e1ffCA"/><path d="M-104.6-261.6a9.4 9.4 0 1 1 0-18.9 9.4 9.4 0 0 1 0 18.9" fill="#005bbbCA"/><path d="M67.4 75.4a9.5 9.5 0 1 1 0-19 9.5 9.5 0 0 1 0 19" fill="#c2e1ffCC"/><path d="M-129.4-142a9.6 9.6 0 1 1 0-19.1 9.6 9.6 0 0 1 0 19.1" fill="#fffCD"/><path d="M12.6-363a9.6 9.6 0 1 1 0-19.3 9.6 9.6 0 0 1 0 19.3" fill="#c2e1ffCF"/><path d="M327.3-152.8a9.7 9.7 0 1 1 0-19.4 9.7 9.7 0 0 1 0 19.4" fill="#c2e1ffCF"/><path d="M284-285.3a9.7 9.7 0 1 1 0-19.4 9.7 9.7 0 0 1 0 19.4" fill="#c2e1ffD0"/><path d="M320.2-205.1a9.7 9.7 0 1 1 0-19.4 9.7 9.7 0 0 1 0 19.4" fill="#c2e1ffD0"/><path d="M-112.3-227.7a9.8 9.8 0 1 1 0-19.5 9.8 9.8 0 0 1 0 19.5" fill="#fff500D1"/><path d="M323.8-162.7a9.8 9.8 0 1 1 0-19.6 9.8 9.8 0 0 1 0 19.6" fill="#c2e1ffD2"/><path d="M-117.3-203.9a9.8 9.8 0 1 1 0-19.6 9.8 9.8 0 0 1 0 19.6" fill="#005bbbD3"/><path d="M320-121.7a9.9 9.9 0 1 1 0-19.8 9.9 9.9 0 0 1 0 19.8" fill="#fffD4"/><path d="M49.5-368.9a9.9 9.9 0 1 1 0-19.7 9.9 9.9 0 0 1 0 19.7" fill="#fffD4"/><path d="M123-370.7a10 10 0 1 1 0-19.9 10 10 0 0 1 0 19.9" fill="#c2e1ffD6"/><path d="M-68.1-290.6a10 10 0 1 1 0-20 10 10 0 0 1 0 20" fill="#005bbbD7"/><path d="M-114.5-149.1a10.1 10.1 0 1 1 0-20.2 10.1 10.1 0 0 1 0 20.2" fill="#c2e1ffD9"/><path d="M-109.7-109.1a10.1 10.1 0 1 1 0-20.2 10.1 10.1 0 0 1 0 20.2" fill="#005bbbD9"/><path d="M139.6 57.9a10.1 10.1 0 1 1 0-20.3 10.1 10.1 0 0 1 0 20.3" fill="#fff500D9"/><path d="M176.7-351.5a10.1 10.1 0 1 1 0-20.3 10.1 10.1 0 0 1 0 20.3" fill="#c2e1ffD9"/><path d="M-95.9-74.2a10.2 10.2 0 1 1 0-20.4 10.2 10.2 0 0 1 0 20.4" fill="#fff500DB"/><path d="M304.5-198.9a10.2 10.2 0 1 1 0-20.5 10.2 10.2 0 0 1 0 20.5" fill="#fffDB"/><path d="M92.4 57a10.2 10.2 0 1 1 0-20.4 10.2 10.2 0 0 1 0 20.4" fill="#fffDC"/><path d="M-72.6-270.1a10.2 10.2 0 1 1 0-20.5 10.2 10.2 0 0 1 0 20.5" fill="#c2e1ffDC"/><path d="M219.6 18.9a10.2 10.2 0 1 1 0-20.5 10.2 10.2 0 0 1 0 20.5" fill="#fffDC"/><path d="M-61-277.4a10.3 10.3 0 1 1 0-20.7 10.3 10.3 0 0 1 0 20.7" fill="#c2e1ffDE"/><path d="M266.9-36.3a10.4 10.4 0 1 1 0-20.8 10.4 10.4 0 0 1 0 20.8" fill="#fffDF"/><path d="M-84.7-70.6a10.4 10.4 0 1 1 0-20.8 10.4 10.4 0 0 1 0 20.8" fill="#c2e1ffDF"/><path d="M115.5 48.4a10.4 10.4 0 1 1 0-20.8 10.4 10.4 0 0 1 0 20.8" fill="#fffE0"/><path d="M207.7 15.3a10.5 10.5 0 1 1 0-20.9 10.5 10.5 0 0 1 0 20.9" fill="#c2e1ffE1"/><path d="M295.8-121.1a10.5 10.5 0 1 1 0-20.9 10.5 10.5 0 0 1 0 20.9" fill="#fffE1"/><path d="M156.3-341.5a10.5 10.5 0 1 1 0-21 10.5 10.5 0 0 1 0 21" fill="#c2e1ffE1"/><path d="M43.5 37a10.5 10.5 0 1 1 0-21 10.5 10.5 0 0 1 0 21" fill="#005bbbE1"/><path d="M280.2-231.6a10.5 10.5 0 1 1 0-21 10.5 10.5 0 0 1 0 21" fill="#fff500E1"/><path d="M87.7 44.5a10.5 10.5 0 1 1 0-21 10.5 10.5 0 0 1 0 21" fill="#c2e1ffE1"/><path d="M290.3-101.9a10.5 10.5 0 1 1 0-21 10.5 10.5 0 0 1 0 21" fill="#005bbbE1"/><path d="M285.8-93.3a10.5 10.5 0 1 1 0-21 10.5 10.5 0 0 1 0 21" fill="#005bbbE2"/><path d="M196.6-320.9a10.5 10.5 0 1 1 0-21.1 10.5 10.5 0 0 1 0 21.1" fill="#005bbbE2"/><path d="M47-337.1a10.6 10.6 0 1 1 0-21.2 10.6 10.6 0 0 1 0 21.2" fill="#fffE3"/><path d="M-78.3-79.2a10.6 10.6 0 1 1 0-21.2 10.6 10.6 0 0 1 0 21.2" fill="#c2e1ffE3"/><path d="M270-65.1a10.6 10.6 0 1 1 0-21.2 10.6 10.6 0 0 1 0 21.2" fill="#005bbbE4"/><path d="M17.9-324.2a10.6 10.6 0 1 1 0-21.2 10.6 10.6 0 0 1 0 21.2" fill="#fff500E4"/><path d="M-87.2-184.2a10.6 10.6 0 1 1 0-21.2 10.6 10.6 0 0 1 0 21.2" fill="#fff500E4"/><path d="M289.9-150.3a10.6 10.6 0 1 1 0-21.2 10.6 10.6 0 0 1 0 21.2" fill="#fffE4"/><path d="M-75.3-105.3a10.8 10.8 0 1 1 0-21.5 10.8 10.8 0 0 1 0 21.5" fill="#c2e1ffE7"/><path d="M-35.8-34.4a10.8 10.8 0 1 1 0-21.5 10.8 10.8 0 0 1 0 21.5" fill="#c2e1ffE8"/><path d="M62.3 21a10.8 10.8 0 1 1 0-21.6 10.8 10.8 0 0 1 0 21.6" fill="#fff500E9"/><path d="M267.8-196.3a10.9 10.9 0 1 1 0-21.7 10.9 10.9 0 0 1 0 21.7" fill="#fffEA"/><path d="M-73.1-152.1a10.9 10.9 0 1 1 0-21.8 10.9 10.9 0 0 1 0 21.8" fill="#c2e1ffEA"/><path d="M34.4 2.6a10.9 10.9 0 1 1 0-21.9 10.9 10.9 0 0 1 0 21.9" fill="#c2e1ffEB"/><path d="M265.8-170.3a10.9 10.9 0 1 1 0-21.9 10.9 10.9 0 0 1 0 21.9" fill="#fffEC"/><path d="M223.4-39.6a11 11 0 1 1 0-21.9 11 11 0 0 1 0 21.9" fill="#c2e1ffEC"/><path d="M132.3-313.5a11 11 0 1 1 0-22 11 11 0 0 1 0 22" fill="#c2e1ffEC"/><path d="M258.7-185.9a11 11 0 1 1 0-22 11 11 0 0 1 0 22" fill="#fff500ED"/><path d="M139.6-308.5a11 11 0 1 1 0-22 11 11 0 0 1 0 22" fill="#fffED"/><path d="M98.9 7a11.1 11.1 0 1 1 0-22.1 11.1 11.1 0 0 1 0 22.1" fill="#005bbbEE"/><path d="M159.2-6.2a11.1 11.1 0 1 1 0-22.1 11.1 11.1 0 0 1 0 22.1" fill="#c2e1ffEE"/><path d="M-30.3-235.8a11.1 11.1 0 1 1 0-22.2 11.1 11.1 0 0 1 0 22.2" fill="#c2e1ffEF"/><path d="M138-6.4a11.1 11.1 0 1 1 0-22.3 11.1 11.1 0 0 1 0 22.3" fill="#fff500F0"/><path d="M153.7-18.6a11.2 11.2 0 1 1 0-22.4 11.2 11.2 0 0 1 0 22.4" fill="#c2e1ffF1"/><path d="M151.1-282.6a11.2 11.2 0 1 1 0-22.5 11.2 11.2 0 0 1 0 22.5" fill="#fff500F2"/><path d="M-20.1-171.9a11.4 11.4 0 1 1 0-22.7 11.4 11.4 0 0 1 0 22.7" fill="#c2e1ffF5"/><path d="M36.2-49.2a11.4 11.4 0 1 1 0-22.8 11.4 11.4 0 0 1 0 22.8" fill="#fff500F5"/><path d="M-9.9-192.9a11.4 11.4 0 1 1 0-22.9 11.4 11.4 0 0 1 0 22.9" fill="#005bbbF6"/><path d="M206.9-107.4a11.4 11.4 0 1 1 0-22.9 11.4 11.4 0 0 1 0 22.9" fill="#fff500F6"/><path d="M-13.2-149.5a11.5 11.5 0 1 1 0-22.9 11.5 11.5 0 0 1 0 22.9" fill="#fff500F7"/><path d="M-9.4-178.9a11.5 11.5 0 1 1 0-22.9 11.5 11.5 0 0 1 0 22.9" fill="#c2e1ffF7"/><path d="M195-94.9a11.5 11.5 0 1 1 0-22.9 11.5 11.5 0 0 1 0 22.9" fill="#fff500F7"/><path d="M-2.9-172a11.5 11.5 0 1 1 0-23 11.5 11.5 0 0 1 0 23" fill="#fff500F8"/><path d="M100.9-251.1a11.5 11.5 0 1 1 0-23.1 11.5 11.5 0 0 1 0 23.1" fill="#fffF8"/><path d="M169.6-82.8a11.5 11.5 0 1 1 0-23.1 11.5 11.5 0 0 1 0 23.1" fill="#005bbbF9"/><path d="M175.8-89.9a11.6 11.6 0 1 1 0-23.2 11.6 11.6 0 0 1 0 23.2" fill="#fffF9"/><path d="M49.4-72a11.6 11.6 0 1 1 0-23.1 11.6 11.6 0 0 1 0 23.1" fill="#005bbbF9"/><path d="M124.1-236a11.6 11.6 0 1 1 0-23.2 11.6 11.6 0 0 1 0 23.2" fill="#005bbbFA"/><path d="M131.1-107.1a11.7 11.7 0 1 1 0-23.5 11.7 11.7 0 0 1 0 23.5" fill="#fffFD"/><path d="M69.8-153.7a11.8 11.8 0 1 1 0-23.6 11.8 11.8 0 0 1 0 23.6" fill="#c2e1ffFE"/><path d="M76-156.5a11.8 11.8 0 1 1 0-23.6 11.8 11.8 0 0 1 0 23.6" fill="#fff500FE"/><path d="M80.2-138.3a11.8 11.8 0 1 1 0-23.6 11.8 11.8 0 0 1 0 23.6" fill="#fffFE"/></g></svg>