<svg width="1200" height="675" viewBox="-500 -500 1200 675" xmlns="http://www.w3.org/2000/svg"><path d="M-500-500h1200v675h-1200z" fill="#000"/><style>.sparkles path{stroke-linecap:round; stroke-width:1}</style><g class="sparkles"><path d="M100-162.5l-34.7-5.7" stroke="#fff32"/><path d="M100-162.5l25.9 26.4" stroke="#c2e1ff32"/><path d="M100-162.5l44.3-0.8" stroke="#fff50032"/><path d="M100-162.5l60.7-7" stroke="#fff33"/><path d="M100-162.5l-48.6 46.8" stroke="#c2e1ff34"/><path d="M100-162.5l-56.4 40" stroke="#c2e1ff34"/><path d="M100-162.5l-38.2-67.4" stroke="#c2e1ff34"/><path d="M100-162.5l-65.8 51.7" stroke="#fff50035"/><path d="M100-162.5l45 76" stroke="#fff50035"/><path d="M100-162.5l53.2 75.5" stroke="#fff35"/><path d="M100-162.5l-10.4-97.1" stroke="#fff36"/><path d="M100-162.5l-43.3-89.8" stroke="#005bbb36"/><path d="M100-162.5l-57.6-82.7" stroke="#fff36"/><path d="M100-162.5l11.9 114.4" stroke="#fff50038"/><path d="M100-162.5l118.8-7.5" stroke="#005bbb38"/><path d="M100-162.5l-107.2-53" stroke="#c2e1ff38"/><path d="M100-162.5l42-112.8" stroke="#005bbb38"/><path d="M100-162.5l-6.8-122.2" stroke="#fff50039"/><path d="M100-162.5l-23.5 122.1" stroke="#c2e1ff39"/><path d="M100-162.5l50.4-116.3" stroke="#c2e1ff39"/><path d="M100-162.5l70.4-113.8" stroke="#fff3A"/><path d="M100-162.5l78.8 108.5" stroke="#c2e1ff3A"/><path d="M100-162.5l-71.7-113.7" stroke="#c2e1ff3A"/><path d="M100-162.5l76.8 110.7" stroke="#005bbb3A"/><path d="M100-162.5l-85 108.5" stroke="#fff3B"/><path d="M100-162.5l12.6-144.4" stroke="#005bbb3C"/><path d="M100-162.5l-91.8-113.5" stroke="#fff5003C"/><path d="M100-162.5l118.4-87.1" stroke="#fff3C"/><path d="M100-162.5l-139.5 56.7" stroke="#c2e1ff3D"/><path d="M100-162.5l-145.6 43.1" stroke="#005bbb3D"/><path d="M100-162.5l-73.3-144.3" stroke="#fff5003F"/><path d="M100-162.5l140 82.3" stroke="#005bbb3F"/><path d="M100-162.5l-68.9 148.4" stroke="#c2e1ff3F"/><path d="M100-162.5l-162.9 19.4" stroke="#c2e1ff40"/><path d="M100-162.5l160.5-36.3" stroke="#fff50040"/><path d="M100-162.5l-138 90.7" stroke="#005bbb40"/><path d="M100-162.5l-124.7-110.9" stroke="#c2e1ff40"/><path d="M100-162.5l-127.6-120.2" stroke="#fff42"/><path d="M100-162.5l-177 11.5" stroke="#fff42"/><path d="M100-162.5l-182.3 12.3" stroke="#c2e1ff44"/><path d="M100-162.5l5.7 183.6" stroke="#c2e1ff44"/><path d="M100-162.5l166-78.7" stroke="#c2e1ff44"/><path d="M100-162.5l176.3 58" stroke="#c2e1ff45"/><path d="M100-162.5l-137.7 124.6" stroke="#005bbb45"/><path d="M100-162.5l183-34.7" stroke="#c2e1ff45"/><path d="M100-162.5l-63.2 177.6" stroke="#fff45"/><path d="M100-162.5l102.4 165.1" stroke="#005bbb47"/><path d="M100-162.5l54.5-186.6" stroke="#fff47"/><path d="M100-162.5l18.4-195.1" stroke="#c2e1ff48"/><path d="M100-162.5l27.3-194.5" stroke="#fff50048"/><path d="M100-162.5l-187.4 72.7" stroke="#005bbb49"/><path d="M100-162.5l93.7 178.9" stroke="#c2e1ff4A"/><path d="M100-162.5l96-178.4" stroke="#fff4A"/><path d="M100-162.5l-202.3 24" stroke="#005bbb4A"/><path d="M100-162.5l-94.6 181.2" stroke="#fff5004A"/><path d="M100-162.5l58.2 197.5" stroke="#fff5004B"/><path d="M100-162.5l-173.6 115.6" stroke="#fff4C"/><path d="M100-162.5l-210.3 1.1" stroke="#c2e1ff4D"/><path d="M100-162.5l160.6-137.5" stroke="#fff4D"/><path d="M100-162.5l79.7 199.9" stroke="#fff5004F"/><path d="M100-162.5l-96.2 195.9" stroke="#fff50050"/><path d="M100-162.5l194.8-98.5" stroke="#c2e1ff50"/><path d="M100-162.5l-103.5-192.5" stroke="#fff50"/><path d="M100-162.5l211.2 63" stroke="#005bbb52"/><path d="M100-162.5l-158 154.6" stroke="#005bbb52"/><path d="M100-162.5l163.8 150.1" stroke="#005bbb53"/><path d="M100-162.5l-78.6 208.2" stroke="#c2e1ff53"/><path d="M100-162.5l-200.5-100.8" stroke="#005bbb54"/><path d="M100-162.5l-93.3 205.1" stroke="#fff50054"/><path d="M100-162.5l196.1 111.3" stroke="#c2e1ff55"/><path d="M100-162.5l62.6 217.4" stroke="#005bbb55"/><path d="M100-162.5l-168.2-151.8" stroke="#c2e1ff55"/><path d="M100-162.5l171.2-150" stroke="#fff50056"/><path d="M100-162.5l-142.5 178.3" stroke="#005bbb57"/><path d="M100-162.5l-102.2-206.2" stroke="#fff58"/><path d="M100-162.5l-210.7-92.8" stroke="#fff50058"/><path d="M100-162.5l-201.7 111.9" stroke="#c2e1ff59"/><path d="M100-162.5l229.5-29.5" stroke="#c2e1ff59"/><path d="M100-162.5l170.5-159.4" stroke="#fff5C"/><path d="M100-162.5l204.9 113.5" stroke="#c2e1ff5D"/><path d="M100-162.5l220.6-78.9" stroke="#fff5005D"/><path d="M100-162.5l-217.9-86.8" stroke="#fff5005D"/><path d="M100-162.5l211.4 102.2" stroke="#005bbb5E"/><path d="M100-162.5l57.3 227.8" stroke="#005bbb5E"/><path d="M100-162.5l230.6-45.6" stroke="#005bbb5E"/><path d="M100-162.5l-167.4 165.2" stroke="#c2e1ff5F"/><path d="M100-162.5l-173 159.5" stroke="#fff5F"/><path d="M100-162.5l180-151.6" stroke="#fff5005F"/><path d="M100-162.5l146.5 184.4" stroke="#c2e1ff60"/><path d="M100-162.5l145.9-185.1" stroke="#fff60"/><path d="M100-162.5l-227 64.8" stroke="#fff62"/><path d="M100-162.5l187.5 143.6" stroke="#fff50062"/><path d="M100-162.5l-192.3 137.2" stroke="#fff50062"/><path d="M100-162.5l215.7-96.2" stroke="#c2e1ff63"/><path d="M100-162.5l175.3-158.4" stroke="#fff64"/><path d="M100-162.5l-195.2 133.1" stroke="#005bbb64"/><path d="M100-162.5l-236-9.9" stroke="#fff65"/><path d="M100-162.5l3.1 236.1" stroke="#fff65"/><path d="M100-162.5l-106 210.9" stroke="#c2e1ff66"/><path d="M100-162.5l-69 225.5" stroke="#fff50066"/><path d="M100-162.5l-203.5 118.6" stroke="#fff50067"/><path d="M100-162.5l150.4-181.3" stroke="#fff67"/><path d="M100-162.5l-221.6-79.2" stroke="#c2e1ff68"/><path d="M100-162.5l-184 146.7" stroke="#c2e1ff68"/><path d="M100-162.5l-211.6-102.8" stroke="#fff50068"/><path d="M100-162.5l-231.9-38.4" stroke="#fff68"/><path d="M100-162.5l-217.2 89.5" stroke="#fff69"/><path d="M100-162.5l130.1-194.8" stroke="#fff6A"/><path d="M100-162.5l194.7 130.1" stroke="#005bbb6A"/><path d="M100-162.5l154 176.2" stroke="#fff5006A"/><path d="M100-162.5l-142.8-185.3" stroke="#fff5006A"/><path d="M100-162.5l-52.8 227.7" stroke="#fff6B"/><path d="M100-162.5l211.7 98.9" stroke="#fff5006B"/><path d="M100-162.5l230.4-36.5" stroke="#c2e1ff6B"/><path d="M100-162.5l173.6 155.4" stroke="#005bbb6C"/><path d="M100-162.5l71.7-221.5" stroke="#005bbb6C"/><path d="M100-162.5l-58.5-225" stroke="#fff5006C"/><path d="M100-162.5l-16 231.9" stroke="#fff5006C"/><path d="M100-162.5l79.3-217.2" stroke="#005bbb6E"/><path d="M100-162.5l204.9-106.1" stroke="#fff5006E"/><path d="M100-162.5l58.7 222.7" stroke="#fff5006F"/><path d="M100-162.5l-221.9-61" stroke="#fff5006F"/><path d="M100-162.5l91.2-208.2" stroke="#fff71"/><path d="M100-162.5l158.1 163.2" stroke="#fff71"/><path d="M100-162.5l-101.1-202.9" stroke="#c2e1ff72"/><path d="M100-162.5l32.5 222.1" stroke="#c2e1ff73"/><path d="M100-162.5l-187 123.8" stroke="#fff50073"/><path d="M100-162.5l-31.8 220.3" stroke="#005bbb74"/><path d="M100-162.5l215.6 46.1" stroke="#005bbb75"/><path d="M100-162.5l-78.1 205.8" stroke="#fff76"/><path d="M100-162.5l-194.6 93.5" stroke="#c2e1ff78"/><path d="M100-162.5l-173.9-123.1" stroke="#c2e1ff79"/><path d="M100-162.5l139.9 159.8" stroke="#fff50079"/><path d="M100-162.5l186.2 97.8" stroke="#fff7A"/><path d="M100-162.5l74.7 195.1" stroke="#fff7B"/><path d="M100-162.5l203 36.2" stroke="#fff7C"/><path d="M100-162.5l203.7 29.8" stroke="#c2e1ff7C"/><path d="M100-162.5l-17.5 202.4" stroke="#005bbb7D"/><path d="M100-162.5l-177.8 95.1" stroke="#c2e1ff7E"/><path d="M100-162.5l-164.8 115.4" stroke="#fff5007E"/><path d="M100-162.5l141.1 142.2" stroke="#fff5007E"/><path d="M100-162.5l114.5 161.9" stroke="#fff7F"/><path d="M100-162.5l-54.9 190.5" stroke="#fff7F"/><path d="M100-162.5l196.5-25.1" stroke="#fff5007F"/><path d="M100-162.5l-153.7 110.9" stroke="#fff81"/><path d="M100-162.5l157.1 100.1" stroke="#fff82"/><path d="M100-162.5l102-155.9" stroke="#c2e1ff82"/><path d="M100-162.5l-28.2 181.2" stroke="#fff83"/><path d="M100-162.5l-152.5-86.9" stroke="#005bbb85"/><path d="M100-162.5l168-49.7" stroke="#005bbb85"/><path d="M100-162.5l-33.7 166.8" stroke="#c2e1ff86"/><path d="M100-162.5l165.9-26" stroke="#005bbb87"/><path d="M100-162.5l5.7-164.5" stroke="#fff87"/><path d="M100-162.5l-150 59.6" stroke="#005bbb88"/><path d="M100-162.5l-45.7 154.3" stroke="#c2e1ff88"/><path d="M100-162.5l105.2 119.2" stroke="#c2e1ff88"/><path d="M100-162.5l-150.8 41.3" stroke="#005bbb89"/><path d="M100-162.5l15.3 155.5" stroke="#c2e1ff89"/><path d="M100-162.5l-149.9 26.9" stroke="#fff5008A"/><path d="M100-162.5l149.2 0" stroke="#fff5008A"/><path d="M100-162.5l-117 90.6" stroke="#fff8A"/><path d="M100-162.5l125.7-77.8" stroke="#fff5008A"/><path d="M100-162.5l135.9 39.5" stroke="#fff8C"/><path d="M100-162.5l-138.8 20.1" stroke="#005bbb8C"/><path d="M100-162.5l-124.3 61.8" stroke="#fff5008C"/><path d="M100-162.5l22.6 135.5" stroke="#005bbb8C"/><path d="M100-162.5l106.5 76.8" stroke="#fff5008D"/><path d="M100-162.5l-96.8 86.4" stroke="#fff5008D"/><path d="M100-162.5l-62.7 112.3" stroke="#fff5008D"/><path d="M100-162.5l-57.3-108.9" stroke="#005bbb8E"/><path d="M100-162.5l-111.6 34.5" stroke="#c2e1ff8F"/><path d="M100-162.5l-95 53.2" stroke="#fff50090"/><path d="M100-162.5l85.7 61.2" stroke="#005bbb90"/><path d="M100-162.5l93.3 39.5" stroke="#fff50091"/><path d="M100-162.5l-69.4-68.4" stroke="#005bbb91"/><path d="M100-162.5l61.1-63.5" stroke="#c2e1ff92"/><path d="M100-162.5l83.7-14.2" stroke="#fff50092"/><path d="M100-162.5l-60 19.5" stroke="#c2e1ff94"/><path d="M100-162.5l15.1-54.8" stroke="#fff50094"/><path d="M100-162.5l44.9-19.8" stroke="#c2e1ff94"/><path d="M100-162.5l3.1-34.7" stroke="#005bbb95"/></g><g class="sparcs"><path d="M65.3-162.2a5.9 5.9 0 1 1 0-11.9 5.9 5.9 0 0 1 0 11.9" fill="#fff7D"/><path d="M125.9-130.1a5.9 5.9 0 1 1 0-11.9 5.9 5.9 0 0 1 0 11.9" fill="#fff7D"/><path d="M144.3-157.3a6 6 0 1 1 0-12 6 6 0 0 1 0 12" fill="#005bbb7E"/><path d="M160.7-163.5a6 6 0 1 1 0-12 6 6 0 0 1 0 12" fill="#c2e1ff7F"/><path d="M51.4-109.7a6 6 0 1 1 0-12.1 6 6 0 0 1 0 12.1" fill="#fff7F"/><path d="M43.6-116.4a6 6 0 1 1 0-12.1 6 6 0 0 1 0 12.1" fill="#005bbb7F"/><path d="M61.8-223.8a6.1 6.1 0 1 1 0-12.1 6.1 6.1 0 0 1 0 12.1" fill="#c2e1ff80"/><path d="M34.2-104.7a6.1 6.1 0 1 1 0-12.2 6.1 6.1 0 0 1 0 12.2" fill="#fff81"/><path d="M145-80.4a6.1 6.1 0 1 1 0-12.2 6.1 6.1 0 0 1 0 12.2" fill="#005bbb81"/><path d="M153.2-80.9a6.1 6.1 0 1 1 0-12.3 6.1 6.1 0 0 1 0 12.3" fill="#fff50082"/><path d="M89.6-253.4a6.2 6.2 0 1 1 0-12.3 6.2 6.2 0 0 1 0 12.3" fill="#c2e1ff82"/><path d="M56.7-246.1a6.2 6.2 0 1 1 0-12.4 6.2 6.2 0 0 1 0 12.4" fill="#fff50083"/><path d="M42.4-239a6.2 6.2 0 1 1 0-12.4 6.2 6.2 0 0 1 0 12.4" fill="#fff83"/><path d="M111.9-41.8a6.3 6.3 0 1 1 0-12.6 6.3 6.3 0 0 1 0 12.6" fill="#c2e1ff85"/><path d="M218.8-163.7a6.3 6.3 0 1 1 0-12.6 6.3 6.3 0 0 1 0 12.6" fill="#fff85"/><path d="M-7.2-209.2a6.3 6.3 0 1 1 0-12.6 6.3 6.3 0 0 1 0 12.6" fill="#c2e1ff85"/><path d="M142-269a6.3 6.3 0 1 1 0-12.6 6.3 6.3 0 0 1 0 12.6" fill="#005bbb86"/><path d="M93.2-278.4a6.3 6.3 0 1 1 0-12.6 6.3 6.3 0 0 1 0 12.6" fill="#fff86"/><path d="M76.5-34a6.3 6.3 0 1 1 0-12.7 6.3 6.3 0 0 1 0 12.7" fill="#fff50086"/><path d="M150.4-272.5a6.4 6.4 0 1 1 0-12.7 6.4 6.4 0 0 1 0 12.7" fill="#005bbb87"/><path d="M170.4-269.9a6.4 6.4 0 1 1 0-12.8 6.4 6.4 0 0 1 0 12.8" fill="#c2e1ff88"/><path d="M178.8-47.6a6.4 6.4 0 1 1 0-12.8 6.4 6.4 0 0 1 0 12.8" fill="#005bbb88"/><path d="M28.3-269.7a6.4 6.4 0 1 1 0-12.9 6.4 6.4 0 0 1 0 12.9" fill="#fff50088"/><path d="M176.8-45.3a6.4 6.4 0 1 1 0-12.9 6.4 6.4 0 0 1 0 12.9" fill="#c2e1ff88"/><path d="M15-47.6a6.5 6.5 0 1 1 0-12.9 6.5 6.5 0 0 1 0 12.9" fill="#005bbb89"/><path d="M112.6-300.4a6.5 6.5 0 1 1 0-13.1 6.5 6.5 0 0 1 0 13.1" fill="#fff8A"/><path d="M8.2-269.4a6.5 6.5 0 1 1 0-13.1 6.5 6.5 0 0 1 0 13.1" fill="#c2e1ff8A"/><path d="M218.4-243.1a6.5 6.5 0 1 1 0-13.1 6.5 6.5 0 0 1 0 13.1" fill="#fff8B"/><path d="M-39.5-99.2a6.6 6.6 0 1 1 0-13.2 6.6 6.6 0 0 1 0 13.2" fill="#005bbb8B"/><path d="M-45.6-112.8a6.6 6.6 0 1 1 0-13.2 6.6 6.6 0 0 1 0 13.2" fill="#fff5008C"/><path d="M26.7-300.1a6.7 6.7 0 1 1 0-13.4 6.7 6.7 0 0 1 0 13.4" fill="#005bbb8E"/><path d="M240-73.5a6.7 6.7 0 1 1 0-13.5 6.7 6.7 0 0 1 0 13.5" fill="#c2e1ff8E"/><path d="M31.1-7.4a6.7 6.7 0 1 1 0-13.4 6.7 6.7 0 0 1 0 13.4" fill="#fff5008F"/><path d="M-62.9-136.4a6.7 6.7 0 1 1 0-13.4 6.7 6.7 0 0 1 0 13.4" fill="#005bbb8F"/><path d="M260.5-192a6.7 6.7 0 1 1 0-13.5 6.7 6.7 0 0 1 0 13.5" fill="#c2e1ff8F"/><path d="M-38-65a6.7 6.7 0 1 1 0-13.5 6.7 6.7 0 0 1 0 13.5" fill="#c2e1ff8F"/><path d="M-24.7-266.7a6.8 6.8 0 1 1 0-13.5 6.8 6.8 0 0 1 0 13.5" fill="#005bbb8F"/><path d="M-27.6-275.8a6.9 6.9 0 1 1 0-13.8 6.9 6.9 0 0 1 0 13.8" fill="#fff92"/><path d="M-77-144.1a6.9 6.9 0 1 1 0-13.8 6.9 6.9 0 0 1 0 13.8" fill="#005bbb93"/><path d="M-82.3-143.2a7 7 0 1 1 0-14 7 7 0 0 1 0 14" fill="#fff50094"/><path d="M105.7 28.1a7 7 0 1 1 0-14 7 7 0 0 1 0 14" fill="#c2e1ff95"/><path d="M266-234.2a7 7 0 1 1 0-14 7 7 0 0 1 0 14" fill="#fff95"/><path d="M276.3-97.5a7 7 0 1 1 0-14 7 7 0 0 1 0 14" fill="#005bbb95"/><path d="M-37.7-30.8a7 7 0 1 1 0-14.1 7 7 0 0 1 0 14.1" fill="#fff95"/><path d="M283-190.2a7 7 0 1 1 0-14.1 7 7 0 0 1 0 14.1" fill="#005bbb96"/><path d="M36.8 22.2a7.1 7.1 0 1 1 0-14.2 7.1 7.1 0 0 1 0 14.2" fill="#fff96"/><path d="M202.4 9.8a7.2 7.2 0 1 1 0-14.3 7.2 7.2 0 0 1 0 14.3" fill="#005bbb99"/><path d="M154.5-341.9a7.2 7.2 0 1 1 0-14.4 7.2 7.2 0 0 1 0 14.4" fill="#c2e1ff99"/><path d="M118.4-350.3a7.2 7.2 0 1 1 0-14.5 7.2 7.2 0 0 1 0 14.5" fill="#fff50099"/><path d="M127.3-349.8a7.2 7.2 0 1 1 0-14.4 7.2 7.2 0 0 1 0 14.4" fill="#c2e1ff99"/><path d="M-87.4-82.5a7.3 7.3 0 1 1 0-14.6 7.3 7.3 0 0 1 0 14.6" fill="#fff5009B"/><path d="M193.7 23.7a7.3 7.3 0 1 1 0-14.6 7.3 7.3 0 0 1 0 14.6" fill="#fff9C"/><path d="M196-333.6a7.3 7.3 0 1 1 0-14.7 7.3 7.3 0 0 1 0 14.7" fill="#005bbb9C"/><path d="M-102.3-131.2a7.4 7.4 0 1 1 0-14.7 7.4 7.4 0 0 1 0 14.7" fill="#c2e1ff9D"/><path d="M5.4 26a7.4 7.4 0 1 1 0-14.7 7.4 7.4 0 0 1 0 14.7" fill="#fff9D"/><path d="M158.2 42.4a7.4 7.4 0 1 1 0-14.8 7.4 7.4 0 0 1 0 14.8" fill="#fff5009E"/><path d="M-73.6-39.4a7.5 7.5 0 1 1 0-15 7.5 7.5 0 0 1 0 15" fill="#c2e1ff9F"/><path d="M-110.3-153.8a7.5 7.5 0 1 1 0-15.1 7.5 7.5 0 0 1 0 15.1" fill="#fff500A0"/><path d="M260.6-292.4a7.5 7.5 0 1 1 0-15.1 7.5 7.5 0 0 1 0 15.1" fill="#fffA0"/><path d="M179.7 45a7.6 7.6 0 1 1 0-15.3 7.6 7.6 0 0 1 0 15.3" fill="#fff500A3"/><path d="M3.8 41.2a7.7 7.7 0 1 1 0-15.5 7.7 7.7 0 0 1 0 15.5" fill="#005bbbA5"/><path d="M294.8-253.3a7.7 7.7 0 1 1 0-15.4 7.7 7.7 0 0 1 0 15.4" fill="#fffA5"/><path d="M-3.5-347.2a7.7 7.7 0 1 1 0-15.5 7.7 7.7 0 0 1 0 15.5" fill="#fffA5"/><path d="M311.2-91.7a7.8 7.8 0 1 1 0-15.6 7.8 7.8 0 0 1 0 15.6" fill="#fff500A6"/><path d="M-58-0.1a7.8 7.8 0 1 1 0-15.6 7.8 7.8 0 0 1 0 15.6" fill="#fff500A7"/><path d="M263.8-4.5a7.9 7.9 0 1 1 0-15.7 7.9 7.9 0 0 1 0 15.7" fill="#fff500A7"/><path d="M21.4 53.5a7.9 7.9 0 1 1 0-15.7 7.9 7.9 0 0 1 0 15.7" fill="#c2e1ffA8"/><path d="M-100.5-255.4a7.9 7.9 0 1 1 0-15.8 7.9 7.9 0 0 1 0 15.8" fill="#005bbbA9"/><path d="M6.7 50.6a8 8 0 1 1 0-15.9 8 8 0 0 1 0 15.9" fill="#fff500AA"/><path d="M296.1-43.2a8 8 0 1 1 0-16 8 8 0 0 1 0 16" fill="#005bbbAA"/><path d="M162.6 62.9a8 8 0 1 1 0-16 8 8 0 0 1 0 16" fill="#fff500AB"/><path d="M-68.2-306.3a8 8 0 1 1 0-16 8 8 0 0 1 0 16" fill="#005bbbAB"/><path d="M271.2-304.4a8.1 8.1 0 1 1 0-16.2 8.1 8.1 0 0 1 0 16.2" fill="#fffAC"/><path d="M-42.5 23.9a8.1 8.1 0 1 1 0-16.2 8.1 8.1 0 0 1 0 16.2" fill="#fffAD"/><path d="M-2.2-360.5a8.2 8.2 0 1 1 0-16.3 8.2 8.2 0 0 1 0 16.3" fill="#fffAF"/><path d="M-110.7-247.1a8.2 8.2 0 1 1 0-16.4 8.2 8.2 0 0 1 0 16.4" fill="#c2e1ffAF"/><path d="M-101.7-42.4a8.2 8.2 0 1 1 0-16.4 8.2 8.2 0 0 1 0 16.4" fill="#fff500AF"/><path d="M329.5-183.8a8.3 8.3 0 1 1 0-16.5 8.3 8.3 0 0 1 0 16.5" fill="#c2e1ffB0"/><path d="M270.5-313.5a8.4 8.4 0 1 1 0-16.8 8.4 8.4 0 0 1 0 16.8" fill="#fff500B4"/><path d="M304.9-40.5a8.5 8.5 0 1 1 0-17 8.5 8.5 0 0 1 0 17" fill="#c2e1ffB5"/><path d="M320.6-233a8.5 8.5 0 1 1 0-16.9 8.5 8.5 0 0 1 0 16.9" fill="#fff500B5"/><path d="M-117.9-240.8a8.5 8.5 0 1 1 0-17 8.5 8.5 0 0 1 0 17" fill="#fff500B6"/><path d="M311.4-51.8a8.5 8.5 0 1 1 0-17.1 8.5 8.5 0 0 1 0 17.1" fill="#fff500B6"/><path d="M157.3 73.8a8.5 8.5 0 1 1 0-17 8.5 8.5 0 0 1 0 17" fill="#c2e1ffB7"/><path d="M330.6-199.5a8.6 8.6 0 1 1 0-17.2 8.6 8.6 0 0 1 0 17.2" fill="#fffB7"/><path d="M-67.4 11.3a8.6 8.6 0 1 1 0-17.2 8.6 8.6 0 0 1 0 17.2" fill="#fff500B7"/><path d="M-73 5.6a8.6 8.6 0 1 1 0-17.2 8.6 8.6 0 0 1 0 17.2" fill="#fff500B8"/><path d="M280-305.5a8.6 8.6 0 1 1 0-17.2 8.6 8.6 0 0 1 0 17.2" fill="#fff500B8"/><path d="M246.5 30.5a8.6 8.6 0 1 1 0-17.2 8.6 8.6 0 0 1 0 17.2" fill="#005bbbB8"/><path d="M245.9-338.9a8.7 8.7 0 1 1 0-17.4 8.7 8.7 0 0 1 0 17.4" fill="#fff500B9"/><path d="M-127-89a8.7 8.7 0 1 1 0-17.5 8.7 8.7 0 0 1 0 17.5" fill="#fff500BB"/><path d="M287.5-10.1a8.8 8.8 0 1 1 0-17.6 8.8 8.8 0 0 1 0 17.6" fill="#c2e1ffBC"/><path d="M-92.3-16.5a8.8 8.8 0 1 1 0-17.6 8.8 8.8 0 0 1 0 17.6" fill="#fffBC"/><path d="M315.7-249.9a8.8 8.8 0 1 1 0-17.7 8.8 8.8 0 0 1 0 17.7" fill="#fff500BD"/><path d="M275.3-312a8.9 8.9 0 1 1 0-17.7 8.9 8.9 0 0 1 0 17.7" fill="#c2e1ffBE"/><path d="M-95.2-20.5a8.9 8.9 0 1 1 0-17.8 8.9 8.9 0 0 1 0 17.8" fill="#fffBE"/><path d="M-136-163.4a8.9 8.9 0 1 1 0-17.9 8.9 8.9 0 0 1 0 17.9" fill="#c2e1ffBF"/><path d="M103.1 82.6a8.9 8.9 0 1 1 0-17.9 8.9 8.9 0 0 1 0 17.9" fill="#005bbbBF"/><path d="M-6 57.4a9 9 0 1 1 0-18 9 9 0 0 1 0 18" fill="#fff500C0"/><path d="M31 72.1a9 9 0 1 1 0-18.1 9 9 0 0 1 0 18.1" fill="#c2e1ffC1"/><path d="M-103.5-34.8a9.1 9.1 0 1 1 0-18.1 9.1 9.1 0 0 1 0 18.1" fill="#fff500C2"/><path d="M250.4-334.7a9.1 9.1 0 1 1 0-18.2 9.1 9.1 0 0 1 0 18.2" fill="#fffC2"/><path d="M-121.6-232.6a9.1 9.1 0 1 1 0-18.2 9.1 9.1 0 0 1 0 18.2" fill="#fffC3"/><path d="M-84-6.7a9.1 9.1 0 1 1 0-18.2 9.1 9.1 0 0 1 0 18.2" fill="#005bbbC3"/><path d="M-111.6-256.1a9.1 9.1 0 1 1 0-18.3 9.1 9.1 0 0 1 0 18.3" fill="#fff500C3"/><path d="M-131.9-191.7a9.2 9.2 0 1 1 0-18.3 9.2 9.2 0 0 1 0 18.3" fill="#005bbbC4"/><path d="M-117.2-63.9a9.2 9.2 0 1 1 0-18.3 9.2 9.2 0 0 1 0 18.3" fill="#fffC4"/><path d="M230.1-348.1a9.2 9.2 0 1 1 0-18.5 9.2 9.2 0 0 1 0 18.5" fill="#005bbbC6"/><path d="M294.7-23.2a9.3 9.3 0 1 1 0-18.5 9.3 9.3 0 0 1 0 18.5" fill="#fff500C6"/><path d="M254 22.9a9.3 9.3 0 1 1 0-18.5 9.3 9.3 0 0 1 0 18.5" fill="#c2e1ffC7"/><path d="M-42.8-338.5a9.3 9.3 0 1 1 0-18.5 9.3 9.3 0 0 1 0 18.5" fill="#fff500C7"/><path d="M47.2 74.5a9.3 9.3 0 1 1 0-18.6 9.3 9.3 0 0 1 0 18.6" fill="#fffC7"/><path d="M311.7-54.3a9.3 9.3 0 1 1 0-18.6 9.3 9.3 0 0 1 0 18.6" fill="#c2e1ffC7"/><path d="M330.4-189.7a9.3 9.3 0 1 1 0-18.6 9.3 9.3 0 0 1 0 18.6" fill="#fffC8"/><path d="M273.6 2.2a9.3 9.3 0 1 1 0-18.7 9.3 9.3 0 0 1 0 18.7" fill="#005bbbC8"/><path d="M171.7-374.7a9.4 9.4 0 1 1 0-18.7 9.4 9.4 0 0 1 0 18.7" fill="#fff500C9"/><path d="M41.5-378.1a9.4 9.4 0 1 1 0-18.8 9.4 9.4 0 0 1 0 18.8" fill="#fffC9"/><path d="M84 78.7a9.4 9.4 0 1 1 0-18.7 9.4 9.4 0 0 1 0 18.7" fill="#fffC9"/><path d="M179.3-370.2a9.5 9.5 0 1 1 0-19 9.5 9.5 0 0 1 0 19" fill="#c2e1ffCB"/><path d="M304.9-259.1a9.5 9.5 0 1 1 0-19 9.5 9.5 0 0 1 0 19" fill="#c2e1ffCB"/><path d="M158.7 69.8a9.5 9.5 0 1 1 0-19.1 9.5 9.5 0 0 1 0 19.1" fill="#005bbbCC"/><path d="M-121.9-213.9a9.5 9.5 0 1 1 0-19.1 9.5 9.5 0 0 1 0 19.1" fill="#fffCC"/><path d="M191.2-361a9.7 9.7 0 1 1 0-19.3 9.7 9.7 0 0 1 0 19.3" fill="#fffCF"/><path d="M258.1 10.4a9.7 9.7 0 1 1 0-19.4 9.7 9.7 0 0 1 0 19.4" fill="#fffCF"/><path d="M-1.1-355.7a9.7 9.7 0 1 1 0-19.4 9.7 9.7 0 0 1 0 19.4" fill="#fff500D0"/><path d="M132.5 69.4a9.8 9.8 0 1 1 0-19.5 9.8 9.8 0 0 1 0 19.5" fill="#fffD2"/><path d="M-87-28.9a9.8 9.8 0 1 1 0-19.6 9.8 9.8 0 0 1 0 19.6" fill="#005bbbD2"/><path d="M68.2 67.6a9.9 9.9 0 1 1 0-19.7 9.9 9.9 0 0 1 0 19.7" fill="#fffD3"/><path d="M315.6-106.5a9.9 9.9 0 1 1 0-19.8 9.9 9.9 0 0 1 0 19.8" fill="#c2e1ffD5"/><path d="M21.9 53.2a9.9 9.9 0 1 1 0-19.9 9.9 9.9 0 0 1 0 19.9" fill="#005bbbD5"/><path d="M-94.6-58.9a10.1 10.1 0 1 1 0-20.1 10.1 10.1 0 0 1 0 20.1" fill="#fffD8"/><path d="M-73.9-275.5a10.1 10.1 0 1 1 0-20.2 10.1 10.1 0 0 1 0 20.2" fill="#fff500DA"/><path d="M239.9 7.5a10.2 10.2 0 1 1 0-20.3 10.2 10.2 0 0 1 0 20.3" fill="#fffDA"/><path d="M286.2-54.5a10.2 10.2 0 1 1 0-20.4 10.2 10.2 0 0 1 0 20.4" fill="#fff500DB"/><path d="M174.7 42.8a10.2 10.2 0 1 1 0-20.4 10.2 10.2 0 0 1 0 20.4" fill="#fffDC"/><path d="M303-116a10.3 10.3 0 1 1 0-20.6 10.3 10.3 0 0 1 0 20.6" fill="#c2e1ffDD"/><path d="M303.7-122.4a10.3 10.3 0 1 1 0-20.6 10.3 10.3 0 0 1 0 20.6" fill="#005bbbDD"/><path d="M82.5 50.2a10.4 10.4 0 1 1 0-20.7 10.4 10.4 0 0 1 0 20.7" fill="#005bbbDF"/><path d="M-77.8-57a10.4 10.4 0 1 1 0-20.8 10.4 10.4 0 0 1 0 20.8" fill="#fffDF"/><path d="M-64.8-36.7a10.4 10.4 0 1 1 0-20.8 10.4 10.4 0 0 1 0 20.8" fill="#fffE0"/><path d="M241.1-9.8a10.4 10.4 0 1 1 0-20.9 10.4 10.4 0 0 1 0 20.9" fill="#c2e1ffE0"/><path d="M214.5 9.9a10.5 10.5 0 1 1 0-20.9 10.5 10.5 0 0 1 0 20.9" fill="#c2e1ffE1"/><path d="M45.1 38.4a10.5 10.5 0 1 1 0-20.9 10.5 10.5 0 0 1 0 20.9" fill="#005bbbE1"/><path d="M296.5-177.1a10.5 10.5 0 1 1 0-20.9 10.5 10.5 0 0 1 0 20.9" fill="#c2e1ffE1"/><path d="M-53.7-41a10.6 10.6 0 1 1 0-21.2 10.6 10.6 0 0 1 0 21.2" fill="#005bbbE4"/><path d="M257.1-51.7a10.7 10.7 0 1 1 0-21.3 10.7 10.7 0 0 1 0 21.3" fill="#c2e1ffE5"/><path d="M202-307.7a10.7 10.7 0 1 1 0-21.4 10.7 10.7 0 0 1 0 21.4" fill="#fffE5"/><path d="M71.8 29.4a10.7 10.7 0 1 1 0-21.4 10.7 10.7 0 0 1 0 21.4" fill="#c2e1ffE6"/><path d="M-52.5-238.6a10.8 10.8 0 1 1 0-21.6 10.8 10.8 0 0 1 0 21.6" fill="#fffE9"/><path d="M268-201.4a10.8 10.8 0 1 1 0-21.7 10.8 10.8 0 0 1 0 21.7" fill="#c2e1ffE9"/><path d="M66.3 15.2a10.9 10.9 0 1 1 0-21.8 10.9 10.9 0 0 1 0 21.8" fill="#c2e1ffEB"/><path d="M265.9-177.6a10.9 10.9 0 1 1 0-21.9 10.9 10.9 0 0 1 0 21.9" fill="#fffEB"/><path d="M105.7-316a11 11 0 1 1 0-22 11 11 0 0 1 0 22" fill="#fffEC"/><path d="M-50-91.8a11 11 0 1 1 0-22.1 11 11 0 0 1 0 22.1" fill="#005bbbED"/><path d="M54.3 2.9a11 11 0 1 1 0-22.1 11 11 0 0 1 0 22.1" fill="#fff500ED"/><path d="M205.2-32.2a11 11 0 1 1 0-22.1 11 11 0 0 1 0 22.1" fill="#fff500EE"/><path d="M-50.8-110.1a11.1 11.1 0 1 1 0-22.1 11.1 11.1 0 0 1 0 22.1" fill="#fffEE"/><path d="M115.3 4.1a11.1 11.1 0 1 1 0-22.1 11.1 11.1 0 0 1 0 22.1" fill="#c2e1ffEE"/><path d="M-49.9-124.5a11.1 11.1 0 1 1 0-22.2 11.1 11.1 0 0 1 0 22.2" fill="#fff500EF"/><path d="M249.2-151.4a11.1 11.1 0 1 1 0-22.2 11.1 11.1 0 0 1 0 22.2" fill="#fffF0"/><path d="M-17-60.7a11.2 11.2 0 1 1 0-22.3 11.2 11.2 0 0 1 0 22.3" fill="#fffF0"/><path d="M225.7-229.1a11.2 11.2 0 1 1 0-22.4 11.2 11.2 0 0 1 0 22.4" fill="#005bbbF0"/><path d="M235.9-111.8a11.2 11.2 0 1 1 0-22.4 11.2 11.2 0 0 1 0 22.4" fill="#005bbbF2"/><path d="M-38.8-131.1a11.2 11.2 0 1 1 0-22.5 11.2 11.2 0 0 1 0 22.5" fill="#fffF2"/><path d="M-24.3-89.4a11.2 11.2 0 1 1 0-22.5 11.2 11.2 0 0 1 0 22.5" fill="#fffF2"/><path d="M122.6-15.8a11.3 11.3 0 1 1 0-22.5 11.3 11.3 0 0 1 0 22.5" fill="#005bbbF2"/><path d="M206.5-74.4a11.3 11.3 0 1 1 0-22.6 11.3 11.3 0 0 1 0 22.6" fill="#005bbbF4"/><path d="M3.2-64.8a11.3 11.3 0 1 1 0-22.6 11.3 11.3 0 0 1 0 22.6" fill="#fff500F4"/><path d="M37.3-38.9a11.3 11.3 0 1 1 0-22.6 11.3 11.3 0 0 1 0 22.6" fill="#c2e1ffF4"/><path d="M42.7-260a11.4 11.4 0 1 1 0-22.8 11.4 11.4 0 0 1 0 22.8" fill="#005bbbF5"/><path d="M-11.6-116.5a11.4 11.4 0 1 1 0-22.9 11.4 11.4 0 0 1 0 22.9" fill="#fffF6"/><path d="M5-97.8a11.5 11.5 0 1 1 0-23 11.5 11.5 0 0 1 0 23" fill="#c2e1ffF7"/><path d="M185.7-89.8a11.5 11.5 0 1 1 0-23 11.5 11.5 0 0 1 0 23" fill="#fffF8"/><path d="M193.3-111.5a11.5 11.5 0 1 1 0-23 11.5 11.5 0 0 1 0 23" fill="#fff500F8"/><path d="M30.6-219.3a11.5 11.5 0 1 1 0-23.1 11.5 11.5 0 0 1 0 23.1" fill="#c2e1ffF9"/><path d="M161.1-214.4a11.6 11.6 0 1 1 0-23.2 11.6 11.6 0 0 1 0 23.2" fill="#fff500FA"/><path d="M183.7-165.1a11.6 11.6 0 1 1 0-23.2 11.6 11.6 0 0 1 0 23.2" fill="#005bbbFA"/><path d="M40-131.3a11.7 11.7 0 1 1 0-23.4 11.7 11.7 0 0 1 0 23.4" fill="#fffFC"/><path d="M115.1-205.6a11.7 11.7 0 1 1 0-23.4 11.7 11.7 0 0 1 0 23.4" fill="#fffFD"/><path d="M144.9-170.6a11.7 11.7 0 1 1 0-23.5 11.7 11.7 0 0 1 0 23.5" fill="#fff500FD"/><path d="M103.1-185.4a11.8 11.8 0 1 1 0-23.6 11.8 11.8 0 0 1 0 23.6" fill="#c2e1ffFE"/></g></svg>