<svg width="1200" height="675" viewBox="-500 -500 1200 675" xmlns="http://www.w3.org/2000/svg"><path d="M-500-500h1200v675h-1200z" fill="#000"/><style>.sparkles path{stroke-linecap:round; stroke-width:1}</style><g class="sparkles"><path d="M100-162.5l-9.7 10.2" stroke="#005bbb32"/><path d="M100-162.5l-0.7 21.9" stroke="#fff32"/><path d="M100-162.5l26 50.2" stroke="#fff33"/><path d="M100-162.5l-35.2-54.9" stroke="#c2e1ff33"/><path d="M100-162.5l55.2 45.6" stroke="#c2e1ff34"/><path d="M100-162.5l-60.5-39.1" stroke="#fff50034"/><path d="M100-162.5l-36-75.4" stroke="#c2e1ff35"/><path d="M100-162.5l49.2-70.8" stroke="#fff35"/><path d="M100-162.5l86.8-29.6" stroke="#005bbb35"/><path d="M100-162.5l-97.7 60.2" stroke="#fff50038"/><path d="M100-162.5l-114.8-17.9" stroke="#005bbb38"/><path d="M100-162.5l50.7 111.4" stroke="#fff50039"/><path d="M100-162.5l79-101.9" stroke="#fff5003A"/><path d="M100-162.5l111.3 71.5" stroke="#005bbb3A"/><path d="M100-162.5l-13.4-140.8" stroke="#005bbb3B"/><path d="M100-162.5l62.7-134.7" stroke="#fff3D"/><path d="M100-162.5l141.4-64.9" stroke="#c2e1ff3E"/><path d="M100-162.5l22 154.4" stroke="#fff3E"/><path d="M100-162.5l-14.2-159.7" stroke="#fff3F"/><path d="M100-162.5l78.2 141.3" stroke="#fff5003F"/><path d="M100-162.5l-117-115.8" stroke="#fff50040"/><path d="M100-162.5l163-45.7" stroke="#c2e1ff41"/><path d="M100-162.5l-171.6-18.2" stroke="#fff50041"/><path d="M100-162.5l-76.8-160.7" stroke="#c2e1ff43"/><path d="M100-162.5l-179.7 5.8" stroke="#fff43"/><path d="M100-162.5l-180.7-10.6" stroke="#005bbb43"/><path d="M100-162.5l-50.4-177.8" stroke="#fff44"/><path d="M100-162.5l-13.4 186.6" stroke="#005bbb45"/><path d="M100-162.5l-148.1-117.1" stroke="#005bbb45"/><path d="M100-162.5l79.3 174.3" stroke="#fff50046"/><path d="M100-162.5l190.8-22.4" stroke="#c2e1ff46"/><path d="M100-162.5l194.4-14.6" stroke="#005bbb47"/><path d="M100-162.5l-121 155" stroke="#fff48"/><path d="M100-162.5l-175.6 91.9" stroke="#c2e1ff48"/><path d="M100-162.5l132.8 147.8" stroke="#005bbb48"/><path d="M100-162.5l-147.9-134.2" stroke="#fff49"/><path d="M100-162.5l-181.5-83.5" stroke="#c2e1ff49"/><path d="M100-162.5l193.3-64.9" stroke="#fff5004A"/><path d="M100-162.5l13.5 205.1" stroke="#fff4B"/><path d="M100-162.5l-88.6-188.5" stroke="#fff4C"/><path d="M100-162.5l124.6-167" stroke="#005bbb4C"/><path d="M100-162.5l-208.1-18.8" stroke="#fff5004C"/><path d="M100-162.5l-95.1-191" stroke="#fff5004E"/><path d="M100-162.5l55.1-206.3" stroke="#fff5004E"/><path d="M100-162.5l-145.3-157.9" stroke="#005bbb4F"/><path d="M100-162.5l119.1-182.5" stroke="#c2e1ff50"/><path d="M100-162.5l207.6-73.6" stroke="#fff51"/><path d="M100-162.5l214.6-52.6" stroke="#fff50052"/><path d="M100-162.5l50.7-215.7" stroke="#fff50052"/><path d="M100-162.5l-148.1 165.6" stroke="#fff50052"/><path d="M100-162.5l69.8-213.7" stroke="#c2e1ff54"/><path d="M100-162.5l222.7-37.7" stroke="#fff55"/><path d="M100-162.5l-226.9 17.3" stroke="#c2e1ff56"/><path d="M100-162.5l116.3 196" stroke="#fff56"/><path d="M100-162.5l19.6 227.4" stroke="#c2e1ff57"/><path d="M100-162.5l-228.5-20.9" stroke="#fff50058"/><path d="M100-162.5l30.6-228.1" stroke="#fff50058"/><path d="M100-162.5l230.3 0" stroke="#c2e1ff58"/><path d="M100-162.5l161.3-166.8" stroke="#c2e1ff5A"/><path d="M100-162.5l221.6-71" stroke="#fff5005B"/><path d="M100-162.5l-1 233.7" stroke="#005bbb5C"/><path d="M100-162.5l99.7 211.5" stroke="#fff5C"/><path d="M100-162.5l-185.7 144.4" stroke="#fff5005F"/><path d="M100-162.5l216 93.4" stroke="#005bbb5F"/><path d="M100-162.5l-148.1 183.3" stroke="#fff60"/><path d="M100-162.5l-161.8-171.5" stroke="#c2e1ff60"/><path d="M100-162.5l-29.7-233.9" stroke="#c2e1ff60"/><path d="M100-162.5l159.2 174" stroke="#005bbb61"/><path d="M100-162.5l-232.8-38" stroke="#fff50061"/><path d="M100-162.5l97.6 214.7" stroke="#c2e1ff61"/><path d="M100-162.5l75.2-223.7" stroke="#fff50061"/><path d="M100-162.5l-200.4-124.8" stroke="#005bbb61"/><path d="M100-162.5l85.1 220.2" stroke="#fff50062"/><path d="M100-162.5l-235.9-9.5" stroke="#c2e1ff62"/><path d="M100-162.5l-52.5 230.3" stroke="#fff50062"/><path d="M100-162.5l-201.3-123.6" stroke="#fff50063"/><path d="M100-162.5l217 93.4" stroke="#005bbb64"/><path d="M100-162.5l-232.7-40.7" stroke="#005bbb64"/><path d="M100-162.5l233.8-33.6" stroke="#c2e1ff64"/><path d="M100-162.5l-15.8-235.7" stroke="#fff50065"/><path d="M100-162.5l89.2 218.4" stroke="#005bbb66"/><path d="M100-162.5l126-199.3" stroke="#005bbb67"/><path d="M100-162.5l-152.3 179.8" stroke="#c2e1ff67"/><path d="M100-162.5l96 214.8" stroke="#fff68"/><path d="M100-162.5l-182.6 148.4" stroke="#c2e1ff68"/><path d="M100-162.5l-26.2 233.2" stroke="#c2e1ff69"/><path d="M100-162.5l-190.8-136.7" stroke="#fff50069"/><path d="M100-162.5l145.9 183.8" stroke="#fff50069"/><path d="M100-162.5l57.7 226.9" stroke="#005bbb6A"/><path d="M100-162.5l233.5 16.8" stroke="#fff6A"/><path d="M100-162.5l-230.1 41.6" stroke="#fff5006B"/><path d="M100-162.5l-232.5-20.5" stroke="#fff6B"/><path d="M100-162.5l145.1-182.5" stroke="#005bbb6C"/><path d="M100-162.5l-152.4-175.4" stroke="#005bbb6D"/><path d="M100-162.5l-209.2 101.1" stroke="#fff5006D"/><path d="M100-162.5l226-53" stroke="#fff5006D"/><path d="M100-162.5l-20.3 231.2" stroke="#c2e1ff6D"/><path d="M100-162.5l213.8 90.1" stroke="#fff5006D"/><path d="M100-162.5l-228 42.1" stroke="#005bbb6D"/><path d="M100-162.5l215.5 85.2" stroke="#fff5006D"/><path d="M100-162.5l227.3 42.7" stroke="#fff5006E"/><path d="M100-162.5l227.8-19.6" stroke="#fff50070"/><path d="M100-162.5l-76.8-215.1" stroke="#c2e1ff70"/><path d="M100-162.5l38.2 225.2" stroke="#fff50070"/><path d="M100-162.5l-209.2 88.1" stroke="#005bbb71"/><path d="M100-162.5l-214.5-68.6" stroke="#005bbb73"/><path d="M100-162.5l-103.2 200.1" stroke="#005bbb73"/><path d="M100-162.5l59.9-216.2" stroke="#c2e1ff73"/><path d="M100-162.5l-22.6-221.6" stroke="#fff50074"/><path d="M100-162.5l-185.6 122.3" stroke="#fff74"/><path d="M100-162.5l-44.8 217" stroke="#fff50075"/><path d="M100-162.5l220.4 21.5" stroke="#fff50075"/><path d="M100-162.5l-220.8-1.1" stroke="#fff75"/><path d="M100-162.5l-68.9-209.7" stroke="#fff50075"/><path d="M100-162.5l33.8 217.4" stroke="#c2e1ff76"/><path d="M100-162.5l189 112.7" stroke="#fff76"/><path d="M100-162.5l-175-133" stroke="#fff76"/><path d="M100-162.5l-112.6-186" stroke="#fff77"/><path d="M100-162.5l-213.8-32.8" stroke="#fff78"/><path d="M100-162.5l53.5-206.2" stroke="#c2e1ff79"/><path d="M100-162.5l-60.2 204.3" stroke="#fff79"/><path d="M100-162.5l148.9-151.6" stroke="#005bbb79"/><path d="M100-162.5l-25.7 210.3" stroke="#005bbb7A"/><path d="M100-162.5l-189.3-90.1" stroke="#fff7B"/><path d="M100-162.5l33.7 205.7" stroke="#005bbb7B"/><path d="M100-162.5l-207.9 11.9" stroke="#c2e1ff7B"/><path d="M100-162.5l-187.8 88.9" stroke="#c2e1ff7B"/><path d="M100-162.5l-47.2-200.7" stroke="#fff7C"/><path d="M100-162.5l145.8-145.7" stroke="#fff5007C"/><path d="M100-162.5l-120.1 167.2" stroke="#005bbb7C"/><path d="M100-162.5l-40.2 201.5" stroke="#fff7C"/><path d="M100-162.5l115.9-168.3" stroke="#fff7D"/><path d="M100-162.5l64.4-192.3" stroke="#fff7D"/><path d="M100-162.5l164.7-116.5" stroke="#fff7E"/><path d="M100-162.5l67 189.8" stroke="#c2e1ff7E"/><path d="M100-162.5l-174.5 95.4" stroke="#c2e1ff7E"/><path d="M100-162.5l-161.3-115.6" stroke="#005bbb7F"/><path d="M100-162.5l129.5 149.8" stroke="#fff7F"/><path d="M100-162.5l184-50.8" stroke="#c2e1ff81"/><path d="M100-162.5l-56.8-178.8" stroke="#fff50082"/><path d="M100-162.5l17.4 186.6" stroke="#fff50082"/><path d="M100-162.5l-160.7 91.2" stroke="#fff83"/><path d="M100-162.5l-116.8 142.7" stroke="#fff50083"/><path d="M100-162.5l-13 182.8" stroke="#005bbb83"/><path d="M100-162.5l162.4-79.3" stroke="#fff50084"/><path d="M100-162.5l119.7 134.4" stroke="#c2e1ff84"/><path d="M100-162.5l109.3-140.8" stroke="#fff84"/><path d="M100-162.5l137.7 112.5" stroke="#fff50084"/><path d="M100-162.5l-134.4 105.8" stroke="#fff86"/><path d="M100-162.5l150.7-72.8" stroke="#c2e1ff87"/><path d="M100-162.5l-125.7-110" stroke="#fff50087"/><path d="M100-162.5l-49.6 158.3" stroke="#fff87"/><path d="M100-162.5l1.5-164.3" stroke="#fff87"/><path d="M100-162.5l-147.1-56.2" stroke="#fff50089"/><path d="M100-162.5l-153.2 36.1" stroke="#fff89"/><path d="M100-162.5l-20-155.1" stroke="#fff50089"/><path d="M100-162.5l-119.3 99.5" stroke="#fff89"/><path d="M100-162.5l29.4 151.1" stroke="#fff50089"/><path d="M100-162.5l105.7 102" stroke="#fff8B"/><path d="M100-162.5l-11.7-144.9" stroke="#005bbb8B"/><path d="M100-162.5l-49.8 136.1" stroke="#fff8B"/><path d="M100-162.5l-71.2 119.4" stroke="#c2e1ff8C"/><path d="M100-162.5l10.7 137.2" stroke="#fff5008C"/><path d="M100-162.5l95.7-94.4" stroke="#fff8D"/><path d="M100-162.5l38.7 127.2" stroke="#fff8D"/><path d="M100-162.5l70.8 106" stroke="#c2e1ff8E"/><path d="M100-162.5l127.1-9.6" stroke="#c2e1ff8E"/><path d="M100-162.5l34.7-115.6" stroke="#fff8E"/><path d="M100-162.5l-43.5 111.5" stroke="#fff8F"/><path d="M100-162.5l55.8 97.1" stroke="#005bbb90"/><path d="M100-162.5l-31.7 105.3" stroke="#fff50090"/><path d="M100-162.5l97.2-48.3" stroke="#005bbb90"/><path d="M100-162.5l-4.4 102" stroke="#c2e1ff91"/><path d="M100-162.5l-99.3 17.6" stroke="#005bbb91"/><path d="M100-162.5l-56.2-69.3" stroke="#fff92"/><path d="M100-162.5l-77.9 23.1" stroke="#fff50092"/><path d="M100-162.5l61.8 34.5" stroke="#fff93"/><path d="M100-162.5l40-16.7" stroke="#fff50095"/><path d="M100-162.5l3-28" stroke="#c2e1ff95"/><path d="M100-162.5l-19.9-18.8" stroke="#c2e1ff95"/><path d="M100-162.5l-16.4-9.2" stroke="#fff50095"/></g><g class="sparcs"><path d="M90.3-146.4a5.9 5.9 0 1 1 0-11.8 5.9 5.9 0 0 1 0 11.8" fill="#fff7D"/><path d="M99.3-134.7a5.9 5.9 0 1 1 0-11.9 5.9 5.9 0 0 1 0 11.9" fill="#c2e1ff7D"/><path d="M126-106.3a6 6 0 1 1 0-11.9 6 6 0 0 1 0 11.9" fill="#fff5007E"/><path d="M64.8-211.4a6 6 0 1 1 0-12 6 6 0 0 1 0 12" fill="#fff5007F"/><path d="M155.2-110.9a6 6 0 1 1 0-12 6 6 0 0 1 0 12" fill="#fff80"/><path d="M39.5-195.5a6 6 0 1 1 0-12.1 6 6 0 0 1 0 12.1" fill="#c2e1ff80"/><path d="M64-231.8a6.1 6.1 0 1 1 0-12.2 6.1 6.1 0 0 1 0 12.2" fill="#c2e1ff81"/><path d="M149.2-227.2a6.1 6.1 0 1 1 0-12.2 6.1 6.1 0 0 1 0 12.2" fill="#005bbb81"/><path d="M186.8-186a6.1 6.1 0 1 1 0-12.3 6.1 6.1 0 0 1 0 12.3" fill="#005bbb82"/><path d="M2.3-96.1a6.3 6.3 0 1 1 0-12.5 6.3 6.3 0 0 1 0 12.5" fill="#fff50085"/><path d="M-14.8-174.1a6.3 6.3 0 1 1 0-12.6 6.3 6.3 0 0 1 0 12.6" fill="#fff85"/><path d="M150.7-44.8a6.3 6.3 0 1 1 0-12.6 6.3 6.3 0 0 1 0 12.6" fill="#fff86"/><path d="M179-258a6.4 6.4 0 1 1 0-12.8 6.4 6.4 0 0 1 0 12.8" fill="#c2e1ff87"/><path d="M211.3-84.6a6.4 6.4 0 1 1 0-12.8 6.4 6.4 0 0 1 0 12.8" fill="#c2e1ff88"/><path d="M86.6-296.8a6.5 6.5 0 1 1 0-13 6.5 6.5 0 0 1 0 13" fill="#fff50089"/><path d="M162.7-290.7a6.6 6.6 0 1 1 0-13.1 6.6 6.6 0 0 1 0 13.1" fill="#fff8B"/><path d="M241.4-220.8a6.6 6.6 0 1 1 0-13.3 6.6 6.6 0 0 1 0 13.3" fill="#c2e1ff8D"/><path d="M122-1.5a6.6 6.6 0 1 1 0-13.3 6.6 6.6 0 0 1 0 13.3" fill="#fff8D"/><path d="M85.8-315.5a6.7 6.7 0 1 1 0-13.4 6.7 6.7 0 0 1 0 13.4" fill="#c2e1ff8E"/><path d="M178.2-14.5a6.7 6.7 0 1 1 0-13.4 6.7 6.7 0 0 1 0 13.4" fill="#fff8E"/><path d="M-17-271.6a6.7 6.7 0 1 1 0-13.5 6.7 6.7 0 0 1 0 13.5" fill="#fff5008F"/><path d="M263-201.4a6.8 6.8 0 1 1 0-13.6 6.8 6.8 0 0 1 0 13.6" fill="#c2e1ff90"/><path d="M-71.6-173.9a6.8 6.8 0 1 1 0-13.7 6.8 6.8 0 0 1 0 13.7" fill="#fff91"/><path d="M23.2-316.3a6.9 6.9 0 1 1 0-13.8 6.9 6.9 0 0 1 0 13.8" fill="#fff50093"/><path d="M-79.7-149.8a6.9 6.9 0 1 1 0-13.8 6.9 6.9 0 0 1 0 13.8" fill="#005bbb93"/><path d="M-80.7-166.2a7 7 0 1 1 0-13.9 7 7 0 0 1 0 13.9" fill="#fff50094"/><path d="M49.6-333.3a7 7 0 1 1 0-14.1 7 7 0 0 1 0 14.1" fill="#fff95"/><path d="M86.6 31.1a7.1 7.1 0 1 1 0-14.1 7.1 7.1 0 0 1 0 14.1" fill="#fff96"/><path d="M-48.1-272.5a7.1 7.1 0 1 1 0-14.2 7.1 7.1 0 0 1 0 14.2" fill="#fff50096"/><path d="M179.3 18.9a7.1 7.1 0 1 1 0-14.3 7.1 7.1 0 0 1 0 14.3" fill="#fff97"/><path d="M290.8-177.7a7.1 7.1 0 1 1 0-14.3 7.1 7.1 0 0 1 0 14.3" fill="#005bbb98"/><path d="M294.4-169.9a7.2 7.2 0 1 1 0-14.4 7.2 7.2 0 0 1 0 14.4" fill="#fff50099"/><path d="M-21-0.3a7.2 7.2 0 1 1 0-14.5 7.2 7.2 0 0 1 0 14.5" fill="#fff99"/><path d="M-75.6-63.4a7.3 7.3 0 1 1 0-14.5 7.3 7.3 0 0 1 0 14.5" fill="#fff9A"/><path d="M232.8-7.5a7.3 7.3 0 1 1 0-14.5 7.3 7.3 0 0 1 0 14.5" fill="#fff5009A"/><path d="M-47.9-289.4a7.3 7.3 0 1 1 0-14.6 7.3 7.3 0 0 1 0 14.6" fill="#c2e1ff9B"/><path d="M-81.5-238.7a7.3 7.3 0 1 1 0-14.6 7.3 7.3 0 0 1 0 14.6" fill="#fff5009B"/><path d="M293.3-220a7.4 7.4 0 1 1 0-14.8 7.4 7.4 0 0 1 0 14.8" fill="#c2e1ff9D"/><path d="M113.5 50a7.4 7.4 0 1 1 0-14.8 7.4 7.4 0 0 1 0 14.8" fill="#fff5009D"/><path d="M11.4-343.6a7.5 7.5 0 1 1 0-14.9 7.5 7.5 0 0 1 0 14.9" fill="#005bbb9F"/><path d="M224.6-322a7.5 7.5 0 1 1 0-15 7.5 7.5 0 0 1 0 15" fill="#fff9F"/><path d="M-108.1-173.8a7.5 7.5 0 1 1 0-15 7.5 7.5 0 0 1 0 15" fill="#c2e1ff9F"/><path d="M4.9-345.9a7.6 7.6 0 1 1 0-15.2 7.6 7.6 0 0 1 0 15.2" fill="#c2e1ffA2"/><path d="M155.1-361.2a7.6 7.6 0 1 1 0-15.2 7.6 7.6 0 0 1 0 15.2" fill="#fffA2"/><path d="M-45.3-312.8a7.6 7.6 0 1 1 0-15.3 7.6 7.6 0 0 1 0 15.3" fill="#005bbbA2"/><path d="M219.1-337.3a7.7 7.7 0 1 1 0-15.4 7.7 7.7 0 0 1 0 15.4" fill="#c2e1ffA4"/><path d="M307.6-228.3a7.8 7.8 0 1 1 0-15.6 7.8 7.8 0 0 1 0 15.6" fill="#fffA6"/><path d="M314.6-207.2a7.8 7.8 0 1 1 0-15.7 7.8 7.8 0 0 1 0 15.7" fill="#fff500A6"/><path d="M150.7-370.4a7.8 7.8 0 1 1 0-15.6 7.8 7.8 0 0 1 0 15.6" fill="#fffA7"/><path d="M-48.1 11a7.9 7.9 0 1 1 0-15.7 7.9 7.9 0 0 1 0 15.7" fill="#fffA7"/><path d="M169.8-368.2a8 8 0 1 1 0-15.9 8 8 0 0 1 0 15.9" fill="#c2e1ffAA"/><path d="M322.7-192.2a8 8 0 1 1 0-16 8 8 0 0 1 0 16" fill="#005bbbAA"/><path d="M-126.9-137.2a8.1 8.1 0 1 1 0-16.1 8.1 8.1 0 0 1 0 16.1" fill="#fffAC"/><path d="M216.3 41.6a8.1 8.1 0 1 1 0-16.2 8.1 8.1 0 0 1 0 16.2" fill="#fff500AC"/><path d="M119.6 73a8.1 8.1 0 1 1 0-16.2 8.1 8.1 0 0 1 0 16.2" fill="#c2e1ffAD"/><path d="M-128.5-175.3a8.2 8.2 0 1 1 0-16.3 8.2 8.2 0 0 1 0 16.3" fill="#fff500AE"/><path d="M130.6-382.4a8.2 8.2 0 1 1 0-16.4 8.2 8.2 0 0 1 0 16.4" fill="#fffAF"/><path d="M330.3-154.3a8.2 8.2 0 1 1 0-16.4 8.2 8.2 0 0 1 0 16.4" fill="#005bbbAF"/><path d="M261.3-321a8.3 8.3 0 1 1 0-16.6 8.3 8.3 0 0 1 0 16.6" fill="#005bbbB1"/><path d="M321.6-225.2a8.4 8.4 0 1 1 0-16.7 8.4 8.4 0 0 1 0 16.7" fill="#005bbbB2"/><path d="M99 79.7a8.4 8.4 0 1 1 0-16.9 8.4 8.4 0 0 1 0 16.9" fill="#005bbbB4"/><path d="M199.7 57.4a8.4 8.4 0 1 1 0-16.8 8.4 8.4 0 0 1 0 16.8" fill="#fffB4"/><path d="M-85.7-9.5a8.6 8.6 0 1 1 0-17.2 8.6 8.6 0 0 1 0 17.2" fill="#fffB7"/><path d="M316-60.5a8.6 8.6 0 1 1 0-17.2 8.6 8.6 0 0 1 0 17.2" fill="#c2e1ffB8"/><path d="M-48.1 29.4a8.6 8.6 0 1 1 0-17.3 8.6 8.6 0 0 1 0 17.3" fill="#005bbbB9"/><path d="M-61.8-325.3a8.7 8.7 0 1 1 0-17.3 8.7 8.7 0 0 1 0 17.3" fill="#fff500B9"/><path d="M70.3-387.7a8.7 8.7 0 1 1 0-17.4 8.7 8.7 0 0 1 0 17.4" fill="#fffB9"/><path d="M259.2 20.2a8.7 8.7 0 1 1 0-17.4 8.7 8.7 0 0 1 0 17.4" fill="#fffBA"/><path d="M-132.8-191.8a8.7 8.7 0 1 1 0-17.4 8.7 8.7 0 0 1 0 17.4" fill="#005bbbBA"/><path d="M197.6 60.9a8.7 8.7 0 1 1 0-17.4 8.7 8.7 0 0 1 0 17.4" fill="#fff500BA"/><path d="M175.2-377.5a8.7 8.7 0 1 1 0-17.4 8.7 8.7 0 0 1 0 17.4" fill="#c2e1ffBA"/><path d="M-100.4-278.5a8.7 8.7 0 1 1 0-17.5 8.7 8.7 0 0 1 0 17.5" fill="#c2e1ffBB"/><path d="M185.1 66.5a8.7 8.7 0 1 1 0-17.5 8.7 8.7 0 0 1 0 17.5" fill="#fff500BB"/><path d="M-135.9-163.3a8.8 8.8 0 1 1 0-17.5 8.8 8.8 0 0 1 0 17.5" fill="#c2e1ffBB"/><path d="M47.5 76.6a8.8 8.8 0 1 1 0-17.6 8.8 8.8 0 0 1 0 17.6" fill="#c2e1ffBC"/><path d="M-101.3-277.3a8.8 8.8 0 1 1 0-17.7 8.8 8.8 0 0 1 0 17.7" fill="#005bbbBD"/><path d="M317-60.2a8.9 8.9 0 1 1 0-17.8 8.9 8.9 0 0 1 0 17.8" fill="#fffBE"/><path d="M-132.7-194.3a8.9 8.9 0 1 1 0-17.8 8.9 8.9 0 0 1 0 17.8" fill="#fffBE"/><path d="M333.8-187.2a8.9 8.9 0 1 1 0-17.8 8.9 8.9 0 0 1 0 17.8" fill="#fff500BE"/><path d="M84.2-389.2a8.9 8.9 0 1 1 0-17.9 8.9 8.9 0 0 1 0 17.9" fill="#005bbbBF"/><path d="M189.2 64.9a9 9 0 1 1 0-18 9 9 0 0 1 0 18" fill="#fffC1"/><path d="M226-352.7a9 9 0 1 1 0-18.1 9 9 0 0 1 0 18.1" fill="#c2e1ffC2"/><path d="M-52.3 26.4a9.1 9.1 0 1 1 0-18.1 9.1 9.1 0 0 1 0 18.1" fill="#fff500C2"/><path d="M196 61.5a9.1 9.1 0 1 1 0-18.3 9.1 9.1 0 0 1 0 18.3" fill="#c2e1ffC3"/><path d="M-82.6-5a9.1 9.1 0 1 1 0-18.2 9.1 9.1 0 0 1 0 18.2" fill="#fffC3"/><path d="M73.8 79.9a9.2 9.2 0 1 1 0-18.4 9.2 9.2 0 0 1 0 18.4" fill="#fff500C5"/><path d="M-90.8-290a9.2 9.2 0 1 1 0-18.4 9.2 9.2 0 0 1 0 18.4" fill="#c2e1ffC5"/><path d="M245.9 30.5a9.2 9.2 0 1 1 0-18.4 9.2 9.2 0 0 1 0 18.4" fill="#005bbbC5"/><path d="M157.7 73.7a9.3 9.3 0 1 1 0-18.5 9.3 9.3 0 0 1 0 18.5" fill="#fff500C6"/><path d="M333.5-136.5a9.3 9.3 0 1 1 0-18.5 9.3 9.3 0 0 1 0 18.5" fill="#005bbbC6"/><path d="M-130.1-111.6a9.3 9.3 0 1 1 0-18.6 9.3 9.3 0 0 1 0 18.6" fill="#005bbbC7"/><path d="M-132.5-173.7a9.3 9.3 0 1 1 0-18.6 9.3 9.3 0 0 1 0 18.6" fill="#c2e1ffC8"/><path d="M245.1-335.7a9.3 9.3 0 1 1 0-18.6 9.3 9.3 0 0 1 0 18.6" fill="#fffC8"/><path d="M-52.4-328.5a9.4 9.4 0 1 1 0-18.8 9.4 9.4 0 0 1 0 18.8" fill="#fffC9"/><path d="M-109.2-52a9.4 9.4 0 1 1 0-18.8 9.4 9.4 0 0 1 0 18.8" fill="#fff500C9"/><path d="M326-206.1a9.4 9.4 0 1 1 0-18.8 9.4 9.4 0 0 1 0 18.8" fill="#005bbbCA"/><path d="M79.7 78.1a9.4 9.4 0 1 1 0-18.8 9.4 9.4 0 0 1 0 18.8" fill="#fff500CA"/><path d="M313.8-63a9.4 9.4 0 1 1 0-18.8 9.4 9.4 0 0 1 0 18.8" fill="#c2e1ffCA"/><path d="M-128-110.9a9.4 9.4 0 1 1 0-18.9 9.4 9.4 0 0 1 0 18.9" fill="#fff500CA"/><path d="M315.5-67.9a9.4 9.4 0 1 1 0-18.8 9.4 9.4 0 0 1 0 18.8" fill="#c2e1ffCA"/><path d="M327.3-110.3a9.5 9.5 0 1 1 0-18.9 9.5 9.5 0 0 1 0 18.9" fill="#fff500CB"/><path d="M327.8-172.5a9.6 9.6 0 1 1 0-19.2 9.6 9.6 0 0 1 0 19.2" fill="#c2e1ffCE"/><path d="M23.2-368a9.6 9.6 0 1 1 0-19.2 9.6 9.6 0 0 1 0 19.2" fill="#005bbbCE"/><path d="M138.2 72.3a9.6 9.6 0 1 1 0-19.2 9.6 9.6 0 0 1 0 19.2" fill="#fff500CE"/><path d="M-109.2-64.7a9.7 9.7 0 1 1 0-19.3 9.7 9.7 0 0 1 0 19.3" fill="#fff500CF"/><path d="M-114.5-221.4a9.8 9.8 0 1 1 0-19.5 9.8 9.8 0 0 1 0 19.5" fill="#c2e1ffD1"/><path d="M-3.2 47.4a9.8 9.8 0 1 1 0-19.5 9.8 9.8 0 0 1 0 19.5" fill="#fffD1"/><path d="M159.9-369a9.8 9.8 0 1 1 0-19.5 9.8 9.8 0 0 1 0 19.5" fill="#fffD2"/><path d="M77.4-374.3a9.8 9.8 0 1 1 0-19.7 9.8 9.8 0 0 1 0 19.7" fill="#fff500D3"/><path d="M-85.6-30.4a9.9 9.9 0 1 1 0-19.7 9.9 9.9 0 0 1 0 19.7" fill="#fff500D4"/><path d="M55.2 64.3a9.9 9.9 0 1 1 0-19.7 9.9 9.9 0 0 1 0 19.7" fill="#fffD4"/><path d="M320.4-131.1a9.9 9.9 0 1 1 0-19.8 9.9 9.9 0 0 1 0 19.8" fill="#c2e1ffD4"/><path d="M-120.8-153.7a9.9 9.9 0 1 1 0-19.8 9.9 9.9 0 0 1 0 19.8" fill="#fff500D5"/><path d="M31.1-362.3a9.9 9.9 0 1 1 0-19.8 9.9 9.9 0 0 1 0 19.8" fill="#005bbbD5"/><path d="M133.8 64.9a9.9 9.9 0 1 1 0-19.9 9.9 9.9 0 0 1 0 19.9" fill="#005bbbD5"/><path d="M289-39.9a9.9 9.9 0 1 1 0-19.9 9.9 9.9 0 0 1 0 19.9" fill="#c2e1ffD5"/><path d="M-75-285.5a9.9 9.9 0 1 1 0-19.9 9.9 9.9 0 0 1 0 19.9" fill="#005bbbD5"/><path d="M-12.6-338.5a10 10 0 1 1 0-20 10 10 0 0 1 0 20" fill="#c2e1ffD7"/><path d="M-113.8-185.3a10 10 0 1 1 0-20.1 10 10 0 0 1 0 20.1" fill="#c2e1ffD8"/><path d="M153.5-358.6a10.1 10.1 0 1 1 0-20.3 10.1 10.1 0 0 1 0 20.3" fill="#c2e1ffDA"/><path d="M39.8 51.9a10.1 10.1 0 1 1 0-20.3 10.1 10.1 0 0 1 0 20.3" fill="#c2e1ffDA"/><path d="M248.9-304a10.1 10.1 0 1 1 0-20.3 10.1 10.1 0 0 1 0 20.3" fill="#fffDA"/><path d="M74.3 58a10.2 10.2 0 1 1 0-20.3 10.2 10.2 0 0 1 0 20.3" fill="#005bbbDA"/><path d="M-89.3-242.4a10.2 10.2 0 1 1 0-20.4 10.2 10.2 0 0 1 0 20.4" fill="#fff500DB"/><path d="M133.7 53.4a10.3 10.3 0 1 1 0-20.5 10.3 10.3 0 0 1 0 20.5" fill="#fff500DC"/><path d="M-107.9-140.3a10.3 10.3 0 1 1 0-20.5 10.3 10.3 0 0 1 0 20.5" fill="#fff500DC"/><path d="M-87.8-63.3a10.3 10.3 0 1 1 0-20.5 10.3 10.3 0 0 1 0 20.5" fill="#fff500DC"/><path d="M52.8-352.9a10.3 10.3 0 1 1 0-20.6 10.3 10.3 0 0 1 0 20.6" fill="#fffDD"/><path d="M245.8-297.9a10.3 10.3 0 1 1 0-20.6 10.3 10.3 0 0 1 0 20.6" fill="#fffDD"/><path d="M-20.1 15a10.3 10.3 0 1 1 0-20.6 10.3 10.3 0 0 1 0 20.6" fill="#fff500DD"/><path d="M59.8 49.3a10.3 10.3 0 1 1 0-20.6 10.3 10.3 0 0 1 0 20.6" fill="#fff500DE"/><path d="M215.9-320.5a10.3 10.3 0 1 1 0-20.7 10.3 10.3 0 0 1 0 20.7" fill="#fff500DE"/><path d="M164.4-344.4a10.4 10.4 0 1 1 0-20.7 10.4 10.4 0 0 1 0 20.7" fill="#c2e1ffDF"/><path d="M264.7-268.6a10.4 10.4 0 1 1 0-20.8 10.4 10.4 0 0 1 0 20.8" fill="#005bbbDF"/><path d="M167 37.7a10.4 10.4 0 1 1 0-20.8 10.4 10.4 0 0 1 0 20.8" fill="#fff500E0"/><path d="M-74.5-56.6a10.5 10.5 0 1 1 0-20.9 10.5 10.5 0 0 1 0 20.9" fill="#005bbbE1"/><path d="M-61.3-267.6a10.5 10.5 0 1 1 0-21 10.5 10.5 0 0 1 0 21" fill="#fff500E1"/><path d="M229.5-2.2a10.5 10.5 0 1 1 0-20.9 10.5 10.5 0 0 1 0 20.9" fill="#c2e1ffE1"/><path d="M284-202.7a10.6 10.6 0 1 1 0-21.2 10.6 10.6 0 0 1 0 21.2" fill="#fff500E4"/><path d="M43.2-330.7a10.7 10.7 0 1 1 0-21.3 10.7 10.7 0 0 1 0 21.3" fill="#c2e1ffE5"/><path d="M117.4 34.8a10.7 10.7 0 1 1 0-21.3 10.7 10.7 0 0 1 0 21.3" fill="#005bbbE5"/><path d="M-60.7-60.6a10.7 10.7 0 1 1 0-21.4 10.7 10.7 0 0 1 0 21.4" fill="#fffE6"/><path d="M-16.8-9.1a10.7 10.7 0 1 1 0-21.4 10.7 10.7 0 0 1 0 21.4" fill="#c2e1ffE6"/><path d="M87 31a10.7 10.7 0 1 1 0-21.4 10.7 10.7 0 0 1 0 21.4" fill="#005bbbE7"/><path d="M262.4-231a10.8 10.8 0 1 1 0-21.5 10.8 10.8 0 0 1 0 21.5" fill="#fffE7"/><path d="M219.7-17.4a10.8 10.8 0 1 1 0-21.5 10.8 10.8 0 0 1 0 21.5" fill="#c2e1ffE8"/><path d="M209.3-292.5a10.8 10.8 0 1 1 0-21.6 10.8 10.8 0 0 1 0 21.6" fill="#005bbbE8"/><path d="M237.7-39.2a10.8 10.8 0 1 1 0-21.6 10.8 10.8 0 0 1 0 21.6" fill="#fffE8"/><path d="M-34.4-45.8a10.9 10.9 0 1 1 0-21.8 10.9 10.9 0 0 1 0 21.8" fill="#fffEA"/><path d="M250.7-224.3a10.9 10.9 0 1 1 0-21.9 10.9 10.9 0 0 1 0 21.9" fill="#fff500EB"/><path d="M-25.7-261.6a10.9 10.9 0 1 1 0-21.9 10.9 10.9 0 0 1 0 21.9" fill="#fff500EB"/><path d="M50.4 6.8a11 11 0 1 1 0-21.9 11 11 0 0 1 0 21.9" fill="#c2e1ffEC"/><path d="M101.5-315.9a11 11 0 1 1 0-21.9 11 11 0 0 1 0 21.9" fill="#c2e1ffEC"/><path d="M-47.1-207.7a11.1 11.1 0 1 1 0-22.1 11.1 11.1 0 0 1 0 22.1" fill="#005bbbEE"/><path d="M-53.2-115.3a11.1 11.1 0 1 1 0-22.2 11.1 11.1 0 0 1 0 22.2" fill="#fff500EE"/><path d="M80-306.5a11.1 11.1 0 1 1 0-22.2 11.1 11.1 0 0 1 0 22.2" fill="#fff500EE"/><path d="M-19.3-51.9a11.1 11.1 0 1 1 0-22.2 11.1 11.1 0 0 1 0 22.2" fill="#005bbbEE"/><path d="M129.4-0.3a11.1 11.1 0 1 1 0-22.2 11.1 11.1 0 0 1 0 22.2" fill="#c2e1ffEF"/><path d="M205.7-49.3a11.2 11.2 0 1 1 0-22.4 11.2 11.2 0 0 1 0 22.4" fill="#005bbbF0"/><path d="M88.3-296.2a11.2 11.2 0 1 1 0-22.4 11.2 11.2 0 0 1 0 22.4" fill="#005bbbF1"/><path d="M50.2-15.2a11.2 11.2 0 1 1 0-22.4 11.2 11.2 0 0 1 0 22.4" fill="#fff500F1"/><path d="M28.8-31.8a11.2 11.2 0 1 1 0-22.5 11.2 11.2 0 0 1 0 22.5" fill="#c2e1ffF2"/><path d="M110.7-14a11.3 11.3 0 1 1 0-22.6 11.3 11.3 0 0 1 0 22.6" fill="#fffF2"/><path d="M195.7-245.7a11.3 11.3 0 1 1 0-22.5 11.3 11.3 0 0 1 0 22.5" fill="#fffF3"/><path d="M138.7-24a11.3 11.3 0 1 1 0-22.6 11.3 11.3 0 0 1 0 22.6" fill="#fffF3"/><path d="M170.8-45.1a11.3 11.3 0 1 1 0-22.7 11.3 11.3 0 0 1 0 22.7" fill="#c2e1ffF4"/><path d="M227.1-160.7a11.3 11.3 0 1 1 0-22.7 11.3 11.3 0 0 1 0 22.7" fill="#005bbbF4"/><path d="M134.7-266.7a11.4 11.4 0 1 1 0-22.8 11.4 11.4 0 0 1 0 22.8" fill="#005bbbF5"/><path d="M56.5-39.6a11.4 11.4 0 1 1 0-22.8 11.4 11.4 0 0 1 0 22.8" fill="#c2e1ffF6"/><path d="M155.8-53.9a11.5 11.5 0 1 1 0-23 11.5 11.5 0 0 1 0 23" fill="#fff500F7"/><path d="M68.3-45.8a11.5 11.5 0 1 1 0-22.9 11.5 11.5 0 0 1 0 22.9" fill="#005bbbF7"/><path d="M197.2-199.3a11.5 11.5 0 1 1 0-23 11.5 11.5 0 0 1 0 23" fill="#005bbbF7"/><path d="M95.6-49a11.5 11.5 0 1 1 0-23.1 11.5 11.5 0 0 1 0 23.1" fill="#c2e1ffF8"/><path d="M0.7-133.4a11.5 11.5 0 1 1 0-23.1 11.5 11.5 0 0 1 0 23.1" fill="#005bbbF8"/><path d="M43.8-220.2a11.6 11.6 0 1 1 0-23.2 11.6 11.6 0 0 1 0 23.2" fill="#fff500FA"/><path d="M22.1-127.8a11.6 11.6 0 1 1 0-23.3 11.6 11.6 0 0 1 0 23.3" fill="#fff500FB"/><path d="M161.8-116.4a11.7 11.7 0 1 1 0-23.3 11.7 11.7 0 0 1 0 23.3" fill="#fff500FC"/><path d="M140-167.4a11.8 11.8 0 1 1 0-23.6 11.8 11.8 0 0 1 0 23.6" fill="#005bbbFD"/><path d="M103-178.7a11.8 11.8 0 1 1 0-23.6 11.8 11.8 0 0 1 0 23.6" fill="#fffFE"/><path d="M80.1-169.5a11.8 11.8 0 1 1 0-23.6 11.8 11.8 0 0 1 0 23.6" fill="#005bbbFE"/><path d="M83.6-159.9a11.8 11.8 0 1 1 0-23.6 11.8 11.8 0 0 1 0 23.6" fill="#005bbbFE"/></g></svg>