<svg width="1200" height="675" viewBox="-500 -500 1200 675" xmlns="http://www.w3.org/2000/svg"><path d="M-500-500h1200v675h-1200z" fill="#000"/><style>.sparkles path{stroke-linecap:round; stroke-width:1}</style><g class="sparkles"><path d="M100-162.5l48.4 7.8" stroke="#fff50033"/><path d="M100-162.5l-53.7-16.8" stroke="#c2e1ff33"/><path d="M100-162.5l-35.5 52.4" stroke="#fff50033"/><path d="M100-162.5l76.1 11.9" stroke="#fff34"/><path d="M100-162.5l80.5 41.3" stroke="#c2e1ff35"/><path d="M100-162.5l91.2 25.3" stroke="#fff36"/><path d="M100-162.5l-19 110.8" stroke="#c2e1ff38"/><path d="M100-162.5l36.4 113" stroke="#c2e1ff38"/><path d="M100-162.5l-114.1-47.2" stroke="#fff39"/><path d="M100-162.5l8.4-123.3" stroke="#fff50039"/><path d="M100-162.5l-0.7-126.1" stroke="#005bbb39"/><path d="M100-162.5l93.1-102.2" stroke="#c2e1ff3B"/><path d="M100-162.5l-136.3-26" stroke="#005bbb3B"/><path d="M100-162.5l-101 103.6" stroke="#fff3C"/><path d="M100-162.5l-97.3 112.4" stroke="#fff3D"/><path d="M100-162.5l-27.7-153.9" stroke="#fff5003E"/><path d="M100-162.5l120.1 104.5" stroke="#005bbb3F"/><path d="M100-162.5l145.4-67" stroke="#fff5003F"/><path d="M100-162.5l158.3 32.7" stroke="#fff5003F"/><path d="M100-162.5l-140.7 91.7" stroke="#005bbb40"/><path d="M100-162.5l168.3-11.6" stroke="#005bbb41"/><path d="M100-162.5l150-81" stroke="#fff41"/><path d="M100-162.5l155.8-74.8" stroke="#fff41"/><path d="M100-162.5l115.8 131.7" stroke="#005bbb42"/><path d="M100-162.5l157 82" stroke="#fff50042"/><path d="M100-162.5l159.2-84.3" stroke="#c2e1ff43"/><path d="M100-162.5l160.1 84.2" stroke="#fff50043"/><path d="M100-162.5l176.9-43.5" stroke="#005bbb44"/><path d="M100-162.5l149.2-104.8" stroke="#fff44"/><path d="M100-162.5l28.1-181.8" stroke="#fff44"/><path d="M100-162.5l-183.9-18.1" stroke="#c2e1ff44"/><path d="M100-162.5l185 17.2" stroke="#005bbb45"/><path d="M100-162.5l138.2-127.3" stroke="#005bbb45"/><path d="M100-162.5l112-152.3" stroke="#fff50046"/><path d="M100-162.5l-69.6-177.7" stroke="#fff46"/><path d="M100-162.5l78.5-175.6" stroke="#c2e1ff46"/><path d="M100-162.5l129.3 143.9" stroke="#fff50047"/><path d="M100-162.5l188-53.8" stroke="#fff47"/><path d="M100-162.5l-53.5 188.7" stroke="#fff48"/><path d="M100-162.5l93.4 172.8" stroke="#c2e1ff48"/><path d="M100-162.5l-199.2 3.6" stroke="#005bbb49"/><path d="M100-162.5l63.3-189.5" stroke="#c2e1ff49"/><path d="M100-162.5l199.9 7.2" stroke="#fff49"/><path d="M100-162.5l120.3 160.4" stroke="#c2e1ff49"/><path d="M100-162.5l194.6 49.1" stroke="#fff50049"/><path d="M100-162.5l118.9-162.8" stroke="#fff50049"/><path d="M100-162.5l197.9 58.7" stroke="#c2e1ff4B"/><path d="M100-162.5l182.5-98.4" stroke="#fff4C"/><path d="M100-162.5l207.6 5.7" stroke="#005bbb4C"/><path d="M100-162.5l-202.4-47.1" stroke="#fff5004C"/><path d="M100-162.5l-166.3 125.8" stroke="#fff5004C"/><path d="M100-162.5l197.3-69.5" stroke="#005bbb4C"/><path d="M100-162.5l208.6-22.4" stroke="#fff5004D"/><path d="M100-162.5l-69.6-199.3" stroke="#005bbb4D"/><path d="M100-162.5l-185.4 103" stroke="#005bbb4D"/><path d="M100-162.5l-125.2 171.4" stroke="#fff5004E"/><path d="M100-162.5l192.6-92.9" stroke="#fff4E"/><path d="M100-162.5l-110.6-186.8" stroke="#c2e1ff50"/><path d="M100-162.5l200.5 85.4" stroke="#fff50"/><path d="M100-162.5l59.9-210.2" stroke="#fff50051"/><path d="M100-162.5l102.6-193.7" stroke="#005bbb51"/><path d="M100-162.5l103.6-194.3" stroke="#fff50051"/><path d="M100-162.5l22.2 222.1" stroke="#c2e1ff53"/><path d="M100-162.5l112.6-192.9" stroke="#fff50053"/><path d="M100-162.5l-198.5-104.6" stroke="#fff54"/><path d="M100-162.5l-202 99.5" stroke="#c2e1ff54"/><path d="M100-162.5l153.8-167.5" stroke="#005bbb56"/><path d="M100-162.5l84.9-211.3" stroke="#005bbb56"/><path d="M100-162.5l-86.3-211.5" stroke="#fff57"/><path d="M100-162.5l-160.3 163.2" stroke="#c2e1ff57"/><path d="M100-162.5l-0.9-229.1" stroke="#c2e1ff57"/><path d="M100-162.5l1.6 229.8" stroke="#005bbb58"/><path d="M100-162.5l-182.8 141.4" stroke="#005bbb59"/><path d="M100-162.5l-228.2-36.8" stroke="#fff59"/><path d="M100-162.5l225.8 49.9" stroke="#fff50059"/><path d="M100-162.5l67.8-222.7" stroke="#005bbb5B"/><path d="M100-162.5l-151.8 177.2" stroke="#005bbb5C"/><path d="M100-162.5l-202.2-120.1" stroke="#fff5005F"/><path d="M100-162.5l180.5-151" stroke="#c2e1ff5F"/><path d="M100-162.5l42.8-231.9" stroke="#c2e1ff61"/><path d="M100-162.5l-189.5-140.5" stroke="#fff61"/><path d="M100-162.5l-214.5 98.4" stroke="#fff50061"/><path d="M100-162.5l-108.9-209.5" stroke="#fff50062"/><path d="M100-162.5l146.5-185.3" stroke="#005bbb62"/><path d="M100-162.5l-227.2 64.8" stroke="#fff63"/><path d="M100-162.5l-87 219.6" stroke="#005bbb63"/><path d="M100-162.5l7.7-236.1" stroke="#fff50063"/><path d="M100-162.5l-234.3-30" stroke="#c2e1ff64"/><path d="M100-162.5l12.9 235.9" stroke="#fff50064"/><path d="M100-162.5l39 233" stroke="#fff64"/><path d="M100-162.5l236.2 0" stroke="#c2e1ff65"/><path d="M100-162.5l-224.5 71.9" stroke="#005bbb67"/><path d="M100-162.5l82.5-220.8" stroke="#c2e1ff67"/><path d="M100-162.5l81-221.3" stroke="#005bbb67"/><path d="M100-162.5l-232.2-36.1" stroke="#c2e1ff69"/><path d="M100-162.5l234.8 2.9" stroke="#c2e1ff69"/><path d="M100-162.5l50.2 229.3" stroke="#fff50069"/><path d="M100-162.5l171.8 160" stroke="#fff69"/><path d="M100-162.5l-142.4-186.4" stroke="#c2e1ff69"/><path d="M100-162.5l58.8-226.4" stroke="#fff6B"/><path d="M100-162.5l127.5-195.7" stroke="#fff5006B"/><path d="M100-162.5l205.2-111.5" stroke="#005bbb6B"/><path d="M100-162.5l-45.7-228.5" stroke="#005bbb6C"/><path d="M100-162.5l227.6 49.5" stroke="#fff5006C"/><path d="M100-162.5l-185.6-138.2" stroke="#005bbb6E"/><path d="M100-162.5l197.5 120.3" stroke="#fff6E"/><path d="M100-162.5l229.6-27.6" stroke="#fff6E"/><path d="M100-162.5l228.2-36.8" stroke="#fff5006E"/><path d="M100-162.5l-171 152" stroke="#fff70"/><path d="M100-162.5l-18.3-228.1" stroke="#fff50070"/><path d="M100-162.5l221.2 54.8" stroke="#fff71"/><path d="M100-162.5l111.3-197.8" stroke="#fff71"/><path d="M100-162.5l192.9 118" stroke="#c2e1ff72"/><path d="M100-162.5l-50.6-219.1" stroke="#c2e1ff73"/><path d="M100-162.5l138.7 176.3" stroke="#005bbb73"/><path d="M100-162.5l-59.8 215.4" stroke="#005bbb74"/><path d="M100-162.5l-69.4-212.5" stroke="#fff50074"/><path d="M100-162.5l-0.8 223.5" stroke="#fff50074"/><path d="M100-162.5l115 190.7" stroke="#c2e1ff74"/><path d="M100-162.5l209.8 73" stroke="#005bbb75"/><path d="M100-162.5l214.5-40.9" stroke="#fff77"/><path d="M100-162.5l211.6 51.4" stroke="#fff77"/><path d="M100-162.5l103.5 190.9" stroke="#fff50077"/><path d="M100-162.5l140.4 162.8" stroke="#fff50078"/><path d="M100-162.5l-202.6 70.8" stroke="#fff78"/><path d="M100-162.5l186.8 105.6" stroke="#005bbb78"/><path d="M100-162.5l201.9-66.1" stroke="#005bbb79"/><path d="M100-162.5l150.2 147.2" stroke="#fff7A"/><path d="M100-162.5l25 208.7" stroke="#fff5007A"/><path d="M100-162.5l199.9-62.9" stroke="#fff5007B"/><path d="M100-162.5l-142.6-151.8" stroke="#005bbb7B"/><path d="M100-162.5l25.2 205.2" stroke="#fff7C"/><path d="M100-162.5l-75-191.2" stroke="#fff5007C"/><path d="M100-162.5l122.5 162.3" stroke="#fff7D"/><path d="M100-162.5l198-19.5" stroke="#fff5007E"/><path d="M100-162.5l-120.7-157.8" stroke="#fff5007F"/><path d="M100-162.5l-148.5 129.9" stroke="#c2e1ff7F"/><path d="M100-162.5l-180 75.8" stroke="#005bbb80"/><path d="M100-162.5l-74.5-180.4" stroke="#005bbb80"/><path d="M100-162.5l76.1-178.7" stroke="#fff80"/><path d="M100-162.5l68.8 180.2" stroke="#fff80"/><path d="M100-162.5l189.8 10.7" stroke="#fff81"/><path d="M100-162.5l-152.8-109.7" stroke="#005bbb82"/><path d="M100-162.5l-140.1 124.4" stroke="#005bbb82"/><path d="M100-162.5l-186.1 14.7" stroke="#005bbb82"/><path d="M100-162.5l113.1 147.2" stroke="#fff82"/><path d="M100-162.5l89.9-161.7" stroke="#fff50083"/><path d="M100-162.5l162.2-62.9" stroke="#005bbb85"/><path d="M100-162.5l-159.7 67.1" stroke="#c2e1ff85"/><path d="M100-162.5l169.7-27.6" stroke="#fff86"/><path d="M100-162.5l119.6 122.5" stroke="#fff86"/><path d="M100-162.5l-168.8 3.5" stroke="#fff50086"/><path d="M100-162.5l146.7 79.6" stroke="#fff50087"/><path d="M100-162.5l99.3-133.7" stroke="#fff50087"/><path d="M100-162.5l83.6 143.1" stroke="#005bbb87"/><path d="M100-162.5l51.2-155.6" stroke="#c2e1ff88"/><path d="M100-162.5l-100.3-125.9" stroke="#fff50088"/><path d="M100-162.5l-70.5-144.6" stroke="#c2e1ff88"/><path d="M100-162.5l-128.9 96" stroke="#c2e1ff88"/><path d="M100-162.5l48.9 148" stroke="#c2e1ff89"/><path d="M100-162.5l96.3 121.4" stroke="#c2e1ff89"/><path d="M100-162.5l138.8 65.7" stroke="#c2e1ff89"/><path d="M100-162.5l96.9-116.1" stroke="#c2e1ff8A"/><path d="M100-162.5l-146.1-35.1" stroke="#fff8A"/><path d="M100-162.5l-84.3 123.9" stroke="#fff5008A"/><path d="M100-162.5l-133.2-61.8" stroke="#fff8B"/><path d="M100-162.5l-11.7 140.3" stroke="#fff5008C"/><path d="M100-162.5l-41.2 129.7" stroke="#fff5008C"/><path d="M100-162.5l106.7 80.7" stroke="#005bbb8D"/><path d="M100-162.5l-112.2 53.4" stroke="#fff8E"/><path d="M100-162.5l-120.4 9.4" stroke="#fff8E"/><path d="M100-162.5l-105.3-58.7" stroke="#fff5008E"/><path d="M100-162.5l-77.8-89.3" stroke="#005bbb8F"/><path d="M100-162.5l45.7 105" stroke="#c2e1ff8F"/><path d="M100-162.5l-57 98.2" stroke="#005bbb8F"/><path d="M100-162.5l67-86" stroke="#005bbb90"/><path d="M100-162.5l69.8-82" stroke="#c2e1ff90"/><path d="M100-162.5l-71.3-13.6" stroke="#c2e1ff93"/><path d="M100-162.5l-54.8 41" stroke="#005bbb93"/><path d="M100-162.5l24.1 0.8" stroke="#005bbb95"/><path d="M100-162.5l-18.3-8.7" stroke="#fff95"/></g><g class="sparcs"><path d="M148.4-148.7a6 6 0 1 1 0-11.9 6 6 0 0 1 0 11.9" fill="#c2e1ff7E"/><path d="M46.3-173.3a6 6 0 1 1 0-12 6 6 0 0 1 0 12" fill="#005bbb7E"/><path d="M64.5-104.1a6 6 0 1 1 0-12 6 6 0 0 1 0 12" fill="#c2e1ff7F"/><path d="M176.1-144.6a6.1 6.1 0 1 1 0-12.1 6.1 6.1 0 0 1 0 12.1" fill="#c2e1ff80"/><path d="M180.5-115a6.1 6.1 0 1 1 0-12.3 6.1 6.1 0 0 1 0 12.3" fill="#005bbb81"/><path d="M191.2-131a6.2 6.2 0 1 1 0-12.3 6.2 6.2 0 0 1 0 12.3" fill="#c2e1ff82"/><path d="M81-45.4a6.3 6.3 0 1 1 0-12.5 6.3 6.3 0 0 1 0 12.5" fill="#fff84"/><path d="M136.4-43.2a6.3 6.3 0 1 1 0-12.6 6.3 6.3 0 0 1 0 12.6" fill="#fff50085"/><path d="M-14.1-203.4a6.3 6.3 0 1 1 0-12.7 6.3 6.3 0 0 1 0 12.7" fill="#fff86"/><path d="M108.4-279.4a6.3 6.3 0 1 1 0-12.7 6.3 6.3 0 0 1 0 12.7" fill="#fff50086"/><path d="M99.3-282.3a6.4 6.4 0 1 1 0-12.7 6.4 6.4 0 0 1 0 12.7" fill="#fff87"/><path d="M193.1-258.3a6.5 6.5 0 1 1 0-12.9 6.5 6.5 0 0 1 0 12.9" fill="#fff89"/><path d="M-36.3-182a6.5 6.5 0 1 1 0-12.9 6.5 6.5 0 0 1 0 12.9" fill="#fff89"/><path d="M-1-52.4a6.5 6.5 0 1 1 0-13 6.5 6.5 0 0 1 0 13" fill="#005bbb8A"/><path d="M2.7-43.5a6.6 6.6 0 1 1 0-13.1 6.6 6.6 0 0 1 0 13.1" fill="#005bbb8B"/><path d="M72.3-309.8a6.6 6.6 0 1 1 0-13.3 6.6 6.6 0 0 1 0 13.3" fill="#fff8D"/><path d="M220.1-51.3a6.7 6.7 0 1 1 0-13.4 6.7 6.7 0 0 1 0 13.4" fill="#005bbb8D"/><path d="M245.4-222.8a6.7 6.7 0 1 1 0-13.4 6.7 6.7 0 0 1 0 13.4" fill="#005bbb8E"/><path d="M258.3-123.1a6.7 6.7 0 1 1 0-13.4 6.7 6.7 0 0 1 0 13.4" fill="#005bbb8E"/><path d="M-40.7-64a6.8 6.8 0 1 1 0-13.6 6.8 6.8 0 0 1 0 13.6" fill="#fff50090"/><path d="M268.3-167.3a6.8 6.8 0 1 1 0-13.6 6.8 6.8 0 0 1 0 13.6" fill="#c2e1ff90"/><path d="M250-236.7a6.8 6.8 0 1 1 0-13.6 6.8 6.8 0 0 1 0 13.6" fill="#c2e1ff91"/><path d="M255.8-230.5a6.8 6.8 0 1 1 0-13.6 6.8 6.8 0 0 1 0 13.6" fill="#c2e1ff91"/><path d="M215.8-23.9a6.9 6.9 0 1 1 0-13.8 6.9 6.9 0 0 1 0 13.8" fill="#fff92"/><path d="M257-73.6a6.9 6.9 0 1 1 0-13.8 6.9 6.9 0 0 1 0 13.8" fill="#fff50092"/><path d="M259.2-239.8a6.9 6.9 0 1 1 0-13.9 6.9 6.9 0 0 1 0 13.9" fill="#fff93"/><path d="M260.1-71.3a7 7 0 1 1 0-13.9 7 7 0 0 1 0 13.9" fill="#fff50094"/><path d="M276.9-199.1a7 7 0 1 1 0-13.9 7 7 0 0 1 0 13.9" fill="#fff50094"/><path d="M249.2-260.4a7 7 0 1 1 0-13.9 7 7 0 0 1 0 13.9" fill="#fff50094"/><path d="M128.1-337.3a7 7 0 1 1 0-14.1 7 7 0 0 1 0 14.1" fill="#005bbb95"/><path d="M-83.9-173.6a7 7 0 1 1 0-14 7 7 0 0 1 0 14" fill="#c2e1ff95"/><path d="M285-138.3a7 7 0 1 1 0-14 7 7 0 0 1 0 14" fill="#c2e1ff95"/><path d="M238.2-282.8a7.1 7.1 0 1 1 0-14.1 7.1 7.1 0 0 1 0 14.1" fill="#fff96"/><path d="M212-307.7a7.1 7.1 0 1 1 0-14.2 7.1 7.1 0 0 1 0 14.2" fill="#fff97"/><path d="M30.4-333.1a7.1 7.1 0 1 1 0-14.2 7.1 7.1 0 0 1 0 14.2" fill="#fff50097"/><path d="M178.5-330.9a7.1 7.1 0 1 1 0-14.3 7.1 7.1 0 0 1 0 14.3" fill="#c2e1ff98"/><path d="M229.3-11.4a7.2 7.2 0 1 1 0-14.3 7.2 7.2 0 0 1 0 14.3" fill="#005bbb98"/><path d="M288-209.1a7.2 7.2 0 1 1 0-14.4 7.2 7.2 0 0 1 0 14.4" fill="#fff50099"/><path d="M46.5 33.4a7.2 7.2 0 1 1 0-14.4 7.2 7.2 0 0 1 0 14.4" fill="#fff99"/><path d="M193.4 17.5a7.2 7.2 0 1 1 0-14.4 7.2 7.2 0 0 1 0 14.4" fill="#005bbb99"/><path d="M-99.2-151.6a7.3 7.3 0 1 1 0-14.6 7.3 7.3 0 0 1 0 14.6" fill="#c2e1ff9B"/><path d="M163.3-344.7a7.3 7.3 0 1 1 0-14.6 7.3 7.3 0 0 1 0 14.6" fill="#fff9B"/><path d="M299.9-148a7.3 7.3 0 1 1 0-14.6 7.3 7.3 0 0 1 0 14.6" fill="#fff5009B"/><path d="M220.3 5.2a7.3 7.3 0 1 1 0-14.6 7.3 7.3 0 0 1 0 14.6" fill="#005bbb9B"/><path d="M294.6-106.1a7.3 7.3 0 1 1 0-14.6 7.3 7.3 0 0 1 0 14.6" fill="#fff5009B"/><path d="M218.9-317.9a7.3 7.3 0 1 1 0-14.7 7.3 7.3 0 0 1 0 14.7" fill="#005bbb9C"/><path d="M297.9-96.4a7.4 7.4 0 1 1 0-14.9 7.4 7.4 0 0 1 0 14.9" fill="#fff9E"/><path d="M282.5-253.4a7.4 7.4 0 1 1 0-14.9 7.4 7.4 0 0 1 0 14.9" fill="#fff5009E"/><path d="M307.6-149.3a7.5 7.5 0 1 1 0-14.9 7.5 7.5 0 0 1 0 14.9" fill="#005bbb9E"/><path d="M-102.4-202.1a7.5 7.5 0 1 1 0-14.9 7.5 7.5 0 0 1 0 14.9" fill="#fff5009F"/><path d="M-66.3-29.2a7.5 7.5 0 1 1 0-15 7.5 7.5 0 0 1 0 15" fill="#fff9F"/><path d="M297.3-224.5a7.5 7.5 0 1 1 0-14.9 7.5 7.5 0 0 1 0 14.9" fill="#fff9F"/><path d="M308.6-177.4a7.5 7.5 0 1 1 0-15 7.5 7.5 0 0 1 0 15" fill="#005bbbA0"/><path d="M30.4-354.3a7.5 7.5 0 1 1 0-15 7.5 7.5 0 0 1 0 15" fill="#005bbbA0"/><path d="M-85.4-51.9a7.6 7.6 0 1 1 0-15.1 7.6 7.6 0 0 1 0 15.1" fill="#005bbbA1"/><path d="M-25.2 16.5a7.6 7.6 0 1 1 0-15.1 7.6 7.6 0 0 1 0 15.1" fill="#fffA1"/><path d="M292.6-247.8a7.6 7.6 0 1 1 0-15.2 7.6 7.6 0 0 1 0 15.2" fill="#fffA2"/><path d="M-10.6-341.6a7.7 7.7 0 1 1 0-15.4 7.7 7.7 0 0 1 0 15.4" fill="#fff500A4"/><path d="M300.5-69.4a7.7 7.7 0 1 1 0-15.5 7.7 7.7 0 0 1 0 15.5" fill="#fff500A4"/><path d="M159.9-365a7.7 7.7 0 1 1 0-15.5 7.7 7.7 0 0 1 0 15.5" fill="#fffA5"/><path d="M202.6-348.4a7.8 7.8 0 1 1 0-15.5 7.8 7.8 0 0 1 0 15.5" fill="#005bbbA5"/><path d="M203.6-349a7.8 7.8 0 1 1 0-15.6 7.8 7.8 0 0 1 0 15.6" fill="#fff500A6"/><path d="M122.2 67.5a7.9 7.9 0 1 1 0-15.8 7.9 7.9 0 0 1 0 15.8" fill="#fff500A8"/><path d="M212.6-347.5a7.9 7.9 0 1 1 0-15.8 7.9 7.9 0 0 1 0 15.8" fill="#005bbbA8"/><path d="M-98.5-259.2a7.9 7.9 0 1 1 0-15.9 7.9 7.9 0 0 1 0 15.9" fill="#c2e1ffA9"/><path d="M-102-55a8 8 0 1 1 0-16 8 8 0 0 1 0 16" fill="#005bbbAA"/><path d="M253.8-321.9a8.1 8.1 0 1 1 0-16.1 8.1 8.1 0 0 1 0 16.1" fill="#005bbbAC"/><path d="M184.9-365.8a8.1 8.1 0 1 1 0-16.1 8.1 8.1 0 0 1 0 16.1" fill="#fffAC"/><path d="M13.7-365.9a8.1 8.1 0 1 1 0-16.2 8.1 8.1 0 0 1 0 16.2" fill="#c2e1ffAD"/><path d="M-60.3 8.8a8.1 8.1 0 1 1 0-16.2 8.1 8.1 0 0 1 0 16.2" fill="#005bbbAD"/><path d="M99.1-383.5a8.1 8.1 0 1 1 0-16.3 8.1 8.1 0 0 1 0 16.3" fill="#c2e1ffAE"/><path d="M101.6 75.5a8.2 8.2 0 1 1 0-16.4 8.2 8.2 0 0 1 0 16.4" fill="#c2e1ffAE"/><path d="M-82.8-12.9a8.2 8.2 0 1 1 0-16.5 8.2 8.2 0 0 1 0 16.5" fill="#005bbbB0"/><path d="M-128.2-191a8.2 8.2 0 1 1 0-16.5 8.2 8.2 0 0 1 0 16.5" fill="#005bbbB0"/><path d="M325.8-104.3a8.3 8.3 0 1 1 0-16.5 8.3 8.3 0 0 1 0 16.5" fill="#fffB0"/><path d="M167.8-376.8a8.4 8.4 0 1 1 0-16.7 8.4 8.4 0 0 1 0 16.7" fill="#fff500B2"/><path d="M-51.8 23.1a8.4 8.4 0 1 1 0-16.8 8.4 8.4 0 0 1 0 16.8" fill="#c2e1ffB3"/><path d="M-102.2-274a8.6 8.6 0 1 1 0-17.1 8.6 8.6 0 0 1 0 17.1" fill="#005bbbB7"/><path d="M280.5-304.9a8.6 8.6 0 1 1 0-17.2 8.6 8.6 0 0 1 0 17.2" fill="#fffB8"/><path d="M142.8-385.8a8.7 8.7 0 1 1 0-17.3 8.7 8.7 0 0 1 0 17.3" fill="#c2e1ffBA"/><path d="M-89.5-294.3a8.7 8.7 0 1 1 0-17.4 8.7 8.7 0 0 1 0 17.4" fill="#005bbbBA"/><path d="M-114.5-55.4a8.7 8.7 0 1 1 0-17.4 8.7 8.7 0 0 1 0 17.4" fill="#fff500BB"/><path d="M-8.9-363.2a8.8 8.8 0 1 1 0-17.6 8.8 8.8 0 0 1 0 17.6" fill="#005bbbBB"/><path d="M246.5-339a8.8 8.8 0 1 1 0-17.6 8.8 8.8 0 0 1 0 17.6" fill="#c2e1ffBC"/><path d="M-127.2-88.9a8.8 8.8 0 1 1 0-17.6 8.8 8.8 0 0 1 0 17.6" fill="#c2e1ffBD"/><path d="M13 65.9a8.8 8.8 0 1 1 0-17.6 8.8 8.8 0 0 1 0 17.6" fill="#005bbbBD"/><path d="M107.7-389.8a8.8 8.8 0 1 1 0-17.7 8.8 8.8 0 0 1 0 17.7" fill="#fff500BD"/><path d="M-134.3-183.6a8.9 8.9 0 1 1 0-17.8 8.9 8.9 0 0 1 0 17.8" fill="#fffBE"/><path d="M112.9 82.3a8.9 8.9 0 1 1 0-17.9 8.9 8.9 0 0 1 0 17.9" fill="#fffBF"/><path d="M139 79.4a8.9 8.9 0 1 1 0-17.9 8.9 8.9 0 0 1 0 17.9" fill="#005bbbBF"/><path d="M336.2-153.6a8.9 8.9 0 1 1 0-17.8 8.9 8.9 0 0 1 0 17.8" fill="#005bbbBF"/><path d="M-124.5-81.5a9 9 0 1 1 0-18.1 9 9 0 0 1 0 18.1" fill="#c2e1ffC2"/><path d="M182.5-374.3a9.1 9.1 0 1 1 0-18.1 9.1 9.1 0 0 1 0 18.1" fill="#c2e1ffC2"/><path d="M181-374.7a9.1 9.1 0 1 1 0-18.2 9.1 9.1 0 0 1 0 18.2" fill="#c2e1ffC2"/><path d="M-132.2-189.4a9.2 9.2 0 1 1 0-18.3 9.2 9.2 0 0 1 0 18.3" fill="#005bbbC4"/><path d="M334.8-150.4a9.2 9.2 0 1 1 0-18.4 9.2 9.2 0 0 1 0 18.4" fill="#c2e1ffC5"/><path d="M150.2 76a9.2 9.2 0 1 1 0-18.3 9.2 9.2 0 0 1 0 18.3" fill="#c2e1ffC5"/><path d="M271.8 6.7a9.2 9.2 0 1 1 0-18.4 9.2 9.2 0 0 1 0 18.4" fill="#c2e1ffC5"/><path d="M-42.4-339.7a9.2 9.2 0 1 1 0-18.4 9.2 9.2 0 0 1 0 18.4" fill="#005bbbC5"/><path d="M158.8-379.6a9.3 9.3 0 1 1 0-18.6 9.3 9.3 0 0 1 0 18.6" fill="#c2e1ffC7"/><path d="M227.5-348.9a9.3 9.3 0 1 1 0-18.6 9.3 9.3 0 0 1 0 18.6" fill="#c2e1ffC7"/><path d="M305.2-264.6a9.3 9.3 0 1 1 0-18.7 9.3 9.3 0 0 1 0 18.7" fill="#fffC7"/><path d="M54.3-381.6a9.3 9.3 0 1 1 0-18.7 9.3 9.3 0 0 1 0 18.7" fill="#fff500C8"/><path d="M327.6-103.7a9.4 9.4 0 1 1 0-18.7 9.4 9.4 0 0 1 0 18.7" fill="#fff500C8"/><path d="M-85.6-291.3a9.5 9.5 0 1 1 0-18.9 9.5 9.5 0 0 1 0 18.9" fill="#fff500CB"/><path d="M297.5-32.7a9.5 9.5 0 1 1 0-18.9 9.5 9.5 0 0 1 0 18.9" fill="#005bbbCB"/><path d="M329.6-180.6a9.5 9.5 0 1 1 0-19 9.5 9.5 0 0 1 0 19" fill="#c2e1ffCB"/><path d="M328.2-189.8a9.5 9.5 0 1 1 0-18.9 9.5 9.5 0 0 1 0 18.9" fill="#fff500CB"/><path d="M-71-0.9a9.6 9.6 0 1 1 0-19.1 9.6 9.6 0 0 1 0 19.1" fill="#005bbbCE"/><path d="M81.7-381a9.6 9.6 0 1 1 0-19.2 9.6 9.6 0 0 1 0 19.2" fill="#fff500CE"/><path d="M321.2-98.1a9.6 9.6 0 1 1 0-19.2 9.6 9.6 0 0 1 0 19.2" fill="#fffCF"/><path d="M211.3-350.6a9.7 9.7 0 1 1 0-19.4 9.7 9.7 0 0 1 0 19.4" fill="#c2e1ffD0"/><path d="M292.9-34.8a9.7 9.7 0 1 1 0-19.4 9.7 9.7 0 0 1 0 19.4" fill="#005bbbD0"/><path d="M49.4-371.8a9.8 9.8 0 1 1 0-19.5 9.8 9.8 0 0 1 0 19.5" fill="#fff500D1"/><path d="M238.7 23.6a9.8 9.8 0 1 1 0-19.6 9.8 9.8 0 0 1 0 19.6" fill="#c2e1ffD2"/><path d="M40.2 62.8a9.8 9.8 0 1 1 0-19.7 9.8 9.8 0 0 1 0 19.7" fill="#fffD2"/><path d="M30.6-365.2a9.8 9.8 0 1 1 0-19.6 9.8 9.8 0 0 1 0 19.6" fill="#005bbbD3"/><path d="M99.2 70.8a9.8 9.8 0 1 1 0-19.7 9.8 9.8 0 0 1 0 19.7" fill="#fff500D3"/><path d="M215 38a9.8 9.8 0 1 1 0-19.7 9.8 9.8 0 0 1 0 19.7" fill="#005bbbD3"/><path d="M309.8-79.6a9.9 9.9 0 1 1 0-19.8 9.9 9.9 0 0 1 0 19.8" fill="#c2e1ffD4"/><path d="M314.5-193.5a10 10 0 1 1 0-19.9 10 10 0 0 1 0 19.9" fill="#fffD6"/><path d="M311.6-101.1a10 10 0 1 1 0-20 10 10 0 0 1 0 20" fill="#fff500D7"/><path d="M203.5 38.4a10 10 0 1 1 0-20.1 10 10 0 0 1 0 20.1" fill="#c2e1ffD7"/><path d="M240.4 10.4a10.1 10.1 0 1 1 0-20.2 10.1 10.1 0 0 1 0 20.2" fill="#fffD8"/><path d="M-102.6-81.6a10.1 10.1 0 1 1 0-20.2 10.1 10.1 0 0 1 0 20.2" fill="#c2e1ffD9"/><path d="M286.8-46.8a10.1 10.1 0 1 1 0-20.2 10.1 10.1 0 0 1 0 20.2" fill="#fff500D9"/><path d="M301.9-218.4a10.2 10.2 0 1 1 0-20.3 10.2 10.2 0 0 1 0 20.3" fill="#fffDA"/><path d="M250.2-5.1a10.2 10.2 0 1 1 0-20.4 10.2 10.2 0 0 1 0 20.4" fill="#005bbbDB"/><path d="M125 56.4a10.2 10.2 0 1 1 0-20.4 10.2 10.2 0 0 1 0 20.4" fill="#c2e1ffDB"/><path d="M299.9-215.2a10.2 10.2 0 1 1 0-20.5 10.2 10.2 0 0 1 0 20.5" fill="#fff500DB"/><path d="M-42.6-304.1a10.3 10.3 0 1 1 0-20.5 10.3 10.3 0 0 1 0 20.5" fill="#c2e1ffDC"/><path d="M125.2 53a10.3 10.3 0 1 1 0-20.6 10.3 10.3 0 0 1 0 20.6" fill="#c2e1ffDD"/><path d="M25-343.4a10.3 10.3 0 1 1 0-20.6 10.3 10.3 0 0 1 0 20.6" fill="#fff500DE"/><path d="M222.5 10.1a10.4 10.4 0 1 1 0-20.7 10.4 10.4 0 0 1 0 20.7" fill="#fff500DF"/><path d="M298-171.5a10.5 10.5 0 1 1 0-20.9 10.5 10.5 0 0 1 0 20.9" fill="#005bbbE1"/><path d="M-20.7-309.9a10.5 10.5 0 1 1 0-20.9 10.5 10.5 0 0 1 0 20.9" fill="#fffE1"/><path d="M-48.5-22.1a10.5 10.5 0 1 1 0-21 10.5 10.5 0 0 1 0 21" fill="#c2e1ffE1"/><path d="M-80-76.1a10.5 10.5 0 1 1 0-21.1 10.5 10.5 0 0 1 0 21.1" fill="#fffE2"/><path d="M25.5-332.3a10.5 10.5 0 1 1 0-21.1 10.5 10.5 0 0 1 0 21.1" fill="#fff500E2"/><path d="M176.1-330.7a10.5 10.5 0 1 1 0-21.1 10.5 10.5 0 0 1 0 21.1" fill="#005bbbE3"/><path d="M168.8 28.2a10.6 10.6 0 1 1 0-21.1 10.6 10.6 0 0 1 0 21.1" fill="#005bbbE3"/><path d="M289.8-141.2a10.6 10.6 0 1 1 0-21.2 10.6 10.6 0 0 1 0 21.2" fill="#c2e1ffE4"/><path d="M-52.8-261.5a10.6 10.6 0 1 1 0-21.3 10.6 10.6 0 0 1 0 21.3" fill="#fff500E5"/><path d="M-40.1-27.5a10.7 10.7 0 1 1 0-21.3 10.7 10.7 0 0 1 0 21.3" fill="#fff500E5"/><path d="M-86.1-137.1a10.7 10.7 0 1 1 0-21.3 10.7 10.7 0 0 1 0 21.3" fill="#fff500E5"/><path d="M213.1-4.6a10.7 10.7 0 1 1 0-21.4 10.7 10.7 0 0 1 0 21.4" fill="#fffE6"/><path d="M189.9-313.5a10.7 10.7 0 1 1 0-21.3 10.7 10.7 0 0 1 0 21.3" fill="#fffE6"/><path d="M262.2-214.5a10.9 10.9 0 1 1 0-21.7 10.9 10.9 0 0 1 0 21.7" fill="#005bbbE9"/><path d="M-59.7-84.5a10.9 10.9 0 1 1 0-21.8 10.9 10.9 0 0 1 0 21.8" fill="#fffEA"/><path d="M269.7-179.2a10.9 10.9 0 1 1 0-21.8 10.9 10.9 0 0 1 0 21.8" fill="#fff500EA"/><path d="M219.6-29.1a10.9 10.9 0 1 1 0-21.8 10.9 10.9 0 0 1 0 21.8" fill="#c2e1ffEA"/><path d="M-68.8-148.1a10.9 10.9 0 1 1 0-21.8 10.9 10.9 0 0 1 0 21.8" fill="#fff500EB"/><path d="M246.7-71.9a10.9 10.9 0 1 1 0-21.9 10.9 10.9 0 0 1 0 21.9" fill="#c2e1ffEC"/><path d="M199.3-285.2a11 11 0 1 1 0-21.9 11 11 0 0 1 0 21.9" fill="#fff500EC"/><path d="M183.6-8.4a11 11 0 1 1 0-21.9 11 11 0 0 1 0 21.9" fill="#fff500EC"/><path d="M151.2-307.1a11 11 0 1 1 0-22 11 11 0 0 1 0 22" fill="#005bbbEC"/><path d="M-0.3-277.3a11 11 0 1 1 0-22.1 11 11 0 0 1 0 22.1" fill="#005bbbED"/><path d="M29.5-296a11 11 0 1 1 0-22.1 11 11 0 0 1 0 22.1" fill="#fff500ED"/><path d="M-28.9-55.4a11 11 0 1 1 0-22.1 11 11 0 0 1 0 22.1" fill="#005bbbED"/><path d="M148.9-3.4a11.1 11.1 0 1 1 0-22.2 11.1 11.1 0 0 1 0 22.2" fill="#fffEE"/><path d="M196.3-30a11.1 11.1 0 1 1 0-22.1 11.1 11.1 0 0 1 0 22.1" fill="#fffEF"/><path d="M238.8-85.7a11.1 11.1 0 1 1 0-22.2 11.1 11.1 0 0 1 0 22.2" fill="#fffEF"/><path d="M196.9-267.5a11.1 11.1 0 1 1 0-22.3 11.1 11.1 0 0 1 0 22.3" fill="#005bbbEF"/><path d="M-46.1-186.5a11.1 11.1 0 1 1 0-22.3 11.1 11.1 0 0 1 0 22.3" fill="#fff500F0"/><path d="M15.7-27.5a11.1 11.1 0 1 1 0-22.2 11.1 11.1 0 0 1 0 22.2" fill="#fffF0"/><path d="M-33.2-213.1a11.2 11.2 0 1 1 0-22.3 11.2 11.2 0 0 1 0 22.3" fill="#fff500F0"/><path d="M88.3-11a11.2 11.2 0 1 1 0-22.5 11.2 11.2 0 0 1 0 22.5" fill="#fff500F2"/><path d="M58.8-21.6a11.3 11.3 0 1 1 0-22.5 11.3 11.3 0 0 1 0 22.5" fill="#005bbbF3"/><path d="M206.7-70.6a11.3 11.3 0 1 1 0-22.5 11.3 11.3 0 0 1 0 22.5" fill="#005bbbF3"/><path d="M-12.2-97.7a11.4 11.4 0 1 1 0-22.8 11.4 11.4 0 0 1 0 22.8" fill="#fff500F5"/><path d="M-20.4-141.7a11.4 11.4 0 1 1 0-22.8 11.4 11.4 0 0 1 0 22.8" fill="#fffF5"/><path d="M-5.3-209.8a11.4 11.4 0 1 1 0-22.8 11.4 11.4 0 0 1 0 22.8" fill="#fffF5"/><path d="M22.2-240.3a11.4 11.4 0 1 1 0-22.9 11.4 11.4 0 0 1 0 22.9" fill="#005bbbF6"/><path d="M145.7-46.1a11.4 11.4 0 1 1 0-22.9 11.4 11.4 0 0 1 0 22.9" fill="#fffF6"/><path d="M43-52.8a11.4 11.4 0 1 1 0-22.9 11.4 11.4 0 0 1 0 22.9" fill="#c2e1ffF7"/><path d="M167-237a11.5 11.5 0 1 1 0-23 11.5 11.5 0 0 1 0 23" fill="#c2e1ffF7"/><path d="M169.8-233a11.5 11.5 0 1 1 0-23 11.5 11.5 0 0 1 0 23" fill="#fffF7"/><path d="M28.7-164.4a11.7 11.7 0 1 1 0-23.4 11.7 11.7 0 0 1 0 23.4" fill="#c2e1ffFB"/><path d="M45.2-109.8a11.7 11.7 0 1 1 0-23.4 11.7 11.7 0 0 1 0 23.4" fill="#fffFC"/><path d="M124.1-150a11.8 11.8 0 1 1 0-23.5 11.8 11.8 0 0 1 0 23.5" fill="#fff500FE"/><path d="M81.7-159.4a11.8 11.8 0 1 1 0-23.6 11.8 11.8 0 0 1 0 23.6" fill="#c2e1ffFE"/></g></svg>