<svg width="1200" height="675" viewBox="-500 -500 1200 675" xmlns="http://www.w3.org/2000/svg"><path d="M-500-500h1200v675h-1200z" fill="#000"/><style>.sparkles path{stroke-linecap:round; stroke-width:1}</style><g class="sparkles"><path d="M100-162.5l13.1 30.6" stroke="#fff32"/><path d="M100-162.5l-13.7 53.7" stroke="#fff50033"/><path d="M100-162.5l46.7-29.9" stroke="#005bbb33"/><path d="M100-162.5l74.8 2.6" stroke="#fff34"/><path d="M100-162.5l65.2-44" stroke="#c2e1ff34"/><path d="M100-162.5l-1.5 88.7" stroke="#c2e1ff35"/><path d="M100-162.5l-82.3-37.3" stroke="#fff35"/><path d="M100-162.5l53.5-75.5" stroke="#fff35"/><path d="M100-162.5l3.3-97.6" stroke="#fff50036"/><path d="M100-162.5l20.5-96.1" stroke="#fff50036"/><path d="M100-162.5l9.4-99.1" stroke="#fff50036"/><path d="M100-162.5l-84.7 72.1" stroke="#fff50037"/><path d="M100-162.5l-31.3-109.1" stroke="#fff50038"/><path d="M100-162.5l101.9 50.1" stroke="#fff50038"/><path d="M100-162.5l-68.1-102.5" stroke="#fff50039"/><path d="M100-162.5l-47.9 114.7" stroke="#fff39"/><path d="M100-162.5l-85.6-97.1" stroke="#fff5003A"/><path d="M100-162.5l134.7-22.1" stroke="#fff5003B"/><path d="M100-162.5l109.1 85.4" stroke="#fff5003B"/><path d="M100-162.5l-7.7-144.2" stroke="#c2e1ff3C"/><path d="M100-162.5l139.7-47.1" stroke="#fff5003C"/><path d="M100-162.5l-94.2 122.9" stroke="#005bbb3E"/><path d="M100-162.5l-73.4 139.3" stroke="#c2e1ff3E"/><path d="M100-162.5l-141.2 70.9" stroke="#fff3E"/><path d="M100-162.5l-157.7 51.9" stroke="#c2e1ff40"/><path d="M100-162.5l58.9-156.2" stroke="#005bbb40"/><path d="M100-162.5l107.4-130.2" stroke="#fff50041"/><path d="M100-162.5l-108.4-132.1" stroke="#fff41"/><path d="M100-162.5l-67.6 158.9" stroke="#005bbb41"/><path d="M100-162.5l-118.7-126.6" stroke="#fff42"/><path d="M100-162.5l-147.4-113.6" stroke="#c2e1ff45"/><path d="M100-162.5l-149.2 111.5" stroke="#fff50045"/><path d="M100-162.5l159.9 97" stroke="#fff45"/><path d="M100-162.5l-141.1 128.8" stroke="#005bbb46"/><path d="M100-162.5l-42.6 193.2" stroke="#005bbb48"/><path d="M100-162.5l-100.7 172.4" stroke="#fff50049"/><path d="M100-162.5l23.8 198.4" stroke="#c2e1ff49"/><path d="M100-162.5l-175.8-96.8" stroke="#fff49"/><path d="M100-162.5l196 43.6" stroke="#005bbb49"/><path d="M100-162.5l7.7-200.8" stroke="#fff49"/><path d="M100-162.5l187.1-75.3" stroke="#c2e1ff49"/><path d="M100-162.5l-201.9-4.8" stroke="#fff5004A"/><path d="M100-162.5l-92.8-179.5" stroke="#005bbb4A"/><path d="M100-162.5l182.4 87.4" stroke="#c2e1ff4A"/><path d="M100-162.5l153.4-134.1" stroke="#fff5004A"/><path d="M100-162.5l-123.9 163.8" stroke="#fff4B"/><path d="M100-162.5l-29.5-204.7" stroke="#fff5004B"/><path d="M100-162.5l-199.8-59.6" stroke="#fff5004C"/><path d="M100-162.5l200-65.1" stroke="#fff4D"/><path d="M100-162.5l179.5-110.1" stroke="#005bbb4D"/><path d="M100-162.5l-209.3 46.1" stroke="#fff4E"/><path d="M100-162.5l163.4 140.5" stroke="#fff5004F"/><path d="M100-162.5l-207.5-61.3" stroke="#fff4F"/><path d="M100-162.5l216.1-23.4" stroke="#fff50"/><path d="M100-162.5l211.3 51.9" stroke="#c2e1ff50"/><path d="M100-162.5l-135.4 174.7" stroke="#c2e1ff52"/><path d="M100-162.5l221.3-0.4" stroke="#fff52"/><path d="M100-162.5l193.8-107.8" stroke="#fff50052"/><path d="M100-162.5l71.9 210.5" stroke="#fff53"/><path d="M100-162.5l219.1-46.4" stroke="#c2e1ff54"/><path d="M100-162.5l-200-101.3" stroke="#c2e1ff54"/><path d="M100-162.5l-225.7-14.2" stroke="#fff55"/><path d="M100-162.5l199.7-109.3" stroke="#c2e1ff56"/><path d="M100-162.5l-185.2 132.6" stroke="#005bbb56"/><path d="M100-162.5l218.2-69.1" stroke="#fff57"/><path d="M100-162.5l-222.8-56.6" stroke="#fff50058"/><path d="M100-162.5l-61.9 221.4" stroke="#005bbb58"/><path d="M100-162.5l-194.5 124.9" stroke="#c2e1ff59"/><path d="M100-162.5l214.1 92.4" stroke="#005bbb5B"/><path d="M100-162.5l-192.6 132.9" stroke="#c2e1ff5D"/><path d="M100-162.5l-132 193.7" stroke="#005bbb5D"/><path d="M100-162.5l145.8-183.5" stroke="#fff5005D"/><path d="M100-162.5l-25.6 233.4" stroke="#c2e1ff5E"/><path d="M100-162.5l-101.4 211.8" stroke="#fff5E"/><path d="M100-162.5l87.3 218.4" stroke="#fff5005F"/><path d="M100-162.5l-211.9-102.2" stroke="#fff5F"/><path d="M100-162.5l232.9 36.7" stroke="#005bbb60"/><path d="M100-162.5l223.3-75.9" stroke="#fff50061"/><path d="M100-162.5l-93.6 216.8" stroke="#c2e1ff62"/><path d="M100-162.5l197.2-130.1" stroke="#fff63"/><path d="M100-162.5l-213.8-100.6" stroke="#005bbb63"/><path d="M100-162.5l219.8-86.5" stroke="#005bbb63"/><path d="M100-162.5l-43.6-232.2" stroke="#c2e1ff63"/><path d="M100-162.5l236.2 0" stroke="#005bbb65"/><path d="M100-162.5l172.8 161" stroke="#005bbb65"/><path d="M100-162.5l215.7-95.4" stroke="#005bbb66"/><path d="M100-162.5l78.6 222.3" stroke="#fff50067"/><path d="M100-162.5l223.7-73.8" stroke="#c2e1ff67"/><path d="M100-162.5l157.6 175" stroke="#fff50067"/><path d="M100-162.5l234.2-23.1" stroke="#fff50068"/><path d="M100-162.5l114.3-205.6" stroke="#005bbb68"/><path d="M100-162.5l233.8 25.3" stroke="#fff68"/><path d="M100-162.5l-169.6 162.9" stroke="#fff68"/><path d="M100-162.5l225.5-65.9" stroke="#fff50069"/><path d="M100-162.5l-14.9-234.1" stroke="#c2e1ff69"/><path d="M100-162.5l183.1-146.2" stroke="#005bbb6A"/><path d="M100-162.5l-86.4 217.7" stroke="#c2e1ff6A"/><path d="M100-162.5l107.7 207.9" stroke="#fff6A"/><path d="M100-162.5l-196.9-124.2" stroke="#fff5006C"/><path d="M100-162.5l197.2-122.5" stroke="#fff5006D"/><path d="M100-162.5l-205-107.2" stroke="#fff5006E"/><path d="M100-162.5l90.9 212.3" stroke="#fff6E"/><path d="M100-162.5l-157.4-168.9" stroke="#c2e1ff6E"/><path d="M100-162.5l-192.2 124.3" stroke="#005bbb70"/><path d="M100-162.5l-133.7 185.1" stroke="#fff50070"/><path d="M100-162.5l44.4 224" stroke="#c2e1ff70"/><path d="M100-162.5l-54 220.2" stroke="#fff72"/><path d="M100-162.5l194.6 115.2" stroke="#fff50072"/><path d="M100-162.5l141.6 175.5" stroke="#005bbb72"/><path d="M100-162.5l-167.3 150.1" stroke="#005bbb73"/><path d="M100-162.5l222.7 22.6" stroke="#fff50073"/><path d="M100-162.5l125-185.3" stroke="#005bbb74"/><path d="M100-162.5l205.5-85.8" stroke="#fff74"/><path d="M100-162.5l202.6-91.7" stroke="#fff50074"/><path d="M100-162.5l49.2 216.8" stroke="#005bbb74"/><path d="M100-162.5l122.8-183.8" stroke="#fff50075"/><path d="M100-162.5l-97 198.4" stroke="#c2e1ff75"/><path d="M100-162.5l-14.5-220.3" stroke="#c2e1ff75"/><path d="M100-162.5l-177.4-131" stroke="#c2e1ff75"/><path d="M100-162.5l213.1 52.9" stroke="#fff50076"/><path d="M100-162.5l-93.5 198.6" stroke="#005bbb76"/><path d="M100-162.5l165-140" stroke="#fff78"/><path d="M100-162.5l206.7-64" stroke="#fff78"/><path d="M100-162.5l146.5-158.6" stroke="#fff78"/><path d="M100-162.5l-206.4-60.7" stroke="#c2e1ff78"/><path d="M100-162.5l-192.3-94.6" stroke="#c2e1ff79"/><path d="M100-162.5l159.3 141.8" stroke="#005bbb79"/><path d="M100-162.5l206.1-43.7" stroke="#c2e1ff7A"/><path d="M100-162.5l122.3-168.7" stroke="#fff5007B"/><path d="M100-162.5l42.2-202.2" stroke="#fff7C"/><path d="M100-162.5l22.8-202.8" stroke="#fff5007D"/><path d="M100-162.5l95.3-178.9" stroke="#fff5007D"/><path d="M100-162.5l-166.4 112.9" stroke="#c2e1ff7E"/><path d="M100-162.5l-116.1-163.8" stroke="#fff5007E"/><path d="M100-162.5l-183 82.2" stroke="#005bbb7E"/><path d="M100-162.5l192.7 49.1" stroke="#c2e1ff7E"/><path d="M100-162.5l-33.6 193.9" stroke="#c2e1ff7F"/><path d="M100-162.5l-117.1-157.9" stroke="#c2e1ff7F"/><path d="M100-162.5l-112.3 161.4" stroke="#fff7F"/><path d="M100-162.5l50.1-190.1" stroke="#fff5007F"/><path d="M100-162.5l127.6 148.9" stroke="#005bbb7F"/><path d="M100-162.5l-131.6-134.2" stroke="#005bbb82"/><path d="M100-162.5l-166 87.6" stroke="#fff82"/><path d="M100-162.5l-127.9 130.3" stroke="#005bbb83"/><path d="M100-162.5l168.2 70.9" stroke="#005bbb83"/><path d="M100-162.5l152.2-100.5" stroke="#c2e1ff83"/><path d="M100-162.5l-99.3 152.7" stroke="#005bbb83"/><path d="M100-162.5l7.6-178.8" stroke="#fff84"/><path d="M100-162.5l-125.3-127.4" stroke="#005bbb84"/><path d="M100-162.5l-30.1-175.8" stroke="#005bbb84"/><path d="M100-162.5l-171.4-39.5" stroke="#fff50085"/><path d="M100-162.5l166 40" stroke="#fff50086"/><path d="M100-162.5l-118-123.1" stroke="#c2e1ff86"/><path d="M100-162.5l126.4-89.8" stroke="#fff89"/><path d="M100-162.5l-0.6-149.7" stroke="#fff5008A"/><path d="M100-162.5l-147.5 16.1" stroke="#fff5008A"/><path d="M100-162.5l-144 12.6" stroke="#005bbb8B"/><path d="M100-162.5l58.9 130.8" stroke="#005bbb8B"/><path d="M100-162.5l-60.3 130.2" stroke="#c2e1ff8B"/><path d="M100-162.5l51.9-130.9" stroke="#005bbb8C"/><path d="M100-162.5l-80.3 109.9" stroke="#fff8C"/><path d="M100-162.5l61.5-116" stroke="#005bbb8D"/><path d="M100-162.5l26.3-122.5" stroke="#005bbb8E"/><path d="M100-162.5l-67.7 104.6" stroke="#fff8E"/><path d="M100-162.5l118.8 37.6" stroke="#fff5008E"/><path d="M100-162.5l-7.9-114.5" stroke="#005bbb8F"/><path d="M100-162.5l-77.3-78.5" stroke="#fff50090"/><path d="M100-162.5l29.3-103.3" stroke="#fff50090"/><path d="M100-162.5l-59.2 89.5" stroke="#fff90"/><path d="M100-162.5l-91.8 55" stroke="#fff90"/><path d="M100-162.5l103.3-13.8" stroke="#fff50090"/><path d="M100-162.5l27.8-99.7" stroke="#c2e1ff90"/><path d="M100-162.5l-102.5-2.6" stroke="#c2e1ff91"/><path d="M100-162.5l-101.4-13.9" stroke="#fff50091"/><path d="M100-162.5l70.6 73.3" stroke="#fff91"/><path d="M100-162.5l94.1 38.5" stroke="#fff50091"/><path d="M100-162.5l-84.4-45.2" stroke="#c2e1ff91"/><path d="M100-162.5l-70.4-58.1" stroke="#fff92"/><path d="M100-162.5l-75.8-29.6" stroke="#c2e1ff92"/><path d="M100-162.5l-73.8-9.7" stroke="#fff50093"/><path d="M100-162.5l17.7 12.9" stroke="#fff50095"/></g><g class="sparcs"><path d="M113.1-126a5.9 5.9 0 1 1 0-11.9 5.9 5.9 0 0 1 0 11.9" fill="#005bbb7D"/><path d="M86.3-102.8a6 6 0 1 1 0-12 6 6 0 0 1 0 12" fill="#fff7E"/><path d="M146.7-186.4a6 6 0 1 1 0-12 6 6 0 0 1 0 12" fill="#fff7E"/><path d="M174.8-153.8a6.1 6.1 0 1 1 0-12.1 6.1 6.1 0 0 1 0 12.1" fill="#fff50080"/><path d="M165.2-200.4a6.1 6.1 0 1 1 0-12.2 6.1 6.1 0 0 1 0 12.2" fill="#c2e1ff80"/><path d="M98.5-67.6a6.1 6.1 0 1 1 0-12.3 6.1 6.1 0 0 1 0 12.3" fill="#005bbb81"/><path d="M17.7-193.7a6.1 6.1 0 1 1 0-12.2 6.1 6.1 0 0 1 0 12.2" fill="#005bbb81"/><path d="M153.5-231.9a6.1 6.1 0 1 1 0-12.3 6.1 6.1 0 0 1 0 12.3" fill="#fff82"/><path d="M103.3-253.9a6.2 6.2 0 1 1 0-12.4 6.2 6.2 0 0 1 0 12.4" fill="#fff50082"/><path d="M120.5-252.4a6.2 6.2 0 1 1 0-12.3 6.2 6.2 0 0 1 0 12.3" fill="#fff50082"/><path d="M109.4-255.4a6.2 6.2 0 1 1 0-12.4 6.2 6.2 0 0 1 0 12.4" fill="#fff83"/><path d="M15.3-84.1a6.3 6.3 0 1 1 0-12.5 6.3 6.3 0 0 1 0 12.5" fill="#c2e1ff84"/><path d="M68.7-265.3a6.3 6.3 0 1 1 0-12.6 6.3 6.3 0 0 1 0 12.6" fill="#c2e1ff84"/><path d="M201.9-106.1a6.3 6.3 0 1 1 0-12.6 6.3 6.3 0 0 1 0 12.6" fill="#fff50085"/><path d="M31.9-258.7a6.3 6.3 0 1 1 0-12.6 6.3 6.3 0 0 1 0 12.6" fill="#fff50086"/><path d="M52.1-41.5a6.3 6.3 0 1 1 0-12.7 6.3 6.3 0 0 1 0 12.7" fill="#c2e1ff86"/><path d="M14.4-253.2a6.4 6.4 0 1 1 0-12.8 6.4 6.4 0 0 1 0 12.8" fill="#fff50087"/><path d="M234.7-178.1a6.4 6.4 0 1 1 0-12.9 6.4 6.4 0 0 1 0 12.9" fill="#fff50088"/><path d="M209.1-70.6a6.5 6.5 0 1 1 0-13 6.5 6.5 0 0 1 0 13" fill="#fff50089"/><path d="M92.3-300.2a6.5 6.5 0 1 1 0-13 6.5 6.5 0 0 1 0 13" fill="#005bbb8A"/><path d="M239.7-203a6.6 6.6 0 1 1 0-13.1 6.6 6.6 0 0 1 0 13.1" fill="#c2e1ff8B"/><path d="M5.8-32.9a6.6 6.6 0 1 1 0-13.3 6.6 6.6 0 0 1 0 13.3" fill="#005bbb8C"/><path d="M26.6-16.6a6.7 6.7 0 1 1 0-13.3 6.7 6.7 0 0 1 0 13.3" fill="#c2e1ff8D"/><path d="M-41.2-84.9a6.7 6.7 0 1 1 0-13.4 6.7 6.7 0 0 1 0 13.4" fill="#005bbb8D"/><path d="M-57.7-103.8a6.8 6.8 0 1 1 0-13.5 6.8 6.8 0 0 1 0 13.5" fill="#fff5008F"/><path d="M158.9-312a6.8 6.8 0 1 1 0-13.5 6.8 6.8 0 0 1 0 13.5" fill="#c2e1ff90"/><path d="M207.4-285.9a6.8 6.8 0 1 1 0-13.6 6.8 6.8 0 0 1 0 13.6" fill="#fff90"/><path d="M-8.4-287.7a6.8 6.8 0 1 1 0-13.7 6.8 6.8 0 0 1 0 13.7" fill="#fff50091"/><path d="M32.4 3.2a6.8 6.8 0 1 1 0-13.7 6.8 6.8 0 0 1 0 13.7" fill="#fff91"/><path d="M-18.7-282.3a6.9 6.9 0 1 1 0-13.7 6.9 6.9 0 0 1 0 13.7" fill="#fff91"/><path d="M-47.4-269a7 7 0 1 1 0-14.1 7 7 0 0 1 0 14.1" fill="#fff95"/><path d="M-49.2-44a7 7 0 1 1 0-14.1 7 7 0 0 1 0 14.1" fill="#fff50095"/><path d="M259.9-58.4a7.1 7.1 0 1 1 0-14.1 7.1 7.1 0 0 1 0 14.1" fill="#c2e1ff96"/><path d="M-41.1-26.6a7.1 7.1 0 1 1 0-14.2 7.1 7.1 0 0 1 0 14.2" fill="#fff50097"/><path d="M57.4 37.9a7.2 7.2 0 1 1 0-14.4 7.2 7.2 0 0 1 0 14.4" fill="#fff9A"/><path d="M-0.7 17.2a7.3 7.3 0 1 1 0-14.6 7.3 7.3 0 0 1 0 14.6" fill="#c2e1ff9B"/><path d="M123.8 43.2a7.3 7.3 0 1 1 0-14.6 7.3 7.3 0 0 1 0 14.6" fill="#c2e1ff9B"/><path d="M-75.8-252a7.3 7.3 0 1 1 0-14.6 7.3 7.3 0 0 1 0 14.6" fill="#005bbb9B"/><path d="M296-111.6a7.3 7.3 0 1 1 0-14.6 7.3 7.3 0 0 1 0 14.6" fill="#fff5009B"/><path d="M107.7-356a7.3 7.3 0 1 1 0-14.6 7.3 7.3 0 0 1 0 14.6" fill="#c2e1ff9B"/><path d="M287.1-230.5a7.3 7.3 0 1 1 0-14.7 7.3 7.3 0 0 1 0 14.7" fill="#fff9C"/><path d="M-101.9-160a7.3 7.3 0 1 1 0-14.7 7.3 7.3 0 0 1 0 14.7" fill="#fff9C"/><path d="M7.2-334.7a7.3 7.3 0 1 1 0-14.6 7.3 7.3 0 0 1 0 14.6" fill="#005bbb9C"/><path d="M282.4-67.8a7.3 7.3 0 1 1 0-14.6 7.3 7.3 0 0 1 0 14.6" fill="#c2e1ff9C"/><path d="M253.4-289.2a7.4 7.4 0 1 1 0-14.7 7.4 7.4 0 0 1 0 14.7" fill="#fff9D"/><path d="M-23.9 8.7a7.4 7.4 0 1 1 0-14.8 7.4 7.4 0 0 1 0 14.8" fill="#005bbb9D"/><path d="M70.5-359.8a7.4 7.4 0 1 1 0-14.9 7.4 7.4 0 0 1 0 14.9" fill="#fff9E"/><path d="M-99.8-214.6a7.5 7.5 0 1 1 0-15 7.5 7.5 0 0 1 0 15" fill="#fff9F"/><path d="M300-220.1a7.5 7.5 0 1 1 0-15.1 7.5 7.5 0 0 1 0 15.1" fill="#fff500A0"/><path d="M279.5-265a7.5 7.5 0 1 1 0-15.1 7.5 7.5 0 0 1 0 15.1" fill="#fffA0"/><path d="M-109.3-108.8a7.6 7.6 0 1 1 0-15.2 7.6 7.6 0 0 1 0 15.2" fill="#fffA2"/><path d="M263.4-14.4a7.6 7.6 0 1 1 0-15.3 7.6 7.6 0 0 1 0 15.3" fill="#c2e1ffA3"/><path d="M-107.5-216.1a7.7 7.7 0 1 1 0-15.4 7.7 7.7 0 0 1 0 15.4" fill="#005bbbA3"/><path d="M316.1-178.2a7.7 7.7 0 1 1 0-15.4 7.7 7.7 0 0 1 0 15.4" fill="#c2e1ffA4"/><path d="M311.3-102.9a7.7 7.7 0 1 1 0-15.5 7.7 7.7 0 0 1 0 15.5" fill="#fff500A4"/><path d="M-35.4 20.1a7.8 7.8 0 1 1 0-15.7 7.8 7.8 0 0 1 0 15.7" fill="#fff500A7"/><path d="M321.3-155a7.8 7.8 0 1 1 0-15.7 7.8 7.8 0 0 1 0 15.7" fill="#fff500A7"/><path d="M293.8-262.4a7.8 7.8 0 1 1 0-15.7 7.8 7.8 0 0 1 0 15.7" fill="#fff500A7"/><path d="M171.9 55.9a7.9 7.9 0 1 1 0-15.8 7.9 7.9 0 0 1 0 15.8" fill="#005bbbA8"/><path d="M319.1-201a7.9 7.9 0 1 1 0-15.8 7.9 7.9 0 0 1 0 15.8" fill="#fff500A9"/><path d="M-100-255.9a7.9 7.9 0 1 1 0-15.9 7.9 7.9 0 0 1 0 15.9" fill="#fffA9"/><path d="M-125.7-168.7a8 8 0 1 1 0-16 8 8 0 0 1 0 16" fill="#c2e1ffAB"/><path d="M299.7-263.8a8.1 8.1 0 1 1 0-16.1 8.1 8.1 0 0 1 0 16.1" fill="#005bbbAC"/><path d="M-85.2-21.8a8.1 8.1 0 1 1 0-16.1 8.1 8.1 0 0 1 0 16.1" fill="#fff500AC"/><path d="M318.2-223.5a8.1 8.1 0 1 1 0-16.3 8.1 8.1 0 0 1 0 16.3" fill="#fffAD"/><path d="M-122.8-210.9a8.2 8.2 0 1 1 0-16.4 8.2 8.2 0 0 1 0 16.4" fill="#c2e1ffAF"/><path d="M38.1 67.1a8.2 8.2 0 1 1 0-16.3 8.2 8.2 0 0 1 0 16.3" fill="#fffAF"/><path d="M-94.5-29.3a8.2 8.2 0 1 1 0-16.5 8.2 8.2 0 0 1 0 16.5" fill="#c2e1ffB0"/><path d="M314.1-61.7a8.4 8.4 0 1 1 0-16.8 8.4 8.4 0 0 1 0 16.8" fill="#005bbbB3"/><path d="M-92.6-21.2a8.5 8.5 0 1 1 0-16.9 8.5 8.5 0 0 1 0 16.9" fill="#fffB5"/><path d="M-32 39.7a8.5 8.5 0 1 1 0-17 8.5 8.5 0 0 1 0 17" fill="#005bbbB5"/><path d="M245.8-337.5a8.5 8.5 0 1 1 0-17 8.5 8.5 0 0 1 0 17" fill="#fffB5"/><path d="M74.4 79.4a8.5 8.5 0 1 1 0-17 8.5 8.5 0 0 1 0 17" fill="#c2e1ffB6"/><path d="M-1.4 57.8a8.5 8.5 0 1 1 0-17 8.5 8.5 0 0 1 0 17" fill="#c2e1ffB6"/><path d="M187.3 64.5a8.6 8.6 0 1 1 0-17.1 8.6 8.6 0 0 1 0 17.1" fill="#fffB7"/><path d="M-111.9-256.1a8.6 8.6 0 1 1 0-17.2 8.6 8.6 0 0 1 0 17.2" fill="#c2e1ffB8"/><path d="M332.9-117.1a8.7 8.7 0 1 1 0-17.4 8.7 8.7 0 0 1 0 17.4" fill="#c2e1ffBA"/><path d="M323.3-229.7a8.7 8.7 0 1 1 0-17.4 8.7 8.7 0 0 1 0 17.4" fill="#c2e1ffBA"/><path d="M6.4 63.1a8.8 8.8 0 1 1 0-17.5 8.8 8.8 0 0 1 0 17.5" fill="#c2e1ffBC"/><path d="M297.2-283.8a8.8 8.8 0 1 1 0-17.6 8.8 8.8 0 0 1 0 17.6" fill="#fffBD"/><path d="M-113.8-254.2a8.8 8.8 0 1 1 0-17.7 8.8 8.8 0 0 1 0 17.7" fill="#c2e1ffBD"/><path d="M319.8-240.1a8.8 8.8 0 1 1 0-17.7 8.8 8.8 0 0 1 0 17.7" fill="#fff500BD"/><path d="M56.4-385.8a8.8 8.8 0 1 1 0-17.7 8.8 8.8 0 0 1 0 17.7" fill="#fffBD"/><path d="M336.2-153.6a8.9 8.9 0 1 1 0-17.8 8.9 8.9 0 0 1 0 17.8" fill="#c2e1ffBF"/><path d="M272.8 7.4a9 9 0 1 1 0-17.9 9 9 0 0 1 0 17.9" fill="#c2e1ffC0"/><path d="M315.7-248.9a9 9 0 1 1 0-18 9 9 0 0 1 0 18" fill="#c2e1ffC1"/><path d="M178.6 68.9a9 9 0 1 1 0-18.1 9 9 0 0 1 0 18.1" fill="#fffC2"/><path d="M323.7-227.2a9.1 9.1 0 1 1 0-18.2 9.1 9.1 0 0 1 0 18.2" fill="#c2e1ffC3"/><path d="M257.6 21.6a9.1 9.1 0 1 1 0-18.2 9.1 9.1 0 0 1 0 18.2" fill="#005bbbC3"/><path d="M334.2-176.5a9.1 9.1 0 1 1 0-18.2 9.1 9.1 0 0 1 0 18.2" fill="#fff500C3"/><path d="M214.3-359a9.1 9.1 0 1 1 0-18.2 9.1 9.1 0 0 1 0 18.2" fill="#c2e1ffC4"/><path d="M333.8-128.1a9.1 9.1 0 1 1 0-18.3 9.1 9.1 0 0 1 0 18.3" fill="#fffC4"/><path d="M-69.6 9.6a9.1 9.1 0 1 1 0-18.3 9.1 9.1 0 0 1 0 18.3" fill="#fffC4"/><path d="M325.5-219.2a9.2 9.2 0 1 1 0-18.4 9.2 9.2 0 0 1 0 18.4" fill="#005bbbC4"/><path d="M85.1-387.4a9.2 9.2 0 1 1 0-18.5 9.2 9.2 0 0 1 0 18.5" fill="#005bbbC5"/><path d="M283.1-299.4a9.2 9.2 0 1 1 0-18.5 9.2 9.2 0 0 1 0 18.5" fill="#005bbbC6"/><path d="M13.6 64.4a9.2 9.2 0 1 1 0-18.4 9.2 9.2 0 0 1 0 18.4" fill="#fff500C6"/><path d="M207.7 54.7a9.3 9.3 0 1 1 0-18.5 9.3 9.3 0 0 1 0 18.5" fill="#fffC6"/><path d="M-96.9-277.3a9.4 9.4 0 1 1 0-18.8 9.4 9.4 0 0 1 0 18.8" fill="#fff500C9"/><path d="M297.2-275.6a9.4 9.4 0 1 1 0-18.8 9.4 9.4 0 0 1 0 18.8" fill="#fff500CA"/><path d="M-105-260.2a9.5 9.5 0 1 1 0-18.9 9.5 9.5 0 0 1 0 18.9" fill="#c2e1ffCB"/><path d="M190.9 59.3a9.5 9.5 0 1 1 0-19 9.5 9.5 0 0 1 0 19" fill="#c2e1ffCB"/><path d="M-57.4-321.9a9.5 9.5 0 1 1 0-18.9 9.5 9.5 0 0 1 0 18.9" fill="#fff500CB"/><path d="M-92.2-28.6a9.6 9.6 0 1 1 0-19.2 9.6 9.6 0 0 1 0 19.2" fill="#fffCE"/><path d="M-33.7 32.2a9.6 9.6 0 1 1 0-19.2 9.6 9.6 0 0 1 0 19.2" fill="#005bbbCE"/><path d="M144.4 71.1a9.6 9.6 0 1 1 0-19.3 9.6 9.6 0 0 1 0 19.3" fill="#fff500CE"/><path d="M46 67.4a9.7 9.7 0 1 1 0-19.4 9.7 9.7 0 0 1 0 19.4" fill="#fffD0"/><path d="M294.6-37.6a9.7 9.7 0 1 1 0-19.4 9.7 9.7 0 0 1 0 19.4" fill="#fff500D0"/><path d="M241.6 22.7a9.7 9.7 0 1 1 0-19.5 9.7 9.7 0 0 1 0 19.5" fill="#005bbbD1"/><path d="M-67.3-2.6a9.8 9.8 0 1 1 0-19.6 9.8 9.8 0 0 1 0 19.6" fill="#fff500D2"/><path d="M322.7-130.1a9.8 9.8 0 1 1 0-19.6 9.8 9.8 0 0 1 0 19.6" fill="#fffD2"/><path d="M225-338a9.8 9.8 0 1 1 0-19.6 9.8 9.8 0 0 1 0 19.6" fill="#fff500D3"/><path d="M305.5-238.5a9.8 9.8 0 1 1 0-19.7 9.8 9.8 0 0 1 0 19.7" fill="#c2e1ffD3"/><path d="M302.6-244.4a9.9 9.9 0 1 1 0-19.7 9.9 9.9 0 0 1 0 19.7" fill="#c2e1ffD3"/><path d="M149.2 64.2a9.9 9.9 0 1 1 0-19.8 9.9 9.9 0 0 1 0 19.8" fill="#fffD3"/><path d="M222.8-336.4a9.9 9.9 0 1 1 0-19.8 9.9 9.9 0 0 1 0 19.8" fill="#c2e1ffD4"/><path d="M3 45.8a9.9 9.9 0 1 1 0-19.8 9.9 9.9 0 0 1 0 19.8" fill="#fffD5"/><path d="M85.5-372.9a9.9 9.9 0 1 1 0-19.8 9.9 9.9 0 0 1 0 19.8" fill="#005bbbD5"/><path d="M-77.4-283.6a9.9 9.9 0 1 1 0-19.8 9.9 9.9 0 0 1 0 19.8" fill="#fff500D5"/><path d="M313.1-99.7a9.9 9.9 0 1 1 0-19.8 9.9 9.9 0 0 1 0 19.8" fill="#c2e1ffD5"/><path d="M6.5 46.1a9.9 9.9 0 1 1 0-19.9 9.9 9.9 0 0 1 0 19.9" fill="#005bbbD5"/><path d="M265-292.4a10 10 0 1 1 0-20.1 10 10 0 0 1 0 20.1" fill="#fff500D8"/><path d="M306.7-216.5a10 10 0 1 1 0-20.1 10 10 0 0 1 0 20.1" fill="#fff500D8"/><path d="M246.5-311a10.1 10.1 0 1 1 0-20.2 10.1 10.1 0 0 1 0 20.2" fill="#c2e1ffD8"/><path d="M-106.4-213.2a10.1 10.1 0 1 1 0-20.1 10.1 10.1 0 0 1 0 20.1" fill="#005bbbD8"/><path d="M-92.3-247a10.1 10.1 0 1 1 0-20.2 10.1 10.1 0 0 1 0 20.2" fill="#fff500D9"/><path d="M259.3-10.6a10.1 10.1 0 1 1 0-20.3 10.1 10.1 0 0 1 0 20.3" fill="#fff500D9"/><path d="M306.1-196a10.2 10.2 0 1 1 0-20.4 10.2 10.2 0 0 1 0 20.4" fill="#005bbbDB"/><path d="M222.3-320.9a10.3 10.3 0 1 1 0-20.5 10.3 10.3 0 0 1 0 20.5" fill="#fff500DC"/><path d="M142.2-354.4a10.3 10.3 0 1 1 0-20.6 10.3 10.3 0 0 1 0 20.6" fill="#fffDD"/><path d="M122.8-354.9a10.3 10.3 0 1 1 0-20.7 10.3 10.3 0 0 1 0 20.7" fill="#c2e1ffDE"/><path d="M195.3-331a10.4 10.4 0 1 1 0-20.8 10.4 10.4 0 0 1 0 20.8" fill="#fffDF"/><path d="M-66.4-39.2a10.4 10.4 0 1 1 0-20.8 10.4 10.4 0 0 1 0 20.8" fill="#c2e1ffE0"/><path d="M-16.1-315.8a10.4 10.4 0 1 1 0-20.9 10.4 10.4 0 0 1 0 20.9" fill="#005bbbE0"/><path d="M-83-69.9a10.4 10.4 0 1 1 0-20.8 10.4 10.4 0 0 1 0 20.8" fill="#c2e1ffE0"/><path d="M292.7-102.9a10.5 10.5 0 1 1 0-20.9 10.5 10.5 0 0 1 0 20.9" fill="#fff500E1"/><path d="M66.4 41.9a10.5 10.5 0 1 1 0-21 10.5 10.5 0 0 1 0 21" fill="#c2e1ffE1"/><path d="M-17.1-310a10.5 10.5 0 1 1 0-20.9 10.5 10.5 0 0 1 0 20.9" fill="#005bbbE2"/><path d="M-12.3 9.4a10.5 10.5 0 1 1 0-21 10.5 10.5 0 0 1 0 21" fill="#005bbbE2"/><path d="M150.1-342.1a10.5 10.5 0 1 1 0-21 10.5 10.5 0 0 1 0 21" fill="#fffE2"/><path d="M227.6-3.1a10.5 10.5 0 1 1 0-21 10.5 10.5 0 0 1 0 21" fill="#fff500E2"/><path d="M-31.6-286a10.6 10.6 0 1 1 0-21.3 10.6 10.6 0 0 1 0 21.3" fill="#fff500E5"/><path d="M-66-64.2a10.7 10.7 0 1 1 0-21.4 10.7 10.7 0 0 1 0 21.4" fill="#fff500E5"/><path d="M-27.9-21.5a10.7 10.7 0 1 1 0-21.4 10.7 10.7 0 0 1 0 21.4" fill="#c2e1ffE7"/><path d="M268.2-80.8a10.7 10.7 0 1 1 0-21.5 10.7 10.7 0 0 1 0 21.5" fill="#c2e1ffE7"/><path d="M252.2-252.3a10.7 10.7 0 1 1 0-21.5 10.7 10.7 0 0 1 0 21.5" fill="#fff500E7"/><path d="M0.7 1a10.7 10.7 0 1 1 0-21.5 10.7 10.7 0 0 1 0 21.5" fill="#c2e1ffE7"/><path d="M107.6-330.5a10.8 10.8 0 1 1 0-21.6 10.8 10.8 0 0 1 0 21.6" fill="#fff500E8"/><path d="M-25.3-279.1a10.8 10.8 0 1 1 0-21.6 10.8 10.8 0 0 1 0 21.6" fill="#c2e1ffE8"/><path d="M69.9-327.5a10.8 10.8 0 1 1 0-21.6 10.8 10.8 0 0 1 0 21.6" fill="#fffE8"/><path d="M-71.4-191.2a10.8 10.8 0 1 1 0-21.6 10.8 10.8 0 0 1 0 21.6" fill="#c2e1ffE9"/><path d="M266-111.6a10.9 10.9 0 1 1 0-21.8 10.9 10.9 0 0 1 0 21.8" fill="#fffEA"/><path d="M-18-274.7a10.9 10.9 0 1 1 0-21.8 10.9 10.9 0 0 1 0 21.8" fill="#005bbbEA"/><path d="M226.4-241.2a11.1 11.1 0 1 1 0-22.2 11.1 11.1 0 0 1 0 22.2" fill="#fffEF"/><path d="M99.4-301a11.1 11.1 0 1 1 0-22.3 11.1 11.1 0 0 1 0 22.3" fill="#c2e1ffF0"/><path d="M-47.5-135.2a11.2 11.2 0 1 1 0-22.3 11.2 11.2 0 0 1 0 22.3" fill="#fffF0"/><path d="M-44-138.7a11.2 11.2 0 1 1 0-22.4 11.2 11.2 0 0 1 0 22.4" fill="#c2e1ffF1"/><path d="M158.9-20.5a11.2 11.2 0 1 1 0-22.4 11.2 11.2 0 0 1 0 22.4" fill="#c2e1ffF1"/><path d="M39.7-21.1a11.2 11.2 0 1 1 0-22.4 11.2 11.2 0 0 1 0 22.4" fill="#fff500F1"/><path d="M151.9-282.1a11.2 11.2 0 1 1 0-22.5 11.2 11.2 0 0 1 0 22.5" fill="#c2e1ffF2"/><path d="M19.7-41.3a11.3 11.3 0 1 1 0-22.6 11.3 11.3 0 0 1 0 22.6" fill="#fffF3"/><path d="M161.5-267.2a11.3 11.3 0 1 1 0-22.6 11.3 11.3 0 0 1 0 22.6" fill="#fff500F4"/><path d="M126.3-273.6a11.4 11.4 0 1 1 0-22.8 11.4 11.4 0 0 1 0 22.8" fill="#005bbbF5"/><path d="M32.3-46.5a11.4 11.4 0 1 1 0-22.7 11.4 11.4 0 0 1 0 22.7" fill="#fff500F5"/><path d="M218.8-113.5a11.4 11.4 0 1 1 0-22.7 11.4 11.4 0 0 1 0 22.7" fill="#fffF5"/><path d="M92.1-265.6a11.4 11.4 0 1 1 0-22.8 11.4 11.4 0 0 1 0 22.8" fill="#fff500F6"/><path d="M22.7-229.5a11.5 11.5 0 1 1 0-22.9 11.5 11.5 0 0 1 0 22.9" fill="#fffF7"/><path d="M129.3-254.3a11.5 11.5 0 1 1 0-23 11.5 11.5 0 0 1 0 23" fill="#005bbbF7"/><path d="M40.8-61.5a11.5 11.5 0 1 1 0-23 11.5 11.5 0 0 1 0 23" fill="#fffF7"/><path d="M8.2-96a11.5 11.5 0 1 1 0-23 11.5 11.5 0 0 1 0 23" fill="#c2e1ffF7"/><path d="M203.3-164.8a11.5 11.5 0 1 1 0-23 11.5 11.5 0 0 1 0 23" fill="#c2e1ffF8"/><path d="M127.8-250.7a11.5 11.5 0 1 1 0-23 11.5 11.5 0 0 1 0 23" fill="#fff500F8"/><path d="M-2.5-153.6a11.5 11.5 0 1 1 0-23 11.5 11.5 0 0 1 0 23" fill="#fffF8"/><path d="M-1.4-164.8a11.5 11.5 0 1 1 0-23.1 11.5 11.5 0 0 1 0 23.1" fill="#005bbbF8"/><path d="M170.6-77.7a11.5 11.5 0 1 1 0-23.1 11.5 11.5 0 0 1 0 23.1" fill="#fff500F8"/><path d="M194.1-112.4a11.5 11.5 0 1 1 0-23.1 11.5 11.5 0 0 1 0 23.1" fill="#fffF8"/><path d="M15.6-196.1a11.6 11.6 0 1 1 0-23.2 11.6 11.6 0 0 1 0 23.2" fill="#c2e1ffF9"/><path d="M29.6-209a11.6 11.6 0 1 1 0-23.2 11.6 11.6 0 0 1 0 23.2" fill="#fffF9"/><path d="M24.2-180.5a11.6 11.6 0 1 1 0-23.3 11.6 11.6 0 0 1 0 23.3" fill="#c2e1ffFB"/><path d="M26.2-160.6a11.7 11.7 0 1 1 0-23.3 11.7 11.7 0 0 1 0 23.3" fill="#005bbbFB"/><path d="M117.7-137.8a11.8 11.8 0 1 1 0-23.6 11.8 11.8 0 0 1 0 23.6" fill="#fffFE"/></g></svg>