<svg width="1200" height="675" viewBox="-500 -500 1200 675" xmlns="http://www.w3.org/2000/svg"><path d="M-500-500h1200v675h-1200z" fill="#000"/><style>.sparkles path{stroke-linecap:round; stroke-width:1}</style><g class="sparkles"><path d="M100-162.5l-16.2-17.6" stroke="#005bbb32"/><path d="M100-162.5l-52 2.1" stroke="#005bbb33"/><path d="M100-162.5l-67.3-10.3" stroke="#fff50034"/><path d="M100-162.5l-70.7-2.1" stroke="#fff50034"/><path d="M100-162.5l-64.5-66.1" stroke="#fff50035"/><path d="M100-162.5l-89.3-26.6" stroke="#c2e1ff36"/><path d="M100-162.5l-19.9 92.8" stroke="#fff36"/><path d="M100-162.5l-105.7 7.6" stroke="#fff37"/><path d="M100-162.5l101.9 31.4" stroke="#005bbb37"/><path d="M100-162.5l-55.5 92.7" stroke="#005bbb37"/><path d="M100-162.5l24.1 114.9" stroke="#005bbb38"/><path d="M100-162.5l14.3-120.7" stroke="#005bbb39"/><path d="M100-162.5l-76.8-94.4" stroke="#005bbb39"/><path d="M100-162.5l-56.4 108.7" stroke="#c2e1ff39"/><path d="M100-162.5l119-30.2" stroke="#c2e1ff39"/><path d="M100-162.5l-125.1-14.1" stroke="#c2e1ff39"/><path d="M100-162.5l140.2 26.7" stroke="#fff3C"/><path d="M100-162.5l99.2 115.9" stroke="#c2e1ff3D"/><path d="M100-162.5l15.4 155.5" stroke="#fff3E"/><path d="M100-162.5l-128.9 90" stroke="#005bbb3E"/><path d="M100-162.5l-87.5 130.6" stroke="#005bbb3E"/><path d="M100-162.5l-165.4 7" stroke="#fff40"/><path d="M100-162.5l7.4-166" stroke="#005bbb40"/><path d="M100-162.5l37.1 165.6" stroke="#c2e1ff41"/><path d="M100-162.5l120.2 120.2" stroke="#fff50041"/><path d="M100-162.5l-2-170.7" stroke="#fff41"/><path d="M100-162.5l-172.6 27.3" stroke="#c2e1ff42"/><path d="M100-162.5l-9.5 176.6" stroke="#c2e1ff42"/><path d="M100-162.5l-90.3-152.2" stroke="#c2e1ff42"/><path d="M100-162.5l-48.6-171.5" stroke="#c2e1ff43"/><path d="M100-162.5l9.5 179.4" stroke="#fff50043"/><path d="M100-162.5l-98.8 151.9" stroke="#005bbb43"/><path d="M100-162.5l74.6-165.9" stroke="#c2e1ff44"/><path d="M100-162.5l-182.2-11.4" stroke="#005bbb44"/><path d="M100-162.5l-177.1 54.1" stroke="#005bbb44"/><path d="M100-162.5l-186.4 10.3" stroke="#c2e1ff45"/><path d="M100-162.5l184.5 50.3" stroke="#fff46"/><path d="M100-162.5l145.1 124.9" stroke="#fff50046"/><path d="M100-162.5l81.5-174.2" stroke="#fff50046"/><path d="M100-162.5l-194.3 11.1" stroke="#fff47"/><path d="M100-162.5l-146.6 128.6" stroke="#fff50047"/><path d="M100-162.5l-139.9-141" stroke="#c2e1ff48"/><path d="M100-162.5l-87.6 179.1" stroke="#fff50049"/><path d="M100-162.5l62.5-190.2" stroke="#fff50049"/><path d="M100-162.5l76.3-188.3" stroke="#fff4A"/><path d="M100-162.5l126 162.7" stroke="#c2e1ff4B"/><path d="M100-162.5l-208.8 3.5" stroke="#005bbb4C"/><path d="M100-162.5l199.3 67.1" stroke="#005bbb4D"/><path d="M100-162.5l-92.8 189" stroke="#c2e1ff4D"/><path d="M100-162.5l157.1 140.9" stroke="#fff4D"/><path d="M100-162.5l177.4 114.4" stroke="#c2e1ff4D"/><path d="M100-162.5l-17.2-210.5" stroke="#fff4D"/><path d="M100-162.5l207.5-41.5" stroke="#c2e1ff4D"/><path d="M100-162.5l151.3-150.1" stroke="#c2e1ff4E"/><path d="M100-162.5l-118.6 177.9" stroke="#c2e1ff4E"/><path d="M100-162.5l-214.7-12.9" stroke="#c2e1ff4F"/><path d="M100-162.5l44.1-210.9" stroke="#c2e1ff4F"/><path d="M100-162.5l149.8 155.7" stroke="#fff4F"/><path d="M100-162.5l15 216.7" stroke="#005bbb50"/><path d="M100-162.5l157.3 150.4" stroke="#c2e1ff50"/><path d="M100-162.5l213.6-43.6" stroke="#fff50050"/><path d="M100-162.5l-91.5-198.6" stroke="#c2e1ff51"/><path d="M100-162.5l131.8-175.2" stroke="#fff50051"/><path d="M100-162.5l-169-141.9" stroke="#005bbb52"/><path d="M100-162.5l-193.7 106.7" stroke="#005bbb52"/><path d="M100-162.5l221.5 0" stroke="#fff50052"/><path d="M100-162.5l-41.7-218.3" stroke="#c2e1ff53"/><path d="M100-162.5l-14.7-221.7" stroke="#fff53"/><path d="M100-162.5l-202.2 98.5" stroke="#fff54"/><path d="M100-162.5l178.8 137.9" stroke="#005bbb55"/><path d="M100-162.5l-225.6 18.5" stroke="#005bbb55"/><path d="M100-162.5l228.5-1" stroke="#fff50057"/><path d="M100-162.5l-77.9 217.3" stroke="#fff50059"/><path d="M100-162.5l117.2 199" stroke="#fff59"/><path d="M100-162.5l-63.8 222" stroke="#005bbb59"/><path d="M100-162.5l170.2-156.7" stroke="#fff50059"/><path d="M100-162.5l74.6-219.9" stroke="#c2e1ff5A"/><path d="M100-162.5l-216 85.4" stroke="#c2e1ff5A"/><path d="M100-162.5l148.5 180.6" stroke="#005bbb5C"/><path d="M100-162.5l19.7-234.1" stroke="#005bbb5E"/><path d="M100-162.5l156.4-175.7" stroke="#fff5F"/><path d="M100-162.5l153.8 178.1" stroke="#c2e1ff5F"/><path d="M100-162.5l170.3-162.4" stroke="#fff5F"/><path d="M100-162.5l-191.3 137.2" stroke="#fff5F"/><path d="M100-162.5l-41.2-231.8" stroke="#fff5F"/><path d="M100-162.5l69.9 225.1" stroke="#fff50060"/><path d="M100-162.5l-234.1 29.6" stroke="#005bbb61"/><path d="M100-162.5l230.1-52.9" stroke="#fff62"/><path d="M100-162.5l-177.6-155.7" stroke="#005bbb62"/><path d="M100-162.5l-219.6 86.9" stroke="#fff50062"/><path d="M100-162.5l-95.5-216.1" stroke="#c2e1ff63"/><path d="M100-162.5l59.8-228.5" stroke="#005bbb64"/><path d="M100-162.5l175.3 158.1" stroke="#fff65"/><path d="M100-162.5l-168.5 165.4" stroke="#005bbb65"/><path d="M100-162.5l-65.6 226.7" stroke="#c2e1ff66"/><path d="M100-162.5l-41.9-232.2" stroke="#005bbb66"/><path d="M100-162.5l-168.9 164.6" stroke="#fff66"/><path d="M100-162.5l223.9 73.7" stroke="#c2e1ff67"/><path d="M100-162.5l-50.9-229.9" stroke="#fff50067"/><path d="M100-162.5l-217.1-91.2" stroke="#fff50067"/><path d="M100-162.5l191.3-137.3" stroke="#c2e1ff68"/><path d="M100-162.5l-154.5 177.6" stroke="#c2e1ff68"/><path d="M100-162.5l-14.2 234.8" stroke="#c2e1ff68"/><path d="M100-162.5l-95.2-214.5" stroke="#c2e1ff69"/><path d="M100-162.5l-113.8 204.6" stroke="#fff5006A"/><path d="M100-162.5l173-157.7" stroke="#fff6A"/><path d="M100-162.5l161.3 168.7" stroke="#c2e1ff6B"/><path d="M100-162.5l-231.7-27.9" stroke="#005bbb6B"/><path d="M100-162.5l220.7 73.3" stroke="#005bbb6C"/><path d="M100-162.5l-116.7-200.5" stroke="#fff6D"/><path d="M100-162.5l175.4 149.5" stroke="#c2e1ff6E"/><path d="M100-162.5l39.7-224.7" stroke="#fff70"/><path d="M100-162.5l53.1 221.8" stroke="#005bbb71"/><path d="M100-162.5l-222.2-45" stroke="#fff72"/><path d="M100-162.5l-206.3 93.7" stroke="#005bbb72"/><path d="M100-162.5l119.5 191.3" stroke="#c2e1ff72"/><path d="M100-162.5l-180.2-134.2" stroke="#005bbb73"/><path d="M100-162.5l216.7 49" stroke="#fff50075"/><path d="M100-162.5l-219.2-32.9" stroke="#c2e1ff75"/><path d="M100-162.5l221-9.7" stroke="#fff50075"/><path d="M100-162.5l92.4 200.8" stroke="#fff75"/><path d="M100-162.5l-145.5-163.5" stroke="#005bbb76"/><path d="M100-162.5l212.9-49.2" stroke="#fff50077"/><path d="M100-162.5l-209 60.5" stroke="#fff50077"/><path d="M100-162.5l-150.8 155.9" stroke="#005bbb77"/><path d="M100-162.5l-118 181.7" stroke="#005bbb77"/><path d="M100-162.5l-49.8-210" stroke="#c2e1ff78"/><path d="M100-162.5l-178.6 118.2" stroke="#c2e1ff79"/><path d="M100-162.5l190 88.3" stroke="#005bbb7B"/><path d="M100-162.5l-56.8 200.1" stroke="#c2e1ff7B"/><path d="M100-162.5l190 83.7" stroke="#fff5007B"/><path d="M100-162.5l131.6-160.3" stroke="#fff7B"/><path d="M100-162.5l40.4-203" stroke="#fff7C"/><path d="M100-162.5l-198.1 48.5" stroke="#fff7D"/><path d="M100-162.5l-137.5-147.2" stroke="#fff5007E"/><path d="M100-162.5l198.2 20.6" stroke="#fff7E"/><path d="M100-162.5l192.6-49.6" stroke="#c2e1ff7E"/><path d="M100-162.5l-191.2 51.8" stroke="#fff7F"/><path d="M100-162.5l167.3 105.5" stroke="#005bbb7F"/><path d="M100-162.5l172.2 97.2" stroke="#fff5007F"/><path d="M100-162.5l-192.1-43.9" stroke="#005bbb7F"/><path d="M100-162.5l180.1 73.8" stroke="#c2e1ff80"/><path d="M100-162.5l193.1-2.8" stroke="#c2e1ff80"/><path d="M100-162.5l91.3 162" stroke="#fff82"/><path d="M100-162.5l-142.2 116.2" stroke="#005bbb83"/><path d="M100-162.5l-175.5-32.8" stroke="#c2e1ff84"/><path d="M100-162.5l-164.6 64" stroke="#c2e1ff85"/><path d="M100-162.5l145.2-93.1" stroke="#005bbb86"/><path d="M100-162.5l-63.9 159" stroke="#c2e1ff86"/><path d="M100-162.5l-134.6 103.9" stroke="#fff86"/><path d="M100-162.5l-151.8 61.6" stroke="#c2e1ff88"/><path d="M100-162.5l41.2 158.1" stroke="#005bbb88"/><path d="M100-162.5l130.2 98.3" stroke="#fff50088"/><path d="M100-162.5l-158 37.4" stroke="#fff50088"/><path d="M100-162.5l112.9-116.6" stroke="#fff88"/><path d="M100-162.5l-123.3 100.5" stroke="#fff50088"/><path d="M100-162.5l-42.7-152.8" stroke="#c2e1ff89"/><path d="M100-162.5l-18.1-156.1" stroke="#c2e1ff89"/><path d="M100-162.5l-128.1-90.9" stroke="#fff50089"/><path d="M100-162.5l-141.3-42.6" stroke="#c2e1ff8B"/><path d="M100-162.5l-131.3 55.2" stroke="#c2e1ff8B"/><path d="M100-162.5l-71 121.8" stroke="#c2e1ff8C"/><path d="M100-162.5l124.3 30.8" stroke="#c2e1ff8E"/><path d="M100-162.5l-48.1-118.7" stroke="#c2e1ff8E"/><path d="M100-162.5l-99.5 68.2" stroke="#c2e1ff8E"/><path d="M100-162.5l53.4-104.9" stroke="#fff5008F"/><path d="M100-162.5l-116.8 0.6" stroke="#fff5008F"/><path d="M100-162.5l95.9 65.6" stroke="#fff5008F"/><path d="M100-162.5l-4.7 105.6" stroke="#005bbb90"/><path d="M100-162.5l90.9 51.1" stroke="#fff50090"/><path d="M100-162.5l65.8 78.9" stroke="#c2e1ff91"/><path d="M100-162.5l99.3 4.7" stroke="#005bbb91"/><path d="M100-162.5l4-91.7" stroke="#c2e1ff92"/><path d="M100-162.5l-51 75.4" stroke="#fff92"/><path d="M100-162.5l-15.9 88.6" stroke="#fff92"/><path d="M100-162.5l-48.3-72.7" stroke="#fff50092"/><path d="M100-162.5l-57.2 51.6" stroke="#fff50093"/><path d="M100-162.5l28.7 69.7" stroke="#fff50093"/><path d="M100-162.5l-34.8-52.8" stroke="#fff50094"/><path d="M100-162.5l-44.2 36.5" stroke="#005bbb94"/><path d="M100-162.5l-1.6-34.7" stroke="#fff95"/></g><g class="sparcs"><path d="M83.8-174.2a5.9 5.9 0 1 1 0-11.8 5.9 5.9 0 0 1 0 11.8" fill="#c2e1ff7D"/><path d="M48-154.4a6 6 0 1 1 0-12 6 6 0 0 1 0 12" fill="#005bbb7E"/><path d="M32.7-166.7a6 6 0 1 1 0-12.1 6 6 0 0 1 0 12.1" fill="#c2e1ff7F"/><path d="M29.3-158.6a6 6 0 1 1 0-12.1 6 6 0 0 1 0 12.1" fill="#fff7F"/><path d="M35.5-222.5a6.1 6.1 0 1 1 0-12.3 6.1 6.1 0 0 1 0 12.3" fill="#fff50082"/><path d="M10.7-182.9a6.1 6.1 0 1 1 0-12.3 6.1 6.1 0 0 1 0 12.3" fill="#c2e1ff82"/><path d="M80.1-63.5a6.2 6.2 0 1 1 0-12.3 6.2 6.2 0 0 1 0 12.3" fill="#c2e1ff82"/><path d="M-5.7-148.7a6.2 6.2 0 1 1 0-12.5 6.2 6.2 0 0 1 0 12.5" fill="#fff50083"/><path d="M201.9-124.8a6.2 6.2 0 1 1 0-12.5 6.2 6.2 0 0 1 0 12.5" fill="#fff50084"/><path d="M44.5-63.5a6.2 6.2 0 1 1 0-12.5 6.2 6.2 0 0 1 0 12.5" fill="#005bbb84"/><path d="M124.1-41.3a6.3 6.3 0 1 1 0-12.6 6.3 6.3 0 0 1 0 12.6" fill="#c2e1ff85"/><path d="M114.3-276.8a6.3 6.3 0 1 1 0-12.7 6.3 6.3 0 0 1 0 12.7" fill="#fff50086"/><path d="M23.2-250.6a6.3 6.3 0 1 1 0-12.6 6.3 6.3 0 0 1 0 12.6" fill="#fff86"/><path d="M43.6-47.5a6.3 6.3 0 1 1 0-12.6 6.3 6.3 0 0 1 0 12.6" fill="#fff50086"/><path d="M219-186.4a6.3 6.3 0 1 1 0-12.7 6.3 6.3 0 0 1 0 12.7" fill="#005bbb86"/><path d="M-25.1-170.2a6.4 6.4 0 1 1 0-12.7 6.4 6.4 0 0 1 0 12.7" fill="#fff50087"/><path d="M240.2-129.3a6.5 6.5 0 1 1 0-13 6.5 6.5 0 0 1 0 13" fill="#fff8A"/><path d="M199.2-40a6.6 6.6 0 1 1 0-13.2 6.6 6.6 0 0 1 0 13.2" fill="#fff8C"/><path d="M115.4-0.4a6.6 6.6 0 1 1 0-13.3 6.6 6.6 0 0 1 0 13.3" fill="#c2e1ff8D"/><path d="M-28.9-65.8a6.7 6.7 0 1 1 0-13.3 6.7 6.7 0 0 1 0 13.3" fill="#c2e1ff8D"/><path d="M12.5-25.2a6.7 6.7 0 1 1 0-13.3 6.7 6.7 0 0 1 0 13.3" fill="#c2e1ff8D"/><path d="M-65.4-148.8a6.8 6.8 0 1 1 0-13.5 6.8 6.8 0 0 1 0 13.5" fill="#005bbb8F"/><path d="M107.4-321.7a6.8 6.8 0 1 1 0-13.5 6.8 6.8 0 0 1 0 13.5" fill="#005bbb8F"/><path d="M137.1 9.9a6.8 6.8 0 1 1 0-13.6 6.8 6.8 0 0 1 0 13.6" fill="#fff50090"/><path d="M220.2-35.5a6.8 6.8 0 1 1 0-13.6 6.8 6.8 0 0 1 0 13.6" fill="#fff50090"/><path d="M98-326.4a6.8 6.8 0 1 1 0-13.7 6.8 6.8 0 0 1 0 13.7" fill="#005bbb91"/><path d="M-72.6-128.4a6.9 6.9 0 1 1 0-13.7 6.9 6.9 0 0 1 0 13.7" fill="#005bbb92"/><path d="M90.5 21a6.9 6.9 0 1 1 0-13.8 6.9 6.9 0 0 1 0 13.8" fill="#c2e1ff92"/><path d="M9.7-307.8a6.9 6.9 0 1 1 0-13.8 6.9 6.9 0 0 1 0 13.8" fill="#005bbb92"/><path d="M51.4-327.1a6.9 6.9 0 1 1 0-13.9 6.9 6.9 0 0 1 0 13.9" fill="#fff50093"/><path d="M109.5 23.8a6.9 6.9 0 1 1 0-13.8 6.9 6.9 0 0 1 0 13.8" fill="#c2e1ff93"/><path d="M1.2-3.6a7 7 0 1 1 0-14 7 7 0 0 1 0 14" fill="#c2e1ff94"/><path d="M174.6-321.5a7 7 0 1 1 0-13.9 7 7 0 0 1 0 13.9" fill="#fff50094"/><path d="M-82.2-167a7 7 0 1 1 0-13.9 7 7 0 0 1 0 13.9" fill="#c2e1ff94"/><path d="M-77.1-101.4a7 7 0 1 1 0-14 7 7 0 0 1 0 14" fill="#fff50095"/><path d="M-86.4-145.1a7 7 0 1 1 0-14.1 7 7 0 0 1 0 14.1" fill="#005bbb96"/><path d="M284.5-105a7.1 7.1 0 1 1 0-14.3 7.1 7.1 0 0 1 0 14.3" fill="#c2e1ff97"/><path d="M245.1-30.4a7.1 7.1 0 1 1 0-14.3 7.1 7.1 0 0 1 0 14.3" fill="#c2e1ff97"/><path d="M181.5-329.5a7.1 7.1 0 1 1 0-14.3 7.1 7.1 0 0 1 0 14.3" fill="#fff50098"/><path d="M-94.3-144.2a7.2 7.2 0 1 1 0-14.4 7.2 7.2 0 0 1 0 14.4" fill="#fff50099"/><path d="M-46.6-26.7a7.2 7.2 0 1 1 0-14.4 7.2 7.2 0 0 1 0 14.4" fill="#fff99"/><path d="M-39.9-296.2a7.3 7.3 0 1 1 0-14.5 7.3 7.3 0 0 1 0 14.5" fill="#005bbb9A"/><path d="M12.4 23.8a7.3 7.3 0 1 1 0-14.5 7.3 7.3 0 0 1 0 14.5" fill="#005bbb9B"/><path d="M162.5-345.4a7.3 7.3 0 1 1 0-14.6 7.3 7.3 0 0 1 0 14.6" fill="#fff9B"/><path d="M176.3-343.4a7.4 7.4 0 1 1 0-14.7 7.4 7.4 0 0 1 0 14.7" fill="#c2e1ff9C"/><path d="M226 7.6a7.4 7.4 0 1 1 0-14.8 7.4 7.4 0 0 1 0 14.8" fill="#c2e1ff9E"/><path d="M-108.8-151.6a7.5 7.5 0 1 1 0-14.9 7.5 7.5 0 0 1 0 14.9" fill="#fff9F"/><path d="M299.3-87.9a7.5 7.5 0 1 1 0-15 7.5 7.5 0 0 1 0 15" fill="#fff500A0"/><path d="M7.2 34a7.5 7.5 0 1 1 0-15 7.5 7.5 0 0 1 0 15" fill="#fffA0"/><path d="M257.1-14.1a7.5 7.5 0 1 1 0-15.1 7.5 7.5 0 0 1 0 15.1" fill="#fff500A0"/><path d="M277.4-40.5a7.5 7.5 0 1 1 0-15.1 7.5 7.5 0 0 1 0 15.1" fill="#fff500A0"/><path d="M82.8-365.5a7.5 7.5 0 1 1 0-15.1 7.5 7.5 0 0 1 0 15.1" fill="#fffA0"/><path d="M307.5-196.5a7.5 7.5 0 1 1 0-15.1 7.5 7.5 0 0 1 0 15.1" fill="#c2e1ffA1"/><path d="M251.3-305a7.6 7.6 0 1 1 0-15.2 7.6 7.6 0 0 1 0 15.2" fill="#005bbbA1"/><path d="M-18.6 23a7.6 7.6 0 1 1 0-15.2 7.6 7.6 0 0 1 0 15.2" fill="#005bbbA2"/><path d="M-114.7-167.7a7.6 7.6 0 1 1 0-15.3 7.6 7.6 0 0 1 0 15.3" fill="#c2e1ffA3"/><path d="M144.1-365.7a7.6 7.6 0 1 1 0-15.3 7.6 7.6 0 0 1 0 15.3" fill="#c2e1ffA3"/><path d="M249.8 0.9a7.7 7.7 0 1 1 0-15.4 7.7 7.7 0 0 1 0 15.4" fill="#c2e1ffA3"/><path d="M115 61.9a7.7 7.7 0 1 1 0-15.4 7.7 7.7 0 0 1 0 15.4" fill="#fffA4"/><path d="M257.3-4.3a7.7 7.7 0 1 1 0-15.5 7.7 7.7 0 0 1 0 15.5" fill="#005bbbA4"/><path d="M313.6-198.4a7.7 7.7 0 1 1 0-15.5 7.7 7.7 0 0 1 0 15.5" fill="#c2e1ffA4"/><path d="M8.5-353.4a7.7 7.7 0 1 1 0-15.5 7.7 7.7 0 0 1 0 15.5" fill="#fffA5"/><path d="M231.8-330a7.8 7.8 0 1 1 0-15.5 7.8 7.8 0 0 1 0 15.5" fill="#005bbbA5"/><path d="M-69-296.6a7.8 7.8 0 1 1 0-15.6 7.8 7.8 0 0 1 0 15.6" fill="#c2e1ffA6"/><path d="M-93.7-48a7.8 7.8 0 1 1 0-15.6 7.8 7.8 0 0 1 0 15.6" fill="#fffA7"/><path d="M321.5-154.7a7.8 7.8 0 1 1 0-15.6 7.8 7.8 0 0 1 0 15.6" fill="#c2e1ffA7"/><path d="M58.3-372.9a7.9 7.9 0 1 1 0-15.7 7.9 7.9 0 0 1 0 15.7" fill="#fff500A7"/><path d="M85.3-376.4a7.9 7.9 0 1 1 0-15.7 7.9 7.9 0 0 1 0 15.7" fill="#fffA7"/><path d="M-102.2-56.1a8 8 0 1 1 0-15.9 8 8 0 0 1 0 15.9" fill="#c2e1ffAA"/><path d="M278.8-16.7a8 8 0 1 1 0-15.9 8 8 0 0 1 0 15.9" fill="#c2e1ffAA"/><path d="M-125.6-136a8 8 0 1 1 0-16.1 8 8 0 0 1 0 16.1" fill="#fffAB"/><path d="M328.5-155.4a8.1 8.1 0 1 1 0-16.2 8.1 8.1 0 0 1 0 16.2" fill="#c2e1ffAD"/><path d="M22.1 63a8.2 8.2 0 1 1 0-16.4 8.2 8.2 0 0 1 0 16.4" fill="#c2e1ffB0"/><path d="M217.2 44.7a8.2 8.2 0 1 1 0-16.5 8.2 8.2 0 0 1 0 16.5" fill="#005bbbB0"/><path d="M36.2 67.7a8.2 8.2 0 1 1 0-16.5 8.2 8.2 0 0 1 0 16.5" fill="#c2e1ffB0"/><path d="M270.2-310.9a8.3 8.3 0 1 1 0-16.5 8.3 8.3 0 0 1 0 16.5" fill="#fff500B0"/><path d="M174.6-374.1a8.3 8.3 0 1 1 0-16.7 8.3 8.3 0 0 1 0 16.7" fill="#005bbbB2"/><path d="M-116-68.8a8.3 8.3 0 1 1 0-16.7 8.3 8.3 0 0 1 0 16.7" fill="#005bbbB2"/><path d="M248.5 26.5a8.4 8.4 0 1 1 0-16.8 8.4 8.4 0 0 1 0 16.8" fill="#fffB4"/><path d="M119.7-388.1a8.6 8.6 0 1 1 0-17.1 8.6 8.6 0 0 1 0 17.1" fill="#c2e1ffB7"/><path d="M256.4-329.6a8.6 8.6 0 1 1 0-17.1 8.6 8.6 0 0 1 0 17.1" fill="#fffB7"/><path d="M253.8 24.2a8.6 8.6 0 1 1 0-17.2 8.6 8.6 0 0 1 0 17.2" fill="#fffB8"/><path d="M270.3-316.3a8.6 8.6 0 1 1 0-17.2 8.6 8.6 0 0 1 0 17.2" fill="#fffB8"/><path d="M-91.3-16.7a8.6 8.6 0 1 1 0-17.2 8.6 8.6 0 0 1 0 17.2" fill="#fffB8"/><path d="M58.8-385.7a8.6 8.6 0 1 1 0-17.3 8.6 8.6 0 0 1 0 17.3" fill="#fff500B8"/><path d="M169.9 71.3a8.7 8.7 0 1 1 0-17.3 8.7 8.7 0 0 1 0 17.3" fill="#fff500B9"/><path d="M-134.1-124.2a8.7 8.7 0 1 1 0-17.5 8.7 8.7 0 0 1 0 17.5" fill="#fff500BB"/><path d="M330.1-206.6a8.8 8.8 0 1 1 0-17.6 8.8 8.8 0 0 1 0 17.6" fill="#005bbbBC"/><path d="M-77.6-309.4a8.8 8.8 0 1 1 0-17.6 8.8 8.8 0 0 1 0 17.6" fill="#fff500BC"/><path d="M-119.6-66.8a8.8 8.8 0 1 1 0-17.6 8.8 8.8 0 0 1 0 17.6" fill="#fffBC"/><path d="M4.5-369.7a8.8 8.8 0 1 1 0-17.7 8.8 8.8 0 0 1 0 17.7" fill="#fffBD"/><path d="M159.8-382.2a8.9 8.9 0 1 1 0-17.7 8.9 8.9 0 0 1 0 17.7" fill="#c2e1ffBE"/><path d="M275.3 4.6a9 9 0 1 1 0-17.9 9 9 0 0 1 0 17.9" fill="#c2e1ffC0"/><path d="M-68.5 11.9a9 9 0 1 1 0-18 9 9 0 0 1 0 18" fill="#fff500C0"/><path d="M34.4 73.2a9 9 0 1 1 0-17.9 9 9 0 0 1 0 17.9" fill="#fff500C0"/><path d="M58.1-385.7a9 9 0 1 1 0-18 9 9 0 0 1 0 18" fill="#fff500C1"/><path d="M-68.9 11.1a9 9 0 1 1 0-18 9 9 0 0 1 0 18" fill="#005bbbC1"/><path d="M323.9-79.7a9.1 9.1 0 1 1 0-18.1 9.1 9.1 0 0 1 0 18.1" fill="#fffC2"/><path d="M49.1-383.3a9.1 9.1 0 1 1 0-18.2 9.1 9.1 0 0 1 0 18.2" fill="#fff500C3"/><path d="M-117.1-244.7a9.1 9.1 0 1 1 0-18.1 9.1 9.1 0 0 1 0 18.1" fill="#fffC3"/><path d="M291.3-290.7a9.1 9.1 0 1 1 0-18.2 9.1 9.1 0 0 1 0 18.2" fill="#fffC3"/><path d="M-54.5 24.2a9.1 9.1 0 1 1 0-18.2 9.1 9.1 0 0 1 0 18.2" fill="#c2e1ffC3"/><path d="M85.8 81.4a9.1 9.1 0 1 1 0-18.3 9.1 9.1 0 0 1 0 18.3" fill="#fff500C4"/><path d="M4.8-367.8a9.2 9.2 0 1 1 0-18.4 9.2 9.2 0 0 1 0 18.4" fill="#c2e1ffC5"/><path d="M-13.8 51.4a9.3 9.3 0 1 1 0-18.5 9.3 9.3 0 0 1 0 18.5" fill="#c2e1ffC6"/><path d="M273-310.9a9.3 9.3 0 1 1 0-18.5 9.3 9.3 0 0 1 0 18.5" fill="#005bbbC6"/><path d="M261.3 15.5a9.3 9.3 0 1 1 0-18.6 9.3 9.3 0 0 1 0 18.6" fill="#fffC8"/><path d="M-131.7-181a9.3 9.3 0 1 1 0-18.7 9.3 9.3 0 0 1 0 18.7" fill="#fffC8"/><path d="M320.7-79.8a9.4 9.4 0 1 1 0-18.8 9.4 9.4 0 0 1 0 18.8" fill="#c2e1ffC9"/><path d="M-16.7-353.6a9.4 9.4 0 1 1 0-18.8 9.4 9.4 0 0 1 0 18.8" fill="#fff500CA"/><path d="M275.4-3.4a9.5 9.5 0 1 1 0-19.1 9.5 9.5 0 0 1 0 19.1" fill="#005bbbCC"/><path d="M139.7-377.6a9.6 9.6 0 1 1 0-19.3 9.6 9.6 0 0 1 0 19.3" fill="#005bbbCE"/><path d="M153.1 68.9a9.6 9.6 0 1 1 0-19.2 9.6 9.6 0 0 1 0 19.2" fill="#fffCE"/><path d="M-122.2-197.8a9.7 9.7 0 1 1 0-19.4 9.7 9.7 0 0 1 0 19.4" fill="#fff500D0"/><path d="M-106.3-59.1a9.7 9.7 0 1 1 0-19.4 9.7 9.7 0 0 1 0 19.4" fill="#005bbbD0"/><path d="M219.5 38.5a9.7 9.7 0 1 1 0-19.5 9.7 9.7 0 0 1 0 19.5" fill="#005bbbD1"/><path d="M-80.2-286.9a9.8 9.8 0 1 1 0-19.6 9.8 9.8 0 0 1 0 19.6" fill="#005bbbD2"/><path d="M316.7-103.7a9.9 9.9 0 1 1 0-19.7 9.9 9.9 0 0 1 0 19.7" fill="#c2e1ffD4"/><path d="M-119.2-185.5a9.9 9.9 0 1 1 0-19.8 9.9 9.9 0 0 1 0 19.8" fill="#c2e1ffD4"/><path d="M321-162.3a9.9 9.9 0 1 1 0-19.8 9.9 9.9 0 0 1 0 19.8" fill="#005bbbD4"/><path d="M192.4 48.2a9.9 9.9 0 1 1 0-19.8 9.9 9.9 0 0 1 0 19.8" fill="#005bbbD4"/><path d="M-45.5-316a10 10 0 1 1 0-20 10 10 0 0 1 0 20" fill="#fffD6"/><path d="M312.9-201.7a10 10 0 1 1 0-20 10 10 0 0 1 0 20" fill="#fff500D6"/><path d="M-109-92a10 10 0 1 1 0-20 10 10 0 0 1 0 20" fill="#c2e1ffD7"/><path d="M-50.8 3.4a10 10 0 1 1 0-20.1 10 10 0 0 1 0 20.1" fill="#fffD7"/><path d="M-18 29.2a10 10 0 1 1 0-20.1 10 10 0 0 1 0 20.1" fill="#fff500D7"/><path d="M50.2-362.5a10.1 10.1 0 1 1 0-20.1 10.1 10.1 0 0 1 0 20.1" fill="#fff500D8"/><path d="M-78.6-34.2a10.1 10.1 0 1 1 0-20.2 10.1 10.1 0 0 1 0 20.2" fill="#c2e1ffD9"/><path d="M290-63.9a10.2 10.2 0 1 1 0-20.5 10.2 10.2 0 0 1 0 20.5" fill="#fff500DC"/><path d="M43.2 47.9a10.3 10.3 0 1 1 0-20.5 10.3 10.3 0 0 1 0 20.5" fill="#fff500DC"/><path d="M290-68.5a10.3 10.3 0 1 1 0-20.6 10.3 10.3 0 0 1 0 20.6" fill="#fff500DD"/><path d="M231.6-312.5a10.3 10.3 0 1 1 0-20.5 10.3 10.3 0 0 1 0 20.5" fill="#c2e1ffDD"/><path d="M140.4-355.2a10.3 10.3 0 1 1 0-20.6 10.3 10.3 0 0 1 0 20.6" fill="#fff500DD"/><path d="M-98.1-103.7a10.3 10.3 0 1 1 0-20.7 10.3 10.3 0 0 1 0 20.7" fill="#fffDE"/><path d="M-37.5-299.3a10.4 10.4 0 1 1 0-20.8 10.4 10.4 0 0 1 0 20.8" fill="#c2e1ffDF"/><path d="M298.2-131.5a10.4 10.4 0 1 1 0-20.9 10.4 10.4 0 0 1 0 20.9" fill="#c2e1ffE0"/><path d="M292.6-201.7a10.5 10.5 0 1 1 0-20.9 10.5 10.5 0 0 1 0 20.9" fill="#005bbbE1"/><path d="M-91.2-100.3a10.5 10.5 0 1 1 0-20.9 10.5 10.5 0 0 1 0 20.9" fill="#fff500E1"/><path d="M267.3-46.5a10.5 10.5 0 1 1 0-21 10.5 10.5 0 0 1 0 21" fill="#c2e1ffE1"/><path d="M272.2-54.9a10.5 10.5 0 1 1 0-20.9 10.5 10.5 0 0 1 0 20.9" fill="#005bbbE1"/><path d="M-92.1-196a10.5 10.5 0 1 1 0-20.9 10.5 10.5 0 0 1 0 20.9" fill="#fff500E1"/><path d="M280.1-78.2a10.5 10.5 0 1 1 0-21.1 10.5 10.5 0 0 1 0 21.1" fill="#fffE2"/><path d="M293.1-154.8a10.6 10.6 0 1 1 0-21.1 10.6 10.6 0 0 1 0 21.1" fill="#fffE3"/><path d="M191.3 10.2a10.7 10.7 0 1 1 0-21.3 10.7 10.7 0 0 1 0 21.3" fill="#fff500E6"/><path d="M-42.2-35.6a10.7 10.7 0 1 1 0-21.4 10.7 10.7 0 0 1 0 21.4" fill="#c2e1ffE6"/><path d="M-75.5-184.5a10.8 10.8 0 1 1 0-21.6 10.8 10.8 0 0 1 0 21.6" fill="#fff500E8"/><path d="M-64.6-87.7a10.8 10.8 0 1 1 0-21.6 10.8 10.8 0 0 1 0 21.6" fill="#005bbbE9"/><path d="M245.2-244.7a10.9 10.9 0 1 1 0-21.8 10.9 10.9 0 0 1 0 21.8" fill="#fffEA"/><path d="M36.1 7.4a10.9 10.9 0 1 1 0-21.8 10.9 10.9 0 0 1 0 21.8" fill="#fff500EA"/><path d="M-34.6-47.7a10.9 10.9 0 1 1 0-21.8 10.9 10.9 0 0 1 0 21.8" fill="#c2e1ffEB"/><path d="M-51.8-89.9a11 11 0 1 1 0-22 11 11 0 0 1 0 22" fill="#fff500EC"/><path d="M141.2 6.5a11 11 0 1 1 0-21.9 11 11 0 0 1 0 21.9" fill="#005bbbEC"/><path d="M230.2-53.2a11 11 0 1 1 0-22 11 11 0 0 1 0 22" fill="#c2e1ffED"/><path d="M-58-114.1a11 11 0 1 1 0-22 11 11 0 0 1 0 22" fill="#c2e1ffED"/><path d="M212.9-268a11 11 0 1 1 0-22.1 11 11 0 0 1 0 22.1" fill="#fffED"/><path d="M-23.3-50.9a11 11 0 1 1 0-22.1 11 11 0 0 1 0 22.1" fill="#fff500EE"/><path d="M57.3-304.2a11 11 0 1 1 0-22.1 11 11 0 0 1 0 22.1" fill="#005bbbEE"/><path d="M81.9-307.5a11.1 11.1 0 1 1 0-22.2 11.1 11.1 0 0 1 0 22.2" fill="#fffEE"/><path d="M-28.1-242.3a11.1 11.1 0 1 1 0-22.2 11.1 11.1 0 0 1 0 22.2" fill="#c2e1ffEE"/><path d="M-41.3-193.9a11.2 11.2 0 1 1 0-22.3 11.2 11.2 0 0 1 0 22.3" fill="#c2e1ffF0"/><path d="M-31.3-96.1a11.2 11.2 0 1 1 0-22.4 11.2 11.2 0 0 1 0 22.4" fill="#fffF1"/><path d="M29-29.5a11.2 11.2 0 1 1 0-22.4 11.2 11.2 0 0 1 0 22.4" fill="#fffF2"/><path d="M224.3-120.3a11.3 11.3 0 1 1 0-22.7 11.3 11.3 0 0 1 0 22.7" fill="#fff500F4"/><path d="M51.9-269.8a11.3 11.3 0 1 1 0-22.7 11.3 11.3 0 0 1 0 22.7" fill="#c2e1ffF4"/><path d="M0.5-82.9a11.4 11.4 0 1 1 0-22.8 11.4 11.4 0 0 1 0 22.8" fill="#c2e1ffF5"/><path d="M153.4-256a11.4 11.4 0 1 1 0-22.8 11.4 11.4 0 0 1 0 22.8" fill="#c2e1ffF6"/><path d="M-16.8-150.5a11.4 11.4 0 1 1 0-22.8 11.4 11.4 0 0 1 0 22.8" fill="#005bbbF6"/><path d="M195.9-85.5a11.4 11.4 0 1 1 0-22.9 11.4 11.4 0 0 1 0 22.9" fill="#fffF6"/><path d="M95.3-45.4a11.5 11.5 0 1 1 0-23 11.5 11.5 0 0 1 0 23" fill="#c2e1ffF8"/><path d="M190.9-99.9a11.5 11.5 0 1 1 0-23 11.5 11.5 0 0 1 0 23" fill="#c2e1ffF8"/><path d="M165.8-72a11.5 11.5 0 1 1 0-23.1 11.5 11.5 0 0 1 0 23.1" fill="#005bbbF8"/><path d="M199.3-146.3a11.5 11.5 0 1 1 0-23.1 11.5 11.5 0 0 1 0 23.1" fill="#fff500F8"/><path d="M104-242.6a11.6 11.6 0 1 1 0-23.2 11.6 11.6 0 0 1 0 23.2" fill="#fffF9"/><path d="M49-75.5a11.6 11.6 0 1 1 0-23.2 11.6 11.6 0 0 1 0 23.2" fill="#005bbbF9"/><path d="M84.1-62.3a11.6 11.6 0 1 1 0-23.2 11.6 11.6 0 0 1 0 23.2" fill="#c2e1ffFA"/><path d="M51.7-223.6a11.6 11.6 0 1 1 0-23.2 11.6 11.6 0 0 1 0 23.2" fill="#fff500FA"/><path d="M42.8-99.3a11.7 11.7 0 1 1 0-23.3 11.7 11.7 0 0 1 0 23.3" fill="#c2e1ffFB"/><path d="M128.7-81.2a11.7 11.7 0 1 1 0-23.3 11.7 11.7 0 0 1 0 23.3" fill="#fff500FB"/><path d="M65.2-203.6a11.7 11.7 0 1 1 0-23.5 11.7 11.7 0 0 1 0 23.5" fill="#fffFC"/><path d="M55.8-114.3a11.7 11.7 0 1 1 0-23.4 11.7 11.7 0 0 1 0 23.4" fill="#fff500FD"/><path d="M98.4-185.4a11.8 11.8 0 1 1 0-23.6 11.8 11.8 0 0 1 0 23.6" fill="#fffFE"/></g></svg>