<svg width="1200" height="675" viewBox="-500 -500 1200 675" xmlns="http://www.w3.org/2000/svg"><path d="M-500-500h1200v675h-1200z" fill="#000"/><style>.sparkles path{stroke-linecap:round; stroke-width:1}</style><g class="sparkles"><path d="M100-162.5l-39.1 39.4" stroke="#d6282833"/><path d="M100-162.5l52.9 23.5" stroke="#d6282833"/><path d="M100-162.5l9.1-63.7" stroke="#00304933"/><path d="M100-162.5l-83.5 22" stroke="#eae2b735"/><path d="M100-162.5l-37.9-86.7" stroke="#d6282836"/><path d="M100-162.5l14.5-95.9" stroke="#00304936"/><path d="M100-162.5l-76.4-82.3" stroke="#00304938"/><path d="M100-162.5l-108.7-31.3" stroke="#d6282838"/><path d="M100-162.5l115.4-12.8" stroke="#fcbf4938"/><path d="M100-162.5l111.9 47.7" stroke="#fcbf4939"/><path d="M100-162.5l-96.9 80" stroke="#fcbf4939"/><path d="M100-162.5l-11-129.3" stroke="#0030493A"/><path d="M100-162.5l-22.2 131.2" stroke="#fcbf493A"/><path d="M100-162.5l139.3 25.6" stroke="#eae2b73B"/><path d="M100-162.5l27.7 142" stroke="#d628283C"/><path d="M100-162.5l-48.1 137.6" stroke="#fcbf493C"/><path d="M100-162.5l-126.6-76.8" stroke="#eae2b73D"/><path d="M100-162.5l-139.7 52.2" stroke="#fcbf493D"/><path d="M100-162.5l-105 110.3" stroke="#eae2b73D"/><path d="M100-162.5l16.4 153.4" stroke="#fcbf493E"/><path d="M100-162.5l-96.7-129.3" stroke="#0030493F"/><path d="M100-162.5l-9.2 165.5" stroke="#eae2b740"/><path d="M100-162.5l149.7 76.1" stroke="#fcbf4940"/><path d="M100-162.5l167.3-19.7" stroke="#00304940"/><path d="M100-162.5l-168.4 10.9" stroke="#00304941"/><path d="M100-162.5l99.5-139" stroke="#d6282841"/><path d="M100-162.5l-145.1-93.9" stroke="#00304941"/><path d="M100-162.5l-111.1-134.6" stroke="#fcbf4942"/><path d="M100-162.5l-134.9-112.3" stroke="#fcbf4942"/><path d="M100-162.5l51.8 170.5" stroke="#d6282843"/><path d="M100-162.5l-156.5-86.4" stroke="#00304943"/><path d="M100-162.5l77.8 166.4" stroke="#00304944"/><path d="M100-162.5l188.5-12.8" stroke="#eae2b745"/><path d="M100-162.5l-131.7 136.7" stroke="#fcbf4946"/><path d="M100-162.5l115.7-150.5" stroke="#d6282846"/><path d="M100-162.5l-14.5 192.6" stroke="#d6282847"/><path d="M100-162.5l90.1 171.7" stroke="#eae2b747"/><path d="M100-162.5l-21.9 194.1" stroke="#f77f0047"/><path d="M100-162.5l54.9 189.7" stroke="#00304948"/><path d="M100-162.5l198.5 10.6" stroke="#eae2b748"/><path d="M100-162.5l-152 131.2" stroke="#f77f0049"/><path d="M100-162.5l107.8 169.4" stroke="#00304949"/><path d="M100-162.5l177.8-95.4" stroke="#eae2b74A"/><path d="M100-162.5l-201.1 25.3" stroke="#d628284A"/><path d="M100-162.5l-18.3-202.1" stroke="#fcbf494A"/><path d="M100-162.5l-158.4-127" stroke="#fcbf494A"/><path d="M100-162.5l8.7 204.7" stroke="#f77f004B"/><path d="M100-162.5l-75.5 191.2" stroke="#fcbf494B"/><path d="M100-162.5l-203.5 45.5" stroke="#0030494C"/><path d="M100-162.5l67.4 197.4" stroke="#d628284C"/><path d="M100-162.5l59.4 201.7" stroke="#f77f004D"/><path d="M100-162.5l-19.5 211.3" stroke="#eae2b74E"/><path d="M100-162.5l103.7-186.1" stroke="#fcbf494E"/><path d="M100-162.5l-209.6 41.1" stroke="#0030494E"/><path d="M100-162.5l74.9-202.1" stroke="#0030494F"/><path d="M100-162.5l195.7 92.5" stroke="#eae2b74F"/><path d="M100-162.5l41.1 215" stroke="#d6282851"/><path d="M100-162.5l-217.3 29.4" stroke="#d6282851"/><path d="M100-162.5l-171.3-139.6" stroke="#00304952"/><path d="M100-162.5l111.6 191.7" stroke="#00304952"/><path d="M100-162.5l220.9-35.1" stroke="#fcbf4953"/><path d="M100-162.5l-219.2-46" stroke="#d6282854"/><path d="M100-162.5l222.7-28.7" stroke="#d6282854"/><path d="M100-162.5l-61.5 217" stroke="#d6282855"/><path d="M100-162.5l-207.1-89.6" stroke="#eae2b755"/><path d="M100-162.5l-213.2-77.7" stroke="#fcbf4956"/><path d="M100-162.5l92 208.2" stroke="#fcbf4956"/><path d="M100-162.5l-52.3 221.7" stroke="#d6282856"/><path d="M100-162.5l-184.5-134.9" stroke="#d6282857"/><path d="M100-162.5l169.2 155.1" stroke="#f77f0058"/><path d="M100-162.5l-227-36.3" stroke="#d6282858"/><path d="M100-162.5l5.6 230.5" stroke="#eae2b759"/><path d="M100-162.5l-141.5-183.2" stroke="#f77f0059"/><path d="M100-162.5l77.9 218" stroke="#fcbf495A"/><path d="M100-162.5l-156.2-171.5" stroke="#eae2b75A"/><path d="M100-162.5l-4.4-232.3" stroke="#fcbf495A"/><path d="M100-162.5l119.3 199.6" stroke="#0030495B"/><path d="M100-162.5l-227.9-49.6" stroke="#fcbf495C"/><path d="M100-162.5l179.6-150.2" stroke="#0030495D"/><path d="M100-162.5l139.3 189" stroke="#eae2b75E"/><path d="M100-162.5l25.9 233.6" stroke="#d628285E"/><path d="M100-162.5l234.4 21.5" stroke="#0030495F"/><path d="M100-162.5l-60.2-227.6" stroke="#fcbf495F"/><path d="M100-162.5l167.4 166.5" stroke="#f77f0062"/><path d="M100-162.5l-117.5 204.9" stroke="#eae2b762"/><path d="M100-162.5l-8.8 236" stroke="#d6282862"/><path d="M100-162.5l120 203.5" stroke="#fcbf4962"/><path d="M100-162.5l170.2-163.9" stroke="#f77f0063"/><path d="M100-162.5l-229-58" stroke="#fcbf4963"/><path d="M100-162.5l30.1-234.3" stroke="#d6282863"/><path d="M100-162.5l89.4 218.7" stroke="#fcbf4964"/><path d="M100-162.5l-146.8-185.1" stroke="#fcbf4964"/><path d="M100-162.5l200.2 125.2" stroke="#f77f0065"/><path d="M100-162.5l88.2-219" stroke="#f77f0065"/><path d="M100-162.5l-137.6 191.8" stroke="#d6282866"/><path d="M100-162.5l221.8 80.8" stroke="#f77f0066"/><path d="M100-162.5l-203.6 118.2" stroke="#eae2b768"/><path d="M100-162.5l112.9-205.3" stroke="#eae2b76A"/><path d="M100-162.5l193.7-131.7" stroke="#0030496A"/><path d="M100-162.5l-45.1 229.7" stroke="#fcbf496A"/><path d="M100-162.5l202.8 116.2" stroke="#f77f006B"/><path d="M100-162.5l-20.8-231.4" stroke="#d628286D"/><path d="M100-162.5l-218.8 76.6" stroke="#0030496D"/><path d="M100-162.5l137.4-185.7" stroke="#0030496E"/><path d="M100-162.5l-58 222.5" stroke="#eae2b76F"/><path d="M100-162.5l195.1 119" stroke="#f77f0070"/><path d="M100-162.5l-204.4-99.2" stroke="#d6282871"/><path d="M100-162.5l175.2-144.3" stroke="#00304971"/><path d="M100-162.5l169.5-149.9" stroke="#d6282872"/><path d="M100-162.5l200.9 101.4" stroke="#f77f0073"/><path d="M100-162.5l79.5-210.1" stroke="#eae2b773"/><path d="M100-162.5l-80.7 209" stroke="#00304973"/><path d="M100-162.5l-162.7 151.8" stroke="#d6282874"/><path d="M100-162.5l-10.4-220.7" stroke="#f77f0075"/><path d="M100-162.5l-120.2 183.3" stroke="#eae2b776"/><path d="M100-162.5l-211.5 53.9" stroke="#00304977"/><path d="M100-162.5l-49.9 210.6" stroke="#d6282878"/><path d="M100-162.5l-115.2 183" stroke="#f77f0078"/><path d="M100-162.5l173.7 127.8" stroke="#eae2b778"/><path d="M100-162.5l-158.6 145.2" stroke="#f77f0078"/><path d="M100-162.5l-209 46.8" stroke="#f77f0079"/><path d="M100-162.5l209.9-34.2" stroke="#fcbf4979"/><path d="M100-162.5l-137.5-160.4" stroke="#fcbf497A"/><path d="M100-162.5l122.8-169.5" stroke="#fcbf497B"/><path d="M100-162.5l-79.1-189.6" stroke="#fcbf497C"/><path d="M100-162.5l-110.1-171" stroke="#fcbf497D"/><path d="M100-162.5l-130.4 156" stroke="#eae2b77D"/><path d="M100-162.5l201.9 0" stroke="#0030497D"/><path d="M100-162.5l-160.9-121.8" stroke="#0030497D"/><path d="M100-162.5l118-163.2" stroke="#f77f007E"/><path d="M100-162.5l-189.8 65.9" stroke="#f77f007E"/><path d="M100-162.5l-122.4-157.3" stroke="#d628287E"/><path d="M100-162.5l155.8-116.1" stroke="#f77f0080"/><path d="M100-162.5l-115.4-155.5" stroke="#f77f0080"/><path d="M100-162.5l-118.8-149.2" stroke="#fcbf4981"/><path d="M100-162.5l-85.6-169.1" stroke="#f77f0081"/><path d="M100-162.5l135.5 131" stroke="#eae2b782"/><path d="M100-162.5l-87.8-164.8" stroke="#f77f0082"/><path d="M100-162.5l10.3 185.4" stroke="#eae2b782"/><path d="M100-162.5l27 183.4" stroke="#fcbf4983"/><path d="M100-162.5l-138 119.8" stroke="#f77f0083"/><path d="M100-162.5l29 179.7" stroke="#eae2b783"/><path d="M100-162.5l-84.3-160" stroke="#d6282884"/><path d="M100-162.5l76.1 161.8" stroke="#f77f0084"/><path d="M100-162.5l-128.7-122" stroke="#fcbf4985"/><path d="M100-162.5l99.5 146.6" stroke="#00304985"/><path d="M100-162.5l30.2-172.1" stroke="#f77f0085"/><path d="M100-162.5l24.1-171.8" stroke="#eae2b785"/><path d="M100-162.5l65.9 158.1" stroke="#00304986"/><path d="M100-162.5l164.8 43.8" stroke="#fcbf4986"/><path d="M100-162.5l158.8-60.8" stroke="#f77f0086"/><path d="M100-162.5l0.7 166.3" stroke="#fcbf4987"/><path d="M100-162.5l-94.3 136.7" stroke="#00304987"/><path d="M100-162.5l-75 147.9" stroke="#f77f0087"/><path d="M100-162.5l71.5-147.9" stroke="#fcbf4987"/><path d="M100-162.5l-150.2 65.8" stroke="#fcbf4988"/><path d="M100-162.5l-107.1-117.9" stroke="#fcbf4988"/><path d="M100-162.5l-130.9 87.9" stroke="#d6282889"/><path d="M100-162.5l133.5-83.6" stroke="#fcbf4989"/><path d="M100-162.5l152.9 35.5" stroke="#eae2b789"/><path d="M100-162.5l-150.3 36.4" stroke="#d6282889"/><path d="M100-162.5l-75.4-133.5" stroke="#d628288A"/><path d="M100-162.5l-19.3 149.7" stroke="#f77f008A"/><path d="M100-162.5l-139.6 42.9" stroke="#f77f008B"/><path d="M100-162.5l-93.2 110.8" stroke="#fcbf498B"/><path d="M100-162.5l133.2 40.1" stroke="#f77f008C"/><path d="M100-162.5l-63.9-123.4" stroke="#eae2b78C"/><path d="M100-162.5l-63-121.2" stroke="#f77f008C"/><path d="M100-162.5l-51.7-124.9" stroke="#eae2b78D"/><path d="M100-162.5l81.9-99.2" stroke="#fcbf498D"/><path d="M100-162.5l-72.9-103.2" stroke="#0030498E"/><path d="M100-162.5l122.2-29.5" stroke="#fcbf498E"/><path d="M100-162.5l60.7-108.7" stroke="#f77f008E"/><path d="M100-162.5l-91.5-82.8" stroke="#eae2b78E"/><path d="M100-162.5l-86.6-71.7" stroke="#d628288F"/><path d="M100-162.5l43.8 99.3" stroke="#d6282890"/><path d="M100-162.5l-57.3-76.5" stroke="#eae2b791"/><path d="M100-162.5l60 4" stroke="#f77f0094"/><path d="M100-162.5l20.2-38.9" stroke="#fcbf4995"/><path d="M100-162.5l-35.3-22.8" stroke="#00304995"/><path d="M100-162.5l-21.2-33.5" stroke="#fcbf4995"/></g><g class="sparcs"><path d="M60.9-117.1a6 6 0 1 1 0-12 6 6 0 0 1 0 12" fill="#0030497E"/><path d="M152.9-133a6 6 0 1 1 0-12 6 6 0 0 1 0 12" fill="#fcbf497E"/><path d="M109.1-220.2a6 6 0 1 1 0-12 6 6 0 0 1 0 12" fill="#eae2b77F"/><path d="M16.5-134.4a6.1 6.1 0 1 1 0-12.2 6.1 6.1 0 0 1 0 12.2" fill="#f77f0081"/><path d="M62.1-243.1a6.2 6.2 0 1 1 0-12.3 6.2 6.2 0 0 1 0 12.3" fill="#eae2b782"/><path d="M114.5-252.2a6.2 6.2 0 1 1 0-12.4 6.2 6.2 0 0 1 0 12.4" fill="#eae2b782"/><path d="M23.6-238.5a6.3 6.3 0 1 1 0-12.6 6.3 6.3 0 0 1 0 12.6" fill="#eae2b784"/><path d="M-8.7-187.6a6.3 6.3 0 1 1 0-12.5 6.3 6.3 0 0 1 0 12.5" fill="#f77f0084"/><path d="M215.4-169a6.3 6.3 0 1 1 0-12.6 6.3 6.3 0 0 1 0 12.6" fill="#d6282885"/><path d="M211.9-108.5a6.3 6.3 0 1 1 0-12.6 6.3 6.3 0 0 1 0 12.6" fill="#f77f0086"/><path d="M3.1-76.2a6.4 6.4 0 1 1 0-12.7 6.4 6.4 0 0 1 0 12.7" fill="#eae2b786"/><path d="M89-285.4a6.4 6.4 0 1 1 0-12.8 6.4 6.4 0 0 1 0 12.8" fill="#00304987"/><path d="M77.8-24.9a6.4 6.4 0 1 1 0-12.8 6.4 6.4 0 0 1 0 12.8" fill="#eae2b788"/><path d="M239.3-130.4a6.5 6.5 0 1 1 0-13 6.5 6.5 0 0 1 0 13" fill="#00304989"/><path d="M127.7-13.9a6.5 6.5 0 1 1 0-13.1 6.5 6.5 0 0 1 0 13.1" fill="#eae2b78A"/><path d="M51.9-18.4a6.5 6.5 0 1 1 0-13.1 6.5 6.5 0 0 1 0 13.1" fill="#0030498A"/><path d="M-26.6-232.7a6.6 6.6 0 1 1 0-13.2 6.6 6.6 0 0 1 0 13.2" fill="#eae2b78B"/><path d="M-39.7-103.7a6.6 6.6 0 1 1 0-13.1 6.6 6.6 0 0 1 0 13.1" fill="#d628288B"/><path d="M-5-45.6a6.6 6.6 0 1 1 0-13.2 6.6 6.6 0 0 1 0 13.2" fill="#fcbf498C"/><path d="M116.4-2.5a6.6 6.6 0 1 1 0-13.2 6.6 6.6 0 0 1 0 13.2" fill="#fcbf498C"/><path d="M3.3-285.1a6.7 6.7 0 1 1 0-13.4 6.7 6.7 0 0 1 0 13.4" fill="#0030498E"/><path d="M90.8 9.8a6.8 6.8 0 1 1 0-13.5 6.8 6.8 0 0 1 0 13.5" fill="#d628288F"/><path d="M249.7-79.6a6.8 6.8 0 1 1 0-13.6 6.8 6.8 0 0 1 0 13.6" fill="#fcbf4990"/><path d="M267.3-175.4a6.8 6.8 0 1 1 0-13.6 6.8 6.8 0 0 1 0 13.6" fill="#00304990"/><path d="M-68.4-144.8a6.8 6.8 0 1 1 0-13.6 6.8 6.8 0 0 1 0 13.6" fill="#eae2b790"/><path d="M199.5-294.6a6.8 6.8 0 1 1 0-13.7 6.8 6.8 0 0 1 0 13.7" fill="#fcbf4991"/><path d="M-45.1-249.5a6.8 6.8 0 1 1 0-13.7 6.8 6.8 0 0 1 0 13.7" fill="#eae2b791"/><path d="M-11.1-290.3a6.9 6.9 0 1 1 0-13.7 6.9 6.9 0 0 1 0 13.7" fill="#d6282892"/><path d="M-34.9-267.9a6.9 6.9 0 1 1 0-13.8 6.9 6.9 0 0 1 0 13.8" fill="#eae2b792"/><path d="M151.8 15a6.9 6.9 0 1 1 0-13.9 6.9 6.9 0 0 1 0 13.9" fill="#00304993"/><path d="M-56.5-242a6.9 6.9 0 1 1 0-13.8 6.9 6.9 0 0 1 0 13.8" fill="#d6282893"/><path d="M177.8 10.9a7 7 0 1 1 0-14 7 7 0 0 1 0 14" fill="#d6282895"/><path d="M288.5-168.2a7.1 7.1 0 1 1 0-14.2 7.1 7.1 0 0 1 0 14.2" fill="#eae2b796"/><path d="M-31.7-18.7a7.1 7.1 0 1 1 0-14.2 7.1 7.1 0 0 1 0 14.2" fill="#fcbf4997"/><path d="M215.7-305.9a7.1 7.1 0 1 1 0-14.2 7.1 7.1 0 0 1 0 14.2" fill="#fcbf4997"/><path d="M85.5 37.3a7.2 7.2 0 1 1 0-14.3 7.2 7.2 0 0 1 0 14.3" fill="#f77f0098"/><path d="M190.1 16.3a7.2 7.2 0 1 1 0-14.3 7.2 7.2 0 0 1 0 14.3" fill="#d6282898"/><path d="M78.1 38.8a7.2 7.2 0 1 1 0-14.4 7.2 7.2 0 0 1 0 14.4" fill="#d6282899"/><path d="M154.9 34.4a7.2 7.2 0 1 1 0-14.4 7.2 7.2 0 0 1 0 14.4" fill="#0030499A"/><path d="M298.5-144.7a7.3 7.3 0 1 1 0-14.5 7.3 7.3 0 0 1 0 14.5" fill="#d628289A"/><path d="M-52-24a7.3 7.3 0 1 1 0-14.6 7.3 7.3 0 0 1 0 14.6" fill="#d628289B"/><path d="M207.8 14.2a7.3 7.3 0 1 1 0-14.6 7.3 7.3 0 0 1 0 14.6" fill="#fcbf499B"/><path d="M277.8-250.6a7.3 7.3 0 1 1 0-14.6 7.3 7.3 0 0 1 0 14.6" fill="#0030499C"/><path d="M-101.1-129.9a7.3 7.3 0 1 1 0-14.6 7.3 7.3 0 0 1 0 14.6" fill="#eae2b79C"/><path d="M81.7-357.2a7.3 7.3 0 1 1 0-14.7 7.3 7.3 0 0 1 0 14.7" fill="#eae2b79C"/><path d="M-58.4-282.1a7.3 7.3 0 1 1 0-14.7 7.3 7.3 0 0 1 0 14.7" fill="#eae2b79C"/><path d="M108.7 49.6a7.4 7.4 0 1 1 0-14.7 7.4 7.4 0 0 1 0 14.7" fill="#f77f009D"/><path d="M24.5 36.1a7.4 7.4 0 1 1 0-14.8 7.4 7.4 0 0 1 0 14.8" fill="#fcbf499D"/><path d="M-103.5-109.5a7.5 7.5 0 1 1 0-14.9 7.5 7.5 0 0 1 0 14.9" fill="#d628289F"/><path d="M167.4 42.3a7.5 7.5 0 1 1 0-14.9 7.5 7.5 0 0 1 0 14.9" fill="#f77f009F"/><path d="M159.4 46.7a7.5 7.5 0 1 1 0-15 7.5 7.5 0 0 1 0 15" fill="#fcbf49A0"/><path d="M80.5 56.3a7.6 7.6 0 1 1 0-15.1 7.6 7.6 0 0 1 0 15.1" fill="#fcbf49A1"/><path d="M203.7-341a7.6 7.6 0 1 1 0-15.2 7.6 7.6 0 0 1 0 15.2" fill="#f77f00A1"/><path d="M-109.6-113.8a7.6 7.6 0 1 1 0-15.2 7.6 7.6 0 0 1 0 15.2" fill="#003049A2"/><path d="M174.9-357a7.7 7.7 0 1 1 0-15.3 7.7 7.7 0 0 1 0 15.3" fill="#f77f00A3"/><path d="M295.7-62.3a7.7 7.7 0 1 1 0-15.4 7.7 7.7 0 0 1 0 15.4" fill="#003049A3"/><path d="M141.1 60.2a7.7 7.7 0 1 1 0-15.5 7.7 7.7 0 0 1 0 15.5" fill="#003049A5"/><path d="M-117.3-125.3a7.8 7.8 0 1 1 0-15.5 7.8 7.8 0 0 1 0 15.5" fill="#f77f00A5"/><path d="M-71.3-294.3a7.8 7.8 0 1 1 0-15.6 7.8 7.8 0 0 1 0 15.6" fill="#d62828A7"/><path d="M211.6 37a7.8 7.8 0 1 1 0-15.7 7.8 7.8 0 0 1 0 15.7" fill="#eae2b7A7"/><path d="M320.9-189.7a7.9 7.9 0 1 1 0-15.8 7.9 7.9 0 0 1 0 15.8" fill="#f77f00A9"/><path d="M-119.2-200.6a7.9 7.9 0 1 1 0-15.8 7.9 7.9 0 0 1 0 15.8" fill="#d62828A9"/><path d="M322.7-183.2a7.9 7.9 0 1 1 0-15.9 7.9 7.9 0 0 1 0 15.9" fill="#eae2b7A9"/><path d="M38.5 62.5a8 8 0 1 1 0-15.9 8 8 0 0 1 0 15.9" fill="#f77f00AA"/><path d="M-107.1-244.1a8 8 0 1 1 0-16 8 8 0 0 1 0 16" fill="#d62828AA"/><path d="M-113.2-232.2a8 8 0 1 1 0-16.1 8 8 0 0 1 0 16.1" fill="#003049AB"/><path d="M192 53.7a8.1 8.1 0 1 1 0-16.1 8.1 8.1 0 0 1 0 16.1" fill="#d62828AC"/><path d="M47.7 67.3a8.1 8.1 0 1 1 0-16.1 8.1 8.1 0 0 1 0 16.1" fill="#f77f00AC"/><path d="M-84.5-289.3a8.1 8.1 0 1 1 0-16.2 8.1 8.1 0 0 1 0 16.2" fill="#eae2b7AD"/><path d="M269.2 0.8a8.2 8.2 0 1 1 0-16.4 8.2 8.2 0 0 1 0 16.4" fill="#eae2b7AE"/><path d="M-127-190.7a8.2 8.2 0 1 1 0-16.3 8.2 8.2 0 0 1 0 16.3" fill="#eae2b7AE"/><path d="M105.6 76.3a8.2 8.2 0 1 1 0-16.5 8.2 8.2 0 0 1 0 16.5" fill="#f77f00AF"/><path d="M-41.5-337.4a8.3 8.3 0 1 1 0-16.5 8.3 8.3 0 0 1 0 16.5" fill="#003049B0"/><path d="M177.9 63.8a8.3 8.3 0 1 1 0-16.6 8.3 8.3 0 0 1 0 16.6" fill="#eae2b7B1"/><path d="M-56.2-325.7a8.3 8.3 0 1 1 0-16.6 8.3 8.3 0 0 1 0 16.6" fill="#f77f00B1"/><path d="M95.6-386.4a8.3 8.3 0 1 1 0-16.7 8.3 8.3 0 0 1 0 16.7" fill="#003049B2"/><path d="M219.3 45.4a8.3 8.3 0 1 1 0-16.6 8.3 8.3 0 0 1 0 16.6" fill="#fcbf49B2"/><path d="M-127.9-203.8a8.4 8.4 0 1 1 0-16.7 8.4 8.4 0 0 1 0 16.7" fill="#fcbf49B3"/><path d="M279.6-304.3a8.5 8.5 0 1 1 0-16.9 8.5 8.5 0 0 1 0 16.9" fill="#003049B5"/><path d="M239.3 35a8.5 8.5 0 1 1 0-17 8.5 8.5 0 0 1 0 17" fill="#d62828B6"/><path d="M125.9 79.7a8.6 8.6 0 1 1 0-17.1 8.6 8.6 0 0 1 0 17.1" fill="#eae2b7B7"/><path d="M334.4-132.4a8.6 8.6 0 1 1 0-17.2 8.6 8.6 0 0 1 0 17.2" fill="#d62828B8"/><path d="M39.8-381.5a8.6 8.6 0 1 1 0-17.2 8.6 8.6 0 0 1 0 17.2" fill="#f77f00B8"/><path d="M267.4 12.8a8.8 8.8 0 1 1 0-17.5 8.8 8.8 0 0 1 0 17.5" fill="#003049BB"/><path d="M-17.5 51.2a8.8 8.8 0 1 1 0-17.6 8.8 8.8 0 0 1 0 17.6" fill="#003049BC"/><path d="M91.2 82.3a8.8 8.8 0 1 1 0-17.6 8.8 8.8 0 0 1 0 17.6" fill="#003049BC"/><path d="M220 49.8a8.8 8.8 0 1 1 0-17.6 8.8 8.8 0 0 1 0 17.6" fill="#f77f00BC"/><path d="M270.2-317.5a8.8 8.8 0 1 1 0-17.7 8.8 8.8 0 0 1 0 17.7" fill="#d62828BD"/><path d="M-129-211.6a8.8 8.8 0 1 1 0-17.7 8.8 8.8 0 0 1 0 17.7" fill="#003049BD"/><path d="M130.1-388a8.9 8.9 0 1 1 0-17.7 8.9 8.9 0 0 1 0 17.7" fill="#003049BD"/><path d="M189.4 65a8.9 8.9 0 1 1 0-17.7 8.9 8.9 0 0 1 0 17.7" fill="#fcbf49BE"/><path d="M-46.8-338.7a8.9 8.9 0 1 1 0-17.8 8.9 8.9 0 0 1 0 17.8" fill="#d62828BF"/><path d="M300.2-28.3a9 9 0 1 1 0-17.9 9 9 0 0 1 0 17.9" fill="#eae2b7C0"/><path d="M188.2-372.6a9 9 0 1 1 0-17.9 9 9 0 0 1 0 17.9" fill="#f77f00C0"/><path d="M-37.6 38.3a9 9 0 1 1 0-18 9 9 0 0 1 0 18" fill="#fcbf49C0"/><path d="M321.8-72.7a9 9 0 1 1 0-18 9 9 0 0 1 0 18" fill="#d62828C0"/><path d="M-103.6-35.2a9.1 9.1 0 1 1 0-18.2 9.1 9.1 0 0 1 0 18.2" fill="#d62828C3"/><path d="M212.9-358.6a9.2 9.2 0 1 1 0-18.5 9.2 9.2 0 0 1 0 18.5" fill="#f77f00C6"/><path d="M293.7-285a9.2 9.2 0 1 1 0-18.5 9.2 9.2 0 0 1 0 18.5" fill="#fcbf49C6"/><path d="M54.9 76.4a9.3 9.3 0 1 1 0-18.5 9.3 9.3 0 0 1 0 18.5" fill="#f77f00C6"/><path d="M302.8-37a9.3 9.3 0 1 1 0-18.6 9.3 9.3 0 0 1 0 18.6" fill="#f77f00C7"/><path d="M79.2-384.5a9.4 9.4 0 1 1 0-18.8 9.4 9.4 0 0 1 0 18.8" fill="#eae2b7C9"/><path d="M-118.8-76.5a9.4 9.4 0 1 1 0-18.8 9.4 9.4 0 0 1 0 18.8" fill="#fcbf49CA"/><path d="M237.4-338.7a9.5 9.5 0 1 1 0-19 9.5 9.5 0 0 1 0 19" fill="#d62828CB"/><path d="M42 69.6a9.5 9.5 0 1 1 0-19.1 9.5 9.5 0 0 1 0 19.1" fill="#f77f00CC"/><path d="M295.1-33.9a9.6 9.6 0 1 1 0-19.2 9.6 9.6 0 0 1 0 19.2" fill="#fcbf49CE"/><path d="M-104.4-252.1a9.7 9.7 0 1 1 0-19.3 9.7 9.7 0 0 1 0 19.3" fill="#eae2b7CF"/><path d="M275.2-297.1a9.7 9.7 0 1 1 0-19.3 9.7 9.7 0 0 1 0 19.3" fill="#d62828D0"/><path d="M269.5-302.7a9.7 9.7 0 1 1 0-19.5 9.7 9.7 0 0 1 0 19.5" fill="#d62828D0"/><path d="M300.9-51.3a9.8 9.8 0 1 1 0-19.5 9.8 9.8 0 0 1 0 19.5" fill="#eae2b7D1"/><path d="M179.5-362.8a9.8 9.8 0 1 1 0-19.6 9.8 9.8 0 0 1 0 19.6" fill="#d62828D2"/><path d="M19.3 56.3a9.8 9.8 0 1 1 0-19.5 9.8 9.8 0 0 1 0 19.5" fill="#f77f00D2"/><path d="M-62.7-0.9a9.9 9.9 0 1 1 0-19.7 9.9 9.9 0 0 1 0 19.7" fill="#d62828D3"/><path d="M89.6-373.3a9.9 9.9 0 1 1 0-19.9 9.9 9.9 0 0 1 0 19.9" fill="#f77f00D4"/><path d="M-20.2 30.8a10 10 0 1 1 0-19.9 10 10 0 0 1 0 19.9" fill="#003049D6"/><path d="M-111.5-98.6a10 10 0 1 1 0-20 10 10 0 0 1 0 20" fill="#fcbf49D6"/><path d="M50.1 58.2a10 10 0 1 1 0-20.1 10 10 0 0 1 0 20.1" fill="#eae2b7D8"/><path d="M-15.2 30.5a10 10 0 1 1 0-20.1 10 10 0 0 1 0 20.1" fill="#fcbf49D8"/><path d="M273.7-24.6a10.1 10.1 0 1 1 0-20.1 10.1 10.1 0 0 1 0 20.1" fill="#fcbf49D8"/><path d="M-58.6-7.2a10.1 10.1 0 1 1 0-20.1 10.1 10.1 0 0 1 0 20.1" fill="#eae2b7D8"/><path d="M-109-105.6a10.1 10.1 0 1 1 0-20.2 10.1 10.1 0 0 1 0 20.2" fill="#d62828D9"/><path d="M309.9-186.5a10.1 10.1 0 1 1 0-20.3 10.1 10.1 0 0 1 0 20.3" fill="#fcbf49DA"/><path d="M-37.5-312.7a10.2 10.2 0 1 1 0-20.4 10.2 10.2 0 0 1 0 20.4" fill="#f77f00DB"/><path d="M222.8-321.8a10.2 10.2 0 1 1 0-20.4 10.2 10.2 0 0 1 0 20.4" fill="#003049DC"/><path d="M20.9-341.8a10.3 10.3 0 1 1 0-20.6 10.3 10.3 0 0 1 0 20.6" fill="#d62828DE"/><path d="M-10.1-323.1a10.4 10.4 0 1 1 0-20.8 10.4 10.4 0 0 1 0 20.8" fill="#fcbf49DF"/><path d="M-30.4 3.8a10.4 10.4 0 1 1 0-20.7 10.4 10.4 0 0 1 0 20.7" fill="#003049DF"/><path d="M301.9-152.1a10.4 10.4 0 1 1 0-20.8 10.4 10.4 0 0 1 0 20.8" fill="#fcbf49DF"/><path d="M-60.9-273.9a10.4 10.4 0 1 1 0-20.8 10.4 10.4 0 0 1 0 20.8" fill="#003049DF"/><path d="M218-315.3a10.4 10.4 0 1 1 0-20.8 10.4 10.4 0 0 1 0 20.8" fill="#f77f00DF"/><path d="M-89.8-86.2a10.4 10.4 0 1 1 0-20.8 10.4 10.4 0 0 1 0 20.8" fill="#eae2b7E0"/><path d="M-22.4-309.4a10.4 10.4 0 1 1 0-20.9 10.4 10.4 0 0 1 0 20.9" fill="#003049E0"/><path d="M255.8-268.1a10.5 10.5 0 1 1 0-21 10.5 10.5 0 0 1 0 21" fill="#d62828E2"/><path d="M-15.4-307.4a10.6 10.6 0 1 1 0-21.1 10.6 10.6 0 0 1 0 21.1" fill="#003049E3"/><path d="M-18.8-301.1a10.6 10.6 0 1 1 0-21.2 10.6 10.6 0 0 1 0 21.2" fill="#003049E4"/><path d="M14.4-321a10.6 10.6 0 1 1 0-21.3 10.6 10.6 0 0 1 0 21.3" fill="#eae2b7E4"/><path d="M235.5-20.8a10.6 10.6 0 1 1 0-21.3 10.6 10.6 0 0 1 0 21.3" fill="#eae2b7E5"/><path d="M12.2-316.6a10.7 10.7 0 1 1 0-21.3 10.7 10.7 0 0 1 0 21.3" fill="#fcbf49E5"/><path d="M110.3 33.6a10.7 10.7 0 1 1 0-21.4 10.7 10.7 0 0 1 0 21.4" fill="#eae2b7E6"/><path d="M127 31.5a10.7 10.7 0 1 1 0-21.3 10.7 10.7 0 0 1 0 21.3" fill="#eae2b7E6"/><path d="M-38-32a10.7 10.7 0 1 1 0-21.4 10.7 10.7 0 0 1 0 21.4" fill="#003049E7"/><path d="M129 28a10.7 10.7 0 1 1 0-21.5 10.7 10.7 0 0 1 0 21.5" fill="#d62828E7"/><path d="M15.7-311.7a10.8 10.8 0 1 1 0-21.5 10.8 10.8 0 0 1 0 21.5" fill="#f77f00E7"/><path d="M176.1 10.1a10.8 10.8 0 1 1 0-21.6 10.8 10.8 0 0 1 0 21.6" fill="#003049E8"/><path d="M-28.7-273.7a10.8 10.8 0 1 1 0-21.6 10.8 10.8 0 0 1 0 21.6" fill="#fcbf49E8"/><path d="M199.5-5.1a10.8 10.8 0 1 1 0-21.7 10.8 10.8 0 0 1 0 21.7" fill="#fcbf49E9"/><path d="M130.2-323.8a10.8 10.8 0 1 1 0-21.7 10.8 10.8 0 0 1 0 21.7" fill="#fcbf49E9"/><path d="M124.1-323.4a10.9 10.9 0 1 1 0-21.8 10.9 10.9 0 0 1 0 21.8" fill="#003049EA"/><path d="M165.9 6.4a10.9 10.9 0 1 1 0-21.7 10.9 10.9 0 0 1 0 21.7" fill="#fcbf49EA"/><path d="M264.8-107.8a10.9 10.9 0 1 1 0-21.8 10.9 10.9 0 0 1 0 21.8" fill="#fcbf49EA"/><path d="M258.8-212.4a10.9 10.9 0 1 1 0-21.8 10.9 10.9 0 0 1 0 21.8" fill="#f77f00EB"/><path d="M100.7 14.8a11 11 0 1 1 0-22 11 11 0 0 1 0 22" fill="#f77f00EC"/><path d="M5.7-14.8a11 11 0 1 1 0-21.9 11 11 0 0 1 0 21.9" fill="#fcbf49EC"/><path d="M25-3.6a11 11 0 1 1 0-21.9 11 11 0 0 1 0 21.9" fill="#f77f00EC"/><path d="M171.5-299.4a11 11 0 1 1 0-22 11 11 0 0 1 0 22" fill="#f77f00EC"/><path d="M-50.2-85.7a11 11 0 1 1 0-22 11 11 0 0 1 0 22" fill="#f77f00EC"/><path d="M-7.1-269.3a11 11 0 1 1 0-22.1 11 11 0 0 1 0 22.1" fill="#fcbf49EE"/><path d="M-30.9-63.5a11.1 11.1 0 1 1 0-22.2 11.1 11.1 0 0 1 0 22.2" fill="#003049EE"/><path d="M233.5-235a11.1 11.1 0 1 1 0-22.1 11.1 11.1 0 0 1 0 22.1" fill="#d62828EE"/><path d="M252.9-116a11.1 11.1 0 1 1 0-22.1 11.1 11.1 0 0 1 0 22.1" fill="#fcbf49EE"/><path d="M-50.3-115a11.1 11.1 0 1 1 0-22.2 11.1 11.1 0 0 1 0 22.2" fill="#d62828EF"/><path d="M24.6-284.9a11.1 11.1 0 1 1 0-22.2 11.1 11.1 0 0 1 0 22.2" fill="#d62828EF"/><path d="M80.7-1.6a11.1 11.1 0 1 1 0-22.3 11.1 11.1 0 0 1 0 22.3" fill="#eae2b7EF"/><path d="M-39.6-108.4a11.2 11.2 0 1 1 0-22.4 11.2 11.2 0 0 1 0 22.4" fill="#d62828F1"/><path d="M6.8-40.5a11.2 11.2 0 1 1 0-22.4 11.2 11.2 0 0 1 0 22.4" fill="#d62828F1"/><path d="M233.2-111.2a11.2 11.2 0 1 1 0-22.5 11.2 11.2 0 0 1 0 22.5" fill="#d62828F2"/><path d="M36.1-274.6a11.2 11.2 0 1 1 0-22.5 11.2 11.2 0 0 1 0 22.5" fill="#eae2b7F2"/><path d="M37-272.4a11.3 11.3 0 1 1 0-22.6 11.3 11.3 0 0 1 0 22.6" fill="#d62828F3"/><path d="M48.3-276.1a11.3 11.3 0 1 1 0-22.6 11.3 11.3 0 0 1 0 22.6" fill="#f77f00F3"/><path d="M181.9-250.4a11.3 11.3 0 1 1 0-22.6 11.3 11.3 0 0 1 0 22.6" fill="#003049F4"/><path d="M27.1-254.3a11.4 11.4 0 1 1 0-22.8 11.4 11.4 0 0 1 0 22.8" fill="#f77f00F4"/><path d="M222.2-180.6a11.4 11.4 0 1 1 0-22.7 11.4 11.4 0 0 1 0 22.7" fill="#fcbf49F5"/><path d="M160.7-259.9a11.4 11.4 0 1 1 0-22.7 11.4 11.4 0 0 1 0 22.7" fill="#d62828F5"/><path d="M8.5-233.9a11.4 11.4 0 1 1 0-22.8 11.4 11.4 0 0 1 0 22.8" fill="#003049F5"/><path d="M13.4-222.8a11.5 11.5 0 1 1 0-22.9 11.5 11.5 0 0 1 0 22.9" fill="#d62828F7"/><path d="M143.8-51.7a11.5 11.5 0 1 1 0-22.9 11.5 11.5 0 0 1 0 22.9" fill="#d62828F7"/><path d="M42.7-227.5a11.6 11.6 0 1 1 0-23.1 11.6 11.6 0 0 1 0 23.1" fill="#003049F9"/><path d="M160-146.8a11.7 11.7 0 1 1 0-23.4 11.7 11.7 0 0 1 0 23.4" fill="#f77f00FC"/><path d="M120.2-189.6a11.8 11.8 0 1 1 0-23.6 11.8 11.8 0 0 1 0 23.6" fill="#eae2b7FD"/><path d="M64.7-173.5a11.8 11.8 0 1 1 0-23.5 11.8 11.8 0 0 1 0 23.5" fill="#f77f00FD"/><path d="M78.8-184.2a11.8 11.8 0 1 1 0-23.6 11.8 11.8 0 0 1 0 23.6" fill="#eae2b7FE"/></g></svg>