<svg width="1200" height="675" viewBox="-500 -500 1200 675" xmlns="http://www.w3.org/2000/svg"><path d="M-500-500h1200v675h-1200z" fill="#000"/><style>.sparkles path{stroke-linecap:round; stroke-width:1}</style><g class="sparkles"><path d="M100-162.5l30.5 21.7" stroke="#c2e1ff32"/><path d="M100-162.5l24.6 50" stroke="#c2e1ff33"/><path d="M100-162.5l-55.7 35.2" stroke="#fff50033"/><path d="M100-162.5l-76.2 53.9" stroke="#c2e1ff36"/><path d="M100-162.5l98.9 6" stroke="#fff36"/><path d="M100-162.5l-30.3-98.5" stroke="#c2e1ff37"/><path d="M100-162.5l-99.7-30.2" stroke="#fff50037"/><path d="M100-162.5l44.5-97.1" stroke="#c2e1ff37"/><path d="M100-162.5l-75.1-85.7" stroke="#c2e1ff38"/><path d="M100-162.5l75.1 88.8" stroke="#fff38"/><path d="M100-162.5l-7.9-126.4" stroke="#005bbb39"/><path d="M100-162.5l50.7-121.1" stroke="#005bbb3A"/><path d="M100-162.5l116.7-63.4" stroke="#c2e1ff3A"/><path d="M100-162.5l133.5 5" stroke="#005bbb3A"/><path d="M100-162.5l-74.6 110.8" stroke="#fff3A"/><path d="M100-162.5l-43.6-147.8" stroke="#fff5003E"/><path d="M100-162.5l122.5 100" stroke="#fff5003E"/><path d="M100-162.5l-154.3-38" stroke="#fff5003E"/><path d="M100-162.5l48.5-151.9" stroke="#fff5003F"/><path d="M100-162.5l29.5-161.5" stroke="#fff40"/><path d="M100-162.5l-18.5 163.7" stroke="#fff40"/><path d="M100-162.5l-34.4-162.8" stroke="#fff50040"/><path d="M100-162.5l-101.6-134.3" stroke="#fff40"/><path d="M100-162.5l122.5-116" stroke="#005bbb41"/><path d="M100-162.5l71.9 157.3" stroke="#fff50041"/><path d="M100-162.5l125.2 122.5" stroke="#fff42"/><path d="M100-162.5l-176.3 13.5" stroke="#c2e1ff42"/><path d="M100-162.5l8.7-178.3" stroke="#005bbb43"/><path d="M100-162.5l-182.3 13.1" stroke="#fff44"/><path d="M100-162.5l-55 175.4" stroke="#fff44"/><path d="M100-162.5l59.2 175.6" stroke="#fff50044"/><path d="M100-162.5l13-185.9" stroke="#fff45"/><path d="M100-162.5l46.3 180.6" stroke="#005bbb45"/><path d="M100-162.5l-120.9-143.1" stroke="#005bbb45"/><path d="M100-162.5l142.4-121.8" stroke="#fff45"/><path d="M100-162.5l171.5 99.4" stroke="#fff50048"/><path d="M100-162.5l-110.4 167.5" stroke="#fff50049"/><path d="M100-162.5l91.7-178.7" stroke="#fff50049"/><path d="M100-162.5l-67.6-190.4" stroke="#fff4A"/><path d="M100-162.5l13.4-203.2" stroke="#005bbb4A"/><path d="M100-162.5l-90.9 184.4" stroke="#005bbb4B"/><path d="M100-162.5l144-146.7" stroke="#c2e1ff4B"/><path d="M100-162.5l-181.3-97.1" stroke="#fff4B"/><path d="M100-162.5l27.7-204" stroke="#005bbb4B"/><path d="M100-162.5l-80.7 194.4" stroke="#005bbb4D"/><path d="M100-162.5l56.7 203.1" stroke="#fff4D"/><path d="M100-162.5l192.3 90.4" stroke="#005bbb4E"/><path d="M100-162.5l-108 184.6" stroke="#fff5004E"/><path d="M100-162.5l-37-210.7" stroke="#005bbb4E"/><path d="M100-162.5l161 143.1" stroke="#fff5004F"/><path d="M100-162.5l133.9-169.3" stroke="#fff4F"/><path d="M100-162.5l-195.2 93.5" stroke="#c2e1ff4F"/><path d="M100-162.5l165.5 139.7" stroke="#005bbb50"/><path d="M100-162.5l213.8-36.4" stroke="#c2e1ff50"/><path d="M100-162.5l173 130.8" stroke="#fff50050"/><path d="M100-162.5l-63 211.3" stroke="#fff52"/><path d="M100-162.5l-82.9 207.9" stroke="#fff50053"/><path d="M100-162.5l224.1 6.1" stroke="#c2e1ff54"/><path d="M100-162.5l-77.2 211" stroke="#005bbb54"/><path d="M100-162.5l81.8-209.4" stroke="#fff50054"/><path d="M100-162.5l-221.6 38.1" stroke="#005bbb54"/><path d="M100-162.5l-170.6 147.8" stroke="#c2e1ff55"/><path d="M100-162.5l87.4 208.2" stroke="#fff55"/><path d="M100-162.5l-84.5-210.8" stroke="#005bbb56"/><path d="M100-162.5l189.4 127.2" stroke="#fff57"/><path d="M100-162.5l-213.8-80.7" stroke="#fff50057"/><path d="M100-162.5l-185.9 134.5" stroke="#fff58"/><path d="M100-162.5l-55.7-223.5" stroke="#005bbb58"/><path d="M100-162.5l33-228.2" stroke="#fff50059"/><path d="M100-162.5l230.2-15.4" stroke="#fff50059"/><path d="M100-162.5l-127.5-193.2" stroke="#fff5005A"/><path d="M100-162.5l-70.5-221" stroke="#fff5A"/><path d="M100-162.5l232.9-5.4" stroke="#005bbb5B"/><path d="M100-162.5l68.5-222.7" stroke="#c2e1ff5B"/><path d="M100-162.5l223.4-68.5" stroke="#fff5C"/><path d="M100-162.5l102.9-210.2" stroke="#fff5005D"/><path d="M100-162.5l-181.3-148.1" stroke="#fff5D"/><path d="M100-162.5l-158.5 172.3" stroke="#fff5005D"/><path d="M100-162.5l17.5 233.8" stroke="#fff5005D"/><path d="M100-162.5l-234.2 20.1" stroke="#fff5E"/><path d="M100-162.5l70.7 224.3" stroke="#c2e1ff5F"/><path d="M100-162.5l234.5-20.2" stroke="#005bbb5F"/><path d="M100-162.5l7.3-235.4" stroke="#c2e1ff5F"/><path d="M100-162.5l-235.4 9.4" stroke="#fff50060"/><path d="M100-162.5l212.9 102.4" stroke="#fff63"/><path d="M100-162.5l-215.6-96.5" stroke="#c2e1ff63"/><path d="M100-162.5l-135.6 193.5" stroke="#005bbb64"/><path d="M100-162.5l234.4 29.4" stroke="#fff65"/><path d="M100-162.5l-225.4 70.7" stroke="#c2e1ff65"/><path d="M100-162.5l194.4-134.2" stroke="#fff65"/><path d="M100-162.5l213 102.1" stroke="#fff50065"/><path d="M100-162.5l-144.9 186.5" stroke="#c2e1ff65"/><path d="M100-162.5l-18.5-235.4" stroke="#c2e1ff65"/><path d="M100-162.5l-235.7-9.3" stroke="#fff50066"/><path d="M100-162.5l-221.7-80.4" stroke="#005bbb66"/><path d="M100-162.5l-158.1 175" stroke="#fff66"/><path d="M100-162.5l28.7 233.9" stroke="#c2e1ff67"/><path d="M100-162.5l211.1 104.3" stroke="#fff68"/><path d="M100-162.5l104.1 211" stroke="#005bbb68"/><path d="M100-162.5l61.8 226.8" stroke="#fff68"/><path d="M100-162.5l-229.4-48.3" stroke="#c2e1ff6A"/><path d="M100-162.5l171.4 159.8" stroke="#c2e1ff6A"/><path d="M100-162.5l-13.3 233.6" stroke="#fff5006A"/><path d="M100-162.5l40.1 230.2" stroke="#005bbb6B"/><path d="M100-162.5l-225.8 60" stroke="#fff5006B"/><path d="M100-162.5l213.1 95.3" stroke="#fff5006B"/><path d="M100-162.5l-220.1 77.6" stroke="#005bbb6B"/><path d="M100-162.5l29.6-230.3" stroke="#005bbb6D"/><path d="M100-162.5l-52.4-225.8" stroke="#fff5006D"/><path d="M100-162.5l-231 13.5" stroke="#005bbb6E"/><path d="M100-162.5l-222.1 64.8" stroke="#005bbb6E"/><path d="M100-162.5l-102.1 207.4" stroke="#fff5006E"/><path d="M100-162.5l-171.5 155" stroke="#005bbb6E"/><path d="M100-162.5l-168.3 158" stroke="#005bbb6E"/><path d="M100-162.5l73.4-217.6" stroke="#fff5006F"/><path d="M100-162.5l-212.9 82.6" stroke="#fff70"/><path d="M100-162.5l-199 110.8" stroke="#005bbb71"/><path d="M100-162.5l227.6-1.5" stroke="#fff50071"/><path d="M100-162.5l-138.3-180.3" stroke="#c2e1ff71"/><path d="M100-162.5l-14.3-226.2" stroke="#fff72"/><path d="M100-162.5l201.1 103.7" stroke="#c2e1ff72"/><path d="M100-162.5l150.6-168.7" stroke="#fff72"/><path d="M100-162.5l141.5-174.6" stroke="#fff50073"/><path d="M100-162.5l129.1 183.9" stroke="#fff50073"/><path d="M100-162.5l41.1-219.3" stroke="#fff50074"/><path d="M100-162.5l-207.6 78.2" stroke="#fff50075"/><path d="M100-162.5l-175.7 135" stroke="#005bbb75"/><path d="M100-162.5l123.1-182.6" stroke="#005bbb76"/><path d="M100-162.5l216.4 0" stroke="#fff78"/><path d="M100-162.5l204.5-69.2" stroke="#c2e1ff78"/><path d="M100-162.5l-96.3-192" stroke="#fff78"/><path d="M100-162.5l103-187.5" stroke="#c2e1ff79"/><path d="M100-162.5l-111-182.3" stroke="#fff79"/><path d="M100-162.5l-7.9-213.3" stroke="#fff79"/><path d="M100-162.5l-202.9-65.4" stroke="#fff79"/><path d="M100-162.5l161.1 139" stroke="#fff79"/><path d="M100-162.5l-186.1-101.2" stroke="#fff7A"/><path d="M100-162.5l-75.6-196.9" stroke="#c2e1ff7A"/><path d="M100-162.5l106.3 181.9" stroke="#fff5007A"/><path d="M100-162.5l-25.8 206.9" stroke="#fff7B"/><path d="M100-162.5l-14.8 207.9" stroke="#fff7B"/><path d="M100-162.5l-207.9 13.2" stroke="#fff7B"/><path d="M100-162.5l-80.8 192" stroke="#005bbb7B"/><path d="M100-162.5l147.8 146.2" stroke="#005bbb7B"/><path d="M100-162.5l161-122.4" stroke="#fff5007D"/><path d="M100-162.5l-64.9 191.4" stroke="#c2e1ff7D"/><path d="M100-162.5l199.6 28.5" stroke="#c2e1ff7E"/><path d="M100-162.5l77.7-183.6" stroke="#005bbb7E"/><path d="M100-162.5l123.8 152.9" stroke="#005bbb7F"/><path d="M100-162.5l183.6 29.2" stroke="#fff82"/><path d="M100-162.5l153.9-91.4" stroke="#fff50084"/><path d="M100-162.5l146 102.4" stroke="#fff84"/><path d="M100-162.5l64.7-165" stroke="#005bbb85"/><path d="M100-162.5l63.8-162.4" stroke="#fff85"/><path d="M100-162.5l-154.8-77.5" stroke="#005bbb86"/><path d="M100-162.5l89 143.4" stroke="#fff50086"/><path d="M100-162.5l77.8 149.7" stroke="#005bbb86"/><path d="M100-162.5l-52.6-158.8" stroke="#fff87"/><path d="M100-162.5l32.8-162.2" stroke="#005bbb87"/><path d="M100-162.5l53.7-155.5" stroke="#fff50087"/><path d="M100-162.5l130.3-78.2" stroke="#fff5008A"/><path d="M100-162.5l-31.3-148.6" stroke="#fff8A"/><path d="M100-162.5l99 108.5" stroke="#c2e1ff8B"/><path d="M100-162.5l-138.5-34.7" stroke="#005bbb8B"/><path d="M100-162.5l-73.5 112.2" stroke="#fff5008D"/><path d="M100-162.5l122-25.8" stroke="#fff5008E"/><path d="M100-162.5l97.3 77.5" stroke="#fff8E"/><path d="M100-162.5l-21.6 116.3" stroke="#fff8F"/><path d="M100-162.5l111.9-16.7" stroke="#fff8F"/><path d="M100-162.5l-75.4 84.3" stroke="#c2e1ff8F"/><path d="M100-162.5l-103.1-34.8" stroke="#fff50090"/><path d="M100-162.5l-93.9-50.7" stroke="#c2e1ff90"/><path d="M100-162.5l74.4-57.4" stroke="#fff91"/><path d="M100-162.5l57.4 71.5" stroke="#c2e1ff92"/><path d="M100-162.5l-41-77.9" stroke="#fff50092"/><path d="M100-162.5l72.7 27.1" stroke="#005bbb93"/><path d="M100-162.5l-74.2 12" stroke="#005bbb93"/><path d="M100-162.5l73.5 1.5" stroke="#c2e1ff93"/><path d="M100-162.5l-65 26" stroke="#fff50093"/><path d="M100-162.5l-24.7-20.7" stroke="#fff50095"/><path d="M100-162.5l-14.1 22.8" stroke="#fff50095"/></g><g class="sparcs"><path d="M130.5-134.8a5.9 5.9 0 1 1 0-11.9 5.9 5.9 0 0 1 0 11.9" fill="#c2e1ff7D"/><path d="M124.6-106.6a6 6 0 1 1 0-11.9 6 6 0 0 1 0 11.9" fill="#fff5007E"/><path d="M44.3-121.3a6 6 0 1 1 0-12.1 6 6 0 0 1 0 12.1" fill="#fff7F"/><path d="M23.8-102.5a6.1 6.1 0 1 1 0-12.3 6.1 6.1 0 0 1 0 12.3" fill="#fff82"/><path d="M198.9-150.3a6.2 6.2 0 1 1 0-12.4 6.2 6.2 0 0 1 0 12.4" fill="#c2e1ff82"/><path d="M69.7-254.8a6.2 6.2 0 1 1 0-12.4 6.2 6.2 0 0 1 0 12.4" fill="#fff50083"/><path d="M0.3-186.5a6.2 6.2 0 1 1 0-12.4 6.2 6.2 0 0 1 0 12.4" fill="#005bbb83"/><path d="M144.5-253.4a6.2 6.2 0 1 1 0-12.4 6.2 6.2 0 0 1 0 12.4" fill="#fff50084"/><path d="M24.9-242a6.3 6.3 0 1 1 0-12.5 6.3 6.3 0 0 1 0 12.5" fill="#c2e1ff85"/><path d="M175.1-67.4a6.3 6.3 0 1 1 0-12.6 6.3 6.3 0 0 1 0 12.6" fill="#fff85"/><path d="M92.1-282.5a6.4 6.4 0 1 1 0-12.7 6.4 6.4 0 0 1 0 12.7" fill="#fff50087"/><path d="M150.7-277.2a6.4 6.4 0 1 1 0-12.8 6.4 6.4 0 0 1 0 12.8" fill="#fff87"/><path d="M216.7-219.4a6.4 6.4 0 1 1 0-12.9 6.4 6.4 0 0 1 0 12.9" fill="#c2e1ff88"/><path d="M233.5-151.1a6.4 6.4 0 1 1 0-12.8 6.4 6.4 0 0 1 0 12.8" fill="#005bbb88"/><path d="M25.4-45.3a6.4 6.4 0 1 1 0-12.8 6.4 6.4 0 0 1 0 12.8" fill="#fff50088"/><path d="M56.4-303.7a6.6 6.6 0 1 1 0-13.2 6.6 6.6 0 0 1 0 13.2" fill="#fff5008C"/><path d="M222.5-55.8a6.7 6.7 0 1 1 0-13.4 6.7 6.7 0 0 1 0 13.4" fill="#fff8D"/><path d="M-54.3-193.8a6.7 6.7 0 1 1 0-13.3 6.7 6.7 0 0 1 0 13.3" fill="#fff5008D"/><path d="M148.5-307.7a6.7 6.7 0 1 1 0-13.4 6.7 6.7 0 0 1 0 13.4" fill="#fff5008E"/><path d="M129.5-317.3a6.7 6.7 0 1 1 0-13.5 6.7 6.7 0 0 1 0 13.5" fill="#fff8F"/><path d="M81.5 8a6.7 6.7 0 1 1 0-13.5 6.7 6.7 0 0 1 0 13.5" fill="#c2e1ff8F"/><path d="M65.6-318.6a6.8 6.8 0 1 1 0-13.5 6.8 6.8 0 0 1 0 13.5" fill="#005bbb8F"/><path d="M-1.6-290a6.8 6.8 0 1 1 0-13.5 6.8 6.8 0 0 1 0 13.5" fill="#fff50090"/><path d="M222.5-271.7a6.8 6.8 0 1 1 0-13.6 6.8 6.8 0 0 1 0 13.6" fill="#c2e1ff90"/><path d="M171.9 1.6a6.8 6.8 0 1 1 0-13.7 6.8 6.8 0 0 1 0 13.7" fill="#005bbb91"/><path d="M225.2-33.1a6.9 6.9 0 1 1 0-13.8 6.9 6.9 0 0 1 0 13.8" fill="#c2e1ff92"/><path d="M-76.3-142.1a6.9 6.9 0 1 1 0-13.8 6.9 6.9 0 0 1 0 13.8" fill="#fff50092"/><path d="M108.7-333.8a6.9 6.9 0 1 1 0-13.9 6.9 6.9 0 0 1 0 13.9" fill="#fff50093"/><path d="M-82.3-142.4a7 7 0 1 1 0-14 7 7 0 0 1 0 14" fill="#005bbb94"/><path d="M45 19.9a7 7 0 1 1 0-14 7 7 0 0 1 0 14" fill="#fff95"/><path d="M159.2 20.1a7 7 0 1 1 0-14 7 7 0 0 1 0 14" fill="#c2e1ff95"/><path d="M113-341.3a7 7 0 1 1 0-14.1 7 7 0 0 1 0 14.1" fill="#005bbb96"/><path d="M146.3 25.2a7 7 0 1 1 0-14.1 7 7 0 0 1 0 14.1" fill="#005bbb96"/><path d="M-20.9-298.5a7.1 7.1 0 1 1 0-14.1 7.1 7.1 0 0 1 0 14.1" fill="#c2e1ff96"/><path d="M242.4-277.3a7.1 7.1 0 1 1 0-14.1 7.1 7.1 0 0 1 0 14.1" fill="#fff50096"/><path d="M271.5-55.9a7.3 7.3 0 1 1 0-14.5 7.3 7.3 0 0 1 0 14.5" fill="#fff5009A"/><path d="M-10.4 12.3a7.3 7.3 0 1 1 0-14.6 7.3 7.3 0 0 1 0 14.6" fill="#fff5009B"/><path d="M191.7-333.9a7.3 7.3 0 1 1 0-14.7 7.3 7.3 0 0 1 0 14.7" fill="#c2e1ff9B"/><path d="M32.4-345.6a7.3 7.3 0 1 1 0-14.6 7.3 7.3 0 0 1 0 14.6" fill="#fff9C"/><path d="M113.4-358.4a7.4 7.4 0 1 1 0-14.7 7.4 7.4 0 0 1 0 14.7" fill="#c2e1ff9D"/><path d="M9.1 29.3a7.4 7.4 0 1 1 0-14.8 7.4 7.4 0 0 1 0 14.8" fill="#c2e1ff9D"/><path d="M244-301.8a7.4 7.4 0 1 1 0-14.9 7.4 7.4 0 0 1 0 14.9" fill="#c2e1ff9D"/><path d="M-81.3-252.2a7.4 7.4 0 1 1 0-14.8 7.4 7.4 0 0 1 0 14.8" fill="#c2e1ff9E"/><path d="M127.7-359.1a7.4 7.4 0 1 1 0-14.8 7.4 7.4 0 0 1 0 14.8" fill="#005bbb9E"/><path d="M19.3 39.4a7.5 7.5 0 1 1 0-15 7.5 7.5 0 0 1 0 15" fill="#fffA0"/><path d="M156.7 48.1a7.5 7.5 0 1 1 0-15.1 7.5 7.5 0 0 1 0 15.1" fill="#fff500A0"/><path d="M292.3-64.5a7.6 7.6 0 1 1 0-15.1 7.6 7.6 0 0 1 0 15.1" fill="#005bbbA1"/><path d="M-8 29.7a7.6 7.6 0 1 1 0-15.2 7.6 7.6 0 0 1 0 15.2" fill="#fffA2"/><path d="M63-365.6a7.6 7.6 0 1 1 0-15.2 7.6 7.6 0 0 1 0 15.2" fill="#c2e1ffA2"/><path d="M261-11.8a7.6 7.6 0 1 1 0-15.3 7.6 7.6 0 0 1 0 15.3" fill="#fffA3"/><path d="M233.9-324.2a7.7 7.7 0 1 1 0-15.3 7.7 7.7 0 0 1 0 15.3" fill="#c2e1ffA3"/><path d="M-95.2-61.3a7.7 7.7 0 1 1 0-15.4 7.7 7.7 0 0 1 0 15.4" fill="#005bbbA3"/><path d="M265.5-15.1a7.7 7.7 0 1 1 0-15.3 7.7 7.7 0 0 1 0 15.3" fill="#fffA4"/><path d="M313.8-191.2a7.7 7.7 0 1 1 0-15.4 7.7 7.7 0 0 1 0 15.4" fill="#fffA4"/><path d="M273-24a7.7 7.7 0 1 1 0-15.4 7.7 7.7 0 0 1 0 15.4" fill="#fffA4"/><path d="M37 56.6a7.8 7.8 0 1 1 0-15.6 7.8 7.8 0 0 1 0 15.6" fill="#fff500A6"/><path d="M17.1 53.3a7.9 7.9 0 1 1 0-15.8 7.9 7.9 0 0 1 0 15.8" fill="#fff500A9"/><path d="M324.1-148.5a7.9 7.9 0 1 1 0-15.8 7.9 7.9 0 0 1 0 15.8" fill="#c2e1ffA9"/><path d="M22.8 56.4a7.9 7.9 0 1 1 0-15.9 7.9 7.9 0 0 1 0 15.9" fill="#fff500A9"/><path d="M181.8-364a8 8 0 1 1 0-15.9 8 8 0 0 1 0 15.9" fill="#005bbbAA"/><path d="M-121.6-116.4a8 8 0 1 1 0-15.9 8 8 0 0 1 0 15.9" fill="#005bbbAA"/><path d="M-70.6-6.7a8 8 0 1 1 0-16 8 8 0 0 1 0 16" fill="#c2e1ffAA"/><path d="M187.4 53.7a8 8 0 1 1 0-16 8 8 0 0 1 0 16" fill="#fff500AA"/><path d="M15.5-365.2a8 8 0 1 1 0-16.1 8 8 0 0 1 0 16.1" fill="#c2e1ffAC"/><path d="M289.4-27.2a8.1 8.1 0 1 1 0-16.2 8.1 8.1 0 0 1 0 16.2" fill="#fffAD"/><path d="M-113.8-235.1a8.1 8.1 0 1 1 0-16.2 8.1 8.1 0 0 1 0 16.2" fill="#c2e1ffAD"/><path d="M-85.9-19.8a8.2 8.2 0 1 1 0-16.3 8.2 8.2 0 0 1 0 16.3" fill="#c2e1ffAE"/><path d="M44.3-377.8a8.2 8.2 0 1 1 0-16.4 8.2 8.2 0 0 1 0 16.4" fill="#fffAF"/><path d="M133-382.5a8.2 8.2 0 1 1 0-16.4 8.2 8.2 0 0 1 0 16.4" fill="#fff500AF"/><path d="M330.2-169.6a8.2 8.2 0 1 1 0-16.5 8.2 8.2 0 0 1 0 16.5" fill="#005bbbB0"/><path d="M-27.5-347.5a8.3 8.3 0 1 1 0-16.5 8.3 8.3 0 0 1 0 16.5" fill="#005bbbB1"/><path d="M29.5-375.2a8.3 8.3 0 1 1 0-16.6 8.3 8.3 0 0 1 0 16.6" fill="#005bbbB1"/><path d="M332.9-159.5a8.4 8.4 0 1 1 0-16.7 8.4 8.4 0 0 1 0 16.7" fill="#fff500B3"/><path d="M168.5-376.8a8.4 8.4 0 1 1 0-16.8 8.4 8.4 0 0 1 0 16.8" fill="#c2e1ffB3"/><path d="M323.4-222.6a8.4 8.4 0 1 1 0-16.8 8.4 8.4 0 0 1 0 16.8" fill="#fff500B4"/><path d="M202.9-364.2a8.5 8.5 0 1 1 0-16.9 8.5 8.5 0 0 1 0 16.9" fill="#fffB5"/><path d="M-81.3-302.1a8.5 8.5 0 1 1 0-17 8.5 8.5 0 0 1 0 17" fill="#005bbbB5"/><path d="M-58.5 18.3a8.5 8.5 0 1 1 0-16.9 8.5 8.5 0 0 1 0 16.9" fill="#fff500B5"/><path d="M117.5 79.8a8.5 8.5 0 1 1 0-17 8.5 8.5 0 0 1 0 17" fill="#fff500B6"/><path d="M-134.2-133.9a8.6 8.6 0 1 1 0-17.1 8.6 8.6 0 0 1 0 17.1" fill="#005bbbB7"/><path d="M170.7 70.4a8.6 8.6 0 1 1 0-17.2 8.6 8.6 0 0 1 0 17.2" fill="#005bbbB7"/><path d="M334.5-174.1a8.6 8.6 0 1 1 0-17.2 8.6 8.6 0 0 1 0 17.2" fill="#005bbbB8"/><path d="M107.3-389.2a8.6 8.6 0 1 1 0-17.3 8.6 8.6 0 0 1 0 17.3" fill="#fffB8"/><path d="M-135.4-144.4a8.6 8.6 0 1 1 0-17.3 8.6 8.6 0 0 1 0 17.3" fill="#c2e1ffB9"/><path d="M312.9-51.2a8.9 8.9 0 1 1 0-17.7 8.9 8.9 0 0 1 0 17.7" fill="#fff500BD"/><path d="M-115.6-250.2a8.9 8.9 0 1 1 0-17.7 8.9 8.9 0 0 1 0 17.7" fill="#fffBD"/><path d="M-35.6 39.9a8.9 8.9 0 1 1 0-17.8 8.9 8.9 0 0 1 0 17.8" fill="#fffBE"/><path d="M334.4-124.2a8.9 8.9 0 1 1 0-17.8 8.9 8.9 0 0 1 0 17.8" fill="#005bbbBF"/><path d="M-125.4-82.8a8.9 8.9 0 1 1 0-17.9 8.9 8.9 0 0 1 0 17.9" fill="#c2e1ffBF"/><path d="M294.4-287.8a8.9 8.9 0 1 1 0-17.8 8.9 8.9 0 0 1 0 17.8" fill="#fffBF"/><path d="M313-51.5a8.9 8.9 0 1 1 0-17.8 8.9 8.9 0 0 1 0 17.8" fill="#c2e1ffBF"/><path d="M-44.9 32.9a8.9 8.9 0 1 1 0-17.8 8.9 8.9 0 0 1 0 17.8" fill="#fff500BF"/><path d="M81.5-389a8.9 8.9 0 1 1 0-17.9 8.9 8.9 0 0 1 0 17.9" fill="#fffBF"/><path d="M-135.7-162.7a9 9 0 1 1 0-18.1 9 9 0 0 1 0 18.1" fill="#c2e1ffC1"/><path d="M-121.7-233.8a9 9 0 1 1 0-18.1 9 9 0 0 1 0 18.1" fill="#fffC1"/><path d="M-58.1 21.6a9 9 0 1 1 0-18.1 9 9 0 0 1 0 18.1" fill="#fffC1"/><path d="M128.7 80.5a9.1 9.1 0 1 1 0-18.2 9.1 9.1 0 0 1 0 18.2" fill="#fff500C2"/><path d="M311.1-49.1a9.1 9.1 0 1 1 0-18.2 9.1 9.1 0 0 1 0 18.2" fill="#005bbbC3"/><path d="M204.1 57.7a9.1 9.1 0 1 1 0-18.3 9.1 9.1 0 0 1 0 18.3" fill="#c2e1ffC3"/><path d="M161.8 73.5a9.1 9.1 0 1 1 0-18.3 9.1 9.1 0 0 1 0 18.3" fill="#005bbbC4"/><path d="M-129.4-201.5a9.2 9.2 0 1 1 0-18.5 9.2 9.2 0 0 1 0 18.5" fill="#c2e1ffC6"/><path d="M271.4 6.5a9.2 9.2 0 1 1 0-18.5 9.2 9.2 0 0 1 0 18.5" fill="#005bbbC6"/><path d="M86.7 80.4a9.3 9.3 0 1 1 0-18.5 9.3 9.3 0 0 1 0 18.5" fill="#fff500C6"/><path d="M140.1 77a9.3 9.3 0 1 1 0-18.6 9.3 9.3 0 0 1 0 18.6" fill="#c2e1ffC7"/><path d="M-125.8-93.2a9.3 9.3 0 1 1 0-18.6 9.3 9.3 0 0 1 0 18.6" fill="#fffC7"/><path d="M313.1-57.9a9.3 9.3 0 1 1 0-18.6 9.3 9.3 0 0 1 0 18.6" fill="#c2e1ffC7"/><path d="M-120.1-75.6a9.3 9.3 0 1 1 0-18.6 9.3 9.3 0 0 1 0 18.6" fill="#005bbbC8"/><path d="M129.6-383.4a9.4 9.4 0 1 1 0-18.8 9.4 9.4 0 0 1 0 18.8" fill="#fffC9"/><path d="M47.6-378.9a9.4 9.4 0 1 1 0-18.8 9.4 9.4 0 0 1 0 18.8" fill="#fffCA"/><path d="M-131-139.5a9.5 9.5 0 1 1 0-18.9 9.5 9.5 0 0 1 0 18.9" fill="#005bbbCB"/><path d="M-122.1-88.3a9.5 9.5 0 1 1 0-18.9 9.5 9.5 0 0 1 0 18.9" fill="#005bbbCB"/><path d="M-2.1 54.4a9.5 9.5 0 1 1 0-19 9.5 9.5 0 0 1 0 19" fill="#c2e1ffCB"/><path d="M-71.5 2a9.5 9.5 0 1 1 0-18.9 9.5 9.5 0 0 1 0 18.9" fill="#fffCB"/><path d="M-68.3 5a9.5 9.5 0 1 1 0-19 9.5 9.5 0 0 1 0 19" fill="#fffCB"/><path d="M173.4-370.5a9.6 9.6 0 1 1 0-19.1 9.6 9.6 0 0 1 0 19.1" fill="#fffCD"/><path d="M-112.9-70.2a9.6 9.6 0 1 1 0-19.3 9.6 9.6 0 0 1 0 19.3" fill="#fffCE"/><path d="M-99-42.1a9.6 9.6 0 1 1 0-19.3 9.6 9.6 0 0 1 0 19.3" fill="#fff500CF"/><path d="M327.6-154.3a9.7 9.7 0 1 1 0-19.4 9.7 9.7 0 0 1 0 19.4" fill="#005bbbCF"/><path d="M-38.3-333.1a9.7 9.7 0 1 1 0-19.4 9.7 9.7 0 0 1 0 19.4" fill="#fffCF"/><path d="M85.7-379.1a9.7 9.7 0 1 1 0-19.3 9.7 9.7 0 0 1 0 19.3" fill="#005bbbD0"/><path d="M301.1-49.1a9.7 9.7 0 1 1 0-19.4 9.7 9.7 0 0 1 0 19.4" fill="#fff500D0"/><path d="M250.6-321.5a9.7 9.7 0 1 1 0-19.5 9.7 9.7 0 0 1 0 19.5" fill="#005bbbD0"/><path d="M241.5-327.3a9.8 9.8 0 1 1 0-19.6 9.8 9.8 0 0 1 0 19.6" fill="#fffD2"/><path d="M229.1 31.2a9.8 9.8 0 1 1 0-19.6 9.8 9.8 0 0 1 0 19.6" fill="#005bbbD2"/><path d="M141.1-372a9.8 9.8 0 1 1 0-19.6 9.8 9.8 0 0 1 0 19.6" fill="#c2e1ffD3"/><path d="M-107.6-74.5a9.9 9.9 0 1 1 0-19.7 9.9 9.9 0 0 1 0 19.7" fill="#fff500D4"/><path d="M-75.7-17.6a9.9 9.9 0 1 1 0-19.8 9.9 9.9 0 0 1 0 19.8" fill="#fff500D4"/><path d="M223.1-335.2a9.9 9.9 0 1 1 0-19.8 9.9 9.9 0 0 1 0 19.8" fill="#fff500D5"/><path d="M316.4-152.5a10 10 0 1 1 0-20 10 10 0 0 1 0 20" fill="#fff500D8"/><path d="M304.5-221.7a10.1 10.1 0 1 1 0-20.1 10.1 10.1 0 0 1 0 20.1" fill="#005bbbD8"/><path d="M3.7-344.4a10.1 10.1 0 1 1 0-20.2 10.1 10.1 0 0 1 0 20.2" fill="#005bbbD9"/><path d="M203-339.9a10.1 10.1 0 1 1 0-20.2 10.1 10.1 0 0 1 0 20.2" fill="#fffD9"/><path d="M-11-334.6a10.1 10.1 0 1 1 0-20.3 10.1 10.1 0 0 1 0 20.3" fill="#c2e1ffD9"/><path d="M92.1-365.6a10.1 10.1 0 1 1 0-20.3 10.1 10.1 0 0 1 0 20.3" fill="#fff500D9"/><path d="M-102.9-217.7a10.1 10.1 0 1 1 0-20.3 10.1 10.1 0 0 1 0 20.3" fill="#005bbbDA"/><path d="M261.1-13.3a10.1 10.1 0 1 1 0-20.3 10.1 10.1 0 0 1 0 20.3" fill="#fffDA"/><path d="M-86.1-253.6a10.2 10.2 0 1 1 0-20.3 10.2 10.2 0 0 1 0 20.3" fill="#fff500DA"/><path d="M24.4-349.2a10.2 10.2 0 1 1 0-20.4 10.2 10.2 0 0 1 0 20.4" fill="#fffDB"/><path d="M206.3 29.6a10.2 10.2 0 1 1 0-20.4 10.2 10.2 0 0 1 0 20.4" fill="#fff500DB"/><path d="M74.2 54.7a10.2 10.2 0 1 1 0-20.5 10.2 10.2 0 0 1 0 20.5" fill="#fffDC"/><path d="M85.2 55.7a10.2 10.2 0 1 1 0-20.5 10.2 10.2 0 0 1 0 20.5" fill="#fff500DC"/><path d="M-107.9-139a10.3 10.3 0 1 1 0-20.6 10.3 10.3 0 0 1 0 20.6" fill="#fff500DC"/><path d="M19.2 39.7a10.3 10.3 0 1 1 0-20.5 10.3 10.3 0 0 1 0 20.5" fill="#fff500DC"/><path d="M247.8-6.1a10.3 10.3 0 1 1 0-20.5 10.3 10.3 0 0 1 0 20.5" fill="#fff500DC"/><path d="M261-274.5a10.4 10.4 0 1 1 0-20.8 10.4 10.4 0 0 1 0 20.8" fill="#fffDF"/><path d="M35.1 39.3a10.4 10.4 0 1 1 0-20.8 10.4 10.4 0 0 1 0 20.8" fill="#fff500DF"/><path d="M299.6-123.6a10.4 10.4 0 1 1 0-20.8 10.4 10.4 0 0 1 0 20.8" fill="#005bbbDF"/><path d="M177.7-335.6a10.4 10.4 0 1 1 0-20.9 10.4 10.4 0 0 1 0 20.9" fill="#c2e1ffE0"/><path d="M223.8 0.9a10.5 10.5 0 1 1 0-21 10.5 10.5 0 0 1 0 21" fill="#fff500E1"/><path d="M283.6-122.6a10.7 10.7 0 1 1 0-21.4 10.7 10.7 0 0 1 0 21.4" fill="#fffE6"/><path d="M253.9-243.1a10.8 10.8 0 1 1 0-21.6 10.8 10.8 0 0 1 0 21.6" fill="#005bbbE8"/><path d="M246-49.3a10.8 10.8 0 1 1 0-21.6 10.8 10.8 0 0 1 0 21.6" fill="#c2e1ffE8"/><path d="M164.7-316.7a10.8 10.8 0 1 1 0-21.6 10.8 10.8 0 0 1 0 21.6" fill="#fff500E8"/><path d="M163.8-314.1a10.9 10.9 0 1 1 0-21.7 10.9 10.9 0 0 1 0 21.7" fill="#fff500E9"/><path d="M-54.8-229.1a10.9 10.9 0 1 1 0-21.8 10.9 10.9 0 0 1 0 21.8" fill="#fff500EA"/><path d="M189-8.2a10.9 10.9 0 1 1 0-21.8 10.9 10.9 0 0 1 0 21.8" fill="#fff500EB"/><path d="M177.8-1.8a10.9 10.9 0 1 1 0-21.9 10.9 10.9 0 0 1 0 21.9" fill="#c2e1ffEB"/><path d="M47.4-310.4a10.9 10.9 0 1 1 0-21.9 10.9 10.9 0 0 1 0 21.9" fill="#fffEB"/><path d="M132.8-313.8a11 11 0 1 1 0-21.9 11 11 0 0 1 0 21.9" fill="#fffEC"/><path d="M153.7-307.1a11 11 0 1 1 0-21.9 11 11 0 0 1 0 21.9" fill="#fff500EC"/><path d="M230.3-229.6a11.1 11.1 0 1 1 0-22.2 11.1 11.1 0 0 1 0 22.2" fill="#c2e1ffEF"/><path d="M68.7-300a11.1 11.1 0 1 1 0-22.2 11.1 11.1 0 0 1 0 22.2" fill="#005bbbEF"/><path d="M199-42.8a11.2 11.2 0 1 1 0-22.3 11.2 11.2 0 0 1 0 22.3" fill="#005bbbF0"/><path d="M-38.5-185.9a11.2 11.2 0 1 1 0-22.5 11.2 11.2 0 0 1 0 22.5" fill="#c2e1ffF1"/><path d="M26.5-39.1a11.3 11.3 0 1 1 0-22.5 11.3 11.3 0 0 1 0 22.5" fill="#c2e1ffF3"/><path d="M222-177a11.4 11.4 0 1 1 0-22.7 11.4 11.4 0 0 1 0 22.7" fill="#c2e1ffF5"/><path d="M197.3-73.6a11.4 11.4 0 1 1 0-22.8 11.4 11.4 0 0 1 0 22.8" fill="#fff500F5"/><path d="M78.4-34.8a11.4 11.4 0 1 1 0-22.8 11.4 11.4 0 0 1 0 22.8" fill="#fff500F6"/><path d="M211.9-167.8a11.5 11.5 0 1 1 0-22.9 11.5 11.5 0 0 1 0 22.9" fill="#fff500F7"/><path d="M24.6-66.8a11.5 11.5 0 1 1 0-22.9 11.5 11.5 0 0 1 0 22.9" fill="#c2e1ffF7"/><path d="M-3.1-185.8a11.5 11.5 0 1 1 0-22.9 11.5 11.5 0 0 1 0 22.9" fill="#fffF7"/><path d="M6.1-201.7a11.5 11.5 0 1 1 0-23 11.5 11.5 0 0 1 0 23" fill="#fff500F7"/><path d="M174.4-208.3a11.6 11.6 0 1 1 0-23.1 11.6 11.6 0 0 1 0 23.1" fill="#c2e1ffF9"/><path d="M157.4-79.4a11.6 11.6 0 1 1 0-23.2 11.6 11.6 0 0 1 0 23.2" fill="#fff500F9"/><path d="M59-228.8a11.6 11.6 0 1 1 0-23.2 11.6 11.6 0 0 1 0 23.2" fill="#005bbbFA"/><path d="M172.7-123.7a11.6 11.6 0 1 1 0-23.3 11.6 11.6 0 0 1 0 23.3" fill="#005bbbFB"/><path d="M25.8-138.8a11.7 11.7 0 1 1 0-23.3 11.7 11.7 0 0 1 0 23.3" fill="#c2e1ffFB"/><path d="M173.5-149.4a11.7 11.7 0 1 1 0-23.3 11.7 11.7 0 0 1 0 23.3" fill="#fff500FB"/><path d="M35-124.8a11.7 11.7 0 1 1 0-23.4 11.7 11.7 0 0 1 0 23.4" fill="#005bbbFC"/><path d="M75.3-171.4a11.8 11.8 0 1 1 0-23.6 11.8 11.8 0 0 1 0 23.6" fill="#005bbbFE"/><path d="M85.9-127.9a11.8 11.8 0 1 1 0-23.6 11.8 11.8 0 0 1 0 23.6" fill="#fff500FE"/></g></svg>