<svg width="1200" height="675" viewBox="-500 -500 1200 675" xmlns="http://www.w3.org/2000/svg"><path d="M-500-500h1200v675h-1200z" fill="#000"/><style>.sparkles path{stroke-linecap:round; stroke-width:1}</style><g class="sparkles"><path d="M100-162.5l23.4 1.9" stroke="#c2e1ff32"/><path d="M100-162.5l-25.4 10.8" stroke="#fff32"/><path d="M100-162.5l33.4-9.2" stroke="#005bbb32"/><path d="M100-162.5l46.8-39.9" stroke="#fff50033"/><path d="M100-162.5l-54.4-53.9" stroke="#005bbb34"/><path d="M100-162.5l-73.2 31.2" stroke="#fff50034"/><path d="M100-162.5l-9.4 81.7" stroke="#fff35"/><path d="M100-162.5l-88.4 9.6" stroke="#005bbb35"/><path d="M100-162.5l-58.6 73.5" stroke="#c2e1ff36"/><path d="M100-162.5l38.7 94.5" stroke="#fff50036"/><path d="M100-162.5l36.5-101.2" stroke="#fff37"/><path d="M100-162.5l23 105.8" stroke="#fff50037"/><path d="M100-162.5l72.8 90.1" stroke="#c2e1ff38"/><path d="M100-162.5l95.5-68.4" stroke="#005bbb38"/><path d="M100-162.5l2.2-119" stroke="#c2e1ff38"/><path d="M100-162.5l-106.8 54.7" stroke="#fff50038"/><path d="M100-162.5l45.3-117.6" stroke="#fff39"/><path d="M100-162.5l-116.1 66.2" stroke="#fff5003A"/><path d="M100-162.5l-78 110.3" stroke="#fff3A"/><path d="M100-162.5l118.3 76.4" stroke="#fff3B"/><path d="M100-162.5l-1-141.2" stroke="#fff5003B"/><path d="M100-162.5l35.7-140.6" stroke="#005bbb3C"/><path d="M100-162.5l-87.8 127.6" stroke="#fff3E"/><path d="M100-162.5l-96.9 121.1" stroke="#005bbb3E"/><path d="M100-162.5l-14.8 155.4" stroke="#fff5003E"/><path d="M100-162.5l-140.2 71.7" stroke="#fff3E"/><path d="M100-162.5l67.9 143.9" stroke="#c2e1ff3F"/><path d="M100-162.5l-155.2-38.6" stroke="#fff5003F"/><path d="M100-162.5l-21.1 160" stroke="#fff5003F"/><path d="M100-162.5l57.8-162.4" stroke="#c2e1ff41"/><path d="M100-162.5l90.7 152.2" stroke="#c2e1ff42"/><path d="M100-162.5l-86.7-155.8" stroke="#c2e1ff43"/><path d="M100-162.5l167.1 73.9" stroke="#005bbb44"/><path d="M100-162.5l-150.1 109.4" stroke="#c2e1ff45"/><path d="M100-162.5l-97.7 161.2" stroke="#fff45"/><path d="M100-162.5l56.8 180.7" stroke="#005bbb46"/><path d="M100-162.5l-139 129.8" stroke="#fff50046"/><path d="M100-162.5l-128.6 141.3" stroke="#fff50046"/><path d="M100-162.5l11.7-191.4" stroke="#c2e1ff46"/><path d="M100-162.5l112.1 156.2" stroke="#c2e1ff46"/><path d="M100-162.5l190.7-30.7" stroke="#fff50047"/><path d="M100-162.5l-129.4-148.1" stroke="#fff50048"/><path d="M100-162.5l182.6 74.3" stroke="#fff50048"/><path d="M100-162.5l32.9-195.9" stroke="#fff50048"/><path d="M100-162.5l41.7 196.3" stroke="#fff50049"/><path d="M100-162.5l200 29.4" stroke="#005bbb4A"/><path d="M100-162.5l29.3-202.1" stroke="#fff4A"/><path d="M100-162.5l-198.8 49.4" stroke="#005bbb4B"/><path d="M100-162.5l-187.8 82.8" stroke="#005bbb4B"/><path d="M100-162.5l-150.9-141.2" stroke="#fff5004B"/><path d="M100-162.5l207.4 0" stroke="#005bbb4C"/><path d="M100-162.5l-185.9-93.2" stroke="#c2e1ff4C"/><path d="M100-162.5l133.5-161.1" stroke="#005bbb4C"/><path d="M100-162.5l0.2 209.9" stroke="#c2e1ff4D"/><path d="M100-162.5l145.8-155.5" stroke="#fff4E"/><path d="M100-162.5l-202.2 75.8" stroke="#fff4F"/><path d="M100-162.5l-149.2 156.6" stroke="#fff5004F"/><path d="M100-162.5l205.6-67.7" stroke="#005bbb4F"/><path d="M100-162.5l-217.4-17.3" stroke="#fff50"/><path d="M100-162.5l-215.8-43" stroke="#fff51"/><path d="M100-162.5l11-220.1" stroke="#fff51"/><path d="M100-162.5l-23.4 219.8" stroke="#c2e1ff52"/><path d="M100-162.5l-21.8 220.9" stroke="#fff50052"/><path d="M100-162.5l66.5 215" stroke="#005bbb54"/><path d="M100-162.5l205 93.9" stroke="#fff55"/><path d="M100-162.5l-131.4-184.3" stroke="#fff55"/><path d="M100-162.5l-192.7-119.5" stroke="#fff50055"/><path d="M100-162.5l110.8 198.1" stroke="#c2e1ff56"/><path d="M100-162.5l-136.5-182.2" stroke="#fff56"/><path d="M100-162.5l-18.2-227" stroke="#fff50056"/><path d="M100-162.5l-139.3-182.7" stroke="#fff50058"/><path d="M100-162.5l72.4 218.1" stroke="#fff50058"/><path d="M100-162.5l-184.1-139.3" stroke="#fff50059"/><path d="M100-162.5l220.2-69.5" stroke="#005bbb59"/><path d="M100-162.5l129.8 191.2" stroke="#c2e1ff59"/><path d="M100-162.5l226.8-47.5" stroke="#fff5A"/><path d="M100-162.5l230.4 29.4" stroke="#fff5A"/><path d="M100-162.5l0.4 232.6" stroke="#fff5B"/><path d="M100-162.5l232.1 19.7" stroke="#c2e1ff5B"/><path d="M100-162.5l190.7-133.8" stroke="#c2e1ff5B"/><path d="M100-162.5l-15.2-232.8" stroke="#fff5005C"/><path d="M100-162.5l218.9-80.7" stroke="#fff5005C"/><path d="M100-162.5l-179.8-148.9" stroke="#005bbb5C"/><path d="M100-162.5l18.3-232.8" stroke="#fff5005C"/><path d="M100-162.5l-44.5-229.9" stroke="#fff5D"/><path d="M100-162.5l234 10" stroke="#c2e1ff5D"/><path d="M100-162.5l64.7 225.2" stroke="#c2e1ff5D"/><path d="M100-162.5l47.9 229.6" stroke="#fff5005D"/><path d="M100-162.5l98.4-213" stroke="#fff5E"/><path d="M100-162.5l-186.4 142.8" stroke="#fff5E"/><path d="M100-162.5l225.4-65.7" stroke="#c2e1ff5E"/><path d="M100-162.5l-60.3-227" stroke="#c2e1ff5E"/><path d="M100-162.5l-233.6 24.6" stroke="#fff5E"/><path d="M100-162.5l128.5 196.7" stroke="#fff5005E"/><path d="M100-162.5l-47.2 231.1" stroke="#fff50061"/><path d="M100-162.5l-232.4 40.4" stroke="#005bbb61"/><path d="M100-162.5l-39.1 232.8" stroke="#fff50061"/><path d="M100-162.5l133.5 194.9" stroke="#fff63"/><path d="M100-162.5l108.7-209.6" stroke="#005bbb65"/><path d="M100-162.5l-30.5 234" stroke="#005bbb66"/><path d="M100-162.5l85.1 220" stroke="#fff50066"/><path d="M100-162.5l-234.8 20.8" stroke="#005bbb67"/><path d="M100-162.5l-63.7-226.9" stroke="#fff67"/><path d="M100-162.5l-208.6-109.4" stroke="#fff50067"/><path d="M100-162.5l-88.8-217.6" stroke="#005bbb69"/><path d="M100-162.5l-219.4-82.6" stroke="#c2e1ff6A"/><path d="M100-162.5l-233.6 6.8" stroke="#fff5006B"/><path d="M100-162.5l-38.6 227.6" stroke="#005bbb6E"/><path d="M100-162.5l-157.6-166" stroke="#005bbb70"/><path d="M100-162.5l-48.9-223.2" stroke="#c2e1ff70"/><path d="M100-162.5l227.4 13" stroke="#fff50071"/><path d="M100-162.5l102.6 202.6" stroke="#fff50071"/><path d="M100-162.5l183.2 131" stroke="#fff73"/><path d="M100-162.5l87.2-207.1" stroke="#c2e1ff73"/><path d="M100-162.5l-81.7-208.2" stroke="#fff74"/><path d="M100-162.5l-165.5-148.6" stroke="#005bbb74"/><path d="M100-162.5l-193.3 109" stroke="#005bbb75"/><path d="M100-162.5l-56-214.4" stroke="#c2e1ff75"/><path d="M100-162.5l-185.4 120.5" stroke="#fff50075"/><path d="M100-162.5l129.7 178.6" stroke="#005bbb75"/><path d="M100-162.5l200.2 91.8" stroke="#005bbb76"/><path d="M100-162.5l214.9 48.3" stroke="#fff76"/><path d="M100-162.5l-132.7 173.8" stroke="#fff50076"/><path d="M100-162.5l129-176.6" stroke="#c2e1ff76"/><path d="M100-162.5l218.3 6.6" stroke="#005bbb77"/><path d="M100-162.5l-159.7 145.8" stroke="#005bbb78"/><path d="M100-162.5l-214.5 5.4" stroke="#fff78"/><path d="M100-162.5l128.1 168.6" stroke="#fff5007A"/><path d="M100-162.5l-206.2 32.8" stroke="#fff5007B"/><path d="M100-162.5l169.7 120.8" stroke="#fff5007B"/><path d="M100-162.5l17.4 205.3" stroke="#fff7C"/><path d="M100-162.5l184.6 89" stroke="#fff5007C"/><path d="M100-162.5l-200.2 42.9" stroke="#fff5007C"/><path d="M100-162.5l-195-52.5" stroke="#005bbb7D"/><path d="M100-162.5l-67.9 190.2" stroke="#005bbb7D"/><path d="M100-162.5l85.3-182.2" stroke="#005bbb7E"/><path d="M100-162.5l72.5 186.3" stroke="#fff5007E"/><path d="M100-162.5l192.2 51.6" stroke="#fff5007E"/><path d="M100-162.5l197.6-22" stroke="#005bbb7E"/><path d="M100-162.5l-22.1 197.2" stroke="#c2e1ff7F"/><path d="M100-162.5l155.4-121.6" stroke="#c2e1ff7F"/><path d="M100-162.5l184.8-67" stroke="#fff5007F"/><path d="M100-162.5l15.2 194.6" stroke="#fff50080"/><path d="M100-162.5l92.7-170.9" stroke="#c2e1ff80"/><path d="M100-162.5l-63 183.6" stroke="#fff80"/><path d="M100-162.5l-128.9 144.5" stroke="#fff80"/><path d="M100-162.5l5.5-193" stroke="#fff50080"/><path d="M100-162.5l-178.3 61.2" stroke="#fff50082"/><path d="M100-162.5l-75.3-172.5" stroke="#fff50082"/><path d="M100-162.5l-44.5 180.5" stroke="#005bbb82"/><path d="M100-162.5l183.5 25.8" stroke="#005bbb83"/><path d="M100-162.5l-126.7-134.1" stroke="#fff50083"/><path d="M100-162.5l-176.8-39" stroke="#c2e1ff84"/><path d="M100-162.5l-175.4-41.3" stroke="#c2e1ff84"/><path d="M100-162.5l152.9 94.3" stroke="#005bbb84"/><path d="M100-162.5l-172.5-3.3" stroke="#fff50086"/><path d="M100-162.5l118.2-123.1" stroke="#fff86"/><path d="M100-162.5l-134.9 100.9" stroke="#c2e1ff87"/><path d="M100-162.5l-97.1 130.4" stroke="#005bbb88"/><path d="M100-162.5l120.6-105.6" stroke="#fff50088"/><path d="M100-162.5l-114 112" stroke="#c2e1ff88"/><path d="M100-162.5l-136 81.7" stroke="#c2e1ff89"/><path d="M100-162.5l7.9-157.2" stroke="#c2e1ff89"/><path d="M100-162.5l-46.3 149.2" stroke="#fff89"/><path d="M100-162.5l-88 122.5" stroke="#fff5008A"/><path d="M100-162.5l119.3 92.1" stroke="#005bbb8A"/><path d="M100-162.5l113.9-91.7" stroke="#c2e1ff8B"/><path d="M100-162.5l-115.7 88.2" stroke="#c2e1ff8B"/><path d="M100-162.5l141-25.7" stroke="#fff8B"/><path d="M100-162.5l120.6-70.6" stroke="#c2e1ff8C"/><path d="M100-162.5l-62.3 124.6" stroke="#fff8C"/><path d="M100-162.5l71.6-112.5" stroke="#fff5008D"/><path d="M100-162.5l-109.6 74.6" stroke="#005bbb8D"/><path d="M100-162.5l84.3-95.4" stroke="#fff5008E"/><path d="M100-162.5l-18.8 123.2" stroke="#c2e1ff8E"/><path d="M100-162.5l89.8-67.1" stroke="#fff90"/><path d="M100-162.5l71.1-84.3" stroke="#fff90"/><path d="M100-162.5l100.9 37.5" stroke="#fff50090"/><path d="M100-162.5l17.5-38.1" stroke="#fff95"/><path d="M100-162.5l30.4 15.2" stroke="#fff95"/><path d="M100-162.5l22 8.9" stroke="#c2e1ff95"/></g><g class="sparcs"><path d="M123.4-154.7a5.9 5.9 0 1 1 0-11.8 5.9 5.9 0 0 1 0 11.8" fill="#005bbb7D"/><path d="M74.6-145.8a5.9 5.9 0 1 1 0-11.9 5.9 5.9 0 0 1 0 11.9" fill="#005bbb7D"/><path d="M133.4-165.8a5.9 5.9 0 1 1 0-11.9 5.9 5.9 0 0 1 0 11.9" fill="#fff5007D"/><path d="M146.8-196.4a6 6 0 1 1 0-12 6 6 0 0 1 0 12" fill="#fff7F"/><path d="M45.6-210.3a6.1 6.1 0 1 1 0-12.2 6.1 6.1 0 0 1 0 12.2" fill="#fff50080"/><path d="M26.8-125.2a6.1 6.1 0 1 1 0-12.2 6.1 6.1 0 0 1 0 12.2" fill="#c2e1ff80"/><path d="M90.6-74.7a6.1 6.1 0 1 1 0-12.2 6.1 6.1 0 0 1 0 12.2" fill="#fff50081"/><path d="M11.6-146.8a6.1 6.1 0 1 1 0-12.3 6.1 6.1 0 0 1 0 12.3" fill="#005bbb81"/><path d="M41.4-82.9a6.1 6.1 0 1 1 0-12.3 6.1 6.1 0 0 1 0 12.3" fill="#fff82"/><path d="M138.7-61.8a6.2 6.2 0 1 1 0-12.4 6.2 6.2 0 0 1 0 12.4" fill="#c2e1ff83"/><path d="M136.5-257.5a6.2 6.2 0 1 1 0-12.4 6.2 6.2 0 0 1 0 12.4" fill="#fff50084"/><path d="M123-50.5a6.2 6.2 0 1 1 0-12.5 6.2 6.2 0 0 1 0 12.5" fill="#c2e1ff84"/><path d="M172.8-66.2a6.3 6.3 0 1 1 0-12.5 6.3 6.3 0 0 1 0 12.5" fill="#c2e1ff85"/><path d="M195.5-224.6a6.3 6.3 0 1 1 0-12.6 6.3 6.3 0 0 1 0 12.6" fill="#c2e1ff85"/><path d="M102.2-275.2a6.3 6.3 0 1 1 0-12.6 6.3 6.3 0 0 1 0 12.6" fill="#c2e1ff85"/><path d="M-6.8-101.5a6.3 6.3 0 1 1 0-12.6 6.3 6.3 0 0 1 0 12.6" fill="#fff86"/><path d="M145.3-273.8a6.4 6.4 0 1 1 0-12.7 6.4 6.4 0 0 1 0 12.7" fill="#fff50087"/><path d="M-16.1-89.8a6.4 6.4 0 1 1 0-12.9 6.4 6.4 0 0 1 0 12.9" fill="#fff50088"/><path d="M22-45.7a6.4 6.4 0 1 1 0-12.9 6.4 6.4 0 0 1 0 12.9" fill="#fff88"/><path d="M218.3-79.7a6.5 6.5 0 1 1 0-12.9 6.5 6.5 0 0 1 0 12.9" fill="#fff89"/><path d="M99-297.2a6.5 6.5 0 1 1 0-13 6.5 6.5 0 0 1 0 13" fill="#005bbb89"/><path d="M135.7-296.6a6.5 6.5 0 1 1 0-13 6.5 6.5 0 0 1 0 13" fill="#005bbb8A"/><path d="M12.2-28.3a6.6 6.6 0 1 1 0-13.2 6.6 6.6 0 0 1 0 13.2" fill="#fff8C"/><path d="M3.1-34.8a6.6 6.6 0 1 1 0-13.2 6.6 6.6 0 0 1 0 13.2" fill="#c2e1ff8C"/><path d="M85.2-0.4a6.6 6.6 0 1 1 0-13.3 6.6 6.6 0 0 1 0 13.3" fill="#fff5008D"/><path d="M-40.2-84.1a6.7 6.7 0 1 1 0-13.3 6.7 6.7 0 0 1 0 13.3" fill="#c2e1ff8D"/><path d="M167.9-11.9a6.7 6.7 0 1 1 0-13.4 6.7 6.7 0 0 1 0 13.4" fill="#c2e1ff8D"/><path d="M-55.2-194.5a6.7 6.7 0 1 1 0-13.3 6.7 6.7 0 0 1 0 13.3" fill="#fff8E"/><path d="M78.9 4.2a6.7 6.7 0 1 1 0-13.4 6.7 6.7 0 0 1 0 13.4" fill="#fff5008E"/><path d="M157.8-318.1a6.8 6.8 0 1 1 0-13.7 6.8 6.8 0 0 1 0 13.7" fill="#fff91"/><path d="M190.7-3.4a6.9 6.9 0 1 1 0-13.8 6.9 6.9 0 0 1 0 13.8" fill="#fff50093"/><path d="M13.3-311.4a6.9 6.9 0 1 1 0-13.9 6.9 6.9 0 0 1 0 13.9" fill="#fff93"/><path d="M267.1-81.6a7 7 0 1 1 0-14 7 7 0 0 1 0 14" fill="#fff94"/><path d="M-50.1-46a7 7 0 1 1 0-14.1 7 7 0 0 1 0 14.1" fill="#005bbb95"/><path d="M2.3 5.8a7.1 7.1 0 1 1 0-14.2 7.1 7.1 0 0 1 0 14.2" fill="#005bbb96"/><path d="M156.8 25.3a7.1 7.1 0 1 1 0-14.2 7.1 7.1 0 0 1 0 14.2" fill="#005bbb97"/><path d="M-39-25.6a7.1 7.1 0 1 1 0-14.2 7.1 7.1 0 0 1 0 14.2" fill="#c2e1ff97"/><path d="M-28.6-14.1a7.1 7.1 0 1 1 0-14.3 7.1 7.1 0 0 1 0 14.3" fill="#c2e1ff97"/><path d="M111.7-346.7a7.1 7.1 0 1 1 0-14.3 7.1 7.1 0 0 1 0 14.3" fill="#c2e1ff98"/><path d="M212.1 0.8a7.1 7.1 0 1 1 0-14.3 7.1 7.1 0 0 1 0 14.3" fill="#005bbb98"/><path d="M290.7-186a7.2 7.2 0 1 1 0-14.3 7.2 7.2 0 0 1 0 14.3" fill="#005bbb98"/><path d="M-29.4-303.4a7.2 7.2 0 1 1 0-14.4 7.2 7.2 0 0 1 0 14.4" fill="#005bbb99"/><path d="M282.6-81a7.2 7.2 0 1 1 0-14.4 7.2 7.2 0 0 1 0 14.4" fill="#fff5009A"/><path d="M132.9-351.1a7.3 7.3 0 1 1 0-14.6 7.3 7.3 0 0 1 0 14.6" fill="#fff5009A"/><path d="M141.7 41.1a7.3 7.3 0 1 1 0-14.6 7.3 7.3 0 0 1 0 14.6" fill="#fff9B"/><path d="M300-125.8a7.3 7.3 0 1 1 0-14.6 7.3 7.3 0 0 1 0 14.6" fill="#fff5009C"/><path d="M129.3-357.2a7.4 7.4 0 1 1 0-14.8 7.4 7.4 0 0 1 0 14.8" fill="#fff9D"/><path d="M-98.8-105.7a7.4 7.4 0 1 1 0-14.8 7.4 7.4 0 0 1 0 14.8" fill="#005bbb9D"/><path d="M-87.8-72.3a7.4 7.4 0 1 1 0-14.8 7.4 7.4 0 0 1 0 14.8" fill="#005bbb9D"/><path d="M-50.9-296.2a7.4 7.4 0 1 1 0-14.9 7.4 7.4 0 0 1 0 14.9" fill="#fff5009E"/><path d="M307.4-155.1a7.4 7.4 0 1 1 0-14.8 7.4 7.4 0 0 1 0 14.8" fill="#fff9E"/><path d="M-85.9-248.3a7.5 7.5 0 1 1 0-14.9 7.5 7.5 0 0 1 0 14.9" fill="#fff5009F"/><path d="M233.5-316.1a7.5 7.5 0 1 1 0-15 7.5 7.5 0 0 1 0 15" fill="#005bbb9F"/><path d="M100.2 54.9a7.5 7.5 0 1 1 0-15 7.5 7.5 0 0 1 0 15" fill="#fffA0"/><path d="M245.8-310.4a7.6 7.6 0 1 1 0-15.1 7.6 7.6 0 0 1 0 15.1" fill="#005bbbA1"/><path d="M-102.2-79a7.7 7.7 0 1 1 0-15.3 7.7 7.7 0 0 1 0 15.3" fill="#c2e1ffA3"/><path d="M-49.2 1.8a7.7 7.7 0 1 1 0-15.4 7.7 7.7 0 0 1 0 15.4" fill="#fff500A3"/><path d="M305.6-222.6a7.7 7.7 0 1 1 0-15.3 7.7 7.7 0 0 1 0 15.3" fill="#fffA3"/><path d="M-117.4-172.1a7.7 7.7 0 1 1 0-15.4 7.7 7.7 0 0 1 0 15.4" fill="#005bbbA4"/><path d="M-115.8-197.7a7.8 7.8 0 1 1 0-15.5 7.8 7.8 0 0 1 0 15.5" fill="#c2e1ffA6"/><path d="M111-374.8a7.8 7.8 0 1 1 0-15.6 7.8 7.8 0 0 1 0 15.6" fill="#005bbbA6"/><path d="M76.6 65.1a7.8 7.8 0 1 1 0-15.6 7.8 7.8 0 0 1 0 15.6" fill="#c2e1ffA7"/><path d="M78.2 66.2a7.8 7.8 0 1 1 0-15.7 7.8 7.8 0 0 1 0 15.7" fill="#005bbbA7"/><path d="M166.5 60.5a8 8 0 1 1 0-15.9 8 8 0 0 1 0 15.9" fill="#c2e1ffAA"/><path d="M305-60.6a8 8 0 1 1 0-16 8 8 0 0 1 0 16" fill="#fffAA"/><path d="M-31.4-338.8a8 8 0 1 1 0-16 8 8 0 0 1 0 16" fill="#005bbbAB"/><path d="M-92.7-273.9a8 8 0 1 1 0-16.1 8 8 0 0 1 0 16.1" fill="#005bbbAB"/><path d="M210.8 43.6a8 8 0 1 1 0-16.1 8 8 0 0 1 0 16.1" fill="#005bbbAB"/><path d="M-36.5-336.6a8.1 8.1 0 1 1 0-16.1 8.1 8.1 0 0 1 0 16.1" fill="#c2e1ffAC"/><path d="M81.8-381.5a8.1 8.1 0 1 1 0-16.1 8.1 8.1 0 0 1 0 16.1" fill="#c2e1ffAC"/><path d="M-39.3-337a8.2 8.2 0 1 1 0-16.3 8.2 8.2 0 0 1 0 16.3" fill="#c2e1ffAE"/><path d="M172.4 63.8a8.2 8.2 0 1 1 0-16.4 8.2 8.2 0 0 1 0 16.4" fill="#fff500AE"/><path d="M-84.1-293.6a8.2 8.2 0 1 1 0-16.4 8.2 8.2 0 0 1 0 16.4" fill="#fff500B0"/><path d="M320.2-223.8a8.2 8.2 0 1 1 0-16.4 8.2 8.2 0 0 1 0 16.4" fill="#fffB0"/><path d="M229.8 37a8.2 8.2 0 1 1 0-16.5 8.2 8.2 0 0 1 0 16.5" fill="#fff500B0"/><path d="M326.8-201.7a8.3 8.3 0 1 1 0-16.5 8.3 8.3 0 0 1 0 16.5" fill="#fffB1"/><path d="M330.4-124.8a8.3 8.3 0 1 1 0-16.6 8.3 8.3 0 0 1 0 16.6" fill="#c2e1ffB2"/><path d="M100.4 78.4a8.3 8.3 0 1 1 0-16.7 8.3 8.3 0 0 1 0 16.7" fill="#005bbbB2"/><path d="M332.1-134.5a8.4 8.4 0 1 1 0-16.7 8.4 8.4 0 0 1 0 16.7" fill="#fff500B3"/><path d="M290.7-287.9a8.4 8.4 0 1 1 0-16.7 8.4 8.4 0 0 1 0 16.7" fill="#fffB3"/><path d="M84.8-386.9a8.4 8.4 0 1 1 0-16.8 8.4 8.4 0 0 1 0 16.8" fill="#c2e1ffB3"/><path d="M318.9-234.8a8.4 8.4 0 1 1 0-16.8 8.4 8.4 0 0 1 0 16.8" fill="#c2e1ffB3"/><path d="M-79.8-302.9a8.4 8.4 0 1 1 0-16.9 8.4 8.4 0 0 1 0 16.9" fill="#005bbbB3"/><path d="M118.3-386.9a8.4 8.4 0 1 1 0-16.9 8.4 8.4 0 0 1 0 16.9" fill="#005bbbB4"/><path d="M55.5-384a8.5 8.5 0 1 1 0-16.9 8.5 8.5 0 0 1 0 16.9" fill="#005bbbB5"/><path d="M334-144a8.5 8.5 0 1 1 0-16.9 8.5 8.5 0 0 1 0 16.9" fill="#fffB5"/><path d="M164.7 71.2a8.5 8.5 0 1 1 0-17 8.5 8.5 0 0 1 0 17" fill="#fff500B5"/><path d="M147.9 75.6a8.5 8.5 0 1 1 0-17 8.5 8.5 0 0 1 0 17" fill="#c2e1ffB6"/><path d="M198.4-367a8.5 8.5 0 1 1 0-17.1 8.5 8.5 0 0 1 0 17.1" fill="#fff500B6"/><path d="M-86.4-11.1a8.5 8.5 0 1 1 0-17.1 8.5 8.5 0 0 1 0 17.1" fill="#fffB6"/><path d="M325.4-219.7a8.5 8.5 0 1 1 0-17.1 8.5 8.5 0 0 1 0 17.1" fill="#005bbbB6"/><path d="M39.7-381a8.5 8.5 0 1 1 0-17 8.5 8.5 0 0 1 0 17" fill="#005bbbB6"/><path d="M-133.6-129.3a8.5 8.5 0 1 1 0-17.1 8.5 8.5 0 0 1 0 17.1" fill="#fffB7"/><path d="M228.5 42.7a8.5 8.5 0 1 1 0-17.1 8.5 8.5 0 0 1 0 17.1" fill="#c2e1ffB7"/><path d="M52.8 77.2a8.7 8.7 0 1 1 0-17.3 8.7 8.7 0 0 1 0 17.3" fill="#fff500BA"/><path d="M-132.4-113.4a8.7 8.7 0 1 1 0-17.4 8.7 8.7 0 0 1 0 17.4" fill="#c2e1ffBA"/><path d="M60.9 79a8.7 8.7 0 1 1 0-17.5 8.7 8.7 0 0 1 0 17.5" fill="#005bbbBB"/><path d="M233.5 41.3a8.8 8.8 0 1 1 0-17.7 8.8 8.8 0 0 1 0 17.7" fill="#005bbbBD"/><path d="M208.7-363.1a9 9 0 1 1 0-17.9 9 9 0 0 1 0 17.9" fill="#c2e1ffC0"/><path d="M69.5 80.5a9 9 0 1 1 0-18.1 9 9 0 0 1 0 18.1" fill="#005bbbC1"/><path d="M185.1 66.5a9 9 0 1 1 0-18 9 9 0 0 1 0 18" fill="#c2e1ffC1"/><path d="M-134.8-132.7a9.1 9.1 0 1 1 0-18.1 9.1 9.1 0 0 1 0 18.1" fill="#fff500C2"/><path d="M36.3-380.4a9.1 9.1 0 1 1 0-18.1 9.1 9.1 0 0 1 0 18.1" fill="#005bbbC2"/><path d="M-108.6-262.8a9.1 9.1 0 1 1 0-18.2 9.1 9.1 0 0 1 0 18.2" fill="#fffC3"/><path d="M11.2-371a9.2 9.2 0 1 1 0-18.3 9.2 9.2 0 0 1 0 18.3" fill="#fff500C4"/><path d="M-119.4-235.9a9.2 9.2 0 1 1 0-18.4 9.2 9.2 0 0 1 0 18.4" fill="#c2e1ffC6"/><path d="M-133.6-146.4a9.3 9.3 0 1 1 0-18.6 9.3 9.3 0 0 1 0 18.6" fill="#fffC7"/><path d="M61.4 74.6a9.5 9.5 0 1 1 0-19 9.5 9.5 0 0 1 0 19" fill="#fff500CB"/><path d="M-57.6-318.9a9.6 9.6 0 1 1 0-19.2 9.6 9.6 0 0 1 0 19.2" fill="#fffCE"/><path d="M51.1-376.1a9.6 9.6 0 1 1 0-19.2 9.6 9.6 0 0 1 0 19.2" fill="#005bbbCE"/><path d="M327.4-139.9a9.6 9.6 0 1 1 0-19.3 9.6 9.6 0 0 1 0 19.3" fill="#005bbbCF"/><path d="M202.6 49.8a9.7 9.7 0 1 1 0-19.4 9.7 9.7 0 0 1 0 19.4" fill="#c2e1ffCF"/><path d="M283.2-21.8a9.8 9.8 0 1 1 0-19.5 9.8 9.8 0 0 1 0 19.5" fill="#005bbbD1"/><path d="M187.2-359.8a9.8 9.8 0 1 1 0-19.6 9.8 9.8 0 0 1 0 19.6" fill="#005bbbD2"/><path d="M18.3-360.9a9.8 9.8 0 1 1 0-19.6 9.8 9.8 0 0 1 0 19.6" fill="#fff500D2"/><path d="M-65.5-301.3a9.9 9.9 0 1 1 0-19.7 9.9 9.9 0 0 1 0 19.7" fill="#fffD3"/><path d="M-93.3-43.7a9.9 9.9 0 1 1 0-19.7 9.9 9.9 0 0 1 0 19.7" fill="#fff500D4"/><path d="M44-367a9.9 9.9 0 1 1 0-19.8 9.9 9.9 0 0 1 0 19.8" fill="#c2e1ffD4"/><path d="M-85.4-32.1a9.9 9.9 0 1 1 0-19.8 9.9 9.9 0 0 1 0 19.8" fill="#fff500D4"/><path d="M229.7 26a9.9 9.9 0 1 1 0-19.8 9.9 9.9 0 0 1 0 19.8" fill="#fffD5"/><path d="M300.2-60.7a9.9 9.9 0 1 1 0-19.9 9.9 9.9 0 0 1 0 19.9" fill="#c2e1ffD5"/><path d="M314.9-104.3a9.9 9.9 0 1 1 0-19.9 9.9 9.9 0 0 1 0 19.9" fill="#fffD5"/><path d="M-32.7 21.3a10 10 0 1 1 0-19.9 10 10 0 0 1 0 19.9" fill="#005bbbD6"/><path d="M229-329.1a10 10 0 1 1 0-19.9 10 10 0 0 1 0 19.9" fill="#005bbbD6"/><path d="M318.3-145.9a10 10 0 1 1 0-20 10 10 0 0 1 0 20" fill="#c2e1ffD6"/><path d="M-59.7-6.7a10 10 0 1 1 0-20.1 10 10 0 0 1 0 20.1" fill="#fffD8"/><path d="M-114.5-147a10.1 10.1 0 1 1 0-20.2 10.1 10.1 0 0 1 0 20.2" fill="#fffD9"/><path d="M228.1 16.3a10.2 10.2 0 1 1 0-20.3 10.2 10.2 0 0 1 0 20.3" fill="#fff500DA"/><path d="M-106.2-119.4a10.2 10.2 0 1 1 0-20.5 10.2 10.2 0 0 1 0 20.5" fill="#fffDC"/><path d="M269.7-31.4a10.3 10.3 0 1 1 0-20.5 10.3 10.3 0 0 1 0 20.5" fill="#005bbbDC"/><path d="M117.4 53.1a10.3 10.3 0 1 1 0-20.6 10.3 10.3 0 0 1 0 20.6" fill="#c2e1ffDD"/><path d="M284.6-63.1a10.3 10.3 0 1 1 0-20.7 10.3 10.3 0 0 1 0 20.7" fill="#c2e1ffDE"/><path d="M-100.2-109.3a10.3 10.3 0 1 1 0-20.7 10.3 10.3 0 0 1 0 20.7" fill="#c2e1ffDE"/><path d="M-95-204.6a10.4 10.4 0 1 1 0-20.8 10.4 10.4 0 0 1 0 20.8" fill="#fffDF"/><path d="M32.1 38.1a10.4 10.4 0 1 1 0-20.8 10.4 10.4 0 0 1 0 20.8" fill="#fffDF"/><path d="M185.3-334.3a10.4 10.4 0 1 1 0-20.8 10.4 10.4 0 0 1 0 20.8" fill="#005bbbE0"/><path d="M172.5 34.3a10.4 10.4 0 1 1 0-20.9 10.4 10.4 0 0 1 0 20.9" fill="#005bbbE0"/><path d="M292.2-100.4a10.5 10.5 0 1 1 0-20.9 10.5 10.5 0 0 1 0 20.9" fill="#fffE1"/><path d="M297.6-174.1a10.5 10.5 0 1 1 0-20.9 10.5 10.5 0 0 1 0 20.9" fill="#fffE1"/><path d="M77.9 45.2a10.5 10.5 0 1 1 0-21 10.5 10.5 0 0 1 0 21" fill="#c2e1ffE1"/><path d="M255.4-273.6a10.5 10.5 0 1 1 0-21 10.5 10.5 0 0 1 0 21" fill="#c2e1ffE1"/><path d="M284.8-219a10.5 10.5 0 1 1 0-21 10.5 10.5 0 0 1 0 21" fill="#c2e1ffE2"/><path d="M115.2 42.6a10.5 10.5 0 1 1 0-21 10.5 10.5 0 0 1 0 21" fill="#c2e1ffE2"/><path d="M192.7-322.8a10.5 10.5 0 1 1 0-21.1 10.5 10.5 0 0 1 0 21.1" fill="#fff500E2"/><path d="M37 31.6a10.5 10.5 0 1 1 0-21.1 10.5 10.5 0 0 1 0 21.1" fill="#fffE3"/><path d="M-28.9-7.5a10.6 10.6 0 1 1 0-21.1 10.6 10.6 0 0 1 0 21.1" fill="#c2e1ffE3"/><path d="M105.5-344.9a10.6 10.6 0 1 1 0-21.1 10.6 10.6 0 0 1 0 21.1" fill="#005bbbE3"/><path d="M-78.3-90.6a10.6 10.6 0 1 1 0-21.3 10.6 10.6 0 0 1 0 21.3" fill="#fffE5"/><path d="M24.7-324.4a10.6 10.6 0 1 1 0-21.3 10.6 10.6 0 0 1 0 21.3" fill="#c2e1ffE5"/><path d="M55.5 28.7a10.7 10.7 0 1 1 0-21.4 10.7 10.7 0 0 1 0 21.4" fill="#c2e1ffE6"/><path d="M283.5-126a10.7 10.7 0 1 1 0-21.4 10.7 10.7 0 0 1 0 21.4" fill="#fffE6"/><path d="M-26.7-285.9a10.7 10.7 0 1 1 0-21.5 10.7 10.7 0 0 1 0 21.5" fill="#fff500E6"/><path d="M-76.8-190.7a10.8 10.8 0 1 1 0-21.5 10.8 10.8 0 0 1 0 21.5" fill="#005bbbE7"/><path d="M-75.4-193a10.8 10.8 0 1 1 0-21.6 10.8 10.8 0 0 1 0 21.6" fill="#fff500E8"/><path d="M252.9-57.4a10.8 10.8 0 1 1 0-21.5 10.8 10.8 0 0 1 0 21.5" fill="#fffE8"/><path d="M-72.5-154.9a10.9 10.9 0 1 1 0-21.8 10.9 10.9 0 0 1 0 21.8" fill="#005bbbEA"/><path d="M218.2-274.7a10.9 10.9 0 1 1 0-21.8 10.9 10.9 0 0 1 0 21.8" fill="#fffEA"/><path d="M-34.9-50.7a10.9 10.9 0 1 1 0-21.9 10.9 10.9 0 0 1 0 21.9" fill="#005bbbEB"/><path d="M2.9-21.1a11 11 0 1 1 0-22 11 11 0 0 1 0 22" fill="#c2e1ffED"/><path d="M220.6-257.1a11 11 0 1 1 0-22 11 11 0 0 1 0 22" fill="#fff500ED"/><path d="M-14-39.5a11 11 0 1 1 0-22.1 11 11 0 0 1 0 22.1" fill="#fff500ED"/><path d="M-36-69.7a11 11 0 1 1 0-22.1 11 11 0 0 1 0 22.1" fill="#fff500EE"/><path d="M107.9-308.6a11.1 11.1 0 1 1 0-22.2 11.1 11.1 0 0 1 0 22.2" fill="#fff500EE"/><path d="M53.7-2.3a11.1 11.1 0 1 1 0-22.1 11.1 11.1 0 0 1 0 22.1" fill="#fffEE"/><path d="M12-28.8a11.1 11.1 0 1 1 0-22.3 11.1 11.1 0 0 1 0 22.3" fill="#fff500F0"/><path d="M219.3-59.3a11.1 11.1 0 1 1 0-22.2 11.1 11.1 0 0 1 0 22.2" fill="#fff500F0"/><path d="M213.9-243a11.2 11.2 0 1 1 0-22.4 11.2 11.2 0 0 1 0 22.4" fill="#fffF1"/><path d="M-15.7-63.1a11.2 11.2 0 1 1 0-22.4 11.2 11.2 0 0 1 0 22.4" fill="#c2e1ffF1"/><path d="M241-176.9a11.2 11.2 0 1 1 0-22.5 11.2 11.2 0 0 1 0 22.5" fill="#005bbbF1"/><path d="M220.6-221.9a11.2 11.2 0 1 1 0-22.5 11.2 11.2 0 0 1 0 22.5" fill="#005bbbF2"/><path d="M37.7-26.7a11.2 11.2 0 1 1 0-22.4 11.2 11.2 0 0 1 0 22.4" fill="#c2e1ffF2"/><path d="M171.6-263.7a11.3 11.3 0 1 1 0-22.6 11.3 11.3 0 0 1 0 22.6" fill="#c2e1ffF3"/><path d="M-9.6-76.6a11.3 11.3 0 1 1 0-22.6 11.3 11.3 0 0 1 0 22.6" fill="#fffF3"/><path d="M184.3-246.5a11.3 11.3 0 1 1 0-22.7 11.3 11.3 0 0 1 0 22.7" fill="#005bbbF4"/><path d="M81.2-27.9a11.4 11.4 0 1 1 0-22.7 11.4 11.4 0 0 1 0 22.7" fill="#fff500F5"/><path d="M189.8-218.2a11.5 11.5 0 1 1 0-22.9 11.5 11.5 0 0 1 0 22.9" fill="#005bbbF7"/><path d="M171.1-235.3a11.5 11.5 0 1 1 0-23 11.5 11.5 0 0 1 0 23" fill="#fffF7"/><path d="M200.9-113.5a11.5 11.5 0 1 1 0-23 11.5 11.5 0 0 1 0 23" fill="#c2e1ffF7"/><path d="M117.5-188.8a11.8 11.8 0 1 1 0-23.5 11.8 11.8 0 0 1 0 23.5" fill="#005bbbFD"/><path d="M130.4-135.5a11.8 11.8 0 1 1 0-23.5 11.8 11.8 0 0 1 0 23.5" fill="#fffFE"/><path d="M122-141.8a11.8 11.8 0 1 1 0-23.6 11.8 11.8 0 0 1 0 23.6" fill="#005bbbFE"/></g></svg>