<svg width="1200" height="675" viewBox="-500 -500 1200 675" xmlns="http://www.w3.org/2000/svg"><path d="M-500-500h1200v675h-1200z" fill="#000"/><style>.sparkles path{stroke-linecap:round; stroke-width:1}</style><g class="sparkles"><path d="M100-162.5l50.6 0" stroke="#fff33"/><path d="M100-162.5l-2.9 51.7" stroke="#fff50033"/><path d="M100-162.5l-81.6 15" stroke="#fff35"/><path d="M100-162.5l91.8 8.8" stroke="#fff35"/><path d="M100-162.5l-43 100.9" stroke="#c2e1ff37"/><path d="M100-162.5l-113 11.5" stroke="#005bbb38"/><path d="M100-162.5l22.4 123.9" stroke="#fff50039"/><path d="M100-162.5l-80.9-102.7" stroke="#fff3A"/><path d="M100-162.5l118.7-62.2" stroke="#005bbb3A"/><path d="M100-162.5l140.6-0.1" stroke="#fff3B"/><path d="M100-162.5l145.4-12.1" stroke="#fff3C"/><path d="M100-162.5l-153.7-19.5" stroke="#c2e1ff3E"/><path d="M100-162.5l-128.4-87" stroke="#c2e1ff3E"/><path d="M100-162.5l-103.5-116" stroke="#fff3E"/><path d="M100-162.5l-129.6-94.9" stroke="#005bbb3F"/><path d="M100-162.5l-156.2-38.9" stroke="#fff3F"/><path d="M100-162.5l-160.5-28.2" stroke="#005bbb3F"/><path d="M100-162.5l-166.3 10.8" stroke="#c2e1ff40"/><path d="M100-162.5l-34.6 165.3" stroke="#c2e1ff41"/><path d="M100-162.5l-98.9-137.5" stroke="#fff41"/><path d="M100-162.5l169.3-45.1" stroke="#fff50042"/><path d="M100-162.5l-146 102" stroke="#fff50043"/><path d="M100-162.5l-161.9 76.3" stroke="#fff43"/><path d="M100-162.5l-28.8-182.6" stroke="#c2e1ff44"/><path d="M100-162.5l-160.6-92.5" stroke="#fff44"/><path d="M100-162.5l166.2-99.8" stroke="#005bbb47"/><path d="M100-162.5l-39.3-190.8" stroke="#c2e1ff47"/><path d="M100-162.5l7.5-198.4" stroke="#c2e1ff48"/><path d="M100-162.5l-8.6-199.2" stroke="#005bbb49"/><path d="M100-162.5l171.4 103.1" stroke="#c2e1ff49"/><path d="M100-162.5l77.5 185.5" stroke="#fff50049"/><path d="M100-162.5l-150.6 136.5" stroke="#005bbb4A"/><path d="M100-162.5l94 182.8" stroke="#005bbb4B"/><path d="M100-162.5l101.8 179" stroke="#fff4B"/><path d="M100-162.5l65 200.1" stroke="#fff5004D"/><path d="M100-162.5l213.2-17.9" stroke="#fff5004E"/><path d="M100-162.5l-214.3 21.5" stroke="#fff4F"/><path d="M100-162.5l-153.8-152" stroke="#c2e1ff4F"/><path d="M100-162.5l214.2-31.1" stroke="#fff4F"/><path d="M100-162.5l103.1 192.2" stroke="#fff50050"/><path d="M100-162.5l-152.4 156.4" stroke="#005bbb50"/><path d="M100-162.5l197.7-97.7" stroke="#fff50052"/><path d="M100-162.5l-137.2-172.8" stroke="#c2e1ff52"/><path d="M100-162.5l-75.4 209.2" stroke="#fff53"/><path d="M100-162.5l-126 183.1" stroke="#005bbb53"/><path d="M100-162.5l-54.6-216" stroke="#c2e1ff53"/><path d="M100-162.5l-81.1 210.3" stroke="#c2e1ff55"/><path d="M100-162.5l-190.7 120.7" stroke="#fff55"/><path d="M100-162.5l-106.3-199.6" stroke="#c2e1ff55"/><path d="M100-162.5l-168.2 151.6" stroke="#c2e1ff55"/><path d="M100-162.5l91.3 207.4" stroke="#fff55"/><path d="M100-162.5l-30.7 225.7" stroke="#c2e1ff56"/><path d="M100-162.5l201.3-107.4" stroke="#fff57"/><path d="M100-162.5l224.3-49.3" stroke="#005bbb58"/><path d="M100-162.5l-94.8 209.5" stroke="#fff58"/><path d="M100-162.5l105.7 205.4" stroke="#fff50059"/><path d="M100-162.5l-191-131.6" stroke="#c2e1ff5A"/><path d="M100-162.5l-166.6-163.1" stroke="#fff5B"/><path d="M100-162.5l-227.7-52.1" stroke="#fff5C"/><path d="M100-162.5l-222.6 70.7" stroke="#fff5C"/><path d="M100-162.5l92.6-215.4" stroke="#fff5D"/><path d="M100-162.5l162.6-169.5" stroke="#fff5E"/><path d="M100-162.5l-234.1 21.3" stroke="#fff5E"/><path d="M100-162.5l38-232" stroke="#fff5005F"/><path d="M100-162.5l-53.4-229" stroke="#005bbb5F"/><path d="M100-162.5l118.3 203.4" stroke="#005bbb5F"/><path d="M100-162.5l223.8-72.9" stroke="#c2e1ff5F"/><path d="M100-162.5l158.3 174.5" stroke="#fff60"/><path d="M100-162.5l-91.7-217.1" stroke="#005bbb60"/><path d="M100-162.5l-231.5-44.9" stroke="#fff60"/><path d="M100-162.5l-155.9 177" stroke="#fff61"/><path d="M100-162.5l108.3 209.6" stroke="#fff50061"/><path d="M100-162.5l234.9 23.3" stroke="#fff50061"/><path d="M100-162.5l-183.7-148.3" stroke="#005bbb61"/><path d="M100-162.5l-145.4-186.2" stroke="#c2e1ff63"/><path d="M100-162.5l-178.6-154.7" stroke="#005bbb63"/><path d="M100-162.5l57.1-229.2" stroke="#005bbb63"/><path d="M100-162.5l-32.4 233.9" stroke="#fff65"/><path d="M100-162.5l-147.8-184.1" stroke="#c2e1ff66"/><path d="M100-162.5l235.9 9" stroke="#c2e1ff66"/><path d="M100-162.5l29.1 234.2" stroke="#fff50066"/><path d="M100-162.5l102.9-212.2" stroke="#fff66"/><path d="M100-162.5l-235 20.3" stroke="#fff66"/><path d="M100-162.5l-171.5-161.9" stroke="#c2e1ff66"/><path d="M100-162.5l-7.6-235.1" stroke="#fff68"/><path d="M100-162.5l-43-231" stroke="#005bbb69"/><path d="M100-162.5l-28.1 233.3" stroke="#fff50069"/><path d="M100-162.5l-38.7 231.4" stroke="#005bbb69"/><path d="M100-162.5l105.3 209.4" stroke="#fff6A"/><path d="M100-162.5l199.8-121.9" stroke="#005bbb6A"/><path d="M100-162.5l194.6-129.1" stroke="#fff5006B"/><path d="M100-162.5l130.4 193" stroke="#005bbb6C"/><path d="M100-162.5l143.5-183.3" stroke="#c2e1ff6C"/><path d="M100-162.5l231.3 12.9" stroke="#fff5006D"/><path d="M100-162.5l-158.9 168.5" stroke="#fff5006D"/><path d="M100-162.5l-98.5-209.3" stroke="#fff5006E"/><path d="M100-162.5l181.1-143.4" stroke="#c2e1ff6E"/><path d="M100-162.5l227.8 35.7" stroke="#fff6E"/><path d="M100-162.5l216.8 78.2" stroke="#fff5006E"/><path d="M100-162.5l-226.2 44" stroke="#c2e1ff6F"/><path d="M100-162.5l142.5 179.3" stroke="#fff50070"/><path d="M100-162.5l48.3 223.7" stroke="#c2e1ff70"/><path d="M100-162.5l53.4-221.7" stroke="#fff71"/><path d="M100-162.5l-217.2 67.4" stroke="#c2e1ff71"/><path d="M100-162.5l-105.5-196.3" stroke="#005bbb74"/><path d="M100-162.5l-66.4 212.7" stroke="#fff74"/><path d="M100-162.5l180.7-128.5" stroke="#fff75"/><path d="M100-162.5l201.2 91" stroke="#fff50075"/><path d="M100-162.5l84.5 203.1" stroke="#fff76"/><path d="M100-162.5l139.4 167.5" stroke="#c2e1ff77"/><path d="M100-162.5l190.2-104.7" stroke="#005bbb77"/><path d="M100-162.5l-191.1-102.1" stroke="#fff50077"/><path d="M100-162.5l204.1-71.8" stroke="#005bbb78"/><path d="M100-162.5l-204.2-68.3" stroke="#c2e1ff78"/><path d="M100-162.5l-211.2 38.3" stroke="#fff78"/><path d="M100-162.5l5.7 214.3" stroke="#fff50079"/><path d="M100-162.5l-119.7-176.2" stroke="#fff50079"/><path d="M100-162.5l-123.8 172.5" stroke="#c2e1ff79"/><path d="M100-162.5l-5.5-209.8" stroke="#fff5007A"/><path d="M100-162.5l162.2-133.1" stroke="#fff7A"/><path d="M100-162.5l207.1-6.5" stroke="#005bbb7C"/><path d="M100-162.5l-199.7 45.6" stroke="#fff5007C"/><path d="M100-162.5l-50.5-194.1" stroke="#fff7E"/><path d="M100-162.5l194.7-42.4" stroke="#fff7E"/><path d="M100-162.5l163.8 112.2" stroke="#fff7F"/><path d="M100-162.5l191-48.4" stroke="#fff7F"/><path d="M100-162.5l-195.6-4.6" stroke="#005bbb80"/><path d="M100-162.5l-121.8-146.5" stroke="#c2e1ff81"/><path d="M100-162.5l-31 187.4" stroke="#fff50081"/><path d="M100-162.5l-170.8 81.1" stroke="#fff81"/><path d="M100-162.5l-92.9 164.6" stroke="#c2e1ff81"/><path d="M100-162.5l183.5-33.8" stroke="#005bbb82"/><path d="M100-162.5l107.4-149.4" stroke="#c2e1ff83"/><path d="M100-162.5l-127.6 132.1" stroke="#fff50083"/><path d="M100-162.5l-170.4-62.9" stroke="#c2e1ff83"/><path d="M100-162.5l145.4-107.7" stroke="#005bbb84"/><path d="M100-162.5l134.4-118.8" stroke="#fff50084"/><path d="M100-162.5l138.9 113.3" stroke="#fff84"/><path d="M100-162.5l-176.7-23.6" stroke="#005bbb84"/><path d="M100-162.5l175 11" stroke="#fff85"/><path d="M100-162.5l-95-146.6" stroke="#c2e1ff85"/><path d="M100-162.5l-165.6-37.3" stroke="#fff86"/><path d="M100-162.5l109.9 121.9" stroke="#fff87"/><path d="M100-162.5l-21.3-158.8" stroke="#fff50088"/><path d="M100-162.5l-156.2-21.1" stroke="#fff89"/><path d="M100-162.5l-145.2-58.4" stroke="#005bbb89"/><path d="M100-162.5l148.9-24.7" stroke="#005bbb8A"/><path d="M100-162.5l-77.4 129.6" stroke="#fff8A"/><path d="M100-162.5l144.7-41.6" stroke="#005bbb8A"/><path d="M100-162.5l138.8-55" stroke="#fff5008A"/><path d="M100-162.5l-70.6 128.7" stroke="#fff5008B"/><path d="M100-162.5l-119.7 74.6" stroke="#005bbb8C"/><path d="M100-162.5l-120.9 72.2" stroke="#005bbb8C"/><path d="M100-162.5l-128.8-53.1" stroke="#fff8C"/><path d="M100-162.5l26.7 135.3" stroke="#fff8C"/><path d="M100-162.5l45.7 128.3" stroke="#fff5008C"/><path d="M100-162.5l5.9-135.3" stroke="#005bbb8C"/><path d="M100-162.5l115.1-61.3" stroke="#005bbb8D"/><path d="M100-162.5l-109.7 66.3" stroke="#c2e1ff8E"/><path d="M100-162.5l63.9 108.7" stroke="#c2e1ff8E"/><path d="M100-162.5l114.8-51.5" stroke="#fff8E"/><path d="M100-162.5l37.8 116.7" stroke="#005bbb8E"/><path d="M100-162.5l-113.1-15.2" stroke="#fff8F"/><path d="M100-162.5l-104.9-26.5" stroke="#005bbb90"/><path d="M100-162.5l-34.8 97.6" stroke="#fff50090"/><path d="M100-162.5l27.8 96.6" stroke="#fff91"/><path d="M100-162.5l99.1-13.1" stroke="#fff50091"/><path d="M100-162.5l-72.9 64.2" stroke="#fff50091"/><path d="M100-162.5l40.7 84.6" stroke="#fff91"/><path d="M100-162.5l-88.5 23.1" stroke="#c2e1ff92"/><path d="M100-162.5l-22.4-83.3" stroke="#005bbb92"/><path d="M100-162.5l62.6 50.2" stroke="#fff50093"/><path d="M100-162.5l-37.9-68.6" stroke="#005bbb93"/><path d="M100-162.5l69 32.5" stroke="#fff93"/><path d="M100-162.5l-35.4 67.3" stroke="#fff50093"/><path d="M100-162.5l-64.8 1.7" stroke="#c2e1ff94"/><path d="M100-162.5l-45.5-0.6" stroke="#fff95"/><path d="M100-162.5l43.8-1.2" stroke="#c2e1ff95"/><path d="M100-162.5l8-40.1" stroke="#fff50095"/><path d="M100-162.5l19.1-21.6" stroke="#c2e1ff95"/><path d="M100-162.5l12.8 12.4" stroke="#fff50095"/></g><g class="sparcs"><path d="M150.6-156.5a6 6 0 1 1 0-12 6 6 0 0 1 0 12" fill="#fff5007E"/><path d="M97.1-104.8a6 6 0 1 1 0-12 6 6 0 0 1 0 12" fill="#c2e1ff7E"/><path d="M18.4-141.4a6.1 6.1 0 1 1 0-12.2 6.1 6.1 0 0 1 0 12.2" fill="#005bbb81"/><path d="M191.8-147.6a6.1 6.1 0 1 1 0-12.2 6.1 6.1 0 0 1 0 12.2" fill="#005bbb82"/><path d="M57-55.3a6.2 6.2 0 1 1 0-12.5 6.2 6.2 0 0 1 0 12.5" fill="#fff84"/><path d="M-13-144.7a6.3 6.3 0 1 1 0-12.6 6.3 6.3 0 0 1 0 12.6" fill="#fff84"/><path d="M122.4-32.2a6.4 6.4 0 1 1 0-12.8 6.4 6.4 0 0 1 0 12.8" fill="#005bbb87"/><path d="M19.1-258.8a6.4 6.4 0 1 1 0-12.8 6.4 6.4 0 0 1 0 12.8" fill="#c2e1ff87"/><path d="M218.7-218.2a6.4 6.4 0 1 1 0-12.9 6.4 6.4 0 0 1 0 12.9" fill="#fff88"/><path d="M240.6-156.1a6.5 6.5 0 1 1 0-13 6.5 6.5 0 0 1 0 13" fill="#005bbb89"/><path d="M245.4-168.1a6.5 6.5 0 1 1 0-13.1 6.5 6.5 0 0 1 0 13.1" fill="#005bbb8A"/><path d="M-53.7-175.4a6.6 6.6 0 1 1 0-13.2 6.6 6.6 0 0 1 0 13.2" fill="#005bbb8C"/><path d="M-28.4-242.9a6.6 6.6 0 1 1 0-13.2 6.6 6.6 0 0 1 0 13.2" fill="#005bbb8C"/><path d="M-3.5-271.9a6.6 6.6 0 1 1 0-13.3 6.6 6.6 0 0 1 0 13.3" fill="#fff8D"/><path d="M-29.6-250.7a6.7 6.7 0 1 1 0-13.4 6.7 6.7 0 0 1 0 13.4" fill="#c2e1ff8E"/><path d="M-56.2-194.7a6.7 6.7 0 1 1 0-13.4 6.7 6.7 0 0 1 0 13.4" fill="#fff8E"/><path d="M-60.5-183.9a6.7 6.7 0 1 1 0-13.5 6.7 6.7 0 0 1 0 13.5" fill="#fff8E"/><path d="M-66.3-144.9a6.8 6.8 0 1 1 0-13.5 6.8 6.8 0 0 1 0 13.5" fill="#005bbb8F"/><path d="M65.4 9.6a6.8 6.8 0 1 1 0-13.6 6.8 6.8 0 0 1 0 13.6" fill="#fff50090"/><path d="M1.1-293.2a6.8 6.8 0 1 1 0-13.6 6.8 6.8 0 0 1 0 13.6" fill="#fff50090"/><path d="M269.3-200.7a6.9 6.9 0 1 1 0-13.8 6.9 6.9 0 0 1 0 13.8" fill="#fff50092"/><path d="M-46-53.6a6.9 6.9 0 1 1 0-13.8 6.9 6.9 0 0 1 0 13.8" fill="#fff50093"/><path d="M-61.9-79.3a6.9 6.9 0 1 1 0-13.8 6.9 6.9 0 0 1 0 13.8" fill="#005bbb93"/><path d="M71.2-338.1a7 7 0 1 1 0-14 7 7 0 0 1 0 14" fill="#fff95"/><path d="M-60.6-248a7 7 0 1 1 0-14 7 7 0 0 1 0 14" fill="#005bbb95"/><path d="M266.2-255.1a7.2 7.2 0 1 1 0-14.4 7.2 7.2 0 0 1 0 14.4" fill="#c2e1ff98"/><path d="M60.7-346.1a7.2 7.2 0 1 1 0-14.4 7.2 7.2 0 0 1 0 14.4" fill="#005bbb99"/><path d="M107.5-353.7a7.3 7.3 0 1 1 0-14.5 7.3 7.3 0 0 1 0 14.5" fill="#c2e1ff9A"/><path d="M91.4-354.4a7.3 7.3 0 1 1 0-14.5 7.3 7.3 0 0 1 0 14.5" fill="#c2e1ff9B"/><path d="M271.4-52.2a7.3 7.3 0 1 1 0-14.5 7.3 7.3 0 0 1 0 14.5" fill="#005bbb9B"/><path d="M177.5 30.3a7.3 7.3 0 1 1 0-14.6 7.3 7.3 0 0 1 0 14.6" fill="#c2e1ff9B"/><path d="M-50.6-18.7a7.4 7.4 0 1 1 0-14.7 7.4 7.4 0 0 1 0 14.7" fill="#fff9C"/><path d="M194 27.7a7.4 7.4 0 1 1 0-14.8 7.4 7.4 0 0 1 0 14.8" fill="#fff5009D"/><path d="M201.8 23.9a7.4 7.4 0 1 1 0-14.8 7.4 7.4 0 0 1 0 14.8" fill="#005bbb9E"/><path d="M165 45.1a7.5 7.5 0 1 1 0-15 7.5 7.5 0 0 1 0 15" fill="#005bbbA0"/><path d="M313.2-172.8a7.6 7.6 0 1 1 0-15.2 7.6 7.6 0 0 1 0 15.2" fill="#c2e1ffA2"/><path d="M-114.3-133.4a7.6 7.6 0 1 1 0-15.3 7.6 7.6 0 0 1 0 15.3" fill="#fffA3"/><path d="M-53.8-306.8a7.7 7.7 0 1 1 0-15.4 7.7 7.7 0 0 1 0 15.4" fill="#c2e1ffA3"/><path d="M314.2-185.9a7.7 7.7 0 1 1 0-15.4 7.7 7.7 0 0 1 0 15.4" fill="#fffA3"/><path d="M203.1 37.4a7.7 7.7 0 1 1 0-15.4 7.7 7.7 0 0 1 0 15.4" fill="#c2e1ffA5"/><path d="M-52.4 1.7a7.7 7.7 0 1 1 0-15.5 7.7 7.7 0 0 1 0 15.5" fill="#fffA5"/><path d="M297.7-252.4a7.8 7.8 0 1 1 0-15.6 7.8 7.8 0 0 1 0 15.6" fill="#fff500A6"/><path d="M-37.2-327.5a7.8 7.8 0 1 1 0-15.6 7.8 7.8 0 0 1 0 15.6" fill="#fffA6"/><path d="M24.6 54.5a7.9 7.9 0 1 1 0-15.7 7.9 7.9 0 0 1 0 15.7" fill="#005bbbA8"/><path d="M-26 28.5a7.9 7.9 0 1 1 0-15.7 7.9 7.9 0 0 1 0 15.7" fill="#fffA8"/><path d="M45.4-370.6a7.9 7.9 0 1 1 0-15.8 7.9 7.9 0 0 1 0 15.8" fill="#005bbbA8"/><path d="M18.9 55.8a8 8 0 1 1 0-16 8 8 0 0 1 0 16" fill="#005bbbAA"/><path d="M-90.7-33.8a8 8 0 1 1 0-16 8 8 0 0 1 0 16" fill="#005bbbAA"/><path d="M-6.3-354.1a8 8 0 1 1 0-16 8 8 0 0 1 0 16" fill="#fff500AB"/><path d="M-68.2-2.8a8 8 0 1 1 0-16.1 8 8 0 0 1 0 16.1" fill="#c2e1ffAB"/><path d="M191.3 52.9a8 8 0 1 1 0-16 8 8 0 0 1 0 16" fill="#c2e1ffAB"/><path d="M69.3 71.3a8.1 8.1 0 1 1 0-16.2 8.1 8.1 0 0 1 0 16.2" fill="#c2e1ffAC"/><path d="M301.3-261.8a8.1 8.1 0 1 1 0-16.2 8.1 8.1 0 0 1 0 16.2" fill="#c2e1ffAD"/><path d="M324.3-203.6a8.2 8.2 0 1 1 0-16.4 8.2 8.2 0 0 1 0 16.4" fill="#005bbbAE"/><path d="M5.2 55.2a8.2 8.2 0 1 1 0-16.4 8.2 8.2 0 0 1 0 16.4" fill="#fff500AF"/><path d="M205.7 51.1a8.2 8.2 0 1 1 0-16.5 8.2 8.2 0 0 1 0 16.5" fill="#fff500B0"/><path d="M-91-285.8a8.3 8.3 0 1 1 0-16.6 8.3 8.3 0 0 1 0 16.6" fill="#c2e1ffB1"/><path d="M-66.6-317.3a8.4 8.4 0 1 1 0-16.7 8.4 8.4 0 0 1 0 16.7" fill="#fffB3"/><path d="M-127.7-206.2a8.4 8.4 0 1 1 0-16.8 8.4 8.4 0 0 1 0 16.8" fill="#fff500B4"/><path d="M-122.6-83.4a8.4 8.4 0 1 1 0-16.8 8.4 8.4 0 0 1 0 16.8" fill="#fff500B4"/><path d="M192.6-369.4a8.5 8.5 0 1 1 0-17 8.5 8.5 0 0 1 0 17" fill="#fff500B6"/><path d="M262.6-323.5a8.5 8.5 0 1 1 0-17 8.5 8.5 0 0 1 0 17" fill="#fffB7"/><path d="M-134.1-132.6a8.6 8.6 0 1 1 0-17.1 8.6 8.6 0 0 1 0 17.1" fill="#c2e1ffB7"/><path d="M138-386a8.6 8.6 0 1 1 0-17.1 8.6 8.6 0 0 1 0 17.1" fill="#fff500B7"/><path d="M46.6-382.9a8.6 8.6 0 1 1 0-17.2 8.6 8.6 0 0 1 0 17.2" fill="#c2e1ffB7"/><path d="M218.3 49.5a8.6 8.6 0 1 1 0-17.2 8.6 8.6 0 0 1 0 17.2" fill="#c2e1ffB8"/><path d="M323.8-226.8a8.6 8.6 0 1 1 0-17.2 8.6 8.6 0 0 1 0 17.2" fill="#fff500B8"/><path d="M258.3 20.7a8.6 8.6 0 1 1 0-17.3 8.6 8.6 0 0 1 0 17.3" fill="#fffB9"/><path d="M8.3-370.9a8.7 8.7 0 1 1 0-17.3 8.7 8.7 0 0 1 0 17.3" fill="#fffB9"/><path d="M-131.5-198.7a8.7 8.7 0 1 1 0-17.4 8.7 8.7 0 0 1 0 17.4" fill="#c2e1ffB9"/><path d="M-55.9 23.2a8.7 8.7 0 1 1 0-17.4 8.7 8.7 0 0 1 0 17.4" fill="#c2e1ffBA"/><path d="M208.3 55.8a8.7 8.7 0 1 1 0-17.4 8.7 8.7 0 0 1 0 17.4" fill="#005bbbBA"/><path d="M334.9-130.5a8.7 8.7 0 1 1 0-17.5 8.7 8.7 0 0 1 0 17.5" fill="#fff500BB"/><path d="M-83.7-302a8.7 8.7 0 1 1 0-17.5 8.7 8.7 0 0 1 0 17.5" fill="#005bbbBB"/><path d="M-45.4-339.9a8.8 8.8 0 1 1 0-17.6 8.8 8.8 0 0 1 0 17.6" fill="#005bbbBD"/><path d="M-78.6-308.3a8.8 8.8 0 1 1 0-17.7 8.8 8.8 0 0 1 0 17.7" fill="#005bbbBD"/><path d="M157.1-382.9a8.8 8.8 0 1 1 0-17.7 8.8 8.8 0 0 1 0 17.7" fill="#fffBD"/><path d="M67.6 80.4a8.9 8.9 0 1 1 0-17.9 8.9 8.9 0 0 1 0 17.9" fill="#c2e1ffBF"/><path d="M-47.8-337.6a9 9 0 1 1 0-18 9 9 0 0 1 0 18" fill="#005bbbC0"/><path d="M335.9-144.5a9 9 0 1 1 0-18 9 9 0 0 1 0 18" fill="#c2e1ffC0"/><path d="M129.1 80.7a9 9 0 1 1 0-18 9 9 0 0 1 0 18" fill="#fff500C1"/><path d="M202.9-365.7a9 9 0 1 1 0-18.1 9 9 0 0 1 0 18.1" fill="#fffC1"/><path d="M-135-133.2a9 9 0 1 1 0-18.1 9 9 0 0 1 0 18.1" fill="#005bbbC1"/><path d="M-71.5-315.4a9 9 0 1 1 0-18 9 9 0 0 1 0 18" fill="#005bbbC1"/><path d="M92.4-388.5a9.1 9.1 0 1 1 0-18.2 9.1 9.1 0 0 1 0 18.2" fill="#fffC4"/><path d="M57-384.4a9.2 9.2 0 1 1 0-18.3 9.2 9.2 0 0 1 0 18.3" fill="#fff500C4"/><path d="M71.9 80a9.2 9.2 0 1 1 0-18.4 9.2 9.2 0 0 1 0 18.4" fill="#c2e1ffC4"/><path d="M61.3 78.1a9.2 9.2 0 1 1 0-18.4 9.2 9.2 0 0 1 0 18.4" fill="#005bbbC5"/><path d="M205.3 56.1a9.2 9.2 0 1 1 0-18.4 9.2 9.2 0 0 1 0 18.4" fill="#fffC6"/><path d="M299.8-275.2a9.3 9.3 0 1 1 0-18.5 9.3 9.3 0 0 1 0 18.5" fill="#005bbbC6"/><path d="M294.6-282.3a9.3 9.3 0 1 1 0-18.6 9.3 9.3 0 0 1 0 18.6" fill="#fff500C7"/><path d="M230.4 39.9a9.4 9.4 0 1 1 0-18.7 9.4 9.4 0 0 1 0 18.7" fill="#c2e1ffC8"/><path d="M243.5-336.5a9.4 9.4 0 1 1 0-18.7 9.4 9.4 0 0 1 0 18.7" fill="#fff500C9"/><path d="M331.3-140.1a9.4 9.4 0 1 1 0-18.9 9.4 9.4 0 0 1 0 18.9" fill="#005bbbCA"/><path d="M-58.9 15.5a9.4 9.4 0 1 1 0-18.9 9.4 9.4 0 0 1 0 18.9" fill="#c2e1ffCA"/><path d="M1.5-362.4a9.5 9.5 0 1 1 0-18.9 9.5 9.5 0 0 1 0 18.9" fill="#c2e1ffCB"/><path d="M281.1-296.4a9.5 9.5 0 1 1 0-19 9.5 9.5 0 0 1 0 19" fill="#c2e1ffCB"/><path d="M327.8-117.3a9.5 9.5 0 1 1 0-19 9.5 9.5 0 0 1 0 19" fill="#fff500CC"/><path d="M316.8-74.8a9.5 9.5 0 1 1 0-19 9.5 9.5 0 0 1 0 19" fill="#fff500CC"/><path d="M-126.2-109a9.5 9.5 0 1 1 0-19 9.5 9.5 0 0 1 0 19" fill="#005bbbCC"/><path d="M242.5 26.4a9.6 9.6 0 1 1 0-19.2 9.6 9.6 0 0 1 0 19.2" fill="#c2e1ffCD"/><path d="M148.3 70.8a9.6 9.6 0 1 1 0-19.2 9.6 9.6 0 0 1 0 19.2" fill="#c2e1ffCE"/><path d="M153.4-374.6a9.6 9.6 0 1 1 0-19.2 9.6 9.6 0 0 1 0 19.2" fill="#fff500CE"/><path d="M-117.2-85.5a9.7 9.7 0 1 1 0-19.3 9.7 9.7 0 0 1 0 19.3" fill="#005bbbCF"/><path d="M-5.5-349a9.8 9.8 0 1 1 0-19.7 9.8 9.8 0 0 1 0 19.7" fill="#fffD3"/><path d="M33.6 60a9.8 9.8 0 1 1 0-19.7 9.8 9.8 0 0 1 0 19.7" fill="#fffD3"/><path d="M280.7-281.2a9.9 9.9 0 1 1 0-19.7 9.9 9.9 0 0 1 0 19.7" fill="#005bbbD4"/><path d="M301.2-61.6a9.9 9.9 0 1 1 0-19.8 9.9 9.9 0 0 1 0 19.8" fill="#fffD5"/><path d="M184.5 50.6a9.9 9.9 0 1 1 0-19.9 9.9 9.9 0 0 1 0 19.9" fill="#c2e1ffD5"/><path d="M239.4 15a10 10 0 1 1 0-20 10 10 0 0 1 0 20" fill="#c2e1ffD7"/><path d="M290.2-257.2a10 10 0 1 1 0-20 10 10 0 0 1 0 20" fill="#c2e1ffD7"/><path d="M-91.1-254.6a10 10 0 1 1 0-20 10 10 0 0 1 0 20" fill="#c2e1ffD7"/><path d="M304.1-224.3a10 10 0 1 1 0-20.1 10 10 0 0 1 0 20.1" fill="#c2e1ffD8"/><path d="M-104.2-220.7a10.1 10.1 0 1 1 0-20.2 10.1 10.1 0 0 1 0 20.2" fill="#fffD8"/><path d="M-111.2-114.1a10.1 10.1 0 1 1 0-20.2 10.1 10.1 0 0 1 0 20.2" fill="#fff500D9"/><path d="M105.7 61.9a10.1 10.1 0 1 1 0-20.2 10.1 10.1 0 0 1 0 20.2" fill="#005bbbD9"/><path d="M-19.7-328.6a10.1 10.1 0 1 1 0-20.3 10.1 10.1 0 0 1 0 20.3" fill="#005bbbDA"/><path d="M-23.8 20.1a10.2 10.2 0 1 1 0-20.3 10.2 10.2 0 0 1 0 20.3" fill="#fffDA"/><path d="M94.5-362.1a10.2 10.2 0 1 1 0-20.4 10.2 10.2 0 0 1 0 20.4" fill="#005bbbDB"/><path d="M262.2-285.4a10.2 10.2 0 1 1 0-20.4 10.2 10.2 0 0 1 0 20.4" fill="#fffDB"/><path d="M307.1-158.7a10.3 10.3 0 1 1 0-20.6 10.3 10.3 0 0 1 0 20.6" fill="#fff500DD"/><path d="M-99.7-106.6a10.3 10.3 0 1 1 0-20.7 10.3 10.3 0 0 1 0 20.7" fill="#fff500DE"/><path d="M49.5-346.1a10.4 10.4 0 1 1 0-20.9 10.4 10.4 0 0 1 0 20.9" fill="#c2e1ffE0"/><path d="M294.7-194.4a10.4 10.4 0 1 1 0-20.9 10.4 10.4 0 0 1 0 20.9" fill="#005bbbE0"/><path d="M263.8-39.9a10.5 10.5 0 1 1 0-20.9 10.5 10.5 0 0 1 0 20.9" fill="#005bbbE1"/><path d="M291-200.4a10.5 10.5 0 1 1 0-21 10.5 10.5 0 0 1 0 21" fill="#c2e1ffE1"/><path d="M-95.6-156.6a10.5 10.5 0 1 1 0-21 10.5 10.5 0 0 1 0 21" fill="#005bbbE2"/><path d="M-21.8-298.4a10.6 10.6 0 1 1 0-21.2 10.6 10.6 0 0 1 0 21.2" fill="#005bbbE4"/><path d="M69 35.5a10.6 10.6 0 1 1 0-21.2 10.6 10.6 0 0 1 0 21.2" fill="#fffE4"/><path d="M-70.8-70.8a10.6 10.6 0 1 1 0-21.3 10.6 10.6 0 0 1 0 21.3" fill="#c2e1ffE4"/><path d="M7.1 12.7a10.6 10.6 0 1 1 0-21.2 10.6 10.6 0 0 1 0 21.2" fill="#005bbbE4"/><path d="M283.5-185.7a10.7 10.7 0 1 1 0-21.3 10.7 10.7 0 0 1 0 21.3" fill="#fff500E5"/><path d="M207.4-301.2a10.7 10.7 0 1 1 0-21.4 10.7 10.7 0 0 1 0 21.4" fill="#fff500E6"/><path d="M-27.6-19.7a10.7 10.7 0 1 1 0-21.4 10.7 10.7 0 0 1 0 21.4" fill="#fff500E6"/><path d="M-70.4-214.7a10.7 10.7 0 1 1 0-21.5 10.7 10.7 0 0 1 0 21.5" fill="#005bbbE7"/><path d="M245.4-259.4a10.8 10.8 0 1 1 0-21.5 10.8 10.8 0 0 1 0 21.5" fill="#005bbbE7"/><path d="M234.4-270.5a10.8 10.8 0 1 1 0-21.5 10.8 10.8 0 0 1 0 21.5" fill="#fffE8"/><path d="M238.9-38.4a10.8 10.8 0 1 1 0-21.6 10.8 10.8 0 0 1 0 21.6" fill="#fff500E8"/><path d="M-76.7-175.3a10.8 10.8 0 1 1 0-21.6 10.8 10.8 0 0 1 0 21.6" fill="#005bbbE8"/><path d="M275-140.7a10.8 10.8 0 1 1 0-21.6 10.8 10.8 0 0 1 0 21.6" fill="#c2e1ffE9"/><path d="M5-298.2a10.8 10.8 0 1 1 0-21.7 10.8 10.8 0 0 1 0 21.7" fill="#fffE9"/><path d="M-65.6-188.9a10.9 10.9 0 1 1 0-21.8 10.9 10.9 0 0 1 0 21.8" fill="#c2e1ffEB"/><path d="M209.9-29.6a11 11 0 1 1 0-21.9 11 11 0 0 1 0 21.9" fill="#fff500EC"/><path d="M78.7-310.3a11 11 0 1 1 0-22 11 11 0 0 1 0 22" fill="#c2e1ffED"/><path d="M-56.2-172.6a11.1 11.1 0 1 1 0-22.1 11.1 11.1 0 0 1 0 22.1" fill="#005bbbEE"/><path d="M-45.2-209.8a11.1 11.1 0 1 1 0-22.1 11.1 11.1 0 0 1 0 22.1" fill="#005bbbEE"/><path d="M248.9-176a11.1 11.1 0 1 1 0-22.3 11.1 11.1 0 0 1 0 22.3" fill="#005bbbEF"/><path d="M22.6-21.8a11.1 11.1 0 1 1 0-22.3 11.1 11.1 0 0 1 0 22.3" fill="#005bbbF0"/><path d="M244.7-193a11.1 11.1 0 1 1 0-22.2 11.1 11.1 0 0 1 0 22.2" fill="#fffF0"/><path d="M238.8-206.3a11.1 11.1 0 1 1 0-22.3 11.1 11.1 0 0 1 0 22.3" fill="#c2e1ffF0"/><path d="M29.4-22.6a11.2 11.2 0 1 1 0-22.4 11.2 11.2 0 0 1 0 22.4" fill="#fffF0"/><path d="M-19.7-76.7a11.2 11.2 0 1 1 0-22.5 11.2 11.2 0 0 1 0 22.5" fill="#c2e1ffF2"/><path d="M-20.9-79.1a11.2 11.2 0 1 1 0-22.4 11.2 11.2 0 0 1 0 22.4" fill="#005bbbF2"/><path d="M-28.8-204.4a11.2 11.2 0 1 1 0-22.5 11.2 11.2 0 0 1 0 22.5" fill="#005bbbF2"/><path d="M126.7-15.9a11.3 11.3 0 1 1 0-22.5 11.3 11.3 0 0 1 0 22.5" fill="#005bbbF2"/><path d="M145.7-22.9a11.3 11.3 0 1 1 0-22.6 11.3 11.3 0 0 1 0 22.6" fill="#005bbbF3"/><path d="M105.9-286.5a11.3 11.3 0 1 1 0-22.5 11.3 11.3 0 0 1 0 22.5" fill="#fff500F3"/><path d="M215.1-212.5a11.3 11.3 0 1 1 0-22.7 11.3 11.3 0 0 1 0 22.7" fill="#fff500F4"/><path d="M-9.7-84.9a11.3 11.3 0 1 1 0-22.6 11.3 11.3 0 0 1 0 22.6" fill="#fff500F4"/><path d="M163.9-42.5a11.4 11.4 0 1 1 0-22.7 11.4 11.4 0 0 1 0 22.7" fill="#fff500F4"/><path d="M214.8-202.7a11.4 11.4 0 1 1 0-22.7 11.4 11.4 0 0 1 0 22.7" fill="#fff500F5"/><path d="M137.8-34.4a11.4 11.4 0 1 1 0-22.7 11.4 11.4 0 0 1 0 22.7" fill="#fffF5"/><path d="M-13.1-166.2a11.4 11.4 0 1 1 0-22.9 11.4 11.4 0 0 1 0 22.9" fill="#fff500F6"/><path d="M-4.9-177.5a11.5 11.5 0 1 1 0-23 11.5 11.5 0 0 1 0 23" fill="#c2e1ffF7"/><path d="M65.2-53.4a11.5 11.5 0 1 1 0-23 11.5 11.5 0 0 1 0 23" fill="#fffF8"/><path d="M127.8-54.4a11.5 11.5 0 1 1 0-23 11.5 11.5 0 0 1 0 23" fill="#fffF8"/><path d="M199.1-164.1a11.5 11.5 0 1 1 0-23.1 11.5 11.5 0 0 1 0 23.1" fill="#fffF8"/><path d="M27.1-86.7a11.6 11.6 0 1 1 0-23.1 11.6 11.6 0 0 1 0 23.1" fill="#fff500F9"/><path d="M140.7-66.3a11.6 11.6 0 1 1 0-23.2 11.6 11.6 0 0 1 0 23.2" fill="#fffF9"/><path d="M11.5-127.8a11.6 11.6 0 1 1 0-23.2 11.6 11.6 0 0 1 0 23.2" fill="#fffF9"/><path d="M77.6-234.2a11.6 11.6 0 1 1 0-23.2 11.6 11.6 0 0 1 0 23.2" fill="#005bbbFA"/><path d="M162.6-100.7a11.6 11.6 0 1 1 0-23.3 11.6 11.6 0 0 1 0 23.3" fill="#c2e1ffFB"/><path d="M62.1-219.5a11.6 11.6 0 1 1 0-23.3 11.6 11.6 0 0 1 0 23.3" fill="#c2e1ffFB"/><path d="M169-118.3a11.7 11.7 0 1 1 0-23.4 11.7 11.7 0 0 1 0 23.4" fill="#fffFB"/><path d="M64.6-83.6a11.7 11.7 0 1 1 0-23.3 11.7 11.7 0 0 1 0 23.3" fill="#c2e1ffFB"/><path d="M35.2-149.1a11.7 11.7 0 1 1 0-23.4 11.7 11.7 0 0 1 0 23.4" fill="#fffFC"/><path d="M54.5-151.3a11.8 11.8 0 1 1 0-23.5 11.8 11.8 0 0 1 0 23.5" fill="#fff500FD"/><path d="M143.8-151.9a11.8 11.8 0 1 1 0-23.5 11.8 11.8 0 0 1 0 23.5" fill="#fff500FD"/><path d="M108-190.8a11.8 11.8 0 1 1 0-23.6 11.8 11.8 0 0 1 0 23.6" fill="#fffFE"/><path d="M119.1-172.4a11.8 11.8 0 1 1 0-23.5 11.8 11.8 0 0 1 0 23.5" fill="#fffFE"/><path d="M112.8-138.3a11.8 11.8 0 1 1 0-23.6 11.8 11.8 0 0 1 0 23.6" fill="#005bbbFE"/></g></svg>