<svg width="1200" height="675" viewBox="-500 -500 1200 675" xmlns="http://www.w3.org/2000/svg"><path d="M-500-500h1200v675h-1200z" fill="#000"/><style>.sparkles path{stroke-linecap:round; stroke-width:1}</style><g class="sparkles"><path d="M100-162.5l16.9 3.4" stroke="#fff50032"/><path d="M100-162.5l-8.1-20.6" stroke="#fff50032"/><path d="M100-162.5l-4.9 51.9" stroke="#005bbb33"/><path d="M100-162.5l36.3-44.8" stroke="#fff33"/><path d="M100-162.5l-58.1 10" stroke="#c2e1ff33"/><path d="M100-162.5l44.4 41.7" stroke="#fff33"/><path d="M100-162.5l-66.7-23.2" stroke="#fff34"/><path d="M100-162.5l-68.8 19.1" stroke="#005bbb34"/><path d="M100-162.5l30.3 79" stroke="#fff35"/><path d="M100-162.5l85.8 13.2" stroke="#fff35"/><path d="M100-162.5l-100.8 11.4" stroke="#c2e1ff36"/><path d="M100-162.5l-39.9-94.2" stroke="#fff36"/><path d="M100-162.5l-102.1-30.5" stroke="#c2e1ff37"/><path d="M100-162.5l60.3-105.7" stroke="#fff39"/><path d="M100-162.5l6.4-132.8" stroke="#c2e1ff3A"/><path d="M100-162.5l110.5-95.3" stroke="#005bbb3C"/><path d="M100-162.5l9.6-149.6" stroke="#fff5003D"/><path d="M100-162.5l-157.2 8.7" stroke="#fff5003E"/><path d="M100-162.5l22.8-163.7" stroke="#c2e1ff40"/><path d="M100-162.5l32.2-163.3" stroke="#005bbb40"/><path d="M100-162.5l168.4 7" stroke="#c2e1ff40"/><path d="M100-162.5l139.9 95.7" stroke="#fff50041"/><path d="M100-162.5l173.8 13.8" stroke="#fff42"/><path d="M100-162.5l-174.8-1.2" stroke="#fff42"/><path d="M100-162.5l174.9 36.8" stroke="#005bbb43"/><path d="M100-162.5l177.2 36.8" stroke="#c2e1ff43"/><path d="M100-162.5l167.1-70.4" stroke="#fff50043"/><path d="M100-162.5l173.2 70.6" stroke="#005bbb45"/><path d="M100-162.5l188.7-16.1" stroke="#fff50046"/><path d="M100-162.5l4-190.1" stroke="#005bbb46"/><path d="M100-162.5l169.9 92.6" stroke="#fff50047"/><path d="M100-162.5l195.5 4.6" stroke="#fff50047"/><path d="M100-162.5l7.1 198.6" stroke="#fff50048"/><path d="M100-162.5l-184.3 77.2" stroke="#fff49"/><path d="M100-162.5l150.6 132.8" stroke="#c2e1ff49"/><path d="M100-162.5l-179.7 94.4" stroke="#fff4A"/><path d="M100-162.5l-149.2 138.2" stroke="#fff5004A"/><path d="M100-162.5l-164.9 120.7" stroke="#fff4A"/><path d="M100-162.5l200.2 42.3" stroke="#005bbb4B"/><path d="M100-162.5l140.5-149.5" stroke="#fff4B"/><path d="M100-162.5l130 161.2" stroke="#005bbb4B"/><path d="M100-162.5l193.4-75.4" stroke="#fff5004C"/><path d="M100-162.5l23.4-208" stroke="#fff5004C"/><path d="M100-162.5l196.5 77.8" stroke="#005bbb4D"/><path d="M100-162.5l204 62.8" stroke="#c2e1ff4E"/><path d="M100-162.5l6.7 214.4" stroke="#fff5004F"/><path d="M100-162.5l-107.2-186.1" stroke="#fff4F"/><path d="M100-162.5l189.1-105.2" stroke="#fff5004F"/><path d="M100-162.5l-210.8-49.1" stroke="#fff5004F"/><path d="M100-162.5l130.6-173.3" stroke="#005bbb50"/><path d="M100-162.5l-199-94.2" stroke="#c2e1ff51"/><path d="M100-162.5l-152.5 159.4" stroke="#fff52"/><path d="M100-162.5l-68.7 210.1" stroke="#fff50052"/><path d="M100-162.5l65 211.7" stroke="#fff52"/><path d="M100-162.5l-166.5 147.4" stroke="#fff53"/><path d="M100-162.5l192.1-113.5" stroke="#c2e1ff53"/><path d="M100-162.5l-27.1-222.4" stroke="#fff54"/><path d="M100-162.5l107.5-196.6" stroke="#fff50054"/><path d="M100-162.5l26.6 222.6" stroke="#fff54"/><path d="M100-162.5l207.4-85.6" stroke="#c2e1ff54"/><path d="M100-162.5l171.2 145.6" stroke="#fff54"/><path d="M100-162.5l-17.6 224.9" stroke="#005bbb55"/><path d="M100-162.5l188.7-124.1" stroke="#fff55"/><path d="M100-162.5l160.2-159.7" stroke="#fff50055"/><path d="M100-162.5l166.9 154.7" stroke="#005bbb56"/><path d="M100-162.5l-167.2-156.1" stroke="#fff57"/><path d="M100-162.5l-208.6 94.1" stroke="#c2e1ff57"/><path d="M100-162.5l182.2-142.2" stroke="#c2e1ff59"/><path d="M100-162.5l-75.3-218.8" stroke="#c2e1ff59"/><path d="M100-162.5l230.2-28.7" stroke="#c2e1ff5A"/><path d="M100-162.5l231.9-10.4" stroke="#c2e1ff5A"/><path d="M100-162.5l192.4 130" stroke="#fff5A"/><path d="M100-162.5l-232.4 7.4" stroke="#fff5B"/><path d="M100-162.5l183.5-144.6" stroke="#005bbb5C"/><path d="M100-162.5l227.2 54.5" stroke="#fff5C"/><path d="M100-162.5l-197.3-125.5" stroke="#c2e1ff5C"/><path d="M100-162.5l-181.1-148.5" stroke="#c2e1ff5D"/><path d="M100-162.5l-97.1-213.2" stroke="#c2e1ff5D"/><path d="M100-162.5l-229.2 48.7" stroke="#fff5D"/><path d="M100-162.5l-182.6-147.1" stroke="#fff5D"/><path d="M100-162.5l-218.4-86.9" stroke="#c2e1ff5F"/><path d="M100-162.5l194.2 132.7" stroke="#005bbb5F"/><path d="M100-162.5l67.5-225.4" stroke="#fff5F"/><path d="M100-162.5l-221.5-80.1" stroke="#005bbb60"/><path d="M100-162.5l112 207.3" stroke="#fff60"/><path d="M100-162.5l-232.7-37.3" stroke="#c2e1ff60"/><path d="M100-162.5l-27.8-234.2" stroke="#fff61"/><path d="M100-162.5l183.8-148.2" stroke="#fff50062"/><path d="M100-162.5l-227.4-63.8" stroke="#c2e1ff62"/><path d="M100-162.5l100.8-213.5" stroke="#fff50062"/><path d="M100-162.5l187.1 144.2" stroke="#fff50062"/><path d="M100-162.5l111.1-208.4" stroke="#c2e1ff63"/><path d="M100-162.5l-222.6 78.7" stroke="#005bbb65"/><path d="M100-162.5l-39.8 232.7" stroke="#fff65"/><path d="M100-162.5l-192.9 136" stroke="#fff66"/><path d="M100-162.5l134.4 193.9" stroke="#c2e1ff66"/><path d="M100-162.5l18.1-235.1" stroke="#005bbb67"/><path d="M100-162.5l-162.2 171" stroke="#fff67"/><path d="M100-162.5l-234 22.1" stroke="#fff50068"/><path d="M100-162.5l53.2 228.9" stroke="#fff69"/><path d="M100-162.5l220.2 81.7" stroke="#fff50069"/><path d="M100-162.5l-234-18.5" stroke="#005bbb69"/><path d="M100-162.5l-45.6-230.1" stroke="#005bbb69"/><path d="M100-162.5l150.5 179.7" stroke="#fff6A"/><path d="M100-162.5l43.8 230.1" stroke="#005bbb6A"/><path d="M100-162.5l215.2-92.6" stroke="#c2e1ff6A"/><path d="M100-162.5l26.2-232.2" stroke="#fff6B"/><path d="M100-162.5l107.5 207.4" stroke="#fff6B"/><path d="M100-162.5l-207.4 104.6" stroke="#fff6D"/><path d="M100-162.5l-109.5 202.8" stroke="#005bbb6E"/><path d="M100-162.5l219.6 67" stroke="#fff6F"/><path d="M100-162.5l-226.6 28" stroke="#005bbb70"/><path d="M100-162.5l199.9-109.1" stroke="#005bbb71"/><path d="M100-162.5l-156.9-163.7" stroke="#fff50072"/><path d="M100-162.5l-32.8-224.2" stroke="#005bbb72"/><path d="M100-162.5l127.7 186.2" stroke="#fff50072"/><path d="M100-162.5l124.1-186" stroke="#c2e1ff74"/><path d="M100-162.5l79 208.3" stroke="#c2e1ff74"/><path d="M100-162.5l113.3-191.3" stroke="#005bbb74"/><path d="M100-162.5l-18.8 221.2" stroke="#005bbb75"/><path d="M100-162.5l-152.2-159.7" stroke="#c2e1ff75"/><path d="M100-162.5l-41.5-215.8" stroke="#fff50076"/><path d="M100-162.5l-162.6 146.9" stroke="#fff50076"/><path d="M100-162.5l215.7-30" stroke="#fff50077"/><path d="M100-162.5l-16.1-217" stroke="#fff77"/><path d="M100-162.5l-140.7-164.2" stroke="#005bbb78"/><path d="M100-162.5l-161.5-138.7" stroke="#fff50079"/><path d="M100-162.5l68.8-201.1" stroke="#fff50079"/><path d="M100-162.5l-34.2-209.8" stroke="#005bbb79"/><path d="M100-162.5l-36.3-206.4" stroke="#fff5007B"/><path d="M100-162.5l150.8 144.1" stroke="#fff7B"/><path d="M100-162.5l-1.9-207.2" stroke="#005bbb7C"/><path d="M100-162.5l-157.1-133.7" stroke="#c2e1ff7C"/><path d="M100-162.5l-47 200.5" stroke="#fff5007C"/><path d="M100-162.5l-45.1 196.4" stroke="#c2e1ff7E"/><path d="M100-162.5l187.7 63.9" stroke="#005bbb7F"/><path d="M100-162.5l-178.2 86.6" stroke="#c2e1ff7F"/><path d="M100-162.5l-94-171.1" stroke="#c2e1ff80"/><path d="M100-162.5l-131.6 142.9" stroke="#fff50080"/><path d="M100-162.5l-193.2-12.8" stroke="#fff80"/><path d="M100-162.5l183.9-59.4" stroke="#c2e1ff80"/><path d="M100-162.5l30.6 189.9" stroke="#005bbb81"/><path d="M100-162.5l-127.8 142.1" stroke="#005bbb81"/><path d="M100-162.5l-162.1 91.9" stroke="#fff50082"/><path d="M100-162.5l184.5-7.7" stroke="#fff83"/><path d="M100-162.5l4.2 182.3" stroke="#c2e1ff83"/><path d="M100-162.5l125.1-131" stroke="#fff84"/><path d="M100-162.5l-30.3-175.2" stroke="#005bbb84"/><path d="M100-162.5l14.7-176.2" stroke="#c2e1ff85"/><path d="M100-162.5l112.5 134.4" stroke="#fff85"/><path d="M100-162.5l-174.4 11.5" stroke="#005bbb85"/><path d="M100-162.5l-169.2-19" stroke="#005bbb86"/><path d="M100-162.5l147.8-81.8" stroke="#005bbb86"/><path d="M100-162.5l-161.7-45.6" stroke="#c2e1ff87"/><path d="M100-162.5l-134.1-98.4" stroke="#fff87"/><path d="M100-162.5l136.4-94.8" stroke="#fff50087"/><path d="M100-162.5l22.3-163.6" stroke="#fff50087"/><path d="M100-162.5l100.4-125.6" stroke="#005bbb88"/><path d="M100-162.5l23.6-151.1" stroke="#fff5008A"/><path d="M100-162.5l149.9 0" stroke="#fff8A"/><path d="M100-162.5l-9.5-143.4" stroke="#c2e1ff8B"/><path d="M100-162.5l49.1 131.3" stroke="#fff8C"/><path d="M100-162.5l51.3 129.6" stroke="#fff5008C"/><path d="M100-162.5l-132.4 39.9" stroke="#005bbb8C"/><path d="M100-162.5l116-74.5" stroke="#fff5008C"/><path d="M100-162.5l93.5-95.3" stroke="#fff8D"/><path d="M100-162.5l-112.6-59.8" stroke="#fff5008E"/><path d="M100-162.5l-70.6 103.8" stroke="#fff5008E"/><path d="M100-162.5l-72-99.3" stroke="#c2e1ff8E"/><path d="M100-162.5l26.4 113.9" stroke="#005bbb8F"/><path d="M100-162.5l-94.9-64" stroke="#005bbb8F"/><path d="M100-162.5l23-102.6" stroke="#c2e1ff90"/><path d="M100-162.5l52.4-88.6" stroke="#c2e1ff91"/><path d="M100-162.5l-96.7-6.9" stroke="#c2e1ff91"/><path d="M100-162.5l-93.1-2.4" stroke="#fff91"/><path d="M100-162.5l-32.8 82.2" stroke="#fff92"/><path d="M100-162.5l70.2 2" stroke="#fff50093"/><path d="M100-162.5l43-45.9" stroke="#fff94"/><path d="M100-162.5l-18.9-57.2" stroke="#fff94"/><path d="M100-162.5l-25.1-41.5" stroke="#fff94"/><path d="M100-162.5l-5.5-26.6" stroke="#c2e1ff95"/></g><g class="sparcs"><path d="M116.9-153.2a5.9 5.9 0 1 1 0-11.8 5.9 5.9 0 0 1 0 11.8" fill="#fff5007D"/><path d="M91.9-177.2a5.9 5.9 0 1 1 0-11.8 5.9 5.9 0 0 1 0 11.8" fill="#005bbb7D"/><path d="M95.1-104.7a6 6 0 1 1 0-11.9 6 6 0 0 1 0 11.9" fill="#fff5007E"/><path d="M136.3-201.3a6 6 0 1 1 0-12 6 6 0 0 1 0 12" fill="#fff5007E"/><path d="M41.9-146.5a6 6 0 1 1 0-12 6 6 0 0 1 0 12" fill="#fff5007F"/><path d="M144.4-114.8a6 6 0 1 1 0-12 6 6 0 0 1 0 12" fill="#c2e1ff7F"/><path d="M33.3-179.6a6 6 0 1 1 0-12.1 6 6 0 0 1 0 12.1" fill="#fff5007F"/><path d="M31.2-137.4a6 6 0 1 1 0-12 6 6 0 0 1 0 12" fill="#fff50080"/><path d="M130.3-77.4a6.1 6.1 0 1 1 0-12.2 6.1 6.1 0 0 1 0 12.2" fill="#c2e1ff81"/><path d="M185.8-143.2a6.1 6.1 0 1 1 0-12.2 6.1 6.1 0 0 1 0 12.2" fill="#fff50081"/><path d="M-0.8-144.9a6.2 6.2 0 1 1 0-12.4 6.2 6.2 0 0 1 0 12.4" fill="#c2e1ff83"/><path d="M60.1-250.5a6.2 6.2 0 1 1 0-12.4 6.2 6.2 0 0 1 0 12.4" fill="#005bbb83"/><path d="M-2.1-186.8a6.2 6.2 0 1 1 0-12.4 6.2 6.2 0 0 1 0 12.4" fill="#c2e1ff83"/><path d="M160.3-261.8a6.3 6.3 0 1 1 0-12.7 6.3 6.3 0 0 1 0 12.7" fill="#fff86"/><path d="M106.4-288.9a6.4 6.4 0 1 1 0-12.8 6.4 6.4 0 0 1 0 12.8" fill="#c2e1ff88"/><path d="M210.5-251.3a6.5 6.5 0 1 1 0-13 6.5 6.5 0 0 1 0 13" fill="#fff8A"/><path d="M109.6-305.6a6.6 6.6 0 1 1 0-13.1 6.6 6.6 0 0 1 0 13.1" fill="#fff5008B"/><path d="M-57.2-147.1a6.7 6.7 0 1 1 0-13.3 6.7 6.7 0 0 1 0 13.3" fill="#c2e1ff8D"/><path d="M122.8-319.4a6.7 6.7 0 1 1 0-13.5 6.7 6.7 0 0 1 0 13.5" fill="#005bbb8F"/><path d="M132.2-319a6.8 6.8 0 1 1 0-13.5 6.8 6.8 0 0 1 0 13.5" fill="#fff5008F"/><path d="M268.4-148.7a6.8 6.8 0 1 1 0-13.6 6.8 6.8 0 0 1 0 13.6" fill="#c2e1ff90"/><path d="M239.9-60a6.8 6.8 0 1 1 0-13.6 6.8 6.8 0 0 1 0 13.6" fill="#c2e1ff90"/><path d="M273.8-141.8a6.9 6.9 0 1 1 0-13.8 6.9 6.9 0 0 1 0 13.8" fill="#fff50092"/><path d="M-74.8-156.9a6.9 6.9 0 1 1 0-13.7 6.9 6.9 0 0 1 0 13.7" fill="#fff50092"/><path d="M274.9-118.8a6.9 6.9 0 1 1 0-13.8 6.9 6.9 0 0 1 0 13.8" fill="#005bbb93"/><path d="M277.2-118.7a7 7 0 1 1 0-13.9 7 7 0 0 1 0 13.9" fill="#c2e1ff94"/><path d="M267.1-225.9a7 7 0 1 1 0-13.9 7 7 0 0 1 0 13.9" fill="#005bbb94"/><path d="M273.2-84.8a7.1 7.1 0 1 1 0-14.1 7.1 7.1 0 0 1 0 14.1" fill="#fff96"/><path d="M288.7-171.5a7.1 7.1 0 1 1 0-14.2 7.1 7.1 0 0 1 0 14.2" fill="#c2e1ff97"/><path d="M104-345.4a7.1 7.1 0 1 1 0-14.3 7.1 7.1 0 0 1 0 14.3" fill="#c2e1ff97"/><path d="M269.9-62.7a7.2 7.2 0 1 1 0-14.3 7.2 7.2 0 0 1 0 14.3" fill="#fff50098"/><path d="M295.5-150.7a7.2 7.2 0 1 1 0-14.4 7.2 7.2 0 0 1 0 14.4" fill="#fff50099"/><path d="M107.1 43.4a7.3 7.3 0 1 1 0-14.5 7.3 7.3 0 0 1 0 14.5" fill="#005bbb9A"/><path d="M-84.3-78a7.3 7.3 0 1 1 0-14.6 7.3 7.3 0 0 1 0 14.6" fill="#c2e1ff9B"/><path d="M250.6-22.4a7.3 7.3 0 1 1 0-14.6 7.3 7.3 0 0 1 0 14.6" fill="#005bbb9B"/><path d="M-79.7-60.8a7.3 7.3 0 1 1 0-14.6 7.3 7.3 0 0 1 0 14.6" fill="#c2e1ff9C"/><path d="M-49.2-16.9a7.4 7.4 0 1 1 0-14.7 7.4 7.4 0 0 1 0 14.7" fill="#c2e1ff9C"/><path d="M-64.9-34.5a7.4 7.4 0 1 1 0-14.7 7.4 7.4 0 0 1 0 14.7" fill="#c2e1ff9D"/><path d="M300.2-112.8a7.4 7.4 0 1 1 0-14.8 7.4 7.4 0 0 1 0 14.8" fill="#c2e1ff9D"/><path d="M240.5-304.6a7.4 7.4 0 1 1 0-14.8 7.4 7.4 0 0 1 0 14.8" fill="#fff9D"/><path d="M230 6.1a7.4 7.4 0 1 1 0-14.9 7.4 7.4 0 0 1 0 14.9" fill="#fff9E"/><path d="M293.4-230.4a7.4 7.4 0 1 1 0-14.9 7.4 7.4 0 0 1 0 14.9" fill="#fff9E"/><path d="M123.4-363a7.5 7.5 0 1 1 0-14.9 7.5 7.5 0 0 1 0 14.9" fill="#fff5009F"/><path d="M296.5-77.2a7.5 7.5 0 1 1 0-15.1 7.5 7.5 0 0 1 0 15.1" fill="#fff500A0"/><path d="M304-92.1a7.6 7.6 0 1 1 0-15.2 7.6 7.6 0 0 1 0 15.2" fill="#c2e1ffA2"/><path d="M106.7 59.5a7.6 7.6 0 1 1 0-15.2 7.6 7.6 0 0 1 0 15.2" fill="#fffA2"/><path d="M-7.2-341a7.6 7.6 0 1 1 0-15.2 7.6 7.6 0 0 1 0 15.2" fill="#005bbbA2"/><path d="M289.1-260a7.7 7.7 0 1 1 0-15.4 7.7 7.7 0 0 1 0 15.4" fill="#005bbbA3"/><path d="M-110.8-203.9a7.7 7.7 0 1 1 0-15.4 7.7 7.7 0 0 1 0 15.4" fill="#005bbbA3"/><path d="M230.6-328.1a7.7 7.7 0 1 1 0-15.4 7.7 7.7 0 0 1 0 15.4" fill="#005bbbA4"/><path d="M-99-248.9a7.8 7.8 0 1 1 0-15.5 7.8 7.8 0 0 1 0 15.5" fill="#fff500A6"/><path d="M-52.5 4.7a7.8 7.8 0 1 1 0-15.6 7.8 7.8 0 0 1 0 15.6" fill="#c2e1ffA6"/><path d="M31.3 55.4a7.8 7.8 0 1 1 0-15.6 7.8 7.8 0 0 1 0 15.6" fill="#005bbbA7"/><path d="M165 57a7.8 7.8 0 1 1 0-15.7 7.8 7.8 0 0 1 0 15.7" fill="#005bbbA7"/><path d="M-66.5-7.2a7.9 7.9 0 1 1 0-15.7 7.9 7.9 0 0 1 0 15.7" fill="#c2e1ffA8"/><path d="M292.1-268.1a7.9 7.9 0 1 1 0-15.8 7.9 7.9 0 0 1 0 15.8" fill="#fffA8"/><path d="M72.9-376.9a7.9 7.9 0 1 1 0-15.9 7.9 7.9 0 0 1 0 15.9" fill="#005bbbA9"/><path d="M207.5-351.1a7.9 7.9 0 1 1 0-15.9 7.9 7.9 0 0 1 0 15.9" fill="#fff500A9"/><path d="M126.6 68a7.9 7.9 0 1 1 0-15.8 7.9 7.9 0 0 1 0 15.8" fill="#c2e1ffA9"/><path d="M307.4-240.2a7.9 7.9 0 1 1 0-15.8 7.9 7.9 0 0 1 0 15.8" fill="#fffA9"/><path d="M271.2-9a7.9 7.9 0 1 1 0-15.8 7.9 7.9 0 0 1 0 15.8" fill="#fffA9"/><path d="M82.4 70.4a8 8 0 1 1 0-15.9 8 8 0 0 1 0 15.9" fill="#005bbbAA"/><path d="M288.7-278.6a8 8 0 1 1 0-16 8 8 0 0 1 0 16" fill="#c2e1ffAA"/><path d="M260.2-314.1a8 8 0 1 1 0-16.1 8 8 0 0 1 0 16.1" fill="#005bbbAB"/><path d="M266.9 0.2a8.1 8.1 0 1 1 0-16.1 8.1 8.1 0 0 1 0 16.1" fill="#005bbbAC"/><path d="M-67.2-310.4a8.1 8.1 0 1 1 0-16.3 8.1 8.1 0 0 1 0 16.3" fill="#fffAD"/><path d="M-108.6-60.2a8.1 8.1 0 1 1 0-16.3 8.1 8.1 0 0 1 0 16.3" fill="#fff500AD"/><path d="M282.2-296.4a8.2 8.2 0 1 1 0-16.5 8.2 8.2 0 0 1 0 16.5" fill="#fff500B0"/><path d="M24.7-373a8.3 8.3 0 1 1 0-16.6 8.3 8.3 0 0 1 0 16.6" fill="#fffB0"/><path d="M330.2-182.9a8.3 8.3 0 1 1 0-16.6 8.3 8.3 0 0 1 0 16.6" fill="#fffB1"/><path d="M331.9-164.6a8.3 8.3 0 1 1 0-16.6 8.3 8.3 0 0 1 0 16.6" fill="#fffB1"/><path d="M292.4-24.2a8.3 8.3 0 1 1 0-16.6 8.3 8.3 0 0 1 0 16.6" fill="#fff500B1"/><path d="M-132.4-146.7a8.3 8.3 0 1 1 0-16.7 8.3 8.3 0 0 1 0 16.7" fill="#fff500B2"/><path d="M283.5-298.7a8.4 8.4 0 1 1 0-16.8 8.4 8.4 0 0 1 0 16.8" fill="#fff500B4"/><path d="M327.2-99.6a8.4 8.4 0 1 1 0-16.8 8.4 8.4 0 0 1 0 16.8" fill="#fffB4"/><path d="M-97.3-279.6a8.4 8.4 0 1 1 0-16.9 8.4 8.4 0 0 1 0 16.9" fill="#fff500B4"/><path d="M-81.1-302.5a8.5 8.5 0 1 1 0-17 8.5 8.5 0 0 1 0 17" fill="#fff500B5"/><path d="M2.9-367.2a8.5 8.5 0 1 1 0-17 8.5 8.5 0 0 1 0 17" fill="#005bbbB5"/><path d="M-129.2-105.3a8.5 8.5 0 1 1 0-17 8.5 8.5 0 0 1 0 17" fill="#005bbbB5"/><path d="M-82.6-301.1a8.5 8.5 0 1 1 0-17 8.5 8.5 0 0 1 0 17" fill="#fffB6"/><path d="M-118.4-240.9a8.6 8.6 0 1 1 0-17.1 8.6 8.6 0 0 1 0 17.1" fill="#fffB7"/><path d="M294.2-21.3a8.6 8.6 0 1 1 0-17.1 8.6 8.6 0 0 1 0 17.1" fill="#fff500B7"/><path d="M167.5-379.3a8.6 8.6 0 1 1 0-17.1 8.6 8.6 0 0 1 0 17.1" fill="#c2e1ffB8"/><path d="M-121.5-233.9a8.6 8.6 0 1 1 0-17.3 8.6 8.6 0 0 1 0 17.3" fill="#c2e1ffB9"/><path d="M212 53.5a8.6 8.6 0 1 1 0-17.3 8.6 8.6 0 0 1 0 17.3" fill="#fffB9"/><path d="M-132.7-191.1a8.6 8.6 0 1 1 0-17.3 8.6 8.6 0 0 1 0 17.3" fill="#fffB9"/><path d="M72.2-388a8.7 8.7 0 1 1 0-17.4 8.7 8.7 0 0 1 0 17.4" fill="#fffBA"/><path d="M283.8-302a8.8 8.8 0 1 1 0-17.5 8.8 8.8 0 0 1 0 17.5" fill="#005bbbBB"/><path d="M-127.4-217.5a8.8 8.8 0 1 1 0-17.6 8.8 8.8 0 0 1 0 17.6" fill="#fffBB"/><path d="M200.8-367.3a8.8 8.8 0 1 1 0-17.5 8.8 8.8 0 0 1 0 17.5" fill="#005bbbBC"/><path d="M287.1-9.6a8.8 8.8 0 1 1 0-17.5 8.8 8.8 0 0 1 0 17.5" fill="#fffBC"/><path d="M211.1-362.1a8.8 8.8 0 1 1 0-17.6 8.8 8.8 0 0 1 0 17.6" fill="#fffBC"/><path d="M-122.6-74.9a8.9 8.9 0 1 1 0-17.9 8.9 8.9 0 0 1 0 17.9" fill="#c2e1ffBF"/><path d="M60.2 79.2a9 9 0 1 1 0-17.9 9 9 0 0 1 0 17.9" fill="#fffC0"/><path d="M-92.9-17.5a9 9 0 1 1 0-18 9 9 0 0 1 0 18" fill="#c2e1ffC0"/><path d="M234.4 40.4a9 9 0 1 1 0-18 9 9 0 0 1 0 18" fill="#fff500C1"/><path d="M118.1-388.6a9 9 0 1 1 0-18 9 9 0 0 1 0 18" fill="#fff500C2"/><path d="M-62.2 17.6a9.1 9.1 0 1 1 0-18.1 9.1 9.1 0 0 1 0 18.1" fill="#fff500C2"/><path d="M-134-131.3a9.2 9.2 0 1 1 0-18.3 9.2 9.2 0 0 1 0 18.3" fill="#005bbbC4"/><path d="M153.2 75.6a9.2 9.2 0 1 1 0-18.3 9.2 9.2 0 0 1 0 18.3" fill="#fff500C4"/><path d="M320.2-71.6a9.2 9.2 0 1 1 0-18.3 9.2 9.2 0 0 1 0 18.3" fill="#fff500C5"/><path d="M-134-171.8a9.2 9.2 0 1 1 0-18.4 9.2 9.2 0 0 1 0 18.4" fill="#c2e1ffC5"/><path d="M54.4-383.4a9.2 9.2 0 1 1 0-18.4 9.2 9.2 0 0 1 0 18.4" fill="#fffC5"/><path d="M250.5 26.5a9.2 9.2 0 1 1 0-18.5 9.2 9.2 0 0 1 0 18.5" fill="#c2e1ffC5"/><path d="M143.8 76.9a9.2 9.2 0 1 1 0-18.5 9.2 9.2 0 0 1 0 18.5" fill="#005bbbC6"/><path d="M315.2-245.8a9.2 9.2 0 1 1 0-18.5 9.2 9.2 0 0 1 0 18.5" fill="#fff500C6"/><path d="M126.2-385.4a9.3 9.3 0 1 1 0-18.6 9.3 9.3 0 0 1 0 18.6" fill="#c2e1ffC7"/><path d="M207.5 54.2a9.3 9.3 0 1 1 0-18.6 9.3 9.3 0 0 1 0 18.6" fill="#005bbbC7"/><path d="M-107.4-48.5a9.4 9.4 0 1 1 0-18.8 9.4 9.4 0 0 1 0 18.8" fill="#fff500C9"/><path d="M-9.5 49.8a9.5 9.5 0 1 1 0-19 9.5 9.5 0 0 1 0 19" fill="#c2e1ffCC"/><path d="M319.6-85.9a9.6 9.6 0 1 1 0-19.2 9.6 9.6 0 0 1 0 19.2" fill="#fff500CD"/><path d="M-126.6-124.8a9.6 9.6 0 1 1 0-19.3 9.6 9.6 0 0 1 0 19.3" fill="#005bbbCE"/><path d="M299.9-262a9.6 9.6 0 1 1 0-19.3 9.6 9.6 0 0 1 0 19.3" fill="#005bbbCF"/><path d="M-56.9-316.5a9.7 9.7 0 1 1 0-19.4 9.7 9.7 0 0 1 0 19.4" fill="#005bbbD0"/><path d="M67.2-377.1a9.7 9.7 0 1 1 0-19.3 9.7 9.7 0 0 1 0 19.3" fill="#fff500D0"/><path d="M227.7 33.4a9.7 9.7 0 1 1 0-19.4 9.7 9.7 0 0 1 0 19.4" fill="#005bbbD1"/><path d="M224.1-338.6a9.8 9.8 0 1 1 0-19.7 9.8 9.8 0 0 1 0 19.7" fill="#005bbbD3"/><path d="M179 55.6a9.8 9.8 0 1 1 0-19.6 9.8 9.8 0 0 1 0 19.6" fill="#c2e1ffD3"/><path d="M213.3-344a9.9 9.9 0 1 1 0-19.7 9.9 9.9 0 0 1 0 19.7" fill="#fffD3"/><path d="M81.2 68.6a9.9 9.9 0 1 1 0-19.7 9.9 9.9 0 0 1 0 19.7" fill="#c2e1ffD4"/><path d="M-52.2-312.3a9.9 9.9 0 1 1 0-19.9 9.9 9.9 0 0 1 0 19.9" fill="#fffD5"/><path d="M58.5-368.4a9.9 9.9 0 1 1 0-19.9 9.9 9.9 0 0 1 0 19.9" fill="#fffD5"/><path d="M-62.6-5.6a10 10 0 1 1 0-20 10 10 0 0 1 0 20" fill="#005bbbD6"/><path d="M315.7-182.5a10 10 0 1 1 0-20.1 10 10 0 0 1 0 20.1" fill="#c2e1ffD7"/><path d="M83.9-369.5a10 10 0 1 1 0-20 10 10 0 0 1 0 20" fill="#fffD7"/><path d="M-40.7-316.6a10.1 10.1 0 1 1 0-20.1 10.1 10.1 0 0 1 0 20.1" fill="#fffD8"/><path d="M-61.5-291.1a10.1 10.1 0 1 1 0-20.3 10.1 10.1 0 0 1 0 20.3" fill="#c2e1ffDA"/><path d="M168.8-353.5a10.1 10.1 0 1 1 0-20.3 10.1 10.1 0 0 1 0 20.3" fill="#fffDA"/><path d="M65.8-362.2a10.1 10.1 0 1 1 0-20.3 10.1 10.1 0 0 1 0 20.3" fill="#fff500DA"/><path d="M63.7-358.7a10.2 10.2 0 1 1 0-20.4 10.2 10.2 0 0 1 0 20.4" fill="#c2e1ffDC"/><path d="M250.8-8.1a10.2 10.2 0 1 1 0-20.5 10.2 10.2 0 0 1 0 20.5" fill="#fffDC"/><path d="M98.1-359.4a10.3 10.3 0 1 1 0-20.6 10.3 10.3 0 0 1 0 20.6" fill="#005bbbDD"/><path d="M-57.1-285.9a10.3 10.3 0 1 1 0-20.6 10.3 10.3 0 0 1 0 20.6" fill="#005bbbDD"/><path d="M53 48.3a10.3 10.3 0 1 1 0-20.6 10.3 10.3 0 0 1 0 20.6" fill="#005bbbDD"/><path d="M54.9 44.3a10.4 10.4 0 1 1 0-20.8 10.4 10.4 0 0 1 0 20.8" fill="#fff500DF"/><path d="M287.7-88.2a10.5 10.5 0 1 1 0-20.9 10.5 10.5 0 0 1 0 20.9" fill="#005bbbE1"/><path d="M-78.2-65.4a10.5 10.5 0 1 1 0-20.9 10.5 10.5 0 0 1 0 20.9" fill="#005bbbE1"/><path d="M6-323a10.5 10.5 0 1 1 0-21.1 10.5 10.5 0 0 1 0 21.1" fill="#fffE2"/><path d="M-31.6-9.1a10.5 10.5 0 1 1 0-21 10.5 10.5 0 0 1 0 21" fill="#c2e1ffE2"/><path d="M-93.2-164.7a10.6 10.6 0 1 1 0-21.1 10.6 10.6 0 0 1 0 21.1" fill="#005bbbE3"/><path d="M283.9-211.4a10.6 10.6 0 1 1 0-21.1 10.6 10.6 0 0 1 0 21.1" fill="#fffE3"/><path d="M130.6 37.9a10.6 10.6 0 1 1 0-21.1 10.6 10.6 0 0 1 0 21.1" fill="#fff500E3"/><path d="M-27.8-9.8a10.6 10.6 0 1 1 0-21.2 10.6 10.6 0 0 1 0 21.2" fill="#005bbbE4"/><path d="M-62.1-59.9a10.7 10.7 0 1 1 0-21.4 10.7 10.7 0 0 1 0 21.4" fill="#fff500E5"/><path d="M284.5-159.5a10.7 10.7 0 1 1 0-21.4 10.7 10.7 0 0 1 0 21.4" fill="#fffE6"/><path d="M104.2 30.6a10.7 10.7 0 1 1 0-21.5 10.7 10.7 0 0 1 0 21.5" fill="#005bbbE7"/><path d="M225.1-282.7a10.8 10.8 0 1 1 0-21.5 10.8 10.8 0 0 1 0 21.5" fill="#c2e1ffE7"/><path d="M69.7-326.9a10.8 10.8 0 1 1 0-21.6 10.8 10.8 0 0 1 0 21.6" fill="#fffE8"/><path d="M114.7-327.9a10.8 10.8 0 1 1 0-21.6 10.8 10.8 0 0 1 0 21.6" fill="#c2e1ffE9"/><path d="M212.5-17.3a10.8 10.8 0 1 1 0-21.6 10.8 10.8 0 0 1 0 21.6" fill="#005bbbE9"/><path d="M-74.4-140.2a10.8 10.8 0 1 1 0-21.7 10.8 10.8 0 0 1 0 21.7" fill="#c2e1ffE9"/><path d="M-69.2-170.6a10.9 10.9 0 1 1 0-21.8 10.9 10.9 0 0 1 0 21.8" fill="#fff500EB"/><path d="M247.8-233.4a10.9 10.9 0 1 1 0-21.8 10.9 10.9 0 0 1 0 21.8" fill="#fff500EB"/><path d="M-61.7-197.2a10.9 10.9 0 1 1 0-21.8 10.9 10.9 0 0 1 0 21.8" fill="#c2e1ffEB"/><path d="M-34.1-249.9a11 11 0 1 1 0-21.9 11 11 0 0 1 0 21.9" fill="#c2e1ffEC"/><path d="M236.4-246.4a11 11 0 1 1 0-21.9 11 11 0 0 1 0 21.9" fill="#c2e1ffEC"/><path d="M122.3-315.2a11 11 0 1 1 0-21.9 11 11 0 0 1 0 21.9" fill="#fff500EC"/><path d="M200.4-277.1a11 11 0 1 1 0-22 11 11 0 0 1 0 22" fill="#fff500ED"/><path d="M123.6-302.4a11.1 11.1 0 1 1 0-22.3 11.1 11.1 0 0 1 0 22.3" fill="#005bbbEF"/><path d="M249.9-151.4a11.1 11.1 0 1 1 0-22.2 11.1 11.1 0 0 1 0 22.2" fill="#c2e1ffF0"/><path d="M90.5-294.7a11.2 11.2 0 1 1 0-22.4 11.2 11.2 0 0 1 0 22.4" fill="#fffF1"/><path d="M149.1-19.9a11.2 11.2 0 1 1 0-22.5 11.2 11.2 0 0 1 0 22.5" fill="#c2e1ffF2"/><path d="M151.3-21.6a11.2 11.2 0 1 1 0-22.5 11.2 11.2 0 0 1 0 22.5" fill="#005bbbF2"/><path d="M-32.4-111.3a11.3 11.3 0 1 1 0-22.5 11.3 11.3 0 0 1 0 22.5" fill="#fffF2"/><path d="M216-225.8a11.3 11.3 0 1 1 0-22.5 11.3 11.3 0 0 1 0 22.5" fill="#fffF2"/><path d="M193.5-246.5a11.3 11.3 0 1 1 0-22.6 11.3 11.3 0 0 1 0 22.6" fill="#005bbbF3"/><path d="M-12.6-210.9a11.3 11.3 0 1 1 0-22.7 11.3 11.3 0 0 1 0 22.7" fill="#c2e1ffF4"/><path d="M29.4-47.4a11.4 11.4 0 1 1 0-22.7 11.4 11.4 0 0 1 0 22.7" fill="#fff500F5"/><path d="M28-250.4a11.4 11.4 0 1 1 0-22.8 11.4 11.4 0 0 1 0 22.8" fill="#fff500F5"/><path d="M126.4-37.2a11.4 11.4 0 1 1 0-22.8 11.4 11.4 0 0 1 0 22.8" fill="#fffF6"/><path d="M5.1-215a11.4 11.4 0 1 1 0-22.9 11.4 11.4 0 0 1 0 22.9" fill="#c2e1ffF6"/><path d="M123-253.6a11.5 11.5 0 1 1 0-23 11.5 11.5 0 0 1 0 23" fill="#005bbbF8"/><path d="M152.4-239.6a11.5 11.5 0 1 1 0-23 11.5 11.5 0 0 1 0 23" fill="#005bbbF8"/><path d="M3.3-157.8a11.6 11.6 0 1 1 0-23.1 11.6 11.6 0 0 1 0 23.1" fill="#c2e1ffF9"/><path d="M6.9-153.3a11.6 11.6 0 1 1 0-23.1 11.6 11.6 0 0 1 0 23.1" fill="#fff500F9"/><path d="M67.2-68.7a11.6 11.6 0 1 1 0-23.2 11.6 11.6 0 0 1 0 23.2" fill="#005bbbFA"/><path d="M170.2-148.9a11.7 11.7 0 1 1 0-23.3 11.7 11.7 0 0 1 0 23.3" fill="#fff500FC"/><path d="M143-196.7a11.7 11.7 0 1 1 0-23.4 11.7 11.7 0 0 1 0 23.4" fill="#c2e1ffFC"/><path d="M81.1-208a11.7 11.7 0 1 1 0-23.4 11.7 11.7 0 0 1 0 23.4" fill="#c2e1ffFC"/><path d="M74.9-192.2a11.7 11.7 0 1 1 0-23.5 11.7 11.7 0 0 1 0 23.5" fill="#005bbbFD"/><path d="M94.5-177.3a11.8 11.8 0 1 1 0-23.6 11.8 11.8 0 0 1 0 23.6" fill="#fffFE"/></g></svg>