<svg width="1200" height="675" viewBox="-500 -500 1200 675" xmlns="http://www.w3.org/2000/svg"><path d="M-500-500h1200v675h-1200z" fill="#000"/><style>.sparkles path{stroke-linecap:round; stroke-width:1}</style><g class="sparkles"><path d="M100-162.5l40-40" stroke="#fff33"/><path d="M100-162.5l55.8 14.3" stroke="#fff33"/><path d="M100-162.5l55 28.5" stroke="#005bbb33"/><path d="M100-162.5l-9.4 75.7" stroke="#c2e1ff34"/><path d="M100-162.5l-69.1-33.9" stroke="#fff50034"/><path d="M100-162.5l55 74.8" stroke="#fff36"/><path d="M100-162.5l86.1 45.3" stroke="#005bbb36"/><path d="M100-162.5l-81.8-54.1" stroke="#005bbb36"/><path d="M100-162.5l-14-99.3" stroke="#fff36"/><path d="M100-162.5l36.1-99.5" stroke="#fff37"/><path d="M100-162.5l-52.1-96.7" stroke="#c2e1ff37"/><path d="M100-162.5l-62.6 93.1" stroke="#fff37"/><path d="M100-162.5l-101.6-53.8" stroke="#fff50038"/><path d="M100-162.5l66.4-97.9" stroke="#fff50038"/><path d="M100-162.5l94.1 74.8" stroke="#fff38"/><path d="M100-162.5l-102.5 63.3" stroke="#fff50038"/><path d="M100-162.5l49.5 120.1" stroke="#c2e1ff3A"/><path d="M100-162.5l-121.2-53.2" stroke="#fff5003A"/><path d="M100-162.5l-132.4-39.3" stroke="#fff3B"/><path d="M100-162.5l123.6 80.4" stroke="#fff3C"/><path d="M100-162.5l-147.4 30.8" stroke="#005bbb3D"/><path d="M100-162.5l-14.9-152.4" stroke="#fff3D"/><path d="M100-162.5l-117.3-102.3" stroke="#fff3E"/><path d="M100-162.5l-133.4 82.2" stroke="#c2e1ff3E"/><path d="M100-162.5l34-154.5" stroke="#fff3E"/><path d="M100-162.5l129-92.1" stroke="#c2e1ff3E"/><path d="M100-162.5l-133.4 86.8" stroke="#fff3F"/><path d="M100-162.5l110.1-119.7" stroke="#005bbb3F"/><path d="M100-162.5l57.1-152.7" stroke="#fff5003F"/><path d="M100-162.5l-100.9 130" stroke="#c2e1ff40"/><path d="M100-162.5l-66.4 151.6" stroke="#005bbb40"/><path d="M100-162.5l136.2 103.2" stroke="#fff50041"/><path d="M100-162.5l-91.3-144.6" stroke="#c2e1ff41"/><path d="M100-162.5l174.2-7.2" stroke="#fff42"/><path d="M100-162.5l-39.7-178" stroke="#005bbb44"/><path d="M100-162.5l-178.5-40.6" stroke="#fff44"/><path d="M100-162.5l-180.2 50.8" stroke="#005bbb45"/><path d="M100-162.5l-15.9 188" stroke="#fff50045"/><path d="M100-162.5l186.6-46.2" stroke="#fff50046"/><path d="M100-162.5l-64.1-188.3" stroke="#c2e1ff49"/><path d="M100-162.5l-153.7 127.7" stroke="#fff49"/><path d="M100-162.5l54.8 192.3" stroke="#fff49"/><path d="M100-162.5l-172.5-101.4" stroke="#c2e1ff49"/><path d="M100-162.5l110.2 167.4" stroke="#fff49"/><path d="M100-162.5l-97.5 175.9" stroke="#005bbb49"/><path d="M100-162.5l161.7 120.3" stroke="#c2e1ff49"/><path d="M100-162.5l-200.4-38.3" stroke="#005bbb4A"/><path d="M100-162.5l17.5-203.7" stroke="#005bbb4A"/><path d="M100-162.5l-124.7 163.4" stroke="#fff4B"/><path d="M100-162.5l182.1-98.6" stroke="#fff4B"/><path d="M100-162.5l-114.7-175.2" stroke="#c2e1ff4C"/><path d="M100-162.5l-137.3 158.3" stroke="#fff5004C"/><path d="M100-162.5l16.7 209.6" stroke="#c2e1ff4D"/><path d="M100-162.5l78.2-195.7" stroke="#fff5004D"/><path d="M100-162.5l-70.9-198.9" stroke="#005bbb4D"/><path d="M100-162.5l113.4 178.3" stroke="#c2e1ff4D"/><path d="M100-162.5l-194.5 83.4" stroke="#c2e1ff4D"/><path d="M100-162.5l206.8-46.7" stroke="#fff4D"/><path d="M100-162.5l204.6-64.4" stroke="#fff5004F"/><path d="M100-162.5l17.2 214.6" stroke="#c2e1ff4F"/><path d="M100-162.5l-203.6-73.8" stroke="#c2e1ff50"/><path d="M100-162.5l-22.1 215.6" stroke="#fff50"/><path d="M100-162.5l178.4 128" stroke="#fff51"/><path d="M100-162.5l26.7-218.4" stroke="#fff51"/><path d="M100-162.5l124.7-181.4" stroke="#005bbb51"/><path d="M100-162.5l221.2 0" stroke="#005bbb52"/><path d="M100-162.5l-78.8-211.6" stroke="#005bbb55"/><path d="M100-162.5l-186.8-127.7" stroke="#005bbb55"/><path d="M100-162.5l-228.1-15.7" stroke="#c2e1ff57"/><path d="M100-162.5l-187.4 133.7" stroke="#fff58"/><path d="M100-162.5l-39.6 226.9" stroke="#fff58"/><path d="M100-162.5l142.4-181.5" stroke="#005bbb59"/><path d="M100-162.5l-78 217.1" stroke="#fff50059"/><path d="M100-162.5l-116.2-199.5" stroke="#c2e1ff59"/><path d="M100-162.5l45.9 226.9" stroke="#fff5005A"/><path d="M100-162.5l-113.7-203.7" stroke="#fff5005C"/><path d="M100-162.5l-51.6 227.6" stroke="#005bbb5C"/><path d="M100-162.5l-49.4-228.8" stroke="#fff5005D"/><path d="M100-162.5l-77.9 221.5" stroke="#005bbb5E"/><path d="M100-162.5l-190.6 137.3" stroke="#fff5005E"/><path d="M100-162.5l-217.8 89" stroke="#005bbb5F"/><path d="M100-162.5l-118.9 203.2" stroke="#c2e1ff5F"/><path d="M100-162.5l174.6 158.9" stroke="#fff50061"/><path d="M100-162.5l-54.1-229.9" stroke="#fff62"/><path d="M100-162.5l-85.9 220" stroke="#005bbb62"/><path d="M100-162.5l44.5-232" stroke="#005bbb64"/><path d="M100-162.5l-217.9-91.2" stroke="#c2e1ff64"/><path d="M100-162.5l-235.4-20" stroke="#fff64"/><path d="M100-162.5l0.9 236.2" stroke="#c2e1ff65"/><path d="M100-162.5l159.7 174" stroke="#fff50065"/><path d="M100-162.5l-165.9 167.7" stroke="#fff66"/><path d="M100-162.5l68.1-225.8" stroke="#c2e1ff67"/><path d="M100-162.5l-229.5-53.7" stroke="#c2e1ff67"/><path d="M100-162.5l146.6 183.5" stroke="#fff50069"/><path d="M100-162.5l-132.3 193.4" stroke="#fff5006A"/><path d="M100-162.5l-27.7 232.3" stroke="#fff6A"/><path d="M100-162.5l135.4-190.3" stroke="#c2e1ff6B"/><path d="M100-162.5l-62.6-222.6" stroke="#fff6E"/><path d="M100-162.5l-143.4-181.1" stroke="#fff6E"/><path d="M100-162.5l-169 153.7" stroke="#c2e1ff70"/><path d="M100-162.5l-131.5 186.8" stroke="#fff70"/><path d="M100-162.5l-193.9 120.8" stroke="#fff50070"/><path d="M100-162.5l-122.3-192.7" stroke="#005bbb70"/><path d="M100-162.5l-207.1-92.4" stroke="#fff72"/><path d="M100-162.5l184-131.4" stroke="#fff72"/><path d="M100-162.5l-192.8-116.8" stroke="#005bbb72"/><path d="M100-162.5l-204.4 92.4" stroke="#005bbb73"/><path d="M100-162.5l222.8 20.4" stroke="#fff50074"/><path d="M100-162.5l-191.9 113.6" stroke="#c2e1ff74"/><path d="M100-162.5l-78 208.2" stroke="#005bbb74"/><path d="M100-162.5l181.7-125.5" stroke="#fff50075"/><path d="M100-162.5l193.5 105.8" stroke="#fff75"/><path d="M100-162.5l-193.7-104.3" stroke="#fff76"/><path d="M100-162.5l65.1-209.9" stroke="#c2e1ff76"/><path d="M100-162.5l110.6-189.3" stroke="#fff50076"/><path d="M100-162.5l211.1-59.3" stroke="#fff50076"/><path d="M100-162.5l-110.6 189.2" stroke="#fff50076"/><path d="M100-162.5l24.3 217.5" stroke="#005bbb76"/><path d="M100-162.5l-10.2-218.2" stroke="#c2e1ff77"/><path d="M100-162.5l108.6 186.1" stroke="#c2e1ff78"/><path d="M100-162.5l-93.2-193.9" stroke="#005bbb78"/><path d="M100-162.5l185.2-105.6" stroke="#fff50079"/><path d="M100-162.5l-210.3-20.1" stroke="#005bbb7A"/><path d="M100-162.5l151.8-145" stroke="#fff5007A"/><path d="M100-162.5l205.2 26.1" stroke="#fff5007C"/><path d="M100-162.5l145.8 145.7" stroke="#fff7C"/><path d="M100-162.5l20.2-203.6" stroke="#c2e1ff7D"/><path d="M100-162.5l-170.7 108.4" stroke="#fff7D"/><path d="M100-162.5l91.1-180.2" stroke="#fff5007D"/><path d="M100-162.5l44.5 195.4" stroke="#005bbb7E"/><path d="M100-162.5l-72 184.7" stroke="#005bbb7F"/><path d="M100-162.5l-137.5-140.6" stroke="#fff5007F"/><path d="M100-162.5l67.7 183.3" stroke="#c2e1ff80"/><path d="M100-162.5l-140.8-135.2" stroke="#005bbb80"/><path d="M100-162.5l-2.7 193.9" stroke="#c2e1ff80"/><path d="M100-162.5l-51.2-185" stroke="#fff81"/><path d="M100-162.5l154.5 104.5" stroke="#c2e1ff82"/><path d="M100-162.5l-75.2-170.1" stroke="#c2e1ff82"/><path d="M100-162.5l167.4 73.7" stroke="#005bbb83"/><path d="M100-162.5l-72.1-167.8" stroke="#005bbb83"/><path d="M100-162.5l-125-129.7" stroke="#c2e1ff84"/><path d="M100-162.5l-74.3 161.8" stroke="#005bbb84"/><path d="M100-162.5l135.1-114.1" stroke="#fff85"/><path d="M100-162.5l-139.9 107.4" stroke="#005bbb85"/><path d="M100-162.5l-131.3-116.9" stroke="#005bbb85"/><path d="M100-162.5l-161.4-68.4" stroke="#fff85"/><path d="M100-162.5l-104.7 138.8" stroke="#fff85"/><path d="M100-162.5l24.7-163.2" stroke="#005bbb87"/><path d="M100-162.5l-23.4 163.1" stroke="#005bbb87"/><path d="M100-162.5l67.6-146.9" stroke="#005bbb88"/><path d="M100-162.5l106.7 113.5" stroke="#fff89"/><path d="M100-162.5l-44.5-148.9" stroke="#fff89"/><path d="M100-162.5l5.3 155" stroke="#fff50089"/><path d="M100-162.5l-86.8-127.2" stroke="#fff89"/><path d="M100-162.5l-3.8 153.9" stroke="#fff89"/><path d="M100-162.5l42.1-145.3" stroke="#c2e1ff8A"/><path d="M100-162.5l32.8-146.7" stroke="#fff5008A"/><path d="M100-162.5l-18.9 148.5" stroke="#fff5008A"/><path d="M100-162.5l-81.5-124.3" stroke="#005bbb8A"/><path d="M100-162.5l83 119.6" stroke="#fff5008B"/><path d="M100-162.5l-136 21.6" stroke="#005bbb8C"/><path d="M100-162.5l-124.6-48.1" stroke="#c2e1ff8D"/><path d="M100-162.5l-125.3 45" stroke="#fff8D"/><path d="M100-162.5l-0.2-129.8" stroke="#005bbb8D"/><path d="M100-162.5l97.5-84.7" stroke="#fff8D"/><path d="M100-162.5l87.7-68.9" stroke="#005bbb90"/><path d="M100-162.5l-97.9 53" stroke="#c2e1ff90"/><path d="M100-162.5l74.1 80.3" stroke="#fff90"/><path d="M100-162.5l-29-104.9" stroke="#c2e1ff90"/><path d="M100-162.5l58.3 83.4" stroke="#fff50091"/><path d="M100-162.5l96.1 25" stroke="#fff50091"/><path d="M100-162.5l22.8 94.2" stroke="#005bbb91"/><path d="M100-162.5l91 20.8" stroke="#005bbb91"/><path d="M100-162.5l-0.4 89.7" stroke="#fff50092"/><path d="M100-162.5l56.9-21.1" stroke="#fff94"/><path d="M100-162.5l36.5 38.3" stroke="#fff50094"/><path d="M100-162.5l13.2-50.6" stroke="#c2e1ff94"/><path d="M100-162.5l-34.9-38.3" stroke="#005bbb94"/><path d="M100-162.5l-25.5-38.2" stroke="#fff50095"/><path d="M100-162.5l15.5-23.7" stroke="#fff95"/><path d="M100-162.5l12.8-2.6" stroke="#005bbb95"/></g><g class="sparcs"><path d="M140-196.5a6 6 0 1 1 0-12 6 6 0 0 1 0 12" fill="#c2e1ff7E"/><path d="M155.8-142.2a6 6 0 1 1 0-12 6 6 0 0 1 0 12" fill="#fff7E"/><path d="M155-128a6 6 0 1 1 0-12 6 6 0 0 1 0 12" fill="#fff7F"/><path d="M90.6-80.8a6.1 6.1 0 1 1 0-12.1 6.1 6.1 0 0 1 0 12.1" fill="#fff50080"/><path d="M30.9-190.3a6.1 6.1 0 1 1 0-12.1 6.1 6.1 0 0 1 0 12.1" fill="#005bbb80"/><path d="M155-81.6a6.1 6.1 0 1 1 0-12.3 6.1 6.1 0 0 1 0 12.3" fill="#005bbb82"/><path d="M186.1-111a6.2 6.2 0 1 1 0-12.3 6.2 6.2 0 0 1 0 12.3" fill="#fff82"/><path d="M18.2-210.4a6.2 6.2 0 1 1 0-12.3 6.2 6.2 0 0 1 0 12.3" fill="#005bbb82"/><path d="M86-255.7a6.2 6.2 0 1 1 0-12.3 6.2 6.2 0 0 1 0 12.3" fill="#005bbb83"/><path d="M136.1-255.8a6.2 6.2 0 1 1 0-12.5 6.2 6.2 0 0 1 0 12.5" fill="#fff50083"/><path d="M47.9-252.9a6.2 6.2 0 1 1 0-12.5 6.2 6.2 0 0 1 0 12.5" fill="#005bbb84"/><path d="M37.4-63.2a6.3 6.3 0 1 1 0-12.5 6.3 6.3 0 0 1 0 12.5" fill="#c2e1ff84"/><path d="M-1.6-210.1a6.3 6.3 0 1 1 0-12.5 6.3 6.3 0 0 1 0 12.5" fill="#005bbb85"/><path d="M166.4-254.1a6.3 6.3 0 1 1 0-12.6 6.3 6.3 0 0 1 0 12.6" fill="#005bbb85"/><path d="M194.1-81.4a6.3 6.3 0 1 1 0-12.6 6.3 6.3 0 0 1 0 12.6" fill="#fff50086"/><path d="M-2.5-92.8a6.3 6.3 0 1 1 0-12.7 6.3 6.3 0 0 1 0 12.7" fill="#c2e1ff86"/><path d="M149.5-36a6.4 6.4 0 1 1 0-12.8 6.4 6.4 0 0 1 0 12.8" fill="#fff87"/><path d="M-21.2-209.3a6.4 6.4 0 1 1 0-12.8 6.4 6.4 0 0 1 0 12.8" fill="#fff88"/><path d="M-32.4-195.4a6.5 6.5 0 1 1 0-12.9 6.5 6.5 0 0 1 0 12.9" fill="#fff89"/><path d="M223.6-75.5a6.6 6.6 0 1 1 0-13.1 6.6 6.6 0 0 1 0 13.1" fill="#c2e1ff8B"/><path d="M-47.4-125.1a6.6 6.6 0 1 1 0-13.2 6.6 6.6 0 0 1 0 13.2" fill="#005bbb8B"/><path d="M85.1-308.3a6.6 6.6 0 1 1 0-13.3 6.6 6.6 0 0 1 0 13.3" fill="#fff5008C"/><path d="M-17.3-258.1a6.6 6.6 0 1 1 0-13.3 6.6 6.6 0 0 1 0 13.3" fill="#c2e1ff8D"/><path d="M-33.4-73.7a6.6 6.6 0 1 1 0-13.3 6.6 6.6 0 0 1 0 13.3" fill="#fff8D"/><path d="M134-310.3a6.7 6.7 0 1 1 0-13.4 6.7 6.7 0 0 1 0 13.4" fill="#fff8D"/><path d="M229-248a6.7 6.7 0 1 1 0-13.3 6.7 6.7 0 0 1 0 13.3" fill="#005bbb8D"/><path d="M-33.4-69.1a6.7 6.7 0 1 1 0-13.3 6.7 6.7 0 0 1 0 13.3" fill="#fff5008D"/><path d="M210.1-275.4a6.7 6.7 0 1 1 0-13.5 6.7 6.7 0 0 1 0 13.5" fill="#005bbb8E"/><path d="M157.1-308.4a6.7 6.7 0 1 1 0-13.5 6.7 6.7 0 0 1 0 13.5" fill="#005bbb8E"/><path d="M-0.9-25.7a6.7 6.7 0 1 1 0-13.5 6.7 6.7 0 0 1 0 13.5" fill="#fff8F"/><path d="M33.6-4.2a6.8 6.8 0 1 1 0-13.5 6.8 6.8 0 0 1 0 13.5" fill="#fff8F"/><path d="M236.2-52.4a6.8 6.8 0 1 1 0-13.7 6.8 6.8 0 0 1 0 13.7" fill="#fff50091"/><path d="M8.7-300.2a6.8 6.8 0 1 1 0-13.7 6.8 6.8 0 0 1 0 13.7" fill="#fff91"/><path d="M274.2-162.9a6.9 6.9 0 1 1 0-13.7 6.9 6.9 0 0 1 0 13.7" fill="#005bbb92"/><path d="M60.3-333.6a7 7 0 1 1 0-13.9 7 7 0 0 1 0 13.9" fill="#fff50094"/><path d="M-78.5-196.1a7 7 0 1 1 0-14 7 7 0 0 1 0 14" fill="#fff94"/><path d="M-80.2-104.6a7.1 7.1 0 1 1 0-14.2 7.1 7.1 0 0 1 0 14.2" fill="#c2e1ff96"/><path d="M84.1 32.6a7.1 7.1 0 1 1 0-14.2 7.1 7.1 0 0 1 0 14.2" fill="#005bbb96"/><path d="M286.6-201.6a7.1 7.1 0 1 1 0-14.2 7.1 7.1 0 0 1 0 14.2" fill="#c2e1ff98"/><path d="M35.9-343.6a7.3 7.3 0 1 1 0-14.5 7.3 7.3 0 0 1 0 14.5" fill="#fff5009A"/><path d="M-53.7-27.5a7.3 7.3 0 1 1 0-14.6 7.3 7.3 0 0 1 0 14.6" fill="#005bbb9B"/><path d="M154.8 37.1a7.3 7.3 0 1 1 0-14.6 7.3 7.3 0 0 1 0 14.6" fill="#fff9B"/><path d="M-72.5-256.6a7.3 7.3 0 1 1 0-14.6 7.3 7.3 0 0 1 0 14.6" fill="#fff9B"/><path d="M210.2 12.2a7.3 7.3 0 1 1 0-14.6 7.3 7.3 0 0 1 0 14.6" fill="#fff9B"/><path d="M2.5 20.7a7.3 7.3 0 1 1 0-14.6 7.3 7.3 0 0 1 0 14.6" fill="#fff9B"/><path d="M261.7-34.9a7.3 7.3 0 1 1 0-14.7 7.3 7.3 0 0 1 0 14.7" fill="#fff5009C"/><path d="M-100.4-193.4a7.4 7.4 0 1 1 0-14.8 7.4 7.4 0 0 1 0 14.8" fill="#fff5009D"/><path d="M117.5-358.8a7.4 7.4 0 1 1 0-14.8 7.4 7.4 0 0 1 0 14.8" fill="#fff5009D"/><path d="M-24.7 8.3a7.4 7.4 0 1 1 0-14.8 7.4 7.4 0 0 1 0 14.8" fill="#c2e1ff9D"/><path d="M282.1-253.7a7.4 7.4 0 1 1 0-14.9 7.4 7.4 0 0 1 0 14.9" fill="#fff5009E"/><path d="M-14.7-330.2a7.5 7.5 0 1 1 0-15 7.5 7.5 0 0 1 0 15" fill="#c2e1ff9F"/><path d="M-37.3 3.3a7.5 7.5 0 1 1 0-14.9 7.5 7.5 0 0 1 0 14.9" fill="#005bbb9F"/><path d="M116.7 54.6a7.5 7.5 0 1 1 0-15 7.5 7.5 0 0 1 0 15" fill="#fff500A0"/><path d="M178.2-350.7a7.5 7.5 0 1 1 0-15.1 7.5 7.5 0 0 1 0 15.1" fill="#fff500A0"/><path d="M29.1-353.8a7.5 7.5 0 1 1 0-15.1 7.5 7.5 0 0 1 0 15.1" fill="#005bbbA0"/><path d="M213.4 23.4a7.5 7.5 0 1 1 0-15.1 7.5 7.5 0 0 1 0 15.1" fill="#fffA0"/><path d="M-94.5-71.5a7.5 7.5 0 1 1 0-15.1 7.5 7.5 0 0 1 0 15.1" fill="#c2e1ffA1"/><path d="M306.8-201.7a7.6 7.6 0 1 1 0-15.1 7.6 7.6 0 0 1 0 15.1" fill="#c2e1ffA1"/><path d="M304.6-219.3a7.6 7.6 0 1 1 0-15.2 7.6 7.6 0 0 1 0 15.2" fill="#fff500A2"/><path d="M117.2 59.8a7.6 7.6 0 1 1 0-15.3 7.6 7.6 0 0 1 0 15.3" fill="#fffA3"/><path d="M-103.6-228.6a7.7 7.7 0 1 1 0-15.4 7.7 7.7 0 0 1 0 15.4" fill="#005bbbA4"/><path d="M77.9 60.7a7.7 7.7 0 1 1 0-15.3 7.7 7.7 0 0 1 0 15.3" fill="#c2e1ffA4"/><path d="M278.4-26.7a7.8 7.8 0 1 1 0-15.6 7.8 7.8 0 0 1 0 15.6" fill="#fffA5"/><path d="M126.7-373.2a7.8 7.8 0 1 1 0-15.5 7.8 7.8 0 0 1 0 15.5" fill="#fffA6"/><path d="M224.7-336.1a7.8 7.8 0 1 1 0-15.6 7.8 7.8 0 0 1 0 15.6" fill="#fffA6"/><path d="M321.2-154.7a7.8 7.8 0 1 1 0-15.6 7.8 7.8 0 0 1 0 15.6" fill="#fffA7"/><path d="M21.2-366.2a8 8 0 1 1 0-15.9 8 8 0 0 1 0 15.9" fill="#fffAA"/><path d="M-86.8-282.2a8 8 0 1 1 0-16 8 8 0 0 1 0 16" fill="#fff500AB"/><path d="M-128.1-170.1a8.1 8.1 0 1 1 0-16.3 8.1 8.1 0 0 1 0 16.3" fill="#fff500AD"/><path d="M-87.4-20.6a8.2 8.2 0 1 1 0-16.4 8.2 8.2 0 0 1 0 16.4" fill="#fffAF"/><path d="M60.4 72.6a8.2 8.2 0 1 1 0-16.4 8.2 8.2 0 0 1 0 16.4" fill="#005bbbAF"/><path d="M242.4-335.7a8.2 8.2 0 1 1 0-16.5 8.2 8.2 0 0 1 0 16.5" fill="#fff500AF"/><path d="M22 62.8a8.2 8.2 0 1 1 0-16.5 8.2 8.2 0 0 1 0 16.5" fill="#fff500AF"/><path d="M-16.2-353.8a8.2 8.2 0 1 1 0-16.5 8.2 8.2 0 0 1 0 16.5" fill="#fff500B0"/><path d="M145.9 72.7a8.3 8.3 0 1 1 0-16.5 8.3 8.3 0 0 1 0 16.5" fill="#005bbbB1"/><path d="M-13.7-357.8a8.4 8.4 0 1 1 0-16.8 8.4 8.4 0 0 1 0 16.8" fill="#fffB3"/><path d="M48.4 73.5a8.4 8.4 0 1 1 0-16.8 8.4 8.4 0 0 1 0 16.8" fill="#005bbbB3"/><path d="M50.6-382.8a8.5 8.5 0 1 1 0-17 8.5 8.5 0 0 1 0 17" fill="#fffB5"/><path d="M22.1 67.5a8.5 8.5 0 1 1 0-17.1 8.5 8.5 0 0 1 0 17.1" fill="#fffB6"/><path d="M-90.6-16.6a8.6 8.6 0 1 1 0-17.1 8.6 8.6 0 0 1 0 17.1" fill="#005bbbB7"/><path d="M-117.8-64.9a8.6 8.6 0 1 1 0-17.2 8.6 8.6 0 0 1 0 17.2" fill="#fffB8"/><path d="M-18.9 49.3a8.6 8.6 0 1 1 0-17.2 8.6 8.6 0 0 1 0 17.2" fill="#005bbbB8"/><path d="M274.6 5.2a8.7 8.7 0 1 1 0-17.5 8.7 8.7 0 0 1 0 17.5" fill="#fff500BB"/><path d="M45.9-383.6a8.8 8.8 0 1 1 0-17.6 8.8 8.8 0 0 1 0 17.6" fill="#c2e1ffBC"/><path d="M14.1 66.3a8.8 8.8 0 1 1 0-17.6 8.8 8.8 0 0 1 0 17.6" fill="#fff500BC"/><path d="M144.5-385.6a8.9 8.9 0 1 1 0-17.8 8.9 8.9 0 0 1 0 17.8" fill="#c2e1ffBE"/><path d="M-117.9-244.8a8.9 8.9 0 1 1 0-17.8 8.9 8.9 0 0 1 0 17.8" fill="#c2e1ffBE"/><path d="M-135.4-173.6a8.9 8.9 0 1 1 0-17.8 8.9 8.9 0 0 1 0 17.8" fill="#fff500BE"/><path d="M100.9 82.6a8.9 8.9 0 1 1 0-17.9 8.9 8.9 0 0 1 0 17.9" fill="#c2e1ffBF"/><path d="M259.7 20.4a8.9 8.9 0 1 1 0-17.9 8.9 8.9 0 0 1 0 17.9" fill="#c2e1ffBF"/><path d="M-65.9 14.2a9 9 0 1 1 0-18 9 9 0 0 1 0 18" fill="#005bbbC1"/><path d="M168.1-379.2a9 9 0 1 1 0-18.1 9 9 0 0 1 0 18.1" fill="#fffC1"/><path d="M-129.5-207.2a9.1 9.1 0 1 1 0-18.1 9.1 9.1 0 0 1 0 18.1" fill="#c2e1ffC2"/><path d="M246.6 30.2a9.2 9.2 0 1 1 0-18.3 9.2 9.2 0 0 1 0 18.3" fill="#005bbbC4"/><path d="M-32.3 40.1a9.2 9.2 0 1 1 0-18.5 9.2 9.2 0 0 1 0 18.5" fill="#fff500C6"/><path d="M72.3 79.1a9.3 9.3 0 1 1 0-18.5 9.3 9.3 0 0 1 0 18.5" fill="#fffC7"/><path d="M235.4-343.5a9.3 9.3 0 1 1 0-18.6 9.3 9.3 0 0 1 0 18.6" fill="#fff500C7"/><path d="M37.4-375.7a9.5 9.5 0 1 1 0-18.9 9.5 9.5 0 0 1 0 18.9" fill="#c2e1ffCB"/><path d="M-43.4-334.1a9.5 9.5 0 1 1 0-19 9.5 9.5 0 0 1 0 19" fill="#005bbbCB"/><path d="M-69 0.8a9.6 9.6 0 1 1 0-19.2 9.6 9.6 0 0 1 0 19.2" fill="#005bbbCE"/><path d="M-31.5 33.9a9.6 9.6 0 1 1 0-19.2 9.6 9.6 0 0 1 0 19.2" fill="#fffCE"/><path d="M-93.9-32.1a9.6 9.6 0 1 1 0-19.2 9.6 9.6 0 0 1 0 19.2" fill="#fffCE"/><path d="M-22.3-345.5a9.6 9.6 0 1 1 0-19.3 9.6 9.6 0 0 1 0 19.3" fill="#005bbbCE"/><path d="M-107.1-245.2a9.7 9.7 0 1 1 0-19.4 9.7 9.7 0 0 1 0 19.4" fill="#fffD0"/><path d="M284-284.1a9.7 9.7 0 1 1 0-19.5 9.7 9.7 0 0 1 0 19.5" fill="#c2e1ffD0"/><path d="M-92.8-269.6a9.7 9.7 0 1 1 0-19.5 9.7 9.7 0 0 1 0 19.5" fill="#005bbbD1"/><path d="M-104.4-60.3a9.8 9.8 0 1 1 0-19.5 9.8 9.8 0 0 1 0 19.5" fill="#005bbbD2"/><path d="M322.8-132.3a9.8 9.8 0 1 1 0-19.6 9.8 9.8 0 0 1 0 19.6" fill="#fff500D2"/><path d="M-91.9-39.1a9.8 9.8 0 1 1 0-19.7 9.8 9.8 0 0 1 0 19.7" fill="#005bbbD3"/><path d="M22 55.6a9.9 9.9 0 1 1 0-19.7 9.9 9.9 0 0 1 0 19.7" fill="#fff500D3"/><path d="M281.7-278.1a9.9 9.9 0 1 1 0-19.8 9.9 9.9 0 0 1 0 19.8" fill="#fff500D5"/><path d="M293.5-46.8a9.9 9.9 0 1 1 0-19.9 9.9 9.9 0 0 1 0 19.9" fill="#fff500D5"/><path d="M-93.7-256.8a9.9 9.9 0 1 1 0-19.9 9.9 9.9 0 0 1 0 19.9" fill="#fff500D5"/><path d="M165.1-362.5a9.9 9.9 0 1 1 0-19.8 9.9 9.9 0 0 1 0 19.8" fill="#fffD5"/><path d="M210.6-341.9a10 10 0 1 1 0-19.9 10 10 0 0 1 0 19.9" fill="#fffD6"/><path d="M311.1-211.9a10 10 0 1 1 0-19.9 10 10 0 0 1 0 19.9" fill="#fffD6"/><path d="M-10.6 36.6a10 10 0 1 1 0-19.9 10 10 0 0 1 0 19.9" fill="#c2e1ffD6"/><path d="M124.3 64.9a10 10 0 1 1 0-19.9 10 10 0 0 1 0 19.9" fill="#fff500D6"/><path d="M89.8-370.8a10 10 0 1 1 0-19.9 10 10 0 0 1 0 19.9" fill="#c2e1ffD6"/><path d="M208.6 33.7a10.1 10.1 0 1 1 0-20.2 10.1 10.1 0 0 1 0 20.2" fill="#fffD8"/><path d="M6.8-346.3a10.1 10.1 0 1 1 0-20.1 10.1 10.1 0 0 1 0 20.1" fill="#fff500D8"/><path d="M285.2-257.9a10.1 10.1 0 1 1 0-20.3 10.1 10.1 0 0 1 0 20.3" fill="#fffDA"/><path d="M-110.3-172.4a10.2 10.2 0 1 1 0-20.4 10.2 10.2 0 0 1 0 20.4" fill="#005bbbDB"/><path d="M251.8-297.3a10.2 10.2 0 1 1 0-20.4 10.2 10.2 0 0 1 0 20.4" fill="#c2e1ffDB"/><path d="M305.2-126.1a10.3 10.3 0 1 1 0-20.6 10.3 10.3 0 0 1 0 20.6" fill="#fffDD"/><path d="M245.8-6.5a10.3 10.3 0 1 1 0-20.6 10.3 10.3 0 0 1 0 20.6" fill="#c2e1ffDD"/><path d="M120.2-355.7a10.3 10.3 0 1 1 0-20.7 10.3 10.3 0 0 1 0 20.7" fill="#c2e1ffDE"/><path d="M-70.7-43.7a10.4 10.4 0 1 1 0-20.8 10.4 10.4 0 0 1 0 20.8" fill="#fff500DF"/><path d="M191.1-332.3a10.4 10.4 0 1 1 0-20.8 10.4 10.4 0 0 1 0 20.8" fill="#005bbbDF"/><path d="M144.5 43.3a10.4 10.4 0 1 1 0-20.8 10.4 10.4 0 0 1 0 20.8" fill="#005bbbE0"/><path d="M28 32.6a10.5 10.5 0 1 1 0-20.9 10.5 10.5 0 0 1 0 20.9" fill="#fffE1"/><path d="M-37.5-292.6a10.5 10.5 0 1 1 0-21 10.5 10.5 0 0 1 0 21" fill="#fff500E2"/><path d="M167.7 31.3a10.5 10.5 0 1 1 0-21 10.5 10.5 0 0 1 0 21" fill="#fffE2"/><path d="M-40.8-287.2a10.5 10.5 0 1 1 0-21 10.5 10.5 0 0 1 0 21" fill="#fff500E2"/><path d="M97.3 42a10.5 10.5 0 1 1 0-21.1 10.5 10.5 0 0 1 0 21.1" fill="#fffE3"/><path d="M48.8-337a10.6 10.6 0 1 1 0-21.1 10.6 10.6 0 0 1 0 21.1" fill="#005bbbE3"/><path d="M254.5-47.3a10.7 10.7 0 1 1 0-21.4 10.7 10.7 0 0 1 0 21.4" fill="#005bbbE5"/><path d="M24.8-322a10.7 10.7 0 1 1 0-21.3 10.7 10.7 0 0 1 0 21.3" fill="#fff500E6"/><path d="M267.4-78.1a10.7 10.7 0 1 1 0-21.4 10.7 10.7 0 0 1 0 21.4" fill="#fff500E7"/><path d="M27.9-319.6a10.7 10.7 0 1 1 0-21.5 10.7 10.7 0 0 1 0 21.5" fill="#fffE7"/><path d="M-25-281.5a10.8 10.8 0 1 1 0-21.5 10.8 10.8 0 0 1 0 21.5" fill="#c2e1ffE8"/><path d="M25.7 10.1a10.8 10.8 0 1 1 0-21.6 10.8 10.8 0 0 1 0 21.6" fill="#005bbbE8"/><path d="M235.1-265.7a10.8 10.8 0 1 1 0-21.7 10.8 10.8 0 0 1 0 21.7" fill="#fff500E9"/><path d="M-39.9-44.3a10.8 10.8 0 1 1 0-21.6 10.8 10.8 0 0 1 0 21.6" fill="#005bbbE9"/><path d="M-31.3-268.5a10.8 10.8 0 1 1 0-21.7 10.8 10.8 0 0 1 0 21.7" fill="#c2e1ffE9"/><path d="M-61.4-220.1a10.8 10.8 0 1 1 0-21.7 10.8 10.8 0 0 1 0 21.7" fill="#c2e1ffE9"/><path d="M-4.7-12.8a10.9 10.9 0 1 1 0-21.7 10.9 10.9 0 0 1 0 21.7" fill="#fff500EA"/><path d="M124.7-314.7a11 11 0 1 1 0-21.9 11 11 0 0 1 0 21.9" fill="#005bbbEC"/><path d="M76.6 11.6a11 11 0 1 1 0-22 11 11 0 0 1 0 22" fill="#c2e1ffEC"/><path d="M167.6-298.4a11 11 0 1 1 0-22 11 11 0 0 1 0 22" fill="#fffED"/><path d="M206.7-37.9a11.1 11.1 0 1 1 0-22.2 11.1 11.1 0 0 1 0 22.2" fill="#005bbbEE"/><path d="M55.5-300.3a11.1 11.1 0 1 1 0-22.2 11.1 11.1 0 0 1 0 22.2" fill="#005bbbEE"/><path d="M105.3 3.5a11.1 11.1 0 1 1 0-22.1 11.1 11.1 0 0 1 0 22.1" fill="#fff500EF"/><path d="M13.2-278.6a11.1 11.1 0 1 1 0-22.2 11.1 11.1 0 0 1 0 22.2" fill="#fffEF"/><path d="M96.2 2.5a11.1 11.1 0 1 1 0-22.2 11.1 11.1 0 0 1 0 22.2" fill="#005bbbEF"/><path d="M142.1-296.7a11.1 11.1 0 1 1 0-22.2 11.1 11.1 0 0 1 0 22.2" fill="#c2e1ffEF"/><path d="M132.8-298a11.1 11.1 0 1 1 0-22.3 11.1 11.1 0 0 1 0 22.3" fill="#fff500F0"/><path d="M81.1-2.8a11.1 11.1 0 1 1 0-22.3 11.1 11.1 0 0 1 0 22.3" fill="#fffF0"/><path d="M18.5-275.6a11.2 11.2 0 1 1 0-22.3 11.2 11.2 0 0 1 0 22.3" fill="#fff500F0"/><path d="M183-31.8a11.2 11.2 0 1 1 0-22.3 11.2 11.2 0 0 1 0 22.3" fill="#fff500F1"/><path d="M-36-129.6a11.3 11.3 0 1 1 0-22.6 11.3 11.3 0 0 1 0 22.6" fill="#fffF2"/><path d="M-24.6-199.3a11.3 11.3 0 1 1 0-22.6 11.3 11.3 0 0 1 0 22.6" fill="#fffF3"/><path d="M-25.3-106.2a11.3 11.3 0 1 1 0-22.6 11.3 11.3 0 0 1 0 22.6" fill="#c2e1ffF3"/><path d="M99.8-280.9a11.3 11.3 0 1 1 0-22.7 11.3 11.3 0 0 1 0 22.7" fill="#fff500F4"/><path d="M197.5-235.8a11.3 11.3 0 1 1 0-22.7 11.3 11.3 0 0 1 0 22.7" fill="#fff500F4"/><path d="M187.7-219.9a11.5 11.5 0 1 1 0-22.9 11.5 11.5 0 0 1 0 22.9" fill="#c2e1ffF7"/><path d="M2.1-98a11.5 11.5 0 1 1 0-22.9 11.5 11.5 0 0 1 0 22.9" fill="#c2e1ffF7"/><path d="M174.1-70.7a11.5 11.5 0 1 1 0-22.9 11.5 11.5 0 0 1 0 22.9" fill="#fff500F7"/><path d="M71-255.9a11.5 11.5 0 1 1 0-23 11.5 11.5 0 0 1 0 23" fill="#c2e1ffF7"/><path d="M158.3-67.5a11.5 11.5 0 1 1 0-23.1 11.5 11.5 0 0 1 0 23.1" fill="#005bbbF8"/><path d="M196.1-125.9a11.5 11.5 0 1 1 0-23.1 11.5 11.5 0 0 1 0 23.1" fill="#005bbbF8"/><path d="M122.8-56.7a11.6 11.6 0 1 1 0-23.1 11.6 11.6 0 0 1 0 23.1" fill="#fff500F9"/><path d="M191-130.1a11.6 11.6 0 1 1 0-23.2 11.6 11.6 0 0 1 0 23.2" fill="#fff500F9"/><path d="M99.6-61.2a11.6 11.6 0 1 1 0-23.2 11.6 11.6 0 0 1 0 23.2" fill="#fff500FA"/><path d="M156.9-171.9a11.7 11.7 0 1 1 0-23.4 11.7 11.7 0 0 1 0 23.4" fill="#fffFC"/><path d="M136.5-112.5a11.7 11.7 0 1 1 0-23.5 11.7 11.7 0 0 1 0 23.5" fill="#005bbbFD"/><path d="M113.2-201.3a11.7 11.7 0 1 1 0-23.5 11.7 11.7 0 0 1 0 23.5" fill="#fffFD"/><path d="M65.1-189.1a11.7 11.7 0 1 1 0-23.4 11.7 11.7 0 0 1 0 23.4" fill="#fffFD"/><path d="M74.5-189a11.8 11.8 0 1 1 0-23.5 11.8 11.8 0 0 1 0 23.5" fill="#fffFD"/><path d="M115.5-174.4a11.8 11.8 0 1 1 0-23.6 11.8 11.8 0 0 1 0 23.6" fill="#fff500FE"/><path d="M112.8-153.3a11.8 11.8 0 1 1 0-23.6 11.8 11.8 0 0 1 0 23.6" fill="#005bbbFE"/></g></svg>