<svg width="1200" height="675" viewBox="-500 -500 1200 675" xmlns="http://www.w3.org/2000/svg"><path d="M-500-500h1200v675h-1200z" fill="#000"/><style>.sparkles path{stroke-linecap:round; stroke-width:1}</style><g class="sparkles"><path d="M100-162.5l32.5 15.9" stroke="#fff32"/><path d="M100-162.5l-20.7 38.1" stroke="#c2e1ff32"/><path d="M100-162.5l51.5 0" stroke="#fff50033"/><path d="M100-162.5l-75.4-50.5" stroke="#c2e1ff35"/><path d="M100-162.5l-91.4 25.1" stroke="#fff50036"/><path d="M100-162.5l86.8 47.2" stroke="#005bbb36"/><path d="M100-162.5l-98.1 15.1" stroke="#fff50036"/><path d="M100-162.5l-73.9-76.4" stroke="#c2e1ff37"/><path d="M100-162.5l2-106.3" stroke="#005bbb37"/><path d="M100-162.5l-33.2 101.9" stroke="#c2e1ff37"/><path d="M100-162.5l-105.7 36.1" stroke="#c2e1ff37"/><path d="M100-162.5l-115.9-15.4" stroke="#c2e1ff38"/><path d="M100-162.5l60.5 109.2" stroke="#fff50039"/><path d="M100-162.5l-69.7 105.9" stroke="#fff50039"/><path d="M100-162.5l44.8 121.2" stroke="#fff3A"/><path d="M100-162.5l77.6-106.7" stroke="#fff3A"/><path d="M100-162.5l-90.8-105.7" stroke="#fff3B"/><path d="M100-162.5l-97.1 111.7" stroke="#005bbb3D"/><path d="M100-162.5l31.8 146.3" stroke="#c2e1ff3D"/><path d="M100-162.5l-147.3 36.1" stroke="#005bbb3D"/><path d="M100-162.5l-62.7 142.3" stroke="#fff3E"/><path d="M100-162.5l-83.9 135.8" stroke="#fff5003F"/><path d="M100-162.5l-158.9 22.3" stroke="#fff3F"/><path d="M100-162.5l158.4 45.2" stroke="#c2e1ff40"/><path d="M100-162.5l-108 127.1" stroke="#c2e1ff40"/><path d="M100-162.5l83.5 144.6" stroke="#005bbb40"/><path d="M100-162.5l17.5-167.1" stroke="#005bbb40"/><path d="M100-162.5l130.9-117.8" stroke="#c2e1ff42"/><path d="M100-162.5l-179.9 10" stroke="#c2e1ff43"/><path d="M100-162.5l30.9 182.9" stroke="#005bbb45"/><path d="M100-162.5l37.8-183.7" stroke="#fff50045"/><path d="M100-162.5l-173.1 76.9" stroke="#fff46"/><path d="M100-162.5l-111.9-154.4" stroke="#c2e1ff46"/><path d="M100-162.5l160.3-109.9" stroke="#fff50047"/><path d="M100-162.5l-123.3 151.1" stroke="#fff50047"/><path d="M100-162.5l-153.7 120.7" stroke="#c2e1ff47"/><path d="M100-162.5l22-195.1" stroke="#fff48"/><path d="M100-162.5l-79.6 179.4" stroke="#fff50048"/><path d="M100-162.5l140.2 137.6" stroke="#fff50048"/><path d="M100-162.5l-106.2 169.6" stroke="#fff49"/><path d="M100-162.5l-146.7 136.3" stroke="#c2e1ff49"/><path d="M100-162.5l200-14.6" stroke="#005bbb49"/><path d="M100-162.5l138.6-147" stroke="#fff4A"/><path d="M100-162.5l-46.2 198.6" stroke="#005bbb4A"/><path d="M100-162.5l153.7-134.7" stroke="#005bbb4A"/><path d="M100-162.5l-134.9 153.6" stroke="#005bbb4A"/><path d="M100-162.5l-43.5-200.5" stroke="#fff4B"/><path d="M100-162.5l-165.1 121.9" stroke="#fff5004B"/><path d="M100-162.5l138 155.4" stroke="#fff5004C"/><path d="M100-162.5l144.5-149.6" stroke="#fff5004C"/><path d="M100-162.5l-174.9 113" stroke="#fff4C"/><path d="M100-162.5l-185.2-97.9" stroke="#fff5004C"/><path d="M100-162.5l196.4 76.2" stroke="#005bbb4D"/><path d="M100-162.5l-182.2 106.5" stroke="#fff4D"/><path d="M100-162.5l-103.1-184.3" stroke="#005bbb4D"/><path d="M100-162.5l-202.4-63.6" stroke="#fff5004D"/><path d="M100-162.5l31.4-212.7" stroke="#c2e1ff4F"/><path d="M100-162.5l-99.1 191.7" stroke="#fff4F"/><path d="M100-162.5l-214.9 20.2" stroke="#005bbb4F"/><path d="M100-162.5l-184.2 114.2" stroke="#005bbb50"/><path d="M100-162.5l-152.1-155.5" stroke="#005bbb50"/><path d="M100-162.5l213.4-51.3" stroke="#c2e1ff51"/><path d="M100-162.5l212.5-56.6" stroke="#005bbb51"/><path d="M100-162.5l-53.5-213.7" stroke="#005bbb51"/><path d="M100-162.5l-100.5-198.6" stroke="#005bbb53"/><path d="M100-162.5l52.6-218.5" stroke="#fff50054"/><path d="M100-162.5l11.5-225" stroke="#fff50054"/><path d="M100-162.5l185.8-128" stroke="#fff50055"/><path d="M100-162.5l-195.1-116.3" stroke="#fff50056"/><path d="M100-162.5l-226.7 17.5" stroke="#fff56"/><path d="M100-162.5l221.3-57.6" stroke="#fff57"/><path d="M100-162.5l37.2-226.3" stroke="#fff50057"/><path d="M100-162.5l-133.3-186.7" stroke="#fff50058"/><path d="M100-162.5l215 80.5" stroke="#c2e1ff58"/><path d="M100-162.5l227.9 35.8" stroke="#005bbb59"/><path d="M100-162.5l-202.5 112" stroke="#fff59"/><path d="M100-162.5l-165-162.9" stroke="#c2e1ff5A"/><path d="M100-162.5l216.6-83.3" stroke="#fff5A"/><path d="M100-162.5l-190.1 133.7" stroke="#fff5A"/><path d="M100-162.5l210.6 99.6" stroke="#c2e1ff5B"/><path d="M100-162.5l3.8-233.2" stroke="#005bbb5C"/><path d="M100-162.5l-227.6-52.8" stroke="#fff5C"/><path d="M100-162.5l-103.8 209.4" stroke="#005bbb5C"/><path d="M100-162.5l226.2-61.9" stroke="#fff5005D"/><path d="M100-162.5l124.1-199.3" stroke="#c2e1ff5E"/><path d="M100-162.5l-185.5 144" stroke="#005bbb5E"/><path d="M100-162.5l54 228.7" stroke="#fff5005E"/><path d="M100-162.5l193.4 134" stroke="#fff5F"/><path d="M100-162.5l-185.2 145.6" stroke="#c2e1ff60"/><path d="M100-162.5l90.9-217.4" stroke="#fff50060"/><path d="M100-162.5l126.4 199.2" stroke="#fff61"/><path d="M100-162.5l109.3 209.2" stroke="#005bbb62"/><path d="M100-162.5l-121.3-202.6" stroke="#c2e1ff62"/><path d="M100-162.5l147.5-184.5" stroke="#005bbb63"/><path d="M100-162.5l-34 233.8" stroke="#c2e1ff63"/><path d="M100-162.5l1.1 236.2" stroke="#fff64"/><path d="M100-162.5l174.2 159.6" stroke="#005bbb64"/><path d="M100-162.5l-194.8 133.6" stroke="#005bbb64"/><path d="M100-162.5l207.4 113" stroke="#c2e1ff65"/><path d="M100-162.5l234.8-23.8" stroke="#c2e1ff66"/><path d="M100-162.5l90.7-217.8" stroke="#c2e1ff66"/><path d="M100-162.5l176.7 156" stroke="#c2e1ff67"/><path d="M100-162.5l182.3 149.2" stroke="#005bbb67"/><path d="M100-162.5l49.9-230.2" stroke="#c2e1ff67"/><path d="M100-162.5l234.3-23.3" stroke="#fff68"/><path d="M100-162.5l-87.3-218.6" stroke="#005bbb68"/><path d="M100-162.5l-233.9-19.7" stroke="#005bbb69"/><path d="M100-162.5l218.8-83" stroke="#fff6A"/><path d="M100-162.5l-233.2-18.1" stroke="#fff6A"/><path d="M100-162.5l-38.8 230.5" stroke="#c2e1ff6B"/><path d="M100-162.5l130.3 191.9" stroke="#005bbb6D"/><path d="M100-162.5l84.3 213.5" stroke="#fff6F"/><path d="M100-162.5l34.7 226.3" stroke="#fff50070"/><path d="M100-162.5l-171.8 150.9" stroke="#005bbb70"/><path d="M100-162.5l15.9 227.9" stroke="#005bbb70"/><path d="M100-162.5l-228.1-11.1" stroke="#c2e1ff70"/><path d="M100-162.5l-147.3 173.2" stroke="#fff71"/><path d="M100-162.5l-52.3-219.3" stroke="#c2e1ff72"/><path d="M100-162.5l-25.7-223.4" stroke="#fff73"/><path d="M100-162.5l-208.8 78.1" stroke="#005bbb74"/><path d="M100-162.5l159.9 154" stroke="#fff75"/><path d="M100-162.5l197 100.8" stroke="#fff50075"/><path d="M100-162.5l-67.2 210.3" stroke="#005bbb75"/><path d="M100-162.5l71.2 208.9" stroke="#c2e1ff75"/><path d="M100-162.5l136.6-173.1" stroke="#c2e1ff75"/><path d="M100-162.5l-215.2-43.1" stroke="#c2e1ff76"/><path d="M100-162.5l44.4 214.5" stroke="#fff50076"/><path d="M100-162.5l-176.7-128.8" stroke="#fff50076"/><path d="M100-162.5l144.6 163.9" stroke="#c2e1ff77"/><path d="M100-162.5l78.4-203.7" stroke="#c2e1ff77"/><path d="M100-162.5l-192.2 101" stroke="#fff50077"/><path d="M100-162.5l-16.3 216.2" stroke="#005bbb77"/><path d="M100-162.5l-63 207.2" stroke="#fff50077"/><path d="M100-162.5l34.1-213.3" stroke="#c2e1ff78"/><path d="M100-162.5l179-113" stroke="#005bbb7A"/><path d="M100-162.5l191.5 90" stroke="#fff7A"/><path d="M100-162.5l7.5-210.2" stroke="#005bbb7A"/><path d="M100-162.5l-121.3-171.8" stroke="#fff7A"/><path d="M100-162.5l192.7-83.9" stroke="#c2e1ff7A"/><path d="M100-162.5l203.6 19.7" stroke="#fff7D"/><path d="M100-162.5l-57.2 189" stroke="#c2e1ff7F"/><path d="M100-162.5l-195.8-12.5" stroke="#fff5007F"/><path d="M100-162.5l-109.8-160.5" stroke="#c2e1ff80"/><path d="M100-162.5l73.1 179.6" stroke="#fff80"/><path d="M100-162.5l-193.3-0.3" stroke="#c2e1ff80"/><path d="M100-162.5l16.5 192.2" stroke="#fff80"/><path d="M100-162.5l28.6 187.5" stroke="#c2e1ff81"/><path d="M100-162.5l156.8-106.1" stroke="#c2e1ff81"/><path d="M100-162.5l-186.8 22.1" stroke="#c2e1ff82"/><path d="M100-162.5l179.1-55.3" stroke="#005bbb82"/><path d="M100-162.5l97.1-156.5" stroke="#fff83"/><path d="M100-162.5l-98.6 152.6" stroke="#fff50083"/><path d="M100-162.5l-27.5 177.7" stroke="#c2e1ff84"/><path d="M100-162.5l-17.4 176.4" stroke="#fff85"/><path d="M100-162.5l173.2 5.7" stroke="#fff50085"/><path d="M100-162.5l168.2 41" stroke="#005bbb86"/><path d="M100-162.5l160.3 49.9" stroke="#005bbb87"/><path d="M100-162.5l154 66.3" stroke="#fff50087"/><path d="M100-162.5l-158.1 53.3" stroke="#005bbb87"/><path d="M100-162.5l-116.3 119.6" stroke="#fff50087"/><path d="M100-162.5l-161.8 7.5" stroke="#fff50088"/><path d="M100-162.5l139.9-80.1" stroke="#005bbb88"/><path d="M100-162.5l147.9 60.7" stroke="#c2e1ff88"/><path d="M100-162.5l-3.7 155.1" stroke="#fff50089"/><path d="M100-162.5l-83.7-124.4" stroke="#fff5008A"/><path d="M100-162.5l99.1-112.1" stroke="#c2e1ff8A"/><path d="M100-162.5l-113.1 96.9" stroke="#005bbb8A"/><path d="M100-162.5l-105.4 101.1" stroke="#c2e1ff8B"/><path d="M100-162.5l52.4 131.2" stroke="#c2e1ff8C"/><path d="M100-162.5l66.9 120" stroke="#005bbb8C"/><path d="M100-162.5l125.6 42.7" stroke="#fff8D"/><path d="M100-162.5l-129.8 19" stroke="#fff8D"/><path d="M100-162.5l19.4-127" stroke="#005bbb8D"/><path d="M100-162.5l-126.2-3.3" stroke="#005bbb8E"/><path d="M100-162.5l-90.3 81.6" stroke="#fff5008E"/><path d="M100-162.5l111 46.3" stroke="#c2e1ff8F"/><path d="M100-162.5l-106.4-38" stroke="#fff5008F"/><path d="M100-162.5l27.7-100.1" stroke="#c2e1ff90"/><path d="M100-162.5l-34.3-84.1" stroke="#fff50092"/><path d="M100-162.5l-30.2-68.3" stroke="#fff50093"/><path d="M100-162.5l8.2-13.9" stroke="#fff50095"/></g><g class="sparcs"><path d="M132.5-140.7a5.9 5.9 0 1 1 0-11.8 5.9 5.9 0 0 1 0 11.8" fill="#005bbb7D"/><path d="M79.3-118.4a6 6 0 1 1 0-11.9 6 6 0 0 1 0 11.9" fill="#fff5007E"/><path d="M151.5-156.5a6 6 0 1 1 0-12 6 6 0 0 1 0 12" fill="#fff5007E"/><path d="M24.6-206.9a6.1 6.1 0 1 1 0-12.2 6.1 6.1 0 0 1 0 12.2" fill="#fff50081"/><path d="M8.6-131.3a6.2 6.2 0 1 1 0-12.3 6.2 6.2 0 0 1 0 12.3" fill="#c2e1ff82"/><path d="M186.8-109.1a6.2 6.2 0 1 1 0-12.4 6.2 6.2 0 0 1 0 12.4" fill="#fff82"/><path d="M1.9-141.2a6.2 6.2 0 1 1 0-12.4 6.2 6.2 0 0 1 0 12.4" fill="#005bbb83"/><path d="M26.1-232.6a6.2 6.2 0 1 1 0-12.5 6.2 6.2 0 0 1 0 12.5" fill="#005bbb83"/><path d="M102-262.6a6.2 6.2 0 1 1 0-12.4 6.2 6.2 0 0 1 0 12.4" fill="#005bbb83"/><path d="M66.8-54.4a6.2 6.2 0 1 1 0-12.5 6.2 6.2 0 0 1 0 12.5" fill="#c2e1ff84"/><path d="M-5.7-120.1a6.3 6.3 0 1 1 0-12.6 6.3 6.3 0 0 1 0 12.6" fill="#c2e1ff84"/><path d="M-15.9-171.6a6.3 6.3 0 1 1 0-12.6 6.3 6.3 0 0 1 0 12.6" fill="#005bbb85"/><path d="M160.5-47a6.4 6.4 0 1 1 0-12.7 6.4 6.4 0 0 1 0 12.7" fill="#005bbb86"/><path d="M30.3-50.3a6.4 6.4 0 1 1 0-12.7 6.4 6.4 0 0 1 0 12.7" fill="#fff50087"/><path d="M144.8-34.9a6.4 6.4 0 1 1 0-12.8 6.4 6.4 0 0 1 0 12.8" fill="#005bbb87"/><path d="M177.6-262.8a6.4 6.4 0 1 1 0-12.8 6.4 6.4 0 0 1 0 12.8" fill="#005bbb88"/><path d="M9.2-261.8a6.5 6.5 0 1 1 0-12.9 6.5 6.5 0 0 1 0 12.9" fill="#fff89"/><path d="M2.9-44.3a6.6 6.6 0 1 1 0-13.1 6.6 6.6 0 0 1 0 13.1" fill="#005bbb8B"/><path d="M131.8-9.6a6.6 6.6 0 1 1 0-13.1 6.6 6.6 0 0 1 0 13.1" fill="#005bbb8B"/><path d="M-47.3-119.8a6.6 6.6 0 1 1 0-13.2 6.6 6.6 0 0 1 0 13.2" fill="#fff8C"/><path d="M37.3-13.5a6.6 6.6 0 1 1 0-13.3 6.6 6.6 0 0 1 0 13.3" fill="#fff8D"/><path d="M16.1-20a6.7 6.7 0 1 1 0-13.4 6.7 6.7 0 0 1 0 13.4" fill="#fff5008E"/><path d="M-58.9-133.5a6.7 6.7 0 1 1 0-13.4 6.7 6.7 0 0 1 0 13.4" fill="#005bbb8E"/><path d="M258.4-110.6a6.7 6.7 0 1 1 0-13.5 6.7 6.7 0 0 1 0 13.5" fill="#005bbb8F"/><path d="M-8-28.6a6.8 6.8 0 1 1 0-13.5 6.8 6.8 0 0 1 0 13.5" fill="#fff5008F"/><path d="M183.5-11.1a6.8 6.8 0 1 1 0-13.5 6.8 6.8 0 0 1 0 13.5" fill="#c2e1ff90"/><path d="M117.5-322.8a6.8 6.8 0 1 1 0-13.5 6.8 6.8 0 0 1 0 13.5" fill="#fff90"/><path d="M230.9-273.4a6.9 6.9 0 1 1 0-13.8 6.9 6.9 0 0 1 0 13.8" fill="#005bbb92"/><path d="M-79.9-145.5a6.9 6.9 0 1 1 0-13.9 6.9 6.9 0 0 1 0 13.9" fill="#fff50093"/><path d="M130.9 27.4a7 7 0 1 1 0-14 7 7 0 0 1 0 14" fill="#c2e1ff95"/><path d="M137.8-339.2a7.1 7.1 0 1 1 0-14.1 7.1 7.1 0 0 1 0 14.1" fill="#c2e1ff96"/><path d="M-73.1-78.5a7.1 7.1 0 1 1 0-14.2 7.1 7.1 0 0 1 0 14.2" fill="#fff97"/><path d="M-11.9-309.8a7.1 7.1 0 1 1 0-14.2 7.1 7.1 0 0 1 0 14.2" fill="#c2e1ff97"/><path d="M260.3-265.2a7.2 7.2 0 1 1 0-14.4 7.2 7.2 0 0 1 0 14.4" fill="#fff50099"/><path d="M-23.3-4.2a7.2 7.2 0 1 1 0-14.4 7.2 7.2 0 0 1 0 14.4" fill="#fff99"/><path d="M-53.7-34.6a7.2 7.2 0 1 1 0-14.4 7.2 7.2 0 0 1 0 14.4" fill="#fff99"/><path d="M122-350.3a7.2 7.2 0 1 1 0-14.5 7.2 7.2 0 0 1 0 14.5" fill="#c2e1ff99"/><path d="M20.4 24.2a7.2 7.2 0 1 1 0-14.5 7.2 7.2 0 0 1 0 14.5" fill="#fff50099"/><path d="M240.2-17.7a7.2 7.2 0 1 1 0-14.4 7.2 7.2 0 0 1 0 14.4" fill="#fff50099"/><path d="M-6.2 14.4a7.3 7.3 0 1 1 0-14.6 7.3 7.3 0 0 1 0 14.6" fill="#fff9B"/><path d="M-46.7-18.9a7.3 7.3 0 1 1 0-14.6 7.3 7.3 0 0 1 0 14.6" fill="#c2e1ff9B"/><path d="M300-169.8a7.3 7.3 0 1 1 0-14.6 7.3 7.3 0 0 1 0 14.6" fill="#005bbb9B"/><path d="M238.6-302.2a7.3 7.3 0 1 1 0-14.6 7.3 7.3 0 0 1 0 14.6" fill="#c2e1ff9C"/><path d="M53.8 43.5a7.4 7.4 0 1 1 0-14.7 7.4 7.4 0 0 1 0 14.7" fill="#c2e1ff9D"/><path d="M253.7-289.8a7.4 7.4 0 1 1 0-14.7 7.4 7.4 0 0 1 0 14.7" fill="#fff5009D"/><path d="M-34.9-1.5a7.4 7.4 0 1 1 0-14.8 7.4 7.4 0 0 1 0 14.8" fill="#fff9D"/><path d="M56.5-355.6a7.4 7.4 0 1 1 0-14.8 7.4 7.4 0 0 1 0 14.8" fill="#fff9D"/><path d="M-65.1-33.2a7.4 7.4 0 1 1 0-14.8 7.4 7.4 0 0 1 0 14.8" fill="#fff5009D"/><path d="M238 0.3a7.5 7.5 0 1 1 0-14.9 7.5 7.5 0 0 1 0 14.9" fill="#fff9F"/><path d="M244.5-304.7a7.5 7.5 0 1 1 0-14.9 7.5 7.5 0 0 1 0 14.9" fill="#fff5009F"/><path d="M-74.9-42a7.5 7.5 0 1 1 0-15 7.5 7.5 0 0 1 0 15" fill="#fff9F"/><path d="M-85.2-252.9a7.5 7.5 0 1 1 0-15 7.5 7.5 0 0 1 0 15" fill="#c2e1ff9F"/><path d="M296.4-78.8a7.5 7.5 0 1 1 0-15.1 7.5 7.5 0 0 1 0 15.1" fill="#fff500A0"/><path d="M-82.2-48.4a7.5 7.5 0 1 1 0-15.1 7.5 7.5 0 0 1 0 15.1" fill="#c2e1ffA0"/><path d="M-3.1-339.2a7.5 7.5 0 1 1 0-15.1 7.5 7.5 0 0 1 0 15.1" fill="#005bbbA0"/><path d="M-102.4-218.5a7.6 7.6 0 1 1 0-15.1 7.6 7.6 0 0 1 0 15.1" fill="#fffA1"/><path d="M131.4-367.6a7.6 7.6 0 1 1 0-15.3 7.6 7.6 0 0 1 0 15.3" fill="#005bbbA3"/><path d="M0.9 36.9a7.7 7.7 0 1 1 0-15.3 7.7 7.7 0 0 1 0 15.3" fill="#fffA3"/><path d="M-114.9-134.6a7.7 7.7 0 1 1 0-15.4 7.7 7.7 0 0 1 0 15.4" fill="#005bbbA3"/><path d="M-84.2-40.6a7.7 7.7 0 1 1 0-15.3 7.7 7.7 0 0 1 0 15.3" fill="#005bbbA4"/><path d="M-52.1-310.3a7.7 7.7 0 1 1 0-15.4 7.7 7.7 0 0 1 0 15.4" fill="#fff500A4"/><path d="M313.4-206a7.8 7.8 0 1 1 0-15.6 7.8 7.8 0 0 1 0 15.6" fill="#005bbbA5"/><path d="M312.5-211.3a7.8 7.8 0 1 1 0-15.5 7.8 7.8 0 0 1 0 15.5" fill="#fff500A6"/><path d="M46.5-368.4a7.8 7.8 0 1 1 0-15.6 7.8 7.8 0 0 1 0 15.6" fill="#c2e1ffA6"/><path d="M-0.5-353.2a7.9 7.9 0 1 1 0-15.8 7.9 7.9 0 0 1 0 15.8" fill="#fffA8"/><path d="M152.6-373.1a7.9 7.9 0 1 1 0-15.9 7.9 7.9 0 0 1 0 15.9" fill="#fff500A9"/><path d="M111.5-379.5a8 8 0 1 1 0-16 8 8 0 0 1 0 16" fill="#005bbbAA"/><path d="M285.8-282.5a8 8 0 1 1 0-16 8 8 0 0 1 0 16" fill="#fffAA"/><path d="M-95.1-270.7a8 8 0 1 1 0-16.1 8 8 0 0 1 0 16.1" fill="#fffAC"/><path d="M-126.7-136.9a8.1 8.1 0 1 1 0-16.1 8.1 8.1 0 0 1 0 16.1" fill="#fff500AC"/><path d="M321.3-212a8.1 8.1 0 1 1 0-16.2 8.1 8.1 0 0 1 0 16.2" fill="#fffAD"/><path d="M137.2-380.6a8.2 8.2 0 1 1 0-16.3 8.2 8.2 0 0 1 0 16.3" fill="#c2e1ffAE"/><path d="M-33.3-341.1a8.2 8.2 0 1 1 0-16.3 8.2 8.2 0 0 1 0 16.3" fill="#fff500AE"/><path d="M315-73.9a8.2 8.2 0 1 1 0-16.3 8.2 8.2 0 0 1 0 16.3" fill="#fff500AE"/><path d="M327.9-118.4a8.2 8.2 0 1 1 0-16.5 8.2 8.2 0 0 1 0 16.5" fill="#fffAF"/><path d="M-102.5-42.2a8.3 8.3 0 1 1 0-16.6 8.3 8.3 0 0 1 0 16.6" fill="#fffB0"/><path d="M-65-317.1a8.3 8.3 0 1 1 0-16.6 8.3 8.3 0 0 1 0 16.6" fill="#c2e1ffB1"/><path d="M316.6-237.5a8.3 8.3 0 1 1 0-16.6 8.3 8.3 0 0 1 0 16.6" fill="#c2e1ffB1"/><path d="M-90.1-20.5a8.3 8.3 0 1 1 0-16.6 8.3 8.3 0 0 1 0 16.6" fill="#fffB2"/><path d="M310.6-54.6a8.4 8.4 0 1 1 0-16.7 8.4 8.4 0 0 1 0 16.7" fill="#fffB3"/><path d="M103.8-387.3a8.4 8.4 0 1 1 0-16.8 8.4 8.4 0 0 1 0 16.8" fill="#fff500B3"/><path d="M-127.6-206.9a8.4 8.4 0 1 1 0-16.8 8.4 8.4 0 0 1 0 16.8" fill="#c2e1ffB4"/><path d="M-3.8 55.3a8.4 8.4 0 1 1 0-16.9 8.4 8.4 0 0 1 0 16.9" fill="#005bbbB4"/><path d="M326.2-215.9a8.5 8.5 0 1 1 0-17 8.5 8.5 0 0 1 0 17" fill="#fffB6"/><path d="M224.1-353.3a8.5 8.5 0 1 1 0-17.1 8.5 8.5 0 0 1 0 17.1" fill="#c2e1ffB6"/><path d="M-85.5-9.9a8.5 8.5 0 1 1 0-17.1 8.5 8.5 0 0 1 0 17.1" fill="#fff500B6"/><path d="M154 74.7a8.6 8.6 0 1 1 0-17.1 8.6 8.6 0 0 1 0 17.1" fill="#fffB7"/><path d="M293.4-19.9a8.6 8.6 0 1 1 0-17.2 8.6 8.6 0 0 1 0 17.2" fill="#005bbbB8"/><path d="M-85.2-8.2a8.6 8.6 0 1 1 0-17.3 8.6 8.6 0 0 1 0 17.3" fill="#fff500B9"/><path d="M190.9-371.3a8.7 8.7 0 1 1 0-17.3 8.7 8.7 0 0 1 0 17.3" fill="#005bbbB9"/><path d="M226.4 45.5a8.7 8.7 0 1 1 0-17.5 8.7 8.7 0 0 1 0 17.5" fill="#005bbbBA"/><path d="M209.3 55.5a8.7 8.7 0 1 1 0-17.5 8.7 8.7 0 0 1 0 17.5" fill="#c2e1ffBB"/><path d="M-21.3-356.3a8.8 8.8 0 1 1 0-17.6 8.8 8.8 0 0 1 0 17.6" fill="#fffBB"/><path d="M247.5-338.2a8.8 8.8 0 1 1 0-17.6 8.8 8.8 0 0 1 0 17.6" fill="#fffBD"/><path d="M66 80.1a8.8 8.8 0 1 1 0-17.7 8.8 8.8 0 0 1 0 17.7" fill="#c2e1ffBD"/><path d="M101.1 82.6a8.9 8.9 0 1 1 0-17.7 8.9 8.9 0 0 1 0 17.7" fill="#fff500BE"/><path d="M274.2 5.9a8.9 8.9 0 1 1 0-17.7 8.9 8.9 0 0 1 0 17.7" fill="#c2e1ffBE"/><path d="M-94.8-20a8.9 8.9 0 1 1 0-17.8 8.9 8.9 0 0 1 0 17.8" fill="#005bbbBE"/><path d="M307.4-40.6a8.9 8.9 0 1 1 0-17.9 8.9 8.9 0 0 1 0 17.9" fill="#005bbbBF"/><path d="M334.8-177.3a9 9 0 1 1 0-18 9 9 0 0 1 0 18" fill="#fff500C0"/><path d="M190.7-371.3a9 9 0 1 1 0-18 9 9 0 0 1 0 18" fill="#c2e1ffC1"/><path d="M276.7 2.6a9.1 9.1 0 1 1 0-18.1 9.1 9.1 0 0 1 0 18.1" fill="#fffC2"/><path d="M282.3-4.2a9.1 9.1 0 1 1 0-18.2 9.1 9.1 0 0 1 0 18.2" fill="#005bbbC2"/><path d="M149.9-383.6a9.1 9.1 0 1 1 0-18.2 9.1 9.1 0 0 1 0 18.2" fill="#fffC3"/><path d="M334.3-176.7a9.1 9.1 0 1 1 0-18.2 9.1 9.1 0 0 1 0 18.2" fill="#005bbbC3"/><path d="M12.7-371.9a9.1 9.1 0 1 1 0-18.3 9.1 9.1 0 0 1 0 18.3" fill="#c2e1ffC3"/><path d="M-133.9-173.1a9.2 9.2 0 1 1 0-18.3 9.2 9.2 0 0 1 0 18.3" fill="#005bbbC5"/><path d="M318.8-236.2a9.3 9.3 0 1 1 0-18.6 9.3 9.3 0 0 1 0 18.6" fill="#fffC6"/><path d="M-133.2-171.4a9.3 9.3 0 1 1 0-18.5 9.3 9.3 0 0 1 0 18.5" fill="#005bbbC7"/><path d="M61.2 77.3a9.3 9.3 0 1 1 0-18.6 9.3 9.3 0 0 1 0 18.6" fill="#fff500C7"/><path d="M230.3 38.9a9.4 9.4 0 1 1 0-18.9 9.4 9.4 0 0 1 0 18.9" fill="#fff500CA"/><path d="M184.3 60.5a9.6 9.6 0 1 1 0-19.1 9.6 9.6 0 0 1 0 19.1" fill="#c2e1ffCD"/><path d="M134.7 73.4a9.6 9.6 0 1 1 0-19.2 9.6 9.6 0 0 1 0 19.2" fill="#fffCE"/><path d="M-71.8-2a9.6 9.6 0 1 1 0-19.2 9.6 9.6 0 0 1 0 19.2" fill="#c2e1ffCE"/><path d="M115.9 75a9.6 9.6 0 1 1 0-19.3 9.6 9.6 0 0 1 0 19.3" fill="#fff500CE"/><path d="M-128.1-164a9.6 9.6 0 1 1 0-19.2 9.6 9.6 0 0 1 0 19.2" fill="#fff500CE"/><path d="M-47.3 20.4a9.7 9.7 0 1 1 0-19.4 9.7 9.7 0 0 1 0 19.4" fill="#c2e1ffCF"/><path d="M47.7-372a9.7 9.7 0 1 1 0-19.5 9.7 9.7 0 0 1 0 19.5" fill="#fffD1"/><path d="M74.3-376.2a9.8 9.8 0 1 1 0-19.5 9.8 9.8 0 0 1 0 19.5" fill="#fff500D1"/><path d="M-108.8-74.6a9.8 9.8 0 1 1 0-19.7 9.8 9.8 0 0 1 0 19.7" fill="#fff500D3"/><path d="M259.9 1.4a9.9 9.9 0 1 1 0-19.8 9.9 9.9 0 0 1 0 19.8" fill="#005bbbD4"/><path d="M297-51.8a9.9 9.9 0 1 1 0-19.8 9.9 9.9 0 0 1 0 19.8" fill="#005bbbD4"/><path d="M32.8 57.8a9.9 9.9 0 1 1 0-19.9 9.9 9.9 0 0 1 0 19.9" fill="#005bbbD5"/><path d="M171.2 56.3a9.9 9.9 0 1 1 0-19.9 9.9 9.9 0 0 1 0 19.9" fill="#c2e1ffD5"/><path d="M236.6-325.7a9.9 9.9 0 1 1 0-19.8 9.9 9.9 0 0 1 0 19.8" fill="#c2e1ffD5"/><path d="M-115.2-195.6a10 10 0 1 1 0-19.9 10 10 0 0 1 0 19.9" fill="#fff500D6"/><path d="M144.4 61.9a10 10 0 1 1 0-19.9 10 10 0 0 1 0 19.9" fill="#005bbbD6"/><path d="M-76.7-281.4a10 10 0 1 1 0-19.9 10 10 0 0 1 0 19.9" fill="#c2e1ffD6"/><path d="M244.6 11.4a10 10 0 1 1 0-20 10 10 0 0 1 0 20" fill="#005bbbD6"/><path d="M178.4-356.2a10 10 0 1 1 0-19.9 10 10 0 0 1 0 19.9" fill="#fffD6"/><path d="M-92.2-51.5a10 10 0 1 1 0-20.1 10 10 0 0 1 0 20.1" fill="#fffD7"/><path d="M83.7 63.8a10 10 0 1 1 0-20.1 10 10 0 0 1 0 20.1" fill="#fffD7"/><path d="M37 54.7a10 10 0 1 1 0-20 10 10 0 0 1 0 20" fill="#fffD7"/><path d="M134.1-365.7a10.1 10.1 0 1 1 0-20.2 10.1 10.1 0 0 1 0 20.2" fill="#005bbbD8"/><path d="M279-265.3a10.2 10.2 0 1 1 0-20.3 10.2 10.2 0 0 1 0 20.3" fill="#005bbbDA"/><path d="M291.5-62.3a10.2 10.2 0 1 1 0-20.4 10.2 10.2 0 0 1 0 20.4" fill="#fff500DA"/><path d="M107.5-362.5a10.2 10.2 0 1 1 0-20.5 10.2 10.2 0 0 1 0 20.5" fill="#fffDB"/><path d="M-21.3-324a10.2 10.2 0 1 1 0-20.5 10.2 10.2 0 0 1 0 20.5" fill="#fff500DB"/><path d="M292.7-236.2a10.2 10.2 0 1 1 0-20.4 10.2 10.2 0 0 1 0 20.4" fill="#c2e1ffDB"/><path d="M303.6-132.5a10.3 10.3 0 1 1 0-20.7 10.3 10.3 0 0 1 0 20.7" fill="#fffDE"/><path d="M42.8 37a10.5 10.5 0 1 1 0-21 10.5 10.5 0 0 1 0 21" fill="#fffE1"/><path d="M-95.8-164.5a10.5 10.5 0 1 1 0-21 10.5 10.5 0 0 1 0 21" fill="#fff500E2"/><path d="M-9.8-312.4a10.5 10.5 0 1 1 0-21.1 10.5 10.5 0 0 1 0 21.1" fill="#fff500E2"/><path d="M173.1 27.7a10.5 10.5 0 1 1 0-21.1 10.5 10.5 0 0 1 0 21.1" fill="#fff500E3"/><path d="M-93.3-152.2a10.6 10.6 0 1 1 0-21.1 10.6 10.6 0 0 1 0 21.1" fill="#005bbbE3"/><path d="M116.5 40.2a10.6 10.6 0 1 1 0-21.1 10.6 10.6 0 0 1 0 21.1" fill="#c2e1ffE3"/><path d="M128.6 35.6a10.6 10.6 0 1 1 0-21.2 10.6 10.6 0 0 1 0 21.2" fill="#fffE4"/><path d="M256.8-258a10.6 10.6 0 1 1 0-21.3 10.6 10.6 0 0 1 0 21.3" fill="#c2e1ffE4"/><path d="M-86.8-129.7a10.6 10.6 0 1 1 0-21.3 10.6 10.6 0 0 1 0 21.3" fill="#fff500E5"/><path d="M279.1-207.1a10.7 10.7 0 1 1 0-21.4 10.7 10.7 0 0 1 0 21.4" fill="#fffE5"/><path d="M197.1-308.3a10.7 10.7 0 1 1 0-21.4 10.7 10.7 0 0 1 0 21.4" fill="#fffE6"/><path d="M1.4 0.9a10.7 10.7 0 1 1 0-21.5 10.7 10.7 0 0 1 0 21.5" fill="#fff500E7"/><path d="M72.5 26a10.8 10.8 0 1 1 0-21.6 10.8 10.8 0 0 1 0 21.6" fill="#005bbbE8"/><path d="M82.6 24.7a10.8 10.8 0 1 1 0-21.6 10.8 10.8 0 0 1 0 21.6" fill="#c2e1ffE8"/><path d="M273.2-145.9a10.9 10.9 0 1 1 0-21.8 10.9 10.9 0 0 1 0 21.8" fill="#fffEA"/><path d="M268.2-110.7a10.9 10.9 0 1 1 0-21.7 10.9 10.9 0 0 1 0 21.7" fill="#c2e1ffEA"/><path d="M260.3-101.7a10.9 10.9 0 1 1 0-21.9 10.9 10.9 0 0 1 0 21.9" fill="#c2e1ffEB"/><path d="M254-85.2a10.9 10.9 0 1 1 0-21.9 10.9 10.9 0 0 1 0 21.9" fill="#fff500EB"/><path d="M-58.1-98.3a11 11 0 1 1 0-21.9 11 11 0 0 1 0 21.9" fill="#005bbbEC"/><path d="M-16.3-32a11 11 0 1 1 0-21.9 11 11 0 0 1 0 21.9" fill="#fffEC"/><path d="M-61.8-144a11 11 0 1 1 0-22 11 11 0 0 1 0 22" fill="#fffED"/><path d="M239.9-231.6a11 11 0 1 1 0-22 11 11 0 0 1 0 22" fill="#c2e1ffED"/><path d="M247.9-90.8a11 11 0 1 1 0-22.1 11 11 0 0 1 0 22.1" fill="#005bbbED"/><path d="M96.3 3.7a11.1 11.1 0 1 1 0-22.1 11.1 11.1 0 0 1 0 22.1" fill="#fffEF"/><path d="M16.3-275.8a11.1 11.1 0 1 1 0-22.2 11.1 11.1 0 0 1 0 22.2" fill="#fffF0"/><path d="M199.1-263.4a11.1 11.1 0 1 1 0-22.3 11.1 11.1 0 0 1 0 22.3" fill="#fffF0"/><path d="M-13.1-54.5a11.2 11.2 0 1 1 0-22.3 11.2 11.2 0 0 1 0 22.3" fill="#fff500F0"/><path d="M-5.4-50.2a11.2 11.2 0 1 1 0-22.4 11.2 11.2 0 0 1 0 22.4" fill="#c2e1ffF1"/><path d="M152.4-20.1a11.2 11.2 0 1 1 0-22.4 11.2 11.2 0 0 1 0 22.4" fill="#c2e1ffF2"/><path d="M166.9-31.3a11.3 11.3 0 1 1 0-22.5 11.3 11.3 0 0 1 0 22.5" fill="#005bbbF2"/><path d="M225.6-108.5a11.3 11.3 0 1 1 0-22.6 11.3 11.3 0 0 1 0 22.6" fill="#fff500F3"/><path d="M-29.8-132.2a11.3 11.3 0 1 1 0-22.6 11.3 11.3 0 0 1 0 22.6" fill="#fffF4"/><path d="M119.4-278.2a11.3 11.3 0 1 1 0-22.7 11.3 11.3 0 0 1 0 22.7" fill="#c2e1ffF4"/><path d="M-26.2-154.4a11.4 11.4 0 1 1 0-22.7 11.4 11.4 0 0 1 0 22.7" fill="#005bbbF4"/><path d="M9.7-69.5a11.4 11.4 0 1 1 0-22.7 11.4 11.4 0 0 1 0 22.7" fill="#005bbbF5"/><path d="M211-104.8a11.4 11.4 0 1 1 0-22.8 11.4 11.4 0 0 1 0 22.8" fill="#c2e1ffF5"/><path d="M-6.4-189.1a11.5 11.5 0 1 1 0-22.9 11.5 11.5 0 0 1 0 22.9" fill="#c2e1ffF7"/><path d="M127.7-251a11.5 11.5 0 1 1 0-23.1 11.5 11.5 0 0 1 0 23.1" fill="#fffF8"/><path d="M65.7-235a11.6 11.6 0 1 1 0-23.2 11.6 11.6 0 0 1 0 23.2" fill="#fffFA"/><path d="M69.8-219.2a11.7 11.7 0 1 1 0-23.3 11.7 11.7 0 0 1 0 23.3" fill="#fff500FB"/><path d="M108.2-164.6a11.8 11.8 0 1 1 0-23.6 11.8 11.8 0 0 1 0 23.6" fill="#fffFE"/></g></svg>