<svg width="1200" height="675" viewBox="-500 -500 1200 675" xmlns="http://www.w3.org/2000/svg"><path d="M-500-500h1200v675h-1200z" fill="#000"/><style>.sparkles path{stroke-linecap:round; stroke-width:1}</style><g class="sparkles"><path d="M100-162.5l4 26.2" stroke="#c2e1ff32"/><path d="M100-162.5l-7.4 44.2" stroke="#fff32"/><path d="M100-162.5l40.4-43.4" stroke="#fff33"/><path d="M100-162.5l3.8 67.9" stroke="#c2e1ff34"/><path d="M100-162.5l-33.7-61.6" stroke="#fff34"/><path d="M100-162.5l-58.9 55.2" stroke="#fff35"/><path d="M100-162.5l77.7-28" stroke="#c2e1ff35"/><path d="M100-162.5l-31.3-81.7" stroke="#005bbb35"/><path d="M100-162.5l-69.3 62.3" stroke="#005bbb36"/><path d="M100-162.5l-82.3-52.2" stroke="#005bbb36"/><path d="M100-162.5l-68.6-69.7" stroke="#c2e1ff36"/><path d="M100-162.5l0.8 98.4" stroke="#c2e1ff36"/><path d="M100-162.5l39.5-92.3" stroke="#fff50036"/><path d="M100-162.5l68.5-90.1" stroke="#c2e1ff38"/><path d="M100-162.5l-106.7 44.7" stroke="#c2e1ff38"/><path d="M100-162.5l-116.2 28" stroke="#fff38"/><path d="M100-162.5l130.6 25.5" stroke="#fff5003A"/><path d="M100-162.5l99.7-97.5" stroke="#fff3B"/><path d="M100-162.5l77.1-118.6" stroke="#fff3B"/><path d="M100-162.5l-67 127.7" stroke="#fff5003C"/><path d="M100-162.5l-101.2 113.7" stroke="#005bbb3D"/><path d="M100-162.5l-127.1 86.4" stroke="#c2e1ff3E"/><path d="M100-162.5l-65.2-140.6" stroke="#c2e1ff3E"/><path d="M100-162.5l147.4-61.9" stroke="#fff5003F"/><path d="M100-162.5l-134.8-94.7" stroke="#fff50040"/><path d="M100-162.5l-157.3 56.6" stroke="#fff50040"/><path d="M100-162.5l164.7 38" stroke="#c2e1ff41"/><path d="M100-162.5l-131.9 108.7" stroke="#fff41"/><path d="M100-162.5l171.4 33.2" stroke="#005bbb42"/><path d="M100-162.5l165.2-57.1" stroke="#005bbb42"/><path d="M100-162.5l170.7-44.7" stroke="#fff42"/><path d="M100-162.5l134.5 114.3" stroke="#005bbb42"/><path d="M100-162.5l5.7 176.6" stroke="#fff42"/><path d="M100-162.5l-162.2 72.1" stroke="#fff50043"/><path d="M100-162.5l-29.6 175.2" stroke="#fff43"/><path d="M100-162.5l-124.1 128.9" stroke="#005bbb43"/><path d="M100-162.5l139.3 118.4" stroke="#fff44"/><path d="M100-162.5l182-17.9" stroke="#005bbb44"/><path d="M100-162.5l164.6-81.2" stroke="#005bbb44"/><path d="M100-162.5l173.7 65.9" stroke="#fff45"/><path d="M100-162.5l123.8-139.2" stroke="#fff45"/><path d="M100-162.5l160.2-96.5" stroke="#fff50045"/><path d="M100-162.5l-178.5 69.4" stroke="#005bbb46"/><path d="M100-162.5l176.2-79.1" stroke="#c2e1ff47"/><path d="M100-162.5l186.6 51.2" stroke="#fff50047"/><path d="M100-162.5l194.3-1.9" stroke="#005bbb47"/><path d="M100-162.5l190.7-43.9" stroke="#005bbb47"/><path d="M100-162.5l177.9 82.7" stroke="#c2e1ff48"/><path d="M100-162.5l85.7 176.6" stroke="#fff48"/><path d="M100-162.5l184.5-68.3" stroke="#fff50048"/><path d="M100-162.5l-183.8 73.9" stroke="#c2e1ff48"/><path d="M100-162.5l-133.4-147" stroke="#fff50048"/><path d="M100-162.5l150.7 129.3" stroke="#c2e1ff48"/><path d="M100-162.5l6.4-199.8" stroke="#fff49"/><path d="M100-162.5l158.3 124.4" stroke="#005bbb49"/><path d="M100-162.5l199.9 50.3" stroke="#fff4B"/><path d="M100-162.5l-199.2-53.6" stroke="#005bbb4B"/><path d="M100-162.5l108.1 176" stroke="#005bbb4B"/><path d="M100-162.5l123.4 167.3" stroke="#fff5004C"/><path d="M100-162.5l-71.4 197.4" stroke="#c2e1ff4D"/><path d="M100-162.5l-100.8 184.3" stroke="#fff4D"/><path d="M100-162.5l-206.7 44.6" stroke="#fff4D"/><path d="M100-162.5l166.9 130.2" stroke="#fff5004D"/><path d="M100-162.5l-210.5 26" stroke="#c2e1ff4D"/><path d="M100-162.5l212.6 8.4" stroke="#005bbb4E"/><path d="M100-162.5l197.8 81.3" stroke="#fff5004E"/><path d="M100-162.5l-74.5 200.7" stroke="#005bbb4E"/><path d="M100-162.5l166.7 136.4" stroke="#005bbb4F"/><path d="M100-162.5l141.1-165.4" stroke="#c2e1ff50"/><path d="M100-162.5l-49-212.6" stroke="#005bbb50"/><path d="M100-162.5l-1.5 219.3" stroke="#c2e1ff51"/><path d="M100-162.5l84.8 207.3" stroke="#c2e1ff54"/><path d="M100-162.5l-68.2 213.8" stroke="#fff54"/><path d="M100-162.5l-216.9 58.6" stroke="#fff50054"/><path d="M100-162.5l-183.4-132.7" stroke="#fff50055"/><path d="M100-162.5l64.9 219.8" stroke="#005bbb57"/><path d="M100-162.5l230 0" stroke="#fff50058"/><path d="M100-162.5l175.4-150.5" stroke="#fff50059"/><path d="M100-162.5l-224.8-54.4" stroke="#c2e1ff59"/><path d="M100-162.5l-197.3 122.7" stroke="#fff5005A"/><path d="M100-162.5l-231.7 26.5" stroke="#fff5B"/><path d="M100-162.5l13.6-232.9" stroke="#c2e1ff5C"/><path d="M100-162.5l-143.5 184.3" stroke="#c2e1ff5C"/><path d="M100-162.5l71.2-222.5" stroke="#fff5005C"/><path d="M100-162.5l-12.9 234.1" stroke="#c2e1ff5D"/><path d="M100-162.5l121.2 200.8" stroke="#c2e1ff5E"/><path d="M100-162.5l194.5-131.6" stroke="#fff5E"/><path d="M100-162.5l-92.9 216.3" stroke="#fff5005F"/><path d="M100-162.5l-227.2 61.6" stroke="#005bbb5F"/><path d="M100-162.5l-90.4 217.5" stroke="#c2e1ff60"/><path d="M100-162.5l-134.2 193.5" stroke="#005bbb60"/><path d="M100-162.5l-230.9-46.6" stroke="#fff60"/><path d="M100-162.5l-136.8-192.1" stroke="#fff60"/><path d="M100-162.5l231.2-48.4" stroke="#005bbb62"/><path d="M100-162.5l-140.5-189.9" stroke="#005bbb63"/><path d="M100-162.5l-234-32.6" stroke="#c2e1ff63"/><path d="M100-162.5l-60.2 228.4" stroke="#005bbb64"/><path d="M100-162.5l-188.8-142" stroke="#005bbb64"/><path d="M100-162.5l-215.3-97" stroke="#fff50065"/><path d="M100-162.5l-78.7-222.6" stroke="#005bbb65"/><path d="M100-162.5l235.4-17.3" stroke="#fff66"/><path d="M100-162.5l-214.7 97.1" stroke="#005bbb67"/><path d="M100-162.5l16.2 235.1" stroke="#005bbb67"/><path d="M100-162.5l218.9-86.8" stroke="#fff67"/><path d="M100-162.5l-212.4 101.4" stroke="#005bbb68"/><path d="M100-162.5l-122.5 200.8" stroke="#005bbb68"/><path d="M100-162.5l120.9-201.6" stroke="#005bbb68"/><path d="M100-162.5l-41.8-231.2" stroke="#c2e1ff69"/><path d="M100-162.5l232.9 26.2" stroke="#fff6A"/><path d="M100-162.5l-223.2 71.2" stroke="#005bbb6A"/><path d="M100-162.5l202 118.1" stroke="#005bbb6A"/><path d="M100-162.5l230.4-38.7" stroke="#005bbb6B"/><path d="M100-162.5l110.4-205.8" stroke="#fff5006B"/><path d="M100-162.5l208.1 105.7" stroke="#fff5006B"/><path d="M100-162.5l57.4-225.7" stroke="#fff6C"/><path d="M100-162.5l47.2 228" stroke="#005bbb6C"/><path d="M100-162.5l39.4-229.3" stroke="#fff5006C"/><path d="M100-162.5l225.9 55.3" stroke="#fff6C"/><path d="M100-162.5l-232.3 6.3" stroke="#005bbb6C"/><path d="M100-162.5l-191.6-131.3" stroke="#fff6D"/><path d="M100-162.5l-33.5 229" stroke="#fff5006E"/><path d="M100-162.5l-210.4-93.9" stroke="#fff5006F"/><path d="M100-162.5l-71.5 217.2" stroke="#fff50070"/><path d="M100-162.5l76.1 215.2" stroke="#c2e1ff70"/><path d="M100-162.5l210.7 86.7" stroke="#fff71"/><path d="M100-162.5l-93.7-206.3" stroke="#fff50072"/><path d="M100-162.5l224.7-27.9" stroke="#fff72"/><path d="M100-162.5l221.4-37" stroke="#c2e1ff73"/><path d="M100-162.5l-216.1 59.8" stroke="#005bbb73"/><path d="M100-162.5l-222.3 24.8" stroke="#005bbb74"/><path d="M100-162.5l-185.8-118.9" stroke="#fff50075"/><path d="M100-162.5l96.1 197.3" stroke="#c2e1ff76"/><path d="M100-162.5l175.9 124.1" stroke="#005bbb78"/><path d="M100-162.5l90-195.5" stroke="#fff50078"/><path d="M100-162.5l212 33.3" stroke="#fff78"/><path d="M100-162.5l148-153.5" stroke="#fff50079"/><path d="M100-162.5l-91.1-190.8" stroke="#c2e1ff7A"/><path d="M100-162.5l-206.8 43.6" stroke="#c2e1ff7A"/><path d="M100-162.5l-193.7 84.3" stroke="#005bbb7A"/><path d="M100-162.5l143 155.3" stroke="#c2e1ff7A"/><path d="M100-162.5l55.9 201.3" stroke="#fff5007B"/><path d="M100-162.5l198.1 59.9" stroke="#fff5007C"/><path d="M100-162.5l190-78.7" stroke="#fff5007C"/><path d="M100-162.5l-87.8-185.6" stroke="#c2e1ff7C"/><path d="M100-162.5l204.8-4.6" stroke="#005bbb7C"/><path d="M100-162.5l99 174.2" stroke="#005bbb7E"/><path d="M100-162.5l-170.5-102.4" stroke="#fff7E"/><path d="M100-162.5l-180 84.5" stroke="#c2e1ff7E"/><path d="M100-162.5l191.8 20.9" stroke="#c2e1ff80"/><path d="M100-162.5l101.1-163.2" stroke="#c2e1ff81"/><path d="M100-162.5l52.3 184.4" stroke="#fff50081"/><path d="M100-162.5l-150.8 117.4" stroke="#005bbb81"/><path d="M100-162.5l-187.6-32" stroke="#fff50081"/><path d="M100-162.5l73.2-175.1" stroke="#fff81"/><path d="M100-162.5l173.1-65.4" stroke="#005bbb83"/><path d="M100-162.5l5.6-182.4" stroke="#fff83"/><path d="M100-162.5l-19.7 180.8" stroke="#fff50083"/><path d="M100-162.5l176.7 38.1" stroke="#fff84"/><path d="M100-162.5l142.5 108.3" stroke="#005bbb84"/><path d="M100-162.5l101 147.6" stroke="#fff84"/><path d="M100-162.5l-161.3-68.7" stroke="#005bbb85"/><path d="M100-162.5l126.9 107.8" stroke="#fff50087"/><path d="M100-162.5l-165.8-7.4" stroke="#005bbb87"/><path d="M100-162.5l-121.4 111.3" stroke="#c2e1ff87"/><path d="M100-162.5l-76.4-145" stroke="#fff88"/><path d="M100-162.5l-134.2 91" stroke="#005bbb88"/><path d="M100-162.5l-129.4-93.1" stroke="#fff50088"/><path d="M100-162.5l101.2 120.4" stroke="#c2e1ff89"/><path d="M100-162.5l48.9 143.8" stroke="#fff8A"/><path d="M100-162.5l64.8 125.4" stroke="#c2e1ff8C"/><path d="M100-162.5l-66.6-121.6" stroke="#c2e1ff8C"/><path d="M100-162.5l35.4 128.4" stroke="#c2e1ff8D"/><path d="M100-162.5l-60.2-93.3" stroke="#fff50090"/><path d="M100-162.5l-69.5-46.6" stroke="#fff50092"/><path d="M100-162.5l-76.2-23.2" stroke="#fff50093"/><path d="M100-162.5l55.4-51.6" stroke="#005bbb93"/><path d="M100-162.5l-53.6-36.3" stroke="#c2e1ff94"/><path d="M100-162.5l-41.7-34.9" stroke="#fff50094"/><path d="M100-162.5l-33.4-2.4" stroke="#c2e1ff95"/><path d="M100-162.5l-16.9-1.5" stroke="#005bbb95"/><path d="M100-162.5l-3.7-13.7" stroke="#005bbb95"/></g><g class="sparcs"><path d="M104-130.4a5.9 5.9 0 1 1 0-11.8 5.9 5.9 0 0 1 0 11.8" fill="#fff5007D"/><path d="M92.6-112.3a6 6 0 1 1 0-11.9 6 6 0 0 1 0 11.9" fill="#c2e1ff7E"/><path d="M140.4-199.9a6 6 0 1 1 0-12 6 6 0 0 1 0 12" fill="#c2e1ff7F"/><path d="M103.8-88.5a6 6 0 1 1 0-12.1 6 6 0 0 1 0 12.1" fill="#c2e1ff7F"/><path d="M66.3-218.1a6 6 0 1 1 0-12.1 6 6 0 0 1 0 12.1" fill="#fff5007F"/><path d="M41.1-101.2a6.1 6.1 0 1 1 0-12.2 6.1 6.1 0 0 1 0 12.2" fill="#fff50080"/><path d="M177.7-184.5a6.1 6.1 0 1 1 0-12.1 6.1 6.1 0 0 1 0 12.1" fill="#fff81"/><path d="M68.7-238.1a6.1 6.1 0 1 1 0-12.2 6.1 6.1 0 0 1 0 12.2" fill="#005bbb81"/><path d="M30.7-94.1a6.1 6.1 0 1 1 0-12.3 6.1 6.1 0 0 1 0 12.3" fill="#005bbb82"/><path d="M17.7-208.5a6.2 6.2 0 1 1 0-12.4 6.2 6.2 0 0 1 0 12.4" fill="#fff50082"/><path d="M31.4-226.1a6.2 6.2 0 1 1 0-12.3 6.2 6.2 0 0 1 0 12.3" fill="#005bbb82"/><path d="M100.8-57.9a6.2 6.2 0 1 1 0-12.3 6.2 6.2 0 0 1 0 12.3" fill="#fff82"/><path d="M139.5-248.6a6.2 6.2 0 1 1 0-12.3 6.2 6.2 0 0 1 0 12.3" fill="#005bbb83"/><path d="M168.5-246.3a6.3 6.3 0 1 1 0-12.5 6.3 6.3 0 0 1 0 12.5" fill="#fff84"/><path d="M-6.7-111.5a6.3 6.3 0 1 1 0-12.6 6.3 6.3 0 0 1 0 12.6" fill="#fff85"/><path d="M-16.2-128.2a6.3 6.3 0 1 1 0-12.6 6.3 6.3 0 0 1 0 12.6" fill="#c2e1ff85"/><path d="M230.6-130.6a6.4 6.4 0 1 1 0-12.8 6.4 6.4 0 0 1 0 12.8" fill="#fff50088"/><path d="M199.7-253.5a6.5 6.5 0 1 1 0-12.9 6.5 6.5 0 0 1 0 12.9" fill="#fff89"/><path d="M177.1-274.6a6.5 6.5 0 1 1 0-13 6.5 6.5 0 0 1 0 13" fill="#c2e1ff89"/><path d="M33-28.3a6.5 6.5 0 1 1 0-13.1 6.5 6.5 0 0 1 0 13.1" fill="#fff8A"/><path d="M-1.2-42.2a6.6 6.6 0 1 1 0-13.2 6.6 6.6 0 0 1 0 13.2" fill="#c2e1ff8C"/><path d="M-27.1-69.5a6.6 6.6 0 1 1 0-13.2 6.6 6.6 0 0 1 0 13.2" fill="#fff5008C"/><path d="M34.8-296.5a6.6 6.6 0 1 1 0-13.3 6.6 6.6 0 0 1 0 13.3" fill="#fff5008C"/><path d="M247.4-217.7a6.7 6.7 0 1 1 0-13.4 6.7 6.7 0 0 1 0 13.4" fill="#c2e1ff8E"/><path d="M-34.8-250.5a6.7 6.7 0 1 1 0-13.5 6.7 6.7 0 0 1 0 13.5" fill="#fff8F"/><path d="M-57.3-99.1a6.8 6.8 0 1 1 0-13.6 6.8 6.8 0 0 1 0 13.6" fill="#005bbb90"/><path d="M264.7-117.7a6.8 6.8 0 1 1 0-13.6 6.8 6.8 0 0 1 0 13.6" fill="#005bbb90"/><path d="M-31.9-47a6.8 6.8 0 1 1 0-13.7 6.8 6.8 0 0 1 0 13.7" fill="#c2e1ff91"/><path d="M271.4-122.4a6.9 6.9 0 1 1 0-13.7 6.9 6.9 0 0 1 0 13.7" fill="#005bbb92"/><path d="M265.2-212.8a6.9 6.9 0 1 1 0-13.7 6.9 6.9 0 0 1 0 13.7" fill="#fff50092"/><path d="M270.7-200.3a6.9 6.9 0 1 1 0-13.8 6.9 6.9 0 0 1 0 13.8" fill="#c2e1ff92"/><path d="M234.5-41.3a6.9 6.9 0 1 1 0-13.8 6.9 6.9 0 0 1 0 13.8" fill="#005bbb92"/><path d="M105.7 21a6.9 6.9 0 1 1 0-13.8 6.9 6.9 0 0 1 0 13.8" fill="#c2e1ff92"/><path d="M-62.2-83.5a6.9 6.9 0 1 1 0-13.8 6.9 6.9 0 0 1 0 13.8" fill="#c2e1ff93"/><path d="M70.4 19.6a6.9 6.9 0 1 1 0-13.8 6.9 6.9 0 0 1 0 13.8" fill="#005bbb93"/><path d="M-24.1-26.6a6.9 6.9 0 1 1 0-13.9 6.9 6.9 0 0 1 0 13.9" fill="#fff50093"/><path d="M239.3-37.1a7 7 0 1 1 0-14 7 7 0 0 1 0 14" fill="#005bbb94"/><path d="M282-173.4a7 7 0 1 1 0-13.9 7 7 0 0 1 0 13.9" fill="#fff50094"/><path d="M264.6-236.7a7 7 0 1 1 0-14 7 7 0 0 1 0 14" fill="#c2e1ff95"/><path d="M273.7-89.5a7 7 0 1 1 0-14.1 7 7 0 0 1 0 14.1" fill="#005bbb95"/><path d="M223.8-294.7a7 7 0 1 1 0-14.1 7 7 0 0 1 0 14.1" fill="#005bbb96"/><path d="M260.2-251.9a7.1 7.1 0 1 1 0-14.1 7.1 7.1 0 0 1 0 14.1" fill="#fff96"/><path d="M-78.5-86a7.1 7.1 0 1 1 0-14.2 7.1 7.1 0 0 1 0 14.2" fill="#005bbb97"/><path d="M276.2-234.4a7.2 7.2 0 1 1 0-14.3 7.2 7.2 0 0 1 0 14.3" fill="#fff98"/><path d="M286.6-104.1a7.2 7.2 0 1 1 0-14.4 7.2 7.2 0 0 1 0 14.4" fill="#fff50098"/><path d="M294.3-157.3a7.2 7.2 0 1 1 0-14.3 7.2 7.2 0 0 1 0 14.3" fill="#fff99"/><path d="M290.7-199.2a7.2 7.2 0 1 1 0-14.5 7.2 7.2 0 0 1 0 14.5" fill="#fff50099"/><path d="M277.9-72.6a7.2 7.2 0 1 1 0-14.4 7.2 7.2 0 0 1 0 14.4" fill="#005bbb99"/><path d="M185.7 21.3a7.2 7.2 0 1 1 0-14.5 7.2 7.2 0 0 1 0 14.5" fill="#fff99"/><path d="M284.5-223.6a7.2 7.2 0 1 1 0-14.5 7.2 7.2 0 0 1 0 14.5" fill="#c2e1ff9A"/><path d="M-83.8-81.4a7.3 7.3 0 1 1 0-14.5 7.3 7.3 0 0 1 0 14.5" fill="#c2e1ff9A"/><path d="M-33.4-302.2a7.3 7.3 0 1 1 0-14.5 7.3 7.3 0 0 1 0 14.5" fill="#c2e1ff9A"/><path d="M250.7-26a7.3 7.3 0 1 1 0-14.5 7.3 7.3 0 0 1 0 14.5" fill="#fff5009A"/><path d="M106.4-355a7.3 7.3 0 1 1 0-14.6 7.3 7.3 0 0 1 0 14.6" fill="#c2e1ff9B"/><path d="M258.3-30.8a7.3 7.3 0 1 1 0-14.6 7.3 7.3 0 0 1 0 14.6" fill="#fff9B"/><path d="M299.9-104.7a7.4 7.4 0 1 1 0-14.9 7.4 7.4 0 0 1 0 14.9" fill="#fff5009E"/><path d="M-99.2-208.6a7.4 7.4 0 1 1 0-14.9 7.4 7.4 0 0 1 0 14.9" fill="#005bbb9E"/><path d="M208.1 20.9a7.4 7.4 0 1 1 0-14.8 7.4 7.4 0 0 1 0 14.8" fill="#fff5009E"/><path d="M223.4 12.2a7.5 7.5 0 1 1 0-14.9 7.5 7.5 0 0 1 0 14.9" fill="#fff5009F"/><path d="M28.6 42.4a7.5 7.5 0 1 1 0-15 7.5 7.5 0 0 1 0 15" fill="#fffA0"/><path d="M-0.8 29.4a7.5 7.5 0 1 1 0-15.1 7.5 7.5 0 0 1 0 15.1" fill="#fffA0"/><path d="M-106.7-110.3a7.5 7.5 0 1 1 0-15.1 7.5 7.5 0 0 1 0 15.1" fill="#fff500A1"/><path d="M266.9-24.8a7.5 7.5 0 1 1 0-15 7.5 7.5 0 0 1 0 15" fill="#fff500A1"/><path d="M-110.5-128.9a7.6 7.6 0 1 1 0-15.2 7.6 7.6 0 0 1 0 15.2" fill="#fffA1"/><path d="M312.6-146.5a7.6 7.6 0 1 1 0-15.2 7.6 7.6 0 0 1 0 15.2" fill="#c2e1ffA1"/><path d="M297.8-73.6a7.6 7.6 0 1 1 0-15.2 7.6 7.6 0 0 1 0 15.2" fill="#005bbbA2"/><path d="M25.5 45.8a7.6 7.6 0 1 1 0-15.2 7.6 7.6 0 0 1 0 15.2" fill="#fffA2"/><path d="M266.7-18.4a7.6 7.6 0 1 1 0-15.3 7.6 7.6 0 0 1 0 15.3" fill="#005bbbA3"/><path d="M241.1-320.2a7.7 7.7 0 1 1 0-15.4 7.7 7.7 0 0 1 0 15.4" fill="#005bbbA4"/><path d="M51-367.4a7.7 7.7 0 1 1 0-15.5 7.7 7.7 0 0 1 0 15.5" fill="#fffA5"/><path d="M98.5 64.5a7.8 7.8 0 1 1 0-15.5 7.8 7.8 0 0 1 0 15.5" fill="#fff500A5"/><path d="M184.8 52.7a7.9 7.9 0 1 1 0-15.8 7.9 7.9 0 0 1 0 15.8" fill="#005bbbA9"/><path d="M31.8 59.2a7.9 7.9 0 1 1 0-15.9 7.9 7.9 0 0 1 0 15.9" fill="#c2e1ffA9"/><path d="M-116.9-96a7.9 7.9 0 1 1 0-15.9 7.9 7.9 0 0 1 0 15.9" fill="#005bbbA9"/><path d="M-83.4-287.1a8 8 0 1 1 0-16.1 8 8 0 0 1 0 16.1" fill="#fff500AB"/><path d="M164.9 65.5a8.1 8.1 0 1 1 0-16.3 8.1 8.1 0 0 1 0 16.3" fill="#fff500AE"/><path d="M330-154.3a8.2 8.2 0 1 1 0-16.4 8.2 8.2 0 0 1 0 16.4" fill="#fffAF"/><path d="M275.4-304.8a8.2 8.2 0 1 1 0-16.5 8.2 8.2 0 0 1 0 16.5" fill="#005bbbB0"/><path d="M-124.8-208.6a8.3 8.3 0 1 1 0-16.6 8.3 8.3 0 0 1 0 16.6" fill="#fffB0"/><path d="M-97.3-31.5a8.3 8.3 0 1 1 0-16.6 8.3 8.3 0 0 1 0 16.6" fill="#c2e1ffB2"/><path d="M-131.7-127.6a8.4 8.4 0 1 1 0-16.8 8.4 8.4 0 0 1 0 16.8" fill="#fff500B3"/><path d="M113.6-387a8.4 8.4 0 1 1 0-16.8 8.4 8.4 0 0 1 0 16.8" fill="#005bbbB3"/><path d="M-43.5 30.2a8.4 8.4 0 1 1 0-16.8 8.4 8.4 0 0 1 0 16.8" fill="#fff500B4"/><path d="M171.2-376.6a8.4 8.4 0 1 1 0-16.9 8.4 8.4 0 0 1 0 16.9" fill="#fff500B4"/><path d="M87.1 80.1a8.5 8.5 0 1 1 0-17 8.5 8.5 0 0 1 0 17" fill="#fffB6"/><path d="M221.2 46.8a8.5 8.5 0 1 1 0-17 8.5 8.5 0 0 1 0 17" fill="#fffB6"/><path d="M294.5-285.5a8.5 8.5 0 1 1 0-17.1 8.5 8.5 0 0 1 0 17.1" fill="#fffB6"/><path d="M7.1 62.4a8.6 8.6 0 1 1 0-17.2 8.6 8.6 0 0 1 0 17.2" fill="#fffB8"/><path d="M-127.2-92.3a8.6 8.6 0 1 1 0-17.2 8.6 8.6 0 0 1 0 17.2" fill="#c2e1ffB8"/><path d="M9.6 63.6a8.6 8.6 0 1 1 0-17.3 8.6 8.6 0 0 1 0 17.3" fill="#005bbbB8"/><path d="M-34.2 39.6a8.6 8.6 0 1 1 0-17.2 8.6 8.6 0 0 1 0 17.2" fill="#fff500B8"/><path d="M-130.9-200.5a8.6 8.6 0 1 1 0-17.3 8.6 8.6 0 0 1 0 17.3" fill="#fff500B9"/><path d="M-36.8-345.9a8.7 8.7 0 1 1 0-17.4 8.7 8.7 0 0 1 0 17.4" fill="#005bbbBA"/><path d="M331.2-202.1a8.8 8.8 0 1 1 0-17.6 8.8 8.8 0 0 1 0 17.6" fill="#fff500BC"/><path d="M-40.5-343.5a8.8 8.8 0 1 1 0-17.7 8.8 8.8 0 0 1 0 17.7" fill="#c2e1ffBD"/><path d="M-134-186.3a8.8 8.8 0 1 1 0-17.6 8.8 8.8 0 0 1 0 17.6" fill="#fffBD"/><path d="M39.8 74.8a8.9 8.9 0 1 1 0-17.8 8.9 8.9 0 0 1 0 17.8" fill="#fff500BE"/><path d="M-88.8-295.6a8.9 8.9 0 1 1 0-17.8 8.9 8.9 0 0 1 0 17.8" fill="#005bbbBF"/><path d="M-115.3-250.6a9 9 0 1 1 0-17.9 9 9 0 0 1 0 17.9" fill="#c2e1ffC0"/><path d="M21.3-376.2a9 9 0 1 1 0-17.9 9 9 0 0 1 0 17.9" fill="#005bbbC0"/><path d="M335.4-170.9a9 9 0 1 1 0-17.9 9 9 0 0 1 0 17.9" fill="#fffC0"/><path d="M-114.7-56.3a9.1 9.1 0 1 1 0-18.2 9.1 9.1 0 0 1 0 18.2" fill="#005bbbC2"/><path d="M116.2 81.6a9.1 9.1 0 1 1 0-18.1 9.1 9.1 0 0 1 0 18.1" fill="#fff500C2"/><path d="M318.9-240.2a9.1 9.1 0 1 1 0-18.2 9.1 9.1 0 0 1 0 18.2" fill="#fff500C3"/><path d="M-112.4-52a9.1 9.1 0 1 1 0-18.2 9.1 9.1 0 0 1 0 18.2" fill="#c2e1ffC3"/><path d="M-22.5 47.4a9.1 9.1 0 1 1 0-18.3 9.1 9.1 0 0 1 0 18.3" fill="#c2e1ffC4"/><path d="M220.9-355a9.2 9.2 0 1 1 0-18.3 9.2 9.2 0 0 1 0 18.3" fill="#fffC4"/><path d="M58.2-384.5a9.2 9.2 0 1 1 0-18.4 9.2 9.2 0 0 1 0 18.4" fill="#fffC4"/><path d="M332.9-127.1a9.2 9.2 0 1 1 0-18.4 9.2 9.2 0 0 1 0 18.4" fill="#fff500C6"/><path d="M-123.2-82.1a9.2 9.2 0 1 1 0-18.5 9.2 9.2 0 0 1 0 18.5" fill="#fffC6"/><path d="M302-35.1a9.3 9.3 0 1 1 0-18.6 9.3 9.3 0 0 1 0 18.6" fill="#fff500C6"/><path d="M330.4-191.9a9.3 9.3 0 1 1 0-18.6 9.3 9.3 0 0 1 0 18.6" fill="#c2e1ffC7"/><path d="M210.4-359a9.3 9.3 0 1 1 0-18.6 9.3 9.3 0 0 1 0 18.6" fill="#fff500C7"/><path d="M308.1-47.5a9.3 9.3 0 1 1 0-18.6 9.3 9.3 0 0 1 0 18.6" fill="#fffC8"/><path d="M157.4-378.8a9.4 9.4 0 1 1 0-18.8 9.4 9.4 0 0 1 0 18.8" fill="#fffC8"/><path d="M147.2 74.9a9.4 9.4 0 1 1 0-18.7 9.4 9.4 0 0 1 0 18.7" fill="#fffC9"/><path d="M139.4-382.4a9.4 9.4 0 1 1 0-18.8 9.4 9.4 0 0 1 0 18.8" fill="#c2e1ffC9"/><path d="M325.9-97.8a9.4 9.4 0 1 1 0-18.7 9.4 9.4 0 0 1 0 18.7" fill="#fff500C9"/><path d="M-132.3-146.8a9.4 9.4 0 1 1 0-18.8 9.4 9.4 0 0 1 0 18.8" fill="#fff500C9"/><path d="M-91.6-284.4a9.4 9.4 0 1 1 0-18.8 9.4 9.4 0 0 1 0 18.8" fill="#fffC9"/><path d="M66.5 75.9a9.5 9.5 0 1 1 0-18.9 9.5 9.5 0 0 1 0 18.9" fill="#fff500CB"/><path d="M-110.4-246.9a9.5 9.5 0 1 1 0-19 9.5 9.5 0 0 1 0 19" fill="#fffCC"/><path d="M28.5 64.3a9.6 9.6 0 1 1 0-19.2 9.6 9.6 0 0 1 0 19.2" fill="#005bbbCE"/><path d="M176.1 62.4a9.6 9.6 0 1 1 0-19.3 9.6 9.6 0 0 1 0 19.3" fill="#c2e1ffCE"/><path d="M310.7-66.2a9.6 9.6 0 1 1 0-19.2 9.6 9.6 0 0 1 0 19.2" fill="#fffCF"/><path d="M6.3-359.1a9.7 9.7 0 1 1 0-19.4 9.7 9.7 0 0 1 0 19.4" fill="#fff500D0"/><path d="M324.7-180.7a9.7 9.7 0 1 1 0-19.4 9.7 9.7 0 0 1 0 19.4" fill="#c2e1ffD0"/><path d="M321.4-189.7a9.8 9.8 0 1 1 0-19.5 9.8 9.8 0 0 1 0 19.5" fill="#c2e1ffD2"/><path d="M-116.1-92.9a9.8 9.8 0 1 1 0-19.6 9.8 9.8 0 0 1 0 19.6" fill="#fffD2"/><path d="M-122.3-127.9a9.8 9.8 0 1 1 0-19.6 9.8 9.8 0 0 1 0 19.6" fill="#c2e1ffD2"/><path d="M-85.8-271.5a9.9 9.9 0 1 1 0-19.9 9.9 9.9 0 0 1 0 19.9" fill="#c2e1ffD5"/><path d="M196.1 44.8a10 10 0 1 1 0-19.9 10 10 0 0 1 0 19.9" fill="#fffD6"/><path d="M275.9-28.3a10.1 10.1 0 1 1 0-20.2 10.1 10.1 0 0 1 0 20.2" fill="#fff500D8"/><path d="M190-347.9a10.1 10.1 0 1 1 0-20.2 10.1 10.1 0 0 1 0 20.2" fill="#fff500D8"/><path d="M312-119.1a10.1 10.1 0 1 1 0-20.2 10.1 10.1 0 0 1 0 20.2" fill="#fff500D9"/><path d="M248-305.9a10.1 10.1 0 1 1 0-20.2 10.1 10.1 0 0 1 0 20.2" fill="#fffD9"/><path d="M8.9-343.1a10.2 10.2 0 1 1 0-20.4 10.2 10.2 0 0 1 0 20.4" fill="#fffDB"/><path d="M-106.8-108.7a10.2 10.2 0 1 1 0-20.4 10.2 10.2 0 0 1 0 20.4" fill="#c2e1ffDB"/><path d="M-93.7-68.1a10.2 10.2 0 1 1 0-20.3 10.2 10.2 0 0 1 0 20.3" fill="#c2e1ffDB"/><path d="M243 3a10.2 10.2 0 1 1 0-20.4 10.2 10.2 0 0 1 0 20.4" fill="#c2e1ffDB"/><path d="M155.9 49.1a10.2 10.2 0 1 1 0-20.5 10.2 10.2 0 0 1 0 20.5" fill="#c2e1ffDC"/><path d="M298.1-92.3a10.3 10.3 0 1 1 0-20.6 10.3 10.3 0 0 1 0 20.6" fill="#fffDD"/><path d="M290-230.9a10.3 10.3 0 1 1 0-20.6 10.3 10.3 0 0 1 0 20.6" fill="#fff500DD"/><path d="M12.2-337.8a10.3 10.3 0 1 1 0-20.6 10.3 10.3 0 0 1 0 20.6" fill="#005bbbDE"/><path d="M304.8-156.8a10.3 10.3 0 1 1 0-20.6 10.3 10.3 0 0 1 0 20.6" fill="#fffDE"/><path d="M199 22.1a10.4 10.4 0 1 1 0-20.9 10.4 10.4 0 0 1 0 20.9" fill="#005bbbE0"/><path d="M-70.5-254.4a10.5 10.5 0 1 1 0-20.9 10.5 10.5 0 0 1 0 20.9" fill="#005bbbE1"/><path d="M-80-67.5a10.5 10.5 0 1 1 0-20.9 10.5 10.5 0 0 1 0 20.9" fill="#fff500E1"/><path d="M291.8-131a10.6 10.6 0 1 1 0-21.2 10.6 10.6 0 0 1 0 21.2" fill="#fffE3"/><path d="M201.1-315.1a10.6 10.6 0 1 1 0-21.2 10.6 10.6 0 0 1 0 21.2" fill="#c2e1ffE3"/><path d="M152.3 32.5a10.6 10.6 0 1 1 0-21.2 10.6 10.6 0 0 1 0 21.2" fill="#c2e1ffE4"/><path d="M-50.8-34.5a10.6 10.6 0 1 1 0-21.2 10.6 10.6 0 0 1 0 21.2" fill="#c2e1ffE4"/><path d="M-87.6-183.8a10.6 10.6 0 1 1 0-21.3 10.6 10.6 0 0 1 0 21.3" fill="#005bbbE4"/><path d="M173.2-327a10.6 10.6 0 1 1 0-21.2 10.6 10.6 0 0 1 0 21.2" fill="#fffE4"/><path d="M273.1-217.2a10.7 10.7 0 1 1 0-21.4 10.7 10.7 0 0 1 0 21.4" fill="#005bbbE6"/><path d="M105.6-334.2a10.7 10.7 0 1 1 0-21.5 10.7 10.7 0 0 1 0 21.5" fill="#c2e1ffE7"/><path d="M80.3 29a10.7 10.7 0 1 1 0-21.5 10.7 10.7 0 0 1 0 21.5" fill="#c2e1ffE7"/><path d="M276.7-113.6a10.8 10.8 0 1 1 0-21.6 10.8 10.8 0 0 1 0 21.6" fill="#c2e1ffE7"/><path d="M242.5-43.4a10.8 10.8 0 1 1 0-21.6 10.8 10.8 0 0 1 0 21.6" fill="#c2e1ffE8"/><path d="M201-4.1a10.8 10.8 0 1 1 0-21.6 10.8 10.8 0 0 1 0 21.6" fill="#005bbbE8"/><path d="M-61.3-220.3a10.8 10.8 0 1 1 0-21.7 10.8 10.8 0 0 1 0 21.7" fill="#005bbbE9"/><path d="M226.9-43.7a11 11 0 1 1 0-21.9 11 11 0 0 1 0 21.9" fill="#fffEC"/><path d="M-65.8-158.9a11 11 0 1 1 0-22 11 11 0 0 1 0 22" fill="#fffEC"/><path d="M-21.4-40.2a11 11 0 1 1 0-22 11 11 0 0 1 0 22" fill="#fffEC"/><path d="M23.6-296.5a11 11 0 1 1 0-22 11 11 0 0 1 0 22" fill="#005bbbEC"/><path d="M-34.2-60.5a11 11 0 1 1 0-22 11 11 0 0 1 0 22" fill="#fff500ED"/><path d="M-29.4-244.6a11 11 0 1 1 0-22 11 11 0 0 1 0 22" fill="#c2e1ffED"/><path d="M201.2-31a11.1 11.1 0 1 1 0-22.1 11.1 11.1 0 0 1 0 22.1" fill="#fffEE"/><path d="M148.9-7.6a11.1 11.1 0 1 1 0-22.3 11.1 11.1 0 0 1 0 22.3" fill="#fff500EF"/><path d="M164.8-25.8a11.2 11.2 0 1 1 0-22.5 11.2 11.2 0 0 1 0 22.5" fill="#fffF2"/><path d="M33.4-272.9a11.3 11.3 0 1 1 0-22.5 11.3 11.3 0 0 1 0 22.5" fill="#005bbbF2"/><path d="M135.4-22.8a11.3 11.3 0 1 1 0-22.6 11.3 11.3 0 0 1 0 22.6" fill="#005bbbF3"/><path d="M39.8-244.3a11.5 11.5 0 1 1 0-22.9 11.5 11.5 0 0 1 0 22.9" fill="#005bbbF7"/><path d="M30.5-197.5a11.6 11.6 0 1 1 0-23.3 11.6 11.6 0 0 1 0 23.3" fill="#fffFA"/><path d="M23.8-174a11.6 11.6 0 1 1 0-23.3 11.6 11.6 0 0 1 0 23.3" fill="#005bbbFB"/><path d="M155.4-202.5a11.7 11.7 0 1 1 0-23.3 11.7 11.7 0 0 1 0 23.3" fill="#c2e1ffFB"/><path d="M46.4-187.1a11.7 11.7 0 1 1 0-23.4 11.7 11.7 0 0 1 0 23.4" fill="#005bbbFC"/><path d="M58.3-185.7a11.7 11.7 0 1 1 0-23.4 11.7 11.7 0 0 1 0 23.4" fill="#fffFD"/><path d="M66.6-153.1a11.8 11.8 0 1 1 0-23.6 11.8 11.8 0 0 1 0 23.6" fill="#fff500FE"/><path d="M83.1-152.2a11.8 11.8 0 1 1 0-23.6 11.8 11.8 0 0 1 0 23.6" fill="#fffFE"/><path d="M96.3-164.4a11.8 11.8 0 1 1 0-23.6 11.8 11.8 0 0 1 0 23.6" fill="#fff500FE"/></g></svg>