<svg width="1200" height="675" viewBox="-500 -500 1200 675" xmlns="http://www.w3.org/2000/svg"><path d="M-500-500h1200v675h-1200z" fill="#000"/><style>.sparkles path{stroke-linecap:round; stroke-width:1}</style><g class="sparkles"><path d="M100-162.5l-35.4-10.7" stroke="#005bbb32"/><path d="M100-162.5l-49.2 8" stroke="#fff50033"/><path d="M100-162.5l56.5 12.3" stroke="#fff33"/><path d="M100-162.5l14.8 70.3" stroke="#fff34"/><path d="M100-162.5l-28.6 74.2" stroke="#005bbb34"/><path d="M100-162.5l-13.4-89.3" stroke="#fff35"/><path d="M100-162.5l69.8-64.2" stroke="#fff50036"/><path d="M100-162.5l-54.8-82.3" stroke="#005bbb36"/><path d="M100-162.5l24.1-103.3" stroke="#005bbb37"/><path d="M100-162.5l38.1 105.1" stroke="#005bbb37"/><path d="M100-162.5l-110.2-35.1" stroke="#c2e1ff38"/><path d="M100-162.5l100.3 68.2" stroke="#c2e1ff39"/><path d="M100-162.5l-23-119.6" stroke="#c2e1ff39"/><path d="M100-162.5l-3.6 124.2" stroke="#005bbb39"/><path d="M100-162.5l37.3-120.2" stroke="#fff39"/><path d="M100-162.5l122.3-30.7" stroke="#c2e1ff39"/><path d="M100-162.5l-126.9-5.8" stroke="#c2e1ff39"/><path d="M100-162.5l92.4 94.5" stroke="#fff3A"/><path d="M100-162.5l106.1-82" stroke="#c2e1ff3A"/><path d="M100-162.5l91 107.2" stroke="#c2e1ff3B"/><path d="M100-162.5l-48.6-135.2" stroke="#c2e1ff3C"/><path d="M100-162.5l118.1 85.4" stroke="#005bbb3C"/><path d="M100-162.5l139.8-61.7" stroke="#c2e1ff3D"/><path d="M100-162.5l-67.5-139.3" stroke="#005bbb3E"/><path d="M100-162.5l146.9 57.7" stroke="#c2e1ff3E"/><path d="M100-162.5l-159 5.8" stroke="#fff5003F"/><path d="M100-162.5l144.9 76.3" stroke="#005bbb3F"/><path d="M100-162.5l-161.3 36.2" stroke="#fff40"/><path d="M100-162.5l-1.4 168" stroke="#005bbb40"/><path d="M100-162.5l19.9-169.4" stroke="#c2e1ff41"/><path d="M100-162.5l-13.9-172.5" stroke="#c2e1ff41"/><path d="M100-162.5l-126.1-119.1" stroke="#005bbb42"/><path d="M100-162.5l-106.9 137.7" stroke="#005bbb42"/><path d="M100-162.5l67.8 160.9" stroke="#fff50042"/><path d="M100-162.5l-59.6-166.8" stroke="#fff50042"/><path d="M100-162.5l133.9-119.4" stroke="#005bbb43"/><path d="M100-162.5l117.9 142.4" stroke="#c2e1ff44"/><path d="M100-162.5l185.8-6.1" stroke="#c2e1ff45"/><path d="M100-162.5l-129.4 133.7" stroke="#fff50045"/><path d="M100-162.5l187-26" stroke="#c2e1ff45"/><path d="M100-162.5l-171.1 82.5" stroke="#005bbb46"/><path d="M100-162.5l154.1 111.9" stroke="#fff46"/><path d="M100-162.5l164.1-103.2" stroke="#fff47"/><path d="M100-162.5l139.2-140.7" stroke="#fff50048"/><path d="M100-162.5l198.2 1.2" stroke="#fff48"/><path d="M100-162.5l12.8 198.2" stroke="#fff48"/><path d="M100-162.5l-201.6 17.4" stroke="#fff4A"/><path d="M100-162.5l-77.3 191.6" stroke="#fff4B"/><path d="M100-162.5l181.2 102.4" stroke="#fff5004C"/><path d="M100-162.5l-173.8-114.5" stroke="#c2e1ff4C"/><path d="M100-162.5l177.4 109.1" stroke="#c2e1ff4C"/><path d="M100-162.5l-64-198.4" stroke="#fff4C"/><path d="M100-162.5l-107.6-183.5" stroke="#fff5004E"/><path d="M100-162.5l114.1-180.1" stroke="#fff5004E"/><path d="M100-162.5l-78.1 198.5" stroke="#fff4E"/><path d="M100-162.5l-214.3-23" stroke="#fff4F"/><path d="M100-162.5l53.3 209.8" stroke="#fff5004F"/><path d="M100-162.5l-141.1-167.8" stroke="#c2e1ff51"/><path d="M100-162.5l188.9 115.4" stroke="#fff52"/><path d="M100-162.5l-214-61.7" stroke="#c2e1ff53"/><path d="M100-162.5l-198.1-104.4" stroke="#c2e1ff54"/><path d="M100-162.5l185.9-129.2" stroke="#005bbb55"/><path d="M100-162.5l-151.1-169.4" stroke="#fff50056"/><path d="M100-162.5l164.3-157.3" stroke="#005bbb56"/><path d="M100-162.5l84.9-211.2" stroke="#005bbb56"/><path d="M100-162.5l-53.5-221.5" stroke="#c2e1ff56"/><path d="M100-162.5l228.4-29.9" stroke="#c2e1ff58"/><path d="M100-162.5l197.7-118.9" stroke="#c2e1ff59"/><path d="M100-162.5l229.2-27.9" stroke="#c2e1ff59"/><path d="M100-162.5l45 227.7" stroke="#fff5005A"/><path d="M100-162.5l142.3-184.7" stroke="#fff5B"/><path d="M100-162.5l-179.8 150.3" stroke="#fff5005D"/><path d="M100-162.5l199.7 122.9" stroke="#fff5005D"/><path d="M100-162.5l-215.2 94.3" stroke="#fff5E"/><path d="M100-162.5l-200.5-123" stroke="#fff5F"/><path d="M100-162.5l-235.3 7.1" stroke="#fff5F"/><path d="M100-162.5l219.2 86.6" stroke="#fff60"/><path d="M100-162.5l235.7 10.9" stroke="#c2e1ff61"/><path d="M100-162.5l-213.4-100.6" stroke="#fff50061"/><path d="M100-162.5l-150.4-181.8" stroke="#fff61"/><path d="M100-162.5l208.6 110.5" stroke="#fff50061"/><path d="M100-162.5l139-190.9" stroke="#005bbb62"/><path d="M100-162.5l-194.3-134.2" stroke="#005bbb62"/><path d="M100-162.5l-233.5-36.2" stroke="#c2e1ff63"/><path d="M100-162.5l159 174.7" stroke="#fff50063"/><path d="M100-162.5l213.8-100.5" stroke="#005bbb64"/><path d="M100-162.5l-192.5 136.9" stroke="#c2e1ff64"/><path d="M100-162.5l194.4 134" stroke="#fff65"/><path d="M100-162.5l-214.7-98.1" stroke="#005bbb66"/><path d="M100-162.5l-135.5 193.3" stroke="#c2e1ff66"/><path d="M100-162.5l142.8 187.9" stroke="#c2e1ff66"/><path d="M100-162.5l135.2 193.1" stroke="#fff67"/><path d="M100-162.5l107.9-209.2" stroke="#fff50068"/><path d="M100-162.5l-185.5-143.9" stroke="#c2e1ff69"/><path d="M100-162.5l161.5-170" stroke="#c2e1ff6A"/><path d="M100-162.5l209.4-104.7" stroke="#fff6A"/><path d="M100-162.5l-162.2-168.8" stroke="#c2e1ff6A"/><path d="M100-162.5l177 153.1" stroke="#005bbb6A"/><path d="M100-162.5l190.7-135.1" stroke="#fff6B"/><path d="M100-162.5l227.9 51.6" stroke="#fff5006B"/><path d="M100-162.5l231.8 25.9" stroke="#fff5006B"/><path d="M100-162.5l-18.1-231" stroke="#fff5006D"/><path d="M100-162.5l-160.6-166.8" stroke="#005bbb6D"/><path d="M100-162.5l216.4-80.2" stroke="#fff6E"/><path d="M100-162.5l63.9 221.7" stroke="#fff6E"/><path d="M100-162.5l-202.3-110" stroke="#c2e1ff6F"/><path d="M100-162.5l181.4-140.8" stroke="#fff6F"/><path d="M100-162.5l-30.3 225.7" stroke="#005bbb71"/><path d="M100-162.5l121.4-191.6" stroke="#c2e1ff71"/><path d="M100-162.5l48.5 221.2" stroke="#005bbb72"/><path d="M100-162.5l184.2-131.3" stroke="#c2e1ff72"/><path d="M100-162.5l194.4-115.6" stroke="#fff72"/><path d="M100-162.5l73.1 213.3" stroke="#c2e1ff72"/><path d="M100-162.5l202.6 97.1" stroke="#c2e1ff73"/><path d="M100-162.5l96.1 202.4" stroke="#c2e1ff73"/><path d="M100-162.5l223.6 13" stroke="#005bbb73"/><path d="M100-162.5l-49 215.5" stroke="#c2e1ff75"/><path d="M100-162.5l-30.5-216.4" stroke="#fff50077"/><path d="M100-162.5l-202.1-81.7" stroke="#c2e1ff77"/><path d="M100-162.5l-15.5 217.3" stroke="#fff50077"/><path d="M100-162.5l215.3-31.9" stroke="#fff77"/><path d="M100-162.5l-188-107.7" stroke="#fff50077"/><path d="M100-162.5l-26.5 212.1" stroke="#005bbb79"/><path d="M100-162.5l-102.6-187.1" stroke="#c2e1ff79"/><path d="M100-162.5l-56.2-203.6" stroke="#fff5007A"/><path d="M100-162.5l-202.9 57.6" stroke="#c2e1ff7A"/><path d="M100-162.5l-170.1-122.3" stroke="#005bbb7B"/><path d="M100-162.5l-132-155.1" stroke="#005bbb7D"/><path d="M100-162.5l-120.3-164" stroke="#fff5007D"/><path d="M100-162.5l175.5 95.4" stroke="#fff5007E"/><path d="M100-162.5l-184.5 76.1" stroke="#c2e1ff7E"/><path d="M100-162.5l162 113" stroke="#fff7F"/><path d="M100-162.5l22 195.5" stroke="#005bbb7F"/><path d="M100-162.5l-114.8 158.8" stroke="#005bbb7F"/><path d="M100-162.5l163.5-105.4" stroke="#fff80"/><path d="M100-162.5l-193.6 2.8" stroke="#c2e1ff80"/><path d="M100-162.5l-109.6 157.7" stroke="#c2e1ff81"/><path d="M100-162.5l-31-188.4" stroke="#c2e1ff81"/><path d="M100-162.5l183.8-50.3" stroke="#fff50081"/><path d="M100-162.5l-35.9 184.4" stroke="#fff50082"/><path d="M100-162.5l-187.1-15.7" stroke="#fff50082"/><path d="M100-162.5l182.7 11.6" stroke="#fff50083"/><path d="M100-162.5l153.8-99.2" stroke="#c2e1ff83"/><path d="M100-162.5l141.9 109.9" stroke="#fff84"/><path d="M100-162.5l179.4 0" stroke="#fff84"/><path d="M100-162.5l18.4 178.1" stroke="#fff50084"/><path d="M100-162.5l-129 122.4" stroke="#fff84"/><path d="M100-162.5l-29.2-173.1" stroke="#c2e1ff85"/><path d="M100-162.5l69.4 157.5" stroke="#005bbb86"/><path d="M100-162.5l-169.5 25.7" stroke="#fff50086"/><path d="M100-162.5l87.5 145.3" stroke="#c2e1ff86"/><path d="M100-162.5l-160.9-52.9" stroke="#fff86"/><path d="M100-162.5l158.8 42.2" stroke="#005bbb87"/><path d="M100-162.5l93.7 134.4" stroke="#c2e1ff88"/><path d="M100-162.5l-149.3-18.5" stroke="#005bbb8A"/><path d="M100-162.5l-149.1-8.5" stroke="#005bbb8A"/><path d="M100-162.5l93.1-114.8" stroke="#fff5008B"/><path d="M100-162.5l-127.1-65.1" stroke="#c2e1ff8B"/><path d="M100-162.5l137.3-1.3" stroke="#fff5008C"/><path d="M100-162.5l135.6-1.2" stroke="#fff5008C"/><path d="M100-162.5l-120.1-45.4" stroke="#c2e1ff8D"/><path d="M100-162.5l-71.4 106.7" stroke="#005bbb8D"/><path d="M100-162.5l-114.5 49.8" stroke="#c2e1ff8E"/><path d="M100-162.5l105.5 66.4" stroke="#c2e1ff8E"/><path d="M100-162.5l117.9 38.8" stroke="#fff5008E"/><path d="M100-162.5l59.3 89.6" stroke="#fff90"/><path d="M100-162.5l65.2 82.7" stroke="#c2e1ff90"/><path d="M100-162.5l93.8-46.4" stroke="#005bbb90"/><path d="M100-162.5l-81.8 60" stroke="#fff91"/><path d="M100-162.5l48.2-88.6" stroke="#fff91"/><path d="M100-162.5l-95.5 9.2" stroke="#fff91"/><path d="M100-162.5l-33 84.9" stroke="#005bbb92"/><path d="M100-162.5l-46.3-77.5" stroke="#fff92"/><path d="M100-162.5l-51.8 66.4" stroke="#c2e1ff92"/><path d="M100-162.5l74.4 36.4" stroke="#fff50092"/><path d="M100-162.5l17.4-64.6" stroke="#c2e1ff93"/><path d="M100-162.5l-66.1-7.2" stroke="#fff50093"/><path d="M100-162.5l36.9 41.8" stroke="#c2e1ff94"/><path d="M100-162.5l6.2-37.8" stroke="#005bbb95"/><path d="M100-162.5l-36.4-10" stroke="#005bbb95"/><path d="M100-162.5l4.7-25" stroke="#c2e1ff95"/></g><g class="sparcs"><path d="M64.6-167.3a5.9 5.9 0 1 1 0-11.8 5.9 5.9 0 0 1 0 11.8" fill="#c2e1ff7D"/><path d="M50.8-148.5a6 6 0 1 1 0-12 6 6 0 0 1 0 12" fill="#fff5007E"/><path d="M156.5-144.2a6 6 0 1 1 0-12 6 6 0 0 1 0 12" fill="#005bbb7E"/><path d="M114.8-86.2a6 6 0 1 1 0-12.1 6 6 0 0 1 0 12.1" fill="#c2e1ff80"/><path d="M71.4-82.3a6.1 6.1 0 1 1 0-12.1 6.1 6.1 0 0 1 0 12.1" fill="#005bbb80"/><path d="M86.6-245.7a6.1 6.1 0 1 1 0-12.3 6.1 6.1 0 0 1 0 12.3" fill="#fff81"/><path d="M169.8-220.5a6.2 6.2 0 1 1 0-12.3 6.2 6.2 0 0 1 0 12.3" fill="#fff50082"/><path d="M45.2-238.6a6.2 6.2 0 1 1 0-12.3 6.2 6.2 0 0 1 0 12.3" fill="#fff50082"/><path d="M124.1-259.6a6.2 6.2 0 1 1 0-12.4 6.2 6.2 0 0 1 0 12.4" fill="#c2e1ff83"/><path d="M138.1-51.1a6.3 6.3 0 1 1 0-12.5 6.3 6.3 0 0 1 0 12.5" fill="#fff50084"/><path d="M-10.2-191.3a6.3 6.3 0 1 1 0-12.6 6.3 6.3 0 0 1 0 12.6" fill="#c2e1ff85"/><path d="M200.3-88a6.3 6.3 0 1 1 0-12.6 6.3 6.3 0 0 1 0 12.6" fill="#fff50086"/><path d="M77-275.8a6.3 6.3 0 1 1 0-12.7 6.3 6.3 0 0 1 0 12.7" fill="#c2e1ff86"/><path d="M96.4-32a6.3 6.3 0 1 1 0-12.7 6.3 6.3 0 0 1 0 12.7" fill="#005bbb86"/><path d="M137.3-276.3a6.4 6.4 0 1 1 0-12.7 6.4 6.4 0 0 1 0 12.7" fill="#005bbb86"/><path d="M222.3-186.9a6.4 6.4 0 1 1 0-12.7 6.4 6.4 0 0 1 0 12.7" fill="#fff87"/><path d="M-26.9-161.9a6.4 6.4 0 1 1 0-12.8 6.4 6.4 0 0 1 0 12.8" fill="#fff87"/><path d="M192.4-61.5a6.4 6.4 0 1 1 0-12.9 6.4 6.4 0 0 1 0 12.9" fill="#c2e1ff88"/><path d="M206.1-238.1a6.4 6.4 0 1 1 0-12.9 6.4 6.4 0 0 1 0 12.9" fill="#fff50088"/><path d="M191-48.8a6.5 6.5 0 1 1 0-13 6.5 6.5 0 0 1 0 13" fill="#005bbb89"/><path d="M51.4-291.2a6.5 6.5 0 1 1 0-13 6.5 6.5 0 0 1 0 13" fill="#005bbb8A"/><path d="M218.1-70.6a6.5 6.5 0 1 1 0-13.1 6.5 6.5 0 0 1 0 13.1" fill="#c2e1ff8A"/><path d="M239.8-217.6a6.6 6.6 0 1 1 0-13.2 6.6 6.6 0 0 1 0 13.2" fill="#c2e1ff8C"/><path d="M32.5-295.2a6.6 6.6 0 1 1 0-13.3 6.6 6.6 0 0 1 0 13.3" fill="#005bbb8C"/><path d="M246.9-98.1a6.7 6.7 0 1 1 0-13.3 6.7 6.7 0 0 1 0 13.3" fill="#005bbb8D"/><path d="M-59-150.1a6.7 6.7 0 1 1 0-13.3 6.7 6.7 0 0 1 0 13.3" fill="#c2e1ff8D"/><path d="M244.9-79.5a6.7 6.7 0 1 1 0-13.5 6.7 6.7 0 0 1 0 13.5" fill="#fff5008F"/><path d="M-61.3-119.6a6.7 6.7 0 1 1 0-13.5 6.7 6.7 0 0 1 0 13.5" fill="#fff5008F"/><path d="M98.6 12.3a6.8 6.8 0 1 1 0-13.6 6.8 6.8 0 0 1 0 13.6" fill="#c2e1ff90"/><path d="M119.9-325.1a6.8 6.8 0 1 1 0-13.6 6.8 6.8 0 0 1 0 13.6" fill="#005bbb91"/><path d="M86.1-328.1a6.8 6.8 0 1 1 0-13.7 6.8 6.8 0 0 1 0 13.7" fill="#005bbb91"/><path d="M-26.1-274.7a6.9 6.9 0 1 1 0-13.7 6.9 6.9 0 0 1 0 13.7" fill="#005bbb91"/><path d="M-6.9-17.9a6.9 6.9 0 1 1 0-13.7 6.9 6.9 0 0 1 0 13.7" fill="#fff50092"/><path d="M167.8 5.3a6.9 6.9 0 1 1 0-13.7 6.9 6.9 0 0 1 0 13.7" fill="#005bbb92"/><path d="M40.4-322.4a6.9 6.9 0 1 1 0-13.8 6.9 6.9 0 0 1 0 13.8" fill="#fff50092"/><path d="M233.9-275a6.9 6.9 0 1 1 0-13.8 6.9 6.9 0 0 1 0 13.8" fill="#005bbb93"/><path d="M217.9-13.1a7 7 0 1 1 0-14 7 7 0 0 1 0 14" fill="#005bbb95"/><path d="M285.8-161.6a7 7 0 1 1 0-14.1 7 7 0 0 1 0 14.1" fill="#fff95"/><path d="M-29.4-21.7a7 7 0 1 1 0-14.1 7 7 0 0 1 0 14.1" fill="#c2e1ff95"/><path d="M287-181.4a7.1 7.1 0 1 1 0-14.2 7.1 7.1 0 0 1 0 14.2" fill="#c2e1ff96"/><path d="M-71.1-72.9a7.1 7.1 0 1 1 0-14.2 7.1 7.1 0 0 1 0 14.2" fill="#fff97"/><path d="M254.1-43.4a7.1 7.1 0 1 1 0-14.3 7.1 7.1 0 0 1 0 14.3" fill="#fff97"/><path d="M264.1-258.5a7.2 7.2 0 1 1 0-14.3 7.2 7.2 0 0 1 0 14.3" fill="#c2e1ff98"/><path d="M239.2-295.9a7.2 7.2 0 1 1 0-14.5 7.2 7.2 0 0 1 0 14.5" fill="#fff5009A"/><path d="M298.2-154a7.3 7.3 0 1 1 0-14.5 7.3 7.3 0 0 1 0 14.5" fill="#005bbb9A"/><path d="M112.8 42.9a7.3 7.3 0 1 1 0-14.5 7.3 7.3 0 0 1 0 14.5" fill="#fff5009A"/><path d="M-101.6-137.7a7.3 7.3 0 1 1 0-14.7 7.3 7.3 0 0 1 0 14.7" fill="#005bbb9C"/><path d="M22.7 36.6a7.4 7.4 0 1 1 0-14.9 7.4 7.4 0 0 1 0 14.9" fill="#fff5009E"/><path d="M281.2-52.7a7.5 7.5 0 1 1 0-14.9 7.5 7.5 0 0 1 0 14.9" fill="#fff5009F"/><path d="M-73.8-269.6a7.5 7.5 0 1 1 0-14.9 7.5 7.5 0 0 1 0 14.9" fill="#fff9F"/><path d="M277.4-46a7.5 7.5 0 1 1 0-14.9 7.5 7.5 0 0 1 0 14.9" fill="#fff5009F"/><path d="M36-353.4a7.5 7.5 0 1 1 0-15 7.5 7.5 0 0 1 0 15" fill="#005bbb9F"/><path d="M-7.6-338.4a7.6 7.6 0 1 1 0-15.2 7.6 7.6 0 0 1 0 15.2" fill="#005bbbA1"/><path d="M214.1-335a7.6 7.6 0 1 1 0-15.2 7.6 7.6 0 0 1 0 15.2" fill="#fffA1"/><path d="M21.9 43.6a7.6 7.6 0 1 1 0-15.2 7.6 7.6 0 0 1 0 15.2" fill="#fff500A2"/><path d="M-114.3-177.8a7.6 7.6 0 1 1 0-15.3 7.6 7.6 0 0 1 0 15.3" fill="#fff500A3"/><path d="M153.3 55a7.7 7.7 0 1 1 0-15.4 7.7 7.7 0 0 1 0 15.4" fill="#c2e1ffA3"/><path d="M-41.1-322.5a7.8 7.8 0 1 1 0-15.5 7.8 7.8 0 0 1 0 15.5" fill="#c2e1ffA5"/><path d="M288.9-39.2a7.8 7.8 0 1 1 0-15.7 7.8 7.8 0 0 1 0 15.7" fill="#c2e1ffA7"/><path d="M-114-216.3a7.9 7.9 0 1 1 0-15.7 7.9 7.9 0 0 1 0 15.7" fill="#fffA8"/><path d="M-98.1-259a7.9 7.9 0 1 1 0-15.8 7.9 7.9 0 0 1 0 15.8" fill="#005bbbA9"/><path d="M285.9-283.7a8 8 0 1 1 0-16 8 8 0 0 1 0 16" fill="#fffAB"/><path d="M-51.1-323.8a8 8 0 1 1 0-16.1 8 8 0 0 1 0 16.1" fill="#005bbbAB"/><path d="M264.3-311.7a8.1 8.1 0 1 1 0-16.2 8.1 8.1 0 0 1 0 16.2" fill="#005bbbAC"/><path d="M184.9-365.6a8.1 8.1 0 1 1 0-16.2 8.1 8.1 0 0 1 0 16.2" fill="#fff500AC"/><path d="M46.5-375.9a8.1 8.1 0 1 1 0-16.2 8.1 8.1 0 0 1 0 16.2" fill="#005bbbAC"/><path d="M328.4-184.2a8.2 8.2 0 1 1 0-16.4 8.2 8.2 0 0 1 0 16.4" fill="#fff500AF"/><path d="M297.7-273.2a8.2 8.2 0 1 1 0-16.5 8.2 8.2 0 0 1 0 16.5" fill="#005bbbAF"/><path d="M329.2-182.2a8.2 8.2 0 1 1 0-16.5 8.2 8.2 0 0 1 0 16.5" fill="#c2e1ffB0"/><path d="M145 73.5a8.3 8.3 0 1 1 0-16.6 8.3 8.3 0 0 1 0 16.6" fill="#fffB1"/><path d="M242.3-338.8a8.4 8.4 0 1 1 0-16.8 8.4 8.4 0 0 1 0 16.8" fill="#c2e1ffB3"/><path d="M-79.8-3.7a8.5 8.5 0 1 1 0-17 8.5 8.5 0 0 1 0 17" fill="#005bbbB5"/><path d="M299.7-31.1a8.5 8.5 0 1 1 0-17 8.5 8.5 0 0 1 0 17" fill="#c2e1ffB6"/><path d="M-115.2-59.7a8.6 8.6 0 1 1 0-17.1 8.6 8.6 0 0 1 0 17.1" fill="#005bbbB7"/><path d="M-100.5-277a8.6 8.6 0 1 1 0-17.1 8.6 8.6 0 0 1 0 17.1" fill="#c2e1ffB7"/><path d="M-135.3-146.8a8.6 8.6 0 1 1 0-17.2 8.6 8.6 0 0 1 0 17.2" fill="#fffB8"/><path d="M319.2-67.2a8.7 8.7 0 1 1 0-17.3 8.7 8.7 0 0 1 0 17.3" fill="#c2e1ffB9"/><path d="M335.7-142.9a8.7 8.7 0 1 1 0-17.4 8.7 8.7 0 0 1 0 17.4" fill="#fffBA"/><path d="M-113.4-254.4a8.7 8.7 0 1 1 0-17.4 8.7 8.7 0 0 1 0 17.4" fill="#005bbbBA"/><path d="M-50.4-335.6a8.7 8.7 0 1 1 0-17.4 8.7 8.7 0 0 1 0 17.4" fill="#fff500BA"/><path d="M308.6-43.2a8.7 8.7 0 1 1 0-17.5 8.7 8.7 0 0 1 0 17.5" fill="#fff500BB"/><path d="M239-344.6a8.8 8.8 0 1 1 0-17.5 8.8 8.8 0 0 1 0 17.5" fill="#fff500BB"/><path d="M-94.3-287.9a8.8 8.8 0 1 1 0-17.6 8.8 8.8 0 0 1 0 17.6" fill="#c2e1ffBC"/><path d="M-133.5-189.9a8.8 8.8 0 1 1 0-17.6 8.8 8.8 0 0 1 0 17.6" fill="#fff500BD"/><path d="M259 21.1a8.8 8.8 0 1 1 0-17.7 8.8 8.8 0 0 1 0 17.7" fill="#fff500BD"/><path d="M313.8-254.1a8.9 8.9 0 1 1 0-17.8 8.9 8.9 0 0 1 0 17.8" fill="#c2e1ffBE"/><path d="M-92.5-16.7a8.9 8.9 0 1 1 0-17.8 8.9 8.9 0 0 1 0 17.8" fill="#c2e1ffBE"/><path d="M294.4-19.6a9 9 0 1 1 0-17.9 9 9 0 0 1 0 17.9" fill="#c2e1ffC0"/><path d="M-114.7-251.7a9 9 0 1 1 0-17.9 9 9 0 0 1 0 17.9" fill="#fffC0"/><path d="M-35.5 39.8a9 9 0 1 1 0-18 9 9 0 0 1 0 18" fill="#c2e1ffC0"/><path d="M242.8 34.4a9 9 0 1 1 0-18 9 9 0 0 1 0 18" fill="#c2e1ffC1"/><path d="M235.2 39.7a9.1 9.1 0 1 1 0-18.2 9.1 9.1 0 0 1 0 18.2" fill="#fff500C2"/><path d="M207.9-362.5a9.1 9.1 0 1 1 0-18.3 9.1 9.1 0 0 1 0 18.3" fill="#005bbbC3"/><path d="M-85.5-297.2a9.2 9.2 0 1 1 0-18.4 9.2 9.2 0 0 1 0 18.4" fill="#c2e1ffC5"/><path d="M261.5-323.3a9.2 9.2 0 1 1 0-18.4 9.2 9.2 0 0 1 0 18.4" fill="#fff500C5"/><path d="M309.4-257.9a9.3 9.3 0 1 1 0-18.5 9.3 9.3 0 0 1 0 18.5" fill="#fff500C6"/><path d="M-62.2-322a9.3 9.3 0 1 1 0-18.5 9.3 9.3 0 0 1 0 18.5" fill="#fff500C6"/><path d="M277-0.1a9.3 9.3 0 1 1 0-18.5 9.3 9.3 0 0 1 0 18.5" fill="#fffC6"/><path d="M290.7-288.3a9.3 9.3 0 1 1 0-18.6 9.3 9.3 0 0 1 0 18.6" fill="#c2e1ffC7"/><path d="M327.9-101.6a9.3 9.3 0 1 1 0-18.6 9.3 9.3 0 0 1 0 18.6" fill="#fff500C7"/><path d="M331.8-127.3a9.3 9.3 0 1 1 0-18.7 9.3 9.3 0 0 1 0 18.7" fill="#fff500C8"/><path d="M81.9-384a9.4 9.4 0 1 1 0-18.9 9.4 9.4 0 0 1 0 18.9" fill="#fff500CA"/><path d="M-60.6-319.9a9.4 9.4 0 1 1 0-18.8 9.4 9.4 0 0 1 0 18.8" fill="#c2e1ffCA"/><path d="M316.4-233.2a9.5 9.5 0 1 1 0-19 9.5 9.5 0 0 1 0 19" fill="#005bbbCB"/><path d="M163.9 68.7a9.5 9.5 0 1 1 0-19 9.5 9.5 0 0 1 0 19" fill="#005bbbCB"/><path d="M-102.3-262.9a9.5 9.5 0 1 1 0-19.1 9.5 9.5 0 0 1 0 19.1" fill="#fffCC"/><path d="M281.4-293.7a9.6 9.6 0 1 1 0-19.1 9.6 9.6 0 0 1 0 19.1" fill="#fff500CD"/><path d="M69.7 72.8a9.6 9.6 0 1 1 0-19.3 9.6 9.6 0 0 1 0 19.3" fill="#c2e1ffCF"/><path d="M221.4-344.4a9.7 9.7 0 1 1 0-19.4 9.7 9.7 0 0 1 0 19.4" fill="#005bbbD0"/><path d="M148.5 68.4a9.7 9.7 0 1 1 0-19.4 9.7 9.7 0 0 1 0 19.4" fill="#005bbbD0"/><path d="M284.2-284.1a9.7 9.7 0 1 1 0-19.4 9.7 9.7 0 0 1 0 19.4" fill="#fff500D0"/><path d="M294.4-268.3a9.7 9.7 0 1 1 0-19.5 9.7 9.7 0 0 1 0 19.5" fill="#fffD0"/><path d="M173.1 60.6a9.7 9.7 0 1 1 0-19.5 9.7 9.7 0 0 1 0 19.5" fill="#005bbbD1"/><path d="M302.6-55.6a9.8 9.8 0 1 1 0-19.6 9.8 9.8 0 0 1 0 19.6" fill="#005bbbD2"/><path d="M196.1 49.7a9.8 9.8 0 1 1 0-19.6 9.8 9.8 0 0 1 0 19.6" fill="#fff500D2"/><path d="M323.6-139.7a9.8 9.8 0 1 1 0-19.6 9.8 9.8 0 0 1 0 19.6" fill="#005bbbD2"/><path d="M51 62.9a9.9 9.9 0 1 1 0-19.8 9.9 9.9 0 0 1 0 19.8" fill="#005bbbD4"/><path d="M69.5-368.9a10 10 0 1 1 0-20 10 10 0 0 1 0 20" fill="#c2e1ffD6"/><path d="M-102.1-234.2a10 10 0 1 1 0-20 10 10 0 0 1 0 20" fill="#005bbbD7"/><path d="M84.5 64.8a10 10 0 1 1 0-20 10 10 0 0 1 0 20" fill="#c2e1ffD7"/><path d="M315.3-184.3a10 10 0 1 1 0-20.1 10 10 0 0 1 0 20.1" fill="#fffD7"/><path d="M-88-260.2a10 10 0 1 1 0-20.1 10 10 0 0 1 0 20.1" fill="#fffD7"/><path d="M73.5 59.7a10.1 10.1 0 1 1 0-20.2 10.1 10.1 0 0 1 0 20.2" fill="#005bbbD9"/><path d="M-2.6-339.5a10.1 10.1 0 1 1 0-20.3 10.1 10.1 0 0 1 0 20.3" fill="#c2e1ffD9"/><path d="M43.8-355.9a10.2 10.2 0 1 1 0-20.4 10.2 10.2 0 0 1 0 20.4" fill="#fffDB"/><path d="M-102.9-94.7a10.2 10.2 0 1 1 0-20.4 10.2 10.2 0 0 1 0 20.4" fill="#005bbbDB"/><path d="M-70.1-274.6a10.2 10.2 0 1 1 0-20.5 10.2 10.2 0 0 1 0 20.5" fill="#c2e1ffDC"/><path d="M-32-307.2a10.4 10.4 0 1 1 0-20.7 10.4 10.4 0 0 1 0 20.7" fill="#005bbbDE"/><path d="M-20.3-316.2a10.4 10.4 0 1 1 0-20.7 10.4 10.4 0 0 1 0 20.7" fill="#c2e1ffDF"/><path d="M275.5-56.7a10.4 10.4 0 1 1 0-20.9 10.4 10.4 0 0 1 0 20.9" fill="#005bbbE0"/><path d="M-84.5-76a10.4 10.4 0 1 1 0-20.9 10.4 10.4 0 0 1 0 20.9" fill="#c2e1ffE0"/><path d="M262-39.1a10.5 10.5 0 1 1 0-20.9 10.5 10.5 0 0 1 0 20.9" fill="#c2e1ffE1"/><path d="M122 43.5a10.5 10.5 0 1 1 0-21 10.5 10.5 0 0 1 0 21" fill="#c2e1ffE1"/><path d="M-14.8 6.8a10.5 10.5 0 1 1 0-21 10.5 10.5 0 0 1 0 21" fill="#005bbbE2"/><path d="M263.5-257.3a10.5 10.5 0 1 1 0-21.1 10.5 10.5 0 0 1 0 21.1" fill="#fffE2"/><path d="M-93.6-149.1a10.6 10.6 0 1 1 0-21.1 10.6 10.6 0 0 1 0 21.1" fill="#fffE3"/><path d="M-9.6 5.8a10.6 10.6 0 1 1 0-21.2 10.6 10.6 0 0 1 0 21.2" fill="#fffE3"/><path d="M69-340.3a10.6 10.6 0 1 1 0-21.2 10.6 10.6 0 0 1 0 21.2" fill="#005bbbE4"/><path d="M283.8-202.2a10.6 10.6 0 1 1 0-21.2 10.6 10.6 0 0 1 0 21.2" fill="#fff500E4"/><path d="M64.1 32.6a10.6 10.6 0 1 1 0-21.3 10.6 10.6 0 0 1 0 21.3" fill="#fff500E5"/><path d="M-87.1-167.5a10.7 10.7 0 1 1 0-21.3 10.7 10.7 0 0 1 0 21.3" fill="#fffE5"/><path d="M282.7-140.2a10.7 10.7 0 1 1 0-21.5 10.7 10.7 0 0 1 0 21.5" fill="#c2e1ffE7"/><path d="M253.8-250.9a10.7 10.7 0 1 1 0-21.5 10.7 10.7 0 0 1 0 21.5" fill="#005bbbE7"/><path d="M241.9-41.9a10.8 10.8 0 1 1 0-21.5 10.8 10.8 0 0 1 0 21.5" fill="#fff500E8"/><path d="M279.4-151.7a10.8 10.8 0 1 1 0-21.6 10.8 10.8 0 0 1 0 21.6" fill="#c2e1ffE8"/><path d="M118.4 26.3a10.8 10.8 0 1 1 0-21.5 10.8 10.8 0 0 1 0 21.5" fill="#c2e1ffE8"/><path d="M-29-29.3a10.8 10.8 0 1 1 0-21.6 10.8 10.8 0 0 1 0 21.6" fill="#fffE8"/><path d="M70.8-324.7a10.8 10.8 0 1 1 0-21.7 10.8 10.8 0 0 1 0 21.7" fill="#c2e1ffE9"/><path d="M169.4 5.8a10.9 10.9 0 1 1 0-21.7 10.9 10.9 0 0 1 0 21.7" fill="#fffEA"/><path d="M-69.5-125.9a10.9 10.9 0 1 1 0-21.8 10.9 10.9 0 0 1 0 21.8" fill="#fff500EA"/><path d="M187.5-6.3a10.9 10.9 0 1 1 0-21.8 10.9 10.9 0 0 1 0 21.8" fill="#005bbbEB"/><path d="M-60.9-204.5a10.9 10.9 0 1 1 0-21.8 10.9 10.9 0 0 1 0 21.8" fill="#fffEB"/><path d="M258.8-109.3a11 11 0 1 1 0-22 11 11 0 0 1 0 22" fill="#005bbbEC"/><path d="M193.7-17.1a11 11 0 1 1 0-22 11 11 0 0 1 0 22" fill="#c2e1ffEC"/><path d="M-49.3-169.9a11.1 11.1 0 1 1 0-22.2 11.1 11.1 0 0 1 0 22.2" fill="#c2e1ffF0"/><path d="M-49.1-159.8a11.1 11.1 0 1 1 0-22.3 11.1 11.1 0 0 1 0 22.3" fill="#c2e1ffF0"/><path d="M193.1-266.1a11.2 11.2 0 1 1 0-22.4 11.2 11.2 0 0 1 0 22.4" fill="#c2e1ffF0"/><path d="M-27.1-216.4a11.2 11.2 0 1 1 0-22.4 11.2 11.2 0 0 1 0 22.4" fill="#005bbbF1"/><path d="M237.3-152.5a11.3 11.3 0 1 1 0-22.5 11.3 11.3 0 0 1 0 22.5" fill="#fffF2"/><path d="M235.6-152.4a11.3 11.3 0 1 1 0-22.6 11.3 11.3 0 0 1 0 22.6" fill="#fffF3"/><path d="M-20.1-196.6a11.3 11.3 0 1 1 0-22.7 11.3 11.3 0 0 1 0 22.7" fill="#005bbbF4"/><path d="M28.6-44.5a11.3 11.3 0 1 1 0-22.7 11.3 11.3 0 0 1 0 22.7" fill="#c2e1ffF4"/><path d="M-14.5-101.4a11.4 11.4 0 1 1 0-22.7 11.4 11.4 0 0 1 0 22.7" fill="#fff500F5"/><path d="M205.5-84.7a11.4 11.4 0 1 1 0-22.8 11.4 11.4 0 0 1 0 22.8" fill="#fff500F5"/><path d="M217.9-112.4a11.4 11.4 0 1 1 0-22.7 11.4 11.4 0 0 1 0 22.7" fill="#c2e1ffF5"/><path d="M159.3-61.4a11.5 11.5 0 1 1 0-23 11.5 11.5 0 0 1 0 23" fill="#fffF7"/><path d="M165.2-68.3a11.5 11.5 0 1 1 0-23 11.5 11.5 0 0 1 0 23" fill="#c2e1ffF8"/><path d="M193.8-197.4a11.5 11.5 0 1 1 0-23 11.5 11.5 0 0 1 0 23" fill="#fffF8"/><path d="M18.2-91a11.5 11.5 0 1 1 0-23 11.5 11.5 0 0 1 0 23" fill="#c2e1ffF8"/><path d="M148.2-239.5a11.5 11.5 0 1 1 0-23.1 11.5 11.5 0 0 1 0 23.1" fill="#005bbbF8"/><path d="M4.5-141.7a11.6 11.6 0 1 1 0-23.2 11.6 11.6 0 0 1 0 23.2" fill="#c2e1ffF9"/><path d="M67-66a11.6 11.6 0 1 1 0-23.2 11.6 11.6 0 0 1 0 23.2" fill="#fff500F9"/><path d="M53.7-228.4a11.6 11.6 0 1 1 0-23.2 11.6 11.6 0 0 1 0 23.2" fill="#fff500FA"/><path d="M48.2-84.5a11.6 11.6 0 1 1 0-23.3 11.6 11.6 0 0 1 0 23.3" fill="#005bbbFA"/><path d="M174.4-114.5a11.6 11.6 0 1 1 0-23.2 11.6 11.6 0 0 1 0 23.2" fill="#c2e1ffFA"/><path d="M117.4-215.4a11.7 11.7 0 1 1 0-23.4 11.7 11.7 0 0 1 0 23.4" fill="#c2e1ffFC"/><path d="M33.9-158a11.7 11.7 0 1 1 0-23.3 11.7 11.7 0 0 1 0 23.3" fill="#c2e1ffFC"/><path d="M136.9-108.9a11.7 11.7 0 1 1 0-23.5 11.7 11.7 0 0 1 0 23.5" fill="#c2e1ffFD"/><path d="M106.2-188.5a11.8 11.8 0 1 1 0-23.6 11.8 11.8 0 0 1 0 23.6" fill="#005bbbFE"/><path d="M63.6-160.8a11.8 11.8 0 1 1 0-23.5 11.8 11.8 0 0 1 0 23.5" fill="#c2e1ffFE"/><path d="M104.7-175.8a11.8 11.8 0 1 1 0-23.5 11.8 11.8 0 0 1 0 23.5" fill="#c2e1ffFE"/></g></svg>