<svg width="1200" height="675" viewBox="-500 -500 1200 675" xmlns="http://www.w3.org/2000/svg"><path d="M-500-500h1200v675h-1200z" fill="#000"/><style>.sparkles path{stroke-linecap:round; stroke-width:1}</style><g class="sparkles"><path d="M100-162.5l46.6-11.6" stroke="#e76f5133"/><path d="M100-162.5l49.4 11" stroke="#26465333"/><path d="M100-162.5l47.7 31.3" stroke="#2a9d8f33"/><path d="M100-162.5l-60.7-3.8" stroke="#2a9d8f33"/><path d="M100-162.5l-45-69.2" stroke="#f4a26135"/><path d="M100-162.5l80.1-38.1" stroke="#f4a26135"/><path d="M100-162.5l-29.9 93.9" stroke="#26465336"/><path d="M100-162.5l-60.6-79.9" stroke="#f4a26136"/><path d="M100-162.5l-41-101.9" stroke="#2a9d8f37"/><path d="M100-162.5l-92.5-62.1" stroke="#e76f5137"/><path d="M100-162.5l77.6 86.5" stroke="#e9c46a38"/><path d="M100-162.5l-113.9-33.6" stroke="#26465338"/><path d="M100-162.5l-49 110.3" stroke="#f4a26139"/><path d="M100-162.5l117.4-40.1" stroke="#26465339"/><path d="M100-162.5l71.8-104.2" stroke="#26465339"/><path d="M100-162.5l-36.1-126.4" stroke="#2646533A"/><path d="M100-162.5l20.8 131.4" stroke="#2646533A"/><path d="M100-162.5l2.9-134.8" stroke="#2646533A"/><path d="M100-162.5l-86.7-105.2" stroke="#2646533B"/><path d="M100-162.5l-138.7-24.6" stroke="#2646533B"/><path d="M100-162.5l88.3 112.2" stroke="#2646533C"/><path d="M100-162.5l106.8 95.3" stroke="#2646533C"/><path d="M100-162.5l144.5 9.2" stroke="#2a9d8f3C"/><path d="M100-162.5l-74.2-125.6" stroke="#e76f513C"/><path d="M100-162.5l-5.9-152.5" stroke="#2646533D"/><path d="M100-162.5l-154.9-31.5" stroke="#2a9d8f3E"/><path d="M100-162.5l25.6 157.5" stroke="#2646533F"/><path d="M100-162.5l-126 103.3" stroke="#2646533F"/><path d="M100-162.5l117.4 119.2" stroke="#f4a26140"/><path d="M100-162.5l-89.3 142" stroke="#e76f5140"/><path d="M100-162.5l160.2-51.4" stroke="#e9c46a40"/><path d="M100-162.5l-55-161.1" stroke="#2a9d8f41"/><path d="M100-162.5l8.3 181.8" stroke="#e76f5144"/><path d="M100-162.5l153.4 100.7" stroke="#f4a26144"/><path d="M100-162.5l-134.6-131.1" stroke="#26465345"/><path d="M100-162.5l-187.2-32.3" stroke="#2a9d8f46"/><path d="M100-162.5l49.1 185.9" stroke="#26465346"/><path d="M100-162.5l-83.6 177.5" stroke="#2a9d8f48"/><path d="M100-162.5l-0.1-196.5" stroke="#e9c46a48"/><path d="M100-162.5l-5.2-199.9" stroke="#e76f5149"/><path d="M100-162.5l-189.4 67.3" stroke="#2a9d8f49"/><path d="M100-162.5l110.9-168.3" stroke="#2a9d8f49"/><path d="M100-162.5l-176.5 98.4" stroke="#2646534A"/><path d="M100-162.5l130.7-155" stroke="#2646534A"/><path d="M100-162.5l-11.4-203.2" stroke="#2a9d8f4A"/><path d="M100-162.5l51.2 200.9" stroke="#f4a2614C"/><path d="M100-162.5l151.2 143" stroke="#2646534C"/><path d="M100-162.5l174.1-118.3" stroke="#f4a2614D"/><path d="M100-162.5l-32.5 209" stroke="#e76f514D"/><path d="M100-162.5l-127.5-171.7" stroke="#f4a2614E"/><path d="M100-162.5l-21.7 213.3" stroke="#2646534E"/><path d="M100-162.5l-143.6 163.2" stroke="#e9c46a50"/><path d="M100-162.5l157.4 150.3" stroke="#e76f5150"/><path d="M100-162.5l213.3 52.2" stroke="#e76f5151"/><path d="M100-162.5l-189.4 116.8" stroke="#e76f5153"/><path d="M100-162.5l216.2-54.1" stroke="#e9c46a53"/><path d="M100-162.5l-69.2 212.2" stroke="#f4a26153"/><path d="M100-162.5l210.3-76.4" stroke="#e9c46a53"/><path d="M100-162.5l-2.6-224.4" stroke="#2a9d8f54"/><path d="M100-162.5l-87.3-208.6" stroke="#2a9d8f55"/><path d="M100-162.5l-13.4 226" stroke="#f4a26155"/><path d="M100-162.5l-120-195.5" stroke="#2a9d8f58"/><path d="M100-162.5l-93.9 210.5" stroke="#26465358"/><path d="M100-162.5l-70.3-219.7" stroke="#e76f5159"/><path d="M100-162.5l-58.8-223.6" stroke="#2a9d8f59"/><path d="M100-162.5l-191.1-130.8" stroke="#2a9d8f5A"/><path d="M100-162.5l-143 183.5" stroke="#2646535B"/><path d="M100-162.5l219.5-77.3" stroke="#f4a2615B"/><path d="M100-162.5l109.5-205.6" stroke="#2646535B"/><path d="M100-162.5l130.7 193.6" stroke="#e9c46a5C"/><path d="M100-162.5l-123.3 198.9" stroke="#2a9d8f5D"/><path d="M100-162.5l-177.2 154.2" stroke="#e9c46a5E"/><path d="M100-162.5l-210.8 104" stroke="#e9c46a5F"/><path d="M100-162.5l84.9 219.2" stroke="#e9c46a5F"/><path d="M100-162.5l17.3-234.7" stroke="#2a9d8f5F"/><path d="M100-162.5l223.8 73.2" stroke="#2646535F"/><path d="M100-162.5l205.3-115.4" stroke="#e76f515F"/><path d="M100-162.5l233.3-32.8" stroke="#e76f5160"/><path d="M100-162.5l-201.2 122.9" stroke="#2a9d8f60"/><path d="M100-162.5l-203.9 118.6" stroke="#e76f5161"/><path d="M100-162.5l-122.1 201.9" stroke="#26465361"/><path d="M100-162.5l-63.8 227.2" stroke="#f4a26161"/><path d="M100-162.5l220.3-84.7" stroke="#26465361"/><path d="M100-162.5l103.1-212.4" stroke="#2a9d8f62"/><path d="M100-162.5l-137.8-191.8" stroke="#f4a26162"/><path d="M100-162.5l158.3-175.3" stroke="#2a9d8f62"/><path d="M100-162.5l-55.9 229.5" stroke="#2a9d8f63"/><path d="M100-162.5l208.7-110.6" stroke="#26465364"/><path d="M100-162.5l203.1 120.6" stroke="#f4a26164"/><path d="M100-162.5l-236 9" stroke="#2a9d8f65"/><path d="M100-162.5l-230.1 52.9" stroke="#f4a26165"/><path d="M100-162.5l86.4 219.7" stroke="#26465365"/><path d="M100-162.5l234.9 23.7" stroke="#26465366"/><path d="M100-162.5l-98-214.7" stroke="#26465366"/><path d="M100-162.5l-66.2 225.5" stroke="#e9c46a68"/><path d="M100-162.5l-234.6 11.3" stroke="#f4a26169"/><path d="M100-162.5l-154.4-176.7" stroke="#2a9d8f69"/><path d="M100-162.5l-50.2-229" stroke="#2646536A"/><path d="M100-162.5l-231.4 35.9" stroke="#e76f516A"/><path d="M100-162.5l188.2-139.2" stroke="#e76f516A"/><path d="M100-162.5l93.4-213.6" stroke="#2a9d8f6C"/><path d="M100-162.5l-8.8 233" stroke="#e9c46a6C"/><path d="M100-162.5l95.8-210.3" stroke="#2a9d8f6E"/><path d="M100-162.5l136.8 185.9" stroke="#2646536E"/><path d="M100-162.5l-212.8-88.8" stroke="#2646536E"/><path d="M100-162.5l-220.2-65.2" stroke="#2a9d8f6F"/><path d="M100-162.5l26.6-228" stroke="#e9c46a6F"/><path d="M100-162.5l-101.4-205.9" stroke="#2a9d8f6F"/><path d="M100-162.5l-183.1-137.5" stroke="#f4a26170"/><path d="M100-162.5l72.7 216.4" stroke="#26465370"/><path d="M100-162.5l143.6 177.3" stroke="#e9c46a70"/><path d="M100-162.5l-226.2-8.9" stroke="#e9c46a72"/><path d="M100-162.5l-217.1-63.9" stroke="#2a9d8f72"/><path d="M100-162.5l153.7-164.1" stroke="#e76f5173"/><path d="M100-162.5l224.5-5.3" stroke="#26465373"/><path d="M100-162.5l-220-35.2" stroke="#e76f5174"/><path d="M100-162.5l-51.2-215" stroke="#e9c46a75"/><path d="M100-162.5l-132.4-176.3" stroke="#e9c46a75"/><path d="M100-162.5l153.1-158.1" stroke="#e76f5176"/><path d="M100-162.5l-57.8 212" stroke="#26465376"/><path d="M100-162.5l-95.6 197.7" stroke="#f4a26176"/><path d="M100-162.5l-15.3 217.9" stroke="#e76f5177"/><path d="M100-162.5l-48.4 212.9" stroke="#26465377"/><path d="M100-162.5l4.1-217.9" stroke="#f4a26177"/><path d="M100-162.5l58.9 208.7" stroke="#2a9d8f77"/><path d="M100-162.5l-183.6 108.7" stroke="#2a9d8f79"/><path d="M100-162.5l-22.8 212.1" stroke="#e9c46a79"/><path d="M100-162.5l-138.8 160" stroke="#f4a2617A"/><path d="M100-162.5l-204.6-52.9" stroke="#2646537A"/><path d="M100-162.5l44.2-206.4" stroke="#2646537A"/><path d="M100-162.5l-116.4 170.6" stroke="#e9c46a7C"/><path d="M100-162.5l188.4-80.1" stroke="#2a9d8f7C"/><path d="M100-162.5l-123.5 163.3" stroke="#f4a2617C"/><path d="M100-162.5l204.3-0.3" stroke="#2646537D"/><path d="M100-162.5l201.9 0" stroke="#2a9d8f7D"/><path d="M100-162.5l-187.3 74.1" stroke="#e76f517E"/><path d="M100-162.5l-199.3-6.4" stroke="#2646537E"/><path d="M100-162.5l33.2-195.3" stroke="#2a9d8f7F"/><path d="M100-162.5l-150.8 122.3" stroke="#f4a26180"/><path d="M100-162.5l-61.3-180.8" stroke="#f4a26181"/><path d="M100-162.5l-51.8 183.5" stroke="#e9c46a81"/><path d="M100-162.5l27-188.7" stroke="#f4a26181"/><path d="M100-162.5l-121.4 145.5" stroke="#e9c46a81"/><path d="M100-162.5l-134.4 133.3" stroke="#f4a26181"/><path d="M100-162.5l-175.2 56.7" stroke="#f4a26183"/><path d="M100-162.5l142.5 108.2" stroke="#e9c46a84"/><path d="M100-162.5l157.1-73.5" stroke="#f4a26185"/><path d="M100-162.5l-11.9-171.4" stroke="#26465386"/><path d="M100-162.5l168.7-4.2" stroke="#2a9d8f86"/><path d="M100-162.5l-117.9-116.8" stroke="#e76f5187"/><path d="M100-162.5l109.3-120.2" stroke="#e9c46a88"/><path d="M100-162.5l149.8-62.7" stroke="#e9c46a88"/><path d="M100-162.5l105-109.5" stroke="#f4a2618A"/><path d="M100-162.5l111.9 98.9" stroke="#f4a2618A"/><path d="M100-162.5l142.4 39.8" stroke="#f4a2618A"/><path d="M100-162.5l101.7-88.4" stroke="#2646538D"/><path d="M100-162.5l-99.7-88.7" stroke="#2a9d8f8D"/><path d="M100-162.5l50.7 122.3" stroke="#2a9d8f8D"/><path d="M100-162.5l-71.3 110.7" stroke="#2646538D"/><path d="M100-162.5l-119.8-25.7" stroke="#2a9d8f8E"/><path d="M100-162.5l14.3-116.5" stroke="#e9c46a8F"/><path d="M100-162.5l55.4 103.3" stroke="#2a9d8f8F"/><path d="M100-162.5l49-101.2" stroke="#e76f518F"/><path d="M100-162.5l99.8-45.3" stroke="#f4a26190"/><path d="M100-162.5l-103.9-25.8" stroke="#e76f5190"/><path d="M100-162.5l-9.2-104.8" stroke="#f4a26190"/><path d="M100-162.5l31.4 99" stroke="#e9c46a90"/><path d="M100-162.5l-26.1-100.4" stroke="#f4a26190"/><path d="M100-162.5l-95.9 4.5" stroke="#e9c46a91"/><path d="M100-162.5l-87.4 22.8" stroke="#e9c46a92"/><path d="M100-162.5l87.1-13.4" stroke="#26465392"/><path d="M100-162.5l-87.1-8.5" stroke="#2a9d8f92"/><path d="M100-162.5l24.5-78.9" stroke="#f4a26192"/><path d="M100-162.5l-21.4 74.1" stroke="#2a9d8f93"/><path d="M100-162.5l-61.2 12.8" stroke="#e76f5194"/><path d="M100-162.5l7.7-57.9" stroke="#f4a26194"/><path d="M100-162.5l44.9 24.2" stroke="#26465394"/><path d="M100-162.5l34.7-17.2" stroke="#2a9d8f95"/><path d="M100-162.5l-24.9-24.9" stroke="#e9c46a95"/><path d="M100-162.5l-2.7 13.5" stroke="#f4a26195"/><path d="M100-162.5l-0.2-3.2" stroke="#26465395"/></g><g class="sparcs"><path d="M146.6-168.1a6 6 0 1 1 0-12 6 6 0 0 1 0 12" fill="#e9c46a7E"/><path d="M149.4-145.6a6 6 0 1 1 0-11.9 6 6 0 0 1 0 11.9" fill="#2a9d8f7E"/><path d="M147.7-125.2a6 6 0 1 1 0-12 6 6 0 0 1 0 12" fill="#f4a2617E"/><path d="M39.3-160.3a6 6 0 1 1 0-12 6 6 0 0 1 0 12" fill="#f4a2617F"/><path d="M55-225.6a6.1 6.1 0 1 1 0-12.2 6.1 6.1 0 0 1 0 12.2" fill="#e76f5181"/><path d="M180.1-194.5a6.1 6.1 0 1 1 0-12.2 6.1 6.1 0 0 1 0 12.2" fill="#e76f5181"/><path d="M70.1-62.4a6.2 6.2 0 1 1 0-12.3 6.2 6.2 0 0 1 0 12.3" fill="#2a9d8f82"/><path d="M39.4-236.2a6.2 6.2 0 1 1 0-12.4 6.2 6.2 0 0 1 0 12.4" fill="#2a9d8f83"/><path d="M59-258.2a6.2 6.2 0 1 1 0-12.5 6.2 6.2 0 0 1 0 12.5" fill="#f4a26184"/><path d="M7.5-218.3a6.3 6.3 0 1 1 0-12.5 6.3 6.3 0 0 1 0 12.5" fill="#2a9d8f84"/><path d="M177.6-69.7a6.3 6.3 0 1 1 0-12.6 6.3 6.3 0 0 1 0 12.6" fill="#26465385"/><path d="M-13.9-189.8a6.3 6.3 0 1 1 0-12.6 6.3 6.3 0 0 1 0 12.6" fill="#26465385"/><path d="M51-45.9a6.3 6.3 0 1 1 0-12.6 6.3 6.3 0 0 1 0 12.6" fill="#26465386"/><path d="M217.4-196.3a6.3 6.3 0 1 1 0-12.7 6.3 6.3 0 0 1 0 12.7" fill="#e9c46a86"/><path d="M171.8-260.4a6.4 6.4 0 1 1 0-12.7 6.4 6.4 0 0 1 0 12.7" fill="#2a9d8f87"/><path d="M63.9-282.5a6.4 6.4 0 1 1 0-12.8 6.4 6.4 0 0 1 0 12.8" fill="#e76f5187"/><path d="M120.8-24.7a6.4 6.4 0 1 1 0-12.9 6.4 6.4 0 0 1 0 12.9" fill="#2a9d8f88"/><path d="M102.9-290.9a6.4 6.4 0 1 1 0-12.8 6.4 6.4 0 0 1 0 12.8" fill="#2a9d8f88"/><path d="M13.3-261.3a6.4 6.4 0 1 1 0-12.9 6.4 6.4 0 0 1 0 12.9" fill="#e9c46a88"/><path d="M-38.7-180.6a6.5 6.5 0 1 1 0-12.9 6.5 6.5 0 0 1 0 12.9" fill="#26465389"/><path d="M188.3-43.8a6.5 6.5 0 1 1 0-13 6.5 6.5 0 0 1 0 13" fill="#f4a2618A"/><path d="M206.8-60.7a6.5 6.5 0 1 1 0-13 6.5 6.5 0 0 1 0 13" fill="#2a9d8f8A"/><path d="M244.5-146.8a6.5 6.5 0 1 1 0-13 6.5 6.5 0 0 1 0 13" fill="#e76f518A"/><path d="M25.8-281.6a6.5 6.5 0 1 1 0-13 6.5 6.5 0 0 1 0 13" fill="#e9c46a8A"/><path d="M94.1-308.4a6.6 6.6 0 1 1 0-13.2 6.6 6.6 0 0 1 0 13.2" fill="#2a9d8f8C"/><path d="M-54.9-187.3a6.7 6.7 0 1 1 0-13.3 6.7 6.7 0 0 1 0 13.3" fill="#e9c46a8D"/><path d="M125.6 1.7a6.7 6.7 0 1 1 0-13.4 6.7 6.7 0 0 1 0 13.4" fill="#e9c46a8E"/><path d="M-26-52.4a6.7 6.7 0 1 1 0-13.5 6.7 6.7 0 0 1 0 13.5" fill="#2a9d8f8E"/><path d="M217.4-36.5a6.8 6.8 0 1 1 0-13.5 6.8 6.8 0 0 1 0 13.5" fill="#26465390"/><path d="M10.7-13.7a6.8 6.8 0 1 1 0-13.6 6.8 6.8 0 0 1 0 13.6" fill="#f4a26190"/><path d="M260.2-207.1a6.8 6.8 0 1 1 0-13.6 6.8 6.8 0 0 1 0 13.6" fill="#26465390"/><path d="M45-316.8a6.8 6.8 0 1 1 0-13.6 6.8 6.8 0 0 1 0 13.6" fill="#2a9d8f90"/><path d="M108.3 26.3a7 7 0 1 1 0-14 7 7 0 0 1 0 14" fill="#e76f5194"/><path d="M253.4-54.8a7 7 0 1 1 0-14 7 7 0 0 1 0 14" fill="#26465395"/><path d="M-34.6-286.5a7.1 7.1 0 1 1 0-14.2 7.1 7.1 0 0 1 0 14.2" fill="#2a9d8f96"/><path d="M-87.2-187.7a7.1 7.1 0 1 1 0-14.2 7.1 7.1 0 0 1 0 14.2" fill="#f4a26197"/><path d="M149.1 30.6a7.1 7.1 0 1 1 0-14.3 7.1 7.1 0 0 1 0 14.3" fill="#e9c46a98"/><path d="M16.4 22.2a7.2 7.2 0 1 1 0-14.4 7.2 7.2 0 0 1 0 14.4" fill="#e9c46a99"/><path d="M99.9-351.8a7.2 7.2 0 1 1 0-14.5 7.2 7.2 0 0 1 0 14.5" fill="#2a9d8f99"/><path d="M94.8-355.1a7.3 7.3 0 1 1 0-14.6 7.3 7.3 0 0 1 0 14.6" fill="#e9c46a9B"/><path d="M-89.4-87.9a7.3 7.3 0 1 1 0-14.6 7.3 7.3 0 0 1 0 14.6" fill="#f4a2619B"/><path d="M210.9-323.5a7.3 7.3 0 1 1 0-14.6 7.3 7.3 0 0 1 0 14.6" fill="#e9c46a9C"/><path d="M-76.5-56.8a7.3 7.3 0 1 1 0-14.6 7.3 7.3 0 0 1 0 14.6" fill="#2646539C"/><path d="M230.7-310.1a7.3 7.3 0 1 1 0-14.7 7.3 7.3 0 0 1 0 14.7" fill="#2646539C"/><path d="M88.6-358.3a7.4 7.4 0 1 1 0-14.7 7.4 7.4 0 0 1 0 14.7" fill="#2a9d8f9C"/><path d="M151.2 45.8a7.4 7.4 0 1 1 0-14.8 7.4 7.4 0 0 1 0 14.8" fill="#f4a2619E"/><path d="M251.2-12.1a7.5 7.5 0 1 1 0-14.9 7.5 7.5 0 0 1 0 14.9" fill="#f4a2619F"/><path d="M274.1-273.3a7.5 7.5 0 1 1 0-15 7.5 7.5 0 0 1 0 15" fill="#e9c46aA0"/><path d="M67.5 54.1a7.5 7.5 0 1 1 0-15.1 7.5 7.5 0 0 1 0 15.1" fill="#2a9d8fA1"/><path d="M-27.5-326.6a7.6 7.6 0 1 1 0-15.2 7.6 7.6 0 0 1 0 15.2" fill="#e9c46aA2"/><path d="M78.3 58.4a7.6 7.6 0 1 1 0-15.2 7.6 7.6 0 0 1 0 15.2" fill="#2a9d8fA2"/><path d="M-43.6 8.4a7.7 7.7 0 1 1 0-15.4 7.7 7.7 0 0 1 0 15.4" fill="#e76f51A4"/><path d="M257.4-4.4a7.7 7.7 0 1 1 0-15.5 7.7 7.7 0 0 1 0 15.5" fill="#f4a261A4"/><path d="M313.3-102.5a7.8 7.8 0 1 1 0-15.6 7.8 7.8 0 0 1 0 15.6" fill="#2a9d8fA6"/><path d="M-89.4-37.8a7.9 7.9 0 1 1 0-15.7 7.9 7.9 0 0 1 0 15.7" fill="#e9c46aA8"/><path d="M316.2-208.7a7.9 7.9 0 1 1 0-15.8 7.9 7.9 0 0 1 0 15.8" fill="#e76f51A8"/><path d="M30.8 57.6a7.9 7.9 0 1 1 0-15.8 7.9 7.9 0 0 1 0 15.8" fill="#e9c46aA8"/><path d="M310.3-230.9a7.9 7.9 0 1 1 0-15.9 7.9 7.9 0 0 1 0 15.9" fill="#2a9d8fA9"/><path d="M97.4-379a7.9 7.9 0 1 1 0-15.9 7.9 7.9 0 0 1 0 15.9" fill="#2a9d8fA9"/><path d="M12.7-363.1a8 8 0 1 1 0-16 8 8 0 0 1 0 16" fill="#2a9d8fAB"/><path d="M86.6 71.5a8 8 0 1 1 0-16 8 8 0 0 1 0 16" fill="#e9c46aAB"/><path d="M-20-349.8a8.2 8.2 0 1 1 0-16.4 8.2 8.2 0 0 1 0 16.4" fill="#2a9d8fAE"/><path d="M6.1 56.2a8.2 8.2 0 1 1 0-16.5 8.2 8.2 0 0 1 0 16.5" fill="#264653AF"/><path d="M29.7-374a8.2 8.2 0 1 1 0-16.5 8.2 8.2 0 0 1 0 16.5" fill="#264653AF"/><path d="M41.2-377.8a8.3 8.3 0 1 1 0-16.5 8.3 8.3 0 0 1 0 16.5" fill="#e76f51B0"/><path d="M-91.1-285a8.3 8.3 0 1 1 0-16.6 8.3 8.3 0 0 1 0 16.6" fill="#e9c46aB1"/><path d="M-43 29.3a8.3 8.3 0 1 1 0-16.6 8.3 8.3 0 0 1 0 16.6" fill="#e9c46aB2"/><path d="M319.5-231.4a8.3 8.3 0 1 1 0-16.7 8.3 8.3 0 0 1 0 16.7" fill="#2a9d8fB2"/><path d="M209.5-359.8a8.4 8.4 0 1 1 0-16.7 8.4 8.4 0 0 1 0 16.7" fill="#2a9d8fB3"/><path d="M230.7 39.5a8.4 8.4 0 1 1 0-16.8 8.4 8.4 0 0 1 0 16.8" fill="#264653B4"/><path d="M-23.3 44.9a8.5 8.5 0 1 1 0-16.9 8.5 8.5 0 0 1 0 16.9" fill="#f4a261B5"/><path d="M-77.2 0.2a8.5 8.5 0 1 1 0-17.1 8.5 8.5 0 0 1 0 17.1" fill="#e9c46aB6"/><path d="M-110.8-49.9a8.6 8.6 0 1 1 0-17.1 8.6 8.6 0 0 1 0 17.1" fill="#e9c46aB7"/><path d="M184.9 65.3a8.6 8.6 0 1 1 0-17.1 8.6 8.6 0 0 1 0 17.1" fill="#2a9d8fB7"/><path d="M117.3-388.6a8.6 8.6 0 1 1 0-17.2 8.6 8.6 0 0 1 0 17.2" fill="#e9c46aB8"/><path d="M323.8-80.7a8.6 8.6 0 1 1 0-17.2 8.6 8.6 0 0 1 0 17.2" fill="#e76f51B8"/><path d="M305.3-269.3a8.6 8.6 0 1 1 0-17.2 8.6 8.6 0 0 1 0 17.2" fill="#e9c46aB8"/><path d="M333.3-186.7a8.6 8.6 0 1 1 0-17.2 8.6 8.6 0 0 1 0 17.2" fill="#e76f51B9"/><path d="M-101.2-31a8.7 8.7 0 1 1 0-17.3 8.7 8.7 0 0 1 0 17.3" fill="#e76f51B9"/><path d="M-103.9-35.2a8.7 8.7 0 1 1 0-17.4 8.7 8.7 0 0 1 0 17.4" fill="#2a9d8fBA"/><path d="M-22.1 48.1a8.7 8.7 0 1 1 0-17.4 8.7 8.7 0 0 1 0 17.4" fill="#e9c46aBA"/><path d="M36.2 73.5a8.7 8.7 0 1 1 0-17.5 8.7 8.7 0 0 1 0 17.5" fill="#e76f51BB"/><path d="M320.3-238.5a8.7 8.7 0 1 1 0-17.5 8.7 8.7 0 0 1 0 17.5" fill="#e9c46aBB"/><path d="M203.1-366.2a8.8 8.8 0 1 1 0-17.5 8.8 8.8 0 0 1 0 17.5" fill="#e9c46aBB"/><path d="M-37.8-345.5a8.8 8.8 0 1 1 0-17.5 8.8 8.8 0 0 1 0 17.5" fill="#e9c46aBB"/><path d="M258.3-329a8.8 8.8 0 1 1 0-17.6 8.8 8.8 0 0 1 0 17.6" fill="#e9c46aBC"/><path d="M44.1 75.9a8.8 8.8 0 1 1 0-17.7 8.8 8.8 0 0 1 0 17.7" fill="#e9c46aBD"/><path d="M308.7-264.2a8.9 8.9 0 1 1 0-17.8 8.9 8.9 0 0 1 0 17.8" fill="#264653BE"/><path d="M303.1-33a8.9 8.9 0 1 1 0-17.8 8.9 8.9 0 0 1 0 17.8" fill="#e9c46aBF"/><path d="M-136-144.6a8.9 8.9 0 1 1 0-17.8 8.9 8.9 0 0 1 0 17.8" fill="#264653BF"/><path d="M-130.1-100.7a8.9 8.9 0 1 1 0-17.8 8.9 8.9 0 0 1 0 17.8" fill="#264653BF"/><path d="M186.4 66.1a9 9 0 1 1 0-17.9 9 9 0 0 1 0 17.9" fill="#2a9d8fC0"/><path d="M334.9-129.8a9 9 0 1 1 0-18 9 9 0 0 1 0 18" fill="#264653C0"/><path d="M2-368.2a9 9 0 1 1 0-18 9 9 0 0 1 0 18" fill="#e9c46aC1"/><path d="M33.8 72.2a9.2 9.2 0 1 1 0-18.3 9.2 9.2 0 0 1 0 18.3" fill="#f4a261C4"/><path d="M-134.6-142a9.2 9.2 0 1 1 0-18.4 9.2 9.2 0 0 1 0 18.4" fill="#2a9d8fC4"/><path d="M-54.4-330a9.2 9.2 0 1 1 0-18.4 9.2 9.2 0 0 1 0 18.4" fill="#264653C5"/><path d="M49.8-382.3a9.2 9.2 0 1 1 0-18.4 9.2 9.2 0 0 1 0 18.4" fill="#f4a261C6"/><path d="M-131.4-117.4a9.3 9.3 0 1 1 0-18.5 9.3 9.3 0 0 1 0 18.5" fill="#f4a261C6"/><path d="M288.2-292.5a9.3 9.3 0 1 1 0-18.5 9.3 9.3 0 0 1 0 18.5" fill="#f4a261C6"/><path d="M193.4-366.8a9.3 9.3 0 1 1 0-18.7 9.3 9.3 0 0 1 0 18.7" fill="#264653C8"/><path d="M91.2 79.8a9.3 9.3 0 1 1 0-18.7 9.3 9.3 0 0 1 0 18.7" fill="#f4a261C8"/><path d="M195.8-363.3a9.5 9.5 0 1 1 0-19 9.5 9.5 0 0 1 0 19" fill="#e9c46aCB"/><path d="M236.8 32.8a9.5 9.5 0 1 1 0-18.9 9.5 9.5 0 0 1 0 18.9" fill="#e9c46aCB"/><path d="M-112.8-241.8a9.5 9.5 0 1 1 0-19 9.5 9.5 0 0 1 0 19" fill="#e76f51CC"/><path d="M-120.2-218.1a9.6 9.6 0 1 1 0-19.1 9.6 9.6 0 0 1 0 19.1" fill="#2a9d8fCD"/><path d="M126.6-380.9a9.6 9.6 0 1 1 0-19.2 9.6 9.6 0 0 1 0 19.2" fill="#e9c46aCD"/><path d="M-1.4-358.9a9.6 9.6 0 1 1 0-19.1 9.6 9.6 0 0 1 0 19.1" fill="#264653CD"/><path d="M-83.1-290.4a9.6 9.6 0 1 1 0-19.2 9.6 9.6 0 0 1 0 19.2" fill="#f4a261CD"/><path d="M172.7 63.5a9.6 9.6 0 1 1 0-19.2 9.6 9.6 0 0 1 0 19.2" fill="#264653CE"/><path d="M243.6 24.5a9.6 9.6 0 1 1 0-19.3 9.6 9.6 0 0 1 0 19.3" fill="#e9c46aCE"/><path d="M-126.2-161.7a9.7 9.7 0 1 1 0-19.4 9.7 9.7 0 0 1 0 19.4" fill="#264653D0"/><path d="M-117.1-216.7a9.7 9.7 0 1 1 0-19.4 9.7 9.7 0 0 1 0 19.4" fill="#264653D0"/><path d="M253.7-316.9a9.8 9.8 0 1 1 0-19.5 9.8 9.8 0 0 1 0 19.5" fill="#2a9d8fD1"/><path d="M324.5-158a9.8 9.8 0 1 1 0-19.5 9.8 9.8 0 0 1 0 19.5" fill="#f4a261D2"/><path d="M-120-187.9a9.8 9.8 0 1 1 0-19.7 9.8 9.8 0 0 1 0 19.7" fill="#f4a261D3"/><path d="M48.8-367.5a9.9 9.9 0 1 1 0-19.9 9.9 9.9 0 0 1 0 19.9" fill="#e9c46aD5"/><path d="M-32.4-328.9a9.9 9.9 0 1 1 0-19.8 9.9 9.9 0 0 1 0 19.8" fill="#2a9d8fD5"/><path d="M253.1-310.7a9.9 9.9 0 1 1 0-19.8 9.9 9.9 0 0 1 0 19.8" fill="#f4a261D5"/><path d="M42.2 59.5a9.9 9.9 0 1 1 0-19.9 9.9 9.9 0 0 1 0 19.9" fill="#2a9d8fD5"/><path d="M4.4 45.2a9.9 9.9 0 1 1 0-19.9 9.9 9.9 0 0 1 0 19.9" fill="#264653D5"/><path d="M84.7 65.4a10 10 0 1 1 0-19.9 10 10 0 0 1 0 19.9" fill="#2a9d8fD6"/><path d="M51.6 60.4a10 10 0 1 1 0-20 10 10 0 0 1 0 20" fill="#f4a261D6"/><path d="M104.1-370.4a10 10 0 1 1 0-20 10 10 0 0 1 0 20" fill="#264653D7"/><path d="M158.9 56.2a10 10 0 1 1 0-20.1 10 10 0 0 1 0 20.1" fill="#264653D7"/><path d="M-83.6-43.6a10.1 10.1 0 1 1 0-20.3 10.1 10.1 0 0 1 0 20.3" fill="#e9c46aD9"/><path d="M77.2 59.8a10.1 10.1 0 1 1 0-20.3 10.1 10.1 0 0 1 0 20.3" fill="#2a9d8fD9"/><path d="M-38.8 7.6a10.2 10.2 0 1 1 0-20.3 10.2 10.2 0 0 1 0 20.3" fill="#264653DA"/><path d="M-104.6-205.2a10.2 10.2 0 1 1 0-20.4 10.2 10.2 0 0 1 0 20.4" fill="#f4a261DB"/><path d="M144.2-358.7a10.2 10.2 0 1 1 0-20.4 10.2 10.2 0 0 1 0 20.4" fill="#f4a261DB"/><path d="M-16.4 18.4a10.3 10.3 0 1 1 0-20.6 10.3 10.3 0 0 1 0 20.6" fill="#2a9d8fDD"/><path d="M288.4-232.2a10.3 10.3 0 1 1 0-20.7 10.3 10.3 0 0 1 0 20.7" fill="#e9c46aDE"/><path d="M-23.5 11.1a10.3 10.3 0 1 1 0-20.7 10.3 10.3 0 0 1 0 20.7" fill="#f4a261DE"/><path d="M304.3-152.5a10.3 10.3 0 1 1 0-20.7 10.3 10.3 0 0 1 0 20.7" fill="#f4a261DE"/><path d="M301.9-152.1a10.4 10.4 0 1 1 0-20.8 10.4 10.4 0 0 1 0 20.8" fill="#264653DF"/><path d="M-87.3-78a10.4 10.4 0 1 1 0-20.8 10.4 10.4 0 0 1 0 20.8" fill="#2a9d8fDF"/><path d="M-99.3-158.4a10.4 10.4 0 1 1 0-20.9 10.4 10.4 0 0 1 0 20.9" fill="#264653E0"/><path d="M133.2-347.3a10.5 10.5 0 1 1 0-21 10.5 10.5 0 0 1 0 21" fill="#2a9d8fE1"/><path d="M-50.8-29.6a10.5 10.5 0 1 1 0-21.1 10.5 10.5 0 0 1 0 21.1" fill="#264653E3"/><path d="M38.7-332.7a10.6 10.6 0 1 1 0-21.2 10.6 10.6 0 0 1 0 21.2" fill="#e76f51E4"/><path d="M48.2 31.6a10.6 10.6 0 1 1 0-21.2 10.6 10.6 0 0 1 0 21.2" fill="#f4a261E4"/><path d="M127-340.6a10.6 10.6 0 1 1 0-21.2 10.6 10.6 0 0 1 0 21.2" fill="#e76f51E4"/><path d="M-21.4-6.4a10.6 10.6 0 1 1 0-21.2 10.6 10.6 0 0 1 0 21.2" fill="#f4a261E4"/><path d="M-34.4-18.6a10.6 10.6 0 1 1 0-21.2 10.6 10.6 0 0 1 0 21.2" fill="#264653E4"/><path d="M-75.2-95.1a10.7 10.7 0 1 1 0-21.4 10.7 10.7 0 0 1 0 21.4" fill="#e9c46aE6"/><path d="M242.5-43.5a10.8 10.8 0 1 1 0-21.6 10.8 10.8 0 0 1 0 21.6" fill="#f4a261E8"/><path d="M257.1-225.2a10.9 10.9 0 1 1 0-21.7 10.9 10.9 0 0 1 0 21.7" fill="#f4a261EA"/><path d="M88.1-323a10.9 10.9 0 1 1 0-21.8 10.9 10.9 0 0 1 0 21.8" fill="#e76f51EA"/><path d="M268.7-155.8a10.9 10.9 0 1 1 0-21.8 10.9 10.9 0 0 1 0 21.8" fill="#264653EB"/><path d="M-17.9-268.3a11 11 0 1 1 0-22 11 11 0 0 1 0 22" fill="#e76f51EC"/><path d="M209.3-271.7a11 11 0 1 1 0-22 11 11 0 0 1 0 22" fill="#2a9d8fED"/><path d="M249.8-214.2a11 11 0 1 1 0-22 11 11 0 0 1 0 22" fill="#f4a261ED"/><path d="M205-260.9a11.1 11.1 0 1 1 0-22.3 11.1 11.1 0 0 1 0 22.3" fill="#264653EF"/><path d="M211.9-52.5a11.1 11.1 0 1 1 0-22.3 11.1 11.1 0 0 1 0 22.3" fill="#e9c46aF0"/><path d="M242.4-111.5a11.2 11.2 0 1 1 0-22.3 11.2 11.2 0 0 1 0 22.3" fill="#e76f51F0"/><path d="M201.7-239.6a11.3 11.3 0 1 1 0-22.6 11.3 11.3 0 0 1 0 22.6" fill="#e9c46aF3"/><path d="M0.3-239.9a11.3 11.3 0 1 1 0-22.5 11.3 11.3 0 0 1 0 22.5" fill="#f4a261F3"/><path d="M150.7-28.9a11.3 11.3 0 1 1 0-22.6 11.3 11.3 0 0 1 0 22.6" fill="#f4a261F3"/><path d="M28.7-40.5a11.3 11.3 0 1 1 0-22.6 11.3 11.3 0 0 1 0 22.6" fill="#e76f51F3"/><path d="M-19.8-176.8a11.4 11.4 0 1 1 0-22.8 11.4 11.4 0 0 1 0 22.8" fill="#e76f51F5"/><path d="M114.3-267.6a11.4 11.4 0 1 1 0-22.9 11.4 11.4 0 0 1 0 22.9" fill="#e76f51F6"/><path d="M155.4-47.7a11.4 11.4 0 1 1 0-22.9 11.4 11.4 0 0 1 0 22.9" fill="#2a9d8fF6"/><path d="M149-252.2a11.5 11.5 0 1 1 0-23 11.5 11.5 0 0 1 0 23" fill="#2a9d8fF7"/><path d="M199.8-196.3a11.5 11.5 0 1 1 0-22.9 11.5 11.5 0 0 1 0 22.9" fill="#e76f51F7"/><path d="M-3.9-176.8a11.5 11.5 0 1 1 0-23 11.5 11.5 0 0 1 0 23" fill="#e9c46aF7"/><path d="M90.8-255.8a11.5 11.5 0 1 1 0-23 11.5 11.5 0 0 1 0 23" fill="#e9c46aF8"/><path d="M131.4-52a11.5 11.5 0 1 1 0-23 11.5 11.5 0 0 1 0 23" fill="#264653F8"/><path d="M73.9-251.4a11.5 11.5 0 1 1 0-23 11.5 11.5 0 0 1 0 23" fill="#264653F8"/><path d="M4.1-146.5a11.6 11.6 0 1 1 0-23.1 11.6 11.6 0 0 1 0 23.1" fill="#e76f51F9"/><path d="M12.6-128.1a11.6 11.6 0 1 1 0-23.2 11.6 11.6 0 0 1 0 23.2" fill="#e9c46aFA"/><path d="M187.1-164.3a11.6 11.6 0 1 1 0-23.2 11.6 11.6 0 0 1 0 23.2" fill="#264653FA"/><path d="M12.9-159.4a11.6 11.6 0 1 1 0-23.2 11.6 11.6 0 0 1 0 23.2" fill="#e9c46aFA"/><path d="M124.5-229.7a11.6 11.6 0 1 1 0-23.3 11.6 11.6 0 0 1 0 23.3" fill="#e76f51FA"/><path d="M78.6-76.8a11.7 11.7 0 1 1 0-23.3 11.7 11.7 0 0 1 0 23.3" fill="#e76f51FB"/><path d="M38.8-138a11.7 11.7 0 1 1 0-23.4 11.7 11.7 0 0 1 0 23.4" fill="#e76f51FC"/><path d="M107.7-208.7a11.7 11.7 0 1 1 0-23.4 11.7 11.7 0 0 1 0 23.4" fill="#2a9d8fFC"/><path d="M144.9-126.5a11.7 11.7 0 1 1 0-23.5 11.7 11.7 0 0 1 0 23.5" fill="#e9c46aFD"/><path d="M134.7-167.9a11.8 11.8 0 1 1 0-23.5 11.8 11.8 0 0 1 0 23.5" fill="#f4a261FE"/><path d="M75.1-175.7a11.8 11.8 0 1 1 0-23.5 11.8 11.8 0 0 1 0 23.5" fill="#264653FE"/><path d="M97.3-137.2a11.8 11.8 0 1 1 0-23.6 11.8 11.8 0 0 1 0 23.6" fill="#e76f51FE"/><path d="M99.8-153.9a11.8 11.8 0 1 1 0-23.6 11.8 11.8 0 0 1 0 23.6" fill="#e9c46aFE"/></g></svg>