<svg width="1200" height="675" viewBox="-500 -500 1200 675" xmlns="http://www.w3.org/2000/svg"><path d="M-500-500h1200v675h-1200z" fill="#000"/><style>.sparkles path{stroke-linecap:round; stroke-width:1}</style><g class="sparkles"><path d="M100-162.5l-68.6 37.4" stroke="#005bbb34"/><path d="M100-162.5l-73.6 49.7" stroke="#c2e1ff35"/><path d="M100-162.5l36.1 86.2" stroke="#fff36"/><path d="M100-162.5l48.6-82.6" stroke="#c2e1ff36"/><path d="M100-162.5l-64.9 77.7" stroke="#fff36"/><path d="M100-162.5l97.4 28.7" stroke="#005bbb36"/><path d="M100-162.5l93.3 65" stroke="#005bbb38"/><path d="M100-162.5l-82.6 82.8" stroke="#005bbb38"/><path d="M100-162.5l-124.7 25.8" stroke="#fff39"/><path d="M100-162.5l127.7 19.9" stroke="#fff5003A"/><path d="M100-162.5l-85.6-97.9" stroke="#c2e1ff3A"/><path d="M100-162.5l-127.9-38.4" stroke="#fff5003A"/><path d="M100-162.5l-18.1-133.7" stroke="#fff3A"/><path d="M100-162.5l13.6-134.7" stroke="#fff5003B"/><path d="M100-162.5l-48.2 128.8" stroke="#c2e1ff3B"/><path d="M100-162.5l136.5-50.7" stroke="#005bbb3C"/><path d="M100-162.5l135.7-53.3" stroke="#fff3C"/><path d="M100-162.5l-110.2-103.6" stroke="#005bbb3D"/><path d="M100-162.5l135.1-69.6" stroke="#fff3D"/><path d="M100-162.5l3.3 152.3" stroke="#c2e1ff3D"/><path d="M100-162.5l30.1-151" stroke="#fff5003E"/><path d="M100-162.5l84-130.5" stroke="#fff5003E"/><path d="M100-162.5l154.5-21.4" stroke="#c2e1ff3E"/><path d="M100-162.5l66.8 148.1" stroke="#c2e1ff3F"/><path d="M100-162.5l76.6 149.3" stroke="#005bbb40"/><path d="M100-162.5l-139.8-93.4" stroke="#fff50040"/><path d="M100-162.5l10.3 170.2" stroke="#fff50041"/><path d="M100-162.5l-171.8-9.1" stroke="#fff41"/><path d="M100-162.5l101.3-141.3" stroke="#c2e1ff42"/><path d="M100-162.5l84.1-157.8" stroke="#fff50043"/><path d="M100-162.5l1.5 179.6" stroke="#c2e1ff43"/><path d="M100-162.5l-68 168.5" stroke="#c2e1ff44"/><path d="M100-162.5l65.6 169.8" stroke="#fff44"/><path d="M100-162.5l-96.8 156.3" stroke="#fff44"/><path d="M100-162.5l43 179.4" stroke="#fff50044"/><path d="M100-162.5l183-30.2" stroke="#fff50045"/><path d="M100-162.5l0.7-186.8" stroke="#c2e1ff45"/><path d="M100-162.5l66.4 182.6" stroke="#fff50047"/><path d="M100-162.5l170.1-95.2" stroke="#fff50047"/><path d="M100-162.5l-185.4-80.3" stroke="#fff4A"/><path d="M100-162.5l-186.2 80.7" stroke="#005bbb4A"/><path d="M100-162.5l-82.9 185.7" stroke="#fff5004A"/><path d="M100-162.5l-149.2-143.8" stroke="#c2e1ff4B"/><path d="M100-162.5l-208.3 13.6" stroke="#c2e1ff4C"/><path d="M100-162.5l108.5-181.4" stroke="#005bbb4D"/><path d="M100-162.5l-141-157.7" stroke="#005bbb4D"/><path d="M100-162.5l107.6-182.5" stroke="#c2e1ff4D"/><path d="M100-162.5l123.9-172.8" stroke="#fff4E"/><path d="M100-162.5l-212.9-1.2" stroke="#fff5004E"/><path d="M100-162.5l72.2 203.9" stroke="#fff5004F"/><path d="M100-162.5l46.3-212.2" stroke="#005bbb50"/><path d="M100-162.5l-62.4 209.8" stroke="#fff51"/><path d="M100-162.5l186.5 114.7" stroke="#fff51"/><path d="M100-162.5l-164.5-144.9" stroke="#fff50051"/><path d="M100-162.5l64.5 213" stroke="#005bbb53"/><path d="M100-162.5l106.8-195.9" stroke="#005bbb53"/><path d="M100-162.5l24.8 222.4" stroke="#005bbb53"/><path d="M100-162.5l-203.9-94" stroke="#c2e1ff54"/><path d="M100-162.5l81.7 209.8" stroke="#c2e1ff54"/><path d="M100-162.5l-120.1 190.7" stroke="#fff50055"/><path d="M100-162.5l225.6 21.3" stroke="#fff55"/><path d="M100-162.5l-224.7-31.6" stroke="#c2e1ff56"/><path d="M100-162.5l22.8-227.7" stroke="#fff57"/><path d="M100-162.5l-215.3-78.6" stroke="#c2e1ff57"/><path d="M100-162.5l176.3 147.2" stroke="#fff50058"/><path d="M100-162.5l226.3-41" stroke="#fff58"/><path d="M100-162.5l-129.5-190.4" stroke="#fff58"/><path d="M100-162.5l-145.2 179.1" stroke="#005bbb59"/><path d="M100-162.5l-229.1-26.9" stroke="#fff59"/><path d="M100-162.5l162.1 164.3" stroke="#005bbb59"/><path d="M100-162.5l-191.7 129.2" stroke="#c2e1ff59"/><path d="M100-162.5l106.3-205.7" stroke="#005bbb5A"/><path d="M100-162.5l86.9 215" stroke="#fff5005A"/><path d="M100-162.5l203 113.1" stroke="#c2e1ff5A"/><path d="M100-162.5l-42.1 228.7" stroke="#fff5005B"/><path d="M100-162.5l225.6-56.5" stroke="#c2e1ff5B"/><path d="M100-162.5l115.7 202" stroke="#fff5005B"/><path d="M100-162.5l-228.1-48.8" stroke="#fff5005C"/><path d="M100-162.5l77.8 220" stroke="#c2e1ff5C"/><path d="M100-162.5l-232-26.5" stroke="#c2e1ff5C"/><path d="M100-162.5l-205.3-112.5" stroke="#005bbb5D"/><path d="M100-162.5l-214.4 94.6" stroke="#c2e1ff5D"/><path d="M100-162.5l188.2-139.8" stroke="#fff5005D"/><path d="M100-162.5l117.5-203.2" stroke="#fff5005E"/><path d="M100-162.5l155.2 176.3" stroke="#c2e1ff5E"/><path d="M100-162.5l33.1-232.8" stroke="#fff5005F"/><path d="M100-162.5l-199.8 124.1" stroke="#fff5005F"/><path d="M100-162.5l109.7 208.1" stroke="#fff5005F"/><path d="M100-162.5l-83.3 220.1" stroke="#c2e1ff5F"/><path d="M100-162.5l-223.4-74.3" stroke="#c2e1ff5F"/><path d="M100-162.5l51-230" stroke="#fff50060"/><path d="M100-162.5l-235.3-11.7" stroke="#fff60"/><path d="M100-162.5l-219.2-87" stroke="#fff50061"/><path d="M100-162.5l-235.6-12.1" stroke="#005bbb61"/><path d="M100-162.5l-105.4 211.2" stroke="#fff50061"/><path d="M100-162.5l-122.2 202.1" stroke="#fff50062"/><path d="M100-162.5l161.3 172.6" stroke="#005bbb63"/><path d="M100-162.5l71.2-225.2" stroke="#c2e1ff63"/><path d="M100-162.5l185.8 145.9" stroke="#fff63"/><path d="M100-162.5l180.1 152.9" stroke="#fff50063"/><path d="M100-162.5l-6.5-236.2" stroke="#fff50063"/><path d="M100-162.5l-64.4 227.3" stroke="#005bbb64"/><path d="M100-162.5l-153.3-179.7" stroke="#fff64"/><path d="M100-162.5l232.6-40.8" stroke="#005bbb65"/><path d="M100-162.5l-154.7-178.4" stroke="#fff50065"/><path d="M100-162.5l-228.5-59.2" stroke="#005bbb65"/><path d="M100-162.5l-229.7-54.2" stroke="#fff50066"/><path d="M100-162.5l-232.5-39.7" stroke="#005bbb66"/><path d="M100-162.5l-135.6 193.1" stroke="#005bbb66"/><path d="M100-162.5l235.4-7.4" stroke="#fff68"/><path d="M100-162.5l86.6-218.7" stroke="#fff68"/><path d="M100-162.5l-151.2 178.7" stroke="#fff6A"/><path d="M100-162.5l233 21.4" stroke="#fff6A"/><path d="M100-162.5l150.5 178.3" stroke="#005bbb6B"/><path d="M100-162.5l33.6 230.1" stroke="#fff6C"/><path d="M100-162.5l-29.9-230" stroke="#fff6D"/><path d="M100-162.5l6 231.7" stroke="#fff6D"/><path d="M100-162.5l208.9 98" stroke="#fff5006E"/><path d="M100-162.5l216.8 78.3" stroke="#005bbb6E"/><path d="M100-162.5l-179.6-143.9" stroke="#fff6F"/><path d="M100-162.5l178.3 144.3" stroke="#fff5006F"/><path d="M100-162.5l-147.7 175.4" stroke="#fff50070"/><path d="M100-162.5l-228.6 13.7" stroke="#fff50070"/><path d="M100-162.5l208.9-93.4" stroke="#fff70"/><path d="M100-162.5l-173.6 147" stroke="#005bbb71"/><path d="M100-162.5l-88.7 209.3" stroke="#fff71"/><path d="M100-162.5l-140.5-177.7" stroke="#c2e1ff72"/><path d="M100-162.5l-38 221.1" stroke="#005bbb73"/><path d="M100-162.5l183.7 122.5" stroke="#fff75"/><path d="M100-162.5l38.1 216.3" stroke="#fff76"/><path d="M100-162.5l-84.4 202.7" stroke="#fff76"/><path d="M100-162.5l174.9 131.3" stroke="#005bbb76"/><path d="M100-162.5l181.3-118.9" stroke="#c2e1ff77"/><path d="M100-162.5l216.7 0" stroke="#005bbb77"/><path d="M100-162.5l-54.2-209.3" stroke="#fff50078"/><path d="M100-162.5l66.6 205.5" stroke="#005bbb78"/><path d="M100-162.5l78.4 201.3" stroke="#005bbb78"/><path d="M100-162.5l-214.3 15.3" stroke="#fff50078"/><path d="M100-162.5l-190.1-99.3" stroke="#005bbb78"/><path d="M100-162.5l-212.2-4.6" stroke="#fff50079"/><path d="M100-162.5l152.9-143.4" stroke="#005bbb7B"/><path d="M100-162.5l-106.5-179.7" stroke="#fff5007B"/><path d="M100-162.5l190.3-82.8" stroke="#fff5007B"/><path d="M100-162.5l-137.2 155.2" stroke="#c2e1ff7C"/><path d="M100-162.5l-205.4-26.4" stroke="#fff5007C"/><path d="M100-162.5l-163.2 117.8" stroke="#fff5007E"/><path d="M100-162.5l177.4-91.1" stroke="#c2e1ff7E"/><path d="M100-162.5l-123.8 151.1" stroke="#005bbb80"/><path d="M100-162.5l23.2-193.6" stroke="#fff50080"/><path d="M100-162.5l-53.6 181" stroke="#fff50082"/><path d="M100-162.5l-185.2 4.9" stroke="#fff83"/><path d="M100-162.5l168.7 75.9" stroke="#fff83"/><path d="M100-162.5l-136.6-123.6" stroke="#005bbb83"/><path d="M100-162.5l-115.8-142.4" stroke="#c2e1ff83"/><path d="M100-162.5l177.8-33.9" stroke="#fff84"/><path d="M100-162.5l-89.9-154.9" stroke="#005bbb84"/><path d="M100-162.5l-37-174.1" stroke="#005bbb84"/><path d="M100-162.5l65.3-160.7" stroke="#fff50085"/><path d="M100-162.5l-169.6 33.6" stroke="#fff50086"/><path d="M100-162.5l-107.4 126.9" stroke="#fff50087"/><path d="M100-162.5l-148 66.7" stroke="#fff50088"/><path d="M100-162.5l-160-9.3" stroke="#fff50088"/><path d="M100-162.5l144.6 57.3" stroke="#fff89"/><path d="M100-162.5l42.7-148.6" stroke="#fff89"/><path d="M100-162.5l-143.4-57.1" stroke="#fff89"/><path d="M100-162.5l20.9 149.8" stroke="#fff8A"/><path d="M100-162.5l-133.7-53.9" stroke="#fff5008B"/><path d="M100-162.5l126.4 64.9" stroke="#005bbb8B"/><path d="M100-162.5l-31.7 132.8" stroke="#fff5008C"/><path d="M100-162.5l-126.4-45.7" stroke="#005bbb8D"/><path d="M100-162.5l-77.2 100.2" stroke="#005bbb8E"/><path d="M100-162.5l-122.6-16.3" stroke="#fff8E"/><path d="M100-162.5l-85 88" stroke="#005bbb8E"/><path d="M100-162.5l118.4 1.2" stroke="#fff8F"/><path d="M100-162.5l105.2-1.8" stroke="#c2e1ff90"/><path d="M100-162.5l89.3 49.4" stroke="#005bbb91"/><path d="M100-162.5l75.1 53" stroke="#fff50092"/><path d="M100-162.5l-63.4 32.9" stroke="#005bbb93"/><path d="M100-162.5l-61.4 19.6" stroke="#005bbb94"/><path d="M100-162.5l-47.7 6.4" stroke="#fff50094"/><path d="M100-162.5l-1.1-13.8" stroke="#fff95"/></g><g class="sparcs"><path d="M31.4-119a6.1 6.1 0 1 1 0-12.2 6.1 6.1 0 0 1 0 12.2" fill="#005bbb80"/><path d="M26.4-106.6a6.1 6.1 0 1 1 0-12.3 6.1 6.1 0 0 1 0 12.3" fill="#c2e1ff81"/><path d="M136.1-70.1a6.1 6.1 0 1 1 0-12.3 6.1 6.1 0 0 1 0 12.3" fill="#fff50082"/><path d="M148.6-238.9a6.2 6.2 0 1 1 0-12.3 6.2 6.2 0 0 1 0 12.3" fill="#c2e1ff82"/><path d="M35.1-78.6a6.2 6.2 0 1 1 0-12.4 6.2 6.2 0 0 1 0 12.4" fill="#fff83"/><path d="M197.4-127.6a6.2 6.2 0 1 1 0-12.4 6.2 6.2 0 0 1 0 12.4" fill="#005bbb83"/><path d="M193.3-91.2a6.3 6.3 0 1 1 0-12.5 6.3 6.3 0 0 1 0 12.5" fill="#c2e1ff85"/><path d="M17.4-73.4a6.3 6.3 0 1 1 0-12.6 6.3 6.3 0 0 1 0 12.6" fill="#fff85"/><path d="M-24.7-130.4a6.4 6.4 0 1 1 0-12.7 6.4 6.4 0 0 1 0 12.7" fill="#005bbb87"/><path d="M227.7-136.2a6.4 6.4 0 1 1 0-12.8 6.4 6.4 0 0 1 0 12.8" fill="#005bbb87"/><path d="M14.4-254a6.4 6.4 0 1 1 0-12.8 6.4 6.4 0 0 1 0 12.8" fill="#005bbb87"/><path d="M-27.9-194.5a6.4 6.4 0 1 1 0-12.8 6.4 6.4 0 0 1 0 12.8" fill="#005bbb88"/><path d="M81.9-289.8a6.4 6.4 0 1 1 0-12.8 6.4 6.4 0 0 1 0 12.8" fill="#fff88"/><path d="M113.6-290.8a6.4 6.4 0 1 1 0-12.8 6.4 6.4 0 0 1 0 12.8" fill="#fff50088"/><path d="M51.8-27.2a6.5 6.5 0 1 1 0-12.9 6.5 6.5 0 0 1 0 12.9" fill="#005bbb89"/><path d="M236.5-206.6a6.5 6.5 0 1 1 0-13.1 6.5 6.5 0 0 1 0 13.1" fill="#fff5008A"/><path d="M235.7-209.3a6.5 6.5 0 1 1 0-13 6.5 6.5 0 0 1 0 13" fill="#005bbb8A"/><path d="M-10.2-259.5a6.6 6.6 0 1 1 0-13.2 6.6 6.6 0 0 1 0 13.2" fill="#005bbb8C"/><path d="M235.1-225.5a6.6 6.6 0 1 1 0-13.2 6.6 6.6 0 0 1 0 13.2" fill="#fff5008C"/><path d="M103.3-3.6a6.6 6.6 0 1 1 0-13.2 6.6 6.6 0 0 1 0 13.2" fill="#fff5008C"/><path d="M130.1-306.9a6.6 6.6 0 1 1 0-13.2 6.6 6.6 0 0 1 0 13.2" fill="#005bbb8C"/><path d="M184-286.3a6.6 6.6 0 1 1 0-13.3 6.6 6.6 0 0 1 0 13.3" fill="#fff8C"/><path d="M254.5-177.3a6.6 6.6 0 1 1 0-13.3 6.6 6.6 0 0 1 0 13.3" fill="#fff8D"/><path d="M166.8-7.7a6.7 6.7 0 1 1 0-13.4 6.7 6.7 0 0 1 0 13.4" fill="#c2e1ff8E"/><path d="M176.6-6.4a6.8 6.8 0 1 1 0-13.6 6.8 6.8 0 0 1 0 13.6" fill="#fff50090"/><path d="M-39.8-249.1a6.8 6.8 0 1 1 0-13.6 6.8 6.8 0 0 1 0 13.6" fill="#005bbb90"/><path d="M110.3 14.5a6.8 6.8 0 1 1 0-13.7 6.8 6.8 0 0 1 0 13.7" fill="#c2e1ff90"/><path d="M-71.8-164.8a6.8 6.8 0 1 1 0-13.6 6.8 6.8 0 0 1 0 13.6" fill="#005bbb91"/><path d="M201.3-296.9a6.9 6.9 0 1 1 0-13.7 6.9 6.9 0 0 1 0 13.7" fill="#005bbb91"/><path d="M184.1-313.4a6.9 6.9 0 1 1 0-13.8 6.9 6.9 0 0 1 0 13.8" fill="#005bbb93"/><path d="M101.5 24a6.9 6.9 0 1 1 0-13.8 6.9 6.9 0 0 1 0 13.8" fill="#fff50093"/><path d="M32 13a7 7 0 1 1 0-13.9 7 7 0 0 1 0 13.9" fill="#fff50094"/><path d="M165.6 14.3a7 7 0 1 1 0-14 7 7 0 0 1 0 14" fill="#005bbb94"/><path d="M3.2 0.8a7 7 0 1 1 0-14 7 7 0 0 1 0 14" fill="#c2e1ff95"/><path d="M143 23.9a7 7 0 1 1 0-14.1 7 7 0 0 1 0 14.1" fill="#005bbb95"/><path d="M283-185.6a7 7 0 1 1 0-14.1 7 7 0 0 1 0 14.1" fill="#fff95"/><path d="M100.7-342.2a7.1 7.1 0 1 1 0-14.1 7.1 7.1 0 0 1 0 14.1" fill="#fff96"/><path d="M166.4 27.2a7.2 7.2 0 1 1 0-14.3 7.2 7.2 0 0 1 0 14.3" fill="#005bbb99"/><path d="M270.1-250.5a7.2 7.2 0 1 1 0-14.4 7.2 7.2 0 0 1 0 14.4" fill="#fff99"/><path d="M-85.4-235.5a7.3 7.3 0 1 1 0-14.6 7.3 7.3 0 0 1 0 14.6" fill="#c2e1ff9C"/><path d="M-86.2-74.5a7.3 7.3 0 1 1 0-14.7 7.3 7.3 0 0 1 0 14.7" fill="#fff5009C"/><path d="M17.1 30.5a7.4 7.4 0 1 1 0-14.7 7.4 7.4 0 0 1 0 14.7" fill="#005bbb9C"/><path d="M-49.2-298.9a7.4 7.4 0 1 1 0-14.8 7.4 7.4 0 0 1 0 14.8" fill="#fff5009E"/><path d="M-108.3-141.4a7.5 7.5 0 1 1 0-15 7.5 7.5 0 0 1 0 15" fill="#c2e1ff9F"/><path d="M208.5-336.3a7.5 7.5 0 1 1 0-15.1 7.5 7.5 0 0 1 0 15.1" fill="#fffA0"/><path d="M-41-312.6a7.5 7.5 0 1 1 0-15.1 7.5 7.5 0 0 1 0 15.1" fill="#fffA1"/><path d="M207.6-337.5a7.6 7.6 0 1 1 0-15.1 7.6 7.6 0 0 1 0 15.1" fill="#c2e1ffA1"/><path d="M223.9-327.7a7.6 7.6 0 1 1 0-15.2 7.6 7.6 0 0 1 0 15.2" fill="#005bbbA1"/><path d="M-112.9-156.1a7.6 7.6 0 1 1 0-15.1 7.6 7.6 0 0 1 0 15.1" fill="#c2e1ffA1"/><path d="M172.2 49.1a7.7 7.7 0 1 1 0-15.4 7.7 7.7 0 0 1 0 15.4" fill="#005bbbA3"/><path d="M146.3-367a7.7 7.7 0 1 1 0-15.4 7.7 7.7 0 0 1 0 15.4" fill="#005bbbA4"/><path d="M37.6 55a7.7 7.7 0 1 1 0-15.4 7.7 7.7 0 0 1 0 15.4" fill="#c2e1ffA5"/><path d="M286.5-40a7.7 7.7 0 1 1 0-15.5 7.7 7.7 0 0 1 0 15.5" fill="#fffA5"/><path d="M-64.5-299.6a7.8 7.8 0 1 1 0-15.6 7.8 7.8 0 0 1 0 15.6" fill="#fffA5"/><path d="M164.5 58.3a7.9 7.9 0 1 1 0-15.7 7.9 7.9 0 0 1 0 15.7" fill="#fff500A8"/><path d="M206.8-350.5a7.9 7.9 0 1 1 0-15.8 7.9 7.9 0 0 1 0 15.8" fill="#005bbbA8"/><path d="M124.8 67.9a7.9 7.9 0 1 1 0-15.9 7.9 7.9 0 0 1 0 15.9" fill="#fff500A9"/><path d="M-103.9-248.6a7.9 7.9 0 1 1 0-15.8 7.9 7.9 0 0 1 0 15.8" fill="#fffA9"/><path d="M181.7 55.3a8 8 0 1 1 0-15.9 8 8 0 0 1 0 15.9" fill="#c2e1ffAA"/><path d="M-20.1 36.2a8 8 0 1 1 0-16 8 8 0 0 1 0 16" fill="#fff500AA"/><path d="M325.6-133.2a8 8 0 1 1 0-16.1 8 8 0 0 1 0 16.1" fill="#fffAB"/><path d="M-124.7-186.1a8 8 0 1 1 0-16 8 8 0 0 1 0 16" fill="#005bbbAB"/><path d="M122.8-382a8.1 8.1 0 1 1 0-16.3 8.1 8.1 0 0 1 0 16.3" fill="#005bbbAD"/><path d="M-115.3-233a8.1 8.1 0 1 1 0-16.3 8.1 8.1 0 0 1 0 16.3" fill="#005bbbAE"/><path d="M276.3-7.1a8.2 8.2 0 1 1 0-16.4 8.2 8.2 0 0 1 0 16.4" fill="#c2e1ffAE"/><path d="M326.3-195.4a8.2 8.2 0 1 1 0-16.3 8.2 8.2 0 0 1 0 16.3" fill="#fffAF"/><path d="M-29.5-344.7a8.2 8.2 0 1 1 0-16.4 8.2 8.2 0 0 1 0 16.4" fill="#005bbbAF"/><path d="M-45.2 24.8a8.2 8.2 0 1 1 0-16.4 8.2 8.2 0 0 1 0 16.4" fill="#fff500AF"/><path d="M-129.1-181.2a8.2 8.2 0 1 1 0-16.4 8.2 8.2 0 0 1 0 16.4" fill="#c2e1ffAF"/><path d="M262.1 10a8.2 8.2 0 1 1 0-16.5 8.2 8.2 0 0 1 0 16.5" fill="#c2e1ffB0"/><path d="M-91.7-25.1a8.3 8.3 0 1 1 0-16.5 8.3 8.3 0 0 1 0 16.5" fill="#005bbbB0"/><path d="M206.3-359.9a8.3 8.3 0 1 1 0-16.6 8.3 8.3 0 0 1 0 16.6" fill="#c2e1ffB1"/><path d="M186.9 60.8a8.3 8.3 0 1 1 0-16.6 8.3 8.3 0 0 1 0 16.6" fill="#fff500B1"/><path d="M303-41.1a8.3 8.3 0 1 1 0-16.7 8.3 8.3 0 0 1 0 16.7" fill="#c2e1ffB2"/><path d="M57.9 74.5a8.3 8.3 0 1 1 0-16.6 8.3 8.3 0 0 1 0 16.6" fill="#c2e1ffB2"/><path d="M325.6-210.6a8.3 8.3 0 1 1 0-16.7 8.3 8.3 0 0 1 0 16.7" fill="#c2e1ffB2"/><path d="M215.7 47.9a8.4 8.4 0 1 1 0-16.7 8.4 8.4 0 0 1 0 16.7" fill="#c2e1ffB2"/><path d="M-128.1-202.9a8.4 8.4 0 1 1 0-16.8 8.4 8.4 0 0 1 0 16.8" fill="#c2e1ffB3"/><path d="M177.8 65.9a8.4 8.4 0 1 1 0-16.8 8.4 8.4 0 0 1 0 16.8" fill="#005bbbB3"/><path d="M-132-180.6a8.4 8.4 0 1 1 0-16.8 8.4 8.4 0 0 1 0 16.8" fill="#fffB4"/><path d="M-105.3-266.5a8.5 8.5 0 1 1 0-16.9 8.5 8.5 0 0 1 0 16.9" fill="#fff500B5"/><path d="M-114.4-59.4a8.5 8.5 0 1 1 0-17 8.5 8.5 0 0 1 0 17" fill="#005bbbB5"/><path d="M288.2-293.8a8.5 8.5 0 1 1 0-17 8.5 8.5 0 0 1 0 17" fill="#fffB5"/><path d="M217.5-357.2a8.5 8.5 0 1 1 0-17 8.5 8.5 0 0 1 0 17" fill="#c2e1ffB6"/><path d="M255.2 22.4a8.5 8.5 0 1 1 0-17.1 8.5 8.5 0 0 1 0 17.1" fill="#005bbbB7"/><path d="M133.1-386.8a8.6 8.6 0 1 1 0-17.1 8.6 8.6 0 0 1 0 17.1" fill="#fff500B7"/><path d="M-99.8-29.8a8.6 8.6 0 1 1 0-17.1 8.6 8.6 0 0 1 0 17.1" fill="#005bbbB7"/><path d="M209.7 54.2a8.6 8.6 0 1 1 0-17.2 8.6 8.6 0 0 1 0 17.2" fill="#fff500B7"/><path d="M16.7 66.2a8.6 8.6 0 1 1 0-17.2 8.6 8.6 0 0 1 0 17.2" fill="#fffB8"/><path d="M-123.4-228.2a8.6 8.6 0 1 1 0-17.2 8.6 8.6 0 0 1 0 17.2" fill="#fff500B8"/><path d="M151-383.8a8.6 8.6 0 1 1 0-17.3 8.6 8.6 0 0 1 0 17.3" fill="#fffB9"/><path d="M-135.3-165.6a8.6 8.6 0 1 1 0-17.3 8.6 8.6 0 0 1 0 17.3" fill="#005bbbB9"/><path d="M-119.2-240.8a8.7 8.7 0 1 1 0-17.4 8.7 8.7 0 0 1 0 17.4" fill="#fff500BA"/><path d="M-135.6-165.9a8.7 8.7 0 1 1 0-17.4 8.7 8.7 0 0 1 0 17.4" fill="#fffBA"/><path d="M-5.4 57.4a8.7 8.7 0 1 1 0-17.4 8.7 8.7 0 0 1 0 17.4" fill="#005bbbBB"/><path d="M-22.2 48.4a8.8 8.8 0 1 1 0-17.6 8.8 8.8 0 0 1 0 17.6" fill="#c2e1ffBC"/><path d="M261.3 18.9a8.8 8.8 0 1 1 0-17.6 8.8 8.8 0 0 1 0 17.6" fill="#c2e1ffBC"/><path d="M171.2-378.9a8.8 8.8 0 1 1 0-17.6 8.8 8.8 0 0 1 0 17.6" fill="#c2e1ffBC"/><path d="M285.8-7.8a8.8 8.8 0 1 1 0-17.7 8.8 8.8 0 0 1 0 17.7" fill="#fffBD"/><path d="M280.1-0.8a8.8 8.8 0 1 1 0-17.7 8.8 8.8 0 0 1 0 17.7" fill="#005bbbBD"/><path d="M93.5-389.8a8.8 8.8 0 1 1 0-17.7 8.8 8.8 0 0 1 0 17.7" fill="#005bbbBD"/><path d="M35.6 73.7a8.9 8.9 0 1 1 0-17.8 8.9 8.9 0 0 1 0 17.8" fill="#fff500BE"/><path d="M-53.3-333.3a8.9 8.9 0 1 1 0-17.8 8.9 8.9 0 0 1 0 17.8" fill="#c2e1ffBE"/><path d="M332.6-194.4a8.9 8.9 0 1 1 0-17.8 8.9 8.9 0 0 1 0 17.8" fill="#fffBF"/><path d="M-54.7-332a8.9 8.9 0 1 1 0-17.9 8.9 8.9 0 0 1 0 17.9" fill="#c2e1ffBF"/><path d="M-128.5-212.7a9 9 0 1 1 0-18 9 9 0 0 1 0 18" fill="#c2e1ffC0"/><path d="M-129.7-207.7a9 9 0 1 1 0-18 9 9 0 0 1 0 18" fill="#c2e1ffC1"/><path d="M-132.5-193.2a9 9 0 1 1 0-18 9 9 0 0 1 0 18" fill="#fffC1"/><path d="M-35.6 39.6a9 9 0 1 1 0-18.1 9 9 0 0 1 0 18.1" fill="#005bbbC1"/><path d="M335.4-160.8a9.1 9.1 0 1 1 0-18.2 9.1 9.1 0 0 1 0 18.2" fill="#fffC3"/><path d="M186.6-372a9.1 9.1 0 1 1 0-18.3 9.1 9.1 0 0 1 0 18.3" fill="#005bbbC4"/><path d="M-51.2 25.5a9.3 9.3 0 1 1 0-18.5 9.3 9.3 0 0 1 0 18.5" fill="#005bbbC6"/><path d="M333-131.8a9.3 9.3 0 1 1 0-18.5 9.3 9.3 0 0 1 0 18.5" fill="#fffC6"/><path d="M250.5 25.1a9.3 9.3 0 1 1 0-18.7 9.3 9.3 0 0 1 0 18.7" fill="#005bbbC8"/><path d="M133.6 77a9.4 9.4 0 1 1 0-18.8 9.4 9.4 0 0 1 0 18.8" fill="#c2e1ffC9"/><path d="M70.1-383.1a9.4 9.4 0 1 1 0-18.8 9.4 9.4 0 0 1 0 18.8" fill="#c2e1ffCA"/><path d="M106 78.7a9.4 9.4 0 1 1 0-18.9 9.4 9.4 0 0 1 0 18.9" fill="#fffCA"/><path d="M308.9-55a9.5 9.5 0 1 1 0-19 9.5 9.5 0 0 1 0 19" fill="#c2e1ffCB"/><path d="M316.8-74.6a9.5 9.5 0 1 1 0-19.1 9.5 9.5 0 0 1 0 19.1" fill="#fffCC"/><path d="M-79.6-296.9a9.5 9.5 0 1 1 0-19.1 9.5 9.5 0 0 1 0 19.1" fill="#c2e1ffCC"/><path d="M278.3-8.6a9.6 9.6 0 1 1 0-19.2 9.6 9.6 0 0 1 0 19.2" fill="#c2e1ffCD"/><path d="M-47.7 22.5a9.6 9.6 0 1 1 0-19.1 9.6 9.6 0 0 1 0 19.1" fill="#c2e1ffCD"/><path d="M-128.6-139.2a9.6 9.6 0 1 1 0-19.2 9.6 9.6 0 0 1 0 19.2" fill="#c2e1ffCD"/><path d="M308.9-246.3a9.6 9.6 0 1 1 0-19.2 9.6 9.6 0 0 1 0 19.2" fill="#c2e1ffCE"/><path d="M-73.6-5.9a9.7 9.7 0 1 1 0-19.3 9.7 9.7 0 0 1 0 19.3" fill="#005bbbCF"/><path d="M11.3 56.5a9.7 9.7 0 1 1 0-19.3 9.7 9.7 0 0 1 0 19.3" fill="#fff500CF"/><path d="M-40.5-330.5a9.7 9.7 0 1 1 0-19.4 9.7 9.7 0 0 1 0 19.4" fill="#fffD0"/><path d="M62 68.4a9.8 9.8 0 1 1 0-19.5 9.8 9.8 0 0 1 0 19.5" fill="#c2e1ffD2"/><path d="M283.7-30.1a9.9 9.9 0 1 1 0-19.9 9.9 9.9 0 0 1 0 19.9" fill="#c2e1ffD5"/><path d="M138.1 63.7a9.9 9.9 0 1 1 0-19.9 9.9 9.9 0 0 1 0 19.9" fill="#fffD5"/><path d="M15.6 50.1a9.9 9.9 0 1 1 0-19.9 9.9 9.9 0 0 1 0 19.9" fill="#fffD6"/><path d="M274.9-21.2a10 10 0 1 1 0-19.9 10 10 0 0 1 0 19.9" fill="#005bbbD6"/><path d="M281.3-271.4a10 10 0 1 1 0-20 10 10 0 0 1 0 20" fill="#fff500D7"/><path d="M316.7-152.5a10 10 0 1 1 0-20 10 10 0 0 1 0 20" fill="#c2e1ffD7"/><path d="M45.8-361.7a10.1 10.1 0 1 1 0-20.1 10.1 10.1 0 0 1 0 20.1" fill="#fffD8"/><path d="M166.6 53a10.1 10.1 0 1 1 0-20.1 10.1 10.1 0 0 1 0 20.1" fill="#c2e1ffD8"/><path d="M178.4 48.8a10.1 10.1 0 1 1 0-20.1 10.1 10.1 0 0 1 0 20.1" fill="#005bbbD8"/><path d="M-114.3-137.1a10.1 10.1 0 1 1 0-20.1 10.1 10.1 0 0 1 0 20.1" fill="#005bbbD9"/><path d="M-90.1-251.7a10.1 10.1 0 1 1 0-20.2 10.1 10.1 0 0 1 0 20.2" fill="#fff500D9"/><path d="M-112.2-156.9a10.2 10.2 0 1 1 0-20.4 10.2 10.2 0 0 1 0 20.4" fill="#c2e1ffDA"/><path d="M252.9-295.7a10.2 10.2 0 1 1 0-20.4 10.2 10.2 0 0 1 0 20.4" fill="#fff500DB"/><path d="M-6.5-332a10.2 10.2 0 1 1 0-20.5 10.2 10.2 0 0 1 0 20.5" fill="#fffDC"/><path d="M290.3-235.1a10.3 10.3 0 1 1 0-20.5 10.3 10.3 0 0 1 0 20.5" fill="#c2e1ffDD"/><path d="M-37.2 3a10.3 10.3 0 1 1 0-20.6 10.3 10.3 0 0 1 0 20.6" fill="#fffDD"/><path d="M-105.4-178.6a10.3 10.3 0 1 1 0-20.6 10.3 10.3 0 0 1 0 20.6" fill="#fffDD"/><path d="M-63.2-34.3a10.4 10.4 0 1 1 0-20.8 10.4 10.4 0 0 1 0 20.8" fill="#fff500E0"/><path d="M277.4-243.2a10.4 10.4 0 1 1 0-20.9 10.4 10.4 0 0 1 0 20.9" fill="#fffE0"/><path d="M-23.8-0.9a10.5 10.5 0 1 1 0-21 10.5 10.5 0 0 1 0 21" fill="#005bbbE2"/><path d="M123.2-345.6a10.5 10.5 0 1 1 0-21 10.5 10.5 0 0 1 0 21" fill="#c2e1ffE2"/><path d="M46.4 29.1a10.6 10.6 0 1 1 0-21.2 10.6 10.6 0 0 1 0 21.2" fill="#c2e1ffE5"/><path d="M-85.2-146.9a10.7 10.7 0 1 1 0-21.4 10.7 10.7 0 0 1 0 21.4" fill="#005bbbE6"/><path d="M268.7-75.9a10.7 10.7 0 1 1 0-21.4 10.7 10.7 0 0 1 0 21.4" fill="#fff500E6"/><path d="M-36.6-275.4a10.7 10.7 0 1 1 0-21.4 10.7 10.7 0 0 1 0 21.4" fill="#c2e1ffE6"/><path d="M-15.8-294.2a10.7 10.7 0 1 1 0-21.4 10.7 10.7 0 0 1 0 21.4" fill="#fffE6"/><path d="M277.8-185.7a10.8 10.8 0 1 1 0-21.5 10.8 10.8 0 0 1 0 21.5" fill="#c2e1ffE7"/><path d="M10.1-306.6a10.8 10.8 0 1 1 0-21.6 10.8 10.8 0 0 1 0 21.6" fill="#fff500E8"/><path d="M63-325.8a10.8 10.8 0 1 1 0-21.6 10.8 10.8 0 0 1 0 21.6" fill="#fffE8"/><path d="M165.3-312.4a10.9 10.9 0 1 1 0-21.7 10.9 10.9 0 0 1 0 21.7" fill="#005bbbEA"/><path d="M-69.6-118.1a10.9 10.9 0 1 1 0-21.7 10.9 10.9 0 0 1 0 21.7" fill="#005bbbEA"/><path d="M-7.4-24.7a11 11 0 1 1 0-21.9 11 11 0 0 1 0 21.9" fill="#005bbbEC"/><path d="M-48-84.8a11 11 0 1 1 0-22 11 11 0 0 1 0 22" fill="#005bbbED"/><path d="M-60-160.8a11 11 0 1 1 0-22 11 11 0 0 1 0 22" fill="#c2e1ffED"/><path d="M244.6-94.1a11.1 11.1 0 1 1 0-22.2 11.1 11.1 0 0 1 0 22.2" fill="#005bbbEE"/><path d="M142.7-300a11.1 11.1 0 1 1 0-22.2 11.1 11.1 0 0 1 0 22.2" fill="#fffEF"/><path d="M-43.4-208.5a11.1 11.1 0 1 1 0-22.2 11.1 11.1 0 0 1 0 22.2" fill="#c2e1ffEF"/><path d="M120.9-1.5a11.1 11.1 0 1 1 0-22.3 11.1 11.1 0 0 1 0 22.3" fill="#fff500EF"/><path d="M-33.7-205.2a11.2 11.2 0 1 1 0-22.4 11.2 11.2 0 0 1 0 22.4" fill="#005bbbF1"/><path d="M226.4-86.4a11.2 11.2 0 1 1 0-22.4 11.2 11.2 0 0 1 0 22.4" fill="#005bbbF1"/><path d="M68.3-18.4a11.3 11.3 0 1 1 0-22.6 11.3 11.3 0 0 1 0 22.6" fill="#c2e1ffF3"/><path d="M-26.4-196.9a11.3 11.3 0 1 1 0-22.5 11.3 11.3 0 0 1 0 22.5" fill="#c2e1ffF3"/><path d="M22.8-51a11.4 11.4 0 1 1 0-22.7 11.4 11.4 0 0 1 0 22.7" fill="#c2e1ffF4"/><path d="M-22.6-167.4a11.4 11.4 0 1 1 0-22.7 11.4 11.4 0 0 1 0 22.7" fill="#fffF5"/><path d="M15-63.2a11.4 11.4 0 1 1 0-22.7 11.4 11.4 0 0 1 0 22.7" fill="#fff500F5"/><path d="M218.4-149.8a11.4 11.4 0 1 1 0-22.9 11.4 11.4 0 0 1 0 22.9" fill="#c2e1ffF6"/><path d="M205.2-152.8a11.5 11.5 0 1 1 0-23 11.5 11.5 0 0 1 0 23" fill="#fff500F8"/><path d="M189.3-101.6a11.5 11.5 0 1 1 0-23 11.5 11.5 0 0 1 0 23" fill="#c2e1ffF8"/><path d="M175.1-97.9a11.6 11.6 0 1 1 0-23.2 11.6 11.6 0 0 1 0 23.2" fill="#005bbbF9"/><path d="M36.6-117.9a11.7 11.7 0 1 1 0-23.4 11.7 11.7 0 0 1 0 23.4" fill="#fffFB"/><path d="M38.6-131.2a11.7 11.7 0 1 1 0-23.4 11.7 11.7 0 0 1 0 23.4" fill="#fff500FC"/><path d="M52.3-144.3a11.8 11.8 0 1 1 0-23.5 11.8 11.8 0 0 1 0 23.5" fill="#fffFD"/><path d="M98.9-164.5a11.8 11.8 0 1 1 0-23.6 11.8 11.8 0 0 1 0 23.6" fill="#c2e1ffFE"/></g></svg>