<svg width="1200" height="675" viewBox="-500 -500 1200 675" xmlns="http://www.w3.org/2000/svg"><path d="M-500-500h1200v675h-1200z" fill="#000"/><style>.sparkles path{stroke-linecap:round; stroke-width:1}</style><g class="sparkles"><path d="M100-162.5l-15.1-26.4" stroke="#00356632"/><path d="M100-162.5l0.6-56.4" stroke="#00356633"/><path d="M100-162.5l-23.3-59.2" stroke="#00081433"/><path d="M100-162.5l69.2-53.9" stroke="#00356635"/><path d="M100-162.5l24.8 89.1" stroke="#00081435"/><path d="M100-162.5l-71.9-79.3" stroke="#001d3d37"/><path d="M100-162.5l-35.5-101.1" stroke="#ffc30037"/><path d="M100-162.5l-110.4-3.8" stroke="#00356637"/><path d="M100-162.5l55 97.8" stroke="#001d3d37"/><path d="M100-162.5l70.7-88.5" stroke="#00356638"/><path d="M100-162.5l-115 12.4" stroke="#001d3d38"/><path d="M100-162.5l109 40.7" stroke="#ffd60a38"/><path d="M100-162.5l87.1-77.2" stroke="#ffd60a38"/><path d="M100-162.5l-62.8-108" stroke="#ffc30039"/><path d="M100-162.5l-119 39.9" stroke="#ffd60a39"/><path d="M100-162.5l110.9 61.2" stroke="#ffc30039"/><path d="M100-162.5l-104.9 73.5" stroke="#001d3d39"/><path d="M100-162.5l-42.6-126.9" stroke="#ffc3003A"/><path d="M100-162.5l139-2.8" stroke="#ffc3003B"/><path d="M100-162.5l-132 47.4" stroke="#ffd60a3B"/><path d="M100-162.5l-8 144.5" stroke="#ffd60a3C"/><path d="M100-162.5l-99.2-116.9" stroke="#0008143D"/><path d="M100-162.5l119.8-95.7" stroke="#0008143D"/><path d="M100-162.5l-137 97.9" stroke="#00081440"/><path d="M100-162.5l22.1-168.8" stroke="#00356641"/><path d="M100-162.5l-28.4-171" stroke="#ffc30042"/><path d="M100-162.5l-123.7 121.4" stroke="#ffc30042"/><path d="M100-162.5l170.1 49.8" stroke="#00081442"/><path d="M100-162.5l173.9-35.5" stroke="#ffd60a42"/><path d="M100-162.5l-103.5-155.5" stroke="#00356645"/><path d="M100-162.5l132.1 132.5" stroke="#00356645"/><path d="M100-162.5l-21-186.5" stroke="#ffc30045"/><path d="M100-162.5l193.8-11.2" stroke="#00356647"/><path d="M100-162.5l119.3-157.4" stroke="#00356648"/><path d="M100-162.5l-59.1-191.8" stroke="#ffc30049"/><path d="M100-162.5l-169.4 111.3" stroke="#0035664A"/><path d="M100-162.5l202.3 15.3" stroke="#0008144A"/><path d="M100-162.5l-170.6-110.3" stroke="#ffd60a4A"/><path d="M100-162.5l-160.2 125.7" stroke="#0008144A"/><path d="M100-162.5l-188-79.9" stroke="#001d3d4A"/><path d="M100-162.5l186.6 84.3" stroke="#0008144B"/><path d="M100-162.5l78.9-190.2" stroke="#0035664B"/><path d="M100-162.5l-90.8 187.7" stroke="#ffd60a4C"/><path d="M100-162.5l-115.7 175.6" stroke="#0008144D"/><path d="M100-162.5l-198 81.8" stroke="#001d3d4E"/><path d="M100-162.5l214.8 7" stroke="#0035664F"/><path d="M100-162.5l-214.5 18.5" stroke="#ffd60a4F"/><path d="M100-162.5l205-68.4" stroke="#0035664F"/><path d="M100-162.5l-51.6-210.1" stroke="#0008144F"/><path d="M100-162.5l211-55" stroke="#00081450"/><path d="M100-162.5l190.9 105.8" stroke="#ffd60a50"/><path d="M100-162.5l-2.1 218.8" stroke="#ffc30051"/><path d="M100-162.5l-123.1-183.1" stroke="#00356652"/><path d="M100-162.5l-159.1 157.5" stroke="#00081454"/><path d="M100-162.5l130.4 182" stroke="#ffc30054"/><path d="M100-162.5l-195.4 110.3" stroke="#00356654"/><path d="M100-162.5l-216.4-60.1" stroke="#001d3d54"/><path d="M100-162.5l-114.9 194.4" stroke="#ffc30055"/><path d="M100-162.5l-223.9 30" stroke="#00081455"/><path d="M100-162.5l71.2 214.6" stroke="#001d3d55"/><path d="M100-162.5l-64.3-217" stroke="#001d3d55"/><path d="M100-162.5l152.1-170.2" stroke="#00356657"/><path d="M100-162.5l-175.6 146.1" stroke="#00356657"/><path d="M100-162.5l-42-224.6" stroke="#00356657"/><path d="M100-162.5l49.5 223.9" stroke="#00356657"/><path d="M100-162.5l-34.5-228.1" stroke="#00356659"/><path d="M100-162.5l110.5-202.7" stroke="#ffc30059"/><path d="M100-162.5l-68.2-220.9" stroke="#ffc30059"/><path d="M100-162.5l-224.6-59.8" stroke="#ffc3005B"/><path d="M100-162.5l-83.2-217.1" stroke="#ffc3005B"/><path d="M100-162.5l-223.7 63.9" stroke="#ffc3005B"/><path d="M100-162.5l130.7-192.6" stroke="#ffc3005B"/><path d="M100-162.5l-117.8-201.2" stroke="#ffd60a5B"/><path d="M100-162.5l223 69.6" stroke="#0008145C"/><path d="M100-162.5l181.1 149" stroke="#0008145D"/><path d="M100-162.5l-140.9-187.8" stroke="#0035665E"/><path d="M100-162.5l-216.3-91.6" stroke="#ffc3005E"/><path d="M100-162.5l-35.9-232.2" stroke="#001d3d5E"/><path d="M100-162.5l214 97" stroke="#ffd60a5E"/><path d="M100-162.5l-83.4-219.7" stroke="#ffd60a5E"/><path d="M100-162.5l200.1 123.3" stroke="#ffc3005E"/><path d="M100-162.5l0.6-235.3" stroke="#ffc3005F"/><path d="M100-162.5l-165.6-167.3" stroke="#0035665F"/><path d="M100-162.5l-93.2 216.2" stroke="#001d3d5F"/><path d="M100-162.5l-197.1-128.9" stroke="#001d3d60"/><path d="M100-162.5l233.3 35.3" stroke="#00356661"/><path d="M100-162.5l147.3-184.4" stroke="#ffd60a61"/><path d="M100-162.5l213.5 101" stroke="#00356662"/><path d="M100-162.5l208.7 110.5" stroke="#ffd60a62"/><path d="M100-162.5l-229.7-55.1" stroke="#ffc30062"/><path d="M100-162.5l-186.9-144.4" stroke="#ffd60a62"/><path d="M100-162.5l-158.1 175.5" stroke="#ffd60a62"/><path d="M100-162.5l-109.3 209.4" stroke="#ffd60a64"/><path d="M100-162.5l197.2-129.8" stroke="#ffd60a66"/><path d="M100-162.5l-178.3-154.6" stroke="#00356666"/><path d="M100-162.5l235.2-18.8" stroke="#001d3d66"/><path d="M100-162.5l82.9-220.9" stroke="#001d3d66"/><path d="M100-162.5l106.8 210.3" stroke="#ffc30066"/><path d="M100-162.5l-46-231.2" stroke="#00356667"/><path d="M100-162.5l-226.8-63.5" stroke="#00356668"/><path d="M100-162.5l-188.9-140.2" stroke="#00356668"/><path d="M100-162.5l-233 32.3" stroke="#ffd60a68"/><path d="M100-162.5l-179.7-151.4" stroke="#00081469"/><path d="M100-162.5l-96.3 214.1" stroke="#001d3d69"/><path d="M100-162.5l-195.7 129.4" stroke="#ffc30069"/><path d="M100-162.5l227 59" stroke="#ffd60a6A"/><path d="M100-162.5l231.8 34.7" stroke="#ffd60a6A"/><path d="M100-162.5l124.2 197.2" stroke="#ffc3006C"/><path d="M100-162.5l-121.4-198.5" stroke="#ffc3006C"/><path d="M100-162.5l19.9-231.4" stroke="#001d3d6D"/><path d="M100-162.5l-138.3-186.6" stroke="#0008146D"/><path d="M100-162.5l-73.4 218.9" stroke="#001d3d6E"/><path d="M100-162.5l215.5 82.3" stroke="#ffd60a6E"/><path d="M100-162.5l170.5 154.7" stroke="#001d3d6F"/><path d="M100-162.5l-163.5 162.1" stroke="#0035666F"/><path d="M100-162.5l226.9 38.3" stroke="#ffc3006F"/><path d="M100-162.5l208.9 96.2" stroke="#ffd60a6F"/><path d="M100-162.5l-204.8 103.5" stroke="#001d3d6F"/><path d="M100-162.5l-12.1 229.1" stroke="#001d3d6F"/><path d="M100-162.5l175.3 146.7" stroke="#00356670"/><path d="M100-162.5l-48.5 222.8" stroke="#00081471"/><path d="M100-162.5l222.8 48.6" stroke="#ffd60a71"/><path d="M100-162.5l35.3-223.5" stroke="#00356672"/><path d="M100-162.5l-217.5-54" stroke="#ffd60a73"/><path d="M100-162.5l-33.2-221.2" stroke="#00081474"/><path d="M100-162.5l-136.5-176.8" stroke="#001d3d74"/><path d="M100-162.5l48.5 217.8" stroke="#ffc30074"/><path d="M100-162.5l31.4 219.4" stroke="#ffd60a75"/><path d="M100-162.5l-183.6 122.9" stroke="#ffc30075"/><path d="M100-162.5l197.5 98.7" stroke="#ffc30075"/><path d="M100-162.5l-217.3-35.2" stroke="#ffd60a76"/><path d="M100-162.5l190.9-107.4" stroke="#001d3d76"/><path d="M100-162.5l-169.6 131.2" stroke="#00081478"/><path d="M100-162.5l136.4-165.4" stroke="#00081479"/><path d="M100-162.5l183.4-107.3" stroke="#00356679"/><path d="M100-162.5l-45.4 203.8" stroke="#ffc3007B"/><path d="M100-162.5l-201.3-54.9" stroke="#001d3d7B"/><path d="M100-162.5l-21.9-206.8" stroke="#ffd60a7B"/><path d="M100-162.5l87.2 188.1" stroke="#001d3d7B"/><path d="M100-162.5l205.5 11.6" stroke="#001d3d7C"/><path d="M100-162.5l-131.7-156.9" stroke="#ffc3007C"/><path d="M100-162.5l-152.9-135.6" stroke="#ffd60a7D"/><path d="M100-162.5l97.3-178" stroke="#ffd60a7D"/><path d="M100-162.5l1.3 202.2" stroke="#ffc3007D"/><path d="M100-162.5l-178.8 92.4" stroke="#001d3d7E"/><path d="M100-162.5l194.9 47.1" stroke="#ffc3007E"/><path d="M100-162.5l180.5-74" stroke="#ffc30080"/><path d="M100-162.5l160.5 103.3" stroke="#00081481"/><path d="M100-162.5l113.7 146.3" stroke="#00356683"/><path d="M100-162.5l143.9 115.8" stroke="#00081483"/><path d="M100-162.5l126.6-134.4" stroke="#001d3d83"/><path d="M100-162.5l-162.6-79.3" stroke="#001d3d84"/><path d="M100-162.5l109.6 137.8" stroke="#00356685"/><path d="M100-162.5l-8.3 175.8" stroke="#ffd60a85"/><path d="M100-162.5l-173.9 19.5" stroke="#00081485"/><path d="M100-162.5l172.9 21.9" stroke="#001d3d85"/><path d="M100-162.5l-152.9-69.7" stroke="#ffc30087"/><path d="M100-162.5l-66.9-153.5" stroke="#001d3d87"/><path d="M100-162.5l35.6 162.6" stroke="#ffd60a87"/><path d="M100-162.5l-107.2 126.2" stroke="#00356687"/><path d="M100-162.5l-103.2-127.9" stroke="#00081487"/><path d="M100-162.5l155.1-5.3" stroke="#001d3d89"/><path d="M100-162.5l150.7 25.6" stroke="#001d3d8A"/><path d="M100-162.5l-41.3-145" stroke="#ffd60a8A"/><path d="M100-162.5l-54.9-133" stroke="#001d3d8B"/><path d="M100-162.5l-77.5-118.4" stroke="#0035668C"/><path d="M100-162.5l-137.5 25.9" stroke="#0008148C"/><path d="M100-162.5l-131.9 21.2" stroke="#ffd60a8D"/><path d="M100-162.5l119.1 46.3" stroke="#0035668E"/><path d="M100-162.5l86 86.9" stroke="#001d3d8E"/><path d="M100-162.5l-120.5-18.7" stroke="#ffc3008E"/><path d="M100-162.5l23.7-114.8" stroke="#ffc3008F"/><path d="M100-162.5l-87.9 62.3" stroke="#001d3d90"/><path d="M100-162.5l105.3 0" stroke="#001d3d90"/><path d="M100-162.5l-88.1-42.1" stroke="#001d3d91"/><path d="M100-162.5l47-67.2" stroke="#00081492"/><path d="M100-162.5l59.8 55.4" stroke="#001d3d92"/><path d="M100-162.5l-8.3 74.9" stroke="#001d3d93"/><path d="M100-162.5l40.2-33.8" stroke="#00081494"/><path d="M100-162.5l-7.2-48.6" stroke="#001d3d94"/><path d="M100-162.5l-45.7 11.9" stroke="#ffd60a94"/></g><g class="sparcs"><path d="M84.9-183a5.9 5.9 0 1 1 0-11.9 5.9 5.9 0 0 1 0 11.9" fill="#0008147D"/><path d="M100.6-212.9a6 6 0 1 1 0-12 6 6 0 0 1 0 12" fill="#0008147E"/><path d="M76.7-215.7a6 6 0 1 1 0-12 6 6 0 0 1 0 12" fill="#0008147F"/><path d="M169.2-210.2a6.1 6.1 0 1 1 0-12.3 6.1 6.1 0 0 1 0 12.3" fill="#ffc30081"/><path d="M124.8-67.3a6.1 6.1 0 1 1 0-12.3 6.1 6.1 0 0 1 0 12.3" fill="#ffc30082"/><path d="M28.1-235.6a6.2 6.2 0 1 1 0-12.4 6.2 6.2 0 0 1 0 12.4" fill="#ffd60a84"/><path d="M64.5-257.4a6.2 6.2 0 1 1 0-12.5 6.2 6.2 0 0 1 0 12.5" fill="#00356684"/><path d="M-10.4-160a6.2 6.2 0 1 1 0-12.5 6.2 6.2 0 0 1 0 12.5" fill="#00356684"/><path d="M155-58.5a6.3 6.3 0 1 1 0-12.5 6.3 6.3 0 0 1 0 12.5" fill="#ffc30084"/><path d="M170.7-244.7a6.3 6.3 0 1 1 0-12.6 6.3 6.3 0 0 1 0 12.6" fill="#ffd60a84"/><path d="M-15-143.8a6.3 6.3 0 1 1 0-12.6 6.3 6.3 0 0 1 0 12.6" fill="#ffc30085"/><path d="M209-115.5a6.3 6.3 0 1 1 0-12.6 6.3 6.3 0 0 1 0 12.6" fill="#00081485"/><path d="M187.1-233.4a6.3 6.3 0 1 1 0-12.6 6.3 6.3 0 0 1 0 12.6" fill="#00081485"/><path d="M37.2-264.1a6.4 6.4 0 1 1 0-12.7 6.4 6.4 0 0 1 0 12.7" fill="#ffc30086"/><path d="M-19-116.3a6.4 6.4 0 1 1 0-12.7 6.4 6.4 0 0 1 0 12.7" fill="#ffd60a86"/><path d="M210.9-95a6.4 6.4 0 1 1 0-12.7 6.4 6.4 0 0 1 0 12.7" fill="#00356687"/><path d="M-4.9-82.6a6.4 6.4 0 1 1 0-12.7 6.4 6.4 0 0 1 0 12.7" fill="#001d3d87"/><path d="M57.4-283a6.4 6.4 0 1 1 0-12.8 6.4 6.4 0 0 1 0 12.8" fill="#ffd60a88"/><path d="M239-158.8a6.5 6.5 0 1 1 0-13 6.5 6.5 0 0 1 0 13" fill="#ffd60a89"/><path d="M-32-108.6a6.5 6.5 0 1 1 0-12.9 6.5 6.5 0 0 1 0 12.9" fill="#00081489"/><path d="M92-11.5a6.5 6.5 0 1 1 0-13 6.5 6.5 0 0 1 0 13" fill="#0008148A"/><path d="M0.8-272.8a6.6 6.6 0 1 1 0-13.2 6.6 6.6 0 0 1 0 13.2" fill="#0008148C"/><path d="M219.8-251.6a6.6 6.6 0 1 1 0-13.2 6.6 6.6 0 0 1 0 13.2" fill="#0035668C"/><path d="M-37-57.8a6.8 6.8 0 1 1 0-13.6 6.8 6.8 0 0 1 0 13.6" fill="#ffc30090"/><path d="M122.1-324.5a6.8 6.8 0 1 1 0-13.6 6.8 6.8 0 0 1 0 13.6" fill="#ffd60a90"/><path d="M71.6-326.6a6.9 6.9 0 1 1 0-13.7 6.9 6.9 0 0 1 0 13.7" fill="#00081491"/><path d="M-23.7-34.2a6.9 6.9 0 1 1 0-13.7 6.9 6.9 0 0 1 0 13.7" fill="#00356691"/><path d="M270.1-105.8a6.9 6.9 0 1 1 0-13.8 6.9 6.9 0 0 1 0 13.8" fill="#001d3d93"/><path d="M273.9-191.1a6.9 6.9 0 1 1 0-13.8 6.9 6.9 0 0 1 0 13.8" fill="#ffd60a93"/><path d="M-3.5-311a7.1 7.1 0 1 1 0-14.1 7.1 7.1 0 0 1 0 14.1" fill="#ffd60a96"/><path d="M232.1-23a7.1 7.1 0 1 1 0-14.1 7.1 7.1 0 0 1 0 14.1" fill="#001d3d96"/><path d="M79-342a7.1 7.1 0 1 1 0-14.1 7.1 7.1 0 0 1 0 14.1" fill="#ffc30096"/><path d="M293.8-166.5a7.2 7.2 0 1 1 0-14.4 7.2 7.2 0 0 1 0 14.4" fill="#ffc30098"/><path d="M219.3-312.6a7.2 7.2 0 1 1 0-14.5 7.2 7.2 0 0 1 0 14.5" fill="#0035669A"/><path d="M40.9-347a7.3 7.3 0 1 1 0-14.6 7.3 7.3 0 0 1 0 14.6" fill="#ffc3009B"/><path d="M-69.4-43.9a7.3 7.3 0 1 1 0-14.7 7.3 7.3 0 0 1 0 14.7" fill="#ffd60a9C"/><path d="M302.3-139.8a7.3 7.3 0 1 1 0-14.7 7.3 7.3 0 0 1 0 14.7" fill="#001d3d9C"/><path d="M-70.6-265.5a7.4 7.4 0 1 1 0-14.7 7.4 7.4 0 0 1 0 14.7" fill="#ffd60a9C"/><path d="M-60.2-29.5a7.4 7.4 0 1 1 0-14.7 7.4 7.4 0 0 1 0 14.7" fill="#0035669D"/><path d="M-88-235a7.4 7.4 0 1 1 0-14.8 7.4 7.4 0 0 1 0 14.8" fill="#0035669D"/><path d="M286.6-70.8a7.4 7.4 0 1 1 0-14.8 7.4 7.4 0 0 1 0 14.8" fill="#ffd60a9D"/><path d="M178.9-345.3a7.4 7.4 0 1 1 0-14.9 7.4 7.4 0 0 1 0 14.9" fill="#001d3d9E"/><path d="M9.2 32.6a7.5 7.5 0 1 1 0-14.9 7.5 7.5 0 0 1 0 14.9" fill="#001d3d9F"/><path d="M-15.7 20.6a7.5 7.5 0 1 1 0-15 7.5 7.5 0 0 1 0 15" fill="#ffc300A0"/><path d="M-98-73a7.6 7.6 0 1 1 0-15.3 7.6 7.6 0 0 1 0 15.3" fill="#ffd60aA2"/><path d="M314.8-147.8a7.6 7.6 0 1 1 0-15.3 7.6 7.6 0 0 1 0 15.3" fill="#003566A3"/><path d="M-114.5-136.3a7.6 7.6 0 1 1 0-15.3 7.6 7.6 0 0 1 0 15.3" fill="#001d3dA3"/><path d="M305-223.2a7.7 7.7 0 1 1 0-15.4 7.7 7.7 0 0 1 0 15.4" fill="#000814A3"/><path d="M48.4-364.9a7.7 7.7 0 1 1 0-15.3 7.7 7.7 0 0 1 0 15.3" fill="#ffc300A3"/><path d="M311-209.8a7.7 7.7 0 1 1 0-15.4 7.7 7.7 0 0 1 0 15.4" fill="#ffc300A4"/><path d="M290.9-49a7.7 7.7 0 1 1 0-15.5 7.7 7.7 0 0 1 0 15.5" fill="#ffd60aA5"/><path d="M97.9 64.1a7.7 7.7 0 1 1 0-15.5 7.7 7.7 0 0 1 0 15.5" fill="#001d3dA5"/><path d="M-23.1-337.8a7.8 7.8 0 1 1 0-15.6 7.8 7.8 0 0 1 0 15.6" fill="#ffc300A6"/><path d="M-59.1 3a7.9 7.9 0 1 1 0-15.9 7.9 7.9 0 0 1 0 15.9" fill="#003566A9"/><path d="M230.4 27.5a7.9 7.9 0 1 1 0-15.9 7.9 7.9 0 0 1 0 15.9" fill="#003566A9"/><path d="M-95.4-44.3a7.9 7.9 0 1 1 0-15.9 7.9 7.9 0 0 1 0 15.9" fill="#003566A9"/><path d="M-116.4-214.7a7.9 7.9 0 1 1 0-15.8 7.9 7.9 0 0 1 0 15.8" fill="#001d3dA9"/><path d="M-14.9 39.9a8 8 0 1 1 0-16 8 8 0 0 1 0 16" fill="#000814AA"/><path d="M-123.9-124.5a8 8 0 1 1 0-16 8 8 0 0 1 0 16" fill="#001d3dAA"/><path d="M171.2 60.1a8 8 0 1 1 0-16 8 8 0 0 1 0 16" fill="#000814AB"/><path d="M35.7-371.5a8 8 0 1 1 0-16 8 8 0 0 1 0 16" fill="#003566AB"/><path d="M252.1-324.6a8.1 8.1 0 1 1 0-16.2 8.1 8.1 0 0 1 0 16.2" fill="#001d3dAD"/><path d="M-75.6-8.3a8.1 8.1 0 1 1 0-16.2 8.1 8.1 0 0 1 0 16.2" fill="#003566AD"/><path d="M58-379a8.1 8.1 0 1 1 0-16.2 8.1 8.1 0 0 1 0 16.2" fill="#ffc300AD"/><path d="M149.5 69.5a8.1 8.1 0 1 1 0-16.3 8.1 8.1 0 0 1 0 16.3" fill="#ffd60aAE"/><path d="M65.5-382.4a8.2 8.2 0 1 1 0-16.4 8.2 8.2 0 0 1 0 16.4" fill="#ffc300AF"/><path d="M210.5-357a8.2 8.2 0 1 1 0-16.5 8.2 8.2 0 0 1 0 16.5" fill="#001d3dB0"/><path d="M31.8-375.2a8.3 8.3 0 1 1 0-16.5 8.3 8.3 0 0 1 0 16.5" fill="#001d3dB0"/><path d="M-124.6-214a8.3 8.3 0 1 1 0-16.7 8.3 8.3 0 0 1 0 16.7" fill="#ffc300B2"/><path d="M16.8-371.2a8.3 8.3 0 1 1 0-16.7 8.3 8.3 0 0 1 0 16.7" fill="#000814B2"/><path d="M-123.7-90.3a8.3 8.3 0 1 1 0-16.6 8.3 8.3 0 0 1 0 16.6" fill="#ffc300B2"/><path d="M230.7-346.8a8.4 8.4 0 1 1 0-16.7 8.4 8.4 0 0 1 0 16.7" fill="#ffc300B2"/><path d="M-17.8-355.3a8.4 8.4 0 1 1 0-16.8 8.4 8.4 0 0 1 0 16.8" fill="#001d3dB3"/><path d="M323-84.4a8.4 8.4 0 1 1 0-16.9 8.4 8.4 0 0 1 0 16.9" fill="#000814B4"/><path d="M281.1-5a8.5 8.5 0 1 1 0-17 8.5 8.5 0 0 1 0 17" fill="#000814B6"/><path d="M-40.9-341.8a8.5 8.5 0 1 1 0-17.1 8.5 8.5 0 0 1 0 17.1" fill="#ffd60aB6"/><path d="M-116.3-245.6a8.5 8.5 0 1 1 0-17.1 8.5 8.5 0 0 1 0 17.1" fill="#003566B7"/><path d="M64.1-386.2a8.6 8.6 0 1 1 0-17.1 8.6 8.6 0 0 1 0 17.1" fill="#001d3dB7"/><path d="M314-57a8.6 8.6 0 1 1 0-17.1 8.6 8.6 0 0 1 0 17.1" fill="#ffd60aB7"/><path d="M16.6-373.6a8.6 8.6 0 1 1 0-17.2 8.6 8.6 0 0 1 0 17.2" fill="#ffd60aB7"/><path d="M300.1-30.7a8.6 8.6 0 1 1 0-17.1 8.6 8.6 0 0 1 0 17.1" fill="#003566B7"/><path d="M100.6-389.2a8.6 8.6 0 1 1 0-17.2 8.6 8.6 0 0 1 0 17.2" fill="#ffd60aB8"/><path d="M-65.6-321.2a8.6 8.6 0 1 1 0-17.2 8.6 8.6 0 0 1 0 17.2" fill="#003566B8"/><path d="M6.8 62.3a8.6 8.6 0 1 1 0-17.2 8.6 8.6 0 0 1 0 17.2" fill="#ffd60aB8"/><path d="M-97.1-282.8a8.6 8.6 0 1 1 0-17.2 8.6 8.6 0 0 1 0 17.2" fill="#ffd60aB8"/><path d="M333.3-118.5a8.7 8.7 0 1 1 0-17.4 8.7 8.7 0 0 1 0 17.4" fill="#001d3dBA"/><path d="M247.3-338.2a8.7 8.7 0 1 1 0-17.4 8.7 8.7 0 0 1 0 17.4" fill="#003566BB"/><path d="M313.5-52.7a8.8 8.8 0 1 1 0-17.5 8.8 8.8 0 0 1 0 17.5" fill="#ffd60aBC"/><path d="M308.7-43.2a8.8 8.8 0 1 1 0-17.6 8.8 8.8 0 0 1 0 17.6" fill="#003566BC"/><path d="M-129.7-208.8a8.8 8.8 0 1 1 0-17.6 8.8 8.8 0 0 1 0 17.6" fill="#000814BC"/><path d="M-86.9-298.1a8.8 8.8 0 1 1 0-17.6 8.8 8.8 0 0 1 0 17.6" fill="#003566BC"/><path d="M-58.1 21.8a8.8 8.8 0 1 1 0-17.6 8.8 8.8 0 0 1 0 17.6" fill="#001d3dBC"/><path d="M-9.3 55.8a8.9 8.9 0 1 1 0-17.8 8.9 8.9 0 0 1 0 17.8" fill="#ffd60aBF"/><path d="M297.2-283.3a9 9 0 1 1 0-18 9 9 0 0 1 0 18" fill="#003566C0"/><path d="M-78.3-308.1a9 9 0 1 1 0-18 9 9 0 0 1 0 18" fill="#ffc300C1"/><path d="M335.2-172.3a9 9 0 1 1 0-18 9 9 0 0 1 0 18" fill="#000814C1"/><path d="M182.9-374.4a9 9 0 1 1 0-18 9 9 0 0 1 0 18" fill="#001d3dC1"/><path d="M206.8 56.8a9 9 0 1 1 0-18 9 9 0 0 1 0 18" fill="#ffc300C1"/><path d="M54-384.6a9.1 9.1 0 1 1 0-18.1 9.1 9.1 0 0 1 0 18.1" fill="#ffc300C2"/><path d="M-126.8-216.9a9.1 9.1 0 1 1 0-18.2 9.1 9.1 0 0 1 0 18.2" fill="#ffd60aC3"/><path d="M-88.9-293.6a9.1 9.1 0 1 1 0-18.2 9.1 9.1 0 0 1 0 18.2" fill="#000814C3"/><path d="M-133-121.1a9.1 9.1 0 1 1 0-18.2 9.1 9.1 0 0 1 0 18.2" fill="#001d3dC4"/><path d="M-79.7-304.7a9.2 9.2 0 1 1 0-18.4 9.2 9.2 0 0 1 0 18.4" fill="#003566C4"/><path d="M3.7 60.8a9.2 9.2 0 1 1 0-18.3 9.2 9.2 0 0 1 0 18.3" fill="#000814C5"/><path d="M-95.7-23.9a9.2 9.2 0 1 1 0-18.4 9.2 9.2 0 0 1 0 18.4" fill="#001d3dC5"/><path d="M327-94.3a9.2 9.2 0 1 1 0-18.4 9.2 9.2 0 0 1 0 18.4" fill="#000814C5"/><path d="M331.8-118.6a9.2 9.2 0 1 1 0-18.4 9.2 9.2 0 0 1 0 18.4" fill="#003566C6"/><path d="M224.2 44a9.3 9.3 0 1 1 0-18.7 9.3 9.3 0 0 1 0 18.7" fill="#001d3dC8"/><path d="M-21.4-351.6a9.4 9.4 0 1 1 0-18.7 9.4 9.4 0 0 1 0 18.7" fill="#000814C9"/><path d="M119.9-384.5a9.4 9.4 0 1 1 0-18.8 9.4 9.4 0 0 1 0 18.8" fill="#003566C9"/><path d="M-38.3-339.7a9.4 9.4 0 1 1 0-18.8 9.4 9.4 0 0 1 0 18.8" fill="#ffd60aC9"/><path d="M26.6 65.9a9.5 9.5 0 1 1 0-18.9 9.5 9.5 0 0 1 0 18.9" fill="#000814CB"/><path d="M315.5-70.7a9.5 9.5 0 1 1 0-19 9.5 9.5 0 0 1 0 19" fill="#000814CC"/><path d="M270.5 1.8a9.5 9.5 0 1 1 0-19.1 9.5 9.5 0 0 1 0 19.1" fill="#001d3dCC"/><path d="M-63.5 9.1a9.5 9.5 0 1 1 0-19 9.5 9.5 0 0 1 0 19" fill="#003566CC"/><path d="M326.9-114.6a9.5 9.5 0 1 1 0-19.1 9.5 9.5 0 0 1 0 19.1" fill="#003566CC"/><path d="M308.9-56.8a9.5 9.5 0 1 1 0-19 9.5 9.5 0 0 1 0 19" fill="#003566CC"/><path d="M-104.8-49.4a9.6 9.6 0 1 1 0-19.1 9.6 9.6 0 0 1 0 19.1" fill="#000814CD"/><path d="M87.9 76.2a9.6 9.6 0 1 1 0-19.2 9.6 9.6 0 0 1 0 19.2" fill="#ffc300CD"/><path d="M275.3-6.2a9.6 9.6 0 1 1 0-19.2 9.6 9.6 0 0 1 0 19.2" fill="#001d3dCE"/><path d="M51.5 70a9.6 9.6 0 1 1 0-19.3 9.6 9.6 0 0 1 0 19.3" fill="#001d3dCE"/><path d="M322.8-104.3a9.6 9.6 0 1 1 0-19.3 9.6 9.6 0 0 1 0 19.3" fill="#000814CF"/><path d="M135.3-376.3a9.7 9.7 0 1 1 0-19.4 9.7 9.7 0 0 1 0 19.4" fill="#ffd60aD0"/><path d="M-117.5-206.7a9.8 9.8 0 1 1 0-19.6 9.8 9.8 0 0 1 0 19.6" fill="#001d3dD2"/><path d="M66.8-373.9a9.8 9.8 0 1 1 0-19.6 9.8 9.8 0 0 1 0 19.6" fill="#000814D2"/><path d="M-36.5-329.5a9.8 9.8 0 1 1 0-19.7 9.8 9.8 0 0 1 0 19.7" fill="#001d3dD3"/><path d="M148.5 65.2a9.8 9.8 0 1 1 0-19.7 9.8 9.8 0 0 1 0 19.7" fill="#001d3dD3"/><path d="M131.4 66.8a9.9 9.9 0 1 1 0-19.7 9.9 9.9 0 0 1 0 19.7" fill="#001d3dD4"/><path d="M-83.6-29.7a9.9 9.9 0 1 1 0-19.8 9.9 9.9 0 0 1 0 19.8" fill="#001d3dD5"/><path d="M297.5-53.9a9.9 9.9 0 1 1 0-19.8 9.9 9.9 0 0 1 0 19.8" fill="#ffd60aD5"/><path d="M-117.3-187.8a9.9 9.9 0 1 1 0-19.9 9.9 9.9 0 0 1 0 19.9" fill="#000814D5"/><path d="M290.9-260a10 10 0 1 1 0-19.9 10 10 0 0 1 0 19.9" fill="#003566D6"/><path d="M-69.6-21.2a10.1 10.1 0 1 1 0-20.2 10.1 10.1 0 0 1 0 20.2" fill="#003566D9"/><path d="M236.4-317.8a10.1 10.1 0 1 1 0-20.2 10.1 10.1 0 0 1 0 20.2" fill="#ffd60aD9"/><path d="M283.4-259.7a10.1 10.1 0 1 1 0-20.3 10.1 10.1 0 0 1 0 20.3" fill="#ffc300DA"/><path d="M54.6 51.5a10.2 10.2 0 1 1 0-20.5 10.2 10.2 0 0 1 0 20.5" fill="#ffd60aDC"/><path d="M-101.3-207.1a10.2 10.2 0 1 1 0-20.5 10.2 10.2 0 0 1 0 20.5" fill="#000814DC"/><path d="M78.1-359a10.3 10.3 0 1 1 0-20.6 10.3 10.3 0 0 1 0 20.6" fill="#ffd60aDC"/><path d="M187.2 35.9a10.3 10.3 0 1 1 0-20.5 10.3 10.3 0 0 1 0 20.5" fill="#ffc300DD"/><path d="M305.5-140.6a10.3 10.3 0 1 1 0-20.6 10.3 10.3 0 0 1 0 20.6" fill="#ffc300DD"/><path d="M-31.7-309.1a10.3 10.3 0 1 1 0-20.7 10.3 10.3 0 0 1 0 20.7" fill="#001d3dDE"/><path d="M-52.9-287.7a10.3 10.3 0 1 1 0-20.7 10.3 10.3 0 0 1 0 20.7" fill="#000814DE"/><path d="M197.3-330.2a10.4 10.4 0 1 1 0-20.7 10.4 10.4 0 0 1 0 20.7" fill="#ffc300DF"/><path d="M101.3 50.1a10.4 10.4 0 1 1 0-20.8 10.4 10.4 0 0 1 0 20.8" fill="#003566DF"/><path d="M-78.8-59.7a10.4 10.4 0 1 1 0-20.8 10.4 10.4 0 0 1 0 20.8" fill="#000814E0"/><path d="M294.9-105a10.4 10.4 0 1 1 0-20.8 10.4 10.4 0 0 1 0 20.8" fill="#001d3dE0"/><path d="M280.5-226a10.5 10.5 0 1 1 0-21.1 10.5 10.5 0 0 1 0 21.1" fill="#001d3dE2"/><path d="M260.5-48.6a10.6 10.6 0 1 1 0-21.2 10.6 10.6 0 0 1 0 21.2" fill="#003566E4"/><path d="M213.7-5.5a10.7 10.7 0 1 1 0-21.4 10.7 10.7 0 0 1 0 21.4" fill="#003566E6"/><path d="M243.9-36a10.7 10.7 0 1 1 0-21.4 10.7 10.7 0 0 1 0 21.4" fill="#003566E6"/><path d="M226.6-286.2a10.7 10.7 0 1 1 0-21.4 10.7 10.7 0 0 1 0 21.4" fill="#ffc300E6"/><path d="M-62.6-231a10.8 10.8 0 1 1 0-21.5 10.8 10.8 0 0 1 0 21.5" fill="#000814E7"/><path d="M209.6-13.9a10.8 10.8 0 1 1 0-21.6 10.8 10.8 0 0 1 0 21.6" fill="#ffd60aE9"/><path d="M91.7 24.1a10.8 10.8 0 1 1 0-21.6 10.8 10.8 0 0 1 0 21.6" fill="#003566E9"/><path d="M-73.9-132.1a10.8 10.8 0 1 1 0-21.7 10.8 10.8 0 0 1 0 21.7" fill="#ffd60aE9"/><path d="M272.9-129.7a10.9 10.9 0 1 1 0-21.7 10.9 10.9 0 0 1 0 21.7" fill="#003566E9"/><path d="M-52.9-221.2a10.9 10.9 0 1 1 0-21.9 10.9 10.9 0 0 1 0 21.9" fill="#003566EB"/><path d="M33.1-305a10.9 10.9 0 1 1 0-21.9 10.9 10.9 0 0 1 0 21.9" fill="#003566EB"/><path d="M135.6 11.1a11 11 0 1 1 0-21.9 11 11 0 0 1 0 21.9" fill="#001d3dEC"/><path d="M-7.2-25.3a11 11 0 1 1 0-22 11 11 0 0 1 0 22" fill="#ffd60aEC"/><path d="M-3.2-279.4a11 11 0 1 1 0-22 11 11 0 0 1 0 22" fill="#ffd60aEC"/><path d="M255.1-156.7a11.1 11.1 0 1 1 0-22.2 11.1 11.1 0 0 1 0 22.2" fill="#001d3dEF"/><path d="M250.7-125.8a11.1 11.1 0 1 1 0-22.2 11.1 11.1 0 0 1 0 22.2" fill="#001d3dEF"/><path d="M58.7-296.4a11.1 11.1 0 1 1 0-22.2 11.1 11.1 0 0 1 0 22.2" fill="#000814F0"/><path d="M45.1-284.3a11.2 11.2 0 1 1 0-22.4 11.2 11.2 0 0 1 0 22.4" fill="#ffd60aF1"/><path d="M22.5-269.6a11.2 11.2 0 1 1 0-22.5 11.2 11.2 0 0 1 0 22.5" fill="#003566F2"/><path d="M-37.5-125.3a11.2 11.2 0 1 1 0-22.5 11.2 11.2 0 0 1 0 22.5" fill="#001d3dF2"/><path d="M-31.9-130a11.3 11.3 0 1 1 0-22.6 11.3 11.3 0 0 1 0 22.6" fill="#003566F3"/><path d="M219.1-104.9a11.3 11.3 0 1 1 0-22.7 11.3 11.3 0 0 1 0 22.7" fill="#003566F4"/><path d="M186-64.2a11.4 11.4 0 1 1 0-22.8 11.4 11.4 0 0 1 0 22.8" fill="#000814F5"/><path d="M-20.5-169.8a11.4 11.4 0 1 1 0-22.8 11.4 11.4 0 0 1 0 22.8" fill="#ffd60aF5"/><path d="M123.7-265.9a11.4 11.4 0 1 1 0-22.9 11.4 11.4 0 0 1 0 22.9" fill="#001d3dF6"/><path d="M12.1-88.7a11.5 11.5 0 1 1 0-23 11.5 11.5 0 0 1 0 23" fill="#ffc300F7"/><path d="M205.3-151a11.5 11.5 0 1 1 0-23 11.5 11.5 0 0 1 0 23" fill="#000814F8"/><path d="M11.9-193.1a11.5 11.5 0 1 1 0-23.1 11.5 11.5 0 0 1 0 23.1" fill="#ffd60aF9"/><path d="M147-218.1a11.6 11.6 0 1 1 0-23.2 11.6 11.6 0 0 1 0 23.2" fill="#003566FA"/><path d="M159.8-95.5a11.6 11.6 0 1 1 0-23.2 11.6 11.6 0 0 1 0 23.2" fill="#001d3dFB"/><path d="M91.7-76a11.7 11.7 0 1 1 0-23.3 11.7 11.7 0 0 1 0 23.3" fill="#ffc300FB"/><path d="M140.2-184.6a11.7 11.7 0 1 1 0-23.5 11.7 11.7 0 0 1 0 23.5" fill="#003566FD"/><path d="M92.8-199.3a11.7 11.7 0 1 1 0-23.5 11.7 11.7 0 0 1 0 23.5" fill="#003566FD"/><path d="M54.3-138.8a11.8 11.8 0 1 1 0-23.6 11.8 11.8 0 0 1 0 23.6" fill="#ffd60aFD"/></g></svg>