<svg width="1200" height="675" viewBox="-500 -500 1200 675" xmlns="http://www.w3.org/2000/svg"><path d="M-500-500h1200v675h-1200z" fill="#000"/><style>.sparkles path{stroke-linecap:round; stroke-width:1}</style><g class="sparkles"><path d="M100-162.5l20.8-40.3" stroke="#fff50032"/><path d="M100-162.5l52.6 15.6" stroke="#fff33"/><path d="M100-162.5l-48.4-39.7" stroke="#fff33"/><path d="M100-162.5l-40.3 52.9" stroke="#c2e1ff34"/><path d="M100-162.5l0.6-68.8" stroke="#005bbb34"/><path d="M100-162.5l12.4-89.9" stroke="#fff35"/><path d="M100-162.5l83.3 39.2" stroke="#c2e1ff35"/><path d="M100-162.5l68.8-77.4" stroke="#fff37"/><path d="M100-162.5l-96.3-40.6" stroke="#c2e1ff37"/><path d="M100-162.5l103.8-33.1" stroke="#005bbb37"/><path d="M100-162.5l89.7-66.9" stroke="#c2e1ff37"/><path d="M100-162.5l-96.5 60.8" stroke="#fff38"/><path d="M100-162.5l43.6-106.3" stroke="#c2e1ff38"/><path d="M100-162.5l-31.5-122" stroke="#fff50039"/><path d="M100-162.5l41.2 134.4" stroke="#005bbb3B"/><path d="M100-162.5l-147.7 48" stroke="#fff5003E"/><path d="M100-162.5l-89.8-127.7" stroke="#005bbb3E"/><path d="M100-162.5l94-124.9" stroke="#c2e1ff3E"/><path d="M100-162.5l115.9-110.2" stroke="#005bbb3F"/><path d="M100-162.5l-143.3 71.1" stroke="#c2e1ff3F"/><path d="M100-162.5l155.2 39.5" stroke="#fff5003F"/><path d="M100-162.5l-47.1-154.3" stroke="#c2e1ff3F"/><path d="M100-162.5l88.7 140.4" stroke="#fff50040"/><path d="M100-162.5l-117.2-127.3" stroke="#005bbb41"/><path d="M100-162.5l-25-173.2" stroke="#005bbb42"/><path d="M100-162.5l108.3 137.6" stroke="#fff42"/><path d="M100-162.5l123.9 124.1" stroke="#fff50042"/><path d="M100-162.5l177.6 8.1" stroke="#c2e1ff43"/><path d="M100-162.5l-38.2 174.1" stroke="#fff50043"/><path d="M100-162.5l34.7 176.6" stroke="#c2e1ff43"/><path d="M100-162.5l-3.6 180.2" stroke="#c2e1ff43"/><path d="M100-162.5l147.7-103.3" stroke="#005bbb43"/><path d="M100-162.5l142-111.9" stroke="#fff50043"/><path d="M100-162.5l173.1 66.8" stroke="#fff45"/><path d="M100-162.5l-192.1-6.4" stroke="#c2e1ff46"/><path d="M100-162.5l-162.6 102.9" stroke="#005bbb46"/><path d="M100-162.5l-78.4 176.4" stroke="#005bbb47"/><path d="M100-162.5l-79.7-177.5" stroke="#fff50047"/><path d="M100-162.5l130.4-146.7" stroke="#fff50048"/><path d="M100-162.5l131.1-147.6" stroke="#005bbb48"/><path d="M100-162.5l110.2-164.9" stroke="#c2e1ff48"/><path d="M100-162.5l-134.5 146.8" stroke="#fff49"/><path d="M100-162.5l-133.3-148.3" stroke="#fff50049"/><path d="M100-162.5l-178.2 89.8" stroke="#fff50049"/><path d="M100-162.5l152.4 129.5" stroke="#005bbb49"/><path d="M100-162.5l-114.4-166.9" stroke="#fff5004A"/><path d="M100-162.5l-48.2 197.6" stroke="#005bbb4A"/><path d="M100-162.5l35.2 202.6" stroke="#fff5004B"/><path d="M100-162.5l58.6 197.1" stroke="#005bbb4B"/><path d="M100-162.5l182.9 97.3" stroke="#fff5004B"/><path d="M100-162.5l189.3 94.4" stroke="#c2e1ff4D"/><path d="M100-162.5l-110.4-182.7" stroke="#005bbb4E"/><path d="M100-162.5l-207 59.1" stroke="#c2e1ff4F"/><path d="M100-162.5l153.7 153" stroke="#c2e1ff50"/><path d="M100-162.5l220.2-0.4" stroke="#fff51"/><path d="M100-162.5l-79.8 206.1" stroke="#fff52"/><path d="M100-162.5l-65.4 211.6" stroke="#c2e1ff52"/><path d="M100-162.5l-9.9-221.7" stroke="#fff52"/><path d="M100-162.5l-188.3-119.1" stroke="#c2e1ff53"/><path d="M100-162.5l188-120.1" stroke="#005bbb53"/><path d="M100-162.5l1.2 224" stroke="#005bbb54"/><path d="M100-162.5l-79.9-209.6" stroke="#fff54"/><path d="M100-162.5l-107.9-200.7" stroke="#c2e1ff56"/><path d="M100-162.5l202.3-107" stroke="#005bbb57"/><path d="M100-162.5l55 222.5" stroke="#005bbb57"/><path d="M100-162.5l207.2 98.6" stroke="#c2e1ff58"/><path d="M100-162.5l-219.2-67.7" stroke="#005bbb58"/><path d="M100-162.5l93.5-209.9" stroke="#fff50058"/><path d="M100-162.5l-225.9-44.3" stroke="#fff50058"/><path d="M100-162.5l205.3 105" stroke="#005bbb59"/><path d="M100-162.5l231.2-16.5" stroke="#fff5A"/><path d="M100-162.5l228.7 44.4" stroke="#c2e1ff5B"/><path d="M100-162.5l49 228" stroke="#005bbb5B"/><path d="M100-162.5l42.9 229.5" stroke="#c2e1ff5C"/><path d="M100-162.5l98.6 212.3" stroke="#c2e1ff5D"/><path d="M100-162.5l-90.7 216.5" stroke="#fff5E"/><path d="M100-162.5l96.8 214" stroke="#fff5005E"/><path d="M100-162.5l80 221.5" stroke="#c2e1ff5F"/><path d="M100-162.5l-153-179" stroke="#005bbb5F"/><path d="M100-162.5l94.2 215.8" stroke="#005bbb60"/><path d="M100-162.5l-231.7 45.4" stroke="#c2e1ff62"/><path d="M100-162.5l-231.9 45" stroke="#fff62"/><path d="M100-162.5l-98.2 214.8" stroke="#005bbb62"/><path d="M100-162.5l157.3 176.3" stroke="#fff64"/><path d="M100-162.5l215.8 96" stroke="#fff64"/><path d="M100-162.5l-235 23.8" stroke="#005bbb64"/><path d="M100-162.5l235.8 7" stroke="#005bbb66"/><path d="M100-162.5l-225.4-69.6" stroke="#fff50066"/><path d="M100-162.5l-228.6 57.9" stroke="#005bbb66"/><path d="M100-162.5l-68.6-225.5" stroke="#fff50067"/><path d="M100-162.5l151 180.8" stroke="#fff67"/><path d="M100-162.5l-111.3 207.6" stroke="#fff50067"/><path d="M100-162.5l182.9 148" stroke="#005bbb68"/><path d="M100-162.5l204.8-115.7" stroke="#fff50068"/><path d="M100-162.5l-60.4 227.2" stroke="#fff69"/><path d="M100-162.5l3.3-234.4" stroke="#fff5006A"/><path d="M100-162.5l-194.2 130.7" stroke="#005bbb6A"/><path d="M100-162.5l-120.5 200.1" stroke="#c2e1ff6B"/><path d="M100-162.5l-199.8-120.5" stroke="#c2e1ff6B"/><path d="M100-162.5l94.3-213.3" stroke="#005bbb6B"/><path d="M100-162.5l200.1-119.5" stroke="#fff5006C"/><path d="M100-162.5l-227.5 43.6" stroke="#fff5006D"/><path d="M100-162.5l230.9 0.5" stroke="#fff6E"/><path d="M100-162.5l-75.9-217.6" stroke="#fff6F"/><path d="M100-162.5l189.6-130.5" stroke="#c2e1ff6F"/><path d="M100-162.5l153.7 170.6" stroke="#fff5006F"/><path d="M100-162.5l229.3 0.1" stroke="#005bbb70"/><path d="M100-162.5l133.5 186.1" stroke="#fff50070"/><path d="M100-162.5l-40.6-224.7" stroke="#fff70"/><path d="M100-162.5l17.6-227.4" stroke="#fff50071"/><path d="M100-162.5l212.4-82.8" stroke="#fff50071"/><path d="M100-162.5l184.9-132.1" stroke="#fff71"/><path d="M100-162.5l-36.8-222.2" stroke="#c2e1ff73"/><path d="M100-162.5l45.4-219.8" stroke="#fff50073"/><path d="M100-162.5l175.9-136" stroke="#fff74"/><path d="M100-162.5l217.1-45.4" stroke="#c2e1ff75"/><path d="M100-162.5l191.5-110.3" stroke="#005bbb75"/><path d="M100-162.5l-14.8-219.4" stroke="#005bbb76"/><path d="M100-162.5l42.7-214.6" stroke="#c2e1ff76"/><path d="M100-162.5l209.2 63.6" stroke="#fff50076"/><path d="M100-162.5l215.3-8.3" stroke="#c2e1ff78"/><path d="M100-162.5l-212.1-2.9" stroke="#c2e1ff79"/><path d="M100-162.5l112.1 179.8" stroke="#fff5007A"/><path d="M100-162.5l185.6 99.5" stroke="#005bbb7A"/><path d="M100-162.5l137.1-159.6" stroke="#fff7A"/><path d="M100-162.5l70.3 197.9" stroke="#fff5007A"/><path d="M100-162.5l206.6 35.1" stroke="#fff7B"/><path d="M100-162.5l81.5-191.4" stroke="#c2e1ff7B"/><path d="M100-162.5l204.9 35.4" stroke="#005bbb7B"/><path d="M100-162.5l-93.9-185.3" stroke="#005bbb7B"/><path d="M100-162.5l119.7-167.1" stroke="#fff5007C"/><path d="M100-162.5l-175.1 102.1" stroke="#fff5007D"/><path d="M100-162.5l-145.1 140.9" stroke="#fff5007D"/><path d="M100-162.5l-154.4-130.2" stroke="#c2e1ff7D"/><path d="M100-162.5l40.9 197.4" stroke="#fff5007E"/><path d="M100-162.5l29.5 199.4" stroke="#c2e1ff7E"/><path d="M100-162.5l-197.7-30.4" stroke="#fff7E"/><path d="M100-162.5l-198.6-14.4" stroke="#c2e1ff7E"/><path d="M100-162.5l-19.5-193.5" stroke="#fff50080"/><path d="M100-162.5l-139.6-130.5" stroke="#fff50081"/><path d="M100-162.5l-119.1 146.2" stroke="#005bbb82"/><path d="M100-162.5l114.3-149.6" stroke="#fff50082"/><path d="M100-162.5l-25.4-186.1" stroke="#fff82"/><path d="M100-162.5l-44.5-182.1" stroke="#fff82"/><path d="M100-162.5l-180.9 36.3" stroke="#c2e1ff83"/><path d="M100-162.5l176.7 43.9" stroke="#fff83"/><path d="M100-162.5l-27.4 179.5" stroke="#fff83"/><path d="M100-162.5l139.3-116.1" stroke="#fff84"/><path d="M100-162.5l179.6 0" stroke="#fff50084"/><path d="M100-162.5l-139.4 111.9" stroke="#fff50084"/><path d="M100-162.5l-157.9 83.7" stroke="#fff84"/><path d="M100-162.5l171.1-39.1" stroke="#fff50085"/><path d="M100-162.5l-46.4 168.3" stroke="#fff50085"/><path d="M100-162.5l-65.2 151.6" stroke="#fff50087"/><path d="M100-162.5l-30.2 160.3" stroke="#c2e1ff88"/><path d="M100-162.5l9.1 160.1" stroke="#005bbb88"/><path d="M100-162.5l122.2 100.1" stroke="#fff89"/><path d="M100-162.5l146.2 52.1" stroke="#fff89"/><path d="M100-162.5l-56.5-143.5" stroke="#fff89"/><path d="M100-162.5l-103.8-110.2" stroke="#005bbb8A"/><path d="M100-162.5l-23.8 148.5" stroke="#fff8A"/><path d="M100-162.5l-102-102.3" stroke="#fff5008B"/><path d="M100-162.5l3.4-138.7" stroke="#fff5008C"/><path d="M100-162.5l41.9 132" stroke="#c2e1ff8C"/><path d="M100-162.5l-60.6 115.8" stroke="#fff8D"/><path d="M100-162.5l2.3-129.2" stroke="#fff5008D"/><path d="M100-162.5l-7.2 124.4" stroke="#fff5008E"/><path d="M100-162.5l38.8-114.9" stroke="#c2e1ff8E"/><path d="M100-162.5l-112.8 30.9" stroke="#c2e1ff8F"/><path d="M100-162.5l-85.8-75.4" stroke="#c2e1ff8F"/><path d="M100-162.5l-36.6-104.8" stroke="#fff90"/><path d="M100-162.5l-83.8 67.5" stroke="#fff50090"/><path d="M100-162.5l84.8 58.7" stroke="#fff50090"/><path d="M100-162.5l-30.2-91.7" stroke="#c2e1ff91"/><path d="M100-162.5l-52.9 70.4" stroke="#fff92"/><path d="M100-162.5l-23-84.9" stroke="#fff92"/><path d="M100-162.5l-74.4-42.1" stroke="#c2e1ff92"/><path d="M100-162.5l27.1 71.8" stroke="#fff50093"/><path d="M100-162.5l-29.2-63.1" stroke="#c2e1ff93"/><path d="M100-162.5l46.6-22.7" stroke="#c2e1ff94"/><path d="M100-162.5l-4.8-13.1" stroke="#fff50095"/></g><g class="sparcs"><path d="M120.8-196.9a6 6 0 1 1 0-11.9 6 6 0 0 1 0 11.9" fill="#fff5007E"/><path d="M152.6-140.9a6 6 0 1 1 0-11.9 6 6 0 0 1 0 11.9" fill="#c2e1ff7E"/><path d="M51.6-196.2a6 6 0 1 1 0-12 6 6 0 0 1 0 12" fill="#fff7F"/><path d="M59.7-103.6a6 6 0 1 1 0-12 6 6 0 0 1 0 12" fill="#fff7F"/><path d="M100.6-225.2a6 6 0 1 1 0-12.1 6 6 0 0 1 0 12.1" fill="#fff7F"/><path d="M112.4-246.3a6.1 6.1 0 1 1 0-12.3 6.1 6.1 0 0 1 0 12.3" fill="#005bbb81"/><path d="M183.3-117.1a6.1 6.1 0 1 1 0-12.3 6.1 6.1 0 0 1 0 12.3" fill="#c2e1ff82"/><path d="M168.8-233.7a6.2 6.2 0 1 1 0-12.5 6.2 6.2 0 0 1 0 12.5" fill="#fff50083"/><path d="M3.7-196.9a6.2 6.2 0 1 1 0-12.4 6.2 6.2 0 0 1 0 12.4" fill="#c2e1ff83"/><path d="M203.8-189.4a6.2 6.2 0 1 1 0-12.5 6.2 6.2 0 0 1 0 12.5" fill="#005bbb84"/><path d="M189.7-223.1a6.3 6.3 0 1 1 0-12.5 6.3 6.3 0 0 1 0 12.5" fill="#005bbb84"/><path d="M3.5-95.4a6.3 6.3 0 1 1 0-12.5 6.3 6.3 0 0 1 0 12.5" fill="#005bbb85"/><path d="M143.6-262.5a6.3 6.3 0 1 1 0-12.5 6.3 6.3 0 0 1 0 12.5" fill="#005bbb85"/><path d="M68.5-278.2a6.4 6.4 0 1 1 0-12.7 6.4 6.4 0 0 1 0 12.7" fill="#fff87"/><path d="M141.2-21.6a6.5 6.5 0 1 1 0-13 6.5 6.5 0 0 1 0 13" fill="#005bbb89"/><path d="M-47.7-107.9a6.6 6.6 0 1 1 0-13.3 6.6 6.6 0 0 1 0 13.3" fill="#c2e1ff8D"/><path d="M10.2-283.5a6.6 6.6 0 1 1 0-13.3 6.6 6.6 0 0 1 0 13.3" fill="#c2e1ff8D"/><path d="M194-280.7a6.6 6.6 0 1 1 0-13.3 6.6 6.6 0 0 1 0 13.3" fill="#c2e1ff8D"/><path d="M215.9-266a6.7 6.7 0 1 1 0-13.4 6.7 6.7 0 0 1 0 13.4" fill="#fff8E"/><path d="M-43.3-84.7a6.7 6.7 0 1 1 0-13.4 6.7 6.7 0 0 1 0 13.4" fill="#fff8E"/><path d="M255.2-116.3a6.7 6.7 0 1 1 0-13.4 6.7 6.7 0 0 1 0 13.4" fill="#005bbb8E"/><path d="M52.9-310.1a6.7 6.7 0 1 1 0-13.4 6.7 6.7 0 0 1 0 13.4" fill="#fff8E"/><path d="M188.7-15.4a6.8 6.8 0 1 1 0-13.5 6.8 6.8 0 0 1 0 13.5" fill="#c2e1ff8F"/><path d="M-17.2-282.9a6.8 6.8 0 1 1 0-13.7 6.8 6.8 0 0 1 0 13.7" fill="#fff91"/><path d="M75-328.8a6.9 6.9 0 1 1 0-13.8 6.9 6.9 0 0 1 0 13.8" fill="#fff50092"/><path d="M208.3-18a6.9 6.9 0 1 1 0-13.7 6.9 6.9 0 0 1 0 13.7" fill="#fff50092"/><path d="M223.9-31.5a6.9 6.9 0 1 1 0-13.8 6.9 6.9 0 0 1 0 13.8" fill="#fff50092"/><path d="M277.6-147.5a6.9 6.9 0 1 1 0-13.8 6.9 6.9 0 0 1 0 13.8" fill="#c2e1ff93"/><path d="M61.8 18.5a6.9 6.9 0 1 1 0-13.9 6.9 6.9 0 0 1 0 13.9" fill="#005bbb93"/><path d="M134.7 21a6.9 6.9 0 1 1 0-13.9 6.9 6.9 0 0 1 0 13.9" fill="#c2e1ff93"/><path d="M96.4 24.6a6.9 6.9 0 1 1 0-13.9 6.9 6.9 0 0 1 0 13.9" fill="#005bbb93"/><path d="M247.7-258.9a7 7 0 1 1 0-13.9 7 7 0 0 1 0 13.9" fill="#c2e1ff93"/><path d="M242-267.4a7 7 0 1 1 0-13.9 7 7 0 0 1 0 13.9" fill="#fff50094"/><path d="M273.1-88.7a7 7 0 1 1 0-14 7 7 0 0 1 0 14" fill="#005bbb95"/><path d="M-92.1-161.7a7.1 7.1 0 1 1 0-14.3 7.1 7.1 0 0 1 0 14.3" fill="#fff98"/><path d="M-62.6-52.5a7.1 7.1 0 1 1 0-14.3 7.1 7.1 0 0 1 0 14.3" fill="#005bbb98"/><path d="M21.6 21.1a7.2 7.2 0 1 1 0-14.3 7.2 7.2 0 0 1 0 14.3" fill="#c2e1ff98"/><path d="M20.3-332.9a7.2 7.2 0 1 1 0-14.3 7.2 7.2 0 0 1 0 14.3" fill="#fff50099"/><path d="M230.4-302a7.2 7.2 0 1 1 0-14.4 7.2 7.2 0 0 1 0 14.4" fill="#fff99"/><path d="M231.1-302.9a7.2 7.2 0 1 1 0-14.4 7.2 7.2 0 0 1 0 14.4" fill="#fff5009A"/><path d="M210.2-320.2a7.3 7.3 0 1 1 0-14.5 7.3 7.3 0 0 1 0 14.5" fill="#fff9A"/><path d="M-34.5-8.5a7.3 7.3 0 1 1 0-14.5 7.3 7.3 0 0 1 0 14.5" fill="#005bbb9B"/><path d="M-33.3-303.5a7.3 7.3 0 1 1 0-14.6 7.3 7.3 0 0 1 0 14.6" fill="#c2e1ff9B"/><path d="M-78.2-65.4a7.3 7.3 0 1 1 0-14.5 7.3 7.3 0 0 1 0 14.5" fill="#fff5009B"/><path d="M252.4-25.7a7.3 7.3 0 1 1 0-14.6 7.3 7.3 0 0 1 0 14.6" fill="#c2e1ff9B"/><path d="M-14.4-322a7.3 7.3 0 1 1 0-14.7 7.3 7.3 0 0 1 0 14.7" fill="#005bbb9C"/><path d="M51.8 42.5a7.4 7.4 0 1 1 0-14.7 7.4 7.4 0 0 1 0 14.7" fill="#005bbb9C"/><path d="M135.2 47.5a7.4 7.4 0 1 1 0-14.8 7.4 7.4 0 0 1 0 14.8" fill="#fff9D"/><path d="M158.6 42.1a7.4 7.4 0 1 1 0-14.9 7.4 7.4 0 0 1 0 14.9" fill="#c2e1ff9E"/><path d="M282.9-57.8a7.4 7.4 0 1 1 0-14.9 7.4 7.4 0 0 1 0 14.9" fill="#fff5009E"/><path d="M289.3-60.6a7.5 7.5 0 1 1 0-15 7.5 7.5 0 0 1 0 15" fill="#fffA1"/><path d="M-10.4-337.6a7.6 7.6 0 1 1 0-15.2 7.6 7.6 0 0 1 0 15.2" fill="#c2e1ffA2"/><path d="M-107-95.8a7.6 7.6 0 1 1 0-15.3 7.6 7.6 0 0 1 0 15.3" fill="#fff500A3"/><path d="M253.7-1.8a7.7 7.7 0 1 1 0-15.4 7.7 7.7 0 0 1 0 15.4" fill="#005bbbA4"/><path d="M320.2-155.1a7.8 7.8 0 1 1 0-15.6 7.8 7.8 0 0 1 0 15.6" fill="#fff500A6"/><path d="M20.2 51.4a7.8 7.8 0 1 1 0-15.6 7.8 7.8 0 0 1 0 15.6" fill="#fffA7"/><path d="M34.6 56.9a7.8 7.8 0 1 1 0-15.6 7.8 7.8 0 0 1 0 15.6" fill="#c2e1ffA7"/><path d="M90.1-376.4a7.8 7.8 0 1 1 0-15.7 7.8 7.8 0 0 1 0 15.7" fill="#fff500A7"/><path d="M-88.3-273.7a7.9 7.9 0 1 1 0-15.8 7.9 7.9 0 0 1 0 15.8" fill="#fff500A8"/><path d="M288-274.8a7.9 7.9 0 1 1 0-15.7 7.9 7.9 0 0 1 0 15.7" fill="#005bbbA8"/><path d="M101.2 69.5a7.9 7.9 0 1 1 0-15.9 7.9 7.9 0 0 1 0 15.9" fill="#fff500A9"/><path d="M20.1-364.2a7.9 7.9 0 1 1 0-15.9 7.9 7.9 0 0 1 0 15.9" fill="#fff500A9"/><path d="M-7.9-355.1a8.1 8.1 0 1 1 0-16.2 8.1 8.1 0 0 1 0 16.2" fill="#fffAC"/><path d="M302.3-261.4a8.1 8.1 0 1 1 0-16.2 8.1 8.1 0 0 1 0 16.2" fill="#c2e1ffAD"/><path d="M155 68.1a8.1 8.1 0 1 1 0-16.3 8.1 8.1 0 0 1 0 16.3" fill="#005bbbAE"/><path d="M307.2-55.7a8.2 8.2 0 1 1 0-16.4 8.2 8.2 0 0 1 0 16.4" fill="#c2e1ffAE"/><path d="M-119.2-222.1a8.2 8.2 0 1 1 0-16.3 8.2 8.2 0 0 1 0 16.3" fill="#fff500AE"/><path d="M193.5-364.3a8.2 8.2 0 1 1 0-16.3 8.2 8.2 0 0 1 0 16.3" fill="#fffAE"/><path d="M-125.9-198.6a8.2 8.2 0 1 1 0-16.4 8.2 8.2 0 0 1 0 16.4" fill="#c2e1ffAF"/><path d="M305.3-49.3a8.2 8.2 0 1 1 0-16.4 8.2 8.2 0 0 1 0 16.4" fill="#005bbbAF"/><path d="M331.2-170.7a8.3 8.3 0 1 1 0-16.6 8.3 8.3 0 0 1 0 16.6" fill="#fff500B1"/><path d="M328.7-109.7a8.4 8.4 0 1 1 0-16.8 8.4 8.4 0 0 1 0 16.8" fill="#005bbbB3"/><path d="M149 73.9a8.4 8.4 0 1 1 0-16.8 8.4 8.4 0 0 1 0 16.8" fill="#fff500B3"/><path d="M142.9 75.4a8.4 8.4 0 1 1 0-16.8 8.4 8.4 0 0 1 0 16.8" fill="#fff500B4"/><path d="M198.6 58.3a8.5 8.5 0 1 1 0-16.9 8.5 8.5 0 0 1 0 16.9" fill="#005bbbB5"/><path d="M9.3 62.5a8.5 8.5 0 1 1 0-17 8.5 8.5 0 0 1 0 17" fill="#005bbbB6"/><path d="M196.8 60a8.5 8.5 0 1 1 0-17.1 8.5 8.5 0 0 1 0 17.1" fill="#fff500B6"/><path d="M180 67.6a8.6 8.6 0 1 1 0-17.3 8.6 8.6 0 0 1 0 17.3" fill="#005bbbB8"/><path d="M-53-332.9a8.6 8.6 0 1 1 0-17.2 8.6 8.6 0 0 1 0 17.2" fill="#fffB8"/><path d="M194.2 62a8.6 8.6 0 1 1 0-17.3 8.6 8.6 0 0 1 0 17.3" fill="#fffB8"/><path d="M-131.7-108.3a8.7 8.7 0 1 1 0-17.5 8.7 8.7 0 0 1 0 17.5" fill="#c2e1ffBB"/><path d="M-131.9-108.7a8.8 8.8 0 1 1 0-17.6 8.8 8.8 0 0 1 0 17.6" fill="#005bbbBC"/><path d="M1.8 61.1a8.8 8.8 0 1 1 0-17.6 8.8 8.8 0 0 1 0 17.6" fill="#c2e1ffBC"/><path d="M257.3 22.6a8.9 8.9 0 1 1 0-17.7 8.9 8.9 0 0 1 0 17.7" fill="#fffBE"/><path d="M315.8-57.6a8.9 8.9 0 1 1 0-17.8 8.9 8.9 0 0 1 0 17.8" fill="#005bbbBE"/><path d="M-135-129.7a8.9 8.9 0 1 1 0-17.9 8.9 8.9 0 0 1 0 17.9" fill="#fffBF"/><path d="M335.8-146.5a9 9 0 1 1 0-18 9 9 0 0 1 0 18" fill="#c2e1ffC1"/><path d="M-125.4-223.1a9 9 0 1 1 0-18.1 9 9 0 0 1 0 18.1" fill="#005bbbC1"/><path d="M-128.6-95.6a9 9 0 1 1 0-18 9 9 0 0 1 0 18" fill="#c2e1ffC1"/><path d="M31.4-379a9.1 9.1 0 1 1 0-18.1 9.1 9.1 0 0 1 0 18.1" fill="#fffC2"/><path d="M251 27.4a9.1 9.1 0 1 1 0-18.1 9.1 9.1 0 0 1 0 18.1" fill="#c2e1ffC2"/><path d="M-11.3 54.1a9.1 9.1 0 1 1 0-18.1 9.1 9.1 0 0 1 0 18.1" fill="#fff500C3"/><path d="M282.9-5.3a9.1 9.1 0 1 1 0-18.3 9.1 9.1 0 0 1 0 18.3" fill="#fffC3"/><path d="M304.8-269.1a9.1 9.1 0 1 1 0-18.2 9.1 9.1 0 0 1 0 18.2" fill="#c2e1ffC4"/><path d="M39.6 73.8a9.2 9.2 0 1 1 0-18.3 9.2 9.2 0 0 1 0 18.3" fill="#005bbbC4"/><path d="M103.3-387.7a9.2 9.2 0 1 1 0-18.4 9.2 9.2 0 0 1 0 18.4" fill="#c2e1ffC6"/><path d="M-94.2-22.6a9.3 9.3 0 1 1 0-18.5 9.3 9.3 0 0 1 0 18.5" fill="#c2e1ffC6"/><path d="M-20.5 46.9a9.3 9.3 0 1 1 0-18.6 9.3 9.3 0 0 1 0 18.6" fill="#c2e1ffC7"/><path d="M-99.8-273.6a9.3 9.3 0 1 1 0-18.7 9.3 9.3 0 0 1 0 18.7" fill="#fffC8"/><path d="M194.3-366.5a9.3 9.3 0 1 1 0-18.6 9.3 9.3 0 0 1 0 18.6" fill="#fffC8"/><path d="M300.1-272.6a9.3 9.3 0 1 1 0-18.7 9.3 9.3 0 0 1 0 18.7" fill="#fff500C8"/><path d="M-127.5-109.5a9.4 9.4 0 1 1 0-18.8 9.4 9.4 0 0 1 0 18.8" fill="#fff500CA"/><path d="M330.9-152.5a9.5 9.5 0 1 1 0-18.9 9.5 9.5 0 0 1 0 18.9" fill="#fff500CB"/><path d="M24.1-370.6a9.5 9.5 0 1 1 0-19 9.5 9.5 0 0 1 0 19" fill="#005bbbCC"/><path d="M289.6-283.5a9.5 9.5 0 1 1 0-19.1 9.5 9.5 0 0 1 0 19.1" fill="#c2e1ffCC"/><path d="M253.7 17.6a9.6 9.6 0 1 1 0-19.1 9.6 9.6 0 0 1 0 19.1" fill="#c2e1ffCD"/><path d="M329.3-152.8a9.6 9.6 0 1 1 0-19.2 9.6 9.6 0 0 1 0 19.2" fill="#fffCD"/><path d="M233.5 33.2a9.6 9.6 0 1 1 0-19.2 9.6 9.6 0 0 1 0 19.2" fill="#fffCD"/><path d="M59.4-377.5a9.6 9.6 0 1 1 0-19.3 9.6 9.6 0 0 1 0 19.3" fill="#c2e1ffCE"/><path d="M117.6-380.3a9.6 9.6 0 1 1 0-19.2 9.6 9.6 0 0 1 0 19.2" fill="#005bbbCE"/><path d="M312.4-235.6a9.6 9.6 0 1 1 0-19.3 9.6 9.6 0 0 1 0 19.3" fill="#c2e1ffCF"/><path d="M284.9-284.9a9.7 9.7 0 1 1 0-19.3 9.7 9.7 0 0 1 0 19.3" fill="#c2e1ffCF"/><path d="M63.2-375a9.7 9.7 0 1 1 0-19.5 9.7 9.7 0 0 1 0 19.5" fill="#fff500D1"/><path d="M145.4-372.5a9.8 9.8 0 1 1 0-19.6 9.8 9.8 0 0 1 0 19.6" fill="#fff500D2"/><path d="M275.9-288.7a9.9 9.9 0 1 1 0-19.7 9.9 9.9 0 0 1 0 19.7" fill="#c2e1ffD3"/><path d="M317.1-198.1a9.9 9.9 0 1 1 0-19.7 9.9 9.9 0 0 1 0 19.7" fill="#005bbbD4"/><path d="M291.5-262.9a9.9 9.9 0 1 1 0-19.8 9.9 9.9 0 0 1 0 19.8" fill="#fffD4"/><path d="M85.2-372a9.9 9.9 0 1 1 0-19.9 9.9 9.9 0 0 1 0 19.9" fill="#fff500D5"/><path d="M142.7-367.2a10 10 0 1 1 0-19.9 10 10 0 0 1 0 19.9" fill="#005bbbD6"/><path d="M309.2-88.9a10 10 0 1 1 0-20 10 10 0 0 1 0 20" fill="#fffD6"/><path d="M315.3-160.7a10.1 10.1 0 1 1 0-20.1 10.1 10.1 0 0 1 0 20.1" fill="#fffD8"/><path d="M-112.1-155.2a10.2 10.2 0 1 1 0-20.3 10.2 10.2 0 0 1 0 20.3" fill="#fffDA"/><path d="M212.1 27.5a10.2 10.2 0 1 1 0-20.4 10.2 10.2 0 0 1 0 20.4" fill="#fffDA"/><path d="M285.6-52.8a10.2 10.2 0 1 1 0-20.4 10.2 10.2 0 0 1 0 20.4" fill="#fffDB"/><path d="M237.1-311.9a10.2 10.2 0 1 1 0-20.4 10.2 10.2 0 0 1 0 20.4" fill="#fff500DB"/><path d="M170.3 45.6a10.2 10.2 0 1 1 0-20.4 10.2 10.2 0 0 1 0 20.4" fill="#fff500DB"/><path d="M306.6-117.2a10.2 10.2 0 1 1 0-20.4 10.2 10.2 0 0 1 0 20.4" fill="#005bbbDC"/><path d="M181.5-343.6a10.3 10.3 0 1 1 0-20.5 10.3 10.3 0 0 1 0 20.5" fill="#005bbbDC"/><path d="M304.9-116.9a10.3 10.3 0 1 1 0-20.5 10.3 10.3 0 0 1 0 20.5" fill="#c2e1ffDC"/><path d="M6.1-337.5a10.3 10.3 0 1 1 0-20.6 10.3 10.3 0 0 1 0 20.6" fill="#c2e1ffDC"/><path d="M219.7-319.3a10.3 10.3 0 1 1 0-20.6 10.3 10.3 0 0 1 0 20.6" fill="#c2e1ffDE"/><path d="M-75.1-50a10.4 10.4 0 1 1 0-20.7 10.4 10.4 0 0 1 0 20.7" fill="#fff500DF"/><path d="M-45.1-11.2a10.4 10.4 0 1 1 0-20.7 10.4 10.4 0 0 1 0 20.7" fill="#fffDF"/><path d="M-54.4-282.3a10.4 10.4 0 1 1 0-20.8 10.4 10.4 0 0 1 0 20.8" fill="#fff500DF"/><path d="M140.9 45.3a10.4 10.4 0 1 1 0-20.8 10.4 10.4 0 0 1 0 20.8" fill="#fff500DF"/><path d="M129.5 47.3a10.4 10.4 0 1 1 0-20.8 10.4 10.4 0 0 1 0 20.8" fill="#c2e1ffDF"/><path d="M-97.7-182.5a10.4 10.4 0 1 1 0-20.8 10.4 10.4 0 0 1 0 20.8" fill="#fffE0"/><path d="M-98.6-166.4a10.4 10.4 0 1 1 0-20.9 10.4 10.4 0 0 1 0 20.9" fill="#005bbbE0"/><path d="M80.5-345.5a10.5 10.5 0 1 1 0-21.1 10.5 10.5 0 0 1 0 21.1" fill="#c2e1ffE2"/><path d="M-39.6-282.4a10.6 10.6 0 1 1 0-21.2 10.6 10.6 0 0 1 0 21.2" fill="#c2e1ffE4"/><path d="M-19.1-5.7a10.6 10.6 0 1 1 0-21.3 10.6 10.6 0 0 1 0 21.3" fill="#c2e1ffE5"/><path d="M214.3-301.4a10.6 10.6 0 1 1 0-21.3 10.6 10.6 0 0 1 0 21.3" fill="#fffE5"/><path d="M74.6-338a10.7 10.7 0 1 1 0-21.3 10.7 10.7 0 0 1 0 21.3" fill="#c2e1ffE5"/><path d="M55.5-333.9a10.7 10.7 0 1 1 0-21.4 10.7 10.7 0 0 1 0 21.4" fill="#005bbbE5"/><path d="M-80.9-115.5a10.7 10.7 0 1 1 0-21.4 10.7 10.7 0 0 1 0 21.4" fill="#005bbbE6"/><path d="M276.7-107.8a10.7 10.7 0 1 1 0-21.5 10.7 10.7 0 0 1 0 21.5" fill="#fff500E7"/><path d="M72.6 27.8a10.7 10.7 0 1 1 0-21.5 10.7 10.7 0 0 1 0 21.5" fill="#fffE7"/><path d="M239.3-267.8a10.8 10.8 0 1 1 0-21.6 10.8 10.8 0 0 1 0 21.6" fill="#fffE7"/><path d="M279.6-151.7a10.8 10.8 0 1 1 0-21.6 10.8 10.8 0 0 1 0 21.6" fill="#fffE8"/><path d="M-39.4-39.8a10.8 10.8 0 1 1 0-21.6 10.8 10.8 0 0 1 0 21.6" fill="#fff500E8"/><path d="M-57.9-68.1a10.8 10.8 0 1 1 0-21.5 10.8 10.8 0 0 1 0 21.5" fill="#c2e1ffE8"/><path d="M271.1-190.7a10.8 10.8 0 1 1 0-21.7 10.8 10.8 0 0 1 0 21.7" fill="#fff500E9"/><path d="M53.6 16.7a10.8 10.8 0 1 1 0-21.7 10.8 10.8 0 0 1 0 21.7" fill="#fffE9"/><path d="M34.8 0.1a11 11 0 1 1 0-22 11 11 0 0 1 0 22" fill="#fffEC"/><path d="M69.8 8.8a11 11 0 1 1 0-22 11 11 0 0 1 0 22" fill="#fffED"/><path d="M109.1 8.6a11 11 0 1 1 0-22 11 11 0 0 1 0 22" fill="#c2e1ffED"/><path d="M222.2-51.4a11.1 11.1 0 1 1 0-22.1 11.1 11.1 0 0 1 0 22.1" fill="#005bbbEE"/><path d="M246.2-99.3a11.1 11.1 0 1 1 0-22.2 11.1 11.1 0 0 1 0 22.2" fill="#005bbbEF"/><path d="M43.5-294.9a11.1 11.1 0 1 1 0-22.2 11.1 11.1 0 0 1 0 22.2" fill="#fffEF"/><path d="M-3.8-261.5a11.1 11.1 0 1 1 0-22.3 11.1 11.1 0 0 1 0 22.3" fill="#c2e1ffEF"/><path d="M76.2-2.9a11.1 11.1 0 1 1 0-22.2 11.1 11.1 0 0 1 0 22.2" fill="#005bbbF0"/><path d="M-2-253.6a11.2 11.2 0 1 1 0-22.4 11.2 11.2 0 0 1 0 22.4" fill="#005bbbF1"/><path d="M103.4-289.9a11.2 11.2 0 1 1 0-22.5 11.2 11.2 0 0 1 0 22.5" fill="#fffF2"/><path d="M141.9-19.3a11.3 11.3 0 1 1 0-22.5 11.3 11.3 0 0 1 0 22.5" fill="#c2e1ffF2"/><path d="M39.4-35.4a11.3 11.3 0 1 1 0-22.6 11.3 11.3 0 0 1 0 22.6" fill="#c2e1ffF4"/><path d="M102.3-280.4a11.3 11.3 0 1 1 0-22.7 11.3 11.3 0 0 1 0 22.7" fill="#fffF4"/><path d="M92.8-26.7a11.4 11.4 0 1 1 0-22.7 11.4 11.4 0 0 1 0 22.7" fill="#005bbbF5"/><path d="M138.8-266a11.4 11.4 0 1 1 0-22.8 11.4 11.4 0 0 1 0 22.8" fill="#fffF5"/><path d="M-12.8-120.1a11.4 11.4 0 1 1 0-22.9 11.4 11.4 0 0 1 0 22.9" fill="#fff500F6"/><path d="M14.2-226.5a11.4 11.4 0 1 1 0-22.9 11.4 11.4 0 0 1 0 22.9" fill="#fffF6"/><path d="M63.4-255.8a11.5 11.5 0 1 1 0-23 11.5 11.5 0 0 1 0 23" fill="#c2e1ffF7"/><path d="M16.2-83.5a11.5 11.5 0 1 1 0-23 11.5 11.5 0 0 1 0 23" fill="#c2e1ffF7"/><path d="M184.8-92.3a11.5 11.5 0 1 1 0-23 11.5 11.5 0 0 1 0 23" fill="#c2e1ffF8"/><path d="M69.8-242.6a11.6 11.6 0 1 1 0-23.1 11.6 11.6 0 0 1 0 23.1" fill="#fff500F9"/><path d="M47.1-80.5a11.6 11.6 0 1 1 0-23.2 11.6 11.6 0 0 1 0 23.2" fill="#fff500FA"/><path d="M77-235.8a11.6 11.6 0 1 1 0-23.2 11.6 11.6 0 0 1 0 23.2" fill="#fffFA"/><path d="M25.6-193a11.6 11.6 0 1 1 0-23.2 11.6 11.6 0 0 1 0 23.2" fill="#fff500FA"/><path d="M127.1-79.1a11.7 11.7 0 1 1 0-23.3 11.7 11.7 0 0 1 0 23.3" fill="#c2e1ffFB"/><path d="M70.8-213.9a11.7 11.7 0 1 1 0-23.3 11.7 11.7 0 0 1 0 23.3" fill="#005bbbFC"/><path d="M146.6-173.4a11.7 11.7 0 1 1 0-23.5 11.7 11.7 0 0 1 0 23.5" fill="#fff500FD"/><path d="M95.2-163.8a11.8 11.8 0 1 1 0-23.6 11.8 11.8 0 0 1 0 23.6" fill="#c2e1ffFE"/></g></svg>