<svg width="1200" height="675" viewBox="-500 -500 1200 675" xmlns="http://www.w3.org/2000/svg"><path d="M-500-500h1200v675h-1200z" fill="#000"/><style>.sparkles path{stroke-linecap:round; stroke-width:1}</style><g class="sparkles"><path d="M100-162.5l26.8-12.5" stroke="#fff50032"/><path d="M100-162.5l39 15.7" stroke="#fff32"/><path d="M100-162.5l35.6 23.1" stroke="#fff32"/><path d="M100-162.5l33-28.5" stroke="#005bbb32"/><path d="M100-162.5l29-59.6" stroke="#005bbb34"/><path d="M100-162.5l54.5 65.1" stroke="#005bbb35"/><path d="M100-162.5l-102.4 40.6" stroke="#fff37"/><path d="M100-162.5l-89-65.5" stroke="#c2e1ff37"/><path d="M100-162.5l78.1 82.5" stroke="#c2e1ff38"/><path d="M100-162.5l14.3-115.3" stroke="#005bbb38"/><path d="M100-162.5l40.2 112.9" stroke="#fff38"/><path d="M100-162.5l-68.4 99.4" stroke="#c2e1ff39"/><path d="M100-162.5l4.1-128.3" stroke="#005bbb3A"/><path d="M100-162.5l-98.9-82.7" stroke="#fff5003A"/><path d="M100-162.5l-90.4 93.8" stroke="#fff5003A"/><path d="M100-162.5l43.5-125.2" stroke="#005bbb3A"/><path d="M100-162.5l-124.7 52.1" stroke="#c2e1ff3A"/><path d="M100-162.5l130.5 38.3" stroke="#fff5003B"/><path d="M100-162.5l-90.3-102" stroke="#005bbb3B"/><path d="M100-162.5l-121.2 91.3" stroke="#005bbb3D"/><path d="M100-162.5l-11.3-151.9" stroke="#c2e1ff3D"/><path d="M100-162.5l-137.3 87.5" stroke="#fff3F"/><path d="M100-162.5l42.7-159.1" stroke="#005bbb40"/><path d="M100-162.5l-83.1-145.7" stroke="#005bbb40"/><path d="M100-162.5l-99.2-137.5" stroke="#fff41"/><path d="M100-162.5l-151.1 98.5" stroke="#005bbb43"/><path d="M100-162.5l-189.2-35.5" stroke="#c2e1ff47"/><path d="M100-162.5l-163.8-102.2" stroke="#005bbb47"/><path d="M100-162.5l15.2 193.8" stroke="#fff50047"/><path d="M100-162.5l-88.6 173.7" stroke="#fff47"/><path d="M100-162.5l-123.4 152.1" stroke="#fff50048"/><path d="M100-162.5l197.5-8.2" stroke="#fff48"/><path d="M100-162.5l-177.3-88.3" stroke="#c2e1ff48"/><path d="M100-162.5l-200 2.5" stroke="#fff49"/><path d="M100-162.5l180.5 90.5" stroke="#c2e1ff4A"/><path d="M100-162.5l-190.3 67.7" stroke="#c2e1ff4A"/><path d="M100-162.5l49.4-197" stroke="#fff5004A"/><path d="M100-162.5l199.7 52.6" stroke="#c2e1ff4B"/><path d="M100-162.5l-207.5 1.8" stroke="#fff5004C"/><path d="M100-162.5l66.3 196.9" stroke="#c2e1ff4C"/><path d="M100-162.5l130.6-162.1" stroke="#fff5004C"/><path d="M100-162.5l142.2 152.1" stroke="#fff5004C"/><path d="M100-162.5l117.8-173" stroke="#005bbb4C"/><path d="M100-162.5l206.4-49.4" stroke="#c2e1ff4E"/><path d="M100-162.5l-211.1-22.1" stroke="#fff4E"/><path d="M100-162.5l-171.5 125.5" stroke="#fff4E"/><path d="M100-162.5l-199.7 78.9" stroke="#c2e1ff4F"/><path d="M100-162.5l-82.2 198.5" stroke="#c2e1ff4F"/><path d="M100-162.5l47.5 209.6" stroke="#005bbb4F"/><path d="M100-162.5l-20-215.1" stroke="#005bbb4F"/><path d="M100-162.5l-217.7-20.5" stroke="#c2e1ff51"/><path d="M100-162.5l171.1 138.3" stroke="#fff51"/><path d="M100-162.5l-206.1 83.2" stroke="#fff50053"/><path d="M100-162.5l-187.1-121.6" stroke="#005bbb53"/><path d="M100-162.5l-87.5 206.1" stroke="#005bbb54"/><path d="M100-162.5l160.5 156.5" stroke="#005bbb54"/><path d="M100-162.5l158.7 158.3" stroke="#fff50054"/><path d="M100-162.5l194.7-111.1" stroke="#c2e1ff54"/><path d="M100-162.5l15.9-224.2" stroke="#fff54"/><path d="M100-162.5l-220.5 47.9" stroke="#005bbb55"/><path d="M100-162.5l130.5-185.2" stroke="#c2e1ff55"/><path d="M100-162.5l105.2-201.9" stroke="#fff56"/><path d="M100-162.5l139.8 181.4" stroke="#fff50057"/><path d="M100-162.5l-32.8-226.9" stroke="#fff50057"/><path d="M100-162.5l-210.5 92.2" stroke="#fff58"/><path d="M100-162.5l218.5-71.6" stroke="#005bbb58"/><path d="M100-162.5l-15.2 230" stroke="#fff59"/><path d="M100-162.5l-207.3-101.1" stroke="#005bbb59"/><path d="M100-162.5l-112.4-202.2" stroke="#c2e1ff59"/><path d="M100-162.5l170-157.7" stroke="#c2e1ff5A"/><path d="M100-162.5l-123.8 196.9" stroke="#c2e1ff5B"/><path d="M100-162.5l-221-74.1" stroke="#fff5B"/><path d="M100-162.5l-160.9-168.9" stroke="#005bbb5C"/><path d="M100-162.5l-197.5-124.4" stroke="#fff5005C"/><path d="M100-162.5l13.4 233.3" stroke="#fff5005C"/><path d="M100-162.5l-9.2-234.3" stroke="#005bbb5D"/><path d="M100-162.5l-203.5 117.3" stroke="#fff5005E"/><path d="M100-162.5l201.7-120.5" stroke="#005bbb5E"/><path d="M100-162.5l-15.4 234.7" stroke="#fff5F"/><path d="M100-162.5l-174.1-158.4" stroke="#fff5005F"/><path d="M100-162.5l-202.6 119.9" stroke="#005bbb5F"/><path d="M100-162.5l235.4 10.6" stroke="#fff50060"/><path d="M100-162.5l-75.2 223.3" stroke="#c2e1ff60"/><path d="M100-162.5l-145.2-185.9" stroke="#005bbb61"/><path d="M100-162.5l136-193" stroke="#fff62"/><path d="M100-162.5l-161.7 172.2" stroke="#fff63"/><path d="M100-162.5l-173-160.9" stroke="#fff50064"/><path d="M100-162.5l175.8-157.8" stroke="#005bbb65"/><path d="M100-162.5l121 202.8" stroke="#fff50065"/><path d="M100-162.5l232.4 41.7" stroke="#c2e1ff65"/><path d="M100-162.5l-29.5-234.2" stroke="#c2e1ff66"/><path d="M100-162.5l-221.9 80.2" stroke="#c2e1ff66"/><path d="M100-162.5l-19.7 235.1" stroke="#fff66"/><path d="M100-162.5l-43 232" stroke="#005bbb66"/><path d="M100-162.5l-226.3-66.3" stroke="#fff66"/><path d="M100-162.5l168-165.4" stroke="#c2e1ff67"/><path d="M100-162.5l-133.5 194.3" stroke="#fff67"/><path d="M100-162.5l147.9 183.5" stroke="#c2e1ff67"/><path d="M100-162.5l-183.5-147.6" stroke="#005bbb68"/><path d="M100-162.5l-223.1 73" stroke="#005bbb69"/><path d="M100-162.5l-34.9-231.2" stroke="#fff5006B"/><path d="M100-162.5l-231.8-29.7" stroke="#c2e1ff6B"/><path d="M100-162.5l-230.3 39.1" stroke="#005bbb6B"/><path d="M100-162.5l109.4-206.4" stroke="#005bbb6B"/><path d="M100-162.5l-223.3 63.5" stroke="#005bbb6D"/><path d="M100-162.5l-225.6-54.1" stroke="#fff5006D"/><path d="M100-162.5l230.7-17.5" stroke="#fff5006E"/><path d="M100-162.5l-196.5-120.8" stroke="#fff5006E"/><path d="M100-162.5l131.8-189.1" stroke="#c2e1ff6E"/><path d="M100-162.5l95 209.7" stroke="#fff5006F"/><path d="M100-162.5l18.4 229" stroke="#c2e1ff6F"/><path d="M100-162.5l188.3 129.9" stroke="#fff70"/><path d="M100-162.5l147.9-174.4" stroke="#005bbb70"/><path d="M100-162.5l227.7-17.9" stroke="#fff50070"/><path d="M100-162.5l30 225" stroke="#c2e1ff71"/><path d="M100-162.5l-3.9 226.1" stroke="#005bbb72"/><path d="M100-162.5l216.7-62.7" stroke="#fff50072"/><path d="M100-162.5l-17.2 224.9" stroke="#c2e1ff72"/><path d="M100-162.5l-30.1-221.9" stroke="#fff50073"/><path d="M100-162.5l-13.1 222.7" stroke="#fff50074"/><path d="M100-162.5l177.1-135.6" stroke="#fff50074"/><path d="M100-162.5l221.2 28" stroke="#c2e1ff74"/><path d="M100-162.5l-149.1-165.7" stroke="#fff74"/><path d="M100-162.5l-202.8-91.3" stroke="#fff74"/><path d="M100-162.5l-193.6 101.3" stroke="#c2e1ff77"/><path d="M100-162.5l75.4-204.7" stroke="#c2e1ff77"/><path d="M100-162.5l128.4 171.9" stroke="#c2e1ff78"/><path d="M100-162.5l-64.5 203.5" stroke="#005bbb79"/><path d="M100-162.5l36.4-210.3" stroke="#c2e1ff79"/><path d="M100-162.5l-42 209.1" stroke="#fff79"/><path d="M100-162.5l140.4-159.8" stroke="#005bbb79"/><path d="M100-162.5l211.5 2.7" stroke="#fff5007A"/><path d="M100-162.5l-206.8 40.2" stroke="#c2e1ff7A"/><path d="M100-162.5l-199-60.6" stroke="#fff5007B"/><path d="M100-162.5l100.1 180.2" stroke="#005bbb7C"/><path d="M100-162.5l142.2-145.3" stroke="#005bbb7D"/><path d="M100-162.5l-38.5-198.6" stroke="#005bbb7D"/><path d="M100-162.5l-122.7-159.4" stroke="#c2e1ff7E"/><path d="M100-162.5l18-199.8" stroke="#fff5007E"/><path d="M100-162.5l87.5 179.1" stroke="#fff5007E"/><path d="M100-162.5l144.7-115.7" stroke="#fff50083"/><path d="M100-162.5l102.1-151.3" stroke="#c2e1ff83"/><path d="M100-162.5l-130.5-125" stroke="#fff50084"/><path d="M100-162.5l-43.6-174.1" stroke="#c2e1ff84"/><path d="M100-162.5l163.1-74.4" stroke="#c2e1ff84"/><path d="M100-162.5l170.6 32.3" stroke="#005bbb85"/><path d="M100-162.5l111.8-130.6" stroke="#005bbb86"/><path d="M100-162.5l90.5-144.2" stroke="#fff86"/><path d="M100-162.5l85.7-140.3" stroke="#c2e1ff87"/><path d="M100-162.5l-37.8-151.9" stroke="#fff50089"/><path d="M100-162.5l150.8 33.2" stroke="#c2e1ff89"/><path d="M100-162.5l98.1-113.4" stroke="#fff8A"/><path d="M100-162.5l149.8 0" stroke="#fff5008A"/><path d="M100-162.5l42.6-140.2" stroke="#fff5008B"/><path d="M100-162.5l138.3-40.9" stroke="#005bbb8B"/><path d="M100-162.5l-80.9 118.6" stroke="#fff5008B"/><path d="M100-162.5l101.8 97.3" stroke="#c2e1ff8C"/><path d="M100-162.5l91.9 104.2" stroke="#fff5008C"/><path d="M100-162.5l8.3 132.7" stroke="#fff8D"/><path d="M100-162.5l125.2-42.4" stroke="#fff5008D"/><path d="M100-162.5l-64.2 111.8" stroke="#005bbb8D"/><path d="M100-162.5l122.3-27.5" stroke="#fff5008E"/><path d="M100-162.5l-106.2 18.4" stroke="#fff90"/><path d="M100-162.5l-98.7 28.4" stroke="#c2e1ff91"/><path d="M100-162.5l-91.6-42.8" stroke="#c2e1ff91"/><path d="M100-162.5l20.4-91" stroke="#fff91"/><path d="M100-162.5l-59.6 70.9" stroke="#fff91"/><path d="M100-162.5l-23.5 84" stroke="#fff92"/><path d="M100-162.5l-66.4-47.1" stroke="#005bbb92"/><path d="M100-162.5l47.7 62.4" stroke="#fff50093"/><path d="M100-162.5l53.9-55" stroke="#fff93"/><path d="M100-162.5l-12.2-71.4" stroke="#fff93"/><path d="M100-162.5l-21 63.2" stroke="#fff50093"/><path d="M100-162.5l29.9 53.2" stroke="#c2e1ff94"/><path d="M100-162.5l-42.8 26.6" stroke="#fff94"/><path d="M100-162.5l-48.6 9.8" stroke="#fff94"/><path d="M100-162.5l44 7.2" stroke="#c2e1ff95"/><path d="M100-162.5l42.3 12.5" stroke="#fff50095"/><path d="M100-162.5l-24.8 13.6" stroke="#fff50095"/><path d="M100-162.5l-25 11.3" stroke="#fff95"/><path d="M100-162.5l-11.4 24.6" stroke="#fff95"/></g><g class="sparcs"><path d="M126.8-169.1a5.9 5.9 0 1 1 0-11.9 5.9 5.9 0 0 1 0 11.9" fill="#fff5007D"/><path d="M139-140.9a6 6 0 1 1 0-11.9 6 6 0 0 1 0 11.9" fill="#fff7E"/><path d="M135.6-133.4a6 6 0 1 1 0-11.9 6 6 0 0 1 0 11.9" fill="#fff5007E"/><path d="M133-185.1a6 6 0 1 1 0-11.9 6 6 0 0 1 0 11.9" fill="#005bbb7E"/><path d="M129-216.1a6 6 0 1 1 0-12.1 6 6 0 0 1 0 12.1" fill="#005bbb7F"/><path d="M154.5-91.2a6.1 6.1 0 1 1 0-12.3 6.1 6.1 0 0 1 0 12.3" fill="#005bbb81"/><path d="M-2.4-115.7a6.2 6.2 0 1 1 0-12.5 6.2 6.2 0 0 1 0 12.5" fill="#c2e1ff84"/><path d="M11-221.7a6.2 6.2 0 1 1 0-12.5 6.2 6.2 0 0 1 0 12.5" fill="#c2e1ff84"/><path d="M178.1-73.7a6.3 6.3 0 1 1 0-12.5 6.3 6.3 0 0 1 0 12.5" fill="#005bbb85"/><path d="M114.3-271.5a6.3 6.3 0 1 1 0-12.5 6.3 6.3 0 0 1 0 12.5" fill="#fff85"/><path d="M140.2-43.3a6.3 6.3 0 1 1 0-12.6 6.3 6.3 0 0 1 0 12.6" fill="#fff85"/><path d="M31.6-56.8a6.3 6.3 0 1 1 0-12.7 6.3 6.3 0 0 1 0 12.7" fill="#c2e1ff86"/><path d="M104.1-284.5a6.4 6.4 0 1 1 0-12.7 6.4 6.4 0 0 1 0 12.7" fill="#fff50087"/><path d="M1.1-238.8a6.4 6.4 0 1 1 0-12.8 6.4 6.4 0 0 1 0 12.8" fill="#c2e1ff87"/><path d="M9.6-62.3a6.4 6.4 0 1 1 0-12.8 6.4 6.4 0 0 1 0 12.8" fill="#fff87"/><path d="M143.5-281.3a6.4 6.4 0 1 1 0-12.8 6.4 6.4 0 0 1 0 12.8" fill="#fff88"/><path d="M-24.7-104a6.4 6.4 0 1 1 0-12.8 6.4 6.4 0 0 1 0 12.8" fill="#fff88"/><path d="M230.5-117.8a6.4 6.4 0 1 1 0-12.8 6.4 6.4 0 0 1 0 12.8" fill="#c2e1ff88"/><path d="M9.7-258.1a6.4 6.4 0 1 1 0-12.9 6.4 6.4 0 0 1 0 12.9" fill="#c2e1ff88"/><path d="M-21.2-64.6a6.6 6.6 0 1 1 0-13.2 6.6 6.6 0 0 1 0 13.2" fill="#005bbb8C"/><path d="M88.7-307.8a6.6 6.6 0 1 1 0-13.2 6.6 6.6 0 0 1 0 13.2" fill="#fff5008C"/><path d="M-37.3-68.2a6.7 6.7 0 1 1 0-13.5 6.7 6.7 0 0 1 0 13.5" fill="#fff5008E"/><path d="M142.7-314.9a6.7 6.7 0 1 1 0-13.4 6.7 6.7 0 0 1 0 13.4" fill="#fff5008F"/><path d="M16.9-301.4a6.8 6.8 0 1 1 0-13.6 6.8 6.8 0 0 1 0 13.6" fill="#005bbb90"/><path d="M0.8-293.2a6.8 6.8 0 1 1 0-13.6 6.8 6.8 0 0 1 0 13.6" fill="#fff50090"/><path d="M-51.1-57.1a7 7 0 1 1 0-13.9 7 7 0 0 1 0 13.9" fill="#005bbb94"/><path d="M-89.2-190.9a7.1 7.1 0 1 1 0-14.3 7.1 7.1 0 0 1 0 14.3" fill="#fff50098"/><path d="M-63.8-257.6a7.2 7.2 0 1 1 0-14.3 7.2 7.2 0 0 1 0 14.3" fill="#fff50098"/><path d="M115.2 38.4a7.2 7.2 0 1 1 0-14.3 7.2 7.2 0 0 1 0 14.3" fill="#c2e1ff99"/><path d="M11.4 18.4a7.2 7.2 0 1 1 0-14.4 7.2 7.2 0 0 1 0 14.4" fill="#c2e1ff99"/><path d="M-23.4-3.1a7.2 7.2 0 1 1 0-14.5 7.2 7.2 0 0 1 0 14.5" fill="#c2e1ff99"/><path d="M297.5-163.5a7.2 7.2 0 1 1 0-14.5 7.2 7.2 0 0 1 0 14.5" fill="#fff5009A"/><path d="M-77.3-243.5a7.2 7.2 0 1 1 0-14.5 7.2 7.2 0 0 1 0 14.5" fill="#005bbb9A"/><path d="M-100-152.7a7.3 7.3 0 1 1 0-14.6 7.3 7.3 0 0 1 0 14.6" fill="#005bbb9B"/><path d="M280.5-64.7a7.3 7.3 0 1 1 0-14.6 7.3 7.3 0 0 1 0 14.6" fill="#005bbb9C"/><path d="M-90.3-87.5a7.3 7.3 0 1 1 0-14.6 7.3 7.3 0 0 1 0 14.6" fill="#fff9C"/><path d="M149.4-352.2a7.4 7.4 0 1 1 0-14.7 7.4 7.4 0 0 1 0 14.7" fill="#005bbb9C"/><path d="M299.7-102.5a7.4 7.4 0 1 1 0-14.8 7.4 7.4 0 0 1 0 14.8" fill="#c2e1ff9E"/><path d="M-107.5-153.3a7.4 7.4 0 1 1 0-14.9 7.4 7.4 0 0 1 0 14.9" fill="#fff5009E"/><path d="M166.3 41.9a7.5 7.5 0 1 1 0-14.9 7.5 7.5 0 0 1 0 14.9" fill="#fff5009F"/><path d="M230.6-317.2a7.5 7.5 0 1 1 0-14.9 7.5 7.5 0 0 1 0 14.9" fill="#c2e1ff9F"/><path d="M242.2-3a7.5 7.5 0 1 1 0-14.9 7.5 7.5 0 0 1 0 14.9" fill="#fff9F"/><path d="M217.8-328a7.5 7.5 0 1 1 0-15 7.5 7.5 0 0 1 0 15" fill="#fff5009F"/><path d="M306.4-204.4a7.6 7.6 0 1 1 0-15.1 7.6 7.6 0 0 1 0 15.1" fill="#fffA1"/><path d="M-111.1-177.1a7.6 7.6 0 1 1 0-15.1 7.6 7.6 0 0 1 0 15.1" fill="#c2e1ffA1"/><path d="M-71.5-29.5a7.6 7.6 0 1 1 0-15.1 7.6 7.6 0 0 1 0 15.1" fill="#fffA1"/><path d="M-99.7-76a7.6 7.6 0 1 1 0-15.3 7.6 7.6 0 0 1 0 15.3" fill="#fffA2"/><path d="M17.8 43.7a7.6 7.6 0 1 1 0-15.3 7.6 7.6 0 0 1 0 15.3" fill="#c2e1ffA2"/><path d="M147.5 54.7a7.6 7.6 0 1 1 0-15.3 7.6 7.6 0 0 1 0 15.3" fill="#005bbbA2"/><path d="M80-370a7.7 7.7 0 1 1 0-15.3 7.7 7.7 0 0 1 0 15.3" fill="#005bbbA3"/><path d="M-117.7-175.2a7.7 7.7 0 1 1 0-15.5 7.7 7.7 0 0 1 0 15.5" fill="#fff500A5"/><path d="M271.1-16.5a7.8 7.8 0 1 1 0-15.5 7.8 7.8 0 0 1 0 15.5" fill="#fff500A6"/><path d="M-106.1-71.5a7.9 7.9 0 1 1 0-15.7 7.9 7.9 0 0 1 0 15.7" fill="#fffA7"/><path d="M-87.1-276.2a7.9 7.9 0 1 1 0-15.8 7.9 7.9 0 0 1 0 15.8" fill="#fffA8"/><path d="M12.5 51.5a7.9 7.9 0 1 1 0-15.8 7.9 7.9 0 0 1 0 15.8" fill="#c2e1ffA9"/><path d="M260.5 1.9a7.9 7.9 0 1 1 0-15.8 7.9 7.9 0 0 1 0 15.8" fill="#c2e1ffA9"/><path d="M258.7 3.8a7.9 7.9 0 1 1 0-15.9 7.9 7.9 0 0 1 0 15.9" fill="#fff500A9"/><path d="M294.7-265.7a7.9 7.9 0 1 1 0-15.9 7.9 7.9 0 0 1 0 15.9" fill="#fffA9"/><path d="M115.9-378.8a8 8 0 1 1 0-15.9 8 8 0 0 1 0 15.9" fill="#fffAA"/><path d="M-120.5-106.6a8 8 0 1 1 0-16 8 8 0 0 1 0 16" fill="#fff500AA"/><path d="M230.5-339.7a8 8 0 1 1 0-16 8 8 0 0 1 0 16" fill="#fffAB"/><path d="M205.2-356.3a8.1 8.1 0 1 1 0-16.1 8.1 8.1 0 0 1 0 16.1" fill="#c2e1ffAC"/><path d="M239.8 27.1a8.1 8.1 0 1 1 0-16.3 8.1 8.1 0 0 1 0 16.3" fill="#fffAE"/><path d="M67.2-381.3a8.1 8.1 0 1 1 0-16.3 8.1 8.1 0 0 1 0 16.3" fill="#fff500AE"/><path d="M-110.5-62.2a8.2 8.2 0 1 1 0-16.3 8.2 8.2 0 0 1 0 16.3" fill="#c2e1ffAE"/><path d="M318.5-225.9a8.2 8.2 0 1 1 0-16.4 8.2 8.2 0 0 1 0 16.4" fill="#c2e1ffAF"/><path d="M84.8 75.7a8.2 8.2 0 1 1 0-16.4 8.2 8.2 0 0 1 0 16.4" fill="#c2e1ffAF"/><path d="M-107.3-255.4a8.2 8.2 0 1 1 0-16.4 8.2 8.2 0 0 1 0 16.4" fill="#fffAF"/><path d="M-12.4-356.4a8.3 8.3 0 1 1 0-16.5 8.3 8.3 0 0 1 0 16.5" fill="#005bbbB0"/><path d="M270-311.9a8.3 8.3 0 1 1 0-16.6 8.3 8.3 0 0 1 0 16.6" fill="#005bbbB1"/><path d="M-23.8 42.8a8.3 8.3 0 1 1 0-16.7 8.3 8.3 0 0 1 0 16.7" fill="#fff500B2"/><path d="M-121-228.2a8.4 8.4 0 1 1 0-16.7 8.4 8.4 0 0 1 0 16.7" fill="#c2e1ffB3"/><path d="M-60.9-323a8.4 8.4 0 1 1 0-16.8 8.4 8.4 0 0 1 0 16.8" fill="#c2e1ffB3"/><path d="M-97.5-278.5a8.4 8.4 0 1 1 0-16.8 8.4 8.4 0 0 1 0 16.8" fill="#c2e1ffB3"/><path d="M113.4 79.2a8.4 8.4 0 1 1 0-16.9 8.4 8.4 0 0 1 0 16.9" fill="#fffB4"/><path d="M90.8-388.3a8.5 8.5 0 1 1 0-17 8.5 8.5 0 0 1 0 17" fill="#c2e1ffB6"/><path d="M-103.5-36.7a8.5 8.5 0 1 1 0-17 8.5 8.5 0 0 1 0 17" fill="#fffB7"/><path d="M301.7-274.4a8.5 8.5 0 1 1 0-17.1 8.5 8.5 0 0 1 0 17.1" fill="#fffB7"/><path d="M84.6 80.8a8.6 8.6 0 1 1 0-17.1 8.6 8.6 0 0 1 0 17.1" fill="#c2e1ffB8"/><path d="M-74.1-312.3a8.6 8.6 0 1 1 0-17.2 8.6 8.6 0 0 1 0 17.2" fill="#005bbbB8"/><path d="M-102.6-34a8.6 8.6 0 1 1 0-17.2 8.6 8.6 0 0 1 0 17.2" fill="#c2e1ffB8"/><path d="M335.4-143.3a8.6 8.6 0 1 1 0-17.3 8.6 8.6 0 0 1 0 17.3" fill="#005bbbB9"/><path d="M24.8 69.5a8.7 8.7 0 1 1 0-17.3 8.7 8.7 0 0 1 0 17.3" fill="#005bbbB9"/><path d="M-45.2-339.7a8.7 8.7 0 1 1 0-17.4 8.7 8.7 0 0 1 0 17.4" fill="#fff500BA"/><path d="M236-346.7a8.8 8.8 0 1 1 0-17.5 8.8 8.8 0 0 1 0 17.5" fill="#fffBB"/><path d="M-61.7 18.5a8.8 8.8 0 1 1 0-17.6 8.8 8.8 0 0 1 0 17.6" fill="#fffBD"/><path d="M-73-314.5a8.9 8.9 0 1 1 0-17.8 8.9 8.9 0 0 1 0 17.8" fill="#005bbbBE"/><path d="M275.8-311.3a8.9 8.9 0 1 1 0-17.9 8.9 8.9 0 0 1 0 17.9" fill="#005bbbBF"/><path d="M221 49.3a8.9 8.9 0 1 1 0-17.9 8.9 8.9 0 0 1 0 17.9" fill="#005bbbBF"/><path d="M332.4-111.8a8.9 8.9 0 1 1 0-17.9 8.9 8.9 0 0 1 0 17.9" fill="#005bbbBF"/><path d="M70.5-387.7a9 9 0 1 1 0-18 9 9 0 0 1 0 18" fill="#005bbbC0"/><path d="M-121.9-73.3a9 9 0 1 1 0-18 9 9 0 0 1 0 18" fill="#fff500C1"/><path d="M80.3 81.6a9 9 0 1 1 0-18 9 9 0 0 1 0 18" fill="#005bbbC1"/><path d="M57 78.5a9 9 0 1 1 0-18 9 9 0 0 1 0 18" fill="#fffC1"/><path d="M-126.3-219.8a9 9 0 1 1 0-18.1 9 9 0 0 1 0 18.1" fill="#005bbbC1"/><path d="M268-318.9a9 9 0 1 1 0-18.1 9 9 0 0 1 0 18.1" fill="#005bbbC2"/><path d="M-33.5 40.9a9 9 0 1 1 0-18.1 9 9 0 0 1 0 18.1" fill="#fffC2"/><path d="M247.9 30a9.1 9.1 0 1 1 0-18.1 9.1 9.1 0 0 1 0 18.1" fill="#c2e1ffC2"/><path d="M-83.5-301a9.1 9.1 0 1 1 0-18.2 9.1 9.1 0 0 1 0 18.2" fill="#c2e1ffC3"/><path d="M-123.1-80.3a9.2 9.2 0 1 1 0-18.4 9.2 9.2 0 0 1 0 18.4" fill="#fffC5"/><path d="M65.1-384.4a9.3 9.3 0 1 1 0-18.5 9.3 9.3 0 0 1 0 18.5" fill="#fffC7"/><path d="M-131.8-182.9a9.3 9.3 0 1 1 0-18.6 9.3 9.3 0 0 1 0 18.6" fill="#005bbbC7"/><path d="M-130.3-114.1a9.3 9.3 0 1 1 0-18.6 9.3 9.3 0 0 1 0 18.6" fill="#fff500C7"/><path d="M209.4-359.5a9.3 9.3 0 1 1 0-18.7 9.3 9.3 0 0 1 0 18.7" fill="#005bbbC7"/><path d="M-123.3-89.6a9.4 9.4 0 1 1 0-18.9 9.4 9.4 0 0 1 0 18.9" fill="#c2e1ffCA"/><path d="M-125.6-207.1a9.4 9.4 0 1 1 0-18.9 9.4 9.4 0 0 1 0 18.9" fill="#fff500CA"/><path d="M330.7-170.5a9.5 9.5 0 1 1 0-19 9.5 9.5 0 0 1 0 19" fill="#fffCB"/><path d="M-96.5-273.8a9.5 9.5 0 1 1 0-19 9.5 9.5 0 0 1 0 19" fill="#fffCC"/><path d="M231.8-342.1a9.5 9.5 0 1 1 0-19 9.5 9.5 0 0 1 0 19" fill="#fffCC"/><path d="M195 56.7a9.5 9.5 0 1 1 0-19.1 9.5 9.5 0 0 1 0 19.1" fill="#fffCC"/><path d="M118.4 76.1a9.5 9.5 0 1 1 0-19.1 9.5 9.5 0 0 1 0 19.1" fill="#c2e1ffCD"/><path d="M288.3-23a9.6 9.6 0 1 1 0-19.2 9.6 9.6 0 0 1 0 19.2" fill="#005bbbCE"/><path d="M247.9-327.3a9.6 9.6 0 1 1 0-19.2 9.6 9.6 0 0 1 0 19.2" fill="#c2e1ffCE"/><path d="M327.7-170.8a9.6 9.6 0 1 1 0-19.2 9.6 9.6 0 0 1 0 19.2" fill="#fff500CE"/><path d="M130 72.2a9.7 9.7 0 1 1 0-19.4 9.7 9.7 0 0 1 0 19.4" fill="#c2e1ffCF"/><path d="M96.1 73.3a9.7 9.7 0 1 1 0-19.4 9.7 9.7 0 0 1 0 19.4" fill="#fffD0"/><path d="M316.7-215.5a9.7 9.7 0 1 1 0-19.5 9.7 9.7 0 0 1 0 19.5" fill="#fff500D1"/><path d="M82.8 72.2a9.7 9.7 0 1 1 0-19.5 9.7 9.7 0 0 1 0 19.5" fill="#fff500D1"/><path d="M69.9-374.6a9.8 9.8 0 1 1 0-19.6 9.8 9.8 0 0 1 0 19.6" fill="#fff500D2"/><path d="M86.9 70.1a9.8 9.8 0 1 1 0-19.7 9.8 9.8 0 0 1 0 19.7" fill="#fffD3"/><path d="M277.1-288.3a9.8 9.8 0 1 1 0-19.7 9.8 9.8 0 0 1 0 19.7" fill="#005bbbD3"/><path d="M321.2-124.6a9.8 9.8 0 1 1 0-19.7 9.8 9.8 0 0 1 0 19.7" fill="#c2e1ffD3"/><path d="M-49.1-318.3a9.8 9.8 0 1 1 0-19.7 9.8 9.8 0 0 1 0 19.7" fill="#005bbbD3"/><path d="M-102.8-243.9a9.9 9.9 0 1 1 0-19.8 9.9 9.9 0 0 1 0 19.8" fill="#c2e1ffD3"/><path d="M-93.6-51.2a10 10 0 1 1 0-20 10 10 0 0 1 0 20" fill="#fff500D6"/><path d="M175.4-357.2a10 10 0 1 1 0-20 10 10 0 0 1 0 20" fill="#c2e1ffD6"/><path d="M228.4 19.5a10.1 10.1 0 1 1 0-20.2 10.1 10.1 0 0 1 0 20.2" fill="#005bbbD9"/><path d="M35.5 51.2a10.1 10.1 0 1 1 0-20.3 10.1 10.1 0 0 1 0 20.3" fill="#fffD9"/><path d="M136.4-362.6a10.1 10.1 0 1 1 0-20.3 10.1 10.1 0 0 1 0 20.3" fill="#fffD9"/><path d="M58 56.7a10.1 10.1 0 1 1 0-20.2 10.1 10.1 0 0 1 0 20.2" fill="#fffD9"/><path d="M240.4-312.2a10.1 10.1 0 1 1 0-20.3 10.1 10.1 0 0 1 0 20.3" fill="#fff500DA"/><path d="M311.5-149.6a10.2 10.2 0 1 1 0-20.4 10.2 10.2 0 0 1 0 20.4" fill="#005bbbDA"/><path d="M-106.8-112.1a10.2 10.2 0 1 1 0-20.4 10.2 10.2 0 0 1 0 20.4" fill="#c2e1ffDB"/><path d="M-99-212.8a10.3 10.3 0 1 1 0-20.6 10.3 10.3 0 0 1 0 20.6" fill="#fffDC"/><path d="M200.1 28a10.3 10.3 0 1 1 0-20.6 10.3 10.3 0 0 1 0 20.6" fill="#c2e1ffDD"/><path d="M242.2-297.4a10.4 10.4 0 1 1 0-20.7 10.4 10.4 0 0 1 0 20.7" fill="#fff500DF"/><path d="M61.5-350.7a10.4 10.4 0 1 1 0-20.8 10.4 10.4 0 0 1 0 20.8" fill="#c2e1ffDF"/><path d="M-22.7-311.5a10.4 10.4 0 1 1 0-20.8 10.4 10.4 0 0 1 0 20.8" fill="#fffE0"/><path d="M118-351.9a10.4 10.4 0 1 1 0-20.9 10.4 10.4 0 0 1 0 20.9" fill="#fffE0"/><path d="M187.5 27a10.4 10.4 0 1 1 0-20.9 10.4 10.4 0 0 1 0 20.9" fill="#fff500E0"/><path d="M244.7-267.5a10.7 10.7 0 1 1 0-21.4 10.7 10.7 0 0 1 0 21.4" fill="#fffE6"/><path d="M202.1-303a10.7 10.7 0 1 1 0-21.5 10.7 10.7 0 0 1 0 21.5" fill="#005bbbE7"/><path d="M-30.5-276.7a10.8 10.8 0 1 1 0-21.5 10.8 10.8 0 0 1 0 21.5" fill="#fffE7"/><path d="M56.4-325.8a10.8 10.8 0 1 1 0-21.6 10.8 10.8 0 0 1 0 21.6" fill="#c2e1ffE8"/><path d="M263.1-226.1a10.8 10.8 0 1 1 0-21.6 10.8 10.8 0 0 1 0 21.6" fill="#fff500E8"/><path d="M270.6-119.3a10.9 10.9 0 1 1 0-21.7 10.9 10.9 0 0 1 0 21.7" fill="#005bbbEA"/><path d="M211.8-282.2a10.9 10.9 0 1 1 0-21.8 10.9 10.9 0 0 1 0 21.8" fill="#005bbbEA"/><path d="M190.5-295.8a10.9 10.9 0 1 1 0-21.8 10.9 10.9 0 0 1 0 21.8" fill="#fff500EB"/><path d="M185.7-291.8a11 11 0 1 1 0-22 11 11 0 0 1 0 22" fill="#fffEC"/><path d="M62.2-303.4a11.1 11.1 0 1 1 0-22.1 11.1 11.1 0 0 1 0 22.1" fill="#fffEE"/><path d="M250.8-118.2a11.1 11.1 0 1 1 0-22.1 11.1 11.1 0 0 1 0 22.1" fill="#c2e1ffEF"/><path d="M198.1-264.8a11.1 11.1 0 1 1 0-22.3 11.1 11.1 0 0 1 0 22.3" fill="#005bbbF0"/><path d="M249.8-151.4a11.1 11.1 0 1 1 0-22.2 11.1 11.1 0 0 1 0 22.2" fill="#fffF0"/><path d="M142.6-291.5a11.2 11.2 0 1 1 0-22.4 11.2 11.2 0 0 1 0 22.4" fill="#fffF0"/><path d="M238.3-192.3a11.2 11.2 0 1 1 0-22.3 11.2 11.2 0 0 1 0 22.3" fill="#c2e1ffF1"/><path d="M19.1-32.7a11.2 11.2 0 1 1 0-22.4 11.2 11.2 0 0 1 0 22.4" fill="#005bbbF1"/><path d="M201.8-54a11.2 11.2 0 1 1 0-22.5 11.2 11.2 0 0 1 0 22.5" fill="#fffF2"/><path d="M191.9-47.1a11.2 11.2 0 1 1 0-22.5 11.2 11.2 0 0 1 0 22.5" fill="#fff500F2"/><path d="M108.3-18.5a11.3 11.3 0 1 1 0-22.6 11.3 11.3 0 0 1 0 22.6" fill="#005bbbF3"/><path d="M225.2-193.6a11.3 11.3 0 1 1 0-22.6 11.3 11.3 0 0 1 0 22.6" fill="#c2e1ffF3"/><path d="M35.8-39.4a11.3 11.3 0 1 1 0-22.7 11.3 11.3 0 0 1 0 22.7" fill="#005bbbF4"/><path d="M222.3-178.6a11.4 11.4 0 1 1 0-22.8 11.4 11.4 0 0 1 0 22.8" fill="#005bbbF5"/><path d="M-6.2-132.6a11.5 11.5 0 1 1 0-23 11.5 11.5 0 0 1 0 23" fill="#005bbbF7"/><path d="M1.3-122.5a11.5 11.5 0 1 1 0-23.1 11.5 11.5 0 0 1 0 23.1" fill="#c2e1ffF8"/><path d="M8.4-193.7a11.5 11.5 0 1 1 0-23.1 11.5 11.5 0 0 1 0 23.1" fill="#fffF8"/><path d="M120.4-242a11.6 11.6 0 1 1 0-23.1 11.6 11.6 0 0 1 0 23.1" fill="#fffF9"/><path d="M40.4-80a11.6 11.6 0 1 1 0-23.2 11.6 11.6 0 0 1 0 23.2" fill="#c2e1ffF9"/><path d="M76.5-66.9a11.6 11.6 0 1 1 0-23.2 11.6 11.6 0 0 1 0 23.2" fill="#fffFA"/><path d="M33.6-198a11.6 11.6 0 1 1 0-23.2 11.6 11.6 0 0 1 0 23.2" fill="#005bbbFB"/><path d="M147.7-88.4a11.6 11.6 0 1 1 0-23.3 11.6 11.6 0 0 1 0 23.3" fill="#fffFB"/><path d="M153.9-205.9a11.7 11.7 0 1 1 0-23.3 11.7 11.7 0 0 1 0 23.3" fill="#fffFB"/><path d="M87.8-222.2a11.7 11.7 0 1 1 0-23.3 11.7 11.7 0 0 1 0 23.3" fill="#c2e1ffFB"/><path d="M79-87.6a11.7 11.7 0 1 1 0-23.4 11.7 11.7 0 0 1 0 23.4" fill="#fffFC"/><path d="M129.9-97.6a11.7 11.7 0 1 1 0-23.4 11.7 11.7 0 0 1 0 23.4" fill="#c2e1ffFC"/><path d="M57.2-124.1a11.7 11.7 0 1 1 0-23.5 11.7 11.7 0 0 1 0 23.5" fill="#005bbbFD"/><path d="M51.4-141a11.7 11.7 0 1 1 0-23.4 11.7 11.7 0 0 1 0 23.4" fill="#c2e1ffFD"/><path d="M144-143.5a11.8 11.8 0 1 1 0-23.5 11.8 11.8 0 0 1 0 23.5" fill="#fff500FD"/><path d="M142.3-138.2a11.8 11.8 0 1 1 0-23.5 11.8 11.8 0 0 1 0 23.5" fill="#fff500FD"/><path d="M75.2-137.1a11.8 11.8 0 1 1 0-23.6 11.8 11.8 0 0 1 0 23.6" fill="#005bbbFE"/><path d="M75-139.5a11.8 11.8 0 1 1 0-23.5 11.8 11.8 0 0 1 0 23.5" fill="#c2e1ffFE"/><path d="M88.6-126.1a11.8 11.8 0 1 1 0-23.6 11.8 11.8 0 0 1 0 23.6" fill="#c2e1ffFE"/></g></svg>