<svg width="1200" height="675" viewBox="-500 -500 1200 675" xmlns="http://www.w3.org/2000/svg"><path d="M-500-500h1200v675h-1200z" fill="#000"/><style>.sparkles path{stroke-linecap:round; stroke-width:1}</style><g class="sparkles"><path d="M100-162.5l3.7 5.9" stroke="#005bbb32"/><path d="M100-162.5l-12.7 31.2" stroke="#c2e1ff32"/><path d="M100-162.5l-28.3 26" stroke="#fff32"/><path d="M100-162.5l66.6 1.9" stroke="#c2e1ff34"/><path d="M100-162.5l22.5 76.6" stroke="#fff34"/><path d="M100-162.5l-74.5-29.7" stroke="#fff50034"/><path d="M100-162.5l72.2 39.5" stroke="#fff50035"/><path d="M100-162.5l77.8 39.5" stroke="#c2e1ff35"/><path d="M100-162.5l39.7-102.3" stroke="#fff50037"/><path d="M100-162.5l32.5 105.8" stroke="#fff37"/><path d="M100-162.5l-12.2 113.1" stroke="#fff50038"/><path d="M100-162.5l92.8-72.4" stroke="#c2e1ff38"/><path d="M100-162.5l-23.5-117.2" stroke="#fff38"/><path d="M100-162.5l-81.1 89.7" stroke="#fff50039"/><path d="M100-162.5l-124.1-38.1" stroke="#fff5003A"/><path d="M100-162.5l126.5-36.1" stroke="#c2e1ff3A"/><path d="M100-162.5l134.8 19.1" stroke="#fff5003B"/><path d="M100-162.5l-138.9-24.4" stroke="#fff3B"/><path d="M100-162.5l-92.1-115.5" stroke="#005bbb3C"/><path d="M100-162.5l-94.1-115.4" stroke="#fff5003D"/><path d="M100-162.5l-39.7-143.7" stroke="#fff3D"/><path d="M100-162.5l-127.3 78.9" stroke="#005bbb3D"/><path d="M100-162.5l120.3-92.5" stroke="#c2e1ff3D"/><path d="M100-162.5l-11.8-151.7" stroke="#005bbb3D"/><path d="M100-162.5l-127.3 88.6" stroke="#fff3E"/><path d="M100-162.5l145 59.6" stroke="#005bbb3E"/><path d="M100-162.5l-17.1-163.3" stroke="#005bbb40"/><path d="M100-162.5l-23.5 165.8" stroke="#fff40"/><path d="M100-162.5l-168.1-3.3" stroke="#fff40"/><path d="M100-162.5l163.3-40.3" stroke="#fff40"/><path d="M100-162.5l12.3 168.5" stroke="#fff41"/><path d="M100-162.5l10.9-169.6" stroke="#fff50041"/><path d="M100-162.5l-62.9-165.6" stroke="#005bbb42"/><path d="M100-162.5l-20.3 176.3" stroke="#005bbb42"/><path d="M100-162.5l-156.3 88.4" stroke="#005bbb43"/><path d="M100-162.5l-0.7-179.6" stroke="#fff50043"/><path d="M100-162.5l52-172.6" stroke="#fff50043"/><path d="M100-162.5l-49.5 179.4" stroke="#005bbb45"/><path d="M100-162.5l76.8-172.3" stroke="#c2e1ff45"/><path d="M100-162.5l144.5 125.1" stroke="#fff46"/><path d="M100-162.5l-172.8-93.2" stroke="#fff48"/><path d="M100-162.5l-199.6-12.5" stroke="#fff50049"/><path d="M100-162.5l56.5-193.6" stroke="#fff50049"/><path d="M100-162.5l-198.1-46.9" stroke="#fff4A"/><path d="M100-162.5l161.5-124.1" stroke="#005bbb4A"/><path d="M100-162.5l-143.4 144.8" stroke="#005bbb4A"/><path d="M100-162.5l-43.4 199.9" stroke="#fff4A"/><path d="M100-162.5l-189.4-91.1" stroke="#c2e1ff4D"/><path d="M100-162.5l-147.2-150.2" stroke="#005bbb4D"/><path d="M100-162.5l49.9-204.7" stroke="#c2e1ff4D"/><path d="M100-162.5l-199.6 73.3" stroke="#fff5004E"/><path d="M100-162.5l185.4 104.6" stroke="#fff4E"/><path d="M100-162.5l-57.1-205.5" stroke="#fff5004E"/><path d="M100-162.5l89.2-195.3" stroke="#c2e1ff4F"/><path d="M100-162.5l214.5 31" stroke="#005bbb50"/><path d="M100-162.5l-212.9-59" stroke="#005bbb52"/><path d="M100-162.5l-174.3 138.1" stroke="#c2e1ff53"/><path d="M100-162.5l223.1 15.2" stroke="#005bbb53"/><path d="M100-162.5l-80.3 210" stroke="#c2e1ff54"/><path d="M100-162.5l97 203.5" stroke="#005bbb55"/><path d="M100-162.5l217.1 61.9" stroke="#fff50055"/><path d="M100-162.5l-205.5 94.2" stroke="#fff55"/><path d="M100-162.5l-10.1 226.4" stroke="#c2e1ff55"/><path d="M100-162.5l101.4-203.6" stroke="#005bbb56"/><path d="M100-162.5l-165 157.1" stroke="#c2e1ff56"/><path d="M100-162.5l203.3-106.6" stroke="#fff58"/><path d="M100-162.5l204.9-103.4" stroke="#005bbb58"/><path d="M100-162.5l189.8 129.4" stroke="#fff58"/><path d="M100-162.5l166.9-158.2" stroke="#fff50058"/><path d="M100-162.5l-214.8-83" stroke="#fff58"/><path d="M100-162.5l-47.1-225.5" stroke="#005bbb58"/><path d="M100-162.5l153.5 171.8" stroke="#fff50058"/><path d="M100-162.5l-201.2-114.3" stroke="#005bbb59"/><path d="M100-162.5l-144.6 180.7" stroke="#fff50059"/><path d="M100-162.5l175.9-151.4" stroke="#fff5005A"/><path d="M100-162.5l-186.8-138.7" stroke="#fff5B"/><path d="M100-162.5l-97.9-211.5" stroke="#fff5B"/><path d="M100-162.5l213.7-93" stroke="#c2e1ff5B"/><path d="M100-162.5l41.2-229.4" stroke="#fff5005B"/><path d="M100-162.5l233.2-14.8" stroke="#fff5005C"/><path d="M100-162.5l-136.1-190.1" stroke="#005bbb5C"/><path d="M100-162.5l148.1 181.6" stroke="#c2e1ff5D"/><path d="M100-162.5l129.9 195.7" stroke="#005bbb5E"/><path d="M100-162.5l218.7-86.8" stroke="#fff5005F"/><path d="M100-162.5l-197.9-127.6" stroke="#c2e1ff5F"/><path d="M100-162.5l-141.8-188.2" stroke="#005bbb60"/><path d="M100-162.5l217.9-90.8" stroke="#fff62"/><path d="M100-162.5l220 85.8" stroke="#005bbb62"/><path d="M100-162.5l-202.1 122.2" stroke="#c2e1ff62"/><path d="M100-162.5l191.9 137.8" stroke="#fff64"/><path d="M100-162.5l152.1-180.8" stroke="#fff64"/><path d="M100-162.5l199.9-125.8" stroke="#fff64"/><path d="M100-162.5l63.1 227.6" stroke="#005bbb65"/><path d="M100-162.5l210.1-107.8" stroke="#c2e1ff65"/><path d="M100-162.5l105.1-211.5" stroke="#c2e1ff65"/><path d="M100-162.5l-161-172.7" stroke="#c2e1ff65"/><path d="M100-162.5l-144.3 186.8" stroke="#fff50066"/><path d="M100-162.5l-37 233" stroke="#c2e1ff66"/><path d="M100-162.5l-0.6 235.7" stroke="#005bbb67"/><path d="M100-162.5l-134.2-193.2" stroke="#fff50068"/><path d="M100-162.5l45.4 230.8" stroke="#005bbb68"/><path d="M100-162.5l56.4-228.3" stroke="#fff68"/><path d="M100-162.5l-115.8-204.7" stroke="#005bbb68"/><path d="M100-162.5l204.9 114.9" stroke="#fff69"/><path d="M100-162.5l73.7 222.9" stroke="#005bbb69"/><path d="M100-162.5l-38.2 230.4" stroke="#005bbb6B"/><path d="M100-162.5l28.9-231.1" stroke="#c2e1ff6C"/><path d="M100-162.5l-111.7-204.1" stroke="#c2e1ff6C"/><path d="M100-162.5l-212.1-94.9" stroke="#c2e1ff6D"/><path d="M100-162.5l-231.2-2.7" stroke="#005bbb6E"/><path d="M100-162.5l228.2 36.4" stroke="#fff5006E"/><path d="M100-162.5l-166.1 160.4" stroke="#fff6E"/><path d="M100-162.5l-168.9 156.9" stroke="#005bbb6E"/><path d="M100-162.5l147-177.5" stroke="#c2e1ff6F"/><path d="M100-162.5l189.6-129.2" stroke="#fff5006F"/><path d="M100-162.5l6.7-228.9" stroke="#fff70"/><path d="M100-162.5l193.4-121.4" stroke="#c2e1ff70"/><path d="M100-162.5l227.5-19.4" stroke="#fff50070"/><path d="M100-162.5l9.5 228" stroke="#c2e1ff70"/><path d="M100-162.5l-147.1 173.9" stroke="#fff71"/><path d="M100-162.5l-227.3 10.4" stroke="#fff50071"/><path d="M100-162.5l225.3 16.2" stroke="#fff50072"/><path d="M100-162.5l194.8-113.9" stroke="#005bbb72"/><path d="M100-162.5l9.2 224.7" stroke="#fff50073"/><path d="M100-162.5l-216-62.6" stroke="#fff73"/><path d="M100-162.5l156.9-158" stroke="#005bbb74"/><path d="M100-162.5l-170.6-141.6" stroke="#fff75"/><path d="M100-162.5l-188.6-115.6" stroke="#005bbb75"/><path d="M100-162.5l70.6-209.6" stroke="#c2e1ff75"/><path d="M100-162.5l-197.3 98.8" stroke="#005bbb75"/><path d="M100-162.5l-207.8 68.2" stroke="#005bbb76"/><path d="M100-162.5l-213.2 37.6" stroke="#005bbb77"/><path d="M100-162.5l-106.1-187.6" stroke="#005bbb78"/><path d="M100-162.5l-18.3-214.1" stroke="#fff78"/><path d="M100-162.5l-212.8-13" stroke="#c2e1ff79"/><path d="M100-162.5l-96.8-185.5" stroke="#fff5007B"/><path d="M100-162.5l143.5-147.7" stroke="#fff5007C"/><path d="M100-162.5l-140.5 150" stroke="#005bbb7C"/><path d="M100-162.5l-202.6 16.3" stroke="#fff7D"/><path d="M100-162.5l-185.7 79.2" stroke="#fff5007D"/><path d="M100-162.5l-92.1 179.5" stroke="#fff7E"/><path d="M100-162.5l-77.4 186.1" stroke="#fff7E"/><path d="M100-162.5l201 0" stroke="#c2e1ff7E"/><path d="M100-162.5l198.9-7" stroke="#005bbb7E"/><path d="M100-162.5l181.1-78.1" stroke="#005bbb7F"/><path d="M100-162.5l196.5 10.6" stroke="#fff7F"/><path d="M100-162.5l193.4-30.6" stroke="#fff7F"/><path d="M100-162.5l188.2 39.2" stroke="#c2e1ff81"/><path d="M100-162.5l100.2-159.4" stroke="#fff82"/><path d="M100-162.5l175.5-49.2" stroke="#c2e1ff83"/><path d="M100-162.5l-162.8-75.2" stroke="#c2e1ff84"/><path d="M100-162.5l167.5 58.6" stroke="#005bbb85"/><path d="M100-162.5l-152.8 88.6" stroke="#005bbb85"/><path d="M100-162.5l6.6-174" stroke="#005bbb85"/><path d="M100-162.5l92.4 143.4" stroke="#005bbb86"/><path d="M100-162.5l-98.1-123.6" stroke="#fff50089"/><path d="M100-162.5l67.6-139.4" stroke="#fff89"/><path d="M100-162.5l-153.2-3.1" stroke="#fff5008A"/><path d="M100-162.5l-7.6-152.4" stroke="#005bbb8A"/><path d="M100-162.5l-137.1 58.1" stroke="#005bbb8A"/><path d="M100-162.5l135.9 55.4" stroke="#c2e1ff8B"/><path d="M100-162.5l105.4 93.7" stroke="#fff8C"/><path d="M100-162.5l-117.1 76.4" stroke="#fff5008C"/><path d="M100-162.5l14.5 138.4" stroke="#005bbb8C"/><path d="M100-162.5l51.6 128.9" stroke="#005bbb8C"/><path d="M100-162.5l-80.4 108.4" stroke="#005bbb8D"/><path d="M100-162.5l-133.2 16.1" stroke="#fff5008D"/><path d="M100-162.5l-104.5-78.3" stroke="#c2e1ff8D"/><path d="M100-162.5l-24-122.7" stroke="#005bbb8E"/><path d="M100-162.5l-88.3 85.3" stroke="#c2e1ff8E"/><path d="M100-162.5l60.3 98.6" stroke="#fff5008F"/><path d="M100-162.5l-25.8 112.5" stroke="#fff8F"/><path d="M100-162.5l113.3 9.2" stroke="#fff8F"/><path d="M100-162.5l-64.8 89.8" stroke="#005bbb90"/><path d="M100-162.5l0 106.7" stroke="#c2e1ff90"/><path d="M100-162.5l106.6-4.1" stroke="#005bbb90"/><path d="M100-162.5l20 103.4" stroke="#fff50090"/><path d="M100-162.5l3.7 94.1" stroke="#fff50091"/><path d="M100-162.5l72.9 13" stroke="#fff50093"/><path d="M100-162.5l-58.7-18.3" stroke="#fff94"/><path d="M100-162.5l50.6-16.4" stroke="#c2e1ff94"/></g><g class="sparcs"><path d="M103.7-150.7a5.9 5.9 0 1 1 0-11.8 5.9 5.9 0 0 1 0 11.8" fill="#fff7D"/><path d="M87.3-125.4a5.9 5.9 0 1 1 0-11.9 5.9 5.9 0 0 1 0 11.9" fill="#c2e1ff7D"/><path d="M71.7-130.6a5.9 5.9 0 1 1 0-11.9 5.9 5.9 0 0 1 0 11.9" fill="#c2e1ff7D"/><path d="M166.6-154.6a6 6 0 1 1 0-12.1 6 6 0 0 1 0 12.1" fill="#c2e1ff7F"/><path d="M122.5-79.8a6.1 6.1 0 1 1 0-12.2 6.1 6.1 0 0 1 0 12.2" fill="#005bbb80"/><path d="M25.5-186.1a6.1 6.1 0 1 1 0-12.2 6.1 6.1 0 0 1 0 12.2" fill="#fff80"/><path d="M172.2-116.9a6.1 6.1 0 1 1 0-12.2 6.1 6.1 0 0 1 0 12.2" fill="#c2e1ff81"/><path d="M177.8-116.8a6.1 6.1 0 1 1 0-12.3 6.1 6.1 0 0 1 0 12.3" fill="#c2e1ff81"/><path d="M139.7-258.6a6.2 6.2 0 1 1 0-12.4 6.2 6.2 0 0 1 0 12.4" fill="#fff84"/><path d="M132.5-50.5a6.3 6.3 0 1 1 0-12.5 6.3 6.3 0 0 1 0 12.5" fill="#c2e1ff84"/><path d="M87.8-43.1a6.3 6.3 0 1 1 0-12.6 6.3 6.3 0 0 1 0 12.6" fill="#fff50085"/><path d="M192.8-228.6a6.3 6.3 0 1 1 0-12.6 6.3 6.3 0 0 1 0 12.6" fill="#005bbb85"/><path d="M76.5-273.4a6.3 6.3 0 1 1 0-12.6 6.3 6.3 0 0 1 0 12.6" fill="#fff50085"/><path d="M18.9-66.5a6.3 6.3 0 1 1 0-12.7 6.3 6.3 0 0 1 0 12.7" fill="#005bbb86"/><path d="M-24.1-194.2a6.4 6.4 0 1 1 0-12.8 6.4 6.4 0 0 1 0 12.8" fill="#c2e1ff87"/><path d="M226.5-192.2a6.4 6.4 0 1 1 0-12.8 6.4 6.4 0 0 1 0 12.8" fill="#c2e1ff88"/><path d="M234.8-136.9a6.4 6.4 0 1 1 0-12.9 6.4 6.4 0 0 1 0 12.9" fill="#005bbb88"/><path d="M-38.9-180.4a6.5 6.5 0 1 1 0-13 6.5 6.5 0 0 1 0 13" fill="#005bbb89"/><path d="M7.9-271.4a6.6 6.6 0 1 1 0-13.1 6.6 6.6 0 0 1 0 13.1" fill="#005bbb8B"/><path d="M5.9-271.3a6.6 6.6 0 1 1 0-13.1 6.6 6.6 0 0 1 0 13.1" fill="#005bbb8B"/><path d="M60.3-299.7a6.6 6.6 0 1 1 0-13.1 6.6 6.6 0 0 1 0 13.1" fill="#fff5008B"/><path d="M-27.3-77.1a6.6 6.6 0 1 1 0-13.1 6.6 6.6 0 0 1 0 13.1" fill="#005bbb8B"/><path d="M220.3-248.4a6.6 6.6 0 1 1 0-13.2 6.6 6.6 0 0 1 0 13.2" fill="#fff5008C"/><path d="M88.2-307.6a6.6 6.6 0 1 1 0-13.2 6.6 6.6 0 0 1 0 13.2" fill="#005bbb8C"/><path d="M-27.3-67.3a6.6 6.6 0 1 1 0-13.2 6.6 6.6 0 0 1 0 13.2" fill="#fff8C"/><path d="M245-96.2a6.7 6.7 0 1 1 0-13.3 6.7 6.7 0 0 1 0 13.3" fill="#c2e1ff8D"/><path d="M82.9-319.1a6.7 6.7 0 1 1 0-13.5 6.7 6.7 0 0 1 0 13.5" fill="#c2e1ff8F"/><path d="M76.5 10.1a6.8 6.8 0 1 1 0-13.5 6.8 6.8 0 0 1 0 13.5" fill="#c2e1ff90"/><path d="M-68.1-159a6.8 6.8 0 1 1 0-13.5 6.8 6.8 0 0 1 0 13.5" fill="#fff90"/><path d="M263.3-196a6.8 6.8 0 1 1 0-13.6 6.8 6.8 0 0 1 0 13.6" fill="#c2e1ff90"/><path d="M112.3 12.8a6.8 6.8 0 1 1 0-13.6 6.8 6.8 0 0 1 0 13.6" fill="#fff90"/><path d="M110.9-325.3a6.8 6.8 0 1 1 0-13.7 6.8 6.8 0 0 1 0 13.7" fill="#c2e1ff90"/><path d="M37.1-321.2a6.9 6.9 0 1 1 0-13.8 6.9 6.9 0 0 1 0 13.8" fill="#005bbb92"/><path d="M79.7 20.7a6.9 6.9 0 1 1 0-13.8 6.9 6.9 0 0 1 0 13.8" fill="#005bbb93"/><path d="M-56.3-67.1a6.9 6.9 0 1 1 0-13.9 6.9 6.9 0 0 1 0 13.9" fill="#fff50093"/><path d="M99.3-335.2a6.9 6.9 0 1 1 0-13.9 6.9 6.9 0 0 1 0 13.9" fill="#005bbb93"/><path d="M152-328.2a7 7 0 1 1 0-13.9 7 7 0 0 1 0 13.9" fill="#005bbb93"/><path d="M50.5 23.9a7 7 0 1 1 0-14.1 7 7 0 0 1 0 14.1" fill="#005bbb95"/><path d="M176.8-327.7a7.1 7.1 0 1 1 0-14.2 7.1 7.1 0 0 1 0 14.2" fill="#c2e1ff96"/><path d="M244.5-30.3a7.1 7.1 0 1 1 0-14.3 7.1 7.1 0 0 1 0 14.3" fill="#005bbb97"/><path d="M-72.8-248.5a7.2 7.2 0 1 1 0-14.4 7.2 7.2 0 0 1 0 14.4" fill="#005bbb99"/><path d="M-99.6-167.7a7.3 7.3 0 1 1 0-14.5 7.3 7.3 0 0 1 0 14.5" fill="#fff5009B"/><path d="M156.5-348.8a7.3 7.3 0 1 1 0-14.6 7.3 7.3 0 0 1 0 14.6" fill="#c2e1ff9C"/><path d="M-98.1-202a7.4 7.4 0 1 1 0-14.7 7.4 7.4 0 0 1 0 14.7" fill="#fff5009D"/><path d="M261.5-279.3a7.4 7.4 0 1 1 0-14.7 7.4 7.4 0 0 1 0 14.7" fill="#005bbb9D"/><path d="M-43.4-10.4a7.4 7.4 0 1 1 0-14.7 7.4 7.4 0 0 1 0 14.7" fill="#c2e1ff9D"/><path d="M56.6 44.7a7.4 7.4 0 1 1 0-14.7 7.4 7.4 0 0 1 0 14.7" fill="#fff9D"/><path d="M-89.4-246.1a7.5 7.5 0 1 1 0-15 7.5 7.5 0 0 1 0 15" fill="#fff500A0"/><path d="M-47.2-305.2a7.5 7.5 0 1 1 0-15 7.5 7.5 0 0 1 0 15" fill="#fff500A0"/><path d="M149.9-359.6a7.5 7.5 0 1 1 0-15.1 7.5 7.5 0 0 1 0 15.1" fill="#005bbbA0"/><path d="M-99.6-81.7a7.6 7.6 0 1 1 0-15.1 7.6 7.6 0 0 1 0 15.1" fill="#005bbbA1"/><path d="M285.4-50.3a7.6 7.6 0 1 1 0-15.2 7.6 7.6 0 0 1 0 15.2" fill="#fffA1"/><path d="M42.9-360.4a7.6 7.6 0 1 1 0-15.1 7.6 7.6 0 0 1 0 15.1" fill="#fffA2"/><path d="M189.2-350.2a7.6 7.6 0 1 1 0-15.2 7.6 7.6 0 0 1 0 15.2" fill="#fffA2"/><path d="M314.5-123.8a7.7 7.7 0 1 1 0-15.4 7.7 7.7 0 0 1 0 15.4" fill="#c2e1ffA4"/><path d="M-112.9-213.7a7.8 7.8 0 1 1 0-15.6 7.8 7.8 0 0 1 0 15.6" fill="#005bbbA6"/><path d="M-74.3-16.5a7.9 7.9 0 1 1 0-15.8 7.9 7.9 0 0 1 0 15.8" fill="#c2e1ffA8"/><path d="M323.1-139.4a7.9 7.9 0 1 1 0-15.8 7.9 7.9 0 0 1 0 15.8" fill="#fffA9"/><path d="M19.7 55.4a8 8 0 1 1 0-15.9 8 8 0 0 1 0 15.9" fill="#fffAA"/><path d="M197 48.9a8 8 0 1 1 0-15.9 8 8 0 0 1 0 15.9" fill="#005bbbAA"/><path d="M317.1-92.6a8 8 0 1 1 0-16 8 8 0 0 1 0 16" fill="#fff500AA"/><path d="M-105.5-60.3a8 8 0 1 1 0-16 8 8 0 0 1 0 16" fill="#c2e1ffAB"/><path d="M89.9 71.9a8 8 0 1 1 0-16 8 8 0 0 1 0 16" fill="#fff500AB"/><path d="M201.4-358.1a8.1 8.1 0 1 1 0-16.1 8.1 8.1 0 0 1 0 16.1" fill="#fff500AC"/><path d="M-65 2.7a8.1 8.1 0 1 1 0-16.1 8.1 8.1 0 0 1 0 16.1" fill="#c2e1ffAC"/><path d="M303.3-260.9a8.2 8.2 0 1 1 0-16.3 8.2 8.2 0 0 1 0 16.3" fill="#fffAE"/><path d="M304.9-257.8a8.2 8.2 0 1 1 0-16.3 8.2 8.2 0 0 1 0 16.3" fill="#005bbbAE"/><path d="M289.8-24.9a8.2 8.2 0 1 1 0-16.3 8.2 8.2 0 0 1 0 16.3" fill="#fffAE"/><path d="M266.9-312.5a8.2 8.2 0 1 1 0-16.4 8.2 8.2 0 0 1 0 16.4" fill="#fffAF"/><path d="M-114.8-237.3a8.2 8.2 0 1 1 0-16.4 8.2 8.2 0 0 1 0 16.4" fill="#fffAF"/><path d="M52.9-379.8a8.2 8.2 0 1 1 0-16.4 8.2 8.2 0 0 1 0 16.4" fill="#fffAF"/><path d="M253.5 17.5a8.2 8.2 0 1 1 0-16.4 8.2 8.2 0 0 1 0 16.4" fill="#005bbbAF"/><path d="M-101.2-268.5a8.3 8.3 0 1 1 0-16.6 8.3 8.3 0 0 1 0 16.6" fill="#005bbbB0"/><path d="M-44.6 26.5a8.3 8.3 0 1 1 0-16.6 8.3 8.3 0 0 1 0 16.6" fill="#c2e1ffB0"/><path d="M275.9-305.6a8.3 8.3 0 1 1 0-16.6 8.3 8.3 0 0 1 0 16.6" fill="#c2e1ffB1"/><path d="M-86.8-292.9a8.3 8.3 0 1 1 0-16.7 8.3 8.3 0 0 1 0 16.7" fill="#fff500B2"/><path d="M2.1-365.6a8.4 8.4 0 1 1 0-16.7 8.4 8.4 0 0 1 0 16.7" fill="#fffB3"/><path d="M313.7-247.1a8.4 8.4 0 1 1 0-16.8 8.4 8.4 0 0 1 0 16.8" fill="#fff500B3"/><path d="M141.2-383.6a8.4 8.4 0 1 1 0-16.7 8.4 8.4 0 0 1 0 16.7" fill="#fffB3"/><path d="M333.2-168.9a8.4 8.4 0 1 1 0-16.8 8.4 8.4 0 0 1 0 16.8" fill="#fff500B4"/><path d="M-36.1-344.1a8.4 8.4 0 1 1 0-16.9 8.4 8.4 0 0 1 0 16.9" fill="#fff500B4"/><path d="M248.1 27.6a8.5 8.5 0 1 1 0-17 8.5 8.5 0 0 1 0 17" fill="#fffB5"/><path d="M229.9 41.7a8.5 8.5 0 1 1 0-17.1 8.5 8.5 0 0 1 0 17.1" fill="#c2e1ffB6"/><path d="M318.7-240.7a8.6 8.6 0 1 1 0-17.2 8.6 8.6 0 0 1 0 17.2" fill="#c2e1ffB8"/><path d="M-97.9-281.4a8.6 8.6 0 1 1 0-17.3 8.6 8.6 0 0 1 0 17.3" fill="#005bbbB8"/><path d="M-41.8-342a8.6 8.6 0 1 1 0-17.3 8.6 8.6 0 0 1 0 17.3" fill="#c2e1ffB9"/><path d="M317.9-244.6a8.8 8.8 0 1 1 0-17.5 8.8 8.8 0 0 1 0 17.5" fill="#fffBB"/><path d="M320-67.9a8.8 8.8 0 1 1 0-17.6 8.8 8.8 0 0 1 0 17.6" fill="#fffBC"/><path d="M-102.1-31.6a8.8 8.8 0 1 1 0-17.5 8.8 8.8 0 0 1 0 17.5" fill="#005bbbBC"/><path d="M291.9-15.9a8.9 8.9 0 1 1 0-17.7 8.9 8.9 0 0 1 0 17.7" fill="#fff500BE"/><path d="M252.1-334.4a8.9 8.9 0 1 1 0-17.8 8.9 8.9 0 0 1 0 17.8" fill="#c2e1ffBE"/><path d="M299.9-279.4a8.9 8.9 0 1 1 0-17.8 8.9 8.9 0 0 1 0 17.8" fill="#005bbbBF"/><path d="M163.1 74a8.9 8.9 0 1 1 0-17.8 8.9 8.9 0 0 1 0 17.8" fill="#fffBF"/><path d="M310.1-261.4a8.9 8.9 0 1 1 0-17.9 8.9 8.9 0 0 1 0 17.9" fill="#fffBF"/><path d="M205.1-365a9 9 0 1 1 0-17.9 9 9 0 0 1 0 17.9" fill="#fff500C0"/><path d="M-61-326.2a9 9 0 1 1 0-17.9 9 9 0 0 1 0 17.9" fill="#fff500C0"/><path d="M-44.3 33.3a9 9 0 1 1 0-18 9 9 0 0 1 0 18" fill="#fff500C0"/><path d="M63 79.5a9 9 0 1 1 0-18 9 9 0 0 1 0 18" fill="#005bbbC1"/><path d="M99.4 82.2a9.1 9.1 0 1 1 0-18.1 9.1 9.1 0 0 1 0 18.1" fill="#fffC2"/><path d="M-34.2-346.6a9.1 9.1 0 1 1 0-18.2 9.1 9.1 0 0 1 0 18.2" fill="#c2e1ffC3"/><path d="M145.4 77.4a9.1 9.1 0 1 1 0-18.2 9.1 9.1 0 0 1 0 18.2" fill="#005bbbC4"/><path d="M156.4-381.7a9.1 9.1 0 1 1 0-18.2 9.1 9.1 0 0 1 0 18.2" fill="#fff500C4"/><path d="M-15.8-358.1a9.1 9.1 0 1 1 0-18.2 9.1 9.1 0 0 1 0 18.2" fill="#005bbbC4"/><path d="M304.9-38.4a9.2 9.2 0 1 1 0-18.4 9.2 9.2 0 0 1 0 18.4" fill="#fff500C4"/><path d="M173.7 69.6a9.2 9.2 0 1 1 0-18.4 9.2 9.2 0 0 1 0 18.4" fill="#fffC5"/><path d="M61.8 77.2a9.3 9.3 0 1 1 0-18.6 9.3 9.3 0 0 1 0 18.6" fill="#fff500C7"/><path d="M128.9-384.3a9.4 9.4 0 1 1 0-18.7 9.4 9.4 0 0 1 0 18.7" fill="#c2e1ffC8"/><path d="M-11.7-357.2a9.4 9.4 0 1 1 0-18.7 9.4 9.4 0 0 1 0 18.7" fill="#005bbbC9"/><path d="M-112.1-248a9.4 9.4 0 1 1 0-18.8 9.4 9.4 0 0 1 0 18.8" fill="#005bbbC9"/><path d="M-131.2-155.8a9.5 9.5 0 1 1 0-18.9 9.5 9.5 0 0 1 0 18.9" fill="#fffCB"/><path d="M328.2-116.7a9.5 9.5 0 1 1 0-18.9 9.5 9.5 0 0 1 0 18.9" fill="#005bbbCB"/><path d="M-66.1 7.4a9.5 9.5 0 1 1 0-19 9.5 9.5 0 0 1 0 19" fill="#005bbbCB"/><path d="M-68.9 3.9a9.5 9.5 0 1 1 0-19 9.5 9.5 0 0 1 0 19" fill="#005bbbCC"/><path d="M247-330.4a9.5 9.5 0 1 1 0-19.1 9.5 9.5 0 0 1 0 19.1" fill="#fffCC"/><path d="M289.6-282.2a9.6 9.6 0 1 1 0-19.1 9.6 9.6 0 0 1 0 19.1" fill="#fffCD"/><path d="M106.7-381.8a9.6 9.6 0 1 1 0-19.2 9.6 9.6 0 0 1 0 19.2" fill="#fffCE"/><path d="M293.4-274.2a9.6 9.6 0 1 1 0-19.3 9.6 9.6 0 0 1 0 19.3" fill="#005bbbCE"/><path d="M327.5-172.3a9.6 9.6 0 1 1 0-19.2 9.6 9.6 0 0 1 0 19.2" fill="#c2e1ffCE"/><path d="M109.5 75.1a9.6 9.6 0 1 1 0-19.2 9.6 9.6 0 0 1 0 19.2" fill="#005bbbCE"/><path d="M-47.1 21.1a9.6 9.6 0 1 1 0-19.3 9.6 9.6 0 0 1 0 19.3" fill="#005bbbCF"/><path d="M-127.3-142.4a9.7 9.7 0 1 1 0-19.3 9.7 9.7 0 0 1 0 19.3" fill="#fffCF"/><path d="M325.3-136.6a9.7 9.7 0 1 1 0-19.5 9.7 9.7 0 0 1 0 19.5" fill="#005bbbD1"/><path d="M294.8-266.7a9.7 9.7 0 1 1 0-19.4 9.7 9.7 0 0 1 0 19.4" fill="#fff500D1"/><path d="M109.2 72a9.8 9.8 0 1 1 0-19.5 9.8 9.8 0 0 1 0 19.5" fill="#c2e1ffD1"/><path d="M-116-215.3a9.8 9.8 0 1 1 0-19.5 9.8 9.8 0 0 1 0 19.5" fill="#c2e1ffD1"/><path d="M256.9-310.6a9.8 9.8 0 1 1 0-19.7 9.8 9.8 0 0 1 0 19.7" fill="#fff500D3"/><path d="M-70.6-294.2a9.9 9.9 0 1 1 0-19.8 9.9 9.9 0 0 1 0 19.8" fill="#fffD4"/><path d="M-88.6-268.2a9.9 9.9 0 1 1 0-19.8 9.9 9.9 0 0 1 0 19.8" fill="#fffD4"/><path d="M170.6-362.2a9.9 9.9 0 1 1 0-19.8 9.9 9.9 0 0 1 0 19.8" fill="#fffD4"/><path d="M-97.3-53.8a9.9 9.9 0 1 1 0-19.8 9.9 9.9 0 0 1 0 19.8" fill="#c2e1ffD5"/><path d="M-107.8-84.3a10 10 0 1 1 0-19.9 10 10 0 0 1 0 19.9" fill="#c2e1ffD6"/><path d="M-113.2-114.8a10 10 0 1 1 0-20.1 10 10 0 0 1 0 20.1" fill="#005bbbD7"/><path d="M-6.1-340a10.1 10.1 0 1 1 0-20.1 10.1 10.1 0 0 1 0 20.1" fill="#005bbbD8"/><path d="M81.7-366.5a10.1 10.1 0 1 1 0-20.2 10.1 10.1 0 0 1 0 20.2" fill="#c2e1ffD8"/><path d="M-112.8-165.3a10.1 10.1 0 1 1 0-20.3 10.1 10.1 0 0 1 0 20.3" fill="#fffDA"/><path d="M3.2-337.8a10.2 10.2 0 1 1 0-20.4 10.2 10.2 0 0 1 0 20.4" fill="#005bbbDC"/><path d="M243.5-299.9a10.3 10.3 0 1 1 0-20.6 10.3 10.3 0 0 1 0 20.6" fill="#005bbbDD"/><path d="M-40.5-2.1a10.3 10.3 0 1 1 0-20.7 10.3 10.3 0 0 1 0 20.7" fill="#c2e1ffDE"/><path d="M-102.6-135.8a10.4 10.4 0 1 1 0-20.7 10.4 10.4 0 0 1 0 20.7" fill="#005bbbDF"/><path d="M-85.7-72.9a10.4 10.4 0 1 1 0-20.8 10.4 10.4 0 0 1 0 20.8" fill="#005bbbDF"/><path d="M7.9 27.4a10.4 10.4 0 1 1 0-20.8 10.4 10.4 0 0 1 0 20.8" fill="#fffDF"/><path d="M22.6 34a10.4 10.4 0 1 1 0-20.8 10.4 10.4 0 0 1 0 20.8" fill="#fff500DF"/><path d="M301-152.1a10.4 10.4 0 1 1 0-20.8 10.4 10.4 0 0 1 0 20.8" fill="#fff500E0"/><path d="M298.9-159a10.5 10.5 0 1 1 0-20.9 10.5 10.5 0 0 1 0 20.9" fill="#fffE1"/><path d="M281.1-230.1a10.5 10.5 0 1 1 0-21 10.5 10.5 0 0 1 0 21" fill="#005bbbE1"/><path d="M296.5-141.4a10.5 10.5 0 1 1 0-21 10.5 10.5 0 0 1 0 21" fill="#fffE1"/><path d="M293.4-182.6a10.5 10.5 0 1 1 0-21.1 10.5 10.5 0 0 1 0 21.1" fill="#c2e1ffE2"/><path d="M288.2-112.7a10.6 10.6 0 1 1 0-21.2 10.6 10.6 0 0 1 0 21.2" fill="#fff500E3"/><path d="M200.2-311.3a10.6 10.6 0 1 1 0-21.3 10.6 10.6 0 0 1 0 21.3" fill="#005bbbE5"/><path d="M275.5-201a10.7 10.7 0 1 1 0-21.5 10.7 10.7 0 0 1 0 21.5" fill="#005bbbE7"/><path d="M-62.8-226.9a10.8 10.8 0 1 1 0-21.6 10.8 10.8 0 0 1 0 21.6" fill="#fff500E8"/><path d="M267.5-93.1a10.8 10.8 0 1 1 0-21.6 10.8 10.8 0 0 1 0 21.6" fill="#005bbbE8"/><path d="M-52.8-63.1a10.8 10.8 0 1 1 0-21.6 10.8 10.8 0 0 1 0 21.6" fill="#fff500E9"/><path d="M106.6-325.7a10.9 10.9 0 1 1 0-21.7 10.9 10.9 0 0 1 0 21.7" fill="#005bbbE9"/><path d="M192.4-8.2a10.9 10.9 0 1 1 0-21.8 10.9 10.9 0 0 1 0 21.8" fill="#005bbbEA"/><path d="M1.9-275.1a11.1 11.1 0 1 1 0-22.1 11.1 11.1 0 0 1 0 22.1" fill="#fff500EE"/><path d="M167.6-290.8a11.1 11.1 0 1 1 0-22.2 11.1 11.1 0 0 1 0 22.2" fill="#fffEF"/><path d="M-53.2-154.5a11.1 11.1 0 1 1 0-22.2 11.1 11.1 0 0 1 0 22.2" fill="#fffEF"/><path d="M92.4-303.7a11.1 11.1 0 1 1 0-22.3 11.1 11.1 0 0 1 0 22.3" fill="#c2e1ffEF"/><path d="M-37.1-93.2a11.2 11.2 0 1 1 0-22.3 11.2 11.2 0 0 1 0 22.3" fill="#c2e1ffF0"/><path d="M235.9-96a11.2 11.2 0 1 1 0-22.3 11.2 11.2 0 0 1 0 22.3" fill="#fffF0"/><path d="M205.4-57.5a11.2 11.2 0 1 1 0-22.5 11.2 11.2 0 0 1 0 22.5" fill="#005bbbF2"/><path d="M-17.1-74.9a11.2 11.2 0 1 1 0-22.5 11.2 11.2 0 0 1 0 22.5" fill="#005bbbF2"/><path d="M114.5-12.8a11.2 11.2 0 1 1 0-22.5 11.2 11.2 0 0 1 0 22.5" fill="#005bbbF2"/><path d="M151.6-22.3a11.2 11.2 0 1 1 0-22.5 11.2 11.2 0 0 1 0 22.5" fill="#c2e1ffF2"/><path d="M19.6-42.8a11.3 11.3 0 1 1 0-22.6 11.3 11.3 0 0 1 0 22.6" fill="#005bbbF3"/><path d="M-33.2-135.2a11.3 11.3 0 1 1 0-22.5 11.3 11.3 0 0 1 0 22.5" fill="#c2e1ffF3"/><path d="M-4.5-229.5a11.3 11.3 0 1 1 0-22.7 11.3 11.3 0 0 1 0 22.7" fill="#fffF4"/><path d="M76-273.8a11.4 11.4 0 1 1 0-22.7 11.4 11.4 0 0 1 0 22.7" fill="#c2e1ffF5"/><path d="M11.7-65.8a11.4 11.4 0 1 1 0-22.8 11.4 11.4 0 0 1 0 22.8" fill="#005bbbF5"/><path d="M160.3-52.4a11.4 11.4 0 1 1 0-22.9 11.4 11.4 0 0 1 0 22.9" fill="#fff500F6"/><path d="M74.2-38.6a11.4 11.4 0 1 1 0-22.9 11.4 11.4 0 0 1 0 22.9" fill="#fffF6"/><path d="M213.3-141.9a11.4 11.4 0 1 1 0-22.9 11.4 11.4 0 0 1 0 22.9" fill="#fffF6"/><path d="M35.2-61.2a11.5 11.5 0 1 1 0-22.9 11.5 11.5 0 0 1 0 22.9" fill="#005bbbF7"/><path d="M100-44.3a11.5 11.5 0 1 1 0-23 11.5 11.5 0 0 1 0 23" fill="#005bbbF7"/><path d="M206.6-155.2a11.5 11.5 0 1 1 0-22.9 11.5 11.5 0 0 1 0 22.9" fill="#c2e1ffF7"/><path d="M120-47.6a11.5 11.5 0 1 1 0-23 11.5 11.5 0 0 1 0 23" fill="#c2e1ffF8"/><path d="M103.7-56.9a11.6 11.6 0 1 1 0-23.1 11.6 11.6 0 0 1 0 23.1" fill="#fffF9"/><path d="M172.9-137.8a11.7 11.7 0 1 1 0-23.3 11.7 11.7 0 0 1 0 23.3" fill="#fff500FB"/><path d="M41.3-169.1a11.7 11.7 0 1 1 0-23.4 11.7 11.7 0 0 1 0 23.4" fill="#fffFC"/><path d="M150.6-167.2a11.7 11.7 0 1 1 0-23.5 11.7 11.7 0 0 1 0 23.5" fill="#fff500FD"/></g></svg>