<svg width="1200" height="675" viewBox="-500 -500 1200 675" xmlns="http://www.w3.org/2000/svg"><path d="M-500-500h1200v675h-1200z" fill="#000"/><style>.sparkles path{stroke-linecap:round; stroke-width:1}</style><g class="sparkles"><path d="M100-162.5l5.7-11" stroke="#fff50032"/><path d="M100-162.5l40 2" stroke="#005bbb32"/><path d="M100-162.5l65.5-6.6" stroke="#005bbb33"/><path d="M100-162.5l56.7-50.9" stroke="#c2e1ff34"/><path d="M100-162.5l36.6 75.2" stroke="#fff50035"/><path d="M100-162.5l-20.5 95.1" stroke="#c2e1ff36"/><path d="M100-162.5l-101.2 40.3" stroke="#fff37"/><path d="M100-162.5l30.5-109.5" stroke="#c2e1ff38"/><path d="M100-162.5l-89.5 76.7" stroke="#fff50038"/><path d="M100-162.5l76.6-90.2" stroke="#fff38"/><path d="M100-162.5l88.9 95.5" stroke="#fff3A"/><path d="M100-162.5l-46.9-136.6" stroke="#fff3C"/><path d="M100-162.5l-88.2-123.6" stroke="#fff5003D"/><path d="M100-162.5l100.5 118.8" stroke="#c2e1ff3E"/><path d="M100-162.5l121.4 104.1" stroke="#fff5003F"/><path d="M100-162.5l-45.5 160.6" stroke="#fff40"/><path d="M100-162.5l86.5 143.5" stroke="#c2e1ff40"/><path d="M100-162.5l139.4-101.7" stroke="#005bbb41"/><path d="M100-162.5l33.2-169.3" stroke="#c2e1ff41"/><path d="M100-162.5l65.8-160.5" stroke="#005bbb42"/><path d="M100-162.5l150.2-87" stroke="#c2e1ff42"/><path d="M100-162.5l-32.2 172.5" stroke="#fff50042"/><path d="M100-162.5l-169.3 47.3" stroke="#fff42"/><path d="M100-162.5l174.6 25.6" stroke="#005bbb42"/><path d="M100-162.5l178.6 8.1" stroke="#fff50043"/><path d="M100-162.5l135.5-117.4" stroke="#fff50043"/><path d="M100-162.5l96.9 152.9" stroke="#c2e1ff43"/><path d="M100-162.5l-0.5-181.1" stroke="#c2e1ff43"/><path d="M100-162.5l-168.1-70.1" stroke="#fff44"/><path d="M100-162.5l-148.5-107.6" stroke="#005bbb44"/><path d="M100-162.5l-108.5-150.3" stroke="#c2e1ff44"/><path d="M100-162.5l182.9-44.2" stroke="#fff45"/><path d="M100-162.5l-175.7 76.6" stroke="#005bbb46"/><path d="M100-162.5l155-116.3" stroke="#c2e1ff47"/><path d="M100-162.5l-53.1-187.3" stroke="#fff47"/><path d="M100-162.5l-191.6 46.9" stroke="#c2e1ff48"/><path d="M100-162.5l121.2-157" stroke="#fff50048"/><path d="M100-162.5l-139.4 143.3" stroke="#fff50049"/><path d="M100-162.5l-25 198.4" stroke="#005bbb49"/><path d="M100-162.5l-135.9 150.7" stroke="#c2e1ff4A"/><path d="M100-162.5l-129.4 158.4" stroke="#c2e1ff4A"/><path d="M100-162.5l151.1 138.2" stroke="#fff4B"/><path d="M100-162.5l-30.8 203.1" stroke="#005bbb4B"/><path d="M100-162.5l203.2 32.1" stroke="#fff4B"/><path d="M100-162.5l204.5-34.9" stroke="#c2e1ff4C"/><path d="M100-162.5l101.5 181.3" stroke="#005bbb4C"/><path d="M100-162.5l199.7-63.7" stroke="#fff5004C"/><path d="M100-162.5l-175.5 119.6" stroke="#fff4E"/><path d="M100-162.5l-203.3-61.9" stroke="#fff4E"/><path d="M100-162.5l74.6 200.2" stroke="#fff4E"/><path d="M100-162.5l94.8-195.8" stroke="#fff50"/><path d="M100-162.5l217.9-18.8" stroke="#005bbb51"/><path d="M100-162.5l181.2 125.4" stroke="#fff52"/><path d="M100-162.5l148.4-163" stroke="#fff50052"/><path d="M100-162.5l220.7 1.1" stroke="#fff52"/><path d="M100-162.5l43.3 220.1" stroke="#fff50054"/><path d="M100-162.5l89.3-207.1" stroke="#005bbb55"/><path d="M100-162.5l216.4-63.7" stroke="#005bbb55"/><path d="M100-162.5l-8.2-225.5" stroke="#fff55"/><path d="M100-162.5l215.9-66.1" stroke="#fff50055"/><path d="M100-162.5l-134.9-181.6" stroke="#fff50055"/><path d="M100-162.5l-122.5-191.3" stroke="#fff56"/><path d="M100-162.5l-77.8-213.9" stroke="#c2e1ff56"/><path d="M100-162.5l193.1 121.2" stroke="#c2e1ff56"/><path d="M100-162.5l228.2-4.1" stroke="#fff50057"/><path d="M100-162.5l-121.6-193.1" stroke="#c2e1ff57"/><path d="M100-162.5l180.2 141" stroke="#fff57"/><path d="M100-162.5l223.3-54.4" stroke="#005bbb58"/><path d="M100-162.5l230-1.6" stroke="#fff58"/><path d="M100-162.5l-51.2-224.6" stroke="#005bbb58"/><path d="M100-162.5l26.1 229.5" stroke="#fff50059"/><path d="M100-162.5l205.8 105.1" stroke="#fff50059"/><path d="M100-162.5l160 168.1" stroke="#fff5005A"/><path d="M100-162.5l233.3 12" stroke="#fff5005C"/><path d="M100-162.5l-204.3-114.2" stroke="#c2e1ff5D"/><path d="M100-162.5l163.5 167.6" stroke="#c2e1ff5D"/><path d="M100-162.5l203.6-116.4" stroke="#c2e1ff5E"/><path d="M100-162.5l-153.1 177.7" stroke="#fff5E"/><path d="M100-162.5l-49.8-230.4" stroke="#fff50060"/><path d="M100-162.5l-234-28.9" stroke="#fff60"/><path d="M100-162.5l223.8-75.3" stroke="#c2e1ff62"/><path d="M100-162.5l-204.4 118.3" stroke="#c2e1ff62"/><path d="M100-162.5l-104.1 212" stroke="#005bbb63"/><path d="M100-162.5l162.6 171.3" stroke="#fff50063"/><path d="M100-162.5l232.2 43.7" stroke="#c2e1ff63"/><path d="M100-162.5l-196.7-130.8" stroke="#005bbb64"/><path d="M100-162.5l-60.6 228.3" stroke="#fff65"/><path d="M100-162.5l40.7 232.7" stroke="#fff50065"/><path d="M100-162.5l185.9 145.6" stroke="#fff65"/><path d="M100-162.5l-152.3-180.4" stroke="#c2e1ff65"/><path d="M100-162.5l235.2 19.1" stroke="#fff66"/><path d="M100-162.5l174.1 159.2" stroke="#c2e1ff66"/><path d="M100-162.5l45.9-231.4" stroke="#fff66"/><path d="M100-162.5l125.9 199.4" stroke="#fff50067"/><path d="M100-162.5l175.8 157.1" stroke="#fff50067"/><path d="M100-162.5l-21.8-233.8" stroke="#fff69"/><path d="M100-162.5l193.8 131" stroke="#005bbb6A"/><path d="M100-162.5l-155.9-174.1" stroke="#c2e1ff6B"/><path d="M100-162.5l232.9-18.1" stroke="#005bbb6B"/><path d="M100-162.5l-231.1-34.5" stroke="#fff6B"/><path d="M100-162.5l161.7 168.6" stroke="#fff5006B"/><path d="M100-162.5l-128.2-195.2" stroke="#fff5006B"/><path d="M100-162.5l-221.8-72.8" stroke="#005bbb6B"/><path d="M100-162.5l220 77.5" stroke="#005bbb6B"/><path d="M100-162.5l-75.8-219.6" stroke="#fff6D"/><path d="M100-162.5l98.6 210.4" stroke="#fff5006D"/><path d="M100-162.5l-227.9-42.5" stroke="#c2e1ff6D"/><path d="M100-162.5l-99.7-209.1" stroke="#fff5006D"/><path d="M100-162.5l226.1-46.2" stroke="#c2e1ff6E"/><path d="M100-162.5l-81.6 215.3" stroke="#fff6F"/><path d="M100-162.5l7.9 230.1" stroke="#fff5006F"/><path d="M100-162.5l59.2 222.5" stroke="#fff6F"/><path d="M100-162.5l-219.8 65.3" stroke="#c2e1ff70"/><path d="M100-162.5l-160.5-163.8" stroke="#005bbb70"/><path d="M100-162.5l-194.6 120.6" stroke="#c2e1ff70"/><path d="M100-162.5l-226.4-13.6" stroke="#005bbb72"/><path d="M100-162.5l-213.4-76.6" stroke="#fff72"/><path d="M100-162.5l223.5-27.2" stroke="#fff73"/><path d="M100-162.5l-175.3-141.1" stroke="#fff73"/><path d="M100-162.5l54.5 218.1" stroke="#005bbb73"/><path d="M100-162.5l195.6-109.9" stroke="#c2e1ff73"/><path d="M100-162.5l126.1-185.5" stroke="#fff73"/><path d="M100-162.5l-180.5 132.1" stroke="#fff50074"/><path d="M100-162.5l165.8-147" stroke="#fff50075"/><path d="M100-162.5l-49 214.4" stroke="#c2e1ff76"/><path d="M100-162.5l207.7-38.4" stroke="#fff7A"/><path d="M100-162.5l112.2 178.1" stroke="#005bbb7A"/><path d="M100-162.5l142.1-154.6" stroke="#fff5007A"/><path d="M100-162.5l-3.5-209.8" stroke="#fff5007A"/><path d="M100-162.5l178.6-99.9" stroke="#c2e1ff7C"/><path d="M100-162.5l49.6-195.7" stroke="#fff7D"/><path d="M100-162.5l201.7 0" stroke="#fff5007E"/><path d="M100-162.5l201 11.2" stroke="#c2e1ff7E"/><path d="M100-162.5l93.1-177.5" stroke="#c2e1ff7E"/><path d="M100-162.5l102.1-170.5" stroke="#c2e1ff7F"/><path d="M100-162.5l-95.2-171.6" stroke="#c2e1ff7F"/><path d="M100-162.5l-19.6 194" stroke="#fff80"/><path d="M100-162.5l61.7-184.1" stroke="#fff80"/><path d="M100-162.5l-91 168.5" stroke="#005bbb81"/><path d="M100-162.5l-59.9 177.8" stroke="#005bbb82"/><path d="M100-162.5l96 156.9" stroke="#fff50083"/><path d="M100-162.5l-148.9 102.9" stroke="#005bbb84"/><path d="M100-162.5l-119.6-133.9" stroke="#fff50084"/><path d="M100-162.5l92.7 151.3" stroke="#005bbb85"/><path d="M100-162.5l69.3 161.7" stroke="#fff50085"/><path d="M100-162.5l108.6-130.6" stroke="#fff50086"/><path d="M100-162.5l-142.3 88.8" stroke="#005bbb87"/><path d="M100-162.5l-151.8 40.4" stroke="#c2e1ff89"/><path d="M100-162.5l-109.7-103" stroke="#fff8A"/><path d="M100-162.5l-87.7-121.4" stroke="#005bbb8A"/><path d="M100-162.5l-129.6-73.2" stroke="#fff8A"/><path d="M100-162.5l11.9-148.2" stroke="#005bbb8A"/><path d="M100-162.5l131.6 64.4" stroke="#c2e1ff8B"/><path d="M100-162.5l124.9-65.4" stroke="#fff8C"/><path d="M100-162.5l134.6-38.9" stroke="#c2e1ff8C"/><path d="M100-162.5l7.3-137.4" stroke="#fff5008C"/><path d="M100-162.5l-129.1-38.6" stroke="#c2e1ff8D"/><path d="M100-162.5l-124.9 41.7" stroke="#fff5008D"/><path d="M100-162.5l-34.4-127.1" stroke="#fff8D"/><path d="M100-162.5l-92-91.2" stroke="#fff8D"/><path d="M100-162.5l-116.3-56.2" stroke="#fff8D"/><path d="M100-162.5l70.5-95.4" stroke="#fff8F"/><path d="M100-162.5l104.5-53.5" stroke="#005bbb8F"/><path d="M100-162.5l106.5-46.6" stroke="#005bbb8F"/><path d="M100-162.5l-95 62.7" stroke="#c2e1ff8F"/><path d="M100-162.5l107.2 0.9" stroke="#c2e1ff90"/><path d="M100-162.5l-59.3-86.1" stroke="#005bbb90"/><path d="M100-162.5l-22.4 100.9" stroke="#c2e1ff90"/><path d="M100-162.5l-30.8-96.6" stroke="#fff91"/><path d="M100-162.5l99.8 17.1" stroke="#fff91"/><path d="M100-162.5l51.8-82.2" stroke="#fff91"/><path d="M100-162.5l-13.3 93.8" stroke="#fff50091"/><path d="M100-162.5l-51.9 78.6" stroke="#005bbb91"/><path d="M100-162.5l90.3-4.1" stroke="#fff50092"/><path d="M100-162.5l55.1-66.3" stroke="#fff50092"/><path d="M100-162.5l-79.2 24.4" stroke="#fff50092"/><path d="M100-162.5l70.1 19.5" stroke="#fff50093"/><path d="M100-162.5l11.8 66.8" stroke="#fff93"/><path d="M100-162.5l16.6-59.8" stroke="#fff50094"/><path d="M100-162.5l-31.6 22.3" stroke="#fff50095"/><path d="M100-162.5l-0.6 11.3" stroke="#c2e1ff95"/></g><g class="sparcs"><path d="M105.7-167.6a5.9 5.9 0 1 1 0-11.8 5.9 5.9 0 0 1 0 11.8" fill="#fff5007D"/><path d="M140-154.6a5.9 5.9 0 1 1 0-11.9 5.9 5.9 0 0 1 0 11.9" fill="#fff5007D"/><path d="M165.5-163.1a6 6 0 1 1 0-12 6 6 0 0 1 0 12" fill="#c2e1ff7F"/><path d="M156.7-207.4a6.1 6.1 0 1 1 0-12.1 6.1 6.1 0 0 1 0 12.1" fill="#c2e1ff80"/><path d="M136.6-81.2a6.1 6.1 0 1 1 0-12.2 6.1 6.1 0 0 1 0 12.2" fill="#c2e1ff81"/><path d="M79.5-61.2a6.2 6.2 0 1 1 0-12.4 6.2 6.2 0 0 1 0 12.4" fill="#fff50082"/><path d="M-1.2-115.9a6.2 6.2 0 1 1 0-12.5 6.2 6.2 0 0 1 0 12.5" fill="#fff84"/><path d="M130.5-265.7a6.3 6.3 0 1 1 0-12.6 6.3 6.3 0 0 1 0 12.6" fill="#c2e1ff85"/><path d="M10.5-79.5a6.3 6.3 0 1 1 0-12.6 6.3 6.3 0 0 1 0 12.6" fill="#c2e1ff85"/><path d="M176.6-246.4a6.3 6.3 0 1 1 0-12.6 6.3 6.3 0 0 1 0 12.6" fill="#fff50085"/><path d="M188.9-60.6a6.4 6.4 0 1 1 0-12.8 6.4 6.4 0 0 1 0 12.8" fill="#c2e1ff87"/><path d="M53.1-292.6a6.5 6.5 0 1 1 0-13.1 6.5 6.5 0 0 1 0 13.1" fill="#005bbb8A"/><path d="M11.8-279.5a6.6 6.6 0 1 1 0-13.2 6.6 6.6 0 0 1 0 13.2" fill="#005bbb8C"/><path d="M200.5-37a6.6 6.6 0 1 1 0-13.3 6.6 6.6 0 0 1 0 13.3" fill="#fff5008D"/><path d="M221.4-51.7a6.7 6.7 0 1 1 0-13.4 6.7 6.7 0 0 1 0 13.4" fill="#fff8E"/><path d="M54.5 4.9a6.8 6.8 0 1 1 0-13.6 6.8 6.8 0 0 1 0 13.6" fill="#005bbb90"/><path d="M186.5-12.2a6.8 6.8 0 1 1 0-13.5 6.8 6.8 0 0 1 0 13.5" fill="#fff90"/><path d="M239.4-257.3a6.8 6.8 0 1 1 0-13.7 6.8 6.8 0 0 1 0 13.7" fill="#fff50091"/><path d="M133.2-325a6.8 6.8 0 1 1 0-13.7 6.8 6.8 0 0 1 0 13.7" fill="#c2e1ff91"/><path d="M165.8-316.1a6.9 6.9 0 1 1 0-13.7 6.9 6.9 0 0 1 0 13.7" fill="#005bbb91"/><path d="M250.2-242.6a6.9 6.9 0 1 1 0-13.8 6.9 6.9 0 0 1 0 13.8" fill="#005bbb91"/><path d="M67.8 16.9a6.9 6.9 0 1 1 0-13.8 6.9 6.9 0 0 1 0 13.8" fill="#005bbb92"/><path d="M-69.3-108.3a6.9 6.9 0 1 1 0-13.8 6.9 6.9 0 0 1 0 13.8" fill="#fff92"/><path d="M274.6-130a6.9 6.9 0 1 1 0-13.8 6.9 6.9 0 0 1 0 13.8" fill="#005bbb92"/><path d="M278.6-147.5a6.9 6.9 0 1 1 0-13.9 6.9 6.9 0 0 1 0 13.9" fill="#005bbb93"/><path d="M235.5-273a6.9 6.9 0 1 1 0-13.8 6.9 6.9 0 0 1 0 13.8" fill="#fff50093"/><path d="M196.9-2.7a7 7 0 1 1 0-13.9 7 7 0 0 1 0 13.9" fill="#005bbb94"/><path d="M99.5-336.7a7 7 0 1 1 0-13.9 7 7 0 0 1 0 13.9" fill="#c2e1ff94"/><path d="M-68.1-225.6a7 7 0 1 1 0-14 7 7 0 0 1 0 14" fill="#fff50094"/><path d="M-48.5-263.1a7 7 0 1 1 0-14 7 7 0 0 1 0 14" fill="#fff95"/><path d="M-8.5-305.8a7 7 0 1 1 0-14 7 7 0 0 1 0 14" fill="#005bbb95"/><path d="M282.9-199.6a7.1 7.1 0 1 1 0-14.2 7.1 7.1 0 0 1 0 14.2" fill="#c2e1ff96"/><path d="M-75.7-78.7a7.1 7.1 0 1 1 0-14.3 7.1 7.1 0 0 1 0 14.3" fill="#fff97"/><path d="M255-271.7a7.2 7.2 0 1 1 0-14.3 7.2 7.2 0 0 1 0 14.3" fill="#c2e1ff98"/><path d="M46.9-342.6a7.2 7.2 0 1 1 0-14.4 7.2 7.2 0 0 1 0 14.4" fill="#fff99"/><path d="M-91.6-108.4a7.2 7.2 0 1 1 0-14.4 7.2 7.2 0 0 1 0 14.4" fill="#c2e1ff9A"/><path d="M221.2-312.3a7.3 7.3 0 1 1 0-14.5 7.3 7.3 0 0 1 0 14.5" fill="#005bbb9A"/><path d="M-39.4-11.9a7.3 7.3 0 1 1 0-14.6 7.3 7.3 0 0 1 0 14.6" fill="#fff9B"/><path d="M75 43.2a7.3 7.3 0 1 1 0-14.6 7.3 7.3 0 0 1 0 14.6" fill="#005bbb9B"/><path d="M-35.9-4.4a7.3 7.3 0 1 1 0-14.7 7.3 7.3 0 0 1 0 14.7" fill="#005bbb9C"/><path d="M-29.4 3.2a7.4 7.4 0 1 1 0-14.7 7.4 7.4 0 0 1 0 14.7" fill="#fff9D"/><path d="M251.1-16.9a7.4 7.4 0 1 1 0-14.8 7.4 7.4 0 0 1 0 14.8" fill="#c2e1ff9D"/><path d="M69.2 48a7.4 7.4 0 1 1 0-14.8 7.4 7.4 0 0 1 0 14.8" fill="#005bbb9D"/><path d="M303.2-123a7.4 7.4 0 1 1 0-14.8 7.4 7.4 0 0 1 0 14.8" fill="#fff5009E"/><path d="M304.5-189.9a7.4 7.4 0 1 1 0-14.9 7.4 7.4 0 0 1 0 14.9" fill="#fff9E"/><path d="M201.5 26.3a7.5 7.5 0 1 1 0-14.9 7.5 7.5 0 0 1 0 14.9" fill="#fff5009F"/><path d="M299.7-218.7a7.5 7.5 0 1 1 0-15 7.5 7.5 0 0 1 0 15" fill="#c2e1ff9F"/><path d="M-75.5-35.3a7.6 7.6 0 1 1 0-15.1 7.6 7.6 0 0 1 0 15.1" fill="#fff500A1"/><path d="M-103.3-216.9a7.6 7.6 0 1 1 0-15.1 7.6 7.6 0 0 1 0 15.1" fill="#fff500A1"/><path d="M174.6 45.3a7.6 7.6 0 1 1 0-15.2 7.6 7.6 0 0 1 0 15.2" fill="#c2e1ffA2"/><path d="M194.8-350.6a7.7 7.7 0 1 1 0-15.4 7.7 7.7 0 0 1 0 15.4" fill="#fffA4"/><path d="M317.9-173.6a7.7 7.7 0 1 1 0-15.4 7.7 7.7 0 0 1 0 15.4" fill="#c2e1ffA5"/><path d="M281.2-29.3a7.8 7.8 0 1 1 0-15.6 7.8 7.8 0 0 1 0 15.6" fill="#fffA6"/><path d="M248.4-317.7a7.8 7.8 0 1 1 0-15.6 7.8 7.8 0 0 1 0 15.6" fill="#fffA6"/><path d="M320.7-153.6a7.8 7.8 0 1 1 0-15.6 7.8 7.8 0 0 1 0 15.6" fill="#fffA6"/><path d="M143.3 65.6a7.9 7.9 0 1 1 0-15.9 7.9 7.9 0 0 1 0 15.9" fill="#c2e1ffA9"/><path d="M189.3-361.6a8 8 0 1 1 0-16 8 8 0 0 1 0 16" fill="#fff500AA"/><path d="M316.4-218.2a8 8 0 1 1 0-16 8 8 0 0 1 0 16" fill="#fff500AA"/><path d="M91.8-380a8 8 0 1 1 0-16 8 8 0 0 1 0 16" fill="#fff500AA"/><path d="M315.9-220.7a8 8 0 1 1 0-15.9 8 8 0 0 1 0 15.9" fill="#fffAA"/><path d="M-34.9-336.1a8 8 0 1 1 0-16 8 8 0 0 1 0 16" fill="#005bbbAB"/><path d="M-22.5-345.8a8 8 0 1 1 0-16.1 8 8 0 0 1 0 16.1" fill="#c2e1ffAC"/><path d="M22.2-368.3a8.1 8.1 0 1 1 0-16.2 8.1 8.1 0 0 1 0 16.2" fill="#c2e1ffAC"/><path d="M293.1-33.2a8.1 8.1 0 1 1 0-16.2 8.1 8.1 0 0 1 0 16.2" fill="#005bbbAC"/><path d="M328.2-158.6a8.1 8.1 0 1 1 0-16.1 8.1 8.1 0 0 1 0 16.1" fill="#fff500AD"/><path d="M-21.6-347.5a8.1 8.1 0 1 1 0-16.2 8.1 8.1 0 0 1 0 16.2" fill="#fff500AD"/><path d="M280.2-13.4a8.1 8.1 0 1 1 0-16.2 8.1 8.1 0 0 1 0 16.2" fill="#c2e1ffAD"/><path d="M323.3-208.7a8.2 8.2 0 1 1 0-16.4 8.2 8.2 0 0 1 0 16.4" fill="#c2e1ffAE"/><path d="M330-155.9a8.2 8.2 0 1 1 0-16.3 8.2 8.2 0 0 1 0 16.3" fill="#fff500AF"/><path d="M48.8-378.9a8.2 8.2 0 1 1 0-16.4 8.2 8.2 0 0 1 0 16.4" fill="#c2e1ffAF"/><path d="M126.1 75.3a8.2 8.2 0 1 1 0-16.5 8.2 8.2 0 0 1 0 16.5" fill="#005bbbB0"/><path d="M305.8-49.1a8.2 8.2 0 1 1 0-16.5 8.2 8.2 0 0 1 0 16.5" fill="#fff500B0"/><path d="M260 13.9a8.3 8.3 0 1 1 0-16.6 8.3 8.3 0 0 1 0 16.6" fill="#c2e1ffB1"/><path d="M333.3-142a8.4 8.4 0 1 1 0-16.9 8.4 8.4 0 0 1 0 16.9" fill="#c2e1ffB4"/><path d="M-104.3-268.2a8.5 8.5 0 1 1 0-16.9 8.5 8.5 0 0 1 0 16.9" fill="#005bbbB5"/><path d="M263.5 13.5a8.5 8.5 0 1 1 0-16.9 8.5 8.5 0 0 1 0 16.9" fill="#fffB5"/><path d="M303.6-270.4a8.5 8.5 0 1 1 0-17 8.5 8.5 0 0 1 0 17" fill="#fff500B6"/><path d="M-53.1 23.8a8.5 8.5 0 1 1 0-17.1 8.5 8.5 0 0 1 0 17.1" fill="#fffB6"/><path d="M50.2-384.3a8.7 8.7 0 1 1 0-17.3 8.7 8.7 0 0 1 0 17.3" fill="#005bbbB9"/><path d="M-134-182.7a8.7 8.7 0 1 1 0-17.4 8.7 8.7 0 0 1 0 17.4" fill="#fff500BA"/><path d="M323.8-229a8.8 8.8 0 1 1 0-17.6 8.8 8.8 0 0 1 0 17.6" fill="#c2e1ffBB"/><path d="M-104.4-35.4a8.8 8.8 0 1 1 0-17.6 8.8 8.8 0 0 1 0 17.6" fill="#fff500BC"/><path d="M-4.1 58.3a8.8 8.8 0 1 1 0-17.6 8.8 8.8 0 0 1 0 17.6" fill="#fff500BC"/><path d="M262.6 17.6a8.8 8.8 0 1 1 0-17.6 8.8 8.8 0 0 1 0 17.6" fill="#005bbbBD"/><path d="M332.2-110a8.9 8.9 0 1 1 0-17.7 8.9 8.9 0 0 1 0 17.7" fill="#005bbbBD"/><path d="M-96.7-284.4a8.9 8.9 0 1 1 0-17.8 8.9 8.9 0 0 1 0 17.8" fill="#fffBF"/><path d="M39.4 74.7a8.9 8.9 0 1 1 0-17.8 8.9 8.9 0 0 1 0 17.8" fill="#fff500BF"/><path d="M140.7 79.1a8.9 8.9 0 1 1 0-17.9 8.9 8.9 0 0 1 0 17.9" fill="#fffBF"/><path d="M285.9-7.9a9 9 0 1 1 0-17.9 9 9 0 0 1 0 17.9" fill="#fffC0"/><path d="M-52.3-334a9 9 0 1 1 0-17.9 9 9 0 0 1 0 17.9" fill="#fff500C0"/><path d="M335.2-134.4a9 9 0 1 1 0-18 9 9 0 0 1 0 18" fill="#005bbbC1"/><path d="M274.1 5.7a9 9 0 1 1 0-18.1 9 9 0 0 1 0 18.1" fill="#c2e1ffC1"/><path d="M145.9-384.8a9 9 0 1 1 0-18.1 9 9 0 0 1 0 18.1" fill="#005bbbC1"/><path d="M225.9 45.9a9 9 0 1 1 0-18.1 9 9 0 0 1 0 18.1" fill="#005bbbC2"/><path d="M275.8 3.6a9.1 9.1 0 1 1 0-18.1 9.1 9.1 0 0 1 0 18.1" fill="#fffC2"/><path d="M78.2-387.1a9.2 9.2 0 1 1 0-18.4 9.2 9.2 0 0 1 0 18.4" fill="#005bbbC5"/><path d="M293.8-22.2a9.3 9.3 0 1 1 0-18.6 9.3 9.3 0 0 1 0 18.6" fill="#fff500C7"/><path d="M-55.9-327.3a9.3 9.3 0 1 1 0-18.6 9.3 9.3 0 0 1 0 18.6" fill="#fffC7"/><path d="M332.9-171.3a9.3 9.3 0 1 1 0-18.6 9.3 9.3 0 0 1 0 18.6" fill="#fff500C7"/><path d="M-131.1-187.7a9.3 9.3 0 1 1 0-18.6 9.3 9.3 0 0 1 0 18.6" fill="#005bbbC7"/><path d="M261.7 15.4a9.3 9.3 0 1 1 0-18.6 9.3 9.3 0 0 1 0 18.6" fill="#c2e1ffC7"/><path d="M-28.2-348.4a9.3 9.3 0 1 1 0-18.6 9.3 9.3 0 0 1 0 18.6" fill="#fffC7"/><path d="M-121.8-226a9.3 9.3 0 1 1 0-18.6 9.3 9.3 0 0 1 0 18.6" fill="#fffC7"/><path d="M320-75.7a9.3 9.3 0 1 1 0-18.6 9.3 9.3 0 0 1 0 18.6" fill="#005bbbC8"/><path d="M24.2-372.7a9.4 9.4 0 1 1 0-18.8 9.4 9.4 0 0 1 0 18.8" fill="#005bbbC9"/><path d="M198.6 57.3a9.4 9.4 0 1 1 0-18.8 9.4 9.4 0 0 1 0 18.8" fill="#005bbbC9"/><path d="M-127.9-195.6a9.4 9.4 0 1 1 0-18.9 9.4 9.4 0 0 1 0 18.9" fill="#fff500CA"/><path d="M0.3-362.2a9.4 9.4 0 1 1 0-18.9 9.4 9.4 0 0 1 0 18.9" fill="#fff500CA"/><path d="M326.1-199.2a9.5 9.5 0 1 1 0-18.9 9.5 9.5 0 0 1 0 18.9" fill="#005bbbCB"/><path d="M18.4 62.4a9.5 9.5 0 1 1 0-19.1 9.5 9.5 0 0 1 0 19.1" fill="#c2e1ffCC"/><path d="M107.9 77.1a9.5 9.5 0 1 1 0-19 9.5 9.5 0 0 1 0 19" fill="#c2e1ffCC"/><path d="M159.2 69.5a9.5 9.5 0 1 1 0-19 9.5 9.5 0 0 1 0 19" fill="#c2e1ffCC"/><path d="M-119.8-87.6a9.6 9.6 0 1 1 0-19.2 9.6 9.6 0 0 1 0 19.2" fill="#c2e1ffCD"/><path d="M-60.5-316.7a9.6 9.6 0 1 1 0-19.1 9.6 9.6 0 0 1 0 19.1" fill="#fffCD"/><path d="M-94.6-32.3a9.6 9.6 0 1 1 0-19.2 9.6 9.6 0 0 1 0 19.2" fill="#c2e1ffCE"/><path d="M-126.4-166.4a9.7 9.7 0 1 1 0-19.4 9.7 9.7 0 0 1 0 19.4" fill="#c2e1ffD0"/><path d="M-113.4-229.4a9.7 9.7 0 1 1 0-19.4 9.7 9.7 0 0 1 0 19.4" fill="#005bbbD0"/><path d="M323.5-179.9a9.8 9.8 0 1 1 0-19.5 9.8 9.8 0 0 1 0 19.5" fill="#fffD1"/><path d="M-75.3-293.8a9.8 9.8 0 1 1 0-19.5 9.8 9.8 0 0 1 0 19.5" fill="#fffD1"/><path d="M154.5 65.3a9.8 9.8 0 1 1 0-19.5 9.8 9.8 0 0 1 0 19.5" fill="#c2e1ffD2"/><path d="M295.6-262.6a9.8 9.8 0 1 1 0-19.6 9.8 9.8 0 0 1 0 19.6" fill="#c2e1ffD2"/><path d="M226.1-338.2a9.8 9.8 0 1 1 0-19.6 9.8 9.8 0 0 1 0 19.6" fill="#fff500D2"/><path d="M-80.5-20.6a9.8 9.8 0 1 1 0-19.6 9.8 9.8 0 0 1 0 19.6" fill="#fffD2"/><path d="M265.8-299.6a9.9 9.9 0 1 1 0-19.7 9.9 9.9 0 0 1 0 19.7" fill="#fffD4"/><path d="M51 61.8a9.9 9.9 0 1 1 0-19.8 9.9 9.9 0 0 1 0 19.8" fill="#c2e1ffD5"/><path d="M307.7-190.7a10.2 10.2 0 1 1 0-20.4 10.2 10.2 0 0 1 0 20.4" fill="#fffDB"/><path d="M212.2 25.8a10.2 10.2 0 1 1 0-20.4 10.2 10.2 0 0 1 0 20.4" fill="#005bbbDB"/><path d="M242.1-306.9a10.2 10.2 0 1 1 0-20.5 10.2 10.2 0 0 1 0 20.5" fill="#005bbbDB"/><path d="M96.5-362.1a10.2 10.2 0 1 1 0-20.5 10.2 10.2 0 0 1 0 20.5" fill="#fffDB"/><path d="M278.6-252a10.3 10.3 0 1 1 0-20.7 10.3 10.3 0 0 1 0 20.7" fill="#005bbbDE"/><path d="M149.6-347.8a10.4 10.4 0 1 1 0-20.8 10.4 10.4 0 0 1 0 20.8" fill="#c2e1ffDF"/><path d="M301.7-152.1a10.4 10.4 0 1 1 0-20.8 10.4 10.4 0 0 1 0 20.8" fill="#c2e1ffDF"/><path d="M301-140.9a10.4 10.4 0 1 1 0-20.8 10.4 10.4 0 0 1 0 20.8" fill="#fffE0"/><path d="M193.1-329.6a10.4 10.4 0 1 1 0-20.9 10.4 10.4 0 0 1 0 20.9" fill="#c2e1ffE0"/><path d="M202.1-322.5a10.5 10.5 0 1 1 0-21 10.5 10.5 0 0 1 0 21" fill="#fffE1"/><path d="M4.8-323.6a10.5 10.5 0 1 1 0-21 10.5 10.5 0 0 1 0 21" fill="#fff500E2"/><path d="M80.4 42.1a10.5 10.5 0 1 1 0-21.1 10.5 10.5 0 0 1 0 21.1" fill="#c2e1ffE2"/><path d="M161.7-336.1a10.5 10.5 0 1 1 0-21.1 10.5 10.5 0 0 1 0 21.1" fill="#fff500E3"/><path d="M9 16.6a10.6 10.6 0 1 1 0-21.2 10.6 10.6 0 0 1 0 21.2" fill="#fffE4"/><path d="M40.1 26a10.7 10.7 0 1 1 0-21.3 10.7 10.7 0 0 1 0 21.3" fill="#fff500E5"/><path d="M196 5.1a10.7 10.7 0 1 1 0-21.4 10.7 10.7 0 0 1 0 21.4" fill="#fff500E6"/><path d="M-48.9-48.8a10.8 10.8 0 1 1 0-21.5 10.8 10.8 0 0 1 0 21.5" fill="#005bbbE7"/><path d="M-19.6-285.6a10.8 10.8 0 1 1 0-21.5 10.8 10.8 0 0 1 0 21.5" fill="#005bbbE8"/><path d="M192.7-0.3a10.8 10.8 0 1 1 0-21.7 10.8 10.8 0 0 1 0 21.7" fill="#c2e1ffE8"/><path d="M169.3 10a10.8 10.8 0 1 1 0-21.6 10.8 10.8 0 0 1 0 21.6" fill="#fff500E9"/><path d="M208.6-282.2a10.9 10.9 0 1 1 0-21.9 10.9 10.9 0 0 1 0 21.9" fill="#c2e1ffEB"/><path d="M-42.3-62.8a10.9 10.9 0 1 1 0-21.9 10.9 10.9 0 0 1 0 21.9" fill="#005bbbEB"/><path d="M-51.8-111a11.1 11.1 0 1 1 0-22.2 11.1 11.1 0 0 1 0 22.2" fill="#fff500EE"/><path d="M-9.7-254.3a11.1 11.1 0 1 1 0-22.3 11.1 11.1 0 0 1 0 22.3" fill="#fffF0"/><path d="M12.3-272.7a11.1 11.1 0 1 1 0-22.3 11.1 11.1 0 0 1 0 22.3" fill="#005bbbF0"/><path d="M-29.6-224.6a11.2 11.2 0 1 1 0-22.3 11.2 11.2 0 0 1 0 22.3" fill="#005bbbF0"/><path d="M111.9-299.5a11.2 11.2 0 1 1 0-22.3 11.2 11.2 0 0 1 0 22.3" fill="#fffF0"/><path d="M231.6-87a11.2 11.2 0 1 1 0-22.3 11.2 11.2 0 0 1 0 22.3" fill="#c2e1ffF1"/><path d="M224.9-216.7a11.2 11.2 0 1 1 0-22.4 11.2 11.2 0 0 1 0 22.4" fill="#c2e1ffF2"/><path d="M234.6-190.2a11.2 11.2 0 1 1 0-22.5 11.2 11.2 0 0 1 0 22.5" fill="#005bbbF2"/><path d="M107.3-288.7a11.3 11.3 0 1 1 0-22.5 11.3 11.3 0 0 1 0 22.5" fill="#fffF2"/><path d="M-29.1-189.8a11.3 11.3 0 1 1 0-22.6 11.3 11.3 0 0 1 0 22.6" fill="#c2e1ffF3"/><path d="M-24.9-109.5a11.3 11.3 0 1 1 0-22.6 11.3 11.3 0 0 1 0 22.6" fill="#005bbbF3"/><path d="M65.6-278.3a11.3 11.3 0 1 1 0-22.6 11.3 11.3 0 0 1 0 22.6" fill="#005bbbF3"/><path d="M8-242.4a11.3 11.3 0 1 1 0-22.7 11.3 11.3 0 0 1 0 22.7" fill="#005bbbF4"/><path d="M-16.3-207.4a11.3 11.3 0 1 1 0-22.7 11.3 11.3 0 0 1 0 22.7" fill="#005bbbF4"/><path d="M170.5-246.5a11.4 11.4 0 1 1 0-22.8 11.4 11.4 0 0 1 0 22.8" fill="#005bbbF6"/><path d="M204.5-204.6a11.4 11.4 0 1 1 0-22.8 11.4 11.4 0 0 1 0 22.8" fill="#fffF6"/><path d="M206.5-197.6a11.4 11.4 0 1 1 0-22.9 11.4 11.4 0 0 1 0 22.9" fill="#c2e1ffF6"/><path d="M5-88.4a11.4 11.4 0 1 1 0-22.9 11.4 11.4 0 0 1 0 22.9" fill="#fff500F6"/><path d="M207.2-150.1a11.5 11.5 0 1 1 0-23 11.5 11.5 0 0 1 0 23" fill="#fffF7"/><path d="M40.7-237.1a11.5 11.5 0 1 1 0-23 11.5 11.5 0 0 1 0 23" fill="#c2e1ffF8"/><path d="M77.6-50.1a11.5 11.5 0 1 1 0-23.1 11.5 11.5 0 0 1 0 23.1" fill="#fffF8"/><path d="M69.2-247.6a11.5 11.5 0 1 1 0-23 11.5 11.5 0 0 1 0 23" fill="#005bbbF8"/><path d="M199.8-133.9a11.5 11.5 0 1 1 0-23 11.5 11.5 0 0 1 0 23" fill="#fff500F8"/><path d="M151.8-233.1a11.6 11.6 0 1 1 0-23.1 11.6 11.6 0 0 1 0 23.1" fill="#fff500F9"/><path d="M86.7-57.1a11.6 11.6 0 1 1 0-23.1 11.6 11.6 0 0 1 0 23.1" fill="#fffF9"/><path d="M48.1-72.3a11.6 11.6 0 1 1 0-23.1 11.6 11.6 0 0 1 0 23.1" fill="#fff500F9"/><path d="M190.3-155a11.6 11.6 0 1 1 0-23.2 11.6 11.6 0 0 1 0 23.2" fill="#c2e1ffFA"/><path d="M155.1-217.2a11.6 11.6 0 1 1 0-23.2 11.6 11.6 0 0 1 0 23.2" fill="#fffFA"/><path d="M20.8-126.5a11.6 11.6 0 1 1 0-23.2 11.6 11.6 0 0 1 0 23.2" fill="#005bbbFA"/><path d="M170.1-131.3a11.7 11.7 0 1 1 0-23.4 11.7 11.7 0 0 1 0 23.4" fill="#c2e1ffFB"/><path d="M111.8-84a11.7 11.7 0 1 1 0-23.4 11.7 11.7 0 0 1 0 23.4" fill="#fffFC"/><path d="M116.6-210.5a11.7 11.7 0 1 1 0-23.5 11.7 11.7 0 0 1 0 23.5" fill="#c2e1ffFC"/><path d="M68.4-128.5a11.8 11.8 0 1 1 0-23.5 11.8 11.8 0 0 1 0 23.5" fill="#005bbbFE"/><path d="M99.4-139.3a11.8 11.8 0 1 1 0-23.7 11.8 11.8 0 0 1 0 23.7" fill="#c2e1ffFE"/></g></svg>