<svg width="1200" height="675" viewBox="-500 -500 1200 675" xmlns="http://www.w3.org/2000/svg"><path d="M-500-500h1200v675h-1200z" fill="#000"/><style>.sparkles path{stroke-linecap:round; stroke-width:1}</style><g class="sparkles"><path d="M100-162.5l3.5-25.9" stroke="#fff50032"/><path d="M100-162.5l-58.2-5.8" stroke="#005bbb33"/><path d="M100-162.5l58.7 21.9" stroke="#fff50033"/><path d="M100-162.5l50.7-54.8" stroke="#fff50034"/><path d="M100-162.5l-50.1 65.7" stroke="#c2e1ff35"/><path d="M100-162.5l92.9-18.9" stroke="#c2e1ff36"/><path d="M100-162.5l26 95.7" stroke="#c2e1ff36"/><path d="M100-162.5l10 105.5" stroke="#fff50037"/><path d="M100-162.5l-34.9 113.6" stroke="#c2e1ff38"/><path d="M100-162.5l115 42.9" stroke="#005bbb39"/><path d="M100-162.5l60.6-124.1" stroke="#005bbb3B"/><path d="M100-162.5l57.6-127.4" stroke="#005bbb3B"/><path d="M100-162.5l-124.1 71.1" stroke="#005bbb3C"/><path d="M100-162.5l86 122.4" stroke="#fff3D"/><path d="M100-162.5l-142.5-53.5" stroke="#005bbb3D"/><path d="M100-162.5l150.6 28.8" stroke="#fff5003D"/><path d="M100-162.5l11.1 153.7" stroke="#005bbb3E"/><path d="M100-162.5l133 83.8" stroke="#005bbb3E"/><path d="M100-162.5l146.9-62.5" stroke="#005bbb3F"/><path d="M100-162.5l-9 165" stroke="#c2e1ff40"/><path d="M100-162.5l-89.1-140.4" stroke="#005bbb40"/><path d="M100-162.5l-12.5 167.1" stroke="#fff40"/><path d="M100-162.5l-64.6 156.1" stroke="#c2e1ff41"/><path d="M100-162.5l-135.5 112.8" stroke="#fff50042"/><path d="M100-162.5l-93.6 153.2" stroke="#fff50043"/><path d="M100-162.5l165.9 69.7" stroke="#c2e1ff43"/><path d="M100-162.5l-149-102.6" stroke="#005bbb43"/><path d="M100-162.5l-76.3-164.4" stroke="#005bbb43"/><path d="M100-162.5l-53.1-174.9" stroke="#fff44"/><path d="M100-162.5l156.7-98.3" stroke="#fff50044"/><path d="M100-162.5l-155.4 102.9" stroke="#c2e1ff45"/><path d="M100-162.5l17.5-187.7" stroke="#fff45"/><path d="M100-162.5l-20.1 187.8" stroke="#fff50045"/><path d="M100-162.5l149.2-117" stroke="#c2e1ff46"/><path d="M100-162.5l153.2-114.1" stroke="#c2e1ff46"/><path d="M100-162.5l-158.2 108.9" stroke="#005bbb46"/><path d="M100-162.5l83.8 173.3" stroke="#005bbb47"/><path d="M100-162.5l-191.1-33.7" stroke="#fff50047"/><path d="M100-162.5l-138.8-139.1" stroke="#fff48"/><path d="M100-162.5l-181.7-86.1" stroke="#005bbb49"/><path d="M100-162.5l-201.2-31.1" stroke="#fff5004A"/><path d="M100-162.5l-147.5 142.6" stroke="#005bbb4B"/><path d="M100-162.5l-100.5-180.5" stroke="#c2e1ff4B"/><path d="M100-162.5l209.2 16" stroke="#fff5004D"/><path d="M100-162.5l2.4 214.7" stroke="#fff5004F"/><path d="M100-162.5l-215.2 10.2" stroke="#fff5004F"/><path d="M100-162.5l164.6-143.7" stroke="#fff51"/><path d="M100-162.5l-194.3-100.9" stroke="#c2e1ff51"/><path d="M100-162.5l10.8 219" stroke="#c2e1ff51"/><path d="M100-162.5l-221.5 10.8" stroke="#005bbb52"/><path d="M100-162.5l-214.9-59.6" stroke="#c2e1ff53"/><path d="M100-162.5l104.3-197.2" stroke="#005bbb53"/><path d="M100-162.5l1-224.3" stroke="#c2e1ff54"/><path d="M100-162.5l-211.1 75.9" stroke="#005bbb54"/><path d="M100-162.5l203.8-94.6" stroke="#005bbb54"/><path d="M100-162.5l170.2 148.1" stroke="#c2e1ff55"/><path d="M100-162.5l-170.8 148" stroke="#c2e1ff55"/><path d="M100-162.5l206.4-94" stroke="#c2e1ff55"/><path d="M100-162.5l214.2-75" stroke="#fff56"/><path d="M100-162.5l174.5-147.4" stroke="#fff50057"/><path d="M100-162.5l224.5 42.9" stroke="#fff50057"/><path d="M100-162.5l191.2-125.5" stroke="#005bbb57"/><path d="M100-162.5l95.5 210.1" stroke="#c2e1ff59"/><path d="M100-162.5l-65.8 222.4" stroke="#fff5005A"/><path d="M100-162.5l-231.3-20.2" stroke="#005bbb5A"/><path d="M100-162.5l-231.3 24.8" stroke="#005bbb5B"/><path d="M100-162.5l11.1 232.4" stroke="#fff5B"/><path d="M100-162.5l200.5-119.4" stroke="#fff5005C"/><path d="M100-162.5l-223.9-67.8" stroke="#005bbb5D"/><path d="M100-162.5l196.4 127.2" stroke="#fff5D"/><path d="M100-162.5l101-211.2" stroke="#fff5005D"/><path d="M100-162.5l11.7 234.2" stroke="#c2e1ff5D"/><path d="M100-162.5l37.5 232.1" stroke="#c2e1ff5F"/><path d="M100-162.5l-233.6 29.2" stroke="#005bbb5F"/><path d="M100-162.5l-2.7-235.6" stroke="#fff50060"/><path d="M100-162.5l178.4 154.3" stroke="#c2e1ff61"/><path d="M100-162.5l113.5-207.1" stroke="#c2e1ff62"/><path d="M100-162.5l-206.5-114.7" stroke="#fff50063"/><path d="M100-162.5l-64-227.4" stroke="#005bbb63"/><path d="M100-162.5l-117.2 205.1" stroke="#c2e1ff64"/><path d="M100-162.5l220.6 84.4" stroke="#005bbb64"/><path d="M100-162.5l131.8 196" stroke="#fff64"/><path d="M100-162.5l109.1 209.4" stroke="#fff50065"/><path d="M100-162.5l235.8 13.2" stroke="#fff50065"/><path d="M100-162.5l103-212.3" stroke="#fff50066"/><path d="M100-162.5l215.7 95.3" stroke="#005bbb67"/><path d="M100-162.5l-226.7-63.9" stroke="#fff68"/><path d="M100-162.5l183.9 146.8" stroke="#fff50068"/><path d="M100-162.5l215.4 94.8" stroke="#fff68"/><path d="M100-162.5l197.4 127.8" stroke="#fff68"/><path d="M100-162.5l204.9-114.7" stroke="#c2e1ff69"/><path d="M100-162.5l-226.5-60.1" stroke="#fff6A"/><path d="M100-162.5l105.5-208.6" stroke="#c2e1ff6B"/><path d="M100-162.5l-194 130.4" stroke="#fff5006B"/><path d="M100-162.5l211.8 98.5" stroke="#fff6B"/><path d="M100-162.5l177.7-151.5" stroke="#c2e1ff6B"/><path d="M100-162.5l227.8 51.1" stroke="#005bbb6B"/><path d="M100-162.5l131.1-193.1" stroke="#005bbb6B"/><path d="M100-162.5l157.8-171.5" stroke="#fff5006C"/><path d="M100-162.5l51.1-226.7" stroke="#fff6C"/><path d="M100-162.5l167.6 160.6" stroke="#fff5006D"/><path d="M100-162.5l-89.8-213.3" stroke="#fff6E"/><path d="M100-162.5l-221.6 63.5" stroke="#005bbb6E"/><path d="M100-162.5l-179-144" stroke="#c2e1ff6F"/><path d="M100-162.5l-226.4 37.6" stroke="#fff6F"/><path d="M100-162.5l19.7 228.6" stroke="#c2e1ff6F"/><path d="M100-162.5l86.3 211.9" stroke="#fff50070"/><path d="M100-162.5l-221.5 55" stroke="#fff70"/><path d="M100-162.5l191.5-121" stroke="#fff50072"/><path d="M100-162.5l-220.6-47.1" stroke="#fff50072"/><path d="M100-162.5l213.3-73.3" stroke="#fff72"/><path d="M100-162.5l122.2-189.5" stroke="#005bbb72"/><path d="M100-162.5l10.5-225.1" stroke="#fff73"/><path d="M100-162.5l25.3 221.7" stroke="#fff50074"/><path d="M100-162.5l-32.9 220.4" stroke="#c2e1ff74"/><path d="M100-162.5l-167.8-146.6" stroke="#005bbb74"/><path d="M100-162.5l70.7 210.9" stroke="#005bbb74"/><path d="M100-162.5l-1.2 222.2" stroke="#c2e1ff74"/><path d="M100-162.5l81.9-205.6" stroke="#005bbb75"/><path d="M100-162.5l-108.5 192.2" stroke="#c2e1ff75"/><path d="M100-162.5l-197.9-97.3" stroke="#c2e1ff75"/><path d="M100-162.5l217.3-31.8" stroke="#fff50076"/><path d="M100-162.5l122.8-181.1" stroke="#c2e1ff76"/><path d="M100-162.5l153.6-154.5" stroke="#fff77"/><path d="M100-162.5l-192.4 101.9" stroke="#c2e1ff77"/><path d="M100-162.5l159.4 148.4" stroke="#fff50077"/><path d="M100-162.5l203.8 73.2" stroke="#c2e1ff77"/><path d="M100-162.5l-204.1 70.1" stroke="#fff50078"/><path d="M100-162.5l122.8-173.7" stroke="#005bbb79"/><path d="M100-162.5l205.6 49.3" stroke="#fff7A"/><path d="M100-162.5l155.6 143" stroke="#005bbb7A"/><path d="M100-162.5l210.9 13.2" stroke="#fff5007A"/><path d="M100-162.5l-114.4-177.4" stroke="#005bbb7A"/><path d="M100-162.5l201-57.7" stroke="#fff7B"/><path d="M100-162.5l-132.1 161.5" stroke="#c2e1ff7B"/><path d="M100-162.5l-176.5 104.4" stroke="#fff7C"/><path d="M100-162.5l119.4-162.5" stroke="#c2e1ff7E"/><path d="M100-162.5l-126.1 156.2" stroke="#c2e1ff7E"/><path d="M100-162.5l-17.9-198.7" stroke="#005bbb7E"/><path d="M100-162.5l22.2 198.1" stroke="#005bbb7E"/><path d="M100-162.5l188.4 63.4" stroke="#005bbb7F"/><path d="M100-162.5l197.4-15" stroke="#005bbb7F"/><path d="M100-162.5l-60-183.7" stroke="#005bbb80"/><path d="M100-162.5l-30.2-190" stroke="#fff50081"/><path d="M100-162.5l-68.3-179" stroke="#005bbb81"/><path d="M100-162.5l-164.8-96.8" stroke="#fff81"/><path d="M100-162.5l133.2-132.6" stroke="#005bbb82"/><path d="M100-162.5l187.5 1.4" stroke="#005bbb82"/><path d="M100-162.5l-96.4-159.8" stroke="#fff50082"/><path d="M100-162.5l-175.8-50.9" stroke="#005bbb83"/><path d="M100-162.5l-44.4 175.3" stroke="#005bbb84"/><path d="M100-162.5l121.6-133.8" stroke="#fff84"/><path d="M100-162.5l73.9-159" stroke="#fff85"/><path d="M100-162.5l-116.7-129.8" stroke="#005bbb85"/><path d="M100-162.5l-32.6 171.3" stroke="#005bbb85"/><path d="M100-162.5l99.6-140.9" stroke="#fff86"/><path d="M100-162.5l77 153.7" stroke="#c2e1ff86"/><path d="M100-162.5l152.7-74" stroke="#c2e1ff86"/><path d="M100-162.5l-59.7-154.5" stroke="#005bbb87"/><path d="M100-162.5l45.5-156.5" stroke="#fff88"/><path d="M100-162.5l112.2-118" stroke="#fff88"/><path d="M100-162.5l128.3 97" stroke="#fff88"/><path d="M100-162.5l157.8-29.7" stroke="#005bbb88"/><path d="M100-162.5l-122.8-92.3" stroke="#c2e1ff89"/><path d="M100-162.5l-110.8-94.3" stroke="#fff5008B"/><path d="M100-162.5l-124.5-69.2" stroke="#005bbb8B"/><path d="M100-162.5l-132.1-52.5" stroke="#fff5008B"/><path d="M100-162.5l81-113.5" stroke="#fff8C"/><path d="M100-162.5l7.9 129.9" stroke="#fff5008D"/><path d="M100-162.5l56-114" stroke="#005bbb8E"/><path d="M100-162.5l103.3 0" stroke="#fff90"/><path d="M100-162.5l-26-98.7" stroke="#fff91"/><path d="M100-162.5l33.5-94.2" stroke="#fff50091"/><path d="M100-162.5l52.3-84.7" stroke="#005bbb91"/><path d="M100-162.5l-95.5 16.8" stroke="#fff50091"/><path d="M100-162.5l83.1-44.4" stroke="#005bbb91"/><path d="M100-162.5l-91-23.6" stroke="#c2e1ff91"/><path d="M100-162.5l-57.9-70.8" stroke="#005bbb92"/><path d="M100-162.5l-57.4 60.1" stroke="#fff50092"/><path d="M100-162.5l-56-32.7" stroke="#c2e1ff94"/><path d="M100-162.5l43.5 1.6" stroke="#005bbb95"/></g><g class="sparcs"><path d="M103.5-182.5a5.9 5.9 0 1 1 0-11.8 5.9 5.9 0 0 1 0 11.8" fill="#005bbb7D"/><path d="M41.8-162.3a6 6 0 1 1 0-12 6 6 0 0 1 0 12" fill="#fff7F"/><path d="M158.7-134.6a6 6 0 1 1 0-12 6 6 0 0 1 0 12" fill="#c2e1ff7F"/><path d="M150.7-211.2a6.1 6.1 0 1 1 0-12.1 6.1 6.1 0 0 1 0 12.1" fill="#c2e1ff80"/><path d="M49.9-90.7a6.1 6.1 0 1 1 0-12.2 6.1 6.1 0 0 1 0 12.2" fill="#fff81"/><path d="M192.9-175.3a6.2 6.2 0 1 1 0-12.3 6.2 6.2 0 0 1 0 12.3" fill="#c2e1ff82"/><path d="M126-60.6a6.2 6.2 0 1 1 0-12.4 6.2 6.2 0 0 1 0 12.4" fill="#c2e1ff83"/><path d="M110-50.8a6.2 6.2 0 1 1 0-12.4 6.2 6.2 0 0 1 0 12.4" fill="#fff83"/><path d="M65.1-42.5a6.3 6.3 0 1 1 0-12.7 6.3 6.3 0 0 1 0 12.7" fill="#fff85"/><path d="M215-113.2a6.3 6.3 0 1 1 0-12.7 6.3 6.3 0 0 1 0 12.7" fill="#fff86"/><path d="M160.6-280.2a6.5 6.5 0 1 1 0-12.9 6.5 6.5 0 0 1 0 12.9" fill="#c2e1ff89"/><path d="M157.6-283.4a6.5 6.5 0 1 1 0-13 6.5 6.5 0 0 1 0 13" fill="#005bbb89"/><path d="M-24.1-84.9a6.5 6.5 0 1 1 0-13 6.5 6.5 0 0 1 0 13" fill="#fff5008A"/><path d="M186-33.5a6.6 6.6 0 1 1 0-13.1 6.6 6.6 0 0 1 0 13.1" fill="#c2e1ff8B"/><path d="M-42.5-209.4a6.6 6.6 0 1 1 0-13.2 6.6 6.6 0 0 1 0 13.2" fill="#c2e1ff8C"/><path d="M250.6-127.1a6.6 6.6 0 1 1 0-13.2 6.6 6.6 0 0 1 0 13.2" fill="#fff8C"/><path d="M111.1-2.2a6.6 6.6 0 1 1 0-13.3 6.6 6.6 0 0 1 0 13.3" fill="#005bbb8C"/><path d="M233-72a6.7 6.7 0 1 1 0-13.3 6.7 6.7 0 0 1 0 13.3" fill="#fff5008D"/><path d="M246.9-218.4a6.7 6.7 0 1 1 0-13.3 6.7 6.7 0 0 1 0 13.3" fill="#fff8E"/><path d="M91 9.3a6.7 6.7 0 1 1 0-13.5 6.7 6.7 0 0 1 0 13.5" fill="#c2e1ff8F"/><path d="M10.9-296.1a6.8 6.8 0 1 1 0-13.6 6.8 6.8 0 0 1 0 13.6" fill="#fff5008F"/><path d="M87.5 11.4a6.8 6.8 0 1 1 0-13.6 6.8 6.8 0 0 1 0 13.6" fill="#fff90"/><path d="M35.4 0.4a6.8 6.8 0 1 1 0-13.6 6.8 6.8 0 0 1 0 13.6" fill="#c2e1ff90"/><path d="M-35.5-42.8a6.9 6.9 0 1 1 0-13.8 6.9 6.9 0 0 1 0 13.8" fill="#fff92"/><path d="M6.4-2.4a6.9 6.9 0 1 1 0-13.8 6.9 6.9 0 0 1 0 13.8" fill="#005bbb93"/><path d="M265.9-85.8a6.9 6.9 0 1 1 0-13.9 6.9 6.9 0 0 1 0 13.9" fill="#fff93"/><path d="M-49-258.1a7 7 0 1 1 0-13.9 7 7 0 0 1 0 13.9" fill="#c2e1ff94"/><path d="M23.7-319.9a7 7 0 1 1 0-14 7 7 0 0 1 0 14" fill="#c2e1ff94"/><path d="M46.9-330.4a7 7 0 1 1 0-14 7 7 0 0 1 0 14" fill="#c2e1ff94"/><path d="M256.7-253.8a7 7 0 1 1 0-14 7 7 0 0 1 0 14" fill="#fff50095"/><path d="M-55.4-52.5a7 7 0 1 1 0-14.1 7 7 0 0 1 0 14.1" fill="#005bbb96"/><path d="M117.5-343.1a7.1 7.1 0 1 1 0-14.2 7.1 7.1 0 0 1 0 14.2" fill="#fff96"/><path d="M79.9 32.4a7.1 7.1 0 1 1 0-14.2 7.1 7.1 0 0 1 0 14.2" fill="#005bbb96"/><path d="M249.2-272.4a7.1 7.1 0 1 1 0-14.2 7.1 7.1 0 0 1 0 14.2" fill="#fff50097"/><path d="M253.2-269.5a7.1 7.1 0 1 1 0-14.2 7.1 7.1 0 0 1 0 14.2" fill="#005bbb97"/><path d="M-58.2-46.5a7.1 7.1 0 1 1 0-14.3 7.1 7.1 0 0 1 0 14.3" fill="#c2e1ff98"/><path d="M183.8 17.9a7.1 7.1 0 1 1 0-14.3 7.1 7.1 0 0 1 0 14.3" fill="#fff98"/><path d="M-91.1-189a7.2 7.2 0 1 1 0-14.4 7.2 7.2 0 0 1 0 14.4" fill="#005bbb98"/><path d="M-38.8-294.4a7.2 7.2 0 1 1 0-14.4 7.2 7.2 0 0 1 0 14.4" fill="#c2e1ff99"/><path d="M-81.7-241.3a7.3 7.3 0 1 1 0-14.6 7.3 7.3 0 0 1 0 14.6" fill="#fff9B"/><path d="M-101.2-186.2a7.4 7.4 0 1 1 0-14.7 7.4 7.4 0 0 1 0 14.7" fill="#fff5009D"/><path d="M-47.5-12.6a7.4 7.4 0 1 1 0-14.7 7.4 7.4 0 0 1 0 14.7" fill="#c2e1ff9D"/><path d="M-0.5-335.6a7.4 7.4 0 1 1 0-14.8 7.4 7.4 0 0 1 0 14.8" fill="#005bbb9E"/><path d="M309.2-139a7.5 7.5 0 1 1 0-15 7.5 7.5 0 0 1 0 15" fill="#fff500A0"/><path d="M102.4 59.9a7.6 7.6 0 1 1 0-15.3 7.6 7.6 0 0 1 0 15.3" fill="#fffA2"/><path d="M-115.2-144.7a7.6 7.6 0 1 1 0-15.3 7.6 7.6 0 0 1 0 15.3" fill="#fffA3"/><path d="M264.6-298.5a7.7 7.7 0 1 1 0-15.5 7.7 7.7 0 0 1 0 15.5" fill="#005bbbA5"/><path d="M-94.3-255.6a7.7 7.7 0 1 1 0-15.5 7.7 7.7 0 0 1 0 15.5" fill="#005bbbA5"/><path d="M110.8 64.3a7.8 7.8 0 1 1 0-15.5 7.8 7.8 0 0 1 0 15.5" fill="#005bbbA5"/><path d="M-121.5-143.9a7.8 7.8 0 1 1 0-15.7 7.8 7.8 0 0 1 0 15.7" fill="#fff500A7"/><path d="M-114.9-214.3a7.9 7.9 0 1 1 0-15.7 7.9 7.9 0 0 1 0 15.7" fill="#c2e1ffA8"/><path d="M204.3-351.8a7.9 7.9 0 1 1 0-15.8 7.9 7.9 0 0 1 0 15.8" fill="#c2e1ffA8"/><path d="M101-378.9a7.9 7.9 0 1 1 0-15.8 7.9 7.9 0 0 1 0 15.8" fill="#c2e1ffA9"/><path d="M-111.1-78.7a7.9 7.9 0 1 1 0-15.8 7.9 7.9 0 0 1 0 15.8" fill="#005bbbA9"/><path d="M303.8-249.2a7.9 7.9 0 1 1 0-15.9 7.9 7.9 0 0 1 0 15.9" fill="#c2e1ffA9"/><path d="M270.2-6.4a8 8 0 1 1 0-16 8 8 0 0 1 0 16" fill="#c2e1ffAA"/><path d="M-70.8-6.5a8 8 0 1 1 0-16 8 8 0 0 1 0 16" fill="#c2e1ffAB"/><path d="M306.4-248.5a8 8 0 1 1 0-16 8 8 0 0 1 0 16" fill="#c2e1ffAB"/><path d="M314.2-229.5a8 8 0 1 1 0-16.1 8 8 0 0 1 0 16.1" fill="#005bbbAB"/><path d="M274.5-301.8a8.1 8.1 0 1 1 0-16.2 8.1 8.1 0 0 1 0 16.2" fill="#005bbbAD"/><path d="M324.5-111.5a8.1 8.1 0 1 1 0-16.2 8.1 8.1 0 0 1 0 16.2" fill="#c2e1ffAD"/><path d="M291.2-279.9a8.1 8.1 0 1 1 0-16.3 8.1 8.1 0 0 1 0 16.3" fill="#fffAD"/><path d="M195.5 55.8a8.2 8.2 0 1 1 0-16.4 8.2 8.2 0 0 1 0 16.4" fill="#fff500B0"/><path d="M34.2 68.2a8.3 8.3 0 1 1 0-16.6 8.3 8.3 0 0 1 0 16.6" fill="#fffB1"/><path d="M-131.3-174.3a8.3 8.3 0 1 1 0-16.7 8.3 8.3 0 0 1 0 16.7" fill="#c2e1ffB1"/><path d="M-131.3-129.4a8.3 8.3 0 1 1 0-16.7 8.3 8.3 0 0 1 0 16.7" fill="#fff500B2"/><path d="M111.1 78.3a8.3 8.3 0 1 1 0-16.7 8.3 8.3 0 0 1 0 16.7" fill="#fff500B2"/><path d="M300.5-273.5a8.4 8.4 0 1 1 0-16.8 8.4 8.4 0 0 1 0 16.8" fill="#fff500B3"/><path d="M-123.9-221.9a8.5 8.5 0 1 1 0-16.9 8.5 8.5 0 0 1 0 16.9" fill="#c2e1ffB5"/><path d="M296.4-26.8a8.5 8.5 0 1 1 0-16.9 8.5 8.5 0 0 1 0 16.9" fill="#005bbbB5"/><path d="M201-365.2a8.5 8.5 0 1 1 0-17 8.5 8.5 0 0 1 0 17" fill="#fffB5"/><path d="M111.7 80.2a8.5 8.5 0 1 1 0-17 8.5 8.5 0 0 1 0 17" fill="#c2e1ffB6"/><path d="M137.5 78.2a8.6 8.6 0 1 1 0-17.2 8.6 8.6 0 0 1 0 17.2" fill="#fffB7"/><path d="M-133.6-124.7a8.6 8.6 0 1 1 0-17.2 8.6 8.6 0 0 1 0 17.2" fill="#c2e1ffB8"/><path d="M97.3-389.5a8.6 8.6 0 1 1 0-17.2 8.6 8.6 0 0 1 0 17.2" fill="#fffB9"/><path d="M278.4 0.5a8.7 8.7 0 1 1 0-17.4 8.7 8.7 0 0 1 0 17.4" fill="#005bbbBA"/><path d="M213.5-360.8a8.8 8.8 0 1 1 0-17.6 8.8 8.8 0 0 1 0 17.6" fill="#005bbbBC"/><path d="M-106.5-268.4a8.8 8.8 0 1 1 0-17.7 8.8 8.8 0 0 1 0 17.7" fill="#fff500BD"/><path d="M36-381.1a8.8 8.8 0 1 1 0-17.7 8.8 8.8 0 0 1 0 17.7" fill="#c2e1ffBD"/><path d="M-17.2 51.5a8.9 8.9 0 1 1 0-17.8 8.9 8.9 0 0 1 0 17.8" fill="#fff500BE"/><path d="M320.6-69.2a8.9 8.9 0 1 1 0-17.8 8.9 8.9 0 0 1 0 17.8" fill="#fff500BE"/><path d="M231.8 42.4a8.9 8.9 0 1 1 0-17.8 8.9 8.9 0 0 1 0 17.8" fill="#005bbbBF"/><path d="M209.1 55.9a9 9 0 1 1 0-17.9 9 9 0 0 1 0 17.9" fill="#005bbbBF"/><path d="M335.8-140.4a9 9 0 1 1 0-17.9 9 9 0 0 1 0 17.9" fill="#fff500C0"/><path d="M203-365.8a9 9 0 1 1 0-18 9 9 0 0 1 0 18" fill="#fffC1"/><path d="M315.7-58.2a9 9 0 1 1 0-18 9 9 0 0 1 0 18" fill="#fffC1"/><path d="M-126.7-217.3a9.1 9.1 0 1 1 0-18.2 9.1 9.1 0 0 1 0 18.2" fill="#fffC3"/><path d="M283.9-6.6a9.1 9.1 0 1 1 0-18.2 9.1 9.1 0 0 1 0 18.2" fill="#fffC3"/><path d="M315.4-58.6a9.1 9.1 0 1 1 0-18.2 9.1 9.1 0 0 1 0 18.2" fill="#fff500C3"/><path d="M297.4-25.5a9.1 9.1 0 1 1 0-18.3 9.1 9.1 0 0 1 0 18.3" fill="#fff500C4"/><path d="M304.9-268a9.2 9.2 0 1 1 0-18.4 9.2 9.2 0 0 1 0 18.4" fill="#005bbbC5"/><path d="M-126.5-213.3a9.2 9.2 0 1 1 0-18.5 9.2 9.2 0 0 1 0 18.5" fill="#c2e1ffC6"/><path d="M205.5-361.9a9.3 9.3 0 1 1 0-18.5 9.3 9.3 0 0 1 0 18.5" fill="#c2e1ffC7"/><path d="M-94-22.8a9.3 9.3 0 1 1 0-18.6 9.3 9.3 0 0 1 0 18.6" fill="#fff500C7"/><path d="M311.8-54.7a9.3 9.3 0 1 1 0-18.6 9.3 9.3 0 0 1 0 18.6" fill="#005bbbC7"/><path d="M277.7-304.7a9.3 9.3 0 1 1 0-18.6 9.3 9.3 0 0 1 0 18.6" fill="#c2e1ffC7"/><path d="M327.8-102a9.3 9.3 0 1 1 0-18.7 9.3 9.3 0 0 1 0 18.7" fill="#005bbbC7"/><path d="M231.1-346.3a9.3 9.3 0 1 1 0-18.7 9.3 9.3 0 0 1 0 18.7" fill="#fff500C7"/><path d="M257.8-324.6a9.3 9.3 0 1 1 0-18.7 9.3 9.3 0 0 1 0 18.7" fill="#fff500C8"/><path d="M151.1-379.8a9.4 9.4 0 1 1 0-18.8 9.4 9.4 0 0 1 0 18.8" fill="#c2e1ffC9"/><path d="M267.6 7.5a9.4 9.4 0 1 1 0-18.8 9.4 9.4 0 0 1 0 18.8" fill="#c2e1ffCA"/><path d="M10.2-366.3a9.5 9.5 0 1 1 0-18.9 9.5 9.5 0 0 1 0 18.9" fill="#fffCB"/><path d="M-121.6-89.5a9.5 9.5 0 1 1 0-19 9.5 9.5 0 0 1 0 19" fill="#fff500CC"/><path d="M-79-296.9a9.6 9.6 0 1 1 0-19.1 9.6 9.6 0 0 1 0 19.1" fill="#005bbbCD"/><path d="M-126.4-115.3a9.6 9.6 0 1 1 0-19.1 9.6 9.6 0 0 1 0 19.1" fill="#fffCD"/><path d="M119.7 75.6a9.6 9.6 0 1 1 0-19.1 9.6 9.6 0 0 1 0 19.1" fill="#fffCD"/><path d="M186.3 59a9.6 9.6 0 1 1 0-19.2 9.6 9.6 0 0 1 0 19.2" fill="#c2e1ffCE"/><path d="M-121.5-97.9a9.6 9.6 0 1 1 0-19.2 9.6 9.6 0 0 1 0 19.2" fill="#fff500CE"/><path d="M291.5-273.8a9.7 9.7 0 1 1 0-19.4 9.7 9.7 0 0 1 0 19.4" fill="#005bbbD0"/><path d="M-120.6-199.8a9.7 9.7 0 1 1 0-19.5 9.7 9.7 0 0 1 0 19.5" fill="#fff500D1"/><path d="M313.3-226.1a9.7 9.7 0 1 1 0-19.4 9.7 9.7 0 0 1 0 19.4" fill="#fff500D1"/><path d="M222.2-342.2a9.7 9.7 0 1 1 0-19.5 9.7 9.7 0 0 1 0 19.5" fill="#fff500D1"/><path d="M110.5-377.9a9.7 9.7 0 1 1 0-19.4 9.7 9.7 0 0 1 0 19.4" fill="#c2e1ffD1"/><path d="M125.3 69.1a9.8 9.8 0 1 1 0-19.7 9.8 9.8 0 0 1 0 19.7" fill="#c2e1ffD3"/><path d="M67.1 67.8a9.8 9.8 0 1 1 0-19.7 9.8 9.8 0 0 1 0 19.7" fill="#c2e1ffD3"/><path d="M-67.8-299.2a9.8 9.8 0 1 1 0-19.7 9.8 9.8 0 0 1 0 19.7" fill="#005bbbD3"/><path d="M170.7 58.2a9.9 9.9 0 1 1 0-19.7 9.9 9.9 0 0 1 0 19.7" fill="#fff500D3"/><path d="M98.8 69.6a9.9 9.9 0 1 1 0-19.8 9.9 9.9 0 0 1 0 19.8" fill="#005bbbD4"/><path d="M181.9-358.3a9.9 9.9 0 1 1 0-19.7 9.9 9.9 0 0 1 0 19.7" fill="#c2e1ffD4"/><path d="M-8.5 39.6a9.9 9.9 0 1 1 0-19.8 9.9 9.9 0 0 1 0 19.8" fill="#c2e1ffD5"/><path d="M-97.9-249.9a9.9 9.9 0 1 1 0-19.8 9.9 9.9 0 0 1 0 19.8" fill="#005bbbD5"/><path d="M317.3-184.3a9.9 9.9 0 1 1 0-19.9 9.9 9.9 0 0 1 0 19.9" fill="#fffD5"/><path d="M222.8-333.6a10 10 0 1 1 0-20 10 10 0 0 1 0 20" fill="#005bbbD6"/><path d="M253.6-307a10 10 0 1 1 0-20 10 10 0 0 1 0 20" fill="#fffD7"/><path d="M-92.4-50.6a10 10 0 1 1 0-20 10 10 0 0 1 0 20" fill="#005bbbD7"/><path d="M259.4-4.1a10 10 0 1 1 0-20 10 10 0 0 1 0 20" fill="#fffD7"/><path d="M303.8-79.3a10 10 0 1 1 0-20.1 10 10 0 0 1 0 20.1" fill="#005bbbD7"/><path d="M-104.1-82.3a10.1 10.1 0 1 1 0-20.1 10.1 10.1 0 0 1 0 20.1" fill="#c2e1ffD8"/><path d="M222.8-326.1a10.1 10.1 0 1 1 0-20.3 10.1 10.1 0 0 1 0 20.3" fill="#fff500DA"/><path d="M305.6-103.1a10.2 10.2 0 1 1 0-20.3 10.2 10.2 0 0 1 0 20.3" fill="#fff500DA"/><path d="M255.6-9.3a10.2 10.2 0 1 1 0-20.3 10.2 10.2 0 0 1 0 20.3" fill="#fff500DB"/><path d="M310.9-139.1a10.2 10.2 0 1 1 0-20.4 10.2 10.2 0 0 1 0 20.4" fill="#fffDB"/><path d="M-14.4-329.7a10.2 10.2 0 1 1 0-20.3 10.2 10.2 0 0 1 0 20.3" fill="#005bbbDB"/><path d="M301-209.9a10.2 10.2 0 1 1 0-20.5 10.2 10.2 0 0 1 0 20.5" fill="#fffDC"/><path d="M-32.1 9.3a10.2 10.2 0 1 1 0-20.5 10.2 10.2 0 0 1 0 20.5" fill="#fff500DC"/><path d="M-76.5-47.8a10.3 10.3 0 1 1 0-20.6 10.3 10.3 0 0 1 0 20.6" fill="#005bbbDE"/><path d="M219.4-314.6a10.4 10.4 0 1 1 0-20.8 10.4 10.4 0 0 1 0 20.8" fill="#c2e1ffDF"/><path d="M-26.1 4.1a10.4 10.4 0 1 1 0-20.8 10.4 10.4 0 0 1 0 20.8" fill="#c2e1ffE0"/><path d="M82.1-350.8a10.4 10.4 0 1 1 0-20.9 10.4 10.4 0 0 1 0 20.9" fill="#fff500E0"/><path d="M122.2 46.1a10.4 10.4 0 1 1 0-20.9 10.4 10.4 0 0 1 0 20.9" fill="#fff500E0"/><path d="M288.4-88.7a10.5 10.5 0 1 1 0-20.9 10.5 10.5 0 0 1 0 20.9" fill="#fff500E1"/><path d="M297.4-167.1a10.5 10.5 0 1 1 0-20.9 10.5 10.5 0 0 1 0 20.9" fill="#fff500E1"/><path d="M40-335.6a10.6 10.6 0 1 1 0-21.1 10.6 10.6 0 0 1 0 21.1" fill="#c2e1ffE3"/><path d="M69.8-341.9a10.6 10.6 0 1 1 0-21.2 10.6 10.6 0 0 1 0 21.2" fill="#c2e1ffE3"/><path d="M31.7-330.9a10.6 10.6 0 1 1 0-21.1 10.6 10.6 0 0 1 0 21.1" fill="#fffE4"/><path d="M-64.8-248.7a10.6 10.6 0 1 1 0-21.2 10.6 10.6 0 0 1 0 21.2" fill="#fffE4"/><path d="M233.2-284.5a10.6 10.6 0 1 1 0-21.3 10.6 10.6 0 0 1 0 21.3" fill="#c2e1ffE5"/><path d="M287.5-150.4a10.7 10.7 0 1 1 0-21.3 10.7 10.7 0 0 1 0 21.3" fill="#c2e1ffE5"/><path d="M3.6-311.7a10.7 10.7 0 1 1 0-21.3 10.7 10.7 0 0 1 0 21.3" fill="#fffE5"/><path d="M-75.8-202.7a10.7 10.7 0 1 1 0-21.5 10.7 10.7 0 0 1 0 21.5" fill="#005bbbE7"/><path d="M55.6 23.6a10.8 10.8 0 1 1 0-21.5 10.8 10.8 0 0 1 0 21.5" fill="#005bbbE7"/><path d="M221.6-285.5a10.8 10.8 0 1 1 0-21.6 10.8 10.8 0 0 1 0 21.6" fill="#005bbbE7"/><path d="M173.9-310.7a10.8 10.8 0 1 1 0-21.7 10.8 10.8 0 0 1 0 21.7" fill="#fffE9"/><path d="M-16.7-281.5a10.8 10.8 0 1 1 0-21.7 10.8 10.8 0 0 1 0 21.7" fill="#005bbbE9"/><path d="M67.4 19.6a10.9 10.9 0 1 1 0-21.7 10.9 10.9 0 0 1 0 21.7" fill="#c2e1ffE9"/><path d="M199.6-292.6a10.9 10.9 0 1 1 0-21.7 10.9 10.9 0 0 1 0 21.7" fill="#005bbbEA"/><path d="M177 2.1a10.9 10.9 0 1 1 0-21.8 10.9 10.9 0 0 1 0 21.8" fill="#fff500EA"/><path d="M252.7-225.6a10.9 10.9 0 1 1 0-21.8 10.9 10.9 0 0 1 0 21.8" fill="#fff500EB"/><path d="M40.3-306.1a11 11 0 1 1 0-21.9 11 11 0 0 1 0 21.9" fill="#005bbbEC"/><path d="M145.5-308a11 11 0 1 1 0-22 11 11 0 0 1 0 22" fill="#c2e1ffED"/><path d="M212.2-269.5a11 11 0 1 1 0-22 11 11 0 0 1 0 22" fill="#005bbbED"/><path d="M228.3-54.5a11 11 0 1 1 0-22 11 11 0 0 1 0 22" fill="#fff500ED"/><path d="M257.8-181.2a11 11 0 1 1 0-22 11 11 0 0 1 0 22" fill="#fff500ED"/><path d="M-22.8-243.7a11.1 11.1 0 1 1 0-22.2 11.1 11.1 0 0 1 0 22.2" fill="#c2e1ffEF"/><path d="M-10.8-245.6a11.2 11.2 0 1 1 0-22.4 11.2 11.2 0 0 1 0 22.4" fill="#005bbbF1"/><path d="M-24.5-220.5a11.2 11.2 0 1 1 0-22.5 11.2 11.2 0 0 1 0 22.5" fill="#005bbbF1"/><path d="M-32.1-203.7a11.2 11.2 0 1 1 0-22.5 11.2 11.2 0 0 1 0 22.5" fill="#fff500F1"/><path d="M181-264.7a11.2 11.2 0 1 1 0-22.5 11.2 11.2 0 0 1 0 22.5" fill="#fff500F2"/><path d="M107.9-21.2a11.3 11.3 0 1 1 0-22.7 11.3 11.3 0 0 1 0 22.7" fill="#005bbbF4"/><path d="M156-265.1a11.3 11.3 0 1 1 0-22.7 11.3 11.3 0 0 1 0 22.7" fill="#fff500F4"/><path d="M203.3-151a11.5 11.5 0 1 1 0-23 11.5 11.5 0 0 1 0 23" fill="#fff500F8"/><path d="M74-249.7a11.5 11.5 0 1 1 0-23.1 11.5 11.5 0 0 1 0 23.1" fill="#c2e1ffF8"/><path d="M133.5-245.2a11.5 11.5 0 1 1 0-23 11.5 11.5 0 0 1 0 23" fill="#005bbbF8"/><path d="M152.3-235.7a11.5 11.5 0 1 1 0-23.1 11.5 11.5 0 0 1 0 23.1" fill="#c2e1ffF8"/><path d="M4.5-134.1a11.6 11.6 0 1 1 0-23.1 11.6 11.6 0 0 1 0 23.1" fill="#c2e1ffF9"/><path d="M183.1-195.4a11.6 11.6 0 1 1 0-23.1 11.6 11.6 0 0 1 0 23.1" fill="#fffF9"/><path d="M9-174.6a11.6 11.6 0 1 1 0-23.1 11.6 11.6 0 0 1 0 23.1" fill="#c2e1ffF9"/><path d="M42.1-221.8a11.6 11.6 0 1 1 0-23.1 11.6 11.6 0 0 1 0 23.1" fill="#fff500F9"/><path d="M42.6-90.7a11.6 11.6 0 1 1 0-23.3 11.6 11.6 0 0 1 0 23.3" fill="#c2e1ffFA"/><path d="M44-183.5a11.7 11.7 0 1 1 0-23.4 11.7 11.7 0 0 1 0 23.4" fill="#fffFC"/><path d="M143.5-149.1a11.8 11.8 0 1 1 0-23.6 11.8 11.8 0 0 1 0 23.6" fill="#fffFD"/></g></svg>