<svg width="1200" height="675" viewBox="-500 -500 1200 675" xmlns="http://www.w3.org/2000/svg"><path d="M-500-500h1200v675h-1200z" fill="#000"/><style>.sparkles path{stroke-linecap:round; stroke-width:1}</style><g class="sparkles"><path d="M100-162.5l-16-25.8" stroke="#c2e1ff32"/><path d="M100-162.5l-33-18.9" stroke="#005bbb32"/><path d="M100-162.5l-74.5 1.1" stroke="#005bbb34"/><path d="M100-162.5l22.2-72.5" stroke="#fff50034"/><path d="M100-162.5l46.2 62.5" stroke="#fff50034"/><path d="M100-162.5l75.1 27.5" stroke="#fff34"/><path d="M100-162.5l65-53" stroke="#fff50035"/><path d="M100-162.5l-89.8-16.4" stroke="#fff35"/><path d="M100-162.5l40.1-95.8" stroke="#c2e1ff37"/><path d="M100-162.5l-21.5 107.5" stroke="#c2e1ff37"/><path d="M100-162.5l23.6 112.1" stroke="#fff38"/><path d="M100-162.5l122.6 22" stroke="#fff50039"/><path d="M100-162.5l43.7-117" stroke="#c2e1ff39"/><path d="M100-162.5l-22.1-123.3" stroke="#fff50039"/><path d="M100-162.5l-133 36.7" stroke="#fff5003B"/><path d="M100-162.5l144.6 3" stroke="#fff5003C"/><path d="M100-162.5l33.4-145.6" stroke="#c2e1ff3D"/><path d="M100-162.5l-93.5-117.8" stroke="#fff3D"/><path d="M100-162.5l145.3 43.3" stroke="#fff5003D"/><path d="M100-162.5l149.3-28.3" stroke="#fff3D"/><path d="M100-162.5l145.4 45.9" stroke="#005bbb3D"/><path d="M100-162.5l158.9-10.9" stroke="#fff3F"/><path d="M100-162.5l-56.9-149.4" stroke="#005bbb3F"/><path d="M100-162.5l-145.3-68.5" stroke="#fff3F"/><path d="M100-162.5l-83.4-139" stroke="#c2e1ff3F"/><path d="M100-162.5l-41.5 157.5" stroke="#005bbb3F"/><path d="M100-162.5l-155.7-52.2" stroke="#fff40"/><path d="M100-162.5l24.8 166.1" stroke="#005bbb40"/><path d="M100-162.5l-107.3 129.7" stroke="#c2e1ff40"/><path d="M100-162.5l158.2-60.3" stroke="#fff41"/><path d="M100-162.5l-162.3 61.7" stroke="#005bbb42"/><path d="M100-162.5l-164.4-67.2" stroke="#fff43"/><path d="M100-162.5l-153.2-91.1" stroke="#fff50043"/><path d="M100-162.5l-165.2-71.7" stroke="#fff43"/><path d="M100-162.5l-120.1-135.7" stroke="#c2e1ff43"/><path d="M100-162.5l-138.3 117.8" stroke="#c2e1ff44"/><path d="M100-162.5l106.2 147.9" stroke="#c2e1ff44"/><path d="M100-162.5l80-164.2" stroke="#fff50044"/><path d="M100-162.5l160.8-101.6" stroke="#fff46"/><path d="M100-162.5l150.4 117.5" stroke="#c2e1ff46"/><path d="M100-162.5l60.2 186.1" stroke="#005bbb47"/><path d="M100-162.5l127.3-149.8" stroke="#fff50048"/><path d="M100-162.5l-121.3-157.8" stroke="#fff50049"/><path d="M100-162.5l149.9 131.5" stroke="#fff49"/><path d="M100-162.5l32.1 198.1" stroke="#c2e1ff49"/><path d="M100-162.5l-76 186.8" stroke="#005bbb49"/><path d="M100-162.5l-196.1-48.2" stroke="#005bbb4A"/><path d="M100-162.5l120.1 162.4" stroke="#fff5004A"/><path d="M100-162.5l131.6 154.3" stroke="#fff4A"/><path d="M100-162.5l199.1-52.9" stroke="#c2e1ff4B"/><path d="M100-162.5l196.5-65.4" stroke="#005bbb4B"/><path d="M100-162.5l106-180.4" stroke="#fff5004C"/><path d="M100-162.5l206.9-35.3" stroke="#fff4D"/><path d="M100-162.5l49.1 204.9" stroke="#fff5004D"/><path d="M100-162.5l-211.7 2.1" stroke="#c2e1ff4D"/><path d="M100-162.5l172.9-123.2" stroke="#c2e1ff4E"/><path d="M100-162.5l-194.6 84.8" stroke="#005bbb4E"/><path d="M100-162.5l-63.6 204" stroke="#fff4E"/><path d="M100-162.5l214-20.2" stroke="#c2e1ff4F"/><path d="M100-162.5l43.4-210.9" stroke="#c2e1ff4F"/><path d="M100-162.5l-204.5 68.7" stroke="#fff5004F"/><path d="M100-162.5l198.3 86.2" stroke="#fff4F"/><path d="M100-162.5l144 161.9" stroke="#fff50050"/><path d="M100-162.5l-203.8 76.4" stroke="#fff50050"/><path d="M100-162.5l-155.9-154.3" stroke="#c2e1ff51"/><path d="M100-162.5l-209.6 66.2" stroke="#c2e1ff51"/><path d="M100-162.5l-42.1-218.6" stroke="#fff53"/><path d="M100-162.5l62-214.3" stroke="#fff50053"/><path d="M100-162.5l-148.4-167.9" stroke="#fff54"/><path d="M100-162.5l-209.4-80.5" stroke="#fff54"/><path d="M100-162.5l-222.7 29.8" stroke="#c2e1ff54"/><path d="M100-162.5l-106.2 198" stroke="#fff54"/><path d="M100-162.5l-210.4 79.9" stroke="#c2e1ff54"/><path d="M100-162.5l-19.4 226.1" stroke="#fff56"/><path d="M100-162.5l175.4 150.2" stroke="#fff50059"/><path d="M100-162.5l72.8 219.9" stroke="#005bbb5A"/><path d="M100-162.5l173.1-154.3" stroke="#c2e1ff5A"/><path d="M100-162.5l40.9 230.4" stroke="#fff5D"/><path d="M100-162.5l-234.5-7.5" stroke="#005bbb5E"/><path d="M100-162.5l108-208.5" stroke="#fff5E"/><path d="M100-162.5l149.7 181.1" stroke="#005bbb5E"/><path d="M100-162.5l-201-122.9" stroke="#fff60"/><path d="M100-162.5l151.5 180.8" stroke="#005bbb61"/><path d="M100-162.5l-13.2 235.5" stroke="#fff50061"/><path d="M100-162.5l158.2-175.1" stroke="#fff50061"/><path d="M100-162.5l96.8-215.3" stroke="#fff61"/><path d="M100-162.5l-53.2 230.1" stroke="#fff62"/><path d="M100-162.5l15.4 235.7" stroke="#c2e1ff63"/><path d="M100-162.5l-179.3-153.8" stroke="#c2e1ff63"/><path d="M100-162.5l29.8 234.4" stroke="#005bbb63"/><path d="M100-162.5l230.5-51.7" stroke="#fff50064"/><path d="M100-162.5l92.2 217.5" stroke="#c2e1ff64"/><path d="M100-162.5l227.1-64.7" stroke="#005bbb65"/><path d="M100-162.5l-158-175.6" stroke="#fff65"/><path d="M100-162.5l-175 158.5" stroke="#fff65"/><path d="M100-162.5l231.5-46.1" stroke="#005bbb65"/><path d="M100-162.5l-215.9-95.4" stroke="#005bbb66"/><path d="M100-162.5l57.8 228.8" stroke="#fff66"/><path d="M100-162.5l15.7 235.4" stroke="#fff50066"/><path d="M100-162.5l6.3-235.8" stroke="#005bbb66"/><path d="M100-162.5l107.9 209.7" stroke="#005bbb66"/><path d="M100-162.5l-148.8-182.8" stroke="#c2e1ff67"/><path d="M100-162.5l-215.6 94.3" stroke="#c2e1ff68"/><path d="M100-162.5l-90.3 217" stroke="#fff69"/><path d="M100-162.5l8.7-234.7" stroke="#fff50069"/><path d="M100-162.5l48.6-229.8" stroke="#fff69"/><path d="M100-162.5l81.3 220.1" stroke="#005bbb69"/><path d="M100-162.5l158.8-172.7" stroke="#c2e1ff69"/><path d="M100-162.5l215.7-92" stroke="#005bbb6A"/><path d="M100-162.5l-220.5 79.5" stroke="#fff5006A"/><path d="M100-162.5l-234.4 1.4" stroke="#c2e1ff6A"/><path d="M100-162.5l-90.3-215.5" stroke="#005bbb6B"/><path d="M100-162.5l225.6 58.8" stroke="#fff6C"/><path d="M100-162.5l189.6-132.6" stroke="#c2e1ff6E"/><path d="M100-162.5l-54 225" stroke="#fff6E"/><path d="M100-162.5l48 226.1" stroke="#c2e1ff6E"/><path d="M100-162.5l-144 180.7" stroke="#fff5006E"/><path d="M100-162.5l-60.1-223.1" stroke="#fff5006E"/><path d="M100-162.5l5.6 230.7" stroke="#fff5006E"/><path d="M100-162.5l86.4-212.6" stroke="#fff6F"/><path d="M100-162.5l20.2-226.7" stroke="#005bbb71"/><path d="M100-162.5l227.3 0" stroke="#005bbb71"/><path d="M100-162.5l34.9-224.3" stroke="#005bbb71"/><path d="M100-162.5l-215-71.7" stroke="#fff50072"/><path d="M100-162.5l-225.4-21" stroke="#fff72"/><path d="M100-162.5l223.8 32.7" stroke="#005bbb72"/><path d="M100-162.5l-83.7-210" stroke="#fff50072"/><path d="M100-162.5l-179.2-137.2" stroke="#c2e1ff72"/><path d="M100-162.5l-149.4-167.3" stroke="#fff50073"/><path d="M100-162.5l67.4 213.7" stroke="#005bbb73"/><path d="M100-162.5l7.8-223.7" stroke="#fff50073"/><path d="M100-162.5l-219.6-35.6" stroke="#005bbb74"/><path d="M100-162.5l206.5 79.6" stroke="#005bbb75"/><path d="M100-162.5l179.9-127.7" stroke="#fff75"/><path d="M100-162.5l79.4 205.7" stroke="#c2e1ff75"/><path d="M100-162.5l206.4-76.4" stroke="#fff76"/><path d="M100-162.5l152.3 154.6" stroke="#fff77"/><path d="M100-162.5l-125.9 175.5" stroke="#005bbb78"/><path d="M100-162.5l152.6 151.5" stroke="#fff50078"/><path d="M100-162.5l-12.9 213" stroke="#fff50079"/><path d="M100-162.5l-209.2 39.5" stroke="#c2e1ff79"/><path d="M100-162.5l102.8 185.2" stroke="#fff5007A"/><path d="M100-162.5l79.7 194.9" stroke="#005bbb7A"/><path d="M100-162.5l22.6-206.4" stroke="#c2e1ff7B"/><path d="M100-162.5l174.2-109.8" stroke="#c2e1ff7C"/><path d="M100-162.5l-182.5 91.7" stroke="#fff5007D"/><path d="M100-162.5l-75.3-189.5" stroke="#fff7D"/><path d="M100-162.5l-201.6-1.5" stroke="#c2e1ff7E"/><path d="M100-162.5l140.8-143.6" stroke="#fff5007E"/><path d="M100-162.5l-170.9 100.7" stroke="#fff7F"/><path d="M100-162.5l-187.1-55.9" stroke="#fff50080"/><path d="M100-162.5l-31.7 188.4" stroke="#c2e1ff81"/><path d="M100-162.5l184.9-21.3" stroke="#fff82"/><path d="M100-162.5l-136.3 126.4" stroke="#c2e1ff82"/><path d="M100-162.5l175.8 47.2" stroke="#fff50083"/><path d="M100-162.5l174.5 51.2" stroke="#fff50083"/><path d="M100-162.5l-19.3 180.7" stroke="#fff50083"/><path d="M100-162.5l179.3-23" stroke="#005bbb84"/><path d="M100-162.5l178.2-5" stroke="#fff50084"/><path d="M100-162.5l-175.5-0.2" stroke="#fff50085"/><path d="M100-162.5l160.2 55.3" stroke="#fff50086"/><path d="M100-162.5l-131.9 101.7" stroke="#c2e1ff87"/><path d="M100-162.5l-57.4 155.2" stroke="#c2e1ff87"/><path d="M100-162.5l-142.1 72.3" stroke="#fff50088"/><path d="M100-162.5l-92.6-129.1" stroke="#fff88"/><path d="M100-162.5l102.8 111.7" stroke="#fff8A"/><path d="M100-162.5l7.9 150.5" stroke="#fff8A"/><path d="M100-162.5l101.8 110" stroke="#005bbb8A"/><path d="M100-162.5l-101.9-99" stroke="#fff8B"/><path d="M100-162.5l-107.6-72.8" stroke="#005bbb8D"/><path d="M100-162.5l52.6-117.9" stroke="#fff8D"/><path d="M100-162.5l-52 111.3" stroke="#c2e1ff8E"/><path d="M100-162.5l-90.6 78.7" stroke="#005bbb8F"/><path d="M100-162.5l-86.1-81.3" stroke="#fff8F"/><path d="M100-162.5l-79.8-52.1" stroke="#c2e1ff91"/><path d="M100-162.5l-61.5-63.1" stroke="#c2e1ff92"/><path d="M100-162.5l11-86.9" stroke="#fff50092"/><path d="M100-162.5l-65.4-5.5" stroke="#fff94"/><path d="M100-162.5l43.5 25.8" stroke="#c2e1ff94"/><path d="M100-162.5l-21.8-17.3" stroke="#fff50095"/><path d="M100-162.5l-2-8.2" stroke="#005bbb95"/></g><g class="sparcs"><path d="M84-182.4a5.9 5.9 0 1 1 0-11.8 5.9 5.9 0 0 1 0 11.8" fill="#c2e1ff7D"/><path d="M67-175.4a5.9 5.9 0 1 1 0-11.9 5.9 5.9 0 0 1 0 11.9" fill="#c2e1ff7D"/><path d="M25.5-155.4a6.1 6.1 0 1 1 0-12.1 6.1 6.1 0 0 1 0 12.1" fill="#005bbb80"/><path d="M122.2-228.9a6.1 6.1 0 1 1 0-12.2 6.1 6.1 0 0 1 0 12.2" fill="#fff80"/><path d="M146.2-93.9a6.1 6.1 0 1 1 0-12.1 6.1 6.1 0 0 1 0 12.1" fill="#c2e1ff80"/><path d="M175.1-128.9a6.1 6.1 0 1 1 0-12.2 6.1 6.1 0 0 1 0 12.2" fill="#fff80"/><path d="M165-209.4a6.1 6.1 0 1 1 0-12.2 6.1 6.1 0 0 1 0 12.2" fill="#005bbb81"/><path d="M10.2-172.8a6.1 6.1 0 1 1 0-12.2 6.1 6.1 0 0 1 0 12.2" fill="#fff82"/><path d="M140.1-252.1a6.2 6.2 0 1 1 0-12.4 6.2 6.2 0 0 1 0 12.4" fill="#c2e1ff83"/><path d="M78.5-48.8a6.2 6.2 0 1 1 0-12.4 6.2 6.2 0 0 1 0 12.4" fill="#005bbb84"/><path d="M123.6-44.1a6.3 6.3 0 1 1 0-12.6 6.3 6.3 0 0 1 0 12.6" fill="#fff50085"/><path d="M222.6-134.1a6.4 6.4 0 1 1 0-12.7 6.4 6.4 0 0 1 0 12.7" fill="#005bbb86"/><path d="M143.7-273.1a6.4 6.4 0 1 1 0-12.7 6.4 6.4 0 0 1 0 12.7" fill="#c2e1ff86"/><path d="M77.9-279.4a6.4 6.4 0 1 1 0-12.7 6.4 6.4 0 0 1 0 12.7" fill="#fff86"/><path d="M-33-119.4a6.5 6.5 0 1 1 0-12.9 6.5 6.5 0 0 1 0 12.9" fill="#005bbb89"/><path d="M244.6-153a6.5 6.5 0 1 1 0-13 6.5 6.5 0 0 1 0 13" fill="#fff8A"/><path d="M133.4-301.6a6.6 6.6 0 1 1 0-13.1 6.6 6.6 0 0 1 0 13.1" fill="#c2e1ff8B"/><path d="M6.5-273.7a6.6 6.6 0 1 1 0-13.2 6.6 6.6 0 0 1 0 13.2" fill="#fff8B"/><path d="M245.3-112.6a6.6 6.6 0 1 1 0-13.2 6.6 6.6 0 0 1 0 13.2" fill="#fff8C"/><path d="M249.3-184.2a6.6 6.6 0 1 1 0-13.2 6.6 6.6 0 0 1 0 13.2" fill="#005bbb8C"/><path d="M245.4-110a6.6 6.6 0 1 1 0-13.2 6.6 6.6 0 0 1 0 13.2" fill="#c2e1ff8C"/><path d="M258.9-166.7a6.7 6.7 0 1 1 0-13.3 6.7 6.7 0 0 1 0 13.3" fill="#fff5008D"/><path d="M43.1-305.2a6.7 6.7 0 1 1 0-13.4 6.7 6.7 0 0 1 0 13.4" fill="#c2e1ff8E"/><path d="M-45.3-224.3a6.7 6.7 0 1 1 0-13.4 6.7 6.7 0 0 1 0 13.4" fill="#005bbb8E"/><path d="M16.6-294.8a6.7 6.7 0 1 1 0-13.4 6.7 6.7 0 0 1 0 13.4" fill="#fff8E"/><path d="M58.5 1.7a6.7 6.7 0 1 1 0-13.4 6.7 6.7 0 0 1 0 13.4" fill="#005bbb8E"/><path d="M-55.7-207.9a6.7 6.7 0 1 1 0-13.5 6.7 6.7 0 0 1 0 13.5" fill="#005bbb8F"/><path d="M124.8 10.4a6.8 6.8 0 1 1 0-13.6 6.8 6.8 0 0 1 0 13.6" fill="#c2e1ff90"/><path d="M-7.3-26a6.8 6.8 0 1 1 0-13.6 6.8 6.8 0 0 1 0 13.6" fill="#c2e1ff90"/><path d="M258.2-216a6.8 6.8 0 1 1 0-13.6 6.8 6.8 0 0 1 0 13.6" fill="#fff90"/><path d="M-62.3-94a6.9 6.9 0 1 1 0-13.7 6.9 6.9 0 0 1 0 13.7" fill="#c2e1ff91"/><path d="M-64.4-222.8a6.9 6.9 0 1 1 0-13.8 6.9 6.9 0 0 1 0 13.8" fill="#c2e1ff93"/><path d="M-53.2-246.6a6.9 6.9 0 1 1 0-13.9 6.9 6.9 0 0 1 0 13.9" fill="#c2e1ff93"/><path d="M-65.2-227.2a6.9 6.9 0 1 1 0-13.9 6.9 6.9 0 0 1 0 13.9" fill="#fff50093"/><path d="M-20.1-291.3a7 7 0 1 1 0-13.9 7 7 0 0 1 0 13.9" fill="#c2e1ff94"/><path d="M-38.3-37.7a7 7 0 1 1 0-13.9 7 7 0 0 1 0 13.9" fill="#fff50094"/><path d="M206.2-7.6a7 7 0 1 1 0-14 7 7 0 0 1 0 14" fill="#c2e1ff94"/><path d="M180-319.7a7 7 0 1 1 0-14 7 7 0 0 1 0 14" fill="#c2e1ff94"/><path d="M260.8-257a7.1 7.1 0 1 1 0-14.2 7.1 7.1 0 0 1 0 14.2" fill="#c2e1ff97"/><path d="M250.4-37.9a7.1 7.1 0 1 1 0-14.2 7.1 7.1 0 0 1 0 14.2" fill="#fff97"/><path d="M160.2 30.8a7.2 7.2 0 1 1 0-14.4 7.2 7.2 0 0 1 0 14.4" fill="#fff50099"/><path d="M227.3-305.1a7.2 7.2 0 1 1 0-14.5 7.2 7.2 0 0 1 0 14.5" fill="#fff50099"/><path d="M-21.3-313a7.3 7.3 0 1 1 0-14.5 7.3 7.3 0 0 1 0 14.5" fill="#fff9A"/><path d="M249.9-23.7a7.3 7.3 0 1 1 0-14.6 7.3 7.3 0 0 1 0 14.6" fill="#005bbb9B"/><path d="M132.1 42.9a7.3 7.3 0 1 1 0-14.6 7.3 7.3 0 0 1 0 14.6" fill="#fff5009B"/><path d="M24 31.6a7.3 7.3 0 1 1 0-14.7 7.3 7.3 0 0 1 0 14.7" fill="#fff5009C"/><path d="M-96.1-203.3a7.3 7.3 0 1 1 0-14.7 7.3 7.3 0 0 1 0 14.7" fill="#fff9C"/><path d="M220.1 7.3a7.3 7.3 0 1 1 0-14.7 7.3 7.3 0 0 1 0 14.7" fill="#005bbb9C"/><path d="M231.6-0.8a7.3 7.3 0 1 1 0-14.7 7.3 7.3 0 0 1 0 14.7" fill="#005bbb9C"/><path d="M299.1-208a7.4 7.4 0 1 1 0-14.8 7.4 7.4 0 0 1 0 14.8" fill="#fff9E"/><path d="M296.5-220.5a7.4 7.4 0 1 1 0-14.9 7.4 7.4 0 0 1 0 14.9" fill="#c2e1ff9E"/><path d="M206-335.4a7.5 7.5 0 1 1 0-15 7.5 7.5 0 0 1 0 15" fill="#005bbb9F"/><path d="M306.9-190.3a7.5 7.5 0 1 1 0-15 7.5 7.5 0 0 1 0 15" fill="#005bbbA0"/><path d="M149.1 50a7.5 7.5 0 1 1 0-15.1 7.5 7.5 0 0 1 0 15.1" fill="#c2e1ffA0"/><path d="M-111.7-152.8a7.5 7.5 0 1 1 0-15.1 7.5 7.5 0 0 1 0 15.1" fill="#fff500A1"/><path d="M272.9-278.1a7.6 7.6 0 1 1 0-15.1 7.6 7.6 0 0 1 0 15.1" fill="#fffA1"/><path d="M-94.6-70.1a7.6 7.6 0 1 1 0-15.1 7.6 7.6 0 0 1 0 15.1" fill="#c2e1ffA1"/><path d="M36.4 49.1a7.6 7.6 0 1 1 0-15.2 7.6 7.6 0 0 1 0 15.2" fill="#fff500A2"/><path d="M314-175a7.6 7.6 0 1 1 0-15.3 7.6 7.6 0 0 1 0 15.3" fill="#005bbbA3"/><path d="M143.4-365.8a7.6 7.6 0 1 1 0-15.3 7.6 7.6 0 0 1 0 15.3" fill="#005bbbA3"/><path d="M-104.5-86.1a7.7 7.7 0 1 1 0-15.3 7.7 7.7 0 0 1 0 15.3" fill="#fff500A3"/><path d="M298.3-68.6a7.7 7.7 0 1 1 0-15.3 7.7 7.7 0 0 1 0 15.3" fill="#c2e1ffA3"/><path d="M244 7a7.7 7.7 0 1 1 0-15.3 7.7 7.7 0 0 1 0 15.3" fill="#c2e1ffA4"/><path d="M-103.8-78.4a7.7 7.7 0 1 1 0-15.4 7.7 7.7 0 0 1 0 15.4" fill="#fff500A4"/><path d="M-55.9-309.1a7.8 7.8 0 1 1 0-15.5 7.8 7.8 0 0 1 0 15.5" fill="#fffA5"/><path d="M-109.6-88.5a7.8 7.8 0 1 1 0-15.6 7.8 7.8 0 0 1 0 15.6" fill="#fffA6"/><path d="M57.9-373.2a7.9 7.9 0 1 1 0-15.7 7.9 7.9 0 0 1 0 15.7" fill="#fff500A8"/><path d="M162-368.9a7.9 7.9 0 1 1 0-15.8 7.9 7.9 0 0 1 0 15.8" fill="#c2e1ffA8"/><path d="M-48.4-322.5a7.9 7.9 0 1 1 0-15.8 7.9 7.9 0 0 1 0 15.8" fill="#fffA9"/><path d="M-109.4-235.1a7.9 7.9 0 1 1 0-15.8 7.9 7.9 0 0 1 0 15.8" fill="#005bbbA9"/><path d="M-122.7-124.7a7.9 7.9 0 1 1 0-15.9 7.9 7.9 0 0 1 0 15.9" fill="#c2e1ffA9"/><path d="M-6.2 43.5a7.9 7.9 0 1 1 0-15.9 7.9 7.9 0 0 1 0 15.9" fill="#fff500A9"/><path d="M-110.4-74.6a8 8 0 1 1 0-16 8 8 0 0 1 0 16" fill="#005bbbAA"/><path d="M80.6 71.6a8 8 0 1 1 0-16 8 8 0 0 1 0 16" fill="#c2e1ffAB"/><path d="M275.4-4.1a8.2 8.2 0 1 1 0-16.5 8.2 8.2 0 0 1 0 16.5" fill="#c2e1ffB0"/><path d="M172.8 65.6a8.3 8.3 0 1 1 0-16.5 8.3 8.3 0 0 1 0 16.5" fill="#fff500B1"/><path d="M273.1-308.5a8.3 8.3 0 1 1 0-16.6 8.3 8.3 0 0 1 0 16.6" fill="#c2e1ffB1"/><path d="M140.9 76.4a8.5 8.5 0 1 1 0-16.9 8.5 8.5 0 0 1 0 16.9" fill="#005bbbB5"/><path d="M-134.5-161.5a8.5 8.5 0 1 1 0-17 8.5 8.5 0 0 1 0 17" fill="#fffB6"/><path d="M208-362.5a8.5 8.5 0 1 1 0-17 8.5 8.5 0 0 1 0 17" fill="#c2e1ffB6"/><path d="M249.7 27.2a8.6 8.6 0 1 1 0-17.1 8.6 8.6 0 0 1 0 17.1" fill="#fff500B7"/><path d="M-101-276.8a8.6 8.6 0 1 1 0-17.3 8.6 8.6 0 0 1 0 17.3" fill="#c2e1ffB9"/><path d="M251.5 27a8.7 8.7 0 1 1 0-17.4 8.7 8.7 0 0 1 0 17.4" fill="#fff500BA"/><path d="M86.8 81.7a8.7 8.7 0 1 1 0-17.4 8.7 8.7 0 0 1 0 17.4" fill="#fff500BA"/><path d="M258.2-328.9a8.7 8.7 0 1 1 0-17.4 8.7 8.7 0 0 1 0 17.4" fill="#fff500BA"/><path d="M196.8-369.1a8.7 8.7 0 1 1 0-17.4 8.7 8.7 0 0 1 0 17.4" fill="#fffBB"/><path d="M46.8 76.4a8.8 8.8 0 1 1 0-17.6 8.8 8.8 0 0 1 0 17.6" fill="#005bbbBC"/><path d="M115.4 82.1a8.8 8.8 0 1 1 0-17.7 8.8 8.8 0 0 1 0 17.7" fill="#fff500BD"/><path d="M-79.3-307.5a8.8 8.8 0 1 1 0-17.6 8.8 8.8 0 0 1 0 17.6" fill="#005bbbBD"/><path d="M129.8 80.7a8.8 8.8 0 1 1 0-17.7 8.8 8.8 0 0 1 0 17.7" fill="#005bbbBD"/><path d="M330.5-205.3a8.9 8.9 0 1 1 0-17.8 8.9 8.9 0 0 1 0 17.8" fill="#005bbbBE"/><path d="M192.2 63.9a8.9 8.9 0 1 1 0-17.8 8.9 8.9 0 0 1 0 17.8" fill="#c2e1ffBF"/><path d="M327.1-218.3a8.9 8.9 0 1 1 0-17.8 8.9 8.9 0 0 1 0 17.8" fill="#005bbbBF"/><path d="M-58-329.1a8.9 8.9 0 1 1 0-17.9 8.9 8.9 0 0 1 0 17.9" fill="#005bbbBF"/><path d="M-75 5a8.9 8.9 0 1 1 0-17.9 8.9 8.9 0 0 1 0 17.9" fill="#fff500BF"/><path d="M331.5-199.7a9 9 0 1 1 0-17.9 9 9 0 0 1 0 17.9" fill="#fff500C0"/><path d="M-115.9-248.9a9 9 0 1 1 0-18 9 9 0 0 1 0 18" fill="#fffC1"/><path d="M157.8 75.3a9 9 0 1 1 0-18 9 9 0 0 1 0 18" fill="#fff500C1"/><path d="M115.7 81.9a9 9 0 1 1 0-18.1 9 9 0 0 1 0 18.1" fill="#005bbbC1"/><path d="M106.3-389.3a9 9 0 1 1 0-18 9 9 0 0 1 0 18" fill="#005bbbC1"/><path d="M207.9 56.3a9 9 0 1 1 0-18.1 9 9 0 0 1 0 18.1" fill="#fff500C1"/><path d="M-48.8-336.3a9.1 9.1 0 1 1 0-18.1 9.1 9.1 0 0 1 0 18.1" fill="#fffC2"/><path d="M-115.6-59.1a9.1 9.1 0 1 1 0-18.2 9.1 9.1 0 0 1 0 18.2" fill="#005bbbC3"/><path d="M9.7 63.7a9.2 9.2 0 1 1 0-18.3 9.2 9.2 0 0 1 0 18.3" fill="#c2e1ffC4"/><path d="M108.7-388a9.2 9.2 0 1 1 0-18.4 9.2 9.2 0 0 1 0 18.4" fill="#fff500C5"/><path d="M148.6-383.1a9.2 9.2 0 1 1 0-18.3 9.2 9.2 0 0 1 0 18.3" fill="#fff500C5"/><path d="M181.3 66.8a9.2 9.2 0 1 1 0-18.4 9.2 9.2 0 0 1 0 18.4" fill="#c2e1ffC5"/><path d="M258.8-326a9.2 9.2 0 1 1 0-18.4 9.2 9.2 0 0 1 0 18.4" fill="#c2e1ffC5"/><path d="M315.7-245.3a9.2 9.2 0 1 1 0-18.4 9.2 9.2 0 0 1 0 18.4" fill="#fffC5"/><path d="M-120.5-73.8a9.2 9.2 0 1 1 0-18.4 9.2 9.2 0 0 1 0 18.4" fill="#fff500C6"/><path d="M-134.4-151.8a9.2 9.2 0 1 1 0-18.5 9.2 9.2 0 0 1 0 18.5" fill="#fff500C6"/><path d="M9.7-368.7a9.3 9.3 0 1 1 0-18.6 9.3 9.3 0 0 1 0 18.6" fill="#fff500C7"/><path d="M325.6-94.4a9.3 9.3 0 1 1 0-18.7 9.3 9.3 0 0 1 0 18.7" fill="#005bbbC8"/><path d="M289.6-285.7a9.5 9.5 0 1 1 0-18.9 9.5 9.5 0 0 1 0 18.9" fill="#005bbbCB"/><path d="M46 71.9a9.5 9.5 0 1 1 0-18.9 9.5 9.5 0 0 1 0 18.9" fill="#c2e1ffCB"/><path d="M148 73.1a9.5 9.5 0 1 1 0-19 9.5 9.5 0 0 1 0 19" fill="#c2e1ffCB"/><path d="M-44 27.7a9.5 9.5 0 1 1 0-19 9.5 9.5 0 0 1 0 19" fill="#c2e1ffCB"/><path d="M39.9-376.1a9.5 9.5 0 1 1 0-18.9 9.5 9.5 0 0 1 0 18.9" fill="#fffCB"/><path d="M105.6 77.7a9.5 9.5 0 1 1 0-19 9.5 9.5 0 0 1 0 19" fill="#005bbbCB"/><path d="M186.4-365.6a9.6 9.6 0 1 1 0-19.1 9.6 9.6 0 0 1 0 19.1" fill="#fff500CD"/><path d="M120.2-379.5a9.7 9.7 0 1 1 0-19.3 9.7 9.7 0 0 1 0 19.3" fill="#fffCF"/><path d="M327.3-152.8a9.7 9.7 0 1 1 0-19.4 9.7 9.7 0 0 1 0 19.4" fill="#fffCF"/><path d="M134.9-377.1a9.7 9.7 0 1 1 0-19.3 9.7 9.7 0 0 1 0 19.3" fill="#005bbbD0"/><path d="M-115-224.5a9.7 9.7 0 1 1 0-19.4 9.7 9.7 0 0 1 0 19.4" fill="#c2e1ffD0"/><path d="M-125.4-173.8a9.7 9.7 0 1 1 0-19.4 9.7 9.7 0 0 1 0 19.4" fill="#fffD0"/><path d="M323.8-120.1a9.7 9.7 0 1 1 0-19.5 9.7 9.7 0 0 1 0 19.5" fill="#c2e1ffD0"/><path d="M16.3-362.7a9.7 9.7 0 1 1 0-19.5 9.7 9.7 0 0 1 0 19.5" fill="#c2e1ffD0"/><path d="M-79.2-290a9.7 9.7 0 1 1 0-19.4 9.7 9.7 0 0 1 0 19.4" fill="#005bbbD1"/><path d="M-49.4-320a9.8 9.8 0 1 1 0-19.6 9.8 9.8 0 0 1 0 19.6" fill="#fff500D2"/><path d="M167.4 61a9.8 9.8 0 1 1 0-19.6 9.8 9.8 0 0 1 0 19.6" fill="#c2e1ffD2"/><path d="M107.8-376.4a9.8 9.8 0 1 1 0-19.6 9.8 9.8 0 0 1 0 19.6" fill="#fff500D2"/><path d="M-119.6-188.3a9.9 9.9 0 1 1 0-19.7 9.9 9.9 0 0 1 0 19.7" fill="#fffD3"/><path d="M306.5-73a9.9 9.9 0 1 1 0-19.8 9.9 9.9 0 0 1 0 19.8" fill="#005bbbD4"/><path d="M279.9-280.2a9.9 9.9 0 1 1 0-19.9 9.9 9.9 0 0 1 0 19.9" fill="#fff500D5"/><path d="M179.4 53.1a9.9 9.9 0 1 1 0-19.8 9.9 9.9 0 0 1 0 19.8" fill="#fffD5"/><path d="M306.4-229a9.9 9.9 0 1 1 0-19.8 9.9 9.9 0 0 1 0 19.8" fill="#005bbbD5"/><path d="M252.3 2.1a10 10 0 1 1 0-20 10 10 0 0 1 0 20" fill="#005bbbD7"/><path d="M-25.9 23a10.1 10.1 0 1 1 0-20.1 10.1 10.1 0 0 1 0 20.1" fill="#fff500D8"/><path d="M252.6-1a10.1 10.1 0 1 1 0-20.1 10.1 10.1 0 0 1 0 20.1" fill="#fffD8"/><path d="M87.1 60.6a10.1 10.1 0 1 1 0-20.2 10.1 10.1 0 0 1 0 20.2" fill="#c2e1ffD9"/><path d="M-109.2-112.8a10.1 10.1 0 1 1 0-20.3 10.1 10.1 0 0 1 0 20.3" fill="#fff500DA"/><path d="M202.8 32.9a10.2 10.2 0 1 1 0-20.3 10.2 10.2 0 0 1 0 20.3" fill="#005bbbDA"/><path d="M179.7 42.6a10.2 10.2 0 1 1 0-20.4 10.2 10.2 0 0 1 0 20.4" fill="#fffDB"/><path d="M122.6-358.6a10.3 10.3 0 1 1 0-20.5 10.3 10.3 0 0 1 0 20.5" fill="#fffDD"/><path d="M274.2-262a10.3 10.3 0 1 1 0-20.6 10.3 10.3 0 0 1 0 20.6" fill="#fffDD"/><path d="M-82.5-60.5a10.3 10.3 0 1 1 0-20.6 10.3 10.3 0 0 1 0 20.6" fill="#c2e1ffDE"/><path d="M24.7-341.7a10.4 10.4 0 1 1 0-20.7 10.4 10.4 0 0 1 0 20.7" fill="#005bbbDE"/><path d="M-101.6-153.6a10.4 10.4 0 1 1 0-20.8 10.4 10.4 0 0 1 0 20.8" fill="#fff500DF"/><path d="M240.8-295.7a10.4 10.4 0 1 1 0-20.8 10.4 10.4 0 0 1 0 20.8" fill="#fff500E0"/><path d="M-70.9-51.3a10.5 10.5 0 1 1 0-21 10.5 10.5 0 0 1 0 21" fill="#005bbbE1"/><path d="M-87.1-207.9a10.5 10.5 0 1 1 0-21 10.5 10.5 0 0 1 0 21" fill="#fff500E2"/><path d="M68.3 36.5a10.6 10.6 0 1 1 0-21.2 10.6 10.6 0 0 1 0 21.2" fill="#fffE4"/><path d="M284.9-173.2a10.7 10.7 0 1 1 0-21.3 10.7 10.7 0 0 1 0 21.3" fill="#c2e1ffE6"/><path d="M-36.3-25.4a10.7 10.7 0 1 1 0-21.4 10.7 10.7 0 0 1 0 21.4" fill="#005bbbE6"/><path d="M275.8-104.5a10.7 10.7 0 1 1 0-21.5 10.7 10.7 0 0 1 0 21.5" fill="#005bbbE7"/><path d="M274.5-100.6a10.7 10.7 0 1 1 0-21.5 10.7 10.7 0 0 1 0 21.5" fill="#c2e1ffE7"/><path d="M80.7 28.9a10.7 10.7 0 1 1 0-21.5 10.7 10.7 0 0 1 0 21.5" fill="#c2e1ffE7"/><path d="M279.3-174.7a10.8 10.8 0 1 1 0-21.6 10.8 10.8 0 0 1 0 21.6" fill="#005bbbE7"/><path d="M278.2-156.7a10.8 10.8 0 1 1 0-21.6 10.8 10.8 0 0 1 0 21.6" fill="#fffE8"/><path d="M-75.5-151.8a10.8 10.8 0 1 1 0-21.7 10.8 10.8 0 0 1 0 21.7" fill="#c2e1ffE9"/><path d="M260.2-96.2a10.9 10.9 0 1 1 0-21.9 10.9 10.9 0 0 1 0 21.9" fill="#005bbbEB"/><path d="M-31.9-49.8a11 11 0 1 1 0-22 11 11 0 0 1 0 22" fill="#fff500EC"/><path d="M42.6 3.7a11 11 0 1 1 0-22 11 11 0 0 1 0 22" fill="#005bbbEC"/><path d="M-42.1-79.2a11 11 0 1 1 0-22 11 11 0 0 1 0 22" fill="#fffED"/><path d="M7.4-280.6a11 11 0 1 1 0-22.1 11 11 0 0 1 0 22.1" fill="#c2e1ffEE"/><path d="M202.8-39.7a11.1 11.1 0 1 1 0-22.3 11.1 11.1 0 0 1 0 22.3" fill="#c2e1ffEF"/><path d="M107.9-0.8a11.1 11.1 0 1 1 0-22.3 11.1 11.1 0 0 1 0 22.3" fill="#fffF0"/><path d="M201.8-41.4a11.1 11.1 0 1 1 0-22.3 11.1 11.1 0 0 1 0 22.3" fill="#005bbbF0"/><path d="M-1.9-250.2a11.2 11.2 0 1 1 0-22.5 11.2 11.2 0 0 1 0 22.5" fill="#fff500F1"/><path d="M-7.6-223.9a11.3 11.3 0 1 1 0-22.7 11.3 11.3 0 0 1 0 22.7" fill="#fff500F4"/><path d="M152.6-269.1a11.3 11.3 0 1 1 0-22.6 11.3 11.3 0 0 1 0 22.6" fill="#005bbbF4"/><path d="M48-39.8a11.4 11.4 0 1 1 0-22.8 11.4 11.4 0 0 1 0 22.8" fill="#005bbbF5"/><path d="M9.4-72.4a11.4 11.4 0 1 1 0-22.8 11.4 11.4 0 0 1 0 22.8" fill="#fffF5"/><path d="M13.9-232.4a11.4 11.4 0 1 1 0-22.8 11.4 11.4 0 0 1 0 22.8" fill="#c2e1ffF6"/><path d="M20.2-203a11.6 11.6 0 1 1 0-23.2 11.6 11.6 0 0 1 0 23.2" fill="#fff500F9"/><path d="M38.5-214a11.6 11.6 0 1 1 0-23.2 11.6 11.6 0 0 1 0 23.2" fill="#fffFA"/><path d="M111-237.8a11.6 11.6 0 1 1 0-23.2 11.6 11.6 0 0 1 0 23.2" fill="#fff500FA"/><path d="M34.6-156.3a11.7 11.7 0 1 1 0-23.4 11.7 11.7 0 0 1 0 23.4" fill="#fff500FC"/><path d="M143.5-124.9a11.7 11.7 0 1 1 0-23.5 11.7 11.7 0 0 1 0 23.5" fill="#fffFD"/><path d="M78.2-168a11.8 11.8 0 1 1 0-23.5 11.8 11.8 0 0 1 0 23.5" fill="#fff500FE"/><path d="M98-158.8a11.8 11.8 0 1 1 0-23.7 11.8 11.8 0 0 1 0 23.7" fill="#005bbbFE"/></g></svg>