<svg width="1200" height="675" viewBox="-500 -500 1200 675" xmlns="http://www.w3.org/2000/svg"><path d="M-500-500h1200v675h-1200z" fill="#000"/><style>.sparkles path{stroke-linecap:round; stroke-width:1}</style><g class="sparkles"><path d="M100-162.5l-20.6 4.2" stroke="#FFFFFF32"/><path d="M100-162.5l-31.5 49.6" stroke="#FFFFFF33"/><path d="M100-162.5l-10.2-67" stroke="#6E819E34"/><path d="M100-162.5l31.3 64.5" stroke="#F6C8AC34"/><path d="M100-162.5l3.6-83.3" stroke="#2C4D5D35"/><path d="M100-162.5l81.9 33" stroke="#6E819E35"/><path d="M100-162.5l83.4-59" stroke="#F6C8AC36"/><path d="M100-162.5l71.3 73.8" stroke="#F6C8AC36"/><path d="M100-162.5l-91.6-76.8" stroke="#6E819E38"/><path d="M100-162.5l55.1-108.8" stroke="#6E819E39"/><path d="M100-162.5l-40.9 116.4" stroke="#2C4D5D39"/><path d="M100-162.5l115.8 61.9" stroke="#6E819E3A"/><path d="M100-162.5l117.2-63.8" stroke="#FFFFFF3A"/><path d="M100-162.5l14.4-133.2" stroke="#F6C8AC3A"/><path d="M100-162.5l18.2-135" stroke="#2C4D5D3B"/><path d="M100-162.5l119.1-71.3" stroke="#6E819E3B"/><path d="M100-162.5l-6.2 140.2" stroke="#F6C8AC3B"/><path d="M100-162.5l55.2-136" stroke="#EFF7F53C"/><path d="M100-162.5l-146.1-15.8" stroke="#EFF7F53C"/><path d="M100-162.5l-141-45.9" stroke="#FFFFFF3D"/><path d="M100-162.5l146.6 28.4" stroke="#2C4D5D3D"/><path d="M100-162.5l-132.6-71.5" stroke="#6E819E3D"/><path d="M100-162.5l-77.3-137.5" stroke="#FFFFFF3E"/><path d="M100-162.5l118.9 107.7" stroke="#FFFFFF3F"/><path d="M100-162.5l-39.3-156.1" stroke="#F6C8AC3F"/><path d="M100-162.5l-156 52.7" stroke="#EFF7F540"/><path d="M100-162.5l118.3-121.6" stroke="#6E819E41"/><path d="M100-162.5l87.6-146.3" stroke="#EFF7F541"/><path d="M100-162.5l151.2 81.2" stroke="#2C4D5D41"/><path d="M100-162.5l139.8-118.5" stroke="#2C4D5D44"/><path d="M100-162.5l104.2-152.7" stroke="#F6C8AC44"/><path d="M100-162.5l104.7 153.7" stroke="#EFF7F545"/><path d="M100-162.5l180.4 51" stroke="#FFFFFF45"/><path d="M100-162.5l-172.9-81.6" stroke="#EF8F8846"/><path d="M100-162.5l-19.5-193.6" stroke="#F6C8AC47"/><path d="M100-162.5l-195 0.1" stroke="#EFF7F547"/><path d="M100-162.5l-119.2-155.6" stroke="#6E819E48"/><path d="M100-162.5l-67.3 184.9" stroke="#6E819E48"/><path d="M100-162.5l-190 52.6" stroke="#F6C8AC48"/><path d="M100-162.5l128.6-150.6" stroke="#6E819E48"/><path d="M100-162.5l46.4-193.1" stroke="#6E819E48"/><path d="M100-162.5l192.2-51.2" stroke="#6E819E49"/><path d="M100-162.5l134.2-149.4" stroke="#F6C8AC49"/><path d="M100-162.5l201.1 1.7" stroke="#6E819E49"/><path d="M100-162.5l-34.5-198.5" stroke="#6E819E49"/><path d="M100-162.5l-171.7 106.4" stroke="#FFFFFF4A"/><path d="M100-162.5l-156.2 130.2" stroke="#FFFFFF4A"/><path d="M100-162.5l-129.5 157.4" stroke="#FFFFFF4A"/><path d="M100-162.5l163.9 121.5" stroke="#F6C8AC4A"/><path d="M100-162.5l85.7-185.3" stroke="#EF8F884A"/><path d="M100-162.5l204.8-4" stroke="#EFF7F54B"/><path d="M100-162.5l0.9 205" stroke="#EF8F884B"/><path d="M100-162.5l-117.1-170.5" stroke="#EFF7F54B"/><path d="M100-162.5l-66.1-200" stroke="#F6C8AC4D"/><path d="M100-162.5l-162.3-134.6" stroke="#EF8F884D"/><path d="M100-162.5l207.3 42.5" stroke="#6E819E4D"/><path d="M100-162.5l-150.2 149.2" stroke="#F6C8AC4D"/><path d="M100-162.5l-198.6-74.7" stroke="#FFFFFF4E"/><path d="M100-162.5l-138.9-166.2" stroke="#EF8F8850"/><path d="M100-162.5l188.9 107.8" stroke="#F6C8AC50"/><path d="M100-162.5l-209.9 57.7" stroke="#2C4D5D50"/><path d="M100-162.5l125.3 180.6" stroke="#FFFFFF51"/><path d="M100-162.5l199.1-93.5" stroke="#6E819E51"/><path d="M100-162.5l-43.8 216.3" stroke="#6E819E52"/><path d="M100-162.5l-54.4 214.3" stroke="#2C4D5D52"/><path d="M100-162.5l213.3 58.7" stroke="#EFF7F552"/><path d="M100-162.5l221.1-39.2" stroke="#EF8F8854"/><path d="M100-162.5l-224.8 6.1" stroke="#2C4D5D54"/><path d="M100-162.5l135.8 180.7" stroke="#EF8F8855"/><path d="M100-162.5l4.7 228.6" stroke="#6E819E57"/><path d="M100-162.5l226.4 34.6" stroke="#EF8F8857"/><path d="M100-162.5l-186.7 133.1" stroke="#6E819E57"/><path d="M100-162.5l-92.2-210.3" stroke="#FFFFFF58"/><path d="M100-162.5l38 227.5" stroke="#EF8F8859"/><path d="M100-162.5l24.9 231" stroke="#FFFFFF5A"/><path d="M100-162.5l131.5 192.2" stroke="#EF8F885B"/><path d="M100-162.5l-221-77" stroke="#2C4D5D5D"/><path d="M100-162.5l149.4 180.6" stroke="#6E819E5D"/><path d="M100-162.5l-200.2 122.3" stroke="#F6C8AC5D"/><path d="M100-162.5l-22.4-233.6" stroke="#6E819E5E"/><path d="M100-162.5l-187.7 141.3" stroke="#EF8F885E"/><path d="M100-162.5l175.2-156.6" stroke="#6E819E5E"/><path d="M100-162.5l154.6-177.4" stroke="#F6C8AC5F"/><path d="M100-162.5l-150.6 181" stroke="#EFF7F55F"/><path d="M100-162.5l-185.6 146.1" stroke="#6E819E62"/><path d="M100-162.5l-212-104.2" stroke="#FFFFFF63"/><path d="M100-162.5l202.5 121.7" stroke="#FFFFFF64"/><path d="M100-162.5l193.3-135.9" stroke="#6E819E64"/><path d="M100-162.5l185.2 146.7" stroke="#2C4D5D64"/><path d="M100-162.5l-88.5-219" stroke="#F6C8AC64"/><path d="M100-162.5l91.8 217.6" stroke="#EF8F8865"/><path d="M100-162.5l178.2 154.9" stroke="#6E819E65"/><path d="M100-162.5l141.1 189.2" stroke="#EFF7F566"/><path d="M100-162.5l143 187.4" stroke="#EFF7F567"/><path d="M100-162.5l-235.6-6.6" stroke="#FFFFFF67"/><path d="M100-162.5l12.9-234.8" stroke="#6E819E68"/><path d="M100-162.5l-232.4 35.2" stroke="#EFF7F569"/><path d="M100-162.5l134.7 192.6" stroke="#F6C8AC69"/><path d="M100-162.5l-189.1-139.3" stroke="#EFF7F569"/><path d="M100-162.5l-62.2 226.1" stroke="#2C4D5D6A"/><path d="M100-162.5l208.3-107.6" stroke="#F6C8AC6A"/><path d="M100-162.5l55.4 227.8" stroke="#EF8F886A"/><path d="M100-162.5l-28.7-232.6" stroke="#EF8F886A"/><path d="M100-162.5l-61.5 226.1" stroke="#FFFFFF6A"/><path d="M100-162.5l-186.8-141.2" stroke="#EF8F886A"/><path d="M100-162.5l-140.2-187.1" stroke="#F6C8AC6B"/><path d="M100-162.5l233.7 0" stroke="#FFFFFF6B"/><path d="M100-162.5l153.5 176.2" stroke="#6E819E6B"/><path d="M100-162.5l-110.2 204.7" stroke="#EF8F886C"/><path d="M100-162.5l-22.5-230.1" stroke="#FFFFFF6E"/><path d="M100-162.5l192.8-125.4" stroke="#EFF7F56F"/><path d="M100-162.5l228.4 22.6" stroke="#EFF7F56F"/><path d="M100-162.5l195.8-119.6" stroke="#6E819E6F"/><path d="M100-162.5l227.6 16.9" stroke="#FFFFFF70"/><path d="M100-162.5l-211.3 85.3" stroke="#FFFFFF71"/><path d="M100-162.5l143.3 177.1" stroke="#6E819E71"/><path d="M100-162.5l78.8 213.6" stroke="#6E819E71"/><path d="M100-162.5l-40.2 223.9" stroke="#F6C8AC71"/><path d="M100-162.5l28.4 225" stroke="#EFF7F572"/><path d="M100-162.5l142.9 173.2" stroke="#F6C8AC73"/><path d="M100-162.5l-223.3-21.2" stroke="#2C4D5D73"/><path d="M100-162.5l-118.4 189.2" stroke="#EFF7F574"/><path d="M100-162.5l-199.6 99.4" stroke="#EFF7F574"/><path d="M100-162.5l199.9-96.2" stroke="#6E819E75"/><path d="M100-162.5l168.5-140.5" stroke="#6E819E76"/><path d="M100-162.5l204.6 78.1" stroke="#EF8F8876"/><path d="M100-162.5l-9.2-216.8" stroke="#EFF7F577"/><path d="M100-162.5l-205.9 67.8" stroke="#F6C8AC77"/><path d="M100-162.5l184.2 113.1" stroke="#EF8F8878"/><path d="M100-162.5l-215.2-14.7" stroke="#EFF7F578"/><path d="M100-162.5l-60.6-206.4" stroke="#FFFFFF78"/><path d="M100-162.5l34.2 209" stroke="#EFF7F57A"/><path d="M100-162.5l-171.1 124.7" stroke="#EF8F887A"/><path d="M100-162.5l176.4 115.9" stroke="#FFFFFF7A"/><path d="M100-162.5l-122-171.6" stroke="#EF8F887A"/><path d="M100-162.5l32.4-201.7" stroke="#FFFFFF7D"/><path d="M100-162.5l202.3 27.7" stroke="#EFF7F57D"/><path d="M100-162.5l-52.7 195.6" stroke="#EFF7F57D"/><path d="M100-162.5l129.5 155.2" stroke="#2C4D5D7D"/><path d="M100-162.5l108.8 169.3" stroke="#2C4D5D7E"/><path d="M100-162.5l167.6-108.6" stroke="#F6C8AC7E"/><path d="M100-162.5l-51.7 191.5" stroke="#FFFFFF7F"/><path d="M100-162.5l181.8-79.2" stroke="#EF8F887F"/><path d="M100-162.5l-84.9-177.8" stroke="#EF8F887F"/><path d="M100-162.5l-193.1 6" stroke="#6E819E80"/><path d="M100-162.5l126.8-144.6" stroke="#EFF7F581"/><path d="M100-162.5l189.9-26.9" stroke="#EF8F8881"/><path d="M100-162.5l174-79" stroke="#FFFFFF81"/><path d="M100-162.5l134.6-134.8" stroke="#EFF7F581"/><path d="M100-162.5l-188.5-4.1" stroke="#2C4D5D82"/><path d="M100-162.5l-102.8-155.7" stroke="#EFF7F582"/><path d="M100-162.5l-175.2-58.1" stroke="#F6C8AC83"/><path d="M100-162.5l-129.9 129.6" stroke="#EF8F8883"/><path d="M100-162.5l-152.3-96.3" stroke="#FFFFFF84"/><path d="M100-162.5l179 5.3" stroke="#EFF7F584"/><path d="M100-162.5l-155.8 87.6" stroke="#FFFFFF84"/><path d="M100-162.5l-121.3-119.2" stroke="#EFF7F586"/><path d="M100-162.5l-8.5-167" stroke="#F6C8AC87"/><path d="M100-162.5l-163.7-12.3" stroke="#EFF7F587"/><path d="M100-162.5l-63.2 151.3" stroke="#6E819E87"/><path d="M100-162.5l-146.9 52.2" stroke="#EF8F8889"/><path d="M100-162.5l-142.4 59.8" stroke="#F6C8AC89"/><path d="M100-162.5l109.9 96" stroke="#EF8F888B"/><path d="M100-162.5l-70.9 113.9" stroke="#F6C8AC8D"/><path d="M100-162.5l-122 54.6" stroke="#2C4D5D8D"/><path d="M100-162.5l-6.2-133.1" stroke="#6E819E8D"/><path d="M100-162.5l52.8 113.2" stroke="#EF8F888E"/><path d="M100-162.5l-102.3 71.6" stroke="#2C4D5D8E"/><path d="M100-162.5l80.7 87.2" stroke="#EF8F888F"/><path d="M100-162.5l107.3-46.5" stroke="#F6C8AC8F"/><path d="M100-162.5l-76.6-83.1" stroke="#6E819E8F"/><path d="M100-162.5l-58.6-84.1" stroke="#2C4D5D91"/><path d="M100-162.5l94.4 13.2" stroke="#FFFFFF91"/><path d="M100-162.5l-65.9-11.7" stroke="#EFF7F593"/><path d="M100-162.5l-21.9-51.9" stroke="#FFFFFF94"/><path d="M100-162.5l23.2-47.1" stroke="#2C4D5D94"/><path d="M100-162.5l-36.2 37.4" stroke="#2C4D5D94"/><path d="M100-162.5l38.4 31.5" stroke="#FFFFFF94"/><path d="M100-162.5l2.2 40.8" stroke="#2C4D5D95"/><path d="M100-162.5l-30.3 23.9" stroke="#EF8F8895"/><path d="M100-162.5l-17.3-30.3" stroke="#F6C8AC95"/></g><g class="sparcs"><path d="M79.4-152.4a5.9 5.9 0 1 1 0-11.8 5.9 5.9 0 0 1 0 11.8" fill="#FFFFFF7D"/><path d="M68.5-106.9a6 6 0 1 1 0-12 6 6 0 0 1 0 12" fill="#F6C8AC7F"/><path d="M89.8-223.5a6 6 0 1 1 0-12 6 6 0 0 1 0 12" fill="#FFFFFF7F"/><path d="M131.3-92a6 6 0 1 1 0-12.1 6 6 0 0 1 0 12.1" fill="#2C4D5D80"/><path d="M103.6-239.7a6.1 6.1 0 1 1 0-12.2 6.1 6.1 0 0 1 0 12.2" fill="#F6C8AC81"/><path d="M181.9-123.3a6.1 6.1 0 1 1 0-12.3 6.1 6.1 0 0 1 0 12.3" fill="#EF8F8881"/><path d="M183.4-215.4a6.2 6.2 0 1 1 0-12.3 6.2 6.2 0 0 1 0 12.3" fill="#FFFFFF83"/><path d="M171.3-82.5a6.2 6.2 0 1 1 0-12.4 6.2 6.2 0 0 1 0 12.4" fill="#F6C8AC83"/><path d="M8.4-233a6.3 6.3 0 1 1 0-12.6 6.3 6.3 0 0 1 0 12.6" fill="#FFFFFF85"/><path d="M155.1-264.9a6.3 6.3 0 1 1 0-12.7 6.3 6.3 0 0 1 0 12.7" fill="#FFFFFF86"/><path d="M59.1-39.7a6.3 6.3 0 1 1 0-12.7 6.3 6.3 0 0 1 0 12.7" fill="#EFF7F586"/><path d="M215.8-94.1a6.4 6.4 0 1 1 0-12.9 6.4 6.4 0 0 1 0 12.9" fill="#FFFFFF87"/><path d="M217.2-219.9a6.4 6.4 0 1 1 0-12.8 6.4 6.4 0 0 1 0 12.8" fill="#2C4D5D88"/><path d="M114.4-289.3a6.4 6.4 0 1 1 0-12.8 6.4 6.4 0 0 1 0 12.8" fill="#F6C8AC88"/><path d="M118.2-291.1a6.4 6.4 0 1 1 0-12.9 6.4 6.4 0 0 1 0 12.9" fill="#FFFFFF88"/><path d="M219.1-227.3a6.5 6.5 0 1 1 0-13 6.5 6.5 0 0 1 0 13" fill="#6E819E89"/><path d="M93.8-15.9a6.5 6.5 0 1 1 0-12.9 6.5 6.5 0 0 1 0 12.9" fill="#F6C8AC89"/><path d="M155.2-291.9a6.5 6.5 0 1 1 0-13.1 6.5 6.5 0 0 1 0 13.1" fill="#F6C8AC8B"/><path d="M-46.1-171.7a6.5 6.5 0 1 1 0-13.1 6.5 6.5 0 0 1 0 13.1" fill="#EFF7F58B"/><path d="M-41-201.9a6.6 6.6 0 1 1 0-13.1 6.6 6.6 0 0 1 0 13.1" fill="#EFF7F58B"/><path d="M246.6-127.5a6.6 6.6 0 1 1 0-13.2 6.6 6.6 0 0 1 0 13.2" fill="#FFFFFF8B"/><path d="M-32.6-227.4a6.6 6.6 0 1 1 0-13.2 6.6 6.6 0 0 1 0 13.2" fill="#EF8F888B"/><path d="M22.7-293.3a6.7 6.7 0 1 1 0-13.3 6.7 6.7 0 0 1 0 13.3" fill="#6E819E8D"/><path d="M218.9-48.1a6.7 6.7 0 1 1 0-13.3 6.7 6.7 0 0 1 0 13.3" fill="#EFF7F58E"/><path d="M60.7-311.9a6.7 6.7 0 1 1 0-13.4 6.7 6.7 0 0 1 0 13.4" fill="#F6C8AC8E"/><path d="M-56-103a6.7 6.7 0 1 1 0-13.5 6.7 6.7 0 0 1 0 13.5" fill="#2C4D5D8F"/><path d="M218.3-277.3a6.8 6.8 0 1 1 0-13.6 6.8 6.8 0 0 1 0 13.6" fill="#F6C8AC90"/><path d="M187.6-301.9a6.8 6.8 0 1 1 0-13.7 6.8 6.8 0 0 1 0 13.7" fill="#EF8F8890"/><path d="M251.2-74.5a6.8 6.8 0 1 1 0-13.6 6.8 6.8 0 0 1 0 13.6" fill="#EF8F8891"/><path d="M239.8-274a7 7 0 1 1 0-14 7 7 0 0 1 0 14" fill="#6E819E94"/><path d="M204.2-308.2a7 7 0 1 1 0-14 7 7 0 0 1 0 14" fill="#FFFFFF95"/><path d="M204.7-1.7a7 7 0 1 1 0-14.1 7 7 0 0 1 0 14.1" fill="#2C4D5D95"/><path d="M280.4-104.5a7.1 7.1 0 1 1 0-14.1 7.1 7.1 0 0 1 0 14.1" fill="#EFF7F596"/><path d="M-72.9-236.9a7.1 7.1 0 1 1 0-14.3 7.1 7.1 0 0 1 0 14.3" fill="#FFFFFF97"/><path d="M80.5-348.9a7.2 7.2 0 1 1 0-14.3 7.2 7.2 0 0 1 0 14.3" fill="#FFFFFF99"/><path d="M-95-155.2a7.2 7.2 0 1 1 0-14.4 7.2 7.2 0 0 1 0 14.4" fill="#EF8F8899"/><path d="M-19.2-310.9a7.2 7.2 0 1 1 0-14.4 7.2 7.2 0 0 1 0 14.4" fill="#EFF7F599"/><path d="M32.7 29.6a7.2 7.2 0 1 1 0-14.4 7.2 7.2 0 0 1 0 14.4" fill="#EFF7F59A"/><path d="M-90-102.7a7.2 7.2 0 1 1 0-14.4 7.2 7.2 0 0 1 0 14.4" fill="#EF8F889A"/><path d="M228.6-305.8a7.2 7.2 0 1 1 0-14.5 7.2 7.2 0 0 1 0 14.5" fill="#6E819E9A"/><path d="M146.4-348.3a7.3 7.3 0 1 1 0-14.5 7.3 7.3 0 0 1 0 14.5" fill="#2C4D5D9A"/><path d="M292.2-206.5a7.3 7.3 0 1 1 0-14.5 7.3 7.3 0 0 1 0 14.5" fill="#6E819E9A"/><path d="M234.2-304.6a7.3 7.3 0 1 1 0-14.6 7.3 7.3 0 0 1 0 14.6" fill="#EF8F889B"/><path d="M301.1-153.5a7.3 7.3 0 1 1 0-14.6 7.3 7.3 0 0 1 0 14.6" fill="#F6C8AC9B"/><path d="M65.5-353.7a7.3 7.3 0 1 1 0-14.6 7.3 7.3 0 0 1 0 14.6" fill="#F6C8AC9C"/><path d="M-71.7-48.8a7.3 7.3 0 1 1 0-14.6 7.3 7.3 0 0 1 0 14.6" fill="#2C4D5D9C"/><path d="M-56.2-24.9a7.4 7.4 0 1 1 0-14.7 7.4 7.4 0 0 1 0 14.7" fill="#EF8F889C"/><path d="M-29.5 2.3a7.4 7.4 0 1 1 0-14.7 7.4 7.4 0 0 1 0 14.7" fill="#EF8F889D"/><path d="M263.9-33.6a7.4 7.4 0 1 1 0-14.7 7.4 7.4 0 0 1 0 14.7" fill="#6E819E9D"/><path d="M185.7-340.4a7.4 7.4 0 1 1 0-14.8 7.4 7.4 0 0 1 0 14.8" fill="#6E819E9D"/><path d="M304.8-159.2a7.4 7.4 0 1 1 0-14.7 7.4 7.4 0 0 1 0 14.7" fill="#FFFFFF9D"/><path d="M100.9 49.9a7.4 7.4 0 1 1 0-14.8 7.4 7.4 0 0 1 0 14.8" fill="#6E819E9D"/><path d="M-17.1-325.6a7.4 7.4 0 1 1 0-14.8 7.4 7.4 0 0 1 0 14.8" fill="#EFF7F59E"/><path d="M33.9-354.9a7.5 7.5 0 1 1 0-15.1 7.5 7.5 0 0 1 0 15.1" fill="#F6C8ACA0"/><path d="M-62.3-289.5a7.5 7.5 0 1 1 0-15.1 7.5 7.5 0 0 1 0 15.1" fill="#EFF7F5A0"/><path d="M307.3-112.5a7.5 7.5 0 1 1 0-15.1 7.5 7.5 0 0 1 0 15.1" fill="#F6C8ACA1"/><path d="M-50.2-5.8a7.5 7.5 0 1 1 0-15.1 7.5 7.5 0 0 1 0 15.1" fill="#EF8F88A1"/><path d="M-98.6-229.7a7.6 7.6 0 1 1 0-15.1 7.6 7.6 0 0 1 0 15.1" fill="#F6C8ACA1"/><path d="M-38.9-321a7.7 7.7 0 1 1 0-15.4 7.7 7.7 0 0 1 0 15.4" fill="#EFF7F5A4"/><path d="M288.9-47a7.7 7.7 0 1 1 0-15.4 7.7 7.7 0 0 1 0 15.4" fill="#2C4D5DA4"/><path d="M-109.9-97.1a7.7 7.7 0 1 1 0-15.5 7.7 7.7 0 0 1 0 15.5" fill="#F6C8ACA4"/><path d="M225.3 25.9a7.8 7.8 0 1 1 0-15.5 7.8 7.8 0 0 1 0 15.5" fill="#FFFFFFA6"/><path d="M299.1-248.2a7.8 7.8 0 1 1 0-15.6 7.8 7.8 0 0 1 0 15.6" fill="#6E819EA6"/><path d="M56.2 61.6a7.8 7.8 0 1 1 0-15.6 7.8 7.8 0 0 1 0 15.6" fill="#6E819EA6"/><path d="M45.6 59.6a7.8 7.8 0 1 1 0-15.7 7.8 7.8 0 0 1 0 15.7" fill="#F6C8ACA7"/><path d="M313.3-96a7.8 7.8 0 1 1 0-15.7 7.8 7.8 0 0 1 0 15.7" fill="#EF8F88A7"/><path d="M321.1-193.7a7.9 7.9 0 1 1 0-15.9 7.9 7.9 0 0 1 0 15.9" fill="#6E819EA9"/><path d="M-124.8-148.5a8 8 0 1 1 0-15.9 8 8 0 0 1 0 15.9" fill="#2C4D5DAA"/><path d="M235.8 26.2a8 8 0 1 1 0-16 8 8 0 0 1 0 16" fill="#2C4D5DAB"/><path d="M104.7 74.3a8.1 8.1 0 1 1 0-16.3 8.1 8.1 0 0 1 0 16.3" fill="#EF8F88AD"/><path d="M326.4-119.8a8.1 8.1 0 1 1 0-16.3 8.1 8.1 0 0 1 0 16.3" fill="#EFF7F5AE"/><path d="M-86.7-21.2a8.1 8.1 0 1 1 0-16.3 8.1 8.1 0 0 1 0 16.3" fill="#2C4D5DAE"/><path d="M7.8-364.6a8.2 8.2 0 1 1 0-16.3 8.2 8.2 0 0 1 0 16.3" fill="#FFFFFFAE"/><path d="M138 73.2a8.2 8.2 0 1 1 0-16.4 8.2 8.2 0 0 1 0 16.4" fill="#2C4D5DAF"/><path d="M124.9 76.8a8.3 8.3 0 1 1 0-16.6 8.3 8.3 0 0 1 0 16.6" fill="#EF8F88B2"/><path d="M231.5 38.1a8.4 8.4 0 1 1 0-16.7 8.4 8.4 0 0 1 0 16.7" fill="#EFF7F5B3"/><path d="M-121-231.1a8.5 8.5 0 1 1 0-16.9 8.5 8.5 0 0 1 0 16.9" fill="#F6C8ACB5"/><path d="M249.4 26.6a8.5 8.5 0 1 1 0-17 8.5 8.5 0 0 1 0 17" fill="#FFFFFFB5"/><path d="M-100.2-31.7a8.5 8.5 0 1 1 0-17 8.5 8.5 0 0 1 0 17" fill="#F6C8ACB6"/><path d="M77.6-387.6a8.5 8.5 0 1 1 0-17 8.5 8.5 0 0 1 0 17" fill="#6E819EB6"/><path d="M-87.7-12.6a8.5 8.5 0 1 1 0-17.1 8.5 8.5 0 0 1 0 17.1" fill="#2C4D5DB7"/><path d="M275.2-310.5a8.6 8.6 0 1 1 0-17.1 8.6 8.6 0 0 1 0 17.1" fill="#F6C8ACB7"/><path d="M254.6-331.3a8.6 8.6 0 1 1 0-17.2 8.6 8.6 0 0 1 0 17.2" fill="#EF8F88B8"/><path d="M-50.6 27.2a8.6 8.6 0 1 1 0-17.3 8.6 8.6 0 0 1 0 17.3" fill="#2C4D5DB8"/><path d="M-85.6-7.7a8.8 8.8 0 1 1 0-17.5 8.8 8.8 0 0 1 0 17.5" fill="#2C4D5DBC"/><path d="M-112-257.8a8.8 8.8 0 1 1 0-17.7 8.8 8.8 0 0 1 0 17.7" fill="#6E819EBD"/><path d="M302.5-32a8.9 8.9 0 1 1 0-17.7 8.9 8.9 0 0 1 0 17.7" fill="#F6C8ACBE"/><path d="M293.3-289.5a8.9 8.9 0 1 1 0-17.8 8.9 8.9 0 0 1 0 17.8" fill="#EFF7F5BE"/><path d="M285.2-6.9a8.9 8.9 0 1 1 0-17.8 8.9 8.9 0 0 1 0 17.8" fill="#F6C8ACBF"/><path d="M11.5-372.6a8.9 8.9 0 1 1 0-17.8 8.9 8.9 0 0 1 0 17.8" fill="#2C4D5DBF"/><path d="M191.8 64a8.9 8.9 0 1 1 0-17.8 8.9 8.9 0 0 1 0 17.8" fill="#FFFFFFBF"/><path d="M278.2 1.4a9 9 0 1 1 0-17.9 9 9 0 0 1 0 17.9" fill="#F6C8ACC0"/><path d="M241.1 35.7a9 9 0 1 1 0-17.9 9 9 0 0 1 0 17.9" fill="#FFFFFFC0"/><path d="M243 33.9a9.1 9.1 0 1 1 0-18.1 9.1 9.1 0 0 1 0 18.1" fill="#EFF7F5C2"/><path d="M-135.6-160.1a9.1 9.1 0 1 1 0-18.1 9.1 9.1 0 0 1 0 18.1" fill="#F6C8ACC2"/><path d="M112.9-388.1a9.1 9.1 0 1 1 0-18.3 9.1 9.1 0 0 1 0 18.3" fill="#FFFFFFC4"/><path d="M-132.4-118.1a9.2 9.2 0 1 1 0-18.4 9.2 9.2 0 0 1 0 18.4" fill="#2C4D5DC4"/><path d="M234.7 39.2a9.2 9.2 0 1 1 0-18.3 9.2 9.2 0 0 1 0 18.3" fill="#EF8F88C4"/><path d="M-89.1-292.6a9.2 9.2 0 1 1 0-18.4 9.2 9.2 0 0 1 0 18.4" fill="#F6C8ACC4"/><path d="M37.8 72.8a9.2 9.2 0 1 1 0-18.4 9.2 9.2 0 0 1 0 18.4" fill="#EFF7F5C5"/><path d="M308.3-260.9a9.2 9.2 0 1 1 0-18.5 9.2 9.2 0 0 1 0 18.5" fill="#F6C8ACC6"/><path d="M155.4 74.5a9.2 9.2 0 1 1 0-18.4 9.2 9.2 0 0 1 0 18.4" fill="#F6C8ACC6"/><path d="M71.3-385.8a9.2 9.2 0 1 1 0-18.5 9.2 9.2 0 0 1 0 18.5" fill="#FFFFFFC6"/><path d="M38.5 72.8a9.2 9.2 0 1 1 0-18.5 9.2 9.2 0 0 1 0 18.5" fill="#6E819EC6"/><path d="M-86.8-294.5a9.3 9.3 0 1 1 0-18.5 9.3 9.3 0 0 1 0 18.5" fill="#F6C8ACC6"/><path d="M-40.2-340.3a9.3 9.3 0 1 1 0-18.6 9.3 9.3 0 0 1 0 18.6" fill="#2C4D5DC7"/><path d="M333.7-153.2a9.3 9.3 0 1 1 0-18.6 9.3 9.3 0 0 1 0 18.6" fill="#F6C8ACC7"/><path d="M253.5 23a9.3 9.3 0 1 1 0-18.6 9.3 9.3 0 0 1 0 18.6" fill="#EF8F88C7"/><path d="M-10.2 51.5a9.4 9.4 0 1 1 0-18.7 9.4 9.4 0 0 1 0 18.7" fill="#2C4D5DC9"/><path d="M77.5-383.1a9.5 9.5 0 1 1 0-18.9 9.5 9.5 0 0 1 0 18.9" fill="#F6C8ACCB"/><path d="M292.8-278.4a9.5 9.5 0 1 1 0-19.1 9.5 9.5 0 0 1 0 19.1" fill="#EFF7F5CC"/><path d="M328.4-130.3a9.6 9.6 0 1 1 0-19.1 9.6 9.6 0 0 1 0 19.1" fill="#EF8F88CD"/><path d="M295.8-272.5a9.6 9.6 0 1 1 0-19.2 9.6 9.6 0 0 1 0 19.2" fill="#2C4D5DCD"/><path d="M327.6-136a9.6 9.6 0 1 1 0-19.3 9.6 9.6 0 0 1 0 19.3" fill="#EFF7F5CE"/><path d="M-111.3-67.6a9.6 9.6 0 1 1 0-19.3 9.6 9.6 0 0 1 0 19.3" fill="#EF8F88CF"/><path d="M243.3 24.3a9.6 9.6 0 1 1 0-19.3 9.6 9.6 0 0 1 0 19.3" fill="#FFFFFFCF"/><path d="M178.8 60.8a9.6 9.6 0 1 1 0-19.3 9.6 9.6 0 0 1 0 19.3" fill="#F6C8ACCF"/><path d="M59.8 71.1a9.7 9.7 0 1 1 0-19.3 9.7 9.7 0 0 1 0 19.3" fill="#F6C8ACCF"/><path d="M128.4 72.2a9.7 9.7 0 1 1 0-19.4 9.7 9.7 0 0 1 0 19.4" fill="#EF8F88D0"/><path d="M242.9 20.4a9.8 9.8 0 1 1 0-19.5 9.8 9.8 0 0 1 0 19.5" fill="#FFFFFFD2"/><path d="M-123.3-173.9a9.8 9.8 0 1 1 0-19.5 9.8 9.8 0 0 1 0 19.5" fill="#2C4D5DD2"/><path d="M-18.4 36.5a9.8 9.8 0 1 1 0-19.7 9.8 9.8 0 0 1 0 19.7" fill="#EF8F88D3"/><path d="M-99.6-53.3a9.8 9.8 0 1 1 0-19.7 9.8 9.8 0 0 1 0 19.7" fill="#FFFFFFD3"/><path d="M299.9-248.8a9.9 9.9 0 1 1 0-19.7 9.9 9.9 0 0 1 0 19.7" fill="#6E819ED4"/><path d="M268.5-293.1a10 10 0 1 1 0-19.9 10 10 0 0 1 0 19.9" fill="#EF8F88D6"/><path d="M304.6-74.4a10 10 0 1 1 0-20 10 10 0 0 1 0 20" fill="#F6C8ACD6"/><path d="M90.8-369.2a10 10 0 1 1 0-20.1 10 10 0 0 1 0 20.1" fill="#6E819ED7"/><path d="M-105.9-84.7a10 10 0 1 1 0-20 10 10 0 0 1 0 20" fill="#F6C8ACD7"/><path d="M284.2-39.4a10.1 10.1 0 1 1 0-20.1 10.1 10.1 0 0 1 0 20.1" fill="#EF8F88D8"/><path d="M-115.2-167.1a10.1 10.1 0 1 1 0-20.1 10.1 10.1 0 0 1 0 20.1" fill="#F6C8ACD8"/><path d="M39.4-358.8a10.1 10.1 0 1 1 0-20.2 10.1 10.1 0 0 1 0 20.2" fill="#6E819ED8"/><path d="M134.2 56.7a10.2 10.2 0 1 1 0-20.4 10.2 10.2 0 0 1 0 20.4" fill="#2C4D5DDA"/><path d="M-71.1-27.7a10.2 10.2 0 1 1 0-20.3 10.2 10.2 0 0 1 0 20.3" fill="#F6C8ACDA"/><path d="M276.4-36.4a10.2 10.2 0 1 1 0-20.3 10.2 10.2 0 0 1 0 20.3" fill="#EFF7F5DB"/><path d="M-22-323.9a10.2 10.2 0 1 1 0-20.4 10.2 10.2 0 0 1 0 20.4" fill="#FFFFFFDB"/><path d="M132.4-353.8a10.3 10.3 0 1 1 0-20.7 10.3 10.3 0 0 1 0 20.7" fill="#EFF7F5DE"/><path d="M302.3-124.5a10.3 10.3 0 1 1 0-20.7 10.3 10.3 0 0 1 0 20.7" fill="#EF8F88DE"/><path d="M47.3 43.5a10.4 10.4 0 1 1 0-20.7 10.4 10.4 0 0 1 0 20.7" fill="#EF8F88DF"/><path d="M229.5 3.1a10.4 10.4 0 1 1 0-20.8 10.4 10.4 0 0 1 0 20.8" fill="#FFFFFFDF"/><path d="M208.8 17.2a10.4 10.4 0 1 1 0-20.8 10.4 10.4 0 0 1 0 20.8" fill="#EFF7F5E0"/><path d="M267.6-260.7a10.4 10.4 0 1 1 0-20.9 10.4 10.4 0 0 1 0 20.9" fill="#FFFFFFE0"/><path d="M48.3 39.5a10.5 10.5 0 1 1 0-21 10.5 10.5 0 0 1 0 21" fill="#F6C8ACE1"/><path d="M281.8-231.3a10.5 10.5 0 1 1 0-20.9 10.5 10.5 0 0 1 0 20.9" fill="#FFFFFFE1"/><path d="M15.1-329.8a10.5 10.5 0 1 1 0-21 10.5 10.5 0 0 1 0 21" fill="#F6C8ACE1"/><path d="M-93.1-146a10.6 10.6 0 1 1 0-21.1 10.6 10.6 0 0 1 0 21.1" fill="#6E819EE3"/><path d="M226.8-296.6a10.6 10.6 0 1 1 0-21.1 10.6 10.6 0 0 1 0 21.1" fill="#EFF7F5E3"/><path d="M289.9-178.8a10.6 10.6 0 1 1 0-21.2 10.6 10.6 0 0 1 0 21.2" fill="#6E819EE3"/><path d="M274-230.9a10.6 10.6 0 1 1 0-21.2 10.6 10.6 0 0 1 0 21.2" fill="#EF8F88E4"/><path d="M234.6-286.7a10.6 10.6 0 1 1 0-21.2 10.6 10.6 0 0 1 0 21.2" fill="#EF8F88E4"/><path d="M-88.5-156a10.6 10.6 0 1 1 0-21.3 10.6 10.6 0 0 1 0 21.3" fill="#EF8F88E5"/><path d="M-2.8-307.6a10.7 10.7 0 1 1 0-21.3 10.7 10.7 0 0 1 0 21.3" fill="#EF8F88E5"/><path d="M-75.2-209.9a10.7 10.7 0 1 1 0-21.4 10.7 10.7 0 0 1 0 21.4" fill="#EFF7F5E6"/><path d="M-29.9-22.1a10.7 10.7 0 1 1 0-21.5 10.7 10.7 0 0 1 0 21.5" fill="#EFF7F5E6"/><path d="M-52.3-248a10.8 10.8 0 1 1 0-21.6 10.8 10.8 0 0 1 0 21.6" fill="#FFFFFFE8"/><path d="M279-146.4a10.8 10.8 0 1 1 0-21.6 10.8 10.8 0 0 1 0 21.6" fill="#EF8F88E8"/><path d="M-55.8-64.1a10.8 10.8 0 1 1 0-21.5 10.8 10.8 0 0 1 0 21.5" fill="#FFFFFFE8"/><path d="M-21.3-270.8a10.9 10.9 0 1 1 0-21.8 10.9 10.9 0 0 1 0 21.8" fill="#6E819EEB"/><path d="M91.5-318.5a10.9 10.9 0 1 1 0-21.9 10.9 10.9 0 0 1 0 21.9" fill="#EF8F88EB"/><path d="M-63.7-163.8a11 11 0 1 1 0-22 11 11 0 0 1 0 22" fill="#EF8F88EC"/><path d="M36.8-0.2a11 11 0 1 1 0-22 11 11 0 0 1 0 22" fill="#FFFFFFEC"/><path d="M-46.9-99.2a11.1 11.1 0 1 1 0-22.2 11.1 11.1 0 0 1 0 22.2" fill="#EF8F88EE"/><path d="M-42.4-91.6a11.1 11.1 0 1 1 0-22.2 11.1 11.1 0 0 1 0 22.2" fill="#F6C8ACEF"/><path d="M209.9-55.3a11.2 11.2 0 1 1 0-22.3 11.2 11.2 0 0 1 0 22.3" fill="#2C4D5DF1"/><path d="M29.1-37.3a11.3 11.3 0 1 1 0-22.6 11.3 11.3 0 0 1 0 22.6" fill="#F6C8ACF3"/><path d="M-22-96.6a11.3 11.3 0 1 1 0-22.6 11.3 11.3 0 0 1 0 22.6" fill="#2C4D5DF3"/><path d="M93.8-284.3a11.3 11.3 0 1 1 0-22.6 11.3 11.3 0 0 1 0 22.6" fill="#EF8F88F3"/><path d="M152.8-37.9a11.4 11.4 0 1 1 0-22.7 11.4 11.4 0 0 1 0 22.7" fill="#FFFFFFF5"/><path d="M-2.3-79.5a11.4 11.4 0 1 1 0-22.8 11.4 11.4 0 0 1 0 22.8" fill="#F6C8ACF5"/><path d="M180.7-63.9a11.4 11.4 0 1 1 0-22.8 11.4 11.4 0 0 1 0 22.8" fill="#FFFFFFF6"/><path d="M207.3-197.6a11.4 11.4 0 1 1 0-22.9 11.4 11.4 0 0 1 0 22.9" fill="#EFF7F5F6"/><path d="M23.4-234.1a11.5 11.5 0 1 1 0-22.9 11.5 11.5 0 0 1 0 22.9" fill="#F6C8ACF7"/><path d="M41.4-235.1a11.5 11.5 0 1 1 0-23 11.5 11.5 0 0 1 0 23" fill="#EFF7F5F8"/><path d="M194.4-137.8a11.6 11.6 0 1 1 0-23.1 11.6 11.6 0 0 1 0 23.1" fill="#FFFFFFF9"/><path d="M34.1-162.5a11.7 11.7 0 1 1 0-23.4 11.7 11.7 0 0 1 0 23.4" fill="#FFFFFFFC"/><path d="M78.1-202.6a11.7 11.7 0 1 1 0-23.5 11.7 11.7 0 0 1 0 23.5" fill="#2C4D5DFD"/><path d="M123.2-197.9a11.7 11.7 0 1 1 0-23.4 11.7 11.7 0 0 1 0 23.4" fill="#2C4D5DFD"/><path d="M63.8-113.4a11.7 11.7 0 1 1 0-23.5 11.7 11.7 0 0 1 0 23.5" fill="#EFF7F5FD"/><path d="M138.4-119.3a11.7 11.7 0 1 1 0-23.4 11.7 11.7 0 0 1 0 23.4" fill="#EF8F88FD"/><path d="M102.2-110a11.8 11.8 0 1 1 0-23.5 11.8 11.8 0 0 1 0 23.5" fill="#EFF7F5FE"/><path d="M69.7-126.8a11.8 11.8 0 1 1 0-23.6 11.8 11.8 0 0 1 0 23.6" fill="#EF8F88FE"/><path d="M82.7-181a11.8 11.8 0 1 1 0-23.6 11.8 11.8 0 0 1 0 23.6" fill="#6E819EFE"/></g></svg>