<svg width="1200" height="675" viewBox="-500 -500 1200 675" xmlns="http://www.w3.org/2000/svg"><path d="M-500-500h1200v675h-1200z" fill="#000"/><style>.sparkles path{stroke-linecap:round; stroke-width:1}</style><g class="sparkles"><path d="M100-162.5l3.1-10.7" stroke="#005bbb32"/><path d="M100-162.5l15.4-12.4" stroke="#c2e1ff32"/><path d="M100-162.5l31.7-30.1" stroke="#fff50032"/><path d="M100-162.5l-18.6 54.2" stroke="#c2e1ff33"/><path d="M100-162.5l3 69.6" stroke="#c2e1ff34"/><path d="M100-162.5l48.7 71.4" stroke="#005bbb35"/><path d="M100-162.5l-77.9 38.6" stroke="#fff50035"/><path d="M100-162.5l-66.9-61.9" stroke="#fff50035"/><path d="M100-162.5l95.4-31.3" stroke="#c2e1ff36"/><path d="M100-162.5l44.4 96.2" stroke="#c2e1ff37"/><path d="M100-162.5l-87.6 66.7" stroke="#c2e1ff37"/><path d="M100-162.5l-117.3-27.3" stroke="#fff38"/><path d="M100-162.5l-37.8-114.6" stroke="#c2e1ff39"/><path d="M100-162.5l117.1 35.6" stroke="#c2e1ff39"/><path d="M100-162.5l128-7.7" stroke="#fff5003A"/><path d="M100-162.5l33.9-124.2" stroke="#fff5003A"/><path d="M100-162.5l-41.4-123.2" stroke="#c2e1ff3A"/><path d="M100-162.5l-136.1 5.5" stroke="#fff5003B"/><path d="M100-162.5l-82 109.7" stroke="#fff5003B"/><path d="M100-162.5l3.2 138" stroke="#fff3B"/><path d="M100-162.5l-133.6-39.5" stroke="#c2e1ff3B"/><path d="M100-162.5l-133.8 45.9" stroke="#fff5003B"/><path d="M100-162.5l145.6 7.5" stroke="#005bbb3C"/><path d="M100-162.5l122.9 90.3" stroke="#fff3D"/><path d="M100-162.5l79.5 133.1" stroke="#fff3E"/><path d="M100-162.5l128.5-88.1" stroke="#c2e1ff3E"/><path d="M100-162.5l94.6-127" stroke="#fff3E"/><path d="M100-162.5l-144 86.8" stroke="#fff40"/><path d="M100-162.5l159.5-54.7" stroke="#fff40"/><path d="M100-162.5l-61.1-158.8" stroke="#c2e1ff41"/><path d="M100-162.5l170.2-7.5" stroke="#005bbb41"/><path d="M100-162.5l-34.7-167.2" stroke="#fff41"/><path d="M100-162.5l172.3-11.4" stroke="#005bbb41"/><path d="M100-162.5l-160.7-69.8" stroke="#fff42"/><path d="M100-162.5l-82.3-156.1" stroke="#005bbb42"/><path d="M100-162.5l10.7 178.6" stroke="#c2e1ff43"/><path d="M100-162.5l169.2 71.9" stroke="#005bbb44"/><path d="M100-162.5l-61.1-175.8" stroke="#005bbb45"/><path d="M100-162.5l70.2 172.9" stroke="#005bbb45"/><path d="M100-162.5l142.5-123.4" stroke="#005bbb45"/><path d="M100-162.5l-47.1-182.6" stroke="#fff45"/><path d="M100-162.5l-168 95.5" stroke="#c2e1ff47"/><path d="M100-162.5l-132.8-140.6" stroke="#c2e1ff47"/><path d="M100-162.5l-99.2-167.1" stroke="#fff47"/><path d="M100-162.5l78-181.4" stroke="#fff50048"/><path d="M100-162.5l6.4 199.7" stroke="#fff50049"/><path d="M100-162.5l-179.8 91" stroke="#fff49"/><path d="M100-162.5l-169.3-110" stroke="#c2e1ff4A"/><path d="M100-162.5l119.6-163" stroke="#c2e1ff4A"/><path d="M100-162.5l184.7-89.4" stroke="#fff5004B"/><path d="M100-162.5l-171 122" stroke="#fff4D"/><path d="M100-162.5l-194.4-84.2" stroke="#005bbb4D"/><path d="M100-162.5l212 19" stroke="#005bbb4E"/><path d="M100-162.5l205.3-58.1" stroke="#c2e1ff4E"/><path d="M100-162.5l154.1-149.1" stroke="#fff4E"/><path d="M100-162.5l-19.4-214.8" stroke="#fff5004F"/><path d="M100-162.5l-152.9 153" stroke="#005bbb4F"/><path d="M100-162.5l-25.4 214.9" stroke="#005bbb4F"/><path d="M100-162.5l141.5 164.4" stroke="#fff50"/><path d="M100-162.5l-206.5-66.7" stroke="#c2e1ff50"/><path d="M100-162.5l52.5 211.5" stroke="#fff50"/><path d="M100-162.5l-59 209.8" stroke="#c2e1ff50"/><path d="M100-162.5l216.6 24.9" stroke="#fff50"/><path d="M100-162.5l-139.4 169.3" stroke="#c2e1ff51"/><path d="M100-162.5l177.2 130" stroke="#005bbb51"/><path d="M100-162.5l204.7 84.7" stroke="#c2e1ff52"/><path d="M100-162.5l223.6-14.9" stroke="#fff50054"/><path d="M100-162.5l-224.4 38.9" stroke="#005bbb56"/><path d="M100-162.5l-18.6 228.1" stroke="#c2e1ff57"/><path d="M100-162.5l-202.3 111.2" stroke="#fff59"/><path d="M100-162.5l-231.4 7.5" stroke="#c2e1ff5A"/><path d="M100-162.5l-231.7-11.8" stroke="#fff5005A"/><path d="M100-162.5l-97.1 211" stroke="#c2e1ff5A"/><path d="M100-162.5l230.3 31.5" stroke="#fff5005B"/><path d="M100-162.5l185 140.8" stroke="#fff5B"/><path d="M100-162.5l-232.7 0.3" stroke="#005bbb5B"/><path d="M100-162.5l225.4-58.8" stroke="#c2e1ff5B"/><path d="M100-162.5l-50.9 227.7" stroke="#005bbb5C"/><path d="M100-162.5l-233.1 10.8" stroke="#fff5005C"/><path d="M100-162.5l134.1 191" stroke="#fff5C"/><path d="M100-162.5l179.4-149.8" stroke="#fff5005C"/><path d="M100-162.5l122.8-199.4" stroke="#c2e1ff5D"/><path d="M100-162.5l44.4 230.2" stroke="#c2e1ff5D"/><path d="M100-162.5l-202.6-119.8" stroke="#fff5F"/><path d="M100-162.5l175.3-157.3" stroke="#fff60"/><path d="M100-162.5l-224.6 71.3" stroke="#c2e1ff60"/><path d="M100-162.5l46.7 231.1" stroke="#c2e1ff60"/><path d="M100-162.5l-133.1-194.6" stroke="#fff60"/><path d="M100-162.5l169.9-163.6" stroke="#c2e1ff61"/><path d="M100-162.5l-161.2 172.2" stroke="#c2e1ff61"/><path d="M100-162.5l-125.4 199.9" stroke="#005bbb61"/><path d="M100-162.5l41.3-232.6" stroke="#c2e1ff63"/><path d="M100-162.5l-109.4-209.4" stroke="#fff50064"/><path d="M100-162.5l-228.8 58.7" stroke="#fff50064"/><path d="M100-162.5l-91.8 217.6" stroke="#fff50065"/><path d="M100-162.5l-24.1-234.9" stroke="#005bbb65"/><path d="M100-162.5l-235.7-14.3" stroke="#005bbb65"/><path d="M100-162.5l-58.7 228.4" stroke="#c2e1ff66"/><path d="M100-162.5l-168.5-165" stroke="#fff50066"/><path d="M100-162.5l-31.1 233.7" stroke="#c2e1ff67"/><path d="M100-162.5l33.2-233.4" stroke="#005bbb67"/><path d="M100-162.5l128.6 197.6" stroke="#fff67"/><path d="M100-162.5l-172.3-160.7" stroke="#fff67"/><path d="M100-162.5l95.8 214.4" stroke="#c2e1ff69"/><path d="M100-162.5l127.4 197.2" stroke="#fff50069"/><path d="M100-162.5l-38.1-231.5" stroke="#fff50069"/><path d="M100-162.5l-139.4 188.5" stroke="#005bbb6A"/><path d="M100-162.5l196.9 127" stroke="#005bbb6A"/><path d="M100-162.5l233.1-23.3" stroke="#fff6A"/><path d="M100-162.5l-221.8 70.7" stroke="#fff6C"/><path d="M100-162.5l123.1-197.5" stroke="#fff5006C"/><path d="M100-162.5l-85.9-215.6" stroke="#005bbb6D"/><path d="M100-162.5l230.2-27.8" stroke="#c2e1ff6D"/><path d="M100-162.5l103.2 205.2" stroke="#005bbb6F"/><path d="M100-162.5l229.4 5.5" stroke="#005bbb6F"/><path d="M100-162.5l-111.6-200.5" stroke="#005bbb6F"/><path d="M100-162.5l-216.5-69" stroke="#c2e1ff71"/><path d="M100-162.5l46.9-222.1" stroke="#fff50071"/><path d="M100-162.5l-106.9 200.1" stroke="#fff50071"/><path d="M100-162.5l117.6-193.7" stroke="#c2e1ff72"/><path d="M100-162.5l86.1-207.7" stroke="#005bbb73"/><path d="M100-162.5l94.6-203.2" stroke="#c2e1ff73"/><path d="M100-162.5l-203.5 90.9" stroke="#005bbb74"/><path d="M100-162.5l214.8-46" stroke="#005bbb76"/><path d="M100-162.5l192.9-104.8" stroke="#c2e1ff76"/><path d="M100-162.5l218.1-16.4" stroke="#c2e1ff76"/><path d="M100-162.5l-127.3 177.5" stroke="#fff50077"/><path d="M100-162.5l217 0" stroke="#fff50077"/><path d="M100-162.5l211.6-43.3" stroke="#c2e1ff78"/><path d="M100-162.5l-10.4 215.7" stroke="#c2e1ff78"/><path d="M100-162.5l-85.2-197.5" stroke="#fff50078"/><path d="M100-162.5l-179.6 118.3" stroke="#fff78"/><path d="M100-162.5l-207.6 55.1" stroke="#005bbb78"/><path d="M100-162.5l-210.4 42.6" stroke="#fff50078"/><path d="M100-162.5l-81.5-198.1" stroke="#c2e1ff79"/><path d="M100-162.5l-102.4-185.1" stroke="#005bbb7A"/><path d="M100-162.5l142.7 152.2" stroke="#fff5007B"/><path d="M100-162.5l-166.7-124.4" stroke="#fff7B"/><path d="M100-162.5l113.1-173.9" stroke="#fff7B"/><path d="M100-162.5l56.1 199.3" stroke="#005bbb7C"/><path d="M100-162.5l-160.1-130.8" stroke="#fff7C"/><path d="M100-162.5l-34.9 202.8" stroke="#fff5007C"/><path d="M100-162.5l55.2-198.1" stroke="#005bbb7C"/><path d="M100-162.5l-203.8 21.1" stroke="#c2e1ff7C"/><path d="M100-162.5l197 52.3" stroke="#005bbb7D"/><path d="M100-162.5l29.8-200.5" stroke="#005bbb7D"/><path d="M100-162.5l-191.6-63" stroke="#c2e1ff7E"/><path d="M100-162.5l-55.8 193.9" stroke="#fff7E"/><path d="M100-162.5l130.5-152.9" stroke="#fff5007E"/><path d="M100-162.5l140.1-142.4" stroke="#fff7E"/><path d="M100-162.5l198 21.4" stroke="#fff5007E"/><path d="M100-162.5l-172.6 92.5" stroke="#005bbb7F"/><path d="M100-162.5l-190.6-12.6" stroke="#c2e1ff81"/><path d="M100-162.5l-179.4-60.9" stroke="#fff50081"/><path d="M100-162.5l184.6-26.5" stroke="#fff82"/><path d="M100-162.5l-168 74.4" stroke="#fff83"/><path d="M100-162.5l126.7-129.9" stroke="#c2e1ff84"/><path d="M100-162.5l115.7 138.5" stroke="#fff50084"/><path d="M100-162.5l-163.4-70.1" stroke="#fff84"/><path d="M100-162.5l-168.9-40.5" stroke="#c2e1ff85"/><path d="M100-162.5l54.4 164.7" stroke="#c2e1ff85"/><path d="M100-162.5l-161.7 16.2" stroke="#005bbb88"/><path d="M100-162.5l-155.1-27.5" stroke="#fff89"/><path d="M100-162.5l-81.9-134.3" stroke="#fff50089"/><path d="M100-162.5l143.3-64.6" stroke="#fff50089"/><path d="M100-162.5l103-116.1" stroke="#fff89"/><path d="M100-162.5l48.9-146" stroke="#005bbb89"/><path d="M100-162.5l-90.1 109.1" stroke="#c2e1ff8C"/><path d="M100-162.5l-106.7-90.2" stroke="#fff8C"/><path d="M100-162.5l123.8-61.5" stroke="#005bbb8C"/><path d="M100-162.5l-77.1-109.8" stroke="#c2e1ff8D"/><path d="M100-162.5l20.8-126.7" stroke="#005bbb8D"/><path d="M100-162.5l111.6 39.3" stroke="#005bbb8F"/><path d="M100-162.5l78.9-87.5" stroke="#fff8F"/><path d="M100-162.5l-17.5-103.8" stroke="#fff90"/><path d="M100-162.5l90.6 21.9" stroke="#fff50091"/><path d="M100-162.5l-28 82.5" stroke="#fff50092"/><path d="M100-162.5l-77.2 39.6" stroke="#c2e1ff92"/><path d="M100-162.5l15 75.1" stroke="#fff50093"/><path d="M100-162.5l-48.4 22.4" stroke="#fff94"/><path d="M100-162.5l5.1-47" stroke="#005bbb94"/></g><g class="sparcs"><path d="M103.1-167.3a5.9 5.9 0 1 1 0-11.8 5.9 5.9 0 0 1 0 11.8" fill="#005bbb7D"/><path d="M115.4-169a5.9 5.9 0 1 1 0-11.9 5.9 5.9 0 0 1 0 11.9" fill="#fff5007D"/><path d="M131.7-186.7a6 6 0 1 1 0-11.9 6 6 0 0 1 0 11.9" fill="#005bbb7E"/><path d="M81.4-102.3a6 6 0 1 1 0-12 6 6 0 0 1 0 12" fill="#005bbb7E"/><path d="M103-86.9a6 6 0 1 1 0-12.1 6 6 0 0 1 0 12.1" fill="#005bbb7F"/><path d="M148.7-85a6.1 6.1 0 1 1 0-12.2 6.1 6.1 0 0 1 0 12.2" fill="#c2e1ff81"/><path d="M22.1-117.8a6.1 6.1 0 1 1 0-12.2 6.1 6.1 0 0 1 0 12.2" fill="#fff50081"/><path d="M33.1-218.3a6.1 6.1 0 1 1 0-12.3 6.1 6.1 0 0 1 0 12.3" fill="#fff50082"/><path d="M195.4-187.6a6.2 6.2 0 1 1 0-12.4 6.2 6.2 0 0 1 0 12.4" fill="#c2e1ff83"/><path d="M144.4-60.1a6.2 6.2 0 1 1 0-12.4 6.2 6.2 0 0 1 0 12.4" fill="#fff83"/><path d="M12.4-89.6a6.2 6.2 0 1 1 0-12.5 6.2 6.2 0 0 1 0 12.5" fill="#c2e1ff84"/><path d="M-17.3-183.5a6.3 6.3 0 1 1 0-12.6 6.3 6.3 0 0 1 0 12.6" fill="#fff86"/><path d="M62.2-270.7a6.3 6.3 0 1 1 0-12.7 6.3 6.3 0 0 1 0 12.7" fill="#005bbb86"/><path d="M217.1-120.6a6.3 6.3 0 1 1 0-12.6 6.3 6.3 0 0 1 0 12.6" fill="#fff50086"/><path d="M228-163.8a6.4 6.4 0 1 1 0-12.8 6.4 6.4 0 0 1 0 12.8" fill="#fff87"/><path d="M133.9-280.3a6.4 6.4 0 1 1 0-12.8 6.4 6.4 0 0 1 0 12.8" fill="#005bbb87"/><path d="M58.6-279.3a6.4 6.4 0 1 1 0-12.8 6.4 6.4 0 0 1 0 12.8" fill="#005bbb87"/><path d="M-36.1-150.6a6.4 6.4 0 1 1 0-12.9 6.4 6.4 0 0 1 0 12.9" fill="#fff50088"/><path d="M18-46.4a6.5 6.5 0 1 1 0-12.9 6.5 6.5 0 0 1 0 12.9" fill="#fff50089"/><path d="M103.2-18a6.5 6.5 0 1 1 0-12.9 6.5 6.5 0 0 1 0 12.9" fill="#fff89"/><path d="M-33.6-195.5a6.5 6.5 0 1 1 0-12.9 6.5 6.5 0 0 1 0 12.9" fill="#fff50089"/><path d="M-33.8-110.2a6.5 6.5 0 1 1 0-12.9 6.5 6.5 0 0 1 0 12.9" fill="#fff89"/><path d="M245.6-148.4a6.5 6.5 0 1 1 0-13.1 6.5 6.5 0 0 1 0 13.1" fill="#fff8A"/><path d="M222.9-65.6a6.6 6.6 0 1 1 0-13.2 6.6 6.6 0 0 1 0 13.2" fill="#fff5008C"/><path d="M179.5-22.7a6.6 6.6 0 1 1 0-13.3 6.6 6.6 0 0 1 0 13.3" fill="#fff8C"/><path d="M228.5-244a6.6 6.6 0 1 1 0-13.2 6.6 6.6 0 0 1 0 13.2" fill="#fff8D"/><path d="M194.6-282.8a6.7 6.7 0 1 1 0-13.4 6.7 6.7 0 0 1 0 13.4" fill="#c2e1ff8D"/><path d="M-44-68.9a6.8 6.8 0 1 1 0-13.6 6.8 6.8 0 0 1 0 13.6" fill="#005bbb90"/><path d="M259.5-210.4a6.8 6.8 0 1 1 0-13.5 6.8 6.8 0 0 1 0 13.5" fill="#fff50090"/><path d="M38.9-314.5a6.8 6.8 0 1 1 0-13.6 6.8 6.8 0 0 1 0 13.6" fill="#fff50090"/><path d="M270.2-163.1a6.8 6.8 0 1 1 0-13.7 6.8 6.8 0 0 1 0 13.7" fill="#005bbb90"/><path d="M65.3-322.9a6.8 6.8 0 1 1 0-13.6 6.8 6.8 0 0 1 0 13.6" fill="#fff50091"/><path d="M272.3-167a6.8 6.8 0 1 1 0-13.7 6.8 6.8 0 0 1 0 13.7" fill="#fff50091"/><path d="M-60.7-225.4a6.9 6.9 0 1 1 0-13.7 6.9 6.9 0 0 1 0 13.7" fill="#fff92"/><path d="M17.7-311.7a6.9 6.9 0 1 1 0-13.8 6.9 6.9 0 0 1 0 13.8" fill="#005bbb92"/><path d="M110.7 23a6.9 6.9 0 1 1 0-13.9 6.9 6.9 0 0 1 0 13.9" fill="#c2e1ff93"/><path d="M269.2-83.6a7 7 0 1 1 0-14 7 7 0 0 1 0 14" fill="#005bbb95"/><path d="M38.9-331.3a7 7 0 1 1 0-14.1 7 7 0 0 1 0 14.1" fill="#fff50095"/><path d="M170.2 17.4a7 7 0 1 1 0-14.1 7 7 0 0 1 0 14.1" fill="#005bbb96"/><path d="M242.5-278.8a7.1 7.1 0 1 1 0-14.2 7.1 7.1 0 0 1 0 14.2" fill="#c2e1ff96"/><path d="M52.9-338a7.1 7.1 0 1 1 0-14.2 7.1 7.1 0 0 1 0 14.2" fill="#fff50096"/><path d="M-68-59.9a7.2 7.2 0 1 1 0-14.3 7.2 7.2 0 0 1 0 14.3" fill="#fff98"/><path d="M-32.8-296a7.2 7.2 0 1 1 0-14.3 7.2 7.2 0 0 1 0 14.3" fill="#005bbb98"/><path d="M0.8-322.4a7.2 7.2 0 1 1 0-14.4 7.2 7.2 0 0 1 0 14.4" fill="#005bbb99"/><path d="M178-336.6a7.2 7.2 0 1 1 0-14.5 7.2 7.2 0 0 1 0 14.5" fill="#c2e1ff9A"/><path d="M106.4 44.5a7.3 7.3 0 1 1 0-14.5 7.3 7.3 0 0 1 0 14.5" fill="#005bbb9B"/><path d="M-79.8-64.2a7.3 7.3 0 1 1 0-14.6 7.3 7.3 0 0 1 0 14.6" fill="#c2e1ff9C"/><path d="M-69.3-265.2a7.3 7.3 0 1 1 0-14.7 7.3 7.3 0 0 1 0 14.7" fill="#c2e1ff9C"/><path d="M219.6-318.2a7.3 7.3 0 1 1 0-14.6 7.3 7.3 0 0 1 0 14.6" fill="#c2e1ff9C"/><path d="M284.7-244.5a7.4 7.4 0 1 1 0-14.8 7.4 7.4 0 0 1 0 14.8" fill="#c2e1ff9D"/><path d="M-71-33a7.5 7.5 0 1 1 0-15.1 7.5 7.5 0 0 1 0 15.1" fill="#c2e1ffA0"/><path d="M-94.4-239.2a7.6 7.6 0 1 1 0-15.1 7.6 7.6 0 0 1 0 15.1" fill="#c2e1ffA1"/><path d="M312-135.9a7.6 7.6 0 1 1 0-15.1 7.6 7.6 0 0 1 0 15.1" fill="#fff500A1"/><path d="M305.3-213a7.6 7.6 0 1 1 0-15.2 7.6 7.6 0 0 1 0 15.2" fill="#005bbbA2"/><path d="M254.1-304a7.6 7.6 0 1 1 0-15.2 7.6 7.6 0 0 1 0 15.2" fill="#c2e1ffA2"/><path d="M80.6-369.7a7.7 7.7 0 1 1 0-15.3 7.7 7.7 0 0 1 0 15.3" fill="#fff500A3"/><path d="M-52.9-1.8a7.7 7.7 0 1 1 0-15.3 7.7 7.7 0 0 1 0 15.3" fill="#c2e1ffA3"/><path d="M74.6 60a7.7 7.7 0 1 1 0-15.3 7.7 7.7 0 0 1 0 15.3" fill="#fffA3"/><path d="M241.5 9.6a7.7 7.7 0 1 1 0-15.4 7.7 7.7 0 0 1 0 15.4" fill="#005bbbA4"/><path d="M-106.5-221.5a7.7 7.7 0 1 1 0-15.4 7.7 7.7 0 0 1 0 15.4" fill="#fffA4"/><path d="M152.5 56.7a7.7 7.7 0 1 1 0-15.5 7.7 7.7 0 0 1 0 15.5" fill="#fffA4"/><path d="M41 55a7.7 7.7 0 1 1 0-15.4 7.7 7.7 0 0 1 0 15.4" fill="#005bbbA4"/><path d="M316.6-129.9a7.7 7.7 0 1 1 0-15.4 7.7 7.7 0 0 1 0 15.4" fill="#fffA4"/><path d="M-39.4 14.6a7.8 7.8 0 1 1 0-15.6 7.8 7.8 0 0 1 0 15.6" fill="#fffA5"/><path d="M277.2-24.7a7.8 7.8 0 1 1 0-15.6 7.8 7.8 0 0 1 0 15.6" fill="#fff500A6"/><path d="M304.7-69.9a7.8 7.8 0 1 1 0-15.7 7.8 7.8 0 0 1 0 15.7" fill="#fffA7"/><path d="M323.6-169.5a7.9 7.9 0 1 1 0-15.8 7.9 7.9 0 0 1 0 15.8" fill="#c2e1ffA9"/><path d="M-124.4-115.5a8.1 8.1 0 1 1 0-16.1 8.1 8.1 0 0 1 0 16.1" fill="#005bbbAC"/><path d="M81.4 73.7a8.1 8.1 0 1 1 0-16.2 8.1 8.1 0 0 1 0 16.2" fill="#fff500AD"/><path d="M-102.3-43a8.2 8.2 0 1 1 0-16.5 8.2 8.2 0 0 1 0 16.5" fill="#c2e1ffB0"/><path d="M-131.4-146.8a8.3 8.3 0 1 1 0-16.5 8.3 8.3 0 0 1 0 16.5" fill="#fffB1"/><path d="M-131.7-166a8.3 8.3 0 1 1 0-16.6 8.3 8.3 0 0 1 0 16.6" fill="#c2e1ffB1"/><path d="M2.9 56.8a8.3 8.3 0 1 1 0-16.6 8.3 8.3 0 0 1 0 16.6" fill="#c2e1ffB2"/><path d="M330.3-122.7a8.3 8.3 0 1 1 0-16.6 8.3 8.3 0 0 1 0 16.6" fill="#005bbbB2"/><path d="M285-13.3a8.3 8.3 0 1 1 0-16.7 8.3 8.3 0 0 1 0 16.7" fill="#c2e1ffB2"/><path d="M-132.7-153.8a8.3 8.3 0 1 1 0-16.7 8.3 8.3 0 0 1 0 16.7" fill="#c2e1ffB2"/><path d="M325.4-213a8.4 8.4 0 1 1 0-16.7 8.4 8.4 0 0 1 0 16.7" fill="#005bbbB3"/><path d="M49.1 73.6a8.4 8.4 0 1 1 0-16.8 8.4 8.4 0 0 1 0 16.8" fill="#c2e1ffB3"/><path d="M-133.1-143.3a8.4 8.4 0 1 1 0-16.8 8.4 8.4 0 0 1 0 16.8" fill="#fffB3"/><path d="M234.1 36.9a8.4 8.4 0 1 1 0-16.8 8.4 8.4 0 0 1 0 16.8" fill="#c2e1ffB3"/><path d="M279.4-303.9a8.4 8.4 0 1 1 0-16.8 8.4 8.4 0 0 1 0 16.8" fill="#c2e1ffB4"/><path d="M222.8-353.4a8.5 8.5 0 1 1 0-17 8.5 8.5 0 0 1 0 17" fill="#c2e1ffB5"/><path d="M144.4 76.2a8.5 8.5 0 1 1 0-17 8.5 8.5 0 0 1 0 17" fill="#fffB5"/><path d="M-102.6-273.7a8.6 8.6 0 1 1 0-17.2 8.6 8.6 0 0 1 0 17.2" fill="#fff500B8"/><path d="M275.3-311.2a8.6 8.6 0 1 1 0-17.2 8.6 8.6 0 0 1 0 17.2" fill="#fff500B8"/><path d="M-124.6-82.5a8.6 8.6 0 1 1 0-17.3 8.6 8.6 0 0 1 0 17.3" fill="#fff500B9"/><path d="M146.7 77.3a8.7 8.7 0 1 1 0-17.4 8.7 8.7 0 0 1 0 17.4" fill="#c2e1ffB9"/><path d="M-33.1-348.5a8.7 8.7 0 1 1 0-17.3 8.7 8.7 0 0 1 0 17.3" fill="#fffB9"/><path d="M269.9-317.4a8.7 8.7 0 1 1 0-17.4 8.7 8.7 0 0 1 0 17.4" fill="#fff500BA"/><path d="M-61.2 18.4a8.7 8.7 0 1 1 0-17.4 8.7 8.7 0 0 1 0 17.4" fill="#fffBA"/><path d="M-25.4 46.1a8.7 8.7 0 1 1 0-17.4 8.7 8.7 0 0 1 0 17.4" fill="#fffBA"/><path d="M141.3-386.3a8.8 8.8 0 1 1 0-17.6 8.8 8.8 0 0 1 0 17.6" fill="#c2e1ffBC"/><path d="M-9.4-363.1a8.9 8.9 0 1 1 0-17.7 8.9 8.9 0 0 1 0 17.7" fill="#005bbbBE"/><path d="M-128.8-94.9a8.9 8.9 0 1 1 0-17.8 8.9 8.9 0 0 1 0 17.8" fill="#005bbbBE"/><path d="M8.2 64a8.9 8.9 0 1 1 0-17.8 8.9 8.9 0 0 1 0 17.8" fill="#005bbbBF"/><path d="M75.9-388.4a9 9 0 1 1 0-17.9 9 9 0 0 1 0 17.9" fill="#005bbbC0"/><path d="M-135.7-167.8a9 9 0 1 1 0-17.9 9 9 0 0 1 0 17.9" fill="#fff500C0"/><path d="M41.3 75a9 9 0 1 1 0-18.1 9 9 0 0 1 0 18.1" fill="#c2e1ffC1"/><path d="M-68.5-318.4a9 9 0 1 1 0-18.1 9 9 0 0 1 0 18.1" fill="#fff500C1"/><path d="M68.9 80.2a9.1 9.1 0 1 1 0-18.1 9.1 9.1 0 0 1 0 18.1" fill="#c2e1ffC2"/><path d="M133.2-386.8a9.1 9.1 0 1 1 0-18.1 9.1 9.1 0 0 1 0 18.1" fill="#005bbbC2"/><path d="M228.6 44.1a9.1 9.1 0 1 1 0-18.1 9.1 9.1 0 0 1 0 18.1" fill="#c2e1ffC2"/><path d="M-72.3-314.1a9.1 9.1 0 1 1 0-18.2 9.1 9.1 0 0 1 0 18.2" fill="#005bbbC2"/><path d="M195.8 61.1a9.2 9.2 0 1 1 0-18.4 9.2 9.2 0 0 1 0 18.4" fill="#c2e1ffC5"/><path d="M227.4 43.9a9.2 9.2 0 1 1 0-18.4 9.2 9.2 0 0 1 0 18.4" fill="#005bbbC5"/><path d="M61.9-384.8a9.2 9.2 0 1 1 0-18.4 9.2 9.2 0 0 1 0 18.4" fill="#c2e1ffC5"/><path d="M-39.4 35.3a9.2 9.2 0 1 1 0-18.5 9.2 9.2 0 0 1 0 18.5" fill="#005bbbC5"/><path d="M296.9-26.2a9.2 9.2 0 1 1 0-18.5 9.2 9.2 0 0 1 0 18.5" fill="#fffC6"/><path d="M333.1-176.5a9.2 9.2 0 1 1 0-18.5 9.2 9.2 0 0 1 0 18.5" fill="#fffC6"/><path d="M-121.8-82.4a9.4 9.4 0 1 1 0-18.7 9.4 9.4 0 0 1 0 18.7" fill="#c2e1ffC9"/><path d="M223.1-350.6a9.4 9.4 0 1 1 0-18.8 9.4 9.4 0 0 1 0 18.8" fill="#c2e1ffC9"/><path d="M14.1-368.7a9.4 9.4 0 1 1 0-18.8 9.4 9.4 0 0 1 0 18.8" fill="#c2e1ffCA"/><path d="M330.2-180.9a9.4 9.4 0 1 1 0-18.9 9.4 9.4 0 0 1 0 18.9" fill="#fffCA"/><path d="M203.2 52.2a9.6 9.6 0 1 1 0-19.1 9.6 9.6 0 0 1 0 19.1" fill="#005bbbCD"/><path d="M329.4-147.4a9.6 9.6 0 1 1 0-19.1 9.6 9.6 0 0 1 0 19.1" fill="#005bbbCD"/><path d="M-11.6-353.4a9.6 9.6 0 1 1 0-19.2 9.6 9.6 0 0 1 0 19.2" fill="#c2e1ffCD"/><path d="M-116.5-221.8a9.7 9.7 0 1 1 0-19.4 9.7 9.7 0 0 1 0 19.4" fill="#fffCF"/><path d="M146.9-375a9.7 9.7 0 1 1 0-19.3 9.7 9.7 0 0 1 0 19.3" fill="#fffCF"/><path d="M-6.9 47.3a9.7 9.7 0 1 1 0-19.4 9.7 9.7 0 0 1 0 19.4" fill="#005bbbD0"/><path d="M217.6-346.5a9.7 9.7 0 1 1 0-19.4 9.7 9.7 0 0 1 0 19.4" fill="#fff500D0"/><path d="M186.1-360.4a9.8 9.8 0 1 1 0-19.5 9.8 9.8 0 0 1 0 19.5" fill="#c2e1ffD1"/><path d="M194.6-355.9a9.8 9.8 0 1 1 0-19.6 9.8 9.8 0 0 1 0 19.6" fill="#005bbbD2"/><path d="M-103.5-61.8a9.8 9.8 0 1 1 0-19.7 9.8 9.8 0 0 1 0 19.7" fill="#fffD3"/><path d="M314.8-198.6a9.9 9.9 0 1 1 0-19.8 9.9 9.9 0 0 1 0 19.8" fill="#fffD5"/><path d="M292.9-257.3a10 10 0 1 1 0-19.9 10 10 0 0 1 0 19.9" fill="#005bbbD6"/><path d="M318.1-168.9a10 10 0 1 1 0-20 10 10 0 0 1 0 20" fill="#fff500D6"/><path d="M-27.3 24.9a10 10 0 1 1 0-19.9 10 10 0 0 1 0 19.9" fill="#c2e1ffD6"/><path d="M317-152.5a10 10 0 1 1 0-20 10 10 0 0 1 0 20" fill="#005bbbD7"/><path d="M311.6-195.8a10.1 10.1 0 1 1 0-20.1 10.1 10.1 0 0 1 0 20.1" fill="#fff500D8"/><path d="M89.6 63.3a10.1 10.1 0 1 1 0-20.2 10.1 10.1 0 0 1 0 20.2" fill="#fffD8"/><path d="M14.8-349.9a10.1 10.1 0 1 1 0-20.2 10.1 10.1 0 0 1 0 20.2" fill="#fffD8"/><path d="M-79.6-34.1a10.1 10.1 0 1 1 0-20.1 10.1 10.1 0 0 1 0 20.1" fill="#fff500D8"/><path d="M-107.6-97.3a10.1 10.1 0 1 1 0-20.1 10.1 10.1 0 0 1 0 20.1" fill="#fff500D9"/><path d="M-110.4-109.8a10.1 10.1 0 1 1 0-20.2 10.1 10.1 0 0 1 0 20.2" fill="#005bbbD9"/><path d="M18.5-350.5a10.1 10.1 0 1 1 0-20.2 10.1 10.1 0 0 1 0 20.2" fill="#005bbbD9"/><path d="M-2.4-337.4a10.2 10.2 0 1 1 0-20.3 10.2 10.2 0 0 1 0 20.3" fill="#005bbbDA"/><path d="M242.7-0.1a10.2 10.2 0 1 1 0-20.4 10.2 10.2 0 0 1 0 20.4" fill="#fffDC"/><path d="M-66.7-276.6a10.3 10.3 0 1 1 0-20.5 10.3 10.3 0 0 1 0 20.5" fill="#fffDC"/><path d="M213.1-326.2a10.3 10.3 0 1 1 0-20.5 10.3 10.3 0 0 1 0 20.5" fill="#c2e1ffDD"/><path d="M156.1 47.1a10.3 10.3 0 1 1 0-20.6 10.3 10.3 0 0 1 0 20.6" fill="#fffDD"/><path d="M-60.1-283a10.3 10.3 0 1 1 0-20.6 10.3 10.3 0 0 1 0 20.6" fill="#fffDD"/><path d="M65.1 50.6a10.3 10.3 0 1 1 0-20.7 10.3 10.3 0 0 1 0 20.7" fill="#fff500DD"/><path d="M155.2-350.2a10.3 10.3 0 1 1 0-20.7 10.3 10.3 0 0 1 0 20.7" fill="#c2e1ffDE"/><path d="M-103.8-131.1a10.3 10.3 0 1 1 0-20.6 10.3 10.3 0 0 1 0 20.6" fill="#fff500DE"/><path d="M297-99.9a10.4 10.4 0 1 1 0-20.7 10.4 10.4 0 0 1 0 20.7" fill="#fffDE"/><path d="M129.8-352.6a10.4 10.4 0 1 1 0-20.8 10.4 10.4 0 0 1 0 20.8" fill="#fffDF"/><path d="M-91.6-215.1a10.4 10.4 0 1 1 0-20.8 10.4 10.4 0 0 1 0 20.8" fill="#005bbbDF"/><path d="M44.2 41.8a10.4 10.4 0 1 1 0-20.8 10.4 10.4 0 0 1 0 20.8" fill="#005bbbDF"/><path d="M230.5-304.9a10.4 10.4 0 1 1 0-20.9 10.4 10.4 0 0 1 0 20.9" fill="#fff500E0"/><path d="M240.1-294.5a10.4 10.4 0 1 1 0-20.9 10.4 10.4 0 0 1 0 20.9" fill="#005bbbE0"/><path d="M298-130.7a10.4 10.4 0 1 1 0-20.9 10.4 10.4 0 0 1 0 20.9" fill="#fffE0"/><path d="M-72.6-59.5a10.5 10.5 0 1 1 0-21 10.5 10.5 0 0 1 0 21" fill="#c2e1ffE2"/><path d="M-90.6-164.5a10.6 10.6 0 1 1 0-21.2 10.6 10.6 0 0 1 0 21.2" fill="#fffE4"/><path d="M-79.4-212.8a10.6 10.6 0 1 1 0-21.3 10.6 10.6 0 0 1 0 21.3" fill="#c2e1ffE4"/><path d="M284.6-178.3a10.7 10.7 0 1 1 0-21.3 10.7 10.7 0 0 1 0 21.3" fill="#005bbbE5"/><path d="M-68-77.4a10.7 10.7 0 1 1 0-21.4 10.7 10.7 0 0 1 0 21.4" fill="#c2e1ffE6"/><path d="M226.7-281.7a10.8 10.8 0 1 1 0-21.5 10.8 10.8 0 0 1 0 21.5" fill="#005bbbE7"/><path d="M215.7-13.3a10.8 10.8 0 1 1 0-21.5 10.8 10.8 0 0 1 0 21.5" fill="#fffE7"/><path d="M-63.4-221.8a10.8 10.8 0 1 1 0-21.6 10.8 10.8 0 0 1 0 21.6" fill="#fff500E8"/><path d="M-68.9-192.2a10.9 10.9 0 1 1 0-21.7 10.9 10.9 0 0 1 0 21.7" fill="#fff500EA"/><path d="M154.4 13a10.9 10.9 0 1 1 0-21.7 10.9 10.9 0 0 1 0 21.7" fill="#fffEA"/><path d="M-61.7-135.3a11 11 0 1 1 0-22 11 11 0 0 1 0 22" fill="#fff500ED"/><path d="M-55.1-178.9a11.1 11.1 0 1 1 0-22.2 11.1 11.1 0 0 1 0 22.2" fill="#005bbbEE"/><path d="M18.1-285.8a11.1 11.1 0 1 1 0-22.1 11.1 11.1 0 0 1 0 22.1" fill="#c2e1ffEE"/><path d="M243.3-216a11.1 11.1 0 1 1 0-22.2 11.1 11.1 0 0 1 0 22.2" fill="#fff500EE"/><path d="M203-267.5a11.1 11.1 0 1 1 0-22.1 11.1 11.1 0 0 1 0 22.1" fill="#fff500EF"/><path d="M148.9-297.4a11.1 11.1 0 1 1 0-22.2 11.1 11.1 0 0 1 0 22.2" fill="#fffEF"/><path d="M9.9-42.2a11.2 11.2 0 1 1 0-22.4 11.2 11.2 0 0 1 0 22.4" fill="#c2e1ffF2"/><path d="M-6.7-241.5a11.2 11.2 0 1 1 0-22.4 11.2 11.2 0 0 1 0 22.4" fill="#c2e1ffF2"/><path d="M223.8-212.8a11.3 11.3 0 1 1 0-22.5 11.3 11.3 0 0 1 0 22.5" fill="#005bbbF2"/><path d="M22.9-261a11.3 11.3 0 1 1 0-22.6 11.3 11.3 0 0 1 0 22.6" fill="#fffF3"/><path d="M120.8-277.9a11.3 11.3 0 1 1 0-22.6 11.3 11.3 0 0 1 0 22.6" fill="#fff500F4"/><path d="M211.6-111.8a11.4 11.4 0 1 1 0-22.8 11.4 11.4 0 0 1 0 22.8" fill="#005bbbF6"/><path d="M178.9-238.6a11.4 11.4 0 1 1 0-22.8 11.4 11.4 0 0 1 0 22.8" fill="#c2e1ffF6"/><path d="M82.5-254.8a11.5 11.5 0 1 1 0-23 11.5 11.5 0 0 1 0 23" fill="#fff500F8"/><path d="M190.6-129a11.6 11.6 0 1 1 0-23.1 11.6 11.6 0 0 1 0 23.1" fill="#fffF9"/><path d="M72-68.4a11.6 11.6 0 1 1 0-23.2 11.6 11.6 0 0 1 0 23.2" fill="#fffFA"/><path d="M22.8-111.3a11.6 11.6 0 1 1 0-23.2 11.6 11.6 0 0 1 0 23.2" fill="#c2e1ffFA"/><path d="M115-75.8a11.7 11.7 0 1 1 0-23.3 11.7 11.7 0 0 1 0 23.3" fill="#c2e1ffFB"/><path d="M51.6-128.4a11.7 11.7 0 1 1 0-23.4 11.7 11.7 0 0 1 0 23.4" fill="#fffFD"/><path d="M105.1-197.8a11.8 11.8 0 1 1 0-23.5 11.8 11.8 0 0 1 0 23.5" fill="#005bbbFD"/></g></svg>