<svg width="1200" height="675" viewBox="-500 -500 1200 675" xmlns="http://www.w3.org/2000/svg"><path d="M-500-500h1200v675h-1200z" fill="#000"/><style>.sparkles path{stroke-linecap:round; stroke-width:1}</style><g class="sparkles"><path d="M100-162.5l18.7-50.5" stroke="#6E819E33"/><path d="M100-162.5l-58.9 10.1" stroke="#EFF7F533"/><path d="M100-162.5l-53.8-25.8" stroke="#F6C8AC33"/><path d="M100-162.5l74.6 51.8" stroke="#2C4D5D35"/><path d="M100-162.5l-86.4-29.9" stroke="#FFFFFF35"/><path d="M100-162.5l-59.7 88" stroke="#2C4D5D37"/><path d="M100-162.5l91.8-53.9" stroke="#2C4D5D37"/><path d="M100-162.5l11.8 127.1" stroke="#F6C8AC39"/><path d="M100-162.5l-44.4-120.6" stroke="#2C4D5D3A"/><path d="M100-162.5l96.3-88.3" stroke="#6E819E3A"/><path d="M100-162.5l-116.9 63.4" stroke="#EF8F883A"/><path d="M100-162.5l130.4 44.9" stroke="#EF8F883B"/><path d="M100-162.5l143-22.9" stroke="#EFF7F53C"/><path d="M100-162.5l158.3-31.7" stroke="#6E819E3F"/><path d="M100-162.5l-158.4 63.9" stroke="#6E819E41"/><path d="M100-162.5l-108.9 131.7" stroke="#EF8F8841"/><path d="M100-162.5l162.4-60.2" stroke="#EF8F8842"/><path d="M100-162.5l10.4 173.3" stroke="#F6C8AC42"/><path d="M100-162.5l-153.4-89.6" stroke="#6E819E43"/><path d="M100-162.5l-100.5-149.6" stroke="#6E819E43"/><path d="M100-162.5l-179.8 34.5" stroke="#FFFFFF44"/><path d="M100-162.5l145.1-112.2" stroke="#EF8F8844"/><path d="M100-162.5l-149.9-107.8" stroke="#F6C8AC44"/><path d="M100-162.5l47.2 180.8" stroke="#FFFFFF45"/><path d="M100-162.5l163.2 93.8" stroke="#F6C8AC45"/><path d="M100-162.5l0.5 189.2" stroke="#6E819E46"/><path d="M100-162.5l-188.4-19.2" stroke="#2C4D5D46"/><path d="M100-162.5l-185.5-38.4" stroke="#EF8F8846"/><path d="M100-162.5l190.7-23.5" stroke="#EFF7F546"/><path d="M100-162.5l16.6 195.3" stroke="#6E819E48"/><path d="M100-162.5l168.3-102.9" stroke="#2C4D5D48"/><path d="M100-162.5l-141.9 139.8" stroke="#2C4D5D49"/><path d="M100-162.5l107.3-169.9" stroke="#2C4D5D49"/><path d="M100-162.5l112.3 167.9" stroke="#6E819E4A"/><path d="M100-162.5l-189.2-73.5" stroke="#EF8F884A"/><path d="M100-162.5l-166-125.1" stroke="#6E819E4C"/><path d="M100-162.5l149.4-147.8" stroke="#6E819E4D"/><path d="M100-162.5l-3.3-210.6" stroke="#6E819E4D"/><path d="M100-162.5l-142 156.6" stroke="#F6C8AC4D"/><path d="M100-162.5l27.2-210.1" stroke="#6E819E4D"/><path d="M100-162.5l-211.9-15.6" stroke="#2C4D5D4E"/><path d="M100-162.5l102.8 187.6" stroke="#EFF7F54E"/><path d="M100-162.5l104-187" stroke="#F6C8AC4E"/><path d="M100-162.5l-202.9-68.3" stroke="#F6C8AC4E"/><path d="M100-162.5l-208.4 54.8" stroke="#2C4D5D4F"/><path d="M100-162.5l-82.8-199" stroke="#FFFFFF4F"/><path d="M100-162.5l147.6 157.6" stroke="#EF8F884F"/><path d="M100-162.5l138.3 168.7" stroke="#EFF7F550"/><path d="M100-162.5l-33.1 216.1" stroke="#FFFFFF51"/><path d="M100-162.5l-46.5 214" stroke="#6E819E51"/><path d="M100-162.5l0.2-219.6" stroke="#EF8F8851"/><path d="M100-162.5l-88.4-202.5" stroke="#6E819E52"/><path d="M100-162.5l-171.9 141.1" stroke="#F6C8AC53"/><path d="M100-162.5l-209.2 75.6" stroke="#EFF7F553"/><path d="M100-162.5l219 45.9" stroke="#2C4D5D53"/><path d="M100-162.5l-201.3 100.6" stroke="#6E819E54"/><path d="M100-162.5l81.4-210.2" stroke="#EFF7F555"/><path d="M100-162.5l-167.9-152.3" stroke="#EFF7F555"/><path d="M100-162.5l-144.8 174.8" stroke="#F6C8AC56"/><path d="M100-162.5l22.1-226.6" stroke="#EFF7F556"/><path d="M100-162.5l179.4-141.6" stroke="#FFFFFF57"/><path d="M100-162.5l228.4 9.7" stroke="#2C4D5D57"/><path d="M100-162.5l-132.2-187.7" stroke="#EF8F8858"/><path d="M100-162.5l208.3 96.7" stroke="#F6C8AC58"/><path d="M100-162.5l136.3 185.9" stroke="#EF8F8859"/><path d="M100-162.5l-225.4-50.6" stroke="#EFF7F559"/><path d="M100-162.5l208.2-100.5" stroke="#EF8F8859"/><path d="M100-162.5l-31.7-229.5" stroke="#6E819E5A"/><path d="M100-162.5l-132.6-190.2" stroke="#FFFFFF5A"/><path d="M100-162.5l-89.2 214" stroke="#EF8F885A"/><path d="M100-162.5l-206.4 106" stroke="#F6C8AC5A"/><path d="M100-162.5l220.6-73.2" stroke="#FFFFFF5A"/><path d="M100-162.5l-18.7 231.7" stroke="#EF8F885B"/><path d="M100-162.5l155.6 173.8" stroke="#F6C8AC5C"/><path d="M100-162.5l233.6-12.9" stroke="#FFFFFF5D"/><path d="M100-162.5l-52.7-228.1" stroke="#EF8F885D"/><path d="M100-162.5l6.6-234.3" stroke="#6E819E5D"/><path d="M100-162.5l65.1 225.5" stroke="#2C4D5D5E"/><path d="M100-162.5l0.9 234.7" stroke="#6E819E5E"/><path d="M100-162.5l-188.5 140.2" stroke="#F6C8AC5E"/><path d="M100-162.5l-216.4-91.4" stroke="#F6C8AC5E"/><path d="M100-162.5l234.8 10.1" stroke="#EFF7F55E"/><path d="M100-162.5l-209.5 106.9" stroke="#F6C8AC5F"/><path d="M100-162.5l230.5-47" stroke="#FFFFFF5F"/><path d="M100-162.5l-164.2-168.5" stroke="#FFFFFF5F"/><path d="M100-162.5l7.2-235.9" stroke="#EFF7F561"/><path d="M100-162.5l-128.7-198.1" stroke="#F6C8AC64"/><path d="M100-162.5l-140.7 189.6" stroke="#2C4D5D65"/><path d="M100-162.5l-41.5 232.4" stroke="#F6C8AC65"/><path d="M100-162.5l176.6-156.5" stroke="#6E819E66"/><path d="M100-162.5l127.1-198.8" stroke="#F6C8AC66"/><path d="M100-162.5l-173.2-160.2" stroke="#2C4D5D66"/><path d="M100-162.5l186.1-144.9" stroke="#EF8F8866"/><path d="M100-162.5l-110.7 208.3" stroke="#2C4D5D66"/><path d="M100-162.5l76.3 223.1" stroke="#FFFFFF67"/><path d="M100-162.5l-235.1-16.5" stroke="#F6C8AC67"/><path d="M100-162.5l218.1 89.1" stroke="#FFFFFF67"/><path d="M100-162.5l208.9 108.4" stroke="#6E819E68"/><path d="M100-162.5l227.1-61.2" stroke="#FFFFFF68"/><path d="M100-162.5l-47.4-229.9" stroke="#2C4D5D69"/><path d="M100-162.5l206.3 111.4" stroke="#2C4D5D6A"/><path d="M100-162.5l-91.3 215.9" stroke="#F6C8AC6A"/><path d="M100-162.5l-31.6 232.3" stroke="#F6C8AC6A"/><path d="M100-162.5l97.5 212.6" stroke="#EF8F886B"/><path d="M100-162.5l-119.6 201" stroke="#6E819E6B"/><path d="M100-162.5l-193.1 131.7" stroke="#EFF7F56B"/><path d="M100-162.5l-36.9-230.6" stroke="#EF8F886B"/><path d="M100-162.5l220.8 72.7" stroke="#EFF7F56C"/><path d="M100-162.5l139.7-184.7" stroke="#F6C8AC6D"/><path d="M100-162.5l-159.4-167" stroke="#EFF7F56E"/><path d="M100-162.5l-48.9-225.5" stroke="#FFFFFF6E"/><path d="M100-162.5l54.3 223.9" stroke="#EF8F886F"/><path d="M100-162.5l-154.2-168.3" stroke="#2C4D5D70"/><path d="M100-162.5l133.1 184.5" stroke="#F6C8AC71"/><path d="M100-162.5l227.5 0" stroke="#F6C8AC71"/><path d="M100-162.5l224.2-15.6" stroke="#6E819E73"/><path d="M100-162.5l105.1-198.1" stroke="#F6C8AC73"/><path d="M100-162.5l142.4 172.5" stroke="#EFF7F574"/><path d="M100-162.5l-100.8 199.3" stroke="#FFFFFF74"/><path d="M100-162.5l2 222" stroke="#F6C8AC75"/><path d="M100-162.5l-42-216.3" stroke="#EFF7F576"/><path d="M100-162.5l-186.7 115" stroke="#6E819E76"/><path d="M100-162.5l50-212.9" stroke="#EF8F8876"/><path d="M100-162.5l-185.4 112.1" stroke="#6E819E77"/><path d="M100-162.5l191.9 99.8" stroke="#F6C8AC78"/><path d="M100-162.5l-213.5 23" stroke="#EFF7F578"/><path d="M100-162.5l-155.2 147.3" stroke="#EF8F8879"/><path d="M100-162.5l-203-65" stroke="#F6C8AC79"/><path d="M100-162.5l-88.8 193.4" stroke="#EFF7F579"/><path d="M100-162.5l199.2 73.2" stroke="#EFF7F579"/><path d="M100-162.5l-89-189.4" stroke="#FFFFFF7B"/><path d="M100-162.5l-168.2 123.1" stroke="#6E819E7B"/><path d="M100-162.5l9.3-205.7" stroke="#FFFFFF7C"/><path d="M100-162.5l-169.7-116.5" stroke="#EFF7F57C"/><path d="M100-162.5l160.3-126.5" stroke="#EF8F887D"/><path d="M100-162.5l166.6 117.9" stroke="#EFF7F57D"/><path d="M100-162.5l162.3 117.2" stroke="#2C4D5D7E"/><path d="M100-162.5l18.4-198.7" stroke="#F6C8AC7E"/><path d="M100-162.5l65.9 187.3" stroke="#EF8F887F"/><path d="M100-162.5l-197.5-14.9" stroke="#EF8F887F"/><path d="M100-162.5l-154.9 122.6" stroke="#2C4D5D7F"/><path d="M100-162.5l-130.6-138.6" stroke="#EF8F8881"/><path d="M100-162.5l-169.4-82.2" stroke="#2C4D5D82"/><path d="M100-162.5l-87.7 165.8" stroke="#EF8F8882"/><path d="M100-162.5l91.2 160.4" stroke="#F6C8AC83"/><path d="M100-162.5l182.5 3.3" stroke="#F6C8AC83"/><path d="M100-162.5l-9.4-179.6" stroke="#EF8F8884"/><path d="M100-162.5l-89.8-153.3" stroke="#EFF7F584"/><path d="M100-162.5l-175.6-8.8" stroke="#FFFFFF85"/><path d="M100-162.5l136.7 109" stroke="#EFF7F585"/><path d="M100-162.5l-84.5-150.8" stroke="#6E819E86"/><path d="M100-162.5l-6.8 172.7" stroke="#EF8F8886"/><path d="M100-162.5l-140.6 93.1" stroke="#EF8F8887"/><path d="M100-162.5l-128.3 107.4" stroke="#6E819E87"/><path d="M100-162.5l80.6-145.7" stroke="#2C4D5D87"/><path d="M100-162.5l3.3 161.1" stroke="#F6C8AC88"/><path d="M100-162.5l121.3-105.9" stroke="#2C4D5D88"/><path d="M100-162.5l-107.4-118.7" stroke="#FFFFFF88"/><path d="M100-162.5l-152.8 45.2" stroke="#F6C8AC88"/><path d="M100-162.5l138.1-76.2" stroke="#F6C8AC89"/><path d="M100-162.5l-150.2 41.1" stroke="#EF8F8889"/><path d="M100-162.5l-36.5-148.7" stroke="#2C4D5D8A"/><path d="M100-162.5l-146.2-44.7" stroke="#F6C8AC8A"/><path d="M100-162.5l118.7-83.5" stroke="#FFFFFF8B"/><path d="M100-162.5l104.7-99.5" stroke="#F6C8AC8B"/><path d="M100-162.5l-13-142.3" stroke="#EFF7F58B"/><path d="M100-162.5l101.3 99.2" stroke="#2C4D5D8B"/><path d="M100-162.5l123.5-68.8" stroke="#F6C8AC8C"/><path d="M100-162.5l111.5 60.6" stroke="#EFF7F58E"/><path d="M100-162.5l88.2 90.9" stroke="#6E819E8E"/><path d="M100-162.5l-36.5-120.3" stroke="#EF8F888E"/><path d="M100-162.5l105.4-48.3" stroke="#F6C8AC8F"/><path d="M100-162.5l-84.7 68.5" stroke="#2C4D5D90"/><path d="M100-162.5l80.8 67.5" stroke="#FFFFFF90"/><path d="M100-162.5l-12.2-102.9" stroke="#EFF7F590"/><path d="M100-162.5l42.4-85.7" stroke="#EFF7F591"/><path d="M100-162.5l31.7 86" stroke="#6E819E92"/><path d="M100-162.5l82.1 1.7" stroke="#EFF7F592"/><path d="M100-162.5l-68.2 39.1" stroke="#EF8F8893"/><path d="M100-162.5l-71.8-23.9" stroke="#6E819E93"/><path d="M100-162.5l47.2-20.9" stroke="#EFF7F594"/></g><g class="sparcs"><path d="M118.7-207a6 6 0 1 1 0-11.9 6 6 0 0 1 0 11.9" fill="#EF8F887E"/><path d="M41.1-146.4a6 6 0 1 1 0-12 6 6 0 0 1 0 12" fill="#2C4D5D7F"/><path d="M46.2-182.3a6 6 0 1 1 0-12 6 6 0 0 1 0 12" fill="#F6C8AC7F"/><path d="M174.6-104.6a6.1 6.1 0 1 1 0-12.3 6.1 6.1 0 0 1 0 12.3" fill="#EF8F8881"/><path d="M13.6-186.3a6.1 6.1 0 1 1 0-12.2 6.1 6.1 0 0 1 0 12.2" fill="#FFFFFF82"/><path d="M40.3-68.2a6.2 6.2 0 1 1 0-12.5 6.2 6.2 0 0 1 0 12.5" fill="#EF8F8883"/><path d="M191.8-210.2a6.2 6.2 0 1 1 0-12.4 6.2 6.2 0 0 1 0 12.4" fill="#F6C8AC83"/><path d="M111.8-29a6.4 6.4 0 1 1 0-12.8 6.4 6.4 0 0 1 0 12.8" fill="#EFF7F587"/><path d="M55.6-276.7a6.4 6.4 0 1 1 0-12.8 6.4 6.4 0 0 1 0 12.8" fill="#F6C8AC87"/><path d="M196.3-244.4a6.4 6.4 0 1 1 0-12.8 6.4 6.4 0 0 1 0 12.8" fill="#2C4D5D87"/><path d="M-16.9-92.7a6.4 6.4 0 1 1 0-12.8 6.4 6.4 0 0 1 0 12.8" fill="#2C4D5D88"/><path d="M230.4-111.1a6.5 6.5 0 1 1 0-12.9 6.5 6.5 0 0 1 0 12.9" fill="#F6C8AC89"/><path d="M243-178.9a6.5 6.5 0 1 1 0-13.1 6.5 6.5 0 0 1 0 13.1" fill="#FFFFFF8A"/><path d="M258.3-187.5a6.7 6.7 0 1 1 0-13.5 6.7 6.7 0 0 1 0 13.5" fill="#F6C8AC8E"/><path d="M-58.4-91.8a6.8 6.8 0 1 1 0-13.6 6.8 6.8 0 0 1 0 13.6" fill="#FFFFFF91"/><path d="M-8.9-24a6.8 6.8 0 1 1 0-13.6 6.8 6.8 0 0 1 0 13.6" fill="#2C4D5D91"/><path d="M262.4-215.9a6.9 6.9 0 1 1 0-13.7 6.9 6.9 0 0 1 0 13.7" fill="#FFFFFF91"/><path d="M110.4 17.6a6.9 6.9 0 1 1 0-13.7 6.9 6.9 0 0 1 0 13.7" fill="#6E819E91"/><path d="M-53.4-245.2a6.9 6.9 0 1 1 0-13.8 6.9 6.9 0 0 1 0 13.8" fill="#2C4D5D93"/><path d="M-0.5-305.2a6.9 6.9 0 1 1 0-13.9 6.9 6.9 0 0 1 0 13.9" fill="#F6C8AC93"/><path d="M-79.8-121a7 7 0 1 1 0-14 7 7 0 0 1 0 14" fill="#6E819E94"/><path d="M245.1-267.7a7 7 0 1 1 0-14 7 7 0 0 1 0 14" fill="#F6C8AC95"/><path d="M-49.9-263.3a7 7 0 1 1 0-14 7 7 0 0 1 0 14" fill="#6E819E95"/><path d="M147.2 25.4a7.1 7.1 0 1 1 0-14.1 7.1 7.1 0 0 1 0 14.1" fill="#EF8F8896"/><path d="M263.2-61.6a7.1 7.1 0 1 1 0-14.2 7.1 7.1 0 0 1 0 14.2" fill="#EFF7F596"/><path d="M100.5 33.8a7.1 7.1 0 1 1 0-14.2 7.1 7.1 0 0 1 0 14.2" fill="#EFF7F597"/><path d="M-88.4-174.6a7.1 7.1 0 1 1 0-14.2 7.1 7.1 0 0 1 0 14.2" fill="#6E819E97"/><path d="M-85.5-193.8a7.1 7.1 0 1 1 0-14.2 7.1 7.1 0 0 1 0 14.2" fill="#6E819E97"/><path d="M290.7-178.8a7.1 7.1 0 1 1 0-14.3 7.1 7.1 0 0 1 0 14.3" fill="#6E819E98"/><path d="M116.6 40.1a7.2 7.2 0 1 1 0-14.5 7.2 7.2 0 0 1 0 14.5" fill="#FFFFFF99"/><path d="M268.3-258.2a7.2 7.2 0 1 1 0-14.5 7.2 7.2 0 0 1 0 14.5" fill="#F6C8AC9A"/><path d="M-41.9-15.4a7.3 7.3 0 1 1 0-14.6 7.3 7.3 0 0 1 0 14.6" fill="#F6C8AC9B"/><path d="M207.3-325.1a7.3 7.3 0 1 1 0-14.7 7.3 7.3 0 0 1 0 14.7" fill="#EF8F889B"/><path d="M212.3 12.7a7.3 7.3 0 1 1 0-14.6 7.3 7.3 0 0 1 0 14.6" fill="#2C4D5D9C"/><path d="M-89.2-228.7a7.3 7.3 0 1 1 0-14.7 7.3 7.3 0 0 1 0 14.7" fill="#6E819E9C"/><path d="M-66-280.1a7.5 7.5 0 1 1 0-14.9 7.5 7.5 0 0 1 0 14.9" fill="#FFFFFF9F"/><path d="M249.4-302.8a7.5 7.5 0 1 1 0-15 7.5 7.5 0 0 1 0 15" fill="#EF8F88A0"/><path d="M96.7-365.6a7.5 7.5 0 1 1 0-15 7.5 7.5 0 0 1 0 15" fill="#6E819EA0"/><path d="M-42 1.6a7.5 7.5 0 1 1 0-15.1 7.5 7.5 0 0 1 0 15.1" fill="#FFFFFFA0"/><path d="M127.2-365.1a7.6 7.6 0 1 1 0-15.1 7.6 7.6 0 0 1 0 15.1" fill="#EFF7F5A1"/><path d="M-111.9-170.6a7.6 7.6 0 1 1 0-15.1 7.6 7.6 0 0 1 0 15.1" fill="#FFFFFFA1"/><path d="M202.8 32.7a7.6 7.6 0 1 1 0-15.2 7.6 7.6 0 0 1 0 15.2" fill="#2C4D5DA2"/><path d="M204-341.9a7.6 7.6 0 1 1 0-15.2 7.6 7.6 0 0 1 0 15.2" fill="#6E819EA2"/><path d="M-102.9-223.2a7.6 7.6 0 1 1 0-15.3 7.6 7.6 0 0 1 0 15.3" fill="#EFF7F5A2"/><path d="M-108.4-100a7.6 7.6 0 1 1 0-15.3 7.6 7.6 0 0 1 0 15.3" fill="#2C4D5DA3"/><path d="M17.2-353.8a7.7 7.7 0 1 1 0-15.3 7.7 7.7 0 0 1 0 15.3" fill="#2C4D5DA3"/><path d="M247.6 2.7a7.7 7.7 0 1 1 0-15.3 7.7 7.7 0 0 1 0 15.3" fill="#F6C8ACA3"/><path d="M238.3 13.9a7.7 7.7 0 1 1 0-15.5 7.7 7.7 0 0 1 0 15.5" fill="#FFFFFFA5"/><path d="M66.9 61.4a7.7 7.7 0 1 1 0-15.5 7.7 7.7 0 0 1 0 15.5" fill="#2C4D5DA5"/><path d="M53.5 59.2a7.8 7.8 0 1 1 0-15.5 7.8 7.8 0 0 1 0 15.5" fill="#6E819EA5"/><path d="M100.2-374.3a7.8 7.8 0 1 1 0-15.6 7.8 7.8 0 0 1 0 15.6" fill="#F6C8ACA6"/><path d="M11.6-357.2a7.8 7.8 0 1 1 0-15.7 7.8 7.8 0 0 1 0 15.7" fill="#F6C8ACA7"/><path d="M-71.9-13.5a7.9 7.9 0 1 1 0-15.7 7.9 7.9 0 0 1 0 15.7" fill="#2C4D5DA8"/><path d="M-109.2-79a7.9 7.9 0 1 1 0-15.8 7.9 7.9 0 0 1 0 15.8" fill="#EF8F88A8"/><path d="M319-108.7a7.9 7.9 0 1 1 0-15.8 7.9 7.9 0 0 1 0 15.8" fill="#EFF7F5A9"/><path d="M-101.3-54a8 8 0 1 1 0-15.9 8 8 0 0 1 0 15.9" fill="#2C4D5DAA"/><path d="M181.4-364.7a8 8 0 1 1 0-16 8 8 0 0 1 0 16" fill="#EFF7F5AA"/><path d="M-67.9-306.8a8 8 0 1 1 0-16.1 8 8 0 0 1 0 16.1" fill="#6E819EAB"/><path d="M-44.8 20.4a8 8 0 1 1 0-16.1 8 8 0 0 1 0 16.1" fill="#F6C8ACAB"/><path d="M122.1-381a8.1 8.1 0 1 1 0-16.1 8.1 8.1 0 0 1 0 16.1" fill="#FFFFFFAC"/><path d="M279.4-296a8.1 8.1 0 1 1 0-16.2 8.1 8.1 0 0 1 0 16.2" fill="#F6C8ACAD"/><path d="M328.4-144.6a8.1 8.1 0 1 1 0-16.3 8.1 8.1 0 0 1 0 16.3" fill="#EFF7F5AD"/><path d="M-32.2-342.1a8.2 8.2 0 1 1 0-16.3 8.2 8.2 0 0 1 0 16.3" fill="#EF8F88AE"/><path d="M308.3-57.6a8.2 8.2 0 1 1 0-16.3 8.2 8.2 0 0 1 0 16.3" fill="#FFFFFFAE"/><path d="M236.3 31.6a8.2 8.2 0 1 1 0-16.4 8.2 8.2 0 0 1 0 16.4" fill="#EF8F88AF"/><path d="M-125.4-204.9a8.2 8.2 0 1 1 0-16.4 8.2 8.2 0 0 1 0 16.4" fill="#EF8F88B0"/><path d="M308.2-254.8a8.3 8.3 0 1 1 0-16.5 8.3 8.3 0 0 1 0 16.5" fill="#F6C8ACB0"/><path d="M68.3-383.7a8.3 8.3 0 1 1 0-16.6 8.3 8.3 0 0 1 0 16.6" fill="#F6C8ACB1"/><path d="M-32.6-344.4a8.3 8.3 0 1 1 0-16.6 8.3 8.3 0 0 1 0 16.6" fill="#FFFFFFB1"/><path d="M10.8 59.8a8.3 8.3 0 1 1 0-16.6 8.3 8.3 0 0 1 0 16.6" fill="#2C4D5DB1"/><path d="M-106.4-48.2a8.3 8.3 0 1 1 0-16.6 8.3 8.3 0 0 1 0 16.6" fill="#EFF7F5B1"/><path d="M320.6-227.3a8.3 8.3 0 1 1 0-16.7 8.3 8.3 0 0 1 0 16.7" fill="#EFF7F5B2"/><path d="M81.3 77.6a8.3 8.3 0 1 1 0-16.7 8.3 8.3 0 0 1 0 16.7" fill="#2C4D5DB2"/><path d="M255.6 19.7a8.4 8.4 0 1 1 0-16.8 8.4 8.4 0 0 1 0 16.8" fill="#FFFFFFB3"/><path d="M333.6-167a8.4 8.4 0 1 1 0-16.9 8.4 8.4 0 0 1 0 16.9" fill="#EFF7F5B4"/><path d="M47.3-382.1a8.5 8.5 0 1 1 0-16.9 8.5 8.5 0 0 1 0 16.9" fill="#F6C8ACB5"/><path d="M106.6-388.3a8.5 8.5 0 1 1 0-16.9 8.5 8.5 0 0 1 0 16.9" fill="#2C4D5DB5"/><path d="M165.1 71.5a8.5 8.5 0 1 1 0-17.1 8.5 8.5 0 0 1 0 17.1" fill="#F6C8ACB6"/><path d="M100.9 80.7a8.5 8.5 0 1 1 0-17.1 8.5 8.5 0 0 1 0 17.1" fill="#F6C8ACB6"/><path d="M-88.5-13.8a8.5 8.5 0 1 1 0-17 8.5 8.5 0 0 1 0 17" fill="#FFFFFFB7"/><path d="M-116.4-245.4a8.5 8.5 0 1 1 0-17.1 8.5 8.5 0 0 1 0 17.1" fill="#F6C8ACB7"/><path d="M334.8-143.8a8.6 8.6 0 1 1 0-17.2 8.6 8.6 0 0 1 0 17.2" fill="#6E819EB7"/><path d="M-109.5-47a8.6 8.6 0 1 1 0-17.2 8.6 8.6 0 0 1 0 17.2" fill="#2C4D5DB7"/><path d="M330.5-200.9a8.6 8.6 0 1 1 0-17.2 8.6 8.6 0 0 1 0 17.2" fill="#FFFFFFB8"/><path d="M-64.2-322.4a8.6 8.6 0 1 1 0-17.2 8.6 8.6 0 0 1 0 17.2" fill="#EFF7F5B8"/><path d="M107.2-389.7a8.7 8.7 0 1 1 0-17.4 8.7 8.7 0 0 1 0 17.4" fill="#FFFFFFBB"/><path d="M-28.7-351.7a8.9 8.9 0 1 1 0-17.8 8.9 8.9 0 0 1 0 17.8" fill="#2C4D5DBE"/><path d="M-40.7 36.1a9 9 0 1 1 0-17.9 9 9 0 0 1 0 17.9" fill="#6E819EC0"/><path d="M58.5 78.9a9 9 0 1 1 0-18 9 9 0 0 1 0 18" fill="#FFFFFFC0"/><path d="M276.6-310a9 9 0 1 1 0-18 9 9 0 0 1 0 18" fill="#EFF7F5C0"/><path d="M227.1-352.3a9 9 0 1 1 0-18 9 9 0 0 1 0 18" fill="#FFFFFFC1"/><path d="M-73.2-313.7a9 9 0 1 1 0-18 9 9 0 0 1 0 18" fill="#FFFFFFC1"/><path d="M286.1-298.4a9 9 0 1 1 0-18 9 9 0 0 1 0 18" fill="#6E819EC1"/><path d="M-10.7 54.8a9 9 0 1 1 0-18.1 9 9 0 0 1 0 18.1" fill="#EF8F88C1"/><path d="M176.3 69.6a9 9 0 1 1 0-18.1 9 9 0 0 1 0 18.1" fill="#F6C8ACC2"/><path d="M-135.1-170a9.1 9.1 0 1 1 0-18.1 9.1 9.1 0 0 1 0 18.1" fill="#EF8F88C2"/><path d="M318.1-64.3a9.1 9.1 0 1 1 0-18.2 9.1 9.1 0 0 1 0 18.2" fill="#6E819EC2"/><path d="M308.9-44.9a9.1 9.1 0 1 1 0-18.3 9.1 9.1 0 0 1 0 18.3" fill="#FFFFFFC3"/><path d="M327.1-214.5a9.1 9.1 0 1 1 0-18.3 9.1 9.1 0 0 1 0 18.3" fill="#2C4D5DC4"/><path d="M52.6-383.2a9.2 9.2 0 1 1 0-18.4 9.2 9.2 0 0 1 0 18.4" fill="#2C4D5DC5"/><path d="M306.3-41.9a9.2 9.2 0 1 1 0-18.4 9.2 9.2 0 0 1 0 18.4" fill="#FFFFFFC5"/><path d="M8.7 62.7a9.2 9.2 0 1 1 0-18.5 9.2 9.2 0 0 1 0 18.5" fill="#6E819EC6"/><path d="M68.4 79a9.2 9.2 0 1 1 0-18.4 9.2 9.2 0 0 1 0 18.4" fill="#F6C8ACC6"/><path d="M197.5 59.4a9.3 9.3 0 1 1 0-18.6 9.3 9.3 0 0 1 0 18.6" fill="#EF8F88C7"/><path d="M-19.6 47.8a9.3 9.3 0 1 1 0-18.6 9.3 9.3 0 0 1 0 18.6" fill="#EFF7F5C7"/><path d="M-93.1-21.5a9.3 9.3 0 1 1 0-18.6 9.3 9.3 0 0 1 0 18.6" fill="#EF8F88C7"/><path d="M63.1-383.8a9.3 9.3 0 1 1 0-18.6 9.3 9.3 0 0 1 0 18.6" fill="#6E819EC7"/><path d="M320.8-80.4a9.4 9.4 0 1 1 0-18.8 9.4 9.4 0 0 1 0 18.8" fill="#2C4D5DC9"/><path d="M239.7-337.7a9.4 9.4 0 1 1 0-18.9 9.4 9.4 0 0 1 0 18.9" fill="#FFFFFFCA"/><path d="M-59.4-320.1a9.5 9.5 0 1 1 0-18.9 9.5 9.5 0 0 1 0 18.9" fill="#2C4D5DCB"/><path d="M51.1-378.5a9.5 9.5 0 1 1 0-19 9.5 9.5 0 0 1 0 19" fill="#6E819ECB"/><path d="M154.3 70.9a9.5 9.5 0 1 1 0-19.1 9.5 9.5 0 0 1 0 19.1" fill="#6E819ECC"/><path d="M-54.2-321.2a9.6 9.6 0 1 1 0-19.2 9.6 9.6 0 0 1 0 19.2" fill="#F6C8ACCE"/><path d="M233.1 31.7a9.7 9.7 0 1 1 0-19.4 9.7 9.7 0 0 1 0 19.4" fill="#6E819ECF"/><path d="M327.5-152.8a9.7 9.7 0 1 1 0-19.4 9.7 9.7 0 0 1 0 19.4" fill="#6E819ECF"/><path d="M324.2-168.3a9.8 9.8 0 1 1 0-19.6 9.8 9.8 0 0 1 0 19.6" fill="#FFFFFFD2"/><path d="M205.1-350.8a9.8 9.8 0 1 1 0-19.6 9.8 9.8 0 0 1 0 19.6" fill="#EF8F88D2"/><path d="M242.4 19.8a9.8 9.8 0 1 1 0-19.6 9.8 9.8 0 0 1 0 19.6" fill="#EF8F88D2"/><path d="M-0.8 46.6a9.8 9.8 0 1 1 0-19.6 9.8 9.8 0 0 1 0 19.6" fill="#EF8F88D3"/><path d="M102 69.4a9.9 9.9 0 1 1 0-19.8 9.9 9.9 0 0 1 0 19.8" fill="#6E819ED4"/><path d="M58-368.9a9.9 9.9 0 1 1 0-19.8 9.9 9.9 0 0 1 0 19.8" fill="#6E819ED5"/><path d="M-86.7-37.6a10 10 0 1 1 0-19.9 10 10 0 0 1 0 19.9" fill="#FFFFFFD6"/><path d="M150-365.5a10 10 0 1 1 0-19.9 10 10 0 0 1 0 19.9" fill="#FFFFFFD6"/><path d="M-85.4-40.3a10 10 0 1 1 0-20.1 10 10 0 0 1 0 20.1" fill="#F6C8ACD7"/><path d="M291.9-52.6a10 10 0 1 1 0-20.1 10 10 0 0 1 0 20.1" fill="#6E819ED8"/><path d="M-113.5-129.4a10.1 10.1 0 1 1 0-20.2 10.1 10.1 0 0 1 0 20.2" fill="#6E819ED9"/><path d="M-55.2-5.1a10.1 10.1 0 1 1 0-20.2 10.1 10.1 0 0 1 0 20.2" fill="#FFFFFFD9"/><path d="M-103-217.4a10.1 10.1 0 1 1 0-20.2 10.1 10.1 0 0 1 0 20.2" fill="#EF8F88DA"/><path d="M11.2 41a10.1 10.1 0 1 1 0-20.3 10.1 10.1 0 0 1 0 20.3" fill="#2C4D5DDA"/><path d="M299.2-79.1a10.2 10.2 0 1 1 0-20.3 10.2 10.2 0 0 1 0 20.3" fill="#EF8F88DA"/><path d="M11-341.7a10.2 10.2 0 1 1 0-20.4 10.2 10.2 0 0 1 0 20.4" fill="#EFF7F5DC"/><path d="M-68.2-29.1a10.2 10.2 0 1 1 0-20.5 10.2 10.2 0 0 1 0 20.5" fill="#F6C8ACDC"/><path d="M109.3-357.9a10.3 10.3 0 1 1 0-20.6 10.3 10.3 0 0 1 0 20.6" fill="#FFFFFFDD"/><path d="M-69.7-268.7a10.3 10.3 0 1 1 0-20.6 10.3 10.3 0 0 1 0 20.6" fill="#FFFFFFDD"/><path d="M260.3-278.7a10.3 10.3 0 1 1 0-20.7 10.3 10.3 0 0 1 0 20.7" fill="#EF8F88DE"/><path d="M266.6-34.2a10.3 10.3 0 1 1 0-20.7 10.3 10.3 0 0 1 0 20.7" fill="#EFF7F5DE"/><path d="M262.3-34.8a10.4 10.4 0 1 1 0-20.9 10.4 10.4 0 0 1 0 20.9" fill="#EFF7F5E0"/><path d="M118.4-350.7a10.4 10.4 0 1 1 0-20.9 10.4 10.4 0 0 1 0 20.9" fill="#F6C8ACE0"/><path d="M165.9 35.3a10.5 10.5 0 1 1 0-20.9 10.5 10.5 0 0 1 0 20.9" fill="#EFF7F5E1"/><path d="M-97.5-167a10.5 10.5 0 1 1 0-20.9 10.5 10.5 0 0 1 0 20.9" fill="#F6C8ACE1"/><path d="M-54.9-29.4a10.5 10.5 0 1 1 0-21 10.5 10.5 0 0 1 0 21" fill="#EFF7F5E1"/><path d="M-30.6-290.5a10.6 10.6 0 1 1 0-21.2 10.6 10.6 0 0 1 0 21.2" fill="#F6C8ACE4"/><path d="M-69.4-234a10.6 10.6 0 1 1 0-21.3 10.6 10.6 0 0 1 0 21.3" fill="#FFFFFFE5"/><path d="M12.3 14a10.7 10.7 0 1 1 0-21.3 10.7 10.7 0 0 1 0 21.3" fill="#2C4D5DE5"/><path d="M191.2 8.6a10.7 10.7 0 1 1 0-21.4 10.7 10.7 0 0 1 0 21.4" fill="#6E819EE6"/><path d="M282.5-148.5a10.7 10.7 0 1 1 0-21.4 10.7 10.7 0 0 1 0 21.4" fill="#FFFFFFE7"/><path d="M90.6-331.4a10.8 10.8 0 1 1 0-21.5 10.8 10.8 0 0 1 0 21.5" fill="#2C4D5DE8"/><path d="M10.2-305a10.8 10.8 0 1 1 0-21.6 10.8 10.8 0 0 1 0 21.6" fill="#6E819EE8"/><path d="M-75.6-160.5a10.8 10.8 0 1 1 0-21.6 10.8 10.8 0 0 1 0 21.6" fill="#FFFFFFE9"/><path d="M236.7-42.7a10.8 10.8 0 1 1 0-21.7 10.8 10.8 0 0 1 0 21.7" fill="#EFF7F5E9"/><path d="M15.5-302.4a10.9 10.9 0 1 1 0-21.8 10.9 10.9 0 0 1 0 21.8" fill="#2C4D5DEA"/><path d="M93.2 21.1a10.9 10.9 0 1 1 0-21.8 10.9 10.9 0 0 1 0 21.8" fill="#FFFFFFEA"/><path d="M-40.6-58.4a10.9 10.9 0 1 1 0-21.9 10.9 10.9 0 0 1 0 21.9" fill="#6E819EEB"/><path d="M-28.3-44.1a10.9 10.9 0 1 1 0-21.9 10.9 10.9 0 0 1 0 21.9" fill="#2C4D5DEB"/><path d="M180.6-297.3a11 11 0 1 1 0-21.9 11 11 0 0 1 0 21.9" fill="#F6C8ACEC"/><path d="M103.3 9.6a11 11 0 1 1 0-22 11 11 0 0 1 0 22" fill="#2C4D5DED"/><path d="M221.3-257.3a11 11 0 1 1 0-22.1 11 11 0 0 1 0 22.1" fill="#F6C8ACED"/><path d="M-7.4-270.2a11 11 0 1 1 0-22 11 11 0 0 1 0 22" fill="#2C4D5DED"/><path d="M-52.8-106.3a11 11 0 1 1 0-22.1 11 11 0 0 1 0 22.1" fill="#FFFFFFED"/><path d="M238.1-227.6a11.1 11.1 0 1 1 0-22.1 11.1 11.1 0 0 1 0 22.1" fill="#FFFFFFEE"/><path d="M-50.2-110.4a11.1 11.1 0 1 1 0-22.1 11.1 11.1 0 0 1 0 22.1" fill="#EF8F88EE"/><path d="M63.5-300.1a11.1 11.1 0 1 1 0-22.2 11.1 11.1 0 0 1 0 22.2" fill="#EFF7F5EF"/><path d="M-46.2-196.1a11.1 11.1 0 1 1 0-22.2 11.1 11.1 0 0 1 0 22.2" fill="#EF8F88EF"/><path d="M218.7-234.8a11.2 11.2 0 1 1 0-22.4 11.2 11.2 0 0 1 0 22.4" fill="#EFF7F5F1"/><path d="M204.7-250.8a11.2 11.2 0 1 1 0-22.4 11.2 11.2 0 0 1 0 22.4" fill="#FFFFFFF1"/><path d="M87-293.6a11.2 11.2 0 1 1 0-22.4 11.2 11.2 0 0 1 0 22.4" fill="#6E819EF1"/><path d="M201.3-52.1a11.2 11.2 0 1 1 0-22.5 11.2 11.2 0 0 1 0 22.5" fill="#2C4D5DF1"/><path d="M223.5-220.1a11.2 11.2 0 1 1 0-22.5 11.2 11.2 0 0 1 0 22.5" fill="#EFF7F5F2"/><path d="M211.5-90.5a11.4 11.4 0 1 1 0-22.7 11.4 11.4 0 0 1 0 22.7" fill="#2C4D5DF4"/><path d="M188.2-60.2a11.4 11.4 0 1 1 0-22.7 11.4 11.4 0 0 1 0 22.7" fill="#EFF7F5F4"/><path d="M63.5-271.4a11.4 11.4 0 1 1 0-22.8 11.4 11.4 0 0 1 0 22.8" fill="#F6C8ACF5"/><path d="M205.4-199.4a11.4 11.4 0 1 1 0-22.9 11.4 11.4 0 0 1 0 22.9" fill="#2C4D5DF6"/><path d="M15.3-82.5a11.5 11.5 0 1 1 0-23 11.5 11.5 0 0 1 0 23" fill="#EFF7F5F7"/><path d="M180.8-83.5a11.5 11.5 0 1 1 0-23 11.5 11.5 0 0 1 0 23" fill="#F6C8ACF8"/><path d="M87.8-253.9a11.5 11.5 0 1 1 0-23 11.5 11.5 0 0 1 0 23" fill="#EF8F88F8"/><path d="M142.4-236.6a11.6 11.6 0 1 1 0-23.1 11.6 11.6 0 0 1 0 23.1" fill="#EFF7F5F9"/><path d="M131.7-64.9a11.6 11.6 0 1 1 0-23.2 11.6 11.6 0 0 1 0 23.2" fill="#2C4D5DF9"/><path d="M182.1-149.2a11.6 11.6 0 1 1 0-23.2 11.6 11.6 0 0 1 0 23.2" fill="#EF8F88FA"/><path d="M31.8-111.7a11.6 11.6 0 1 1 0-23.3 11.6 11.6 0 0 1 0 23.3" fill="#F6C8ACFB"/><path d="M28.2-174.8a11.7 11.7 0 1 1 0-23.3 11.7 11.7 0 0 1 0 23.3" fill="#6E819EFB"/><path d="M147.2-171.7a11.7 11.7 0 1 1 0-23.5 11.7 11.7 0 0 1 0 23.5" fill="#EFF7F5FD"/></g></svg>