<svg width="1200" height="675" viewBox="-500 -500 1200 675" xmlns="http://www.w3.org/2000/svg"><path d="M-500-500h1200v675h-1200z" fill="#000"/><style>.sparkles path{stroke-linecap:round; stroke-width:1}</style><g class="sparkles"><path d="M100-162.5l-3.8 37.6" stroke="#fff50032"/><path d="M100-162.5l15.2-40.8" stroke="#fff50032"/><path d="M100-162.5l7.1 56.8" stroke="#fff33"/><path d="M100-162.5l-19.6-102.3" stroke="#fff50037"/><path d="M100-162.5l-80.7 66" stroke="#fff37"/><path d="M100-162.5l9.5-109" stroke="#fff50037"/><path d="M100-162.5l-17.3-120.7" stroke="#005bbb39"/><path d="M100-162.5l-132-48.4" stroke="#fff5003B"/><path d="M100-162.5l109.8-89.1" stroke="#005bbb3B"/><path d="M100-162.5l-53.2-134.3" stroke="#c2e1ff3C"/><path d="M100-162.5l41.7 138.4" stroke="#005bbb3C"/><path d="M100-162.5l-11.5-145.7" stroke="#005bbb3C"/><path d="M100-162.5l-146.3-17" stroke="#005bbb3C"/><path d="M100-162.5l-120.1 90.3" stroke="#fff5003D"/><path d="M100-162.5l6.9 150.2" stroke="#fff3D"/><path d="M100-162.5l-63.2-140.9" stroke="#c2e1ff3E"/><path d="M100-162.5l-41.3 153.6" stroke="#fff5003F"/><path d="M100-162.5l-155.3-50.4" stroke="#fff5003F"/><path d="M100-162.5l23.1-162.4" stroke="#c2e1ff40"/><path d="M100-162.5l-99-134.9" stroke="#fff50040"/><path d="M100-162.5l36 164.8" stroke="#fff40"/><path d="M100-162.5l-17.9 168.2" stroke="#005bbb41"/><path d="M100-162.5l-152-81.7" stroke="#fff50041"/><path d="M100-162.5l172.7 28.1" stroke="#fff50042"/><path d="M100-162.5l161.9 78.1" stroke="#c2e1ff43"/><path d="M100-162.5l111.3 148.3" stroke="#c2e1ff45"/><path d="M100-162.5l-181.2-50.4" stroke="#005bbb45"/><path d="M100-162.5l188.5 0" stroke="#fff45"/><path d="M100-162.5l-91.8 165.6" stroke="#005bbb46"/><path d="M100-162.5l172.5 83.1" stroke="#c2e1ff46"/><path d="M100-162.5l47.7-186.1" stroke="#fff46"/><path d="M100-162.5l-171.9-92" stroke="#fff47"/><path d="M100-162.5l-194.3-19.2" stroke="#fff47"/><path d="M100-162.5l177.1-88.7" stroke="#005bbb48"/><path d="M100-162.5l51.2-191.9" stroke="#c2e1ff48"/><path d="M100-162.5l196 44.8" stroke="#005bbb49"/><path d="M100-162.5l99.5 174.8" stroke="#fff49"/><path d="M100-162.5l-136.3 152.5" stroke="#005bbb4A"/><path d="M100-162.5l-114.9-170.2" stroke="#005bbb4B"/><path d="M100-162.5l188.6-84.6" stroke="#fff4B"/><path d="M100-162.5l92.9 187.4" stroke="#005bbb4C"/><path d="M100-162.5l203.2 57.8" stroke="#fff4D"/><path d="M100-162.5l162.5-136.5" stroke="#c2e1ff4E"/><path d="M100-162.5l213.9 21.9" stroke="#fff4F"/><path d="M100-162.5l-155.1 152" stroke="#c2e1ff50"/><path d="M100-162.5l14.9 217.9" stroke="#c2e1ff50"/><path d="M100-162.5l-218.9 22.1" stroke="#fff51"/><path d="M100-162.5l-67.8-209.6" stroke="#fff51"/><path d="M100-162.5l127.1-181.6" stroke="#005bbb52"/><path d="M100-162.5l73.5-209.2" stroke="#fff52"/><path d="M100-162.5l150.9 163.2" stroke="#fff53"/><path d="M100-162.5l-138.7-174.4" stroke="#fff53"/><path d="M100-162.5l217-52.2" stroke="#005bbb53"/><path d="M100-162.5l-223.3 15.6" stroke="#c2e1ff54"/><path d="M100-162.5l-124.9-186.7" stroke="#c2e1ff54"/><path d="M100-162.5l-73.9 213" stroke="#005bbb55"/><path d="M100-162.5l127.8-185.8" stroke="#005bbb55"/><path d="M100-162.5l25.5-224.4" stroke="#005bbb55"/><path d="M100-162.5l225.6 25.8" stroke="#fff50056"/><path d="M100-162.5l-106.2 201.3" stroke="#005bbb56"/><path d="M100-162.5l-211-86.8" stroke="#c2e1ff56"/><path d="M100-162.5l223.3-53.1" stroke="#fff58"/><path d="M100-162.5l74.5-217.3" stroke="#005bbb58"/><path d="M100-162.5l-103.3 205.4" stroke="#c2e1ff58"/><path d="M100-162.5l-114.7 199.8" stroke="#005bbb58"/><path d="M100-162.5l227.2 38.9" stroke="#fff50059"/><path d="M100-162.5l-137.4 185.3" stroke="#fff59"/><path d="M100-162.5l-104.4-205.8" stroke="#c2e1ff59"/><path d="M100-162.5l225.5-50.7" stroke="#005bbb59"/><path d="M100-162.5l-81.7-216.3" stroke="#fff59"/><path d="M100-162.5l20.2-230.5" stroke="#fff50059"/><path d="M100-162.5l119.2 198.9" stroke="#c2e1ff5A"/><path d="M100-162.5l-88.9-214.9" stroke="#fff5B"/><path d="M100-162.5l-44.3-228.6" stroke="#005bbb5B"/><path d="M100-162.5l-192.6 131.8" stroke="#fff5005C"/><path d="M100-162.5l229.8-40.8" stroke="#c2e1ff5C"/><path d="M100-162.5l-217.8-84.4" stroke="#fff5005C"/><path d="M100-162.5l-207.2 109.5" stroke="#005bbb5D"/><path d="M100-162.5l206.9 110.2" stroke="#fff5005D"/><path d="M100-162.5l-234.8-2.9" stroke="#fff5E"/><path d="M100-162.5l144.3 185.4" stroke="#005bbb5E"/><path d="M100-162.5l-20-234.5" stroke="#fff5F"/><path d="M100-162.5l-207 112.7" stroke="#fff50060"/><path d="M100-162.5l118.4-203.9" stroke="#fff60"/><path d="M100-162.5l-109.2 209.1" stroke="#fff61"/><path d="M100-162.5l144.5-186.5" stroke="#fff61"/><path d="M100-162.5l210.3-107.1" stroke="#c2e1ff61"/><path d="M100-162.5l232.2 43" stroke="#fff50062"/><path d="M100-162.5l-85.3 220.2" stroke="#c2e1ff62"/><path d="M100-162.5l-235.4-18.8" stroke="#c2e1ff62"/><path d="M100-162.5l-185.9 145.7" stroke="#fff50063"/><path d="M100-162.5l-96.9 215.5" stroke="#fff63"/><path d="M100-162.5l-47.4 231.4" stroke="#c2e1ff64"/><path d="M100-162.5l226.8 66.3" stroke="#005bbb64"/><path d="M100-162.5l114-206.9" stroke="#005bbb64"/><path d="M100-162.5l184.3 147.8" stroke="#fff50064"/><path d="M100-162.5l-152.9-179.8" stroke="#fff66"/><path d="M100-162.5l-163.1-170.5" stroke="#c2e1ff66"/><path d="M100-162.5l198.5-127.6" stroke="#c2e1ff66"/><path d="M100-162.5l231.9 43.4" stroke="#fff66"/><path d="M100-162.5l222.5 78.2" stroke="#fff66"/><path d="M100-162.5l235 7.3" stroke="#005bbb68"/><path d="M100-162.5l-201 121.4" stroke="#c2e1ff69"/><path d="M100-162.5l-59.5-226.5" stroke="#fff6A"/><path d="M100-162.5l-228-52.5" stroke="#c2e1ff6A"/><path d="M100-162.5l103.1 209.7" stroke="#fff6B"/><path d="M100-162.5l120 200.3" stroke="#c2e1ff6B"/><path d="M100-162.5l53 227.3" stroke="#fff5006B"/><path d="M100-162.5l-198.8-122.2" stroke="#005bbb6B"/><path d="M100-162.5l-31.7 231" stroke="#fff5006C"/><path d="M100-162.5l195.9 126.1" stroke="#c2e1ff6C"/><path d="M100-162.5l199.5-119.3" stroke="#005bbb6C"/><path d="M100-162.5l67.1-221.8" stroke="#005bbb6D"/><path d="M100-162.5l-129.5-191.6" stroke="#c2e1ff6E"/><path d="M100-162.5l229.2 13" stroke="#fff6F"/><path d="M100-162.5l-228.1 15.9" stroke="#005bbb70"/><path d="M100-162.5l126.4-190.4" stroke="#c2e1ff70"/><path d="M100-162.5l-191.1 120.5" stroke="#005bbb72"/><path d="M100-162.5l96.8 203.8" stroke="#fff50072"/><path d="M100-162.5l176.4 139.6" stroke="#c2e1ff73"/><path d="M100-162.5l203.7-94" stroke="#fff50073"/><path d="M100-162.5l-58.6-216.5" stroke="#005bbb73"/><path d="M100-162.5l-17.8-223.5" stroke="#005bbb73"/><path d="M100-162.5l115.6-191.7" stroke="#fff50074"/><path d="M100-162.5l51.4-217.6" stroke="#fff50074"/><path d="M100-162.5l-205.5 86" stroke="#fff74"/><path d="M100-162.5l-176.7-134.8" stroke="#005bbb74"/><path d="M100-162.5l63-212" stroke="#fff50075"/><path d="M100-162.5l-36.5 217.8" stroke="#c2e1ff75"/><path d="M100-162.5l129.6 178.6" stroke="#005bbb75"/><path d="M100-162.5l206.9-75.5" stroke="#fff50076"/><path d="M100-162.5l65.8-209" stroke="#fff50076"/><path d="M100-162.5l151.8-155.7" stroke="#c2e1ff77"/><path d="M100-162.5l-62.6 208.1" stroke="#005bbb77"/><path d="M100-162.5l-34.2-214" stroke="#c2e1ff77"/><path d="M100-162.5l19.4-215.5" stroke="#fff50078"/><path d="M100-162.5l-198.1 82.3" stroke="#005bbb78"/><path d="M100-162.5l-213.8-16.3" stroke="#c2e1ff78"/><path d="M100-162.5l-212.8 15.8" stroke="#c2e1ff79"/><path d="M100-162.5l201 70.6" stroke="#005bbb79"/><path d="M100-162.5l-26-211.4" stroke="#fff79"/><path d="M100-162.5l189.4-96.3" stroke="#c2e1ff79"/><path d="M100-162.5l199.8-67.4" stroke="#fff5007A"/><path d="M100-162.5l207.7 29" stroke="#c2e1ff7B"/><path d="M100-162.5l-179.8 103.1" stroke="#c2e1ff7C"/><path d="M100-162.5l80.5 184.5" stroke="#fff5007E"/><path d="M100-162.5l161.5 114.4" stroke="#fff7F"/><path d="M100-162.5l-117.2-154.9" stroke="#005bbb80"/><path d="M100-162.5l37.6 189.2" stroke="#c2e1ff80"/><path d="M100-162.5l-7.4-191" stroke="#fff50081"/><path d="M100-162.5l163.8-97.7" stroke="#005bbb81"/><path d="M100-162.5l85.6-169.7" stroke="#fff50081"/><path d="M100-162.5l159.2-102.1" stroke="#c2e1ff81"/><path d="M100-162.5l15.3 187.3" stroke="#fff50082"/><path d="M100-162.5l182.8 42.8" stroke="#c2e1ff82"/><path d="M100-162.5l177.8 56.2" stroke="#c2e1ff82"/><path d="M100-162.5l-185.4-12.7" stroke="#fff82"/><path d="M100-162.5l-176.5 56.6" stroke="#005bbb82"/><path d="M100-162.5l179.1-21.5" stroke="#fff50084"/><path d="M100-162.5l165.2 52.5" stroke="#005bbb85"/><path d="M100-162.5l-160.9 58.8" stroke="#fff86"/><path d="M100-162.5l29.7-165.8" stroke="#fff87"/><path d="M100-162.5l151.9 47.8" stroke="#005bbb88"/><path d="M100-162.5l-57.4-147.1" stroke="#fff50089"/><path d="M100-162.5l33 153.5" stroke="#005bbb89"/><path d="M100-162.5l-45.1-148.2" stroke="#fff89"/><path d="M100-162.5l-112.9-105.7" stroke="#005bbb89"/><path d="M100-162.5l145.5-29.6" stroke="#fff5008A"/><path d="M100-162.5l-79.8 112.7" stroke="#fff5008C"/><path d="M100-162.5l21-128.8" stroke="#fff8D"/><path d="M100-162.5l-112.1-51.9" stroke="#fff8E"/><path d="M100-162.5l115.8 34.2" stroke="#fff5008E"/><path d="M100-162.5l-9.7 104.2" stroke="#fff90"/><path d="M100-162.5l41-90.6" stroke="#c2e1ff91"/><path d="M100-162.5l51.3 81.7" stroke="#fff91"/><path d="M100-162.5l17.9 78.9" stroke="#fff92"/><path d="M100-162.5l-55.6-37.8" stroke="#c2e1ff93"/><path d="M100-162.5l54.8-6.1" stroke="#c2e1ff94"/><path d="M100-162.5l-48.6 0.9" stroke="#c2e1ff94"/><path d="M100-162.5l10.3 34" stroke="#fff50095"/><path d="M100-162.5l-29.3 18.5" stroke="#c2e1ff95"/></g><g class="sparcs"><path d="M96.2-118.9a5.9 5.9 0 1 1 0-11.9 5.9 5.9 0 0 1 0 11.9" fill="#fff7D"/><path d="M115.2-197.3a6 6 0 1 1 0-11.9 6 6 0 0 1 0 11.9" fill="#fff7E"/><path d="M107.1-99.7a6 6 0 1 1 0-12 6 6 0 0 1 0 12" fill="#fff5007E"/><path d="M80.4-258.6a6.2 6.2 0 1 1 0-12.4 6.2 6.2 0 0 1 0 12.4" fill="#005bbb83"/><path d="M19.3-90.3a6.2 6.2 0 1 1 0-12.4 6.2 6.2 0 0 1 0 12.4" fill="#c2e1ff83"/><path d="M109.5-265.2a6.2 6.2 0 1 1 0-12.5 6.2 6.2 0 0 1 0 12.5" fill="#005bbb84"/><path d="M82.7-276.9a6.3 6.3 0 1 1 0-12.7 6.3 6.3 0 0 1 0 12.7" fill="#fff50086"/><path d="M-32-204.4a6.5 6.5 0 1 1 0-12.9 6.5 6.5 0 0 1 0 12.9" fill="#fff50089"/><path d="M209.8-245.1a6.5 6.5 0 1 1 0-13 6.5 6.5 0 0 1 0 13" fill="#fff50089"/><path d="M46.8-290.2a6.5 6.5 0 1 1 0-13.1 6.5 6.5 0 0 1 0 13.1" fill="#fff8A"/><path d="M141.7-17.6a6.5 6.5 0 1 1 0-13 6.5 6.5 0 0 1 0 13" fill="#005bbb8A"/><path d="M88.5-301.6a6.5 6.5 0 1 1 0-13.1 6.5 6.5 0 0 1 0 13.1" fill="#c2e1ff8A"/><path d="M-46.3-172.9a6.6 6.6 0 1 1 0-13.1 6.6 6.6 0 0 1 0 13.1" fill="#fff8B"/><path d="M-20.1-65.6a6.6 6.6 0 1 1 0-13.2 6.6 6.6 0 0 1 0 13.2" fill="#fff8B"/><path d="M106.9-5.7a6.6 6.6 0 1 1 0-13.1 6.6 6.6 0 0 1 0 13.1" fill="#fff8B"/><path d="M36.8-296.8a6.6 6.6 0 1 1 0-13.3 6.6 6.6 0 0 1 0 13.3" fill="#fff8C"/><path d="M58.7-2.2a6.7 6.7 0 1 1 0-13.3 6.7 6.7 0 0 1 0 13.3" fill="#fff5008D"/><path d="M-55.3-206.2a6.7 6.7 0 1 1 0-13.5 6.7 6.7 0 0 1 0 13.5" fill="#005bbb8F"/><path d="M123.1-318.2a6.7 6.7 0 1 1 0-13.5 6.7 6.7 0 0 1 0 13.5" fill="#005bbb8F"/><path d="M1-290.6a6.8 6.8 0 1 1 0-13.6 6.8 6.8 0 0 1 0 13.6" fill="#c2e1ff90"/><path d="M136 9.1a6.8 6.8 0 1 1 0-13.6 6.8 6.8 0 0 1 0 13.6" fill="#fff90"/><path d="M82.1 12.5a6.8 6.8 0 1 1 0-13.6 6.8 6.8 0 0 1 0 13.6" fill="#005bbb90"/><path d="M-52-237.4a6.8 6.8 0 1 1 0-13.7 6.8 6.8 0 0 1 0 13.7" fill="#fff50091"/><path d="M272.7-127.5a6.9 6.9 0 1 1 0-13.8 6.9 6.9 0 0 1 0 13.8" fill="#fff92"/><path d="M261.9-77.4a6.9 6.9 0 1 1 0-13.9 6.9 6.9 0 0 1 0 13.9" fill="#fff93"/><path d="M211.3-7.1a7 7 0 1 1 0-14.1 7 7 0 0 1 0 14.1" fill="#c2e1ff95"/><path d="M-81.2-205.9a7.1 7.1 0 1 1 0-14.1 7.1 7.1 0 0 1 0 14.1" fill="#fff96"/><path d="M288.5-155.4a7.1 7.1 0 1 1 0-14.2 7.1 7.1 0 0 1 0 14.2" fill="#005bbb96"/><path d="M8.2 10.2a7.1 7.1 0 1 1 0-14.1 7.1 7.1 0 0 1 0 14.1" fill="#fff50097"/><path d="M272.5-72.2a7.1 7.1 0 1 1 0-14.3 7.1 7.1 0 0 1 0 14.3" fill="#c2e1ff97"/><path d="M147.7-341.5a7.1 7.1 0 1 1 0-14.2 7.1 7.1 0 0 1 0 14.2" fill="#c2e1ff98"/><path d="M-71.9-247.3a7.2 7.2 0 1 1 0-14.4 7.2 7.2 0 0 1 0 14.4" fill="#fff50099"/><path d="M-94.3-174.5a7.2 7.2 0 1 1 0-14.4 7.2 7.2 0 0 1 0 14.4" fill="#fff50099"/><path d="M277.1-244a7.3 7.3 0 1 1 0-14.5 7.3 7.3 0 0 1 0 14.5" fill="#fff5009A"/><path d="M151.2-347.2a7.3 7.3 0 1 1 0-14.5 7.3 7.3 0 0 1 0 14.5" fill="#c2e1ff9A"/><path d="M296-110.4a7.3 7.3 0 1 1 0-14.6 7.3 7.3 0 0 1 0 14.6" fill="#c2e1ff9B"/><path d="M199.5 19.6a7.3 7.3 0 1 1 0-14.6 7.3 7.3 0 0 1 0 14.6" fill="#005bbb9B"/><path d="M-36.3-2.6a7.4 7.4 0 1 1 0-14.8 7.4 7.4 0 0 1 0 14.8" fill="#c2e1ff9D"/><path d="M-14.9-325.3a7.4 7.4 0 1 1 0-14.8 7.4 7.4 0 0 1 0 14.8" fill="#c2e1ff9D"/><path d="M288.6-239.6a7.4 7.4 0 1 1 0-14.9 7.4 7.4 0 0 1 0 14.9" fill="#c2e1ff9E"/><path d="M192.9 32.4a7.5 7.5 0 1 1 0-15 7.5 7.5 0 0 1 0 15" fill="#fff5009F"/><path d="M303.2-97.1a7.5 7.5 0 1 1 0-15.1 7.5 7.5 0 0 1 0 15.1" fill="#fffA0"/><path d="M262.5-291.5a7.6 7.6 0 1 1 0-15.1 7.6 7.6 0 0 1 0 15.1" fill="#c2e1ffA1"/><path d="M313.9-133a7.6 7.6 0 1 1 0-15.3 7.6 7.6 0 0 1 0 15.3" fill="#c2e1ffA3"/><path d="M-55.1-2.8a7.7 7.7 0 1 1 0-15.4 7.7 7.7 0 0 1 0 15.4" fill="#c2e1ffA4"/><path d="M114.9 63.1a7.7 7.7 0 1 1 0-15.5 7.7 7.7 0 0 1 0 15.5" fill="#c2e1ffA5"/><path d="M-118.9-132.6a7.8 7.8 0 1 1 0-15.6 7.8 7.8 0 0 1 0 15.6" fill="#fff500A6"/><path d="M32.2-364.3a7.8 7.8 0 1 1 0-15.5 7.8 7.8 0 0 1 0 15.5" fill="#005bbbA6"/><path d="M227.1-336.3a7.8 7.8 0 1 1 0-15.7 7.8 7.8 0 0 1 0 15.7" fill="#fffA7"/><path d="M173.5-363.9a7.8 7.8 0 1 1 0-15.7 7.8 7.8 0 0 1 0 15.7" fill="#c2e1ffA7"/><path d="M250.9 8.5a7.9 7.9 0 1 1 0-15.7 7.9 7.9 0 0 1 0 15.7" fill="#005bbbA7"/><path d="M-38.7-329a7.9 7.9 0 1 1 0-15.8 7.9 7.9 0 0 1 0 15.8" fill="#fffA8"/><path d="M317-206.8a7.9 7.9 0 1 1 0-15.8 7.9 7.9 0 0 1 0 15.8" fill="#c2e1ffA8"/><path d="M-123.3-139a7.9 7.9 0 1 1 0-15.8 7.9 7.9 0 0 1 0 15.8" fill="#005bbbA9"/><path d="M-24.9-341.2a7.9 7.9 0 1 1 0-15.9 7.9 7.9 0 0 1 0 15.9" fill="#fffA9"/><path d="M26.1 58.5a8 8 0 1 1 0-16 8 8 0 0 1 0 16" fill="#005bbbAA"/><path d="M227.8-340.4a8 8 0 1 1 0-15.9 8 8 0 0 1 0 15.9" fill="#c2e1ffAA"/><path d="M125.5-378.9a8 8 0 1 1 0-16 8 8 0 0 1 0 16" fill="#005bbbAA"/><path d="M325.6-128.6a8 8 0 1 1 0-16.1 8 8 0 0 1 0 16.1" fill="#c2e1ffAC"/><path d="M-6.2 46.9a8.1 8.1 0 1 1 0-16.1 8.1 8.1 0 0 1 0 16.1" fill="#fffAC"/><path d="M-111-241.2a8.1 8.1 0 1 1 0-16.2 8.1 8.1 0 0 1 0 16.2" fill="#005bbbAD"/><path d="M323.3-207.4a8.2 8.2 0 1 1 0-16.4 8.2 8.2 0 0 1 0 16.4" fill="#c2e1ffAE"/><path d="M174.5-371.7a8.2 8.2 0 1 1 0-16.3 8.2 8.2 0 0 1 0 16.3" fill="#005bbbAE"/><path d="M-3.3 51.1a8.2 8.2 0 1 1 0-16.4 8.2 8.2 0 0 1 0 16.4" fill="#fffAF"/><path d="M-14.7 45.5a8.2 8.2 0 1 1 0-16.4 8.2 8.2 0 0 1 0 16.4" fill="#c2e1ffAF"/><path d="M327.2-115.4a8.2 8.2 0 1 1 0-16.4 8.2 8.2 0 0 1 0 16.4" fill="#fffAF"/><path d="M-37.4 31a8.2 8.2 0 1 1 0-16.4 8.2 8.2 0 0 1 0 16.4" fill="#c2e1ffAF"/><path d="M-4.4-360.1a8.2 8.2 0 1 1 0-16.4 8.2 8.2 0 0 1 0 16.4" fill="#005bbbB0"/><path d="M325.5-204.9a8.2 8.2 0 1 1 0-16.5 8.2 8.2 0 0 1 0 16.5" fill="#fff500B0"/><path d="M18.3-370.6a8.3 8.3 0 1 1 0-16.5 8.3 8.3 0 0 1 0 16.5" fill="#005bbbB0"/><path d="M120.2-384.7a8.3 8.3 0 1 1 0-16.5 8.3 8.3 0 0 1 0 16.5" fill="#fff500B0"/><path d="M219.2 44.7a8.3 8.3 0 1 1 0-16.6 8.3 8.3 0 0 1 0 16.6" fill="#005bbbB1"/><path d="M11.1-369.1a8.3 8.3 0 1 1 0-16.7 8.3 8.3 0 0 1 0 16.7" fill="#fff500B2"/><path d="M55.7-382.7a8.4 8.4 0 1 1 0-16.8 8.4 8.4 0 0 1 0 16.8" fill="#fff500B3"/><path d="M-92.6-22.3a8.4 8.4 0 1 1 0-16.8 8.4 8.4 0 0 1 0 16.8" fill="#005bbbB3"/><path d="M329.8-194.9a8.4 8.4 0 1 1 0-16.8 8.4 8.4 0 0 1 0 16.8" fill="#fffB3"/><path d="M-117.8-238.5a8.4 8.4 0 1 1 0-16.8 8.4 8.4 0 0 1 0 16.8" fill="#fff500B4"/><path d="M-107.2-44.5a8.5 8.5 0 1 1 0-17 8.5 8.5 0 0 1 0 17" fill="#c2e1ffB5"/><path d="M306.9-43.8a8.5 8.5 0 1 1 0-16.9 8.5 8.5 0 0 1 0 16.9" fill="#fffB5"/><path d="M-134.8-156.9a8.5 8.5 0 1 1 0-17 8.5 8.5 0 0 1 0 17" fill="#fffB6"/><path d="M244.3 31.5a8.5 8.5 0 1 1 0-17.1 8.5 8.5 0 0 1 0 17.1" fill="#fffB7"/><path d="M80-388.4a8.6 8.6 0 1 1 0-17.2 8.6 8.6 0 0 1 0 17.2" fill="#fff500B8"/><path d="M-107-41.2a8.7 8.7 0 1 1 0-17.3 8.7 8.7 0 0 1 0 17.3" fill="#c2e1ffB9"/><path d="M218.4-357.8a8.7 8.7 0 1 1 0-17.3 8.7 8.7 0 0 1 0 17.3" fill="#fff500BA"/><path d="M-9.2 55.3a8.7 8.7 0 1 1 0-17.4 8.7 8.7 0 0 1 0 17.4" fill="#005bbbBA"/><path d="M244.5-340.3a8.7 8.7 0 1 1 0-17.4 8.7 8.7 0 0 1 0 17.4" fill="#fffBA"/><path d="M310.3-260.9a8.7 8.7 0 1 1 0-17.5 8.7 8.7 0 0 1 0 17.5" fill="#fff500BB"/><path d="M332.2-110.8a8.8 8.8 0 1 1 0-17.5 8.8 8.8 0 0 1 0 17.5" fill="#fffBB"/><path d="M14.7 66.5a8.8 8.8 0 1 1 0-17.6 8.8 8.8 0 0 1 0 17.6" fill="#c2e1ffBC"/><path d="M-135.4-172.5a8.8 8.8 0 1 1 0-17.6 8.8 8.8 0 0 1 0 17.6" fill="#fffBC"/><path d="M-85.9-8a8.8 8.8 0 1 1 0-17.6 8.8 8.8 0 0 1 0 17.6" fill="#c2e1ffBC"/><path d="M3.1 61.8a8.8 8.8 0 1 1 0-17.7 8.8 8.8 0 0 1 0 17.7" fill="#fff500BD"/><path d="M52.6 77.8a8.9 8.9 0 1 1 0-17.7 8.9 8.9 0 0 1 0 17.7" fill="#fff500BE"/><path d="M326.8-87.3a8.9 8.9 0 1 1 0-17.8 8.9 8.9 0 0 1 0 17.8" fill="#fffBE"/><path d="M214-360.6a8.9 8.9 0 1 1 0-17.7 8.9 8.9 0 0 1 0 17.7" fill="#fff500BE"/><path d="M284.3-5.8a8.9 8.9 0 1 1 0-17.8 8.9 8.9 0 0 1 0 17.8" fill="#fffBF"/><path d="M-52.9-333.3a9 9 0 1 1 0-18 9 9 0 0 1 0 18" fill="#fffC0"/><path d="M-63.1-324a9 9 0 1 1 0-18 9 9 0 0 1 0 18" fill="#fffC1"/><path d="M298.5-281a9 9 0 1 1 0-18.1 9 9 0 0 1 0 18.1" fill="#fffC1"/><path d="M331.9-110.1a9 9 0 1 1 0-18 9 9 0 0 1 0 18" fill="#c2e1ffC1"/><path d="M322.5-75.2a9 9 0 1 1 0-18.1 9 9 0 0 1 0 18.1" fill="#c2e1ffC1"/><path d="M335-146a9.2 9.2 0 1 1 0-18.3 9.2 9.2 0 0 1 0 18.3" fill="#fff500C4"/><path d="M-101-31.9a9.2 9.2 0 1 1 0-18.4 9.2 9.2 0 0 1 0 18.4" fill="#005bbbC5"/><path d="M40.5-379.8a9.2 9.2 0 1 1 0-18.5 9.2 9.2 0 0 1 0 18.5" fill="#005bbbC6"/><path d="M-128-205.7a9.3 9.3 0 1 1 0-18.6 9.3 9.3 0 0 1 0 18.6" fill="#005bbbC6"/><path d="M203.1 56.5a9.3 9.3 0 1 1 0-18.6 9.3 9.3 0 0 1 0 18.6" fill="#005bbbC7"/><path d="M220 47.1a9.3 9.3 0 1 1 0-18.6 9.3 9.3 0 0 1 0 18.6" fill="#005bbbC7"/><path d="M153 74.1a9.3 9.3 0 1 1 0-18.7 9.3 9.3 0 0 1 0 18.7" fill="#fffC8"/><path d="M-98.8-275.3a9.3 9.3 0 1 1 0-18.7 9.3 9.3 0 0 1 0 18.7" fill="#fffC8"/><path d="M68.3 77.8a9.3 9.3 0 1 1 0-18.7 9.3 9.3 0 0 1 0 18.7" fill="#fffC8"/><path d="M295.9-27.1a9.4 9.4 0 1 1 0-18.7 9.4 9.4 0 0 1 0 18.7" fill="#005bbbC8"/><path d="M299.5-272.4a9.4 9.4 0 1 1 0-18.8 9.4 9.4 0 0 1 0 18.8" fill="#005bbbC9"/><path d="M167.1-374.8a9.4 9.4 0 1 1 0-18.9 9.4 9.4 0 0 1 0 18.9" fill="#fff500CA"/><path d="M-29.5-344.6a9.5 9.5 0 1 1 0-19 9.5 9.5 0 0 1 0 19" fill="#005bbbCB"/><path d="M329.2-139.9a9.6 9.6 0 1 1 0-19.1 9.6 9.6 0 0 1 0 19.1" fill="#c2e1ffCD"/><path d="M-128.1-137a9.6 9.6 0 1 1 0-19.2 9.6 9.6 0 0 1 0 19.2" fill="#c2e1ffCE"/><path d="M226.4-343.3a9.6 9.6 0 1 1 0-19.2 9.6 9.6 0 0 1 0 19.2" fill="#005bbbCE"/><path d="M-91.1-32.2a9.7 9.7 0 1 1 0-19.5 9.7 9.7 0 0 1 0 19.5" fill="#005bbbD1"/><path d="M196.8 51.1a9.7 9.7 0 1 1 0-19.5 9.7 9.7 0 0 1 0 19.5" fill="#c2e1ffD1"/><path d="M276.4-13.2a9.8 9.8 0 1 1 0-19.5 9.8 9.8 0 0 1 0 19.5" fill="#c2e1ffD1"/><path d="M303.7-246.7a9.8 9.8 0 1 1 0-19.6 9.8 9.8 0 0 1 0 19.6" fill="#fff500D2"/><path d="M41.4-369.2a9.8 9.8 0 1 1 0-19.6 9.8 9.8 0 0 1 0 19.6" fill="#005bbbD2"/><path d="M82.2-376.2a9.8 9.8 0 1 1 0-19.6 9.8 9.8 0 0 1 0 19.6" fill="#fff500D2"/><path d="M215.6-344.4a9.8 9.8 0 1 1 0-19.6 9.8 9.8 0 0 1 0 19.6" fill="#c2e1ffD2"/><path d="M151.4-370.3a9.8 9.8 0 1 1 0-19.6 9.8 9.8 0 0 1 0 19.6" fill="#c2e1ffD3"/><path d="M-105.5-66.6a9.8 9.8 0 1 1 0-19.7 9.8 9.8 0 0 1 0 19.7" fill="#fff500D3"/><path d="M-76.7-287.5a9.9 9.9 0 1 1 0-19.7 9.9 9.9 0 0 1 0 19.7" fill="#fffD4"/><path d="M163-364.6a9.9 9.9 0 1 1 0-19.8 9.9 9.9 0 0 1 0 19.8" fill="#c2e1ffD4"/><path d="M63.5 65.2a9.9 9.9 0 1 1 0-19.8 9.9 9.9 0 0 1 0 19.8" fill="#c2e1ffD5"/><path d="M229.6 26.1a9.9 9.9 0 1 1 0-19.9 9.9 9.9 0 0 1 0 19.9" fill="#005bbbD5"/><path d="M306.9-228.1a9.9 9.9 0 1 1 0-19.9 9.9 9.9 0 0 1 0 19.9" fill="#005bbbD5"/><path d="M165.8-361.5a10 10 0 1 1 0-20 10 10 0 0 1 0 20" fill="#c2e1ffD6"/><path d="M251.8-308.2a10 10 0 1 1 0-20 10 10 0 0 1 0 20" fill="#fffD7"/><path d="M37.4 55.6a10 10 0 1 1 0-20 10 10 0 0 1 0 20" fill="#c2e1ffD7"/><path d="M65.8-366.5a10 10 0 1 1 0-20 10 10 0 0 1 0 20" fill="#fffD7"/><path d="M119.4-367.9a10 10 0 1 1 0-20.1 10 10 0 0 1 0 20.1" fill="#005bbbD8"/><path d="M-98.1-70.1a10.1 10.1 0 1 1 0-20.2 10.1 10.1 0 0 1 0 20.2" fill="#005bbbD9"/><path d="M-113.8-168.7a10.1 10.1 0 1 1 0-20.2 10.1 10.1 0 0 1 0 20.2" fill="#c2e1ffD9"/><path d="M-112.8-136.5a10.1 10.1 0 1 1 0-20.3 10.1 10.1 0 0 1 0 20.3" fill="#c2e1ffD9"/><path d="M301-81.8a10.1 10.1 0 1 1 0-20.2 10.1 10.1 0 0 1 0 20.2" fill="#fff500DA"/><path d="M74-363.7a10.1 10.1 0 1 1 0-20.3 10.1 10.1 0 0 1 0 20.3" fill="#005bbbDA"/><path d="M289.4-248.6a10.1 10.1 0 1 1 0-20.3 10.1 10.1 0 0 1 0 20.3" fill="#fff500DA"/><path d="M299.8-219.7a10.2 10.2 0 1 1 0-20.4 10.2 10.2 0 0 1 0 20.4" fill="#fffDB"/><path d="M307.7-123.3a10.2 10.2 0 1 1 0-20.5 10.2 10.2 0 0 1 0 20.5" fill="#005bbbDB"/><path d="M-79.8-49.1a10.3 10.3 0 1 1 0-20.6 10.3 10.3 0 0 1 0 20.6" fill="#fff500DD"/><path d="M180.5 32.4a10.4 10.4 0 1 1 0-20.9 10.4 10.4 0 0 1 0 20.9" fill="#fffE0"/><path d="M261.5-37.6a10.5 10.5 0 1 1 0-21 10.5 10.5 0 0 1 0 21" fill="#fffE1"/><path d="M-17.2-306.9a10.5 10.5 0 1 1 0-21.1 10.5 10.5 0 0 1 0 21.1" fill="#005bbbE2"/><path d="M137.6 37.3a10.6 10.6 0 1 1 0-21.1 10.6 10.6 0 0 1 0 21.1" fill="#fffE3"/><path d="M92.6-342.9a10.6 10.6 0 1 1 0-21.2 10.6 10.6 0 0 1 0 21.2" fill="#fffE4"/><path d="M263.8-249.6a10.6 10.6 0 1 1 0-21.2 10.6 10.6 0 0 1 0 21.2" fill="#005bbbE4"/><path d="M185.6-321.6a10.6 10.6 0 1 1 0-21.2 10.6 10.6 0 0 1 0 21.2" fill="#fffE4"/><path d="M259.2-254a10.6 10.6 0 1 1 0-21.2 10.6 10.6 0 0 1 0 21.2" fill="#c2e1ffE4"/><path d="M115.3 35.4a10.6 10.6 0 1 1 0-21.3 10.6 10.6 0 0 1 0 21.3" fill="#fffE5"/><path d="M282.8-109a10.7 10.7 0 1 1 0-21.3 10.7 10.7 0 0 1 0 21.3" fill="#005bbbE5"/><path d="M277.8-95.6a10.7 10.7 0 1 1 0-21.4 10.7 10.7 0 0 1 0 21.4" fill="#fff500E5"/><path d="M-85.4-164.5a10.7 10.7 0 1 1 0-21.3 10.7 10.7 0 0 1 0 21.3" fill="#005bbbE6"/><path d="M-76.5-95.2a10.7 10.7 0 1 1 0-21.4 10.7 10.7 0 0 1 0 21.4" fill="#005bbbE6"/><path d="M279.1-173.2a10.8 10.8 0 1 1 0-21.6 10.8 10.8 0 0 1 0 21.6" fill="#005bbbE7"/><path d="M265.2-99.2a10.9 10.9 0 1 1 0-21.7 10.9 10.9 0 0 1 0 21.7" fill="#fff500EA"/><path d="M-60.9-92.8a10.9 10.9 0 1 1 0-21.8 10.9 10.9 0 0 1 0 21.8" fill="#005bbbEA"/><path d="M129.7-317.4a10.9 10.9 0 1 1 0-21.9 10.9 10.9 0 0 1 0 21.9" fill="#c2e1ffEB"/><path d="M251.9-103.7a11 11 0 1 1 0-22 11 11 0 0 1 0 22" fill="#c2e1ffEE"/><path d="M42.6-298.6a11.1 11.1 0 1 1 0-22.1 11.1 11.1 0 0 1 0 22.1" fill="#c2e1ffEE"/><path d="M133 2.1a11.1 11.1 0 1 1 0-22.2 11.1 11.1 0 0 1 0 22.2" fill="#fff500EE"/><path d="M54.9-299.6a11.1 11.1 0 1 1 0-22.2 11.1 11.1 0 0 1 0 22.2" fill="#005bbbEF"/><path d="M-12.9-257.2a11.1 11.1 0 1 1 0-22.1 11.1 11.1 0 0 1 0 22.1" fill="#fffEF"/><path d="M245.5-180.9a11.2 11.2 0 1 1 0-22.3 11.2 11.2 0 0 1 0 22.3" fill="#c2e1ffF0"/><path d="M20.2-38.6a11.3 11.3 0 1 1 0-22.5 11.3 11.3 0 0 1 0 22.5" fill="#fff500F2"/><path d="M121-280a11.3 11.3 0 1 1 0-22.6 11.3 11.3 0 0 1 0 22.6" fill="#fff500F4"/><path d="M-12.1-203a11.4 11.4 0 1 1 0-22.8 11.4 11.4 0 0 1 0 22.8" fill="#fff500F5"/><path d="M215.8-116.9a11.4 11.4 0 1 1 0-22.8 11.4 11.4 0 0 1 0 22.8" fill="#c2e1ffF5"/><path d="M90.3-46.8a11.5 11.5 0 1 1 0-23 11.5 11.5 0 0 1 0 23" fill="#fff500F8"/><path d="M141-241.6a11.5 11.5 0 1 1 0-23.1 11.5 11.5 0 0 1 0 23.1" fill="#fffF8"/><path d="M151.3-69.2a11.6 11.6 0 1 1 0-23.1 11.6 11.6 0 0 1 0 23.1" fill="#c2e1ffF9"/><path d="M117.9-71.9a11.6 11.6 0 1 1 0-23.3 11.6 11.6 0 0 1 0 23.3" fill="#fff500FB"/><path d="M44.4-188.6a11.7 11.7 0 1 1 0-23.3 11.7 11.7 0 0 1 0 23.3" fill="#005bbbFC"/><path d="M154.8-156.9a11.7 11.7 0 1 1 0-23.5 11.7 11.7 0 0 1 0 23.5" fill="#fff500FD"/><path d="M51.4-149.9a11.7 11.7 0 1 1 0-23.5 11.7 11.7 0 0 1 0 23.5" fill="#fff500FD"/><path d="M110.3-116.7a11.8 11.8 0 1 1 0-23.5 11.8 11.8 0 0 1 0 23.5" fill="#fffFE"/><path d="M70.7-132.2a11.8 11.8 0 1 1 0-23.5 11.8 11.8 0 0 1 0 23.5" fill="#fff500FE"/></g></svg>