<svg width="1200" height="675" viewBox="-500 -500 1200 675" xmlns="http://www.w3.org/2000/svg"><path d="M-500-500h1200v675h-1200z" fill="#000"/><style>.sparkles path{stroke-linecap:round; stroke-width:1}</style><g class="sparkles"><path d="M100-162.5l-25.8 11.8" stroke="#e5e5e532"/><path d="M100-162.5l36.1 38" stroke="#e5e5e533"/><path d="M100-162.5l50.2 33.5" stroke="#14213d33"/><path d="M100-162.5l-57.8 20.1" stroke="#14213d33"/><path d="M100-162.5l-21.4 58.5" stroke="#fca31133"/><path d="M100-162.5l37.7 52" stroke="#e5e5e533"/><path d="M100-162.5l37.4-55.6" stroke="#fca31134"/><path d="M100-162.5l66.4 41.5" stroke="#e5e5e534"/><path d="M100-162.5l46.6 77.5" stroke="#e5e5e535"/><path d="M100-162.5l21.2 95.7" stroke="#14213d36"/><path d="M100-162.5l104.1 17.4" stroke="#fca31137"/><path d="M100-162.5l-25.8-103.7" stroke="#14213d37"/><path d="M100-162.5l1.9-111.7" stroke="#11223337"/><path d="M100-162.5l-30 112.4" stroke="#fca31138"/><path d="M100-162.5l-103.2 60.7" stroke="#e5e5e538"/><path d="M100-162.5l38.2-123.5" stroke="#e5e5e53A"/><path d="M100-162.5l-107.4-73.3" stroke="#ffffff3A"/><path d="M100-162.5l121.7-47.6" stroke="#1122333A"/><path d="M100-162.5l-57.4 121.3" stroke="#fca3113A"/><path d="M100-162.5l-109.3-79.7" stroke="#1122333B"/><path d="M100-162.5l-89.4 102.9" stroke="#e5e5e53B"/><path d="M100-162.5l54.2-126.1" stroke="#fca3113B"/><path d="M100-162.5l17.4-137.4" stroke="#ffffff3B"/><path d="M100-162.5l-67 125.5" stroke="#14213d3C"/><path d="M100-162.5l-105.3 100.4" stroke="#1122333C"/><path d="M100-162.5l78.5 123.1" stroke="#e5e5e53C"/><path d="M100-162.5l-137.5 55.6" stroke="#1122333D"/><path d="M100-162.5l87 120.7" stroke="#fca3113D"/><path d="M100-162.5l108.1-102.6" stroke="#ffffff3D"/><path d="M100-162.5l2.5 151.3" stroke="#e5e5e53D"/><path d="M100-162.5l106.6-111.1" stroke="#14213d3E"/><path d="M100-162.5l-28.8 153.5" stroke="#ffffff3E"/><path d="M100-162.5l138.8-77.1" stroke="#ffffff3E"/><path d="M100-162.5l-59.9 156.4" stroke="#e5e5e540"/><path d="M100-162.5l114.7 128.4" stroke="#e5e5e541"/><path d="M100-162.5l-173.3 10.4" stroke="#fca31142"/><path d="M100-162.5l-169.4 57" stroke="#11223343"/><path d="M100-162.5l167.1-64.7" stroke="#ffffff43"/><path d="M100-162.5l4.3 182.7" stroke="#11223344"/><path d="M100-162.5l12.6 182.3" stroke="#11223344"/><path d="M100-162.5l130.1 132.8" stroke="#ffffff45"/><path d="M100-162.5l-96.5-160.8" stroke="#ffffff45"/><path d="M100-162.5l18.3-189.7" stroke="#11223346"/><path d="M100-162.5l-26.9 190.4" stroke="#fca31146"/><path d="M100-162.5l106.7 159.9" stroke="#e5e5e546"/><path d="M100-162.5l58 183.3" stroke="#14213d46"/><path d="M100-162.5l-60.7 185.2" stroke="#fca31147"/><path d="M100-162.5l191.7-42.7" stroke="#ffffff48"/><path d="M100-162.5l-181 79.1" stroke="#14213d48"/><path d="M100-162.5l-132.9-148.3" stroke="#fca31149"/><path d="M100-162.5l194.4 46.8" stroke="#fca31149"/><path d="M100-162.5l85.5 182.7" stroke="#fca31149"/><path d="M100-162.5l169.7-113.3" stroke="#e5e5e54A"/><path d="M100-162.5l-187.7 84.6" stroke="#1122334B"/><path d="M100-162.5l191.8 82.7" stroke="#1122334C"/><path d="M100-162.5l-60.3-201" stroke="#fca3114D"/><path d="M100-162.5l201 65.2" stroke="#1122334D"/><path d="M100-162.5l-69 201.6" stroke="#e5e5e54E"/><path d="M100-162.5l-203.7-62.9" stroke="#1122334E"/><path d="M100-162.5l135.9 164.3" stroke="#fca3114E"/><path d="M100-162.5l-213.8-26.6" stroke="#e5e5e54F"/><path d="M100-162.5l-126 175.9" stroke="#ffffff4F"/><path d="M100-162.5l215.6 23.9" stroke="#fca31150"/><path d="M100-162.5l-138.2-171.5" stroke="#fca31151"/><path d="M100-162.5l220.3 20.6" stroke="#fca31152"/><path d="M100-162.5l-95.2-200.5" stroke="#fca31152"/><path d="M100-162.5l1.8-222.1" stroke="#e5e5e552"/><path d="M100-162.5l186.4-122.3" stroke="#e5e5e553"/><path d="M100-162.5l-120.6-188.1" stroke="#ffffff53"/><path d="M100-162.5l-222.8-24.9" stroke="#11223354"/><path d="M100-162.5l220.1-45.6" stroke="#fca31154"/><path d="M100-162.5l223.1-29.6" stroke="#fca31154"/><path d="M100-162.5l100-201.7" stroke="#11223354"/><path d="M100-162.5l13.9-225.1" stroke="#14213d55"/><path d="M100-162.5l113.7 194.8" stroke="#ffffff55"/><path d="M100-162.5l216.4-67.7" stroke="#ffffff55"/><path d="M100-162.5l-118.6 193.5" stroke="#e5e5e556"/><path d="M100-162.5l75.1-215" stroke="#ffffff56"/><path d="M100-162.5l225.6-31" stroke="#11223356"/><path d="M100-162.5l43 224.5" stroke="#ffffff57"/><path d="M100-162.5l-23.4 227.5" stroke="#ffffff57"/><path d="M100-162.5l214.9-79" stroke="#11223357"/><path d="M100-162.5l-190 130.1" stroke="#fca31158"/><path d="M100-162.5l160.1-165.7" stroke="#14213d58"/><path d="M100-162.5l-216.2 79.8" stroke="#11223358"/><path d="M100-162.5l199.6-122.1" stroke="#14213d5D"/><path d="M100-162.5l141.7 186.2" stroke="#1122335D"/><path d="M100-162.5l-164.7 167" stroke="#1122335E"/><path d="M100-162.5l200-122.6" stroke="#e5e5e55E"/><path d="M100-162.5l-15.1-234.3" stroke="#fca3115E"/><path d="M100-162.5l115.5 204.7" stroke="#ffffff5E"/><path d="M100-162.5l172.1-160.3" stroke="#fca3115F"/><path d="M100-162.5l-212.4 101.3" stroke="#ffffff5F"/><path d="M100-162.5l-210.1-106.5" stroke="#11223360"/><path d="M100-162.5l7.9 235.6" stroke="#14213d60"/><path d="M100-162.5l181.8 150.1" stroke="#e5e5e560"/><path d="M100-162.5l197.4 129.1" stroke="#11223360"/><path d="M100-162.5l-217.5-91.3" stroke="#e5e5e561"/><path d="M100-162.5l100.8-213.6" stroke="#fca31162"/><path d="M100-162.5l236-6.1" stroke="#ffffff65"/><path d="M100-162.5l-83.5-220.8" stroke="#e5e5e565"/><path d="M100-162.5l-221.7-80.2" stroke="#e5e5e567"/><path d="M100-162.5l-10.8 235.3" stroke="#14213d67"/><path d="M100-162.5l-197.3 125.5" stroke="#fca3116B"/><path d="M100-162.5l-228.8 39.5" stroke="#1122336D"/><path d="M100-162.5l-229.6 31.1" stroke="#ffffff6D"/><path d="M100-162.5l-218.4 76.7" stroke="#e5e5e56D"/><path d="M100-162.5l228.9 25.4" stroke="#ffffff6F"/><path d="M100-162.5l-184.6 137.1" stroke="#ffffff6F"/><path d="M100-162.5l-99.5 206.1" stroke="#fca31170"/><path d="M100-162.5l95-206.8" stroke="#ffffff71"/><path d="M100-162.5l-75.2 213.9" stroke="#e5e5e572"/><path d="M100-162.5l136.5 180.7" stroke="#14213d72"/><path d="M100-162.5l-129.8-184.8" stroke="#ffffff72"/><path d="M100-162.5l79.3-210.6" stroke="#ffffff73"/><path d="M100-162.5l221.1 37.6" stroke="#14213d73"/><path d="M100-162.5l208.4-82.1" stroke="#ffffff73"/><path d="M100-162.5l219.3 45" stroke="#14213d73"/><path d="M100-162.5l130.9-181.3" stroke="#14213d74"/><path d="M100-162.5l89.4-204" stroke="#14213d74"/><path d="M100-162.5l172.6-140.3" stroke="#e5e5e574"/><path d="M100-162.5l176.2-135.7" stroke="#11223374"/><path d="M100-162.5l221.2 7.9" stroke="#ffffff75"/><path d="M100-162.5l-126.1 181.9" stroke="#ffffff75"/><path d="M100-162.5l-8.2 220.5" stroke="#14213d75"/><path d="M100-162.5l149.1 160.8" stroke="#ffffff76"/><path d="M100-162.5l216.1-24.7" stroke="#e5e5e577"/><path d="M100-162.5l-184.8 113.6" stroke="#11223377"/><path d="M100-162.5l118.2 181.5" stroke="#11223377"/><path d="M100-162.5l140.9 162.7" stroke="#e5e5e578"/><path d="M100-162.5l213.4-10.4" stroke="#ffffff79"/><path d="M100-162.5l-173.2-124.9" stroke="#14213d79"/><path d="M100-162.5l-116.1-177.7" stroke="#ffffff79"/><path d="M100-162.5l-73.1 197.2" stroke="#ffffff7A"/><path d="M100-162.5l-209.3 17" stroke="#ffffff7A"/><path d="M100-162.5l-43.5-204.4" stroke="#fca3117B"/><path d="M100-162.5l-27.4-207" stroke="#fca3117B"/><path d="M100-162.5l199-57.8" stroke="#14213d7C"/><path d="M100-162.5l165.9 123.5" stroke="#fca3117C"/><path d="M100-162.5l28.4 204.6" stroke="#1122337C"/><path d="M100-162.5l1.3-204.5" stroke="#e5e5e57D"/><path d="M100-162.5l-125.7-160.6" stroke="#1122337D"/><path d="M100-162.5l37.5-199.6" stroke="#ffffff7D"/><path d="M100-162.5l154 131.8" stroke="#e5e5e57D"/><path d="M100-162.5l-86.9 181.3" stroke="#fca3117E"/><path d="M100-162.5l178.9 79.1" stroke="#fca31180"/><path d="M100-162.5l162.5 101.8" stroke="#fca31181"/><path d="M100-162.5l-172.6-82.4" stroke="#14213d81"/><path d="M100-162.5l18.8-190" stroke="#14213d81"/><path d="M100-162.5l101.1-160.4" stroke="#fca31181"/><path d="M100-162.5l4-189.4" stroke="#11223381"/><path d="M100-162.5l-88 164.9" stroke="#ffffff82"/><path d="M100-162.5l-143.3 118.3" stroke="#e5e5e582"/><path d="M100-162.5l185.2-7.8" stroke="#ffffff82"/><path d="M100-162.5l-135.9-124.5" stroke="#11223383"/><path d="M100-162.5l84.3-157.5" stroke="#e5e5e584"/><path d="M100-162.5l138.5-111.9" stroke="#ffffff84"/><path d="M100-162.5l-172.7-40.3" stroke="#ffffff85"/><path d="M100-162.5l-87-152.4" stroke="#fca31185"/><path d="M100-162.5l-161.2 46.2" stroke="#fca31187"/><path d="M100-162.5l-157.6-53.3" stroke="#fca31187"/><path d="M100-162.5l-82.6-141.5" stroke="#11223388"/><path d="M100-162.5l-58.4 152.7" stroke="#fca31188"/><path d="M100-162.5l-123.9-102" stroke="#11223388"/><path d="M100-162.5l6.4-157.9" stroke="#14213d89"/><path d="M100-162.5l134.7 75.9" stroke="#ffffff89"/><path d="M100-162.5l150.8 0" stroke="#14213d8A"/><path d="M100-162.5l89.5 120.9" stroke="#e5e5e58A"/><path d="M100-162.5l120.3-89" stroke="#14213d8A"/><path d="M100-162.5l49.9-140.8" stroke="#ffffff8A"/><path d="M100-162.5l-51.6-125.7" stroke="#14213d8C"/><path d="M100-162.5l-130.9 13.8" stroke="#1122338D"/><path d="M100-162.5l-67.5 104.2" stroke="#ffffff8E"/><path d="M100-162.5l-22.3-120.9" stroke="#14213d8E"/><path d="M100-162.5l108.7 47.9" stroke="#ffffff8F"/><path d="M100-162.5l-19.1-111.8" stroke="#14213d8F"/><path d="M100-162.5l-7.9-86.7" stroke="#ffffff92"/><path d="M100-162.5l3.5-66.5" stroke="#e5e5e593"/><path d="M100-162.5l57.1 24.9" stroke="#ffffff94"/><path d="M100-162.5l25.7 50.2" stroke="#14213d94"/><path d="M100-162.5l27.9-11.4" stroke="#fca31195"/></g><g class="sparcs"><path d="M74.2-144.8a5.9 5.9 0 1 1 0-11.8 5.9 5.9 0 0 1 0 11.8" fill="#ffffff7D"/><path d="M136.1-118.5a6 6 0 1 1 0-12 6 6 0 0 1 0 12" fill="#14213d7E"/><path d="M150.2-123a6 6 0 1 1 0-12 6 6 0 0 1 0 12" fill="#1122337F"/><path d="M42.2-136.4a6 6 0 1 1 0-12 6 6 0 0 1 0 12" fill="#1122337F"/><path d="M78.6-97.9a6 6 0 1 1 0-12.1 6 6 0 0 1 0 12.1" fill="#e5e5e57F"/><path d="M137.7-104.5a6 6 0 1 1 0-12 6 6 0 0 1 0 12" fill="#14213d7F"/><path d="M137.4-212.1a6 6 0 1 1 0-12 6 6 0 0 1 0 12" fill="#fca3117F"/><path d="M166.4-114.9a6.1 6.1 0 1 1 0-12.2 6.1 6.1 0 0 1 0 12.2" fill="#ffffff80"/><path d="M146.6-78.8a6.1 6.1 0 1 1 0-12.3 6.1 6.1 0 0 1 0 12.3" fill="#fca31181"/><path d="M121.2-60.6a6.2 6.2 0 1 1 0-12.4 6.2 6.2 0 0 1 0 12.4" fill="#fca31182"/><path d="M204.1-138.9a6.2 6.2 0 1 1 0-12.4 6.2 6.2 0 0 1 0 12.4" fill="#ffffff83"/><path d="M74.2-260a6.2 6.2 0 1 1 0-12.5 6.2 6.2 0 0 1 0 12.5" fill="#e5e5e584"/><path d="M101.9-267.9a6.3 6.3 0 1 1 0-12.5 6.3 6.3 0 0 1 0 12.5" fill="#e5e5e584"/><path d="M70-43.8a6.3 6.3 0 1 1 0-12.6 6.3 6.3 0 0 1 0 12.6" fill="#ffffff85"/><path d="M-3.2-95.5a6.3 6.3 0 1 1 0-12.6 6.3 6.3 0 0 1 0 12.6" fill="#11223385"/><path d="M138.2-279.6a6.4 6.4 0 1 1 0-12.7 6.4 6.4 0 0 1 0 12.7" fill="#ffffff87"/><path d="M-7.4-229.4a6.4 6.4 0 1 1 0-12.8 6.4 6.4 0 0 1 0 12.8" fill="#ffffff87"/><path d="M221.7-203.8a6.4 6.4 0 1 1 0-12.7 6.4 6.4 0 0 1 0 12.7" fill="#11223387"/><path d="M42.6-34.8a6.4 6.4 0 1 1 0-12.8 6.4 6.4 0 0 1 0 12.8" fill="#14213d88"/><path d="M-9.3-235.8a6.4 6.4 0 1 1 0-12.9 6.4 6.4 0 0 1 0 12.9" fill="#11223388"/><path d="M10.6-53.1a6.4 6.4 0 1 1 0-12.9 6.4 6.4 0 0 1 0 12.9" fill="#14213d88"/><path d="M154.2-282.1a6.5 6.5 0 1 1 0-12.9 6.5 6.5 0 0 1 0 12.9" fill="#fca31189"/><path d="M117.4-293.4a6.5 6.5 0 1 1 0-12.9 6.5 6.5 0 0 1 0 12.9" fill="#14213d89"/><path d="M33-30.5a6.5 6.5 0 1 1 0-13 6.5 6.5 0 0 1 0 13" fill="#1122338A"/><path d="M-5.3-55.6a6.5 6.5 0 1 1 0-13.1 6.5 6.5 0 0 1 0 13.1" fill="#1122338A"/><path d="M178.5-32.9a6.5 6.5 0 1 1 0-13 6.5 6.5 0 0 1 0 13" fill="#1122338A"/><path d="M-37.5-100.4a6.6 6.6 0 1 1 0-13.1 6.6 6.6 0 0 1 0 13.1" fill="#14213d8B"/><path d="M187-35.3a6.6 6.6 0 1 1 0-13.1 6.6 6.6 0 0 1 0 13.1" fill="#e5e5e58B"/><path d="M208.1-258.6a6.6 6.6 0 1 1 0-13.1 6.6 6.6 0 0 1 0 13.1" fill="#ffffff8B"/><path d="M102.5-4.6a6.6 6.6 0 1 1 0-13.2 6.6 6.6 0 0 1 0 13.2" fill="#14213d8C"/><path d="M206.6-267a6.6 6.6 0 1 1 0-13.2 6.6 6.6 0 0 1 0 13.2" fill="#e5e5e58C"/><path d="M71.2-2.4a6.6 6.6 0 1 1 0-13.3 6.6 6.6 0 0 1 0 13.3" fill="#e5e5e58D"/><path d="M238.8-232.9a6.7 6.7 0 1 1 0-13.3 6.7 6.7 0 0 1 0 13.3" fill="#1122338D"/><path d="M40.1 0.7a6.8 6.8 0 1 1 0-13.6 6.8 6.8 0 0 1 0 13.6" fill="#fca31190"/><path d="M214.7-27.2a6.8 6.8 0 1 1 0-13.7 6.8 6.8 0 0 1 0 13.7" fill="#fca31191"/><path d="M-73.3-145.3a6.9 6.9 0 1 1 0-13.7 6.9 6.9 0 0 1 0 13.7" fill="#e5e5e591"/><path d="M-69.4-98.5a6.9 6.9 0 1 1 0-13.9 6.9 6.9 0 0 1 0 13.9" fill="#14213d93"/><path d="M267.1-220.2a6.9 6.9 0 1 1 0-13.9 6.9 6.9 0 0 1 0 13.9" fill="#11223393"/><path d="M104.3 27.1a7 7 0 1 1 0-13.9 7 7 0 0 1 0 13.9" fill="#11223394"/><path d="M112.6 26.8a7 7 0 1 1 0-13.9 7 7 0 0 1 0 13.9" fill="#14213d94"/><path d="M230.1-22.7a7 7 0 1 1 0-14.1 7 7 0 0 1 0 14.1" fill="#fca31195"/><path d="M3.5-316.3a7.1 7.1 0 1 1 0-14.1 7.1 7.1 0 0 1 0 14.1" fill="#e5e5e596"/><path d="M118.3-345.1a7.1 7.1 0 1 1 0-14.2 7.1 7.1 0 0 1 0 14.2" fill="#ffffff97"/><path d="M73.1 35a7.1 7.1 0 1 1 0-14.3 7.1 7.1 0 0 1 0 14.3" fill="#e5e5e598"/><path d="M206.7 4.6a7.1 7.1 0 1 1 0-14.3 7.1 7.1 0 0 1 0 14.3" fill="#ffffff98"/><path d="M158 27.9a7.1 7.1 0 1 1 0-14.3 7.1 7.1 0 0 1 0 14.3" fill="#14213d98"/><path d="M39.3 29.9a7.2 7.2 0 1 1 0-14.3 7.2 7.2 0 0 1 0 14.3" fill="#e5e5e599"/><path d="M291.7-198a7.2 7.2 0 1 1 0-14.5 7.2 7.2 0 0 1 0 14.5" fill="#ffffff99"/><path d="M-81-76.1a7.2 7.2 0 1 1 0-14.5 7.2 7.2 0 0 1 0 14.5" fill="#fca3119A"/><path d="M-32.9-303.6a7.3 7.3 0 1 1 0-14.5 7.3 7.3 0 0 1 0 14.5" fill="#1122339B"/><path d="M294.4-108.4a7.3 7.3 0 1 1 0-14.5 7.3 7.3 0 0 1 0 14.5" fill="#1122339B"/><path d="M185.5 27.5a7.3 7.3 0 1 1 0-14.6 7.3 7.3 0 0 1 0 14.6" fill="#e5e5e59C"/><path d="M269.7-268.4a7.4 7.4 0 1 1 0-14.7 7.4 7.4 0 0 1 0 14.7" fill="#1122339D"/><path d="M-87.7-70.5a7.4 7.4 0 1 1 0-14.8 7.4 7.4 0 0 1 0 14.8" fill="#1122339E"/><path d="M291.8-72.3a7.5 7.5 0 1 1 0-15 7.5 7.5 0 0 1 0 15" fill="#14213d9F"/><path d="M39.7-356a7.5 7.5 0 1 1 0-15 7.5 7.5 0 0 1 0 15" fill="#112233A0"/><path d="M301-89.7a7.5 7.5 0 1 1 0-15.1 7.5 7.5 0 0 1 0 15.1" fill="#112233A0"/><path d="M31 46.7a7.6 7.6 0 1 1 0-15.2 7.6 7.6 0 0 1 0 15.2" fill="#112233A1"/><path d="M-103.7-217.8a7.6 7.6 0 1 1 0-15.2 7.6 7.6 0 0 1 0 15.2" fill="#e5e5e5A1"/><path d="M235.9 9.4a7.6 7.6 0 1 1 0-15.2 7.6 7.6 0 0 1 0 15.2" fill="#e5e5e5A2"/><path d="M-113.8-181.4a7.6 7.6 0 1 1 0-15.3 7.6 7.6 0 0 1 0 15.3" fill="#e5e5e5A3"/><path d="M-26 21.1a7.7 7.7 0 1 1 0-15.4 7.7 7.7 0 0 1 0 15.4" fill="#fca311A3"/><path d="M315.6-130.9a7.7 7.7 0 1 1 0-15.4 7.7 7.7 0 0 1 0 15.4" fill="#112233A4"/><path d="M-38.2-326.3a7.8 7.8 0 1 1 0-15.5 7.8 7.8 0 0 1 0 15.5" fill="#fca311A6"/><path d="M320.3-134a7.8 7.8 0 1 1 0-15.7 7.8 7.8 0 0 1 0 15.7" fill="#112233A7"/><path d="M4.8-355.2a7.8 7.8 0 1 1 0-15.7 7.8 7.8 0 0 1 0 15.7" fill="#fca311A7"/><path d="M101.8-376.8a7.9 7.9 0 1 1 0-15.7 7.9 7.9 0 0 1 0 15.7" fill="#fca311A7"/><path d="M286.4-277a7.9 7.9 0 1 1 0-15.7 7.9 7.9 0 0 1 0 15.7" fill="#e5e5e5A8"/><path d="M-20.6-342.7a7.9 7.9 0 1 1 0-15.8 7.9 7.9 0 0 1 0 15.8" fill="#112233A8"/><path d="M-122.8-179.5a7.9 7.9 0 1 1 0-15.8 7.9 7.9 0 0 1 0 15.8" fill="#ffffffA9"/><path d="M320.1-200.2a8 8 0 1 1 0-15.9 8 8 0 0 1 0 15.9" fill="#fca311A9"/><path d="M323.1-184.2a8 8 0 1 1 0-15.9 8 8 0 0 1 0 15.9" fill="#fca311AA"/><path d="M200-356.2a8 8 0 1 1 0-15.9 8 8 0 0 1 0 15.9" fill="#ffffffAA"/><path d="M113.9-379.6a8 8 0 1 1 0-16 8 8 0 0 1 0 16" fill="#14213dAA"/><path d="M213.7 40.3a8 8 0 1 1 0-15.9 8 8 0 0 1 0 15.9" fill="#fca311AA"/><path d="M316.4-222.2a8 8 0 1 1 0-16.1 8 8 0 0 1 0 16.1" fill="#14213dAB"/><path d="M-18.6 39a8 8 0 1 1 0-16.1 8 8 0 0 1 0 16.1" fill="#112233AB"/><path d="M175.1-369.4a8.1 8.1 0 1 1 0-16.1 8.1 8.1 0 0 1 0 16.1" fill="#14213dAC"/><path d="M325.6-185.5a8.1 8.1 0 1 1 0-16.1 8.1 8.1 0 0 1 0 16.1" fill="#ffffffAC"/><path d="M143 70.2a8.1 8.1 0 1 1 0-16.3 8.1 8.1 0 0 1 0 16.3" fill="#e5e5e5AD"/><path d="M76.6 73.1a8.1 8.1 0 1 1 0-16.2 8.1 8.1 0 0 1 0 16.2" fill="#112233AD"/><path d="M314.9-233.4a8.1 8.1 0 1 1 0-16.3 8.1 8.1 0 0 1 0 16.3" fill="#ffffffAD"/><path d="M-90-24.2a8.2 8.2 0 1 1 0-16.4 8.2 8.2 0 0 1 0 16.4" fill="#fca311AF"/><path d="M260.1-319.9a8.2 8.2 0 1 1 0-16.5 8.2 8.2 0 0 1 0 16.5" fill="#e5e5e5AF"/><path d="M-116.2-74.5a8.2 8.2 0 1 1 0-16.4 8.2 8.2 0 0 1 0 16.4" fill="#e5e5e5AF"/><path d="M299.6-276.2a8.4 8.4 0 1 1 0-16.9 8.4 8.4 0 0 1 0 16.9" fill="#fca311B4"/><path d="M241.7 32.2a8.5 8.5 0 1 1 0-16.9 8.5 8.5 0 0 1 0 16.9" fill="#14213dB5"/><path d="M-64.7 13a8.5 8.5 0 1 1 0-17 8.5 8.5 0 0 1 0 17" fill="#ffffffB6"/><path d="M300-276.6a8.5 8.5 0 1 1 0-17 8.5 8.5 0 0 1 0 17" fill="#ffffffB6"/><path d="M84.9-388.3a8.5 8.5 0 1 1 0-17.1 8.5 8.5 0 0 1 0 17.1" fill="#e5e5e5B6"/><path d="M215.5 50.7a8.6 8.6 0 1 1 0-17.1 8.6 8.6 0 0 1 0 17.1" fill="#ffffffB7"/><path d="M272.1-314.3a8.6 8.6 0 1 1 0-17.1 8.6 8.6 0 0 1 0 17.1" fill="#fca311B7"/><path d="M-112.4-52.6a8.6 8.6 0 1 1 0-17.2 8.6 8.6 0 0 1 0 17.2" fill="#14213dB8"/><path d="M-110.1-260.4a8.6 8.6 0 1 1 0-17.3 8.6 8.6 0 0 1 0 17.3" fill="#112233B9"/><path d="M107.9 81.8a8.7 8.7 0 1 1 0-17.4 8.7 8.7 0 0 1 0 17.4" fill="#14213dB9"/><path d="M281.8-3.7a8.7 8.7 0 1 1 0-17.4 8.7 8.7 0 0 1 0 17.4" fill="#112233B9"/><path d="M297.4-24.7a8.7 8.7 0 1 1 0-17.4 8.7 8.7 0 0 1 0 17.4" fill="#14213dBA"/><path d="M-117.5-245.1a8.7 8.7 0 1 1 0-17.4 8.7 8.7 0 0 1 0 17.4" fill="#ffffffBA"/><path d="M200.8-367.3a8.8 8.8 0 1 1 0-17.6 8.8 8.8 0 0 1 0 17.6" fill="#112233BC"/><path d="M336-159.6a9 9 0 1 1 0-18 9 9 0 0 1 0 18" fill="#ffffffC0"/><path d="M16.5-374.4a9 9 0 1 1 0-17.9 9 9 0 0 1 0 17.9" fill="#e5e5e5C0"/><path d="M-121.7-233.7a9 9 0 1 1 0-18.1 9 9 0 0 1 0 18.1" fill="#fca311C2"/><path d="M89.2 81.9a9.1 9.1 0 1 1 0-18.2 9.1 9.1 0 0 1 0 18.2" fill="#fca311C3"/><path d="M-97.3-27.7a9.3 9.3 0 1 1 0-18.6 9.3 9.3 0 0 1 0 18.6" fill="#e5e5e5C7"/><path d="M-128.8-113.6a9.4 9.4 0 1 1 0-18.8 9.4 9.4 0 0 1 0 18.8" fill="#ffffffCA"/><path d="M-129.6-122a9.4 9.4 0 1 1 0-18.9 9.4 9.4 0 0 1 0 18.9" fill="#112233CA"/><path d="M-118.4-76.3a9.4 9.4 0 1 1 0-18.9 9.4 9.4 0 0 1 0 18.9" fill="#14213dCA"/><path d="M328.9-127.6a9.5 9.5 0 1 1 0-19 9.5 9.5 0 0 1 0 19" fill="#e5e5e5CC"/><path d="M-84.6-15.8a9.5 9.5 0 1 1 0-19.1 9.5 9.5 0 0 1 0 19.1" fill="#e5e5e5CC"/><path d="M0.5 53.2a9.6 9.6 0 1 1 0-19.1 9.6 9.6 0 0 1 0 19.1" fill="#112233CE"/><path d="M195-359.6a9.7 9.7 0 1 1 0-19.3 9.7 9.7 0 0 1 0 19.3" fill="#fca311CF"/><path d="M24.8 61.1a9.7 9.7 0 1 1 0-19.4 9.7 9.7 0 0 1 0 19.4" fill="#ffffffD0"/><path d="M236.5 27.9a9.7 9.7 0 1 1 0-19.4 9.7 9.7 0 0 1 0 19.4" fill="#14213dD0"/><path d="M-29.8-337.6a9.7 9.7 0 1 1 0-19.5 9.7 9.7 0 0 1 0 19.5" fill="#14213dD1"/><path d="M179.3-363.3a9.8 9.8 0 1 1 0-19.5 9.8 9.8 0 0 1 0 19.5" fill="#e5e5e5D1"/><path d="M321.1-115.1a9.8 9.8 0 1 1 0-19.6 9.8 9.8 0 0 1 0 19.6" fill="#ffffffD2"/><path d="M308.4-234.8a9.8 9.8 0 1 1 0-19.6 9.8 9.8 0 0 1 0 19.6" fill="#e5e5e5D2"/><path d="M319.3-107.7a9.8 9.8 0 1 1 0-19.6 9.8 9.8 0 0 1 0 19.6" fill="#ffffffD2"/><path d="M230.9-334a9.8 9.8 0 1 1 0-19.6 9.8 9.8 0 0 1 0 19.6" fill="#112233D2"/><path d="M189.4-356.6a9.8 9.8 0 1 1 0-19.7 9.8 9.8 0 0 1 0 19.7" fill="#fca311D3"/><path d="M272.6-292.9a9.9 9.9 0 1 1 0-19.7 9.9 9.9 0 0 1 0 19.7" fill="#112233D3"/><path d="M276.2-288.3a9.9 9.9 0 1 1 0-19.7 9.9 9.9 0 0 1 0 19.7" fill="#fca311D3"/><path d="M321.2-144.7a9.9 9.9 0 1 1 0-19.8 9.9 9.9 0 0 1 0 19.8" fill="#e5e5e5D4"/><path d="M-26.1 29.3a9.9 9.9 0 1 1 0-19.8 9.9 9.9 0 0 1 0 19.8" fill="#fca311D4"/><path d="M91.8 67.9a9.9 9.9 0 1 1 0-19.8 9.9 9.9 0 0 1 0 19.8" fill="#ffffffD5"/><path d="M249.1 8.3a10 10 0 1 1 0-19.9 10 10 0 0 1 0 19.9" fill="#112233D6"/><path d="M316.1-177.2a10 10 0 1 1 0-20 10 10 0 0 1 0 20" fill="#fca311D7"/><path d="M-84.8-38.8a10 10 0 1 1 0-20.1 10 10 0 0 1 0 20.1" fill="#fca311D7"/><path d="M218.2 29a10 10 0 1 1 0-20.1 10 10 0 0 1 0 20.1" fill="#112233D7"/><path d="M240.9 10.3a10.1 10.1 0 1 1 0-20.2 10.1 10.1 0 0 1 0 20.2" fill="#14213dD8"/><path d="M313.4-162.8a10.1 10.1 0 1 1 0-20.2 10.1 10.1 0 0 1 0 20.2" fill="#112233D9"/><path d="M-73.2-277.3a10.1 10.1 0 1 1 0-20.2 10.1 10.1 0 0 1 0 20.2" fill="#112233D9"/><path d="M-16.1-330a10.2 10.2 0 1 1 0-20.4 10.2 10.2 0 0 1 0 20.4" fill="#e5e5e5DA"/><path d="M26.9 44.9a10.2 10.2 0 1 1 0-20.4 10.2 10.2 0 0 1 0 20.4" fill="#e5e5e5DB"/><path d="M-109.3-135.3a10.2 10.2 0 1 1 0-20.4 10.2 10.2 0 0 1 0 20.4" fill="#e5e5e5DB"/><path d="M56.5-356.6a10.2 10.2 0 1 1 0-20.5 10.2 10.2 0 0 1 0 20.5" fill="#fca311DC"/><path d="M72.6-359.3a10.2 10.2 0 1 1 0-20.5 10.2 10.2 0 0 1 0 20.5" fill="#14213dDC"/><path d="M299-210a10.3 10.3 0 1 1 0-20.5 10.3 10.3 0 0 1 0 20.5" fill="#fca311DD"/><path d="M265.9-28.7a10.3 10.3 0 1 1 0-20.6 10.3 10.3 0 0 1 0 20.6" fill="#ffffffDD"/><path d="M128.4 52.4a10.3 10.3 0 1 1 0-20.6 10.3 10.3 0 0 1 0 20.6" fill="#fca311DD"/><path d="M101.3-356.6a10.3 10.3 0 1 1 0-20.7 10.3 10.3 0 0 1 0 20.7" fill="#112233DE"/><path d="M-25.7-312.8a10.4 10.4 0 1 1 0-20.7 10.4 10.4 0 0 1 0 20.7" fill="#ffffffDE"/><path d="M137.5-351.7a10.4 10.4 0 1 1 0-20.8 10.4 10.4 0 0 1 0 20.8" fill="#14213dDF"/><path d="M254-20.4a10.4 10.4 0 1 1 0-20.7 10.4 10.4 0 0 1 0 20.7" fill="#ffffffDF"/><path d="M13.1 29.2a10.4 10.4 0 1 1 0-20.8 10.4 10.4 0 0 1 0 20.8" fill="#e5e5e5E0"/><path d="M278.9-72.8a10.5 10.5 0 1 1 0-21.1 10.5 10.5 0 0 1 0 21.1" fill="#ffffffE2"/><path d="M262.5-50.1a10.6 10.6 0 1 1 0-21.2 10.6 10.6 0 0 1 0 21.2" fill="#fca311E3"/><path d="M-72.6-234.3a10.6 10.6 0 1 1 0-21.2 10.6 10.6 0 0 1 0 21.2" fill="#ffffffE4"/><path d="M118.8-341.9a10.6 10.6 0 1 1 0-21.2 10.6 10.6 0 0 1 0 21.2" fill="#e5e5e5E4"/><path d="M201.1-312.3a10.6 10.6 0 1 1 0-21.2 10.6 10.6 0 0 1 0 21.2" fill="#fca311E4"/><path d="M104-341.2a10.6 10.6 0 1 1 0-21.3 10.6 10.6 0 0 1 0 21.3" fill="#e5e5e5E4"/><path d="M12 13.1a10.7 10.7 0 1 1 0-21.4 10.7 10.7 0 0 1 0 21.4" fill="#14213dE5"/><path d="M-43.3-33.5a10.7 10.7 0 1 1 0-21.4 10.7 10.7 0 0 1 0 21.4" fill="#e5e5e5E6"/><path d="M285.2-159.6a10.7 10.7 0 1 1 0-21.3 10.7 10.7 0 0 1 0 21.3" fill="#ffffffE6"/><path d="M-35.9-276.3a10.7 10.7 0 1 1 0-21.4 10.7 10.7 0 0 1 0 21.4" fill="#fca311E6"/><path d="M184.3-309.2a10.8 10.8 0 1 1 0-21.6 10.8 10.8 0 0 1 0 21.6" fill="#e5e5e5E8"/><path d="M238.5-263.6a10.8 10.8 0 1 1 0-21.6 10.8 10.8 0 0 1 0 21.6" fill="#e5e5e5E8"/><path d="M-72.7-192a10.8 10.8 0 1 1 0-21.6 10.8 10.8 0 0 1 0 21.6" fill="#e5e5e5E8"/><path d="M13-304a10.8 10.8 0 1 1 0-21.7 10.8 10.8 0 0 1 0 21.7" fill="#112233E9"/><path d="M-61.2-105.3a10.9 10.9 0 1 1 0-21.9 10.9 10.9 0 0 1 0 21.9" fill="#ffffffEB"/><path d="M-57.6-204.8a11 11 0 1 1 0-21.9 11 11 0 0 1 0 21.9" fill="#fca311EC"/><path d="M17.4-293a11 11 0 1 1 0-22 11 11 0 0 1 0 22" fill="#14213dEC"/><path d="M41.6 1.2a11 11 0 1 1 0-22 11 11 0 0 1 0 22" fill="#112233EC"/><path d="M-23.9-253.5a11 11 0 1 1 0-22.1 11 11 0 0 1 0 22.1" fill="#fca311ED"/><path d="M106.4-309.3a11.1 11.1 0 1 1 0-22.2 11.1 11.1 0 0 1 0 22.2" fill="#fca311EE"/><path d="M234.7-75.5a11.1 11.1 0 1 1 0-22.2 11.1 11.1 0 0 1 0 22.2" fill="#14213dEF"/><path d="M250.8-151.4a11.1 11.1 0 1 1 0-22.2 11.1 11.1 0 0 1 0 22.2" fill="#fca311F0"/><path d="M189.5-30.5a11.1 11.1 0 1 1 0-22.3 11.1 11.1 0 0 1 0 22.3" fill="#14213dF0"/><path d="M220.3-240.3a11.1 11.1 0 1 1 0-22.3 11.1 11.1 0 0 1 0 22.3" fill="#fca311F0"/><path d="M149.9-292.2a11.1 11.1 0 1 1 0-22.3 11.1 11.1 0 0 1 0 22.3" fill="#ffffffF0"/><path d="M48.4-276.9a11.3 11.3 0 1 1 0-22.6 11.3 11.3 0 0 1 0 22.6" fill="#ffffffF3"/><path d="M-30.9-137.4a11.3 11.3 0 1 1 0-22.7 11.3 11.3 0 0 1 0 22.7" fill="#fca311F3"/><path d="M32.5-47a11.4 11.4 0 1 1 0-22.7 11.4 11.4 0 0 1 0 22.7" fill="#e5e5e5F5"/><path d="M77.7-272.1a11.4 11.4 0 1 1 0-22.7 11.4 11.4 0 0 1 0 22.7" fill="#e5e5e5F5"/><path d="M208.7-103.2a11.4 11.4 0 1 1 0-22.8 11.4 11.4 0 0 1 0 22.8" fill="#fca311F6"/><path d="M80.9-262.9a11.4 11.4 0 1 1 0-22.9 11.4 11.4 0 0 1 0 22.9" fill="#14213dF7"/><path d="M92.1-237.6a11.6 11.6 0 1 1 0-23.2 11.6 11.6 0 0 1 0 23.2" fill="#fca311FA"/><path d="M103.5-217.3a11.7 11.7 0 1 1 0-23.4 11.7 11.7 0 0 1 0 23.4" fill="#e5e5e5FC"/><path d="M157.1-125.9a11.7 11.7 0 1 1 0-23.4 11.7 11.7 0 0 1 0 23.4" fill="#112233FC"/><path d="M125.7-100.5a11.7 11.7 0 1 1 0-23.5 11.7 11.7 0 0 1 0 23.5" fill="#ffffffFD"/><path d="M127.9-162.1a11.8 11.8 0 1 1 0-23.6 11.8 11.8 0 0 1 0 23.6" fill="#ffffffFE"/></g></svg>