<svg width="1200" height="675" viewBox="-500 -500 1200 675" xmlns="http://www.w3.org/2000/svg"><path d="M-500-500h1200v675h-1200z" fill="#000"/><style>.sparkles path{stroke-linecap:round; stroke-width:1}</style><g class="sparkles"><path d="M100-162.5l-2-3.8" stroke="#c2e1ff32"/><path d="M100-162.5l-6.2-17.6" stroke="#fff50032"/><path d="M100-162.5l14.7 20.2" stroke="#fff50032"/><path d="M100-162.5l-37.8 48.5" stroke="#005bbb33"/><path d="M100-162.5l-10.3 70.5" stroke="#c2e1ff34"/><path d="M100-162.5l20.4 74.1" stroke="#c2e1ff34"/><path d="M100-162.5l-79.9 26.5" stroke="#fff35"/><path d="M100-162.5l-74-61" stroke="#c2e1ff36"/><path d="M100-162.5l-95.6 13.5" stroke="#005bbb36"/><path d="M100-162.5l-49.6-84.3" stroke="#c2e1ff36"/><path d="M100-162.5l10.8 109.9" stroke="#c2e1ff37"/><path d="M100-162.5l-117.4 3.6" stroke="#c2e1ff38"/><path d="M100-162.5l93.7-70.9" stroke="#005bbb38"/><path d="M100-162.5l-25.4-116.2" stroke="#fff50038"/><path d="M100-162.5l78.8 91.6" stroke="#c2e1ff39"/><path d="M100-162.5l123.4 0" stroke="#c2e1ff39"/><path d="M100-162.5l123.7-40" stroke="#005bbb3A"/><path d="M100-162.5l70.4 109.5" stroke="#fff3A"/><path d="M100-162.5l-49.8 126.1" stroke="#005bbb3B"/><path d="M100-162.5l-130.5 39.8" stroke="#c2e1ff3B"/><path d="M100-162.5l-58.6 124.9" stroke="#fff3B"/><path d="M100-162.5l-80.1 114.4" stroke="#c2e1ff3B"/><path d="M100-162.5l-120 73.1" stroke="#fff5003B"/><path d="M100-162.5l37.5 143.2" stroke="#fff5003D"/><path d="M100-162.5l3-150.2" stroke="#c2e1ff3D"/><path d="M100-162.5l-76.8 139.9" stroke="#c2e1ff3F"/><path d="M100-162.5l159.5 36.3" stroke="#fff5003F"/><path d="M100-162.5l-158.8-40.3" stroke="#fff3F"/><path d="M100-162.5l77.2 146.3" stroke="#fff50040"/><path d="M100-162.5l-106.5-133.7" stroke="#fff50041"/><path d="M100-162.5l-149.3-83.2" stroke="#fff50041"/><path d="M100-162.5l171.6 0" stroke="#c2e1ff41"/><path d="M100-162.5l-158.5 73.9" stroke="#fff50042"/><path d="M100-162.5l-167.2 60.6" stroke="#c2e1ff43"/><path d="M100-162.5l51.6-171.7" stroke="#fff43"/><path d="M100-162.5l34.3-177.3" stroke="#fff50043"/><path d="M100-162.5l-77.8-163.2" stroke="#005bbb43"/><path d="M100-162.5l181.1-27.2" stroke="#fff44"/><path d="M100-162.5l50.3 176.2" stroke="#fff50044"/><path d="M100-162.5l-187.3 7.6" stroke="#c2e1ff45"/><path d="M100-162.5l-109.3 152.9" stroke="#fff50045"/><path d="M100-162.5l0.3 188.1" stroke="#005bbb45"/><path d="M100-162.5l-106 159.5" stroke="#fff50046"/><path d="M100-162.5l-187.5 47.7" stroke="#005bbb47"/><path d="M100-162.5l180-71" stroke="#005bbb47"/><path d="M100-162.5l-7 193.9" stroke="#fff50047"/><path d="M100-162.5l174.9 93.3" stroke="#005bbb48"/><path d="M100-162.5l197.8 20.3" stroke="#c2e1ff49"/><path d="M100-162.5l9.9-199.2" stroke="#c2e1ff49"/><path d="M100-162.5l31.3 198.4" stroke="#005bbb49"/><path d="M100-162.5l172.4-105.2" stroke="#c2e1ff4A"/><path d="M100-162.5l183.2-87.5" stroke="#c2e1ff4A"/><path d="M100-162.5l191.2-73.4" stroke="#c2e1ff4B"/><path d="M100-162.5l204 19.9" stroke="#005bbb4B"/><path d="M100-162.5l-149.6-140.2" stroke="#fff4B"/><path d="M100-162.5l201.1 46.1" stroke="#fff5004B"/><path d="M100-162.5l210.6-8.2" stroke="#fff5004D"/><path d="M100-162.5l208.5-54.4" stroke="#c2e1ff4F"/><path d="M100-162.5l163.6 141.7" stroke="#005bbb4F"/><path d="M100-162.5l-173 136.2" stroke="#fff50051"/><path d="M100-162.5l-197-100.2" stroke="#c2e1ff52"/><path d="M100-162.5l78.6-207.8" stroke="#c2e1ff52"/><path d="M100-162.5l-119.7-188.1" stroke="#fff50053"/><path d="M100-162.5l-15.9 222.9" stroke="#c2e1ff53"/><path d="M100-162.5l-224.3 1.8" stroke="#c2e1ff54"/><path d="M100-162.5l-143.3-172.7" stroke="#c2e1ff54"/><path d="M100-162.5l167-150.8" stroke="#fff50054"/><path d="M100-162.5l-224.3-23.3" stroke="#fff50055"/><path d="M100-162.5l211.4-80.4" stroke="#005bbb55"/><path d="M100-162.5l-125.8 189.8" stroke="#c2e1ff56"/><path d="M100-162.5l161.9 161.4" stroke="#fff50057"/><path d="M100-162.5l-23.3-228.5" stroke="#fff50058"/><path d="M100-162.5l163.5-162.3" stroke="#c2e1ff58"/><path d="M100-162.5l123.6 194.7" stroke="#fff50059"/><path d="M100-162.5l-109.5 203.2" stroke="#fff59"/><path d="M100-162.5l-216.9 82.6" stroke="#005bbb5A"/><path d="M100-162.5l174.2 154" stroke="#005bbb5B"/><path d="M100-162.5l232.5 8" stroke="#005bbb5B"/><path d="M100-162.5l232.7-6.2" stroke="#fff5B"/><path d="M100-162.5l179.9-147.9" stroke="#005bbb5B"/><path d="M100-162.5l227.2 51.7" stroke="#fff5005B"/><path d="M100-162.5l-5.8-233.5" stroke="#005bbb5C"/><path d="M100-162.5l-122.5 198.9" stroke="#fff5005C"/><path d="M100-162.5l157.5 172.7" stroke="#c2e1ff5C"/><path d="M100-162.5l18.2 233.4" stroke="#fff5005D"/><path d="M100-162.5l-196.9 127.2" stroke="#fff5005D"/><path d="M100-162.5l189.7-137.7" stroke="#c2e1ff5D"/><path d="M100-162.5l30.1 232.6" stroke="#005bbb5D"/><path d="M100-162.5l229.3-51.2" stroke="#c2e1ff5E"/><path d="M100-162.5l82.8 220.1" stroke="#c2e1ff5F"/><path d="M100-162.5l181.4-150.9" stroke="#fff50061"/><path d="M100-162.5l-212.9 101.7" stroke="#fff50061"/><path d="M100-162.5l-178.8 154.1" stroke="#fff61"/><path d="M100-162.5l-88.9-218.8" stroke="#005bbb63"/><path d="M100-162.5l232.4-42.2" stroke="#fff50063"/><path d="M100-162.5l204-119.1" stroke="#fff65"/><path d="M100-162.5l-204.5 118.1" stroke="#fff50065"/><path d="M100-162.5l-24.8-234.2" stroke="#fff67"/><path d="M100-162.5l235.3-0.8" stroke="#005bbb68"/><path d="M100-162.5l-222-77.5" stroke="#fff68"/><path d="M100-162.5l-109.1-208.2" stroke="#c2e1ff68"/><path d="M100-162.5l-6.4-234.4" stroke="#005bbb6A"/><path d="M100-162.5l-128-195.5" stroke="#005bbb6B"/><path d="M100-162.5l165-165.3" stroke="#c2e1ff6B"/><path d="M100-162.5l-199 121.3" stroke="#fff6C"/><path d="M100-162.5l183.1 144.2" stroke="#005bbb6C"/><path d="M100-162.5l-173-154.7" stroke="#fff6D"/><path d="M100-162.5l-20.1 230.4" stroke="#005bbb6E"/><path d="M100-162.5l2.3-231.3" stroke="#c2e1ff6E"/><path d="M100-162.5l-225.4 49.7" stroke="#005bbb6E"/><path d="M100-162.5l-185.5 137.2" stroke="#c2e1ff6E"/><path d="M100-162.5l-137.9 184.8" stroke="#005bbb6E"/><path d="M100-162.5l68.9 218" stroke="#fff50070"/><path d="M100-162.5l139 180.9" stroke="#c2e1ff70"/><path d="M100-162.5l181.7-137.7" stroke="#c2e1ff71"/><path d="M100-162.5l-97.3-205.5" stroke="#fff71"/><path d="M100-162.5l1.9 225.5" stroke="#fff50072"/><path d="M100-162.5l45.1 220.9" stroke="#005bbb72"/><path d="M100-162.5l71-212.9" stroke="#fff73"/><path d="M100-162.5l205.9-89.1" stroke="#005bbb73"/><path d="M100-162.5l-158.7 155.5" stroke="#fff50074"/><path d="M100-162.5l46.6 216" stroke="#005bbb75"/><path d="M100-162.5l-213.1 57.6" stroke="#fff75"/><path d="M100-162.5l-77.6-206" stroke="#fff76"/><path d="M100-162.5l-110.3 187.6" stroke="#005bbb77"/><path d="M100-162.5l-25.7 214.8" stroke="#fff50078"/><path d="M100-162.5l-132.7-170.5" stroke="#c2e1ff78"/><path d="M100-162.5l-66.5 205.5" stroke="#fff50078"/><path d="M100-162.5l160.4-141" stroke="#005bbb79"/><path d="M100-162.5l-96.6-186.6" stroke="#fff7A"/><path d="M100-162.5l205.6-38.4" stroke="#fff7B"/><path d="M100-162.5l-75.7-192" stroke="#fff7C"/><path d="M100-162.5l-3.1 204.3" stroke="#fff7D"/><path d="M100-162.5l-96.6-176.5" stroke="#005bbb7E"/><path d="M100-162.5l-99.3-173.5" stroke="#fff7E"/><path d="M100-162.5l171.7-97.4" stroke="#fff7F"/><path d="M100-162.5l-128.8-147.1" stroke="#fff80"/><path d="M100-162.5l21.9 192.5" stroke="#c2e1ff80"/><path d="M100-162.5l-129.6 142.8" stroke="#fff80"/><path d="M100-162.5l-109.3 157.2" stroke="#005bbb81"/><path d="M100-162.5l35.9-183.8" stroke="#fff50082"/><path d="M100-162.5l155.2-103.8" stroke="#c2e1ff82"/><path d="M100-162.5l184.5 20.5" stroke="#005bbb82"/><path d="M100-162.5l142.8 109.2" stroke="#fff84"/><path d="M100-162.5l-89.4 153.1" stroke="#fff50085"/><path d="M100-162.5l172.8-31.6" stroke="#fff50085"/><path d="M100-162.5l-1.7-170.8" stroke="#c2e1ff86"/><path d="M100-162.5l-41.7-163.6" stroke="#fff50086"/><path d="M100-162.5l-158.8-51.5" stroke="#fff50087"/><path d="M100-162.5l149-75" stroke="#fff87"/><path d="M100-162.5l-142.6 76.5" stroke="#005bbb88"/><path d="M100-162.5l-122.6 103.9" stroke="#fff50088"/><path d="M100-162.5l105.3-120" stroke="#fff50088"/><path d="M100-162.5l151.7 11.2" stroke="#fff5008A"/><path d="M100-162.5l-69.2 133" stroke="#005bbb8A"/><path d="M100-162.5l83.8-124.2" stroke="#fff5008A"/><path d="M100-162.5l-148.8-17.9" stroke="#005bbb8A"/><path d="M100-162.5l141.4-44.6" stroke="#fff8A"/><path d="M100-162.5l-110.8-98.2" stroke="#005bbb8A"/><path d="M100-162.5l105.7 103.4" stroke="#fff5008A"/><path d="M100-162.5l-139.2 43.9" stroke="#c2e1ff8B"/><path d="M100-162.5l-142.6 30.9" stroke="#fff5008B"/><path d="M100-162.5l-96-108.8" stroke="#c2e1ff8B"/><path d="M100-162.5l95.8 104" stroke="#fff5008C"/><path d="M100-162.5l-70.5 121.5" stroke="#fff5008C"/><path d="M100-162.5l-56.3 126.4" stroke="#fff8C"/><path d="M100-162.5l91.5 103.3" stroke="#005bbb8C"/><path d="M100-162.5l73.4 115.2" stroke="#c2e1ff8C"/><path d="M100-162.5l72.7 107.1" stroke="#005bbb8D"/><path d="M100-162.5l-77.7-102.1" stroke="#fff5008D"/><path d="M100-162.5l10 127.6" stroke="#005bbb8E"/><path d="M100-162.5l47.7 111.5" stroke="#fff8E"/><path d="M100-162.5l29.4-117.1" stroke="#005bbb8E"/><path d="M100-162.5l77.9-88" stroke="#fff8F"/><path d="M100-162.5l-113.5 23.5" stroke="#fff5008F"/><path d="M100-162.5l-114.4 15.5" stroke="#fff5008F"/><path d="M100-162.5l82.4-70.4" stroke="#c2e1ff90"/><path d="M100-162.5l-89.4-43.3" stroke="#fff50091"/><path d="M100-162.5l-12.2-97.3" stroke="#c2e1ff91"/><path d="M100-162.5l-88.7 7.4" stroke="#005bbb92"/><path d="M100-162.5l20.9-67.8" stroke="#005bbb93"/></g><g class="sparcs"><path d="M98-160.4a5.9 5.9 0 1 1 0-11.8 5.9 5.9 0 0 1 0 11.8" fill="#fff7D"/><path d="M93.8-174.2a5.9 5.9 0 1 1 0-11.8 5.9 5.9 0 0 1 0 11.8" fill="#c2e1ff7D"/><path d="M114.7-136.4a5.9 5.9 0 1 1 0-11.8 5.9 5.9 0 0 1 0 11.8" fill="#fff7D"/><path d="M62.2-108a6 6 0 1 1 0-12 6 6 0 0 1 0 12" fill="#005bbb7F"/><path d="M89.7-85.9a6 6 0 1 1 0-12.1 6 6 0 0 1 0 12.1" fill="#fff50080"/><path d="M120.4-82.4a6.1 6.1 0 1 1 0-12.1 6.1 6.1 0 0 1 0 12.1" fill="#fff80"/><path d="M20.1-129.9a6.1 6.1 0 1 1 0-12.2 6.1 6.1 0 0 1 0 12.2" fill="#fff50081"/><path d="M26-217.3a6.2 6.2 0 1 1 0-12.4 6.2 6.2 0 0 1 0 12.4" fill="#005bbb82"/><path d="M4.4-142.8a6.2 6.2 0 1 1 0-12.4 6.2 6.2 0 0 1 0 12.4" fill="#c2e1ff82"/><path d="M50.4-240.6a6.2 6.2 0 1 1 0-12.3 6.2 6.2 0 0 1 0 12.3" fill="#005bbb82"/><path d="M110.8-46.3a6.2 6.2 0 1 1 0-12.5 6.2 6.2 0 0 1 0 12.5" fill="#fff84"/><path d="M-17.4-152.6a6.3 6.3 0 1 1 0-12.6 6.3 6.3 0 0 1 0 12.6" fill="#fff85"/><path d="M193.7-227.1a6.3 6.3 0 1 1 0-12.6 6.3 6.3 0 0 1 0 12.6" fill="#fff50085"/><path d="M74.6-272.4a6.3 6.3 0 1 1 0-12.6 6.3 6.3 0 0 1 0 12.6" fill="#fff50085"/><path d="M178.8-64.6a6.3 6.3 0 1 1 0-12.6 6.3 6.3 0 0 1 0 12.6" fill="#c2e1ff86"/><path d="M223.4-156.2a6.3 6.3 0 1 1 0-12.6 6.3 6.3 0 0 1 0 12.6" fill="#fff86"/><path d="M223.7-196.1a6.4 6.4 0 1 1 0-12.8 6.4 6.4 0 0 1 0 12.8" fill="#fff50087"/><path d="M170.4-46.6a6.4 6.4 0 1 1 0-12.8 6.4 6.4 0 0 1 0 12.8" fill="#fff87"/><path d="M50.2-30a6.4 6.4 0 1 1 0-12.8 6.4 6.4 0 0 1 0 12.8" fill="#fff50088"/><path d="M-30.5-116.3a6.4 6.4 0 1 1 0-12.9 6.4 6.4 0 0 1 0 12.9" fill="#c2e1ff88"/><path d="M41.4-31.2a6.5 6.5 0 1 1 0-12.9 6.5 6.5 0 0 1 0 12.9" fill="#005bbb89"/><path d="M19.9-41.7a6.5 6.5 0 1 1 0-12.9 6.5 6.5 0 0 1 0 12.9" fill="#005bbb89"/><path d="M-20-83a6.5 6.5 0 1 1 0-12.9 6.5 6.5 0 0 1 0 12.9" fill="#fff50089"/><path d="M137.5-12.7a6.6 6.6 0 1 1 0-13.1 6.6 6.6 0 0 1 0 13.1" fill="#fff5008B"/><path d="M103-306.1a6.6 6.6 0 1 1 0-13.2 6.6 6.6 0 0 1 0 13.2" fill="#005bbb8B"/><path d="M23.2-16a6.7 6.7 0 1 1 0-13.3 6.7 6.7 0 0 1 0 13.3" fill="#fff8E"/><path d="M259.5-119.5a6.7 6.7 0 1 1 0-13.4 6.7 6.7 0 0 1 0 13.4" fill="#fff8F"/><path d="M-58.8-196.1a6.7 6.7 0 1 1 0-13.4 6.7 6.7 0 0 1 0 13.4" fill="#fff5008F"/><path d="M177.2-9.5a6.8 6.8 0 1 1 0-13.5 6.8 6.8 0 0 1 0 13.5" fill="#c2e1ff8F"/><path d="M-6.5-289.4a6.8 6.8 0 1 1 0-13.6 6.8 6.8 0 0 1 0 13.6" fill="#fff50091"/><path d="M-49.3-238.9a6.8 6.8 0 1 1 0-13.7 6.8 6.8 0 0 1 0 13.7" fill="#fff50091"/><path d="M271.6-155.7a6.8 6.8 0 1 1 0-13.6 6.8 6.8 0 0 1 0 13.6" fill="#fff50091"/><path d="M-58.5-81.7a6.9 6.9 0 1 1 0-13.8 6.9 6.9 0 0 1 0 13.8" fill="#005bbb92"/><path d="M-67.2-95a6.9 6.9 0 1 1 0-13.8 6.9 6.9 0 0 1 0 13.8" fill="#fff50093"/><path d="M151.6-327.3a6.9 6.9 0 1 1 0-13.9 6.9 6.9 0 0 1 0 13.9" fill="#fff50093"/><path d="M134.3-332.9a7 7 0 1 1 0-13.9 7 7 0 0 1 0 13.9" fill="#005bbb94"/><path d="M22.2-318.8a7 7 0 1 1 0-13.9 7 7 0 0 1 0 13.9" fill="#005bbb94"/><path d="M281.1-182.7a7 7 0 1 1 0-14 7 7 0 0 1 0 14" fill="#fff50094"/><path d="M150.3 20.7a7 7 0 1 1 0-14 7 7 0 0 1 0 14" fill="#005bbb94"/><path d="M-87.3-147.9a7.1 7.1 0 1 1 0-14.1 7.1 7.1 0 0 1 0 14.1" fill="#fff96"/><path d="M-9.3-2.5a7.1 7.1 0 1 1 0-14.2 7.1 7.1 0 0 1 0 14.2" fill="#fff96"/><path d="M100.3 32.7a7.1 7.1 0 1 1 0-14.2 7.1 7.1 0 0 1 0 14.2" fill="#fff50096"/><path d="M-6 4.1a7.1 7.1 0 1 1 0-14.3 7.1 7.1 0 0 1 0 14.3" fill="#005bbb97"/><path d="M-87.5-107.6a7.2 7.2 0 1 1 0-14.3 7.2 7.2 0 0 1 0 14.3" fill="#005bbb98"/><path d="M280-226.3a7.2 7.2 0 1 1 0-14.4 7.2 7.2 0 0 1 0 14.4" fill="#c2e1ff98"/><path d="M93 38.5a7.2 7.2 0 1 1 0-14.3 7.2 7.2 0 0 1 0 14.3" fill="#fff98"/><path d="M274.9-61.9a7.3 7.3 0 1 1 0-14.5 7.3 7.3 0 0 1 0 14.5" fill="#c2e1ff9A"/><path d="M297.8-135a7.3 7.3 0 1 1 0-14.5 7.3 7.3 0 0 1 0 14.5" fill="#fff9A"/><path d="M109.9-354.4a7.3 7.3 0 1 1 0-14.6 7.3 7.3 0 0 1 0 14.6" fill="#fff9B"/><path d="M131.3 43.2a7.3 7.3 0 1 1 0-14.6 7.3 7.3 0 0 1 0 14.6" fill="#005bbb9B"/><path d="M272.4-260.4a7.3 7.3 0 1 1 0-14.6 7.3 7.3 0 0 1 0 14.6" fill="#fff5009C"/><path d="M283.2-242.7a7.3 7.3 0 1 1 0-14.7 7.3 7.3 0 0 1 0 14.7" fill="#fff9C"/><path d="M291.2-228.5a7.4 7.4 0 1 1 0-14.8 7.4 7.4 0 0 1 0 14.8" fill="#fff5009D"/><path d="M304-135.2a7.4 7.4 0 1 1 0-14.8 7.4 7.4 0 0 1 0 14.8" fill="#fff5009D"/><path d="M-49.6-295.3a7.4 7.4 0 1 1 0-14.8 7.4 7.4 0 0 1 0 14.8" fill="#c2e1ff9D"/><path d="M301.1-109a7.4 7.4 0 1 1 0-14.9 7.4 7.4 0 0 1 0 14.9" fill="#fff5009E"/><path d="M310.6-163.2a7.5 7.5 0 1 1 0-15 7.5 7.5 0 0 1 0 15" fill="#c2e1ffA0"/><path d="M308.5-209.2a7.6 7.6 0 1 1 0-15.3 7.6 7.6 0 0 1 0 15.3" fill="#c2e1ffA3"/><path d="M263.6-13.1a7.7 7.7 0 1 1 0-15.3 7.7 7.7 0 0 1 0 15.3" fill="#c2e1ffA3"/><path d="M-73-18.5a7.8 7.8 0 1 1 0-15.5 7.8 7.8 0 0 1 0 15.5" fill="#c2e1ffA6"/><path d="M-97-254.8a7.8 7.8 0 1 1 0-15.7 7.8 7.8 0 0 1 0 15.7" fill="#fff500A7"/><path d="M178.6-362.4a7.9 7.9 0 1 1 0-15.7 7.9 7.9 0 0 1 0 15.7" fill="#fffA7"/><path d="M-19.7-342.7a7.9 7.9 0 1 1 0-15.8 7.9 7.9 0 0 1 0 15.8" fill="#c2e1ffA8"/><path d="M84.1 68.3a7.9 7.9 0 1 1 0-15.8 7.9 7.9 0 0 1 0 15.8" fill="#fffA8"/><path d="M-124.3-152.8a7.9 7.9 0 1 1 0-15.8 7.9 7.9 0 0 1 0 15.8" fill="#fff500A9"/><path d="M-43.3-327.3a7.9 7.9 0 1 1 0-15.9 7.9 7.9 0 0 1 0 15.9" fill="#fff500A9"/><path d="M267-305.4a8 8 0 1 1 0-15.9 8 8 0 0 1 0 15.9" fill="#005bbbAA"/><path d="M-124.3-177.8a8 8 0 1 1 0-15.9 8 8 0 0 1 0 15.9" fill="#fffAA"/><path d="M311.4-234.9a8 8 0 1 1 0-16 8 8 0 0 1 0 16" fill="#fffAB"/><path d="M-25.8 35.4a8.1 8.1 0 1 1 0-16.2 8.1 8.1 0 0 1 0 16.2" fill="#fffAC"/><path d="M261.9 7a8.1 8.1 0 1 1 0-16.2 8.1 8.1 0 0 1 0 16.2" fill="#fffAD"/><path d="M76.7-382.9a8.2 8.2 0 1 1 0-16.3 8.2 8.2 0 0 1 0 16.3" fill="#005bbbAE"/><path d="M263.5-316.6a8.2 8.2 0 1 1 0-16.4 8.2 8.2 0 0 1 0 16.4" fill="#c2e1ffAF"/><path d="M223.6 40.5a8.2 8.2 0 1 1 0-16.5 8.2 8.2 0 0 1 0 16.5" fill="#005bbbAF"/><path d="M-9.5 48.9a8.2 8.2 0 1 1 0-16.4 8.2 8.2 0 0 1 0 16.4" fill="#fff500B0"/><path d="M-116.9-71.6a8.3 8.3 0 1 1 0-16.6 8.3 8.3 0 0 1 0 16.6" fill="#005bbbB1"/><path d="M274.2-0.2a8.3 8.3 0 1 1 0-16.7 8.3 8.3 0 0 1 0 16.7" fill="#fffB2"/><path d="M332.5-146.2a8.3 8.3 0 1 1 0-16.7 8.3 8.3 0 0 1 0 16.7" fill="#fff500B2"/><path d="M332.7-160.3a8.4 8.4 0 1 1 0-16.7 8.4 8.4 0 0 1 0 16.7" fill="#fff500B2"/><path d="M279.9-302.1a8.4 8.4 0 1 1 0-16.7 8.4 8.4 0 0 1 0 16.7" fill="#005bbbB3"/><path d="M327.2-102.4a8.4 8.4 0 1 1 0-16.8 8.4 8.4 0 0 1 0 16.8" fill="#fffB3"/><path d="M94.2-387.6a8.4 8.4 0 1 1 0-16.8 8.4 8.4 0 0 1 0 16.8" fill="#fffB4"/><path d="M-22.5 44.8a8.4 8.4 0 1 1 0-16.8 8.4 8.4 0 0 1 0 16.8" fill="#fff500B4"/><path d="M257.5 18.7a8.4 8.4 0 1 1 0-16.9 8.4 8.4 0 0 1 0 16.9" fill="#fff500B4"/><path d="M118.2 79.4a8.5 8.5 0 1 1 0-16.9 8.5 8.5 0 0 1 0 16.9" fill="#fffB5"/><path d="M-96.9-26.8a8.5 8.5 0 1 1 0-17 8.5 8.5 0 0 1 0 17" fill="#005bbbB5"/><path d="M289.7-291.7a8.5 8.5 0 1 1 0-17 8.5 8.5 0 0 1 0 17" fill="#fffB6"/><path d="M130.1 78.6a8.5 8.5 0 1 1 0-17 8.5 8.5 0 0 1 0 17" fill="#fff500B6"/><path d="M329.3-205.1a8.6 8.6 0 1 1 0-17.1 8.6 8.6 0 0 1 0 17.1" fill="#c2e1ffB7"/><path d="M182.8 66.2a8.6 8.6 0 1 1 0-17.1 8.6 8.6 0 0 1 0 17.1" fill="#fffB7"/><path d="M281.4-304.7a8.7 8.7 0 1 1 0-17.4 8.7 8.7 0 0 1 0 17.4" fill="#fff500BA"/><path d="M-112.9-52.1a8.7 8.7 0 1 1 0-17.4 8.7 8.7 0 0 1 0 17.4" fill="#fffBA"/><path d="M-78.8 0.3a8.7 8.7 0 1 1 0-17.4 8.7 8.7 0 0 1 0 17.4" fill="#fff500BB"/><path d="M11.1-372.5a8.8 8.8 0 1 1 0-17.7 8.8 8.8 0 0 1 0 17.7" fill="#fff500BC"/><path d="M332.4-195.9a8.8 8.8 0 1 1 0-17.7 8.8 8.8 0 0 1 0 17.7" fill="#c2e1ffBD"/><path d="M304-272.7a8.9 8.9 0 1 1 0-17.8 8.9 8.9 0 0 1 0 17.8" fill="#fff500BF"/><path d="M-104.5-35.5a8.9 8.9 0 1 1 0-17.9 8.9 8.9 0 0 1 0 17.9" fill="#005bbbBF"/><path d="M75.2-387.7a9.1 9.1 0 1 1 0-18.1 9.1 9.1 0 0 1 0 18.1" fill="#fffC2"/><path d="M335.3-154.2a9.1 9.1 0 1 1 0-18.2 9.1 9.1 0 0 1 0 18.2" fill="#fff500C3"/><path d="M-122-230.9a9.1 9.1 0 1 1 0-18.2 9.1 9.1 0 0 1 0 18.2" fill="#c2e1ffC4"/><path d="M-9.1-361.6a9.2 9.2 0 1 1 0-18.3 9.2 9.2 0 0 1 0 18.3" fill="#fffC4"/><path d="M93.6-387.7a9.2 9.2 0 1 1 0-18.4 9.2 9.2 0 0 1 0 18.4" fill="#fffC5"/><path d="M-28-348.7a9.3 9.3 0 1 1 0-18.6 9.3 9.3 0 0 1 0 18.6" fill="#fffC7"/><path d="M265-318.5a9.3 9.3 0 1 1 0-18.6 9.3 9.3 0 0 1 0 18.6" fill="#fff500C7"/><path d="M-99-31.8a9.3 9.3 0 1 1 0-18.7 9.3 9.3 0 0 1 0 18.7" fill="#c2e1ffC8"/><path d="M283.1-9a9.3 9.3 0 1 1 0-18.7 9.3 9.3 0 0 1 0 18.7" fill="#fff500C8"/><path d="M-73-307.8a9.4 9.4 0 1 1 0-18.9 9.4 9.4 0 0 1 0 18.9" fill="#fff500CA"/><path d="M79.9 77.4a9.5 9.5 0 1 1 0-18.9 9.5 9.5 0 0 1 0 18.9" fill="#fffCB"/><path d="M102.3-384.3a9.5 9.5 0 1 1 0-18.9 9.5 9.5 0 0 1 0 18.9" fill="#c2e1ffCB"/><path d="M-125.4-103.3a9.5 9.5 0 1 1 0-18.9 9.5 9.5 0 0 1 0 18.9" fill="#c2e1ffCB"/><path d="M-85.5-15.8a9.5 9.5 0 1 1 0-19 9.5 9.5 0 0 1 0 19" fill="#fff500CB"/><path d="M-37.9 31.8a9.5 9.5 0 1 1 0-19 9.5 9.5 0 0 1 0 19" fill="#fffCC"/><path d="M168.9 65.1a9.6 9.6 0 1 1 0-19.2 9.6 9.6 0 0 1 0 19.2" fill="#fffCE"/><path d="M239 28a9.6 9.6 0 1 1 0-19.2 9.6 9.6 0 0 1 0 19.2" fill="#005bbbCE"/><path d="M281.7-290.5a9.6 9.6 0 1 1 0-19.3 9.6 9.6 0 0 1 0 19.3" fill="#fff500CF"/><path d="M2.7-358.4a9.7 9.7 0 1 1 0-19.3 9.7 9.7 0 0 1 0 19.3" fill="#005bbbCF"/><path d="M101.9 72.7a9.7 9.7 0 1 1 0-19.4 9.7 9.7 0 0 1 0 19.4" fill="#fffD1"/><path d="M145.1 68.1a9.7 9.7 0 1 1 0-19.5 9.7 9.7 0 0 1 0 19.5" fill="#fff500D1"/><path d="M171-365.6a9.8 9.8 0 1 1 0-19.6 9.8 9.8 0 0 1 0 19.6" fill="#005bbbD2"/><path d="M305.9-241.8a9.8 9.8 0 1 1 0-19.5 9.8 9.8 0 0 1 0 19.5" fill="#005bbbD2"/><path d="M-58.7 2.8a9.9 9.9 0 1 1 0-19.7 9.9 9.9 0 0 1 0 19.7" fill="#c2e1ffD4"/><path d="M146.6 63.4a9.9 9.9 0 1 1 0-19.8 9.9 9.9 0 0 1 0 19.8" fill="#fffD4"/><path d="M-113.1-95a9.9 9.9 0 1 1 0-19.8 9.9 9.9 0 0 1 0 19.8" fill="#fffD5"/><path d="M22.4-358.6a9.9 9.9 0 1 1 0-19.8 9.9 9.9 0 0 1 0 19.8" fill="#fffD5"/><path d="M-10.3 35.1a10 10 0 1 1 0-20 10 10 0 0 1 0 20" fill="#fff500D7"/><path d="M74.3 62.3a10 10 0 1 1 0-20.1 10 10 0 0 1 0 20.1" fill="#fffD8"/><path d="M-32.7-323a10.1 10.1 0 1 1 0-20.1 10.1 10.1 0 0 1 0 20.1" fill="#005bbbD8"/><path d="M33.5 53.1a10.1 10.1 0 1 1 0-20.2 10.1 10.1 0 0 1 0 20.2" fill="#c2e1ffD8"/><path d="M260.4-293.4a10.1 10.1 0 1 1 0-20.3 10.1 10.1 0 0 1 0 20.3" fill="#fffD9"/><path d="M3.4-338.9a10.2 10.2 0 1 1 0-20.4 10.2 10.2 0 0 1 0 20.4" fill="#c2e1ffDB"/><path d="M305.6-190.6a10.2 10.2 0 1 1 0-20.5 10.2 10.2 0 0 1 0 20.5" fill="#fff500DC"/><path d="M24.3-344.2a10.3 10.3 0 1 1 0-20.6 10.3 10.3 0 0 1 0 20.6" fill="#fffDD"/><path d="M96.9 52.2a10.3 10.3 0 1 1 0-20.7 10.3 10.3 0 0 1 0 20.7" fill="#005bbbDE"/><path d="M3.4-328.6a10.4 10.4 0 1 1 0-20.8 10.4 10.4 0 0 1 0 20.8" fill="#fff500E0"/><path d="M0.7-325.6a10.4 10.4 0 1 1 0-20.9 10.4 10.4 0 0 1 0 20.9" fill="#fffE0"/><path d="M271.7-249.4a10.5 10.5 0 1 1 0-21 10.5 10.5 0 0 1 0 21" fill="#c2e1ffE1"/><path d="M-28.8-299.1a10.5 10.5 0 1 1 0-21 10.5 10.5 0 0 1 0 21" fill="#005bbbE2"/><path d="M121.9 40.5a10.5 10.5 0 1 1 0-21.1 10.5 10.5 0 0 1 0 21.1" fill="#005bbbE3"/><path d="M-29.6-9.1a10.6 10.6 0 1 1 0-21.2 10.6 10.6 0 0 1 0 21.2" fill="#fff500E3"/><path d="M-9.3 5.3a10.6 10.6 0 1 1 0-21.2 10.6 10.6 0 0 1 0 21.2" fill="#c2e1ffE4"/><path d="M135.9-335.6a10.7 10.7 0 1 1 0-21.3 10.7 10.7 0 0 1 0 21.3" fill="#fff500E5"/><path d="M255.2-255.7a10.7 10.7 0 1 1 0-21.3 10.7 10.7 0 0 1 0 21.3" fill="#c2e1ffE5"/><path d="M284.5-131.3a10.7 10.7 0 1 1 0-21.4 10.7 10.7 0 0 1 0 21.4" fill="#c2e1ffE6"/><path d="M242.8-42.5a10.8 10.8 0 1 1 0-21.5 10.8 10.8 0 0 1 0 21.5" fill="#fff500E8"/><path d="M10.6 1.4a10.8 10.8 0 1 1 0-21.6 10.8 10.8 0 0 1 0 21.6" fill="#fff500E8"/><path d="M272.8-183.3a10.8 10.8 0 1 1 0-21.6 10.8 10.8 0 0 1 0 21.6" fill="#c2e1ffE9"/><path d="M98.3-322.4a10.9 10.9 0 1 1 0-21.8 10.9 10.9 0 0 1 0 21.8" fill="#c2e1ffEA"/><path d="M58.3-315.2a10.9 10.9 0 1 1 0-21.8 10.9 10.9 0 0 1 0 21.8" fill="#fffEB"/><path d="M-58.8-203a10.9 10.9 0 1 1 0-21.9 10.9 10.9 0 0 1 0 21.9" fill="#005bbbEC"/><path d="M249-226.5a11 11 0 1 1 0-21.9 11 11 0 0 1 0 21.9" fill="#fff500EC"/><path d="M-42.6-75a11 11 0 1 1 0-22.1 11 11 0 0 1 0 22.1" fill="#fffED"/><path d="M-22.6-47.6a11 11 0 1 1 0-22 11 11 0 0 1 0 22" fill="#005bbbED"/><path d="M205.3-271.5a11 11 0 1 1 0-22.1 11 11 0 0 1 0 22.1" fill="#005bbbED"/><path d="M251.7-140.2a11.1 11.1 0 1 1 0-22.2 11.1 11.1 0 0 1 0 22.2" fill="#fffEF"/><path d="M30.8-18.4a11.1 11.1 0 1 1 0-22.3 11.1 11.1 0 0 1 0 22.3" fill="#fff500F0"/><path d="M183.8-275.6a11.1 11.1 0 1 1 0-22.3 11.1 11.1 0 0 1 0 22.3" fill="#fff500F0"/><path d="M-48.8-169.2a11.1 11.1 0 1 1 0-22.3 11.1 11.1 0 0 1 0 22.3" fill="#005bbbF0"/><path d="M241.4-195.9a11.2 11.2 0 1 1 0-22.3 11.2 11.2 0 0 1 0 22.3" fill="#fff500F0"/><path d="M-10.8-249.5a11.2 11.2 0 1 1 0-22.3 11.2 11.2 0 0 1 0 22.3" fill="#fffF0"/><path d="M205.7-47.9a11.2 11.2 0 1 1 0-22.3 11.2 11.2 0 0 1 0 22.3" fill="#005bbbF0"/><path d="M-39.2-107.4a11.2 11.2 0 1 1 0-22.4 11.2 11.2 0 0 1 0 22.4" fill="#005bbbF1"/><path d="M-42.6-120.5a11.2 11.2 0 1 1 0-22.3 11.2 11.2 0 0 1 0 22.3" fill="#c2e1ffF1"/><path d="M4-260.1a11.2 11.2 0 1 1 0-22.4 11.2 11.2 0 0 1 0 22.4" fill="#c2e1ffF1"/><path d="M195.8-47.3a11.2 11.2 0 1 1 0-22.4 11.2 11.2 0 0 1 0 22.4" fill="#fff500F2"/><path d="M29.5-29.8a11.2 11.2 0 1 1 0-22.4 11.2 11.2 0 0 1 0 22.4" fill="#005bbbF2"/><path d="M43.7-24.8a11.3 11.3 0 1 1 0-22.6 11.3 11.3 0 0 1 0 22.6" fill="#005bbbF2"/><path d="M191.5-47.9a11.3 11.3 0 1 1 0-22.5 11.3 11.3 0 0 1 0 22.5" fill="#fff500F2"/><path d="M173.4-36a11.3 11.3 0 1 1 0-22.6 11.3 11.3 0 0 1 0 22.6" fill="#005bbbF3"/><path d="M172.7-44.1a11.3 11.3 0 1 1 0-22.6 11.3 11.3 0 0 1 0 22.6" fill="#fff500F4"/><path d="M22.3-253.2a11.3 11.3 0 1 1 0-22.7 11.3 11.3 0 0 1 0 22.7" fill="#fff500F4"/><path d="M110-23.5a11.3 11.3 0 1 1 0-22.7 11.3 11.3 0 0 1 0 22.7" fill="#fffF4"/><path d="M147.7-39.6a11.4 11.4 0 1 1 0-22.8 11.4 11.4 0 0 1 0 22.8" fill="#fffF5"/><path d="M129.4-268.2a11.4 11.4 0 1 1 0-22.8 11.4 11.4 0 0 1 0 22.8" fill="#fff500F5"/><path d="M177.9-239.1a11.4 11.4 0 1 1 0-22.8 11.4 11.4 0 0 1 0 22.8" fill="#c2e1ffF6"/><path d="M-13.5-127.6a11.4 11.4 0 1 1 0-22.8 11.4 11.4 0 0 1 0 22.8" fill="#005bbbF6"/><path d="M-14.4-135.6a11.4 11.4 0 1 1 0-22.9 11.4 11.4 0 0 1 0 22.9" fill="#c2e1ffF6"/><path d="M182.4-221.4a11.5 11.5 0 1 1 0-23 11.5 11.5 0 0 1 0 23" fill="#c2e1ffF7"/><path d="M10.6-194.2a11.5 11.5 0 1 1 0-23.1 11.5 11.5 0 0 1 0 23.1" fill="#fff500F8"/><path d="M87.8-248.2a11.5 11.5 0 1 1 0-23.1 11.5 11.5 0 0 1 0 23.1" fill="#fffF9"/><path d="M11.3-143.5a11.6 11.6 0 1 1 0-23.2 11.6 11.6 0 0 1 0 23.2" fill="#fff500FA"/><path d="M120.9-218.6a11.7 11.7 0 1 1 0-23.4 11.7 11.7 0 0 1 0 23.4" fill="#c2e1ffFC"/></g></svg>