<svg width="1200" height="675" viewBox="-500 -500 1200 675" xmlns="http://www.w3.org/2000/svg"><path d="M-500-500h1200v675h-1200z" fill="#000"/><style>.sparkles path{stroke-linecap:round; stroke-width:1}</style><g class="sparkles"><path d="M100-162.5l-22.9 61.3" stroke="#fff33"/><path d="M100-162.5l23.6-74.1" stroke="#005bbb34"/><path d="M100-162.5l-54 68.9" stroke="#c2e1ff35"/><path d="M100-162.5l-87.8 22.5" stroke="#c2e1ff35"/><path d="M100-162.5l47.7-80.7" stroke="#fff50036"/><path d="M100-162.5l69-65.3" stroke="#005bbb36"/><path d="M100-162.5l-58.7 79.7" stroke="#c2e1ff36"/><path d="M100-162.5l32.4 94.6" stroke="#005bbb36"/><path d="M100-162.5l-94.1-53.3" stroke="#005bbb37"/><path d="M100-162.5l28.4 104.6" stroke="#fff50037"/><path d="M100-162.5l-104.6 34.7" stroke="#fff50037"/><path d="M100-162.5l-114.9-6.1" stroke="#c2e1ff38"/><path d="M100-162.5l-65.5-96.7" stroke="#005bbb38"/><path d="M100-162.5l21.6 118.1" stroke="#fff38"/><path d="M100-162.5l-52.1 117.3" stroke="#005bbb3A"/><path d="M100-162.5l-119.4 49.8" stroke="#c2e1ff3A"/><path d="M100-162.5l105.1-78.4" stroke="#005bbb3A"/><path d="M100-162.5l-130.4-13.9" stroke="#fff5003A"/><path d="M100-162.5l104.7-89.2" stroke="#005bbb3B"/><path d="M100-162.5l129.9-57.1" stroke="#fff5003C"/><path d="M100-162.5l91.4 115.7" stroke="#005bbb3C"/><path d="M100-162.5l120.5 92.8" stroke="#fff5003D"/><path d="M100-162.5l-39.7 147.4" stroke="#c2e1ff3D"/><path d="M100-162.5l-148.1-37.5" stroke="#c2e1ff3D"/><path d="M100-162.5l152.2-18" stroke="#005bbb3D"/><path d="M100-162.5l-64.3 139.8" stroke="#fff3E"/><path d="M100-162.5l149.4 45.3" stroke="#fff5003E"/><path d="M100-162.5l-46.5 149.5" stroke="#fff5003E"/><path d="M100-162.5l108.8 113.3" stroke="#c2e1ff3E"/><path d="M100-162.5l-32.4-154.5" stroke="#c2e1ff3E"/><path d="M100-162.5l66.8 145.2" stroke="#fff5003F"/><path d="M100-162.5l149.8 56.6" stroke="#c2e1ff3F"/><path d="M100-162.5l-130.9 96.5" stroke="#fff3F"/><path d="M100-162.5l-111.3 118.6" stroke="#fff5003F"/><path d="M100-162.5l-120.1 114.5" stroke="#fff50040"/><path d="M100-162.5l25.8-166.2" stroke="#c2e1ff40"/><path d="M100-162.5l120.3 117.6" stroke="#c2e1ff40"/><path d="M100-162.5l-93.5 148.9" stroke="#fff50042"/><path d="M100-162.5l99 151.1" stroke="#c2e1ff43"/><path d="M100-162.5l-155.9 97.9" stroke="#fff50044"/><path d="M100-162.5l-69.8-171.1" stroke="#c2e1ff44"/><path d="M100-162.5l73.4 169.9" stroke="#005bbb44"/><path d="M100-162.5l-98.2-159.9" stroke="#fff50045"/><path d="M100-162.5l136.3 131.3" stroke="#fff50046"/><path d="M100-162.5l169.4 89.5" stroke="#c2e1ff46"/><path d="M100-162.5l26-190.1" stroke="#fff46"/><path d="M100-162.5l177.5-79.9" stroke="#fff47"/><path d="M100-162.5l103-168.7" stroke="#fff50048"/><path d="M100-162.5l160.3-118.3" stroke="#c2e1ff49"/><path d="M100-162.5l-38.7-196.7" stroke="#fff49"/><path d="M100-162.5l151-133.4" stroke="#005bbb49"/><path d="M100-162.5l-28.4 199.6" stroke="#fff50049"/><path d="M100-162.5l-161.7-121.8" stroke="#005bbb4A"/><path d="M100-162.5l-156.6-129.8" stroke="#c2e1ff4A"/><path d="M100-162.5l-143.4 146.1" stroke="#c2e1ff4B"/><path d="M100-162.5l22.2-204" stroke="#c2e1ff4B"/><path d="M100-162.5l-62-196" stroke="#fff5004B"/><path d="M100-162.5l198.4 58" stroke="#005bbb4B"/><path d="M100-162.5l-188.7 85.7" stroke="#fff5004B"/><path d="M100-162.5l-133-164.7" stroke="#fff5004D"/><path d="M100-162.5l-185.9-103.2" stroke="#c2e1ff4E"/><path d="M100-162.5l-59.5-204.5" stroke="#fff4E"/><path d="M100-162.5l-206.1 63.5" stroke="#c2e1ff4F"/><path d="M100-162.5l47.8-210.6" stroke="#005bbb4F"/><path d="M100-162.5l-6.6-216.4" stroke="#fff4F"/><path d="M100-162.5l214.2 38.9" stroke="#005bbb50"/><path d="M100-162.5l-162.6-150.7" stroke="#fff52"/><path d="M100-162.5l-205.6 92" stroke="#005bbb54"/><path d="M100-162.5l89.3-207" stroke="#fff50055"/><path d="M100-162.5l-126.7-186.7" stroke="#fff50055"/><path d="M100-162.5l205.1 94.3" stroke="#c2e1ff55"/><path d="M100-162.5l-225.6-16" stroke="#c2e1ff55"/><path d="M100-162.5l4.6-226.1" stroke="#005bbb55"/><path d="M100-162.5l-170-150.5" stroke="#fff50056"/><path d="M100-162.5l86.1 210.8" stroke="#005bbb56"/><path d="M100-162.5l-29.9-227.6" stroke="#fff50058"/><path d="M100-162.5l-229.4-11" stroke="#005bbb58"/><path d="M100-162.5l-78.3-216.1" stroke="#fff58"/><path d="M100-162.5l-203.7-106.7" stroke="#c2e1ff58"/><path d="M100-162.5l-218-76.5" stroke="#c2e1ff59"/><path d="M100-162.5l202.1 112.1" stroke="#005bbb59"/><path d="M100-162.5l-139.1 185.1" stroke="#005bbb5A"/><path d="M100-162.5l-227.6 43.3" stroke="#fff5A"/><path d="M100-162.5l-120.8-198.4" stroke="#fff5005A"/><path d="M100-162.5l-121.1-199" stroke="#fff5B"/><path d="M100-162.5l227.7-50.4" stroke="#fff5B"/><path d="M100-162.5l-35.8 230.9" stroke="#c2e1ff5C"/><path d="M100-162.5l192.7 132.4" stroke="#fff5C"/><path d="M100-162.5l-5 234.1" stroke="#fff5D"/><path d="M100-162.5l-26.2-233.1" stroke="#fff5E"/><path d="M100-162.5l129 196.1" stroke="#fff5E"/><path d="M100-162.5l-230.3 47" stroke="#fff5F"/><path d="M100-162.5l20.5-234.3" stroke="#005bbb5F"/><path d="M100-162.5l-50.7-230" stroke="#005bbb60"/><path d="M100-162.5l198.9 126.4" stroke="#005bbb60"/><path d="M100-162.5l231.5-44.6" stroke="#fff50060"/><path d="M100-162.5l154-178.6" stroke="#c2e1ff61"/><path d="M100-162.5l169.5 164.1" stroke="#fff61"/><path d="M100-162.5l-163.7-169.9" stroke="#fff61"/><path d="M100-162.5l218.1 90.2" stroke="#fff50061"/><path d="M100-162.5l99.4-214.3" stroke="#c2e1ff64"/><path d="M100-162.5l-192.8-136.5" stroke="#fff64"/><path d="M100-162.5l-124.7-200.6" stroke="#c2e1ff65"/><path d="M100-162.5l-186.4-145" stroke="#005bbb65"/><path d="M100-162.5l117.5 204.2" stroke="#fff67"/><path d="M100-162.5l-190.1-137.9" stroke="#005bbb69"/><path d="M100-162.5l-179.3 151.6" stroke="#fff69"/><path d="M100-162.5l-194.9-130.6" stroke="#fff50069"/><path d="M100-162.5l147-182.2" stroke="#fff6A"/><path d="M100-162.5l-96.4-213.3" stroke="#005bbb6A"/><path d="M100-162.5l-14.5-232.6" stroke="#c2e1ff6C"/><path d="M100-162.5l-230.8 30" stroke="#fff5006C"/><path d="M100-162.5l-14.3 231.6" stroke="#fff5006D"/><path d="M100-162.5l-226-52.3" stroke="#005bbb6D"/><path d="M100-162.5l-189.6-133" stroke="#005bbb6D"/><path d="M100-162.5l-220.4-67.2" stroke="#005bbb6F"/><path d="M100-162.5l-10.9-229.3" stroke="#005bbb6F"/><path d="M100-162.5l-210.1 91.5" stroke="#fff70"/><path d="M100-162.5l-218.7-67.2" stroke="#fff50070"/><path d="M100-162.5l65.1 219.3" stroke="#005bbb70"/><path d="M100-162.5l226-0.4" stroke="#fff50072"/><path d="M100-162.5l-207.5 87.8" stroke="#fff50073"/><path d="M100-162.5l-129 183.6" stroke="#fff50073"/><path d="M100-162.5l-206.3-77.1" stroke="#fff76"/><path d="M100-162.5l81.5-202.6" stroke="#fff77"/><path d="M100-162.5l-178.3-125.4" stroke="#fff50077"/><path d="M100-162.5l-167.1 136.4" stroke="#c2e1ff78"/><path d="M100-162.5l49.9-206.7" stroke="#fff50079"/><path d="M100-162.5l133.5 164.4" stroke="#fff5007A"/><path d="M100-162.5l142.1 156.9" stroke="#fff7A"/><path d="M100-162.5l22.3-210" stroke="#fff7A"/><path d="M100-162.5l-141.9-156.1" stroke="#fff7A"/><path d="M100-162.5l-183.1-101.3" stroke="#fff7B"/><path d="M100-162.5l162.7-131.4" stroke="#fff5007B"/><path d="M100-162.5l160.9 121.2" stroke="#005bbb7E"/><path d="M100-162.5l201.3 0" stroke="#fff5007E"/><path d="M100-162.5l-182.6-84" stroke="#005bbb7E"/><path d="M100-162.5l-144.4-139.5" stroke="#005bbb7E"/><path d="M100-162.5l93.2 173.5" stroke="#fff5007F"/><path d="M100-162.5l85 176.4" stroke="#c2e1ff7F"/><path d="M100-162.5l-105.4 164.7" stroke="#c2e1ff80"/><path d="M100-162.5l-55.8 186.9" stroke="#c2e1ff80"/><path d="M100-162.5l96.5 168.7" stroke="#005bbb80"/><path d="M100-162.5l-42.8-186" stroke="#c2e1ff81"/><path d="M100-162.5l-20.2 189.7" stroke="#fff50081"/><path d="M100-162.5l-164.2-93.8" stroke="#c2e1ff81"/><path d="M100-162.5l168.7 83.1" stroke="#005bbb82"/><path d="M100-162.5l-182.7 22.1" stroke="#c2e1ff83"/><path d="M100-162.5l65.6-171.3" stroke="#c2e1ff83"/><path d="M100-162.5l-175.6-40.3" stroke="#c2e1ff84"/><path d="M100-162.5l174.8-24.2" stroke="#fff50085"/><path d="M100-162.5l-173.6 20.1" stroke="#005bbb85"/><path d="M100-162.5l-93.9-146.9" stroke="#c2e1ff85"/><path d="M100-162.5l-17.9-173.1" stroke="#c2e1ff85"/><path d="M100-162.5l107 137" stroke="#fff50085"/><path d="M100-162.5l161.1-60.7" stroke="#005bbb86"/><path d="M100-162.5l-7.4-171.5" stroke="#c2e1ff86"/><path d="M100-162.5l-121.3-121.2" stroke="#fff86"/><path d="M100-162.5l-117.2-122.6" stroke="#c2e1ff86"/><path d="M100-162.5l45.7-159" stroke="#fff87"/><path d="M100-162.5l-162.7-16.6" stroke="#fff88"/><path d="M100-162.5l-56.9-152" stroke="#fff50088"/><path d="M100-162.5l132.4 82.8" stroke="#fff50089"/><path d="M100-162.5l-134.7-74.2" stroke="#fff89"/><path d="M100-162.5l-79.5-131.3" stroke="#005bbb8A"/><path d="M100-162.5l123.2-90.2" stroke="#005bbb8A"/><path d="M100-162.5l-102.5 107.5" stroke="#c2e1ff8A"/><path d="M100-162.5l-42.4 119.2" stroke="#fff5008E"/><path d="M100-162.5l98.9 74.3" stroke="#fff5008E"/><path d="M100-162.5l106.2-42.1" stroke="#fff5008F"/><path d="M100-162.5l23.9-109.6" stroke="#c2e1ff90"/><path d="M100-162.5l55.6 94.4" stroke="#005bbb90"/><path d="M100-162.5l-102.8 26.1" stroke="#fff90"/><path d="M100-162.5l-66.1 70.3" stroke="#005bbb91"/><path d="M100-162.5l75-57.7" stroke="#c2e1ff91"/><path d="M100-162.5l78.4-49.5" stroke="#fff50091"/><path d="M100-162.5l-36-84.7" stroke="#005bbb92"/><path d="M100-162.5l43.8 73.5" stroke="#fff50092"/><path d="M100-162.5l28.9-66.9" stroke="#005bbb93"/><path d="M100-162.5l40-54.3" stroke="#fff50093"/><path d="M100-162.5l20.9-35.6" stroke="#005bbb95"/></g><g class="sparcs"><path d="M77.1-95.2a6 6 0 1 1 0-12 6 6 0 0 1 0 12" fill="#fff7F"/><path d="M123.6-230.5a6.1 6.1 0 1 1 0-12.2 6.1 6.1 0 0 1 0 12.2" fill="#c2e1ff80"/><path d="M46-87.5a6.1 6.1 0 1 1 0-12.2 6.1 6.1 0 0 1 0 12.2" fill="#005bbb81"/><path d="M12.2-133.9a6.1 6.1 0 1 1 0-12.3 6.1 6.1 0 0 1 0 12.3" fill="#fff81"/><path d="M147.7-237a6.1 6.1 0 1 1 0-12.3 6.1 6.1 0 0 1 0 12.3" fill="#fff82"/><path d="M169-221.7a6.2 6.2 0 1 1 0-12.3 6.2 6.2 0 0 1 0 12.3" fill="#005bbb82"/><path d="M41.3-76.6a6.2 6.2 0 1 1 0-12.4 6.2 6.2 0 0 1 0 12.4" fill="#fff50082"/><path d="M132.4-61.8a6.2 6.2 0 1 1 0-12.3 6.2 6.2 0 0 1 0 12.3" fill="#005bbb83"/><path d="M5.9-209.6a6.2 6.2 0 1 1 0-12.5 6.2 6.2 0 0 1 0 12.5" fill="#005bbb84"/><path d="M128.4-51.7a6.2 6.2 0 1 1 0-12.5 6.2 6.2 0 0 1 0 12.5" fill="#c2e1ff84"/><path d="M-4.6-121.5a6.2 6.2 0 1 1 0-12.5 6.2 6.2 0 0 1 0 12.5" fill="#fff84"/><path d="M-14.9-162.3a6.3 6.3 0 1 1 0-12.6 6.3 6.3 0 0 1 0 12.6" fill="#fff85"/><path d="M34.5-253a6.3 6.3 0 1 1 0-12.5 6.3 6.3 0 0 1 0 12.5" fill="#fff50085"/><path d="M121.6-38.1a6.3 6.3 0 1 1 0-12.6 6.3 6.3 0 0 1 0 12.6" fill="#005bbb86"/><path d="M47.9-38.8a6.4 6.4 0 1 1 0-12.8 6.4 6.4 0 0 1 0 12.8" fill="#c2e1ff87"/><path d="M-19.4-106.3a6.4 6.4 0 1 1 0-12.8 6.4 6.4 0 0 1 0 12.8" fill="#005bbb87"/><path d="M205.1-234.5a6.4 6.4 0 1 1 0-12.8 6.4 6.4 0 0 1 0 12.8" fill="#005bbb87"/><path d="M-30.4-170a6.4 6.4 0 1 1 0-12.8 6.4 6.4 0 0 1 0 12.8" fill="#005bbb87"/><path d="M204.7-245.2a6.5 6.5 0 1 1 0-12.9 6.5 6.5 0 0 1 0 12.9" fill="#c2e1ff89"/><path d="M229.9-213.1a6.5 6.5 0 1 1 0-13 6.5 6.5 0 0 1 0 13" fill="#c2e1ff8A"/><path d="M191.4-40.3a6.6 6.6 0 1 1 0-13.1 6.6 6.6 0 0 1 0 13.1" fill="#c2e1ff8B"/><path d="M220.5-63.1a6.6 6.6 0 1 1 0-13.2 6.6 6.6 0 0 1 0 13.2" fill="#fff8C"/><path d="M60.3-8.5a6.6 6.6 0 1 1 0-13.2 6.6 6.6 0 0 1 0 13.2" fill="#fff5008C"/><path d="M-48.1-193.4a6.6 6.6 0 1 1 0-13.2 6.6 6.6 0 0 1 0 13.2" fill="#005bbb8C"/><path d="M252.2-173.9a6.6 6.6 0 1 1 0-13.2 6.6 6.6 0 0 1 0 13.2" fill="#fff5008C"/><path d="M35.7-16.1a6.6 6.6 0 1 1 0-13.2 6.6 6.6 0 0 1 0 13.2" fill="#fff8C"/><path d="M249.4-110.5a6.6 6.6 0 1 1 0-13.3 6.6 6.6 0 0 1 0 13.3" fill="#fff8D"/><path d="M53.5-6.4a6.6 6.6 0 1 1 0-13.3 6.6 6.6 0 0 1 0 13.3" fill="#fff8D"/><path d="M208.8-42.5a6.7 6.7 0 1 1 0-13.3 6.7 6.7 0 0 1 0 13.3" fill="#fff5008D"/><path d="M67.6-310.3a6.7 6.7 0 1 1 0-13.4 6.7 6.7 0 0 1 0 13.4" fill="#005bbb8D"/><path d="M166.8-10.6a6.7 6.7 0 1 1 0-13.4 6.7 6.7 0 0 1 0 13.4" fill="#fff8E"/><path d="M249.8-99.2a6.7 6.7 0 1 1 0-13.4 6.7 6.7 0 0 1 0 13.4" fill="#fff8E"/><path d="M-30.9-59.3a6.7 6.7 0 1 1 0-13.4 6.7 6.7 0 0 1 0 13.4" fill="#fff8E"/><path d="M-11.3-37.2a6.7 6.7 0 1 1 0-13.4 6.7 6.7 0 0 1 0 13.4" fill="#c2e1ff8E"/><path d="M-20.1-41.3a6.8 6.8 0 1 1 0-13.5 6.8 6.8 0 0 1 0 13.5" fill="#c2e1ff8F"/><path d="M125.8-321.9a6.8 6.8 0 1 1 0-13.6 6.8 6.8 0 0 1 0 13.6" fill="#005bbb90"/><path d="M220.3-38.1a6.8 6.8 0 1 1 0-13.6 6.8 6.8 0 0 1 0 13.6" fill="#c2e1ff90"/><path d="M6.5-6.7a6.9 6.9 0 1 1 0-13.8 6.9 6.9 0 0 1 0 13.8" fill="#fff50092"/><path d="M199-4.4a7 7 0 1 1 0-13.9 7 7 0 0 1 0 13.9" fill="#005bbb94"/><path d="M-55.9-57.6a7 7 0 1 1 0-14 7 7 0 0 1 0 14" fill="#005bbb95"/><path d="M30.2-326.6a7 7 0 1 1 0-14 7 7 0 0 1 0 14" fill="#005bbb95"/><path d="M173.4 14.4a7 7 0 1 1 0-14.1 7 7 0 0 1 0 14.1" fill="#005bbb95"/><path d="M1.8-315.3a7.1 7.1 0 1 1 0-14.2 7.1 7.1 0 0 1 0 14.2" fill="#fff96"/><path d="M236.3-24.1a7.1 7.1 0 1 1 0-14.2 7.1 7.1 0 0 1 0 14.2" fill="#fff97"/><path d="M269.4-65.9a7.1 7.1 0 1 1 0-14.2 7.1 7.1 0 0 1 0 14.2" fill="#fff97"/><path d="M126-345.4a7.1 7.1 0 1 1 0-14.3 7.1 7.1 0 0 1 0 14.3" fill="#fff98"/><path d="M277.5-235.2a7.2 7.2 0 1 1 0-14.4 7.2 7.2 0 0 1 0 14.4" fill="#005bbb99"/><path d="M203-323.9a7.2 7.2 0 1 1 0-14.5 7.2 7.2 0 0 1 0 14.5" fill="#c2e1ff9A"/><path d="M260.3-273.5a7.3 7.3 0 1 1 0-14.6 7.3 7.3 0 0 1 0 14.6" fill="#fff5009B"/><path d="M61.3-351.9a7.3 7.3 0 1 1 0-14.6 7.3 7.3 0 0 1 0 14.6" fill="#fff5009B"/><path d="M251-288.6a7.3 7.3 0 1 1 0-14.6 7.3 7.3 0 0 1 0 14.6" fill="#fff5009C"/><path d="M71.6 44.4a7.3 7.3 0 1 1 0-14.6 7.3 7.3 0 0 1 0 14.6" fill="#005bbb9C"/><path d="M-61.7-276.9a7.3 7.3 0 1 1 0-14.7 7.3 7.3 0 0 1 0 14.7" fill="#fff9C"/><path d="M-56.6-284.9a7.4 7.4 0 1 1 0-14.7 7.4 7.4 0 0 1 0 14.7" fill="#fff9C"/><path d="M-43.4-9a7.4 7.4 0 1 1 0-14.8 7.4 7.4 0 0 1 0 14.8" fill="#fff5009D"/><path d="M122.2-359.1a7.4 7.4 0 1 1 0-14.8 7.4 7.4 0 0 1 0 14.8" fill="#fff9D"/><path d="M38-351.1a7.4 7.4 0 1 1 0-14.8 7.4 7.4 0 0 1 0 14.8" fill="#fff5009D"/><path d="M298.4-97.1a7.4 7.4 0 1 1 0-14.8 7.4 7.4 0 0 1 0 14.8" fill="#005bbb9E"/><path d="M-88.7-69.4a7.4 7.4 0 1 1 0-14.9 7.4 7.4 0 0 1 0 14.9" fill="#c2e1ff9E"/><path d="M-33-319.6a7.5 7.5 0 1 1 0-15.1 7.5 7.5 0 0 1 0 15.1" fill="#c2e1ffA1"/><path d="M-85.9-258.1a7.6 7.6 0 1 1 0-15.1 7.6 7.6 0 0 1 0 15.1" fill="#fffA1"/><path d="M40.5-359.5a7.6 7.6 0 1 1 0-15.1 7.6 7.6 0 0 1 0 15.1" fill="#005bbbA1"/><path d="M-106.1-91.4a7.7 7.7 0 1 1 0-15.3 7.7 7.7 0 0 1 0 15.3" fill="#fffA3"/><path d="M147.8-365.4a7.7 7.7 0 1 1 0-15.4 7.7 7.7 0 0 1 0 15.4" fill="#c2e1ffA3"/><path d="M93.4-371.2a7.7 7.7 0 1 1 0-15.3 7.7 7.7 0 0 1 0 15.3" fill="#005bbbA3"/><path d="M314.2-115.9a7.7 7.7 0 1 1 0-15.4 7.7 7.7 0 0 1 0 15.4" fill="#005bbbA4"/><path d="M-62.6-305.4a7.8 7.8 0 1 1 0-15.6 7.8 7.8 0 0 1 0 15.6" fill="#005bbbA7"/><path d="M-105.6-62.5a8 8 0 1 1 0-16 8 8 0 0 1 0 16" fill="#005bbbAA"/><path d="M189.3-361.5a8 8 0 1 1 0-16 8 8 0 0 1 0 16" fill="#c2e1ffAA"/><path d="M-26.7-341.2a8 8 0 1 1 0-15.9 8 8 0 0 1 0 15.9" fill="#005bbbAA"/><path d="M305.1-60.2a8 8 0 1 1 0-16 8 8 0 0 1 0 16" fill="#005bbbAA"/><path d="M-125.6-170.5a8 8 0 1 1 0-16 8 8 0 0 1 0 16" fill="#fffAB"/><path d="M104.6-380.6a8 8 0 1 1 0-16 8 8 0 0 1 0 16" fill="#c2e1ffAB"/><path d="M-70-305a8 8 0 1 1 0-16 8 8 0 0 1 0 16" fill="#c2e1ffAC"/><path d="M186.1 56.4a8.1 8.1 0 1 1 0-16.1 8.1 8.1 0 0 1 0 16.1" fill="#fffAC"/><path d="M70.1-382a8.2 8.2 0 1 1 0-16.3 8.2 8.2 0 0 1 0 16.3" fill="#c2e1ffAE"/><path d="M-129.4-165.3a8.2 8.2 0 1 1 0-16.4 8.2 8.2 0 0 1 0 16.4" fill="#fffAE"/><path d="M21.7-370.4a8.2 8.2 0 1 1 0-16.4 8.2 8.2 0 0 1 0 16.4" fill="#005bbbAE"/><path d="M-103.7-261a8.2 8.2 0 1 1 0-16.4 8.2 8.2 0 0 1 0 16.4" fill="#fff500AF"/><path d="M-118-230.8a8.2 8.2 0 1 1 0-16.4 8.2 8.2 0 0 1 0 16.4" fill="#c2e1ffB0"/><path d="M302.1-42.1a8.2 8.2 0 1 1 0-16.5 8.2 8.2 0 0 1 0 16.5" fill="#fffB0"/><path d="M-39.1 30.9a8.3 8.3 0 1 1 0-16.6 8.3 8.3 0 0 1 0 16.6" fill="#fff500B1"/><path d="M-127.6-110.9a8.3 8.3 0 1 1 0-16.6 8.3 8.3 0 0 1 0 16.6" fill="#fff500B1"/><path d="M-20.8-352.6a8.3 8.3 0 1 1 0-16.6 8.3 8.3 0 0 1 0 16.6" fill="#005bbbB2"/><path d="M-21.1-353.1a8.4 8.4 0 1 1 0-16.7 8.4 8.4 0 0 1 0 16.7" fill="#fff500B3"/><path d="M327.7-204.5a8.4 8.4 0 1 1 0-16.8 8.4 8.4 0 0 1 0 16.8" fill="#fff500B3"/><path d="M64.2 76.8a8.4 8.4 0 1 1 0-16.8 8.4 8.4 0 0 1 0 16.8" fill="#c2e1ffB4"/><path d="M292.7-21.7a8.4 8.4 0 1 1 0-16.8 8.4 8.4 0 0 1 0 16.8" fill="#c2e1ffB4"/><path d="M95 80.1a8.5 8.5 0 1 1 0-17 8.5 8.5 0 0 1 0 17" fill="#c2e1ffB5"/><path d="M73.8-387.1a8.5 8.5 0 1 1 0-17 8.5 8.5 0 0 1 0 17" fill="#fffB6"/><path d="M229 42.2a8.5 8.5 0 1 1 0-17.1 8.5 8.5 0 0 1 0 17.1" fill="#fff500B6"/><path d="M-130.3-106.9a8.6 8.6 0 1 1 0-17.2 8.6 8.6 0 0 1 0 17.2" fill="#fffB7"/><path d="M120.5-388.2a8.6 8.6 0 1 1 0-17.2 8.6 8.6 0 0 1 0 17.2" fill="#c2e1ffB7"/><path d="M49.3-383.9a8.6 8.6 0 1 1 0-17.2 8.6 8.6 0 0 1 0 17.2" fill="#fff500B8"/><path d="M298.9-27.4a8.6 8.6 0 1 1 0-17.3 8.6 8.6 0 0 1 0 17.3" fill="#005bbbB9"/><path d="M331.5-198.5a8.7 8.7 0 1 1 0-17.3 8.7 8.7 0 0 1 0 17.3" fill="#fff500BA"/><path d="M254-332.5a8.7 8.7 0 1 1 0-17.3 8.7 8.7 0 0 1 0 17.3" fill="#c2e1ffBA"/><path d="M269.5 10.3a8.7 8.7 0 1 1 0-17.4 8.7 8.7 0 0 1 0 17.4" fill="#fff500BA"/><path d="M-63.7-323.7a8.7 8.7 0 1 1 0-17.4 8.7 8.7 0 0 1 0 17.4" fill="#005bbbBA"/><path d="M318.1-63.6a8.7 8.7 0 1 1 0-17.4 8.7 8.7 0 0 1 0 17.4" fill="#005bbbBB"/><path d="M199.4-368a8.9 8.9 0 1 1 0-17.7 8.9 8.9 0 0 1 0 17.7" fill="#005bbbBE"/><path d="M-92.8-290a8.9 8.9 0 1 1 0-17.9 8.9 8.9 0 0 1 0 17.9" fill="#c2e1ffBF"/><path d="M-24.7-354.1a8.9 8.9 0 1 1 0-17.9 8.9 8.9 0 0 1 0 17.9" fill="#005bbbBF"/><path d="M-86.4-298.6a8.9 8.9 0 1 1 0-17.9 8.9 8.9 0 0 1 0 17.9" fill="#fff500BF"/><path d="M217.5 50.8a9.1 9.1 0 1 1 0-18.2 9.1 9.1 0 0 1 0 18.2" fill="#fff500C2"/><path d="M-90.1-291.2a9.2 9.2 0 1 1 0-18.4 9.2 9.2 0 0 1 0 18.4" fill="#005bbbC4"/><path d="M-79.3-1.7a9.2 9.2 0 1 1 0-18.4 9.2 9.2 0 0 1 0 18.4" fill="#fffC5"/><path d="M-94.9-283.9a9.2 9.2 0 1 1 0-18.4 9.2 9.2 0 0 1 0 18.4" fill="#fff500C5"/><path d="M247-335.5a9.3 9.3 0 1 1 0-18.5 9.3 9.3 0 0 1 0 18.5" fill="#fffC6"/><path d="M3.6-366.5a9.3 9.3 0 1 1 0-18.6 9.3 9.3 0 0 1 0 18.6" fill="#fff500C6"/><path d="M85.5-385.8a9.3 9.3 0 1 1 0-18.7 9.3 9.3 0 0 1 0 18.7" fill="#c2e1ffC8"/><path d="M-130.8-123.1a9.4 9.4 0 1 1 0-18.7 9.4 9.4 0 0 1 0 18.7" fill="#005bbbC9"/><path d="M85.7 78.5a9.4 9.4 0 1 1 0-18.8 9.4 9.4 0 0 1 0 18.8" fill="#c2e1ffCA"/><path d="M-126-205.3a9.4 9.4 0 1 1 0-18.9 9.4 9.4 0 0 1 0 18.9" fill="#005bbbCA"/><path d="M-89.6-286a9.4 9.4 0 1 1 0-18.9 9.4 9.4 0 0 1 0 18.9" fill="#fffCA"/><path d="M-120.4-220.2a9.5 9.5 0 1 1 0-19 9.5 9.5 0 0 1 0 19" fill="#fffCC"/><path d="M89.1-382.3a9.6 9.6 0 1 1 0-19.1 9.6 9.6 0 0 1 0 19.1" fill="#c2e1ffCD"/><path d="M-110.1-61.4a9.6 9.6 0 1 1 0-19.2 9.6 9.6 0 0 1 0 19.2" fill="#fff500CD"/><path d="M-118.7-220.1a9.6 9.6 0 1 1 0-19.1 9.6 9.6 0 0 1 0 19.1" fill="#fffCE"/><path d="M165.1 66.4a9.6 9.6 0 1 1 0-19.2 9.6 9.6 0 0 1 0 19.2" fill="#005bbbCE"/><path d="M326-153.1a9.7 9.7 0 1 1 0-19.5 9.7 9.7 0 0 1 0 19.5" fill="#fff500D0"/><path d="M-107.5-65a9.7 9.7 0 1 1 0-19.5 9.7 9.7 0 0 1 0 19.5" fill="#fffD1"/><path d="M-29 30.9a9.8 9.8 0 1 1 0-19.6 9.8 9.8 0 0 1 0 19.6" fill="#c2e1ffD2"/><path d="M-106.3-229.6a9.9 9.9 0 1 1 0-19.9 9.9 9.9 0 0 1 0 19.9" fill="#fff500D5"/><path d="M181.5-355.1a10 10 0 1 1 0-20 10 10 0 0 1 0 20" fill="#005bbbD6"/><path d="M-78.3-277.9a10 10 0 1 1 0-20 10 10 0 0 1 0 20" fill="#fffD7"/><path d="M-67.1-16a10.1 10.1 0 1 1 0-20.2 10.1 10.1 0 0 1 0 20.2" fill="#c2e1ffD8"/><path d="M149.9-359.1a10.1 10.1 0 1 1 0-20.3 10.1 10.1 0 0 1 0 20.3" fill="#fffDA"/><path d="M233.5 12a10.2 10.2 0 1 1 0-20.3 10.2 10.2 0 0 1 0 20.3" fill="#005bbbDA"/><path d="M242.1 4.5a10.2 10.2 0 1 1 0-20.3 10.2 10.2 0 0 1 0 20.3" fill="#fffDA"/><path d="M122.3-362.3a10.2 10.2 0 1 1 0-20.4 10.2 10.2 0 0 1 0 20.4" fill="#fff500DB"/><path d="M-41.9-308.4a10.2 10.2 0 1 1 0-20.4 10.2 10.2 0 0 1 0 20.4" fill="#fff500DB"/><path d="M-83.1-253.6a10.2 10.2 0 1 1 0-20.4 10.2 10.2 0 0 1 0 20.4" fill="#005bbbDC"/><path d="M262.7-283.7a10.2 10.2 0 1 1 0-20.5 10.2 10.2 0 0 1 0 20.5" fill="#fff500DC"/><path d="M260.9-30.9a10.4 10.4 0 1 1 0-20.8 10.4 10.4 0 0 1 0 20.8" fill="#005bbbDF"/><path d="M301.3-152.1a10.4 10.4 0 1 1 0-20.8 10.4 10.4 0 0 1 0 20.8" fill="#005bbbE0"/><path d="M-82.6-236.1a10.4 10.4 0 1 1 0-20.8 10.4 10.4 0 0 1 0 20.8" fill="#fffE0"/><path d="M-44.4-291.6a10.4 10.4 0 1 1 0-20.8 10.4 10.4 0 0 1 0 20.8" fill="#c2e1ffE0"/><path d="M193.2 21.5a10.5 10.5 0 1 1 0-20.9 10.5 10.5 0 0 1 0 20.9" fill="#fffE1"/><path d="M185 24.4a10.5 10.5 0 1 1 0-21 10.5 10.5 0 0 1 0 21" fill="#005bbbE2"/><path d="M-5.4 12.8a10.5 10.5 0 1 1 0-21.1 10.5 10.5 0 0 1 0 21.1" fill="#fff500E2"/><path d="M44.2 34.9a10.5 10.5 0 1 1 0-21 10.5 10.5 0 0 1 0 21" fill="#c2e1ffE2"/><path d="M196.5 16.7a10.5 10.5 0 1 1 0-21 10.5 10.5 0 0 1 0 21" fill="#fffE2"/><path d="M57.2-337.9a10.6 10.6 0 1 1 0-21.2 10.6 10.6 0 0 1 0 21.2" fill="#005bbbE4"/><path d="M79.8 37.8a10.6 10.6 0 1 1 0-21.2 10.6 10.6 0 0 1 0 21.2" fill="#fff500E4"/><path d="M-64.2-245.7a10.6 10.6 0 1 1 0-21.2 10.6 10.6 0 0 1 0 21.2" fill="#c2e1ffE4"/><path d="M268.7-68.7a10.6 10.6 0 1 1 0-21.3 10.6 10.6 0 0 1 0 21.3" fill="#fffE5"/><path d="M-82.7-129.7a10.7 10.7 0 1 1 0-21.4 10.7 10.7 0 0 1 0 21.4" fill="#fffE6"/><path d="M165.6-323.1a10.7 10.7 0 1 1 0-21.4 10.7 10.7 0 0 1 0 21.4" fill="#005bbbE6"/><path d="M-75.6-192a10.8 10.8 0 1 1 0-21.5 10.8 10.8 0 0 1 0 21.5" fill="#fff500E8"/><path d="M274.8-175.9a10.8 10.8 0 1 1 0-21.6 10.8 10.8 0 0 1 0 21.6" fill="#005bbbE9"/><path d="M-73.6-131.5a10.8 10.8 0 1 1 0-21.7 10.8 10.8 0 0 1 0 21.7" fill="#005bbbE9"/><path d="M6.1-298.5a10.9 10.9 0 1 1 0-21.7 10.9 10.9 0 0 1 0 21.7" fill="#fff500E9"/><path d="M82.1-324.7a10.9 10.9 0 1 1 0-21.7 10.9 10.9 0 0 1 0 21.7" fill="#005bbbE9"/><path d="M207-14.6a10.9 10.9 0 1 1 0-21.7 10.9 10.9 0 0 1 0 21.7" fill="#fffE9"/><path d="M261.1-212.3a10.9 10.9 0 1 1 0-21.8 10.9 10.9 0 0 1 0 21.8" fill="#fffEA"/><path d="M92.6-323.1a10.9 10.9 0 1 1 0-21.7 10.9 10.9 0 0 1 0 21.7" fill="#fffEA"/><path d="M-21.3-272.8a10.9 10.9 0 1 1 0-21.8 10.9 10.9 0 0 1 0 21.8" fill="#fffEA"/><path d="M-17.2-274.2a10.9 10.9 0 1 1 0-21.8 10.9 10.9 0 0 1 0 21.8" fill="#fffEB"/><path d="M145.7-310.6a11 11 0 1 1 0-21.9 11 11 0 0 1 0 21.9" fill="#fff500EC"/><path d="M-62.7-168.1a11 11 0 1 1 0-22 11 11 0 0 1 0 22" fill="#c2e1ffEC"/><path d="M43.1-303.5a11 11 0 1 1 0-22 11 11 0 0 1 0 22" fill="#c2e1ffED"/><path d="M232.4-68.7a11.1 11.1 0 1 1 0-22.1 11.1 11.1 0 0 1 0 22.1" fill="#fffEE"/><path d="M-34.7-225.6a11.1 11.1 0 1 1 0-22.2 11.1 11.1 0 0 1 0 22.2" fill="#fffEF"/><path d="M20.5-282.7a11.1 11.1 0 1 1 0-22.3 11.1 11.1 0 0 1 0 22.3" fill="#fff500EF"/><path d="M223.2-241.6a11.1 11.1 0 1 1 0-22.2 11.1 11.1 0 0 1 0 22.2" fill="#005bbbEF"/><path d="M-2.5-43.8a11.2 11.2 0 1 1 0-22.3 11.2 11.2 0 0 1 0 22.3" fill="#fffF0"/><path d="M57.6-32a11.4 11.4 0 1 1 0-22.7 11.4 11.4 0 0 1 0 22.7" fill="#c2e1ffF4"/><path d="M198.9-76.9a11.4 11.4 0 1 1 0-22.7 11.4 11.4 0 0 1 0 22.7" fill="#fffF5"/><path d="M206.2-193.1a11.4 11.4 0 1 1 0-22.9 11.4 11.4 0 0 1 0 22.9" fill="#fff500F6"/><path d="M123.9-260.6a11.5 11.5 0 1 1 0-22.9 11.5 11.5 0 0 1 0 22.9" fill="#005bbbF7"/><path d="M155.6-56.7a11.5 11.5 0 1 1 0-22.9 11.5 11.5 0 0 1 0 22.9" fill="#fff500F7"/><path d="M-2.8-124.9a11.5 11.5 0 1 1 0-23 11.5 11.5 0 0 1 0 23" fill="#c2e1ffF8"/><path d="M33.9-80.6a11.6 11.6 0 1 1 0-23.2 11.6 11.6 0 0 1 0 23.2" fill="#fff500F9"/><path d="M175-208.6a11.6 11.6 0 1 1 0-23.1 11.6 11.6 0 0 1 0 23.1" fill="#c2e1ffF9"/><path d="M178.4-200.5a11.6 11.6 0 1 1 0-23.1 11.6 11.6 0 0 1 0 23.1" fill="#c2e1ffF9"/><path d="M64-235.6a11.6 11.6 0 1 1 0-23.2 11.6 11.6 0 0 1 0 23.2" fill="#005bbbF9"/><path d="M143.8-77.4a11.6 11.6 0 1 1 0-23.2 11.6 11.6 0 0 1 0 23.2" fill="#fff500FA"/><path d="M128.9-217.7a11.7 11.7 0 1 1 0-23.4 11.7 11.7 0 0 1 0 23.4" fill="#fffFB"/><path d="M140-205.1a11.7 11.7 0 1 1 0-23.4 11.7 11.7 0 0 1 0 23.4" fill="#fffFC"/><path d="M120.9-186.3a11.8 11.8 0 1 1 0-23.6 11.8 11.8 0 0 1 0 23.6" fill="#fff500FD"/></g></svg>