<svg width="1200" height="675" viewBox="-500 -500 1200 675" xmlns="http://www.w3.org/2000/svg"><path d="M-500-500h1200v675h-1200z" fill="#000"/><style>.sparkles path{stroke-linecap:round; stroke-width:1}</style><g class="sparkles"><path d="M100-162.5l-6.6 2.7" stroke="#ffd16632"/><path d="M100-162.5l-18.4-40.2" stroke="#ef476f32"/><path d="M100-162.5l-11.1-43.9" stroke="#118ab232"/><path d="M100-162.5l46.8 0" stroke="#06d6a032"/><path d="M100-162.5l16.5-61.1" stroke="#ef476f33"/><path d="M100-162.5l-64.2-34.2" stroke="#ef476f34"/><path d="M100-162.5l52.6-53.3" stroke="#ef476f34"/><path d="M100-162.5l61.1 47.9" stroke="#073b4c34"/><path d="M100-162.5l-77.4-20.7" stroke="#118ab234"/><path d="M100-162.5l-45.7 68.5" stroke="#06d6a035"/><path d="M100-162.5l-86.6 16.1" stroke="#ef476f35"/><path d="M100-162.5l-45.5 86.2" stroke="#073b4c36"/><path d="M100-162.5l20.4-100" stroke="#ef476f36"/><path d="M100-162.5l-9.8-122.2" stroke="#073b4c39"/><path d="M100-162.5l105.3-65.5" stroke="#073b4c39"/><path d="M100-162.5l113.9 64.1" stroke="#118ab23A"/><path d="M100-162.5l-116.2-68.5" stroke="#073b4c3A"/><path d="M100-162.5l73.7 116" stroke="#073b4c3B"/><path d="M100-162.5l-56.6-134.1" stroke="#073b4c3C"/><path d="M100-162.5l-84.8-119.5" stroke="#ef476f3C"/><path d="M100-162.5l-147.9-17.3" stroke="#ffd1663D"/><path d="M100-162.5l147.8-21.7" stroke="#ef476f3D"/><path d="M100-162.5l-98.6-116.8" stroke="#06d6a03D"/><path d="M100-162.5l142.4 78.9" stroke="#ffd1663F"/><path d="M100-162.5l39.7 158" stroke="#ffd1663F"/><path d="M100-162.5l-85.1-139.8" stroke="#073b4c3F"/><path d="M100-162.5l156.6 50.7" stroke="#ffd16640"/><path d="M100-162.5l-76.3-157.1" stroke="#073b4c42"/><path d="M100-162.5l2.7-175.3" stroke="#ffd16642"/><path d="M100-162.5l-84.9 155.2" stroke="#ffd16642"/><path d="M100-162.5l101.4 151.3" stroke="#ffd16644"/><path d="M100-162.5l90.6 163.7" stroke="#118ab245"/><path d="M100-162.5l40.7-183.7" stroke="#073b4c45"/><path d="M100-162.5l35-186.1" stroke="#ef476f46"/><path d="M100-162.5l-7.7-189.3" stroke="#ef476f46"/><path d="M100-162.5l88 174.1" stroke="#073b4c47"/><path d="M100-162.5l191.5 48.1" stroke="#073b4c48"/><path d="M100-162.5l197 35.9" stroke="#073b4c49"/><path d="M100-162.5l-44.6-196.1" stroke="#118ab249"/><path d="M100-162.5l-201.6 4.6" stroke="#073b4c49"/><path d="M100-162.5l179.8 93.8" stroke="#118ab24A"/><path d="M100-162.5l-148.2 140.8" stroke="#ffd1664A"/><path d="M100-162.5l-103.1-176.9" stroke="#ef476f4B"/><path d="M100-162.5l166.1-123.5" stroke="#ef476f4B"/><path d="M100-162.5l190.1 86.1" stroke="#073b4c4C"/><path d="M100-162.5l-95.5-187" stroke="#118ab24D"/><path d="M100-162.5l-209.3-45.1" stroke="#073b4c4E"/><path d="M100-162.5l-21.4-213.6" stroke="#ffd1664F"/><path d="M100-162.5l-86.8 196.6" stroke="#118ab24F"/><path d="M100-162.5l128.9 174" stroke="#06d6a04F"/><path d="M100-162.5l-129.7-174.2" stroke="#06d6a050"/><path d="M100-162.5l-209.7 57.2" stroke="#073b4c50"/><path d="M100-162.5l151.5-158.3" stroke="#118ab251"/><path d="M100-162.5l188.3-114.1" stroke="#073b4c51"/><path d="M100-162.5l217-39.3" stroke="#118ab252"/><path d="M100-162.5l25.3 220.2" stroke="#073b4c52"/><path d="M100-162.5l-167.6 148" stroke="#073b4c53"/><path d="M100-162.5l-181.7-130.8" stroke="#06d6a054"/><path d="M100-162.5l149.5 167.3" stroke="#073b4c54"/><path d="M100-162.5l156.7 160.9" stroke="#073b4c54"/><path d="M100-162.5l102.9 199.9" stroke="#06d6a054"/><path d="M100-162.5l192.7 116.7" stroke="#ef476f54"/><path d="M100-162.5l-202.7 103.9" stroke="#118ab256"/><path d="M100-162.5l-203.2 103.6" stroke="#118ab256"/><path d="M100-162.5l88.9 212.1" stroke="#ffd16658"/><path d="M100-162.5l-83.7 214.7" stroke="#073b4c58"/><path d="M100-162.5l197.3 120" stroke="#118ab259"/><path d="M100-162.5l42.2-228.1" stroke="#073b4c5A"/><path d="M100-162.5l144.5-181.6" stroke="#ffd1665A"/><path d="M100-162.5l-231.1-26.7" stroke="#118ab25B"/><path d="M100-162.5l232.1-23.8" stroke="#118ab25C"/><path d="M100-162.5l147.6 181.8" stroke="#ffd1665D"/><path d="M100-162.5l-22.7-233.1" stroke="#073b4c5D"/><path d="M100-162.5l190.6-136.2" stroke="#ffd1665D"/><path d="M100-162.5l86.8 218.2" stroke="#ffd1665E"/><path d="M100-162.5l-209.8 106.2" stroke="#073b4c5F"/><path d="M100-162.5l164.3-168.6" stroke="#ffd1665F"/><path d="M100-162.5l-144.8-185.8" stroke="#073b4c60"/><path d="M100-162.5l-60.5-227.8" stroke="#ef476f60"/><path d="M100-162.5l-122.9-201.5" stroke="#06d6a061"/><path d="M100-162.5l-154.2-178.9" stroke="#ef476f62"/><path d="M100-162.5l212.5-103.1" stroke="#118ab262"/><path d="M100-162.5l-236.2 0.5" stroke="#ffd16663"/><path d="M100-162.5l236.2 0.8" stroke="#073b4c63"/><path d="M100-162.5l-202.5-121.7" stroke="#06d6a063"/><path d="M100-162.5l-236.1 9.3" stroke="#06d6a063"/><path d="M100-162.5l-91.8 217.7" stroke="#06d6a064"/><path d="M100-162.5l66.1-226.8" stroke="#06d6a064"/><path d="M100-162.5l-236 9.6" stroke="#ffd16664"/><path d="M100-162.5l103.7 212.2" stroke="#ffd16664"/><path d="M100-162.5l122.3-202" stroke="#06d6a065"/><path d="M100-162.5l65.5 226.8" stroke="#06d6a065"/><path d="M100-162.5l-72.8 224.5" stroke="#118ab266"/><path d="M100-162.5l-64.6-227" stroke="#073b4c66"/><path d="M100-162.5l-36-233.1" stroke="#118ab266"/><path d="M100-162.5l234.2 26.9" stroke="#118ab267"/><path d="M100-162.5l-25.2-234.1" stroke="#073b4c67"/><path d="M100-162.5l-51.9 229.6" stroke="#06d6a068"/><path d="M100-162.5l-231.7 39.4" stroke="#06d6a069"/><path d="M100-162.5l188.2 140.7" stroke="#073b4c69"/><path d="M100-162.5l-146.4 183.8" stroke="#ffd16669"/><path d="M100-162.5l-218.8 85.2" stroke="#06d6a069"/><path d="M100-162.5l105-209.6" stroke="#073b4c6A"/><path d="M100-162.5l149.9 179.5" stroke="#06d6a06B"/><path d="M100-162.5l-217.5-85.8" stroke="#118ab26B"/><path d="M100-162.5l-72.4 222.2" stroke="#073b4c6B"/><path d="M100-162.5l-213.8-93.8" stroke="#06d6a06B"/><path d="M100-162.5l-151.1-175.4" stroke="#118ab26D"/><path d="M100-162.5l-155.6-171.1" stroke="#ffd1666E"/><path d="M100-162.5l-214.4 85.5" stroke="#ffd1666E"/><path d="M100-162.5l-212.6 88.6" stroke="#118ab26F"/><path d="M100-162.5l-100.8-206.1" stroke="#ffd1666F"/><path d="M100-162.5l-226.9 6.4" stroke="#ef476f71"/><path d="M100-162.5l102.4 202.5" stroke="#073b4c71"/><path d="M100-162.5l132.3-182.8" stroke="#ffd16672"/><path d="M100-162.5l-198.7 106.2" stroke="#073b4c73"/><path d="M100-162.5l225.1-3" stroke="#118ab273"/><path d="M100-162.5l191-119" stroke="#118ab273"/><path d="M100-162.5l-197.3-105.7" stroke="#073b4c74"/><path d="M100-162.5l196.2-105.5" stroke="#ef476f74"/><path d="M100-162.5l220.1-31.3" stroke="#118ab274"/><path d="M100-162.5l220.8 19.2" stroke="#118ab275"/><path d="M100-162.5l-201.9-90.5" stroke="#118ab275"/><path d="M100-162.5l187.9 116.6" stroke="#073b4c75"/><path d="M100-162.5l-167.6 139.6" stroke="#118ab277"/><path d="M100-162.5l100.4 193" stroke="#06d6a077"/><path d="M100-162.5l43.9 212.8" stroke="#ef476f77"/><path d="M100-162.5l-157.5 149" stroke="#06d6a077"/><path d="M100-162.5l-213.2-36.1" stroke="#ffd16678"/><path d="M100-162.5l161-143.7" stroke="#118ab278"/><path d="M100-162.5l53.7-208.6" stroke="#ef476f78"/><path d="M100-162.5l-97.9 191.2" stroke="#ffd16678"/><path d="M100-162.5l-63.7-204.5" stroke="#ffd16679"/><path d="M100-162.5l210.9 27.6" stroke="#073b4c79"/><path d="M100-162.5l102.9 184" stroke="#073b4c7A"/><path d="M100-162.5l167.5 123.2" stroke="#ef476f7B"/><path d="M100-162.5l-62.3 195.2" stroke="#ffd1667C"/><path d="M100-162.5l-56.6 196.4" stroke="#06d6a07D"/><path d="M100-162.5l-72.7-188.4" stroke="#ef476f7D"/><path d="M100-162.5l1.4 201.5" stroke="#06d6a07E"/><path d="M100-162.5l161.9-119" stroke="#118ab27E"/><path d="M100-162.5l194 36.7" stroke="#073b4c7F"/><path d="M100-162.5l160.5 114.1" stroke="#ffd1667F"/><path d="M100-162.5l-187.6 43.4" stroke="#118ab280"/><path d="M100-162.5l4.3 191.6" stroke="#ffd16681"/><path d="M100-162.5l-175-72.7" stroke="#ef476f81"/><path d="M100-162.5l-107.4 153.8" stroke="#ef476f82"/><path d="M100-162.5l-83.6-167.9" stroke="#ffd16682"/><path d="M100-162.5l57.7 178" stroke="#ef476f82"/><path d="M100-162.5l4.3 185.2" stroke="#073b4c83"/><path d="M100-162.5l-104.9-146.1" stroke="#073b4c84"/><path d="M100-162.5l122.7 130.9" stroke="#073b4c84"/><path d="M100-162.5l17.2-177.1" stroke="#ffd16684"/><path d="M100-162.5l95.1 146.5" stroke="#118ab285"/><path d="M100-162.5l-165.9 54" stroke="#ef476f85"/><path d="M100-162.5l157.9-70.4" stroke="#06d6a086"/><path d="M100-162.5l129.6 94.5" stroke="#118ab288"/><path d="M100-162.5l-111.7-114.6" stroke="#06d6a088"/><path d="M100-162.5l-109-114.6" stroke="#073b4c89"/><path d="M100-162.5l144.8-44.9" stroke="#073b4c8A"/><path d="M100-162.5l-142.8-44.5" stroke="#073b4c8A"/><path d="M100-162.5l-91.2 111.2" stroke="#073b4c8B"/><path d="M100-162.5l-128.7 63.6" stroke="#ffd1668B"/><path d="M100-162.5l112.1 86.3" stroke="#073b4c8C"/><path d="M100-162.5l-129.2 52.1" stroke="#ef476f8C"/><path d="M100-162.5l-99.9-70.9" stroke="#ffd1668E"/><path d="M100-162.5l21 106.8" stroke="#ffd16690"/><path d="M100-162.5l21.8 104.5" stroke="#06d6a090"/><path d="M100-162.5l69.2 79.9" stroke="#ef476f90"/><path d="M100-162.5l-101.6 11" stroke="#ffd16691"/><path d="M100-162.5l35.4 94.3" stroke="#118ab291"/><path d="M100-162.5l-85 46.3" stroke="#ffd16691"/><path d="M100-162.5l-66.1-61.3" stroke="#ef476f92"/><path d="M100-162.5l4.2-86.7" stroke="#ffd16692"/><path d="M100-162.5l73.8-41.8" stroke="#118ab292"/><path d="M100-162.5l72 10.7" stroke="#118ab293"/><path d="M100-162.5l61 20.8" stroke="#ffd16694"/><path d="M100-162.5l-4.4 38.8" stroke="#118ab295"/><path d="M100-162.5l24.9 23.4" stroke="#06d6a095"/><path d="M100-162.5l25-2" stroke="#073b4c95"/><path d="M100-162.5l6.7 23.4" stroke="#06d6a095"/></g><g class="sparcs"><path d="M93.4-153.9a5.9 5.9 0 1 1 0-11.8 5.9 5.9 0 0 1 0 11.8" fill="#073b4c7D"/><path d="M81.6-196.8a6 6 0 1 1 0-11.9 6 6 0 0 1 0 11.9" fill="#ffd1667E"/><path d="M88.9-200.5a6 6 0 1 1 0-11.9 6 6 0 0 1 0 11.9" fill="#ef476f7E"/><path d="M146.8-156.5a6 6 0 1 1 0-12 6 6 0 0 1 0 12" fill="#118ab27E"/><path d="M116.5-217.5a6 6 0 1 1 0-12.1 6 6 0 0 1 0 12.1" fill="#ffd1667F"/><path d="M35.8-190.6a6 6 0 1 1 0-12.1 6 6 0 0 1 0 12.1" fill="#118ab280"/><path d="M152.6-209.7a6.1 6.1 0 1 1 0-12.1 6.1 6.1 0 0 1 0 12.1" fill="#ef476f80"/><path d="M161.1-108.5a6.1 6.1 0 1 1 0-12.2 6.1 6.1 0 0 1 0 12.2" fill="#ffd16680"/><path d="M22.6-177.1a6.1 6.1 0 1 1 0-12.2 6.1 6.1 0 0 1 0 12.2" fill="#ef476f80"/><path d="M54.3-87.9a6.1 6.1 0 1 1 0-12.2 6.1 6.1 0 0 1 0 12.2" fill="#06d6a081"/><path d="M13.4-140.3a6.1 6.1 0 1 1 0-12.2 6.1 6.1 0 0 1 0 12.2" fill="#118ab281"/><path d="M54.5-70.2a6.2 6.2 0 1 1 0-12.3 6.2 6.2 0 0 1 0 12.3" fill="#118ab282"/><path d="M120.4-256.3a6.2 6.2 0 1 1 0-12.4 6.2 6.2 0 0 1 0 12.4" fill="#118ab283"/><path d="M90.2-278.3a6.3 6.3 0 1 1 0-12.7 6.3 6.3 0 0 1 0 12.7" fill="#ffd16686"/><path d="M205.3-221.7a6.3 6.3 0 1 1 0-12.7 6.3 6.3 0 0 1 0 12.7" fill="#ffd16686"/><path d="M213.9-92a6.4 6.4 0 1 1 0-12.8 6.4 6.4 0 0 1 0 12.8" fill="#ffd16687"/><path d="M-16.2-224.6a6.4 6.4 0 1 1 0-12.9 6.4 6.4 0 0 1 0 12.9" fill="#118ab288"/><path d="M173.7-40.1a6.5 6.5 0 1 1 0-12.9 6.5 6.5 0 0 1 0 12.9" fill="#ef476f89"/><path d="M43.4-290.1a6.5 6.5 0 1 1 0-13 6.5 6.5 0 0 1 0 13" fill="#ef476f8A"/><path d="M15.2-275.5a6.5 6.5 0 1 1 0-13.1 6.5 6.5 0 0 1 0 13.1" fill="#06d6a08B"/><path d="M-47.9-173.2a6.6 6.6 0 1 1 0-13.2 6.6 6.6 0 0 1 0 13.2" fill="#073b4c8B"/><path d="M247.8-177.6a6.6 6.6 0 1 1 0-13.2 6.6 6.6 0 0 1 0 13.2" fill="#118ab28B"/><path d="M1.4-272.7a6.6 6.6 0 1 1 0-13.2 6.6 6.6 0 0 1 0 13.2" fill="#ef476f8C"/><path d="M242.4-76.9a6.7 6.7 0 1 1 0-13.5 6.7 6.7 0 0 1 0 13.5" fill="#06d6a08E"/><path d="M139.7 2.2a6.7 6.7 0 1 1 0-13.4 6.7 6.7 0 0 1 0 13.4" fill="#ef476f8E"/><path d="M14.9-295.6a6.7 6.7 0 1 1 0-13.4 6.7 6.7 0 0 1 0 13.4" fill="#073b4c8F"/><path d="M256.6-105a6.7 6.7 0 1 1 0-13.5 6.7 6.7 0 0 1 0 13.5" fill="#ffd1668F"/><path d="M23.7-312.7a6.9 6.9 0 1 1 0-13.8 6.9 6.9 0 0 1 0 13.8" fill="#118ab292"/><path d="M102.7-331a6.9 6.9 0 1 1 0-13.7 6.9 6.9 0 0 1 0 13.7" fill="#ef476f92"/><path d="M15.1-0.4a6.9 6.9 0 1 1 0-13.8 6.9 6.9 0 0 1 0 13.8" fill="#ef476f92"/><path d="M201.4-4.3a7 7 0 1 1 0-13.9 7 7 0 0 1 0 13.9" fill="#ffd16694"/><path d="M190.6 8.3a7.1 7.1 0 1 1 0-14.1 7.1 7.1 0 0 1 0 14.1" fill="#073b4c96"/><path d="M140.7-339.2a7.1 7.1 0 1 1 0-14.1 7.1 7.1 0 0 1 0 14.1" fill="#073b4c96"/><path d="M135-341.5a7.1 7.1 0 1 1 0-14.2 7.1 7.1 0 0 1 0 14.2" fill="#118ab297"/><path d="M92.3-344.7a7.1 7.1 0 1 1 0-14.2 7.1 7.1 0 0 1 0 14.2" fill="#073b4c97"/><path d="M188 18.8a7.2 7.2 0 1 1 0-14.4 7.2 7.2 0 0 1 0 14.4" fill="#06d6a099"/><path d="M291.5-107.1a7.2 7.2 0 1 1 0-14.5 7.2 7.2 0 0 1 0 14.5" fill="#073b4c9A"/><path d="M297-119.3a7.3 7.3 0 1 1 0-14.6 7.3 7.3 0 0 1 0 14.6" fill="#06d6a09B"/><path d="M55.4-351.3a7.3 7.3 0 1 1 0-14.6 7.3 7.3 0 0 1 0 14.6" fill="#ef476f9B"/><path d="M-101.6-150.6a7.3 7.3 0 1 1 0-14.6 7.3 7.3 0 0 1 0 14.6" fill="#ef476f9C"/><path d="M279.8-61.3a7.3 7.3 0 1 1 0-14.7 7.3 7.3 0 0 1 0 14.7" fill="#06d6a09C"/><path d="M-48.2-14.3a7.4 7.4 0 1 1 0-14.7 7.4 7.4 0 0 1 0 14.7" fill="#118ab29D"/><path d="M-3.1-332a7.4 7.4 0 1 1 0-14.8 7.4 7.4 0 0 1 0 14.8" fill="#073b4c9D"/><path d="M266.1-278.5a7.4 7.4 0 1 1 0-14.9 7.4 7.4 0 0 1 0 14.9" fill="#ef476f9E"/><path d="M290.1-68.9a7.5 7.5 0 1 1 0-15 7.5 7.5 0 0 1 0 15" fill="#ef476f9F"/><path d="M4.5-342a7.5 7.5 0 1 1 0-15 7.5 7.5 0 0 1 0 15" fill="#ffd166A0"/><path d="M-109.3-200a7.6 7.6 0 1 1 0-15.2 7.6 7.6 0 0 1 0 15.2" fill="#118ab2A2"/><path d="M78.6-368.5a7.6 7.6 0 1 1 0-15.2 7.6 7.6 0 0 1 0 15.2" fill="#118ab2A2"/><path d="M13.2 41.8a7.6 7.6 0 1 1 0-15.3 7.6 7.6 0 0 1 0 15.3" fill="#073b4cA3"/><path d="M228.9 19.1a7.7 7.7 0 1 1 0-15.3 7.7 7.7 0 0 1 0 15.3" fill="#06d6a0A3"/><path d="M-29.7-329a7.7 7.7 0 1 1 0-15.4 7.7 7.7 0 0 1 0 15.4" fill="#ef476fA4"/><path d="M-109.7-97.6a7.7 7.7 0 1 1 0-15.4 7.7 7.7 0 0 1 0 15.4" fill="#ffd166A4"/><path d="M251.5-313.1a7.8 7.8 0 1 1 0-15.5 7.8 7.8 0 0 1 0 15.5" fill="#118ab2A5"/><path d="M288.3-268.8a7.8 7.8 0 1 1 0-15.6 7.8 7.8 0 0 1 0 15.6" fill="#ffd166A6"/><path d="M317-194a7.8 7.8 0 1 1 0-15.6 7.8 7.8 0 0 1 0 15.6" fill="#118ab2A6"/><path d="M125.3 65.5a7.8 7.8 0 1 1 0-15.7 7.8 7.8 0 0 1 0 15.7" fill="#06d6a0A7"/><path d="M-67.6-6.6a7.9 7.9 0 1 1 0-15.8 7.9 7.9 0 0 1 0 15.8" fill="#ffd166A9"/><path d="M-81.7-285.4a7.9 7.9 0 1 1 0-15.8 7.9 7.9 0 0 1 0 15.8" fill="#073b4cA9"/><path d="M249.5 12.7a7.9 7.9 0 1 1 0-15.8 7.9 7.9 0 0 1 0 15.8" fill="#ffd166A9"/><path d="M256.7 6.3a7.9 7.9 0 1 1 0-15.9 7.9 7.9 0 0 1 0 15.9" fill="#06d6a0A9"/><path d="M202.9 45.4a8 8 0 1 1 0-15.9 8 8 0 0 1 0 15.9" fill="#ffd166AA"/><path d="M292.7-37.8a8 8 0 1 1 0-16 8 8 0 0 1 0 16" fill="#ffd166AA"/><path d="M-102.7-50.5a8.1 8.1 0 1 1 0-16.1 8.1 8.1 0 0 1 0 16.1" fill="#06d6a0AC"/><path d="M-103.2-50.8a8.1 8.1 0 1 1 0-16.2 8.1 8.1 0 0 1 0 16.2" fill="#06d6a0AD"/><path d="M188.9 57.8a8.2 8.2 0 1 1 0-16.4 8.2 8.2 0 0 1 0 16.4" fill="#06d6a0AF"/><path d="M16.3 60.4a8.2 8.2 0 1 1 0-16.4 8.2 8.2 0 0 1 0 16.4" fill="#073b4cAF"/><path d="M297.3-34.2a8.2 8.2 0 1 1 0-16.5 8.2 8.2 0 0 1 0 16.5" fill="#ffd166B0"/><path d="M142.2-382.3a8.3 8.3 0 1 1 0-16.6 8.3 8.3 0 0 1 0 16.6" fill="#ef476fB1"/><path d="M244.5-335.8a8.3 8.3 0 1 1 0-16.6 8.3 8.3 0 0 1 0 16.6" fill="#ef476fB1"/><path d="M-131.1-180.9a8.3 8.3 0 1 1 0-16.7 8.3 8.3 0 0 1 0 16.7" fill="#06d6a0B2"/><path d="M332.1-177.9a8.4 8.4 0 1 1 0-16.8 8.4 8.4 0 0 1 0 16.8" fill="#118ab2B3"/><path d="M247.6 27.7a8.5 8.5 0 1 1 0-16.9 8.5 8.5 0 0 1 0 16.9" fill="#06d6a0B5"/><path d="M77.3-387.2a8.5 8.5 0 1 1 0-16.9 8.5 8.5 0 0 1 0 16.9" fill="#06d6a0B5"/><path d="M290.6-290.3a8.5 8.5 0 1 1 0-16.9 8.5 8.5 0 0 1 0 16.9" fill="#06d6a0B5"/><path d="M186.8 64.2a8.5 8.5 0 1 1 0-17.1 8.5 8.5 0 0 1 0 17.1" fill="#073b4cB6"/><path d="M-109.8-47.7a8.6 8.6 0 1 1 0-17.2 8.6 8.6 0 0 1 0 17.2" fill="#06d6a0B7"/><path d="M264.3-322.5a8.6 8.6 0 1 1 0-17.2 8.6 8.6 0 0 1 0 17.2" fill="#118ab2B8"/><path d="M-44.8-339.6a8.6 8.6 0 1 1 0-17.3 8.6 8.6 0 0 1 0 17.3" fill="#118ab2B8"/><path d="M39.5-381.6a8.7 8.7 0 1 1 0-17.3 8.7 8.7 0 0 1 0 17.3" fill="#073b4cB9"/><path d="M-22.9-355.3a8.7 8.7 0 1 1 0-17.5 8.7 8.7 0 0 1 0 17.5" fill="#073b4cBB"/><path d="M-54.2-332.6a8.8 8.8 0 1 1 0-17.6 8.8 8.8 0 0 1 0 17.6" fill="#06d6a0BC"/><path d="M312.5-256.8a8.8 8.8 0 1 1 0-17.6 8.8 8.8 0 0 1 0 17.6" fill="#ef476fBC"/><path d="M-136.2-153.2a8.8 8.8 0 1 1 0-17.6 8.8 8.8 0 0 1 0 17.6" fill="#ffd166BC"/><path d="M336.2-152.9a8.8 8.8 0 1 1 0-17.6 8.8 8.8 0 0 1 0 17.6" fill="#ef476fBD"/><path d="M-102.5-275.3a8.8 8.8 0 1 1 0-17.7 8.8 8.8 0 0 1 0 17.7" fill="#06d6a0BD"/><path d="M-136.1-144.3a8.8 8.8 0 1 1 0-17.7 8.8 8.8 0 0 1 0 17.7" fill="#073b4cBD"/><path d="M8.2 64.1a8.9 8.9 0 1 1 0-17.8 8.9 8.9 0 0 1 0 17.8" fill="#06d6a0BE"/><path d="M166.1-380.4a8.9 8.9 0 1 1 0-17.8 8.9 8.9 0 0 1 0 17.8" fill="#06d6a0BE"/><path d="M-136-144a8.9 8.9 0 1 1 0-17.8 8.9 8.9 0 0 1 0 17.8" fill="#ffd166BE"/><path d="M203.7 58.6a8.9 8.9 0 1 1 0-17.8 8.9 8.9 0 0 1 0 17.8" fill="#073b4cBF"/><path d="M222.3-355.6a8.9 8.9 0 1 1 0-17.9 8.9 8.9 0 0 1 0 17.9" fill="#ef476fBF"/><path d="M165.5 73.3a9 9 0 1 1 0-18 9 9 0 0 1 0 18" fill="#ffd166C0"/><path d="M27.2 71a9 9 0 1 1 0-18 9 9 0 0 1 0 18" fill="#073b4cC0"/><path d="M35.4-380.5a9 9 0 1 1 0-18 9 9 0 0 1 0 18" fill="#073b4cC1"/><path d="M64-386.6a9 9 0 1 1 0-18 9 9 0 0 1 0 18" fill="#ffd166C1"/><path d="M334.2-126.6a9.1 9.1 0 1 1 0-18.1 9.1 9.1 0 0 1 0 18.1" fill="#118ab2C2"/><path d="M74.8-387.6a9.1 9.1 0 1 1 0-18.1 9.1 9.1 0 0 1 0 18.1" fill="#ef476fC3"/><path d="M48.1 76.2a9.1 9.1 0 1 1 0-18.2 9.1 9.1 0 0 1 0 18.2" fill="#073b4cC3"/><path d="M-131.7-114a9.2 9.2 0 1 1 0-18.3 9.2 9.2 0 0 1 0 18.3" fill="#118ab2C4"/><path d="M288.2-12.6a9.2 9.2 0 1 1 0-18.3 9.2 9.2 0 0 1 0 18.3" fill="#06d6a0C4"/><path d="M-46.4 30.4a9.2 9.2 0 1 1 0-18.3 9.2 9.2 0 0 1 0 18.3" fill="#06d6a0C4"/><path d="M-118.8-68.1a9.2 9.2 0 1 1 0-18.4 9.2 9.2 0 0 1 0 18.4" fill="#ffd166C5"/><path d="M205-362.9a9.2 9.2 0 1 1 0-18.5 9.2 9.2 0 0 1 0 18.5" fill="#ef476fC5"/><path d="M249.9 26.2a9.3 9.3 0 1 1 0-18.5 9.3 9.3 0 0 1 0 18.5" fill="#ef476fC7"/><path d="M-117.5-239a9.3 9.3 0 1 1 0-18.5 9.3 9.3 0 0 1 0 18.5" fill="#118ab2C7"/><path d="M27.6 69a9.3 9.3 0 1 1 0-18.5 9.3 9.3 0 0 1 0 18.5" fill="#06d6a0C7"/><path d="M-113.8-246.9a9.3 9.3 0 1 1 0-18.7 9.3 9.3 0 0 1 0 18.7" fill="#118ab2C8"/><path d="M-51.1-328.5a9.4 9.4 0 1 1 0-18.9 9.4 9.4 0 0 1 0 18.9" fill="#118ab2CA"/><path d="M-55.6-324.1a9.5 9.5 0 1 1 0-18.9 9.5 9.5 0 0 1 0 18.9" fill="#ffd166CB"/><path d="M-114.4-67.5a9.5 9.5 0 1 1 0-19 9.5 9.5 0 0 1 0 19" fill="#06d6a0CB"/><path d="M-112.6-64.4a9.5 9.5 0 1 1 0-19 9.5 9.5 0 0 1 0 19" fill="#ef476fCC"/><path d="M-0.8-359.1a9.6 9.6 0 1 1 0-19.1 9.6 9.6 0 0 1 0 19.1" fill="#073b4cCD"/><path d="M-126.9-146.4a9.7 9.7 0 1 1 0-19.3 9.7 9.7 0 0 1 0 19.3" fill="#ef476fD0"/><path d="M202.4 49.6a9.7 9.7 0 1 1 0-19.3 9.7 9.7 0 0 1 0 19.3" fill="#073b4cD0"/><path d="M232.3-335.6a9.7 9.7 0 1 1 0-19.5 9.7 9.7 0 0 1 0 19.5" fill="#ffd166D1"/><path d="M-98.7-46.6a9.7 9.7 0 1 1 0-19.5 9.7 9.7 0 0 1 0 19.5" fill="#118ab2D1"/><path d="M325.1-155.7a9.8 9.8 0 1 1 0-19.5 9.8 9.8 0 0 1 0 19.5" fill="#073b4cD1"/><path d="M291-271.8a9.8 9.8 0 1 1 0-19.5 9.8 9.8 0 0 1 0 19.5" fill="#073b4cD1"/><path d="M-97.3-258.4a9.8 9.8 0 1 1 0-19.6 9.8 9.8 0 0 1 0 19.6" fill="#073b4cD2"/><path d="M296.2-258.1a9.8 9.8 0 1 1 0-19.7 9.8 9.8 0 0 1 0 19.7" fill="#ffd166D3"/><path d="M320.1-183.9a9.9 9.9 0 1 1 0-19.7 9.9 9.9 0 0 1 0 19.7" fill="#118ab2D3"/><path d="M320.8-133.4a9.9 9.9 0 1 1 0-19.8 9.9 9.9 0 0 1 0 19.8" fill="#ffd166D4"/><path d="M-101.9-243.1a9.9 9.9 0 1 1 0-19.8 9.9 9.9 0 0 1 0 19.8" fill="#ffd166D4"/><path d="M287.9-36a9.9 9.9 0 1 1 0-19.8 9.9 9.9 0 0 1 0 19.8" fill="#073b4cD4"/><path d="M-67.6-12.9a10 10 0 1 1 0-19.9 10 10 0 0 1 0 19.9" fill="#073b4cD6"/><path d="M200.4 40.5a10 10 0 1 1 0-20.1 10 10 0 0 1 0 20.1" fill="#073b4cD7"/><path d="M143.9 60.3a10 10 0 1 1 0-20 10 10 0 0 1 0 20" fill="#118ab2D7"/><path d="M-57.5-3.5a10 10 0 1 1 0-20 10 10 0 0 1 0 20" fill="#06d6a0D7"/><path d="M-113.2-188.5a10 10 0 1 1 0-20.1 10 10 0 0 1 0 20.1" fill="#ef476fD8"/><path d="M261-296.1a10.1 10.1 0 1 1 0-20.2 10.1 10.1 0 0 1 0 20.2" fill="#118ab2D8"/><path d="M153.7-361.1a10.1 10.1 0 1 1 0-20.1 10.1 10.1 0 0 1 0 20.1" fill="#06d6a0D8"/><path d="M2.1 38.8a10.1 10.1 0 1 1 0-20.2 10.1 10.1 0 0 1 0 20.2" fill="#ef476fD9"/><path d="M36.3-356.9a10.1 10.1 0 1 1 0-20.2 10.1 10.1 0 0 1 0 20.2" fill="#06d6a0D9"/><path d="M310.9-124.8a10.1 10.1 0 1 1 0-20.2 10.1 10.1 0 0 1 0 20.2" fill="#073b4cDA"/><path d="M202.9 31.7a10.2 10.2 0 1 1 0-20.4 10.2 10.2 0 0 1 0 20.4" fill="#ffd166DB"/><path d="M267.5-29a10.3 10.3 0 1 1 0-20.6 10.3 10.3 0 0 1 0 20.6" fill="#06d6a0DC"/><path d="M37.7 43a10.3 10.3 0 1 1 0-20.7 10.3 10.3 0 0 1 0 20.7" fill="#118ab2DE"/><path d="M43.4 44.2a10.3 10.3 0 1 1 0-20.7 10.3 10.3 0 0 1 0 20.7" fill="#118ab2DE"/><path d="M27.3-340.5a10.4 10.4 0 1 1 0-20.8 10.4 10.4 0 0 1 0 20.8" fill="#073b4cDF"/><path d="M101.4 49.4a10.4 10.4 0 1 1 0-20.8 10.4 10.4 0 0 1 0 20.8" fill="#06d6a0DF"/><path d="M261.9-271.1a10.4 10.4 0 1 1 0-20.8 10.4 10.4 0 0 1 0 20.8" fill="#ffd166E0"/><path d="M294-115.3a10.5 10.5 0 1 1 0-21 10.5 10.5 0 0 1 0 21" fill="#118ab2E1"/><path d="M260.5-37.9a10.5 10.5 0 1 1 0-21 10.5 10.5 0 0 1 0 21" fill="#ffd166E1"/><path d="M-87.6-108.5a10.6 10.6 0 1 1 0-21.2 10.6 10.6 0 0 1 0 21.2" fill="#ffd166E3"/><path d="M104.3 39.7a10.6 10.6 0 1 1 0-21.2 10.6 10.6 0 0 1 0 21.2" fill="#118ab2E4"/><path d="M-75-224.6a10.6 10.6 0 1 1 0-21.2 10.6 10.6 0 0 1 0 21.2" fill="#118ab2E4"/><path d="M-7.4 1.9a10.7 10.7 0 1 1 0-21.3 10.7 10.7 0 0 1 0 21.3" fill="#118ab2E5"/><path d="M16.4-319.7a10.7 10.7 0 1 1 0-21.3 10.7 10.7 0 0 1 0 21.3" fill="#073b4cE5"/><path d="M157.7 26.1a10.7 10.7 0 1 1 0-21.3 10.7 10.7 0 0 1 0 21.3" fill="#073b4cE5"/><path d="M104.3 33.4a10.7 10.7 0 1 1 0-21.4 10.7 10.7 0 0 1 0 21.4" fill="#06d6a0E6"/><path d="M-4.9-297.8a10.8 10.8 0 1 1 0-21.5 10.8 10.8 0 0 1 0 21.5" fill="#118ab2E8"/><path d="M222.7-20.8a10.8 10.8 0 1 1 0-21.6 10.8 10.8 0 0 1 0 21.6" fill="#06d6a0E8"/><path d="M117.2-328.8a10.8 10.8 0 1 1 0-21.6 10.8 10.8 0 0 1 0 21.6" fill="#06d6a0E8"/><path d="M195.1-5.2a10.8 10.8 0 1 1 0-21.7 10.8 10.8 0 0 1 0 21.7" fill="#073b4cE9"/><path d="M-65.9-97.7a10.9 10.9 0 1 1 0-21.7 10.9 10.9 0 0 1 0 21.7" fill="#ef476fE9"/><path d="M257.9-222a10.9 10.9 0 1 1 0-21.7 10.9 10.9 0 0 1 0 21.7" fill="#06d6a0EA"/><path d="M229.6-57a11 11 0 1 1 0-22.1 11 11 0 0 1 0 22.1" fill="#ffd166ED"/><path d="M-11.7-266.1a11 11 0 1 1 0-22.1 11 11 0 0 1 0 22.1" fill="#ffd166ED"/><path d="M-9-266.1a11.1 11.1 0 1 1 0-22.1 11.1 11.1 0 0 1 0 22.1" fill="#ffd166EE"/><path d="M244.8-196.3a11.1 11.1 0 1 1 0-22.3 11.1 11.1 0 0 1 0 22.3" fill="#ef476fEF"/><path d="M-42.8-195.9a11.1 11.1 0 1 1 0-22.3 11.1 11.1 0 0 1 0 22.3" fill="#073b4cF0"/><path d="M8.8-40.1a11.2 11.2 0 1 1 0-22.4 11.2 11.2 0 0 1 0 22.4" fill="#118ab2F1"/><path d="M-28.7-87.7a11.2 11.2 0 1 1 0-22.4 11.2 11.2 0 0 1 0 22.4" fill="#118ab2F1"/><path d="M212.1-64.9a11.2 11.2 0 1 1 0-22.5 11.2 11.2 0 0 1 0 22.5" fill="#ffd166F2"/><path d="M-29.2-99.2a11.2 11.2 0 1 1 0-22.5 11.2 11.2 0 0 1 0 22.5" fill="#06d6a0F2"/><path d="M0.1-222a11.4 11.4 0 1 1 0-22.7 11.4 11.4 0 0 1 0 22.7" fill="#ef476fF5"/><path d="M121-44.2a11.5 11.5 0 1 1 0-23 11.5 11.5 0 0 1 0 23" fill="#06d6a0F7"/><path d="M121.8-46.5a11.5 11.5 0 1 1 0-23 11.5 11.5 0 0 1 0 23" fill="#ffd166F7"/><path d="M169.2-71.1a11.5 11.5 0 1 1 0-23 11.5 11.5 0 0 1 0 23" fill="#118ab2F8"/><path d="M-1.6-140a11.5 11.5 0 1 1 0-23 11.5 11.5 0 0 1 0 23" fill="#ffd166F8"/><path d="M135.4-56.6a11.5 11.5 0 1 1 0-23.1 11.5 11.5 0 0 1 0 23.1" fill="#073b4cF8"/><path d="M15-104.6a11.6 11.6 0 1 1 0-23.1 11.6 11.6 0 0 1 0 23.1" fill="#ffd166F9"/><path d="M33.9-212.2a11.6 11.6 0 1 1 0-23.1 11.6 11.6 0 0 1 0 23.1" fill="#118ab2FA"/><path d="M104.2-237.6a11.6 11.6 0 1 1 0-23.2 11.6 11.6 0 0 1 0 23.2" fill="#073b4cFA"/><path d="M173.8-192.6a11.6 11.6 0 1 1 0-23.3 11.6 11.6 0 0 1 0 23.3" fill="#073b4cFA"/><path d="M172-140.1a11.7 11.7 0 1 1 0-23.4 11.7 11.7 0 0 1 0 23.4" fill="#118ab2FB"/><path d="M161-130a11.7 11.7 0 1 1 0-23.4 11.7 11.7 0 0 1 0 23.4" fill="#06d6a0FC"/><path d="M95.6-111.9a11.8 11.8 0 1 1 0-23.6 11.8 11.8 0 0 1 0 23.6" fill="#118ab2FE"/><path d="M124.9-127.3a11.8 11.8 0 1 1 0-23.5 11.8 11.8 0 0 1 0 23.5" fill="#ffd166FE"/><path d="M125-152.7a11.8 11.8 0 1 1 0-23.6 11.8 11.8 0 0 1 0 23.6" fill="#ffd166FE"/><path d="M106.7-127.3a11.8 11.8 0 1 1 0-23.6 11.8 11.8 0 0 1 0 23.6" fill="#ef476fFE"/></g></svg>