<svg width="1200" height="675" viewBox="-500 -500 1200 675" xmlns="http://www.w3.org/2000/svg"><path d="M-500-500h1200v675h-1200z" fill="#000"/><style>.sparkles path{stroke-linecap:round; stroke-width:1}</style><g class="sparkles"><path d="M100-162.5l12.2-15.8" stroke="#ffffff32"/><path d="M100-162.5l-27.7-9.7" stroke="#11223332"/><path d="M100-162.5l41-4.3" stroke="#14213d32"/><path d="M100-162.5l1.4-47.7" stroke="#11223333"/><path d="M100-162.5l-25.5 52.3" stroke="#ffffff33"/><path d="M100-162.5l-8.3-64.5" stroke="#14213d33"/><path d="M100-162.5l-7.7 65.9" stroke="#fca31134"/><path d="M100-162.5l-28.1 61.1" stroke="#14213d34"/><path d="M100-162.5l7 82.7" stroke="#fca31135"/><path d="M100-162.5l84.7-1.7" stroke="#11223335"/><path d="M100-162.5l82.3-24.4" stroke="#fca31135"/><path d="M100-162.5l73 48.2" stroke="#11223335"/><path d="M100-162.5l-94.6-25.7" stroke="#11223336"/><path d="M100-162.5l-90.9-47.4" stroke="#e5e5e536"/><path d="M100-162.5l27 105.9" stroke="#11223337"/><path d="M100-162.5l116.5 15.1" stroke="#fca31138"/><path d="M100-162.5l-86.2 80" stroke="#14213d38"/><path d="M100-162.5l122.6 0" stroke="#11223339"/><path d="M100-162.5l80.2 95.2" stroke="#fca31139"/><path d="M100-162.5l77.6 101.4" stroke="#11223339"/><path d="M100-162.5l-128.5-20.3" stroke="#1122333A"/><path d="M100-162.5l-43.6 126.9" stroke="#14213d3A"/><path d="M100-162.5l-34.6-138.2" stroke="#e5e5e53C"/><path d="M100-162.5l-104.8-99.5" stroke="#ffffff3C"/><path d="M100-162.5l73.2-124.9" stroke="#ffffff3C"/><path d="M100-162.5l-126.7-78.8" stroke="#fca3113D"/><path d="M100-162.5l-137.5-62.1" stroke="#ffffff3D"/><path d="M100-162.5l-97.9 120.6" stroke="#e5e5e53E"/><path d="M100-162.5l-8.1 160.8" stroke="#14213d3F"/><path d="M100-162.5l155.1-43.9" stroke="#1122333F"/><path d="M100-162.5l-163 23.1" stroke="#11223340"/><path d="M100-162.5l-158.8 47.7" stroke="#e5e5e540"/><path d="M100-162.5l64.2-153.4" stroke="#fca31140"/><path d="M100-162.5l53.6-158.4" stroke="#ffffff40"/><path d="M100-162.5l-165.7-30.4" stroke="#14213d40"/><path d="M100-162.5l138.1 99" stroke="#fca31141"/><path d="M100-162.5l58-159.7" stroke="#ffffff41"/><path d="M100-162.5l-172.1-3.9" stroke="#14213d41"/><path d="M100-162.5l-34-168.8" stroke="#fca31141"/><path d="M100-162.5l-143.8 100.7" stroke="#e5e5e542"/><path d="M100-162.5l29.8-174.9" stroke="#ffffff42"/><path d="M100-162.5l91.5 153.3" stroke="#11223343"/><path d="M100-162.5l-6.6-181.9" stroke="#fca31144"/><path d="M100-162.5l50.1 176.7" stroke="#11223344"/><path d="M100-162.5l-104.3-154.3" stroke="#fca31145"/><path d="M100-162.5l188.7-24.3" stroke="#fca31146"/><path d="M100-162.5l-192 10.8" stroke="#11223346"/><path d="M100-162.5l156.8 112.1" stroke="#e5e5e547"/><path d="M100-162.5l184.5 56.7" stroke="#fca31147"/><path d="M100-162.5l178 80.9" stroke="#e5e5e547"/><path d="M100-162.5l-153.4 127.3" stroke="#11223349"/><path d="M100-162.5l-198.2-36.4" stroke="#ffffff49"/><path d="M100-162.5l32.8-200.5" stroke="#fca3114A"/><path d="M100-162.5l-152.8 135" stroke="#1122334A"/><path d="M100-162.5l197.2 53.3" stroke="#fca3114A"/><path d="M100-162.5l-166.8-117.9" stroke="#1122334A"/><path d="M100-162.5l132.7-157.7" stroke="#e5e5e54B"/><path d="M100-162.5l-102.5 179.6" stroke="#fca3114B"/><path d="M100-162.5l-126.2 164.5" stroke="#fca3114C"/><path d="M100-162.5l27.8 205.7" stroke="#fca3114C"/><path d="M100-162.5l-147.6 146.6" stroke="#e5e5e54C"/><path d="M100-162.5l-13.9-208.1" stroke="#14213d4C"/><path d="M100-162.5l-173 116.7" stroke="#ffffff4C"/><path d="M100-162.5l-192.7 85.1" stroke="#ffffff4D"/><path d="M100-162.5l-83.3-193.6" stroke="#1122334D"/><path d="M100-162.5l43.6-207" stroke="#1122334D"/><path d="M100-162.5l-147.3 153" stroke="#fca3114E"/><path d="M100-162.5l67.1-201.9" stroke="#e5e5e54E"/><path d="M100-162.5l49.5-207.2" stroke="#fca3114E"/><path d="M100-162.5l-211.6 30.2" stroke="#14213d4E"/><path d="M100-162.5l-177.1-120.4" stroke="#1122334E"/><path d="M100-162.5l-201.1-73.6" stroke="#e5e5e54E"/><path d="M100-162.5l-64.2 205.6" stroke="#ffffff4F"/><path d="M100-162.5l162.3-142.2" stroke="#ffffff4F"/><path d="M100-162.5l209.6-54.9" stroke="#11223350"/><path d="M100-162.5l-59.4-208.8" stroke="#14213d50"/><path d="M100-162.5l119.1-181.7" stroke="#e5e5e550"/><path d="M100-162.5l-12.3 217.7" stroke="#e5e5e550"/><path d="M100-162.5l74.2 207.4" stroke="#11223351"/><path d="M100-162.5l-219.9-16.2" stroke="#e5e5e552"/><path d="M100-162.5l177 136.2" stroke="#ffffff53"/><path d="M100-162.5l-18.3 224.3" stroke="#e5e5e554"/><path d="M100-162.5l-224.7-18.9" stroke="#11223355"/><path d="M100-162.5l-22-224.5" stroke="#11223355"/><path d="M100-162.5l-140.3 176.7" stroke="#fca31155"/><path d="M100-162.5l-44.7 221.2" stroke="#fca31155"/><path d="M100-162.5l-28-225.5" stroke="#fca31156"/><path d="M100-162.5l229.7-1.1" stroke="#14213d58"/><path d="M100-162.5l74.3 217.7" stroke="#fca31158"/><path d="M100-162.5l145.9 178.6" stroke="#11223359"/><path d="M100-162.5l144.1-181.1" stroke="#11223359"/><path d="M100-162.5l-182.1-143.3" stroke="#ffffff5A"/><path d="M100-162.5l154.7 175.2" stroke="#e5e5e55C"/><path d="M100-162.5l-188.6 138.6" stroke="#e5e5e55D"/><path d="M100-162.5l-73.5-222.4" stroke="#ffffff5D"/><path d="M100-162.5l26.7 233.3" stroke="#1122335E"/><path d="M100-162.5l-45.5 230.5" stroke="#fca3115E"/><path d="M100-162.5l230.8 46.1" stroke="#1122335F"/><path d="M100-162.5l204.6-116.4" stroke="#1122335F"/><path d="M100-162.5l82.3 220.8" stroke="#ffffff60"/><path d="M100-162.5l-43.6 231.6" stroke="#e5e5e560"/><path d="M100-162.5l-157.8-175.3" stroke="#11223360"/><path d="M100-162.5l-51.1 230.4" stroke="#14213d61"/><path d="M100-162.5l-20.3-235.3" stroke="#ffffff63"/><path d="M100-162.5l83.7-220.9" stroke="#14213d63"/><path d="M100-162.5l97.1 215.1" stroke="#11223366"/><path d="M100-162.5l42.9 231.8" stroke="#e5e5e567"/><path d="M100-162.5l132.7-194.2" stroke="#14213d68"/><path d="M100-162.5l154.8 176.7" stroke="#14213d69"/><path d="M100-162.5l-114.9 204.2" stroke="#ffffff6A"/><path d="M100-162.5l-100.8-210.1" stroke="#e5e5e56C"/><path d="M100-162.5l117.7-201.1" stroke="#ffffff6C"/><path d="M100-162.5l231 28.9" stroke="#14213d6C"/><path d="M100-162.5l119.1-199.9" stroke="#fca3116C"/><path d="M100-162.5l144.2 182.3" stroke="#e5e5e56C"/><path d="M100-162.5l161.2-166.6" stroke="#fca3116D"/><path d="M100-162.5l-231.2 4.4" stroke="#ffffff6E"/><path d="M100-162.5l15.9 230.2" stroke="#1122336E"/><path d="M100-162.5l128.6-191.5" stroke="#e5e5e56E"/><path d="M100-162.5l90.7-211.8" stroke="#1122336F"/><path d="M100-162.5l18.3-229.2" stroke="#14213d6F"/><path d="M100-162.5l164.3 160.6" stroke="#ffffff6F"/><path d="M100-162.5l6.8-229.2" stroke="#ffffff70"/><path d="M100-162.5l-10.1 228.3" stroke="#fca31170"/><path d="M100-162.5l-216.4 69.9" stroke="#e5e5e571"/><path d="M100-162.5l-171.8 143.5" stroke="#fca31173"/><path d="M100-162.5l170.6 144.1" stroke="#14213d74"/><path d="M100-162.5l221.9-8.8" stroke="#e5e5e575"/><path d="M100-162.5l-218.9-34.9" stroke="#e5e5e575"/><path d="M100-162.5l-18.4-220.8" stroke="#14213d75"/><path d="M100-162.5l213.6 54" stroke="#ffffff76"/><path d="M100-162.5l-167 137.1" stroke="#14213d78"/><path d="M100-162.5l183.5 113.1" stroke="#e5e5e578"/><path d="M100-162.5l195.1 89.2" stroke="#fca31178"/><path d="M100-162.5l-194.1-90.2" stroke="#fca31179"/><path d="M100-162.5l-58.8 204.9" stroke="#14213d79"/><path d="M100-162.5l49.5-207.2" stroke="#14213d79"/><path d="M100-162.5l138.8 161.4" stroke="#14213d79"/><path d="M100-162.5l140.2-153.3" stroke="#fca3117B"/><path d="M100-162.5l85.8-189" stroke="#e5e5e57B"/><path d="M100-162.5l-185.1-87.9" stroke="#e5e5e57C"/><path d="M100-162.5l170.6 108.7" stroke="#ffffff7D"/><path d="M100-162.5l6.9 198.6" stroke="#ffffff7F"/><path d="M100-162.5l190.3 50.4" stroke="#e5e5e57F"/><path d="M100-162.5l151.2-125.5" stroke="#e5e5e57F"/><path d="M100-162.5l-53.4-188.3" stroke="#14213d80"/><path d="M100-162.5l15.7 194.3" stroke="#11223380"/><path d="M100-162.5l-192-26.1" stroke="#14213d80"/><path d="M100-162.5l-9.2-189.3" stroke="#ffffff81"/><path d="M100-162.5l19.7 188.4" stroke="#14213d81"/><path d="M100-162.5l-138.2-128.4" stroke="#e5e5e582"/><path d="M100-162.5l164.6-89.5" stroke="#fca31182"/><path d="M100-162.5l55.4 176.5" stroke="#11223383"/><path d="M100-162.5l-169.8 73.5" stroke="#fca31183"/><path d="M100-162.5l160 86.4" stroke="#ffffff83"/><path d="M100-162.5l151.4 100.4" stroke="#ffffff83"/><path d="M100-162.5l137.8 110.3" stroke="#14213d85"/><path d="M100-162.5l-163.2 66.9" stroke="#14213d85"/><path d="M100-162.5l-164.3 39.3" stroke="#e5e5e586"/><path d="M100-162.5l-27.2-162" stroke="#14213d87"/><path d="M100-162.5l153.2-52.8" stroke="#11223388"/><path d="M100-162.5l-98.2-112.5" stroke="#e5e5e58A"/><path d="M100-162.5l73.6 127.3" stroke="#ffffff8B"/><path d="M100-162.5l64.6 126.8" stroke="#e5e5e58B"/><path d="M100-162.5l112.8-75.4" stroke="#1122338C"/><path d="M100-162.5l36.6 130.1" stroke="#ffffff8D"/><path d="M100-162.5l131.5-28.7" stroke="#14213d8D"/><path d="M100-162.5l10.8-134.1" stroke="#fca3118D"/><path d="M100-162.5l95.9 89.2" stroke="#14213d8D"/><path d="M100-162.5l-124.7 36.6" stroke="#e5e5e58D"/><path d="M100-162.5l-22.5 126.2" stroke="#14213d8E"/><path d="M100-162.5l-23.1 119.9" stroke="#14213d8E"/><path d="M100-162.5l51.5-109.2" stroke="#1122338E"/><path d="M100-162.5l74.3 93.1" stroke="#e5e5e58F"/><path d="M100-162.5l43.4-110.3" stroke="#ffffff8F"/><path d="M100-162.5l-6.2 114.3" stroke="#14213d8F"/><path d="M100-162.5l9.3 109.1" stroke="#e5e5e590"/><path d="M100-162.5l-64.6-61.6" stroke="#e5e5e592"/><path d="M100-162.5l-63.7-19" stroke="#11223393"/><path d="M100-162.5l-15.2 63.7" stroke="#ffffff94"/><path d="M100-162.5l-0.7-60.1" stroke="#ffffff94"/></g><g class="sparcs"><path d="M112.2-172.4a5.9 5.9 0 1 1 0-11.9 5.9 5.9 0 0 1 0 11.9" fill="#e5e5e57D"/><path d="M72.3-166.3a5.9 5.9 0 1 1 0-11.8 5.9 5.9 0 0 1 0 11.8" fill="#ffffff7D"/><path d="M141-160.8a6 6 0 1 1 0-11.9 6 6 0 0 1 0 11.9" fill="#e5e5e57D"/><path d="M101.4-204.2a6 6 0 1 1 0-12 6 6 0 0 1 0 12" fill="#1122337E"/><path d="M74.5-104.2a6 6 0 1 1 0-12 6 6 0 0 1 0 12" fill="#fca3117F"/><path d="M91.7-221a6 6 0 1 1 0-12.1 6 6 0 0 1 0 12.1" fill="#fca3117F"/><path d="M92.3-90.6a6 6 0 1 1 0-12 6 6 0 0 1 0 12" fill="#14213d7F"/><path d="M71.9-95.4a6 6 0 1 1 0-12 6 6 0 0 1 0 12" fill="#fca3117F"/><path d="M107-73.7a6.1 6.1 0 1 1 0-12.2 6.1 6.1 0 0 1 0 12.2" fill="#ffffff81"/><path d="M184.7-158.1a6.1 6.1 0 1 1 0-12.2 6.1 6.1 0 0 1 0 12.2" fill="#e5e5e581"/><path d="M182.3-180.8a6.1 6.1 0 1 1 0-12.2 6.1 6.1 0 0 1 0 12.2" fill="#11223381"/><path d="M173-108.1a6.1 6.1 0 1 1 0-12.3 6.1 6.1 0 0 1 0 12.3" fill="#e5e5e581"/><path d="M5.4-182a6.2 6.2 0 1 1 0-12.4 6.2 6.2 0 0 1 0 12.4" fill="#11223382"/><path d="M9.1-203.7a6.2 6.2 0 1 1 0-12.4 6.2 6.2 0 0 1 0 12.4" fill="#ffffff83"/><path d="M127-50.4a6.2 6.2 0 1 1 0-12.5 6.2 6.2 0 0 1 0 12.5" fill="#fca31184"/><path d="M216.5-141.1a6.3 6.3 0 1 1 0-12.6 6.3 6.3 0 0 1 0 12.6" fill="#e5e5e585"/><path d="M13.8-76.2a6.3 6.3 0 1 1 0-12.6 6.3 6.3 0 0 1 0 12.6" fill="#e5e5e585"/><path d="M222.6-156.2a6.3 6.3 0 1 1 0-12.6 6.3 6.3 0 0 1 0 12.6" fill="#11223386"/><path d="M180.2-60.9a6.3 6.3 0 1 1 0-12.7 6.3 6.3 0 0 1 0 12.7" fill="#14213d86"/><path d="M177.6-54.7a6.4 6.4 0 1 1 0-12.8 6.4 6.4 0 0 1 0 12.8" fill="#14213d87"/><path d="M-28.5-176.4a6.4 6.4 0 1 1 0-12.8 6.4 6.4 0 0 1 0 12.8" fill="#11223387"/><path d="M56.4-29.2a6.4 6.4 0 1 1 0-12.9 6.4 6.4 0 0 1 0 12.9" fill="#14213d88"/><path d="M65.4-294.2a6.5 6.5 0 1 1 0-13 6.5 6.5 0 0 1 0 13" fill="#fca3118A"/><path d="M-4.8-255.5a6.5 6.5 0 1 1 0-13 6.5 6.5 0 0 1 0 13" fill="#1122338A"/><path d="M173.2-280.9a6.5 6.5 0 1 1 0-13 6.5 6.5 0 0 1 0 13" fill="#ffffff8A"/><path d="M-26.7-234.7a6.6 6.6 0 1 1 0-13.2 6.6 6.6 0 0 1 0 13.2" fill="#fca3118B"/><path d="M-37.5-218a6.6 6.6 0 1 1 0-13.2 6.6 6.6 0 0 1 0 13.2" fill="#1122338B"/><path d="M2.1-35.3a6.6 6.6 0 1 1 0-13.2 6.6 6.6 0 0 1 0 13.2" fill="#ffffff8D"/><path d="M91.9 5a6.7 6.7 0 1 1 0-13.4 6.7 6.7 0 0 1 0 13.4" fill="#ffffff8E"/><path d="M255.1-199.7a6.7 6.7 0 1 1 0-13.4 6.7 6.7 0 0 1 0 13.4" fill="#1122338E"/><path d="M-63-132.6a6.7 6.7 0 1 1 0-13.5 6.7 6.7 0 0 1 0 13.5" fill="#ffffff8F"/><path d="M-58.8-108a6.8 6.8 0 1 1 0-13.5 6.8 6.8 0 0 1 0 13.5" fill="#1122338F"/><path d="M164.2-309.2a6.8 6.8 0 1 1 0-13.5 6.8 6.8 0 0 1 0 13.5" fill="#fca3118F"/><path d="M153.6-314.2a6.8 6.8 0 1 1 0-13.5 6.8 6.8 0 0 1 0 13.5" fill="#14213d90"/><path d="M-65.7-186.1a6.8 6.8 0 1 1 0-13.6 6.8 6.8 0 0 1 0 13.6" fill="#14213d90"/><path d="M238.1-56.7a6.8 6.8 0 1 1 0-13.6 6.8 6.8 0 0 1 0 13.6" fill="#14213d90"/><path d="M158-315.4a6.8 6.8 0 1 1 0-13.6 6.8 6.8 0 0 1 0 13.6" fill="#11223390"/><path d="M-72.1-159.5a6.8 6.8 0 1 1 0-13.7 6.8 6.8 0 0 1 0 13.7" fill="#fca31191"/><path d="M66-324.5a6.8 6.8 0 1 1 0-13.7 6.8 6.8 0 0 1 0 13.7" fill="#e5e5e591"/><path d="M-43.8-54.9a6.9 6.9 0 1 1 0-13.8 6.9 6.9 0 0 1 0 13.8" fill="#11223392"/><path d="M129.8-330.4a6.9 6.9 0 1 1 0-13.9 6.9 6.9 0 0 1 0 13.9" fill="#ffffff93"/><path d="M191.5-2.2a6.9 6.9 0 1 1 0-13.9 6.9 6.9 0 0 1 0 13.9" fill="#fca31193"/><path d="M93.4-337.4a7 7 0 1 1 0-14 7 7 0 0 1 0 14" fill="#11223394"/><path d="M150.1 21.2a7 7 0 1 1 0-14 7 7 0 0 1 0 14" fill="#e5e5e595"/><path d="M-4.3-309.7a7 7 0 1 1 0-14.1 7 7 0 0 1 0 14.1" fill="#ffffff95"/><path d="M288.7-179.7a7.1 7.1 0 1 1 0-14.2 7.1 7.1 0 0 1 0 14.2" fill="#11223397"/><path d="M-92-144.6a7.1 7.1 0 1 1 0-14.3 7.1 7.1 0 0 1 0 14.3" fill="#11223398"/><path d="M256.8-43.3a7.2 7.2 0 1 1 0-14.3 7.2 7.2 0 0 1 0 14.3" fill="#14213d98"/><path d="M284.5-98.7a7.2 7.2 0 1 1 0-14.3 7.2 7.2 0 0 1 0 14.3" fill="#ffffff98"/><path d="M278-74.4a7.2 7.2 0 1 1 0-14.4 7.2 7.2 0 0 1 0 14.4" fill="#ffffff99"/><path d="M-53.4-28a7.3 7.3 0 1 1 0-14.5 7.3 7.3 0 0 1 0 14.5" fill="#1122339B"/><path d="M-98.2-191.6a7.3 7.3 0 1 1 0-14.7 7.3 7.3 0 0 1 0 14.7" fill="#fca3119C"/><path d="M132.8-355.6a7.4 7.4 0 1 1 0-14.7 7.4 7.4 0 0 1 0 14.7" fill="#fca3119C"/><path d="M-52.8-20.1a7.4 7.4 0 1 1 0-14.8 7.4 7.4 0 0 1 0 14.8" fill="#1122339D"/><path d="M297.2-101.9a7.4 7.4 0 1 1 0-14.7 7.4 7.4 0 0 1 0 14.7" fill="#1122339D"/><path d="M-66.8-273.1a7.4 7.4 0 1 1 0-14.7 7.4 7.4 0 0 1 0 14.7" fill="#fca3119D"/><path d="M232.7-312.8a7.4 7.4 0 1 1 0-14.8 7.4 7.4 0 0 1 0 14.8" fill="#ffffff9E"/><path d="M-2.5 24.5a7.4 7.4 0 1 1 0-14.8 7.4 7.4 0 0 1 0 14.8" fill="#ffffff9E"/><path d="M-26.2 9.4a7.4 7.4 0 1 1 0-14.8 7.4 7.4 0 0 1 0 14.8" fill="#14213d9E"/><path d="M127.8 50.6a7.4 7.4 0 1 1 0-14.9 7.4 7.4 0 0 1 0 14.9" fill="#14213d9E"/><path d="M-47.6-8.4a7.5 7.5 0 1 1 0-15 7.5 7.5 0 0 1 0 15" fill="#e5e5e59F"/><path d="M86.1-363.2a7.5 7.5 0 1 1 0-14.9 7.5 7.5 0 0 1 0 14.9" fill="#e5e5e59F"/><path d="M-73-38.3a7.5 7.5 0 1 1 0-14.9 7.5 7.5 0 0 1 0 14.9" fill="#fca3119F"/><path d="M-92.7-69.9a7.5 7.5 0 1 1 0-15 7.5 7.5 0 0 1 0 15" fill="#fca311A0"/><path d="M16.7-348.6a7.5 7.5 0 1 1 0-15 7.5 7.5 0 0 1 0 15" fill="#112233A0"/><path d="M143.6-361.9a7.5 7.5 0 1 1 0-15.1 7.5 7.5 0 0 1 0 15.1" fill="#112233A1"/><path d="M-47.3-1.9a7.6 7.6 0 1 1 0-15.2 7.6 7.6 0 0 1 0 15.2" fill="#ffffffA1"/><path d="M167.1-356.8a7.6 7.6 0 1 1 0-15.2 7.6 7.6 0 0 1 0 15.2" fill="#112233A1"/><path d="M149.5-362.2a7.6 7.6 0 1 1 0-15.1 7.6 7.6 0 0 1 0 15.1" fill="#112233A1"/><path d="M-111.6-124.7a7.6 7.6 0 1 1 0-15.2 7.6 7.6 0 0 1 0 15.2" fill="#e5e5e5A2"/><path d="M-77.1-275.3a7.6 7.6 0 1 1 0-15.2 7.6 7.6 0 0 1 0 15.2" fill="#fca311A2"/><path d="M-101.1-228.5a7.6 7.6 0 1 1 0-15.3 7.6 7.6 0 0 1 0 15.3" fill="#fca311A2"/><path d="M35.8 50.8a7.6 7.6 0 1 1 0-15.3 7.6 7.6 0 0 1 0 15.3" fill="#ffffffA3"/><path d="M262.3-297a7.7 7.7 0 1 1 0-15.3 7.7 7.7 0 0 1 0 15.3" fill="#112233A3"/><path d="M309.6-209.7a7.7 7.7 0 1 1 0-15.4 7.7 7.7 0 0 1 0 15.4" fill="#fca311A4"/><path d="M40.6-363.6a7.7 7.7 0 1 1 0-15.4 7.7 7.7 0 0 1 0 15.4" fill="#e5e5e5A4"/><path d="M219.1-336.5a7.7 7.7 0 1 1 0-15.4 7.7 7.7 0 0 1 0 15.4" fill="#112233A4"/><path d="M87.7 62.9a7.7 7.7 0 1 1 0-15.4 7.7 7.7 0 0 1 0 15.4" fill="#fca311A4"/><path d="M174.2 52.7a7.8 7.8 0 1 1 0-15.6 7.8 7.8 0 0 1 0 15.6" fill="#112233A6"/><path d="M-119.9-170.9a7.8 7.8 0 1 1 0-15.6 7.8 7.8 0 0 1 0 15.6" fill="#e5e5e5A6"/><path d="M277-18.4a7.9 7.9 0 1 1 0-15.8 7.9 7.9 0 0 1 0 15.8" fill="#e5e5e5A8"/><path d="M81.7 69.8a8 8 0 1 1 0-16 8 8 0 0 1 0 16" fill="#fca311AA"/><path d="M-124.7-173.4a8 8 0 1 1 0-16 8 8 0 0 1 0 16" fill="#ffffffAA"/><path d="M78-379a8 8 0 1 1 0-16 8 8 0 0 1 0 16" fill="#112233AA"/><path d="M-40.3 22.2a8 8 0 1 1 0-16 8 8 0 0 1 0 16" fill="#112233AA"/><path d="M55.3 66.7a8 8 0 1 1 0-15.9 8 8 0 0 1 0 15.9" fill="#fca311AA"/><path d="M72-380a8.1 8.1 0 1 1 0-16.1 8.1 8.1 0 0 1 0 16.1" fill="#ffffffAC"/><path d="M329.7-155.4a8.2 8.2 0 1 1 0-16.4 8.2 8.2 0 0 1 0 16.4" fill="#14213dAE"/><path d="M174.3 63.4a8.2 8.2 0 1 1 0-16.4 8.2 8.2 0 0 1 0 16.4" fill="#ffffffAF"/><path d="M245.9 24.4a8.2 8.2 0 1 1 0-16.5 8.2 8.2 0 0 1 0 16.5" fill="#fca311AF"/><path d="M244.1-335.3a8.3 8.3 0 1 1 0-16.6 8.3 8.3 0 0 1 0 16.6" fill="#e5e5e5B0"/><path d="M-82.1-297.5a8.3 8.3 0 1 1 0-16.6 8.3 8.3 0 0 1 0 16.6" fill="#ffffffB1"/><path d="M254.7 21.1a8.4 8.4 0 1 1 0-16.9 8.4 8.4 0 0 1 0 16.9" fill="#112233B4"/><path d="M-88.6-15.4a8.5 8.5 0 1 1 0-16.9 8.5 8.5 0 0 1 0 16.9" fill="#ffffffB5"/><path d="M26.5-376.4a8.5 8.5 0 1 1 0-17 8.5 8.5 0 0 1 0 17" fill="#e5e5e5B5"/><path d="M126.7 79.3a8.5 8.5 0 1 1 0-17.1 8.5 8.5 0 0 1 0 17.1" fill="#14213dB6"/><path d="M54.5 76.6a8.6 8.6 0 1 1 0-17.1 8.6 8.6 0 0 1 0 17.1" fill="#e5e5e5B7"/><path d="M330.8-107.8a8.6 8.6 0 1 1 0-17.2 8.6 8.6 0 0 1 0 17.2" fill="#ffffffB8"/><path d="M304.6-270.3a8.6 8.6 0 1 1 0-17.2 8.6 8.6 0 0 1 0 17.2" fill="#ffffffB8"/><path d="M182.3 66.9a8.6 8.6 0 1 1 0-17.3 8.6 8.6 0 0 1 0 17.3" fill="#112233B9"/><path d="M56.4 77.8a8.7 8.7 0 1 1 0-17.3 8.7 8.7 0 0 1 0 17.3" fill="#e5e5e5B9"/><path d="M-57.8-329.1a8.7 8.7 0 1 1 0-17.3 8.7 8.7 0 0 1 0 17.3" fill="#112233BA"/><path d="M48.9 76.6a8.7 8.7 0 1 1 0-17.4 8.7 8.7 0 0 1 0 17.4" fill="#14213dBA"/><path d="M79.7-389a8.8 8.8 0 1 1 0-17.7 8.8 8.8 0 0 1 0 17.7" fill="#112233BC"/><path d="M183.7-374.6a8.8 8.8 0 1 1 0-17.7 8.8 8.8 0 0 1 0 17.7" fill="#fca311BD"/><path d="M197.1 61.6a9 9 0 1 1 0-18 9 9 0 0 1 0 18" fill="#ffffffC0"/><path d="M142.9 78.4a9.1 9.1 0 1 1 0-18.2 9.1 9.1 0 0 1 0 18.2" fill="#14213dC2"/><path d="M232.7-347.5a9.1 9.1 0 1 1 0-18.3 9.1 9.1 0 0 1 0 18.3" fill="#112233C4"/><path d="M254.8 23.4a9.2 9.2 0 1 1 0-18.3 9.2 9.2 0 0 1 0 18.3" fill="#ffffffC4"/><path d="M-14.9 51a9.2 9.2 0 1 1 0-18.5 9.2 9.2 0 0 1 0 18.5" fill="#14213dC6"/><path d="M-0.8-363.2a9.3 9.3 0 1 1 0-18.7 9.3 9.3 0 0 1 0 18.7" fill="#e5e5e5C8"/><path d="M217.7-354.2a9.3 9.3 0 1 1 0-18.7 9.3 9.3 0 0 1 0 18.7" fill="#ffffffC8"/><path d="M331-124.3a9.4 9.4 0 1 1 0-18.7 9.4 9.4 0 0 1 0 18.7" fill="#fca311C9"/><path d="M219.1-353.1a9.4 9.4 0 1 1 0-18.7 9.4 9.4 0 0 1 0 18.7" fill="#e5e5e5C9"/><path d="M244.2 29.2a9.4 9.4 0 1 1 0-18.8 9.4 9.4 0 0 1 0 18.8" fill="#ffffffC9"/><path d="M261.2-319.7a9.4 9.4 0 1 1 0-18.9 9.4 9.4 0 0 1 0 18.9" fill="#112233CA"/><path d="M-131.2-148.6a9.5 9.5 0 1 1 0-18.9 9.5 9.5 0 0 1 0 18.9" fill="#14213dCB"/><path d="M115.9 77.2a9.5 9.5 0 1 1 0-19 9.5 9.5 0 0 1 0 19" fill="#e5e5e5CB"/><path d="M228.6-344.5a9.5 9.5 0 1 1 0-19 9.5 9.5 0 0 1 0 19" fill="#fca311CC"/><path d="M190.7-364.8a9.5 9.5 0 1 1 0-19 9.5 9.5 0 0 1 0 19" fill="#e5e5e5CC"/><path d="M118.3-382.2a9.5 9.5 0 1 1 0-19 9.5 9.5 0 0 1 0 19" fill="#e5e5e5CC"/><path d="M264.3 7.6a9.5 9.5 0 1 1 0-19.1 9.5 9.5 0 0 1 0 19.1" fill="#112233CD"/><path d="M106.8-382.1a9.6 9.6 0 1 1 0-19.2 9.6 9.6 0 0 1 0 19.2" fill="#fca311CD"/><path d="M89.9 75.4a9.6 9.6 0 1 1 0-19.2 9.6 9.6 0 0 1 0 19.2" fill="#fca311CE"/><path d="M-116.4-83a9.7 9.7 0 1 1 0-19.3 9.7 9.7 0 0 1 0 19.3" fill="#112233CF"/><path d="M-71.8-9.2a9.8 9.8 0 1 1 0-19.6 9.8 9.8 0 0 1 0 19.6" fill="#e5e5e5D2"/><path d="M270.6-8.6a9.8 9.8 0 1 1 0-19.7 9.8 9.8 0 0 1 0 19.7" fill="#fca311D3"/><path d="M321.9-161.4a9.9 9.9 0 1 1 0-19.7 9.9 9.9 0 0 1 0 19.7" fill="#112233D4"/><path d="M-118.9-187.5a9.9 9.9 0 1 1 0-19.7 9.9 9.9 0 0 1 0 19.7" fill="#112233D4"/><path d="M81.6-373.4a9.9 9.9 0 1 1 0-19.8 9.9 9.9 0 0 1 0 19.8" fill="#112233D4"/><path d="M313.6-98.6a9.9 9.9 0 1 1 0-19.8 9.9 9.9 0 0 1 0 19.8" fill="#14213dD5"/><path d="M-67-15.4a10.1 10.1 0 1 1 0-20.1 10.1 10.1 0 0 1 0 20.1" fill="#ffffffD8"/><path d="M283.5-39.4a10.1 10.1 0 1 1 0-20.1 10.1 10.1 0 0 1 0 20.1" fill="#14213dD8"/><path d="M295.1-63.2a10.1 10.1 0 1 1 0-20.2 10.1 10.1 0 0 1 0 20.2" fill="#fca311D9"/><path d="M-94.1-242.6a10.1 10.1 0 1 1 0-20.2 10.1 10.1 0 0 1 0 20.2" fill="#e5e5e5D9"/><path d="M41.2 52.5a10.1 10.1 0 1 1 0-20.3 10.1 10.1 0 0 1 0 20.3" fill="#e5e5e5DA"/><path d="M149.5-359.5a10.1 10.1 0 1 1 0-20.3 10.1 10.1 0 0 1 0 20.3" fill="#112233DA"/><path d="M238.8 9a10.1 10.1 0 1 1 0-20.3 10.1 10.1 0 0 1 0 20.3" fill="#ffffffDA"/><path d="M240.2-305.5a10.3 10.3 0 1 1 0-20.5 10.3 10.3 0 0 1 0 20.5" fill="#112233DC"/><path d="M185.8-341.3a10.3 10.3 0 1 1 0-20.5 10.3 10.3 0 0 1 0 20.5" fill="#112233DD"/><path d="M-85.1-240a10.3 10.3 0 1 1 0-20.7 10.3 10.3 0 0 1 0 20.7" fill="#14213dDE"/><path d="M270.6-43.4a10.4 10.4 0 1 1 0-20.8 10.4 10.4 0 0 1 0 20.8" fill="#112233DF"/><path d="M106.9 46.6a10.5 10.5 0 1 1 0-20.9 10.5 10.5 0 0 1 0 20.9" fill="#ffffffE1"/><path d="M290.3-101.6a10.5 10.5 0 1 1 0-20.9 10.5 10.5 0 0 1 0 20.9" fill="#fca311E1"/><path d="M251.2-277.5a10.5 10.5 0 1 1 0-21 10.5 10.5 0 0 1 0 21" fill="#ffffffE2"/><path d="M46.6-340.3a10.5 10.5 0 1 1 0-21 10.5 10.5 0 0 1 0 21" fill="#112233E2"/><path d="M115.7 42.3a10.5 10.5 0 1 1 0-21 10.5 10.5 0 0 1 0 21" fill="#e5e5e5E2"/><path d="M-92-178a10.5 10.5 0 1 1 0-21.1 10.5 10.5 0 0 1 0 21.1" fill="#112233E3"/><path d="M90.8-341.1a10.6 10.6 0 1 1 0-21.3 10.6 10.6 0 0 1 0 21.3" fill="#ffffffE4"/><path d="M119.7 36.6a10.6 10.6 0 1 1 0-21.3 10.6 10.6 0 0 1 0 21.3" fill="#112233E4"/><path d="M-38.2-280.3a10.6 10.6 0 1 1 0-21.3 10.6 10.6 0 0 1 0 21.3" fill="#e5e5e5E5"/><path d="M264.6-241.3a10.7 10.7 0 1 1 0-21.3 10.7 10.7 0 0 1 0 21.3" fill="#112233E5"/><path d="M155.4 24.7a10.7 10.7 0 1 1 0-21.4 10.7 10.7 0 0 1 0 21.4" fill="#14213dE6"/><path d="M-69.8-78.3a10.7 10.7 0 1 1 0-21.4 10.7 10.7 0 0 1 0 21.4" fill="#e5e5e5E6"/><path d="M260-65.3a10.7 10.7 0 1 1 0-21.5 10.7 10.7 0 0 1 0 21.5" fill="#e5e5e5E7"/><path d="M251.4-51.3a10.7 10.7 0 1 1 0-21.5 10.7 10.7 0 0 1 0 21.5" fill="#e5e5e5E7"/><path d="M237.8-41.4a10.8 10.8 0 1 1 0-21.7 10.8 10.8 0 0 1 0 21.7" fill="#14213dE9"/><path d="M-63.2-84.8a10.8 10.8 0 1 1 0-21.6 10.8 10.8 0 0 1 0 21.6" fill="#fca311E9"/><path d="M-64.3-112.3a10.9 10.9 0 1 1 0-21.8 10.9 10.9 0 0 1 0 21.8" fill="#fca311EB"/><path d="M72.8-313.5a11 11 0 1 1 0-21.9 11 11 0 0 1 0 21.9" fill="#14213dEC"/><path d="M253.2-204.3a11 11 0 1 1 0-22 11 11 0 0 1 0 22" fill="#e5e5e5ED"/><path d="M1.8-263.8a11.1 11.1 0 1 1 0-22.3 11.1 11.1 0 0 1 0 22.3" fill="#14213dF0"/><path d="M173.6-24a11.2 11.2 0 1 1 0-22.3 11.2 11.2 0 0 1 0 22.3" fill="#fca311F0"/><path d="M164.6-24.5a11.2 11.2 0 1 1 0-22.4 11.2 11.2 0 0 1 0 22.4" fill="#e5e5e5F1"/><path d="M212.8-226.7a11.3 11.3 0 1 1 0-22.5 11.3 11.3 0 0 1 0 22.5" fill="#e5e5e5F3"/><path d="M136.6-21.1a11.3 11.3 0 1 1 0-22.6 11.3 11.3 0 0 1 0 22.6" fill="#112233F3"/><path d="M231.5-179.9a11.3 11.3 0 1 1 0-22.6 11.3 11.3 0 0 1 0 22.6" fill="#14213dF3"/><path d="M110.8-285.4a11.3 11.3 0 1 1 0-22.5 11.3 11.3 0 0 1 0 22.5" fill="#ffffffF3"/><path d="M195.9-62a11.3 11.3 0 1 1 0-22.6 11.3 11.3 0 0 1 0 22.6" fill="#e5e5e5F4"/><path d="M-24.7-114.6a11.3 11.3 0 1 1 0-22.7 11.3 11.3 0 0 1 0 22.7" fill="#112233F4"/><path d="M77.5-25a11.3 11.3 0 1 1 0-22.7 11.3 11.3 0 0 1 0 22.7" fill="#112233F4"/><path d="M76.9-31.2a11.4 11.4 0 1 1 0-22.8 11.4 11.4 0 0 1 0 22.8" fill="#ffffffF5"/><path d="M151.5-260.3a11.4 11.4 0 1 1 0-22.8 11.4 11.4 0 0 1 0 22.8" fill="#e5e5e5F5"/><path d="M174.3-58a11.4 11.4 0 1 1 0-22.8 11.4 11.4 0 0 1 0 22.8" fill="#112233F6"/><path d="M143.4-261.4a11.4 11.4 0 1 1 0-22.8 11.4 11.4 0 0 1 0 22.8" fill="#fca311F6"/><path d="M93.8-36.7a11.4 11.4 0 1 1 0-22.9 11.4 11.4 0 0 1 0 22.9" fill="#e5e5e5F6"/><path d="M109.3-42a11.5 11.5 0 1 1 0-22.9 11.5 11.5 0 0 1 0 22.9" fill="#112233F7"/><path d="M35.4-212.5a11.6 11.6 0 1 1 0-23.2 11.6 11.6 0 0 1 0 23.2" fill="#ffffffFA"/><path d="M36.3-169.8a11.7 11.7 0 1 1 0-23.4 11.7 11.7 0 0 1 0 23.4" fill="#112233FC"/><path d="M84.8-87.1a11.7 11.7 0 1 1 0-23.4 11.7 11.7 0 0 1 0 23.4" fill="#112233FC"/><path d="M99.3-210.9a11.7 11.7 0 1 1 0-23.4 11.7 11.7 0 0 1 0 23.4" fill="#fca311FC"/></g></svg>