<svg width="1200" height="675" viewBox="-500 -500 1200 675" xmlns="http://www.w3.org/2000/svg"><path d="M-500-500h1200v675h-1200z" fill="#000"/><style>.sparkles path{stroke-linecap:round; stroke-width:1}</style><g class="sparkles"><path d="M100-162.5l22.9 30.1" stroke="#c2e1ff32"/><path d="M100-162.5l5.8 38.1" stroke="#fff50032"/><path d="M100-162.5l47.5 4" stroke="#005bbb33"/><path d="M100-162.5l-8-60.8" stroke="#fff50033"/><path d="M100-162.5l-26.1 56.2" stroke="#fff50033"/><path d="M100-162.5l-60.5 25.6" stroke="#005bbb33"/><path d="M100-162.5l31 79.2" stroke="#c2e1ff35"/><path d="M100-162.5l85.2-25.5" stroke="#c2e1ff35"/><path d="M100-162.5l73.4 56.7" stroke="#fff50036"/><path d="M100-162.5l-88.3 41.6" stroke="#fff36"/><path d="M100-162.5l-70 70" stroke="#fff36"/><path d="M100-162.5l-22.1 108.4" stroke="#fff37"/><path d="M100-162.5l-104.2-42.5" stroke="#fff38"/><path d="M100-162.5l83.1 77.9" stroke="#005bbb38"/><path d="M100-162.5l121.5-23.9" stroke="#fff50039"/><path d="M100-162.5l104.4 70.8" stroke="#fff39"/><path d="M100-162.5l109.7-63.1" stroke="#c2e1ff39"/><path d="M100-162.5l38.8 120.7" stroke="#fff39"/><path d="M100-162.5l-56.8-135.9" stroke="#fff5003C"/><path d="M100-162.5l-16.8-150.7" stroke="#fff5003D"/><path d="M100-162.5l-146.8 39.2" stroke="#005bbb3D"/><path d="M100-162.5l69-137.6" stroke="#005bbb3E"/><path d="M100-162.5l152 46" stroke="#fff5003E"/><path d="M100-162.5l-132.7-93.6" stroke="#c2e1ff3F"/><path d="M100-162.5l-102.1 126.7" stroke="#c2e1ff3F"/><path d="M100-162.5l-100-129.8" stroke="#fff3F"/><path d="M100-162.5l113.1-122.1" stroke="#fff50040"/><path d="M100-162.5l164-30.4" stroke="#fff40"/><path d="M100-162.5l157.7 55" stroke="#005bbb40"/><path d="M100-162.5l39.6-163.8" stroke="#fff40"/><path d="M100-162.5l-99.5 136.3" stroke="#fff41"/><path d="M100-162.5l118.7-121.6" stroke="#c2e1ff41"/><path d="M100-162.5l144.2 93.5" stroke="#005bbb41"/><path d="M100-162.5l-172.5 1.4" stroke="#fff50041"/><path d="M100-162.5l171.8 23.2" stroke="#fff42"/><path d="M100-162.5l173-17.6" stroke="#fff50042"/><path d="M100-162.5l-173.7-18.3" stroke="#fff42"/><path d="M100-162.5l32.6-174.2" stroke="#fff50042"/><path d="M100-162.5l-129.5 122" stroke="#fff50043"/><path d="M100-162.5l133.7-121.1" stroke="#c2e1ff43"/><path d="M100-162.5l136.5-119.7" stroke="#c2e1ff44"/><path d="M100-162.5l-142.4 116.8" stroke="#fff50044"/><path d="M100-162.5l-137.2 123.1" stroke="#fff50044"/><path d="M100-162.5l-167.1-82.4" stroke="#005bbb45"/><path d="M100-162.5l182.1-64.9" stroke="#005bbb47"/><path d="M100-162.5l-93-171.7" stroke="#c2e1ff47"/><path d="M100-162.5l-14.7 198.3" stroke="#fff50049"/><path d="M100-162.5l-189.1 69.4" stroke="#fff50049"/><path d="M100-162.5l-126.5 157.1" stroke="#c2e1ff49"/><path d="M100-162.5l-170.8-111.1" stroke="#fff5004A"/><path d="M100-162.5l-193 69.7" stroke="#c2e1ff4B"/><path d="M100-162.5l37.9-203" stroke="#fff5004B"/><path d="M100-162.5l207.1-9.8" stroke="#c2e1ff4C"/><path d="M100-162.5l85.2-189.3" stroke="#005bbb4C"/><path d="M100-162.5l-199.5-59.2" stroke="#fff4C"/><path d="M100-162.5l-206.4-28.2" stroke="#fff5004C"/><path d="M100-162.5l207.3 35.2" stroke="#c2e1ff4D"/><path d="M100-162.5l44.4 205.8" stroke="#fff4D"/><path d="M100-162.5l-202.5-62.9" stroke="#fff5004D"/><path d="M100-162.5l97.2-188.5" stroke="#005bbb4D"/><path d="M100-162.5l-201.2 69.2" stroke="#c2e1ff4E"/><path d="M100-162.5l-159-145.3" stroke="#005bbb4F"/><path d="M100-162.5l65.5 205.2" stroke="#fff4F"/><path d="M100-162.5l192.9 96.1" stroke="#c2e1ff4F"/><path d="M100-162.5l-16.4-215.3" stroke="#fff4F"/><path d="M100-162.5l-207.9-62.1" stroke="#c2e1ff50"/><path d="M100-162.5l-196.4-93.8" stroke="#fff50050"/><path d="M100-162.5l27.7 218.3" stroke="#c2e1ff51"/><path d="M100-162.5l-215.7 45.5" stroke="#c2e1ff52"/><path d="M100-162.5l27.2 219.3" stroke="#005bbb52"/><path d="M100-162.5l214.7 55" stroke="#c2e1ff52"/><path d="M100-162.5l-199.6 98.8" stroke="#c2e1ff53"/><path d="M100-162.5l-222.6 46.1" stroke="#005bbb56"/><path d="M100-162.5l-228.6 11.5" stroke="#005bbb57"/><path d="M100-162.5l147.1-175.4" stroke="#fff57"/><path d="M100-162.5l228.5 19.2" stroke="#c2e1ff57"/><path d="M100-162.5l230 0" stroke="#c2e1ff58"/><path d="M100-162.5l-123.1-195" stroke="#fff59"/><path d="M100-162.5l-83.3-215" stroke="#c2e1ff59"/><path d="M100-162.5l205.3-105.4" stroke="#fff59"/><path d="M100-162.5l-156 170.2" stroke="#fff50059"/><path d="M100-162.5l-155.8 171.5" stroke="#fff5A"/><path d="M100-162.5l-197.2-121.9" stroke="#fff5A"/><path d="M100-162.5l126 195.3" stroke="#fff5005B"/><path d="M100-162.5l-231.8 23.5" stroke="#c2e1ff5B"/><path d="M100-162.5l159 170.7" stroke="#fff5C"/><path d="M100-162.5l121.5 200.6" stroke="#fff5005D"/><path d="M100-162.5l143.4-186.5" stroke="#005bbb5F"/><path d="M100-162.5l117.4-204.4" stroke="#fff60"/><path d="M100-162.5l-73.4-224.1" stroke="#fff50060"/><path d="M100-162.5l38.8-232.7" stroke="#fff61"/><path d="M100-162.5l-228.5-58.9" stroke="#fff61"/><path d="M100-162.5l-233.6-34.6" stroke="#005bbb62"/><path d="M100-162.5l-154.9 178.2" stroke="#fff62"/><path d="M100-162.5l203.8 119.4" stroke="#005bbb62"/><path d="M100-162.5l145.1 186.4" stroke="#c2e1ff63"/><path d="M100-162.5l174-159.8" stroke="#fff64"/><path d="M100-162.5l95.4 216.1" stroke="#fff50064"/><path d="M100-162.5l201.9-122.7" stroke="#005bbb64"/><path d="M100-162.5l-222.1 80.4" stroke="#fff64"/><path d="M100-162.5l-98.5-214.6" stroke="#fff65"/><path d="M100-162.5l184.3-147.7" stroke="#c2e1ff65"/><path d="M100-162.5l-225 71.6" stroke="#005bbb65"/><path d="M100-162.5l-130.2 196.2" stroke="#005bbb67"/><path d="M100-162.5l235.3 4.6" stroke="#005bbb68"/><path d="M100-162.5l205.6-114.4" stroke="#fff68"/><path d="M100-162.5l133.2 193.9" stroke="#c2e1ff68"/><path d="M100-162.5l117.1-203.8" stroke="#005bbb69"/><path d="M100-162.5l71.8-223.7" stroke="#c2e1ff69"/><path d="M100-162.5l-24.1 233.7" stroke="#fff50069"/><path d="M100-162.5l173.6-158.1" stroke="#fff50069"/><path d="M100-162.5l-87.5-216.6" stroke="#fff6B"/><path d="M100-162.5l-195.8-127.2" stroke="#fff5006B"/><path d="M100-162.5l-218.3-81.9" stroke="#fff5006C"/><path d="M100-162.5l-126 194.2" stroke="#fff5006D"/><path d="M100-162.5l212.9 89" stroke="#fff5006E"/><path d="M100-162.5l115.4 195.6" stroke="#c2e1ff71"/><path d="M100-162.5l222.6-42.9" stroke="#fff72"/><path d="M100-162.5l-210.6 82.5" stroke="#fff50072"/><path d="M100-162.5l42.4-222.1" stroke="#c2e1ff72"/><path d="M100-162.5l225.9 8.2" stroke="#c2e1ff72"/><path d="M100-162.5l120.1 190" stroke="#c2e1ff73"/><path d="M100-162.5l42.9 220.4" stroke="#fff73"/><path d="M100-162.5l-58 215.7" stroke="#005bbb74"/><path d="M100-162.5l-199.7 98.9" stroke="#c2e1ff74"/><path d="M100-162.5l-31.2 215.1" stroke="#fff77"/><path d="M100-162.5l-190.4 92.7" stroke="#005bbb7A"/><path d="M100-162.5l202.2 60.4" stroke="#fff7A"/><path d="M100-162.5l-118.5 170" stroke="#c2e1ff7C"/><path d="M100-162.5l191.4-79.1" stroke="#c2e1ff7C"/><path d="M100-162.5l172.5-114.2" stroke="#c2e1ff7C"/><path d="M100-162.5l-169.6 116.2" stroke="#fff7C"/><path d="M100-162.5l156.4 131.2" stroke="#005bbb7D"/><path d="M100-162.5l166.9 117" stroke="#fff5007D"/><path d="M100-162.5l-186.4-76.8" stroke="#fff5007E"/><path d="M100-162.5l191.5 57.9" stroke="#fff5007E"/><path d="M100-162.5l191.2 43.3" stroke="#005bbb7F"/><path d="M100-162.5l190.9-41" stroke="#c2e1ff80"/><path d="M100-162.5l-193.4-2.4" stroke="#005bbb80"/><path d="M100-162.5l-162.8-102.3" stroke="#005bbb81"/><path d="M100-162.5l137.1-134.5" stroke="#c2e1ff81"/><path d="M100-162.5l83.8-172.8" stroke="#fff81"/><path d="M100-162.5l-15.5-188" stroke="#005bbb82"/><path d="M100-162.5l-177.7 33.3" stroke="#fff50084"/><path d="M100-162.5l46.9-165.2" stroke="#fff50086"/><path d="M100-162.5l-138.5 97.4" stroke="#c2e1ff86"/><path d="M100-162.5l-88.1-142.4" stroke="#005bbb87"/><path d="M100-162.5l139.2-91.6" stroke="#fff50087"/><path d="M100-162.5l-132.6-98.2" stroke="#c2e1ff87"/><path d="M100-162.5l11.2-162.1" stroke="#005bbb88"/><path d="M100-162.5l-57.9 150.2" stroke="#fff88"/><path d="M100-162.5l148.5 60.2" stroke="#fff88"/><path d="M100-162.5l-104.1 121.5" stroke="#005bbb88"/><path d="M100-162.5l39.6 154.4" stroke="#005bbb88"/><path d="M100-162.5l83.1 135.1" stroke="#fff89"/><path d="M100-162.5l81.6 134.2" stroke="#fff89"/><path d="M100-162.5l116.6-100.5" stroke="#c2e1ff89"/><path d="M100-162.5l10.5 149.8" stroke="#c2e1ff8A"/><path d="M100-162.5l104.5-90" stroke="#c2e1ff8C"/><path d="M100-162.5l90.8-102.5" stroke="#fff5008C"/><path d="M100-162.5l-28.8 118.8" stroke="#c2e1ff8E"/><path d="M100-162.5l54.2-107.8" stroke="#fff8E"/><path d="M100-162.5l-113.9 28.9" stroke="#c2e1ff8F"/><path d="M100-162.5l20 114.2" stroke="#005bbb8F"/><path d="M100-162.5l-110.6-15.3" stroke="#005bbb90"/><path d="M100-162.5l-87.5 62.4" stroke="#005bbb90"/><path d="M100-162.5l48.9-89" stroke="#fff91"/><path d="M100-162.5l-75.7 61.2" stroke="#005bbb91"/><path d="M100-162.5l77.4-47.1" stroke="#fff50092"/><path d="M100-162.5l16.8-83.6" stroke="#fff92"/><path d="M100-162.5l46.1 55.2" stroke="#fff50093"/><path d="M100-162.5l52.2 48.6" stroke="#fff93"/><path d="M100-162.5l69.9 8.3" stroke="#c2e1ff93"/><path d="M100-162.5l-37.2 57.9" stroke="#fff50093"/><path d="M100-162.5l46.5 48.2" stroke="#fff50093"/><path d="M100-162.5l-35.3 48.9" stroke="#005bbb94"/><path d="M100-162.5l-13.1-52.8" stroke="#fff50094"/><path d="M100-162.5l48.3 25" stroke="#fff94"/><path d="M100-162.5l6.5 51.4" stroke="#005bbb94"/><path d="M100-162.5l-15.4-48.6" stroke="#005bbb94"/><path d="M100-162.5l-44.5-18.7" stroke="#fff50094"/></g><g class="sparcs"><path d="M122.9-126.4a5.9 5.9 0 1 1 0-11.9 5.9 5.9 0 0 1 0 11.9" fill="#fff5007D"/><path d="M105.8-118.4a5.9 5.9 0 1 1 0-11.9 5.9 5.9 0 0 1 0 11.9" fill="#fff5007D"/><path d="M147.5-152.6a6 6 0 1 1 0-11.9 6 6 0 0 1 0 11.9" fill="#c2e1ff7E"/><path d="M92-217.3a6 6 0 1 1 0-12 6 6 0 0 1 0 12" fill="#fff7F"/><path d="M73.9-100.3a6 6 0 1 1 0-12 6 6 0 0 1 0 12" fill="#005bbb7F"/><path d="M39.5-130.8a6 6 0 1 1 0-12.1 6 6 0 0 1 0 12.1" fill="#fff7F"/><path d="M131-77.2a6.1 6.1 0 1 1 0-12.2 6.1 6.1 0 0 1 0 12.2" fill="#005bbb81"/><path d="M185.2-181.8a6.1 6.1 0 1 1 0-12.3 6.1 6.1 0 0 1 0 12.3" fill="#fff81"/><path d="M173.4-99.7a6.1 6.1 0 1 1 0-12.3 6.1 6.1 0 0 1 0 12.3" fill="#c2e1ff82"/><path d="M11.7-114.8a6.2 6.2 0 1 1 0-12.3 6.2 6.2 0 0 1 0 12.3" fill="#fff82"/><path d="M30-86.3a6.2 6.2 0 1 1 0-12.4 6.2 6.2 0 0 1 0 12.4" fill="#fff50082"/><path d="M77.9-47.8a6.3 6.3 0 1 1 0-12.5 6.3 6.3 0 0 1 0 12.5" fill="#fff50084"/><path d="M-4.2-198.8a6.3 6.3 0 1 1 0-12.5 6.3 6.3 0 0 1 0 12.5" fill="#fff84"/><path d="M183.1-78.3a6.3 6.3 0 1 1 0-12.6 6.3 6.3 0 0 1 0 12.6" fill="#c2e1ff85"/><path d="M221.5-180.1a6.3 6.3 0 1 1 0-12.6 6.3 6.3 0 0 1 0 12.6" fill="#c2e1ff86"/><path d="M204.4-85.3a6.4 6.4 0 1 1 0-12.7 6.4 6.4 0 0 1 0 12.7" fill="#c2e1ff87"/><path d="M209.7-219.3a6.4 6.4 0 1 1 0-12.7 6.4 6.4 0 0 1 0 12.7" fill="#fff87"/><path d="M138.8-35.4a6.4 6.4 0 1 1 0-12.8 6.4 6.4 0 0 1 0 12.8" fill="#fff87"/><path d="M43.2-291.8a6.6 6.6 0 1 1 0-13.1 6.6 6.6 0 0 1 0 13.1" fill="#005bbb8B"/><path d="M83.2-306.6a6.6 6.6 0 1 1 0-13.2 6.6 6.6 0 0 1 0 13.2" fill="#c2e1ff8C"/><path d="M-46.8-116.7a6.6 6.6 0 1 1 0-13.2 6.6 6.6 0 0 1 0 13.2" fill="#fff5008C"/><path d="M169-293.4a6.6 6.6 0 1 1 0-13.3 6.6 6.6 0 0 1 0 13.3" fill="#c2e1ff8C"/><path d="M252-109.8a6.7 6.7 0 1 1 0-13.4 6.7 6.7 0 0 1 0 13.4" fill="#fff5008D"/><path d="M-32.7-249.4a6.7 6.7 0 1 1 0-13.4 6.7 6.7 0 0 1 0 13.4" fill="#fff8E"/><path d="M-2.1-29.1a6.7 6.7 0 1 1 0-13.4 6.7 6.7 0 0 1 0 13.4" fill="#c2e1ff8E"/><path d="M0-285.5a6.7 6.7 0 1 1 0-13.5 6.7 6.7 0 0 1 0 13.5" fill="#c2e1ff8F"/><path d="M213.1-277.8a6.8 6.8 0 1 1 0-13.6 6.8 6.8 0 0 1 0 13.6" fill="#fff5008F"/><path d="M264-186.2a6.8 6.8 0 1 1 0-13.5 6.8 6.8 0 0 1 0 13.5" fill="#005bbb8F"/><path d="M257.7-100.7a6.8 6.8 0 1 1 0-13.5 6.8 6.8 0 0 1 0 13.5" fill="#005bbb90"/><path d="M139.6-319.5a6.8 6.8 0 1 1 0-13.5 6.8 6.8 0 0 1 0 13.5" fill="#fff50090"/><path d="M0.5-19.4a6.8 6.8 0 1 1 0-13.6 6.8 6.8 0 0 1 0 13.6" fill="#fff50090"/><path d="M218.7-277.3a6.8 6.8 0 1 1 0-13.6 6.8 6.8 0 0 1 0 13.6" fill="#005bbb90"/><path d="M244.2-62.2a6.8 6.8 0 1 1 0-13.7 6.8 6.8 0 0 1 0 13.7" fill="#c2e1ff91"/><path d="M-72.5-154.2a6.8 6.8 0 1 1 0-13.7 6.8 6.8 0 0 1 0 13.7" fill="#005bbb91"/><path d="M271.8-132.4a6.9 6.9 0 1 1 0-13.7 6.9 6.9 0 0 1 0 13.7" fill="#005bbb91"/><path d="M273-173.2a6.9 6.9 0 1 1 0-13.7 6.9 6.9 0 0 1 0 13.7" fill="#005bbb91"/><path d="M-73.7-173.9a6.9 6.9 0 1 1 0-13.8 6.9 6.9 0 0 1 0 13.8" fill="#c2e1ff92"/><path d="M132.6-329.8a6.9 6.9 0 1 1 0-13.8 6.9 6.9 0 0 1 0 13.8" fill="#fff50093"/><path d="M-29.5-33.6a6.9 6.9 0 1 1 0-13.8 6.9 6.9 0 0 1 0 13.8" fill="#fff50093"/><path d="M233.7-276.6a7 7 0 1 1 0-13.9 7 7 0 0 1 0 13.9" fill="#c2e1ff94"/><path d="M236.5-275.3a7 7 0 1 1 0-13.9 7 7 0 0 1 0 13.9" fill="#fff50094"/><path d="M-42.4-38.7a7 7 0 1 1 0-14 7 7 0 0 1 0 14" fill="#fff95"/><path d="M-37.2-32.4a7 7 0 1 1 0-14 7 7 0 0 1 0 14" fill="#005bbb95"/><path d="M-67.1-237.8a7 7 0 1 1 0-14.1 7 7 0 0 1 0 14.1" fill="#fff50096"/><path d="M282.1-220.2a7.2 7.2 0 1 1 0-14.3 7.2 7.2 0 0 1 0 14.3" fill="#fff50098"/><path d="M7-327a7.2 7.2 0 1 1 0-14.4 7.2 7.2 0 0 1 0 14.4" fill="#fff99"/><path d="M85.3 43.1a7.3 7.3 0 1 1 0-14.6 7.3 7.3 0 0 1 0 14.6" fill="#c2e1ff9A"/><path d="M-89.1-85.8a7.3 7.3 0 1 1 0-14.6 7.3 7.3 0 0 1 0 14.6" fill="#c2e1ff9C"/><path d="M-26.5 2a7.3 7.3 0 1 1 0-14.7 7.3 7.3 0 0 1 0 14.7" fill="#fff9C"/><path d="M-70.8-266.2a7.4 7.4 0 1 1 0-14.8 7.4 7.4 0 0 1 0 14.8" fill="#c2e1ff9D"/><path d="M-93-85.4a7.4 7.4 0 1 1 0-14.8 7.4 7.4 0 0 1 0 14.8" fill="#c2e1ff9D"/><path d="M137.9-358a7.4 7.4 0 1 1 0-14.9 7.4 7.4 0 0 1 0 14.9" fill="#fff5009E"/><path d="M307.1-164.9a7.4 7.4 0 1 1 0-14.9 7.4 7.4 0 0 1 0 14.9" fill="#c2e1ff9E"/><path d="M185.2-344.3a7.4 7.4 0 1 1 0-14.9 7.4 7.4 0 0 1 0 14.9" fill="#fff5009E"/><path d="M-99.5-214.3a7.5 7.5 0 1 1 0-14.9 7.5 7.5 0 0 1 0 14.9" fill="#fff9F"/><path d="M-106.4-183.2a7.5 7.5 0 1 1 0-14.9 7.5 7.5 0 0 1 0 14.9" fill="#005bbb9F"/><path d="M307.3-119.8a7.5 7.5 0 1 1 0-15 7.5 7.5 0 0 1 0 15" fill="#fff500A0"/><path d="M144.4 50.8a7.5 7.5 0 1 1 0-15 7.5 7.5 0 0 1 0 15" fill="#fffA0"/><path d="M-102.5-217.9a7.6 7.6 0 1 1 0-15.1 7.6 7.6 0 0 1 0 15.1" fill="#005bbbA1"/><path d="M197.2-343.4a7.6 7.6 0 1 1 0-15.1 7.6 7.6 0 0 1 0 15.1" fill="#fff500A1"/><path d="M-101.2-85.8a7.6 7.6 0 1 1 0-15.1 7.6 7.6 0 0 1 0 15.1" fill="#fffA1"/><path d="M-59-300.1a7.6 7.6 0 1 1 0-15.3 7.6 7.6 0 0 1 0 15.3" fill="#fffA3"/><path d="M165.5 50.4a7.6 7.6 0 1 1 0-15.3 7.6 7.6 0 0 1 0 15.3" fill="#005bbbA3"/><path d="M292.9-58.8a7.6 7.6 0 1 1 0-15.3 7.6 7.6 0 0 1 0 15.3" fill="#c2e1ffA3"/><path d="M83.6-370.1a7.7 7.7 0 1 1 0-15.3 7.7 7.7 0 0 1 0 15.3" fill="#005bbbA3"/><path d="M-107.9-216.9a7.7 7.7 0 1 1 0-15.4 7.7 7.7 0 0 1 0 15.4" fill="#fff500A4"/><path d="M-96.4-248.6a7.7 7.7 0 1 1 0-15.4 7.7 7.7 0 0 1 0 15.4" fill="#005bbbA4"/><path d="M127.7 63.6a7.8 7.8 0 1 1 0-15.6 7.8 7.8 0 0 1 0 15.6" fill="#c2e1ffA6"/><path d="M-115.7-109.2a7.8 7.8 0 1 1 0-15.6 7.8 7.8 0 0 1 0 15.6" fill="#fffA6"/><path d="M127.2 64.6a7.8 7.8 0 1 1 0-15.6 7.8 7.8 0 0 1 0 15.6" fill="#005bbbA7"/><path d="M314.7-99.7a7.8 7.8 0 1 1 0-15.7 7.8 7.8 0 0 1 0 15.7" fill="#fffA7"/><path d="M-99.6-55.8a7.9 7.9 0 1 1 0-15.8 7.9 7.9 0 0 1 0 15.8" fill="#fffA8"/><path d="M-122.6-108.3a8.1 8.1 0 1 1 0-16.1 8.1 8.1 0 0 1 0 16.1" fill="#fff500AC"/><path d="M-128.6-142.9a8.1 8.1 0 1 1 0-16.2 8.1 8.1 0 0 1 0 16.2" fill="#fffAD"/><path d="M247.1-329.8a8.1 8.1 0 1 1 0-16.3 8.1 8.1 0 0 1 0 16.3" fill="#fff500AD"/><path d="M328.5-135.1a8.1 8.1 0 1 1 0-16.3 8.1 8.1 0 0 1 0 16.3" fill="#c2e1ffAE"/><path d="M330-154.3a8.2 8.2 0 1 1 0-16.4 8.2 8.2 0 0 1 0 16.4" fill="#fff500AF"/><path d="M-23.1-349.3a8.2 8.2 0 1 1 0-16.4 8.2 8.2 0 0 1 0 16.4" fill="#fffAF"/><path d="M16.7-369.3a8.2 8.2 0 1 1 0-16.5 8.2 8.2 0 0 1 0 16.5" fill="#fff500AF"/><path d="M305.3-259.7a8.2 8.2 0 1 1 0-16.4 8.2 8.2 0 0 1 0 16.4" fill="#fff500B0"/><path d="M-56 16a8.2 8.2 0 1 1 0-16.5 8.2 8.2 0 0 1 0 16.5" fill="#005bbbB0"/><path d="M-55.8 17.3a8.3 8.3 0 1 1 0-16.6 8.3 8.3 0 0 1 0 16.6" fill="#fff500B1"/><path d="M-97.2-276.1a8.3 8.3 0 1 1 0-16.6 8.3 8.3 0 0 1 0 16.6" fill="#fffB1"/><path d="M226 41.1a8.3 8.3 0 1 1 0-16.6 8.3 8.3 0 0 1 0 16.6" fill="#c2e1ffB2"/><path d="M-131.8-130.7a8.4 8.4 0 1 1 0-16.7 8.4 8.4 0 0 1 0 16.7" fill="#fffB3"/><path d="M259 16.6a8.4 8.4 0 1 1 0-16.8 8.4 8.4 0 0 1 0 16.8" fill="#fffB3"/><path d="M221.5 46.6a8.5 8.5 0 1 1 0-17 8.5 8.5 0 0 1 0 17" fill="#005bbbB6"/><path d="M243.4-340.4a8.6 8.6 0 1 1 0-17.2 8.6 8.6 0 0 1 0 17.2" fill="#fffB8"/><path d="M217.4-358.3a8.7 8.7 0 1 1 0-17.3 8.7 8.7 0 0 1 0 17.3" fill="#fff500B9"/><path d="M26.6-377.9a8.7 8.7 0 1 1 0-17.4 8.7 8.7 0 0 1 0 17.4" fill="#005bbbBA"/><path d="M138.8-386.5a8.7 8.7 0 1 1 0-17.4 8.7 8.7 0 0 1 0 17.4" fill="#c2e1ffBA"/><path d="M-128.5-212.7a8.7 8.7 0 1 1 0-17.5 8.7 8.7 0 0 1 0 17.5" fill="#fffBB"/><path d="M-133.6-188.4a8.8 8.8 0 1 1 0-17.5 8.8 8.8 0 0 1 0 17.5" fill="#c2e1ffBB"/><path d="M-54.9 24.5a8.8 8.8 0 1 1 0-17.6 8.8 8.8 0 0 1 0 17.6" fill="#fff500BC"/><path d="M303.8-34.4a8.8 8.8 0 1 1 0-17.5 8.8 8.8 0 0 1 0 17.5" fill="#005bbbBC"/><path d="M245.1 32.7a8.8 8.8 0 1 1 0-17.6 8.8 8.8 0 0 1 0 17.6" fill="#c2e1ffBD"/><path d="M274-313.5a8.9 8.9 0 1 1 0-17.7 8.9 8.9 0 0 1 0 17.7" fill="#fffBE"/><path d="M195.4 62.5a8.9 8.9 0 1 1 0-17.8 8.9 8.9 0 0 1 0 17.8" fill="#fffBE"/><path d="M301.9-276.3a8.9 8.9 0 1 1 0-17.7 8.9 8.9 0 0 1 0 17.7" fill="#005bbbBE"/><path d="M-122.1-73.2a8.9 8.9 0 1 1 0-17.9 8.9 8.9 0 0 1 0 17.9" fill="#c2e1ffBF"/><path d="M1.5-368.2a8.9 8.9 0 1 1 0-17.9 8.9 8.9 0 0 1 0 17.9" fill="#fff500BF"/><path d="M284.3-301.2a8.9 8.9 0 1 1 0-17.9 8.9 8.9 0 0 1 0 17.9" fill="#c2e1ffBF"/><path d="M-125-82a9 9 0 1 1 0-17.9 9 9 0 0 1 0 17.9" fill="#fffC0"/><path d="M-30.2 42.8a9.1 9.1 0 1 1 0-18.2 9.1 9.1 0 0 1 0 18.2" fill="#fffC3"/><path d="M335.3-148.8a9.1 9.1 0 1 1 0-18.3 9.1 9.1 0 0 1 0 18.3" fill="#005bbbC3"/><path d="M305.6-267.8a9.1 9.1 0 1 1 0-18.2 9.1 9.1 0 0 1 0 18.2" fill="#c2e1ffC3"/><path d="M233.2 40.5a9.1 9.1 0 1 1 0-18.3 9.1 9.1 0 0 1 0 18.3" fill="#c2e1ffC4"/><path d="M217.1-357.1a9.2 9.2 0 1 1 0-18.3 9.2 9.2 0 0 1 0 18.3" fill="#005bbbC4"/><path d="M171.8-377.1a9.2 9.2 0 1 1 0-18.3 9.2 9.2 0 0 1 0 18.3" fill="#fffC4"/><path d="M75.9 80.4a9.2 9.2 0 1 1 0-18.4 9.2 9.2 0 0 1 0 18.4" fill="#c2e1ffC4"/><path d="M273.6-311.4a9.2 9.2 0 1 1 0-18.4 9.2 9.2 0 0 1 0 18.4" fill="#c2e1ffC5"/><path d="M12.5-369.8a9.3 9.3 0 1 1 0-18.6 9.3 9.3 0 0 1 0 18.6" fill="#c2e1ffC7"/><path d="M-95.8-280.4a9.3 9.3 0 1 1 0-18.6 9.3 9.3 0 0 1 0 18.6" fill="#fffC7"/><path d="M-118.3-235a9.3 9.3 0 1 1 0-18.7 9.3 9.3 0 0 1 0 18.7" fill="#c2e1ffC8"/><path d="M-26 41.2a9.4 9.4 0 1 1 0-18.9 9.4 9.4 0 0 1 0 18.9" fill="#005bbbCA"/><path d="M312.9-64a9.5 9.5 0 1 1 0-19 9.5 9.5 0 0 1 0 19" fill="#005bbbCB"/><path d="M215.4 42.8a9.7 9.7 0 1 1 0-19.4 9.7 9.7 0 0 1 0 19.4" fill="#fffCF"/><path d="M322.6-195.7a9.7 9.7 0 1 1 0-19.4 9.7 9.7 0 0 1 0 19.4" fill="#c2e1ffD0"/><path d="M-110.6-70.3a9.7 9.7 0 1 1 0-19.4 9.7 9.7 0 0 1 0 19.4" fill="#fffD0"/><path d="M142.4-374.9a9.7 9.7 0 1 1 0-19.4 9.7 9.7 0 0 1 0 19.4" fill="#c2e1ffD0"/><path d="M325.9-144.6a9.7 9.7 0 1 1 0-19.4 9.7 9.7 0 0 1 0 19.4" fill="#c2e1ffD0"/><path d="M220.1 37.3a9.8 9.8 0 1 1 0-19.5 9.8 9.8 0 0 1 0 19.5" fill="#c2e1ffD1"/><path d="M142.9 67.7a9.8 9.8 0 1 1 0-19.6 9.8 9.8 0 0 1 0 19.6" fill="#005bbbD2"/><path d="M42 63a9.8 9.8 0 1 1 0-19.6 9.8 9.8 0 0 1 0 19.6" fill="#c2e1ffD3"/><path d="M-99.7-53.7a9.8 9.8 0 1 1 0-19.7 9.8 9.8 0 0 1 0 19.7" fill="#fff500D3"/><path d="M68.8 62.6a10 10 0 1 1 0-20 10 10 0 0 1 0 20" fill="#005bbbD7"/><path d="M-90.4-59.7a10.2 10.2 0 1 1 0-20.3 10.2 10.2 0 0 1 0 20.3" fill="#005bbbDA"/><path d="M302.2-91.9a10.2 10.2 0 1 1 0-20.3 10.2 10.2 0 0 1 0 20.3" fill="#c2e1ffDB"/><path d="M-18.5 17.8a10.3 10.3 0 1 1 0-20.6 10.3 10.3 0 0 1 0 20.6" fill="#fff500DD"/><path d="M291.4-231.3a10.3 10.3 0 1 1 0-20.5 10.3 10.3 0 0 1 0 20.5" fill="#fffDD"/><path d="M272.5-266.5a10.3 10.3 0 1 1 0-20.5 10.3 10.3 0 0 1 0 20.5" fill="#005bbbDD"/><path d="M-69.6-36a10.3 10.3 0 1 1 0-20.6 10.3 10.3 0 0 1 0 20.6" fill="#fffDE"/><path d="M256.4-21a10.3 10.3 0 1 1 0-20.7 10.3 10.3 0 0 1 0 20.7" fill="#fffDE"/><path d="M266.9-35.2a10.4 10.4 0 1 1 0-20.7 10.4 10.4 0 0 1 0 20.7" fill="#c2e1ffDE"/><path d="M-86.4-228.9a10.4 10.4 0 1 1 0-20.8 10.4 10.4 0 0 1 0 20.8" fill="#c2e1ffDF"/><path d="M291.5-94.2a10.4 10.4 0 1 1 0-20.9 10.4 10.4 0 0 1 0 20.9" fill="#c2e1ffE0"/><path d="M291.2-108.7a10.5 10.5 0 1 1 0-21 10.5 10.5 0 0 1 0 21" fill="#fff500E2"/><path d="M290.9-193a10.5 10.5 0 1 1 0-21 10.5 10.5 0 0 1 0 21" fill="#c2e1ffE2"/><path d="M-93.4-154.4a10.6 10.6 0 1 1 0-21.1 10.6 10.6 0 0 1 0 21.1" fill="#fffE3"/><path d="M-62.8-254.3a10.6 10.6 0 1 1 0-21.1 10.6 10.6 0 0 1 0 21.1" fill="#fffE3"/><path d="M237.1-286.4a10.6 10.6 0 1 1 0-21.2 10.6 10.6 0 0 1 0 21.2" fill="#c2e1ffE3"/><path d="M183.8-324.7a10.6 10.6 0 1 1 0-21.2 10.6 10.6 0 0 1 0 21.2" fill="#c2e1ffE3"/><path d="M84.5-339.8a10.6 10.6 0 1 1 0-21.3 10.6 10.6 0 0 1 0 21.3" fill="#c2e1ffE5"/><path d="M-77.7-118.4a10.8 10.8 0 1 1 0-21.6 10.8 10.8 0 0 1 0 21.6" fill="#fffE7"/><path d="M146.9-316.8a10.9 10.9 0 1 1 0-21.8 10.9 10.9 0 0 1 0 21.8" fill="#fff500EA"/><path d="M-38.5-54.2a10.9 10.9 0 1 1 0-21.8 10.9 10.9 0 0 1 0 21.8" fill="#005bbbEB"/><path d="M11.9-294a10.9 10.9 0 1 1 0-21.8 10.9 10.9 0 0 1 0 21.8" fill="#c2e1ffEB"/><path d="M239.2-243.2a11 11 0 1 1 0-21.9 11 11 0 0 1 0 21.9" fill="#fffEC"/><path d="M-32.6-249.8a11 11 0 1 1 0-21.9 11 11 0 0 1 0 21.9" fill="#c2e1ffEC"/><path d="M111.2-313.6a11 11 0 1 1 0-22 11 11 0 0 1 0 22" fill="#fff500ED"/><path d="M42.1-1.3a11 11 0 1 1 0-22.1 11 11 0 0 1 0 22.1" fill="#c2e1ffED"/><path d="M248.5-91.2a11 11 0 1 1 0-22.1 11 11 0 0 1 0 22.1" fill="#fffED"/><path d="M-4.1-29.9a11 11 0 1 1 0-22.1 11 11 0 0 1 0 22.1" fill="#c2e1ffED"/><path d="M139.6 2.9a11 11 0 1 1 0-22 11 11 0 0 1 0 22" fill="#c2e1ffED"/><path d="M183.1-16.3a11 11 0 1 1 0-22.1 11 11 0 0 1 0 22.1" fill="#005bbbEE"/><path d="M181.6-17.2a11.1 11.1 0 1 1 0-22.1 11.1 11.1 0 0 1 0 22.1" fill="#005bbbEE"/><path d="M216.6-251.9a11.1 11.1 0 1 1 0-22.2 11.1 11.1 0 0 1 0 22.2" fill="#005bbbEF"/><path d="M110.5-1.5a11.1 11.1 0 1 1 0-22.3 11.1 11.1 0 0 1 0 22.3" fill="#c2e1ffF0"/><path d="M204.5-241.3a11.3 11.3 0 1 1 0-22.5 11.3 11.3 0 0 1 0 22.5" fill="#c2e1ffF2"/><path d="M190.8-253.7a11.3 11.3 0 1 1 0-22.6 11.3 11.3 0 0 1 0 22.6" fill="#005bbbF2"/><path d="M71.2-32.3a11.4 11.4 0 1 1 0-22.8 11.4 11.4 0 0 1 0 22.8" fill="#fffF5"/><path d="M154.2-258.9a11.4 11.4 0 1 1 0-22.8 11.4 11.4 0 0 1 0 22.8" fill="#fff500F5"/><path d="M-13.9-122.1a11.4 11.4 0 1 1 0-22.9 11.4 11.4 0 0 1 0 22.9" fill="#fffF6"/><path d="M120-36.8a11.4 11.4 0 1 1 0-22.9 11.4 11.4 0 0 1 0 22.9" fill="#c2e1ffF6"/><path d="M-10.6-166.4a11.5 11.5 0 1 1 0-22.9 11.5 11.5 0 0 1 0 22.9" fill="#005bbbF7"/><path d="M12.5-88.7a11.5 11.5 0 1 1 0-22.9 11.5 11.5 0 0 1 0 22.9" fill="#c2e1ffF7"/><path d="M148.9-239.9a11.5 11.5 0 1 1 0-23.1 11.5 11.5 0 0 1 0 23.1" fill="#c2e1ffF8"/><path d="M24.3-89.8a11.6 11.6 0 1 1 0-23.1 11.6 11.6 0 0 1 0 23.1" fill="#fff500F9"/><path d="M177.4-198a11.6 11.6 0 1 1 0-23.2 11.6 11.6 0 0 1 0 23.2" fill="#005bbbFA"/><path d="M116.8-234.5a11.6 11.6 0 1 1 0-23.2 11.6 11.6 0 0 1 0 23.2" fill="#fffFA"/><path d="M146.1-95.7a11.7 11.7 0 1 1 0-23.3 11.7 11.7 0 0 1 0 23.3" fill="#fff500FB"/><path d="M152.2-102.2a11.7 11.7 0 1 1 0-23.4 11.7 11.7 0 0 1 0 23.4" fill="#c2e1ffFB"/><path d="M169.9-142.5a11.7 11.7 0 1 1 0-23.4 11.7 11.7 0 0 1 0 23.4" fill="#fffFC"/><path d="M62.8-93a11.7 11.7 0 1 1 0-23.3 11.7 11.7 0 0 1 0 23.3" fill="#fffFC"/><path d="M146.5-102.6a11.7 11.7 0 1 1 0-23.4 11.7 11.7 0 0 1 0 23.4" fill="#fff500FC"/><path d="M64.7-101.9a11.7 11.7 0 1 1 0-23.4 11.7 11.7 0 0 1 0 23.4" fill="#005bbbFC"/><path d="M86.9-203.6a11.7 11.7 0 1 1 0-23.5 11.7 11.7 0 0 1 0 23.5" fill="#005bbbFD"/><path d="M148.3-125.8a11.7 11.7 0 1 1 0-23.5 11.7 11.7 0 0 1 0 23.5" fill="#005bbbFD"/><path d="M106.5-99.4a11.7 11.7 0 1 1 0-23.5 11.7 11.7 0 0 1 0 23.5" fill="#fffFD"/><path d="M84.6-199.4a11.7 11.7 0 1 1 0-23.5 11.7 11.7 0 0 1 0 23.5" fill="#fff500FD"/><path d="M55.5-169.5a11.8 11.8 0 1 1 0-23.5 11.8 11.8 0 0 1 0 23.5" fill="#005bbbFD"/></g></svg>