<svg width="1200" height="675" viewBox="-500 -500 1200 675" xmlns="http://www.w3.org/2000/svg"><path d="M-500-500h1200v675h-1200z" fill="#000"/><style>.sparkles path{stroke-linecap:round; stroke-width:1}</style><g class="sparkles"><path d="M100-162.5l6.2-24.8" stroke="#005bbb32"/><path d="M100-162.5l0.7 43.5" stroke="#fff32"/><path d="M100-162.5l36.8-29.9" stroke="#fff50033"/><path d="M100-162.5l50.8 0" stroke="#c2e1ff33"/><path d="M100-162.5l13.3-54.5" stroke="#c2e1ff33"/><path d="M100-162.5l-53.6-17.3" stroke="#c2e1ff33"/><path d="M100-162.5l-49.2-31.1" stroke="#fff33"/><path d="M100-162.5l-38-56.5" stroke="#c2e1ff34"/><path d="M100-162.5l-68.7 11.4" stroke="#fff34"/><path d="M100-162.5l71.8-46" stroke="#fff50035"/><path d="M100-162.5l69.6-52.3" stroke="#fff50035"/><path d="M100-162.5l63.9 59.9" stroke="#c2e1ff35"/><path d="M100-162.5l81 38.4" stroke="#fff35"/><path d="M100-162.5l87-29.9" stroke="#fff35"/><path d="M100-162.5l-84.5 44" stroke="#c2e1ff36"/><path d="M100-162.5l-41.8 91.8" stroke="#fff50036"/><path d="M100-162.5l31.2 102.7" stroke="#005bbb37"/><path d="M100-162.5l-93.7 62.8" stroke="#c2e1ff38"/><path d="M100-162.5l-27.4 115.2" stroke="#c2e1ff38"/><path d="M100-162.5l113.4 46.5" stroke="#c2e1ff39"/><path d="M100-162.5l121.4 37.5" stroke="#005bbb39"/><path d="M100-162.5l-128.4 22.7" stroke="#fff3A"/><path d="M100-162.5l127.8-35.5" stroke="#fff5003A"/><path d="M100-162.5l132.5-12.7" stroke="#005bbb3A"/><path d="M100-162.5l-118.8-66" stroke="#005bbb3B"/><path d="M100-162.5l-136.5-9.5" stroke="#005bbb3B"/><path d="M100-162.5l-105 91.4" stroke="#005bbb3B"/><path d="M100-162.5l135.9-30.6" stroke="#005bbb3B"/><path d="M100-162.5l20.9 143.8" stroke="#005bbb3C"/><path d="M100-162.5l32 149.6" stroke="#005bbb3D"/><path d="M100-162.5l155.7-2.1" stroke="#c2e1ff3E"/><path d="M100-162.5l-68.2 146" stroke="#fff5003F"/><path d="M100-162.5l151.8 57.2" stroke="#c2e1ff3F"/><path d="M100-162.5l-162.7-14" stroke="#c2e1ff3F"/><path d="M100-162.5l-141.5-81.4" stroke="#005bbb3F"/><path d="M100-162.5l-72.1 150.4" stroke="#fff50040"/><path d="M100-162.5l73.9 153.1" stroke="#c2e1ff41"/><path d="M100-162.5l-170-30.6" stroke="#fff50041"/><path d="M100-162.5l-76.2 158.1" stroke="#fff50042"/><path d="M100-162.5l174.6 27.4" stroke="#005bbb42"/><path d="M100-162.5l128.9 121.7" stroke="#c2e1ff42"/><path d="M100-162.5l-21.8 179.9" stroke="#c2e1ff43"/><path d="M100-162.5l-32.2-178.3" stroke="#fff50043"/><path d="M100-162.5l168.1 67.8" stroke="#fff50043"/><path d="M100-162.5l183.1-17.9" stroke="#fff44"/><path d="M100-162.5l-60.7 174.5" stroke="#fff44"/><path d="M100-162.5l-104.6 155" stroke="#fff45"/><path d="M100-162.5l-183.8-44.9" stroke="#fff46"/><path d="M100-162.5l-188.1 34.9" stroke="#c2e1ff46"/><path d="M100-162.5l-54.8-183.5" stroke="#fff50046"/><path d="M100-162.5l-185 51.3" stroke="#005bbb46"/><path d="M100-162.5l171-92.6" stroke="#005bbb47"/><path d="M100-162.5l-170.2 95.6" stroke="#fff47"/><path d="M100-162.5l175.1-102.1" stroke="#005bbb4A"/><path d="M100-162.5l56.9-194.8" stroke="#c2e1ff4A"/><path d="M100-162.5l151.2-135.7" stroke="#c2e1ff4A"/><path d="M100-162.5l-157 131.2" stroke="#005bbb4B"/><path d="M100-162.5l-129.8-160.8" stroke="#c2e1ff4B"/><path d="M100-162.5l200.3 51.2" stroke="#005bbb4B"/><path d="M100-162.5l199.1 56.4" stroke="#fff5004B"/><path d="M100-162.5l-41.4 203.2" stroke="#c2e1ff4C"/><path d="M100-162.5l133.2 160.5" stroke="#005bbb4C"/><path d="M100-162.5l153.6-141.8" stroke="#005bbb4C"/><path d="M100-162.5l82.6-194.4" stroke="#fff4D"/><path d="M100-162.5l-39.2 208.1" stroke="#c2e1ff4D"/><path d="M100-162.5l165.7 134.1" stroke="#c2e1ff4E"/><path d="M100-162.5l169.5 133.9" stroke="#005bbb4F"/><path d="M100-162.5l-213.8 44.6" stroke="#005bbb50"/><path d="M100-162.5l166.2-142" stroke="#fff50051"/><path d="M100-162.5l216.9-27.4" stroke="#fff51"/><path d="M100-162.5l-157.5-151.6" stroke="#005bbb51"/><path d="M100-162.5l-150-160.5" stroke="#fff50051"/><path d="M100-162.5l-219.2-15.7" stroke="#fff50051"/><path d="M100-162.5l201.2-88.8" stroke="#fff50051"/><path d="M100-162.5l-9.8-220.7" stroke="#fff50052"/><path d="M100-162.5l-195.5 105.5" stroke="#fff53"/><path d="M100-162.5l-102.9-197.1" stroke="#005bbb53"/><path d="M100-162.5l110.8 192.9" stroke="#fff53"/><path d="M100-162.5l133.4-178.8" stroke="#005bbb53"/><path d="M100-162.5l186-125.1" stroke="#005bbb54"/><path d="M100-162.5l177.4 140.5" stroke="#005bbb55"/><path d="M100-162.5l225.8 20.1" stroke="#c2e1ff55"/><path d="M100-162.5l-115.3 195.7" stroke="#005bbb56"/><path d="M100-162.5l-11.7 227.8" stroke="#fff56"/><path d="M100-162.5l194.9-119.6" stroke="#005bbb57"/><path d="M100-162.5l191.4-126.1" stroke="#fff57"/><path d="M100-162.5l84.6-213.2" stroke="#c2e1ff58"/><path d="M100-162.5l-142.1-180.4" stroke="#005bbb58"/><path d="M100-162.5l-219.3-69.5" stroke="#fff58"/><path d="M100-162.5l109.2 204.2" stroke="#c2e1ff5A"/><path d="M100-162.5l-10.4 232.7" stroke="#005bbb5B"/><path d="M100-162.5l73.3 221.5" stroke="#fff5C"/><path d="M100-162.5l185.2 142.2" stroke="#005bbb5C"/><path d="M100-162.5l228.5 49" stroke="#fff5C"/><path d="M100-162.5l220.5-77.9" stroke="#fff5005C"/><path d="M100-162.5l109 207" stroke="#fff5005D"/><path d="M100-162.5l150.9-179.3" stroke="#c2e1ff5D"/><path d="M100-162.5l-216.8-89.4" stroke="#005bbb5D"/><path d="M100-162.5l-205.2-114.6" stroke="#fff5E"/><path d="M100-162.5l229 53.9" stroke="#fff5005F"/><path d="M100-162.5l155.6-176.9" stroke="#c2e1ff60"/><path d="M100-162.5l197.9 128.1" stroke="#005bbb60"/><path d="M100-162.5l-125.9-199.6" stroke="#c2e1ff61"/><path d="M100-162.5l-227.3-63.6" stroke="#c2e1ff62"/><path d="M100-162.5l-131.3 196.3" stroke="#fff50062"/><path d="M100-162.5l-25.6 234.9" stroke="#fff50063"/><path d="M100-162.5l28.7-234.5" stroke="#fff50064"/><path d="M100-162.5l176.3-157.2" stroke="#005bbb64"/><path d="M100-162.5l68.7 225.9" stroke="#fff65"/><path d="M100-162.5l-38.7 232.8" stroke="#005bbb66"/><path d="M100-162.5l-35.6 233.2" stroke="#005bbb66"/><path d="M100-162.5l110 208.7" stroke="#fff66"/><path d="M100-162.5l202.6 120.3" stroke="#fff67"/><path d="M100-162.5l163.2-169.9" stroke="#fff50067"/><path d="M100-162.5l192.8 135" stroke="#005bbb68"/><path d="M100-162.5l-182.5-148" stroke="#fff69"/><path d="M100-162.5l167.9-164" stroke="#005bbb69"/><path d="M100-162.5l-3.9-234.6" stroke="#fff69"/><path d="M100-162.5l-130.4 195" stroke="#fff69"/><path d="M100-162.5l-223 71.3" stroke="#fff6A"/><path d="M100-162.5l185.2 141.6" stroke="#c2e1ff6C"/><path d="M100-162.5l-99-210.2" stroke="#005bbb6D"/><path d="M100-162.5l-192.1 128.9" stroke="#c2e1ff6E"/><path d="M100-162.5l-172.4-153.8" stroke="#fff6E"/><path d="M100-162.5l229.6-22" stroke="#005bbb6E"/><path d="M100-162.5l-207.4-99.3" stroke="#c2e1ff6F"/><path d="M100-162.5l123 193.8" stroke="#fff5006F"/><path d="M100-162.5l-226-38" stroke="#005bbb70"/><path d="M100-162.5l214.4 80.3" stroke="#005bbb70"/><path d="M100-162.5l170-152.7" stroke="#fff70"/><path d="M100-162.5l-45.2-223.3" stroke="#fff50071"/><path d="M100-162.5l118.6-194.1" stroke="#005bbb71"/><path d="M100-162.5l-46.1-220.9" stroke="#c2e1ff72"/><path d="M100-162.5l211.9 77.5" stroke="#005bbb72"/><path d="M100-162.5l-151.6 167.1" stroke="#c2e1ff72"/><path d="M100-162.5l171.4-146.6" stroke="#fff72"/><path d="M100-162.5l-203.7-94.8" stroke="#fff73"/><path d="M100-162.5l209.4-80.7" stroke="#005bbb73"/><path d="M100-162.5l199.2 102.9" stroke="#fff50073"/><path d="M100-162.5l172-143.1" stroke="#fff50074"/><path d="M100-162.5l26.7 221.1" stroke="#005bbb74"/><path d="M100-162.5l-127.6 181.8" stroke="#fff50075"/><path d="M100-162.5l-101.4-196.2" stroke="#fff75"/><path d="M100-162.5l42.7 214.8" stroke="#fff76"/><path d="M100-162.5l23.5 214" stroke="#c2e1ff78"/><path d="M100-162.5l-176 122" stroke="#fff50079"/><path d="M100-162.5l-153.6 143.7" stroke="#005bbb7A"/><path d="M100-162.5l185.9 92.6" stroke="#c2e1ff7B"/><path d="M100-162.5l206.5 5.7" stroke="#005bbb7C"/><path d="M100-162.5l-202.5 22" stroke="#fff7D"/><path d="M100-162.5l-112.8-169.5" stroke="#c2e1ff7D"/><path d="M100-162.5l-145 140.5" stroke="#c2e1ff7D"/><path d="M100-162.5l-196.7 36.1" stroke="#fff5007E"/><path d="M100-162.5l17.3-199.2" stroke="#fff5007E"/><path d="M100-162.5l163.6 111.6" stroke="#c2e1ff7F"/><path d="M100-162.5l-121 156.5" stroke="#005bbb7F"/><path d="M100-162.5l-183.9-22.6" stroke="#c2e1ff83"/><path d="M100-162.5l177.9 9.6" stroke="#fff84"/><path d="M100-162.5l83.9-156.2" stroke="#fff50085"/><path d="M100-162.5l54.3 161.1" stroke="#fff86"/><path d="M100-162.5l-84.9 147" stroke="#c2e1ff86"/><path d="M100-162.5l153.1 70.1" stroke="#fff87"/><path d="M100-162.5l162.2-2.4" stroke="#fff50088"/><path d="M100-162.5l-155.3-38.7" stroke="#fff88"/><path d="M100-162.5l30.4 154.3" stroke="#fff50089"/><path d="M100-162.5l30.7 153.4" stroke="#fff89"/><path d="M100-162.5l-140.1 66.8" stroke="#005bbb89"/><path d="M100-162.5l86.1-126.7" stroke="#005bbb8A"/><path d="M100-162.5l127.4-53.3" stroke="#005bbb8C"/><path d="M100-162.5l-96.8-97.2" stroke="#fff5008C"/><path d="M100-162.5l120.8-55.2" stroke="#fff5008D"/><path d="M100-162.5l6.8-130.9" stroke="#fff5008D"/><path d="M100-162.5l-21.5-115.3" stroke="#fff5008F"/><path d="M100-162.5l-21.4-102.1" stroke="#c2e1ff90"/><path d="M100-162.5l78.1-17.3" stroke="#005bbb93"/><path d="M100-162.5l55.5-57" stroke="#fff93"/><path d="M100-162.5l-19.3 73.9" stroke="#fff50093"/><path d="M100-162.5l-26.4 55.7" stroke="#fff94"/><path d="M100-162.5l56-1.3" stroke="#c2e1ff94"/><path d="M100-162.5l0.1 28.1" stroke="#005bbb95"/><path d="M100-162.5l1.2 23.1" stroke="#005bbb95"/></g><g class="sparcs"><path d="M106.2-181.4a5.9 5.9 0 1 1 0-11.9 5.9 5.9 0 0 1 0 11.9" fill="#005bbb7D"/><path d="M100.7-113a6 6 0 1 1 0-11.9 6 6 0 0 1 0 11.9" fill="#c2e1ff7E"/><path d="M136.8-186.5a6 6 0 1 1 0-11.9 6 6 0 0 1 0 11.9" fill="#fff5007E"/><path d="M150.8-156.5a6 6 0 1 1 0-12 6 6 0 0 1 0 12" fill="#005bbb7E"/><path d="M113.3-211a6 6 0 1 1 0-12 6 6 0 0 1 0 12" fill="#fff5007E"/><path d="M46.4-173.8a6 6 0 1 1 0-12 6 6 0 0 1 0 12" fill="#fff5007E"/><path d="M50.8-187.6a6 6 0 1 1 0-12 6 6 0 0 1 0 12" fill="#fff5007F"/><path d="M62-213a6 6 0 1 1 0-12 6 6 0 0 1 0 12" fill="#005bbb7F"/><path d="M31.3-145a6 6 0 1 1 0-12.1 6 6 0 0 1 0 12.1" fill="#fff5007F"/><path d="M171.8-202.3a6.1 6.1 0 1 1 0-12.3 6.1 6.1 0 0 1 0 12.3" fill="#c2e1ff81"/><path d="M169.6-208.7a6.1 6.1 0 1 1 0-12.3 6.1 6.1 0 0 1 0 12.3" fill="#fff81"/><path d="M163.9-96.5a6.1 6.1 0 1 1 0-12.2 6.1 6.1 0 0 1 0 12.2" fill="#c2e1ff81"/><path d="M181-118a6.1 6.1 0 1 1 0-12.2 6.1 6.1 0 0 1 0 12.2" fill="#fff81"/><path d="M187-186.2a6.1 6.1 0 1 1 0-12.3 6.1 6.1 0 0 1 0 12.3" fill="#fff50082"/><path d="M15.5-112.3a6.2 6.2 0 1 1 0-12.3 6.2 6.2 0 0 1 0 12.3" fill="#fff82"/><path d="M58.2-64.5a6.2 6.2 0 1 1 0-12.4 6.2 6.2 0 0 1 0 12.4" fill="#c2e1ff83"/><path d="M131.2-53.6a6.2 6.2 0 1 1 0-12.5 6.2 6.2 0 0 1 0 12.5" fill="#fff50084"/><path d="M6.3-93.5a6.3 6.3 0 1 1 0-12.5 6.3 6.3 0 0 1 0 12.5" fill="#fff50084"/><path d="M72.6-41a6.3 6.3 0 1 1 0-12.6 6.3 6.3 0 0 1 0 12.6" fill="#fff85"/><path d="M213.4-109.6a6.3 6.3 0 1 1 0-12.7 6.3 6.3 0 0 1 0 12.7" fill="#005bbb86"/><path d="M221.4-118.6a6.4 6.4 0 1 1 0-12.8 6.4 6.4 0 0 1 0 12.8" fill="#fff87"/><path d="M-28.4-133.4a6.4 6.4 0 1 1 0-12.8 6.4 6.4 0 0 1 0 12.8" fill="#fff87"/><path d="M227.8-191.6a6.4 6.4 0 1 1 0-12.9 6.4 6.4 0 0 1 0 12.9" fill="#c2e1ff88"/><path d="M232.5-168.8a6.4 6.4 0 1 1 0-12.9 6.4 6.4 0 0 1 0 12.9" fill="#005bbb88"/><path d="M-18.8-222a6.4 6.4 0 1 1 0-12.9 6.4 6.4 0 0 1 0 12.9" fill="#005bbb88"/><path d="M-36.5-165.5a6.5 6.5 0 1 1 0-12.9 6.5 6.5 0 0 1 0 12.9" fill="#fff89"/><path d="M-5-64.7a6.5 6.5 0 1 1 0-12.9 6.5 6.5 0 0 1 0 12.9" fill="#fff89"/><path d="M235.9-186.7a6.5 6.5 0 1 1 0-12.9 6.5 6.5 0 0 1 0 12.9" fill="#005bbb89"/><path d="M120.9-12.1a6.5 6.5 0 1 1 0-13.1 6.5 6.5 0 0 1 0 13.1" fill="#005bbb8A"/><path d="M132-6.3a6.6 6.6 0 1 1 0-13.2 6.6 6.6 0 0 1 0 13.2" fill="#fff5008C"/><path d="M255.7-158a6.6 6.6 0 1 1 0-13.3 6.6 6.6 0 0 1 0 13.3" fill="#fff5008D"/><path d="M31.8-9.8a6.7 6.7 0 1 1 0-13.4 6.7 6.7 0 0 1 0 13.4" fill="#005bbb8E"/><path d="M251.8-98.6a6.7 6.7 0 1 1 0-13.5 6.7 6.7 0 0 1 0 13.5" fill="#fff5008E"/><path d="M-62.7-169.7a6.7 6.7 0 1 1 0-13.5 6.7 6.7 0 0 1 0 13.5" fill="#005bbb8F"/><path d="M-41.5-237.2a6.7 6.7 0 1 1 0-13.5 6.7 6.7 0 0 1 0 13.5" fill="#fff8F"/><path d="M27.9-5.3a6.8 6.8 0 1 1 0-13.6 6.8 6.8 0 0 1 0 13.6" fill="#005bbb8F"/><path d="M173.9-2.5a6.8 6.8 0 1 1 0-13.7 6.8 6.8 0 0 1 0 13.7" fill="#fff90"/><path d="M-70-186.3a6.8 6.8 0 1 1 0-13.7 6.8 6.8 0 0 1 0 13.7" fill="#c2e1ff91"/><path d="M23.8 2.5a6.9 6.9 0 1 1 0-13.8 6.9 6.9 0 0 1 0 13.8" fill="#c2e1ff92"/><path d="M274.6-128.2a6.9 6.9 0 1 1 0-13.8 6.9 6.9 0 0 1 0 13.8" fill="#fff50092"/><path d="M228.9-33.9a6.9 6.9 0 1 1 0-13.8 6.9 6.9 0 0 1 0 13.8" fill="#005bbb93"/><path d="M78.2 24.3a7 7 0 1 1 0-13.9 7 7 0 0 1 0 13.9" fill="#005bbb94"/><path d="M67.8-333.8a7 7 0 1 1 0-14 7 7 0 0 1 0 14" fill="#005bbb94"/><path d="M268.1-87.8a7 7 0 1 1 0-13.9 7 7 0 0 1 0 13.9" fill="#c2e1ff94"/><path d="M283.1-173.4a7 7 0 1 1 0-14 7 7 0 0 1 0 14" fill="#fff50095"/><path d="M39.3 19a7 7 0 1 1 0-14 7 7 0 0 1 0 14" fill="#fff95"/><path d="M-4.6-0.4a7.1 7.1 0 1 1 0-14.1 7.1 7.1 0 0 1 0 14.1" fill="#c2e1ff96"/><path d="M-83.8-200.3a7.1 7.1 0 1 1 0-14.2 7.1 7.1 0 0 1 0 14.2" fill="#fff50097"/><path d="M-88.1-120.4a7.1 7.1 0 1 1 0-14.3 7.1 7.1 0 0 1 0 14.3" fill="#c2e1ff97"/><path d="M45.2-338.9a7.1 7.1 0 1 1 0-14.3 7.1 7.1 0 0 1 0 14.3" fill="#fff97"/><path d="M-85-104.1a7.1 7.1 0 1 1 0-14.2 7.1 7.1 0 0 1 0 14.2" fill="#c2e1ff98"/><path d="M271-247.9a7.2 7.2 0 1 1 0-14.4 7.2 7.2 0 0 1 0 14.4" fill="#c2e1ff99"/><path d="M-70.2-59.7a7.2 7.2 0 1 1 0-14.4 7.2 7.2 0 0 1 0 14.4" fill="#fff99"/><path d="M275.1-257.2a7.3 7.3 0 1 1 0-14.7 7.3 7.3 0 0 1 0 14.7" fill="#fff9C"/><path d="M156.9-350a7.3 7.3 0 1 1 0-14.7 7.3 7.3 0 0 1 0 14.7" fill="#fff9C"/><path d="M251.2-290.8a7.4 7.4 0 1 1 0-14.7 7.4 7.4 0 0 1 0 14.7" fill="#c2e1ff9C"/><path d="M-57-23.9a7.4 7.4 0 1 1 0-14.8 7.4 7.4 0 0 1 0 14.8" fill="#c2e1ff9D"/><path d="M-29.8-315.9a7.4 7.4 0 1 1 0-14.9 7.4 7.4 0 0 1 0 14.9" fill="#fff5009E"/><path d="M300.3-103.9a7.4 7.4 0 1 1 0-14.8 7.4 7.4 0 0 1 0 14.8" fill="#fff5009E"/><path d="M299.1-98.7a7.4 7.4 0 1 1 0-14.8 7.4 7.4 0 0 1 0 14.8" fill="#fff9E"/><path d="M58.6 48.1a7.4 7.4 0 1 1 0-14.9 7.4 7.4 0 0 1 0 14.9" fill="#fff9E"/><path d="M233.2 5.5a7.5 7.5 0 1 1 0-15 7.5 7.5 0 0 1 0 15" fill="#fff9F"/><path d="M253.6-296.9a7.5 7.5 0 1 1 0-14.9 7.5 7.5 0 0 1 0 14.9" fill="#005bbb9F"/><path d="M182.6-349.3a7.5 7.5 0 1 1 0-15.1 7.5 7.5 0 0 1 0 15.1" fill="#fff500A0"/><path d="M60.8 53.1a7.5 7.5 0 1 1 0-15.1 7.5 7.5 0 0 1 0 15.1" fill="#c2e1ffA1"/><path d="M265.7-20.8a7.6 7.6 0 1 1 0-15.1 7.6 7.6 0 0 1 0 15.1" fill="#fff500A2"/><path d="M269.5-20.9a7.7 7.7 0 1 1 0-15.4 7.7 7.7 0 0 1 0 15.4" fill="#fffA3"/><path d="M-113.8-110.2a7.7 7.7 0 1 1 0-15.4 7.7 7.7 0 0 1 0 15.4" fill="#c2e1ffA5"/><path d="M266.2-296.8a7.7 7.7 0 1 1 0-15.4 7.7 7.7 0 0 1 0 15.4" fill="#005bbbA5"/><path d="M316.9-182.2a7.7 7.7 0 1 1 0-15.5 7.7 7.7 0 0 1 0 15.5" fill="#fffA5"/><path d="M-57.5-306.4a7.7 7.7 0 1 1 0-15.5 7.7 7.7 0 0 1 0 15.5" fill="#fff500A5"/><path d="M-50-315.3a7.8 7.8 0 1 1 0-15.5 7.8 7.8 0 0 1 0 15.5" fill="#c2e1ffA6"/><path d="M-119.2-170.4a7.8 7.8 0 1 1 0-15.6 7.8 7.8 0 0 1 0 15.6" fill="#c2e1ffA6"/><path d="M301.2-243.5a7.8 7.8 0 1 1 0-15.6 7.8 7.8 0 0 1 0 15.6" fill="#fff500A6"/><path d="M90.2-375.4a7.8 7.8 0 1 1 0-15.6 7.8 7.8 0 0 1 0 15.6" fill="#fff500A6"/><path d="M-95.5-49.1a7.9 7.9 0 1 1 0-15.7 7.9 7.9 0 0 1 0 15.7" fill="#c2e1ffA7"/><path d="M-2.9-351.8a7.9 7.9 0 1 1 0-15.7 7.9 7.9 0 0 1 0 15.7" fill="#c2e1ffA8"/><path d="M210.8 38.2a7.9 7.9 0 1 1 0-15.7 7.9 7.9 0 0 1 0 15.7" fill="#c2e1ffA8"/><path d="M233.4-333.5a7.9 7.9 0 1 1 0-15.7 7.9 7.9 0 0 1 0 15.7" fill="#c2e1ffA8"/><path d="M286-279.7a7.9 7.9 0 1 1 0-15.9 7.9 7.9 0 0 1 0 15.9" fill="#fffA9"/><path d="M277.4-13.9a8 8 0 1 1 0-16.1 8 8 0 0 1 0 16.1" fill="#fffAB"/><path d="M325.8-134.4a8 8 0 1 1 0-16 8 8 0 0 1 0 16" fill="#c2e1ffAB"/><path d="M-15.3 41.3a8 8 0 1 1 0-16.1 8 8 0 0 1 0 16.1" fill="#005bbbAC"/><path d="M88.3 73.3a8.1 8.1 0 1 1 0-16.1 8.1 8.1 0 0 1 0 16.1" fill="#c2e1ffAD"/><path d="M294.9-274a8.1 8.1 0 1 1 0-16.2 8.1 8.1 0 0 1 0 16.2" fill="#fffAD"/><path d="M291.4-280.5a8.1 8.1 0 1 1 0-16.3 8.1 8.1 0 0 1 0 16.3" fill="#c2e1ffAE"/><path d="M184.6-367.5a8.2 8.2 0 1 1 0-16.3 8.2 8.2 0 0 1 0 16.3" fill="#fff500AE"/><path d="M-42.1-334.7a8.2 8.2 0 1 1 0-16.3 8.2 8.2 0 0 1 0 16.3" fill="#fffAE"/><path d="M-119.3-223.8a8.2 8.2 0 1 1 0-16.4 8.2 8.2 0 0 1 0 16.4" fill="#fffAF"/><path d="M209.2 50a8.3 8.3 0 1 1 0-16.5 8.3 8.3 0 0 1 0 16.5" fill="#fffB1"/><path d="M89.6 78.6a8.4 8.4 0 1 1 0-16.7 8.4 8.4 0 0 1 0 16.7" fill="#005bbbB3"/><path d="M173.3 67.4a8.4 8.4 0 1 1 0-16.8 8.4 8.4 0 0 1 0 16.8" fill="#fffB3"/><path d="M285.2-11.9a8.4 8.4 0 1 1 0-16.8 8.4 8.4 0 0 1 0 16.8" fill="#005bbbB4"/><path d="M328.5-105.1a8.4 8.4 0 1 1 0-16.9 8.4 8.4 0 0 1 0 16.9" fill="#fff500B4"/><path d="M320.5-232a8.4 8.4 0 1 1 0-16.9 8.4 8.4 0 0 1 0 16.9" fill="#005bbbB4"/><path d="M209 53a8.4 8.4 0 1 1 0-16.9 8.4 8.4 0 0 1 0 16.9" fill="#005bbbB4"/><path d="M250.9-333.3a8.5 8.5 0 1 1 0-17 8.5 8.5 0 0 1 0 17" fill="#c2e1ffB5"/><path d="M-116.8-243.4a8.5 8.5 0 1 1 0-17 8.5 8.5 0 0 1 0 17" fill="#c2e1ffB6"/><path d="M-105.2-268.6a8.6 8.6 0 1 1 0-17.1 8.6 8.6 0 0 1 0 17.1" fill="#fff500B7"/><path d="M329-100a8.6 8.6 0 1 1 0-17.2 8.6 8.6 0 0 1 0 17.2" fill="#c2e1ffB8"/><path d="M255.6-330.8a8.6 8.6 0 1 1 0-17.3 8.6 8.6 0 0 1 0 17.3" fill="#005bbbB9"/><path d="M297.9-25.8a8.7 8.7 0 1 1 0-17.3 8.7 8.7 0 0 1 0 17.3" fill="#fffB9"/><path d="M-25.9-353.4a8.7 8.7 0 1 1 0-17.4 8.7 8.7 0 0 1 0 17.4" fill="#fff500BA"/><path d="M-127.3-217.4a8.7 8.7 0 1 1 0-17.5 8.7 8.7 0 0 1 0 17.5" fill="#fff500BB"/><path d="M-31.3 42.6a8.8 8.8 0 1 1 0-17.6 8.8 8.8 0 0 1 0 17.6" fill="#005bbbBC"/><path d="M74.4 81.2a8.9 8.9 0 1 1 0-17.7 8.9 8.9 0 0 1 0 17.7" fill="#c2e1ffBD"/><path d="M128.7-388.1a8.9 8.9 0 1 1 0-17.8 8.9 8.9 0 0 1 0 17.8" fill="#005bbbBE"/><path d="M276.3-310.8a8.9 8.9 0 1 1 0-17.8 8.9 8.9 0 0 1 0 17.8" fill="#c2e1ffBE"/><path d="M168.7 72.4a8.9 8.9 0 1 1 0-17.9 8.9 8.9 0 0 1 0 17.9" fill="#fffBF"/><path d="M61.3 79.3a9 9 0 1 1 0-18 9 9 0 0 1 0 18" fill="#fff500C0"/><path d="M64.4 79.7a9 9 0 1 1 0-18 9 9 0 0 1 0 18" fill="#fff500C1"/><path d="M210 55.2a9 9 0 1 1 0-18 9 9 0 0 1 0 18" fill="#fff500C1"/><path d="M302.6-33.1a9.1 9.1 0 1 1 0-18.2 9.1 9.1 0 0 1 0 18.2" fill="#fffC2"/><path d="M263.2-323.3a9.1 9.1 0 1 1 0-18.2 9.1 9.1 0 0 1 0 18.2" fill="#fff500C2"/><path d="M292.8-18.4a9.1 9.1 0 1 1 0-18.2 9.1 9.1 0 0 1 0 18.2" fill="#fffC3"/><path d="M-82.5-301.3a9.2 9.2 0 1 1 0-18.4 9.2 9.2 0 0 1 0 18.4" fill="#fff500C4"/><path d="M267.9-317.3a9.2 9.2 0 1 1 0-18.4 9.2 9.2 0 0 1 0 18.4" fill="#fff500C5"/><path d="M96.1-387.9a9.2 9.2 0 1 1 0-18.4 9.2 9.2 0 0 1 0 18.4" fill="#c2e1ffC5"/><path d="M-30.4 41.7a9.2 9.2 0 1 1 0-18.4 9.2 9.2 0 0 1 0 18.4" fill="#005bbbC5"/><path d="M-123-81.9a9.3 9.3 0 1 1 0-18.5 9.3 9.3 0 0 1 0 18.5" fill="#005bbbC6"/><path d="M285.2-11.5a9.3 9.3 0 1 1 0-18.7 9.3 9.3 0 0 1 0 18.7" fill="#c2e1ffC8"/><path d="M1-363.3a9.4 9.4 0 1 1 0-18.8 9.4 9.4 0 0 1 0 18.8" fill="#fffC9"/><path d="M-92.1-24.2a9.5 9.5 0 1 1 0-18.9 9.5 9.5 0 0 1 0 18.9" fill="#005bbbCB"/><path d="M-72.4-306.8a9.5 9.5 0 1 1 0-18.9 9.5 9.5 0 0 1 0 18.9" fill="#fffCB"/><path d="M329.6-175a9.5 9.5 0 1 1 0-19 9.5 9.5 0 0 1 0 19" fill="#005bbbCC"/><path d="M-107.4-252.2a9.5 9.5 0 1 1 0-19.1 9.5 9.5 0 0 1 0 19.1" fill="#fffCC"/><path d="M223 40.9a9.6 9.6 0 1 1 0-19.2 9.6 9.6 0 0 1 0 19.2" fill="#005bbbCD"/><path d="M-126-190.9a9.6 9.6 0 1 1 0-19.2 9.6 9.6 0 0 1 0 19.2" fill="#fffCD"/><path d="M314.4-72.6a9.6 9.6 0 1 1 0-19.1 9.6 9.6 0 0 1 0 19.1" fill="#005bbbCD"/><path d="M270-305.6a9.6 9.6 0 1 1 0-19.2 9.6 9.6 0 0 1 0 19.2" fill="#fffCE"/><path d="M54.8-376.2a9.6 9.6 0 1 1 0-19.3 9.6 9.6 0 0 1 0 19.3" fill="#fffCF"/><path d="M218.6-347a9.7 9.7 0 1 1 0-19.3 9.7 9.7 0 0 1 0 19.3" fill="#fff500CF"/><path d="M53.9-373.6a9.7 9.7 0 1 1 0-19.5 9.7 9.7 0 0 1 0 19.5" fill="#fffD1"/><path d="M311.9-75.2a9.7 9.7 0 1 1 0-19.5 9.7 9.7 0 0 1 0 19.5" fill="#fffD1"/><path d="M-51.6 14.3a9.7 9.7 0 1 1 0-19.5 9.7 9.7 0 0 1 0 19.5" fill="#fff500D1"/><path d="M271.4-299.3a9.7 9.7 0 1 1 0-19.5 9.7 9.7 0 0 1 0 19.5" fill="#005bbbD1"/><path d="M-103.7-247.6a9.8 9.8 0 1 1 0-19.5 9.8 9.8 0 0 1 0 19.5" fill="#c2e1ffD2"/><path d="M309.4-233.4a9.8 9.8 0 1 1 0-19.6 9.8 9.8 0 0 1 0 19.6" fill="#c2e1ffD2"/><path d="M299.2-49.8a9.8 9.8 0 1 1 0-19.6 9.8 9.8 0 0 1 0 19.6" fill="#fffD2"/><path d="M272-295.8a9.8 9.8 0 1 1 0-19.6 9.8 9.8 0 0 1 0 19.6" fill="#005bbbD2"/><path d="M126.7 68.4a9.8 9.8 0 1 1 0-19.7 9.8 9.8 0 0 1 0 19.7" fill="#c2e1ffD3"/><path d="M-27.6 29.2a9.9 9.9 0 1 1 0-19.7 9.9 9.9 0 0 1 0 19.7" fill="#fff500D4"/><path d="M-1.4-348.8a9.9 9.9 0 1 1 0-19.8 9.9 9.9 0 0 1 0 19.8" fill="#005bbbD5"/><path d="M142.7 62.3a10 10 0 1 1 0-20 10 10 0 0 1 0 20" fill="#fff500D6"/><path d="M123.5 61.6a10.1 10.1 0 1 1 0-20.2 10.1 10.1 0 0 1 0 20.2" fill="#c2e1ffD8"/><path d="M-76-30.4a10.1 10.1 0 1 1 0-20.2 10.1 10.1 0 0 1 0 20.2" fill="#fffD9"/><path d="M-53.6-8.6a10.2 10.2 0 1 1 0-20.4 10.2 10.2 0 0 1 0 20.4" fill="#fffDB"/><path d="M285.9-59.6a10.3 10.3 0 1 1 0-20.5 10.3 10.3 0 0 1 0 20.5" fill="#fffDC"/><path d="M306.5-146.5a10.3 10.3 0 1 1 0-20.5 10.3 10.3 0 0 1 0 20.5" fill="#005bbbDD"/><path d="M-102.5-130.2a10.4 10.4 0 1 1 0-20.7 10.4 10.4 0 0 1 0 20.7" fill="#fffDE"/><path d="M-12.8-321.7a10.4 10.4 0 1 1 0-20.7 10.4 10.4 0 0 1 0 20.7" fill="#fff500DE"/><path d="M-45-11.6a10.4 10.4 0 1 1 0-20.8 10.4 10.4 0 0 1 0 20.8" fill="#fffDF"/><path d="M-96.7-116a10.4 10.4 0 1 1 0-20.9 10.4 10.4 0 0 1 0 20.9" fill="#005bbbE0"/><path d="M117.3-351.2a10.4 10.4 0 1 1 0-20.9 10.4 10.4 0 0 1 0 20.9" fill="#fffE0"/><path d="M263.6-40.4a10.5 10.5 0 1 1 0-20.9 10.5 10.5 0 0 1 0 20.9" fill="#c2e1ffE1"/><path d="M-21 4.4a10.5 10.5 0 1 1 0-20.9 10.5 10.5 0 0 1 0 20.9" fill="#005bbbE1"/><path d="M-83.9-174.4a10.7 10.7 0 1 1 0-21.4 10.7 10.7 0 0 1 0 21.4" fill="#c2e1ffE6"/><path d="M277.9-142.1a10.8 10.8 0 1 1 0-21.6 10.8 10.8 0 0 1 0 21.6" fill="#c2e1ffE8"/><path d="M183.9-307.9a10.8 10.8 0 1 1 0-21.6 10.8 10.8 0 0 1 0 21.6" fill="#c2e1ffE8"/><path d="M154.3 9.5a10.9 10.9 0 1 1 0-21.8 10.9 10.9 0 0 1 0 21.8" fill="#fff500EB"/><path d="M15.1-4.6a10.9 10.9 0 1 1 0-21.8 10.9 10.9 0 0 1 0 21.8" fill="#fffEB"/><path d="M253.1-81.5a10.9 10.9 0 1 1 0-21.8 10.9 10.9 0 0 1 0 21.8" fill="#fffEB"/><path d="M262.2-153.9a11 11 0 1 1 0-22 11 11 0 0 1 0 22" fill="#fffED"/><path d="M-55.3-190.2a11 11 0 1 1 0-22.1 11 11 0 0 1 0 22.1" fill="#005bbbED"/><path d="M130.4 2.9a11.1 11.1 0 1 1 0-22.2 11.1 11.1 0 0 1 0 22.2" fill="#fffEE"/><path d="M130.7 2a11.1 11.1 0 1 1 0-22.2 11.1 11.1 0 0 1 0 22.2" fill="#005bbbEE"/><path d="M-40.1-84.6a11.1 11.1 0 1 1 0-22.2 11.1 11.1 0 0 1 0 22.2" fill="#005bbbEF"/><path d="M186.1-278.1a11.1 11.1 0 1 1 0-22.2 11.1 11.1 0 0 1 0 22.2" fill="#005bbbEF"/><path d="M227.4-204.5a11.3 11.3 0 1 1 0-22.6 11.3 11.3 0 0 1 0 22.6" fill="#fffF2"/><path d="M3.2-248.4a11.3 11.3 0 1 1 0-22.5 11.3 11.3 0 0 1 0 22.5" fill="#005bbbF2"/><path d="M220.8-206.4a11.3 11.3 0 1 1 0-22.6 11.3 11.3 0 0 1 0 22.6" fill="#fff500F3"/><path d="M106.8-282.1a11.3 11.3 0 1 1 0-22.6 11.3 11.3 0 0 1 0 22.6" fill="#fffF4"/><path d="M78.5-266.3a11.4 11.4 0 1 1 0-22.9 11.4 11.4 0 0 1 0 22.9" fill="#c2e1ffF6"/><path d="M78.6-253.1a11.5 11.5 0 1 1 0-23 11.5 11.5 0 0 1 0 23" fill="#fff500F8"/><path d="M178.1-168.2a11.6 11.6 0 1 1 0-23.3 11.6 11.6 0 0 1 0 23.3" fill="#005bbbFB"/><path d="M155.5-207.9a11.6 11.6 0 1 1 0-23.3 11.6 11.6 0 0 1 0 23.3" fill="#005bbbFB"/><path d="M80.7-76.9a11.7 11.7 0 1 1 0-23.3 11.7 11.7 0 0 1 0 23.3" fill="#005bbbFB"/><path d="M73.6-95.1a11.7 11.7 0 1 1 0-23.4 11.7 11.7 0 0 1 0 23.4" fill="#fffFC"/><path d="M156-152.1a11.7 11.7 0 1 1 0-23.4 11.7 11.7 0 0 1 0 23.4" fill="#c2e1ffFD"/><path d="M100.1-122.6a11.8 11.8 0 1 1 0-23.5 11.8 11.8 0 0 1 0 23.5" fill="#fffFE"/><path d="M101.2-127.6a11.8 11.8 0 1 1 0-23.6 11.8 11.8 0 0 1 0 23.6" fill="#fffFE"/></g></svg>