<svg width="1200" height="675" viewBox="-500 -500 1200 675" xmlns="http://www.w3.org/2000/svg"><path d="M-500-500h1200v675h-1200z" fill="#000"/><style>.sparkles path{stroke-linecap:round; stroke-width:1}</style><g class="sparkles"><path d="M100-162.5l3 8.7" stroke="#fff50032"/><path d="M100-162.5l-25 22.3" stroke="#fff50032"/><path d="M100-162.5l59 21.8" stroke="#c2e1ff33"/><path d="M100-162.5l-13.1-76.7" stroke="#fff50034"/><path d="M100-162.5l77.2-25.5" stroke="#fff35"/><path d="M100-162.5l-22.3-80.5" stroke="#005bbb35"/><path d="M100-162.5l-72.8 53.3" stroke="#fff35"/><path d="M100-162.5l92-13.3" stroke="#005bbb36"/><path d="M100-162.5l67 71.2" stroke="#c2e1ff36"/><path d="M100-162.5l-28.2 96.3" stroke="#005bbb36"/><path d="M100-162.5l-17.5 131.4" stroke="#fff3A"/><path d="M100-162.5l-43.1-125.4" stroke="#005bbb3A"/><path d="M100-162.5l-92.4-113.3" stroke="#fff5003C"/><path d="M100-162.5l130 68.3" stroke="#005bbb3C"/><path d="M100-162.5l-127.4 86.2" stroke="#005bbb3E"/><path d="M100-162.5l-125.6 93.4" stroke="#005bbb3E"/><path d="M100-162.5l-156.6 21.1" stroke="#c2e1ff3E"/><path d="M100-162.5l71.7 141.9" stroke="#fff3F"/><path d="M100-162.5l-106.1-123.9" stroke="#005bbb3F"/><path d="M100-162.5l-127.9-106.1" stroke="#fff40"/><path d="M100-162.5l-132.3 104.5" stroke="#c2e1ff40"/><path d="M100-162.5l-123.8-114.8" stroke="#005bbb41"/><path d="M100-162.5l120.2-120.1" stroke="#005bbb41"/><path d="M100-162.5l-114.2 131.7" stroke="#c2e1ff42"/><path d="M100-162.5l6.2-183.5" stroke="#005bbb44"/><path d="M100-162.5l73.1 169.5" stroke="#c2e1ff44"/><path d="M100-162.5l182.7-29.4" stroke="#005bbb44"/><path d="M100-162.5l191 3.9" stroke="#c2e1ff46"/><path d="M100-162.5l62.9-180.3" stroke="#005bbb46"/><path d="M100-162.5l93.1-168.9" stroke="#c2e1ff47"/><path d="M100-162.5l-21.3-197.6" stroke="#005bbb48"/><path d="M100-162.5l197.2-35" stroke="#fff49"/><path d="M100-162.5l67.6-188.9" stroke="#fff50049"/><path d="M100-162.5l194.2-52.5" stroke="#fff49"/><path d="M100-162.5l35.7 203.3" stroke="#fff4B"/><path d="M100-162.5l123.6-168.3" stroke="#c2e1ff4C"/><path d="M100-162.5l-194.7 76" stroke="#c2e1ff4C"/><path d="M100-162.5l-205.3-41" stroke="#fff5004C"/><path d="M100-162.5l-28.6 211.9" stroke="#fff5004E"/><path d="M100-162.5l-120.7-177.2" stroke="#c2e1ff4E"/><path d="M100-162.5l-213.9 24" stroke="#005bbb4F"/><path d="M100-162.5l45.1 211.8" stroke="#005bbb4F"/><path d="M100-162.5l-67-206.1" stroke="#005bbb50"/><path d="M100-162.5l-33.3-216.7" stroke="#c2e1ff51"/><path d="M100-162.5l80.2-206" stroke="#005bbb52"/><path d="M100-162.5l43.8 217.6" stroke="#c2e1ff52"/><path d="M100-162.5l46.8-217.2" stroke="#005bbb52"/><path d="M100-162.5l221.6-32.4" stroke="#fff54"/><path d="M100-162.5l66 214" stroke="#c2e1ff54"/><path d="M100-162.5l-219.3-49" stroke="#fff50054"/><path d="M100-162.5l161.9-156.9" stroke="#fff50055"/><path d="M100-162.5l-167.9-150.7" stroke="#fff55"/><path d="M100-162.5l-162.7 156.5" stroke="#fff50055"/><path d="M100-162.5l215.7-67.4" stroke="#c2e1ff55"/><path d="M100-162.5l-60.2-218" stroke="#fff55"/><path d="M100-162.5l209.7 85" stroke="#005bbb55"/><path d="M100-162.5l-109.1-198.7" stroke="#005bbb55"/><path d="M100-162.5l160.6 161.4" stroke="#c2e1ff56"/><path d="M100-162.5l3.8 228.5" stroke="#fff57"/><path d="M100-162.5l-206 100.6" stroke="#fff50057"/><path d="M100-162.5l23 228.4" stroke="#fff50058"/><path d="M100-162.5l226.9-34.8" stroke="#005bbb58"/><path d="M100-162.5l-92.5-211.4" stroke="#005bbb59"/><path d="M100-162.5l-209.6 97.6" stroke="#005bbb59"/><path d="M100-162.5l-168.4 159.7" stroke="#c2e1ff5A"/><path d="M100-162.5l-204 110.8" stroke="#005bbb5A"/><path d="M100-162.5l-190.4-133.6" stroke="#fff5B"/><path d="M100-162.5l220.4-74.3" stroke="#fff5B"/><path d="M100-162.5l219.1 79.2" stroke="#005bbb5B"/><path d="M100-162.5l225.9-56.8" stroke="#fff5B"/><path d="M100-162.5l18.4 232.6" stroke="#fff5C"/><path d="M100-162.5l-18.6 232.7" stroke="#fff5C"/><path d="M100-162.5l-105.1 208.6" stroke="#005bbb5C"/><path d="M100-162.5l220.1-78" stroke="#005bbb5C"/><path d="M100-162.5l-77.6-220.3" stroke="#c2e1ff5C"/><path d="M100-162.5l6.4 233.9" stroke="#fff5D"/><path d="M100-162.5l134.2 192.1" stroke="#fff5005D"/><path d="M100-162.5l24.3-233.4" stroke="#fff5005E"/><path d="M100-162.5l-74-222.9" stroke="#fff5E"/><path d="M100-162.5l-98.2 213.6" stroke="#fff5F"/><path d="M100-162.5l-71-224.2" stroke="#fff5005F"/><path d="M100-162.5l-118.4-203.7" stroke="#c2e1ff60"/><path d="M100-162.5l130.8-196" stroke="#c2e1ff60"/><path d="M100-162.5l152.8 179.6" stroke="#fff50060"/><path d="M100-162.5l-128.4-198" stroke="#c2e1ff61"/><path d="M100-162.5l22.5 234.9" stroke="#c2e1ff61"/><path d="M100-162.5l3.7 236.1" stroke="#fff50062"/><path d="M100-162.5l-50.2 230.8" stroke="#c2e1ff62"/><path d="M100-162.5l211.8-104.7" stroke="#fff64"/><path d="M100-162.5l63.2-227.5" stroke="#c2e1ff65"/><path d="M100-162.5l156.4-176.7" stroke="#fff50066"/><path d="M100-162.5l-177.7 155.1" stroke="#005bbb66"/><path d="M100-162.5l222.9-77.3" stroke="#fff66"/><path d="M100-162.5l-203.1 119.5" stroke="#fff67"/><path d="M100-162.5l-234.8 17.5" stroke="#fff68"/><path d="M100-162.5l189.5 139.4" stroke="#005bbb68"/><path d="M100-162.5l207.3 110.9" stroke="#fff69"/><path d="M100-162.5l-86.9-218.3" stroke="#fff69"/><path d="M100-162.5l-14.8-234.1" stroke="#fff50069"/><path d="M100-162.5l229.7-47.3" stroke="#005bbb6A"/><path d="M100-162.5l-227.1 58" stroke="#005bbb6A"/><path d="M100-162.5l233.5-6.9" stroke="#005bbb6B"/><path d="M100-162.5l200.7 118.5" stroke="#fff6C"/><path d="M100-162.5l214.7 90.2" stroke="#c2e1ff6C"/><path d="M100-162.5l229.1-40.6" stroke="#c2e1ff6C"/><path d="M100-162.5l-13.1 230.8" stroke="#fff6E"/><path d="M100-162.5l-229-30.3" stroke="#fff6E"/><path d="M100-162.5l-200.1-115.4" stroke="#fff6E"/><path d="M100-162.5l159.5-166.4" stroke="#fff5006E"/><path d="M100-162.5l126.3-192.7" stroke="#005bbb6F"/><path d="M100-162.5l171.1 153.7" stroke="#c2e1ff6F"/><path d="M100-162.5l121.5-194.5" stroke="#fff70"/><path d="M100-162.5l-223-50.6" stroke="#fff70"/><path d="M100-162.5l-91.6-209.4" stroke="#fff50070"/><path d="M100-162.5l-137.5 181.9" stroke="#c2e1ff71"/><path d="M100-162.5l-158.8 161.5" stroke="#005bbb72"/><path d="M100-162.5l-5.5-226.2" stroke="#c2e1ff72"/><path d="M100-162.5l-24.4-224.2" stroke="#005bbb72"/><path d="M100-162.5l93.6 204.2" stroke="#c2e1ff73"/><path d="M100-162.5l-104 196.9" stroke="#fff50074"/><path d="M100-162.5l-221.1 19" stroke="#005bbb75"/><path d="M100-162.5l-20.6 219.4" stroke="#c2e1ff76"/><path d="M100-162.5l-6.1-219.1" stroke="#c2e1ff76"/><path d="M100-162.5l-104.9 190.9" stroke="#fff50077"/><path d="M100-162.5l-170.5-134.9" stroke="#005bbb77"/><path d="M100-162.5l-44.5-211.6" stroke="#c2e1ff78"/><path d="M100-162.5l-209-54.9" stroke="#fff78"/><path d="M100-162.5l189.9 98.4" stroke="#c2e1ff79"/><path d="M100-162.5l-13.1-211.2" stroke="#fff7A"/><path d="M100-162.5l-168.7 127.1" stroke="#fff7A"/><path d="M100-162.5l-5 211.1" stroke="#005bbb7A"/><path d="M100-162.5l-56.7-198.9" stroke="#fff7C"/><path d="M100-162.5l191-72.3" stroke="#fff7D"/><path d="M100-162.5l-95.5-180.5" stroke="#fff7D"/><path d="M100-162.5l-190.7 70.9" stroke="#005bbb7D"/><path d="M100-162.5l101.2-175.7" stroke="#c2e1ff7D"/><path d="M100-162.5l-56.7-192.9" stroke="#005bbb7E"/><path d="M100-162.5l-168.8-98.9" stroke="#005bbb80"/><path d="M100-162.5l192.2 18.4" stroke="#c2e1ff80"/><path d="M100-162.5l-171.8 82.6" stroke="#c2e1ff81"/><path d="M100-162.5l-170.2 80" stroke="#005bbb82"/><path d="M100-162.5l10.4-184.4" stroke="#fff83"/><path d="M100-162.5l151.5 103.7" stroke="#fff83"/><path d="M100-162.5l-87.2 160.1" stroke="#005bbb83"/><path d="M100-162.5l180.4 0" stroke="#c2e1ff84"/><path d="M100-162.5l-74.8-160.8" stroke="#005bbb85"/><path d="M100-162.5l-22.7 173.3" stroke="#005bbb85"/><path d="M100-162.5l-26.5 172.5" stroke="#fff85"/><path d="M100-162.5l-134 109.7" stroke="#fff50086"/><path d="M100-162.5l-72.5 155.5" stroke="#fff50086"/><path d="M100-162.5l-22.8 169" stroke="#fff86"/><path d="M100-162.5l-144.3 85.5" stroke="#fff50087"/><path d="M100-162.5l-159.6 30.2" stroke="#c2e1ff88"/><path d="M100-162.5l72.1-141.6" stroke="#fff50088"/><path d="M100-162.5l-157.1-6.4" stroke="#fff50089"/><path d="M100-162.5l-43.5 150.6" stroke="#fff89"/><path d="M100-162.5l78.8-134.8" stroke="#c2e1ff89"/><path d="M100-162.5l138 70" stroke="#c2e1ff89"/><path d="M100-162.5l101.5-111.6" stroke="#fff8A"/><path d="M100-162.5l71.1 127.4" stroke="#fff5008B"/><path d="M100-162.5l116.4 87.5" stroke="#c2e1ff8B"/><path d="M100-162.5l-128.4 68" stroke="#c2e1ff8B"/><path d="M100-162.5l-31.8-132.1" stroke="#fff8C"/><path d="M100-162.5l69.7-106" stroke="#c2e1ff8E"/><path d="M100-162.5l-118.2 22.6" stroke="#c2e1ff8F"/><path d="M100-162.5l-85.9 84" stroke="#fff5008F"/><path d="M100-162.5l-43.4 111.6" stroke="#c2e1ff8F"/><path d="M100-162.5l-118.8-6.1" stroke="#c2e1ff8F"/><path d="M100-162.5l-19.6-110.4" stroke="#c2e1ff90"/><path d="M100-162.5l-107.6-22.1" stroke="#fff90"/><path d="M100-162.5l1.5 105.7" stroke="#c2e1ff90"/><path d="M100-162.5l-10.2 104.6" stroke="#fff90"/><path d="M100-162.5l-71 66.8" stroke="#c2e1ff91"/><path d="M100-162.5l67.1-67.6" stroke="#c2e1ff91"/><path d="M100-162.5l6 87.4" stroke="#c2e1ff92"/><path d="M100-162.5l-80.4-14.5" stroke="#c2e1ff92"/><path d="M100-162.5l-37.8-69.5" stroke="#fff50093"/><path d="M100-162.5l26.5-71.8" stroke="#fff50093"/><path d="M100-162.5l-32.3 39.4" stroke="#fff50094"/><path d="M100-162.5l18.2 37.4" stroke="#005bbb95"/><path d="M100-162.5l-25.6-18.8" stroke="#fff95"/></g><g class="sparcs"><path d="M103-147.9a5.9 5.9 0 1 1 0-11.8 5.9 5.9 0 0 1 0 11.8" fill="#fff5007D"/><path d="M75-134.2a5.9 5.9 0 1 1 0-11.9 5.9 5.9 0 0 1 0 11.9" fill="#c2e1ff7D"/><path d="M159-134.7a6 6 0 1 1 0-12 6 6 0 0 1 0 12" fill="#c2e1ff7F"/><path d="M86.9-233.2a6.1 6.1 0 1 1 0-12.1 6.1 6.1 0 0 1 0 12.1" fill="#005bbb80"/><path d="M177.2-181.9a6.1 6.1 0 1 1 0-12.2 6.1 6.1 0 0 1 0 12.2" fill="#fff50080"/><path d="M77.7-237a6.1 6.1 0 1 1 0-12.1 6.1 6.1 0 0 1 0 12.1" fill="#005bbb81"/><path d="M27.2-103.1a6.1 6.1 0 1 1 0-12.2 6.1 6.1 0 0 1 0 12.2" fill="#c2e1ff81"/><path d="M192-169.7a6.1 6.1 0 1 1 0-12.3 6.1 6.1 0 0 1 0 12.3" fill="#005bbb82"/><path d="M167-85.1a6.2 6.2 0 1 1 0-12.4 6.2 6.2 0 0 1 0 12.4" fill="#c2e1ff82"/><path d="M71.8-60a6.2 6.2 0 1 1 0-12.4 6.2 6.2 0 0 1 0 12.4" fill="#fff50083"/><path d="M82.5-24.7a6.4 6.4 0 1 1 0-12.8 6.4 6.4 0 0 1 0 12.8" fill="#fff88"/><path d="M56.9-281.5a6.4 6.4 0 1 1 0-12.8 6.4 6.4 0 0 1 0 12.8" fill="#fff50088"/><path d="M7.6-269.2a6.5 6.5 0 1 1 0-13.1 6.5 6.5 0 0 1 0 13.1" fill="#005bbb8A"/><path d="M230-87.6a6.5 6.5 0 1 1 0-13.1 6.5 6.5 0 0 1 0 13.1" fill="#c2e1ff8B"/><path d="M-27.4-69.7a6.6 6.6 0 1 1 0-13.3 6.6 6.6 0 0 1 0 13.3" fill="#c2e1ff8C"/><path d="M-25.6-62.5a6.6 6.6 0 1 1 0-13.3 6.6 6.6 0 0 1 0 13.3" fill="#fff8D"/><path d="M-56.6-134.7a6.7 6.7 0 1 1 0-13.4 6.7 6.7 0 0 1 0 13.4" fill="#005bbb8D"/><path d="M171.7-13.9a6.7 6.7 0 1 1 0-13.4 6.7 6.7 0 0 1 0 13.4" fill="#fff8D"/><path d="M-6.1-279.7a6.7 6.7 0 1 1 0-13.5 6.7 6.7 0 0 1 0 13.5" fill="#fff5008E"/><path d="M-27.9-261.8a6.8 6.8 0 1 1 0-13.6 6.8 6.8 0 0 1 0 13.6" fill="#005bbb8F"/><path d="M-32.3-51.2a6.8 6.8 0 1 1 0-13.6 6.8 6.8 0 0 1 0 13.6" fill="#c2e1ff90"/><path d="M-23.8-270.5a6.8 6.8 0 1 1 0-13.6 6.8 6.8 0 0 1 0 13.6" fill="#005bbb90"/><path d="M220.2-275.8a6.8 6.8 0 1 1 0-13.6 6.8 6.8 0 0 1 0 13.6" fill="#c2e1ff90"/><path d="M-14.2-23.9a6.9 6.9 0 1 1 0-13.7 6.9 6.9 0 0 1 0 13.7" fill="#fff50092"/><path d="M106.2-339a7 7 0 1 1 0-14 7 7 0 0 1 0 14" fill="#c2e1ff95"/><path d="M173.1 14a7 7 0 1 1 0-14 7 7 0 0 1 0 14" fill="#005bbb95"/><path d="M282.7-184.8a7 7 0 1 1 0-14.1 7 7 0 0 1 0 14.1" fill="#005bbb95"/><path d="M291-151.5a7.1 7.1 0 1 1 0-14.2 7.1 7.1 0 0 1 0 14.2" fill="#005bbb97"/><path d="M162.9-335.7a7.1 7.1 0 1 1 0-14.3 7.1 7.1 0 0 1 0 14.3" fill="#fff50097"/><path d="M193.1-324.2a7.2 7.2 0 1 1 0-14.3 7.2 7.2 0 0 1 0 14.3" fill="#fff98"/><path d="M78.7-352.8a7.3 7.3 0 1 1 0-14.6 7.3 7.3 0 0 1 0 14.6" fill="#c2e1ff9A"/><path d="M297.2-190.2a7.3 7.3 0 1 1 0-14.6 7.3 7.3 0 0 1 0 14.6" fill="#c2e1ff9B"/><path d="M167.6-344.1a7.3 7.3 0 1 1 0-14.6 7.3 7.3 0 0 1 0 14.6" fill="#005bbb9B"/><path d="M294.2-207.6a7.3 7.3 0 1 1 0-14.7 7.3 7.3 0 0 1 0 14.7" fill="#fff9B"/><path d="M135.7 48.2a7.4 7.4 0 1 1 0-14.8 7.4 7.4 0 0 1 0 14.8" fill="#fff9E"/><path d="M223.6-323.3a7.5 7.5 0 1 1 0-15 7.5 7.5 0 0 1 0 15" fill="#005bbb9F"/><path d="M-94.7-79a7.5 7.5 0 1 1 0-15 7.5 7.5 0 0 1 0 15" fill="#fff9F"/><path d="M-105.3-196a7.5 7.5 0 1 1 0-15 7.5 7.5 0 0 1 0 15" fill="#005bbb9F"/><path d="M71.4 57a7.6 7.6 0 1 1 0-15.2 7.6 7.6 0 0 1 0 15.2" fill="#fffA2"/><path d="M-20.7-332.1a7.6 7.6 0 1 1 0-15.2 7.6 7.6 0 0 1 0 15.2" fill="#fffA2"/><path d="M-113.9-130.8a7.6 7.6 0 1 1 0-15.3 7.6 7.6 0 0 1 0 15.3" fill="#c2e1ffA3"/><path d="M145.1 56.9a7.7 7.7 0 1 1 0-15.3 7.7 7.7 0 0 1 0 15.3" fill="#fffA3"/><path d="M33-361a7.7 7.7 0 1 1 0-15.3 7.7 7.7 0 0 1 0 15.3" fill="#fffA4"/><path d="M66.7-371.5a7.8 7.8 0 1 1 0-15.5 7.8 7.8 0 0 1 0 15.5" fill="#fff500A5"/><path d="M180.2-360.7a7.8 7.8 0 1 1 0-15.6 7.8 7.8 0 0 1 0 15.6" fill="#fffA7"/><path d="M143.8 62.9a7.8 7.8 0 1 1 0-15.7 7.8 7.8 0 0 1 0 15.7" fill="#fffA7"/><path d="M146.8-371.8a7.9 7.9 0 1 1 0-15.7 7.9 7.9 0 0 1 0 15.7" fill="#fffA7"/><path d="M321.6-187a7.9 7.9 0 1 1 0-15.8 7.9 7.9 0 0 1 0 15.8" fill="#fffA9"/><path d="M166 59.5a7.9 7.9 0 1 1 0-15.9 7.9 7.9 0 0 1 0 15.9" fill="#c2e1ffA9"/><path d="M-119.3-203.5a7.9 7.9 0 1 1 0-15.9 7.9 7.9 0 0 1 0 15.9" fill="#fffA9"/><path d="M261.9-311.4a8 8 0 1 1 0-16 8 8 0 0 1 0 16" fill="#fff500AA"/><path d="M-67.9-305.2a8 8 0 1 1 0-16 8 8 0 0 1 0 16" fill="#fff500AA"/><path d="M-62.7 2a8 8 0 1 1 0-16 8 8 0 0 1 0 16" fill="#005bbbAA"/><path d="M315.7-221.9a8 8 0 1 1 0-16 8 8 0 0 1 0 16" fill="#005bbbAB"/><path d="M39.8-372.5a8 8 0 1 1 0-16 8 8 0 0 1 0 16" fill="#c2e1ffAB"/><path d="M309.7-69.5a8 8 0 1 1 0-16 8 8 0 0 1 0 16" fill="#fffAB"/><path d="M-9.1-353.2a8 8 0 1 1 0-16 8 8 0 0 1 0 16" fill="#005bbbAB"/><path d="M260.6 7a8.1 8.1 0 1 1 0-16.1 8.1 8.1 0 0 1 0 16.1" fill="#fffAC"/><path d="M103.8 74.1a8.1 8.1 0 1 1 0-16.2 8.1 8.1 0 0 1 0 16.2" fill="#c2e1ffAD"/><path d="M-106-53.7a8.1 8.1 0 1 1 0-16.3 8.1 8.1 0 0 1 0 16.3" fill="#005bbbAE"/><path d="M123 74a8.2 8.2 0 1 1 0-16.3 8.2 8.2 0 0 1 0 16.3" fill="#fff500AE"/><path d="M326.9-189.1a8.2 8.2 0 1 1 0-16.3 8.2 8.2 0 0 1 0 16.3" fill="#fffAE"/><path d="M7.5-365.6a8.2 8.2 0 1 1 0-16.5 8.2 8.2 0 0 1 0 16.5" fill="#fff500B0"/><path d="M-109.6-56.6a8.3 8.3 0 1 1 0-16.6 8.3 8.3 0 0 1 0 16.6" fill="#005bbbB0"/><path d="M-68.4 5.5a8.3 8.3 0 1 1 0-16.6 8.3 8.3 0 0 1 0 16.6" fill="#fff500B1"/><path d="M-104-43.3a8.3 8.3 0 1 1 0-16.7 8.3 8.3 0 0 1 0 16.7" fill="#fffB1"/><path d="M-90.4-287.8a8.3 8.3 0 1 1 0-16.6 8.3 8.3 0 0 1 0 16.6" fill="#005bbbB2"/><path d="M320.4-228.5a8.3 8.3 0 1 1 0-16.7 8.3 8.3 0 0 1 0 16.7" fill="#005bbbB2"/><path d="M319.1-75a8.4 8.4 0 1 1 0-16.7 8.4 8.4 0 0 1 0 16.7" fill="#c2e1ffB3"/><path d="M325.9-211a8.4 8.4 0 1 1 0-16.7 8.4 8.4 0 0 1 0 16.7" fill="#fffB3"/><path d="M118.4 78.5a8.4 8.4 0 1 1 0-16.8 8.4 8.4 0 0 1 0 16.8" fill="#005bbbB3"/><path d="M81.4 78.6a8.4 8.4 0 1 1 0-16.8 8.4 8.4 0 0 1 0 16.8" fill="#fffB3"/><path d="M-5.1 54.5a8.4 8.4 0 1 1 0-16.8 8.4 8.4 0 0 1 0 16.8" fill="#fff500B4"/><path d="M320.1-232.1a8.4 8.4 0 1 1 0-16.8 8.4 8.4 0 0 1 0 16.8" fill="#005bbbB4"/><path d="M22.4-374.4a8.4 8.4 0 1 1 0-16.9 8.4 8.4 0 0 1 0 16.9" fill="#005bbbB4"/><path d="M106.4 79.8a8.4 8.4 0 1 1 0-16.9 8.4 8.4 0 0 1 0 16.9" fill="#fffB4"/><path d="M234.2 38.1a8.5 8.5 0 1 1 0-17 8.5 8.5 0 0 1 0 17" fill="#fff500B5"/><path d="M124.3-387.4a8.5 8.5 0 1 1 0-17 8.5 8.5 0 0 1 0 17" fill="#fffB6"/><path d="M26-376.9a8.5 8.5 0 1 1 0-17.1 8.5 8.5 0 0 1 0 17.1" fill="#c2e1ffB7"/><path d="M1.8 59.7a8.6 8.6 0 1 1 0-17.1 8.6 8.6 0 0 1 0 17.1" fill="#fff500B7"/><path d="M29-378.1a8.6 8.6 0 1 1 0-17.2 8.6 8.6 0 0 1 0 17.2" fill="#005bbbB7"/><path d="M-18.4-357.5a8.6 8.6 0 1 1 0-17.3 8.6 8.6 0 0 1 0 17.3" fill="#fffB9"/><path d="M230.8-349.9a8.6 8.6 0 1 1 0-17.2 8.6 8.6 0 0 1 0 17.2" fill="#005bbbB9"/><path d="M252.8 25.7a8.7 8.7 0 1 1 0-17.3 8.7 8.7 0 0 1 0 17.3" fill="#fffB9"/><path d="M-28.4-351.8a8.7 8.7 0 1 1 0-17.4 8.7 8.7 0 0 1 0 17.4" fill="#fff500BA"/><path d="M122.5 81.2a8.7 8.7 0 1 1 0-17.5 8.7 8.7 0 0 1 0 17.5" fill="#fffBB"/><path d="M103.7 82.3a8.8 8.8 0 1 1 0-17.5 8.8 8.8 0 0 1 0 17.5" fill="#fffBB"/><path d="M49.8 77.1a8.8 8.8 0 1 1 0-17.6 8.8 8.8 0 0 1 0 17.6" fill="#c2e1ffBC"/><path d="M311.8-258.3a8.9 8.9 0 1 1 0-17.8 8.9 8.9 0 0 1 0 17.8" fill="#fffBE"/><path d="M163.2-381.1a8.9 8.9 0 1 1 0-17.9 8.9 8.9 0 0 1 0 17.9" fill="#fff500BF"/><path d="M256.4-330.2a9 9 0 1 1 0-18 9 9 0 0 1 0 18" fill="#fff500C1"/><path d="M-77.7 1.6a9 9 0 1 1 0-18 9 9 0 0 1 0 18" fill="#fff500C1"/><path d="M322.9-230.8a9 9 0 1 1 0-18 9 9 0 0 1 0 18" fill="#005bbbC1"/><path d="M-103.1-33.9a9.1 9.1 0 1 1 0-18.2 9.1 9.1 0 0 1 0 18.2" fill="#fff500C2"/><path d="M-134.8-135.9a9.1 9.1 0 1 1 0-18.3 9.1 9.1 0 0 1 0 18.3" fill="#c2e1ffC3"/><path d="M289.5-14a9.1 9.1 0 1 1 0-18.2 9.1 9.1 0 0 1 0 18.2" fill="#fff500C4"/><path d="M307.3-42.5a9.2 9.2 0 1 1 0-18.3 9.2 9.2 0 0 1 0 18.3" fill="#fffC4"/><path d="M13.1-371.6a9.2 9.2 0 1 1 0-18.3 9.2 9.2 0 0 1 0 18.3" fill="#fff500C4"/><path d="M85.2-387.4a9.2 9.2 0 1 1 0-18.4 9.2 9.2 0 0 1 0 18.4" fill="#fffC5"/><path d="M329.7-200.6a9.2 9.2 0 1 1 0-18.4 9.2 9.2 0 0 1 0 18.4" fill="#fffC5"/><path d="M-127.1-95.3a9.2 9.2 0 1 1 0-18.5 9.2 9.2 0 0 1 0 18.5" fill="#fffC6"/><path d="M333.5-160.1a9.3 9.3 0 1 1 0-18.6 9.3 9.3 0 0 1 0 18.6" fill="#005bbbC7"/><path d="M300.7-34.7a9.3 9.3 0 1 1 0-18.6 9.3 9.3 0 0 1 0 18.6" fill="#fff500C8"/><path d="M314.7-63a9.4 9.4 0 1 1 0-18.7 9.4 9.4 0 0 1 0 18.7" fill="#fffC8"/><path d="M329.1-193.8a9.4 9.4 0 1 1 0-18.7 9.4 9.4 0 0 1 0 18.7" fill="#c2e1ffC9"/><path d="M86.9 77.8a9.5 9.5 0 1 1 0-18.9 9.5 9.5 0 0 1 0 18.9" fill="#c2e1ffCB"/><path d="M-129-183.4a9.5 9.5 0 1 1 0-18.9 9.5 9.5 0 0 1 0 18.9" fill="#005bbbCB"/><path d="M-100.1-268.4a9.5 9.5 0 1 1 0-19 9.5 9.5 0 0 1 0 19" fill="#005bbbCB"/><path d="M259.5-319.4a9.5 9.5 0 1 1 0-19 9.5 9.5 0 0 1 0 19" fill="#fffCC"/><path d="M226.3-345.7a9.5 9.5 0 1 1 0-19 9.5 9.5 0 0 1 0 19" fill="#005bbbCC"/><path d="M271.1 0.7a9.5 9.5 0 1 1 0-19 9.5 9.5 0 0 1 0 19" fill="#fffCC"/><path d="M221.5-347.4a9.6 9.6 0 1 1 0-19.1 9.6 9.6 0 0 1 0 19.1" fill="#005bbbCD"/><path d="M-123-203.5a9.6 9.6 0 1 1 0-19.2 9.6 9.6 0 0 1 0 19.2" fill="#fffCE"/><path d="M8.4-362.3a9.6 9.6 0 1 1 0-19.2 9.6 9.6 0 0 1 0 19.2" fill="#005bbbCE"/><path d="M-37.5 29.1a9.6 9.6 0 1 1 0-19.3 9.6 9.6 0 0 1 0 19.3" fill="#fffCE"/><path d="M-58.8 8.7a9.7 9.7 0 1 1 0-19.4 9.7 9.7 0 0 1 0 19.4" fill="#fffD0"/><path d="M94.5-379a9.7 9.7 0 1 1 0-19.5 9.7 9.7 0 0 1 0 19.5" fill="#c2e1ffD0"/><path d="M75.6-377a9.7 9.7 0 1 1 0-19.4 9.7 9.7 0 0 1 0 19.4" fill="#fffD1"/><path d="M193.6 51.4a9.8 9.8 0 1 1 0-19.5 9.8 9.8 0 0 1 0 19.5" fill="#fff500D2"/><path d="M-4 44.2a9.8 9.8 0 1 1 0-19.7 9.8 9.8 0 0 1 0 19.7" fill="#fff500D3"/><path d="M-121.1-133.7a9.9 9.9 0 1 1 0-19.7 9.9 9.9 0 0 1 0 19.7" fill="#005bbbD4"/><path d="M79.4 66.8a9.9 9.9 0 1 1 0-19.8 9.9 9.9 0 0 1 0 19.8" fill="#005bbbD5"/><path d="M93.9-371.6a10 10 0 1 1 0-19.9 10 10 0 0 1 0 19.9" fill="#c2e1ffD6"/><path d="M-4.9 38.4a10 10 0 1 1 0-20 10 10 0 0 1 0 20" fill="#c2e1ffD7"/><path d="M-70.5-287.4a10 10 0 1 1 0-20 10 10 0 0 1 0 20" fill="#fffD7"/><path d="M55.5-364.1a10 10 0 1 1 0-20.1 10 10 0 0 1 0 20.1" fill="#005bbbD8"/><path d="M-109-207.4a10.1 10.1 0 1 1 0-20.1 10.1 10.1 0 0 1 0 20.1" fill="#fffD8"/><path d="M289.9-53.9a10.1 10.1 0 1 1 0-20.3 10.1 10.1 0 0 1 0 20.3" fill="#c2e1ffD9"/><path d="M86.9-363.5a10.2 10.2 0 1 1 0-20.4 10.2 10.2 0 0 1 0 20.4" fill="#fffDA"/><path d="M-68.7-25.2a10.2 10.2 0 1 1 0-20.4 10.2 10.2 0 0 1 0 20.4" fill="#fffDB"/><path d="M95 58.8a10.2 10.2 0 1 1 0-20.4 10.2 10.2 0 0 1 0 20.4" fill="#005bbbDB"/><path d="M43.3-351.1a10.3 10.3 0 1 1 0-20.6 10.3 10.3 0 0 1 0 20.6" fill="#005bbbDD"/><path d="M291-224.5a10.3 10.3 0 1 1 0-20.7 10.3 10.3 0 0 1 0 20.7" fill="#fff500DE"/><path d="M4.5-332.6a10.3 10.3 0 1 1 0-20.7 10.3 10.3 0 0 1 0 20.7" fill="#005bbbDE"/><path d="M-90.7-81.3a10.4 10.4 0 1 1 0-20.7 10.4 10.4 0 0 1 0 20.7" fill="#fff500DF"/><path d="M201.2-327.8a10.4 10.4 0 1 1 0-20.8 10.4 10.4 0 0 1 0 20.8" fill="#fff500DF"/><path d="M43.3-345a10.4 10.4 0 1 1 0-20.8 10.4 10.4 0 0 1 0 20.8" fill="#c2e1ffE0"/><path d="M-68.8-250.9a10.5 10.5 0 1 1 0-21 10.5 10.5 0 0 1 0 21" fill="#fffE2"/><path d="M292.2-133.5a10.6 10.6 0 1 1 0-21.1 10.6 10.6 0 0 1 0 21.1" fill="#005bbbE3"/><path d="M-71.8-69.3a10.6 10.6 0 1 1 0-21.2 10.6 10.6 0 0 1 0 21.2" fill="#c2e1ffE4"/><path d="M-70.2-71.8a10.6 10.6 0 1 1 0-21.3 10.6 10.6 0 0 1 0 21.3" fill="#005bbbE5"/><path d="M110.4-336.2a10.7 10.7 0 1 1 0-21.4 10.7 10.7 0 0 1 0 21.4" fill="#005bbbE6"/><path d="M251.5-48.1a10.7 10.7 0 1 1 0-21.4 10.7 10.7 0 0 1 0 21.4" fill="#fff500E6"/><path d="M12.8 8.3a10.7 10.7 0 1 1 0-21.5 10.7 10.7 0 0 1 0 21.5" fill="#fff500E7"/><path d="M280.4-151.7a10.8 10.8 0 1 1 0-21.6 10.8 10.8 0 0 1 0 21.6" fill="#c2e1ffE7"/><path d="M25.2-312.4a10.8 10.8 0 1 1 0-21.7 10.8 10.8 0 0 1 0 21.7" fill="#fffE8"/><path d="M77.3 21.7a10.8 10.8 0 1 1 0-21.7 10.8 10.8 0 0 1 0 21.7" fill="#c2e1ffE9"/><path d="M73.5 20.8a10.8 10.8 0 1 1 0-21.7 10.8 10.8 0 0 1 0 21.7" fill="#fff500E9"/><path d="M-34-41.9a10.9 10.9 0 1 1 0-21.7 10.9 10.9 0 0 1 0 21.7" fill="#fff500EA"/><path d="M27.5 3.9a10.9 10.9 0 1 1 0-21.8 10.9 10.9 0 0 1 0 21.8" fill="#005bbbEA"/><path d="M77.2 17.4a10.9 10.9 0 1 1 0-21.8 10.9 10.9 0 0 1 0 21.8" fill="#fff500EA"/><path d="M-44.3-66a10.9 10.9 0 1 1 0-21.9 10.9 10.9 0 0 1 0 21.9" fill="#fffEB"/><path d="M-59.6-121.3a11 11 0 1 1 0-22 11 11 0 0 1 0 22" fill="#005bbbED"/><path d="M172.1-293.1a11 11 0 1 1 0-22.1 11 11 0 0 1 0 22.1" fill="#fffEE"/><path d="M-57.1-157.9a11.1 11.1 0 1 1 0-22.1 11.1 11.1 0 0 1 0 22.1" fill="#fff500EE"/><path d="M56.5-0.9a11.1 11.1 0 1 1 0-22.1 11.1 11.1 0 0 1 0 22.1" fill="#fffEE"/><path d="M178.8-286.3a11.1 11.1 0 1 1 0-22.1 11.1 11.1 0 0 1 0 22.1" fill="#fff500EE"/><path d="M238-81.4a11.1 11.1 0 1 1 0-22.1 11.1 11.1 0 0 1 0 22.1" fill="#fffEF"/><path d="M201.5-263a11.1 11.1 0 1 1 0-22.2 11.1 11.1 0 0 1 0 22.2" fill="#c2e1ffF0"/><path d="M171.1-23.9a11.2 11.2 0 1 1 0-22.4 11.2 11.2 0 0 1 0 22.4" fill="#fffF1"/><path d="M216.4-63.8a11.2 11.2 0 1 1 0-22.4 11.2 11.2 0 0 1 0 22.4" fill="#005bbbF1"/><path d="M-28.4-83.3a11.2 11.2 0 1 1 0-22.4 11.2 11.2 0 0 1 0 22.4" fill="#fff500F1"/><path d="M68.2-283.4a11.3 11.3 0 1 1 0-22.5 11.3 11.3 0 0 1 0 22.5" fill="#fffF3"/><path d="M169.7-257.2a11.4 11.4 0 1 1 0-22.7 11.4 11.4 0 0 1 0 22.7" fill="#c2e1ffF4"/><path d="M-18.2-128.5a11.4 11.4 0 1 1 0-22.8 11.4 11.4 0 0 1 0 22.8" fill="#fff500F5"/><path d="M14.1-67.1a11.4 11.4 0 1 1 0-22.8 11.4 11.4 0 0 1 0 22.8" fill="#005bbbF5"/><path d="M56.6-39.5a11.4 11.4 0 1 1 0-22.8 11.4 11.4 0 0 1 0 22.8" fill="#fffF6"/><path d="M-18.8-157.2a11.4 11.4 0 1 1 0-22.9 11.4 11.4 0 0 1 0 22.9" fill="#fffF6"/><path d="M80.4-261.4a11.5 11.5 0 1 1 0-22.9 11.5 11.5 0 0 1 0 22.9" fill="#005bbbF7"/><path d="M-7.6-173.1a11.5 11.5 0 1 1 0-22.9 11.5 11.5 0 0 1 0 22.9" fill="#fff500F7"/><path d="M101.5-45.3a11.5 11.5 0 1 1 0-23 11.5 11.5 0 0 1 0 23" fill="#c2e1ffF8"/><path d="M89.8-46.4a11.5 11.5 0 1 1 0-23 11.5 11.5 0 0 1 0 23" fill="#c2e1ffF8"/><path d="M29-84.1a11.5 11.5 0 1 1 0-23.1 11.5 11.5 0 0 1 0 23.1" fill="#005bbbF9"/><path d="M167.1-218.6a11.6 11.6 0 1 1 0-23.1 11.6 11.6 0 0 1 0 23.1" fill="#fff500F9"/><path d="M106-63.5a11.6 11.6 0 1 1 0-23.2 11.6 11.6 0 0 1 0 23.2" fill="#005bbbFA"/><path d="M19.6-165.3a11.6 11.6 0 1 1 0-23.3 11.6 11.6 0 0 1 0 23.3" fill="#005bbbFA"/><path d="M62.2-220.4a11.6 11.6 0 1 1 0-23.3 11.6 11.6 0 0 1 0 23.3" fill="#c2e1ffFB"/><path d="M126.5-222.7a11.7 11.7 0 1 1 0-23.3 11.7 11.7 0 0 1 0 23.3" fill="#005bbbFB"/><path d="M67.7-111.4a11.7 11.7 0 1 1 0-23.5 11.7 11.7 0 0 1 0 23.5" fill="#fff500FD"/><path d="M118.2-113.3a11.8 11.8 0 1 1 0-23.5 11.8 11.8 0 0 1 0 23.5" fill="#fffFD"/><path d="M74.4-169.5a11.8 11.8 0 1 1 0-23.6 11.8 11.8 0 0 1 0 23.6" fill="#fff500FE"/></g></svg>