<svg width="1200" height="675" viewBox="-500 -500 1200 675" xmlns="http://www.w3.org/2000/svg"><path d="M-500-500h1200v675h-1200z" fill="#000"/><style>.sparkles path{stroke-linecap:round; stroke-width:1}</style><g class="sparkles"><path d="M100-162.5l77.3 40.5" stroke="#d6282835"/><path d="M100-162.5l1.2 92.9" stroke="#f77f0036"/><path d="M100-162.5l51.8 94.4" stroke="#f77f0037"/><path d="M100-162.5l56.7 94.4" stroke="#eae2b737"/><path d="M100-162.5l-37-110.5" stroke="#fcbf4938"/><path d="M100-162.5l-72.4-91.5" stroke="#f77f0038"/><path d="M100-162.5l101.9-62.8" stroke="#eae2b738"/><path d="M100-162.5l-7.7-127.7" stroke="#d6282839"/><path d="M100-162.5l57.8-115.5" stroke="#0030493A"/><path d="M100-162.5l-130.1-18.2" stroke="#f77f003A"/><path d="M100-162.5l83.1 101.9" stroke="#0030493A"/><path d="M100-162.5l31.1 131.8" stroke="#f77f003B"/><path d="M100-162.5l136.8-31.2" stroke="#eae2b73B"/><path d="M100-162.5l-140.4-7.3" stroke="#d628283B"/><path d="M100-162.5l-74.5 119.8" stroke="#fcbf493B"/><path d="M100-162.5l73.9 121.2" stroke="#f77f003C"/><path d="M100-162.5l-15.2 141.9" stroke="#f77f003C"/><path d="M100-162.5l98.8 104.4" stroke="#eae2b73C"/><path d="M100-162.5l150.7-56.6" stroke="#eae2b73F"/><path d="M100-162.5l163.8 11.5" stroke="#eae2b740"/><path d="M100-162.5l84.1 142.6" stroke="#f77f0040"/><path d="M100-162.5l131.8 107.7" stroke="#00304941"/><path d="M100-162.5l-172.5 46.2" stroke="#00304943"/><path d="M100-162.5l41.2-177" stroke="#fcbf4944"/><path d="M100-162.5l105.6-148.8" stroke="#d6282844"/><path d="M100-162.5l-184.8 9.3" stroke="#eae2b744"/><path d="M100-162.5l-119.5 143.4" stroke="#d6282845"/><path d="M100-162.5l-123.9-140.1" stroke="#fcbf4945"/><path d="M100-162.5l-67.3-176.7" stroke="#00304946"/><path d="M100-162.5l-150.1 120.3" stroke="#eae2b746"/><path d="M100-162.5l-167.7 96.3" stroke="#00304947"/><path d="M100-162.5l171.9-91.9" stroke="#00304947"/><path d="M100-162.5l192.8-39.9" stroke="#fcbf4948"/><path d="M100-162.5l159.3 119" stroke="#eae2b749"/><path d="M100-162.5l187.2-71.6" stroke="#d6282849"/><path d="M100-162.5l-144.4-141.1" stroke="#d628284A"/><path d="M100-162.5l-18.5 202.3" stroke="#0030494A"/><path d="M100-162.5l-79.1-188.3" stroke="#d628284A"/><path d="M100-162.5l-158.2 130.3" stroke="#f77f004B"/><path d="M100-162.5l-111-174.7" stroke="#eae2b74B"/><path d="M100-162.5l149 145" stroke="#0030494C"/><path d="M100-162.5l88.5-188.2" stroke="#fcbf494C"/><path d="M100-162.5l-35.1 208.2" stroke="#d628284D"/><path d="M100-162.5l159.1-139.3" stroke="#d628284D"/><path d="M100-162.5l-202.1 62.7" stroke="#d628284D"/><path d="M100-162.5l171.1 133.8" stroke="#eae2b750"/><path d="M100-162.5l-165.3 146.3" stroke="#d6282852"/><path d="M100-162.5l220.7 6.5" stroke="#eae2b752"/><path d="M100-162.5l-24.2-219.8" stroke="#f77f0052"/><path d="M100-162.5l-187.4-117.8" stroke="#fcbf4952"/><path d="M100-162.5l116.4-190.6" stroke="#00304953"/><path d="M100-162.5l-123.7-186.2" stroke="#d6282853"/><path d="M100-162.5l113-194.6" stroke="#fcbf4954"/><path d="M100-162.5l-69.2-215" stroke="#eae2b755"/><path d="M100-162.5l-182.3 134.5" stroke="#00304955"/><path d="M100-162.5l219.5 56.2" stroke="#f77f0055"/><path d="M100-162.5l225.5 31.3" stroke="#f77f0056"/><path d="M100-162.5l-138.5-181" stroke="#eae2b756"/><path d="M100-162.5l76.7 216.7" stroke="#f77f0058"/><path d="M100-162.5l-161.8-165.1" stroke="#00304959"/><path d="M100-162.5l130.2 191.6" stroke="#0030495A"/><path d="M100-162.5l-156.6 170.6" stroke="#eae2b75A"/><path d="M100-162.5l-1.5-231.7" stroke="#0030495A"/><path d="M100-162.5l220.2 72.9" stroke="#d628285A"/><path d="M100-162.5l3.3-232.1" stroke="#eae2b75A"/><path d="M100-162.5l8-232.3" stroke="#eae2b75B"/><path d="M100-162.5l-183.9-142.8" stroke="#0030495B"/><path d="M100-162.5l13.7-232.8" stroke="#f77f005B"/><path d="M100-162.5l124.8 197.3" stroke="#d628285C"/><path d="M100-162.5l-33.8 231.5" stroke="#fcbf495D"/><path d="M100-162.5l208.6 106.8" stroke="#0030495D"/><path d="M100-162.5l-88.6 217.4" stroke="#f77f005E"/><path d="M100-162.5l-68.3 224.7" stroke="#eae2b75E"/><path d="M100-162.5l-85.9-219" stroke="#fcbf495F"/><path d="M100-162.5l128.6 197.3" stroke="#d628285F"/><path d="M100-162.5l233.3-32.9" stroke="#f77f0060"/><path d="M100-162.5l-222.8 76.9" stroke="#fcbf4960"/><path d="M100-162.5l24.8 234.6" stroke="#00304961"/><path d="M100-162.5l-233.6-33.2" stroke="#fcbf4961"/><path d="M100-162.5l110.3 208.7" stroke="#00304961"/><path d="M100-162.5l198.3-128" stroke="#fcbf4961"/><path d="M100-162.5l-84.4-220.5" stroke="#00304962"/><path d="M100-162.5l213.8 100.2" stroke="#00304962"/><path d="M100-162.5l-24.6-234.9" stroke="#d6282863"/><path d="M100-162.5l-188.9-141.9" stroke="#eae2b763"/><path d="M100-162.5l216.7-94.2" stroke="#eae2b763"/><path d="M100-162.5l167.9-166.2" stroke="#eae2b763"/><path d="M100-162.5l-70-225.6" stroke="#00304964"/><path d="M100-162.5l59.4-228.6" stroke="#fcbf4964"/><path d="M100-162.5l-219 88.4" stroke="#eae2b764"/><path d="M100-162.5l-216.3 94.6" stroke="#00304965"/><path d="M100-162.5l221.7-81.1" stroke="#f77f0065"/><path d="M100-162.5l9.1 235.9" stroke="#f77f0065"/><path d="M100-162.5l194.5 133.7" stroke="#fcbf4966"/><path d="M100-162.5l-7.7 235.6" stroke="#f77f0067"/><path d="M100-162.5l234 22.7" stroke="#d6282868"/><path d="M100-162.5l227.3 57.4" stroke="#eae2b76A"/><path d="M100-162.5l-185-143.7" stroke="#f77f006A"/><path d="M100-162.5l-5.3 234.1" stroke="#fcbf496A"/><path d="M100-162.5l-165-165.1" stroke="#0030496B"/><path d="M100-162.5l-100.4 210.7" stroke="#eae2b76B"/><path d="M100-162.5l-200.2-117.4" stroke="#eae2b76D"/><path d="M100-162.5l197.4-121.6" stroke="#d628286D"/><path d="M100-162.5l210-97.8" stroke="#f77f006D"/><path d="M100-162.5l16.4 230.2" stroke="#f77f006E"/><path d="M100-162.5l198.8-114.9" stroke="#d628286F"/><path d="M100-162.5l228.4 18.4" stroke="#00304970"/><path d="M100-162.5l-152.3-170.8" stroke="#fcbf4970"/><path d="M100-162.5l40.9 225.1" stroke="#eae2b770"/><path d="M100-162.5l148.3-174" stroke="#eae2b770"/><path d="M100-162.5l-148.2-172.7" stroke="#00304971"/><path d="M100-162.5l140.8 178.6" stroke="#f77f0071"/><path d="M100-162.5l149.7-170.7" stroke="#eae2b771"/><path d="M100-162.5l217.8-63.5" stroke="#00304971"/><path d="M100-162.5l62.3-215.4" stroke="#fcbf4973"/><path d="M100-162.5l104.7-197.9" stroke="#d6282873"/><path d="M100-162.5l221.8-29.6" stroke="#d6282874"/><path d="M100-162.5l101.2 198.8" stroke="#eae2b774"/><path d="M100-162.5l90.2 203.7" stroke="#00304974"/><path d="M100-162.5l56 214.6" stroke="#00304975"/><path d="M100-162.5l216.2 48.8" stroke="#f77f0075"/><path d="M100-162.5l-168 141.9" stroke="#00304976"/><path d="M100-162.5l-59.1-211.6" stroke="#00304976"/><path d="M100-162.5l-171.7 134" stroke="#fcbf4977"/><path d="M100-162.5l-213.3-35.6" stroke="#00304978"/><path d="M100-162.5l-106.2-187.6" stroke="#00304978"/><path d="M100-162.5l173.9-127.2" stroke="#00304978"/><path d="M100-162.5l-166.4 134.7" stroke="#eae2b779"/><path d="M100-162.5l-166.6 134.3" stroke="#00304979"/><path d="M100-162.5l69.2-196.4" stroke="#0030497B"/><path d="M100-162.5l-79.6 192.4" stroke="#0030497B"/><path d="M100-162.5l36.7-204.5" stroke="#fcbf497B"/><path d="M100-162.5l-76.6-191.8" stroke="#d628287C"/><path d="M100-162.5l-195.2-66.9" stroke="#f77f007C"/><path d="M100-162.5l-159.4 129.5" stroke="#fcbf497C"/><path d="M100-162.5l203.5 26.9" stroke="#eae2b77C"/><path d="M100-162.5l0-201.4" stroke="#0030497E"/><path d="M100-162.5l-199.3-15.4" stroke="#fcbf497E"/><path d="M100-162.5l197.7 10.7" stroke="#fcbf497F"/><path d="M100-162.5l-48.9 190.9" stroke="#0030497F"/><path d="M100-162.5l-180.2-75.4" stroke="#00304980"/><path d="M100-162.5l175.3-79.8" stroke="#eae2b780"/><path d="M100-162.5l-46.8 186.8" stroke="#eae2b780"/><path d="M100-162.5l74-176" stroke="#f77f0081"/><path d="M100-162.5l21.5-187.6" stroke="#d6282882"/><path d="M100-162.5l-83.6 168" stroke="#00304982"/><path d="M100-162.5l-99-155.1" stroke="#fcbf4983"/><path d="M100-162.5l180.5 0" stroke="#fcbf4984"/><path d="M100-162.5l105.4 141.3" stroke="#00304985"/><path d="M100-162.5l-40.5-168.4" stroke="#eae2b785"/><path d="M100-162.5l98.2 142.3" stroke="#d6282886"/><path d="M100-162.5l-168.1 16.7" stroke="#d6282886"/><path d="M100-162.5l-113.6 120.4" stroke="#fcbf4987"/><path d="M100-162.5l134.9 93.6" stroke="#eae2b787"/><path d="M100-162.5l81.8-142.3" stroke="#d6282887"/><path d="M100-162.5l159.5-20.6" stroke="#eae2b788"/><path d="M100-162.5l102.5-121.6" stroke="#00304988"/><path d="M100-162.5l137.2-79.9" stroke="#f77f0089"/><path d="M100-162.5l125.5-79.8" stroke="#fcbf498A"/><path d="M100-162.5l-16.4-144.4" stroke="#d628288B"/><path d="M100-162.5l42.5 137.7" stroke="#0030498B"/><path d="M100-162.5l-111.6-88.6" stroke="#0030498B"/><path d="M100-162.5l-138.9-7.9" stroke="#0030498C"/><path d="M100-162.5l75.5 111.7" stroke="#0030498D"/><path d="M100-162.5l119.1-57.4" stroke="#d628288D"/><path d="M100-162.5l63.8-113.2" stroke="#eae2b78D"/><path d="M100-162.5l-45.9-116.9" stroke="#fcbf498E"/><path d="M100-162.5l-55.8 102.8" stroke="#f77f008F"/><path d="M100-162.5l-108.4 40.2" stroke="#f77f008F"/><path d="M100-162.5l-105.2 38.3" stroke="#fcbf4990"/><path d="M100-162.5l71.7-84.6" stroke="#d6282890"/><path d="M100-162.5l-109.3 9" stroke="#fcbf4990"/><path d="M100-162.5l-67.5-86.4" stroke="#00304990"/><path d="M100-162.5l-5.3-101.9" stroke="#00304991"/><path d="M100-162.5l-56.1-57.1" stroke="#fcbf4993"/><path d="M100-162.5l-64.2 29.2" stroke="#eae2b793"/><path d="M100-162.5l-56.2 32.6" stroke="#eae2b794"/><path d="M100-162.5l4.6 50.9" stroke="#f77f0094"/><path d="M100-162.5l42 8.5" stroke="#eae2b795"/><path d="M100-162.5l-39.7 6.4" stroke="#f77f0095"/><path d="M100-162.5l12.4 14.7" stroke="#d6282895"/></g><g class="sparcs"><path d="M177.3-115.9a6.1 6.1 0 1 1 0-12.2 6.1 6.1 0 0 1 0 12.2" fill="#d6282881"/><path d="M101.2-63.4a6.1 6.1 0 1 1 0-12.3 6.1 6.1 0 0 1 0 12.3" fill="#fcbf4982"/><path d="M151.8-61.9a6.2 6.2 0 1 1 0-12.4 6.2 6.2 0 0 1 0 12.4" fill="#d6282884"/><path d="M156.7-61.9a6.2 6.2 0 1 1 0-12.5 6.2 6.2 0 0 1 0 12.5" fill="#f77f0084"/><path d="M63-266.7a6.3 6.3 0 1 1 0-12.6 6.3 6.3 0 0 1 0 12.6" fill="#d6282885"/><path d="M27.6-247.7a6.3 6.3 0 1 1 0-12.6 6.3 6.3 0 0 1 0 12.6" fill="#d6282885"/><path d="M201.9-219a6.3 6.3 0 1 1 0-12.6 6.3 6.3 0 0 1 0 12.6" fill="#eae2b785"/><path d="M92.3-283.8a6.4 6.4 0 1 1 0-12.8 6.4 6.4 0 0 1 0 12.8" fill="#d6282887"/><path d="M157.8-271.6a6.4 6.4 0 1 1 0-12.8 6.4 6.4 0 0 1 0 12.8" fill="#d6282887"/><path d="M-30.1-174.3a6.4 6.4 0 1 1 0-12.8 6.4 6.4 0 0 1 0 12.8" fill="#fcbf4987"/><path d="M183.1-54.2a6.4 6.4 0 1 1 0-12.8 6.4 6.4 0 0 1 0 12.8" fill="#eae2b788"/><path d="M131.1-24.3a6.4 6.4 0 1 1 0-12.8 6.4 6.4 0 0 1 0 12.8" fill="#d6282888"/><path d="M236.8-187.2a6.5 6.5 0 1 1 0-12.9 6.5 6.5 0 0 1 0 12.9" fill="#00304989"/><path d="M-40.4-163.3a6.5 6.5 0 1 1 0-12.9 6.5 6.5 0 0 1 0 12.9" fill="#eae2b789"/><path d="M25.5-36.2a6.5 6.5 0 1 1 0-13 6.5 6.5 0 0 1 0 13" fill="#f77f0089"/><path d="M173.9-34.8a6.5 6.5 0 1 1 0-13 6.5 6.5 0 0 1 0 13" fill="#0030498A"/><path d="M84.8-14.1a6.5 6.5 0 1 1 0-13 6.5 6.5 0 0 1 0 13" fill="#eae2b78A"/><path d="M198.8-51.5a6.5 6.5 0 1 1 0-13.1 6.5 6.5 0 0 1 0 13.1" fill="#d628288A"/><path d="M250.7-212.4a6.7 6.7 0 1 1 0-13.4 6.7 6.7 0 0 1 0 13.4" fill="#fcbf498E"/><path d="M263.8-144.3a6.7 6.7 0 1 1 0-13.5 6.7 6.7 0 0 1 0 13.5" fill="#0030498F"/><path d="M184.1-13.2a6.8 6.8 0 1 1 0-13.5 6.8 6.8 0 0 1 0 13.5" fill="#d628288F"/><path d="M231.8-48a6.8 6.8 0 1 1 0-13.6 6.8 6.8 0 0 1 0 13.6" fill="#f77f0090"/><path d="M-72.5-109.4a6.9 6.9 0 1 1 0-13.8 6.9 6.9 0 0 1 0 13.8" fill="#f77f0093"/><path d="M141.2-332.5a7 7 0 1 1 0-13.9 7 7 0 0 1 0 13.9" fill="#fcbf4994"/><path d="M205.6-304.3a7 7 0 1 1 0-13.9 7 7 0 0 1 0 13.9" fill="#d6282894"/><path d="M-84.8-146.2a7 7 0 1 1 0-14 7 7 0 0 1 0 14" fill="#eae2b795"/><path d="M-19.5-12.1a7 7 0 1 1 0-14 7 7 0 0 1 0 14" fill="#eae2b796"/><path d="M-23.9-295.6a7.1 7.1 0 1 1 0-14.1 7.1 7.1 0 0 1 0 14.1" fill="#d6282896"/><path d="M32.7-332.2a7.1 7.1 0 1 1 0-14.1 7.1 7.1 0 0 1 0 14.1" fill="#f77f0097"/><path d="M-50.1-35a7.1 7.1 0 1 1 0-14.3 7.1 7.1 0 0 1 0 14.3" fill="#00304998"/><path d="M-67.7-59a7.2 7.2 0 1 1 0-14.4 7.2 7.2 0 0 1 0 14.4" fill="#fcbf4998"/><path d="M271.9-247.2a7.2 7.2 0 1 1 0-14.4 7.2 7.2 0 0 1 0 14.4" fill="#f77f0099"/><path d="M292.8-195.2a7.2 7.2 0 1 1 0-14.4 7.2 7.2 0 0 1 0 14.4" fill="#eae2b79A"/><path d="M259.3-36.2a7.3 7.3 0 1 1 0-14.5 7.3 7.3 0 0 1 0 14.5" fill="#f77f009A"/><path d="M287.2-226.8a7.3 7.3 0 1 1 0-14.6 7.3 7.3 0 0 1 0 14.6" fill="#d628289B"/><path d="M-44.4-296.3a7.3 7.3 0 1 1 0-14.6 7.3 7.3 0 0 1 0 14.6" fill="#fcbf499C"/><path d="M81.5 47.2a7.4 7.4 0 1 1 0-14.7 7.4 7.4 0 0 1 0 14.7" fill="#0030499C"/><path d="M20.9-343.4a7.4 7.4 0 1 1 0-14.8 7.4 7.4 0 0 1 0 14.8" fill="#fcbf499D"/><path d="M-58.2-24.8a7.4 7.4 0 1 1 0-14.8 7.4 7.4 0 0 1 0 14.8" fill="#eae2b79D"/><path d="M-11-329.7a7.4 7.4 0 1 1 0-14.9 7.4 7.4 0 0 1 0 14.9" fill="#fcbf499E"/><path d="M249-10a7.5 7.5 0 1 1 0-14.9 7.5 7.5 0 0 1 0 14.9" fill="#eae2b79F"/><path d="M188.5-343.2a7.5 7.5 0 1 1 0-14.9 7.5 7.5 0 0 1 0 14.9" fill="#fcbf499F"/><path d="M64.9 53.2a7.5 7.5 0 1 1 0-15.1 7.5 7.5 0 0 1 0 15.1" fill="#d62828A0"/><path d="M259.1-294.3a7.5 7.5 0 1 1 0-15.1 7.5 7.5 0 0 1 0 15.1" fill="#eae2b7A1"/><path d="M-102.1-92.3a7.5 7.5 0 1 1 0-15 7.5 7.5 0 0 1 0 15" fill="#f77f00A1"/><path d="M271.1-21a7.7 7.7 0 1 1 0-15.4 7.7 7.7 0 0 1 0 15.4" fill="#fcbf49A4"/><path d="M-65.3-8.4a7.8 7.8 0 1 1 0-15.6 7.8 7.8 0 0 1 0 15.6" fill="#d62828A6"/><path d="M320.7-148.2a7.8 7.8 0 1 1 0-15.6 7.8 7.8 0 0 1 0 15.6" fill="#eae2b7A6"/><path d="M75.8-374.5a7.8 7.8 0 1 1 0-15.6 7.8 7.8 0 0 1 0 15.6" fill="#fcbf49A7"/><path d="M-87.4-272.4a7.8 7.8 0 1 1 0-15.7 7.8 7.8 0 0 1 0 15.7" fill="#fcbf49A7"/><path d="M216.4-345.2a7.9 7.9 0 1 1 0-15.8 7.9 7.9 0 0 1 0 15.8" fill="#eae2b7A8"/><path d="M-23.7-340.8a7.9 7.9 0 1 1 0-15.8 7.9 7.9 0 0 1 0 15.8" fill="#fcbf49A8"/><path d="M213-349.2a8 8 0 1 1 0-15.9 8 8 0 0 1 0 15.9" fill="#f77f00AA"/><path d="M30.8-369.5a8 8 0 1 1 0-16 8 8 0 0 1 0 16" fill="#fcbf49AA"/><path d="M-82.3-20a8 8 0 1 1 0-16 8 8 0 0 1 0 16" fill="#f77f00AB"/><path d="M319.5-98.2a8 8 0 1 1 0-16.1 8 8 0 0 1 0 16.1" fill="#d62828AB"/><path d="M325.5-123.1a8.1 8.1 0 1 1 0-16.2 8.1 8.1 0 0 1 0 16.2" fill="#f77f00AC"/><path d="M-38.5-335.4a8.1 8.1 0 1 1 0-16.2 8.1 8.1 0 0 1 0 16.2" fill="#fcbf49AC"/><path d="M176.7 62.3a8.2 8.2 0 1 1 0-16.3 8.2 8.2 0 0 1 0 16.3" fill="#fcbf49AE"/><path d="M-61.8-319.4a8.3 8.3 0 1 1 0-16.5 8.3 8.3 0 0 1 0 16.5" fill="#003049B0"/><path d="M230.2 37.3a8.3 8.3 0 1 1 0-16.5 8.3 8.3 0 0 1 0 16.5" fill="#fcbf49B1"/><path d="M-56.6 16.4a8.3 8.3 0 1 1 0-16.5 8.3 8.3 0 0 1 0 16.5" fill="#fcbf49B1"/><path d="M98.5-385.9a8.3 8.3 0 1 1 0-16.5 8.3 8.3 0 0 1 0 16.5" fill="#003049B1"/><path d="M320.2-81.3a8.3 8.3 0 1 1 0-16.6 8.3 8.3 0 0 1 0 16.6" fill="#d62828B1"/><path d="M103.3-386.3a8.3 8.3 0 1 1 0-16.6 8.3 8.3 0 0 1 0 16.6" fill="#fcbf49B1"/><path d="M108-386.5a8.3 8.3 0 1 1 0-16.7 8.3 8.3 0 0 1 0 16.7" fill="#fcbf49B2"/><path d="M-83.9-297a8.4 8.4 0 1 1 0-16.7 8.4 8.4 0 0 1 0 16.7" fill="#fcbf49B2"/><path d="M113.7-386.9a8.4 8.4 0 1 1 0-16.8 8.4 8.4 0 0 1 0 16.8" fill="#003049B3"/><path d="M224.8 43.2a8.4 8.4 0 1 1 0-16.8 8.4 8.4 0 0 1 0 16.8" fill="#003049B4"/><path d="M66.2 77.5a8.5 8.5 0 1 1 0-16.9 8.5 8.5 0 0 1 0 16.9" fill="#f77f00B5"/><path d="M308.6-47.3a8.5 8.5 0 1 1 0-16.9 8.5 8.5 0 0 1 0 16.9" fill="#003049B5"/><path d="M11.4 63.4a8.5 8.5 0 1 1 0-17 8.5 8.5 0 0 1 0 17" fill="#eae2b7B6"/><path d="M31.7 70.7a8.5 8.5 0 1 1 0-17 8.5 8.5 0 0 1 0 17" fill="#eae2b7B6"/><path d="M14.1-372.9a8.6 8.6 0 1 1 0-17.2 8.6 8.6 0 0 1 0 17.2" fill="#eae2b7B7"/><path d="M228.6 43.4a8.6 8.6 0 1 1 0-17.2 8.6 8.6 0 0 1 0 17.2" fill="#f77f00B8"/><path d="M333.3-186.7a8.6 8.6 0 1 1 0-17.3 8.6 8.6 0 0 1 0 17.3" fill="#eae2b7B9"/><path d="M-122.8-77a8.7 8.7 0 1 1 0-17.3 8.7 8.7 0 0 1 0 17.3" fill="#eae2b7B9"/><path d="M124.8 80.8a8.7 8.7 0 1 1 0-17.4 8.7 8.7 0 0 1 0 17.4" fill="#f77f00BA"/><path d="M-133.6-187a8.7 8.7 0 1 1 0-17.4 8.7 8.7 0 0 1 0 17.4" fill="#003049BA"/><path d="M210.3 54.9a8.7 8.7 0 1 1 0-17.5 8.7 8.7 0 0 1 0 17.5" fill="#f77f00BB"/><path d="M298.3-281.8a8.7 8.7 0 1 1 0-17.4 8.7 8.7 0 0 1 0 17.4" fill="#d62828BB"/><path d="M15.6-374.2a8.7 8.7 0 1 1 0-17.5 8.7 8.7 0 0 1 0 17.5" fill="#f77f00BB"/><path d="M313.8-53.6a8.8 8.8 0 1 1 0-17.5 8.8 8.8 0 0 1 0 17.5" fill="#f77f00BB"/><path d="M75.4-388.6a8.8 8.8 0 1 1 0-17.6 8.8 8.8 0 0 1 0 17.6" fill="#f77f00BC"/><path d="M-88.9-295.6a8.8 8.8 0 1 1 0-17.6 8.8 8.8 0 0 1 0 17.6" fill="#fcbf49BC"/><path d="M316.7-247.8a8.8 8.8 0 1 1 0-17.7 8.8 8.8 0 0 1 0 17.7" fill="#fcbf49BD"/><path d="M267.9-319.9a8.8 8.8 0 1 1 0-17.7 8.8 8.8 0 0 1 0 17.7" fill="#eae2b7BD"/><path d="M30-379.3a8.9 8.9 0 1 1 0-17.7 8.9 8.9 0 0 1 0 17.7" fill="#eae2b7BE"/><path d="M159.4-382.3a8.9 8.9 0 1 1 0-17.7 8.9 8.9 0 0 1 0 17.7" fill="#eae2b7BE"/><path d="M-119-65.2a8.9 8.9 0 1 1 0-17.8 8.9 8.9 0 0 1 0 17.8" fill="#d62828BF"/><path d="M-116.3-59a9 9 0 1 1 0-17.9 9 9 0 0 1 0 17.9" fill="#eae2b7C0"/><path d="M321.7-234.6a9 9 0 1 1 0-17.9 9 9 0 0 1 0 17.9" fill="#f77f00C0"/><path d="M109.1 82.4a9 9 0 1 1 0-18 9 9 0 0 1 0 18" fill="#003049C0"/><path d="M294.5-19.8a9 9 0 1 1 0-18 9 9 0 0 1 0 18" fill="#d62828C0"/><path d="M92.3 82.1a9.1 9.1 0 1 1 0-18.1 9.1 9.1 0 0 1 0 18.1" fill="#fcbf49C2"/><path d="M334-130.7a9.1 9.1 0 1 1 0-18.3 9.1 9.1 0 0 1 0 18.3" fill="#003049C4"/><path d="M327.3-95.9a9.2 9.2 0 1 1 0-18.4 9.2 9.2 0 0 1 0 18.4" fill="#003049C5"/><path d="M-85-297a9.2 9.2 0 1 1 0-18.4 9.2 9.2 0 0 1 0 18.4" fill="#eae2b7C6"/><path d="M94.7 80.9a9.2 9.2 0 1 1 0-18.5 9.2 9.2 0 0 1 0 18.5" fill="#003049C6"/><path d="M-65-318.3a9.3 9.3 0 1 1 0-18.7 9.3 9.3 0 0 1 0 18.7" fill="#d62828C8"/><path d="M-0.4 57.5a9.3 9.3 0 1 1 0-18.6 9.3 9.3 0 0 1 0 18.6" fill="#f77f00C8"/><path d="M-100.2-270.5a9.4 9.4 0 1 1 0-18.8 9.4 9.4 0 0 1 0 18.8" fill="#f77f00CA"/><path d="M297.4-274.6a9.4 9.4 0 1 1 0-18.9 9.4 9.4 0 0 1 0 18.9" fill="#f77f00CA"/><path d="M310-250.8a9.4 9.4 0 1 1 0-18.9 9.4 9.4 0 0 1 0 18.9" fill="#fcbf49CA"/><path d="M116.4 77.2a9.5 9.5 0 1 1 0-19 9.5 9.5 0 0 1 0 19" fill="#003049CB"/><path d="M298.8-267.8a9.6 9.6 0 1 1 0-19.2 9.6 9.6 0 0 1 0 19.2" fill="#fcbf49CD"/><path d="M328.4-134.5a9.6 9.6 0 1 1 0-19.2 9.6 9.6 0 0 1 0 19.2" fill="#f77f00CD"/><path d="M-52.3-323.7a9.6 9.6 0 1 1 0-19.2 9.6 9.6 0 0 1 0 19.2" fill="#f77f00CE"/><path d="M140.9 72.2a9.6 9.6 0 1 1 0-19.2 9.6 9.6 0 0 1 0 19.2" fill="#eae2b7CE"/><path d="M248.3-326.9a9.6 9.6 0 1 1 0-19.2 9.6 9.6 0 0 1 0 19.2" fill="#eae2b7CE"/><path d="M-48.2-325.6a9.7 9.7 0 1 1 0-19.3 9.7 9.7 0 0 1 0 19.3" fill="#003049CF"/><path d="M240.8 25.8a9.7 9.7 0 1 1 0-19.3 9.7 9.7 0 0 1 0 19.3" fill="#d62828CF"/><path d="M249.7-323.5a9.7 9.7 0 1 1 0-19.4 9.7 9.7 0 0 1 0 19.4" fill="#d62828CF"/><path d="M317.8-216.3a9.7 9.7 0 1 1 0-19.4 9.7 9.7 0 0 1 0 19.4" fill="#003049D0"/><path d="M162.3-368.1a9.8 9.8 0 1 1 0-19.6 9.8 9.8 0 0 1 0 19.6" fill="#fcbf49D2"/><path d="M204.7-350.6a9.8 9.8 0 1 1 0-19.6 9.8 9.8 0 0 1 0 19.6" fill="#fcbf49D2"/><path d="M321.8-182.3a9.8 9.8 0 1 1 0-19.7 9.8 9.8 0 0 1 0 19.7" fill="#eae2b7D2"/><path d="M201.2 46.2a9.8 9.8 0 1 1 0-19.7 9.8 9.8 0 0 1 0 19.7" fill="#d62828D3"/><path d="M190.2 51.1a9.8 9.8 0 1 1 0-19.7 9.8 9.8 0 0 1 0 19.7" fill="#003049D3"/><path d="M156 62a9.9 9.9 0 1 1 0-19.8 9.9 9.9 0 0 1 0 19.8" fill="#f77f00D4"/><path d="M316.2-103.8a9.9 9.9 0 1 1 0-19.7 9.9 9.9 0 0 1 0 19.7" fill="#eae2b7D4"/><path d="M-68-10.7a9.9 9.9 0 1 1 0-19.9 9.9 9.9 0 0 1 0 19.9" fill="#d62828D5"/><path d="M40.9-364.2a9.9 9.9 0 1 1 0-19.9 9.9 9.9 0 0 1 0 19.9" fill="#eae2b7D5"/><path d="M-71.7-18.5a10 10 0 1 1 0-20 10 10 0 0 1 0 20" fill="#fcbf49D7"/><path d="M-113.3-188a10 10 0 1 1 0-20.1 10 10 0 0 1 0 20.1" fill="#d62828D8"/><path d="M-6.2-340.1a10.1 10.1 0 1 1 0-20.1 10.1 10.1 0 0 1 0 20.1" fill="#fcbf49D8"/><path d="M273.9-279.6a10.1 10.1 0 1 1 0-20.2 10.1 10.1 0 0 1 0 20.2" fill="#f77f00D8"/><path d="M-66.4-17.7a10.1 10.1 0 1 1 0-20.2 10.1 10.1 0 0 1 0 20.2" fill="#d62828D9"/><path d="M-66.6-18a10.1 10.1 0 1 1 0-20.3 10.1 10.1 0 0 1 0 20.3" fill="#eae2b7D9"/><path d="M169.2-348.6a10.3 10.3 0 1 1 0-20.5 10.3 10.3 0 0 1 0 20.5" fill="#eae2b7DC"/><path d="M20.4 40.1a10.3 10.3 0 1 1 0-20.5 10.3 10.3 0 0 1 0 20.5" fill="#f77f00DC"/><path d="M136.7-356.7a10.3 10.3 0 1 1 0-20.6 10.3 10.3 0 0 1 0 20.6" fill="#003049DC"/><path d="M23.4-344a10.3 10.3 0 1 1 0-20.6 10.3 10.3 0 0 1 0 20.6" fill="#f77f00DD"/><path d="M-95.2-219.1a10.3 10.3 0 1 1 0-20.6 10.3 10.3 0 0 1 0 20.6" fill="#003049DD"/><path d="M-59.4-22.6a10.3 10.3 0 1 1 0-20.7 10.3 10.3 0 0 1 0 20.7" fill="#eae2b7DE"/><path d="M303.5-125.3a10.3 10.3 0 1 1 0-20.6 10.3 10.3 0 0 1 0 20.6" fill="#fcbf49DE"/><path d="M100-353.5a10.4 10.4 0 1 1 0-20.8 10.4 10.4 0 0 1 0 20.8" fill="#003049DF"/><path d="M-99.3-167.5a10.4 10.4 0 1 1 0-20.8 10.4 10.4 0 0 1 0 20.8" fill="#f77f00E0"/><path d="M297.7-141.3a10.5 10.5 0 1 1 0-21 10.5 10.5 0 0 1 0 21" fill="#f77f00E1"/><path d="M51.1 38.9a10.5 10.5 0 1 1 0-21 10.5 10.5 0 0 1 0 21" fill="#d62828E1"/><path d="M-80.2-227.3a10.5 10.5 0 1 1 0-21.1 10.5 10.5 0 0 1 0 21.1" fill="#d62828E2"/><path d="M275.3-231.7a10.6 10.6 0 1 1 0-21.2 10.6 10.6 0 0 1 0 21.2" fill="#003049E3"/><path d="M53.2 34.9a10.6 10.6 0 1 1 0-21.2 10.6 10.6 0 0 1 0 21.2" fill="#d62828E3"/><path d="M174-327.9a10.6 10.6 0 1 1 0-21.2 10.6 10.6 0 0 1 0 21.2" fill="#f77f00E4"/><path d="M121.5-339.4a10.6 10.6 0 1 1 0-21.3 10.6 10.6 0 0 1 0 21.3" fill="#fcbf49E5"/><path d="M16.4 16.1a10.7 10.7 0 1 1 0-21.3 10.7 10.7 0 0 1 0 21.3" fill="#fcbf49E5"/><path d="M1-306.9a10.7 10.7 0 1 1 0-21.5 10.7 10.7 0 0 1 0 21.5" fill="#f77f00E6"/><path d="M280.5-151.7a10.8 10.8 0 1 1 0-21.6 10.8 10.8 0 0 1 0 21.6" fill="#d62828E7"/><path d="M205.4-10.3a10.8 10.8 0 1 1 0-21.7 10.8 10.8 0 0 1 0 21.7" fill="#fcbf49E9"/><path d="M59.5-320.1a10.9 10.9 0 1 1 0-21.7 10.9 10.9 0 0 1 0 21.7" fill="#fcbf49EA"/><path d="M198.2-9.3a10.9 10.9 0 1 1 0-21.8 10.9 10.9 0 0 1 0 21.8" fill="#fcbf49EA"/><path d="M-68.1-134.8a10.9 10.9 0 1 1 0-21.9 10.9 10.9 0 0 1 0 21.9" fill="#eae2b7EB"/><path d="M-13.6-31.1a11 11 0 1 1 0-22 11 11 0 0 1 0 22" fill="#f77f00EC"/><path d="M234.9-57.9a11 11 0 1 1 0-22 11 11 0 0 1 0 22" fill="#003049EC"/><path d="M181.8-293.8a11 11 0 1 1 0-22 11 11 0 0 1 0 22" fill="#fcbf49EC"/><path d="M259.5-172.1a11 11 0 1 1 0-22 11 11 0 0 1 0 22" fill="#eae2b7ED"/><path d="M202.5-273a11 11 0 1 1 0-22.1 11 11 0 0 1 0 22.1" fill="#f77f00EE"/><path d="M237.2-231.4a11 11 0 1 1 0-22.1 11 11 0 0 1 0 22.1" fill="#fcbf49EE"/><path d="M225.5-231.1a11.2 11.2 0 1 1 0-22.3 11.2 11.2 0 0 1 0 22.3" fill="#f77f00F0"/><path d="M83.6-295.7a11.2 11.2 0 1 1 0-22.4 11.2 11.2 0 0 1 0 22.4" fill="#003049F1"/><path d="M142.5-13.6a11.2 11.2 0 1 1 0-22.4 11.2 11.2 0 0 1 0 22.4" fill="#eae2b7F1"/><path d="M-11.6-239.9a11.2 11.2 0 1 1 0-22.4 11.2 11.2 0 0 1 0 22.4" fill="#f77f00F1"/><path d="M-38.9-159.2a11.2 11.2 0 1 1 0-22.5 11.2 11.2 0 0 1 0 22.5" fill="#eae2b7F2"/><path d="M175.5-39.5a11.3 11.3 0 1 1 0-22.5 11.3 11.3 0 0 1 0 22.5" fill="#eae2b7F3"/><path d="M219.1-208.6a11.3 11.3 0 1 1 0-22.6 11.3 11.3 0 0 1 0 22.6" fill="#f77f00F3"/><path d="M163.8-264.4a11.3 11.3 0 1 1 0-22.6 11.3 11.3 0 0 1 0 22.6" fill="#fcbf49F4"/><path d="M54.1-268a11.4 11.4 0 1 1 0-22.7 11.4 11.4 0 0 1 0 22.7" fill="#eae2b7F5"/><path d="M44.2-48.2a11.4 11.4 0 1 1 0-22.9 11.4 11.4 0 0 1 0 22.9" fill="#d62828F6"/><path d="M-8.4-110.8a11.4 11.4 0 1 1 0-22.9 11.4 11.4 0 0 1 0 22.9" fill="#f77f00F6"/><path d="M-5.2-112.8a11.5 11.5 0 1 1 0-22.9 11.5 11.5 0 0 1 0 22.9" fill="#f77f00F7"/><path d="M171.7-235.6a11.5 11.5 0 1 1 0-23 11.5 11.5 0 0 1 0 23" fill="#d62828F7"/><path d="M-9.3-142a11.5 11.5 0 1 1 0-22.9 11.5 11.5 0 0 1 0 22.9" fill="#fcbf49F7"/><path d="M32.5-237.4a11.5 11.5 0 1 1 0-23 11.5 11.5 0 0 1 0 23" fill="#f77f00F7"/><path d="M94.7-252.9a11.5 11.5 0 1 1 0-23 11.5 11.5 0 0 1 0 23" fill="#f77f00F8"/><path d="M43.9-208a11.6 11.6 0 1 1 0-23.2 11.6 11.6 0 0 1 0 23.2" fill="#eae2b7FB"/><path d="M35.8-121.7a11.7 11.7 0 1 1 0-23.3 11.7 11.7 0 0 1 0 23.3" fill="#fcbf49FC"/><path d="M43.8-118.2a11.7 11.7 0 1 1 0-23.4 11.7 11.7 0 0 1 0 23.4" fill="#d62828FC"/><path d="M104.6-99.8a11.7 11.7 0 1 1 0-23.5 11.7 11.7 0 0 1 0 23.5" fill="#f77f00FD"/><path d="M142-142.2a11.8 11.8 0 1 1 0-23.6 11.8 11.8 0 0 1 0 23.6" fill="#d62828FD"/><path d="M60.3-144.3a11.8 11.8 0 1 1 0-23.6 11.8 11.8 0 0 1 0 23.6" fill="#003049FE"/><path d="M112.4-136a11.8 11.8 0 1 1 0-23.6 11.8 11.8 0 0 1 0 23.6" fill="#003049FE"/></g></svg>