<svg width="1200" height="675" viewBox="-500 -500 1200 675" xmlns="http://www.w3.org/2000/svg"><path d="M-500-500h1200v675h-1200z" fill="#000"/><style>.sparkles path{stroke-linecap:round; stroke-width:1}</style><g class="sparkles"><path d="M100-162.5l-8.6-2.5" stroke="#c2e1ff32"/><path d="M100-162.5l4.4 8.1" stroke="#fff50032"/><path d="M100-162.5l-34.4 2.6" stroke="#c2e1ff32"/><path d="M100-162.5l24.9 58.8" stroke="#fff50033"/><path d="M100-162.5l28.7 58.9" stroke="#005bbb33"/><path d="M100-162.5l-12.5-82.2" stroke="#005bbb35"/><path d="M100-162.5l-57.7-67.2" stroke="#fff35"/><path d="M100-162.5l-75.4-47.3" stroke="#fff35"/><path d="M100-162.5l7.9 89.9" stroke="#005bbb35"/><path d="M100-162.5l-36.7-85.5" stroke="#005bbb36"/><path d="M100-162.5l-82.3 46.2" stroke="#fff36"/><path d="M100-162.5l31.6-89.1" stroke="#fff50036"/><path d="M100-162.5l101.1-8.4" stroke="#c2e1ff36"/><path d="M100-162.5l52.3 88.8" stroke="#fff37"/><path d="M100-162.5l-106-32.4" stroke="#c2e1ff37"/><path d="M100-162.5l-114.8 14.1" stroke="#c2e1ff38"/><path d="M100-162.5l13.9 121.2" stroke="#fff39"/><path d="M100-162.5l120.1 27.8" stroke="#c2e1ff39"/><path d="M100-162.5l94.9-108.2" stroke="#fff3C"/><path d="M100-162.5l-138.1 71.2" stroke="#005bbb3E"/><path d="M100-162.5l149.1 48.2" stroke="#fff3E"/><path d="M100-162.5l157.2 13" stroke="#005bbb3E"/><path d="M100-162.5l153.1-45.6" stroke="#fff3F"/><path d="M100-162.5l5.6-159.9" stroke="#fff3F"/><path d="M100-162.5l148-70.5" stroke="#fff5003F"/><path d="M100-162.5l146.3 74.7" stroke="#005bbb40"/><path d="M100-162.5l-145.2 77.5" stroke="#fff40"/><path d="M100-162.5l119.6-123.7" stroke="#fff41"/><path d="M100-162.5l151.1-86.7" stroke="#fff50042"/><path d="M100-162.5l-171.7-32.2" stroke="#005bbb42"/><path d="M100-162.5l-95.4 152.6" stroke="#fff50043"/><path d="M100-162.5l-170.8-58.4" stroke="#fff43"/><path d="M100-162.5l-110.6 143" stroke="#fff43"/><path d="M100-162.5l72.3 171.9" stroke="#fff50045"/><path d="M100-162.5l-164.3-88.8" stroke="#c2e1ff45"/><path d="M100-162.5l86.3-167.6" stroke="#c2e1ff45"/><path d="M100-162.5l31.7-186" stroke="#fff50045"/><path d="M100-162.5l-171.5-80.2" stroke="#005bbb46"/><path d="M100-162.5l108.9 156.6" stroke="#005bbb46"/><path d="M100-162.5l146.6-125.2" stroke="#fff50047"/><path d="M100-162.5l38.8-194.6" stroke="#fff50048"/><path d="M100-162.5l54-193.9" stroke="#c2e1ff49"/><path d="M100-162.5l155.4-129.4" stroke="#fff5004A"/><path d="M100-162.5l126.5 158.5" stroke="#fff5004A"/><path d="M100-162.5l145.2 142.7" stroke="#fff5004A"/><path d="M100-162.5l198.5 48.6" stroke="#fff4A"/><path d="M100-162.5l81.9 189.4" stroke="#005bbb4B"/><path d="M100-162.5l87.5-188.4" stroke="#005bbb4C"/><path d="M100-162.5l-208.3 6.1" stroke="#fff5004C"/><path d="M100-162.5l194.5-75.1" stroke="#fff5004C"/><path d="M100-162.5l-84 192.9" stroke="#fff5004D"/><path d="M100-162.5l21.7-210.7" stroke="#c2e1ff4D"/><path d="M100-162.5l-212.5-5.2" stroke="#fff5004E"/><path d="M100-162.5l204.6 57.8" stroke="#fff4E"/><path d="M100-162.5l170.7-128.1" stroke="#005bbb4E"/><path d="M100-162.5l156.4 147.5" stroke="#005bbb4F"/><path d="M100-162.5l-184.5 110.4" stroke="#c2e1ff4F"/><path d="M100-162.5l-182.6-114.4" stroke="#fff5004F"/><path d="M100-162.5l85.9-198" stroke="#005bbb4F"/><path d="M100-162.5l-216.7-13.8" stroke="#fff50"/><path d="M100-162.5l-219.5-14.9" stroke="#c2e1ff51"/><path d="M100-162.5l-203.5-84.4" stroke="#005bbb51"/><path d="M100-162.5l27.4-219.2" stroke="#fff52"/><path d="M100-162.5l-216.3-51" stroke="#c2e1ff53"/><path d="M100-162.5l-29 220.6" stroke="#c2e1ff53"/><path d="M100-162.5l-18.2-222.3" stroke="#fff53"/><path d="M100-162.5l70.4 212.4" stroke="#fff53"/><path d="M100-162.5l224.1-1.5" stroke="#c2e1ff54"/><path d="M100-162.5l219.5-46" stroke="#fff54"/><path d="M100-162.5l-210.6 80.2" stroke="#fff55"/><path d="M100-162.5l215.5 68.5" stroke="#c2e1ff55"/><path d="M100-162.5l-208.7-87" stroke="#fff55"/><path d="M100-162.5l156.3-166.3" stroke="#fff57"/><path d="M100-162.5l-74.3 215.9" stroke="#fff57"/><path d="M100-162.5l197.4 115.1" stroke="#fff50057"/><path d="M100-162.5l230.2 0" stroke="#005bbb58"/><path d="M100-162.5l-224.3-57.8" stroke="#fff5005A"/><path d="M100-162.5l-208.1-103.4" stroke="#c2e1ff5A"/><path d="M100-162.5l-178.6 148.7" stroke="#fff5005B"/><path d="M100-162.5l-231.5 23.8" stroke="#c2e1ff5B"/><path d="M100-162.5l118.7 201" stroke="#005bbb5C"/><path d="M100-162.5l-228.5 48.3" stroke="#fff5C"/><path d="M100-162.5l199.5-122" stroke="#005bbb5C"/><path d="M100-162.5l-64.5-224.9" stroke="#fff5D"/><path d="M100-162.5l-56.2-227.7" stroke="#fff5D"/><path d="M100-162.5l137-190.4" stroke="#005bbb5E"/><path d="M100-162.5l-50.7-229.1" stroke="#c2e1ff5E"/><path d="M100-162.5l-235.1-11.3" stroke="#c2e1ff5F"/><path d="M100-162.5l77.6 222.4" stroke="#fff60"/><path d="M100-162.5l-135.6 193" stroke="#fff50061"/><path d="M100-162.5l218.6 88.7" stroke="#c2e1ff61"/><path d="M100-162.5l200.4-124.5" stroke="#c2e1ff61"/><path d="M100-162.5l145.3 186.1" stroke="#005bbb62"/><path d="M100-162.5l-114.9-206.3" stroke="#c2e1ff62"/><path d="M100-162.5l229.3 56.6" stroke="#005bbb62"/><path d="M100-162.5l-13.3 235.9" stroke="#fff63"/><path d="M100-162.5l-236.2 2" stroke="#fff63"/><path d="M100-162.5l-87 219.6" stroke="#fff50064"/><path d="M100-162.5l204.4 118.5" stroke="#c2e1ff64"/><path d="M100-162.5l-60.6-228.3" stroke="#005bbb64"/><path d="M100-162.5l-236 10.8" stroke="#c2e1ff65"/><path d="M100-162.5l231.1-48.5" stroke="#fff50065"/><path d="M100-162.5l210.4 107.1" stroke="#005bbb65"/><path d="M100-162.5l58.8 228.6" stroke="#c2e1ff66"/><path d="M100-162.5l198.9 127" stroke="#005bbb66"/><path d="M100-162.5l-231.4 44.6" stroke="#c2e1ff67"/><path d="M100-162.5l-182.7 148.8" stroke="#fff67"/><path d="M100-162.5l-34.6 233" stroke="#005bbb67"/><path d="M100-162.5l97.8-214" stroke="#fff50068"/><path d="M100-162.5l-140.3-188.7" stroke="#fff50068"/><path d="M100-162.5l169.2-163.1" stroke="#fff69"/><path d="M100-162.5l199.1 123.8" stroke="#005bbb6A"/><path d="M100-162.5l52.5-228" stroke="#005bbb6A"/><path d="M100-162.5l-185-142.5" stroke="#fff5006B"/><path d="M100-162.5l-133.7 190" stroke="#c2e1ff6D"/><path d="M100-162.5l144.3-180.9" stroke="#c2e1ff6E"/><path d="M100-162.5l-189.4-132.7" stroke="#fff6E"/><path d="M100-162.5l47.8-226" stroke="#fff6E"/><path d="M100-162.5l-6.9-229.5" stroke="#005bbb6F"/><path d="M100-162.5l41.2-225.9" stroke="#fff6F"/><path d="M100-162.5l-191.4 126.4" stroke="#fff6F"/><path d="M100-162.5l154 169.6" stroke="#fff50070"/><path d="M100-162.5l-181.4-139.4" stroke="#c2e1ff70"/><path d="M100-162.5l154.8 168.3" stroke="#fff70"/><path d="M100-162.5l-154.2-168.7" stroke="#005bbb70"/><path d="M100-162.5l221.5-56.3" stroke="#c2e1ff70"/><path d="M100-162.5l-120.1 194" stroke="#fff71"/><path d="M100-162.5l-124.9-190.8" stroke="#c2e1ff71"/><path d="M100-162.5l-215.8 73.6" stroke="#fff71"/><path d="M100-162.5l-214.1 77.4" stroke="#fff71"/><path d="M100-162.5l184.2-133.4" stroke="#005bbb71"/><path d="M100-162.5l93.2 204.9" stroke="#005bbb73"/><path d="M100-162.5l214-68.3" stroke="#c2e1ff73"/><path d="M100-162.5l-220.5-33.1" stroke="#005bbb74"/><path d="M100-162.5l-106.3 194.9" stroke="#c2e1ff75"/><path d="M100-162.5l-106.2 194.6" stroke="#fff50075"/><path d="M100-162.5l-212.1-56.7" stroke="#fff50076"/><path d="M100-162.5l-203.1-82" stroke="#005bbb76"/><path d="M100-162.5l-212.9 44.8" stroke="#fff77"/><path d="M100-162.5l196.7-91.3" stroke="#fff50077"/><path d="M100-162.5l-51.5-209.2" stroke="#fff50078"/><path d="M100-162.5l-209.5-9.2" stroke="#fff7B"/><path d="M100-162.5l209.3-0.2" stroke="#fff5007B"/><path d="M100-162.5l92.7 187.6" stroke="#fff5007B"/><path d="M100-162.5l206.1-26.2" stroke="#005bbb7B"/><path d="M100-162.5l179.2 104.5" stroke="#fff7B"/><path d="M100-162.5l63.3 194.4" stroke="#005bbb7D"/><path d="M100-162.5l-193.5 64.1" stroke="#c2e1ff7D"/><path d="M100-162.5l101 176.3" stroke="#c2e1ff7D"/><path d="M100-162.5l-197.9 44.8" stroke="#c2e1ff7D"/><path d="M100-162.5l-73.2-188.9" stroke="#fff5007D"/><path d="M100-162.5l-19-201.2" stroke="#005bbb7D"/><path d="M100-162.5l-169.9-94.7" stroke="#c2e1ff80"/><path d="M100-162.5l75.5 166.8" stroke="#fff83"/><path d="M100-162.5l-149-106" stroke="#fff83"/><path d="M100-162.5l-54.6 168.3" stroke="#005bbb85"/><path d="M100-162.5l17 156.7" stroke="#005bbb89"/><path d="M100-162.5l121.1 96.3" stroke="#c2e1ff89"/><path d="M100-162.5l140.6-35.9" stroke="#005bbb8B"/><path d="M100-162.5l-110.7 89.2" stroke="#c2e1ff8B"/><path d="M100-162.5l136.6-22.8" stroke="#fff5008C"/><path d="M100-162.5l108.3-84.1" stroke="#c2e1ff8C"/><path d="M100-162.5l125.9-48.6" stroke="#c2e1ff8D"/><path d="M100-162.5l-1.8 132.8" stroke="#c2e1ff8D"/><path d="M100-162.5l127.4 33.9" stroke="#c2e1ff8D"/><path d="M100-162.5l-70.3-110.8" stroke="#005bbb8D"/><path d="M100-162.5l129.1 8" stroke="#c2e1ff8D"/><path d="M100-162.5l-121.1 39.9" stroke="#c2e1ff8E"/><path d="M100-162.5l-122.6-23.2" stroke="#fff8E"/><path d="M100-162.5l-112.5-50.8" stroke="#fff8E"/><path d="M100-162.5l-79.6 91.9" stroke="#fff8E"/><path d="M100-162.5l-36.3 114.2" stroke="#005bbb8F"/><path d="M100-162.5l91.9 67.3" stroke="#c2e1ff8F"/><path d="M100-162.5l97.9-39.9" stroke="#fff50090"/><path d="M100-162.5l72.5 51" stroke="#005bbb92"/><path d="M100-162.5l88-6.1" stroke="#fff50092"/><path d="M100-162.5l-85.7-17.5" stroke="#fff50092"/><path d="M100-162.5l-74.6-34" stroke="#fff50092"/><path d="M100-162.5l-52.6-9" stroke="#fff50094"/><path d="M100-162.5l-19.5-41.5" stroke="#c2e1ff95"/><path d="M100-162.5l-7.4 24.1" stroke="#c2e1ff95"/></g><g class="sparcs"><path d="M91.4-159.1a5.9 5.9 0 1 1 0-11.8 5.9 5.9 0 0 1 0 11.8" fill="#fff5007D"/><path d="M104.4-148.5a5.9 5.9 0 1 1 0-11.8 5.9 5.9 0 0 1 0 11.8" fill="#c2e1ff7D"/><path d="M65.6-154a5.9 5.9 0 1 1 0-11.9 5.9 5.9 0 0 1 0 11.9" fill="#fff7D"/><path d="M124.9-97.7a6 6 0 1 1 0-12 6 6 0 0 1 0 12" fill="#fff5007F"/><path d="M128.7-97.6a6 6 0 1 1 0-12 6 6 0 0 1 0 12" fill="#fff7F"/><path d="M87.5-238.6a6.1 6.1 0 1 1 0-12.2 6.1 6.1 0 0 1 0 12.2" fill="#fff50081"/><path d="M42.3-223.6a6.1 6.1 0 1 1 0-12.3 6.1 6.1 0 0 1 0 12.3" fill="#fff81"/><path d="M24.6-203.7a6.1 6.1 0 1 1 0-12.2 6.1 6.1 0 0 1 0 12.2" fill="#fff50081"/><path d="M107.9-66.4a6.1 6.1 0 1 1 0-12.3 6.1 6.1 0 0 1 0 12.3" fill="#005bbb81"/><path d="M63.3-241.9a6.1 6.1 0 1 1 0-12.3 6.1 6.1 0 0 1 0 12.3" fill="#005bbb82"/><path d="M17.7-110.2a6.2 6.2 0 1 1 0-12.3 6.2 6.2 0 0 1 0 12.3" fill="#fff82"/><path d="M131.6-245.4a6.2 6.2 0 1 1 0-12.3 6.2 6.2 0 0 1 0 12.3" fill="#c2e1ff82"/><path d="M201.1-164.7a6.2 6.2 0 1 1 0-12.4 6.2 6.2 0 0 1 0 12.4" fill="#005bbb83"/><path d="M152.3-67.5a6.2 6.2 0 1 1 0-12.4 6.2 6.2 0 0 1 0 12.4" fill="#c2e1ff83"/><path d="M-6-188.7a6.3 6.3 0 1 1 0-12.5 6.3 6.3 0 0 1 0 12.5" fill="#fff50084"/><path d="M-14.8-142.1a6.3 6.3 0 1 1 0-12.6 6.3 6.3 0 0 1 0 12.6" fill="#fff85"/><path d="M113.9-35a6.3 6.3 0 1 1 0-12.6 6.3 6.3 0 0 1 0 12.6" fill="#fff86"/><path d="M220.1-128.4a6.3 6.3 0 1 1 0-12.6 6.3 6.3 0 0 1 0 12.6" fill="#c2e1ff86"/><path d="M194.9-264.2a6.5 6.5 0 1 1 0-13 6.5 6.5 0 0 1 0 13" fill="#005bbb8A"/><path d="M-38.1-84.6a6.6 6.6 0 1 1 0-13.3 6.6 6.6 0 0 1 0 13.3" fill="#005bbb8D"/><path d="M249.1-107.7a6.6 6.6 0 1 1 0-13.3 6.6 6.6 0 0 1 0 13.3" fill="#005bbb8D"/><path d="M257.2-142.9a6.7 6.7 0 1 1 0-13.3 6.7 6.7 0 0 1 0 13.3" fill="#c2e1ff8D"/><path d="M253.1-201.4a6.7 6.7 0 1 1 0-13.4 6.7 6.7 0 0 1 0 13.4" fill="#fff5008E"/><path d="M105.6-315.7a6.7 6.7 0 1 1 0-13.3 6.7 6.7 0 0 1 0 13.3" fill="#005bbb8E"/><path d="M248-226.2a6.7 6.7 0 1 1 0-13.5 6.7 6.7 0 0 1 0 13.5" fill="#005bbb8F"/><path d="M246.3-81.1a6.7 6.7 0 1 1 0-13.5 6.7 6.7 0 0 1 0 13.5" fill="#fff5008F"/><path d="M-45.2-78.3a6.7 6.7 0 1 1 0-13.5 6.7 6.7 0 0 1 0 13.5" fill="#fff5008F"/><path d="M219.6-279.4a6.8 6.8 0 1 1 0-13.7 6.8 6.8 0 0 1 0 13.7" fill="#005bbb91"/><path d="M251.1-242.4a6.9 6.9 0 1 1 0-13.7 6.9 6.9 0 0 1 0 13.7" fill="#fff50092"/><path d="M-71.7-187.9a6.9 6.9 0 1 1 0-13.7 6.9 6.9 0 0 1 0 13.7" fill="#005bbb92"/><path d="M4.6-2.9a6.9 6.9 0 1 1 0-13.9 6.9 6.9 0 0 1 0 13.9" fill="#005bbb93"/><path d="M-70.8-213.9a7 7 0 1 1 0-13.9 7 7 0 0 1 0 13.9" fill="#005bbb94"/><path d="M-10.6-12.6a7 7 0 1 1 0-13.9 7 7 0 0 1 0 13.9" fill="#fff94"/><path d="M172.3 16.4a7 7 0 1 1 0-14.1 7 7 0 0 1 0 14.1" fill="#fff50096"/><path d="M-64.3-244.2a7.1 7.1 0 1 1 0-14.1 7.1 7.1 0 0 1 0 14.1" fill="#005bbb96"/><path d="M186.3-323a7.1 7.1 0 1 1 0-14.2 7.1 7.1 0 0 1 0 14.2" fill="#fff50096"/><path d="M131.7-341.4a7.1 7.1 0 1 1 0-14.2 7.1 7.1 0 0 1 0 14.2" fill="#fff50096"/><path d="M-71.5-235.6a7.1 7.1 0 1 1 0-14.2 7.1 7.1 0 0 1 0 14.2" fill="#005bbb97"/><path d="M208.9 1.2a7.1 7.1 0 1 1 0-14.2 7.1 7.1 0 0 1 0 14.2" fill="#c2e1ff97"/><path d="M246.6-280.6a7.2 7.2 0 1 1 0-14.3 7.2 7.2 0 0 1 0 14.3" fill="#c2e1ff98"/><path d="M138.8-349.9a7.3 7.3 0 1 1 0-14.5 7.3 7.3 0 0 1 0 14.5" fill="#fff5009A"/><path d="M154-349a7.3 7.3 0 1 1 0-14.7 7.3 7.3 0 0 1 0 14.7" fill="#005bbb9B"/><path d="M255.4-284.6a7.3 7.3 0 1 1 0-14.6 7.3 7.3 0 0 1 0 14.6" fill="#fff5009C"/><path d="M226.5 3.4a7.3 7.3 0 1 1 0-14.7 7.3 7.3 0 0 1 0 14.7" fill="#fff9C"/><path d="M245.2-12.4a7.4 7.4 0 1 1 0-14.7 7.4 7.4 0 0 1 0 14.7" fill="#005bbb9D"/><path d="M298.5-106.5a7.4 7.4 0 1 1 0-14.8 7.4 7.4 0 0 1 0 14.8" fill="#005bbb9D"/><path d="M181.9 34.3a7.4 7.4 0 1 1 0-14.8 7.4 7.4 0 0 1 0 14.8" fill="#c2e1ff9E"/><path d="M187.5-343.4a7.5 7.5 0 1 1 0-14.9 7.5 7.5 0 0 1 0 14.9" fill="#005bbb9F"/><path d="M-108.3-148.9a7.5 7.5 0 1 1 0-15 7.5 7.5 0 0 1 0 15" fill="#fff9F"/><path d="M294.5-230.1a7.5 7.5 0 1 1 0-15 7.5 7.5 0 0 1 0 15" fill="#005bbb9F"/><path d="M16 37.9a7.5 7.5 0 1 1 0-15 7.5 7.5 0 0 1 0 15" fill="#005bbbA0"/><path d="M121.7-365.7a7.6 7.6 0 1 1 0-15.1 7.6 7.6 0 0 1 0 15.1" fill="#fff500A1"/><path d="M-112.5-160.1a7.6 7.6 0 1 1 0-15.1 7.6 7.6 0 0 1 0 15.1" fill="#005bbbA1"/><path d="M304.6-97.2a7.6 7.6 0 1 1 0-15.1 7.6 7.6 0 0 1 0 15.1" fill="#c2e1ffA1"/><path d="M270.7-283a7.6 7.6 0 1 1 0-15.2 7.6 7.6 0 0 1 0 15.2" fill="#005bbbA2"/><path d="M256.4-7.4a7.6 7.6 0 1 1 0-15.3 7.6 7.6 0 0 1 0 15.3" fill="#fff500A3"/><path d="M-84.5-44.4a7.6 7.6 0 1 1 0-15.3 7.6 7.6 0 0 1 0 15.3" fill="#c2e1ffA3"/><path d="M-82.6-269.3a7.6 7.6 0 1 1 0-15.3 7.6 7.6 0 0 1 0 15.3" fill="#fffA3"/><path d="M185.9-352.9a7.7 7.7 0 1 1 0-15.3 7.7 7.7 0 0 1 0 15.3" fill="#c2e1ffA3"/><path d="M-116.7-168.6a7.7 7.7 0 1 1 0-15.4 7.7 7.7 0 0 1 0 15.4" fill="#fffA4"/><path d="M-119.5-169.6a7.8 7.8 0 1 1 0-15.6 7.8 7.8 0 0 1 0 15.6" fill="#fffA6"/><path d="M-103.5-239.1a7.8 7.8 0 1 1 0-15.6 7.8 7.8 0 0 1 0 15.6" fill="#fffA6"/><path d="M127.4-373.9a7.8 7.8 0 1 1 0-15.6 7.8 7.8 0 0 1 0 15.6" fill="#fffA6"/><path d="M-116.3-205.6a7.9 7.9 0 1 1 0-15.7 7.9 7.9 0 0 1 0 15.7" fill="#fff500A7"/><path d="M71 65.9a7.9 7.9 0 1 1 0-15.7 7.9 7.9 0 0 1 0 15.7" fill="#fffA8"/><path d="M81.8-376.9a7.9 7.9 0 1 1 0-15.8 7.9 7.9 0 0 1 0 15.8" fill="#fff500A8"/><path d="M170.4 57.8a7.9 7.9 0 1 1 0-15.8 7.9 7.9 0 0 1 0 15.8" fill="#c2e1ffA9"/><path d="M324.1-156a7.9 7.9 0 1 1 0-15.9 7.9 7.9 0 0 1 0 15.9" fill="#fffA9"/><path d="M319.5-200.6a7.9 7.9 0 1 1 0-15.8 7.9 7.9 0 0 1 0 15.8" fill="#005bbbA9"/><path d="M-110.6-74.3a8 8 0 1 1 0-16 8 8 0 0 1 0 16" fill="#005bbbAA"/><path d="M315.5-86a8 8 0 1 1 0-16 8 8 0 0 1 0 16" fill="#005bbbAB"/><path d="M-108.7-241.5a8 8 0 1 1 0-16 8 8 0 0 1 0 16" fill="#fffAB"/><path d="M256.3-320.7a8.1 8.1 0 1 1 0-16.2 8.1 8.1 0 0 1 0 16.2" fill="#c2e1ffAD"/><path d="M25.7 61.5a8.1 8.1 0 1 1 0-16.2 8.1 8.1 0 0 1 0 16.2" fill="#fff500AD"/><path d="M297.4-39.3a8.1 8.1 0 1 1 0-16.2 8.1 8.1 0 0 1 0 16.2" fill="#fff500AD"/><path d="M330.2-154.3a8.2 8.2 0 1 1 0-16.4 8.2 8.2 0 0 1 0 16.4" fill="#c2e1ffAF"/><path d="M-124.3-212a8.3 8.3 0 1 1 0-16.6 8.3 8.3 0 0 1 0 16.6" fill="#fffB1"/><path d="M-108.1-257.5a8.3 8.3 0 1 1 0-16.7 8.3 8.3 0 0 1 0 16.7" fill="#fffB2"/><path d="M-78.6-5.5a8.3 8.3 0 1 1 0-16.6 8.3 8.3 0 0 1 0 16.6" fill="#c2e1ffB2"/><path d="M-131.5-130.4a8.4 8.4 0 1 1 0-16.7 8.4 8.4 0 0 1 0 16.7" fill="#005bbbB2"/><path d="M218.7 46.9a8.4 8.4 0 1 1 0-16.8 8.4 8.4 0 0 1 0 16.8" fill="#fffB3"/><path d="M-128.5-105.7a8.4 8.4 0 1 1 0-16.9 8.4 8.4 0 0 1 0 16.9" fill="#fffB4"/><path d="M299.5-276a8.4 8.4 0 1 1 0-16.9 8.4 8.4 0 0 1 0 16.9" fill="#fffB4"/><path d="M35.5-378.9a8.4 8.4 0 1 1 0-16.9 8.4 8.4 0 0 1 0 16.9" fill="#fff500B4"/><path d="M43.8-381.7a8.5 8.5 0 1 1 0-17 8.5 8.5 0 0 1 0 17" fill="#c2e1ffB6"/><path d="M237-344.4a8.5 8.5 0 1 1 0-17 8.5 8.5 0 0 1 0 17" fill="#fffB6"/><path d="M49.3-383.1a8.5 8.5 0 1 1 0-17.1 8.5 8.5 0 0 1 0 17.1" fill="#c2e1ffB6"/><path d="M-135.1-165.2a8.6 8.6 0 1 1 0-17.3 8.6 8.6 0 0 1 0 17.3" fill="#fff500B8"/><path d="M177.6 68.5a8.6 8.6 0 1 1 0-17.2 8.6 8.6 0 0 1 0 17.2" fill="#fffB8"/><path d="M-35.6 39.2a8.7 8.7 0 1 1 0-17.4 8.7 8.7 0 0 1 0 17.4" fill="#c2e1ffBA"/><path d="M318.6-65.1a8.7 8.7 0 1 1 0-17.4 8.7 8.7 0 0 1 0 17.4" fill="#c2e1ffBA"/><path d="M300.4-278.3a8.7 8.7 0 1 1 0-17.4 8.7 8.7 0 0 1 0 17.4" fill="#fff500BA"/><path d="M245.3 32.4a8.8 8.8 0 1 1 0-17.5 8.8 8.8 0 0 1 0 17.5" fill="#fffBB"/><path d="M-14.9-360.1a8.8 8.8 0 1 1 0-17.5 8.8 8.8 0 0 1 0 17.5" fill="#c2e1ffBC"/><path d="M329.3-97.1a8.8 8.8 0 1 1 0-17.6 8.8 8.8 0 0 1 0 17.6" fill="#005bbbBC"/><path d="M86.7 82.2a8.8 8.8 0 1 1 0-17.7 8.8 8.8 0 0 1 0 17.7" fill="#005bbbBD"/><path d="M-136.2-151.7a8.8 8.8 0 1 1 0-17.7 8.8 8.8 0 0 1 0 17.7" fill="#005bbbBD"/><path d="M13 66a8.9 8.9 0 1 1 0-17.7 8.9 8.9 0 0 1 0 17.7" fill="#fffBE"/><path d="M304.4-35.1a8.9 8.9 0 1 1 0-17.7 8.9 8.9 0 0 1 0 17.7" fill="#c2e1ffBE"/><path d="M39.4-381.9a8.9 8.9 0 1 1 0-17.8 8.9 8.9 0 0 1 0 17.8" fill="#005bbbBE"/><path d="M-136-142.8a8.9 8.9 0 1 1 0-17.9 8.9 8.9 0 0 1 0 17.9" fill="#fff500BF"/><path d="M331.1-202.1a9 9 0 1 1 0-17.9 9 9 0 0 1 0 17.9" fill="#fff500C0"/><path d="M310.4-46.4a9 9 0 1 1 0-18 9 9 0 0 1 0 18" fill="#fff500C0"/><path d="M158.8 75.1a9 9 0 1 1 0-18 9 9 0 0 1 0 18" fill="#c2e1ffC0"/><path d="M298.9-26.5a9 9 0 1 1 0-18 9 9 0 0 1 0 18" fill="#c2e1ffC0"/><path d="M-131.4-108.8a9.1 9.1 0 1 1 0-18.1 9.1 9.1 0 0 1 0 18.1" fill="#c2e1ffC2"/><path d="M-82.7-4.6a9.1 9.1 0 1 1 0-18.2 9.1 9.1 0 0 1 0 18.2" fill="#005bbbC2"/><path d="M65.4 79.6a9.1 9.1 0 1 1 0-18.2 9.1 9.1 0 0 1 0 18.2" fill="#005bbbC3"/><path d="M197.8-367.4a9.1 9.1 0 1 1 0-18.3 9.1 9.1 0 0 1 0 18.3" fill="#005bbbC3"/><path d="M-40.3-342a9.2 9.2 0 1 1 0-18.3 9.2 9.2 0 0 1 0 18.3" fill="#fffC4"/><path d="M269.2-316.4a9.2 9.2 0 1 1 0-18.3 9.2 9.2 0 0 1 0 18.3" fill="#005bbbC4"/><path d="M299.1-29.4a9.2 9.2 0 1 1 0-18.5 9.2 9.2 0 0 1 0 18.5" fill="#005bbbC5"/><path d="M152.5-381.2a9.3 9.3 0 1 1 0-18.6 9.3 9.3 0 0 1 0 18.6" fill="#fffC7"/><path d="M-85-295.7a9.3 9.3 0 1 1 0-18.6 9.3 9.3 0 0 1 0 18.6" fill="#c2e1ffC7"/><path d="M-33.7 36.9a9.4 9.4 0 1 1 0-18.8 9.4 9.4 0 0 1 0 18.8" fill="#c2e1ffC9"/><path d="M244.3-334a9.5 9.5 0 1 1 0-18.9 9.5 9.5 0 0 1 0 18.9" fill="#005bbbCB"/><path d="M-89.4-285.8a9.5 9.5 0 1 1 0-18.9 9.5 9.5 0 0 1 0 18.9" fill="#fffCB"/><path d="M147.8-379.1a9.5 9.5 0 1 1 0-18.9 9.5 9.5 0 0 1 0 18.9" fill="#fffCB"/><path d="M93.1-382.5a9.6 9.6 0 1 1 0-19.1 9.6 9.6 0 0 1 0 19.1" fill="#005bbbCD"/><path d="M141.2-378.8a9.6 9.6 0 1 1 0-19.1 9.6 9.6 0 0 1 0 19.1" fill="#fff500CD"/><path d="M-91.4-26.6a9.6 9.6 0 1 1 0-19.1 9.6 9.6 0 0 1 0 19.1" fill="#c2e1ffCD"/><path d="M254 16.7a9.6 9.6 0 1 1 0-19.2 9.6 9.6 0 0 1 0 19.2" fill="#005bbbCD"/><path d="M-81.4-292.3a9.6 9.6 0 1 1 0-19.2 9.6 9.6 0 0 1 0 19.2" fill="#fff500CE"/><path d="M254.8 15.4a9.6 9.6 0 1 1 0-19.2 9.6 9.6 0 0 1 0 19.2" fill="#fffCE"/><path d="M-54.2-321.6a9.6 9.6 0 1 1 0-19.2 9.6 9.6 0 0 1 0 19.2" fill="#fff500CE"/><path d="M321.5-209.2a9.6 9.6 0 1 1 0-19.2 9.6 9.6 0 0 1 0 19.2" fill="#005bbbCE"/><path d="M-20.1 41.1a9.6 9.6 0 1 1 0-19.3 9.6 9.6 0 0 1 0 19.3" fill="#fff500CE"/><path d="M-24.9-343.7a9.6 9.6 0 1 1 0-19.3 9.6 9.6 0 0 1 0 19.3" fill="#005bbbCE"/><path d="M-115.8-79.3a9.6 9.6 0 1 1 0-19.3 9.6 9.6 0 0 1 0 19.3" fill="#c2e1ffCE"/><path d="M-114.1-75.4a9.6 9.6 0 1 1 0-19.3 9.6 9.6 0 0 1 0 19.3" fill="#fffCF"/><path d="M284.2-286.2a9.7 9.7 0 1 1 0-19.3 9.7 9.7 0 0 1 0 19.3" fill="#005bbbCF"/><path d="M193.2 52.2a9.8 9.8 0 1 1 0-19.5 9.8 9.8 0 0 1 0 19.5" fill="#c2e1ffD1"/><path d="M314-221.1a9.8 9.8 0 1 1 0-19.5 9.8 9.8 0 0 1 0 19.5" fill="#fffD2"/><path d="M-120.5-185.7a9.8 9.8 0 1 1 0-19.7 9.8 9.8 0 0 1 0 19.7" fill="#005bbbD3"/><path d="M-6.3 42.2a9.9 9.9 0 1 1 0-19.7 9.9 9.9 0 0 1 0 19.7" fill="#fff500D4"/><path d="M-6.2 41.9a9.9 9.9 0 1 1 0-19.7 9.9 9.9 0 0 1 0 19.7" fill="#005bbbD4"/><path d="M-112.1-209.3a9.9 9.9 0 1 1 0-19.9 9.9 9.9 0 0 1 0 19.9" fill="#c2e1ffD5"/><path d="M-103.1-234.6a10 10 0 1 1 0-19.9 10 10 0 0 1 0 19.9" fill="#fff500D6"/><path d="M-112.9-107.6a10 10 0 1 1 0-20.1 10 10 0 0 1 0 20.1" fill="#005bbbD7"/><path d="M296.7-243.7a10 10 0 1 1 0-20.1 10 10 0 0 1 0 20.1" fill="#c2e1ffD7"/><path d="M48.5-361.6a10.1 10.1 0 1 1 0-20.2 10.1 10.1 0 0 1 0 20.2" fill="#005bbbD8"/><path d="M-109.5-161.4a10.2 10.2 0 1 1 0-20.5 10.2 10.2 0 0 1 0 20.5" fill="#005bbbDB"/><path d="M309.3-152.5a10.2 10.2 0 1 1 0-20.5 10.2 10.2 0 0 1 0 20.5" fill="#c2e1ffDC"/><path d="M192.7 35.3a10.2 10.2 0 1 1 0-20.4 10.2 10.2 0 0 1 0 20.4" fill="#fff500DC"/><path d="M306.1-178.5a10.3 10.3 0 1 1 0-20.5 10.3 10.3 0 0 1 0 20.5" fill="#fff500DC"/><path d="M279.2-47.7a10.3 10.3 0 1 1 0-20.6 10.3 10.3 0 0 1 0 20.6" fill="#c2e1ffDD"/><path d="M163.3 42.2a10.3 10.3 0 1 1 0-20.6 10.3 10.3 0 0 1 0 20.6" fill="#fff500DE"/><path d="M-93.5-88a10.4 10.4 0 1 1 0-20.7 10.4 10.4 0 0 1 0 20.7" fill="#fffDE"/><path d="M201 24.1a10.4 10.4 0 1 1 0-20.7 10.4 10.4 0 0 1 0 20.7" fill="#fff500DF"/><path d="M-97.9-107.4a10.4 10.4 0 1 1 0-20.7 10.4 10.4 0 0 1 0 20.7" fill="#fffDF"/><path d="M26.8-341a10.4 10.4 0 1 1 0-20.7 10.4 10.4 0 0 1 0 20.7" fill="#fff500DF"/><path d="M81-353.3a10.4 10.4 0 1 1 0-20.8 10.4 10.4 0 0 1 0 20.8" fill="#005bbbDF"/><path d="M-69.9-246.6a10.5 10.5 0 1 1 0-21.1 10.5 10.5 0 0 1 0 21.1" fill="#fffE2"/><path d="M175.5 15.1a10.7 10.7 0 1 1 0-21.5 10.7 10.7 0 0 1 0 21.5" fill="#fffE7"/><path d="M-49-257.8a10.7 10.7 0 1 1 0-21.5 10.7 10.7 0 0 1 0 21.5" fill="#c2e1ffE7"/><path d="M45.4 16.6a10.8 10.8 0 1 1 0-21.6 10.8 10.8 0 0 1 0 21.6" fill="#fffE9"/><path d="M117 5.3a11.1 11.1 0 1 1 0-22.1 11.1 11.1 0 0 1 0 22.1" fill="#fffEE"/><path d="M221.1-55.1a11.1 11.1 0 1 1 0-22.1 11.1 11.1 0 0 1 0 22.1" fill="#fff500EF"/><path d="M240.6-187.2a11.2 11.2 0 1 1 0-22.4 11.2 11.2 0 0 1 0 22.4" fill="#fffF1"/><path d="M-10.7-62.1a11.2 11.2 0 1 1 0-22.5 11.2 11.2 0 0 1 0 22.5" fill="#fff500F1"/><path d="M236.6-174a11.3 11.3 0 1 1 0-22.5 11.3 11.3 0 0 1 0 22.5" fill="#005bbbF2"/><path d="M208.3-235.3a11.3 11.3 0 1 1 0-22.5 11.3 11.3 0 0 1 0 22.5" fill="#c2e1ffF2"/><path d="M225.9-199.8a11.3 11.3 0 1 1 0-22.6 11.3 11.3 0 0 1 0 22.6" fill="#fffF3"/><path d="M98.2-18.4a11.3 11.3 0 1 1 0-22.6 11.3 11.3 0 0 1 0 22.6" fill="#fffF3"/><path d="M227.4-117.3a11.3 11.3 0 1 1 0-22.6 11.3 11.3 0 0 1 0 22.6" fill="#fffF3"/><path d="M29.7-262a11.3 11.3 0 1 1 0-22.6 11.3 11.3 0 0 1 0 22.6" fill="#c2e1ffF4"/><path d="M229.1-143.2a11.3 11.3 0 1 1 0-22.7 11.3 11.3 0 0 1 0 22.7" fill="#fff500F4"/><path d="M-21.1-111.3a11.3 11.3 0 1 1 0-22.7 11.3 11.3 0 0 1 0 22.7" fill="#fffF4"/><path d="M-22.6-174.3a11.4 11.4 0 1 1 0-22.7 11.4 11.4 0 0 1 0 22.7" fill="#005bbbF5"/><path d="M-12.5-201.9a11.4 11.4 0 1 1 0-22.8 11.4 11.4 0 0 1 0 22.8" fill="#fff500F5"/><path d="M20.4-59.2a11.4 11.4 0 1 1 0-22.8 11.4 11.4 0 0 1 0 22.8" fill="#005bbbF5"/><path d="M63.7-36.9a11.4 11.4 0 1 1 0-22.8 11.4 11.4 0 0 1 0 22.8" fill="#005bbbF6"/><path d="M191.9-83.8a11.4 11.4 0 1 1 0-22.9 11.4 11.4 0 0 1 0 22.9" fill="#c2e1ffF6"/><path d="M197.9-190.9a11.5 11.5 0 1 1 0-23 11.5 11.5 0 0 1 0 23" fill="#fffF8"/><path d="M172.5-99.9a11.6 11.6 0 1 1 0-23.2 11.6 11.6 0 0 1 0 23.2" fill="#fff500FA"/><path d="M188-157a11.6 11.6 0 1 1 0-23.2 11.6 11.6 0 0 1 0 23.2" fill="#fff500FA"/><path d="M14.3-168.4a11.6 11.6 0 1 1 0-23.2 11.6 11.6 0 0 1 0 23.2" fill="#fffFA"/><path d="M25.4-184.8a11.6 11.6 0 1 1 0-23.3 11.6 11.6 0 0 1 0 23.3" fill="#fff500FA"/><path d="M47.4-159.7a11.7 11.7 0 1 1 0-23.5 11.7 11.7 0 0 1 0 23.5" fill="#005bbbFD"/><path d="M80.5-192.3a11.8 11.8 0 1 1 0-23.5 11.8 11.8 0 0 1 0 23.5" fill="#fff500FD"/><path d="M92.6-126.6a11.8 11.8 0 1 1 0-23.6 11.8 11.8 0 0 1 0 23.6" fill="#c2e1ffFE"/></g></svg>