<svg width="1200" height="675" viewBox="-500 -500 1200 675" xmlns="http://www.w3.org/2000/svg"><path d="M-500-500h1200v675h-1200z" fill="#000"/><style>.sparkles path{stroke-linecap:round; stroke-width:1}</style><g class="sparkles"><path d="M100-162.5l-10.6 16.2" stroke="#fff32"/><path d="M100-162.5l-0.6 41.9" stroke="#fff32"/><path d="M100-162.5l-55.1 20.7" stroke="#c2e1ff33"/><path d="M100-162.5l47.5 49.4" stroke="#c2e1ff34"/><path d="M100-162.5l68.9-31.9" stroke="#005bbb34"/><path d="M100-162.5l-47.2 69.5" stroke="#c2e1ff35"/><path d="M100-162.5l-25.4 83.3" stroke="#005bbb35"/><path d="M100-162.5l73.6-53.9" stroke="#fff35"/><path d="M100-162.5l-36.5-88.4" stroke="#005bbb36"/><path d="M100-162.5l-94.8-24.4" stroke="#c2e1ff36"/><path d="M100-162.5l-17.4-102.9" stroke="#fff50037"/><path d="M100-162.5l104.3 6.5" stroke="#c2e1ff37"/><path d="M100-162.5l-98.3-38.4" stroke="#005bbb37"/><path d="M100-162.5l87.6 63.5" stroke="#c2e1ff37"/><path d="M100-162.5l87.4-78" stroke="#fff38"/><path d="M100-162.5l-109.5 57.2" stroke="#c2e1ff39"/><path d="M100-162.5l22.2 121.5" stroke="#fff50039"/><path d="M100-162.5l102.1-78.2" stroke="#fff3A"/><path d="M100-162.5l-48 120.1" stroke="#c2e1ff3A"/><path d="M100-162.5l-73.2 108.5" stroke="#fff5003A"/><path d="M100-162.5l129.7 42.5" stroke="#fff5003B"/><path d="M100-162.5l123.9-59.2" stroke="#c2e1ff3B"/><path d="M100-162.5l-121.1-82.6" stroke="#fff5003C"/><path d="M100-162.5l123.3-90.9" stroke="#fff5003D"/><path d="M100-162.5l-138.6-70.9" stroke="#fff3E"/><path d="M100-162.5l136.8 78" stroke="#005bbb3E"/><path d="M100-162.5l152.1 42" stroke="#005bbb3E"/><path d="M100-162.5l-156.6 37.6" stroke="#005bbb3F"/><path d="M100-162.5l-25.8 159.1" stroke="#fff5003F"/><path d="M100-162.5l161.6 0" stroke="#fff3F"/><path d="M100-162.5l109.8-120.9" stroke="#fff3F"/><path d="M100-162.5l144.2 78.6" stroke="#fff40"/><path d="M100-162.5l-91.3 136.7" stroke="#c2e1ff40"/><path d="M100-162.5l164.6 30" stroke="#005bbb40"/><path d="M100-162.5l-122.9-118.1" stroke="#005bbb41"/><path d="M100-162.5l-57 161.3" stroke="#005bbb41"/><path d="M100-162.5l-157.3-75.5" stroke="#fff50042"/><path d="M100-162.5l-10.6-176.6" stroke="#fff50042"/><path d="M100-162.5l-159-77.8" stroke="#fff42"/><path d="M100-162.5l171.8 48.5" stroke="#fff50043"/><path d="M100-162.5l102.8-146.5" stroke="#fff43"/><path d="M100-162.5l-99.2-149.2" stroke="#005bbb43"/><path d="M100-162.5l180.1-31.5" stroke="#fff50044"/><path d="M100-162.5l-175.9 57" stroke="#fff44"/><path d="M100-162.5l-123.1-138.1" stroke="#fff50044"/><path d="M100-162.5l-149.8-108.7" stroke="#fff44"/><path d="M100-162.5l146.2 121.2" stroke="#005bbb46"/><path d="M100-162.5l190.1 23.2" stroke="#005bbb46"/><path d="M100-162.5l-76.3 179.1" stroke="#fff50047"/><path d="M100-162.5l196-0.4" stroke="#005bbb48"/><path d="M100-162.5l200.6-12.7" stroke="#005bbb49"/><path d="M100-162.5l143.4-144.3" stroke="#c2e1ff4A"/><path d="M100-162.5l-204.8-6.9" stroke="#fff4B"/><path d="M100-162.5l197 69.3" stroke="#fff5004C"/><path d="M100-162.5l208.3-23.1" stroke="#fff4C"/><path d="M100-162.5l142 155.1" stroke="#fff4D"/><path d="M100-162.5l-168.5-126.3" stroke="#005bbb4D"/><path d="M100-162.5l-180.9-110" stroke="#fff4D"/><path d="M100-162.5l153.1 149.5" stroke="#005bbb4E"/><path d="M100-162.5l108.8 185.2" stroke="#005bbb4F"/><path d="M100-162.5l-164.2 139.5" stroke="#005bbb4F"/><path d="M100-162.5l-18.9 216.4" stroke="#c2e1ff50"/><path d="M100-162.5l-219.1 5.9" stroke="#c2e1ff51"/><path d="M100-162.5l157.8 153.7" stroke="#fff50051"/><path d="M100-162.5l-220.2 11" stroke="#c2e1ff52"/><path d="M100-162.5l219-34.6" stroke="#fff50052"/><path d="M100-162.5l-157.7 157.7" stroke="#fff50053"/><path d="M100-162.5l-215.5-59.4" stroke="#fff53"/><path d="M100-162.5l47.1 219" stroke="#fff50054"/><path d="M100-162.5l-134.2 179.4" stroke="#fff54"/><path d="M100-162.5l224.8 5" stroke="#fff50054"/><path d="M100-162.5l-197.8 108.3" stroke="#005bbb55"/><path d="M100-162.5l-112.2-197.1" stroke="#fff55"/><path d="M100-162.5l226-22.9" stroke="#c2e1ff56"/><path d="M100-162.5l198.5 111.9" stroke="#fff56"/><path d="M100-162.5l140.4-180.3" stroke="#c2e1ff57"/><path d="M100-162.5l-184 136" stroke="#fff50057"/><path d="M100-162.5l-229.2 14" stroke="#fff58"/><path d="M100-162.5l66.9 219.7" stroke="#005bbb58"/><path d="M100-162.5l36.2 227.8" stroke="#fff59"/><path d="M100-162.5l-175.7-150.7" stroke="#fff5005A"/><path d="M100-162.5l205.9-106.5" stroke="#c2e1ff5A"/><path d="M100-162.5l-175.9-152.2" stroke="#fff5B"/><path d="M100-162.5l-209.7-102.1" stroke="#fff5005C"/><path d="M100-162.5l-186.8-140.5" stroke="#fff5005C"/><path d="M100-162.5l-226.8 58.6" stroke="#c2e1ff5D"/><path d="M100-162.5l181.9-147.8" stroke="#fff5D"/><path d="M100-162.5l-78-221.1" stroke="#005bbb5D"/><path d="M100-162.5l-218.3 86.7" stroke="#c2e1ff5E"/><path d="M100-162.5l197.9-127.1" stroke="#005bbb5F"/><path d="M100-162.5l-133.3-193.8" stroke="#005bbb5F"/><path d="M100-162.5l149.9-181.4" stroke="#fff5F"/><path d="M100-162.5l59.8-227.6" stroke="#fff5F"/><path d="M100-162.5l67.8 225.6" stroke="#c2e1ff60"/><path d="M100-162.5l-234.1 27.8" stroke="#c2e1ff60"/><path d="M100-162.5l195.4 132.4" stroke="#fff50061"/><path d="M100-162.5l88.2 219" stroke="#fff61"/><path d="M100-162.5l196.9-130.3" stroke="#fff62"/><path d="M100-162.5l187.6 143.3" stroke="#c2e1ff62"/><path d="M100-162.5l206.5-114.5" stroke="#fff50062"/><path d="M100-162.5l189.1 141.5" stroke="#fff63"/><path d="M100-162.5l-151.1-181.6" stroke="#fff50063"/><path d="M100-162.5l232.1-43.9" stroke="#fff63"/><path d="M100-162.5l180.9-152" stroke="#c2e1ff63"/><path d="M100-162.5l-99.5-214.3" stroke="#c2e1ff64"/><path d="M100-162.5l227.9 62.1" stroke="#fff50065"/><path d="M100-162.5l235.7-12.1" stroke="#c2e1ff66"/><path d="M100-162.5l161.9 171.3" stroke="#fff67"/><path d="M100-162.5l113.2-206.6" stroke="#fff67"/><path d="M100-162.5l235.1-12.6" stroke="#fff68"/><path d="M100-162.5l-42.6-231.4" stroke="#fff50068"/><path d="M100-162.5l-234.6-2.9" stroke="#005bbb69"/><path d="M100-162.5l88.4 217" stroke="#fff5006A"/><path d="M100-162.5l-196.1-128" stroke="#005bbb6A"/><path d="M100-162.5l-183.8-144.4" stroke="#005bbb6B"/><path d="M100-162.5l-140.3-186.9" stroke="#c2e1ff6B"/><path d="M100-162.5l-201.5 118" stroke="#fff5006B"/><path d="M100-162.5l171.7-158.1" stroke="#005bbb6B"/><path d="M100-162.5l208.9-103.9" stroke="#fff5006B"/><path d="M100-162.5l20.6-231.8" stroke="#fff6C"/><path d="M100-162.5l211 95.5" stroke="#fff5006D"/><path d="M100-162.5l196-123.2" stroke="#c2e1ff6D"/><path d="M100-162.5l58-223.3" stroke="#005bbb6E"/><path d="M100-162.5l75.1-216.4" stroke="#005bbb70"/><path d="M100-162.5l221 54.2" stroke="#005bbb71"/><path d="M100-162.5l-226.9-10.7" stroke="#fff50071"/><path d="M100-162.5l194.4 117.5" stroke="#005bbb71"/><path d="M100-162.5l127.9 187.5" stroke="#c2e1ff71"/><path d="M100-162.5l123.2-190.1" stroke="#fff50072"/><path d="M100-162.5l98-204" stroke="#c2e1ff72"/><path d="M100-162.5l13.1 225.6" stroke="#fff50072"/><path d="M100-162.5l-204.4-94.2" stroke="#c2e1ff73"/><path d="M100-162.5l61.9-215.6" stroke="#c2e1ff73"/><path d="M100-162.5l150.9-163.2" stroke="#c2e1ff74"/><path d="M100-162.5l-88.8-202.1" stroke="#c2e1ff75"/><path d="M100-162.5l-207.6-73.7" stroke="#c2e1ff76"/><path d="M100-162.5l74.9 205.7" stroke="#c2e1ff76"/><path d="M100-162.5l-197-88.8" stroke="#fff50078"/><path d="M100-162.5l123.7 176.6" stroke="#005bbb78"/><path d="M100-162.5l90.4-191.5" stroke="#fff5007A"/><path d="M100-162.5l-61.9-200.9" stroke="#c2e1ff7A"/><path d="M100-162.5l129.2-165.8" stroke="#c2e1ff7A"/><path d="M100-162.5l-48-203.3" stroke="#fff5007B"/><path d="M100-162.5l136.5 153" stroke="#c2e1ff7C"/><path d="M100-162.5l28.5 199.4" stroke="#005bbb7E"/><path d="M100-162.5l-201.3 5.5" stroke="#005bbb7E"/><path d="M100-162.5l194.9 18.3" stroke="#c2e1ff80"/><path d="M100-162.5l-176.1-79.7" stroke="#fff50080"/><path d="M100-162.5l-161.5-105.5" stroke="#c2e1ff80"/><path d="M100-162.5l44.6-187.5" stroke="#fff50080"/><path d="M100-162.5l-90.7-164.6" stroke="#005bbb82"/><path d="M100-162.5l186.3 21.8" stroke="#fff82"/><path d="M100-162.5l132.4 132.2" stroke="#fff82"/><path d="M100-162.5l111.7-146.9" stroke="#c2e1ff83"/><path d="M100-162.5l-176.6 53.5" stroke="#005bbb83"/><path d="M100-162.5l-43.4 175.5" stroke="#005bbb84"/><path d="M100-162.5l-87.1 154.6" stroke="#005bbb85"/><path d="M100-162.5l127.5 122.6" stroke="#fff50085"/><path d="M100-162.5l-20 175.6" stroke="#fff85"/><path d="M100-162.5l6.4-175.1" stroke="#fff85"/><path d="M100-162.5l-132.1 114.1" stroke="#005bbb85"/><path d="M100-162.5l-164.9 54" stroke="#fff50085"/><path d="M100-162.5l126.8 111.7" stroke="#fff50086"/><path d="M100-162.5l167.6-16.1" stroke="#fff50087"/><path d="M100-162.5l-125.5 103.4" stroke="#c2e1ff88"/><path d="M100-162.5l-40.9 150.5" stroke="#fff89"/><path d="M100-162.5l40.1-148.4" stroke="#fff89"/><path d="M100-162.5l-68.4 132.7" stroke="#fff8A"/><path d="M100-162.5l-64.1 132.8" stroke="#fff5008B"/><path d="M100-162.5l-99.2-101" stroke="#fff8C"/><path d="M100-162.5l43.8-132.8" stroke="#c2e1ff8C"/><path d="M100-162.5l99.4-98.1" stroke="#fff8C"/><path d="M100-162.5l137-16.2" stroke="#fff8C"/><path d="M100-162.5l65.4 115.5" stroke="#c2e1ff8D"/><path d="M100-162.5l105.9-1.7" stroke="#c2e1ff90"/><path d="M100-162.5l-87.4-52.2" stroke="#005bbb91"/><path d="M100-162.5l-75.7 62" stroke="#c2e1ff91"/><path d="M100-162.5l-84.6 29.7" stroke="#fff92"/><path d="M100-162.5l-85.4-21.3" stroke="#fff50092"/><path d="M100-162.5l-50.4-24.7" stroke="#fff94"/><path d="M100-162.5l9.9 43.3" stroke="#c2e1ff95"/></g><g class="sparcs"><path d="M89.4-140.3a5.9 5.9 0 1 1 0-11.9 5.9 5.9 0 0 1 0 11.9" fill="#fff5007D"/><path d="M99.4-114.6a6 6 0 1 1 0-11.9 6 6 0 0 1 0 11.9" fill="#005bbb7E"/><path d="M44.9-135.8a6 6 0 1 1 0-12 6 6 0 0 1 0 12" fill="#fff5007F"/><path d="M147.5-107.1a6 6 0 1 1 0-12 6 6 0 0 1 0 12" fill="#fff7F"/><path d="M168.9-188.3a6.1 6.1 0 1 1 0-12.1 6.1 6.1 0 0 1 0 12.1" fill="#005bbb80"/><path d="M52.8-86.9a6.1 6.1 0 1 1 0-12.2 6.1 6.1 0 0 1 0 12.2" fill="#fff50081"/><path d="M74.6-73.1a6.1 6.1 0 1 1 0-12.2 6.1 6.1 0 0 1 0 12.2" fill="#005bbb81"/><path d="M173.6-210.3a6.1 6.1 0 1 1 0-12.2 6.1 6.1 0 0 1 0 12.2" fill="#fff82"/><path d="M63.5-244.7a6.2 6.2 0 1 1 0-12.3 6.2 6.2 0 0 1 0 12.3" fill="#fff50082"/><path d="M5.2-180.7a6.2 6.2 0 1 1 0-12.4 6.2 6.2 0 0 1 0 12.4" fill="#005bbb82"/><path d="M82.6-259.1a6.2 6.2 0 1 1 0-12.5 6.2 6.2 0 0 1 0 12.5" fill="#fff83"/><path d="M204.3-149.8a6.2 6.2 0 1 1 0-12.4 6.2 6.2 0 0 1 0 12.4" fill="#fff50083"/><path d="M1.7-194.7a6.2 6.2 0 1 1 0-12.4 6.2 6.2 0 0 1 0 12.4" fill="#fff50083"/><path d="M187.6-92.8a6.2 6.2 0 1 1 0-12.4 6.2 6.2 0 0 1 0 12.4" fill="#fff50084"/><path d="M187.4-234.2a6.3 6.3 0 1 1 0-12.6 6.3 6.3 0 0 1 0 12.6" fill="#005bbb85"/><path d="M-9.5-99a6.3 6.3 0 1 1 0-12.7 6.3 6.3 0 0 1 0 12.7" fill="#005bbb86"/><path d="M122.2-34.6a6.3 6.3 0 1 1 0-12.7 6.3 6.3 0 0 1 0 12.7" fill="#fff86"/><path d="M202.1-234.4a6.4 6.4 0 1 1 0-12.7 6.4 6.4 0 0 1 0 12.7" fill="#c2e1ff87"/><path d="M52-36a6.4 6.4 0 1 1 0-12.8 6.4 6.4 0 0 1 0 12.8" fill="#c2e1ff87"/><path d="M26.8-47.6a6.4 6.4 0 1 1 0-12.8 6.4 6.4 0 0 1 0 12.8" fill="#fff50087"/><path d="M229.7-113.6a6.4 6.4 0 1 1 0-12.9 6.4 6.4 0 0 1 0 12.9" fill="#005bbb88"/><path d="M223.9-215.3a6.5 6.5 0 1 1 0-12.9 6.5 6.5 0 0 1 0 12.9" fill="#c2e1ff89"/><path d="M-21.1-238.5a6.5 6.5 0 1 1 0-13.1 6.5 6.5 0 0 1 0 13.1" fill="#005bbb8B"/><path d="M223.3-246.7a6.6 6.6 0 1 1 0-13.3 6.6 6.6 0 0 1 0 13.3" fill="#c2e1ff8C"/><path d="M-38.6-226.7a6.6 6.6 0 1 1 0-13.3 6.6 6.6 0 0 1 0 13.3" fill="#fff8D"/><path d="M236.8-77.8a6.7 6.7 0 1 1 0-13.3 6.7 6.7 0 0 1 0 13.3" fill="#fff5008D"/><path d="M252.1-113.8a6.7 6.7 0 1 1 0-13.4 6.7 6.7 0 0 1 0 13.4" fill="#fff5008D"/><path d="M-56.6-118.2a6.7 6.7 0 1 1 0-13.4 6.7 6.7 0 0 1 0 13.4" fill="#c2e1ff8E"/><path d="M74.2 3.3a6.7 6.7 0 1 1 0-13.4 6.7 6.7 0 0 1 0 13.4" fill="#c2e1ff8E"/><path d="M261.6-155.8a6.7 6.7 0 1 1 0-13.4 6.7 6.7 0 0 1 0 13.4" fill="#005bbb8E"/><path d="M209.8-276.7a6.7 6.7 0 1 1 0-13.5 6.7 6.7 0 0 1 0 13.5" fill="#005bbb8F"/><path d="M244.2-77.1a6.7 6.7 0 1 1 0-13.5 6.7 6.7 0 0 1 0 13.5" fill="#c2e1ff8F"/><path d="M8.7-19.1a6.7 6.7 0 1 1 0-13.4 6.7 6.7 0 0 1 0 13.4" fill="#c2e1ff8F"/><path d="M264.6-125.7a6.8 6.8 0 1 1 0-13.5 6.8 6.8 0 0 1 0 13.5" fill="#fff90"/><path d="M-22.9-273.8a6.8 6.8 0 1 1 0-13.6 6.8 6.8 0 0 1 0 13.6" fill="#005bbb90"/><path d="M43 5.6a6.8 6.8 0 1 1 0-13.6 6.8 6.8 0 0 1 0 13.6" fill="#fff50091"/><path d="M-57.3-231.1a6.9 6.9 0 1 1 0-13.8 6.9 6.9 0 0 1 0 13.8" fill="#c2e1ff92"/><path d="M89.4-332.2a6.9 6.9 0 1 1 0-13.8 6.9 6.9 0 0 1 0 13.8" fill="#fff50092"/><path d="M-59-233.4a6.9 6.9 0 1 1 0-13.8 6.9 6.9 0 0 1 0 13.8" fill="#005bbb92"/><path d="M271.8-107a6.9 6.9 0 1 1 0-13.9 6.9 6.9 0 0 1 0 13.9" fill="#fff93"/><path d="M202.8-302.1a6.9 6.9 0 1 1 0-13.9 6.9 6.9 0 0 1 0 13.9" fill="#fff50093"/><path d="M0.8-304.8a6.9 6.9 0 1 1 0-13.8 6.9 6.9 0 0 1 0 13.8" fill="#fff50093"/><path d="M280.1-187a7 7 0 1 1 0-14 7 7 0 0 1 0 14" fill="#fff50094"/><path d="M-75.9-98.5a7 7 0 1 1 0-14.1 7 7 0 0 1 0 14.1" fill="#c2e1ff95"/><path d="M-23.1-293.6a7 7 0 1 1 0-14.1 7 7 0 0 1 0 14.1" fill="#fff50095"/><path d="M-49.8-264.2a7 7 0 1 1 0-14 7 7 0 0 1 0 14" fill="#fff95"/><path d="M246.2-34.2a7.1 7.1 0 1 1 0-14.2 7.1 7.1 0 0 1 0 14.2" fill="#005bbb97"/><path d="M290.1-132.2a7.1 7.1 0 1 1 0-14.3 7.1 7.1 0 0 1 0 14.3" fill="#c2e1ff97"/><path d="M23.7 23.8a7.2 7.2 0 1 1 0-14.4 7.2 7.2 0 0 1 0 14.4" fill="#fff50099"/><path d="M296-155.7a7.2 7.2 0 1 1 0-14.5 7.2 7.2 0 0 1 0 14.5" fill="#fff99"/><path d="M300.6-167.9a7.3 7.3 0 1 1 0-14.6 7.3 7.3 0 0 1 0 14.6" fill="#005bbb9B"/><path d="M243.4-299.4a7.4 7.4 0 1 1 0-14.8 7.4 7.4 0 0 1 0 14.8" fill="#fff5009C"/><path d="M-104.8-162.1a7.4 7.4 0 1 1 0-14.7 7.4 7.4 0 0 1 0 14.7" fill="#fff9D"/><path d="M297-85.7a7.5 7.5 0 1 1 0-15 7.5 7.5 0 0 1 0 15" fill="#c2e1ff9F"/><path d="M308.3-178.1a7.5 7.5 0 1 1 0-15 7.5 7.5 0 0 1 0 15" fill="#005bbbA0"/><path d="M242 0.1a7.5 7.5 0 1 1 0-15 7.5 7.5 0 0 1 0 15" fill="#c2e1ffA0"/><path d="M-68.5-281.2a7.5 7.5 0 1 1 0-15.1 7.5 7.5 0 0 1 0 15.1" fill="#c2e1ffA0"/><path d="M-80.9-264.9a7.5 7.5 0 1 1 0-15.1 7.5 7.5 0 0 1 0 15.1" fill="#c2e1ffA1"/><path d="M253.1-5.4a7.6 7.6 0 1 1 0-15.2 7.6 7.6 0 0 1 0 15.2" fill="#c2e1ffA2"/><path d="M208.8 30.3a7.6 7.6 0 1 1 0-15.2 7.6 7.6 0 0 1 0 15.2" fill="#005bbbA2"/><path d="M-64.2-15.4a7.6 7.6 0 1 1 0-15.3 7.6 7.6 0 0 1 0 15.3" fill="#c2e1ffA3"/><path d="M81.1 61.6a7.7 7.7 0 1 1 0-15.4 7.7 7.7 0 0 1 0 15.4" fill="#005bbbA4"/><path d="M-119.1-148.8a7.8 7.8 0 1 1 0-15.5 7.8 7.8 0 0 1 0 15.5" fill="#fff500A5"/><path d="M257.8-1a7.8 7.8 0 1 1 0-15.6 7.8 7.8 0 0 1 0 15.6" fill="#fff500A6"/><path d="M-120.2-143.7a7.8 7.8 0 1 1 0-15.6 7.8 7.8 0 0 1 0 15.6" fill="#005bbbA6"/><path d="M319-189.3a7.8 7.8 0 1 1 0-15.7 7.8 7.8 0 0 1 0 15.7" fill="#fffA7"/><path d="M-57.7 3a7.9 7.9 0 1 1 0-15.7 7.9 7.9 0 0 1 0 15.7" fill="#fff500A8"/><path d="M-115.5-214a7.9 7.9 0 1 1 0-15.8 7.9 7.9 0 0 1 0 15.8" fill="#c2e1ffA8"/><path d="M147.1 64.4a7.9 7.9 0 1 1 0-15.8 7.9 7.9 0 0 1 0 15.8" fill="#fffA9"/><path d="M-34.2 24.8a7.9 7.9 0 1 1 0-15.9 7.9 7.9 0 0 1 0 15.9" fill="#c2e1ffA9"/><path d="M324.8-149.5a8 8 0 1 1 0-15.9 8 8 0 0 1 0 15.9" fill="#005bbbAA"/><path d="M-97.8-46.2a8 8 0 1 1 0-15.9 8 8 0 0 1 0 15.9" fill="#fffAA"/><path d="M-12.2-351.5a8 8 0 1 1 0-16.1 8 8 0 0 1 0 16.1" fill="#fffAB"/><path d="M326-177.4a8 8 0 1 1 0-16.1 8 8 0 0 1 0 16.1" fill="#fffAC"/><path d="M298.5-42.5a8.1 8.1 0 1 1 0-16.2 8.1 8.1 0 0 1 0 16.2" fill="#005bbbAC"/><path d="M240.4-334.7a8.1 8.1 0 1 1 0-16.2 8.1 8.1 0 0 1 0 16.2" fill="#005bbbAD"/><path d="M-84-18.3a8.1 8.1 0 1 1 0-16.3 8.1 8.1 0 0 1 0 16.3" fill="#fffAD"/><path d="M-129.2-140.3a8.2 8.2 0 1 1 0-16.4 8.2 8.2 0 0 1 0 16.4" fill="#005bbbAE"/><path d="M166.9 65.4a8.2 8.2 0 1 1 0-16.3 8.2 8.2 0 0 1 0 16.3" fill="#fffAE"/><path d="M136.2 73.5a8.2 8.2 0 1 1 0-16.4 8.2 8.2 0 0 1 0 16.4" fill="#fffAF"/><path d="M-75.7-305a8.3 8.3 0 1 1 0-16.5 8.3 8.3 0 0 1 0 16.5" fill="#005bbbB1"/><path d="M305.9-260.7a8.3 8.3 0 1 1 0-16.6 8.3 8.3 0 0 1 0 16.6" fill="#fff500B1"/><path d="M-75.9-306.4a8.3 8.3 0 1 1 0-16.6 8.3 8.3 0 0 1 0 16.6" fill="#005bbbB2"/><path d="M-109.7-256.2a8.4 8.4 0 1 1 0-16.8 8.4 8.4 0 0 1 0 16.8" fill="#fff500B3"/><path d="M-86.8-294.6a8.4 8.4 0 1 1 0-16.8 8.4 8.4 0 0 1 0 16.8" fill="#005bbbB4"/><path d="M-126.8-95.5a8.5 8.5 0 1 1 0-16.9 8.5 8.5 0 0 1 0 16.9" fill="#fff500B5"/><path d="M281.9-301.8a8.5 8.5 0 1 1 0-17 8.5 8.5 0 0 1 0 17" fill="#fffB5"/><path d="M22-375.1a8.5 8.5 0 1 1 0-17 8.5 8.5 0 0 1 0 17" fill="#fff500B6"/><path d="M-118.3-67.3a8.5 8.5 0 1 1 0-17.1 8.5 8.5 0 0 1 0 17.1" fill="#fffB6"/><path d="M297.9-281a8.6 8.6 0 1 1 0-17.1 8.6 8.6 0 0 1 0 17.1" fill="#005bbbB7"/><path d="M-33.3-347.7a8.6 8.6 0 1 1 0-17.2 8.6 8.6 0 0 1 0 17.2" fill="#fff500B8"/><path d="M249.9-335.3a8.6 8.6 0 1 1 0-17.2 8.6 8.6 0 0 1 0 17.2" fill="#fff500B8"/><path d="M159.8-381.5a8.6 8.6 0 1 1 0-17.2 8.6 8.6 0 0 1 0 17.2" fill="#fff500B8"/><path d="M167.8 71.7a8.6 8.6 0 1 1 0-17.2 8.6 8.6 0 0 1 0 17.2" fill="#fffB9"/><path d="M-134.1-126.1a8.7 8.7 0 1 1 0-17.3 8.7 8.7 0 0 1 0 17.3" fill="#005bbbB9"/><path d="M295.4-21.4a8.7 8.7 0 1 1 0-17.5 8.7 8.7 0 0 1 0 17.5" fill="#c2e1ffBB"/><path d="M188.2 65.2a8.7 8.7 0 1 1 0-17.5 8.7 8.7 0 0 1 0 17.5" fill="#fff500BB"/><path d="M296.9-284a8.7 8.7 0 1 1 0-17.5 8.7 8.7 0 0 1 0 17.5" fill="#005bbbBB"/><path d="M287.6-10.5a8.7 8.7 0 1 1 0-17.5 8.7 8.7 0 0 1 0 17.5" fill="#c2e1ffBB"/><path d="M306.5-268.3a8.8 8.8 0 1 1 0-17.5 8.8 8.8 0 0 1 0 17.5" fill="#005bbbBC"/><path d="M289.1-12.2a8.8 8.8 0 1 1 0-17.6 8.8 8.8 0 0 1 0 17.6" fill="#fffBC"/><path d="M-51.1-335.3a8.8 8.8 0 1 1 0-17.6 8.8 8.8 0 0 1 0 17.6" fill="#005bbbBC"/><path d="M332.1-197.6a8.8 8.8 0 1 1 0-17.6 8.8 8.8 0 0 1 0 17.6" fill="#005bbbBD"/><path d="M280.9-305.6a8.8 8.8 0 1 1 0-17.7 8.8 8.8 0 0 1 0 17.7" fill="#005bbbBD"/><path d="M0.5-367.9a8.9 8.9 0 1 1 0-17.8 8.9 8.9 0 0 1 0 17.8" fill="#fff500BE"/><path d="M327.9-91.5a8.9 8.9 0 1 1 0-17.8 8.9 8.9 0 0 1 0 17.8" fill="#fffBF"/><path d="M335.7-165.6a9 9 0 1 1 0-18 9 9 0 0 1 0 18" fill="#c2e1ffC0"/><path d="M261.9 17.9a9.1 9.1 0 1 1 0-18.1 9.1 9.1 0 0 1 0 18.1" fill="#c2e1ffC2"/><path d="M213.2-360a9.1 9.1 0 1 1 0-18.2 9.1 9.1 0 0 1 0 18.2" fill="#fffC2"/><path d="M335.1-166a9.1 9.1 0 1 1 0-18.2 9.1 9.1 0 0 1 0 18.2" fill="#005bbbC3"/><path d="M57.4-384.8a9.1 9.1 0 1 1 0-18.3 9.1 9.1 0 0 1 0 18.3" fill="#fffC3"/><path d="M-134.6-156.2a9.2 9.2 0 1 1 0-18.5 9.2 9.2 0 0 1 0 18.5" fill="#fffC5"/><path d="M188.4 63.7a9.2 9.2 0 1 1 0-18.4 9.2 9.2 0 0 1 0 18.4" fill="#c2e1ffC6"/><path d="M-96.1-281.2a9.3 9.3 0 1 1 0-18.5 9.3 9.3 0 0 1 0 18.5" fill="#005bbbC6"/><path d="M-83.8-297.6a9.3 9.3 0 1 1 0-18.6 9.3 9.3 0 0 1 0 18.6" fill="#005bbbC7"/><path d="M-40.3-340.2a9.3 9.3 0 1 1 0-18.5 9.3 9.3 0 0 1 0 18.5" fill="#c2e1ffC7"/><path d="M-101.5-35.2a9.3 9.3 0 1 1 0-18.6 9.3 9.3 0 0 1 0 18.6" fill="#fff500C7"/><path d="M271.7-311.2a9.3 9.3 0 1 1 0-18.7 9.3 9.3 0 0 1 0 18.7" fill="#005bbbC8"/><path d="M308.9-257.1a9.3 9.3 0 1 1 0-18.6 9.3 9.3 0 0 1 0 18.6" fill="#c2e1ffC8"/><path d="M120.6-385a9.4 9.4 0 1 1 0-18.7 9.4 9.4 0 0 1 0 18.7" fill="#c2e1ffC9"/><path d="M311-57.5a9.4 9.4 0 1 1 0-18.9 9.4 9.4 0 0 1 0 18.9" fill="#005bbbCA"/><path d="M296-276.3a9.4 9.4 0 1 1 0-18.9 9.4 9.4 0 0 1 0 18.9" fill="#fffCA"/><path d="M158-376.3a9.5 9.5 0 1 1 0-19 9.5 9.5 0 0 1 0 19" fill="#c2e1ffCC"/><path d="M175.1-369.3a9.6 9.6 0 1 1 0-19.2 9.6 9.6 0 0 1 0 19.2" fill="#fffCD"/><path d="M321-98.7a9.7 9.7 0 1 1 0-19.3 9.7 9.7 0 0 1 0 19.3" fill="#fff500CF"/><path d="M-126.9-163.6a9.7 9.7 0 1 1 0-19.3 9.7 9.7 0 0 1 0 19.3" fill="#c2e1ffCF"/><path d="M294.4-35.3a9.7 9.7 0 1 1 0-19.4 9.7 9.7 0 0 1 0 19.4" fill="#fffCF"/><path d="M227.9 34.7a9.7 9.7 0 1 1 0-19.4 9.7 9.7 0 0 1 0 19.4" fill="#c2e1ffD0"/><path d="M223.2-342.9a9.7 9.7 0 1 1 0-19.4 9.7 9.7 0 0 1 0 19.4" fill="#c2e1ffD0"/><path d="M198-356.8a9.7 9.7 0 1 1 0-19.4 9.7 9.7 0 0 1 0 19.4" fill="#fff500D0"/><path d="M113.1 72.8a9.7 9.7 0 1 1 0-19.4 9.7 9.7 0 0 1 0 19.4" fill="#c2e1ffD0"/><path d="M-104.4-246.9a9.8 9.8 0 1 1 0-19.6 9.8 9.8 0 0 1 0 19.6" fill="#005bbbD1"/><path d="M161.9-368.3a9.8 9.8 0 1 1 0-19.6 9.8 9.8 0 0 1 0 19.6" fill="#c2e1ffD2"/><path d="M250.9-315.8a9.9 9.9 0 1 1 0-19.7 9.9 9.9 0 0 1 0 19.7" fill="#fffD4"/><path d="M11.2-354.7a9.9 9.9 0 1 1 0-19.8 9.9 9.9 0 0 1 0 19.8" fill="#005bbbD5"/><path d="M-107.6-226.2a9.9 9.9 0 1 1 0-19.9 9.9 9.9 0 0 1 0 19.9" fill="#005bbbD5"/><path d="M174.9 53.2a10 10 0 1 1 0-20 10 10 0 0 1 0 20" fill="#fffD6"/><path d="M-97-241.3a10.1 10.1 0 1 1 0-20.1 10.1 10.1 0 0 1 0 20.1" fill="#005bbbD8"/><path d="M223.7 24.2a10.1 10.1 0 1 1 0-20.2 10.1 10.1 0 0 1 0 20.2" fill="#fffD8"/><path d="M190.4-343.8a10.2 10.2 0 1 1 0-20.3 10.2 10.2 0 0 1 0 20.3" fill="#005bbbDA"/><path d="M38.1-353.2a10.2 10.2 0 1 1 0-20.4 10.2 10.2 0 0 1 0 20.4" fill="#c2e1ffDB"/><path d="M229.2-318a10.2 10.2 0 1 1 0-20.5 10.2 10.2 0 0 1 0 20.5" fill="#005bbbDB"/><path d="M52-355.5a10.2 10.2 0 1 1 0-20.5 10.2 10.2 0 0 1 0 20.5" fill="#c2e1ffDC"/><path d="M236.5 0.8a10.3 10.3 0 1 1 0-20.6 10.3 10.3 0 0 1 0 20.6" fill="#c2e1ffDE"/><path d="M128.5 47.3a10.4 10.4 0 1 1 0-20.8 10.4 10.4 0 0 1 0 20.8" fill="#fff500DF"/><path d="M-101.3-146.6a10.4 10.4 0 1 1 0-20.8 10.4 10.4 0 0 1 0 20.8" fill="#c2e1ffDF"/><path d="M294.9-133.7a10.5 10.5 0 1 1 0-21 10.5 10.5 0 0 1 0 21" fill="#fffE2"/><path d="M-76.1-231.6a10.6 10.6 0 1 1 0-21.1 10.6 10.6 0 0 1 0 21.1" fill="#fff500E3"/><path d="M-61.5-257.4a10.6 10.6 0 1 1 0-21.1 10.6 10.6 0 0 1 0 21.1" fill="#fffE3"/><path d="M144.6-339.4a10.6 10.6 0 1 1 0-21.2 10.6 10.6 0 0 1 0 21.2" fill="#fffE3"/><path d="M9.3-316.4a10.6 10.6 0 1 1 0-21.3 10.6 10.6 0 0 1 0 21.3" fill="#c2e1ffE5"/><path d="M286.3-130a10.7 10.7 0 1 1 0-21.3 10.7 10.7 0 0 1 0 21.3" fill="#c2e1ffE5"/><path d="M232.4-19.6a10.7 10.7 0 1 1 0-21.3 10.7 10.7 0 0 1 0 21.3" fill="#fffE5"/><path d="M211.7-298.7a10.7 10.7 0 1 1 0-21.4 10.7 10.7 0 0 1 0 21.4" fill="#fff500E6"/><path d="M-76.6-98.3a10.7 10.7 0 1 1 0-21.4 10.7 10.7 0 0 1 0 21.4" fill="#005bbbE6"/><path d="M56.6 23.8a10.8 10.8 0 1 1 0-21.6 10.8 10.8 0 0 1 0 21.6" fill="#fff500E7"/><path d="M12.9 2.9a10.8 10.8 0 1 1 0-21.6 10.8 10.8 0 0 1 0 21.6" fill="#c2e1ffE8"/><path d="M227.5-29.1a10.8 10.8 0 1 1 0-21.6 10.8 10.8 0 0 1 0 21.6" fill="#fffE9"/><path d="M80 23.9a10.8 10.8 0 1 1 0-21.6 10.8 10.8 0 0 1 0 21.6" fill="#c2e1ffE9"/><path d="M106.4-326.8a10.8 10.8 0 1 1 0-21.6 10.8 10.8 0 0 1 0 21.6" fill="#c2e1ffE9"/><path d="M-32.1-37.6a10.8 10.8 0 1 1 0-21.7 10.8 10.8 0 0 1 0 21.7" fill="#fffE9"/><path d="M-64.9-97.6a10.9 10.9 0 1 1 0-21.8 10.9 10.9 0 0 1 0 21.8" fill="#c2e1ffEA"/><path d="M226.8-39.9a10.9 10.9 0 1 1 0-21.8 10.9 10.9 0 0 1 0 21.8" fill="#c2e1ffEB"/><path d="M267.6-167.7a10.9 10.9 0 1 1 0-21.8 10.9 10.9 0 0 1 0 21.8" fill="#fffEB"/><path d="M-25.5-48.1a11 11 0 1 1 0-22 11 11 0 0 1 0 22" fill="#c2e1ffED"/><path d="M59.1-1a11.1 11.1 0 1 1 0-22.1 11.1 11.1 0 0 1 0 22.1" fill="#fffEE"/><path d="M140.1-299.8a11.1 11.1 0 1 1 0-22.2 11.1 11.1 0 0 1 0 22.2" fill="#fffEF"/><path d="M31.6-18.7a11.1 11.1 0 1 1 0-22.3 11.1 11.1 0 0 1 0 22.3" fill="#005bbbF0"/><path d="M35.9-18.5a11.2 11.2 0 1 1 0-22.4 11.2 11.2 0 0 1 0 22.4" fill="#c2e1ffF0"/><path d="M0.8-252.3a11.2 11.2 0 1 1 0-22.5 11.2 11.2 0 0 1 0 22.5" fill="#005bbbF2"/><path d="M143.8-284a11.2 11.2 0 1 1 0-22.5 11.2 11.2 0 0 1 0 22.5" fill="#c2e1ffF2"/><path d="M199.4-249.4a11.2 11.2 0 1 1 0-22.5 11.2 11.2 0 0 1 0 22.5" fill="#fffF2"/><path d="M237-167.5a11.3 11.3 0 1 1 0-22.5 11.3 11.3 0 0 1 0 22.5" fill="#c2e1ffF2"/><path d="M165.4-35.7a11.3 11.3 0 1 1 0-22.6 11.3 11.3 0 0 1 0 22.6" fill="#fffF3"/><path d="M205.9-152.7a11.5 11.5 0 1 1 0-23 11.5 11.5 0 0 1 0 23" fill="#c2e1ffF8"/><path d="M12.6-203.2a11.5 11.5 0 1 1 0-23 11.5 11.5 0 0 1 0 23" fill="#fff500F8"/><path d="M24.3-89a11.5 11.5 0 1 1 0-23.1 11.5 11.5 0 0 1 0 23.1" fill="#c2e1ffF9"/><path d="M15.4-121.2a11.6 11.6 0 1 1 0-23.2 11.6 11.6 0 0 1 0 23.2" fill="#c2e1ffFA"/><path d="M14.6-172.2a11.6 11.6 0 1 1 0-23.2 11.6 11.6 0 0 1 0 23.2" fill="#005bbbFA"/><path d="M49.6-175.4a11.7 11.7 0 1 1 0-23.5 11.7 11.7 0 0 1 0 23.5" fill="#fff500FD"/><path d="M109.9-107.4a11.8 11.8 0 1 1 0-23.5 11.8 11.8 0 0 1 0 23.5" fill="#fff500FD"/></g></svg>