<svg width="1200" height="675" viewBox="-500 -500 1200 675" xmlns="http://www.w3.org/2000/svg"><path d="M-500-500h1200v675h-1200z" fill="#000"/><style>.sparkles path{stroke-linecap:round; stroke-width:1}</style><g class="sparkles"><path d="M100-162.5l-6.4 7.3" stroke="#06d6a032"/><path d="M100-162.5l-21 29.5" stroke="#06d6a032"/><path d="M100-162.5l-12.1-45.2" stroke="#06d6a032"/><path d="M100-162.5l48.5 15.8" stroke="#ffd16633"/><path d="M100-162.5l-21.3-54.2" stroke="#ef476f33"/><path d="M100-162.5l14.9 60.3" stroke="#073b4c33"/><path d="M100-162.5l79-4.5" stroke="#118ab234"/><path d="M100-162.5l-76.4 26" stroke="#ffd16635"/><path d="M100-162.5l55.9 58.7" stroke="#118ab235"/><path d="M100-162.5l60.5 58.9" stroke="#ffd16635"/><path d="M100-162.5l-38.4-94.7" stroke="#073b4c36"/><path d="M100-162.5l-47.7 96.8" stroke="#118ab237"/><path d="M100-162.5l-38.1 103.6" stroke="#ffd16637"/><path d="M100-162.5l34 107.6" stroke="#073b4c38"/><path d="M100-162.5l-69 101.6" stroke="#118ab239"/><path d="M100-162.5l38.2 118.3" stroke="#06d6a039"/><path d="M100-162.5l23.3-124.1" stroke="#118ab239"/><path d="M100-162.5l50.3-116.7" stroke="#ffd16639"/><path d="M100-162.5l126-30" stroke="#ef476f3A"/><path d="M100-162.5l-12.8-133.2" stroke="#118ab23A"/><path d="M100-162.5l-132.1-26.5" stroke="#ffd1663A"/><path d="M100-162.5l118.2-74.1" stroke="#ef476f3B"/><path d="M100-162.5l11.2-141.3" stroke="#ffd1663C"/><path d="M100-162.5l142.3-22.9" stroke="#073b4c3C"/><path d="M100-162.5l-144.6 41.3" stroke="#ef476f3D"/><path d="M100-162.5l-121.4 90.2" stroke="#ef476f3D"/><path d="M100-162.5l8.1 151.6" stroke="#06d6a03D"/><path d="M100-162.5l-71.8-134.5" stroke="#118ab23D"/><path d="M100-162.5l-145.7-56.1" stroke="#118ab23E"/><path d="M100-162.5l79.8 145.9" stroke="#ef476f40"/><path d="M100-162.5l39.6 165.9" stroke="#ef476f41"/><path d="M100-162.5l104.8-139.6" stroke="#ef476f42"/><path d="M100-162.5l171.6 36.5" stroke="#073b4c42"/><path d="M100-162.5l-176.9-44.7" stroke="#ef476f44"/><path d="M100-162.5l-181.1-23.8" stroke="#ef476f44"/><path d="M100-162.5l-150.6 105.9" stroke="#06d6a044"/><path d="M100-162.5l-167.2-91.3" stroke="#ffd16646"/><path d="M100-162.5l-194 17.6" stroke="#ef476f47"/><path d="M100-162.5l-154.4-119.1" stroke="#ffd16647"/><path d="M100-162.5l-178 80.1" stroke="#06d6a047"/><path d="M100-162.5l-102 169" stroke="#118ab248"/><path d="M100-162.5l149.6 129" stroke="#118ab248"/><path d="M100-162.5l-134.8 145.2" stroke="#073b4c48"/><path d="M100-162.5l86.9 180.9" stroke="#073b4c49"/><path d="M100-162.5l-48.1 195.5" stroke="#06d6a049"/><path d="M100-162.5l-164.3 116.8" stroke="#06d6a049"/><path d="M100-162.5l-49.5 195.9" stroke="#ffd1664A"/><path d="M100-162.5l187.5 78.6" stroke="#06d6a04A"/><path d="M100-162.5l163.5 125.3" stroke="#06d6a04B"/><path d="M100-162.5l-47 204.8" stroke="#073b4c4D"/><path d="M100-162.5l-122.9 172.6" stroke="#ef476f4D"/><path d="M100-162.5l-22.6-211.3" stroke="#ef476f4E"/><path d="M100-162.5l-131.6-167.2" stroke="#06d6a04E"/><path d="M100-162.5l196.8-89.4" stroke="#ffd1664F"/><path d="M100-162.5l-96.5-194.5" stroke="#118ab250"/><path d="M100-162.5l123.5 181.1" stroke="#ef476f51"/><path d="M100-162.5l192 107.7" stroke="#073b4c51"/><path d="M100-162.5l159.1 152.3" stroke="#118ab251"/><path d="M100-162.5l220.8 0" stroke="#118ab252"/><path d="M100-162.5l192.5-109.1" stroke="#06d6a052"/><path d="M100-162.5l120-187.7" stroke="#ef476f53"/><path d="M100-162.5l222.4-29.4" stroke="#118ab254"/><path d="M100-162.5l157.5 161.7" stroke="#ffd16655"/><path d="M100-162.5l-38.7-223.2" stroke="#118ab255"/><path d="M100-162.5l-163.6-158.5" stroke="#073b4c56"/><path d="M100-162.5l175-146.8" stroke="#ef476f57"/><path d="M100-162.5l228.7-1.4" stroke="#ffd16657"/><path d="M100-162.5l188.7 129.7" stroke="#ffd16657"/><path d="M100-162.5l86.4 213.2" stroke="#ef476f58"/><path d="M100-162.5l89.1 212.5" stroke="#118ab258"/><path d="M100-162.5l-74.7 218.1" stroke="#073b4c59"/><path d="M100-162.5l-3.9-230.7" stroke="#06d6a059"/><path d="M100-162.5l147.1-178.2" stroke="#118ab259"/><path d="M100-162.5l229.2-31.1" stroke="#118ab259"/><path d="M100-162.5l-230.4 30" stroke="#073b4c5A"/><path d="M100-162.5l-168.9-159.7" stroke="#ef476f5B"/><path d="M100-162.5l180.8-146.6" stroke="#ffd1665B"/><path d="M100-162.5l145.1-182.4" stroke="#118ab25B"/><path d="M100-162.5l154.5 175.1" stroke="#06d6a05C"/><path d="M100-162.5l-172.7 158" stroke="#06d6a05D"/><path d="M100-162.5l206.4 110.6" stroke="#073b4c5D"/><path d="M100-162.5l-234.5 8.7" stroke="#118ab25E"/><path d="M100-162.5l233.7 25.2" stroke="#073b4c5E"/><path d="M100-162.5l-5.5 235.2" stroke="#118ab25F"/><path d="M100-162.5l-2-235.3" stroke="#073b4c5F"/><path d="M100-162.5l-120 202.8" stroke="#06d6a060"/><path d="M100-162.5l-58 228.6" stroke="#ef476f60"/><path d="M100-162.5l-184.8 146.5" stroke="#06d6a061"/><path d="M100-162.5l-232.5 40.4" stroke="#ffd16661"/><path d="M100-162.5l-78.3-222.8" stroke="#118ab262"/><path d="M100-162.5l180-152.8" stroke="#073b4c62"/><path d="M100-162.5l231.7-45.9" stroke="#ffd16663"/><path d="M100-162.5l-185.1 146.8" stroke="#118ab264"/><path d="M100-162.5l-236.2 6" stroke="#06d6a064"/><path d="M100-162.5l-9.7 236" stroke="#ef476f65"/><path d="M100-162.5l157.2 176.3" stroke="#ef476f65"/><path d="M100-162.5l213-101.9" stroke="#118ab265"/><path d="M100-162.5l62.1 227.8" stroke="#073b4c65"/><path d="M100-162.5l224 73.4" stroke="#073b4c67"/><path d="M100-162.5l218.7 87.7" stroke="#ffd16667"/><path d="M100-162.5l-235.6 0.6" stroke="#118ab267"/><path d="M100-162.5l-160.5 171.7" stroke="#06d6a069"/><path d="M100-162.5l-164.6 167.1" stroke="#073b4c69"/><path d="M100-162.5l222.4-72.6" stroke="#06d6a06A"/><path d="M100-162.5l-217.5 84.8" stroke="#ef476f6B"/><path d="M100-162.5l5.3 233.1" stroke="#06d6a06C"/><path d="M100-162.5l1.5 231.7" stroke="#ef476f6D"/><path d="M100-162.5l143.8 181.6" stroke="#073b4c6D"/><path d="M100-162.5l-77.8 217.5" stroke="#06d6a06E"/><path d="M100-162.5l0.3-229.6" stroke="#073b4c6F"/><path d="M100-162.5l-223.8-42.2" stroke="#06d6a071"/><path d="M100-162.5l-57.6-220.2" stroke="#ffd16671"/><path d="M100-162.5l207.5 93.1" stroke="#ef476f71"/><path d="M100-162.5l194.3 113.2" stroke="#118ab273"/><path d="M100-162.5l62.4-215.8" stroke="#ffd16673"/><path d="M100-162.5l201-99.4" stroke="#118ab273"/><path d="M100-162.5l-46.2-219.1" stroke="#06d6a073"/><path d="M100-162.5l207.2 82.5" stroke="#06d6a074"/><path d="M100-162.5l218.4 43.9" stroke="#ef476f74"/><path d="M100-162.5l-88.8 204" stroke="#118ab274"/><path d="M100-162.5l-166.4 146.9" stroke="#ef476f75"/><path d="M100-162.5l-216.3 47.6" stroke="#06d6a075"/><path d="M100-162.5l64.7-210.5" stroke="#ffd16676"/><path d="M100-162.5l-156.8 154.2" stroke="#073b4c76"/><path d="M100-162.5l-203.8 78.7" stroke="#118ab277"/><path d="M100-162.5l-213.5 27.8" stroke="#073b4c78"/><path d="M100-162.5l141.9-161.8" stroke="#ef476f78"/><path d="M100-162.5l-206.7-55.6" stroke="#06d6a079"/><path d="M100-162.5l147.2-154.6" stroke="#ef476f79"/><path d="M100-162.5l61.1 202.7" stroke="#ef476f7A"/><path d="M100-162.5l-193.5 85.5" stroke="#ffd1667A"/><path d="M100-162.5l-48 204.5" stroke="#118ab27A"/><path d="M100-162.5l-58.2-201.8" stroke="#06d6a07A"/><path d="M100-162.5l206.8 17.1" stroke="#06d6a07B"/><path d="M100-162.5l178.2-105.9" stroke="#06d6a07B"/><path d="M100-162.5l-207.1 1" stroke="#073b4c7C"/><path d="M100-162.5l168.2-116.7" stroke="#ef476f7C"/><path d="M100-162.5l168.3-104.8" stroke="#ef476f7F"/><path d="M100-162.5l-139.1-138.9" stroke="#ef476f7F"/><path d="M100-162.5l176.1-84.2" stroke="#118ab280"/><path d="M100-162.5l-45.9-188.7" stroke="#ef476f80"/><path d="M100-162.5l39.7-189.8" stroke="#ef476f80"/><path d="M100-162.5l116.8 153.8" stroke="#118ab280"/><path d="M100-162.5l-138.7 132.7" stroke="#118ab281"/><path d="M100-162.5l-43.5 182.9" stroke="#073b4c82"/><path d="M100-162.5l-56.5 178" stroke="#ef476f82"/><path d="M100-162.5l96.4 156.7" stroke="#ef476f83"/><path d="M100-162.5l-174.1-45.4" stroke="#ffd16684"/><path d="M100-162.5l2.5-175.5" stroke="#ffd16685"/><path d="M100-162.5l-47.2-168.2" stroke="#073b4c85"/><path d="M100-162.5l-89.1 144.6" stroke="#118ab286"/><path d="M100-162.5l-127.5-106.8" stroke="#118ab287"/><path d="M100-162.5l-12-163.3" stroke="#073b4c88"/><path d="M100-162.5l162.5 2.7" stroke="#118ab288"/><path d="M100-162.5l87.4-134.8" stroke="#ffd16688"/><path d="M100-162.5l-149.1 53.7" stroke="#118ab289"/><path d="M100-162.5l10.1 157.8" stroke="#ef476f89"/><path d="M100-162.5l54.5 148" stroke="#118ab289"/><path d="M100-162.5l111-108.8" stroke="#06d6a089"/><path d="M100-162.5l-113.1 106.7" stroke="#06d6a089"/><path d="M100-162.5l18.4-152.4" stroke="#06d6a089"/><path d="M100-162.5l-4.4 151.7" stroke="#ef476f8A"/><path d="M100-162.5l84.6 113.3" stroke="#073b4c8C"/><path d="M100-162.5l-101.1-95.7" stroke="#118ab28C"/><path d="M100-162.5l-129.8-47" stroke="#118ab28C"/><path d="M100-162.5l54.5 125" stroke="#118ab28C"/><path d="M100-162.5l-13.6 133.4" stroke="#118ab28D"/><path d="M100-162.5l-51.3-117.7" stroke="#ffd1668D"/><path d="M100-162.5l-54.7-112.6" stroke="#118ab28E"/><path d="M100-162.5l52.6-106.8" stroke="#ef476f8F"/><path d="M100-162.5l50.7-105.7" stroke="#06d6a08F"/><path d="M100-162.5l107 12.2" stroke="#ffd16690"/><path d="M100-162.5l55.5 81.3" stroke="#06d6a091"/><path d="M100-162.5l-66.6-59.1" stroke="#073b4c92"/><path d="M100-162.5l-83.4-30.2" stroke="#ffd16692"/><path d="M100-162.5l75 45.7" stroke="#118ab292"/><path d="M100-162.5l-85.3 14.4" stroke="#073b4c92"/><path d="M100-162.5l-84-7" stroke="#073b4c92"/><path d="M100-162.5l-49.4 65.8" stroke="#ef476f92"/><path d="M100-162.5l7.5 10.7" stroke="#118ab295"/><path d="M100-162.5l7.5-4.9" stroke="#ffd16695"/></g><g class="sparcs"><path d="M93.6-149.3a5.9 5.9 0 1 1 0-11.8 5.9 5.9 0 0 1 0 11.8" fill="#ffd1667D"/><path d="M79-127.1a5.9 5.9 0 1 1 0-11.8 5.9 5.9 0 0 1 0 11.8" fill="#073b4c7D"/><path d="M87.9-201.8a6 6 0 1 1 0-11.9 6 6 0 0 1 0 11.9" fill="#073b4c7E"/><path d="M148.5-140.7a6 6 0 1 1 0-12 6 6 0 0 1 0 12" fill="#ffd1667E"/><path d="M78.7-210.7a6 6 0 1 1 0-12 6 6 0 0 1 0 12" fill="#118ab27F"/><path d="M114.9-96.2a6 6 0 1 1 0-12 6 6 0 0 1 0 12" fill="#118ab27F"/><path d="M179-160.9a6.1 6.1 0 1 1 0-12.2 6.1 6.1 0 0 1 0 12.2" fill="#073b4c80"/><path d="M23.6-130.4a6.1 6.1 0 1 1 0-12.2 6.1 6.1 0 0 1 0 12.2" fill="#06d6a080"/><path d="M155.9-97.7a6.1 6.1 0 1 1 0-12.2 6.1 6.1 0 0 1 0 12.2" fill="#ffd16680"/><path d="M160.5-97.5a6.1 6.1 0 1 1 0-12.2 6.1 6.1 0 0 1 0 12.2" fill="#118ab281"/><path d="M61.6-251a6.2 6.2 0 1 1 0-12.4 6.2 6.2 0 0 1 0 12.4" fill="#ffd16683"/><path d="M52.3-59.4a6.2 6.2 0 1 1 0-12.5 6.2 6.2 0 0 1 0 12.5" fill="#06d6a084"/><path d="M61.9-52.6a6.2 6.2 0 1 1 0-12.5 6.2 6.2 0 0 1 0 12.5" fill="#ef476f84"/><path d="M134-48.6a6.3 6.3 0 1 1 0-12.6 6.3 6.3 0 0 1 0 12.6" fill="#073b4c84"/><path d="M31-54.6a6.3 6.3 0 1 1 0-12.6 6.3 6.3 0 0 1 0 12.6" fill="#073b4c86"/><path d="M138.2-37.8a6.3 6.3 0 1 1 0-12.7 6.3 6.3 0 0 1 0 12.7" fill="#118ab286"/><path d="M123.3-280.3a6.4 6.4 0 1 1 0-12.7 6.4 6.4 0 0 1 0 12.7" fill="#ffd16687"/><path d="M150.3-272.8a6.4 6.4 0 1 1 0-12.8 6.4 6.4 0 0 1 0 12.8" fill="#06d6a087"/><path d="M226-186.1a6.4 6.4 0 1 1 0-12.7 6.4 6.4 0 0 1 0 12.7" fill="#ef476f87"/><path d="M87.2-289.2a6.4 6.4 0 1 1 0-12.9 6.4 6.4 0 0 1 0 12.9" fill="#ef476f88"/><path d="M-32.1-182.5a6.4 6.4 0 1 1 0-12.9 6.4 6.4 0 0 1 0 12.9" fill="#ffd16688"/><path d="M218.2-230.1a6.5 6.5 0 1 1 0-13 6.5 6.5 0 0 1 0 13" fill="#073b4c89"/><path d="M111.2-297.3a6.5 6.5 0 1 1 0-13 6.5 6.5 0 0 1 0 13" fill="#ef476f8A"/><path d="M242.3-178.9a6.5 6.5 0 1 1 0-13 6.5 6.5 0 0 1 0 13" fill="#ffd1668A"/><path d="M-44.6-114.6a6.6 6.6 0 1 1 0-13.2 6.6 6.6 0 0 1 0 13.2" fill="#ffd1668B"/><path d="M-21.4-65.7a6.6 6.6 0 1 1 0-13.2 6.6 6.6 0 0 1 0 13.2" fill="#ef476f8C"/><path d="M108.1-4.3a6.6 6.6 0 1 1 0-13.2 6.6 6.6 0 0 1 0 13.2" fill="#ef476f8C"/><path d="M28.2-290.4a6.6 6.6 0 1 1 0-13.2 6.6 6.6 0 0 1 0 13.2" fill="#118ab28C"/><path d="M-45.7-212a6.6 6.6 0 1 1 0-13.3 6.6 6.6 0 0 1 0 13.3" fill="#ffd1668D"/><path d="M179.8-9.8a6.8 6.8 0 1 1 0-13.6 6.8 6.8 0 0 1 0 13.6" fill="#118ab28F"/><path d="M139.6 10.2a6.8 6.8 0 1 1 0-13.7 6.8 6.8 0 0 1 0 13.7" fill="#118ab291"/><path d="M204.8-295.2a6.9 6.9 0 1 1 0-13.7 6.9 6.9 0 0 1 0 13.7" fill="#ef476f92"/><path d="M271.6-119.1a6.9 6.9 0 1 1 0-13.8 6.9 6.9 0 0 1 0 13.8" fill="#118ab292"/><path d="M-76.9-200.2a7 7 0 1 1 0-14 7 7 0 0 1 0 14" fill="#073b4c94"/><path d="M-81.1-179.3a7 7 0 1 1 0-14 7 7 0 0 1 0 14" fill="#118ab294"/><path d="M-50.6-49.6a7 7 0 1 1 0-14 7 7 0 0 1 0 14" fill="#118ab295"/><path d="M-67.2-246.7a7.1 7.1 0 1 1 0-14.2 7.1 7.1 0 0 1 0 14.2" fill="#ef476f97"/><path d="M-94-137.7a7.2 7.2 0 1 1 0-14.4 7.2 7.2 0 0 1 0 14.4" fill="#ef476f99"/><path d="M-54.4-274.4a7.2 7.2 0 1 1 0-14.4 7.2 7.2 0 0 1 0 14.4" fill="#06d6a099"/><path d="M-78-75.2a7.2 7.2 0 1 1 0-14.4 7.2 7.2 0 0 1 0 14.4" fill="#ef476f99"/><path d="M-2 13.7a7.2 7.2 0 1 1 0-14.4 7.2 7.2 0 0 1 0 14.4" fill="#073b4c9A"/><path d="M249.6-26.3a7.2 7.2 0 1 1 0-14.4 7.2 7.2 0 0 1 0 14.4" fill="#118ab29A"/><path d="M-34.8-10a7.3 7.3 0 1 1 0-14.5 7.3 7.3 0 0 1 0 14.5" fill="#073b4c9A"/><path d="M186.9 25.7a7.3 7.3 0 1 1 0-14.6 7.3 7.3 0 0 1 0 14.6" fill="#ffd1669B"/><path d="M51.9 40.3a7.3 7.3 0 1 1 0-14.6 7.3 7.3 0 0 1 0 14.6" fill="#ef476f9B"/><path d="M-64.3-38.3a7.3 7.3 0 1 1 0-14.7 7.3 7.3 0 0 1 0 14.7" fill="#06d6a09C"/><path d="M50.5 40.7a7.3 7.3 0 1 1 0-14.6 7.3 7.3 0 0 1 0 14.6" fill="#118ab29C"/><path d="M287.5-76.6a7.4 7.4 0 1 1 0-14.7 7.4 7.4 0 0 1 0 14.7" fill="#06d6a09C"/><path d="M263.5-29.8a7.4 7.4 0 1 1 0-14.8 7.4 7.4 0 0 1 0 14.8" fill="#118ab29E"/><path d="M53 49.8a7.5 7.5 0 1 1 0-15 7.5 7.5 0 0 1 0 15" fill="#ffd166A0"/><path d="M-22.9 17.7a7.6 7.6 0 1 1 0-15.2 7.6 7.6 0 0 1 0 15.2" fill="#ffd166A1"/><path d="M77.4-366.2a7.6 7.6 0 1 1 0-15.2 7.6 7.6 0 0 1 0 15.2" fill="#ffd166A1"/><path d="M-31.6-322.1a7.6 7.6 0 1 1 0-15.2 7.6 7.6 0 0 1 0 15.2" fill="#118ab2A1"/><path d="M296.8-244.2a7.7 7.7 0 1 1 0-15.4 7.7 7.7 0 0 1 0 15.4" fill="#06d6a0A3"/><path d="M3.5-349.3a7.7 7.7 0 1 1 0-15.4 7.7 7.7 0 0 1 0 15.4" fill="#06d6a0A4"/><path d="M223.5 26.4a7.8 7.8 0 1 1 0-15.5 7.8 7.8 0 0 1 0 15.5" fill="#118ab2A5"/><path d="M292-47.1a7.8 7.8 0 1 1 0-15.5 7.8 7.8 0 0 1 0 15.5" fill="#06d6a0A6"/><path d="M259.1-2.4a7.8 7.8 0 1 1 0-15.6 7.8 7.8 0 0 1 0 15.6" fill="#118ab2A6"/><path d="M320.8-154.7a7.8 7.8 0 1 1 0-15.6 7.8 7.8 0 0 1 0 15.6" fill="#118ab2A6"/><path d="M292.5-263.8a7.8 7.8 0 1 1 0-15.7 7.8 7.8 0 0 1 0 15.7" fill="#073b4cA7"/><path d="M220-342.3a7.9 7.9 0 1 1 0-15.8 7.9 7.9 0 0 1 0 15.8" fill="#ef476fA8"/><path d="M322.4-184a7.9 7.9 0 1 1 0-15.9 7.9 7.9 0 0 1 0 15.9" fill="#ffd166A9"/><path d="M257.5 7.2a8 8 0 1 1 0-16 8 8 0 0 1 0 16" fill="#06d6a0AA"/><path d="M61.3-377.7a8 8 0 1 1 0-16.1 8 8 0 0 1 0 16.1" fill="#ef476fAB"/><path d="M-63.6-312.9a8.1 8.1 0 1 1 0-16.2 8.1 8.1 0 0 1 0 16.2" fill="#ffd166AC"/><path d="M275-301.2a8.1 8.1 0 1 1 0-16.2 8.1 8.1 0 0 1 0 16.2" fill="#06d6a0AD"/><path d="M328.7-155.8a8.1 8.1 0 1 1 0-16.3 8.1 8.1 0 0 1 0 16.3" fill="#ef476fAD"/><path d="M288.7-24.6a8.1 8.1 0 1 1 0-16.3 8.1 8.1 0 0 1 0 16.3" fill="#06d6a0AD"/><path d="M186.4 58.9a8.2 8.2 0 1 1 0-16.4 8.2 8.2 0 0 1 0 16.4" fill="#118ab2AF"/><path d="M189.1 58.2a8.2 8.2 0 1 1 0-16.4 8.2 8.2 0 0 1 0 16.4" fill="#118ab2AF"/><path d="M25.3 63.8a8.2 8.2 0 1 1 0-16.4 8.2 8.2 0 0 1 0 16.4" fill="#ffd166AF"/><path d="M96.1-384.9a8.2 8.2 0 1 1 0-16.5 8.2 8.2 0 0 1 0 16.5" fill="#073b4cAF"/><path d="M247.1-332.4a8.2 8.2 0 1 1 0-16.5 8.2 8.2 0 0 1 0 16.5" fill="#ef476fB0"/><path d="M329.2-185.3a8.3 8.3 0 1 1 0-16.5 8.3 8.3 0 0 1 0 16.5" fill="#073b4cB0"/><path d="M-130.4-124.2a8.3 8.3 0 1 1 0-16.7 8.3 8.3 0 0 1 0 16.7" fill="#06d6a0B2"/><path d="M-68.9-313.9a8.3 8.3 0 1 1 0-16.7 8.3 8.3 0 0 1 0 16.7" fill="#118ab2B2"/><path d="M280.8-300.8a8.4 8.4 0 1 1 0-16.7 8.4 8.4 0 0 1 0 16.7" fill="#ffd166B2"/><path d="M245.1-336.5a8.4 8.4 0 1 1 0-16.7 8.4 8.4 0 0 1 0 16.7" fill="#06d6a0B3"/><path d="M254.5 21a8.4 8.4 0 1 1 0-16.8 8.4 8.4 0 0 1 0 16.8" fill="#ef476fB4"/><path d="M-72.7 3.9a8.5 8.5 0 1 1 0-16.9 8.5 8.5 0 0 1 0 16.9" fill="#118ab2B5"/><path d="M306.4-43.5a8.5 8.5 0 1 1 0-16.9 8.5 8.5 0 0 1 0 16.9" fill="#118ab2B5"/><path d="M-134.5-145.3a8.5 8.5 0 1 1 0-17 8.5 8.5 0 0 1 0 17" fill="#ffd166B6"/><path d="M333.7-128.7a8.6 8.6 0 1 1 0-17.1 8.6 8.6 0 0 1 0 17.1" fill="#ef476fB7"/><path d="M94.5 81.3a8.6 8.6 0 1 1 0-17.2 8.6 8.6 0 0 1 0 17.2" fill="#ffd166B8"/><path d="M98-389.2a8.6 8.6 0 1 1 0-17.2 8.6 8.6 0 0 1 0 17.2" fill="#06d6a0B8"/><path d="M-20 48.9a8.6 8.6 0 1 1 0-17.3 8.6 8.6 0 0 1 0 17.3" fill="#ef476fB9"/><path d="M42 74.8a8.7 8.7 0 1 1 0-17.4 8.7 8.7 0 0 1 0 17.4" fill="#ef476fBA"/><path d="M-84.8-7.3a8.7 8.7 0 1 1 0-17.4 8.7 8.7 0 0 1 0 17.4" fill="#073b4cBA"/><path d="M-132.5-113.3a8.7 8.7 0 1 1 0-17.5 8.7 8.7 0 0 1 0 17.5" fill="#ef476fBB"/><path d="M21.7-376.5a8.8 8.8 0 1 1 0-17.5 8.8 8.8 0 0 1 0 17.5" fill="#073b4cBB"/><path d="M280-306.5a8.8 8.8 0 1 1 0-17.5 8.8 8.8 0 0 1 0 17.5" fill="#118ab2BB"/><path d="M331.7-199.6a8.8 8.8 0 1 1 0-17.6 8.8 8.8 0 0 1 0 17.6" fill="#073b4cBD"/><path d="M-85.1-6.8a8.9 8.9 0 1 1 0-17.8 8.9 8.9 0 0 1 0 17.8" fill="#073b4cBE"/><path d="M-136.2-147.6a8.9 8.9 0 1 1 0-17.8 8.9 8.9 0 0 1 0 17.8" fill="#06d6a0BE"/><path d="M90.3 82.4a8.9 8.9 0 1 1 0-17.8 8.9 8.9 0 0 1 0 17.8" fill="#06d6a0BF"/><path d="M257.2 22.7a8.9 8.9 0 1 1 0-17.9 8.9 8.9 0 0 1 0 17.9" fill="#118ab2BF"/><path d="M313-255.5a8.9 8.9 0 1 1 0-17.9 8.9 8.9 0 0 1 0 17.9" fill="#073b4cBF"/><path d="M162.1 74.3a9 9 0 1 1 0-18 9 9 0 0 1 0 18" fill="#118ab2C0"/><path d="M324-80a9 9 0 1 1 0-18.1 9 9 0 0 1 0 18.1" fill="#ef476fC2"/><path d="M318.7-65.8a9.1 9.1 0 1 1 0-18.1 9.1 9.1 0 0 1 0 18.1" fill="#073b4cC2"/><path d="M-135.6-152.8a9.1 9.1 0 1 1 0-18.2 9.1 9.1 0 0 1 0 18.2" fill="#118ab2C2"/><path d="M-60.5 18.4a9.2 9.2 0 1 1 0-18.4 9.2 9.2 0 0 1 0 18.4" fill="#118ab2C4"/><path d="M-64.6 13.8a9.2 9.2 0 1 1 0-18.4 9.2 9.2 0 0 1 0 18.4" fill="#073b4cC5"/><path d="M322.4-225.8a9.3 9.3 0 1 1 0-18.6 9.3 9.3 0 0 1 0 18.6" fill="#06d6a0C6"/><path d="M-117.5-68.4a9.3 9.3 0 1 1 0-18.6 9.3 9.3 0 0 1 0 18.6" fill="#ffd166C7"/><path d="M105.3 80a9.3 9.3 0 1 1 0-18.7 9.3 9.3 0 0 1 0 18.7" fill="#ffd166C8"/><path d="M101.5 78.6a9.4 9.4 0 1 1 0-18.9 9.4 9.4 0 0 1 0 18.9" fill="#ffd166CA"/><path d="M243.8 28.5a9.4 9.4 0 1 1 0-18.8 9.4 9.4 0 0 1 0 18.8" fill="#06d6a0CA"/><path d="M22.2 64.5a9.5 9.5 0 1 1 0-19 9.5 9.5 0 0 1 0 19" fill="#ef476fCB"/><path d="M100.3-382.5a9.6 9.6 0 1 1 0-19.1 9.6 9.6 0 0 1 0 19.1" fill="#073b4cCD"/><path d="M-123.8-195a9.6 9.6 0 1 1 0-19.3 9.6 9.6 0 0 1 0 19.3" fill="#06d6a0CF"/><path d="M42.4-373a9.7 9.7 0 1 1 0-19.3 9.7 9.7 0 0 1 0 19.3" fill="#073b4cCF"/><path d="M307.5-59.7a9.7 9.7 0 1 1 0-19.3 9.7 9.7 0 0 1 0 19.3" fill="#06d6a0CF"/><path d="M294.3-39.5a9.8 9.8 0 1 1 0-19.5 9.8 9.8 0 0 1 0 19.5" fill="#ef476fD1"/><path d="M162.4-368.5a9.8 9.8 0 1 1 0-19.5 9.8 9.8 0 0 1 0 19.5" fill="#ef476fD2"/><path d="M301-252.1a9.8 9.8 0 1 1 0-19.6 9.8 9.8 0 0 1 0 19.6" fill="#ef476fD2"/><path d="M53.8-371.7a9.8 9.8 0 1 1 0-19.7 9.8 9.8 0 0 1 0 19.7" fill="#118ab2D2"/><path d="M307.2-70.1a9.8 9.8 0 1 1 0-19.7 9.8 9.8 0 0 1 0 19.7" fill="#118ab2D3"/><path d="M318.4-108.7a9.8 9.8 0 1 1 0-19.7 9.8 9.8 0 0 1 0 19.7" fill="#073b4cD3"/><path d="M11.2 51.3a9.9 9.9 0 1 1 0-19.7 9.9 9.9 0 0 1 0 19.7" fill="#ef476fD3"/><path d="M-66.4-5.7a9.9 9.9 0 1 1 0-19.8 9.9 9.9 0 0 1 0 19.8" fill="#ffd166D4"/><path d="M-116.3-105a9.9 9.9 0 1 1 0-19.8 9.9 9.9 0 0 1 0 19.8" fill="#06d6a0D4"/><path d="M164.7-363.1a9.9 9.9 0 1 1 0-19.8 9.9 9.9 0 0 1 0 19.8" fill="#118ab2D5"/><path d="M-56.8 1.7a9.9 9.9 0 1 1 0-19.9 9.9 9.9 0 0 1 0 19.9" fill="#ffd166D5"/><path d="M-103.8-73.8a10 10 0 1 1 0-20 10 10 0 0 1 0 20" fill="#073b4cD6"/><path d="M-113.5-124.6a10.1 10.1 0 1 1 0-20.1 10.1 10.1 0 0 1 0 20.1" fill="#ffd166D8"/><path d="M241.9-314.2a10.1 10.1 0 1 1 0-20.2 10.1 10.1 0 0 1 0 20.2" fill="#ffd166D8"/><path d="M-106.7-208a10.1 10.1 0 1 1 0-20.2 10.1 10.1 0 0 1 0 20.2" fill="#073b4cD9"/><path d="M247.2-307a10.1 10.1 0 1 1 0-20.2 10.1 10.1 0 0 1 0 20.2" fill="#ffd166D9"/><path d="M161.1 50.4a10.2 10.2 0 1 1 0-20.4 10.2 10.2 0 0 1 0 20.4" fill="#ef476fDA"/><path d="M-93.5-66.8a10.2 10.2 0 1 1 0-20.4 10.2 10.2 0 0 1 0 20.4" fill="#ffd166DA"/><path d="M52 52.2a10.2 10.2 0 1 1 0-20.4 10.2 10.2 0 0 1 0 20.4" fill="#118ab2DB"/><path d="M41.8-354.1a10.2 10.2 0 1 1 0-20.4 10.2 10.2 0 0 1 0 20.4" fill="#ffd166DB"/><path d="M306.8-135.1a10.3 10.3 0 1 1 0-20.5 10.3 10.3 0 0 1 0 20.5" fill="#06d6a0DD"/><path d="M278.2-258.2a10.3 10.3 0 1 1 0-20.5 10.3 10.3 0 0 1 0 20.5" fill="#118ab2DD"/><path d="M-107.1-151.2a10.3 10.3 0 1 1 0-20.6 10.3 10.3 0 0 1 0 20.6" fill="#073b4cDD"/><path d="M268.2-268.9a10.3 10.3 0 1 1 0-20.6 10.3 10.3 0 0 1 0 20.6" fill="#06d6a0DE"/><path d="M268.3-256.8a10.5 10.5 0 1 1 0-20.9 10.5 10.5 0 0 1 0 20.9" fill="#118ab2E1"/><path d="M-39.1-290.9a10.5 10.5 0 1 1 0-21 10.5 10.5 0 0 1 0 21" fill="#073b4cE2"/><path d="M276.1-236.2a10.5 10.5 0 1 1 0-21.1 10.5 10.5 0 0 1 0 21.1" fill="#073b4cE2"/><path d="M54.1-340.6a10.5 10.5 0 1 1 0-21.1 10.5 10.5 0 0 1 0 21.1" fill="#06d6a0E3"/><path d="M139.7-341.7a10.5 10.5 0 1 1 0-21.1 10.5 10.5 0 0 1 0 21.1" fill="#118ab2E3"/><path d="M216.8 1.9a10.6 10.6 0 1 1 0-21.2 10.6 10.6 0 0 1 0 21.2" fill="#118ab2E3"/><path d="M-38.7-19.2a10.6 10.6 0 1 1 0-21.2 10.6 10.6 0 0 1 0 21.2" fill="#118ab2E3"/><path d="M56.5 31a10.6 10.6 0 1 1 0-21.3 10.6 10.6 0 0 1 0 21.3" fill="#118ab2E5"/><path d="M43.5 26.1a10.7 10.7 0 1 1 0-21.3 10.7 10.7 0 0 1 0 21.3" fill="#118ab2E5"/><path d="M196.4 4.9a10.7 10.7 0 1 1 0-21.4 10.7 10.7 0 0 1 0 21.4" fill="#118ab2E6"/><path d="M-74.1-197.1a10.8 10.8 0 1 1 0-21.6 10.8 10.8 0 0 1 0 21.6" fill="#ffd166E8"/><path d="M102.5-327.2a10.8 10.8 0 1 1 0-21.7 10.8 10.8 0 0 1 0 21.7" fill="#118ab2E9"/><path d="M52.8-319.9a10.8 10.8 0 1 1 0-21.7 10.8 10.8 0 0 1 0 21.7" fill="#06d6a0E9"/><path d="M10.9-7a10.9 10.9 0 1 1 0-21.8 10.9 10.9 0 0 1 0 21.8" fill="#06d6a0EB"/><path d="M-27.5-258.3a11 11 0 1 1 0-22 11 11 0 0 1 0 22" fill="#073b4cEC"/><path d="M88-314.9a11 11 0 1 1 0-21.9 11 11 0 0 1 0 21.9" fill="#ffd166EC"/><path d="M262.5-148.8a11 11 0 1 1 0-22 11 11 0 0 1 0 22" fill="#ef476fED"/><path d="M187.4-286.3a11 11 0 1 1 0-22.1 11 11 0 0 1 0 22.1" fill="#06d6a0ED"/><path d="M-49.1-97.8a11 11 0 1 1 0-22.1 11 11 0 0 1 0 22.1" fill="#06d6a0EE"/><path d="M110.1 6.4a11.1 11.1 0 1 1 0-22.1 11.1 11.1 0 0 1 0 22.1" fill="#073b4cEE"/><path d="M154.5-3.4a11.1 11.1 0 1 1 0-22.1 11.1 11.1 0 0 1 0 22.1" fill="#118ab2EE"/><path d="M211-260.2a11.1 11.1 0 1 1 0-22.2 11.1 11.1 0 0 1 0 22.2" fill="#ef476fEE"/><path d="M-13.1-44.7a11.1 11.1 0 1 1 0-22.2 11.1 11.1 0 0 1 0 22.2" fill="#118ab2EE"/><path d="M118.4-303.8a11.1 11.1 0 1 1 0-22.3 11.1 11.1 0 0 1 0 22.3" fill="#06d6a0EF"/><path d="M95.6 0.3a11.1 11.1 0 1 1 0-22.2 11.1 11.1 0 0 1 0 22.2" fill="#073b4cEF"/><path d="M184.6-38a11.2 11.2 0 1 1 0-22.5 11.2 11.2 0 0 1 0 22.5" fill="#118ab2F2"/><path d="M-1.1-246.9a11.2 11.2 0 1 1 0-22.5 11.2 11.2 0 0 1 0 22.5" fill="#06d6a0F2"/><path d="M-29.8-198.2a11.3 11.3 0 1 1 0-22.5 11.3 11.3 0 0 1 0 22.5" fill="#ef476fF2"/><path d="M154.5-26.3a11.3 11.3 0 1 1 0-22.5 11.3 11.3 0 0 1 0 22.5" fill="#ffd166F3"/><path d="M86.4-17.8a11.3 11.3 0 1 1 0-22.6 11.3 11.3 0 0 1 0 22.6" fill="#06d6a0F3"/><path d="M48.7-268.9a11.3 11.3 0 1 1 0-22.7 11.3 11.3 0 0 1 0 22.7" fill="#ef476fF4"/><path d="M45.3-263.7a11.4 11.4 0 1 1 0-22.7 11.4 11.4 0 0 1 0 22.7" fill="#073b4cF5"/><path d="M152.6-257.9a11.4 11.4 0 1 1 0-22.8 11.4 11.4 0 0 1 0 22.8" fill="#073b4cF6"/><path d="M150.7-256.7a11.4 11.4 0 1 1 0-22.9 11.4 11.4 0 0 1 0 22.9" fill="#ffd166F6"/><path d="M207-138.8a11.5 11.5 0 1 1 0-23 11.5 11.5 0 0 1 0 23" fill="#ffd166F7"/><path d="M155.5-69.7a11.5 11.5 0 1 1 0-23 11.5 11.5 0 0 1 0 23" fill="#ffd166F9"/><path d="M33.4-210.1a11.6 11.6 0 1 1 0-23.1 11.6 11.6 0 0 1 0 23.1" fill="#073b4cFA"/><path d="M16.6-181.1a11.6 11.6 0 1 1 0-23.2 11.6 11.6 0 0 1 0 23.2" fill="#118ab2FA"/><path d="M175-105.2a11.6 11.6 0 1 1 0-23.2 11.6 11.6 0 0 1 0 23.2" fill="#073b4cFA"/><path d="M14.7-136.5a11.6 11.6 0 1 1 0-23.2 11.6 11.6 0 0 1 0 23.2" fill="#073b4cFA"/><path d="M16-157.8a11.6 11.6 0 1 1 0-23.3 11.6 11.6 0 0 1 0 23.3" fill="#ffd166FA"/><path d="M50.6-85a11.6 11.6 0 1 1 0-23.3 11.6 11.6 0 0 1 0 23.3" fill="#ef476fFA"/><path d="M107.5-140a11.8 11.8 0 1 1 0-23.6 11.8 11.8 0 0 1 0 23.6" fill="#ffd166FE"/><path d="M107.5-155.6a11.8 11.8 0 1 1 0-23.6 11.8 11.8 0 0 1 0 23.6" fill="#ffd166FE"/></g></svg>