<svg width="1200" height="675" viewBox="-500 -500 1200 675" xmlns="http://www.w3.org/2000/svg"><path d="M-500-500h1200v675h-1200z" fill="#000"/><style>.sparkles path{stroke-linecap:round; stroke-width:1}</style><g class="sparkles"><path d="M100-162.5l-5.3 23.9" stroke="#005bbb32"/><path d="M100-162.5l-25.7-2.8" stroke="#c2e1ff32"/><path d="M100-162.5l34.7 6.8" stroke="#fff50032"/><path d="M100-162.5l-21.9-36.4" stroke="#fff32"/><path d="M100-162.5l-23.4 51.6" stroke="#fff50033"/><path d="M100-162.5l44.5-35.8" stroke="#c2e1ff33"/><path d="M100-162.5l39.7 50.9" stroke="#c2e1ff33"/><path d="M100-162.5l-53-40.8" stroke="#c2e1ff34"/><path d="M100-162.5l64.3-19.3" stroke="#fff34"/><path d="M100-162.5l71.9 41.3" stroke="#fff35"/><path d="M100-162.5l4.5 89.1" stroke="#fff35"/><path d="M100-162.5l59.7 68.2" stroke="#fff50035"/><path d="M100-162.5l90.2 21.4" stroke="#005bbb36"/><path d="M100-162.5l10.6-99.3" stroke="#c2e1ff36"/><path d="M100-162.5l104.6 18.9" stroke="#c2e1ff37"/><path d="M100-162.5l37.3 102" stroke="#005bbb37"/><path d="M100-162.5l48.6-100.2" stroke="#fff50037"/><path d="M100-162.5l-60.5 103.8" stroke="#005bbb38"/><path d="M100-162.5l-88 88.8" stroke="#fff50039"/><path d="M100-162.5l-125.9 54.5" stroke="#fff5003B"/><path d="M100-162.5l-113.6-82.7" stroke="#c2e1ff3B"/><path d="M100-162.5l-103.7 101.5" stroke="#c2e1ff3C"/><path d="M100-162.5l-143.7 54.1" stroke="#fff5003E"/><path d="M100-162.5l-23.9 153.7" stroke="#fff5003E"/><path d="M100-162.5l131-86" stroke="#c2e1ff3E"/><path d="M100-162.5l-141.6-67.5" stroke="#c2e1ff3E"/><path d="M100-162.5l-28.7 158.2" stroke="#c2e1ff3F"/><path d="M100-162.5l-67.1-155.2" stroke="#c2e1ff41"/><path d="M100-162.5l133.3 105.4" stroke="#fff41"/><path d="M100-162.5l170.3-3.8" stroke="#c2e1ff41"/><path d="M100-162.5l-105.4-134.7" stroke="#005bbb41"/><path d="M100-162.5l-171.9 8.6" stroke="#005bbb41"/><path d="M100-162.5l82.7 151.9" stroke="#005bbb41"/><path d="M100-162.5l-11.8-172.7" stroke="#005bbb41"/><path d="M100-162.5l-5.7-175.4" stroke="#005bbb42"/><path d="M100-162.5l152.1-88" stroke="#005bbb42"/><path d="M100-162.5l144.1-101.9" stroke="#fff50042"/><path d="M100-162.5l72.5-163.4" stroke="#c2e1ff43"/><path d="M100-162.5l-30.1-177.5" stroke="#c2e1ff43"/><path d="M100-162.5l-97.3-153.6" stroke="#fff50044"/><path d="M100-162.5l179.1 35.7" stroke="#fff44"/><path d="M100-162.5l-135.7-124.8" stroke="#005bbb44"/><path d="M100-162.5l137.2 124.7" stroke="#fff45"/><path d="M100-162.5l124 140" stroke="#fff45"/><path d="M100-162.5l65.6-177.3" stroke="#fff46"/><path d="M100-162.5l181.4 55.8" stroke="#c2e1ff46"/><path d="M100-162.5l110.8-156.2" stroke="#005bbb46"/><path d="M100-162.5l191.6-9.5" stroke="#005bbb46"/><path d="M100-162.5l-53.3 184.9" stroke="#fff50046"/><path d="M100-162.5l-8.1-193.2" stroke="#fff50047"/><path d="M100-162.5l70.2-181.8" stroke="#005bbb47"/><path d="M100-162.5l193.2-28.8" stroke="#fff47"/><path d="M100-162.5l-17.6 201.2" stroke="#fff4A"/><path d="M100-162.5l160.9-123" stroke="#fff5004A"/><path d="M100-162.5l97.7-178" stroke="#c2e1ff4A"/><path d="M100-162.5l50.7 197.1" stroke="#fff5004A"/><path d="M100-162.5l-128.4 160.5" stroke="#fff5004B"/><path d="M100-162.5l141.1-149.4" stroke="#fff5004B"/><path d="M100-162.5l-110.1 173.6" stroke="#005bbb4B"/><path d="M100-162.5l-136.4 157.4" stroke="#fff4C"/><path d="M100-162.5l-108.4 184.5" stroke="#c2e1ff4E"/><path d="M100-162.5l-134.9 166.3" stroke="#c2e1ff4E"/><path d="M100-162.5l-211.7 35.8" stroke="#005bbb4F"/><path d="M100-162.5l-30.1 213.4" stroke="#c2e1ff4F"/><path d="M100-162.5l56.9-207.9" stroke="#005bbb4F"/><path d="M100-162.5l44.7-213.3" stroke="#fff50"/><path d="M100-162.5l-107.7-191.3" stroke="#c2e1ff51"/><path d="M100-162.5l-140.6-169" stroke="#fff50051"/><path d="M100-162.5l-87.5-202.2" stroke="#c2e1ff51"/><path d="M100-162.5l221 0" stroke="#c2e1ff52"/><path d="M100-162.5l59.1 214.7" stroke="#fff50053"/><path d="M100-162.5l-217.6 50" stroke="#c2e1ff53"/><path d="M100-162.5l138.5 176.4" stroke="#c2e1ff54"/><path d="M100-162.5l-37-225.4" stroke="#fff57"/><path d="M100-162.5l-96.2-207.5" stroke="#005bbb57"/><path d="M100-162.5l211.4 90.4" stroke="#c2e1ff58"/><path d="M100-162.5l-127.7 191.8" stroke="#c2e1ff58"/><path d="M100-162.5l-37.4 227.4" stroke="#fff50059"/><path d="M100-162.5l146.4-178.1" stroke="#fff50059"/><path d="M100-162.5l91.7-211.6" stroke="#fff59"/><path d="M100-162.5l-160.6 167" stroke="#005bbb5A"/><path d="M100-162.5l-196.7-123.2" stroke="#005bbb5A"/><path d="M100-162.5l158.2-171.8" stroke="#c2e1ff5C"/><path d="M100-162.5l125.4 197.5" stroke="#c2e1ff5C"/><path d="M100-162.5l-222.3-74" stroke="#fff5005D"/><path d="M100-162.5l-234.3 0" stroke="#005bbb5D"/><path d="M100-162.5l-181.3-149.3" stroke="#005bbb5E"/><path d="M100-162.5l-18.6-234.3" stroke="#fff5005F"/><path d="M100-162.5l-139.8 189.1" stroke="#c2e1ff5F"/><path d="M100-162.5l-234.8 25.9" stroke="#005bbb63"/><path d="M100-162.5l-150.2-182.4" stroke="#005bbb63"/><path d="M100-162.5l-182-150.1" stroke="#fff66"/><path d="M100-162.5l193.3 135.2" stroke="#c2e1ff66"/><path d="M100-162.5l-64.9-226.5" stroke="#fff67"/><path d="M100-162.5l-198.5-126.5" stroke="#005bbb68"/><path d="M100-162.5l34.2 232.7" stroke="#fff68"/><path d="M100-162.5l222.3 75.4" stroke="#fff69"/><path d="M100-162.5l-3.1-234.5" stroke="#fff5006A"/><path d="M100-162.5l135.6-191.2" stroke="#fff5006A"/><path d="M100-162.5l186.8-140.8" stroke="#fff5006B"/><path d="M100-162.5l226.7-57.3" stroke="#fff6B"/><path d="M100-162.5l226.3 58.3" stroke="#c2e1ff6B"/><path d="M100-162.5l-228.2 47.8" stroke="#fff5006C"/><path d="M100-162.5l-100.7 210.2" stroke="#c2e1ff6C"/><path d="M100-162.5l84.6-214.4" stroke="#fff6E"/><path d="M100-162.5l31.8 227.4" stroke="#c2e1ff6F"/><path d="M100-162.5l136-183.9" stroke="#fff70"/><path d="M100-162.5l-139 179.3" stroke="#005bbb71"/><path d="M100-162.5l-90.1 208.1" stroke="#005bbb72"/><path d="M100-162.5l44.3-222.3" stroke="#005bbb72"/><path d="M100-162.5l-163.9-156" stroke="#005bbb72"/><path d="M100-162.5l-222.5 33.9" stroke="#005bbb73"/><path d="M100-162.5l223.7-17.6" stroke="#c2e1ff73"/><path d="M100-162.5l220.6 37.6" stroke="#c2e1ff74"/><path d="M100-162.5l212-60.3" stroke="#005bbb75"/><path d="M100-162.5l113.4-188.1" stroke="#c2e1ff76"/><path d="M100-162.5l-219.3 12.5" stroke="#005bbb76"/><path d="M100-162.5l-144.8-165.1" stroke="#c2e1ff76"/><path d="M100-162.5l-99.6 195.1" stroke="#c2e1ff76"/><path d="M100-162.5l191.7 103.4" stroke="#fff77"/><path d="M100-162.5l-114 185.4" stroke="#c2e1ff77"/><path d="M100-162.5l74.7-203.6" stroke="#c2e1ff77"/><path d="M100-162.5l-128.1 174.2" stroke="#fff78"/><path d="M100-162.5l-6.8 216" stroke="#fff50078"/><path d="M100-162.5l9.5-214.6" stroke="#c2e1ff78"/><path d="M100-162.5l-214.6-5.1" stroke="#c2e1ff78"/><path d="M100-162.5l208.3 48.6" stroke="#fff50079"/><path d="M100-162.5l-173.3 116" stroke="#005bbb7B"/><path d="M100-162.5l37.7-203.9" stroke="#005bbb7B"/><path d="M100-162.5l192 71.9" stroke="#fff7C"/><path d="M100-162.5l-155.4 130.1" stroke="#c2e1ff7D"/><path d="M100-162.5l172 106.1" stroke="#fff5007D"/><path d="M100-162.5l37-198.5" stroke="#005bbb7D"/><path d="M100-162.5l132.1-152.6" stroke="#005bbb7D"/><path d="M100-162.5l133.6-150.6" stroke="#fff5007E"/><path d="M100-162.5l184.2 56.4" stroke="#005bbb80"/><path d="M100-162.5l179.4-64.2" stroke="#fff81"/><path d="M100-162.5l23.5 189.1" stroke="#005bbb81"/><path d="M100-162.5l-30.4 185.4" stroke="#fff82"/><path d="M100-162.5l-13.3 185.7" stroke="#c2e1ff82"/><path d="M100-162.5l-28.8 183.8" stroke="#005bbb82"/><path d="M100-162.5l-185.2 4.9" stroke="#fff83"/><path d="M100-162.5l154.7 91" stroke="#fff50084"/><path d="M100-162.5l35.9-174.1" stroke="#005bbb84"/><path d="M100-162.5l156 84" stroke="#fff50085"/><path d="M100-162.5l-32.1-171.4" stroke="#005bbb85"/><path d="M100-162.5l164.4 28" stroke="#c2e1ff87"/><path d="M100-162.5l-161.9 28.3" stroke="#c2e1ff87"/><path d="M100-162.5l35.6-155.7" stroke="#fff88"/><path d="M100-162.5l108-114" stroke="#fff89"/><path d="M100-162.5l147.8-12.4" stroke="#005bbb8A"/><path d="M100-162.5l93.6-112.6" stroke="#fff5008B"/><path d="M100-162.5l44.3 135.5" stroke="#fff8B"/><path d="M100-162.5l-25.9 138.7" stroke="#c2e1ff8C"/><path d="M100-162.5l-140.6-8.2" stroke="#005bbb8C"/><path d="M100-162.5l50.6-130.8" stroke="#fff5008C"/><path d="M100-162.5l-137.2 7.2" stroke="#c2e1ff8C"/><path d="M100-162.5l-61.8 119.1" stroke="#c2e1ff8D"/><path d="M100-162.5l53.8 116" stroke="#c2e1ff8E"/><path d="M100-162.5l86.5 85.3" stroke="#c2e1ff8E"/><path d="M100-162.5l117.7-24.6" stroke="#005bbb8F"/><path d="M100-162.5l-64.6-92.4" stroke="#fff5008F"/><path d="M100-162.5l-82.2 77.2" stroke="#c2e1ff8F"/><path d="M100-162.5l-110.6 4.3" stroke="#005bbb90"/><path d="M100-162.5l-108 14.7" stroke="#fff50090"/><path d="M100-162.5l99.8 41.5" stroke="#fff50090"/><path d="M100-162.5l-47.1-93.6" stroke="#fff50090"/><path d="M100-162.5l40-96.7" stroke="#fff50090"/><path d="M100-162.5l-103.5-0.6" stroke="#005bbb90"/><path d="M100-162.5l19.4 101.1" stroke="#005bbb91"/><path d="M100-162.5l56.7 76.7" stroke="#fff91"/><path d="M100-162.5l-87.4 18.4" stroke="#c2e1ff92"/><path d="M100-162.5l55.3-62" stroke="#005bbb92"/><path d="M100-162.5l17.2-79.5" stroke="#c2e1ff92"/><path d="M100-162.5l79-7.7" stroke="#c2e1ff93"/><path d="M100-162.5l-27.9-61.9" stroke="#fff50093"/><path d="M100-162.5l53.6 41.4" stroke="#fff50093"/><path d="M100-162.5l22.6-47.8" stroke="#c2e1ff94"/><path d="M100-162.5l33.9 37.9" stroke="#fff50094"/><path d="M100-162.5l-3.9-39.4" stroke="#005bbb95"/><path d="M100-162.5l-25.2 13.3" stroke="#fff50095"/></g><g class="sparcs"><path d="M94.7-132.6a5.9 5.9 0 1 1 0-11.9 5.9 5.9 0 0 1 0 11.9" fill="#fff7D"/><path d="M74.3-159.4a5.9 5.9 0 1 1 0-11.9 5.9 5.9 0 0 1 0 11.9" fill="#fff7D"/><path d="M134.7-149.8a5.9 5.9 0 1 1 0-11.8 5.9 5.9 0 0 1 0 11.8" fill="#fff5007D"/><path d="M78.1-193a6 6 0 1 1 0-11.9 6 6 0 0 1 0 11.9" fill="#fff7E"/><path d="M76.6-104.9a6 6 0 1 1 0-12 6 6 0 0 1 0 12" fill="#fff5007E"/><path d="M144.5-192.3a6 6 0 1 1 0-11.9 6 6 0 0 1 0 11.9" fill="#fff5007E"/><path d="M139.7-105.6a6 6 0 1 1 0-12 6 6 0 0 1 0 12" fill="#fff7F"/><path d="M47-197.3a6 6 0 1 1 0-12 6 6 0 0 1 0 12" fill="#c2e1ff7F"/><path d="M164.3-175.8a6 6 0 1 1 0-12 6 6 0 0 1 0 12" fill="#c2e1ff7F"/><path d="M171.9-115.1a6.1 6.1 0 1 1 0-12.2 6.1 6.1 0 0 1 0 12.2" fill="#005bbb81"/><path d="M104.5-67.3a6.1 6.1 0 1 1 0-12.3 6.1 6.1 0 0 1 0 12.3" fill="#c2e1ff81"/><path d="M159.7-88.1a6.1 6.1 0 1 1 0-12.3 6.1 6.1 0 0 1 0 12.3" fill="#c2e1ff81"/><path d="M190.2-134.9a6.1 6.1 0 1 1 0-12.3 6.1 6.1 0 0 1 0 12.3" fill="#fff82"/><path d="M110.6-255.6a6.2 6.2 0 1 1 0-12.4 6.2 6.2 0 0 1 0 12.4" fill="#c2e1ff83"/><path d="M204.6-137.4a6.2 6.2 0 1 1 0-12.4 6.2 6.2 0 0 1 0 12.4" fill="#005bbb83"/><path d="M137.3-54.3a6.2 6.2 0 1 1 0-12.4 6.2 6.2 0 0 1 0 12.4" fill="#c2e1ff84"/><path d="M148.6-256.4a6.3 6.3 0 1 1 0-12.5 6.3 6.3 0 0 1 0 12.5" fill="#fff84"/><path d="M39.5-52.4a6.3 6.3 0 1 1 0-12.6 6.3 6.3 0 0 1 0 12.6" fill="#c2e1ff86"/><path d="M12-67.3a6.4 6.4 0 1 1 0-12.7 6.4 6.4 0 0 1 0 12.7" fill="#005bbb86"/><path d="M-25.9-101.5a6.5 6.5 0 1 1 0-12.9 6.5 6.5 0 0 1 0 12.9" fill="#005bbb89"/><path d="M-13.6-238.7a6.5 6.5 0 1 1 0-13 6.5 6.5 0 0 1 0 13" fill="#005bbb89"/><path d="M-3.7-54.5a6.5 6.5 0 1 1 0-13 6.5 6.5 0 0 1 0 13" fill="#c2e1ff8A"/><path d="M-43.7-101.8a6.6 6.6 0 1 1 0-13.2 6.6 6.6 0 0 1 0 13.2" fill="#c2e1ff8C"/><path d="M76.1-2.1a6.6 6.6 0 1 1 0-13.3 6.6 6.6 0 0 1 0 13.3" fill="#fff8D"/><path d="M231-241.9a6.6 6.6 0 1 1 0-13.3 6.6 6.6 0 0 1 0 13.3" fill="#c2e1ff8D"/><path d="M-41.6-223.4a6.7 6.7 0 1 1 0-13.3 6.7 6.7 0 0 1 0 13.3" fill="#c2e1ff8D"/><path d="M71.3 2.4a6.7 6.7 0 1 1 0-13.4 6.7 6.7 0 0 1 0 13.4" fill="#fff8E"/><path d="M32.9-311a6.8 6.8 0 1 1 0-13.5 6.8 6.8 0 0 1 0 13.5" fill="#fff90"/><path d="M233.3-50.3a6.8 6.8 0 1 1 0-13.6 6.8 6.8 0 0 1 0 13.6" fill="#005bbb90"/><path d="M270.3-159.5a6.8 6.8 0 1 1 0-13.6 6.8 6.8 0 0 1 0 13.6" fill="#c2e1ff90"/><path d="M-5.4-290.3a6.8 6.8 0 1 1 0-13.7 6.8 6.8 0 0 1 0 13.7" fill="#c2e1ff91"/><path d="M-71.9-147.1a6.8 6.8 0 1 1 0-13.7 6.8 6.8 0 0 1 0 13.7" fill="#005bbb91"/><path d="M182.7-3.7a6.8 6.8 0 1 1 0-13.7 6.8 6.8 0 0 1 0 13.7" fill="#c2e1ff91"/><path d="M88.2-328.3a6.8 6.8 0 1 1 0-13.7 6.8 6.8 0 0 1 0 13.7" fill="#c2e1ff91"/><path d="M94.3-331a6.9 6.9 0 1 1 0-13.8 6.9 6.9 0 0 1 0 13.8" fill="#fff50092"/><path d="M252.1-243.6a6.9 6.9 0 1 1 0-13.8 6.9 6.9 0 0 1 0 13.8" fill="#fff92"/><path d="M244.1-257.5a6.9 6.9 0 1 1 0-13.8 6.9 6.9 0 0 1 0 13.8" fill="#c2e1ff92"/><path d="M172.5-318.9a6.9 6.9 0 1 1 0-13.9 6.9 6.9 0 0 1 0 13.9" fill="#fff93"/><path d="M69.9-333a6.9 6.9 0 1 1 0-13.9 6.9 6.9 0 0 1 0 13.9" fill="#fff50093"/><path d="M2.7-309.1a7 7 0 1 1 0-14 7 7 0 0 1 0 14" fill="#005bbb94"/><path d="M279.1-119.8a7 7 0 1 1 0-14 7 7 0 0 1 0 14" fill="#fff50094"/><path d="M-35.7-280.3a7 7 0 1 1 0-14.1 7 7 0 0 1 0 14.1" fill="#005bbb95"/><path d="M237.2-30.7a7 7 0 1 1 0-14.1 7 7 0 0 1 0 14.1" fill="#c2e1ff95"/><path d="M224-15.5a7.1 7.1 0 1 1 0-14.1 7.1 7.1 0 0 1 0 14.1" fill="#fff50096"/><path d="M165.6-332.7a7.1 7.1 0 1 1 0-14.2 7.1 7.1 0 0 1 0 14.2" fill="#fff97"/><path d="M281.4-99.6a7.1 7.1 0 1 1 0-14.2 7.1 7.1 0 0 1 0 14.2" fill="#005bbb97"/><path d="M210.8-311.5a7.1 7.1 0 1 1 0-14.3 7.1 7.1 0 0 1 0 14.3" fill="#fff50097"/><path d="M291.6-164.9a7.1 7.1 0 1 1 0-14.3 7.1 7.1 0 0 1 0 14.3" fill="#fff50098"/><path d="M46.7 29.5a7.1 7.1 0 1 1 0-14.2 7.1 7.1 0 0 1 0 14.2" fill="#005bbb98"/><path d="M91.9-348.5a7.2 7.2 0 1 1 0-14.3 7.2 7.2 0 0 1 0 14.3" fill="#fff50098"/><path d="M170.2-337.1a7.2 7.2 0 1 1 0-14.4 7.2 7.2 0 0 1 0 14.4" fill="#005bbb99"/><path d="M293.2-184.1a7.2 7.2 0 1 1 0-14.4 7.2 7.2 0 0 1 0 14.4" fill="#fff99"/><path d="M82.4 46a7.3 7.3 0 1 1 0-14.7 7.3 7.3 0 0 1 0 14.7" fill="#005bbb9C"/><path d="M260.9-278.2a7.3 7.3 0 1 1 0-14.7 7.3 7.3 0 0 1 0 14.7" fill="#005bbb9C"/><path d="M197.7-333.2a7.4 7.4 0 1 1 0-14.7 7.4 7.4 0 0 1 0 14.7" fill="#fff5009C"/><path d="M150.7 41.9a7.4 7.4 0 1 1 0-14.7 7.4 7.4 0 0 1 0 14.7" fill="#fff9C"/><path d="M-28.4 5.4a7.4 7.4 0 1 1 0-14.8 7.4 7.4 0 0 1 0 14.8" fill="#005bbb9D"/><path d="M241.1-304.5a7.4 7.4 0 1 1 0-14.8 7.4 7.4 0 0 1 0 14.8" fill="#fff5009D"/><path d="M-10.1 18.5a7.4 7.4 0 1 1 0-14.8 7.4 7.4 0 0 1 0 14.8" fill="#fff9D"/><path d="M-36.4 2.3a7.5 7.5 0 1 1 0-14.9 7.5 7.5 0 0 1 0 14.9" fill="#c2e1ff9F"/><path d="M-8.4 29.6a7.6 7.6 0 1 1 0-15.2 7.6 7.6 0 0 1 0 15.2" fill="#c2e1ffA2"/><path d="M-34.9 11.4a7.6 7.6 0 1 1 0-15.2 7.6 7.6 0 0 1 0 15.2" fill="#fffA2"/><path d="M-111.7-119.1a7.6 7.6 0 1 1 0-15.3 7.6 7.6 0 0 1 0 15.3" fill="#fff500A2"/><path d="M69.9 58.6a7.6 7.6 0 1 1 0-15.3 7.6 7.6 0 0 1 0 15.3" fill="#005bbbA3"/><path d="M156.9-362.8a7.7 7.7 0 1 1 0-15.3 7.7 7.7 0 0 1 0 15.3" fill="#fffA3"/><path d="M144.7-368.1a7.7 7.7 0 1 1 0-15.4 7.7 7.7 0 0 1 0 15.4" fill="#fffA4"/><path d="M-7.7-346a7.8 7.8 0 1 1 0-15.5 7.8 7.8 0 0 1 0 15.5" fill="#005bbbA5"/><path d="M-40.6-323.7a7.8 7.8 0 1 1 0-15.5 7.8 7.8 0 0 1 0 15.5" fill="#fffA6"/><path d="M12.5-356.9a7.8 7.8 0 1 1 0-15.6 7.8 7.8 0 0 1 0 15.6" fill="#fffA6"/><path d="M321-154.7a7.8 7.8 0 1 1 0-15.6 7.8 7.8 0 0 1 0 15.6" fill="#fffA6"/><path d="M159.1 60.1a7.9 7.9 0 1 1 0-15.7 7.9 7.9 0 0 1 0 15.7" fill="#fff500A8"/><path d="M-117.6-104.6a7.9 7.9 0 1 1 0-15.8 7.9 7.9 0 0 1 0 15.8" fill="#005bbbA8"/><path d="M238.5 21.8a7.9 7.9 0 1 1 0-15.8 7.9 7.9 0 0 1 0 15.8" fill="#005bbbA9"/><path d="M63-379.8a8.1 8.1 0 1 1 0-16.2 8.1 8.1 0 0 1 0 16.2" fill="#c2e1ffAD"/><path d="M3.8-361.8a8.1 8.1 0 1 1 0-16.3 8.1 8.1 0 0 1 0 16.3" fill="#c2e1ffAD"/><path d="M311.4-63.9a8.2 8.2 0 1 1 0-16.4 8.2 8.2 0 0 1 0 16.4" fill="#fffAF"/><path d="M-27.7 37.5a8.2 8.2 0 1 1 0-16.4 8.2 8.2 0 0 1 0 16.4" fill="#fffAF"/><path d="M62.6 73.1a8.2 8.2 0 1 1 0-16.4 8.2 8.2 0 0 1 0 16.4" fill="#c2e1ffAF"/><path d="M246.4-332.4a8.2 8.2 0 1 1 0-16.5 8.2 8.2 0 0 1 0 16.5" fill="#fff500AF"/><path d="M191.7-365.8a8.2 8.2 0 1 1 0-16.5 8.2 8.2 0 0 1 0 16.5" fill="#fffAF"/><path d="M-60.6 12.8a8.3 8.3 0 1 1 0-16.6 8.3 8.3 0 0 1 0 16.6" fill="#c2e1ffB1"/><path d="M-96.7-277.4a8.3 8.3 0 1 1 0-16.6 8.3 8.3 0 0 1 0 16.6" fill="#fff500B1"/><path d="M258.2-325.9a8.4 8.4 0 1 1 0-16.8 8.4 8.4 0 0 1 0 16.8" fill="#c2e1ffB4"/><path d="M225.4 43.4a8.4 8.4 0 1 1 0-16.9 8.4 8.4 0 0 1 0 16.9" fill="#005bbbB4"/><path d="M-122.3-228.1a8.5 8.5 0 1 1 0-16.9 8.5 8.5 0 0 1 0 16.9" fill="#005bbbB5"/><path d="M-134.3-154.1a8.5 8.5 0 1 1 0-16.9 8.5 8.5 0 0 1 0 16.9" fill="#fff500B5"/><path d="M-81.3-303.3a8.5 8.5 0 1 1 0-17.1 8.5 8.5 0 0 1 0 17.1" fill="#005bbbB6"/><path d="M81.4-388.3a8.6 8.6 0 1 1 0-17.1 8.6 8.6 0 0 1 0 17.1" fill="#c2e1ffB7"/><path d="M-39.8 35.1a8.6 8.6 0 1 1 0-17.1 8.6 8.6 0 0 1 0 17.1" fill="#005bbbB7"/><path d="M-134.8-127.8a8.8 8.8 0 1 1 0-17.6 8.8 8.8 0 0 1 0 17.6" fill="#c2e1ffBD"/><path d="M-50.2-336a8.8 8.8 0 1 1 0-17.7 8.8 8.8 0 0 1 0 17.7" fill="#c2e1ffBD"/><path d="M-82-303.5a9 9 0 1 1 0-18.1 9 9 0 0 1 0 18.1" fill="#c2e1ffC1"/><path d="M293.3-18.3a9 9 0 1 1 0-18 9 9 0 0 1 0 18" fill="#005bbbC1"/><path d="M35.1-379.9a9.1 9.1 0 1 1 0-18.2 9.1 9.1 0 0 1 0 18.2" fill="#c2e1ffC2"/><path d="M-98.5-279.9a9.1 9.1 0 1 1 0-18.2 9.1 9.1 0 0 1 0 18.2" fill="#005bbbC3"/><path d="M134.2 79.4a9.1 9.1 0 1 1 0-18.3 9.1 9.1 0 0 1 0 18.3" fill="#c2e1ffC4"/><path d="M322.3-77.9a9.2 9.2 0 1 1 0-18.4 9.2 9.2 0 0 1 0 18.4" fill="#fff500C5"/><path d="M96.9-387.7a9.2 9.2 0 1 1 0-18.5 9.2 9.2 0 0 1 0 18.5" fill="#c2e1ffC5"/><path d="M235.6-344.5a9.2 9.2 0 1 1 0-18.4 9.2 9.2 0 0 1 0 18.4" fill="#005bbbC6"/><path d="M286.8-294a9.3 9.3 0 1 1 0-18.6 9.3 9.3 0 0 1 0 18.6" fill="#fff500C7"/><path d="M326.7-210.5a9.3 9.3 0 1 1 0-18.6 9.3 9.3 0 0 1 0 18.6" fill="#fffC7"/><path d="M326.3-95a9.3 9.3 0 1 1 0-18.5 9.3 9.3 0 0 1 0 18.5" fill="#c2e1ffC7"/><path d="M-128.2-105.4a9.3 9.3 0 1 1 0-18.7 9.3 9.3 0 0 1 0 18.7" fill="#fffC8"/><path d="M-0.7 57.1a9.3 9.3 0 1 1 0-18.7 9.3 9.3 0 0 1 0 18.7" fill="#fff500C8"/><path d="M184.6-367.4a9.5 9.5 0 1 1 0-19 9.5 9.5 0 0 1 0 19" fill="#fff500CC"/><path d="M131.8 74.4a9.6 9.6 0 1 1 0-19.1 9.6 9.6 0 0 1 0 19.1" fill="#005bbbCD"/><path d="M236-336.8a9.6 9.6 0 1 1 0-19.2 9.6 9.6 0 0 1 0 19.2" fill="#fffCE"/><path d="M-39 26.5a9.7 9.7 0 1 1 0-19.4 9.7 9.7 0 0 1 0 19.4" fill="#005bbbD0"/><path d="M9.9 55.2a9.7 9.7 0 1 1 0-19.3 9.7 9.7 0 0 1 0 19.3" fill="#c2e1ffD0"/><path d="M144.3-375.2a9.7 9.7 0 1 1 0-19.3 9.7 9.7 0 0 1 0 19.3" fill="#fff500D0"/><path d="M-63.9-308.8a9.7 9.7 0 1 1 0-19.4 9.7 9.7 0 0 1 0 19.4" fill="#c2e1ffD0"/><path d="M-122.5-118.8a9.8 9.8 0 1 1 0-19.6 9.8 9.8 0 0 1 0 19.6" fill="#fffD1"/><path d="M323.7-170.3a9.8 9.8 0 1 1 0-19.6 9.8 9.8 0 0 1 0 19.6" fill="#c2e1ffD2"/><path d="M320.6-115.1a9.8 9.8 0 1 1 0-19.6 9.8 9.8 0 0 1 0 19.6" fill="#fff500D2"/><path d="M312-212.9a9.9 9.9 0 1 1 0-19.8 9.9 9.9 0 0 1 0 19.8" fill="#fff500D5"/><path d="M213.4-340.7a9.9 9.9 0 1 1 0-19.9 9.9 9.9 0 0 1 0 19.9" fill="#c2e1ffD5"/><path d="M-119.3-140a9.9 9.9 0 1 1 0-19.9 9.9 9.9 0 0 1 0 19.9" fill="#c2e1ffD5"/><path d="M-44.8-317.7a9.9 9.9 0 1 1 0-19.8 9.9 9.9 0 0 1 0 19.8" fill="#fffD5"/><path d="M0.4 42.6a10 10 0 1 1 0-19.9 10 10 0 0 1 0 19.9" fill="#fffD6"/><path d="M291.7-49.1a10 10 0 1 1 0-20 10 10 0 0 1 0 20" fill="#c2e1ffD7"/><path d="M-14 32.9a10 10 0 1 1 0-20 10 10 0 0 1 0 20" fill="#c2e1ffD7"/><path d="M174.7-356.1a10 10 0 1 1 0-20 10 10 0 0 1 0 20" fill="#fffD7"/><path d="M-28.1 21.8a10 10 0 1 1 0-20.1 10 10 0 0 1 0 20.1" fill="#005bbbD8"/><path d="M93.2 63.5a10.1 10.1 0 1 1 0-20.1 10.1 10.1 0 0 1 0 20.1" fill="#c2e1ffD8"/><path d="M109.5-367a10.1 10.1 0 1 1 0-20.1 10.1 10.1 0 0 1 0 20.1" fill="#fffD9"/><path d="M-114.6-157.5a10.1 10.1 0 1 1 0-20.2 10.1 10.1 0 0 1 0 20.2" fill="#fffD9"/><path d="M308.3-103.8a10.1 10.1 0 1 1 0-20.2 10.1 10.1 0 0 1 0 20.2" fill="#c2e1ffD9"/><path d="M-73.3-36.2a10.2 10.2 0 1 1 0-20.5 10.2 10.2 0 0 1 0 20.5" fill="#fff500DC"/><path d="M137.7-356.2a10.3 10.3 0 1 1 0-20.5 10.3 10.3 0 0 1 0 20.5" fill="#fffDD"/><path d="M292-80.3a10.3 10.3 0 1 1 0-20.7 10.3 10.3 0 0 1 0 20.7" fill="#005bbbDE"/><path d="M-55.4-22a10.4 10.4 0 1 1 0-20.7 10.4 10.4 0 0 1 0 20.7" fill="#fffDF"/><path d="M272-46a10.4 10.4 0 1 1 0-20.8 10.4 10.4 0 0 1 0 20.8" fill="#fffDF"/><path d="M137-350.6a10.4 10.4 0 1 1 0-20.8 10.4 10.4 0 0 1 0 20.8" fill="#fff500DF"/><path d="M232.1-304.7a10.4 10.4 0 1 1 0-20.8 10.4 10.4 0 0 1 0 20.8" fill="#fff500DF"/><path d="M233.6-302.7a10.4 10.4 0 1 1 0-20.9 10.4 10.4 0 0 1 0 20.9" fill="#fffDF"/><path d="M284.2-95.5a10.6 10.6 0 1 1 0-21.2 10.6 10.6 0 0 1 0 21.2" fill="#fffE3"/><path d="M279.4-216.1a10.6 10.6 0 1 1 0-21.2 10.6 10.6 0 0 1 0 21.2" fill="#005bbbE4"/><path d="M123.5 37.2a10.6 10.6 0 1 1 0-21.2 10.6 10.6 0 0 1 0 21.2" fill="#c2e1ffE4"/><path d="M69.6 33.6a10.6 10.6 0 1 1 0-21.3 10.6 10.6 0 0 1 0 21.3" fill="#fffE5"/><path d="M86.7 33.9a10.7 10.7 0 1 1 0-21.4 10.7 10.7 0 0 1 0 21.4" fill="#fffE6"/><path d="M71.2 32a10.7 10.7 0 1 1 0-21.4 10.7 10.7 0 0 1 0 21.4" fill="#c2e1ffE6"/><path d="M-85.2-146.9a10.7 10.7 0 1 1 0-21.4 10.7 10.7 0 0 1 0 21.4" fill="#c2e1ffE6"/><path d="M254.7-60.8a10.8 10.8 0 1 1 0-21.5 10.8 10.8 0 0 1 0 21.5" fill="#fffE8"/><path d="M135.9-325.8a10.8 10.8 0 1 1 0-21.6 10.8 10.8 0 0 1 0 21.6" fill="#c2e1ffE8"/><path d="M256-67.7a10.8 10.8 0 1 1 0-21.6 10.8 10.8 0 0 1 0 21.6" fill="#fffE8"/><path d="M67.9-323a10.9 10.9 0 1 1 0-21.7 10.9 10.9 0 0 1 0 21.7" fill="#fffE9"/><path d="M264.4-123.5a11 11 0 1 1 0-21.9 11 11 0 0 1 0 21.9" fill="#005bbbEC"/><path d="M-61.9-123.3a11 11 0 1 1 0-21.9 11 11 0 0 1 0 21.9" fill="#005bbbEC"/><path d="M135.6-307.1a11 11 0 1 1 0-22.1 11 11 0 0 1 0 22.1" fill="#fffED"/><path d="M208-265.5a11.1 11.1 0 1 1 0-22.1 11.1 11.1 0 0 1 0 22.1" fill="#fff500EE"/><path d="M247.8-163.7a11.2 11.2 0 1 1 0-22.3 11.2 11.2 0 0 1 0 22.3" fill="#c2e1ffF0"/><path d="M193.6-263.9a11.2 11.2 0 1 1 0-22.4 11.2 11.2 0 0 1 0 22.4" fill="#005bbbF1"/><path d="M144.3-15.8a11.2 11.2 0 1 1 0-22.4 11.2 11.2 0 0 1 0 22.4" fill="#005bbbF1"/><path d="M74.1-12.6a11.2 11.2 0 1 1 0-22.5 11.2 11.2 0 0 1 0 22.5" fill="#005bbbF2"/><path d="M-40.6-159.5a11.2 11.2 0 1 1 0-22.5 11.2 11.2 0 0 1 0 22.5" fill="#c2e1ffF2"/><path d="M150.6-282.1a11.2 11.2 0 1 1 0-22.5 11.2 11.2 0 0 1 0 22.5" fill="#fff500F2"/><path d="M-37.2-144.1a11.3 11.3 0 1 1 0-22.5 11.3 11.3 0 0 1 0 22.5" fill="#fff500F2"/><path d="M38.2-32.1a11.3 11.3 0 1 1 0-22.6 11.3 11.3 0 0 1 0 22.6" fill="#005bbbF3"/><path d="M153.8-35.1a11.3 11.3 0 1 1 0-22.7 11.3 11.3 0 0 1 0 22.7" fill="#005bbbF4"/><path d="M186.5-65.8a11.4 11.4 0 1 1 0-22.7 11.4 11.4 0 0 1 0 22.7" fill="#fff500F5"/><path d="M217.7-175.7a11.4 11.4 0 1 1 0-22.8 11.4 11.4 0 0 1 0 22.8" fill="#fffF5"/><path d="M35.4-243.5a11.5 11.5 0 1 1 0-22.9 11.5 11.5 0 0 1 0 22.9" fill="#fffF7"/><path d="M17.8-73.9a11.5 11.5 0 1 1 0-22.9 11.5 11.5 0 0 1 0 22.9" fill="#005bbbF7"/><path d="M-10.6-146.7a11.5 11.5 0 1 1 0-23 11.5 11.5 0 0 1 0 23" fill="#c2e1ffF7"/><path d="M-8-136.3a11.5 11.5 0 1 1 0-22.9 11.5 11.5 0 0 1 0 22.9" fill="#fff500F7"/><path d="M199.8-109.5a11.5 11.5 0 1 1 0-23 11.5 11.5 0 0 1 0 23" fill="#c2e1ffF7"/><path d="M52.9-244.6a11.5 11.5 0 1 1 0-23 11.5 11.5 0 0 1 0 23" fill="#c2e1ffF8"/><path d="M140-247.7a11.5 11.5 0 1 1 0-23 11.5 11.5 0 0 1 0 23" fill="#fff500F8"/><path d="M-3.5-151.6a11.5 11.5 0 1 1 0-23 11.5 11.5 0 0 1 0 23" fill="#c2e1ffF8"/><path d="M119.4-49.9a11.5 11.5 0 1 1 0-23 11.5 11.5 0 0 1 0 23" fill="#005bbbF8"/><path d="M156.7-74.2a11.6 11.6 0 1 1 0-23.2 11.6 11.6 0 0 1 0 23.2" fill="#fff500F9"/><path d="M12.6-132.5a11.6 11.6 0 1 1 0-23.2 11.6 11.6 0 0 1 0 23.2" fill="#005bbbFA"/><path d="M155.3-212.9a11.6 11.6 0 1 1 0-23.2 11.6 11.6 0 0 1 0 23.2" fill="#fff500FA"/><path d="M117.2-230.4a11.6 11.6 0 1 1 0-23.3 11.6 11.6 0 0 1 0 23.3" fill="#fffFB"/><path d="M179-158.6a11.6 11.6 0 1 1 0-23.2 11.6 11.6 0 0 1 0 23.2" fill="#fffFB"/><path d="M72.1-212.7a11.7 11.7 0 1 1 0-23.3 11.7 11.7 0 0 1 0 23.3" fill="#005bbbFC"/><path d="M153.6-109.4a11.7 11.7 0 1 1 0-23.4 11.7 11.7 0 0 1 0 23.4" fill="#fff500FC"/><path d="M122.6-198.6a11.7 11.7 0 1 1 0-23.4 11.7 11.7 0 0 1 0 23.4" fill="#c2e1ffFD"/><path d="M133.9-112.9a11.7 11.7 0 1 1 0-23.5 11.7 11.7 0 0 1 0 23.5" fill="#c2e1ffFD"/><path d="M96.1-190.2a11.8 11.8 0 1 1 0-23.5 11.8 11.8 0 0 1 0 23.5" fill="#fffFE"/><path d="M74.8-137.4a11.8 11.8 0 1 1 0-23.6 11.8 11.8 0 0 1 0 23.6" fill="#fff500FE"/></g></svg>