<svg width="1200" height="675" viewBox="-500 -500 1200 675" xmlns="http://www.w3.org/2000/svg"><path d="M-500-500h1200v675h-1200z" fill="#000"/><style>.sparkles path{stroke-linecap:round; stroke-width:1}</style><g class="sparkles"><path d="M100-162.5l-0.7 26.5" stroke="#fff50032"/><path d="M100-162.5l33.5 1.7" stroke="#fff32"/><path d="M100-162.5l38.4-2" stroke="#fff50032"/><path d="M100-162.5l-42.9-29.5" stroke="#005bbb33"/><path d="M100-162.5l-61.4 12" stroke="#fff50033"/><path d="M100-162.5l71 4.5" stroke="#fff50034"/><path d="M100-162.5l55.8-48.2" stroke="#fff34"/><path d="M100-162.5l77.1 0.5" stroke="#fff50034"/><path d="M100-162.5l64.5-43.2" stroke="#fff50034"/><path d="M100-162.5l65.7-42.1" stroke="#fff50034"/><path d="M100-162.5l36 81.7" stroke="#005bbb35"/><path d="M100-162.5l27.3-93.7" stroke="#fff36"/><path d="M100-162.5l77.8-68.2" stroke="#fff50037"/><path d="M100-162.5l66.9-86.2" stroke="#c2e1ff37"/><path d="M100-162.5l-0.2-109.2" stroke="#fff50037"/><path d="M100-162.5l61.3-99.4" stroke="#fff38"/><path d="M100-162.5l118.3 1.2" stroke="#fff50038"/><path d="M100-162.5l-120.1 55.6" stroke="#fff3A"/><path d="M100-162.5l-106.9-79.2" stroke="#fff5003A"/><path d="M100-162.5l132 46.4" stroke="#c2e1ff3B"/><path d="M100-162.5l-23.5 138.1" stroke="#fff3B"/><path d="M100-162.5l114.1 81.9" stroke="#c2e1ff3B"/><path d="M100-162.5l-50.7 131.4" stroke="#c2e1ff3B"/><path d="M100-162.5l-131.9-57.7" stroke="#fff3C"/><path d="M100-162.5l64.4 128.8" stroke="#fff3C"/><path d="M100-162.5l-36-149.3" stroke="#c2e1ff3E"/><path d="M100-162.5l-113.1 111.9" stroke="#fff5003F"/><path d="M100-162.5l82.5 141" stroke="#005bbb3F"/><path d="M100-162.5l-167.3-27.9" stroke="#fff50041"/><path d="M100-162.5l-80.6-157.9" stroke="#c2e1ff42"/><path d="M100-162.5l-170.2-51.4" stroke="#c2e1ff43"/><path d="M100-162.5l140.3 111.9" stroke="#fff50043"/><path d="M100-162.5l-179.7 1.7" stroke="#c2e1ff43"/><path d="M100-162.5l78.4 161.9" stroke="#005bbb43"/><path d="M100-162.5l-173.9-52.5" stroke="#c2e1ff44"/><path d="M100-162.5l110.8 145.1" stroke="#fff50044"/><path d="M100-162.5l160.6-92.8" stroke="#005bbb45"/><path d="M100-162.5l7.7 189" stroke="#c2e1ff46"/><path d="M100-162.5l-180.1 58.3" stroke="#fff46"/><path d="M100-162.5l-191.7-9.2" stroke="#fff50046"/><path d="M100-162.5l-3.6 192.7" stroke="#fff50047"/><path d="M100-162.5l-60.6 183.5" stroke="#c2e1ff47"/><path d="M100-162.5l-111.7-158.9" stroke="#fff47"/><path d="M100-162.5l3.5-198.1" stroke="#c2e1ff48"/><path d="M100-162.5l183.5-83.2" stroke="#c2e1ff49"/><path d="M100-162.5l-162.3 120.2" stroke="#c2e1ff4A"/><path d="M100-162.5l142.4 144" stroke="#c2e1ff4A"/><path d="M100-162.5l18.4-205.8" stroke="#c2e1ff4B"/><path d="M100-162.5l-198.3 62.6" stroke="#c2e1ff4C"/><path d="M100-162.5l185.2-97.8" stroke="#fff4C"/><path d="M100-162.5l-150.1 150.7" stroke="#005bbb4E"/><path d="M100-162.5l210-37.6" stroke="#005bbb4E"/><path d="M100-162.5l94.3 191.6" stroke="#005bbb4E"/><path d="M100-162.5l16.5 214.7" stroke="#005bbb4F"/><path d="M100-162.5l-167.5 138.6" stroke="#fff50"/><path d="M100-162.5l208.3 66.8" stroke="#fff50051"/><path d="M100-162.5l-3.7-219.1" stroke="#fff51"/><path d="M100-162.5l218.7 12.9" stroke="#c2e1ff51"/><path d="M100-162.5l-100.1 195.3" stroke="#c2e1ff51"/><path d="M100-162.5l-53.1 214.4" stroke="#c2e1ff52"/><path d="M100-162.5l-161.4 150.8" stroke="#005bbb52"/><path d="M100-162.5l-136.2-175" stroke="#c2e1ff52"/><path d="M100-162.5l-221.7-17.5" stroke="#005bbb53"/><path d="M100-162.5l126.1-183.8" stroke="#fff53"/><path d="M100-162.5l-64.6 214" stroke="#fff50053"/><path d="M100-162.5l-111.8-194.7" stroke="#fff50054"/><path d="M100-162.5l70.2-213.2" stroke="#c2e1ff54"/><path d="M100-162.5l185 129" stroke="#fff55"/><path d="M100-162.5l29.5 223.8" stroke="#fff50055"/><path d="M100-162.5l162.3 158.9" stroke="#c2e1ff56"/><path d="M100-162.5l50.6 221.6" stroke="#005bbb56"/><path d="M100-162.5l-82.2-212.7" stroke="#fff56"/><path d="M100-162.5l221.6 57.8" stroke="#c2e1ff57"/><path d="M100-162.5l-69-218.7" stroke="#fff50057"/><path d="M100-162.5l-228.3-21.3" stroke="#fff57"/><path d="M100-162.5l154.6-169.8" stroke="#fff58"/><path d="M100-162.5l-146.4-178.2" stroke="#005bbb59"/><path d="M100-162.5l217.8-80.2" stroke="#c2e1ff5A"/><path d="M100-162.5l115.7 201.5" stroke="#fff5A"/><path d="M100-162.5l-198.8-120.8" stroke="#fff5B"/><path d="M100-162.5l-20.5 232.3" stroke="#fff5005B"/><path d="M100-162.5l195.9-128.7" stroke="#fff5005D"/><path d="M100-162.5l50 229.3" stroke="#005bbb5E"/><path d="M100-162.5l-178.9 152.1" stroke="#c2e1ff5E"/><path d="M100-162.5l60.2 227" stroke="#c2e1ff5E"/><path d="M100-162.5l235.2-3.8" stroke="#fff5005F"/><path d="M100-162.5l-64.1 226.4" stroke="#005bbb5F"/><path d="M100-162.5l190 138.9" stroke="#fff5F"/><path d="M100-162.5l159.8 172.9" stroke="#fff5005F"/><path d="M100-162.5l-233.7 29.9" stroke="#fff60"/><path d="M100-162.5l226.9 65.1" stroke="#fff50061"/><path d="M100-162.5l-177-156.5" stroke="#fff64"/><path d="M100-162.5l200.6 124.8" stroke="#c2e1ff64"/><path d="M100-162.5l-110.7 208.6" stroke="#fff65"/><path d="M100-162.5l-151.5 181.1" stroke="#005bbb65"/><path d="M100-162.5l-225 71.5" stroke="#005bbb65"/><path d="M100-162.5l66.6-226.5" stroke="#c2e1ff65"/><path d="M100-162.5l185.7 145.6" stroke="#c2e1ff66"/><path d="M100-162.5l-207.8 111.5" stroke="#fff50067"/><path d="M100-162.5l222.3 77.4" stroke="#fff68"/><path d="M100-162.5l219.8-83.7" stroke="#fff50068"/><path d="M100-162.5l138.5-189.3" stroke="#c2e1ff69"/><path d="M100-162.5l159.8 171.5" stroke="#fff6A"/><path d="M100-162.5l-62.5-225.3" stroke="#fff5006B"/><path d="M100-162.5l233.5 0" stroke="#fff5006B"/><path d="M100-162.5l233.5 3.2" stroke="#005bbb6B"/><path d="M100-162.5l217.5 83.9" stroke="#fff6C"/><path d="M100-162.5l-173.1-156.1" stroke="#fff6C"/><path d="M100-162.5l60.8 224.6" stroke="#fff6C"/><path d="M100-162.5l75.4-219.4" stroke="#c2e1ff6D"/><path d="M100-162.5l205.7 106.9" stroke="#c2e1ff6D"/><path d="M100-162.5l226.7-43.8" stroke="#005bbb6E"/><path d="M100-162.5l-61.5-220.8" stroke="#c2e1ff70"/><path d="M100-162.5l163.1-158.5" stroke="#fff71"/><path d="M100-162.5l128.2-187.1" stroke="#fff71"/><path d="M100-162.5l-51.7-218.3" stroke="#fff73"/><path d="M100-162.5l-104.6-197.4" stroke="#fff50074"/><path d="M100-162.5l-153.1-161.9" stroke="#c2e1ff74"/><path d="M100-162.5l-222.6 8.5" stroke="#c2e1ff74"/><path d="M100-162.5l-9.6 221" stroke="#005bbb75"/><path d="M100-162.5l-182-125.5" stroke="#005bbb75"/><path d="M100-162.5l210.4-61.7" stroke="#fff50076"/><path d="M100-162.5l128.4-177.5" stroke="#fff76"/><path d="M100-162.5l-148 160.6" stroke="#c2e1ff77"/><path d="M100-162.5l212.2-50.5" stroke="#fff77"/><path d="M100-162.5l196.9-91.7" stroke="#005bbb77"/><path d="M100-162.5l-203.2 75.8" stroke="#005bbb77"/><path d="M100-162.5l57.5-207.3" stroke="#fff50078"/><path d="M100-162.5l22.5 213.2" stroke="#c2e1ff79"/><path d="M100-162.5l-201.7 71.4" stroke="#fff50079"/><path d="M100-162.5l-116.2-176.9" stroke="#fff5007A"/><path d="M100-162.5l-208.4-35.8" stroke="#c2e1ff7A"/><path d="M100-162.5l118.1-172.2" stroke="#c2e1ff7B"/><path d="M100-162.5l12.3-206" stroke="#fff7C"/><path d="M100-162.5l-126.1-163" stroke="#005bbb7C"/><path d="M100-162.5l34.5 199.7" stroke="#fff5007D"/><path d="M100-162.5l-180.3 91.5" stroke="#005bbb7D"/><path d="M100-162.5l-152.1 132.5" stroke="#fff5007E"/><path d="M100-162.5l192.4-56.7" stroke="#fff5007E"/><path d="M100-162.5l-191.3-52.3" stroke="#005bbb7F"/><path d="M100-162.5l118-156.3" stroke="#fff5007F"/><path d="M100-162.5l-40.3 189.3" stroke="#005bbb80"/><path d="M100-162.5l188.4 9.5" stroke="#fff82"/><path d="M100-162.5l-17.9-185.8" stroke="#005bbb82"/><path d="M100-162.5l11.5 184.4" stroke="#c2e1ff83"/><path d="M100-162.5l103 148.5" stroke="#fff84"/><path d="M100-162.5l114.7-135.9" stroke="#fff50084"/><path d="M100-162.5l150.3 94.7" stroke="#c2e1ff84"/><path d="M100-162.5l162.5 70.1" stroke="#005bbb85"/><path d="M100-162.5l125.4 120.6" stroke="#005bbb85"/><path d="M100-162.5l-168-39.9" stroke="#fff50086"/><path d="M100-162.5l41.5 154.9" stroke="#fff88"/><path d="M100-162.5l-68.3-142.8" stroke="#fff89"/><path d="M100-162.5l-150.3-42.8" stroke="#005bbb89"/><path d="M100-162.5l-126.7-86.3" stroke="#fff8A"/><path d="M100-162.5l-49.4-143.3" stroke="#fff8A"/><path d="M100-162.5l-66.6-133.4" stroke="#fff8A"/><path d="M100-162.5l-143.1 32.7" stroke="#fff5008B"/><path d="M100-162.5l144.1-13.1" stroke="#005bbb8B"/><path d="M100-162.5l-130.1 58.3" stroke="#fff8B"/><path d="M100-162.5l-31.6-139" stroke="#005bbb8B"/><path d="M100-162.5l-2.5 140.9" stroke="#c2e1ff8C"/><path d="M100-162.5l-121.2-68.8" stroke="#fff5008C"/><path d="M100-162.5l132.3-9.3" stroke="#fff8D"/><path d="M100-162.5l-126 35.8" stroke="#fff8D"/><path d="M100-162.5l128 15" stroke="#005bbb8D"/><path d="M100-162.5l11.1 123" stroke="#c2e1ff8E"/><path d="M100-162.5l92.1-71.4" stroke="#fff8F"/><path d="M100-162.5l99.4-58.5" stroke="#fff8F"/><path d="M100-162.5l-104.3 24.2" stroke="#fff90"/><path d="M100-162.5l-50.5 94.2" stroke="#005bbb90"/><path d="M100-162.5l81 41.5" stroke="#005bbb92"/><path d="M100-162.5l37.1 77.3" stroke="#c2e1ff92"/><path d="M100-162.5l80.4-17.8" stroke="#fff50092"/><path d="M100-162.5l48.3-65.8" stroke="#c2e1ff92"/><path d="M100-162.5l61.8-41.7" stroke="#c2e1ff93"/><path d="M100-162.5l71.4 8.6" stroke="#c2e1ff93"/><path d="M100-162.5l-48.8 25.7" stroke="#c2e1ff94"/><path d="M100-162.5l-11.3-53.4" stroke="#fff50094"/><path d="M100-162.5l29.4 41.2" stroke="#fff94"/><path d="M100-162.5l-0.8 2" stroke="#fff50095"/></g><g class="sparcs"><path d="M99.3-130.1a5.9 5.9 0 1 1 0-11.9 5.9 5.9 0 0 1 0 11.9" fill="#c2e1ff7D"/><path d="M133.5-154.8a5.9 5.9 0 1 1 0-11.9 5.9 5.9 0 0 1 0 11.9" fill="#005bbb7D"/><path d="M138.4-158.5a5.9 5.9 0 1 1 0-11.9 5.9 5.9 0 0 1 0 11.9" fill="#fff7D"/><path d="M57.1-186a6 6 0 1 1 0-12 6 6 0 0 1 0 12" fill="#c2e1ff7E"/><path d="M38.6-144.5a6 6 0 1 1 0-12 6 6 0 0 1 0 12" fill="#005bbb7F"/><path d="M171-152a6 6 0 1 1 0-12.1 6 6 0 0 1 0 12.1" fill="#fff50080"/><path d="M155.8-204.7a6.1 6.1 0 1 1 0-12.1 6.1 6.1 0 0 1 0 12.1" fill="#fff50080"/><path d="M177.1-156a6.1 6.1 0 1 1 0-12.1 6.1 6.1 0 0 1 0 12.1" fill="#fff50080"/><path d="M164.5-199.6a6.1 6.1 0 1 1 0-12.2 6.1 6.1 0 0 1 0 12.2" fill="#fff50080"/><path d="M165.7-198.6a6.1 6.1 0 1 1 0-12.1 6.1 6.1 0 0 1 0 12.1" fill="#c2e1ff80"/><path d="M136-74.7a6.1 6.1 0 1 1 0-12.2 6.1 6.1 0 0 1 0 12.2" fill="#005bbb81"/><path d="M127.3-250.1a6.2 6.2 0 1 1 0-12.3 6.2 6.2 0 0 1 0 12.3" fill="#fff50082"/><path d="M177.8-224.5a6.2 6.2 0 1 1 0-12.4 6.2 6.2 0 0 1 0 12.4" fill="#005bbb83"/><path d="M166.9-242.5a6.2 6.2 0 1 1 0-12.5 6.2 6.2 0 0 1 0 12.5" fill="#fff84"/><path d="M99.8-265.4a6.2 6.2 0 1 1 0-12.5 6.2 6.2 0 0 1 0 12.5" fill="#c2e1ff84"/><path d="M161.3-255.6a6.3 6.3 0 1 1 0-12.6 6.3 6.3 0 0 1 0 12.6" fill="#fff50085"/><path d="M218.3-155a6.3 6.3 0 1 1 0-12.6 6.3 6.3 0 0 1 0 12.6" fill="#fff85"/><path d="M-20.1-100.5a6.4 6.4 0 1 1 0-12.9 6.4 6.4 0 0 1 0 12.9" fill="#fff88"/><path d="M-6.9-235.3a6.4 6.4 0 1 1 0-12.8 6.4 6.4 0 0 1 0 12.8" fill="#fff88"/><path d="M232-109.6a6.5 6.5 0 1 1 0-13 6.5 6.5 0 0 1 0 13" fill="#fff89"/><path d="M76.5-17.9a6.5 6.5 0 1 1 0-13 6.5 6.5 0 0 1 0 13" fill="#fff50089"/><path d="M214.1-74.2a6.5 6.5 0 1 1 0-12.9 6.5 6.5 0 0 1 0 12.9" fill="#c2e1ff89"/><path d="M49.3-24.6a6.5 6.5 0 1 1 0-13 6.5 6.5 0 0 1 0 13" fill="#fff89"/><path d="M-31.9-213.7a6.5 6.5 0 1 1 0-13 6.5 6.5 0 0 1 0 13" fill="#fff5008A"/><path d="M164.4-27.2a6.5 6.5 0 1 1 0-13 6.5 6.5 0 0 1 0 13" fill="#fff5008A"/><path d="M64-305.2a6.6 6.6 0 1 1 0-13.2 6.6 6.6 0 0 1 0 13.2" fill="#fff5008C"/><path d="M-13.1-43.9a6.7 6.7 0 1 1 0-13.4 6.7 6.7 0 0 1 0 13.4" fill="#fff5008D"/><path d="M182.5-14.7a6.7 6.7 0 1 1 0-13.5 6.7 6.7 0 0 1 0 13.5" fill="#fff8F"/><path d="M-67.3-183.6a6.8 6.8 0 1 1 0-13.6 6.8 6.8 0 0 1 0 13.6" fill="#005bbb90"/><path d="M19.4-313.5a6.9 6.9 0 1 1 0-13.8 6.9 6.9 0 0 1 0 13.8" fill="#fff50093"/><path d="M-70.2-207a6.9 6.9 0 1 1 0-13.8 6.9 6.9 0 0 1 0 13.8" fill="#fff50093"/><path d="M240.3-43.6a6.9 6.9 0 1 1 0-13.9 6.9 6.9 0 0 1 0 13.9" fill="#c2e1ff93"/><path d="M-79.7-153.9a6.9 6.9 0 1 1 0-13.9 6.9 6.9 0 0 1 0 13.9" fill="#fff50093"/><path d="M178.4 6.3a6.9 6.9 0 1 1 0-13.9 6.9 6.9 0 0 1 0 13.9" fill="#fff93"/><path d="M-73.9-208a7 7 0 1 1 0-13.9 7 7 0 0 1 0 13.9" fill="#fff50094"/><path d="M210.8-10.5a7 7 0 1 1 0-13.9 7 7 0 0 1 0 13.9" fill="#fff50094"/><path d="M260.6-248.3a7 7 0 1 1 0-14.1 7 7 0 0 1 0 14.1" fill="#005bbb95"/><path d="M107.7 33.6a7.1 7.1 0 1 1 0-14.2 7.1 7.1 0 0 1 0 14.2" fill="#fff97"/><path d="M-80.1-97.1a7.1 7.1 0 1 1 0-14.2 7.1 7.1 0 0 1 0 14.2" fill="#fff97"/><path d="M-91.7-164.6a7.1 7.1 0 1 1 0-14.2 7.1 7.1 0 0 1 0 14.2" fill="#fff98"/><path d="M96.4 37.4a7.2 7.2 0 1 1 0-14.3 7.2 7.2 0 0 1 0 14.3" fill="#fff98"/><path d="M39.4 28.2a7.2 7.2 0 1 1 0-14.3 7.2 7.2 0 0 1 0 14.3" fill="#fff50098"/><path d="M-11.7-314.2a7.2 7.2 0 1 1 0-14.4 7.2 7.2 0 0 1 0 14.4" fill="#fff98"/><path d="M103.5-353.3a7.3 7.3 0 1 1 0-14.5 7.3 7.3 0 0 1 0 14.5" fill="#c2e1ff9A"/><path d="M283.5-238.4a7.3 7.3 0 1 1 0-14.6 7.3 7.3 0 0 1 0 14.6" fill="#005bbb9C"/><path d="M-62.3-35a7.3 7.3 0 1 1 0-14.6 7.3 7.3 0 0 1 0 14.6" fill="#fff5009C"/><path d="M242.4-11.1a7.3 7.3 0 1 1 0-14.7 7.3 7.3 0 0 1 0 14.7" fill="#c2e1ff9C"/><path d="M118.4-360.9a7.4 7.4 0 1 1 0-14.9 7.4 7.4 0 0 1 0 14.9" fill="#fff5009E"/><path d="M-98.3-92.5a7.5 7.5 0 1 1 0-14.9 7.5 7.5 0 0 1 0 14.9" fill="#fff9F"/><path d="M285.2-252.9a7.5 7.5 0 1 1 0-14.9 7.5 7.5 0 0 1 0 14.9" fill="#c2e1ff9F"/><path d="M-50.1-4.2a7.6 7.6 0 1 1 0-15.2 7.6 7.6 0 0 1 0 15.2" fill="#fffA1"/><path d="M310-192.5a7.6 7.6 0 1 1 0-15.2 7.6 7.6 0 0 1 0 15.2" fill="#005bbbA2"/><path d="M194.3 36.7a7.6 7.6 0 1 1 0-15.2 7.6 7.6 0 0 1 0 15.2" fill="#fff500A2"/><path d="M116.5 59.8a7.6 7.6 0 1 1 0-15.3 7.6 7.6 0 0 1 0 15.3" fill="#005bbbA3"/><path d="M-67.5-16.2a7.7 7.7 0 1 1 0-15.4 7.7 7.7 0 0 1 0 15.4" fill="#c2e1ffA4"/><path d="M308.3-87.9a7.7 7.7 0 1 1 0-15.5 7.7 7.7 0 0 1 0 15.5" fill="#fffA5"/><path d="M96.3-373.8a7.8 7.8 0 1 1 0-15.5 7.8 7.8 0 0 1 0 15.5" fill="#fff500A5"/><path d="M318.7-141.8a7.8 7.8 0 1 1 0-15.5 7.8 7.8 0 0 1 0 15.5" fill="#fffA5"/><path d="M-0.1 40.6a7.8 7.8 0 1 1 0-15.5 7.8 7.8 0 0 1 0 15.5" fill="#005bbbA5"/><path d="M46.9 59.7a7.8 7.8 0 1 1 0-15.6 7.8 7.8 0 0 1 0 15.6" fill="#c2e1ffA6"/><path d="M-61.4-3.9a7.8 7.8 0 1 1 0-15.6 7.8 7.8 0 0 1 0 15.6" fill="#fff500A6"/><path d="M-36.2-329.7a7.8 7.8 0 1 1 0-15.7 7.8 7.8 0 0 1 0 15.7" fill="#005bbbA7"/><path d="M-121.7-172.1a7.9 7.9 0 1 1 0-15.7 7.9 7.9 0 0 1 0 15.7" fill="#fff500A8"/><path d="M226.1-338.4a7.9 7.9 0 1 1 0-15.8 7.9 7.9 0 0 1 0 15.8" fill="#fffA8"/><path d="M35.4 59.4a7.9 7.9 0 1 1 0-15.8 7.9 7.9 0 0 1 0 15.8" fill="#fff500A8"/><path d="M-11.8-349.2a7.9 7.9 0 1 1 0-15.9 7.9 7.9 0 0 1 0 15.9" fill="#c2e1ffA9"/><path d="M170.2-367.8a7.9 7.9 0 1 1 0-15.9 7.9 7.9 0 0 1 0 15.9" fill="#005bbbA9"/><path d="M285-25.5a8 8 0 1 1 0-15.9 8 8 0 0 1 0 15.9" fill="#005bbbAA"/><path d="M129.5 69.3a8 8 0 1 1 0-16 8 8 0 0 1 0 16" fill="#c2e1ffAA"/><path d="M262.3 4.4a8 8 0 1 1 0-16.1 8 8 0 0 1 0 16.1" fill="#fff500AC"/><path d="M150.6 67.2a8.1 8.1 0 1 1 0-16.1 8.1 8.1 0 0 1 0 16.1" fill="#fff500AC"/><path d="M17.8-367.1a8.1 8.1 0 1 1 0-16.2 8.1 8.1 0 0 1 0 16.2" fill="#005bbbAC"/><path d="M321.6-96.6a8.1 8.1 0 1 1 0-16.3 8.1 8.1 0 0 1 0 16.3" fill="#005bbbAE"/><path d="M31-373a8.1 8.1 0 1 1 0-16.3 8.1 8.1 0 0 1 0 16.3" fill="#005bbbAE"/><path d="M-128.3-175.6a8.1 8.1 0 1 1 0-16.3 8.1 8.1 0 0 1 0 16.3" fill="#fffAE"/><path d="M254.6-324.2a8.2 8.2 0 1 1 0-16.3 8.2 8.2 0 0 1 0 16.3" fill="#fff500AE"/><path d="M-46.4-332.5a8.2 8.2 0 1 1 0-16.4 8.2 8.2 0 0 1 0 16.4" fill="#005bbbAF"/><path d="M317.8-234.4a8.3 8.3 0 1 1 0-16.6 8.3 8.3 0 0 1 0 16.6" fill="#005bbbB1"/><path d="M215.7 47.3a8.3 8.3 0 1 1 0-16.6 8.3 8.3 0 0 1 0 16.6" fill="#c2e1ffB2"/><path d="M-98.8-275a8.3 8.3 0 1 1 0-16.6 8.3 8.3 0 0 1 0 16.6" fill="#fffB2"/><path d="M79.5 78.2a8.4 8.4 0 1 1 0-16.8 8.4 8.4 0 0 1 0 16.8" fill="#fff500B3"/><path d="M295.9-282.8a8.5 8.5 0 1 1 0-16.9 8.5 8.5 0 0 1 0 16.9" fill="#fff500B5"/><path d="M150 75.4a8.5 8.5 0 1 1 0-17.1 8.5 8.5 0 0 1 0 17.1" fill="#fff500B6"/><path d="M-78.9-1.8a8.5 8.5 0 1 1 0-17.1 8.5 8.5 0 0 1 0 17.1" fill="#c2e1ffB6"/><path d="M160.2 73.1a8.5 8.5 0 1 1 0-17.1 8.5 8.5 0 0 1 0 17.1" fill="#c2e1ffB7"/><path d="M335.2-157.7a8.6 8.6 0 1 1 0-17.2 8.6 8.6 0 0 1 0 17.2" fill="#005bbbB7"/><path d="M35.9 72.5a8.6 8.6 0 1 1 0-17.2 8.6 8.6 0 0 1 0 17.2" fill="#fff500B8"/><path d="M290-15a8.6 8.6 0 1 1 0-17.2 8.6 8.6 0 0 1 0 17.2" fill="#005bbbB8"/><path d="M259.8 19a8.6 8.6 0 1 1 0-17.2 8.6 8.6 0 0 1 0 17.2" fill="#fff500B8"/><path d="M-133.7-123.9a8.6 8.6 0 1 1 0-17.3 8.6 8.6 0 0 1 0 17.3" fill="#c2e1ffB9"/><path d="M326.9-88.7a8.7 8.7 0 1 1 0-17.5 8.7 8.7 0 0 1 0 17.5" fill="#fff500BB"/><path d="M-77-310.1a8.9 8.9 0 1 1 0-17.8 8.9 8.9 0 0 1 0 17.8" fill="#fffBE"/><path d="M300.6-28.8a8.9 8.9 0 1 1 0-17.8 8.9 8.9 0 0 1 0 17.8" fill="#fffBE"/><path d="M-10.7 55.1a8.9 8.9 0 1 1 0-17.9 8.9 8.9 0 0 1 0 17.9" fill="#005bbbBF"/><path d="M-51.5 27.6a8.9 8.9 0 1 1 0-17.9 8.9 8.9 0 0 1 0 17.9" fill="#fff500BF"/><path d="M-125-82a9 9 0 1 1 0-17.9 9 9 0 0 1 0 17.9" fill="#fff500C0"/><path d="M166.6-380.1a9 9 0 1 1 0-17.9 9 9 0 0 1 0 17.9" fill="#fffC0"/><path d="M285.7-7.9a9 9 0 1 1 0-18 9 9 0 0 1 0 18" fill="#005bbbC1"/><path d="M-107.8-41.9a9 9 0 1 1 0-18.1 9 9 0 0 1 0 18.1" fill="#005bbbC1"/><path d="M322.3-76a9.1 9.1 0 1 1 0-18.2 9.1 9.1 0 0 1 0 18.2" fill="#fffC3"/><path d="M319.8-237.1a9.1 9.1 0 1 1 0-18.3 9.1 9.1 0 0 1 0 18.3" fill="#fffC4"/><path d="M238.5-342.6a9.2 9.2 0 1 1 0-18.4 9.2 9.2 0 0 1 0 18.4" fill="#fffC5"/><path d="M259.8 18.3a9.2 9.2 0 1 1 0-18.5 9.2 9.2 0 0 1 0 18.5" fill="#fff500C6"/><path d="M37.5-378.5a9.3 9.3 0 1 1 0-18.6 9.3 9.3 0 0 1 0 18.6" fill="#fffC7"/><path d="M333.5-153.2a9.3 9.3 0 1 1 0-18.6 9.3 9.3 0 0 1 0 18.6" fill="#fff500C7"/><path d="M333.5-150a9.3 9.3 0 1 1 0-18.6 9.3 9.3 0 0 1 0 18.6" fill="#c2e1ffC7"/><path d="M317.5-69.3a9.3 9.3 0 1 1 0-18.7 9.3 9.3 0 0 1 0 18.7" fill="#fff500C8"/><path d="M-73.1-309.2a9.3 9.3 0 1 1 0-18.7 9.3 9.3 0 0 1 0 18.7" fill="#005bbbC8"/><path d="M160.8 71.5a9.4 9.4 0 1 1 0-18.7 9.4 9.4 0 0 1 0 18.7" fill="#005bbbC9"/><path d="M175.4-372.5a9.4 9.4 0 1 1 0-18.9 9.4 9.4 0 0 1 0 18.9" fill="#c2e1ffCA"/><path d="M305.7-46.2a9.4 9.4 0 1 1 0-18.8 9.4 9.4 0 0 1 0 18.8" fill="#005bbbCA"/><path d="M326.7-196.8a9.5 9.5 0 1 1 0-18.9 9.5 9.5 0 0 1 0 18.9" fill="#c2e1ffCB"/><path d="M38.5-373.8a9.6 9.6 0 1 1 0-19.1 9.6 9.6 0 0 1 0 19.1" fill="#fff500CD"/><path d="M263.1-311.3a9.7 9.7 0 1 1 0-19.3 9.7 9.7 0 0 1 0 19.3" fill="#c2e1ffCF"/><path d="M228.2-340a9.7 9.7 0 1 1 0-19.3 9.7 9.7 0 0 1 0 19.3" fill="#fff500D0"/><path d="M48.3-371a9.8 9.8 0 1 1 0-19.5 9.8 9.8 0 0 1 0 19.5" fill="#c2e1ffD2"/><path d="M-4.6-350.1a9.8 9.8 0 1 1 0-19.7 9.8 9.8 0 0 1 0 19.7" fill="#c2e1ffD3"/><path d="M-53.1-314.6a9.8 9.8 0 1 1 0-19.7 9.8 9.8 0 0 1 0 19.7" fill="#005bbbD3"/><path d="M-122.6-144.2a9.8 9.8 0 1 1 0-19.7 9.8 9.8 0 0 1 0 19.7" fill="#fff500D3"/><path d="M90.4 68.4a9.9 9.9 0 1 1 0-19.8 9.9 9.9 0 0 1 0 19.8" fill="#c2e1ffD4"/><path d="M-82-278.1a9.9 9.9 0 1 1 0-19.8 9.9 9.9 0 0 1 0 19.8" fill="#fff500D4"/><path d="M310.4-214.3a10 10 0 1 1 0-19.9 10 10 0 0 1 0 19.9" fill="#c2e1ffD6"/><path d="M228.4-330.1a10 10 0 1 1 0-19.9 10 10 0 0 1 0 19.9" fill="#c2e1ffD6"/><path d="M-48 8a10 10 0 1 1 0-19.9 10 10 0 0 1 0 19.9" fill="#fffD6"/><path d="M312.2-203a10 10 0 1 1 0-20 10 10 0 0 1 0 20" fill="#fffD6"/><path d="M296.9-244.1a10 10 0 1 1 0-20.1 10 10 0 0 1 0 20.1" fill="#c2e1ffD7"/><path d="M-103.2-76.7a10 10 0 1 1 0-20 10 10 0 0 1 0 20" fill="#fff500D7"/><path d="M157.5-359.8a10.1 10.1 0 1 1 0-20.1 10.1 10.1 0 0 1 0 20.1" fill="#005bbbD8"/><path d="M122.5 60.8a10.1 10.1 0 1 1 0-20.2 10.1 10.1 0 0 1 0 20.2" fill="#fff500D9"/><path d="M-101.7-81a10.1 10.1 0 1 1 0-20.2 10.1 10.1 0 0 1 0 20.2" fill="#c2e1ffD9"/><path d="M-16.2-329.2a10.2 10.2 0 1 1 0-20.3 10.2 10.2 0 0 1 0 20.3" fill="#005bbbDA"/><path d="M-108.4-188.1a10.2 10.2 0 1 1 0-20.4 10.2 10.2 0 0 1 0 20.4" fill="#fff500DB"/><path d="M218.1-324.5a10.2 10.2 0 1 1 0-20.4 10.2 10.2 0 0 1 0 20.4" fill="#fffDC"/><path d="M112.3-358.2a10.3 10.3 0 1 1 0-20.6 10.3 10.3 0 0 1 0 20.6" fill="#fff500DD"/><path d="M-26.1-315.2a10.3 10.3 0 1 1 0-20.6 10.3 10.3 0 0 1 0 20.6" fill="#fff500DD"/><path d="M134.5 47.6a10.4 10.4 0 1 1 0-20.7 10.4 10.4 0 0 1 0 20.7" fill="#fff500DF"/><path d="M-80.3-60.6a10.4 10.4 0 1 1 0-20.8 10.4 10.4 0 0 1 0 20.8" fill="#fff500DF"/><path d="M-52.1-19.6a10.4 10.4 0 1 1 0-20.8 10.4 10.4 0 0 1 0 20.8" fill="#c2e1ffDF"/><path d="M292.4-208.8a10.4 10.4 0 1 1 0-20.8 10.4 10.4 0 0 1 0 20.8" fill="#fff500E0"/><path d="M-91.3-204.3a10.5 10.5 0 1 1 0-20.9 10.5 10.5 0 0 1 0 20.9" fill="#c2e1ffE1"/><path d="M218-308.3a10.5 10.5 0 1 1 0-21 10.5 10.5 0 0 1 0 21" fill="#fffE2"/><path d="M59.7 37.4a10.6 10.6 0 1 1 0-21.1 10.6 10.6 0 0 1 0 21.1" fill="#005bbbE3"/><path d="M288.4-142.3a10.6 10.6 0 1 1 0-21.3 10.6 10.6 0 0 1 0 21.3" fill="#005bbbE5"/><path d="M82.1-337.6a10.7 10.7 0 1 1 0-21.4 10.7 10.7 0 0 1 0 21.4" fill="#005bbbE5"/><path d="M111.5 32.6a10.7 10.7 0 1 1 0-21.4 10.7 10.7 0 0 1 0 21.4" fill="#c2e1ffE6"/><path d="M203-3.2a10.8 10.8 0 1 1 0-21.6 10.8 10.8 0 0 1 0 21.6" fill="#005bbbE7"/><path d="M214.7-287.6a10.8 10.8 0 1 1 0-21.6 10.8 10.8 0 0 1 0 21.6" fill="#c2e1ffE8"/><path d="M250.3-57a10.8 10.8 0 1 1 0-21.6 10.8 10.8 0 0 1 0 21.6" fill="#005bbbE8"/><path d="M262.5-81.6a10.8 10.8 0 1 1 0-21.6 10.8 10.8 0 0 1 0 21.6" fill="#c2e1ffE9"/><path d="M225.4-31.1a10.9 10.9 0 1 1 0-21.7 10.9 10.9 0 0 1 0 21.7" fill="#fffE9"/><path d="M-68-191.6a10.9 10.9 0 1 1 0-21.7 10.9 10.9 0 0 1 0 21.7" fill="#005bbbEA"/><path d="M141.5 3.5a11 11 0 1 1 0-22.1 11 11 0 0 1 0 22.1" fill="#c2e1ffED"/><path d="M31.7-294.3a11.1 11.1 0 1 1 0-22.1 11.1 11.1 0 0 1 0 22.1" fill="#fff500EE"/><path d="M-50.3-194.3a11.1 11.1 0 1 1 0-22.1 11.1 11.1 0 0 1 0 22.1" fill="#fff500EE"/><path d="M-26.7-237.7a11.1 11.1 0 1 1 0-22.2 11.1 11.1 0 0 1 0 22.2" fill="#c2e1ffEF"/><path d="M50.6-294.6a11.1 11.1 0 1 1 0-22.3 11.1 11.1 0 0 1 0 22.3" fill="#fffEF"/><path d="M33.4-284.7a11.2 11.2 0 1 1 0-22.3 11.2 11.2 0 0 1 0 22.3" fill="#005bbbF0"/><path d="M-43.1-118.6a11.2 11.2 0 1 1 0-22.4 11.2 11.2 0 0 1 0 22.4" fill="#fff500F0"/><path d="M244.1-164.4a11.2 11.2 0 1 1 0-22.4 11.2 11.2 0 0 1 0 22.4" fill="#fffF1"/><path d="M-30.1-92.9a11.2 11.2 0 1 1 0-22.5 11.2 11.2 0 0 1 0 22.5" fill="#fff500F1"/><path d="M68.4-290.3a11.2 11.2 0 1 1 0-22.4 11.2 11.2 0 0 1 0 22.4" fill="#005bbbF1"/><path d="M97.5-10.4a11.2 11.2 0 1 1 0-22.4 11.2 11.2 0 0 1 0 22.4" fill="#fff500F2"/><path d="M-21.2-220.1a11.2 11.2 0 1 1 0-22.5 11.2 11.2 0 0 1 0 22.5" fill="#005bbbF2"/><path d="M232.3-160.5a11.3 11.3 0 1 1 0-22.6 11.3 11.3 0 0 1 0 22.6" fill="#005bbbF3"/><path d="M-26-115.4a11.3 11.3 0 1 1 0-22.6 11.3 11.3 0 0 1 0 22.6" fill="#005bbbF4"/><path d="M228-136.2a11.3 11.3 0 1 1 0-22.7 11.3 11.3 0 0 1 0 22.7" fill="#c2e1ffF4"/><path d="M111.1-28.2a11.4 11.4 0 1 1 0-22.7 11.4 11.4 0 0 1 0 22.7" fill="#fffF5"/><path d="M192.1-222.5a11.4 11.4 0 1 1 0-22.9 11.4 11.4 0 0 1 0 22.9" fill="#c2e1ffF6"/><path d="M199.4-209.6a11.4 11.4 0 1 1 0-22.8 11.4 11.4 0 0 1 0 22.8" fill="#005bbbF6"/><path d="M-4.3-126.8a11.5 11.5 0 1 1 0-23 11.5 11.5 0 0 1 0 23" fill="#fffF7"/><path d="M49.5-56.8a11.5 11.5 0 1 1 0-23 11.5 11.5 0 0 1 0 23" fill="#fff500F7"/><path d="M181-109.4a11.6 11.6 0 1 1 0-23.1 11.6 11.6 0 0 1 0 23.1" fill="#005bbbF9"/><path d="M137.1-73.6a11.6 11.6 0 1 1 0-23.2 11.6 11.6 0 0 1 0 23.2" fill="#005bbbFA"/><path d="M180.4-168.7a11.6 11.6 0 1 1 0-23.2 11.6 11.6 0 0 1 0 23.2" fill="#005bbbFA"/><path d="M148.3-216.6a11.6 11.6 0 1 1 0-23.3 11.6 11.6 0 0 1 0 23.3" fill="#fff500FA"/><path d="M161.8-192.6a11.7 11.7 0 1 1 0-23.3 11.7 11.7 0 0 1 0 23.3" fill="#fffFB"/><path d="M171.4-142.3a11.7 11.7 0 1 1 0-23.3 11.7 11.7 0 0 1 0 23.3" fill="#005bbbFB"/><path d="M51.2-125.1a11.7 11.7 0 1 1 0-23.5 11.7 11.7 0 0 1 0 23.5" fill="#005bbbFD"/><path d="M88.7-204.1a11.7 11.7 0 1 1 0-23.5 11.7 11.7 0 0 1 0 23.5" fill="#fffFD"/><path d="M129.4-109.6a11.7 11.7 0 1 1 0-23.4 11.7 11.7 0 0 1 0 23.4" fill="#c2e1ffFD"/><path d="M99.2-148.7a11.8 11.8 0 1 1 0-23.7 11.8 11.8 0 0 1 0 23.7" fill="#fffFE"/></g></svg>