<svg width="1200" height="675" viewBox="-500 -500 1200 675" xmlns="http://www.w3.org/2000/svg"><path d="M-500-500h1200v675h-1200z" fill="#000"/><style>.sparkles path{stroke-linecap:round; stroke-width:1}</style><g class="sparkles"><path d="M100-162.5l-3.1 4" stroke="#c2e1ff32"/><path d="M100-162.5l-2.9 11.6" stroke="#fff32"/><path d="M100-162.5l33.6 4.9" stroke="#c2e1ff32"/><path d="M100-162.5l35.2 0.8" stroke="#fff32"/><path d="M100-162.5l-33.2-37.2" stroke="#005bbb33"/><path d="M100-162.5l47.9-50.5" stroke="#fff50034"/><path d="M100-162.5l-10.1-91.6" stroke="#fff35"/><path d="M100-162.5l24.5-106.4" stroke="#005bbb37"/><path d="M100-162.5l40.9 102.5" stroke="#fff50037"/><path d="M100-162.5l81.1 79.3" stroke="#fff50038"/><path d="M100-162.5l-43.7-104.7" stroke="#fff38"/><path d="M100-162.5l48.5 109.7" stroke="#fff38"/><path d="M100-162.5l120.9-8.2" stroke="#c2e1ff39"/><path d="M100-162.5l123.1 0" stroke="#fff39"/><path d="M100-162.5l102.3-75.9" stroke="#fff50039"/><path d="M100-162.5l-50.8 116.9" stroke="#c2e1ff39"/><path d="M100-162.5l136.6-9.9" stroke="#fff3B"/><path d="M100-162.5l140.2-20.3" stroke="#fff3B"/><path d="M100-162.5l143.7 21.9" stroke="#c2e1ff3C"/><path d="M100-162.5l75.3 125.4" stroke="#c2e1ff3C"/><path d="M100-162.5l-112.6 96.6" stroke="#fff3D"/><path d="M100-162.5l39-146.2" stroke="#005bbb3D"/><path d="M100-162.5l-89.4-122.5" stroke="#c2e1ff3D"/><path d="M100-162.5l135.1 73.5" stroke="#c2e1ff3E"/><path d="M100-162.5l-95.4-135.6" stroke="#fff50040"/><path d="M100-162.5l-167.2 11.8" stroke="#005bbb40"/><path d="M100-162.5l22.8 167.3" stroke="#c2e1ff41"/><path d="M100-162.5l154.2-70.2" stroke="#fff41"/><path d="M100-162.5l-58.2 160" stroke="#fff50041"/><path d="M100-162.5l-39.1 171.9" stroke="#c2e1ff42"/><path d="M100-162.5l159.9 75.7" stroke="#fff50042"/><path d="M100-162.5l-35.5 173.8" stroke="#005bbb42"/><path d="M100-162.5l51-173.7" stroke="#c2e1ff43"/><path d="M100-162.5l164.3-80.7" stroke="#c2e1ff44"/><path d="M100-162.5l-183.1 30.5" stroke="#fff45"/><path d="M100-162.5l-155.4-105.1" stroke="#005bbb45"/><path d="M100-162.5l189.7-14" stroke="#005bbb46"/><path d="M100-162.5l135.8-133.7" stroke="#c2e1ff46"/><path d="M100-162.5l177.8-85.7" stroke="#005bbb48"/><path d="M100-162.5l-152.7 129.8" stroke="#fff49"/><path d="M100-162.5l-199.7-19.7" stroke="#005bbb49"/><path d="M100-162.5l24.4-199.2" stroke="#005bbb49"/><path d="M100-162.5l133.8 159.6" stroke="#005bbb4C"/><path d="M100-162.5l-201.5-56.6" stroke="#c2e1ff4C"/><path d="M100-162.5l-209.3-4.2" stroke="#fff5004C"/><path d="M100-162.5l-84-193.7" stroke="#fff4D"/><path d="M100-162.5l-173.1 121.5" stroke="#fff5004D"/><path d="M100-162.5l67 201.8" stroke="#fff5004E"/><path d="M100-162.5l-1.4 215.5" stroke="#fff4F"/><path d="M100-162.5l184.2-113" stroke="#005bbb4F"/><path d="M100-162.5l-99.6 192.8" stroke="#c2e1ff50"/><path d="M100-162.5l-205.9 70.7" stroke="#c2e1ff50"/><path d="M100-162.5l-136.5-169.6" stroke="#c2e1ff50"/><path d="M100-162.5l-215.4-46.6" stroke="#fff52"/><path d="M100-162.5l-98.3-197.5" stroke="#005bbb52"/><path d="M100-162.5l-55.1-215.2" stroke="#fff52"/><path d="M100-162.5l-200.8-95.3" stroke="#fff53"/><path d="M100-162.5l113.9 192.9" stroke="#fff50054"/><path d="M100-162.5l184.9 127.1" stroke="#005bbb54"/><path d="M100-162.5l195 111.9" stroke="#fff54"/><path d="M100-162.5l190.1 121.6" stroke="#fff55"/><path d="M100-162.5l73.5-213.9" stroke="#fff50055"/><path d="M100-162.5l-119.4 192.3" stroke="#fff55"/><path d="M100-162.5l203.1-102.4" stroke="#c2e1ff56"/><path d="M100-162.5l7.9 228" stroke="#fff50056"/><path d="M100-162.5l132.8 185.6" stroke="#fff50057"/><path d="M100-162.5l225.7 40.3" stroke="#005bbb57"/><path d="M100-162.5l143.6 178.7" stroke="#fff57"/><path d="M100-162.5l-99.9 206.5" stroke="#005bbb58"/><path d="M100-162.5l3-230" stroke="#c2e1ff58"/><path d="M100-162.5l-202 111.3" stroke="#fff50059"/><path d="M100-162.5l-160.9-165.7" stroke="#fff50059"/><path d="M100-162.5l-228.3 38.8" stroke="#fff5005A"/><path d="M100-162.5l188.1-136.1" stroke="#005bbb5A"/><path d="M100-162.5l50.9 227.1" stroke="#fff5005B"/><path d="M100-162.5l71.9 221.4" stroke="#c2e1ff5B"/><path d="M100-162.5l227.9-48" stroke="#fff5B"/><path d="M100-162.5l-90.7-214.6" stroke="#c2e1ff5B"/><path d="M100-162.5l4.8-233.4" stroke="#fff5C"/><path d="M100-162.5l-204.8-113.4" stroke="#c2e1ff5D"/><path d="M100-162.5l133.6 192.3" stroke="#fff5D"/><path d="M100-162.5l57.1-227.1" stroke="#fff5005D"/><path d="M100-162.5l77-221.7" stroke="#005bbb5E"/><path d="M100-162.5l191.7 135.5" stroke="#c2e1ff5E"/><path d="M100-162.5l-214.6-96.4" stroke="#fff5005F"/><path d="M100-162.5l88-218.2" stroke="#005bbb5F"/><path d="M100-162.5l-149-182.2" stroke="#005bbb5F"/><path d="M100-162.5l225.3-69" stroke="#fff50060"/><path d="M100-162.5l83.1-221" stroke="#fff50062"/><path d="M100-162.5l-194.6 133.7" stroke="#fff50062"/><path d="M100-162.5l-212-104.2" stroke="#c2e1ff63"/><path d="M100-162.5l-194.3 134.3" stroke="#fff50064"/><path d="M100-162.5l128.9-197.9" stroke="#005bbb64"/><path d="M100-162.5l-234.4-29" stroke="#fff65"/><path d="M100-162.5l-184.3-147.4" stroke="#fff50066"/><path d="M100-162.5l222.7 76.9" stroke="#fff67"/><path d="M100-162.5l-123.6-200" stroke="#c2e1ff68"/><path d="M100-162.5l135.7-191.9" stroke="#c2e1ff69"/><path d="M100-162.5l-78.4-220.8" stroke="#fff5006A"/><path d="M100-162.5l-222.8 71.4" stroke="#005bbb6A"/><path d="M100-162.5l-191.9-133" stroke="#c2e1ff6B"/><path d="M100-162.5l-219.3-79.9" stroke="#c2e1ff6B"/><path d="M100-162.5l130 193.7" stroke="#005bbb6B"/><path d="M100-162.5l-198.1-122.3" stroke="#fff5006C"/><path d="M100-162.5l-81 217.6" stroke="#fff6D"/><path d="M100-162.5l202.1-113.8" stroke="#fff6D"/><path d="M100-162.5l-41.5-227.9" stroke="#fff5006D"/><path d="M100-162.5l140.7-183.8" stroke="#c2e1ff6E"/><path d="M100-162.5l130.8-190.1" stroke="#fff6E"/><path d="M100-162.5l222.9 58.7" stroke="#fff5006E"/><path d="M100-162.5l-207.1-100.5" stroke="#fff6F"/><path d="M100-162.5l218.8 68.6" stroke="#fff70"/><path d="M100-162.5l5.7-229.1" stroke="#fff50070"/><path d="M100-162.5l-211.7 87.8" stroke="#c2e1ff70"/><path d="M100-162.5l227.7 24.4" stroke="#005bbb70"/><path d="M100-162.5l-71.2-216.4" stroke="#c2e1ff71"/><path d="M100-162.5l-198.3 109.9" stroke="#c2e1ff72"/><path d="M100-162.5l-156-163.7" stroke="#005bbb72"/><path d="M100-162.5l-5.1 224.3" stroke="#c2e1ff73"/><path d="M100-162.5l80.3 208.3" stroke="#fff50074"/><path d="M100-162.5l117.3-188" stroke="#c2e1ff75"/><path d="M100-162.5l185-116.7" stroke="#fff76"/><path d="M100-162.5l91.7 198.1" stroke="#fff50077"/><path d="M100-162.5l31.8 215.9" stroke="#fff50077"/><path d="M100-162.5l-170.7-135.5" stroke="#fff50077"/><path d="M100-162.5l85.8-198.8" stroke="#fff77"/><path d="M100-162.5l-113.7 183.4" stroke="#fff50078"/><path d="M100-162.5l214.7-5.3" stroke="#005bbb78"/><path d="M100-162.5l214.1 0.2" stroke="#c2e1ff79"/><path d="M100-162.5l119.4 176.8" stroke="#fff50079"/><path d="M100-162.5l128.9-169.4" stroke="#005bbb79"/><path d="M100-162.5l-4.6 210.9" stroke="#c2e1ff7A"/><path d="M100-162.5l174.9 109.5" stroke="#fff7C"/><path d="M100-162.5l164.9 121.4" stroke="#005bbb7C"/><path d="M100-162.5l202.5 20.9" stroke="#fff5007D"/><path d="M100-162.5l-111 169.2" stroke="#fff7D"/><path d="M100-162.5l-83-182.2" stroke="#fff5007E"/><path d="M100-162.5l-169.1-100.6" stroke="#c2e1ff7F"/><path d="M100-162.5l-64.6-184.6" stroke="#fff80"/><path d="M100-162.5l193.6-4.9" stroke="#c2e1ff80"/><path d="M100-162.5l-38.3 189.7" stroke="#c2e1ff80"/><path d="M100-162.5l-8.4-192.9" stroke="#005bbb80"/><path d="M100-162.5l-184.4-45.3" stroke="#fff50081"/><path d="M100-162.5l-169.7 84.2" stroke="#005bbb81"/><path d="M100-162.5l-172.3 77.1" stroke="#005bbb82"/><path d="M100-162.5l182.1 34.5" stroke="#fff83"/><path d="M100-162.5l91.8 155.3" stroke="#fff50084"/><path d="M100-162.5l-43.8 173.1" stroke="#c2e1ff84"/><path d="M100-162.5l-174.2-37.2" stroke="#fff50084"/><path d="M100-162.5l98.6 145.4" stroke="#fff50085"/><path d="M100-162.5l-99.8-142.4" stroke="#c2e1ff85"/><path d="M100-162.5l154.9-71.1" stroke="#c2e1ff86"/><path d="M100-162.5l-165.8 21.3" stroke="#005bbb87"/><path d="M100-162.5l-66.3 148.9" stroke="#c2e1ff88"/><path d="M100-162.5l-135.5 90" stroke="#fff88"/><path d="M100-162.5l103 124.8" stroke="#fff50088"/><path d="M100-162.5l55.2 150.6" stroke="#fff88"/><path d="M100-162.5l143.2 67.8" stroke="#c2e1ff89"/><path d="M100-162.5l-146.4-55" stroke="#c2e1ff89"/><path d="M100-162.5l-84.4-123.2" stroke="#fff8A"/><path d="M100-162.5l90.3-117.1" stroke="#005bbb8A"/><path d="M100-162.5l126.4-69.7" stroke="#fff8B"/><path d="M100-162.5l-54.6-132.5" stroke="#005bbb8B"/><path d="M100-162.5l27.1 136.3" stroke="#fff8C"/><path d="M100-162.5l105.9-86.5" stroke="#c2e1ff8C"/><path d="M100-162.5l91.4 95.1" stroke="#fff8D"/><path d="M100-162.5l-83.8 97.9" stroke="#c2e1ff8D"/><path d="M100-162.5l-60.7 110.6" stroke="#005bbb8E"/><path d="M100-162.5l110.3 42.7" stroke="#c2e1ff8F"/><path d="M100-162.5l-79.4-86.7" stroke="#005bbb8F"/><path d="M100-162.5l-12 111.8" stroke="#fff8F"/><path d="M100-162.5l-111.6 6.3" stroke="#c2e1ff90"/><path d="M100-162.5l-73.1-84.2" stroke="#fff90"/><path d="M100-162.5l-52.6 97.8" stroke="#fff90"/><path d="M100-162.5l-4.4 93" stroke="#fff50091"/><path d="M100-162.5l-86.5-26.2" stroke="#fff50092"/><path d="M100-162.5l20.9 65.9" stroke="#fff50093"/><path d="M100-162.5l10.2-59.2" stroke="#fff94"/><path d="M100-162.5l-32-19.1" stroke="#005bbb95"/><path d="M100-162.5l-20.1-31.3" stroke="#005bbb95"/><path d="M100-162.5l5.2-36.3" stroke="#fff50095"/></g><g class="sparcs"><path d="M96.9-152.6a5.9 5.9 0 1 1 0-11.8 5.9 5.9 0 0 1 0 11.8" fill="#fff7D"/><path d="M97.1-145a5.9 5.9 0 1 1 0-11.8 5.9 5.9 0 0 1 0 11.8" fill="#fff5007D"/><path d="M133.6-151.7a5.9 5.9 0 1 1 0-11.9 5.9 5.9 0 0 1 0 11.9" fill="#fff7D"/><path d="M135.2-155.7a5.9 5.9 0 1 1 0-11.9 5.9 5.9 0 0 1 0 11.9" fill="#fff5007D"/><path d="M66.8-193.7a6 6 0 1 1 0-12 6 6 0 0 1 0 12" fill="#005bbb7E"/><path d="M147.9-206.9a6 6 0 1 1 0-12.1 6 6 0 0 1 0 12.1" fill="#fff5007F"/><path d="M89.9-247.9a6.1 6.1 0 1 1 0-12.3 6.1 6.1 0 0 1 0 12.3" fill="#c2e1ff82"/><path d="M124.5-262.7a6.2 6.2 0 1 1 0-12.5 6.2 6.2 0 0 1 0 12.5" fill="#fff84"/><path d="M140.9-53.7a6.2 6.2 0 1 1 0-12.5 6.2 6.2 0 0 1 0 12.5" fill="#005bbb84"/><path d="M181.1-76.9a6.3 6.3 0 1 1 0-12.5 6.3 6.3 0 0 1 0 12.5" fill="#c2e1ff84"/><path d="M56.3-260.9a6.3 6.3 0 1 1 0-12.6 6.3 6.3 0 0 1 0 12.6" fill="#c2e1ff84"/><path d="M148.5-46.5a6.3 6.3 0 1 1 0-12.6 6.3 6.3 0 0 1 0 12.6" fill="#fff50085"/><path d="M220.9-164.3a6.3 6.3 0 1 1 0-12.7 6.3 6.3 0 0 1 0 12.7" fill="#c2e1ff86"/><path d="M223.1-156.2a6.3 6.3 0 1 1 0-12.6 6.3 6.3 0 0 1 0 12.6" fill="#005bbb86"/><path d="M202.3-232a6.4 6.4 0 1 1 0-12.7 6.4 6.4 0 0 1 0 12.7" fill="#fff87"/><path d="M49.2-39.2a6.4 6.4 0 1 1 0-12.7 6.4 6.4 0 0 1 0 12.7" fill="#fff87"/><path d="M236.6-165.9a6.5 6.5 0 1 1 0-12.9 6.5 6.5 0 0 1 0 12.9" fill="#fff89"/><path d="M240.2-176.3a6.5 6.5 0 1 1 0-13 6.5 6.5 0 0 1 0 13" fill="#fff89"/><path d="M243.7-134.1a6.5 6.5 0 1 1 0-13 6.5 6.5 0 0 1 0 13" fill="#fff8A"/><path d="M175.3-30.6a6.5 6.5 0 1 1 0-13 6.5 6.5 0 0 1 0 13" fill="#fff8A"/><path d="M-12.6-59.4a6.6 6.6 0 1 1 0-13.1 6.6 6.6 0 0 1 0 13.1" fill="#fff8B"/><path d="M139-302.1a6.6 6.6 0 1 1 0-13.2 6.6 6.6 0 0 1 0 13.2" fill="#fff8C"/><path d="M10.6-278.4a6.6 6.6 0 1 1 0-13.2 6.6 6.6 0 0 1 0 13.2" fill="#fff5008C"/><path d="M235.1-82.4a6.6 6.6 0 1 1 0-13.2 6.6 6.6 0 0 1 0 13.2" fill="#005bbb8C"/><path d="M4.6-291.3a6.8 6.8 0 1 1 0-13.5 6.8 6.8 0 0 1 0 13.5" fill="#fff5008F"/><path d="M-67.2-143.9a6.8 6.8 0 1 1 0-13.5 6.8 6.8 0 0 1 0 13.5" fill="#fff50090"/><path d="M122.8 11.6a6.8 6.8 0 1 1 0-13.6 6.8 6.8 0 0 1 0 13.6" fill="#c2e1ff90"/><path d="M254.2-225.9a6.8 6.8 0 1 1 0-13.6 6.8 6.8 0 0 1 0 13.6" fill="#fff90"/><path d="M41.8 4.3a6.8 6.8 0 1 1 0-13.6 6.8 6.8 0 0 1 0 13.6" fill="#c2e1ff90"/><path d="M60.9 16.3a6.9 6.9 0 1 1 0-13.8 6.9 6.9 0 0 1 0 13.8" fill="#fff50092"/><path d="M259.9-79.9a6.9 6.9 0 1 1 0-13.8 6.9 6.9 0 0 1 0 13.8" fill="#c2e1ff92"/><path d="M64.5 18.2a6.9 6.9 0 1 1 0-13.8 6.9 6.9 0 0 1 0 13.8" fill="#fff50093"/><path d="M151-329.2a7 7 0 1 1 0-14 7 7 0 0 1 0 14" fill="#005bbb94"/><path d="M264.3-236.2a7 7 0 1 1 0-14 7 7 0 0 1 0 14" fill="#fff94"/><path d="M-83.1-124.9a7 7 0 1 1 0-14.1 7 7 0 0 1 0 14.1" fill="#fff50095"/><path d="M-55.4-260.5a7.1 7.1 0 1 1 0-14.1 7.1 7.1 0 0 1 0 14.1" fill="#fff50096"/><path d="M289.7-169.4a7.1 7.1 0 1 1 0-14.2 7.1 7.1 0 0 1 0 14.2" fill="#c2e1ff97"/><path d="M235.8-289.1a7.1 7.1 0 1 1 0-14.3 7.1 7.1 0 0 1 0 14.3" fill="#fff50097"/><path d="M277.8-240.9a7.2 7.2 0 1 1 0-14.5 7.2 7.2 0 0 1 0 14.5" fill="#fff9A"/><path d="M-52.7-25.4a7.3 7.3 0 1 1 0-14.5 7.3 7.3 0 0 1 0 14.5" fill="#fff5009B"/><path d="M-99.7-174.9a7.3 7.3 0 1 1 0-14.6 7.3 7.3 0 0 1 0 14.6" fill="#c2e1ff9B"/><path d="M124.4-354.4a7.3 7.3 0 1 1 0-14.6 7.3 7.3 0 0 1 0 14.6" fill="#fff5009B"/><path d="M233.8 4.5a7.5 7.5 0 1 1 0-14.9 7.5 7.5 0 0 1 0 14.9" fill="#005bbb9F"/><path d="M-101.5-211.6a7.5 7.5 0 1 1 0-15 7.5 7.5 0 0 1 0 15" fill="#c2e1ff9F"/><path d="M-109.3-159.2a7.5 7.5 0 1 1 0-15 7.5 7.5 0 0 1 0 15" fill="#c2e1ff9F"/><path d="M16-348.6a7.5 7.5 0 1 1 0-15.1 7.5 7.5 0 0 1 0 15.1" fill="#fffA0"/><path d="M-73.1-33.5a7.5 7.5 0 1 1 0-15 7.5 7.5 0 0 1 0 15" fill="#fff500A1"/><path d="M167 46.8a7.6 7.6 0 1 1 0-15.1 7.6 7.6 0 0 1 0 15.1" fill="#fff500A1"/><path d="M98.6 60.7a7.7 7.7 0 1 1 0-15.3 7.7 7.7 0 0 1 0 15.3" fill="#fffA3"/><path d="M284.2-267.8a7.7 7.7 0 1 1 0-15.3 7.7 7.7 0 0 1 0 15.3" fill="#005bbbA3"/><path d="M0.4 38a7.7 7.7 0 1 1 0-15.4 7.7 7.7 0 0 1 0 15.4" fill="#fff500A4"/><path d="M-105.9-84.1a7.7 7.7 0 1 1 0-15.4 7.7 7.7 0 0 1 0 15.4" fill="#005bbbA4"/><path d="M-36.5-324.4a7.7 7.7 0 1 1 0-15.4 7.7 7.7 0 0 1 0 15.4" fill="#c2e1ffA4"/><path d="M-115.4-201.3a7.8 7.8 0 1 1 0-15.6 7.8 7.8 0 0 1 0 15.6" fill="#c2e1ffA6"/><path d="M1.7-352.2a7.8 7.8 0 1 1 0-15.6 7.8 7.8 0 0 1 0 15.6" fill="#c2e1ffA6"/><path d="M44.9-369.9a7.9 7.9 0 1 1 0-15.7 7.9 7.9 0 0 1 0 15.7" fill="#005bbbA7"/><path d="M-100.8-250a7.9 7.9 0 1 1 0-15.7 7.9 7.9 0 0 1 0 15.7" fill="#fffA7"/><path d="M213.9 38.4a7.9 7.9 0 1 1 0-15.9 7.9 7.9 0 0 1 0 15.9" fill="#005bbbA9"/><path d="M284.9-27.4a7.9 7.9 0 1 1 0-15.9 7.9 7.9 0 0 1 0 15.9" fill="#fffA9"/><path d="M295-42.6a8 8 0 1 1 0-15.9 8 8 0 0 1 0 15.9" fill="#005bbbAA"/><path d="M290.1-32.9a8 8 0 1 1 0-16 8 8 0 0 1 0 16" fill="#fff500AA"/><path d="M173.5-368.4a8 8 0 1 1 0-16 8 8 0 0 1 0 16" fill="#fff500AB"/><path d="M-19.4 37.8a8 8 0 1 1 0-16 8 8 0 0 1 0 16" fill="#fffAB"/><path d="M303.1-256.8a8.1 8.1 0 1 1 0-16.2 8.1 8.1 0 0 1 0 16.2" fill="#c2e1ffAC"/><path d="M107.9 73.6a8.1 8.1 0 1 1 0-16.2 8.1 8.1 0 0 1 0 16.2" fill="#fffAD"/><path d="M232.8 31.2a8.1 8.1 0 1 1 0-16.2 8.1 8.1 0 0 1 0 16.2" fill="#005bbbAD"/><path d="M325.7-114.1a8.1 8.1 0 1 1 0-16.3 8.1 8.1 0 0 1 0 16.3" fill="#fffAE"/><path d="M243.6 24.3a8.1 8.1 0 1 1 0-16.3 8.1 8.1 0 0 1 0 16.3" fill="#fff500AE"/><path d="M0.1 52.2a8.2 8.2 0 1 1 0-16.3 8.2 8.2 0 0 1 0 16.3" fill="#005bbbAE"/><path d="M103-384.4a8.2 8.2 0 1 1 0-16.3 8.2 8.2 0 0 1 0 16.3" fill="#005bbbAF"/><path d="M-102-43a8.2 8.2 0 1 1 0-16.4 8.2 8.2 0 0 1 0 16.4" fill="#fff500AF"/><path d="M-60.9-319.9a8.2 8.2 0 1 1 0-16.5 8.2 8.2 0 0 1 0 16.5" fill="#fffB0"/><path d="M-128.3-115.4a8.3 8.3 0 1 1 0-16.5 8.3 8.3 0 0 1 0 16.5" fill="#fff500B1"/><path d="M288.1-290.3a8.3 8.3 0 1 1 0-16.6 8.3 8.3 0 0 1 0 16.6" fill="#fffB1"/><path d="M150.9 73a8.4 8.4 0 1 1 0-16.7 8.4 8.4 0 0 1 0 16.7" fill="#fff500B2"/><path d="M171.9 67.3a8.4 8.4 0 1 1 0-16.7 8.4 8.4 0 0 1 0 16.7" fill="#fffB2"/><path d="M327.9-202.1a8.4 8.4 0 1 1 0-16.8 8.4 8.4 0 0 1 0 16.8" fill="#fff500B3"/><path d="M9.3-368.7a8.4 8.4 0 1 1 0-16.7 8.4 8.4 0 0 1 0 16.7" fill="#c2e1ffB3"/><path d="M104.8-387.5a8.4 8.4 0 1 1 0-16.8 8.4 8.4 0 0 1 0 16.8" fill="#fffB4"/><path d="M-104.8-267.4a8.5 8.5 0 1 1 0-16.9 8.5 8.5 0 0 1 0 16.9" fill="#fffB5"/><path d="M233.6 38.2a8.5 8.5 0 1 1 0-16.9 8.5 8.5 0 0 1 0 16.9" fill="#c2e1ffB5"/><path d="M157.1-381.2a8.5 8.5 0 1 1 0-16.9 8.5 8.5 0 0 1 0 16.9" fill="#c2e1ffB5"/><path d="M177-375.7a8.5 8.5 0 1 1 0-17 8.5 8.5 0 0 1 0 17" fill="#fffB6"/><path d="M291.7-18.4a8.5 8.5 0 1 1 0-17.1 8.5 8.5 0 0 1 0 17.1" fill="#c2e1ffB6"/><path d="M-114.6-250.3a8.6 8.6 0 1 1 0-17.2 8.6 8.6 0 0 1 0 17.2" fill="#fffB8"/><path d="M188-372.2a8.6 8.6 0 1 1 0-17.1 8.6 8.6 0 0 1 0 17.1" fill="#005bbbB8"/><path d="M-49-336.1a8.6 8.6 0 1 1 0-17.2 8.6 8.6 0 0 1 0 17.2" fill="#005bbbB8"/><path d="M325.3-222.9a8.6 8.6 0 1 1 0-17.2 8.6 8.6 0 0 1 0 17.2" fill="#fff500B9"/><path d="M183.1-374.7a8.8 8.8 0 1 1 0-17.6 8.8 8.8 0 0 1 0 17.6" fill="#fff500BB"/><path d="M-94.6-20a8.8 8.8 0 1 1 0-17.5 8.8 8.8 0 0 1 0 17.5" fill="#fffBC"/><path d="M-112-257.9a8.8 8.8 0 1 1 0-17.7 8.8 8.8 0 0 1 0 17.7" fill="#c2e1ffBD"/><path d="M-94.3-19.3a8.9 8.9 0 1 1 0-17.8 8.9 8.9 0 0 1 0 17.8" fill="#fff500BF"/><path d="M228.9-351.5a8.9 8.9 0 1 1 0-17.8 8.9 8.9 0 0 1 0 17.8" fill="#fffBF"/><path d="M-134.4-182.5a8.9 8.9 0 1 1 0-17.9 8.9 8.9 0 0 1 0 17.9" fill="#fff500BF"/><path d="M-84.3-300.9a9 9 0 1 1 0-18 9 9 0 0 1 0 18" fill="#005bbbC1"/><path d="M322.7-76.5a9.1 9.1 0 1 1 0-18.2 9.1 9.1 0 0 1 0 18.2" fill="#005bbbC2"/><path d="M-23.6-353.3a9.2 9.2 0 1 1 0-18.3 9.2 9.2 0 0 1 0 18.3" fill="#c2e1ffC4"/><path d="M235.7-345.2a9.2 9.2 0 1 1 0-18.3 9.2 9.2 0 0 1 0 18.3" fill="#005bbbC4"/><path d="M21.6-374.1a9.2 9.2 0 1 1 0-18.5 9.2 9.2 0 0 1 0 18.5" fill="#fffC6"/><path d="M-122.8-81.8a9.3 9.3 0 1 1 0-18.6 9.3 9.3 0 0 1 0 18.6" fill="#005bbbC6"/><path d="M-91.9-286.1a9.3 9.3 0 1 1 0-18.7 9.3 9.3 0 0 1 0 18.7" fill="#fff500C7"/><path d="M-119.3-233.1a9.3 9.3 0 1 1 0-18.6 9.3 9.3 0 0 1 0 18.6" fill="#fff500C8"/><path d="M230 40.5a9.3 9.3 0 1 1 0-18.6 9.3 9.3 0 0 1 0 18.6" fill="#fff500C8"/><path d="M-98.1-275.4a9.4 9.4 0 1 1 0-18.7 9.4 9.4 0 0 1 0 18.7" fill="#fffC9"/><path d="M19 64.5a9.4 9.4 0 1 1 0-18.8 9.4 9.4 0 0 1 0 18.8" fill="#005bbbCA"/><path d="M302.1-266.8a9.4 9.4 0 1 1 0-18.9 9.4 9.4 0 0 1 0 18.9" fill="#fff500CA"/><path d="M58.5-381a9.4 9.4 0 1 1 0-18.8 9.4 9.4 0 0 1 0 18.8" fill="#005bbbCA"/><path d="M240.7-336.8a9.5 9.5 0 1 1 0-18.9 9.5 9.5 0 0 1 0 18.9" fill="#005bbbCB"/><path d="M230.8-343.1a9.5 9.5 0 1 1 0-19 9.5 9.5 0 0 1 0 19" fill="#005bbbCB"/><path d="M322.9-94.3a9.5 9.5 0 1 1 0-19.1 9.5 9.5 0 0 1 0 19.1" fill="#fffCC"/><path d="M-107.1-253.5a9.5 9.5 0 1 1 0-19 9.5 9.5 0 0 1 0 19" fill="#c2e1ffCC"/><path d="M318.8-84.3a9.6 9.6 0 1 1 0-19.1 9.6 9.6 0 0 1 0 19.1" fill="#fffCD"/><path d="M105.7-382.1a9.6 9.6 0 1 1 0-19.1 9.6 9.6 0 0 1 0 19.1" fill="#fff500CD"/><path d="M-111.7-65.2a9.6 9.6 0 1 1 0-19.1 9.6 9.6 0 0 1 0 19.1" fill="#fff500CD"/><path d="M327.7-128.5a9.6 9.6 0 1 1 0-19.2 9.6 9.6 0 0 1 0 19.2" fill="#c2e1ffCD"/><path d="M28.8-369.3a9.6 9.6 0 1 1 0-19.3 9.6 9.6 0 0 1 0 19.3" fill="#fffCF"/><path d="M-98.3-42.9a9.7 9.7 0 1 1 0-19.3 9.7 9.7 0 0 1 0 19.3" fill="#c2e1ffD0"/><path d="M-56-316.5a9.7 9.7 0 1 1 0-19.4 9.7 9.7 0 0 1 0 19.4" fill="#c2e1ffD0"/><path d="M94.9 71.6a9.8 9.8 0 1 1 0-19.6 9.8 9.8 0 0 1 0 19.6" fill="#c2e1ffD2"/><path d="M180.3 55.6a9.8 9.8 0 1 1 0-19.7 9.8 9.8 0 0 1 0 19.7" fill="#fff500D3"/><path d="M217.3-340.6a9.9 9.9 0 1 1 0-19.8 9.9 9.9 0 0 1 0 19.8" fill="#fff500D4"/><path d="M285-269.2a10 10 0 1 1 0-20 10 10 0 0 1 0 20" fill="#c2e1ffD6"/><path d="M191.7 45.6a10 10 0 1 1 0-20 10 10 0 0 1 0 20" fill="#fffD6"/><path d="M131.8 63.4a10 10 0 1 1 0-20 10 10 0 0 1 0 20" fill="#fffD6"/><path d="M-70.7-288a10 10 0 1 1 0-20 10 10 0 0 1 0 20" fill="#fffD7"/><path d="M185.8-351.3a10 10 0 1 1 0-20.1 10 10 0 0 1 0 20.1" fill="#c2e1ffD7"/><path d="M-13.7 31a10.1 10.1 0 1 1 0-20.1 10.1 10.1 0 0 1 0 20.1" fill="#c2e1ffD8"/><path d="M314.7-157.7a10.1 10.1 0 1 1 0-20.2 10.1 10.1 0 0 1 0 20.2" fill="#c2e1ffD9"/><path d="M314.1-152.2a10.1 10.1 0 1 1 0-20.2 10.1 10.1 0 0 1 0 20.2" fill="#fff500D9"/><path d="M219.4 24.4a10.1 10.1 0 1 1 0-20.2 10.1 10.1 0 0 1 0 20.2" fill="#fffD9"/><path d="M228.9-321.8a10.1 10.1 0 1 1 0-20.2 10.1 10.1 0 0 1 0 20.2" fill="#fffDA"/><path d="M95.4 58.6a10.2 10.2 0 1 1 0-20.4 10.2 10.2 0 0 1 0 20.4" fill="#fffDB"/><path d="M274.9-42.7a10.3 10.3 0 1 1 0-20.6 10.3 10.3 0 0 1 0 20.6" fill="#c2e1ffDD"/><path d="M264.9-30.8a10.3 10.3 0 1 1 0-20.6 10.3 10.3 0 0 1 0 20.6" fill="#c2e1ffDE"/><path d="M302.5-131.2a10.4 10.4 0 1 1 0-20.7 10.4 10.4 0 0 1 0 20.7" fill="#005bbbDE"/><path d="M-11 17.1a10.4 10.4 0 1 1 0-20.8 10.4 10.4 0 0 1 0 20.8" fill="#fffDF"/><path d="M17-334.3a10.4 10.4 0 1 1 0-20.8 10.4 10.4 0 0 1 0 20.8" fill="#c2e1ffE0"/><path d="M-69.1-252.6a10.5 10.5 0 1 1 0-21 10.5 10.5 0 0 1 0 21" fill="#005bbbE1"/><path d="M35.4-336.5a10.5 10.5 0 1 1 0-21.1 10.5 10.5 0 0 1 0 21.1" fill="#005bbbE2"/><path d="M293.6-156.9a10.6 10.6 0 1 1 0-21.1 10.6 10.6 0 0 1 0 21.1" fill="#fffE3"/><path d="M61.7 37.8a10.6 10.6 0 1 1 0-21.1 10.6 10.6 0 0 1 0 21.1" fill="#fff500E3"/><path d="M91.6-344.8a10.6 10.6 0 1 1 0-21.1 10.6 10.6 0 0 1 0 21.1" fill="#fffE3"/><path d="M-84.4-197.2a10.6 10.6 0 1 1 0-21.2 10.6 10.6 0 0 1 0 21.2" fill="#fff500E4"/><path d="M-69.7-67.7a10.6 10.6 0 1 1 0-21.3 10.6 10.6 0 0 1 0 21.3" fill="#c2e1ffE4"/><path d="M-72.3-74.7a10.6 10.6 0 1 1 0-21.3 10.6 10.6 0 0 1 0 21.3" fill="#fffE5"/><path d="M282.1-117.3a10.7 10.7 0 1 1 0-21.4 10.7 10.7 0 0 1 0 21.4" fill="#c2e1ffE6"/><path d="M191.8 3.6a10.8 10.8 0 1 1 0-21.5 10.8 10.8 0 0 1 0 21.5" fill="#005bbbE7"/><path d="M56.2 21.4a10.8 10.8 0 1 1 0-21.6 10.8 10.8 0 0 1 0 21.6" fill="#fff500E8"/><path d="M-74.2-188.9a10.8 10.8 0 1 1 0-21.6 10.8 10.8 0 0 1 0 21.6" fill="#fff500E8"/><path d="M198.6-6.3a10.8 10.8 0 1 1 0-21.6 10.8 10.8 0 0 1 0 21.6" fill="#c2e1ffE9"/><path d="M0.2-294.1a10.9 10.9 0 1 1 0-21.7 10.9 10.9 0 0 1 0 21.7" fill="#fffE9"/><path d="M254.9-222.7a10.9 10.9 0 1 1 0-21.8 10.9 10.9 0 0 1 0 21.8" fill="#fff500EB"/><path d="M-65.8-130.2a10.9 10.9 0 1 1 0-21.9 10.9 10.9 0 0 1 0 21.9" fill="#c2e1ffEB"/><path d="M33.7-2.6a11 11 0 1 1 0-22 11 11 0 0 1 0 22" fill="#c2e1ffED"/><path d="M-35.5-61.5a11 11 0 1 1 0-22 11 11 0 0 1 0 22" fill="#fff500ED"/><path d="M203-26.7a11 11 0 1 1 0-22 11 11 0 0 1 0 22" fill="#fffED"/><path d="M155.2-0.8a11 11 0 1 1 0-22.1 11 11 0 0 1 0 22.1" fill="#c2e1ffED"/><path d="M243.2-83.6a11 11 0 1 1 0-22.1 11 11 0 0 1 0 22.1" fill="#fff500EE"/><path d="M-46.4-206.4a11.1 11.1 0 1 1 0-22.1 11.1 11.1 0 0 1 0 22.1" fill="#fffEE"/><path d="M15.6-274.5a11.1 11.1 0 1 1 0-22.3 11.1 11.1 0 0 1 0 22.3" fill="#005bbbF0"/><path d="M190.3-268.5a11.2 11.2 0 1 1 0-22.3 11.2 11.2 0 0 1 0 22.3" fill="#fffF0"/><path d="M226.4-221a11.2 11.2 0 1 1 0-22.4 11.2 11.2 0 0 1 0 22.4" fill="#005bbbF1"/><path d="M45.4-283.8a11.2 11.2 0 1 1 0-22.4 11.2 11.2 0 0 1 0 22.4" fill="#c2e1ffF1"/><path d="M127.1-14.9a11.2 11.2 0 1 1 0-22.5 11.2 11.2 0 0 1 0 22.5" fill="#005bbbF2"/><path d="M205.9-237.7a11.3 11.3 0 1 1 0-22.5 11.3 11.3 0 0 1 0 22.5" fill="#005bbbF3"/><path d="M191.4-56.1a11.3 11.3 0 1 1 0-22.6 11.3 11.3 0 0 1 0 22.6" fill="#fffF3"/><path d="M16.2-53.3a11.3 11.3 0 1 1 0-22.7 11.3 11.3 0 0 1 0 22.7" fill="#fff500F4"/><path d="M39.3-40.6a11.4 11.4 0 1 1 0-22.7 11.4 11.4 0 0 1 0 22.7" fill="#c2e1ffF4"/><path d="M210.3-108.3a11.4 11.4 0 1 1 0-22.9 11.4 11.4 0 0 1 0 22.9" fill="#005bbbF6"/><path d="M20.6-237.8a11.4 11.4 0 1 1 0-22.8 11.4 11.4 0 0 1 0 22.8" fill="#fff500F6"/><path d="M88-39.3a11.5 11.5 0 1 1 0-22.9 11.5 11.5 0 0 1 0 22.9" fill="#c2e1ffF7"/><path d="M-11.6-144.8a11.5 11.5 0 1 1 0-22.9 11.5 11.5 0 0 1 0 22.9" fill="#fff500F7"/><path d="M26.9-235.3a11.5 11.5 0 1 1 0-22.9 11.5 11.5 0 0 1 0 22.9" fill="#c2e1ffF7"/><path d="M47.4-53.2a11.5 11.5 0 1 1 0-23 11.5 11.5 0 0 1 0 23" fill="#c2e1ffF7"/><path d="M95.6-57.9a11.6 11.6 0 1 1 0-23.1 11.6 11.6 0 0 1 0 23.1" fill="#fff500F9"/><path d="M13.5-177.1a11.6 11.6 0 1 1 0-23.2 11.6 11.6 0 0 1 0 23.2" fill="#005bbbFA"/><path d="M120.9-84.9a11.7 11.7 0 1 1 0-23.4 11.7 11.7 0 0 1 0 23.4" fill="#c2e1ffFC"/><path d="M110.2-210a11.7 11.7 0 1 1 0-23.5 11.7 11.7 0 0 1 0 23.5" fill="#c2e1ffFC"/><path d="M68-169.9a11.8 11.8 0 1 1 0-23.5 11.8 11.8 0 0 1 0 23.5" fill="#fff500FE"/><path d="M79.9-182.1a11.8 11.8 0 1 1 0-23.5 11.8 11.8 0 0 1 0 23.5" fill="#fffFE"/><path d="M105.2-187a11.8 11.8 0 1 1 0-23.6 11.8 11.8 0 0 1 0 23.6" fill="#fffFE"/></g></svg>