<svg width="1200" height="675" viewBox="-500 -500 1200 675" xmlns="http://www.w3.org/2000/svg"><path d="M-500-500h1200v675h-1200z" fill="#000"/><style>.sparkles path{stroke-linecap:round; stroke-width:1}</style><g class="sparkles"><path d="M100-162.5l-17.9 35" stroke="#c2e1ff32"/><path d="M100-162.5l-40.1-35.6" stroke="#fff33"/><path d="M100-162.5l51.4-42.5" stroke="#fff34"/><path d="M100-162.5l35.9 56.6" stroke="#fff50034"/><path d="M100-162.5l9 87.1" stroke="#005bbb35"/><path d="M100-162.5l76.8-84.8" stroke="#fff38"/><path d="M100-162.5l115.8 20.2" stroke="#fff50038"/><path d="M100-162.5l104.4-58.2" stroke="#005bbb38"/><path d="M100-162.5l-57.9 107.9" stroke="#fff39"/><path d="M100-162.5l-78 97" stroke="#fff39"/><path d="M100-162.5l105.6 68.8" stroke="#fff50039"/><path d="M100-162.5l-94.1 92.2" stroke="#c2e1ff3A"/><path d="M100-162.5l131.6 18.4" stroke="#fff5003A"/><path d="M100-162.5l-53.8 130" stroke="#c2e1ff3B"/><path d="M100-162.5l70 131" stroke="#fff3D"/><path d="M100-162.5l-150.1 13.6" stroke="#fff5003D"/><path d="M100-162.5l154.1 26.7" stroke="#c2e1ff3E"/><path d="M100-162.5l-16.6 157.1" stroke="#c2e1ff3E"/><path d="M100-162.5l157.9-27.3" stroke="#005bbb3F"/><path d="M100-162.5l-30.8 157.5" stroke="#c2e1ff3F"/><path d="M100-162.5l159.5-32.7" stroke="#fff5003F"/><path d="M100-162.5l-169.9 11.1" stroke="#fff50041"/><path d="M100-162.5l169.6 22.9" stroke="#c2e1ff41"/><path d="M100-162.5l113.2 131.3" stroke="#fff50042"/><path d="M100-162.5l35.1-174.1" stroke="#005bbb43"/><path d="M100-162.5l-66.4 165.3" stroke="#fff43"/><path d="M100-162.5l-178.1 25.3" stroke="#fff50043"/><path d="M100-162.5l-84.5 160.4" stroke="#005bbb43"/><path d="M100-162.5l-181.4 11.3" stroke="#fff50044"/><path d="M100-162.5l-101.4 153.3" stroke="#fff44"/><path d="M100-162.5l-139.4 122.9" stroke="#fff50045"/><path d="M100-162.5l21.5 185.1" stroke="#fff45"/><path d="M100-162.5l182.5-42.9" stroke="#fff45"/><path d="M100-162.5l176.4 65.9" stroke="#fff50045"/><path d="M100-162.5l-106 155.7" stroke="#c2e1ff45"/><path d="M100-162.5l-129.2-141" stroke="#005bbb46"/><path d="M100-162.5l-184.1-53.1" stroke="#005bbb46"/><path d="M100-162.5l18.1 192.2" stroke="#005bbb47"/><path d="M100-162.5l145.2-129.8" stroke="#fff50047"/><path d="M100-162.5l80.7 177.8" stroke="#005bbb47"/><path d="M100-162.5l-25.6 195.1" stroke="#fff48"/><path d="M100-162.5l-125.8 152.5" stroke="#fff50048"/><path d="M100-162.5l-141.4 142.2" stroke="#fff49"/><path d="M100-162.5l134.2-152.6" stroke="#005bbb4A"/><path d="M100-162.5l154.4-132.8" stroke="#005bbb4A"/><path d="M100-162.5l-145.5 144.7" stroke="#fff5004B"/><path d="M100-162.5l-188.1-88" stroke="#005bbb4C"/><path d="M100-162.5l7-208.6" stroke="#c2e1ff4C"/><path d="M100-162.5l99-185" stroke="#fff5004D"/><path d="M100-162.5l-212.5 11.7" stroke="#fff4E"/><path d="M100-162.5l142.8-161.1" stroke="#005bbb4F"/><path d="M100-162.5l152.5 152.6" stroke="#fff5004F"/><path d="M100-162.5l-31.9 214.3" stroke="#005bbb50"/><path d="M100-162.5l206-70.2" stroke="#fff50050"/><path d="M100-162.5l205.1 74.3" stroke="#c2e1ff50"/><path d="M100-162.5l-202-83.2" stroke="#005bbb50"/><path d="M100-162.5l-77.4 204.5" stroke="#005bbb51"/><path d="M100-162.5l137.7-169.9" stroke="#c2e1ff51"/><path d="M100-162.5l77.3-207.2" stroke="#fff52"/><path d="M100-162.5l-211.6 64.7" stroke="#c2e1ff52"/><path d="M100-162.5l172.2 142" stroke="#c2e1ff53"/><path d="M100-162.5l-98.1-200.7" stroke="#c2e1ff53"/><path d="M100-162.5l161.6 154.5" stroke="#005bbb53"/><path d="M100-162.5l-214.3-66.8" stroke="#fff50054"/><path d="M100-162.5l-202.7-98.1" stroke="#005bbb54"/><path d="M100-162.5l191.4-119.8" stroke="#c2e1ff55"/><path d="M100-162.5l-122.7 193.8" stroke="#fff58"/><path d="M100-162.5l68.9 220.5" stroke="#fff59"/><path d="M100-162.5l163.6-163.4" stroke="#fff59"/><path d="M100-162.5l-134 189.1" stroke="#005bbb5A"/><path d="M100-162.5l88.6-214.3" stroke="#c2e1ff5A"/><path d="M100-162.5l-225.4 55.7" stroke="#fff5005A"/><path d="M100-162.5l230.8 27.9" stroke="#c2e1ff5B"/><path d="M100-162.5l184.2 142.2" stroke="#fff5B"/><path d="M100-162.5l121.8 198.4" stroke="#fff5005B"/><path d="M100-162.5l-44.9 228.8" stroke="#005bbb5B"/><path d="M100-162.5l56.4-226.6" stroke="#fff5C"/><path d="M100-162.5l-49.3-228.6" stroke="#fff5005C"/><path d="M100-162.5l-226-62.6" stroke="#c2e1ff5D"/><path d="M100-162.5l184.3 145.1" stroke="#fff5E"/><path d="M100-162.5l124 199.4" stroke="#005bbb5E"/><path d="M100-162.5l80.9 221.2" stroke="#c2e1ff60"/><path d="M100-162.5l166.7 166.5" stroke="#fff50060"/><path d="M100-162.5l-172.8 160.4" stroke="#fff60"/><path d="M100-162.5l-27.3-234.3" stroke="#005bbb61"/><path d="M100-162.5l3.9 235.9" stroke="#c2e1ff61"/><path d="M100-162.5l-184-148" stroke="#c2e1ff62"/><path d="M100-162.5l99.4-214.3" stroke="#fff63"/><path d="M100-162.5l-161.2-172.6" stroke="#fff50065"/><path d="M100-162.5l228.9 57.5" stroke="#c2e1ff66"/><path d="M100-162.5l235.6 13.4" stroke="#fff66"/><path d="M100-162.5l-97.6 214.6" stroke="#fff50067"/><path d="M100-162.5l36.2-233" stroke="#c2e1ff67"/><path d="M100-162.5l-233.8 27.4" stroke="#fff50068"/><path d="M100-162.5l212.8-100.3" stroke="#c2e1ff68"/><path d="M100-162.5l-179.3 152" stroke="#fff50069"/><path d="M100-162.5l163.8 168.2" stroke="#fff50069"/><path d="M100-162.5l-58.6 227.3" stroke="#fff69"/><path d="M100-162.5l-95.2 214.1" stroke="#005bbb6A"/><path d="M100-162.5l233.8-10.9" stroke="#fff6A"/><path d="M100-162.5l114.4 203.7" stroke="#fff5006B"/><path d="M100-162.5l-156.5-173.1" stroke="#fff5006B"/><path d="M100-162.5l175.9-153.2" stroke="#c2e1ff6B"/><path d="M100-162.5l170.8 158.5" stroke="#fff6C"/><path d="M100-162.5l69.9-222.2" stroke="#fff5006C"/><path d="M100-162.5l-124.7 196.7" stroke="#fff6C"/><path d="M100-162.5l-231-28.2" stroke="#fff5006C"/><path d="M100-162.5l232.3-2.9" stroke="#005bbb6D"/><path d="M100-162.5l-220.4 73.4" stroke="#fff6D"/><path d="M100-162.5l-97.9 209.8" stroke="#005bbb6D"/><path d="M100-162.5l-97.7-209.9" stroke="#005bbb6E"/><path d="M100-162.5l139.6-183.4" stroke="#005bbb6E"/><path d="M100-162.5l227.5 35.8" stroke="#005bbb6F"/><path d="M100-162.5l-38.6-226" stroke="#fff50070"/><path d="M100-162.5l39.8-224.5" stroke="#005bbb71"/><path d="M100-162.5l-90.9 208.9" stroke="#005bbb71"/><path d="M100-162.5l-17-227" stroke="#fff71"/><path d="M100-162.5l-34.1 223.4" stroke="#c2e1ff72"/><path d="M100-162.5l10.6-223" stroke="#c2e1ff74"/><path d="M100-162.5l85 201.3" stroke="#c2e1ff77"/><path d="M100-162.5l-90.3-197.7" stroke="#005bbb77"/><path d="M100-162.5l64.8-207.1" stroke="#fff50077"/><path d="M100-162.5l-50.7-208.7" stroke="#fff50078"/><path d="M100-162.5l-121 177.2" stroke="#c2e1ff78"/><path d="M100-162.5l77.8 198.1" stroke="#fff50079"/><path d="M100-162.5l43.1-208.2" stroke="#fff50079"/><path d="M100-162.5l15.3 212" stroke="#fff79"/><path d="M100-162.5l-53.4 205.1" stroke="#fff5007A"/><path d="M100-162.5l-39-206.5" stroke="#fff5007A"/><path d="M100-162.5l-202.2 54" stroke="#fff5007B"/><path d="M100-162.5l54.9 202" stroke="#005bbb7B"/><path d="M100-162.5l43.8-203.5" stroke="#005bbb7B"/><path d="M100-162.5l-141.1 152.9" stroke="#fff5007B"/><path d="M100-162.5l-118.1 169" stroke="#005bbb7C"/><path d="M100-162.5l-185.8 85.4" stroke="#c2e1ff7D"/><path d="M100-162.5l152.2 131.6" stroke="#c2e1ff7E"/><path d="M100-162.5l200.8 0" stroke="#c2e1ff7E"/><path d="M100-162.5l-193.4-46.8" stroke="#005bbb7E"/><path d="M100-162.5l138.9 140.2" stroke="#fff7F"/><path d="M100-162.5l-144.8-132.8" stroke="#005bbb7F"/><path d="M100-162.5l-144.5-131.4" stroke="#005bbb80"/><path d="M100-162.5l87.5 173.3" stroke="#c2e1ff80"/><path d="M100-162.5l60.8-181.1" stroke="#fff50081"/><path d="M100-162.5l178.6 63.2" stroke="#fff81"/><path d="M100-162.5l171.9-78.8" stroke="#005bbb81"/><path d="M100-162.5l80.4 169.4" stroke="#fff50082"/><path d="M100-162.5l-159.4 98" stroke="#fff50082"/><path d="M100-162.5l31.4 183.6" stroke="#fff50082"/><path d="M100-162.5l109.3 148.8" stroke="#fff50083"/><path d="M100-162.5l-3.2 183" stroke="#fff50083"/><path d="M100-162.5l148.6-102.4" stroke="#005bbb84"/><path d="M100-162.5l-20.6 178.3" stroke="#005bbb84"/><path d="M100-162.5l92 153.5" stroke="#005bbb84"/><path d="M100-162.5l75.3-161.3" stroke="#c2e1ff84"/><path d="M100-162.5l13.5 176" stroke="#c2e1ff85"/><path d="M100-162.5l-167.5 33.5" stroke="#fff50086"/><path d="M100-162.5l-167-31.6" stroke="#fff86"/><path d="M100-162.5l-167.9-0.7" stroke="#c2e1ff87"/><path d="M100-162.5l150.1-65" stroke="#005bbb88"/><path d="M100-162.5l-144.7 57.3" stroke="#fff89"/><path d="M100-162.5l137.1 6.6" stroke="#c2e1ff8C"/><path d="M100-162.5l-61.2-118.2" stroke="#c2e1ff8D"/><path d="M100-162.5l128.1 27.6" stroke="#fff5008D"/><path d="M100-162.5l86.9 97.9" stroke="#005bbb8D"/><path d="M100-162.5l106.1 66.5" stroke="#fff5008E"/><path d="M100-162.5l-33.4 113.5" stroke="#fff8F"/><path d="M100-162.5l103 40" stroke="#c2e1ff90"/><path d="M100-162.5l-64.6 84" stroke="#c2e1ff90"/><path d="M100-162.5l-82.4-66.2" stroke="#fff90"/><path d="M100-162.5l83.1 54.7" stroke="#fff91"/><path d="M100-162.5l-92.4-16.1" stroke="#c2e1ff91"/><path d="M100-162.5l91.6 16.9" stroke="#c2e1ff91"/><path d="M100-162.5l61.6-69.3" stroke="#c2e1ff91"/><path d="M100-162.5l-87 2.5" stroke="#fff92"/><path d="M100-162.5l25.5 82.7" stroke="#005bbb92"/><path d="M100-162.5l-36.3 65.1" stroke="#005bbb93"/><path d="M100-162.5l-73.3 9.7" stroke="#c2e1ff93"/><path d="M100-162.5l-29.7-60.4" stroke="#005bbb93"/><path d="M100-162.5l38.3-51.8" stroke="#005bbb94"/><path d="M100-162.5l-4.3-52.3" stroke="#005bbb94"/><path d="M100-162.5l3.8 24.5" stroke="#c2e1ff95"/></g><g class="sparcs"><path d="M82.1-121.6a5.9 5.9 0 1 1 0-11.9 5.9 5.9 0 0 1 0 11.9" fill="#fff5007D"/><path d="M59.9-192.2a6 6 0 1 1 0-11.9 6 6 0 0 1 0 11.9" fill="#fff5007E"/><path d="M151.4-198.9a6 6 0 1 1 0-12.1 6 6 0 0 1 0 12.1" fill="#c2e1ff7F"/><path d="M135.9-99.9a6 6 0 1 1 0-12.1 6 6 0 0 1 0 12.1" fill="#c2e1ff7F"/><path d="M109-69.3a6.1 6.1 0 1 1 0-12.2 6.1 6.1 0 0 1 0 12.2" fill="#005bbb81"/><path d="M176.8-241a6.3 6.3 0 1 1 0-12.6 6.3 6.3 0 0 1 0 12.6" fill="#fff50085"/><path d="M215.8-136a6.3 6.3 0 1 1 0-12.6 6.3 6.3 0 0 1 0 12.6" fill="#fff50085"/><path d="M204.4-214.4a6.3 6.3 0 1 1 0-12.6 6.3 6.3 0 0 1 0 12.6" fill="#fff50085"/><path d="M42.1-48.3a6.3 6.3 0 1 1 0-12.6 6.3 6.3 0 0 1 0 12.6" fill="#fff50086"/><path d="M22-59.2a6.3 6.3 0 1 1 0-12.7 6.3 6.3 0 0 1 0 12.7" fill="#fff86"/><path d="M205.6-87.4a6.4 6.4 0 1 1 0-12.7 6.4 6.4 0 0 1 0 12.7" fill="#c2e1ff87"/><path d="M5.9-63.9a6.4 6.4 0 1 1 0-12.8 6.4 6.4 0 0 1 0 12.8" fill="#005bbb88"/><path d="M231.6-137.7a6.4 6.4 0 1 1 0-12.8 6.4 6.4 0 0 1 0 12.8" fill="#005bbb88"/><path d="M46.2-26a6.5 6.5 0 1 1 0-13 6.5 6.5 0 0 1 0 13" fill="#005bbb89"/><path d="M170-25a6.6 6.6 0 1 1 0-13.1 6.6 6.6 0 0 1 0 13.1" fill="#fff5008B"/><path d="M-50.1-142.3a6.6 6.6 0 1 1 0-13.1 6.6 6.6 0 0 1 0 13.1" fill="#c2e1ff8B"/><path d="M254.1-129.1a6.6 6.6 0 1 1 0-13.3 6.6 6.6 0 0 1 0 13.3" fill="#fff8D"/><path d="M83.4 1.3a6.7 6.7 0 1 1 0-13.3 6.7 6.7 0 0 1 0 13.3" fill="#005bbb8D"/><path d="M257.9-183.1a6.7 6.7 0 1 1 0-13.4 6.7 6.7 0 0 1 0 13.4" fill="#fff8E"/><path d="M69.2 1.7a6.7 6.7 0 1 1 0-13.4 6.7 6.7 0 0 1 0 13.4" fill="#c2e1ff8E"/><path d="M259.5-188.4a6.7 6.7 0 1 1 0-13.5 6.7 6.7 0 0 1 0 13.5" fill="#fff8E"/><path d="M-69.9-144.6a6.8 6.8 0 1 1 0-13.7 6.8 6.8 0 0 1 0 13.7" fill="#fff50090"/><path d="M269.6-132.8a6.8 6.8 0 1 1 0-13.6 6.8 6.8 0 0 1 0 13.6" fill="#fff50091"/><path d="M213.2-24.4a6.9 6.9 0 1 1 0-13.7 6.9 6.9 0 0 1 0 13.7" fill="#fff50091"/><path d="M135.1-329.7a6.9 6.9 0 1 1 0-13.9 6.9 6.9 0 0 1 0 13.9" fill="#005bbb93"/><path d="M33.6 9.8a6.9 6.9 0 1 1 0-13.9 6.9 6.9 0 0 1 0 13.9" fill="#c2e1ff93"/><path d="M-78.1-130.2a6.9 6.9 0 1 1 0-13.9 6.9 6.9 0 0 1 0 13.9" fill="#fff50093"/><path d="M15.5 4.8a7 7 0 1 1 0-13.9 7 7 0 0 1 0 13.9" fill="#005bbb94"/><path d="M-81.4-144.2a7 7 0 1 1 0-14 7 7 0 0 1 0 14" fill="#005bbb94"/><path d="M-1.4-2.2a7 7 0 1 1 0-14 7 7 0 0 1 0 14" fill="#005bbb95"/><path d="M-39.4-32.6a7 7 0 1 1 0-14.1 7 7 0 0 1 0 14.1" fill="#005bbb95"/><path d="M121.5 29.6a7 7 0 1 1 0-14 7 7 0 0 1 0 14" fill="#fff50096"/><path d="M282.5-198.3a7.1 7.1 0 1 1 0-14.1 7.1 7.1 0 0 1 0 14.1" fill="#005bbb96"/><path d="M276.4-89.5a7.1 7.1 0 1 1 0-14.2 7.1 7.1 0 0 1 0 14.2" fill="#fff50096"/><path d="M-6 0.3a7.1 7.1 0 1 1 0-14.2 7.1 7.1 0 0 1 0 14.2" fill="#fff96"/><path d="M-29.2-296.3a7.1 7.1 0 1 1 0-14.3 7.1 7.1 0 0 1 0 14.3" fill="#005bbb97"/><path d="M-84.1-208.4a7.1 7.1 0 1 1 0-14.3 7.1 7.1 0 0 1 0 14.3" fill="#fff97"/><path d="M118.1 36.9a7.2 7.2 0 1 1 0-14.3 7.2 7.2 0 0 1 0 14.3" fill="#005bbb98"/><path d="M245.2-285.1a7.2 7.2 0 1 1 0-14.4 7.2 7.2 0 0 1 0 14.4" fill="#005bbb99"/><path d="M180.7 22.5a7.2 7.2 0 1 1 0-14.4 7.2 7.2 0 0 1 0 14.4" fill="#005bbb99"/><path d="M74.4 39.8a7.2 7.2 0 1 1 0-14.5 7.2 7.2 0 0 1 0 14.5" fill="#005bbb9A"/><path d="M-25.8-2.8a7.2 7.2 0 1 1 0-14.5 7.2 7.2 0 0 1 0 14.5" fill="#c2e1ff9A"/><path d="M-41.4-13a7.3 7.3 0 1 1 0-14.6 7.3 7.3 0 0 1 0 14.6" fill="#c2e1ff9B"/><path d="M234.2-307.7a7.4 7.4 0 1 1 0-14.7 7.4 7.4 0 0 1 0 14.7" fill="#fff9C"/><path d="M254.4-288a7.4 7.4 0 1 1 0-14.7 7.4 7.4 0 0 1 0 14.7" fill="#fff9D"/><path d="M-45.5-10.4a7.4 7.4 0 1 1 0-14.8 7.4 7.4 0 0 1 0 14.8" fill="#fff5009D"/><path d="M-88.1-243.1a7.5 7.5 0 1 1 0-14.9 7.5 7.5 0 0 1 0 14.9" fill="#005bbb9F"/><path d="M107-363.6a7.5 7.5 0 1 1 0-15 7.5 7.5 0 0 1 0 15" fill="#fff9F"/><path d="M199-340a7.5 7.5 0 1 1 0-15 7.5 7.5 0 0 1 0 15" fill="#005bbbA0"/><path d="M-112.5-143.2a7.6 7.6 0 1 1 0-15.1 7.6 7.6 0 0 1 0 15.1" fill="#005bbbA1"/><path d="M242.8-316a7.6 7.6 0 1 1 0-15.3 7.6 7.6 0 0 1 0 15.3" fill="#c2e1ffA3"/><path d="M252.5-2.3a7.7 7.7 0 1 1 0-15.3 7.7 7.7 0 0 1 0 15.3" fill="#fff500A3"/><path d="M68.1 59.5a7.7 7.7 0 1 1 0-15.4 7.7 7.7 0 0 1 0 15.4" fill="#c2e1ffA4"/><path d="M306-225a7.7 7.7 0 1 1 0-15.4 7.7 7.7 0 0 1 0 15.4" fill="#fff500A4"/><path d="M305.1-80.5a7.7 7.7 0 1 1 0-15.4 7.7 7.7 0 0 1 0 15.4" fill="#005bbbA5"/><path d="M-102-237.9a7.7 7.7 0 1 1 0-15.5 7.7 7.7 0 0 1 0 15.5" fill="#c2e1ffA5"/><path d="M22.6 49.8a7.7 7.7 0 1 1 0-15.5 7.7 7.7 0 0 1 0 15.5" fill="#c2e1ffA5"/><path d="M237.7-324.7a7.7 7.7 0 1 1 0-15.5 7.7 7.7 0 0 1 0 15.5" fill="#fff500A5"/><path d="M177.3-361.9a7.8 7.8 0 1 1 0-15.7 7.8 7.8 0 0 1 0 15.7" fill="#fff500A7"/><path d="M-111.6-90a7.8 7.8 0 1 1 0-15.6 7.8 7.8 0 0 1 0 15.6" fill="#c2e1ffA7"/><path d="M272.2-12.6a7.9 7.9 0 1 1 0-15.8 7.9 7.9 0 0 1 0 15.8" fill="#c2e1ffA8"/><path d="M1.9-355.3a7.9 7.9 0 1 1 0-15.8 7.9 7.9 0 0 1 0 15.8" fill="#fffA8"/><path d="M261.6-0.1a7.9 7.9 0 1 1 0-15.8 7.9 7.9 0 0 1 0 15.8" fill="#c2e1ffA8"/><path d="M-114.3-221.4a7.9 7.9 0 1 1 0-15.8 7.9 7.9 0 0 1 0 15.8" fill="#c2e1ffA9"/><path d="M-102.7-252.6a8 8 0 1 1 0-15.9 8 8 0 0 1 0 15.9" fill="#c2e1ffAA"/><path d="M291.4-274.4a8 8 0 1 1 0-15.9 8 8 0 0 1 0 15.9" fill="#005bbbAA"/><path d="M-22.7 39.4a8.2 8.2 0 1 1 0-16.3 8.2 8.2 0 0 1 0 16.3" fill="#c2e1ffAE"/><path d="M168.9 66.3a8.2 8.2 0 1 1 0-16.5 8.2 8.2 0 0 1 0 16.5" fill="#fff500B0"/><path d="M263.6-317.7a8.3 8.3 0 1 1 0-16.5 8.3 8.3 0 0 1 0 16.5" fill="#fff500B0"/><path d="M-34 34.8a8.3 8.3 0 1 1 0-16.5 8.3 8.3 0 0 1 0 16.5" fill="#fffB1"/><path d="M188.6-368.5a8.3 8.3 0 1 1 0-16.6 8.3 8.3 0 0 1 0 16.6" fill="#005bbbB1"/><path d="M-125.4-98.5a8.3 8.3 0 1 1 0-16.6 8.3 8.3 0 0 1 0 16.6" fill="#c2e1ffB1"/><path d="M330.8-126.2a8.3 8.3 0 1 1 0-16.7 8.3 8.3 0 0 1 0 16.7" fill="#c2e1ffB2"/><path d="M284.2-11.9a8.3 8.3 0 1 1 0-16.7 8.3 8.3 0 0 1 0 16.7" fill="#fff500B2"/><path d="M221.8 44.2a8.4 8.4 0 1 1 0-16.7 8.4 8.4 0 0 1 0 16.7" fill="#c2e1ffB2"/><path d="M55.1 74.7a8.4 8.4 0 1 1 0-16.8 8.4 8.4 0 0 1 0 16.8" fill="#fff500B3"/><path d="M156.4-380.6a8.4 8.4 0 1 1 0-16.9 8.4 8.4 0 0 1 0 16.9" fill="#fffB4"/><path d="M50.7-382.7a8.4 8.4 0 1 1 0-16.8 8.4 8.4 0 0 1 0 16.8" fill="#005bbbB4"/><path d="M-126-216.6a8.5 8.5 0 1 1 0-17 8.5 8.5 0 0 1 0 17" fill="#fffB6"/><path d="M284.3-8.9a8.5 8.5 0 1 1 0-17 8.5 8.5 0 0 1 0 17" fill="#c2e1ffB6"/><path d="M224 45.4a8.5 8.5 0 1 1 0-17 8.5 8.5 0 0 1 0 17" fill="#fff500B6"/><path d="M180.9 67.4a8.6 8.6 0 1 1 0-17.3 8.6 8.6 0 0 1 0 17.3" fill="#005bbbB9"/><path d="M266.7 12.6a8.6 8.6 0 1 1 0-17.3 8.6 8.6 0 0 1 0 17.3" fill="#fffB9"/><path d="M-72.8 6.6a8.7 8.7 0 1 1 0-17.3 8.7 8.7 0 0 1 0 17.3" fill="#c2e1ffBA"/><path d="M72.7-388.1a8.7 8.7 0 1 1 0-17.3 8.7 8.7 0 0 1 0 17.3" fill="#fff500BA"/><path d="M103.9 82.1a8.7 8.7 0 1 1 0-17.4 8.7 8.7 0 0 1 0 17.4" fill="#005bbbBA"/><path d="M-84-301.7a8.8 8.8 0 1 1 0-17.6 8.8 8.8 0 0 1 0 17.6" fill="#005bbbBC"/><path d="M199.4-368a8.8 8.8 0 1 1 0-17.6 8.8 8.8 0 0 1 0 17.6" fill="#005bbbBC"/><path d="M-61.2-326.2a8.9 8.9 0 1 1 0-17.9 8.9 8.9 0 0 1 0 17.9" fill="#c2e1ffBF"/><path d="M328.9-96a9 9 0 1 1 0-18 9 9 0 0 1 0 18" fill="#c2e1ffC0"/><path d="M335.6-140.1a9 9 0 1 1 0-18 9 9 0 0 1 0 18" fill="#fffC0"/><path d="M2.4 61.2a9 9 0 1 1 0-18.1 9 9 0 0 1 0 18.1" fill="#fff500C2"/><path d="M136.2-386.4a9.1 9.1 0 1 1 0-18.1 9.1 9.1 0 0 1 0 18.1" fill="#fff500C2"/><path d="M-133.8-126a9.1 9.1 0 1 1 0-18.2 9.1 9.1 0 0 1 0 18.2" fill="#c2e1ffC3"/><path d="M312.8-253.7a9.1 9.1 0 1 1 0-18.2 9.1 9.1 0 0 1 0 18.2" fill="#fffC3"/><path d="M-79.3-1.3a9.2 9.2 0 1 1 0-18.3 9.2 9.2 0 0 1 0 18.3" fill="#005bbbC4"/><path d="M263.8 14.9a9.2 9.2 0 1 1 0-18.4 9.2 9.2 0 0 1 0 18.4" fill="#fffC5"/><path d="M41.4 74a9.2 9.2 0 1 1 0-18.4 9.2 9.2 0 0 1 0 18.4" fill="#c2e1ffC5"/><path d="M4.8 60.9a9.2 9.2 0 1 1 0-18.5 9.2 9.2 0 0 1 0 18.5" fill="#c2e1ffC6"/><path d="M333.8-164.1a9.3 9.3 0 1 1 0-18.5 9.3 9.3 0 0 1 0 18.5" fill="#fff500C6"/><path d="M214.4 50.5a9.3 9.3 0 1 1 0-18.6 9.3 9.3 0 0 1 0 18.6" fill="#c2e1ffC7"/><path d="M-56.5-326.3a9.3 9.3 0 1 1 0-18.7 9.3 9.3 0 0 1 0 18.7" fill="#fff500C8"/><path d="M275.9-306.4a9.3 9.3 0 1 1 0-18.7 9.3 9.3 0 0 1 0 18.7" fill="#005bbbC8"/><path d="M270.8 5.3a9.3 9.3 0 1 1 0-18.7 9.3 9.3 0 0 1 0 18.7" fill="#005bbbC8"/><path d="M169.9-375.4a9.3 9.3 0 1 1 0-18.7 9.3 9.3 0 0 1 0 18.7" fill="#c2e1ffC8"/><path d="M-24.7 43.5a9.4 9.4 0 1 1 0-18.7 9.4 9.4 0 0 1 0 18.7" fill="#005bbbC8"/><path d="M-131-181.4a9.4 9.4 0 1 1 0-18.7 9.4 9.4 0 0 1 0 18.7" fill="#005bbbC9"/><path d="M332.3-156a9.4 9.4 0 1 1 0-18.8 9.4 9.4 0 0 1 0 18.8" fill="#fffC9"/><path d="M-120.4-79.7a9.4 9.4 0 1 1 0-18.8 9.4 9.4 0 0 1 0 18.8" fill="#fff500C9"/><path d="M2.1 56.8a9.4 9.4 0 1 1 0-18.9 9.4 9.4 0 0 1 0 18.9" fill="#fffCA"/><path d="M2.3-362.9a9.5 9.5 0 1 1 0-18.9 9.5 9.5 0 0 1 0 18.9" fill="#fff500CB"/><path d="M239.6-336.4a9.5 9.5 0 1 1 0-19 9.5 9.5 0 0 1 0 19" fill="#fff500CC"/><path d="M327.5-117.2a9.5 9.5 0 1 1 0-19 9.5 9.5 0 0 1 0 19" fill="#005bbbCC"/><path d="M61.4-378.9a9.6 9.6 0 1 1 0-19.2 9.6 9.6 0 0 1 0 19.2" fill="#fff500CD"/><path d="M139.8-377.4a9.6 9.6 0 1 1 0-19.3 9.6 9.6 0 0 1 0 19.3" fill="#fffCF"/><path d="M9.1 56.1a9.6 9.6 0 1 1 0-19.3 9.6 9.6 0 0 1 0 19.3" fill="#fff500CF"/><path d="M83-379.8a9.7 9.7 0 1 1 0-19.3 9.7 9.7 0 0 1 0 19.3" fill="#c2e1ffCF"/><path d="M65.9 70.6a9.7 9.7 0 1 1 0-19.5 9.7 9.7 0 0 1 0 19.5" fill="#fff500D0"/><path d="M110.6-375.7a9.8 9.8 0 1 1 0-19.6 9.8 9.8 0 0 1 0 19.6" fill="#005bbbD3"/><path d="M185 48.8a10 10 0 1 1 0-20 10 10 0 0 1 0 20" fill="#c2e1ffD6"/><path d="M9.7-350.2a10 10 0 1 1 0-20 10 10 0 0 1 0 20" fill="#fffD7"/><path d="M164.8-359.5a10 10 0 1 1 0-20.1 10 10 0 0 1 0 20.1" fill="#fffD7"/><path d="M49.3-361.1a10.1 10.1 0 1 1 0-20.2 10.1 10.1 0 0 1 0 20.2" fill="#fffD9"/><path d="M-21 24.8a10.1 10.1 0 1 1 0-20.2 10.1 10.1 0 0 1 0 20.2" fill="#c2e1ffD9"/><path d="M177.8 45.7a10.1 10.1 0 1 1 0-20.3 10.1 10.1 0 0 1 0 20.3" fill="#c2e1ffDA"/><path d="M143.1-360.6a10.1 10.1 0 1 1 0-20.2 10.1 10.1 0 0 1 0 20.2" fill="#005bbbDA"/><path d="M115.3 59.7a10.1 10.1 0 1 1 0-20.3 10.1 10.1 0 0 1 0 20.3" fill="#c2e1ffDA"/><path d="M46.6 52.8a10.2 10.2 0 1 1 0-20.3 10.2 10.2 0 0 1 0 20.3" fill="#fff500DA"/><path d="M61-358.8a10.2 10.2 0 1 1 0-20.4 10.2 10.2 0 0 1 0 20.4" fill="#fff500DB"/><path d="M-102.2-98.2a10.2 10.2 0 1 1 0-20.5 10.2 10.2 0 0 1 0 20.5" fill="#fff500DC"/><path d="M154.9 49.7a10.2 10.2 0 1 1 0-20.4 10.2 10.2 0 0 1 0 20.4" fill="#005bbbDC"/><path d="M143.8-355.8a10.3 10.3 0 1 1 0-20.5 10.3 10.3 0 0 1 0 20.5" fill="#005bbbDC"/><path d="M-41.1 0.6a10.3 10.3 0 1 1 0-20.5 10.3 10.3 0 0 1 0 20.5" fill="#fff500DC"/><path d="M-18.1 16.8a10.3 10.3 0 1 1 0-20.6 10.3 10.3 0 0 1 0 20.6" fill="#c2e1ffDD"/><path d="M-85.8-66.8a10.3 10.3 0 1 1 0-20.6 10.3 10.3 0 0 1 0 20.6" fill="#fff500DE"/><path d="M252.2-20.5a10.4 10.4 0 1 1 0-20.9 10.4 10.4 0 0 1 0 20.9" fill="#fff500E0"/><path d="M300.8-152.1a10.4 10.4 0 1 1 0-20.8 10.4 10.4 0 0 1 0 20.8" fill="#fff500E0"/><path d="M-93.4-198.9a10.5 10.5 0 1 1 0-20.9 10.5 10.5 0 0 1 0 20.9" fill="#c2e1ffE1"/><path d="M238.9-11.8a10.5 10.5 0 1 1 0-21 10.5 10.5 0 0 1 0 21" fill="#fffE1"/><path d="M-44.8-284.8a10.5 10.5 0 1 1 0-21 10.5 10.5 0 0 1 0 21" fill="#fffE2"/><path d="M-44.5-283.3a10.5 10.5 0 1 1 0-21.1 10.5 10.5 0 0 1 0 21.1" fill="#005bbbE2"/><path d="M187.5 21.3a10.5 10.5 0 1 1 0-21 10.5 10.5 0 0 1 0 21" fill="#fff500E3"/><path d="M160.8-333a10.6 10.6 0 1 1 0-21.2 10.6 10.6 0 0 1 0 21.2" fill="#c2e1ffE4"/><path d="M278.6-88.7a10.6 10.6 0 1 1 0-21.3 10.6 10.6 0 0 1 0 21.3" fill="#fff500E4"/><path d="M271.9-230.6a10.6 10.6 0 1 1 0-21.3 10.6 10.6 0 0 1 0 21.3" fill="#fff500E4"/><path d="M180.4 17.6a10.7 10.7 0 1 1 0-21.4 10.7 10.7 0 0 1 0 21.4" fill="#fffE5"/><path d="M-59.4-53.8a10.7 10.7 0 1 1 0-21.3 10.7 10.7 0 0 1 0 21.3" fill="#c2e1ffE5"/><path d="M131.4 31.7a10.7 10.7 0 1 1 0-21.3 10.7 10.7 0 0 1 0 21.3" fill="#c2e1ffE5"/><path d="M209.3-3a10.7 10.7 0 1 1 0-21.4 10.7 10.7 0 0 1 0 21.4" fill="#fffE6"/><path d="M96.8 31.2a10.7 10.7 0 1 1 0-21.4 10.7 10.7 0 0 1 0 21.4" fill="#fffE7"/><path d="M248.6-254.2a10.8 10.8 0 1 1 0-21.5 10.8 10.8 0 0 1 0 21.5" fill="#c2e1ffE7"/><path d="M79.4 26.5a10.8 10.8 0 1 1 0-21.5 10.8 10.8 0 0 1 0 21.5" fill="#005bbbE8"/><path d="M192 1.8a10.8 10.8 0 1 1 0-21.6 10.8 10.8 0 0 1 0 21.6" fill="#005bbbE8"/><path d="M175.3-313a10.8 10.8 0 1 1 0-21.6 10.8 10.8 0 0 1 0 21.6" fill="#c2e1ffE8"/><path d="M113.5 24.3a10.8 10.8 0 1 1 0-21.6 10.8 10.8 0 0 1 0 21.6" fill="#fff500E9"/><path d="M-67.5-118.1a10.9 10.9 0 1 1 0-21.8 10.9 10.9 0 0 1 0 21.8" fill="#fffEA"/><path d="M-67-183.2a10.9 10.9 0 1 1 0-21.8 10.9 10.9 0 0 1 0 21.8" fill="#005bbbEB"/><path d="M-67.9-152.2a10.9 10.9 0 1 1 0-21.9 10.9 10.9 0 0 1 0 21.9" fill="#fffEB"/><path d="M250.1-216.5a11 11 0 1 1 0-21.9 11 11 0 0 1 0 21.9" fill="#c2e1ffEC"/><path d="M-44.7-94.1a11.1 11.1 0 1 1 0-22.2 11.1 11.1 0 0 1 0 22.2" fill="#c2e1ffEE"/><path d="M237.1-144.6a11.3 11.3 0 1 1 0-22.5 11.3 11.3 0 0 1 0 22.5" fill="#fffF2"/><path d="M38.8-269.4a11.3 11.3 0 1 1 0-22.6 11.3 11.3 0 0 1 0 22.6" fill="#fffF3"/><path d="M228.1-123.6a11.3 11.3 0 1 1 0-22.7 11.3 11.3 0 0 1 0 22.7" fill="#005bbbF4"/><path d="M186.9-53.3a11.3 11.3 0 1 1 0-22.7 11.3 11.3 0 0 1 0 22.7" fill="#005bbbF4"/><path d="M206.1-84.6a11.4 11.4 0 1 1 0-22.7 11.4 11.4 0 0 1 0 22.7" fill="#fff500F5"/><path d="M66.6-37.5a11.4 11.4 0 1 1 0-22.9 11.4 11.4 0 0 1 0 22.9" fill="#fffF6"/><path d="M203-111a11.5 11.5 0 1 1 0-23 11.5 11.5 0 0 1 0 23" fill="#fffF7"/><path d="M35.4-67a11.5 11.5 0 1 1 0-23 11.5 11.5 0 0 1 0 23" fill="#fffF8"/><path d="M17.6-217.2a11.5 11.5 0 1 1 0-23 11.5 11.5 0 0 1 0 23" fill="#005bbbF8"/><path d="M183.1-96.3a11.5 11.5 0 1 1 0-23 11.5 11.5 0 0 1 0 23" fill="#fff500F8"/><path d="M7.6-167a11.6 11.6 0 1 1 0-23.2 11.6 11.6 0 0 1 0 23.2" fill="#005bbbF9"/><path d="M191.6-134a11.6 11.6 0 1 1 0-23.2 11.6 11.6 0 0 1 0 23.2" fill="#fff500F9"/><path d="M161.6-220.3a11.6 11.6 0 1 1 0-23.1 11.6 11.6 0 0 1 0 23.1" fill="#c2e1ffF9"/><path d="M13-148.4a11.6 11.6 0 1 1 0-23.2 11.6 11.6 0 0 1 0 23.2" fill="#fffFA"/><path d="M125.5-68.2a11.6 11.6 0 1 1 0-23.2 11.6 11.6 0 0 1 0 23.2" fill="#c2e1ffFA"/><path d="M63.7-85.7a11.7 11.7 0 1 1 0-23.3 11.7 11.7 0 0 1 0 23.3" fill="#005bbbFB"/><path d="M26.7-141.1a11.7 11.7 0 1 1 0-23.3 11.7 11.7 0 0 1 0 23.3" fill="#005bbbFB"/><path d="M70.3-211.2a11.7 11.7 0 1 1 0-23.4 11.7 11.7 0 0 1 0 23.4" fill="#005bbbFC"/><path d="M138.3-202.6a11.7 11.7 0 1 1 0-23.4 11.7 11.7 0 0 1 0 23.4" fill="#fff500FC"/><path d="M95.7-203.1a11.7 11.7 0 1 1 0-23.5 11.7 11.7 0 0 1 0 23.5" fill="#005bbbFD"/><path d="M103.8-126.2a11.8 11.8 0 1 1 0-23.6 11.8 11.8 0 0 1 0 23.6" fill="#fffFE"/></g></svg>