<svg width="1200" height="675" viewBox="-500 -500 1200 675" xmlns="http://www.w3.org/2000/svg"><path d="M-500-500h1200v675h-1200z" fill="#000"/><style>.sparkles path{stroke-linecap:round; stroke-width:1}</style><g class="sparkles"><path d="M100-162.5l16.7-6.8" stroke="#005bbb32"/><path d="M100-162.5l-27.3 15.5" stroke="#fff32"/><path d="M100-162.5l15.9 36.7" stroke="#c2e1ff32"/><path d="M100-162.5l28.5-51.9" stroke="#c2e1ff33"/><path d="M100-162.5l-6.5 64.8" stroke="#fff33"/><path d="M100-162.5l-68.5-29" stroke="#c2e1ff34"/><path d="M100-162.5l64.2-44" stroke="#005bbb34"/><path d="M100-162.5l-80.6 46.4" stroke="#005bbb36"/><path d="M100-162.5l23 102.2" stroke="#c2e1ff37"/><path d="M100-162.5l106.4 19.5" stroke="#c2e1ff37"/><path d="M100-162.5l93.2-67.9" stroke="#fff50038"/><path d="M100-162.5l64 96.7" stroke="#fff38"/><path d="M100-162.5l78.2 90.7" stroke="#fff38"/><path d="M100-162.5l41.3 119.1" stroke="#fff50039"/><path d="M100-162.5l-90.4-99.1" stroke="#fff5003A"/><path d="M100-162.5l17-133.4" stroke="#005bbb3A"/><path d="M100-162.5l60.5-123.6" stroke="#005bbb3B"/><path d="M100-162.5l-101.1-98.3" stroke="#c2e1ff3B"/><path d="M100-162.5l-129.5-62.8" stroke="#fff5003C"/><path d="M100-162.5l-18.2 146.7" stroke="#c2e1ff3C"/><path d="M100-162.5l56.4 142.1" stroke="#005bbb3D"/><path d="M100-162.5l29.8 156.3" stroke="#c2e1ff3F"/><path d="M100-162.5l-109.9-116.2" stroke="#c2e1ff3F"/><path d="M100-162.5l-127.2 99.2" stroke="#005bbb3F"/><path d="M100-162.5l-157.9 41.2" stroke="#c2e1ff3F"/><path d="M100-162.5l166.4-12.8" stroke="#c2e1ff40"/><path d="M100-162.5l-137.4 104.4" stroke="#fff41"/><path d="M100-162.5l56.7 164.8" stroke="#fff50042"/><path d="M100-162.5l-92-149.3" stroke="#005bbb42"/><path d="M100-162.5l58.2 166.2" stroke="#fff50042"/><path d="M100-162.5l-80.1 158.9" stroke="#c2e1ff43"/><path d="M100-162.5l-95.9-158.5" stroke="#fff44"/><path d="M100-162.5l18.4-185.6" stroke="#005bbb45"/><path d="M100-162.5l62.3 180.8" stroke="#c2e1ff46"/><path d="M100-162.5l-9.7-192" stroke="#fff50046"/><path d="M100-162.5l66.9-180.6" stroke="#005bbb47"/><path d="M100-162.5l-179-72.4" stroke="#c2e1ff47"/><path d="M100-162.5l-174.1 87.3" stroke="#005bbb47"/><path d="M100-162.5l-195.6 1.8" stroke="#c2e1ff47"/><path d="M100-162.5l91.7-179.5" stroke="#c2e1ff49"/><path d="M100-162.5l154.4 130.5" stroke="#c2e1ff4A"/><path d="M100-162.5l-16.5-202.5" stroke="#c2e1ff4A"/><path d="M100-162.5l179.3 97.5" stroke="#005bbb4A"/><path d="M100-162.5l-200.5-43.7" stroke="#005bbb4B"/><path d="M100-162.5l192-76" stroke="#005bbb4B"/><path d="M100-162.5l-206.8 11.6" stroke="#c2e1ff4B"/><path d="M100-162.5l-57.9-199" stroke="#005bbb4B"/><path d="M100-162.5l-84 189.7" stroke="#fff4C"/><path d="M100-162.5l196.4 71.8" stroke="#c2e1ff4C"/><path d="M100-162.5l120.4-171" stroke="#005bbb4C"/><path d="M100-162.5l50.8 204.9" stroke="#005bbb4D"/><path d="M100-162.5l132-165.6" stroke="#fff4D"/><path d="M100-162.5l-212.2-10.2" stroke="#fff4E"/><path d="M100-162.5l161-141" stroke="#005bbb4E"/><path d="M100-162.5l145.5-159.3" stroke="#005bbb4F"/><path d="M100-162.5l-121.2-181.1" stroke="#fff50"/><path d="M100-162.5l-186.6 119.5" stroke="#c2e1ff52"/><path d="M100-162.5l-200.3-95.6" stroke="#005bbb52"/><path d="M100-162.5l190.4-114.7" stroke="#fff53"/><path d="M100-162.5l186.2 123.3" stroke="#c2e1ff53"/><path d="M100-162.5l-53.2 217.1" stroke="#fff53"/><path d="M100-162.5l-99.4 201.3" stroke="#c2e1ff54"/><path d="M100-162.5l-178.9 136.8" stroke="#fff50054"/><path d="M100-162.5l-226.2 9.9" stroke="#fff55"/><path d="M100-162.5l-226.4 5" stroke="#c2e1ff55"/><path d="M100-162.5l-161.6-160.2" stroke="#c2e1ff56"/><path d="M100-162.5l-98.5 206.7" stroke="#fff50057"/><path d="M100-162.5l-154.8-169.7" stroke="#c2e1ff58"/><path d="M100-162.5l-205.5 102.8" stroke="#c2e1ff58"/><path d="M100-162.5l-219.1-69.9" stroke="#fff58"/><path d="M100-162.5l-112.2 200.8" stroke="#005bbb58"/><path d="M100-162.5l-199.3-115.3" stroke="#005bbb58"/><path d="M100-162.5l171.7-154.3" stroke="#005bbb59"/><path d="M100-162.5l-202.1 114.6" stroke="#fff5005A"/><path d="M100-162.5l121-199.4" stroke="#005bbb5C"/><path d="M100-162.5l40.5 230.2" stroke="#fff5005C"/><path d="M100-162.5l-134.1-191.8" stroke="#fff5005D"/><path d="M100-162.5l-198.9-124.2" stroke="#005bbb5D"/><path d="M100-162.5l-216.1-91.4" stroke="#c2e1ff5E"/><path d="M100-162.5l138.3 189.7" stroke="#c2e1ff5E"/><path d="M100-162.5l-234.9-1" stroke="#005bbb5E"/><path d="M100-162.5l123.7 200.1" stroke="#fff5F"/><path d="M100-162.5l111-207.5" stroke="#fff5005F"/><path d="M100-162.5l201.5 121.4" stroke="#fff5F"/><path d="M100-162.5l-5.5 235.9" stroke="#005bbb61"/><path d="M100-162.5l-126.6 199.2" stroke="#005bbb61"/><path d="M100-162.5l106.1 210.8" stroke="#005bbb61"/><path d="M100-162.5l136.2-192.8" stroke="#005bbb61"/><path d="M100-162.5l200.3-125" stroke="#c2e1ff62"/><path d="M100-162.5l-214-100" stroke="#fff64"/><path d="M100-162.5l57.3-229.1" stroke="#fff65"/><path d="M100-162.5l79.8 221.9" stroke="#fff50067"/><path d="M100-162.5l-14.9-235.1" stroke="#005bbb67"/><path d="M100-162.5l207.3-111.9" stroke="#fff67"/><path d="M100-162.5l188.3-141.4" stroke="#fff50068"/><path d="M100-162.5l-233.2 31.9" stroke="#c2e1ff68"/><path d="M100-162.5l-202.4-119.5" stroke="#fff68"/><path d="M100-162.5l173.2 157.5" stroke="#fff5006A"/><path d="M100-162.5l233.6 0" stroke="#fff5006B"/><path d="M100-162.5l155.8-173.6" stroke="#fff5006B"/><path d="M100-162.5l-228.5 46.7" stroke="#fff5006C"/><path d="M100-162.5l-14.4 232.5" stroke="#005bbb6C"/><path d="M100-162.5l-214.4-89.2" stroke="#005bbb6D"/><path d="M100-162.5l143.1-182.2" stroke="#c2e1ff6D"/><path d="M100-162.5l-115.7-200.6" stroke="#005bbb6D"/><path d="M100-162.5l-223.1-59" stroke="#005bbb6E"/><path d="M100-162.5l-195.2 120.7" stroke="#c2e1ff6F"/><path d="M100-162.5l71.1 217.5" stroke="#005bbb70"/><path d="M100-162.5l-227.2-25.8" stroke="#fff70"/><path d="M100-162.5l-103.3 203.8" stroke="#c2e1ff70"/><path d="M100-162.5l-189.9-125.3" stroke="#005bbb71"/><path d="M100-162.5l189.3 123.8" stroke="#fff72"/><path d="M100-162.5l221.3 46.5" stroke="#c2e1ff72"/><path d="M100-162.5l-116.5 193.6" stroke="#005bbb72"/><path d="M100-162.5l110-197.1" stroke="#005bbb72"/><path d="M100-162.5l-26.7-223.6" stroke="#005bbb73"/><path d="M100-162.5l-107.7-197.7" stroke="#005bbb73"/><path d="M100-162.5l-221.5-35.5" stroke="#fff73"/><path d="M100-162.5l-89 205.6" stroke="#fff73"/><path d="M100-162.5l-221.6 23.4" stroke="#fff50074"/><path d="M100-162.5l-204.9-87.1" stroke="#c2e1ff74"/><path d="M100-162.5l-162.2-152.2" stroke="#fff50074"/><path d="M100-162.5l-217.1-33.8" stroke="#005bbb76"/><path d="M100-162.5l-199.5 86.7" stroke="#c2e1ff77"/><path d="M100-162.5l159 146.3" stroke="#005bbb78"/><path d="M100-162.5l-201.4 75.1" stroke="#fff50078"/><path d="M100-162.5l213.6 23.2" stroke="#005bbb78"/><path d="M100-162.5l1.5 213.7" stroke="#c2e1ff79"/><path d="M100-162.5l191.3-92.6" stroke="#fff50079"/><path d="M100-162.5l-211.3-8.8" stroke="#c2e1ff7A"/><path d="M100-162.5l-105.1 183" stroke="#fff5007A"/><path d="M100-162.5l-97.5 176.6" stroke="#fff5007E"/><path d="M100-162.5l-67.6-187.6" stroke="#fff7E"/><path d="M100-162.5l-161.6 110.5" stroke="#fff50080"/><path d="M100-162.5l-154.5 119.1" stroke="#005bbb80"/><path d="M100-162.5l-13.7-191.8" stroke="#fff50081"/><path d="M100-162.5l189.9-29.4" stroke="#fff81"/><path d="M100-162.5l120.8 148.4" stroke="#fff50081"/><path d="M100-162.5l-190.3 16.1" stroke="#fff50081"/><path d="M100-162.5l185.4-9.1" stroke="#c2e1ff82"/><path d="M100-162.5l83.6 164.4" stroke="#fff83"/><path d="M100-162.5l179.4 40.2" stroke="#c2e1ff83"/><path d="M100-162.5l130.8 129.1" stroke="#fff83"/><path d="M100-162.5l2.3-182.3" stroke="#fff83"/><path d="M100-162.5l-139 104.6" stroke="#c2e1ff85"/><path d="M100-162.5l-171.4-25.5" stroke="#fff85"/><path d="M100-162.5l-12.4 170.6" stroke="#c2e1ff86"/><path d="M100-162.5l156.9 59.1" stroke="#005bbb87"/><path d="M100-162.5l124.1-101.5" stroke="#fff50088"/><path d="M100-162.5l117.8-105.8" stroke="#c2e1ff89"/><path d="M100-162.5l-24.9 151.4" stroke="#c2e1ff8A"/><path d="M100-162.5l59.4 130.3" stroke="#c2e1ff8B"/><path d="M100-162.5l94.4-100.2" stroke="#fff8C"/><path d="M100-162.5l137-6.9" stroke="#005bbb8C"/><path d="M100-162.5l120.1-64.2" stroke="#c2e1ff8C"/><path d="M100-162.5l-74.9 112.7" stroke="#fff8C"/><path d="M100-162.5l-130.4 27.5" stroke="#c2e1ff8D"/><path d="M100-162.5l44.9 124.3" stroke="#fff5008D"/><path d="M100-162.5l-10.1-129.7" stroke="#005bbb8D"/><path d="M100-162.5l-123.1 29.8" stroke="#005bbb8E"/><path d="M100-162.5l115.9-33.9" stroke="#fff8E"/><path d="M100-162.5l103.9-22.3" stroke="#fff50090"/><path d="M100-162.5l94.1-41.2" stroke="#005bbb91"/><path d="M100-162.5l59.9-80.3" stroke="#fff50091"/><path d="M100-162.5l47.8 86.6" stroke="#c2e1ff91"/><path d="M100-162.5l83.5-12" stroke="#c2e1ff92"/><path d="M100-162.5l82.4 3.9" stroke="#fff92"/><path d="M100-162.5l-68.3 42.3" stroke="#fff93"/><path d="M100-162.5l-77.4 18.3" stroke="#005bbb93"/><path d="M100-162.5l-37.8 66.2" stroke="#fff93"/><path d="M100-162.5l-69.7-29.7" stroke="#fff93"/><path d="M100-162.5l-36.5 66.1" stroke="#005bbb93"/><path d="M100-162.5l-18.8-69.1" stroke="#fff93"/><path d="M100-162.5l-36.7 60.8" stroke="#fff50093"/><path d="M100-162.5l-57.8 40.9" stroke="#005bbb93"/><path d="M100-162.5l8.4-68.7" stroke="#fff93"/><path d="M100-162.5l-48.6 22.1" stroke="#c2e1ff94"/><path d="M100-162.5l34.2 27.9" stroke="#fff95"/><path d="M100-162.5l26.7-30.4" stroke="#fff50095"/><path d="M100-162.5l-25.1-30.1" stroke="#fff50095"/><path d="M100-162.5l15.4 2.9" stroke="#fff95"/></g><g class="sparcs"><path d="M116.7-163.4a5.9 5.9 0 1 1 0-11.8 5.9 5.9 0 0 1 0 11.8" fill="#fff5007D"/><path d="M72.7-141a5.9 5.9 0 1 1 0-11.9 5.9 5.9 0 0 1 0 11.9" fill="#005bbb7D"/><path d="M115.9-119.9a5.9 5.9 0 1 1 0-11.9 5.9 5.9 0 0 1 0 11.9" fill="#005bbb7D"/><path d="M128.5-208.4a6 6 0 1 1 0-12 6 6 0 0 1 0 12" fill="#c2e1ff7F"/><path d="M93.5-91.7a6 6 0 1 1 0-12 6 6 0 0 1 0 12" fill="#c2e1ff7F"/><path d="M31.5-185.4a6.1 6.1 0 1 1 0-12.1 6.1 6.1 0 0 1 0 12.1" fill="#005bbb80"/><path d="M164.2-200.4a6.1 6.1 0 1 1 0-12.2 6.1 6.1 0 0 1 0 12.2" fill="#fff50080"/><path d="M19.4-109.9a6.1 6.1 0 1 1 0-12.3 6.1 6.1 0 0 1 0 12.3" fill="#c2e1ff82"/><path d="M123-54.1a6.2 6.2 0 1 1 0-12.4 6.2 6.2 0 0 1 0 12.4" fill="#fff83"/><path d="M206.4-136.8a6.2 6.2 0 1 1 0-12.4 6.2 6.2 0 0 1 0 12.4" fill="#fff50084"/><path d="M193.2-224.1a6.3 6.3 0 1 1 0-12.5 6.3 6.3 0 0 1 0 12.5" fill="#fff85"/><path d="M164-59.6a6.3 6.3 0 1 1 0-12.5 6.3 6.3 0 0 1 0 12.5" fill="#c2e1ff85"/><path d="M178.2-65.5a6.3 6.3 0 1 1 0-12.6 6.3 6.3 0 0 1 0 12.6" fill="#fff50085"/><path d="M141.3-37.1a6.4 6.4 0 1 1 0-12.7 6.4 6.4 0 0 1 0 12.7" fill="#fff50087"/><path d="M9.6-255.2a6.4 6.4 0 1 1 0-12.8 6.4 6.4 0 0 1 0 12.8" fill="#fff88"/><path d="M117-289.5a6.4 6.4 0 1 1 0-12.9 6.4 6.4 0 0 1 0 12.9" fill="#005bbb88"/><path d="M160.5-279.7a6.5 6.5 0 1 1 0-12.9 6.5 6.5 0 0 1 0 12.9" fill="#005bbb89"/><path d="M-1.1-254.3a6.5 6.5 0 1 1 0-13 6.5 6.5 0 0 1 0 13" fill="#fff89"/><path d="M-29.5-218.8a6.5 6.5 0 1 1 0-13 6.5 6.5 0 0 1 0 13" fill="#fff8A"/><path d="M81.8-9.3a6.6 6.6 0 1 1 0-13.1 6.6 6.6 0 0 1 0 13.1" fill="#fff5008B"/><path d="M156.4-13.8a6.6 6.6 0 1 1 0-13.2 6.6 6.6 0 0 1 0 13.2" fill="#c2e1ff8C"/><path d="M129.8 0.5a6.7 6.7 0 1 1 0-13.4 6.7 6.7 0 0 1 0 13.4" fill="#005bbb8D"/><path d="M-9.9-272a6.7 6.7 0 1 1 0-13.4 6.7 6.7 0 0 1 0 13.4" fill="#fff8E"/><path d="M-27.2-56.6a6.7 6.7 0 1 1 0-13.4 6.7 6.7 0 0 1 0 13.4" fill="#fff8E"/><path d="M-57.9-114.5a6.7 6.7 0 1 1 0-13.5 6.7 6.7 0 0 1 0 13.5" fill="#fff5008F"/><path d="M266.4-168.5a6.8 6.8 0 1 1 0-13.5 6.8 6.8 0 0 1 0 13.5" fill="#005bbb8F"/><path d="M-37.4-51.2a6.8 6.8 0 1 1 0-13.7 6.8 6.8 0 0 1 0 13.7" fill="#005bbb91"/><path d="M156.7 9.1a6.9 6.9 0 1 1 0-13.7 6.9 6.9 0 0 1 0 13.7" fill="#c2e1ff92"/><path d="M8-305a6.9 6.9 0 1 1 0-13.7 6.9 6.9 0 0 1 0 13.7" fill="#c2e1ff92"/><path d="M158.2 10.6a6.9 6.9 0 1 1 0-13.8 6.9 6.9 0 0 1 0 13.8" fill="#fff92"/><path d="M19.9 3.4a6.9 6.9 0 1 1 0-13.9 6.9 6.9 0 0 1 0 13.9" fill="#c2e1ff93"/><path d="M4.1-314a7 7 0 1 1 0-14 7 7 0 0 1 0 14" fill="#005bbb95"/><path d="M118.4-341.1a7 7 0 1 1 0-14.1 7 7 0 0 1 0 14.1" fill="#fff50096"/><path d="M162.3 25.4a7.1 7.1 0 1 1 0-14.2 7.1 7.1 0 0 1 0 14.2" fill="#fff50097"/><path d="M90.3-347.3a7.1 7.1 0 1 1 0-14.3 7.1 7.1 0 0 1 0 14.3" fill="#fff98"/><path d="M166.9-335.9a7.1 7.1 0 1 1 0-14.3 7.1 7.1 0 0 1 0 14.3" fill="#005bbb98"/><path d="M-79-227.7a7.2 7.2 0 1 1 0-14.3 7.2 7.2 0 0 1 0 14.3" fill="#005bbb98"/><path d="M-74.1-68.1a7.2 7.2 0 1 1 0-14.3 7.2 7.2 0 0 1 0 14.3" fill="#fff50099"/><path d="M-95.6-153.5a7.2 7.2 0 1 1 0-14.4 7.2 7.2 0 0 1 0 14.4" fill="#fff50099"/><path d="M191.7-334.7a7.3 7.3 0 1 1 0-14.6 7.3 7.3 0 0 1 0 14.6" fill="#c2e1ff9C"/><path d="M254.4-24.7a7.3 7.3 0 1 1 0-14.6 7.3 7.3 0 0 1 0 14.6" fill="#c2e1ff9C"/><path d="M83.5-357.6a7.4 7.4 0 1 1 0-14.7 7.4 7.4 0 0 1 0 14.7" fill="#c2e1ff9C"/><path d="M279.3-57.6a7.4 7.4 0 1 1 0-14.8 7.4 7.4 0 0 1 0 14.8" fill="#fff9D"/><path d="M-100.5-198.8a7.4 7.4 0 1 1 0-14.8 7.4 7.4 0 0 1 0 14.8" fill="#005bbb9D"/><path d="M292-231.1a7.4 7.4 0 1 1 0-14.8 7.4 7.4 0 0 1 0 14.8" fill="#c2e1ff9E"/><path d="M-106.8-143.4a7.4 7.4 0 1 1 0-14.9 7.4 7.4 0 0 1 0 14.9" fill="#005bbb9E"/><path d="M42.1-354a7.4 7.4 0 1 1 0-14.9 7.4 7.4 0 0 1 0 14.9" fill="#fff5009E"/><path d="M16 34.6a7.4 7.4 0 1 1 0-14.9 7.4 7.4 0 0 1 0 14.9" fill="#fff5009E"/><path d="M296.4-83.3a7.5 7.5 0 1 1 0-14.9 7.5 7.5 0 0 1 0 14.9" fill="#005bbb9F"/><path d="M220.4-326a7.5 7.5 0 1 1 0-15 7.5 7.5 0 0 1 0 15" fill="#005bbb9F"/><path d="M150.8 49.9a7.5 7.5 0 1 1 0-15.1 7.5 7.5 0 0 1 0 15.1" fill="#fff500A0"/><path d="M232-320.6a7.6 7.6 0 1 1 0-15.1 7.6 7.6 0 0 1 0 15.1" fill="#fff500A1"/><path d="M-112.2-165.1a7.6 7.6 0 1 1 0-15.2 7.6 7.6 0 0 1 0 15.2" fill="#fffA1"/><path d="M261-295.9a7.6 7.6 0 1 1 0-15.2 7.6 7.6 0 0 1 0 15.2" fill="#005bbbA2"/><path d="M245.5-314.2a7.7 7.7 0 1 1 0-15.3 7.7 7.7 0 0 1 0 15.3" fill="#c2e1ffA3"/><path d="M-21.2-335.9a7.7 7.7 0 1 1 0-15.4 7.7 7.7 0 0 1 0 15.4" fill="#005bbbA4"/><path d="M-86.6-35.2a7.8 7.8 0 1 1 0-15.7 7.8 7.8 0 0 1 0 15.7" fill="#005bbbA7"/><path d="M-100.3-250.3a7.8 7.8 0 1 1 0-15.7 7.8 7.8 0 0 1 0 15.7" fill="#c2e1ffA7"/><path d="M290.4-269.4a7.9 7.9 0 1 1 0-15.7 7.9 7.9 0 0 1 0 15.7" fill="#c2e1ffA7"/><path d="M286.2-31.3a7.9 7.9 0 1 1 0-15.8 7.9 7.9 0 0 1 0 15.8" fill="#fffA8"/><path d="M46.8 62.5a7.9 7.9 0 1 1 0-15.8 7.9 7.9 0 0 1 0 15.8" fill="#005bbbA8"/><path d="M0.6 46.8a7.9 7.9 0 1 1 0-15.9 7.9 7.9 0 0 1 0 15.9" fill="#005bbbA9"/><path d="M-78.9-17.7a8 8 0 1 1 0-16 8 8 0 0 1 0 16" fill="#fffAA"/><path d="M-126.2-144.5a8 8 0 1 1 0-16.1 8 8 0 0 1 0 16.1" fill="#005bbbAB"/><path d="M-126.4-149.5a8 8 0 1 1 0-16 8 8 0 0 1 0 16" fill="#c2e1ffAB"/><path d="M-61.6-314.6a8.1 8.1 0 1 1 0-16.1 8.1 8.1 0 0 1 0 16.1" fill="#fff500AC"/><path d="M1.5 52.4a8.1 8.1 0 1 1 0-16.3 8.1 8.1 0 0 1 0 16.3" fill="#fffAE"/><path d="M-54.8-324a8.2 8.2 0 1 1 0-16.4 8.2 8.2 0 0 1 0 16.4" fill="#fff500AE"/><path d="M-105.5-51.5a8.2 8.2 0 1 1 0-16.3 8.2 8.2 0 0 1 0 16.3" fill="#fff500AE"/><path d="M-119.1-224.2a8.2 8.2 0 1 1 0-16.4 8.2 8.2 0 0 1 0 16.4" fill="#fff500AF"/><path d="M-12.2 46.5a8.2 8.2 0 1 1 0-16.3 8.2 8.2 0 0 1 0 16.3" fill="#005bbbAF"/><path d="M-99.3-269.6a8.2 8.2 0 1 1 0-16.4 8.2 8.2 0 0 1 0 16.4" fill="#fffAF"/><path d="M271.7-308.6a8.2 8.2 0 1 1 0-16.4 8.2 8.2 0 0 1 0 16.4" fill="#005bbbB0"/><path d="M-102.1-39.6a8.3 8.3 0 1 1 0-16.6 8.3 8.3 0 0 1 0 16.6" fill="#c2e1ffB2"/><path d="M221-353.5a8.4 8.4 0 1 1 0-16.8 8.4 8.4 0 0 1 0 16.8" fill="#fff500B3"/><path d="M140.5 76.1a8.4 8.4 0 1 1 0-16.9 8.4 8.4 0 0 1 0 16.9" fill="#fff500B4"/><path d="M-34.1-345.8a8.5 8.5 0 1 1 0-16.9 8.5 8.5 0 0 1 0 16.9" fill="#fff500B5"/><path d="M-98.9-278.2a8.5 8.5 0 1 1 0-17 8.5 8.5 0 0 1 0 17" fill="#005bbbB6"/><path d="M-116.1-245.4a8.5 8.5 0 1 1 0-17 8.5 8.5 0 0 1 0 17" fill="#fffB6"/><path d="M238.3 35.7a8.5 8.5 0 1 1 0-17 8.5 8.5 0 0 1 0 17" fill="#c2e1ffB6"/><path d="M-134.9-155a8.5 8.5 0 1 1 0-17.1 8.5 8.5 0 0 1 0 17.1" fill="#fffB6"/><path d="M223.7 46.2a8.6 8.6 0 1 1 0-17.2 8.6 8.6 0 0 1 0 17.2" fill="#fff500B7"/><path d="M211-361.4a8.6 8.6 0 1 1 0-17.1 8.6 8.6 0 0 1 0 17.1" fill="#fffB8"/><path d="M301.5-32.5a8.6 8.6 0 1 1 0-17.2 8.6 8.6 0 0 1 0 17.2" fill="#fffB8"/><path d="M94.5 82.1a8.7 8.7 0 1 1 0-17.4 8.7 8.7 0 0 1 0 17.4" fill="#fffBA"/><path d="M-26.6 45.4a8.7 8.7 0 1 1 0-17.4 8.7 8.7 0 0 1 0 17.4" fill="#fff500BB"/><path d="M206.1 57.1a8.7 8.7 0 1 1 0-17.5 8.7 8.7 0 0 1 0 17.5" fill="#c2e1ffBB"/><path d="M236.2-346.5a8.7 8.7 0 1 1 0-17.5 8.7 8.7 0 0 1 0 17.5" fill="#c2e1ffBB"/><path d="M300.3-278.7a8.8 8.8 0 1 1 0-17.5 8.8 8.8 0 0 1 0 17.5" fill="#fffBB"/><path d="M-114-253.6a8.9 8.9 0 1 1 0-17.8 8.9 8.9 0 0 1 0 17.8" fill="#fffBE"/><path d="M157.3-382.6a9 9 0 1 1 0-17.9 9 9 0 0 1 0 17.9" fill="#c2e1ffC0"/><path d="M179.8 68.4a9 9 0 1 1 0-18.1 9 9 0 0 1 0 18.1" fill="#fff500C2"/><path d="M85.1-388.5a9.1 9.1 0 1 1 0-18.2 9.1 9.1 0 0 1 0 18.2" fill="#c2e1ffC2"/><path d="M307.3-265.3a9.1 9.1 0 1 1 0-18.2 9.1 9.1 0 0 1 0 18.2" fill="#005bbbC2"/><path d="M288.3-294.8a9.1 9.1 0 1 1 0-18.2 9.1 9.1 0 0 1 0 18.2" fill="#c2e1ffC3"/><path d="M-133.2-121.5a9.1 9.1 0 1 1 0-18.2 9.1 9.1 0 0 1 0 18.2" fill="#fffC3"/><path d="M-102.4-272.9a9.1 9.1 0 1 1 0-18.3 9.1 9.1 0 0 1 0 18.3" fill="#c2e1ffC4"/><path d="M273.2 4.2a9.3 9.3 0 1 1 0-18.5 9.3 9.3 0 0 1 0 18.5" fill="#c2e1ffC6"/><path d="M333.6-153.2a9.3 9.3 0 1 1 0-18.6 9.3 9.3 0 0 1 0 18.6" fill="#fffC7"/><path d="M255.8-326.8a9.3 9.3 0 1 1 0-18.6 9.3 9.3 0 0 1 0 18.6" fill="#fffC8"/><path d="M-128.5-106.5a9.3 9.3 0 1 1 0-18.7 9.3 9.3 0 0 1 0 18.7" fill="#fff500C8"/><path d="M85.6 79.4a9.3 9.3 0 1 1 0-18.7 9.3 9.3 0 0 1 0 18.7" fill="#fff500C8"/><path d="M-114.4-242.3a9.4 9.4 0 1 1 0-18.8 9.4 9.4 0 0 1 0 18.8" fill="#005bbbC9"/><path d="M243.1-335.3a9.4 9.4 0 1 1 0-18.8 9.4 9.4 0 0 1 0 18.8" fill="#fff500CA"/><path d="M-15.7-353.7a9.4 9.4 0 1 1 0-18.9 9.4 9.4 0 0 1 0 18.9" fill="#fff500CA"/><path d="M-123.1-212a9.5 9.5 0 1 1 0-19 9.5 9.5 0 0 1 0 19" fill="#fffCB"/><path d="M-95.2-32.2a9.6 9.6 0 1 1 0-19.2 9.6 9.6 0 0 1 0 19.2" fill="#c2e1ffCD"/><path d="M171.1 64.6a9.6 9.6 0 1 1 0-19.2 9.6 9.6 0 0 1 0 19.2" fill="#c2e1ffCE"/><path d="M-127.2-178.7a9.6 9.6 0 1 1 0-19.2 9.6 9.6 0 0 1 0 19.2" fill="#005bbbCE"/><path d="M-3.3 50.9a9.6 9.6 0 1 1 0-19.2 9.6 9.6 0 0 1 0 19.2" fill="#fffCE"/><path d="M-89.9-278.1a9.7 9.7 0 1 1 0-19.4 9.7 9.7 0 0 1 0 19.4" fill="#005bbbCF"/><path d="M289.3-29a9.7 9.7 0 1 1 0-19.4 9.7 9.7 0 0 1 0 19.4" fill="#fffD0"/><path d="M321.3-106.3a9.7 9.7 0 1 1 0-19.4 9.7 9.7 0 0 1 0 19.4" fill="#c2e1ffD0"/><path d="M-16.5 40.8a9.7 9.7 0 1 1 0-19.5 9.7 9.7 0 0 1 0 19.5" fill="#c2e1ffD1"/><path d="M210-349.8a9.7 9.7 0 1 1 0-19.5 9.7 9.7 0 0 1 0 19.5" fill="#fff500D1"/><path d="M73.3-376.3a9.8 9.8 0 1 1 0-19.5 9.8 9.8 0 0 1 0 19.5" fill="#fff500D1"/><path d="M-7.7-350.4a9.8 9.8 0 1 1 0-19.5 9.8 9.8 0 0 1 0 19.5" fill="#005bbbD1"/><path d="M-121.5-188.3a9.8 9.8 0 1 1 0-19.5 9.8 9.8 0 0 1 0 19.5" fill="#005bbbD2"/><path d="M11 52.9a9.8 9.8 0 1 1 0-19.5 9.8 9.8 0 0 1 0 19.5" fill="#fffD2"/><path d="M-121.6-129.2a9.8 9.8 0 1 1 0-19.7 9.8 9.8 0 0 1 0 19.7" fill="#c2e1ffD3"/><path d="M-104.9-239.8a9.8 9.8 0 1 1 0-19.7 9.8 9.8 0 0 1 0 19.7" fill="#c2e1ffD3"/><path d="M-62.2-304.8a9.9 9.9 0 1 1 0-19.7 9.9 9.9 0 0 1 0 19.7" fill="#fffD3"/><path d="M-117.1-186.3a9.9 9.9 0 1 1 0-19.9 9.9 9.9 0 0 1 0 19.9" fill="#fff500D5"/><path d="M-99.5-65.8a10 10 0 1 1 0-20 10 10 0 0 1 0 20" fill="#c2e1ffD7"/><path d="M259-6.1a10.1 10.1 0 1 1 0-20.1 10.1 10.1 0 0 1 0 20.1" fill="#fffD8"/><path d="M-101.4-77.3a10.1 10.1 0 1 1 0-20.1 10.1 10.1 0 0 1 0 20.1" fill="#c2e1ffD8"/><path d="M313.6-129.2a10.1 10.1 0 1 1 0-20.2 10.1 10.1 0 0 1 0 20.2" fill="#fff500D9"/><path d="M101.5 61.3a10.1 10.1 0 1 1 0-20.2 10.1 10.1 0 0 1 0 20.2" fill="#005bbbD9"/><path d="M291.3-245a10.1 10.1 0 1 1 0-20.3 10.1 10.1 0 0 1 0 20.3" fill="#fffDA"/><path d="M-111.3-161.1a10.2 10.2 0 1 1 0-20.3 10.2 10.2 0 0 1 0 20.3" fill="#fff500DA"/><path d="M-5.1 30.7a10.2 10.2 0 1 1 0-20.4 10.2 10.2 0 0 1 0 20.4" fill="#c2e1ffDB"/><path d="M2.5 24.5a10.4 10.4 0 1 1 0-20.8 10.4 10.4 0 0 1 0 20.8" fill="#c2e1ffDF"/><path d="M32.4-339.6a10.4 10.4 0 1 1 0-20.9 10.4 10.4 0 0 1 0 20.9" fill="#005bbbE0"/><path d="M-61.6-41.5a10.5 10.5 0 1 1 0-21 10.5 10.5 0 0 1 0 21" fill="#fffE2"/><path d="M-54.5-32.8a10.5 10.5 0 1 1 0-21.1 10.5 10.5 0 0 1 0 21.1" fill="#005bbbE2"/><path d="M86.3-343.7a10.6 10.6 0 1 1 0-21.2 10.6 10.6 0 0 1 0 21.2" fill="#fff500E3"/><path d="M289.9-181.4a10.6 10.6 0 1 1 0-21.1 10.6 10.6 0 0 1 0 21.1" fill="#fffE3"/><path d="M220.8-3.5a10.6 10.6 0 1 1 0-21.2 10.6 10.6 0 0 1 0 21.2" fill="#c2e1ffE4"/><path d="M-90.3-135.8a10.6 10.6 0 1 1 0-21.1 10.6 10.6 0 0 1 0 21.1" fill="#fffE4"/><path d="M285.4-160.9a10.7 10.7 0 1 1 0-21.4 10.7 10.7 0 0 1 0 21.4" fill="#005bbbE6"/><path d="M183.6 12.6a10.7 10.7 0 1 1 0-21.4 10.7 10.7 0 0 1 0 21.4" fill="#c2e1ffE6"/><path d="M279.4-111.6a10.7 10.7 0 1 1 0-21.4 10.7 10.7 0 0 1 0 21.4" fill="#005bbbE6"/><path d="M230.8-22.7a10.7 10.7 0 1 1 0-21.4 10.7 10.7 0 0 1 0 21.4" fill="#fff500E6"/><path d="M102.3-334a10.7 10.7 0 1 1 0-21.5 10.7 10.7 0 0 1 0 21.5" fill="#c2e1ffE7"/><path d="M-39-47a10.9 10.9 0 1 1 0-21.7 10.9 10.9 0 0 1 0 21.7" fill="#c2e1ffE9"/><path d="M-71.4-177.1a10.9 10.9 0 1 1 0-21.8 10.9 10.9 0 0 1 0 21.8" fill="#fffEA"/><path d="M87.6 19a10.9 10.9 0 1 1 0-21.8 10.9 10.9 0 0 1 0 21.8" fill="#005bbbEA"/><path d="M256.9-92.5a10.9 10.9 0 1 1 0-21.9 10.9 10.9 0 0 1 0 21.9" fill="#fffEB"/><path d="M224.1-253a11 11 0 1 1 0-22.1 11 11 0 0 1 0 22.1" fill="#fffED"/><path d="M217.8-257.3a11.1 11.1 0 1 1 0-22.1 11.1 11.1 0 0 1 0 22.1" fill="#005bbbEE"/><path d="M75.1 0a11.1 11.1 0 1 1 0-22.2 11.1 11.1 0 0 1 0 22.2" fill="#c2e1ffEF"/><path d="M159.4-20.9a11.2 11.2 0 1 1 0-22.5 11.2 11.2 0 0 1 0 22.5" fill="#fff500F1"/><path d="M194.4-251.5a11.3 11.3 0 1 1 0-22.5 11.3 11.3 0 0 1 0 22.5" fill="#005bbbF2"/><path d="M237-158.1a11.3 11.3 0 1 1 0-22.5 11.3 11.3 0 0 1 0 22.5" fill="#fff500F2"/><path d="M220.1-215.4a11.3 11.3 0 1 1 0-22.6 11.3 11.3 0 0 1 0 22.6" fill="#fffF3"/><path d="M25.1-38.5a11.3 11.3 0 1 1 0-22.5 11.3 11.3 0 0 1 0 22.5" fill="#fff500F3"/><path d="M-30.4-123.7a11.3 11.3 0 1 1 0-22.6 11.3 11.3 0 0 1 0 22.6" fill="#005bbbF3"/><path d="M144.9-26.9a11.3 11.3 0 1 1 0-22.6 11.3 11.3 0 0 1 0 22.6" fill="#fff500F3"/><path d="M89.9-280.9a11.3 11.3 0 1 1 0-22.6 11.3 11.3 0 0 1 0 22.6" fill="#fffF4"/><path d="M-23.1-121.3a11.4 11.4 0 1 1 0-22.7 11.4 11.4 0 0 1 0 22.7" fill="#005bbbF4"/><path d="M215.9-185a11.4 11.4 0 1 1 0-22.8 11.4 11.4 0 0 1 0 22.8" fill="#fffF5"/><path d="M203.9-173.3a11.5 11.5 0 1 1 0-23 11.5 11.5 0 0 1 0 23" fill="#fff500F8"/><path d="M194.1-192.2a11.5 11.5 0 1 1 0-23 11.5 11.5 0 0 1 0 23" fill="#c2e1ffF8"/><path d="M159.9-231.2a11.5 11.5 0 1 1 0-23.1 11.5 11.5 0 0 1 0 23.1" fill="#c2e1ffF8"/><path d="M147.8-64.3a11.5 11.5 0 1 1 0-23.1 11.5 11.5 0 0 1 0 23.1" fill="#005bbbF9"/><path d="M183.5-162.8a11.6 11.6 0 1 1 0-23.3 11.6 11.6 0 0 1 0 23.3" fill="#fff500FA"/><path d="M182.4-147a11.6 11.6 0 1 1 0-23.2 11.6 11.6 0 0 1 0 23.2" fill="#fff500FA"/><path d="M31.7-108.6a11.6 11.6 0 1 1 0-23.3 11.6 11.6 0 0 1 0 23.3" fill="#005bbbFB"/><path d="M22.6-132.5a11.6 11.6 0 1 1 0-23.3 11.6 11.6 0 0 1 0 23.3" fill="#c2e1ffFB"/><path d="M62.2-84.6a11.7 11.7 0 1 1 0-23.3 11.7 11.7 0 0 1 0 23.3" fill="#005bbbFB"/><path d="M30.3-180.5a11.7 11.7 0 1 1 0-23.3 11.7 11.7 0 0 1 0 23.3" fill="#005bbbFB"/><path d="M63.5-84.7a11.7 11.7 0 1 1 0-23.3 11.7 11.7 0 0 1 0 23.3" fill="#fff500FB"/><path d="M81.2-220a11.7 11.7 0 1 1 0-23.3 11.7 11.7 0 0 1 0 23.3" fill="#005bbbFB"/><path d="M63.3-90a11.7 11.7 0 1 1 0-23.3 11.7 11.7 0 0 1 0 23.3" fill="#fff500FB"/><path d="M42.2-110a11.7 11.7 0 1 1 0-23.3 11.7 11.7 0 0 1 0 23.3" fill="#fffFC"/><path d="M108.4-219.5a11.7 11.7 0 1 1 0-23.4 11.7 11.7 0 0 1 0 23.4" fill="#005bbbFC"/><path d="M51.4-128.7a11.7 11.7 0 1 1 0-23.5 11.7 11.7 0 0 1 0 23.5" fill="#fffFD"/><path d="M134.2-122.8a11.8 11.8 0 1 1 0-23.5 11.8 11.8 0 0 1 0 23.5" fill="#fffFD"/><path d="M126.7-181.2a11.8 11.8 0 1 1 0-23.5 11.8 11.8 0 0 1 0 23.5" fill="#fff500FE"/><path d="M74.9-180.9a11.8 11.8 0 1 1 0-23.5 11.8 11.8 0 0 1 0 23.5" fill="#fffFE"/><path d="M115.4-147.8a11.8 11.8 0 1 1 0-23.6 11.8 11.8 0 0 1 0 23.6" fill="#c2e1ffFE"/></g></svg>