<svg width="1200" height="675" viewBox="-500 -500 1200 675" xmlns="http://www.w3.org/2000/svg"><path d="M-500-500h1200v675h-1200z" fill="#000"/><style>.sparkles path{stroke-linecap:round; stroke-width:1}</style><g class="sparkles"><path d="M100-162.5l13.6 64.3" stroke="#c2e1ff33"/><path d="M100-162.5l56.7 35.5" stroke="#fff50034"/><path d="M100-162.5l-56.2 45.1" stroke="#c2e1ff34"/><path d="M100-162.5l66.7 41.6" stroke="#c2e1ff34"/><path d="M100-162.5l87.4-20.9" stroke="#fff35"/><path d="M100-162.5l-28.7-87.9" stroke="#005bbb35"/><path d="M100-162.5l5.8 115.5" stroke="#005bbb38"/><path d="M100-162.5l-101.7-69.2" stroke="#fff39"/><path d="M100-162.5l-105.6-71.2" stroke="#fff39"/><path d="M100-162.5l-30 127.9" stroke="#fff3A"/><path d="M100-162.5l60.3 118.1" stroke="#005bbb3A"/><path d="M100-162.5l-130.7 44.2" stroke="#fff5003B"/><path d="M100-162.5l47 132.1" stroke="#c2e1ff3B"/><path d="M100-162.5l114.7 82.4" stroke="#fff3B"/><path d="M100-162.5l-10.6 142.1" stroke="#fff3C"/><path d="M100-162.5l114.1-88.1" stroke="#005bbb3C"/><path d="M100-162.5l6.6-148.3" stroke="#005bbb3D"/><path d="M100-162.5l80.3-129.9" stroke="#fff3D"/><path d="M100-162.5l40.7-148.7" stroke="#005bbb3E"/><path d="M100-162.5l-34.5-152.2" stroke="#fff3E"/><path d="M100-162.5l148.1-53.7" stroke="#c2e1ff3E"/><path d="M100-162.5l1.2 159.6" stroke="#fff3F"/><path d="M100-162.5l-150.5 68.7" stroke="#fff40"/><path d="M100-162.5l150.5-73.8" stroke="#fff40"/><path d="M100-162.5l25.7 174.8" stroke="#005bbb42"/><path d="M100-162.5l-150.1-94" stroke="#c2e1ff42"/><path d="M100-162.5l-155.2 90.6" stroke="#005bbb43"/><path d="M100-162.5l41.1-179.3" stroke="#005bbb44"/><path d="M100-162.5l-90.3 162.6" stroke="#005bbb45"/><path d="M100-162.5l-148.5-116" stroke="#fff45"/><path d="M100-162.5l109.7-161.6" stroke="#fff47"/><path d="M100-162.5l-132.7-146.3" stroke="#005bbb48"/><path d="M100-162.5l58 189" stroke="#fff48"/><path d="M100-162.5l-167-106.3" stroke="#fff50048"/><path d="M100-162.5l12.2-198" stroke="#fff48"/><path d="M100-162.5l164.9 111.5" stroke="#c2e1ff49"/><path d="M100-162.5l-102.6 173.2" stroke="#c2e1ff49"/><path d="M100-162.5l20.7 201.7" stroke="#005bbb4A"/><path d="M100-162.5l43-198.4" stroke="#fff5004A"/><path d="M100-162.5l-67.5-191.8" stroke="#c2e1ff4A"/><path d="M100-162.5l174.4 111.1" stroke="#fff5004B"/><path d="M100-162.5l-10.8-206.5" stroke="#c2e1ff4B"/><path d="M100-162.5l87.5-188.3" stroke="#c2e1ff4C"/><path d="M100-162.5l164.8 129.2" stroke="#fff4C"/><path d="M100-162.5l42.1 205.2" stroke="#005bbb4C"/><path d="M100-162.5l205.3-45.2" stroke="#c2e1ff4D"/><path d="M100-162.5l34.6-209.7" stroke="#005bbb4E"/><path d="M100-162.5l8.4 212.7" stroke="#005bbb4E"/><path d="M100-162.5l212.6-22.8" stroke="#fff4E"/><path d="M100-162.5l-48.9-208.2" stroke="#fff4E"/><path d="M100-162.5l18.9 213.7" stroke="#fff4F"/><path d="M100-162.5l-134-169" stroke="#c2e1ff4F"/><path d="M100-162.5l67.2-206.1" stroke="#fff50"/><path d="M100-162.5l-215.7-36.1" stroke="#fff50051"/><path d="M100-162.5l195.8-99" stroke="#c2e1ff51"/><path d="M100-162.5l171.7-143.8" stroke="#fff54"/><path d="M100-162.5l-187.8 122.2" stroke="#c2e1ff54"/><path d="M100-162.5l-223.4-18.4" stroke="#fff54"/><path d="M100-162.5l119.6-190.4" stroke="#c2e1ff54"/><path d="M100-162.5l-222.5-40.3" stroke="#fff55"/><path d="M100-162.5l-205.7 95.4" stroke="#fff55"/><path d="M100-162.5l225.7-23.5" stroke="#fff50056"/><path d="M100-162.5l34.6-224.5" stroke="#c2e1ff56"/><path d="M100-162.5l31.2 225.2" stroke="#fff50056"/><path d="M100-162.5l-213.6 79.6" stroke="#c2e1ff56"/><path d="M100-162.5l155.5 166.9" stroke="#005bbb56"/><path d="M100-162.5l-150.7 171.4" stroke="#005bbb57"/><path d="M100-162.5l221.6-55.7" stroke="#fff50057"/><path d="M100-162.5l-71.5 217.8" stroke="#c2e1ff57"/><path d="M100-162.5l-83-213.9" stroke="#fff58"/><path d="M100-162.5l44.5 225.2" stroke="#c2e1ff58"/><path d="M100-162.5l-51.7 224" stroke="#005bbb58"/><path d="M100-162.5l214.4-83.3" stroke="#c2e1ff58"/><path d="M100-162.5l145.1 179.4" stroke="#fff50059"/><path d="M100-162.5l-75.7-218.1" stroke="#fff50059"/><path d="M100-162.5l140.4 183.8" stroke="#005bbb59"/><path d="M100-162.5l140.1 185.5" stroke="#fff5B"/><path d="M100-162.5l-227.4 49.7" stroke="#c2e1ff5B"/><path d="M100-162.5l-204.5-114.3" stroke="#fff5005D"/><path d="M100-162.5l-114.7-205.1" stroke="#005bbb5E"/><path d="M100-162.5l-14.9-234.6" stroke="#fff5E"/><path d="M100-162.5l130.4-195.9" stroke="#fff5F"/><path d="M100-162.5l142.3 187.6" stroke="#fff60"/><path d="M100-162.5l-115.3-205.7" stroke="#fff50061"/><path d="M100-162.5l-235.8-13" stroke="#fff50063"/><path d="M100-162.5l-109.9-209.1" stroke="#005bbb63"/><path d="M100-162.5l120.9-202.9" stroke="#fff63"/><path d="M100-162.5l231 49.3" stroke="#005bbb64"/><path d="M100-162.5l148.2 184" stroke="#c2e1ff64"/><path d="M100-162.5l-143.1 188" stroke="#fff50064"/><path d="M100-162.5l-207.6-112.2" stroke="#fff50066"/><path d="M100-162.5l161.4-172.1" stroke="#005bbb66"/><path d="M100-162.5l226.7 64.7" stroke="#fff50067"/><path d="M100-162.5l208.8-109.2" stroke="#fff67"/><path d="M100-162.5l33.5-233.1" stroke="#c2e1ff68"/><path d="M100-162.5l232.9-25.4" stroke="#005bbb6A"/><path d="M100-162.5l199.5 122.4" stroke="#c2e1ff6A"/><path d="M100-162.5l225.2 63.3" stroke="#c2e1ff6B"/><path d="M100-162.5l-215.6-90.5" stroke="#fff6B"/><path d="M100-162.5l-58.5-226" stroke="#fff6B"/><path d="M100-162.5l78.8-217" stroke="#005bbb6E"/><path d="M100-162.5l-84.8-214" stroke="#005bbb6F"/><path d="M100-162.5l94.5 208.9" stroke="#c2e1ff70"/><path d="M100-162.5l-217.1 71.3" stroke="#c2e1ff70"/><path d="M100-162.5l-139.1-179.6" stroke="#fff50071"/><path d="M100-162.5l-218.2-62.6" stroke="#fff50071"/><path d="M100-162.5l129.2 185.9" stroke="#c2e1ff72"/><path d="M100-162.5l12.6-225.9" stroke="#c2e1ff72"/><path d="M100-162.5l123.2-189.3" stroke="#fff50072"/><path d="M100-162.5l-8.6 225.1" stroke="#fff50073"/><path d="M100-162.5l88.8-206.8" stroke="#fff73"/><path d="M100-162.5l-221 42" stroke="#005bbb73"/><path d="M100-162.5l-124.5 186.1" stroke="#fff50073"/><path d="M100-162.5l-111.6-192.5" stroke="#fff50074"/><path d="M100-162.5l-206.6 78.8" stroke="#fff50075"/><path d="M100-162.5l-173.9 136.2" stroke="#c2e1ff75"/><path d="M100-162.5l-118.7 186" stroke="#fff50075"/><path d="M100-162.5l148.3 162.8" stroke="#c2e1ff76"/><path d="M100-162.5l-214.1 49.4" stroke="#c2e1ff76"/><path d="M100-162.5l181.7-121" stroke="#c2e1ff77"/><path d="M100-162.5l-98.5-194.7" stroke="#c2e1ff77"/><path d="M100-162.5l127.3 176" stroke="#fff50077"/><path d="M100-162.5l-161.7-144.6" stroke="#c2e1ff77"/><path d="M100-162.5l-107.6-188.1" stroke="#fff77"/><path d="M100-162.5l-91.8-195.2" stroke="#c2e1ff78"/><path d="M100-162.5l-212.1 10.6" stroke="#c2e1ff79"/><path d="M100-162.5l-128.9 167.9" stroke="#fff7A"/><path d="M100-162.5l-170.9 124.1" stroke="#fff5007A"/><path d="M100-162.5l182.8 105.4" stroke="#c2e1ff7A"/><path d="M100-162.5l-140.3-153.8" stroke="#c2e1ff7B"/><path d="M100-162.5l-167.9-120.2" stroke="#fff5007C"/><path d="M100-162.5l137.9 147.1" stroke="#c2e1ff7E"/><path d="M100-162.5l-201.3-7.7" stroke="#fff7E"/><path d="M100-162.5l201.4 0" stroke="#fff5007E"/><path d="M100-162.5l-194.2-47.8" stroke="#fff7E"/><path d="M100-162.5l-12 198.8" stroke="#c2e1ff7E"/><path d="M100-162.5l-174.6-94.4" stroke="#fff5007F"/><path d="M100-162.5l109.9 158.5" stroke="#c2e1ff80"/><path d="M100-162.5l-191.6 1.8" stroke="#005bbb81"/><path d="M100-162.5l104.4-160.4" stroke="#fff81"/><path d="M100-162.5l5.8-190.9" stroke="#005bbb81"/><path d="M100-162.5l181.3-38.1" stroke="#005bbb83"/><path d="M100-162.5l-64.1-168.6" stroke="#fff50084"/><path d="M100-162.5l9.5-178.6" stroke="#005bbb84"/><path d="M100-162.5l149.3-90.3" stroke="#005bbb85"/><path d="M100-162.5l-83.8 151.8" stroke="#c2e1ff85"/><path d="M100-162.5l19.1-169.6" stroke="#c2e1ff86"/><path d="M100-162.5l-145 87.3" stroke="#fff50086"/><path d="M100-162.5l67.6-153.2" stroke="#fff50087"/><path d="M100-162.5l-140.7 88.7" stroke="#fff50087"/><path d="M100-162.5l-121.2 112.4" stroke="#005bbb87"/><path d="M100-162.5l-164.2 12.3" stroke="#005bbb87"/><path d="M100-162.5l-105-121.5" stroke="#fff88"/><path d="M100-162.5l130.7-93.3" stroke="#c2e1ff88"/><path d="M100-162.5l-99.7-120.7" stroke="#fff50089"/><path d="M100-162.5l153.6 10.8" stroke="#c2e1ff89"/><path d="M100-162.5l74.3 132.3" stroke="#c2e1ff8A"/><path d="M100-162.5l-139.8 25.9" stroke="#fff8B"/><path d="M100-162.5l-66.4 125.4" stroke="#005bbb8B"/><path d="M100-162.5l-128.4 51.6" stroke="#c2e1ff8C"/><path d="M100-162.5l60.4-123.2" stroke="#fff8C"/><path d="M100-162.5l-81.7 109.6" stroke="#fff5008C"/><path d="M100-162.5l84.9 106.8" stroke="#fff8C"/><path d="M100-162.5l-134.8-17.6" stroke="#005bbb8C"/><path d="M100-162.5l114.8 67.6" stroke="#005bbb8D"/><path d="M100-162.5l-125.2-44.1" stroke="#fff8D"/><path d="M100-162.5l-44 116.3" stroke="#fff5008E"/><path d="M100-162.5l-13.3 121.6" stroke="#c2e1ff8E"/><path d="M100-162.5l-116.4-13.5" stroke="#fff8F"/><path d="M100-162.5l-112.5-30" stroke="#c2e1ff8F"/><path d="M100-162.5l-86.4 68" stroke="#fff90"/><path d="M100-162.5l-109.4-10.6" stroke="#005bbb90"/><path d="M100-162.5l8.6 101.6" stroke="#fff50091"/><path d="M100-162.5l-94.5-37.8" stroke="#fff91"/><path d="M100-162.5l87.9 18.7" stroke="#fff50092"/><path d="M100-162.5l-23.1 75.6" stroke="#fff50093"/><path d="M100-162.5l-77.1 14.7" stroke="#fff50093"/><path d="M100-162.5l66.5-40.6" stroke="#005bbb93"/><path d="M100-162.5l-69 7.9" stroke="#fff93"/><path d="M100-162.5l-41.2-52.2" stroke="#c2e1ff93"/><path d="M100-162.5l-14.8 58.3" stroke="#005bbb94"/></g><g class="sparcs"><path d="M113.6-92.1a6 6 0 1 1 0-12.1 6 6 0 0 1 0 12.1" fill="#fff5007F"/><path d="M156.7-121a6 6 0 1 1 0-12 6 6 0 0 1 0 12" fill="#fff5007F"/><path d="M43.8-111.3a6 6 0 1 1 0-12.1 6 6 0 0 1 0 12.1" fill="#fff80"/><path d="M166.7-114.8a6.1 6.1 0 1 1 0-12.2 6.1 6.1 0 0 1 0 12.2" fill="#fff50080"/><path d="M187.4-177.3a6.1 6.1 0 1 1 0-12.3 6.1 6.1 0 0 1 0 12.3" fill="#c2e1ff81"/><path d="M71.3-244.2a6.1 6.1 0 1 1 0-12.3 6.1 6.1 0 0 1 0 12.3" fill="#fff50082"/><path d="M105.8-40.7a6.3 6.3 0 1 1 0-12.6 6.3 6.3 0 0 1 0 12.6" fill="#fff50085"/><path d="M-1.7-225.4a6.3 6.3 0 1 1 0-12.7 6.3 6.3 0 0 1 0 12.7" fill="#005bbb86"/><path d="M-5.6-227.3a6.4 6.4 0 1 1 0-12.8 6.4 6.4 0 0 1 0 12.8" fill="#fff50087"/><path d="M70-28.2a6.4 6.4 0 1 1 0-12.8 6.4 6.4 0 0 1 0 12.8" fill="#c2e1ff87"/><path d="M160.3-38a6.4 6.4 0 1 1 0-12.9 6.4 6.4 0 0 1 0 12.9" fill="#fff50088"/><path d="M-30.7-111.8a6.5 6.5 0 1 1 0-13 6.5 6.5 0 0 1 0 13" fill="#fff50089"/><path d="M147-24a6.5 6.5 0 1 1 0-12.9 6.5 6.5 0 0 1 0 12.9" fill="#005bbb89"/><path d="M214.7-73.6a6.5 6.5 0 1 1 0-12.9 6.5 6.5 0 0 1 0 12.9" fill="#fff50089"/><path d="M89.4-13.9a6.5 6.5 0 1 1 0-13 6.5 6.5 0 0 1 0 13" fill="#fff8A"/><path d="M214.1-244.1a6.5 6.5 0 1 1 0-13.1 6.5 6.5 0 0 1 0 13.1" fill="#fff8A"/><path d="M106.6-304.2a6.6 6.6 0 1 1 0-13.2 6.6 6.6 0 0 1 0 13.2" fill="#fff5008B"/><path d="M180.3-285.8a6.6 6.6 0 1 1 0-13.2 6.6 6.6 0 0 1 0 13.2" fill="#fff5008C"/><path d="M140.7-304.6a6.6 6.6 0 1 1 0-13.2 6.6 6.6 0 0 1 0 13.2" fill="#fff5008C"/><path d="M65.5-308.1a6.6 6.6 0 1 1 0-13.3 6.6 6.6 0 0 1 0 13.3" fill="#fff5008D"/><path d="M248.1-209.5a6.7 6.7 0 1 1 0-13.4 6.7 6.7 0 0 1 0 13.4" fill="#fff5008D"/><path d="M101.2 3.8a6.7 6.7 0 1 1 0-13.4 6.7 6.7 0 0 1 0 13.4" fill="#c2e1ff8E"/><path d="M-50.5-87a6.8 6.8 0 1 1 0-13.5 6.8 6.8 0 0 1 0 13.5" fill="#fff5008F"/><path d="M250.5-229.5a6.8 6.8 0 1 1 0-13.5 6.8 6.8 0 0 1 0 13.5" fill="#fff90"/><path d="M125.7 19.2a6.9 6.9 0 1 1 0-13.8 6.9 6.9 0 0 1 0 13.8" fill="#fff92"/><path d="M-50.1-249.6a6.9 6.9 0 1 1 0-13.8 6.9 6.9 0 0 1 0 13.8" fill="#fff92"/><path d="M-55.2-64.9a6.9 6.9 0 1 1 0-13.9 6.9 6.9 0 0 1 0 13.9" fill="#005bbb93"/><path d="M141.1-334.8a7 7 0 1 1 0-14 7 7 0 0 1 0 14" fill="#c2e1ff95"/><path d="M9.7 7.2a7 7 0 1 1 0-14.1 7 7 0 0 1 0 14.1" fill="#fff50095"/><path d="M-48.5-271.4a7.1 7.1 0 1 1 0-14.2 7.1 7.1 0 0 1 0 14.2" fill="#fff50096"/><path d="M209.7-316.9a7.2 7.2 0 1 1 0-14.4 7.2 7.2 0 0 1 0 14.4" fill="#c2e1ff99"/><path d="M-32.7-301.5a7.2 7.2 0 1 1 0-14.5 7.2 7.2 0 0 1 0 14.5" fill="#fff5009A"/><path d="M158 33.7a7.2 7.2 0 1 1 0-14.4 7.2 7.2 0 0 1 0 14.4" fill="#fff5009A"/><path d="M-67-261.6a7.2 7.2 0 1 1 0-14.5 7.2 7.2 0 0 1 0 14.5" fill="#c2e1ff9A"/><path d="M112.2-353.3a7.3 7.3 0 1 1 0-14.5 7.3 7.3 0 0 1 0 14.5" fill="#fff9A"/><path d="M264.9-43.7a7.3 7.3 0 1 1 0-14.6 7.3 7.3 0 0 1 0 14.6" fill="#005bbb9B"/><path d="M-2.6 18a7.3 7.3 0 1 1 0-14.7 7.3 7.3 0 0 1 0 14.7" fill="#c2e1ff9B"/><path d="M120.7 46.5a7.3 7.3 0 1 1 0-14.6 7.3 7.3 0 0 1 0 14.6" fill="#fff5009C"/><path d="M143-353.6a7.3 7.3 0 1 1 0-14.7 7.3 7.3 0 0 1 0 14.7" fill="#005bbb9C"/><path d="M32.5-347a7.4 7.4 0 1 1 0-14.7 7.4 7.4 0 0 1 0 14.7" fill="#c2e1ff9C"/><path d="M274.4-44a7.4 7.4 0 1 1 0-14.8 7.4 7.4 0 0 1 0 14.8" fill="#fff5009E"/><path d="M89.2-361.6a7.4 7.4 0 1 1 0-14.8 7.4 7.4 0 0 1 0 14.8" fill="#fff5009E"/><path d="M187.5-343.4a7.5 7.5 0 1 1 0-14.9 7.5 7.5 0 0 1 0 14.9" fill="#fff9F"/><path d="M264.8-25.8a7.5 7.5 0 1 1 0-15 7.5 7.5 0 0 1 0 15" fill="#fff9F"/><path d="M142.1 50.2a7.5 7.5 0 1 1 0-15 7.5 7.5 0 0 1 0 15" fill="#c2e1ff9F"/><path d="M305.3-200.2a7.5 7.5 0 1 1 0-15 7.5 7.5 0 0 1 0 15" fill="#c2e1ffA0"/><path d="M134.6-364.6a7.6 7.6 0 1 1 0-15.2 7.6 7.6 0 0 1 0 15.2" fill="#fffA1"/><path d="M108.4 57.8a7.6 7.6 0 1 1 0-15.1 7.6 7.6 0 0 1 0 15.1" fill="#fffA1"/><path d="M312.6-177.7a7.6 7.6 0 1 1 0-15.2 7.6 7.6 0 0 1 0 15.2" fill="#005bbbA2"/><path d="M51.1-363.1a7.6 7.6 0 1 1 0-15.2 7.6 7.6 0 0 1 0 15.2" fill="#c2e1ffA2"/><path d="M118.9 58.8a7.6 7.6 0 1 1 0-15.2 7.6 7.6 0 0 1 0 15.2" fill="#005bbbA2"/><path d="M-34-323.9a7.7 7.7 0 1 1 0-15.3 7.7 7.7 0 0 1 0 15.3" fill="#c2e1ffA3"/><path d="M167.2-360.9a7.7 7.7 0 1 1 0-15.4 7.7 7.7 0 0 1 0 15.4" fill="#fffA4"/><path d="M-115.7-190.9a7.7 7.7 0 1 1 0-15.4 7.7 7.7 0 0 1 0 15.4" fill="#fff500A5"/><path d="M295.8-253.7a7.8 7.8 0 1 1 0-15.6 7.8 7.8 0 0 1 0 15.6" fill="#fffA5"/><path d="M271.7-298.4a7.9 7.9 0 1 1 0-15.9 7.9 7.9 0 0 1 0 15.9" fill="#c2e1ffA9"/><path d="M-87.8-32.4a7.9 7.9 0 1 1 0-15.8 7.9 7.9 0 0 1 0 15.8" fill="#005bbbA9"/><path d="M-123.4-172.9a7.9 7.9 0 1 1 0-15.9 7.9 7.9 0 0 1 0 15.9" fill="#fffA9"/><path d="M219.6-345a8 8 0 1 1 0-15.9 8 8 0 0 1 0 15.9" fill="#c2e1ffAA"/><path d="M-122.5-194.8a8 8 0 1 1 0-16 8 8 0 0 1 0 16" fill="#c2e1ffAB"/><path d="M-105.7-59.1a8 8 0 1 1 0-16 8 8 0 0 1 0 16" fill="#c2e1ffAB"/><path d="M325.7-178a8 8 0 1 1 0-16.1 8 8 0 0 1 0 16.1" fill="#fff500AB"/><path d="M134.6-378.9a8 8 0 1 1 0-16.1 8 8 0 0 1 0 16.1" fill="#005bbbAC"/><path d="M131.2 70.7a8.1 8.1 0 1 1 0-16.1 8.1 8.1 0 0 1 0 16.1" fill="#005bbbAC"/><path d="M-113.6-74.8a8.1 8.1 0 1 1 0-16.2 8.1 8.1 0 0 1 0 16.2" fill="#fffAC"/><path d="M255.5 12.5a8.1 8.1 0 1 1 0-16.2 8.1 8.1 0 0 1 0 16.2" fill="#fff500AD"/><path d="M-50.7 17a8.1 8.1 0 1 1 0-16.2 8.1 8.1 0 0 1 0 16.2" fill="#fffAD"/><path d="M321.6-210.1a8.1 8.1 0 1 1 0-16.2 8.1 8.1 0 0 1 0 16.2" fill="#c2e1ffAD"/><path d="M28.5 63.4a8.1 8.1 0 1 1 0-16.3 8.1 8.1 0 0 1 0 16.3" fill="#fff500AE"/><path d="M17-368.2a8.2 8.2 0 1 1 0-16.3 8.2 8.2 0 0 1 0 16.3" fill="#005bbbAE"/><path d="M144.5 70.9a8.2 8.2 0 1 1 0-16.4 8.2 8.2 0 0 1 0 16.4" fill="#fff500AE"/><path d="M48.3 69.7a8.2 8.2 0 1 1 0-16.3 8.2 8.2 0 0 1 0 16.3" fill="#fff500AF"/><path d="M314.4-237.6a8.2 8.2 0 1 1 0-16.4 8.2 8.2 0 0 1 0 16.4" fill="#c2e1ffAF"/><path d="M245.1 25.1a8.2 8.2 0 1 1 0-16.4 8.2 8.2 0 0 1 0 16.4" fill="#005bbbB0"/><path d="M24.3-372.4a8.2 8.2 0 1 1 0-16.4 8.2 8.2 0 0 1 0 16.4" fill="#c2e1ffB0"/><path d="M240.4 29.6a8.3 8.3 0 1 1 0-16.5 8.3 8.3 0 0 1 0 16.5" fill="#c2e1ffB0"/><path d="M240.1 31.4a8.3 8.3 0 1 1 0-16.7 8.3 8.3 0 0 1 0 16.7" fill="#fffB2"/><path d="M-127.4-104.4a8.4 8.4 0 1 1 0-16.7 8.4 8.4 0 0 1 0 16.7" fill="#fffB2"/><path d="M-104.5-268.3a8.5 8.5 0 1 1 0-17 8.5 8.5 0 0 1 0 17" fill="#c2e1ffB5"/><path d="M-14.7-359a8.6 8.6 0 1 1 0-17.1 8.6 8.6 0 0 1 0 17.1" fill="#005bbbB7"/><path d="M85.1-388.5a8.6 8.6 0 1 1 0-17.1 8.6 8.6 0 0 1 0 17.1" fill="#fffB7"/><path d="M230.4-349.8a8.6 8.6 0 1 1 0-17.2 8.6 8.6 0 0 1 0 17.2" fill="#fffB8"/><path d="M242.3 33.8a8.6 8.6 0 1 1 0-17.3 8.6 8.6 0 0 1 0 17.3" fill="#fff500B8"/><path d="M-15.3-359.5a8.7 8.7 0 1 1 0-17.4 8.7 8.7 0 0 1 0 17.4" fill="#c2e1ffBA"/><path d="M-135.8-166.7a8.8 8.8 0 1 1 0-17.6 8.8 8.8 0 0 1 0 17.6" fill="#005bbbBC"/><path d="M-9.9-362.8a8.8 8.8 0 1 1 0-17.6 8.8 8.8 0 0 1 0 17.6" fill="#005bbbBD"/><path d="M220.9-356.6a8.8 8.8 0 1 1 0-17.7 8.8 8.8 0 0 1 0 17.7" fill="#fff500BD"/><path d="M331-104.3a8.9 8.9 0 1 1 0-17.7 8.9 8.9 0 0 1 0 17.7" fill="#c2e1ffBE"/><path d="M248.2 30.3a8.9 8.9 0 1 1 0-17.7 8.9 8.9 0 0 1 0 17.7" fill="#fffBE"/><path d="M-43.1 34.4a8.9 8.9 0 1 1 0-17.8 8.9 8.9 0 0 1 0 17.8" fill="#005bbbBE"/><path d="M-107.6-265.6a9 9 0 1 1 0-18.1 9 9 0 0 1 0 18.1" fill="#005bbbC1"/><path d="M261.4-325.5a9 9 0 1 1 0-18.1 9 9 0 0 1 0 18.1" fill="#fff500C1"/><path d="M326.7-88.7a9.1 9.1 0 1 1 0-18.1 9.1 9.1 0 0 1 0 18.1" fill="#c2e1ffC2"/><path d="M308.8-262.6a9.1 9.1 0 1 1 0-18.2 9.1 9.1 0 0 1 0 18.2" fill="#fff500C2"/><path d="M133.5-386.5a9.1 9.1 0 1 1 0-18.2 9.1 9.1 0 0 1 0 18.2" fill="#fff500C3"/><path d="M332.9-178.6a9.2 9.2 0 1 1 0-18.5 9.2 9.2 0 0 1 0 18.5" fill="#fffC6"/><path d="M299.5-30.9a9.3 9.3 0 1 1 0-18.5 9.3 9.3 0 0 1 0 18.5" fill="#c2e1ffC6"/><path d="M325.2-89.9a9.3 9.3 0 1 1 0-18.6 9.3 9.3 0 0 1 0 18.6" fill="#fff500C7"/><path d="M-115.6-243.7a9.3 9.3 0 1 1 0-18.6 9.3 9.3 0 0 1 0 18.6" fill="#c2e1ffC7"/><path d="M41.5-379.2a9.3 9.3 0 1 1 0-18.6 9.3 9.3 0 0 1 0 18.6" fill="#fff500C8"/><path d="M178.8-370a9.5 9.5 0 1 1 0-18.9 9.5 9.5 0 0 1 0 18.9" fill="#005bbbCB"/><path d="M15.2-366.9a9.5 9.5 0 1 1 0-19.1 9.5 9.5 0 0 1 0 19.1" fill="#005bbbCC"/><path d="M194.5 56a9.6 9.6 0 1 1 0-19.1 9.6 9.6 0 0 1 0 19.1" fill="#005bbbCD"/><path d="M-117.1-81.6a9.6 9.6 0 1 1 0-19.2 9.6 9.6 0 0 1 0 19.2" fill="#fffCE"/><path d="M-39.1-332.5a9.7 9.7 0 1 1 0-19.3 9.7 9.7 0 0 1 0 19.3" fill="#c2e1ffCF"/><path d="M-118.2-215.4a9.7 9.7 0 1 1 0-19.3 9.7 9.7 0 0 1 0 19.3" fill="#005bbbD0"/><path d="M229.2 33.1a9.7 9.7 0 1 1 0-19.4 9.7 9.7 0 0 1 0 19.4" fill="#fffD0"/><path d="M112.6-378.7a9.7 9.7 0 1 1 0-19.4 9.7 9.7 0 0 1 0 19.4" fill="#005bbbD0"/><path d="M223.2-342.1a9.7 9.7 0 1 1 0-19.5 9.7 9.7 0 0 1 0 19.5" fill="#005bbbD1"/><path d="M91.4 72.3a9.8 9.8 0 1 1 0-19.5 9.8 9.8 0 0 1 0 19.5" fill="#fffD1"/><path d="M188.8-359.6a9.8 9.8 0 1 1 0-19.5 9.8 9.8 0 0 1 0 19.5" fill="#005bbbD1"/><path d="M-121-110.8a9.8 9.8 0 1 1 0-19.5 9.8 9.8 0 0 1 0 19.5" fill="#fffD1"/><path d="M-24.5 33.4a9.8 9.8 0 1 1 0-19.6 9.8 9.8 0 0 1 0 19.6" fill="#c2e1ffD2"/><path d="M-11.6-345.2a9.9 9.9 0 1 1 0-19.7 9.9 9.9 0 0 1 0 19.7" fill="#005bbbD3"/><path d="M-106.6-73.8a9.9 9.9 0 1 1 0-19.8 9.9 9.9 0 0 1 0 19.8" fill="#c2e1ffD4"/><path d="M-73.9-16.4a9.9 9.9 0 1 1 0-19.8 9.9 9.9 0 0 1 0 19.8" fill="#c2e1ffD5"/><path d="M-18.7 33.5a9.9 9.9 0 1 1 0-19.9 9.9 9.9 0 0 1 0 19.9" fill="#fffD5"/><path d="M248.3 10.2a9.9 9.9 0 1 1 0-19.9 9.9 9.9 0 0 1 0 19.9" fill="#fffD5"/><path d="M-114.1-103.2a9.9 9.9 0 1 1 0-19.9 9.9 9.9 0 0 1 0 19.9" fill="#fff500D5"/><path d="M281.7-273.5a10 10 0 1 1 0-20 10 10 0 0 1 0 20" fill="#005bbbD6"/><path d="M1.5-347.2a10 10 0 1 1 0-20 10 10 0 0 1 0 20" fill="#005bbbD6"/><path d="M227.3 23.5a10 10 0 1 1 0-20 10 10 0 0 1 0 20" fill="#005bbbD7"/><path d="M-61.7-297a10 10 0 1 1 0-20.1 10 10 0 0 1 0 20.1" fill="#c2e1ffD7"/><path d="M-7.6-340.5a10 10 0 1 1 0-20.1 10 10 0 0 1 0 20.1" fill="#fffD7"/><path d="M8.2-347.6a10.1 10.1 0 1 1 0-20.2 10.1 10.1 0 0 1 0 20.2" fill="#005bbbD8"/><path d="M-112.1-141.8a10.2 10.2 0 1 1 0-20.3 10.2 10.2 0 0 1 0 20.3" fill="#fff500DA"/><path d="M-28.9 15.6a10.2 10.2 0 1 1 0-20.4 10.2 10.2 0 0 1 0 20.4" fill="#fff500DA"/><path d="M-70.9-28.2a10.2 10.2 0 1 1 0-20.4 10.2 10.2 0 0 1 0 20.4" fill="#fffDB"/><path d="M282.8-46.9a10.2 10.2 0 1 1 0-20.4 10.2 10.2 0 0 1 0 20.4" fill="#005bbbDB"/><path d="M-40.3-306.1a10.3 10.3 0 1 1 0-20.5 10.3 10.3 0 0 1 0 20.5" fill="#005bbbDC"/><path d="M-67.9-272.4a10.3 10.3 0 1 1 0-20.6 10.3 10.3 0 0 1 0 20.6" fill="#c2e1ffDD"/><path d="M237.9-5a10.4 10.4 0 1 1 0-20.8 10.4 10.4 0 0 1 0 20.8" fill="#fff500DF"/><path d="M-101.3-159.8a10.4 10.4 0 1 1 0-20.8 10.4 10.4 0 0 1 0 20.8" fill="#fffDF"/><path d="M301.4-152.1a10.4 10.4 0 1 1 0-20.8 10.4 10.4 0 0 1 0 20.8" fill="#fffDF"/><path d="M-94.2-199.8a10.4 10.4 0 1 1 0-20.9 10.4 10.4 0 0 1 0 20.9" fill="#fff500E0"/><path d="M88 46.7a10.4 10.4 0 1 1 0-20.9 10.4 10.4 0 0 1 0 20.9" fill="#c2e1ffE0"/><path d="M-74.6-246.5a10.5 10.5 0 1 1 0-20.9 10.5 10.5 0 0 1 0 20.9" fill="#005bbbE1"/><path d="M209.9 6.6a10.6 10.6 0 1 1 0-21.2 10.6 10.6 0 0 1 0 21.2" fill="#fff500E3"/><path d="M-91.6-150.1a10.6 10.6 0 1 1 0-21.2 10.6 10.6 0 0 1 0 21.2" fill="#fff500E4"/><path d="M204.4-312.3a10.6 10.6 0 1 1 0-21.2 10.6 10.6 0 0 1 0 21.2" fill="#fffE4"/><path d="M105.8-342.8a10.6 10.6 0 1 1 0-21.2 10.6 10.6 0 0 1 0 21.2" fill="#c2e1ffE4"/><path d="M281.3-190a10.7 10.7 0 1 1 0-21.3 10.7 10.7 0 0 1 0 21.3" fill="#c2e1ffE6"/><path d="M35.9-320.4a10.8 10.8 0 1 1 0-21.5 10.8 10.8 0 0 1 0 21.5" fill="#fff500E7"/><path d="M109.5-330.3a10.8 10.8 0 1 1 0-21.6 10.8 10.8 0 0 1 0 21.6" fill="#005bbbE8"/><path d="M249.3-242a10.9 10.9 0 1 1 0-21.7 10.9 10.9 0 0 1 0 21.7" fill="#fffE9"/><path d="M16.2 0.2a10.9 10.9 0 1 1 0-21.8 10.9 10.9 0 0 1 0 21.8" fill="#fff500EA"/><path d="M119.1-321.2a10.9 10.9 0 1 1 0-21.8 10.9 10.9 0 0 1 0 21.8" fill="#fffEA"/><path d="M-45-64.3a10.9 10.9 0 1 1 0-21.8 10.9 10.9 0 0 1 0 21.8" fill="#005bbbEB"/><path d="M167.6-304.8a10.9 10.9 0 1 1 0-21.9 10.9 10.9 0 0 1 0 21.9" fill="#fff500EB"/><path d="M-40.7-62.8a11 11 0 1 1 0-21.9 11 11 0 0 1 0 21.9" fill="#c2e1ffEC"/><path d="M-21.2-39.1a11 11 0 1 1 0-21.9 11 11 0 0 1 0 21.9" fill="#fff500EC"/><path d="M-64.2-139.2a11 11 0 1 1 0-21.9 11 11 0 0 1 0 21.9" fill="#c2e1ffEC"/><path d="M-5-273a11 11 0 1 1 0-22 11 11 0 0 1 0 22" fill="#fffED"/><path d="M230.7-244.8a11 11 0 1 1 0-22 11 11 0 0 1 0 22" fill="#c2e1ffED"/><path d="M0.3-272.1a11.1 11.1 0 1 1 0-22.1 11.1 11.1 0 0 1 0 22.1" fill="#fffEE"/><path d="M253.6-140.6a11.1 11.1 0 1 1 0-22.2 11.1 11.1 0 0 1 0 22.2" fill="#c2e1ffEF"/><path d="M174.3-19.1a11.1 11.1 0 1 1 0-22.2 11.1 11.1 0 0 1 0 22.2" fill="#fff500EF"/><path d="M-39.8-125.4a11.2 11.2 0 1 1 0-22.4 11.2 11.2 0 0 1 0 22.4" fill="#005bbbF1"/><path d="M33.6-25.9a11.2 11.2 0 1 1 0-22.4 11.2 11.2 0 0 1 0 22.4" fill="#fffF1"/><path d="M-28.4-99.7a11.3 11.3 0 1 1 0-22.5 11.3 11.3 0 0 1 0 22.5" fill="#fffF2"/><path d="M160.4-274.4a11.3 11.3 0 1 1 0-22.6 11.3 11.3 0 0 1 0 22.6" fill="#fffF2"/><path d="M18.3-41.6a11.3 11.3 0 1 1 0-22.6 11.3 11.3 0 0 1 0 22.6" fill="#c2e1ffF3"/><path d="M184.9-44.4a11.3 11.3 0 1 1 0-22.6 11.3 11.3 0 0 1 0 22.6" fill="#005bbbF3"/><path d="M-34.8-168.8a11.3 11.3 0 1 1 0-22.6 11.3 11.3 0 0 1 0 22.6" fill="#005bbbF3"/><path d="M214.8-83.6a11.3 11.3 0 1 1 0-22.6 11.3 11.3 0 0 1 0 22.6" fill="#c2e1ffF3"/><path d="M-25.2-195.3a11.3 11.3 0 1 1 0-22.6 11.3 11.3 0 0 1 0 22.6" fill="#005bbbF3"/><path d="M56-34.8a11.4 11.4 0 1 1 0-22.8 11.4 11.4 0 0 1 0 22.8" fill="#005bbbF5"/><path d="M86.7-29.5a11.4 11.4 0 1 1 0-22.8 11.4 11.4 0 0 1 0 22.8" fill="#fffF5"/><path d="M-16.4-164.6a11.4 11.4 0 1 1 0-22.8 11.4 11.4 0 0 1 0 22.8" fill="#fff500F6"/><path d="M-12.5-181.1a11.4 11.4 0 1 1 0-22.8 11.4 11.4 0 0 1 0 22.8" fill="#fffF6"/><path d="M13.6-83a11.5 11.5 0 1 1 0-23 11.5 11.5 0 0 1 0 23" fill="#005bbbF7"/><path d="M-9.4-161.6a11.5 11.5 0 1 1 0-23 11.5 11.5 0 0 1 0 23" fill="#fff500F7"/><path d="M108.6-49.4a11.5 11.5 0 1 1 0-23 11.5 11.5 0 0 1 0 23" fill="#005bbbF8"/><path d="M5.5-188.8a11.5 11.5 0 1 1 0-23.1 11.5 11.5 0 0 1 0 23.1" fill="#fffF8"/><path d="M187.9-132.2a11.6 11.6 0 1 1 0-23.2 11.6 11.6 0 0 1 0 23.2" fill="#fffFA"/><path d="M76.9-75.3a11.6 11.6 0 1 1 0-23.3 11.6 11.6 0 0 1 0 23.3" fill="#fffFB"/><path d="M22.9-136.2a11.6 11.6 0 1 1 0-23.3 11.6 11.6 0 0 1 0 23.3" fill="#fffFB"/><path d="M166.5-191.5a11.6 11.6 0 1 1 0-23.3 11.6 11.6 0 0 1 0 23.3" fill="#c2e1ffFB"/><path d="M31-142.9a11.7 11.7 0 1 1 0-23.4 11.7 11.7 0 0 1 0 23.4" fill="#005bbbFC"/><path d="M58.8-203a11.7 11.7 0 1 1 0-23.4 11.7 11.7 0 0 1 0 23.4" fill="#c2e1ffFC"/><path d="M85.2-92.5a11.7 11.7 0 1 1 0-23.5 11.7 11.7 0 0 1 0 23.5" fill="#005bbbFC"/></g></svg>