<svg width="1200" height="675" viewBox="-500 -500 1200 675" xmlns="http://www.w3.org/2000/svg"><path d="M-500-500h1200v675h-1200z" fill="#000"/><style>.sparkles path{stroke-linecap:round; stroke-width:1}</style><g class="sparkles"><path d="M100-162.5l11.6-12.8" stroke="#fff32"/><path d="M100-162.5l-42-0.9" stroke="#c2e1ff32"/><path d="M100-162.5l32.4-31.9" stroke="#fff50032"/><path d="M100-162.5l25.2 37.9" stroke="#fff32"/><path d="M100-162.5l8.1-83.5" stroke="#fff35"/><path d="M100-162.5l73 43.3" stroke="#fff50035"/><path d="M100-162.5l-79.1-57.7" stroke="#c2e1ff36"/><path d="M100-162.5l-41.6-105.7" stroke="#fff50038"/><path d="M100-162.5l-111.8-26.3" stroke="#fff38"/><path d="M100-162.5l-117.3 8.7" stroke="#005bbb38"/><path d="M100-162.5l10.5-123.5" stroke="#c2e1ff39"/><path d="M100-162.5l49.8-115.5" stroke="#fff50039"/><path d="M100-162.5l-27.2 128.8" stroke="#005bbb3A"/><path d="M100-162.5l-40.8 131.4" stroke="#fff5003B"/><path d="M100-162.5l38.8-136.2" stroke="#fff5003B"/><path d="M100-162.5l-38.1 137" stroke="#fff5003C"/><path d="M100-162.5l-101.6 109.3" stroke="#fff3D"/><path d="M100-162.5l148.9 17.9" stroke="#fff5003D"/><path d="M100-162.5l11.1 155.6" stroke="#fff5003E"/><path d="M100-162.5l154-76" stroke="#005bbb41"/><path d="M100-162.5l-32.7 169.3" stroke="#fff50041"/><path d="M100-162.5l7.2-183.4" stroke="#fff44"/><path d="M100-162.5l-109.7-148.5" stroke="#005bbb44"/><path d="M100-162.5l-80.6 168.7" stroke="#fff45"/><path d="M100-162.5l-145.8-119.3" stroke="#fff45"/><path d="M100-162.5l-188.2-28.4" stroke="#fff46"/><path d="M100-162.5l111.5-155" stroke="#005bbb46"/><path d="M100-162.5l187.2-53.8" stroke="#fff47"/><path d="M100-162.5l56 188.3" stroke="#fff48"/><path d="M100-162.5l59.3 187.6" stroke="#c2e1ff48"/><path d="M100-162.5l54-189.7" stroke="#fff48"/><path d="M100-162.5l-104.8-168.2" stroke="#005bbb48"/><path d="M100-162.5l-192.8-47.2" stroke="#005bbb48"/><path d="M100-162.5l-197.5 25.5" stroke="#c2e1ff49"/><path d="M100-162.5l-41.8-198.9" stroke="#005bbb4A"/><path d="M100-162.5l-188.5 76.5" stroke="#fff5004A"/><path d="M100-162.5l199.1-51.5" stroke="#005bbb4B"/><path d="M100-162.5l166.6-122.3" stroke="#c2e1ff4B"/><path d="M100-162.5l-206.7-5.2" stroke="#005bbb4B"/><path d="M100-162.5l188-87.1" stroke="#c2e1ff4B"/><path d="M100-162.5l206.9-20.6" stroke="#fff4C"/><path d="M100-162.5l210-2.3" stroke="#c2e1ff4D"/><path d="M100-162.5l19.3 209.6" stroke="#c2e1ff4D"/><path d="M100-162.5l-181.4 107.5" stroke="#fff5004D"/><path d="M100-162.5l-106.2-182.2" stroke="#005bbb4D"/><path d="M100-162.5l-25.7 209.5" stroke="#fff4D"/><path d="M100-162.5l-178.9-117.1" stroke="#fff5004E"/><path d="M100-162.5l-60.5-212.9" stroke="#005bbb52"/><path d="M100-162.5l76.7 208.3" stroke="#c2e1ff52"/><path d="M100-162.5l36.8-219.5" stroke="#fff50053"/><path d="M100-162.5l-185.6 124.3" stroke="#fff50053"/><path d="M100-162.5l-186.3-123.6" stroke="#c2e1ff53"/><path d="M100-162.5l181.9-131.5" stroke="#fff50054"/><path d="M100-162.5l126.3-186.4" stroke="#005bbb54"/><path d="M100-162.5l-179.7-135.9" stroke="#c2e1ff54"/><path d="M100-162.5l128.2 186.3" stroke="#fff55"/><path d="M100-162.5l40.3-223.1" stroke="#c2e1ff55"/><path d="M100-162.5l-172.4 147.4" stroke="#005bbb55"/><path d="M100-162.5l-95.1 206" stroke="#005bbb56"/><path d="M100-162.5l29.3 226.7" stroke="#c2e1ff57"/><path d="M100-162.5l-18.6-228" stroke="#fff57"/><path d="M100-162.5l-121 194.3" stroke="#fff50057"/><path d="M100-162.5l-152.4 171.2" stroke="#c2e1ff57"/><path d="M100-162.5l-175.9 147.4" stroke="#fff58"/><path d="M100-162.5l-127.7 190.9" stroke="#005bbb58"/><path d="M100-162.5l47.7-224.7" stroke="#fff50058"/><path d="M100-162.5l229.3 18.9" stroke="#c2e1ff58"/><path d="M100-162.5l228.4 27.7" stroke="#005bbb58"/><path d="M100-162.5l-213.6-86" stroke="#005bbb58"/><path d="M100-162.5l-210.7 94" stroke="#005bbb59"/><path d="M100-162.5l-226.7-43.8" stroke="#fff50059"/><path d="M100-162.5l-104.5 207.1" stroke="#c2e1ff5A"/><path d="M100-162.5l-173-154.6" stroke="#c2e1ff5A"/><path d="M100-162.5l-43.3-228.6" stroke="#005bbb5B"/><path d="M100-162.5l231.6-22.8" stroke="#fff5005B"/><path d="M100-162.5l220.8 74.5" stroke="#fff5005B"/><path d="M100-162.5l-224.4 64.3" stroke="#fff5005C"/><path d="M100-162.5l-94.9 213.9" stroke="#005bbb5D"/><path d="M100-162.5l212.5 99.1" stroke="#c2e1ff5D"/><path d="M100-162.5l186.1 142.9" stroke="#c2e1ff5E"/><path d="M100-162.5l-172.5 159.2" stroke="#005bbb5E"/><path d="M100-162.5l214.1 96.3" stroke="#fff5E"/><path d="M100-162.5l150.5-180.4" stroke="#fff5005E"/><path d="M100-162.5l233.5 31.8" stroke="#c2e1ff60"/><path d="M100-162.5l-126.5-199.4" stroke="#fff62"/><path d="M100-162.5l-171.6 162.2" stroke="#005bbb62"/><path d="M100-162.5l-132.3-195.6" stroke="#fff62"/><path d="M100-162.5l68-226.2" stroke="#c2e1ff62"/><path d="M100-162.5l-236 10.8" stroke="#fff50063"/><path d="M100-162.5l151.7 181.1" stroke="#c2e1ff64"/><path d="M100-162.5l-13.5 235.8" stroke="#fff64"/><path d="M100-162.5l71.6-225.1" stroke="#005bbb64"/><path d="M100-162.5l224-75" stroke="#fff50065"/><path d="M100-162.5l236.2 0" stroke="#005bbb65"/><path d="M100-162.5l-72.3 224.6" stroke="#fff66"/><path d="M100-162.5l-79 222" stroke="#fff50067"/><path d="M100-162.5l122.8-201" stroke="#fff67"/><path d="M100-162.5l97 214" stroke="#c2e1ff69"/><path d="M100-162.5l-3.6-234.6" stroke="#fff69"/><path d="M100-162.5l20.4 233.1" stroke="#c2e1ff6A"/><path d="M100-162.5l225.3 61.3" stroke="#fff6B"/><path d="M100-162.5l-41.8 229.3" stroke="#fff5006C"/><path d="M100-162.5l-171.3 157.9" stroke="#c2e1ff6C"/><path d="M100-162.5l39.9-229.4" stroke="#fff6C"/><path d="M100-162.5l-231 28.7" stroke="#005bbb6C"/><path d="M100-162.5l-86.8 215.5" stroke="#fff6D"/><path d="M100-162.5l-97.7 207.1" stroke="#fff70"/><path d="M100-162.5l120.8-193.9" stroke="#fff50070"/><path d="M100-162.5l2.8-227.9" stroke="#fff50071"/><path d="M100-162.5l151.5 169.9" stroke="#c2e1ff71"/><path d="M100-162.5l-225.3 30.6" stroke="#c2e1ff71"/><path d="M100-162.5l123.2 191.1" stroke="#c2e1ff71"/><path d="M100-162.5l169.5 150.8" stroke="#005bbb71"/><path d="M100-162.5l198.2 109.6" stroke="#c2e1ff72"/><path d="M100-162.5l-91.4 205.8" stroke="#fff50073"/><path d="M100-162.5l122.5 186.5" stroke="#fff74"/><path d="M100-162.5l56.3-214.9" stroke="#fff75"/><path d="M100-162.5l205.7-83.7" stroke="#fff50075"/><path d="M100-162.5l-123.8 184.2" stroke="#fff50075"/><path d="M100-162.5l88.5 202.5" stroke="#fff50075"/><path d="M100-162.5l67.1-209.9" stroke="#fff50076"/><path d="M100-162.5l58.2-211.8" stroke="#c2e1ff76"/><path d="M100-162.5l-25.8 217.6" stroke="#005bbb76"/><path d="M100-162.5l-127-177.7" stroke="#005bbb77"/><path d="M100-162.5l197-93.2" stroke="#005bbb77"/><path d="M100-162.5l-140-166.8" stroke="#fff77"/><path d="M100-162.5l-78.3 203.2" stroke="#fff50077"/><path d="M100-162.5l-77.9-200" stroke="#c2e1ff78"/><path d="M100-162.5l-189.5 100" stroke="#005bbb79"/><path d="M100-162.5l-19 212.5" stroke="#fff50079"/><path d="M100-162.5l128.7 167.2" stroke="#c2e1ff7A"/><path d="M100-162.5l131.7-164" stroke="#c2e1ff7A"/><path d="M100-162.5l-160.9-133.8" stroke="#c2e1ff7B"/><path d="M100-162.5l190.2 85.1" stroke="#fff5007B"/><path d="M100-162.5l181.3-102.4" stroke="#005bbb7B"/><path d="M100-162.5l207.2-12.4" stroke="#c2e1ff7B"/><path d="M100-162.5l-23.3-203.1" stroke="#005bbb7D"/><path d="M100-162.5l197.5-19.8" stroke="#fff5007F"/><path d="M100-162.5l181.5 79.4" stroke="#c2e1ff7F"/><path d="M100-162.5l-184.7 71" stroke="#005bbb7F"/><path d="M100-162.5l-165.4 108.4" stroke="#fff7F"/><path d="M100-162.5l130-148.7" stroke="#fff5007F"/><path d="M100-162.5l-58.1 187.5" stroke="#005bbb7F"/><path d="M100-162.5l-149.3-125.6" stroke="#c2e1ff80"/><path d="M100-162.5l-168.9 96.3" stroke="#fff50080"/><path d="M100-162.5l160.8-108.1" stroke="#fff50080"/><path d="M100-162.5l181.1-65.2" stroke="#fff50080"/><path d="M100-162.5l150.9 113.3" stroke="#fff82"/><path d="M100-162.5l-180.4-53.6" stroke="#fff82"/><path d="M100-162.5l129.9-132.8" stroke="#fff82"/><path d="M100-162.5l-8.3-185.4" stroke="#fff82"/><path d="M100-162.5l179.1 47.5" stroke="#c2e1ff83"/><path d="M100-162.5l-169.2 75.5" stroke="#fff83"/><path d="M100-162.5l177.5 14.5" stroke="#fff84"/><path d="M100-162.5l-60.2 167.5" stroke="#fff84"/><path d="M100-162.5l-173.2-21.7" stroke="#005bbb85"/><path d="M100-162.5l-63.7-161.4" stroke="#fff85"/><path d="M100-162.5l155 77.8" stroke="#005bbb85"/><path d="M100-162.5l-124.3-110.2" stroke="#fff50087"/><path d="M100-162.5l-103.4-127.8" stroke="#fff50087"/><path d="M100-162.5l-9.9-161.4" stroke="#fff50088"/><path d="M100-162.5l50-152.3" stroke="#fff50088"/><path d="M100-162.5l71.7-141.9" stroke="#fff88"/><path d="M100-162.5l129.9-88.9" stroke="#c2e1ff89"/><path d="M100-162.5l-149.7-48.3" stroke="#fff50089"/><path d="M100-162.5l134.4-81.7" stroke="#fff50089"/><path d="M100-162.5l98-122.9" stroke="#c2e1ff89"/><path d="M100-162.5l152.5 23.8" stroke="#005bbb89"/><path d="M100-162.5l31.8 143.9" stroke="#005bbb8B"/><path d="M100-162.5l-72.9-119.9" stroke="#fff5008C"/><path d="M100-162.5l108.5 85.8" stroke="#005bbb8C"/><path d="M100-162.5l-131.5-37.7" stroke="#fff8C"/><path d="M100-162.5l-110.9-75.5" stroke="#fff8D"/><path d="M100-162.5l115.2-56.3" stroke="#fff8D"/><path d="M100-162.5l-118.6-24.7" stroke="#c2e1ff8E"/><path d="M100-162.5l72.7 87.6" stroke="#fff5008F"/><path d="M100-162.5l89.1 68.4" stroke="#fff8F"/><path d="M100-162.5l-78.3 61.5" stroke="#c2e1ff91"/><path d="M100-162.5l44-23.9" stroke="#005bbb94"/><path d="M100-162.5l-32.8 34.5" stroke="#c2e1ff94"/><path d="M100-162.5l22.7-32.1" stroke="#c2e1ff95"/></g><g class="sparcs"><path d="M111.6-169.4a5.9 5.9 0 1 1 0-11.8 5.9 5.9 0 0 1 0 11.8" fill="#005bbb7D"/><path d="M58-157.5a6 6 0 1 1 0-11.9 6 6 0 0 1 0 11.9" fill="#005bbb7E"/><path d="M132.4-188.4a6 6 0 1 1 0-12 6 6 0 0 1 0 12" fill="#fff5007E"/><path d="M125.2-118.6a6 6 0 1 1 0-11.9 6 6 0 0 1 0 11.9" fill="#fff5007E"/><path d="M108.1-239.9a6.1 6.1 0 1 1 0-12.2 6.1 6.1 0 0 1 0 12.2" fill="#c2e1ff81"/><path d="M173-113.1a6.1 6.1 0 1 1 0-12.2 6.1 6.1 0 0 1 0 12.2" fill="#fff50081"/><path d="M20.9-214a6.2 6.2 0 1 1 0-12.4 6.2 6.2 0 0 1 0 12.4" fill="#c2e1ff82"/><path d="M58.4-261.9a6.3 6.3 0 1 1 0-12.5 6.3 6.3 0 0 1 0 12.5" fill="#fff50085"/><path d="M-11.8-182.5a6.3 6.3 0 1 1 0-12.6 6.3 6.3 0 0 1 0 12.6" fill="#fff85"/><path d="M-17.3-147.5a6.3 6.3 0 1 1 0-12.6 6.3 6.3 0 0 1 0 12.6" fill="#fff50085"/><path d="M110.5-279.7a6.3 6.3 0 1 1 0-12.7 6.3 6.3 0 0 1 0 12.7" fill="#005bbb86"/><path d="M149.8-271.6a6.4 6.4 0 1 1 0-12.7 6.4 6.4 0 0 1 0 12.7" fill="#fff86"/><path d="M72.8-27.2a6.4 6.4 0 1 1 0-12.9 6.4 6.4 0 0 1 0 12.9" fill="#fff50088"/><path d="M59.2-24.6a6.5 6.5 0 1 1 0-12.9 6.5 6.5 0 0 1 0 12.9" fill="#fff50089"/><path d="M138.8-292.2a6.5 6.5 0 1 1 0-13 6.5 6.5 0 0 1 0 13" fill="#c2e1ff89"/><path d="M61.9-19a6.5 6.5 0 1 1 0-13 6.5 6.5 0 0 1 0 13" fill="#c2e1ff8A"/><path d="M-1.6-46.6a6.6 6.6 0 1 1 0-13.1 6.6 6.6 0 0 1 0 13.1" fill="#fff8B"/><path d="M248.9-138a6.6 6.6 0 1 1 0-13.1 6.6 6.6 0 0 1 0 13.1" fill="#005bbb8B"/><path d="M111.1-0.3a6.6 6.6 0 1 1 0-13.3 6.6 6.6 0 0 1 0 13.3" fill="#005bbb8D"/><path d="M254-231.6a6.8 6.8 0 1 1 0-13.7 6.8 6.8 0 0 1 0 13.7" fill="#fff50091"/><path d="M67.3 13.6a6.8 6.8 0 1 1 0-13.6 6.8 6.8 0 0 1 0 13.6" fill="#fff50091"/><path d="M107.2-338.9a7 7 0 1 1 0-14 7 7 0 0 1 0 14" fill="#fff50095"/><path d="M-9.7-304a7 7 0 1 1 0-14.1 7 7 0 0 1 0 14.1" fill="#005bbb95"/><path d="M19.4 13.2a7.1 7.1 0 1 1 0-14.1 7.1 7.1 0 0 1 0 14.1" fill="#005bbb96"/><path d="M-45.8-274.7a7.1 7.1 0 1 1 0-14.2 7.1 7.1 0 0 1 0 14.2" fill="#c2e1ff96"/><path d="M-88.2-183.8a7.1 7.1 0 1 1 0-14.2 7.1 7.1 0 0 1 0 14.2" fill="#c2e1ff97"/><path d="M211.5-310.4a7.1 7.1 0 1 1 0-14.2 7.1 7.1 0 0 1 0 14.2" fill="#c2e1ff97"/><path d="M287.2-209.1a7.2 7.2 0 1 1 0-14.3 7.2 7.2 0 0 1 0 14.3" fill="#005bbb99"/><path d="M156 33a7.2 7.2 0 1 1 0-14.5 7.2 7.2 0 0 1 0 14.5" fill="#005bbb99"/><path d="M159.3 32.3a7.2 7.2 0 1 1 0-14.4 7.2 7.2 0 0 1 0 14.4" fill="#c2e1ff9A"/><path d="M154-345a7.2 7.2 0 1 1 0-14.5 7.2 7.2 0 0 1 0 14.5" fill="#005bbb9A"/><path d="M-4.8-323.4a7.3 7.3 0 1 1 0-14.5 7.3 7.3 0 0 1 0 14.5" fill="#fff9A"/><path d="M-92.8-202.4a7.3 7.3 0 1 1 0-14.5 7.3 7.3 0 0 1 0 14.5" fill="#c2e1ff9A"/><path d="M-97.5-129.7a7.3 7.3 0 1 1 0-14.6 7.3 7.3 0 0 1 0 14.6" fill="#c2e1ff9B"/><path d="M58.2-354a7.4 7.4 0 1 1 0-14.8 7.4 7.4 0 0 1 0 14.8" fill="#005bbb9C"/><path d="M-88.5-78.6a7.4 7.4 0 1 1 0-14.7 7.4 7.4 0 0 1 0 14.7" fill="#fff5009C"/><path d="M299.1-206.6a7.4 7.4 0 1 1 0-14.8 7.4 7.4 0 0 1 0 14.8" fill="#fff5009E"/><path d="M266.6-277.4a7.4 7.4 0 1 1 0-14.9 7.4 7.4 0 0 1 0 14.9" fill="#c2e1ff9E"/><path d="M-106.7-160.2a7.4 7.4 0 1 1 0-14.9 7.4 7.4 0 0 1 0 14.9" fill="#005bbb9E"/><path d="M288-242.2a7.4 7.4 0 1 1 0-14.8 7.4 7.4 0 0 1 0 14.8" fill="#005bbb9E"/><path d="M306.9-175.7a7.5 7.5 0 1 1 0-14.9 7.5 7.5 0 0 1 0 14.9" fill="#fff5009F"/><path d="M310-157.3a7.5 7.5 0 1 1 0-15 7.5 7.5 0 0 1 0 15" fill="#c2e1ffA0"/><path d="M119.3 54.7a7.5 7.5 0 1 1 0-15.1 7.5 7.5 0 0 1 0 15.1" fill="#fffA0"/><path d="M-81.4-47.5a7.5 7.5 0 1 1 0-15.1 7.5 7.5 0 0 1 0 15.1" fill="#005bbbA0"/><path d="M-6.2-337.1a7.5 7.5 0 1 1 0-15.1 7.5 7.5 0 0 1 0 15.1" fill="#005bbbA0"/><path d="M74.3 54.5a7.5 7.5 0 1 1 0-15.1 7.5 7.5 0 0 1 0 15.1" fill="#fff500A0"/><path d="M-78.9-272a7.6 7.6 0 1 1 0-15.2 7.6 7.6 0 0 1 0 15.2" fill="#fff500A2"/><path d="M39.5-367.5a7.8 7.8 0 1 1 0-15.7 7.8 7.8 0 0 1 0 15.7" fill="#005bbbA7"/><path d="M176.7 53.6a7.8 7.8 0 1 1 0-15.7 7.8 7.8 0 0 1 0 15.7" fill="#005bbbA7"/><path d="M136.8-374.1a7.9 7.9 0 1 1 0-15.8 7.9 7.9 0 0 1 0 15.8" fill="#005bbbA8"/><path d="M-85.6-30.3a7.9 7.9 0 1 1 0-15.8 7.9 7.9 0 0 1 0 15.8" fill="#fffA8"/><path d="M-86.3-278.2a7.9 7.9 0 1 1 0-15.8 7.9 7.9 0 0 1 0 15.8" fill="#fff500A8"/><path d="M281.9-286.1a7.9 7.9 0 1 1 0-15.9 7.9 7.9 0 0 1 0 15.9" fill="#c2e1ffA9"/><path d="M226.3-341a8 8 0 1 1 0-15.9 8 8 0 0 1 0 15.9" fill="#fffAA"/><path d="M-79.7-290.4a8 8 0 1 1 0-15.9 8 8 0 0 1 0 15.9" fill="#fff500AA"/><path d="M228.2 31.9a8 8 0 1 1 0-16.1 8 8 0 0 1 0 16.1" fill="#fffAB"/><path d="M140.3-377.6a8 8 0 1 1 0-16 8 8 0 0 1 0 16" fill="#005bbbAB"/><path d="M-72.4-7.1a8 8 0 1 1 0-16.1 8 8 0 0 1 0 16.1" fill="#005bbbAB"/><path d="M4.9 51.6a8 8 0 1 1 0-16.1 8 8 0 0 1 0 16.1" fill="#005bbbAB"/><path d="M129.3 72.3a8.1 8.1 0 1 1 0-16.2 8.1 8.1 0 0 1 0 16.2" fill="#005bbbAD"/><path d="M81.4-382.4a8.1 8.1 0 1 1 0-16.3 8.1 8.1 0 0 1 0 16.3" fill="#fffAD"/><path d="M-21 40a8.1 8.1 0 1 1 0-16.3 8.1 8.1 0 0 1 0 16.3" fill="#fffAD"/><path d="M-52.4 16.8a8.1 8.1 0 1 1 0-16.3 8.1 8.1 0 0 1 0 16.3" fill="#fffAE"/><path d="M-75.9-7a8.2 8.2 0 1 1 0-16.3 8.2 8.2 0 0 1 0 16.3" fill="#fff500AE"/><path d="M-27.7 36.6a8.2 8.2 0 1 1 0-16.3 8.2 8.2 0 0 1 0 16.3" fill="#005bbbAE"/><path d="M147.7-379.1a8.2 8.2 0 1 1 0-16.3 8.2 8.2 0 0 1 0 16.3" fill="#fff500AE"/><path d="M329.3-135.4a8.2 8.2 0 1 1 0-16.4 8.2 8.2 0 0 1 0 16.4" fill="#005bbbAF"/><path d="M328.4-126.6a8.2 8.2 0 1 1 0-16.4 8.2 8.2 0 0 1 0 16.4" fill="#005bbbAF"/><path d="M-113.6-240.3a8.2 8.2 0 1 1 0-16.4 8.2 8.2 0 0 1 0 16.4" fill="#c2e1ffAF"/><path d="M-110.7-60.3a8.2 8.2 0 1 1 0-16.4 8.2 8.2 0 0 1 0 16.4" fill="#c2e1ffAF"/><path d="M-126.7-198.1a8.2 8.2 0 1 1 0-16.4 8.2 8.2 0 0 1 0 16.4" fill="#fff500B0"/><path d="M-4.5 52.9a8.3 8.3 0 1 1 0-16.6 8.3 8.3 0 0 1 0 16.6" fill="#005bbbB1"/><path d="M-73-308.8a8.3 8.3 0 1 1 0-16.6 8.3 8.3 0 0 1 0 16.6" fill="#fffB1"/><path d="M56.7-382.7a8.3 8.3 0 1 1 0-16.7 8.3 8.3 0 0 1 0 16.7" fill="#c2e1ffB2"/><path d="M331.6-177a8.3 8.3 0 1 1 0-16.7 8.3 8.3 0 0 1 0 16.7" fill="#005bbbB2"/><path d="M320.8-79.6a8.4 8.4 0 1 1 0-16.8 8.4 8.4 0 0 1 0 16.8" fill="#005bbbB3"/><path d="M-124.4-89.8a8.4 8.4 0 1 1 0-16.8 8.4 8.4 0 0 1 0 16.8" fill="#c2e1ffB4"/><path d="M5.1 59.9a8.5 8.5 0 1 1 0-16.9 8.5 8.5 0 0 1 0 16.9" fill="#fffB5"/><path d="M312.5-54.9a8.5 8.5 0 1 1 0-17 8.5 8.5 0 0 1 0 17" fill="#fff500B5"/><path d="M286.1-11.1a8.5 8.5 0 1 1 0-17 8.5 8.5 0 0 1 0 17" fill="#005bbbB6"/><path d="M-72.5 5.2a8.5 8.5 0 1 1 0-17 8.5 8.5 0 0 1 0 17" fill="#c2e1ffB6"/><path d="M314.1-57.7a8.5 8.5 0 1 1 0-17.1 8.5 8.5 0 0 1 0 17.1" fill="#fffB6"/><path d="M250.5-334.3a8.5 8.5 0 1 1 0-17.1 8.5 8.5 0 0 1 0 17.1" fill="#005bbbB7"/><path d="M333.5-122.1a8.7 8.7 0 1 1 0-17.3 8.7 8.7 0 0 1 0 17.3" fill="#fff500B9"/><path d="M-26.5-353.1a8.8 8.8 0 1 1 0-17.5 8.8 8.8 0 0 1 0 17.5" fill="#c2e1ffBB"/><path d="M-71.6 8.5a8.8 8.8 0 1 1 0-17.6 8.8 8.8 0 0 1 0 17.6" fill="#c2e1ffBB"/><path d="M-32.3-349.4a8.8 8.8 0 1 1 0-17.5 8.8 8.8 0 0 1 0 17.5" fill="#005bbbBC"/><path d="M168-379.9a8.8 8.8 0 1 1 0-17.5 8.8 8.8 0 0 1 0 17.5" fill="#005bbbBC"/><path d="M-136-142.9a8.8 8.8 0 1 1 0-17.7 8.8 8.8 0 0 1 0 17.7" fill="#005bbbBD"/><path d="M251.7 27.5a8.9 8.9 0 1 1 0-17.8 8.9 8.9 0 0 1 0 17.8" fill="#005bbbBE"/><path d="M86.5 82.2a8.9 8.9 0 1 1 0-17.8 8.9 8.9 0 0 1 0 17.8" fill="#fff500BE"/><path d="M171.6-378.7a8.9 8.9 0 1 1 0-17.8 8.9 8.9 0 0 1 0 17.8" fill="#fff500BE"/><path d="M324-228.6a8.9 8.9 0 1 1 0-17.8 8.9 8.9 0 0 1 0 17.8" fill="#fff500BF"/><path d="M336.2-153.6a8.9 8.9 0 1 1 0-17.8 8.9 8.9 0 0 1 0 17.8" fill="#005bbbBF"/><path d="M27.7 71.1a9 9 0 1 1 0-18 9 9 0 0 1 0 18" fill="#fffC1"/><path d="M21 68.5a9.1 9.1 0 1 1 0-18.1 9.1 9.1 0 0 1 0 18.1" fill="#fff500C2"/><path d="M222.8-354.4a9.1 9.1 0 1 1 0-18.2 9.1 9.1 0 0 1 0 18.2" fill="#c2e1ffC3"/><path d="M197 60.6a9.2 9.2 0 1 1 0-18.3 9.2 9.2 0 0 1 0 18.3" fill="#005bbbC4"/><path d="M96.4-387.9a9.2 9.2 0 1 1 0-18.4 9.2 9.2 0 0 1 0 18.4" fill="#fffC5"/><path d="M120.4 79.8a9.3 9.3 0 1 1 0-18.5 9.3 9.3 0 0 1 0 18.5" fill="#005bbbC7"/><path d="M325.3-91.9a9.3 9.3 0 1 1 0-18.6 9.3 9.3 0 0 1 0 18.6" fill="#005bbbC7"/><path d="M58.2 76.1a9.3 9.3 0 1 1 0-18.7 9.3 9.3 0 0 1 0 18.7" fill="#fff500C8"/><path d="M-71.3 4.7a9.3 9.3 0 1 1 0-18.6 9.3 9.3 0 0 1 0 18.6" fill="#005bbbC8"/><path d="M139.9-382.6a9.4 9.4 0 1 1 0-18.7 9.4 9.4 0 0 1 0 18.7" fill="#fff500C8"/><path d="M-131-124.4a9.4 9.4 0 1 1 0-18.8 9.4 9.4 0 0 1 0 18.8" fill="#c2e1ffC9"/><path d="M13.2 62.4a9.4 9.4 0 1 1 0-18.8 9.4 9.4 0 0 1 0 18.8" fill="#005bbbC9"/><path d="M2.3 54.2a9.6 9.6 0 1 1 0-19.2 9.6 9.6 0 0 1 0 19.2" fill="#c2e1ffCE"/><path d="M220.8-346.8a9.6 9.6 0 1 1 0-19.2 9.6 9.6 0 0 1 0 19.2" fill="#fff500CE"/><path d="M102.8-380.8a9.6 9.6 0 1 1 0-19.3 9.6 9.6 0 0 1 0 19.3" fill="#005bbbCF"/><path d="M251.5 17.1a9.6 9.6 0 1 1 0-19.3 9.6 9.6 0 0 1 0 19.3" fill="#fffCF"/><path d="M-125.3-122.2a9.7 9.7 0 1 1 0-19.4 9.7 9.7 0 0 1 0 19.4" fill="#fff500CF"/><path d="M223.2 38.2a9.7 9.7 0 1 1 0-19.3 9.7 9.7 0 0 1 0 19.3" fill="#c2e1ffCF"/><path d="M269.5-2a9.7 9.7 0 1 1 0-19.4 9.7 9.7 0 0 1 0 19.4" fill="#005bbbD0"/><path d="M298.2-43.2a9.7 9.7 0 1 1 0-19.4 9.7 9.7 0 0 1 0 19.4" fill="#c2e1ffD0"/><path d="M8.6 53a9.8 9.8 0 1 1 0-19.5 9.8 9.8 0 0 1 0 19.5" fill="#fff500D1"/><path d="M222.5 33.8a9.8 9.8 0 1 1 0-19.6 9.8 9.8 0 0 1 0 19.6" fill="#c2e1ffD3"/><path d="M156.3-367.6a9.9 9.9 0 1 1 0-19.7 9.9 9.9 0 0 1 0 19.7" fill="#c2e1ffD4"/><path d="M305.7-236.3a9.9 9.9 0 1 1 0-19.7 9.9 9.9 0 0 1 0 19.7" fill="#c2e1ffD4"/><path d="M-23.8 31.5a9.9 9.9 0 1 1 0-19.7 9.9 9.9 0 0 1 0 19.7" fill="#fffD4"/><path d="M188.5 49.9a9.9 9.9 0 1 1 0-19.8 9.9 9.9 0 0 1 0 19.8" fill="#fffD4"/><path d="M167.1-362.4a9.9 9.9 0 1 1 0-19.9 9.9 9.9 0 0 1 0 19.9" fill="#005bbbD5"/><path d="M158.2-364.4a9.9 9.9 0 1 1 0-19.9 9.9 9.9 0 0 1 0 19.9" fill="#fff500D5"/><path d="M74.2 65.1a10 10 0 1 1 0-20 10 10 0 0 1 0 20" fill="#c2e1ffD6"/><path d="M-27-330.2a10 10 0 1 1 0-20 10 10 0 0 1 0 20" fill="#005bbbD6"/><path d="M297-245.7a10 10 0 1 1 0-20 10 10 0 0 1 0 20" fill="#005bbbD7"/><path d="M-40-319.3a10 10 0 1 1 0-20.1 10 10 0 0 1 0 20.1" fill="#fff500D7"/><path d="M21.7 50.7a10 10 0 1 1 0-20 10 10 0 0 1 0 20" fill="#005bbbD7"/><path d="M22.1-352.4a10.1 10.1 0 1 1 0-20.2 10.1 10.1 0 0 1 0 20.2" fill="#fff500D9"/><path d="M-89.5-52.4a10.1 10.1 0 1 1 0-20.2 10.1 10.1 0 0 1 0 20.2" fill="#c2e1ffD9"/><path d="M81 60.1a10.1 10.1 0 1 1 0-20.3 10.1 10.1 0 0 1 0 20.3" fill="#c2e1ffD9"/><path d="M228.7 14.9a10.2 10.2 0 1 1 0-20.4 10.2 10.2 0 0 1 0 20.4" fill="#fff500DB"/><path d="M231.7-316.3a10.2 10.2 0 1 1 0-20.4 10.2 10.2 0 0 1 0 20.4" fill="#005bbbDB"/><path d="M-60.9-286.1a10.2 10.2 0 1 1 0-20.4 10.2 10.2 0 0 1 0 20.4" fill="#c2e1ffDC"/><path d="M290.2-67.2a10.3 10.3 0 1 1 0-20.5 10.3 10.3 0 0 1 0 20.5" fill="#005bbbDC"/><path d="M281.3-254.7a10.3 10.3 0 1 1 0-20.5 10.3 10.3 0 0 1 0 20.5" fill="#005bbbDC"/><path d="M307.2-164.7a10.3 10.3 0 1 1 0-20.5 10.3 10.3 0 0 1 0 20.5" fill="#005bbbDD"/><path d="M76.7-355.3a10.3 10.3 0 1 1 0-20.7 10.3 10.3 0 0 1 0 20.7" fill="#005bbbDE"/><path d="M297.5-171.8a10.5 10.5 0 1 1 0-21 10.5 10.5 0 0 1 0 21" fill="#fffE1"/><path d="M281.5-72.6a10.5 10.5 0 1 1 0-21 10.5 10.5 0 0 1 0 21" fill="#c2e1ffE1"/><path d="M-84.7-81a10.5 10.5 0 1 1 0-21 10.5 10.5 0 0 1 0 21" fill="#005bbbE1"/><path d="M-65.4-43.6a10.5 10.5 0 1 1 0-21 10.5 10.5 0 0 1 0 21" fill="#c2e1ffE1"/><path d="M230-300.8a10.5 10.5 0 1 1 0-20.9 10.5 10.5 0 0 1 0 20.9" fill="#c2e1ffE1"/><path d="M41.9 35.5a10.5 10.5 0 1 1 0-21 10.5 10.5 0 0 1 0 21" fill="#c2e1ffE2"/><path d="M-49.3-277.6a10.5 10.5 0 1 1 0-21 10.5 10.5 0 0 1 0 21" fill="#fff500E2"/><path d="M-68.9-55.7a10.5 10.5 0 1 1 0-21.1 10.5 10.5 0 0 1 0 21.1" fill="#fff500E2"/><path d="M260.8-260a10.5 10.5 0 1 1 0-21.1 10.5 10.5 0 0 1 0 21.1" fill="#fff500E3"/><path d="M281.1-217.1a10.6 10.6 0 1 1 0-21.1 10.6 10.6 0 0 1 0 21.1" fill="#fffE3"/><path d="M250.9-38.5a10.6 10.6 0 1 1 0-21.3 10.6 10.6 0 0 1 0 21.3" fill="#c2e1ffE5"/><path d="M-80.4-205.5a10.6 10.6 0 1 1 0-21.3 10.6 10.6 0 0 1 0 21.3" fill="#fffE5"/><path d="M229.9-284.6a10.7 10.7 0 1 1 0-21.4 10.7 10.7 0 0 1 0 21.4" fill="#c2e1ffE6"/><path d="M91.7-337.2a10.7 10.7 0 1 1 0-21.4 10.7 10.7 0 0 1 0 21.4" fill="#fff500E6"/><path d="M279.1-104.3a10.7 10.7 0 1 1 0-21.4 10.7 10.7 0 0 1 0 21.4" fill="#fff500E6"/><path d="M-69.2-76.3a10.7 10.7 0 1 1 0-21.4 10.7 10.7 0 0 1 0 21.4" fill="#005bbbE6"/><path d="M277.5-137.2a10.8 10.8 0 1 1 0-21.6 10.8 10.8 0 0 1 0 21.6" fill="#c2e1ffE8"/><path d="M39.8 15.8a10.8 10.8 0 1 1 0-21.6 10.8 10.8 0 0 1 0 21.6" fill="#005bbbE8"/><path d="M-73.2-173.3a10.8 10.8 0 1 1 0-21.7 10.8 10.8 0 0 1 0 21.7" fill="#fffE9"/><path d="M36.3-313a10.9 10.9 0 1 1 0-21.8 10.9 10.9 0 0 1 0 21.8" fill="#c2e1ffEA"/><path d="M255-73.9a10.9 10.9 0 1 1 0-21.7 10.9 10.9 0 0 1 0 21.7" fill="#fff500EA"/><path d="M-24.3-261.7a11 11 0 1 1 0-22 11 11 0 0 1 0 22" fill="#c2e1ffEC"/><path d="M-3.4-279.3a11 11 0 1 1 0-22 11 11 0 0 1 0 22" fill="#fffEC"/><path d="M90.1-312.9a11 11 0 1 1 0-22 11 11 0 0 1 0 22" fill="#c2e1ffED"/><path d="M150-303.8a11 11 0 1 1 0-22 11 11 0 0 1 0 22" fill="#c2e1ffED"/><path d="M171.7-293.4a11 11 0 1 1 0-22.1 11 11 0 0 1 0 22.1" fill="#005bbbEE"/><path d="M229.9-240.3a11.1 11.1 0 1 1 0-22.1 11.1 11.1 0 0 1 0 22.1" fill="#fff500EE"/><path d="M-49.7-199.7a11.1 11.1 0 1 1 0-22.2 11.1 11.1 0 0 1 0 22.2" fill="#005bbbEE"/><path d="M234.4-233.1a11.1 11.1 0 1 1 0-22.2 11.1 11.1 0 0 1 0 22.2" fill="#c2e1ffEE"/><path d="M198-274.3a11.1 11.1 0 1 1 0-22.2 11.1 11.1 0 0 1 0 22.2" fill="#fffEE"/><path d="M252.5-127.6a11.1 11.1 0 1 1 0-22.2 11.1 11.1 0 0 1 0 22.2" fill="#fffEF"/><path d="M131.8-7.4a11.2 11.2 0 1 1 0-22.3 11.2 11.2 0 0 1 0 22.3" fill="#fffF0"/><path d="M27.1-271.1a11.2 11.2 0 1 1 0-22.5 11.2 11.2 0 0 1 0 22.5" fill="#fffF2"/><path d="M208.5-65.5a11.3 11.3 0 1 1 0-22.5 11.3 11.3 0 0 1 0 22.5" fill="#fffF2"/><path d="M-31.5-188.9a11.3 11.3 0 1 1 0-22.6 11.3 11.3 0 0 1 0 22.6" fill="#fffF2"/><path d="M-10.9-226.7a11.3 11.3 0 1 1 0-22.5 11.3 11.3 0 0 1 0 22.5" fill="#c2e1ffF3"/><path d="M215.2-207.4a11.3 11.3 0 1 1 0-22.7 11.3 11.3 0 0 1 0 22.7" fill="#005bbbF4"/><path d="M-18.6-175.8a11.4 11.4 0 1 1 0-22.8 11.4 11.4 0 0 1 0 22.8" fill="#fffF5"/><path d="M172.7-63.4a11.4 11.4 0 1 1 0-22.9 11.4 11.4 0 0 1 0 22.9" fill="#fff500F6"/><path d="M189.1-82.6a11.5 11.5 0 1 1 0-22.9 11.5 11.5 0 0 1 0 22.9" fill="#c2e1ffF7"/><path d="M21.7-89.4a11.5 11.5 0 1 1 0-23.1 11.5 11.5 0 0 1 0 23.1" fill="#fff500F8"/><path d="M144-174.7a11.7 11.7 0 1 1 0-23.5 11.7 11.7 0 0 1 0 23.5" fill="#fff500FD"/><path d="M67.2-116.2a11.8 11.8 0 1 1 0-23.5 11.8 11.8 0 0 1 0 23.5" fill="#c2e1ffFD"/><path d="M122.7-182.9a11.8 11.8 0 1 1 0-23.5 11.8 11.8 0 0 1 0 23.5" fill="#fffFE"/></g></svg>