<svg width="1200" height="675" viewBox="-500 -500 1200 675" xmlns="http://www.w3.org/2000/svg"><path d="M-500-500h1200v675h-1200z" fill="#000"/><style>.sparkles path{stroke-linecap:round; stroke-width:1}</style><g class="sparkles"><path d="M100-162.5l25.5 12.5" stroke="#005bbb32"/><path d="M100-162.5l-40.8 38.8" stroke="#fff33"/><path d="M100-162.5l0.4-69.9" stroke="#005bbb34"/><path d="M100-162.5l66.5 47" stroke="#fff35"/><path d="M100-162.5l82.9-19.5" stroke="#005bbb35"/><path d="M100-162.5l-45.1-80.5" stroke="#fff35"/><path d="M100-162.5l-52 82.3" stroke="#c2e1ff36"/><path d="M100-162.5l57.6-85.8" stroke="#c2e1ff37"/><path d="M100-162.5l37.3-100.4" stroke="#005bbb37"/><path d="M100-162.5l69.5-88.2" stroke="#fff38"/><path d="M100-162.5l-99.2 58.9" stroke="#fff50038"/><path d="M100-162.5l122.7 0" stroke="#c2e1ff39"/><path d="M100-162.5l8.5 126.4" stroke="#fff39"/><path d="M100-162.5l-47.7 122.7" stroke="#c2e1ff3A"/><path d="M100-162.5l-8.5-134.5" stroke="#005bbb3A"/><path d="M100-162.5l124 58.7" stroke="#fff3B"/><path d="M100-162.5l-122.4-66.7" stroke="#fff5003B"/><path d="M100-162.5l76.2 124.7" stroke="#c2e1ff3C"/><path d="M100-162.5l41.7 144.4" stroke="#005bbb3D"/><path d="M100-162.5l28.1 148.7" stroke="#fff3D"/><path d="M100-162.5l62.8-139.2" stroke="#fff5003D"/><path d="M100-162.5l75-134.6" stroke="#005bbb3E"/><path d="M100-162.5l34.1 154.1" stroke="#fff3E"/><path d="M100-162.5l-129.8-93" stroke="#005bbb3F"/><path d="M100-162.5l164.1 3.1" stroke="#005bbb40"/><path d="M100-162.5l161.9 32.2" stroke="#c2e1ff40"/><path d="M100-162.5l25.2-168.8" stroke="#fff50041"/><path d="M100-162.5l-88.3 150.1" stroke="#005bbb42"/><path d="M100-162.5l-73.9 160.6" stroke="#005bbb42"/><path d="M100-162.5l-149.8-97.8" stroke="#005bbb43"/><path d="M100-162.5l-135.6-125" stroke="#c2e1ff44"/><path d="M100-162.5l-149.7-109.7" stroke="#fff50045"/><path d="M100-162.5l-56 180.1" stroke="#fff50045"/><path d="M100-162.5l108.7 155" stroke="#fff50046"/><path d="M100-162.5l-2.2-189.8" stroke="#fff50046"/><path d="M100-162.5l-25.8 190.1" stroke="#005bbb46"/><path d="M100-162.5l73.9-178.5" stroke="#fff47"/><path d="M100-162.5l189 42.1" stroke="#c2e1ff47"/><path d="M100-162.5l34.9-190.8" stroke="#c2e1ff47"/><path d="M100-162.5l-176.5-81" stroke="#005bbb47"/><path d="M100-162.5l-56.2-188.2" stroke="#005bbb48"/><path d="M100-162.5l-189.1 56.9" stroke="#fff48"/><path d="M100-162.5l86.1 179.8" stroke="#fff50049"/><path d="M100-162.5l-125-156.2" stroke="#005bbb49"/><path d="M100-162.5l126.9-157.8" stroke="#fff5004A"/><path d="M100-162.5l118.5-166.9" stroke="#005bbb4B"/><path d="M100-162.5l106 175.2" stroke="#fff4B"/><path d="M100-162.5l187.2-96.3" stroke="#fff4D"/><path d="M100-162.5l204.6 52.3" stroke="#c2e1ff4D"/><path d="M100-162.5l209.7-34" stroke="#005bbb4E"/><path d="M100-162.5l-141.8-158.2" stroke="#fff5004E"/><path d="M100-162.5l-32.1 210.9" stroke="#fff4E"/><path d="M100-162.5l109.7 183.9" stroke="#fff5004E"/><path d="M100-162.5l115.3-180.7" stroke="#005bbb4E"/><path d="M100-162.5l-137 165" stroke="#fff5004F"/><path d="M100-162.5l-172.8-127.9" stroke="#005bbb4F"/><path d="M100-162.5l-115-183.6" stroke="#c2e1ff50"/><path d="M100-162.5l-164.8 143.5" stroke="#fff50051"/><path d="M100-162.5l-104.7 192.4" stroke="#c2e1ff51"/><path d="M100-162.5l-135.5-172.8" stroke="#fff51"/><path d="M100-162.5l137 172" stroke="#005bbb51"/><path d="M100-162.5l-195.7 100.9" stroke="#fff50051"/><path d="M100-162.5l-104.6 195.5" stroke="#fff52"/><path d="M100-162.5l-126.6-182.1" stroke="#005bbb52"/><path d="M100-162.5l180.5-129.2" stroke="#fff52"/><path d="M100-162.5l-226.1-1.6" stroke="#fff55"/><path d="M100-162.5l203.8-98.4" stroke="#005bbb55"/><path d="M100-162.5l-220.6-61.1" stroke="#fff57"/><path d="M100-162.5l85.4 212.6" stroke="#c2e1ff57"/><path d="M100-162.5l-43.2-226" stroke="#fff58"/><path d="M100-162.5l-84.6 214.1" stroke="#c2e1ff58"/><path d="M100-162.5l-213.8 86.9" stroke="#c2e1ff59"/><path d="M100-162.5l163.3-164.3" stroke="#005bbb5A"/><path d="M100-162.5l-148 178.6" stroke="#005bbb5A"/><path d="M100-162.5l-155.1-173.6" stroke="#fff5B"/><path d="M100-162.5l54.1-226.9" stroke="#fff5005C"/><path d="M100-162.5l-138.2-188.8" stroke="#fff5005D"/><path d="M100-162.5l-232.3-30.1" stroke="#c2e1ff5D"/><path d="M100-162.5l218.9-85.1" stroke="#005bbb5E"/><path d="M100-162.5l-142.2-187.3" stroke="#fff5F"/><path d="M100-162.5l-187.7 142.5" stroke="#fff50060"/><path d="M100-162.5l-224.9-70.5" stroke="#fff60"/><path d="M100-162.5l-67.9-226.1" stroke="#fff61"/><path d="M100-162.5l234.1 30.2" stroke="#c2e1ff62"/><path d="M100-162.5l144-187.3" stroke="#005bbb63"/><path d="M100-162.5l-4.2 236.2" stroke="#fff63"/><path d="M100-162.5l180.1-152.5" stroke="#fff50066"/><path d="M100-162.5l229.7-53.7" stroke="#fff66"/><path d="M100-162.5l186.4-143" stroke="#fff50069"/><path d="M100-162.5l171.5 160.5" stroke="#005bbb69"/><path d="M100-162.5l125-198.7" stroke="#c2e1ff69"/><path d="M100-162.5l226-63.1" stroke="#005bbb69"/><path d="M100-162.5l227.4 57.9" stroke="#fff69"/><path d="M100-162.5l-230.3 43.8" stroke="#c2e1ff6A"/><path d="M100-162.5l-130.4 194.1" stroke="#005bbb6B"/><path d="M100-162.5l206.2-109.9" stroke="#fff5006B"/><path d="M100-162.5l231.2 33.1" stroke="#005bbb6B"/><path d="M100-162.5l-163.5 165.6" stroke="#fff6C"/><path d="M100-162.5l-221.8 68.1" stroke="#c2e1ff6D"/><path d="M100-162.5l227.7 43.2" stroke="#c2e1ff6D"/><path d="M100-162.5l-73.3 219.3" stroke="#fff5006E"/><path d="M100-162.5l46.7 225.7" stroke="#005bbb6E"/><path d="M100-162.5l180.1 143.4" stroke="#c2e1ff6F"/><path d="M100-162.5l57.2 222.6" stroke="#fff5006F"/><path d="M100-162.5l199.2-113.5" stroke="#fff70"/><path d="M100-162.5l-212.1-84.8" stroke="#c2e1ff70"/><path d="M100-162.5l-181.5-136.8" stroke="#005bbb71"/><path d="M100-162.5l-208.4-89.6" stroke="#c2e1ff71"/><path d="M100-162.5l-174-143" stroke="#c2e1ff73"/><path d="M100-162.5l-223.2-29.4" stroke="#c2e1ff73"/><path d="M100-162.5l197.9 104.8" stroke="#005bbb73"/><path d="M100-162.5l56.1-214.8" stroke="#fff50075"/><path d="M100-162.5l7 221.6" stroke="#c2e1ff75"/><path d="M100-162.5l113.9-190" stroke="#c2e1ff75"/><path d="M100-162.5l95.9 198.9" stroke="#c2e1ff75"/><path d="M100-162.5l95.4 198.1" stroke="#c2e1ff76"/><path d="M100-162.5l181.7 122.7" stroke="#fff50076"/><path d="M100-162.5l-206.4 70.4" stroke="#005bbb77"/><path d="M100-162.5l-124.6 177.2" stroke="#005bbb77"/><path d="M100-162.5l-194-96.1" stroke="#fff50078"/><path d="M100-162.5l131.7 170.7" stroke="#fff50078"/><path d="M100-162.5l85-197.4" stroke="#fff50078"/><path d="M100-162.5l151.8-152.2" stroke="#fff50078"/><path d="M100-162.5l-145.4-157.9" stroke="#fff78"/><path d="M100-162.5l-162.7-137.9" stroke="#005bbb79"/><path d="M100-162.5l72.7 199.5" stroke="#fff50079"/><path d="M100-162.5l-80 196" stroke="#fff7A"/><path d="M100-162.5l-141.7 157" stroke="#005bbb7A"/><path d="M100-162.5l163.4-131.1" stroke="#c2e1ff7B"/><path d="M100-162.5l73.6-195.6" stroke="#005bbb7B"/><path d="M100-162.5l208.7 0.4" stroke="#005bbb7B"/><path d="M100-162.5l-127.9-164.7" stroke="#005bbb7B"/><path d="M100-162.5l114.8-168.5" stroke="#c2e1ff7D"/><path d="M100-162.5l61.3 192.7" stroke="#fff7D"/><path d="M100-162.5l-175.9 99.4" stroke="#fff7D"/><path d="M100-162.5l201.1-12.7" stroke="#005bbb7E"/><path d="M100-162.5l84.8-182.1" stroke="#c2e1ff7E"/><path d="M100-162.5l-95-172.9" stroke="#fff5007F"/><path d="M100-162.5l151.8-123.7" stroke="#c2e1ff7F"/><path d="M100-162.5l-183.9 43.3" stroke="#005bbb82"/><path d="M100-162.5l-156.8 102.1" stroke="#fff50082"/><path d="M100-162.5l-43 178.6" stroke="#c2e1ff83"/><path d="M100-162.5l-166.6-67" stroke="#005bbb84"/><path d="M100-162.5l173.1 44.6" stroke="#c2e1ff84"/><path d="M100-162.5l-36.3-170.9" stroke="#005bbb85"/><path d="M100-162.5l-165 57.6" stroke="#005bbb85"/><path d="M100-162.5l-165.8-50.7" stroke="#fff50085"/><path d="M100-162.5l-132.6 107.2" stroke="#c2e1ff86"/><path d="M100-162.5l-66.8 150.1" stroke="#005bbb87"/><path d="M100-162.5l2.8 160.7" stroke="#fff88"/><path d="M100-162.5l-151.9-30.3" stroke="#005bbb89"/><path d="M100-162.5l76.2 134.6" stroke="#c2e1ff89"/><path d="M100-162.5l127.3 87.4" stroke="#005bbb89"/><path d="M100-162.5l149.7 36.4" stroke="#fff89"/><path d="M100-162.5l115.1 93.1" stroke="#005bbb8A"/><path d="M100-162.5l-45.4-135.6" stroke="#005bbb8B"/><path d="M100-162.5l-132.3-52.5" stroke="#fff8B"/><path d="M100-162.5l77.9-117.8" stroke="#005bbb8C"/><path d="M100-162.5l120.6-61.2" stroke="#fff8D"/><path d="M100-162.5l-125.9 38.2" stroke="#fff8D"/><path d="M100-162.5l45.3-118.9" stroke="#005bbb8E"/><path d="M100-162.5l92.5-80.3" stroke="#fff5008E"/><path d="M100-162.5l-22.3-117.2" stroke="#fff5008F"/><path d="M100-162.5l-72.8 67.4" stroke="#005bbb91"/><path d="M100-162.5l-82.3-43" stroke="#005bbb91"/><path d="M100-162.5l69.8 60.4" stroke="#fff50092"/><path d="M100-162.5l-50.9-74.4" stroke="#005bbb92"/><path d="M100-162.5l-5.2 90" stroke="#fff92"/><path d="M100-162.5l55.5 70.5" stroke="#005bbb92"/><path d="M100-162.5l83.4 31.3" stroke="#c2e1ff92"/><path d="M100-162.5l-77.9 40.1" stroke="#c2e1ff92"/><path d="M100-162.5l60.1 60.5" stroke="#fff92"/><path d="M100-162.5l80.1-13.7" stroke="#005bbb92"/><path d="M100-162.5l74.1-6.6" stroke="#c2e1ff93"/><path d="M100-162.5l62.4 32.8" stroke="#c2e1ff93"/><path d="M100-162.5l8.4 68.2" stroke="#fff50093"/><path d="M100-162.5l-37.8-42" stroke="#005bbb94"/><path d="M100-162.5l25.6 39.4" stroke="#fff50095"/><path d="M100-162.5l-2.7-26.3" stroke="#fff50095"/><path d="M100-162.5l-11.7-15.2" stroke="#005bbb95"/><path d="M100-162.5l13.9-6.9" stroke="#fff95"/></g><g class="sparcs"><path d="M125.5-144.1a5.9 5.9 0 1 1 0-11.8 5.9 5.9 0 0 1 0 11.8" fill="#fff5007D"/><path d="M59.2-117.7a6 6 0 1 1 0-12 6 6 0 0 1 0 12" fill="#c2e1ff7E"/><path d="M100.4-226.3a6 6 0 1 1 0-12.1 6 6 0 0 1 0 12.1" fill="#fff5007F"/><path d="M166.5-109.4a6.1 6.1 0 1 1 0-12.2 6.1 6.1 0 0 1 0 12.2" fill="#005bbb80"/><path d="M182.9-175.9a6.1 6.1 0 1 1 0-12.2 6.1 6.1 0 0 1 0 12.2" fill="#fff50081"/><path d="M54.9-236.8a6.1 6.1 0 1 1 0-12.3 6.1 6.1 0 0 1 0 12.3" fill="#005bbb82"/><path d="M48-74a6.2 6.2 0 1 1 0-12.4 6.2 6.2 0 0 1 0 12.4" fill="#005bbb82"/><path d="M157.6-242.1a6.2 6.2 0 1 1 0-12.4 6.2 6.2 0 0 1 0 12.4" fill="#fff50083"/><path d="M137.3-256.6a6.2 6.2 0 1 1 0-12.5 6.2 6.2 0 0 1 0 12.5" fill="#c2e1ff84"/><path d="M169.5-244.4a6.3 6.3 0 1 1 0-12.6 6.3 6.3 0 0 1 0 12.6" fill="#fff50084"/><path d="M0.8-97.3a6.3 6.3 0 1 1 0-12.6 6.3 6.3 0 0 1 0 12.6" fill="#fff85"/><path d="M222.7-156.2a6.3 6.3 0 1 1 0-12.6 6.3 6.3 0 0 1 0 12.6" fill="#c2e1ff86"/><path d="M108.5-29.8a6.4 6.4 0 1 1 0-12.7 6.4 6.4 0 0 1 0 12.7" fill="#fff87"/><path d="M52.3-33.4a6.4 6.4 0 1 1 0-12.8 6.4 6.4 0 0 1 0 12.8" fill="#fff50088"/><path d="M91.5-290.5a6.4 6.4 0 1 1 0-12.9 6.4 6.4 0 0 1 0 12.9" fill="#c2e1ff88"/><path d="M224-97.3a6.5 6.5 0 1 1 0-12.9 6.5 6.5 0 0 1 0 12.9" fill="#fff89"/><path d="M-22.4-222.7a6.5 6.5 0 1 1 0-13 6.5 6.5 0 0 1 0 13" fill="#005bbb89"/><path d="M176.2-31.3a6.5 6.5 0 1 1 0-13.1 6.5 6.5 0 0 1 0 13.1" fill="#c2e1ff8A"/><path d="M141.7-11.5a6.6 6.6 0 1 1 0-13.2 6.6 6.6 0 0 1 0 13.2" fill="#fff8B"/><path d="M128.1-7.2a6.6 6.6 0 1 1 0-13.2 6.6 6.6 0 0 1 0 13.2" fill="#fff5008C"/><path d="M162.8-295.1a6.6 6.6 0 1 1 0-13.3 6.6 6.6 0 0 1 0 13.3" fill="#fff5008C"/><path d="M175-290.5a6.6 6.6 0 1 1 0-13.2 6.6 6.6 0 0 1 0 13.2" fill="#005bbb8C"/><path d="M134.1-1.7a6.7 6.7 0 1 1 0-13.3 6.7 6.7 0 0 1 0 13.3" fill="#fff8D"/><path d="M-29.8-248.8a6.7 6.7 0 1 1 0-13.4 6.7 6.7 0 0 1 0 13.4" fill="#005bbb8E"/><path d="M264.1-152.7a6.7 6.7 0 1 1 0-13.4 6.7 6.7 0 0 1 0 13.4" fill="#005bbb8F"/><path d="M261.9-123.5a6.7 6.7 0 1 1 0-13.5 6.7 6.7 0 0 1 0 13.5" fill="#fff8F"/><path d="M125.2-324.5a6.8 6.8 0 1 1 0-13.7 6.8 6.8 0 0 1 0 13.7" fill="#fff50091"/><path d="M11.7-5.5a6.9 6.9 0 1 1 0-13.7 6.9 6.9 0 0 1 0 13.7" fill="#c2e1ff92"/><path d="M26.1 5a6.9 6.9 0 1 1 0-13.8 6.9 6.9 0 0 1 0 13.8" fill="#c2e1ff92"/><path d="M-49.8-253.3a6.9 6.9 0 1 1 0-13.9 6.9 6.9 0 0 1 0 13.9" fill="#c2e1ff93"/><path d="M-35.6-280.4a7 7 0 1 1 0-14.1 7 7 0 0 1 0 14.1" fill="#fff50095"/><path d="M-49.7-265.1a7 7 0 1 1 0-14.1 7 7 0 0 1 0 14.1" fill="#005bbb95"/><path d="M44 24.7a7.1 7.1 0 1 1 0-14.2 7.1 7.1 0 0 1 0 14.2" fill="#005bbb96"/><path d="M208.7-0.4a7.1 7.1 0 1 1 0-14.2 7.1 7.1 0 0 1 0 14.2" fill="#fff97"/><path d="M97.8-345.2a7.1 7.1 0 1 1 0-14.2 7.1 7.1 0 0 1 0 14.2" fill="#005bbb97"/><path d="M74.2 34.8a7.1 7.1 0 1 1 0-14.3 7.1 7.1 0 0 1 0 14.3" fill="#fff98"/><path d="M173.9-333.8a7.2 7.2 0 1 1 0-14.4 7.2 7.2 0 0 1 0 14.4" fill="#005bbb98"/><path d="M289-113.2a7.2 7.2 0 1 1 0-14.3 7.2 7.2 0 0 1 0 14.3" fill="#fff98"/><path d="M134.9-346.2a7.2 7.2 0 1 1 0-14.3 7.2 7.2 0 0 1 0 14.3" fill="#fff98"/><path d="M-76.5-236.3a7.2 7.2 0 1 1 0-14.3 7.2 7.2 0 0 1 0 14.3" fill="#fff50098"/><path d="M43.8-343.4a7.2 7.2 0 1 1 0-14.5 7.2 7.2 0 0 1 0 14.5" fill="#fff50099"/><path d="M-89.1-98.4a7.2 7.2 0 1 1 0-14.4 7.2 7.2 0 0 1 0 14.4" fill="#fff9A"/><path d="M186.1 24.5a7.3 7.3 0 1 1 0-14.5 7.3 7.3 0 0 1 0 14.5" fill="#fff9B"/><path d="M-25-311.4a7.3 7.3 0 1 1 0-14.6 7.3 7.3 0 0 1 0 14.6" fill="#005bbb9B"/><path d="M226.9-313a7.3 7.3 0 1 1 0-14.6 7.3 7.3 0 0 1 0 14.6" fill="#c2e1ff9C"/><path d="M218.5-322a7.4 7.4 0 1 1 0-14.8 7.4 7.4 0 0 1 0 14.8" fill="#fff5009D"/><path d="M206 20.1a7.4 7.4 0 1 1 0-14.8 7.4 7.4 0 0 1 0 14.8" fill="#fff9D"/><path d="M287.2-251.3a7.5 7.5 0 1 1 0-15 7.5 7.5 0 0 1 0 15" fill="#c2e1ffA0"/><path d="M304.6-102.7a7.5 7.5 0 1 1 0-15 7.5 7.5 0 0 1 0 15" fill="#fffA0"/><path d="M309.7-188.9a7.6 7.6 0 1 1 0-15.2 7.6 7.6 0 0 1 0 15.2" fill="#fffA1"/><path d="M-41.8-313.1a7.6 7.6 0 1 1 0-15.2 7.6 7.6 0 0 1 0 15.2" fill="#fffA1"/><path d="M67.9 56a7.6 7.6 0 1 1 0-15.2 7.6 7.6 0 0 1 0 15.2" fill="#c2e1ffA2"/><path d="M209.7 29a7.6 7.6 0 1 1 0-15.3 7.6 7.6 0 0 1 0 15.3" fill="#c2e1ffA2"/><path d="M215.3-335.6a7.6 7.6 0 1 1 0-15.2 7.6 7.6 0 0 1 0 15.2" fill="#c2e1ffA2"/><path d="M-37 10.1a7.6 7.6 0 1 1 0-15.2 7.6 7.6 0 0 1 0 15.2" fill="#005bbbA2"/><path d="M-72.8-282.8a7.6 7.6 0 1 1 0-15.2 7.6 7.6 0 0 1 0 15.2" fill="#fff500A3"/><path d="M-15-338.4a7.7 7.7 0 1 1 0-15.4 7.7 7.7 0 0 1 0 15.4" fill="#fffA4"/><path d="M-64.8-11.2a7.7 7.7 0 1 1 0-15.5 7.7 7.7 0 0 1 0 15.5" fill="#fff500A5"/><path d="M-4.7 37.7a7.8 7.8 0 1 1 0-15.5 7.8 7.8 0 0 1 0 15.5" fill="#005bbbA5"/><path d="M-35.5-327.6a7.8 7.8 0 1 1 0-15.5 7.8 7.8 0 0 1 0 15.5" fill="#fff500A6"/><path d="M237 17.3a7.8 7.8 0 1 1 0-15.6 7.8 7.8 0 0 1 0 15.6" fill="#c2e1ffA6"/><path d="M-95.7-53.8a7.8 7.8 0 1 1 0-15.6 7.8 7.8 0 0 1 0 15.6" fill="#fffA6"/><path d="M-4.6 40.9a7.8 7.8 0 1 1 0-15.7 7.8 7.8 0 0 1 0 15.7" fill="#c2e1ffA7"/><path d="M-26.6-336.7a7.8 7.8 0 1 1 0-15.7 7.8 7.8 0 0 1 0 15.7" fill="#005bbbA7"/><path d="M280.5-283.9a7.8 7.8 0 1 1 0-15.7 7.8 7.8 0 0 1 0 15.7" fill="#c2e1ffA7"/><path d="M-126.1-156.1a8 8 0 1 1 0-16 8 8 0 0 1 0 16" fill="#fff500AB"/><path d="M303.8-252.9a8 8 0 1 1 0-16 8 8 0 0 1 0 16" fill="#fff500AB"/><path d="M-120.6-215.4a8.1 8.1 0 1 1 0-16.3 8.1 8.1 0 0 1 0 16.3" fill="#fffAD"/><path d="M185.4 58.2a8.1 8.1 0 1 1 0-16.3 8.1 8.1 0 0 1 0 16.3" fill="#fffAE"/><path d="M56.8-380.4a8.2 8.2 0 1 1 0-16.3 8.2 8.2 0 0 1 0 16.3" fill="#c2e1ffAF"/><path d="M15.4 59.8a8.2 8.2 0 1 1 0-16.4 8.2 8.2 0 0 1 0 16.4" fill="#fff500AF"/><path d="M-113.8-67.4a8.2 8.2 0 1 1 0-16.4 8.2 8.2 0 0 1 0 16.4" fill="#fff500B0"/><path d="M263.3-318.5a8.3 8.3 0 1 1 0-16.6 8.3 8.3 0 0 1 0 16.6" fill="#fff500B1"/><path d="M-48 24.4a8.3 8.3 0 1 1 0-16.6 8.3 8.3 0 0 1 0 16.6" fill="#fffB1"/><path d="M-55.1-327.8a8.4 8.4 0 1 1 0-16.7 8.4 8.4 0 0 1 0 16.7" fill="#c2e1ffB3"/><path d="M154.1-381a8.4 8.4 0 1 1 0-16.8 8.4 8.4 0 0 1 0 16.8" fill="#c2e1ffB3"/><path d="M-38.2-342.9a8.5 8.5 0 1 1 0-16.9 8.5 8.5 0 0 1 0 16.9" fill="#fffB5"/><path d="M-132.3-184.2a8.5 8.5 0 1 1 0-16.9 8.5 8.5 0 0 1 0 16.9" fill="#fff500B5"/><path d="M318.9-239.1a8.5 8.5 0 1 1 0-17.1 8.5 8.5 0 0 1 0 17.1" fill="#c2e1ffB6"/><path d="M-42.2-341.2a8.6 8.6 0 1 1 0-17.2 8.6 8.6 0 0 1 0 17.2" fill="#005bbbB7"/><path d="M-87.7-11.3a8.7 8.7 0 1 1 0-17.3 8.7 8.7 0 0 1 0 17.3" fill="#fffB9"/><path d="M-124.9-224.3a8.7 8.7 0 1 1 0-17.4 8.7 8.7 0 0 1 0 17.4" fill="#c2e1ffB9"/><path d="M32.1-379.8a8.7 8.7 0 1 1 0-17.5 8.7 8.7 0 0 1 0 17.5" fill="#fffBB"/><path d="M334.1-123.6a8.7 8.7 0 1 1 0-17.5 8.7 8.7 0 0 1 0 17.5" fill="#c2e1ffBB"/><path d="M244-341a8.8 8.8 0 1 1 0-17.6 8.8 8.8 0 0 1 0 17.6" fill="#c2e1ffBD"/><path d="M95.8 82.5a8.8 8.8 0 1 1 0-17.6 8.8 8.8 0 0 1 0 17.6" fill="#c2e1ffBD"/><path d="M280.1-305.9a9 9 0 1 1 0-18.1 9 9 0 0 1 0 18.1" fill="#fffC1"/><path d="M329.7-207.2a9 9 0 1 1 0-18.1 9 9 0 0 1 0 18.1" fill="#005bbbC1"/><path d="M286.4-296.3a9.2 9.2 0 1 1 0-18.4 9.2 9.2 0 0 1 0 18.4" fill="#005bbbC4"/><path d="M271.5 7.2a9.2 9.2 0 1 1 0-18.4 9.2 9.2 0 0 1 0 18.4" fill="#fff500C4"/><path d="M225-352a9.2 9.2 0 1 1 0-18.4 9.2 9.2 0 0 1 0 18.4" fill="#fffC5"/><path d="M326-216.4a9.2 9.2 0 1 1 0-18.4 9.2 9.2 0 0 1 0 18.4" fill="#005bbbC5"/><path d="M327.4-95.4a9.2 9.2 0 1 1 0-18.4 9.2 9.2 0 0 1 0 18.4" fill="#fff500C5"/><path d="M-130.3-109.4a9.2 9.2 0 1 1 0-18.5 9.2 9.2 0 0 1 0 18.5" fill="#005bbbC6"/><path d="M-30.4 40.9a9.3 9.3 0 1 1 0-18.5 9.3 9.3 0 0 1 0 18.5" fill="#fffC7"/><path d="M306.2-263.1a9.3 9.3 0 1 1 0-18.6 9.3 9.3 0 0 1 0 18.6" fill="#fff500C7"/><path d="M331.2-120.1a9.3 9.3 0 1 1 0-18.6 9.3 9.3 0 0 1 0 18.6" fill="#fff500C7"/><path d="M-63.5 12.5a9.4 9.4 0 1 1 0-18.8 9.4 9.4 0 0 1 0 18.8" fill="#c2e1ffC9"/><path d="M-121.8-84.9a9.4 9.4 0 1 1 0-18.9 9.4 9.4 0 0 1 0 18.9" fill="#c2e1ffCA"/><path d="M327.7-109.9a9.4 9.4 0 1 1 0-18.9 9.4 9.4 0 0 1 0 18.9" fill="#005bbbCA"/><path d="M26.7 66.2a9.5 9.5 0 1 1 0-18.9 9.5 9.5 0 0 1 0 18.9" fill="#fffCB"/><path d="M146.7 72.7a9.5 9.5 0 1 1 0-19 9.5 9.5 0 0 1 0 19" fill="#005bbbCC"/><path d="M280.1-9.6a9.5 9.5 0 1 1 0-19.1 9.5 9.5 0 0 1 0 19.1" fill="#c2e1ffCC"/><path d="M157.2 69.7a9.5 9.5 0 1 1 0-19.1 9.5 9.5 0 0 1 0 19.1" fill="#c2e1ffCD"/><path d="M299.2-266.4a9.6 9.6 0 1 1 0-19.2 9.6 9.6 0 0 1 0 19.2" fill="#fff500CD"/><path d="M-112.1-237.6a9.6 9.6 0 1 1 0-19.3 9.6 9.6 0 0 1 0 19.3" fill="#fff500CE"/><path d="M-81.5-289.6a9.7 9.7 0 1 1 0-19.3 9.7 9.7 0 0 1 0 19.3" fill="#c2e1ffCF"/><path d="M-108.4-242.4a9.7 9.7 0 1 1 0-19.4 9.7 9.7 0 0 1 0 19.4" fill="#005bbbD0"/><path d="M-74-295.7a9.8 9.8 0 1 1 0-19.5 9.8 9.8 0 0 1 0 19.5" fill="#fffD1"/><path d="M-123.2-182.2a9.8 9.8 0 1 1 0-19.5 9.8 9.8 0 0 1 0 19.5" fill="#005bbbD1"/><path d="M297.9-47.9a9.8 9.8 0 1 1 0-19.6 9.8 9.8 0 0 1 0 19.6" fill="#c2e1ffD2"/><path d="M156.1-367.5a9.9 9.9 0 1 1 0-19.7 9.9 9.9 0 0 1 0 19.7" fill="#fff500D4"/><path d="M107 69a9.9 9.9 0 1 1 0-19.8 9.9 9.9 0 0 1 0 19.8" fill="#fff500D4"/><path d="M213.9-342.6a9.9 9.9 0 1 1 0-19.7 9.9 9.9 0 0 1 0 19.7" fill="#c2e1ffD4"/><path d="M195.9 46.3a9.9 9.9 0 1 1 0-19.8 9.9 9.9 0 0 1 0 19.8" fill="#fffD5"/><path d="M195.4 45.5a9.9 9.9 0 1 1 0-19.9 9.9 9.9 0 0 1 0 19.9" fill="#c2e1ffD5"/><path d="M281.7-29.9a10 10 0 1 1 0-19.9 10 10 0 0 1 0 19.9" fill="#005bbbD6"/><path d="M-106.4-82.1a10 10 0 1 1 0-20 10 10 0 0 1 0 20" fill="#005bbbD7"/><path d="M-24.6 24.8a10 10 0 1 1 0-20.1 10 10 0 0 1 0 20.1" fill="#c2e1ffD7"/><path d="M-94-248.5a10 10 0 1 1 0-20.1 10 10 0 0 1 0 20.1" fill="#fffD8"/><path d="M231.7 18.3a10.1 10.1 0 1 1 0-20.1 10.1 10.1 0 0 1 0 20.1" fill="#c2e1ffD8"/><path d="M185-349.8a10.1 10.1 0 1 1 0-20.2 10.1 10.1 0 0 1 0 20.2" fill="#005bbbD8"/><path d="M251.8-304.6a10.1 10.1 0 1 1 0-20.1 10.1 10.1 0 0 1 0 20.1" fill="#c2e1ffD8"/><path d="M-45.4-310.3a10.1 10.1 0 1 1 0-20.2 10.1 10.1 0 0 1 0 20.2" fill="#fff500D9"/><path d="M-62.7-290.2a10.1 10.1 0 1 1 0-20.3 10.1 10.1 0 0 1 0 20.3" fill="#fff500D9"/><path d="M172.7 47.2a10.2 10.2 0 1 1 0-20.3 10.2 10.2 0 0 1 0 20.3" fill="#c2e1ffDA"/><path d="M20 43.7a10.2 10.2 0 1 1 0-20.4 10.2 10.2 0 0 1 0 20.4" fill="#005bbbDA"/><path d="M-41.7 4.7a10.2 10.2 0 1 1 0-20.4 10.2 10.2 0 0 1 0 20.4" fill="#fff500DA"/><path d="M263.4-283.3a10.2 10.2 0 1 1 0-20.5 10.2 10.2 0 0 1 0 20.5" fill="#c2e1ffDC"/><path d="M173.6-347.9a10.2 10.2 0 1 1 0-20.4 10.2 10.2 0 0 1 0 20.4" fill="#005bbbDC"/><path d="M308.7-151.9a10.2 10.2 0 1 1 0-20.5 10.2 10.2 0 0 1 0 20.5" fill="#005bbbDC"/><path d="M-27.9-317a10.2 10.2 0 1 1 0-20.4 10.2 10.2 0 0 1 0 20.4" fill="#005bbbDC"/><path d="M214.8-320.6a10.4 10.4 0 1 1 0-20.7 10.4 10.4 0 0 1 0 20.7" fill="#fff500DE"/><path d="M161.3 40.6a10.4 10.4 0 1 1 0-20.8 10.4 10.4 0 0 1 0 20.8" fill="#fff500DF"/><path d="M-75.9-52.7a10.4 10.4 0 1 1 0-20.8 10.4 10.4 0 0 1 0 20.8" fill="#fffDF"/><path d="M301.1-164.8a10.4 10.4 0 1 1 0-20.8 10.4 10.4 0 0 1 0 20.8" fill="#c2e1ffDF"/><path d="M184.8-334.2a10.4 10.4 0 1 1 0-20.8 10.4 10.4 0 0 1 0 20.8" fill="#fffE0"/><path d="M5-324.9a10.5 10.5 0 1 1 0-21 10.5 10.5 0 0 1 0 21" fill="#fffE1"/><path d="M251.8-275.7a10.5 10.5 0 1 1 0-21.1 10.5 10.5 0 0 1 0 21.1" fill="#005bbbE2"/><path d="M-83.9-108.5a10.6 10.6 0 1 1 0-21.3 10.6 10.6 0 0 1 0 21.3" fill="#c2e1ffE5"/><path d="M-56.8-49.7a10.7 10.7 0 1 1 0-21.3 10.7 10.7 0 0 1 0 21.3" fill="#fff500E5"/><path d="M57 26.8a10.7 10.7 0 1 1 0-21.4 10.7 10.7 0 0 1 0 21.4" fill="#fff500E6"/><path d="M-66.6-218.7a10.8 10.8 0 1 1 0-21.5 10.8 10.8 0 0 1 0 21.5" fill="#c2e1ffE8"/><path d="M273.1-107.1a10.8 10.8 0 1 1 0-21.6 10.8 10.8 0 0 1 0 21.6" fill="#005bbbE8"/><path d="M63.7-322.6a10.8 10.8 0 1 1 0-21.7 10.8 10.8 0 0 1 0 21.7" fill="#fffE9"/><path d="M-65-94a10.8 10.8 0 1 1 0-21.7 10.8 10.8 0 0 1 0 21.7" fill="#c2e1ffE9"/><path d="M-65.8-202.3a10.9 10.9 0 1 1 0-21.7 10.9 10.9 0 0 1 0 21.7" fill="#fffEA"/><path d="M-32.6-44.4a10.9 10.9 0 1 1 0-21.8 10.9 10.9 0 0 1 0 21.8" fill="#fffEA"/><path d="M33.2-1.4a11 11 0 1 1 0-22 11 11 0 0 1 0 22" fill="#c2e1ffEC"/><path d="M102.8 9.2a11 11 0 1 1 0-22.1 11 11 0 0 1 0 22.1" fill="#fffED"/><path d="M-51.9-181.7a11.1 11.1 0 1 1 0-22.2 11.1 11.1 0 0 1 0 22.2" fill="#fffEF"/><path d="M176.2-16.8a11.1 11.1 0 1 1 0-22.2 11.1 11.1 0 0 1 0 22.2" fill="#c2e1ffEF"/><path d="M227.3-64a11.1 11.1 0 1 1 0-22.2 11.1 11.1 0 0 1 0 22.2" fill="#fff500EF"/><path d="M249.7-115a11.1 11.1 0 1 1 0-22.2 11.1 11.1 0 0 1 0 22.2" fill="#005bbbEF"/><path d="M215.1-58.3a11.2 11.2 0 1 1 0-22.3 11.2 11.2 0 0 1 0 22.3" fill="#c2e1ffF0"/><path d="M54.6-286.8a11.2 11.2 0 1 1 0-22.5 11.2 11.2 0 0 1 0 22.5" fill="#fffF1"/><path d="M-32.3-203.8a11.2 11.2 0 1 1 0-22.4 11.2 11.2 0 0 1 0 22.4" fill="#fffF1"/><path d="M177.9-269.1a11.2 11.2 0 1 1 0-22.4 11.2 11.2 0 0 1 0 22.4" fill="#c2e1ffF2"/><path d="M220.6-212.4a11.3 11.3 0 1 1 0-22.5 11.3 11.3 0 0 1 0 22.5" fill="#005bbbF3"/><path d="M-25.9-113a11.3 11.3 0 1 1 0-22.6 11.3 11.3 0 0 1 0 22.6" fill="#fff500F3"/><path d="M145.3-270.1a11.3 11.3 0 1 1 0-22.7 11.3 11.3 0 0 1 0 22.7" fill="#fff500F4"/><path d="M192.5-231.4a11.4 11.4 0 1 1 0-22.8 11.4 11.4 0 0 1 0 22.8" fill="#c2e1ffF5"/><path d="M77.7-268.2a11.4 11.4 0 1 1 0-22.9 11.4 11.4 0 0 1 0 22.9" fill="#c2e1ffF6"/><path d="M27.2-83.6a11.5 11.5 0 1 1 0-23 11.5 11.5 0 0 1 0 23" fill="#fff500F8"/><path d="M17.7-193.9a11.6 11.6 0 1 1 0-23.1 11.6 11.6 0 0 1 0 23.1" fill="#005bbbF9"/><path d="M169.8-90.5a11.6 11.6 0 1 1 0-23.2 11.6 11.6 0 0 1 0 23.2" fill="#005bbbF9"/><path d="M49.1-225.3a11.6 11.6 0 1 1 0-23.2 11.6 11.6 0 0 1 0 23.2" fill="#005bbbFA"/><path d="M94.8-60.9a11.6 11.6 0 1 1 0-23.2 11.6 11.6 0 0 1 0 23.2" fill="#fffFA"/><path d="M155.5-80.4a11.6 11.6 0 1 1 0-23.2 11.6 11.6 0 0 1 0 23.2" fill="#fffFA"/><path d="M183.4-119.6a11.6 11.6 0 1 1 0-23.2 11.6 11.6 0 0 1 0 23.2" fill="#fff500FA"/><path d="M22.1-110.8a11.6 11.6 0 1 1 0-23.2 11.6 11.6 0 0 1 0 23.2" fill="#fffFA"/><path d="M160.1-90.4a11.6 11.6 0 1 1 0-23.2 11.6 11.6 0 0 1 0 23.2" fill="#fffFA"/><path d="M180.1-164.6a11.6 11.6 0 1 1 0-23.2 11.6 11.6 0 0 1 0 23.2" fill="#fff500FB"/><path d="M174.1-157.4a11.7 11.7 0 1 1 0-23.3 11.7 11.7 0 0 1 0 23.3" fill="#fff500FB"/><path d="M162.4-118.1a11.7 11.7 0 1 1 0-23.3 11.7 11.7 0 0 1 0 23.3" fill="#005bbbFC"/><path d="M108.4-82.6a11.7 11.7 0 1 1 0-23.4 11.7 11.7 0 0 1 0 23.4" fill="#c2e1ffFC"/><path d="M62.2-192.8a11.7 11.7 0 1 1 0-23.4 11.7 11.7 0 0 1 0 23.4" fill="#005bbbFD"/><path d="M125.6-111.4a11.8 11.8 0 1 1 0-23.5 11.8 11.8 0 0 1 0 23.5" fill="#005bbbFD"/><path d="M97.3-177a11.8 11.8 0 1 1 0-23.5 11.8 11.8 0 0 1 0 23.5" fill="#005bbbFE"/><path d="M88.3-165.9a11.8 11.8 0 1 1 0-23.6 11.8 11.8 0 0 1 0 23.6" fill="#005bbbFE"/><path d="M113.9-157.6a11.8 11.8 0 1 1 0-23.6 11.8 11.8 0 0 1 0 23.6" fill="#005bbbFE"/></g></svg>