<svg width="1200" height="675" viewBox="-500 -500 1200 675" xmlns="http://www.w3.org/2000/svg"><path d="M-500-500h1200v675h-1200z" fill="#000"/><style>.sparkles path{stroke-linecap:round; stroke-width:1}</style><g class="sparkles"><path d="M100-162.5l-32.1-3.8" stroke="#fff32"/><path d="M100-162.5l7.3 33.5" stroke="#fff32"/><path d="M100-162.5l65.6 18" stroke="#c2e1ff34"/><path d="M100-162.5l65.8 21.1" stroke="#005bbb34"/><path d="M100-162.5l66.1 30.8" stroke="#005bbb34"/><path d="M100-162.5l-78.8 9" stroke="#005bbb34"/><path d="M100-162.5l-30 77.3" stroke="#005bbb35"/><path d="M100-162.5l59.5 66.8" stroke="#005bbb35"/><path d="M100-162.5l92.2-25.8" stroke="#c2e1ff36"/><path d="M100-162.5l-60.1 79.8" stroke="#005bbb36"/><path d="M100-162.5l-83.6-81.2" stroke="#fff38"/><path d="M100-162.5l-2.9 117.5" stroke="#005bbb38"/><path d="M100-162.5l-109.3 50.3" stroke="#c2e1ff38"/><path d="M100-162.5l14.7-137.1" stroke="#c2e1ff3B"/><path d="M100-162.5l119.5 78.3" stroke="#fff5003C"/><path d="M100-162.5l-59.5 132.7" stroke="#fff5003C"/><path d="M100-162.5l-19-144.9" stroke="#fff5003C"/><path d="M100-162.5l-147.1-7" stroke="#fff3C"/><path d="M100-162.5l-143.2-68" stroke="#fff5003E"/><path d="M100-162.5l-90.2 132.2" stroke="#005bbb3F"/><path d="M100-162.5l154.8-41.4" stroke="#005bbb3F"/><path d="M100-162.5l149.9-64.5" stroke="#c2e1ff3F"/><path d="M100-162.5l-163.1-26.6" stroke="#005bbb40"/><path d="M100-162.5l-135.3-97.5" stroke="#fff40"/><path d="M100-162.5l-59.1 160.8" stroke="#fff41"/><path d="M100-162.5l102.1-143.6" stroke="#c2e1ff42"/><path d="M100-162.5l-123.6 130.2" stroke="#c2e1ff43"/><path d="M100-162.5l179.1 17.6" stroke="#c2e1ff43"/><path d="M100-162.5l-133 121.5" stroke="#005bbb43"/><path d="M100-162.5l-132.8 124.3" stroke="#005bbb44"/><path d="M100-162.5l176.8-43.4" stroke="#fff50044"/><path d="M100-162.5l88.2 159.3" stroke="#fff44"/><path d="M100-162.5l-152.2-104.7" stroke="#c2e1ff44"/><path d="M100-162.5l-152.8-106" stroke="#fff45"/><path d="M100-162.5l151.2-114.1" stroke="#fff50046"/><path d="M100-162.5l-156 110.1" stroke="#c2e1ff46"/><path d="M100-162.5l164 104.7" stroke="#fff47"/><path d="M100-162.5l166.1 103.2" stroke="#fff47"/><path d="M100-162.5l182.2-75.2" stroke="#005bbb48"/><path d="M100-162.5l-63-189.5" stroke="#fff49"/><path d="M100-162.5l-155.6 126.2" stroke="#fff49"/><path d="M100-162.5l-130.4 152.8" stroke="#c2e1ff49"/><path d="M100-162.5l199.9 22.5" stroke="#fff49"/><path d="M100-162.5l195.3 57" stroke="#fff5004A"/><path d="M100-162.5l-133.2-154.1" stroke="#c2e1ff4A"/><path d="M100-162.5l190.2 76.2" stroke="#fff5004B"/><path d="M100-162.5l-168.7 116.6" stroke="#fff4B"/><path d="M100-162.5l-205.1-19.6" stroke="#c2e1ff4B"/><path d="M100-162.5l38.2 204.2" stroke="#005bbb4C"/><path d="M100-162.5l-117.4-175.1" stroke="#c2e1ff4D"/><path d="M100-162.5l-123.7-171.4" stroke="#fff5004D"/><path d="M100-162.5l164.1 134.4" stroke="#fff5004D"/><path d="M100-162.5l214.9 30" stroke="#c2e1ff50"/><path d="M100-162.5l-153.3 153.7" stroke="#005bbb50"/><path d="M100-162.5l212.2 47.2" stroke="#005bbb50"/><path d="M100-162.5l137.5-168.5" stroke="#005bbb50"/><path d="M100-162.5l115.9 185.6" stroke="#fff50051"/><path d="M100-162.5l-216.9-31" stroke="#005bbb51"/><path d="M100-162.5l-214.3 46.1" stroke="#fff50051"/><path d="M100-162.5l-153 158.3" stroke="#fff50051"/><path d="M100-162.5l136.1 174" stroke="#005bbb52"/><path d="M100-162.5l-105.4 196.2" stroke="#fff53"/><path d="M100-162.5l14.9-222.7" stroke="#005bbb53"/><path d="M100-162.5l223.1-6" stroke="#c2e1ff53"/><path d="M100-162.5l101.2-199.1" stroke="#c2e1ff53"/><path d="M100-162.5l219.1-51.7" stroke="#fff54"/><path d="M100-162.5l-203.2-98.3" stroke="#fff50055"/><path d="M100-162.5l202.3-100.1" stroke="#fff50055"/><path d="M100-162.5l220-51.7" stroke="#005bbb55"/><path d="M100-162.5l-157.9-161.9" stroke="#c2e1ff55"/><path d="M100-162.5l52.5-221.5" stroke="#c2e1ff56"/><path d="M100-162.5l-8.5 227.6" stroke="#005bbb56"/><path d="M100-162.5l135.6-183.5" stroke="#c2e1ff57"/><path d="M100-162.5l-139.8-180.4" stroke="#c2e1ff57"/><path d="M100-162.5l116.1 198.6" stroke="#005bbb58"/><path d="M100-162.5l221.3 63.1" stroke="#005bbb58"/><path d="M100-162.5l230.2 0" stroke="#fff58"/><path d="M100-162.5l117.8 198.2" stroke="#c2e1ff59"/><path d="M100-162.5l-207.4 104.2" stroke="#005bbb5A"/><path d="M100-162.5l-231.9 10.8" stroke="#fff5005A"/><path d="M100-162.5l-43.6-228.1" stroke="#fff5A"/><path d="M100-162.5l-52.4-226.8" stroke="#005bbb5B"/><path d="M100-162.5l21.9 232.4" stroke="#005bbb5C"/><path d="M100-162.5l33.3 231.5" stroke="#c2e1ff5C"/><path d="M100-162.5l-192.3 133.1" stroke="#fff5005C"/><path d="M100-162.5l-206.7 109.5" stroke="#005bbb5C"/><path d="M100-162.5l-93.8 214.9" stroke="#005bbb5D"/><path d="M100-162.5l-230.4 45.5" stroke="#005bbb5E"/><path d="M100-162.5l-231.5 40.9" stroke="#fff5F"/><path d="M100-162.5l220.8-81.4" stroke="#c2e1ff5F"/><path d="M100-162.5l11.4 235.1" stroke="#fff5F"/><path d="M100-162.5l13.2-235" stroke="#005bbb5F"/><path d="M100-162.5l203.7-118" stroke="#fff5005F"/><path d="M100-162.5l84 220.3" stroke="#fff50060"/><path d="M100-162.5l177.3 155.5" stroke="#fff50061"/><path d="M100-162.5l-225.8-68.3" stroke="#fff50061"/><path d="M100-162.5l-88.5-218.7" stroke="#fff50061"/><path d="M100-162.5l9.8-235.8" stroke="#fff61"/><path d="M100-162.5l207.7-112.3" stroke="#fff62"/><path d="M100-162.5l31.2 234.1" stroke="#fff50062"/><path d="M100-162.5l-34-233.8" stroke="#c2e1ff63"/><path d="M100-162.5l-150.3-182.2" stroke="#fff50064"/><path d="M100-162.5l103 212.4" stroke="#fff65"/><path d="M100-162.5l-207 113.5" stroke="#c2e1ff66"/><path d="M100-162.5l-183.7 148" stroke="#fff50066"/><path d="M100-162.5l42.3 231.4" stroke="#fff50068"/><path d="M100-162.5l212.7 99.5" stroke="#005bbb69"/><path d="M100-162.5l203.5 116.5" stroke="#fff5006A"/><path d="M100-162.5l89.2 216.8" stroke="#005bbb6A"/><path d="M100-162.5l-169.7 161.1" stroke="#005bbb6A"/><path d="M100-162.5l221.5 74.9" stroke="#005bbb6B"/><path d="M100-162.5l87.9-216.6" stroke="#005bbb6B"/><path d="M100-162.5l-2 233.6" stroke="#005bbb6B"/><path d="M100-162.5l-230.6 37.1" stroke="#c2e1ff6B"/><path d="M100-162.5l149.2 179.4" stroke="#fff6B"/><path d="M100-162.5l-27.9 231.6" stroke="#005bbb6B"/><path d="M100-162.5l233 8.8" stroke="#fff5006C"/><path d="M100-162.5l-230.7 33.3" stroke="#c2e1ff6C"/><path d="M100-162.5l73.2 220.9" stroke="#005bbb6C"/><path d="M100-162.5l219.4-76.4" stroke="#fff6D"/><path d="M100-162.5l224.9 57.4" stroke="#c2e1ff6D"/><path d="M100-162.5l216.8-79.8" stroke="#c2e1ff6E"/><path d="M100-162.5l63.1-221.5" stroke="#fff6F"/><path d="M100-162.5l93.2-210.5" stroke="#fff5006F"/><path d="M100-162.5l174.5-149.3" stroke="#c2e1ff6F"/><path d="M100-162.5l2.6 228.5" stroke="#fff50070"/><path d="M100-162.5l-66.7 218.2" stroke="#005bbb70"/><path d="M100-162.5l-136 182.7" stroke="#005bbb71"/><path d="M100-162.5l147.4 173.4" stroke="#c2e1ff71"/><path d="M100-162.5l-120.1 192.9" stroke="#c2e1ff71"/><path d="M100-162.5l85.8-209" stroke="#fff72"/><path d="M100-162.5l-115.8-193.1" stroke="#c2e1ff73"/><path d="M100-162.5l216.6-60.8" stroke="#fff73"/><path d="M100-162.5l-194.7 111.8" stroke="#c2e1ff73"/><path d="M100-162.5l96.9-201.1" stroke="#005bbb74"/><path d="M100-162.5l22.7-220" stroke="#fff50075"/><path d="M100-162.5l-188.5-106.4" stroke="#005bbb78"/><path d="M100-162.5l-212.5 26.9" stroke="#005bbb79"/><path d="M100-162.5l206.6-52.2" stroke="#fff79"/><path d="M100-162.5l-10.4-209.1" stroke="#fff5007B"/><path d="M100-162.5l-38-204.8" stroke="#005bbb7B"/><path d="M100-162.5l202.9-44.9" stroke="#fff7B"/><path d="M100-162.5l-180-100.6" stroke="#005bbb7C"/><path d="M100-162.5l-75.1 191.4" stroke="#fff5007C"/><path d="M100-162.5l-205.5-4.5" stroke="#fff5007C"/><path d="M100-162.5l-195.1 41.9" stroke="#fff5007E"/><path d="M100-162.5l-57.2-189.8" stroke="#005bbb7F"/><path d="M100-162.5l-66.9 186.5" stroke="#fff7F"/><path d="M100-162.5l49.9 191" stroke="#fff7F"/><path d="M100-162.5l155.2-119.8" stroke="#c2e1ff7F"/><path d="M100-162.5l181.1 70.3" stroke="#005bbb80"/><path d="M100-162.5l-179.9 66" stroke="#c2e1ff81"/><path d="M100-162.5l-154.5-109.3" stroke="#fff81"/><path d="M100-162.5l-161.1 98.9" stroke="#005bbb81"/><path d="M100-162.5l-12.6-187.1" stroke="#fff50082"/><path d="M100-162.5l117.9-145.3" stroke="#005bbb82"/><path d="M100-162.5l112.4-146.4" stroke="#c2e1ff83"/><path d="M100-162.5l-43.2 175.2" stroke="#fff84"/><path d="M100-162.5l180.2 8.7" stroke="#c2e1ff84"/><path d="M100-162.5l-8.1-179.4" stroke="#fff84"/><path d="M100-162.5l-115 137.4" stroke="#005bbb84"/><path d="M100-162.5l176 14.9" stroke="#fff85"/><path d="M100-162.5l14.3-175.3" stroke="#fff50085"/><path d="M100-162.5l42.3 168.3" stroke="#c2e1ff85"/><path d="M100-162.5l-149.8-81" stroke="#005bbb86"/><path d="M100-162.5l42.4 164.5" stroke="#c2e1ff86"/><path d="M100-162.5l-165.1 26.6" stroke="#fff50087"/><path d="M100-162.5l-117.6 118.2" stroke="#005bbb87"/><path d="M100-162.5l97.4 134.8" stroke="#c2e1ff87"/><path d="M100-162.5l-152.3 55.6" stroke="#c2e1ff88"/><path d="M100-162.5l-146.5 67" stroke="#fff88"/><path d="M100-162.5l-156.5 18.2" stroke="#fff50089"/><path d="M100-162.5l-121.8 2.6" stroke="#005bbb8E"/><path d="M100-162.5l2.3 113.3" stroke="#fff5008F"/><path d="M100-162.5l-110.7 22.4" stroke="#c2e1ff8F"/><path d="M100-162.5l-6.4 101.2" stroke="#005bbb91"/><path d="M100-162.5l-5.4 96.4" stroke="#c2e1ff91"/><path d="M100-162.5l71.8-54.2" stroke="#c2e1ff92"/><path d="M100-162.5l-58.6 57.7" stroke="#fff92"/><path d="M100-162.5l-59.2 36.1" stroke="#005bbb93"/><path d="M100-162.5l-31.6-23.5" stroke="#fff50095"/></g><g class="sparcs"><path d="M67.9-160.4a5.9 5.9 0 1 1 0-11.8 5.9 5.9 0 0 1 0 11.8" fill="#c2e1ff7D"/><path d="M107.3-123a5.9 5.9 0 1 1 0-11.9 5.9 5.9 0 0 1 0 11.9" fill="#fff5007D"/><path d="M165.6-138.5a6 6 0 1 1 0-12 6 6 0 0 1 0 12" fill="#005bbb7F"/><path d="M165.8-135.4a6 6 0 1 1 0-12 6 6 0 0 1 0 12" fill="#005bbb7F"/><path d="M166.1-125.6a6.1 6.1 0 1 1 0-12.1 6.1 6.1 0 0 1 0 12.1" fill="#005bbb80"/><path d="M21.2-147.5a6.1 6.1 0 1 1 0-12.1 6.1 6.1 0 0 1 0 12.1" fill="#c2e1ff80"/><path d="M70-79.1a6.1 6.1 0 1 1 0-12.2 6.1 6.1 0 0 1 0 12.2" fill="#005bbb81"/><path d="M159.5-89.6a6.1 6.1 0 1 1 0-12.2 6.1 6.1 0 0 1 0 12.2" fill="#fff50081"/><path d="M192.2-182.1a6.2 6.2 0 1 1 0-12.3 6.2 6.2 0 0 1 0 12.3" fill="#005bbb82"/><path d="M39.9-76.5a6.2 6.2 0 1 1 0-12.3 6.2 6.2 0 0 1 0 12.3" fill="#fff50083"/><path d="M16.4-237.4a6.3 6.3 0 1 1 0-12.6 6.3 6.3 0 0 1 0 12.6" fill="#fff50085"/><path d="M97.1-38.7a6.3 6.3 0 1 1 0-12.6 6.3 6.3 0 0 1 0 12.6" fill="#fff85"/><path d="M-9.3-105.9a6.3 6.3 0 1 1 0-12.6 6.3 6.3 0 0 1 0 12.6" fill="#c2e1ff86"/><path d="M114.7-293.2a6.5 6.5 0 1 1 0-12.9 6.5 6.5 0 0 1 0 12.9" fill="#fff50089"/><path d="M219.5-77.7a6.5 6.5 0 1 1 0-13.1 6.5 6.5 0 0 1 0 13.1" fill="#fff5008A"/><path d="M40.5-23.3a6.5 6.5 0 1 1 0-13 6.5 6.5 0 0 1 0 13" fill="#c2e1ff8A"/><path d="M81-300.8a6.5 6.5 0 1 1 0-13.1 6.5 6.5 0 0 1 0 13.1" fill="#c2e1ff8A"/><path d="M-47.1-162.9a6.6 6.6 0 1 1 0-13.1 6.6 6.6 0 0 1 0 13.1" fill="#c2e1ff8B"/><path d="M-43.2-223.9a6.7 6.7 0 1 1 0-13.3 6.7 6.7 0 0 1 0 13.3" fill="#c2e1ff8D"/><path d="M9.8-23.6a6.7 6.7 0 1 1 0-13.4 6.7 6.7 0 0 1 0 13.4" fill="#fff8E"/><path d="M254.8-197.2a6.7 6.7 0 1 1 0-13.4 6.7 6.7 0 0 1 0 13.4" fill="#005bbb8E"/><path d="M249.9-220.3a6.7 6.7 0 1 1 0-13.4 6.7 6.7 0 0 1 0 13.4" fill="#fff8F"/><path d="M-63.1-182.3a6.7 6.7 0 1 1 0-13.5 6.7 6.7 0 0 1 0 13.5" fill="#fff5008F"/><path d="M-35.3-253.2a6.8 6.8 0 1 1 0-13.6 6.8 6.8 0 0 1 0 13.6" fill="#fff8F"/><path d="M40.9 5.1a6.8 6.8 0 1 1 0-13.7 6.8 6.8 0 0 1 0 13.7" fill="#fff50091"/><path d="M202.1-299.2a6.9 6.9 0 1 1 0-13.8 6.9 6.9 0 0 1 0 13.8" fill="#c2e1ff92"/><path d="M-23.6-25.4a6.9 6.9 0 1 1 0-13.8 6.9 6.9 0 0 1 0 13.8" fill="#fff50093"/><path d="M279.1-137.9a6.9 6.9 0 1 1 0-13.9 6.9 6.9 0 0 1 0 13.9" fill="#fff93"/><path d="M-33-34.1a6.9 6.9 0 1 1 0-13.9 6.9 6.9 0 0 1 0 13.9" fill="#fff93"/><path d="M-32.8-31.2a7 7 0 1 1 0-14 7 7 0 0 1 0 14" fill="#c2e1ff94"/><path d="M276.8-199a7 7 0 1 1 0-13.9 7 7 0 0 1 0 13.9" fill="#005bbb94"/><path d="M188.2 3.8a7 7 0 1 1 0-13.9 7 7 0 0 1 0 13.9" fill="#c2e1ff94"/><path d="M-52.2-260.2a7 7 0 1 1 0-14.1 7 7 0 0 1 0 14.1" fill="#fff95"/><path d="M-52.8-261.4a7 7 0 1 1 0-14.1 7 7 0 0 1 0 14.1" fill="#fff50095"/><path d="M251.2-269.5a7.1 7.1 0 1 1 0-14.1 7.1 7.1 0 0 1 0 14.1" fill="#c2e1ff97"/><path d="M-56-45.3a7.1 7.1 0 1 1 0-14.2 7.1 7.1 0 0 1 0 14.2" fill="#fff50097"/><path d="M264-50.6a7.2 7.2 0 1 1 0-14.4 7.2 7.2 0 0 1 0 14.4" fill="#fff99"/><path d="M266.1-52.1a7.2 7.2 0 1 1 0-14.4 7.2 7.2 0 0 1 0 14.4" fill="#c2e1ff99"/><path d="M282.2-230.4a7.2 7.2 0 1 1 0-14.5 7.2 7.2 0 0 1 0 14.5" fill="#fff9A"/><path d="M37-344.7a7.3 7.3 0 1 1 0-14.6 7.3 7.3 0 0 1 0 14.6" fill="#fff5009B"/><path d="M-55.6-29a7.3 7.3 0 1 1 0-14.6 7.3 7.3 0 0 1 0 14.6" fill="#fff5009B"/><path d="M-30.4-2.4a7.3 7.3 0 1 1 0-14.6 7.3 7.3 0 0 1 0 14.6" fill="#fff9B"/><path d="M299.9-132.7a7.3 7.3 0 1 1 0-14.6 7.3 7.3 0 0 1 0 14.6" fill="#fff5009B"/><path d="M295.3-98.2a7.4 7.4 0 1 1 0-14.7 7.4 7.4 0 0 1 0 14.7" fill="#fff9C"/><path d="M-33.2-309.2a7.4 7.4 0 1 1 0-14.7 7.4 7.4 0 0 1 0 14.7" fill="#c2e1ff9D"/><path d="M290.2-78.9a7.4 7.4 0 1 1 0-14.8 7.4 7.4 0 0 1 0 14.8" fill="#fff5009D"/><path d="M-68.7-38.5a7.4 7.4 0 1 1 0-14.7 7.4 7.4 0 0 1 0 14.7" fill="#c2e1ff9D"/><path d="M-105.1-174.7a7.4 7.4 0 1 1 0-14.9 7.4 7.4 0 0 1 0 14.9" fill="#c2e1ff9E"/><path d="M138.2 49.1a7.5 7.5 0 1 1 0-14.9 7.5 7.5 0 0 1 0 14.9" fill="#005bbb9F"/><path d="M-17.4-330a7.5 7.5 0 1 1 0-15.1 7.5 7.5 0 0 1 0 15.1" fill="#c2e1ffA0"/><path d="M-23.7-326.4a7.5 7.5 0 1 1 0-15.1 7.5 7.5 0 0 1 0 15.1" fill="#c2e1ffA0"/><path d="M264.1-20.6a7.6 7.6 0 1 1 0-15.1 7.6 7.6 0 0 1 0 15.1" fill="#fffA1"/><path d="M314.9-124.8a7.7 7.7 0 1 1 0-15.4 7.7 7.7 0 0 1 0 15.4" fill="#fff500A4"/><path d="M-53.3-1.1a7.7 7.7 0 1 1 0-15.4 7.7 7.7 0 0 1 0 15.4" fill="#fff500A4"/><path d="M312.2-107.6a7.7 7.7 0 1 1 0-15.4 7.7 7.7 0 0 1 0 15.4" fill="#005bbbA4"/><path d="M237.5-323.3a7.7 7.7 0 1 1 0-15.4 7.7 7.7 0 0 1 0 15.4" fill="#fffA4"/><path d="M215.9 30.9a7.7 7.7 0 1 1 0-15.5 7.7 7.7 0 0 1 0 15.5" fill="#c2e1ffA5"/><path d="M-116.9-185.7a7.8 7.8 0 1 1 0-15.6 7.8 7.8 0 0 1 0 15.6" fill="#005bbbA5"/><path d="M-114.3-108.7a7.8 7.8 0 1 1 0-15.5 7.8 7.8 0 0 1 0 15.5" fill="#fff500A5"/><path d="M-53 3.6a7.8 7.8 0 1 1 0-15.6 7.8 7.8 0 0 1 0 15.6" fill="#005bbbA6"/><path d="M236.1 19.3a7.8 7.8 0 1 1 0-15.6 7.8 7.8 0 0 1 0 15.6" fill="#c2e1ffA6"/><path d="M-5.4 41.6a7.9 7.9 0 1 1 0-15.7 7.9 7.9 0 0 1 0 15.7" fill="#fff500A8"/><path d="M114.9-377.3a7.9 7.9 0 1 1 0-15.8 7.9 7.9 0 0 1 0 15.8" fill="#005bbbA8"/><path d="M323.1-160.6a7.9 7.9 0 1 1 0-15.8 7.9 7.9 0 0 1 0 15.8" fill="#fffA8"/><path d="M201.2-353.7a7.9 7.9 0 1 1 0-15.8 7.9 7.9 0 0 1 0 15.8" fill="#c2e1ffA8"/><path d="M319.1-206.2a8 8 0 1 1 0-15.9 8 8 0 0 1 0 15.9" fill="#fffAA"/><path d="M-103.2-252.8a8 8 0 1 1 0-15.9 8 8 0 0 1 0 15.9" fill="#c2e1ffAA"/><path d="M302.3-254.6a8 8 0 1 1 0-16 8 8 0 0 1 0 16" fill="#005bbbAA"/><path d="M320-206.2a8 8 0 1 1 0-16 8 8 0 0 1 0 16" fill="#005bbbAB"/><path d="M-57.9-316.4a8 8 0 1 1 0-16 8 8 0 0 1 0 16" fill="#fffAB"/><path d="M152.5-375.9a8.1 8.1 0 1 1 0-16.1 8.1 8.1 0 0 1 0 16.1" fill="#fffAC"/><path d="M91.5 73.2a8.1 8.1 0 1 1 0-16.1 8.1 8.1 0 0 1 0 16.1" fill="#fffAC"/><path d="M235.6-337.9a8.1 8.1 0 1 1 0-16.2 8.1 8.1 0 0 1 0 16.2" fill="#fff500AD"/><path d="M-39.8-334.8a8.1 8.1 0 1 1 0-16.2 8.1 8.1 0 0 1 0 16.2" fill="#005bbbAD"/><path d="M216.1 44.2a8.2 8.2 0 1 1 0-16.3 8.2 8.2 0 0 1 0 16.3" fill="#fffAF"/><path d="M321.3-91.2a8.2 8.2 0 1 1 0-16.4 8.2 8.2 0 0 1 0 16.4" fill="#fff500AF"/><path d="M330.2-154.3a8.2 8.2 0 1 1 0-16.4 8.2 8.2 0 0 1 0 16.4" fill="#005bbbAF"/><path d="M217.8 44a8.2 8.2 0 1 1 0-16.5 8.2 8.2 0 0 1 0 16.5" fill="#005bbbAF"/><path d="M-107.4-50a8.3 8.3 0 1 1 0-16.6 8.3 8.3 0 0 1 0 16.6" fill="#fff500B1"/><path d="M-131.9-143.4a8.3 8.3 0 1 1 0-16.7 8.3 8.3 0 0 1 0 16.7" fill="#c2e1ffB2"/><path d="M56.4-382.3a8.3 8.3 0 1 1 0-16.6 8.3 8.3 0 0 1 0 16.6" fill="#005bbbB2"/><path d="M47.6-380.9a8.4 8.4 0 1 1 0-16.8 8.4 8.4 0 0 1 0 16.8" fill="#c2e1ffB2"/><path d="M121.9 78.3a8.4 8.4 0 1 1 0-16.8 8.4 8.4 0 0 1 0 16.8" fill="#fffB4"/><path d="M133.3 77.4a8.4 8.4 0 1 1 0-16.8 8.4 8.4 0 0 1 0 16.8" fill="#fffB4"/><path d="M-92.3-20.9a8.4 8.4 0 1 1 0-16.9 8.4 8.4 0 0 1 0 16.9" fill="#fffB4"/><path d="M-106.7-44.6a8.4 8.4 0 1 1 0-16.8 8.4 8.4 0 0 1 0 16.8" fill="#c2e1ffB4"/><path d="M6.2 60.9a8.5 8.5 0 1 1 0-17 8.5 8.5 0 0 1 0 17" fill="#c2e1ffB6"/><path d="M-130.4-108.4a8.5 8.5 0 1 1 0-17.1 8.5 8.5 0 0 1 0 17.1" fill="#fffB6"/><path d="M-131.5-113a8.6 8.6 0 1 1 0-17.2 8.6 8.6 0 0 1 0 17.2" fill="#c2e1ffB7"/><path d="M320.8-235.3a8.6 8.6 0 1 1 0-17.2 8.6 8.6 0 0 1 0 17.2" fill="#fffB8"/><path d="M111.4 81.2a8.6 8.6 0 1 1 0-17.2 8.6 8.6 0 0 1 0 17.2" fill="#c2e1ffB8"/><path d="M113.2-388.9a8.6 8.6 0 1 1 0-17.3 8.6 8.6 0 0 1 0 17.3" fill="#fff500B8"/><path d="M303.7-271.9a8.6 8.6 0 1 1 0-17.2 8.6 8.6 0 0 1 0 17.2" fill="#005bbbB8"/><path d="M184 66.5a8.7 8.7 0 1 1 0-17.4 8.7 8.7 0 0 1 0 17.4" fill="#c2e1ffB9"/><path d="M277.3 1.7a8.7 8.7 0 1 1 0-17.4 8.7 8.7 0 0 1 0 17.4" fill="#fff500BA"/><path d="M-125.8-222.1a8.7 8.7 0 1 1 0-17.4 8.7 8.7 0 0 1 0 17.4" fill="#fffBA"/><path d="M11.5-372.5a8.7 8.7 0 1 1 0-17.4 8.7 8.7 0 0 1 0 17.4" fill="#fffBA"/><path d="M109.8-389.6a8.7 8.7 0 1 1 0-17.5 8.7 8.7 0 0 1 0 17.5" fill="#c2e1ffBB"/><path d="M307.7-266.1a8.8 8.8 0 1 1 0-17.5 8.8 8.8 0 0 1 0 17.5" fill="#fffBB"/><path d="M131.2 80.4a8.8 8.8 0 1 1 0-17.6 8.8 8.8 0 0 1 0 17.6" fill="#c2e1ffBC"/><path d="M66-387.5a8.8 8.8 0 1 1 0-17.6 8.8 8.8 0 0 1 0 17.6" fill="#fff500BD"/><path d="M-50.3-335.8a8.9 8.9 0 1 1 0-17.9 8.9 8.9 0 0 1 0 17.9" fill="#fff500BF"/><path d="M203 58.9a9 9 0 1 1 0-18 9 9 0 0 1 0 18" fill="#c2e1ffC0"/><path d="M-107-40a9 9 0 1 1 0-18 9 9 0 0 1 0 18" fill="#c2e1ffC0"/><path d="M-83.7-5.5a9 9 0 1 1 0-18 9 9 0 0 1 0 18" fill="#005bbbC1"/><path d="M142.3 78a9.1 9.1 0 1 1 0-18.2 9.1 9.1 0 0 1 0 18.2" fill="#fffC4"/><path d="M312.7-53.8a9.2 9.2 0 1 1 0-18.4 9.2 9.2 0 0 1 0 18.4" fill="#c2e1ffC5"/><path d="M303.5-36.7a9.2 9.2 0 1 1 0-18.5 9.2 9.2 0 0 1 0 18.5" fill="#fff500C5"/><path d="M189.2 63.5a9.2 9.2 0 1 1 0-18.4 9.2 9.2 0 0 1 0 18.4" fill="#c2e1ffC6"/><path d="M-69.7 7.9a9.3 9.3 0 1 1 0-18.6 9.3 9.3 0 0 1 0 18.6" fill="#fffC6"/><path d="M321.5-78.3a9.3 9.3 0 1 1 0-18.5 9.3 9.3 0 0 1 0 18.5" fill="#fffC7"/><path d="M187.9-369.9a9.3 9.3 0 1 1 0-18.5 9.3 9.3 0 0 1 0 18.5" fill="#fff500C7"/><path d="M98 80.4a9.3 9.3 0 1 1 0-18.6 9.3 9.3 0 0 1 0 18.6" fill="#c2e1ffC7"/><path d="M-130.6-116.1a9.3 9.3 0 1 1 0-18.7 9.3 9.3 0 0 1 0 18.7" fill="#fffC7"/><path d="M249.2 26.3a9.3 9.3 0 1 1 0-18.7 9.3 9.3 0 0 1 0 18.7" fill="#fff500C8"/><path d="M72.1 78.4a9.3 9.3 0 1 1 0-18.6 9.3 9.3 0 0 1 0 18.6" fill="#005bbbC8"/><path d="M333-144.3a9.3 9.3 0 1 1 0-18.7 9.3 9.3 0 0 1 0 18.7" fill="#005bbbC8"/><path d="M-130.7-119.9a9.3 9.3 0 1 1 0-18.7 9.3 9.3 0 0 1 0 18.7" fill="#005bbbC8"/><path d="M173.2 67.8a9.4 9.4 0 1 1 0-18.7 9.4 9.4 0 0 1 0 18.7" fill="#005bbbC9"/><path d="M319.4-229.5a9.4 9.4 0 1 1 0-18.8 9.4 9.4 0 0 1 0 18.8" fill="#005bbbC9"/><path d="M324.9-95.7a9.4 9.4 0 1 1 0-18.8 9.4 9.4 0 0 1 0 18.8" fill="#c2e1ffCA"/><path d="M316.8-232.8a9.5 9.5 0 1 1 0-18.9 9.5 9.5 0 0 1 0 18.9" fill="#005bbbCB"/><path d="M163.1-374.5a9.5 9.5 0 1 1 0-19 9.5 9.5 0 0 1 0 19" fill="#c2e1ffCC"/><path d="M193.2-363.4a9.5 9.5 0 1 1 0-19.1 9.5 9.5 0 0 1 0 19.1" fill="#c2e1ffCC"/><path d="M274.5-302.2a9.6 9.6 0 1 1 0-19.1 9.6 9.6 0 0 1 0 19.1" fill="#fffCD"/><path d="M102.6 75.6a9.6 9.6 0 1 1 0-19.2 9.6 9.6 0 0 1 0 19.2" fill="#fff500CE"/><path d="M33.3 65.3a9.6 9.6 0 1 1 0-19.2 9.6 9.6 0 0 1 0 19.2" fill="#fffCE"/><path d="M-36 29.8a9.6 9.6 0 1 1 0-19.3 9.6 9.6 0 0 1 0 19.3" fill="#005bbbCF"/><path d="M247.4 20.5a9.7 9.7 0 1 1 0-19.3 9.7 9.7 0 0 1 0 19.3" fill="#c2e1ffCF"/><path d="M-20.1 40.1a9.7 9.7 0 1 1 0-19.3 9.7 9.7 0 0 1 0 19.3" fill="#fff500CF"/><path d="M185.8-361.8a9.7 9.7 0 1 1 0-19.4 9.7 9.7 0 0 1 0 19.4" fill="#005bbbD0"/><path d="M-15.8-345.8a9.8 9.8 0 1 1 0-19.5 9.8 9.8 0 0 1 0 19.5" fill="#fff500D1"/><path d="M316.6-213.5a9.8 9.8 0 1 1 0-19.5 9.8 9.8 0 0 1 0 19.5" fill="#c2e1ffD1"/><path d="M-94.7-40.9a9.8 9.8 0 1 1 0-19.6 9.8 9.8 0 0 1 0 19.6" fill="#fff500D2"/><path d="M196.9-353.8a9.8 9.8 0 1 1 0-19.6 9.8 9.8 0 0 1 0 19.6" fill="#fffD3"/><path d="M122.7-372.6a9.9 9.9 0 1 1 0-19.8 9.9 9.9 0 0 1 0 19.8" fill="#fff500D4"/><path d="M-88.5-258.8a10 10 0 1 1 0-20.1 10 10 0 0 1 0 20.1" fill="#c2e1ffD8"/><path d="M-112.5-125.5a10.1 10.1 0 1 1 0-20.2 10.1 10.1 0 0 1 0 20.2" fill="#fff500D9"/><path d="M306.6-204.6a10.1 10.1 0 1 1 0-20.3 10.1 10.1 0 0 1 0 20.3" fill="#fffDA"/><path d="M89.6-361.4a10.2 10.2 0 1 1 0-20.4 10.2 10.2 0 0 1 0 20.4" fill="#fff500DC"/><path d="M62-357.1a10.3 10.3 0 1 1 0-20.5 10.3 10.3 0 0 1 0 20.5" fill="#fff500DC"/><path d="M302.9-197.2a10.3 10.3 0 1 1 0-20.5 10.3 10.3 0 0 1 0 20.5" fill="#fff500DC"/><path d="M-80-252.8a10.3 10.3 0 1 1 0-20.6 10.3 10.3 0 0 1 0 20.6" fill="#005bbbDD"/><path d="M24.9 39.2a10.3 10.3 0 1 1 0-20.6 10.3 10.3 0 0 1 0 20.6" fill="#005bbbDE"/><path d="M-105.5-156.7a10.3 10.3 0 1 1 0-20.7 10.3 10.3 0 0 1 0 20.7" fill="#fffDE"/><path d="M-95.1-110.2a10.4 10.4 0 1 1 0-20.9 10.4 10.4 0 0 1 0 20.9" fill="#fff500E0"/><path d="M42.8-341.9a10.5 10.5 0 1 1 0-20.9 10.5 10.5 0 0 1 0 20.9" fill="#fff500E1"/><path d="M33.1 34.5a10.5 10.5 0 1 1 0-20.9 10.5 10.5 0 0 1 0 20.9" fill="#c2e1ffE1"/><path d="M149.9 39a10.5 10.5 0 1 1 0-21 10.5 10.5 0 0 1 0 21" fill="#fff500E1"/><path d="M255.2-271.8a10.5 10.5 0 1 1 0-21.1 10.5 10.5 0 0 1 0 21.1" fill="#fffE2"/><path d="M281.1-81.7a10.5 10.5 0 1 1 0-21.1 10.5 10.5 0 0 1 0 21.1" fill="#fffE3"/><path d="M-79.9-85.9a10.6 10.6 0 1 1 0-21.2 10.6 10.6 0 0 1 0 21.2" fill="#c2e1ffE4"/><path d="M-54.5-261.2a10.6 10.6 0 1 1 0-21.3 10.6 10.6 0 0 1 0 21.3" fill="#005bbbE4"/><path d="M-61.1-53a10.6 10.6 0 1 1 0-21.2 10.6 10.6 0 0 1 0 21.2" fill="#c2e1ffE4"/><path d="M87.4-338.9a10.7 10.7 0 1 1 0-21.3 10.7 10.7 0 0 1 0 21.3" fill="#fffE5"/><path d="M217.9-297.2a10.7 10.7 0 1 1 0-21.3 10.7 10.7 0 0 1 0 21.3" fill="#fffE5"/><path d="M212.4-298.2a10.7 10.7 0 1 1 0-21.4 10.7 10.7 0 0 1 0 21.4" fill="#fff500E6"/><path d="M56.8 23.5a10.8 10.8 0 1 1 0-21.5 10.8 10.8 0 0 1 0 21.5" fill="#fff500E7"/><path d="M280.2-143.1a10.8 10.8 0 1 1 0-21.5 10.8 10.8 0 0 1 0 21.5" fill="#fffE7"/><path d="M91.9-331.1a10.8 10.8 0 1 1 0-21.6 10.8 10.8 0 0 1 0 21.6" fill="#005bbbE8"/><path d="M-15-14.3a10.8 10.8 0 1 1 0-21.6 10.8 10.8 0 0 1 0 21.6" fill="#005bbbE8"/><path d="M276-136.7a10.8 10.8 0 1 1 0-21.7 10.8 10.8 0 0 1 0 21.7" fill="#005bbbE9"/><path d="M114.3-327a10.8 10.8 0 1 1 0-21.7 10.8 10.8 0 0 1 0 21.7" fill="#fff500E9"/><path d="M142.3 16.6a10.9 10.9 0 1 1 0-21.7 10.9 10.9 0 0 1 0 21.7" fill="#005bbbEA"/><path d="M-49.8-232.6a10.9 10.9 0 1 1 0-21.8 10.9 10.9 0 0 1 0 21.8" fill="#fffEB"/><path d="M142.4 12.9a10.9 10.9 0 1 1 0-21.8 10.9 10.9 0 0 1 0 21.8" fill="#c2e1ffEB"/><path d="M-65.1-124.9a10.9 10.9 0 1 1 0-21.9 10.9 10.9 0 0 1 0 21.9" fill="#fffEB"/><path d="M-17.6-33.4a11 11 0 1 1 0-21.9 11 11 0 0 1 0 21.9" fill="#fffEC"/><path d="M197.4-16.7a11 11 0 1 1 0-21.9 11 11 0 0 1 0 21.9" fill="#fffEC"/><path d="M-52.3-95.9a11 11 0 1 1 0-22 11 11 0 0 1 0 22" fill="#c2e1ffED"/><path d="M-46.5-84.4a11 11 0 1 1 0-22.1 11 11 0 0 1 0 22.1" fill="#005bbbED"/><path d="M-56.5-133.2a11.1 11.1 0 1 1 0-22.1 11.1 11.1 0 0 1 0 22.1" fill="#fffEE"/><path d="M-21.8-148.5a11.4 11.4 0 1 1 0-22.8 11.4 11.4 0 0 1 0 22.8" fill="#fff500F5"/><path d="M102.3-37.7a11.5 11.5 0 1 1 0-22.9 11.5 11.5 0 0 1 0 22.9" fill="#c2e1ffF7"/><path d="M-10.7-128.7a11.5 11.5 0 1 1 0-22.9 11.5 11.5 0 0 1 0 22.9" fill="#c2e1ffF7"/><path d="M93.6-49.8a11.5 11.5 0 1 1 0-23.1 11.5 11.5 0 0 1 0 23.1" fill="#005bbbF8"/><path d="M94.6-54.6a11.6 11.6 0 1 1 0-23.1 11.6 11.6 0 0 1 0 23.1" fill="#005bbbF9"/><path d="M171.8-205.1a11.6 11.6 0 1 1 0-23.2 11.6 11.6 0 0 1 0 23.2" fill="#fff500FA"/><path d="M41.4-93.2a11.6 11.6 0 1 1 0-23.3 11.6 11.6 0 0 1 0 23.3" fill="#005bbbFA"/><path d="M40.8-114.7a11.7 11.7 0 1 1 0-23.4 11.7 11.7 0 0 1 0 23.4" fill="#c2e1ffFC"/><path d="M68.4-174.2a11.8 11.8 0 1 1 0-23.6 11.8 11.8 0 0 1 0 23.6" fill="#c2e1ffFE"/></g></svg>