<svg width="1200" height="675" viewBox="-500 -500 1200 675" xmlns="http://www.w3.org/2000/svg"><path d="M-500-500h1200v675h-1200z" fill="#000"/><style>.sparkles path{stroke-linecap:round; stroke-width:1}</style><g class="sparkles"><path d="M100-162.5l-6.2-15.2" stroke="#005bbb32"/><path d="M100-162.5l23-5.5" stroke="#fff50032"/><path d="M100-162.5l-9.7-40.3" stroke="#c2e1ff32"/><path d="M100-162.5l-18.4 57" stroke="#fff50033"/><path d="M100-162.5l-43.5 46.3" stroke="#fff50033"/><path d="M100-162.5l51.7 38.1" stroke="#fff33"/><path d="M100-162.5l43.6-51" stroke="#c2e1ff34"/><path d="M100-162.5l-50.2-46.4" stroke="#c2e1ff34"/><path d="M100-162.5l39.3 64.9" stroke="#c2e1ff34"/><path d="M100-162.5l-70.1 63.1" stroke="#fff36"/><path d="M100-162.5l52.8-101.4" stroke="#c2e1ff38"/><path d="M100-162.5l-68 92.1" stroke="#fff50038"/><path d="M100-162.5l123.5 0" stroke="#c2e1ff39"/><path d="M100-162.5l67.1 107.7" stroke="#fff50039"/><path d="M100-162.5l-118 55.8" stroke="#fff3A"/><path d="M100-162.5l-23.3-132.8" stroke="#005bbb3A"/><path d="M100-162.5l135.5-30.7" stroke="#c2e1ff3B"/><path d="M100-162.5l119.5-71.4" stroke="#fff5003B"/><path d="M100-162.5l103.9 95.6" stroke="#005bbb3B"/><path d="M100-162.5l-146.3-43.7" stroke="#fff3D"/><path d="M100-162.5l137.5-69.7" stroke="#005bbb3E"/><path d="M100-162.5l147.8 58.6" stroke="#fff5003F"/><path d="M100-162.5l-138.2 81.6" stroke="#005bbb3F"/><path d="M100-162.5l142.4-93.5" stroke="#c2e1ff41"/><path d="M100-162.5l-92.4 145.5" stroke="#005bbb41"/><path d="M100-162.5l-141.4-104" stroke="#005bbb42"/><path d="M100-162.5l-179.4 3.1" stroke="#fff43"/><path d="M100-162.5l-173.4 46.4" stroke="#005bbb43"/><path d="M100-162.5l123.2-134.2" stroke="#005bbb44"/><path d="M100-162.5l-34.2-179.7" stroke="#fff44"/><path d="M100-162.5l49.1 177.8" stroke="#fff50044"/><path d="M100-162.5l90.4 163.4" stroke="#005bbb45"/><path d="M100-162.5l139.8 124.5" stroke="#005bbb45"/><path d="M100-162.5l86.8-166.3" stroke="#fff50045"/><path d="M100-162.5l173-73.7" stroke="#005bbb45"/><path d="M100-162.5l-99.4-159.9" stroke="#fff50045"/><path d="M100-162.5l3.4-188.4" stroke="#fff45"/><path d="M100-162.5l140.6 126.3" stroke="#005bbb45"/><path d="M100-162.5l178.3 73.6" stroke="#005bbb47"/><path d="M100-162.5l-103.5 164.1" stroke="#fff50047"/><path d="M100-162.5l70.7-184.2" stroke="#fff50048"/><path d="M100-162.5l148.3 130.6" stroke="#c2e1ff48"/><path d="M100-162.5l89.8 177.2" stroke="#fff48"/><path d="M100-162.5l-106-168.5" stroke="#fff49"/><path d="M100-162.5l-167.2 108.2" stroke="#005bbb49"/><path d="M100-162.5l177.8 90.5" stroke="#fff50049"/><path d="M100-162.5l26.4 198.8" stroke="#c2e1ff49"/><path d="M100-162.5l-43.5 198.1" stroke="#c2e1ff4A"/><path d="M100-162.5l-32.4 200.3" stroke="#c2e1ff4A"/><path d="M100-162.5l-111-173.1" stroke="#c2e1ff4B"/><path d="M100-162.5l-93-185.3" stroke="#005bbb4C"/><path d="M100-162.5l-53.9 202.2" stroke="#005bbb4C"/><path d="M100-162.5l-176.7-113.8" stroke="#fff4D"/><path d="M100-162.5l-213.4 1.4" stroke="#005bbb4E"/><path d="M100-162.5l10.5 215.6" stroke="#c2e1ff4F"/><path d="M100-162.5l104.7 191" stroke="#c2e1ff50"/><path d="M100-162.5l88-199.8" stroke="#fff50050"/><path d="M100-162.5l179.4 127.2" stroke="#fff50051"/><path d="M100-162.5l116.2-186.7" stroke="#fff51"/><path d="M100-162.5l187.1-118.1" stroke="#fff50052"/><path d="M100-162.5l160 153.7" stroke="#fff52"/><path d="M100-162.5l65.5 212.2" stroke="#fff50052"/><path d="M100-162.5l-144-170.3" stroke="#c2e1ff53"/><path d="M100-162.5l-58.2-216.5" stroke="#c2e1ff54"/><path d="M100-162.5l70.6-213.1" stroke="#c2e1ff54"/><path d="M100-162.5l69.7 215.2" stroke="#005bbb55"/><path d="M100-162.5l10.1 226.1" stroke="#c2e1ff55"/><path d="M100-162.5l-67.1 216.3" stroke="#fff50055"/><path d="M100-162.5l-222.8-44.6" stroke="#c2e1ff56"/><path d="M100-162.5l-224.6-40.3" stroke="#c2e1ff57"/><path d="M100-162.5l-120-194.1" stroke="#fff57"/><path d="M100-162.5l-221.8-61.8" stroke="#005bbb58"/><path d="M100-162.5l52.4-225.4" stroke="#005bbb59"/><path d="M100-162.5l-55.9 224.6" stroke="#fff5A"/><path d="M100-162.5l156.4 171" stroke="#fff5005A"/><path d="M100-162.5l108.1-206" stroke="#005bbb5B"/><path d="M100-162.5l-233.2 5.3" stroke="#c2e1ff5C"/><path d="M100-162.5l-224-65.3" stroke="#005bbb5C"/><path d="M100-162.5l-100.2-211.9" stroke="#c2e1ff5D"/><path d="M100-162.5l-13.4 234.1" stroke="#fff5005D"/><path d="M100-162.5l-200.3 122" stroke="#fff5D"/><path d="M100-162.5l37.9-231.6" stroke="#fff5005E"/><path d="M100-162.5l-137.5-190.2" stroke="#fff5005E"/><path d="M100-162.5l232.4 33" stroke="#fff5005E"/><path d="M100-162.5l-69.1 224.3" stroke="#fff5E"/><path d="M100-162.5l107.7 208.9" stroke="#fff5005E"/><path d="M100-162.5l-100.2-212.7" stroke="#c2e1ff5F"/><path d="M100-162.5l17.5-234.6" stroke="#fff5F"/><path d="M100-162.5l184.9 145.4" stroke="#fff5F"/><path d="M100-162.5l-194.9-131.9" stroke="#fff5005F"/><path d="M100-162.5l-84.2 219.9" stroke="#fff5005F"/><path d="M100-162.5l-235.4 5.8" stroke="#c2e1ff5F"/><path d="M100-162.5l211.1 105.4" stroke="#c2e1ff61"/><path d="M100-162.5l72-224.8" stroke="#005bbb61"/><path d="M100-162.5l-231.5 46" stroke="#c2e1ff61"/><path d="M100-162.5l30.6 234.1" stroke="#fff62"/><path d="M100-162.5l91.4-217.8" stroke="#005bbb63"/><path d="M100-162.5l105.9-211" stroke="#005bbb65"/><path d="M100-162.5l56.5-229.2" stroke="#005bbb66"/><path d="M100-162.5l233 37.6" stroke="#fff50066"/><path d="M100-162.5l-134.3 193.5" stroke="#fff50067"/><path d="M100-162.5l-34.7 231.7" stroke="#fff6A"/><path d="M100-162.5l187.6-140.3" stroke="#fff5006A"/><path d="M100-162.5l-203.7 115.2" stroke="#fff6A"/><path d="M100-162.5l-17.9 233" stroke="#fff5006B"/><path d="M100-162.5l83.5-217.9" stroke="#c2e1ff6B"/><path d="M100-162.5l-231.3 28" stroke="#005bbb6C"/><path d="M100-162.5l-204.7-111" stroke="#c2e1ff6C"/><path d="M100-162.5l-195.7-125.4" stroke="#fff5006C"/><path d="M100-162.5l92.3 212.7" stroke="#fff5006D"/><path d="M100-162.5l-204 109.2" stroke="#005bbb6E"/><path d="M100-162.5l120-196.9" stroke="#fff5006E"/><path d="M100-162.5l-157.1-168.3" stroke="#fff5006F"/><path d="M100-162.5l-171.7 151.7" stroke="#fff70"/><path d="M100-162.5l184.7 133.6" stroke="#fff50071"/><path d="M100-162.5l-46.3 220.9" stroke="#fff50072"/><path d="M100-162.5l-19.7 222.8" stroke="#005bbb74"/><path d="M100-162.5l7.7-223.1" stroke="#fff74"/><path d="M100-162.5l-106.2-195.4" stroke="#fff50074"/><path d="M100-162.5l219.5 3.1" stroke="#c2e1ff76"/><path d="M100-162.5l-202.8 82.5" stroke="#fff50076"/><path d="M100-162.5l111.2 186.9" stroke="#005bbb77"/><path d="M100-162.5l-203.7-72.7" stroke="#c2e1ff78"/><path d="M100-162.5l-145-160.1" stroke="#005bbb78"/><path d="M100-162.5l-133-165.8" stroke="#005bbb79"/><path d="M100-162.5l12.3 210.9" stroke="#c2e1ff7A"/><path d="M100-162.5l-202.7-52.1" stroke="#fff7B"/><path d="M100-162.5l-139.4 155.4" stroke="#fff7B"/><path d="M100-162.5l35.5 205.4" stroke="#fff7B"/><path d="M100-162.5l-202.6 46.1" stroke="#005bbb7B"/><path d="M100-162.5l186-91.3" stroke="#fff5007C"/><path d="M100-162.5l83.5 189.5" stroke="#fff5007C"/><path d="M100-162.5l-193-46.3" stroke="#fff7F"/><path d="M100-162.5l-124.2-154.7" stroke="#fff5007F"/><path d="M100-162.5l-177.1-85" stroke="#005bbb7F"/><path d="M100-162.5l123.6 152.4" stroke="#fff7F"/><path d="M100-162.5l-49.3-188.7" stroke="#c2e1ff80"/><path d="M100-162.5l82.9-175.2" stroke="#005bbb80"/><path d="M100-162.5l-49.8 184.1" stroke="#c2e1ff81"/><path d="M100-162.5l123-139.3" stroke="#c2e1ff82"/><path d="M100-162.5l-88.5 159" stroke="#c2e1ff83"/><path d="M100-162.5l143 108.1" stroke="#fff84"/><path d="M100-162.5l-24.2-168.9" stroke="#c2e1ff86"/><path d="M100-162.5l-135.7 95.1" stroke="#fff50087"/><path d="M100-162.5l-64.3-151.2" stroke="#005bbb87"/><path d="M100-162.5l133.9-94" stroke="#fff88"/><path d="M100-162.5l-14 162.9" stroke="#fff50088"/><path d="M100-162.5l152.5-57.2" stroke="#fff88"/><path d="M100-162.5l75.9 139.9" stroke="#fff50088"/><path d="M100-162.5l-157-15.6" stroke="#fff50089"/><path d="M100-162.5l-133.1 80.3" stroke="#005bbb89"/><path d="M100-162.5l56.7-143.6" stroke="#005bbb89"/><path d="M100-162.5l84-126" stroke="#005bbb8A"/><path d="M100-162.5l-136.9 63.2" stroke="#fff8A"/><path d="M100-162.5l117-89" stroke="#fff8B"/><path d="M100-162.5l-42.3-140.6" stroke="#fff8B"/><path d="M100-162.5l69.1-129.1" stroke="#fff5008B"/><path d="M100-162.5l-142.8-3.9" stroke="#005bbb8B"/><path d="M100-162.5l95.2 106.4" stroke="#c2e1ff8B"/><path d="M100-162.5l-137.6-37.3" stroke="#005bbb8B"/><path d="M100-162.5l-130.1 49.6" stroke="#fff5008C"/><path d="M100-162.5l-87.2-104.6" stroke="#fff8C"/><path d="M100-162.5l63.5-117.4" stroke="#fff5008D"/><path d="M100-162.5l-27.8-121.3" stroke="#005bbb8E"/><path d="M100-162.5l-56.1 106.8" stroke="#fff5008E"/><path d="M100-162.5l-57.8 105" stroke="#fff5008F"/><path d="M100-162.5l-19.1-114.1" stroke="#fff5008F"/><path d="M100-162.5l88.3-61.5" stroke="#fff50090"/><path d="M100-162.5l-81.6 45.6" stroke="#c2e1ff91"/><path d="M100-162.5l22.6 87.3" stroke="#fff92"/><path d="M100-162.5l-62.8 61.2" stroke="#fff50092"/><path d="M100-162.5l-22.2 61.9" stroke="#c2e1ff94"/><path d="M100-162.5l2.2-59.9" stroke="#c2e1ff94"/><path d="M100-162.5l40.1-30" stroke="#fff94"/><path d="M100-162.5l27.2 38.6" stroke="#c2e1ff94"/><path d="M100-162.5l25.8 29.5" stroke="#005bbb95"/><path d="M100-162.5l-3-38" stroke="#005bbb95"/><path d="M100-162.5l28.4 24.5" stroke="#005bbb95"/><path d="M100-162.5l4.1 18.7" stroke="#005bbb95"/><path d="M100-162.5l-15.6-7.3" stroke="#c2e1ff95"/><path d="M100-162.5l9.5 14" stroke="#c2e1ff95"/></g><g class="sparcs"><path d="M93.8-171.8a5.9 5.9 0 1 1 0-11.8 5.9 5.9 0 0 1 0 11.8" fill="#005bbb7D"/><path d="M123-162.1a5.9 5.9 0 1 1 0-11.8 5.9 5.9 0 0 1 0 11.8" fill="#c2e1ff7D"/><path d="M90.3-196.8a6 6 0 1 1 0-11.9 6 6 0 0 1 0 11.9" fill="#fff7E"/><path d="M81.6-99.5a6 6 0 1 1 0-12 6 6 0 0 1 0 12" fill="#c2e1ff7F"/><path d="M56.5-110.2a6 6 0 1 1 0-12 6 6 0 0 1 0 12" fill="#c2e1ff7F"/><path d="M151.7-118.4a6 6 0 1 1 0-12 6 6 0 0 1 0 12" fill="#fff5007F"/><path d="M143.6-207.5a6 6 0 1 1 0-12 6 6 0 0 1 0 12" fill="#c2e1ff7F"/><path d="M49.8-202.9a6 6 0 1 1 0-12 6 6 0 0 1 0 12" fill="#005bbb7F"/><path d="M139.3-91.5a6.1 6.1 0 1 1 0-12.1 6.1 6.1 0 0 1 0 12.1" fill="#fff80"/><path d="M29.9-93.2a6.2 6.2 0 1 1 0-12.3 6.2 6.2 0 0 1 0 12.3" fill="#c2e1ff82"/><path d="M152.8-257.6a6.3 6.3 0 1 1 0-12.5 6.3 6.3 0 0 1 0 12.5" fill="#fff50085"/><path d="M32-64.1a6.3 6.3 0 1 1 0-12.6 6.3 6.3 0 0 1 0 12.6" fill="#c2e1ff85"/><path d="M223.5-156.2a6.3 6.3 0 1 1 0-12.6 6.3 6.3 0 0 1 0 12.6" fill="#005bbb86"/><path d="M167.1-48.4a6.4 6.4 0 1 1 0-12.7 6.4 6.4 0 0 1 0 12.7" fill="#c2e1ff87"/><path d="M-18-100.3a6.4 6.4 0 1 1 0-12.8 6.4 6.4 0 0 1 0 12.8" fill="#fff50087"/><path d="M76.7-288.8a6.4 6.4 0 1 1 0-12.9 6.4 6.4 0 0 1 0 12.9" fill="#fff50088"/><path d="M235.5-186.7a6.5 6.5 0 1 1 0-12.9 6.5 6.5 0 0 1 0 12.9" fill="#005bbb89"/><path d="M219.5-227.4a6.5 6.5 0 1 1 0-13 6.5 6.5 0 0 1 0 13" fill="#c2e1ff89"/><path d="M203.9-60.4a6.5 6.5 0 1 1 0-13 6.5 6.5 0 0 1 0 13" fill="#fff50089"/><path d="M-46.3-199.6a6.6 6.6 0 1 1 0-13.2 6.6 6.6 0 0 1 0 13.2" fill="#fff5008C"/><path d="M237.5-225.6a6.6 6.6 0 1 1 0-13.2 6.6 6.6 0 0 1 0 13.2" fill="#c2e1ff8C"/><path d="M247.8-97.2a6.7 6.7 0 1 1 0-13.4 6.7 6.7 0 0 1 0 13.4" fill="#c2e1ff8D"/><path d="M-38.2-74.2a6.7 6.7 0 1 1 0-13.4 6.7 6.7 0 0 1 0 13.4" fill="#fff5008E"/><path d="M242.4-249.2a6.8 6.8 0 1 1 0-13.7 6.8 6.8 0 0 1 0 13.7" fill="#fff50090"/><path d="M7.6-10.2a6.8 6.8 0 1 1 0-13.7 6.8 6.8 0 0 1 0 13.7" fill="#fff50091"/><path d="M-41.4-259.6a6.9 6.9 0 1 1 0-13.8 6.9 6.9 0 0 1 0 13.8" fill="#c2e1ff92"/><path d="M-79.4-152.4a6.9 6.9 0 1 1 0-13.9 6.9 6.9 0 0 1 0 13.9" fill="#c2e1ff93"/><path d="M-73.4-109.2a6.9 6.9 0 1 1 0-13.9 6.9 6.9 0 0 1 0 13.9" fill="#fff93"/><path d="M223.2-289.8a7 7 0 1 1 0-13.9 7 7 0 0 1 0 13.9" fill="#fff94"/><path d="M65.8-335.2a7 7 0 1 1 0-14 7 7 0 0 1 0 14" fill="#005bbb94"/><path d="M149.1 22.3a7 7 0 1 1 0-14 7 7 0 0 1 0 14" fill="#005bbb95"/><path d="M190.4 8a7.1 7.1 0 1 1 0-14.1 7.1 7.1 0 0 1 0 14.1" fill="#c2e1ff96"/><path d="M239.8-31a7.1 7.1 0 1 1 0-14.1 7.1 7.1 0 0 1 0 14.1" fill="#c2e1ff96"/><path d="M186.8-321.8a7.1 7.1 0 1 1 0-14.1 7.1 7.1 0 0 1 0 14.1" fill="#c2e1ff96"/><path d="M273-229.1a7.1 7.1 0 1 1 0-14.1 7.1 7.1 0 0 1 0 14.1" fill="#005bbb96"/><path d="M0.6-315.3a7.1 7.1 0 1 1 0-14.2 7.1 7.1 0 0 1 0 14.2" fill="#fff50096"/><path d="M103.4-343.8a7.1 7.1 0 1 1 0-14.2 7.1 7.1 0 0 1 0 14.2" fill="#fff96"/><path d="M240.6-29.1a7.1 7.1 0 1 1 0-14.2 7.1 7.1 0 0 1 0 14.2" fill="#fff96"/><path d="M278.3-81.8a7.2 7.2 0 1 1 0-14.3 7.2 7.2 0 0 1 0 14.3" fill="#005bbb98"/><path d="M-3.5 8.7a7.2 7.2 0 1 1 0-14.3 7.2 7.2 0 0 1 0 14.3" fill="#005bbb98"/><path d="M170.7-339.5a7.2 7.2 0 1 1 0-14.5 7.2 7.2 0 0 1 0 14.5" fill="#fff9A"/><path d="M248.3-24.7a7.2 7.2 0 1 1 0-14.5 7.2 7.2 0 0 1 0 14.5" fill="#005bbb9A"/><path d="M189.8 21.9a7.3 7.3 0 1 1 0-14.5 7.3 7.3 0 0 1 0 14.5" fill="#005bbb9A"/><path d="M-6-323.7a7.3 7.3 0 1 1 0-14.5 7.3 7.3 0 0 1 0 14.5" fill="#005bbb9A"/><path d="M-67.2-47a7.3 7.3 0 1 1 0-14.6 7.3 7.3 0 0 1 0 14.6" fill="#c2e1ff9B"/><path d="M277.8-64.7a7.3 7.3 0 1 1 0-14.5 7.3 7.3 0 0 1 0 14.5" fill="#005bbb9B"/><path d="M126.4 43.6a7.3 7.3 0 1 1 0-14.6 7.3 7.3 0 0 1 0 14.6" fill="#fff5009B"/><path d="M56.5 42.9a7.3 7.3 0 1 1 0-14.7 7.3 7.3 0 0 1 0 14.7" fill="#005bbb9C"/><path d="M67.6 45.2a7.3 7.3 0 1 1 0-14.7 7.3 7.3 0 0 1 0 14.7" fill="#005bbb9C"/><path d="M-11-328.2a7.4 7.4 0 1 1 0-14.8 7.4 7.4 0 0 1 0 14.8" fill="#fff5009E"/><path d="M7-340.4a7.4 7.4 0 1 1 0-14.9 7.4 7.4 0 0 1 0 14.9" fill="#005bbb9E"/><path d="M46.1 47.2a7.5 7.5 0 1 1 0-15 7.5 7.5 0 0 1 0 15" fill="#c2e1ff9F"/><path d="M-76.7-268.8a7.5 7.5 0 1 1 0-15 7.5 7.5 0 0 1 0 15" fill="#c2e1ffA0"/><path d="M-113.4-153.6a7.6 7.6 0 1 1 0-15.1 7.6 7.6 0 0 1 0 15.1" fill="#fff500A2"/><path d="M110.5 60.8a7.7 7.7 0 1 1 0-15.4 7.7 7.7 0 0 1 0 15.4" fill="#c2e1ffA3"/><path d="M204.7 36.3a7.7 7.7 0 1 1 0-15.5 7.7 7.7 0 0 1 0 15.5" fill="#fff500A4"/><path d="M188-354.6a7.7 7.7 0 1 1 0-15.4 7.7 7.7 0 0 1 0 15.4" fill="#c2e1ffA5"/><path d="M279.4-27.5a7.8 7.8 0 1 1 0-15.5 7.8 7.8 0 0 1 0 15.5" fill="#c2e1ffA6"/><path d="M216.2-341.5a7.8 7.8 0 1 1 0-15.5 7.8 7.8 0 0 1 0 15.5" fill="#c2e1ffA6"/><path d="M287.1-272.8a7.8 7.8 0 1 1 0-15.7 7.8 7.8 0 0 1 0 15.7" fill="#fff500A7"/><path d="M260-1a7.8 7.8 0 1 1 0-15.7 7.8 7.8 0 0 1 0 15.7" fill="#c2e1ffA7"/><path d="M165.5 57.5a7.9 7.9 0 1 1 0-15.7 7.9 7.9 0 0 1 0 15.7" fill="#fffA7"/><path d="M-44-324.9a7.9 7.9 0 1 1 0-15.8 7.9 7.9 0 0 1 0 15.8" fill="#005bbbA8"/><path d="M41.8-371.1a7.9 7.9 0 1 1 0-15.8 7.9 7.9 0 0 1 0 15.8" fill="#fff500A9"/><path d="M170.6-367.6a7.9 7.9 0 1 1 0-15.9 7.9 7.9 0 0 1 0 15.9" fill="#fff500A9"/><path d="M169.7 60.7a8 8 0 1 1 0-16 8 8 0 0 1 0 16" fill="#005bbbAB"/><path d="M110.1 71.6a8 8 0 1 1 0-16 8 8 0 0 1 0 16" fill="#c2e1ffAB"/><path d="M32.9 61.8a8 8 0 1 1 0-16 8 8 0 0 1 0 16" fill="#c2e1ffAB"/><path d="M-122.8-199a8 8 0 1 1 0-16.1 8 8 0 0 1 0 16.1" fill="#fff500AC"/><path d="M-124.6-194.7a8.1 8.1 0 1 1 0-16.1 8.1 8.1 0 0 1 0 16.1" fill="#fffAD"/><path d="M-20-348.5a8.1 8.1 0 1 1 0-16.2 8.1 8.1 0 0 1 0 16.2" fill="#005bbbAD"/><path d="M-121.8-216.1a8.2 8.2 0 1 1 0-16.4 8.2 8.2 0 0 1 0 16.4" fill="#fffAF"/><path d="M152.4-379.7a8.3 8.3 0 1 1 0-16.5 8.3 8.3 0 0 1 0 16.5" fill="#005bbbB0"/><path d="M44.1 70.4a8.3 8.3 0 1 1 0-16.5 8.3 8.3 0 0 1 0 16.5" fill="#fffB1"/><path d="M256.4 16.8a8.3 8.3 0 1 1 0-16.6 8.3 8.3 0 0 1 0 16.6" fill="#c2e1ffB1"/><path d="M208.1-360.1a8.3 8.3 0 1 1 0-16.7 8.3 8.3 0 0 1 0 16.7" fill="#005bbbB2"/><path d="M-133.2-148.8a8.4 8.4 0 1 1 0-16.8 8.4 8.4 0 0 1 0 16.8" fill="#c2e1ffB3"/><path d="M-124-219.4a8.4 8.4 0 1 1 0-16.8 8.4 8.4 0 0 1 0 16.8" fill="#fffB3"/><path d="M-0.2-365.9a8.5 8.5 0 1 1 0-17 8.5 8.5 0 0 1 0 17" fill="#fffB5"/><path d="M86.6 80.1a8.5 8.5 0 1 1 0-17 8.5 8.5 0 0 1 0 17" fill="#005bbbB6"/><path d="M-100.3-32a8.5 8.5 0 1 1 0-17 8.5 8.5 0 0 1 0 17" fill="#fff500B6"/><path d="M137.9-385.5a8.5 8.5 0 1 1 0-17.1 8.5 8.5 0 0 1 0 17.1" fill="#c2e1ffB6"/><path d="M-37.5-344.2a8.5 8.5 0 1 1 0-17 8.5 8.5 0 0 1 0 17" fill="#c2e1ffB6"/><path d="M332.4-121a8.5 8.5 0 1 1 0-17 8.5 8.5 0 0 1 0 17" fill="#c2e1ffB6"/><path d="M30.9 70.3a8.5 8.5 0 1 1 0-17 8.5 8.5 0 0 1 0 17" fill="#c2e1ffB6"/><path d="M207.7 54.9a8.6 8.6 0 1 1 0-17.1 8.6 8.6 0 0 1 0 17.1" fill="#c2e1ffB7"/><path d="M-0.2-366.6a8.6 8.6 0 1 1 0-17.1 8.6 8.6 0 0 1 0 17.1" fill="#005bbbB7"/><path d="M117.5-388.5a8.6 8.6 0 1 1 0-17.2 8.6 8.6 0 0 1 0 17.2" fill="#005bbbB7"/><path d="M284.9-8.5a8.6 8.6 0 1 1 0-17.1 8.6 8.6 0 0 1 0 17.1" fill="#fffB8"/><path d="M-94.9-285.8a8.6 8.6 0 1 1 0-17.2 8.6 8.6 0 0 1 0 17.2" fill="#c2e1ffB8"/><path d="M15.8 66a8.6 8.6 0 1 1 0-17.3 8.6 8.6 0 0 1 0 17.3" fill="#c2e1ffB8"/><path d="M-135.4-148.1a8.6 8.6 0 1 1 0-17.2 8.6 8.6 0 0 1 0 17.2" fill="#c2e1ffB8"/><path d="M311.1-48.4a8.7 8.7 0 1 1 0-17.4 8.7 8.7 0 0 1 0 17.4" fill="#c2e1ffBA"/><path d="M172-378.6a8.7 8.7 0 1 1 0-17.4 8.7 8.7 0 0 1 0 17.4" fill="#005bbbBB"/><path d="M-131.5-107.7a8.7 8.7 0 1 1 0-17.5 8.7 8.7 0 0 1 0 17.5" fill="#c2e1ffBB"/><path d="M130.6 80.4a8.8 8.8 0 1 1 0-17.5 8.8 8.8 0 0 1 0 17.5" fill="#005bbbBB"/><path d="M191.4-371.5a8.9 8.9 0 1 1 0-17.7 8.9 8.9 0 0 1 0 17.7" fill="#fffBD"/><path d="M205.9-364.6a9 9 0 1 1 0-17.9 9 9 0 0 1 0 17.9" fill="#fffC0"/><path d="M156.5-382.7a9 9 0 1 1 0-18 9 9 0 0 1 0 18" fill="#fff500C0"/><path d="M333-115.9a9 9 0 1 1 0-18 9 9 0 0 1 0 18" fill="#005bbbC0"/><path d="M-34.3 40.1a9.1 9.1 0 1 1 0-18.2 9.1 9.1 0 0 1 0 18.2" fill="#fffC2"/><path d="M65.3 78.4a9.2 9.2 0 1 1 0-18.4 9.2 9.2 0 0 1 0 18.4" fill="#fffC6"/><path d="M287.6-293.5a9.2 9.2 0 1 1 0-18.5 9.2 9.2 0 0 1 0 18.5" fill="#c2e1ffC6"/><path d="M-103.7-38.1a9.3 9.3 0 1 1 0-18.5 9.3 9.3 0 0 1 0 18.5" fill="#005bbbC6"/><path d="M82.1 79.8a9.3 9.3 0 1 1 0-18.6 9.3 9.3 0 0 1 0 18.6" fill="#005bbbC7"/><path d="M183.5-371.1a9.3 9.3 0 1 1 0-18.6 9.3 9.3 0 0 1 0 18.6" fill="#fff500C8"/><path d="M-131.3-125.2a9.3 9.3 0 1 1 0-18.6 9.3 9.3 0 0 1 0 18.6" fill="#005bbbC8"/><path d="M-104.7-264.2a9.4 9.4 0 1 1 0-18.7 9.4 9.4 0 0 1 0 18.7" fill="#fffC9"/><path d="M-95.7-278.5a9.4 9.4 0 1 1 0-18.8 9.4 9.4 0 0 1 0 18.8" fill="#005bbbC9"/><path d="M192.3 59.6a9.4 9.4 0 1 1 0-18.8 9.4 9.4 0 0 1 0 18.8" fill="#fff500CA"/><path d="M-104-43.9a9.5 9.5 0 1 1 0-18.9 9.5 9.5 0 0 1 0 18.9" fill="#c2e1ffCB"/><path d="M220-349.9a9.5 9.5 0 1 1 0-19 9.5 9.5 0 0 1 0 19" fill="#005bbbCC"/><path d="M-57.1-321.3a9.5 9.5 0 1 1 0-19 9.5 9.5 0 0 1 0 19" fill="#005bbbCC"/><path d="M-71.7-1.2a9.6 9.6 0 1 1 0-19.1 9.6 9.6 0 0 1 0 19.1" fill="#c2e1ffCD"/><path d="M284.7-19.3a9.6 9.6 0 1 1 0-19.3 9.6 9.6 0 0 1 0 19.3" fill="#005bbbCF"/><path d="M53.7 68.1a9.7 9.7 0 1 1 0-19.4 9.7 9.7 0 0 1 0 19.4" fill="#005bbbD1"/><path d="M80.3 70.1a9.8 9.8 0 1 1 0-19.6 9.8 9.8 0 0 1 0 19.6" fill="#c2e1ffD2"/><path d="M107.7-375.8a9.8 9.8 0 1 1 0-19.6 9.8 9.8 0 0 1 0 19.6" fill="#005bbbD3"/><path d="M-6.2-348a9.9 9.9 0 1 1 0-19.8 9.9 9.9 0 0 1 0 19.8" fill="#005bbbD3"/><path d="M319.5-149.4a9.9 9.9 0 1 1 0-19.9 9.9 9.9 0 0 1 0 19.9" fill="#c2e1ffD5"/><path d="M-102.8-70a10 10 0 1 1 0-20 10 10 0 0 1 0 20" fill="#005bbbD6"/><path d="M211.2 34.4a10 10 0 1 1 0-20.1 10 10 0 0 1 0 20.1" fill="#c2e1ffD7"/><path d="M-103.7-225.1a10 10 0 1 1 0-20.1 10 10 0 0 1 0 20.1" fill="#c2e1ffD8"/><path d="M-45-312.5a10.1 10.1 0 1 1 0-20.1 10.1 10.1 0 0 1 0 20.1" fill="#005bbbD8"/><path d="M-33-318.2a10.1 10.1 0 1 1 0-20.2 10.1 10.1 0 0 1 0 20.2" fill="#fff500DA"/><path d="M112.3 58.6a10.2 10.2 0 1 1 0-20.4 10.2 10.2 0 0 1 0 20.4" fill="#005bbbDB"/><path d="M-102.7-204.3a10.2 10.2 0 1 1 0-20.5 10.2 10.2 0 0 1 0 20.5" fill="#c2e1ffDC"/><path d="M-39.4 3.2a10.2 10.2 0 1 1 0-20.5 10.2 10.2 0 0 1 0 20.5" fill="#005bbbDC"/><path d="M135.5 53.2a10.2 10.2 0 1 1 0-20.5 10.2 10.2 0 0 1 0 20.5" fill="#fffDC"/><path d="M-102.6-106.1a10.3 10.3 0 1 1 0-20.6 10.3 10.3 0 0 1 0 20.6" fill="#fff500DC"/><path d="M286-243.5a10.3 10.3 0 1 1 0-20.6 10.3 10.3 0 0 1 0 20.6" fill="#c2e1ffDD"/><path d="M183.5 37.2a10.3 10.3 0 1 1 0-20.5 10.3 10.3 0 0 1 0 20.5" fill="#005bbbDD"/><path d="M-93-198.4a10.5 10.5 0 1 1 0-20.9 10.5 10.5 0 0 1 0 20.9" fill="#fff500E1"/><path d="M-24.2-306.8a10.5 10.5 0 1 1 0-20.9 10.5 10.5 0 0 1 0 20.9" fill="#fff500E1"/><path d="M-77.1-237a10.5 10.5 0 1 1 0-21 10.5 10.5 0 0 1 0 21" fill="#fff500E2"/><path d="M223.6 0.4a10.5 10.5 0 1 1 0-21 10.5 10.5 0 0 1 0 21" fill="#fff500E2"/><path d="M50.7-340.6a10.5 10.5 0 1 1 0-21.1 10.5 10.5 0 0 1 0 21.1" fill="#005bbbE2"/><path d="M182.9-327.2a10.5 10.5 0 1 1 0-21.1 10.5 10.5 0 0 1 0 21.1" fill="#fffE3"/><path d="M50.2 32.2a10.6 10.6 0 1 1 0-21.2 10.6 10.6 0 0 1 0 21.2" fill="#c2e1ffE4"/><path d="M223-291.2a10.7 10.7 0 1 1 0-21.3 10.7 10.7 0 0 1 0 21.3" fill="#005bbbE6"/><path d="M11.5 7.3a10.7 10.7 0 1 1 0-21.5 10.7 10.7 0 0 1 0 21.5" fill="#005bbbE7"/><path d="M243-43.6a10.8 10.8 0 1 1 0-21.6 10.8 10.8 0 0 1 0 21.6" fill="#c2e1ffE8"/><path d="M75.8-320.5a10.9 10.9 0 1 1 0-21.8 10.9 10.9 0 0 1 0 21.8" fill="#c2e1ffEA"/><path d="M-35.7-56.4a11 11 0 1 1 0-21.9 11 11 0 0 1 0 21.9" fill="#fff500EC"/><path d="M35.7-302.7a11 11 0 1 1 0-21.9 11 11 0 0 1 0 21.9" fill="#c2e1ffEC"/><path d="M233.9-245.6a11 11 0 1 1 0-21.9 11 11 0 0 1 0 21.9" fill="#c2e1ffEC"/><path d="M86 11.4a11 11 0 1 1 0-22 11 11 0 0 1 0 22" fill="#005bbbEC"/><path d="M252.5-208.7a11 11 0 1 1 0-22 11 11 0 0 1 0 22" fill="#005bbbED"/><path d="M175.9-11.5a11 11 0 1 1 0-22.1 11 11 0 0 1 0 22.1" fill="#fffEE"/><path d="M-57-167a11.1 11.1 0 1 1 0-22.1 11.1 11.1 0 0 1 0 22.1" fill="#c2e1ffEE"/><path d="M-33.1-71.1a11.1 11.1 0 1 1 0-22.2 11.1 11.1 0 0 1 0 22.2" fill="#fffEE"/><path d="M156.7-295a11.1 11.1 0 1 1 0-22.1 11.1 11.1 0 0 1 0 22.1" fill="#fff500EF"/><path d="M184-277.4a11.1 11.1 0 1 1 0-22.3 11.1 11.1 0 0 1 0 22.3" fill="#c2e1ffEF"/><path d="M-36.9-88.2a11.1 11.1 0 1 1 0-22.2 11.1 11.1 0 0 1 0 22.2" fill="#fffF0"/><path d="M217-240.3a11.2 11.2 0 1 1 0-22.4 11.2 11.2 0 0 1 0 22.4" fill="#fff500F0"/><path d="M57.7-291.9a11.2 11.2 0 1 1 0-22.4 11.2 11.2 0 0 1 0 22.4" fill="#005bbbF0"/><path d="M169.1-280.4a11.2 11.2 0 1 1 0-22.4 11.2 11.2 0 0 1 0 22.4" fill="#fff500F1"/><path d="M-42.8-155.1a11.2 11.2 0 1 1 0-22.5 11.2 11.2 0 0 1 0 22.5" fill="#c2e1ffF1"/><path d="M195.2-44.8a11.2 11.2 0 1 1 0-22.5 11.2 11.2 0 0 1 0 22.5" fill="#fffF1"/><path d="M-37.6-188.5a11.2 11.2 0 1 1 0-22.5 11.2 11.2 0 0 1 0 22.5" fill="#fffF1"/><path d="M-30.1-101.7a11.2 11.2 0 1 1 0-22.5 11.2 11.2 0 0 1 0 22.5" fill="#c2e1ffF2"/><path d="M12.8-255.8a11.3 11.3 0 1 1 0-22.6 11.3 11.3 0 0 1 0 22.6" fill="#fff500F3"/><path d="M163.5-268.6a11.3 11.3 0 1 1 0-22.6 11.3 11.3 0 0 1 0 22.6" fill="#fffF3"/><path d="M72.2-272.4a11.4 11.4 0 1 1 0-22.8 11.4 11.4 0 0 1 0 22.8" fill="#005bbbF5"/><path d="M43.9-44.3a11.4 11.4 0 1 1 0-22.8 11.4 11.4 0 0 1 0 22.8" fill="#005bbbF5"/><path d="M42.2-46.1a11.4 11.4 0 1 1 0-22.8 11.4 11.4 0 0 1 0 22.8" fill="#005bbbF6"/><path d="M80.9-265.2a11.4 11.4 0 1 1 0-22.8 11.4 11.4 0 0 1 0 22.8" fill="#fff500F6"/><path d="M188.3-212.5a11.5 11.5 0 1 1 0-23 11.5 11.5 0 0 1 0 23" fill="#fffF7"/><path d="M18.4-105.3a11.6 11.6 0 1 1 0-23.2 11.6 11.6 0 0 1 0 23.2" fill="#fffF9"/><path d="M122.6-63.6a11.6 11.6 0 1 1 0-23.2 11.6 11.6 0 0 1 0 23.2" fill="#fff500FA"/><path d="M37.2-89.7a11.6 11.6 0 1 1 0-23.2 11.6 11.6 0 0 1 0 23.2" fill="#fffFA"/><path d="M77.8-88.9a11.7 11.7 0 1 1 0-23.4 11.7 11.7 0 0 1 0 23.4" fill="#005bbbFC"/><path d="M102.2-210.7a11.7 11.7 0 1 1 0-23.4 11.7 11.7 0 0 1 0 23.4" fill="#c2e1ffFC"/><path d="M140.1-180.7a11.7 11.7 0 1 1 0-23.5 11.7 11.7 0 0 1 0 23.5" fill="#c2e1ffFD"/><path d="M127.2-112.1a11.8 11.8 0 1 1 0-23.5 11.8 11.8 0 0 1 0 23.5" fill="#fff500FD"/><path d="M125.8-121.3a11.8 11.8 0 1 1 0-23.5 11.8 11.8 0 0 1 0 23.5" fill="#c2e1ffFE"/><path d="M97-188.7a11.8 11.8 0 1 1 0-23.6 11.8 11.8 0 0 1 0 23.6" fill="#005bbbFE"/><path d="M128.4-126.2a11.8 11.8 0 1 1 0-23.6 11.8 11.8 0 0 1 0 23.6" fill="#c2e1ffFE"/><path d="M104.1-132a11.8 11.8 0 1 1 0-23.6 11.8 11.8 0 0 1 0 23.6" fill="#c2e1ffFE"/><path d="M84.4-158a11.8 11.8 0 1 1 0-23.6 11.8 11.8 0 0 1 0 23.6" fill="#c2e1ffFE"/><path d="M109.5-136.6a11.8 11.8 0 1 1 0-23.7 11.8 11.8 0 0 1 0 23.7" fill="#005bbbFE"/></g></svg>