<svg width="1200" height="675" viewBox="-500 -500 1200 675" xmlns="http://www.w3.org/2000/svg"><path d="M-500-500h1200v675h-1200z" fill="#000"/><style>.sparkles path{stroke-linecap:round; stroke-width:1}</style><g class="sparkles"><path d="M100-162.5l-11 20" stroke="#fff50032"/><path d="M100-162.5l-45 25.6" stroke="#fff50033"/><path d="M100-162.5l-33.6-42.4" stroke="#fff50033"/><path d="M100-162.5l-4 80.6" stroke="#005bbb35"/><path d="M100-162.5l-82.5-8.2" stroke="#fff50035"/><path d="M100-162.5l77.3 51.7" stroke="#fff36"/><path d="M100-162.5l-90.3-40.1" stroke="#c2e1ff36"/><path d="M100-162.5l-10.3-101.2" stroke="#fff36"/><path d="M100-162.5l81.1-74" stroke="#005bbb37"/><path d="M100-162.5l110.6-3.6" stroke="#005bbb37"/><path d="M100-162.5l-123.7-1.1" stroke="#fff50039"/><path d="M100-162.5l56.8 110.4" stroke="#005bbb39"/><path d="M100-162.5l120.5 43.2" stroke="#fff39"/><path d="M100-162.5l126.1 57.5" stroke="#c2e1ff3B"/><path d="M100-162.5l-134.7 47.6" stroke="#fff3C"/><path d="M100-162.5l-70.8 128.6" stroke="#c2e1ff3C"/><path d="M100-162.5l110.4-99.8" stroke="#fff3D"/><path d="M100-162.5l-47.8-148.2" stroke="#fff5003E"/><path d="M100-162.5l-139.7-75.8" stroke="#005bbb3F"/><path d="M100-162.5l-157.9-54.4" stroke="#c2e1ff40"/><path d="M100-162.5l168-20.6" stroke="#005bbb41"/><path d="M100-162.5l42.5 164.6" stroke="#fff41"/><path d="M100-162.5l136.9 102.9" stroke="#c2e1ff41"/><path d="M100-162.5l169.5 33.3" stroke="#c2e1ff41"/><path d="M100-162.5l89.1-148.1" stroke="#005bbb41"/><path d="M100-162.5l-156.6-74.9" stroke="#fff50042"/><path d="M100-162.5l-57.1-164.6" stroke="#fff42"/><path d="M100-162.5l-98.5 144.1" stroke="#c2e1ff42"/><path d="M100-162.5l141.6-107.7" stroke="#fff50043"/><path d="M100-162.5l-153-96.6" stroke="#fff50043"/><path d="M100-162.5l25.3 182.1" stroke="#fff50044"/><path d="M100-162.5l176 54.7" stroke="#fff50044"/><path d="M100-162.5l185.1-11.6" stroke="#005bbb45"/><path d="M100-162.5l1.5-185.5" stroke="#fff45"/><path d="M100-162.5l136.4-125.9" stroke="#fff45"/><path d="M100-162.5l1-185.7" stroke="#fff50045"/><path d="M100-162.5l-59.9 177.6" stroke="#005bbb45"/><path d="M100-162.5l14.1-187.5" stroke="#fff45"/><path d="M100-162.5l-37.1-186.5" stroke="#fff46"/><path d="M100-162.5l-152.7-114.8" stroke="#fff50046"/><path d="M100-162.5l-130.4 141.8" stroke="#fff47"/><path d="M100-162.5l161.4 106" stroke="#c2e1ff47"/><path d="M100-162.5l185.7 54.2" stroke="#fff47"/><path d="M100-162.5l-121 153.1" stroke="#c2e1ff47"/><path d="M100-162.5l-32.5 193.5" stroke="#fff50048"/><path d="M100-162.5l180.6 85.9" stroke="#005bbb49"/><path d="M100-162.5l181.6 85.2" stroke="#fff50049"/><path d="M100-162.5l-196.7-43.3" stroke="#005bbb49"/><path d="M100-162.5l-92.9 180.6" stroke="#005bbb4A"/><path d="M100-162.5l201.1-33.6" stroke="#fff4A"/><path d="M100-162.5l181.8 92.3" stroke="#fff4A"/><path d="M100-162.5l-202.7-28.3" stroke="#fff4B"/><path d="M100-162.5l74.6 196" stroke="#005bbb4C"/><path d="M100-162.5l113.5 177.3" stroke="#c2e1ff4D"/><path d="M100-162.5l-57.9-202.6" stroke="#005bbb4D"/><path d="M100-162.5l136.7 160.9" stroke="#fff5004D"/><path d="M100-162.5l135.7-162" stroke="#fff5004D"/><path d="M100-162.5l-69.4 199.6" stroke="#fff4D"/><path d="M100-162.5l147.3-152.6" stroke="#fff4D"/><path d="M100-162.5l-195 89.1" stroke="#c2e1ff4F"/><path d="M100-162.5l-199.8-81.2" stroke="#fff4F"/><path d="M100-162.5l155.9-150.2" stroke="#fff4F"/><path d="M100-162.5l138.9 169.3" stroke="#fff51"/><path d="M100-162.5l-82.1-203.9" stroke="#c2e1ff51"/><path d="M100-162.5l-136.1-172.9" stroke="#fff50051"/><path d="M100-162.5l218.3-31" stroke="#fff50052"/><path d="M100-162.5l-195.3-102.6" stroke="#c2e1ff52"/><path d="M100-162.5l90.9-201.8" stroke="#fff52"/><path d="M100-162.5l100.9-197.1" stroke="#fff50052"/><path d="M100-162.5l74.3-209.3" stroke="#fff50052"/><path d="M100-162.5l219.4 38" stroke="#c2e1ff53"/><path d="M100-162.5l222.2 33.6" stroke="#005bbb54"/><path d="M100-162.5l225.5 20.1" stroke="#005bbb55"/><path d="M100-162.5l-127.5-187.6" stroke="#fff50056"/><path d="M100-162.5l194.8-117.2" stroke="#005bbb56"/><path d="M100-162.5l-85-211" stroke="#c2e1ff56"/><path d="M100-162.5l-69 217" stroke="#c2e1ff56"/><path d="M100-162.5l136.8 184.1" stroke="#005bbb58"/><path d="M100-162.5l173.5 150.8" stroke="#c2e1ff58"/><path d="M100-162.5l206.6 102.5" stroke="#c2e1ff59"/><path d="M100-162.5l-208.9-98.8" stroke="#005bbb59"/><path d="M100-162.5l-35.3-230.1" stroke="#fff5005B"/><path d="M100-162.5l191.7 132.6" stroke="#c2e1ff5B"/><path d="M100-162.5l138.9-187.2" stroke="#005bbb5B"/><path d="M100-162.5l-170.3-159.3" stroke="#005bbb5C"/><path d="M100-162.5l208.3 105.2" stroke="#c2e1ff5C"/><path d="M100-162.5l171.4-158.7" stroke="#fff5C"/><path d="M100-162.5l123.5-199.5" stroke="#fff5005E"/><path d="M100-162.5l-234.6-11.4" stroke="#c2e1ff5E"/><path d="M100-162.5l140.4-188.3" stroke="#005bbb5E"/><path d="M100-162.5l226.9-61.9" stroke="#005bbb5F"/><path d="M100-162.5l-226.7-63" stroke="#fff5F"/><path d="M100-162.5l212.4-102" stroke="#fff50060"/><path d="M100-162.5l139 190.4" stroke="#fff60"/><path d="M100-162.5l-220.8-83.5" stroke="#fff50061"/><path d="M100-162.5l-113.1 207.4" stroke="#fff63"/><path d="M100-162.5l236.2-6.4" stroke="#005bbb64"/><path d="M100-162.5l137.2 192.3" stroke="#fff50064"/><path d="M100-162.5l-224.3 74" stroke="#005bbb65"/><path d="M100-162.5l235.7 15.7" stroke="#fff65"/><path d="M100-162.5l-1.1-236.2" stroke="#fff50065"/><path d="M100-162.5l-68.6 226" stroke="#c2e1ff65"/><path d="M100-162.5l132.5 195.3" stroke="#005bbb66"/><path d="M100-162.5l225.9 67.8" stroke="#fff50066"/><path d="M100-162.5l56.6-228.8" stroke="#005bbb67"/><path d="M100-162.5l175.7-156.8" stroke="#fff50068"/><path d="M100-162.5l-48.1-230.4" stroke="#005bbb68"/><path d="M100-162.5l153.6 178" stroke="#fff50068"/><path d="M100-162.5l-234.2 18.7" stroke="#005bbb69"/><path d="M100-162.5l-227.6 54.1" stroke="#c2e1ff6B"/><path d="M100-162.5l35.3 230.6" stroke="#fff5006B"/><path d="M100-162.5l-223.1 66.6" stroke="#fff6C"/><path d="M100-162.5l80 217.8" stroke="#fff5006D"/><path d="M100-162.5l-198.3 119.2" stroke="#005bbb6E"/><path d="M100-162.5l229.5-21.3" stroke="#005bbb6E"/><path d="M100-162.5l-205.7-100.5" stroke="#fff50070"/><path d="M100-162.5l-228-14.5" stroke="#fff50070"/><path d="M100-162.5l-220.3 57.1" stroke="#fff71"/><path d="M100-162.5l-225.7-25.7" stroke="#fff71"/><path d="M100-162.5l221.6-48.3" stroke="#c2e1ff72"/><path d="M100-162.5l224.8 25.7" stroke="#c2e1ff72"/><path d="M100-162.5l-203.2-96.8" stroke="#fff73"/><path d="M100-162.5l-224.9-4.3" stroke="#c2e1ff73"/><path d="M100-162.5l223.8 5.4" stroke="#fff73"/><path d="M100-162.5l69.2-212.8" stroke="#fff74"/><path d="M100-162.5l-85.5 206.5" stroke="#c2e1ff74"/><path d="M100-162.5l-116.3-190.3" stroke="#fff74"/><path d="M100-162.5l10.7-221.9" stroke="#fff50075"/><path d="M100-162.5l-196.2-103.7" stroke="#fff50075"/><path d="M100-162.5l159.5-149.5" stroke="#005bbb76"/><path d="M100-162.5l-78-204.2" stroke="#005bbb76"/><path d="M100-162.5l217.1 0.2" stroke="#005bbb77"/><path d="M100-162.5l-57.5-208.2" stroke="#005bbb78"/><path d="M100-162.5l213.6 28.1" stroke="#005bbb78"/><path d="M100-162.5l-54.9 207.3" stroke="#c2e1ff78"/><path d="M100-162.5l191.1-96.9" stroke="#fff50079"/><path d="M100-162.5l-178.1 117.9" stroke="#fff79"/><path d="M100-162.5l-175.5 116" stroke="#fff7A"/><path d="M100-162.5l210.1-2.7" stroke="#fff5007A"/><path d="M100-162.5l-84.4-189.6" stroke="#fff7B"/><path d="M100-162.5l204.7 28" stroke="#fff7C"/><path d="M100-162.5l-152.3 135.8" stroke="#005bbb7D"/><path d="M100-162.5l33.7-200.5" stroke="#fff5007D"/><path d="M100-162.5l155.9 129" stroke="#005bbb7D"/><path d="M100-162.5l157-125.3" stroke="#c2e1ff7E"/><path d="M100-162.5l-43.9-195.7" stroke="#005bbb7E"/><path d="M100-162.5l50.8 191.8" stroke="#fff7F"/><path d="M100-162.5l19.5 196.3" stroke="#c2e1ff7F"/><path d="M100-162.5l133.6 139.6" stroke="#005bbb80"/><path d="M100-162.5l86.6 169.6" stroke="#fff81"/><path d="M100-162.5l182.6 49.3" stroke="#fff81"/><path d="M100-162.5l25.6 187" stroke="#fff82"/><path d="M100-162.5l-110.1-151.3" stroke="#fff50082"/><path d="M100-162.5l179.2 0" stroke="#fff50084"/><path d="M100-162.5l-131.3-118.3" stroke="#fff50085"/><path d="M100-162.5l65.6 160.3" stroke="#fff85"/><path d="M100-162.5l-61.9-161.6" stroke="#fff50086"/><path d="M100-162.5l159.3 53.7" stroke="#fff87"/><path d="M100-162.5l-146.6-81" stroke="#c2e1ff87"/><path d="M100-162.5l-112.3-119.2" stroke="#fff88"/><path d="M100-162.5l161.4-27.5" stroke="#c2e1ff88"/><path d="M100-162.5l-163-2" stroke="#fff88"/><path d="M100-162.5l162.8 4.1" stroke="#fff50088"/><path d="M100-162.5l155.6-30.2" stroke="#c2e1ff89"/><path d="M100-162.5l-149.1-36.5" stroke="#c2e1ff8A"/><path d="M100-162.5l-127.1-84.7" stroke="#fff5008A"/><path d="M100-162.5l131-71.2" stroke="#005bbb8A"/><path d="M100-162.5l75.2 126.7" stroke="#005bbb8B"/><path d="M100-162.5l134.1-60" stroke="#005bbb8B"/><path d="M100-162.5l-4 145.9" stroke="#fff8B"/><path d="M100-162.5l22 138.3" stroke="#005bbb8C"/><path d="M100-162.5l133 5.7" stroke="#005bbb8D"/><path d="M100-162.5l20.1-110.7" stroke="#fff8F"/><path d="M100-162.5l-56.1-81" stroke="#fff91"/><path d="M100-162.5l-2 94.8" stroke="#fff91"/><path d="M100-162.5l-50.6 60.1" stroke="#c2e1ff93"/><path d="M100-162.5l20.7 64.8" stroke="#c2e1ff93"/><path d="M100-162.5l-55.3 28" stroke="#005bbb94"/><path d="M100-162.5l-25.6 41.9" stroke="#fff94"/><path d="M100-162.5l39.4 28.6" stroke="#005bbb94"/><path d="M100-162.5l-0.7 47.2" stroke="#005bbb94"/></g><g class="sparcs"><path d="M89-136.6a5.9 5.9 0 1 1 0-11.8 5.9 5.9 0 0 1 0 11.8" fill="#005bbb7D"/><path d="M55-130.9a6 6 0 1 1 0-12 6 6 0 0 1 0 12" fill="#c2e1ff7E"/><path d="M66.4-198.9a6 6 0 1 1 0-12 6 6 0 0 1 0 12" fill="#fff5007E"/><path d="M96-75.8a6.1 6.1 0 1 1 0-12.2 6.1 6.1 0 0 1 0 12.2" fill="#fff50080"/><path d="M17.5-164.6a6.1 6.1 0 1 1 0-12.2 6.1 6.1 0 0 1 0 12.2" fill="#005bbb81"/><path d="M177.3-104.7a6.1 6.1 0 1 1 0-12.2 6.1 6.1 0 0 1 0 12.2" fill="#fff50082"/><path d="M9.7-196.4a6.2 6.2 0 1 1 0-12.4 6.2 6.2 0 0 1 0 12.4" fill="#005bbb82"/><path d="M89.7-257.5a6.2 6.2 0 1 1 0-12.4 6.2 6.2 0 0 1 0 12.4" fill="#005bbb83"/><path d="M181.1-230.2a6.2 6.2 0 1 1 0-12.5 6.2 6.2 0 0 1 0 12.5" fill="#fff84"/><path d="M210.6-159.9a6.3 6.3 0 1 1 0-12.5 6.3 6.3 0 0 1 0 12.5" fill="#fff84"/><path d="M-23.7-157.2a6.3 6.3 0 1 1 0-12.7 6.3 6.3 0 0 1 0 12.7" fill="#c2e1ff86"/><path d="M156.8-45.8a6.3 6.3 0 1 1 0-12.6 6.3 6.3 0 0 1 0 12.6" fill="#005bbb86"/><path d="M220.5-113a6.4 6.4 0 1 1 0-12.7 6.4 6.4 0 0 1 0 12.7" fill="#fff87"/><path d="M226.1-98.6a6.5 6.5 0 1 1 0-12.9 6.5 6.5 0 0 1 0 12.9" fill="#005bbb89"/><path d="M-34.7-108.4a6.5 6.5 0 1 1 0-13 6.5 6.5 0 0 1 0 13" fill="#fff8A"/><path d="M29.2-27.4a6.5 6.5 0 1 1 0-13.1 6.5 6.5 0 0 1 0 13.1" fill="#005bbb8B"/><path d="M210.4-255.7a6.6 6.6 0 1 1 0-13.2 6.6 6.6 0 0 1 0 13.2" fill="#c2e1ff8B"/><path d="M52.2-304.1a6.6 6.6 0 1 1 0-13.3 6.6 6.6 0 0 1 0 13.3" fill="#c2e1ff8D"/><path d="M-39.7-231.6a6.7 6.7 0 1 1 0-13.4 6.7 6.7 0 0 1 0 13.4" fill="#fff5008D"/><path d="M-57.9-210.1a6.8 6.8 0 1 1 0-13.6 6.8 6.8 0 0 1 0 13.6" fill="#fff90"/><path d="M268-176.3a6.8 6.8 0 1 1 0-13.6 6.8 6.8 0 0 1 0 13.6" fill="#fff90"/><path d="M142.5 8.9a6.8 6.8 0 1 1 0-13.6 6.8 6.8 0 0 1 0 13.6" fill="#fff50090"/><path d="M236.9-52.8a6.8 6.8 0 1 1 0-13.6 6.8 6.8 0 0 1 0 13.6" fill="#005bbb91"/><path d="M269.5-122.3a6.8 6.8 0 1 1 0-13.7 6.8 6.8 0 0 1 0 13.7" fill="#c2e1ff91"/><path d="M189.1-303.7a6.8 6.8 0 1 1 0-13.7 6.8 6.8 0 0 1 0 13.7" fill="#005bbb91"/><path d="M-56.6-230.5a6.9 6.9 0 1 1 0-13.7 6.9 6.9 0 0 1 0 13.7" fill="#005bbb91"/><path d="M42.9-320.3a6.9 6.9 0 1 1 0-13.7 6.9 6.9 0 0 1 0 13.7" fill="#c2e1ff92"/><path d="M1.5-11.5a6.9 6.9 0 1 1 0-13.8 6.9 6.9 0 0 1 0 13.8" fill="#fff92"/><path d="M241.6-263.3a6.9 6.9 0 1 1 0-13.8 6.9 6.9 0 0 1 0 13.8" fill="#fff50093"/><path d="M-53-252.1a7 7 0 1 1 0-13.9 7 7 0 0 1 0 13.9" fill="#005bbb94"/><path d="M125.3 26.6a7 7 0 1 1 0-14 7 7 0 0 1 0 14" fill="#fff50095"/><path d="M276-100.8a7 7 0 1 1 0-14 7 7 0 0 1 0 14" fill="#005bbb95"/><path d="M285.1-167.1a7 7 0 1 1 0-14.1 7 7 0 0 1 0 14.1" fill="#fff95"/><path d="M101.5-341a7 7 0 1 1 0-14 7 7 0 0 1 0 14" fill="#fff50095"/><path d="M236.4-281.4a7 7 0 1 1 0-14 7 7 0 0 1 0 14" fill="#fff95"/><path d="M101-341.1a7 7 0 1 1 0-14.1 7 7 0 0 1 0 14.1" fill="#c2e1ff95"/><path d="M40.1 22.1a7.1 7.1 0 1 1 0-14.1 7.1 7.1 0 0 1 0 14.1" fill="#fff50096"/><path d="M114.1-342.9a7.1 7.1 0 1 1 0-14.2 7.1 7.1 0 0 1 0 14.2" fill="#fff50096"/><path d="M62.9-341.9a7.1 7.1 0 1 1 0-14.2 7.1 7.1 0 0 1 0 14.2" fill="#005bbb97"/><path d="M-52.7-270.1a7.1 7.1 0 1 1 0-14.3 7.1 7.1 0 0 1 0 14.3" fill="#005bbb97"/><path d="M-30.4-13.5a7.2 7.2 0 1 1 0-14.3 7.2 7.2 0 0 1 0 14.3" fill="#fff50098"/><path d="M261.4-49.4a7.2 7.2 0 1 1 0-14.3 7.2 7.2 0 0 1 0 14.3" fill="#fff98"/><path d="M285.7-101.2a7.2 7.2 0 1 1 0-14.3 7.2 7.2 0 0 1 0 14.3" fill="#fff50098"/><path d="M-21-2.2a7.2 7.2 0 1 1 0-14.4 7.2 7.2 0 0 1 0 14.4" fill="#fff50099"/><path d="M67.5 38.2a7.2 7.2 0 1 1 0-14.5 7.2 7.2 0 0 1 0 14.5" fill="#c2e1ff99"/><path d="M280.6-69.3a7.3 7.3 0 1 1 0-14.5 7.3 7.3 0 0 1 0 14.5" fill="#fff5009B"/><path d="M281.6-70a7.3 7.3 0 1 1 0-14.6 7.3 7.3 0 0 1 0 14.6" fill="#c2e1ff9B"/><path d="M-96.7-198.4a7.3 7.3 0 1 1 0-14.7 7.3 7.3 0 0 1 0 14.7" fill="#fff5009C"/><path d="M7.1 25.5a7.4 7.4 0 1 1 0-14.7 7.4 7.4 0 0 1 0 14.7" fill="#fff5009C"/><path d="M301.1-188.7a7.4 7.4 0 1 1 0-14.7 7.4 7.4 0 0 1 0 14.7" fill="#fff9D"/><path d="M281.8-62.9a7.4 7.4 0 1 1 0-14.7 7.4 7.4 0 0 1 0 14.7" fill="#005bbb9D"/><path d="M-102.7-183.5a7.4 7.4 0 1 1 0-14.7 7.4 7.4 0 0 1 0 14.7" fill="#c2e1ff9D"/><path d="M174.6 41a7.5 7.5 0 1 1 0-15 7.5 7.5 0 0 1 0 15" fill="#fff500A0"/><path d="M213.5 22.3a7.5 7.5 0 1 1 0-15 7.5 7.5 0 0 1 0 15" fill="#fffA0"/><path d="M42.1-357.6a7.5 7.5 0 1 1 0-15.1 7.5 7.5 0 0 1 0 15.1" fill="#fffA0"/><path d="M236.7 6a7.5 7.5 0 1 1 0-15.1 7.5 7.5 0 0 1 0 15.1" fill="#fffA0"/><path d="M235.7-316.9a7.5 7.5 0 1 1 0-15.1 7.5 7.5 0 0 1 0 15.1" fill="#fffA0"/><path d="M30.6 44.7a7.5 7.5 0 1 1 0-15.1 7.5 7.5 0 0 1 0 15.1" fill="#c2e1ffA0"/><path d="M247.3-307.6a7.6 7.6 0 1 1 0-15.1 7.6 7.6 0 0 1 0 15.1" fill="#fffA1"/><path d="M-95-65.8a7.6 7.6 0 1 1 0-15.2 7.6 7.6 0 0 1 0 15.2" fill="#005bbbA2"/><path d="M-99.8-236.1a7.7 7.7 0 1 1 0-15.3 7.7 7.7 0 0 1 0 15.3" fill="#fff500A3"/><path d="M255.9-305a7.7 7.7 0 1 1 0-15.3 7.7 7.7 0 0 1 0 15.3" fill="#fff500A3"/><path d="M238.9 14.5a7.8 7.8 0 1 1 0-15.5 7.8 7.8 0 0 1 0 15.5" fill="#fff500A5"/><path d="M17.9-358.6a7.8 7.8 0 1 1 0-15.6 7.8 7.8 0 0 1 0 15.6" fill="#fffA6"/><path d="M-36.1-327.6a7.8 7.8 0 1 1 0-15.6 7.8 7.8 0 0 1 0 15.6" fill="#fffA6"/><path d="M318.3-185.7a7.8 7.8 0 1 1 0-15.6 7.8 7.8 0 0 1 0 15.6" fill="#fffA6"/><path d="M-95.3-257.3a7.8 7.8 0 1 1 0-15.6 7.8 7.8 0 0 1 0 15.6" fill="#c2e1ffA6"/><path d="M190.9-356.5a7.8 7.8 0 1 1 0-15.6 7.8 7.8 0 0 1 0 15.6" fill="#c2e1ffA7"/><path d="M200.9-351.8a7.8 7.8 0 1 1 0-15.7 7.8 7.8 0 0 1 0 15.7" fill="#005bbbA7"/><path d="M174.3-364a7.9 7.9 0 1 1 0-15.7 7.9 7.9 0 0 1 0 15.7" fill="#fff500A7"/><path d="M319.4-116.6a7.9 7.9 0 1 1 0-15.8 7.9 7.9 0 0 1 0 15.8" fill="#005bbbA8"/><path d="M322.2-121a7.9 7.9 0 1 1 0-15.9 7.9 7.9 0 0 1 0 15.9" fill="#c2e1ffA9"/><path d="M325.5-134.4a8 8 0 1 1 0-16.1 8 8 0 0 1 0 16.1" fill="#005bbbAB"/><path d="M-27.5-342.1a8 8 0 1 1 0-16.1 8 8 0 0 1 0 16.1" fill="#fff500AB"/><path d="M294.8-271.7a8.1 8.1 0 1 1 0-16.1 8.1 8.1 0 0 1 0 16.1" fill="#005bbbAC"/><path d="M15-365.5a8.1 8.1 0 1 1 0-16.1 8.1 8.1 0 0 1 0 16.1" fill="#c2e1ffAC"/><path d="M31 62.6a8.1 8.1 0 1 1 0-16.1 8.1 8.1 0 0 1 0 16.1" fill="#005bbbAC"/><path d="M236.8 29.8a8.2 8.2 0 1 1 0-16.3 8.2 8.2 0 0 1 0 16.3" fill="#c2e1ffAE"/><path d="M273.5-3.5a8.2 8.2 0 1 1 0-16.4 8.2 8.2 0 0 1 0 16.4" fill="#c2e1ffAF"/><path d="M306.6-51.8a8.2 8.2 0 1 1 0-16.4 8.2 8.2 0 0 1 0 16.4" fill="#fffAF"/><path d="M-108.9-253.1a8.2 8.2 0 1 1 0-16.5 8.2 8.2 0 0 1 0 16.5" fill="#005bbbB0"/><path d="M64.7-384.3a8.4 8.4 0 1 1 0-16.7 8.4 8.4 0 0 1 0 16.7" fill="#005bbbB2"/><path d="M291.7-21.6a8.4 8.4 0 1 1 0-16.7 8.4 8.4 0 0 1 0 16.7" fill="#fffB3"/><path d="M238.9-341.3a8.4 8.4 0 1 1 0-16.8 8.4 8.4 0 0 1 0 16.8" fill="#fffB3"/><path d="M-70.3-313.4a8.4 8.4 0 1 1 0-16.8 8.4 8.4 0 0 1 0 16.8" fill="#005bbbB3"/><path d="M308.3-48.9a8.4 8.4 0 1 1 0-16.8 8.4 8.4 0 0 1 0 16.8" fill="#fffB3"/><path d="M271.4-312.8a8.4 8.4 0 1 1 0-16.8 8.4 8.4 0 0 1 0 16.8" fill="#fff500B4"/><path d="M223.5-353.5a8.5 8.5 0 1 1 0-17 8.5 8.5 0 0 1 0 17" fill="#005bbbB6"/><path d="M-134.6-165.3a8.5 8.5 0 1 1 0-17.1 8.5 8.5 0 0 1 0 17.1" fill="#fff500B6"/><path d="M240.4-342.3a8.5 8.5 0 1 1 0-17.1 8.5 8.5 0 0 1 0 17.1" fill="#005bbbB7"/><path d="M326.9-215.9a8.6 8.6 0 1 1 0-17.1 8.6 8.6 0 0 1 0 17.1" fill="#fffB7"/><path d="M-126.7-216.9a8.6 8.6 0 1 1 0-17.2 8.6 8.6 0 0 1 0 17.2" fill="#fffB8"/><path d="M312.4-255.9a8.7 8.7 0 1 1 0-17.3 8.7 8.7 0 0 1 0 17.3" fill="#005bbbB9"/><path d="M239 36.6a8.7 8.7 0 1 1 0-17.3 8.7 8.7 0 0 1 0 17.3" fill="#c2e1ffB9"/><path d="M-120.8-237.3a8.7 8.7 0 1 1 0-17.4 8.7 8.7 0 0 1 0 17.4" fill="#fff500BB"/><path d="M-13.1 53.7a8.8 8.8 0 1 1 0-17.6 8.8 8.8 0 0 1 0 17.6" fill="#fffBD"/><path d="M336.2-160a8.9 8.9 0 1 1 0-17.8 8.9 8.9 0 0 1 0 17.8" fill="#005bbbBE"/><path d="M237.2 38.7a8.9 8.9 0 1 1 0-17.8 8.9 8.9 0 0 1 0 17.8" fill="#fffBE"/><path d="M-124.3-79.6a8.9 8.9 0 1 1 0-17.8 8.9 8.9 0 0 1 0 17.8" fill="#005bbbBF"/><path d="M335.7-137.8a8.9 8.9 0 1 1 0-17.9 8.9 8.9 0 0 1 0 17.9" fill="#fffBF"/><path d="M98.9-389.7a8.9 8.9 0 1 1 0-17.9 8.9 8.9 0 0 1 0 17.9" fill="#fff500BF"/><path d="M31.4 72.4a8.9 8.9 0 1 1 0-17.9 8.9 8.9 0 0 1 0 17.9" fill="#c2e1ffBF"/><path d="M232.5 41.8a9 9 0 1 1 0-18 9 9 0 0 1 0 18" fill="#fff500C0"/><path d="M325.9-85.7a9 9 0 1 1 0-18 9 9 0 0 1 0 18" fill="#c2e1ffC1"/><path d="M156.6-382.3a9.1 9.1 0 1 1 0-18.1 9.1 9.1 0 0 1 0 18.1" fill="#fffC2"/><path d="M275.7-310.2a9.1 9.1 0 1 1 0-18.2 9.1 9.1 0 0 1 0 18.2" fill="#c2e1ffC3"/><path d="M51.9-383.8a9.1 9.1 0 1 1 0-18.2 9.1 9.1 0 0 1 0 18.2" fill="#fff500C3"/><path d="M253.6 24.7a9.1 9.1 0 1 1 0-18.3 9.1 9.1 0 0 1 0 18.3" fill="#005bbbC4"/><path d="M-134.2-134.7a9.2 9.2 0 1 1 0-18.3 9.2 9.2 0 0 1 0 18.3" fill="#fff500C4"/><path d="M-127.6-99.2a9.3 9.3 0 1 1 0-18.5 9.3 9.3 0 0 1 0 18.5" fill="#fff500C7"/><path d="M135.3 77.4a9.3 9.3 0 1 1 0-18.7 9.3 9.3 0 0 1 0 18.7" fill="#c2e1ffC8"/><path d="M-123.1-86.6a9.4 9.4 0 1 1 0-18.7 9.4 9.4 0 0 1 0 18.7" fill="#fffC9"/><path d="M180 64.7a9.4 9.4 0 1 1 0-18.8 9.4 9.4 0 0 1 0 18.8" fill="#005bbbCA"/><path d="M-98.3-33.8a9.5 9.5 0 1 1 0-18.9 9.5 9.5 0 0 1 0 18.9" fill="#fff500CB"/><path d="M329.5-174.3a9.5 9.5 0 1 1 0-19 9.5 9.5 0 0 1 0 19" fill="#fff500CC"/><path d="M-105.7-253.4a9.6 9.6 0 1 1 0-19.2 9.6 9.6 0 0 1 0 19.2" fill="#c2e1ffCE"/><path d="M-128-167.4a9.6 9.6 0 1 1 0-19.2 9.6 9.6 0 0 1 0 19.2" fill="#fff500CE"/><path d="M-120.3-95.8a9.7 9.7 0 1 1 0-19.3 9.7 9.7 0 0 1 0 19.3" fill="#fff500CF"/><path d="M-125.7-178.6a9.7 9.7 0 1 1 0-19.3 9.7 9.7 0 0 1 0 19.3" fill="#c2e1ffCF"/><path d="M321.6-201.1a9.7 9.7 0 1 1 0-19.3 9.7 9.7 0 0 1 0 19.3" fill="#c2e1ffD0"/><path d="M324.8-127.1a9.7 9.7 0 1 1 0-19.4 9.7 9.7 0 0 1 0 19.4" fill="#fff500D0"/><path d="M-103.2-249.6a9.8 9.8 0 1 1 0-19.5 9.8 9.8 0 0 1 0 19.5" fill="#fff500D1"/><path d="M-124.9-157a9.8 9.8 0 1 1 0-19.5 9.8 9.8 0 0 1 0 19.5" fill="#fffD1"/><path d="M323.8-147.3a9.8 9.8 0 1 1 0-19.6 9.8 9.8 0 0 1 0 19.6" fill="#c2e1ffD2"/><path d="M169.2-365.5a9.8 9.8 0 1 1 0-19.6 9.8 9.8 0 0 1 0 19.6" fill="#fff500D2"/><path d="M14.5 53.8a9.8 9.8 0 1 1 0-19.7 9.8 9.8 0 0 1 0 19.7" fill="#fffD3"/><path d="M-16.3-342.9a9.8 9.8 0 1 1 0-19.7 9.8 9.8 0 0 1 0 19.7" fill="#c2e1ffD3"/><path d="M110.7-374.5a9.9 9.9 0 1 1 0-19.8 9.9 9.9 0 0 1 0 19.8" fill="#fff500D4"/><path d="M-96.2-256.3a9.9 9.9 0 1 1 0-19.8 9.9 9.9 0 0 1 0 19.8" fill="#fffD4"/><path d="M259.5-302a10 10 0 1 1 0-19.9 10 10 0 0 1 0 19.9" fill="#fffD6"/><path d="M22-356.7a10 10 0 1 1 0-19.9 10 10 0 0 1 0 19.9" fill="#005bbbD6"/><path d="M317.1-152.3a10 10 0 1 1 0-20.1 10 10 0 0 1 0 20.1" fill="#fff500D7"/><path d="M42.5-360.7a10.1 10.1 0 1 1 0-20.1 10.1 10.1 0 0 1 0 20.1" fill="#fffD8"/><path d="M313.6-124.3a10.1 10.1 0 1 1 0-20.1 10.1 10.1 0 0 1 0 20.1" fill="#fff500D8"/><path d="M45.1 54.8a10.1 10.1 0 1 1 0-20.1 10.1 10.1 0 0 1 0 20.1" fill="#fffD9"/><path d="M291.1-249.3a10.1 10.1 0 1 1 0-20.2 10.1 10.1 0 0 1 0 20.2" fill="#fff500D9"/><path d="M-78.1-34.4a10.1 10.1 0 1 1 0-20.3 10.1 10.1 0 0 1 0 20.3" fill="#005bbbD9"/><path d="M-75.5-36.3a10.2 10.2 0 1 1 0-20.4 10.2 10.2 0 0 1 0 20.4" fill="#005bbbDB"/><path d="M310.1-155a10.2 10.2 0 1 1 0-20.4 10.2 10.2 0 0 1 0 20.4" fill="#005bbbDB"/><path d="M15.6-341.9a10.3 10.3 0 1 1 0-20.5 10.3 10.3 0 0 1 0 20.5" fill="#005bbbDD"/><path d="M304.7-124.2a10.3 10.3 0 1 1 0-20.6 10.3 10.3 0 0 1 0 20.6" fill="#fffDD"/><path d="M-52.3-16.4a10.3 10.3 0 1 1 0-20.6 10.3 10.3 0 0 1 0 20.6" fill="#005bbbDE"/><path d="M133.7-352.6a10.4 10.4 0 1 1 0-20.8 10.4 10.4 0 0 1 0 20.8" fill="#c2e1ffDF"/><path d="M255.9-23.1a10.4 10.4 0 1 1 0-20.8 10.4 10.4 0 0 1 0 20.8" fill="#fff500DF"/><path d="M257-277.4a10.4 10.4 0 1 1 0-20.8 10.4 10.4 0 0 1 0 20.8" fill="#fff500E0"/><path d="M56.1-347.8a10.4 10.4 0 1 1 0-20.8 10.4 10.4 0 0 1 0 20.8" fill="#fff500E0"/><path d="M150.8 39.8a10.5 10.5 0 1 1 0-20.9 10.5 10.5 0 0 1 0 20.9" fill="#005bbbE1"/><path d="M119.5 44.2a10.5 10.5 0 1 1 0-20.9 10.5 10.5 0 0 1 0 20.9" fill="#005bbbE1"/><path d="M233.6-12.3a10.6 10.6 0 1 1 0-21.1 10.6 10.6 0 0 1 0 21.1" fill="#c2e1ffE3"/><path d="M186.6 17.7a10.6 10.6 0 1 1 0-21.2 10.6 10.6 0 0 1 0 21.2" fill="#005bbbE4"/><path d="M282.6-102.6a10.6 10.6 0 1 1 0-21.3 10.6 10.6 0 0 1 0 21.3" fill="#c2e1ffE4"/><path d="M125.6 35.1a10.6 10.6 0 1 1 0-21.2 10.6 10.6 0 0 1 0 21.2" fill="#c2e1ffE5"/><path d="M-10.1-303.1a10.7 10.7 0 1 1 0-21.4 10.7 10.7 0 0 1 0 21.4" fill="#005bbbE5"/><path d="M279.2-151.7a10.8 10.8 0 1 1 0-21.6 10.8 10.8 0 0 1 0 21.6" fill="#005bbbE8"/><path d="M-31.3-270a10.8 10.8 0 1 1 0-21.6 10.8 10.8 0 0 1 0 21.6" fill="#005bbbE9"/><path d="M165.6 8.7a10.9 10.9 0 1 1 0-21.7 10.9 10.9 0 0 1 0 21.7" fill="#fff500EA"/><path d="M38.1-313.3a10.9 10.9 0 1 1 0-21.7 10.9 10.9 0 0 1 0 21.7" fill="#c2e1ffEA"/><path d="M259.3-97.9a10.9 10.9 0 1 1 0-21.9 10.9 10.9 0 0 1 0 21.9" fill="#005bbbEB"/><path d="M-46.6-232.6a10.9 10.9 0 1 1 0-21.9 10.9 10.9 0 0 1 0 21.9" fill="#005bbbEB"/><path d="M-12.3-270.7a11 11 0 1 1 0-21.9 11 11 0 0 1 0 21.9" fill="#005bbbEC"/><path d="M261.4-179a11 11 0 1 1 0-22 11 11 0 0 1 0 22" fill="#fffEC"/><path d="M-63-153.5a11 11 0 1 1 0-22 11 11 0 0 1 0 22" fill="#fffED"/><path d="M262.8-147.4a11 11 0 1 1 0-22 11 11 0 0 1 0 22" fill="#c2e1ffED"/><path d="M255.6-181.6a11 11 0 1 1 0-22.1 11 11 0 0 1 0 22.1" fill="#fffEE"/><path d="M-49.1-187.9a11.1 11.1 0 1 1 0-22.2 11.1 11.1 0 0 1 0 22.2" fill="#c2e1ffEF"/><path d="M-27.1-236.1a11.1 11.1 0 1 1 0-22.2 11.1 11.1 0 0 1 0 22.2" fill="#fffEF"/><path d="M231-222.5a11.2 11.2 0 1 1 0-22.3 11.2 11.2 0 0 1 0 22.3" fill="#fff500F0"/><path d="M175.2-24.6a11.2 11.2 0 1 1 0-22.4 11.2 11.2 0 0 1 0 22.4" fill="#fffF0"/><path d="M234.1-211.3a11.2 11.2 0 1 1 0-22.3 11.2 11.2 0 0 1 0 22.3" fill="#fff500F0"/><path d="M96-5.5a11.2 11.2 0 1 1 0-22.3 11.2 11.2 0 0 1 0 22.3" fill="#fffF1"/><path d="M122-12.9a11.2 11.2 0 1 1 0-22.5 11.2 11.2 0 0 1 0 22.5" fill="#c2e1ffF2"/><path d="M233-145.5a11.3 11.3 0 1 1 0-22.6 11.3 11.3 0 0 1 0 22.6" fill="#fff500F3"/><path d="M120.1-261.7a11.5 11.5 0 1 1 0-22.9 11.5 11.5 0 0 1 0 22.9" fill="#fff500F7"/><path d="M43.9-232a11.5 11.5 0 1 1 0-23.1 11.5 11.5 0 0 1 0 23.1" fill="#c2e1ffF9"/><path d="M98-56.1a11.6 11.6 0 1 1 0-23.1 11.6 11.6 0 0 1 0 23.1" fill="#005bbbF9"/><path d="M49.4-90.8a11.6 11.6 0 1 1 0-23.3 11.6 11.6 0 0 1 0 23.3" fill="#fffFB"/><path d="M120.7-86a11.7 11.7 0 1 1 0-23.4 11.7 11.7 0 0 1 0 23.4" fill="#fff500FC"/><path d="M44.7-122.8a11.7 11.7 0 1 1 0-23.5 11.7 11.7 0 0 1 0 23.5" fill="#005bbbFC"/><path d="M74.4-108.8a11.7 11.7 0 1 1 0-23.5 11.7 11.7 0 0 1 0 23.5" fill="#c2e1ffFD"/><path d="M139.4-122.2a11.7 11.7 0 1 1 0-23.5 11.7 11.7 0 0 1 0 23.5" fill="#fffFD"/><path d="M99.3-103.5a11.8 11.8 0 1 1 0-23.5 11.8 11.8 0 0 1 0 23.5" fill="#c2e1ffFD"/></g></svg>