<svg width="1200" height="675" viewBox="-500 -500 1200 675" xmlns="http://www.w3.org/2000/svg"><path d="M-500-500h1200v675h-1200z" fill="#000"/><style>.sparkles path{stroke-linecap:round; stroke-width:1}</style><g class="sparkles"><path d="M100-162.5l-29.3-15.1" stroke="#fff50032"/><path d="M100-162.5l25 22.5" stroke="#fff32"/><path d="M100-162.5l37.9-35.3" stroke="#c2e1ff33"/><path d="M100-162.5l32.7-46.1" stroke="#fff50033"/><path d="M100-162.5l50.1-39.4" stroke="#c2e1ff33"/><path d="M100-162.5l-12.8-64.5" stroke="#fff50033"/><path d="M100-162.5l-40 58.3" stroke="#c2e1ff34"/><path d="M100-162.5l-57.8-46" stroke="#c2e1ff34"/><path d="M100-162.5l-68.4-29.1" stroke="#fff50034"/><path d="M100-162.5l-59.4 57.3" stroke="#c2e1ff35"/><path d="M100-162.5l77.4 40.3" stroke="#fff35"/><path d="M100-162.5l-80.6-33.6" stroke="#c2e1ff35"/><path d="M100-162.5l-59.3-76.3" stroke="#005bbb36"/><path d="M100-162.5l73.3 74.8" stroke="#005bbb37"/><path d="M100-162.5l104.3-11.8" stroke="#fff37"/><path d="M100-162.5l-51.7-95.3" stroke="#c2e1ff37"/><path d="M100-162.5l-17-111.6" stroke="#fff38"/><path d="M100-162.5l-53-118.9" stroke="#fff5003A"/><path d="M100-162.5l119.5 55.2" stroke="#c2e1ff3A"/><path d="M100-162.5l8.7-131.5" stroke="#fff5003A"/><path d="M100-162.5l10.6 131.9" stroke="#fff3A"/><path d="M100-162.5l72.5 114.8" stroke="#005bbb3B"/><path d="M100-162.5l-109.8-86.2" stroke="#c2e1ff3B"/><path d="M100-162.5l-143.7 31" stroke="#005bbb3C"/><path d="M100-162.5l145.2-36" stroke="#fff3D"/><path d="M100-162.5l135.8 64.8" stroke="#c2e1ff3D"/><path d="M100-162.5l-86.3-124.7" stroke="#fff3D"/><path d="M100-162.5l127.5-89.1" stroke="#005bbb3E"/><path d="M100-162.5l-159.8 0.9" stroke="#fff5003F"/><path d="M100-162.5l34.4-161.6" stroke="#fff40"/><path d="M100-162.5l-74.4 147.8" stroke="#fff50040"/><path d="M100-162.5l4.6 175.3" stroke="#fff42"/><path d="M100-162.5l-30.2-172.9" stroke="#fff50042"/><path d="M100-162.5l53.4 168.6" stroke="#005bbb42"/><path d="M100-162.5l-7.3 176.8" stroke="#fff42"/><path d="M100-162.5l174.6-28.4" stroke="#fff42"/><path d="M100-162.5l36.7-178" stroke="#005bbb44"/><path d="M100-162.5l-1.4 188.7" stroke="#fff50045"/><path d="M100-162.5l142.4-126.1" stroke="#c2e1ff46"/><path d="M100-162.5l-141.9-127.1" stroke="#c2e1ff46"/><path d="M100-162.5l29.3 191.1" stroke="#fff47"/><path d="M100-162.5l166.6-98.1" stroke="#005bbb47"/><path d="M100-162.5l187.1-50.4" stroke="#005bbb47"/><path d="M100-162.5l148.6 124.4" stroke="#fff47"/><path d="M100-162.5l127.8 146.9" stroke="#fff50047"/><path d="M100-162.5l-197.6 14.9" stroke="#005bbb48"/><path d="M100-162.5l161.9-114.9" stroke="#c2e1ff48"/><path d="M100-162.5l140.1 141.6" stroke="#c2e1ff49"/><path d="M100-162.5l31.9 199.7" stroke="#005bbb4A"/><path d="M100-162.5l-75.1 189.2" stroke="#fff5004A"/><path d="M100-162.5l-36.6-200.4" stroke="#fff4A"/><path d="M100-162.5l-185.6 88.4" stroke="#005bbb4B"/><path d="M100-162.5l-202.9 34.3" stroke="#fff4B"/><path d="M100-162.5l-128.6 163.2" stroke="#005bbb4C"/><path d="M100-162.5l-191.4-81.5" stroke="#fff4C"/><path d="M100-162.5l90.2 187.9" stroke="#c2e1ff4C"/><path d="M100-162.5l-21.7-207.5" stroke="#fff4C"/><path d="M100-162.5l162.8 132.8" stroke="#fff5004D"/><path d="M100-162.5l209.6-18.5" stroke="#fff5004D"/><path d="M100-162.5l181.5 107" stroke="#c2e1ff4D"/><path d="M100-162.5l210.7-6.1" stroke="#005bbb4D"/><path d="M100-162.5l169.3 125.7" stroke="#c2e1ff4D"/><path d="M100-162.5l213 14.4" stroke="#c2e1ff4E"/><path d="M100-162.5l203.6 73.6" stroke="#c2e1ff50"/><path d="M100-162.5l-219.1-23.9" stroke="#c2e1ff52"/><path d="M100-162.5l221.4-35.2" stroke="#fff50054"/><path d="M100-162.5l-2.4-225" stroke="#fff54"/><path d="M100-162.5l-140.2 176.3" stroke="#fff54"/><path d="M100-162.5l10.3 226" stroke="#fff50055"/><path d="M100-162.5l-53.2 223" stroke="#c2e1ff57"/><path d="M100-162.5l-207.3-100.6" stroke="#005bbb58"/><path d="M100-162.5l228.5-34.2" stroke="#005bbb59"/><path d="M100-162.5l35.7 228.7" stroke="#fff50059"/><path d="M100-162.5l-188.6 135.1" stroke="#005bbb5A"/><path d="M100-162.5l229.6 34.7" stroke="#fff5A"/><path d="M100-162.5l80.7 218.3" stroke="#c2e1ff5B"/><path d="M100-162.5l232.7-19.5" stroke="#005bbb5C"/><path d="M100-162.5l-98.1-212.3" stroke="#fff5005C"/><path d="M100-162.5l-40.3 230.4" stroke="#fff5C"/><path d="M100-162.5l-56.7-227" stroke="#c2e1ff5D"/><path d="M100-162.5l217.9-86.2" stroke="#fff5005D"/><path d="M100-162.5l-108.3-207.9" stroke="#005bbb5D"/><path d="M100-162.5l221.2 78.3" stroke="#fff5005E"/><path d="M100-162.5l66.5 225.3" stroke="#fff5005E"/><path d="M100-162.5l15.4 234.4" stroke="#fff5E"/><path d="M100-162.5l233.9 22.3" stroke="#fff5E"/><path d="M100-162.5l229.2 53.9" stroke="#c2e1ff5F"/><path d="M100-162.5l-220.3 83.3" stroke="#fff60"/><path d="M100-162.5l-227.4-61.4" stroke="#fff60"/><path d="M100-162.5l-72.8 224" stroke="#005bbb60"/><path d="M100-162.5l201.7 121.8" stroke="#005bbb60"/><path d="M100-162.5l-232.5 39.1" stroke="#fff50060"/><path d="M100-162.5l-2.3 236" stroke="#005bbb61"/><path d="M100-162.5l185.5 145.9" stroke="#fff50061"/><path d="M100-162.5l76 223.7" stroke="#c2e1ff64"/><path d="M100-162.5l-234 32.8" stroke="#c2e1ff64"/><path d="M100-162.5l86.2-219.9" stroke="#fff50064"/><path d="M100-162.5l83.7-220.8" stroke="#fff50065"/><path d="M100-162.5l-61.6-227.8" stroke="#fff50066"/><path d="M100-162.5l-12.5-235.5" stroke="#fff67"/><path d="M100-162.5l-123.3 199.7" stroke="#c2e1ff69"/><path d="M100-162.5l227-59.3" stroke="#c2e1ff69"/><path d="M100-162.5l19.2 233" stroke="#005bbb6B"/><path d="M100-162.5l-193.8-130.2" stroke="#fff6B"/><path d="M100-162.5l-153.2-175" stroke="#c2e1ff6C"/><path d="M100-162.5l204.1-111" stroke="#c2e1ff6D"/><path d="M100-162.5l229.6 33.5" stroke="#005bbb6D"/><path d="M100-162.5l-59.5 224.1" stroke="#fff6D"/><path d="M100-162.5l38.5-228.5" stroke="#fff6D"/><path d="M100-162.5l-225.4 47.5" stroke="#fff6F"/><path d="M100-162.5l9.5 228.8" stroke="#c2e1ff70"/><path d="M100-162.5l182-138.6" stroke="#fff50070"/><path d="M100-162.5l-223 49.6" stroke="#fff50070"/><path d="M100-162.5l108.2 200.5" stroke="#c2e1ff71"/><path d="M100-162.5l190.8 124.2" stroke="#005bbb71"/><path d="M100-162.5l-89.8 208.8" stroke="#fff50071"/><path d="M100-162.5l204 100.1" stroke="#005bbb71"/><path d="M100-162.5l-16.3-226.2" stroke="#fff50072"/><path d="M100-162.5l-147.9-168.8" stroke="#c2e1ff73"/><path d="M100-162.5l32.5-222" stroke="#fff73"/><path d="M100-162.5l-172.1 140.5" stroke="#c2e1ff74"/><path d="M100-162.5l-202 88.3" stroke="#fff75"/><path d="M100-162.5l-108.1-192" stroke="#005bbb76"/><path d="M100-162.5l200.3-90.8" stroke="#fff76"/><path d="M100-162.5l-72.8 206.9" stroke="#c2e1ff76"/><path d="M100-162.5l-85.7 201.5" stroke="#fff50076"/><path d="M100-162.5l36.1-215.6" stroke="#005bbb76"/><path d="M100-162.5l-5.6-218.5" stroke="#005bbb76"/><path d="M100-162.5l-182.7-119" stroke="#005bbb77"/><path d="M100-162.5l205.1 68.1" stroke="#005bbb78"/><path d="M100-162.5l119.8 178.5" stroke="#fff50078"/><path d="M100-162.5l-13.7-214.5" stroke="#fff50078"/><path d="M100-162.5l-211-39.5" stroke="#c2e1ff78"/><path d="M100-162.5l-134.8-165.8" stroke="#c2e1ff79"/><path d="M100-162.5l180 114.6" stroke="#fff50079"/><path d="M100-162.5l184.7-103.4" stroke="#fff7A"/><path d="M100-162.5l52.6 200.2" stroke="#fff5007C"/><path d="M100-162.5l202.3-21.2" stroke="#fff7D"/><path d="M100-162.5l-187.8 77.1" stroke="#c2e1ff7D"/><path d="M100-162.5l91.8 179.5" stroke="#005bbb7E"/><path d="M100-162.5l-129.5-153.5" stroke="#005bbb7E"/><path d="M100-162.5l198.4 15.1" stroke="#fff5007E"/><path d="M100-162.5l69.6-178.2" stroke="#c2e1ff81"/><path d="M100-162.5l-149.2-111.9" stroke="#fff82"/><path d="M100-162.5l-183.6 2.6" stroke="#005bbb83"/><path d="M100-162.5l-58.7 171.9" stroke="#fff50083"/><path d="M100-162.5l178.6-30.3" stroke="#fff50084"/><path d="M100-162.5l131 124.8" stroke="#fff84"/><path d="M100-162.5l-178.5-22.5" stroke="#c2e1ff84"/><path d="M100-162.5l177.3-8.9" stroke="#fff50084"/><path d="M100-162.5l11.2 176.4" stroke="#005bbb85"/><path d="M100-162.5l39.1 168.7" stroke="#fff86"/><path d="M100-162.5l151.3 83.3" stroke="#005bbb86"/><path d="M100-162.5l-166.6-37.3" stroke="#fff86"/><path d="M100-162.5l-72.4 152.8" stroke="#c2e1ff86"/><path d="M100-162.5l65 156" stroke="#fff50086"/><path d="M100-162.5l98.3 136.1" stroke="#fff87"/><path d="M100-162.5l-161.5-20.7" stroke="#c2e1ff88"/><path d="M100-162.5l63.8-148.8" stroke="#fff50088"/><path d="M100-162.5l159.9 10.2" stroke="#fff50088"/><path d="M100-162.5l-112.8 113.2" stroke="#c2e1ff88"/><path d="M100-162.5l91.5-126.4" stroke="#fff89"/><path d="M100-162.5l132.2 82.7" stroke="#fff89"/><path d="M100-162.5l128 81.3" stroke="#fff5008A"/><path d="M100-162.5l30.3-140.1" stroke="#fff8B"/><path d="M100-162.5l-139.7 24.8" stroke="#fff5008B"/><path d="M100-162.5l104-88.8" stroke="#fff8C"/><path d="M100-162.5l-111 76.2" stroke="#005bbb8D"/><path d="M100-162.5l70 102.8" stroke="#005bbb8E"/><path d="M100-162.5l-66.2-101.3" stroke="#c2e1ff8E"/><path d="M100-162.5l75.1-89.3" stroke="#005bbb8F"/><path d="M100-162.5l-106.4-7.2" stroke="#fff50090"/><path d="M100-162.5l-65.7-82.6" stroke="#005bbb90"/><path d="M100-162.5l105 0" stroke="#c2e1ff90"/><path d="M100-162.5l36-97.2" stroke="#fff50090"/><path d="M100-162.5l82.6 61.8" stroke="#fff50090"/><path d="M100-162.5l-95.2 26.9" stroke="#fff91"/><path d="M100-162.5l-33.5-92.6" stroke="#fff91"/><path d="M100-162.5l-29.3 62.5" stroke="#c2e1ff93"/><path d="M100-162.5l47.7-32.1" stroke="#fff94"/><path d="M100-162.5l12.1-4" stroke="#005bbb95"/></g><g class="sparcs"><path d="M70.7-171.6a5.9 5.9 0 1 1 0-11.9 5.9 5.9 0 0 1 0 11.9" fill="#005bbb7D"/><path d="M125-134.1a5.9 5.9 0 1 1 0-11.9 5.9 5.9 0 0 1 0 11.9" fill="#fff7D"/><path d="M137.9-191.8a6 6 0 1 1 0-12 6 6 0 0 1 0 12" fill="#fff5007E"/><path d="M132.7-202.6a6 6 0 1 1 0-12 6 6 0 0 1 0 12" fill="#005bbb7E"/><path d="M150.1-195.9a6 6 0 1 1 0-12 6 6 0 0 1 0 12" fill="#005bbb7F"/><path d="M87.2-221a6 6 0 1 1 0-12.1 6 6 0 0 1 0 12.1" fill="#fff5007F"/><path d="M60-98.1a6 6 0 1 1 0-12.1 6 6 0 0 1 0 12.1" fill="#fff7F"/><path d="M42.2-202.4a6.1 6.1 0 1 1 0-12.2 6.1 6.1 0 0 1 0 12.2" fill="#fff80"/><path d="M31.6-185.5a6.1 6.1 0 1 1 0-12.1 6.1 6.1 0 0 1 0 12.1" fill="#fff80"/><path d="M40.6-99.1a6.1 6.1 0 1 1 0-12.2 6.1 6.1 0 0 1 0 12.2" fill="#005bbb81"/><path d="M177.4-116.1a6.1 6.1 0 1 1 0-12.3 6.1 6.1 0 0 1 0 12.3" fill="#fff81"/><path d="M19.4-190a6.1 6.1 0 1 1 0-12.3 6.1 6.1 0 0 1 0 12.3" fill="#c2e1ff81"/><path d="M40.7-232.6a6.2 6.2 0 1 1 0-12.4 6.2 6.2 0 0 1 0 12.4" fill="#fff50082"/><path d="M173.3-81.5a6.2 6.2 0 1 1 0-12.4 6.2 6.2 0 0 1 0 12.4" fill="#c2e1ff83"/><path d="M204.3-168.1a6.2 6.2 0 1 1 0-12.5 6.2 6.2 0 0 1 0 12.5" fill="#c2e1ff83"/><path d="M48.3-251.6a6.2 6.2 0 1 1 0-12.5 6.2 6.2 0 0 1 0 12.5" fill="#c2e1ff84"/><path d="M83-267.8a6.3 6.3 0 1 1 0-12.6 6.3 6.3 0 0 1 0 12.6" fill="#c2e1ff84"/><path d="M47-275a6.4 6.4 0 1 1 0-12.8 6.4 6.4 0 0 1 0 12.8" fill="#fff50087"/><path d="M219.5-100.9a6.4 6.4 0 1 1 0-12.8 6.4 6.4 0 0 1 0 12.8" fill="#c2e1ff88"/><path d="M108.7-287.6a6.4 6.4 0 1 1 0-12.8 6.4 6.4 0 0 1 0 12.8" fill="#fff50088"/><path d="M110.6-24.2a6.4 6.4 0 1 1 0-12.8 6.4 6.4 0 0 1 0 12.8" fill="#fff88"/><path d="M172.5-41.3a6.4 6.4 0 1 1 0-12.9 6.4 6.4 0 0 1 0 12.9" fill="#c2e1ff88"/><path d="M-9.8-242.2a6.5 6.5 0 1 1 0-13 6.5 6.5 0 0 1 0 13" fill="#005bbb89"/><path d="M-43.7-125a6.5 6.5 0 1 1 0-13.1 6.5 6.5 0 0 1 0 13.1" fill="#005bbb8B"/><path d="M245.2-191.9a6.6 6.6 0 1 1 0-13.2 6.6 6.6 0 0 1 0 13.2" fill="#fff5008B"/><path d="M235.8-91.1a6.6 6.6 0 1 1 0-13.2 6.6 6.6 0 0 1 0 13.2" fill="#005bbb8B"/><path d="M13.7-280.6a6.6 6.6 0 1 1 0-13.2 6.6 6.6 0 0 1 0 13.2" fill="#fff8C"/><path d="M227.5-244.9a6.6 6.6 0 1 1 0-13.3 6.6 6.6 0 0 1 0 13.3" fill="#fff8D"/><path d="M-59.8-154.9a6.7 6.7 0 1 1 0-13.3 6.7 6.7 0 0 1 0 13.3" fill="#005bbb8E"/><path d="M134.4-317.4a6.7 6.7 0 1 1 0-13.5 6.7 6.7 0 0 1 0 13.5" fill="#fff5008F"/><path d="M25.6-7.9a6.8 6.8 0 1 1 0-13.5 6.8 6.8 0 0 1 0 13.5" fill="#c2e1ff8F"/><path d="M104.6 19.7a6.9 6.9 0 1 1 0-13.7 6.9 6.9 0 0 1 0 13.7" fill="#fff50092"/><path d="M69.8-328.5a6.9 6.9 0 1 1 0-13.8 6.9 6.9 0 0 1 0 13.8" fill="#fff50092"/><path d="M153.4 13a6.9 6.9 0 1 1 0-13.8 6.9 6.9 0 0 1 0 13.8" fill="#fff92"/><path d="M92.7 21.2a6.9 6.9 0 1 1 0-13.8 6.9 6.9 0 0 1 0 13.8" fill="#fff92"/><path d="M274.6-184a6.9 6.9 0 1 1 0-13.8 6.9 6.9 0 0 1 0 13.8" fill="#005bbb92"/><path d="M136.7-333.5a7 7 0 1 1 0-13.9 7 7 0 0 1 0 13.9" fill="#fff94"/><path d="M98.6 33.3a7.1 7.1 0 1 1 0-14.2 7.1 7.1 0 0 1 0 14.2" fill="#fff96"/><path d="M242.4-281.5a7.1 7.1 0 1 1 0-14.2 7.1 7.1 0 0 1 0 14.2" fill="#005bbb97"/><path d="M-41.9-282.5a7.1 7.1 0 1 1 0-14.3 7.1 7.1 0 0 1 0 14.3" fill="#fff50097"/><path d="M129.3 35.7a7.2 7.2 0 1 1 0-14.3 7.2 7.2 0 0 1 0 14.3" fill="#fff98"/><path d="M266.6-253.4a7.2 7.2 0 1 1 0-14.4 7.2 7.2 0 0 1 0 14.4" fill="#005bbb98"/><path d="M287.1-205.7a7.2 7.2 0 1 1 0-14.4 7.2 7.2 0 0 1 0 14.4" fill="#c2e1ff98"/><path d="M248.6-30.9a7.2 7.2 0 1 1 0-14.3 7.2 7.2 0 0 1 0 14.3" fill="#fff50098"/><path d="M227.8-8.4a7.2 7.2 0 1 1 0-14.4 7.2 7.2 0 0 1 0 14.4" fill="#fff50099"/><path d="M-97.6-140.4a7.3 7.3 0 1 1 0-14.5 7.3 7.3 0 0 1 0 14.5" fill="#fff5009A"/><path d="M261.9-270.2a7.3 7.3 0 1 1 0-14.5 7.3 7.3 0 0 1 0 14.5" fill="#c2e1ff9A"/><path d="M240.1-13.6a7.3 7.3 0 1 1 0-14.5 7.3 7.3 0 0 1 0 14.5" fill="#fff5009B"/><path d="M131.9 44.6a7.3 7.3 0 1 1 0-14.7 7.3 7.3 0 0 1 0 14.7" fill="#fff5009C"/><path d="M24.9 34a7.4 7.4 0 1 1 0-14.7 7.4 7.4 0 0 1 0 14.7" fill="#005bbb9D"/><path d="M63.4-355.5a7.4 7.4 0 1 1 0-14.7 7.4 7.4 0 0 1 0 14.7" fill="#005bbb9D"/><path d="M-85.6-66.7a7.4 7.4 0 1 1 0-14.8 7.4 7.4 0 0 1 0 14.8" fill="#fff5009D"/><path d="M-102.9-120.7a7.4 7.4 0 1 1 0-14.9 7.4 7.4 0 0 1 0 14.9" fill="#c2e1ff9E"/><path d="M-28.6 8.1a7.5 7.5 0 1 1 0-14.9 7.5 7.5 0 0 1 0 14.9" fill="#c2e1ff9F"/><path d="M-91.4-236.5a7.5 7.5 0 1 1 0-14.9 7.5 7.5 0 0 1 0 14.9" fill="#fff5009F"/><path d="M190.2 32.9a7.5 7.5 0 1 1 0-15 7.5 7.5 0 0 1 0 15" fill="#fff5009F"/><path d="M78.3-362.5a7.5 7.5 0 1 1 0-14.9 7.5 7.5 0 0 1 0 14.9" fill="#005bbb9F"/><path d="M262.8-22.2a7.5 7.5 0 1 1 0-15 7.5 7.5 0 0 1 0 15" fill="#fffA0"/><path d="M309.6-173.5a7.5 7.5 0 1 1 0-15 7.5 7.5 0 0 1 0 15" fill="#c2e1ffA0"/><path d="M281.5-48a7.5 7.5 0 1 1 0-15.1 7.5 7.5 0 0 1 0 15.1" fill="#fffA0"/><path d="M310.7-161.1a7.5 7.5 0 1 1 0-15.1 7.5 7.5 0 0 1 0 15.1" fill="#c2e1ffA0"/><path d="M269.3-29.3a7.5 7.5 0 1 1 0-15 7.5 7.5 0 0 1 0 15" fill="#c2e1ffA0"/><path d="M313-140.5a7.6 7.6 0 1 1 0-15.2 7.6 7.6 0 0 1 0 15.2" fill="#fff500A2"/><path d="M303.6-81.3a7.7 7.7 0 1 1 0-15.3 7.7 7.7 0 0 1 0 15.3" fill="#005bbbA4"/><path d="M-119.1-178.6a7.8 7.8 0 1 1 0-15.6 7.8 7.8 0 0 1 0 15.6" fill="#c2e1ffA6"/><path d="M321.4-189.7a7.9 7.9 0 1 1 0-15.9 7.9 7.9 0 0 1 0 15.9" fill="#c2e1ffA9"/><path d="M97.6-379.5a8 8 0 1 1 0-16 8 8 0 0 1 0 16" fill="#005bbbAA"/><path d="M-40.2 21.8a8 8 0 1 1 0-16 8 8 0 0 1 0 16" fill="#c2e1ffAA"/><path d="M110.3 71.5a8 8 0 1 1 0-16 8 8 0 0 1 0 16" fill="#fffAB"/><path d="M46.8 68.6a8.1 8.1 0 1 1 0-16.3 8.1 8.1 0 0 1 0 16.3" fill="#fff500AE"/><path d="M-107.3-254.9a8.2 8.2 0 1 1 0-16.4 8.2 8.2 0 0 1 0 16.4" fill="#fff500AF"/><path d="M328.5-188.4a8.2 8.2 0 1 1 0-16.5 8.2 8.2 0 0 1 0 16.5" fill="#fff500B0"/><path d="M135.7 74.5a8.3 8.3 0 1 1 0-16.6 8.3 8.3 0 0 1 0 16.6" fill="#fff500B0"/><path d="M-88.6-19.1a8.3 8.3 0 1 1 0-16.6 8.3 8.3 0 0 1 0 16.6" fill="#005bbbB1"/><path d="M329.6-119.5a8.3 8.3 0 1 1 0-16.6 8.3 8.3 0 0 1 0 16.6" fill="#005bbbB2"/><path d="M180.7 64.2a8.4 8.4 0 1 1 0-16.7 8.4 8.4 0 0 1 0 16.7" fill="#c2e1ffB2"/><path d="M332.7-173.6a8.4 8.4 0 1 1 0-16.8 8.4 8.4 0 0 1 0 16.8" fill="#c2e1ffB4"/><path d="M1.9-366.3a8.4 8.4 0 1 1 0-16.9 8.4 8.4 0 0 1 0 16.9" fill="#005bbbB4"/><path d="M59.7 76.3a8.4 8.4 0 1 1 0-16.9 8.4 8.4 0 0 1 0 16.9" fill="#c2e1ffB4"/><path d="M43.3-381a8.4 8.4 0 1 1 0-16.9 8.4 8.4 0 0 1 0 16.9" fill="#fffB4"/><path d="M317.9-240.2a8.5 8.5 0 1 1 0-16.9 8.5 8.5 0 0 1 0 16.9" fill="#c2e1ffB5"/><path d="M-8.3-361.9a8.5 8.5 0 1 1 0-17 8.5 8.5 0 0 1 0 17" fill="#005bbbB5"/><path d="M321.2-75.7a8.5 8.5 0 1 1 0-17 8.5 8.5 0 0 1 0 17" fill="#fffB6"/><path d="M166.5 71.3a8.5 8.5 0 1 1 0-17.1 8.5 8.5 0 0 1 0 17.1" fill="#fff500B7"/><path d="M115.4 80.4a8.5 8.5 0 1 1 0-17.1 8.5 8.5 0 0 1 0 17.1" fill="#c2e1ffB7"/><path d="M333.9-131.7a8.6 8.6 0 1 1 0-17.1 8.6 8.6 0 0 1 0 17.1" fill="#fffB7"/><path d="M329.2-100a8.6 8.6 0 1 1 0-17.3 8.6 8.6 0 0 1 0 17.3" fill="#c2e1ffB8"/><path d="M-120.3-70.6a8.6 8.6 0 1 1 0-17.3 8.6 8.6 0 0 1 0 17.3" fill="#fffB8"/><path d="M-127.4-215.2a8.6 8.6 0 1 1 0-17.3 8.6 8.6 0 0 1 0 17.3" fill="#fffB8"/><path d="M27.2 70.2a8.6 8.6 0 1 1 0-17.3 8.6 8.6 0 0 1 0 17.3" fill="#c2e1ffB8"/><path d="M301.7-32a8.7 8.7 0 1 1 0-17.3 8.7 8.7 0 0 1 0 17.3" fill="#fffB9"/><path d="M-132.5-114.7a8.7 8.7 0 1 1 0-17.4 8.7 8.7 0 0 1 0 17.4" fill="#c2e1ffBA"/><path d="M97.7 82.3a8.7 8.7 0 1 1 0-17.5 8.7 8.7 0 0 1 0 17.5" fill="#fff500BB"/><path d="M285.5-7.8a8.7 8.7 0 1 1 0-17.5 8.7 8.7 0 0 1 0 17.5" fill="#c2e1ffBB"/><path d="M176 70a8.9 8.9 0 1 1 0-17.7 8.9 8.9 0 0 1 0 17.7" fill="#fffBE"/><path d="M-134-120.9a8.9 8.9 0 1 1 0-17.7 8.9 8.9 0 0 1 0 17.7" fill="#fff500BE"/><path d="M186.2-373.5a8.9 8.9 0 1 1 0-17.8 8.9 8.9 0 0 1 0 17.8" fill="#005bbbBF"/><path d="M183.7-374.4a9 9 0 1 1 0-17.9 9 9 0 0 1 0 17.9" fill="#c2e1ffC0"/><path d="M38.4-381.3a9 9 0 1 1 0-18 9 9 0 0 1 0 18" fill="#fff500C1"/><path d="M87.5-389a9 9 0 1 1 0-18 9 9 0 0 1 0 18" fill="#fff500C1"/><path d="M-23.3 46.4a9.2 9.2 0 1 1 0-18.4 9.2 9.2 0 0 1 0 18.4" fill="#005bbbC5"/><path d="M327-212.6a9.2 9.2 0 1 1 0-18.4 9.2 9.2 0 0 1 0 18.4" fill="#fffC5"/><path d="M119.2 79.8a9.3 9.3 0 1 1 0-18.6 9.3 9.3 0 0 1 0 18.6" fill="#c2e1ffC7"/><path d="M-93.8-283.4a9.3 9.3 0 1 1 0-18.6 9.3 9.3 0 0 1 0 18.6" fill="#fffC7"/><path d="M-53.2-328.1a9.4 9.4 0 1 1 0-18.8 9.4 9.4 0 0 1 0 18.8" fill="#fffC9"/><path d="M304.1-264.1a9.4 9.4 0 1 1 0-18.8 9.4 9.4 0 0 1 0 18.8" fill="#c2e1ffC9"/><path d="M329.6-119.6a9.4 9.4 0 1 1 0-18.8 9.4 9.4 0 0 1 0 18.8" fill="#fff500CA"/><path d="M40.5 71.1a9.4 9.4 0 1 1 0-18.9 9.4 9.4 0 0 1 0 18.9" fill="#fff500CA"/><path d="M138.5-381.6a9.4 9.4 0 1 1 0-18.9 9.4 9.4 0 0 1 0 18.9" fill="#fffCA"/><path d="M-125.4-105.5a9.5 9.5 0 1 1 0-19 9.5 9.5 0 0 1 0 19" fill="#c2e1ffCC"/><path d="M109.5 75.9a9.6 9.6 0 1 1 0-19.1 9.6 9.6 0 0 1 0 19.1" fill="#fff500CD"/><path d="M282-291.5a9.6 9.6 0 1 1 0-19.2 9.6 9.6 0 0 1 0 19.2" fill="#005bbbCE"/><path d="M-123-103.3a9.6 9.6 0 1 1 0-19.2 9.6 9.6 0 0 1 0 19.2" fill="#005bbbCE"/><path d="M208.2 47.6a9.6 9.6 0 1 1 0-19.2 9.6 9.6 0 0 1 0 19.2" fill="#c2e1ffCF"/><path d="M290.8-28.7a9.7 9.7 0 1 1 0-19.3 9.7 9.7 0 0 1 0 19.3" fill="#c2e1ffCF"/><path d="M10.2 56a9.7 9.7 0 1 1 0-19.4 9.7 9.7 0 0 1 0 19.4" fill="#005bbbCF"/><path d="M304-52.7a9.7 9.7 0 1 1 0-19.4 9.7 9.7 0 0 1 0 19.4" fill="#005bbbCF"/><path d="M83.7-379a9.7 9.7 0 1 1 0-19.3 9.7 9.7 0 0 1 0 19.3" fill="#fffD0"/><path d="M-47.9-321.6a9.8 9.8 0 1 1 0-19.5 9.8 9.8 0 0 1 0 19.5" fill="#fffD2"/><path d="M132.5-374.7a9.8 9.8 0 1 1 0-19.6 9.8 9.8 0 0 1 0 19.6" fill="#005bbbD2"/><path d="M-72.1-12.1a9.9 9.9 0 1 1 0-19.7 9.9 9.9 0 0 1 0 19.7" fill="#005bbbD4"/><path d="M-102-64.2a9.9 9.9 0 1 1 0-19.9 9.9 9.9 0 0 1 0 19.9" fill="#fff500D5"/><path d="M-8.1-344.5a9.9 9.9 0 1 1 0-19.9 9.9 9.9 0 0 1 0 19.9" fill="#c2e1ffD5"/><path d="M300.3-243.4a9.9 9.9 0 1 1 0-19.8 9.9 9.9 0 0 1 0 19.8" fill="#005bbbD5"/><path d="M27.2 54.4a10 10 0 1 1 0-19.9 10 10 0 0 1 0 19.9" fill="#005bbbD6"/><path d="M14.3 49a10 10 0 1 1 0-19.9 10 10 0 0 1 0 19.9" fill="#fffD6"/><path d="M136.1-368.1a10 10 0 1 1 0-20 10 10 0 0 1 0 20" fill="#005bbbD6"/><path d="M94.4-371.1a10 10 0 1 1 0-19.9 10 10 0 0 1 0 19.9" fill="#fff500D6"/><path d="M-82.7-271.5a10 10 0 1 1 0-20 10 10 0 0 1 0 20" fill="#fff500D7"/><path d="M305.1-84.3a10.1 10.1 0 1 1 0-20.1 10.1 10.1 0 0 1 0 20.1" fill="#005bbbD8"/><path d="M219.8 26.1a10.1 10.1 0 1 1 0-20.2 10.1 10.1 0 0 1 0 20.2" fill="#c2e1ffD8"/><path d="M86.3-366.9a10.1 10.1 0 1 1 0-20.2 10.1 10.1 0 0 1 0 20.2" fill="#fff500D8"/><path d="M-111-192a10.1 10.1 0 1 1 0-20.1 10.1 10.1 0 0 1 0 20.1" fill="#005bbbD9"/><path d="M-34.8-318.2a10.1 10.1 0 1 1 0-20.2 10.1 10.1 0 0 1 0 20.2" fill="#fff500D9"/><path d="M280-37.8a10.1 10.1 0 1 1 0-20.2 10.1 10.1 0 0 1 0 20.2" fill="#005bbbD9"/><path d="M284.7-255.7a10.2 10.2 0 1 1 0-20.4 10.2 10.2 0 0 1 0 20.4" fill="#fffDA"/><path d="M152.6 48a10.3 10.3 0 1 1 0-20.6 10.3 10.3 0 0 1 0 20.6" fill="#fffDD"/><path d="M302.3-173.3a10.4 10.4 0 1 1 0-20.8 10.4 10.4 0 0 1 0 20.8" fill="#c2e1ffDF"/><path d="M-87.8-75.1a10.4 10.4 0 1 1 0-20.7 10.4 10.4 0 0 1 0 20.7" fill="#005bbbDF"/><path d="M191.8 27.4a10.4 10.4 0 1 1 0-20.8 10.4 10.4 0 0 1 0 20.8" fill="#fffDF"/><path d="M-29.5-305.5a10.4 10.4 0 1 1 0-20.9 10.4 10.4 0 0 1 0 20.9" fill="#005bbbE0"/><path d="M298.4-136.9a10.5 10.5 0 1 1 0-20.9 10.5 10.5 0 0 1 0 20.9" fill="#005bbbE1"/><path d="M169.6-330.1a10.6 10.6 0 1 1 0-21.2 10.6 10.6 0 0 1 0 21.2" fill="#fff500E4"/><path d="M-49.2-263.7a10.7 10.7 0 1 1 0-21.4 10.7 10.7 0 0 1 0 21.4" fill="#fffE5"/><path d="M-83.6-149.2a10.7 10.7 0 1 1 0-21.5 10.7 10.7 0 0 1 0 21.5" fill="#005bbbE6"/><path d="M41.3 20.1a10.7 10.7 0 1 1 0-21.5 10.7 10.7 0 0 1 0 21.5" fill="#fff500E7"/><path d="M278.6-182.1a10.8 10.8 0 1 1 0-21.5 10.8 10.8 0 0 1 0 21.5" fill="#005bbbE7"/><path d="M231-27a10.8 10.8 0 1 1 0-21.5 10.8 10.8 0 0 1 0 21.5" fill="#fff500E7"/><path d="M-78.5-174.2a10.8 10.8 0 1 1 0-21.5 10.8 10.8 0 0 1 0 21.5" fill="#fff500E8"/><path d="M277.3-160.6a10.8 10.8 0 1 1 0-21.6 10.8 10.8 0 0 1 0 21.6" fill="#fffE8"/><path d="M111.2 24.7a10.8 10.8 0 1 1 0-21.6 10.8 10.8 0 0 1 0 21.6" fill="#005bbbE9"/><path d="M139.1 17.1a10.9 10.9 0 1 1 0-21.7 10.9 10.9 0 0 1 0 21.7" fill="#fff500EA"/><path d="M251.3-68.3a10.9 10.9 0 1 1 0-21.8 10.9 10.9 0 0 1 0 21.8" fill="#c2e1ffEA"/><path d="M-66.6-188.9a10.9 10.9 0 1 1 0-21.8 10.9 10.9 0 0 1 0 21.8" fill="#005bbbEA"/><path d="M27.6 1.2a10.9 10.9 0 1 1 0-21.8 10.9 10.9 0 0 1 0 21.8" fill="#c2e1ffEB"/><path d="M165 4.4a10.9 10.9 0 1 1 0-21.9 10.9 10.9 0 0 1 0 21.9" fill="#fffEB"/><path d="M198.3-15.4a10.9 10.9 0 1 1 0-21.9 10.9 10.9 0 0 1 0 21.9" fill="#c2e1ffEB"/><path d="M-61.5-172.2a11 11 0 1 1 0-22 11 11 0 0 1 0 22" fill="#fff500ED"/><path d="M163.8-300.3a11 11 0 1 1 0-22 11 11 0 0 1 0 22" fill="#c2e1ffED"/><path d="M259.9-141.3a11 11 0 1 1 0-22 11 11 0 0 1 0 22" fill="#c2e1ffED"/><path d="M-12.8-38.3a11 11 0 1 1 0-22.1 11 11 0 0 1 0 22.1" fill="#c2e1ffED"/><path d="M191.5-277.9a11.1 11.1 0 1 1 0-22.1 11.1 11.1 0 0 1 0 22.1" fill="#fff500EE"/><path d="M232.2-68.7a11.1 11.1 0 1 1 0-22.2 11.1 11.1 0 0 1 0 22.2" fill="#fff500EE"/><path d="M228-70.1a11.1 11.1 0 1 1 0-22.3 11.1 11.1 0 0 1 0 22.3" fill="#fffEF"/><path d="M130.3-291.4a11.2 11.2 0 1 1 0-22.4 11.2 11.2 0 0 1 0 22.4" fill="#005bbbF1"/><path d="M-39.7-126.5a11.2 11.2 0 1 1 0-22.4 11.2 11.2 0 0 1 0 22.4" fill="#fffF1"/><path d="M204-240a11.3 11.3 0 1 1 0-22.6 11.3 11.3 0 0 1 0 22.6" fill="#c2e1ffF3"/><path d="M-11-75a11.3 11.3 0 1 1 0-22.6 11.3 11.3 0 0 1 0 22.6" fill="#005bbbF3"/><path d="M170-48.3a11.4 11.4 0 1 1 0-22.8 11.4 11.4 0 0 1 0 22.8" fill="#005bbbF5"/><path d="M33.8-252.4a11.4 11.4 0 1 1 0-22.8 11.4 11.4 0 0 1 0 22.8" fill="#c2e1ffF5"/><path d="M175.1-240.3a11.4 11.4 0 1 1 0-22.9 11.4 11.4 0 0 1 0 22.9" fill="#fff500F6"/><path d="M-6.4-158.2a11.5 11.5 0 1 1 0-23 11.5 11.5 0 0 1 0 23" fill="#c2e1ffF8"/><path d="M34.3-233.6a11.5 11.5 0 1 1 0-23 11.5 11.5 0 0 1 0 23" fill="#005bbbF8"/><path d="M205-151a11.5 11.5 0 1 1 0-23 11.5 11.5 0 0 1 0 23" fill="#c2e1ffF8"/><path d="M136-248.2a11.5 11.5 0 1 1 0-23.1 11.5 11.5 0 0 1 0 23.1" fill="#005bbbF8"/><path d="M182.6-89.1a11.5 11.5 0 1 1 0-23.1 11.5 11.5 0 0 1 0 23.1" fill="#005bbbF8"/><path d="M4.8-124a11.5 11.5 0 1 1 0-23.1 11.5 11.5 0 0 1 0 23.1" fill="#fff500F9"/><path d="M66.5-243.6a11.5 11.5 0 1 1 0-23.1 11.5 11.5 0 0 1 0 23.1" fill="#c2e1ffF9"/><path d="M70.7-88.3a11.7 11.7 0 1 1 0-23.4 11.7 11.7 0 0 1 0 23.4" fill="#c2e1ffFC"/><path d="M147.7-182.9a11.7 11.7 0 1 1 0-23.4 11.7 11.7 0 0 1 0 23.4" fill="#fff500FD"/><path d="M112.1-154.7a11.8 11.8 0 1 1 0-23.6 11.8 11.8 0 0 1 0 23.6" fill="#fff500FE"/></g></svg>