<svg width="1200" height="675" viewBox="-500 -500 1200 675" xmlns="http://www.w3.org/2000/svg"><path d="M-500-500h1200v675h-1200z" fill="#000"/><style>.sparkles path{stroke-linecap:round; stroke-width:1}</style><g class="sparkles"><path d="M100-162.5l-15.2-2.1" stroke="#fcbf4932"/><path d="M100-162.5l19.1 22.9" stroke="#eae2b732"/><path d="M100-162.5l46.5 31.9" stroke="#d6282833"/><path d="M100-162.5l47.6-40.8" stroke="#00304933"/><path d="M100-162.5l63.4-22.5" stroke="#f77f0034"/><path d="M100-162.5l67.6 8.3" stroke="#00304934"/><path d="M100-162.5l-30.3-70" stroke="#fcbf4934"/><path d="M100-162.5l37-83.1" stroke="#00304935"/><path d="M100-162.5l-61.1-68" stroke="#eae2b735"/><path d="M100-162.5l-31.5-97.4" stroke="#00304936"/><path d="M100-162.5l88.4-52.1" stroke="#fcbf4936"/><path d="M100-162.5l12.1 104.3" stroke="#eae2b737"/><path d="M100-162.5l-71.3-78.8" stroke="#eae2b737"/><path d="M100-162.5l-41.8-102.9" stroke="#d6282837"/><path d="M100-162.5l73.6-84.2" stroke="#d6282837"/><path d="M100-162.5l-12.7 113.1" stroke="#d6282838"/><path d="M100-162.5l112.1 30.1" stroke="#eae2b738"/><path d="M100-162.5l93 70.9" stroke="#fcbf4938"/><path d="M100-162.5l-47.3 120.4" stroke="#f77f003A"/><path d="M100-162.5l127.7-21.3" stroke="#fcbf493A"/><path d="M100-162.5l60.4 123.8" stroke="#f77f003B"/><path d="M100-162.5l-141.2-9.7" stroke="#0030493B"/><path d="M100-162.5l-87.7-122.2" stroke="#f77f003D"/><path d="M100-162.5l88.5-124.5" stroke="#d628283D"/><path d="M100-162.5l-139.7 66.5" stroke="#f77f003E"/><path d="M100-162.5l-135.5-76.9" stroke="#fcbf493E"/><path d="M100-162.5l26.1-153.9" stroke="#fcbf493E"/><path d="M100-162.5l66.5-143.7" stroke="#eae2b73E"/><path d="M100-162.5l-157.4 40.1" stroke="#0030493F"/><path d="M100-162.5l-147.8 76.4" stroke="#d6282840"/><path d="M100-162.5l-165.7-31.2" stroke="#f77f0040"/><path d="M100-162.5l-168.7-15.6" stroke="#fcbf4941"/><path d="M100-162.5l20.9-173.4" stroke="#fcbf4942"/><path d="M100-162.5l56.7-165.3" stroke="#fcbf4942"/><path d="M100-162.5l160.8 69.3" stroke="#fcbf4942"/><path d="M100-162.5l-110.6 137.6" stroke="#d6282842"/><path d="M100-162.5l168.7 53.4" stroke="#eae2b742"/><path d="M100-162.5l79.9-161.3" stroke="#00304943"/><path d="M100-162.5l27.5 180.2" stroke="#eae2b744"/><path d="M100-162.5l-9 183.7" stroke="#eae2b744"/><path d="M100-162.5l176.6 56.1" stroke="#f77f0044"/><path d="M100-162.5l-150 118.4" stroke="#00304946"/><path d="M100-162.5l-31.1-191.1" stroke="#fcbf4947"/><path d="M100-162.5l-145.4-128.4" stroke="#d6282847"/><path d="M100-162.5l-81.1-176.4" stroke="#f77f0047"/><path d="M100-162.5l195.2 19" stroke="#f77f0048"/><path d="M100-162.5l77.7-181" stroke="#00304948"/><path d="M100-162.5l64.5-186.7" stroke="#d6282848"/><path d="M100-162.5l192.9 47.7" stroke="#eae2b748"/><path d="M100-162.5l-173.2 100.1" stroke="#f77f0049"/><path d="M100-162.5l201.7 1.5" stroke="#00304949"/><path d="M100-162.5l-94.9 178.3" stroke="#0030494A"/><path d="M100-162.5l176.3 101.8" stroke="#0030494A"/><path d="M100-162.5l128.4 159.1" stroke="#eae2b74A"/><path d="M100-162.5l-118.4-167.3" stroke="#0030494B"/><path d="M100-162.5l207.1 0" stroke="#fcbf494B"/><path d="M100-162.5l205 40.9" stroke="#eae2b74C"/><path d="M100-162.5l-174.1-116.1" stroke="#fcbf494C"/><path d="M100-162.5l105-181.8" stroke="#d628284D"/><path d="M100-162.5l169.1 130.1" stroke="#eae2b74E"/><path d="M100-162.5l-108.8-183.5" stroke="#eae2b74E"/><path d="M100-162.5l-67.6-202.7" stroke="#eae2b74E"/><path d="M100-162.5l199.4-88.1" stroke="#eae2b750"/><path d="M100-162.5l60 211.8" stroke="#fcbf4951"/><path d="M100-162.5l-110.2-192.7" stroke="#fcbf4952"/><path d="M100-162.5l204.6-86.7" stroke="#00304953"/><path d="M100-162.5l-223 6.2" stroke="#eae2b753"/><path d="M100-162.5l-206 86.8" stroke="#00304953"/><path d="M100-162.5l-220.8-42.5" stroke="#00304954"/><path d="M100-162.5l107.1-198.3" stroke="#fcbf4955"/><path d="M100-162.5l-130.1-185.5" stroke="#00304955"/><path d="M100-162.5l137.5 180.9" stroke="#eae2b756"/><path d="M100-162.5l133.1-184.8" stroke="#eae2b756"/><path d="M100-162.5l34.3-225.4" stroke="#00304956"/><path d="M100-162.5l120.7 193.9" stroke="#d6282857"/><path d="M100-162.5l123.2-193.1" stroke="#fcbf4957"/><path d="M100-162.5l32.7-227.3" stroke="#fcbf4958"/><path d="M100-162.5l-90.7-211.7" stroke="#eae2b758"/><path d="M100-162.5l201.4 112.6" stroke="#eae2b759"/><path d="M100-162.5l-224.3 54.9" stroke="#f77f0059"/><path d="M100-162.5l-110.4-203" stroke="#eae2b759"/><path d="M100-162.5l-25 229.7" stroke="#d6282859"/><path d="M100-162.5l95.1-211" stroke="#fcbf4959"/><path d="M100-162.5l172.9-154.4" stroke="#fcbf495A"/><path d="M100-162.5l132.2-190.8" stroke="#d628285A"/><path d="M100-162.5l-149-179" stroke="#fcbf495B"/><path d="M100-162.5l-37.3-230.3" stroke="#eae2b75C"/><path d="M100-162.5l-179.5-149.6" stroke="#eae2b75C"/><path d="M100-162.5l127.4-196.2" stroke="#f77f005D"/><path d="M100-162.5l-111.2 205.9" stroke="#f77f005D"/><path d="M100-162.5l-105.6-209.1" stroke="#d628285D"/><path d="M100-162.5l-173.4-157.5" stroke="#f77f005D"/><path d="M100-162.5l-97.4-213.2" stroke="#0030495D"/><path d="M100-162.5l114 205.9" stroke="#eae2b75F"/><path d="M100-162.5l-58.4 228.4" stroke="#eae2b760"/><path d="M100-162.5l235.7-6" stroke="#eae2b760"/><path d="M100-162.5l143.5-187.3" stroke="#d6282861"/><path d="M100-162.5l-8.5-235.9" stroke="#00304961"/><path d="M100-162.5l164.3-169.6" stroke="#00304962"/><path d="M100-162.5l133.1 195.2" stroke="#00304964"/><path d="M100-162.5l-19.6-235.4" stroke="#d6282865"/><path d="M100-162.5l212.9 101.6" stroke="#eae2b766"/><path d="M100-162.5l-160-173.3" stroke="#fcbf4966"/><path d="M100-162.5l-189.5 140.1" stroke="#fcbf4967"/><path d="M100-162.5l88.5 218.3" stroke="#eae2b767"/><path d="M100-162.5l230.6-47.5" stroke="#fcbf4968"/><path d="M100-162.5l-191.6 136.5" stroke="#d6282868"/><path d="M100-162.5l-205.4-114.5" stroke="#f77f0068"/><path d="M100-162.5l-198.8 124.8" stroke="#d6282869"/><path d="M100-162.5l-198 125.7" stroke="#0030496A"/><path d="M100-162.5l232.9-26.6" stroke="#eae2b76A"/><path d="M100-162.5l152.8 176.6" stroke="#f77f006B"/><path d="M100-162.5l155.2-174.4" stroke="#0030496B"/><path d="M100-162.5l223.8 65.5" stroke="#0030496B"/><path d="M100-162.5l-66.5-223.3" stroke="#f77f006C"/><path d="M100-162.5l-188.1 136.3" stroke="#0030496D"/><path d="M100-162.5l-209.2 100.6" stroke="#eae2b76D"/><path d="M100-162.5l-206.1-106.7" stroke="#eae2b76D"/><path d="M100-162.5l226.2 46.9" stroke="#f77f006E"/><path d="M100-162.5l-226.1 43.3" stroke="#fcbf496F"/><path d="M100-162.5l-227 33.2" stroke="#eae2b76F"/><path d="M100-162.5l-224.8 45.3" stroke="#00304970"/><path d="M100-162.5l-121.8 193.6" stroke="#f77f0070"/><path d="M100-162.5l227.2 18.1" stroke="#f77f0071"/><path d="M100-162.5l-158.5 159.2" stroke="#00304973"/><path d="M100-162.5l143.6 172.7" stroke="#fcbf4973"/><path d="M100-162.5l-194.2-112.2" stroke="#f77f0073"/><path d="M100-162.5l97.3-202" stroke="#eae2b773"/><path d="M100-162.5l181.6-130.8" stroke="#fcbf4974"/><path d="M100-162.5l176.2 136.7" stroke="#f77f0074"/><path d="M100-162.5l-84.1 206.2" stroke="#00304974"/><path d="M100-162.5l205.8-82.9" stroke="#00304975"/><path d="M100-162.5l84.6 202.4" stroke="#d6282876"/><path d="M100-162.5l-214.1 42.5" stroke="#d6282877"/><path d="M100-162.5l-127.1-177.1" stroke="#fcbf4977"/><path d="M100-162.5l5.4 216.9" stroke="#fcbf4977"/><path d="M100-162.5l60.8 207.3" stroke="#00304978"/><path d="M100-162.5l-194.2-90.8" stroke="#fcbf4979"/><path d="M100-162.5l-158 144.8" stroke="#f77f0079"/><path d="M100-162.5l199.3-78" stroke="#d6282879"/><path d="M100-162.5l-180.8-103.5" stroke="#f77f007B"/><path d="M100-162.5l-200.4-33.3" stroke="#eae2b77D"/><path d="M100-162.5l-51.3-195.5" stroke="#0030497D"/><path d="M100-162.5l-163.2-117.3" stroke="#0030497E"/><path d="M100-162.5l-86 180.9" stroke="#fcbf497E"/><path d="M100-162.5l-198.5 22.8" stroke="#f77f007E"/><path d="M100-162.5l195.5 39.3" stroke="#f77f007E"/><path d="M100-162.5l172.7-97.6" stroke="#eae2b77F"/><path d="M100-162.5l-185-44.2" stroke="#f77f0081"/><path d="M100-162.5l-189.2-18.1" stroke="#f77f0081"/><path d="M100-162.5l164.4-95" stroke="#d6282881"/><path d="M100-162.5l187.9 15.4" stroke="#eae2b782"/><path d="M100-162.5l-188 4.8" stroke="#eae2b782"/><path d="M100-162.5l-88.4-165" stroke="#fcbf4982"/><path d="M100-162.5l-185.5 18.4" stroke="#d6282882"/><path d="M100-162.5l-166.4 77.3" stroke="#fcbf4983"/><path d="M100-162.5l-183-12.1" stroke="#fcbf4983"/><path d="M100-162.5l113.6 135.9" stroke="#00304985"/><path d="M100-162.5l139.8 106.2" stroke="#f77f0085"/><path d="M100-162.5l164.8-10.3" stroke="#fcbf4987"/><path d="M100-162.5l71.8 144.8" stroke="#f77f0088"/><path d="M100-162.5l156 41.6" stroke="#d6282888"/><path d="M100-162.5l150.9 55.1" stroke="#fcbf4988"/><path d="M100-162.5l-121.4-100.1" stroke="#fcbf4989"/><path d="M100-162.5l-101.9 114.8" stroke="#f77f008A"/><path d="M100-162.5l-120.2-95.4" stroke="#0030498A"/><path d="M100-162.5l141.7-51.1" stroke="#f77f008A"/><path d="M100-162.5l141.6-50.7" stroke="#fcbf498A"/><path d="M100-162.5l0.6-148.1" stroke="#0030498A"/><path d="M100-162.5l117.5 42" stroke="#0030498E"/><path d="M100-162.5l-115.1 10" stroke="#0030498F"/><path d="M100-162.5l-99.6-56.1" stroke="#eae2b78F"/><path d="M100-162.5l-111.9 17.2" stroke="#f77f008F"/><path d="M100-162.5l100.7-30.1" stroke="#d6282890"/><path d="M100-162.5l-33.8 97.5" stroke="#00304990"/><path d="M100-162.5l-25.7-93" stroke="#d6282891"/><path d="M100-162.5l-36.7-66.5" stroke="#eae2b793"/><path d="M100-162.5l-55.7 46" stroke="#d6282893"/><path d="M100-162.5l40-5.2" stroke="#eae2b795"/><path d="M100-162.5l29.7 10.7" stroke="#f77f0095"/><path d="M100-162.5l14.3-13.7" stroke="#eae2b795"/></g><g class="sparcs"><path d="M84.8-158.7a5.9 5.9 0 1 1 0-11.8 5.9 5.9 0 0 1 0 11.8" fill="#f77f007D"/><path d="M119.1-133.6a5.9 5.9 0 1 1 0-11.9 5.9 5.9 0 0 1 0 11.9" fill="#eae2b77D"/><path d="M146.5-124.6a6 6 0 1 1 0-12 6 6 0 0 1 0 12" fill="#eae2b77E"/><path d="M147.6-197.3a6 6 0 1 1 0-12 6 6 0 0 1 0 12" fill="#d628287F"/><path d="M163.4-179a6 6 0 1 1 0-12.1 6 6 0 0 1 0 12.1" fill="#fcbf497F"/><path d="M167.6-148.2a6 6 0 1 1 0-12.1 6 6 0 0 1 0 12.1" fill="#eae2b77F"/><path d="M69.7-226.5a6.1 6.1 0 1 1 0-12.1 6.1 6.1 0 0 1 0 12.1" fill="#fcbf4980"/><path d="M137-239.5a6.1 6.1 0 1 1 0-12.3 6.1 6.1 0 0 1 0 12.3" fill="#00304982"/><path d="M38.9-224.3a6.1 6.1 0 1 1 0-12.3 6.1 6.1 0 0 1 0 12.3" fill="#00304982"/><path d="M68.5-253.7a6.2 6.2 0 1 1 0-12.4 6.2 6.2 0 0 1 0 12.4" fill="#fcbf4983"/><path d="M188.4-208.4a6.2 6.2 0 1 1 0-12.4 6.2 6.2 0 0 1 0 12.4" fill="#eae2b783"/><path d="M112.1-52a6.2 6.2 0 1 1 0-12.4 6.2 6.2 0 0 1 0 12.4" fill="#f77f0083"/><path d="M28.7-235.1a6.2 6.2 0 1 1 0-12.5 6.2 6.2 0 0 1 0 12.5" fill="#d6282883"/><path d="M58.2-259.1a6.3 6.3 0 1 1 0-12.6 6.3 6.3 0 0 1 0 12.6" fill="#00304984"/><path d="M173.6-240.4a6.3 6.3 0 1 1 0-12.5 6.3 6.3 0 0 1 0 12.5" fill="#eae2b784"/><path d="M87.3-43.1a6.3 6.3 0 1 1 0-12.5 6.3 6.3 0 0 1 0 12.5" fill="#eae2b785"/><path d="M212.1-126.1a6.3 6.3 0 1 1 0-12.6 6.3 6.3 0 0 1 0 12.6" fill="#00304985"/><path d="M193-85.3a6.3 6.3 0 1 1 0-12.6 6.3 6.3 0 0 1 0 12.6" fill="#d6282885"/><path d="M52.7-35.7a6.4 6.4 0 1 1 0-12.8 6.4 6.4 0 0 1 0 12.8" fill="#fcbf4987"/><path d="M227.7-177.4a6.4 6.4 0 1 1 0-12.8 6.4 6.4 0 0 1 0 12.8" fill="#d6282887"/><path d="M160.4-32.2a6.5 6.5 0 1 1 0-12.9 6.5 6.5 0 0 1 0 12.9" fill="#fcbf4989"/><path d="M-41.2-165.7a6.5 6.5 0 1 1 0-13 6.5 6.5 0 0 1 0 13" fill="#eae2b789"/><path d="M12.3-278.1a6.6 6.6 0 1 1 0-13.2 6.6 6.6 0 0 1 0 13.2" fill="#f77f008B"/><path d="M188.5-280.4a6.6 6.6 0 1 1 0-13.3 6.6 6.6 0 0 1 0 13.3" fill="#eae2b78C"/><path d="M-39.7-89.4a6.6 6.6 0 1 1 0-13.3 6.6 6.6 0 0 1 0 13.3" fill="#f77f008C"/><path d="M-35.5-232.8a6.6 6.6 0 1 1 0-13.2 6.6 6.6 0 0 1 0 13.2" fill="#0030498D"/><path d="M126.1-309.8a6.6 6.6 0 1 1 0-13.3 6.6 6.6 0 0 1 0 13.3" fill="#eae2b78D"/><path d="M166.5-299.5a6.7 6.7 0 1 1 0-13.3 6.7 6.7 0 0 1 0 13.3" fill="#eae2b78D"/><path d="M-57.4-115.6a6.7 6.7 0 1 1 0-13.5 6.7 6.7 0 0 1 0 13.5" fill="#f77f008E"/><path d="M-47.8-79.3a6.8 6.8 0 1 1 0-13.5 6.8 6.8 0 0 1 0 13.5" fill="#fcbf498F"/><path d="M-65.7-186.9a6.8 6.8 0 1 1 0-13.5 6.8 6.8 0 0 1 0 13.5" fill="#f77f0090"/><path d="M-68.7-171.3a6.8 6.8 0 1 1 0-13.6 6.8 6.8 0 0 1 0 13.6" fill="#f77f0090"/><path d="M120.9-329.1a6.9 6.9 0 1 1 0-13.7 6.9 6.9 0 0 1 0 13.7" fill="#d6282892"/><path d="M156.7-321a6.9 6.9 0 1 1 0-13.7 6.9 6.9 0 0 1 0 13.7" fill="#d6282892"/><path d="M260.8-86.3a6.9 6.9 0 1 1 0-13.8 6.9 6.9 0 0 1 0 13.8" fill="#f77f0092"/><path d="M-10.6-18a6.9 6.9 0 1 1 0-13.8 6.9 6.9 0 0 1 0 13.8" fill="#d6282892"/><path d="M268.7-102.2a6.9 6.9 0 1 1 0-13.8 6.9 6.9 0 0 1 0 13.8" fill="#d6282892"/><path d="M179.9-316.9a6.9 6.9 0 1 1 0-13.9 6.9 6.9 0 0 1 0 13.9" fill="#f77f0093"/><path d="M127.5 24.7a7 7 0 1 1 0-14 7 7 0 0 1 0 14" fill="#00304994"/><path d="M91 28.2a7 7 0 1 1 0-14 7 7 0 0 1 0 14" fill="#eae2b795"/><path d="M276.6-99.4a7 7 0 1 1 0-14 7 7 0 0 1 0 14" fill="#00304995"/><path d="M-50-37a7.1 7.1 0 1 1 0-14.3 7.1 7.1 0 0 1 0 14.3" fill="#d6282897"/><path d="M68.9-346.4a7.2 7.2 0 1 1 0-14.3 7.2 7.2 0 0 1 0 14.3" fill="#f77f0098"/><path d="M-45.4-283.7a7.2 7.2 0 1 1 0-14.4 7.2 7.2 0 0 1 0 14.4" fill="#f77f0098"/><path d="M18.9-331.7a7.2 7.2 0 1 1 0-14.4 7.2 7.2 0 0 1 0 14.4" fill="#00304998"/><path d="M295.2-136.3a7.2 7.2 0 1 1 0-14.5 7.2 7.2 0 0 1 0 14.5" fill="#d6282899"/><path d="M177.7-336.3a7.2 7.2 0 1 1 0-14.4 7.2 7.2 0 0 1 0 14.4" fill="#fcbf499A"/><path d="M164.5-342a7.2 7.2 0 1 1 0-14.5 7.2 7.2 0 0 1 0 14.5" fill="#fcbf499A"/><path d="M292.9-107.5a7.3 7.3 0 1 1 0-14.5 7.3 7.3 0 0 1 0 14.5" fill="#fcbf499A"/><path d="M-73.2-55.1a7.3 7.3 0 1 1 0-14.6 7.3 7.3 0 0 1 0 14.6" fill="#eae2b79B"/><path d="M301.7-153.7a7.3 7.3 0 1 1 0-14.6 7.3 7.3 0 0 1 0 14.6" fill="#f77f009C"/><path d="M5.1 23.2a7.3 7.3 0 1 1 0-14.7 7.3 7.3 0 0 1 0 14.7" fill="#f77f009C"/><path d="M276.3-53.3a7.4 7.4 0 1 1 0-14.8 7.4 7.4 0 0 1 0 14.8" fill="#eae2b79D"/><path d="M228.4 4a7.4 7.4 0 1 1 0-14.7 7.4 7.4 0 0 1 0 14.7" fill="#f77f009D"/><path d="M-18.4-322.4a7.4 7.4 0 1 1 0-14.8 7.4 7.4 0 0 1 0 14.8" fill="#0030499D"/><path d="M307.1-155.1a7.4 7.4 0 1 1 0-14.8 7.4 7.4 0 0 1 0 14.8" fill="#eae2b79E"/><path d="M305-114.1a7.5 7.5 0 1 1 0-15 7.5 7.5 0 0 1 0 15" fill="#eae2b79F"/><path d="M-74.1-271.1a7.5 7.5 0 1 1 0-15 7.5 7.5 0 0 1 0 15" fill="#f77f009F"/><path d="M205-336.8a7.5 7.5 0 1 1 0-15 7.5 7.5 0 0 1 0 15" fill="#d62828A0"/><path d="M269.1-24.8a7.6 7.6 0 1 1 0-15.2 7.6 7.6 0 0 1 0 15.2" fill="#003049A2"/><path d="M-8.8-338.4a7.6 7.6 0 1 1 0-15.2 7.6 7.6 0 0 1 0 15.2" fill="#d62828A2"/><path d="M32.4-357.6a7.6 7.6 0 1 1 0-15.2 7.6 7.6 0 0 1 0 15.2" fill="#f77f00A2"/><path d="M299.4-242.9a7.7 7.7 0 1 1 0-15.4 7.7 7.7 0 0 1 0 15.4" fill="#f77f00A4"/><path d="M160 57.1a7.8 7.8 0 1 1 0-15.6 7.8 7.8 0 0 1 0 15.6" fill="#eae2b7A6"/><path d="M-10.2-347.4a7.8 7.8 0 1 1 0-15.7 7.8 7.8 0 0 1 0 15.7" fill="#003049A7"/><path d="M304.6-241.4a7.9 7.9 0 1 1 0-15.7 7.9 7.9 0 0 1 0 15.7" fill="#fcbf49A7"/><path d="M-123-148.4a7.9 7.9 0 1 1 0-15.8 7.9 7.9 0 0 1 0 15.8" fill="#d62828A8"/><path d="M-106-67.8a7.9 7.9 0 1 1 0-15.8 7.9 7.9 0 0 1 0 15.8" fill="#eae2b7A8"/><path d="M-120.8-197a8 8 0 1 1 0-15.9 8 8 0 0 1 0 15.9" fill="#fcbf49AA"/><path d="M207.1-352.9a8 8 0 1 1 0-15.9 8 8 0 0 1 0 15.9" fill="#fcbf49AA"/><path d="M-30.1-340a8 8 0 1 1 0-16 8 8 0 0 1 0 16" fill="#003049AB"/><path d="M237.5 26.5a8.1 8.1 0 1 1 0-16.1 8.1 8.1 0 0 1 0 16.1" fill="#eae2b7AC"/><path d="M233.1-339.3a8.1 8.1 0 1 1 0-16.1 8.1 8.1 0 0 1 0 16.1" fill="#f77f00AC"/><path d="M134.3-379.8a8.1 8.1 0 1 1 0-16.2 8.1 8.1 0 0 1 0 16.2" fill="#d62828AC"/><path d="M220.7 39.5a8.1 8.1 0 1 1 0-16.2 8.1 8.1 0 0 1 0 16.2" fill="#eae2b7AD"/><path d="M223.2-347.5a8.1 8.1 0 1 1 0-16.3 8.1 8.1 0 0 1 0 16.3" fill="#f77f00AE"/><path d="M132.7-381.6a8.2 8.2 0 1 1 0-16.4 8.2 8.2 0 0 1 0 16.4" fill="#d62828AE"/><path d="M9.3-366a8.2 8.2 0 1 1 0-16.4 8.2 8.2 0 0 1 0 16.4" fill="#003049AF"/><path d="M301.4-41.6a8.2 8.2 0 1 1 0-16.5 8.2 8.2 0 0 1 0 16.5" fill="#eae2b7B0"/><path d="M-124.3-99.3a8.2 8.2 0 1 1 0-16.5 8.2 8.2 0 0 1 0 16.5" fill="#f77f00B0"/><path d="M-10.4-357.2a8.2 8.2 0 1 1 0-16.5 8.2 8.2 0 0 1 0 16.5" fill="#d62828B0"/><path d="M75 75.5a8.2 8.2 0 1 1 0-16.5 8.2 8.2 0 0 1 0 16.5" fill="#f77f00B0"/><path d="M195.1-365.2a8.3 8.3 0 1 1 0-16.6 8.3 8.3 0 0 1 0 16.6" fill="#fcbf49B0"/><path d="M272.9-308.6a8.3 8.3 0 1 1 0-16.6 8.3 8.3 0 0 1 0 16.6" fill="#d62828B1"/><path d="M232.2-345a8.3 8.3 0 1 1 0-16.6 8.3 8.3 0 0 1 0 16.6" fill="#f77f00B1"/><path d="M-49-333.1a8.4 8.4 0 1 1 0-16.7 8.4 8.4 0 0 1 0 16.7" fill="#d62828B3"/><path d="M62.7-384.4a8.4 8.4 0 1 1 0-16.8 8.4 8.4 0 0 1 0 16.8" fill="#f77f00B3"/><path d="M-79.5-303.6a8.4 8.4 0 1 1 0-16.9 8.4 8.4 0 0 1 0 16.9" fill="#eae2b7B4"/><path d="M227.4-350.3a8.4 8.4 0 1 1 0-16.9 8.4 8.4 0 0 1 0 16.9" fill="#fcbf49B4"/><path d="M-11.2 51.8a8.5 8.5 0 1 1 0-16.9 8.5 8.5 0 0 1 0 16.9" fill="#d62828B5"/><path d="M-5.6-363.1a8.5 8.5 0 1 1 0-16.9 8.5 8.5 0 0 1 0 16.9" fill="#003049B5"/><path d="M-73.4-311.6a8.5 8.5 0 1 1 0-16.9 8.5 8.5 0 0 1 0 16.9" fill="#003049B5"/><path d="M2.6-367.2a8.5 8.5 0 1 1 0-17 8.5 8.5 0 0 1 0 17" fill="#fcbf49B5"/><path d="M214 52a8.6 8.6 0 1 1 0-17.2 8.6 8.6 0 0 1 0 17.2" fill="#f77f00B8"/><path d="M41.6 74.6a8.7 8.7 0 1 1 0-17.4 8.7 8.7 0 0 1 0 17.4" fill="#fcbf49B9"/><path d="M335.7-159.8a8.7 8.7 0 1 1 0-17.3 8.7 8.7 0 0 1 0 17.3" fill="#d62828B9"/><path d="M243.5-341.1a8.7 8.7 0 1 1 0-17.5 8.7 8.7 0 0 1 0 17.5" fill="#fcbf49BA"/><path d="M91.5-389.7a8.7 8.7 0 1 1 0-17.4 8.7 8.7 0 0 1 0 17.4" fill="#003049BB"/><path d="M264.3-323.3a8.8 8.8 0 1 1 0-17.6 8.8 8.8 0 0 1 0 17.6" fill="#eae2b7BB"/><path d="M233.1 41.6a8.9 8.9 0 1 1 0-17.8 8.9 8.9 0 0 1 0 17.8" fill="#d62828BF"/><path d="M80.4-389a8.9 8.9 0 1 1 0-17.8 8.9 8.9 0 0 1 0 17.8" fill="#f77f00BF"/><path d="M312.9-51.9a9 9 0 1 1 0-18 9 9 0 0 1 0 18" fill="#f77f00C1"/><path d="M-60-326.8a9 9 0 1 1 0-18 9 9 0 0 1 0 18" fill="#d62828C1"/><path d="M-89.5-13.4a9.1 9.1 0 1 1 0-18.1 9.1 9.1 0 0 1 0 18.1" fill="#fcbf49C2"/><path d="M188.5 64.9a9.1 9.1 0 1 1 0-18.1 9.1 9.1 0 0 1 0 18.1" fill="#eae2b7C2"/><path d="M330.6-200.9a9.1 9.1 0 1 1 0-18.2 9.1 9.1 0 0 1 0 18.2" fill="#f77f00C3"/><path d="M-91.6-16.8a9.1 9.1 0 1 1 0-18.3 9.1 9.1 0 0 1 0 18.3" fill="#003049C3"/><path d="M-105.4-267.9a9.1 9.1 0 1 1 0-18.2 9.1 9.1 0 0 1 0 18.2" fill="#003049C4"/><path d="M-98.8-28.5a9.2 9.2 0 1 1 0-18.4 9.2 9.2 0 0 1 0 18.4" fill="#003049C5"/><path d="M-98-27.6a9.2 9.2 0 1 1 0-18.4 9.2 9.2 0 0 1 0 18.4" fill="#eae2b7C5"/><path d="M332.9-179.9a9.2 9.2 0 1 1 0-18.5 9.2 9.2 0 0 1 0 18.5" fill="#d62828C6"/><path d="M252.8 23.4a9.3 9.3 0 1 1 0-18.6 9.3 9.3 0 0 1 0 18.6" fill="#f77f00C7"/><path d="M255.2-327.6a9.3 9.3 0 1 1 0-18.7 9.3 9.3 0 0 1 0 18.7" fill="#d62828C7"/><path d="M323.8-87.6a9.3 9.3 0 1 1 0-18.7 9.3 9.3 0 0 1 0 18.7" fill="#eae2b7C8"/><path d="M33.5-376.4a9.3 9.3 0 1 1 0-18.7 9.3 9.3 0 0 1 0 18.7" fill="#f77f00C8"/><path d="M-88.1-16.8a9.4 9.4 0 1 1 0-18.8 9.4 9.4 0 0 1 0 18.8" fill="#d62828C9"/><path d="M-109.2-52.5a9.4 9.4 0 1 1 0-18.8 9.4 9.4 0 0 1 0 18.8" fill="#f77f00CA"/><path d="M-106.1-259.7a9.4 9.4 0 1 1 0-18.9 9.4 9.4 0 0 1 0 18.9" fill="#d62828CA"/><path d="M326.2-106.2a9.5 9.5 0 1 1 0-18.9 9.5 9.5 0 0 1 0 18.9" fill="#003049CB"/><path d="M-126.1-109.7a9.5 9.5 0 1 1 0-19 9.5 9.5 0 0 1 0 19" fill="#fcbf49CC"/><path d="M-127-119.8a9.6 9.6 0 1 1 0-19.1 9.6 9.6 0 0 1 0 19.1" fill="#fcbf49CD"/><path d="M-124.8-107.6a9.6 9.6 0 1 1 0-19.2 9.6 9.6 0 0 1 0 19.2" fill="#eae2b7CD"/><path d="M-21.8 40.7a9.6 9.6 0 1 1 0-19.2 9.6 9.6 0 0 1 0 19.2" fill="#f77f00CE"/><path d="M327.2-134.7a9.6 9.6 0 1 1 0-19.3 9.6 9.6 0 0 1 0 19.3" fill="#f77f00CF"/><path d="M-58.5 6.5a9.8 9.8 0 1 1 0-19.6 9.8 9.8 0 0 1 0 19.6" fill="#f77f00D2"/><path d="M243.6 19.9a9.8 9.8 0 1 1 0-19.5 9.8 9.8 0 0 1 0 19.5" fill="#f77f00D2"/><path d="M-94.2-264.9a9.8 9.8 0 1 1 0-19.6 9.8 9.8 0 0 1 0 19.6" fill="#f77f00D2"/><path d="M197.3-354.7a9.8 9.8 0 1 1 0-19.6 9.8 9.8 0 0 1 0 19.6" fill="#eae2b7D2"/><path d="M281.6-283.5a9.8 9.8 0 1 1 0-19.6 9.8 9.8 0 0 1 0 19.6" fill="#003049D2"/><path d="M276.2-15.9a9.8 9.8 0 1 1 0-19.7 9.8 9.8 0 0 1 0 19.7" fill="#fcbf49D3"/><path d="M15.9 53.5a9.8 9.8 0 1 1 0-19.7 9.8 9.8 0 0 1 0 19.7" fill="#fcbf49D3"/><path d="M305.8-235.6a9.9 9.9 0 1 1 0-19.7 9.9 9.9 0 0 1 0 19.7" fill="#d62828D4"/><path d="M184.6 49.8a10 10 0 1 1 0-19.9 10 10 0 0 1 0 19.9" fill="#fcbf49D6"/><path d="M-114.1-110a10 10 0 1 1 0-20 10 10 0 0 1 0 20" fill="#fcbf49D6"/><path d="M-27.1-329.6a10 10 0 1 1 0-20 10 10 0 0 1 0 20" fill="#fcbf49D7"/><path d="M105.4 64.4a10 10 0 1 1 0-20.1 10 10 0 0 1 0 20.1" fill="#eae2b7D7"/><path d="M160.8 54.9a10.1 10.1 0 1 1 0-20.1 10.1 10.1 0 0 1 0 20.1" fill="#fcbf49D8"/><path d="M-94.2-243.2a10.1 10.1 0 1 1 0-20.2 10.1 10.1 0 0 1 0 20.2" fill="#f77f00D9"/><path d="M-58-7.6a10.1 10.1 0 1 1 0-20.2 10.1 10.1 0 0 1 0 20.2" fill="#fcbf49D9"/><path d="M299.3-230.4a10.1 10.1 0 1 1 0-20.2 10.1 10.1 0 0 1 0 20.2" fill="#fcbf49D9"/><path d="M-80.8-255.8a10.3 10.3 0 1 1 0-20.5 10.3 10.3 0 0 1 0 20.5" fill="#f77f00DC"/><path d="M-100.4-185.4a10.4 10.4 0 1 1 0-20.7 10.4 10.4 0 0 1 0 20.7" fill="#003049DF"/><path d="M48.7-347.7a10.4 10.4 0 1 1 0-20.7 10.4 10.4 0 0 1 0 20.7" fill="#fcbf49DF"/><path d="M-63.2-269.4a10.4 10.4 0 1 1 0-20.8 10.4 10.4 0 0 1 0 20.8" fill="#eae2b7E0"/><path d="M14 28.8a10.4 10.4 0 1 1 0-20.8 10.4 10.4 0 0 1 0 20.8" fill="#fcbf49E0"/><path d="M-98.5-129.2a10.4 10.4 0 1 1 0-20.9 10.4 10.4 0 0 1 0 20.9" fill="#eae2b7E0"/><path d="M295.5-112.7a10.4 10.4 0 1 1 0-20.9 10.4 10.4 0 0 1 0 20.9" fill="#fcbf49E0"/><path d="M272.7-249.7a10.5 10.5 0 1 1 0-20.9 10.5 10.5 0 0 1 0 20.9" fill="#fcbf49E1"/><path d="M-85-196.1a10.6 10.6 0 1 1 0-21.2 10.6 10.6 0 0 1 0 21.2" fill="#f77f00E4"/><path d="M-89.2-170a10.6 10.6 0 1 1 0-21.2 10.6 10.6 0 0 1 0 21.2" fill="#f77f00E4"/><path d="M264.4-246.9a10.6 10.6 0 1 1 0-21.2 10.6 10.6 0 0 1 0 21.2" fill="#eae2b7E4"/><path d="M287.9-136.4a10.6 10.6 0 1 1 0-21.3 10.6 10.6 0 0 1 0 21.3" fill="#f77f00E5"/><path d="M-88-147a10.6 10.6 0 1 1 0-21.3 10.6 10.6 0 0 1 0 21.3" fill="#d62828E5"/><path d="M11.6-316.8a10.7 10.7 0 1 1 0-21.3 10.7 10.7 0 0 1 0 21.3" fill="#003049E5"/><path d="M-85.5-133.5a10.7 10.7 0 1 1 0-21.3 10.7 10.7 0 0 1 0 21.3" fill="#fcbf49E5"/><path d="M-66.4-74.5a10.7 10.7 0 1 1 0-21.4 10.7 10.7 0 0 1 0 21.4" fill="#003049E6"/><path d="M-83-163.8a10.7 10.7 0 1 1 0-21.5 10.7 10.7 0 0 1 0 21.5" fill="#d62828E6"/><path d="M213.6-15.8a10.8 10.8 0 1 1 0-21.6 10.8 10.8 0 0 1 0 21.6" fill="#003049E9"/><path d="M239.8-45.4a10.8 10.8 0 1 1 0-21.7 10.8 10.8 0 0 1 0 21.7" fill="#003049E9"/><path d="M264.8-161.8a11 11 0 1 1 0-22 11 11 0 0 1 0 22" fill="#fcbf49EC"/><path d="M171.8-6.7a11 11 0 1 1 0-22 11 11 0 0 1 0 22" fill="#003049ED"/><path d="M256-109.9a11 11 0 1 1 0-22.1 11 11 0 0 1 0 22.1" fill="#eae2b7ED"/><path d="M250.9-96.3a11 11 0 1 1 0-22.1 11 11 0 0 1 0 22.1" fill="#003049ED"/><path d="M-21.4-251.5a11.1 11.1 0 1 1 0-22.1 11.1 11.1 0 0 1 0 22.1" fill="#fcbf49EE"/><path d="M-1.9-36.6a11.1 11.1 0 1 1 0-22.2 11.1 11.1 0 0 1 0 22.2" fill="#003049EF"/><path d="M-20.2-246.8a11.1 11.1 0 1 1 0-22.2 11.1 11.1 0 0 1 0 22.2" fill="#fcbf49EF"/><path d="M241.7-202.5a11.1 11.1 0 1 1 0-22.3 11.1 11.1 0 0 1 0 22.3" fill="#fcbf49F0"/><path d="M241.6-202a11.1 11.1 0 1 1 0-22.3 11.1 11.1 0 0 1 0 22.3" fill="#f77f00F0"/><path d="M100.6-299.5a11.2 11.2 0 1 1 0-22.3 11.2 11.2 0 0 1 0 22.3" fill="#d62828F0"/><path d="M217.5-109.2a11.4 11.4 0 1 1 0-22.7 11.4 11.4 0 0 1 0 22.7" fill="#eae2b7F5"/><path d="M-15.1-141.1a11.4 11.4 0 1 1 0-22.9 11.4 11.4 0 0 1 0 22.9" fill="#eae2b7F6"/><path d="M0.4-207.2a11.4 11.4 0 1 1 0-22.9 11.4 11.4 0 0 1 0 22.9" fill="#eae2b7F6"/><path d="M-11.9-133.8a11.5 11.5 0 1 1 0-22.9 11.5 11.5 0 0 1 0 22.9" fill="#fcbf49F7"/><path d="M200.7-181.1a11.5 11.5 0 1 1 0-23 11.5 11.5 0 0 1 0 23" fill="#fcbf49F8"/><path d="M66.2-53.5a11.5 11.5 0 1 1 0-23 11.5 11.5 0 0 1 0 23" fill="#d62828F8"/><path d="M74.3-243.9a11.6 11.6 0 1 1 0-23.1 11.6 11.6 0 0 1 0 23.1" fill="#f77f00F9"/><path d="M63.3-217.3a11.7 11.7 0 1 1 0-23.3 11.7 11.7 0 0 1 0 23.3" fill="#f77f00FB"/><path d="M44.3-104.8a11.7 11.7 0 1 1 0-23.4 11.7 11.7 0 0 1 0 23.4" fill="#d62828FB"/><path d="M140-155.9a11.8 11.8 0 1 1 0-23.6 11.8 11.8 0 0 1 0 23.6" fill="#f77f00FE"/><path d="M129.7-140a11.8 11.8 0 1 1 0-23.6 11.8 11.8 0 0 1 0 23.6" fill="#003049FE"/><path d="M114.3-164.4a11.8 11.8 0 1 1 0-23.6 11.8 11.8 0 0 1 0 23.6" fill="#eae2b7FE"/></g></svg>