<svg width="1200" height="675" viewBox="-500 -500 1200 675" xmlns="http://www.w3.org/2000/svg"><path d="M-500-500h1200v675h-1200z" fill="#000"/><style>.sparkles path{stroke-linecap:round; stroke-width:1}</style><g class="sparkles"><path d="M100-162.5l6.3-22.1" stroke="#c2e1ff32"/><path d="M100-162.5l51.5-34.3" stroke="#c2e1ff33"/><path d="M100-162.5l48.1 50.2" stroke="#fff34"/><path d="M100-162.5l-44.1 73.9" stroke="#fff35"/><path d="M100-162.5l-16.6 94.1" stroke="#005bbb36"/><path d="M100-162.5l-43.6 91.4" stroke="#c2e1ff36"/><path d="M100-162.5l-103.7 7" stroke="#c2e1ff37"/><path d="M100-162.5l30.7 102.7" stroke="#c2e1ff37"/><path d="M100-162.5l-108.3-30.1" stroke="#c2e1ff38"/><path d="M100-162.5l112.4-8.3" stroke="#005bbb38"/><path d="M100-162.5l102.2-66.5" stroke="#fff39"/><path d="M100-162.5l61-114.4" stroke="#c2e1ff3A"/><path d="M100-162.5l4.2 131.6" stroke="#c2e1ff3A"/><path d="M100-162.5l-54.4 128.8" stroke="#fff3B"/><path d="M100-162.5l138.8-23" stroke="#fff5003B"/><path d="M100-162.5l125-70.7" stroke="#005bbb3C"/><path d="M100-162.5l-97.7-113.5" stroke="#c2e1ff3D"/><path d="M100-162.5l-132 73.2" stroke="#c2e1ff3D"/><path d="M100-162.5l-110 105.1" stroke="#fff3D"/><path d="M100-162.5l151.8-26.9" stroke="#fff5003E"/><path d="M100-162.5l-91.6-124.8" stroke="#005bbb3E"/><path d="M100-162.5l-124.4 92.8" stroke="#c2e1ff3E"/><path d="M100-162.5l139.8 69.2" stroke="#c2e1ff3E"/><path d="M100-162.5l-156.3 2.1" stroke="#c2e1ff3E"/><path d="M100-162.5l86.4-132.7" stroke="#005bbb3E"/><path d="M100-162.5l-3.6-159.9" stroke="#c2e1ff3F"/><path d="M100-162.5l-64.7-156.1" stroke="#fff50041"/><path d="M100-162.5l23.2-171" stroke="#fff50041"/><path d="M100-162.5l173.8-6.9" stroke="#c2e1ff42"/><path d="M100-162.5l79.1 158.2" stroke="#005bbb42"/><path d="M100-162.5l-55.8-168" stroke="#005bbb42"/><path d="M100-162.5l35.3-173.5" stroke="#c2e1ff42"/><path d="M100-162.5l-175.8 38.3" stroke="#c2e1ff43"/><path d="M100-162.5l181.5 16.9" stroke="#005bbb44"/><path d="M100-162.5l-173.8 64.2" stroke="#c2e1ff44"/><path d="M100-162.5l-181.7 37.6" stroke="#fff50045"/><path d="M100-162.5l77.1-171.2" stroke="#fff45"/><path d="M100-162.5l174.4 72.7" stroke="#c2e1ff45"/><path d="M100-162.5l73.4-180.1" stroke="#005bbb47"/><path d="M100-162.5l-182.7-96.1" stroke="#c2e1ff4B"/><path d="M100-162.5l-134.3-157.1" stroke="#fff5004B"/><path d="M100-162.5l207.5 0" stroke="#fff4C"/><path d="M100-162.5l104.7-180.6" stroke="#fff5004C"/><path d="M100-162.5l79 194.2" stroke="#fff5004C"/><path d="M100-162.5l-199.1 74.6" stroke="#fff5004E"/><path d="M100-162.5l-203.8 64.9" stroke="#fff5004E"/><path d="M100-162.5l208.9 49.3" stroke="#c2e1ff4F"/><path d="M100-162.5l-87.4 197.3" stroke="#005bbb4F"/><path d="M100-162.5l70.7-205.4" stroke="#fff50050"/><path d="M100-162.5l-198.5 89.5" stroke="#c2e1ff50"/><path d="M100-162.5l-180.3-123.1" stroke="#fff50"/><path d="M100-162.5l-219.7 22.8" stroke="#c2e1ff52"/><path d="M100-162.5l61.8-212.3" stroke="#005bbb52"/><path d="M100-162.5l-152.4 160.7" stroke="#fff50052"/><path d="M100-162.5l23.5 222.6" stroke="#005bbb54"/><path d="M100-162.5l-151.6 165.4" stroke="#005bbb54"/><path d="M100-162.5l196.7 112.1" stroke="#fff55"/><path d="M100-162.5l-227 6.9" stroke="#fff50056"/><path d="M100-162.5l214.6 80.6" stroke="#fff50057"/><path d="M100-162.5l88.2-211.7" stroke="#fff50057"/><path d="M100-162.5l224.5 47.6" stroke="#fff50058"/><path d="M100-162.5l-126.8-191.9" stroke="#005bbb58"/><path d="M100-162.5l-230.2-11.2" stroke="#005bbb58"/><path d="M100-162.5l-177.3 147.2" stroke="#fff50059"/><path d="M100-162.5l-55.8 224" stroke="#fff50059"/><path d="M100-162.5l133.1-189.5" stroke="#005bbb5A"/><path d="M100-162.5l-231.6 9.6" stroke="#fff5005A"/><path d="M100-162.5l169.1 158.5" stroke="#c2e1ff5A"/><path d="M100-162.5l-6.9 232" stroke="#fff5A"/><path d="M100-162.5l-180.1-146.6" stroke="#c2e1ff5A"/><path d="M100-162.5l98.3 210.5" stroke="#fff5005A"/><path d="M100-162.5l-132.7 191" stroke="#005bbb5B"/><path d="M100-162.5l-88.1 215.4" stroke="#fff5005B"/><path d="M100-162.5l-92.3 214" stroke="#005bbb5B"/><path d="M100-162.5l-67.5 223.7" stroke="#005bbb5C"/><path d="M100-162.5l-202.8 118.2" stroke="#005bbb5E"/><path d="M100-162.5l31.5 232.6" stroke="#fff5005E"/><path d="M100-162.5l50.2-229.7" stroke="#005bbb5F"/><path d="M100-162.5l-88.1-218.4" stroke="#005bbb60"/><path d="M100-162.5l-156.5 176" stroke="#fff50060"/><path d="M100-162.5l-202.2 121.7" stroke="#fff61"/><path d="M100-162.5l181.6 151" stroke="#005bbb62"/><path d="M100-162.5l230-53.8" stroke="#fff50062"/><path d="M100-162.5l-235.3 20.5" stroke="#005bbb63"/><path d="M100-162.5l129.8-197.4" stroke="#fff63"/><path d="M100-162.5l159.9-173.9" stroke="#005bbb64"/><path d="M100-162.5l100.7 213.7" stroke="#fff64"/><path d="M100-162.5l217.1 92.7" stroke="#fff50066"/><path d="M100-162.5l5.3 235.8" stroke="#fff50066"/><path d="M100-162.5l234.7-22.9" stroke="#fff50066"/><path d="M100-162.5l80.1-221.8" stroke="#c2e1ff66"/><path d="M100-162.5l-113.3-206.8" stroke="#fff67"/><path d="M100-162.5l122.6 201" stroke="#005bbb68"/><path d="M100-162.5l117.6 203.8" stroke="#c2e1ff68"/><path d="M100-162.5l197.7-127.3" stroke="#c2e1ff68"/><path d="M100-162.5l64.1-225.8" stroke="#fff69"/><path d="M100-162.5l70.8 223.1" stroke="#005bbb6A"/><path d="M100-162.5l-90.9-215.1" stroke="#fff5006B"/><path d="M100-162.5l-145.5-182.2" stroke="#005bbb6C"/><path d="M100-162.5l-85.5 216.9" stroke="#005bbb6C"/><path d="M100-162.5l114 203.2" stroke="#fff6C"/><path d="M100-162.5l102.5 209" stroke="#fff5006C"/><path d="M100-162.5l-197.7-122" stroke="#005bbb6D"/><path d="M100-162.5l-124-196.1" stroke="#005bbb6D"/><path d="M100-162.5l216.6 83.1" stroke="#fff6D"/><path d="M100-162.5l-78.3-217.3" stroke="#fff6E"/><path d="M100-162.5l9.8 230.5" stroke="#fff5006E"/><path d="M100-162.5l91.9-211.5" stroke="#005bbb6E"/><path d="M100-162.5l-203.7-105.6" stroke="#c2e1ff6F"/><path d="M100-162.5l2.2-229.3" stroke="#fff70"/><path d="M100-162.5l228.9-11.6" stroke="#c2e1ff70"/><path d="M100-162.5l228.5 15.4" stroke="#fff70"/><path d="M100-162.5l-120.6-194" stroke="#fff70"/><path d="M100-162.5l144.1-177" stroke="#005bbb70"/><path d="M100-162.5l-227 20.1" stroke="#fff50071"/><path d="M100-162.5l-175.4 145.2" stroke="#fff50071"/><path d="M100-162.5l226.6-17.6" stroke="#005bbb71"/><path d="M100-162.5l-132.3 180" stroke="#c2e1ff74"/><path d="M100-162.5l-109 194.6" stroke="#fff74"/><path d="M100-162.5l-1.5 222.9" stroke="#fff74"/><path d="M100-162.5l-216.5-51" stroke="#fff50074"/><path d="M100-162.5l-212.9 63.2" stroke="#fff75"/><path d="M100-162.5l-211.4 67.9" stroke="#fff50075"/><path d="M100-162.5l157.3 156.6" stroke="#c2e1ff75"/><path d="M100-162.5l166.6 146.1" stroke="#c2e1ff75"/><path d="M100-162.5l-216.3 38" stroke="#c2e1ff76"/><path d="M100-162.5l-142.8-164.4" stroke="#c2e1ff77"/><path d="M100-162.5l207.5 64.6" stroke="#c2e1ff77"/><path d="M100-162.5l-195.2 92.9" stroke="#fff50078"/><path d="M100-162.5l127.7-169.7" stroke="#fff79"/><path d="M100-162.5l-212 6.8" stroke="#fff5007A"/><path d="M100-162.5l-199.3 70.9" stroke="#fff7A"/><path d="M100-162.5l-123.3-168.6" stroke="#005bbb7B"/><path d="M100-162.5l-93.3-183.5" stroke="#c2e1ff7C"/><path d="M100-162.5l170.2-114.9" stroke="#fff7C"/><path d="M100-162.5l-189.8 78.2" stroke="#fff7C"/><path d="M100-162.5l-106 174" stroke="#fff7D"/><path d="M100-162.5l190.8 64.1" stroke="#fff7E"/><path d="M100-162.5l171.8-90.2" stroke="#fff50080"/><path d="M100-162.5l34.3-189.4" stroke="#fff50080"/><path d="M100-162.5l173.9 79.1" stroke="#c2e1ff81"/><path d="M100-162.5l-163.8 92.4" stroke="#fff50082"/><path d="M100-162.5l186.4-16.2" stroke="#005bbb82"/><path d="M100-162.5l181.6 42" stroke="#fff82"/><path d="M100-162.5l-162.8 85.3" stroke="#c2e1ff83"/><path d="M100-162.5l74.7 165.8" stroke="#fff83"/><path d="M100-162.5l3.9-180.1" stroke="#005bbb84"/><path d="M100-162.5l-169.5-49.8" stroke="#005bbb85"/><path d="M100-162.5l43.6-169.9" stroke="#fff85"/><path d="M100-162.5l-85.2 153.3" stroke="#fff50085"/><path d="M100-162.5l-149.7-89.9" stroke="#c2e1ff85"/><path d="M100-162.5l142.7-84.1" stroke="#005bbb87"/><path d="M100-162.5l-24.6 160.1" stroke="#fff88"/><path d="M100-162.5l-128.6 97.4" stroke="#c2e1ff88"/><path d="M100-162.5l-15.7-157.5" stroke="#fff50089"/><path d="M100-162.5l122.5-99.7" stroke="#fff89"/><path d="M100-162.5l114.7-108.2" stroke="#c2e1ff89"/><path d="M100-162.5l133 83.8" stroke="#c2e1ff89"/><path d="M100-162.5l-149.5 43.6" stroke="#c2e1ff89"/><path d="M100-162.5l-52.7 146.6" stroke="#fff89"/><path d="M100-162.5l-138.9 66.8" stroke="#fff50089"/><path d="M100-162.5l55.4-128.8" stroke="#fff5008C"/><path d="M100-162.5l31.6-133.7" stroke="#fff5008C"/><path d="M100-162.5l54.5-120.3" stroke="#c2e1ff8D"/><path d="M100-162.5l43.6 120.4" stroke="#005bbb8E"/><path d="M100-162.5l-80-93.5" stroke="#fff5008E"/><path d="M100-162.5l121.2-11.5" stroke="#005bbb8E"/><path d="M100-162.5l53.9-107.5" stroke="#fff5008F"/><path d="M100-162.5l65.4 97.8" stroke="#c2e1ff8F"/><path d="M100-162.5l-92.6-71.6" stroke="#fff5008F"/><path d="M100-162.5l106.1-26.6" stroke="#fff50090"/><path d="M100-162.5l-64.1-84.3" stroke="#fff50090"/><path d="M100-162.5l20.4 98.7" stroke="#fff91"/><path d="M100-162.5l24.5 83.3" stroke="#c2e1ff92"/><path d="M100-162.5l-19.9-71.6" stroke="#fff93"/><path d="M100-162.5l-18 66.1" stroke="#c2e1ff93"/><path d="M100-162.5l39.3 49.8" stroke="#c2e1ff94"/><path d="M100-162.5l-41.2-47.7" stroke="#fff50094"/><path d="M100-162.5l42.2-40.7" stroke="#005bbb94"/><path d="M100-162.5l24.5-6" stroke="#c2e1ff95"/><path d="M100-162.5l7.1 3.5" stroke="#005bbb95"/></g><g class="sparcs"><path d="M106.3-178.7a5.9 5.9 0 1 1 0-11.8 5.9 5.9 0 0 1 0 11.8" fill="#fff5007D"/><path d="M151.5-190.8a6 6 0 1 1 0-12 6 6 0 0 1 0 12" fill="#fff7F"/><path d="M148.1-106.3a6 6 0 1 1 0-12.1 6 6 0 0 1 0 12.1" fill="#fff5007F"/><path d="M55.9-82.5a6.1 6.1 0 1 1 0-12.2 6.1 6.1 0 0 1 0 12.2" fill="#fff50081"/><path d="M83.4-62.2a6.2 6.2 0 1 1 0-12.4 6.2 6.2 0 0 1 0 12.4" fill="#c2e1ff82"/><path d="M56.4-64.9a6.2 6.2 0 1 1 0-12.4 6.2 6.2 0 0 1 0 12.4" fill="#c2e1ff83"/><path d="M-3.7-149.3a6.2 6.2 0 1 1 0-12.4 6.2 6.2 0 0 1 0 12.4" fill="#fff50083"/><path d="M130.7-53.6a6.2 6.2 0 1 1 0-12.4 6.2 6.2 0 0 1 0 12.4" fill="#fff84"/><path d="M-8.3-186.4a6.3 6.3 0 1 1 0-12.5 6.3 6.3 0 0 1 0 12.5" fill="#005bbb84"/><path d="M212.4-164.5a6.3 6.3 0 1 1 0-12.6 6.3 6.3 0 0 1 0 12.6" fill="#fff50084"/><path d="M202.2-222.7a6.3 6.3 0 1 1 0-12.6 6.3 6.3 0 0 1 0 12.6" fill="#005bbb86"/><path d="M161-270.5a6.4 6.4 0 1 1 0-12.8 6.4 6.4 0 0 1 0 12.8" fill="#fff87"/><path d="M104.2-24.5a6.4 6.4 0 1 1 0-12.8 6.4 6.4 0 0 1 0 12.8" fill="#c2e1ff88"/><path d="M45.6-27.2a6.5 6.5 0 1 1 0-13 6.5 6.5 0 0 1 0 13" fill="#fff50089"/><path d="M238.8-179a6.5 6.5 0 1 1 0-13 6.5 6.5 0 0 1 0 13" fill="#c2e1ff89"/><path d="M225-226.7a6.5 6.5 0 1 1 0-13 6.5 6.5 0 0 1 0 13" fill="#fff5008A"/><path d="M2.3-269.4a6.6 6.6 0 1 1 0-13.1 6.6 6.6 0 0 1 0 13.1" fill="#fff8B"/><path d="M-32-82.7a6.6 6.6 0 1 1 0-13.2 6.6 6.6 0 0 1 0 13.2" fill="#005bbb8B"/><path d="M-10-50.8a6.6 6.6 0 1 1 0-13.2 6.6 6.6 0 0 1 0 13.2" fill="#005bbb8C"/><path d="M251.8-182.7a6.6 6.6 0 1 1 0-13.3 6.6 6.6 0 0 1 0 13.3" fill="#c2e1ff8C"/><path d="M8.4-280.7a6.6 6.6 0 1 1 0-13.3 6.6 6.6 0 0 1 0 13.3" fill="#005bbb8C"/><path d="M-24.4-63a6.6 6.6 0 1 1 0-13.3 6.6 6.6 0 0 1 0 13.3" fill="#fff8D"/><path d="M239.8-86.7a6.6 6.6 0 1 1 0-13.3 6.6 6.6 0 0 1 0 13.3" fill="#fff8D"/><path d="M-56.3-153.7a6.6 6.6 0 1 1 0-13.3 6.6 6.6 0 0 1 0 13.3" fill="#fff8D"/><path d="M186.4-288.5a6.7 6.7 0 1 1 0-13.4 6.7 6.7 0 0 1 0 13.4" fill="#fff8D"/><path d="M96.4-315.7a6.7 6.7 0 1 1 0-13.4 6.7 6.7 0 0 1 0 13.4" fill="#fff8E"/><path d="M35.3-311.8a6.8 6.8 0 1 1 0-13.6 6.8 6.8 0 0 1 0 13.6" fill="#005bbb90"/><path d="M123.2-326.7a6.8 6.8 0 1 1 0-13.7 6.8 6.8 0 0 1 0 13.7" fill="#fff91"/><path d="M273.8-162.6a6.9 6.9 0 1 1 0-13.7 6.9 6.9 0 0 1 0 13.7" fill="#fff92"/><path d="M179.1 2.6a6.9 6.9 0 1 1 0-13.8 6.9 6.9 0 0 1 0 13.8" fill="#005bbb92"/><path d="M44.2-323.6a6.9 6.9 0 1 1 0-13.8 6.9 6.9 0 0 1 0 13.8" fill="#fff92"/><path d="M135.3-329.1a6.9 6.9 0 1 1 0-13.8 6.9 6.9 0 0 1 0 13.8" fill="#fff92"/><path d="M-75.8-117.3a6.9 6.9 0 1 1 0-13.9 6.9 6.9 0 0 1 0 13.9" fill="#fff50093"/><path d="M281.5-138.6a7 7 0 1 1 0-13.9 7 7 0 0 1 0 13.9" fill="#c2e1ff94"/><path d="M-73.8-91.3a7 7 0 1 1 0-14 7 7 0 0 1 0 14" fill="#fff95"/><path d="M-81.7-117.8a7 7 0 1 1 0-14.1 7 7 0 0 1 0 14.1" fill="#fff50095"/><path d="M177.1-326.6a7.1 7.1 0 1 1 0-14.1 7.1 7.1 0 0 1 0 14.1" fill="#c2e1ff96"/><path d="M274.4-82.7a7.1 7.1 0 1 1 0-14.2 7.1 7.1 0 0 1 0 14.2" fill="#005bbb96"/><path d="M173.4-335.4a7.2 7.2 0 1 1 0-14.4 7.2 7.2 0 0 1 0 14.4" fill="#005bbb99"/><path d="M-82.7-251.2a7.4 7.4 0 1 1 0-14.8 7.4 7.4 0 0 1 0 14.8" fill="#fff9E"/><path d="M-34.3-312.1a7.4 7.4 0 1 1 0-14.9 7.4 7.4 0 0 1 0 14.9" fill="#005bbb9E"/><path d="M307.5-155.1a7.4 7.4 0 1 1 0-14.8 7.4 7.4 0 0 1 0 14.8" fill="#c2e1ff9E"/><path d="M204.7-335.6a7.5 7.5 0 1 1 0-15 7.5 7.5 0 0 1 0 15" fill="#fff5009F"/><path d="M179 39.2a7.5 7.5 0 1 1 0-15 7.5 7.5 0 0 1 0 15" fill="#fffA0"/><path d="M-99.1-80.3a7.6 7.6 0 1 1 0-15.2 7.6 7.6 0 0 1 0 15.2" fill="#005bbbA1"/><path d="M-103.8-90a7.6 7.6 0 1 1 0-15.2 7.6 7.6 0 0 1 0 15.2" fill="#fff500A2"/><path d="M308.9-105.6a7.6 7.6 0 1 1 0-15.2 7.6 7.6 0 0 1 0 15.2" fill="#fffA2"/><path d="M12.6 42.4a7.7 7.7 0 1 1 0-15.3 7.7 7.7 0 0 1 0 15.3" fill="#fff500A3"/><path d="M170.7-360.2a7.7 7.7 0 1 1 0-15.4 7.7 7.7 0 0 1 0 15.4" fill="#c2e1ffA4"/><path d="M-98.5-65.2a7.7 7.7 0 1 1 0-15.5 7.7 7.7 0 0 1 0 15.5" fill="#005bbbA4"/><path d="M-80.3-277.9a7.7 7.7 0 1 1 0-15.4 7.7 7.7 0 0 1 0 15.4" fill="#005bbbA5"/><path d="M-119.7-131.8a7.8 7.8 0 1 1 0-15.7 7.8 7.8 0 0 1 0 15.7" fill="#c2e1ffA6"/><path d="M161.8-367a7.8 7.8 0 1 1 0-15.6 7.8 7.8 0 0 1 0 15.6" fill="#c2e1ffA7"/><path d="M-52.4 6.1a7.8 7.8 0 1 1 0-15.7 7.8 7.8 0 0 1 0 15.7" fill="#fff500A7"/><path d="M123.5 68a7.9 7.9 0 1 1 0-15.8 7.9 7.9 0 0 1 0 15.8" fill="#c2e1ffA9"/><path d="M-51.6 10.9a7.9 7.9 0 1 1 0-15.9 7.9 7.9 0 0 1 0 15.9" fill="#005bbbA9"/><path d="M296.7-42.4a8 8 0 1 1 0-16 8 8 0 0 1 0 16" fill="#fff500AB"/><path d="M-127-147.6a8 8 0 1 1 0-16.1 8 8 0 0 1 0 16.1" fill="#fff500AC"/><path d="M314.6-73.8a8.1 8.1 0 1 1 0-16.3 8.1 8.1 0 0 1 0 16.3" fill="#c2e1ffAE"/><path d="M188.2-366a8.1 8.1 0 1 1 0-16.3 8.1 8.1 0 0 1 0 16.3" fill="#fffAE"/><path d="M324.5-106.7a8.2 8.2 0 1 1 0-16.3 8.2 8.2 0 0 1 0 16.3" fill="#005bbbAE"/><path d="M-26.8-346.2a8.2 8.2 0 1 1 0-16.3 8.2 8.2 0 0 1 0 16.3" fill="#fffAF"/><path d="M-130.2-165.5a8.2 8.2 0 1 1 0-16.4 8.2 8.2 0 0 1 0 16.4" fill="#fff500AF"/><path d="M-77.3-7.1a8.2 8.2 0 1 1 0-16.4 8.2 8.2 0 0 1 0 16.4" fill="#fffAF"/><path d="M44.2 69.7a8.2 8.2 0 1 1 0-16.5 8.2 8.2 0 0 1 0 16.5" fill="#fffB0"/><path d="M233.1-343.7a8.3 8.3 0 1 1 0-16.6 8.3 8.3 0 0 1 0 16.6" fill="#c2e1ffB1"/><path d="M-131.6-144.6a8.3 8.3 0 1 1 0-16.6 8.3 8.3 0 0 1 0 16.6" fill="#005bbbB1"/><path d="M269.1 4.3a8.3 8.3 0 1 1 0-16.6 8.3 8.3 0 0 1 0 16.6" fill="#fffB1"/><path d="M93.1 77.8a8.3 8.3 0 1 1 0-16.6 8.3 8.3 0 0 1 0 16.6" fill="#c2e1ffB1"/><path d="M-80.1-300.8a8.3 8.3 0 1 1 0-16.6 8.3 8.3 0 0 1 0 16.6" fill="#c2e1ffB2"/><path d="M198.3 56.3a8.3 8.3 0 1 1 0-16.6 8.3 8.3 0 0 1 0 16.6" fill="#c2e1ffB2"/><path d="M-32.7 36.9a8.3 8.3 0 1 1 0-16.7 8.3 8.3 0 0 1 0 16.7" fill="#005bbbB2"/><path d="M11.9 61.2a8.3 8.3 0 1 1 0-16.7 8.3 8.3 0 0 1 0 16.7" fill="#fff500B2"/><path d="M7.7 59.9a8.4 8.4 0 1 1 0-16.8 8.4 8.4 0 0 1 0 16.8" fill="#fffB3"/><path d="M32.5 69.7a8.4 8.4 0 1 1 0-16.9 8.4 8.4 0 0 1 0 16.9" fill="#c2e1ffB4"/><path d="M-102.8-35.8a8.5 8.5 0 1 1 0-17.1 8.5 8.5 0 0 1 0 17.1" fill="#fffB6"/><path d="M131.5 78.6a8.5 8.5 0 1 1 0-17 8.5 8.5 0 0 1 0 17" fill="#fffB6"/><path d="M150.2-383.6a8.6 8.6 0 1 1 0-17.2 8.6 8.6 0 0 1 0 17.2" fill="#fffB7"/><path d="M11.9-372.3a8.6 8.6 0 1 1 0-17.2 8.6 8.6 0 0 1 0 17.2" fill="#fffB8"/><path d="M-56.5 22.2a8.6 8.6 0 1 1 0-17.3 8.6 8.6 0 0 1 0 17.3" fill="#005bbbB8"/><path d="M-102.2-32a8.7 8.7 0 1 1 0-17.5 8.7 8.7 0 0 1 0 17.5" fill="#005bbbBB"/><path d="M281.6-2.8a8.8 8.8 0 1 1 0-17.5 8.8 8.8 0 0 1 0 17.5" fill="#005bbbBB"/><path d="M330-207.5a8.8 8.8 0 1 1 0-17.5 8.8 8.8 0 0 1 0 17.5" fill="#c2e1ffBC"/><path d="M-135.3-133.2a8.8 8.8 0 1 1 0-17.6 8.8 8.8 0 0 1 0 17.6" fill="#fffBC"/><path d="M229.8-351a8.8 8.8 0 1 1 0-17.7 8.8 8.8 0 0 1 0 17.7" fill="#005bbbBD"/><path d="M259.9-327.5a8.9 8.9 0 1 1 0-17.7 8.9 8.9 0 0 1 0 17.7" fill="#fffBE"/><path d="M200.7 60.1a8.9 8.9 0 1 1 0-17.8 8.9 8.9 0 0 1 0 17.8" fill="#fff500BF"/><path d="M317.1-60.8a9 9 0 1 1 0-18 9 9 0 0 1 0 18" fill="#005bbbC0"/><path d="M105.3 82.3a9 9 0 1 1 0-18 9 9 0 0 1 0 18" fill="#c2e1ffC1"/><path d="M334.7-176.4a9 9 0 1 1 0-18.1 9 9 0 0 1 0 18.1" fill="#fff500C1"/><path d="M180.1-375.3a9 9 0 1 1 0-18 9 9 0 0 1 0 18" fill="#c2e1ffC1"/><path d="M-13.3-360.2a9 9 0 1 1 0-18.1 9 9 0 0 1 0 18.1" fill="#005bbbC2"/><path d="M222.6 47.6a9.1 9.1 0 1 1 0-18.2 9.1 9.1 0 0 1 0 18.2" fill="#c2e1ffC3"/><path d="M217.6 50.4a9.1 9.1 0 1 1 0-18.3 9.1 9.1 0 0 1 0 18.3" fill="#c2e1ffC3"/><path d="M297.7-280.6a9.1 9.1 0 1 1 0-18.3 9.1 9.1 0 0 1 0 18.3" fill="#fffC4"/><path d="M164.1-379.1a9.2 9.2 0 1 1 0-18.4 9.2 9.2 0 0 1 0 18.4" fill="#c2e1ffC5"/><path d="M170.8 69.8a9.3 9.3 0 1 1 0-18.5 9.3 9.3 0 0 1 0 18.5" fill="#fff500C6"/><path d="M9.1-368.3a9.3 9.3 0 1 1 0-18.7 9.3 9.3 0 0 1 0 18.7" fill="#c2e1ffC7"/><path d="M-45.5-335.3a9.3 9.3 0 1 1 0-18.7 9.3 9.3 0 0 1 0 18.7" fill="#fffC8"/><path d="M14.5 63.7a9.3 9.3 0 1 1 0-18.7 9.3 9.3 0 0 1 0 18.7" fill="#fff500C8"/><path d="M214 50a9.3 9.3 0 1 1 0-18.7 9.3 9.3 0 0 1 0 18.7" fill="#005bbbC8"/><path d="M202.5 55.9a9.4 9.4 0 1 1 0-18.7 9.4 9.4 0 0 1 0 18.7" fill="#fff500C9"/><path d="M-97.7-275.1a9.4 9.4 0 1 1 0-18.8 9.4 9.4 0 0 1 0 18.8" fill="#fff500C9"/><path d="M-24-349.2a9.4 9.4 0 1 1 0-18.8 9.4 9.4 0 0 1 0 18.8" fill="#fffCA"/><path d="M316.6-70a9.4 9.4 0 1 1 0-18.9 9.4 9.4 0 0 1 0 18.9" fill="#c2e1ffCA"/><path d="M21.7-370.3a9.5 9.5 0 1 1 0-19 9.5 9.5 0 0 1 0 19" fill="#fffCB"/><path d="M109.8 77.5a9.5 9.5 0 1 1 0-19 9.5 9.5 0 0 1 0 19" fill="#005bbbCC"/><path d="M191.9-364.6a9.5 9.5 0 1 1 0-18.9 9.5 9.5 0 0 1 0 18.9" fill="#c2e1ffCC"/><path d="M-103.7-258.5a9.6 9.6 0 1 1 0-19.2 9.6 9.6 0 0 1 0 19.2" fill="#005bbbCD"/><path d="M102.2-382.2a9.6 9.6 0 1 1 0-19.2 9.6 9.6 0 0 1 0 19.2" fill="#fffCD"/><path d="M328.9-164.6a9.6 9.6 0 1 1 0-19.1 9.6 9.6 0 0 1 0 19.1" fill="#c2e1ffCD"/><path d="M328.5-137.5a9.6 9.6 0 1 1 0-19.2 9.6 9.6 0 0 1 0 19.2" fill="#005bbbCD"/><path d="M-20.6-346.9a9.6 9.6 0 1 1 0-19.3 9.6 9.6 0 0 1 0 19.3" fill="#fffCE"/><path d="M244.1-329.9a9.6 9.6 0 1 1 0-19.2 9.6 9.6 0 0 1 0 19.2" fill="#005bbbCE"/><path d="M-127-132.8a9.6 9.6 0 1 1 0-19.2 9.6 9.6 0 0 1 0 19.2" fill="#005bbbCF"/><path d="M-75.4-7.7a9.6 9.6 0 1 1 0-19.3 9.6 9.6 0 0 1 0 19.3" fill="#fff500CF"/><path d="M326.6-170.4a9.7 9.7 0 1 1 0-19.4 9.7 9.7 0 0 1 0 19.4" fill="#c2e1ffCF"/><path d="M-32.3 27.3a9.8 9.8 0 1 1 0-19.6 9.8 9.8 0 0 1 0 19.6" fill="#005bbbD3"/><path d="M-9 41.9a9.8 9.8 0 1 1 0-19.7 9.8 9.8 0 0 1 0 19.7" fill="#fff500D3"/><path d="M98.5 70.3a9.8 9.8 0 1 1 0-19.7 9.8 9.8 0 0 1 0 19.7" fill="#fffD3"/><path d="M-116.5-203.7a9.9 9.9 0 1 1 0-19.7 9.9 9.9 0 0 1 0 19.7" fill="#005bbbD3"/><path d="M-112.9-89.4a9.9 9.9 0 1 1 0-19.7 9.9 9.9 0 0 1 0 19.7" fill="#fff500D4"/><path d="M-111.4-84.7a9.9 9.9 0 1 1 0-19.7 9.9 9.9 0 0 1 0 19.7" fill="#fffD4"/><path d="M257.3 4a9.9 9.9 0 1 1 0-19.8 9.9 9.9 0 0 1 0 19.8" fill="#fffD4"/><path d="M266.6-6.5a9.9 9.9 0 1 1 0-19.8 9.9 9.9 0 0 1 0 19.8" fill="#c2e1ffD4"/><path d="M-116.3-114.6a9.9 9.9 0 1 1 0-19.9 9.9 9.9 0 0 1 0 19.9" fill="#fff500D5"/><path d="M-42.8-316.9a10 10 0 1 1 0-20 10 10 0 0 1 0 20" fill="#005bbbD7"/><path d="M307.5-87.9a10 10 0 1 1 0-20 10 10 0 0 1 0 20" fill="#fff500D7"/><path d="M-95.2-59.6a10 10 0 1 1 0-20.1 10 10 0 0 1 0 20.1" fill="#fff500D8"/><path d="M227.7-322a10.2 10.2 0 1 1 0-20.3 10.2 10.2 0 0 1 0 20.3" fill="#005bbbDA"/><path d="M-112-145.5a10.2 10.2 0 1 1 0-20.4 10.2 10.2 0 0 1 0 20.4" fill="#fffDA"/><path d="M-99.3-81.4a10.2 10.2 0 1 1 0-20.3 10.2 10.2 0 0 1 0 20.3" fill="#fff500DA"/><path d="M-23.3-320.8a10.2 10.2 0 1 1 0-20.5 10.2 10.2 0 0 1 0 20.5" fill="#c2e1ffDC"/><path d="M6.7-335.7a10.3 10.3 0 1 1 0-20.6 10.3 10.3 0 0 1 0 20.6" fill="#fffDD"/><path d="M270.2-267.1a10.3 10.3 0 1 1 0-20.6 10.3 10.3 0 0 1 0 20.6" fill="#fffDE"/><path d="M-89.8-74a10.3 10.3 0 1 1 0-20.7 10.3 10.3 0 0 1 0 20.7" fill="#c2e1ffDE"/><path d="M-6 21.9a10.4 10.4 0 1 1 0-20.7 10.4 10.4 0 0 1 0 20.7" fill="#fff500DE"/><path d="M290.8-88a10.4 10.4 0 1 1 0-20.8 10.4 10.4 0 0 1 0 20.8" fill="#005bbbE0"/><path d="M271.8-242.2a10.5 10.5 0 1 1 0-21 10.5 10.5 0 0 1 0 21" fill="#fffE3"/><path d="M134.3-341.4a10.6 10.6 0 1 1 0-21.1 10.6 10.6 0 0 1 0 21.1" fill="#fffE3"/><path d="M273.9-72.8a10.6 10.6 0 1 1 0-21.2 10.6 10.6 0 0 1 0 21.2" fill="#005bbbE4"/><path d="M-63.8-59.4a10.6 10.6 0 1 1 0-21.3 10.6 10.6 0 0 1 0 21.3" fill="#c2e1ffE5"/><path d="M286.4-168a10.7 10.7 0 1 1 0-21.4 10.7 10.7 0 0 1 0 21.4" fill="#fff500E5"/><path d="M281.6-109.8a10.7 10.7 0 1 1 0-21.3 10.7 10.7 0 0 1 0 21.3" fill="#fffE5"/><path d="M-62.8-66.5a10.7 10.7 0 1 1 0-21.4 10.7 10.7 0 0 1 0 21.4" fill="#fff500E6"/><path d="M174.7 14a10.7 10.7 0 1 1 0-21.4 10.7 10.7 0 0 1 0 21.4" fill="#c2e1ffE7"/><path d="M103.9-331.8a10.8 10.8 0 1 1 0-21.5 10.8 10.8 0 0 1 0 21.5" fill="#c2e1ffE8"/><path d="M-69.5-201.5a10.8 10.8 0 1 1 0-21.6 10.8 10.8 0 0 1 0 21.6" fill="#fffE9"/><path d="M143.6-321.6a10.8 10.8 0 1 1 0-21.6 10.8 10.8 0 0 1 0 21.6" fill="#c2e1ffE9"/><path d="M14.8 1.6a10.8 10.8 0 1 1 0-21.7 10.8 10.8 0 0 1 0 21.7" fill="#c2e1ffE9"/><path d="M-49.7-241.6a10.8 10.8 0 1 1 0-21.7 10.8 10.8 0 0 1 0 21.7" fill="#005bbbE9"/><path d="M242.7-235.6a11 11 0 1 1 0-22 11 11 0 0 1 0 22" fill="#005bbbEC"/><path d="M75.4 8.6a11 11 0 1 1 0-22 11 11 0 0 1 0 22" fill="#fffED"/><path d="M-28.6-54.1a11 11 0 1 1 0-22 11 11 0 0 1 0 22" fill="#fffED"/><path d="M84.3-308.9a11.1 11.1 0 1 1 0-22.1 11.1 11.1 0 0 1 0 22.1" fill="#c2e1ffEE"/><path d="M222.5-251.1a11.1 11.1 0 1 1 0-22.1 11.1 11.1 0 0 1 0 22.1" fill="#fffEE"/><path d="M214.7-259.7a11.1 11.1 0 1 1 0-22.1 11.1 11.1 0 0 1 0 22.1" fill="#fff500EE"/><path d="M233-67.6a11.1 11.1 0 1 1 0-22.1 11.1 11.1 0 0 1 0 22.1" fill="#fffEE"/><path d="M-49.5-107.8a11.1 11.1 0 1 1 0-22.2 11.1 11.1 0 0 1 0 22.2" fill="#c2e1ffEE"/><path d="M47.3-4.9a11.1 11.1 0 1 1 0-22.1 11.1 11.1 0 0 1 0 22.1" fill="#c2e1ffEE"/><path d="M-38.9-84.6a11.1 11.1 0 1 1 0-22.1 11.1 11.1 0 0 1 0 22.1" fill="#fffEF"/><path d="M155.4-280.1a11.2 11.2 0 1 1 0-22.5 11.2 11.2 0 0 1 0 22.5" fill="#fff500F2"/><path d="M131.6-284.9a11.3 11.3 0 1 1 0-22.5 11.3 11.3 0 0 1 0 22.5" fill="#005bbbF2"/><path d="M154.5-271.5a11.3 11.3 0 1 1 0-22.6 11.3 11.3 0 0 1 0 22.6" fill="#c2e1ffF3"/><path d="M143.6-30.7a11.3 11.3 0 1 1 0-22.7 11.3 11.3 0 0 1 0 22.7" fill="#c2e1ffF4"/><path d="M20-244.6a11.4 11.4 0 1 1 0-22.8 11.4 11.4 0 0 1 0 22.8" fill="#c2e1ffF5"/><path d="M221.2-162.6a11.4 11.4 0 1 1 0-22.8 11.4 11.4 0 0 1 0 22.8" fill="#c2e1ffF5"/><path d="M153.9-258.6a11.4 11.4 0 1 1 0-22.8 11.4 11.4 0 0 1 0 22.8" fill="#fff500F5"/><path d="M165.4-53.3a11.4 11.4 0 1 1 0-22.8 11.4 11.4 0 0 1 0 22.8" fill="#005bbbF6"/><path d="M7.4-222.6a11.4 11.4 0 1 1 0-22.9 11.4 11.4 0 0 1 0 22.9" fill="#fff500F6"/><path d="M206.1-177.6a11.5 11.5 0 1 1 0-22.9 11.5 11.5 0 0 1 0 22.9" fill="#fffF7"/><path d="M35.9-235.3a11.5 11.5 0 1 1 0-23 11.5 11.5 0 0 1 0 23" fill="#fffF8"/><path d="M120.4-52.2a11.5 11.5 0 1 1 0-23.1 11.5 11.5 0 0 1 0 23.1" fill="#fff500F8"/><path d="M124.5-67.6a11.6 11.6 0 1 1 0-23.2 11.6 11.6 0 0 1 0 23.2" fill="#fffFA"/><path d="M80.1-222.5a11.7 11.7 0 1 1 0-23.3 11.7 11.7 0 0 1 0 23.3" fill="#c2e1ffFB"/><path d="M82-84.7a11.7 11.7 0 1 1 0-23.4 11.7 11.7 0 0 1 0 23.4" fill="#c2e1ffFC"/><path d="M139.3-101a11.7 11.7 0 1 1 0-23.5 11.7 11.7 0 0 1 0 23.5" fill="#fffFC"/><path d="M58.8-198.5a11.7 11.7 0 1 1 0-23.4 11.7 11.7 0 0 1 0 23.4" fill="#c2e1ffFC"/><path d="M142.2-191.5a11.7 11.7 0 1 1 0-23.5 11.7 11.7 0 0 1 0 23.5" fill="#fff500FC"/><path d="M124.5-156.8a11.8 11.8 0 1 1 0-23.5 11.8 11.8 0 0 1 0 23.5" fill="#fffFE"/><path d="M107.1-147.2a11.8 11.8 0 1 1 0-23.6 11.8 11.8 0 0 1 0 23.6" fill="#005bbbFE"/></g></svg>