<svg width="1200" height="675" viewBox="-500 -500 1200 675" xmlns="http://www.w3.org/2000/svg"><path d="M-500-500h1200v675h-1200z" fill="#000"/><style>.sparkles path{stroke-linecap:round; stroke-width:1}</style><g class="sparkles"><path d="M100-162.5l-20.1-31.6" stroke="#c2e1ff32"/><path d="M100-162.5l31.6-24.7" stroke="#fff32"/><path d="M100-162.5l37.6 27.4" stroke="#fff32"/><path d="M100-162.5l40.1-44.2" stroke="#c2e1ff33"/><path d="M100-162.5l-67.3-9.6" stroke="#fff34"/><path d="M100-162.5l-67.5-13" stroke="#c2e1ff34"/><path d="M100-162.5l34.2 66.8" stroke="#fff34"/><path d="M100-162.5l78-29.3" stroke="#c2e1ff35"/><path d="M100-162.5l19.3-81.8" stroke="#c2e1ff35"/><path d="M100-162.5l-87.8-8.7" stroke="#c2e1ff35"/><path d="M100-162.5l8.6-91.8" stroke="#fff50035"/><path d="M100-162.5l1.9-95.8" stroke="#fff50036"/><path d="M100-162.5l99.4-19.6" stroke="#fff50036"/><path d="M100-162.5l-59.3 103.2" stroke="#c2e1ff38"/><path d="M100-162.5l122.7 0" stroke="#fff50039"/><path d="M100-162.5l128.9 11.9" stroke="#fff5003A"/><path d="M100-162.5l124.3 49.9" stroke="#fff3A"/><path d="M100-162.5l94 107.8" stroke="#005bbb3C"/><path d="M100-162.5l137.7 58.4" stroke="#005bbb3D"/><path d="M100-162.5l152.4-1.9" stroke="#c2e1ff3D"/><path d="M100-162.5l-77.2-135.4" stroke="#c2e1ff3E"/><path d="M100-162.5l94.9-124.3" stroke="#fff3E"/><path d="M100-162.5l-133.9 94.2" stroke="#c2e1ff3F"/><path d="M100-162.5l79.4-143.1" stroke="#fff3F"/><path d="M100-162.5l-164.3 18.8" stroke="#c2e1ff40"/><path d="M100-162.5l37.2-163.6" stroke="#005bbb40"/><path d="M100-162.5l53.6-162.6" stroke="#fff41"/><path d="M100-162.5l-53.2 164.4" stroke="#fff41"/><path d="M100-162.5l-170-40.7" stroke="#fff50042"/><path d="M100-162.5l173.3 38.2" stroke="#c2e1ff42"/><path d="M100-162.5l-46.5 172" stroke="#c2e1ff43"/><path d="M100-162.5l176.6-26.9" stroke="#fff43"/><path d="M100-162.5l-126 130" stroke="#005bbb43"/><path d="M100-162.5l-177.6 39.6" stroke="#c2e1ff44"/><path d="M100-162.5l79.2-164.2" stroke="#c2e1ff44"/><path d="M100-162.5l-91.4 158.3" stroke="#005bbb44"/><path d="M100-162.5l59-174.3" stroke="#005bbb44"/><path d="M100-162.5l-183.4-23.3" stroke="#fff50044"/><path d="M100-162.5l-188.5 10" stroke="#fff45"/><path d="M100-162.5l-29-186.9" stroke="#fff46"/><path d="M100-162.5l-104.1 158.5" stroke="#005bbb46"/><path d="M100-162.5l-39.7 187.8" stroke="#fff50046"/><path d="M100-162.5l60.9 185.5" stroke="#fff47"/><path d="M100-162.5l191.5 48.7" stroke="#fff48"/><path d="M100-162.5l-18.9-197.5" stroke="#fff50048"/><path d="M100-162.5l199.7-14.2" stroke="#005bbb49"/><path d="M100-162.5l194-59.5" stroke="#fff5004A"/><path d="M100-162.5l36.3-201.7" stroke="#fff4B"/><path d="M100-162.5l-92-183.7" stroke="#c2e1ff4B"/><path d="M100-162.5l-189.1 85.4" stroke="#c2e1ff4C"/><path d="M100-162.5l162.9-128.6" stroke="#fff4C"/><path d="M100-162.5l-193.8-76.8" stroke="#fff5004C"/><path d="M100-162.5l-161.7-132.1" stroke="#005bbb4C"/><path d="M100-162.5l202.8 53" stroke="#005bbb4C"/><path d="M100-162.5l50 204.1" stroke="#005bbb4D"/><path d="M100-162.5l8.5-211.4" stroke="#fff4D"/><path d="M100-162.5l-208.5 36.1" stroke="#c2e1ff4D"/><path d="M100-162.5l72 200.8" stroke="#c2e1ff4E"/><path d="M100-162.5l-76.3-199.8" stroke="#fff5004E"/><path d="M100-162.5l-26.1 213.2" stroke="#fff4F"/><path d="M100-162.5l-207.7 58.8" stroke="#fff5004F"/><path d="M100-162.5l121.4 178.6" stroke="#c2e1ff4F"/><path d="M100-162.5l-215.9-10.7" stroke="#005bbb4F"/><path d="M100-162.5l178.9-123.8" stroke="#005bbb50"/><path d="M100-162.5l182.8-118.9" stroke="#fff50"/><path d="M100-162.5l-204.5 76.1" stroke="#fff50050"/><path d="M100-162.5l-163.4-146.1" stroke="#fff51"/><path d="M100-162.5l-139.1-177" stroke="#fff54"/><path d="M100-162.5l167 151.4" stroke="#005bbb55"/><path d="M100-162.5l148.9 172.2" stroke="#fff56"/><path d="M100-162.5l79.8 213.4" stroke="#005bbb56"/><path d="M100-162.5l-119.8-195.4" stroke="#fff57"/><path d="M100-162.5l-132.7-187" stroke="#c2e1ff57"/><path d="M100-162.5l-33-227.4" stroke="#c2e1ff58"/><path d="M100-162.5l-189 130.8" stroke="#fff50058"/><path d="M100-162.5l-71.7-219.5" stroke="#fff50059"/><path d="M100-162.5l-183.5 141.2" stroke="#fff5A"/><path d="M100-162.5l-226.7 47.9" stroke="#c2e1ff5A"/><path d="M100-162.5l8.1 231.6" stroke="#fff5005A"/><path d="M100-162.5l-231-19" stroke="#c2e1ff5A"/><path d="M100-162.5l197.2-123.8" stroke="#fff5B"/><path d="M100-162.5l-165.7-165" stroke="#c2e1ff5C"/><path d="M100-162.5l25.9-232.4" stroke="#fff5C"/><path d="M100-162.5l-58.1 227.3" stroke="#fff5005E"/><path d="M100-162.5l154.7-176.3" stroke="#c2e1ff5E"/><path d="M100-162.5l-157.8 173.7" stroke="#fff5E"/><path d="M100-162.5l227.5 58.5" stroke="#fff5005E"/><path d="M100-162.5l146.1-184.2" stroke="#005bbb5F"/><path d="M100-162.5l88.1-218.3" stroke="#005bbb5F"/><path d="M100-162.5l198.5-126.8" stroke="#fff60"/><path d="M100-162.5l89.1-218.1" stroke="#c2e1ff60"/><path d="M100-162.5l75.5-223.4" stroke="#fff61"/><path d="M100-162.5l18.6 235.3" stroke="#c2e1ff61"/><path d="M100-162.5l90 218.2" stroke="#c2e1ff61"/><path d="M100-162.5l169 164.9" stroke="#fff62"/><path d="M100-162.5l-222.4-79.5" stroke="#fff50062"/><path d="M100-162.5l-195.5-132.5" stroke="#fff50062"/><path d="M100-162.5l118.3-204.5" stroke="#005bbb63"/><path d="M100-162.5l206.3-114.5" stroke="#c2e1ff66"/><path d="M100-162.5l-148.3-183.5" stroke="#005bbb66"/><path d="M100-162.5l-68 225.7" stroke="#c2e1ff67"/><path d="M100-162.5l20.4-234.6" stroke="#fff68"/><path d="M100-162.5l-149.1 182" stroke="#fff68"/><path d="M100-162.5l61.3 227.1" stroke="#005bbb68"/><path d="M100-162.5l95.3-215" stroke="#fff50068"/><path d="M100-162.5l-210.9-103.9" stroke="#005bbb68"/><path d="M100-162.5l65.2 225.7" stroke="#fff69"/><path d="M100-162.5l179.1 151.7" stroke="#005bbb69"/><path d="M100-162.5l52.4-228.2" stroke="#fff5006A"/><path d="M100-162.5l-206.6 109.3" stroke="#fff6B"/><path d="M100-162.5l-116.3 202.6" stroke="#c2e1ff6B"/><path d="M100-162.5l-210.9 100.3" stroke="#005bbb6B"/><path d="M100-162.5l128.8-194.7" stroke="#c2e1ff6B"/><path d="M100-162.5l-214.4-92.2" stroke="#fff6B"/><path d="M100-162.5l228 49.6" stroke="#fff5006B"/><path d="M100-162.5l-183.9 142" stroke="#005bbb6D"/><path d="M100-162.5l-10 231.9" stroke="#005bbb6D"/><path d="M100-162.5l48.4 227" stroke="#fff6D"/><path d="M100-162.5l-191.8 130.3" stroke="#c2e1ff6D"/><path d="M100-162.5l-111.4-203.3" stroke="#fff6D"/><path d="M100-162.5l-200.2 116.2" stroke="#fff5006D"/><path d="M100-162.5l-167.9-158.5" stroke="#fff5006E"/><path d="M100-162.5l-21.2 229.8" stroke="#005bbb6E"/><path d="M100-162.5l-229.9 11.7" stroke="#005bbb6F"/><path d="M100-162.5l121 195.6" stroke="#005bbb6F"/><path d="M100-162.5l12.2-229" stroke="#c2e1ff6F"/><path d="M100-162.5l172 151.2" stroke="#c2e1ff70"/><path d="M100-162.5l-156.4 165.4" stroke="#c2e1ff71"/><path d="M100-162.5l-29.2-225.1" stroke="#fff50071"/><path d="M100-162.5l205.1 91.2" stroke="#fff73"/><path d="M100-162.5l-209-80.4" stroke="#c2e1ff73"/><path d="M100-162.5l207.7 82.2" stroke="#c2e1ff74"/><path d="M100-162.5l-73.9 207.7" stroke="#c2e1ff75"/><path d="M100-162.5l191.4 105.9" stroke="#c2e1ff76"/><path d="M100-162.5l212.5-46.6" stroke="#005bbb77"/><path d="M100-162.5l64.7-207.6" stroke="#005bbb77"/><path d="M100-162.5l-33.8-214.7" stroke="#fff77"/><path d="M100-162.5l-93.2 195.2" stroke="#fff78"/><path d="M100-162.5l170.1 133.6" stroke="#fff78"/><path d="M100-162.5l-105.8-187.4" stroke="#c2e1ff78"/><path d="M100-162.5l-121 176" stroke="#c2e1ff79"/><path d="M100-162.5l-112.4-181.1" stroke="#fff79"/><path d="M100-162.5l-210.4 12.4" stroke="#c2e1ff7A"/><path d="M100-162.5l166.5 126.5" stroke="#005bbb7B"/><path d="M100-162.5l-194.6-75.1" stroke="#fff5007B"/><path d="M100-162.5l-208.2-9.1" stroke="#c2e1ff7B"/><path d="M100-162.5l-185.8 90.7" stroke="#c2e1ff7C"/><path d="M100-162.5l-26.6-199.3" stroke="#005bbb7E"/><path d="M100-162.5l-125.2-156.6" stroke="#005bbb7E"/><path d="M100-162.5l184.7 70.2" stroke="#fff5007F"/><path d="M100-162.5l-71.5-182.3" stroke="#005bbb7F"/><path d="M100-162.5l-175.9-76.8" stroke="#fff81"/><path d="M100-162.5l113.9-148.5" stroke="#fff50082"/><path d="M100-162.5l12 186.8" stroke="#fff50082"/><path d="M100-162.5l-176.7 6.4" stroke="#fff85"/><path d="M100-162.5l109.8-124.5" stroke="#c2e1ff87"/><path d="M100-162.5l20.1 164.7" stroke="#c2e1ff87"/><path d="M100-162.5l-30.1 162.7" stroke="#fff87"/><path d="M100-162.5l47.5 155.3" stroke="#fff50088"/><path d="M100-162.5l-49.7 151.2" stroke="#c2e1ff88"/><path d="M100-162.5l17.6 156.7" stroke="#fff89"/><path d="M100-162.5l34.5 152.5" stroke="#fff89"/><path d="M100-162.5l136.7-54.8" stroke="#c2e1ff8B"/><path d="M100-162.5l88.9-116.7" stroke="#fff5008B"/><path d="M100-162.5l-19.2-144.3" stroke="#005bbb8B"/><path d="M100-162.5l-135.4 45.3" stroke="#fff8B"/><path d="M100-162.5l-107.2-83" stroke="#fff5008C"/><path d="M100-162.5l-122.5-52.2" stroke="#005bbb8D"/><path d="M100-162.5l115.1 61" stroke="#c2e1ff8D"/><path d="M100-162.5l-89.5-94.4" stroke="#005bbb8D"/><path d="M100-162.5l-102.1-79.8" stroke="#fff8D"/><path d="M100-162.5l103.1-78" stroke="#c2e1ff8D"/><path d="M100-162.5l9.8 124.6" stroke="#c2e1ff8E"/><path d="M100-162.5l107.9-50.2" stroke="#c2e1ff8F"/><path d="M100-162.5l-98.5-44.5" stroke="#fff50090"/><path d="M100-162.5l-86.8-59.4" stroke="#005bbb90"/><path d="M100-162.5l104.1 7.2" stroke="#c2e1ff90"/><path d="M100-162.5l74.8-66.8" stroke="#005bbb91"/><path d="M100-162.5l80.5-54.2" stroke="#fff91"/><path d="M100-162.5l-83.2-43.9" stroke="#c2e1ff91"/><path d="M100-162.5l79.5-37.3" stroke="#fff50092"/></g><g class="sparcs"><path d="M79.9-188.2a5.9 5.9 0 1 1 0-11.9 5.9 5.9 0 0 1 0 11.9" fill="#c2e1ff7D"/><path d="M131.6-181.3a5.9 5.9 0 1 1 0-11.9 5.9 5.9 0 0 1 0 11.9" fill="#c2e1ff7D"/><path d="M137.6-129.1a6 6 0 1 1 0-11.9 6 6 0 0 1 0 11.9" fill="#fff5007E"/><path d="M140.1-200.7a6 6 0 1 1 0-12 6 6 0 0 1 0 12" fill="#c2e1ff7F"/><path d="M32.7-166.1a6 6 0 1 1 0-12.1 6 6 0 0 1 0 12.1" fill="#c2e1ff7F"/><path d="M32.5-169.5a6 6 0 1 1 0-12.1 6 6 0 0 1 0 12.1" fill="#c2e1ff7F"/><path d="M134.2-89.7a6.1 6.1 0 1 1 0-12.1 6.1 6.1 0 0 1 0 12.1" fill="#fff80"/><path d="M178-185.7a6.1 6.1 0 1 1 0-12.2 6.1 6.1 0 0 1 0 12.2" fill="#fff50081"/><path d="M119.3-238.2a6.1 6.1 0 1 1 0-12.2 6.1 6.1 0 0 1 0 12.2" fill="#fff81"/><path d="M12.2-165a6.1 6.1 0 1 1 0-12.3 6.1 6.1 0 0 1 0 12.3" fill="#fff81"/><path d="M108.6-248.1a6.1 6.1 0 1 1 0-12.3 6.1 6.1 0 0 1 0 12.3" fill="#fff50082"/><path d="M101.9-252.1a6.2 6.2 0 1 1 0-12.3 6.2 6.2 0 0 1 0 12.3" fill="#fff82"/><path d="M199.4-175.9a6.2 6.2 0 1 1 0-12.4 6.2 6.2 0 0 1 0 12.4" fill="#c2e1ff83"/><path d="M40.7-53a6.3 6.3 0 1 1 0-12.6 6.3 6.3 0 0 1 0 12.6" fill="#c2e1ff85"/><path d="M222.7-156.2a6.3 6.3 0 1 1 0-12.6 6.3 6.3 0 0 1 0 12.6" fill="#fff50086"/><path d="M228.9-144.2a6.4 6.4 0 1 1 0-12.7 6.4 6.4 0 0 1 0 12.7" fill="#fff50087"/><path d="M224.3-106.2a6.4 6.4 0 1 1 0-12.9 6.4 6.4 0 0 1 0 12.9" fill="#fff50088"/><path d="M194-48.1a6.5 6.5 0 1 1 0-13.1 6.5 6.5 0 0 1 0 13.1" fill="#fff8A"/><path d="M237.7-97.5a6.6 6.6 0 1 1 0-13.2 6.6 6.6 0 0 1 0 13.2" fill="#fff8B"/><path d="M252.4-157.8a6.6 6.6 0 1 1 0-13.2 6.6 6.6 0 0 1 0 13.2" fill="#c2e1ff8C"/><path d="M22.8-291.2a6.6 6.6 0 1 1 0-13.3 6.6 6.6 0 0 1 0 13.3" fill="#fff8D"/><path d="M194.9-280.2a6.6 6.6 0 1 1 0-13.2 6.6 6.6 0 0 1 0 13.2" fill="#c2e1ff8D"/><path d="M-33.9-61.6a6.7 6.7 0 1 1 0-13.5 6.7 6.7 0 0 1 0 13.5" fill="#fff8F"/><path d="M179.4-298.9a6.7 6.7 0 1 1 0-13.5 6.7 6.7 0 0 1 0 13.5" fill="#005bbb8F"/><path d="M-64.3-137a6.8 6.8 0 1 1 0-13.5 6.8 6.8 0 0 1 0 13.5" fill="#fff5008F"/><path d="M137.2-319.3a6.8 6.8 0 1 1 0-13.5 6.8 6.8 0 0 1 0 13.5" fill="#c2e1ff90"/><path d="M153.6-318.3a6.8 6.8 0 1 1 0-13.6 6.8 6.8 0 0 1 0 13.6" fill="#005bbb91"/><path d="M46.8 8.7a6.8 6.8 0 1 1 0-13.7 6.8 6.8 0 0 1 0 13.7" fill="#005bbb91"/><path d="M-70-196.4a6.9 6.9 0 1 1 0-13.7 6.9 6.9 0 0 1 0 13.7" fill="#fff92"/><path d="M273.3-117.4a6.9 6.9 0 1 1 0-13.8 6.9 6.9 0 0 1 0 13.8" fill="#fff93"/><path d="M53.5 16.5a6.9 6.9 0 1 1 0-13.9 6.9 6.9 0 0 1 0 13.9" fill="#005bbb93"/><path d="M276.6-182.5a6.9 6.9 0 1 1 0-13.8 6.9 6.9 0 0 1 0 13.8" fill="#fff93"/><path d="M-26-25.5a7 7 0 1 1 0-13.9 7 7 0 0 1 0 13.9" fill="#c2e1ff94"/><path d="M-77.6-116a7 7 0 1 1 0-13.9 7 7 0 0 1 0 13.9" fill="#005bbb94"/><path d="M179.2-319.7a7 7 0 1 1 0-14 7 7 0 0 1 0 14" fill="#fff50094"/><path d="M8.6 2.8a7 7 0 1 1 0-14 7 7 0 0 1 0 14" fill="#c2e1ff94"/><path d="M159-329.8a7 7 0 1 1 0-14 7 7 0 0 1 0 14" fill="#fff95"/><path d="M-83.4-178.8a7 7 0 1 1 0-14 7 7 0 0 1 0 14" fill="#fff50095"/><path d="M-88.5-145.4a7.1 7.1 0 1 1 0-14.2 7.1 7.1 0 0 1 0 14.2" fill="#fff96"/><path d="M71-342.3a7.1 7.1 0 1 1 0-14.2 7.1 7.1 0 0 1 0 14.2" fill="#c2e1ff97"/><path d="M-4.1 3.1a7.1 7.1 0 1 1 0-14.2 7.1 7.1 0 0 1 0 14.2" fill="#fff50097"/><path d="M60.3 32.5a7.1 7.1 0 1 1 0-14.3 7.1 7.1 0 0 1 0 14.3" fill="#c2e1ff98"/><path d="M160.9 30.2a7.2 7.2 0 1 1 0-14.4 7.2 7.2 0 0 1 0 14.4" fill="#fff99"/><path d="M291.5-106.5a7.2 7.2 0 1 1 0-14.5 7.2 7.2 0 0 1 0 14.5" fill="#005bbb9A"/><path d="M81.1-352.8a7.3 7.3 0 1 1 0-14.5 7.3 7.3 0 0 1 0 14.5" fill="#c2e1ff9A"/><path d="M299.7-169.5a7.3 7.3 0 1 1 0-14.5 7.3 7.3 0 0 1 0 14.5" fill="#c2e1ff9B"/><path d="M294-214.6a7.3 7.3 0 1 1 0-14.7 7.3 7.3 0 0 1 0 14.7" fill="#005bbb9C"/><path d="M136.3-356.8a7.4 7.4 0 1 1 0-14.8 7.4 7.4 0 0 1 0 14.8" fill="#fff5009D"/><path d="M8-338.8a7.4 7.4 0 1 1 0-14.8 7.4 7.4 0 0 1 0 14.8" fill="#005bbb9D"/><path d="M-89.1-69.6a7.4 7.4 0 1 1 0-14.9 7.4 7.4 0 0 1 0 14.9" fill="#c2e1ff9E"/><path d="M262.9-283.6a7.4 7.4 0 1 1 0-14.9 7.4 7.4 0 0 1 0 14.9" fill="#c2e1ff9E"/><path d="M-93.8-231.8a7.5 7.5 0 1 1 0-14.9 7.5 7.5 0 0 1 0 14.9" fill="#fff9F"/><path d="M-61.7-287.1a7.5 7.5 0 1 1 0-14.9 7.5 7.5 0 0 1 0 14.9" fill="#fff5009F"/><path d="M302.8-102a7.5 7.5 0 1 1 0-15 7.5 7.5 0 0 1 0 15" fill="#c2e1ff9F"/><path d="M150 49.1a7.5 7.5 0 1 1 0-15 7.5 7.5 0 0 1 0 15" fill="#005bbbA0"/><path d="M108.5-366.4a7.5 7.5 0 1 1 0-15.1 7.5 7.5 0 0 1 0 15.1" fill="#fff500A1"/><path d="M-108.5-118.9a7.5 7.5 0 1 1 0-15.1 7.5 7.5 0 0 1 0 15.1" fill="#fffA1"/><path d="M172 45.9a7.6 7.6 0 1 1 0-15.2 7.6 7.6 0 0 1 0 15.2" fill="#fff500A2"/><path d="M23.7-354.7a7.6 7.6 0 1 1 0-15.2 7.6 7.6 0 0 1 0 15.2" fill="#005bbbA2"/><path d="M73.9 58.4a7.6 7.6 0 1 1 0-15.3 7.6 7.6 0 0 1 0 15.3" fill="#c2e1ffA2"/><path d="M-107.7-96a7.7 7.7 0 1 1 0-15.3 7.7 7.7 0 0 1 0 15.3" fill="#fff500A3"/><path d="M221.4 23.8a7.7 7.7 0 1 1 0-15.3 7.7 7.7 0 0 1 0 15.3" fill="#fffA3"/><path d="M-115.9-165.5a7.7 7.7 0 1 1 0-15.4 7.7 7.7 0 0 1 0 15.4" fill="#005bbbA3"/><path d="M278.9-278.6a7.7 7.7 0 1 1 0-15.4 7.7 7.7 0 0 1 0 15.4" fill="#c2e1ffA4"/><path d="M282.8-273.7a7.7 7.7 0 1 1 0-15.4 7.7 7.7 0 0 1 0 15.4" fill="#c2e1ffA4"/><path d="M-104.5-78.7a7.7 7.7 0 1 1 0-15.4 7.7 7.7 0 0 1 0 15.4" fill="#005bbbA5"/><path d="M-63.4-300.8a7.8 7.8 0 1 1 0-15.6 7.8 7.8 0 0 1 0 15.6" fill="#fffA5"/><path d="M-39.1-331.5a8 8 0 1 1 0-16 8 8 0 0 1 0 16" fill="#c2e1ffAA"/><path d="M267-3.1a8 8 0 1 1 0-16 8 8 0 0 1 0 16" fill="#fff500AA"/><path d="M248.9 17.8a8.1 8.1 0 1 1 0-16.2 8.1 8.1 0 0 1 0 16.2" fill="#c2e1ffAC"/><path d="M179.8 59a8.1 8.1 0 1 1 0-16.1 8.1 8.1 0 0 1 0 16.1" fill="#c2e1ffAC"/><path d="M-19.8-349.8a8.1 8.1 0 1 1 0-16.3 8.1 8.1 0 0 1 0 16.3" fill="#c2e1ffAE"/><path d="M-32.7-341.4a8.1 8.1 0 1 1 0-16.3 8.1 8.1 0 0 1 0 16.3" fill="#fffAE"/><path d="M67-381.7a8.2 8.2 0 1 1 0-16.3 8.2 8.2 0 0 1 0 16.3" fill="#005bbbAE"/><path d="M-89-23.5a8.2 8.2 0 1 1 0-16.4 8.2 8.2 0 0 1 0 16.4" fill="#fff500AE"/><path d="M28.3-373.8a8.2 8.2 0 1 1 0-16.5 8.2 8.2 0 0 1 0 16.5" fill="#c2e1ffB0"/><path d="M-83.5-13a8.3 8.3 0 1 1 0-16.6 8.3 8.3 0 0 1 0 16.6" fill="#c2e1ffB1"/><path d="M-126.7-106.4a8.3 8.3 0 1 1 0-16.5 8.3 8.3 0 0 1 0 16.5" fill="#fffB1"/><path d="M108.1 77.4a8.3 8.3 0 1 1 0-16.6 8.3 8.3 0 0 1 0 16.6" fill="#005bbbB1"/><path d="M-131-173.2a8.3 8.3 0 1 1 0-16.6 8.3 8.3 0 0 1 0 16.6" fill="#005bbbB1"/><path d="M297.2-277.9a8.4 8.4 0 1 1 0-16.8 8.4 8.4 0 0 1 0 16.8" fill="#fff500B3"/><path d="M-65.7-319.1a8.4 8.4 0 1 1 0-16.8 8.4 8.4 0 0 1 0 16.8" fill="#fffB4"/><path d="M125.9-386.5a8.4 8.4 0 1 1 0-16.8 8.4 8.4 0 0 1 0 16.8" fill="#005bbbB4"/><path d="M41.9 73.3a8.5 8.5 0 1 1 0-17 8.5 8.5 0 0 1 0 17" fill="#fff500B6"/><path d="M254.7-330.3a8.5 8.5 0 1 1 0-17.1 8.5 8.5 0 0 1 0 17.1" fill="#fffB6"/><path d="M-57.8 19.7a8.5 8.5 0 1 1 0-17 8.5 8.5 0 0 1 0 17" fill="#005bbbB6"/><path d="M327.5-95.4a8.5 8.5 0 1 1 0-17.1 8.5 8.5 0 0 1 0 17.1" fill="#005bbbB7"/><path d="M246.1-338.2a8.6 8.6 0 1 1 0-17.1 8.6 8.6 0 0 1 0 17.1" fill="#fff500B7"/><path d="M188.1-372.2a8.6 8.6 0 1 1 0-17.2 8.6 8.6 0 0 1 0 17.2" fill="#fff500B8"/><path d="M298.5-280.6a8.6 8.6 0 1 1 0-17.3 8.6 8.6 0 0 1 0 17.3" fill="#005bbbB8"/><path d="M189.1-372a8.6 8.6 0 1 1 0-17.3 8.6 8.6 0 0 1 0 17.3" fill="#005bbbB9"/><path d="M175.5-377.2a8.7 8.7 0 1 1 0-17.4 8.7 8.7 0 0 1 0 17.4" fill="#fff500BA"/><path d="M118.6 81.5a8.7 8.7 0 1 1 0-17.5 8.7 8.7 0 0 1 0 17.5" fill="#c2e1ffBA"/><path d="M190 64.4a8.7 8.7 0 1 1 0-17.5 8.7 8.7 0 0 1 0 17.5" fill="#fff500BB"/><path d="M269 11.1a8.8 8.8 0 1 1 0-17.5 8.8 8.8 0 0 1 0 17.5" fill="#fffBB"/><path d="M-122.4-233.2a8.8 8.8 0 1 1 0-17.6 8.8 8.8 0 0 1 0 17.6" fill="#005bbbBC"/><path d="M-95.5-286.2a8.8 8.8 0 1 1 0-17.6 8.8 8.8 0 0 1 0 17.6" fill="#c2e1ffBC"/><path d="M218.3-358.2a8.8 8.8 0 1 1 0-17.6 8.8 8.8 0 0 1 0 17.6" fill="#c2e1ffBC"/><path d="M306.3-268a9 9 0 1 1 0-18 9 9 0 0 1 0 18" fill="#c2e1ffC1"/><path d="M-48.3-336.9a9 9 0 1 1 0-18.1 9 9 0 0 1 0 18.1" fill="#c2e1ffC1"/><path d="M32 72.3a9.1 9.1 0 1 1 0-18.1 9.1 9.1 0 0 1 0 18.1" fill="#fffC2"/><path d="M120.4-388a9.1 9.1 0 1 1 0-18.2 9.1 9.1 0 0 1 0 18.2" fill="#005bbbC3"/><path d="M-49.1 28.6a9.1 9.1 0 1 1 0-18.3 9.1 9.1 0 0 1 0 18.3" fill="#fffC4"/><path d="M161.3 73.7a9.1 9.1 0 1 1 0-18.3 9.1 9.1 0 0 1 0 18.3" fill="#fffC4"/><path d="M195.3-368.4a9.1 9.1 0 1 1 0-18.3 9.1 9.1 0 0 1 0 18.3" fill="#fffC4"/><path d="M-110.9-257.3a9.1 9.1 0 1 1 0-18.3 9.1 9.1 0 0 1 0 18.3" fill="#fff500C4"/><path d="M165.2 72.4a9.2 9.2 0 1 1 0-18.3 9.2 9.2 0 0 1 0 18.3" fill="#fffC4"/><path d="M279.1-1.6a9.2 9.2 0 1 1 0-18.4 9.2 9.2 0 0 1 0 18.4" fill="#005bbbC5"/><path d="M152.4-381.4a9.3 9.3 0 1 1 0-18.5 9.3 9.3 0 0 1 0 18.5" fill="#fff500C6"/><path d="M-106.6-43.9a9.3 9.3 0 1 1 0-18.6 9.3 9.3 0 0 1 0 18.6" fill="#fffC7"/><path d="M-16.3 49.4a9.3 9.3 0 1 1 0-18.6 9.3 9.3 0 0 1 0 18.6" fill="#fff500C7"/><path d="M-110.9-52.9a9.3 9.3 0 1 1 0-18.6 9.3 9.3 0 0 1 0 18.6" fill="#c2e1ffC7"/><path d="M228.8-347.9a9.3 9.3 0 1 1 0-18.6 9.3 9.3 0 0 1 0 18.6" fill="#c2e1ffC7"/><path d="M-114.4-245.4a9.3 9.3 0 1 1 0-18.7 9.3 9.3 0 0 1 0 18.7" fill="#005bbbC8"/><path d="M328-103.6a9.3 9.3 0 1 1 0-18.6 9.3 9.3 0 0 1 0 18.6" fill="#c2e1ffC8"/><path d="M-83.9-11.1a9.4 9.4 0 1 1 0-18.8 9.4 9.4 0 0 1 0 18.8" fill="#c2e1ffC9"/><path d="M90 78.9a9.4 9.4 0 1 1 0-18.9 9.4 9.4 0 0 1 0 18.9" fill="#fff500CA"/><path d="M148.4 73.9a9.4 9.4 0 1 1 0-18.8 9.4 9.4 0 0 1 0 18.8" fill="#fff500CA"/><path d="M-91.8-22.7a9.4 9.4 0 1 1 0-18.9 9.4 9.4 0 0 1 0 18.9" fill="#c2e1ffCA"/><path d="M-11.4-356.4a9.4 9.4 0 1 1 0-18.9 9.4 9.4 0 0 1 0 18.9" fill="#fff500CA"/><path d="M-100.2-36.9a9.4 9.4 0 1 1 0-18.9 9.4 9.4 0 0 1 0 18.9" fill="#005bbbCA"/><path d="M-67.9-311.5a9.5 9.5 0 1 1 0-19 9.5 9.5 0 0 1 0 19" fill="#fff500CB"/><path d="M78.8 76.8a9.5 9.5 0 1 1 0-19 9.5 9.5 0 0 1 0 19" fill="#fffCB"/><path d="M-129.9-141.3a9.5 9.5 0 1 1 0-19 9.5 9.5 0 0 1 0 19" fill="#c2e1ffCC"/><path d="M221 42.6a9.5 9.5 0 1 1 0-19 9.5 9.5 0 0 1 0 19" fill="#fff500CC"/><path d="M112.2-382a9.6 9.6 0 1 1 0-19.1 9.6 9.6 0 0 1 0 19.1" fill="#fff500CD"/><path d="M272-1.8a9.6 9.6 0 1 1 0-19.1 9.6 9.6 0 0 1 0 19.1" fill="#c2e1ffCE"/><path d="M-56.4 12.6a9.6 9.6 0 1 1 0-19.3 9.6 9.6 0 0 1 0 19.3" fill="#fffCF"/><path d="M70.8-377.9a9.7 9.7 0 1 1 0-19.4 9.7 9.7 0 0 1 0 19.4" fill="#c2e1ffD0"/><path d="M305.1-61.5a9.8 9.8 0 1 1 0-19.5 9.8 9.8 0 0 1 0 19.5" fill="#fffD2"/><path d="M-109-233.1a9.8 9.8 0 1 1 0-19.6 9.8 9.8 0 0 1 0 19.6" fill="#fffD2"/><path d="M307.7-70.5a9.8 9.8 0 1 1 0-19.6 9.8 9.8 0 0 1 0 19.6" fill="#fffD3"/><path d="M26.1 55.1a9.9 9.9 0 1 1 0-19.8 9.9 9.9 0 0 1 0 19.8" fill="#005bbbD5"/><path d="M291.4-46.7a10 10 0 1 1 0-19.9 10 10 0 0 1 0 19.9" fill="#fff500D6"/><path d="M312.5-199.1a10 10 0 1 1 0-20 10 10 0 0 1 0 20" fill="#fff500D7"/><path d="M164.7-360a10 10 0 1 1 0-20.1 10 10 0 0 1 0 20.1" fill="#fff500D7"/><path d="M66.2-367.2a10 10 0 1 1 0-20 10 10 0 0 1 0 20" fill="#fffD7"/><path d="M6.8 42.8a10 10 0 1 1 0-20.1 10 10 0 0 1 0 20.1" fill="#005bbbD8"/><path d="M270.1-18.9a10 10 0 1 1 0-20.1 10 10 0 0 1 0 20.1" fill="#fffD8"/><path d="M-5.8-339.9a10.1 10.1 0 1 1 0-20.1 10.1 10.1 0 0 1 0 20.1" fill="#005bbbD8"/><path d="M-21 23.6a10.1 10.1 0 1 1 0-20.2 10.1 10.1 0 0 1 0 20.2" fill="#005bbbD9"/><path d="M-12.4-333.5a10.1 10.1 0 1 1 0-20.3 10.1 10.1 0 0 1 0 20.3" fill="#fff500DA"/><path d="M-110.4-139.9a10.2 10.2 0 1 1 0-20.3 10.2 10.2 0 0 1 0 20.3" fill="#c2e1ffDB"/><path d="M266.5-25.8a10.2 10.2 0 1 1 0-20.5 10.2 10.2 0 0 1 0 20.5" fill="#005bbbDC"/><path d="M-94.6-227.4a10.2 10.2 0 1 1 0-20.5 10.2 10.2 0 0 1 0 20.5" fill="#005bbbDC"/><path d="M-108.2-161.4a10.3 10.3 0 1 1 0-20.5 10.3 10.3 0 0 1 0 20.5" fill="#c2e1ffDC"/><path d="M-85.8-61.5a10.3 10.3 0 1 1 0-20.6 10.3 10.3 0 0 1 0 20.6" fill="#fff500DD"/><path d="M73.4-351.4a10.4 10.4 0 1 1 0-20.8 10.4 10.4 0 0 1 0 20.8" fill="#005bbbE0"/><path d="M-25.2-308.6a10.4 10.4 0 1 1 0-20.9 10.4 10.4 0 0 1 0 20.9" fill="#fff500E0"/><path d="M284.7-81.8a10.5 10.5 0 1 1 0-20.9 10.5 10.5 0 0 1 0 20.9" fill="#005bbbE1"/><path d="M28.5-334.3a10.5 10.5 0 1 1 0-21.1 10.5 10.5 0 0 1 0 21.1" fill="#fffE2"/><path d="M-75.9-228.7a10.6 10.6 0 1 1 0-21.1 10.6 10.6 0 0 1 0 21.1" fill="#fffE3"/><path d="M213.9-300.4a10.7 10.7 0 1 1 0-21.3 10.7 10.7 0 0 1 0 21.3" fill="#fffE5"/><path d="M112 34.9a10.7 10.7 0 1 1 0-21.3 10.7 10.7 0 0 1 0 21.3" fill="#005bbbE5"/><path d="M-76.7-145.3a10.8 10.8 0 1 1 0-21.6 10.8 10.8 0 0 1 0 21.6" fill="#c2e1ffE9"/><path d="M209.8-276.1a11 11 0 1 1 0-21.9 11 11 0 0 1 0 21.9" fill="#c2e1ffEC"/><path d="M120.1 13.1a11 11 0 1 1 0-21.9 11 11 0 0 1 0 21.9" fill="#c2e1ffEC"/><path d="M69.9 11.1a11 11 0 1 1 0-21.9 11 11 0 0 1 0 21.9" fill="#fff500EC"/><path d="M147.5 3.8a11 11 0 1 1 0-22.1 11 11 0 0 1 0 22.1" fill="#005bbbED"/><path d="M50.3-0.2a11 11 0 1 1 0-22.1 11 11 0 0 1 0 22.1" fill="#c2e1ffEE"/><path d="M117.6 5.2a11.1 11.1 0 1 1 0-22.1 11.1 11.1 0 0 1 0 22.1" fill="#fffEE"/><path d="M134.5 1a11.1 11.1 0 1 1 0-22.1 11.1 11.1 0 0 1 0 22.1" fill="#fff500EE"/><path d="M236.7-206.1a11.2 11.2 0 1 1 0-22.4 11.2 11.2 0 0 1 0 22.4" fill="#fffF0"/><path d="M188.9-268.1a11.2 11.2 0 1 1 0-22.3 11.2 11.2 0 0 1 0 22.3" fill="#005bbbF0"/><path d="M80.8-295.6a11.2 11.2 0 1 1 0-22.3 11.2 11.2 0 0 1 0 22.3" fill="#005bbbF1"/><path d="M-35.4-106a11.2 11.2 0 1 1 0-22.4 11.2 11.2 0 0 1 0 22.4" fill="#005bbbF1"/><path d="M-7.2-234.2a11.3 11.3 0 1 1 0-22.6 11.3 11.3 0 0 1 0 22.6" fill="#005bbbF3"/><path d="M-22.5-203.4a11.3 11.3 0 1 1 0-22.6 11.3 11.3 0 0 1 0 22.6" fill="#005bbbF3"/><path d="M215.1-90.2a11.3 11.3 0 1 1 0-22.6 11.3 11.3 0 0 1 0 22.6" fill="#fff500F4"/><path d="M10.5-245.6a11.3 11.3 0 1 1 0-22.7 11.3 11.3 0 0 1 0 22.7" fill="#fff500F4"/><path d="M-2.1-231a11.3 11.3 0 1 1 0-22.6 11.3 11.3 0 0 1 0 22.6" fill="#fffF4"/><path d="M203.1-229.2a11.3 11.3 0 1 1 0-22.7 11.3 11.3 0 0 1 0 22.7" fill="#005bbbF4"/><path d="M109.8-26.5a11.4 11.4 0 1 1 0-22.7 11.4 11.4 0 0 1 0 22.7" fill="#c2e1ffF5"/><path d="M207.9-201.3a11.4 11.4 0 1 1 0-22.8 11.4 11.4 0 0 1 0 22.8" fill="#fff500F6"/><path d="M1.5-195.5a11.5 11.5 0 1 1 0-22.9 11.5 11.5 0 0 1 0 22.9" fill="#fff500F7"/><path d="M13.2-210.4a11.5 11.5 0 1 1 0-23 11.5 11.5 0 0 1 0 23" fill="#c2e1ffF8"/><path d="M204.1-143.8a11.5 11.5 0 1 1 0-23 11.5 11.5 0 0 1 0 23" fill="#c2e1ffF8"/><path d="M174.8-217.7a11.5 11.5 0 1 1 0-23.1 11.5 11.5 0 0 1 0 23.1" fill="#fffF8"/><path d="M180.5-205.2a11.6 11.6 0 1 1 0-23.1 11.6 11.6 0 0 1 0 23.1" fill="#fff500F9"/><path d="M16.8-194.8a11.6 11.6 0 1 1 0-23.2 11.6 11.6 0 0 1 0 23.2" fill="#fffF9"/><path d="M179.5-188.2a11.6 11.6 0 1 1 0-23.2 11.6 11.6 0 0 1 0 23.2" fill="#c2e1ffFA"/></g></svg>