<svg width="1200" height="675" viewBox="-500 -500 1200 675" xmlns="http://www.w3.org/2000/svg"><path d="M-500-500h1200v675h-1200z" fill="#000"/><style>.sparkles path{stroke-linecap:round; stroke-width:1}</style><g class="sparkles"><path d="M100-162.5l11.3-18.7" stroke="#c2e1ff32"/><path d="M100-162.5l-25.5 4.1" stroke="#fff32"/><path d="M100-162.5l7.8-28.6" stroke="#fff32"/><path d="M100-162.5l-25.8-19.6" stroke="#005bbb32"/><path d="M100-162.5l13.8 37" stroke="#c2e1ff32"/><path d="M100-162.5l75.2 23.8" stroke="#fff34"/><path d="M100-162.5l-46.3-76" stroke="#fff35"/><path d="M100-162.5l-90.7 5.3" stroke="#fff50035"/><path d="M100-162.5l11.9 108.9" stroke="#c2e1ff37"/><path d="M100-162.5l-65.4 101.7" stroke="#fff39"/><path d="M100-162.5l-15.8 126.4" stroke="#c2e1ff39"/><path d="M100-162.5l88.1-95.2" stroke="#c2e1ff3A"/><path d="M100-162.5l117.6 65.5" stroke="#005bbb3A"/><path d="M100-162.5l-35.8-131.6" stroke="#c2e1ff3B"/><path d="M100-162.5l-85.3 107.7" stroke="#c2e1ff3B"/><path d="M100-162.5l-73.7 124.6" stroke="#fff5003C"/><path d="M100-162.5l83.3-119.3" stroke="#005bbb3C"/><path d="M100-162.5l-150.7 26" stroke="#005bbb3D"/><path d="M100-162.5l-6.6 153.3" stroke="#005bbb3D"/><path d="M100-162.5l-151.4-29.7" stroke="#fff5003E"/><path d="M100-162.5l156.4-15.6" stroke="#fff5003E"/><path d="M100-162.5l61.1 145.6" stroke="#c2e1ff3E"/><path d="M100-162.5l-68-148.9" stroke="#fff5003F"/><path d="M100-162.5l47.1-162.9" stroke="#c2e1ff41"/><path d="M100-162.5l165-40.9" stroke="#c2e1ff41"/><path d="M100-162.5l-38.2 167.8" stroke="#fff50041"/><path d="M100-162.5l-169.2 43.1" stroke="#005bbb42"/><path d="M100-162.5l80.3 155.1" stroke="#fff50042"/><path d="M100-162.5l-119.1-135.1" stroke="#fff50043"/><path d="M100-162.5l130.9-124.1" stroke="#fff43"/><path d="M100-162.5l-6.2-182.5" stroke="#c2e1ff44"/><path d="M100-162.5l61.9 173.2" stroke="#fff44"/><path d="M100-162.5l-169.9 75.5" stroke="#c2e1ff45"/><path d="M100-162.5l-65-175.9" stroke="#fff50045"/><path d="M100-162.5l189.1 0" stroke="#c2e1ff46"/><path d="M100-162.5l180.3 62" stroke="#fff46"/><path d="M100-162.5l-24.3-189.3" stroke="#005bbb46"/><path d="M100-162.5l21.3 191.4" stroke="#c2e1ff47"/><path d="M100-162.5l8.9-194.2" stroke="#fff47"/><path d="M100-162.5l187.9 60.8" stroke="#fff50048"/><path d="M100-162.5l-194.5-35.9" stroke="#fff50048"/><path d="M100-162.5l193.9 41.4" stroke="#fff48"/><path d="M100-162.5l38.9 196.2" stroke="#fff50049"/><path d="M100-162.5l-189 71.1" stroke="#005bbb4A"/><path d="M100-162.5l-203.2 20.2" stroke="#005bbb4A"/><path d="M100-162.5l204.8 7.4" stroke="#c2e1ff4B"/><path d="M100-162.5l186.5 86.6" stroke="#fff4B"/><path d="M100-162.5l-69 194" stroke="#c2e1ff4B"/><path d="M100-162.5l60.6 198.1" stroke="#fff4B"/><path d="M100-162.5l115.7 172" stroke="#005bbb4C"/><path d="M100-162.5l54.1 202.2" stroke="#fff4C"/><path d="M100-162.5l54.6 204.5" stroke="#c2e1ff4D"/><path d="M100-162.5l-12.8 213.7" stroke="#fff4E"/><path d="M100-162.5l-163.1-139.2" stroke="#fff5004F"/><path d="M100-162.5l-203.7-70" stroke="#005bbb4F"/><path d="M100-162.5l20.3 218.7" stroke="#c2e1ff51"/><path d="M100-162.5l46.5 215" stroke="#c2e1ff51"/><path d="M100-162.5l199.6-92.9" stroke="#fff51"/><path d="M100-162.5l-133.9 174.7" stroke="#fff51"/><path d="M100-162.5l207.6-76.5" stroke="#fff50052"/><path d="M100-162.5l-220.5 23.2" stroke="#fff52"/><path d="M100-162.5l-186.2-120.6" stroke="#005bbb52"/><path d="M100-162.5l-203.8-90.6" stroke="#fff53"/><path d="M100-162.5l41.8 219.6" stroke="#005bbb53"/><path d="M100-162.5l211.3 74.8" stroke="#fff54"/><path d="M100-162.5l-224.4 23.6" stroke="#c2e1ff55"/><path d="M100-162.5l179-137.9" stroke="#fff55"/><path d="M100-162.5l7.5 226.2" stroke="#fff50055"/><path d="M100-162.5l-95.5 206.9" stroke="#005bbb56"/><path d="M100-162.5l96.1-207.1" stroke="#005bbb57"/><path d="M100-162.5l208.3-95.8" stroke="#c2e1ff57"/><path d="M100-162.5l-152.7 171.3" stroke="#fff58"/><path d="M100-162.5l70.5 218.6" stroke="#005bbb58"/><path d="M100-162.5l101.3 207.1" stroke="#c2e1ff59"/><path d="M100-162.5l83.9-216.3" stroke="#005bbb5A"/><path d="M100-162.5l209.3 100.2" stroke="#fff5A"/><path d="M100-162.5l-18.1 231.4" stroke="#c2e1ff5A"/><path d="M100-162.5l129.8 192.7" stroke="#fff5005A"/><path d="M100-162.5l-232-23.2" stroke="#005bbb5B"/><path d="M100-162.5l34.1 230.9" stroke="#005bbb5C"/><path d="M100-162.5l113.1 204.2" stroke="#005bbb5C"/><path d="M100-162.5l-169.7-161.6" stroke="#c2e1ff5D"/><path d="M100-162.5l65.4 225.2" stroke="#fff5005D"/><path d="M100-162.5l214.3-96.9" stroke="#005bbb5F"/><path d="M100-162.5l9.3-235.6" stroke="#fff50061"/><path d="M100-162.5l-23.5-234.7" stroke="#fff61"/><path d="M100-162.5l16.7-235.6" stroke="#c2e1ff62"/><path d="M100-162.5l122.3-202.1" stroke="#fff63"/><path d="M100-162.5l-216.2 95.2" stroke="#c2e1ff63"/><path d="M100-162.5l208.9-110.3" stroke="#005bbb63"/><path d="M100-162.5l-195.3-132.7" stroke="#fff50065"/><path d="M100-162.5l85.6 220" stroke="#fff50065"/><path d="M100-162.5l-234-28.9" stroke="#005bbb67"/><path d="M100-162.5l221 82" stroke="#fff67"/><path d="M100-162.5l125.6 199.4" stroke="#005bbb67"/><path d="M100-162.5l-8.6 235.4" stroke="#005bbb67"/><path d="M100-162.5l-213.9-95.5" stroke="#fff6A"/><path d="M100-162.5l-226.3 58.8" stroke="#fff5006B"/><path d="M100-162.5l-197.9 124.2" stroke="#c2e1ff6B"/><path d="M100-162.5l31.4 231.2" stroke="#fff6B"/><path d="M100-162.5l-218.6 80.7" stroke="#fff5006C"/><path d="M100-162.5l-209.2-102.4" stroke="#fff5006C"/><path d="M100-162.5l212-95.9" stroke="#fff6C"/><path d="M100-162.5l205.8-108" stroke="#fff5006C"/><path d="M100-162.5l-186 137.1" stroke="#fff6E"/><path d="M100-162.5l229.5-6.8" stroke="#005bbb6F"/><path d="M100-162.5l-188-131.5" stroke="#fff5006F"/><path d="M100-162.5l177.3 145.5" stroke="#005bbb6F"/><path d="M100-162.5l71.3-216.8" stroke="#fff70"/><path d="M100-162.5l87.4 210.7" stroke="#fff70"/><path d="M100-162.5l-145.4 175.7" stroke="#005bbb71"/><path d="M100-162.5l-132.7-184.3" stroke="#fff50071"/><path d="M100-162.5l214.8-72.6" stroke="#c2e1ff72"/><path d="M100-162.5l194-116.8" stroke="#fff50072"/><path d="M100-162.5l226.1 8.6" stroke="#fff72"/><path d="M100-162.5l226.2-2" stroke="#fff50072"/><path d="M100-162.5l178.7-138.6" stroke="#c2e1ff72"/><path d="M100-162.5l-199.7 99.9" stroke="#fff50074"/><path d="M100-162.5l-179.5 131.4" stroke="#c2e1ff74"/><path d="M100-162.5l-12.2-221.9" stroke="#fff74"/><path d="M100-162.5l93 199.7" stroke="#c2e1ff76"/><path d="M100-162.5l-123.3-180.7" stroke="#c2e1ff76"/><path d="M100-162.5l66.2 206.9" stroke="#005bbb77"/><path d="M100-162.5l-45.6-207.4" stroke="#c2e1ff79"/><path d="M100-162.5l-204.5 50" stroke="#005bbb7A"/><path d="M100-162.5l-36.8-203.8" stroke="#fff7C"/><path d="M100-162.5l-172 113.8" stroke="#c2e1ff7C"/><path d="M100-162.5l100-179.3" stroke="#c2e1ff7C"/><path d="M100-162.5l161.5-126.3" stroke="#c2e1ff7C"/><path d="M100-162.5l-181.9-91.9" stroke="#fff5007D"/><path d="M100-162.5l-124.2 161.6" stroke="#005bbb7D"/><path d="M100-162.5l-34-200.2" stroke="#c2e1ff7D"/><path d="M100-162.5l-144.9-141.6" stroke="#005bbb7D"/><path d="M100-162.5l187.4-68.5" stroke="#005bbb7E"/><path d="M100-162.5l-147.2-134.2" stroke="#fff5007E"/><path d="M100-162.5l-186.3 65.8" stroke="#c2e1ff7F"/><path d="M100-162.5l90.8 174.3" stroke="#fff7F"/><path d="M100-162.5l184.1-67.2" stroke="#fff7F"/><path d="M100-162.5l-113 159.4" stroke="#005bbb80"/><path d="M100-162.5l147.3-128.4" stroke="#fff80"/><path d="M100-162.5l-164.8-103.5" stroke="#c2e1ff80"/><path d="M100-162.5l161.2-102.8" stroke="#005bbb81"/><path d="M100-162.5l187.6-30.3" stroke="#005bbb81"/><path d="M100-162.5l162.2-98.3" stroke="#005bbb81"/><path d="M100-162.5l181.1 48.6" stroke="#c2e1ff82"/><path d="M100-162.5l-178.8-30" stroke="#fff50084"/><path d="M100-162.5l-163.6-74.6" stroke="#fff84"/><path d="M100-162.5l-117.5-134.7" stroke="#c2e1ff84"/><path d="M100-162.5l77-161.3" stroke="#c2e1ff84"/><path d="M100-162.5l168.5-58.5" stroke="#fff50084"/><path d="M100-162.5l-166.2 62.9" stroke="#fff50084"/><path d="M100-162.5l-150.4-93.1" stroke="#005bbb85"/><path d="M100-162.5l-160.2-72.2" stroke="#fff50085"/><path d="M100-162.5l82.6 145.1" stroke="#005bbb87"/><path d="M100-162.5l-84 143.7" stroke="#fff87"/><path d="M100-162.5l42.8 159.4" stroke="#005bbb87"/><path d="M100-162.5l-156.4 48.6" stroke="#fff88"/><path d="M100-162.5l-152.4 50.7" stroke="#fff88"/><path d="M100-162.5l-153.8-37.8" stroke="#005bbb89"/><path d="M100-162.5l152.8-37" stroke="#c2e1ff89"/><path d="M100-162.5l155.9-12.3" stroke="#fff50089"/><path d="M100-162.5l-136.9-62.6" stroke="#fff5008A"/><path d="M100-162.5l-81.4-121.8" stroke="#c2e1ff8B"/><path d="M100-162.5l137.4-27.5" stroke="#005bbb8C"/><path d="M100-162.5l-131.6 37.7" stroke="#c2e1ff8C"/><path d="M100-162.5l35.5 129.5" stroke="#fff8D"/><path d="M100-162.5l25-129.9" stroke="#005bbb8D"/><path d="M100-162.5l-49.7-121.4" stroke="#c2e1ff8D"/><path d="M100-162.5l128-6.8" stroke="#005bbb8D"/><path d="M100-162.5l72.2 101.4" stroke="#005bbb8E"/><path d="M100-162.5l89.9 85.2" stroke="#005bbb8E"/><path d="M100-162.5l2.2 120.1" stroke="#c2e1ff8F"/><path d="M100-162.5l-86-56" stroke="#c2e1ff91"/><path d="M100-162.5l63.9-74.4" stroke="#fff91"/><path d="M100-162.5l51.2 81.7" stroke="#fff91"/><path d="M100-162.5l-88.8 4.9" stroke="#fff92"/><path d="M100-162.5l73.5 28.3" stroke="#005bbb93"/><path d="M100-162.5l68.8 8.3" stroke="#fff50093"/><path d="M100-162.5l57-16.2" stroke="#005bbb94"/><path d="M100-162.5l-31 43.3" stroke="#fff50094"/><path d="M100-162.5l42.8-12" stroke="#005bbb95"/></g><g class="sparcs"><path d="M111.3-175.3a5.9 5.9 0 1 1 0-11.8 5.9 5.9 0 0 1 0 11.8" fill="#c2e1ff7D"/><path d="M74.5-152.5a5.9 5.9 0 1 1 0-11.8 5.9 5.9 0 0 1 0 11.8" fill="#005bbb7D"/><path d="M107.8-185.2a5.9 5.9 0 1 1 0-11.8 5.9 5.9 0 0 1 0 11.8" fill="#fff5007D"/><path d="M74.2-176.1a5.9 5.9 0 1 1 0-11.9 5.9 5.9 0 0 1 0 11.9" fill="#c2e1ff7D"/><path d="M113.8-119.6a5.9 5.9 0 1 1 0-11.9 5.9 5.9 0 0 1 0 11.9" fill="#fff7D"/><path d="M175.2-132.6a6.1 6.1 0 1 1 0-12.1 6.1 6.1 0 0 1 0 12.1" fill="#005bbb80"/><path d="M53.7-232.4a6.1 6.1 0 1 1 0-12.3 6.1 6.1 0 0 1 0 12.3" fill="#fff81"/><path d="M9.3-151a6.1 6.1 0 1 1 0-12.3 6.1 6.1 0 0 1 0 12.3" fill="#fff50081"/><path d="M111.9-47.4a6.2 6.2 0 1 1 0-12.5 6.2 6.2 0 0 1 0 12.5" fill="#fff50084"/><path d="M34.6-54.4a6.3 6.3 0 1 1 0-12.7 6.3 6.3 0 0 1 0 12.7" fill="#c2e1ff86"/><path d="M84.2-29.7a6.4 6.4 0 1 1 0-12.8 6.4 6.4 0 0 1 0 12.8" fill="#fff50087"/><path d="M188.1-251.3a6.4 6.4 0 1 1 0-12.8 6.4 6.4 0 0 1 0 12.8" fill="#fff87"/><path d="M217.6-90.5a6.4 6.4 0 1 1 0-12.9 6.4 6.4 0 0 1 0 12.9" fill="#fff88"/><path d="M64.2-287.7a6.4 6.4 0 1 1 0-12.9 6.4 6.4 0 0 1 0 12.9" fill="#fff50088"/><path d="M14.7-48.3a6.5 6.5 0 1 1 0-13 6.5 6.5 0 0 1 0 13" fill="#fff50089"/><path d="M26.3-31.3a6.5 6.5 0 1 1 0-13.1 6.5 6.5 0 0 1 0 13.1" fill="#fff8A"/><path d="M183.3-275.3a6.5 6.5 0 1 1 0-13.1 6.5 6.5 0 0 1 0 13.1" fill="#fff8A"/><path d="M-50.7-129.9a6.6 6.6 0 1 1 0-13.2 6.6 6.6 0 0 1 0 13.2" fill="#005bbb8C"/><path d="M93.4-2.5a6.6 6.6 0 1 1 0-13.3 6.6 6.6 0 0 1 0 13.3" fill="#c2e1ff8C"/><path d="M-51.4-185.5a6.6 6.6 0 1 1 0-13.3 6.6 6.6 0 0 1 0 13.3" fill="#fff5008C"/><path d="M256.4-171.4a6.7 6.7 0 1 1 0-13.3 6.7 6.7 0 0 1 0 13.3" fill="#005bbb8D"/><path d="M161.1-10.2a6.7 6.7 0 1 1 0-13.4 6.7 6.7 0 0 1 0 13.4" fill="#c2e1ff8D"/><path d="M32-304.7a6.7 6.7 0 1 1 0-13.4 6.7 6.7 0 0 1 0 13.4" fill="#fff8F"/><path d="M147.1-318.6a6.8 6.8 0 1 1 0-13.6 6.8 6.8 0 0 1 0 13.6" fill="#fff90"/><path d="M265-196.6a6.8 6.8 0 1 1 0-13.7 6.8 6.8 0 0 1 0 13.7" fill="#fff50090"/><path d="M61.8 12.2a6.8 6.8 0 1 1 0-13.7 6.8 6.8 0 0 1 0 13.7" fill="#005bbb91"/><path d="M-69.2-112.6a6.9 6.9 0 1 1 0-13.7 6.9 6.9 0 0 1 0 13.7" fill="#005bbb92"/><path d="M180.3-0.5a6.9 6.9 0 1 1 0-13.7 6.9 6.9 0 0 1 0 13.7" fill="#c2e1ff92"/><path d="M-19.1-290.7a6.9 6.9 0 1 1 0-13.9 6.9 6.9 0 0 1 0 13.9" fill="#c2e1ff93"/><path d="M230.9-279.7a7 7 0 1 1 0-13.9 7 7 0 0 1 0 13.9" fill="#c2e1ff94"/><path d="M93.8-338.1a7 7 0 1 1 0-13.9 7 7 0 0 1 0 13.9" fill="#005bbb94"/><path d="M161.9 17.7a7 7 0 1 1 0-14 7 7 0 0 1 0 14" fill="#c2e1ff95"/><path d="M-69.9-80a7 7 0 1 1 0-14 7 7 0 0 1 0 14" fill="#005bbb95"/><path d="M35-331.3a7.1 7.1 0 1 1 0-14.2 7.1 7.1 0 0 1 0 14.2" fill="#005bbb96"/><path d="M289.1-155.4a7.1 7.1 0 1 1 0-14.2 7.1 7.1 0 0 1 0 14.2" fill="#fff50097"/><path d="M280.3-93.4a7.1 7.1 0 1 1 0-14.2 7.1 7.1 0 0 1 0 14.2" fill="#fff50097"/><path d="M75.7-344.7a7.1 7.1 0 1 1 0-14.2 7.1 7.1 0 0 1 0 14.2" fill="#fff97"/><path d="M121.3 36.1a7.1 7.1 0 1 1 0-14.3 7.1 7.1 0 0 1 0 14.3" fill="#fff98"/><path d="M108.9-349.5a7.2 7.2 0 1 1 0-14.4 7.2 7.2 0 0 1 0 14.4" fill="#005bbb99"/><path d="M287.9-94.5a7.2 7.2 0 1 1 0-14.4 7.2 7.2 0 0 1 0 14.4" fill="#fff5009A"/><path d="M-94.5-191.1a7.2 7.2 0 1 1 0-14.5 7.2 7.2 0 0 1 0 14.5" fill="#c2e1ff9A"/><path d="M293.9-113.9a7.3 7.3 0 1 1 0-14.5 7.3 7.3 0 0 1 0 14.5" fill="#fff5009A"/><path d="M138.9 41a7.3 7.3 0 1 1 0-14.6 7.3 7.3 0 0 1 0 14.6" fill="#005bbb9B"/><path d="M-89-84a7.3 7.3 0 1 1 0-14.7 7.3 7.3 0 0 1 0 14.7" fill="#c2e1ff9C"/><path d="M-103.2-134.9a7.4 7.4 0 1 1 0-14.8 7.4 7.4 0 0 1 0 14.8" fill="#fff5009D"/><path d="M304.8-147.7a7.4 7.4 0 1 1 0-14.8 7.4 7.4 0 0 1 0 14.8" fill="#c2e1ff9D"/><path d="M286.5-68.5a7.4 7.4 0 1 1 0-14.8 7.4 7.4 0 0 1 0 14.8" fill="#fff9E"/><path d="M31 38.9a7.4 7.4 0 1 1 0-14.8 7.4 7.4 0 0 1 0 14.8" fill="#fff9E"/><path d="M160.6 43.1a7.4 7.4 0 1 1 0-14.9 7.4 7.4 0 0 1 0 14.9" fill="#005bbb9E"/><path d="M215.7 17a7.4 7.4 0 1 1 0-14.9 7.4 7.4 0 0 1 0 14.9" fill="#fff5009E"/><path d="M154.1 47.2a7.5 7.5 0 1 1 0-15 7.5 7.5 0 0 1 0 15" fill="#c2e1ff9F"/><path d="M154.6 49.6a7.5 7.5 0 1 1 0-15.1 7.5 7.5 0 0 1 0 15.1" fill="#fffA1"/><path d="M87.2 58.9a7.6 7.6 0 1 1 0-15.3 7.6 7.6 0 0 1 0 15.3" fill="#fff500A2"/><path d="M-63.1-294.1a7.6 7.6 0 1 1 0-15.3 7.6 7.6 0 0 1 0 15.3" fill="#005bbbA2"/><path d="M-103.7-224.8a7.6 7.6 0 1 1 0-15.3 7.6 7.6 0 0 1 0 15.3" fill="#c2e1ffA3"/><path d="M120.3 64a7.8 7.8 0 1 1 0-15.6 7.8 7.8 0 0 1 0 15.6" fill="#c2e1ffA6"/><path d="M146.5 60.2a7.8 7.8 0 1 1 0-15.5 7.8 7.8 0 0 1 0 15.5" fill="#fff500A6"/><path d="M299.6-247.6a7.8 7.8 0 1 1 0-15.6 7.8 7.8 0 0 1 0 15.6" fill="#c2e1ffA6"/><path d="M-33.9 20a7.8 7.8 0 1 1 0-15.6 7.8 7.8 0 0 1 0 15.6" fill="#005bbbA6"/><path d="M307.6-231.2a7.8 7.8 0 1 1 0-15.6 7.8 7.8 0 0 1 0 15.6" fill="#fffA7"/><path d="M-120.5-131.4a7.8 7.8 0 1 1 0-15.7 7.8 7.8 0 0 1 0 15.7" fill="#c2e1ffA7"/><path d="M-86.2-275.2a7.8 7.8 0 1 1 0-15.7 7.8 7.8 0 0 1 0 15.7" fill="#c2e1ffA7"/><path d="M-103.8-245.2a7.9 7.9 0 1 1 0-15.8 7.9 7.9 0 0 1 0 15.8" fill="#fff500A8"/><path d="M141.8 65a7.9 7.9 0 1 1 0-15.8 7.9 7.9 0 0 1 0 15.8" fill="#005bbbA8"/><path d="M311.3-79.8a7.9 7.9 0 1 1 0-15.8 7.9 7.9 0 0 1 0 15.8" fill="#fff500A9"/><path d="M-124.4-130.9a8 8 0 1 1 0-16 8 8 0 0 1 0 16" fill="#005bbbAA"/><path d="M279-292.4a8 8 0 1 1 0-16 8 8 0 0 1 0 16" fill="#c2e1ffAB"/><path d="M107.5 71.7a8 8 0 1 1 0-16 8 8 0 0 1 0 16" fill="#005bbbAB"/><path d="M4.5 52.5a8.1 8.1 0 1 1 0-16.2 8.1 8.1 0 0 1 0 16.2" fill="#fff500AC"/><path d="M196.1-361.5a8.1 8.1 0 1 1 0-16.2 8.1 8.1 0 0 1 0 16.2" fill="#fff500AD"/><path d="M308.3-250.1a8.1 8.1 0 1 1 0-16.3 8.1 8.1 0 0 1 0 16.3" fill="#fff500AE"/><path d="M-52.7 16.9a8.2 8.2 0 1 1 0-16.3 8.2 8.2 0 0 1 0 16.3" fill="#c2e1ffAE"/><path d="M170.5 64.2a8.2 8.2 0 1 1 0-16.3 8.2 8.2 0 0 1 0 16.3" fill="#fff500AE"/><path d="M201.3 52.8a8.2 8.2 0 1 1 0-16.4 8.2 8.2 0 0 1 0 16.4" fill="#c2e1ffAF"/><path d="M183.9-370.5a8.3 8.3 0 1 1 0-16.6 8.3 8.3 0 0 1 0 16.6" fill="#fff500B1"/><path d="M309.3-54a8.3 8.3 0 1 1 0-16.6 8.3 8.3 0 0 1 0 16.6" fill="#fff500B1"/><path d="M81.9 77.2a8.3 8.3 0 1 1 0-16.6 8.3 8.3 0 0 1 0 16.6" fill="#c2e1ffB1"/><path d="M229.8 38.6a8.3 8.3 0 1 1 0-16.7 8.3 8.3 0 0 1 0 16.7" fill="#c2e1ffB2"/><path d="M-132-177.3a8.4 8.4 0 1 1 0-16.8 8.4 8.4 0 0 1 0 16.8" fill="#c2e1ffB3"/><path d="M134.1 76.8a8.4 8.4 0 1 1 0-16.8 8.4 8.4 0 0 1 0 16.8" fill="#fffB3"/><path d="M213.1 50.1a8.4 8.4 0 1 1 0-16.8 8.4 8.4 0 0 1 0 16.8" fill="#c2e1ffB4"/><path d="M-69.7-315.6a8.5 8.5 0 1 1 0-17 8.5 8.5 0 0 1 0 17" fill="#c2e1ffB5"/><path d="M165.4 71.2a8.5 8.5 0 1 1 0-17 8.5 8.5 0 0 1 0 17" fill="#c2e1ffB6"/><path d="M314.3-250.8a8.6 8.6 0 1 1 0-17.2 8.6 8.6 0 0 1 0 17.2" fill="#005bbbB7"/><path d="M109.3-389.5a8.7 8.7 0 1 1 0-17.3 8.7 8.7 0 0 1 0 17.3" fill="#fff500BA"/><path d="M76.5-388.5a8.7 8.7 0 1 1 0-17.3 8.7 8.7 0 0 1 0 17.3" fill="#005bbbBA"/><path d="M116.7-389.3a8.8 8.8 0 1 1 0-17.6 8.8 8.8 0 0 1 0 17.6" fill="#005bbbBC"/><path d="M222.3-355.8a8.8 8.8 0 1 1 0-17.6 8.8 8.8 0 0 1 0 17.6" fill="#c2e1ffBD"/><path d="M-116.2-58.5a8.8 8.8 0 1 1 0-17.7 8.8 8.8 0 0 1 0 17.7" fill="#005bbbBD"/><path d="M308.9-263.9a8.8 8.8 0 1 1 0-17.7 8.8 8.8 0 0 1 0 17.7" fill="#c2e1ffBD"/><path d="M-95.3-286.3a8.9 8.9 0 1 1 0-17.9 8.9 8.9 0 0 1 0 17.9" fill="#fffBF"/><path d="M185.6 66.5a9 9 0 1 1 0-18 9 9 0 0 1 0 18" fill="#c2e1ffC0"/><path d="M-134-182.4a9 9 0 1 1 0-18 9 9 0 0 1 0 18" fill="#fff500C1"/><path d="M321-71.4a9.1 9.1 0 1 1 0-18.1 9.1 9.1 0 0 1 0 18.1" fill="#fff500C2"/><path d="M225.6 46a9.1 9.1 0 1 1 0-18.2 9.1 9.1 0 0 1 0 18.2" fill="#fffC2"/><path d="M91.4 82a9.1 9.1 0 1 1 0-18.2 9.1 9.1 0 0 1 0 18.2" fill="#fffC2"/><path d="M-113.9-248.7a9.2 9.2 0 1 1 0-18.5 9.2 9.2 0 0 1 0 18.5" fill="#005bbbC6"/><path d="M-126.3-94.4a9.3 9.3 0 1 1 0-18.6 9.3 9.3 0 0 1 0 18.6" fill="#005bbbC7"/><path d="M-97.9-29a9.3 9.3 0 1 1 0-18.6 9.3 9.3 0 0 1 0 18.6" fill="#fff500C7"/><path d="M131.4 78a9.3 9.3 0 1 1 0-18.6 9.3 9.3 0 0 1 0 18.6" fill="#c2e1ffC8"/><path d="M-118.6-72.4a9.3 9.3 0 1 1 0-18.7 9.3 9.3 0 0 1 0 18.7" fill="#005bbbC8"/><path d="M-109.2-255.6a9.4 9.4 0 1 1 0-18.7 9.4 9.4 0 0 1 0 18.7" fill="#fffC8"/><path d="M312-249.1a9.4 9.4 0 1 1 0-18.7 9.4 9.4 0 0 1 0 18.7" fill="#c2e1ffC9"/><path d="M305.8-261.1a9.4 9.4 0 1 1 0-18.8 9.4 9.4 0 0 1 0 18.8" fill="#005bbbC9"/><path d="M-86-16a9.5 9.5 0 1 1 0-18.9 9.5 9.5 0 0 1 0 18.9" fill="#fff500CB"/><path d="M329.5-159.8a9.6 9.6 0 1 1 0-19.1 9.6 9.6 0 0 1 0 19.1" fill="#fff500CD"/><path d="M-88-284.4a9.6 9.6 0 1 1 0-19.2 9.6 9.6 0 0 1 0 19.2" fill="#c2e1ffCD"/><path d="M277.3-7.4a9.6 9.6 0 1 1 0-19.2 9.6 9.6 0 0 1 0 19.2" fill="#c2e1ffCD"/><path d="M171.3-369.7a9.6 9.6 0 1 1 0-19.2 9.6 9.6 0 0 1 0 19.2" fill="#fff500CE"/><path d="M187.4 57.8a9.6 9.6 0 1 1 0-19.2 9.6 9.6 0 0 1 0 19.2" fill="#fff500CE"/><path d="M-45.4 22.8a9.6 9.6 0 1 1 0-19.3 9.6 9.6 0 0 1 0 19.3" fill="#fff500CF"/><path d="M-32.7-337.1a9.7 9.7 0 1 1 0-19.4 9.7 9.7 0 0 1 0 19.4" fill="#fff500CF"/><path d="M314.8-225.4a9.7 9.7 0 1 1 0-19.4 9.7 9.7 0 0 1 0 19.4" fill="#005bbbD0"/><path d="M294-269.6a9.7 9.7 0 1 1 0-19.4 9.7 9.7 0 0 1 0 19.4" fill="#c2e1ffD0"/><path d="M326.1-144.2a9.7 9.7 0 1 1 0-19.4 9.7 9.7 0 0 1 0 19.4" fill="#c2e1ffD0"/><path d="M326.2-154.8a9.7 9.7 0 1 1 0-19.4 9.7 9.7 0 0 1 0 19.4" fill="#fffD0"/><path d="M278.7-291.4a9.7 9.7 0 1 1 0-19.4 9.7 9.7 0 0 1 0 19.4" fill="#fff500D0"/><path d="M-99.7-52.8a9.8 9.8 0 1 1 0-19.7 9.8 9.8 0 0 1 0 19.7" fill="#005bbbD3"/><path d="M-79.5-21.2a9.9 9.9 0 1 1 0-19.8 9.9 9.9 0 0 1 0 19.8" fill="#fff500D3"/><path d="M87.8-374.6a9.9 9.9 0 1 1 0-19.7 9.9 9.9 0 0 1 0 19.7" fill="#c2e1ffD4"/><path d="M193 47.2a9.9 9.9 0 1 1 0-19.9 9.9 9.9 0 0 1 0 19.9" fill="#c2e1ffD5"/><path d="M-23.3-333.2a10 10 0 1 1 0-19.9 10 10 0 0 1 0 19.9" fill="#005bbbD6"/><path d="M166.2 54.4a10 10 0 1 1 0-20 10 10 0 0 1 0 20" fill="#c2e1ffD7"/><path d="M54.4-359.7a10.2 10.2 0 1 1 0-20.3 10.2 10.2 0 0 1 0 20.3" fill="#005bbbDA"/><path d="M-104.5-102.3a10.2 10.2 0 1 1 0-20.4 10.2 10.2 0 0 1 0 20.4" fill="#c2e1ffDB"/><path d="M63.2-356a10.3 10.3 0 1 1 0-20.6 10.3 10.3 0 0 1 0 20.6" fill="#005bbbDD"/><path d="M-72-38.4a10.3 10.3 0 1 1 0-20.6 10.3 10.3 0 0 1 0 20.6" fill="#c2e1ffDD"/><path d="M200-331.4a10.3 10.3 0 1 1 0-20.7 10.3 10.3 0 0 1 0 20.7" fill="#fffDE"/><path d="M261.5-278.5a10.3 10.3 0 1 1 0-20.6 10.3 10.3 0 0 1 0 20.6" fill="#c2e1ffDE"/><path d="M-81.9-244.1a10.4 10.4 0 1 1 0-20.7 10.4 10.4 0 0 1 0 20.7" fill="#fff500DE"/><path d="M-24.2 9.5a10.4 10.4 0 1 1 0-20.7 10.4 10.4 0 0 1 0 20.7" fill="#fffDE"/><path d="M66-352.4a10.4 10.4 0 1 1 0-20.7 10.4 10.4 0 0 1 0 20.7" fill="#fffDF"/><path d="M-44.9-293.7a10.4 10.4 0 1 1 0-20.8 10.4 10.4 0 0 1 0 20.8" fill="#fff500DF"/><path d="M287.4-220.6a10.4 10.4 0 1 1 0-20.8 10.4 10.4 0 0 1 0 20.8" fill="#c2e1ffE0"/><path d="M-47.2-286.2a10.4 10.4 0 1 1 0-20.9 10.4 10.4 0 0 1 0 20.9" fill="#fff500E0"/><path d="M-86.3-86.2a10.5 10.5 0 1 1 0-21 10.5 10.5 0 0 1 0 21" fill="#c2e1ffE1"/><path d="M190.8 22.3a10.5 10.5 0 1 1 0-21 10.5 10.5 0 0 1 0 21" fill="#c2e1ffE2"/><path d="M284.1-219.2a10.5 10.5 0 1 1 0-21 10.5 10.5 0 0 1 0 21" fill="#c2e1ffE2"/><path d="M-13 7.4a10.5 10.5 0 1 1 0-21 10.5 10.5 0 0 1 0 21" fill="#c2e1ffE2"/><path d="M247.3-280.3a10.5 10.5 0 1 1 0-21.1 10.5 10.5 0 0 1 0 21.1" fill="#c2e1ffE2"/><path d="M-64.8-255.4a10.5 10.5 0 1 1 0-21.1 10.5 10.5 0 0 1 0 21.1" fill="#fffE2"/><path d="M261.2-254.7a10.6 10.6 0 1 1 0-21.2 10.6 10.6 0 0 1 0 21.2" fill="#005bbbE4"/><path d="M287.6-182.2a10.6 10.6 0 1 1 0-21.2 10.6 10.6 0 0 1 0 21.2" fill="#c2e1ffE4"/><path d="M262.2-250.1a10.6 10.6 0 1 1 0-21.3 10.6 10.6 0 0 1 0 21.3" fill="#fff500E4"/><path d="M281.1-103.3a10.7 10.7 0 1 1 0-21.3 10.7 10.7 0 0 1 0 21.3" fill="#fffE5"/><path d="M-78.8-181.7a10.8 10.8 0 1 1 0-21.5 10.8 10.8 0 0 1 0 21.5" fill="#c2e1ffE7"/><path d="M-63.6-226.4a10.8 10.8 0 1 1 0-21.5 10.8 10.8 0 0 1 0 21.5" fill="#fffE8"/><path d="M-17.5-286.4a10.8 10.8 0 1 1 0-21.6 10.8 10.8 0 0 1 0 21.6" fill="#fffE8"/><path d="M177-313a10.8 10.8 0 1 1 0-21.6 10.8 10.8 0 0 1 0 21.6" fill="#fffE8"/><path d="M268.5-210.2a10.8 10.8 0 1 1 0-21.6 10.8 10.8 0 0 1 0 21.6" fill="#005bbbE8"/><path d="M-66.2-88.8a10.8 10.8 0 1 1 0-21.6 10.8 10.8 0 0 1 0 21.6" fill="#fff500E8"/><path d="M-50.4-244.8a10.8 10.8 0 1 1 0-21.6 10.8 10.8 0 0 1 0 21.6" fill="#fff500E9"/><path d="M-60.2-223.9a10.8 10.8 0 1 1 0-21.7 10.8 10.8 0 0 1 0 21.7" fill="#fffE9"/><path d="M182.6-6.4a10.9 10.9 0 1 1 0-21.9 10.9 10.9 0 0 1 0 21.9" fill="#fff500EB"/><path d="M16-7.9a11 11 0 1 1 0-21.9 11 11 0 0 1 0 21.9" fill="#005bbbEC"/><path d="M142.8 7.9a11 11 0 1 1 0-22 11 11 0 0 1 0 22" fill="#c2e1ffEC"/><path d="M-56.4-102.9a11 11 0 1 1 0-21.9 11 11 0 0 1 0 21.9" fill="#005bbbEC"/><path d="M-52.4-100.7a11 11 0 1 1 0-22.1 11 11 0 0 1 0 22.1" fill="#005bbbED"/><path d="M-53.8-189.3a11.1 11.1 0 1 1 0-22.1 11.1 11.1 0 0 1 0 22.1" fill="#c2e1ffEE"/><path d="M252.8-188.4a11.1 11.1 0 1 1 0-22.1 11.1 11.1 0 0 1 0 22.1" fill="#005bbbEE"/><path d="M255.9-163.7a11.1 11.1 0 1 1 0-22.1 11.1 11.1 0 0 1 0 22.1" fill="#fff500EE"/><path d="M-36.9-213.9a11.1 11.1 0 1 1 0-22.3 11.1 11.1 0 0 1 0 22.3" fill="#fff500F0"/><path d="M18.6-273.1a11.2 11.2 0 1 1 0-22.4 11.2 11.2 0 0 1 0 22.4" fill="#005bbbF0"/><path d="M237.4-178.8a11.2 11.2 0 1 1 0-22.4 11.2 11.2 0 0 1 0 22.4" fill="#fff500F2"/><path d="M-31.6-113.5a11.3 11.3 0 1 1 0-22.5 11.3 11.3 0 0 1 0 22.5" fill="#c2e1ffF2"/><path d="M135.5-21.7a11.3 11.3 0 1 1 0-22.6 11.3 11.3 0 0 1 0 22.6" fill="#fffF3"/><path d="M125-281.1a11.3 11.3 0 1 1 0-22.6 11.3 11.3 0 0 1 0 22.6" fill="#fffF3"/><path d="M50.3-272.6a11.3 11.3 0 1 1 0-22.6 11.3 11.3 0 0 1 0 22.6" fill="#fff500F4"/><path d="M228-158a11.3 11.3 0 1 1 0-22.7 11.3 11.3 0 0 1 0 22.7" fill="#fff500F4"/><path d="M172.2-49.7a11.4 11.4 0 1 1 0-22.7 11.4 11.4 0 0 1 0 22.7" fill="#005bbbF5"/><path d="M189.9-65.9a11.4 11.4 0 1 1 0-22.8 11.4 11.4 0 0 1 0 22.8" fill="#fff500F5"/><path d="M102.2-31a11.4 11.4 0 1 1 0-22.8 11.4 11.4 0 0 1 0 22.8" fill="#fff500F5"/><path d="M14-207a11.5 11.5 0 1 1 0-23.1 11.5 11.5 0 0 1 0 23.1" fill="#005bbbF8"/><path d="M163.9-225.3a11.5 11.5 0 1 1 0-23.1 11.5 11.5 0 0 1 0 23.1" fill="#fff500F9"/><path d="M151.2-69.2a11.6 11.6 0 1 1 0-23.1 11.6 11.6 0 0 1 0 23.1" fill="#005bbbF9"/><path d="M11.2-146a11.6 11.6 0 1 1 0-23.2 11.6 11.6 0 0 1 0 23.2" fill="#fffFA"/><path d="M173.5-122.5a11.6 11.6 0 1 1 0-23.3 11.6 11.6 0 0 1 0 23.3" fill="#c2e1ffFB"/><path d="M168.8-142.5a11.7 11.7 0 1 1 0-23.4 11.7 11.7 0 0 1 0 23.4" fill="#c2e1ffFC"/><path d="M157-167a11.7 11.7 0 1 1 0-23.4 11.7 11.7 0 0 1 0 23.4" fill="#fffFC"/><path d="M69-107.5a11.7 11.7 0 1 1 0-23.4 11.7 11.7 0 0 1 0 23.4" fill="#fffFD"/><path d="M142.8-162.8a11.8 11.8 0 1 1 0-23.5 11.8 11.8 0 0 1 0 23.5" fill="#005bbbFD"/></g></svg>