<svg width="1200" height="675" viewBox="-500 -500 1200 675" xmlns="http://www.w3.org/2000/svg"><path d="M-500-500h1200v675h-1200z" fill="#000"/><style>.sparkles path{stroke-linecap:round; stroke-width:1}</style><g class="sparkles"><path d="M100-162.5l-12.2-43.6" stroke="#005bbb32"/><path d="M100-162.5l-48.5-7.3" stroke="#fff33"/><path d="M100-162.5l56.4 12" stroke="#fff50033"/><path d="M100-162.5l71.2-7.7" stroke="#fff50034"/><path d="M100-162.5l43.9 59.9" stroke="#fff50034"/><path d="M100-162.5l-75.8-23.8" stroke="#fff34"/><path d="M100-162.5l79.5 19.9" stroke="#fff50035"/><path d="M100-162.5l-87-5.2" stroke="#005bbb35"/><path d="M100-162.5l60.4 63.3" stroke="#c2e1ff35"/><path d="M100-162.5l86.2 21" stroke="#005bbb35"/><path d="M100-162.5l93.1 8.6" stroke="#fff50036"/><path d="M100-162.5l89.2 42" stroke="#fff50036"/><path d="M100-162.5l9.9-101.2" stroke="#fff36"/><path d="M100-162.5l48.3 91.3" stroke="#fff37"/><path d="M100-162.5l84.8-67.5" stroke="#005bbb37"/><path d="M100-162.5l-7.1-111.5" stroke="#fff50037"/><path d="M100-162.5l-56.9-97.4" stroke="#fff50038"/><path d="M100-162.5l47.1 109.4" stroke="#005bbb38"/><path d="M100-162.5l101.1 69.7" stroke="#c2e1ff39"/><path d="M100-162.5l-109.6-74.5" stroke="#c2e1ff3A"/><path d="M100-162.5l141.2 19.4" stroke="#fff3C"/><path d="M100-162.5l-94.3 114.1" stroke="#fff5003D"/><path d="M100-162.5l67.9-133.5" stroke="#fff5003D"/><path d="M100-162.5l-77.9 129.3" stroke="#c2e1ff3D"/><path d="M100-162.5l67.4-150" stroke="#c2e1ff40"/><path d="M100-162.5l-160.6 40.5" stroke="#fff40"/><path d="M100-162.5l-17.9-171.8" stroke="#c2e1ff41"/><path d="M100-162.5l-160.1-67.5" stroke="#fff42"/><path d="M100-162.5l-130 124.1" stroke="#005bbb43"/><path d="M100-162.5l62.4-170.4" stroke="#fff50043"/><path d="M100-162.5l-111.5 144" stroke="#fff50044"/><path d="M100-162.5l139.6 121.1" stroke="#fff50044"/><path d="M100-162.5l139.3 122" stroke="#fff50044"/><path d="M100-162.5l-138.6-124.6" stroke="#fff50045"/><path d="M100-162.5l70.3 174.8" stroke="#005bbb45"/><path d="M100-162.5l-164.3-98.7" stroke="#fff50046"/><path d="M100-162.5l-36.3 190" stroke="#c2e1ff47"/><path d="M100-162.5l-91.4-170.8" stroke="#005bbb47"/><path d="M100-162.5l106.1 163.8" stroke="#fff47"/><path d="M100-162.5l176.8 84.1" stroke="#fff48"/><path d="M100-162.5l-112.7 161" stroke="#fff50048"/><path d="M100-162.5l132.9 151" stroke="#c2e1ff49"/><path d="M100-162.5l195-49.9" stroke="#fff50049"/><path d="M100-162.5l201.3 14.2" stroke="#c2e1ff49"/><path d="M100-162.5l126.6 159" stroke="#c2e1ff4A"/><path d="M100-162.5l142.2-145.3" stroke="#c2e1ff4A"/><path d="M100-162.5l188.9 76.6" stroke="#c2e1ff4A"/><path d="M100-162.5l193.8 67.3" stroke="#c2e1ff4B"/><path d="M100-162.5l48.9-200.9" stroke="#fff5004B"/><path d="M100-162.5l127.7 162.8" stroke="#005bbb4B"/><path d="M100-162.5l-100.1-181.6" stroke="#fff4C"/><path d="M100-162.5l-47.7 202.1" stroke="#005bbb4C"/><path d="M100-162.5l-129.9-162" stroke="#fff4C"/><path d="M100-162.5l95.7-187.4" stroke="#fff5004D"/><path d="M100-162.5l-24.3-209.1" stroke="#005bbb4D"/><path d="M100-162.5l-24-209.4" stroke="#fff5004D"/><path d="M100-162.5l-213.2-15.6" stroke="#c2e1ff4E"/><path d="M100-162.5l188.7 106.8" stroke="#c2e1ff50"/><path d="M100-162.5l50.7 212.3" stroke="#c2e1ff50"/><path d="M100-162.5l102.4 194.4" stroke="#005bbb51"/><path d="M100-162.5l-113.2 189.2" stroke="#fff50052"/><path d="M100-162.5l-201.2 96.8" stroke="#005bbb53"/><path d="M100-162.5l76.3 211.3" stroke="#005bbb54"/><path d="M100-162.5l-220.5 45.5" stroke="#c2e1ff54"/><path d="M100-162.5l137.8-179.8" stroke="#fff50055"/><path d="M100-162.5l-7.5 226.5" stroke="#fff50055"/><path d="M100-162.5l-186.3 130.2" stroke="#005bbb56"/><path d="M100-162.5l49.8 221.8" stroke="#005bbb56"/><path d="M100-162.5l227.7-6.1" stroke="#c2e1ff56"/><path d="M100-162.5l-228.3 10.8" stroke="#005bbb57"/><path d="M100-162.5l199.5-113.4" stroke="#c2e1ff58"/><path d="M100-162.5l143.4-179.2" stroke="#fff58"/><path d="M100-162.5l-203.5 106" stroke="#fff50058"/><path d="M100-162.5l-186.2-135.3" stroke="#005bbb58"/><path d="M100-162.5l115.6-199" stroke="#fff50058"/><path d="M100-162.5l-118.6 197.3" stroke="#c2e1ff58"/><path d="M100-162.5l83 215.5" stroke="#005bbb59"/><path d="M100-162.5l-115.4 201" stroke="#005bbb5A"/><path d="M100-162.5l-65.3 223.5" stroke="#fff5B"/><path d="M100-162.5l-232.7-13.6" stroke="#fff5005B"/><path d="M100-162.5l181.8 145.9" stroke="#fff5B"/><path d="M100-162.5l128.8-195.1" stroke="#c2e1ff5C"/><path d="M100-162.5l232.7 23.9" stroke="#c2e1ff5C"/><path d="M100-162.5l196.6-126.9" stroke="#fff5005D"/><path d="M100-162.5l-117.6-203.1" stroke="#c2e1ff5E"/><path d="M100-162.5l92.1 215.9" stroke="#c2e1ff5E"/><path d="M100-162.5l234.6 17" stroke="#fff5005F"/><path d="M100-162.5l88.8-218" stroke="#fff5F"/><path d="M100-162.5l13.3-235.1" stroke="#c2e1ff5F"/><path d="M100-162.5l222.2 78.2" stroke="#fff60"/><path d="M100-162.5l-160.8 172.4" stroke="#fff50060"/><path d="M100-162.5l41.4-232.1" stroke="#fff50060"/><path d="M100-162.5l-21.7 235" stroke="#005bbb61"/><path d="M100-162.5l231.3 46.9" stroke="#005bbb61"/><path d="M100-162.5l-194.7 133.6" stroke="#005bbb62"/><path d="M100-162.5l-197.6 129.2" stroke="#fff50062"/><path d="M100-162.5l-161.3-172.6" stroke="#c2e1ff63"/><path d="M100-162.5l121.9 202.3" stroke="#fff63"/><path d="M100-162.5l-182.9 149.5" stroke="#fff50063"/><path d="M100-162.5l-208.4 111.2" stroke="#c2e1ff63"/><path d="M100-162.5l-19-235.5" stroke="#fff50064"/><path d="M100-162.5l209.6-109" stroke="#c2e1ff64"/><path d="M100-162.5l-123.1 201.6" stroke="#fff64"/><path d="M100-162.5l-232.5 40.9" stroke="#fff50065"/><path d="M100-162.5l197.4-129.3" stroke="#fff50066"/><path d="M100-162.5l-116.5-205" stroke="#c2e1ff67"/><path d="M100-162.5l-90.4-217.7" stroke="#fff67"/><path d="M100-162.5l-178.1 153.7" stroke="#005bbb68"/><path d="M100-162.5l159.6 172.3" stroke="#fff50069"/><path d="M100-162.5l-27.1-233.3" stroke="#fff69"/><path d="M100-162.5l-102.7 210.9" stroke="#c2e1ff69"/><path d="M100-162.5l-204.4-114.9" stroke="#fff6A"/><path d="M100-162.5l152.7 177.5" stroke="#fff5006A"/><path d="M100-162.5l-176.6-153.1" stroke="#fff6B"/><path d="M100-162.5l-8.8-233" stroke="#fff5006C"/><path d="M100-162.5l-171.1-158.2" stroke="#fff6C"/><path d="M100-162.5l-232-15" stroke="#fff6C"/><path d="M100-162.5l150.2-177.3" stroke="#c2e1ff6C"/><path d="M100-162.5l232 9.4" stroke="#fff6D"/><path d="M100-162.5l-203.5-110.2" stroke="#c2e1ff6E"/><path d="M100-162.5l-184.7 138.1" stroke="#fff6E"/><path d="M100-162.5l-90.2-211.2" stroke="#005bbb6F"/><path d="M100-162.5l192.3 123.6" stroke="#fff70"/><path d="M100-162.5l-182.4-135" stroke="#fff50071"/><path d="M100-162.5l138.4 179.7" stroke="#fff50071"/><path d="M100-162.5l-112.4-196" stroke="#fff50072"/><path d="M100-162.5l-94.3-204.3" stroke="#005bbb73"/><path d="M100-162.5l124.9 187.1" stroke="#fff73"/><path d="M100-162.5l-218.3 53" stroke="#005bbb73"/><path d="M100-162.5l-204 89.1" stroke="#fff50074"/><path d="M100-162.5l-213.2 63.5" stroke="#fff74"/><path d="M100-162.5l-156.1-157.8" stroke="#c2e1ff75"/><path d="M100-162.5l-17.4 220.2" stroke="#fff50075"/><path d="M100-162.5l219 24" stroke="#c2e1ff76"/><path d="M100-162.5l-217.5 28" stroke="#005bbb76"/><path d="M100-162.5l-183.4 119.4" stroke="#fff50076"/><path d="M100-162.5l-150.8 155.3" stroke="#c2e1ff78"/><path d="M100-162.5l18.7-214.1" stroke="#fff78"/><path d="M100-162.5l211.8-23.1" stroke="#fff50079"/><path d="M100-162.5l-180.4-111.6" stroke="#fff7A"/><path d="M100-162.5l151.4 147" stroke="#c2e1ff7A"/><path d="M100-162.5l20.3 208.2" stroke="#005bbb7B"/><path d="M100-162.5l-194.6-66.3" stroke="#005bbb7C"/><path d="M100-162.5l143.4-146.8" stroke="#005bbb7C"/><path d="M100-162.5l80.8 188.5" stroke="#fff7C"/><path d="M100-162.5l159.9 127.5" stroke="#c2e1ff7D"/><path d="M100-162.5l-186.3 83.3" stroke="#fff7D"/><path d="M100-162.5l116.9 155.9" stroke="#fff80"/><path d="M100-162.5l-121.1 152.6" stroke="#fff50080"/><path d="M100-162.5l-85.7 174.3" stroke="#fff80"/><path d="M100-162.5l131.2 140.1" stroke="#c2e1ff81"/><path d="M100-162.5l-99.8 161.4" stroke="#fff50081"/><path d="M100-162.5l-139.3-126.3" stroke="#005bbb82"/><path d="M100-162.5l-88.7-164.6" stroke="#c2e1ff82"/><path d="M100-162.5l-112.3-148" stroke="#fff82"/><path d="M100-162.5l-96.1 158.2" stroke="#fff83"/><path d="M100-162.5l179.8 0" stroke="#fff84"/><path d="M100-162.5l-172.8 23.1" stroke="#c2e1ff85"/><path d="M100-162.5l105.5 131.1" stroke="#005bbb87"/><path d="M100-162.5l95-137.1" stroke="#c2e1ff87"/><path d="M100-162.5l97-128.4" stroke="#fff88"/><path d="M100-162.5l150 54.2" stroke="#c2e1ff88"/><path d="M100-162.5l121.4-99.3" stroke="#c2e1ff89"/><path d="M100-162.5l-141-59.8" stroke="#c2e1ff8A"/><path d="M100-162.5l142.1 38.9" stroke="#005bbb8B"/><path d="M100-162.5l101.7-104.9" stroke="#fff8B"/><path d="M100-162.5l117.2-79.5" stroke="#fff8C"/><path d="M100-162.5l-36.9-135.3" stroke="#c2e1ff8C"/><path d="M100-162.5l-89.6-104.6" stroke="#fff5008C"/><path d="M100-162.5l-106-75.4" stroke="#c2e1ff8D"/><path d="M100-162.5l-128.9-2.4" stroke="#005bbb8D"/><path d="M100-162.5l-91.3 77.3" stroke="#fff5008F"/><path d="M100-162.5l25.7-92.3" stroke="#fff50091"/><path d="M100-162.5l-85.6 22.9" stroke="#fff92"/><path d="M100-162.5l-35.9 74.9" stroke="#fff50092"/><path d="M100-162.5l-80.4 10.4" stroke="#fff92"/><path d="M100-162.5l-40.8 62.1" stroke="#fff50093"/><path d="M100-162.5l63.3 5.3" stroke="#fff94"/><path d="M100-162.5l5.3 59" stroke="#fff50094"/><path d="M100-162.5l22.2 44.1" stroke="#c2e1ff94"/><path d="M100-162.5l-5.5 44" stroke="#fff95"/></g><g class="sparcs"><path d="M87.8-200.2a6 6 0 1 1 0-11.9 6 6 0 0 1 0 11.9" fill="#fff7E"/><path d="M51.5-163.8a6 6 0 1 1 0-12 6 6 0 0 1 0 12" fill="#fff5007E"/><path d="M156.4-144.5a6 6 0 1 1 0-12 6 6 0 0 1 0 12" fill="#c2e1ff7E"/><path d="M171.2-164.2a6 6 0 1 1 0-12 6 6 0 0 1 0 12" fill="#005bbb80"/><path d="M143.9-96.5a6.1 6.1 0 1 1 0-12.1 6.1 6.1 0 0 1 0 12.1" fill="#fff80"/><path d="M24.2-180.3a6.1 6.1 0 1 1 0-12.1 6.1 6.1 0 0 1 0 12.1" fill="#c2e1ff80"/><path d="M179.5-136.6a6.1 6.1 0 1 1 0-12.1 6.1 6.1 0 0 1 0 12.1" fill="#fff81"/><path d="M13-161.6a6.1 6.1 0 1 1 0-12.2 6.1 6.1 0 0 1 0 12.2" fill="#005bbb81"/><path d="M160.4-93a6.1 6.1 0 1 1 0-12.3 6.1 6.1 0 0 1 0 12.3" fill="#fff81"/><path d="M186.2-135.4a6.1 6.1 0 1 1 0-12.2 6.1 6.1 0 0 1 0 12.2" fill="#c2e1ff81"/><path d="M193.1-147.7a6.1 6.1 0 1 1 0-12.3 6.1 6.1 0 0 1 0 12.3" fill="#005bbb82"/><path d="M189.2-114.3a6.2 6.2 0 1 1 0-12.4 6.2 6.2 0 0 1 0 12.4" fill="#fff50082"/><path d="M109.9-257.5a6.2 6.2 0 1 1 0-12.4 6.2 6.2 0 0 1 0 12.4" fill="#fff50083"/><path d="M148.3-65a6.2 6.2 0 1 1 0-12.4 6.2 6.2 0 0 1 0 12.4" fill="#fff83"/><path d="M184.8-223.8a6.2 6.2 0 1 1 0-12.5 6.2 6.2 0 0 1 0 12.5" fill="#fff84"/><path d="M92.9-267.8a6.3 6.3 0 1 1 0-12.5 6.3 6.3 0 0 1 0 12.5" fill="#fff50084"/><path d="M43.1-253.7a6.3 6.3 0 1 1 0-12.5 6.3 6.3 0 0 1 0 12.5" fill="#fff84"/><path d="M147.1-46.8a6.3 6.3 0 1 1 0-12.6 6.3 6.3 0 0 1 0 12.6" fill="#c2e1ff85"/><path d="M201.1-86.4a6.3 6.3 0 1 1 0-12.7 6.3 6.3 0 0 1 0 12.7" fill="#fff86"/><path d="M-9.6-230.6a6.4 6.4 0 1 1 0-12.8 6.4 6.4 0 0 1 0 12.8" fill="#005bbb88"/><path d="M241.2-136.6a6.5 6.5 0 1 1 0-13 6.5 6.5 0 0 1 0 13" fill="#fff8A"/><path d="M5.7-41.8a6.6 6.6 0 1 1 0-13.2 6.6 6.6 0 0 1 0 13.2" fill="#005bbb8B"/><path d="M167.9-289.4a6.6 6.6 0 1 1 0-13.2 6.6 6.6 0 0 1 0 13.2" fill="#005bbb8B"/><path d="M22.1-26.6a6.6 6.6 0 1 1 0-13.2 6.6 6.6 0 0 1 0 13.2" fill="#fff5008C"/><path d="M167.4-305.7a6.7 6.7 0 1 1 0-13.5 6.7 6.7 0 0 1 0 13.5" fill="#fff5008F"/><path d="M-60.6-115.3a6.8 6.8 0 1 1 0-13.5 6.8 6.8 0 0 1 0 13.5" fill="#fff8F"/><path d="M82.1-327.4a6.8 6.8 0 1 1 0-13.7 6.8 6.8 0 0 1 0 13.7" fill="#c2e1ff91"/><path d="M-60.1-223.2a6.9 6.9 0 1 1 0-13.7 6.9 6.9 0 0 1 0 13.7" fill="#005bbb91"/><path d="M-30-31.5a6.9 6.9 0 1 1 0-13.9 6.9 6.9 0 0 1 0 13.9" fill="#fff93"/><path d="M162.4-326a7 7 0 1 1 0-13.9 7 7 0 0 1 0 13.9" fill="#c2e1ff94"/><path d="M-11.5-11.5a7 7 0 1 1 0-14 7 7 0 0 1 0 14" fill="#fff50094"/><path d="M239.6-34.4a7 7 0 1 1 0-14 7 7 0 0 1 0 14" fill="#c2e1ff95"/><path d="M239.3-33.5a7 7 0 1 1 0-14.1 7 7 0 0 1 0 14.1" fill="#fff95"/><path d="M-38.6-280.1a7 7 0 1 1 0-14 7 7 0 0 1 0 14" fill="#fff50096"/><path d="M170.3 19.4a7.1 7.1 0 1 1 0-14.2 7.1 7.1 0 0 1 0 14.2" fill="#fff50096"/><path d="M-64.3-254.1a7.1 7.1 0 1 1 0-14.2 7.1 7.1 0 0 1 0 14.2" fill="#c2e1ff98"/><path d="M63.7 34.6a7.2 7.2 0 1 1 0-14.3 7.2 7.2 0 0 1 0 14.3" fill="#fff98"/><path d="M8.6-326.1a7.2 7.2 0 1 1 0-14.4 7.2 7.2 0 0 1 0 14.4" fill="#fff98"/><path d="M206.1 8.5a7.2 7.2 0 1 1 0-14.4 7.2 7.2 0 0 1 0 14.4" fill="#fff50099"/><path d="M276.8-71.2a7.2 7.2 0 1 1 0-14.4 7.2 7.2 0 0 1 0 14.4" fill="#fff99"/><path d="M-12.7 5.7a7.2 7.2 0 1 1 0-14.4 7.2 7.2 0 0 1 0 14.4" fill="#fff50099"/><path d="M232.9-4.2a7.3 7.3 0 1 1 0-14.6 7.3 7.3 0 0 1 0 14.6" fill="#005bbb9B"/><path d="M295-205.1a7.3 7.3 0 1 1 0-14.6 7.3 7.3 0 0 1 0 14.6" fill="#fff5009B"/><path d="M301.3-141a7.3 7.3 0 1 1 0-14.6 7.3 7.3 0 0 1 0 14.6" fill="#fff5009C"/><path d="M226.6 3.8a7.4 7.4 0 1 1 0-14.7 7.4 7.4 0 0 1 0 14.7" fill="#005bbb9C"/><path d="M242.2-300.4a7.4 7.4 0 1 1 0-14.7 7.4 7.4 0 0 1 0 14.7" fill="#005bbb9C"/><path d="M288.9-78.6a7.4 7.4 0 1 1 0-14.7 7.4 7.4 0 0 1 0 14.7" fill="#c2e1ff9D"/><path d="M293.8-87.8a7.4 7.4 0 1 1 0-14.8 7.4 7.4 0 0 1 0 14.8" fill="#fff9D"/><path d="M148.9-355.9a7.4 7.4 0 1 1 0-14.9 7.4 7.4 0 0 1 0 14.9" fill="#c2e1ff9E"/><path d="M227.7 7.8a7.4 7.4 0 1 1 0-14.9 7.4 7.4 0 0 1 0 14.9" fill="#fff5009E"/><path d="M-0.1-336.6a7.4 7.4 0 1 1 0-14.9 7.4 7.4 0 0 1 0 14.9" fill="#c2e1ff9E"/><path d="M52.3 47a7.5 7.5 0 1 1 0-14.9 7.5 7.5 0 0 1 0 14.9" fill="#005bbb9E"/><path d="M-29.9-317.1a7.5 7.5 0 1 1 0-14.9 7.5 7.5 0 0 1 0 14.9" fill="#005bbb9F"/><path d="M195.7-342.3a7.5 7.5 0 1 1 0-15.1 7.5 7.5 0 0 1 0 15.1" fill="#005bbbA0"/><path d="M75.7-364a7.5 7.5 0 1 1 0-15.1 7.5 7.5 0 0 1 0 15.1" fill="#fffA0"/><path d="M76-364.3a7.5 7.5 0 1 1 0-15.1 7.5 7.5 0 0 1 0 15.1" fill="#fff500A0"/><path d="M-113.2-170.5a7.6 7.6 0 1 1 0-15.3 7.6 7.6 0 0 1 0 15.3" fill="#fffA2"/><path d="M288.7-48a7.7 7.7 0 1 1 0-15.4 7.7 7.7 0 0 1 0 15.4" fill="#fff500A4"/><path d="M150.7 57.5a7.7 7.7 0 1 1 0-15.4 7.7 7.7 0 0 1 0 15.4" fill="#005bbbA5"/><path d="M202.4 39.6a7.8 7.8 0 1 1 0-15.5 7.8 7.8 0 0 1 0 15.5" fill="#fffA6"/><path d="M-13.2 34.5a7.8 7.8 0 1 1 0-15.6 7.8 7.8 0 0 1 0 15.6" fill="#005bbbA6"/><path d="M-101.2-57.8a7.9 7.9 0 1 1 0-15.8 7.9 7.9 0 0 1 0 15.8" fill="#fffA8"/><path d="M176.3 56.8a7.9 7.9 0 1 1 0-15.9 7.9 7.9 0 0 1 0 15.9" fill="#c2e1ffA9"/><path d="M-120.5-109.1a8 8 0 1 1 0-15.9 8 8 0 0 1 0 15.9" fill="#fff500AA"/><path d="M237.8-334.3a8 8 0 1 1 0-16.1 8 8 0 0 1 0 16.1" fill="#c2e1ffAB"/><path d="M92.5 72a8 8 0 1 1 0-16 8 8 0 0 1 0 16" fill="#fff500AB"/><path d="M-86.3-24.3a8.1 8.1 0 1 1 0-16.1 8.1 8.1 0 0 1 0 16.1" fill="#c2e1ffAC"/><path d="M149.8 67.3a8.1 8.1 0 1 1 0-16.1 8.1 8.1 0 0 1 0 16.1" fill="#fff500AC"/><path d="M327.7-160.5a8.1 8.1 0 1 1 0-16.2 8.1 8.1 0 0 1 0 16.2" fill="#005bbbAC"/><path d="M-128.3-143.6a8.1 8.1 0 1 1 0-16.2 8.1 8.1 0 0 1 0 16.2" fill="#c2e1ffAD"/><path d="M299.5-267.7a8.2 8.2 0 1 1 0-16.3 8.2 8.2 0 0 1 0 16.3" fill="#fffAE"/><path d="M243.4-333.5a8.2 8.2 0 1 1 0-16.3 8.2 8.2 0 0 1 0 16.3" fill="#c2e1ffAE"/><path d="M-103.5-48.4a8.2 8.2 0 1 1 0-16.3 8.2 8.2 0 0 1 0 16.3" fill="#fffAE"/><path d="M-86.2-289.6a8.2 8.2 0 1 1 0-16.3 8.2 8.2 0 0 1 0 16.3" fill="#005bbbAF"/><path d="M215.6-353.4a8.2 8.2 0 1 1 0-16.3 8.2 8.2 0 0 1 0 16.3" fill="#c2e1ffAF"/><path d="M-18.6 43a8.2 8.2 0 1 1 0-16.4 8.2 8.2 0 0 1 0 16.4" fill="#fff500AF"/><path d="M183 61.3a8.2 8.2 0 1 1 0-16.5 8.2 8.2 0 0 1 0 16.5" fill="#fffB0"/><path d="M-15.4 46.8a8.3 8.3 0 1 1 0-16.6 8.3 8.3 0 0 1 0 16.6" fill="#fff500B1"/><path d="M34.7 69.3a8.4 8.4 0 1 1 0-16.7 8.4 8.4 0 0 1 0 16.7" fill="#fff500B2"/><path d="M-132.7-167.7a8.4 8.4 0 1 1 0-16.8 8.4 8.4 0 0 1 0 16.8" fill="#fff500B3"/><path d="M281.8-8.2a8.4 8.4 0 1 1 0-16.7 8.4 8.4 0 0 1 0 16.7" fill="#fffB3"/><path d="M228.8-349.2a8.4 8.4 0 1 1 0-16.9 8.4 8.4 0 0 1 0 16.9" fill="#fff500B4"/><path d="M332.7-130.2a8.4 8.4 0 1 1 0-16.8 8.4 8.4 0 0 1 0 16.8" fill="#fffB4"/><path d="M296.6-280.9a8.5 8.5 0 1 1 0-16.9 8.5 8.5 0 0 1 0 16.9" fill="#fff500B5"/><path d="M-17.6-357.1a8.5 8.5 0 1 1 0-17 8.5 8.5 0 0 1 0 17" fill="#fff500B6"/><path d="M192.1 61.9a8.5 8.5 0 1 1 0-17 8.5 8.5 0 0 1 0 17" fill="#c2e1ffB6"/><path d="M334.6-136.9a8.6 8.6 0 1 1 0-17.2 8.6 8.6 0 0 1 0 17.2" fill="#fff500B7"/><path d="M188.8-371.9a8.6 8.6 0 1 1 0-17.2 8.6 8.6 0 0 1 0 17.2" fill="#c2e1ffB8"/><path d="M113.3-389a8.6 8.6 0 1 1 0-17.2 8.6 8.6 0 0 1 0 17.2" fill="#005bbbB8"/><path d="M322.2-75.7a8.6 8.6 0 1 1 0-17.2 8.6 8.6 0 0 1 0 17.2" fill="#fff500B9"/><path d="M-60.8 18.6a8.7 8.7 0 1 1 0-17.3 8.7 8.7 0 0 1 0 17.3" fill="#fffB9"/><path d="M141.4-385.9a8.7 8.7 0 1 1 0-17.4 8.7 8.7 0 0 1 0 17.4" fill="#fffB9"/><path d="M78.3 81.2a8.7 8.7 0 1 1 0-17.4 8.7 8.7 0 0 1 0 17.4" fill="#fffBA"/><path d="M331.3-106.8a8.7 8.7 0 1 1 0-17.5 8.7 8.7 0 0 1 0 17.5" fill="#c2e1ffBB"/><path d="M-94.7-20.2a8.7 8.7 0 1 1 0-17.5 8.7 8.7 0 0 1 0 17.5" fill="#005bbbBB"/><path d="M-97.6-24.6a8.8 8.8 0 1 1 0-17.5 8.8 8.8 0 0 1 0 17.5" fill="#005bbbBB"/><path d="M-61.3-326.3a8.8 8.8 0 1 1 0-17.6 8.8 8.8 0 0 1 0 17.6" fill="#fffBC"/><path d="M221.9 48.6a8.8 8.8 0 1 1 0-17.6 8.8 8.8 0 0 1 0 17.6" fill="#c2e1ffBD"/><path d="M-82.9-4.2a8.8 8.8 0 1 1 0-17.6 8.8 8.8 0 0 1 0 17.6" fill="#fff500BD"/><path d="M-108.4-42.4a8.8 8.8 0 1 1 0-17.7 8.8 8.8 0 0 1 0 17.7" fill="#fff500BD"/><path d="M81-389.1a8.9 8.9 0 1 1 0-17.7 8.9 8.9 0 0 1 0 17.7" fill="#fff500BE"/><path d="M309.6-262.7a8.9 8.9 0 1 1 0-17.7 8.9 8.9 0 0 1 0 17.7" fill="#c2e1ffBE"/><path d="M-23.1 48a8.9 8.9 0 1 1 0-17.8 8.9 8.9 0 0 1 0 17.8" fill="#c2e1ffBF"/><path d="M-132.5-112.6a9 9 0 1 1 0-17.9 9 9 0 0 1 0 17.9" fill="#c2e1ffC0"/><path d="M297.4-282.8a9 9 0 1 1 0-18 9 9 0 0 1 0 18" fill="#fff500C0"/><path d="M-16.5-358.4a9 9 0 1 1 0-18.1 9 9 0 0 1 0 18.1" fill="#fffC2"/><path d="M9.6-371.2a9 9 0 1 1 0-18.1 9 9 0 0 1 0 18.1" fill="#fffC2"/><path d="M-78.1 0.3a9.1 9.1 0 1 1 0-18.2 9.1 9.1 0 0 1 0 18.2" fill="#fff500C4"/><path d="M259.6 19a9.2 9.2 0 1 1 0-18.4 9.2 9.2 0 0 1 0 18.4" fill="#fffC4"/><path d="M72.9-386.6a9.2 9.2 0 1 1 0-18.3 9.2 9.2 0 0 1 0 18.3" fill="#fff500C5"/><path d="M-2.7 57.6a9.2 9.2 0 1 1 0-18.4 9.2 9.2 0 0 1 0 18.4" fill="#fff500C5"/><path d="M-104.4-268.2a9.2 9.2 0 1 1 0-18.5 9.2 9.2 0 0 1 0 18.5" fill="#c2e1ffC5"/><path d="M252.7 24.3a9.3 9.3 0 1 1 0-18.5 9.3 9.3 0 0 1 0 18.5" fill="#fff500C6"/><path d="M-76.6-306.3a9.3 9.3 0 1 1 0-18.6 9.3 9.3 0 0 1 0 18.6" fill="#005bbbC7"/><path d="M91.2-386.1a9.3 9.3 0 1 1 0-18.7 9.3 9.3 0 0 1 0 18.7" fill="#c2e1ffC8"/><path d="M-71.1-311.3a9.3 9.3 0 1 1 0-18.7 9.3 9.3 0 0 1 0 18.7" fill="#c2e1ffC8"/><path d="M-132-168.1a9.4 9.4 0 1 1 0-18.7 9.4 9.4 0 0 1 0 18.7" fill="#c2e1ffC9"/><path d="M250.2-330.5a9.4 9.4 0 1 1 0-18.7 9.4 9.4 0 0 1 0 18.7" fill="#c2e1ffC9"/><path d="M332-143.7a9.4 9.4 0 1 1 0-18.8 9.4 9.4 0 0 1 0 18.8" fill="#c2e1ffC9"/><path d="M-103.5-263.2a9.5 9.5 0 1 1 0-18.9 9.5 9.5 0 0 1 0 18.9" fill="#fffCB"/><path d="M-84.7-14.9a9.5 9.5 0 1 1 0-19 9.5 9.5 0 0 1 0 19" fill="#fff500CC"/><path d="M9.8-364.2a9.5 9.5 0 1 1 0-19.1 9.5 9.5 0 0 1 0 19.1" fill="#fff500CD"/><path d="M292.3-29.3a9.6 9.6 0 1 1 0-19.2 9.6 9.6 0 0 1 0 19.2" fill="#005bbbCE"/><path d="M-82.4-287.9a9.7 9.7 0 1 1 0-19.3 9.7 9.7 0 0 1 0 19.3" fill="#fffD0"/><path d="M238.4 26.9a9.7 9.7 0 1 1 0-19.4 9.7 9.7 0 0 1 0 19.4" fill="#fffD0"/><path d="M-12.4-348.8a9.7 9.7 0 1 1 0-19.4 9.7 9.7 0 0 1 0 19.4" fill="#c2e1ffD0"/><path d="M5.7-357.1a9.8 9.8 0 1 1 0-19.5 9.8 9.8 0 0 1 0 19.5" fill="#005bbbD1"/><path d="M224.9 34.4a9.8 9.8 0 1 1 0-19.5 9.8 9.8 0 0 1 0 19.5" fill="#fff500D1"/><path d="M-118.3-99.8a9.8 9.8 0 1 1 0-19.5 9.8 9.8 0 0 1 0 19.5" fill="#fffD2"/><path d="M-104-63.5a9.8 9.8 0 1 1 0-19.7 9.8 9.8 0 0 1 0 19.7" fill="#fff500D3"/><path d="M-113.2-89.2a9.9 9.9 0 1 1 0-19.7 9.9 9.9 0 0 1 0 19.7" fill="#005bbbD3"/><path d="M-56.1-310.4a9.9 9.9 0 1 1 0-19.8 9.9 9.9 0 0 1 0 19.8" fill="#c2e1ffD4"/><path d="M82.6 67.7a9.9 9.9 0 1 1 0-19.9 9.9 9.9 0 0 1 0 19.9" fill="#c2e1ffD5"/><path d="M319-128.6a9.9 9.9 0 1 1 0-19.9 9.9 9.9 0 0 1 0 19.9" fill="#005bbbD5"/><path d="M-117.5-124.5a10 10 0 1 1 0-19.9 10 10 0 0 1 0 19.9" fill="#fff500D6"/><path d="M-83.4-33.2a10 10 0 1 1 0-19.9 10 10 0 0 1 0 19.9" fill="#005bbbD6"/><path d="M-50.8 2.9a10 10 0 1 1 0-20.1 10 10 0 0 1 0 20.1" fill="#005bbbD8"/><path d="M118.7-366.5a10.1 10.1 0 1 1 0-20.1 10.1 10.1 0 0 1 0 20.1" fill="#005bbbD9"/><path d="M311.8-175.5a10.1 10.1 0 1 1 0-20.2 10.1 10.1 0 0 1 0 20.2" fill="#fffDA"/><path d="M-80.4-263.9a10.2 10.2 0 1 1 0-20.3 10.2 10.2 0 0 1 0 20.3" fill="#fffDA"/><path d="M251.4-5.3a10.2 10.2 0 1 1 0-20.4 10.2 10.2 0 0 1 0 20.4" fill="#c2e1ffDB"/><path d="M120.3 55.9a10.2 10.2 0 1 1 0-20.5 10.2 10.2 0 0 1 0 20.5" fill="#fff500DC"/><path d="M-94.6-218.4a10.3 10.3 0 1 1 0-20.7 10.3 10.3 0 0 1 0 20.7" fill="#005bbbDE"/><path d="M243.4-299a10.3 10.3 0 1 1 0-20.7 10.3 10.3 0 0 1 0 20.7" fill="#005bbbDE"/><path d="M180.8 36.4a10.3 10.3 0 1 1 0-20.7 10.3 10.3 0 0 1 0 20.7" fill="#fffDE"/><path d="M259.9-24.7a10.3 10.3 0 1 1 0-20.6 10.3 10.3 0 0 1 0 20.6" fill="#c2e1ffDE"/><path d="M-86.3-68.8a10.3 10.3 0 1 1 0-20.7 10.3 10.3 0 0 1 0 20.7" fill="#005bbbDE"/><path d="M216.9 4a10.5 10.5 0 1 1 0-21.1 10.5 10.5 0 0 1 0 21.1" fill="#fff500E2"/><path d="M-21.1 0.6a10.5 10.5 0 1 1 0-21 10.5 10.5 0 0 1 0 21" fill="#c2e1ffE2"/><path d="M14.3 22.3a10.5 10.5 0 1 1 0-21 10.5 10.5 0 0 1 0 21" fill="#005bbbE3"/><path d="M231.2-11.8a10.6 10.6 0 1 1 0-21.2 10.6 10.6 0 0 1 0 21.2" fill="#005bbbE3"/><path d="M0.2 9.5a10.6 10.6 0 1 1 0-21.2 10.6 10.6 0 0 1 0 21.2" fill="#005bbbE4"/><path d="M-39.3-278.2a10.6 10.6 0 1 1 0-21.3 10.6 10.6 0 0 1 0 21.3" fill="#fffE5"/><path d="M11.3-316.5a10.7 10.7 0 1 1 0-21.3 10.7 10.7 0 0 1 0 21.3" fill="#fff500E5"/><path d="M-12.3-299.8a10.7 10.7 0 1 1 0-21.3 10.7 10.7 0 0 1 0 21.3" fill="#fff500E6"/><path d="M3.9 6.4a10.7 10.7 0 1 1 0-21.4 10.7 10.7 0 0 1 0 21.4" fill="#fff500E6"/><path d="M279.8-151.7a10.8 10.8 0 1 1 0-21.6 10.8 10.8 0 0 1 0 21.6" fill="#005bbbE8"/><path d="M-72.8-128.6a10.9 10.9 0 1 1 0-21.7 10.9 10.9 0 0 1 0 21.7" fill="#005bbbE9"/><path d="M205.5-20.5a10.9 10.9 0 1 1 0-21.9 10.9 10.9 0 0 1 0 21.9" fill="#005bbbEB"/><path d="M195-288.6a11 11 0 1 1 0-21.9 11 11 0 0 1 0 21.9" fill="#fff500EC"/><path d="M197-279.9a11 11 0 1 1 0-22.1 11 11 0 0 1 0 22.1" fill="#fffED"/><path d="M250-97.3a11 11 0 1 1 0-22 11 11 0 0 1 0 22" fill="#fff500ED"/><path d="M221.4-250.7a11.1 11.1 0 1 1 0-22.1 11.1 11.1 0 0 1 0 22.1" fill="#005bbbEE"/><path d="M-41-211.2a11.1 11.1 0 1 1 0-22.2 11.1 11.1 0 0 1 0 22.2" fill="#005bbbEF"/><path d="M242.1-112.4a11.2 11.2 0 1 1 0-22.4 11.2 11.2 0 0 1 0 22.4" fill="#c2e1ffF0"/><path d="M201.7-256.2a11.2 11.2 0 1 1 0-22.4 11.2 11.2 0 0 1 0 22.4" fill="#fffF1"/><path d="M217.2-230.8a11.2 11.2 0 1 1 0-22.4 11.2 11.2 0 0 1 0 22.4" fill="#fffF2"/><path d="M63.1-286.6a11.2 11.2 0 1 1 0-22.4 11.2 11.2 0 0 1 0 22.4" fill="#fffF2"/><path d="M10.4-255.8a11.3 11.3 0 1 1 0-22.5 11.3 11.3 0 0 1 0 22.5" fill="#c2e1ffF2"/><path d="M-6-226.6a11.3 11.3 0 1 1 0-22.7 11.3 11.3 0 0 1 0 22.7" fill="#005bbbF4"/><path d="M-28.9-153.6a11.3 11.3 0 1 1 0-22.7 11.3 11.3 0 0 1 0 22.7" fill="#c2e1ffF4"/><path d="M8.7-73.8a11.4 11.4 0 1 1 0-22.8 11.4 11.4 0 0 1 0 22.8" fill="#c2e1ffF6"/><path d="M125.7-243.2a11.6 11.6 0 1 1 0-23.1 11.6 11.6 0 0 1 0 23.1" fill="#c2e1ffF9"/><path d="M14.4-128a11.6 11.6 0 1 1 0-23.2 11.6 11.6 0 0 1 0 23.2" fill="#fffFA"/><path d="M64.1-76a11.6 11.6 0 1 1 0-23.2 11.6 11.6 0 0 1 0 23.2" fill="#fffFA"/><path d="M19.6-140.5a11.6 11.6 0 1 1 0-23.2 11.6 11.6 0 0 1 0 23.2" fill="#c2e1ffFB"/><path d="M59.2-88.7a11.7 11.7 0 1 1 0-23.3 11.7 11.7 0 0 1 0 23.3" fill="#c2e1ffFB"/><path d="M163.3-145.5a11.7 11.7 0 1 1 0-23.4 11.7 11.7 0 0 1 0 23.4" fill="#005bbbFC"/><path d="M105.3-91.8a11.7 11.7 0 1 1 0-23.4 11.7 11.7 0 0 1 0 23.4" fill="#c2e1ffFC"/><path d="M122.2-106.7a11.7 11.7 0 1 1 0-23.5 11.7 11.7 0 0 1 0 23.5" fill="#005bbbFD"/><path d="M94.5-106.8a11.8 11.8 0 1 1 0-23.5 11.8 11.8 0 0 1 0 23.5" fill="#c2e1ffFD"/></g></svg>