<svg width="1200" height="675" viewBox="-500 -500 1200 675" xmlns="http://www.w3.org/2000/svg"><path d="M-500-500h1200v675h-1200z" fill="#000"/><style>.sparkles path{stroke-linecap:round; stroke-width:1}</style><g class="sparkles"><path d="M100-162.5l-22.4 26.9" stroke="#fff32"/><path d="M100-162.5l34.2-54.8" stroke="#fff33"/><path d="M100-162.5l-66.1-29.4" stroke="#fff34"/><path d="M100-162.5l-74.5-0.8" stroke="#005bbb34"/><path d="M100-162.5l44.3-63.1" stroke="#fff50034"/><path d="M100-162.5l67.7-55.3" stroke="#fff35"/><path d="M100-162.5l-84.4 25.7" stroke="#c2e1ff35"/><path d="M100-162.5l-40.6 91.6" stroke="#fff36"/><path d="M100-162.5l-34.4-103.4" stroke="#005bbb37"/><path d="M100-162.5l46.6 99.3" stroke="#fff37"/><path d="M100-162.5l56.7 106.1" stroke="#c2e1ff38"/><path d="M100-162.5l98.5-72.5" stroke="#c2e1ff39"/><path d="M100-162.5l-124.9-8.5" stroke="#005bbb39"/><path d="M100-162.5l-116 54.6" stroke="#fff3A"/><path d="M100-162.5l26.6 127.5" stroke="#005bbb3A"/><path d="M100-162.5l-30.6-129.4" stroke="#c2e1ff3A"/><path d="M100-162.5l137 14.8" stroke="#fff3B"/><path d="M100-162.5l131.9-67.9" stroke="#c2e1ff3D"/><path d="M100-162.5l142.8-47.8" stroke="#fff3D"/><path d="M100-162.5l153.2-9.8" stroke="#fff3D"/><path d="M100-162.5l-38.1 151.4" stroke="#fff5003E"/><path d="M100-162.5l100.7-123" stroke="#c2e1ff3F"/><path d="M100-162.5l143.2 92" stroke="#fff41"/><path d="M100-162.5l-171.7 5.5" stroke="#fff50041"/><path d="M100-162.5l-58.5-161.7" stroke="#c2e1ff41"/><path d="M100-162.5l175.3-3.5" stroke="#005bbb42"/><path d="M100-162.5l109.2 137.5" stroke="#c2e1ff42"/><path d="M100-162.5l-15.3-175.4" stroke="#fff42"/><path d="M100-162.5l164.5 64.7" stroke="#005bbb42"/><path d="M100-162.5l76.8-164.1" stroke="#005bbb43"/><path d="M100-162.5l-109.1-146.1" stroke="#fff50044"/><path d="M100-162.5l-74-167" stroke="#005bbb44"/><path d="M100-162.5l1.9 183.5" stroke="#fff50044"/><path d="M100-162.5l-40.4-179.1" stroke="#fff44"/><path d="M100-162.5l153.5 100.7" stroke="#005bbb44"/><path d="M100-162.5l100.7-157.6" stroke="#fff50045"/><path d="M100-162.5l-84.8-168.1" stroke="#fff45"/><path d="M100-162.5l114.4 153.6" stroke="#c2e1ff46"/><path d="M100-162.5l113.4-158.4" stroke="#fff50047"/><path d="M100-162.5l-107.1 163.3" stroke="#c2e1ff47"/><path d="M100-162.5l5.1 195.6" stroke="#fff50047"/><path d="M100-162.5l56.2 188.1" stroke="#fff50048"/><path d="M100-162.5l189.8-50.3" stroke="#c2e1ff48"/><path d="M100-162.5l-79.8-180.3" stroke="#005bbb48"/><path d="M100-162.5l143.7 136.2" stroke="#c2e1ff48"/><path d="M100-162.5l-197.9-21.7" stroke="#fff50049"/><path d="M100-162.5l189.3 66.4" stroke="#005bbb49"/><path d="M100-162.5l-196.9-38.5" stroke="#005bbb49"/><path d="M100-162.5l-6.5-200.8" stroke="#fff49"/><path d="M100-162.5l122 160.1" stroke="#fff49"/><path d="M100-162.5l-45.3 198.3" stroke="#fff4A"/><path d="M100-162.5l51.4-201.3" stroke="#fff5004C"/><path d="M100-162.5l184.1-101.3" stroke="#fff4D"/><path d="M100-162.5l-109 181.9" stroke="#fff4D"/><path d="M100-162.5l200.5-68.7" stroke="#c2e1ff4D"/><path d="M100-162.5l-37.8-210.5" stroke="#c2e1ff4E"/><path d="M100-162.5l84.4-197.1" stroke="#c2e1ff4F"/><path d="M100-162.5l-180.6-117.4" stroke="#c2e1ff4F"/><path d="M100-162.5l162.6 143.8" stroke="#005bbb50"/><path d="M100-162.5l188.9-107.1" stroke="#c2e1ff50"/><path d="M100-162.5l-42.4 213.5" stroke="#fff50"/><path d="M100-162.5l146.8-162.6" stroke="#c2e1ff51"/><path d="M100-162.5l135.2-173.8" stroke="#005bbb51"/><path d="M100-162.5l84.8 203.8" stroke="#fff50052"/><path d="M100-162.5l-198.2-97.8" stroke="#fff52"/><path d="M100-162.5l212.3-63" stroke="#fff52"/><path d="M100-162.5l102 197.1" stroke="#c2e1ff52"/><path d="M100-162.5l45.9-219.3" stroke="#fff54"/><path d="M100-162.5l221.9 36.3" stroke="#fff54"/><path d="M100-162.5l104.6 201.1" stroke="#fff55"/><path d="M100-162.5l-112.6-196.8" stroke="#fff55"/><path d="M100-162.5l-34.9-224" stroke="#005bbb55"/><path d="M100-162.5l80-212.8" stroke="#fff56"/><path d="M100-162.5l-224.1-40.9" stroke="#fff50056"/><path d="M100-162.5l203.7 103.6" stroke="#fff50057"/><path d="M100-162.5l36.8 226.3" stroke="#005bbb57"/><path d="M100-162.5l198.4 115.7" stroke="#c2e1ff58"/><path d="M100-162.5l-54 223.4" stroke="#c2e1ff58"/><path d="M100-162.5l205.8-106" stroke="#005bbb5A"/><path d="M100-162.5l225.9 53" stroke="#c2e1ff5A"/><path d="M100-162.5l-60.1 224.3" stroke="#fff5A"/><path d="M100-162.5l-62.3-223.8" stroke="#fff5A"/><path d="M100-162.5l-208.8-102.1" stroke="#fff5A"/><path d="M100-162.5l-191.2 133.8" stroke="#c2e1ff5C"/><path d="M100-162.5l-230.9-36.2" stroke="#fff5C"/><path d="M100-162.5l202.8 116.8" stroke="#c2e1ff5D"/><path d="M100-162.5l25.2-233.2" stroke="#fff5005E"/><path d="M100-162.5l139.5-189.4" stroke="#fff5005F"/><path d="M100-162.5l-186.8 143.1" stroke="#fff5005F"/><path d="M100-162.5l83.8 219.9" stroke="#c2e1ff5F"/><path d="M100-162.5l-198.9-125.9" stroke="#fff5005F"/><path d="M100-162.5l-182.7-148.6" stroke="#c2e1ff60"/><path d="M100-162.5l-41.7-232" stroke="#fff50060"/><path d="M100-162.5l93.4 217" stroke="#c2e1ff63"/><path d="M100-162.5l-163.4-170.5" stroke="#fff50065"/><path d="M100-162.5l-34.3-233.6" stroke="#c2e1ff65"/><path d="M100-162.5l-231.4 46" stroke="#005bbb66"/><path d="M100-162.5l34.4-233.3" stroke="#fff67"/><path d="M100-162.5l203.8 116.7" stroke="#c2e1ff69"/><path d="M100-162.5l233.6 0" stroke="#fff5006B"/><path d="M100-162.5l-22.9 232.3" stroke="#c2e1ff6B"/><path d="M100-162.5l126.8-193.7" stroke="#005bbb6E"/><path d="M100-162.5l195.7-123.4" stroke="#fff5006E"/><path d="M100-162.5l66.8 221.4" stroke="#fff5006E"/><path d="M100-162.5l204.9-104.2" stroke="#fff5006F"/><path d="M100-162.5l226.8-37.8" stroke="#fff5006F"/><path d="M100-162.5l109.7 201.6" stroke="#c2e1ff6F"/><path d="M100-162.5l-167.5 156.7" stroke="#fff6F"/><path d="M100-162.5l148.1-172.9" stroke="#c2e1ff71"/><path d="M100-162.5l121.6 192.2" stroke="#fff50071"/><path d="M100-162.5l189.8 124.4" stroke="#fff50071"/><path d="M100-162.5l211.5 78.8" stroke="#c2e1ff72"/><path d="M100-162.5l-165.5 153.2" stroke="#fff50072"/><path d="M100-162.5l-37.3-221.8" stroke="#fff73"/><path d="M100-162.5l-129.3 182.9" stroke="#fff50073"/><path d="M100-162.5l222.4 22.9" stroke="#fff74"/><path d="M100-162.5l-211.1-71.9" stroke="#c2e1ff74"/><path d="M100-162.5l-222.8 5.6" stroke="#c2e1ff74"/><path d="M100-162.5l220.9 14.8" stroke="#005bbb75"/><path d="M100-162.5l-136.7-174" stroke="#005bbb75"/><path d="M100-162.5l209.4-59.5" stroke="#fff77"/><path d="M100-162.5l-204.2 67.2" stroke="#fff78"/><path d="M100-162.5l180.7 115.8" stroke="#fff78"/><path d="M100-162.5l-211.7-20.9" stroke="#005bbb79"/><path d="M100-162.5l174.9 120.2" stroke="#c2e1ff79"/><path d="M100-162.5l-53.6-202.9" stroke="#c2e1ff7A"/><path d="M100-162.5l96.9 185.4" stroke="#c2e1ff7B"/><path d="M100-162.5l190.4-85.7" stroke="#fff5007B"/><path d="M100-162.5l136.8 157.4" stroke="#c2e1ff7B"/><path d="M100-162.5l-193.8 68" stroke="#005bbb7C"/><path d="M100-162.5l201.8-32.5" stroke="#fff5007D"/><path d="M100-162.5l-125.4-158.4" stroke="#005bbb7D"/><path d="M100-162.5l140-145.1" stroke="#fff7E"/><path d="M100-162.5l71.5-187.3" stroke="#005bbb7E"/><path d="M100-162.5l133 149" stroke="#c2e1ff7E"/><path d="M100-162.5l199.3 6.6" stroke="#c2e1ff7E"/><path d="M100-162.5l-98.2 173.2" stroke="#fff7E"/><path d="M100-162.5l189.9-30.4" stroke="#c2e1ff81"/><path d="M100-162.5l189.4 30.2" stroke="#005bbb81"/><path d="M100-162.5l18.1-186.9" stroke="#c2e1ff82"/><path d="M100-162.5l-142-121.8" stroke="#c2e1ff82"/><path d="M100-162.5l-166.5-83.8" stroke="#c2e1ff82"/><path d="M100-162.5l-182.9-27.6" stroke="#c2e1ff83"/><path d="M100-162.5l64.8 171.7" stroke="#c2e1ff83"/><path d="M100-162.5l2.1 181.1" stroke="#c2e1ff84"/><path d="M100-162.5l-107.2-139.5" stroke="#005bbb85"/><path d="M100-162.5l107.6 138.2" stroke="#fff50085"/><path d="M100-162.5l-4.5 175" stroke="#c2e1ff85"/><path d="M100-162.5l169.7 35.1" stroke="#fff50085"/><path d="M100-162.5l-14.5-169" stroke="#c2e1ff86"/><path d="M100-162.5l67.4 151.9" stroke="#fff87"/><path d="M100-162.5l-111.1 122.8" stroke="#fff87"/><path d="M100-162.5l54.5-155.4" stroke="#fff87"/><path d="M100-162.5l121-110.7" stroke="#fff50087"/><path d="M100-162.5l-43.7 149" stroke="#005bbb89"/><path d="M100-162.5l19.8 153.5" stroke="#c2e1ff89"/><path d="M100-162.5l-136.1 70.6" stroke="#fff8A"/><path d="M100-162.5l-145.7-46.5" stroke="#fff8A"/><path d="M100-162.5l72.4 133.4" stroke="#fff5008A"/><path d="M100-162.5l-149.1-20.6" stroke="#fff8A"/><path d="M100-162.5l-24.4 147.6" stroke="#005bbb8A"/><path d="M100-162.5l136.3 30.2" stroke="#005bbb8C"/><path d="M100-162.5l-34 125.6" stroke="#005bbb8D"/><path d="M100-162.5l-37.6-124.6" stroke="#005bbb8D"/><path d="M100-162.5l128.6-11.1" stroke="#fff5008D"/><path d="M100-162.5l84.8-95.8" stroke="#c2e1ff8E"/><path d="M100-162.5l52.8 96" stroke="#005bbb90"/><path d="M100-162.5l-67.7 85.9" stroke="#005bbb90"/><path d="M100-162.5l-32.2-101.3" stroke="#fff50090"/><path d="M100-162.5l40.3-91.3" stroke="#fff50091"/><path d="M100-162.5l50.5 83.6" stroke="#fff50091"/><path d="M100-162.5l71-61.6" stroke="#fff50091"/><path d="M100-162.5l-35.5 85.5" stroke="#fff50092"/><path d="M100-162.5l14.8-89.2" stroke="#005bbb92"/><path d="M100-162.5l-59.8 40.4" stroke="#fff50093"/><path d="M100-162.5l38.8-59.6" stroke="#c2e1ff93"/><path d="M100-162.5l-33.8 47.2" stroke="#fff94"/><path d="M100-162.5l54.7 10.3" stroke="#005bbb94"/><path d="M100-162.5l-42.1 31.2" stroke="#005bbb94"/><path d="M100-162.5l-31-15" stroke="#fff95"/><path d="M100-162.5l-23 15.9" stroke="#fff95"/></g><g class="sparcs"><path d="M77.6-129.7a5.9 5.9 0 1 1 0-11.9 5.9 5.9 0 0 1 0 11.9" fill="#005bbb7D"/><path d="M134.2-211.3a6 6 0 1 1 0-12 6 6 0 0 1 0 12" fill="#fff7F"/><path d="M33.9-185.8a6 6 0 1 1 0-12.1 6 6 0 0 1 0 12.1" fill="#fff50080"/><path d="M25.5-157.3a6.1 6.1 0 1 1 0-12.1 6.1 6.1 0 0 1 0 12.1" fill="#fff80"/><path d="M144.3-219.5a6.1 6.1 0 1 1 0-12.1 6.1 6.1 0 0 1 0 12.1" fill="#fff50080"/><path d="M167.7-211.6a6.1 6.1 0 1 1 0-12.3 6.1 6.1 0 0 1 0 12.3" fill="#005bbb81"/><path d="M15.6-130.6a6.1 6.1 0 1 1 0-12.3 6.1 6.1 0 0 1 0 12.3" fill="#fff81"/><path d="M59.4-64.7a6.2 6.2 0 1 1 0-12.4 6.2 6.2 0 0 1 0 12.4" fill="#fff83"/><path d="M65.6-259.7a6.2 6.2 0 1 1 0-12.4 6.2 6.2 0 0 1 0 12.4" fill="#fff84"/><path d="M146.6-56.9a6.2 6.2 0 1 1 0-12.5 6.2 6.2 0 0 1 0 12.5" fill="#fff50084"/><path d="M156.7-50.1a6.3 6.3 0 1 1 0-12.6 6.3 6.3 0 0 1 0 12.6" fill="#fff50086"/><path d="M198.5-228.7a6.3 6.3 0 1 1 0-12.6 6.3 6.3 0 0 1 0 12.6" fill="#c2e1ff86"/><path d="M-24.9-164.6a6.4 6.4 0 1 1 0-12.7 6.4 6.4 0 0 1 0 12.7" fill="#fff50086"/><path d="M-16-101.6a6.4 6.4 0 1 1 0-12.7 6.4 6.4 0 0 1 0 12.7" fill="#c2e1ff87"/><path d="M126.6-28.6a6.4 6.4 0 1 1 0-12.8 6.4 6.4 0 0 1 0 12.8" fill="#fff87"/><path d="M69.4-285.5a6.4 6.4 0 1 1 0-12.9 6.4 6.4 0 0 1 0 12.9" fill="#fff50088"/><path d="M237-141.2a6.5 6.5 0 1 1 0-12.9 6.5 6.5 0 0 1 0 12.9" fill="#005bbb89"/><path d="M231.9-223.9a6.6 6.6 0 1 1 0-13.1 6.6 6.6 0 0 1 0 13.1" fill="#c2e1ff8B"/><path d="M242.8-203.8a6.6 6.6 0 1 1 0-13.1 6.6 6.6 0 0 1 0 13.1" fill="#fff8B"/><path d="M253.2-165.7a6.6 6.6 0 1 1 0-13.2 6.6 6.6 0 0 1 0 13.2" fill="#fff5008C"/><path d="M61.9-4.4a6.6 6.6 0 1 1 0-13.3 6.6 6.6 0 0 1 0 13.3" fill="#fff8D"/><path d="M200.7-278.8a6.7 6.7 0 1 1 0-13.4 6.7 6.7 0 0 1 0 13.4" fill="#fff5008D"/><path d="M243.2-63.7a6.8 6.8 0 1 1 0-13.6 6.8 6.8 0 0 1 0 13.6" fill="#fff50090"/><path d="M-71.7-150.1a6.8 6.8 0 1 1 0-13.7 6.8 6.8 0 0 1 0 13.7" fill="#fff50091"/><path d="M41.5-317.3a6.8 6.8 0 1 1 0-13.7 6.8 6.8 0 0 1 0 13.7" fill="#005bbb91"/><path d="M275.3-159.1a6.9 6.9 0 1 1 0-13.8 6.9 6.9 0 0 1 0 13.8" fill="#fff92"/><path d="M209.2-18.1a6.9 6.9 0 1 1 0-13.8 6.9 6.9 0 0 1 0 13.8" fill="#c2e1ff92"/><path d="M84.7-331a6.9 6.9 0 1 1 0-13.8 6.9 6.9 0 0 1 0 13.8" fill="#c2e1ff92"/><path d="M264.5-90.9a6.9 6.9 0 1 1 0-13.8 6.9 6.9 0 0 1 0 13.8" fill="#005bbb92"/><path d="M176.8-319.6a7 7 0 1 1 0-13.9 7 7 0 0 1 0 13.9" fill="#c2e1ff94"/><path d="M-9.1-301.6a7 7 0 1 1 0-14 7 7 0 0 1 0 14" fill="#c2e1ff94"/><path d="M26-322.5a7 7 0 1 1 0-14 7 7 0 0 1 0 14" fill="#fff94"/><path d="M101.9 28a7 7 0 1 1 0-14 7 7 0 0 1 0 14" fill="#fff50095"/><path d="M59.6-334.6a7 7 0 1 1 0-14 7 7 0 0 1 0 14" fill="#fff95"/><path d="M253.5-54.8a7 7 0 1 1 0-14 7 7 0 0 1 0 14" fill="#005bbb95"/><path d="M200.7-313.1a7.1 7.1 0 1 1 0-14.1 7.1 7.1 0 0 1 0 14.1" fill="#fff96"/><path d="M15.2-323.5a7.1 7.1 0 1 1 0-14.2 7.1 7.1 0 0 1 0 14.2" fill="#c2e1ff96"/><path d="M214.4-1.7a7.1 7.1 0 1 1 0-14.3 7.1 7.1 0 0 1 0 14.3" fill="#fff50097"/><path d="M213.4-313.7a7.2 7.2 0 1 1 0-14.4 7.2 7.2 0 0 1 0 14.4" fill="#fff99"/><path d="M-7.1 8a7.2 7.2 0 1 1 0-14.4 7.2 7.2 0 0 1 0 14.4" fill="#fff99"/><path d="M105.1 40.3a7.2 7.2 0 1 1 0-14.4 7.2 7.2 0 0 1 0 14.4" fill="#005bbb99"/><path d="M156.2 32.9a7.2 7.2 0 1 1 0-14.5 7.2 7.2 0 0 1 0 14.5" fill="#fff99"/><path d="M289.8-205.6a7.2 7.2 0 1 1 0-14.4 7.2 7.2 0 0 1 0 14.4" fill="#005bbb99"/><path d="M20.2-335.5a7.2 7.2 0 1 1 0-14.5 7.2 7.2 0 0 1 0 14.5" fill="#005bbb9A"/><path d="M243.7-19a7.2 7.2 0 1 1 0-14.5 7.2 7.2 0 0 1 0 14.5" fill="#005bbb9A"/><path d="M-97.9-177a7.3 7.3 0 1 1 0-14.5 7.3 7.3 0 0 1 0 14.5" fill="#fff9B"/><path d="M289.3-88.8a7.3 7.3 0 1 1 0-14.6 7.3 7.3 0 0 1 0 14.6" fill="#005bbb9B"/><path d="M-96.9-193.7a7.3 7.3 0 1 1 0-14.6 7.3 7.3 0 0 1 0 14.6" fill="#c2e1ff9B"/><path d="M93.5-356a7.3 7.3 0 1 1 0-14.6 7.3 7.3 0 0 1 0 14.6" fill="#fff9B"/><path d="M222 5a7.3 7.3 0 1 1 0-14.7 7.3 7.3 0 0 1 0 14.7" fill="#fff5009B"/><path d="M54.7 43.2a7.4 7.4 0 1 1 0-14.7 7.4 7.4 0 0 1 0 14.7" fill="#fff5009C"/><path d="M151.4-356.4a7.5 7.5 0 1 1 0-14.9 7.5 7.5 0 0 1 0 14.9" fill="#c2e1ff9F"/><path d="M284.1-256.3a7.5 7.5 0 1 1 0-15 7.5 7.5 0 0 1 0 15" fill="#fff500A0"/><path d="M-9 26.9a7.6 7.6 0 1 1 0-15.1 7.6 7.6 0 0 1 0 15.1" fill="#005bbbA1"/><path d="M300.5-223.7a7.6 7.6 0 1 1 0-15.1 7.6 7.6 0 0 1 0 15.1" fill="#005bbbA1"/><path d="M62.2-365.4a7.6 7.6 0 1 1 0-15.2 7.6 7.6 0 0 1 0 15.2" fill="#c2e1ffA2"/><path d="M184.4-352a7.6 7.6 0 1 1 0-15.2 7.6 7.6 0 0 1 0 15.2" fill="#fff500A2"/><path d="M-80.6-272.2a7.6 7.6 0 1 1 0-15.3 7.6 7.6 0 0 1 0 15.3" fill="#c2e1ffA3"/><path d="M262.6-11a7.7 7.7 0 1 1 0-15.4 7.7 7.7 0 0 1 0 15.4" fill="#fffA4"/><path d="M288.9-261.9a7.7 7.7 0 1 1 0-15.4 7.7 7.7 0 0 1 0 15.4" fill="#fffA4"/><path d="M57.6 58.7a7.7 7.7 0 1 1 0-15.4 7.7 7.7 0 0 1 0 15.4" fill="#c2e1ffA4"/><path d="M246.8-317.3a7.8 7.8 0 1 1 0-15.5 7.8 7.8 0 0 1 0 15.5" fill="#c2e1ffA5"/><path d="M235.2-328.5a7.8 7.8 0 1 1 0-15.6 7.8 7.8 0 0 1 0 15.6" fill="#005bbbA6"/><path d="M184.8 49.1a7.8 7.8 0 1 1 0-15.6 7.8 7.8 0 0 1 0 15.6" fill="#fff500A6"/><path d="M-98.2-252.5a7.8 7.8 0 1 1 0-15.6 7.8 7.8 0 0 1 0 15.6" fill="#005bbbA7"/><path d="M312.3-217.6a7.8 7.8 0 1 1 0-15.7 7.8 7.8 0 0 1 0 15.7" fill="#fffA7"/><path d="M202 42.4a7.8 7.8 0 1 1 0-15.7 7.8 7.8 0 0 1 0 15.7" fill="#c2e1ffA7"/><path d="M145.9-373.9a7.9 7.9 0 1 1 0-15.8 7.9 7.9 0 0 1 0 15.8" fill="#c2e1ffA9"/><path d="M321.9-118.3a8 8 0 1 1 0-15.9 8 8 0 0 1 0 15.9" fill="#fff500AA"/><path d="M204.6 46.6a8 8 0 1 1 0-16 8 8 0 0 1 0 16" fill="#fffAB"/><path d="M-12.6-351.2a8 8 0 1 1 0-16.1 8 8 0 0 1 0 16.1" fill="#fff500AB"/><path d="M65.1-378.5a8 8 0 1 1 0-16.1 8 8 0 0 1 0 16.1" fill="#c2e1ffAB"/><path d="M180-367.3a8.1 8.1 0 1 1 0-16.1 8.1 8.1 0 0 1 0 16.1" fill="#005bbbAC"/><path d="M-124.1-195.3a8.1 8.1 0 1 1 0-16.1 8.1 8.1 0 0 1 0 16.1" fill="#005bbbAC"/><path d="M303.7-50.7a8.1 8.1 0 1 1 0-16.3 8.1 8.1 0 0 1 0 16.3" fill="#005bbbAD"/><path d="M136.8 71.9a8.1 8.1 0 1 1 0-16.3 8.1 8.1 0 0 1 0 16.3" fill="#005bbbAE"/><path d="M298.4-38.6a8.2 8.2 0 1 1 0-16.4 8.2 8.2 0 0 1 0 16.4" fill="#c2e1ffAE"/><path d="M46 69.1a8.2 8.2 0 1 1 0-16.3 8.2 8.2 0 0 1 0 16.3" fill="#fffAE"/><path d="M305.8-260.2a8.3 8.3 0 1 1 0-16.6 8.3 8.3 0 0 1 0 16.6" fill="#fffB1"/><path d="M325.9-101.2a8.3 8.3 0 1 1 0-16.6 8.3 8.3 0 0 1 0 16.6" fill="#005bbbB1"/><path d="M39.9 70.2a8.3 8.3 0 1 1 0-16.7 8.3 8.3 0 0 1 0 16.7" fill="#005bbbB2"/><path d="M37.7-378a8.3 8.3 0 1 1 0-16.6 8.3 8.3 0 0 1 0 16.6" fill="#fff500B2"/><path d="M-108.8-256.3a8.3 8.3 0 1 1 0-16.6 8.3 8.3 0 0 1 0 16.6" fill="#fff500B2"/><path d="M-91.2-20.3a8.4 8.4 0 1 1 0-16.8 8.4 8.4 0 0 1 0 16.8" fill="#c2e1ffB3"/><path d="M-130.9-190.3a8.4 8.4 0 1 1 0-16.8 8.4 8.4 0 0 1 0 16.8" fill="#fffB4"/><path d="M302.8-37.3a8.5 8.5 0 1 1 0-16.9 8.5 8.5 0 0 1 0 16.9" fill="#c2e1ffB5"/><path d="M125.2-387.2a8.5 8.5 0 1 1 0-17 8.5 8.5 0 0 1 0 17" fill="#c2e1ffB6"/><path d="M239.5-343.3a8.6 8.6 0 1 1 0-17.2 8.6 8.6 0 0 1 0 17.2" fill="#fff500B7"/><path d="M-86.8-10.8a8.6 8.6 0 1 1 0-17.2 8.6 8.6 0 0 1 0 17.2" fill="#005bbbB8"/><path d="M183.8 66a8.6 8.6 0 1 1 0-17.2 8.6 8.6 0 0 1 0 17.2" fill="#005bbbB8"/><path d="M-98.9-279.8a8.6 8.6 0 1 1 0-17.2 8.6 8.6 0 0 1 0 17.2" fill="#005bbbB8"/><path d="M-82.7-302.5a8.6 8.6 0 1 1 0-17.2 8.6 8.6 0 0 1 0 17.2" fill="#c2e1ffB8"/><path d="M58.3-385.9a8.7 8.7 0 1 1 0-17.3 8.7 8.7 0 0 1 0 17.3" fill="#fff500B9"/><path d="M193.4 63.3a8.8 8.8 0 1 1 0-17.6 8.8 8.8 0 0 1 0 17.6" fill="#fff500BD"/><path d="M-63.4-324.1a8.9 8.9 0 1 1 0-17.8 8.9 8.9 0 0 1 0 17.8" fill="#c2e1ffBF"/><path d="M65.7-387.1a9 9 0 1 1 0-17.9 9 9 0 0 1 0 17.9" fill="#005bbbC0"/><path d="M-131.4-107.5a9 9 0 1 1 0-18 9 9 0 0 1 0 18" fill="#005bbbC1"/><path d="M134.4-386.7a9 9 0 1 1 0-18.1 9 9 0 0 1 0 18.1" fill="#c2e1ffC2"/><path d="M303.8-36.6a9.2 9.2 0 1 1 0-18.3 9.2 9.2 0 0 1 0 18.3" fill="#fff500C4"/><path d="M333.6-153.2a9.3 9.3 0 1 1 0-18.6 9.3 9.3 0 0 1 0 18.6" fill="#fffC7"/><path d="M77.1 79.1a9.3 9.3 0 1 1 0-18.7 9.3 9.3 0 0 1 0 18.7" fill="#fff500C8"/><path d="M226.8-346.7a9.5 9.5 0 1 1 0-18.9 9.5 9.5 0 0 1 0 18.9" fill="#c2e1ffCB"/><path d="M295.7-276.4a9.5 9.5 0 1 1 0-18.9 9.5 9.5 0 0 1 0 18.9" fill="#c2e1ffCB"/><path d="M166.8 68.4a9.5 9.5 0 1 1 0-18.9 9.5 9.5 0 0 1 0 18.9" fill="#c2e1ffCB"/><path d="M304.9-257.1a9.5 9.5 0 1 1 0-19.1 9.5 9.5 0 0 1 0 19.1" fill="#005bbbCC"/><path d="M326.8-190.8a9.5 9.5 0 1 1 0-19.1 9.5 9.5 0 0 1 0 19.1" fill="#c2e1ffCC"/><path d="M209.7 48.6a9.6 9.6 0 1 1 0-19.1 9.6 9.6 0 0 1 0 19.1" fill="#fffCD"/><path d="M-67.5 3.7a9.6 9.6 0 1 1 0-19.1 9.6 9.6 0 0 1 0 19.1" fill="#005bbbCD"/><path d="M248.1-325.8a9.6 9.6 0 1 1 0-19.3 9.6 9.6 0 0 1 0 19.3" fill="#fffCF"/><path d="M221.6 39.4a9.7 9.7 0 1 1 0-19.3 9.7 9.7 0 0 1 0 19.3" fill="#fff500CF"/><path d="M289.8-28.4a9.7 9.7 0 1 1 0-19.4 9.7 9.7 0 0 1 0 19.4" fill="#005bbbD0"/><path d="M311.5-74a9.7 9.7 0 1 1 0-19.5 9.7 9.7 0 0 1 0 19.5" fill="#005bbbD1"/><path d="M-65.5 0.4a9.7 9.7 0 1 1 0-19.4 9.7 9.7 0 0 1 0 19.4" fill="#fff500D1"/><path d="M62.7-374.6a9.8 9.8 0 1 1 0-19.5 9.8 9.8 0 0 1 0 19.5" fill="#fff500D1"/><path d="M-29.3 30.2a9.8 9.8 0 1 1 0-19.6 9.8 9.8 0 0 1 0 19.6" fill="#005bbbD2"/><path d="M322.4-129.8a9.8 9.8 0 1 1 0-19.6 9.8 9.8 0 0 1 0 19.6" fill="#fffD3"/><path d="M-111.1-224.6a9.8 9.8 0 1 1 0-19.7 9.8 9.8 0 0 1 0 19.7" fill="#005bbbD3"/><path d="M-122.8-147.1a9.8 9.8 0 1 1 0-19.7 9.8 9.8 0 0 1 0 19.7" fill="#c2e1ffD3"/><path d="M320.9-137.8a9.9 9.9 0 1 1 0-19.8 9.9 9.9 0 0 1 0 19.8" fill="#fff500D4"/><path d="M-36.7-326.7a9.9 9.9 0 1 1 0-19.7 9.9 9.9 0 0 1 0 19.7" fill="#005bbbD4"/><path d="M309.4-212a10 10 0 1 1 0-20 10 10 0 0 1 0 20" fill="#c2e1ffD7"/><path d="M-104.2-85.2a10.1 10.1 0 1 1 0-20.2 10.1 10.1 0 0 1 0 20.2" fill="#005bbbD8"/><path d="M280.7-36.6a10.1 10.1 0 1 1 0-20.2 10.1 10.1 0 0 1 0 20.2" fill="#fffD9"/><path d="M-111.7-173.2a10.1 10.1 0 1 1 0-20.3 10.1 10.1 0 0 1 0 20.3" fill="#fff500DA"/><path d="M274.9-32.1a10.2 10.2 0 1 1 0-20.3 10.2 10.2 0 0 1 0 20.3" fill="#fff500DA"/><path d="M46.4-355.2a10.2 10.2 0 1 1 0-20.4 10.2 10.2 0 0 1 0 20.4" fill="#c2e1ffDB"/><path d="M196.9 33.1a10.2 10.2 0 1 1 0-20.4 10.2 10.2 0 0 1 0 20.4" fill="#fffDC"/><path d="M290.4-238a10.2 10.2 0 1 1 0-20.5 10.2 10.2 0 0 1 0 20.5" fill="#fffDC"/><path d="M236.8 5.1a10.2 10.2 0 1 1 0-20.5 10.2 10.2 0 0 1 0 20.5" fill="#c2e1ffDC"/><path d="M-93.8-84.2a10.3 10.3 0 1 1 0-20.6 10.3 10.3 0 0 1 0 20.6" fill="#fff500DE"/><path d="M301.8-184.7a10.3 10.3 0 1 1 0-20.7 10.3 10.3 0 0 1 0 20.7" fill="#fffDE"/><path d="M-25.4-310.5a10.4 10.4 0 1 1 0-20.8 10.4 10.4 0 0 1 0 20.8" fill="#c2e1ffDF"/><path d="M240-297.2a10.4 10.4 0 1 1 0-20.8 10.4 10.4 0 0 1 0 20.8" fill="#005bbbDF"/><path d="M171.5-339.4a10.4 10.4 0 1 1 0-20.8 10.4 10.4 0 0 1 0 20.8" fill="#c2e1ffE0"/><path d="M233-3a10.4 10.4 0 1 1 0-20.9 10.4 10.4 0 0 1 0 20.9" fill="#c2e1ffE0"/><path d="M299.3-145.4a10.4 10.4 0 1 1 0-20.9 10.4 10.4 0 0 1 0 20.9" fill="#005bbbE0"/><path d="M1.8 21.1a10.5 10.5 0 1 1 0-20.9 10.5 10.5 0 0 1 0 20.9" fill="#005bbbE1"/><path d="M289.9-182.4a10.6 10.6 0 1 1 0-21.1 10.6 10.6 0 0 1 0 21.1" fill="#fff500E3"/><path d="M289.4-121.7a10.6 10.6 0 1 1 0-21.2 10.6 10.6 0 0 1 0 21.2" fill="#fff500E3"/><path d="M118.1-338.8a10.7 10.7 0 1 1 0-21.3 10.7 10.7 0 0 1 0 21.3" fill="#fffE5"/><path d="M-42-273.6a10.7 10.7 0 1 1 0-21.4 10.7 10.7 0 0 1 0 21.4" fill="#fffE5"/><path d="M-66.5-235.6a10.7 10.7 0 1 1 0-21.4 10.7 10.7 0 0 1 0 21.4" fill="#c2e1ffE5"/><path d="M-82.9-179.4a10.7 10.7 0 1 1 0-21.4 10.7 10.7 0 0 1 0 21.4" fill="#fffE6"/><path d="M164.8 19.9a10.7 10.7 0 1 1 0-21.4 10.7 10.7 0 0 1 0 21.4" fill="#c2e1ffE6"/><path d="M102.1 29.4a10.8 10.8 0 1 1 0-21.5 10.8 10.8 0 0 1 0 21.5" fill="#c2e1ffE7"/><path d="M-7.2-291.1a10.8 10.8 0 1 1 0-21.7 10.8 10.8 0 0 1 0 21.7" fill="#005bbbE9"/><path d="M207.6-13.4a10.8 10.8 0 1 1 0-21.7 10.8 10.8 0 0 1 0 21.7" fill="#fff500E9"/><path d="M95.5 23.3a10.8 10.8 0 1 1 0-21.6 10.8 10.8 0 0 1 0 21.6" fill="#c2e1ffE9"/><path d="M269.7-116.5a10.9 10.9 0 1 1 0-21.8 10.9 10.9 0 0 1 0 21.8" fill="#fff500EA"/><path d="M85.5-320.6a10.9 10.9 0 1 1 0-21.8 10.9 10.9 0 0 1 0 21.8" fill="#c2e1ffEB"/><path d="M167.4 0.4a11 11 0 1 1 0-21.9 11 11 0 0 1 0 21.9" fill="#005bbbEC"/><path d="M-11.1-28.7a11 11 0 1 1 0-21.9 11 11 0 0 1 0 21.9" fill="#fff500EC"/><path d="M154.5-306.9a11 11 0 1 1 0-22 11 11 0 0 1 0 22" fill="#c2e1ffEC"/><path d="M221-262.2a11 11 0 1 1 0-22 11 11 0 0 1 0 22" fill="#fffEC"/><path d="M56.3-2.4a11.1 11.1 0 1 1 0-22.2 11.1 11.1 0 0 1 0 22.2" fill="#fff500EE"/><path d="M119.8 2.1a11.1 11.1 0 1 1 0-22.2 11.1 11.1 0 0 1 0 22.2" fill="#fffEF"/><path d="M-36.1-80.8a11.1 11.1 0 1 1 0-22.2 11.1 11.1 0 0 1 0 22.2" fill="#fff500EF"/><path d="M-45.7-197.9a11.1 11.1 0 1 1 0-22.2 11.1 11.1 0 0 1 0 22.2" fill="#c2e1ffEF"/><path d="M172.4-18a11.1 11.1 0 1 1 0-22.3 11.1 11.1 0 0 1 0 22.3" fill="#005bbbEF"/><path d="M-49.1-172a11.1 11.1 0 1 1 0-22.2 11.1 11.1 0 0 1 0 22.2" fill="#005bbbF0"/><path d="M75.6-3.7a11.1 11.1 0 1 1 0-22.3 11.1 11.1 0 0 1 0 22.3" fill="#c2e1ffF0"/><path d="M236.3-121a11.2 11.2 0 1 1 0-22.5 11.2 11.2 0 0 1 0 22.5" fill="#fffF2"/><path d="M66-25.5a11.3 11.3 0 1 1 0-22.7 11.3 11.3 0 0 1 0 22.7" fill="#005bbbF4"/><path d="M62.4-275.8a11.3 11.3 0 1 1 0-22.6 11.3 11.3 0 0 1 0 22.6" fill="#fff500F4"/><path d="M228.6-162.3a11.3 11.3 0 1 1 0-22.6 11.3 11.3 0 0 1 0 22.6" fill="#005bbbF4"/><path d="M184.8-247a11.3 11.3 0 1 1 0-22.7 11.3 11.3 0 0 1 0 22.7" fill="#fff500F4"/><path d="M152.8-55.1a11.5 11.5 0 1 1 0-22.9 11.5 11.5 0 0 1 0 22.9" fill="#c2e1ffF7"/><path d="M32.3-65.1a11.5 11.5 0 1 1 0-22.9 11.5 11.5 0 0 1 0 22.9" fill="#fffF7"/><path d="M67.8-252.3a11.5 11.5 0 1 1 0-23 11.5 11.5 0 0 1 0 23" fill="#fffF8"/><path d="M140.3-242.3a11.5 11.5 0 1 1 0-23.1 11.5 11.5 0 0 1 0 23.1" fill="#fffF8"/><path d="M150.5-67.3a11.5 11.5 0 1 1 0-23.1 11.5 11.5 0 0 1 0 23.1" fill="#005bbbF9"/><path d="M171-212.6a11.6 11.6 0 1 1 0-23.1 11.6 11.6 0 0 1 0 23.1" fill="#c2e1ffF9"/><path d="M64.5-65.5a11.6 11.6 0 1 1 0-23.1 11.6 11.6 0 0 1 0 23.1" fill="#fffF9"/><path d="M114.8-240.1a11.6 11.6 0 1 1 0-23.2 11.6 11.6 0 0 1 0 23.2" fill="#fffFA"/><path d="M40.2-110.4a11.7 11.7 0 1 1 0-23.4 11.7 11.7 0 0 1 0 23.4" fill="#005bbbFB"/><path d="M138.8-210.4a11.7 11.7 0 1 1 0-23.4 11.7 11.7 0 0 1 0 23.4" fill="#fff500FB"/><path d="M66.2-103.6a11.7 11.7 0 1 1 0-23.4 11.7 11.7 0 0 1 0 23.4" fill="#c2e1ffFD"/><path d="M154.7-140.5a11.7 11.7 0 1 1 0-23.5 11.7 11.7 0 0 1 0 23.5" fill="#c2e1ffFD"/><path d="M57.9-119.5a11.7 11.7 0 1 1 0-23.5 11.7 11.7 0 0 1 0 23.5" fill="#c2e1ffFD"/><path d="M69-165.7a11.8 11.8 0 1 1 0-23.6 11.8 11.8 0 0 1 0 23.6" fill="#fff500FE"/><path d="M77-134.8a11.8 11.8 0 1 1 0-23.6 11.8 11.8 0 0 1 0 23.6" fill="#005bbbFE"/></g></svg>