<svg width="1200" height="675" viewBox="-500 -500 1200 675" xmlns="http://www.w3.org/2000/svg"><path d="M-500-500h1200v675h-1200z" fill="#000"/><style>.sparkles path{stroke-linecap:round; stroke-width:1}</style><g class="sparkles"><path d="M100-162.5l56-10" stroke="#fff33"/><path d="M100-162.5l-72.3 6.6" stroke="#005bbb34"/><path d="M100-162.5l54.3 48.9" stroke="#005bbb34"/><path d="M100-162.5l18.7 74.9" stroke="#fff50034"/><path d="M100-162.5l-77.4-7.4" stroke="#c2e1ff34"/><path d="M100-162.5l77.7 13.8" stroke="#c2e1ff34"/><path d="M100-162.5l80.7 8.4" stroke="#fff50035"/><path d="M100-162.5l84.6-16" stroke="#fff35"/><path d="M100-162.5l-97.6-9.2" stroke="#c2e1ff36"/><path d="M100-162.5l26.4-101.2" stroke="#005bbb37"/><path d="M100-162.5l-80.9-75.7" stroke="#005bbb37"/><path d="M100-162.5l-98.8 57.6" stroke="#c2e1ff38"/><path d="M100-162.5l131.6 8.4" stroke="#c2e1ff3A"/><path d="M100-162.5l19.7 134.9" stroke="#005bbb3B"/><path d="M100-162.5l84.8-107.8" stroke="#005bbb3B"/><path d="M100-162.5l28.3 134.3" stroke="#005bbb3B"/><path d="M100-162.5l37.2 146.2" stroke="#fff3D"/><path d="M100-162.5l-138.5-79.1" stroke="#c2e1ff3F"/><path d="M100-162.5l-127.5 96" stroke="#fff5003F"/><path d="M100-162.5l30.8 160.7" stroke="#c2e1ff3F"/><path d="M100-162.5l146 77.3" stroke="#c2e1ff40"/><path d="M100-162.5l97.8-139.1" stroke="#c2e1ff41"/><path d="M100-162.5l-37.5-166.3" stroke="#c2e1ff41"/><path d="M100-162.5l162.9 52.9" stroke="#c2e1ff41"/><path d="M100-162.5l55.1 162.9" stroke="#fff50041"/><path d="M100-162.5l172.9 5.4" stroke="#005bbb41"/><path d="M100-162.5l131.8 113.8" stroke="#005bbb42"/><path d="M100-162.5l99.9-162.1" stroke="#c2e1ff46"/><path d="M100-162.5l-20.9-189.6" stroke="#c2e1ff46"/><path d="M100-162.5l179.5 68.9" stroke="#c2e1ff46"/><path d="M100-162.5l-180.5-78.1" stroke="#c2e1ff48"/><path d="M100-162.5l200 19.5" stroke="#fff49"/><path d="M100-162.5l83.9 184.4" stroke="#fff5004A"/><path d="M100-162.5l176.9-100.5" stroke="#c2e1ff4A"/><path d="M100-162.5l97.3-179.7" stroke="#fff5004A"/><path d="M100-162.5l167.6-118.6" stroke="#005bbb4B"/><path d="M100-162.5l200.9 42.5" stroke="#c2e1ff4B"/><path d="M100-162.5l-187.9-89" stroke="#005bbb4C"/><path d="M100-162.5l-170.4-121.2" stroke="#c2e1ff4C"/><path d="M100-162.5l25.6-207.7" stroke="#fff5004C"/><path d="M100-162.5l-163.8 130.4" stroke="#fff4C"/><path d="M100-162.5l-81.7 193.3" stroke="#fff4D"/><path d="M100-162.5l92.2-189.6" stroke="#fff5004D"/><path d="M100-162.5l173.9 120" stroke="#c2e1ff4D"/><path d="M100-162.5l-162.6-135.7" stroke="#005bbb4D"/><path d="M100-162.5l-153-146.7" stroke="#fff4D"/><path d="M100-162.5l59.8-203.9" stroke="#c2e1ff4E"/><path d="M100-162.5l176 119.3" stroke="#c2e1ff4E"/><path d="M100-162.5l197.7 80.5" stroke="#c2e1ff4E"/><path d="M100-162.5l-202.4 71.9" stroke="#c2e1ff4F"/><path d="M100-162.5l-136.6 167.6" stroke="#fff5004F"/><path d="M100-162.5l212.3 42.9" stroke="#c2e1ff50"/><path d="M100-162.5l176.4-131.7" stroke="#fff50051"/><path d="M100-162.5l158.9 152.4" stroke="#005bbb51"/><path d="M100-162.5l114-189" stroke="#005bbb52"/><path d="M100-162.5l-16.7-221.4" stroke="#c2e1ff52"/><path d="M100-162.5l-30.2 221.1" stroke="#c2e1ff53"/><path d="M100-162.5l-65.1 214.4" stroke="#005bbb54"/><path d="M100-162.5l-26.8 222.6" stroke="#fff50054"/><path d="M100-162.5l-26 222.8" stroke="#005bbb54"/><path d="M100-162.5l-177.7-137.9" stroke="#fff54"/><path d="M100-162.5l2.8-226.2" stroke="#005bbb55"/><path d="M100-162.5l-192.6 120" stroke="#fff56"/><path d="M100-162.5l-214.1-75.7" stroke="#c2e1ff56"/><path d="M100-162.5l-13.7 226.8" stroke="#fff50056"/><path d="M100-162.5l146 176.7" stroke="#fff57"/><path d="M100-162.5l-173.1 150.4" stroke="#fff50057"/><path d="M100-162.5l218.1-76.2" stroke="#005bbb59"/><path d="M100-162.5l232.7 19.7" stroke="#c2e1ff5C"/><path d="M100-162.5l-67.8 223.7" stroke="#fff5C"/><path d="M100-162.5l-216.9-88.4" stroke="#fff5005D"/><path d="M100-162.5l-215.8-91.1" stroke="#fff5005D"/><path d="M100-162.5l235 0" stroke="#005bbb5E"/><path d="M100-162.5l37.8 232" stroke="#fff5F"/><path d="M100-162.5l94 215.7" stroke="#005bbb5F"/><path d="M100-162.5l205.8 114.2" stroke="#c2e1ff5F"/><path d="M100-162.5l-226.9 63.1" stroke="#005bbb60"/><path d="M100-162.5l-19.2 234.9" stroke="#fff60"/><path d="M100-162.5l235.4-12" stroke="#fff60"/><path d="M100-162.5l155.5 177.3" stroke="#c2e1ff61"/><path d="M100-162.5l-97.3-214.9" stroke="#fff61"/><path d="M100-162.5l235.7 13.3" stroke="#c2e1ff62"/><path d="M100-162.5l107.5 210.3" stroke="#fff63"/><path d="M100-162.5l201 124" stroke="#fff63"/><path d="M100-162.5l-137.4-192.2" stroke="#fff64"/><path d="M100-162.5l236.2-2.5" stroke="#fff65"/><path d="M100-162.5l34.3 233.7" stroke="#c2e1ff65"/><path d="M100-162.5l-152.4-180.4" stroke="#fff50065"/><path d="M100-162.5l-16.1 235.5" stroke="#fff50066"/><path d="M100-162.5l-138.9-190.6" stroke="#fff66"/><path d="M100-162.5l232.9-37.6" stroke="#fff66"/><path d="M100-162.5l135.3-193.1" stroke="#fff50067"/><path d="M100-162.5l-27.3 234.1" stroke="#005bbb67"/><path d="M100-162.5l232.8-36.4" stroke="#005bbb67"/><path d="M100-162.5l114.1 206.2" stroke="#fff50067"/><path d="M100-162.5l165.4-167.8" stroke="#fff50067"/><path d="M100-162.5l73.1 223.8" stroke="#c2e1ff68"/><path d="M100-162.5l-122.7-200.4" stroke="#fff50069"/><path d="M100-162.5l-175.6-154.5" stroke="#c2e1ff6B"/><path d="M100-162.5l-109.9 206.3" stroke="#c2e1ff6B"/><path d="M100-162.5l141 186.1" stroke="#c2e1ff6B"/><path d="M100-162.5l209.6 102.7" stroke="#005bbb6B"/><path d="M100-162.5l208 105.2" stroke="#fff6C"/><path d="M100-162.5l216.7-85.6" stroke="#005bbb6C"/><path d="M100-162.5l231.5-24.5" stroke="#c2e1ff6C"/><path d="M100-162.5l-174 153.9" stroke="#c2e1ff6D"/><path d="M100-162.5l153.7 173.5" stroke="#005bbb6D"/><path d="M100-162.5l52.8-224.4" stroke="#fff6E"/><path d="M100-162.5l-10 228.3" stroke="#fff70"/><path d="M100-162.5l-227.3 2.2" stroke="#005bbb71"/><path d="M100-162.5l118.8-193" stroke="#fff50072"/><path d="M100-162.5l214.3 66.9" stroke="#fff73"/><path d="M100-162.5l51.9 218.4" stroke="#fff73"/><path d="M100-162.5l163.9 152.8" stroke="#c2e1ff73"/><path d="M100-162.5l207.6-81.8" stroke="#fff74"/><path d="M100-162.5l-184.5 124.8" stroke="#005bbb74"/><path d="M100-162.5l-47.7 216" stroke="#005bbb75"/><path d="M100-162.5l-130.4-177.1" stroke="#c2e1ff76"/><path d="M100-162.5l-109.9 190.4" stroke="#fff50076"/><path d="M100-162.5l-128.5 176.7" stroke="#005bbb77"/><path d="M100-162.5l-200.9-84.6" stroke="#fff50077"/><path d="M100-162.5l-171-130.3" stroke="#fff50078"/><path d="M100-162.5l49.4 209.2" stroke="#c2e1ff78"/><path d="M100-162.5l74.5-198.3" stroke="#fff5007A"/><path d="M100-162.5l158.2 136.4" stroke="#c2e1ff7B"/><path d="M100-162.5l119.5-170" stroke="#c2e1ff7B"/><path d="M100-162.5l-24.1 202.9" stroke="#005bbb7D"/><path d="M100-162.5l5 203.6" stroke="#fff5007D"/><path d="M100-162.5l135.3 151.3" stroke="#005bbb7D"/><path d="M100-162.5l199.6-4.9" stroke="#c2e1ff7E"/><path d="M100-162.5l-119.8-158.8" stroke="#fff7E"/><path d="M100-162.5l43.9-192.7" stroke="#c2e1ff7F"/><path d="M100-162.5l-143.4 133.2" stroke="#fff50080"/><path d="M100-162.5l181.5-54.8" stroke="#005bbb81"/><path d="M100-162.5l-124.7 142.8" stroke="#c2e1ff81"/><path d="M100-162.5l51-181.5" stroke="#c2e1ff82"/><path d="M100-162.5l-44.1-181.2" stroke="#c2e1ff82"/><path d="M100-162.5l-158-98.5" stroke="#005bbb82"/><path d="M100-162.5l-164.6 86.6" stroke="#c2e1ff82"/><path d="M100-162.5l46.9 179.4" stroke="#005bbb82"/><path d="M100-162.5l49.6-176.2" stroke="#fff50083"/><path d="M100-162.5l89.4-151.7" stroke="#fff50085"/><path d="M100-162.5l36.3 169" stroke="#fff50086"/><path d="M100-162.5l-142.6 97.5" stroke="#c2e1ff86"/><path d="M100-162.5l-145.4 90.7" stroke="#fff86"/><path d="M100-162.5l0.9-171.3" stroke="#c2e1ff86"/><path d="M100-162.5l169.8-5.8" stroke="#005bbb86"/><path d="M100-162.5l-84.3-147.2" stroke="#005bbb86"/><path d="M100-162.5l-115.7-124" stroke="#005bbb86"/><path d="M100-162.5l107.2-129.5" stroke="#fff87"/><path d="M100-162.5l88.5-141.1" stroke="#c2e1ff87"/><path d="M100-162.5l-76.7 145.9" stroke="#c2e1ff87"/><path d="M100-162.5l112.2 120" stroke="#fff50087"/><path d="M100-162.5l-152.9-58" stroke="#fff50088"/><path d="M100-162.5l-161.3-13.3" stroke="#fff50088"/><path d="M100-162.5l-157.4-11.3" stroke="#c2e1ff89"/><path d="M100-162.5l-7.6 152.9" stroke="#c2e1ff8A"/><path d="M100-162.5l-152.7 6" stroke="#005bbb8A"/><path d="M100-162.5l-20.4 148.5" stroke="#fff5008A"/><path d="M100-162.5l126.5-79.6" stroke="#fff5008A"/><path d="M100-162.5l122.4 79.5" stroke="#fff8B"/><path d="M100-162.5l140.6 32.6" stroke="#fff5008B"/><path d="M100-162.5l104-88.2" stroke="#c2e1ff8C"/><path d="M100-162.5l114-72.9" stroke="#c2e1ff8C"/><path d="M100-162.5l-80.5-98" stroke="#fff8E"/><path d="M100-162.5l24 117.9" stroke="#fff5008F"/><path d="M100-162.5l-33-103.2" stroke="#fff90"/><path d="M100-162.5l-75 69.4" stroke="#005bbb91"/><path d="M100-162.5l-49.3 88.1" stroke="#fff91"/><path d="M100-162.5l-10.2 99.9" stroke="#fff91"/><path d="M100-162.5l72.8-59.8" stroke="#fff91"/><path d="M100-162.5l-47.9 81" stroke="#fff50091"/><path d="M100-162.5l89.9-15.7" stroke="#005bbb92"/><path d="M100-162.5l-42.4 78.6" stroke="#fff92"/><path d="M100-162.5l87.4-14.8" stroke="#005bbb92"/><path d="M100-162.5l-83.5-2.8" stroke="#fff92"/><path d="M100-162.5l-44.9-46.2" stroke="#c2e1ff94"/><path d="M100-162.5l-7.8 63.8" stroke="#fff94"/><path d="M100-162.5l3.7 51.8" stroke="#fff94"/><path d="M100-162.5l46.6 19.9" stroke="#fff50094"/><path d="M100-162.5l29.4 40.9" stroke="#c2e1ff94"/></g><g class="sparcs"><path d="M156-166.5a6 6 0 1 1 0-12 6 6 0 0 1 0 12" fill="#fff7E"/><path d="M27.7-149.9a6 6 0 1 1 0-12.1 6 6 0 0 1 0 12.1" fill="#fff50080"/><path d="M154.3-107.5a6.1 6.1 0 1 1 0-12.1 6.1 6.1 0 0 1 0 12.1" fill="#fff80"/><path d="M118.7-81.6a6.1 6.1 0 1 1 0-12.1 6.1 6.1 0 0 1 0 12.1" fill="#c2e1ff80"/><path d="M22.6-163.8a6.1 6.1 0 1 1 0-12.2 6.1 6.1 0 0 1 0 12.2" fill="#fff80"/><path d="M177.7-142.7a6.1 6.1 0 1 1 0-12.1 6.1 6.1 0 0 1 0 12.1" fill="#005bbb80"/><path d="M180.7-148a6.1 6.1 0 1 1 0-12.2 6.1 6.1 0 0 1 0 12.2" fill="#005bbb80"/><path d="M184.6-172.4a6.1 6.1 0 1 1 0-12.2 6.1 6.1 0 0 1 0 12.2" fill="#005bbb81"/><path d="M2.4-165.6a6.2 6.2 0 1 1 0-12.3 6.2 6.2 0 0 1 0 12.3" fill="#fff82"/><path d="M126.4-257.4a6.2 6.2 0 1 1 0-12.5 6.2 6.2 0 0 1 0 12.5" fill="#fff50083"/><path d="M19.1-232a6.3 6.3 0 1 1 0-12.5 6.3 6.3 0 0 1 0 12.5" fill="#005bbb84"/><path d="M1.2-98.6a6.3 6.3 0 1 1 0-12.6 6.3 6.3 0 0 1 0 12.6" fill="#fff50085"/><path d="M231.6-147.7a6.4 6.4 0 1 1 0-12.8 6.4 6.4 0 0 1 0 12.8" fill="#c2e1ff88"/><path d="M119.7-21.1a6.4 6.4 0 1 1 0-12.9 6.4 6.4 0 0 1 0 12.9" fill="#fff50088"/><path d="M184.8-263.9a6.5 6.5 0 1 1 0-12.9 6.5 6.5 0 0 1 0 12.9" fill="#005bbb89"/><path d="M128.3-21.8a6.5 6.5 0 1 1 0-12.9 6.5 6.5 0 0 1 0 12.9" fill="#c2e1ff89"/><path d="M137.2-9.8a6.6 6.6 0 1 1 0-13.1 6.6 6.6 0 0 1 0 13.1" fill="#fff5008B"/><path d="M-38.5-234.9a6.7 6.7 0 1 1 0-13.4 6.7 6.7 0 0 1 0 13.4" fill="#fff5008E"/><path d="M-27.5-59.8a6.7 6.7 0 1 1 0-13.4 6.7 6.7 0 0 1 0 13.4" fill="#fff8E"/><path d="M130.8 5a6.7 6.7 0 1 1 0-13.5 6.7 6.7 0 0 1 0 13.5" fill="#fff5008F"/><path d="M246-78.4a6.7 6.7 0 1 1 0-13.5 6.7 6.7 0 0 1 0 13.5" fill="#005bbb8F"/><path d="M197.8-294.8a6.8 6.8 0 1 1 0-13.6 6.8 6.8 0 0 1 0 13.6" fill="#fff50090"/><path d="M62.5-322a6.8 6.8 0 1 1 0-13.6 6.8 6.8 0 0 1 0 13.6" fill="#c2e1ff91"/><path d="M262.9-102.8a6.8 6.8 0 1 1 0-13.6 6.8 6.8 0 0 1 0 13.6" fill="#005bbb91"/><path d="M155.1 7.2a6.8 6.8 0 1 1 0-13.6 6.8 6.8 0 0 1 0 13.6" fill="#005bbb91"/><path d="M272.9-150.2a6.8 6.8 0 1 1 0-13.7 6.8 6.8 0 0 1 0 13.7" fill="#fff50091"/><path d="M231.8-41.8a6.9 6.9 0 1 1 0-13.8 6.9 6.9 0 0 1 0 13.8" fill="#c2e1ff92"/><path d="M199.9-317.5a7.1 7.1 0 1 1 0-14.2 7.1 7.1 0 0 1 0 14.2" fill="#005bbb97"/><path d="M79.1-345a7.1 7.1 0 1 1 0-14.2 7.1 7.1 0 0 1 0 14.2" fill="#fff97"/><path d="M279.5-86.4a7.1 7.1 0 1 1 0-14.3 7.1 7.1 0 0 1 0 14.3" fill="#fff50098"/><path d="M-80.5-233.3a7.2 7.2 0 1 1 0-14.5 7.2 7.2 0 0 1 0 14.5" fill="#c2e1ff99"/><path d="M300-135.7a7.3 7.3 0 1 1 0-14.6 7.3 7.3 0 0 1 0 14.6" fill="#005bbb9B"/><path d="M183.9 29.2a7.3 7.3 0 1 1 0-14.7 7.3 7.3 0 0 1 0 14.7" fill="#fff9C"/><path d="M276.9-255.7a7.4 7.4 0 1 1 0-14.7 7.4 7.4 0 0 1 0 14.7" fill="#005bbb9C"/><path d="M197.3-334.9a7.4 7.4 0 1 1 0-14.7 7.4 7.4 0 0 1 0 14.7" fill="#c2e1ff9D"/><path d="M267.6-273.7a7.4 7.4 0 1 1 0-14.8 7.4 7.4 0 0 1 0 14.8" fill="#005bbb9D"/><path d="M300.9-112.6a7.4 7.4 0 1 1 0-14.8 7.4 7.4 0 0 1 0 14.8" fill="#005bbb9D"/><path d="M-87.9-244.1a7.5 7.5 0 1 1 0-14.9 7.5 7.5 0 0 1 0 14.9" fill="#005bbb9F"/><path d="M-70.4-276.2a7.5 7.5 0 1 1 0-15 7.5 7.5 0 0 1 0 15" fill="#005bbb9F"/><path d="M125.6-362.7a7.5 7.5 0 1 1 0-15 7.5 7.5 0 0 1 0 15" fill="#fff9F"/><path d="M-63.8-24.6a7.5 7.5 0 1 1 0-15 7.5 7.5 0 0 1 0 15" fill="#c2e1ff9F"/><path d="M18.3 38.3a7.5 7.5 0 1 1 0-15 7.5 7.5 0 0 1 0 15" fill="#c2e1ffA0"/><path d="M192.2-344.5a7.5 7.5 0 1 1 0-15.1 7.5 7.5 0 0 1 0 15.1" fill="#005bbbA0"/><path d="M273.9-35a7.5 7.5 0 1 1 0-15.1 7.5 7.5 0 0 1 0 15.1" fill="#fff500A0"/><path d="M-62.6-290.6a7.5 7.5 0 1 1 0-15.1 7.5 7.5 0 0 1 0 15.1" fill="#fffA1"/><path d="M-53-301.7a7.6 7.6 0 1 1 0-15.1 7.6 7.6 0 0 1 0 15.1" fill="#fff500A1"/><path d="M159.8-358.8a7.6 7.6 0 1 1 0-15.2 7.6 7.6 0 0 1 0 15.2" fill="#fff500A1"/><path d="M276-35.6a7.6 7.6 0 1 1 0-15.2 7.6 7.6 0 0 1 0 15.2" fill="#005bbbA1"/><path d="M297.7-74.4a7.6 7.6 0 1 1 0-15.2 7.6 7.6 0 0 1 0 15.2" fill="#005bbbA2"/><path d="M-102.4-83a7.6 7.6 0 1 1 0-15.2 7.6 7.6 0 0 1 0 15.2" fill="#fffA2"/><path d="M-36.6 12.8a7.7 7.7 0 1 1 0-15.3 7.7 7.7 0 0 1 0 15.3" fill="#fff500A3"/><path d="M312.3-111.9a7.7 7.7 0 1 1 0-15.3 7.7 7.7 0 0 1 0 15.3" fill="#005bbbA4"/><path d="M276.4-286.4a7.8 7.8 0 1 1 0-15.6 7.8 7.8 0 0 1 0 15.6" fill="#005bbbA6"/><path d="M258.9-2.3a7.8 7.8 0 1 1 0-15.6 7.8 7.8 0 0 1 0 15.6" fill="#c2e1ffA6"/><path d="M214-343.7a7.8 7.8 0 1 1 0-15.6 7.8 7.8 0 0 1 0 15.6" fill="#005bbbA6"/><path d="M83.3-376.1a7.9 7.9 0 1 1 0-15.7 7.9 7.9 0 0 1 0 15.7" fill="#fffA7"/><path d="M69.8 66.5a7.9 7.9 0 1 1 0-15.8 7.9 7.9 0 0 1 0 15.8" fill="#fff500A8"/><path d="M34.9 59.8a7.9 7.9 0 1 1 0-15.8 7.9 7.9 0 0 1 0 15.8" fill="#fff500A9"/><path d="M73.2 68a7.9 7.9 0 1 1 0-15.8 7.9 7.9 0 0 1 0 15.8" fill="#c2e1ffA9"/><path d="M74 68.2a7.9 7.9 0 1 1 0-15.9 7.9 7.9 0 0 1 0 15.9" fill="#fff500A9"/><path d="M-77.7-292.5a8 8 0 1 1 0-15.9 8 8 0 0 1 0 15.9" fill="#fffAA"/><path d="M102.8-380.7a8 8 0 1 1 0-16 8 8 0 0 1 0 16" fill="#005bbbAB"/><path d="M-92.6-34.5a8 8 0 1 1 0-16.1 8 8 0 0 1 0 16.1" fill="#c2e1ffAB"/><path d="M-114.1-230.1a8 8 0 1 1 0-16.1 8 8 0 0 1 0 16.1" fill="#fff500AC"/><path d="M86.3 72.3a8.1 8.1 0 1 1 0-16.1 8.1 8.1 0 0 1 0 16.1" fill="#c2e1ffAC"/><path d="M246 22.3a8.1 8.1 0 1 1 0-16.2 8.1 8.1 0 0 1 0 16.2" fill="#005bbbAE"/><path d="M-73.1-4a8.1 8.1 0 1 1 0-16.3 8.1 8.1 0 0 1 0 16.3" fill="#fff500AE"/><path d="M318.1-230.4a8.2 8.2 0 1 1 0-16.5 8.2 8.2 0 0 1 0 16.5" fill="#c2e1ffB0"/><path d="M332.7-134.4a8.4 8.4 0 1 1 0-16.8 8.4 8.4 0 0 1 0 16.8" fill="#c2e1ffB4"/><path d="M32.2 69.6a8.4 8.4 0 1 1 0-16.9 8.4 8.4 0 0 1 0 16.9" fill="#fffB4"/><path d="M-116.9-242.4a8.5 8.5 0 1 1 0-17 8.5 8.5 0 0 1 0 17" fill="#fff500B5"/><path d="M-115.8-245.1a8.5 8.5 0 1 1 0-17 8.5 8.5 0 0 1 0 17" fill="#fffB5"/><path d="M335-153.9a8.6 8.6 0 1 1 0-17.2 8.6 8.6 0 0 1 0 17.2" fill="#005bbbB7"/><path d="M137.8 78.1a8.6 8.6 0 1 1 0-17.1 8.6 8.6 0 0 1 0 17.1" fill="#005bbbB7"/><path d="M194 61.8a8.6 8.6 0 1 1 0-17.2 8.6 8.6 0 0 1 0 17.2" fill="#fffB8"/><path d="M305.8-39.7a8.6 8.6 0 1 1 0-17.2 8.6 8.6 0 0 1 0 17.2" fill="#fffB8"/><path d="M-126.9-90.7a8.6 8.6 0 1 1 0-17.3 8.6 8.6 0 0 1 0 17.3" fill="#fffB9"/><path d="M80.8 81.1a8.7 8.7 0 1 1 0-17.3 8.7 8.7 0 0 1 0 17.3" fill="#c2e1ffB9"/><path d="M335.4-165.8a8.7 8.7 0 1 1 0-17.3 8.7 8.7 0 0 1 0 17.3" fill="#fff500B9"/><path d="M255.5 23.5a8.7 8.7 0 1 1 0-17.4 8.7 8.7 0 0 1 0 17.4" fill="#fffBA"/><path d="M2.7-368.7a8.7 8.7 0 1 1 0-17.4 8.7 8.7 0 0 1 0 17.4" fill="#fffBA"/><path d="M335.7-140.4a8.7 8.7 0 1 1 0-17.5 8.7 8.7 0 0 1 0 17.5" fill="#c2e1ffBB"/><path d="M207.5 56.6a8.8 8.8 0 1 1 0-17.6 8.8 8.8 0 0 1 0 17.6" fill="#fffBC"/><path d="M301-29.6a8.8 8.8 0 1 1 0-17.7 8.8 8.8 0 0 1 0 17.7" fill="#fffBD"/><path d="M-37.4-345.8a8.9 8.9 0 1 1 0-17.8 8.9 8.9 0 0 1 0 17.8" fill="#fffBE"/><path d="M336.2-156.1a8.9 8.9 0 1 1 0-17.8 8.9 8.9 0 0 1 0 17.8" fill="#c2e1ffBF"/><path d="M134.3 80.1a8.9 8.9 0 1 1 0-17.8 8.9 8.9 0 0 1 0 17.8" fill="#fff500BF"/><path d="M-52.4-333.9a9 9 0 1 1 0-17.9 9 9 0 0 1 0 17.9" fill="#005bbbC0"/><path d="M83.9 82a9 9 0 1 1 0-18 9 9 0 0 1 0 18" fill="#fffC0"/><path d="M-38.9-344.1a9 9 0 1 1 0-18.1 9 9 0 0 1 0 18.1" fill="#c2e1ffC1"/><path d="M332.9-191a9 9 0 1 1 0-18.1 9 9 0 0 1 0 18.1" fill="#c2e1ffC1"/><path d="M235.3-346.5a9 9 0 1 1 0-18.1 9 9 0 0 1 0 18.1" fill="#c2e1ffC2"/><path d="M72.7 80.7a9.1 9.1 0 1 1 0-18.1 9.1 9.1 0 0 1 0 18.1" fill="#c2e1ffC2"/><path d="M332.8-189.8a9.1 9.1 0 1 1 0-18.1 9.1 9.1 0 0 1 0 18.1" fill="#005bbbC2"/><path d="M214.1 52.7a9.1 9.1 0 1 1 0-18.1 9.1 9.1 0 0 1 0 18.1" fill="#fff500C2"/><path d="M265.4-321.2a9.1 9.1 0 1 1 0-18.2 9.1 9.1 0 0 1 0 18.2" fill="#fff500C2"/><path d="M173.1 70.4a9.1 9.1 0 1 1 0-18.1 9.1 9.1 0 0 1 0 18.1" fill="#005bbbC3"/><path d="M-22.7-353.7a9.2 9.2 0 1 1 0-18.4 9.2 9.2 0 0 1 0 18.4" fill="#fff500C4"/><path d="M-75.6-307.7a9.3 9.3 0 1 1 0-18.6 9.3 9.3 0 0 1 0 18.6" fill="#005bbbC7"/><path d="M-9.9 53.1a9.3 9.3 0 1 1 0-18.6 9.3 9.3 0 0 1 0 18.6" fill="#fffC7"/><path d="M241 33a9.3 9.3 0 1 1 0-18.7 9.3 9.3 0 0 1 0 18.7" fill="#005bbbC7"/><path d="M309.6-50.4a9.3 9.3 0 1 1 0-18.7 9.3 9.3 0 0 1 0 18.7" fill="#c2e1ffC8"/><path d="M308-48a9.3 9.3 0 1 1 0-18.7 9.3 9.3 0 0 1 0 18.7" fill="#c2e1ffC8"/><path d="M316.7-238.7a9.4 9.4 0 1 1 0-18.7 9.4 9.4 0 0 1 0 18.7" fill="#c2e1ffC8"/><path d="M331.5-177.7a9.4 9.4 0 1 1 0-18.7 9.4 9.4 0 0 1 0 18.7" fill="#fff500C9"/><path d="M-74 0.8a9.4 9.4 0 1 1 0-18.8 9.4 9.4 0 0 1 0 18.8" fill="#fff500C9"/><path d="M253.7 20.4a9.4 9.4 0 1 1 0-18.8 9.4 9.4 0 0 1 0 18.8" fill="#fffCA"/><path d="M152.8-377.4a9.5 9.5 0 1 1 0-19 9.5 9.5 0 0 1 0 19" fill="#fffCC"/><path d="M90 75.4a9.6 9.6 0 1 1 0-19.2 9.6 9.6 0 0 1 0 19.2" fill="#fff500CE"/><path d="M-127.3-150.6a9.7 9.7 0 1 1 0-19.4 9.7 9.7 0 0 1 0 19.4" fill="#fff500CF"/><path d="M218.8-345.8a9.7 9.7 0 1 1 0-19.4 9.7 9.7 0 0 1 0 19.4" fill="#005bbbD0"/><path d="M314.3-85.8a9.8 9.8 0 1 1 0-19.5 9.8 9.8 0 0 1 0 19.5" fill="#005bbbD2"/><path d="M151.9 65.7a9.8 9.8 0 1 1 0-19.6 9.8 9.8 0 0 1 0 19.6" fill="#c2e1ffD2"/><path d="M263.9 0.1a9.8 9.8 0 1 1 0-19.6 9.8 9.8 0 0 1 0 19.6" fill="#005bbbD2"/><path d="M307.6-234.5a9.8 9.8 0 1 1 0-19.7 9.8 9.8 0 0 1 0 19.7" fill="#fff500D3"/><path d="M-84.5-27.9a9.8 9.8 0 1 1 0-19.7 9.8 9.8 0 0 1 0 19.7" fill="#fffD3"/><path d="M52.3 63.4a9.9 9.9 0 1 1 0-19.8 9.9 9.9 0 0 1 0 19.8" fill="#005bbbD4"/><path d="M-30.4-329.7a9.9 9.9 0 1 1 0-19.9 9.9 9.9 0 0 1 0 19.9" fill="#fff500D5"/><path d="M-9.9 37.8a9.9 9.9 0 1 1 0-19.9 9.9 9.9 0 0 1 0 19.9" fill="#fffD5"/><path d="M-28.5 24.2a10 10 0 1 1 0-20 10 10 0 0 1 0 20" fill="#fff500D6"/><path d="M-100.9-237.1a10 10 0 1 1 0-20 10 10 0 0 1 0 20" fill="#c2e1ffD7"/><path d="M-71-282.7a10.1 10.1 0 1 1 0-20.2 10.1 10.1 0 0 1 0 20.2" fill="#fff500D8"/><path d="M149.4 56.8a10.1 10.1 0 1 1 0-20.2 10.1 10.1 0 0 1 0 20.2" fill="#c2e1ffD8"/><path d="M174.5-350.7a10.2 10.2 0 1 1 0-20.3 10.2 10.2 0 0 1 0 20.3" fill="#fffDA"/><path d="M258.2-15.9a10.2 10.2 0 1 1 0-20.4 10.2 10.2 0 0 1 0 20.4" fill="#c2e1ffDC"/><path d="M219.5-322.2a10.3 10.3 0 1 1 0-20.6 10.3 10.3 0 0 1 0 20.6" fill="#005bbbDC"/><path d="M75.9 50.7a10.3 10.3 0 1 1 0-20.6 10.3 10.3 0 0 1 0 20.6" fill="#fffDE"/><path d="M105 51.4a10.4 10.4 0 1 1 0-20.7 10.4 10.4 0 0 1 0 20.7" fill="#fff500DE"/><path d="M235.3-0.8a10.4 10.4 0 1 1 0-20.8 10.4 10.4 0 0 1 0 20.8" fill="#005bbbDF"/><path d="M299.6-157a10.4 10.4 0 1 1 0-20.9 10.4 10.4 0 0 1 0 20.9" fill="#fffE0"/><path d="M-19.8-310.9a10.5 10.5 0 1 1 0-20.9 10.5 10.5 0 0 1 0 20.9" fill="#005bbbE1"/><path d="M143.9-344.7a10.5 10.5 0 1 1 0-20.9 10.5 10.5 0 0 1 0 20.9" fill="#c2e1ffE1"/><path d="M-43.4-18.8a10.5 10.5 0 1 1 0-21 10.5 10.5 0 0 1 0 21" fill="#005bbbE2"/><path d="M281.5-206.7a10.6 10.6 0 1 1 0-21.2 10.6 10.6 0 0 1 0 21.2" fill="#fff500E4"/><path d="M-24.7-9.1a10.6 10.6 0 1 1 0-21.2 10.6 10.6 0 0 1 0 21.2" fill="#005bbbE4"/><path d="M151-333.4a10.6 10.6 0 1 1 0-21.2 10.6 10.6 0 0 1 0 21.2" fill="#005bbbE5"/><path d="M55.9-333.1a10.7 10.7 0 1 1 0-21.3 10.7 10.7 0 0 1 0 21.3" fill="#c2e1ffE5"/><path d="M-58-250.3a10.7 10.7 0 1 1 0-21.4 10.7 10.7 0 0 1 0 21.4" fill="#005bbbE5"/><path d="M-64.6-65.2a10.7 10.7 0 1 1 0-21.4 10.7 10.7 0 0 1 0 21.4" fill="#fff500E6"/><path d="M146.9 27.6a10.7 10.7 0 1 1 0-21.4 10.7 10.7 0 0 1 0 21.4" fill="#fff500E6"/><path d="M149.6-328a10.7 10.7 0 1 1 0-21.4 10.7 10.7 0 0 1 0 21.4" fill="#fffE7"/><path d="M189.4-303.4a10.8 10.8 0 1 1 0-21.6 10.8 10.8 0 0 1 0 21.6" fill="#005bbbE9"/><path d="M136.3 17.4a10.9 10.9 0 1 1 0-21.8 10.9 10.9 0 0 1 0 21.8" fill="#fff500EA"/><path d="M-42.6-54.2a10.9 10.9 0 1 1 0-21.7 10.9 10.9 0 0 1 0 21.7" fill="#005bbbEA"/><path d="M-45.4-60.9a10.9 10.9 0 1 1 0-21.8 10.9 10.9 0 0 1 0 21.8" fill="#fff500EA"/><path d="M100.9-322.9a10.9 10.9 0 1 1 0-21.8 10.9 10.9 0 0 1 0 21.8" fill="#c2e1ffEA"/><path d="M269.8-157.4a10.9 10.9 0 1 1 0-21.8 10.9 10.9 0 0 1 0 21.8" fill="#fffEB"/><path d="M15.7-298.8a10.9 10.9 0 1 1 0-21.8 10.9 10.9 0 0 1 0 21.8" fill="#fff500EB"/><path d="M-15.7-275.6a10.9 10.9 0 1 1 0-21.8 10.9 10.9 0 0 1 0 21.8" fill="#fff500EB"/><path d="M207.2-281.1a10.9 10.9 0 1 1 0-21.9 10.9 10.9 0 0 1 0 21.9" fill="#005bbbEB"/><path d="M188.5-292.6a11 11 0 1 1 0-21.9 11 11 0 0 1 0 21.9" fill="#fff500EC"/><path d="M23.3-5.7a11 11 0 1 1 0-21.9 11 11 0 0 1 0 21.9" fill="#c2e1ffEC"/><path d="M212.2-31.6a11 11 0 1 1 0-21.9 11 11 0 0 1 0 21.9" fill="#005bbbEC"/><path d="M-52.9-209.5a11 11 0 1 1 0-22 11 11 0 0 1 0 22" fill="#fff500EC"/><path d="M-61.3-164.8a11 11 0 1 1 0-22 11 11 0 0 1 0 22" fill="#fffED"/><path d="M-57.4-162.7a11.1 11.1 0 1 1 0-22.1 11.1 11.1 0 0 1 0 22.1" fill="#fffEE"/><path d="M92.4 1.5a11.1 11.1 0 1 1 0-22.3 11.1 11.1 0 0 1 0 22.3" fill="#fffEF"/><path d="M-52.7-145.4a11.1 11.1 0 1 1 0-22.2 11.1 11.1 0 0 1 0 22.2" fill="#fff500EF"/><path d="M79.6-2.9a11.1 11.1 0 1 1 0-22.2 11.1 11.1 0 0 1 0 22.2" fill="#fffF0"/><path d="M226.5-231a11.1 11.1 0 1 1 0-22.3 11.1 11.1 0 0 1 0 22.3" fill="#005bbbF0"/><path d="M222.4-71.8a11.2 11.2 0 1 1 0-22.4 11.2 11.2 0 0 1 0 22.4" fill="#005bbbF1"/><path d="M240.6-118.7a11.2 11.2 0 1 1 0-22.4 11.2 11.2 0 0 1 0 22.4" fill="#fff500F1"/><path d="M204-239.4a11.3 11.3 0 1 1 0-22.5 11.3 11.3 0 0 1 0 22.5" fill="#005bbbF3"/><path d="M214-224.1a11.3 11.3 0 1 1 0-22.5 11.3 11.3 0 0 1 0 22.5" fill="#005bbbF3"/><path d="M19.5-249.1a11.4 11.4 0 1 1 0-22.7 11.4 11.4 0 0 1 0 22.7" fill="#005bbbF4"/><path d="M124-33.2a11.4 11.4 0 1 1 0-22.8 11.4 11.4 0 0 1 0 22.8" fill="#fff500F5"/><path d="M67-254.2a11.5 11.5 0 1 1 0-23 11.5 11.5 0 0 1 0 23" fill="#005bbbF7"/><path d="M25-81.6a11.5 11.5 0 1 1 0-23 11.5 11.5 0 0 1 0 23" fill="#fff500F8"/><path d="M50.7-62.9a11.5 11.5 0 1 1 0-23.1 11.5 11.5 0 0 1 0 23.1" fill="#fffF8"/><path d="M89.8-51a11.5 11.5 0 1 1 0-23.1 11.5 11.5 0 0 1 0 23.1" fill="#005bbbF8"/><path d="M172.8-210.7a11.6 11.6 0 1 1 0-23.1 11.6 11.6 0 0 1 0 23.1" fill="#c2e1ffF9"/><path d="M52.1-69.9a11.6 11.6 0 1 1 0-23.1 11.6 11.6 0 0 1 0 23.1" fill="#fffF9"/><path d="M189.9-166.6a11.6 11.6 0 1 1 0-23.1 11.6 11.6 0 0 1 0 23.1" fill="#c2e1ffF9"/><path d="M57.6-72.3a11.6 11.6 0 1 1 0-23.2 11.6 11.6 0 0 1 0 23.2" fill="#c2e1ffFA"/><path d="M187.4-165.7a11.6 11.6 0 1 1 0-23.2 11.6 11.6 0 0 1 0 23.2" fill="#005bbbFA"/><path d="M16.5-153.6a11.6 11.6 0 1 1 0-23.3 11.6 11.6 0 0 1 0 23.3" fill="#fff500FA"/><path d="M55.1-197a11.7 11.7 0 1 1 0-23.4 11.7 11.7 0 0 1 0 23.4" fill="#fffFC"/><path d="M92.2-87a11.7 11.7 0 1 1 0-23.4 11.7 11.7 0 0 1 0 23.4" fill="#fff500FC"/><path d="M103.7-99a11.7 11.7 0 1 1 0-23.5 11.7 11.7 0 0 1 0 23.5" fill="#c2e1ffFD"/><path d="M146.6-130.9a11.7 11.7 0 1 1 0-23.5 11.7 11.7 0 0 1 0 23.5" fill="#fffFD"/><path d="M129.4-109.8a11.7 11.7 0 1 1 0-23.5 11.7 11.7 0 0 1 0 23.5" fill="#fffFD"/></g></svg>