<svg width="1200" height="675" viewBox="-500 -500 1200 675" xmlns="http://www.w3.org/2000/svg"><path d="M-500-500h1200v675h-1200z" fill="#000"/><style>.sparkles path{stroke-linecap:round; stroke-width:1}</style><g class="sparkles"><path d="M100-162.5l26.3 3.3" stroke="#fff32"/><path d="M100-162.5l-22.4 30.8" stroke="#005bbb32"/><path d="M100-162.5l-9.6 37.3" stroke="#fff50032"/><path d="M100-162.5l34.5-28.2" stroke="#c2e1ff32"/><path d="M100-162.5l-58.5 4.8" stroke="#fff50033"/><path d="M100-162.5l63.1 23.2" stroke="#fff34"/><path d="M100-162.5l-11.6-76.5" stroke="#fff50034"/><path d="M100-162.5l-86.1-47.5" stroke="#c2e1ff36"/><path d="M100-162.5l-108-37.7" stroke="#fff38"/><path d="M100-162.5l-16.4-120.4" stroke="#fff50039"/><path d="M100-162.5l16.7 120.5" stroke="#005bbb39"/><path d="M100-162.5l-102.1 68.6" stroke="#c2e1ff39"/><path d="M100-162.5l123.7 23" stroke="#fff39"/><path d="M100-162.5l21.3-125.2" stroke="#fff50039"/><path d="M100-162.5l-36.6-127.2" stroke="#c2e1ff3A"/><path d="M100-162.5l3 134" stroke="#005bbb3A"/><path d="M100-162.5l-145.1-16.9" stroke="#fff3C"/><path d="M100-162.5l49.8 138.5" stroke="#fff5003C"/><path d="M100-162.5l150.4 39.4" stroke="#005bbb3E"/><path d="M100-162.5l138.5 74.4" stroke="#fff3E"/><path d="M100-162.5l-118.9-105.4" stroke="#c2e1ff3F"/><path d="M100-162.5l-18.1-160.1" stroke="#fff5003F"/><path d="M100-162.5l-44 156.3" stroke="#fff3F"/><path d="M100-162.5l-162.8 38.6" stroke="#fff50040"/><path d="M100-162.5l170.3 8.8" stroke="#c2e1ff41"/><path d="M100-162.5l48-165.4" stroke="#c2e1ff41"/><path d="M100-162.5l145.7 100.5" stroke="#fff42"/><path d="M100-162.5l-172.6-52.5" stroke="#005bbb43"/><path d="M100-162.5l-174.5 46.9" stroke="#fff43"/><path d="M100-162.5l188.8 0" stroke="#fff50045"/><path d="M100-162.5l44.4-185.1" stroke="#fff46"/><path d="M100-162.5l-123.1 151.5" stroke="#005bbb47"/><path d="M100-162.5l26.3-197" stroke="#fff48"/><path d="M100-162.5l-172.6-104.5" stroke="#fff50049"/><path d="M100-162.5l-196.8 45" stroke="#fff5004A"/><path d="M100-162.5l-176.9-97.5" stroke="#c2e1ff4A"/><path d="M100-162.5l65.3-192.9" stroke="#005bbb4A"/><path d="M100-162.5l134.4 154.8" stroke="#fff5004B"/><path d="M100-162.5l10 207.4" stroke="#c2e1ff4C"/><path d="M100-162.5l-51.4-205.1" stroke="#fff4D"/><path d="M100-162.5l-186.9 104.7" stroke="#fff4E"/><path d="M100-162.5l173.2 126.5" stroke="#005bbb4F"/><path d="M100-162.5l-114.8-181.1" stroke="#005bbb4F"/><path d="M100-162.5l-190.5-99.9" stroke="#fff5004F"/><path d="M100-162.5l74.4 202.1" stroke="#fff4F"/><path d="M100-162.5l26.1 214" stroke="#c2e1ff4F"/><path d="M100-162.5l-83-200.4" stroke="#fff50050"/><path d="M100-162.5l-211.8 50.2" stroke="#c2e1ff50"/><path d="M100-162.5l-0.7 218.9" stroke="#c2e1ff51"/><path d="M100-162.5l-208.2 73.7" stroke="#c2e1ff52"/><path d="M100-162.5l-185.4 120.3" stroke="#fff50052"/><path d="M100-162.5l155.9 158.5" stroke="#c2e1ff53"/><path d="M100-162.5l-213.5 64.5" stroke="#c2e1ff53"/><path d="M100-162.5l-133.3-179.4" stroke="#c2e1ff53"/><path d="M100-162.5l102.5-199.6" stroke="#fff54"/><path d="M100-162.5l-76 211.3" stroke="#fff50054"/><path d="M100-162.5l197.6-107.8" stroke="#c2e1ff54"/><path d="M100-162.5l-52.2-220.1" stroke="#005bbb55"/><path d="M100-162.5l-204.7 96.7" stroke="#fff50055"/><path d="M100-162.5l-175.8-144" stroke="#fff50056"/><path d="M100-162.5l-158-164.8" stroke="#fff50057"/><path d="M100-162.5l156.5 166.5" stroke="#c2e1ff57"/><path d="M100-162.5l201.4 109.3" stroke="#c2e1ff57"/><path d="M100-162.5l220.3 69.5" stroke="#fff59"/><path d="M100-162.5l-146 179.3" stroke="#fff59"/><path d="M100-162.5l53.4-225" stroke="#fff50059"/><path d="M100-162.5l140.5-184.6" stroke="#c2e1ff5A"/><path d="M100-162.5l-164.8-163.5" stroke="#c2e1ff5A"/><path d="M100-162.5l119.2-199.9" stroke="#fff5B"/><path d="M100-162.5l152.4 176.2" stroke="#fff5B"/><path d="M100-162.5l-116.7 201.7" stroke="#fff5B"/><path d="M100-162.5l-229.2-42.3" stroke="#fff5B"/><path d="M100-162.5l157.5 172.5" stroke="#c2e1ff5C"/><path d="M100-162.5l-56.7-226.9" stroke="#fff5005C"/><path d="M100-162.5l22.8-232.8" stroke="#fff5D"/><path d="M100-162.5l-179.6-150" stroke="#fff5D"/><path d="M100-162.5l233.2-21.6" stroke="#c2e1ff5D"/><path d="M100-162.5l0.7-234.2" stroke="#c2e1ff5D"/><path d="M100-162.5l-180.2-150" stroke="#fff5005D"/><path d="M100-162.5l116.5 204" stroke="#005bbb5E"/><path d="M100-162.5l132.1 194.5" stroke="#fff5005F"/><path d="M100-162.5l-212.9-100.3" stroke="#fff5F"/><path d="M100-162.5l229.8 51.3" stroke="#fff5F"/><path d="M100-162.5l-72.2-224.2" stroke="#fff5F"/><path d="M100-162.5l196.9 129.9" stroke="#005bbb61"/><path d="M100-162.5l-235.8-9.8" stroke="#c2e1ff61"/><path d="M100-162.5l-171-162.9" stroke="#005bbb62"/><path d="M100-162.5l52.5 230.3" stroke="#005bbb62"/><path d="M100-162.5l-90.9-218" stroke="#fff50063"/><path d="M100-162.5l-234.6 28.2" stroke="#fff63"/><path d="M100-162.5l8.4-236.1" stroke="#005bbb64"/><path d="M100-162.5l-231 49.2" stroke="#005bbb64"/><path d="M100-162.5l-132.8-195.3" stroke="#005bbb65"/><path d="M100-162.5l206.5-114.2" stroke="#c2e1ff66"/><path d="M100-162.5l171.6-161.9" stroke="#005bbb66"/><path d="M100-162.5l167.3 166.4" stroke="#fff66"/><path d="M100-162.5l201.9-121.9" stroke="#fff66"/><path d="M100-162.5l-69.4-224.8" stroke="#fff68"/><path d="M100-162.5l-86-218.8" stroke="#005bbb68"/><path d="M100-162.5l-52.3 228.2" stroke="#c2e1ff6A"/><path d="M100-162.5l208.8-105.8" stroke="#fff6A"/><path d="M100-162.5l217.8 84.9" stroke="#fff5006B"/><path d="M100-162.5l233.1 16.2" stroke="#005bbb6B"/><path d="M100-162.5l-178.1-151.2" stroke="#fff5006B"/><path d="M100-162.5l-11.2 232.8" stroke="#fff6C"/><path d="M100-162.5l87.3-215.6" stroke="#fff5006C"/><path d="M100-162.5l-205.8 108" stroke="#005bbb6C"/><path d="M100-162.5l178.1 149.2" stroke="#fff6D"/><path d="M100-162.5l76.1 218.8" stroke="#c2e1ff6D"/><path d="M100-162.5l-226.5-48.3" stroke="#fff5006D"/><path d="M100-162.5l-116.8-197.9" stroke="#fff5006F"/><path d="M100-162.5l144.8 178" stroke="#005bbb6F"/><path d="M100-162.5l-69.2 217.9" stroke="#fff50070"/><path d="M100-162.5l-115.3-196.7" stroke="#fff50071"/><path d="M100-162.5l-44.6-222.8" stroke="#fff50071"/><path d="M100-162.5l-178.3-140.1" stroke="#005bbb72"/><path d="M100-162.5l-97.4-203.8" stroke="#c2e1ff72"/><path d="M100-162.5l-82.9 209.4" stroke="#fff73"/><path d="M100-162.5l-217.1 57.6" stroke="#005bbb73"/><path d="M100-162.5l-210-76.1" stroke="#c2e1ff74"/><path d="M100-162.5l-187.2-119.3" stroke="#fff50075"/><path d="M100-162.5l-19.5 220.7" stroke="#fff75"/><path d="M100-162.5l-197.1 91.3" stroke="#005bbb77"/><path d="M100-162.5l209.9 51.7" stroke="#fff50078"/><path d="M100-162.5l-6.4 216" stroke="#fff50078"/><path d="M100-162.5l-124.8 172.5" stroke="#fff79"/><path d="M100-162.5l3.3 210.5" stroke="#fff7A"/><path d="M100-162.5l186.3-89.6" stroke="#fff5007C"/><path d="M100-162.5l-182.2 94.3" stroke="#005bbb7C"/><path d="M100-162.5l196.3-58.8" stroke="#005bbb7C"/><path d="M100-162.5l46.5-190.7" stroke="#fff7F"/><path d="M100-162.5l-46.6 190.1" stroke="#c2e1ff7F"/><path d="M100-162.5l-72-182" stroke="#fff50080"/><path d="M100-162.5l187.8-39.7" stroke="#c2e1ff81"/><path d="M100-162.5l-169 89.3" stroke="#fff50081"/><path d="M100-162.5l39 186.9" stroke="#c2e1ff81"/><path d="M100-162.5l107.2 151.5" stroke="#c2e1ff82"/><path d="M100-162.5l-121.1 139.1" stroke="#005bbb83"/><path d="M100-162.5l183.1-4.8" stroke="#fff50083"/><path d="M100-162.5l-127-129.4" stroke="#005bbb84"/><path d="M100-162.5l120.8 132.7" stroke="#fff84"/><path d="M100-162.5l136.7 107.1" stroke="#fff85"/><path d="M100-162.5l113.6-130.5" stroke="#fff86"/><path d="M100-162.5l146-87.8" stroke="#fff50086"/><path d="M100-162.5l167.8 21.7" stroke="#fff86"/><path d="M100-162.5l148.8 78.6" stroke="#c2e1ff87"/><path d="M100-162.5l15.6 160.8" stroke="#fff50088"/><path d="M100-162.5l-105.9-116.9" stroke="#005bbb89"/><path d="M100-162.5l22.4 154.9" stroke="#005bbb89"/><path d="M100-162.5l120.9-91.8" stroke="#005bbb8A"/><path d="M100-162.5l-14.7-149" stroke="#005bbb8A"/><path d="M100-162.5l92.5 117" stroke="#c2e1ff8A"/><path d="M100-162.5l-49.1 139.5" stroke="#005bbb8A"/><path d="M100-162.5l-114.5-86.7" stroke="#005bbb8B"/><path d="M100-162.5l94.7-106.6" stroke="#005bbb8B"/><path d="M100-162.5l10.8 140.7" stroke="#fff5008C"/><path d="M100-162.5l-5.7-140.7" stroke="#fff5008C"/><path d="M100-162.5l-96.9 99.2" stroke="#fff8C"/><path d="M100-162.5l4.8 132.3" stroke="#fff8D"/><path d="M100-162.5l-3.7-124.9" stroke="#005bbb8E"/><path d="M100-162.5l121.4-27.2" stroke="#005bbb8E"/><path d="M100-162.5l119 33.3" stroke="#fff8E"/><path d="M100-162.5l-48.4 113.4" stroke="#005bbb8E"/><path d="M100-162.5l-101.8 67.1" stroke="#fff8E"/><path d="M100-162.5l1.8-120" stroke="#fff8F"/><path d="M100-162.5l116.9 21.6" stroke="#005bbb8F"/><path d="M100-162.5l-71.7 93.9" stroke="#c2e1ff8F"/><path d="M100-162.5l20.5-112.4" stroke="#fff8F"/><path d="M100-162.5l104.3-15.4" stroke="#005bbb90"/><path d="M100-162.5l52.4-89.8" stroke="#c2e1ff90"/><path d="M100-162.5l-89.5-44.8" stroke="#c2e1ff91"/><path d="M100-162.5l38.5 92" stroke="#fff91"/><path d="M100-162.5l83.2-54.7" stroke="#c2e1ff91"/><path d="M100-162.5l87.3 12.8" stroke="#fff50092"/><path d="M100-162.5l-48.8 65.6" stroke="#005bbb92"/><path d="M100-162.5l65.6-25" stroke="#c2e1ff93"/><path d="M100-162.5l33.4 58" stroke="#fff50093"/><path d="M100-162.5l12.5 47.7" stroke="#fff50094"/><path d="M100-162.5l48.3 10.1" stroke="#c2e1ff94"/><path d="M100-162.5l11.8 34" stroke="#005bbb95"/><path d="M100-162.5l-17.4 6" stroke="#fff50095"/></g><g class="sparcs"><path d="M126.3-153.3a5.9 5.9 0 1 1 0-11.8 5.9 5.9 0 0 1 0 11.8" fill="#fff5007D"/><path d="M77.6-125.8a5.9 5.9 0 1 1 0-11.9 5.9 5.9 0 0 1 0 11.9" fill="#fff7D"/><path d="M90.4-119.3a5.9 5.9 0 1 1 0-11.9 5.9 5.9 0 0 1 0 11.9" fill="#005bbb7D"/><path d="M134.5-184.8a6 6 0 1 1 0-11.9 6 6 0 0 1 0 11.9" fill="#c2e1ff7E"/><path d="M41.5-151.7a6 6 0 1 1 0-12 6 6 0 0 1 0 12" fill="#fff5007F"/><path d="M163.1-133.3a6 6 0 1 1 0-12.1 6 6 0 0 1 0 12.1" fill="#005bbb7F"/><path d="M88.4-233a6.1 6.1 0 1 1 0-12.1 6.1 6.1 0 0 1 0 12.1" fill="#fff50080"/><path d="M13.9-203.8a6.2 6.2 0 1 1 0-12.4 6.2 6.2 0 0 1 0 12.4" fill="#005bbb82"/><path d="M-8-193.9a6.3 6.3 0 1 1 0-12.6 6.3 6.3 0 0 1 0 12.6" fill="#fff50085"/><path d="M83.6-276.6a6.3 6.3 0 1 1 0-12.6 6.3 6.3 0 0 1 0 12.6" fill="#fff50086"/><path d="M116.7-35.7a6.3 6.3 0 1 1 0-12.7 6.3 6.3 0 0 1 0 12.7" fill="#fff50086"/><path d="M-2.1-87.6a6.3 6.3 0 1 1 0-12.7 6.3 6.3 0 0 1 0 12.7" fill="#fff50086"/><path d="M223.7-133.2a6.4 6.4 0 1 1 0-12.7 6.4 6.4 0 0 1 0 12.7" fill="#fff50086"/><path d="M121.3-281.4a6.4 6.4 0 1 1 0-12.7 6.4 6.4 0 0 1 0 12.7" fill="#fff87"/><path d="M63.4-283.3a6.4 6.4 0 1 1 0-12.8 6.4 6.4 0 0 1 0 12.8" fill="#fff88"/><path d="M103-22.1a6.4 6.4 0 1 1 0-12.8 6.4 6.4 0 0 1 0 12.8" fill="#c2e1ff88"/><path d="M-45.1-172.8a6.5 6.5 0 1 1 0-13.1 6.5 6.5 0 0 1 0 13.1" fill="#c2e1ff8A"/><path d="M149.8-17.4a6.5 6.5 0 1 1 0-13.1 6.5 6.5 0 0 1 0 13.1" fill="#fff5008B"/><path d="M250.4-116.5a6.6 6.6 0 1 1 0-13.3 6.6 6.6 0 0 1 0 13.3" fill="#fff8D"/><path d="M238.5-81.5a6.7 6.7 0 1 1 0-13.3 6.7 6.7 0 0 1 0 13.3" fill="#c2e1ff8D"/><path d="M-18.9-261.3a6.7 6.7 0 1 1 0-13.3 6.7 6.7 0 0 1 0 13.3" fill="#005bbb8D"/><path d="M81.9-315.9a6.7 6.7 0 1 1 0-13.4 6.7 6.7 0 0 1 0 13.4" fill="#fff5008E"/><path d="M56 0.6a6.7 6.7 0 1 1 0-13.5 6.7 6.7 0 0 1 0 13.5" fill="#fff5008E"/><path d="M-62.8-117.1a6.8 6.8 0 1 1 0-13.6 6.8 6.8 0 0 1 0 13.6" fill="#fff50090"/><path d="M270.3-146.9a6.8 6.8 0 1 1 0-13.6 6.8 6.8 0 0 1 0 13.6" fill="#c2e1ff91"/><path d="M148-321.1a6.8 6.8 0 1 1 0-13.7 6.8 6.8 0 0 1 0 13.7" fill="#fff50091"/><path d="M245.7-55.1a6.9 6.9 0 1 1 0-13.8 6.9 6.9 0 0 1 0 13.8" fill="#005bbb92"/><path d="M-72.6-208.1a7 7 0 1 1 0-13.9 7 7 0 0 1 0 13.9" fill="#c2e1ff94"/><path d="M-74.5-108.6a7 7 0 1 1 0-13.9 7 7 0 0 1 0 13.9" fill="#fff94"/><path d="M288.8-155.4a7.1 7.1 0 1 1 0-14.2 7.1 7.1 0 0 1 0 14.2" fill="#fff50096"/><path d="M144.4-340.4a7.1 7.1 0 1 1 0-14.3 7.1 7.1 0 0 1 0 14.3" fill="#005bbb97"/><path d="M-23.1-3.8a7.2 7.2 0 1 1 0-14.4 7.2 7.2 0 0 1 0 14.4" fill="#c2e1ff99"/><path d="M126.3-352.2a7.3 7.3 0 1 1 0-14.6 7.3 7.3 0 0 1 0 14.6" fill="#005bbb9A"/><path d="M-72.6-259.7a7.3 7.3 0 1 1 0-14.7 7.3 7.3 0 0 1 0 14.7" fill="#fff5009C"/><path d="M-96.8-110.2a7.3 7.3 0 1 1 0-14.6 7.3 7.3 0 0 1 0 14.6" fill="#005bbb9C"/><path d="M-76.9-252.6a7.3 7.3 0 1 1 0-14.7 7.3 7.3 0 0 1 0 14.7" fill="#fff9C"/><path d="M165.3-348a7.4 7.4 0 1 1 0-14.8 7.4 7.4 0 0 1 0 14.8" fill="#005bbb9D"/><path d="M234.4-0.3a7.4 7.4 0 1 1 0-14.8 7.4 7.4 0 0 1 0 14.8" fill="#fff9D"/><path d="M110 52.4a7.5 7.5 0 1 1 0-14.9 7.5 7.5 0 0 1 0 14.9" fill="#fff9F"/><path d="M48.6-360a7.5 7.5 0 1 1 0-15.1 7.5 7.5 0 0 1 0 15.1" fill="#c2e1ffA0"/><path d="M-86.9-50.2a7.6 7.6 0 1 1 0-15.2 7.6 7.6 0 0 1 0 15.2" fill="#fff500A2"/><path d="M273.2-28.4a7.6 7.6 0 1 1 0-15.3 7.6 7.6 0 0 1 0 15.3" fill="#fffA2"/><path d="M-14.8-336a7.6 7.6 0 1 1 0-15.3 7.6 7.6 0 0 1 0 15.3" fill="#fffA2"/><path d="M-90.5-254.7a7.6 7.6 0 1 1 0-15.3 7.6 7.6 0 0 1 0 15.3" fill="#c2e1ffA3"/><path d="M174.4 47.3a7.6 7.6 0 1 1 0-15.3 7.6 7.6 0 0 1 0 15.3" fill="#005bbbA3"/><path d="M126.1 59.1a7.7 7.7 0 1 1 0-15.3 7.7 7.7 0 0 1 0 15.3" fill="#c2e1ffA3"/><path d="M17-355.2a7.7 7.7 0 1 1 0-15.3 7.7 7.7 0 0 1 0 15.3" fill="#c2e1ffA4"/><path d="M-111.8-104.6a7.7 7.7 0 1 1 0-15.4 7.7 7.7 0 0 1 0 15.4" fill="#005bbbA4"/><path d="M99.3 64.1a7.7 7.7 0 1 1 0-15.5 7.7 7.7 0 0 1 0 15.5" fill="#c2e1ffA5"/><path d="M-108.2-81a7.8 7.8 0 1 1 0-15.6 7.8 7.8 0 0 1 0 15.6" fill="#005bbbA6"/><path d="M-85.4-34.3a7.8 7.8 0 1 1 0-15.7 7.8 7.8 0 0 1 0 15.7" fill="#005bbbA7"/><path d="M255.9 3.9a7.9 7.9 0 1 1 0-15.7 7.9 7.9 0 0 1 0 15.7" fill="#fff500A8"/><path d="M-113.5-90.1a7.9 7.9 0 1 1 0-15.8 7.9 7.9 0 0 1 0 15.8" fill="#fff500A8"/><path d="M-33.3-334a7.9 7.9 0 1 1 0-15.9 7.9 7.9 0 0 1 0 15.9" fill="#fff500A8"/><path d="M202.5-354.2a7.9 7.9 0 1 1 0-15.8 7.9 7.9 0 0 1 0 15.8" fill="#c2e1ffA9"/><path d="M24 56.7a7.9 7.9 0 1 1 0-15.9 7.9 7.9 0 0 1 0 15.9" fill="#fffA9"/><path d="M297.6-262.4a8 8 0 1 1 0-15.9 8 8 0 0 1 0 15.9" fill="#fff500AA"/><path d="M47.8-374.6a8 8 0 1 1 0-16 8 8 0 0 1 0 16" fill="#c2e1ffAB"/><path d="M-104.7-57.8a8 8 0 1 1 0-16 8 8 0 0 1 0 16" fill="#c2e1ffAB"/><path d="M-75.8-298.5a8.1 8.1 0 1 1 0-16.1 8.1 8.1 0 0 1 0 16.1" fill="#fffAC"/><path d="M-58-319.2a8.1 8.1 0 1 1 0-16.2 8.1 8.1 0 0 1 0 16.2" fill="#fffAD"/><path d="M256.5 12.1a8.1 8.1 0 1 1 0-16.3 8.1 8.1 0 0 1 0 16.3" fill="#fffAD"/><path d="M301.4-45a8.1 8.1 0 1 1 0-16.3 8.1 8.1 0 0 1 0 16.3" fill="#005bbbAE"/><path d="M320.3-84.7a8.2 8.2 0 1 1 0-16.5 8.2 8.2 0 0 1 0 16.5" fill="#fffB0"/><path d="M-46 25.1a8.3 8.3 0 1 1 0-16.5 8.3 8.3 0 0 1 0 16.5" fill="#fff500B0"/><path d="M153.4-379.3a8.3 8.3 0 1 1 0-16.5 8.3 8.3 0 0 1 0 16.5" fill="#005bbbB0"/><path d="M240.5-338.8a8.3 8.3 0 1 1 0-16.6 8.3 8.3 0 0 1 0 16.6" fill="#c2e1ffB1"/><path d="M-64.8-317.7a8.3 8.3 0 1 1 0-16.6 8.3 8.3 0 0 1 0 16.6" fill="#fffB1"/><path d="M219.2-354a8.4 8.4 0 1 1 0-16.7 8.4 8.4 0 0 1 0 16.7" fill="#005bbbB2"/><path d="M252.4 22.1a8.4 8.4 0 1 1 0-16.8 8.4 8.4 0 0 1 0 16.8" fill="#005bbbB3"/><path d="M-16.7 47.6a8.4 8.4 0 1 1 0-16.8 8.4 8.4 0 0 1 0 16.8" fill="#fff500B3"/><path d="M-129.2-196.4a8.4 8.4 0 1 1 0-16.7 8.4 8.4 0 0 1 0 16.7" fill="#c2e1ffB3"/><path d="M257.5 18.4a8.4 8.4 0 1 1 0-16.8 8.4 8.4 0 0 1 0 16.8" fill="#005bbbB4"/><path d="M43.3-380.9a8.4 8.4 0 1 1 0-16.9 8.4 8.4 0 0 1 0 16.9" fill="#005bbbB4"/><path d="M122.8-386.9a8.4 8.4 0 1 1 0-16.9 8.4 8.4 0 0 1 0 16.9" fill="#005bbbB4"/><path d="M-79.6-304.1a8.5 8.5 0 1 1 0-16.9 8.5 8.5 0 0 1 0 16.9" fill="#fffB5"/><path d="M333.2-175.6a8.5 8.5 0 1 1 0-16.9 8.5 8.5 0 0 1 0 16.9" fill="#fffB5"/><path d="M100.7-388.3a8.5 8.5 0 1 1 0-16.9 8.5 8.5 0 0 1 0 16.9" fill="#fffB5"/><path d="M-80.2-304a8.5 8.5 0 1 1 0-17 8.5 8.5 0 0 1 0 17" fill="#005bbbB6"/><path d="M216.5 50.1a8.6 8.6 0 1 1 0-17.1 8.6 8.6 0 0 1 0 17.1" fill="#fff500B7"/><path d="M232.1 40.6a8.6 8.6 0 1 1 0-17.1 8.6 8.6 0 0 1 0 17.1" fill="#005bbbB7"/><path d="M-112.9-254.2a8.6 8.6 0 1 1 0-17.2 8.6 8.6 0 0 1 0 17.2" fill="#005bbbB8"/><path d="M329.8-102.6a8.6 8.6 0 1 1 0-17.2 8.6 8.6 0 0 1 0 17.2" fill="#fffB8"/><path d="M27.8-378a8.6 8.6 0 1 1 0-17.3 8.6 8.6 0 0 1 0 17.3" fill="#c2e1ffB8"/><path d="M296.9-24a8.7 8.7 0 1 1 0-17.3 8.7 8.7 0 0 1 0 17.3" fill="#005bbbBA"/><path d="M-135.8-163.6a8.7 8.7 0 1 1 0-17.4 8.7 8.7 0 0 1 0 17.4" fill="#fff500BB"/><path d="M-71-316.6a8.8 8.8 0 1 1 0-17.5 8.8 8.8 0 0 1 0 17.5" fill="#005bbbBC"/><path d="M152.5 76.6a8.8 8.8 0 1 1 0-17.6 8.8 8.8 0 0 1 0 17.6" fill="#c2e1ffBC"/><path d="M9.1-371.7a8.8 8.8 0 1 1 0-17.7 8.8 8.8 0 0 1 0 17.7" fill="#c2e1ffBD"/><path d="M-134.6-125.4a8.9 8.9 0 1 1 0-17.7 8.9 8.9 0 0 1 0 17.7" fill="#c2e1ffBD"/><path d="M108.4-389.7a8.9 8.9 0 1 1 0-17.8 8.9 8.9 0 0 1 0 17.8" fill="#fffBE"/><path d="M-131-104.4a8.9 8.9 0 1 1 0-17.8 8.9 8.9 0 0 1 0 17.8" fill="#c2e1ffBE"/><path d="M-32.8-348.9a8.9 8.9 0 1 1 0-17.9 8.9 8.9 0 0 1 0 17.9" fill="#c2e1ffBF"/><path d="M306.5-267.7a9 9 0 1 1 0-18 9 9 0 0 1 0 18" fill="#fff500C1"/><path d="M271.6-315.4a9 9 0 1 1 0-18.1 9 9 0 0 1 0 18.1" fill="#fffC1"/><path d="M267.3 12.9a9 9 0 1 1 0-18 9 9 0 0 1 0 18" fill="#005bbbC1"/><path d="M301.9-275.4a9 9 0 1 1 0-18.1 9 9 0 0 1 0 18.1" fill="#c2e1ffC1"/><path d="M30.6-378.2a9.1 9.1 0 1 1 0-18.2 9.1 9.1 0 0 1 0 18.2" fill="#fff500C3"/><path d="M14-372.2a9.1 9.1 0 1 1 0-18.3 9.1 9.1 0 0 1 0 18.3" fill="#005bbbC4"/><path d="M47.7 75a9.3 9.3 0 1 1 0-18.5 9.3 9.3 0 0 1 0 18.5" fill="#fffC6"/><path d="M308.8-259a9.3 9.3 0 1 1 0-18.5 9.3 9.3 0 0 1 0 18.5" fill="#005bbbC6"/><path d="M317.8-68.3a9.3 9.3 0 1 1 0-18.6 9.3 9.3 0 0 1 0 18.6" fill="#c2e1ffC7"/><path d="M333.1-137a9.3 9.3 0 1 1 0-18.6 9.3 9.3 0 0 1 0 18.6" fill="#c2e1ffC7"/><path d="M-78.1-304.5a9.3 9.3 0 1 1 0-18.5 9.3 9.3 0 0 1 0 18.5" fill="#005bbbC7"/><path d="M88.8 79.6a9.3 9.3 0 1 1 0-18.7 9.3 9.3 0 0 1 0 18.7" fill="#fffC8"/><path d="M187.3-368.7a9.4 9.4 0 1 1 0-18.7 9.4 9.4 0 0 1 0 18.7" fill="#fff500C9"/><path d="M-105.8-45.1a9.4 9.4 0 1 1 0-18.8 9.4 9.4 0 0 1 0 18.8" fill="#005bbbC9"/><path d="M278.1-3.9a9.4 9.4 0 1 1 0-18.8 9.4 9.4 0 0 1 0 18.8" fill="#005bbbC9"/><path d="M176.1 65.7a9.4 9.4 0 1 1 0-18.8 9.4 9.4 0 0 1 0 18.8" fill="#fff500CA"/><path d="M-126.5-201.4a9.4 9.4 0 1 1 0-18.9 9.4 9.4 0 0 1 0 18.9" fill="#c2e1ffCA"/><path d="M-16.8-350.9a9.5 9.5 0 1 1 0-19.1 9.5 9.5 0 0 1 0 19.1" fill="#fffCD"/><path d="M244.8 25.1a9.6 9.6 0 1 1 0-19.2 9.6 9.6 0 0 1 0 19.2" fill="#fffCD"/><path d="M30.8 65a9.6 9.6 0 1 1 0-19.2 9.6 9.6 0 0 1 0 19.2" fill="#fff500CE"/><path d="M-15.3-349.6a9.6 9.6 0 1 1 0-19.3 9.6 9.6 0 0 1 0 19.3" fill="#c2e1ffCF"/><path d="M55.4-375.6a9.7 9.7 0 1 1 0-19.4 9.7 9.7 0 0 1 0 19.4" fill="#005bbbCF"/><path d="M-78.3-292.9a9.7 9.7 0 1 1 0-19.4 9.7 9.7 0 0 1 0 19.4" fill="#005bbbD0"/><path d="M2.6-356.6a9.7 9.7 0 1 1 0-19.4 9.7 9.7 0 0 1 0 19.4" fill="#c2e1ffD1"/><path d="M17.1 56.7a9.8 9.8 0 1 1 0-19.5 9.8 9.8 0 0 1 0 19.5" fill="#c2e1ffD1"/><path d="M-117.1-95.1a9.8 9.8 0 1 1 0-19.6 9.8 9.8 0 0 1 0 19.6" fill="#fff500D2"/><path d="M-110-228.8a9.8 9.8 0 1 1 0-19.6 9.8 9.8 0 0 1 0 19.6" fill="#fffD3"/><path d="M-87.2-271.9a9.9 9.9 0 1 1 0-19.7 9.9 9.9 0 0 1 0 19.7" fill="#fff500D4"/><path d="M80.5 68.1a9.9 9.9 0 1 1 0-19.8 9.9 9.9 0 0 1 0 19.8" fill="#fff500D4"/><path d="M-97.1-61.2a10 10 0 1 1 0-20.1 10 10 0 0 1 0 20.1" fill="#c2e1ffD7"/><path d="M309.9-100.7a10.1 10.1 0 1 1 0-20.1 10.1 10.1 0 0 1 0 20.1" fill="#fffD8"/><path d="M93.6 63.5a10.1 10.1 0 1 1 0-20.1 10.1 10.1 0 0 1 0 20.1" fill="#c2e1ffD8"/><path d="M-24.8 20.1a10.1 10.1 0 1 1 0-20.3 10.1 10.1 0 0 1 0 20.3" fill="#005bbbDA"/><path d="M103.3 58.2a10.2 10.2 0 1 1 0-20.4 10.2 10.2 0 0 1 0 20.4" fill="#fffDB"/><path d="M286.3-241.8a10.3 10.3 0 1 1 0-20.6 10.3 10.3 0 0 1 0 20.6" fill="#c2e1ffDD"/><path d="M-82.2-57.9a10.3 10.3 0 1 1 0-20.6 10.3 10.3 0 0 1 0 20.6" fill="#fffDE"/><path d="M296.3-210.9a10.3 10.3 0 1 1 0-20.7 10.3 10.3 0 0 1 0 20.7" fill="#fffDE"/><path d="M146.5-342.7a10.5 10.5 0 1 1 0-21 10.5 10.5 0 0 1 0 21" fill="#c2e1ffE2"/><path d="M53.4 38.2a10.5 10.5 0 1 1 0-21.1 10.5 10.5 0 0 1 0 21.1" fill="#fffE2"/><path d="M28-334a10.5 10.5 0 1 1 0-21 10.5 10.5 0 0 1 0 21" fill="#c2e1ffE2"/><path d="M287.8-191.7a10.6 10.6 0 1 1 0-21.1 10.6 10.6 0 0 1 0 21.1" fill="#005bbbE3"/><path d="M-69-62.6a10.6 10.6 0 1 1 0-21.2 10.6 10.6 0 0 1 0 21.2" fill="#c2e1ffE4"/><path d="M139 35a10.6 10.6 0 1 1 0-21.2 10.6 10.6 0 0 1 0 21.2" fill="#fffE4"/><path d="M207.2-0.3a10.7 10.7 0 1 1 0-21.4 10.7 10.7 0 0 1 0 21.4" fill="#c2e1ffE6"/><path d="M-21.1-12.7a10.7 10.7 0 1 1 0-21.4 10.7 10.7 0 0 1 0 21.4" fill="#fff500E6"/><path d="M283.1-156.6a10.7 10.7 0 1 1 0-21.5 10.7 10.7 0 0 1 0 21.5" fill="#c2e1ffE7"/><path d="M-27-281.1a10.8 10.8 0 1 1 0-21.5 10.8 10.8 0 0 1 0 21.5" fill="#fffE7"/><path d="M220.8-19.1a10.8 10.8 0 1 1 0-21.5 10.8 10.8 0 0 1 0 21.5" fill="#fff500E8"/><path d="M236.7-44.6a10.9 10.9 0 1 1 0-21.7 10.9 10.9 0 0 1 0 21.7" fill="#fffEA"/><path d="M213.6-282.2a10.9 10.9 0 1 1 0-21.7 10.9 10.9 0 0 1 0 21.7" fill="#005bbbEA"/><path d="M246-239.4a10.9 10.9 0 1 1 0-21.8 10.9 10.9 0 0 1 0 21.8" fill="#005bbbEB"/><path d="M267.8-129.9a10.9 10.9 0 1 1 0-21.8 10.9 10.9 0 0 1 0 21.8" fill="#005bbbEB"/><path d="M248.8-73a10.9 10.9 0 1 1 0-21.8 10.9 10.9 0 0 1 0 21.8" fill="#fff500EB"/><path d="M115.6 9.3a11 11 0 1 1 0-22.1 11 11 0 0 1 0 22.1" fill="#005bbbED"/><path d="M-5.9-268.4a11.1 11.1 0 1 1 0-22.1 11.1 11.1 0 0 1 0 22.1" fill="#fffEE"/><path d="M122.4 3.5a11.1 11.1 0 1 1 0-22.1 11.1 11.1 0 0 1 0 22.1" fill="#fffEE"/><path d="M220.9-243.2a11.1 11.1 0 1 1 0-22.2 11.1 11.1 0 0 1 0 22.2" fill="#c2e1ffEF"/><path d="M85.3-300.4a11.1 11.1 0 1 1 0-22.3 11.1 11.1 0 0 1 0 22.3" fill="#005bbbF0"/><path d="M192.5-34.4a11.2 11.2 0 1 1 0-22.3 11.2 11.2 0 0 1 0 22.3" fill="#005bbbF0"/><path d="M50.9-11.9a11.2 11.2 0 1 1 0-22.3 11.2 11.2 0 0 1 0 22.3" fill="#c2e1ffF0"/><path d="M-14.5-238a11.2 11.2 0 1 1 0-22.4 11.2 11.2 0 0 1 0 22.4" fill="#005bbbF1"/><path d="M194.7-257.9a11.2 11.2 0 1 1 0-22.4 11.2 11.2 0 0 1 0 22.4" fill="#fffF1"/><path d="M110.8-10.6a11.2 11.2 0 1 1 0-22.5 11.2 11.2 0 0 1 0 22.5" fill="#005bbbF2"/><path d="M94.3-292a11.2 11.2 0 1 1 0-22.4 11.2 11.2 0 0 1 0 22.4" fill="#005bbbF2"/><path d="M3.1-52.1a11.3 11.3 0 1 1 0-22.5 11.3 11.3 0 0 1 0 22.5" fill="#fffF2"/><path d="M104.8-18.9a11.3 11.3 0 1 1 0-22.7 11.3 11.3 0 0 1 0 22.7" fill="#fff500F3"/><path d="M96.3-276a11.4 11.4 0 1 1 0-22.7 11.4 11.4 0 0 1 0 22.7" fill="#005bbbF5"/><path d="M221.4-178.3a11.4 11.4 0 1 1 0-22.8 11.4 11.4 0 0 1 0 22.8" fill="#fffF5"/><path d="M219-117.8a11.4 11.4 0 1 1 0-22.8 11.4 11.4 0 0 1 0 22.8" fill="#c2e1ffF5"/><path d="M51.6-37.8a11.4 11.4 0 1 1 0-22.7 11.4 11.4 0 0 1 0 22.7" fill="#c2e1ffF5"/><path d="M-1.8-84a11.4 11.4 0 1 1 0-22.7 11.4 11.4 0 0 1 0 22.7" fill="#fffF5"/><path d="M101.8-271.1a11.4 11.4 0 1 1 0-22.8 11.4 11.4 0 0 1 0 22.8" fill="#fff500F5"/><path d="M216.9-129.5a11.4 11.4 0 1 1 0-22.8 11.4 11.4 0 0 1 0 22.8" fill="#fffF6"/><path d="M28.3-57.2a11.4 11.4 0 1 1 0-22.8 11.4 11.4 0 0 1 0 22.8" fill="#fff500F6"/><path d="M120.5-263.4a11.4 11.4 0 1 1 0-22.9 11.4 11.4 0 0 1 0 22.9" fill="#005bbbF6"/><path d="M204.3-166.4a11.5 11.5 0 1 1 0-23 11.5 11.5 0 0 1 0 23" fill="#fffF8"/><path d="M152.4-240.8a11.5 11.5 0 1 1 0-23 11.5 11.5 0 0 1 0 23" fill="#c2e1ffF8"/><path d="M10.5-195.8a11.5 11.5 0 1 1 0-23.1 11.5 11.5 0 0 1 0 23.1" fill="#fff500F8"/><path d="M138.5-59a11.5 11.5 0 1 1 0-23 11.5 11.5 0 0 1 0 23" fill="#c2e1ffF8"/><path d="M183.2-205.7a11.5 11.5 0 1 1 0-23.1 11.5 11.5 0 0 1 0 23.1" fill="#fff500F8"/><path d="M187.3-138.1a11.6 11.6 0 1 1 0-23.2 11.6 11.6 0 0 1 0 23.2" fill="#005bbbFA"/><path d="M51.2-85.2a11.6 11.6 0 1 1 0-23.3 11.6 11.6 0 0 1 0 23.3" fill="#005bbbFA"/><path d="M165.6-175.8a11.7 11.7 0 1 1 0-23.3 11.7 11.7 0 0 1 0 23.3" fill="#c2e1ffFC"/><path d="M133.4-92.8a11.7 11.7 0 1 1 0-23.4 11.7 11.7 0 0 1 0 23.4" fill="#fff500FC"/><path d="M112.5-103a11.7 11.7 0 1 1 0-23.5 11.7 11.7 0 0 1 0 23.5" fill="#fffFD"/><path d="M148.3-140.7a11.7 11.7 0 1 1 0-23.5 11.7 11.7 0 0 1 0 23.5" fill="#c2e1ffFD"/><path d="M111.8-116.7a11.8 11.8 0 1 1 0-23.5 11.8 11.8 0 0 1 0 23.5" fill="#005bbbFE"/><path d="M82.6-144.7a11.8 11.8 0 1 1 0-23.6 11.8 11.8 0 0 1 0 23.6" fill="#fff500FE"/></g></svg>