<svg width="1200" height="675" viewBox="-500 -500 1200 675" xmlns="http://www.w3.org/2000/svg"><path d="M-500-500h1200v675h-1200z" fill="#000"/><style>.sparkles path{stroke-linecap:round; stroke-width:1}</style><g class="sparkles"><path d="M100-162.5l-28-9.7" stroke="#fff50032"/><path d="M100-162.5l-6.2 29.8" stroke="#c2e1ff32"/><path d="M100-162.5l-36.9-23.1" stroke="#fff32"/><path d="M100-162.5l-78.3-33.2" stroke="#fff35"/><path d="M100-162.5l83.5 49.3" stroke="#c2e1ff36"/><path d="M100-162.5l49.2-84" stroke="#005bbb36"/><path d="M100-162.5l-107.9-24.5" stroke="#fff37"/><path d="M100-162.5l-103-45.7" stroke="#fff38"/><path d="M100-162.5l95.8-61.3" stroke="#005bbb38"/><path d="M100-162.5l-96.7-70.9" stroke="#fff50038"/><path d="M100-162.5l-53.2-121.3" stroke="#fff5003A"/><path d="M100-162.5l133.9 13.9" stroke="#fff5003A"/><path d="M100-162.5l-119.5 63.1" stroke="#c2e1ff3A"/><path d="M100-162.5l-100.7 95" stroke="#005bbb3B"/><path d="M100-162.5l-59.2-125.5" stroke="#fff5003B"/><path d="M100-162.5l-42-136.3" stroke="#fff3C"/><path d="M100-162.5l61.8-139" stroke="#c2e1ff3D"/><path d="M100-162.5l-111.3-115.1" stroke="#005bbb3F"/><path d="M100-162.5l153-51.7" stroke="#005bbb3F"/><path d="M100-162.5l-99.2-129.3" stroke="#fff3F"/><path d="M100-162.5l42.8 160" stroke="#fff50040"/><path d="M100-162.5l67.3-158.9" stroke="#c2e1ff41"/><path d="M100-162.5l173.9 8.3" stroke="#fff42"/><path d="M100-162.5l-7.1 178.1" stroke="#c2e1ff43"/><path d="M100-162.5l178.2-21.7" stroke="#c2e1ff43"/><path d="M100-162.5l53.1 173.3" stroke="#c2e1ff43"/><path d="M100-162.5l93.1 158.5" stroke="#c2e1ff44"/><path d="M100-162.5l-106.5 154" stroke="#005bbb45"/><path d="M100-162.5l-187.2-7" stroke="#fff45"/><path d="M100-162.5l-61.2 178.1" stroke="#c2e1ff45"/><path d="M100-162.5l-173.4 74.7" stroke="#c2e1ff45"/><path d="M100-162.5l-1.5-190.8" stroke="#fff50046"/><path d="M100-162.5l-145 126.6" stroke="#fff50047"/><path d="M100-162.5l-93.7-168.7" stroke="#fff50047"/><path d="M100-162.5l-112.5-159.7" stroke="#fff47"/><path d="M100-162.5l-198.4-2.6" stroke="#005bbb48"/><path d="M100-162.5l192.4 49.7" stroke="#fff50048"/><path d="M100-162.5l-83.5-180.7" stroke="#fff49"/><path d="M100-162.5l138.8-143.4" stroke="#fff50049"/><path d="M100-162.5l-107.8 168.1" stroke="#fff50049"/><path d="M100-162.5l204.5 0.4" stroke="#c2e1ff4A"/><path d="M100-162.5l1.4 205.3" stroke="#fff5004B"/><path d="M100-162.5l-200.6-49.6" stroke="#fff4B"/><path d="M100-162.5l161.6-129.4" stroke="#c2e1ff4B"/><path d="M100-162.5l-123.1 167" stroke="#c2e1ff4C"/><path d="M100-162.5l209.7 7.8" stroke="#005bbb4D"/><path d="M100-162.5l-2.4-216.8" stroke="#c2e1ff50"/><path d="M100-162.5l192.2 100.6" stroke="#fff50050"/><path d="M100-162.5l-176.4 126.6" stroke="#fff50"/><path d="M100-162.5l219.4-10" stroke="#fff50051"/><path d="M100-162.5l58.5-212.3" stroke="#fff51"/><path d="M100-162.5l93.3-200.8" stroke="#fff52"/><path d="M100-162.5l208.4 75.4" stroke="#005bbb52"/><path d="M100-162.5l191.1 113.1" stroke="#fff52"/><path d="M100-162.5l71.8 210.8" stroke="#005bbb53"/><path d="M100-162.5l-117.2 190.3" stroke="#c2e1ff53"/><path d="M100-162.5l171.7-144.4" stroke="#c2e1ff54"/><path d="M100-162.5l62.1 216.1" stroke="#c2e1ff54"/><path d="M100-162.5l152.7 167.3" stroke="#fff50055"/><path d="M100-162.5l81.7-212.2" stroke="#fff50056"/><path d="M100-162.5l125-190.3" stroke="#c2e1ff56"/><path d="M100-162.5l-156 166.5" stroke="#c2e1ff56"/><path d="M100-162.5l-206.3 97.6" stroke="#fff57"/><path d="M100-162.5l224.4 41.5" stroke="#c2e1ff57"/><path d="M100-162.5l51.8-222.5" stroke="#c2e1ff57"/><path d="M100-162.5l-115.4 198.9" stroke="#c2e1ff58"/><path d="M100-162.5l-13.4 229.7" stroke="#c2e1ff58"/><path d="M100-162.5l-22.3-230.7" stroke="#005bbb5A"/><path d="M100-162.5l-225.8 53" stroke="#fff5A"/><path d="M100-162.5l-86.1-215.7" stroke="#fff5A"/><path d="M100-162.5l-49.9 227.2" stroke="#fff5B"/><path d="M100-162.5l-102.5 208.8" stroke="#fff5005B"/><path d="M100-162.5l-211.2-101.4" stroke="#005bbb5D"/><path d="M100-162.5l-206.6-110.7" stroke="#005bbb5D"/><path d="M100-162.5l168.4-163.3" stroke="#fff5005E"/><path d="M100-162.5l106.1 209.6" stroke="#c2e1ff5E"/><path d="M100-162.5l-189.4 139.4" stroke="#005bbb5F"/><path d="M100-162.5l-193.8-134.5" stroke="#c2e1ff61"/><path d="M100-162.5l63.7 227.2" stroke="#005bbb61"/><path d="M100-162.5l46.1 231.7" stroke="#fff63"/><path d="M100-162.5l-83.2-221.1" stroke="#fff63"/><path d="M100-162.5l205.4 116.7" stroke="#fff64"/><path d="M100-162.5l-198 128.9" stroke="#fff64"/><path d="M100-162.5l129.4-197.7" stroke="#005bbb64"/><path d="M100-162.5l-202.8 120.2" stroke="#fff50067"/><path d="M100-162.5l181.4-148.6" stroke="#fff5006A"/><path d="M100-162.5l-9.6-234" stroke="#c2e1ff6A"/><path d="M100-162.5l-215.8-90" stroke="#fff6B"/><path d="M100-162.5l-163.9 166.5" stroke="#c2e1ff6B"/><path d="M100-162.5l73.7 220.5" stroke="#c2e1ff6C"/><path d="M100-162.5l-223.8 62.5" stroke="#fff6D"/><path d="M100-162.5l-215.2 87.8" stroke="#005bbb6D"/><path d="M100-162.5l-226.7-50" stroke="#c2e1ff6D"/><path d="M100-162.5l-175.4-151" stroke="#fff6D"/><path d="M100-162.5l202.5 108.2" stroke="#c2e1ff6F"/><path d="M100-162.5l180.2 141.8" stroke="#c2e1ff70"/><path d="M100-162.5l-176.4 145.9" stroke="#fff50070"/><path d="M100-162.5l42.1 224.9" stroke="#c2e1ff70"/><path d="M100-162.5l-151.6 169.6" stroke="#fff50071"/><path d="M100-162.5l38.4 223.9" stroke="#fff71"/><path d="M100-162.5l-154.6 166.4" stroke="#c2e1ff71"/><path d="M100-162.5l-147.7 171.6" stroke="#fff50072"/><path d="M100-162.5l221.1 40.2" stroke="#005bbb73"/><path d="M100-162.5l194.9-111.5" stroke="#c2e1ff73"/><path d="M100-162.5l159.4-156.5" stroke="#fff50074"/><path d="M100-162.5l-34.5-219.9" stroke="#c2e1ff74"/><path d="M100-162.5l187.9-119.1" stroke="#c2e1ff74"/><path d="M100-162.5l-108.4 194" stroke="#fff74"/><path d="M100-162.5l-81.3-204.5" stroke="#fff50076"/><path d="M100-162.5l78.9-204.7" stroke="#c2e1ff76"/><path d="M100-162.5l-65.8-208.7" stroke="#c2e1ff76"/><path d="M100-162.5l-2.7 218.6" stroke="#fff50076"/><path d="M100-162.5l-217.1 21.1" stroke="#c2e1ff77"/><path d="M100-162.5l217.8 2.3" stroke="#c2e1ff77"/><path d="M100-162.5l-213.6 39.5" stroke="#c2e1ff77"/><path d="M100-162.5l205.2 69" stroke="#005bbb78"/><path d="M100-162.5l-210.2 51.7" stroke="#c2e1ff78"/><path d="M100-162.5l91.1 195.9" stroke="#fff50078"/><path d="M100-162.5l-210.3 49.6" stroke="#c2e1ff78"/><path d="M100-162.5l-38 212.3" stroke="#fff50078"/><path d="M100-162.5l-212.7-34.8" stroke="#c2e1ff78"/><path d="M100-162.5l-213.1-28.7" stroke="#fff78"/><path d="M100-162.5l-109.9-184.7" stroke="#fff78"/><path d="M100-162.5l69.8-203.1" stroke="#fff50078"/><path d="M100-162.5l-171.4-129.1" stroke="#fff78"/><path d="M100-162.5l75.6 200.5" stroke="#005bbb79"/><path d="M100-162.5l-214.1 4.3" stroke="#fff79"/><path d="M100-162.5l137.6 158.5" stroke="#005bbb7A"/><path d="M100-162.5l-208.8-18.8" stroke="#005bbb7B"/><path d="M100-162.5l-185.2 96.1" stroke="#c2e1ff7B"/><path d="M100-162.5l183.4-97.2" stroke="#c2e1ff7B"/><path d="M100-162.5l-0.9 206.3" stroke="#005bbb7C"/><path d="M100-162.5l185.2-89.6" stroke="#005bbb7C"/><path d="M100-162.5l138.7 151.4" stroke="#005bbb7C"/><path d="M100-162.5l203.3 22" stroke="#fff5007D"/><path d="M100-162.5l189.6 68.4" stroke="#005bbb7E"/><path d="M100-162.5l-117.9-160.9" stroke="#fff5007E"/><path d="M100-162.5l5.2 197.8" stroke="#fff7F"/><path d="M100-162.5l170.7 100.1" stroke="#fff7F"/><path d="M100-162.5l187.3-55.2" stroke="#fff80"/><path d="M100-162.5l190.8-40.9" stroke="#c2e1ff80"/><path d="M100-162.5l-54.1 187.2" stroke="#fff50080"/><path d="M100-162.5l186 44.4" stroke="#c2e1ff81"/><path d="M100-162.5l-7.6 188.2" stroke="#fff82"/><path d="M100-162.5l88.4-164.8" stroke="#fff82"/><path d="M100-162.5l-137.4 126.6" stroke="#005bbb82"/><path d="M100-162.5l97.7 158.7" stroke="#c2e1ff82"/><path d="M100-162.5l-140.4 120" stroke="#fff83"/><path d="M100-162.5l-22.2-182" stroke="#fff50083"/><path d="M100-162.5l-143.1-112.7" stroke="#c2e1ff83"/><path d="M100-162.5l-178.6 25.6" stroke="#005bbb84"/><path d="M100-162.5l-177-35.2" stroke="#005bbb84"/><path d="M100-162.5l-16 179.6" stroke="#fff84"/><path d="M100-162.5l35.9 175.8" stroke="#fff50084"/><path d="M100-162.5l-18.4 174" stroke="#fff50085"/><path d="M100-162.5l-61.1-158.8" stroke="#fff86"/><path d="M100-162.5l-104.9-125.9" stroke="#005bbb88"/><path d="M100-162.5l-142-80.9" stroke="#005bbb88"/><path d="M100-162.5l-156.7-32.7" stroke="#005bbb88"/><path d="M100-162.5l148-53.4" stroke="#fff50089"/><path d="M100-162.5l10.1-154.6" stroke="#fff89"/><path d="M100-162.5l69.3 137.8" stroke="#fff89"/><path d="M100-162.5l149 0" stroke="#c2e1ff8A"/><path d="M100-162.5l95.6 113.7" stroke="#fff8A"/><path d="M100-162.5l-36.3-142.5" stroke="#fff8B"/><path d="M100-162.5l29.6-139.6" stroke="#c2e1ff8B"/><path d="M100-162.5l-114.4-68.7" stroke="#fff8D"/><path d="M100-162.5l131.8-12.7" stroke="#c2e1ff8D"/><path d="M100-162.5l-80.4 104.2" stroke="#fff8D"/><path d="M100-162.5l76 91.5" stroke="#c2e1ff8F"/><path d="M100-162.5l-85 64.1" stroke="#fff90"/><path d="M100-162.5l81.9 65.8" stroke="#005bbb90"/><path d="M100-162.5l-13.3 102.8" stroke="#fff90"/><path d="M100-162.5l48.9 90.9" stroke="#005bbb90"/><path d="M100-162.5l54.5-84" stroke="#fff91"/><path d="M100-162.5l-75.1-60.2" stroke="#c2e1ff91"/><path d="M100-162.5l66.7 22.8" stroke="#005bbb93"/><path d="M100-162.5l65-19.9" stroke="#005bbb93"/><path d="M100-162.5l55.9-23.4" stroke="#005bbb94"/><path d="M100-162.5l-51 8.5" stroke="#c2e1ff94"/><path d="M100-162.5l43.9-18.6" stroke="#c2e1ff94"/></g><g class="sparcs"><path d="M72-166.3a5.9 5.9 0 1 1 0-11.8 5.9 5.9 0 0 1 0 11.8" fill="#fff5007D"/><path d="M93.8-126.7a5.9 5.9 0 1 1 0-11.9 5.9 5.9 0 0 1 0 11.9" fill="#005bbb7D"/><path d="M63.1-179.6a6 6 0 1 1 0-11.9 6 6 0 0 1 0 11.9" fill="#c2e1ff7E"/><path d="M21.7-189.6a6.1 6.1 0 1 1 0-12.2 6.1 6.1 0 0 1 0 12.2" fill="#fff81"/><path d="M183.5-107a6.2 6.2 0 1 1 0-12.3 6.2 6.2 0 0 1 0 12.3" fill="#c2e1ff82"/><path d="M149.2-240.3a6.2 6.2 0 1 1 0-12.3 6.2 6.2 0 0 1 0 12.3" fill="#fff50082"/><path d="M-7.9-180.7a6.3 6.3 0 1 1 0-12.5 6.3 6.3 0 0 1 0 12.5" fill="#005bbb84"/><path d="M-3-202a6.3 6.3 0 1 1 0-12.5 6.3 6.3 0 0 1 0 12.5" fill="#fff50084"/><path d="M195.8-217.5a6.3 6.3 0 1 1 0-12.6 6.3 6.3 0 0 1 0 12.6" fill="#c2e1ff85"/><path d="M3.3-227a6.3 6.3 0 1 1 0-12.7 6.3 6.3 0 0 1 0 12.7" fill="#c2e1ff85"/><path d="M46.8-277.4a6.4 6.4 0 1 1 0-12.8 6.4 6.4 0 0 1 0 12.8" fill="#fff88"/><path d="M233.9-142.2a6.4 6.4 0 1 1 0-12.8 6.4 6.4 0 0 1 0 12.8" fill="#c2e1ff88"/><path d="M-19.5-93a6.4 6.4 0 1 1 0-12.9 6.4 6.4 0 0 1 0 12.9" fill="#c2e1ff88"/><path d="M-0.7-61a6.5 6.5 0 1 1 0-13 6.5 6.5 0 0 1 0 13" fill="#fff89"/><path d="M40.8-281.5a6.5 6.5 0 1 1 0-12.9 6.5 6.5 0 0 1 0 12.9" fill="#c2e1ff89"/><path d="M58-292.3a6.5 6.5 0 1 1 0-13 6.5 6.5 0 0 1 0 13" fill="#c2e1ff8A"/><path d="M161.8-294.9a6.6 6.6 0 1 1 0-13.2 6.6 6.6 0 0 1 0 13.2" fill="#fff8C"/><path d="M-11.3-270.9a6.7 6.7 0 1 1 0-13.4 6.7 6.7 0 0 1 0 13.4" fill="#c2e1ff8E"/><path d="M253-207.5a6.7 6.7 0 1 1 0-13.4 6.7 6.7 0 0 1 0 13.4" fill="#fff5008E"/><path d="M0.8-285.1a6.7 6.7 0 1 1 0-13.4 6.7 6.7 0 0 1 0 13.4" fill="#c2e1ff8E"/><path d="M142.8 4.3a6.8 6.8 0 1 1 0-13.6 6.8 6.8 0 0 1 0 13.6" fill="#005bbb8F"/><path d="M167.3-314.6a6.8 6.8 0 1 1 0-13.7 6.8 6.8 0 0 1 0 13.7" fill="#fff91"/><path d="M273.9-147.3a6.9 6.9 0 1 1 0-13.7 6.9 6.9 0 0 1 0 13.7" fill="#fff92"/><path d="M92.9 22.5a6.9 6.9 0 1 1 0-13.8 6.9 6.9 0 0 1 0 13.8" fill="#c2e1ff93"/><path d="M278.2-177.2a6.9 6.9 0 1 1 0-13.9 6.9 6.9 0 0 1 0 13.9" fill="#fff50093"/><path d="M153.1 17.8a7 7 0 1 1 0-14 7 7 0 0 1 0 14" fill="#fff50094"/><path d="M193.1 3a7 7 0 1 1 0-14 7 7 0 0 1 0 14" fill="#fff50095"/><path d="M-6.5-1.4a7.1 7.1 0 1 1 0-14.2 7.1 7.1 0 0 1 0 14.2" fill="#c2e1ff96"/><path d="M-87.2-162.5a7.1 7.1 0 1 1 0-14.1 7.1 7.1 0 0 1 0 14.1" fill="#005bbb96"/><path d="M38.8 22.7a7.1 7.1 0 1 1 0-14.2 7.1 7.1 0 0 1 0 14.2" fill="#c2e1ff96"/><path d="M-73.4-80.8a7.1 7.1 0 1 1 0-14.1 7.1 7.1 0 0 1 0 14.1" fill="#fff96"/><path d="M98.5-346.1a7.1 7.1 0 1 1 0-14.3 7.1 7.1 0 0 1 0 14.3" fill="#fff97"/><path d="M-45-28.7a7.1 7.1 0 1 1 0-14.3 7.1 7.1 0 0 1 0 14.3" fill="#fff50098"/><path d="M6.3-324.1a7.2 7.2 0 1 1 0-14.3 7.2 7.2 0 0 1 0 14.3" fill="#005bbb98"/><path d="M-12.5-315a7.2 7.2 0 1 1 0-14.4 7.2 7.2 0 0 1 0 14.4" fill="#fff99"/><path d="M-98.4-157.8a7.3 7.3 0 1 1 0-14.5 7.3 7.3 0 0 1 0 14.5" fill="#005bbb9A"/><path d="M292.4-105.5a7.3 7.3 0 1 1 0-14.5 7.3 7.3 0 0 1 0 14.5" fill="#c2e1ff9A"/><path d="M16.5-335.9a7.3 7.3 0 1 1 0-14.5 7.3 7.3 0 0 1 0 14.5" fill="#fff5009A"/><path d="M238.8-298.6a7.3 7.3 0 1 1 0-14.6 7.3 7.3 0 0 1 0 14.6" fill="#005bbb9B"/><path d="M-7.8 12.9a7.3 7.3 0 1 1 0-14.6 7.3 7.3 0 0 1 0 14.6" fill="#fff5009B"/><path d="M304.5-154.7a7.4 7.4 0 1 1 0-14.8 7.4 7.4 0 0 1 0 14.8" fill="#fff5009D"/><path d="M101.4 50.2a7.4 7.4 0 1 1 0-14.8 7.4 7.4 0 0 1 0 14.8" fill="#fff5009D"/><path d="M-100.6-204.7a7.4 7.4 0 1 1 0-14.9 7.4 7.4 0 0 1 0 14.9" fill="#fff9E"/><path d="M261.6-284.5a7.4 7.4 0 1 1 0-14.8 7.4 7.4 0 0 1 0 14.8" fill="#fff5009E"/><path d="M-23.1 11.9a7.4 7.4 0 1 1 0-14.8 7.4 7.4 0 0 1 0 14.8" fill="#005bbb9E"/><path d="M309.7-147.2a7.5 7.5 0 1 1 0-15 7.5 7.5 0 0 1 0 15" fill="#fff500A0"/><path d="M97.6-371.7a7.7 7.7 0 1 1 0-15.3 7.7 7.7 0 0 1 0 15.3" fill="#c2e1ffA4"/><path d="M292.2-54.3a7.7 7.7 0 1 1 0-15.3 7.7 7.7 0 0 1 0 15.3" fill="#fff500A4"/><path d="M-76.4-28.3a7.7 7.7 0 1 1 0-15.3 7.7 7.7 0 0 1 0 15.3" fill="#fff500A4"/><path d="M319.4-164.8a7.8 7.8 0 1 1 0-15.5 7.8 7.8 0 0 1 0 15.5" fill="#fff500A6"/><path d="M158.5-367a7.8 7.8 0 1 1 0-15.6 7.8 7.8 0 0 1 0 15.6" fill="#fffA6"/><path d="M193.3-355.5a7.8 7.8 0 1 1 0-15.7 7.8 7.8 0 0 1 0 15.7" fill="#fff500A7"/><path d="M308.4-79.3a7.8 7.8 0 1 1 0-15.7 7.8 7.8 0 0 1 0 15.7" fill="#005bbbA7"/><path d="M291.1-41.6a7.9 7.9 0 1 1 0-15.7 7.9 7.9 0 0 1 0 15.7" fill="#c2e1ffA7"/><path d="M171.8 56.2a7.9 7.9 0 1 1 0-15.7 7.9 7.9 0 0 1 0 15.7" fill="#fff500A8"/><path d="M-17.2 35.7a7.9 7.9 0 1 1 0-15.8 7.9 7.9 0 0 1 0 15.8" fill="#005bbbA8"/><path d="M271.7-298.9a7.9 7.9 0 1 1 0-15.9 7.9 7.9 0 0 1 0 15.9" fill="#c2e1ffA9"/><path d="M162.1 61.5a8 8 0 1 1 0-15.9 8 8 0 0 1 0 15.9" fill="#005bbbAA"/><path d="M252.7 12.9a8 8 0 1 1 0-16.1 8 8 0 0 1 0 16.1" fill="#005bbbAB"/><path d="M181.7-366.6a8.1 8.1 0 1 1 0-16.1 8.1 8.1 0 0 1 0 16.1" fill="#005bbbAC"/><path d="M225-344.8a8.1 8.1 0 1 1 0-16.1 8.1 8.1 0 0 1 0 16.1" fill="#fffAC"/><path d="M-56 12.1a8.1 8.1 0 1 1 0-16.2 8.1 8.1 0 0 1 0 16.2" fill="#fff500AD"/><path d="M-106.3-56.9a8.1 8.1 0 1 1 0-16.1 8.1 8.1 0 0 1 0 16.1" fill="#c2e1ffAD"/><path d="M324.4-112.9a8.1 8.1 0 1 1 0-16.2 8.1 8.1 0 0 1 0 16.2" fill="#fffAD"/><path d="M151.8-376.9a8.1 8.1 0 1 1 0-16.2 8.1 8.1 0 0 1 0 16.2" fill="#005bbbAD"/><path d="M-15.4 44.6a8.2 8.2 0 1 1 0-16.4 8.2 8.2 0 0 1 0 16.4" fill="#005bbbAF"/><path d="M86.6 75.4a8.2 8.2 0 1 1 0-16.4 8.2 8.2 0 0 1 0 16.4" fill="#005bbbAF"/><path d="M77.7-384.9a8.3 8.3 0 1 1 0-16.6 8.3 8.3 0 0 1 0 16.6" fill="#c2e1ffB1"/><path d="M-125.8-101.2a8.3 8.3 0 1 1 0-16.6 8.3 8.3 0 0 1 0 16.6" fill="#c2e1ffB1"/><path d="M13.9-369.9a8.3 8.3 0 1 1 0-16.6 8.3 8.3 0 0 1 0 16.6" fill="#c2e1ffB2"/><path d="M50.1 73a8.3 8.3 0 1 1 0-16.7 8.3 8.3 0 0 1 0 16.7" fill="#fff500B2"/><path d="M-2.5 54.7a8.3 8.3 0 1 1 0-16.7 8.3 8.3 0 0 1 0 16.7" fill="#c2e1ffB2"/><path d="M-111.2-255.4a8.5 8.5 0 1 1 0-17 8.5 8.5 0 0 1 0 17" fill="#fffB5"/><path d="M-106.6-264.7a8.5 8.5 0 1 1 0-16.9 8.5 8.5 0 0 1 0 16.9" fill="#fffB5"/><path d="M268.4-317.3a8.5 8.5 0 1 1 0-17 8.5 8.5 0 0 1 0 17" fill="#005bbbB6"/><path d="M206.1 55.7a8.6 8.6 0 1 1 0-17.1 8.6 8.6 0 0 1 0 17.1" fill="#fffB7"/><path d="M-89.4-14.5a8.6 8.6 0 1 1 0-17.2 8.6 8.6 0 0 1 0 17.2" fill="#fffB7"/><path d="M-93.8-288.3a8.7 8.7 0 1 1 0-17.4 8.7 8.7 0 0 1 0 17.4" fill="#fff500BA"/><path d="M163.7 73.4a8.7 8.7 0 1 1 0-17.4 8.7 8.7 0 0 1 0 17.4" fill="#005bbbBA"/><path d="M146.1 78a8.8 8.8 0 1 1 0-17.6 8.8 8.8 0 0 1 0 17.6" fill="#fff500BD"/><path d="M16.8-374.7a8.8 8.8 0 1 1 0-17.7 8.8 8.8 0 0 1 0 17.7" fill="#005bbbBD"/><path d="M305.4-36.9a8.9 8.9 0 1 1 0-17.8 8.9 8.9 0 0 1 0 17.8" fill="#fff500BE"/><path d="M-98-24.8a8.9 8.9 0 1 1 0-17.7 8.9 8.9 0 0 1 0 17.7" fill="#fff500BE"/><path d="M229.4-351.3a8.9 8.9 0 1 1 0-17.8 8.9 8.9 0 0 1 0 17.8" fill="#c2e1ffBE"/><path d="M-102.8-33.3a9.1 9.1 0 1 1 0-18.1 9.1 9.1 0 0 1 0 18.1" fill="#c2e1ffC2"/><path d="M281.4-301.9a9.2 9.2 0 1 1 0-18.4 9.2 9.2 0 0 1 0 18.4" fill="#fffC5"/><path d="M90.4-387.2a9.3 9.3 0 1 1 0-18.5 9.3 9.3 0 0 1 0 18.5" fill="#c2e1ffC6"/><path d="M-115.8-243.2a9.3 9.3 0 1 1 0-18.5 9.3 9.3 0 0 1 0 18.5" fill="#005bbbC7"/><path d="M-63.9 13.3a9.3 9.3 0 1 1 0-18.6 9.3 9.3 0 0 1 0 18.6" fill="#fff500C7"/><path d="M173.7 67.4a9.4 9.4 0 1 1 0-18.7 9.4 9.4 0 0 1 0 18.7" fill="#fffC9"/><path d="M-123.8-90.6a9.4 9.4 0 1 1 0-18.8 9.4 9.4 0 0 1 0 18.8" fill="#005bbbC9"/><path d="M-115.2-65.4a9.4 9.4 0 1 1 0-18.7 9.4 9.4 0 0 1 0 18.7" fill="#fffC9"/><path d="M-126.7-203a9.4 9.4 0 1 1 0-18.9 9.4 9.4 0 0 1 0 18.9" fill="#fff500CA"/><path d="M-75.4-304.1a9.4 9.4 0 1 1 0-18.9 9.4 9.4 0 0 1 0 18.9" fill="#005bbbCA"/><path d="M302.5-44.7a9.6 9.6 0 1 1 0-19.2 9.6 9.6 0 0 1 0 19.2" fill="#fff500CD"/><path d="M280.2-11.1a9.6 9.6 0 1 1 0-19.1 9.6 9.6 0 0 1 0 19.1" fill="#c2e1ffCD"/><path d="M-76.4-7a9.6 9.6 0 1 1 0-19.2 9.6 9.6 0 0 1 0 19.2" fill="#fff500CE"/><path d="M142.1 72a9.6 9.6 0 1 1 0-19.2 9.6 9.6 0 0 1 0 19.2" fill="#c2e1ffCE"/><path d="M-51.6 16.7a9.7 9.7 0 1 1 0-19.3 9.7 9.7 0 0 1 0 19.3" fill="#005bbbCF"/><path d="M138.4 71.1a9.7 9.7 0 1 1 0-19.4 9.7 9.7 0 0 1 0 19.4" fill="#c2e1ffCF"/><path d="M-54.6 13.6a9.7 9.7 0 1 1 0-19.4 9.7 9.7 0 0 1 0 19.4" fill="#fffCF"/><path d="M-47.7 18.8a9.7 9.7 0 1 1 0-19.4 9.7 9.7 0 0 1 0 19.4" fill="#c2e1ffD0"/><path d="M321.1-112.6a9.8 9.8 0 1 1 0-19.5 9.8 9.8 0 0 1 0 19.5" fill="#005bbbD2"/><path d="M294.9-264.2a9.8 9.8 0 1 1 0-19.6 9.8 9.8 0 0 1 0 19.6" fill="#fff500D2"/><path d="M259.4-309.2a9.8 9.8 0 1 1 0-19.6 9.8 9.8 0 0 1 0 19.6" fill="#005bbbD3"/><path d="M65.5-372.5a9.9 9.9 0 1 1 0-19.7 9.9 9.9 0 0 1 0 19.7" fill="#005bbbD3"/><path d="M287.9-271.7a9.9 9.9 0 1 1 0-19.7 9.9 9.9 0 0 1 0 19.7" fill="#fff500D3"/><path d="M-8.4 41.4a9.9 9.9 0 1 1 0-19.7 9.9 9.9 0 0 1 0 19.7" fill="#005bbbD4"/><path d="M18.7-357.1a9.9 9.9 0 1 1 0-19.8 9.9 9.9 0 0 1 0 19.8" fill="#c2e1ffD5"/><path d="M178.9-357.2a10 10 0 1 1 0-19.9 10 10 0 0 1 0 19.9" fill="#fff500D6"/><path d="M34.2-361.2a10 10 0 1 1 0-20 10 10 0 0 1 0 20" fill="#fff500D6"/><path d="M97.3 66a10 10 0 1 1 0-19.9 10 10 0 0 1 0 19.9" fill="#fff500D6"/><path d="M-117.1-131.4a10 10 0 1 1 0-20 10 10 0 0 1 0 20" fill="#c2e1ffD6"/><path d="M317.8-150.2a10 10 0 1 1 0-20 10 10 0 0 1 0 20" fill="#005bbbD7"/><path d="M-113.6-113a10 10 0 1 1 0-20 10 10 0 0 1 0 20" fill="#fff500D7"/><path d="M305.2-83.4a10 10 0 1 1 0-20.1 10 10 0 0 1 0 20.1" fill="#005bbbD8"/><path d="M-110.2-100.8a10 10 0 1 1 0-20.1 10 10 0 0 1 0 20.1" fill="#fff500D8"/><path d="M191.1 43.5a10.1 10.1 0 1 1 0-20.1 10.1 10.1 0 0 1 0 20.1" fill="#fff500D8"/><path d="M-110.3-102.9a10.1 10.1 0 1 1 0-20.1 10.1 10.1 0 0 1 0 20.1" fill="#c2e1ffD8"/><path d="M62 59.8a10.1 10.1 0 1 1 0-20.1 10.1 10.1 0 0 1 0 20.1" fill="#005bbbD8"/><path d="M-112.7-187.3a10.1 10.1 0 1 1 0-20.1 10.1 10.1 0 0 1 0 20.1" fill="#fffD8"/><path d="M-113.1-181.1a10.1 10.1 0 1 1 0-20.2 10.1 10.1 0 0 1 0 20.2" fill="#fff500D8"/><path d="M-9.9-337.1a10.1 10.1 0 1 1 0-20.2 10.1 10.1 0 0 1 0 20.2" fill="#c2e1ffD8"/><path d="M169.8-355.5a10.1 10.1 0 1 1 0-20.2 10.1 10.1 0 0 1 0 20.2" fill="#fff500D9"/><path d="M-71.4-281.5a10.1 10.1 0 1 1 0-20.2 10.1 10.1 0 0 1 0 20.2" fill="#fffD9"/><path d="M175.6 48.1a10.1 10.1 0 1 1 0-20.2 10.1 10.1 0 0 1 0 20.2" fill="#fffD9"/><path d="M-114.1-148.1a10.1 10.1 0 1 1 0-20.2 10.1 10.1 0 0 1 0 20.2" fill="#c2e1ffD9"/><path d="M237.6 6.2a10.2 10.2 0 1 1 0-20.4 10.2 10.2 0 0 1 0 20.4" fill="#005bbbDB"/><path d="M-108.8-171a10.2 10.2 0 1 1 0-20.5 10.2 10.2 0 0 1 0 20.5" fill="#fff500DB"/><path d="M-85.2-56.2a10.2 10.2 0 1 1 0-20.5 10.2 10.2 0 0 1 0 20.5" fill="#fffDC"/><path d="M283.4-249.4a10.3 10.3 0 1 1 0-20.6 10.3 10.3 0 0 1 0 20.6" fill="#005bbbDD"/><path d="M99.1 54.1a10.3 10.3 0 1 1 0-20.6 10.3 10.3 0 0 1 0 20.6" fill="#c2e1ffDD"/><path d="M285.2-241.8a10.3 10.3 0 1 1 0-20.6 10.3 10.3 0 0 1 0 20.6" fill="#005bbbDD"/><path d="M238.7-0.8a10.3 10.3 0 1 1 0-20.7 10.3 10.3 0 0 1 0 20.7" fill="#c2e1ffDE"/><path d="M303.3-130.1a10.3 10.3 0 1 1 0-20.7 10.3 10.3 0 0 1 0 20.7" fill="#005bbbDE"/><path d="M289.6-83.7a10.4 10.4 0 1 1 0-20.8 10.4 10.4 0 0 1 0 20.8" fill="#fffDF"/><path d="M-17.9-312.9a10.4 10.4 0 1 1 0-20.9 10.4 10.4 0 0 1 0 20.9" fill="#fff500E0"/><path d="M105.2 45.8a10.5 10.5 0 1 1 0-21 10.5 10.5 0 0 1 0 21" fill="#fffE1"/><path d="M270.7-51.9a10.5 10.5 0 1 1 0-20.9 10.5 10.5 0 0 1 0 20.9" fill="#fffE1"/><path d="M287.3-207.2a10.5 10.5 0 1 1 0-21 10.5 10.5 0 0 1 0 21" fill="#c2e1ffE2"/><path d="M290.8-192.9a10.5 10.5 0 1 1 0-21 10.5 10.5 0 0 1 0 21" fill="#c2e1ffE2"/><path d="M45.9 35.2a10.5 10.5 0 1 1 0-21 10.5 10.5 0 0 1 0 21" fill="#005bbbE2"/><path d="M286-107.5a10.6 10.6 0 1 1 0-21.2 10.6 10.6 0 0 1 0 21.2" fill="#fffE4"/><path d="M92.4 36.3a10.6 10.6 0 1 1 0-21.3 10.6 10.6 0 0 1 0 21.3" fill="#005bbbE5"/><path d="M188.4-316.6a10.7 10.7 0 1 1 0-21.4 10.7 10.7 0 0 1 0 21.4" fill="#005bbbE5"/><path d="M-37.4-25.2a10.7 10.7 0 1 1 0-21.3 10.7 10.7 0 0 1 0 21.3" fill="#c2e1ffE5"/><path d="M197.7 6.9a10.7 10.7 0 1 1 0-21.4 10.7 10.7 0 0 1 0 21.4" fill="#005bbbE5"/><path d="M-40.4-31.8a10.7 10.7 0 1 1 0-21.4 10.7 10.7 0 0 1 0 21.4" fill="#005bbbE6"/><path d="M77.8-333.8a10.7 10.7 0 1 1 0-21.4 10.7 10.7 0 0 1 0 21.4" fill="#005bbbE6"/><path d="M-43.1-264.4a10.7 10.7 0 1 1 0-21.5 10.7 10.7 0 0 1 0 21.5" fill="#fffE7"/><path d="M-78.6-126.2a10.8 10.8 0 1 1 0-21.5 10.8 10.8 0 0 1 0 21.5" fill="#c2e1ffE7"/><path d="M-77-186.9a10.8 10.8 0 1 1 0-21.5 10.8 10.8 0 0 1 0 21.5" fill="#005bbbE7"/><path d="M84 27.9a10.8 10.8 0 1 1 0-21.5 10.8 10.8 0 0 1 0 21.5" fill="#005bbbE7"/><path d="M135.9 24a10.8 10.8 0 1 1 0-21.5 10.8 10.8 0 0 1 0 21.5" fill="#c2e1ffE8"/><path d="M81.6 22.3a10.8 10.8 0 1 1 0-21.6 10.8 10.8 0 0 1 0 21.6" fill="#c2e1ffE9"/><path d="M38.9-310.4a10.9 10.9 0 1 1 0-21.8 10.9 10.9 0 0 1 0 21.8" fill="#fff500EB"/><path d="M-4.9-277.4a11 11 0 1 1 0-22 11 11 0 0 1 0 22" fill="#c2e1ffEC"/><path d="M-42-232.4a11 11 0 1 1 0-22 11 11 0 0 1 0 22" fill="#fff500EC"/><path d="M-56.7-184.2a11 11 0 1 1 0-22.1 11 11 0 0 1 0 22.1" fill="#c2e1ffED"/><path d="M248-204.8a11.1 11.1 0 1 1 0-22.1 11.1 11.1 0 0 1 0 22.1" fill="#c2e1ffEE"/><path d="M110.1-306a11.1 11.1 0 1 1 0-22.1 11.1 11.1 0 0 1 0 22.1" fill="#fff500EF"/><path d="M169.3-13.6a11.1 11.1 0 1 1 0-22.2 11.1 11.1 0 0 1 0 22.2" fill="#c2e1ffEF"/><path d="M249-151.3a11.2 11.2 0 1 1 0-22.4 11.2 11.2 0 0 1 0 22.4" fill="#005bbbF0"/><path d="M195.6-37.6a11.2 11.2 0 1 1 0-22.3 11.2 11.2 0 0 1 0 22.3" fill="#c2e1ffF0"/><path d="M63.7-293.8a11.2 11.2 0 1 1 0-22.3 11.2 11.2 0 0 1 0 22.3" fill="#fffF0"/><path d="M129.6-290.9a11.2 11.2 0 1 1 0-22.4 11.2 11.2 0 0 1 0 22.4" fill="#fffF1"/><path d="M-14.4-219.9a11.3 11.3 0 1 1 0-22.6 11.3 11.3 0 0 1 0 22.6" fill="#fff500F3"/><path d="M231.8-163.9a11.3 11.3 0 1 1 0-22.6 11.3 11.3 0 0 1 0 22.6" fill="#005bbbF3"/><path d="M19.6-47a11.3 11.3 0 1 1 0-22.6 11.3 11.3 0 0 1 0 22.6" fill="#fff500F3"/><path d="M176-59.6a11.4 11.4 0 1 1 0-22.8 11.4 11.4 0 0 1 0 22.8" fill="#005bbbF6"/><path d="M15-86.9a11.5 11.5 0 1 1 0-23 11.5 11.5 0 0 1 0 23" fill="#c2e1ffF8"/><path d="M181.9-85.2a11.5 11.5 0 1 1 0-23 11.5 11.5 0 0 1 0 23" fill="#005bbbF8"/><path d="M86.7-48.2a11.5 11.5 0 1 1 0-23 11.5 11.5 0 0 1 0 23" fill="#005bbbF8"/><path d="M148.9-60.1a11.5 11.5 0 1 1 0-23 11.5 11.5 0 0 1 0 23" fill="#c2e1ffF8"/><path d="M154.5-235a11.5 11.5 0 1 1 0-23.1 11.5 11.5 0 0 1 0 23.1" fill="#fffF8"/><path d="M24.9-211.1a11.6 11.6 0 1 1 0-23.1 11.6 11.6 0 0 1 0 23.1" fill="#fffF9"/><path d="M166.7-128a11.7 11.7 0 1 1 0-23.4 11.7 11.7 0 0 1 0 23.4" fill="#c2e1ffFC"/><path d="M165-170.7a11.7 11.7 0 1 1 0-23.4 11.7 11.7 0 0 1 0 23.4" fill="#fff500FC"/><path d="M155.9-174.2a11.7 11.7 0 1 1 0-23.4 11.7 11.7 0 0 1 0 23.4" fill="#c2e1ffFC"/><path d="M49-142.2a11.7 11.7 0 1 1 0-23.5 11.7 11.7 0 0 1 0 23.5" fill="#c2e1ffFD"/><path d="M143.9-169.3a11.8 11.8 0 1 1 0-23.5 11.8 11.8 0 0 1 0 23.5" fill="#fff500FD"/></g></svg>