<svg width="1200" height="675" viewBox="-500 -500 1200 675" xmlns="http://www.w3.org/2000/svg"><path d="M-500-500h1200v675h-1200z" fill="#000"/><style>.sparkles path{stroke-linecap:round; stroke-width:1}</style><g class="sparkles"><path d="M100-162.5l26 31" stroke="#a8dadc32"/><path d="M100-162.5l19.6-37.7" stroke="#e6394632"/><path d="M100-162.5l-32.6 52.4" stroke="#a8dadc33"/><path d="M100-162.5l46.6-56.2" stroke="#f1faee34"/><path d="M100-162.5l71.4-21.6" stroke="#a8dadc34"/><path d="M100-162.5l-60.2-61" stroke="#1d355735"/><path d="M100-162.5l-31.6-82.3" stroke="#e6394635"/><path d="M100-162.5l-89.1 10.8" stroke="#1d355735"/><path d="M100-162.5l-63.9 68.5" stroke="#1d355736"/><path d="M100-162.5l88.5-35.9" stroke="#1d355736"/><path d="M100-162.5l-84.4-61.1" stroke="#a8dadc37"/><path d="M100-162.5l-106.5 11.3" stroke="#1d355737"/><path d="M100-162.5l-63.4-89.2" stroke="#e6394637"/><path d="M100-162.5l66.7-91.8" stroke="#457b9d38"/><path d="M100-162.5l34.4 114.7" stroke="#457b9d38"/><path d="M100-162.5l-13.5-123.5" stroke="#457b9d39"/><path d="M100-162.5l124.2 14.6" stroke="#e6394639"/><path d="M100-162.5l50.6-114.7" stroke="#457b9d39"/><path d="M100-162.5l-61.3-113" stroke="#f1faee3A"/><path d="M100-162.5l-114 60.5" stroke="#f1faee3A"/><path d="M100-162.5l-116.5-65.2" stroke="#a8dadc3A"/><path d="M100-162.5l-140.4 48.7" stroke="#e639463D"/><path d="M100-162.5l-13.9-149.9" stroke="#e639463D"/><path d="M100-162.5l-11.5-150.7" stroke="#a8dadc3D"/><path d="M100-162.5l145.4-53.2" stroke="#1d35573E"/><path d="M100-162.5l-97.2-122.6" stroke="#457b9d3E"/><path d="M100-162.5l-155.8 30.6" stroke="#457b9d3E"/><path d="M100-162.5l61.2-148.3" stroke="#f1faee3F"/><path d="M100-162.5l-84.8-139.8" stroke="#a8dadc3F"/><path d="M100-162.5l7.6-166.3" stroke="#f1faee40"/><path d="M100-162.5l131.7 105.7" stroke="#457b9d41"/><path d="M100-162.5l116.5 127.1" stroke="#a8dadc41"/><path d="M100-162.5l-87.6 150.4" stroke="#457b9d42"/><path d="M100-162.5l150.3 91.9" stroke="#a8dadc42"/><path d="M100-162.5l144.5-101" stroke="#457b9d42"/><path d="M100-162.5l131.8-123.1" stroke="#457b9d43"/><path d="M100-162.5l140.5-113.6" stroke="#e6394643"/><path d="M100-162.5l86.2 165.4" stroke="#1d355745"/><path d="M100-162.5l-121 158.5" stroke="#e6394649"/><path d="M100-162.5l197.5 42.4" stroke="#1d35574A"/><path d="M100-162.5l201.3 32.8" stroke="#457b9d4A"/><path d="M100-162.5l-67 197.6" stroke="#457b9d4C"/><path d="M100-162.5l-156.7-138.9" stroke="#1d35574C"/><path d="M100-162.5l178.5 116.6" stroke="#1d35574E"/><path d="M100-162.5l165.6 135.1" stroke="#f1faee4E"/><path d="M100-162.5l-96.9 191.2" stroke="#457b9d4E"/><path d="M100-162.5l85.8 200.1" stroke="#f1faee50"/><path d="M100-162.5l142.3-165.2" stroke="#f1faee50"/><path d="M100-162.5l-169.4-137.8" stroke="#457b9d50"/><path d="M100-162.5l-28.9-216.8" stroke="#e6394651"/><path d="M100-162.5l119.4 185" stroke="#1d355751"/><path d="M100-162.5l-203.1 92.1" stroke="#457b9d53"/><path d="M100-162.5l60.9 215.2" stroke="#f1faee53"/><path d="M100-162.5l222.1-30" stroke="#a8dadc54"/><path d="M100-162.5l97.3-202.7" stroke="#457b9d54"/><path d="M100-162.5l-226.4 0.9" stroke="#1d355755"/><path d="M100-162.5l-201.9 104.9" stroke="#1d355756"/><path d="M100-162.5l229.9 0" stroke="#1d355758"/><path d="M100-162.5l-211.7-90.4" stroke="#a8dadc58"/><path d="M100-162.5l-225.7-47.5" stroke="#f1faee59"/><path d="M100-162.5l-227.1-42.2" stroke="#a8dadc59"/><path d="M100-162.5l-121.4 196.9" stroke="#e6394659"/><path d="M100-162.5l53.9-225.2" stroke="#1d35575A"/><path d="M100-162.5l32.7-229.6" stroke="#1d35575A"/><path d="M100-162.5l-200.1-117.4" stroke="#1d35575A"/><path d="M100-162.5l224.1 63.1" stroke="#e639465B"/><path d="M100-162.5l149.3 179.3" stroke="#a8dadc5C"/><path d="M100-162.5l115.1-203" stroke="#457b9d5C"/><path d="M100-162.5l192.4-133.3" stroke="#1d35575D"/><path d="M100-162.5l-233.3-25.1" stroke="#1d35575E"/><path d="M100-162.5l-102.3 211.4" stroke="#a8dadc5E"/><path d="M100-162.5l-97 214" stroke="#f1faee5E"/><path d="M100-162.5l-40.3 232" stroke="#a8dadc60"/><path d="M100-162.5l-213.7-99" stroke="#f1faee60"/><path d="M100-162.5l183.4-148.4" stroke="#1d355761"/><path d="M100-162.5l100.7 213.4" stroke="#1d355761"/><path d="M100-162.5l89.9 218.3" stroke="#a8dadc62"/><path d="M100-162.5l109.6-209.2" stroke="#457b9d62"/><path d="M100-162.5l34.2 233.7" stroke="#e6394663"/><path d="M100-162.5l-193 136.3" stroke="#457b9d63"/><path d="M100-162.5l215.2 97.4" stroke="#e6394665"/><path d="M100-162.5l-18.2-235.4" stroke="#e6394665"/><path d="M100-162.5l86.8-219.6" stroke="#f1faee65"/><path d="M100-162.5l6.1-236" stroke="#1d355765"/><path d="M100-162.5l-199.5-125.9" stroke="#f1faee66"/><path d="M100-162.5l-118.8-203.8" stroke="#e6394666"/><path d="M100-162.5l-235.3 15.2" stroke="#a8dadc67"/><path d="M100-162.5l-144.6-186" stroke="#457b9d67"/><path d="M100-162.5l229.3 53.8" stroke="#a8dadc67"/><path d="M100-162.5l-55.1 228.9" stroke="#1d355768"/><path d="M100-162.5l-160-172.7" stroke="#1d355768"/><path d="M100-162.5l-8.8 234.3" stroke="#e639466A"/><path d="M100-162.5l234.3-4.8" stroke="#e639466A"/><path d="M100-162.5l-28 232.5" stroke="#e639466A"/><path d="M100-162.5l82.5-218.5" stroke="#a8dadc6B"/><path d="M100-162.5l-228.4 47.4" stroke="#a8dadc6B"/><path d="M100-162.5l128.6 194.5" stroke="#1d35576C"/><path d="M100-162.5l-221.4 72.1" stroke="#f1faee6C"/><path d="M100-162.5l-172.3-156.5" stroke="#457b9d6C"/><path d="M100-162.5l-156.8 172" stroke="#1d35576C"/><path d="M100-162.5l193.3 129" stroke="#e639466D"/><path d="M100-162.5l218.7 72.7" stroke="#f1faee6E"/><path d="M100-162.5l198.4 116.9" stroke="#e639466F"/><path d="M100-162.5l45.5-225.6" stroke="#f1faee6F"/><path d="M100-162.5l-197.7 116.9" stroke="#a8dadc6F"/><path d="M100-162.5l-82.4-214.1" stroke="#e639466F"/><path d="M100-162.5l114.5 198.6" stroke="#e6394670"/><path d="M100-162.5l195.7-117.1" stroke="#a8dadc71"/><path d="M100-162.5l70.4 216.9" stroke="#e6394671"/><path d="M100-162.5l-192.5-121.5" stroke="#a8dadc71"/><path d="M100-162.5l-39.2-223.8" stroke="#f1faee71"/><path d="M100-162.5l223.9-37.1" stroke="#f1faee71"/><path d="M100-162.5l-16.8 225.9" stroke="#f1faee72"/><path d="M100-162.5l-206.2-93.9" stroke="#a8dadc72"/><path d="M100-162.5l223-38.5" stroke="#f1faee72"/><path d="M100-162.5l153.3-164.1" stroke="#1d355773"/><path d="M100-162.5l-95.2 203.1" stroke="#1d355773"/><path d="M100-162.5l108.1-196.1" stroke="#a8dadc73"/><path d="M100-162.5l37.2 220.6" stroke="#e6394674"/><path d="M100-162.5l110.3 193.3" stroke="#e6394674"/><path d="M100-162.5l171.2-138.7" stroke="#f1faee76"/><path d="M100-162.5l163.7 146.3" stroke="#a8dadc76"/><path d="M100-162.5l-175.8 130.7" stroke="#457b9d76"/><path d="M100-162.5l-104.1-190.7" stroke="#1d355777"/><path d="M100-162.5l-198.7 87.8" stroke="#f1faee77"/><path d="M100-162.5l-216 17.4" stroke="#e6394677"/><path d="M100-162.5l63-206.3" stroke="#457b9d78"/><path d="M100-162.5l-110.2 185.2" stroke="#a8dadc78"/><path d="M100-162.5l204.3 67.8" stroke="#457b9d78"/><path d="M100-162.5l-23.3-211.7" stroke="#e6394679"/><path d="M100-162.5l-155.9-143.5" stroke="#1d35577A"/><path d="M100-162.5l67.2 199" stroke="#f1faee7A"/><path d="M100-162.5l209.8-1.1" stroke="#e639467A"/><path d="M100-162.5l-2.4-209.8" stroke="#1d35577A"/><path d="M100-162.5l-75.2-194.3" stroke="#e639467B"/><path d="M100-162.5l-132.5 160.6" stroke="#a8dadc7B"/><path d="M100-162.5l121.1-166.8" stroke="#e639467C"/><path d="M100-162.5l-74.8-192" stroke="#1d35577C"/><path d="M100-162.5l54-197.5" stroke="#f1faee7C"/><path d="M100-162.5l-35.2-200.2" stroke="#e639467D"/><path d="M100-162.5l201.4-25.1" stroke="#e639467D"/><path d="M100-162.5l-198.2-33.7" stroke="#457b9d7E"/><path d="M100-162.5l-114.2 164.9" stroke="#e639467E"/><path d="M100-162.5l33.1-194.9" stroke="#a8dadc7F"/><path d="M100-162.5l166.4 102.6" stroke="#a8dadc80"/><path d="M100-162.5l-163.8-104.8" stroke="#a8dadc80"/><path d="M100-162.5l173.2-84.1" stroke="#1d355780"/><path d="M100-162.5l34.9 189.1" stroke="#457b9d81"/><path d="M100-162.5l116.3 152.3" stroke="#a8dadc81"/><path d="M100-162.5l-183.6-46.5" stroke="#e6394681"/><path d="M100-162.5l106 154.6" stroke="#a8dadc82"/><path d="M100-162.5l-159 95.2" stroke="#1d355783"/><path d="M100-162.5l8.2 182.4" stroke="#f1faee83"/><path d="M100-162.5l-102.6 150.6" stroke="#457b9d83"/><path d="M100-162.5l-163.1-61.3" stroke="#a8dadc85"/><path d="M100-162.5l-90.6 147.1" stroke="#a8dadc86"/><path d="M100-162.5l-156.8-47.7" stroke="#f1faee88"/><path d="M100-162.5l119.1-110.4" stroke="#a8dadc88"/><path d="M100-162.5l116.5 98.1" stroke="#457b9d8A"/><path d="M100-162.5l103.5 100.4" stroke="#457b9d8B"/><path d="M100-162.5l40.3 136.4" stroke="#1d35578B"/><path d="M100-162.5l100.3 100.5" stroke="#e639468B"/><path d="M100-162.5l-121.4 65.7" stroke="#a8dadc8C"/><path d="M100-162.5l-99.9-90.1" stroke="#f1faee8D"/><path d="M100-162.5l-116.6-59" stroke="#1d35578D"/><path d="M100-162.5l62.2-112.9" stroke="#a8dadc8D"/><path d="M100-162.5l-112.1 19.6" stroke="#f1faee8F"/><path d="M100-162.5l58-94.2" stroke="#a8dadc90"/><path d="M100-162.5l99.5-5.3" stroke="#e6394691"/><path d="M100-162.5l89.8-42.6" stroke="#e6394691"/><path d="M100-162.5l30.1-90.8" stroke="#f1faee91"/><path d="M100-162.5l-6.2 92.9" stroke="#a8dadc91"/><path d="M100-162.5l-35.8-77.8" stroke="#e6394692"/><path d="M100-162.5l4.8-80.8" stroke="#1d355792"/><path d="M100-162.5l26 63" stroke="#457b9d93"/><path d="M100-162.5l-20.7 63.6" stroke="#e6394693"/><path d="M100-162.5l-45.6 36.8" stroke="#1d355794"/><path d="M100-162.5l-26 39.7" stroke="#1d355794"/><path d="M100-162.5l15.3 43" stroke="#e6394695"/><path d="M100-162.5l-6.2-27.3" stroke="#457b9d95"/><path d="M100-162.5l19.8 8.5" stroke="#f1faee95"/></g><g class="sparcs"><path d="M126-125.5a5.9 5.9 0 1 1 0-11.9 5.9 5.9 0 0 1 0 11.9" fill="#a8dadc7D"/><path d="M119.6-194.2a6 6 0 1 1 0-11.9 6 6 0 0 1 0 11.9" fill="#457b9d7E"/><path d="M67.4-104.1a6 6 0 1 1 0-12 6 6 0 0 1 0 12" fill="#a8dadc7F"/><path d="M146.6-212.7a6.1 6.1 0 1 1 0-12.1 6.1 6.1 0 0 1 0 12.1" fill="#a8dadc80"/><path d="M171.4-178a6.1 6.1 0 1 1 0-12.1 6.1 6.1 0 0 1 0 12.1" fill="#457b9d80"/><path d="M39.8-217.4a6.1 6.1 0 1 1 0-12.2 6.1 6.1 0 0 1 0 12.2" fill="#1d355781"/><path d="M68.4-238.7a6.1 6.1 0 1 1 0-12.2 6.1 6.1 0 0 1 0 12.2" fill="#1d355781"/><path d="M10.9-145.5a6.1 6.1 0 1 1 0-12.3 6.1 6.1 0 0 1 0 12.3" fill="#e6394681"/><path d="M36.1-87.9a6.1 6.1 0 1 1 0-12.3 6.1 6.1 0 0 1 0 12.3" fill="#f1faee82"/><path d="M188.5-192.3a6.2 6.2 0 1 1 0-12.3 6.2 6.2 0 0 1 0 12.3" fill="#1d355782"/><path d="M15.6-217.4a6.2 6.2 0 1 1 0-12.4 6.2 6.2 0 0 1 0 12.4" fill="#a8dadc83"/><path d="M-6.5-145a6.2 6.2 0 1 1 0-12.5 6.2 6.2 0 0 1 0 12.5" fill="#a8dadc84"/><path d="M36.6-245.4a6.2 6.2 0 1 1 0-12.5 6.2 6.2 0 0 1 0 12.5" fill="#f1faee84"/><path d="M166.7-248a6.3 6.3 0 1 1 0-12.6 6.3 6.3 0 0 1 0 12.6" fill="#e6394684"/><path d="M134.4-41.5a6.3 6.3 0 1 1 0-12.6 6.3 6.3 0 0 1 0 12.6" fill="#a8dadc85"/><path d="M86.5-279.7a6.3 6.3 0 1 1 0-12.7 6.3 6.3 0 0 1 0 12.7" fill="#f1faee86"/><path d="M224.2-141.6a6.4 6.4 0 1 1 0-12.7 6.4 6.4 0 0 1 0 12.7" fill="#e6394686"/><path d="M150.6-270.9a6.4 6.4 0 1 1 0-12.7 6.4 6.4 0 0 1 0 12.7" fill="#f1faee86"/><path d="M38.7-269.1a6.4 6.4 0 1 1 0-12.7 6.4 6.4 0 0 1 0 12.7" fill="#1d355787"/><path d="M-14-95.7a6.4 6.4 0 1 1 0-12.7 6.4 6.4 0 0 1 0 12.7" fill="#e6394687"/><path d="M-16.5-221.3a6.4 6.4 0 1 1 0-12.9 6.4 6.4 0 0 1 0 12.9" fill="#a8dadc88"/><path d="M-40.4-107.2a6.6 6.6 0 1 1 0-13.1 6.6 6.6 0 0 1 0 13.1" fill="#a8dadc8B"/><path d="M86.1-305.9a6.6 6.6 0 1 1 0-13.1 6.6 6.6 0 0 1 0 13.1" fill="#1d35578B"/><path d="M88.5-306.6a6.6 6.6 0 1 1 0-13.2 6.6 6.6 0 0 1 0 13.2" fill="#1d35578C"/><path d="M245.4-209.1a6.6 6.6 0 1 1 0-13.2 6.6 6.6 0 0 1 0 13.2" fill="#f1faee8C"/><path d="M2.8-278.5a6.6 6.6 0 1 1 0-13.3 6.6 6.6 0 0 1 0 13.3" fill="#1d35578D"/><path d="M-55.8-125.2a6.7 6.7 0 1 1 0-13.4 6.7 6.7 0 0 1 0 13.4" fill="#457b9d8D"/><path d="M161.2-304.1a6.7 6.7 0 1 1 0-13.3 6.7 6.7 0 0 1 0 13.3" fill="#1d35578E"/><path d="M15.2-295.6a6.7 6.7 0 1 1 0-13.5 6.7 6.7 0 0 1 0 13.5" fill="#e639468F"/><path d="M107.6-322a6.8 6.8 0 1 1 0-13.6 6.8 6.8 0 0 1 0 13.6" fill="#a8dadc8F"/><path d="M231.7-50a6.8 6.8 0 1 1 0-13.6 6.8 6.8 0 0 1 0 13.6" fill="#e6394690"/><path d="M216.5-28.6a6.8 6.8 0 1 1 0-13.7 6.8 6.8 0 0 1 0 13.7" fill="#457b9d91"/><path d="M12.4-5.3a6.9 6.9 0 1 1 0-13.7 6.9 6.9 0 0 1 0 13.7" fill="#e6394692"/><path d="M250.3-63.7a6.9 6.9 0 1 1 0-13.8 6.9 6.9 0 0 1 0 13.8" fill="#f1faee92"/><path d="M244.5-256.7a6.9 6.9 0 1 1 0-13.7 6.9 6.9 0 0 1 0 13.7" fill="#1d355792"/><path d="M231.8-278.6a7 7 0 1 1 0-13.9 7 7 0 0 1 0 13.9" fill="#f1faee94"/><path d="M240.5-269.2a7 7 0 1 1 0-13.9 7 7 0 0 1 0 13.9" fill="#f1faee94"/><path d="M186.2 9.9a7 7 0 1 1 0-14.1 7 7 0 0 1 0 14.1" fill="#a8dadc96"/><path d="M-21 3.3a7.3 7.3 0 1 1 0-14.5 7.3 7.3 0 0 1 0 14.5" fill="#457b9d9B"/><path d="M297.5-112.8a7.3 7.3 0 1 1 0-14.6 7.3 7.3 0 0 1 0 14.6" fill="#e639469C"/><path d="M301.3-122.3a7.4 7.4 0 1 1 0-14.8 7.4 7.4 0 0 1 0 14.8" fill="#1d35579D"/><path d="M33 42.6a7.5 7.5 0 1 1 0-15 7.5 7.5 0 0 1 0 15" fill="#e639469F"/><path d="M-56.7-293.9a7.5 7.5 0 1 1 0-15 7.5 7.5 0 0 1 0 15" fill="#a8dadc9F"/><path d="M278.5-38.4a7.6 7.6 0 1 1 0-15.1 7.6 7.6 0 0 1 0 15.1" fill="#f1faeeA1"/><path d="M265.6-19.8a7.6 7.6 0 1 1 0-15.2 7.6 7.6 0 0 1 0 15.2" fill="#f1faeeA2"/><path d="M3.1 36.3a7.6 7.6 0 1 1 0-15.2 7.6 7.6 0 0 1 0 15.2" fill="#457b9dA2"/><path d="M185.8 45.3a7.7 7.7 0 1 1 0-15.4 7.7 7.7 0 0 1 0 15.4" fill="#e63946A4"/><path d="M242.3-320a7.7 7.7 0 1 1 0-15.4 7.7 7.7 0 0 1 0 15.4" fill="#457b9dA4"/><path d="M-69.4-292.6a7.7 7.7 0 1 1 0-15.5 7.7 7.7 0 0 1 0 15.5" fill="#e63946A5"/><path d="M71.1-371.6a7.7 7.7 0 1 1 0-15.5 7.7 7.7 0 0 1 0 15.5" fill="#f1faeeA5"/><path d="M219.4 30.3a7.8 7.8 0 1 1 0-15.6 7.8 7.8 0 0 1 0 15.6" fill="#457b9dA6"/><path d="M-103.1-62.5a7.9 7.9 0 1 1 0-15.8 7.9 7.9 0 0 1 0 15.8" fill="#f1faeeA8"/><path d="M160.9 60.6a7.9 7.9 0 1 1 0-15.8 7.9 7.9 0 0 1 0 15.8" fill="#1d3557A9"/><path d="M322.1-184.6a7.9 7.9 0 1 1 0-15.8 7.9 7.9 0 0 1 0 15.8" fill="#457b9dA9"/><path d="M197.3-357.3a8 8 0 1 1 0-15.9 8 8 0 0 1 0 15.9" fill="#1d3557AA"/><path d="M-126.4-153.5a8 8 0 1 1 0-16.1 8 8 0 0 1 0 16.1" fill="#a8dadcAB"/><path d="M-101.9-49.5a8.1 8.1 0 1 1 0-16.2 8.1 8.1 0 0 1 0 16.2" fill="#f1faeeAC"/><path d="M329.9-154.3a8.2 8.2 0 1 1 0-16.4 8.2 8.2 0 0 1 0 16.4" fill="#457b9dAF"/><path d="M-111.7-244.7a8.2 8.2 0 1 1 0-16.4 8.2 8.2 0 0 1 0 16.4" fill="#e63946AF"/><path d="M-125.7-201.8a8.2 8.2 0 1 1 0-16.4 8.2 8.2 0 0 1 0 16.4" fill="#1d3557AF"/><path d="M-127.1-196.5a8.2 8.2 0 1 1 0-16.4 8.2 8.2 0 0 1 0 16.4" fill="#457b9dB0"/><path d="M-21.4 42.7a8.3 8.3 0 1 1 0-16.6 8.3 8.3 0 0 1 0 16.6" fill="#1d3557B0"/><path d="M153.9-379.4a8.3 8.3 0 1 1 0-16.6 8.3 8.3 0 0 1 0 16.6" fill="#a8dadcB1"/><path d="M132.7-383.8a8.3 8.3 0 1 1 0-16.6 8.3 8.3 0 0 1 0 16.6" fill="#a8dadcB1"/><path d="M-100.1-271.6a8.3 8.3 0 1 1 0-16.6 8.3 8.3 0 0 1 0 16.6" fill="#e63946B1"/><path d="M324.1-91.1a8.4 8.4 0 1 1 0-16.7 8.4 8.4 0 0 1 0 16.7" fill="#f1faeeB2"/><path d="M249.3 25.2a8.4 8.4 0 1 1 0-16.8 8.4 8.4 0 0 1 0 16.8" fill="#e63946B3"/><path d="M215.1-357.1a8.4 8.4 0 1 1 0-16.8 8.4 8.4 0 0 1 0 16.8" fill="#f1faeeB3"/><path d="M292.4-287.4a8.5 8.5 0 1 1 0-16.9 8.5 8.5 0 0 1 0 16.9" fill="#457b9dB5"/><path d="M-133.3-179.1a8.5 8.5 0 1 1 0-17 8.5 8.5 0 0 1 0 17" fill="#a8dadcB6"/><path d="M-2.3 57.5a8.5 8.5 0 1 1 0-17.1 8.5 8.5 0 0 1 0 17.1" fill="#f1faeeB7"/><path d="M3 60a8.6 8.6 0 1 1 0-17.1 8.6 8.6 0 0 1 0 17.1" fill="#a8dadcB7"/><path d="M59.7 78.1a8.6 8.6 0 1 1 0-17.2 8.6 8.6 0 0 1 0 17.2" fill="#f1faeeB8"/><path d="M-113.7-252.8a8.6 8.6 0 1 1 0-17.3 8.6 8.6 0 0 1 0 17.3" fill="#f1faeeB8"/><path d="M283.4-302.2a8.7 8.7 0 1 1 0-17.4 8.7 8.7 0 0 1 0 17.4" fill="#a8dadcBA"/><path d="M200.7 59.6a8.7 8.7 0 1 1 0-17.4 8.7 8.7 0 0 1 0 17.4" fill="#f1faeeBA"/><path d="M189.9 64.5a8.7 8.7 0 1 1 0-17.5 8.7 8.7 0 0 1 0 17.5" fill="#f1faeeBB"/><path d="M209.6-362.9a8.8 8.8 0 1 1 0-17.6 8.8 8.8 0 0 1 0 17.6" fill="#a8dadcBC"/><path d="M134.2 80a8.8 8.8 0 1 1 0-17.6 8.8 8.8 0 0 1 0 17.6" fill="#a8dadcBC"/><path d="M-93-17.4a8.9 8.9 0 1 1 0-17.7 8.9 8.9 0 0 1 0 17.7" fill="#e63946BD"/><path d="M315.2-56.2a8.9 8.9 0 1 1 0-17.9 8.9 8.9 0 0 1 0 17.9" fill="#a8dadcBF"/><path d="M81.8-389a8.9 8.9 0 1 1 0-17.9 8.9 8.9 0 0 1 0 17.9" fill="#f1faeeBF"/><path d="M186.8-373.2a9 9 0 1 1 0-17.9 9 9 0 0 1 0 17.9" fill="#e63946C0"/><path d="M106.1-389.6a9 9 0 1 1 0-17.9 9 9 0 0 1 0 17.9" fill="#1d3557C0"/><path d="M-99.5-279.4a9 9 0 1 1 0-18 9 9 0 0 1 0 18" fill="#457b9dC1"/><path d="M-18.8-357.3a9 9 0 1 1 0-18 9 9 0 0 1 0 18" fill="#457b9dC1"/><path d="M-135.3-138.2a9.1 9.1 0 1 1 0-18.1 9.1 9.1 0 0 1 0 18.1" fill="#e63946C2"/><path d="M-44.6-339.4a9.1 9.1 0 1 1 0-18.2 9.1 9.1 0 0 1 0 18.2" fill="#f1faeeC2"/><path d="M329.3-99.6a9.1 9.1 0 1 1 0-18.2 9.1 9.1 0 0 1 0 18.2" fill="#1d3557C3"/><path d="M44.9 75.5a9.1 9.1 0 1 1 0-18.2 9.1 9.1 0 0 1 0 18.2" fill="#457b9dC3"/><path d="M-60-326.1a9.1 9.1 0 1 1 0-18.2 9.1 9.1 0 0 1 0 18.2" fill="#457b9dC3"/><path d="M91.2 81a9.2 9.2 0 1 1 0-18.5 9.2 9.2 0 0 1 0 18.5" fill="#f1faeeC6"/><path d="M334.3-158a9.2 9.2 0 1 1 0-18.5 9.2 9.2 0 0 1 0 18.5" fill="#f1faeeC6"/><path d="M72 79.2a9.2 9.2 0 1 1 0-18.5 9.2 9.2 0 0 1 0 18.5" fill="#f1faeeC6"/><path d="M182.5-371.7a9.3 9.3 0 1 1 0-18.6 9.3 9.3 0 0 1 0 18.6" fill="#e63946C7"/><path d="M-128.4-105.8a9.3 9.3 0 1 1 0-18.7 9.3 9.3 0 0 1 0 18.7" fill="#1d3557C8"/><path d="M228.6 41.3a9.3 9.3 0 1 1 0-18.7 9.3 9.3 0 0 1 0 18.7" fill="#1d3557C8"/><path d="M-121.4-81a9.4 9.4 0 1 1 0-18.7 9.4 9.4 0 0 1 0 18.7" fill="#e63946C8"/><path d="M-72.3-309.7a9.4 9.4 0 1 1 0-18.7 9.4 9.4 0 0 1 0 18.7" fill="#1d3557C9"/><path d="M-56.8 18.9a9.4 9.4 0 1 1 0-18.8 9.4 9.4 0 0 1 0 18.8" fill="#f1faeeC9"/><path d="M293.3-24.1a9.4 9.4 0 1 1 0-18.8 9.4 9.4 0 0 1 0 18.8" fill="#1d3557C9"/><path d="M318.7-80.2a9.5 9.5 0 1 1 0-19.1 9.5 9.5 0 0 1 0 19.1" fill="#457b9dCC"/><path d="M298.4-36a9.5 9.5 0 1 1 0-19.1 9.5 9.5 0 0 1 0 19.1" fill="#e63946CC"/><path d="M145.5-378.6a9.5 9.5 0 1 1 0-19 9.5 9.5 0 0 1 0 19" fill="#1d3557CC"/><path d="M-97.7-36.1a9.6 9.6 0 1 1 0-19.1 9.6 9.6 0 0 1 0 19.1" fill="#1d3557CD"/><path d="M17.6-367a9.6 9.6 0 1 1 0-19.2 9.6 9.6 0 0 1 0 19.2" fill="#e63946CD"/><path d="M214.5 45.6a9.6 9.6 0 1 1 0-19.1 9.6 9.6 0 0 1 0 19.1" fill="#a8dadcCD"/><path d="M295.7-270a9.6 9.6 0 1 1 0-19.3 9.6 9.6 0 0 1 0 19.3" fill="#1d3557CE"/><path d="M170.4 64a9.6 9.6 0 1 1 0-19.2 9.6 9.6 0 0 1 0 19.2" fill="#f1faeeCE"/><path d="M-92.5-274.3a9.6 9.6 0 1 1 0-19.3 9.6 9.6 0 0 1 0 19.3" fill="#457b9dCF"/><path d="M60.8-376.6a9.7 9.7 0 1 1 0-19.3 9.7 9.7 0 0 1 0 19.3" fill="#a8dadcCF"/><path d="M323.9-189.9a9.7 9.7 0 1 1 0-19.4 9.7 9.7 0 0 1 0 19.4" fill="#457b9dD0"/><path d="M83.2 73.1a9.7 9.7 0 1 1 0-19.4 9.7 9.7 0 0 1 0 19.4" fill="#a8dadcD0"/><path d="M-106.2-246.7a9.7 9.7 0 1 1 0-19.4 9.7 9.7 0 0 1 0 19.4" fill="#e63946D0"/><path d="M323-191.3a9.7 9.7 0 1 1 0-19.4 9.7 9.7 0 0 1 0 19.4" fill="#e63946D0"/><path d="M253.3-316.8a9.8 9.8 0 1 1 0-19.6 9.8 9.8 0 0 1 0 19.6" fill="#457b9dD2"/><path d="M4.8 50.4a9.8 9.8 0 1 1 0-19.6 9.8 9.8 0 0 1 0 19.6" fill="#1d3557D2"/><path d="M208.1-348.8a9.8 9.8 0 1 1 0-19.6 9.8 9.8 0 0 1 0 19.6" fill="#e63946D2"/><path d="M137.2 67.9a9.8 9.8 0 1 1 0-19.6 9.8 9.8 0 0 1 0 19.6" fill="#f1faeeD2"/><path d="M210.3 40.6a9.9 9.9 0 1 1 0-19.7 9.9 9.9 0 0 1 0 19.7" fill="#e63946D3"/><path d="M271.2-291.2a9.9 9.9 0 1 1 0-19.9 9.9 9.9 0 0 1 0 19.9" fill="#e63946D5"/><path d="M263.7-6.3a9.9 9.9 0 1 1 0-19.9 9.9 9.9 0 0 1 0 19.9" fill="#457b9dD5"/><path d="M-75.8-21.8a10 10 0 1 1 0-20 10 10 0 0 1 0 20" fill="#457b9dD6"/><path d="M-4.1-343.2a10 10 0 1 1 0-20.1 10 10 0 0 1 0 20.1" fill="#f1faeeD7"/><path d="M-98.7-64.7a10 10 0 1 1 0-20 10 10 0 0 1 0 20" fill="#f1faeeD7"/><path d="M-116-135.1a10 10 0 1 1 0-20 10 10 0 0 1 0 20" fill="#a8dadcD7"/><path d="M163-358.8a10.1 10.1 0 1 1 0-20.1 10.1 10.1 0 0 1 0 20.1" fill="#e63946D8"/><path d="M-10.2 32.8a10.1 10.1 0 1 1 0-20.2 10.1 10.1 0 0 1 0 20.2" fill="#457b9dD8"/><path d="M304.3-84.6a10.1 10.1 0 1 1 0-20.2 10.1 10.1 0 0 1 0 20.2" fill="#457b9dD8"/><path d="M76.7-364.1a10.1 10.1 0 1 1 0-20.3 10.1 10.1 0 0 1 0 20.3" fill="#1d3557DA"/><path d="M-55.9-295.8a10.2 10.2 0 1 1 0-20.4 10.2 10.2 0 0 1 0 20.4" fill="#e63946DA"/><path d="M167.2 46.7a10.2 10.2 0 1 1 0-20.4 10.2 10.2 0 0 1 0 20.4" fill="#e63946DB"/><path d="M309.8-153.3a10.2 10.2 0 1 1 0-20.5 10.2 10.2 0 0 1 0 20.5" fill="#f1faeeDB"/><path d="M97.6-362.1a10.2 10.2 0 1 1 0-20.4 10.2 10.2 0 0 1 0 20.4" fill="#e63946DB"/><path d="M24.8-346.5a10.3 10.3 0 1 1 0-20.5 10.3 10.3 0 0 1 0 20.5" fill="#e63946DC"/><path d="M-32.5 8.4a10.3 10.3 0 1 1 0-20.5 10.3 10.3 0 0 1 0 20.5" fill="#e63946DC"/><path d="M221.1-319a10.3 10.3 0 1 1 0-20.6 10.3 10.3 0 0 1 0 20.6" fill="#1d3557DD"/><path d="M25.2-344.1a10.3 10.3 0 1 1 0-20.7 10.3 10.3 0 0 1 0 20.7" fill="#f1faeeDD"/><path d="M154-349.7a10.3 10.3 0 1 1 0-20.6 10.3 10.3 0 0 1 0 20.6" fill="#1d3557DE"/><path d="M64.8-352.4a10.4 10.4 0 1 1 0-20.7 10.4 10.4 0 0 1 0 20.7" fill="#1d3557DF"/><path d="M301.4-177.2a10.4 10.4 0 1 1 0-20.8 10.4 10.4 0 0 1 0 20.8" fill="#f1faeeDF"/><path d="M-98.2-185.8a10.4 10.4 0 1 1 0-20.8 10.4 10.4 0 0 1 0 20.8" fill="#f1faeeE0"/><path d="M-14.2 12.8a10.4 10.4 0 1 1 0-20.8 10.4 10.4 0 0 1 0 20.8" fill="#f1faeeE0"/><path d="M133.1-346.9a10.5 10.5 0 1 1 0-21 10.5 10.5 0 0 1 0 21" fill="#1d3557E1"/><path d="M266.4-49.4a10.5 10.5 0 1 1 0-21 10.5 10.5 0 0 1 0 21" fill="#1d3557E2"/><path d="M-63.8-256.7a10.5 10.5 0 1 1 0-21.1 10.5 10.5 0 0 1 0 21.1" fill="#a8dadcE2"/><path d="M273.2-236.1a10.6 10.6 0 1 1 0-21.1 10.6 10.6 0 0 1 0 21.1" fill="#f1faeeE3"/><path d="M134.9 37.2a10.6 10.6 0 1 1 0-21.1 10.6 10.6 0 0 1 0 21.1" fill="#e63946E3"/><path d="M216.3 0.4a10.6 10.6 0 1 1 0-21.2 10.6 10.6 0 0 1 0 21.2" fill="#e63946E4"/><path d="M-83.6-198.4a10.6 10.6 0 1 1 0-21.3 10.6 10.6 0 0 1 0 21.3" fill="#a8dadcE4"/><path d="M206 2.7a10.7 10.7 0 1 1 0-21.3 10.7 10.7 0 0 1 0 21.3" fill="#1d3557E5"/><path d="M-59-56.6a10.7 10.7 0 1 1 0-21.4 10.7 10.7 0 0 1 0 21.4" fill="#457b9dE6"/><path d="M108.2 30.7a10.7 10.7 0 1 1 0-21.5 10.7 10.7 0 0 1 0 21.5" fill="#a8dadcE7"/><path d="M-2.6-1.1a10.7 10.7 0 1 1 0-21.5 10.7 10.7 0 0 1 0 21.5" fill="#457b9dE7"/><path d="M-63.1-213a10.9 10.9 0 1 1 0-21.7 10.9 10.9 0 0 1 0 21.7" fill="#a8dadcE9"/><path d="M9.4-4.6a10.9 10.9 0 1 1 0-21.7 10.9 10.9 0 0 1 0 21.7" fill="#1d3557EA"/><path d="M-56.8-199.2a11 11 0 1 1 0-22 11 11 0 0 1 0 22" fill="#1d3557EC"/><path d="M219.1-261.9a11 11 0 1 1 0-22 11 11 0 0 1 0 22" fill="#a8dadcED"/><path d="M216.5-53.3a11.1 11.1 0 1 1 0-22.3 11.1 11.1 0 0 1 0 22.3" fill="#a8dadcEF"/><path d="M203.5-50.9a11.2 11.2 0 1 1 0-22.4 11.2 11.2 0 0 1 0 22.4" fill="#f1faeeF1"/><path d="M140.3-14.9a11.2 11.2 0 1 1 0-22.4 11.2 11.2 0 0 1 0 22.4" fill="#a8dadcF1"/><path d="M200.3-50.8a11.2 11.2 0 1 1 0-22.4 11.2 11.2 0 0 1 0 22.4" fill="#e63946F1"/><path d="M-21.4-85.5a11.3 11.3 0 1 1 0-22.5 11.3 11.3 0 0 1 0 22.5" fill="#457b9dF2"/><path d="M0.1-241.3a11.3 11.3 0 1 1 0-22.6 11.3 11.3 0 0 1 0 22.6" fill="#a8dadcF3"/><path d="M-16.6-210.2a11.3 11.3 0 1 1 0-22.6 11.3 11.3 0 0 1 0 22.6" fill="#1d3557F4"/><path d="M162.2-264.1a11.3 11.3 0 1 1 0-22.7 11.3 11.3 0 0 1 0 22.7" fill="#1d3557F4"/><path d="M-12.1-131.5a11.4 11.4 0 1 1 0-22.9 11.4 11.4 0 0 1 0 22.9" fill="#a8dadcF6"/><path d="M158-245.2a11.5 11.5 0 1 1 0-22.9 11.5 11.5 0 0 1 0 22.9" fill="#1d3557F7"/><path d="M199.5-156.3a11.5 11.5 0 1 1 0-23 11.5 11.5 0 0 1 0 23" fill="#a8dadcF8"/><path d="M189.8-193.5a11.5 11.5 0 1 1 0-23.1 11.5 11.5 0 0 1 0 23.1" fill="#f1faeeF8"/><path d="M130.1-241.7a11.6 11.6 0 1 1 0-23.2 11.6 11.6 0 0 1 0 23.2" fill="#457b9dF9"/><path d="M93.8-58a11.6 11.6 0 1 1 0-23.1 11.6 11.6 0 0 1 0 23.1" fill="#457b9dF9"/><path d="M64.2-228.6a11.6 11.6 0 1 1 0-23.3 11.6 11.6 0 0 1 0 23.3" fill="#1d3557FA"/><path d="M104.8-231.6a11.6 11.6 0 1 1 0-23.3 11.6 11.6 0 0 1 0 23.3" fill="#e63946FB"/><path d="M126-87.8a11.7 11.7 0 1 1 0-23.4 11.7 11.7 0 0 1 0 23.4" fill="#457b9dFC"/><path d="M79.3-87.2a11.7 11.7 0 1 1 0-23.4 11.7 11.7 0 0 1 0 23.4" fill="#e63946FC"/><path d="M54.4-114a11.7 11.7 0 1 1 0-23.4 11.7 11.7 0 0 1 0 23.4" fill="#a8dadcFC"/><path d="M74-111.1a11.8 11.8 0 1 1 0-23.5 11.8 11.8 0 0 1 0 23.5" fill="#1d3557FD"/><path d="M115.3-107.7a11.8 11.8 0 1 1 0-23.6 11.8 11.8 0 0 1 0 23.6" fill="#457b9dFD"/><path d="M93.8-178a11.8 11.8 0 1 1 0-23.6 11.8 11.8 0 0 1 0 23.6" fill="#f1faeeFE"/><path d="M119.8-142.2a11.8 11.8 0 1 1 0-23.6 11.8 11.8 0 0 1 0 23.6" fill="#e63946FE"/></g></svg>