<svg width="1200" height="675" viewBox="-500 -500 1200 675" xmlns="http://www.w3.org/2000/svg"><path d="M-500-500h1200v675h-1200z" fill="#000"/><style>.sparkles path{stroke-linecap:round; stroke-width:1}</style><g class="sparkles"><path d="M100-162.5l-3.7-19.1" stroke="#fff50032"/><path d="M100-162.5l26.7 4.2" stroke="#c2e1ff32"/><path d="M100-162.5l3.7 58.8" stroke="#fff33"/><path d="M100-162.5l67.2 38.1" stroke="#fff50034"/><path d="M100-162.5l-30.7-80.7" stroke="#fff35"/><path d="M100-162.5l51.7-86.3" stroke="#005bbb36"/><path d="M100-162.5l-99.5-24" stroke="#c2e1ff36"/><path d="M100-162.5l-73-82.6" stroke="#c2e1ff37"/><path d="M100-162.5l-9.8-114.3" stroke="#c2e1ff38"/><path d="M100-162.5l-93-67.3" stroke="#c2e1ff38"/><path d="M100-162.5l109.3-37.4" stroke="#fff50038"/><path d="M100-162.5l110.3 51.5" stroke="#fff50039"/><path d="M100-162.5l13.4 129" stroke="#fff3A"/><path d="M100-162.5l108.2-71.7" stroke="#005bbb3A"/><path d="M100-162.5l136.8 5.5" stroke="#fff5003B"/><path d="M100-162.5l-83.8 108.7" stroke="#fff5003B"/><path d="M100-162.5l-138.9 4.6" stroke="#fff3B"/><path d="M100-162.5l9.6 144" stroke="#fff3C"/><path d="M100-162.5l88 114.6" stroke="#fff3C"/><path d="M100-162.5l-147.9-7.6" stroke="#fff3D"/><path d="M100-162.5l127.2-83.8" stroke="#005bbb3D"/><path d="M100-162.5l-89.1-123.8" stroke="#c2e1ff3D"/><path d="M100-162.5l140.2 60.7" stroke="#005bbb3D"/><path d="M100-162.5l146.2-52" stroke="#fff5003E"/><path d="M100-162.5l-80.3-141.6" stroke="#fff5003F"/><path d="M100-162.5l-35.8-159.1" stroke="#c2e1ff3F"/><path d="M100-162.5l22.8-165.2" stroke="#005bbb40"/><path d="M100-162.5l167.9-35.9" stroke="#c2e1ff41"/><path d="M100-162.5l-37-171.5" stroke="#c2e1ff42"/><path d="M100-162.5l-140.5 107.9" stroke="#fff50042"/><path d="M100-162.5l151.1 95.5" stroke="#fff43"/><path d="M100-162.5l15.8-178.8" stroke="#c2e1ff43"/><path d="M100-162.5l-149.1 100.3" stroke="#005bbb43"/><path d="M100-162.5l98.6-156.4" stroke="#fff50044"/><path d="M100-162.5l56.2 176.6" stroke="#c2e1ff44"/><path d="M100-162.5l-186-1.9" stroke="#fff45"/><path d="M100-162.5l-146.3-122.3" stroke="#c2e1ff46"/><path d="M100-162.5l174.6 77.5" stroke="#fff50046"/><path d="M100-162.5l-135 137.8" stroke="#c2e1ff47"/><path d="M100-162.5l40.1-188.9" stroke="#fff47"/><path d="M100-162.5l-195.3-4.8" stroke="#005bbb47"/><path d="M100-162.5l85.5 178.7" stroke="#fff48"/><path d="M100-162.5l13.2-197.7" stroke="#c2e1ff48"/><path d="M100-162.5l91.2 176.2" stroke="#005bbb48"/><path d="M100-162.5l176 93.6" stroke="#fff49"/><path d="M100-162.5l-201.6 0.8" stroke="#c2e1ff49"/><path d="M100-162.5l145.6-142.9" stroke="#fff5004A"/><path d="M100-162.5l-163.5 123.4" stroke="#fff5004B"/><path d="M100-162.5l204.8 20.7" stroke="#fff4B"/><path d="M100-162.5l181.6-102.7" stroke="#005bbb4C"/><path d="M100-162.5l-185.4-99.7" stroke="#c2e1ff4D"/><path d="M100-162.5l-187.5 111" stroke="#005bbb50"/><path d="M100-162.5l211-66.7" stroke="#fff50052"/><path d="M100-162.5l150.3 162.8" stroke="#fff50052"/><path d="M100-162.5l-222.6 0.7" stroke="#005bbb53"/><path d="M100-162.5l212.6-66" stroke="#fff53"/><path d="M100-162.5l38.2 221.2" stroke="#005bbb54"/><path d="M100-162.5l-189.3-121" stroke="#fff50054"/><path d="M100-162.5l-69.1-215" stroke="#fff55"/><path d="M100-162.5l185.4 130.8" stroke="#c2e1ff56"/><path d="M100-162.5l-3.8-226.9" stroke="#c2e1ff56"/><path d="M100-162.5l184.9-132.6" stroke="#fff50056"/><path d="M100-162.5l-203-105.7" stroke="#fff50057"/><path d="M100-162.5l193.3-123" stroke="#005bbb57"/><path d="M100-162.5l209.2-93.6" stroke="#fff50057"/><path d="M100-162.5l0.7-230.4" stroke="#fff50058"/><path d="M100-162.5l-190.4 130.1" stroke="#fff50059"/><path d="M100-162.5l-138-187.5" stroke="#fff5005B"/><path d="M100-162.5l-83.8 217.3" stroke="#fff5005B"/><path d="M100-162.5l181.1 147.5" stroke="#fff5C"/><path d="M100-162.5l229.8-43.4" stroke="#fff5C"/><path d="M100-162.5l184.1 147.1" stroke="#005bbb60"/><path d="M100-162.5l205.9-114.5" stroke="#fff60"/><path d="M100-162.5l193 135.5" stroke="#fff61"/><path d="M100-162.5l-234.8-22.9" stroke="#005bbb61"/><path d="M100-162.5l-62.6 227.6" stroke="#fff50062"/><path d="M100-162.5l-35.3-233.4" stroke="#fff62"/><path d="M100-162.5l-233.1-37.5" stroke="#c2e1ff62"/><path d="M100-162.5l121 202.8" stroke="#c2e1ff62"/><path d="M100-162.5l-225.9 68.8" stroke="#c2e1ff62"/><path d="M100-162.5l-234.4 29.5" stroke="#005bbb63"/><path d="M100-162.5l186.6-144.8" stroke="#fff65"/><path d="M100-162.5l19.1 235.4" stroke="#005bbb65"/><path d="M100-162.5l230.6 50.1" stroke="#fff50066"/><path d="M100-162.5l-186.7-144.3" stroke="#c2e1ff66"/><path d="M100-162.5l-221.2 81.4" stroke="#005bbb67"/><path d="M100-162.5l231.2 44.9" stroke="#fff67"/><path d="M100-162.5l160.2 172.6" stroke="#fff50068"/><path d="M100-162.5l89.3-217.7" stroke="#005bbb68"/><path d="M100-162.5l231.1 44.5" stroke="#005bbb68"/><path d="M100-162.5l232.2-37.4" stroke="#c2e1ff68"/><path d="M100-162.5l139.4 189.4" stroke="#c2e1ff68"/><path d="M100-162.5l219.4 81.5" stroke="#fff5006A"/><path d="M100-162.5l-215.4-90.6" stroke="#005bbb6B"/><path d="M100-162.5l-171.7 156.8" stroke="#c2e1ff6C"/><path d="M100-162.5l-162.4 166.4" stroke="#005bbb6C"/><path d="M100-162.5l-231.4-20" stroke="#c2e1ff6D"/><path d="M100-162.5l-219.8-73.8" stroke="#fff6D"/><path d="M100-162.5l-191.2-129.9" stroke="#c2e1ff6E"/><path d="M100-162.5l-214.3 82.4" stroke="#005bbb6F"/><path d="M100-162.5l-95.1-208.9" stroke="#005bbb6F"/><path d="M100-162.5l-180.4 141.7" stroke="#005bbb6F"/><path d="M100-162.5l-225-28.4" stroke="#fff71"/><path d="M100-162.5l-65.7-216.8" stroke="#005bbb72"/><path d="M100-162.5l2.4-225.9" stroke="#c2e1ff72"/><path d="M100-162.5l21.3 224.7" stroke="#c2e1ff72"/><path d="M100-162.5l214.4 65.7" stroke="#fff73"/><path d="M100-162.5l174-141.3" stroke="#fff50073"/><path d="M100-162.5l-193.4 112.7" stroke="#fff50074"/><path d="M100-162.5l222.2 18.7" stroke="#fff50074"/><path d="M100-162.5l131.8-178.1" stroke="#c2e1ff75"/><path d="M100-162.5l-201.8 88.9" stroke="#005bbb75"/><path d="M100-162.5l-65.5-210.3" stroke="#fff50076"/><path d="M100-162.5l218.1 28.6" stroke="#c2e1ff76"/><path d="M100-162.5l-187.7 114.6" stroke="#c2e1ff76"/><path d="M100-162.5l-71 208" stroke="#fff50076"/><path d="M100-162.5l-34.8 216.4" stroke="#fff50076"/><path d="M100-162.5l-28.4-217" stroke="#fff76"/><path d="M100-162.5l216.9 0" stroke="#005bbb77"/><path d="M100-162.5l133.8-170.4" stroke="#fff50077"/><path d="M100-162.5l206.6 64.9" stroke="#fff50077"/><path d="M100-162.5l-156.6-149.3" stroke="#005bbb78"/><path d="M100-162.5l-36.6 210.2" stroke="#c2e1ff79"/><path d="M100-162.5l22.9 210.3" stroke="#fff5007A"/><path d="M100-162.5l-111.8-179.4" stroke="#005bbb7A"/><path d="M100-162.5l-185-101.8" stroke="#c2e1ff7A"/><path d="M100-162.5l96.3-187.7" stroke="#c2e1ff7A"/><path d="M100-162.5l94.3 186.2" stroke="#005bbb7B"/><path d="M100-162.5l-200.4-54.3" stroke="#c2e1ff7B"/><path d="M100-162.5l-99.9 178.8" stroke="#fff7C"/><path d="M100-162.5l-137.1 149.1" stroke="#fff7D"/><path d="M100-162.5l-196.1 44.2" stroke="#005bbb7E"/><path d="M100-162.5l-176.7 95.8" stroke="#005bbb7E"/><path d="M100-162.5l126.5-156.1" stroke="#fff5007E"/><path d="M100-162.5l-100.2 164.5" stroke="#fff80"/><path d="M100-162.5l-161.8 100.2" stroke="#fff81"/><path d="M100-162.5l74.2 173.6" stroke="#005bbb82"/><path d="M100-162.5l145.4-119.5" stroke="#c2e1ff82"/><path d="M100-162.5l37.7-183.8" stroke="#fff82"/><path d="M100-162.5l155.8-99.7" stroke="#c2e1ff83"/><path d="M100-162.5l175.1 54.2" stroke="#fff50083"/><path d="M100-162.5l104.9 149" stroke="#005bbb83"/><path d="M100-162.5l-11.7 181.8" stroke="#fff83"/><path d="M100-162.5l-163.2-78.4" stroke="#fff50084"/><path d="M100-162.5l179.8-15.3" stroke="#fff50084"/><path d="M100-162.5l70.5-166" stroke="#fff50084"/><path d="M100-162.5l158.1-82.2" stroke="#c2e1ff84"/><path d="M100-162.5l-146.8-94.3" stroke="#fff85"/><path d="M100-162.5l-69.1-160.2" stroke="#fff50085"/><path d="M100-162.5l-75.2-154.5" stroke="#fff50086"/><path d="M100-162.5l-146.3-90" stroke="#005bbb86"/><path d="M100-162.5l171.6-0.2" stroke="#005bbb86"/><path d="M100-162.5l-164.8-19.8" stroke="#fff87"/><path d="M100-162.5l-90.9-134.6" stroke="#c2e1ff88"/><path d="M100-162.5l56-151.8" stroke="#c2e1ff88"/><path d="M100-162.5l-94.7 130.2" stroke="#005bbb88"/><path d="M100-162.5l155.5-20.6" stroke="#c2e1ff89"/><path d="M100-162.5l151.2 33.3" stroke="#005bbb89"/><path d="M100-162.5l-106.1 104.4" stroke="#005bbb8A"/><path d="M100-162.5l135.4 59.7" stroke="#005bbb8A"/><path d="M100-162.5l-78.6-121" stroke="#c2e1ff8B"/><path d="M100-162.5l-94.7 104.3" stroke="#fff8C"/><path d="M100-162.5l87-101.6" stroke="#005bbb8D"/><path d="M100-162.5l-121.3 51.3" stroke="#fff5008D"/><path d="M100-162.5l-116.8-59.2" stroke="#c2e1ff8D"/><path d="M100-162.5l-96.9-84.2" stroke="#fff5008D"/><path d="M100-162.5l95.1-86" stroke="#c2e1ff8D"/><path d="M100-162.5l89.9-65.9" stroke="#c2e1ff90"/><path d="M100-162.5l102.6-27.8" stroke="#005bbb90"/><path d="M100-162.5l78.5 71.5" stroke="#005bbb90"/><path d="M100-162.5l89.1 53" stroke="#fff50090"/><path d="M100-162.5l87.9-54.1" stroke="#005bbb90"/><path d="M100-162.5l91.9-37.9" stroke="#005bbb91"/><path d="M100-162.5l-20.8-95" stroke="#c2e1ff91"/><path d="M100-162.5l-72.5 49.6" stroke="#fff50092"/><path d="M100-162.5l-79.8 9.5" stroke="#fff50093"/><path d="M100-162.5l12.8-73.6" stroke="#c2e1ff93"/><path d="M100-162.5l-53.2-51.7" stroke="#005bbb93"/><path d="M100-162.5l49.1-51.3" stroke="#c2e1ff93"/><path d="M100-162.5l54.6 16.9" stroke="#fff94"/><path d="M100-162.5l-12.1 53.2" stroke="#c2e1ff94"/></g><g class="sparcs"><path d="M96.3-175.7a5.9 5.9 0 1 1 0-11.8 5.9 5.9 0 0 1 0 11.8" fill="#c2e1ff7D"/><path d="M126.7-152.4a5.9 5.9 0 1 1 0-11.8 5.9 5.9 0 0 1 0 11.8" fill="#c2e1ff7D"/><path d="M103.7-97.7a6 6 0 1 1 0-12 6 6 0 0 1 0 12" fill="#fff5007F"/><path d="M167.2-118.3a6.1 6.1 0 1 1 0-12.1 6.1 6.1 0 0 1 0 12.1" fill="#fff80"/><path d="M69.3-237a6.1 6.1 0 1 1 0-12.3 6.1 6.1 0 0 1 0 12.3" fill="#005bbb81"/><path d="M151.7-242.6a6.2 6.2 0 1 1 0-12.4 6.2 6.2 0 0 1 0 12.4" fill="#005bbb83"/><path d="M0.5-180.3a6.2 6.2 0 1 1 0-12.4 6.2 6.2 0 0 1 0 12.4" fill="#005bbb83"/><path d="M27-238.9a6.2 6.2 0 1 1 0-12.5 6.2 6.2 0 0 1 0 12.5" fill="#005bbb84"/><path d="M90.2-270.5a6.3 6.3 0 1 1 0-12.5 6.3 6.3 0 0 1 0 12.5" fill="#fff85"/><path d="M7-223.5a6.3 6.3 0 1 1 0-12.5 6.3 6.3 0 0 1 0 12.5" fill="#fff50085"/><path d="M209.3-193.6a6.3 6.3 0 1 1 0-12.6 6.3 6.3 0 0 1 0 12.6" fill="#c2e1ff85"/><path d="M210.3-104.6a6.3 6.3 0 1 1 0-12.7 6.3 6.3 0 0 1 0 12.7" fill="#c2e1ff86"/><path d="M113.4-27.1a6.4 6.4 0 1 1 0-12.8 6.4 6.4 0 0 1 0 12.8" fill="#fff50087"/><path d="M208.2-227.8a6.4 6.4 0 1 1 0-12.8 6.4 6.4 0 0 1 0 12.8" fill="#fff50087"/><path d="M236.8-150.5a6.5 6.5 0 1 1 0-12.9 6.5 6.5 0 0 1 0 12.9" fill="#005bbb89"/><path d="M16.2-47.3a6.5 6.5 0 1 1 0-12.9 6.5 6.5 0 0 1 0 12.9" fill="#fff89"/><path d="M-38.9-151.4a6.5 6.5 0 1 1 0-13 6.5 6.5 0 0 1 0 13" fill="#fff50089"/><path d="M109.6-12a6.5 6.5 0 1 1 0-13 6.5 6.5 0 0 1 0 13" fill="#fff5008A"/><path d="M188-41.4a6.5 6.5 0 1 1 0-13 6.5 6.5 0 0 1 0 13" fill="#fff5008A"/><path d="M-47.9-163.6a6.6 6.6 0 1 1 0-13.1 6.6 6.6 0 0 1 0 13.1" fill="#005bbb8B"/><path d="M227.2-239.7a6.6 6.6 0 1 1 0-13.2 6.6 6.6 0 0 1 0 13.2" fill="#c2e1ff8C"/><path d="M10.9-279.6a6.6 6.6 0 1 1 0-13.3 6.6 6.6 0 0 1 0 13.3" fill="#005bbb8C"/><path d="M240.2-95.2a6.6 6.6 0 1 1 0-13.2 6.6 6.6 0 0 1 0 13.2" fill="#fff5008C"/><path d="M246.2-207.9a6.6 6.6 0 1 1 0-13.3 6.6 6.6 0 0 1 0 13.3" fill="#fff8C"/><path d="M19.7-297.4a6.7 6.7 0 1 1 0-13.4 6.7 6.7 0 0 1 0 13.4" fill="#fff8E"/><path d="M64.2-314.9a6.7 6.7 0 1 1 0-13.4 6.7 6.7 0 0 1 0 13.4" fill="#fff5008E"/><path d="M122.8-320.9a6.8 6.8 0 1 1 0-13.6 6.8 6.8 0 0 1 0 13.6" fill="#fff5008F"/><path d="M267.9-191.6a6.8 6.8 0 1 1 0-13.7 6.8 6.8 0 0 1 0 13.7" fill="#c2e1ff91"/><path d="M63-327.1a6.9 6.9 0 1 1 0-13.8 6.9 6.9 0 0 1 0 13.8" fill="#c2e1ff92"/><path d="M-40.5-47.7a6.9 6.9 0 1 1 0-13.8 6.9 6.9 0 0 1 0 13.8" fill="#fff50093"/><path d="M251.1-60a6.9 6.9 0 1 1 0-13.9 6.9 6.9 0 0 1 0 13.9" fill="#fff50093"/><path d="M115.8-334.4a6.9 6.9 0 1 1 0-13.8 6.9 6.9 0 0 1 0 13.8" fill="#fff50093"/><path d="M-49.1-55.3a6.9 6.9 0 1 1 0-13.9 6.9 6.9 0 0 1 0 13.9" fill="#fff93"/><path d="M198.6-311.8a7 7 0 1 1 0-14.1 7 7 0 0 1 0 14.1" fill="#c2e1ff95"/><path d="M156.2 21.1a7 7 0 1 1 0-14.1 7 7 0 0 1 0 14.1" fill="#c2e1ff95"/><path d="M-86-157.3a7 7 0 1 1 0-14.1 7 7 0 0 1 0 14.1" fill="#005bbb95"/><path d="M-46.3-277.6a7.1 7.1 0 1 1 0-14.3 7.1 7.1 0 0 1 0 14.3" fill="#fff50097"/><path d="M274.6-77.9a7.1 7.1 0 1 1 0-14.2 7.1 7.1 0 0 1 0 14.2" fill="#fff97"/><path d="M-35-17.5a7.2 7.2 0 1 1 0-14.3 7.2 7.2 0 0 1 0 14.3" fill="#c2e1ff98"/><path d="M140.1-344.3a7.2 7.2 0 1 1 0-14.3 7.2 7.2 0 0 1 0 14.3" fill="#005bbb98"/><path d="M-95.3-160.1a7.2 7.2 0 1 1 0-14.4 7.2 7.2 0 0 1 0 14.4" fill="#fff99"/><path d="M185.5 23.4a7.3 7.3 0 1 1 0-14.5 7.3 7.3 0 0 1 0 14.5" fill="#fff9A"/><path d="M113.2-352.9a7.3 7.3 0 1 1 0-14.5 7.3 7.3 0 0 1 0 14.5" fill="#fff9A"/><path d="M191.2 20.9a7.3 7.3 0 1 1 0-14.5 7.3 7.3 0 0 1 0 14.5" fill="#005bbb9A"/><path d="M276-61.6a7.3 7.3 0 1 1 0-14.6 7.3 7.3 0 0 1 0 14.6" fill="#005bbb9B"/><path d="M-101.6-154.4a7.3 7.3 0 1 1 0-14.7 7.3 7.3 0 0 1 0 14.7" fill="#005bbb9C"/><path d="M245.6-298a7.4 7.4 0 1 1 0-14.7 7.4 7.4 0 0 1 0 14.7" fill="#005bbb9D"/><path d="M-63.5-31.8a7.4 7.4 0 1 1 0-14.7 7.4 7.4 0 0 1 0 14.7" fill="#c2e1ff9D"/><path d="M304.8-134.4a7.4 7.4 0 1 1 0-14.8 7.4 7.4 0 0 1 0 14.8" fill="#c2e1ff9E"/><path d="M281.6-257.7a7.5 7.5 0 1 1 0-15 7.5 7.5 0 0 1 0 15" fill="#c2e1ff9F"/><path d="M-85.4-254.7a7.5 7.5 0 1 1 0-15 7.5 7.5 0 0 1 0 15" fill="#fffA0"/><path d="M-87.5-43.8a7.7 7.7 0 1 1 0-15.4 7.7 7.7 0 0 1 0 15.4" fill="#005bbbA4"/><path d="M311-221.4a7.8 7.8 0 1 1 0-15.6 7.8 7.8 0 0 1 0 15.6" fill="#005bbbA7"/><path d="M250.3 8.1a7.8 7.8 0 1 1 0-15.7 7.8 7.8 0 0 1 0 15.7" fill="#005bbbA7"/><path d="M-122.6-153.9a7.9 7.9 0 1 1 0-15.8 7.9 7.9 0 0 1 0 15.8" fill="#005bbbA8"/><path d="M312.6-220.7a7.9 7.9 0 1 1 0-15.7 7.9 7.9 0 0 1 0 15.7" fill="#fffA8"/><path d="M138.2 66.6a7.9 7.9 0 1 1 0-15.9 7.9 7.9 0 0 1 0 15.9" fill="#fffA9"/><path d="M-89.3-275.5a7.9 7.9 0 1 1 0-15.9 7.9 7.9 0 0 1 0 15.9" fill="#fffA9"/><path d="M30.9-369.5a8 8 0 1 1 0-15.9 8 8 0 0 1 0 15.9" fill="#fff500AA"/><path d="M285.4-23.7a8 8 0 1 1 0-16 8 8 0 0 1 0 16" fill="#005bbbAB"/><path d="M96.2-381.4a8 8 0 1 1 0-16 8 8 0 0 1 0 16" fill="#c2e1ffAB"/><path d="M284.9-287a8.1 8.1 0 1 1 0-16.2 8.1 8.1 0 0 1 0 16.2" fill="#c2e1ffAC"/><path d="M-103-260.1a8.1 8.1 0 1 1 0-16.2 8.1 8.1 0 0 1 0 16.2" fill="#c2e1ffAD"/><path d="M293.3-277.3a8.1 8.1 0 1 1 0-16.3 8.1 8.1 0 0 1 0 16.3" fill="#005bbbAE"/><path d="M309.2-247.9a8.1 8.1 0 1 1 0-16.3 8.1 8.1 0 0 1 0 16.3" fill="#fffAE"/><path d="M100.7-384.7a8.2 8.2 0 1 1 0-16.4 8.2 8.2 0 0 1 0 16.4" fill="#005bbbAF"/><path d="M-90.4-24.2a8.2 8.2 0 1 1 0-16.4 8.2 8.2 0 0 1 0 16.4" fill="#fff500AF"/><path d="M-38-341.7a8.4 8.4 0 1 1 0-16.7 8.4 8.4 0 0 1 0 16.7" fill="#c2e1ffB2"/><path d="M16.2 63.2a8.4 8.4 0 1 1 0-16.8 8.4 8.4 0 0 1 0 16.8" fill="#fffB3"/><path d="M281.1-6.6a8.4 8.4 0 1 1 0-16.8 8.4 8.4 0 0 1 0 16.8" fill="#005bbbB4"/><path d="M329.8-197.4a8.4 8.4 0 1 1 0-16.9 8.4 8.4 0 0 1 0 16.9" fill="#fff500B4"/><path d="M284.1-6.8a8.6 8.6 0 1 1 0-17.3 8.6 8.6 0 0 1 0 17.3" fill="#005bbbB9"/><path d="M305.9-268.4a8.6 8.6 0 1 1 0-17.3 8.6 8.6 0 0 1 0 17.3" fill="#005bbbB9"/><path d="M293-18.3a8.7 8.7 0 1 1 0-17.4 8.7 8.7 0 0 1 0 17.4" fill="#fff500BA"/><path d="M-134.8-176.7a8.7 8.7 0 1 1 0-17.4 8.7 8.7 0 0 1 0 17.4" fill="#005bbbBA"/><path d="M37.4 73.9a8.7 8.7 0 1 1 0-17.5 8.7 8.7 0 0 1 0 17.5" fill="#fffBB"/><path d="M64.7-387.2a8.7 8.7 0 1 1 0-17.5 8.7 8.7 0 0 1 0 17.5" fill="#c2e1ffBB"/><path d="M-133.1-191.2a8.8 8.8 0 1 1 0-17.5 8.8 8.8 0 0 1 0 17.5" fill="#fffBB"/><path d="M221 49.1a8.8 8.8 0 1 1 0-17.6 8.8 8.8 0 0 1 0 17.6" fill="#fff500BC"/><path d="M-125.9-84.9a8.8 8.8 0 1 1 0-17.6 8.8 8.8 0 0 1 0 17.6" fill="#005bbbBC"/><path d="M-134.4-124.2a8.8 8.8 0 1 1 0-17.6 8.8 8.8 0 0 1 0 17.6" fill="#fffBD"/><path d="M286.6-298.4a8.9 8.9 0 1 1 0-17.8 8.9 8.9 0 0 1 0 17.8" fill="#fffBF"/><path d="M119.1 81.8a8.9 8.9 0 1 1 0-17.9 8.9 8.9 0 0 1 0 17.9" fill="#c2e1ffBF"/><path d="M330.6-103.4a9 9 0 1 1 0-18 9 9 0 0 1 0 18" fill="#fffC0"/><path d="M-86.7-297.8a9 9 0 1 1 0-18 9 9 0 0 1 0 18" fill="#005bbbC1"/><path d="M-121.2-72.1a9.1 9.1 0 1 1 0-18.1 9.1 9.1 0 0 1 0 18.1" fill="#005bbbC2"/><path d="M331.2-108.5a9.1 9.1 0 1 1 0-18.1 9.1 9.1 0 0 1 0 18.1" fill="#fff500C3"/><path d="M260.2 19.2a9.1 9.1 0 1 1 0-18.2 9.1 9.1 0 0 1 0 18.2" fill="#fff500C3"/><path d="M189.3-371.1a9.1 9.1 0 1 1 0-18.3 9.1 9.1 0 0 1 0 18.3" fill="#fffC3"/><path d="M331.1-108.9a9.1 9.1 0 1 1 0-18.2 9.1 9.1 0 0 1 0 18.2" fill="#fff500C3"/><path d="M332.2-190.7a9.1 9.1 0 1 1 0-18.3 9.1 9.1 0 0 1 0 18.3" fill="#c2e1ffC4"/><path d="M239.4 36.1a9.1 9.1 0 1 1 0-18.3 9.1 9.1 0 0 1 0 18.3" fill="#005bbbC4"/><path d="M319.4-71.7a9.3 9.3 0 1 1 0-18.6 9.3 9.3 0 0 1 0 18.6" fill="#005bbbC6"/><path d="M-115.4-243.8a9.3 9.3 0 1 1 0-18.6 9.3 9.3 0 0 1 0 18.6" fill="#005bbbC7"/><path d="M-71.7 3.7a9.4 9.4 0 1 1 0-18.8 9.4 9.4 0 0 1 0 18.8" fill="#005bbbC9"/><path d="M-62.4 13.3a9.4 9.4 0 1 1 0-18.8 9.4 9.4 0 0 1 0 18.8" fill="#c2e1ffC9"/><path d="M-131.4-173.1a9.4 9.4 0 1 1 0-18.8 9.4 9.4 0 0 1 0 18.8" fill="#005bbbC9"/><path d="M-119.8-226.9a9.4 9.4 0 1 1 0-18.8 9.4 9.4 0 0 1 0 18.8" fill="#c2e1ffCA"/><path d="M-91.2-282.9a9.5 9.5 0 1 1 0-18.9 9.5 9.5 0 0 1 0 18.9" fill="#fffCB"/><path d="M-114.3-70.6a9.6 9.6 0 1 1 0-19.1 9.6 9.6 0 0 1 0 19.1" fill="#005bbbCD"/><path d="M4.9-361.9a9.6 9.6 0 1 1 0-19.1 9.6 9.6 0 0 1 0 19.1" fill="#005bbbCD"/><path d="M-80.4-11.2a9.6 9.6 0 1 1 0-19.1 9.6 9.6 0 0 1 0 19.1" fill="#fff500CD"/><path d="M-125-181.2a9.7 9.7 0 1 1 0-19.3 9.7 9.7 0 0 1 0 19.3" fill="#fffD0"/><path d="M34.3-369.6a9.7 9.7 0 1 1 0-19.4 9.7 9.7 0 0 1 0 19.4" fill="#005bbbD0"/><path d="M102.4-378.6a9.7 9.7 0 1 1 0-19.5 9.7 9.7 0 0 1 0 19.5" fill="#fffD1"/><path d="M121.3 71.9a9.7 9.7 0 1 1 0-19.4 9.7 9.7 0 0 1 0 19.4" fill="#fffD1"/><path d="M314.4-87a9.8 9.8 0 1 1 0-19.6 9.8 9.8 0 0 1 0 19.6" fill="#005bbbD2"/><path d="M274-294a9.8 9.8 0 1 1 0-19.6 9.8 9.8 0 0 1 0 19.6" fill="#fff500D2"/><path d="M-93.4-40a9.8 9.8 0 1 1 0-19.6 9.8 9.8 0 0 1 0 19.6" fill="#c2e1ffD2"/><path d="M322.2-134a9.8 9.8 0 1 1 0-19.7 9.8 9.8 0 0 1 0 19.7" fill="#fffD3"/><path d="M231.8-330.7a9.9 9.9 0 1 1 0-19.8 9.9 9.9 0 0 1 0 19.8" fill="#fff500D4"/><path d="M-101.8-63.7a9.9 9.9 0 1 1 0-19.8 9.9 9.9 0 0 1 0 19.8" fill="#c2e1ffD5"/><path d="M34.5-362.9a9.9 9.9 0 1 1 0-19.9 9.9 9.9 0 0 1 0 19.9" fill="#fffD5"/><path d="M318.1-124a9.9 9.9 0 1 1 0-19.9 9.9 9.9 0 0 1 0 19.9" fill="#fff500D5"/><path d="M-87.7-38a9.9 9.9 0 1 1 0-19.8 9.9 9.9 0 0 1 0 19.8" fill="#005bbbD5"/><path d="M29 55.5a9.9 9.9 0 1 1 0-19.9 9.9 9.9 0 0 1 0 19.9" fill="#005bbbD5"/><path d="M65.2 63.8a10 10 0 1 1 0-19.9 10 10 0 0 1 0 19.9" fill="#c2e1ffD6"/><path d="M71.6-369.5a10 10 0 1 1 0-20 10 10 0 0 1 0 20" fill="#005bbbD6"/><path d="M316.9-152.5a10 10 0 1 1 0-20 10 10 0 0 1 0 20" fill="#c2e1ffD7"/><path d="M233.8-322.8a10 10 0 1 1 0-20.1 10 10 0 0 1 0 20.1" fill="#fff500D7"/><path d="M306.6-87.6a10 10 0 1 1 0-20 10 10 0 0 1 0 20" fill="#005bbbD7"/><path d="M-56.6-301.8a10 10 0 1 1 0-20 10 10 0 0 1 0 20" fill="#c2e1ffD8"/><path d="M63.4 57.8a10.1 10.1 0 1 1 0-20.2 10.1 10.1 0 0 1 0 20.2" fill="#005bbbD9"/><path d="M122.9 58a10.2 10.2 0 1 1 0-20.3 10.2 10.2 0 0 1 0 20.3" fill="#fffDA"/><path d="M-11.8-331.7a10.2 10.2 0 1 1 0-20.3 10.2 10.2 0 0 1 0 20.3" fill="#c2e1ffDB"/><path d="M-85-254.1a10.2 10.2 0 1 1 0-20.4 10.2 10.2 0 0 1 0 20.4" fill="#c2e1ffDB"/><path d="M196.3-340.1a10.2 10.2 0 1 1 0-20.3 10.2 10.2 0 0 1 0 20.3" fill="#c2e1ffDB"/><path d="M194.3 33.9a10.2 10.2 0 1 1 0-20.5 10.2 10.2 0 0 1 0 20.5" fill="#fff500DC"/><path d="M-100.4-206.5a10.3 10.3 0 1 1 0-20.6 10.3 10.3 0 0 1 0 20.6" fill="#005bbbDD"/><path d="M0.1 26.6a10.3 10.3 0 1 1 0-20.6 10.3 10.3 0 0 1 0 20.6" fill="#005bbbDE"/><path d="M-37.1-3a10.4 10.4 0 1 1 0-20.8 10.4 10.4 0 0 1 0 20.8" fill="#fff500DF"/><path d="M-96.1-107.9a10.4 10.4 0 1 1 0-20.8 10.4 10.4 0 0 1 0 20.8" fill="#c2e1ffE0"/><path d="M-76.7-56.3a10.4 10.4 0 1 1 0-20.8 10.4 10.4 0 0 1 0 20.8" fill="#005bbbE0"/><path d="M226.5-308.2a10.4 10.4 0 1 1 0-20.9 10.4 10.4 0 0 1 0 20.9" fill="#fff500E0"/><path d="M-0.2 12.5a10.6 10.6 0 1 1 0-21.1 10.6 10.6 0 0 1 0 21.1" fill="#005bbbE3"/><path d="M-61.8-51.7a10.6 10.6 0 1 1 0-21.2 10.6 10.6 0 0 1 0 21.2" fill="#c2e1ffE4"/><path d="M174.2 21.7a10.6 10.6 0 1 1 0-21.3 10.6 10.6 0 0 1 0 21.3" fill="#005bbbE5"/><path d="M245.4-271.3a10.6 10.6 0 1 1 0-21.3 10.6 10.6 0 0 1 0 21.3" fill="#fffE5"/><path d="M137.7-335.7a10.7 10.7 0 1 1 0-21.3 10.7 10.7 0 0 1 0 21.3" fill="#fffE5"/><path d="M255.8-251.5a10.7 10.7 0 1 1 0-21.4 10.7 10.7 0 0 1 0 21.4" fill="#c2e1ffE6"/><path d="M275.1-97.6a10.7 10.7 0 1 1 0-21.5 10.7 10.7 0 0 1 0 21.5" fill="#fffE7"/><path d="M204.9-2.8a10.7 10.7 0 1 1 0-21.4 10.7 10.7 0 0 1 0 21.4" fill="#fffE7"/><path d="M88.3 30.1a10.7 10.7 0 1 1 0-21.5 10.7 10.7 0 0 1 0 21.5" fill="#005bbbE7"/><path d="M-63.2-230.2a10.8 10.8 0 1 1 0-21.5 10.8 10.8 0 0 1 0 21.5" fill="#fff500E7"/><path d="M279.8-167.1a10.8 10.8 0 1 1 0-21.5 10.8 10.8 0 0 1 0 21.5" fill="#005bbbE7"/><path d="M170.5-317.8a10.8 10.8 0 1 1 0-21.5 10.8 10.8 0 0 1 0 21.5" fill="#005bbbE7"/><path d="M258.1-233.9a10.8 10.8 0 1 1 0-21.6 10.8 10.8 0 0 1 0 21.6" fill="#fffE8"/><path d="M-46.8-245.9a10.9 10.9 0 1 1 0-21.7 10.9 10.9 0 0 1 0 21.7" fill="#c2e1ffE9"/><path d="M30.9-311.8a10.9 10.9 0 1 1 0-21.7 10.9 10.9 0 0 1 0 21.7" fill="#005bbbE9"/><path d="M24.8-306.1a10.9 10.9 0 1 1 0-21.8 10.9 10.9 0 0 1 0 21.8" fill="#fff500EA"/><path d="M-46.3-241.6a10.9 10.9 0 1 1 0-21.8 10.9 10.9 0 0 1 0 21.8" fill="#fff500EA"/><path d="M271.6-151.8a10.9 10.9 0 1 1 0-21.8 10.9 10.9 0 0 1 0 21.8" fill="#fffEA"/><path d="M-64.8-171.4a11 11 0 1 1 0-21.9 11 11 0 0 1 0 21.9" fill="#fffEC"/><path d="M9.1-286.1a11 11 0 1 1 0-22 11 11 0 0 1 0 22" fill="#005bbbED"/><path d="M156-303.3a11 11 0 1 1 0-22 11 11 0 0 1 0 22" fill="#c2e1ffED"/><path d="M5.3-21.3a11 11 0 1 1 0-22 11 11 0 0 1 0 22" fill="#fff500ED"/><path d="M255.5-172.1a11.1 11.1 0 1 1 0-22.1 11.1 11.1 0 0 1 0 22.1" fill="#005bbbEE"/><path d="M251.2-118.1a11.1 11.1 0 1 1 0-22.2 11.1 11.1 0 0 1 0 22.2" fill="#fffEF"/><path d="M-6.1-47a11.2 11.2 0 1 1 0-22.3 11.2 11.2 0 0 1 0 22.3" fill="#c2e1ffF0"/><path d="M235.4-91.6a11.2 11.2 0 1 1 0-22.3 11.2 11.2 0 0 1 0 22.3" fill="#c2e1ffF0"/><path d="M21.4-272.3a11.2 11.2 0 1 1 0-22.4 11.2 11.2 0 0 1 0 22.4" fill="#005bbbF1"/><path d="M5.3-47a11.2 11.2 0 1 1 0-22.5 11.2 11.2 0 0 1 0 22.5" fill="#005bbbF2"/><path d="M187-252.8a11.3 11.3 0 1 1 0-22.6 11.3 11.3 0 0 1 0 22.6" fill="#fffF3"/><path d="M-21.3-99.9a11.3 11.3 0 1 1 0-22.6 11.3 11.3 0 0 1 0 22.6" fill="#005bbbF3"/><path d="M-16.8-210.4a11.3 11.3 0 1 1 0-22.6 11.3 11.3 0 0 1 0 22.6" fill="#fff500F4"/><path d="M3.1-235.4a11.3 11.3 0 1 1 0-22.6 11.3 11.3 0 0 1 0 22.6" fill="#fff500F4"/><path d="M195.1-237.2a11.3 11.3 0 1 1 0-22.7 11.3 11.3 0 0 1 0 22.7" fill="#005bbbF4"/><path d="M189.9-217a11.5 11.5 0 1 1 0-22.9 11.5 11.5 0 0 1 0 22.9" fill="#c2e1ffF7"/><path d="M202.6-178.8a11.5 11.5 0 1 1 0-23 11.5 11.5 0 0 1 0 23" fill="#fff500F8"/><path d="M178.5-79.5a11.5 11.5 0 1 1 0-23 11.5 11.5 0 0 1 0 23" fill="#fffF8"/><path d="M189.1-98a11.5 11.5 0 1 1 0-23.1 11.5 11.5 0 0 1 0 23.1" fill="#fffF8"/><path d="M187.9-205a11.5 11.5 0 1 1 0-23.1 11.5 11.5 0 0 1 0 23.1" fill="#fff500F8"/><path d="M191.9-188.9a11.5 11.5 0 1 1 0-23.1 11.5 11.5 0 0 1 0 23.1" fill="#005bbbF8"/><path d="M79.2-246a11.6 11.6 0 1 1 0-23.1 11.6 11.6 0 0 1 0 23.1" fill="#005bbbF9"/><path d="M27.5-101.3a11.6 11.6 0 1 1 0-23.2 11.6 11.6 0 0 1 0 23.2" fill="#fffFA"/><path d="M20.2-141.3a11.6 11.6 0 1 1 0-23.3 11.6 11.6 0 0 1 0 23.3" fill="#c2e1ffFB"/><path d="M112.8-224.5a11.7 11.7 0 1 1 0-23.3 11.7 11.7 0 0 1 0 23.3" fill="#005bbbFB"/><path d="M46.8-202.5a11.7 11.7 0 1 1 0-23.3 11.7 11.7 0 0 1 0 23.3" fill="#005bbbFB"/><path d="M149.1-202.2a11.7 11.7 0 1 1 0-23.3 11.7 11.7 0 0 1 0 23.3" fill="#005bbbFB"/><path d="M154.6-133.8a11.7 11.7 0 1 1 0-23.5 11.7 11.7 0 0 1 0 23.5" fill="#c2e1ffFD"/><path d="M87.9-97.5a11.7 11.7 0 1 1 0-23.5 11.7 11.7 0 0 1 0 23.5" fill="#005bbbFD"/></g></svg>