<svg width="1200" height="675" viewBox="-500 -500 1200 675" xmlns="http://www.w3.org/2000/svg"><path d="M-500-500h1200v675h-1200z" fill="#000"/><style>.sparkles path{stroke-linecap:round; stroke-width:1}</style><g class="sparkles"><path d="M100-162.5l16.1-3.7" stroke="#fff50032"/><path d="M100-162.5l18-24.5" stroke="#005bbb32"/><path d="M100-162.5l61.1-5.5" stroke="#fff50033"/><path d="M100-162.5l31 65.8" stroke="#005bbb34"/><path d="M100-162.5l-52.7 54.1" stroke="#fff50034"/><path d="M100-162.5l75.7-8.1" stroke="#fff50034"/><path d="M100-162.5l-12.3 76.4" stroke="#005bbb34"/><path d="M100-162.5l12.1 80" stroke="#005bbb35"/><path d="M100-162.5l-79.6-25.5" stroke="#fff50035"/><path d="M100-162.5l-53.9 64.7" stroke="#fff35"/><path d="M100-162.5l-83.2 15.4" stroke="#c2e1ff35"/><path d="M100-162.5l-3.2 90.1" stroke="#fff50035"/><path d="M100-162.5l44.3 83" stroke="#c2e1ff36"/><path d="M100-162.5l87.8 44.8" stroke="#fff36"/><path d="M100-162.5l-78 80.8" stroke="#005bbb38"/><path d="M100-162.5l47.8 113.2" stroke="#c2e1ff39"/><path d="M100-162.5l102.8 69.1" stroke="#fff50039"/><path d="M100-162.5l-116.8 45.7" stroke="#c2e1ff39"/><path d="M100-162.5l-105.9 74.6" stroke="#fff3A"/><path d="M100-162.5l124.6-52.7" stroke="#fff3B"/><path d="M100-162.5l51.4-125.4" stroke="#c2e1ff3B"/><path d="M100-162.5l97.5 109.8" stroke="#fff5003C"/><path d="M100-162.5l128.4-74" stroke="#fff3D"/><path d="M100-162.5l-110.6 107.4" stroke="#fff5003E"/><path d="M100-162.5l116.4 102.1" stroke="#fff3E"/><path d="M100-162.5l42.2 149.7" stroke="#fff3E"/><path d="M100-162.5l-130.1-97.6" stroke="#005bbb3F"/><path d="M100-162.5l-92-136.6" stroke="#fff50040"/><path d="M100-162.5l109.4-128" stroke="#c2e1ff40"/><path d="M100-162.5l165.8 32" stroke="#fff41"/><path d="M100-162.5l99.6-141.7" stroke="#fff42"/><path d="M100-162.5l144.5 96.7" stroke="#fff42"/><path d="M100-162.5l132.6 120.1" stroke="#c2e1ff43"/><path d="M100-162.5l-24.8 177.8" stroke="#c2e1ff43"/><path d="M100-162.5l-181.2 10.7" stroke="#fff43"/><path d="M100-162.5l170.6 64" stroke="#c2e1ff44"/><path d="M100-162.5l139-119.4" stroke="#c2e1ff44"/><path d="M100-162.5l-183.7-2.8" stroke="#c2e1ff44"/><path d="M100-162.5l-0.5 185.1" stroke="#c2e1ff44"/><path d="M100-162.5l160 93.9" stroke="#fff50045"/><path d="M100-162.5l-26.6 183.8" stroke="#c2e1ff45"/><path d="M100-162.5l174-73.4" stroke="#c2e1ff45"/><path d="M100-162.5l77.1 177.4" stroke="#005bbb47"/><path d="M100-162.5l-178.2 75.9" stroke="#005bbb47"/><path d="M100-162.5l-75.7 179.8" stroke="#fff47"/><path d="M100-162.5l182.1-72" stroke="#c2e1ff48"/><path d="M100-162.5l-122.9-154.3" stroke="#fff50048"/><path d="M100-162.5l128.8-149.5" stroke="#fff50048"/><path d="M100-162.5l-200.4 9.9" stroke="#005bbb49"/><path d="M100-162.5l-76.9-185.4" stroke="#fff49"/><path d="M100-162.5l28.6-199" stroke="#005bbb49"/><path d="M100-162.5l35.2-199" stroke="#fff4A"/><path d="M100-162.5l-196.8-46" stroke="#fff4A"/><path d="M100-162.5l168.5 113" stroke="#005bbb4A"/><path d="M100-162.5l90.3-187.1" stroke="#fff5004C"/><path d="M100-162.5l207.7 7.5" stroke="#c2e1ff4C"/><path d="M100-162.5l204-46.4" stroke="#fff5004C"/><path d="M100-162.5l-46.3 204.1" stroke="#fff5004C"/><path d="M100-162.5l98.8 185.5" stroke="#005bbb4D"/><path d="M100-162.5l-120-173.2" stroke="#fff5004D"/><path d="M100-162.5l-76.4-196.8" stroke="#c2e1ff4D"/><path d="M100-162.5l-107.5 182.3" stroke="#fff5004D"/><path d="M100-162.5l28.2 210.5" stroke="#005bbb4E"/><path d="M100-162.5l165.7 135.1" stroke="#fff4E"/><path d="M100-162.5l36.8-213.5" stroke="#fff50"/><path d="M100-162.5l-220.3-33.7" stroke="#fff50053"/><path d="M100-162.5l29.5-223" stroke="#fff54"/><path d="M100-162.5l78.6 210.7" stroke="#fff54"/><path d="M100-162.5l-81.9 209.8" stroke="#c2e1ff54"/><path d="M100-162.5l43.4-222" stroke="#fff50055"/><path d="M100-162.5l107.6-199.1" stroke="#005bbb55"/><path d="M100-162.5l-214.6-74.2" stroke="#005bbb56"/><path d="M100-162.5l19.9-227" stroke="#fff56"/><path d="M100-162.5l-204.3 101.1" stroke="#fff50056"/><path d="M100-162.5l-52.4-222.5" stroke="#c2e1ff57"/><path d="M100-162.5l-80.7-214.7" stroke="#fff50057"/><path d="M100-162.5l230.1 0" stroke="#005bbb58"/><path d="M100-162.5l-190.4 130" stroke="#fff59"/><path d="M100-162.5l-13.6 230.2" stroke="#fff59"/><path d="M100-162.5l59.5 224.8" stroke="#fff5005B"/><path d="M100-162.5l205.2 111.1" stroke="#fff5005C"/><path d="M100-162.5l-176.1 153.3" stroke="#fff5005C"/><path d="M100-162.5l202.1-116.8" stroke="#005bbb5C"/><path d="M100-162.5l-121.8-199.6" stroke="#005bbb5C"/><path d="M100-162.5l-212.8 97.3" stroke="#fff5D"/><path d="M100-162.5l229.2 51.8" stroke="#fff5E"/><path d="M100-162.5l77 222" stroke="#fff5E"/><path d="M100-162.5l224.2 71.2" stroke="#c2e1ff5F"/><path d="M100-162.5l-184.8-145.9" stroke="#fff5F"/><path d="M100-162.5l-230.9-46.2" stroke="#005bbb5F"/><path d="M100-162.5l171.7-161.5" stroke="#005bbb60"/><path d="M100-162.5l-188.3 141.8" stroke="#c2e1ff60"/><path d="M100-162.5l215.6-96.6" stroke="#005bbb64"/><path d="M100-162.5l-116.5-205.5" stroke="#fff50064"/><path d="M100-162.5l-105.5 211.3" stroke="#fff50065"/><path d="M100-162.5l-167.1-166.8" stroke="#c2e1ff65"/><path d="M100-162.5l25 234.8" stroke="#c2e1ff65"/><path d="M100-162.5l-199.3 126.2" stroke="#fff66"/><path d="M100-162.5l226.6-64.1" stroke="#c2e1ff68"/><path d="M100-162.5l-194.1 133.3" stroke="#005bbb68"/><path d="M100-162.5l36 232.6" stroke="#fff68"/><path d="M100-162.5l5.3-235" stroke="#fff50068"/><path d="M100-162.5l223.8-71.7" stroke="#fff50069"/><path d="M100-162.5l-30 233" stroke="#fff50069"/><path d="M100-162.5l-199.1 123.2" stroke="#005bbb6A"/><path d="M100-162.5l-72-222.3" stroke="#fff5006B"/><path d="M100-162.5l87.9 215.9" stroke="#fff5006C"/><path d="M100-162.5l-40 229.5" stroke="#fff5006C"/><path d="M100-162.5l-231.9 19.7" stroke="#005bbb6C"/><path d="M100-162.5l-108.5 205.8" stroke="#fff5006C"/><path d="M100-162.5l-231.1-22.9" stroke="#005bbb6D"/><path d="M100-162.5l200.1-116.2" stroke="#005bbb6E"/><path d="M100-162.5l-123.9 195.3" stroke="#005bbb6E"/><path d="M100-162.5l-72.2-219.6" stroke="#fff5006E"/><path d="M100-162.5l-83.9 214.2" stroke="#005bbb6F"/><path d="M100-162.5l-226.9-25.4" stroke="#c2e1ff70"/><path d="M100-162.5l71.1-216.5" stroke="#fff71"/><path d="M100-162.5l-38.8 222.9" stroke="#fff50072"/><path d="M100-162.5l-225.2 7.9" stroke="#fff50073"/><path d="M100-162.5l-217.8 57.2" stroke="#fff73"/><path d="M100-162.5l-184.9 125.2" stroke="#005bbb74"/><path d="M100-162.5l140.4 172.9" stroke="#fff50074"/><path d="M100-162.5l134.3-174.5" stroke="#005bbb76"/><path d="M100-162.5l-211.8 57.7" stroke="#005bbb76"/><path d="M100-162.5l191.7 105.7" stroke="#fff50076"/><path d="M100-162.5l17.1 216.8" stroke="#c2e1ff77"/><path d="M100-162.5l173-131.7" stroke="#fff77"/><path d="M100-162.5l210.2-55.3" stroke="#005bbb77"/><path d="M100-162.5l-2.5 216.6" stroke="#fff77"/><path d="M100-162.5l115-183.2" stroke="#fff50078"/><path d="M100-162.5l71.5-202.8" stroke="#005bbb78"/><path d="M100-162.5l196.5 84" stroke="#fff79"/><path d="M100-162.5l7.6-211.6" stroke="#c2e1ff7A"/><path d="M100-162.5l66.7 199.6" stroke="#fff5007A"/><path d="M100-162.5l151.9-144.6" stroke="#c2e1ff7B"/><path d="M100-162.5l197.8-64" stroke="#c2e1ff7B"/><path d="M100-162.5l71.9 194.5" stroke="#fff5007B"/><path d="M100-162.5l-56 199.5" stroke="#005bbb7C"/><path d="M100-162.5l-109.6 173.6" stroke="#fff7C"/><path d="M100-162.5l-17.5-204.2" stroke="#c2e1ff7C"/><path d="M100-162.5l-9.9 204.5" stroke="#005bbb7C"/><path d="M100-162.5l41.6 200.4" stroke="#005bbb7C"/><path d="M100-162.5l-93.1-181.9" stroke="#c2e1ff7D"/><path d="M100-162.5l188.4-78.7" stroke="#fff5007D"/><path d="M100-162.5l-166-108.7" stroke="#005bbb7F"/><path d="M100-162.5l-137.8 133.9" stroke="#fff50081"/><path d="M100-162.5l-61.4 180.7" stroke="#fff50081"/><path d="M100-162.5l167.9 82.2" stroke="#fff82"/><path d="M100-162.5l113-146.8" stroke="#fff50083"/><path d="M100-162.5l167.6 73" stroke="#fff83"/><path d="M100-162.5l119.8-134.8" stroke="#005bbb84"/><path d="M100-162.5l-166.1-67.4" stroke="#fff50084"/><path d="M100-162.5l152.2 92.3" stroke="#c2e1ff84"/><path d="M100-162.5l-83.9 156.5" stroke="#fff50084"/><path d="M100-162.5l-44.1 167.6" stroke="#005bbb85"/><path d="M100-162.5l160.1-33.1" stroke="#005bbb88"/><path d="M100-162.5l148.3 60.7" stroke="#fff50088"/><path d="M100-162.5l78-139" stroke="#fff50088"/><path d="M100-162.5l-126.1-97.4" stroke="#005bbb88"/><path d="M100-162.5l145.6 51.9" stroke="#c2e1ff89"/><path d="M100-162.5l133.5 72.9" stroke="#c2e1ff8A"/><path d="M100-162.5l99.3-112.4" stroke="#005bbb8A"/><path d="M100-162.5l143.3 41.5" stroke="#fff8A"/><path d="M100-162.5l106.2-102.8" stroke="#005bbb8B"/><path d="M100-162.5l-86.1 118.7" stroke="#c2e1ff8B"/><path d="M100-162.5l65.3 128.9" stroke="#fff5008B"/><path d="M100-162.5l117.8 74.9" stroke="#005bbb8C"/><path d="M100-162.5l43.1 132.3" stroke="#c2e1ff8C"/><path d="M100-162.5l106.4 82" stroke="#fff8D"/><path d="M100-162.5l-84 100.4" stroke="#c2e1ff8D"/><path d="M100-162.5l-123.9-20.2" stroke="#fff8E"/><path d="M100-162.5l14.1 119.2" stroke="#fff5008F"/><path d="M100-162.5l59.4 73.3" stroke="#c2e1ff91"/><path d="M100-162.5l-75.3 53.3" stroke="#c2e1ff92"/><path d="M100-162.5l14.7 90.4" stroke="#005bbb92"/><path d="M100-162.5l9.8 90.6" stroke="#005bbb92"/><path d="M100-162.5l-41.4-74.7" stroke="#c2e1ff92"/><path d="M100-162.5l-41.6 65.8" stroke="#fff50093"/><path d="M100-162.5l-30.3 66.3" stroke="#005bbb93"/><path d="M100-162.5l-11.8 42.6" stroke="#fff95"/><path d="M100-162.5l22.3 5.7" stroke="#005bbb95"/></g><g class="sparcs"><path d="M116.1-160.3a5.9 5.9 0 1 1 0-11.8 5.9 5.9 0 0 1 0 11.8" fill="#005bbb7D"/><path d="M118-181a5.9 5.9 0 1 1 0-11.9 5.9 5.9 0 0 1 0 11.9" fill="#fff5007D"/><path d="M161.1-162a6 6 0 1 1 0-12 6 6 0 0 1 0 12" fill="#005bbb7F"/><path d="M131-90.7a6 6 0 1 1 0-12.1 6 6 0 0 1 0 12.1" fill="#fff50080"/><path d="M47.3-102.3a6.1 6.1 0 1 1 0-12.2 6.1 6.1 0 0 1 0 12.2" fill="#fff50080"/><path d="M175.7-164.5a6.1 6.1 0 1 1 0-12.2 6.1 6.1 0 0 1 0 12.2" fill="#c2e1ff80"/><path d="M87.7-80a6.1 6.1 0 1 1 0-12.2 6.1 6.1 0 0 1 0 12.2" fill="#005bbb80"/><path d="M112.1-76.4a6.1 6.1 0 1 1 0-12.2 6.1 6.1 0 0 1 0 12.2" fill="#fff50080"/><path d="M20.4-181.9a6.1 6.1 0 1 1 0-12.2 6.1 6.1 0 0 1 0 12.2" fill="#005bbb81"/><path d="M46.1-91.7a6.1 6.1 0 1 1 0-12.2 6.1 6.1 0 0 1 0 12.2" fill="#c2e1ff81"/><path d="M16.8-141a6.1 6.1 0 1 1 0-12.2 6.1 6.1 0 0 1 0 12.2" fill="#fff81"/><path d="M96.8-66.2a6.1 6.1 0 1 1 0-12.3 6.1 6.1 0 0 1 0 12.3" fill="#fff50081"/><path d="M144.3-73.4a6.2 6.2 0 1 1 0-12.3 6.2 6.2 0 0 1 0 12.3" fill="#005bbb82"/><path d="M187.8-111.5a6.2 6.2 0 1 1 0-12.4 6.2 6.2 0 0 1 0 12.4" fill="#005bbb82"/><path d="M22-75.5a6.3 6.3 0 1 1 0-12.5 6.3 6.3 0 0 1 0 12.5" fill="#fff84"/><path d="M147.8-42.9a6.3 6.3 0 1 1 0-12.7 6.3 6.3 0 0 1 0 12.7" fill="#c2e1ff86"/><path d="M202.8-87a6.3 6.3 0 1 1 0-12.7 6.3 6.3 0 0 1 0 12.7" fill="#fff86"/><path d="M-16.8-110.5a6.4 6.4 0 1 1 0-12.7 6.4 6.4 0 0 1 0 12.7" fill="#c2e1ff86"/><path d="M-5.9-81.5a6.4 6.4 0 1 1 0-12.8 6.4 6.4 0 0 1 0 12.8" fill="#fff87"/><path d="M224.6-208.8a6.4 6.4 0 1 1 0-12.9 6.4 6.4 0 0 1 0 12.9" fill="#005bbb88"/><path d="M151.4-281.5a6.4 6.4 0 1 1 0-12.8 6.4 6.4 0 0 1 0 12.8" fill="#fff50088"/><path d="M197.5-46.1a6.5 6.5 0 1 1 0-13.1 6.5 6.5 0 0 1 0 13.1" fill="#fff5008B"/><path d="M228.4-230a6.6 6.6 0 1 1 0-13.1 6.6 6.6 0 0 1 0 13.1" fill="#fff5008B"/><path d="M-10.6-48.4a6.6 6.6 0 1 1 0-13.3 6.6 6.6 0 0 1 0 13.3" fill="#fff8C"/><path d="M216.4-53.8a6.6 6.6 0 1 1 0-13.3 6.6 6.6 0 0 1 0 13.3" fill="#fff8C"/><path d="M142.2-6.2a6.6 6.6 0 1 1 0-13.2 6.6 6.6 0 0 1 0 13.2" fill="#005bbb8D"/><path d="M-30.1-253.4a6.7 6.7 0 1 1 0-13.4 6.7 6.7 0 0 1 0 13.4" fill="#fff8E"/><path d="M8-292.4a6.7 6.7 0 1 1 0-13.5 6.7 6.7 0 0 1 0 13.5" fill="#fff8F"/><path d="M209.4-283.7a6.8 6.8 0 1 1 0-13.6 6.8 6.8 0 0 1 0 13.6" fill="#005bbb90"/><path d="M265.8-123.7a6.8 6.8 0 1 1 0-13.6 6.8 6.8 0 0 1 0 13.6" fill="#005bbb90"/><path d="M199.6-297.4a6.9 6.9 0 1 1 0-13.7 6.9 6.9 0 0 1 0 13.7" fill="#005bbb91"/><path d="M244.5-58.9a6.9 6.9 0 1 1 0-13.7 6.9 6.9 0 0 1 0 13.7" fill="#fff50092"/><path d="M232.6-35.5a6.9 6.9 0 1 1 0-13.9 6.9 6.9 0 0 1 0 13.9" fill="#fff93"/><path d="M75.2 22.3a6.9 6.9 0 1 1 0-13.9 6.9 6.9 0 0 1 0 13.9" fill="#c2e1ff93"/><path d="M-81.2-144.8a7 7 0 1 1 0-13.9 7 7 0 0 1 0 13.9" fill="#005bbb94"/><path d="M270.6-91.5a7 7 0 1 1 0-13.9 7 7 0 0 1 0 13.9" fill="#005bbb94"/><path d="M239-274.9a7 7 0 1 1 0-14 7 7 0 0 1 0 14" fill="#c2e1ff94"/><path d="M-83.7-158.3a7 7 0 1 1 0-14 7 7 0 0 1 0 14" fill="#c2e1ff95"/><path d="M99.5 29.6a7 7 0 1 1 0-14 7 7 0 0 1 0 14" fill="#c2e1ff95"/><path d="M260-61.6a7 7 0 1 1 0-14.1 7 7 0 0 1 0 14.1" fill="#fff95"/><path d="M73.4 28.3a7 7 0 1 1 0-14.1 7 7 0 0 1 0 14.1" fill="#005bbb95"/><path d="M274-228.8a7.1 7.1 0 1 1 0-14.2 7.1 7.1 0 0 1 0 14.2" fill="#005bbb96"/><path d="M177.1 22.1a7.2 7.2 0 1 1 0-14.4 7.2 7.2 0 0 1 0 14.4" fill="#fff50098"/><path d="M-78.2-79.4a7.2 7.2 0 1 1 0-14.4 7.2 7.2 0 0 1 0 14.4" fill="#fff98"/><path d="M24.3 24.5a7.2 7.2 0 1 1 0-14.4 7.2 7.2 0 0 1 0 14.4" fill="#fff50099"/><path d="M282.1-227.3a7.2 7.2 0 1 1 0-14.4 7.2 7.2 0 0 1 0 14.4" fill="#c2e1ff99"/><path d="M-22.9-309.6a7.2 7.2 0 1 1 0-14.5 7.2 7.2 0 0 1 0 14.5" fill="#c2e1ff9A"/><path d="M228.8-304.7a7.2 7.2 0 1 1 0-14.5 7.2 7.2 0 0 1 0 14.5" fill="#c2e1ff9A"/><path d="M-100.4-145.3a7.3 7.3 0 1 1 0-14.6 7.3 7.3 0 0 1 0 14.6" fill="#fff5009B"/><path d="M23.1-340.6a7.3 7.3 0 1 1 0-14.6 7.3 7.3 0 0 1 0 14.6" fill="#c2e1ff9B"/><path d="M128.6-354.2a7.3 7.3 0 1 1 0-14.6 7.3 7.3 0 0 1 0 14.6" fill="#005bbb9B"/><path d="M135.2-354.1a7.3 7.3 0 1 1 0-14.7 7.3 7.3 0 0 1 0 14.7" fill="#c2e1ff9C"/><path d="M-96.8-201.1a7.3 7.3 0 1 1 0-14.7 7.3 7.3 0 0 1 0 14.7" fill="#fff9C"/><path d="M268.5-42.2a7.3 7.3 0 1 1 0-14.7 7.3 7.3 0 0 1 0 14.7" fill="#005bbb9C"/><path d="M190.3-342.1a7.5 7.5 0 1 1 0-14.9 7.5 7.5 0 0 1 0 14.9" fill="#c2e1ff9F"/><path d="M307.7-147.6a7.5 7.5 0 1 1 0-14.9 7.5 7.5 0 0 1 0 14.9" fill="#005bbb9F"/><path d="M304-201.4a7.5 7.5 0 1 1 0-15 7.5 7.5 0 0 1 0 15" fill="#fff9F"/><path d="M53.7 49.1a7.5 7.5 0 1 1 0-15 7.5 7.5 0 0 1 0 15" fill="#005bbb9F"/><path d="M198.8 30.5a7.5 7.5 0 1 1 0-15 7.5 7.5 0 0 1 0 15" fill="#c2e1ffA0"/><path d="M-20-328.2a7.5 7.5 0 1 1 0-15 7.5 7.5 0 0 1 0 15" fill="#005bbbA0"/><path d="M23.6-351.8a7.5 7.5 0 1 1 0-15.1 7.5 7.5 0 0 1 0 15.1" fill="#fff500A0"/><path d="M-7.5 27.4a7.5 7.5 0 1 1 0-15.1 7.5 7.5 0 0 1 0 15.1" fill="#c2e1ffA1"/><path d="M128.2 55.6a7.6 7.6 0 1 1 0-15.1 7.6 7.6 0 0 1 0 15.1" fill="#c2e1ffA1"/><path d="M265.7-19.8a7.6 7.6 0 1 1 0-15.2 7.6 7.6 0 0 1 0 15.2" fill="#fff500A2"/><path d="M136.8-368.3a7.7 7.7 0 1 1 0-15.4 7.7 7.7 0 0 1 0 15.4" fill="#005bbbA4"/><path d="M-120.3-188.3a7.9 7.9 0 1 1 0-15.8 7.9 7.9 0 0 1 0 15.8" fill="#fff500A8"/><path d="M129.5-377.5a8 8 0 1 1 0-15.9 8 8 0 0 1 0 15.9" fill="#fffAA"/><path d="M178.6 56.2a8 8 0 1 1 0-15.9 8 8 0 0 1 0 15.9" fill="#005bbbAA"/><path d="M18.1 55.2a8 8 0 1 1 0-15.9 8 8 0 0 1 0 15.9" fill="#fff500AA"/><path d="M143.4-376.5a8 8 0 1 1 0-16 8 8 0 0 1 0 16" fill="#005bbbAB"/><path d="M207.6-353.5a8 8 0 1 1 0-16.1 8 8 0 0 1 0 16.1" fill="#c2e1ffAB"/><path d="M-114.6-228.7a8 8 0 1 1 0-16.1 8 8 0 0 1 0 16.1" fill="#c2e1ffAC"/><path d="M119.9-381.4a8.1 8.1 0 1 1 0-16.2 8.1 8.1 0 0 1 0 16.2" fill="#005bbbAC"/><path d="M-104.3-53.3a8.1 8.1 0 1 1 0-16.2 8.1 8.1 0 0 1 0 16.2" fill="#005bbbAC"/><path d="M47.6-376.9a8.1 8.1 0 1 1 0-16.3 8.1 8.1 0 0 1 0 16.3" fill="#fffAD"/><path d="M19.3-369a8.1 8.1 0 1 1 0-16.3 8.1 8.1 0 0 1 0 16.3" fill="#c2e1ffAE"/><path d="M330.1-154.3a8.2 8.2 0 1 1 0-16.4 8.2 8.2 0 0 1 0 16.4" fill="#c2e1ffAF"/><path d="M-90.4-24.3a8.2 8.2 0 1 1 0-16.5 8.2 8.2 0 0 1 0 16.5" fill="#c2e1ffAF"/><path d="M86.4 76a8.2 8.2 0 1 1 0-16.5 8.2 8.2 0 0 1 0 16.5" fill="#fffAF"/><path d="M159.5 70.6a8.3 8.3 0 1 1 0-16.7 8.3 8.3 0 0 1 0 16.7" fill="#c2e1ffB2"/><path d="M305.2-43a8.4 8.4 0 1 1 0-16.8 8.4 8.4 0 0 1 0 16.8" fill="#fff500B3"/><path d="M-76.1-0.8a8.4 8.4 0 1 1 0-16.8 8.4 8.4 0 0 1 0 16.8" fill="#005bbbB3"/><path d="M302.1-270.9a8.4 8.4 0 1 1 0-16.8 8.4 8.4 0 0 1 0 16.8" fill="#005bbbB3"/><path d="M-21.8-353.7a8.4 8.4 0 1 1 0-16.8 8.4 8.4 0 0 1 0 16.8" fill="#005bbbB4"/><path d="M-112.8-56.7a8.5 8.5 0 1 1 0-16.9 8.5 8.5 0 0 1 0 16.9" fill="#c2e1ffB5"/><path d="M329.2-102.1a8.5 8.5 0 1 1 0-17.1 8.5 8.5 0 0 1 0 17.1" fill="#005bbbB7"/><path d="M177 68a8.6 8.6 0 1 1 0-17.1 8.6 8.6 0 0 1 0 17.1" fill="#c2e1ffB7"/><path d="M324.2-82.7a8.6 8.6 0 1 1 0-17.2 8.6 8.6 0 0 1 0 17.2" fill="#005bbbB8"/><path d="M-84.8-299.8a8.6 8.6 0 1 1 0-17.2 8.6 8.6 0 0 1 0 17.2" fill="#fffB8"/><path d="M-130.9-200a8.6 8.6 0 1 1 0-17.3 8.6 8.6 0 0 1 0 17.3" fill="#005bbbB8"/><path d="M271.7-315.3a8.7 8.7 0 1 1 0-17.4 8.7 8.7 0 0 1 0 17.4" fill="#005bbbB9"/><path d="M-88.3-12a8.7 8.7 0 1 1 0-17.4 8.7 8.7 0 0 1 0 17.4" fill="#c2e1ffB9"/><path d="M315.6-250.2a8.9 8.9 0 1 1 0-17.8 8.9 8.9 0 0 1 0 17.8" fill="#005bbbBE"/><path d="M-16.5-359a8.9 8.9 0 1 1 0-17.9 8.9 8.9 0 0 1 0 17.9" fill="#fffBF"/><path d="M-5.5 57.7a8.9 8.9 0 1 1 0-17.8 8.9 8.9 0 0 1 0 17.8" fill="#fff500BF"/><path d="M-67.1-320.4a9 9 0 1 1 0-17.9 9 9 0 0 1 0 17.9" fill="#fffC0"/><path d="M125 81.2a9 9 0 1 1 0-17.9 9 9 0 0 1 0 17.9" fill="#fffC0"/><path d="M-99.3-27.3a9 9 0 1 1 0-18 9 9 0 0 1 0 18" fill="#fffC1"/><path d="M326.6-217.5a9.1 9.1 0 1 1 0-18.2 9.1 9.1 0 0 1 0 18.2" fill="#005bbbC3"/><path d="M-94.1-20.1a9.1 9.1 0 1 1 0-18.2 9.1 9.1 0 0 1 0 18.2" fill="#fffC3"/><path d="M136 79.2a9.1 9.1 0 1 1 0-18.3 9.1 9.1 0 0 1 0 18.3" fill="#fff500C3"/><path d="M105.3-388.4a9.2 9.2 0 1 1 0-18.3 9.2 9.2 0 0 1 0 18.3" fill="#fffC4"/><path d="M323.8-225.1a9.2 9.2 0 1 1 0-18.3 9.2 9.2 0 0 1 0 18.3" fill="#005bbbC4"/><path d="M70 79.7a9.2 9.2 0 1 1 0-18.4 9.2 9.2 0 0 1 0 18.4" fill="#fff500C4"/><path d="M-99.1-30.1a9.3 9.3 0 1 1 0-18.5 9.3 9.3 0 0 1 0 18.5" fill="#fffC6"/><path d="M28-375.5a9.3 9.3 0 1 1 0-18.6 9.3 9.3 0 0 1 0 18.6" fill="#c2e1ffC7"/><path d="M187.9 62.8a9.3 9.3 0 1 1 0-18.7 9.3 9.3 0 0 1 0 18.7" fill="#fff500C8"/><path d="M60 76.4a9.3 9.3 0 1 1 0-18.7 9.3 9.3 0 0 1 0 18.7" fill="#fff500C8"/><path d="M-131.9-133.4a9.4 9.4 0 1 1 0-18.7 9.4 9.4 0 0 1 0 18.7" fill="#fff500C9"/><path d="M-8.5 52.6a9.4 9.4 0 1 1 0-18.7 9.4 9.4 0 0 1 0 18.7" fill="#c2e1ffC9"/><path d="M-131.1-176a9.4 9.4 0 1 1 0-18.8 9.4 9.4 0 0 1 0 18.8" fill="#fff500C9"/><path d="M300.1-269.3a9.5 9.5 0 1 1 0-18.9 9.5 9.5 0 0 1 0 18.9" fill="#005bbbCB"/><path d="M-23.9 42.3a9.5 9.5 0 1 1 0-19 9.5 9.5 0 0 1 0 19" fill="#005bbbCB"/><path d="M27.8-372.6a9.5 9.5 0 1 1 0-19 9.5 9.5 0 0 1 0 19" fill="#005bbbCB"/><path d="M16.1 61.2a9.5 9.5 0 1 1 0-19 9.5 9.5 0 0 1 0 19" fill="#c2e1ffCC"/><path d="M-126.9-178.3a9.6 9.6 0 1 1 0-19.2 9.6 9.6 0 0 1 0 19.2" fill="#fff500CE"/><path d="M171.1-369.4a9.6 9.6 0 1 1 0-19.3 9.6 9.6 0 0 1 0 19.3" fill="#fffCF"/><path d="M61.2 70.1a9.7 9.7 0 1 1 0-19.4 9.7 9.7 0 0 1 0 19.4" fill="#005bbbD0"/><path d="M-125.2-144.9a9.7 9.7 0 1 1 0-19.5 9.7 9.7 0 0 1 0 19.5" fill="#c2e1ffD1"/><path d="M-117.8-95.5a9.8 9.8 0 1 1 0-19.6 9.8 9.8 0 0 1 0 19.6" fill="#fffD1"/><path d="M-84.9-27.5a9.8 9.8 0 1 1 0-19.7 9.8 9.8 0 0 1 0 19.7" fill="#fff500D3"/><path d="M240.4 20.2a9.8 9.8 0 1 1 0-19.7 9.8 9.8 0 0 1 0 19.7" fill="#c2e1ffD3"/><path d="M234.3-327.1a9.9 9.9 0 1 1 0-19.8 9.9 9.9 0 0 1 0 19.8" fill="#005bbbD5"/><path d="M-111.8-94.9a10 10 0 1 1 0-19.9 10 10 0 0 1 0 19.9" fill="#c2e1ffD6"/><path d="M291.7-46.8a10 10 0 1 1 0-19.9 10 10 0 0 1 0 19.9" fill="#fff500D6"/><path d="M117.1 64.3a10 10 0 1 1 0-20 10 10 0 0 1 0 20" fill="#fff500D7"/><path d="M273-284.2a10 10 0 1 1 0-20 10 10 0 0 1 0 20" fill="#005bbbD7"/><path d="M310.2-207.7a10 10 0 1 1 0-20.1 10 10 0 0 1 0 20.1" fill="#c2e1ffD7"/><path d="M97.5 64.2a10 10 0 1 1 0-20.1 10 10 0 0 1 0 20.1" fill="#c2e1ffD7"/><path d="M215-335.6a10 10 0 1 1 0-20.1 10 10 0 0 1 0 20.1" fill="#fffD8"/><path d="M171.5-355.3a10.1 10.1 0 1 1 0-20.1 10.1 10.1 0 0 1 0 20.1" fill="#005bbbD8"/><path d="M296.5-68.4a10.1 10.1 0 1 1 0-20.2 10.1 10.1 0 0 1 0 20.2" fill="#fff500D9"/><path d="M107.6-363.9a10.2 10.2 0 1 1 0-20.4 10.2 10.2 0 0 1 0 20.4" fill="#fff500DA"/><path d="M166.7 47.3a10.2 10.2 0 1 1 0-20.4 10.2 10.2 0 0 1 0 20.4" fill="#c2e1ffDB"/><path d="M251.9-296.9a10.2 10.2 0 1 1 0-20.4 10.2 10.2 0 0 1 0 20.4" fill="#c2e1ffDB"/><path d="M297.8-216.2a10.3 10.3 0 1 1 0-20.5 10.3 10.3 0 0 1 0 20.5" fill="#fff500DC"/><path d="M171.9 42.3a10.3 10.3 0 1 1 0-20.6 10.3 10.3 0 0 1 0 20.6" fill="#fff500DD"/><path d="M44 47.3a10.3 10.3 0 1 1 0-20.5 10.3 10.3 0 0 1 0 20.5" fill="#fff500DD"/><path d="M-9.6 21.4a10.3 10.3 0 1 1 0-20.7 10.3 10.3 0 0 1 0 20.7" fill="#fff500DE"/><path d="M82.5-356.4a10.3 10.3 0 1 1 0-20.6 10.3 10.3 0 0 1 0 20.6" fill="#fffDE"/><path d="M90.1 52.3a10.3 10.3 0 1 1 0-20.6 10.3 10.3 0 0 1 0 20.6" fill="#c2e1ffDE"/><path d="M141.6 48.2a10.3 10.3 0 1 1 0-20.7 10.3 10.3 0 0 1 0 20.7" fill="#005bbbDE"/><path d="M6.9-334.1a10.3 10.3 0 1 1 0-20.7 10.3 10.3 0 0 1 0 20.7" fill="#005bbbDE"/><path d="M288.4-230.9a10.3 10.3 0 1 1 0-20.7 10.3 10.3 0 0 1 0 20.7" fill="#fff500DE"/><path d="M-66-260.7a10.5 10.5 0 1 1 0-20.9 10.5 10.5 0 0 1 0 20.9" fill="#005bbbE1"/><path d="M-37.8-18a10.6 10.6 0 1 1 0-21.2 10.6 10.6 0 0 1 0 21.2" fill="#fff500E3"/><path d="M38.6 28.8a10.6 10.6 0 1 1 0-21.2 10.6 10.6 0 0 1 0 21.2" fill="#fffE4"/><path d="M267.9-69.6a10.7 10.7 0 1 1 0-21.4 10.7 10.7 0 0 1 0 21.4" fill="#fffE5"/><path d="M213-298.6a10.7 10.7 0 1 1 0-21.4 10.7 10.7 0 0 1 0 21.4" fill="#fffE6"/><path d="M267.6-78.7a10.7 10.7 0 1 1 0-21.5 10.7 10.7 0 0 1 0 21.5" fill="#fffE7"/><path d="M219.8-286.6a10.8 10.8 0 1 1 0-21.5 10.8 10.8 0 0 1 0 21.5" fill="#005bbbE7"/><path d="M-66.1-219.1a10.8 10.8 0 1 1 0-21.6 10.8 10.8 0 0 1 0 21.6" fill="#fffE8"/><path d="M252.2-59.4a10.8 10.8 0 1 1 0-21.6 10.8 10.8 0 0 1 0 21.6" fill="#fffE8"/><path d="M16.1 4.8a10.8 10.8 0 1 1 0-21.6 10.8 10.8 0 0 1 0 21.6" fill="#fff500E8"/><path d="M55.9 15.9a10.9 10.9 0 1 1 0-21.7 10.9 10.9 0 0 1 0 21.7" fill="#c2e1ffEA"/><path d="M260.1-184.6a11 11 0 1 1 0-22 11 11 0 0 1 0 22" fill="#fffEC"/><path d="M248.3-90.7a11 11 0 1 1 0-22.1 11 11 0 0 1 0 22.1" fill="#005bbbED"/><path d="M178-290.4a11 11 0 1 1 0-22.1 11 11 0 0 1 0 22.1" fill="#fff500ED"/><path d="M-26.1-248.8a11 11 0 1 1 0-22.1 11 11 0 0 1 0 22.1" fill="#fffEE"/><path d="M245.6-99.5a11.1 11.1 0 1 1 0-22.2 11.1 11.1 0 0 1 0 22.2" fill="#005bbbEF"/><path d="M233.5-78.5a11.1 11.1 0 1 1 0-22.2 11.1 11.1 0 0 1 0 22.2" fill="#fffEF"/><path d="M199.3-263.8a11.1 11.1 0 1 1 0-22.3 11.1 11.1 0 0 1 0 22.3" fill="#fff500F0"/><path d="M243.3-109.8a11.1 11.1 0 1 1 0-22.3 11.1 11.1 0 0 1 0 22.3" fill="#fff500F0"/><path d="M206.2-254.1a11.2 11.2 0 1 1 0-22.4 11.2 11.2 0 0 1 0 22.4" fill="#fff500F0"/><path d="M13.9-32.6a11.2 11.2 0 1 1 0-22.4 11.2 11.2 0 0 1 0 22.4" fill="#005bbbF0"/><path d="M165.3-22.4a11.2 11.2 0 1 1 0-22.4 11.2 11.2 0 0 1 0 22.4" fill="#c2e1ffF1"/><path d="M217.8-76.4a11.2 11.2 0 1 1 0-22.5 11.2 11.2 0 0 1 0 22.5" fill="#c2e1ffF2"/><path d="M143.1-19a11.2 11.2 0 1 1 0-22.5 11.2 11.2 0 0 1 0 22.5" fill="#fff500F2"/><path d="M206.4-69.2a11.3 11.3 0 1 1 0-22.6 11.3 11.3 0 0 1 0 22.6" fill="#005bbbF3"/><path d="M16-50.7a11.3 11.3 0 1 1 0-22.7 11.3 11.3 0 0 1 0 22.7" fill="#fffF4"/><path d="M-23.9-171.4a11.4 11.4 0 1 1 0-22.7 11.4 11.4 0 0 1 0 22.7" fill="#005bbbF5"/><path d="M114.1-31.9a11.4 11.4 0 1 1 0-22.8 11.4 11.4 0 0 1 0 22.8" fill="#fffF5"/><path d="M159.4-77.7a11.6 11.6 0 1 1 0-23.1 11.6 11.6 0 0 1 0 23.1" fill="#fffF9"/><path d="M24.7-97.6a11.6 11.6 0 1 1 0-23.2 11.6 11.6 0 0 1 0 23.2" fill="#fff500F9"/><path d="M114.7-60.6a11.6 11.6 0 1 1 0-23.1 11.6 11.6 0 0 1 0 23.1" fill="#fff500F9"/><path d="M109.8-60.3a11.6 11.6 0 1 1 0-23.2 11.6 11.6 0 0 1 0 23.2" fill="#005bbbF9"/><path d="M58.6-225.5a11.6 11.6 0 1 1 0-23.3 11.6 11.6 0 0 1 0 23.3" fill="#c2e1ffFA"/><path d="M58.4-85.1a11.6 11.6 0 1 1 0-23.3 11.6 11.6 0 0 1 0 23.3" fill="#fff500FB"/><path d="M69.7-84.6a11.7 11.7 0 1 1 0-23.3 11.7 11.7 0 0 1 0 23.3" fill="#c2e1ffFB"/><path d="M88.2-108.1a11.8 11.8 0 1 1 0-23.5 11.8 11.8 0 0 1 0 23.5" fill="#fffFD"/><path d="M122.3-145a11.8 11.8 0 1 1 0-23.6 11.8 11.8 0 0 1 0 23.6" fill="#fff500FE"/></g></svg>