<svg width="1200" height="675" viewBox="-500 -500 1200 675" xmlns="http://www.w3.org/2000/svg"><path d="M-500-500h1200v675h-1200z" fill="#000"/><style>.sparkles path{stroke-linecap:round; stroke-width:1}</style><g class="sparkles"><path d="M100-162.5l-32.1 50.5" stroke="#fff33"/><path d="M100-162.5l-45.4 39.2" stroke="#005bbb33"/><path d="M100-162.5l-63.4 4.9" stroke="#c2e1ff33"/><path d="M100-162.5l-57.7-36.9" stroke="#c2e1ff34"/><path d="M100-162.5l-2-85.3" stroke="#005bbb35"/><path d="M100-162.5l40.5 84.8" stroke="#fff36"/><path d="M100-162.5l61.4-78.6" stroke="#c2e1ff36"/><path d="M100-162.5l-99.7 7.3" stroke="#005bbb36"/><path d="M100-162.5l77.9 69.4" stroke="#c2e1ff37"/><path d="M100-162.5l89.2 55.4" stroke="#c2e1ff37"/><path d="M100-162.5l-2.4 107.5" stroke="#005bbb37"/><path d="M100-162.5l-15.1-109.7" stroke="#fff37"/><path d="M100-162.5l73.1-92.6" stroke="#fff38"/><path d="M100-162.5l116.2 24.8" stroke="#fff38"/><path d="M100-162.5l-100.4 64.6" stroke="#fff50038"/><path d="M100-162.5l-30.4 116" stroke="#fff50038"/><path d="M100-162.5l-5.2-122.2" stroke="#fff39"/><path d="M100-162.5l9 134.8" stroke="#fff5003A"/><path d="M100-162.5l44-128.4" stroke="#fff3B"/><path d="M100-162.5l-45.4 129.5" stroke="#fff3B"/><path d="M100-162.5l141.6-30.8" stroke="#c2e1ff3C"/><path d="M100-162.5l-137.2 60.4" stroke="#005bbb3D"/><path d="M100-162.5l80.9 126.5" stroke="#005bbb3D"/><path d="M100-162.5l-64.3 140.5" stroke="#fff5003E"/><path d="M100-162.5l-137.6-70.6" stroke="#005bbb3E"/><path d="M100-162.5l23.5-153.1" stroke="#005bbb3E"/><path d="M100-162.5l68.5-151.7" stroke="#005bbb40"/><path d="M100-162.5l61.9 155.4" stroke="#fff50040"/><path d="M100-162.5l-169.7-43.4" stroke="#fff42"/><path d="M100-162.5l152.8-99" stroke="#005bbb44"/><path d="M100-162.5l-141.8 117.7" stroke="#fff44"/><path d="M100-162.5l-94.1 160.6" stroke="#c2e1ff45"/><path d="M100-162.5l-1.4-186.3" stroke="#fff50045"/><path d="M100-162.5l103.1 155.7" stroke="#fff50045"/><path d="M100-162.5l-91.9-164.1" stroke="#005bbb45"/><path d="M100-162.5l75.2 173.9" stroke="#fff46"/><path d="M100-162.5l157.8-105" stroke="#005bbb46"/><path d="M100-162.5l13.5-190.7" stroke="#005bbb46"/><path d="M100-162.5l64.5 181.2" stroke="#fff50046"/><path d="M100-162.5l188-47.7" stroke="#fff50047"/><path d="M100-162.5l-99.7 170" stroke="#fff48"/><path d="M100-162.5l181.8 76.2" stroke="#005bbb48"/><path d="M100-162.5l22.4-205.7" stroke="#fff5004B"/><path d="M100-162.5l146.3-146.7" stroke="#005bbb4B"/><path d="M100-162.5l-203.3 43" stroke="#005bbb4C"/><path d="M100-162.5l163.2 140.9" stroke="#fff4F"/><path d="M100-162.5l137.9-168.7" stroke="#c2e1ff50"/><path d="M100-162.5l-184.2-117.4" stroke="#c2e1ff50"/><path d="M100-162.5l-154.5 155" stroke="#c2e1ff51"/><path d="M100-162.5l-13.5-220.9" stroke="#fff52"/><path d="M100-162.5l-188.2 116.4" stroke="#fff50052"/><path d="M100-162.5l-214.7-57.1" stroke="#fff50052"/><path d="M100-162.5l-220.1 30.3" stroke="#c2e1ff53"/><path d="M100-162.5l220.9 32.9" stroke="#c2e1ff53"/><path d="M100-162.5l-74-210.8" stroke="#fff50053"/><path d="M100-162.5l140.9-174.4" stroke="#005bbb54"/><path d="M100-162.5l-79.8 209.5" stroke="#005bbb54"/><path d="M100-162.5l222.5-29.1" stroke="#c2e1ff54"/><path d="M100-162.5l-218.9-50.7" stroke="#c2e1ff54"/><path d="M100-162.5l-11.6-225.6" stroke="#c2e1ff55"/><path d="M100-162.5l15 225.9" stroke="#005bbb55"/><path d="M100-162.5l125.1-188.9" stroke="#005bbb55"/><path d="M100-162.5l24.8 225.6" stroke="#fff56"/><path d="M100-162.5l-84.8-212.1" stroke="#fff57"/><path d="M100-162.5l-50.3-225" stroke="#fff59"/><path d="M100-162.5l-7.1 232.6" stroke="#fff5005B"/><path d="M100-162.5l-189 135.7" stroke="#fff5B"/><path d="M100-162.5l-37.1-229.8" stroke="#005bbb5B"/><path d="M100-162.5l230.6-34.9" stroke="#005bbb5C"/><path d="M100-162.5l-45.7 229.2" stroke="#fff5C"/><path d="M100-162.5l-9.1-233.6" stroke="#fff5C"/><path d="M100-162.5l-112.3-205.9" stroke="#c2e1ff5D"/><path d="M100-162.5l-215.7-92.6" stroke="#fff5E"/><path d="M100-162.5l-56.2-228.2" stroke="#fff5005E"/><path d="M100-162.5l98.6-213.5" stroke="#c2e1ff5F"/><path d="M100-162.5l211.1-104.3" stroke="#fff5005F"/><path d="M100-162.5l-194.5-132.8" stroke="#fff60"/><path d="M100-162.5l233.3 33.5" stroke="#fff50060"/><path d="M100-162.5l-236.1 0.6" stroke="#fff62"/><path d="M100-162.5l-134.7-194" stroke="#c2e1ff62"/><path d="M100-162.5l-225.8-69" stroke="#fff50062"/><path d="M100-162.5l236.1 7.9" stroke="#c2e1ff62"/><path d="M100-162.5l223.4 76.6" stroke="#c2e1ff63"/><path d="M100-162.5l-73-224.7" stroke="#fff63"/><path d="M100-162.5l-156.5-177" stroke="#005bbb63"/><path d="M100-162.5l-195.7-132.3" stroke="#fff50064"/><path d="M100-162.5l61.2-228.2" stroke="#c2e1ff64"/><path d="M100-162.5l125 200.5" stroke="#005bbb64"/><path d="M100-162.5l225.3 70.7" stroke="#005bbb65"/><path d="M100-162.5l-234.6-27.5" stroke="#c2e1ff65"/><path d="M100-162.5l125.4 200" stroke="#fff65"/><path d="M100-162.5l-33.7-233.1" stroke="#c2e1ff67"/><path d="M100-162.5l99.2 213.4" stroke="#005bbb68"/><path d="M100-162.5l48.7-229.9" stroke="#c2e1ff69"/><path d="M100-162.5l-232.6 26.2" stroke="#005bbb6A"/><path d="M100-162.5l-126.2 196.5" stroke="#005bbb6B"/><path d="M100-162.5l222-71.4" stroke="#c2e1ff6B"/><path d="M100-162.5l139.5-186.7" stroke="#c2e1ff6C"/><path d="M100-162.5l156.5 172.5" stroke="#c2e1ff6C"/><path d="M100-162.5l70.4 221.9" stroke="#c2e1ff6C"/><path d="M100-162.5l-174.6 152.9" stroke="#005bbb6D"/><path d="M100-162.5l20.6 230.6" stroke="#fff5006D"/><path d="M100-162.5l-220.6 61.9" stroke="#c2e1ff70"/><path d="M100-162.5l-37.1 225.8" stroke="#fff50070"/><path d="M100-162.5l-222.2 52.9" stroke="#c2e1ff70"/><path d="M100-162.5l-155.1-167.6" stroke="#005bbb70"/><path d="M100-162.5l-212.9 81.4" stroke="#fff71"/><path d="M100-162.5l77.8 213.9" stroke="#fff71"/><path d="M100-162.5l227.4 0" stroke="#c2e1ff71"/><path d="M100-162.5l199.2 106.1" stroke="#fff72"/><path d="M100-162.5l-207.3 87.3" stroke="#fff50073"/><path d="M100-162.5l213.3 69.5" stroke="#005bbb73"/><path d="M100-162.5l-205.7-88.9" stroke="#005bbb73"/><path d="M100-162.5l-145.3 169.1" stroke="#005bbb74"/><path d="M100-162.5l-103.1 197.4" stroke="#fff50074"/><path d="M100-162.5l103.9-192.7" stroke="#fff76"/><path d="M100-162.5l69-207.4" stroke="#c2e1ff76"/><path d="M100-162.5l33.6-213.6" stroke="#fff78"/><path d="M100-162.5l208.5 53.3" stroke="#005bbb78"/><path d="M100-162.5l-134.5 166.6" stroke="#005bbb79"/><path d="M100-162.5l35.9 210.9" stroke="#fff50079"/><path d="M100-162.5l-166.4-134.4" stroke="#c2e1ff79"/><path d="M100-162.5l16.4 211.8" stroke="#c2e1ff79"/><path d="M100-162.5l-103.2-184.9" stroke="#005bbb7A"/><path d="M100-162.5l-168.3-127.9" stroke="#fff5007A"/><path d="M100-162.5l76.4 196" stroke="#005bbb7A"/><path d="M100-162.5l67.2 196.5" stroke="#c2e1ff7B"/><path d="M100-162.5l192.4 76.4" stroke="#fff7C"/><path d="M100-162.5l71.6-193" stroke="#fff5007C"/><path d="M100-162.5l-155.4 133.4" stroke="#fff5007C"/><path d="M100-162.5l-167.3-116.5" stroke="#fff7D"/><path d="M100-162.5l48.4-197.1" stroke="#fff7D"/><path d="M100-162.5l-8.3 202.3" stroke="#005bbb7D"/><path d="M100-162.5l-36.5-199" stroke="#fff7D"/><path d="M100-162.5l-6.7-202" stroke="#fff7D"/><path d="M100-162.5l-178.9 91.4" stroke="#005bbb7E"/><path d="M100-162.5l-35-190.7" stroke="#c2e1ff80"/><path d="M100-162.5l-177.2 73.6" stroke="#fff50081"/><path d="M100-162.5l124.8-139.4" stroke="#fff50082"/><path d="M100-162.5l165 88" stroke="#fff82"/><path d="M100-162.5l149.5 111" stroke="#005bbb82"/><path d="M100-162.5l127.7-134.1" stroke="#005bbb83"/><path d="M100-162.5l-146.6-109.9" stroke="#fff83"/><path d="M100-162.5l-153.5-94.2" stroke="#fff50084"/><path d="M100-162.5l75.5 162" stroke="#fff84"/><path d="M100-162.5l140.4 102" stroke="#005bbb85"/><path d="M100-162.5l146.2-89.9" stroke="#fff86"/><path d="M100-162.5l0.7-171.2" stroke="#c2e1ff86"/><path d="M100-162.5l-156.9 58.4" stroke="#fff50087"/><path d="M100-162.5l131.9-102.5" stroke="#fff50087"/><path d="M100-162.5l164.3 4.7" stroke="#005bbb87"/><path d="M100-162.5l160.9-16.2" stroke="#c2e1ff88"/><path d="M100-162.5l-130.8 90.2" stroke="#c2e1ff88"/><path d="M100-162.5l63.4 145.5" stroke="#fff50089"/><path d="M100-162.5l-123.4 92" stroke="#005bbb89"/><path d="M100-162.5l67.3-138.1" stroke="#c2e1ff89"/><path d="M100-162.5l-138.7-62.8" stroke="#fff5008A"/><path d="M100-162.5l118.5-95.2" stroke="#fff5008A"/><path d="M100-162.5l-25.9 145.2" stroke="#c2e1ff8B"/><path d="M100-162.5l115.5-85.3" stroke="#fff8B"/><path d="M100-162.5l45.6-133.6" stroke="#fff5008C"/><path d="M100-162.5l4.6 138.6" stroke="#fff5008C"/><path d="M100-162.5l113-71.9" stroke="#fff5008D"/><path d="M100-162.5l31.2-129.5" stroke="#fff5008D"/><path d="M100-162.5l-62-110.6" stroke="#005bbb8E"/><path d="M100-162.5l39.2 111.7" stroke="#fff5008F"/><path d="M100-162.5l114.1 23.6" stroke="#fff5008F"/><path d="M100-162.5l99.5-43.1" stroke="#005bbb90"/><path d="M100-162.5l82.6-49.8" stroke="#005bbb91"/><path d="M100-162.5l78.4 36.7" stroke="#005bbb92"/><path d="M100-162.5l79.5-1.6" stroke="#005bbb93"/><path d="M100-162.5l-70.9 31" stroke="#c2e1ff93"/><path d="M100-162.5l-72.1 18.6" stroke="#005bbb93"/><path d="M100-162.5l57.4-46" stroke="#c2e1ff93"/><path d="M100-162.5l19.7 66.3" stroke="#005bbb93"/><path d="M100-162.5l46.2-50.7" stroke="#c2e1ff93"/><path d="M100-162.5l20.6-54.4" stroke="#c2e1ff94"/><path d="M100-162.5l-9.6-56.4" stroke="#fff50094"/><path d="M100-162.5l-6.3 44.3" stroke="#fff50095"/><path d="M100-162.5l-8.2 33.4" stroke="#fff50095"/><path d="M100-162.5l31.7-4.4" stroke="#c2e1ff95"/></g><g class="sparcs"><path d="M67.9-106a6 6 0 1 1 0-12 6 6 0 0 1 0 12" fill="#005bbb7F"/><path d="M54.6-117.3a6 6 0 1 1 0-12 6 6 0 0 1 0 12" fill="#fff5007F"/><path d="M36.6-151.5a6 6 0 1 1 0-12.1 6 6 0 0 1 0 12.1" fill="#fff5007F"/><path d="M42.3-193.3a6 6 0 1 1 0-12.1 6 6 0 0 1 0 12.1" fill="#005bbb7F"/><path d="M98-241.7a6.1 6.1 0 1 1 0-12.2 6.1 6.1 0 0 1 0 12.2" fill="#c2e1ff81"/><path d="M140.5-71.5a6.2 6.2 0 1 1 0-12.3 6.2 6.2 0 0 1 0 12.3" fill="#fff50082"/><path d="M161.4-234.9a6.2 6.2 0 1 1 0-12.4 6.2 6.2 0 0 1 0 12.4" fill="#fff50083"/><path d="M0.3-149a6.2 6.2 0 1 1 0-12.4 6.2 6.2 0 0 1 0 12.4" fill="#c2e1ff83"/><path d="M177.9-86.9a6.2 6.2 0 1 1 0-12.5 6.2 6.2 0 0 1 0 12.5" fill="#fff83"/><path d="M189.2-100.9a6.2 6.2 0 1 1 0-12.5 6.2 6.2 0 0 1 0 12.5" fill="#c2e1ff83"/><path d="M97.6-48.8a6.2 6.2 0 1 1 0-12.4 6.2 6.2 0 0 1 0 12.4" fill="#fff50084"/><path d="M84.9-265.9a6.3 6.3 0 1 1 0-12.5 6.3 6.3 0 0 1 0 12.5" fill="#fff50084"/><path d="M173.1-248.8a6.3 6.3 0 1 1 0-12.6 6.3 6.3 0 0 1 0 12.6" fill="#fff85"/><path d="M216.2-131.4a6.3 6.3 0 1 1 0-12.6 6.3 6.3 0 0 1 0 12.6" fill="#fff85"/><path d="M-0.4-91.6a6.3 6.3 0 1 1 0-12.6 6.3 6.3 0 0 1 0 12.6" fill="#fff85"/><path d="M69.6-40.1a6.3 6.3 0 1 1 0-12.7 6.3 6.3 0 0 1 0 12.7" fill="#005bbb86"/><path d="M94.8-278.3a6.3 6.3 0 1 1 0-12.7 6.3 6.3 0 0 1 0 12.7" fill="#fff86"/><path d="M109-21.3a6.4 6.4 0 1 1 0-12.9 6.4 6.4 0 0 1 0 12.9" fill="#fff88"/><path d="M144-284.5a6.4 6.4 0 1 1 0-12.9 6.4 6.4 0 0 1 0 12.9" fill="#fff88"/><path d="M54.6-26.5a6.5 6.5 0 1 1 0-12.9 6.5 6.5 0 0 1 0 12.9" fill="#fff89"/><path d="M241.6-186.8a6.5 6.5 0 1 1 0-13.1 6.5 6.5 0 0 1 0 13.1" fill="#fff5008A"/><path d="M-37.2-95.5a6.6 6.6 0 1 1 0-13.2 6.6 6.6 0 0 1 0 13.2" fill="#c2e1ff8B"/><path d="M180.9-29.4a6.6 6.6 0 1 1 0-13.2 6.6 6.6 0 0 1 0 13.2" fill="#005bbb8B"/><path d="M35.7-15.4a6.6 6.6 0 1 1 0-13.2 6.6 6.6 0 0 1 0 13.2" fill="#c2e1ff8C"/><path d="M-37.6-226.5a6.6 6.6 0 1 1 0-13.2 6.6 6.6 0 0 1 0 13.2" fill="#fff8C"/><path d="M123.5-309a6.6 6.6 0 1 1 0-13.3 6.6 6.6 0 0 1 0 13.3" fill="#c2e1ff8C"/><path d="M168.5-307.4a6.8 6.8 0 1 1 0-13.5 6.8 6.8 0 0 1 0 13.5" fill="#fff8F"/><path d="M161.9-0.4a6.8 6.8 0 1 1 0-13.5 6.8 6.8 0 0 1 0 13.5" fill="#005bbb90"/><path d="M-69.7-199.1a6.9 6.9 0 1 1 0-13.7 6.9 6.9 0 0 1 0 13.7" fill="#fff50092"/><path d="M252.8-254.5a7 7 0 1 1 0-14 7 7 0 0 1 0 14" fill="#fff94"/><path d="M-41.8-37.7a7 7 0 1 1 0-14.1 7 7 0 0 1 0 14.1" fill="#fff95"/><path d="M5.9 5.1a7 7 0 1 1 0-14 7 7 0 0 1 0 14" fill="#c2e1ff95"/><path d="M98.6-341.7a7 7 0 1 1 0-14.1 7 7 0 0 1 0 14.1" fill="#005bbb96"/><path d="M203.1 0.3a7.1 7.1 0 1 1 0-14.1 7.1 7.1 0 0 1 0 14.1" fill="#005bbb96"/><path d="M8.1-319.5a7.1 7.1 0 1 1 0-14.1 7.1 7.1 0 0 1 0 14.1" fill="#005bbb96"/><path d="M175.2 18.5a7.1 7.1 0 1 1 0-14.2 7.1 7.1 0 0 1 0 14.2" fill="#fff97"/><path d="M257.8-260.4a7.1 7.1 0 1 1 0-14.2 7.1 7.1 0 0 1 0 14.2" fill="#fff97"/><path d="M113.5-346a7.1 7.1 0 1 1 0-14.3 7.1 7.1 0 0 1 0 14.3" fill="#005bbb97"/><path d="M164.5 25.8a7.1 7.1 0 1 1 0-14.3 7.1 7.1 0 0 1 0 14.3" fill="#005bbb98"/><path d="M288-203a7.2 7.2 0 1 1 0-14.4 7.2 7.2 0 0 1 0 14.4" fill="#fff50098"/><path d="M0.3 14.7a7.2 7.2 0 1 1 0-14.4 7.2 7.2 0 0 1 0 14.4" fill="#fff9A"/><path d="M281.8-79a7.2 7.2 0 1 1 0-14.5 7.2 7.2 0 0 1 0 14.5" fill="#fff5009A"/><path d="M122.4-360.8a7.4 7.4 0 1 1 0-14.8 7.4 7.4 0 0 1 0 14.8" fill="#005bbb9E"/><path d="M246.3-301.7a7.4 7.4 0 1 1 0-14.9 7.4 7.4 0 0 1 0 14.9" fill="#005bbb9E"/><path d="M-103.3-112a7.5 7.5 0 1 1 0-14.9 7.5 7.5 0 0 1 0 14.9" fill="#fff9F"/><path d="M263.2-13.9a7.7 7.7 0 1 1 0-15.3 7.7 7.7 0 0 1 0 15.3" fill="#fff500A3"/><path d="M237.9-323.5a7.7 7.7 0 1 1 0-15.5 7.7 7.7 0 0 1 0 15.5" fill="#fff500A4"/><path d="M-84.2-272.2a7.7 7.7 0 1 1 0-15.4 7.7 7.7 0 0 1 0 15.4" fill="#005bbbA5"/><path d="M-54.5 0.2a7.7 7.7 0 1 1 0-15.5 7.7 7.7 0 0 1 0 15.5" fill="#005bbbA5"/><path d="M86.5-375.5a7.8 7.8 0 1 1 0-15.7 7.8 7.8 0 0 1 0 15.7" fill="#fffA7"/><path d="M-88.2-38.2a7.8 7.8 0 1 1 0-15.7 7.8 7.8 0 0 1 0 15.7" fill="#fffA7"/><path d="M-114.7-211.7a7.9 7.9 0 1 1 0-15.8 7.9 7.9 0 0 1 0 15.8" fill="#c2e1ffA7"/><path d="M-120.1-124.4a7.9 7.9 0 1 1 0-15.7 7.9 7.9 0 0 1 0 15.7" fill="#fff500A7"/><path d="M320.9-121.7a7.9 7.9 0 1 1 0-15.8 7.9 7.9 0 0 1 0 15.8" fill="#c2e1ffA8"/><path d="M26-365.4a7.9 7.9 0 1 1 0-15.8 7.9 7.9 0 0 1 0 15.8" fill="#fffA8"/><path d="M240.9-329a7.9 7.9 0 1 1 0-15.9 7.9 7.9 0 0 1 0 15.9" fill="#fff500A9"/><path d="M20.2 55a7.9 7.9 0 1 1 0-15.9 7.9 7.9 0 0 1 0 15.9" fill="#fffA9"/><path d="M322.5-183.7a7.9 7.9 0 1 1 0-15.8 7.9 7.9 0 0 1 0 15.8" fill="#fff500A9"/><path d="M-118.9-205.3a7.9 7.9 0 1 1 0-15.9 7.9 7.9 0 0 1 0 15.9" fill="#fff500A9"/><path d="M88.4-380.1a8 8 0 1 1 0-16 8 8 0 0 1 0 16" fill="#fffAA"/><path d="M115 71.4a8 8 0 1 1 0-16 8 8 0 0 1 0 16" fill="#005bbbAB"/><path d="M225.1-343.4a8 8 0 1 1 0-16 8 8 0 0 1 0 16" fill="#005bbbAB"/><path d="M124.8 71.2a8 8 0 1 1 0-16.1 8 8 0 0 1 0 16.1" fill="#fffAB"/><path d="M15.2-366.5a8.1 8.1 0 1 1 0-16.2 8.1 8.1 0 0 1 0 16.2" fill="#c2e1ffAD"/><path d="M49.7-379.3a8.2 8.2 0 1 1 0-16.4 8.2 8.2 0 0 1 0 16.4" fill="#fff500AF"/><path d="M92.9 78.4a8.3 8.3 0 1 1 0-16.7 8.3 8.3 0 0 1 0 16.7" fill="#005bbbB2"/><path d="M-89-18.5a8.3 8.3 0 1 1 0-16.7 8.3 8.3 0 0 1 0 16.7" fill="#c2e1ffB2"/><path d="M62.9-384a8.4 8.4 0 1 1 0-16.7 8.4 8.4 0 0 1 0 16.7" fill="#005bbbB2"/><path d="M330.6-189a8.4 8.4 0 1 1 0-16.8 8.4 8.4 0 0 1 0 16.8" fill="#fff500B3"/><path d="M54.3 75.2a8.4 8.4 0 1 1 0-16.9 8.4 8.4 0 0 1 0 16.9" fill="#c2e1ffB4"/><path d="M90.9-387.7a8.4 8.4 0 1 1 0-16.8 8.4 8.4 0 0 1 0 16.8" fill="#005bbbB4"/><path d="M-12.3-359.9a8.5 8.5 0 1 1 0-17 8.5 8.5 0 0 1 0 17" fill="#fffB6"/><path d="M-115.7-246.5a8.5 8.5 0 1 1 0-17.1 8.5 8.5 0 0 1 0 17.1" fill="#c2e1ffB6"/><path d="M43.8-382.2a8.6 8.6 0 1 1 0-17.1 8.6 8.6 0 0 1 0 17.1" fill="#fffB7"/><path d="M198.6-367.4a8.6 8.6 0 1 1 0-17.1 8.6 8.6 0 0 1 0 17.1" fill="#005bbbB7"/><path d="M311.1-258.2a8.6 8.6 0 1 1 0-17.3 8.6 8.6 0 0 1 0 17.3" fill="#005bbbB8"/><path d="M-94.5-286.7a8.6 8.6 0 1 1 0-17.2 8.6 8.6 0 0 1 0 17.2" fill="#005bbbB9"/><path d="M333.3-120.3a8.7 8.7 0 1 1 0-17.4 8.7 8.7 0 0 1 0 17.4" fill="#fff500B9"/><path d="M-136.1-153.2a8.7 8.7 0 1 1 0-17.5 8.7 8.7 0 0 1 0 17.5" fill="#fff500BB"/><path d="M-34.7-347.7a8.8 8.8 0 1 1 0-17.5 8.8 8.8 0 0 1 0 17.5" fill="#005bbbBB"/><path d="M-125.8-222.7a8.8 8.8 0 1 1 0-17.6 8.8 8.8 0 0 1 0 17.6" fill="#005bbbBC"/><path d="M336.1-145.8a8.8 8.8 0 1 1 0-17.6 8.8 8.8 0 0 1 0 17.6" fill="#fffBC"/><path d="M323.4-77a8.8 8.8 0 1 1 0-17.7 8.8 8.8 0 0 1 0 17.7" fill="#005bbbBC"/><path d="M27-378.3a8.8 8.8 0 1 1 0-17.7 8.8 8.8 0 0 1 0 17.7" fill="#fffBD"/><path d="M-56.5-330.7a8.8 8.8 0 1 1 0-17.6 8.8 8.8 0 0 1 0 17.6" fill="#005bbbBD"/><path d="M-95.7-286a8.9 8.9 0 1 1 0-17.7 8.9 8.9 0 0 1 0 17.7" fill="#c2e1ffBE"/><path d="M161.2-381.8a8.9 8.9 0 1 1 0-17.8 8.9 8.9 0 0 1 0 17.8" fill="#fffBE"/><path d="M225 46.8a8.9 8.9 0 1 1 0-17.7 8.9 8.9 0 0 1 0 17.7" fill="#fffBE"/><path d="M325.3-82.9a8.9 8.9 0 1 1 0-17.9 8.9 8.9 0 0 1 0 17.9" fill="#c2e1ffBF"/><path d="M-134.6-181a8.9 8.9 0 1 1 0-17.9 8.9 8.9 0 0 1 0 17.9" fill="#c2e1ffBF"/><path d="M225.4 46.5a9 9 0 1 1 0-17.9 9 9 0 0 1 0 17.9" fill="#fff500C0"/><path d="M66.3-386.5a9.1 9.1 0 1 1 0-18.2 9.1 9.1 0 0 1 0 18.2" fill="#005bbbC2"/><path d="M199.2 60a9.1 9.1 0 1 1 0-18.2 9.1 9.1 0 0 1 0 18.2" fill="#005bbbC3"/><path d="M148.7-383.2a9.2 9.2 0 1 1 0-18.3 9.2 9.2 0 0 1 0 18.3" fill="#005bbbC4"/><path d="M-132.6-127.1a9.3 9.3 0 1 1 0-18.5 9.3 9.3 0 0 1 0 18.5" fill="#fff500C6"/><path d="M-26.2 43.3a9.3 9.3 0 1 1 0-18.6 9.3 9.3 0 0 1 0 18.6" fill="#fffC7"/><path d="M322-224.5a9.3 9.3 0 1 1 0-18.7 9.3 9.3 0 0 1 0 18.7" fill="#c2e1ffC8"/><path d="M239.5-339.9a9.3 9.3 0 1 1 0-18.7 9.3 9.3 0 0 1 0 18.7" fill="#fff500C8"/><path d="M256.5 19.4a9.4 9.4 0 1 1 0-18.7 9.4 9.4 0 0 1 0 18.7" fill="#c2e1ffC8"/><path d="M170.4 68.8a9.4 9.4 0 1 1 0-18.7 9.4 9.4 0 0 1 0 18.7" fill="#c2e1ffC9"/><path d="M-74.6-0.2a9.4 9.4 0 1 1 0-18.8 9.4 9.4 0 0 1 0 18.8" fill="#fff500CA"/><path d="M120.6 77.5a9.4 9.4 0 1 1 0-18.9 9.4 9.4 0 0 1 0 18.9" fill="#005bbbCA"/><path d="M-120.6-91.1a9.6 9.6 0 1 1 0-19.1 9.6 9.6 0 0 1 0 19.1" fill="#fffCD"/><path d="M62.9 72.9a9.6 9.6 0 1 1 0-19.2 9.6 9.6 0 0 1 0 19.2" fill="#005bbbCE"/><path d="M-122.2-99.9a9.6 9.6 0 1 1 0-19.3 9.6 9.6 0 0 1 0 19.3" fill="#c2e1ffCE"/><path d="M-55.1-320.4a9.6 9.6 0 1 1 0-19.3 9.6 9.6 0 0 1 0 19.3" fill="#005bbbCE"/><path d="M-112.9-71.5a9.6 9.6 0 1 1 0-19.3 9.6 9.6 0 0 1 0 19.3" fill="#c2e1ffCF"/><path d="M177.8 61.1a9.7 9.7 0 1 1 0-19.3 9.7 9.7 0 0 1 0 19.3" fill="#005bbbCF"/><path d="M327.4-152.8a9.7 9.7 0 1 1 0-19.4 9.7 9.7 0 0 1 0 19.4" fill="#c2e1ffCF"/><path d="M299.2-46.7a9.7 9.7 0 1 1 0-19.5 9.7 9.7 0 0 1 0 19.5" fill="#005bbbD1"/><path d="M-107.3-65.4a9.8 9.8 0 1 1 0-19.6 9.8 9.8 0 0 1 0 19.6" fill="#c2e1ffD1"/><path d="M313.3-83.2a9.8 9.8 0 1 1 0-19.6 9.8 9.8 0 0 1 0 19.6" fill="#fff500D2"/><path d="M-105.7-241.6a9.8 9.8 0 1 1 0-19.6 9.8 9.8 0 0 1 0 19.6" fill="#005bbbD2"/><path d="M-45.3 16.4a9.8 9.8 0 1 1 0-19.6 9.8 9.8 0 0 1 0 19.6" fill="#fff500D3"/><path d="M-3.1 44.8a9.8 9.8 0 1 1 0-19.7 9.8 9.8 0 0 1 0 19.7" fill="#c2e1ffD3"/><path d="M203.9-345.2a10 10 0 1 1 0-19.9 10 10 0 0 1 0 19.9" fill="#005bbbD6"/><path d="M169-359.9a10 10 0 1 1 0-20 10 10 0 0 1 0 20" fill="#fffD6"/><path d="M133.6-366.1a10 10 0 1 1 0-20.1 10 10 0 0 1 0 20.1" fill="#005bbbD8"/><path d="M308.5-99.1a10.1 10.1 0 1 1 0-20.2 10.1 10.1 0 0 1 0 20.2" fill="#c2e1ffD8"/><path d="M-34.5 14.2a10.1 10.1 0 1 1 0-20.2 10.1 10.1 0 0 1 0 20.2" fill="#fff500D9"/><path d="M135.9 58.5a10.1 10.1 0 1 1 0-20.2 10.1 10.1 0 0 1 0 20.2" fill="#fff500D9"/><path d="M-66.4-286.8a10.1 10.1 0 1 1 0-20.2 10.1 10.1 0 0 1 0 20.2" fill="#fff500D9"/><path d="M116.4 59.5a10.2 10.2 0 1 1 0-20.3 10.2 10.2 0 0 1 0 20.3" fill="#fffDA"/><path d="M-3.2-337.3a10.2 10.2 0 1 1 0-20.3 10.2 10.2 0 0 1 0 20.3" fill="#c2e1ffDA"/><path d="M-68.3-280.2a10.2 10.2 0 1 1 0-20.3 10.2 10.2 0 0 1 0 20.3" fill="#fff500DB"/><path d="M176.4 43.7a10.2 10.2 0 1 1 0-20.4 10.2 10.2 0 0 1 0 20.4" fill="#fff500DB"/><path d="M167.2 44.3a10.3 10.3 0 1 1 0-20.6 10.3 10.3 0 0 1 0 20.6" fill="#c2e1ffDC"/><path d="M292.4-75.9a10.3 10.3 0 1 1 0-20.5 10.3 10.3 0 0 1 0 20.5" fill="#fff500DD"/><path d="M171.6-345.2a10.3 10.3 0 1 1 0-20.6 10.3 10.3 0 0 1 0 20.6" fill="#005bbbDD"/><path d="M-55.4-18.8a10.3 10.3 0 1 1 0-20.7 10.3 10.3 0 0 1 0 20.7" fill="#fff500DE"/><path d="M-67.3-268.6a10.4 10.4 0 1 1 0-20.7 10.4 10.4 0 0 1 0 20.7" fill="#fffDE"/><path d="M148.4-349.2a10.4 10.4 0 1 1 0-20.8 10.4 10.4 0 0 1 0 20.8" fill="#005bbbDF"/><path d="M91.7 50.1a10.4 10.4 0 1 1 0-20.7 10.4 10.4 0 0 1 0 20.7" fill="#fff500DF"/><path d="M63.5-351.1a10.4 10.4 0 1 1 0-20.8 10.4 10.4 0 0 1 0 20.8" fill="#005bbbDF"/><path d="M93.3-354.1a10.4 10.4 0 1 1 0-20.8 10.4 10.4 0 0 1 0 20.8" fill="#fffDF"/><path d="M-78.9-60.6a10.4 10.4 0 1 1 0-20.9 10.4 10.4 0 0 1 0 20.9" fill="#c2e1ffE0"/><path d="M65-342.6a10.5 10.5 0 1 1 0-21.1 10.5 10.5 0 0 1 0 21.1" fill="#fffE3"/><path d="M-77.2-78.3a10.6 10.6 0 1 1 0-21.2 10.6 10.6 0 0 1 0 21.2" fill="#fff500E3"/><path d="M224.8-291.3a10.7 10.7 0 1 1 0-21.3 10.7 10.7 0 0 1 0 21.3" fill="#c2e1ffE5"/><path d="M265-63.9a10.7 10.7 0 1 1 0-21.3 10.7 10.7 0 0 1 0 21.3" fill="#fffE5"/><path d="M249.5-40.9a10.7 10.7 0 1 1 0-21.3 10.7 10.7 0 0 1 0 21.3" fill="#fff500E6"/><path d="M227.7-286a10.7 10.7 0 1 1 0-21.3 10.7 10.7 0 0 1 0 21.3" fill="#c2e1ffE6"/><path d="M-46.6-261.6a10.7 10.7 0 1 1 0-21.5 10.7 10.7 0 0 1 0 21.5" fill="#fff500E7"/><path d="M-53.5-246a10.8 10.8 0 1 1 0-21.5 10.8 10.8 0 0 1 0 21.5" fill="#fffE8"/><path d="M175.5 10.3a10.8 10.8 0 1 1 0-21.6 10.8 10.8 0 0 1 0 21.6" fill="#005bbbE8"/><path d="M240.4-49.6a10.9 10.9 0 1 1 0-21.7 10.9 10.9 0 0 1 0 21.7" fill="#fff500EA"/><path d="M246.2-241.5a10.9 10.9 0 1 1 0-21.8 10.9 10.9 0 0 1 0 21.8" fill="#fffEA"/><path d="M100.7-322.8a10.9 10.9 0 1 1 0-21.8 10.9 10.9 0 0 1 0 21.8" fill="#fffEA"/><path d="M-56.9-93.1a10.9 10.9 0 1 1 0-21.9 10.9 10.9 0 0 1 0 21.9" fill="#005bbbEB"/><path d="M231.9-254.1a10.9 10.9 0 1 1 0-21.9 10.9 10.9 0 0 1 0 21.9" fill="#fff500EB"/><path d="M264.3-146.8a11 11 0 1 1 0-21.9 11 11 0 0 1 0 21.9" fill="#fffEC"/><path d="M260.9-167.7a11 11 0 1 1 0-22.1 11 11 0 0 1 0 22.1" fill="#c2e1ffED"/><path d="M-30.8-61.2a11 11 0 1 1 0-22.1 11 11 0 0 1 0 22.1" fill="#c2e1ffEE"/><path d="M163.4-6a11 11 0 1 1 0-22.1 11 11 0 0 1 0 22.1" fill="#c2e1ffEE"/><path d="M-23.4-59.4a11.1 11.1 0 1 1 0-22.2 11.1 11.1 0 0 1 0 22.2" fill="#c2e1ffEF"/><path d="M167.3-289.4a11.1 11.1 0 1 1 0-22.3 11.1 11.1 0 0 1 0 22.3" fill="#fff500EF"/><path d="M-38.7-214.2a11.1 11.1 0 1 1 0-22.2 11.1 11.1 0 0 1 0 22.2" fill="#c2e1ffEF"/><path d="M218.5-246.6a11.1 11.1 0 1 1 0-22.2 11.1 11.1 0 0 1 0 22.2" fill="#005bbbEF"/><path d="M74.1-6.2a11.2 11.2 0 1 1 0-22.3 11.2 11.2 0 0 1 0 22.3" fill="#005bbbF0"/><path d="M215.5-236.6a11.2 11.2 0 1 1 0-22.4 11.2 11.2 0 0 1 0 22.4" fill="#fff500F1"/><path d="M145.6-284.9a11.2 11.2 0 1 1 0-22.5 11.2 11.2 0 0 1 0 22.5" fill="#fffF2"/><path d="M104.6-12.7a11.3 11.3 0 1 1 0-22.5 11.3 11.3 0 0 1 0 22.5" fill="#005bbbF2"/><path d="M213-223.1a11.3 11.3 0 1 1 0-22.6 11.3 11.3 0 0 1 0 22.6" fill="#fffF3"/><path d="M131.2-280.7a11.3 11.3 0 1 1 0-22.6 11.3 11.3 0 0 1 0 22.6" fill="#fff500F3"/><path d="M38-261.7a11.4 11.4 0 1 1 0-22.7 11.4 11.4 0 0 1 0 22.7" fill="#c2e1ffF4"/><path d="M139.2-39.3a11.4 11.4 0 1 1 0-22.9 11.4 11.4 0 0 1 0 22.9" fill="#c2e1ffF6"/><path d="M214.1-127.5a11.4 11.4 0 1 1 0-22.9 11.4 11.4 0 0 1 0 22.9" fill="#005bbbF6"/><path d="M199.5-194.2a11.5 11.5 0 1 1 0-22.9 11.5 11.5 0 0 1 0 22.9" fill="#005bbbF7"/><path d="M182.6-200.7a11.6 11.6 0 1 1 0-23.1 11.6 11.6 0 0 1 0 23.1" fill="#c2e1ffF9"/><path d="M178.4-114.2a11.6 11.6 0 1 1 0-23.2 11.6 11.6 0 0 1 0 23.2" fill="#c2e1ffFA"/><path d="M179.5-152.5a11.6 11.6 0 1 1 0-23.2 11.6 11.6 0 0 1 0 23.2" fill="#005bbbFB"/><path d="M29.1-119.8a11.6 11.6 0 1 1 0-23.3 11.6 11.6 0 0 1 0 23.3" fill="#005bbbFB"/><path d="M27.9-132.2a11.7 11.7 0 1 1 0-23.3 11.7 11.7 0 0 1 0 23.3" fill="#fffFB"/><path d="M157.4-196.8a11.7 11.7 0 1 1 0-23.4 11.7 11.7 0 0 1 0 23.4" fill="#005bbbFB"/><path d="M119.7-84.5a11.7 11.7 0 1 1 0-23.4 11.7 11.7 0 0 1 0 23.4" fill="#fffFC"/><path d="M146.2-201.5a11.7 11.7 0 1 1 0-23.4 11.7 11.7 0 0 1 0 23.4" fill="#c2e1ffFC"/><path d="M120.6-205.1a11.7 11.7 0 1 1 0-23.5 11.7 11.7 0 0 1 0 23.5" fill="#c2e1ffFD"/><path d="M90.4-207.2a11.7 11.7 0 1 1 0-23.4 11.7 11.7 0 0 1 0 23.4" fill="#fffFD"/><path d="M93.7-106.5a11.8 11.8 0 1 1 0-23.5 11.8 11.8 0 0 1 0 23.5" fill="#fff500FD"/><path d="M91.8-117.3a11.8 11.8 0 1 1 0-23.5 11.8 11.8 0 0 1 0 23.5" fill="#005bbbFE"/><path d="M131.7-155.1a11.8 11.8 0 1 1 0-23.6 11.8 11.8 0 0 1 0 23.6" fill="#005bbbFE"/></g></svg>