<svg width="1200" height="675" viewBox="-500 -500 1200 675" xmlns="http://www.w3.org/2000/svg"><path d="M-500-500h1200v675h-1200z" fill="#000"/><style>.sparkles path{stroke-linecap:round; stroke-width:1}</style><g class="sparkles"><path d="M100-162.5l-25.5-26.6" stroke="#2a9d8f32"/><path d="M100-162.5l7 36.6" stroke="#e76f5132"/><path d="M100-162.5l66.6 26" stroke="#e76f5134"/><path d="M100-162.5l52.5 54.6" stroke="#26465334"/><path d="M100-162.5l-19.9 83.3" stroke="#e76f5135"/><path d="M100-162.5l5.7-85.9" stroke="#2a9d8f35"/><path d="M100-162.5l-85.3 22.4" stroke="#2a9d8f35"/><path d="M100-162.5l0.6-91.6" stroke="#f4a26135"/><path d="M100-162.5l36.4 88.2" stroke="#f4a26136"/><path d="M100-162.5l-34.5-93.4" stroke="#26465336"/><path d="M100-162.5l-110.9-1.7" stroke="#e9c46a37"/><path d="M100-162.5l-82.1 78.4" stroke="#e76f5138"/><path d="M100-162.5l-117.5 6.5" stroke="#f4a26138"/><path d="M100-162.5l-43.5-110.6" stroke="#e9c46a38"/><path d="M100-162.5l106.9-52.8" stroke="#2a9d8f38"/><path d="M100-162.5l-28.6 116.3" stroke="#26465338"/><path d="M100-162.5l40.6-112.9" stroke="#26465338"/><path d="M100-162.5l2.3 121.2" stroke="#e76f5139"/><path d="M100-162.5l-123.1-1.2" stroke="#2a9d8f39"/><path d="M100-162.5l1.1-126.2" stroke="#e9c46a39"/><path d="M100-162.5l-124.7-34.3" stroke="#e9c46a3A"/><path d="M100-162.5l-125.6-39.8" stroke="#f4a2613A"/><path d="M100-162.5l-120.9 53.6" stroke="#e76f513A"/><path d="M100-162.5l77.3-109.8" stroke="#2a9d8f3A"/><path d="M100-162.5l124.9-51" stroke="#e76f513A"/><path d="M100-162.5l122.2 66" stroke="#2646533B"/><path d="M100-162.5l-35.6 134.4" stroke="#e9c46a3B"/><path d="M100-162.5l113-89.6" stroke="#e76f513C"/><path d="M100-162.5l144.9 41.8" stroke="#f4a2613D"/><path d="M100-162.5l125.6 89.2" stroke="#e76f513E"/><path d="M100-162.5l98.6 120.1" stroke="#f4a2613E"/><path d="M100-162.5l87.3 130.1" stroke="#f4a2613E"/><path d="M100-162.5l161.5 0" stroke="#e76f513F"/><path d="M100-162.5l-11.2 162" stroke="#2646533F"/><path d="M100-162.5l0.7 163.3" stroke="#e9c46a3F"/><path d="M100-162.5l7.5-163.2" stroke="#e76f513F"/><path d="M100-162.5l-125.6 104.8" stroke="#e9c46a3F"/><path d="M100-162.5l141.1 83.4" stroke="#e76f513F"/><path d="M100-162.5l100.9 132" stroke="#26465340"/><path d="M100-162.5l155.7 60.2" stroke="#e76f5140"/><path d="M100-162.5l51.3-162.4" stroke="#e9c46a41"/><path d="M100-162.5l139.5-99.3" stroke="#26465341"/><path d="M100-162.5l17.7 177.7" stroke="#e76f5143"/><path d="M100-162.5l-179 22.4" stroke="#2a9d8f43"/><path d="M100-162.5l181.5-24.9" stroke="#2a9d8f44"/><path d="M100-162.5l17.5-185.7" stroke="#2a9d8f45"/><path d="M100-162.5l-160-99.1" stroke="#e76f5145"/><path d="M100-162.5l-182.1 57.6" stroke="#f4a26146"/><path d="M100-162.5l174.8-86.5" stroke="#2a9d8f47"/><path d="M100-162.5l197.1-39.7" stroke="#f4a26149"/><path d="M100-162.5l118.4 163.5" stroke="#2646534A"/><path d="M100-162.5l-201.9 2" stroke="#e76f514A"/><path d="M100-162.5l159.7 123.9" stroke="#2a9d8f4A"/><path d="M100-162.5l-89.1 181.5" stroke="#e76f514A"/><path d="M100-162.5l-65.3 193.9" stroke="#2646534B"/><path d="M100-162.5l158.2-130" stroke="#2a9d8f4B"/><path d="M100-162.5l36.3-201.9" stroke="#2646534B"/><path d="M100-162.5l151.8 139" stroke="#2646534B"/><path d="M100-162.5l177.5-105" stroke="#2a9d8f4B"/><path d="M100-162.5l18.8-206.3" stroke="#2a9d8f4B"/><path d="M100-162.5l-158.9-138.6" stroke="#e76f514D"/><path d="M100-162.5l201.4-65.3" stroke="#2a9d8f4D"/><path d="M100-162.5l-114.9 180" stroke="#e76f514E"/><path d="M100-162.5l-200 83.5" stroke="#26465350"/><path d="M100-162.5l-125.8 178" stroke="#f4a26150"/><path d="M100-162.5l135.8-171.3" stroke="#e76f5151"/><path d="M100-162.5l221.4-6.9" stroke="#e9c46a52"/><path d="M100-162.5l169.9-143" stroke="#e76f5152"/><path d="M100-162.5l-191.5-113.2" stroke="#e76f5153"/><path d="M100-162.5l-166.9-147.7" stroke="#f4a26153"/><path d="M100-162.5l152.3-163.8" stroke="#e9c46a53"/><path d="M100-162.5l225.3-10" stroke="#26465355"/><path d="M100-162.5l82.3-210.3" stroke="#e9c46a55"/><path d="M100-162.5l225.6-14.5" stroke="#e76f5155"/><path d="M100-162.5l-193.2-117.8" stroke="#f4a26155"/><path d="M100-162.5l141.8 176.8" stroke="#26465355"/><path d="M100-162.5l-164.7 155.7" stroke="#e76f5155"/><path d="M100-162.5l-174.9 144.5" stroke="#e76f5156"/><path d="M100-162.5l184.9-131.9" stroke="#f4a26156"/><path d="M100-162.5l30.5 227" stroke="#2a9d8f57"/><path d="M100-162.5l22.8 228" stroke="#e9c46a57"/><path d="M100-162.5l-84.5 213.1" stroke="#e9c46a57"/><path d="M100-162.5l-85.7-212.7" stroke="#e76f5157"/><path d="M100-162.5l-78.1-215.6" stroke="#26465357"/><path d="M100-162.5l-101.3-206.7" stroke="#e9c46a58"/><path d="M100-162.5l37.1 228.3" stroke="#2a9d8f59"/><path d="M100-162.5l-134.8-188.9" stroke="#2646535A"/><path d="M100-162.5l27.2 230.5" stroke="#2646535A"/><path d="M100-162.5l-187.8-136.5" stroke="#2646535A"/><path d="M100-162.5l28.9-230.7" stroke="#f4a2615B"/><path d="M100-162.5l-169.6 159.5" stroke="#f4a2615B"/><path d="M100-162.5l118.4-200.8" stroke="#e76f515B"/><path d="M100-162.5l43.3-229.5" stroke="#2646535C"/><path d="M100-162.5l-155.6-175.3" stroke="#2a9d8f5D"/><path d="M100-162.5l-95 214.8" stroke="#f4a2615E"/><path d="M100-162.5l-160.5-172.3" stroke="#f4a26160"/><path d="M100-162.5l-224.4 71.7" stroke="#26465360"/><path d="M100-162.5l48.8-230.9" stroke="#e76f5161"/><path d="M100-162.5l232.3 42.7" stroke="#f4a26163"/><path d="M100-162.5l47.9-231.3" stroke="#2a9d8f63"/><path d="M100-162.5l205.7-116.1" stroke="#f4a26164"/><path d="M100-162.5l77.7-223" stroke="#26465365"/><path d="M100-162.5l193-135.9" stroke="#f4a26165"/><path d="M100-162.5l-235.3-14.7" stroke="#f4a26167"/><path d="M100-162.5l-194.6-132.3" stroke="#2a9d8f68"/><path d="M100-162.5l-230.4 46.3" stroke="#2a9d8f69"/><path d="M100-162.5l232-29.6" stroke="#e76f516B"/><path d="M100-162.5l-130.4-191.7" stroke="#2a9d8f6D"/><path d="M100-162.5l-228.9-31.1" stroke="#e9c46a6E"/><path d="M100-162.5l-207.7 96.4" stroke="#f4a26170"/><path d="M100-162.5l-5.1-228.3" stroke="#e76f5170"/><path d="M100-162.5l-226.8 18.7" stroke="#e76f5171"/><path d="M100-162.5l-222.2 47.7" stroke="#e9c46a71"/><path d="M100-162.5l81.4 211.3" stroke="#26465372"/><path d="M100-162.5l209.1-85.6" stroke="#26465372"/><path d="M100-162.5l-224.4 22.8" stroke="#e9c46a72"/><path d="M100-162.5l-70.9 213.7" stroke="#2a9d8f73"/><path d="M100-162.5l192.3-114.7" stroke="#2a9d8f73"/><path d="M100-162.5l5.4 222.7" stroke="#e9c46a74"/><path d="M100-162.5l212.7 58" stroke="#e9c46a75"/><path d="M100-162.5l-219.1 16" stroke="#e9c46a76"/><path d="M100-162.5l-113.4-187" stroke="#e9c46a76"/><path d="M100-162.5l-117.6-183.6" stroke="#e9c46a77"/><path d="M100-162.5l-146.9-160.6" stroke="#f4a26177"/><path d="M100-162.5l213.1-42.7" stroke="#2a9d8f77"/><path d="M100-162.5l169.4 133.4" stroke="#e9c46a78"/><path d="M100-162.5l0.9-215.2" stroke="#2a9d8f78"/><path d="M100-162.5l49.1 208.4" stroke="#e9c46a79"/><path d="M100-162.5l-161.9-139.4" stroke="#e76f5179"/><path d="M100-162.5l-167.8 130.7" stroke="#e76f5179"/><path d="M100-162.5l-150.4-150.3" stroke="#2a9d8f79"/><path d="M100-162.5l205.8-53.2" stroke="#e9c46a79"/><path d="M100-162.5l177.9-115.3" stroke="#e76f517A"/><path d="M100-162.5l-128.8-160.7" stroke="#e76f517C"/><path d="M100-162.5l-138.8 151.1" stroke="#2a9d8f7C"/><path d="M100-162.5l-44.4-198.9" stroke="#2646537D"/><path d="M100-162.5l106.5-173.6" stroke="#2a9d8f7D"/><path d="M100-162.5l181.6 89.7" stroke="#e76f517D"/><path d="M100-162.5l-96.7 175.9" stroke="#f4a2617E"/><path d="M100-162.5l-155.8-118.1" stroke="#2a9d8f80"/><path d="M100-162.5l71.2-180.3" stroke="#e76f5180"/><path d="M100-162.5l188-34.7" stroke="#2a9d8f81"/><path d="M100-162.5l-176.8 70.3" stroke="#f4a26181"/><path d="M100-162.5l180 61.4" stroke="#e9c46a81"/><path d="M100-162.5l170.7 80.7" stroke="#e76f5182"/><path d="M100-162.5l-186.3 25.9" stroke="#f4a26182"/><path d="M100-162.5l141.9 121.3" stroke="#e76f5182"/><path d="M100-162.5l-26.5-176.5" stroke="#26465384"/><path d="M100-162.5l176.5 23.8" stroke="#26465384"/><path d="M100-162.5l-177.2-11.3" stroke="#e9c46a84"/><path d="M100-162.5l-166.7 49.6" stroke="#e9c46a85"/><path d="M100-162.5l169.5 38.8" stroke="#26465385"/><path d="M100-162.5l73.5-156.9" stroke="#f4a26185"/><path d="M100-162.5l144.1 95.5" stroke="#2a9d8f86"/><path d="M100-162.5l-168.8-27.1" stroke="#26465386"/><path d="M100-162.5l-24.4 164.5" stroke="#e76f5187"/><path d="M100-162.5l-97.5 121.5" stroke="#26465389"/><path d="M100-162.5l-29.4 152.7" stroke="#e76f5189"/><path d="M100-162.5l-152.6-0.4" stroke="#e76f518A"/><path d="M100-162.5l-19.9-151" stroke="#f4a2618A"/><path d="M100-162.5l-22.9 149.4" stroke="#e9c46a8A"/><path d="M100-162.5l32 147.6" stroke="#2a9d8f8A"/><path d="M100-162.5l-47.7 140.3" stroke="#e76f518A"/><path d="M100-162.5l147.3 7.5" stroke="#e9c46a8B"/><path d="M100-162.5l133.7-56.8" stroke="#2646538B"/><path d="M100-162.5l19-136.5" stroke="#2646538C"/><path d="M100-162.5l-12.9-130.4" stroke="#f4a2618D"/><path d="M100-162.5l29.9-113.7" stroke="#2646538F"/><path d="M100-162.5l85.9 65" stroke="#e9c46a90"/><path d="M100-162.5l-68.9-69.7" stroke="#f4a26191"/><path d="M100-162.5l-97.1-8.9" stroke="#2a9d8f91"/><path d="M100-162.5l-37.8 87.7" stroke="#26465391"/><path d="M100-162.5l88.2 35.1" stroke="#26465391"/><path d="M100-162.5l79.3 43.8" stroke="#2a9d8f92"/><path d="M100-162.5l-80-19.6" stroke="#2a9d8f92"/><path d="M100-162.5l7.6 52.9" stroke="#26465394"/><path d="M100-162.5l-25.7-33.6" stroke="#f4a26195"/><path d="M100-162.5l19.4-33.6" stroke="#e76f5195"/><path d="M100-162.5l34 16.3" stroke="#e9c46a95"/><path d="M100-162.5l-20.2-11.2" stroke="#e9c46a95"/><path d="M100-162.5l10.5-15.1" stroke="#2a9d8f95"/></g><g class="sparcs"><path d="M74.5-183.1a5.9 5.9 0 1 1 0-11.9 5.9 5.9 0 0 1 0 11.9" fill="#e9c46a7D"/><path d="M107-119.9a5.9 5.9 0 1 1 0-11.9 5.9 5.9 0 0 1 0 11.9" fill="#2646537D"/><path d="M166.6-130.5a6 6 0 1 1 0-12.1 6 6 0 0 1 0 12.1" fill="#e9c46a80"/><path d="M152.5-101.9a6.1 6.1 0 1 1 0-12.1 6.1 6.1 0 0 1 0 12.1" fill="#26465380"/><path d="M80.1-73.1a6.1 6.1 0 1 1 0-12.2 6.1 6.1 0 0 1 0 12.2" fill="#e76f5181"/><path d="M105.7-242.3a6.1 6.1 0 1 1 0-12.2 6.1 6.1 0 0 1 0 12.2" fill="#e9c46a81"/><path d="M14.7-134a6.1 6.1 0 1 1 0-12.2 6.1 6.1 0 0 1 0 12.2" fill="#e76f5181"/><path d="M100.6-247.9a6.1 6.1 0 1 1 0-12.3 6.1 6.1 0 0 1 0 12.3" fill="#e9c46a82"/><path d="M136.4-68.1a6.2 6.2 0 1 1 0-12.3 6.2 6.2 0 0 1 0 12.3" fill="#e76f5182"/><path d="M65.5-249.7a6.2 6.2 0 1 1 0-12.4 6.2 6.2 0 0 1 0 12.4" fill="#f4a26183"/><path d="M-10.9-158a6.3 6.3 0 1 1 0-12.5 6.3 6.3 0 0 1 0 12.5" fill="#e76f5184"/><path d="M17.9-77.8a6.3 6.3 0 1 1 0-12.6 6.3 6.3 0 0 1 0 12.6" fill="#e76f5184"/><path d="M-17.5-149.7a6.3 6.3 0 1 1 0-12.6 6.3 6.3 0 0 1 0 12.6" fill="#26465385"/><path d="M56.5-266.8a6.3 6.3 0 1 1 0-12.6 6.3 6.3 0 0 1 0 12.6" fill="#f4a26185"/><path d="M206.9-209a6.3 6.3 0 1 1 0-12.6 6.3 6.3 0 0 1 0 12.6" fill="#e76f5185"/><path d="M71.4-39.9a6.3 6.3 0 1 1 0-12.6 6.3 6.3 0 0 1 0 12.6" fill="#2a9d8f85"/><path d="M140.6-269.1a6.3 6.3 0 1 1 0-12.6 6.3 6.3 0 0 1 0 12.6" fill="#2a9d8f86"/><path d="M102.3-35a6.3 6.3 0 1 1 0-12.6 6.3 6.3 0 0 1 0 12.6" fill="#26465386"/><path d="M-23.1-157.4a6.3 6.3 0 1 1 0-12.6 6.3 6.3 0 0 1 0 12.6" fill="#2a9d8f86"/><path d="M101.1-282.4a6.4 6.4 0 1 1 0-12.7 6.4 6.4 0 0 1 0 12.7" fill="#e76f5187"/><path d="M-24.7-190.4a6.4 6.4 0 1 1 0-12.8 6.4 6.4 0 0 1 0 12.8" fill="#f4a26187"/><path d="M-25.6-195.9a6.4 6.4 0 1 1 0-12.8 6.4 6.4 0 0 1 0 12.8" fill="#2a9d8f88"/><path d="M-20.9-102.5a6.4 6.4 0 1 1 0-12.9 6.4 6.4 0 0 1 0 12.9" fill="#f4a26188"/><path d="M177.3-265.8a6.4 6.4 0 1 1 0-12.9 6.4 6.4 0 0 1 0 12.9" fill="#2a9d8f88"/><path d="M224.9-207a6.4 6.4 0 1 1 0-12.9 6.4 6.4 0 0 1 0 12.9" fill="#2a9d8f88"/><path d="M222.2-90a6.5 6.5 0 1 1 0-13 6.5 6.5 0 0 1 0 13" fill="#e9c46a89"/><path d="M64.4-21.7a6.5 6.5 0 1 1 0-12.9 6.5 6.5 0 0 1 0 12.9" fill="#e9c46a89"/><path d="M213-245.6a6.5 6.5 0 1 1 0-13 6.5 6.5 0 0 1 0 13" fill="#2646538A"/><path d="M244.9-114.1a6.6 6.6 0 1 1 0-13.2 6.6 6.6 0 0 1 0 13.2" fill="#2a9d8f8B"/><path d="M225.6-66.7a6.6 6.6 0 1 1 0-13.2 6.6 6.6 0 0 1 0 13.2" fill="#e76f518C"/><path d="M198.6-35.8a6.6 6.6 0 1 1 0-13.2 6.6 6.6 0 0 1 0 13.2" fill="#2a9d8f8D"/><path d="M187.3-25.7a6.6 6.6 0 1 1 0-13.3 6.6 6.6 0 0 1 0 13.3" fill="#2646538D"/><path d="M261.5-155.8a6.7 6.7 0 1 1 0-13.4 6.7 6.7 0 0 1 0 13.4" fill="#e9c46a8E"/><path d="M88.8 6.2a6.7 6.7 0 1 1 0-13.4 6.7 6.7 0 0 1 0 13.4" fill="#2646538E"/><path d="M100.7 7.5a6.7 6.7 0 1 1 0-13.4 6.7 6.7 0 0 1 0 13.4" fill="#e9c46a8F"/><path d="M107.5-318.9a6.7 6.7 0 1 1 0-13.5 6.7 6.7 0 0 1 0 13.5" fill="#e76f518F"/><path d="M-25.6-51a6.7 6.7 0 1 1 0-13.4 6.7 6.7 0 0 1 0 13.4" fill="#f4a2618F"/><path d="M241.1-72.4a6.7 6.7 0 1 1 0-13.5 6.7 6.7 0 0 1 0 13.5" fill="#e76f518F"/><path d="M200.9-23.7a6.8 6.8 0 1 1 0-13.5 6.8 6.8 0 0 1 0 13.5" fill="#e9c46a8F"/><path d="M255.7-95.5a6.8 6.8 0 1 1 0-13.6 6.8 6.8 0 0 1 0 13.6" fill="#f4a26190"/><path d="M151.3-318.1a6.8 6.8 0 1 1 0-13.6 6.8 6.8 0 0 1 0 13.6" fill="#f4a26190"/><path d="M239.5-255a6.8 6.8 0 1 1 0-13.7 6.8 6.8 0 0 1 0 13.7" fill="#f4a26191"/><path d="M117.7 22.2a6.9 6.9 0 1 1 0-13.9 6.9 6.9 0 0 1 0 13.9" fill="#e76f5193"/><path d="M-79-133.1a7 7 0 1 1 0-13.9 7 7 0 0 1 0 13.9" fill="#f4a26194"/><path d="M281.5-180.4a7 7 0 1 1 0-14 7 7 0 0 1 0 14" fill="#e9c46a94"/><path d="M117.5-341.2a7 7 0 1 1 0-14.1 7 7 0 0 1 0 14.1" fill="#e9c46a96"/><path d="M-60-254.5a7.1 7.1 0 1 1 0-14.2 7.1 7.1 0 0 1 0 14.2" fill="#f4a26196"/><path d="M-82.1-97.8a7.1 7.1 0 1 1 0-14.2 7.1 7.1 0 0 1 0 14.2" fill="#e76f5197"/><path d="M274.8-241.8a7.2 7.2 0 1 1 0-14.4 7.2 7.2 0 0 1 0 14.4" fill="#2a9d8f99"/><path d="M297.1-194.9a7.3 7.3 0 1 1 0-14.6 7.3 7.3 0 0 1 0 14.6" fill="#2a9d8f9B"/><path d="M218.4 8.3a7.3 7.3 0 1 1 0-14.7 7.3 7.3 0 0 1 0 14.7" fill="#2a9d8f9C"/><path d="M-101.9-153.2a7.3 7.3 0 1 1 0-14.6 7.3 7.3 0 0 1 0 14.6" fill="#f4a2619C"/><path d="M259.7-31.2a7.3 7.3 0 1 1 0-14.7 7.3 7.3 0 0 1 0 14.7" fill="#2646539C"/><path d="M10.9 26.4a7.3 7.3 0 1 1 0-14.7 7.3 7.3 0 0 1 0 14.7" fill="#e76f519C"/><path d="M34.7 38.8a7.4 7.4 0 1 1 0-14.7 7.4 7.4 0 0 1 0 14.7" fill="#2a9d8f9D"/><path d="M258.2-285.1a7.4 7.4 0 1 1 0-14.8 7.4 7.4 0 0 1 0 14.8" fill="#e9c46a9D"/><path d="M136.3-357a7.4 7.4 0 1 1 0-14.8 7.4 7.4 0 0 1 0 14.8" fill="#f4a2619D"/><path d="M251.8-16.1a7.4 7.4 0 1 1 0-14.8 7.4 7.4 0 0 1 0 14.8" fill="#e9c46a9E"/><path d="M277.5-260.1a7.4 7.4 0 1 1 0-14.9 7.4 7.4 0 0 1 0 14.9" fill="#e9c46a9E"/><path d="M118.8-361.4a7.4 7.4 0 1 1 0-14.8 7.4 7.4 0 0 1 0 14.8" fill="#2646539E"/><path d="M-58.9-293.5a7.5 7.5 0 1 1 0-15.1 7.5 7.5 0 0 1 0 15.1" fill="#e76f51A0"/><path d="M301.4-220.3a7.6 7.6 0 1 1 0-15.1 7.6 7.6 0 0 1 0 15.1" fill="#e76f51A1"/><path d="M-14.9 25.1a7.6 7.6 0 1 1 0-15.2 7.6 7.6 0 0 1 0 15.2" fill="#2a9d8fA2"/><path d="M-100-71.4a7.7 7.7 0 1 1 0-15.3 7.7 7.7 0 0 1 0 15.3" fill="#264653A4"/><path d="M-25.8 23.2a7.7 7.7 0 1 1 0-15.5 7.7 7.7 0 0 1 0 15.5" fill="#e9c46aA4"/><path d="M235.8-326.1a7.7 7.7 0 1 1 0-15.5 7.7 7.7 0 0 1 0 15.5" fill="#f4a261A5"/><path d="M321.4-161.6a7.8 7.8 0 1 1 0-15.6 7.8 7.8 0 0 1 0 15.6" fill="#264653A7"/><path d="M269.9-297.7a7.9 7.9 0 1 1 0-15.7 7.9 7.9 0 0 1 0 15.7" fill="#f4a261A7"/><path d="M-91.5-267.8a7.9 7.9 0 1 1 0-15.7 7.9 7.9 0 0 1 0 15.7" fill="#2a9d8fA8"/><path d="M-66.9-302.3a7.9 7.9 0 1 1 0-15.8 7.9 7.9 0 0 1 0 15.8" fill="#e9c46aA8"/><path d="M252.3-318.4a7.9 7.9 0 1 1 0-15.8 7.9 7.9 0 0 1 0 15.8" fill="#264653A9"/><path d="M325.3-164.5a8 8 0 1 1 0-16 8 8 0 0 1 0 16" fill="#264653AA"/><path d="M182.3-364.8a8 8 0 1 1 0-16 8 8 0 0 1 0 16" fill="#2a9d8fAA"/><path d="M325.6-169a8 8 0 1 1 0-16 8 8 0 0 1 0 16" fill="#e76f51AB"/><path d="M-93.2-272.3a8 8 0 1 1 0-16.1 8 8 0 0 1 0 16.1" fill="#e9c46aAB"/><path d="M241.8 22.3a8 8 0 1 1 0-16 8 8 0 0 1 0 16" fill="#e9c46aAB"/><path d="M-64.7 1.2a8 8 0 1 1 0-16 8 8 0 0 1 0 16" fill="#e9c46aAB"/><path d="M-74.9-9.9a8 8 0 1 1 0-16.1 8 8 0 0 1 0 16.1" fill="#e76f51AB"/><path d="M284.9-286.4a8 8 0 1 1 0-16.1 8 8 0 0 1 0 16.1" fill="#e76f51AC"/><path d="M130.5 72.7a8.1 8.1 0 1 1 0-16.3 8.1 8.1 0 0 1 0 16.3" fill="#264653AE"/><path d="M122.8 73.7a8.1 8.1 0 1 1 0-16.3 8.1 8.1 0 0 1 0 16.3" fill="#264653AE"/><path d="M15.5 58.8a8.1 8.1 0 1 1 0-16.3 8.1 8.1 0 0 1 0 16.3" fill="#e9c46aAE"/><path d="M14.3-367.1a8.1 8.1 0 1 1 0-16.3 8.1 8.1 0 0 1 0 16.3" fill="#e9c46aAE"/><path d="M21.9-370a8.1 8.1 0 1 1 0-16.3 8.1 8.1 0 0 1 0 16.3" fill="#f4a261AE"/><path d="M-1.3-361a8.2 8.2 0 1 1 0-16.4 8.2 8.2 0 0 1 0 16.4" fill="#264653AF"/><path d="M137.1 74a8.3 8.3 0 1 1 0-16.5 8.3 8.3 0 0 1 0 16.5" fill="#2a9d8fB0"/><path d="M-34.8-343.1a8.3 8.3 0 1 1 0-16.6 8.3 8.3 0 0 1 0 16.6" fill="#264653B1"/><path d="M127.2 76.3a8.3 8.3 0 1 1 0-16.6 8.3 8.3 0 0 1 0 16.6" fill="#2a9d8fB1"/><path d="M-87.8-290.7a8.3 8.3 0 1 1 0-16.7 8.3 8.3 0 0 1 0 16.7" fill="#2a9d8fB2"/><path d="M128.9-384.9a8.3 8.3 0 1 1 0-16.7 8.3 8.3 0 0 1 0 16.7" fill="#f4a261B2"/><path d="M-69.6 5.4a8.4 8.4 0 1 1 0-16.7 8.4 8.4 0 0 1 0 16.7" fill="#f4a261B3"/><path d="M218.4-354.9a8.4 8.4 0 1 1 0-16.8 8.4 8.4 0 0 1 0 16.8" fill="#e9c46aB3"/><path d="M143.3-383.6a8.4 8.4 0 1 1 0-16.9 8.4 8.4 0 0 1 0 16.9" fill="#2a9d8fB4"/><path d="M-55.6-329.3a8.5 8.5 0 1 1 0-17 8.5 8.5 0 0 1 0 17" fill="#e9c46aB5"/><path d="M5 60.8a8.5 8.5 0 1 1 0-17.1 8.5 8.5 0 0 1 0 17.1" fill="#264653B6"/><path d="M-60.5-326.2a8.6 8.6 0 1 1 0-17.2 8.6 8.6 0 0 1 0 17.2" fill="#e76f51B8"/><path d="M-124.4-82.1a8.6 8.6 0 1 1 0-17.3 8.6 8.6 0 0 1 0 17.3" fill="#e76f51B9"/><path d="M148.8-384.7a8.7 8.7 0 1 1 0-17.4 8.7 8.7 0 0 1 0 17.4" fill="#f4a261BB"/><path d="M332.3-111a8.8 8.8 0 1 1 0-17.6 8.8 8.8 0 0 1 0 17.6" fill="#264653BC"/><path d="M147.9-385a8.8 8.8 0 1 1 0-17.6 8.8 8.8 0 0 1 0 17.6" fill="#2a9d8fBD"/><path d="M305.7-269.7a8.9 8.9 0 1 1 0-17.8 8.9 8.9 0 0 1 0 17.8" fill="#f4a261BE"/><path d="M177.7-376.5a9 9 0 1 1 0-17.9 9 9 0 0 1 0 17.9" fill="#e76f51C0"/><path d="M293-289.4a9 9 0 1 1 0-18 9 9 0 0 1 0 18" fill="#f4a261C0"/><path d="M-135.3-168.1a9 9 0 1 1 0-18.1 9 9 0 0 1 0 18.1" fill="#264653C1"/><path d="M-94.6-285.7a9.1 9.1 0 1 1 0-18.2 9.1 9.1 0 0 1 0 18.2" fill="#f4a261C3"/><path d="M-130.4-107a9.2 9.2 0 1 1 0-18.3 9.2 9.2 0 0 1 0 18.3" fill="#f4a261C4"/><path d="M332-182.8a9.3 9.3 0 1 1 0-18.6 9.3 9.3 0 0 1 0 18.6" fill="#f4a261C7"/><path d="M-30.4-344.8a9.4 9.4 0 1 1 0-18.9 9.4 9.4 0 0 1 0 18.9" fill="#264653CA"/><path d="M-128.9-184.1a9.5 9.5 0 1 1 0-18.9 9.5 9.5 0 0 1 0 18.9" fill="#e76f51CB"/><path d="M-107.7-56.5a9.6 9.6 0 1 1 0-19.2 9.6 9.6 0 0 1 0 19.2" fill="#e76f51CE"/><path d="M94.9-381.2a9.6 9.6 0 1 1 0-19.2 9.6 9.6 0 0 1 0 19.2" fill="#264653CE"/><path d="M-126.8-134.2a9.7 9.7 0 1 1 0-19.3 9.7 9.7 0 0 1 0 19.3" fill="#e76f51CF"/><path d="M-122.2-105.1a9.7 9.7 0 1 1 0-19.3 9.7 9.7 0 0 1 0 19.3" fill="#e76f51CF"/><path d="M181.4 58.5a9.7 9.7 0 1 1 0-19.4 9.7 9.7 0 0 1 0 19.4" fill="#e9c46aD0"/><path d="M309.1-238.4a9.7 9.7 0 1 1 0-19.4 9.7 9.7 0 0 1 0 19.4" fill="#e9c46aD1"/><path d="M-124.4-130a9.7 9.7 0 1 1 0-19.4 9.7 9.7 0 0 1 0 19.4" fill="#2a9d8fD1"/><path d="M29.1 60.9a9.8 9.8 0 1 1 0-19.5 9.8 9.8 0 0 1 0 19.5" fill="#e9c46aD1"/><path d="M292.3-267.4a9.8 9.8 0 1 1 0-19.6 9.8 9.8 0 0 1 0 19.6" fill="#f4a261D2"/><path d="M105.4 70a9.8 9.8 0 1 1 0-19.7 9.8 9.8 0 0 1 0 19.7" fill="#e76f51D3"/><path d="M312.7-94.5a9.9 9.9 0 1 1 0-19.9 9.9 9.9 0 0 1 0 19.9" fill="#264653D5"/><path d="M-119.1-136.6a9.9 9.9 0 1 1 0-19.9 9.9 9.9 0 0 1 0 19.9" fill="#264653D5"/><path d="M-13.4-339.6a10 10 0 1 1 0-19.9 10 10 0 0 1 0 19.9" fill="#f4a261D6"/><path d="M-17.6-336.1a10 10 0 1 1 0-19.9 10 10 0 0 1 0 19.9" fill="#264653D7"/><path d="M-46.9-313.1a10 10 0 1 1 0-20 10 10 0 0 1 0 20" fill="#f4a261D7"/><path d="M313.1-195.2a10 10 0 1 1 0-20 10 10 0 0 1 0 20" fill="#2a9d8fD7"/><path d="M269.4-19a10.1 10.1 0 1 1 0-20.1 10.1 10.1 0 0 1 0 20.1" fill="#f4a261D8"/><path d="M100.9-367.6a10.1 10.1 0 1 1 0-20.2 10.1 10.1 0 0 1 0 20.2" fill="#2a9d8fD8"/><path d="M149.1 56a10.1 10.1 0 1 1 0-20.2 10.1 10.1 0 0 1 0 20.2" fill="#2a9d8fD9"/><path d="M-61.9-291.8a10.1 10.1 0 1 1 0-20.2 10.1 10.1 0 0 1 0 20.2" fill="#f4a261D9"/><path d="M-67.8-21.6a10.1 10.1 0 1 1 0-20.3 10.1 10.1 0 0 1 0 20.3" fill="#e9c46aDA"/><path d="M-50.4-302.7a10.1 10.1 0 1 1 0-20.3 10.1 10.1 0 0 1 0 20.3" fill="#2a9d8fDA"/><path d="M305.8-205.6a10.1 10.1 0 1 1 0-20.2 10.1 10.1 0 0 1 0 20.2" fill="#264653DA"/><path d="M277.9-267.7a10.2 10.2 0 1 1 0-20.3 10.2 10.2 0 0 1 0 20.3" fill="#f4a261DA"/><path d="M-28.8-312.9a10.3 10.3 0 1 1 0-20.6 10.3 10.3 0 0 1 0 20.6" fill="#e76f51DD"/><path d="M-38.8-1a10.3 10.3 0 1 1 0-20.7 10.3 10.3 0 0 1 0 20.7" fill="#e76f51DE"/><path d="M55.6-351a10.4 10.4 0 1 1 0-20.7 10.4 10.4 0 0 1 0 20.7" fill="#f4a261DE"/><path d="M206.5-325.7a10.4 10.4 0 1 1 0-20.7 10.4 10.4 0 0 1 0 20.7" fill="#e76f51DE"/><path d="M281.6-62.4a10.4 10.4 0 1 1 0-20.7 10.4 10.4 0 0 1 0 20.7" fill="#264653DF"/><path d="M3.3 23.8a10.4 10.4 0 1 1 0-20.8 10.4 10.4 0 0 1 0 20.8" fill="#264653E0"/><path d="M-55.8-270.1a10.5 10.5 0 1 1 0-21 10.5 10.5 0 0 1 0 21" fill="#f4a261E2"/><path d="M171.2-332.2a10.5 10.5 0 1 1 0-21.1 10.5 10.5 0 0 1 0 21.1" fill="#e76f51E3"/><path d="M288-186.6a10.6 10.6 0 1 1 0-21.2 10.6 10.6 0 0 1 0 21.2" fill="#e9c46aE4"/><path d="M-76.8-81.6a10.6 10.6 0 1 1 0-21.2 10.6 10.6 0 0 1 0 21.2" fill="#e9c46aE4"/><path d="M280-90.5a10.6 10.6 0 1 1 0-21.2 10.6 10.6 0 0 1 0 21.2" fill="#e76f51E4"/><path d="M270.7-71.2a10.6 10.6 0 1 1 0-21.2 10.6 10.6 0 0 1 0 21.2" fill="#264653E5"/><path d="M-86.3-126a10.6 10.6 0 1 1 0-21.3 10.6 10.6 0 0 1 0 21.3" fill="#e76f51E5"/><path d="M241.9-30.5a10.7 10.7 0 1 1 0-21.4 10.7 10.7 0 0 1 0 21.4" fill="#e9c46aE5"/><path d="M73.5-328.2a10.8 10.8 0 1 1 0-21.6 10.8 10.8 0 0 1 0 21.6" fill="#264653E8"/><path d="M276.5-127.9a10.8 10.8 0 1 1 0-21.6 10.8 10.8 0 0 1 0 21.6" fill="#e76f51E8"/><path d="M-77.2-163a10.8 10.8 0 1 1 0-21.6 10.8 10.8 0 0 1 0 21.6" fill="#f4a261E8"/><path d="M-66.7-102a10.9 10.9 0 1 1 0-21.7 10.9 10.9 0 0 1 0 21.7" fill="#e9c46aE9"/><path d="M269.5-112.9a10.9 10.9 0 1 1 0-21.7 10.9 10.9 0 0 1 0 21.7" fill="#2a9d8fEA"/><path d="M173.5-308.6a10.9 10.9 0 1 1 0-21.7 10.9 10.9 0 0 1 0 21.7" fill="#f4a261EA"/><path d="M244.1-56.1a10.9 10.9 0 1 1 0-21.7 10.9 10.9 0 0 1 0 21.7" fill="#f4a261EA"/><path d="M-68.8-178.7a10.9 10.9 0 1 1 0-21.8 10.9 10.9 0 0 1 0 21.8" fill="#264653EA"/><path d="M75.6 13a11 11 0 1 1 0-21.9 11 11 0 0 1 0 21.9" fill="#f4a261EC"/><path d="M2.5-29.9a11.1 11.1 0 1 1 0-22.1 11.1 11.1 0 0 1 0 22.1" fill="#f4a261EE"/><path d="M70.6 1.3a11.1 11.1 0 1 1 0-22.2 11.1 11.1 0 0 1 0 22.2" fill="#e9c46aEE"/><path d="M-52.6-151.8a11.1 11.1 0 1 1 0-22.3 11.1 11.1 0 0 1 0 22.3" fill="#264653EF"/><path d="M80.1-302.4a11.1 11.1 0 1 1 0-22.2 11.1 11.1 0 0 1 0 22.2" fill="#264653EF"/><path d="M77.1-2a11.1 11.1 0 1 1 0-22.2 11.1 11.1 0 0 1 0 22.2" fill="#e76f51EF"/><path d="M132-3.8a11.1 11.1 0 1 1 0-22.2 11.1 11.1 0 0 1 0 22.2" fill="#e9c46aEF"/><path d="M52.3-11a11.2 11.2 0 1 1 0-22.3 11.2 11.2 0 0 1 0 22.3" fill="#264653F0"/><path d="M247.3-143.8a11.2 11.2 0 1 1 0-22.4 11.2 11.2 0 0 1 0 22.4" fill="#e9c46aF0"/><path d="M233.7-208.1a11.2 11.2 0 1 1 0-22.4 11.2 11.2 0 0 1 0 22.4" fill="#e9c46aF1"/><path d="M119-287.7a11.3 11.3 0 1 1 0-22.5 11.3 11.3 0 0 1 0 22.5" fill="#e9c46aF2"/><path d="M87.1-281.6a11.3 11.3 0 1 1 0-22.6 11.3 11.3 0 0 1 0 22.6" fill="#2a9d8fF4"/><path d="M129.9-264.8a11.4 11.4 0 1 1 0-22.9 11.4 11.4 0 0 1 0 22.9" fill="#f4a261F6"/><path d="M185.9-86a11.5 11.5 0 1 1 0-22.9 11.5 11.5 0 0 1 0 22.9" fill="#e9c46aF7"/><path d="M31.1-220.6a11.5 11.5 0 1 1 0-23.1 11.5 11.5 0 0 1 0 23.1" fill="#f4a261F9"/><path d="M2.9-159.9a11.5 11.5 0 1 1 0-23.1 11.5 11.5 0 0 1 0 23.1" fill="#2a9d8fF9"/><path d="M62.2-63.2a11.6 11.6 0 1 1 0-23.1 11.6 11.6 0 0 1 0 23.1" fill="#f4a261F9"/><path d="M188.2-115.9a11.6 11.6 0 1 1 0-23.1 11.6 11.6 0 0 1 0 23.1" fill="#264653F9"/><path d="M179.3-107.1a11.6 11.6 0 1 1 0-23.2 11.6 11.6 0 0 1 0 23.2" fill="#264653FA"/><path d="M20-170.5a11.6 11.6 0 1 1 0-23.2 11.6 11.6 0 0 1 0 23.2" fill="#2a9d8fFA"/><path d="M107.6-97.9a11.7 11.7 0 1 1 0-23.5 11.7 11.7 0 0 1 0 23.5" fill="#e9c46aFD"/><path d="M74.3-184.3a11.8 11.8 0 1 1 0-23.6 11.8 11.8 0 0 1 0 23.6" fill="#2a9d8fFD"/><path d="M119.4-184.4a11.8 11.8 0 1 1 0-23.5 11.8 11.8 0 0 1 0 23.5" fill="#264653FE"/><path d="M134-134.5a11.8 11.8 0 1 1 0-23.5 11.8 11.8 0 0 1 0 23.5" fill="#264653FE"/><path d="M79.8-161.9a11.8 11.8 0 1 1 0-23.6 11.8 11.8 0 0 1 0 23.6" fill="#f4a261FE"/><path d="M110.5-165.8a11.8 11.8 0 1 1 0-23.6 11.8 11.8 0 0 1 0 23.6" fill="#264653FE"/></g></svg>