<svg width="1200" height="675" viewBox="-500 -500 1200 675" xmlns="http://www.w3.org/2000/svg"><path d="M-500-500h1200v675h-1200z" fill="#000"/><style>.sparkles path{stroke-linecap:round; stroke-width:1}</style><g class="sparkles"><path d="M100-162.5l-45.7 7.5" stroke="#fff50032"/><path d="M100-162.5l53.6-43.9" stroke="#fff50034"/><path d="M100-162.5l-50.4-57.1" stroke="#fff50034"/><path d="M100-162.5l37.9-84" stroke="#005bbb35"/><path d="M100-162.5l89.7-24" stroke="#005bbb36"/><path d="M100-162.5l89.7 25.2" stroke="#005bbb36"/><path d="M100-162.5l53.4 78.6" stroke="#c2e1ff36"/><path d="M100-162.5l101.6-11" stroke="#fff36"/><path d="M100-162.5l88.3 60.4" stroke="#c2e1ff37"/><path d="M100-162.5l-92-58.2" stroke="#fff37"/><path d="M100-162.5l73.8-86.6" stroke="#005bbb38"/><path d="M100-162.5l-73.1-87.6" stroke="#fff50038"/><path d="M100-162.5l-109.3-47.3" stroke="#005bbb38"/><path d="M100-162.5l-65.6 99.4" stroke="#c2e1ff38"/><path d="M100-162.5l82.8-102.2" stroke="#c2e1ff3A"/><path d="M100-162.5l-124.5 44.1" stroke="#fff5003A"/><path d="M100-162.5l-135.4 13" stroke="#005bbb3B"/><path d="M100-162.5l133 32.6" stroke="#fff5003B"/><path d="M100-162.5l137.3 1.1" stroke="#fff3B"/><path d="M100-162.5l146 23.9" stroke="#005bbb3D"/><path d="M100-162.5l-149.6 15.5" stroke="#c2e1ff3D"/><path d="M100-162.5l-111.6-113.5" stroke="#c2e1ff3F"/><path d="M100-162.5l59.8-152" stroke="#005bbb3F"/><path d="M100-162.5l-18-165.2" stroke="#fff50040"/><path d="M100-162.5l-50.3-165" stroke="#005bbb41"/><path d="M100-162.5l-115.1 129.6" stroke="#c2e1ff42"/><path d="M100-162.5l157-76.7" stroke="#c2e1ff42"/><path d="M100-162.5l-170.2 63" stroke="#c2e1ff44"/><path d="M100-162.5l179.5 45.5" stroke="#005bbb44"/><path d="M100-162.5l159.2-95.3" stroke="#fff45"/><path d="M100-162.5l35.5 184.3" stroke="#fff45"/><path d="M100-162.5l175-79.7" stroke="#fff50046"/><path d="M100-162.5l175.4-82.6" stroke="#c2e1ff47"/><path d="M100-162.5l-89.3 174.3" stroke="#fff48"/><path d="M100-162.5l65.1 185.9" stroke="#c2e1ff48"/><path d="M100-162.5l-84 178.7" stroke="#005bbb48"/><path d="M100-162.5l-114 163.8" stroke="#c2e1ff49"/><path d="M100-162.5l186.1-80.6" stroke="#c2e1ff4A"/><path d="M100-162.5l188.9 78.8" stroke="#005bbb4B"/><path d="M100-162.5l-76.9 192.2" stroke="#fff5004B"/><path d="M100-162.5l-137.2-156.6" stroke="#c2e1ff4C"/><path d="M100-162.5l209.4-13.5" stroke="#c2e1ff4D"/><path d="M100-162.5l-26.8 209" stroke="#fff4D"/><path d="M100-162.5l-139.8 159.4" stroke="#fff4D"/><path d="M100-162.5l-213.3-2.2" stroke="#fff4E"/><path d="M100-162.5l-155.5 148.5" stroke="#005bbb4F"/><path d="M100-162.5l-26.2 214.2" stroke="#005bbb4F"/><path d="M100-162.5l139.2 166" stroke="#fff50"/><path d="M100-162.5l-216.8 13.7" stroke="#005bbb50"/><path d="M100-162.5l-179.7-122.6" stroke="#fff50"/><path d="M100-162.5l202.6-83.8" stroke="#c2e1ff51"/><path d="M100-162.5l4.4 220.2" stroke="#fff51"/><path d="M100-162.5l202.1 88.9" stroke="#c2e1ff52"/><path d="M100-162.5l-24.6 219.6" stroke="#c2e1ff52"/><path d="M100-162.5l210.9-66.3" stroke="#fff52"/><path d="M100-162.5l117.6 188.2" stroke="#fff52"/><path d="M100-162.5l-150.5-164.5" stroke="#005bbb53"/><path d="M100-162.5l215.6 64.5" stroke="#fff50054"/><path d="M100-162.5l-62.6-217.1" stroke="#005bbb55"/><path d="M100-162.5l70.1-215" stroke="#fff50055"/><path d="M100-162.5l-127.3-187.1" stroke="#fff50055"/><path d="M100-162.5l-78.5-213.4" stroke="#005bbb56"/><path d="M100-162.5l160.4 161.4" stroke="#c2e1ff56"/><path d="M100-162.5l-128.3-188.7" stroke="#fff50057"/><path d="M100-162.5l204.9 102.8" stroke="#fff50057"/><path d="M100-162.5l-182.9-139.4" stroke="#005bbb58"/><path d="M100-162.5l201.4-111.2" stroke="#c2e1ff58"/><path d="M100-162.5l46.4-227.3" stroke="#fff5A"/><path d="M100-162.5l-3.6-232.1" stroke="#005bbb5A"/><path d="M100-162.5l-133.5-190.3" stroke="#fff5B"/><path d="M100-162.5l-200.2-118.9" stroke="#fff5B"/><path d="M100-162.5l158.5-170.7" stroke="#005bbb5B"/><path d="M100-162.5l-127.4-195.6" stroke="#fff5C"/><path d="M100-162.5l146-182.9" stroke="#fff5005D"/><path d="M100-162.5l-204.5-115.1" stroke="#c2e1ff5E"/><path d="M100-162.5l-200-123.2" stroke="#c2e1ff5E"/><path d="M100-162.5l180.8-150.2" stroke="#fff5005E"/><path d="M100-162.5l234.4-17.3" stroke="#c2e1ff5E"/><path d="M100-162.5l0.8 235" stroke="#fff5E"/><path d="M100-162.5l70.3-224.3" stroke="#c2e1ff5F"/><path d="M100-162.5l-23 234" stroke="#fff5005F"/><path d="M100-162.5l55.2 228.7" stroke="#fff5F"/><path d="M100-162.5l-148-183.4" stroke="#fff60"/><path d="M100-162.5l213.3-100.7" stroke="#c2e1ff61"/><path d="M100-162.5l131.1-196.3" stroke="#fff61"/><path d="M100-162.5l133.9 194.4" stroke="#005bbb61"/><path d="M100-162.5l127.9 198.4" stroke="#fff62"/><path d="M100-162.5l-235.6-16.9" stroke="#c2e1ff62"/><path d="M100-162.5l136.4 192.8" stroke="#fff50062"/><path d="M100-162.5l160.8 173" stroke="#fff50063"/><path d="M100-162.5l184.5-147.6" stroke="#005bbb63"/><path d="M100-162.5l31.6-234.1" stroke="#c2e1ff64"/><path d="M100-162.5l-65.7 226.9" stroke="#fff50064"/><path d="M100-162.5l-220.9-83.8" stroke="#fff50064"/><path d="M100-162.5l-171.8-161.9" stroke="#fff50065"/><path d="M100-162.5l224.3-73.8" stroke="#c2e1ff65"/><path d="M100-162.5l-188.9-141.7" stroke="#005bbb65"/><path d="M100-162.5l177.4 155.6" stroke="#005bbb66"/><path d="M100-162.5l-150.8 181.4" stroke="#fff50066"/><path d="M100-162.5l78.6 222.5" stroke="#005bbb66"/><path d="M100-162.5l131.1-196.1" stroke="#fff66"/><path d="M100-162.5l-215.8 94.5" stroke="#005bbb67"/><path d="M100-162.5l-233.3-30.3" stroke="#005bbb68"/><path d="M100-162.5l-150.2 180.4" stroke="#005bbb69"/><path d="M100-162.5l-57.2 227.5" stroke="#fff50069"/><path d="M100-162.5l-233.8-17.9" stroke="#fff5006A"/><path d="M100-162.5l-183.5 145.8" stroke="#005bbb6A"/><path d="M100-162.5l-188.6-137.6" stroke="#fff6B"/><path d="M100-162.5l86.1 215.9" stroke="#fff5006C"/><path d="M100-162.5l-231.1-21.2" stroke="#fff5006D"/><path d="M100-162.5l-199.8 117.7" stroke="#c2e1ff6D"/><path d="M100-162.5l-134-188.5" stroke="#c2e1ff6E"/><path d="M100-162.5l-53.3 224.3" stroke="#005bbb6E"/><path d="M100-162.5l89.7-211.1" stroke="#005bbb6F"/><path d="M100-162.5l-25.7-227.5" stroke="#fff50070"/><path d="M100-162.5l-149.5 173" stroke="#c2e1ff70"/><path d="M100-162.5l76.5 215.1" stroke="#fff70"/><path d="M100-162.5l96.1-206.9" stroke="#fff71"/><path d="M100-162.5l212.3-81.4" stroke="#c2e1ff71"/><path d="M100-162.5l75-214.1" stroke="#c2e1ff71"/><path d="M100-162.5l-146.5-173.3" stroke="#c2e1ff71"/><path d="M100-162.5l-214.7-67.5" stroke="#005bbb73"/><path d="M100-162.5l-96.2-203.3" stroke="#fff50073"/><path d="M100-162.5l106.3-198.1" stroke="#005bbb73"/><path d="M100-162.5l-195.7-109.3" stroke="#fff50073"/><path d="M100-162.5l-195.1 108.4" stroke="#fff74"/><path d="M100-162.5l-158.2 156.5" stroke="#fff74"/><path d="M100-162.5l92-201.2" stroke="#fff75"/><path d="M100-162.5l-188-109.5" stroke="#fff50077"/><path d="M100-162.5l216.4 0" stroke="#c2e1ff78"/><path d="M100-162.5l129.4-173" stroke="#005bbb78"/><path d="M100-162.5l-211.8-39.4" stroke="#005bbb78"/><path d="M100-162.5l-43-209.7" stroke="#fff79"/><path d="M100-162.5l108.6-184.1" stroke="#c2e1ff79"/><path d="M100-162.5l-67.8-201.5" stroke="#fff50079"/><path d="M100-162.5l149.2-149.7" stroke="#005bbb7A"/><path d="M100-162.5l2.5-210.6" stroke="#fff5007A"/><path d="M100-162.5l136.1-158.2" stroke="#c2e1ff7B"/><path d="M100-162.5l76.3 187.7" stroke="#fff5007D"/><path d="M100-162.5l-100.3-174.6" stroke="#c2e1ff7E"/><path d="M100-162.5l178.9 91.9" stroke="#fff5007E"/><path d="M100-162.5l-29.1-198.7" stroke="#c2e1ff7E"/><path d="M100-162.5l-195.3 28.4" stroke="#c2e1ff7F"/><path d="M100-162.5l-73.5 182.9" stroke="#fff7F"/><path d="M100-162.5l-139.9-138.7" stroke="#005bbb7F"/><path d="M100-162.5l-156.1-118.1" stroke="#c2e1ff7F"/><path d="M100-162.5l190.2 25.6" stroke="#005bbb81"/><path d="M100-162.5l66.7-178.4" stroke="#c2e1ff81"/><path d="M100-162.5l161 96.1" stroke="#fff82"/><path d="M100-162.5l100.4 157.2" stroke="#005bbb82"/><path d="M100-162.5l-152.5 105.2" stroke="#c2e1ff83"/><path d="M100-162.5l77.1 164.3" stroke="#fff50084"/><path d="M100-162.5l131.5-109.7" stroke="#fff50086"/><path d="M100-162.5l108.6 132.2" stroke="#c2e1ff86"/><path d="M100-162.5l109.7 126.5" stroke="#005bbb87"/><path d="M100-162.5l-161.8-40.6" stroke="#fff50087"/><path d="M100-162.5l-150.7-59.9" stroke="#c2e1ff88"/><path d="M100-162.5l-142-68.2" stroke="#fff50089"/><path d="M100-162.5l-145.7-55.3" stroke="#c2e1ff89"/><path d="M100-162.5l-122-86.4" stroke="#fff8A"/><path d="M100-162.5l100.7 110.3" stroke="#005bbb8A"/><path d="M100-162.5l-95-110.7" stroke="#fff8B"/><path d="M100-162.5l143.7-13.7" stroke="#fff5008B"/><path d="M100-162.5l-34.4-136.6" stroke="#005bbb8C"/><path d="M100-162.5l-93.6-103.8" stroke="#c2e1ff8C"/><path d="M100-162.5l71.1 116.5" stroke="#005bbb8C"/><path d="M100-162.5l-90.2 100" stroke="#fff8D"/><path d="M100-162.5l-132.8 16.5" stroke="#fff5008D"/><path d="M100-162.5l122.8-48.1" stroke="#fff5008D"/><path d="M100-162.5l-46.5 120.2" stroke="#c2e1ff8D"/><path d="M100-162.5l31.6-121.6" stroke="#c2e1ff8E"/><path d="M100-162.5l55.6 108.3" stroke="#c2e1ff8E"/><path d="M100-162.5l-36.4 115.7" stroke="#005bbb8E"/><path d="M100-162.5l-91.2 77.6" stroke="#fff5008F"/><path d="M100-162.5l47.3 107" stroke="#fff5008F"/><path d="M100-162.5l-105.9-14.3" stroke="#fff50090"/><path d="M100-162.5l-103.1-26.4" stroke="#005bbb90"/><path d="M100-162.5l38.8 98.5" stroke="#005bbb90"/><path d="M100-162.5l-45.3-26.2" stroke="#c2e1ff94"/><path d="M100-162.5l-32.2 40.3" stroke="#005bbb94"/><path d="M100-162.5l-37.6-0.6" stroke="#c2e1ff95"/></g><g class="sparcs"><path d="M54.3-149a6 6 0 1 1 0-11.9 6 6 0 0 1 0 11.9" fill="#fff7E"/><path d="M153.6-200.4a6 6 0 1 1 0-12.1 6 6 0 0 1 0 12.1" fill="#fff5007F"/><path d="M49.6-213.5a6.1 6.1 0 1 1 0-12.2 6.1 6.1 0 0 1 0 12.2" fill="#005bbb80"/><path d="M137.9-240.4a6.1 6.1 0 1 1 0-12.3 6.1 6.1 0 0 1 0 12.3" fill="#c2e1ff82"/><path d="M189.7-180.3a6.1 6.1 0 1 1 0-12.3 6.1 6.1 0 0 1 0 12.3" fill="#fff50082"/><path d="M189.7-131.2a6.1 6.1 0 1 1 0-12.3 6.1 6.1 0 0 1 0 12.3" fill="#005bbb82"/><path d="M153.4-77.8a6.2 6.2 0 1 1 0-12.3 6.2 6.2 0 0 1 0 12.3" fill="#005bbb82"/><path d="M201.6-167.3a6.2 6.2 0 1 1 0-12.4 6.2 6.2 0 0 1 0 12.4" fill="#c2e1ff83"/><path d="M188.3-95.8a6.2 6.2 0 1 1 0-12.5 6.2 6.2 0 0 1 0 12.5" fill="#005bbb84"/><path d="M8-214.4a6.2 6.2 0 1 1 0-12.5 6.2 6.2 0 0 1 0 12.5" fill="#fff84"/><path d="M173.8-242.8a6.3 6.3 0 1 1 0-12.6 6.3 6.3 0 0 1 0 12.6" fill="#005bbb85"/><path d="M26.9-243.9a6.3 6.3 0 1 1 0-12.5 6.3 6.3 0 0 1 0 12.5" fill="#c2e1ff85"/><path d="M-9.3-203.5a6.3 6.3 0 1 1 0-12.6 6.3 6.3 0 0 1 0 12.6" fill="#fff50085"/><path d="M34.4-56.8a6.3 6.3 0 1 1 0-12.6 6.3 6.3 0 0 1 0 12.6" fill="#fff85"/><path d="M182.8-258.2a6.4 6.4 0 1 1 0-12.9 6.4 6.4 0 0 1 0 12.9" fill="#c2e1ff87"/><path d="M-24.5-112a6.4 6.4 0 1 1 0-12.8 6.4 6.4 0 0 1 0 12.8" fill="#005bbb88"/><path d="M-35.4-143.1a6.4 6.4 0 1 1 0-12.9 6.4 6.4 0 0 1 0 12.9" fill="#fff50088"/><path d="M233-123.4a6.5 6.5 0 1 1 0-12.9 6.5 6.5 0 0 1 0 12.9" fill="#fff50089"/><path d="M237.3-154.9a6.5 6.5 0 1 1 0-12.9 6.5 6.5 0 0 1 0 12.9" fill="#005bbb89"/><path d="M246-132a6.6 6.6 0 1 1 0-13.1 6.6 6.6 0 0 1 0 13.1" fill="#c2e1ff8B"/><path d="M-49.6-140.4a6.6 6.6 0 1 1 0-13.2 6.6 6.6 0 0 1 0 13.2" fill="#005bbb8B"/><path d="M-11.6-269.4a6.7 6.7 0 1 1 0-13.3 6.7 6.7 0 0 1 0 13.3" fill="#005bbb8D"/><path d="M159.8-307.8a6.7 6.7 0 1 1 0-13.4 6.7 6.7 0 0 1 0 13.4" fill="#fff5008F"/><path d="M82-320.9a6.8 6.8 0 1 1 0-13.5 6.8 6.8 0 0 1 0 13.5" fill="#005bbb8F"/><path d="M49.7-320.7a6.8 6.8 0 1 1 0-13.7 6.8 6.8 0 0 1 0 13.7" fill="#c2e1ff91"/><path d="M-15.1-26.1a6.9 6.9 0 1 1 0-13.7 6.9 6.9 0 0 1 0 13.7" fill="#fff50091"/><path d="M257-232.3a6.9 6.9 0 1 1 0-13.8 6.9 6.9 0 0 1 0 13.8" fill="#c2e1ff92"/><path d="M-70.2-92.5a7 7 0 1 1 0-13.9 7 7 0 0 1 0 13.9" fill="#005bbb94"/><path d="M279.5-110a7 7 0 1 1 0-14 7 7 0 0 1 0 14" fill="#fff50095"/><path d="M259.2-250.8a7 7 0 1 1 0-14.1 7 7 0 0 1 0 14.1" fill="#fff95"/><path d="M135.5 28.9a7.1 7.1 0 1 1 0-14.1 7.1 7.1 0 0 1 0 14.1" fill="#fff50096"/><path d="M275-235a7.1 7.1 0 1 1 0-14.3 7.1 7.1 0 0 1 0 14.3" fill="#fff50098"/><path d="M275.4-238a7.2 7.2 0 1 1 0-14.3 7.2 7.2 0 0 1 0 14.3" fill="#005bbb98"/><path d="M10.7 19a7.2 7.2 0 1 1 0-14.4 7.2 7.2 0 0 1 0 14.4" fill="#fff99"/><path d="M165.1 30.6a7.2 7.2 0 1 1 0-14.4 7.2 7.2 0 0 1 0 14.4" fill="#fff5009A"/><path d="M16 23.4a7.2 7.2 0 1 1 0-14.4 7.2 7.2 0 0 1 0 14.4" fill="#fff5009A"/><path d="M-14 8.6a7.3 7.3 0 1 1 0-14.5 7.3 7.3 0 0 1 0 14.5" fill="#005bbb9B"/><path d="M286.1-235.8a7.3 7.3 0 1 1 0-14.7 7.3 7.3 0 0 1 0 14.7" fill="#005bbb9C"/><path d="M288.9-76.3a7.4 7.4 0 1 1 0-14.8 7.4 7.4 0 0 1 0 14.8" fill="#005bbb9D"/><path d="M23.1 37.2a7.4 7.4 0 1 1 0-14.9 7.4 7.4 0 0 1 0 14.9" fill="#fff5009E"/><path d="M-37.2-311.7a7.5 7.5 0 1 1 0-14.9 7.5 7.5 0 0 1 0 14.9" fill="#c2e1ff9F"/><path d="M309.4-168.5a7.5 7.5 0 1 1 0-15 7.5 7.5 0 0 1 0 15" fill="#c2e1ffA0"/><path d="M73.2 54a7.5 7.5 0 1 1 0-15.1 7.5 7.5 0 0 1 0 15.1" fill="#c2e1ffA0"/><path d="M-39.8 4.4a7.6 7.6 0 1 1 0-15.1 7.6 7.6 0 0 1 0 15.1" fill="#c2e1ffA1"/><path d="M-113.3-157.1a7.6 7.6 0 1 1 0-15.2 7.6 7.6 0 0 1 0 15.2" fill="#c2e1ffA2"/><path d="M-55.5-6.4a7.6 7.6 0 1 1 0-15.2 7.6 7.6 0 0 1 0 15.2" fill="#fffA3"/><path d="M73.8 59.4a7.7 7.7 0 1 1 0-15.3 7.7 7.7 0 0 1 0 15.3" fill="#fffA3"/><path d="M239.2 11.2a7.7 7.7 0 1 1 0-15.3 7.7 7.7 0 0 1 0 15.3" fill="#fffA4"/><path d="M-116.8-141.2a7.7 7.7 0 1 1 0-15.3 7.7 7.7 0 0 1 0 15.3" fill="#005bbbA4"/><path d="M-79.7-277.4a7.7 7.7 0 1 1 0-15.4 7.7 7.7 0 0 1 0 15.4" fill="#fff500A4"/><path d="M302.6-238.6a7.8 7.8 0 1 1 0-15.5 7.8 7.8 0 0 1 0 15.5" fill="#c2e1ffA5"/><path d="M104.4 65.5a7.8 7.8 0 1 1 0-15.6 7.8 7.8 0 0 1 0 15.6" fill="#005bbbA6"/><path d="M302.1-65.8a7.8 7.8 0 1 1 0-15.7 7.8 7.8 0 0 1 0 15.7" fill="#fffA6"/><path d="M75.4 64.9a7.8 7.8 0 1 1 0-15.6 7.8 7.8 0 0 1 0 15.6" fill="#c2e1ffA6"/><path d="M310.9-221a7.8 7.8 0 1 1 0-15.6 7.8 7.8 0 0 1 0 15.6" fill="#fff500A7"/><path d="M217.6 33.6a7.8 7.8 0 1 1 0-15.7 7.8 7.8 0 0 1 0 15.7" fill="#fff500A7"/><path d="M-50.5-319.1a7.9 7.9 0 1 1 0-15.8 7.9 7.9 0 0 1 0 15.8" fill="#fff500A8"/><path d="M315.6-90a8 8 0 1 1 0-16 8 8 0 0 1 0 16" fill="#fffAA"/><path d="M37.4-371.6a8 8 0 1 1 0-16 8 8 0 0 1 0 16" fill="#005bbbAB"/><path d="M170.1-369.5a8 8 0 1 1 0-16 8 8 0 0 1 0 16" fill="#fff500AB"/><path d="M-27.3-341.6a8 8 0 1 1 0-16 8 8 0 0 1 0 16" fill="#c2e1ffAB"/><path d="M21.5-367.9a8.1 8.1 0 1 1 0-16.1 8.1 8.1 0 0 1 0 16.1" fill="#fff500AC"/><path d="M260.4 7a8.1 8.1 0 1 1 0-16.2 8.1 8.1 0 0 1 0 16.2" fill="#fff500AC"/><path d="M-28.3-343.1a8.1 8.1 0 1 1 0-16.2 8.1 8.1 0 0 1 0 16.2" fill="#fffAD"/><path d="M304.9-51.6a8.1 8.1 0 1 1 0-16.3 8.1 8.1 0 0 1 0 16.3" fill="#c2e1ffAE"/><path d="M-82.9-293.7a8.2 8.2 0 1 1 0-16.4 8.2 8.2 0 0 1 0 16.4" fill="#fffAF"/><path d="M301.4-265.5a8.2 8.2 0 1 1 0-16.4 8.2 8.2 0 0 1 0 16.4" fill="#005bbbAF"/><path d="M146.4-381.5a8.3 8.3 0 1 1 0-16.6 8.3 8.3 0 0 1 0 16.6" fill="#c2e1ffB1"/><path d="M96.4-386.3a8.3 8.3 0 1 1 0-16.6 8.3 8.3 0 0 1 0 16.6" fill="#fffB1"/><path d="M-33.5-344.5a8.3 8.3 0 1 1 0-16.6 8.3 8.3 0 0 1 0 16.6" fill="#fffB2"/><path d="M-100.2-273.1a8.4 8.4 0 1 1 0-16.7 8.4 8.4 0 0 1 0 16.7" fill="#005bbbB3"/><path d="M258.5-324.9a8.4 8.4 0 1 1 0-16.7 8.4 8.4 0 0 1 0 16.7" fill="#c2e1ffB3"/><path d="M-27.4-349.7a8.4 8.4 0 1 1 0-16.8 8.4 8.4 0 0 1 0 16.8" fill="#005bbbB3"/><path d="M246-337a8.5 8.5 0 1 1 0-16.9 8.5 8.5 0 0 1 0 16.9" fill="#005bbbB5"/><path d="M-104.5-269.1a8.5 8.5 0 1 1 0-17 8.5 8.5 0 0 1 0 17" fill="#fffB6"/><path d="M-100-277.2a8.5 8.5 0 1 1 0-17.1 8.5 8.5 0 0 1 0 17.1" fill="#005bbbB7"/><path d="M280.8-304.1a8.6 8.6 0 1 1 0-17.1 8.6 8.6 0 0 1 0 17.1" fill="#fffB7"/><path d="M334.4-171.2a8.6 8.6 0 1 1 0-17.2 8.6 8.6 0 0 1 0 17.2" fill="#fffB7"/><path d="M100.8 81.1a8.6 8.6 0 1 1 0-17.1 8.6 8.6 0 0 1 0 17.1" fill="#c2e1ffB7"/><path d="M170.3-378.3a8.6 8.6 0 1 1 0-17.1 8.6 8.6 0 0 1 0 17.1" fill="#fff500B7"/><path d="M77 80.1a8.6 8.6 0 1 1 0-17.2 8.6 8.6 0 0 1 0 17.2" fill="#fffB7"/><path d="M155.2 74.8a8.6 8.6 0 1 1 0-17.2 8.6 8.6 0 0 1 0 17.2" fill="#c2e1ffB7"/><path d="M-48-337.2a8.7 8.7 0 1 1 0-17.3 8.7 8.7 0 0 1 0 17.3" fill="#c2e1ffB9"/><path d="M313.3-254.5a8.7 8.7 0 1 1 0-17.3 8.7 8.7 0 0 1 0 17.3" fill="#005bbbBA"/><path d="M231.1-350a8.7 8.7 0 1 1 0-17.5 8.7 8.7 0 0 1 0 17.5" fill="#fff500BB"/><path d="M233.9 40.7a8.7 8.7 0 1 1 0-17.5 8.7 8.7 0 0 1 0 17.5" fill="#005bbbBB"/><path d="M227.9 44.7a8.7 8.7 0 1 1 0-17.5 8.7 8.7 0 0 1 0 17.5" fill="#005bbbBB"/><path d="M-135.6-170.6a8.8 8.8 0 1 1 0-17.6 8.8 8.8 0 0 1 0 17.6" fill="#fff500BC"/><path d="M236.4 39.1a8.8 8.8 0 1 1 0-17.6 8.8 8.8 0 0 1 0 17.6" fill="#fff500BC"/><path d="M260.8 19.4a8.8 8.8 0 1 1 0-17.7 8.8 8.8 0 0 1 0 17.7" fill="#fff500BC"/><path d="M284.5-301.3a8.8 8.8 0 1 1 0-17.6 8.8 8.8 0 0 1 0 17.6" fill="#fffBC"/><path d="M131.6-387.8a8.9 8.9 0 1 1 0-17.7 8.9 8.9 0 0 1 0 17.7" fill="#005bbbBE"/><path d="M34.3 73.3a8.9 8.9 0 1 1 0-17.7 8.9 8.9 0 0 1 0 17.7" fill="#c2e1ffBE"/><path d="M-120.9-237.5a8.9 8.9 0 1 1 0-17.7 8.9 8.9 0 0 1 0 17.7" fill="#fffBE"/><path d="M-71.8-315.5a9 9 0 1 1 0-17.9 9 9 0 0 1 0 17.9" fill="#005bbbC0"/><path d="M324.3-227.4a9 9 0 1 1 0-17.9 9 9 0 0 1 0 17.9" fill="#fff500C0"/><path d="M-88.9-295.2a9 9 0 1 1 0-17.9 9 9 0 0 1 0 17.9" fill="#005bbbC0"/><path d="M277.4 2.1a9 9 0 1 1 0-18 9 9 0 0 1 0 18" fill="#fffC1"/><path d="M-50.8 27.9a9 9 0 1 1 0-18 9 9 0 0 1 0 18" fill="#c2e1ffC1"/><path d="M178.6 69a9 9 0 1 1 0-18.1 9 9 0 0 1 0 18.1" fill="#fff500C1"/><path d="M231.1-349.6a9 9 0 1 1 0-18 9 9 0 0 1 0 18" fill="#005bbbC1"/><path d="M-115.8-58.9a9.1 9.1 0 1 1 0-18.2 9.1 9.1 0 0 1 0 18.2" fill="#005bbbC2"/><path d="M-133.3-183.7a9.1 9.1 0 1 1 0-18.2 9.1 9.1 0 0 1 0 18.2" fill="#c2e1ffC3"/><path d="M-50.2 27.1a9.2 9.2 0 1 1 0-18.4 9.2 9.2 0 0 1 0 18.4" fill="#fffC5"/><path d="M42.8 74.2a9.2 9.2 0 1 1 0-18.4 9.2 9.2 0 0 1 0 18.4" fill="#005bbbC5"/><path d="M-133.8-171.1a9.2 9.2 0 1 1 0-18.5 9.2 9.2 0 0 1 0 18.5" fill="#c2e1ffC5"/><path d="M-83.5-7.5a9.2 9.2 0 1 1 0-18.4 9.2 9.2 0 0 1 0 18.4" fill="#005bbbC6"/><path d="M-88.6-290.8a9.3 9.3 0 1 1 0-18.6 9.3 9.3 0 0 1 0 18.6" fill="#fff500C7"/><path d="M186.1 62.7a9.4 9.4 0 1 1 0-18.7 9.4 9.4 0 0 1 0 18.7" fill="#005bbbC9"/><path d="M-131.1-174.3a9.4 9.4 0 1 1 0-18.8 9.4 9.4 0 0 1 0 18.8" fill="#005bbbCA"/><path d="M-99.8-35.4a9.4 9.4 0 1 1 0-18.8 9.4 9.4 0 0 1 0 18.8" fill="#c2e1ffCA"/><path d="M-34-341.6a9.5 9.5 0 1 1 0-18.9 9.5 9.5 0 0 1 0 18.9" fill="#c2e1ffCB"/><path d="M46.7 71.3a9.5 9.5 0 1 1 0-19 9.5 9.5 0 0 1 0 19" fill="#c2e1ffCC"/><path d="M189.7-364a9.6 9.6 0 1 1 0-19.2 9.6 9.6 0 0 1 0 19.2" fill="#005bbbCD"/><path d="M74.3-380.4a9.6 9.6 0 1 1 0-19.2 9.6 9.6 0 0 1 0 19.2" fill="#005bbbCD"/><path d="M-49.5 20.1a9.6 9.6 0 1 1 0-19.2 9.6 9.6 0 0 1 0 19.2" fill="#fff500CE"/><path d="M176.5 62.2a9.6 9.6 0 1 1 0-19.2 9.6 9.6 0 0 1 0 19.2" fill="#005bbbCE"/><path d="M196.1-359.7a9.6 9.6 0 1 1 0-19.3 9.6 9.6 0 0 1 0 19.3" fill="#005bbbCE"/><path d="M312.3-234.2a9.7 9.7 0 1 1 0-19.4 9.7 9.7 0 0 1 0 19.4" fill="#fffCF"/><path d="M175-367a9.7 9.7 0 1 1 0-19.3 9.7 9.7 0 0 1 0 19.3" fill="#fffD0"/><path d="M-46.5-326.1a9.7 9.7 0 1 1 0-19.4 9.7 9.7 0 0 1 0 19.4" fill="#fff500D0"/><path d="M-114.7-220.3a9.8 9.8 0 1 1 0-19.5 9.8 9.8 0 0 1 0 19.5" fill="#fffD1"/><path d="M3.8-356a9.8 9.8 0 1 1 0-19.5 9.8 9.8 0 0 1 0 19.5" fill="#c2e1ffD1"/><path d="M206.3-350.8a9.8 9.8 0 1 1 0-19.5 9.8 9.8 0 0 1 0 19.5" fill="#fff500D2"/><path d="M-95.7-262a9.8 9.8 0 1 1 0-19.6 9.8 9.8 0 0 1 0 19.6" fill="#005bbbD2"/><path d="M-95.1-44.3a9.8 9.8 0 1 1 0-19.6 9.8 9.8 0 0 1 0 19.6" fill="#fff500D3"/><path d="M-58.2 3.9a9.9 9.9 0 1 1 0-19.7 9.9 9.9 0 0 1 0 19.7" fill="#c2e1ffD3"/><path d="M192-353.8a9.9 9.9 0 1 1 0-19.8 9.9 9.9 0 0 1 0 19.8" fill="#fffD4"/><path d="M-88-262a10 10 0 1 1 0-20 10 10 0 0 1 0 20" fill="#fffD7"/><path d="M316.4-152.5a10 10 0 1 1 0-20 10 10 0 0 1 0 20" fill="#fff500D8"/><path d="M229.4-325.5a10.1 10.1 0 1 1 0-20.1 10.1 10.1 0 0 1 0 20.1" fill="#c2e1ffD8"/><path d="M-111.8-191.8a10.1 10.1 0 1 1 0-20.2 10.1 10.1 0 0 1 0 20.2" fill="#005bbbD8"/><path d="M57-362a10.1 10.1 0 1 1 0-20.3 10.1 10.1 0 0 1 0 20.3" fill="#c2e1ffD9"/><path d="M208.6-336.5a10.1 10.1 0 1 1 0-20.2 10.1 10.1 0 0 1 0 20.2" fill="#005bbbD9"/><path d="M32.2-353.8a10.1 10.1 0 1 1 0-20.3 10.1 10.1 0 0 1 0 20.3" fill="#005bbbDA"/><path d="M249.2-302a10.2 10.2 0 1 1 0-20.3 10.2 10.2 0 0 1 0 20.3" fill="#fffDB"/><path d="M102.5-362.9a10.2 10.2 0 1 1 0-20.4 10.2 10.2 0 0 1 0 20.4" fill="#005bbbDB"/><path d="M236.1-310.4a10.2 10.2 0 1 1 0-20.5 10.2 10.2 0 0 1 0 20.5" fill="#fffDC"/><path d="M176.3 35.6a10.4 10.4 0 1 1 0-20.7 10.4 10.4 0 0 1 0 20.7" fill="#fff500DF"/><path d="M-0.3-326.7a10.4 10.4 0 1 1 0-20.8 10.4 10.4 0 0 1 0 20.8" fill="#fffDF"/><path d="M278.9-60.2a10.4 10.4 0 1 1 0-20.8 10.4 10.4 0 0 1 0 20.8" fill="#fffE0"/><path d="M70.9-350.8a10.4 10.4 0 1 1 0-20.8 10.4 10.4 0 0 1 0 20.8" fill="#005bbbE0"/><path d="M-95.3-123.6a10.5 10.5 0 1 1 0-20.9 10.5 10.5 0 0 1 0 20.9" fill="#005bbbE1"/><path d="M26.5 30.9a10.5 10.5 0 1 1 0-21 10.5 10.5 0 0 1 0 21" fill="#c2e1ffE1"/><path d="M-39.9-290.7a10.5 10.5 0 1 1 0-21 10.5 10.5 0 0 1 0 21" fill="#005bbbE1"/><path d="M-56.1-270.1a10.5 10.5 0 1 1 0-21.1 10.5 10.5 0 0 1 0 21.1" fill="#c2e1ffE2"/><path d="M290.2-126.3a10.6 10.6 0 1 1 0-21.2 10.6 10.6 0 0 1 0 21.2" fill="#005bbbE3"/><path d="M166.7-330.2a10.6 10.6 0 1 1 0-21.3 10.6 10.6 0 0 1 0 21.3" fill="#005bbbE4"/><path d="M261-55.7a10.7 10.7 0 1 1 0-21.3 10.7 10.7 0 0 1 0 21.3" fill="#c2e1ffE5"/><path d="M200.4 5.4a10.7 10.7 0 1 1 0-21.4 10.7 10.7 0 0 1 0 21.4" fill="#005bbbE5"/><path d="M-52.5-46.6a10.7 10.7 0 1 1 0-21.4 10.7 10.7 0 0 1 0 21.4" fill="#fff500E6"/><path d="M177.1 12.5a10.8 10.8 0 1 1 0-21.5 10.8 10.8 0 0 1 0 21.5" fill="#005bbbE7"/><path d="M231.5-261.3a10.9 10.9 0 1 1 0-21.8 10.9 10.9 0 0 1 0 21.8" fill="#fffEA"/><path d="M208.6-19.4a10.9 10.9 0 1 1 0-21.8 10.9 10.9 0 0 1 0 21.8" fill="#c2e1ffEA"/><path d="M209.7-25a10.9 10.9 0 1 1 0-21.9 10.9 10.9 0 0 1 0 21.9" fill="#fff500EB"/><path d="M-61.8-192.2a11 11 0 1 1 0-21.9 11 11 0 0 1 0 21.9" fill="#fffEC"/><path d="M-50.7-211.4a11 11 0 1 1 0-22 11 11 0 0 1 0 22" fill="#fffED"/><path d="M-42-219.7a11.1 11.1 0 1 1 0-22.1 11.1 11.1 0 0 1 0 22.1" fill="#fffEE"/><path d="M-45.7-206.8a11.1 11.1 0 1 1 0-22.1 11.1 11.1 0 0 1 0 22.1" fill="#fffEE"/><path d="M-22-237.7a11.1 11.1 0 1 1 0-22.3 11.1 11.1 0 0 1 0 22.3" fill="#005bbbF0"/><path d="M200.7-41a11.1 11.1 0 1 1 0-22.3 11.1 11.1 0 0 1 0 22.3" fill="#c2e1ffF0"/><path d="M5-262a11.2 11.2 0 1 1 0-22.4 11.2 11.2 0 0 1 0 22.4" fill="#fff500F1"/><path d="M243.7-165a11.2 11.2 0 1 1 0-22.4 11.2 11.2 0 0 1 0 22.4" fill="#c2e1ffF1"/><path d="M65.6-287.8a11.2 11.2 0 1 1 0-22.5 11.2 11.2 0 0 1 0 22.5" fill="#fff500F2"/><path d="M6.4-255.1a11.2 11.2 0 1 1 0-22.5 11.2 11.2 0 0 1 0 22.5" fill="#fff500F2"/><path d="M171.1-34.8a11.3 11.3 0 1 1 0-22.5 11.3 11.3 0 0 1 0 22.5" fill="#fff500F3"/><path d="M9.8-51.2a11.3 11.3 0 1 1 0-22.6 11.3 11.3 0 0 1 0 22.6" fill="#c2e1ffF3"/><path d="M-32.8-134.7a11.3 11.3 0 1 1 0-22.6 11.3 11.3 0 0 1 0 22.6" fill="#fff500F3"/><path d="M222.8-199.3a11.3 11.3 0 1 1 0-22.7 11.3 11.3 0 0 1 0 22.7" fill="#005bbbF3"/><path d="M53.5-30.9a11.3 11.3 0 1 1 0-22.7 11.3 11.3 0 0 1 0 22.7" fill="#005bbbF4"/><path d="M131.6-272.7a11.4 11.4 0 1 1 0-22.7 11.4 11.4 0 0 1 0 22.7" fill="#c2e1ffF5"/><path d="M155.6-42.8a11.4 11.4 0 1 1 0-22.8 11.4 11.4 0 0 1 0 22.8" fill="#005bbbF5"/><path d="M63.6-35.4a11.4 11.4 0 1 1 0-22.8 11.4 11.4 0 0 1 0 22.8" fill="#005bbbF5"/><path d="M8.8-73.5a11.4 11.4 0 1 1 0-22.8 11.4 11.4 0 0 1 0 22.8" fill="#fffF6"/><path d="M147.3-44.1a11.4 11.4 0 1 1 0-22.8 11.4 11.4 0 0 1 0 22.8" fill="#fff500F6"/><path d="M-5.9-165.3a11.5 11.5 0 1 1 0-23 11.5 11.5 0 0 1 0 23" fill="#fffF7"/><path d="M-3.1-177.4a11.5 11.5 0 1 1 0-23 11.5 11.5 0 0 1 0 23" fill="#fffF8"/><path d="M138.8-52.5a11.5 11.5 0 1 1 0-23 11.5 11.5 0 0 1 0 23" fill="#c2e1ffF8"/><path d="M54.7-176.9a11.7 11.7 0 1 1 0-23.5 11.7 11.7 0 0 1 0 23.5" fill="#005bbbFD"/><path d="M67.8-110.5a11.7 11.7 0 1 1 0-23.5 11.7 11.7 0 0 1 0 23.5" fill="#005bbbFD"/><path d="M62.4-151.3a11.8 11.8 0 1 1 0-23.5 11.8 11.8 0 0 1 0 23.5" fill="#fffFE"/></g></svg>