<svg width="1200" height="675" viewBox="-500 -500 1200 675" xmlns="http://www.w3.org/2000/svg"><path d="M-500-500h1200v675h-1200z" fill="#000"/><style>.sparkles path{stroke-linecap:round; stroke-width:1}</style><g class="sparkles"><path d="M100-162.5l42.4-24" stroke="#ef476f33"/><path d="M100-162.5l32.5-55.7" stroke="#ef476f33"/><path d="M100-162.5l55.5-38.7" stroke="#ffd16634"/><path d="M100-162.5l-64.9-24.8" stroke="#ef476f34"/><path d="M100-162.5l34.4-70.4" stroke="#ef476f34"/><path d="M100-162.5l73.4 36.3" stroke="#118ab235"/><path d="M100-162.5l67.1 57.8" stroke="#ef476f35"/><path d="M100-162.5l-105.5 28.2" stroke="#ffd16637"/><path d="M100-162.5l-67.5-101.2" stroke="#ef476f39"/><path d="M100-162.5l111.4-71.7" stroke="#073b4c3A"/><path d="M100-162.5l115.5 67.5" stroke="#073b4c3A"/><path d="M100-162.5l135.1 22.5" stroke="#ef476f3B"/><path d="M100-162.5l42.7-130.2" stroke="#06d6a03B"/><path d="M100-162.5l-103.6-91.9" stroke="#ffd1663B"/><path d="M100-162.5l-133.1-47.5" stroke="#06d6a03B"/><path d="M100-162.5l-59.3-131.5" stroke="#ffd1663C"/><path d="M100-162.5l128.6 67.8" stroke="#ffd1663C"/><path d="M100-162.5l-92.8 115.2" stroke="#118ab23D"/><path d="M100-162.5l-106.7 106" stroke="#073b4c3D"/><path d="M100-162.5l22.7 149.8" stroke="#06d6a03D"/><path d="M100-162.5l-125.4 87" stroke="#073b4c3D"/><path d="M100-162.5l-156.2 2.9" stroke="#118ab23E"/><path d="M100-162.5l161.5 0" stroke="#ffd1663F"/><path d="M100-162.5l161.7 18.9" stroke="#06d6a03F"/><path d="M100-162.5l27.8-161.1" stroke="#ef476f3F"/><path d="M100-162.5l-159.9 50.6" stroke="#ef476f40"/><path d="M100-162.5l147.5-80.3" stroke="#06d6a040"/><path d="M100-162.5l138.1 104.7" stroke="#ef476f42"/><path d="M100-162.5l55.4-164.6" stroke="#ef476f42"/><path d="M100-162.5l-177 27" stroke="#073b4c43"/><path d="M100-162.5l177.9 26.5" stroke="#118ab243"/><path d="M100-162.5l27.1-179.3" stroke="#ef476f43"/><path d="M100-162.5l137.4 118.5" stroke="#118ab243"/><path d="M100-162.5l175.5-48.6" stroke="#073b4c44"/><path d="M100-162.5l33.9 182.9" stroke="#073b4c45"/><path d="M100-162.5l-132-131.4" stroke="#073b4c45"/><path d="M100-162.5l167.5 84.7" stroke="#118ab245"/><path d="M100-162.5l-189.5 1.8" stroke="#118ab246"/><path d="M100-162.5l-50.1-183.6" stroke="#ef476f46"/><path d="M100-162.5l-86.2-170.3" stroke="#118ab246"/><path d="M100-162.5l92.3-172.2" stroke="#06d6a047"/><path d="M100-162.5l190.2 53.6" stroke="#06d6a048"/><path d="M100-162.5l36.9 197.6" stroke="#ffd16649"/><path d="M100-162.5l149.5 140.8" stroke="#118ab24B"/><path d="M100-162.5l-201.2-44.8" stroke="#ffd1664B"/><path d="M100-162.5l173.3 113.5" stroke="#06d6a04B"/><path d="M100-162.5l138.7-156.1" stroke="#ffd1664C"/><path d="M100-162.5l199.4-64.9" stroke="#118ab24C"/><path d="M100-162.5l197.2 73.5" stroke="#073b4c4D"/><path d="M100-162.5l-68.2-199.1" stroke="#06d6a04D"/><path d="M100-162.5l-187.3-97" stroke="#073b4c4D"/><path d="M100-162.5l-209.1-34.5" stroke="#ffd1664D"/><path d="M100-162.5l-214.9 5.8" stroke="#ffd1664F"/><path d="M100-162.5l39 215.9" stroke="#06d6a051"/><path d="M100-162.5l219.5-1.6" stroke="#06d6a051"/><path d="M100-162.5l106.3-193.2" stroke="#06d6a052"/><path d="M100-162.5l-59.8-212.4" stroke="#073b4c52"/><path d="M100-162.5l-103.8-196" stroke="#118ab252"/><path d="M100-162.5l217.4 46.3" stroke="#ffd16653"/><path d="M100-162.5l-69.1-211.8" stroke="#ef476f53"/><path d="M100-162.5l-166.3-149.5" stroke="#073b4c53"/><path d="M100-162.5l-220.7 37.4" stroke="#06d6a054"/><path d="M100-162.5l61.4-217" stroke="#118ab255"/><path d="M100-162.5l-162.1-158.6" stroke="#118ab256"/><path d="M100-162.5l-148.3 171.7" stroke="#073b4c56"/><path d="M100-162.5l50.9-221.4" stroke="#118ab256"/><path d="M100-162.5l154.5-167.8" stroke="#073b4c56"/><path d="M100-162.5l152.1-171.9" stroke="#118ab258"/><path d="M100-162.5l-64.5 220.5" stroke="#118ab258"/><path d="M100-162.5l230.1-9.1" stroke="#073b4c58"/><path d="M100-162.5l218.3-74.6" stroke="#06d6a059"/><path d="M100-162.5l-103.4-206.4" stroke="#118ab259"/><path d="M100-162.5l-57.5 223.9" stroke="#ffd16659"/><path d="M100-162.5l-43 229.1" stroke="#06d6a05B"/><path d="M100-162.5l161.2 168.7" stroke="#ffd1665C"/><path d="M100-162.5l-214-96.3" stroke="#118ab25E"/><path d="M100-162.5l-124.7-199.1" stroke="#ffd1665E"/><path d="M100-162.5l234.6-13.7" stroke="#118ab25E"/><path d="M100-162.5l-234.2 19.3" stroke="#073b4c5E"/><path d="M100-162.5l161.3 171.3" stroke="#118ab25F"/><path d="M100-162.5l-234.8 15.2" stroke="#ef476f5F"/><path d="M100-162.5l121.1 202.5" stroke="#ffd16661"/><path d="M100-162.5l137.8-191.7" stroke="#ef476f62"/><path d="M100-162.5l-168.7-165.4" stroke="#06d6a064"/><path d="M100-162.5l-217.6 92" stroke="#ffd16664"/><path d="M100-162.5l-86.2-219.9" stroke="#ffd16664"/><path d="M100-162.5l-236-9.6" stroke="#06d6a064"/><path d="M100-162.5l228.4-60" stroke="#118ab265"/><path d="M100-162.5l-160.5 173.2" stroke="#06d6a065"/><path d="M100-162.5l-217.4-92.2" stroke="#073b4c65"/><path d="M100-162.5l-231-48.5" stroke="#ffd16665"/><path d="M100-162.5l166-167.9" stroke="#ef476f66"/><path d="M100-162.5l-199.9 125.5" stroke="#073b4c66"/><path d="M100-162.5l-235.1 20.4" stroke="#ffd16666"/><path d="M100-162.5l175.6 157.7" stroke="#073b4c66"/><path d="M100-162.5l61.3 227.7" stroke="#073b4c67"/><path d="M100-162.5l-86.1-219.5" stroke="#073b4c67"/><path d="M100-162.5l-161.8 171.3" stroke="#118ab267"/><path d="M100-162.5l-196.3-130.3" stroke="#06d6a067"/><path d="M100-162.5l171.6-161.3" stroke="#06d6a067"/><path d="M100-162.5l58.9 227.9" stroke="#ffd16668"/><path d="M100-162.5l-217.5-89.9" stroke="#073b4c68"/><path d="M100-162.5l144.5 185.4" stroke="#06d6a069"/><path d="M100-162.5l15.8 234.5" stroke="#ef476f69"/><path d="M100-162.5l156.8-175" stroke="#073b4c69"/><path d="M100-162.5l-152 178.9" stroke="#118ab269"/><path d="M100-162.5l-145.1-184.1" stroke="#ffd1666A"/><path d="M100-162.5l-129.6-194.2" stroke="#ef476f6B"/><path d="M100-162.5l232.7 15.5" stroke="#ef476f6B"/><path d="M100-162.5l191.8-132.3" stroke="#06d6a06C"/><path d="M100-162.5l-48.6-227.7" stroke="#ef476f6C"/><path d="M100-162.5l-232.6-0.4" stroke="#073b4c6C"/><path d="M100-162.5l160.4 167.4" stroke="#ef476f6D"/><path d="M100-162.5l200 117.2" stroke="#ffd1666D"/><path d="M100-162.5l136.5-186.8" stroke="#073b4c6E"/><path d="M100-162.5l195.2-123.5" stroke="#ffd1666E"/><path d="M100-162.5l-192.1 127.9" stroke="#073b4c6E"/><path d="M100-162.5l132.3 187.7" stroke="#ef476f6F"/><path d="M100-162.5l-83.9-213.1" stroke="#073b4c70"/><path d="M100-162.5l216.1 74.5" stroke="#ef476f70"/><path d="M100-162.5l127.7 188.5" stroke="#073b4c71"/><path d="M100-162.5l-159.9-160" stroke="#ef476f72"/><path d="M100-162.5l195.4 113.1" stroke="#06d6a072"/><path d="M100-162.5l225-17.2" stroke="#06d6a072"/><path d="M100-162.5l-214.8-67.1" stroke="#06d6a073"/><path d="M100-162.5l-13.4-221.7" stroke="#073b4c75"/><path d="M100-162.5l-119.2-186.9" stroke="#06d6a075"/><path d="M100-162.5l-219.9 22.5" stroke="#ffd16675"/><path d="M100-162.5l-6-219.6" stroke="#118ab276"/><path d="M100-162.5l15.7 217.4" stroke="#ef476f77"/><path d="M100-162.5l-199.2 88.1" stroke="#073b4c77"/><path d="M100-162.5l-34.3 214.2" stroke="#073b4c77"/><path d="M100-162.5l194.9 94.5" stroke="#ef476f77"/><path d="M100-162.5l116.9 182.3" stroke="#06d6a077"/><path d="M100-162.5l-78.8-201.1" stroke="#073b4c78"/><path d="M100-162.5l-183.4-113.7" stroke="#073b4c78"/><path d="M100-162.5l-187.7-106.5" stroke="#ef476f78"/><path d="M100-162.5l-211.8-8.6" stroke="#ffd1667A"/><path d="M100-162.5l-205.6-37.4" stroke="#ffd1667B"/><path d="M100-162.5l194.9-66.5" stroke="#073b4c7C"/><path d="M100-162.5l138.1 151.4" stroke="#06d6a07C"/><path d="M100-162.5l-185.7-83.4" stroke="#118ab27D"/><path d="M100-162.5l-87.9 181.2" stroke="#ffd1667E"/><path d="M100-162.5l-191.2-51.6" stroke="#ef476f7F"/><path d="M100-162.5l84 178.7" stroke="#073b4c7F"/><path d="M100-162.5l-116.9-157.4" stroke="#ffd1667F"/><path d="M100-162.5l-143.5-132.6" stroke="#ef476f80"/><path d="M100-162.5l194.6-2.2" stroke="#ef476f80"/><path d="M100-162.5l-91.3-171.4" stroke="#ffd16680"/><path d="M100-162.5l-180.4 65.1" stroke="#ef476f81"/><path d="M100-162.5l107.9 158.3" stroke="#073b4c81"/><path d="M100-162.5l-168.3-83.5" stroke="#073b4c82"/><path d="M100-162.5l-45.1 182" stroke="#06d6a082"/><path d="M100-162.5l103.6 154" stroke="#ffd16682"/><path d="M100-162.5l-157.5 77.4" stroke="#118ab285"/><path d="M100-162.5l159.6 72.1" stroke="#ffd16685"/><path d="M100-162.5l-7.3-174.6" stroke="#073b4c85"/><path d="M100-162.5l130 115.1" stroke="#06d6a085"/><path d="M100-162.5l25.2 171.2" stroke="#118ab286"/><path d="M100-162.5l165.7-28.4" stroke="#118ab287"/><path d="M100-162.5l-135.4-95.9" stroke="#06d6a087"/><path d="M100-162.5l-65.3-135.3" stroke="#ffd1668A"/><path d="M100-162.5l75.6 128.6" stroke="#06d6a08A"/><path d="M100-162.5l-137.2-39.3" stroke="#ef476f8B"/><path d="M100-162.5l90.9 105.8" stroke="#ffd1668C"/><path d="M100-162.5l123.6-22.2" stroke="#ffd1668E"/><path d="M100-162.5l43.8 111.6" stroke="#118ab28F"/><path d="M100-162.5l103.7-57.3" stroke="#118ab28F"/><path d="M100-162.5l101.4-41.8" stroke="#ffd16690"/><path d="M100-162.5l-103.2-16.1" stroke="#06d6a090"/><path d="M100-162.5l18.7 98.7" stroke="#073b4c91"/><path d="M100-162.5l44.9 82.2" stroke="#ffd16691"/><path d="M100-162.5l35.7-86.2" stroke="#073b4c91"/><path d="M100-162.5l-73.7 55.8" stroke="#ef476f92"/><path d="M100-162.5l-55.6-29.8" stroke="#ffd16694"/><path d="M100-162.5l32.8-30.1" stroke="#ef476f95"/><path d="M100-162.5l-19.9 39.2" stroke="#073b4c95"/><path d="M100-162.5l37.4 15.7" stroke="#073b4c95"/><path d="M100-162.5l25.5 24.4" stroke="#073b4c95"/><path d="M100-162.5l-22 14.8" stroke="#06d6a095"/><path d="M100-162.5l16.1 2.2" stroke="#073b4c95"/></g><g class="sparcs"><path d="M142.4-180.6a6 6 0 1 1 0-11.9 6 6 0 0 1 0 11.9" fill="#ffd1667E"/><path d="M132.5-212.2a6 6 0 1 1 0-12 6 6 0 0 1 0 12" fill="#ef476f7F"/><path d="M155.5-195.2a6 6 0 1 1 0-12 6 6 0 0 1 0 12" fill="#06d6a07F"/><path d="M35.1-181.3a6 6 0 1 1 0-12.1 6 6 0 0 1 0 12.1" fill="#ffd1667F"/><path d="M134.4-226.8a6.1 6.1 0 1 1 0-12.2 6.1 6.1 0 0 1 0 12.2" fill="#118ab280"/><path d="M173.4-120.1a6.1 6.1 0 1 1 0-12.2 6.1 6.1 0 0 1 0 12.2" fill="#ffd16681"/><path d="M167.1-98.6a6.1 6.1 0 1 1 0-12.2 6.1 6.1 0 0 1 0 12.2" fill="#118ab281"/><path d="M-5.5-128a6.2 6.2 0 1 1 0-12.5 6.2 6.2 0 0 1 0 12.5" fill="#ffd16684"/><path d="M32.5-257.4a6.3 6.3 0 1 1 0-12.6 6.3 6.3 0 0 1 0 12.6" fill="#ef476f86"/><path d="M211.4-227.8a6.4 6.4 0 1 1 0-12.8 6.4 6.4 0 0 1 0 12.8" fill="#ffd16688"/><path d="M215.5-88.6a6.4 6.4 0 1 1 0-12.9 6.4 6.4 0 0 1 0 12.9" fill="#118ab288"/><path d="M235.1-133.5a6.5 6.5 0 1 1 0-12.9 6.5 6.5 0 0 1 0 12.9" fill="#ffd16689"/><path d="M142.7-286.2a6.5 6.5 0 1 1 0-12.9 6.5 6.5 0 0 1 0 12.9" fill="#073b4c89"/><path d="M-3.6-247.9a6.5 6.5 0 1 1 0-13 6.5 6.5 0 0 1 0 13" fill="#ffd16689"/><path d="M-33.1-203.5a6.5 6.5 0 1 1 0-13 6.5 6.5 0 0 1 0 13" fill="#ef476f89"/><path d="M40.7-287.4a6.5 6.5 0 1 1 0-13.1 6.5 6.5 0 0 1 0 13.1" fill="#118ab28A"/><path d="M228.6-88.2a6.5 6.5 0 1 1 0-13.1 6.5 6.5 0 0 1 0 13.1" fill="#ffd1668A"/><path d="M7.2-40.7a6.6 6.6 0 1 1 0-13.1 6.6 6.6 0 0 1 0 13.1" fill="#ef476f8B"/><path d="M-6.7-49.9a6.6 6.6 0 1 1 0-13.2 6.6 6.6 0 0 1 0 13.2" fill="#118ab28B"/><path d="M122.7-6.1a6.6 6.6 0 1 1 0-13.2 6.6 6.6 0 0 1 0 13.2" fill="#ef476f8C"/><path d="M-25.4-68.9a6.6 6.6 0 1 1 0-13.2 6.6 6.6 0 0 1 0 13.2" fill="#073b4c8C"/><path d="M-56.2-153a6.6 6.6 0 1 1 0-13.3 6.6 6.6 0 0 1 0 13.3" fill="#073b4c8D"/><path d="M261.5-155.8a6.7 6.7 0 1 1 0-13.4 6.7 6.7 0 0 1 0 13.4" fill="#118ab28E"/><path d="M261.7-136.8a6.7 6.7 0 1 1 0-13.5 6.7 6.7 0 0 1 0 13.5" fill="#073b4c8E"/><path d="M127.8-316.9a6.7 6.7 0 1 1 0-13.5 6.7 6.7 0 0 1 0 13.5" fill="#06d6a08F"/><path d="M-59.9-105.1a6.8 6.8 0 1 1 0-13.5 6.8 6.8 0 0 1 0 13.5" fill="#073b4c90"/><path d="M247.5-236a6.8 6.8 0 1 1 0-13.6 6.8 6.8 0 0 1 0 13.6" fill="#073b4c90"/><path d="M238.1-51a6.9 6.9 0 1 1 0-13.7 6.9 6.9 0 0 1 0 13.7" fill="#ffd16691"/><path d="M155.4-320.3a6.9 6.9 0 1 1 0-13.7 6.9 6.9 0 0 1 0 13.7" fill="#ffd16691"/><path d="M-77-128.6a6.9 6.9 0 1 1 0-13.9 6.9 6.9 0 0 1 0 13.9" fill="#118ab293"/><path d="M277.9-129a6.9 6.9 0 1 1 0-13.9 6.9 6.9 0 0 1 0 13.9" fill="#06d6a093"/><path d="M127.1-334.9a7 7 0 1 1 0-13.9 7 7 0 0 1 0 13.9" fill="#073b4c94"/><path d="M237.4-37a7 7 0 1 1 0-14 7 7 0 0 1 0 14" fill="#ffd16694"/><path d="M275.5-204.1a7 7 0 1 1 0-14 7 7 0 0 1 0 14" fill="#ef476f94"/><path d="M133.9 27.4a7 7 0 1 1 0-14 7 7 0 0 1 0 14" fill="#ef476f95"/><path d="M-32-286.8a7 7 0 1 1 0-14.1 7 7 0 0 1 0 14.1" fill="#118ab296"/><path d="M267.5-70.7a7.1 7.1 0 1 1 0-14.2 7.1 7.1 0 0 1 0 14.2" fill="#06d6a096"/><path d="M-89.5-153.6a7.1 7.1 0 1 1 0-14.2 7.1 7.1 0 0 1 0 14.2" fill="#06d6a097"/><path d="M49.9-339a7.1 7.1 0 1 1 0-14.2 7.1 7.1 0 0 1 0 14.2" fill="#06d6a097"/><path d="M13.8-325.7a7.1 7.1 0 1 1 0-14.2 7.1 7.1 0 0 1 0 14.2" fill="#073b4c97"/><path d="M192.3-327.5a7.2 7.2 0 1 1 0-14.4 7.2 7.2 0 0 1 0 14.4" fill="#073b4c99"/><path d="M290.2-101.7a7.2 7.2 0 1 1 0-14.4 7.2 7.2 0 0 1 0 14.4" fill="#118ab29A"/><path d="M136.9 42.4a7.3 7.3 0 1 1 0-14.6 7.3 7.3 0 0 1 0 14.6" fill="#073b4c9B"/><path d="M249.5-14.3a7.4 7.4 0 1 1 0-14.8 7.4 7.4 0 0 1 0 14.8" fill="#ef476f9D"/><path d="M-101.2-199.9a7.4 7.4 0 1 1 0-14.9 7.4 7.4 0 0 1 0 14.9" fill="#073b4c9E"/><path d="M273.3-41.5a7.4 7.4 0 1 1 0-14.9 7.4 7.4 0 0 1 0 14.9" fill="#073b4c9E"/><path d="M238.7-311.1a7.5 7.5 0 1 1 0-14.9 7.5 7.5 0 0 1 0 14.9" fill="#06d6a09F"/><path d="M299.4-219.9a7.5 7.5 0 1 1 0-15 7.5 7.5 0 0 1 0 15" fill="#073b4cA0"/><path d="M297.2-81.5a7.5 7.5 0 1 1 0-15 7.5 7.5 0 0 1 0 15" fill="#ffd166A0"/><path d="M31.8-354.1a7.5 7.5 0 1 1 0-15.1 7.5 7.5 0 0 1 0 15.1" fill="#118ab2A0"/><path d="M-87.3-251.9a7.5 7.5 0 1 1 0-15.1 7.5 7.5 0 0 1 0 15.1" fill="#06d6a0A0"/><path d="M-109.1-189.4a7.6 7.6 0 1 1 0-15.1 7.6 7.6 0 0 1 0 15.1" fill="#118ab2A1"/><path d="M-114.9-149.1a7.6 7.6 0 1 1 0-15.2 7.6 7.6 0 0 1 0 15.2" fill="#ef476fA3"/><path d="M139 61.2a7.8 7.8 0 1 1 0-15.6 7.8 7.8 0 0 1 0 15.6" fill="#ef476fA5"/><path d="M319.5-156.3a7.8 7.8 0 1 1 0-15.6 7.8 7.8 0 0 1 0 15.6" fill="#06d6a0A5"/><path d="M206.3-347.9a7.8 7.8 0 1 1 0-15.6 7.8 7.8 0 0 1 0 15.6" fill="#118ab2A6"/><path d="M40.2-367a7.8 7.8 0 1 1 0-15.7 7.8 7.8 0 0 1 0 15.7" fill="#06d6a0A6"/><path d="M-3.8-350.7a7.8 7.8 0 1 1 0-15.7 7.8 7.8 0 0 1 0 15.7" fill="#06d6a0A7"/><path d="M317.4-108.3a7.9 7.9 0 1 1 0-15.7 7.9 7.9 0 0 1 0 15.7" fill="#ef476fA7"/><path d="M30.9-366.4a7.9 7.9 0 1 1 0-15.8 7.9 7.9 0 0 1 0 15.8" fill="#118ab2A8"/><path d="M-66.3-304.1a7.9 7.9 0 1 1 0-15.8 7.9 7.9 0 0 1 0 15.8" fill="#073b4cA9"/><path d="M-120.7-117.2a7.9 7.9 0 1 1 0-15.9 7.9 7.9 0 0 1 0 15.9" fill="#ffd166A9"/><path d="M161.4-371.6a8 8 0 1 1 0-15.9 8 8 0 0 1 0 15.9" fill="#ffd166AA"/><path d="M-62.1-313.1a8 8 0 1 1 0-16.1 8 8 0 0 1 0 16.1" fill="#ffd166AB"/><path d="M-48.3 17.2a8 8 0 1 1 0-16 8 8 0 0 1 0 16" fill="#ffd166AB"/><path d="M150.9-375.9a8 8 0 1 1 0-16.1 8 8 0 0 1 0 16.1" fill="#06d6a0AC"/><path d="M254.5-322.2a8.1 8.1 0 1 1 0-16.2 8.1 8.1 0 0 1 0 16.2" fill="#118ab2AD"/><path d="M252.1-326.2a8.2 8.2 0 1 1 0-16.3 8.2 8.2 0 0 1 0 16.3" fill="#ef476fAE"/><path d="M35.5 66.2a8.2 8.2 0 1 1 0-16.4 8.2 8.2 0 0 1 0 16.4" fill="#118ab2AE"/><path d="M330.1-163.4a8.2 8.2 0 1 1 0-16.4 8.2 8.2 0 0 1 0 16.4" fill="#118ab2AF"/><path d="M318.3-228.9a8.2 8.2 0 1 1 0-16.4 8.2 8.2 0 0 1 0 16.4" fill="#ef476fAF"/><path d="M-3.4-360.6a8.2 8.2 0 1 1 0-16.5 8.2 8.2 0 0 1 0 16.5" fill="#118ab2B0"/><path d="M42.5 69.6a8.2 8.2 0 1 1 0-16.5 8.2 8.2 0 0 1 0 16.5" fill="#073b4cB0"/><path d="M57 75a8.4 8.4 0 1 1 0-16.8 8.4 8.4 0 0 1 0 16.8" fill="#ef476fB3"/><path d="M261.2 14.6a8.4 8.4 0 1 1 0-16.8 8.4 8.4 0 0 1 0 16.8" fill="#118ab2B3"/><path d="M-114-250.3a8.5 8.5 0 1 1 0-17.1 8.5 8.5 0 0 1 0 17.1" fill="#073b4cB6"/><path d="M-24.7-353.1a8.5 8.5 0 1 1 0-17.1 8.5 8.5 0 0 1 0 17.1" fill="#073b4cB7"/><path d="M334.6-167.7a8.6 8.6 0 1 1 0-17.1 8.6 8.6 0 0 1 0 17.1" fill="#ffd166B7"/><path d="M-134.2-134.6a8.6 8.6 0 1 1 0-17.1 8.6 8.6 0 0 1 0 17.1" fill="#118ab2B7"/><path d="M261.3 17.4a8.6 8.6 0 1 1 0-17.2 8.6 8.6 0 0 1 0 17.2" fill="#06d6a0B8"/><path d="M-134.8-138.7a8.6 8.6 0 1 1 0-17.2 8.6 8.6 0 0 1 0 17.2" fill="#06d6a0B8"/><path d="M221.1 48.8a8.7 8.7 0 1 1 0-17.5 8.7 8.7 0 0 1 0 17.5" fill="#118ab2BA"/><path d="M237.8-345.5a8.8 8.8 0 1 1 0-17.5 8.8 8.8 0 0 1 0 17.5" fill="#ef476fBB"/><path d="M-68.7-319a8.9 8.9 0 1 1 0-17.8 8.9 8.9 0 0 1 0 17.8" fill="#118ab2BE"/><path d="M-117.6-61.6a8.9 8.9 0 1 1 0-17.8 8.9 8.9 0 0 1 0 17.8" fill="#118ab2BE"/><path d="M13.8-373.5a8.9 8.9 0 1 1 0-17.8 8.9 8.9 0 0 1 0 17.8" fill="#ffd166BF"/><path d="M-136-163.2a8.9 8.9 0 1 1 0-17.8 8.9 8.9 0 0 1 0 17.8" fill="#ef476fBF"/><path d="M328.4-213.6a8.9 8.9 0 1 1 0-17.8 8.9 8.9 0 0 1 0 17.8" fill="#073b4cBF"/><path d="M-60.5 19.7a8.9 8.9 0 1 1 0-17.9 8.9 8.9 0 0 1 0 17.9" fill="#ffd166BF"/><path d="M-117.4-245.8a9 9 0 1 1 0-17.9 9 9 0 0 1 0 17.9" fill="#118ab2C0"/><path d="M-131-202.1a9 9 0 1 1 0-17.9 9 9 0 0 1 0 17.9" fill="#ef476fC0"/><path d="M266-321.4a9 9 0 1 1 0-17.9 9 9 0 0 1 0 17.9" fill="#118ab2C0"/><path d="M-99.9-28a9 9 0 1 1 0-18 9 9 0 0 1 0 18" fill="#06d6a0C0"/><path d="M-135.1-133.1a9 9 0 1 1 0-18 9 9 0 0 1 0 18" fill="#ef476fC0"/><path d="M275.6 4.2a9 9 0 1 1 0-18 9 9 0 0 1 0 18" fill="#ef476fC0"/><path d="M161.3 74.2a9 9 0 1 1 0-18 9 9 0 0 1 0 18" fill="#073b4cC1"/><path d="M13.9-373a9 9 0 1 1 0-18 9 9 0 0 1 0 18" fill="#ef476fC1"/><path d="M-61.8 17.9a9.1 9.1 0 1 1 0-18.1 9.1 9.1 0 0 1 0 18.1" fill="#ffd166C2"/><path d="M-96.3-283.7a9.1 9.1 0 1 1 0-18.1 9.1 9.1 0 0 1 0 18.1" fill="#06d6a0C2"/><path d="M271.6-314.7a9.1 9.1 0 1 1 0-18.2 9.1 9.1 0 0 1 0 18.2" fill="#073b4cC3"/><path d="M158.9 74.5a9.1 9.1 0 1 1 0-18.2 9.1 9.1 0 0 1 0 18.2" fill="#ef476fC3"/><path d="M-117.5-243.3a9.1 9.1 0 1 1 0-18.2 9.1 9.1 0 0 1 0 18.2" fill="#ffd166C3"/><path d="M244.5 32.1a9.2 9.2 0 1 1 0-18.3 9.2 9.2 0 0 1 0 18.3" fill="#073b4cC4"/><path d="M115.8 81.1a9.2 9.2 0 1 1 0-18.3 9.2 9.2 0 0 1 0 18.3" fill="#073b4cC4"/><path d="M256.8-328.4a9.2 9.2 0 1 1 0-18.3 9.2 9.2 0 0 1 0 18.3" fill="#073b4cC4"/><path d="M-52 25.6a9.2 9.2 0 1 1 0-18.4 9.2 9.2 0 0 1 0 18.4" fill="#ef476fC5"/><path d="M-45.1-337.4a9.2 9.2 0 1 1 0-18.4 9.2 9.2 0 0 1 0 18.4" fill="#06d6a0C6"/><path d="M-29.6-347.4a9.3 9.3 0 1 1 0-18.6 9.3 9.3 0 0 1 0 18.6" fill="#ffd166C7"/><path d="M332.7-137.7a9.3 9.3 0 1 1 0-18.6 9.3 9.3 0 0 1 0 18.6" fill="#ffd166C8"/><path d="M291.8-285.4a9.3 9.3 0 1 1 0-18.7 9.3 9.3 0 0 1 0 18.7" fill="#118ab2C8"/><path d="M51.4-380.9a9.4 9.4 0 1 1 0-18.7 9.4 9.4 0 0 1 0 18.7" fill="#118ab2C8"/><path d="M-132.6-153.6a9.4 9.4 0 1 1 0-18.7 9.4 9.4 0 0 1 0 18.7" fill="#ffd166C9"/><path d="M260.4 14.4a9.4 9.4 0 1 1 0-18.9 9.4 9.4 0 0 1 0 18.9" fill="#06d6a0CA"/><path d="M300-35.9a9.4 9.4 0 1 1 0-18.8 9.4 9.4 0 0 1 0 18.8" fill="#ef476fCA"/><path d="M236.5-339.8a9.5 9.5 0 1 1 0-18.9 9.5 9.5 0 0 1 0 18.9" fill="#ef476fCB"/><path d="M295.2-276.6a9.5 9.5 0 1 1 0-18.9 9.5 9.5 0 0 1 0 18.9" fill="#118ab2CB"/><path d="M-92.1-25.1a9.5 9.5 0 1 1 0-19 9.5 9.5 0 0 1 0 19" fill="#ffd166CB"/><path d="M232.3 34.7a9.6 9.6 0 1 1 0-19.1 9.6 9.6 0 0 1 0 19.1" fill="#118ab2CD"/><path d="M16.1-366a9.6 9.6 0 1 1 0-19.2 9.6 9.6 0 0 1 0 19.2" fill="#06d6a0CD"/><path d="M316.1-78.4a9.6 9.6 0 1 1 0-19.2 9.6 9.6 0 0 1 0 19.2" fill="#118ab2CE"/><path d="M227.7 35.7a9.6 9.6 0 1 1 0-19.3 9.6 9.6 0 0 1 0 19.3" fill="#ffd166CF"/><path d="M-59.9-312.8a9.7 9.7 0 1 1 0-19.5 9.7 9.7 0 0 1 0 19.5" fill="#06d6a0D0"/><path d="M295.4-39.7a9.7 9.7 0 1 1 0-19.4 9.7 9.7 0 0 1 0 19.4" fill="#ffd166D1"/><path d="M325-170a9.7 9.7 0 1 1 0-19.4 9.7 9.7 0 0 1 0 19.4" fill="#06d6a0D1"/><path d="M-114.8-219.9a9.8 9.8 0 1 1 0-19.5 9.8 9.8 0 0 1 0 19.5" fill="#073b4cD1"/><path d="M86.6-374.3a9.9 9.9 0 1 1 0-19.8 9.9 9.9 0 0 1 0 19.8" fill="#06d6a0D4"/><path d="M-19.2-339.5a9.9 9.9 0 1 1 0-19.8 9.9 9.9 0 0 1 0 19.8" fill="#06d6a0D4"/><path d="M-119.9-130.1a9.9 9.9 0 1 1 0-19.8 9.9 9.9 0 0 1 0 19.8" fill="#ef476fD4"/><path d="M94-372.1a9.9 9.9 0 1 1 0-19.9 9.9 9.9 0 0 1 0 19.9" fill="#118ab2D5"/><path d="M115.7 64.9a10 10 0 1 1 0-20 10 10 0 0 1 0 20" fill="#073b4cD7"/><path d="M-99.2-64.4a10 10 0 1 1 0-20 10 10 0 0 1 0 20" fill="#ffd166D7"/><path d="M65.7 61.8a10 10 0 1 1 0-20.1 10 10 0 0 1 0 20.1" fill="#ef476fD7"/><path d="M294.9-57.9a10 10 0 1 1 0-20.1 10 10 0 0 1 0 20.1" fill="#118ab2D7"/><path d="M216.9 29.8a10 10 0 1 1 0-20.1 10 10 0 0 1 0 20.1" fill="#118ab2D7"/><path d="M21.2-353.5a10.1 10.1 0 1 1 0-20.1 10.1 10.1 0 0 1 0 20.1" fill="#118ab2D8"/><path d="M-83.4-266.1a10.1 10.1 0 1 1 0-20.2 10.1 10.1 0 0 1 0 20.2" fill="#ffd166D8"/><path d="M-87.7-258.9a10.1 10.1 0 1 1 0-20.2 10.1 10.1 0 0 1 0 20.2" fill="#073b4cD8"/><path d="M-111.8-161a10.2 10.2 0 1 1 0-20.3 10.2 10.2 0 0 1 0 20.3" fill="#073b4cDA"/><path d="M-105.6-189.7a10.2 10.2 0 1 1 0-20.5 10.2 10.2 0 0 1 0 20.5" fill="#06d6a0DC"/><path d="M294.9-218.7a10.3 10.3 0 1 1 0-20.6 10.3 10.3 0 0 1 0 20.6" fill="#ffd166DD"/><path d="M238.1-0.7a10.3 10.3 0 1 1 0-20.7 10.3 10.3 0 0 1 0 20.7" fill="#073b4cDE"/><path d="M-85.7-235.6a10.4 10.4 0 1 1 0-20.7 10.4 10.4 0 0 1 0 20.7" fill="#ef476fDE"/><path d="M12.1 29.1a10.4 10.4 0 1 1 0-20.9 10.4 10.4 0 0 1 0 20.9" fill="#06d6a0E0"/><path d="M-91.2-203.7a10.5 10.5 0 1 1 0-20.9 10.5 10.5 0 0 1 0 20.9" fill="#073b4cE1"/><path d="M184 26.7a10.5 10.5 0 1 1 0-21 10.5 10.5 0 0 1 0 21" fill="#ffd166E1"/><path d="M-16.9-309.4a10.5 10.5 0 1 1 0-21 10.5 10.5 0 0 1 0 21" fill="#06d6a0E2"/><path d="M-43.5-284.6a10.5 10.5 0 1 1 0-21 10.5 10.5 0 0 1 0 21" fill="#ef476fE2"/><path d="M294.6-154.2a10.5 10.5 0 1 1 0-21.1 10.5 10.5 0 0 1 0 21.1" fill="#06d6a0E2"/><path d="M8.7-323.3a10.5 10.5 0 1 1 0-21.1 10.5 10.5 0 0 1 0 21.1" fill="#ef476fE3"/><path d="M-80.4-86.9a10.6 10.6 0 1 1 0-21.1 10.6 10.6 0 0 1 0 21.1" fill="#ffd166E3"/><path d="M207.9 6.3a10.6 10.6 0 1 1 0-21.1 10.6 10.6 0 0 1 0 21.1" fill="#06d6a0E4"/><path d="M-68.3-235.4a10.6 10.6 0 1 1 0-21.3 10.6 10.6 0 0 1 0 21.3" fill="#06d6a0E5"/><path d="M54.9 30.1a10.7 10.7 0 1 1 0-21.3 10.7 10.7 0 0 1 0 21.3" fill="#ef476fE5"/><path d="M203.6 2.2a10.7 10.7 0 1 1 0-21.3 10.7 10.7 0 0 1 0 21.3" fill="#118ab2E6"/><path d="M-57.5-74.3a10.8 10.8 0 1 1 0-21.7 10.8 10.8 0 0 1 0 21.7" fill="#ef476fE9"/><path d="M259.6-79.6a10.8 10.8 0 1 1 0-21.7 10.8 10.8 0 0 1 0 21.7" fill="#073b4cE9"/><path d="M92.7-326.3a10.8 10.8 0 1 1 0-21.7 10.8 10.8 0 0 1 0 21.7" fill="#073b4cE9"/><path d="M230-36.5a10.9 10.9 0 1 1 0-21.7 10.9 10.9 0 0 1 0 21.7" fill="#ef476fEA"/><path d="M125.2 19.6a10.9 10.9 0 1 1 0-21.7 10.9 10.9 0 0 1 0 21.7" fill="#ef476fEA"/><path d="M265.7-180a10.9 10.9 0 1 1 0-21.9 10.9 10.9 0 0 1 0 21.9" fill="#118ab2EB"/><path d="M-35.4-247.5a11 11 0 1 1 0-21.9 11 11 0 0 1 0 21.9" fill="#ffd166EC"/><path d="M34.7-286.6a11.1 11.1 0 1 1 0-22.3 11.1 11.1 0 0 1 0 22.3" fill="#06d6a0F0"/><path d="M175.6-22.7a11.1 11.1 0 1 1 0-22.3 11.1 11.1 0 0 1 0 22.3" fill="#06d6a0F0"/><path d="M-37.2-190.5a11.2 11.2 0 1 1 0-22.5 11.2 11.2 0 0 1 0 22.5" fill="#ffd166F1"/><path d="M190.9-45.5a11.2 11.2 0 1 1 0-22.5 11.2 11.2 0 0 1 0 22.5" fill="#073b4cF2"/><path d="M223.6-173.3a11.4 11.4 0 1 1 0-22.7 11.4 11.4 0 0 1 0 22.7" fill="#ffd166F5"/><path d="M143.8-39.5a11.4 11.4 0 1 1 0-22.8 11.4 11.4 0 0 1 0 22.8" fill="#ef476fF6"/><path d="M203.7-208.4a11.4 11.4 0 1 1 0-22.9 11.4 11.4 0 0 1 0 22.9" fill="#118ab2F6"/><path d="M201.4-192.9a11.5 11.5 0 1 1 0-22.9 11.5 11.5 0 0 1 0 22.9" fill="#06d6a0F7"/><path d="M-3.2-167.1a11.5 11.5 0 1 1 0-23 11.5 11.5 0 0 1 0 23" fill="#ffd166F8"/><path d="M118.7-52.3a11.5 11.5 0 1 1 0-23 11.5 11.5 0 0 1 0 23" fill="#ffd166F8"/><path d="M144.9-68.7a11.6 11.6 0 1 1 0-23.2 11.6 11.6 0 0 1 0 23.2" fill="#118ab2F9"/><path d="M135.7-237.1a11.6 11.6 0 1 1 0-23.1 11.6 11.6 0 0 1 0 23.1" fill="#06d6a0F9"/><path d="M26.3-95.2a11.6 11.6 0 1 1 0-23.1 11.6 11.6 0 0 1 0 23.1" fill="#06d6a0F9"/><path d="M44.4-180.6a11.7 11.7 0 1 1 0-23.4 11.7 11.7 0 0 1 0 23.4" fill="#118ab2FC"/><path d="M132.8-180.8a11.8 11.8 0 1 1 0-23.5 11.8 11.8 0 0 1 0 23.5" fill="#ffd166FD"/><path d="M80.1-111.5a11.8 11.8 0 1 1 0-23.5 11.8 11.8 0 0 1 0 23.5" fill="#ffd166FD"/><path d="M137.4-135.1a11.8 11.8 0 1 1 0-23.5 11.8 11.8 0 0 1 0 23.5" fill="#118ab2FE"/><path d="M125.5-126.3a11.8 11.8 0 1 1 0-23.6 11.8 11.8 0 0 1 0 23.6" fill="#118ab2FE"/><path d="M78-135.9a11.8 11.8 0 1 1 0-23.6 11.8 11.8 0 0 1 0 23.6" fill="#ef476fFE"/><path d="M116.1-148.4a11.8 11.8 0 1 1 0-23.7 11.8 11.8 0 0 1 0 23.7" fill="#ef476fFE"/></g></svg>