<svg width="1200" height="675" viewBox="-500 -500 1200 675" xmlns="http://www.w3.org/2000/svg"><path d="M-500-500h1200v675h-1200z" fill="#000"/><style>.sparkles path{stroke-linecap:round; stroke-width:1}</style><g class="sparkles"><path d="M100-162.5l-5.4-42.1" stroke="#fff50032"/><path d="M100-162.5l-43.6-19.2" stroke="#005bbb33"/><path d="M100-162.5l57.7-37.5" stroke="#c2e1ff34"/><path d="M100-162.5l-24.6 73.6" stroke="#c2e1ff34"/><path d="M100-162.5l-19-92.3" stroke="#fff50036"/><path d="M100-162.5l-35.8-89.6" stroke="#fff50036"/><path d="M100-162.5l-17.2 95.9" stroke="#c2e1ff36"/><path d="M100-162.5l-1.4 98.7" stroke="#fff36"/><path d="M100-162.5l-99.3-20.8" stroke="#c2e1ff36"/><path d="M100-162.5l-99.9-32.3" stroke="#fff37"/><path d="M100-162.5l-63.6 83.5" stroke="#c2e1ff37"/><path d="M100-162.5l86.9-60.6" stroke="#005bbb37"/><path d="M100-162.5l106.9-42.9" stroke="#fff38"/><path d="M100-162.5l-104.5-51.7" stroke="#fff50038"/><path d="M100-162.5l-52.8-116.3" stroke="#fff39"/><path d="M100-162.5l12.2 131.6" stroke="#fff5003A"/><path d="M100-162.5l52.9 127.1" stroke="#005bbb3B"/><path d="M100-162.5l127.8-54.8" stroke="#fff5003B"/><path d="M100-162.5l-144.1 1.3" stroke="#fff3C"/><path d="M100-162.5l-12-145.3" stroke="#fff3C"/><path d="M100-162.5l78.8-125.5" stroke="#fff3D"/><path d="M100-162.5l148.5-13.3" stroke="#005bbb3D"/><path d="M100-162.5l-1.2 153" stroke="#fff3D"/><path d="M100-162.5l-20 152.5" stroke="#c2e1ff3E"/><path d="M100-162.5l130.3-84.2" stroke="#c2e1ff3E"/><path d="M100-162.5l-59.5-143.4" stroke="#fff5003E"/><path d="M100-162.5l78.6 142.2" stroke="#fff5003F"/><path d="M100-162.5l160.3-30.7" stroke="#c2e1ff3F"/><path d="M100-162.5l44.4 161.1" stroke="#fff40"/><path d="M100-162.5l148.7 82.9" stroke="#fff50041"/><path d="M100-162.5l166.8 36.6" stroke="#c2e1ff41"/><path d="M100-162.5l-170.1 32.8" stroke="#c2e1ff42"/><path d="M100-162.5l173.8-34.3" stroke="#fff50042"/><path d="M100-162.5l48.9 171.2" stroke="#c2e1ff43"/><path d="M100-162.5l107.9-141.8" stroke="#fff43"/><path d="M100-162.5l102.6-147.8" stroke="#005bbb43"/><path d="M100-162.5l-81.1 164.5" stroke="#fff50044"/><path d="M100-162.5l115.2 143.2" stroke="#fff50044"/><path d="M100-162.5l160.6 94.1" stroke="#c2e1ff45"/><path d="M100-162.5l-42.9-181.2" stroke="#fff50045"/><path d="M100-162.5l156.5-106.4" stroke="#005bbb46"/><path d="M100-162.5l129-138.8" stroke="#005bbb46"/><path d="M100-162.5l162-100.4" stroke="#005bbb46"/><path d="M100-162.5l-148.9-121.6" stroke="#fff46"/><path d="M100-162.5l179.4-73.4" stroke="#fff50047"/><path d="M100-162.5l192.3 26.1" stroke="#fff50047"/><path d="M100-162.5l184.4-60.4" stroke="#fff50047"/><path d="M100-162.5l-160.6 117.6" stroke="#fff50049"/><path d="M100-162.5l148.9-136.2" stroke="#005bbb49"/><path d="M100-162.5l-190.3 73.3" stroke="#fff4A"/><path d="M100-162.5l31.5-202.6" stroke="#fff5004B"/><path d="M100-162.5l-150.9-143.2" stroke="#fff4C"/><path d="M100-162.5l203.5-53.5" stroke="#c2e1ff4D"/><path d="M100-162.5l179.8-111.2" stroke="#c2e1ff4D"/><path d="M100-162.5l-120.6-174.2" stroke="#fff4D"/><path d="M100-162.5l-41.2 208.8" stroke="#c2e1ff4E"/><path d="M100-162.5l-176.9 125.6" stroke="#fff50050"/><path d="M100-162.5l49.6 211.2" stroke="#005bbb50"/><path d="M100-162.5l206.3 68.3" stroke="#fff50050"/><path d="M100-162.5l149.3 158.4" stroke="#fff50050"/><path d="M100-162.5l-131.4 177.2" stroke="#fff52"/><path d="M100-162.5l219.4-31.6" stroke="#005bbb52"/><path d="M100-162.5l129.6 181.1" stroke="#fff53"/><path d="M100-162.5l50.4 217.2" stroke="#fff50053"/><path d="M100-162.5l199.6-100.1" stroke="#005bbb53"/><path d="M100-162.5l-223.5-8.7" stroke="#c2e1ff53"/><path d="M100-162.5l-115.3-192.3" stroke="#fff50054"/><path d="M100-162.5l-73.4-212.3" stroke="#005bbb54"/><path d="M100-162.5l66.7-214.8" stroke="#fff54"/><path d="M100-162.5l-93.6-204.5" stroke="#fff50054"/><path d="M100-162.5l-61.7-216.7" stroke="#005bbb54"/><path d="M100-162.5l-216.3-67.7" stroke="#005bbb55"/><path d="M100-162.5l-30 225.3" stroke="#fff50056"/><path d="M100-162.5l63.6 218.3" stroke="#c2e1ff56"/><path d="M100-162.5l210.8 85.7" stroke="#c2e1ff56"/><path d="M100-162.5l195.9-120.2" stroke="#005bbb58"/><path d="M100-162.5l-71.9 218.6" stroke="#c2e1ff58"/><path d="M100-162.5l24.2 230.5" stroke="#005bbb5A"/><path d="M100-162.5l72.6 220.7" stroke="#fff5A"/><path d="M100-162.5l-87.6 215.8" stroke="#c2e1ff5B"/><path d="M100-162.5l-140.7-186.6" stroke="#c2e1ff5C"/><path d="M100-162.5l217.9 84.7" stroke="#005bbb5C"/><path d="M100-162.5l203.4-115.4" stroke="#c2e1ff5C"/><path d="M100-162.5l-184-144.9" stroke="#fff5005D"/><path d="M100-162.5l-201.2 120" stroke="#005bbb5D"/><path d="M100-162.5l141.9 187.5" stroke="#fff5005F"/><path d="M100-162.5l222.7-75.6" stroke="#005bbb5F"/><path d="M100-162.5l202.1-120.4" stroke="#005bbb5F"/><path d="M100-162.5l218.1 88.8" stroke="#005bbb5F"/><path d="M100-162.5l-145.3-185.8" stroke="#fff61"/><path d="M100-162.5l14.5 235.7" stroke="#c2e1ff62"/><path d="M100-162.5l23.2-235.1" stroke="#c2e1ff64"/><path d="M100-162.5l91.8-217.7" stroke="#fff64"/><path d="M100-162.5l236.1 0.2" stroke="#c2e1ff65"/><path d="M100-162.5l156.5 176.7" stroke="#fff50065"/><path d="M100-162.5l25.4-234.7" stroke="#fff65"/><path d="M100-162.5l233.3 34.9" stroke="#005bbb66"/><path d="M100-162.5l233 36" stroke="#fff67"/><path d="M100-162.5l-164.7-168.7" stroke="#fff67"/><path d="M100-162.5l-199.4 125.6" stroke="#fff67"/><path d="M100-162.5l-225.8 67" stroke="#c2e1ff67"/><path d="M100-162.5l-197.8-127.8" stroke="#005bbb67"/><path d="M100-162.5l-122.5 201.1" stroke="#005bbb67"/><path d="M100-162.5l-165.8-166.8" stroke="#fff68"/><path d="M100-162.5l-149.1 181.6" stroke="#c2e1ff69"/><path d="M100-162.5l-61.2 225.5" stroke="#005bbb6B"/><path d="M100-162.5l-97.5-212.2" stroke="#fff6B"/><path d="M100-162.5l-128.5-193.5" stroke="#fff6D"/><path d="M100-162.5l-172.5 154.6" stroke="#005bbb6D"/><path d="M100-162.5l58.5-224" stroke="#005bbb6D"/><path d="M100-162.5l-104.1-206.5" stroke="#005bbb6E"/><path d="M100-162.5l225.5 45.4" stroke="#fff5006F"/><path d="M100-162.5l-225.7 43.4" stroke="#c2e1ff6F"/><path d="M100-162.5l229.3 13.4" stroke="#005bbb6F"/><path d="M100-162.5l137.6 183.8" stroke="#005bbb6F"/><path d="M100-162.5l-50.1-224" stroke="#005bbb6F"/><path d="M100-162.5l-211.1-89.5" stroke="#005bbb70"/><path d="M100-162.5l228.8-2" stroke="#fff70"/><path d="M100-162.5l-219 65.7" stroke="#fff70"/><path d="M100-162.5l214-79" stroke="#fff50071"/><path d="M100-162.5l-64.6-218.3" stroke="#fff71"/><path d="M100-162.5l227.1 0" stroke="#fff71"/><path d="M100-162.5l220 54" stroke="#fff72"/><path d="M100-162.5l-225.2 18.7" stroke="#fff50072"/><path d="M100-162.5l169.7 147.4" stroke="#c2e1ff73"/><path d="M100-162.5l-44.3-219.9" stroke="#fff73"/><path d="M100-162.5l39.1 220.7" stroke="#fff73"/><path d="M100-162.5l-15.1-222.8" stroke="#c2e1ff74"/><path d="M100-162.5l3.5-223.2" stroke="#005bbb74"/><path d="M100-162.5l213.3 65.6" stroke="#fff50074"/><path d="M100-162.5l175.1 133.2" stroke="#fff50076"/><path d="M100-162.5l177.3 130.2" stroke="#c2e1ff76"/><path d="M100-162.5l136.7-172.3" stroke="#fff76"/><path d="M100-162.5l139.1-169.6" stroke="#fff50076"/><path d="M100-162.5l137.4 169.6" stroke="#c2e1ff77"/><path d="M100-162.5l195.7-95" stroke="#fff77"/><path d="M100-162.5l-158.9 145.9" stroke="#005bbb78"/><path d="M100-162.5l-210.4 44.1" stroke="#005bbb78"/><path d="M100-162.5l164.3 138.2" stroke="#fff78"/><path d="M100-162.5l-213.9 7.1" stroke="#005bbb79"/><path d="M100-162.5l121.4 174.7" stroke="#005bbb79"/><path d="M100-162.5l-68.2-201.1" stroke="#c2e1ff79"/><path d="M100-162.5l-0.6-208.6" stroke="#fff7B"/><path d="M100-162.5l43-203.8" stroke="#fff7B"/><path d="M100-162.5l52.3-201.6" stroke="#c2e1ff7B"/><path d="M100-162.5l-82.2 190.7" stroke="#c2e1ff7B"/><path d="M100-162.5l-59 198.8" stroke="#fff7B"/><path d="M100-162.5l78.7 191.7" stroke="#fff5007C"/><path d="M100-162.5l148.9-143.9" stroke="#005bbb7C"/><path d="M100-162.5l-33.4 202.5" stroke="#fff5007C"/><path d="M100-162.5l-203.9-21.7" stroke="#005bbb7C"/><path d="M100-162.5l-203.1-23.2" stroke="#fff5007D"/><path d="M100-162.5l-105.4-165.7" stroke="#005bbb7F"/><path d="M100-162.5l163.5-107.2" stroke="#fff80"/><path d="M100-162.5l192.7 21.7" stroke="#fff80"/><path d="M100-162.5l75.4-176.9" stroke="#005bbb81"/><path d="M100-162.5l-107.1 152.5" stroke="#fff82"/><path d="M100-162.5l-165.8 84.7" stroke="#fff82"/><path d="M100-162.5l-182.1-22.5" stroke="#fff50083"/><path d="M100-162.5l-183.4 3.5" stroke="#005bbb83"/><path d="M100-162.5l-165.3-79.3" stroke="#c2e1ff83"/><path d="M100-162.5l37.8-177.6" stroke="#c2e1ff83"/><path d="M100-162.5l38.5-171.4" stroke="#005bbb85"/><path d="M100-162.5l-164.7-40" stroke="#005bbb86"/><path d="M100-162.5l-166.6 15.7" stroke="#005bbb87"/><path d="M100-162.5l-8.2-162.3" stroke="#fff88"/><path d="M100-162.5l157.2 37.7" stroke="#c2e1ff88"/><path d="M100-162.5l137.8-55.4" stroke="#fff5008A"/><path d="M100-162.5l-128.7 59.3" stroke="#005bbb8C"/><path d="M100-162.5l-128.4-41" stroke="#c2e1ff8D"/><path d="M100-162.5l112.2 58.9" stroke="#fff8E"/><path d="M100-162.5l7.7-115" stroke="#005bbb8F"/><path d="M100-162.5l105.9-19.1" stroke="#fff90"/><path d="M100-162.5l-40.2-74.2" stroke="#fff92"/><path d="M100-162.5l-47.4 68.8" stroke="#c2e1ff92"/><path d="M100-162.5l-12.4-81.3" stroke="#fff92"/><path d="M100-162.5l58.7 35.7" stroke="#fff93"/><path d="M100-162.5l-47.6-48.9" stroke="#fff50093"/><path d="M100-162.5l67.6-8.5" stroke="#fff50093"/><path d="M100-162.5l52.5-36.5" stroke="#fff94"/><path d="M100-162.5l42.3-34.1" stroke="#fff94"/></g><g class="sparcs"><path d="M94.6-198.6a6 6 0 1 1 0-12 6 6 0 0 1 0 12" fill="#c2e1ff7E"/><path d="M56.4-175.8a6 6 0 1 1 0-11.9 6 6 0 0 1 0 11.9" fill="#fff5007E"/><path d="M157.7-193.9a6 6 0 1 1 0-12.1 6 6 0 0 1 0 12.1" fill="#c2e1ff7F"/><path d="M75.4-82.9a6.1 6.1 0 1 1 0-12.1 6.1 6.1 0 0 1 0 12.1" fill="#fff80"/><path d="M81-248.7a6.2 6.2 0 1 1 0-12.3 6.2 6.2 0 0 1 0 12.3" fill="#005bbb82"/><path d="M64.2-245.9a6.2 6.2 0 1 1 0-12.4 6.2 6.2 0 0 1 0 12.4" fill="#c2e1ff82"/><path d="M82.8-60.4a6.2 6.2 0 1 1 0-12.4 6.2 6.2 0 0 1 0 12.4" fill="#005bbb82"/><path d="M98.6-57.6a6.2 6.2 0 1 1 0-12.3 6.2 6.2 0 0 1 0 12.3" fill="#c2e1ff82"/><path d="M0.7-177.1a6.2 6.2 0 1 1 0-12.3 6.2 6.2 0 0 1 0 12.3" fill="#fff83"/><path d="M0.1-188.5a6.2 6.2 0 1 1 0-12.5 6.2 6.2 0 0 1 0 12.5" fill="#c2e1ff83"/><path d="M36.4-72.7a6.2 6.2 0 1 1 0-12.5 6.2 6.2 0 0 1 0 12.5" fill="#c2e1ff83"/><path d="M186.9-216.9a6.2 6.2 0 1 1 0-12.5 6.2 6.2 0 0 1 0 12.5" fill="#fff50083"/><path d="M206.9-199.1a6.3 6.3 0 1 1 0-12.6 6.3 6.3 0 0 1 0 12.6" fill="#fff50085"/><path d="M-4.5-207.9a6.3 6.3 0 1 1 0-12.6 6.3 6.3 0 0 1 0 12.6" fill="#c2e1ff85"/><path d="M47.2-272.5a6.4 6.4 0 1 1 0-12.7 6.4 6.4 0 0 1 0 12.7" fill="#fff50087"/><path d="M112.2-24.4a6.4 6.4 0 1 1 0-12.9 6.4 6.4 0 0 1 0 12.9" fill="#fff50088"/><path d="M152.9-28.9a6.5 6.5 0 1 1 0-13 6.5 6.5 0 0 1 0 13" fill="#005bbb89"/><path d="M227.8-210.8a6.5 6.5 0 1 1 0-13 6.5 6.5 0 0 1 0 13" fill="#fff89"/><path d="M-44.1-154.7a6.5 6.5 0 1 1 0-13.1 6.5 6.5 0 0 1 0 13.1" fill="#fff8A"/><path d="M88-301.3a6.5 6.5 0 1 1 0-13.1 6.5 6.5 0 0 1 0 13.1" fill="#fff8A"/><path d="M178.8-281.4a6.6 6.6 0 1 1 0-13.1 6.6 6.6 0 0 1 0 13.1" fill="#c2e1ff8B"/><path d="M248.5-169.2a6.6 6.6 0 1 1 0-13.1 6.6 6.6 0 0 1 0 13.1" fill="#fff5008B"/><path d="M98.8-2.9a6.6 6.6 0 1 1 0-13.2 6.6 6.6 0 0 1 0 13.2" fill="#c2e1ff8C"/><path d="M80-3.4a6.6 6.6 0 1 1 0-13.2 6.6 6.6 0 0 1 0 13.2" fill="#fff5008C"/><path d="M230.3-240.1a6.6 6.6 0 1 1 0-13.3 6.6 6.6 0 0 1 0 13.3" fill="#005bbb8C"/><path d="M40.5-299.3a6.6 6.6 0 1 1 0-13.3 6.6 6.6 0 0 1 0 13.3" fill="#fff8D"/><path d="M178.6-13.6a6.7 6.7 0 1 1 0-13.4 6.7 6.7 0 0 1 0 13.4" fill="#005bbb8E"/><path d="M260.3-186.5a6.7 6.7 0 1 1 0-13.5 6.7 6.7 0 0 1 0 13.5" fill="#fff5008E"/><path d="M144.4 5.4a6.8 6.8 0 1 1 0-13.6 6.8 6.8 0 0 1 0 13.6" fill="#005bbb90"/><path d="M248.7-72.8a6.8 6.8 0 1 1 0-13.6 6.8 6.8 0 0 1 0 13.6" fill="#fff50090"/><path d="M266.8-119a6.8 6.8 0 1 1 0-13.7 6.8 6.8 0 0 1 0 13.7" fill="#fff50091"/><path d="M-70.1-122.9a6.9 6.9 0 1 1 0-13.7 6.9 6.9 0 0 1 0 13.7" fill="#fff91"/><path d="M273.8-189.9a6.9 6.9 0 1 1 0-13.8 6.9 6.9 0 0 1 0 13.8" fill="#fff50093"/><path d="M148.9 15.6a6.9 6.9 0 1 1 0-13.8 6.9 6.9 0 0 1 0 13.8" fill="#fff50093"/><path d="M207.9-297.4a6.9 6.9 0 1 1 0-13.8 6.9 6.9 0 0 1 0 13.8" fill="#fff50093"/><path d="M202.6-303.4a6.9 6.9 0 1 1 0-13.9 6.9 6.9 0 0 1 0 13.9" fill="#005bbb93"/><path d="M18.9 9a7 7 0 1 1 0-14 7 7 0 0 1 0 14" fill="#c2e1ff95"/><path d="M215.2-12.3a7 7 0 1 1 0-14 7 7 0 0 1 0 14" fill="#fff95"/><path d="M260.6-61.3a7 7 0 1 1 0-14.1 7 7 0 0 1 0 14.1" fill="#fff95"/><path d="M57.1-336.7a7 7 0 1 1 0-14 7 7 0 0 1 0 14" fill="#fff50095"/><path d="M256.5-261.8a7.1 7.1 0 1 1 0-14.2 7.1 7.1 0 0 1 0 14.2" fill="#005bbb97"/><path d="M229-294.2a7.1 7.1 0 1 1 0-14.2 7.1 7.1 0 0 1 0 14.2" fill="#005bbb97"/><path d="M262-255.8a7.1 7.1 0 1 1 0-14.2 7.1 7.1 0 0 1 0 14.2" fill="#c2e1ff97"/><path d="M-48.9-277a7.1 7.1 0 1 1 0-14.2 7.1 7.1 0 0 1 0 14.2" fill="#005bbb98"/><path d="M279.4-228.8a7.2 7.2 0 1 1 0-14.3 7.2 7.2 0 0 1 0 14.3" fill="#c2e1ff98"/><path d="M292.3-129.3a7.2 7.2 0 1 1 0-14.3 7.2 7.2 0 0 1 0 14.3" fill="#005bbb98"/><path d="M284.4-215.7a7.2 7.2 0 1 1 0-14.4 7.2 7.2 0 0 1 0 14.4" fill="#fff98"/><path d="M-60.6-37.6a7.3 7.3 0 1 1 0-14.6 7.3 7.3 0 0 1 0 14.6" fill="#fff5009B"/><path d="M248.9-291.4a7.3 7.3 0 1 1 0-14.7 7.3 7.3 0 0 1 0 14.7" fill="#005bbb9C"/><path d="M-90.3-81.8a7.4 7.4 0 1 1 0-14.7 7.4 7.4 0 0 1 0 14.7" fill="#c2e1ff9D"/><path d="M131.5-357.7a7.4 7.4 0 1 1 0-14.8 7.4 7.4 0 0 1 0 14.8" fill="#fff9D"/><path d="M-50.9-298.3a7.5 7.5 0 1 1 0-14.9 7.5 7.5 0 0 1 0 14.9" fill="#005bbb9F"/><path d="M303.5-208.5a7.5 7.5 0 1 1 0-15 7.5 7.5 0 0 1 0 15" fill="#fffA0"/><path d="M279.8-266.1a7.5 7.5 0 1 1 0-15.1 7.5 7.5 0 0 1 0 15.1" fill="#fff500A0"/><path d="M-20.6-329.2a7.6 7.6 0 1 1 0-15.1 7.6 7.6 0 0 1 0 15.1" fill="#c2e1ffA1"/><path d="M58.8 53.9a7.6 7.6 0 1 1 0-15.2 7.6 7.6 0 0 1 0 15.2" fill="#fff500A1"/><path d="M-76.9-29.3a7.7 7.7 0 1 1 0-15.3 7.7 7.7 0 0 1 0 15.3" fill="#005bbbA4"/><path d="M149.6 56.4a7.7 7.7 0 1 1 0-15.4 7.7 7.7 0 0 1 0 15.4" fill="#005bbbA4"/><path d="M306.3-86.5a7.7 7.7 0 1 1 0-15.4 7.7 7.7 0 0 1 0 15.4" fill="#005bbbA4"/><path d="M249.3 3.6a7.7 7.7 0 1 1 0-15.4 7.7 7.7 0 0 1 0 15.4" fill="#005bbbA4"/><path d="M-31.4 22.5a7.8 7.8 0 1 1 0-15.6 7.8 7.8 0 0 1 0 15.6" fill="#fffA6"/><path d="M319.4-186.3a7.8 7.8 0 1 1 0-15.7 7.8 7.8 0 0 1 0 15.7" fill="#c2e1ffA7"/><path d="M229.6 26.5a7.9 7.9 0 1 1 0-15.7 7.9 7.9 0 0 1 0 15.7" fill="#fff500A8"/><path d="M150.4 62.6a7.9 7.9 0 1 1 0-15.8 7.9 7.9 0 0 1 0 15.8" fill="#fffA8"/><path d="M299.6-254.7a7.9 7.9 0 1 1 0-15.8 7.9 7.9 0 0 1 0 15.8" fill="#fffA8"/><path d="M-123.5-163.3a7.9 7.9 0 1 1 0-15.8 7.9 7.9 0 0 1 0 15.8" fill="#fff500A9"/><path d="M-15.3-346.8a7.9 7.9 0 1 1 0-15.9 7.9 7.9 0 0 1 0 15.9" fill="#c2e1ffA9"/><path d="M26.6-366.8a7.9 7.9 0 1 1 0-15.9 7.9 7.9 0 0 1 0 15.9" fill="#fffA9"/><path d="M166.7-369.3a8 8 0 1 1 0-15.9 8 8 0 0 1 0 15.9" fill="#fff500AA"/><path d="M6.4-359.1a8 8 0 1 1 0-15.9 8 8 0 0 1 0 15.9" fill="#005bbbAA"/><path d="M38.3-371.2a8 8 0 1 1 0-16 8 8 0 0 1 0 16" fill="#fffAA"/><path d="M-116.3-222.1a8 8 0 1 1 0-16.1 8 8 0 0 1 0 16.1" fill="#fff500AB"/><path d="M70 70.8a8.1 8.1 0 1 1 0-16.1 8.1 8.1 0 0 1 0 16.1" fill="#fff500AC"/><path d="M163.6 63.9a8.1 8.1 0 1 1 0-16.1 8.1 8.1 0 0 1 0 16.1" fill="#fff500AC"/><path d="M310.8-68.7a8.1 8.1 0 1 1 0-16.2 8.1 8.1 0 0 1 0 16.2" fill="#fffAC"/><path d="M295.9-274.6a8.2 8.2 0 1 1 0-16.3 8.2 8.2 0 0 1 0 16.3" fill="#fff500AE"/><path d="M28.1 64.3a8.2 8.2 0 1 1 0-16.4 8.2 8.2 0 0 1 0 16.4" fill="#005bbbAF"/><path d="M124.2 76.3a8.3 8.3 0 1 1 0-16.6 8.3 8.3 0 0 1 0 16.6" fill="#c2e1ffB1"/><path d="M172.6 66.6a8.3 8.3 0 1 1 0-16.7 8.3 8.3 0 0 1 0 16.7" fill="#fffB2"/><path d="M12.4 61.6a8.4 8.4 0 1 1 0-16.7 8.4 8.4 0 0 1 0 16.7" fill="#c2e1ffB3"/><path d="M-40.7-340.6a8.4 8.4 0 1 1 0-16.9 8.4 8.4 0 0 1 0 16.9" fill="#c2e1ffB4"/><path d="M317.9-69.4a8.4 8.4 0 1 1 0-16.9 8.4 8.4 0 0 1 0 16.9" fill="#fff500B4"/><path d="M303.4-269.5a8.4 8.4 0 1 1 0-16.9 8.4 8.4 0 0 1 0 16.9" fill="#005bbbB4"/><path d="M-84-298.9a8.5 8.5 0 1 1 0-16.9 8.5 8.5 0 0 1 0 16.9" fill="#005bbbB5"/><path d="M-101.2-34a8.5 8.5 0 1 1 0-17 8.5 8.5 0 0 1 0 17" fill="#005bbbB5"/><path d="M241.9 33.6a8.6 8.6 0 1 1 0-17.1 8.6 8.6 0 0 1 0 17.1" fill="#005bbbB7"/><path d="M322.7-229.5a8.6 8.6 0 1 1 0-17.2 8.6 8.6 0 0 1 0 17.2" fill="#c2e1ffB7"/><path d="M302.1-274.3a8.6 8.6 0 1 1 0-17.1 8.6 8.6 0 0 1 0 17.1" fill="#005bbbB7"/><path d="M318.1-65.1a8.6 8.6 0 1 1 0-17.2 8.6 8.6 0 0 1 0 17.2" fill="#fff500B8"/><path d="M-45.3-339.6a8.7 8.7 0 1 1 0-17.4 8.7 8.7 0 0 1 0 17.4" fill="#c2e1ffBA"/><path d="M114.5 82a8.8 8.8 0 1 1 0-17.5 8.8 8.8 0 0 1 0 17.5" fill="#005bbbBC"/><path d="M123.2-388.7a8.9 8.9 0 1 1 0-17.8 8.9 8.9 0 0 1 0 17.8" fill="#fffBE"/><path d="M191.8-371.2a8.9 8.9 0 1 1 0-17.9 8.9 8.9 0 0 1 0 17.9" fill="#fffBF"/><path d="M336.1-153.4a9 9 0 1 1 0-17.9 9 9 0 0 1 0 17.9" fill="#c2e1ffC0"/><path d="M256.5 23.2a9 9 0 1 1 0-18 9 9 0 0 1 0 18" fill="#c2e1ffC0"/><path d="M125.4-388.2a9 9 0 1 1 0-18 9 9 0 0 1 0 18" fill="#005bbbC0"/><path d="M333.3-118.6a9 9 0 1 1 0-18.1 9 9 0 0 1 0 18.1" fill="#c2e1ffC1"/><path d="M333-117.4a9.1 9.1 0 1 1 0-18.1 9.1 9.1 0 0 1 0 18.1" fill="#fffC2"/><path d="M-64.7-322.1a9.1 9.1 0 1 1 0-18.1 9.1 9.1 0 0 1 0 18.1" fill="#fff500C2"/><path d="M-99.4-27.8a9.1 9.1 0 1 1 0-18.2 9.1 9.1 0 0 1 0 18.2" fill="#005bbbC2"/><path d="M-125.8-86.4a9.1 9.1 0 1 1 0-18.2 9.1 9.1 0 0 1 0 18.2" fill="#fffC2"/><path d="M-97.8-281.3a9.1 9.1 0 1 1 0-18.1 9.1 9.1 0 0 1 0 18.1" fill="#c2e1ffC3"/><path d="M-22.5 47.7a9.1 9.1 0 1 1 0-18.1 9.1 9.1 0 0 1 0 18.1" fill="#c2e1ffC3"/><path d="M-65.8-320.2a9.1 9.1 0 1 1 0-18.3 9.1 9.1 0 0 1 0 18.3" fill="#005bbbC4"/><path d="M-49.1 28.2a9.2 9.2 0 1 1 0-18.3 9.2 9.2 0 0 1 0 18.3" fill="#fff500C4"/><path d="M38.8 72.3a9.3 9.3 0 1 1 0-18.6 9.3 9.3 0 0 1 0 18.6" fill="#005bbbC7"/><path d="M2.5-365.3a9.3 9.3 0 1 1 0-18.7 9.3 9.3 0 0 1 0 18.7" fill="#c2e1ffC7"/><path d="M-28.5-346.6a9.4 9.4 0 1 1 0-18.8 9.4 9.4 0 0 1 0 18.8" fill="#005bbbC9"/><path d="M-72.5 1.5a9.4 9.4 0 1 1 0-18.9 9.4 9.4 0 0 1 0 18.9" fill="#c2e1ffCA"/><path d="M158.5-377.1a9.4 9.4 0 1 1 0-18.9 9.4 9.4 0 0 1 0 18.9" fill="#c2e1ffCA"/><path d="M-4.1-359.5a9.5 9.5 0 1 1 0-18.9 9.5 9.5 0 0 1 0 18.9" fill="#005bbbCB"/><path d="M325.5-107.6a9.5 9.5 0 1 1 0-19 9.5 9.5 0 0 1 0 19" fill="#fff500CC"/><path d="M-125.7-109.6a9.5 9.5 0 1 1 0-19.1 9.5 9.5 0 0 1 0 19.1" fill="#005bbbCD"/><path d="M329.3-139.5a9.6 9.6 0 1 1 0-19.1 9.6 9.6 0 0 1 0 19.1" fill="#c2e1ffCD"/><path d="M237.6 30.8a9.6 9.6 0 1 1 0-19.1 9.6 9.6 0 0 1 0 19.1" fill="#fff500CD"/><path d="M49.9-376.9a9.6 9.6 0 1 1 0-19.2 9.6 9.6 0 0 1 0 19.2" fill="#fff500CD"/><path d="M-111.1-242.4a9.6 9.6 0 1 1 0-19.1 9.6 9.6 0 0 1 0 19.1" fill="#fff500CD"/><path d="M328.8-154.9a9.6 9.6 0 1 1 0-19.2 9.6 9.6 0 0 1 0 19.2" fill="#fffCE"/><path d="M-119-87.2a9.6 9.6 0 1 1 0-19.2 9.6 9.6 0 0 1 0 19.2" fill="#fff500CE"/><path d="M314-231.9a9.6 9.6 0 1 1 0-19.3 9.6 9.6 0 0 1 0 19.3" fill="#005bbbCE"/><path d="M35.4-371.2a9.6 9.6 0 1 1 0-19.3 9.6 9.6 0 0 1 0 19.3" fill="#c2e1ffCF"/><path d="M327.1-152.8a9.7 9.7 0 1 1 0-19.4 9.7 9.7 0 0 1 0 19.4" fill="#fff500CF"/><path d="M320-98.8a9.7 9.7 0 1 1 0-19.4 9.7 9.7 0 0 1 0 19.4" fill="#fffD0"/><path d="M-125.2-134.1a9.7 9.7 0 1 1 0-19.4 9.7 9.7 0 0 1 0 19.4" fill="#fff500D0"/><path d="M269.7-5.3a9.8 9.8 0 1 1 0-19.6 9.8 9.8 0 0 1 0 19.6" fill="#fffD2"/><path d="M55.7-372.6a9.8 9.8 0 1 1 0-19.6 9.8 9.8 0 0 1 0 19.6" fill="#fff500D2"/><path d="M139.1 68a9.8 9.8 0 1 1 0-19.6 9.8 9.8 0 0 1 0 19.6" fill="#fff500D2"/><path d="M84.9-375.4a9.8 9.8 0 1 1 0-19.7 9.8 9.8 0 0 1 0 19.7" fill="#005bbbD3"/><path d="M103.5-375.9a9.8 9.8 0 1 1 0-19.6 9.8 9.8 0 0 1 0 19.6" fill="#005bbbD3"/><path d="M313.3-87.1a9.8 9.8 0 1 1 0-19.6 9.8 9.8 0 0 1 0 19.6" fill="#c2e1ffD3"/><path d="M275.1-19.4a9.9 9.9 0 1 1 0-19.9 9.9 9.9 0 0 1 0 19.9" fill="#005bbbD5"/><path d="M277.3-22.3a9.9 9.9 0 1 1 0-19.9 9.9 9.9 0 0 1 0 19.9" fill="#c2e1ffD5"/><path d="M236.7-324.8a9.9 9.9 0 1 1 0-19.9 9.9 9.9 0 0 1 0 19.9" fill="#c2e1ffD5"/><path d="M239.1-322.2a10 10 0 1 1 0-19.9 10 10 0 0 1 0 19.9" fill="#fff500D6"/><path d="M237.4 17.1a10 10 0 1 1 0-20 10 10 0 0 1 0 20" fill="#fffD6"/><path d="M295.7-247.4a10 10 0 1 1 0-20.1 10 10 0 0 1 0 20.1" fill="#fff500D7"/><path d="M-58.9-6.5a10.1 10.1 0 1 1 0-20.1 10.1 10.1 0 0 1 0 20.1" fill="#fff500D8"/><path d="M-110.4-108.3a10.1 10.1 0 1 1 0-20.2 10.1 10.1 0 0 1 0 20.2" fill="#fff500D8"/><path d="M264.3-14.2a10.1 10.1 0 1 1 0-20.2 10.1 10.1 0 0 1 0 20.2" fill="#fff500D9"/><path d="M-113.9-145.3a10.1 10.1 0 1 1 0-20.2 10.1 10.1 0 0 1 0 20.2" fill="#fffD9"/><path d="M221.4 22.3a10.1 10.1 0 1 1 0-20.3 10.1 10.1 0 0 1 0 20.3" fill="#fffDA"/><path d="M31.8-353.4a10.2 10.2 0 1 1 0-20.3 10.2 10.2 0 0 1 0 20.3" fill="#c2e1ffDA"/><path d="M99.4-360.8a10.2 10.2 0 1 1 0-20.5 10.2 10.2 0 0 1 0 20.5" fill="#c2e1ffDC"/><path d="M143-356.1a10.3 10.3 0 1 1 0-20.5 10.3 10.3 0 0 1 0 20.5" fill="#fffDC"/><path d="M152.3-353.8a10.3 10.3 0 1 1 0-20.5 10.3 10.3 0 0 1 0 20.5" fill="#005bbbDC"/><path d="M17.8 38.5a10.3 10.3 0 1 1 0-20.6 10.3 10.3 0 0 1 0 20.6" fill="#fffDD"/><path d="M41 46.6a10.3 10.3 0 1 1 0-20.6 10.3 10.3 0 0 1 0 20.6" fill="#fffDD"/><path d="M178.7 39.4a10.3 10.3 0 1 1 0-20.5 10.3 10.3 0 0 1 0 20.5" fill="#fff500DD"/><path d="M248.9-296.1a10.3 10.3 0 1 1 0-20.6 10.3 10.3 0 0 1 0 20.6" fill="#005bbbDD"/><path d="M66.6 50.3a10.3 10.3 0 1 1 0-20.6 10.3 10.3 0 0 1 0 20.6" fill="#c2e1ffDE"/><path d="M-103.9-173.9a10.3 10.3 0 1 1 0-20.7 10.3 10.3 0 0 1 0 20.7" fill="#005bbbDE"/><path d="M-103.1-175.4a10.3 10.3 0 1 1 0-20.6 10.3 10.3 0 0 1 0 20.6" fill="#c2e1ffDE"/><path d="M-5.4-317.7a10.5 10.5 0 1 1 0-21 10.5 10.5 0 0 1 0 21" fill="#005bbbE2"/><path d="M263.5-259.2a10.5 10.5 0 1 1 0-21 10.5 10.5 0 0 1 0 21" fill="#fff500E2"/><path d="M292.7-130.2a10.5 10.5 0 1 1 0-21.1 10.5 10.5 0 0 1 0 21.1" fill="#fffE3"/><path d="M175.4-328.9a10.6 10.6 0 1 1 0-21.1 10.6 10.6 0 0 1 0 21.1" fill="#c2e1ffE3"/><path d="M-7.1 0.7a10.7 10.7 0 1 1 0-21.4 10.7 10.7 0 0 1 0 21.4" fill="#005bbbE5"/><path d="M-65.8-67.1a10.7 10.7 0 1 1 0-21.4 10.7 10.7 0 0 1 0 21.4" fill="#005bbbE6"/><path d="M-82.1-174.3a10.7 10.7 0 1 1 0-21.5 10.7 10.7 0 0 1 0 21.5" fill="#c2e1ffE6"/><path d="M-83.4-148.2a10.7 10.7 0 1 1 0-21.5 10.7 10.7 0 0 1 0 21.5" fill="#fff500E6"/><path d="M-65.3-231.1a10.7 10.7 0 1 1 0-21.4 10.7 10.7 0 0 1 0 21.4" fill="#c2e1ffE7"/><path d="M137.8-329.4a10.7 10.7 0 1 1 0-21.5 10.7 10.7 0 0 1 0 21.5" fill="#fff500E7"/><path d="M138.5-323.1a10.8 10.8 0 1 1 0-21.7 10.8 10.8 0 0 1 0 21.7" fill="#fffE9"/><path d="M-64.7-191.5a10.9 10.9 0 1 1 0-21.9 10.9 10.9 0 0 1 0 21.9" fill="#fff500EB"/><path d="M-66.6-135.8a10.9 10.9 0 1 1 0-21.9 10.9 10.9 0 0 1 0 21.9" fill="#fff500EB"/><path d="M91.8-313.8a11 11 0 1 1 0-22 11 11 0 0 1 0 22" fill="#fff500ED"/><path d="M257.2-113.8a11 11 0 1 1 0-22.1 11 11 0 0 1 0 22.1" fill="#c2e1ffED"/><path d="M237.8-206.7a11.2 11.2 0 1 1 0-22.3 11.2 11.2 0 0 1 0 22.3" fill="#fffF0"/><path d="M-28.7-92a11.2 11.2 0 1 1 0-22.4 11.2 11.2 0 0 1 0 22.4" fill="#fff500F2"/><path d="M-28.4-192.2a11.3 11.3 0 1 1 0-22.6 11.3 11.3 0 0 1 0 22.6" fill="#005bbbF3"/><path d="M212.2-92.2a11.4 11.4 0 1 1 0-22.7 11.4 11.4 0 0 1 0 22.7" fill="#005bbbF4"/><path d="M107.7-266.1a11.4 11.4 0 1 1 0-22.9 11.4 11.4 0 0 1 0 22.9" fill="#005bbbF6"/><path d="M205.9-170.1a11.5 11.5 0 1 1 0-23 11.5 11.5 0 0 1 0 23" fill="#fff500F7"/><path d="M59.8-225.1a11.6 11.6 0 1 1 0-23.2 11.6 11.6 0 0 1 0 23.2" fill="#fffFA"/><path d="M52.6-82.1a11.6 11.6 0 1 1 0-23.2 11.6 11.6 0 0 1 0 23.2" fill="#c2e1ffFA"/><path d="M87.6-232.2a11.6 11.6 0 1 1 0-23.2 11.6 11.6 0 0 1 0 23.2" fill="#fff500FA"/><path d="M158.7-115.1a11.7 11.7 0 1 1 0-23.4 11.7 11.7 0 0 1 0 23.4" fill="#fffFC"/><path d="M52.4-199.7a11.7 11.7 0 1 1 0-23.4 11.7 11.7 0 0 1 0 23.4" fill="#005bbbFC"/><path d="M167.6-159.3a11.7 11.7 0 1 1 0-23.4 11.7 11.7 0 0 1 0 23.4" fill="#fffFC"/><path d="M152.5-187.3a11.7 11.7 0 1 1 0-23.4 11.7 11.7 0 0 1 0 23.4" fill="#fffFC"/><path d="M142.3-184.9a11.7 11.7 0 1 1 0-23.5 11.7 11.7 0 0 1 0 23.5" fill="#fff500FD"/></g></svg>