<svg width="1200" height="675" viewBox="-500 -500 1200 675" xmlns="http://www.w3.org/2000/svg"><path d="M-500-500h1200v675h-1200z" fill="#000"/><style>.sparkles path{stroke-linecap:round; stroke-width:1}</style><g class="sparkles"><path d="M100-162.5l5.9 13.6" stroke="#c2e1ff32"/><path d="M100-162.5l-27.2 39.7" stroke="#c2e1ff33"/><path d="M100-162.5l62.4 41.5" stroke="#fff34"/><path d="M100-162.5l-61.7 50.1" stroke="#005bbb34"/><path d="M100-162.5l55.2 61.5" stroke="#c2e1ff35"/><path d="M100-162.5l32.4-78.6" stroke="#fff50035"/><path d="M100-162.5l40.8 74.8" stroke="#fff50035"/><path d="M100-162.5l-105.4-20.6" stroke="#c2e1ff37"/><path d="M100-162.5l-22.5 107.3" stroke="#fff37"/><path d="M100-162.5l-47.3-102.1" stroke="#005bbb38"/><path d="M100-162.5l53.1 102.3" stroke="#fff50038"/><path d="M100-162.5l-96.4-66.7" stroke="#fff38"/><path d="M100-162.5l-100.9 73.3" stroke="#fff50039"/><path d="M100-162.5l103 89.6" stroke="#fff3B"/><path d="M100-162.5l-84.8 108" stroke="#fff5003B"/><path d="M100-162.5l-130.6 46.5" stroke="#fff5003B"/><path d="M100-162.5l50.2-132.9" stroke="#c2e1ff3C"/><path d="M100-162.5l57.2 133.3" stroke="#fff3C"/><path d="M100-162.5l117.6 85.4" stroke="#fff3C"/><path d="M100-162.5l-33-149.3" stroke="#005bbb3D"/><path d="M100-162.5l-106-112.7" stroke="#fff3E"/><path d="M100-162.5l-119.9 99.6" stroke="#005bbb3E"/><path d="M100-162.5l11.9 158.5" stroke="#005bbb3F"/><path d="M100-162.5l-85.9 138.1" stroke="#fff5003F"/><path d="M100-162.5l149-76.8" stroke="#fff50040"/><path d="M100-162.5l150.4-83.9" stroke="#fff41"/><path d="M100-162.5l169.7 46.6" stroke="#fff42"/><path d="M100-162.5l107.2 140.3" stroke="#c2e1ff42"/><path d="M100-162.5l-166.2 63" stroke="#c2e1ff43"/><path d="M100-162.5l89.9-159" stroke="#fff50044"/><path d="M100-162.5l-166.9-75" stroke="#005bbb44"/><path d="M100-162.5l-96.6 155.8" stroke="#fff50044"/><path d="M100-162.5l-41.2-179.1" stroke="#005bbb44"/><path d="M100-162.5l-37.9-180.1" stroke="#005bbb44"/><path d="M100-162.5l125.8-143.6" stroke="#c2e1ff46"/><path d="M100-162.5l103.1 161" stroke="#005bbb46"/><path d="M100-162.5l71.7-186.8" stroke="#c2e1ff49"/><path d="M100-162.5l-51-196.3" stroke="#fff4A"/><path d="M100-162.5l-153.1 134.4" stroke="#c2e1ff4A"/><path d="M100-162.5l118.5-170.9" stroke="#fff5004C"/><path d="M100-162.5l-143.1-151.2" stroke="#005bbb4C"/><path d="M100-162.5l-173.1-117.7" stroke="#fff4C"/><path d="M100-162.5l-128.1 167.6" stroke="#c2e1ff4D"/><path d="M100-162.5l185.3-102.5" stroke="#c2e1ff4D"/><path d="M100-162.5l103.6-186.2" stroke="#c2e1ff4E"/><path d="M100-162.5l201.2 82.5" stroke="#005bbb50"/><path d="M100-162.5l-182.3 120.5" stroke="#fff51"/><path d="M100-162.5l161.1 153.6" stroke="#fff53"/><path d="M100-162.5l88.5 204.6" stroke="#fff53"/><path d="M100-162.5l-206.2-86.7" stroke="#005bbb53"/><path d="M100-162.5l-208.7 84.4" stroke="#005bbb54"/><path d="M100-162.5l204-96.9" stroke="#c2e1ff55"/><path d="M100-162.5l-110.4 198.8" stroke="#005bbb56"/><path d="M100-162.5l21.4 228.2" stroke="#fff57"/><path d="M100-162.5l218.1-70.8" stroke="#fff50057"/><path d="M100-162.5l36.5 227.2" stroke="#fff50058"/><path d="M100-162.5l-200.8 113.4" stroke="#c2e1ff59"/><path d="M100-162.5l-226.9 45" stroke="#fff50059"/><path d="M100-162.5l106.3-205.5" stroke="#005bbb59"/><path d="M100-162.5l184.3 141.2" stroke="#c2e1ff5A"/><path d="M100-162.5l-203-112.7" stroke="#c2e1ff5A"/><path d="M100-162.5l177.1-151.7" stroke="#c2e1ff5B"/><path d="M100-162.5l-21.8-233.3" stroke="#005bbb5D"/><path d="M100-162.5l-233.9 21.2" stroke="#fff5005E"/><path d="M100-162.5l95.7-214.7" stroke="#fff5005E"/><path d="M100-162.5l-171 161.5" stroke="#c2e1ff5F"/><path d="M100-162.5l-12.2 235.2" stroke="#c2e1ff60"/><path d="M100-162.5l-80.7-221.3" stroke="#fff50060"/><path d="M100-162.5l235.3-17.1" stroke="#fff61"/><path d="M100-162.5l-45.1 231.5" stroke="#005bbb61"/><path d="M100-162.5l34.9-233.4" stroke="#005bbb61"/><path d="M100-162.5l-88.5-218.8" stroke="#fff61"/><path d="M100-162.5l100.1-213.8" stroke="#fff62"/><path d="M100-162.5l120-203.3" stroke="#c2e1ff62"/><path d="M100-162.5l101.4-213.3" stroke="#c2e1ff65"/><path d="M100-162.5l236.2 0" stroke="#005bbb65"/><path d="M100-162.5l-49.9-230.8" stroke="#005bbb65"/><path d="M100-162.5l150.5-182" stroke="#c2e1ff65"/><path d="M100-162.5l-66.5-226.5" stroke="#fff50066"/><path d="M100-162.5l234.1 28.9" stroke="#fff66"/><path d="M100-162.5l-214.1-98.8" stroke="#fff50067"/><path d="M100-162.5l-22.8 234.6" stroke="#c2e1ff67"/><path d="M100-162.5l-73.3 223.8" stroke="#fff67"/><path d="M100-162.5l235.2 4.4" stroke="#005bbb68"/><path d="M100-162.5l230.3-47.7" stroke="#c2e1ff68"/><path d="M100-162.5l133.6-192.3" stroke="#c2e1ff6A"/><path d="M100-162.5l-169.1 161.6" stroke="#c2e1ff6B"/><path d="M100-162.5l226.4 57.7" stroke="#005bbb6B"/><path d="M100-162.5l215.5 89.5" stroke="#fff6B"/><path d="M100-162.5l-232 13.9" stroke="#005bbb6C"/><path d="M100-162.5l141.4-183.7" stroke="#fff5006D"/><path d="M100-162.5l-13.9-230.9" stroke="#005bbb6E"/><path d="M100-162.5l119.8-197.1" stroke="#fff5006E"/><path d="M100-162.5l-23.9 229.1" stroke="#fff5006F"/><path d="M100-162.5l107.9-203.5" stroke="#005bbb6F"/><path d="M100-162.5l-3.2 229.7" stroke="#fff5006F"/><path d="M100-162.5l-80.4-215" stroke="#fff5006F"/><path d="M100-162.5l-228.6-1.4" stroke="#fff70"/><path d="M100-162.5l51.5 222.4" stroke="#005bbb70"/><path d="M100-162.5l-115.1-196.2" stroke="#005bbb71"/><path d="M100-162.5l-0.8-227.3" stroke="#fff71"/><path d="M100-162.5l-225.8 23.9" stroke="#c2e1ff71"/><path d="M100-162.5l-8.5-225.3" stroke="#c2e1ff72"/><path d="M100-162.5l-224.1 19.6" stroke="#fff50073"/><path d="M100-162.5l-164.2 152.5" stroke="#fff73"/><path d="M100-162.5l-83.2-207.8" stroke="#005bbb74"/><path d="M100-162.5l64.8 213.3" stroke="#005bbb74"/><path d="M100-162.5l220.9 12.3" stroke="#005bbb75"/><path d="M100-162.5l-187.2 113.9" stroke="#fff76"/><path d="M100-162.5l-152.1-156.1" stroke="#005bbb77"/><path d="M100-162.5l-50.4 211.7" stroke="#fff50077"/><path d="M100-162.5l-216.1 0.9" stroke="#c2e1ff78"/><path d="M100-162.5l-25 214.6" stroke="#fff78"/><path d="M100-162.5l-57.6-207.6" stroke="#005bbb78"/><path d="M100-162.5l-98.5-190.4" stroke="#fff79"/><path d="M100-162.5l201.1 69.9" stroke="#c2e1ff79"/><path d="M100-162.5l140.5 160" stroke="#005bbb79"/><path d="M100-162.5l-174.6 121.3" stroke="#fff79"/><path d="M100-162.5l-48.2 206.1" stroke="#005bbb7A"/><path d="M100-162.5l-29.9-207.1" stroke="#c2e1ff7B"/><path d="M100-162.5l199.3-63.1" stroke="#005bbb7B"/><path d="M100-162.5l-55.9 199.8" stroke="#005bbb7B"/><path d="M100-162.5l106.3-176.6" stroke="#c2e1ff7C"/><path d="M100-162.5l-185.8-88.1" stroke="#fff5007C"/><path d="M100-162.5l-185.2-87.5" stroke="#c2e1ff7C"/><path d="M100-162.5l-32.2 201.4" stroke="#fff7D"/><path d="M100-162.5l-148.8 137.8" stroke="#c2e1ff7D"/><path d="M100-162.5l-23.5 200.7" stroke="#fff7D"/><path d="M100-162.5l-200.8-9.6" stroke="#005bbb7E"/><path d="M100-162.5l77.4 183.7" stroke="#005bbb7E"/><path d="M100-162.5l-31.3 195.4" stroke="#005bbb7F"/><path d="M100-162.5l-174.1-93.6" stroke="#fff5007F"/><path d="M100-162.5l-50.6 190.7" stroke="#c2e1ff7F"/><path d="M100-162.5l174.6-87.1" stroke="#fff50080"/><path d="M100-162.5l-117.1 154.2" stroke="#fff50080"/><path d="M100-162.5l91.4 167.1" stroke="#fff50081"/><path d="M100-162.5l-159.9-97.6" stroke="#fff50082"/><path d="M100-162.5l103.1 155.9" stroke="#005bbb82"/><path d="M100-162.5l87.2 164.6" stroke="#c2e1ff82"/><path d="M100-162.5l182.6 12.9" stroke="#c2e1ff83"/><path d="M100-162.5l172 54.2" stroke="#fff50084"/><path d="M100-162.5l-130.1 120.5" stroke="#005bbb85"/><path d="M100-162.5l-97.2-145.1" stroke="#fff85"/><path d="M100-162.5l70.8-158.3" stroke="#fff50085"/><path d="M100-162.5l26.7-170.2" stroke="#005bbb86"/><path d="M100-162.5l-133.7-108.3" stroke="#005bbb86"/><path d="M100-162.5l163.6-51.8" stroke="#fff50086"/><path d="M100-162.5l-109.7 130.1" stroke="#fff86"/><path d="M100-162.5l164.7 9.9" stroke="#fff87"/><path d="M100-162.5l-16.8 163.7" stroke="#fff50087"/><path d="M100-162.5l-153.7-53.4" stroke="#c2e1ff88"/><path d="M100-162.5l26.5 159.5" stroke="#c2e1ff88"/><path d="M100-162.5l158.3 17.5" stroke="#c2e1ff88"/><path d="M100-162.5l149 46.4" stroke="#005bbb89"/><path d="M100-162.5l142.4-53.2" stroke="#c2e1ff8A"/><path d="M100-162.5l114-100.3" stroke="#fff8A"/><path d="M100-162.5l126.6-79.6" stroke="#fff8A"/><path d="M100-162.5l-15.3 147.9" stroke="#fff5008A"/><path d="M100-162.5l-111.8 97.1" stroke="#c2e1ff8A"/><path d="M100-162.5l47 138.8" stroke="#fff8B"/><path d="M100-162.5l-138.1-37.4" stroke="#fff5008B"/><path d="M100-162.5l-132.4 52.3" stroke="#c2e1ff8B"/><path d="M100-162.5l-21.9 132.7" stroke="#005bbb8D"/><path d="M100-162.5l72.1-108.4" stroke="#c2e1ff8D"/><path d="M100-162.5l65.8-107.9" stroke="#c2e1ff8E"/><path d="M100-162.5l64.7-94.6" stroke="#fff8F"/><path d="M100-162.5l111.5-17.3" stroke="#005bbb8F"/><path d="M100-162.5l-71.3 84.7" stroke="#005bbb90"/><path d="M100-162.5l-106.6 14.1" stroke="#fff90"/><path d="M100-162.5l-15.3 102.4" stroke="#fff50090"/><path d="M100-162.5l12.2-102.2" stroke="#fff91"/><path d="M100-162.5l-98.4-4.7" stroke="#fff91"/><path d="M100-162.5l91.4-3" stroke="#fff92"/><path d="M100-162.5l44.8-73.8" stroke="#c2e1ff92"/><path d="M100-162.5l69.4-50.1" stroke="#005bbb92"/><path d="M100-162.5l78.6 29.1" stroke="#fff50092"/><path d="M100-162.5l-77.2-8.6" stroke="#005bbb93"/><path d="M100-162.5l-66.3 8.5" stroke="#005bbb93"/><path d="M100-162.5l-30.9 47.4" stroke="#fff94"/><path d="M100-162.5l45.3-29.9" stroke="#c2e1ff94"/><path d="M100-162.5l44.5 13.9" stroke="#005bbb95"/></g><g class="sparcs"><path d="M105.9-143a5.9 5.9 0 1 1 0-11.8 5.9 5.9 0 0 1 0 11.8" fill="#c2e1ff7D"/><path d="M72.8-116.9a6 6 0 1 1 0-11.9 6 6 0 0 1 0 11.9" fill="#fff7E"/><path d="M162.4-115a6.1 6.1 0 1 1 0-12.1 6.1 6.1 0 0 1 0 12.1" fill="#005bbb80"/><path d="M38.3-106.3a6.1 6.1 0 1 1 0-12.2 6.1 6.1 0 0 1 0 12.2" fill="#c2e1ff80"/><path d="M155.2-95a6.1 6.1 0 1 1 0-12.1 6.1 6.1 0 0 1 0 12.1" fill="#c2e1ff81"/><path d="M132.4-235a6.1 6.1 0 1 1 0-12.2 6.1 6.1 0 0 1 0 12.2" fill="#fff81"/><path d="M140.8-81.6a6.1 6.1 0 1 1 0-12.2 6.1 6.1 0 0 1 0 12.2" fill="#fff81"/><path d="M-5.4-176.8a6.2 6.2 0 1 1 0-12.5 6.2 6.2 0 0 1 0 12.5" fill="#005bbb84"/><path d="M77.5-49a6.2 6.2 0 1 1 0-12.5 6.2 6.2 0 0 1 0 12.5" fill="#c2e1ff84"/><path d="M52.7-258.4a6.3 6.3 0 1 1 0-12.5 6.3 6.3 0 0 1 0 12.5" fill="#fff84"/><path d="M153.1-53.9a6.3 6.3 0 1 1 0-12.6 6.3 6.3 0 0 1 0 12.6" fill="#005bbb85"/><path d="M3.6-222.9a6.3 6.3 0 1 1 0-12.6 6.3 6.3 0 0 1 0 12.6" fill="#c2e1ff85"/><path d="M-0.9-82.9a6.4 6.4 0 1 1 0-12.7 6.4 6.4 0 0 1 0 12.7" fill="#005bbb86"/><path d="M203-66.5a6.4 6.4 0 1 1 0-12.9 6.4 6.4 0 0 1 0 12.9" fill="#fff50088"/><path d="M15.2-48.1a6.5 6.5 0 1 1 0-12.9 6.5 6.5 0 0 1 0 12.9" fill="#fff50089"/><path d="M-30.6-109.6a6.5 6.5 0 1 1 0-12.9 6.5 6.5 0 0 1 0 12.9" fill="#fff50089"/><path d="M150.2-288.9a6.5 6.5 0 1 1 0-13 6.5 6.5 0 0 1 0 13" fill="#c2e1ff8A"/><path d="M157.2-22.6a6.5 6.5 0 1 1 0-13.1 6.5 6.5 0 0 1 0 13.1" fill="#005bbb8A"/><path d="M217.6-70.6a6.5 6.5 0 1 1 0-13 6.5 6.5 0 0 1 0 13" fill="#005bbb8A"/><path d="M67-305.2a6.6 6.6 0 1 1 0-13.3 6.6 6.6 0 0 1 0 13.3" fill="#c2e1ff8C"/><path d="M-6-268.5a6.6 6.6 0 1 1 0-13.3 6.6 6.6 0 0 1 0 13.3" fill="#c2e1ff8C"/><path d="M-19.9-56.3a6.6 6.6 0 1 1 0-13.3 6.6 6.6 0 0 1 0 13.3" fill="#c2e1ff8D"/><path d="M111.9 2.7a6.7 6.7 0 1 1 0-13.4 6.7 6.7 0 0 1 0 13.4" fill="#c2e1ff8D"/><path d="M14.1-17.7a6.7 6.7 0 1 1 0-13.4 6.7 6.7 0 0 1 0 13.4" fill="#c2e1ff8E"/><path d="M249-232.5a6.8 6.8 0 1 1 0-13.6 6.8 6.8 0 0 1 0 13.6" fill="#c2e1ff90"/><path d="M250.4-239.5a6.8 6.8 0 1 1 0-13.7 6.8 6.8 0 0 1 0 13.7" fill="#005bbb91"/><path d="M269.7-109a6.9 6.9 0 1 1 0-13.8 6.9 6.9 0 0 1 0 13.8" fill="#fff50092"/><path d="M207.2-15.3a6.9 6.9 0 1 1 0-13.8 6.9 6.9 0 0 1 0 13.8" fill="#c2e1ff92"/><path d="M-66.2-92.6a6.9 6.9 0 1 1 0-13.8 6.9 6.9 0 0 1 0 13.8" fill="#fff93"/><path d="M189.9-314.5a7 7 0 1 1 0-14 7 7 0 0 1 0 14" fill="#c2e1ff94"/><path d="M-66.9-230.5a7 7 0 1 1 0-14 7 7 0 0 1 0 14" fill="#fff50094"/><path d="M3.4 0.3a7 7 0 1 1 0-14 7 7 0 0 1 0 14" fill="#fff94"/><path d="M58.8-334.6a7 7 0 1 1 0-14 7 7 0 0 1 0 14" fill="#005bbb95"/><path d="M62.1-335.6a7 7 0 1 1 0-14 7 7 0 0 1 0 14" fill="#fff95"/><path d="M225.8-298.9a7.1 7.1 0 1 1 0-14.3 7.1 7.1 0 0 1 0 14.3" fill="#c2e1ff97"/><path d="M203.1 5.6a7.1 7.1 0 1 1 0-14.3 7.1 7.1 0 0 1 0 14.3" fill="#fff97"/><path d="M171.7-342a7.3 7.3 0 1 1 0-14.6 7.3 7.3 0 0 1 0 14.6" fill="#005bbb9B"/><path d="M49-351.4a7.3 7.3 0 1 1 0-14.7 7.3 7.3 0 0 1 0 14.7" fill="#005bbb9C"/><path d="M-53.1-20.7a7.4 7.4 0 1 1 0-14.7 7.4 7.4 0 0 1 0 14.7" fill="#c2e1ff9D"/><path d="M218.5-325.9a7.5 7.5 0 1 1 0-14.9 7.5 7.5 0 0 1 0 14.9" fill="#c2e1ff9F"/><path d="M-43.1-306.2a7.5 7.5 0 1 1 0-15 7.5 7.5 0 0 1 0 15" fill="#fff9F"/><path d="M-73.1-272.7a7.5 7.5 0 1 1 0-15 7.5 7.5 0 0 1 0 15" fill="#c2e1ff9F"/><path d="M-28.1 12.6a7.5 7.5 0 1 1 0-15.1 7.5 7.5 0 0 1 0 15.1" fill="#005bbbA0"/><path d="M285.3-257.4a7.6 7.6 0 1 1 0-15.1 7.6 7.6 0 0 1 0 15.1" fill="#005bbbA1"/><path d="M203.6-341.1a7.6 7.6 0 1 1 0-15.2 7.6 7.6 0 0 1 0 15.2" fill="#c2e1ffA1"/><path d="M301.2-72.2a7.7 7.7 0 1 1 0-15.5 7.7 7.7 0 0 1 0 15.5" fill="#fff500A4"/><path d="M-82.3-34.2a7.7 7.7 0 1 1 0-15.5 7.7 7.7 0 0 1 0 15.5" fill="#fffA5"/><path d="M261.1-1.1a7.9 7.9 0 1 1 0-15.7 7.9 7.9 0 0 1 0 15.7" fill="#005bbbA8"/><path d="M188.5 50a7.9 7.9 0 1 1 0-15.8 7.9 7.9 0 0 1 0 15.8" fill="#005bbbA8"/><path d="M-106.2-241.3a7.9 7.9 0 1 1 0-15.8 7.9 7.9 0 0 1 0 15.8" fill="#005bbbA9"/><path d="M-108.7-70.1a8 8 0 1 1 0-15.9 8 8 0 0 1 0 15.9" fill="#c2e1ffAA"/><path d="M304-251.4a8 8 0 1 1 0-16 8 8 0 0 1 0 16" fill="#fffAA"/><path d="M-10.4 44.4a8.1 8.1 0 1 1 0-16.2 8.1 8.1 0 0 1 0 16.2" fill="#fffAC"/><path d="M121.4 73.9a8.1 8.1 0 1 1 0-16.3 8.1 8.1 0 0 1 0 16.3" fill="#fffAE"/><path d="M318.1-225.2a8.1 8.1 0 1 1 0-16.2 8.1 8.1 0 0 1 0 16.2" fill="#fffAE"/><path d="M136.5 72.9a8.2 8.2 0 1 1 0-16.4 8.2 8.2 0 0 1 0 16.4" fill="#fff500AF"/><path d="M-100.8-40.9a8.2 8.2 0 1 1 0-16.5 8.2 8.2 0 0 1 0 16.5" fill="#fff500AF"/><path d="M-126.9-109.2a8.3 8.3 0 1 1 0-16.6 8.3 8.3 0 0 1 0 16.6" fill="#005bbbB0"/><path d="M206.3-359.7a8.3 8.3 0 1 1 0-16.6 8.3 8.3 0 0 1 0 16.6" fill="#fff500B0"/><path d="M284.3-13a8.3 8.3 0 1 1 0-16.6 8.3 8.3 0 0 1 0 16.6" fill="#fffB2"/><path d="M-103-266.9a8.3 8.3 0 1 1 0-16.7 8.3 8.3 0 0 1 0 16.7" fill="#c2e1ffB2"/><path d="M277.1-305.8a8.4 8.4 0 1 1 0-16.8 8.4 8.4 0 0 1 0 16.8" fill="#fff500B3"/><path d="M78.2-387.4a8.5 8.5 0 1 1 0-16.9 8.5 8.5 0 0 1 0 16.9" fill="#c2e1ffB5"/><path d="M-133.9-132.8a8.5 8.5 0 1 1 0-17 8.5 8.5 0 0 1 0 17" fill="#c2e1ffB7"/><path d="M195.7-368.6a8.6 8.6 0 1 1 0-17.1 8.6 8.6 0 0 1 0 17.1" fill="#c2e1ffB7"/><path d="M-71 7.6a8.6 8.6 0 1 1 0-17.2 8.6 8.6 0 0 1 0 17.2" fill="#c2e1ffB7"/><path d="M87.8 81.3a8.6 8.6 0 1 1 0-17.2 8.6 8.6 0 0 1 0 17.2" fill="#fffB8"/><path d="M19.3-375.1a8.6 8.6 0 1 1 0-17.3 8.6 8.6 0 0 1 0 17.3" fill="#c2e1ffB8"/><path d="M335.3-170.9a8.7 8.7 0 1 1 0-17.4 8.7 8.7 0 0 1 0 17.4" fill="#005bbbBA"/><path d="M54.9 77.7a8.7 8.7 0 1 1 0-17.4 8.7 8.7 0 0 1 0 17.4" fill="#005bbbBA"/><path d="M134.9-387.2a8.7 8.7 0 1 1 0-17.4 8.7 8.7 0 0 1 0 17.4" fill="#fffBA"/><path d="M11.5-372.5a8.7 8.7 0 1 1 0-17.5 8.7 8.7 0 0 1 0 17.5" fill="#c2e1ffBA"/><path d="M200.1-367.6a8.8 8.8 0 1 1 0-17.5 8.8 8.8 0 0 1 0 17.5" fill="#fff500BB"/><path d="M220-357.1a8.8 8.8 0 1 1 0-17.5 8.8 8.8 0 0 1 0 17.5" fill="#fffBB"/><path d="M201.4-366.9a8.9 8.9 0 1 1 0-17.8 8.9 8.9 0 0 1 0 17.8" fill="#c2e1ffBF"/><path d="M336.2-153.6a8.9 8.9 0 1 1 0-17.8 8.9 8.9 0 0 1 0 17.8" fill="#fff500BF"/><path d="M50.1-384.4a8.9 8.9 0 1 1 0-17.9 8.9 8.9 0 0 1 0 17.9" fill="#005bbbBF"/><path d="M250.5-335.5a8.9 8.9 0 1 1 0-17.9 8.9 8.9 0 0 1 0 17.9" fill="#c2e1ffBF"/><path d="M33.5-380a9 9 0 1 1 0-18 9 9 0 0 1 0 18" fill="#fffC0"/><path d="M334.1-124.6a9 9 0 1 1 0-18.1 9 9 0 0 1 0 18.1" fill="#c2e1ffC1"/><path d="M-114.1-252.2a9 9 0 1 1 0-18.1 9 9 0 0 1 0 18.1" fill="#fffC1"/><path d="M77.2 81.1a9.1 9.1 0 1 1 0-18.1 9.1 9.1 0 0 1 0 18.1" fill="#c2e1ffC2"/><path d="M26.7 70.4a9.1 9.1 0 1 1 0-18.2 9.1 9.1 0 0 1 0 18.2" fill="#fff500C3"/><path d="M335.2-148.9a9.1 9.1 0 1 1 0-18.3 9.1 9.1 0 0 1 0 18.3" fill="#fffC3"/><path d="M330.3-201.1a9.1 9.1 0 1 1 0-18.3 9.1 9.1 0 0 1 0 18.3" fill="#fffC4"/><path d="M233.6-345.5a9.3 9.3 0 1 1 0-18.6 9.3 9.3 0 0 1 0 18.6" fill="#fffC6"/><path d="M-69.1 8.3a9.3 9.3 0 1 1 0-18.5 9.3 9.3 0 0 1 0 18.5" fill="#fffC7"/><path d="M326.4-95.5a9.3 9.3 0 1 1 0-18.6 9.3 9.3 0 0 1 0 18.6" fill="#c2e1ffC7"/><path d="M315.5-63.6a9.3 9.3 0 1 1 0-18.7 9.3 9.3 0 0 1 0 18.7" fill="#c2e1ffC8"/><path d="M-132-139.2a9.4 9.4 0 1 1 0-18.7 9.4 9.4 0 0 1 0 18.7" fill="#c2e1ffC9"/><path d="M241.4-336.7a9.4 9.4 0 1 1 0-18.9 9.4 9.4 0 0 1 0 18.9" fill="#005bbbCA"/><path d="M86.1-383.9a9.5 9.5 0 1 1 0-18.9 9.5 9.5 0 0 1 0 18.9" fill="#fffCB"/><path d="M219.8-350.1a9.5 9.5 0 1 1 0-19 9.5 9.5 0 0 1 0 19" fill="#fff500CC"/><path d="M76.1 76.2a9.5 9.5 0 1 1 0-19.1 9.5 9.5 0 0 1 0 19.1" fill="#005bbbCC"/><path d="M207.9-356.5a9.5 9.5 0 1 1 0-19 9.5 9.5 0 0 1 0 19" fill="#fffCC"/><path d="M96.8 76.7a9.6 9.6 0 1 1 0-19.1 9.6 9.6 0 0 1 0 19.1" fill="#fffCD"/><path d="M19.6-367.9a9.6 9.6 0 1 1 0-19.1 9.6 9.6 0 0 1 0 19.1" fill="#fffCD"/><path d="M-128.6-154.3a9.6 9.6 0 1 1 0-19.2 9.6 9.6 0 0 1 0 19.2" fill="#005bbbCE"/><path d="M151.5 69.5a9.6 9.6 0 1 1 0-19.2 9.6 9.6 0 0 1 0 19.2" fill="#fff500CE"/><path d="M-15.1-349.1a9.7 9.7 0 1 1 0-19.3 9.7 9.7 0 0 1 0 19.3" fill="#c2e1ffCF"/><path d="M99.2-380.2a9.7 9.7 0 1 1 0-19.3 9.7 9.7 0 0 1 0 19.3" fill="#005bbbCF"/><path d="M-125.8-128.9a9.7 9.7 0 1 1 0-19.4 9.7 9.7 0 0 1 0 19.4" fill="#c2e1ffCF"/><path d="M91.5-378.1a9.7 9.7 0 1 1 0-19.5 9.7 9.7 0 0 1 0 19.5" fill="#fffD1"/><path d="M-124.1-133.1a9.8 9.8 0 1 1 0-19.6 9.8 9.8 0 0 1 0 19.6" fill="#fffD1"/><path d="M-64.2-0.2a9.8 9.8 0 1 1 0-19.5 9.8 9.8 0 0 1 0 19.5" fill="#fff500D2"/><path d="M16.8-360.4a9.8 9.8 0 1 1 0-19.7 9.8 9.8 0 0 1 0 19.7" fill="#fff500D2"/><path d="M164.8 60.6a9.8 9.8 0 1 1 0-19.7 9.8 9.8 0 0 1 0 19.7" fill="#c2e1ffD3"/><path d="M320.9-140.3a9.9 9.9 0 1 1 0-19.8 9.9 9.9 0 0 1 0 19.8" fill="#fffD4"/><path d="M-87.2-38.6a10 10 0 1 1 0-19.9 10 10 0 0 1 0 19.9" fill="#fff500D6"/><path d="M-52.1-308.6a10 10 0 1 1 0-20 10 10 0 0 1 0 20" fill="#c2e1ffD7"/><path d="M49.6 59.3a10 10 0 1 1 0-20.1 10 10 0 0 1 0 20.1" fill="#c2e1ffD7"/><path d="M-116.1-151.5a10.1 10.1 0 1 1 0-20.1 10.1 10.1 0 0 1 0 20.1" fill="#c2e1ffD8"/><path d="M75 62.1a10.1 10.1 0 1 1 0-20.1 10.1 10.1 0 0 1 0 20.1" fill="#005bbbD8"/><path d="M42.4-360a10.1 10.1 0 1 1 0-20.2 10.1 10.1 0 0 1 0 20.2" fill="#fffD8"/><path d="M1.5-342.8a10.1 10.1 0 1 1 0-20.2 10.1 10.1 0 0 1 0 20.2" fill="#fff500D9"/><path d="M301.1-82.4a10.1 10.1 0 1 1 0-20.3 10.1 10.1 0 0 1 0 20.3" fill="#005bbbDA"/><path d="M240.5 7.6a10.1 10.1 0 1 1 0-20.2 10.1 10.1 0 0 1 0 20.2" fill="#fffDA"/><path d="M-74.6-31a10.1 10.1 0 1 1 0-20.3 10.1 10.1 0 0 1 0 20.3" fill="#fff500DA"/><path d="M51.8 53.7a10.2 10.2 0 1 1 0-20.3 10.2 10.2 0 0 1 0 20.3" fill="#fff500DA"/><path d="M70.1-359.3a10.2 10.2 0 1 1 0-20.5 10.2 10.2 0 0 1 0 20.5" fill="#fffDC"/><path d="M299.3-215.4a10.2 10.2 0 1 1 0-20.5 10.2 10.2 0 0 1 0 20.5" fill="#c2e1ffDC"/><path d="M44.1 47.6a10.3 10.3 0 1 1 0-20.6 10.3 10.3 0 0 1 0 20.6" fill="#fffDD"/><path d="M206.3-328.8a10.3 10.3 0 1 1 0-20.6 10.3 10.3 0 0 1 0 20.6" fill="#fff500DD"/><path d="M-85.8-240.3a10.3 10.3 0 1 1 0-20.6 10.3 10.3 0 0 1 0 20.6" fill="#005bbbDE"/><path d="M-85.2-239.7a10.3 10.3 0 1 1 0-20.6 10.3 10.3 0 0 1 0 20.6" fill="#c2e1ffDE"/><path d="M67.8 49.3a10.3 10.3 0 1 1 0-20.7 10.3 10.3 0 0 1 0 20.7" fill="#c2e1ffDE"/><path d="M-48.8-14.3a10.4 10.4 0 1 1 0-20.8 10.4 10.4 0 0 1 0 20.8" fill="#005bbbDF"/><path d="M76.5 48.6a10.4 10.4 0 1 1 0-20.8 10.4 10.4 0 0 1 0 20.8" fill="#005bbbDF"/><path d="M-100.8-161.7a10.4 10.4 0 1 1 0-20.8 10.4 10.4 0 0 1 0 20.8" fill="#fffE0"/><path d="M177.4 31.7a10.4 10.4 0 1 1 0-20.9 10.4 10.4 0 0 1 0 20.9" fill="#fff500E0"/><path d="M68.7 43.4a10.5 10.5 0 1 1 0-21 10.5 10.5 0 0 1 0 21" fill="#fffE1"/><path d="M-74.1-245.7a10.5 10.5 0 1 1 0-20.9 10.5 10.5 0 0 1 0 20.9" fill="#fffE1"/><path d="M49.4 38.7a10.5 10.5 0 1 1 0-20.9 10.5 10.5 0 0 1 0 20.9" fill="#fffE1"/><path d="M274.6-239a10.5 10.5 0 1 1 0-21.1 10.5 10.5 0 0 1 0 21.1" fill="#fff500E2"/><path d="M-17.1 2.3a10.6 10.6 0 1 1 0-21.1 10.6 10.6 0 0 1 0 21.1" fill="#005bbbE3"/><path d="M191.4 15.2a10.6 10.6 0 1 1 0-21.2 10.6 10.6 0 0 1 0 21.2" fill="#c2e1ffE4"/><path d="M-59.9-249.5a10.7 10.7 0 1 1 0-21.3 10.7 10.7 0 0 1 0 21.3" fill="#fffE5"/><path d="M203.1 4.1a10.7 10.7 0 1 1 0-21.4 10.7 10.7 0 0 1 0 21.4" fill="#fffE5"/><path d="M187.2 12.7a10.7 10.7 0 1 1 0-21.3 10.7 10.7 0 0 1 0 21.3" fill="#fffE5"/><path d="M282.6-138.8a10.7 10.7 0 1 1 0-21.5 10.7 10.7 0 0 1 0 21.5" fill="#fff500E7"/><path d="M272-97.5a10.8 10.8 0 1 1 0-21.5 10.8 10.8 0 0 1 0 21.5" fill="#c2e1ffE7"/><path d="M-30.1-31.1a10.8 10.8 0 1 1 0-21.7 10.8 10.8 0 0 1 0 21.7" fill="#005bbbE8"/><path d="M2.8-296.7a10.8 10.8 0 1 1 0-21.7 10.8 10.8 0 0 1 0 21.7" fill="#005bbbE9"/><path d="M170.8-310a10.9 10.9 0 1 1 0-21.7 10.9 10.9 0 0 1 0 21.7" fill="#fff500EA"/><path d="M126.7-321.8a10.9 10.9 0 1 1 0-21.8 10.9 10.9 0 0 1 0 21.8" fill="#c2e1ffEA"/><path d="M-33.7-259.9a10.9 10.9 0 1 1 0-21.8 10.9 10.9 0 0 1 0 21.8" fill="#c2e1ffEA"/><path d="M263.6-203.4a10.9 10.9 0 1 1 0-21.8 10.9 10.9 0 0 1 0 21.8" fill="#005bbbEA"/><path d="M-9.7-21.5a10.9 10.9 0 1 1 0-21.9 10.9 10.9 0 0 1 0 21.9" fill="#005bbbEB"/><path d="M264.7-141.6a11 11 0 1 1 0-22 11 11 0 0 1 0 22" fill="#c2e1ffEC"/><path d="M83.2 12.2a11 11 0 1 1 0-21.9 11 11 0 0 1 0 21.9" fill="#fffEC"/><path d="M-53.7-204.9a11 11 0 1 1 0-22 11 11 0 0 1 0 22" fill="#fffED"/><path d="M126.5 8a11 11 0 1 1 0-22.1 11 11 0 0 1 0 22.1" fill="#005bbbED"/><path d="M258.3-134a11 11 0 1 1 0-22.1 11 11 0 0 1 0 22.1" fill="#005bbbEE"/><path d="M249-105a11.1 11.1 0 1 1 0-22.1 11.1 11.1 0 0 1 0 22.1" fill="#005bbbEE"/><path d="M242.4-204.6a11.1 11.1 0 1 1 0-22.2 11.1 11.1 0 0 1 0 22.2" fill="#c2e1ffEF"/><path d="M214-251.6a11.1 11.1 0 1 1 0-22.3 11.1 11.1 0 0 1 0 22.3" fill="#005bbbEF"/><path d="M226.6-231a11.1 11.1 0 1 1 0-22.3 11.1 11.1 0 0 1 0 22.3" fill="#c2e1ffF0"/><path d="M84.7-3.4a11.2 11.2 0 1 1 0-22.3 11.2 11.2 0 0 1 0 22.3" fill="#fff500F0"/><path d="M-11.8-54.2a11.2 11.2 0 1 1 0-22.3 11.2 11.2 0 0 1 0 22.3" fill="#fff500F0"/><path d="M147-12.5a11.2 11.2 0 1 1 0-22.4 11.2 11.2 0 0 1 0 22.4" fill="#005bbbF0"/><path d="M-38.1-188.7a11.2 11.2 0 1 1 0-22.5 11.2 11.2 0 0 1 0 22.5" fill="#fff500F1"/><path d="M-32.4-99a11.2 11.2 0 1 1 0-22.4 11.2 11.2 0 0 1 0 22.4" fill="#fffF1"/><path d="M78.1-18.5a11.3 11.3 0 1 1 0-22.5 11.3 11.3 0 0 1 0 22.5" fill="#fffF3"/><path d="M172.1-259.6a11.3 11.3 0 1 1 0-22.6 11.3 11.3 0 0 1 0 22.6" fill="#fffF4"/><path d="M165.8-259a11.4 11.4 0 1 1 0-22.7 11.4 11.4 0 0 1 0 22.7" fill="#005bbbF4"/><path d="M164.7-245.7a11.4 11.4 0 1 1 0-22.9 11.4 11.4 0 0 1 0 22.9" fill="#c2e1ffF6"/><path d="M211.5-168.3a11.5 11.5 0 1 1 0-22.9 11.5 11.5 0 0 1 0 22.9" fill="#005bbbF7"/><path d="M28.7-66.4a11.5 11.5 0 1 1 0-22.9 11.5 11.5 0 0 1 0 22.9" fill="#fffF7"/><path d="M-6.6-136.9a11.5 11.5 0 1 1 0-23 11.5 11.5 0 0 1 0 23" fill="#005bbbF7"/><path d="M84.7-48.6a11.5 11.5 0 1 1 0-23 11.5 11.5 0 0 1 0 23" fill="#005bbbF8"/><path d="M112.2-253.2a11.5 11.5 0 1 1 0-23 11.5 11.5 0 0 1 0 23" fill="#fffF8"/><path d="M1.6-155.7a11.5 11.5 0 1 1 0-23.1 11.5 11.5 0 0 1 0 23.1" fill="#fffF9"/><path d="M191.4-153.9a11.6 11.6 0 1 1 0-23.1 11.6 11.6 0 0 1 0 23.1" fill="#c2e1ffF9"/><path d="M144.8-224.7a11.6 11.6 0 1 1 0-23.2 11.6 11.6 0 0 1 0 23.2" fill="#c2e1ffFA"/><path d="M169.4-201a11.6 11.6 0 1 1 0-23.3 11.6 11.6 0 0 1 0 23.3" fill="#fff500FA"/><path d="M178.6-121.8a11.6 11.6 0 1 1 0-23.2 11.6 11.6 0 0 1 0 23.2" fill="#005bbbFA"/><path d="M22.8-159.4a11.6 11.6 0 1 1 0-23.3 11.6 11.6 0 0 1 0 23.3" fill="#fff500FB"/><path d="M33.7-142.3a11.7 11.7 0 1 1 0-23.4 11.7 11.7 0 0 1 0 23.4" fill="#fffFC"/><path d="M69.1-103.3a11.7 11.7 0 1 1 0-23.5 11.7 11.7 0 0 1 0 23.5" fill="#fffFD"/><path d="M145.3-180.6a11.7 11.7 0 1 1 0-23.5 11.7 11.7 0 0 1 0 23.5" fill="#fffFD"/><path d="M144.5-136.9a11.8 11.8 0 1 1 0-23.5 11.8 11.8 0 0 1 0 23.5" fill="#fffFD"/></g></svg>