<svg width="1200" height="675" viewBox="-500 -500 1200 675" xmlns="http://www.w3.org/2000/svg"><path d="M-500-500h1200v675h-1200z" fill="#000"/><style>.sparkles path{stroke-linecap:round; stroke-width:1}</style><g class="sparkles"><path d="M100-162.5l-27.9-21.9" stroke="#fff50032"/><path d="M100-162.5l49.3 40.9" stroke="#fff50033"/><path d="M100-162.5l-49.4-44.2" stroke="#005bbb34"/><path d="M100-162.5l-57.9-62.4" stroke="#c2e1ff35"/><path d="M100-162.5l-28.7 81.2" stroke="#fff50035"/><path d="M100-162.5l49.7-74.8" stroke="#005bbb35"/><path d="M100-162.5l-42.3-87.2" stroke="#fff50036"/><path d="M100-162.5l41-92.4" stroke="#fff50036"/><path d="M100-162.5l-101.8-23.3" stroke="#005bbb37"/><path d="M100-162.5l-123.9-19.1" stroke="#005bbb39"/><path d="M100-162.5l125.5-8.4" stroke="#005bbb39"/><path d="M100-162.5l119.1-46.9" stroke="#c2e1ff39"/><path d="M100-162.5l-115.6 61.1" stroke="#005bbb3A"/><path d="M100-162.5l94.2 97.4" stroke="#fff3B"/><path d="M100-162.5l-103.1-89.1" stroke="#c2e1ff3B"/><path d="M100-162.5l-132 45.5" stroke="#fff3B"/><path d="M100-162.5l-115.4 85.8" stroke="#005bbb3C"/><path d="M100-162.5l109.4-96.4" stroke="#fff3C"/><path d="M100-162.5l-58.2 136.6" stroke="#fff5003D"/><path d="M100-162.5l-58.1-140" stroke="#fff5003D"/><path d="M100-162.5l150.5-29.5" stroke="#005bbb3D"/><path d="M100-162.5l125.8-93.6" stroke="#fff3E"/><path d="M100-162.5l134.8 83.4" stroke="#c2e1ff3E"/><path d="M100-162.5l-57.8 148.3" stroke="#fff3F"/><path d="M100-162.5l-163.7 45.8" stroke="#c2e1ff41"/><path d="M100-162.5l-109.5-130.8" stroke="#fff41"/><path d="M100-162.5l-171.2-33.8" stroke="#fff50042"/><path d="M100-162.5l-131.5 116.9" stroke="#fff50042"/><path d="M100-162.5l169.3 64.2" stroke="#005bbb43"/><path d="M100-162.5l-125.5 132.5" stroke="#c2e1ff44"/><path d="M100-162.5l-31.5-181.6" stroke="#005bbb44"/><path d="M100-162.5l65.8-172.6" stroke="#fff50044"/><path d="M100-162.5l185.5 10.4" stroke="#c2e1ff45"/><path d="M100-162.5l-169.8 76.3" stroke="#fff45"/><path d="M100-162.5l184.9 29.2" stroke="#fff45"/><path d="M100-162.5l-88.9 166.9" stroke="#fff50046"/><path d="M100-162.5l190.7 7.3" stroke="#fff46"/><path d="M100-162.5l-80.6 174.7" stroke="#005bbb46"/><path d="M100-162.5l66.3-183.4" stroke="#fff50047"/><path d="M100-162.5l61.6-186" stroke="#c2e1ff48"/><path d="M100-162.5l-165.4-112.8" stroke="#fff49"/><path d="M100-162.5l-55-196" stroke="#fff4A"/><path d="M100-162.5l-166.9-120.2" stroke="#fff4B"/><path d="M100-162.5l-120.9 170.6" stroke="#fff5004C"/><path d="M100-162.5l209.7 26.3" stroke="#005bbb4D"/><path d="M100-162.5l43.4-207.1" stroke="#c2e1ff4D"/><path d="M100-162.5l46.1-207.2" stroke="#fff5004E"/><path d="M100-162.5l207.6-48.1" stroke="#c2e1ff4E"/><path d="M100-162.5l153.4 148.3" stroke="#fff4E"/><path d="M100-162.5l-208.4 49.1" stroke="#fff4E"/><path d="M100-162.5l-19.7-215" stroke="#005bbb4F"/><path d="M100-162.5l139.6 164.9" stroke="#005bbb4F"/><path d="M100-162.5l78.3 203.5" stroke="#005bbb50"/><path d="M100-162.5l85.1 200.8" stroke="#fff50"/><path d="M100-162.5l-197.8 93.5" stroke="#c2e1ff51"/><path d="M100-162.5l94.5 200.6" stroke="#c2e1ff52"/><path d="M100-162.5l-58.7-215.4" stroke="#005bbb53"/><path d="M100-162.5l-186.9-122.3" stroke="#c2e1ff53"/><path d="M100-162.5l222.1-28.4" stroke="#005bbb54"/><path d="M100-162.5l-101.8-201.3" stroke="#c2e1ff55"/><path d="M100-162.5l169.5 150.2" stroke="#005bbb55"/><path d="M100-162.5l120.7 192.2" stroke="#fff50056"/><path d="M100-162.5l218.6-62.2" stroke="#fff50056"/><path d="M100-162.5l-209.3-90.5" stroke="#fff56"/><path d="M100-162.5l-99.1-205.8" stroke="#fff57"/><path d="M100-162.5l204.3 102.6" stroke="#c2e1ff57"/><path d="M100-162.5l-143.5 179.2" stroke="#c2e1ff58"/><path d="M100-162.5l-25.3 228.2" stroke="#005bbb58"/><path d="M100-162.5l-138.8 184.1" stroke="#005bbb59"/><path d="M100-162.5l-217.9 77.7" stroke="#005bbb59"/><path d="M100-162.5l-230.2 30.9" stroke="#fff5A"/><path d="M100-162.5l-16.7 231.7" stroke="#fff5005A"/><path d="M100-162.5l-167.4-161.6" stroke="#c2e1ff5B"/><path d="M100-162.5l41.1 229.1" stroke="#fff5005B"/><path d="M100-162.5l-72.2 221.8" stroke="#005bbb5C"/><path d="M100-162.5l181 147.2" stroke="#fff5005C"/><path d="M100-162.5l-78.2 220.1" stroke="#005bbb5C"/><path d="M100-162.5l157.9-172.9" stroke="#005bbb5D"/><path d="M100-162.5l154.9-175.9" stroke="#005bbb5D"/><path d="M100-162.5l161-171" stroke="#005bbb5E"/><path d="M100-162.5l235 0" stroke="#fff5E"/><path d="M100-162.5l212.5 100.8" stroke="#c2e1ff5F"/><path d="M100-162.5l-217-91.1" stroke="#c2e1ff5F"/><path d="M100-162.5l-235 17.4" stroke="#fff50060"/><path d="M100-162.5l63.8 227" stroke="#fff50060"/><path d="M100-162.5l-233.4-36.3" stroke="#fff50062"/><path d="M100-162.5l25.5 234.8" stroke="#fff63"/><path d="M100-162.5l-217.7 91.9" stroke="#c2e1ff64"/><path d="M100-162.5l-180.7-152.1" stroke="#c2e1ff64"/><path d="M100-162.5l-225.3 70.9" stroke="#c2e1ff64"/><path d="M100-162.5l187.5 143.4" stroke="#fff65"/><path d="M100-162.5l36 233.2" stroke="#fff66"/><path d="M100-162.5l198.3-127.6" stroke="#c2e1ff66"/><path d="M100-162.5l45.1 231.5" stroke="#fff66"/><path d="M100-162.5l168.8 164.7" stroke="#fff50066"/><path d="M100-162.5l202-121.7" stroke="#c2e1ff66"/><path d="M100-162.5l-219.7 84.8" stroke="#c2e1ff67"/><path d="M100-162.5l-235-12.4" stroke="#005bbb68"/><path d="M100-162.5l218-86.8" stroke="#c2e1ff69"/><path d="M100-162.5l72-222.2" stroke="#005bbb6B"/><path d="M100-162.5l204.7 111.3" stroke="#fff6C"/><path d="M100-162.5l-137.2 187" stroke="#c2e1ff6D"/><path d="M100-162.5l147.7-178.1" stroke="#fff5006E"/><path d="M100-162.5l-68-221.1" stroke="#005bbb6E"/><path d="M100-162.5l-66.9 221.4" stroke="#fff6E"/><path d="M100-162.5l193.4 126.3" stroke="#fff5006E"/><path d="M100-162.5l-228.6 30.5" stroke="#fff6E"/><path d="M100-162.5l145.5 178.9" stroke="#fff5006E"/><path d="M100-162.5l-207.2 100.8" stroke="#c2e1ff6F"/><path d="M100-162.5l-83.5-214.5" stroke="#005bbb6F"/><path d="M100-162.5l203.7-106.9" stroke="#005bbb6F"/><path d="M100-162.5l-229.6-14" stroke="#005bbb6F"/><path d="M100-162.5l225.7-43.6" stroke="#fff6F"/><path d="M100-162.5l157.6 165.3" stroke="#fff50070"/><path d="M100-162.5l-170.1-152.3" stroke="#c2e1ff70"/><path d="M100-162.5l40.5-224.3" stroke="#fff71"/><path d="M100-162.5l124.2-187.8" stroke="#fff50073"/><path d="M100-162.5l98.6-200.5" stroke="#fff50074"/><path d="M100-162.5l112.4-192.9" stroke="#fff50074"/><path d="M100-162.5l-82.4 207.1" stroke="#fff50074"/><path d="M100-162.5l31.6-220.4" stroke="#005bbb74"/><path d="M100-162.5l-4.5 219.8" stroke="#fff50076"/><path d="M100-162.5l-57.3-211.2" stroke="#fff76"/><path d="M100-162.5l183.8-117.5" stroke="#c2e1ff77"/><path d="M100-162.5l-212.7 44.8" stroke="#005bbb77"/><path d="M100-162.5l-93.6 195.9" stroke="#fff77"/><path d="M100-162.5l-29.8 213.7" stroke="#005bbb78"/><path d="M100-162.5l-186 108.5" stroke="#005bbb78"/><path d="M100-162.5l51.3 206.8" stroke="#fff79"/><path d="M100-162.5l-93.6-190.4" stroke="#fff79"/><path d="M100-162.5l195.3-78.7" stroke="#fff7A"/><path d="M100-162.5l179.1 106.5" stroke="#c2e1ff7B"/><path d="M100-162.5l-74.4-194.6" stroke="#005bbb7B"/><path d="M100-162.5l-103 180.1" stroke="#fff7B"/><path d="M100-162.5l26.2 204.6" stroke="#c2e1ff7C"/><path d="M100-162.5l162.7-125.4" stroke="#fff5007C"/><path d="M100-162.5l113.6 170.4" stroke="#fff5007C"/><path d="M100-162.5l203.9 9.2" stroke="#005bbb7D"/><path d="M100-162.5l-202.6-5.3" stroke="#c2e1ff7D"/><path d="M100-162.5l199.1-26.6" stroke="#fff5007E"/><path d="M100-162.5l-116.6-155" stroke="#c2e1ff80"/><path d="M100-162.5l168.3 94.2" stroke="#005bbb80"/><path d="M100-162.5l175.7-72.1" stroke="#c2e1ff81"/><path d="M100-162.5l-189.1 3.4" stroke="#fff50081"/><path d="M100-162.5l-165.6 74.2" stroke="#fff84"/><path d="M100-162.5l84.7-158.7" stroke="#005bbb84"/><path d="M100-162.5l-125.8 126.9" stroke="#c2e1ff84"/><path d="M100-162.5l149.7-97" stroke="#fff84"/><path d="M100-162.5l-141.5 104.2" stroke="#c2e1ff85"/><path d="M100-162.5l115.7-130.4" stroke="#005bbb85"/><path d="M100-162.5l-21.2-171.9" stroke="#005bbb86"/><path d="M100-162.5l-168.5 31.7" stroke="#c2e1ff86"/><path d="M100-162.5l149.8 79.8" stroke="#fff50086"/><path d="M100-162.5l-76.3-149.6" stroke="#fff87"/><path d="M100-162.5l-165.4 14.4" stroke="#fff87"/><path d="M100-162.5l42.3-153.6" stroke="#c2e1ff88"/><path d="M100-162.5l35.6 153.8" stroke="#c2e1ff89"/><path d="M100-162.5l-134.6-77.3" stroke="#fff89"/><path d="M100-162.5l-129.3 85.2" stroke="#fff50089"/><path d="M100-162.5l77.3 133.7" stroke="#c2e1ff89"/><path d="M100-162.5l-72.3-135.5" stroke="#fff89"/><path d="M100-162.5l-127.2 76.9" stroke="#005bbb8A"/><path d="M100-162.5l46.2-139.2" stroke="#c2e1ff8B"/><path d="M100-162.5l85.4 116.3" stroke="#c2e1ff8B"/><path d="M100-162.5l142.2-19" stroke="#c2e1ff8B"/><path d="M100-162.5l-99.6 86" stroke="#c2e1ff8D"/><path d="M100-162.5l-122.2 41.3" stroke="#005bbb8D"/><path d="M100-162.5l108.7-60.7" stroke="#005bbb8E"/><path d="M100-162.5l-108.2 54.1" stroke="#005bbb8E"/><path d="M100-162.5l114.5 14.5" stroke="#c2e1ff8F"/><path d="M100-162.5l-113.9 0.9" stroke="#005bbb8F"/><path d="M100-162.5l46.2 94.8" stroke="#005bbb90"/><path d="M100-162.5l102.3 8.9" stroke="#fff50091"/><path d="M100-162.5l-11.4-99.5" stroke="#005bbb91"/><path d="M100-162.5l-85.3 16.9" stroke="#c2e1ff92"/><path d="M100-162.5l-83.3 19" stroke="#fff92"/><path d="M100-162.5l13.5-67.8" stroke="#fff50093"/><path d="M100-162.5l-4.8-43" stroke="#c2e1ff95"/><path d="M100-162.5l22.3 31.3" stroke="#c2e1ff95"/><path d="M100-162.5l25-15.8" stroke="#c2e1ff95"/><path d="M100-162.5l11.9 17.4" stroke="#c2e1ff95"/></g><g class="sparcs"><path d="M72.1-178.4a5.9 5.9 0 1 1 0-11.9 5.9 5.9 0 0 1 0 11.9" fill="#fff5007D"/><path d="M149.3-115.6a6 6 0 1 1 0-12 6 6 0 0 1 0 12" fill="#c2e1ff7F"/><path d="M50.6-200.7a6 6 0 1 1 0-12.1 6 6 0 0 1 0 12.1" fill="#fff7F"/><path d="M42.1-218.8a6.1 6.1 0 1 1 0-12.2 6.1 6.1 0 0 1 0 12.2" fill="#c2e1ff81"/><path d="M71.3-75.1a6.1 6.1 0 1 1 0-12.3 6.1 6.1 0 0 1 0 12.3" fill="#fff81"/><path d="M149.7-231.1a6.1 6.1 0 1 1 0-12.3 6.1 6.1 0 0 1 0 12.3" fill="#c2e1ff81"/><path d="M57.7-243.5a6.2 6.2 0 1 1 0-12.4 6.2 6.2 0 0 1 0 12.4" fill="#fff82"/><path d="M141-248.7a6.2 6.2 0 1 1 0-12.4 6.2 6.2 0 0 1 0 12.4" fill="#fff83"/><path d="M-1.8-179.6a6.2 6.2 0 1 1 0-12.4 6.2 6.2 0 0 1 0 12.4" fill="#fff50083"/><path d="M-23.9-175.3a6.4 6.4 0 1 1 0-12.7 6.4 6.4 0 0 1 0 12.7" fill="#005bbb86"/><path d="M225.5-164.5a6.4 6.4 0 1 1 0-12.7 6.4 6.4 0 0 1 0 12.7" fill="#fff86"/><path d="M219.1-203.1a6.4 6.4 0 1 1 0-12.7 6.4 6.4 0 0 1 0 12.7" fill="#fff50087"/><path d="M-15.6-95a6.4 6.4 0 1 1 0-12.8 6.4 6.4 0 0 1 0 12.8" fill="#fff87"/><path d="M194.2-58.6a6.4 6.4 0 1 1 0-12.9 6.4 6.4 0 0 1 0 12.9" fill="#fff50088"/><path d="M-3.1-245.1a6.4 6.4 0 1 1 0-12.9 6.4 6.4 0 0 1 0 12.9" fill="#fff88"/><path d="M-32-110.5a6.5 6.5 0 1 1 0-13 6.5 6.5 0 0 1 0 13" fill="#c2e1ff89"/><path d="M-15.4-70.2a6.5 6.5 0 1 1 0-13.1 6.5 6.5 0 0 1 0 13.1" fill="#c2e1ff8A"/><path d="M209.4-252.3a6.5 6.5 0 1 1 0-13.1 6.5 6.5 0 0 1 0 13.1" fill="#fff5008A"/><path d="M41.8-19.3a6.6 6.6 0 1 1 0-13.2 6.6 6.6 0 0 1 0 13.2" fill="#005bbb8B"/><path d="M41.9-296a6.6 6.6 0 1 1 0-13.1 6.6 6.6 0 0 1 0 13.1" fill="#fff8C"/><path d="M250.5-185.3a6.6 6.6 0 1 1 0-13.3 6.6 6.6 0 0 1 0 13.3" fill="#c2e1ff8C"/><path d="M225.8-249.4a6.7 6.7 0 1 1 0-13.3 6.7 6.7 0 0 1 0 13.3" fill="#005bbb8D"/><path d="M234.8-72.4a6.7 6.7 0 1 1 0-13.4 6.7 6.7 0 0 1 0 13.4" fill="#c2e1ff8D"/><path d="M42.2-7.5a6.7 6.7 0 1 1 0-13.4 6.7 6.7 0 0 1 0 13.4" fill="#fff5008D"/><path d="M-63.7-109.9a6.8 6.8 0 1 1 0-13.6 6.8 6.8 0 0 1 0 13.6" fill="#fff90"/><path d="M-9.5-286.5a6.8 6.8 0 1 1 0-13.6 6.8 6.8 0 0 1 0 13.6" fill="#fff50091"/><path d="M-71.2-189.5a6.9 6.9 0 1 1 0-13.7 6.9 6.9 0 0 1 0 13.7" fill="#fff50092"/><path d="M-31.5-38.7a6.9 6.9 0 1 1 0-13.8 6.9 6.9 0 0 1 0 13.8" fill="#c2e1ff92"/><path d="M269.3-91.3a7 7 0 1 1 0-14 7 7 0 0 1 0 14" fill="#005bbb94"/><path d="M-25.5-23a7 7 0 1 1 0-14 7 7 0 0 1 0 14" fill="#fff94"/><path d="M68.5-337.1a7 7 0 1 1 0-14 7 7 0 0 1 0 14" fill="#fff50095"/><path d="M165.8-328.1a7 7 0 1 1 0-14.1 7 7 0 0 1 0 14.1" fill="#fff95"/><path d="M285.5-145.1a7 7 0 1 1 0-14.1 7 7 0 0 1 0 14.1" fill="#fff95"/><path d="M-69.8-79.2a7 7 0 1 1 0-14.1 7 7 0 0 1 0 14.1" fill="#fff50095"/><path d="M284.9-126.2a7.1 7.1 0 1 1 0-14.1 7.1 7.1 0 0 1 0 14.1" fill="#005bbb96"/><path d="M11.1 11.5a7.1 7.1 0 1 1 0-14.2 7.1 7.1 0 0 1 0 14.2" fill="#005bbb97"/><path d="M290.7-148.1a7.1 7.1 0 1 1 0-14.3 7.1 7.1 0 0 1 0 14.3" fill="#fff97"/><path d="M19.4 19.4a7.1 7.1 0 1 1 0-14.3 7.1 7.1 0 0 1 0 14.3" fill="#005bbb98"/><path d="M166.3-338.7a7.2 7.2 0 1 1 0-14.4 7.2 7.2 0 0 1 0 14.4" fill="#c2e1ff99"/><path d="M161.6-341.3a7.2 7.2 0 1 1 0-14.4 7.2 7.2 0 0 1 0 14.4" fill="#fff99"/><path d="M-65.4-268a7.3 7.3 0 1 1 0-14.6 7.3 7.3 0 0 1 0 14.6" fill="#c2e1ff9B"/><path d="M45-351.2a7.4 7.4 0 1 1 0-14.7 7.4 7.4 0 0 1 0 14.7" fill="#fff5009D"/><path d="M-66.9-275.3a7.4 7.4 0 1 1 0-14.8 7.4 7.4 0 0 1 0 14.8" fill="#005bbb9E"/><path d="M-20.9 15.6a7.5 7.5 0 1 1 0-15 7.5 7.5 0 0 1 0 15" fill="#fff9F"/><path d="M309.7-128.6a7.5 7.5 0 1 1 0-15.1 7.5 7.5 0 0 1 0 15.1" fill="#005bbbA0"/><path d="M143.4-362.1a7.5 7.5 0 1 1 0-15.1 7.5 7.5 0 0 1 0 15.1" fill="#c2e1ffA1"/><path d="M146.1-362.2a7.6 7.6 0 1 1 0-15.1 7.6 7.6 0 0 1 0 15.1" fill="#c2e1ffA1"/><path d="M307.6-203a7.6 7.6 0 1 1 0-15.2 7.6 7.6 0 0 1 0 15.2" fill="#c2e1ffA1"/><path d="M253.4-6.6a7.6 7.6 0 1 1 0-15.2 7.6 7.6 0 0 1 0 15.2" fill="#fff500A2"/><path d="M-108.4-105.8a7.6 7.6 0 1 1 0-15.3 7.6 7.6 0 0 1 0 15.3" fill="#fffA2"/><path d="M80.3-369.8a7.7 7.7 0 1 1 0-15.3 7.7 7.7 0 0 1 0 15.3" fill="#fffA3"/><path d="M239.6 10a7.7 7.7 0 1 1 0-15.3 7.7 7.7 0 0 1 0 15.3" fill="#c2e1ffA3"/><path d="M178.3 48.7a7.7 7.7 0 1 1 0-15.5 7.7 7.7 0 0 1 0 15.5" fill="#fff500A4"/><path d="M185.1 46a7.7 7.7 0 1 1 0-15.5 7.7 7.7 0 0 1 0 15.5" fill="#005bbbA4"/><path d="M-97.8-61.2a7.7 7.7 0 1 1 0-15.5 7.7 7.7 0 0 1 0 15.5" fill="#c2e1ffA5"/><path d="M194.5 46a7.8 7.8 0 1 1 0-15.7 7.8 7.8 0 0 1 0 15.7" fill="#fff500A7"/><path d="M41.3-370a7.9 7.9 0 1 1 0-15.8 7.9 7.9 0 0 1 0 15.8" fill="#fff500A8"/><path d="M-86.9-276.9a7.9 7.9 0 1 1 0-15.8 7.9 7.9 0 0 1 0 15.8" fill="#fffA8"/><path d="M322.1-183a7.9 7.9 0 1 1 0-15.8 7.9 7.9 0 0 1 0 15.8" fill="#005bbbA9"/><path d="M-1.8-355.8a8 8 0 1 1 0-16 8 8 0 0 1 0 16" fill="#fffAA"/><path d="M269.5-4.3a8 8 0 1 1 0-16 8 8 0 0 1 0 16" fill="#005bbbAB"/><path d="M220.7 37.7a8 8 0 1 1 0-16 8 8 0 0 1 0 16" fill="#fff500AB"/><path d="M318.6-216.7a8.1 8.1 0 1 1 0-16.1 8.1 8.1 0 0 1 0 16.1" fill="#fff500AC"/><path d="M-109.3-244.9a8.1 8.1 0 1 1 0-16.2 8.1 8.1 0 0 1 0 16.2" fill="#c2e1ffAD"/><path d="M0.9-360.2a8.1 8.1 0 1 1 0-16.2 8.1 8.1 0 0 1 0 16.2" fill="#c2e1ffAD"/><path d="M304.3-51.8a8.1 8.1 0 1 1 0-16.3 8.1 8.1 0 0 1 0 16.3" fill="#fffAD"/><path d="M-43.5 24.9a8.2 8.2 0 1 1 0-16.4 8.2 8.2 0 0 1 0 16.4" fill="#fffAE"/><path d="M74.7 73.9a8.2 8.2 0 1 1 0-16.4 8.2 8.2 0 0 1 0 16.4" fill="#005bbbAE"/><path d="M-38.8 29.9a8.2 8.2 0 1 1 0-16.5 8.2 8.2 0 0 1 0 16.5" fill="#005bbbAF"/><path d="M-117.9-76.5a8.3 8.3 0 1 1 0-16.5 8.3 8.3 0 0 1 0 16.5" fill="#fffB0"/><path d="M-130.2-123.3a8.3 8.3 0 1 1 0-16.6 8.3 8.3 0 0 1 0 16.6" fill="#c2e1ffB2"/><path d="M83.3 77.6a8.3 8.3 0 1 1 0-16.7 8.3 8.3 0 0 1 0 16.7" fill="#fff500B2"/><path d="M-67.4-315.8a8.3 8.3 0 1 1 0-16.7 8.3 8.3 0 0 1 0 16.7" fill="#c2e1ffB2"/><path d="M141.1 74.9a8.4 8.4 0 1 1 0-16.7 8.4 8.4 0 0 1 0 16.7" fill="#fffB2"/><path d="M27.8 67.7a8.4 8.4 0 1 1 0-16.8 8.4 8.4 0 0 1 0 16.8" fill="#fffB3"/><path d="M281-6.9a8.4 8.4 0 1 1 0-16.8 8.4 8.4 0 0 1 0 16.8" fill="#fffB3"/><path d="M21.8 66a8.4 8.4 0 1 1 0-16.8 8.4 8.4 0 0 1 0 16.8" fill="#fffB4"/><path d="M257.9-327a8.5 8.5 0 1 1 0-16.9 8.5 8.5 0 0 1 0 16.9" fill="#fffB5"/><path d="M254.9-329.9a8.5 8.5 0 1 1 0-17 8.5 8.5 0 0 1 0 17" fill="#fff500B5"/><path d="M261-324.9a8.5 8.5 0 1 1 0-17.1 8.5 8.5 0 0 1 0 17.1" fill="#005bbbB6"/><path d="M335-153.9a8.6 8.6 0 1 1 0-17.2 8.6 8.6 0 0 1 0 17.2" fill="#fffB7"/><path d="M312.5-53.1a8.6 8.6 0 1 1 0-17.2 8.6 8.6 0 0 1 0 17.2" fill="#fff500B7"/><path d="M-117-245a8.6 8.6 0 1 1 0-17.2 8.6 8.6 0 0 1 0 17.2" fill="#c2e1ffB8"/><path d="M-135-136.5a8.6 8.6 0 1 1 0-17.3 8.6 8.6 0 0 1 0 17.3" fill="#fffB9"/><path d="M163.8 73.2a8.7 8.7 0 1 1 0-17.4 8.7 8.7 0 0 1 0 17.4" fill="#c2e1ffB9"/><path d="M-133.4-190a8.8 8.8 0 1 1 0-17.6 8.8 8.8 0 0 1 0 17.6" fill="#005bbbBC"/><path d="M125.5 81.2a8.8 8.8 0 1 1 0-17.7 8.8 8.8 0 0 1 0 17.7" fill="#c2e1ffBD"/><path d="M-117.7-61.8a8.9 8.9 0 1 1 0-17.7 8.9 8.9 0 0 1 0 17.7" fill="#fffBE"/><path d="M-80.7-305.8a8.9 8.9 0 1 1 0-17.7 8.9 8.9 0 0 1 0 17.7" fill="#fff500BE"/><path d="M-125.3-82.7a8.9 8.9 0 1 1 0-17.8 8.9 8.9 0 0 1 0 17.8" fill="#fff500BF"/><path d="M287.5-10.1a9 9 0 1 1 0-17.9 9 9 0 0 1 0 17.9" fill="#fffC0"/><path d="M136 79.7a9 9 0 1 1 0-18 9 9 0 0 1 0 18" fill="#fffC0"/><path d="M298.3-281.1a9 9 0 1 1 0-18.1 9 9 0 0 1 0 18.1" fill="#005bbbC1"/><path d="M145.1 78a9 9 0 1 1 0-18.1 9 9 0 0 1 0 18.1" fill="#fff500C1"/><path d="M268.8 11.3a9 9 0 1 1 0-18.1 9 9 0 0 1 0 18.1" fill="#fffC1"/><path d="M302-275.2a9 9 0 1 1 0-18 9 9 0 0 1 0 18" fill="#005bbbC1"/><path d="M-119.7-68.6a9.1 9.1 0 1 1 0-18.2 9.1 9.1 0 0 1 0 18.2" fill="#c2e1ffC3"/><path d="M-135-165.8a9.1 9.1 0 1 1 0-18.2 9.1 9.1 0 0 1 0 18.2" fill="#fffC3"/><path d="M318-240.1a9.2 9.2 0 1 1 0-18.4 9.2 9.2 0 0 1 0 18.4" fill="#fff500C5"/><path d="M172-375.4a9.3 9.3 0 1 1 0-18.6 9.3 9.3 0 0 1 0 18.6" fill="#005bbbC7"/><path d="M304.7-41.9a9.4 9.4 0 1 1 0-18.7 9.4 9.4 0 0 1 0 18.7" fill="#c2e1ffC8"/><path d="M-37.2 33.9a9.4 9.4 0 1 1 0-18.8 9.4 9.4 0 0 1 0 18.8" fill="#c2e1ffCA"/><path d="M247.7-331.2a9.5 9.5 0 1 1 0-18.9 9.5 9.5 0 0 1 0 18.9" fill="#c2e1ffCB"/><path d="M32-374.2a9.5 9.5 0 1 1 0-18.9 9.5 9.5 0 0 1 0 18.9" fill="#fffCB"/><path d="M33.1 68.4a9.5 9.5 0 1 1 0-18.9 9.5 9.5 0 0 1 0 18.9" fill="#005bbbCB"/><path d="M293.4-26.7a9.5 9.5 0 1 1 0-18.9 9.5 9.5 0 0 1 0 18.9" fill="#005bbbCB"/><path d="M-128.6-122.5a9.5 9.5 0 1 1 0-19 9.5 9.5 0 0 1 0 19" fill="#fff500CC"/><path d="M245.5 25.9a9.5 9.5 0 1 1 0-19 9.5 9.5 0 0 1 0 19" fill="#005bbbCC"/><path d="M-107.2-52.2a9.5 9.5 0 1 1 0-19 9.5 9.5 0 0 1 0 19" fill="#005bbbCC"/><path d="M16.5-367.5a9.5 9.5 0 1 1 0-19 9.5 9.5 0 0 1 0 19" fill="#fff500CC"/><path d="M303.7-259.9a9.5 9.5 0 1 1 0-19 9.5 9.5 0 0 1 0 19" fill="#fff500CC"/><path d="M-129.6-166.9a9.5 9.5 0 1 1 0-19.1 9.5 9.5 0 0 1 0 19.1" fill="#fff500CC"/><path d="M325.7-196.5a9.5 9.5 0 1 1 0-19.1 9.5 9.5 0 0 1 0 19.1" fill="#c2e1ffCD"/><path d="M257.6 12.4a9.6 9.6 0 1 1 0-19.3 9.6 9.6 0 0 1 0 19.3" fill="#c2e1ffCE"/><path d="M-70.1-305.2a9.6 9.6 0 1 1 0-19.2 9.6 9.6 0 0 1 0 19.2" fill="#fff500CE"/><path d="M140.5-377.2a9.6 9.6 0 1 1 0-19.3 9.6 9.6 0 0 1 0 19.3" fill="#fff500CF"/><path d="M224.2-340.6a9.8 9.8 0 1 1 0-19.5 9.8 9.8 0 0 1 0 19.5" fill="#c2e1ffD1"/><path d="M198.6-353.1a9.8 9.8 0 1 1 0-19.7 9.8 9.8 0 0 1 0 19.7" fill="#c2e1ffD3"/><path d="M212.4-345.6a9.8 9.8 0 1 1 0-19.6 9.8 9.8 0 0 1 0 19.6" fill="#fffD3"/><path d="M17.6 54.4a9.8 9.8 0 1 1 0-19.7 9.8 9.8 0 0 1 0 19.7" fill="#fffD3"/><path d="M131.6-373a9.8 9.8 0 1 1 0-19.7 9.8 9.8 0 0 1 0 19.7" fill="#c2e1ffD3"/><path d="M95.5 67.2a9.9 9.9 0 1 1 0-19.9 9.9 9.9 0 0 1 0 19.9" fill="#c2e1ffD5"/><path d="M42.7-363.7a10 10 0 1 1 0-20 10 10 0 0 1 0 20" fill="#005bbbD6"/><path d="M283.8-270a10 10 0 1 1 0-20 10 10 0 0 1 0 20" fill="#fffD6"/><path d="M-112.7-107.7a10 10 0 1 1 0-20 10 10 0 0 1 0 20" fill="#c2e1ffD7"/><path d="M6.4 43.5a10 10 0 1 1 0-20.1 10 10 0 0 1 0 20.1" fill="#fff500D7"/><path d="M70.2 61.3a10.1 10.1 0 1 1 0-20.2 10.1 10.1 0 0 1 0 20.2" fill="#c2e1ffD8"/><path d="M-86-43.9a10.1 10.1 0 1 1 0-20.2 10.1 10.1 0 0 1 0 20.2" fill="#fffD8"/><path d="M151.3 54.5a10.1 10.1 0 1 1 0-20.3 10.1 10.1 0 0 1 0 20.3" fill="#c2e1ffDA"/><path d="M6.4-342.8a10.2 10.2 0 1 1 0-20.3 10.2 10.2 0 0 1 0 20.3" fill="#005bbbDA"/><path d="M295.3-231a10.2 10.2 0 1 1 0-20.4 10.2 10.2 0 0 1 0 20.4" fill="#c2e1ffDB"/><path d="M279.1-45.7a10.3 10.3 0 1 1 0-20.5 10.3 10.3 0 0 1 0 20.5" fill="#c2e1ffDC"/><path d="M25.6-346.8a10.3 10.3 0 1 1 0-20.5 10.3 10.3 0 0 1 0 20.5" fill="#fff500DC"/><path d="M-3 27.9a10.3 10.3 0 1 1 0-20.5 10.3 10.3 0 0 1 0 20.5" fill="#fff500DD"/><path d="M126.2 52.4a10.3 10.3 0 1 1 0-20.6 10.3 10.3 0 0 1 0 20.6" fill="#c2e1ffDD"/><path d="M262.7-277.6a10.3 10.3 0 1 1 0-20.6 10.3 10.3 0 0 1 0 20.6" fill="#fff500DE"/><path d="M213.6 18.2a10.3 10.3 0 1 1 0-20.7 10.3 10.3 0 0 1 0 20.7" fill="#fffDE"/><path d="M303.9-143a10.3 10.3 0 1 1 0-20.7 10.3 10.3 0 0 1 0 20.7" fill="#005bbbDE"/><path d="M-102.6-157.4a10.4 10.4 0 1 1 0-20.8 10.4 10.4 0 0 1 0 20.8" fill="#c2e1ffDF"/><path d="M299.1-178.7a10.4 10.4 0 1 1 0-20.8 10.4 10.4 0 0 1 0 20.8" fill="#c2e1ffE0"/><path d="M-16.6-307a10.5 10.5 0 1 1 0-21.1 10.5 10.5 0 0 1 0 21.1" fill="#005bbbE3"/><path d="M268.3-57.7a10.6 10.6 0 1 1 0-21.2 10.6 10.6 0 0 1 0 21.2" fill="#005bbbE3"/><path d="M275.7-224a10.6 10.6 0 1 1 0-21.2 10.6 10.6 0 0 1 0 21.2" fill="#c2e1ffE4"/><path d="M-89.1-148.4a10.6 10.6 0 1 1 0-21.3 10.6 10.6 0 0 1 0 21.3" fill="#c2e1ffE4"/><path d="M-65.6-77.6a10.8 10.8 0 1 1 0-21.5 10.8 10.8 0 0 1 0 21.5" fill="#005bbbE7"/><path d="M184.7-310.5a10.8 10.8 0 1 1 0-21.5 10.8 10.8 0 0 1 0 21.5" fill="#c2e1ffE8"/><path d="M-25.8-24.8a10.8 10.8 0 1 1 0-21.6 10.8 10.8 0 0 1 0 21.6" fill="#fffE8"/><path d="M249.7-248.7a10.8 10.8 0 1 1 0-21.6 10.8 10.8 0 0 1 0 21.6" fill="#c2e1ffE8"/><path d="M-41.5-47.4a10.8 10.8 0 1 1 0-21.7 10.8 10.8 0 0 1 0 21.7" fill="#c2e1ffE9"/><path d="M215.7-282a10.9 10.9 0 1 1 0-21.7 10.9 10.9 0 0 1 0 21.7" fill="#fffE9"/><path d="M78.8-323.5a10.9 10.9 0 1 1 0-21.7 10.9 10.9 0 0 1 0 21.7" fill="#c2e1ffEA"/><path d="M-68.5-120a10.9 10.9 0 1 1 0-21.7 10.9 10.9 0 0 1 0 21.7" fill="#c2e1ffEA"/><path d="M249.8-71.8a10.9 10.9 0 1 1 0-21.8 10.9 10.9 0 0 1 0 21.8" fill="#fff500EB"/><path d="M23.7-301.1a10.9 10.9 0 1 1 0-21.9 10.9 10.9 0 0 1 0 21.9" fill="#fffEB"/><path d="M-65.4-137.1a11 11 0 1 1 0-22 11 11 0 0 1 0 22" fill="#c2e1ffEC"/><path d="M142.3-305a11 11 0 1 1 0-22.1 11 11 0 0 1 0 22.1" fill="#fff500EE"/><path d="M135.6 2.3a11.1 11.1 0 1 1 0-22.1 11.1 11.1 0 0 1 0 22.1" fill="#005bbbEE"/><path d="M-34.6-228.7a11.1 11.1 0 1 1 0-22.2 11.1 11.1 0 0 1 0 22.2" fill="#fff500EF"/><path d="M-29.3-66.3a11.1 11.1 0 1 1 0-22.1 11.1 11.1 0 0 1 0 22.1" fill="#fffEF"/><path d="M177.3-17.7a11.1 11.1 0 1 1 0-22.2 11.1 11.1 0 0 1 0 22.2" fill="#005bbbEF"/><path d="M27.7-286.9a11.1 11.1 0 1 1 0-22.2 11.1 11.1 0 0 1 0 22.2" fill="#005bbbEF"/><path d="M-27.2-74.5a11.2 11.2 0 1 1 0-22.3 11.2 11.2 0 0 1 0 22.3" fill="#c2e1ffF0"/><path d="M146.2-290.6a11.2 11.2 0 1 1 0-22.3 11.2 11.2 0 0 1 0 22.3" fill="#005bbbF0"/><path d="M185.4-35a11.2 11.2 0 1 1 0-22.4 11.2 11.2 0 0 1 0 22.4" fill="#005bbbF1"/><path d="M242.2-170.3a11.2 11.2 0 1 1 0-22.4 11.2 11.2 0 0 1 0 22.4" fill="#fffF1"/><path d="M0.4-65.2a11.3 11.3 0 1 1 0-22.6 11.3 11.3 0 0 1 0 22.6" fill="#c2e1ffF3"/><path d="M-22.2-109.9a11.3 11.3 0 1 1 0-22.7 11.3 11.3 0 0 1 0 22.7" fill="#fff500F4"/><path d="M208.7-211.8a11.4 11.4 0 1 1 0-22.8 11.4 11.4 0 0 1 0 22.8" fill="#fff500F5"/><path d="M-8.2-97a11.4 11.4 0 1 1 0-22.8 11.4 11.4 0 0 1 0 22.8" fill="#fff500F5"/><path d="M214.5-136.6a11.4 11.4 0 1 1 0-22.9 11.4 11.4 0 0 1 0 22.9" fill="#fff500F6"/><path d="M-13.9-150.1a11.4 11.4 0 1 1 0-22.9 11.4 11.4 0 0 1 0 22.9" fill="#fffF6"/><path d="M146.2-56.2a11.5 11.5 0 1 1 0-23 11.5 11.5 0 0 1 0 23" fill="#fff500F8"/><path d="M202.3-142a11.5 11.5 0 1 1 0-23.1 11.5 11.5 0 0 1 0 23.1" fill="#fffF8"/><path d="M88.6-250.4a11.5 11.5 0 1 1 0-23.1 11.5 11.5 0 0 1 0 23.1" fill="#fff500F8"/><path d="M14.7-134a11.6 11.6 0 1 1 0-23.2 11.6 11.6 0 0 1 0 23.2" fill="#c2e1ffFA"/><path d="M16.7-131.9a11.6 11.6 0 1 1 0-23.3 11.6 11.6 0 0 1 0 23.3" fill="#fffFA"/><path d="M113.5-218.6a11.7 11.7 0 1 1 0-23.4 11.7 11.7 0 0 1 0 23.4" fill="#fff500FC"/><path d="M95.2-193.7a11.8 11.8 0 1 1 0-23.5 11.8 11.8 0 0 1 0 23.5" fill="#c2e1ffFD"/><path d="M122.3-119.4a11.8 11.8 0 1 1 0-23.5 11.8 11.8 0 0 1 0 23.5" fill="#c2e1ffFE"/><path d="M125-166.5a11.8 11.8 0 1 1 0-23.6 11.8 11.8 0 0 1 0 23.6" fill="#005bbbFE"/><path d="M111.9-133.3a11.8 11.8 0 1 1 0-23.6 11.8 11.8 0 0 1 0 23.6" fill="#fff500FE"/></g></svg>