<svg width="1200" height="675" viewBox="-500 -500 1200 675" xmlns="http://www.w3.org/2000/svg"><path d="M-500-500h1200v675h-1200z" fill="#000"/><style>.sparkles path{stroke-linecap:round; stroke-width:1}</style><g class="sparkles"><path d="M100-162.5l18.6 3.4" stroke="#c2e1ff32"/><path d="M100-162.5l6.6-23.5" stroke="#c2e1ff32"/><path d="M100-162.5l25.4 7.8" stroke="#fff50032"/><path d="M100-162.5l-30.5-1.3" stroke="#fff50032"/><path d="M100-162.5l48.1 0" stroke="#fff50033"/><path d="M100-162.5l-5.7 48.6" stroke="#005bbb33"/><path d="M100-162.5l40.8 30.3" stroke="#fff33"/><path d="M100-162.5l22.1 59" stroke="#005bbb33"/><path d="M100-162.5l51.8-45.6" stroke="#fff50034"/><path d="M100-162.5l-50 52" stroke="#fff50034"/><path d="M100-162.5l73.2 21.9" stroke="#fff50034"/><path d="M100-162.5l-58.3-54.6" stroke="#c2e1ff34"/><path d="M100-162.5l-51.9 69" stroke="#fff50035"/><path d="M100-162.5l-96.5-23.7" stroke="#005bbb36"/><path d="M100-162.5l-68.9-77.7" stroke="#005bbb37"/><path d="M100-162.5l-15.6 105.8" stroke="#c2e1ff37"/><path d="M100-162.5l0.8 114" stroke="#fff38"/><path d="M100-162.5l-74.2-96.7" stroke="#fff39"/><path d="M100-162.5l-69.2-102.6" stroke="#c2e1ff39"/><path d="M100-162.5l33.1 123.3" stroke="#fff50039"/><path d="M100-162.5l-68.7 111.9" stroke="#c2e1ff3A"/><path d="M100-162.5l43.2-138.6" stroke="#c2e1ff3C"/><path d="M100-162.5l-138.2 52.6" stroke="#fff5003D"/><path d="M100-162.5l140.6 68.1" stroke="#fff5003E"/><path d="M100-162.5l105.6 117.3" stroke="#fff3E"/><path d="M100-162.5l156.9-19.9" stroke="#fff3E"/><path d="M100-162.5l160.2-30.7" stroke="#fff5003F"/><path d="M100-162.5l1.3 168.9" stroke="#fff41"/><path d="M100-162.5l152.8-77.6" stroke="#c2e1ff41"/><path d="M100-162.5l-141.1-98.6" stroke="#005bbb41"/><path d="M100-162.5l-103.5 139.4" stroke="#005bbb42"/><path d="M100-162.5l-21.1 172.4" stroke="#fff42"/><path d="M100-162.5l150.9 88.5" stroke="#fff50042"/><path d="M100-162.5l146.7 110.2" stroke="#fff44"/><path d="M100-162.5l-139.2 121.6" stroke="#c2e1ff44"/><path d="M100-162.5l186.6 1.5" stroke="#005bbb45"/><path d="M100-162.5l-185.7-21.1" stroke="#fff45"/><path d="M100-162.5l-85-169.3" stroke="#fff50046"/><path d="M100-162.5l79.3 177.8" stroke="#c2e1ff47"/><path d="M100-162.5l-190.3-45.5" stroke="#fff47"/><path d="M100-162.5l-49.5 190.3" stroke="#c2e1ff48"/><path d="M100-162.5l-64.3 186.9" stroke="#c2e1ff48"/><path d="M100-162.5l-186.2-70" stroke="#fff49"/><path d="M100-162.5l-14.1-201.7" stroke="#c2e1ff4A"/><path d="M100-162.5l108.4-171.3" stroke="#fff4A"/><path d="M100-162.5l205.3-5.7" stroke="#c2e1ff4B"/><path d="M100-162.5l175.7 107.2" stroke="#005bbb4B"/><path d="M100-162.5l201.1-50.2" stroke="#fff4C"/><path d="M100-162.5l-104.7-179.7" stroke="#fff4C"/><path d="M100-162.5l189.8 88.9" stroke="#005bbb4C"/><path d="M100-162.5l-114.1-176.8" stroke="#fff5004D"/><path d="M100-162.5l-148-157" stroke="#c2e1ff4F"/><path d="M100-162.5l-190.2-103.1" stroke="#c2e1ff4F"/><path d="M100-162.5l-207.4 66.7" stroke="#fff50"/><path d="M100-162.5l-213.1-47.6" stroke="#005bbb50"/><path d="M100-162.5l142.2-166.6" stroke="#c2e1ff51"/><path d="M100-162.5l-218.2 29.8" stroke="#c2e1ff51"/><path d="M100-162.5l45.7 218.2" stroke="#005bbb53"/><path d="M100-162.5l-191 115.1" stroke="#fff50053"/><path d="M100-162.5l-171.4 143" stroke="#fff53"/><path d="M100-162.5l-136.1-178.7" stroke="#fff50054"/><path d="M100-162.5l-27.5-223.1" stroke="#fff50054"/><path d="M100-162.5l211.1 77.5" stroke="#c2e1ff54"/><path d="M100-162.5l-185.3 130.1" stroke="#c2e1ff55"/><path d="M100-162.5l-221.2-52.6" stroke="#005bbb56"/><path d="M100-162.5l-117.9 195" stroke="#fff56"/><path d="M100-162.5l-70.3 216.8" stroke="#fff56"/><path d="M100-162.5l225.4 37.8" stroke="#005bbb57"/><path d="M100-162.5l209.1-92.4" stroke="#fff57"/><path d="M100-162.5l226.8 35" stroke="#005bbb58"/><path d="M100-162.5l-199.6-115.8" stroke="#c2e1ff59"/><path d="M100-162.5l143.6 182.2" stroke="#fff5005A"/><path d="M100-162.5l226.5-54.3" stroke="#fff5B"/><path d="M100-162.5l53-228.4" stroke="#fff5D"/><path d="M100-162.5l21.3 234" stroke="#fff5005E"/><path d="M100-162.5l-135.8-192" stroke="#005bbb5F"/><path d="M100-162.5l10.7-235.3" stroke="#005bbb60"/><path d="M100-162.5l167.9 165.6" stroke="#005bbb61"/><path d="M100-162.5l30.4-233.9" stroke="#fff61"/><path d="M100-162.5l-142.2 188.4" stroke="#c2e1ff62"/><path d="M100-162.5l-121.9 202.3" stroke="#005bbb62"/><path d="M100-162.5l-234.4-29" stroke="#c2e1ff63"/><path d="M100-162.5l-46.4 231.7" stroke="#fff50063"/><path d="M100-162.5l-230.8 50.7" stroke="#fff50063"/><path d="M100-162.5l220.1-85.8" stroke="#c2e1ff63"/><path d="M100-162.5l65.8-226.9" stroke="#fff50064"/><path d="M100-162.5l-178.1 155.2" stroke="#fff64"/><path d="M100-162.5l79.9-222.3" stroke="#fff64"/><path d="M100-162.5l155.2-178" stroke="#005bbb65"/><path d="M100-162.5l-235.9-9.9" stroke="#fff65"/><path d="M100-162.5l8.5-235.9" stroke="#005bbb65"/><path d="M100-162.5l176.9-156" stroke="#fff50067"/><path d="M100-162.5l-108.6 209.2" stroke="#c2e1ff67"/><path d="M100-162.5l3.4-235.5" stroke="#005bbb67"/><path d="M100-162.5l230.4-40.7" stroke="#fff5006A"/><path d="M100-162.5l83.3 218.5" stroke="#c2e1ff6B"/><path d="M100-162.5l-228.5 49.9" stroke="#c2e1ff6B"/><path d="M100-162.5l187.7 139.4" stroke="#fff5006B"/><path d="M100-162.5l151.9-176.7" stroke="#fff6C"/><path d="M100-162.5l-27.2-230.6" stroke="#fff6D"/><path d="M100-162.5l-150.9-173.5" stroke="#fff6F"/><path d="M100-162.5l-189.8 129.6" stroke="#c2e1ff6F"/><path d="M100-162.5l-187.9 132.2" stroke="#005bbb6F"/><path d="M100-162.5l75.9 216.7" stroke="#c2e1ff6F"/><path d="M100-162.5l-226.8 32.6" stroke="#005bbb70"/><path d="M100-162.5l228.6-10" stroke="#c2e1ff70"/><path d="M100-162.5l-159.4 163.7" stroke="#c2e1ff70"/><path d="M100-162.5l-226.5 29.3" stroke="#c2e1ff70"/><path d="M100-162.5l216.8 68.3" stroke="#c2e1ff71"/><path d="M100-162.5l186.6-129.7" stroke="#005bbb71"/><path d="M100-162.5l43.2-222.8" stroke="#fff50071"/><path d="M100-162.5l-225.8 13" stroke="#005bbb72"/><path d="M100-162.5l-225.5 10.4" stroke="#fff72"/><path d="M100-162.5l-17.3-225.1" stroke="#c2e1ff72"/><path d="M100-162.5l137.5-178.8" stroke="#fff50072"/><path d="M100-162.5l-162.5-153.8" stroke="#005bbb74"/><path d="M100-162.5l158.2-157.1" stroke="#fff50074"/><path d="M100-162.5l90 201.9" stroke="#005bbb75"/><path d="M100-162.5l216.5-16.5" stroke="#fff77"/><path d="M100-162.5l215.1 15.4" stroke="#c2e1ff78"/><path d="M100-162.5l-214.1 25.4" stroke="#fff78"/><path d="M100-162.5l121.6 176.8" stroke="#005bbb78"/><path d="M100-162.5l19.3-212.7" stroke="#fff79"/><path d="M100-162.5l-78.8-198.4" stroke="#005bbb79"/><path d="M100-162.5l-123.1 172.3" stroke="#c2e1ff7A"/><path d="M100-162.5l-78 196" stroke="#fff7A"/><path d="M100-162.5l61.7-201.7" stroke="#fff5007A"/><path d="M100-162.5l-118.4-174.1" stroke="#fff5007A"/><path d="M100-162.5l109.4-179.5" stroke="#fff7A"/><path d="M100-162.5l-187.3-91.6" stroke="#c2e1ff7B"/><path d="M100-162.5l203-30.5" stroke="#fff5007C"/><path d="M100-162.5l-205.2-0.4" stroke="#005bbb7C"/><path d="M100-162.5l17.3 202" stroke="#fff7D"/><path d="M100-162.5l-87.6-182.4" stroke="#fff7D"/><path d="M100-162.5l198.7-35.9" stroke="#c2e1ff7D"/><path d="M100-162.5l115.9 165.1" stroke="#005bbb7E"/><path d="M100-162.5l151.9-124.3" stroke="#005bbb7F"/><path d="M100-162.5l-177.5-80.1" stroke="#005bbb80"/><path d="M100-162.5l68.9 178.2" stroke="#fff50081"/><path d="M100-162.5l35.4 187.1" stroke="#005bbb81"/><path d="M100-162.5l-143.8-116.8" stroke="#fff83"/><path d="M100-162.5l180.8-26.3" stroke="#005bbb83"/><path d="M100-162.5l-115.8 140.5" stroke="#005bbb83"/><path d="M100-162.5l137.3 117" stroke="#005bbb84"/><path d="M100-162.5l-36.9 174.5" stroke="#c2e1ff84"/><path d="M100-162.5l138.6-111.6" stroke="#fff84"/><path d="M100-162.5l134.5-115.7" stroke="#c2e1ff85"/><path d="M100-162.5l174.8 15.3" stroke="#fff50085"/><path d="M100-162.5l-17.6 173.7" stroke="#c2e1ff85"/><path d="M100-162.5l-153.7-82.4" stroke="#005bbb85"/><path d="M100-162.5l-165.8 20.8" stroke="#005bbb87"/><path d="M100-162.5l-146.7 78.8" stroke="#c2e1ff87"/><path d="M100-162.5l-128.3-98.3" stroke="#fff50088"/><path d="M100-162.5l38.9 156.1" stroke="#fff88"/><path d="M100-162.5l64.6-146.7" stroke="#005bbb88"/><path d="M100-162.5l-111.6 107.2" stroke="#005bbb89"/><path d="M100-162.5l-132.9 76.8" stroke="#c2e1ff8A"/><path d="M100-162.5l145.6 15.2" stroke="#005bbb8B"/><path d="M100-162.5l-120.8 82" stroke="#fff5008B"/><path d="M100-162.5l136.8-50.9" stroke="#005bbb8B"/><path d="M100-162.5l-137.3-45.7" stroke="#c2e1ff8B"/><path d="M100-162.5l-143-8.3" stroke="#c2e1ff8B"/><path d="M100-162.5l-127-61.3" stroke="#fff5008C"/><path d="M100-162.5l-124.9-59.5" stroke="#fff8C"/><path d="M100-162.5l-10.1-136.7" stroke="#005bbb8C"/><path d="M100-162.5l-52.1-115.6" stroke="#005bbb8E"/><path d="M100-162.5l-16.5-117.8" stroke="#fff8F"/><path d="M100-162.5l20.5-111.6" stroke="#005bbb8F"/><path d="M100-162.5l15.4 111.5" stroke="#fff8F"/><path d="M100-162.5l40.6 104.1" stroke="#005bbb90"/><path d="M100-162.5l-22.5 103" stroke="#c2e1ff90"/><path d="M100-162.5l-100.2 5.4" stroke="#005bbb91"/><path d="M100-162.5l-88-48" stroke="#005bbb91"/><path d="M100-162.5l14.5 99" stroke="#fff50091"/><path d="M100-162.5l85.4 46.7" stroke="#c2e1ff91"/><path d="M100-162.5l-89.8-16" stroke="#fff92"/><path d="M100-162.5l78.7-8.7" stroke="#c2e1ff93"/><path d="M100-162.5l17.8-60.3" stroke="#c2e1ff94"/><path d="M100-162.5l32-40.6" stroke="#fff94"/><path d="M100-162.5l41.7-27.1" stroke="#fff94"/><path d="M100-162.5l-15.1-9.7" stroke="#005bbb95"/></g><g class="sparcs"><path d="M118.6-153.2a5.9 5.9 0 1 1 0-11.8 5.9 5.9 0 0 1 0 11.8" fill="#c2e1ff7D"/><path d="M106.6-180.1a5.9 5.9 0 1 1 0-11.8 5.9 5.9 0 0 1 0 11.8" fill="#fff5007D"/><path d="M125.4-148.8a5.9 5.9 0 1 1 0-11.8 5.9 5.9 0 0 1 0 11.8" fill="#fff5007D"/><path d="M69.5-157.9a5.9 5.9 0 1 1 0-11.8 5.9 5.9 0 0 1 0 11.8" fill="#005bbb7D"/><path d="M148.1-156.5a6 6 0 1 1 0-12 6 6 0 0 1 0 12" fill="#fff5007E"/><path d="M94.3-108a6 6 0 1 1 0-11.9 6 6 0 0 1 0 11.9" fill="#fff7E"/><path d="M140.8-126.2a6 6 0 1 1 0-12 6 6 0 0 1 0 12" fill="#c2e1ff7E"/><path d="M122.1-97.5a6 6 0 1 1 0-12 6 6 0 0 1 0 12" fill="#fff7F"/><path d="M151.8-202a6 6 0 1 1 0-12.1 6 6 0 0 1 0 12.1" fill="#fff7F"/><path d="M50-104.4a6 6 0 1 1 0-12.1 6 6 0 0 1 0 12.1" fill="#fff80"/><path d="M173.2-134.5a6.1 6.1 0 1 1 0-12.2 6.1 6.1 0 0 1 0 12.2" fill="#005bbb80"/><path d="M41.7-211a6.1 6.1 0 1 1 0-12.2 6.1 6.1 0 0 1 0 12.2" fill="#c2e1ff80"/><path d="M48.1-87.4a6.1 6.1 0 1 1 0-12.2 6.1 6.1 0 0 1 0 12.2" fill="#c2e1ff81"/><path d="M3.5-180a6.2 6.2 0 1 1 0-12.4 6.2 6.2 0 0 1 0 12.4" fill="#fff50083"/><path d="M31.1-234a6.2 6.2 0 1 1 0-12.4 6.2 6.2 0 0 1 0 12.4" fill="#005bbb83"/><path d="M84.4-50.5a6.2 6.2 0 1 1 0-12.5 6.2 6.2 0 0 1 0 12.5" fill="#c2e1ff84"/><path d="M100.8-42.3a6.3 6.3 0 1 1 0-12.5 6.3 6.3 0 0 1 0 12.5" fill="#c2e1ff85"/><path d="M25.8-252.8a6.3 6.3 0 1 1 0-12.7 6.3 6.3 0 0 1 0 12.7" fill="#fff50086"/><path d="M30.8-258.7a6.3 6.3 0 1 1 0-12.7 6.3 6.3 0 0 1 0 12.7" fill="#005bbb86"/><path d="M133.1-32.8a6.4 6.4 0 1 1 0-12.8 6.4 6.4 0 0 1 0 12.8" fill="#c2e1ff87"/><path d="M31.3-44.2a6.4 6.4 0 1 1 0-12.8 6.4 6.4 0 0 1 0 12.8" fill="#fff50087"/><path d="M143.2-294.5a6.5 6.5 0 1 1 0-13.1 6.5 6.5 0 0 1 0 13.1" fill="#c2e1ff8A"/><path d="M-38.2-103.3a6.6 6.6 0 1 1 0-13.1 6.6 6.6 0 0 1 0 13.1" fill="#c2e1ff8B"/><path d="M240.6-87.7a6.6 6.6 0 1 1 0-13.3 6.6 6.6 0 0 1 0 13.3" fill="#fff5008D"/><path d="M205.6-38.5a6.7 6.7 0 1 1 0-13.3 6.7 6.7 0 0 1 0 13.3" fill="#fff8D"/><path d="M256.9-175.7a6.7 6.7 0 1 1 0-13.4 6.7 6.7 0 0 1 0 13.4" fill="#fff8D"/><path d="M260.2-186.4a6.7 6.7 0 1 1 0-13.5 6.7 6.7 0 0 1 0 13.5" fill="#005bbb8E"/><path d="M101.3 13.2a6.8 6.8 0 1 1 0-13.6 6.8 6.8 0 0 1 0 13.6" fill="#c2e1ff90"/><path d="M252.8-233.3a6.8 6.8 0 1 1 0-13.6 6.8 6.8 0 0 1 0 13.6" fill="#fff91"/><path d="M-41.1-254.2a6.8 6.8 0 1 1 0-13.7 6.8 6.8 0 0 1 0 13.7" fill="#fff91"/><path d="M-3.5-16.3a6.9 6.9 0 1 1 0-13.7 6.9 6.9 0 0 1 0 13.7" fill="#c2e1ff91"/><path d="M78.9 16.8a6.9 6.9 0 1 1 0-13.7 6.9 6.9 0 0 1 0 13.7" fill="#fff91"/><path d="M250.9-67.2a6.9 6.9 0 1 1 0-13.7 6.9 6.9 0 0 1 0 13.7" fill="#fff50092"/><path d="M246.7-45.3a7 7 0 1 1 0-14 7 7 0 0 1 0 14" fill="#fff50095"/><path d="M-39.2-33.9a7 7 0 1 1 0-14.1 7 7 0 0 1 0 14.1" fill="#fff50095"/><path d="M286.6-154a7 7 0 1 1 0-14.1 7 7 0 0 1 0 14.1" fill="#005bbb96"/><path d="M-85.7-176.5a7.1 7.1 0 1 1 0-14.1 7.1 7.1 0 0 1 0 14.1" fill="#005bbb96"/><path d="M15-324.8a7.1 7.1 0 1 1 0-14.1 7.1 7.1 0 0 1 0 14.1" fill="#c2e1ff97"/><path d="M179.3 22.4a7.2 7.2 0 1 1 0-14.3 7.2 7.2 0 0 1 0 14.3" fill="#005bbb99"/><path d="M-90.3-200.8a7.2 7.2 0 1 1 0-14.4 7.2 7.2 0 0 1 0 14.4" fill="#fff50099"/><path d="M50.5 35a7.2 7.2 0 1 1 0-14.4 7.2 7.2 0 0 1 0 14.4" fill="#005bbb99"/><path d="M35.7 31.7a7.2 7.2 0 1 1 0-14.5 7.2 7.2 0 0 1 0 14.5" fill="#fff9A"/><path d="M-86.2-225.2a7.3 7.3 0 1 1 0-14.6 7.3 7.3 0 0 1 0 14.6" fill="#005bbb9A"/><path d="M85.9-356.8a7.3 7.3 0 1 1 0-14.7 7.3 7.3 0 0 1 0 14.7" fill="#005bbb9C"/><path d="M208.4-326.5a7.3 7.3 0 1 1 0-14.6 7.3 7.3 0 0 1 0 14.6" fill="#c2e1ff9C"/><path d="M305.3-160.8a7.4 7.4 0 1 1 0-14.8 7.4 7.4 0 0 1 0 14.8" fill="#005bbb9D"/><path d="M275.7-47.8a7.4 7.4 0 1 1 0-14.9 7.4 7.4 0 0 1 0 14.9" fill="#fff5009E"/><path d="M301.1-205.2a7.4 7.4 0 1 1 0-14.9 7.4 7.4 0 0 1 0 14.9" fill="#fff9E"/><path d="M-4.7-334.8a7.5 7.5 0 1 1 0-14.9 7.5 7.5 0 0 1 0 14.9" fill="#fff9F"/><path d="M289.8-66.2a7.5 7.5 0 1 1 0-14.9 7.5 7.5 0 0 1 0 14.9" fill="#fffA0"/><path d="M-14.1-331.8a7.5 7.5 0 1 1 0-15.1 7.5 7.5 0 0 1 0 15.1" fill="#005bbbA0"/><path d="M-48-311.8a7.7 7.7 0 1 1 0-15.3 7.7 7.7 0 0 1 0 15.3" fill="#005bbbA3"/><path d="M-90.2-258a7.7 7.7 0 1 1 0-15.3 7.7 7.7 0 0 1 0 15.3" fill="#c2e1ffA3"/><path d="M-107.4-88.1a7.7 7.7 0 1 1 0-15.4 7.7 7.7 0 0 1 0 15.4" fill="#fff500A4"/><path d="M-113.1-202.3a7.7 7.7 0 1 1 0-15.5 7.7 7.7 0 0 1 0 15.5" fill="#fff500A5"/><path d="M242.2-321.3a7.8 7.8 0 1 1 0-15.5 7.8 7.8 0 0 1 0 15.5" fill="#005bbbA5"/><path d="M-118.2-124.9a7.8 7.8 0 1 1 0-15.6 7.8 7.8 0 0 1 0 15.6" fill="#c2e1ffA6"/><path d="M145.7 63.5a7.9 7.9 0 1 1 0-15.7 7.9 7.9 0 0 1 0 15.7" fill="#fffA8"/><path d="M-91-39.5a7.9 7.9 0 1 1 0-15.8 7.9 7.9 0 0 1 0 15.8" fill="#fffA8"/><path d="M-71.4-11.6a7.9 7.9 0 1 1 0-15.8 7.9 7.9 0 0 1 0 15.8" fill="#fff500A8"/><path d="M-36.1-333.2a7.9 7.9 0 1 1 0-15.9 7.9 7.9 0 0 1 0 15.9" fill="#005bbbA9"/><path d="M72.5-377.6a8 8 0 1 1 0-15.9 8 8 0 0 1 0 15.9" fill="#c2e1ffA9"/><path d="M311.1-77a8 8 0 1 1 0-15.9 8 8 0 0 1 0 15.9" fill="#fffAA"/><path d="M-85.3-24.4a8 8 0 1 1 0-16.1 8 8 0 0 1 0 16.1" fill="#c2e1ffAB"/><path d="M-121.2-207.1a8.1 8.1 0 1 1 0-16.1 8.1 8.1 0 0 1 0 16.1" fill="#c2e1ffAC"/><path d="M-17.9 40.6a8.1 8.1 0 1 1 0-16.2 8.1 8.1 0 0 1 0 16.2" fill="#c2e1ffAC"/><path d="M29.7 62.3a8.1 8.1 0 1 1 0-16.1 8.1 8.1 0 0 1 0 16.1" fill="#fff500AC"/><path d="M325.4-116.5a8.1 8.1 0 1 1 0-16.3 8.1 8.1 0 0 1 0 16.3" fill="#005bbbAD"/><path d="M309.1-246.8a8.1 8.1 0 1 1 0-16.2 8.1 8.1 0 0 1 0 16.2" fill="#c2e1ffAD"/><path d="M326.8-119.4a8.2 8.2 0 1 1 0-16.3 8.2 8.2 0 0 1 0 16.3" fill="#fffAE"/><path d="M-99.6-270.1a8.2 8.2 0 1 1 0-16.4 8.2 8.2 0 0 1 0 16.4" fill="#c2e1ffB0"/><path d="M243.6 28a8.3 8.3 0 1 1 0-16.6 8.3 8.3 0 0 1 0 16.6" fill="#005bbbB1"/><path d="M326.5-208.4a8.4 8.4 0 1 1 0-16.7 8.4 8.4 0 0 1 0 16.7" fill="#005bbbB3"/><path d="M153-382.4a8.5 8.5 0 1 1 0-17 8.5 8.5 0 0 1 0 17" fill="#c2e1ffB6"/><path d="M121.3 80.1a8.6 8.6 0 1 1 0-17.2 8.6 8.6 0 0 1 0 17.2" fill="#fff500B7"/><path d="M-35.8-346a8.6 8.6 0 1 1 0-17.1 8.6 8.6 0 0 1 0 17.1" fill="#c2e1ffB7"/><path d="M110.7-389.1a8.6 8.6 0 1 1 0-17.3 8.6 8.6 0 0 1 0 17.3" fill="#c2e1ffB8"/><path d="M267.9 11.8a8.7 8.7 0 1 1 0-17.3 8.7 8.7 0 0 1 0 17.3" fill="#fffBA"/><path d="M130.4-387.7a8.7 8.7 0 1 1 0-17.4 8.7 8.7 0 0 1 0 17.4" fill="#c2e1ffBA"/><path d="M-42.2 34.7a8.7 8.7 0 1 1 0-17.5 8.7 8.7 0 0 1 0 17.5" fill="#005bbbBB"/><path d="M-21.9 48.6a8.8 8.8 0 1 1 0-17.6 8.8 8.8 0 0 1 0 17.6" fill="#fffBC"/><path d="M-134.4-182.7a8.8 8.8 0 1 1 0-17.7 8.8 8.8 0 0 1 0 17.7" fill="#fff500BD"/><path d="M53.6 78a8.8 8.8 0 1 1 0-17.7 8.8 8.8 0 0 1 0 17.7" fill="#fff500BD"/><path d="M-130.8-103a8.8 8.8 0 1 1 0-17.7 8.8 8.8 0 0 1 0 17.7" fill="#c2e1ffBD"/><path d="M320.1-239.4a8.9 8.9 0 1 1 0-17.7 8.9 8.9 0 0 1 0 17.7" fill="#c2e1ffBD"/><path d="M165.8-380.5a8.9 8.9 0 1 1 0-17.8 8.9 8.9 0 0 1 0 17.8" fill="#005bbbBE"/><path d="M-78.1 1.6a8.9 8.9 0 1 1 0-17.8 8.9 8.9 0 0 1 0 17.8" fill="#c2e1ffBE"/><path d="M179.9-375.9a8.9 8.9 0 1 1 0-17.8 8.9 8.9 0 0 1 0 17.8" fill="#005bbbBF"/><path d="M255.2-331.5a8.9 8.9 0 1 1 0-17.9 8.9 8.9 0 0 1 0 17.9" fill="#fff500BF"/><path d="M-135.9-163.5a9 9 0 1 1 0-17.9 9 9 0 0 1 0 17.9" fill="#005bbbC0"/><path d="M108.5-389.5a9 9 0 1 1 0-17.9 9 9 0 0 1 0 17.9" fill="#fff500C0"/><path d="M276.9-309.4a9 9 0 1 1 0-18.1 9 9 0 0 1 0 18.1" fill="#c2e1ffC1"/><path d="M-8.6 55.7a9.1 9.1 0 1 1 0-18.1 9.1 9.1 0 0 1 0 18.1" fill="#c2e1ffC2"/><path d="M103.4-388.9a9.1 9.1 0 1 1 0-18.2 9.1 9.1 0 0 1 0 18.2" fill="#005bbbC3"/><path d="M330.4-193.9a9.3 9.3 0 1 1 0-18.5 9.3 9.3 0 0 1 0 18.5" fill="#c2e1ffC6"/><path d="M183.3 65.3a9.3 9.3 0 1 1 0-18.5 9.3 9.3 0 0 1 0 18.5" fill="#fff500C7"/><path d="M-128.5-103.3a9.3 9.3 0 1 1 0-18.6 9.3 9.3 0 0 1 0 18.6" fill="#005bbbC7"/><path d="M287.7-13.9a9.3 9.3 0 1 1 0-18.5 9.3 9.3 0 0 1 0 18.5" fill="#005bbbC7"/><path d="M251.9-329.8a9.3 9.3 0 1 1 0-18.7 9.3 9.3 0 0 1 0 18.7" fill="#005bbbC8"/><path d="M72.8-383.7a9.4 9.4 0 1 1 0-18.8 9.4 9.4 0 0 1 0 18.8" fill="#fff500CA"/><path d="M-50.9-326.5a9.5 9.5 0 1 1 0-19.1 9.5 9.5 0 0 1 0 19.1" fill="#c2e1ffCC"/><path d="M-89.8-23.4a9.5 9.5 0 1 1 0-19.1 9.5 9.5 0 0 1 0 19.1" fill="#fffCD"/><path d="M-87.9-20.7a9.5 9.5 0 1 1 0-19.1 9.5 9.5 0 0 1 0 19.1" fill="#fff500CD"/><path d="M175.9 63.8a9.6 9.6 0 1 1 0-19.2 9.6 9.6 0 0 1 0 19.2" fill="#005bbbCD"/><path d="M-126.8-120.3a9.6 9.6 0 1 1 0-19.1 9.6 9.6 0 0 1 0 19.1" fill="#fff500CD"/><path d="M328.6-162.9a9.6 9.6 0 1 1 0-19.2 9.6 9.6 0 0 1 0 19.2" fill="#fffCE"/><path d="M-59.4 10.8a9.6 9.6 0 1 1 0-19.2 9.6 9.6 0 0 1 0 19.2" fill="#c2e1ffCE"/><path d="M-126.5-123.6a9.6 9.6 0 1 1 0-19.2 9.6 9.6 0 0 1 0 19.2" fill="#fff500CE"/><path d="M316.8-84.5a9.7 9.7 0 1 1 0-19.3 9.7 9.7 0 0 1 0 19.3" fill="#c2e1ffCF"/><path d="M286.6-282.6a9.7 9.7 0 1 1 0-19.3 9.7 9.7 0 0 1 0 19.3" fill="#fff500CF"/><path d="M143.2-375.6a9.7 9.7 0 1 1 0-19.4 9.7 9.7 0 0 1 0 19.4" fill="#005bbbD0"/><path d="M-125.8-139.8a9.7 9.7 0 1 1 0-19.4 9.7 9.7 0 0 1 0 19.4" fill="#005bbbD0"/><path d="M-125.5-142.3a9.7 9.7 0 1 1 0-19.5 9.7 9.7 0 0 1 0 19.5" fill="#fffD1"/><path d="M82.7-377.8a9.7 9.7 0 1 1 0-19.5 9.7 9.7 0 0 1 0 19.5" fill="#fffD1"/><path d="M237.5-331.5a9.7 9.7 0 1 1 0-19.5 9.7 9.7 0 0 1 0 19.5" fill="#fffD1"/><path d="M-62.5-306.5a9.8 9.8 0 1 1 0-19.7 9.8 9.8 0 0 1 0 19.7" fill="#fffD2"/><path d="M258.2-309.7a9.8 9.8 0 1 1 0-19.7 9.8 9.8 0 0 1 0 19.7" fill="#fffD3"/><path d="M190 49.3a9.9 9.9 0 1 1 0-19.8 9.9 9.9 0 0 1 0 19.8" fill="#fff500D4"/><path d="M316.5-169a10 10 0 1 1 0-20.1 10 10 0 0 1 0 20.1" fill="#005bbbD7"/><path d="M315.1-137a10.1 10.1 0 1 1 0-20.2 10.1 10.1 0 0 1 0 20.2" fill="#c2e1ffD8"/><path d="M-114.1-127.1a10.1 10.1 0 1 1 0-20.1 10.1 10.1 0 0 1 0 20.1" fill="#c2e1ffD8"/><path d="M221.6 24.4a10.1 10.1 0 1 1 0-20.2 10.1 10.1 0 0 1 0 20.2" fill="#005bbbD9"/><path d="M119.3-365.1a10.1 10.1 0 1 1 0-20.2 10.1 10.1 0 0 1 0 20.2" fill="#c2e1ffD9"/><path d="M21.2-350.7a10.1 10.1 0 1 1 0-20.3 10.1 10.1 0 0 1 0 20.3" fill="#fffD9"/><path d="M-23.1 20a10.2 10.2 0 1 1 0-20.3 10.2 10.2 0 0 1 0 20.3" fill="#005bbbDA"/><path d="M22 43.7a10.2 10.2 0 1 1 0-20.3 10.2 10.2 0 0 1 0 20.3" fill="#c2e1ffDB"/><path d="M161.7-354a10.2 10.2 0 1 1 0-20.4 10.2 10.2 0 0 1 0 20.4" fill="#fff500DB"/><path d="M-18.4-326.4a10.2 10.2 0 1 1 0-20.4 10.2 10.2 0 0 1 0 20.4" fill="#fff500DB"/><path d="M209.4-331.8a10.2 10.2 0 1 1 0-20.4 10.2 10.2 0 0 1 0 20.4" fill="#c2e1ffDB"/><path d="M-87.3-243.8a10.2 10.2 0 1 1 0-20.5 10.2 10.2 0 0 1 0 20.5" fill="#005bbbDC"/><path d="M303-182.6a10.3 10.3 0 1 1 0-20.7 10.3 10.3 0 0 1 0 20.7" fill="#fff500DE"/><path d="M-105.2-152.6a10.3 10.3 0 1 1 0-20.7 10.3 10.3 0 0 1 0 20.7" fill="#fff500DE"/><path d="M117.3 49.9a10.4 10.4 0 1 1 0-20.8 10.4 10.4 0 0 1 0 20.8" fill="#c2e1ffDF"/><path d="M12.4-334.6a10.4 10.4 0 1 1 0-20.7 10.4 10.4 0 0 1 0 20.7" fill="#fffDF"/><path d="M298.7-188a10.4 10.4 0 1 1 0-20.8 10.4 10.4 0 0 1 0 20.8" fill="#fffDF"/><path d="M215.9 13a10.4 10.4 0 1 1 0-20.8 10.4 10.4 0 0 1 0 20.8" fill="#fff500DF"/><path d="M251.9-276.3a10.5 10.5 0 1 1 0-21 10.5 10.5 0 0 1 0 21" fill="#fffE2"/><path d="M-77.5-232.1a10.5 10.5 0 1 1 0-21 10.5 10.5 0 0 1 0 21" fill="#c2e1ffE2"/><path d="M168.9 26.3a10.6 10.6 0 1 1 0-21.2 10.6 10.6 0 0 1 0 21.2" fill="#005bbbE4"/><path d="M135.4 35.2a10.6 10.6 0 1 1 0-21.2 10.6 10.6 0 0 1 0 21.2" fill="#fffE4"/><path d="M-43.8-268.6a10.7 10.7 0 1 1 0-21.4 10.7 10.7 0 0 1 0 21.4" fill="#fff500E6"/><path d="M280.8-178.1a10.7 10.7 0 1 1 0-21.4 10.7 10.7 0 0 1 0 21.4" fill="#fff500E7"/><path d="M-15.8-11.2a10.7 10.7 0 1 1 0-21.5 10.7 10.7 0 0 1 0 21.5" fill="#fffE7"/><path d="M237.3-34.8a10.8 10.8 0 1 1 0-21.5 10.8 10.8 0 0 1 0 21.5" fill="#fffE7"/><path d="M63.1 22.8a10.8 10.8 0 1 1 0-21.6 10.8 10.8 0 0 1 0 21.6" fill="#fffE8"/><path d="M238.6-263.3a10.8 10.8 0 1 1 0-21.6 10.8 10.8 0 0 1 0 21.6" fill="#fffE8"/><path d="M234.5-267.4a10.8 10.8 0 1 1 0-21.6 10.8 10.8 0 0 1 0 21.6" fill="#fffE8"/><path d="M274.8-136.3a10.8 10.8 0 1 1 0-21.7 10.8 10.8 0 0 1 0 21.7" fill="#005bbbE9"/><path d="M82.4 22.1a10.8 10.8 0 1 1 0-21.7 10.8 10.8 0 0 1 0 21.7" fill="#fffE9"/><path d="M-53.7-234a10.9 10.9 0 1 1 0-21.7 10.9 10.9 0 0 1 0 21.7" fill="#005bbbE9"/><path d="M-65.8-130.8a10.9 10.9 0 1 1 0-21.9 10.9 10.9 0 0 1 0 21.9" fill="#c2e1ffEB"/><path d="M-46.7-72.8a11 11 0 1 1 0-21.9 11 11 0 0 1 0 21.9" fill="#fffEC"/><path d="M-28.3-249.7a11 11 0 1 1 0-22.1 11 11 0 0 1 0 22.1" fill="#fff500ED"/><path d="M138.9 4.7a11 11 0 1 1 0-22.1 11 11 0 0 1 0 22.1" fill="#fff500ED"/><path d="M164.6-298.2a11 11 0 1 1 0-22.1 11 11 0 0 1 0 22.1" fill="#fffED"/><path d="M-11.6-44.2a11.1 11.1 0 1 1 0-22.2 11.1 11.1 0 0 1 0 22.2" fill="#c2e1ffEF"/><path d="M-32.9-74.6a11.1 11.1 0 1 1 0-22.2 11.1 11.1 0 0 1 0 22.2" fill="#fff500EF"/><path d="M245.6-136.1a11.2 11.2 0 1 1 0-22.4 11.2 11.2 0 0 1 0 22.4" fill="#c2e1ffF1"/><path d="M-20.8-69.4a11.2 11.2 0 1 1 0-22.3 11.2 11.2 0 0 1 0 22.3" fill="#c2e1ffF1"/><path d="M236.8-202.2a11.2 11.2 0 1 1 0-22.4 11.2 11.2 0 0 1 0 22.4" fill="#fff500F1"/><path d="M-37.3-197a11.2 11.2 0 1 1 0-22.4 11.2 11.2 0 0 1 0 22.4" fill="#fffF1"/><path d="M-43-159.6a11.2 11.2 0 1 1 0-22.4 11.2 11.2 0 0 1 0 22.4" fill="#005bbbF1"/><path d="M-27-212.6a11.2 11.2 0 1 1 0-22.5 11.2 11.2 0 0 1 0 22.5" fill="#fffF2"/><path d="M-24.9-210.8a11.3 11.3 0 1 1 0-22.5 11.3 11.3 0 0 1 0 22.5" fill="#005bbbF2"/><path d="M89.9-287.9a11.3 11.3 0 1 1 0-22.5 11.3 11.3 0 0 1 0 22.5" fill="#005bbbF2"/><path d="M47.9-266.8a11.4 11.4 0 1 1 0-22.7 11.4 11.4 0 0 1 0 22.7" fill="#fffF4"/><path d="M83.5-268.8a11.4 11.4 0 1 1 0-22.9 11.4 11.4 0 0 1 0 22.9" fill="#fff500F6"/><path d="M120.5-262.7a11.4 11.4 0 1 1 0-22.9 11.4 11.4 0 0 1 0 22.9" fill="#005bbbF7"/><path d="M115.4-39.5a11.5 11.5 0 1 1 0-22.9 11.5 11.5 0 0 1 0 22.9" fill="#fff500F7"/><path d="M140.6-47a11.5 11.5 0 1 1 0-22.9 11.5 11.5 0 0 1 0 22.9" fill="#fff500F7"/><path d="M77.5-48a11.5 11.5 0 1 1 0-23 11.5 11.5 0 0 1 0 23" fill="#005bbbF8"/><path d="M-0.2-145.5a11.5 11.5 0 1 1 0-23.1 11.5 11.5 0 0 1 0 23.1" fill="#fff500F8"/><path d="M12-199a11.5 11.5 0 1 1 0-23.1 11.5 11.5 0 0 1 0 23.1" fill="#fffF8"/><path d="M114.5-52a11.5 11.5 0 1 1 0-23 11.5 11.5 0 0 1 0 23" fill="#c2e1ffF8"/><path d="M185.4-104.3a11.6 11.6 0 1 1 0-23.1 11.6 11.6 0 0 1 0 23.1" fill="#c2e1ffF9"/><path d="M10.2-167a11.6 11.6 0 1 1 0-23.1 11.6 11.6 0 0 1 0 23.1" fill="#c2e1ffF9"/><path d="M178.7-159.6a11.6 11.6 0 1 1 0-23.3 11.6 11.6 0 0 1 0 23.3" fill="#c2e1ffFB"/><path d="M117.8-211.1a11.7 11.7 0 1 1 0-23.4 11.7 11.7 0 0 1 0 23.4" fill="#005bbbFC"/><path d="M132-191.4a11.7 11.7 0 1 1 0-23.4 11.7 11.7 0 0 1 0 23.4" fill="#c2e1ffFD"/><path d="M141.7-177.9a11.7 11.7 0 1 1 0-23.5 11.7 11.7 0 0 1 0 23.5" fill="#005bbbFD"/><path d="M84.9-160.4a11.8 11.8 0 1 1 0-23.6 11.8 11.8 0 0 1 0 23.6" fill="#fff500FE"/></g></svg>