<svg width="1200" height="675" viewBox="-500 -500 1200 675" xmlns="http://www.w3.org/2000/svg"><path d="M-500-500h1200v675h-1200z" fill="#000"/><style>.sparkles path{stroke-linecap:round; stroke-width:1}</style><g class="sparkles"><path d="M100-162.5l-6.5 6.6" stroke="#ffffff32"/><path d="M100-162.5l-23.4 11.6" stroke="#ffffff32"/><path d="M100-162.5l24.5-23.2" stroke="#11223332"/><path d="M100-162.5l31.2-17.6" stroke="#e5e5e532"/><path d="M100-162.5l46.2 0" stroke="#14213d32"/><path d="M100-162.5l56.8-20.2" stroke="#fca31133"/><path d="M100-162.5l67 23.8" stroke="#fca31134"/><path d="M100-162.5l60.5 41.9" stroke="#e5e5e534"/><path d="M100-162.5l-4-79.8" stroke="#fca31134"/><path d="M100-162.5l-85.6-6.5" stroke="#e5e5e535"/><path d="M100-162.5l31.9 84.9" stroke="#fca31135"/><path d="M100-162.5l-94.6 18" stroke="#14213d36"/><path d="M100-162.5l86.2 45.8" stroke="#fca31136"/><path d="M100-162.5l100-12.2" stroke="#fca31136"/><path d="M100-162.5l-21.3 117.1" stroke="#fca31138"/><path d="M100-162.5l-51.9-108.2" stroke="#ffffff38"/><path d="M100-162.5l17.3 119.1" stroke="#11223338"/><path d="M100-162.5l-120.3 38" stroke="#ffffff39"/><path d="M100-162.5l116.9-48.5" stroke="#11223339"/><path d="M100-162.5l-128.3-33.3" stroke="#14213d3A"/><path d="M100-162.5l-59.9 123.2" stroke="#ffffff3B"/><path d="M100-162.5l-70.1-123.3" stroke="#e5e5e53C"/><path d="M100-162.5l135.5 51.6" stroke="#fca3113C"/><path d="M100-162.5l127.7 75" stroke="#e5e5e53D"/><path d="M100-162.5l146.1 57.1" stroke="#e5e5e53E"/><path d="M100-162.5l-90.9 128.5" stroke="#14213d3E"/><path d="M100-162.5l103.7 127.1" stroke="#11223340"/><path d="M100-162.5l-164.9 37.9" stroke="#ffffff41"/><path d="M100-162.5l142.9 90.8" stroke="#ffffff41"/><path d="M100-162.5l-78.8-150.4" stroke="#fca31141"/><path d="M100-162.5l-77.4 151.9" stroke="#e5e5e541"/><path d="M100-162.5l165.9 45.6" stroke="#11223341"/><path d="M100-162.5l-72.1-156.7" stroke="#e5e5e541"/><path d="M100-162.5l173.2 23.9" stroke="#14213d42"/><path d="M100-162.5l39.2 171.8" stroke="#14213d42"/><path d="M100-162.5l166.1 60.3" stroke="#ffffff42"/><path d="M100-162.5l34.1-177.8" stroke="#ffffff43"/><path d="M100-162.5l-161.1 86.6" stroke="#11223344"/><path d="M100-162.5l116.5 146.5" stroke="#e5e5e545"/><path d="M100-162.5l144.7 120.9" stroke="#14213d45"/><path d="M100-162.5l37.6-187.1" stroke="#e5e5e546"/><path d="M100-162.5l55.3 183.5" stroke="#e5e5e546"/><path d="M100-162.5l-94 172.7" stroke="#ffffff48"/><path d="M100-162.5l-128.9-151.7" stroke="#14213d49"/><path d="M100-162.5l83.7-183.8" stroke="#1122334A"/><path d="M100-162.5l197.6-51.8" stroke="#e5e5e54A"/><path d="M100-162.5l28.8 205.6" stroke="#1122334C"/><path d="M100-162.5l-176.7 109.2" stroke="#ffffff4C"/><path d="M100-162.5l206.9-25.8" stroke="#e5e5e54C"/><path d="M100-162.5l185.8 95.2" stroke="#e5e5e54C"/><path d="M100-162.5l2.5 211" stroke="#1122334D"/><path d="M100-162.5l-184.1-105.4" stroke="#ffffff4D"/><path d="M100-162.5l-174.2-122.1" stroke="#ffffff4E"/><path d="M100-162.5l55.4 205.6" stroke="#14213d4E"/><path d="M100-162.5l8.2-213.1" stroke="#1122334E"/><path d="M100-162.5l-90.6-193.2" stroke="#14213d4E"/><path d="M100-162.5l-124.4 173.7" stroke="#1122334E"/><path d="M100-162.5l-76.1 199.8" stroke="#1122334E"/><path d="M100-162.5l189.3 102.6" stroke="#14213d4F"/><path d="M100-162.5l-77.6 203" stroke="#e5e5e550"/><path d="M100-162.5l-162.6-144.2" stroke="#14213d50"/><path d="M100-162.5l215.8 30.9" stroke="#e5e5e550"/><path d="M100-162.5l26.1 217.5" stroke="#ffffff51"/><path d="M100-162.5l-214.5-45.2" stroke="#e5e5e551"/><path d="M100-162.5l60.9 210.7" stroke="#e5e5e551"/><path d="M100-162.5l151.1-162.4" stroke="#11223352"/><path d="M100-162.5l138.3-174.5" stroke="#14213d53"/><path d="M100-162.5l161.8 157.3" stroke="#e5e5e555"/><path d="M100-162.5l211.1-83.8" stroke="#14213d56"/><path d="M100-162.5l39.5 223.7" stroke="#14213d56"/><path d="M100-162.5l226.7 20.3" stroke="#e5e5e556"/><path d="M100-162.5l-222.1 50.4" stroke="#e5e5e556"/><path d="M100-162.5l-197.9-113" stroke="#11223356"/><path d="M100-162.5l-177.9-145.1" stroke="#11223358"/><path d="M100-162.5l108.5-202.7" stroke="#e5e5e558"/><path d="M100-162.5l-72.2-218.8" stroke="#14213d58"/><path d="M100-162.5l-35.5 227.9" stroke="#11223359"/><path d="M100-162.5l225 51.4" stroke="#fca31159"/><path d="M100-162.5l-86.1-215.7" stroke="#e5e5e55A"/><path d="M100-162.5l-216.6-83.8" stroke="#14213d5A"/><path d="M100-162.5l126.4-195.5" stroke="#1122335B"/><path d="M100-162.5l202.4-115.5" stroke="#e5e5e55B"/><path d="M100-162.5l-9.7 232.8" stroke="#e5e5e55B"/><path d="M100-162.5l219.8-78.6" stroke="#fca3115C"/><path d="M100-162.5l-117.2 202.1" stroke="#fca3115C"/><path d="M100-162.5l227.4 56.4" stroke="#ffffff5D"/><path d="M100-162.5l230.4-46" stroke="#e5e5e55E"/><path d="M100-162.5l28.1 233.8" stroke="#ffffff5F"/><path d="M100-162.5l-177.5 155.5" stroke="#14213d61"/><path d="M100-162.5l228.8 58.1" stroke="#fca31162"/><path d="M100-162.5l18.6 235.5" stroke="#fca31163"/><path d="M100-162.5l106.3-210.9" stroke="#11223363"/><path d="M100-162.5l-121 202.9" stroke="#14213d63"/><path d="M100-162.5l228-61.7" stroke="#11223364"/><path d="M100-162.5l-52.3-230.3" stroke="#e5e5e565"/><path d="M100-162.5l-197.7-129.1" stroke="#11223365"/><path d="M100-162.5l-213.1-101.5" stroke="#ffffff65"/><path d="M100-162.5l-103.7 212" stroke="#ffffff66"/><path d="M100-162.5l-24.4 234.5" stroke="#14213d67"/><path d="M100-162.5l-143.4 187.1" stroke="#11223367"/><path d="M100-162.5l221.8-78.1" stroke="#11223368"/><path d="M100-162.5l25.5-233.7" stroke="#14213d69"/><path d="M100-162.5l-175.1-156.6" stroke="#14213d69"/><path d="M100-162.5l230.5-44.4" stroke="#e5e5e569"/><path d="M100-162.5l-117.3-203.1" stroke="#ffffff69"/><path d="M100-162.5l81 220.1" stroke="#11223369"/><path d="M100-162.5l181.4 147.2" stroke="#fca3116B"/><path d="M100-162.5l-159.6-169.9" stroke="#ffffff6C"/><path d="M100-162.5l233-4.7" stroke="#14213d6C"/><path d="M100-162.5l-146.8-180.5" stroke="#1122336C"/><path d="M100-162.5l-11.2 231.7" stroke="#14213d6D"/><path d="M100-162.5l72.1 220.5" stroke="#ffffff6D"/><path d="M100-162.5l-170.1-157" stroke="#fca3116E"/><path d="M100-162.5l-219.3 70" stroke="#1122336F"/><path d="M100-162.5l-225.9-32.4" stroke="#11223370"/><path d="M100-162.5l-33.5 224.8" stroke="#fca31171"/><path d="M100-162.5l-200.3 106.4" stroke="#e5e5e572"/><path d="M100-162.5l214.6-71.9" stroke="#ffffff72"/><path d="M100-162.5l-217.2 61" stroke="#ffffff72"/><path d="M100-162.5l-215.2-66.7" stroke="#14213d73"/><path d="M100-162.5l-87.6-206.6" stroke="#11223373"/><path d="M100-162.5l-223 21.9" stroke="#14213d73"/><path d="M100-162.5l-166.4 148.9" stroke="#11223374"/><path d="M100-162.5l-211-72.8" stroke="#e5e5e574"/><path d="M100-162.5l147.4 167.2" stroke="#e5e5e574"/><path d="M100-162.5l-126.1 183" stroke="#14213d74"/><path d="M100-162.5l-92.8-199.1" stroke="#e5e5e576"/><path d="M100-162.5l-216.1 36.9" stroke="#ffffff76"/><path d="M100-162.5l217.3 28.2" stroke="#11223376"/><path d="M100-162.5l-73.3 206.5" stroke="#e5e5e576"/><path d="M100-162.5l162.7 146.2" stroke="#fca31176"/><path d="M100-162.5l140.2-165.9" stroke="#ffffff77"/><path d="M100-162.5l18.1 213" stroke="#fca31179"/><path d="M100-162.5l202.8 61" stroke="#1122337A"/><path d="M100-162.5l178-114.2" stroke="#e5e5e57A"/><path d="M100-162.5l-203.3-52.6" stroke="#14213d7A"/><path d="M100-162.5l188.1 91.3" stroke="#1122337B"/><path d="M100-162.5l196.6-59.5" stroke="#14213d7C"/><path d="M100-162.5l152.8 136.2" stroke="#ffffff7C"/><path d="M100-162.5l157.1-130.9" stroke="#e5e5e57D"/><path d="M100-162.5l-190.1 14.6" stroke="#e5e5e581"/><path d="M100-162.5l-6.4 190.2" stroke="#11223381"/><path d="M100-162.5l-56.8 181.5" stroke="#e5e5e581"/><path d="M100-162.5l92.8-164.4" stroke="#e5e5e582"/><path d="M100-162.5l-77.2-168.9" stroke="#ffffff82"/><path d="M100-162.5l-151.1-107.8" stroke="#14213d82"/><path d="M100-162.5l-31.7 179.6" stroke="#e5e5e583"/><path d="M100-162.5l165.7 62.8" stroke="#e5e5e585"/><path d="M100-162.5l-110.1-137.4" stroke="#fca31185"/><path d="M100-162.5l-165.2-60.3" stroke="#ffffff85"/><path d="M100-162.5l-159.1-71.7" stroke="#e5e5e585"/><path d="M100-162.5l144.1-93.1" stroke="#14213d86"/><path d="M100-162.5l-167.1 26.9" stroke="#ffffff86"/><path d="M100-162.5l159.5 41" stroke="#14213d87"/><path d="M100-162.5l-153.4 26.3" stroke="#ffffff89"/><path d="M100-162.5l71.4 132.3" stroke="#ffffff8A"/><path d="M100-162.5l96.5-113.4" stroke="#e5e5e58A"/><path d="M100-162.5l53.7-138.8" stroke="#14213d8A"/><path d="M100-162.5l-56.8 133.5" stroke="#ffffff8B"/><path d="M100-162.5l-136.5 26.9" stroke="#e5e5e58C"/><path d="M100-162.5l-78.9-113.9" stroke="#14213d8C"/><path d="M100-162.5l-131.5-9.2" stroke="#14213d8D"/><path d="M100-162.5l129.7 10.6" stroke="#1122338D"/><path d="M100-162.5l-122.4 22.2" stroke="#ffffff8E"/><path d="M100-162.5l113.6 48.8" stroke="#fca3118E"/><path d="M100-162.5l28.3-118.8" stroke="#e5e5e58E"/><path d="M100-162.5l33.3-109.2" stroke="#fca3118F"/><path d="M100-162.5l97.2-47.8" stroke="#ffffff90"/><path d="M100-162.5l64.4 75" stroke="#fca31191"/><path d="M100-162.5l-45.9 78.2" stroke="#fca31192"/><path d="M100-162.5l-36.8-77.7" stroke="#ffffff92"/><path d="M100-162.5l-84.6 9.7" stroke="#11223392"/><path d="M100-162.5l-22.5-80.9" stroke="#ffffff92"/><path d="M100-162.5l60.6 54.5" stroke="#11223392"/><path d="M100-162.5l-63.6 46.5" stroke="#e5e5e593"/><path d="M100-162.5l-18.8 70.9" stroke="#ffffff93"/><path d="M100-162.5l44.2-36" stroke="#14213d94"/><path d="M100-162.5l7-51.3" stroke="#e5e5e594"/><path d="M100-162.5l-13.6 49.6" stroke="#fca31194"/><path d="M100-162.5l44.4 19.5" stroke="#11223394"/><path d="M100-162.5l17.8-22.2" stroke="#e5e5e595"/></g><g class="sparcs"><path d="M93.5-150a5.9 5.9 0 1 1 0-11.8 5.9 5.9 0 0 1 0 11.8" fill="#fca3117D"/><path d="M76.6-145a5.9 5.9 0 1 1 0-11.8 5.9 5.9 0 0 1 0 11.8" fill="#ffffff7D"/><path d="M124.5-179.8a5.9 5.9 0 1 1 0-11.9 5.9 5.9 0 0 1 0 11.9" fill="#fca3117D"/><path d="M131.2-174.2a5.9 5.9 0 1 1 0-11.9 5.9 5.9 0 0 1 0 11.9" fill="#fca3117D"/><path d="M146.2-156.5a6 6 0 1 1 0-12 6 6 0 0 1 0 12" fill="#ffffff7E"/><path d="M156.8-176.7a6 6 0 1 1 0-12 6 6 0 0 1 0 12" fill="#e5e5e57F"/><path d="M167-132.7a6 6 0 1 1 0-12 6 6 0 0 1 0 12" fill="#14213d80"/><path d="M160.5-114.5a6.1 6.1 0 1 1 0-12.1 6.1 6.1 0 0 1 0 12.1" fill="#fca31180"/><path d="M96-236.2a6.1 6.1 0 1 1 0-12.2 6.1 6.1 0 0 1 0 12.2" fill="#fca31180"/><path d="M14.4-162.9a6.1 6.1 0 1 1 0-12.2 6.1 6.1 0 0 1 0 12.2" fill="#fca31181"/><path d="M131.9-71.5a6.1 6.1 0 1 1 0-12.2 6.1 6.1 0 0 1 0 12.2" fill="#fca31181"/><path d="M5.4-138.3a6.2 6.2 0 1 1 0-12.4 6.2 6.2 0 0 1 0 12.4" fill="#ffffff82"/><path d="M186.2-110.5a6.2 6.2 0 1 1 0-12.3 6.2 6.2 0 0 1 0 12.3" fill="#ffffff82"/><path d="M200-168.5a6.2 6.2 0 1 1 0-12.4 6.2 6.2 0 0 1 0 12.4" fill="#fca31183"/><path d="M78.7-39.1a6.3 6.3 0 1 1 0-12.6 6.3 6.3 0 0 1 0 12.6" fill="#fca31185"/><path d="M48.1-264.3a6.3 6.3 0 1 1 0-12.7 6.3 6.3 0 0 1 0 12.7" fill="#fca31186"/><path d="M117.3-37.1a6.3 6.3 0 1 1 0-12.6 6.3 6.3 0 0 1 0 12.6" fill="#e5e5e586"/><path d="M-20.3-118.1a6.4 6.4 0 1 1 0-12.7 6.4 6.4 0 0 1 0 12.7" fill="#e5e5e587"/><path d="M216.9-204.6a6.4 6.4 0 1 1 0-12.8 6.4 6.4 0 0 1 0 12.8" fill="#e5e5e587"/><path d="M-28.3-189.4a6.4 6.4 0 1 1 0-12.8 6.4 6.4 0 0 1 0 12.8" fill="#fca31188"/><path d="M40.1-32.8a6.5 6.5 0 1 1 0-12.9 6.5 6.5 0 0 1 0 12.9" fill="#11223389"/><path d="M29.9-279.3a6.5 6.5 0 1 1 0-13 6.5 6.5 0 0 1 0 13" fill="#ffffff8A"/><path d="M235.5-104.4a6.5 6.5 0 1 1 0-13.1 6.5 6.5 0 0 1 0 13.1" fill="#e5e5e58A"/><path d="M227.7-81a6.6 6.6 0 1 1 0-13.1 6.6 6.6 0 0 1 0 13.1" fill="#1122338B"/><path d="M246.1-98.7a6.7 6.7 0 1 1 0-13.3 6.7 6.7 0 0 1 0 13.3" fill="#fca3118D"/><path d="M9.1-27.3a6.7 6.7 0 1 1 0-13.4 6.7 6.7 0 0 1 0 13.4" fill="#e5e5e58D"/><path d="M203.7-28.7a6.7 6.7 0 1 1 0-13.4 6.7 6.7 0 0 1 0 13.4" fill="#fca3118F"/><path d="M-64.9-117.8a6.8 6.8 0 1 1 0-13.6 6.8 6.8 0 0 1 0 13.6" fill="#e5e5e590"/><path d="M242.9-64.9a6.8 6.8 0 1 1 0-13.6 6.8 6.8 0 0 1 0 13.6" fill="#fca31190"/><path d="M21.2-306.1a6.8 6.8 0 1 1 0-13.6 6.8 6.8 0 0 1 0 13.6" fill="#14213d90"/><path d="M22.6-3.8a6.8 6.8 0 1 1 0-13.6 6.8 6.8 0 0 1 0 13.6" fill="#e5e5e590"/><path d="M265.9-110.1a6.8 6.8 0 1 1 0-13.6 6.8 6.8 0 0 1 0 13.6" fill="#fca31191"/><path d="M27.9-312.4a6.8 6.8 0 1 1 0-13.7 6.8 6.8 0 0 1 0 13.7" fill="#11223391"/><path d="M273.2-131.8a6.9 6.9 0 1 1 0-13.7 6.9 6.9 0 0 1 0 13.7" fill="#ffffff92"/><path d="M139.2 16.2a6.9 6.9 0 1 1 0-13.8 6.9 6.9 0 0 1 0 13.8" fill="#ffffff92"/><path d="M266.1-95.3a6.9 6.9 0 1 1 0-13.8 6.9 6.9 0 0 1 0 13.8" fill="#ffffff92"/><path d="M134.1-333.4a7 7 0 1 1 0-13.9 7 7 0 0 1 0 13.9" fill="#fca31194"/><path d="M-61.1-68.9a7 7 0 1 1 0-14 7 7 0 0 1 0 14" fill="#ffffff94"/><path d="M216.5-9a7.1 7.1 0 1 1 0-14.1 7.1 7.1 0 0 1 0 14.1" fill="#14213d96"/><path d="M244.7-34.6a7.1 7.1 0 1 1 0-14.1 7.1 7.1 0 0 1 0 14.1" fill="#14213d96"/><path d="M137.6-342.5a7.1 7.1 0 1 1 0-14.2 7.1 7.1 0 0 1 0 14.2" fill="#e5e5e597"/><path d="M155.3 28.1a7.1 7.1 0 1 1 0-14.2 7.1 7.1 0 0 1 0 14.2" fill="#fca31197"/><path d="M6 17.4a7.2 7.2 0 1 1 0-14.4 7.2 7.2 0 0 1 0 14.4" fill="#e5e5e599"/><path d="M-28.9-306.9a7.3 7.3 0 1 1 0-14.5 7.3 7.3 0 0 1 0 14.5" fill="#ffffff9B"/><path d="M183.7-339a7.3 7.3 0 1 1 0-14.6 7.3 7.3 0 0 1 0 14.6" fill="#1122339C"/><path d="M297.6-206.9a7.4 7.4 0 1 1 0-14.7 7.4 7.4 0 0 1 0 14.7" fill="#1122339D"/><path d="M128.8 50.5a7.4 7.4 0 1 1 0-14.9 7.4 7.4 0 0 1 0 14.9" fill="#ffffff9E"/><path d="M-76.7-45.8a7.5 7.5 0 1 1 0-14.9 7.5 7.5 0 0 1 0 14.9" fill="#fca3119F"/><path d="M306.9-180.8a7.5 7.5 0 1 1 0-15 7.5 7.5 0 0 1 0 15" fill="#e5e5e59F"/><path d="M285.8-59.8a7.5 7.5 0 1 1 0-15 7.5 7.5 0 0 1 0 15" fill="#14213d9F"/><path d="M102.5 56a7.5 7.5 0 1 1 0-15.1 7.5 7.5 0 0 1 0 15.1" fill="#112233A0"/><path d="M-84.1-260.3a7.6 7.6 0 1 1 0-15.1 7.6 7.6 0 0 1 0 15.1" fill="#112233A1"/><path d="M-74.2-277.1a7.6 7.6 0 1 1 0-15.1 7.6 7.6 0 0 1 0 15.1" fill="#112233A1"/><path d="M155.4 50.7a7.6 7.6 0 1 1 0-15.2 7.6 7.6 0 0 1 0 15.2" fill="#112233A1"/><path d="M108.2-368a7.6 7.6 0 1 1 0-15.2 7.6 7.6 0 0 1 0 15.2" fill="#14213dA2"/><path d="M9.4-348.1a7.6 7.6 0 1 1 0-15.2 7.6 7.6 0 0 1 0 15.2" fill="#112233A2"/><path d="M-24.4 18.8a7.6 7.6 0 1 1 0-15.2 7.6 7.6 0 0 1 0 15.2" fill="#112233A2"/><path d="M23.9 44.9a7.6 7.6 0 1 1 0-15.2 7.6 7.6 0 0 1 0 15.2" fill="#ffffffA2"/><path d="M289.3-52.2a7.6 7.6 0 1 1 0-15.3 7.6 7.6 0 0 1 0 15.3" fill="#112233A3"/><path d="M22.4 48.2a7.7 7.7 0 1 1 0-15.4 7.7 7.7 0 0 1 0 15.4" fill="#fca311A4"/><path d="M-62.6-299a7.7 7.7 0 1 1 0-15.4 7.7 7.7 0 0 1 0 15.4" fill="#ffffffA4"/><path d="M315.8-123.9a7.7 7.7 0 1 1 0-15.4 7.7 7.7 0 0 1 0 15.4" fill="#14213dA4"/><path d="M126.1 62.7a7.8 7.8 0 1 1 0-15.5 7.8 7.8 0 0 1 0 15.5" fill="#14213dA5"/><path d="M-114.5-200a7.8 7.8 0 1 1 0-15.5 7.8 7.8 0 0 1 0 15.5" fill="#ffffffA5"/><path d="M160.9 55.9a7.8 7.8 0 1 1 0-15.5 7.8 7.8 0 0 1 0 15.5" fill="#14213dA5"/><path d="M251.1-317a7.8 7.8 0 1 1 0-15.7 7.8 7.8 0 0 1 0 15.7" fill="#112233A7"/><path d="M238.3-329.1a7.9 7.9 0 1 1 0-15.7 7.9 7.9 0 0 1 0 15.7" fill="#ffffffA8"/><path d="M261.8 2.8a8 8 0 1 1 0-16 8 8 0 0 1 0 16" fill="#e5e5e5AA"/><path d="M311.1-238.3a8 8 0 1 1 0-16.1 8 8 0 0 1 0 16.1" fill="#14213dAC"/><path d="M139.5 69.2a8 8 0 1 1 0-16.1 8 8 0 0 1 0 16.1" fill="#e5e5e5AC"/><path d="M326.7-134.1a8.1 8.1 0 1 1 0-16.1 8.1 8.1 0 0 1 0 16.1" fill="#e5e5e5AC"/><path d="M-122.1-104a8.1 8.1 0 1 1 0-16.1 8.1 8.1 0 0 1 0 16.1" fill="#112233AC"/><path d="M-97.9-267.4a8.1 8.1 0 1 1 0-16.2 8.1 8.1 0 0 1 0 16.2" fill="#e5e5e5AC"/><path d="M-77.9-299.4a8.2 8.2 0 1 1 0-16.3 8.2 8.2 0 0 1 0 16.3" fill="#112233AE"/><path d="M208.5-357.1a8.2 8.2 0 1 1 0-16.3 8.2 8.2 0 0 1 0 16.3" fill="#e5e5e5AF"/><path d="M27.8-373.1a8.2 8.2 0 1 1 0-16.4 8.2 8.2 0 0 1 0 16.4" fill="#14213dAF"/><path d="M64.5 73.7a8.2 8.2 0 1 1 0-16.5 8.2 8.2 0 0 1 0 16.5" fill="#e5e5e5AF"/><path d="M325-102.9a8.2 8.2 0 1 1 0-16.5 8.2 8.2 0 0 1 0 16.5" fill="#112233B0"/><path d="M13.9-369.8a8.3 8.3 0 1 1 0-16.7 8.3 8.3 0 0 1 0 16.7" fill="#14213dB2"/><path d="M-116.6-237.9a8.3 8.3 0 1 1 0-16.7 8.3 8.3 0 0 1 0 16.7" fill="#e5e5e5B2"/><path d="M226.4-349.6a8.4 8.4 0 1 1 0-16.7 8.4 8.4 0 0 1 0 16.7" fill="#14213dB2"/><path d="M302.4-269.7a8.4 8.4 0 1 1 0-16.7 8.4 8.4 0 0 1 0 16.7" fill="#14213dB3"/><path d="M90.3 78.7a8.4 8.4 0 1 1 0-16.7 8.4 8.4 0 0 1 0 16.7" fill="#14213dB3"/><path d="M319.8-232.7a8.4 8.4 0 1 1 0-16.8 8.4 8.4 0 0 1 0 16.8" fill="#14213dB3"/><path d="M-17.2 48a8.4 8.4 0 1 1 0-16.8 8.4 8.4 0 0 1 0 16.8" fill="#fca311B4"/><path d="M327.4-97.6a8.5 8.5 0 1 1 0-17 8.5 8.5 0 0 1 0 17" fill="#ffffffB5"/><path d="M330.4-200a8.5 8.5 0 1 1 0-17.1 8.5 8.5 0 0 1 0 17.1" fill="#14213dB7"/><path d="M128.1 79.9a8.6 8.6 0 1 1 0-17.3 8.6 8.6 0 0 1 0 17.3" fill="#ffffffB8"/><path d="M-77.5 1.8a8.7 8.7 0 1 1 0-17.5 8.7 8.7 0 0 1 0 17.5" fill="#14213dBA"/><path d="M328.8-95.6a8.8 8.8 0 1 1 0-17.5 8.8 8.8 0 0 1 0 17.5" fill="#ffffffBB"/><path d="M118.6 81.8a8.8 8.8 0 1 1 0-17.6 8.8 8.8 0 0 1 0 17.6" fill="#14213dBC"/><path d="M206.3-364.6a8.8 8.8 0 1 1 0-17.6 8.8 8.8 0 0 1 0 17.6" fill="#112233BC"/><path d="M-21 49.2a8.8 8.8 0 1 1 0-17.6 8.8 8.8 0 0 1 0 17.6" fill="#112233BD"/><path d="M328-215.3a8.9 8.9 0 1 1 0-17.8 8.9 8.9 0 0 1 0 17.8" fill="#e5e5e5BF"/><path d="M47.7-383.9a8.9 8.9 0 1 1 0-17.8 8.9 8.9 0 0 1 0 17.8" fill="#ffffffBF"/><path d="M-97.7-282.7a9 9 0 1 1 0-17.9 9 9 0 0 1 0 17.9" fill="#ffffffC0"/><path d="M-113.1-255a9 9 0 1 1 0-18 9 9 0 0 1 0 18" fill="#e5e5e5C0"/><path d="M-3.7 58.5a9 9 0 1 1 0-18 9 9 0 0 1 0 18" fill="#112233C1"/><path d="M75.6 81.1a9 9 0 1 1 0-18.1 9 9 0 0 1 0 18.1" fill="#ffffffC2"/><path d="M-43.4 33.7a9.1 9.1 0 1 1 0-18.1 9.1 9.1 0 0 1 0 18.1" fill="#e5e5e5C2"/><path d="M321.8-231.5a9.1 9.1 0 1 1 0-18.2 9.1 9.1 0 0 1 0 18.2" fill="#e5e5e5C4"/><path d="M125.5-387a9.2 9.2 0 1 1 0-18.3 9.2 9.2 0 0 1 0 18.3" fill="#e5e5e5C4"/><path d="M-75.1-309.9a9.2 9.2 0 1 1 0-18.4 9.2 9.2 0 0 1 0 18.4" fill="#112233C4"/><path d="M330.5-197.7a9.2 9.2 0 1 1 0-18.4 9.2 9.2 0 0 1 0 18.4" fill="#112233C5"/><path d="M-17.3-356.4a9.2 9.2 0 1 1 0-18.4 9.2 9.2 0 0 1 0 18.4" fill="#e5e5e5C5"/><path d="M181 66.9a9.2 9.2 0 1 1 0-18.5 9.2 9.2 0 0 1 0 18.5" fill="#ffffffC5"/><path d="M281.4-6a9.3 9.3 0 1 1 0-18.6 9.3 9.3 0 0 1 0 18.6" fill="#e5e5e5C7"/><path d="M-59.6-323a9.3 9.3 0 1 1 0-18.7 9.3 9.3 0 0 1 0 18.7" fill="#e5e5e5C8"/><path d="M333-157.8a9.3 9.3 0 1 1 0-18.7 9.3 9.3 0 0 1 0 18.7" fill="#fca311C8"/><path d="M-46.8-333.6a9.4 9.4 0 1 1 0-18.7 9.4 9.4 0 0 1 0 18.7" fill="#14213dC9"/><path d="M88.8 78.6a9.4 9.4 0 1 1 0-18.8 9.4 9.4 0 0 1 0 18.8" fill="#112233CA"/><path d="M172.1 67.4a9.4 9.4 0 1 1 0-18.9 9.4 9.4 0 0 1 0 18.9" fill="#112233CA"/><path d="M-70.1-310a9.5 9.5 0 1 1 0-18.9 9.5 9.5 0 0 1 0 18.9" fill="#e5e5e5CB"/><path d="M-119.3-82.9a9.5 9.5 0 1 1 0-19.1 9.5 9.5 0 0 1 0 19.1" fill="#fca311CC"/><path d="M-125.9-185.3a9.6 9.6 0 1 1 0-19.3 9.6 9.6 0 0 1 0 19.3" fill="#ffffffCE"/><path d="M66.5 72a9.7 9.7 0 1 1 0-19.4 9.7 9.7 0 0 1 0 19.4" fill="#e5e5e5CF"/><path d="M-100.3-46.5a9.7 9.7 0 1 1 0-19.3 9.7 9.7 0 0 1 0 19.3" fill="#e5e5e5D0"/><path d="M314.6-224.7a9.7 9.7 0 1 1 0-19.4 9.7 9.7 0 0 1 0 19.4" fill="#112233D0"/><path d="M-117.2-91.7a9.7 9.7 0 1 1 0-19.5 9.7 9.7 0 0 1 0 19.5" fill="#e5e5e5D1"/><path d="M-115.2-219.5a9.7 9.7 0 1 1 0-19.5 9.7 9.7 0 0 1 0 19.5" fill="#e5e5e5D1"/><path d="M12.4-359.3a9.8 9.8 0 1 1 0-19.6 9.8 9.8 0 0 1 0 19.6" fill="#ffffffD2"/><path d="M-123-130.8a9.8 9.8 0 1 1 0-19.6 9.8 9.8 0 0 1 0 19.6" fill="#e5e5e5D2"/><path d="M-66.4-3.7a9.8 9.8 0 1 1 0-19.7 9.8 9.8 0 0 1 0 19.7" fill="#112233D3"/><path d="M-111-225.5a9.8 9.8 0 1 1 0-19.7 9.8 9.8 0 0 1 0 19.7" fill="#ffffffD3"/><path d="M247.4 14.6a9.8 9.8 0 1 1 0-19.7 9.8 9.8 0 0 1 0 19.7" fill="#ffffffD3"/><path d="M-26.1 30.4a9.9 9.9 0 1 1 0-19.7 9.9 9.9 0 0 1 0 19.7" fill="#fca311D4"/><path d="M7.2-351.7a9.9 9.9 0 1 1 0-19.9 9.9 9.9 0 0 1 0 19.9" fill="#112233D5"/><path d="M-116.1-115.6a10 10 0 1 1 0-19.9 10 10 0 0 1 0 19.9" fill="#fca311D6"/><path d="M317.3-124.3a10 10 0 1 1 0-19.9 10 10 0 0 1 0 19.9" fill="#fca311D6"/><path d="M26.7 53.9a10 10 0 1 1 0-19.9 10 10 0 0 1 0 19.9" fill="#fca311D6"/><path d="M262.7-6.3a10 10 0 1 1 0-20 10 10 0 0 1 0 20" fill="#112233D6"/><path d="M240.2-318.4a10 10 0 1 1 0-20 10 10 0 0 1 0 20" fill="#e5e5e5D7"/><path d="M118.1 60.6a10.1 10.1 0 1 1 0-20.2 10.1 10.1 0 0 1 0 20.2" fill="#fca311D9"/><path d="M302.8-91.3a10.2 10.2 0 1 1 0-20.4 10.2 10.2 0 0 1 0 20.4" fill="#ffffffDA"/><path d="M278-266.5a10.2 10.2 0 1 1 0-20.4 10.2 10.2 0 0 1 0 20.4" fill="#112233DA"/><path d="M-103.3-204.9a10.2 10.2 0 1 1 0-20.5 10.2 10.2 0 0 1 0 20.5" fill="#fca311DB"/><path d="M288.1-61a10.2 10.2 0 1 1 0-20.5 10.2 10.2 0 0 1 0 20.5" fill="#fca311DC"/><path d="M296.6-211.6a10.3 10.3 0 1 1 0-20.7 10.3 10.3 0 0 1 0 20.7" fill="#112233DE"/><path d="M252.8-15.9a10.3 10.3 0 1 1 0-20.7 10.3 10.3 0 0 1 0 20.7" fill="#112233DE"/><path d="M257.1-283a10.3 10.3 0 1 1 0-20.7 10.3 10.3 0 0 1 0 20.7" fill="#14213dDE"/><path d="M-90.1-137.3a10.6 10.6 0 1 1 0-21.2 10.6 10.6 0 0 1 0 21.2" fill="#14213dE4"/><path d="M93.6 38.3a10.6 10.6 0 1 1 0-21.2 10.6 10.6 0 0 1 0 21.2" fill="#112233E4"/><path d="M43.2 29.6a10.6 10.6 0 1 1 0-21.2 10.6 10.6 0 0 1 0 21.2" fill="#e5e5e5E4"/><path d="M192.8-316.2a10.6 10.6 0 1 1 0-21.3 10.6 10.6 0 0 1 0 21.3" fill="#112233E5"/><path d="M22.8-320.7a10.7 10.7 0 1 1 0-21.4 10.7 10.7 0 0 1 0 21.4" fill="#14213dE6"/><path d="M-51.1-259.7a10.7 10.7 0 1 1 0-21.3 10.7 10.7 0 0 1 0 21.3" fill="#14213dE6"/><path d="M68.3 27.8a10.7 10.7 0 1 1 0-21.5 10.7 10.7 0 0 1 0 21.5" fill="#112233E7"/><path d="M265.7-88.9a10.8 10.8 0 1 1 0-21.6 10.8 10.8 0 0 1 0 21.6" fill="#fca311E8"/><path d="M-10.1-289.1a10.8 10.8 0 1 1 0-21.6 10.8 10.8 0 0 1 0 21.6" fill="#14213dE9"/><path d="M-65.2-211.9a10.8 10.8 0 1 1 0-21.7 10.8 10.8 0 0 1 0 21.7" fill="#112233E9"/><path d="M-59.1-223.4a10.8 10.8 0 1 1 0-21.7 10.8 10.8 0 0 1 0 21.7" fill="#14213dE9"/><path d="M244.1-244.7a10.9 10.9 0 1 1 0-21.8 10.9 10.9 0 0 1 0 21.8" fill="#14213dEA"/><path d="M-67.1-124.7a10.9 10.9 0 1 1 0-21.8 10.9 10.9 0 0 1 0 21.8" fill="#112233EB"/><path d="M259.5-110.5a11 11 0 1 1 0-22 11 11 0 0 1 0 22" fill="#e5e5e5EC"/><path d="M-53.4-125.1a11.1 11.1 0 1 1 0-22.2 11.1 11.1 0 0 1 0 22.2" fill="#14213dEE"/><path d="M171.4-19.1a11.1 11.1 0 1 1 0-22.2 11.1 11.1 0 0 1 0 22.2" fill="#fca311F0"/><path d="M196.5-264.8a11.2 11.2 0 1 1 0-22.3 11.2 11.2 0 0 1 0 22.3" fill="#fca311F0"/><path d="M153.7-290.1a11.2 11.2 0 1 1 0-22.3 11.2 11.2 0 0 1 0 22.3" fill="#e5e5e5F0"/><path d="M43.2-17.8a11.2 11.2 0 1 1 0-22.4 11.2 11.2 0 0 1 0 22.4" fill="#e5e5e5F1"/><path d="M-36.5-124.3a11.2 11.2 0 1 1 0-22.5 11.2 11.2 0 0 1 0 22.5" fill="#e5e5e5F2"/><path d="M21.1-265.2a11.3 11.3 0 1 1 0-22.5 11.3 11.3 0 0 1 0 22.5" fill="#112233F2"/><path d="M-31.5-160.4a11.3 11.3 0 1 1 0-22.6 11.3 11.3 0 0 1 0 22.6" fill="#ffffffF3"/><path d="M229.7-140.5a11.3 11.3 0 1 1 0-22.7 11.3 11.3 0 0 1 0 22.7" fill="#ffffffF4"/><path d="M-22.4-128.9a11.4 11.4 0 1 1 0-22.8 11.4 11.4 0 0 1 0 22.8" fill="#112233F5"/><path d="M213.6-102.3a11.4 11.4 0 1 1 0-22.7 11.4 11.4 0 0 1 0 22.7" fill="#ffffffF5"/><path d="M128.3-269.9a11.4 11.4 0 1 1 0-22.8 11.4 11.4 0 0 1 0 22.8" fill="#14213dF5"/><path d="M133.3-260.2a11.4 11.4 0 1 1 0-22.9 11.4 11.4 0 0 1 0 22.9" fill="#fca311F6"/><path d="M197.2-198.9a11.5 11.5 0 1 1 0-22.9 11.5 11.5 0 0 1 0 22.9" fill="#112233F7"/><path d="M164.4-75.9a11.5 11.5 0 1 1 0-23.1 11.5 11.5 0 0 1 0 23.1" fill="#ffffffF9"/><path d="M54.1-72.8a11.6 11.6 0 1 1 0-23.1 11.6 11.6 0 0 1 0 23.1" fill="#14213dFA"/><path d="M63.2-228.6a11.6 11.6 0 1 1 0-23.2 11.6 11.6 0 0 1 0 23.2" fill="#e5e5e5FA"/><path d="M15.4-141.2a11.6 11.6 0 1 1 0-23.3 11.6 11.6 0 0 1 0 23.3" fill="#112233FA"/><path d="M77.5-231.8a11.6 11.6 0 1 1 0-23.3 11.6 11.6 0 0 1 0 23.3" fill="#ffffffFA"/><path d="M160.6-96.4a11.6 11.6 0 1 1 0-23.2 11.6 11.6 0 0 1 0 23.2" fill="#ffffffFB"/><path d="M36.4-104.3a11.6 11.6 0 1 1 0-23.3 11.6 11.6 0 0 1 0 23.3" fill="#fca311FB"/><path d="M81.2-79.9a11.7 11.7 0 1 1 0-23.4 11.7 11.7 0 0 1 0 23.4" fill="#14213dFB"/><path d="M144.2-186.8a11.7 11.7 0 1 1 0-23.4 11.7 11.7 0 0 1 0 23.4" fill="#14213dFD"/><path d="M107-202a11.7 11.7 0 1 1 0-23.5 11.7 11.7 0 0 1 0 23.5" fill="#112233FD"/><path d="M86.4-101.1a11.7 11.7 0 1 1 0-23.5 11.7 11.7 0 0 1 0 23.5" fill="#e5e5e5FD"/><path d="M144.4-131.3a11.7 11.7 0 1 1 0-23.5 11.7 11.7 0 0 1 0 23.5" fill="#ffffffFD"/><path d="M117.8-172.9a11.8 11.8 0 1 1 0-23.6 11.8 11.8 0 0 1 0 23.6" fill="#fca311FE"/></g></svg>