<svg width="1200" height="675" viewBox="-500 -500 1200 675" xmlns="http://www.w3.org/2000/svg"><path d="M-500-500h1200v675h-1200z" fill="#000"/><style>.sparkles path{stroke-linecap:round; stroke-width:1}</style><g class="sparkles"><path d="M100-162.5l25.8 5.4" stroke="#fff50032"/><path d="M100-162.5l27.3 11.3" stroke="#fff32"/><path d="M100-162.5l19.2 27.9" stroke="#c2e1ff32"/><path d="M100-162.5l53.9 7.7" stroke="#005bbb33"/><path d="M100-162.5l53 19.7" stroke="#005bbb33"/><path d="M100-162.5l-36.3 70.5" stroke="#005bbb34"/><path d="M100-162.5l-7.6-87.1" stroke="#fff50035"/><path d="M100-162.5l-85.4 48.8" stroke="#fff50036"/><path d="M100-162.5l32.1 95.1" stroke="#c2e1ff36"/><path d="M100-162.5l-77.3 66.1" stroke="#005bbb36"/><path d="M100-162.5l-83.5 72" stroke="#fff37"/><path d="M100-162.5l101.2 58.1" stroke="#fff50038"/><path d="M100-162.5l-105.2-53.3" stroke="#fff50038"/><path d="M100-162.5l104.4-58.1" stroke="#005bbb38"/><path d="M100-162.5l117.6 56.9" stroke="#fff5003A"/><path d="M100-162.5l-79.2-109.7" stroke="#005bbb3B"/><path d="M100-162.5l129.4 57.9" stroke="#fff3C"/><path d="M100-162.5l-135.1-50.4" stroke="#005bbb3C"/><path d="M100-162.5l94.8 111.2" stroke="#fff5003C"/><path d="M100-162.5l10 148.7" stroke="#fff5003D"/><path d="M100-162.5l151.2 19.5" stroke="#fff5003D"/><path d="M100-162.5l-50.9-144" stroke="#c2e1ff3D"/><path d="M100-162.5l146.6 45.2" stroke="#fff5003D"/><path d="M100-162.5l35.6 154.1" stroke="#fff5003E"/><path d="M100-162.5l-18.6 158.6" stroke="#c2e1ff3F"/><path d="M100-162.5l-160.8-4.8" stroke="#fff5003F"/><path d="M100-162.5l-104.9-123.6" stroke="#fff3F"/><path d="M100-162.5l133.1 96.5" stroke="#fff50040"/><path d="M100-162.5l-8.5-178.2" stroke="#005bbb43"/><path d="M100-162.5l29.5 176.6" stroke="#fff50043"/><path d="M100-162.5l179.8-23.5" stroke="#fff43"/><path d="M100-162.5l175.5 47.4" stroke="#005bbb44"/><path d="M100-162.5l-157 91.9" stroke="#fff44"/><path d="M100-162.5l-134.8-123" stroke="#fff44"/><path d="M100-162.5l-80.3-169" stroke="#c2e1ff45"/><path d="M100-162.5l124.6 139.7" stroke="#005bbb45"/><path d="M100-162.5l110.6-160.7" stroke="#fff47"/><path d="M100-162.5l170.9-95.9" stroke="#c2e1ff48"/><path d="M100-162.5l-185.2-65.1" stroke="#fff48"/><path d="M100-162.5l188.4 64.8" stroke="#fff49"/><path d="M100-162.5l86.4 181.1" stroke="#c2e1ff49"/><path d="M100-162.5l-92.5-179.5" stroke="#c2e1ff4A"/><path d="M100-162.5l205.2 10.3" stroke="#fff5004B"/><path d="M100-162.5l-172.2-113.3" stroke="#c2e1ff4B"/><path d="M100-162.5l159.2-132.7" stroke="#fff5004C"/><path d="M100-162.5l37.7 204.3" stroke="#fff4C"/><path d="M100-162.5l125.5 167.8" stroke="#005bbb4C"/><path d="M100-162.5l52.1 203.8" stroke="#fff4D"/><path d="M100-162.5l206.5-49.6" stroke="#fff4E"/><path d="M100-162.5l158.1-145.4" stroke="#fff5004F"/><path d="M100-162.5l-106 186.9" stroke="#fff5004F"/><path d="M100-162.5l-30.3-214.2" stroke="#fff4F"/><path d="M100-162.5l215.1-40.8" stroke="#c2e1ff51"/><path d="M100-162.5l146.8-165.1" stroke="#fff52"/><path d="M100-162.5l-219 32.3" stroke="#fff50052"/><path d="M100-162.5l219.6-32.3" stroke="#005bbb52"/><path d="M100-162.5l212.5-70.8" stroke="#fff54"/><path d="M100-162.5l164.7 152.5" stroke="#c2e1ff54"/><path d="M100-162.5l192.3 119.2" stroke="#fff50055"/><path d="M100-162.5l-175.7-143.2" stroke="#005bbb55"/><path d="M100-162.5l153.1 170" stroke="#fff57"/><path d="M100-162.5l-223.2 51.4" stroke="#fff50057"/><path d="M100-162.5l-219.2 67.6" stroke="#005bbb58"/><path d="M100-162.5l4.6-230.9" stroke="#fff50059"/><path d="M100-162.5l-212.8 89.8" stroke="#c2e1ff59"/><path d="M100-162.5l-229.9-29" stroke="#fff5005A"/><path d="M100-162.5l-171 157.3" stroke="#005bbb5A"/><path d="M100-162.5l164.4-164.8" stroke="#c2e1ff5B"/><path d="M100-162.5l166.1 163.5" stroke="#005bbb5B"/><path d="M100-162.5l-194.7-128.4" stroke="#fff5005C"/><path d="M100-162.5l219.7 79.1" stroke="#c2e1ff5C"/><path d="M100-162.5l190.8 135.4" stroke="#fff5D"/><path d="M100-162.5l140 187.6" stroke="#c2e1ff5D"/><path d="M100-162.5l-120.8-201.4" stroke="#c2e1ff5E"/><path d="M100-162.5l235 0" stroke="#c2e1ff5E"/><path d="M100-162.5l-234.6 16.6" stroke="#005bbb5F"/><path d="M100-162.5l-81.4 220.8" stroke="#fff5F"/><path d="M100-162.5l-145.2-186.1" stroke="#c2e1ff61"/><path d="M100-162.5l-173.2-160.4" stroke="#c2e1ff61"/><path d="M100-162.5l205.9 115.6" stroke="#c2e1ff62"/><path d="M100-162.5l-72.7-224.8" stroke="#fff50063"/><path d="M100-162.5l225.6 70.2" stroke="#005bbb63"/><path d="M100-162.5l-42-232.5" stroke="#005bbb64"/><path d="M100-162.5l-96.6-215.5" stroke="#c2e1ff65"/><path d="M100-162.5l229.7-53" stroke="#c2e1ff67"/><path d="M100-162.5l217.5 89.3" stroke="#fff68"/><path d="M100-162.5l-183 147.6" stroke="#005bbb68"/><path d="M100-162.5l126.7 198" stroke="#c2e1ff69"/><path d="M100-162.5l204.2 115" stroke="#005bbb6A"/><path d="M100-162.5l227.9-53.9" stroke="#fff6A"/><path d="M100-162.5l-98.7-212.3" stroke="#005bbb6A"/><path d="M100-162.5l-50.8-228.4" stroke="#fff5006A"/><path d="M100-162.5l-16.2-232.9" stroke="#fff6B"/><path d="M100-162.5l30.2-231.1" stroke="#fff5006C"/><path d="M100-162.5l228.1-44.1" stroke="#fff6D"/><path d="M100-162.5l206.7 105.3" stroke="#005bbb6D"/><path d="M100-162.5l-18 230.2" stroke="#c2e1ff6E"/><path d="M100-162.5l209.8-95.2" stroke="#fff6F"/><path d="M100-162.5l226.3 41.8" stroke="#005bbb6F"/><path d="M100-162.5l229.9-6.2" stroke="#fff6F"/><path d="M100-162.5l-213.9 83.3" stroke="#fff6F"/><path d="M100-162.5l-165.9 157.6" stroke="#fff50070"/><path d="M100-162.5l120.9-193.3" stroke="#c2e1ff71"/><path d="M100-162.5l-196.3 115.9" stroke="#c2e1ff71"/><path d="M100-162.5l136.8-181.3" stroke="#fff50071"/><path d="M100-162.5l-172.4-147.5" stroke="#fff50071"/><path d="M100-162.5l192.9-119.1" stroke="#fff72"/><path d="M100-162.5l-138-178.4" stroke="#fff50072"/><path d="M100-162.5l-91.1 205.6" stroke="#fff50073"/><path d="M100-162.5l112 191.7" stroke="#fff75"/><path d="M100-162.5l158.4-154.7" stroke="#005bbb75"/><path d="M100-162.5l-95.8 198.7" stroke="#005bbb75"/><path d="M100-162.5l-214.7-47.7" stroke="#005bbb76"/><path d="M100-162.5l57 211.8" stroke="#005bbb76"/><path d="M100-162.5l-25.5-214.6" stroke="#fff50078"/><path d="M100-162.5l215.1-17.8" stroke="#005bbb78"/><path d="M100-162.5l203.1-65.7" stroke="#005bbb79"/><path d="M100-162.5l-88.2 194.2" stroke="#c2e1ff79"/><path d="M100-162.5l-205.9 45" stroke="#005bbb7A"/><path d="M100-162.5l90.8 189.3" stroke="#c2e1ff7A"/><path d="M100-162.5l-190.4-85.9" stroke="#005bbb7B"/><path d="M100-162.5l-11.2 206.6" stroke="#005bbb7C"/><path d="M100-162.5l-54.1 197.5" stroke="#005bbb7C"/><path d="M100-162.5l60.2 195" stroke="#fff5007D"/><path d="M100-162.5l-147-141.3" stroke="#005bbb7D"/><path d="M100-162.5l-29.1-201.3" stroke="#005bbb7D"/><path d="M100-162.5l137.5 149.3" stroke="#005bbb7D"/><path d="M100-162.5l-100.8 176" stroke="#fff7D"/><path d="M100-162.5l-160.5 123.9" stroke="#c2e1ff7D"/><path d="M100-162.5l-175.8 99.5" stroke="#fff7D"/><path d="M100-162.5l136.1-149.2" stroke="#c2e1ff7D"/><path d="M100-162.5l-153.9 128.7" stroke="#fff7E"/><path d="M100-162.5l-86.9-180.8" stroke="#fff5007E"/><path d="M100-162.5l144.9-137.8" stroke="#fff5007E"/><path d="M100-162.5l-187.6 68" stroke="#fff5007E"/><path d="M100-162.5l-73.2 183.3" stroke="#c2e1ff7F"/><path d="M100-162.5l-69.8-177.7" stroke="#fff50081"/><path d="M100-162.5l-182.7-40.3" stroke="#fff50082"/><path d="M100-162.5l135.3-126.3" stroke="#c2e1ff83"/><path d="M100-162.5l131.1-127.4" stroke="#fff83"/><path d="M100-162.5l-96 154.8" stroke="#fff50083"/><path d="M100-162.5l-112.7-143" stroke="#fff50083"/><path d="M100-162.5l176.7 41.8" stroke="#005bbb83"/><path d="M100-162.5l-39.9 174.6" stroke="#c2e1ff84"/><path d="M100-162.5l123.8-129" stroke="#fff84"/><path d="M100-162.5l155.3 80" stroke="#fff85"/><path d="M100-162.5l-126-119.4" stroke="#c2e1ff85"/><path d="M100-162.5l-160.7 62.8" stroke="#c2e1ff86"/><path d="M100-162.5l72 156.7" stroke="#fff86"/><path d="M100-162.5l-143.6 88.6" stroke="#c2e1ff87"/><path d="M100-162.5l-117.8 120.5" stroke="#005bbb87"/><path d="M100-162.5l-109.4-120.9" stroke="#005bbb88"/><path d="M100-162.5l-153.8 44.7" stroke="#fff50088"/><path d="M100-162.5l-101.4-122.9" stroke="#fff88"/><path d="M100-162.5l-68.4 140.6" stroke="#005bbb89"/><path d="M100-162.5l104.2 115.3" stroke="#fff50089"/><path d="M100-162.5l24.7-153.2" stroke="#005bbb89"/><path d="M100-162.5l-130.1-83.7" stroke="#fff89"/><path d="M100-162.5l125.1-90.4" stroke="#005bbb89"/><path d="M100-162.5l-150.9 24.3" stroke="#fff5008A"/><path d="M100-162.5l136.4 55.8" stroke="#c2e1ff8B"/><path d="M100-162.5l-110.2-90" stroke="#c2e1ff8B"/><path d="M100-162.5l128.3 35.7" stroke="#c2e1ff8D"/><path d="M100-162.5l-115.8-62.8" stroke="#c2e1ff8D"/><path d="M100-162.5l-131.6 4.5" stroke="#fff8D"/><path d="M100-162.5l106.3 70" stroke="#c2e1ff8E"/><path d="M100-162.5l86.1 90.9" stroke="#fff5008E"/><path d="M100-162.5l66.8 101.8" stroke="#c2e1ff8E"/><path d="M100-162.5l-106.1-57.2" stroke="#c2e1ff8F"/><path d="M100-162.5l92.5-75.9" stroke="#fff8F"/><path d="M100-162.5l73.7-91.8" stroke="#fff8F"/><path d="M100-162.5l71.1 86.6" stroke="#fff50090"/><path d="M100-162.5l70.5 85.5" stroke="#fff90"/><path d="M100-162.5l-68.4-84.5" stroke="#fff50090"/><path d="M100-162.5l99.4 42.7" stroke="#c2e1ff90"/><path d="M100-162.5l88.4-20.6" stroke="#c2e1ff92"/><path d="M100-162.5l9 82.3" stroke="#fff50092"/><path d="M100-162.5l-66.8 33.5" stroke="#fff93"/><path d="M100-162.5l70.5 13.1" stroke="#fff93"/><path d="M100-162.5l-21.7 57" stroke="#005bbb94"/><path d="M100-162.5l32.7-48.3" stroke="#fff94"/></g><g class="sparcs"><path d="M125.8-151.2a5.9 5.9 0 1 1 0-11.9 5.9 5.9 0 0 1 0 11.9" fill="#005bbb7D"/><path d="M127.3-145.2a5.9 5.9 0 1 1 0-11.9 5.9 5.9 0 0 1 0 11.9" fill="#c2e1ff7D"/><path d="M119.2-128.6a5.9 5.9 0 1 1 0-11.9 5.9 5.9 0 0 1 0 11.9" fill="#fff5007D"/><path d="M153.9-148.9a6 6 0 1 1 0-11.9 6 6 0 0 1 0 11.9" fill="#005bbb7E"/><path d="M153-136.8a6 6 0 1 1 0-12 6 6 0 0 1 0 12" fill="#005bbb7E"/><path d="M63.7-85.9a6.1 6.1 0 1 1 0-12.1 6.1 6.1 0 0 1 0 12.1" fill="#fff80"/><path d="M92.4-243.5a6.1 6.1 0 1 1 0-12.3 6.1 6.1 0 0 1 0 12.3" fill="#fff50081"/><path d="M14.6-107.6a6.2 6.2 0 1 1 0-12.3 6.2 6.2 0 0 1 0 12.3" fill="#c2e1ff82"/><path d="M132.1-61.3a6.2 6.2 0 1 1 0-12.3 6.2 6.2 0 0 1 0 12.3" fill="#005bbb83"/><path d="M22.7-90.2a6.2 6.2 0 1 1 0-12.4 6.2 6.2 0 0 1 0 12.4" fill="#fff83"/><path d="M16.5-84.2a6.2 6.2 0 1 1 0-12.5 6.2 6.2 0 0 1 0 12.5" fill="#fff50084"/><path d="M201.2-98.1a6.3 6.3 0 1 1 0-12.6 6.3 6.3 0 0 1 0 12.6" fill="#fff50085"/><path d="M-5.2-209.5a6.3 6.3 0 1 1 0-12.6 6.3 6.3 0 0 1 0 12.6" fill="#005bbb85"/><path d="M204.4-214.3a6.3 6.3 0 1 1 0-12.6 6.3 6.3 0 0 1 0 12.6" fill="#c2e1ff85"/><path d="M217.6-99.2a6.4 6.4 0 1 1 0-12.8 6.4 6.4 0 0 1 0 12.8" fill="#005bbb87"/><path d="M20.8-265.8a6.4 6.4 0 1 1 0-12.9 6.4 6.4 0 0 1 0 12.9" fill="#005bbb88"/><path d="M229.4-98.1a6.5 6.5 0 1 1 0-13 6.5 6.5 0 0 1 0 13" fill="#c2e1ff8A"/><path d="M-35.1-206.4a6.5 6.5 0 1 1 0-13 6.5 6.5 0 0 1 0 13" fill="#fff5008A"/><path d="M194.8-44.8a6.5 6.5 0 1 1 0-13 6.5 6.5 0 0 1 0 13" fill="#c2e1ff8A"/><path d="M110-7.2a6.6 6.6 0 1 1 0-13.2 6.6 6.6 0 0 1 0 13.2" fill="#fff8B"/><path d="M251.2-136.4a6.6 6.6 0 1 1 0-13.2 6.6 6.6 0 0 1 0 13.2" fill="#fff5008C"/><path d="M49.1-299.9a6.6 6.6 0 1 1 0-13.2 6.6 6.6 0 0 1 0 13.2" fill="#c2e1ff8C"/><path d="M246.6-110.7a6.6 6.6 0 1 1 0-13.2 6.6 6.6 0 0 1 0 13.2" fill="#005bbb8C"/><path d="M135.6-1.7a6.7 6.7 0 1 1 0-13.3 6.7 6.7 0 0 1 0 13.3" fill="#005bbb8D"/><path d="M81.4 2.7a6.7 6.7 0 1 1 0-13.3 6.7 6.7 0 0 1 0 13.3" fill="#c2e1ff8E"/><path d="M-60.8-160.6a6.7 6.7 0 1 1 0-13.4 6.7 6.7 0 0 1 0 13.4" fill="#005bbb8E"/><path d="M-4.9-279.4a6.7 6.7 0 1 1 0-13.4 6.7 6.7 0 0 1 0 13.4" fill="#c2e1ff8E"/><path d="M233.1-59.3a6.7 6.7 0 1 1 0-13.5 6.7 6.7 0 0 1 0 13.5" fill="#fff8F"/><path d="M91.5-333.8a6.9 6.9 0 1 1 0-13.9 6.9 6.9 0 0 1 0 13.9" fill="#fff50093"/><path d="M129.5 21a6.9 6.9 0 1 1 0-13.9 6.9 6.9 0 0 1 0 13.9" fill="#fff50093"/><path d="M279.8-179a7 7 0 1 1 0-13.9 7 7 0 0 1 0 13.9" fill="#005bbb94"/><path d="M275.5-108.2a7 7 0 1 1 0-13.9 7 7 0 0 1 0 13.9" fill="#fff50094"/><path d="M-57-63.6a7 7 0 1 1 0-13.9 7 7 0 0 1 0 13.9" fill="#fff50094"/><path d="M-34.8-278.5a7 7 0 1 1 0-13.9 7 7 0 0 1 0 13.9" fill="#005bbb94"/><path d="M19.7-324.4a7.1 7.1 0 1 1 0-14.1 7.1 7.1 0 0 1 0 14.1" fill="#005bbb96"/><path d="M224.6-15.8a7.1 7.1 0 1 1 0-14.1 7.1 7.1 0 0 1 0 14.1" fill="#c2e1ff96"/><path d="M210.6-316a7.2 7.2 0 1 1 0-14.4 7.2 7.2 0 0 1 0 14.4" fill="#005bbb99"/><path d="M270.9-251.2a7.2 7.2 0 1 1 0-14.4 7.2 7.2 0 0 1 0 14.4" fill="#005bbb99"/><path d="M-85.2-220.4a7.2 7.2 0 1 1 0-14.4 7.2 7.2 0 0 1 0 14.4" fill="#fff50099"/><path d="M288.4-90.4a7.3 7.3 0 1 1 0-14.5 7.3 7.3 0 0 1 0 14.5" fill="#c2e1ff9B"/><path d="M186.4 25.9a7.3 7.3 0 1 1 0-14.6 7.3 7.3 0 0 1 0 14.6" fill="#005bbb9B"/><path d="M7.5-334.7a7.3 7.3 0 1 1 0-14.7 7.3 7.3 0 0 1 0 14.7" fill="#c2e1ff9C"/><path d="M305.2-144.8a7.4 7.4 0 1 1 0-14.8 7.4 7.4 0 0 1 0 14.8" fill="#fff9D"/><path d="M-72.2-268.4a7.4 7.4 0 1 1 0-14.8 7.4 7.4 0 0 1 0 14.8" fill="#fff9E"/><path d="M259.2-287.8a7.4 7.4 0 1 1 0-14.9 7.4 7.4 0 0 1 0 14.9" fill="#005bbb9E"/><path d="M137.7 49.3a7.5 7.5 0 1 1 0-14.9 7.5 7.5 0 0 1 0 14.9" fill="#fff9F"/><path d="M225.5 12.8a7.5 7.5 0 1 1 0-15 7.5 7.5 0 0 1 0 15" fill="#005bbb9F"/><path d="M152.1 48.8a7.5 7.5 0 1 1 0-15 7.5 7.5 0 0 1 0 15" fill="#005bbbA0"/><path d="M306.5-204.6a7.6 7.6 0 1 1 0-15.1 7.6 7.6 0 0 1 0 15.1" fill="#c2e1ffA1"/><path d="M258.1-300.3a7.6 7.6 0 1 1 0-15.2 7.6 7.6 0 0 1 0 15.2" fill="#fff500A2"/><path d="M-6 32a7.6 7.6 0 1 1 0-15.3 7.6 7.6 0 0 1 0 15.3" fill="#005bbbA2"/><path d="M69.7-369a7.7 7.7 0 1 1 0-15.4 7.7 7.7 0 0 1 0 15.4" fill="#c2e1ffA3"/><path d="M315.1-195.6a7.8 7.8 0 1 1 0-15.5 7.8 7.8 0 0 1 0 15.5" fill="#fff500A5"/><path d="M246.8-319.8a7.8 7.8 0 1 1 0-15.6 7.8 7.8 0 0 1 0 15.6" fill="#fffA6"/><path d="M-119-122.3a7.8 7.8 0 1 1 0-15.7 7.8 7.8 0 0 1 0 15.7" fill="#005bbbA7"/><path d="M319.6-187a7.8 7.8 0 1 1 0-15.7 7.8 7.8 0 0 1 0 15.7" fill="#fff500A7"/><path d="M312.5-225.4a7.9 7.9 0 1 1 0-15.8 7.9 7.9 0 0 1 0 15.8" fill="#005bbbA9"/><path d="M264.7-2.1a7.9 7.9 0 1 1 0-15.8 7.9 7.9 0 0 1 0 15.8" fill="#005bbbA9"/><path d="M292.3-35.3a8 8 0 1 1 0-16 8 8 0 0 1 0 16" fill="#c2e1ffAB"/><path d="M-75.7-297.7a8 8 0 1 1 0-16 8 8 0 0 1 0 16" fill="#fffAB"/><path d="M253.1 15.6a8.1 8.1 0 1 1 0-16.2 8.1 8.1 0 0 1 0 16.2" fill="#005bbbAD"/><path d="M-123.2-103a8.1 8.1 0 1 1 0-16.3 8.1 8.1 0 0 1 0 16.3" fill="#fff500AE"/><path d="M-119.2-86.7a8.2 8.2 0 1 1 0-16.3 8.2 8.2 0 0 1 0 16.3" fill="#fffAE"/><path d="M104.6-385.2a8.2 8.2 0 1 1 0-16.5 8.2 8.2 0 0 1 0 16.5" fill="#fffB0"/><path d="M-112.8-64.4a8.2 8.2 0 1 1 0-16.5 8.2 8.2 0 0 1 0 16.5" fill="#fff500B0"/><path d="M-129.9-183.3a8.3 8.3 0 1 1 0-16.5 8.3 8.3 0 0 1 0 16.5" fill="#c2e1ffB1"/><path d="M-71 3.2a8.3 8.3 0 1 1 0-16.7 8.3 8.3 0 0 1 0 16.7" fill="#005bbbB2"/><path d="M264.4-318.9a8.4 8.4 0 1 1 0-16.7 8.4 8.4 0 0 1 0 16.7" fill="#fff500B2"/><path d="M266.1 9.4a8.4 8.4 0 1 1 0-16.8 8.4 8.4 0 0 1 0 16.8" fill="#c2e1ffB3"/><path d="M-94.7-282.5a8.4 8.4 0 1 1 0-16.8 8.4 8.4 0 0 1 0 16.8" fill="#c2e1ffB3"/><path d="M319.7-75a8.4 8.4 0 1 1 0-16.8 8.4 8.4 0 0 1 0 16.8" fill="#fffB4"/><path d="M290.8-18.6a8.5 8.5 0 1 1 0-16.9 8.5 8.5 0 0 1 0 16.9" fill="#fffB5"/><path d="M240 33.6a8.5 8.5 0 1 1 0-17 8.5 8.5 0 0 1 0 17" fill="#fffB5"/><path d="M-20.8-355.3a8.5 8.5 0 1 1 0-17.1 8.5 8.5 0 0 1 0 17.1" fill="#fffB6"/><path d="M335-153.9a8.6 8.6 0 1 1 0-17.2 8.6 8.6 0 0 1 0 17.2" fill="#fffB7"/><path d="M-134.6-137.3a8.6 8.6 0 1 1 0-17.2 8.6 8.6 0 0 1 0 17.2" fill="#fff500B7"/><path d="M18.6 66.9a8.6 8.6 0 1 1 0-17.2 8.6 8.6 0 0 1 0 17.2" fill="#c2e1ffB8"/><path d="M-45.2-339.8a8.7 8.7 0 1 1 0-17.5 8.7 8.7 0 0 1 0 17.5" fill="#fff500BB"/><path d="M-73.2-314.1a8.7 8.7 0 1 1 0-17.5 8.7 8.7 0 0 1 0 17.5" fill="#005bbbBB"/><path d="M305.9-38.1a8.8 8.8 0 1 1 0-17.5 8.8 8.8 0 0 1 0 17.5" fill="#005bbbBB"/><path d="M27.3-378.4a8.8 8.8 0 1 1 0-17.7 8.8 8.8 0 0 1 0 17.7" fill="#fff500BD"/><path d="M325.6-83.5a8.8 8.8 0 1 1 0-17.6 8.8 8.8 0 0 1 0 17.6" fill="#fff500BD"/><path d="M58-386.1a8.9 8.9 0 1 1 0-17.8 8.9 8.9 0 0 1 0 17.8" fill="#fffBE"/><path d="M3.4-369a8.9 8.9 0 1 1 0-17.9 8.9 8.9 0 0 1 0 17.9" fill="#fffBF"/><path d="M329.7-206.5a9.1 9.1 0 1 1 0-18.1 9.1 9.1 0 0 1 0 18.1" fill="#c2e1ffC2"/><path d="M317.5-64.1a9.1 9.1 0 1 1 0-18.2 9.1 9.1 0 0 1 0 18.2" fill="#005bbbC4"/><path d="M-83-5.8a9.2 9.2 0 1 1 0-18.3 9.2 9.2 0 0 1 0 18.3" fill="#fff500C4"/><path d="M226.7 44.6a9.2 9.2 0 1 1 0-18.3 9.2 9.2 0 0 1 0 18.3" fill="#fffC4"/><path d="M304.2-38.3a9.2 9.2 0 1 1 0-18.5 9.2 9.2 0 0 1 0 18.5" fill="#c2e1ffC6"/><path d="M327.9-207.1a9.2 9.2 0 1 1 0-18.5 9.2 9.2 0 0 1 0 18.5" fill="#c2e1ffC6"/><path d="M1.3-365.5a9.3 9.3 0 1 1 0-18.5 9.3 9.3 0 0 1 0 18.5" fill="#c2e1ffC6"/><path d="M49.2-381.7a9.3 9.3 0 1 1 0-18.5 9.3 9.3 0 0 1 0 18.5" fill="#fff500C6"/><path d="M83.8-386.1a9.3 9.3 0 1 1 0-18.6 9.3 9.3 0 0 1 0 18.6" fill="#fffC7"/><path d="M130.2-384.3a9.3 9.3 0 1 1 0-18.6 9.3 9.3 0 0 1 0 18.6" fill="#fff500C8"/><path d="M328.1-197.2a9.4 9.4 0 1 1 0-18.8 9.4 9.4 0 0 1 0 18.8" fill="#c2e1ffC9"/><path d="M306.7-47.8a9.4 9.4 0 1 1 0-18.8 9.4 9.4 0 0 1 0 18.8" fill="#fff500CA"/><path d="M82 77.2a9.5 9.5 0 1 1 0-19 9.5 9.5 0 0 1 0 19" fill="#005bbbCB"/><path d="M309.8-248.1a9.5 9.5 0 1 1 0-19.1 9.5 9.5 0 0 1 0 19.1" fill="#c2e1ffCC"/><path d="M326.3-111.2a9.5 9.5 0 1 1 0-19 9.5 9.5 0 0 1 0 19" fill="#c2e1ffCC"/><path d="M329.9-159.1a9.5 9.5 0 1 1 0-19.1 9.5 9.5 0 0 1 0 19.1" fill="#005bbbCC"/><path d="M-113.9-69.7a9.6 9.6 0 1 1 0-19.1 9.6 9.6 0 0 1 0 19.1" fill="#c2e1ffCD"/><path d="M-65.9 4.7a9.6 9.6 0 1 1 0-19.2 9.6 9.6 0 0 1 0 19.2" fill="#fff500CE"/><path d="M220.9-346.2a9.6 9.6 0 1 1 0-19.3 9.6 9.6 0 0 1 0 19.3" fill="#c2e1ffCE"/><path d="M-96.3-37a9.6 9.6 0 1 1 0-19.2 9.6 9.6 0 0 1 0 19.2" fill="#fff500CF"/><path d="M236.8-334.1a9.7 9.7 0 1 1 0-19.4 9.7 9.7 0 0 1 0 19.4" fill="#fff500CF"/><path d="M-72.4-300.3a9.7 9.7 0 1 1 0-19.3 9.7 9.7 0 0 1 0 19.3" fill="#005bbbD0"/><path d="M292.9-271.9a9.7 9.7 0 1 1 0-19.3 9.7 9.7 0 0 1 0 19.3" fill="#fffD0"/><path d="M-38-331.2a9.7 9.7 0 1 1 0-19.5 9.7 9.7 0 0 1 0 19.5" fill="#fffD1"/><path d="M8.9 52.9a9.8 9.8 0 1 1 0-19.5 9.8 9.8 0 0 1 0 19.5" fill="#fffD1"/><path d="M212 39.1a9.9 9.9 0 1 1 0-19.7 9.9 9.9 0 0 1 0 19.7" fill="#005bbbD4"/><path d="M258.4-307.3a9.9 9.9 0 1 1 0-19.8 9.9 9.9 0 0 1 0 19.8" fill="#fff500D4"/><path d="M4.2 46.1a9.9 9.9 0 1 1 0-19.8 9.9 9.9 0 0 1 0 19.8" fill="#005bbbD5"/><path d="M-114.7-200.3a9.9 9.9 0 1 1 0-19.9 9.9 9.9 0 0 1 0 19.9" fill="#fffD5"/><path d="M157 59.2a10 10 0 1 1 0-19.9 10 10 0 0 1 0 19.9" fill="#c2e1ffD6"/><path d="M74.5-367.1a10.1 10.1 0 1 1 0-20.1 10.1 10.1 0 0 1 0 20.1" fill="#c2e1ffD8"/><path d="M315.1-170.3a10.1 10.1 0 1 1 0-20.1 10.1 10.1 0 0 1 0 20.1" fill="#fffD8"/><path d="M303.1-218.1a10.1 10.1 0 1 1 0-20.2 10.1 10.1 0 0 1 0 20.2" fill="#005bbbD9"/><path d="M11.8 41.8a10.1 10.1 0 1 1 0-20.3 10.1 10.1 0 0 1 0 20.3" fill="#c2e1ffD9"/><path d="M-105.9-107.4a10.2 10.2 0 1 1 0-20.3 10.2 10.2 0 0 1 0 20.3" fill="#fff500DB"/><path d="M190.8 37a10.2 10.2 0 1 1 0-20.4 10.2 10.2 0 0 1 0 20.4" fill="#c2e1ffDB"/><path d="M-90.4-238.2a10.2 10.2 0 1 1 0-20.5 10.2 10.2 0 0 1 0 20.5" fill="#005bbbDC"/><path d="M88.8 54.4a10.3 10.3 0 1 1 0-20.6 10.3 10.3 0 0 1 0 20.6" fill="#005bbbDD"/><path d="M45.9 45.3a10.3 10.3 0 1 1 0-20.6 10.3 10.3 0 0 1 0 20.6" fill="#005bbbDE"/><path d="M160.2 42.9a10.3 10.3 0 1 1 0-20.7 10.3 10.3 0 0 1 0 20.7" fill="#c2e1ffDE"/><path d="M-47-293.4a10.4 10.4 0 1 1 0-20.7 10.4 10.4 0 0 1 0 20.7" fill="#c2e1ffDE"/><path d="M70.9-353.5a10.4 10.4 0 1 1 0-20.7 10.4 10.4 0 0 1 0 20.7" fill="#fffDF"/><path d="M237.5-2.9a10.4 10.4 0 1 1 0-20.7 10.4 10.4 0 0 1 0 20.7" fill="#005bbbDF"/><path d="M-0.8 23.9a10.4 10.4 0 1 1 0-20.8 10.4 10.4 0 0 1 0 20.8" fill="#c2e1ffDF"/><path d="M-60.5-28.2a10.4 10.4 0 1 1 0-20.8 10.4 10.4 0 0 1 0 20.8" fill="#fffDF"/><path d="M-75.8-52.6a10.4 10.4 0 1 1 0-20.8 10.4 10.4 0 0 1 0 20.8" fill="#fff500DF"/><path d="M236.1-301.3a10.4 10.4 0 1 1 0-20.8 10.4 10.4 0 0 1 0 20.8" fill="#005bbbDF"/><path d="M-53.9-23.4a10.4 10.4 0 1 1 0-20.8 10.4 10.4 0 0 1 0 20.8" fill="#c2e1ffE0"/><path d="M13.1-332.9a10.4 10.4 0 1 1 0-20.8 10.4 10.4 0 0 1 0 20.8" fill="#fff500E0"/><path d="M244.9-289.9a10.4 10.4 0 1 1 0-20.8 10.4 10.4 0 0 1 0 20.8" fill="#fff500E0"/><path d="M-87.6-84.1a10.4 10.4 0 1 1 0-20.9 10.4 10.4 0 0 1 0 20.9" fill="#005bbbE0"/><path d="M26.8 31.3a10.5 10.5 0 1 1 0-21 10.5 10.5 0 0 1 0 21" fill="#c2e1ffE1"/><path d="M30.2-329.6a10.6 10.6 0 1 1 0-21.2 10.6 10.6 0 0 1 0 21.2" fill="#005bbbE4"/><path d="M-82.7-192.1a10.7 10.7 0 1 1 0-21.3 10.7 10.7 0 0 1 0 21.3" fill="#005bbbE5"/><path d="M235.3-278.1a10.7 10.7 0 1 1 0-21.3 10.7 10.7 0 0 1 0 21.3" fill="#005bbbE6"/><path d="M231.1-279.2a10.7 10.7 0 1 1 0-21.4 10.7 10.7 0 0 1 0 21.4" fill="#005bbbE7"/><path d="M4 3.1a10.7 10.7 0 1 1 0-21.5 10.7 10.7 0 0 1 0 21.5" fill="#fff500E7"/><path d="M-12.7-294.8a10.7 10.7 0 1 1 0-21.4 10.7 10.7 0 0 1 0 21.4" fill="#fffE7"/><path d="M276.7-110a10.7 10.7 0 1 1 0-21.5 10.7 10.7 0 0 1 0 21.5" fill="#c2e1ffE7"/><path d="M60.1 22.8a10.8 10.8 0 1 1 0-21.5 10.8 10.8 0 0 1 0 21.5" fill="#fffE8"/><path d="M223.8-280.7a10.8 10.8 0 1 1 0-21.6 10.8 10.8 0 0 1 0 21.6" fill="#fff500E8"/><path d="M255.3-71.7a10.8 10.8 0 1 1 0-21.7 10.8 10.8 0 0 1 0 21.7" fill="#c2e1ffE9"/><path d="M-26-271a10.9 10.9 0 1 1 0-21.7 10.9 10.9 0 0 1 0 21.7" fill="#005bbbEA"/><path d="M-60.7-88.8a10.9 10.9 0 1 1 0-21.8 10.9 10.9 0 0 1 0 21.8" fill="#fff500EA"/><path d="M172 5.1a10.9 10.9 0 1 1 0-21.7 10.9 10.9 0 0 1 0 21.7" fill="#fffEA"/><path d="M-43.6-63a10.9 10.9 0 1 1 0-21.8 10.9 10.9 0 0 1 0 21.8" fill="#c2e1ffEB"/><path d="M-17.8-31.1a10.9 10.9 0 1 1 0-21.9 10.9 10.9 0 0 1 0 21.9" fill="#c2e1ffEB"/><path d="M-9.4-272.4a11 11 0 1 1 0-22 11 11 0 0 1 0 22" fill="#fff500ED"/><path d="M-53.8-106.7a11 11 0 1 1 0-22.1 11 11 0 0 1 0 22.1" fill="#c2e1ffED"/><path d="M-1.4-274.4a11 11 0 1 1 0-22.1 11 11 0 0 1 0 22.1" fill="#005bbbED"/><path d="M31.6-10.8a11.1 11.1 0 1 1 0-22.2 11.1 11.1 0 0 1 0 22.2" fill="#fff500EE"/><path d="M204.2-36.1a11.1 11.1 0 1 1 0-22.2 11.1 11.1 0 0 1 0 22.2" fill="#c2e1ffEE"/><path d="M124.7-304.6a11.1 11.1 0 1 1 0-22.2 11.1 11.1 0 0 1 0 22.2" fill="#c2e1ffEF"/><path d="M-30.1-235.1a11.1 11.1 0 1 1 0-22.2 11.1 11.1 0 0 1 0 22.2" fill="#fff500EF"/><path d="M225.1-241.8a11.1 11.1 0 1 1 0-22.2 11.1 11.1 0 0 1 0 22.2" fill="#005bbbEF"/><path d="M-50.9-127.1a11.1 11.1 0 1 1 0-22.2 11.1 11.1 0 0 1 0 22.2" fill="#c2e1ffEF"/><path d="M236.4-95.5a11.2 11.2 0 1 1 0-22.4 11.2 11.2 0 0 1 0 22.4" fill="#fffF0"/><path d="M-10.2-241.3a11.2 11.2 0 1 1 0-22.5 11.2 11.2 0 0 1 0 22.5" fill="#fff500F1"/><path d="M228.3-115.5a11.3 11.3 0 1 1 0-22.6 11.3 11.3 0 0 1 0 22.6" fill="#fff500F3"/><path d="M-15.8-214a11.3 11.3 0 1 1 0-22.6 11.3 11.3 0 0 1 0 22.6" fill="#fff500F3"/><path d="M-31.6-146.7a11.3 11.3 0 1 1 0-22.6 11.3 11.3 0 0 1 0 22.6" fill="#fffF3"/><path d="M206.3-81.1a11.3 11.3 0 1 1 0-22.7 11.3 11.3 0 0 1 0 22.7" fill="#c2e1ffF4"/><path d="M186.1-60.3a11.4 11.4 0 1 1 0-22.7 11.4 11.4 0 0 1 0 22.7" fill="#005bbbF5"/><path d="M166.8-49.3a11.4 11.4 0 1 1 0-22.8 11.4 11.4 0 0 1 0 22.8" fill="#fff500F5"/><path d="M-6.1-208.3a11.4 11.4 0 1 1 0-22.8 11.4 11.4 0 0 1 0 22.8" fill="#fff500F5"/><path d="M192.5-227a11.4 11.4 0 1 1 0-22.8 11.4 11.4 0 0 1 0 22.8" fill="#fff500F6"/><path d="M173.7-242.9a11.4 11.4 0 1 1 0-22.9 11.4 11.4 0 0 1 0 22.9" fill="#fffF6"/><path d="M171.1-64.5a11.5 11.5 0 1 1 0-22.9 11.5 11.5 0 0 1 0 22.9" fill="#c2e1ffF7"/><path d="M170.5-65.5a11.5 11.5 0 1 1 0-22.9 11.5 11.5 0 0 1 0 22.9" fill="#005bbbF7"/><path d="M31.6-235.5a11.5 11.5 0 1 1 0-23 11.5 11.5 0 0 1 0 23" fill="#c2e1ffF7"/><path d="M199.4-108.3a11.5 11.5 0 1 1 0-23 11.5 11.5 0 0 1 0 23" fill="#fffF7"/><path d="M188.4-171.5a11.6 11.6 0 1 1 0-23.2 11.6 11.6 0 0 1 0 23.2" fill="#fffFA"/><path d="M109-68.6a11.6 11.6 0 1 1 0-23.2 11.6 11.6 0 0 1 0 23.2" fill="#fff500FA"/><path d="M33.2-117.4a11.7 11.7 0 1 1 0-23.3 11.7 11.7 0 0 1 0 23.3" fill="#005bbbFB"/><path d="M170.5-137.8a11.7 11.7 0 1 1 0-23.3 11.7 11.7 0 0 1 0 23.3" fill="#005bbbFB"/><path d="M78.3-93.8a11.7 11.7 0 1 1 0-23.4 11.7 11.7 0 0 1 0 23.4" fill="#c2e1ffFC"/><path d="M132.7-199.1a11.7 11.7 0 1 1 0-23.4 11.7 11.7 0 0 1 0 23.4" fill="#fff500FC"/></g></svg>