<svg width="1200" height="675" viewBox="-500 -500 1200 675" xmlns="http://www.w3.org/2000/svg"><path d="M-500-500h1200v675h-1200z" fill="#000"/><style>.sparkles path{stroke-linecap:round; stroke-width:1}</style><g class="sparkles"><path d="M100-162.5l-28.1 20.8" stroke="#005bbb32"/><path d="M100-162.5l-44.4-2.8" stroke="#005bbb32"/><path d="M100-162.5l45.5 5.7" stroke="#c2e1ff32"/><path d="M100-162.5l-35.3 55" stroke="#fff50033"/><path d="M100-162.5l16.9-63.1" stroke="#fff50033"/><path d="M100-162.5l42.7 50.5" stroke="#005bbb34"/><path d="M100-162.5l61.7 31.9" stroke="#fff50034"/><path d="M100-162.5l67.8-40.7" stroke="#fff34"/><path d="M100-162.5l-12.5-82.9" stroke="#fff50035"/><path d="M100-162.5l-10.4-91.1" stroke="#c2e1ff35"/><path d="M100-162.5l86.3 32.7" stroke="#c2e1ff35"/><path d="M100-162.5l23.1-91.7" stroke="#fff36"/><path d="M100-162.5l-8.3-94.3" stroke="#fff36"/><path d="M100-162.5l-97.1-43.8" stroke="#005bbb37"/><path d="M100-162.5l82.7 69.6" stroke="#fff37"/><path d="M100-162.5l105.6-32.4" stroke="#c2e1ff37"/><path d="M100-162.5l-112.3 8" stroke="#c2e1ff38"/><path d="M100-162.5l-85.1 74.5" stroke="#fff50038"/><path d="M100-162.5l-25-130.9" stroke="#005bbb3A"/><path d="M100-162.5l140.8-19.8" stroke="#fff5003C"/><path d="M100-162.5l-99.8 118.9" stroke="#005bbb3E"/><path d="M100-162.5l-80.3-134.7" stroke="#c2e1ff3E"/><path d="M100-162.5l37.7-154.1" stroke="#fff5003E"/><path d="M100-162.5l173.1 2.3" stroke="#fff41"/><path d="M100-162.5l95.7-154.8" stroke="#005bbb44"/><path d="M100-162.5l-82.4-162.2" stroke="#fff44"/><path d="M100-162.5l26.9-181.1" stroke="#fff50044"/><path d="M100-162.5l-176.4 51.6" stroke="#fff44"/><path d="M100-162.5l80.5 169.7" stroke="#c2e1ff45"/><path d="M100-162.5l-188.1 31.3" stroke="#fff46"/><path d="M100-162.5l8.3 195.8" stroke="#c2e1ff48"/><path d="M100-162.5l-186.1 64.9" stroke="#fff50048"/><path d="M100-162.5l193.1-52" stroke="#fff50049"/><path d="M100-162.5l201.7-11.2" stroke="#fff4A"/><path d="M100-162.5l-187.4-82.3" stroke="#fff5004B"/><path d="M100-162.5l-179 103.3" stroke="#c2e1ff4B"/><path d="M100-162.5l-210.2-9.4" stroke="#c2e1ff4D"/><path d="M100-162.5l59.2 203.8" stroke="#005bbb4E"/><path d="M100-162.5l213.5 13.8" stroke="#c2e1ff4E"/><path d="M100-162.5l-201.4 75.9" stroke="#fff5004F"/><path d="M100-162.5l-40.2 211.9" stroke="#fff4F"/><path d="M100-162.5l-120.8-181.5" stroke="#c2e1ff50"/><path d="M100-162.5l2.5-218.3" stroke="#fff50"/><path d="M100-162.5l-51.2 215.2" stroke="#005bbb52"/><path d="M100-162.5l-164.8-150.2" stroke="#c2e1ff53"/><path d="M100-162.5l-149.3 166.3" stroke="#fff53"/><path d="M100-162.5l-198.9-103.5" stroke="#fff54"/><path d="M100-162.5l-7.9 224.9" stroke="#c2e1ff54"/><path d="M100-162.5l222.5 36.2" stroke="#fff55"/><path d="M100-162.5l-126.4-186.7" stroke="#fff50055"/><path d="M100-162.5l-213.4 74.1" stroke="#c2e1ff55"/><path d="M100-162.5l196.8-113.7" stroke="#005bbb56"/><path d="M100-162.5l-12.1 227.4" stroke="#c2e1ff56"/><path d="M100-162.5l206.9-96.5" stroke="#fff50057"/><path d="M100-162.5l-168.5-156.9" stroke="#fff58"/><path d="M100-162.5l102.6 206.5" stroke="#fff50059"/><path d="M100-162.5l231.2-0.1" stroke="#fff59"/><path d="M100-162.5l1 231.8" stroke="#fff5005A"/><path d="M100-162.5l-187.8-136.3" stroke="#005bbb5A"/><path d="M100-162.5l207-106.2" stroke="#fff5B"/><path d="M100-162.5l23.1-233" stroke="#005bbb5D"/><path d="M100-162.5l-205 114.3" stroke="#c2e1ff5E"/><path d="M100-162.5l100.9 212" stroke="#005bbb5E"/><path d="M100-162.5l230-50.3" stroke="#fff5005F"/><path d="M100-162.5l0.3-235.6" stroke="#fff60"/><path d="M100-162.5l66.2 226.4" stroke="#005bbb61"/><path d="M100-162.5l-223.8-75" stroke="#005bbb61"/><path d="M100-162.5l184.4-147.5" stroke="#c2e1ff62"/><path d="M100-162.5l-113.6-207" stroke="#fff62"/><path d="M100-162.5l-5 236.1" stroke="#fff50062"/><path d="M100-162.5l38.7-233" stroke="#fff63"/><path d="M100-162.5l-105.8-211.2" stroke="#fff50063"/><path d="M100-162.5l-196.1-131.8" stroke="#c2e1ff63"/><path d="M100-162.5l233.8-34.1" stroke="#005bbb64"/><path d="M100-162.5l-183.9-148.3" stroke="#fff64"/><path d="M100-162.5l124.3 200.7" stroke="#c2e1ff65"/><path d="M100-162.5l142.5 188.1" stroke="#c2e1ff66"/><path d="M100-162.5l147.7-184.1" stroke="#005bbb66"/><path d="M100-162.5l59.8 228.2" stroke="#005bbb66"/><path d="M100-162.5l-123.4-201" stroke="#fff50066"/><path d="M100-162.5l-75.4-223.5" stroke="#c2e1ff66"/><path d="M100-162.5l147.4-183.8" stroke="#fff50067"/><path d="M100-162.5l229.7 52.1" stroke="#c2e1ff67"/><path d="M100-162.5l92.7-216.1" stroke="#fff50068"/><path d="M100-162.5l-93.1 215.8" stroke="#005bbb69"/><path d="M100-162.5l229 52.6" stroke="#fff50069"/><path d="M100-162.5l-190-137.8" stroke="#005bbb69"/><path d="M100-162.5l-65.7-224.7" stroke="#fff5006A"/><path d="M100-162.5l-134-191.9" stroke="#c2e1ff6A"/><path d="M100-162.5l85.8 215.6" stroke="#005bbb6D"/><path d="M100-162.5l-230-28.5" stroke="#fff6D"/><path d="M100-162.5l-183.3 141.7" stroke="#fff6D"/><path d="M100-162.5l167.5 159.8" stroke="#c2e1ff6D"/><path d="M100-162.5l-218.4 75.6" stroke="#005bbb6E"/><path d="M100-162.5l-20.3 229.2" stroke="#fff5006F"/><path d="M100-162.5l21.2-228.7" stroke="#fff5006F"/><path d="M100-162.5l212.8-77.6" stroke="#fff72"/><path d="M100-162.5l226.1 11.2" stroke="#c2e1ff72"/><path d="M100-162.5l-208.2 88.6" stroke="#fff50072"/><path d="M100-162.5l-127.2-185.4" stroke="#c2e1ff73"/><path d="M100-162.5l-184.5 127.4" stroke="#c2e1ff73"/><path d="M100-162.5l93.4 203.6" stroke="#fff73"/><path d="M100-162.5l-143.9-171.2" stroke="#fff74"/><path d="M100-162.5l-46-217.5" stroke="#005bbb74"/><path d="M100-162.5l84.7-204.9" stroke="#005bbb75"/><path d="M100-162.5l202.2 89.8" stroke="#c2e1ff75"/><path d="M100-162.5l-192.8-106" stroke="#c2e1ff76"/><path d="M100-162.5l-219.2 2" stroke="#005bbb76"/><path d="M100-162.5l-206.6 70.8" stroke="#fff77"/><path d="M100-162.5l8.7-217.6" stroke="#fff50077"/><path d="M100-162.5l1.9 217.3" stroke="#fff77"/><path d="M100-162.5l-175.7-124.7" stroke="#c2e1ff78"/><path d="M100-162.5l95.2-193.2" stroke="#fff78"/><path d="M100-162.5l200.3 78.6" stroke="#005bbb78"/><path d="M100-162.5l120.3-177.5" stroke="#fff78"/><path d="M100-162.5l-50.3 208" stroke="#c2e1ff79"/><path d="M100-162.5l213.5-3.3" stroke="#fff79"/><path d="M100-162.5l-212.6 11.2" stroke="#fff50079"/><path d="M100-162.5l210.1 29" stroke="#fff5007A"/><path d="M100-162.5l159.3 138.8" stroke="#fff7A"/><path d="M100-162.5l-178.6-112.4" stroke="#fff7A"/><path d="M100-162.5l122.4-169.9" stroke="#c2e1ff7B"/><path d="M100-162.5l-133.1-160.9" stroke="#fff5007B"/><path d="M100-162.5l-82.9 186" stroke="#fff5007D"/><path d="M100-162.5l155.9-125.1" stroke="#fff5007E"/><path d="M100-162.5l-44.3-194.4" stroke="#fff5007E"/><path d="M100-162.5l-100.3-170" stroke="#c2e1ff7F"/><path d="M100-162.5l-35.7-189.6" stroke="#c2e1ff80"/><path d="M100-162.5l-192.3 5.4" stroke="#005bbb81"/><path d="M100-162.5l-21.4-186" stroke="#c2e1ff82"/><path d="M100-162.5l-50 178.7" stroke="#c2e1ff82"/><path d="M100-162.5l-173.3 62.8" stroke="#c2e1ff83"/><path d="M100-162.5l143.9 114.5" stroke="#fff83"/><path d="M100-162.5l-183.2 7.5" stroke="#fff83"/><path d="M100-162.5l70.3-168" stroke="#fff83"/><path d="M100-162.5l19.7-181" stroke="#fff50083"/><path d="M100-162.5l-176.6-39.2" stroke="#fff50084"/><path d="M100-162.5l172.7 53.1" stroke="#c2e1ff84"/><path d="M100-162.5l180.3 0" stroke="#fff84"/><path d="M100-162.5l93.7 153.4" stroke="#fff84"/><path d="M100-162.5l-145.9-104.3" stroke="#c2e1ff84"/><path d="M100-162.5l-168.6 58.5" stroke="#fff50084"/><path d="M100-162.5l-173.5 39.5" stroke="#c2e1ff84"/><path d="M100-162.5l49.8 170.9" stroke="#c2e1ff84"/><path d="M100-162.5l35.3-173.2" stroke="#fff85"/><path d="M100-162.5l119.6 118.8" stroke="#005bbb87"/><path d="M100-162.5l-2.7 167.8" stroke="#c2e1ff87"/><path d="M100-162.5l-60 155.5" stroke="#005bbb87"/><path d="M100-162.5l-148.2 71.6" stroke="#c2e1ff87"/><path d="M100-162.5l-72.2-146.7" stroke="#c2e1ff88"/><path d="M100-162.5l26.7-161.3" stroke="#c2e1ff88"/><path d="M100-162.5l46.7-153.6" stroke="#fff50088"/><path d="M100-162.5l49.4-152.1" stroke="#fff88"/><path d="M100-162.5l-115 111" stroke="#fff50088"/><path d="M100-162.5l-159-6.2" stroke="#fff50088"/><path d="M100-162.5l18.2 156.5" stroke="#fff50089"/><path d="M100-162.5l-114.1-91.8" stroke="#c2e1ff8B"/><path d="M100-162.5l80.4 117.4" stroke="#c2e1ff8B"/><path d="M100-162.5l79.7 109.3" stroke="#fff5008D"/><path d="M100-162.5l86.3-102.7" stroke="#005bbb8D"/><path d="M100-162.5l-80.2 106" stroke="#c2e1ff8D"/><path d="M100-162.5l-111.5-56.9" stroke="#c2e1ff8E"/><path d="M100-162.5l41 118" stroke="#fff5008E"/><path d="M100-162.5l-119.1-35.7" stroke="#fff5008E"/><path d="M100-162.5l-59 103.8" stroke="#c2e1ff8F"/><path d="M100-162.5l39.9-102.5" stroke="#c2e1ff90"/><path d="M100-162.5l102.1-24.5" stroke="#fff50090"/><path d="M100-162.5l90.2-50.3" stroke="#fff50090"/><path d="M100-162.5l100.2-0.2" stroke="#005bbb91"/><path d="M100-162.5l-14-89.4" stroke="#005bbb92"/><path d="M100-162.5l-86 20.1" stroke="#fff92"/><path d="M100-162.5l76.8 40.5" stroke="#fff92"/><path d="M100-162.5l-51.2-63.9" stroke="#005bbb92"/><path d="M100-162.5l52 26.8" stroke="#fff50094"/><path d="M100-162.5l-16.6 55.6" stroke="#fff50094"/><path d="M100-162.5l-5 39.3" stroke="#c2e1ff95"/><path d="M100-162.5l11.5-37.3" stroke="#005bbb95"/><path d="M100-162.5l-29.2 11.7" stroke="#005bbb95"/><path d="M100-162.5l-4.5-28.8" stroke="#c2e1ff95"/><path d="M100-162.5l-24.7 5.3" stroke="#fff95"/><path d="M100-162.5l1.4-9.9" stroke="#fff95"/></g><g class="sparcs"><path d="M71.9-135.7a5.9 5.9 0 1 1 0-11.9 5.9 5.9 0 0 1 0 11.9" fill="#fff7D"/><path d="M55.6-159.4a6 6 0 1 1 0-11.9 6 6 0 0 1 0 11.9" fill="#fff5007E"/><path d="M145.5-150.8a6 6 0 1 1 0-12 6 6 0 0 1 0 12" fill="#fff5007E"/><path d="M64.7-101.5a6 6 0 1 1 0-12.1 6 6 0 0 1 0 12.1" fill="#c2e1ff7F"/><path d="M116.9-219.6a6 6 0 1 1 0-12 6 6 0 0 1 0 12" fill="#005bbb7F"/><path d="M142.7-105.9a6 6 0 1 1 0-12.1 6 6 0 0 1 0 12.1" fill="#fff5007F"/><path d="M161.7-124.5a6 6 0 1 1 0-12.1 6 6 0 0 1 0 12.1" fill="#c2e1ff7F"/><path d="M167.8-197.1a6.1 6.1 0 1 1 0-12.2 6.1 6.1 0 0 1 0 12.2" fill="#005bbb80"/><path d="M87.5-239.3a6.1 6.1 0 1 1 0-12.2 6.1 6.1 0 0 1 0 12.2" fill="#fff81"/><path d="M89.6-247.4a6.1 6.1 0 1 1 0-12.3 6.1 6.1 0 0 1 0 12.3" fill="#fff50082"/><path d="M186.3-123.6a6.1 6.1 0 1 1 0-12.3 6.1 6.1 0 0 1 0 12.3" fill="#fff50082"/><path d="M123.1-248a6.2 6.2 0 1 1 0-12.3 6.2 6.2 0 0 1 0 12.3" fill="#fff82"/><path d="M91.7-250.7a6.2 6.2 0 1 1 0-12.3 6.2 6.2 0 0 1 0 12.3" fill="#fff50082"/><path d="M2.9-200.1a6.2 6.2 0 1 1 0-12.4 6.2 6.2 0 0 1 0 12.4" fill="#fff83"/><path d="M182.7-86.6a6.2 6.2 0 1 1 0-12.5 6.2 6.2 0 0 1 0 12.5" fill="#fff84"/><path d="M205.6-188.7a6.2 6.2 0 1 1 0-12.5 6.2 6.2 0 0 1 0 12.5" fill="#005bbb84"/><path d="M-12.3-148.2a6.3 6.3 0 1 1 0-12.5 6.3 6.3 0 0 1 0 12.5" fill="#fff50084"/><path d="M14.9-81.7a6.3 6.3 0 1 1 0-12.6 6.3 6.3 0 0 1 0 12.6" fill="#c2e1ff84"/><path d="M75-287a6.4 6.4 0 1 1 0-12.8 6.4 6.4 0 0 1 0 12.8" fill="#c2e1ff88"/><path d="M240.8-175.8a6.5 6.5 0 1 1 0-13 6.5 6.5 0 0 1 0 13" fill="#fff8A"/><path d="M0.2-37a6.6 6.6 0 1 1 0-13.2 6.6 6.6 0 0 1 0 13.2" fill="#fff5008D"/><path d="M19.7-290.6a6.7 6.7 0 1 1 0-13.3 6.7 6.7 0 0 1 0 13.3" fill="#fff5008D"/><path d="M137.7-310a6.7 6.7 0 1 1 0-13.3 6.7 6.7 0 0 1 0 13.3" fill="#c2e1ff8D"/><path d="M273.1-153.4a6.8 6.8 0 1 1 0-13.7 6.8 6.8 0 0 1 0 13.7" fill="#c2e1ff91"/><path d="M195.7-310.3a7 7 0 1 1 0-13.9 7 7 0 0 1 0 13.9" fill="#005bbb94"/><path d="M17.6-317.8a7 7 0 1 1 0-13.9 7 7 0 0 1 0 13.9" fill="#005bbb94"/><path d="M126.9-336.6a7 7 0 1 1 0-14 7 7 0 0 1 0 14" fill="#fff94"/><path d="M-76.4-103.9a7 7 0 1 1 0-14 7 7 0 0 1 0 14" fill="#fff50095"/><path d="M180.5 14.2a7.1 7.1 0 1 1 0-14.1 7.1 7.1 0 0 1 0 14.1" fill="#fff50096"/><path d="M-88.1-124.1a7.1 7.1 0 1 1 0-14.2 7.1 7.1 0 0 1 0 14.2" fill="#c2e1ff97"/><path d="M108.3 40.5a7.2 7.2 0 1 1 0-14.5 7.2 7.2 0 0 1 0 14.5" fill="#fff99"/><path d="M-86.1-90.4a7.2 7.2 0 1 1 0-14.4 7.2 7.2 0 0 1 0 14.4" fill="#005bbb9A"/><path d="M293.1-207.2a7.3 7.3 0 1 1 0-14.5 7.3 7.3 0 0 1 0 14.5" fill="#c2e1ff9B"/><path d="M301.7-166.4a7.3 7.3 0 1 1 0-14.7 7.3 7.3 0 0 1 0 14.7" fill="#fff9C"/><path d="M-87.4-237.4a7.4 7.4 0 1 1 0-14.8 7.4 7.4 0 0 1 0 14.8" fill="#c2e1ff9D"/><path d="M-79-51.7a7.4 7.4 0 1 1 0-14.9 7.4 7.4 0 0 1 0 14.9" fill="#005bbb9E"/><path d="M-110.2-164.4a7.5 7.5 0 1 1 0-15 7.5 7.5 0 0 1 0 15" fill="#fffA0"/><path d="M159.2 48.9a7.6 7.6 0 1 1 0-15.2 7.6 7.6 0 0 1 0 15.2" fill="#005bbbA1"/><path d="M313.5-141.1a7.6 7.6 0 1 1 0-15.2 7.6 7.6 0 0 1 0 15.2" fill="#fffA2"/><path d="M-101.4-79a7.6 7.6 0 1 1 0-15.2 7.6 7.6 0 0 1 0 15.2" fill="#fff500A3"/><path d="M59.8 57.1a7.7 7.7 0 1 1 0-15.3 7.7 7.7 0 0 1 0 15.3" fill="#fffA3"/><path d="M-20.8-336.2a7.7 7.7 0 1 1 0-15.5 7.7 7.7 0 0 1 0 15.5" fill="#c2e1ffA4"/><path d="M102.5-373.1a7.7 7.7 0 1 1 0-15.4 7.7 7.7 0 0 1 0 15.4" fill="#fffA5"/><path d="M48.8 60.5a7.8 7.8 0 1 1 0-15.6 7.8 7.8 0 0 1 0 15.6" fill="#fff500A7"/><path d="M-64.8-304.8a7.9 7.9 0 1 1 0-15.7 7.9 7.9 0 0 1 0 15.7" fill="#c2e1ffA8"/><path d="M-49.3 11.7a7.9 7.9 0 1 1 0-15.8 7.9 7.9 0 0 1 0 15.8" fill="#c2e1ffA8"/><path d="M-98.9-258.1a7.9 7.9 0 1 1 0-15.9 7.9 7.9 0 0 1 0 15.9" fill="#005bbbA9"/><path d="M92.1 70.4a8 8 0 1 1 0-15.9 8 8 0 0 1 0 15.9" fill="#c2e1ffAA"/><path d="M322.5-118.4a8 8 0 1 1 0-15.9 8 8 0 0 1 0 15.9" fill="#fffAA"/><path d="M-26.4-341.2a8 8 0 1 1 0-16 8 8 0 0 1 0 16" fill="#005bbbAA"/><path d="M-113.4-80.4a8 8 0 1 1 0-16 8 8 0 0 1 0 16" fill="#005bbbAB"/><path d="M296.8-268.1a8.1 8.1 0 1 1 0-16.1 8.1 8.1 0 0 1 0 16.1" fill="#fffAC"/><path d="M87.9 73a8.1 8.1 0 1 1 0-16.1 8.1 8.1 0 0 1 0 16.1" fill="#005bbbAC"/><path d="M306.9-250.9a8.1 8.1 0 1 1 0-16.2 8.1 8.1 0 0 1 0 16.2" fill="#c2e1ffAD"/><path d="M-68.5-311.2a8.2 8.2 0 1 1 0-16.4 8.2 8.2 0 0 1 0 16.4" fill="#005bbbAF"/><path d="M202.6 52.2a8.2 8.2 0 1 1 0-16.4 8.2 8.2 0 0 1 0 16.4" fill="#c2e1ffAF"/><path d="M331.2-154.3a8.3 8.3 0 1 1 0-16.5 8.3 8.3 0 0 1 0 16.5" fill="#fff500B0"/><path d="M101 77.6a8.3 8.3 0 1 1 0-16.6 8.3 8.3 0 0 1 0 16.6" fill="#005bbbB1"/><path d="M-87.8-290.5a8.3 8.3 0 1 1 0-16.6 8.3 8.3 0 0 1 0 16.6" fill="#c2e1ffB1"/><path d="M307-260.3a8.3 8.3 0 1 1 0-16.7 8.3 8.3 0 0 1 0 16.7" fill="#005bbbB2"/><path d="M123.1-387a8.5 8.5 0 1 1 0-16.9 8.5 8.5 0 0 1 0 16.9" fill="#005bbbB5"/><path d="M-105-39.7a8.5 8.5 0 1 1 0-17 8.5 8.5 0 0 1 0 17" fill="#c2e1ffB6"/><path d="M200.9 58a8.5 8.5 0 1 1 0-17.1 8.5 8.5 0 0 1 0 17.1" fill="#c2e1ffB6"/><path d="M330-204.2a8.6 8.6 0 1 1 0-17.2 8.6 8.6 0 0 1 0 17.2" fill="#c2e1ffB8"/><path d="M100.3-389.4a8.6 8.6 0 1 1 0-17.3 8.6 8.6 0 0 1 0 17.3" fill="#c2e1ffB9"/><path d="M166.2 72.6a8.7 8.7 0 1 1 0-17.4 8.7 8.7 0 0 1 0 17.4" fill="#c2e1ffBA"/><path d="M-123.8-228.8a8.7 8.7 0 1 1 0-17.5 8.7 8.7 0 0 1 0 17.5" fill="#fffBB"/><path d="M284.4-301.2a8.8 8.8 0 1 1 0-17.5 8.8 8.8 0 0 1 0 17.5" fill="#c2e1ffBB"/><path d="M-13.6-360.8a8.8 8.8 0 1 1 0-17.5 8.8 8.8 0 0 1 0 17.5" fill="#fff500BC"/><path d="M95 82.4a8.8 8.8 0 1 1 0-17.6 8.8 8.8 0 0 1 0 17.6" fill="#fffBC"/><path d="M138.7-386.7a8.8 8.8 0 1 1 0-17.7 8.8 8.8 0 0 1 0 17.7" fill="#fff500BD"/><path d="M-5.8-364.9a8.8 8.8 0 1 1 0-17.7 8.8 8.8 0 0 1 0 17.7" fill="#fff500BD"/><path d="M-96.1-285.4a8.9 8.9 0 1 1 0-17.7 8.9 8.9 0 0 1 0 17.7" fill="#fff500BD"/><path d="M333.8-187.7a8.9 8.9 0 1 1 0-17.8 8.9 8.9 0 0 1 0 17.8" fill="#c2e1ffBE"/><path d="M-83.9-301.9a8.9 8.9 0 1 1 0-17.8 8.9 8.9 0 0 1 0 17.8" fill="#fff500BE"/><path d="M224.3 47.2a9 9 0 1 1 0-17.9 9 9 0 0 1 0 17.9" fill="#fffC0"/><path d="M242.5 34.6a9 9 0 1 1 0-17.9 9 9 0 0 1 0 17.9" fill="#fff500C0"/><path d="M247.7-337.6a9 9 0 1 1 0-18 9 9 0 0 1 0 18" fill="#005bbbC0"/><path d="M159.8 74.7a9 9 0 1 1 0-18 9 9 0 0 1 0 18" fill="#fff500C1"/><path d="M-23.4-354.5a9 9 0 1 1 0-18.1 9 9 0 0 1 0 18.1" fill="#fffC1"/><path d="M24.6-376.9a9 9 0 1 1 0-18.1 9 9 0 0 1 0 18.1" fill="#005bbbC1"/><path d="M247.4-337.2a9.1 9.1 0 1 1 0-18.2 9.1 9.1 0 0 1 0 18.2" fill="#fff500C2"/><path d="M329.7-101.3a9.1 9.1 0 1 1 0-18.2 9.1 9.1 0 0 1 0 18.2" fill="#005bbbC3"/><path d="M192.7-369.4a9.1 9.1 0 1 1 0-18.3 9.1 9.1 0 0 1 0 18.3" fill="#fff500C4"/><path d="M6.9 62.5a9.2 9.2 0 1 1 0-18.4 9.2 9.2 0 0 1 0 18.4" fill="#005bbbC4"/><path d="M329-100.7a9.2 9.2 0 1 1 0-18.3 9.2 9.2 0 0 1 0 18.3" fill="#c2e1ffC4"/><path d="M-90-291.1a9.2 9.2 0 1 1 0-18.4 9.2 9.2 0 0 1 0 18.4" fill="#005bbbC5"/><path d="M34.3-377.9a9.3 9.3 0 1 1 0-18.5 9.3 9.3 0 0 1 0 18.5" fill="#c2e1ffC6"/><path d="M-34-345.1a9.3 9.3 0 1 1 0-18.6 9.3 9.3 0 0 1 0 18.6" fill="#c2e1ffC6"/><path d="M185.8 62.5a9.4 9.4 0 1 1 0-18.8 9.4 9.4 0 0 1 0 18.8" fill="#c2e1ffCA"/><path d="M-130-181.5a9.4 9.4 0 1 1 0-18.9 9.4 9.4 0 0 1 0 18.9" fill="#005bbbCA"/><path d="M-83.3-11.3a9.4 9.4 0 1 1 0-18.9 9.4 9.4 0 0 1 0 18.9" fill="#fffCA"/><path d="M267.5 6.7a9.4 9.4 0 1 1 0-18.9 9.4 9.4 0 0 1 0 18.9" fill="#005bbbCA"/><path d="M-118.4-77.4a9.5 9.5 0 1 1 0-19 9.5 9.5 0 0 1 0 19" fill="#fff500CB"/><path d="M79.7 76.2a9.5 9.5 0 1 1 0-19 9.5 9.5 0 0 1 0 19" fill="#fffCC"/><path d="M121.2-381.6a9.6 9.6 0 1 1 0-19.1 9.6 9.6 0 0 1 0 19.1" fill="#fffCD"/><path d="M312.8-230.4a9.7 9.7 0 1 1 0-19.4 9.7 9.7 0 0 1 0 19.4" fill="#fffD0"/><path d="M326.1-141.5a9.7 9.7 0 1 1 0-19.5 9.7 9.7 0 0 1 0 19.5" fill="#fff500D0"/><path d="M-108.2-64.2a9.7 9.7 0 1 1 0-19.4 9.7 9.7 0 0 1 0 19.4" fill="#fff500D0"/><path d="M-27.2-338.1a9.8 9.8 0 1 1 0-19.5 9.8 9.8 0 0 1 0 19.5" fill="#c2e1ffD1"/><path d="M-84.5-25.3a9.8 9.8 0 1 1 0-19.6 9.8 9.8 0 0 1 0 19.6" fill="#fffD2"/><path d="M193.4 50.9a9.8 9.8 0 1 1 0-19.6 9.8 9.8 0 0 1 0 19.6" fill="#c2e1ffD2"/><path d="M-43.9-323.9a9.8 9.8 0 1 1 0-19.7 9.8 9.8 0 0 1 0 19.7" fill="#fff500D2"/><path d="M54-370.2a9.9 9.9 0 1 1 0-19.7 9.9 9.9 0 0 1 0 19.7" fill="#fff500D3"/><path d="M184.7-357.5a9.9 9.9 0 1 1 0-19.8 9.9 9.9 0 0 1 0 19.8" fill="#fff500D4"/><path d="M302.2-62.8a9.9 9.9 0 1 1 0-19.8 9.9 9.9 0 0 1 0 19.8" fill="#c2e1ffD4"/><path d="M-92.8-258.5a9.9 9.9 0 1 1 0-19.9 9.9 9.9 0 0 1 0 19.9" fill="#005bbbD5"/><path d="M-119.2-150.6a10 10 0 1 1 0-19.9 10 10 0 0 1 0 19.9" fill="#fff500D6"/><path d="M-106.6-81.7a10 10 0 1 1 0-19.9 10 10 0 0 1 0 19.9" fill="#005bbbD6"/><path d="M108.7-370.1a10 10 0 1 1 0-20 10 10 0 0 1 0 20" fill="#c2e1ffD7"/><path d="M101.9 64.8a10 10 0 1 1 0-20 10 10 0 0 1 0 20" fill="#fff500D7"/><path d="M-75.7-277.1a10.1 10.1 0 1 1 0-20.2 10.1 10.1 0 0 1 0 20.2" fill="#fffD8"/><path d="M195.2-345.6a10.1 10.1 0 1 1 0-20.2 10.1 10.1 0 0 1 0 20.2" fill="#fffD8"/><path d="M300.3-73.8a10.1 10.1 0 1 1 0-20.2 10.1 10.1 0 0 1 0 20.2" fill="#005bbbD8"/><path d="M220.3-329.9a10.1 10.1 0 1 1 0-20.2 10.1 10.1 0 0 1 0 20.2" fill="#c2e1ffD9"/><path d="M49.7 55.6a10.1 10.1 0 1 1 0-20.3 10.1 10.1 0 0 1 0 20.3" fill="#c2e1ffD9"/><path d="M313.5-155.7a10.1 10.1 0 1 1 0-20.3 10.1 10.1 0 0 1 0 20.3" fill="#fffD9"/><path d="M-112.6-141.1a10.1 10.1 0 1 1 0-20.3 10.1 10.1 0 0 1 0 20.3" fill="#fff500DA"/><path d="M310.1-123.3a10.2 10.2 0 1 1 0-20.4 10.2 10.2 0 0 1 0 20.4" fill="#fffDA"/><path d="M259.3-13.5a10.2 10.2 0 1 1 0-20.3 10.2 10.2 0 0 1 0 20.3" fill="#fff500DB"/><path d="M-78.6-264.7a10.2 10.2 0 1 1 0-20.4 10.2 10.2 0 0 1 0 20.4" fill="#fff500DB"/><path d="M222.4-322.2a10.2 10.2 0 1 1 0-20.4 10.2 10.2 0 0 1 0 20.4" fill="#fffDC"/><path d="M-33.1-313.2a10.2 10.2 0 1 1 0-20.5 10.2 10.2 0 0 1 0 20.5" fill="#c2e1ffDC"/><path d="M17.1 33.9a10.4 10.4 0 1 1 0-20.8 10.4 10.4 0 0 1 0 20.8" fill="#005bbbDE"/><path d="M255.9-277.1a10.4 10.4 0 1 1 0-20.9 10.4 10.4 0 0 1 0 20.9" fill="#fffE0"/><path d="M55.7-346.5a10.4 10.4 0 1 1 0-20.8 10.4 10.4 0 0 1 0 20.8" fill="#c2e1ffE0"/><path d="M-0.3-322a10.5 10.5 0 1 1 0-21 10.5 10.5 0 0 1 0 21" fill="#005bbbE1"/><path d="M64.3-341.5a10.6 10.6 0 1 1 0-21.1 10.6 10.6 0 0 1 0 21.1" fill="#c2e1ffE3"/><path d="M-92.3-146.5a10.6 10.6 0 1 1 0-21.2 10.6 10.6 0 0 1 0 21.2" fill="#fffE3"/><path d="M78.6-337.8a10.7 10.7 0 1 1 0-21.3 10.7 10.7 0 0 1 0 21.3" fill="#005bbbE5"/><path d="M50 26.9a10.7 10.7 0 1 1 0-21.4 10.7 10.7 0 0 1 0 21.4" fill="#fffE6"/><path d="M-73.3-89a10.7 10.7 0 1 1 0-21.4 10.7 10.7 0 0 1 0 21.4" fill="#005bbbE6"/><path d="M243.9-37.3a10.7 10.7 0 1 1 0-21.4 10.7 10.7 0 0 1 0 21.4" fill="#c2e1ffE6"/><path d="M-83.2-144.3a10.7 10.7 0 1 1 0-21.4 10.7 10.7 0 0 1 0 21.4" fill="#c2e1ffE6"/><path d="M170.3-319.7a10.7 10.7 0 1 1 0-21.5 10.7 10.7 0 0 1 0 21.5" fill="#005bbbE7"/><path d="M119.7-332.7a10.7 10.7 0 1 1 0-21.5 10.7 10.7 0 0 1 0 21.5" fill="#fffE7"/><path d="M-76.6-191a10.8 10.8 0 1 1 0-21.5 10.8 10.8 0 0 1 0 21.5" fill="#fff500E7"/><path d="M272.7-98.6a10.8 10.8 0 1 1 0-21.6 10.8 10.8 0 0 1 0 21.6" fill="#005bbbE7"/><path d="M280.3-151.7a10.8 10.8 0 1 1 0-21.6 10.8 10.8 0 0 1 0 21.6" fill="#c2e1ffE8"/><path d="M193.7 1.7a10.8 10.8 0 1 1 0-21.5 10.8 10.8 0 0 1 0 21.5" fill="#fff500E8"/><path d="M-45.9-256a10.8 10.8 0 1 1 0-21.6 10.8 10.8 0 0 1 0 21.6" fill="#fffE8"/><path d="M-68.6-93.2a10.8 10.8 0 1 1 0-21.6 10.8 10.8 0 0 1 0 21.6" fill="#005bbbE8"/><path d="M-73.5-112.2a10.8 10.8 0 1 1 0-21.6 10.8 10.8 0 0 1 0 21.6" fill="#fffE8"/><path d="M149.8 19.2a10.8 10.8 0 1 1 0-21.6 10.8 10.8 0 0 1 0 21.6" fill="#fff500E8"/><path d="M135.3-324.9a10.8 10.8 0 1 1 0-21.6 10.8 10.8 0 0 1 0 21.6" fill="#005bbbE9"/><path d="M219.6-32.8a10.9 10.9 0 1 1 0-21.8 10.9 10.9 0 0 1 0 21.8" fill="#005bbbEB"/><path d="M97.3 16.2a10.9 10.9 0 1 1 0-21.8 10.9 10.9 0 0 1 0 21.8" fill="#c2e1ffEB"/><path d="M40 4a11 11 0 1 1 0-21.9 11 11 0 0 1 0 21.9" fill="#c2e1ffEC"/><path d="M-48.2-79.9a11 11 0 1 1 0-21.9 11 11 0 0 1 0 21.9" fill="#005bbbEC"/><path d="M27.8-298.2a11 11 0 1 1 0-22 11 11 0 0 1 0 22" fill="#fffEC"/><path d="M126.7-312.8a11 11 0 1 1 0-22 11 11 0 0 1 0 22" fill="#005bbbEC"/><path d="M146.7-305.1a11 11 0 1 1 0-22 11 11 0 0 1 0 22" fill="#fff500ED"/><path d="M149.4-303.6a11 11 0 1 1 0-22.1 11 11 0 0 1 0 22.1" fill="#c2e1ffED"/><path d="M-15-40.4a11 11 0 1 1 0-22.1 11 11 0 0 1 0 22.1" fill="#fff500ED"/><path d="M-59-157.7a11 11 0 1 1 0-22.1 11 11 0 0 1 0 22.1" fill="#fff500EE"/><path d="M118.2 5.1a11.1 11.1 0 1 1 0-22.2 11.1 11.1 0 0 1 0 22.2" fill="#c2e1ffEE"/><path d="M-14.1-243.1a11.2 11.2 0 1 1 0-22.4 11.2 11.2 0 0 1 0 22.4" fill="#fffF1"/><path d="M180.4-33.9a11.2 11.2 0 1 1 0-22.4 11.2 11.2 0 0 1 0 22.4" fill="#005bbbF1"/><path d="M179.7-42a11.3 11.3 0 1 1 0-22.5 11.3 11.3 0 0 1 0 22.5" fill="#c2e1ffF3"/><path d="M186.3-253.9a11.3 11.3 0 1 1 0-22.6 11.3 11.3 0 0 1 0 22.6" fill="#fff500F3"/><path d="M19.8-45.2a11.3 11.3 0 1 1 0-22.6 11.3 11.3 0 0 1 0 22.6" fill="#fff500F3"/><path d="M-11.5-208a11.4 11.4 0 1 1 0-22.8 11.4 11.4 0 0 1 0 22.8" fill="#fff500F5"/><path d="M141-33.1a11.4 11.4 0 1 1 0-22.7 11.4 11.4 0 0 1 0 22.7" fill="#005bbbF5"/><path d="M-19.1-186.8a11.4 11.4 0 1 1 0-22.7 11.4 11.4 0 0 1 0 22.7" fill="#fff500F5"/><path d="M41-47.3a11.4 11.4 0 1 1 0-22.8 11.4 11.4 0 0 1 0 22.8" fill="#c2e1ffF6"/><path d="M139.9-253.5a11.5 11.5 0 1 1 0-23 11.5 11.5 0 0 1 0 23" fill="#005bbbF7"/><path d="M202.1-175.5a11.5 11.5 0 1 1 0-23 11.5 11.5 0 0 1 0 23" fill="#005bbbF8"/><path d="M190.2-201.3a11.5 11.5 0 1 1 0-23 11.5 11.5 0 0 1 0 23" fill="#c2e1ffF8"/><path d="M200.2-151.1a11.5 11.5 0 1 1 0-23.1 11.5 11.5 0 0 1 0 23.1" fill="#c2e1ffF8"/><path d="M86-240.3a11.6 11.6 0 1 1 0-23.2 11.6 11.6 0 0 1 0 23.2" fill="#fffFA"/><path d="M14-130.8a11.6 11.6 0 1 1 0-23.2 11.6 11.6 0 0 1 0 23.2" fill="#c2e1ffFA"/><path d="M176.8-110.3a11.6 11.6 0 1 1 0-23.3 11.6 11.6 0 0 1 0 23.3" fill="#c2e1ffFA"/><path d="M48.8-214.7a11.6 11.6 0 1 1 0-23.3 11.6 11.6 0 0 1 0 23.3" fill="#c2e1ffFA"/><path d="M152-124a11.7 11.7 0 1 1 0-23.4 11.7 11.7 0 0 1 0 23.4" fill="#fffFC"/><path d="M83.4-95.2a11.7 11.7 0 1 1 0-23.4 11.7 11.7 0 0 1 0 23.4" fill="#fff500FD"/><path d="M95-111.5a11.8 11.8 0 1 1 0-23.5 11.8 11.8 0 0 1 0 23.5" fill="#fff500FE"/><path d="M111.5-188a11.8 11.8 0 1 1 0-23.5 11.8 11.8 0 0 1 0 23.5" fill="#fff500FE"/><path d="M70.8-139a11.8 11.8 0 1 1 0-23.5 11.8 11.8 0 0 1 0 23.5" fill="#fffFE"/><path d="M95.5-179.5a11.8 11.8 0 1 1 0-23.6 11.8 11.8 0 0 1 0 23.6" fill="#c2e1ffFE"/><path d="M75.3-145.4a11.8 11.8 0 1 1 0-23.6 11.8 11.8 0 0 1 0 23.6" fill="#c2e1ffFE"/><path d="M101.4-160.5a11.8 11.8 0 1 1 0-23.7 11.8 11.8 0 0 1 0 23.7" fill="#005bbbFE"/></g></svg>