<svg width="1200" height="675" viewBox="-500 -500 1200 675" xmlns="http://www.w3.org/2000/svg"><path d="M-500-500h1200v675h-1200z" fill="#000"/><style>.sparkles path{stroke-linecap:round; stroke-width:1}</style><g class="sparkles"><path d="M100-162.5l14.8 8.7" stroke="#fcbf4932"/><path d="M100-162.5l-13.1-11.7" stroke="#eae2b732"/><path d="M100-162.5l-45.5-53.9" stroke="#fcbf4934"/><path d="M100-162.5l-79.2 22.6" stroke="#d6282835"/><path d="M100-162.5l-65 63.4" stroke="#f77f0035"/><path d="M100-162.5l83.6-39.6" stroke="#00304935"/><path d="M100-162.5l27.6-88.6" stroke="#00304936"/><path d="M100-162.5l-76.1 54.5" stroke="#d6282836"/><path d="M100-162.5l-84.5 50.9" stroke="#eae2b736"/><path d="M100-162.5l10.8-104.8" stroke="#00304937"/><path d="M100-162.5l45.4-96.5" stroke="#fcbf4937"/><path d="M100-162.5l-16.7-113" stroke="#fcbf4938"/><path d="M100-162.5l8.1 117.5" stroke="#00304938"/><path d="M100-162.5l17.6 119.8" stroke="#fcbf4939"/><path d="M100-162.5l-66.6-102.8" stroke="#d6282839"/><path d="M100-162.5l55.2 126.4" stroke="#fcbf493B"/><path d="M100-162.5l-95.2 103.6" stroke="#0030493B"/><path d="M100-162.5l118.9 75.4" stroke="#0030493B"/><path d="M100-162.5l133.8-64" stroke="#eae2b73D"/><path d="M100-162.5l19.2-157.4" stroke="#d628283E"/><path d="M100-162.5l153.5 48.3" stroke="#d628283F"/><path d="M100-162.5l93.9-131.8" stroke="#d628283F"/><path d="M100-162.5l3.8-166.9" stroke="#00304940"/><path d="M100-162.5l72.2-150.6" stroke="#d6282840"/><path d="M100-162.5l54.6-158.1" stroke="#f77f0040"/><path d="M100-162.5l-160-62.3" stroke="#f77f0041"/><path d="M100-162.5l161.2-59.7" stroke="#eae2b741"/><path d="M100-162.5l-70.8 159.2" stroke="#d6282842"/><path d="M100-162.5l-146.2-103.9" stroke="#d6282843"/><path d="M100-162.5l177.2 29.3" stroke="#d6282843"/><path d="M100-162.5l81.9 162.7" stroke="#eae2b744"/><path d="M100-162.5l-128.7 130.4" stroke="#fcbf4944"/><path d="M100-162.5l177.2-47.8" stroke="#fcbf4944"/><path d="M100-162.5l82.8 166.2" stroke="#eae2b745"/><path d="M100-162.5l-177.9-61.7" stroke="#fcbf4945"/><path d="M100-162.5l181.1 60.7" stroke="#00304946"/><path d="M100-162.5l-174.4-78.5" stroke="#d6282846"/><path d="M100-162.5l86-173.5" stroke="#d6282847"/><path d="M100-162.5l-195.1 7.2" stroke="#fcbf4947"/><path d="M100-162.5l193.4-28.1" stroke="#00304947"/><path d="M100-162.5l-136.2 140.8" stroke="#00304948"/><path d="M100-162.5l199.4 34.1" stroke="#fcbf494A"/><path d="M100-162.5l-89.3 183.7" stroke="#d628284A"/><path d="M100-162.5l-207.7 11.2" stroke="#eae2b74C"/><path d="M100-162.5l30.7-210.4" stroke="#eae2b74E"/><path d="M100-162.5l101.6 187.5" stroke="#d628284E"/><path d="M100-162.5l114.1-180.3" stroke="#fcbf494E"/><path d="M100-162.5l-110.6 184.8" stroke="#eae2b74F"/><path d="M100-162.5l194.2-93.5" stroke="#eae2b74F"/><path d="M100-162.5l-51.6 210.5" stroke="#eae2b750"/><path d="M100-162.5l-22.4-215.6" stroke="#d6282850"/><path d="M100-162.5l210.9 51.3" stroke="#d6282850"/><path d="M100-162.5l2.5 219.2" stroke="#00304951"/><path d="M100-162.5l186.8-120.2" stroke="#d6282852"/><path d="M100-162.5l-206.3-86.4" stroke="#eae2b753"/><path d="M100-162.5l-108.9-195.6" stroke="#d6282854"/><path d="M100-162.5l46.3-219.7" stroke="#00304954"/><path d="M100-162.5l223.7-29.4" stroke="#fcbf4955"/><path d="M100-162.5l208.2-87.2" stroke="#eae2b755"/><path d="M100-162.5l220.3 55.3" stroke="#d6282856"/><path d="M100-162.5l65.7-218.1" stroke="#f77f0056"/><path d="M100-162.5l-29.6 226.2" stroke="#f77f0057"/><path d="M100-162.5l-225.4 35.7" stroke="#d6282857"/><path d="M100-162.5l100.6-205" stroke="#fcbf4957"/><path d="M100-162.5l114.8-198.5" stroke="#f77f0057"/><path d="M100-162.5l227-41.1" stroke="#f77f0059"/><path d="M100-162.5l177.6 147.9" stroke="#00304959"/><path d="M100-162.5l-16.4-230.7" stroke="#fcbf4959"/><path d="M100-162.5l13.8 231.1" stroke="#0030495A"/><path d="M100-162.5l-154.1-173" stroke="#fcbf495A"/><path d="M100-162.5l-0.9-231.8" stroke="#0030495A"/><path d="M100-162.5l-217.8-79.2" stroke="#f77f005A"/><path d="M100-162.5l87.2 214.8" stroke="#d628285A"/><path d="M100-162.5l-61.5-225.4" stroke="#0030495C"/><path d="M100-162.5l-232.6-22.2" stroke="#d628285C"/><path d="M100-162.5l-214 94.3" stroke="#fcbf495C"/><path d="M100-162.5l163.9 166.8" stroke="#fcbf495C"/><path d="M100-162.5l39-230.7" stroke="#eae2b75D"/><path d="M100-162.5l214-95.1" stroke="#f77f005D"/><path d="M100-162.5l59-226.8" stroke="#f77f005D"/><path d="M100-162.5l-201.2 120.9" stroke="#fcbf495E"/><path d="M100-162.5l234.9 0" stroke="#0030495E"/><path d="M100-162.5l32.8 232.7" stroke="#fcbf495E"/><path d="M100-162.5l234.9 10" stroke="#eae2b75F"/><path d="M100-162.5l-212.2 102.5" stroke="#fcbf4960"/><path d="M100-162.5l-161.5 172.3" stroke="#f77f0062"/><path d="M100-162.5l-213.8-100.3" stroke="#fcbf4962"/><path d="M100-162.5l-234.1 31.2" stroke="#fcbf4962"/><path d="M100-162.5l-213.1 102" stroke="#00304963"/><path d="M100-162.5l234.1 31.1" stroke="#00304965"/><path d="M100-162.5l-81.9 221.5" stroke="#f77f0065"/><path d="M100-162.5l-31.4 234" stroke="#fcbf4965"/><path d="M100-162.5l18.9 235.2" stroke="#fcbf4966"/><path d="M100-162.5l-68.1-225.9" stroke="#fcbf4966"/><path d="M100-162.5l-201.8-122.1" stroke="#d6282866"/><path d="M100-162.5l-209.3 108.3" stroke="#d6282867"/><path d="M100-162.5l-100.1 213.3" stroke="#eae2b767"/><path d="M100-162.5l49.2-230.5" stroke="#fcbf4967"/><path d="M100-162.5l-184.5 145.9" stroke="#d6282868"/><path d="M100-162.5l76.5-222.3" stroke="#fcbf4968"/><path d="M100-162.5l42.5 230.6" stroke="#fcbf496A"/><path d="M100-162.5l108.3-207.5" stroke="#fcbf496A"/><path d="M100-162.5l225.6 62.5" stroke="#d628286A"/><path d="M100-162.5l-230.2 40.5" stroke="#f77f006B"/><path d="M100-162.5l58.4 225.2" stroke="#eae2b76C"/><path d="M100-162.5l232.3-12.4" stroke="#d628286C"/><path d="M100-162.5l94.9 211.8" stroke="#d628286D"/><path d="M100-162.5l-62.2-223.4" stroke="#f77f006D"/><path d="M100-162.5l-204-109.9" stroke="#fcbf496D"/><path d="M100-162.5l102.8 207.5" stroke="#0030496D"/><path d="M100-162.5l-170 156.8" stroke="#0030496E"/><path d="M100-162.5l-40 227.3" stroke="#0030496E"/><path d="M100-162.5l-205.7 102.3" stroke="#0030496F"/><path d="M100-162.5l209.8-93" stroke="#0030496F"/><path d="M100-162.5l198.6-112.5" stroke="#eae2b770"/><path d="M100-162.5l-15.7 227.7" stroke="#eae2b770"/><path d="M100-162.5l-210.1 88.7" stroke="#f77f0071"/><path d="M100-162.5l214.4 75" stroke="#f77f0071"/><path d="M100-162.5l225.8 24.5" stroke="#d6282871"/><path d="M100-162.5l-56.6-219.6" stroke="#f77f0072"/><path d="M100-162.5l-11.2 226.4" stroke="#f77f0072"/><path d="M100-162.5l66.3-216.3" stroke="#eae2b772"/><path d="M100-162.5l-191.6 117.4" stroke="#d6282873"/><path d="M100-162.5l24.9-222.3" stroke="#f77f0074"/><path d="M100-162.5l146.1-168.6" stroke="#00304974"/><path d="M100-162.5l-0.1 222" stroke="#fcbf4975"/><path d="M100-162.5l-86.1-203" stroke="#d6282875"/><path d="M100-162.5l-167.3-142.1" stroke="#00304976"/><path d="M100-162.5l-43.7-214.3" stroke="#eae2b776"/><path d="M100-162.5l-13.5-218.1" stroke="#eae2b776"/><path d="M100-162.5l126.8 172.3" stroke="#fcbf4979"/><path d="M100-162.5l57.9-203.6" stroke="#d628287A"/><path d="M100-162.5l159.9-135.3" stroke="#fcbf497B"/><path d="M100-162.5l-114-175" stroke="#eae2b77B"/><path d="M100-162.5l-145.1-148.9" stroke="#d628287B"/><path d="M100-162.5l139.4 153.5" stroke="#f77f007B"/><path d="M100-162.5l-180.4-99.1" stroke="#eae2b77C"/><path d="M100-162.5l205.5-10" stroke="#fcbf497C"/><path d="M100-162.5l204.8-16.3" stroke="#fcbf497C"/><path d="M100-162.5l72.8-190.1" stroke="#d628287D"/><path d="M100-162.5l-39.4 198" stroke="#fcbf497D"/><path d="M100-162.5l47.7 195.7" stroke="#fcbf497E"/><path d="M100-162.5l-198-11.1" stroke="#d628287F"/><path d="M100-162.5l96.1-171.2" stroke="#eae2b77F"/><path d="M100-162.5l-81.1 177.2" stroke="#eae2b780"/><path d="M100-162.5l-110.6 159" stroke="#eae2b780"/><path d="M100-162.5l193.4 0.5" stroke="#f77f0080"/><path d="M100-162.5l-156.1-114.1" stroke="#f77f0080"/><path d="M100-162.5l41.1-188.8" stroke="#00304980"/><path d="M100-162.5l60.5-181.1" stroke="#fcbf4981"/><path d="M100-162.5l-157.3 108.1" stroke="#fcbf4981"/><path d="M100-162.5l-129.4 137" stroke="#00304982"/><path d="M100-162.5l-154-105.4" stroke="#d6282882"/><path d="M100-162.5l-57.6 172.4" stroke="#eae2b783"/><path d="M100-162.5l143.1-108.5" stroke="#fcbf4984"/><path d="M100-162.5l110.5 133.6" stroke="#d6282885"/><path d="M100-162.5l76.7-143.5" stroke="#f77f0088"/><path d="M100-162.5l-85.6-136.4" stroke="#fcbf4988"/><path d="M100-162.5l-66.3-137.8" stroke="#f77f008A"/><path d="M100-162.5l-149.2-19.3" stroke="#eae2b78A"/><path d="M100-162.5l149.6 13.7" stroke="#eae2b78A"/><path d="M100-162.5l-146.8 7" stroke="#0030498B"/><path d="M100-162.5l-146.2 1.1" stroke="#0030498B"/><path d="M100-162.5l37.7-135.9" stroke="#0030498C"/><path d="M100-162.5l38.3 134.1" stroke="#fcbf498C"/><path d="M100-162.5l135.6-3.7" stroke="#f77f008C"/><path d="M100-162.5l125.8-43.2" stroke="#fcbf498D"/><path d="M100-162.5l-127.3 13.5" stroke="#eae2b78E"/><path d="M100-162.5l-116.8 28" stroke="#fcbf498F"/><path d="M100-162.5l36.6 108.7" stroke="#0030498F"/><path d="M100-162.5l70.8-88.8" stroke="#f77f008F"/><path d="M100-162.5l41.8-95.9" stroke="#fcbf4990"/><path d="M100-162.5l-98.3-19.1" stroke="#eae2b791"/><path d="M100-162.5l-92.1-33.9" stroke="#fcbf4991"/><path d="M100-162.5l55.2-80.5" stroke="#d6282891"/><path d="M100-162.5l38.5-86.8" stroke="#eae2b791"/><path d="M100-162.5l-56.4 32.8" stroke="#f77f0094"/><path d="M100-162.5l48.7 36.5" stroke="#f77f0094"/><path d="M100-162.5l-19.1 57.7" stroke="#eae2b794"/><path d="M100-162.5l50.3-13.2" stroke="#eae2b794"/><path d="M100-162.5l-19.2 8.6" stroke="#eae2b795"/></g><g class="sparcs"><path d="M114.8-147.8a5.9 5.9 0 1 1 0-11.9 5.9 5.9 0 0 1 0 11.9" fill="#0030497D"/><path d="M86.9-168.3a5.9 5.9 0 1 1 0-11.8 5.9 5.9 0 0 1 0 11.8" fill="#f77f007D"/><path d="M54.5-210.4a6 6 0 1 1 0-12.1 6 6 0 0 1 0 12.1" fill="#fcbf497F"/><path d="M20.8-133.8a6.1 6.1 0 1 1 0-12.2 6.1 6.1 0 0 1 0 12.2" fill="#f77f0081"/><path d="M35-93a6.1 6.1 0 1 1 0-12.3 6.1 6.1 0 0 1 0 12.3" fill="#fcbf4981"/><path d="M183.6-196a6.1 6.1 0 1 1 0-12.2 6.1 6.1 0 0 1 0 12.2" fill="#00304982"/><path d="M127.6-245a6.1 6.1 0 1 1 0-12.2 6.1 6.1 0 0 1 0 12.2" fill="#00304982"/><path d="M23.9-101.8a6.1 6.1 0 1 1 0-12.3 6.1 6.1 0 0 1 0 12.3" fill="#00304982"/><path d="M15.5-105.4a6.2 6.2 0 1 1 0-12.3 6.2 6.2 0 0 1 0 12.3" fill="#00304982"/><path d="M110.8-261.1a6.2 6.2 0 1 1 0-12.4 6.2 6.2 0 0 1 0 12.4" fill="#00304983"/><path d="M145.4-252.8a6.2 6.2 0 1 1 0-12.4 6.2 6.2 0 0 1 0 12.4" fill="#f77f0084"/><path d="M83.3-269.2a6.3 6.3 0 1 1 0-12.6 6.3 6.3 0 0 1 0 12.6" fill="#00304985"/><path d="M108.1-38.7a6.3 6.3 0 1 1 0-12.6 6.3 6.3 0 0 1 0 12.6" fill="#d6282885"/><path d="M117.6-36.4a6.3 6.3 0 1 1 0-12.6 6.3 6.3 0 0 1 0 12.6" fill="#d6282886"/><path d="M33.4-258.9a6.3 6.3 0 1 1 0-12.7 6.3 6.3 0 0 1 0 12.7" fill="#fcbf4986"/><path d="M155.2-29.6a6.5 6.5 0 1 1 0-12.9 6.5 6.5 0 0 1 0 12.9" fill="#f77f0089"/><path d="M4.8-52.4a6.5 6.5 0 1 1 0-13 6.5 6.5 0 0 1 0 13" fill="#00304989"/><path d="M218.9-80.6a6.5 6.5 0 1 1 0-12.9 6.5 6.5 0 0 1 0 12.9" fill="#eae2b789"/><path d="M233.8-220a6.6 6.6 0 1 1 0-13.1 6.6 6.6 0 0 1 0 13.1" fill="#0030498B"/><path d="M119.2-313.2a6.7 6.7 0 1 1 0-13.4 6.7 6.7 0 0 1 0 13.4" fill="#f77f008D"/><path d="M253.5-107.5a6.7 6.7 0 1 1 0-13.4 6.7 6.7 0 0 1 0 13.4" fill="#f77f008E"/><path d="M193.9-287.6a6.7 6.7 0 1 1 0-13.4 6.7 6.7 0 0 1 0 13.4" fill="#fcbf498E"/><path d="M103.8-322.6a6.8 6.8 0 1 1 0-13.6 6.8 6.8 0 0 1 0 13.6" fill="#fcbf4990"/><path d="M172.2-306.4a6.8 6.8 0 1 1 0-13.5 6.8 6.8 0 0 1 0 13.5" fill="#eae2b790"/><path d="M154.6-313.8a6.8 6.8 0 1 1 0-13.6 6.8 6.8 0 0 1 0 13.6" fill="#fcbf4990"/><path d="M-60-218a6.8 6.8 0 1 1 0-13.6 6.8 6.8 0 0 1 0 13.6" fill="#eae2b791"/><path d="M261.2-215.4a6.8 6.8 0 1 1 0-13.6 6.8 6.8 0 0 1 0 13.6" fill="#eae2b791"/><path d="M29.2 3.6a6.9 6.9 0 1 1 0-13.8 6.9 6.9 0 0 1 0 13.8" fill="#d6282892"/><path d="M-46.2-259.5a6.9 6.9 0 1 1 0-13.8 6.9 6.9 0 0 1 0 13.8" fill="#00304993"/><path d="M277.2-126.3a6.9 6.9 0 1 1 0-13.9 6.9 6.9 0 0 1 0 13.9" fill="#eae2b793"/><path d="M181.9 7.1a7 7 0 1 1 0-13.9 7 7 0 0 1 0 13.9" fill="#fcbf4994"/><path d="M-28.7-25.1a7 7 0 1 1 0-14 7 7 0 0 1 0 14" fill="#eae2b794"/><path d="M277.2-203.3a7 7 0 1 1 0-14 7 7 0 0 1 0 14" fill="#d6282895"/><path d="M182.8 10.8a7 7 0 1 1 0-14.1 7 7 0 0 1 0 14.1" fill="#d6282895"/><path d="M-77.9-217.1a7.1 7.1 0 1 1 0-14.2 7.1 7.1 0 0 1 0 14.2" fill="#d6282896"/><path d="M281.1-94.6a7.1 7.1 0 1 1 0-14.3 7.1 7.1 0 0 1 0 14.3" fill="#00304997"/><path d="M-74.4-233.9a7.1 7.1 0 1 1 0-14.3 7.1 7.1 0 0 1 0 14.3" fill="#d6282897"/><path d="M186-328.8a7.2 7.2 0 1 1 0-14.3 7.2 7.2 0 0 1 0 14.3" fill="#f77f0098"/><path d="M-95.1-148.1a7.2 7.2 0 1 1 0-14.4 7.2 7.2 0 0 1 0 14.4" fill="#00304999"/><path d="M293.4-183.4a7.2 7.2 0 1 1 0-14.4 7.2 7.2 0 0 1 0 14.4" fill="#f77f0099"/><path d="M-36.2-14.5a7.2 7.2 0 1 1 0-14.4 7.2 7.2 0 0 1 0 14.4" fill="#eae2b799"/><path d="M299.4-121.1a7.3 7.3 0 1 1 0-14.7 7.3 7.3 0 0 1 0 14.7" fill="#f77f009C"/><path d="M10.7 28.6a7.4 7.4 0 1 1 0-14.8 7.4 7.4 0 0 1 0 14.8" fill="#fcbf499D"/><path d="M-107.7-143.8a7.5 7.5 0 1 1 0-14.9 7.5 7.5 0 0 1 0 14.9" fill="#eae2b79F"/><path d="M130.7-365.3a7.6 7.6 0 1 1 0-15.2 7.6 7.6 0 0 1 0 15.2" fill="#fcbf49A1"/><path d="M201.6 32.6a7.6 7.6 0 1 1 0-15.2 7.6 7.6 0 0 1 0 15.2" fill="#003049A2"/><path d="M214.1-335.2a7.6 7.6 0 1 1 0-15.2 7.6 7.6 0 0 1 0 15.2" fill="#f77f00A2"/><path d="M-10.6 29.9a7.6 7.6 0 1 1 0-15.2 7.6 7.6 0 0 1 0 15.2" fill="#d62828A3"/><path d="M294.2-248.3a7.6 7.6 0 1 1 0-15.3 7.6 7.6 0 0 1 0 15.3" fill="#d62828A3"/><path d="M48.4 55.7a7.7 7.7 0 1 1 0-15.4 7.7 7.7 0 0 1 0 15.4" fill="#eae2b7A4"/><path d="M77.6-370.4a7.7 7.7 0 1 1 0-15.4 7.7 7.7 0 0 1 0 15.4" fill="#d62828A4"/><path d="M310.9-103.5a7.7 7.7 0 1 1 0-15.4 7.7 7.7 0 0 1 0 15.4" fill="#fcbf49A4"/><path d="M102.5 64.4a7.8 7.8 0 1 1 0-15.5 7.8 7.8 0 0 1 0 15.5" fill="#d62828A5"/><path d="M286.8-274.8a7.9 7.9 0 1 1 0-15.7 7.9 7.9 0 0 1 0 15.7" fill="#eae2b7A7"/><path d="M-106.3-240.9a7.9 7.9 0 1 1 0-15.9 7.9 7.9 0 0 1 0 15.9" fill="#d62828A9"/><path d="M-8.9-350.2a7.9 7.9 0 1 1 0-15.9 7.9 7.9 0 0 1 0 15.9" fill="#f77f00A9"/><path d="M146.3-374.2a7.9 7.9 0 1 1 0-15.9 7.9 7.9 0 0 1 0 15.9" fill="#d62828A9"/><path d="M323.7-183.9a8 8 0 1 1 0-16 8 8 0 0 1 0 16" fill="#d62828AA"/><path d="M308.2-241.7a8 8 0 1 1 0-16 8 8 0 0 1 0 16" fill="#f77f00AA"/><path d="M320.3-99.2a8 8 0 1 1 0-16.1 8 8 0 0 1 0 16.1" fill="#fcbf49AC"/><path d="M165.7-372.5a8.1 8.1 0 1 1 0-16.2 8.1 8.1 0 0 1 0 16.2" fill="#f77f00AC"/><path d="M70.4 71.8a8.1 8.1 0 1 1 0-16.2 8.1 8.1 0 0 1 0 16.2" fill="#003049AD"/><path d="M-125.4-118.7a8.1 8.1 0 1 1 0-16.2 8.1 8.1 0 0 1 0 16.2" fill="#d62828AD"/><path d="M200.6-359.4a8.1 8.1 0 1 1 0-16.2 8.1 8.1 0 0 1 0 16.2" fill="#f77f00AD"/><path d="M214.8-352.8a8.1 8.1 0 1 1 0-16.3 8.1 8.1 0 0 1 0 16.3" fill="#f77f00AE"/><path d="M327-195.4a8.2 8.2 0 1 1 0-16.5 8.2 8.2 0 0 1 0 16.5" fill="#f77f00B0"/><path d="M277.6-6.4a8.2 8.2 0 1 1 0-16.5 8.2 8.2 0 0 1 0 16.5" fill="#eae2b7B0"/><path d="M83.6-384.9a8.3 8.3 0 1 1 0-16.5 8.3 8.3 0 0 1 0 16.5" fill="#d62828B0"/><path d="M113.8 76.9a8.3 8.3 0 1 1 0-16.5 8.3 8.3 0 0 1 0 16.5" fill="#003049B1"/><path d="M-54.1-327.2a8.3 8.3 0 1 1 0-16.5 8.3 8.3 0 0 1 0 16.5" fill="#003049B1"/><path d="M99.1-386a8.3 8.3 0 1 1 0-16.6 8.3 8.3 0 0 1 0 16.6" fill="#f77f00B1"/><path d="M-117.8-233.5a8.3 8.3 0 1 1 0-16.5 8.3 8.3 0 0 1 0 16.5" fill="#d62828B1"/><path d="M187.2 60.6a8.3 8.3 0 1 1 0-16.6 8.3 8.3 0 0 1 0 16.6" fill="#eae2b7B1"/><path d="M38.5-379.5a8.4 8.4 0 1 1 0-16.8 8.4 8.4 0 0 1 0 16.8" fill="#003049B4"/><path d="M-132.6-176.3a8.4 8.4 0 1 1 0-16.8 8.4 8.4 0 0 1 0 16.8" fill="#eae2b7B4"/><path d="M-114-59.7a8.4 8.4 0 1 1 0-16.9 8.4 8.4 0 0 1 0 16.9" fill="#d62828B4"/><path d="M263.9 12.8a8.4 8.4 0 1 1 0-16.9 8.4 8.4 0 0 1 0 16.9" fill="#fcbf49B4"/><path d="M139-384.7a8.5 8.5 0 1 1 0-17 8.5 8.5 0 0 1 0 17" fill="#f77f00B5"/><path d="M314-249.1a8.5 8.5 0 1 1 0-17 8.5 8.5 0 0 1 0 17" fill="#eae2b7B5"/><path d="M159-380.8a8.5 8.5 0 1 1 0-17 8.5 8.5 0 0 1 0 17" fill="#003049B5"/><path d="M-101.2-33a8.5 8.5 0 1 1 0-17.1 8.5 8.5 0 0 1 0 17.1" fill="#f77f00B6"/><path d="M334.9-154a8.5 8.5 0 1 1 0-17 8.5 8.5 0 0 1 0 17" fill="#d62828B7"/><path d="M132.8 78.7a8.6 8.6 0 1 1 0-17.1 8.6 8.6 0 0 1 0 17.1" fill="#f77f00B7"/><path d="M334.9-144a8.6 8.6 0 1 1 0-17.1 8.6 8.6 0 0 1 0 17.1" fill="#fcbf49B7"/><path d="M-112.2-51.4a8.6 8.6 0 1 1 0-17.3 8.6 8.6 0 0 1 0 17.3" fill="#fcbf49B9"/><path d="M-61.5 18.5a8.8 8.8 0 1 1 0-17.5 8.8 8.8 0 0 1 0 17.5" fill="#d62828BB"/><path d="M-113.8-254a8.8 8.8 0 1 1 0-17.5 8.8 8.8 0 0 1 0 17.5" fill="#eae2b7BB"/><path d="M-134.1-122.5a8.8 8.8 0 1 1 0-17.5 8.8 8.8 0 0 1 0 17.5" fill="#eae2b7BC"/><path d="M-113.1-51.7a8.9 8.9 0 1 1 0-17.7 8.9 8.9 0 0 1 0 17.7" fill="#f77f00BD"/><path d="M334.1-122.5a8.9 8.9 0 1 1 0-17.8 8.9 8.9 0 0 1 0 17.8" fill="#d62828BF"/><path d="M18.1 68a8.9 8.9 0 1 1 0-17.9 8.9 8.9 0 0 1 0 17.9" fill="#fcbf49BF"/><path d="M68.6 80.5a9 9 0 1 1 0-18 9 9 0 0 1 0 18" fill="#eae2b7C0"/><path d="M118.9 81.7a9 9 0 1 1 0-18 9 9 0 0 1 0 18" fill="#003049C1"/><path d="M31.9-379.4a9 9 0 1 1 0-18 9 9 0 0 1 0 18" fill="#d62828C1"/><path d="M-101.8-275.5a9 9 0 1 1 0-18.1 9 9 0 0 1 0 18.1" fill="#fcbf49C1"/><path d="M-109.3-45.1a9.1 9.1 0 1 1 0-18.2 9.1 9.1 0 0 1 0 18.2" fill="#d62828C2"/><path d="M-0.1 59.9a9.1 9.1 0 1 1 0-18.1 9.1 9.1 0 0 1 0 18.1" fill="#003049C2"/><path d="M149.2-383.9a9.1 9.1 0 1 1 0-18.1 9.1 9.1 0 0 1 0 18.1" fill="#003049C2"/><path d="M-84.5-7.5a9.1 9.1 0 1 1 0-18.3 9.1 9.1 0 0 1 0 18.3" fill="#eae2b7C4"/><path d="M176.5-375.7a9.2 9.2 0 1 1 0-18.3 9.2 9.2 0 0 1 0 18.3" fill="#fcbf49C4"/><path d="M142.5 77.3a9.2 9.2 0 1 1 0-18.4 9.2 9.2 0 0 1 0 18.4" fill="#d62828C5"/><path d="M208.3-360.8a9.3 9.3 0 1 1 0-18.5 9.3 9.3 0 0 1 0 18.5" fill="#d62828C6"/><path d="M325.6-90.7a9.3 9.3 0 1 1 0-18.5 9.3 9.3 0 0 1 0 18.5" fill="#eae2b7C6"/><path d="M-130.2-112.7a9.3 9.3 0 1 1 0-18.5 9.3 9.3 0 0 1 0 18.5" fill="#fcbf49C7"/><path d="M158.4 72a9.4 9.4 0 1 1 0-18.7 9.4 9.4 0 0 1 0 18.7" fill="#f77f00C9"/><path d="M332.3-165.5a9.4 9.4 0 1 1 0-18.8 9.4 9.4 0 0 1 0 18.8" fill="#fcbf49C9"/><path d="M194.9 58.7a9.4 9.4 0 1 1 0-18.8 9.4 9.4 0 0 1 0 18.8" fill="#eae2b7CA"/><path d="M37.8-376.4a9.4 9.4 0 1 1 0-18.9 9.4 9.4 0 0 1 0 18.9" fill="#003049CA"/><path d="M-104-263a9.4 9.4 0 1 1 0-18.9 9.4 9.4 0 0 1 0 18.9" fill="#003049CA"/><path d="M202.8 54.4a9.4 9.4 0 1 1 0-18.9 9.4 9.4 0 0 1 0 18.9" fill="#d62828CA"/><path d="M-70 3.8a9.5 9.5 0 1 1 0-19 9.5 9.5 0 0 1 0 19" fill="#d62828CB"/><path d="M60 74.3a9.5 9.5 0 1 1 0-19 9.5 9.5 0 0 1 0 19" fill="#f77f00CB"/><path d="M-105.7-50.7a9.5 9.5 0 1 1 0-19.1 9.5 9.5 0 0 1 0 19.1" fill="#d62828CD"/><path d="M309.8-245.9a9.6 9.6 0 1 1 0-19.2 9.6 9.6 0 0 1 0 19.2" fill="#003049CD"/><path d="M298.6-265.3a9.6 9.6 0 1 1 0-19.3 9.6 9.6 0 0 1 0 19.3" fill="#eae2b7CE"/><path d="M84.3 74.8a9.6 9.6 0 1 1 0-19.3 9.6 9.6 0 0 1 0 19.3" fill="#fcbf49CE"/><path d="M-110.1-64.2a9.6 9.6 0 1 1 0-19.3 9.6 9.6 0 0 1 0 19.3" fill="#003049CE"/><path d="M314.4-77.9a9.7 9.7 0 1 1 0-19.3 9.7 9.7 0 0 1 0 19.3" fill="#fcbf49CF"/><path d="M325.8-128.4a9.7 9.7 0 1 1 0-19.3 9.7 9.7 0 0 1 0 19.3" fill="#eae2b7CF"/><path d="M43.4-372.4a9.7 9.7 0 1 1 0-19.4 9.7 9.7 0 0 1 0 19.4" fill="#d62828D0"/><path d="M88.8 73.6a9.7 9.7 0 1 1 0-19.4 9.7 9.7 0 0 1 0 19.4" fill="#eae2b7D0"/><path d="M166.3-369.1a9.7 9.7 0 1 1 0-19.4 9.7 9.7 0 0 1 0 19.4" fill="#f77f00D0"/><path d="M-91.6-35.3a9.8 9.8 0 1 1 0-19.6 9.8 9.8 0 0 1 0 19.6" fill="#d62828D2"/><path d="M124.9-375a9.8 9.8 0 1 1 0-19.6 9.8 9.8 0 0 1 0 19.6" fill="#f77f00D2"/><path d="M246.1-321.2a9.8 9.8 0 1 1 0-19.7 9.8 9.8 0 0 1 0 19.7" fill="#d62828D3"/><path d="M99.9 69.3a9.9 9.9 0 1 1 0-19.7 9.9 9.9 0 0 1 0 19.7" fill="#f77f00D4"/><path d="M13.9-355.6a9.9 9.9 0 1 1 0-19.8 9.9 9.9 0 0 1 0 19.8" fill="#fcbf49D5"/><path d="M-67.3-294.7a10 10 0 1 1 0-19.9 10 10 0 0 1 0 19.9" fill="#fcbf49D6"/><path d="M56.3-366.8a10 10 0 1 1 0-19.9 10 10 0 0 1 0 19.9" fill="#fcbf49D6"/><path d="M86.5-370.7a10 10 0 1 1 0-19.9 10 10 0 0 1 0 19.9" fill="#f77f00D6"/><path d="M226.8 19.9a10.1 10.1 0 1 1 0-20.2 10.1 10.1 0 0 1 0 20.2" fill="#d62828D9"/><path d="M157.9-355.9a10.2 10.2 0 1 1 0-20.4 10.2 10.2 0 0 1 0 20.4" fill="#eae2b7DA"/><path d="M259.9-287.6a10.2 10.2 0 1 1 0-20.4 10.2 10.2 0 0 1 0 20.4" fill="#d62828DC"/><path d="M-14-327.2a10.2 10.2 0 1 1 0-20.5 10.2 10.2 0 0 1 0 20.5" fill="#d62828DC"/><path d="M-45.1-301.1a10.3 10.3 0 1 1 0-20.6 10.3 10.3 0 0 1 0 20.6" fill="#d62828DC"/><path d="M239.4 1.2a10.3 10.3 0 1 1 0-20.5 10.3 10.3 0 0 1 0 20.5" fill="#003049DD"/><path d="M-80.4-251.3a10.3 10.3 0 1 1 0-20.6 10.3 10.3 0 0 1 0 20.6" fill="#003049DD"/><path d="M305.5-162.2a10.3 10.3 0 1 1 0-20.6 10.3 10.3 0 0 1 0 20.6" fill="#eae2b7DD"/><path d="M304.8-168.4a10.3 10.3 0 1 1 0-20.7 10.3 10.3 0 0 1 0 20.7" fill="#eae2b7DE"/><path d="M172.8-342.3a10.4 10.4 0 1 1 0-20.7 10.4 10.4 0 0 1 0 20.7" fill="#f77f00DE"/><path d="M60.6 45.9a10.4 10.4 0 1 1 0-20.8 10.4 10.4 0 0 1 0 20.8" fill="#f77f00DF"/><path d="M147.7 43.6a10.4 10.4 0 1 1 0-20.8 10.4 10.4 0 0 1 0 20.8" fill="#eae2b7DF"/><path d="M-98-163.2a10.5 10.5 0 1 1 0-20.9 10.5 10.5 0 0 1 0 20.9" fill="#eae2b7E1"/><path d="M196.1-323.2a10.5 10.5 0 1 1 0-21 10.5 10.5 0 0 1 0 21" fill="#eae2b7E2"/><path d="M18.9 25.2a10.5 10.5 0 1 1 0-21 10.5 10.5 0 0 1 0 21" fill="#eae2b7E2"/><path d="M-10.6 7.1a10.5 10.5 0 1 1 0-21.1 10.5 10.5 0 0 1 0 21.1" fill="#f77f00E3"/><path d="M293.4-151.5a10.6 10.6 0 1 1 0-21.1 10.6 10.6 0 0 1 0 21.1" fill="#eae2b7E3"/><path d="M-56.1-266a10.6 10.6 0 1 1 0-21.1 10.6 10.6 0 0 1 0 21.1" fill="#fcbf49E3"/><path d="M141.1-340.8a10.6 10.6 0 1 1 0-21.1 10.6 10.6 0 0 1 0 21.1" fill="#003049E3"/><path d="M160.5-333a10.6 10.6 0 1 1 0-21.2 10.6 10.6 0 0 1 0 21.2" fill="#eae2b7E4"/><path d="M-57.3-43.8a10.6 10.6 0 1 1 0-21.2 10.6 10.6 0 0 1 0 21.2" fill="#eae2b7E4"/><path d="M-29.4-14.8a10.6 10.6 0 1 1 0-21.3 10.6 10.6 0 0 1 0 21.3" fill="#d62828E5"/><path d="M-54-257.3a10.7 10.7 0 1 1 0-21.3 10.7 10.7 0 0 1 0 21.3" fill="#d62828E5"/><path d="M42.4 20.7a10.7 10.7 0 1 1 0-21.5 10.7 10.7 0 0 1 0 21.5" fill="#d62828E7"/><path d="M243.1-260.2a10.8 10.8 0 1 1 0-21.5 10.8 10.8 0 0 1 0 21.5" fill="#eae2b7E8"/><path d="M210.5-18a10.9 10.9 0 1 1 0-21.8 10.9 10.9 0 0 1 0 21.8" fill="#f77f00EA"/><path d="M176.7-295a11 11 0 1 1 0-22 11 11 0 0 1 0 22" fill="#eae2b7ED"/><path d="M14.4-287.9a11 11 0 1 1 0-22 11 11 0 0 1 0 22" fill="#003049ED"/><path d="M33.7-289.2a11.1 11.1 0 1 1 0-22.2 11.1 11.1 0 0 1 0 22.2" fill="#003049EF"/><path d="M-49.2-170.7a11.1 11.1 0 1 1 0-22.3 11.1 11.1 0 0 1 0 22.3" fill="#fcbf49F0"/><path d="M249.6-137.7a11.1 11.1 0 1 1 0-22.2 11.1 11.1 0 0 1 0 22.2" fill="#eae2b7F0"/><path d="M-46.8-144.3a11.2 11.2 0 1 1 0-22.4 11.2 11.2 0 0 1 0 22.4" fill="#003049F0"/><path d="M-46.2-150.2a11.2 11.2 0 1 1 0-22.4 11.2 11.2 0 0 1 0 22.4" fill="#fcbf49F1"/><path d="M137.7-287.2a11.2 11.2 0 1 1 0-22.5 11.2 11.2 0 0 1 0 22.5" fill="#003049F2"/><path d="M138.3-17.2a11.2 11.2 0 1 1 0-22.5 11.2 11.2 0 0 1 0 22.5" fill="#eae2b7F2"/><path d="M235.6-154.9a11.3 11.3 0 1 1 0-22.6 11.3 11.3 0 0 1 0 22.6" fill="#f77f00F3"/><path d="M225.8-194.4a11.3 11.3 0 1 1 0-22.6 11.3 11.3 0 0 1 0 22.6" fill="#eae2b7F3"/><path d="M-27.3-137.6a11.3 11.3 0 1 1 0-22.7 11.3 11.3 0 0 1 0 22.7" fill="#eae2b7F4"/><path d="M-16.8-123.1a11.4 11.4 0 1 1 0-22.8 11.4 11.4 0 0 1 0 22.8" fill="#d62828F5"/><path d="M136.6-42.3a11.4 11.4 0 1 1 0-22.9 11.4 11.4 0 0 1 0 22.9" fill="#003049F6"/><path d="M170.8-239.8a11.4 11.4 0 1 1 0-22.9 11.4 11.4 0 0 1 0 22.9" fill="#fcbf49F6"/><path d="M141.8-246.9a11.5 11.5 0 1 1 0-23 11.5 11.5 0 0 1 0 23" fill="#fcbf49F8"/><path d="M1.7-170.1a11.5 11.5 0 1 1 0-23.1 11.5 11.5 0 0 1 0 23.1" fill="#003049F8"/><path d="M7.9-184.8a11.5 11.5 0 1 1 0-23.1 11.5 11.5 0 0 1 0 23.1" fill="#fcbf49F9"/><path d="M155.2-231.5a11.5 11.5 0 1 1 0-23.1 11.5 11.5 0 0 1 0 23.1" fill="#fcbf49F9"/><path d="M138.5-237.7a11.6 11.6 0 1 1 0-23.2 11.6 11.6 0 0 1 0 23.2" fill="#003049F9"/><path d="M43.6-118a11.7 11.7 0 1 1 0-23.4 11.7 11.7 0 0 1 0 23.4" fill="#f77f00FC"/><path d="M148.7-114.3a11.7 11.7 0 1 1 0-23.4 11.7 11.7 0 0 1 0 23.4" fill="#d62828FC"/><path d="M80.9-93.1a11.7 11.7 0 1 1 0-23.4 11.7 11.7 0 0 1 0 23.4" fill="#d62828FC"/><path d="M150.3-164a11.7 11.7 0 1 1 0-23.5 11.7 11.7 0 0 1 0 23.5" fill="#003049FD"/><path d="M80.8-142.1a11.8 11.8 0 1 1 0-23.6 11.8 11.8 0 0 1 0 23.6" fill="#fcbf49FE"/></g></svg>