<svg width="1200" height="675" viewBox="-500 -500 1200 675" xmlns="http://www.w3.org/2000/svg"><path d="M-500-500h1200v675h-1200z" fill="#000"/><style>.sparkles path{stroke-linecap:round; stroke-width:1}</style><g class="sparkles"><path d="M100-162.5l-10.7-28.3" stroke="#005bbb32"/><path d="M100-162.5l4.5-35.5" stroke="#005bbb32"/><path d="M100-162.5l78.2-39.6" stroke="#fff50035"/><path d="M100-162.5l-70.1-53.1" stroke="#fff50035"/><path d="M100-162.5l75.9 50.4" stroke="#005bbb35"/><path d="M100-162.5l-99.2 5.4" stroke="#fff50036"/><path d="M100-162.5l-37.8 91.8" stroke="#fff36"/><path d="M100-162.5l73.5 70.2" stroke="#fff36"/><path d="M100-162.5l-24 99.9" stroke="#c2e1ff36"/><path d="M100-162.5l-3.2-113.5" stroke="#fff38"/><path d="M100-162.5l-74.4 88.4" stroke="#fff50038"/><path d="M100-162.5l-22 135.7" stroke="#fff5003B"/><path d="M100-162.5l11.2-141.8" stroke="#fff3C"/><path d="M100-162.5l-90 111.7" stroke="#c2e1ff3C"/><path d="M100-162.5l15.1 143.5" stroke="#fff3C"/><path d="M100-162.5l137-46.5" stroke="#fff5003C"/><path d="M100-162.5l-77.4-126.8" stroke="#005bbb3D"/><path d="M100-162.5l34.7-145.7" stroke="#c2e1ff3D"/><path d="M100-162.5l89.7 120.3" stroke="#005bbb3D"/><path d="M100-162.5l141.9-55.3" stroke="#c2e1ff3D"/><path d="M100-162.5l-160.9 24.5" stroke="#c2e1ff3F"/><path d="M100-162.5l71.1 154" stroke="#c2e1ff41"/><path d="M100-162.5l61.7 158.4" stroke="#c2e1ff41"/><path d="M100-162.5l-137.6-101.7" stroke="#fff50041"/><path d="M100-162.5l-58.7-162.4" stroke="#fff50041"/><path d="M100-162.5l-21.3 175.1" stroke="#005bbb42"/><path d="M100-162.5l105.8-142.7" stroke="#fff43"/><path d="M100-162.5l151.7-93.1" stroke="#c2e1ff43"/><path d="M100-162.5l-149.6 99.9" stroke="#fff43"/><path d="M100-162.5l-92.3-155.7" stroke="#005bbb43"/><path d="M100-162.5l-140.8-115.4" stroke="#fff44"/><path d="M100-162.5l-109.4 149.2" stroke="#005bbb44"/><path d="M100-162.5l122-139.7" stroke="#005bbb45"/><path d="M100-162.5l-180-51.5" stroke="#005bbb45"/><path d="M100-162.5l189.2 0" stroke="#fff50046"/><path d="M100-162.5l-34.5 190.6" stroke="#fff47"/><path d="M100-162.5l178.7 78.4" stroke="#fff50047"/><path d="M100-162.5l-102.4 167.5" stroke="#005bbb48"/><path d="M100-162.5l121.8-160.4" stroke="#c2e1ff49"/><path d="M100-162.5l200.1-25.6" stroke="#fff49"/><path d="M100-162.5l-162.2 120.9" stroke="#005bbb4A"/><path d="M100-162.5l130.3-157.5" stroke="#c2e1ff4A"/><path d="M100-162.5l-137 152.4" stroke="#fff5004B"/><path d="M100-162.5l100.3-179.6" stroke="#005bbb4B"/><path d="M100-162.5l201.8 41.9" stroke="#fff5004B"/><path d="M100-162.5l162.1 129.7" stroke="#c2e1ff4C"/><path d="M100-162.5l115.2 173.5" stroke="#fff5004C"/><path d="M100-162.5l206.4-32.1" stroke="#fff4C"/><path d="M100-162.5l-212.1-1.2" stroke="#c2e1ff4D"/><path d="M100-162.5l94.5 191.9" stroke="#fff4E"/><path d="M100-162.5l209.9-43.3" stroke="#fff4E"/><path d="M100-162.5l-215 9.1" stroke="#fff4F"/><path d="M100-162.5l172.1 130.4" stroke="#005bbb4F"/><path d="M100-162.5l194.7-99" stroke="#c2e1ff50"/><path d="M100-162.5l204.6-78.8" stroke="#fff50051"/><path d="M100-162.5l-205.8-78.1" stroke="#005bbb51"/><path d="M100-162.5l36 218.4" stroke="#fff52"/><path d="M100-162.5l166.5 148.1" stroke="#fff50053"/><path d="M100-162.5l162.4-153.5" stroke="#fff53"/><path d="M100-162.5l-217.2-57.1" stroke="#fff50054"/><path d="M100-162.5l-65.5 216.1" stroke="#fff55"/><path d="M100-162.5l222.7-40.6" stroke="#fff50055"/><path d="M100-162.5l40.7-223.1" stroke="#005bbb55"/><path d="M100-162.5l224.6-39.9" stroke="#fff56"/><path d="M100-162.5l-220.2-60.1" stroke="#005bbb57"/><path d="M100-162.5l37.7 225.2" stroke="#005bbb57"/><path d="M100-162.5l-221.8-55.8" stroke="#c2e1ff57"/><path d="M100-162.5l8.5 230.7" stroke="#fff59"/><path d="M100-162.5l215.1 84.5" stroke="#c2e1ff59"/><path d="M100-162.5l-168.6-158.1" stroke="#c2e1ff59"/><path d="M100-162.5l35.1-228.5" stroke="#fff50059"/><path d="M100-162.5l226.5-52.6" stroke="#fff5005B"/><path d="M100-162.5l-151.4-176.7" stroke="#c2e1ff5B"/><path d="M100-162.5l-36.6 230.4" stroke="#fff5C"/><path d="M100-162.5l194.6 128.7" stroke="#c2e1ff5C"/><path d="M100-162.5l-52.3-229.6" stroke="#fff5005F"/><path d="M100-162.5l225.5-67.7" stroke="#fff5005F"/><path d="M100-162.5l68.1 225.5" stroke="#005bbb60"/><path d="M100-162.5l110.2-208.7" stroke="#fff50061"/><path d="M100-162.5l-171.4 162.3" stroke="#005bbb61"/><path d="M100-162.5l-213-101.7" stroke="#c2e1ff62"/><path d="M100-162.5l-144.2-187.1" stroke="#005bbb63"/><path d="M100-162.5l-95 216.3" stroke="#c2e1ff63"/><path d="M100-162.5l99.7-214.2" stroke="#fff50063"/><path d="M100-162.5l-48.8 231.2" stroke="#005bbb64"/><path d="M100-162.5l142.8-188.2" stroke="#fff64"/><path d="M100-162.5l233.7-34.7" stroke="#005bbb64"/><path d="M100-162.5l82.1-221.5" stroke="#005bbb64"/><path d="M100-162.5l194.9-133.5" stroke="#fff64"/><path d="M100-162.5l-72.5 224.7" stroke="#005bbb65"/><path d="M100-162.5l232.4-41.8" stroke="#c2e1ff65"/><path d="M100-162.5l-233.7-33.3" stroke="#fff50066"/><path d="M100-162.5l-66.7-226.2" stroke="#fff67"/><path d="M100-162.5l-166.1 167.2" stroke="#c2e1ff67"/><path d="M100-162.5l221.1-81.4" stroke="#c2e1ff67"/><path d="M100-162.5l-147.1-183.2" stroke="#fff50069"/><path d="M100-162.5l-135.3 191.9" stroke="#fff69"/><path d="M100-162.5l-73-223.1" stroke="#fff69"/><path d="M100-162.5l232.2 30.6" stroke="#005bbb6A"/><path d="M100-162.5l-109.7-205.7" stroke="#c2e1ff6C"/><path d="M100-162.5l-14.6-232.6" stroke="#005bbb6C"/><path d="M100-162.5l223.3 65.4" stroke="#005bbb6C"/><path d="M100-162.5l214.7-88.6" stroke="#c2e1ff6D"/><path d="M100-162.5l-87.7-214.9" stroke="#fff6D"/><path d="M100-162.5l-178.3-148.2" stroke="#005bbb6D"/><path d="M100-162.5l-58 223.7" stroke="#fff6E"/><path d="M100-162.5l-25.2-228.6" stroke="#c2e1ff6F"/><path d="M100-162.5l38.9 226.5" stroke="#c2e1ff6F"/><path d="M100-162.5l-84.3-213.7" stroke="#fff5006F"/><path d="M100-162.5l129.6 188.8" stroke="#005bbb70"/><path d="M100-162.5l-222.5 48.9" stroke="#fff50071"/><path d="M100-162.5l-9 227.3" stroke="#c2e1ff71"/><path d="M100-162.5l-226 22.9" stroke="#fff50071"/><path d="M100-162.5l-183.1-134.4" stroke="#fff71"/><path d="M100-162.5l-61.2-218.1" stroke="#fff50072"/><path d="M100-162.5l-44-222.1" stroke="#fff50072"/><path d="M100-162.5l-54.7-219.7" stroke="#c2e1ff72"/><path d="M100-162.5l85.6-208.4" stroke="#fff50073"/><path d="M100-162.5l102.1-200.1" stroke="#fff73"/><path d="M100-162.5l-212.6-66.5" stroke="#fff50074"/><path d="M100-162.5l-175 137.8" stroke="#fff74"/><path d="M100-162.5l178.7 132.7" stroke="#fff74"/><path d="M100-162.5l29.1 217.8" stroke="#c2e1ff76"/><path d="M100-162.5l70.2 208.1" stroke="#c2e1ff76"/><path d="M100-162.5l123.4-179.9" stroke="#c2e1ff77"/><path d="M100-162.5l206.9-63.5" stroke="#fff50078"/><path d="M100-162.5l-214.9 20.1" stroke="#c2e1ff78"/><path d="M100-162.5l-175.9-122.1" stroke="#005bbb79"/><path d="M100-162.5l85 194.9" stroke="#005bbb79"/><path d="M100-162.5l-167.7 129.5" stroke="#005bbb7A"/><path d="M100-162.5l114 178.2" stroke="#fff5007A"/><path d="M100-162.5l204.5 53.7" stroke="#fff7A"/><path d="M100-162.5l184.4 103.2" stroke="#005bbb7A"/><path d="M100-162.5l-210.5 7.1" stroke="#fff5007A"/><path d="M100-162.5l114.2 173.2" stroke="#c2e1ff7B"/><path d="M100-162.5l-152.2 140.7" stroke="#c2e1ff7B"/><path d="M100-162.5l-177.8 99.3" stroke="#005bbb7D"/><path d="M100-162.5l-192.7 53.1" stroke="#c2e1ff7E"/><path d="M100-162.5l-67.4-187.2" stroke="#005bbb7E"/><path d="M100-162.5l35.7-194.7" stroke="#005bbb7F"/><path d="M100-162.5l185.6 68.7" stroke="#c2e1ff7F"/><path d="M100-162.5l195.7-18" stroke="#005bbb7F"/><path d="M100-162.5l173.9-91.4" stroke="#fff5007F"/><path d="M100-162.5l-110.4 162" stroke="#005bbb7F"/><path d="M100-162.5l-177.2 80.9" stroke="#c2e1ff80"/><path d="M100-162.5l-148 126.4" stroke="#005bbb80"/><path d="M100-162.5l109.6 159" stroke="#fff50080"/><path d="M100-162.5l-19.8 192.1" stroke="#005bbb80"/><path d="M100-162.5l156.1-112.4" stroke="#fff50081"/><path d="M100-162.5l43.4 186.3" stroke="#005bbb81"/><path d="M100-162.5l-190.6 3.1" stroke="#fff81"/><path d="M100-162.5l189.3-19.6" stroke="#c2e1ff81"/><path d="M100-162.5l-150.9-105.9" stroke="#fff50083"/><path d="M100-162.5l67.4-170.4" stroke="#c2e1ff83"/><path d="M100-162.5l177.5-44.9" stroke="#c2e1ff83"/><path d="M100-162.5l101.1 151.1" stroke="#fff83"/><path d="M100-162.5l70.5-164.6" stroke="#fff50084"/><path d="M100-162.5l-162.3-63.9" stroke="#005bbb85"/><path d="M100-162.5l-48.6 163.9" stroke="#fff50086"/><path d="M100-162.5l-93.8 129.2" stroke="#c2e1ff88"/><path d="M100-162.5l-158.1 3.5" stroke="#005bbb89"/><path d="M100-162.5l-109-106.1" stroke="#c2e1ff8A"/><path d="M100-162.5l-119.7-83.8" stroke="#c2e1ff8B"/><path d="M100-162.5l142.2-26.8" stroke="#005bbb8B"/><path d="M100-162.5l-106 96.6" stroke="#c2e1ff8B"/><path d="M100-162.5l128.7-61" stroke="#005bbb8B"/><path d="M100-162.5l57.1-127.6" stroke="#c2e1ff8C"/><path d="M100-162.5l-134.5 0.6" stroke="#005bbb8D"/><path d="M100-162.5l81.2-104.4" stroke="#fff5008D"/><path d="M100-162.5l-64.6 115.3" stroke="#005bbb8D"/><path d="M100-162.5l-48.6-116.8" stroke="#005bbb8E"/><path d="M100-162.5l92.5-85.3" stroke="#c2e1ff8E"/><path d="M100-162.5l-109.5-33.7" stroke="#fff5008F"/><path d="M100-162.5l46.5-102.9" stroke="#fff5008F"/><path d="M100-162.5l-36.9 61" stroke="#fff50093"/><path d="M100-162.5l2.3 63.3" stroke="#c2e1ff94"/><path d="M100-162.5l-43.1-32.7" stroke="#fff94"/><path d="M100-162.5l40.1-17.8" stroke="#fff50095"/><path d="M100-162.5l-14.7 26.7" stroke="#005bbb95"/><path d="M100-162.5l-24.2 4" stroke="#005bbb95"/><path d="M100-162.5l5.5 5.2" stroke="#fff50095"/></g><g class="sparcs"><path d="M89.3-184.9a5.9 5.9 0 1 1 0-11.8 5.9 5.9 0 0 1 0 11.8" fill="#fff5007D"/><path d="M104.5-192.1a5.9 5.9 0 1 1 0-11.9 5.9 5.9 0 0 1 0 11.9" fill="#fff7D"/><path d="M178.2-195.9a6.1 6.1 0 1 1 0-12.3 6.1 6.1 0 0 1 0 12.3" fill="#fff81"/><path d="M29.9-209.5a6.1 6.1 0 1 1 0-12.3 6.1 6.1 0 0 1 0 12.3" fill="#005bbb81"/><path d="M175.9-106a6.1 6.1 0 1 1 0-12.3 6.1 6.1 0 0 1 0 12.3" fill="#005bbb82"/><path d="M0.8-150.9a6.2 6.2 0 1 1 0-12.4 6.2 6.2 0 0 1 0 12.4" fill="#fff83"/><path d="M62.2-64.5a6.2 6.2 0 1 1 0-12.4 6.2 6.2 0 0 1 0 12.4" fill="#c2e1ff83"/><path d="M173.5-86.1a6.2 6.2 0 1 1 0-12.4 6.2 6.2 0 0 1 0 12.4" fill="#fff83"/><path d="M76-56.4a6.2 6.2 0 1 1 0-12.4 6.2 6.2 0 0 1 0 12.4" fill="#c2e1ff83"/><path d="M96.8-269.7a6.3 6.3 0 1 1 0-12.5 6.3 6.3 0 0 1 0 12.5" fill="#005bbb84"/><path d="M25.6-67.9a6.3 6.3 0 1 1 0-12.5 6.3 6.3 0 0 1 0 12.5" fill="#005bbb85"/><path d="M78-20.3a6.5 6.5 0 1 1 0-13 6.5 6.5 0 0 1 0 13" fill="#fff89"/><path d="M111.2-297.8a6.5 6.5 0 1 1 0-13 6.5 6.5 0 0 1 0 13" fill="#fff5008A"/><path d="M10-44.3a6.5 6.5 0 1 1 0-13 6.5 6.5 0 0 1 0 13" fill="#c2e1ff8A"/><path d="M115.1-12.5a6.5 6.5 0 1 1 0-13 6.5 6.5 0 0 1 0 13" fill="#fff5008A"/><path d="M237-202.5a6.5 6.5 0 1 1 0-13 6.5 6.5 0 0 1 0 13" fill="#fff5008A"/><path d="M22.6-282.7a6.6 6.6 0 1 1 0-13.1 6.6 6.6 0 0 1 0 13.1" fill="#005bbb8B"/><path d="M134.7-301.6a6.6 6.6 0 1 1 0-13.2 6.6 6.6 0 0 1 0 13.2" fill="#005bbb8B"/><path d="M189.7-35.6a6.6 6.6 0 1 1 0-13.2 6.6 6.6 0 0 1 0 13.2" fill="#fff8B"/><path d="M241.9-211.2a6.6 6.6 0 1 1 0-13.2 6.6 6.6 0 0 1 0 13.2" fill="#fff8C"/><path d="M-60.9-131.3a6.7 6.7 0 1 1 0-13.4 6.7 6.7 0 0 1 0 13.4" fill="#fff5008E"/><path d="M171.1-1.7a6.8 6.8 0 1 1 0-13.6 6.8 6.8 0 0 1 0 13.6" fill="#fff50090"/><path d="M161.7 2.7a6.8 6.8 0 1 1 0-13.6 6.8 6.8 0 0 1 0 13.6" fill="#fff50090"/><path d="M-37.6-257.4a6.8 6.8 0 1 1 0-13.7 6.8 6.8 0 0 1 0 13.7" fill="#fff91"/><path d="M41.3-318a6.8 6.8 0 1 1 0-13.7 6.8 6.8 0 0 1 0 13.7" fill="#fff91"/><path d="M78.7 19.5a6.9 6.9 0 1 1 0-13.8 6.9 6.9 0 0 1 0 13.8" fill="#fff50092"/><path d="M205.8-298.3a6.9 6.9 0 1 1 0-13.8 6.9 6.9 0 0 1 0 13.8" fill="#005bbb93"/><path d="M251.7-248.7a6.9 6.9 0 1 1 0-13.8 6.9 6.9 0 0 1 0 13.8" fill="#fff50093"/><path d="M-49.6-55.6a6.9 6.9 0 1 1 0-13.9 6.9 6.9 0 0 1 0 13.9" fill="#005bbb93"/><path d="M7.7-311.2a7 7 0 1 1 0-13.9 7 7 0 0 1 0 13.9" fill="#c2e1ff94"/><path d="M-40.8-270.9a7 7 0 1 1 0-13.9 7 7 0 0 1 0 13.9" fill="#c2e1ff94"/><path d="M-9.4-6.2a7 7 0 1 1 0-14.1 7 7 0 0 1 0 14.1" fill="#fff95"/><path d="M222-295.1a7 7 0 1 1 0-14.1 7 7 0 0 1 0 14.1" fill="#c2e1ff95"/><path d="M-80-206.9a7.1 7.1 0 1 1 0-14.1 7.1 7.1 0 0 1 0 14.1" fill="#005bbb96"/><path d="M289.2-155.4a7.1 7.1 0 1 1 0-14.2 7.1 7.1 0 0 1 0 14.2" fill="#fff97"/><path d="M65.5 35.2a7.2 7.2 0 1 1 0-14.3 7.2 7.2 0 0 1 0 14.3" fill="#fff98"/><path d="M278.7-76.9a7.2 7.2 0 1 1 0-14.4 7.2 7.2 0 0 1 0 14.4" fill="#fff99"/><path d="M-2.4 12.2a7.2 7.2 0 1 1 0-14.4 7.2 7.2 0 0 1 0 14.4" fill="#fff99"/><path d="M221.8-315.6a7.3 7.3 0 1 1 0-14.7 7.3 7.3 0 0 1 0 14.7" fill="#fff5009C"/><path d="M300.1-180.8a7.3 7.3 0 1 1 0-14.6 7.3 7.3 0 0 1 0 14.6" fill="#005bbb9C"/><path d="M-62.2-34.3a7.3 7.3 0 1 1 0-14.6 7.3 7.3 0 0 1 0 14.6" fill="#005bbb9C"/><path d="M230.3-312.6a7.4 7.4 0 1 1 0-14.8 7.4 7.4 0 0 1 0 14.8" fill="#fff5009D"/><path d="M-37-2.7a7.4 7.4 0 1 1 0-14.8 7.4 7.4 0 0 1 0 14.8" fill="#fff9D"/><path d="M200.3-334.7a7.4 7.4 0 1 1 0-14.8 7.4 7.4 0 0 1 0 14.8" fill="#005bbb9E"/><path d="M301.8-113.2a7.4 7.4 0 1 1 0-14.8 7.4 7.4 0 0 1 0 14.8" fill="#c2e1ff9E"/><path d="M262.1-25.3a7.5 7.5 0 1 1 0-14.9 7.5 7.5 0 0 1 0 14.9" fill="#005bbb9E"/><path d="M215.2 18.4a7.5 7.5 0 1 1 0-14.9 7.5 7.5 0 0 1 0 14.9" fill="#c2e1ff9F"/><path d="M306.4-187.1a7.5 7.5 0 1 1 0-15 7.5 7.5 0 0 1 0 15" fill="#fff9F"/><path d="M-112.1-156.1a7.6 7.6 0 1 1 0-15.1 7.6 7.6 0 0 1 0 15.1" fill="#c2e1ffA1"/><path d="M194.5 37a7.6 7.6 0 1 1 0-15.2 7.6 7.6 0 0 1 0 15.2" fill="#fffA2"/><path d="M309.9-198.2a7.6 7.6 0 1 1 0-15.3 7.6 7.6 0 0 1 0 15.3" fill="#fffA2"/><path d="M-115-145.8a7.6 7.6 0 1 1 0-15.3 7.6 7.6 0 0 1 0 15.3" fill="#fff500A3"/><path d="M272.1-24.4a7.7 7.7 0 1 1 0-15.3 7.7 7.7 0 0 1 0 15.3" fill="#005bbbA3"/><path d="M294.7-253.7a7.7 7.7 0 1 1 0-15.5 7.7 7.7 0 0 1 0 15.5" fill="#fff500A5"/><path d="M304.6-233.6a7.8 7.8 0 1 1 0-15.5 7.8 7.8 0 0 1 0 15.5" fill="#c2e1ffA5"/><path d="M-105.8-232.8a7.8 7.8 0 1 1 0-15.6 7.8 7.8 0 0 1 0 15.6" fill="#005bbbA6"/><path d="M136 63.7a7.8 7.8 0 1 1 0-15.6 7.8 7.8 0 0 1 0 15.6" fill="#005bbbA7"/><path d="M266.5-6.5a7.9 7.9 0 1 1 0-15.8 7.9 7.9 0 0 1 0 15.8" fill="#fffA8"/><path d="M262.4-308.1a7.9 7.9 0 1 1 0-15.8 7.9 7.9 0 0 1 0 15.8" fill="#005bbbA8"/><path d="M-117.2-211.7a7.9 7.9 0 1 1 0-15.9 7.9 7.9 0 0 1 0 15.9" fill="#fff500A9"/><path d="M34.5 61.6a8 8 0 1 1 0-16 8 8 0 0 1 0 16" fill="#fff500AA"/><path d="M322.7-195.1a8 8 0 1 1 0-16.1 8 8 0 0 1 0 16.1" fill="#fffAB"/><path d="M140.7-377.6a8 8 0 1 1 0-16 8 8 0 0 1 0 16" fill="#005bbbAB"/><path d="M324.6-194.3a8.1 8.1 0 1 1 0-16.1 8.1 8.1 0 0 1 0 16.1" fill="#c2e1ffAD"/><path d="M-120.2-214.5a8.1 8.1 0 1 1 0-16.2 8.1 8.1 0 0 1 0 16.2" fill="#c2e1ffAD"/><path d="M137.7 70.8a8.1 8.1 0 1 1 0-16.2 8.1 8.1 0 0 1 0 16.2" fill="#c2e1ffAD"/><path d="M-121.8-210.2a8.1 8.1 0 1 1 0-16.2 8.1 8.1 0 0 1 0 16.2" fill="#fffAD"/><path d="M108.5 76.4a8.2 8.2 0 1 1 0-16.5 8.2 8.2 0 0 1 0 16.5" fill="#fffB0"/><path d="M315.1-69.8a8.2 8.2 0 1 1 0-16.4 8.2 8.2 0 0 1 0 16.4" fill="#fff500B0"/><path d="M-68.6-312.4a8.3 8.3 0 1 1 0-16.5 8.3 8.3 0 0 1 0 16.5" fill="#005bbbB0"/><path d="M135.1-382.8a8.3 8.3 0 1 1 0-16.5 8.3 8.3 0 0 1 0 16.5" fill="#fffB0"/><path d="M326.5-206.8a8.3 8.3 0 1 1 0-16.6 8.3 8.3 0 0 1 0 16.6" fill="#c2e1ffB2"/><path d="M-51.4-330.8a8.3 8.3 0 1 1 0-16.7 8.3 8.3 0 0 1 0 16.7" fill="#c2e1ffB2"/><path d="M63.4 76.3a8.4 8.4 0 1 1 0-16.8 8.4 8.4 0 0 1 0 16.8" fill="#fff500B3"/><path d="M294.6-25.4a8.4 8.4 0 1 1 0-16.8 8.4 8.4 0 0 1 0 16.8" fill="#fff500B3"/><path d="M47.7-383.5a8.6 8.6 0 1 1 0-17.2 8.6 8.6 0 0 1 0 17.2" fill="#fffB8"/><path d="M325.5-221.6a8.6 8.6 0 1 1 0-17.2 8.6 8.6 0 0 1 0 17.2" fill="#fffB8"/><path d="M168.1 71.6a8.6 8.6 0 1 1 0-17.2 8.6 8.6 0 0 1 0 17.2" fill="#fff500B8"/><path d="M210.2-362.4a8.7 8.7 0 1 1 0-17.5 8.7 8.7 0 0 1 0 17.5" fill="#fffBA"/><path d="M-71.4 8.5a8.7 8.7 0 1 1 0-17.4 8.7 8.7 0 0 1 0 17.4" fill="#005bbbBB"/><path d="M-113-255.5a8.7 8.7 0 1 1 0-17.5 8.7 8.7 0 0 1 0 17.5" fill="#005bbbBB"/><path d="M-44.2-340.8a8.8 8.8 0 1 1 0-17.6 8.8 8.8 0 0 1 0 17.6" fill="#fff500BC"/><path d="M5 62.6a8.8 8.8 0 1 1 0-17.6 8.8 8.8 0 0 1 0 17.6" fill="#c2e1ffBD"/><path d="M199.7-367.8a8.9 8.9 0 1 1 0-17.7 8.9 8.9 0 0 1 0 17.7" fill="#005bbbBD"/><path d="M51.2 77.5a8.9 8.9 0 1 1 0-17.7 8.9 8.9 0 0 1 0 17.7" fill="#005bbbBE"/><path d="M242.8-341.8a8.9 8.9 0 1 1 0-17.8 8.9 8.9 0 0 1 0 17.8" fill="#c2e1ffBE"/><path d="M333.7-188.3a8.9 8.9 0 1 1 0-17.8 8.9 8.9 0 0 1 0 17.8" fill="#005bbbBE"/><path d="M182.1-375.1a8.9 8.9 0 1 1 0-17.8 8.9 8.9 0 0 1 0 17.8" fill="#fff500BE"/><path d="M294.9-287.1a8.9 8.9 0 1 1 0-17.7 8.9 8.9 0 0 1 0 17.7" fill="#fff500BE"/><path d="M27.5 71.2a9 9 0 1 1 0-17.9 9 9 0 0 1 0 17.9" fill="#c2e1ffC0"/><path d="M332.4-195.3a9 9 0 1 1 0-18 9 9 0 0 1 0 18" fill="#fffC0"/><path d="M-133.7-186.8a9 9 0 1 1 0-18 9 9 0 0 1 0 18" fill="#fff500C0"/><path d="M33.3-379.6a9 9 0 1 1 0-18.1 9 9 0 0 1 0 18.1" fill="#005bbbC1"/><path d="M-66.1 13.8a9.1 9.1 0 1 1 0-18.2 9.1 9.1 0 0 1 0 18.2" fill="#005bbbC2"/><path d="M321.1-234.8a9.1 9.1 0 1 1 0-18.2 9.1 9.1 0 0 1 0 18.2" fill="#005bbbC2"/><path d="M-47.1-336.5a9.2 9.2 0 1 1 0-18.4 9.2 9.2 0 0 1 0 18.4" fill="#fffC4"/><path d="M-35.3 38.6a9.2 9.2 0 1 1 0-18.3 9.2 9.2 0 0 1 0 18.3" fill="#005bbbC5"/><path d="M27-376.4a9.2 9.2 0 1 1 0-18.4 9.2 9.2 0 0 1 0 18.4" fill="#fffC5"/><path d="M332.2-122.7a9.2 9.2 0 1 1 0-18.4 9.2 9.2 0 0 1 0 18.4" fill="#fffC6"/><path d="M-9.7-358.9a9.3 9.3 0 1 1 0-18.7 9.3 9.3 0 0 1 0 18.7" fill="#fff500C8"/><path d="M85.4-385.8a9.3 9.3 0 1 1 0-18.7 9.3 9.3 0 0 1 0 18.7" fill="#c2e1ffC8"/><path d="M323.3-87.7a9.4 9.4 0 1 1 0-18.8 9.4 9.4 0 0 1 0 18.8" fill="#005bbbC9"/><path d="M314.7-241.7a9.4 9.4 0 1 1 0-18.8 9.4 9.4 0 0 1 0 18.8" fill="#c2e1ffC9"/><path d="M12.3-368a9.4 9.4 0 1 1 0-18.8 9.4 9.4 0 0 1 0 18.8" fill="#fffCA"/><path d="M-78.3-301.2a9.4 9.4 0 1 1 0-18.9 9.4 9.4 0 0 1 0 18.9" fill="#fff500CA"/><path d="M42 70.7a9.5 9.5 0 1 1 0-19 9.5 9.5 0 0 1 0 19" fill="#005bbbCB"/><path d="M74.8-381.6a9.5 9.5 0 1 1 0-19.1 9.5 9.5 0 0 1 0 19.1" fill="#c2e1ffCC"/><path d="M138.9 73.6a9.5 9.5 0 1 1 0-19.1 9.5 9.5 0 0 1 0 19.1" fill="#c2e1ffCD"/><path d="M15.7-366.6a9.5 9.5 0 1 1 0-19.1 9.5 9.5 0 0 1 0 19.1" fill="#fffCD"/><path d="M229.6 35.9a9.6 9.6 0 1 1 0-19.1 9.6 9.6 0 0 1 0 19.1" fill="#005bbbCD"/><path d="M-122.5-103.9a9.6 9.6 0 1 1 0-19.3 9.6 9.6 0 0 1 0 19.3" fill="#005bbbCF"/><path d="M91 74.4a9.7 9.7 0 1 1 0-19.3 9.7 9.7 0 0 1 0 19.3" fill="#fff500CF"/><path d="M-126-130a9.7 9.7 0 1 1 0-19.3 9.7 9.7 0 0 1 0 19.3" fill="#fff500CF"/><path d="M-83.1-287.2a9.7 9.7 0 1 1 0-19.3 9.7 9.7 0 0 1 0 19.3" fill="#005bbbCF"/><path d="M38.8-370.9a9.7 9.7 0 1 1 0-19.4 9.7 9.7 0 0 1 0 19.4" fill="#fff500D0"/><path d="M56-374.9a9.7 9.7 0 1 1 0-19.4 9.7 9.7 0 0 1 0 19.4" fill="#fffD0"/><path d="M45.3-372.5a9.7 9.7 0 1 1 0-19.4 9.7 9.7 0 0 1 0 19.4" fill="#fff500D0"/><path d="M185.6-361.2a9.7 9.7 0 1 1 0-19.5 9.7 9.7 0 0 1 0 19.5" fill="#fffD1"/><path d="M202.1-352.8a9.8 9.8 0 1 1 0-19.6 9.8 9.8 0 0 1 0 19.6" fill="#fffD2"/><path d="M-112.6-219.2a9.8 9.8 0 1 1 0-19.7 9.8 9.8 0 0 1 0 19.7" fill="#fff500D3"/><path d="M-75-14.8a9.8 9.8 0 1 1 0-19.7 9.8 9.8 0 0 1 0 19.7" fill="#005bbbD3"/><path d="M278.7-20a9.8 9.8 0 1 1 0-19.7 9.8 9.8 0 0 1 0 19.7" fill="#fff500D3"/><path d="M129.1 65.3a9.9 9.9 0 1 1 0-19.9 9.9 9.9 0 0 1 0 19.9" fill="#005bbbD5"/><path d="M170.2 55.5a9.9 9.9 0 1 1 0-19.9 9.9 9.9 0 0 1 0 19.9" fill="#fff500D5"/><path d="M223.4-332.4a10 10 0 1 1 0-20 10 10 0 0 1 0 20" fill="#c2e1ffD6"/><path d="M306.9-216a10 10 0 1 1 0-20.1 10 10 0 0 1 0 20.1" fill="#fffD8"/><path d="M-114.9-132.3a10.1 10.1 0 1 1 0-20.1 10.1 10.1 0 0 1 0 20.1" fill="#fff500D8"/><path d="M-75.9-274.5a10.1 10.1 0 1 1 0-20.2 10.1 10.1 0 0 1 0 20.2" fill="#005bbbD9"/><path d="M185 42.6a10.1 10.1 0 1 1 0-20.3 10.1 10.1 0 0 1 0 20.3" fill="#fff500DA"/><path d="M-67.7-22.9a10.2 10.2 0 1 1 0-20.3 10.2 10.2 0 0 1 0 20.3" fill="#fffDA"/><path d="M214 25.9a10.2 10.2 0 1 1 0-20.4 10.2 10.2 0 0 1 0 20.4" fill="#fffDA"/><path d="M304.5-98.7a10.2 10.2 0 1 1 0-20.3 10.2 10.2 0 0 1 0 20.3" fill="#fffDB"/><path d="M284.4-49.1a10.2 10.2 0 1 1 0-20.4 10.2 10.2 0 0 1 0 20.4" fill="#005bbbDB"/><path d="M-110.5-145.2a10.2 10.2 0 1 1 0-20.4 10.2 10.2 0 0 1 0 20.4" fill="#c2e1ffDB"/><path d="M214.2 20.9a10.3 10.3 0 1 1 0-20.5 10.3 10.3 0 0 1 0 20.5" fill="#fff500DD"/><path d="M-52.2-11.6a10.3 10.3 0 1 1 0-20.5 10.3 10.3 0 0 1 0 20.5" fill="#005bbbDD"/><path d="M-77.8-52.9a10.4 10.4 0 1 1 0-20.7 10.4 10.4 0 0 1 0 20.7" fill="#005bbbDE"/><path d="M-92.7-99a10.4 10.4 0 1 1 0-20.8 10.4 10.4 0 0 1 0 20.8" fill="#c2e1ffE0"/><path d="M32.6-339.2a10.5 10.5 0 1 1 0-20.9 10.5 10.5 0 0 1 0 20.9" fill="#fffE1"/><path d="M135.7-346.7a10.5 10.5 0 1 1 0-21 10.5 10.5 0 0 1 0 21" fill="#fffE1"/><path d="M285.6-83.4a10.5 10.5 0 1 1 0-20.9 10.5 10.5 0 0 1 0 20.9" fill="#fff500E1"/><path d="M295.7-170a10.5 10.5 0 1 1 0-21 10.5 10.5 0 0 1 0 21" fill="#fffE2"/><path d="M273.9-243.4a10.5 10.5 0 1 1 0-21 10.5 10.5 0 0 1 0 21" fill="#fff500E2"/><path d="M-10.4 10a10.5 10.5 0 1 1 0-21 10.5 10.5 0 0 1 0 21" fill="#c2e1ffE2"/><path d="M-77.2-71.1a10.5 10.5 0 1 1 0-21.1 10.5 10.5 0 0 1 0 21.1" fill="#fffE2"/><path d="M-48-25.6a10.5 10.5 0 1 1 0-21 10.5 10.5 0 0 1 0 21" fill="#c2e1ffE2"/><path d="M209.6 7.1a10.6 10.6 0 1 1 0-21.1 10.6 10.6 0 0 1 0 21.1" fill="#005bbbE3"/><path d="M80.2 40.1a10.6 10.6 0 1 1 0-21.1 10.6 10.6 0 0 1 0 21.1" fill="#fffE3"/><path d="M256.1-264.3a10.6 10.6 0 1 1 0-21.2 10.6 10.6 0 0 1 0 21.2" fill="#fff500E3"/><path d="M143.4 34.4a10.6 10.6 0 1 1 0-21.2 10.6 10.6 0 0 1 0 21.2" fill="#c2e1ffE4"/><path d="M-90.6-148.8a10.6 10.6 0 1 1 0-21.2 10.6 10.6 0 0 1 0 21.2" fill="#c2e1ffE4"/><path d="M289.3-171.5a10.6 10.6 0 1 1 0-21.2 10.6 10.6 0 0 1 0 21.2" fill="#c2e1ffE4"/><path d="M-50.9-257.7a10.7 10.7 0 1 1 0-21.4 10.7 10.7 0 0 1 0 21.4" fill="#fff500E6"/><path d="M167.4-322.2a10.7 10.7 0 1 1 0-21.4 10.7 10.7 0 0 1 0 21.4" fill="#005bbbE7"/><path d="M277.5-196.6a10.7 10.7 0 1 1 0-21.5 10.7 10.7 0 0 1 0 21.5" fill="#c2e1ffE7"/><path d="M201.1-0.7a10.7 10.7 0 1 1 0-21.5 10.7 10.7 0 0 1 0 21.5" fill="#fffE7"/><path d="M170.5-316.3a10.8 10.8 0 1 1 0-21.6 10.8 10.8 0 0 1 0 21.6" fill="#fff500E8"/><path d="M-62.3-215.6a10.9 10.9 0 1 1 0-21.7 10.9 10.9 0 0 1 0 21.7" fill="#005bbbE9"/><path d="M51.4 12.3a10.9 10.9 0 1 1 0-21.8 10.9 10.9 0 0 1 0 21.8" fill="#fff500EA"/><path d="M6.2-22.2a11 11 0 1 1 0-22.1 11 11 0 0 1 0 22.1" fill="#c2e1ffED"/><path d="M-58.1-147.9a11.1 11.1 0 1 1 0-22.1 11.1 11.1 0 0 1 0 22.1" fill="#c2e1ffEE"/><path d="M-9-257.5a11.1 11.1 0 1 1 0-22.2 11.1 11.1 0 0 1 0 22.2" fill="#fff500EF"/><path d="M-19.7-235.1a11.2 11.2 0 1 1 0-22.4 11.2 11.2 0 0 1 0 22.4" fill="#fff500F1"/><path d="M242.2-178.1a11.2 11.2 0 1 1 0-22.4 11.2 11.2 0 0 1 0 22.4" fill="#005bbbF1"/><path d="M-6-54.7a11.2 11.2 0 1 1 0-22.4 11.2 11.2 0 0 1 0 22.4" fill="#fff500F1"/><path d="M228.7-212.3a11.2 11.2 0 1 1 0-22.5 11.2 11.2 0 0 1 0 22.5" fill="#005bbbF1"/><path d="M157.1-278.8a11.2 11.2 0 1 1 0-22.5 11.2 11.2 0 0 1 0 22.5" fill="#fffF2"/><path d="M-34.5-150.6a11.3 11.3 0 1 1 0-22.6 11.3 11.3 0 0 1 0 22.6" fill="#fff500F3"/><path d="M181.2-255.6a11.3 11.3 0 1 1 0-22.6 11.3 11.3 0 0 1 0 22.6" fill="#fffF3"/><path d="M35.4-35.9a11.3 11.3 0 1 1 0-22.6 11.3 11.3 0 0 1 0 22.6" fill="#fff500F3"/><path d="M51.4-267.9a11.4 11.4 0 1 1 0-22.7 11.4 11.4 0 0 1 0 22.7" fill="#005bbbF4"/><path d="M192.5-236.5a11.4 11.4 0 1 1 0-22.7 11.4 11.4 0 0 1 0 22.7" fill="#005bbbF5"/><path d="M-9.5-184.7a11.4 11.4 0 1 1 0-22.9 11.4 11.4 0 0 1 0 22.9" fill="#c2e1ffF6"/><path d="M146.5-254a11.5 11.5 0 1 1 0-22.9 11.5 11.5 0 0 1 0 22.9" fill="#fff500F7"/><path d="M63.1-89.8a11.7 11.7 0 1 1 0-23.4 11.7 11.7 0 0 1 0 23.4" fill="#fffFB"/><path d="M102.3-87.5a11.7 11.7 0 1 1 0-23.4 11.7 11.7 0 0 1 0 23.4" fill="#fff500FC"/><path d="M56.9-183.4a11.7 11.7 0 1 1 0-23.5 11.7 11.7 0 0 1 0 23.5" fill="#005bbbFD"/><path d="M140.1-168.5a11.8 11.8 0 1 1 0-23.5 11.8 11.8 0 0 1 0 23.5" fill="#fffFD"/><path d="M85.3-124a11.8 11.8 0 1 1 0-23.6 11.8 11.8 0 0 1 0 23.6" fill="#fff500FE"/><path d="M75.8-146.7a11.8 11.8 0 1 1 0-23.6 11.8 11.8 0 0 1 0 23.6" fill="#c2e1ffFE"/><path d="M105.5-145.5a11.8 11.8 0 1 1 0-23.6 11.8 11.8 0 0 1 0 23.6" fill="#c2e1ffFE"/></g></svg>