<svg width="1200" height="675" viewBox="-500 -500 1200 675" xmlns="http://www.w3.org/2000/svg"><path d="M-500-500h1200v675h-1200z" fill="#000"/><style>.sparkles path{stroke-linecap:round; stroke-width:1}</style><g class="sparkles"><path d="M100-162.5l25.3-13.7" stroke="#FF777732"/><path d="M100-162.5l43.9-39" stroke="#889EAF33"/><path d="M100-162.5l2.5-99.8" stroke="#D4B49936"/><path d="M100-162.5l-108.7-30.8" stroke="#FF787838"/><path d="M100-162.5l57.9-104.3" stroke="#F3D5C038"/><path d="M100-162.5l43.1 113.3" stroke="#FF777739"/><path d="M100-162.5l-109.1-54.6" stroke="#D4B49939"/><path d="M100-162.5l18.2 122.3" stroke="#D4B49939"/><path d="M100-162.5l121.8 35.8" stroke="#FF787839"/><path d="M100-162.5l-104.6-76.6" stroke="#506D843A"/><path d="M100-162.5l-81.2-103.3" stroke="#F3D5C03A"/><path d="M100-162.5l131.4-4.4" stroke="#F3D5C03A"/><path d="M100-162.5l46.9 126.5" stroke="#889EAF3A"/><path d="M100-162.5l-136.4 1.8" stroke="#CEE5D03B"/><path d="M100-162.5l121.9 69.3" stroke="#506D843B"/><path d="M100-162.5l-153.7-38.8" stroke="#506D843E"/><path d="M100-162.5l157-52" stroke="#FF777740"/><path d="M100-162.5l-150.2 71.1" stroke="#D4B49940"/><path d="M100-162.5l-17.8-171" stroke="#506D8441"/><path d="M100-162.5l-101.3-145.7" stroke="#506D8442"/><path d="M100-162.5l-114.4-142.7" stroke="#FF787844"/><path d="M100-162.5l-157.9-93.2" stroke="#506D8444"/><path d="M100-162.5l156.9-99.9" stroke="#FF787845"/><path d="M100-162.5l79-171.2" stroke="#889EAF45"/><path d="M100-162.5l-186.6-27.3" stroke="#CEE5D045"/><path d="M100-162.5l-95.1 164.1" stroke="#889EAF46"/><path d="M100-162.5l188.7 26.4" stroke="#D4B49946"/><path d="M100-162.5l157.6 109.5" stroke="#FF787846"/><path d="M100-162.5l-140.6-131.3" stroke="#CEE5D046"/><path d="M100-162.5l42 190.2" stroke="#F3D5C047"/><path d="M100-162.5l88.1 173.8" stroke="#F3D5C047"/><path d="M100-162.5l-52 192.2" stroke="#889EAF49"/><path d="M100-162.5l-43.2-196" stroke="#889EAF49"/><path d="M100-162.5l-192.2-66.3" stroke="#FF78784A"/><path d="M100-162.5l-195.9-57.1" stroke="#D4B4994A"/><path d="M100-162.5l-202.7-26" stroke="#506D844A"/><path d="M100-162.5l-180.4 101.3" stroke="#506D844B"/><path d="M100-162.5l182.8-97.1" stroke="#FF78784B"/><path d="M100-162.5l-153.8 142.7" stroke="#FF78784D"/><path d="M100-162.5l-168.7-126.5" stroke="#D4B4994D"/><path d="M100-162.5l69.9-202.4" stroke="#506D844E"/><path d="M100-162.5l176.6-121.4" stroke="#506D844E"/><path d="M100-162.5l3.8 214.4" stroke="#FF77774F"/><path d="M100-162.5l-172.7-130.9" stroke="#889EAF50"/><path d="M100-162.5l-214.3-34" stroke="#FF777750"/><path d="M100-162.5l-188-110" stroke="#889EAF50"/><path d="M100-162.5l-125.6-178.3" stroke="#889EAF50"/><path d="M100-162.5l-59.3 212.9" stroke="#506D8452"/><path d="M100-162.5l-220 27" stroke="#CEE5D052"/><path d="M100-162.5l143-170.5" stroke="#CEE5D053"/><path d="M100-162.5l211.8-69.1" stroke="#889EAF53"/><path d="M100-162.5l-64 213.7" stroke="#FF787853"/><path d="M100-162.5l-25.7-222.9" stroke="#FF777754"/><path d="M100-162.5l199.5-103.1" stroke="#889EAF54"/><path d="M100-162.5l-42 223.2" stroke="#D4B49956"/><path d="M100-162.5l138.4-182.1" stroke="#506D8457"/><path d="M100-162.5l206.3-99.1" stroke="#FF777757"/><path d="M100-162.5l-152.5-170.7" stroke="#CEE5D057"/><path d="M100-162.5l-163.3 160.4" stroke="#506D8457"/><path d="M100-162.5l78-215.7" stroke="#506D8458"/><path d="M100-162.5l229.9 0" stroke="#FF787858"/><path d="M100-162.5l-177.4-146.3" stroke="#F3D5C058"/><path d="M100-162.5l0.8-231.3" stroke="#FF777759"/><path d="M100-162.5l-160.4 167.5" stroke="#CEE5D05A"/><path d="M100-162.5l8.8-232.3" stroke="#F3D5C05B"/><path d="M100-162.5l115.7 203.5" stroke="#CEE5D05D"/><path d="M100-162.5l168.4-162.7" stroke="#D4B4995D"/><path d="M100-162.5l22.6-233.1" stroke="#506D845D"/><path d="M100-162.5l-218.2 86.3" stroke="#CEE5D05E"/><path d="M100-162.5l-203.6 116.9" stroke="#D4B4995E"/><path d="M100-162.5l-232.7-32.8" stroke="#889EAF5E"/><path d="M100-162.5l190.5-137.9" stroke="#D4B4995F"/><path d="M100-162.5l-171.8 160.7" stroke="#FF78785F"/><path d="M100-162.5l232.1 38.8" stroke="#CEE5D05F"/><path d="M100-162.5l-34.4-232.9" stroke="#889EAF5F"/><path d="M100-162.5l-234.1-25.4" stroke="#FF777760"/><path d="M100-162.5l-230.1-50.6" stroke="#889EAF60"/><path d="M100-162.5l-216-94.3" stroke="#F3D5C060"/><path d="M100-162.5l-19.8 234.9" stroke="#506D8460"/><path d="M100-162.5l-221.8-80.2" stroke="#506D8461"/><path d="M100-162.5l128.3 198" stroke="#D4B49961"/><path d="M100-162.5l-66.3-226.4" stroke="#FF787861"/><path d="M100-162.5l2.9 236" stroke="#F3D5C062"/><path d="M100-162.5l163.5 170.5" stroke="#D4B49962"/><path d="M100-162.5l-221.4-82.3" stroke="#FF787863"/><path d="M100-162.5l37.9-233.2" stroke="#CEE5D064"/><path d="M100-162.5l-86.3 219.9" stroke="#CEE5D064"/><path d="M100-162.5l169 164.9" stroke="#506D8465"/><path d="M100-162.5l-210.3-107.3" stroke="#D4B49966"/><path d="M100-162.5l-52.5-229.9" stroke="#889EAF67"/><path d="M100-162.5l-234.8-21.7" stroke="#506D8467"/><path d="M100-162.5l-130.7 196.1" stroke="#FF787867"/><path d="M100-162.5l199.2-125.7" stroke="#F3D5C067"/><path d="M100-162.5l-59.8-227.4" stroke="#D4B49968"/><path d="M100-162.5l108.3 208.7" stroke="#F3D5C068"/><path d="M100-162.5l190.1 137.3" stroke="#506D846A"/><path d="M100-162.5l-227.3-57.7" stroke="#FF78786A"/><path d="M100-162.5l104.3-210" stroke="#506D846A"/><path d="M100-162.5l-172.5-158.4" stroke="#FF77776A"/><path d="M100-162.5l214.5 93.6" stroke="#FF77776A"/><path d="M100-162.5l228-52.3" stroke="#506D846A"/><path d="M100-162.5l163.1-167.4" stroke="#889EAF6B"/><path d="M100-162.5l-195.6 127.3" stroke="#F3D5C06B"/><path d="M100-162.5l216.6-86.5" stroke="#889EAF6C"/><path d="M100-162.5l-30.4 230.8" stroke="#506D846C"/><path d="M100-162.5l144.9 182.1" stroke="#FF78786C"/><path d="M100-162.5l-79.8-216.3" stroke="#F3D5C06E"/><path d="M100-162.5l160.9 165.1" stroke="#FF77776E"/><path d="M100-162.5l-62 221.3" stroke="#506D846F"/><path d="M100-162.5l190.2 127.6" stroke="#CEE5D070"/><path d="M100-162.5l222.3-54.1" stroke="#F3D5C070"/><path d="M100-162.5l-39.4 224.3" stroke="#506D8471"/><path d="M100-162.5l-193.2-115.4" stroke="#FF777773"/><path d="M100-162.5l51.5 218.4" stroke="#CEE5D073"/><path d="M100-162.5l-158.1 158.9" stroke="#FF787873"/><path d="M100-162.5l165.6-149.7" stroke="#506D8474"/><path d="M100-162.5l21.8 221.6" stroke="#FF787874"/><path d="M100-162.5l60.3-213.9" stroke="#F3D5C074"/><path d="M100-162.5l220.9 4.4" stroke="#CEE5D075"/><path d="M100-162.5l-218.2 32.5" stroke="#FF777775"/><path d="M100-162.5l-31.5-215" stroke="#506D8477"/><path d="M100-162.5l-183.4 113.7" stroke="#FF777778"/><path d="M100-162.5l186.5-106.2" stroke="#FF777778"/><path d="M100-162.5l-55.9-206.5" stroke="#CEE5D079"/><path d="M100-162.5l-132.8 166.9" stroke="#CEE5D079"/><path d="M100-162.5l210-37.5" stroke="#D4B49979"/><path d="M100-162.5l-146.8 152.3" stroke="#D4B4997A"/><path d="M100-162.5l40.2-207.4" stroke="#506D847A"/><path d="M100-162.5l-206.3 41.4" stroke="#889EAF7A"/><path d="M100-162.5l85.6 190.1" stroke="#FF77777B"/><path d="M100-162.5l-97.3-182.3" stroke="#F3D5C07C"/><path d="M100-162.5l71.8-191.6" stroke="#FF78787C"/><path d="M100-162.5l-152-134.3" stroke="#D4B4997D"/><path d="M100-162.5l-20.6 199.4" stroke="#FF77777E"/><path d="M100-162.5l-173.5 99.7" stroke="#889EAF7E"/><path d="M100-162.5l-176 90.1" stroke="#FF78787F"/><path d="M100-162.5l-36.8 191.6" stroke="#FF777780"/><path d="M100-162.5l-163.4 106.4" stroke="#FF777780"/><path d="M100-162.5l-163.6 105.5" stroke="#CEE5D080"/><path d="M100-162.5l156.3 114.3" stroke="#889EAF80"/><path d="M100-162.5l-164.2-96.9" stroke="#F3D5C081"/><path d="M100-162.5l-168.1 89.3" stroke="#D4B49981"/><path d="M100-162.5l20.7 187.1" stroke="#889EAF82"/><path d="M100-162.5l-181.7 49.1" stroke="#D4B49982"/><path d="M100-162.5l-49.4 179.6" stroke="#506D8482"/><path d="M100-162.5l22.3-184.7" stroke="#506D8482"/><path d="M100-162.5l-146.1-99.6" stroke="#D4B49985"/><path d="M100-162.5l92.9 148.8" stroke="#889EAF85"/><path d="M100-162.5l56.1 166.2" stroke="#CEE5D085"/><path d="M100-162.5l131.9 115.4" stroke="#F3D5C085"/><path d="M100-162.5l-94.1 146.3" stroke="#CEE5D085"/><path d="M100-162.5l32.6 166.5" stroke="#FF787886"/><path d="M100-162.5l-151.1 67.6" stroke="#506D8487"/><path d="M100-162.5l163.2 11.7" stroke="#D4B49988"/><path d="M100-162.5l95.2-132.5" stroke="#D4B49988"/><path d="M100-162.5l17.2-151.6" stroke="#CEE5D08A"/><path d="M100-162.5l-70.6-133.9" stroke="#FF77778A"/><path d="M100-162.5l113.7-97.5" stroke="#FF78788A"/><path d="M100-162.5l-120.8 79.1" stroke="#FF78788B"/><path d="M100-162.5l9.6-143.2" stroke="#FF78788B"/><path d="M100-162.5l-36.5 137.5" stroke="#FF78788B"/><path d="M100-162.5l70.9 122.6" stroke="#FF78788C"/><path d="M100-162.5l-95.6 99.7" stroke="#506D848C"/><path d="M100-162.5l60.8-122.6" stroke="#F3D5C08C"/><path d="M100-162.5l-3.9-129.1" stroke="#FF78788D"/><path d="M100-162.5l111.7 1.3" stroke="#FF777790"/><path d="M100-162.5l111.5 6.6" stroke="#506D8490"/><path d="M100-162.5l80.4 76.1" stroke="#CEE5D090"/><path d="M100-162.5l15.9 108.9" stroke="#506D8490"/><path d="M100-162.5l98-46.4" stroke="#FF787890"/><path d="M100-162.5l101.7 28" stroke="#FF787890"/><path d="M100-162.5l-2.4 99.4" stroke="#F3D5C091"/><path d="M100-162.5l-66.6 67.7" stroke="#D4B49991"/><path d="M100-162.5l-57.3 70.2" stroke="#FF787892"/><path d="M100-162.5l-54-67.2" stroke="#FF777792"/><path d="M100-162.5l8.8 84.4" stroke="#CEE5D092"/><path d="M100-162.5l-80.5-3.2" stroke="#CEE5D093"/><path d="M100-162.5l45.5-63.2" stroke="#CEE5D093"/><path d="M100-162.5l8.4-56.1" stroke="#D4B49994"/><path d="M100-162.5l-17.7 21.6" stroke="#D4B49995"/><path d="M100-162.5l19.8 19.1" stroke="#FF777795"/></g><g class="sparcs"><path d="M125.3-170.3a5.9 5.9 0 1 1 0-11.9 5.9 5.9 0 0 1 0 11.9" fill="#FF78787D"/><path d="M143.9-195.5a6 6 0 1 1 0-12 6 6 0 0 1 0 12" fill="#506D847F"/><path d="M102.5-256.1a6.2 6.2 0 1 1 0-12.4 6.2 6.2 0 0 1 0 12.4" fill="#506D8483"/><path d="M-8.7-187.1a6.3 6.3 0 1 1 0-12.5 6.3 6.3 0 0 1 0 12.5" fill="#FF777784"/><path d="M157.9-260.5a6.3 6.3 0 1 1 0-12.6 6.3 6.3 0 0 1 0 12.6" fill="#F3D5C085"/><path d="M143.1-42.8a6.3 6.3 0 1 1 0-12.7 6.3 6.3 0 0 1 0 12.7" fill="#F3D5C086"/><path d="M-9.1-210.8a6.3 6.3 0 1 1 0-12.6 6.3 6.3 0 0 1 0 12.6" fill="#889EAF86"/><path d="M118.2-33.9a6.3 6.3 0 1 1 0-12.7 6.3 6.3 0 0 1 0 12.7" fill="#D4B49986"/><path d="M221.8-120.3a6.4 6.4 0 1 1 0-12.7 6.4 6.4 0 0 1 0 12.7" fill="#F3D5C087"/><path d="M-4.6-232.8a6.4 6.4 0 1 1 0-12.7 6.4 6.4 0 0 1 0 12.7" fill="#D4B49987"/><path d="M18.8-259.3a6.4 6.4 0 1 1 0-12.9 6.4 6.4 0 0 1 0 12.9" fill="#F3D5C087"/><path d="M231.4-160.5a6.4 6.4 0 1 1 0-12.8 6.4 6.4 0 0 1 0 12.8" fill="#FF787887"/><path d="M146.9-29.5a6.4 6.4 0 1 1 0-12.9 6.4 6.4 0 0 1 0 12.9" fill="#FF777788"/><path d="M-36.4-154.2a6.4 6.4 0 1 1 0-12.9 6.4 6.4 0 0 1 0 12.9" fill="#D4B49988"/><path d="M221.9-86.7a6.5 6.5 0 1 1 0-13 6.5 6.5 0 0 1 0 13" fill="#FF777789"/><path d="M-53.7-194.6a6.7 6.7 0 1 1 0-13.3 6.7 6.7 0 0 1 0 13.3" fill="#FF77778D"/><path d="M257-207.7a6.8 6.8 0 1 1 0-13.5 6.8 6.8 0 0 1 0 13.5" fill="#FF77778F"/><path d="M-50.2-84.7a6.8 6.8 0 1 1 0-13.5 6.8 6.8 0 0 1 0 13.5" fill="#506D848F"/><path d="M82.2-326.7a6.8 6.8 0 1 1 0-13.7 6.8 6.8 0 0 1 0 13.7" fill="#FF787891"/><path d="M-1.3-301.3a6.9 6.9 0 1 1 0-13.8 6.9 6.9 0 0 1 0 13.8" fill="#FF777793"/><path d="M-14.4-298.2a7 7 0 1 1 0-14 7 7 0 0 1 0 14" fill="#FF787894"/><path d="M-57.9-248.7a7 7 0 1 1 0-14 7 7 0 0 1 0 14" fill="#F3D5C095"/><path d="M256.9-255.4a7 7 0 1 1 0-14.1 7 7 0 0 1 0 14.1" fill="#889EAF95"/><path d="M179-326.6a7.1 7.1 0 1 1 0-14.2 7.1 7.1 0 0 1 0 14.2" fill="#889EAF96"/><path d="M-86.6-182.7a7.1 7.1 0 1 1 0-14.2 7.1 7.1 0 0 1 0 14.2" fill="#889EAF96"/><path d="M4.9 8.7a7.1 7.1 0 1 1 0-14.2 7.1 7.1 0 0 1 0 14.2" fill="#D4B49997"/><path d="M288.7-129a7.1 7.1 0 1 1 0-14.2 7.1 7.1 0 0 1 0 14.2" fill="#FF777797"/><path d="M257.6-45.9a7.1 7.1 0 1 1 0-14.2 7.1 7.1 0 0 1 0 14.2" fill="#F3D5C098"/><path d="M-40.6-286.6a7.1 7.1 0 1 1 0-14.3 7.1 7.1 0 0 1 0 14.3" fill="#FF787898"/><path d="M142 34.9a7.2 7.2 0 1 1 0-14.4 7.2 7.2 0 0 1 0 14.4" fill="#F3D5C099"/><path d="M188.1 18.5a7.2 7.2 0 1 1 0-14.4 7.2 7.2 0 0 1 0 14.4" fill="#FF787899"/><path d="M48 36.9a7.3 7.3 0 1 1 0-14.5 7.3 7.3 0 0 1 0 14.5" fill="#D4B4999A"/><path d="M56.8-351.2a7.3 7.3 0 1 1 0-14.6 7.3 7.3 0 0 1 0 14.6" fill="#889EAF9B"/><path d="M-92.2-221.4a7.4 7.4 0 1 1 0-14.7 7.4 7.4 0 0 1 0 14.7" fill="#FF77779C"/><path d="M-95.9-212.2a7.4 7.4 0 1 1 0-14.7 7.4 7.4 0 0 1 0 14.7" fill="#889EAF9D"/><path d="M-102.7-181.1a7.4 7.4 0 1 1 0-14.7 7.4 7.4 0 0 1 0 14.7" fill="#FF78789D"/><path d="M-80.4-53.8a7.4 7.4 0 1 1 0-14.8 7.4 7.4 0 0 1 0 14.8" fill="#F3D5C09E"/><path d="M282.8-252.1a7.4 7.4 0 1 1 0-14.9 7.4 7.4 0 0 1 0 14.9" fill="#F3D5C09E"/><path d="M-53.8-12.3a7.5 7.5 0 1 1 0-15 7.5 7.5 0 0 1 0 15" fill="#889EAFA0"/><path d="M-68.7-281.5a7.5 7.5 0 1 1 0-15 7.5 7.5 0 0 1 0 15" fill="#F3D5C0A0"/><path d="M169.9-357.3a7.6 7.6 0 1 1 0-15.2 7.6 7.6 0 0 1 0 15.2" fill="#F3D5C0A2"/><path d="M276.6-276.3a7.6 7.6 0 1 1 0-15.2 7.6 7.6 0 0 1 0 15.2" fill="#889EAFA2"/><path d="M103.8 59.5a7.6 7.6 0 1 1 0-15.2 7.6 7.6 0 0 1 0 15.2" fill="#506D84A2"/><path d="M-72.7-285.7a7.7 7.7 0 1 1 0-15.4 7.7 7.7 0 0 1 0 15.4" fill="#D4B499A4"/><path d="M-114.3-188.8a7.7 7.7 0 1 1 0-15.4 7.7 7.7 0 0 1 0 15.4" fill="#FF7777A4"/><path d="M-88-264.8a7.7 7.7 0 1 1 0-15.5 7.7 7.7 0 0 1 0 15.5" fill="#CEE5D0A4"/><path d="M-25.6-333.1a7.7 7.7 0 1 1 0-15.4 7.7 7.7 0 0 1 0 15.4" fill="#FF7878A5"/><path d="M40.7 58.2a7.8 7.8 0 1 1 0-15.7 7.8 7.8 0 0 1 0 15.7" fill="#506D84A6"/><path d="M-120-127.7a7.8 7.8 0 1 1 0-15.7 7.8 7.8 0 0 1 0 15.7" fill="#D4B499A7"/><path d="M243-325.1a7.9 7.9 0 1 1 0-15.8 7.9 7.9 0 0 1 0 15.8" fill="#506D84A8"/><path d="M311.8-223.7a7.9 7.9 0 1 1 0-15.8 7.9 7.9 0 0 1 0 15.8" fill="#FF7777A8"/><path d="M36 59.1a7.9 7.9 0 1 1 0-15.8 7.9 7.9 0 0 1 0 15.8" fill="#889EAFA8"/><path d="M74.3-377.4a7.9 7.9 0 1 1 0-15.9 7.9 7.9 0 0 1 0 15.9" fill="#506D84A9"/><path d="M299.5-257.7a7.9 7.9 0 1 1 0-15.8 7.9 7.9 0 0 1 0 15.8" fill="#FF7878A9"/><path d="M58 68.7a8 8 0 1 1 0-16.1 8 8 0 0 1 0 16.1" fill="#FF7777AC"/><path d="M238.4-336.5a8.1 8.1 0 1 1 0-16.2 8.1 8.1 0 0 1 0 16.2" fill="#FF7777AD"/><path d="M306.3-253.5a8.1 8.1 0 1 1 0-16.2 8.1 8.1 0 0 1 0 16.2" fill="#506D84AD"/><path d="M-52.5-325.1a8.1 8.1 0 1 1 0-16.2 8.1 8.1 0 0 1 0 16.2" fill="#FF7777AD"/><path d="M-63.3 6a8.1 8.1 0 1 1 0-16.3 8.1 8.1 0 0 1 0 16.3" fill="#D4B499AD"/><path d="M178-370.1a8.2 8.2 0 1 1 0-16.3 8.2 8.2 0 0 1 0 16.3" fill="#F3D5C0AE"/><path d="M329.9-154.3a8.2 8.2 0 1 1 0-16.4 8.2 8.2 0 0 1 0 16.4" fill="#506D84AF"/><path d="M-77.4-300.6a8.2 8.2 0 1 1 0-16.4 8.2 8.2 0 0 1 0 16.4" fill="#FF7878AF"/><path d="M100.8-385.5a8.3 8.3 0 1 1 0-16.5 8.3 8.3 0 0 1 0 16.5" fill="#F3D5C0B0"/><path d="M-60.4 13.3a8.3 8.3 0 1 1 0-16.6 8.3 8.3 0 0 1 0 16.6" fill="#506D84B1"/><path d="M108.8-386.5a8.3 8.3 0 1 1 0-16.7 8.3 8.3 0 0 1 0 16.7" fill="#889EAFB2"/><path d="M215.7 49.4a8.5 8.5 0 1 1 0-16.9 8.5 8.5 0 0 1 0 16.9" fill="#F3D5C0B5"/><path d="M268.4-316.7a8.5 8.5 0 1 1 0-17 8.5 8.5 0 0 1 0 17" fill="#FF7777B5"/><path d="M122.6-387.2a8.5 8.5 0 1 1 0-16.9 8.5 8.5 0 0 1 0 16.9" fill="#FF7878B5"/><path d="M-118.2-67.7a8.5 8.5 0 1 1 0-17.1 8.5 8.5 0 0 1 0 17.1" fill="#506D84B6"/><path d="M-103.6-37.1a8.5 8.5 0 1 1 0-17.1 8.5 8.5 0 0 1 0 17.1" fill="#CEE5D0B6"/><path d="M-132.7-186.7a8.6 8.6 0 1 1 0-17.1 8.6 8.6 0 0 1 0 17.1" fill="#889EAFB7"/><path d="M290.5-291.9a8.6 8.6 0 1 1 0-17.1 8.6 8.6 0 0 1 0 17.1" fill="#FF7777B7"/><path d="M-71.8 6.7a8.6 8.6 0 1 1 0-17.1 8.6 8.6 0 0 1 0 17.1" fill="#F3D5C0B7"/><path d="M332.1-115.1a8.6 8.6 0 1 1 0-17.2 8.6 8.6 0 0 1 0 17.2" fill="#506D84B8"/><path d="M65.6-386.8a8.6 8.6 0 1 1 0-17.2 8.6 8.6 0 0 1 0 17.2" fill="#F3D5C0B8"/><path d="M-134.1-179.3a8.6 8.6 0 1 1 0-17.3 8.6 8.6 0 0 1 0 17.3" fill="#D4B499B8"/><path d="M-130.1-204.4a8.6 8.6 0 1 1 0-17.3 8.6 8.6 0 0 1 0 17.3" fill="#CEE5D0B9"/><path d="M-116-248.1a8.7 8.7 0 1 1 0-17.3 8.7 8.7 0 0 1 0 17.3" fill="#FF7878B9"/><path d="M80.2 81.1a8.7 8.7 0 1 1 0-17.4 8.7 8.7 0 0 1 0 17.4" fill="#889EAFB9"/><path d="M-121.8-234a8.7 8.7 0 1 1 0-17.4 8.7 8.7 0 0 1 0 17.4" fill="#FF7777BA"/><path d="M228.3 44.2a8.7 8.7 0 1 1 0-17.4 8.7 8.7 0 0 1 0 17.4" fill="#506D84BA"/><path d="M33.7-380.2a8.7 8.7 0 1 1 0-17.4 8.7 8.7 0 0 1 0 17.4" fill="#FF7777BA"/><path d="M102.9 82.3a8.7 8.7 0 1 1 0-17.5 8.7 8.7 0 0 1 0 17.5" fill="#F3D5C0BB"/><path d="M263.5 16.8a8.8 8.8 0 1 1 0-17.6 8.8 8.8 0 0 1 0 17.6" fill="#F3D5C0BC"/><path d="M-121.4-236a8.8 8.8 0 1 1 0-17.7 8.8 8.8 0 0 1 0 17.7" fill="#CEE5D0BD"/><path d="M137.9-386.8a8.9 8.9 0 1 1 0-17.7 8.9 8.9 0 0 1 0 17.7" fill="#889EAFBE"/><path d="M13.7 66.3a8.9 8.9 0 1 1 0-17.7 8.9 8.9 0 0 1 0 17.7" fill="#FF7777BE"/><path d="M269 11.4a9 9 0 1 1 0-17.9 9 9 0 0 1 0 17.9" fill="#FF7777C0"/><path d="M-110.3-260.8a9 9 0 1 1 0-17.9 9 9 0 0 1 0 17.9" fill="#889EAFC0"/><path d="M47.5-383.4a9 9 0 1 1 0-18 9 9 0 0 1 0 18" fill="#CEE5D0C1"/><path d="M-134.8-175.2a9.1 9.1 0 1 1 0-18.1 9.1 9.1 0 0 1 0 18.1" fill="#506D84C2"/><path d="M-30.7 42.7a9.1 9.1 0 1 1 0-18.1 9.1 9.1 0 0 1 0 18.1" fill="#D4B499C2"/><path d="M299.2-279.1a9.1 9.1 0 1 1 0-18.2 9.1 9.1 0 0 1 0 18.2" fill="#FF7777C3"/><path d="M40.2-380.8a9.1 9.1 0 1 1 0-18.3 9.1 9.1 0 0 1 0 18.3" fill="#F3D5C0C4"/><path d="M208.3 55.3a9.1 9.1 0 1 1 0-18.3 9.1 9.1 0 0 1 0 18.3" fill="#FF7878C4"/><path d="M290.1-16a9.2 9.2 0 1 1 0-18.4 9.2 9.2 0 0 1 0 18.4" fill="#889EAFC5"/><path d="M-127.3-211a9.2 9.2 0 1 1 0-18.4 9.2 9.2 0 0 1 0 18.4" fill="#506D84C5"/><path d="M204.3-363.3a9.2 9.2 0 1 1 0-18.4 9.2 9.2 0 0 1 0 18.4" fill="#889EAFC6"/><path d="M-72.5-311.7a9.2 9.2 0 1 1 0-18.5 9.2 9.2 0 0 1 0 18.5" fill="#FF7777C6"/><path d="M314.5-59.6a9.3 9.3 0 1 1 0-18.6 9.3 9.3 0 0 1 0 18.6" fill="#506D84C6"/><path d="M328-205.5a9.3 9.3 0 1 1 0-18.6 9.3 9.3 0 0 1 0 18.6" fill="#CEE5D0C7"/><path d="M263.1-320.6a9.3 9.3 0 1 1 0-18.6 9.3 9.3 0 0 1 0 18.6" fill="#FF7777C7"/><path d="M-95.6-25.9a9.3 9.3 0 1 1 0-18.6 9.3 9.3 0 0 1 0 18.6" fill="#889EAFC8"/><path d="M316.6-239.6a9.3 9.3 0 1 1 0-18.7 9.3 9.3 0 0 1 0 18.7" fill="#889EAFC8"/><path d="M69.6 77.7a9.4 9.4 0 1 1 0-18.7 9.4 9.4 0 0 1 0 18.7" fill="#889EAFC9"/><path d="M244.9 28.9a9.4 9.4 0 1 1 0-18.7 9.4 9.4 0 0 1 0 18.7" fill="#889EAFC9"/><path d="M20.2-369.3a9.5 9.5 0 1 1 0-19 9.5 9.5 0 0 1 0 19" fill="#889EAFCC"/><path d="M260.9 12.1a9.5 9.5 0 1 1 0-19 9.5 9.5 0 0 1 0 19" fill="#FF7878CC"/><path d="M38 68.4a9.5 9.5 0 1 1 0-19.1 9.5 9.5 0 0 1 0 19.1" fill="#CEE5D0CD"/><path d="M290.2-25.3a9.6 9.6 0 1 1 0-19.2 9.6 9.6 0 0 1 0 19.2" fill="#CEE5D0CD"/><path d="M322.3-207a9.6 9.6 0 1 1 0-19.2 9.6 9.6 0 0 1 0 19.2" fill="#F3D5C0CE"/><path d="M60.6 71.5a9.6 9.6 0 1 1 0-19.3 9.6 9.6 0 0 1 0 19.3" fill="#FF7777CF"/><path d="M-93.2-268.2a9.8 9.8 0 1 1 0-19.5 9.8 9.8 0 0 1 0 19.5" fill="#D4B499D1"/><path d="M151.5 65.7a9.8 9.8 0 1 1 0-19.6 9.8 9.8 0 0 1 0 19.6" fill="#F3D5C0D2"/><path d="M-58.1 6.2a9.8 9.8 0 1 1 0-19.6 9.8 9.8 0 0 1 0 19.6" fill="#FF7878D2"/><path d="M265.6-302.4a9.8 9.8 0 1 1 0-19.7 9.8 9.8 0 0 1 0 19.7" fill="#FF7878D3"/><path d="M121.8 68.9a9.8 9.8 0 1 1 0-19.7 9.8 9.8 0 0 1 0 19.7" fill="#FF7777D3"/><path d="M160.3-366.5a9.9 9.9 0 1 1 0-19.7 9.9 9.9 0 0 1 0 19.7" fill="#CEE5D0D4"/><path d="M320.9-148.2a9.9 9.9 0 1 1 0-19.8 9.9 9.9 0 0 1 0 19.8" fill="#FF7777D5"/><path d="M-118.2-120.1a9.9 9.9 0 1 1 0-19.9 9.9 9.9 0 0 1 0 19.9" fill="#FF7777D5"/><path d="M68.5-367.5a10 10 0 1 1 0-20 10 10 0 0 1 0 20" fill="#F3D5C0D7"/><path d="M-83.4-38.8a10.1 10.1 0 1 1 0-20.1 10.1 10.1 0 0 1 0 20.1" fill="#FF7777D8"/><path d="M286.5-258.6a10.1 10.1 0 1 1 0-20.2 10.1 10.1 0 0 1 0 20.2" fill="#506D84D9"/><path d="M44.1-358.8a10.1 10.1 0 1 1 0-20.3 10.1 10.1 0 0 1 0 20.3" fill="#FF7878D9"/><path d="M-32.8 14.6a10.1 10.1 0 1 1 0-20.3 10.1 10.1 0 0 1 0 20.3" fill="#CEE5D0D9"/><path d="M310-189.8a10.1 10.1 0 1 1 0-20.3 10.1 10.1 0 0 1 0 20.3" fill="#889EAFD9"/><path d="M-46.8 0a10.2 10.2 0 1 1 0-20.3 10.2 10.2 0 0 1 0 20.3" fill="#FF7777DA"/><path d="M140.2-359.8a10.2 10.2 0 1 1 0-20.3 10.2 10.2 0 0 1 0 20.3" fill="#FF7777DB"/><path d="M-106.3-110.9a10.2 10.2 0 1 1 0-20.4 10.2 10.2 0 0 1 0 20.4" fill="#FF7777DB"/><path d="M185.6 37.8a10.2 10.2 0 1 1 0-20.5 10.2 10.2 0 0 1 0 20.5" fill="#506D84DC"/><path d="M2.7-334.5a10.3 10.3 0 1 1 0-20.6 10.3 10.3 0 0 1 0 20.6" fill="#FF7878DD"/><path d="M171.8-343.8a10.3 10.3 0 1 1 0-20.6 10.3 10.3 0 0 1 0 20.6" fill="#FF7777DE"/><path d="M-52-286.4a10.4 10.4 0 1 1 0-20.7 10.4 10.4 0 0 1 0 20.7" fill="#F3D5C0DF"/><path d="M79.4 47.4a10.4 10.4 0 1 1 0-20.9 10.4 10.4 0 0 1 0 20.9" fill="#FF7878E0"/><path d="M-73.5-52.4a10.4 10.4 0 1 1 0-20.9 10.4 10.4 0 0 1 0 20.9" fill="#506D84E0"/><path d="M-76-61.9a10.5 10.5 0 1 1 0-20.9 10.5 10.5 0 0 1 0 20.9" fill="#F3D5C0E1"/><path d="M63.2 39.6a10.5 10.5 0 1 1 0-21.1 10.5 10.5 0 0 1 0 21.1" fill="#FF7878E2"/><path d="M-63.4-45.6a10.5 10.5 0 1 1 0-21.1 10.5 10.5 0 0 1 0 21.1" fill="#F3D5C0E2"/><path d="M-63.6-46.4a10.5 10.5 0 1 1 0-21.1 10.5 10.5 0 0 1 0 21.1" fill="#506D84E2"/><path d="M256.3-37.6a10.6 10.6 0 1 1 0-21.1 10.6 10.6 0 0 1 0 21.1" fill="#CEE5D0E3"/><path d="M-64.2-248.8a10.6 10.6 0 1 1 0-21.2 10.6 10.6 0 0 1 0 21.2" fill="#CEE5D0E4"/><path d="M-68.1-62.6a10.6 10.6 0 1 1 0-21.2 10.6 10.6 0 0 1 0 21.2" fill="#CEE5D0E4"/><path d="M120.7 35.3a10.6 10.6 0 1 1 0-21.3 10.6 10.6 0 0 1 0 21.3" fill="#FF7777E5"/><path d="M-81.7-102.8a10.6 10.6 0 1 1 0-21.2 10.6 10.6 0 0 1 0 21.2" fill="#FF7777E5"/><path d="M50.6 27.8a10.7 10.7 0 1 1 0-21.4 10.7 10.7 0 0 1 0 21.4" fill="#CEE5D0E5"/><path d="M122.3-336.5a10.7 10.7 0 1 1 0-21.4 10.7 10.7 0 0 1 0 21.4" fill="#F3D5C0E6"/><path d="M-46.1-251.2a10.8 10.8 0 1 1 0-21.7 10.8 10.8 0 0 1 0 21.7" fill="#889EAFE9"/><path d="M192.9-2.8a10.8 10.8 0 1 1 0-21.7 10.8 10.8 0 0 1 0 21.7" fill="#F3D5C0E9"/><path d="M156.1 14.5a10.8 10.8 0 1 1 0-21.7 10.8 10.8 0 0 1 0 21.7" fill="#FF7878E9"/><path d="M231.9-36.3a10.8 10.8 0 1 1 0-21.6 10.8 10.8 0 0 1 0 21.6" fill="#D4B499E9"/><path d="M5.9-5.4a10.9 10.9 0 1 1 0-21.7 10.9 10.9 0 0 1 0 21.7" fill="#FF7878E9"/><path d="M132.6 14.9a10.9 10.9 0 1 1 0-21.9 10.9 10.9 0 0 1 0 21.9" fill="#D4B499EB"/><path d="M-51.1-84a11 11 0 1 1 0-21.9 11 11 0 0 1 0 21.9" fill="#506D84EC"/><path d="M263.2-139.8a11 11 0 1 1 0-22 11 11 0 0 1 0 22" fill="#F3D5C0EC"/><path d="M195.2-284a11 11 0 1 1 0-22 11 11 0 0 1 0 22" fill="#FF7878ED"/><path d="M117.2-303a11.1 11.1 0 1 1 0-22.2 11.1 11.1 0 0 1 0 22.2" fill="#506D84EF"/><path d="M29.4-285.2a11.1 11.1 0 1 1 0-22.3 11.1 11.1 0 0 1 0 22.3" fill="#889EAFEF"/><path d="M213.7-248.8a11.1 11.1 0 1 1 0-22.3 11.1 11.1 0 0 1 0 22.3" fill="#CEE5D0F0"/><path d="M-20.8-72.2a11.2 11.2 0 1 1 0-22.4 11.2 11.2 0 0 1 0 22.4" fill="#CEE5D0F1"/><path d="M109.6-294.5a11.2 11.2 0 1 1 0-22.4 11.2 11.2 0 0 1 0 22.4" fill="#889EAFF1"/><path d="M63.5-13.8a11.2 11.2 0 1 1 0-22.5 11.2 11.2 0 0 1 0 22.5" fill="#CEE5D0F1"/><path d="M170.9-28.7a11.2 11.2 0 1 1 0-22.4 11.2 11.2 0 0 1 0 22.4" fill="#506D84F2"/><path d="M4.4-51.6a11.3 11.3 0 1 1 0-22.5 11.3 11.3 0 0 1 0 22.5" fill="#889EAFF2"/><path d="M160.8-273.8a11.3 11.3 0 1 1 0-22.6 11.3 11.3 0 0 1 0 22.6" fill="#D4B499F2"/><path d="M96.1-280.2a11.3 11.3 0 1 1 0-22.7 11.3 11.3 0 0 1 0 22.7" fill="#D4B499F4"/><path d="M211.7-149.8a11.5 11.5 0 1 1 0-22.9 11.5 11.5 0 0 1 0 22.9" fill="#FF7878F7"/><path d="M211.5-144.4a11.5 11.5 0 1 1 0-23 11.5 11.5 0 0 1 0 23" fill="#889EAFF7"/><path d="M180.4-74.9a11.5 11.5 0 1 1 0-23 11.5 11.5 0 0 1 0 23" fill="#CEE5D0F7"/><path d="M115.9-42.1a11.5 11.5 0 1 1 0-22.9 11.5 11.5 0 0 1 0 22.9" fill="#889EAFF7"/><path d="M198-197.5a11.5 11.5 0 1 1 0-22.9 11.5 11.5 0 0 1 0 22.9" fill="#CEE5D0F7"/><path d="M201.7-123a11.5 11.5 0 1 1 0-23 11.5 11.5 0 0 1 0 23" fill="#506D84F8"/><path d="M97.6-51.6a11.5 11.5 0 1 1 0-23 11.5 11.5 0 0 1 0 23" fill="#506D84F8"/><path d="M33.4-83.2a11.6 11.6 0 1 1 0-23.2 11.6 11.6 0 0 1 0 23.2" fill="#CEE5D0F9"/><path d="M42.7-80.7a11.6 11.6 0 1 1 0-23.2 11.6 11.6 0 0 1 0 23.2" fill="#D4B499FA"/><path d="M46-218a11.6 11.6 0 1 1 0-23.3 11.6 11.6 0 0 1 0 23.3" fill="#D4B499FA"/><path d="M108.8-66.5a11.6 11.6 0 1 1 0-23.2 11.6 11.6 0 0 1 0 23.2" fill="#506D84FA"/><path d="M19.5-154a11.6 11.6 0 1 1 0-23.3 11.6 11.6 0 0 1 0 23.3" fill="#506D84FB"/><path d="M145.5-214.1a11.6 11.6 0 1 1 0-23.3 11.6 11.6 0 0 1 0 23.3" fill="#506D84FB"/><path d="M108.4-206.9a11.7 11.7 0 1 1 0-23.4 11.7 11.7 0 0 1 0 23.4" fill="#889EAFFD"/><path d="M82.3-129.1a11.8 11.8 0 1 1 0-23.6 11.8 11.8 0 0 1 0 23.6" fill="#889EAFFE"/><path d="M119.8-131.6a11.8 11.8 0 1 1 0-23.6 11.8 11.8 0 0 1 0 23.6" fill="#F3D5C0FE"/></g></svg>