<svg width="1200" height="675" viewBox="-500 -500 1200 675" xmlns="http://www.w3.org/2000/svg"><path d="M-500-500h1200v675h-1200z" fill="#000"/><style>.sparkles path{stroke-linecap:round; stroke-width:1}</style><g class="sparkles"><path d="M100-162.5l0.9-29.4" stroke="#fff50032"/><path d="M100-162.5l38.6-16.6" stroke="#c2e1ff32"/><path d="M100-162.5l-20.3 47.3" stroke="#c2e1ff33"/><path d="M100-162.5l26.3-45.6" stroke="#fff33"/><path d="M100-162.5l43.4-40.5" stroke="#fff33"/><path d="M100-162.5l-50.5-44.1" stroke="#fff34"/><path d="M100-162.5l9.5-70.9" stroke="#fff50034"/><path d="M100-162.5l-50.9 51" stroke="#005bbb34"/><path d="M100-162.5l63.7 48.9" stroke="#c2e1ff34"/><path d="M100-162.5l44.2-71.5" stroke="#c2e1ff35"/><path d="M100-162.5l3.1-89.4" stroke="#005bbb35"/><path d="M100-162.5l63.1 68.4" stroke="#fff36"/><path d="M100-162.5l91.8-29.4" stroke="#005bbb36"/><path d="M100-162.5l86.7-49.9" stroke="#fff50036"/><path d="M100-162.5l-102.7 25.8" stroke="#005bbb37"/><path d="M100-162.5l92.1-80.7" stroke="#005bbb39"/><path d="M100-162.5l81.9 92.9" stroke="#005bbb39"/><path d="M100-162.5l-72.7-100.4" stroke="#fff50039"/><path d="M100-162.5l124.3 0" stroke="#c2e1ff39"/><path d="M100-162.5l97.8-79.1" stroke="#005bbb39"/><path d="M100-162.5l-19.2 127.5" stroke="#005bbb3A"/><path d="M100-162.5l106.2 84.5" stroke="#c2e1ff3B"/><path d="M100-162.5l107.1-101.3" stroke="#005bbb3C"/><path d="M100-162.5l162-2.9" stroke="#005bbb3F"/><path d="M100-162.5l65.2-148.4" stroke="#fff3F"/><path d="M100-162.5l-142-87.3" stroke="#005bbb40"/><path d="M100-162.5l-69-157.2" stroke="#c2e1ff41"/><path d="M100-162.5l-149.9 85.7" stroke="#fff50041"/><path d="M100-162.5l-144.6-95.2" stroke="#fff41"/><path d="M100-162.5l-72.8 157.8" stroke="#c2e1ff42"/><path d="M100-162.5l136.6-108.3" stroke="#c2e1ff42"/><path d="M100-162.5l-79.8 155.6" stroke="#c2e1ff42"/><path d="M100-162.5l177.4 6.9" stroke="#c2e1ff43"/><path d="M100-162.5l67.4 165.2" stroke="#fff50043"/><path d="M100-162.5l74.8 162.6" stroke="#c2e1ff43"/><path d="M100-162.5l3.1 179.6" stroke="#fff43"/><path d="M100-162.5l-106.6 145.7" stroke="#fff50043"/><path d="M100-162.5l-169.5-65.1" stroke="#c2e1ff44"/><path d="M100-162.5l138.1 118.4" stroke="#005bbb44"/><path d="M100-162.5l-143.4 119.6" stroke="#005bbb45"/><path d="M100-162.5l-90.8-164" stroke="#005bbb45"/><path d="M100-162.5l173 83.4" stroke="#c2e1ff46"/><path d="M100-162.5l174.6-80.6" stroke="#c2e1ff46"/><path d="M100-162.5l-155.6-115.4" stroke="#fff47"/><path d="M100-162.5l57.1 187.5" stroke="#c2e1ff48"/><path d="M100-162.5l195.8-10" stroke="#005bbb48"/><path d="M100-162.5l-112.5-161.1" stroke="#fff50048"/><path d="M100-162.5l-107.3 168" stroke="#fff49"/><path d="M100-162.5l-201.7-6.9" stroke="#005bbb49"/><path d="M100-162.5l-175.3-100" stroke="#005bbb4A"/><path d="M100-162.5l-74.3 187.8" stroke="#fff5004A"/><path d="M100-162.5l146.2-152.8" stroke="#fff4D"/><path d="M100-162.5l-66 201.5" stroke="#fff5004D"/><path d="M100-162.5l-40.4-210.8" stroke="#005bbb4F"/><path d="M100-162.5l174.2-125.6" stroke="#c2e1ff4F"/><path d="M100-162.5l-189.7-107.1" stroke="#005bbb50"/><path d="M100-162.5l-60.9-211.5" stroke="#fff50051"/><path d="M100-162.5l-122.7-183.1" stroke="#005bbb52"/><path d="M100-162.5l-45.6-216" stroke="#005bbb52"/><path d="M100-162.5l-109.6-192" stroke="#c2e1ff52"/><path d="M100-162.5l-204.2-85" stroke="#fff50052"/><path d="M100-162.5l-84 207.9" stroke="#fff54"/><path d="M100-162.5l194.2 112.3" stroke="#fff54"/><path d="M100-162.5l-202.8 104.9" stroke="#fff50057"/><path d="M100-162.5l0.3 228.8" stroke="#fff57"/><path d="M100-162.5l-198.7-114.2" stroke="#c2e1ff57"/><path d="M100-162.5l101.9 206.3" stroke="#fff50058"/><path d="M100-162.5l-125.1 194.4" stroke="#c2e1ff59"/><path d="M100-162.5l-66.1-221.7" stroke="#005bbb59"/><path d="M100-162.5l211 94.9" stroke="#c2e1ff59"/><path d="M100-162.5l197.8-120.6" stroke="#c2e1ff5A"/><path d="M100-162.5l99.4-211.5" stroke="#fff5005C"/><path d="M100-162.5l225.9 63.1" stroke="#fff5005E"/><path d="M100-162.5l178.4 152.6" stroke="#fff5E"/><path d="M100-162.5l151.5-179.7" stroke="#005bbb5E"/><path d="M100-162.5l200.9 122.3" stroke="#c2e1ff5F"/><path d="M100-162.5l-190.4-138.2" stroke="#fff5005F"/><path d="M100-162.5l13.8-235.1" stroke="#c2e1ff60"/><path d="M100-162.5l-207-112.5" stroke="#005bbb60"/><path d="M100-162.5l-161.6-171.6" stroke="#005bbb60"/><path d="M100-162.5l-199-126.7" stroke="#fff61"/><path d="M100-162.5l-229.9-53.7" stroke="#005bbb62"/><path d="M100-162.5l35.7 233.5" stroke="#005bbb62"/><path d="M100-162.5l-23.9 235" stroke="#005bbb63"/><path d="M100-162.5l137.7 192" stroke="#fff63"/><path d="M100-162.5l235.2 22.1" stroke="#fff63"/><path d="M100-162.5l174.5-159.3" stroke="#fff64"/><path d="M100-162.5l132.8-195.3" stroke="#c2e1ff65"/><path d="M100-162.5l-224.7-72" stroke="#005bbb66"/><path d="M100-162.5l-66.3-226.4" stroke="#c2e1ff66"/><path d="M100-162.5l-151.6-180.6" stroke="#fff50067"/><path d="M100-162.5l178.8-153.2" stroke="#c2e1ff68"/><path d="M100-162.5l-186.6-143.3" stroke="#c2e1ff68"/><path d="M100-162.5l199.9 123.9" stroke="#005bbb68"/><path d="M100-162.5l223.6-70.8" stroke="#c2e1ff69"/><path d="M100-162.5l98.2-213" stroke="#fff50069"/><path d="M100-162.5l-210.8-102.4" stroke="#005bbb6A"/><path d="M100-162.5l29.9-232.2" stroke="#c2e1ff6A"/><path d="M100-162.5l-12.2 233.5" stroke="#005bbb6B"/><path d="M100-162.5l-215.5 90.8" stroke="#fff6B"/><path d="M100-162.5l-233.6 7.7" stroke="#c2e1ff6B"/><path d="M100-162.5l-199.2-122" stroke="#005bbb6B"/><path d="M100-162.5l-42.8-229.6" stroke="#c2e1ff6B"/><path d="M100-162.5l69.3-222.2" stroke="#fff5006C"/><path d="M100-162.5l-95.9 211.1" stroke="#fff5006D"/><path d="M100-162.5l139-185" stroke="#c2e1ff6E"/><path d="M100-162.5l50.1 224" stroke="#005bbb6F"/><path d="M100-162.5l-95.6 208.5" stroke="#fff5006F"/><path d="M100-162.5l136.8 184.1" stroke="#fff70"/><path d="M100-162.5l221.8 57.9" stroke="#fff70"/><path d="M100-162.5l117.6-196.5" stroke="#fff70"/><path d="M100-162.5l-227.4 25.4" stroke="#fff70"/><path d="M100-162.5l37.6-225.1" stroke="#fff70"/><path d="M100-162.5l198.6 110.6" stroke="#fff71"/><path d="M100-162.5l-68-215.8" stroke="#005bbb72"/><path d="M100-162.5l159.4 160.2" stroke="#fff72"/><path d="M100-162.5l-216-65.9" stroke="#fff50072"/><path d="M100-162.5l-225.1-8.7" stroke="#fff50073"/><path d="M100-162.5l-205.7 90" stroke="#c2e1ff73"/><path d="M100-162.5l-212-62.8" stroke="#c2e1ff75"/><path d="M100-162.5l-41.5 216.1" stroke="#fff76"/><path d="M100-162.5l206.8 69.8" stroke="#c2e1ff77"/><path d="M100-162.5l-216.7 26" stroke="#fff77"/><path d="M100-162.5l-112-183.1" stroke="#005bbb78"/><path d="M100-162.5l148-153.7" stroke="#fff79"/><path d="M100-162.5l-212.2 13.1" stroke="#fff79"/><path d="M100-162.5l154.8 145.4" stroke="#fff50079"/><path d="M100-162.5l119.8 174.9" stroke="#fff5007A"/><path d="M100-162.5l-202.1-57.1" stroke="#005bbb7A"/><path d="M100-162.5l-16.8-209" stroke="#005bbb7B"/><path d="M100-162.5l165.8-124.7" stroke="#005bbb7B"/><path d="M100-162.5l-194-64.5" stroke="#c2e1ff7D"/><path d="M100-162.5l180.1-96.4" stroke="#005bbb7D"/><path d="M100-162.5l-97.2 176.1" stroke="#c2e1ff7E"/><path d="M100-162.5l-42.7 196.4" stroke="#fff7E"/><path d="M100-162.5l83.5-182" stroke="#fff7E"/><path d="M100-162.5l-100.6 172.2" stroke="#c2e1ff7E"/><path d="M100-162.5l-41.4 192.2" stroke="#fff5007F"/><path d="M100-162.5l-168.1 100.8" stroke="#005bbb7F"/><path d="M100-162.5l-180.9 62.7" stroke="#005bbb81"/><path d="M100-162.5l111 154.3" stroke="#005bbb81"/><path d="M100-162.5l185.5 39.6" stroke="#005bbb81"/><path d="M100-162.5l186.8-13.3" stroke="#005bbb82"/><path d="M100-162.5l101.1 156.8" stroke="#005bbb82"/><path d="M100-162.5l126 134.2" stroke="#005bbb83"/><path d="M100-162.5l174.5-51.9" stroke="#fff50083"/><path d="M100-162.5l150.9-97.1" stroke="#fff84"/><path d="M100-162.5l0.8-178.2" stroke="#c2e1ff84"/><path d="M100-162.5l173.4 31.1" stroke="#fff85"/><path d="M100-162.5l174.6 11.3" stroke="#c2e1ff85"/><path d="M100-162.5l139.9 103.1" stroke="#fff85"/><path d="M100-162.5l-165.7 52.2" stroke="#fff50085"/><path d="M100-162.5l39.3-168.3" stroke="#fff86"/><path d="M100-162.5l-108.4 133.9" stroke="#005bbb86"/><path d="M100-162.5l104.5 134" stroke="#005bbb86"/><path d="M100-162.5l-1.3-168.2" stroke="#fff50087"/><path d="M100-162.5l-29.9-161.2" stroke="#fff50088"/><path d="M100-162.5l-97.3 131" stroke="#005bbb88"/><path d="M100-162.5l72.8-144.9" stroke="#fff88"/><path d="M100-162.5l70.6 145.2" stroke="#fff50088"/><path d="M100-162.5l-77.2-139.9" stroke="#fff88"/><path d="M100-162.5l157.1-24.7" stroke="#005bbb88"/><path d="M100-162.5l132.8-84.5" stroke="#fff89"/><path d="M100-162.5l147.5 54.2" stroke="#fff50089"/><path d="M100-162.5l-83.1-131.1" stroke="#c2e1ff89"/><path d="M100-162.5l-90.2 124.7" stroke="#c2e1ff89"/><path d="M100-162.5l-69.2-137.2" stroke="#c2e1ff89"/><path d="M100-162.5l133.5 70.2" stroke="#c2e1ff8A"/><path d="M100-162.5l146.7 14.2" stroke="#005bbb8B"/><path d="M100-162.5l131 33.8" stroke="#fff5008C"/><path d="M100-162.5l44.8-125.2" stroke="#fff5008D"/><path d="M100-162.5l-85.1 99.8" stroke="#005bbb8D"/><path d="M100-162.5l-18.8-126.3" stroke="#c2e1ff8E"/><path d="M100-162.5l28.3 112.7" stroke="#fff5008F"/><path d="M100-162.5l-16.3-110.5" stroke="#005bbb90"/><path d="M100-162.5l-90.4-55.7" stroke="#005bbb90"/><path d="M100-162.5l72.3 71.3" stroke="#fff50091"/><path d="M100-162.5l100.4 7.3" stroke="#c2e1ff91"/><path d="M100-162.5l-60.2-21.1" stroke="#fff94"/><path d="M100-162.5l57.5 4.9" stroke="#fff50094"/><path d="M100-162.5l-32.3 42.8" stroke="#005bbb94"/></g><g class="sparcs"><path d="M100.9-186a5.9 5.9 0 1 1 0-11.8 5.9 5.9 0 0 1 0 11.8" fill="#fff7D"/><path d="M138.6-173.2a6 6 0 1 1 0-11.9 6 6 0 0 1 0 11.9" fill="#c2e1ff7E"/><path d="M79.7-109.3a6 6 0 1 1 0-11.9 6 6 0 0 1 0 11.9" fill="#fff7E"/><path d="M126.3-202.1a6 6 0 1 1 0-11.9 6 6 0 0 1 0 11.9" fill="#005bbb7E"/><path d="M143.4-197a6 6 0 1 1 0-12 6 6 0 0 1 0 12" fill="#fff7F"/><path d="M49.5-200.6a6 6 0 1 1 0-12 6 6 0 0 1 0 12" fill="#fff7F"/><path d="M109.5-227.3a6 6 0 1 1 0-12.1 6 6 0 0 1 0 12.1" fill="#fff80"/><path d="M49.1-105.4a6 6 0 1 1 0-12.1 6 6 0 0 1 0 12.1" fill="#fff80"/><path d="M163.7-107.5a6.1 6.1 0 1 1 0-12.2 6.1 6.1 0 0 1 0 12.2" fill="#fff50080"/><path d="M144.2-227.9a6.1 6.1 0 1 1 0-12.2 6.1 6.1 0 0 1 0 12.2" fill="#c2e1ff81"/><path d="M103.1-245.8a6.1 6.1 0 1 1 0-12.3 6.1 6.1 0 0 1 0 12.3" fill="#fff81"/><path d="M163.1-87.9a6.1 6.1 0 1 1 0-12.3 6.1 6.1 0 0 1 0 12.3" fill="#fff82"/><path d="M191.8-185.7a6.2 6.2 0 1 1 0-12.4 6.2 6.2 0 0 1 0 12.4" fill="#fff50082"/><path d="M186.7-206.2a6.2 6.2 0 1 1 0-12.4 6.2 6.2 0 0 1 0 12.4" fill="#005bbb83"/><path d="M-2.7-130.5a6.2 6.2 0 1 1 0-12.4 6.2 6.2 0 0 1 0 12.4" fill="#005bbb83"/><path d="M192.1-236.9a6.3 6.3 0 1 1 0-12.6 6.3 6.3 0 0 1 0 12.6" fill="#fff50086"/><path d="M181.9-63.2a6.3 6.3 0 1 1 0-12.7 6.3 6.3 0 0 1 0 12.7" fill="#fff50086"/><path d="M27.3-256.6a6.3 6.3 0 1 1 0-12.7 6.3 6.3 0 0 1 0 12.7" fill="#c2e1ff86"/><path d="M224.3-156.2a6.3 6.3 0 1 1 0-12.6 6.3 6.3 0 0 1 0 12.6" fill="#005bbb86"/><path d="M197.8-235.2a6.4 6.4 0 1 1 0-12.8 6.4 6.4 0 0 1 0 12.8" fill="#005bbb86"/><path d="M80.8-28.6a6.4 6.4 0 1 1 0-12.8 6.4 6.4 0 0 1 0 12.8" fill="#fff87"/><path d="M206.2-71.6a6.4 6.4 0 1 1 0-12.9 6.4 6.4 0 0 1 0 12.9" fill="#fff50088"/><path d="M207.1-257.3a6.6 6.6 0 1 1 0-13.1 6.6 6.6 0 0 1 0 13.1" fill="#fff8B"/><path d="M262-158.7a6.7 6.7 0 1 1 0-13.4 6.7 6.7 0 0 1 0 13.4" fill="#005bbb8E"/><path d="M165.2-304.2a6.7 6.7 0 1 1 0-13.4 6.7 6.7 0 0 1 0 13.4" fill="#005bbb8E"/><path d="M-42-243.1a6.8 6.8 0 1 1 0-13.5 6.8 6.8 0 0 1 0 13.5" fill="#005bbb8F"/><path d="M31-312.9a6.8 6.8 0 1 1 0-13.6 6.8 6.8 0 0 1 0 13.6" fill="#c2e1ff91"/><path d="M-49.9-69.9a6.8 6.8 0 1 1 0-13.7 6.8 6.8 0 0 1 0 13.7" fill="#fff91"/><path d="M-44.6-250.9a6.8 6.8 0 1 1 0-13.7 6.8 6.8 0 0 1 0 13.7" fill="#fff91"/><path d="M27.2 2.1a6.9 6.9 0 1 1 0-13.7 6.9 6.9 0 0 1 0 13.7" fill="#c2e1ff91"/><path d="M236.6-264a6.9 6.9 0 1 1 0-13.7 6.9 6.9 0 0 1 0 13.7" fill="#fff50092"/><path d="M20.2 0a6.9 6.9 0 1 1 0-13.7 6.9 6.9 0 0 1 0 13.7" fill="#c2e1ff92"/><path d="M277.4-148.7a6.9 6.9 0 1 1 0-13.8 6.9 6.9 0 0 1 0 13.8" fill="#fff93"/><path d="M167.4 9.6a6.9 6.9 0 1 1 0-13.8 6.9 6.9 0 0 1 0 13.8" fill="#c2e1ff93"/><path d="M174.8 7a6.9 6.9 0 1 1 0-13.9 6.9 6.9 0 0 1 0 13.9" fill="#fff50093"/><path d="M103.1 24.1a6.9 6.9 0 1 1 0-13.9 6.9 6.9 0 0 1 0 13.9" fill="#c2e1ff93"/><path d="M-6.6-9.8a7 7 0 1 1 0-13.9 7 7 0 0 1 0 13.9" fill="#fff94"/><path d="M-69.5-220.6a7 7 0 1 1 0-14 7 7 0 0 1 0 14" fill="#c2e1ff94"/><path d="M238.1-37.1a7 7 0 1 1 0-14 7 7 0 0 1 0 14" fill="#005bbb94"/><path d="M-43.4-35.9a7.1 7.1 0 1 1 0-14.1 7.1 7.1 0 0 1 0 14.1" fill="#fff96"/><path d="M9.2-319.4a7.1 7.1 0 1 1 0-14.2 7.1 7.1 0 0 1 0 14.2" fill="#005bbb96"/><path d="M273-72a7.1 7.1 0 1 1 0-14.3 7.1 7.1 0 0 1 0 14.3" fill="#fff50098"/><path d="M274.6-236a7.1 7.1 0 1 1 0-14.3 7.1 7.1 0 0 1 0 14.3" fill="#c2e1ff98"/><path d="M-55.6-270.8a7.2 7.2 0 1 1 0-14.3 7.2 7.2 0 0 1 0 14.3" fill="#c2e1ff98"/><path d="M157.1 32.2a7.2 7.2 0 1 1 0-14.4 7.2 7.2 0 0 1 0 14.4" fill="#c2e1ff99"/><path d="M295.8-165.2a7.2 7.2 0 1 1 0-14.5 7.2 7.2 0 0 1 0 14.5" fill="#fff99"/><path d="M-12.5-316.4a7.2 7.2 0 1 1 0-14.4 7.2 7.2 0 0 1 0 14.4" fill="#005bbb99"/><path d="M-7.3 12.8a7.3 7.3 0 1 1 0-14.6 7.3 7.3 0 0 1 0 14.6" fill="#fff5009B"/><path d="M-101.7-162.1a7.3 7.3 0 1 1 0-14.6 7.3 7.3 0 0 1 0 14.6" fill="#c2e1ff9C"/><path d="M-75.3-255.1a7.3 7.3 0 1 1 0-14.7 7.3 7.3 0 0 1 0 14.7" fill="#c2e1ff9C"/><path d="M25.7 32.6a7.3 7.3 0 1 1 0-14.6 7.3 7.3 0 0 1 0 14.6" fill="#005bbb9C"/><path d="M246.2-307.8a7.5 7.5 0 1 1 0-15 7.5 7.5 0 0 1 0 15" fill="#005bbbA1"/><path d="M34 46.5a7.6 7.6 0 1 1 0-15.1 7.6 7.6 0 0 1 0 15.1" fill="#005bbbA1"/><path d="M59.6-365.7a7.6 7.6 0 1 1 0-15.2 7.6 7.6 0 0 1 0 15.2" fill="#fffA2"/><path d="M274.2-280.5a7.6 7.6 0 1 1 0-15.3 7.6 7.6 0 0 1 0 15.3" fill="#fff500A2"/><path d="M-89.7-261.9a7.7 7.7 0 1 1 0-15.5 7.7 7.7 0 0 1 0 15.5" fill="#fff500A4"/><path d="M39.1-366.2a7.8 7.8 0 1 1 0-15.6 7.8 7.8 0 0 1 0 15.6" fill="#fff500A6"/><path d="M-22.7-337.9a7.8 7.8 0 1 1 0-15.5 7.8 7.8 0 0 1 0 15.5" fill="#c2e1ffA6"/><path d="M54.4-370.7a7.8 7.8 0 1 1 0-15.6 7.8 7.8 0 0 1 0 15.6" fill="#c2e1ffA6"/><path d="M-9.6-346.7a7.8 7.8 0 1 1 0-15.7 7.8 7.8 0 0 1 0 15.7" fill="#fffA7"/><path d="M-104.2-239.7a7.8 7.8 0 1 1 0-15.6 7.8 7.8 0 0 1 0 15.6" fill="#fffA7"/><path d="M16 53.3a7.9 7.9 0 1 1 0-15.8 7.9 7.9 0 0 1 0 15.8" fill="#c2e1ffA9"/><path d="M294.2-42.3a7.9 7.9 0 1 1 0-15.9 7.9 7.9 0 0 1 0 15.9" fill="#c2e1ffA9"/><path d="M-102.8-49.5a8.1 8.1 0 1 1 0-16.2 8.1 8.1 0 0 1 0 16.2" fill="#fff500AD"/><path d="M100.3 74.5a8.1 8.1 0 1 1 0-16.3 8.1 8.1 0 0 1 0 16.3" fill="#c2e1ffAD"/><path d="M-98.7-268.6a8.1 8.1 0 1 1 0-16.3 8.1 8.1 0 0 1 0 16.3" fill="#005bbbAE"/><path d="M201.9 52a8.2 8.2 0 1 1 0-16.3 8.2 8.2 0 0 1 0 16.3" fill="#005bbbAF"/><path d="M-25.1 40.2a8.3 8.3 0 1 1 0-16.5 8.3 8.3 0 0 1 0 16.5" fill="#005bbbB0"/><path d="M33.9-376a8.3 8.3 0 1 1 0-16.5 8.3 8.3 0 0 1 0 16.5" fill="#fffB0"/><path d="M311-59.3a8.3 8.3 0 1 1 0-16.5 8.3 8.3 0 0 1 0 16.5" fill="#c2e1ffB0"/><path d="M297.8-274.8a8.3 8.3 0 1 1 0-16.6 8.3 8.3 0 0 1 0 16.6" fill="#fffB1"/><path d="M199.4-365.6a8.4 8.4 0 1 1 0-16.8 8.4 8.4 0 0 1 0 16.8" fill="#fffB4"/><path d="M325.9-90.9a8.5 8.5 0 1 1 0-17 8.5 8.5 0 0 1 0 17" fill="#c2e1ffB6"/><path d="M278.4-1.4a8.5 8.5 0 1 1 0-17 8.5 8.5 0 0 1 0 17" fill="#fffB6"/><path d="M251.5-333.6a8.6 8.6 0 1 1 0-17.1 8.6 8.6 0 0 1 0 17.1" fill="#fffB7"/><path d="M300.9-31.7a8.6 8.6 0 1 1 0-17.1 8.6 8.6 0 0 1 0 17.1" fill="#c2e1ffB7"/><path d="M-90.4-292.1a8.6 8.6 0 1 1 0-17.2 8.6 8.6 0 0 1 0 17.2" fill="#fff500B8"/><path d="M113.8-389a8.6 8.6 0 1 1 0-17.3 8.6 8.6 0 0 1 0 17.3" fill="#c2e1ffB8"/><path d="M-107-266.4a8.6 8.6 0 1 1 0-17.3 8.6 8.6 0 0 1 0 17.3" fill="#c2e1ffB9"/><path d="M-61.6-325.4a8.7 8.7 0 1 1 0-17.3 8.7 8.7 0 0 1 0 17.3" fill="#fffB9"/><path d="M-99-280.5a8.7 8.7 0 1 1 0-17.4 8.7 8.7 0 0 1 0 17.4" fill="#005bbbBA"/><path d="M-129.9-207.5a8.7 8.7 0 1 1 0-17.5 8.7 8.7 0 0 1 0 17.5" fill="#c2e1ffBB"/><path d="M135.7 79.7a8.8 8.8 0 1 1 0-17.5 8.8 8.8 0 0 1 0 17.5" fill="#fffBC"/><path d="M76.1 81.3a8.8 8.8 0 1 1 0-17.6 8.8 8.8 0 0 1 0 17.6" fill="#fffBC"/><path d="M237.7 38.3a8.8 8.8 0 1 1 0-17.6 8.8 8.8 0 0 1 0 17.6" fill="#c2e1ffBD"/><path d="M335.2-131.6a8.8 8.8 0 1 1 0-17.6 8.8 8.8 0 0 1 0 17.6" fill="#fffBD"/><path d="M274.5-312.9a8.9 8.9 0 1 1 0-17.8 8.9 8.9 0 0 1 0 17.8" fill="#c2e1ffBE"/><path d="M232.8-348.9a8.9 8.9 0 1 1 0-17.9 8.9 8.9 0 0 1 0 17.9" fill="#c2e1ffBF"/><path d="M-124.7-225.5a9 9 0 1 1 0-18 9 9 0 0 1 0 18" fill="#fffC1"/><path d="M33.7-379.8a9 9 0 1 1 0-18.1 9 9 0 0 1 0 18.1" fill="#005bbbC1"/><path d="M-51.6-334a9.1 9.1 0 1 1 0-18.1 9.1 9.1 0 0 1 0 18.1" fill="#c2e1ffC2"/><path d="M278.8-306.6a9.1 9.1 0 1 1 0-18.2 9.1 9.1 0 0 1 0 18.2" fill="#005bbbC3"/><path d="M-86.6-296.7a9.1 9.1 0 1 1 0-18.3 9.1 9.1 0 0 1 0 18.3" fill="#005bbbC3"/><path d="M299.9-29.4a9.1 9.1 0 1 1 0-18.3 9.1 9.1 0 0 1 0 18.3" fill="#fffC4"/><path d="M323.6-224.1a9.2 9.2 0 1 1 0-18.5 9.2 9.2 0 0 1 0 18.5" fill="#c2e1ffC5"/><path d="M198.2-366.3a9.2 9.2 0 1 1 0-18.4 9.2 9.2 0 0 1 0 18.4" fill="#fff500C5"/><path d="M-110.8-255.6a9.2 9.2 0 1 1 0-18.5 9.2 9.2 0 0 1 0 18.5" fill="#c2e1ffC6"/><path d="M129.9-385.5a9.3 9.3 0 1 1 0-18.5 9.3 9.3 0 0 1 0 18.5" fill="#c2e1ffC6"/><path d="M87.8 80.3a9.3 9.3 0 1 1 0-18.6 9.3 9.3 0 0 1 0 18.6" fill="#c2e1ffC7"/><path d="M-115.5-62.4a9.3 9.3 0 1 1 0-18.6 9.3 9.3 0 0 1 0 18.6" fill="#fffC7"/><path d="M-133.6-145.5a9.3 9.3 0 1 1 0-18.6 9.3 9.3 0 0 1 0 18.6" fill="#fffC7"/><path d="M-99.2-275.2a9.3 9.3 0 1 1 0-18.6 9.3 9.3 0 0 1 0 18.6" fill="#fff500C7"/><path d="M57.2-382.8a9.3 9.3 0 1 1 0-18.6 9.3 9.3 0 0 1 0 18.6" fill="#005bbbC7"/><path d="M169.3-375.3a9.4 9.4 0 1 1 0-18.7 9.4 9.4 0 0 1 0 18.7" fill="#fff500C9"/><path d="M4.1 58a9.4 9.4 0 1 1 0-18.8 9.4 9.4 0 0 1 0 18.8" fill="#005bbbCA"/><path d="M239-338a9.5 9.5 0 1 1 0-18.9 9.5 9.5 0 0 1 0 18.9" fill="#fff500CB"/><path d="M150.1 71.1a9.6 9.6 0 1 1 0-19.1 9.6 9.6 0 0 1 0 19.1" fill="#005bbbCD"/><path d="M4.4 55.6a9.6 9.6 0 1 1 0-19.1 9.6 9.6 0 0 1 0 19.1" fill="#fff500CD"/><path d="M236.8 31.1a9.6 9.6 0 1 1 0-19.1 9.6 9.6 0 0 1 0 19.1" fill="#fffCD"/><path d="M321.8-95a9.6 9.6 0 1 1 0-19.1 9.6 9.6 0 0 1 0 19.1" fill="#fffCD"/><path d="M217.6-349.4a9.6 9.6 0 1 1 0-19.2 9.6 9.6 0 0 1 0 19.2" fill="#c2e1ffCE"/><path d="M-127.4-127.5a9.6 9.6 0 1 1 0-19.2 9.6 9.6 0 0 1 0 19.2" fill="#005bbbCE"/><path d="M137.6-378a9.6 9.6 0 1 1 0-19.3 9.6 9.6 0 0 1 0 19.3" fill="#fff500CE"/><path d="M298.6-42.2a9.7 9.7 0 1 1 0-19.3 9.7 9.7 0 0 1 0 19.3" fill="#c2e1ffCF"/><path d="M32-368.6a9.7 9.7 0 1 1 0-19.4 9.7 9.7 0 0 1 0 19.4" fill="#005bbbD0"/><path d="M259.4 7.5a9.7 9.7 0 1 1 0-19.5 9.7 9.7 0 0 1 0 19.5" fill="#fffD0"/><path d="M-116-218.7a9.7 9.7 0 1 1 0-19.4 9.7 9.7 0 0 1 0 19.4" fill="#fff500D1"/><path d="M-125.1-161.4a9.8 9.8 0 1 1 0-19.5 9.8 9.8 0 0 1 0 19.5" fill="#fffD1"/><path d="M-105.7-62.8a9.8 9.8 0 1 1 0-19.5 9.8 9.8 0 0 1 0 19.5" fill="#fffD2"/><path d="M-112-215.4a9.9 9.9 0 1 1 0-19.8 9.9 9.9 0 0 1 0 19.8" fill="#005bbbD4"/><path d="M58.5 63.5a9.9 9.9 0 1 1 0-19.9 9.9 9.9 0 0 1 0 19.9" fill="#fffD5"/><path d="M306.8-82.7a10 10 0 1 1 0-19.9 10 10 0 0 1 0 19.9" fill="#fff500D6"/><path d="M-116.7-126.5a10 10 0 1 1 0-20 10 10 0 0 1 0 20" fill="#fffD6"/><path d="M-12-335.5a10.1 10.1 0 1 1 0-20.2 10.1 10.1 0 0 1 0 20.2" fill="#c2e1ffD9"/><path d="M248-306.1a10.1 10.1 0 1 1 0-20.2 10.1 10.1 0 0 1 0 20.2" fill="#fff500D9"/><path d="M-112.2-139.2a10.1 10.1 0 1 1 0-20.3 10.1 10.1 0 0 1 0 20.3" fill="#005bbbDA"/><path d="M254.8-6.9a10.2 10.2 0 1 1 0-20.3 10.2 10.2 0 0 1 0 20.3" fill="#c2e1ffDA"/><path d="M219.8 22.5a10.2 10.2 0 1 1 0-20.3 10.2 10.2 0 0 1 0 20.3" fill="#fffDA"/><path d="M-102.1-209.4a10.2 10.2 0 1 1 0-20.4 10.2 10.2 0 0 1 0 20.4" fill="#fff500DB"/><path d="M83.2-361.3a10.2 10.2 0 1 1 0-20.4 10.2 10.2 0 0 1 0 20.4" fill="#fffDB"/><path d="M265.8-277a10.3 10.3 0 1 1 0-20.5 10.3 10.3 0 0 1 0 20.5" fill="#fffDD"/><path d="M-94-216.7a10.3 10.3 0 1 1 0-20.7 10.3 10.3 0 0 1 0 20.7" fill="#fff500DE"/><path d="M280.1-248.6a10.3 10.3 0 1 1 0-20.7 10.3 10.3 0 0 1 0 20.7" fill="#c2e1ffDE"/><path d="M2.8 24a10.4 10.4 0 1 1 0-20.8 10.4 10.4 0 0 1 0 20.8" fill="#fff500E0"/><path d="M57.3 44.3a10.4 10.4 0 1 1 0-20.8 10.4 10.4 0 0 1 0 20.8" fill="#fff500E0"/><path d="M183.5-334a10.4 10.4 0 1 1 0-20.9 10.4 10.4 0 0 1 0 20.9" fill="#c2e1ffE0"/><path d="M-0.6 20.2a10.4 10.4 0 1 1 0-20.9 10.4 10.4 0 0 1 0 20.9" fill="#fffE0"/><path d="M58.6 40.2a10.5 10.5 0 1 1 0-21 10.5 10.5 0 0 1 0 21" fill="#fffE2"/><path d="M-68.1-51.2a10.5 10.5 0 1 1 0-21 10.5 10.5 0 0 1 0 21" fill="#fff500E2"/><path d="M-80.9-89.2a10.6 10.6 0 1 1 0-21.2 10.6 10.6 0 0 1 0 21.2" fill="#005bbbE4"/><path d="M211 2.4a10.6 10.6 0 1 1 0-21.3 10.6 10.6 0 0 1 0 21.3" fill="#005bbbE4"/><path d="M285.5-112.3a10.6 10.6 0 1 1 0-21.3 10.6 10.6 0 0 1 0 21.3" fill="#fffE4"/><path d="M286.8-165.1a10.7 10.7 0 1 1 0-21.3 10.7 10.7 0 0 1 0 21.3" fill="#005bbbE5"/><path d="M201.1 4.9a10.7 10.7 0 1 1 0-21.3 10.7 10.7 0 0 1 0 21.3" fill="#c2e1ffE5"/><path d="M226-17.6a10.7 10.7 0 1 1 0-21.4 10.7 10.7 0 0 1 0 21.4" fill="#fff500E6"/><path d="M274.5-203.6a10.7 10.7 0 1 1 0-21.5 10.7 10.7 0 0 1 0 21.5" fill="#fffE7"/><path d="M250.9-248.9a10.8 10.8 0 1 1 0-21.5 10.8 10.8 0 0 1 0 21.5" fill="#005bbbE8"/><path d="M100.8-329.9a10.8 10.8 0 1 1 0-21.6 10.8 10.8 0 0 1 0 21.6" fill="#005bbbE8"/><path d="M273.4-120.6a10.8 10.8 0 1 1 0-21.7 10.8 10.8 0 0 1 0 21.7" fill="#005bbbE9"/><path d="M274.6-140.3a10.8 10.8 0 1 1 0-21.7 10.8 10.8 0 0 1 0 21.7" fill="#c2e1ffE9"/><path d="M239.9-48.5a10.9 10.9 0 1 1 0-21.7 10.9 10.9 0 0 1 0 21.7" fill="#fff500EA"/><path d="M-65.7-99.5a10.9 10.9 0 1 1 0-21.7 10.9 10.9 0 0 1 0 21.7" fill="#fffEA"/><path d="M139.3-319.9a10.9 10.9 0 1 1 0-21.8 10.9 10.9 0 0 1 0 21.8" fill="#c2e1ffEA"/><path d="M-8.4-17.8a10.9 10.9 0 1 1 0-21.7 10.9 10.9 0 0 1 0 21.7" fill="#fffEA"/><path d="M204.5-17.6a10.9 10.9 0 1 1 0-21.8 10.9 10.9 0 0 1 0 21.8" fill="#005bbbEB"/><path d="M98.7-319.8a10.9 10.9 0 1 1 0-21.8 10.9 10.9 0 0 1 0 21.8" fill="#fff500EB"/><path d="M70.1-312.7a11 11 0 1 1 0-21.9 11 11 0 0 1 0 21.9" fill="#c2e1ffEC"/><path d="M2.7-20.5a11 11 0 1 1 0-22 11 11 0 0 1 0 22" fill="#c2e1ffED"/><path d="M172.8-296.4a11 11 0 1 1 0-22 11 11 0 0 1 0 22" fill="#fff500ED"/><path d="M170.6-6.3a11 11 0 1 1 0-22 11 11 0 0 1 0 22" fill="#c2e1ffED"/><path d="M22.8-291.4a11 11 0 1 1 0-22 11 11 0 0 1 0 22" fill="#fffED"/><path d="M257.1-176.2a11 11 0 1 1 0-22.1 11 11 0 0 1 0 22.1" fill="#fff500EE"/><path d="M232.8-235.9a11.1 11.1 0 1 1 0-22.2 11.1 11.1 0 0 1 0 22.2" fill="#fff500EE"/><path d="M247.5-97.3a11.1 11.1 0 1 1 0-22.1 11.1 11.1 0 0 1 0 22.1" fill="#fffEE"/><path d="M16.9-282.6a11.1 11.1 0 1 1 0-22.1 11.1 11.1 0 0 1 0 22.1" fill="#005bbbEE"/><path d="M9.8-26.7a11.1 11.1 0 1 1 0-22.2 11.1 11.1 0 0 1 0 22.2" fill="#005bbbEF"/><path d="M30.8-288.6a11.1 11.1 0 1 1 0-22.2 11.1 11.1 0 0 1 0 22.2" fill="#005bbbEF"/><path d="M233.5-81.2a11.1 11.1 0 1 1 0-22.3 11.1 11.1 0 0 1 0 22.3" fill="#005bbbF0"/><path d="M246.7-137.1a11.2 11.2 0 1 1 0-22.3 11.2 11.2 0 0 1 0 22.3" fill="#fff500F0"/><path d="M231-117.4a11.3 11.3 0 1 1 0-22.6 11.3 11.3 0 0 1 0 22.6" fill="#fff500F3"/><path d="M144.8-276.4a11.3 11.3 0 1 1 0-22.6 11.3 11.3 0 0 1 0 22.6" fill="#c2e1ffF3"/><path d="M14.9-51.4a11.3 11.3 0 1 1 0-22.6 11.3 11.3 0 0 1 0 22.6" fill="#fff500F4"/><path d="M81.2-277.4a11.3 11.3 0 1 1 0-22.7 11.3 11.3 0 0 1 0 22.7" fill="#c2e1ffF4"/><path d="M128.3-38.3a11.4 11.4 0 1 1 0-22.9 11.4 11.4 0 0 1 0 22.9" fill="#fffF6"/><path d="M83.7-261.5a11.5 11.5 0 1 1 0-22.9 11.5 11.5 0 0 1 0 22.9" fill="#fff500F7"/><path d="M9.6-206.7a11.5 11.5 0 1 1 0-22.9 11.5 11.5 0 0 1 0 22.9" fill="#c2e1ffF8"/><path d="M172.3-79.7a11.5 11.5 0 1 1 0-23 11.5 11.5 0 0 1 0 23" fill="#005bbbF8"/><path d="M200.4-143.7a11.5 11.5 0 1 1 0-23.1 11.5 11.5 0 0 1 0 23.1" fill="#c2e1ffF8"/><path d="M39.8-171.9a11.7 11.7 0 1 1 0-23.4 11.7 11.7 0 0 1 0 23.4" fill="#005bbbFC"/><path d="M157.5-145.8a11.7 11.7 0 1 1 0-23.5 11.7 11.7 0 0 1 0 23.5" fill="#fff500FD"/><path d="M67.7-108a11.7 11.7 0 1 1 0-23.5 11.7 11.7 0 0 1 0 23.5" fill="#fffFD"/></g></svg>