<svg width="1200" height="675" viewBox="-500 -500 1200 675" xmlns="http://www.w3.org/2000/svg"><path d="M-500-500h1200v675h-1200z" fill="#000"/><style>.sparkles path{stroke-linecap:round; stroke-width:1}</style><g class="sparkles"><path d="M100-162.5l21.3 17.6" stroke="#fff32"/><path d="M100-162.5l-35-14.3" stroke="#005bbb32"/><path d="M100-162.5l45.6 10.6" stroke="#fff32"/><path d="M100-162.5l-25 61.8" stroke="#fff50034"/><path d="M100-162.5l-63.4 38.2" stroke="#fff34"/><path d="M100-162.5l55.1 57" stroke="#fff34"/><path d="M100-162.5l86.2 21.2" stroke="#fff35"/><path d="M100-162.5l-88.4 16" stroke="#fff35"/><path d="M100-162.5l81.8 39.6" stroke="#fff50035"/><path d="M100-162.5l88.6 28.3" stroke="#fff50036"/><path d="M100-162.5l93.7-20" stroke="#fff36"/><path d="M100-162.5l-19.3 96.8" stroke="#005bbb36"/><path d="M100-162.5l62.5 78" stroke="#c2e1ff36"/><path d="M100-162.5l-77.8-69.1" stroke="#c2e1ff37"/><path d="M100-162.5l110.5-19.3" stroke="#005bbb37"/><path d="M100-162.5l-75.3-84.7" stroke="#fff38"/><path d="M100-162.5l104.7-52.3" stroke="#fff50038"/><path d="M100-162.5l97.3 75.5" stroke="#fff50039"/><path d="M100-162.5l-41.4-123.7" stroke="#fff5003A"/><path d="M100-162.5l75.2 114" stroke="#fff5003B"/><path d="M100-162.5l1.9 138.1" stroke="#005bbb3B"/><path d="M100-162.5l38 134.8" stroke="#c2e1ff3B"/><path d="M100-162.5l-128.6-65.9" stroke="#fff5003C"/><path d="M100-162.5l-92.8-111.3" stroke="#005bbb3C"/><path d="M100-162.5l137.5 57.5" stroke="#005bbb3D"/><path d="M100-162.5l139.3 53.5" stroke="#fff3D"/><path d="M100-162.5l-69.2-134.8" stroke="#c2e1ff3D"/><path d="M100-162.5l152.2-15.2" stroke="#fff3D"/><path d="M100-162.5l-133.5 87.1" stroke="#fff3F"/><path d="M100-162.5l-139.1-79" stroke="#fff5003F"/><path d="M100-162.5l160.3-22.1" stroke="#fff3F"/><path d="M100-162.5l122 106.3" stroke="#c2e1ff3F"/><path d="M100-162.5l160.3 41.9" stroke="#005bbb40"/><path d="M100-162.5l156.2-73.7" stroke="#fff50041"/><path d="M100-162.5l114.6 130.8" stroke="#fff50042"/><path d="M100-162.5l4.1-173.9" stroke="#fff50042"/><path d="M100-162.5l130.9 123.2" stroke="#fff50043"/><path d="M100-162.5l-181.1-9.1" stroke="#005bbb43"/><path d="M100-162.5l-23.4-182.3" stroke="#c2e1ff44"/><path d="M100-162.5l48.8-178.4" stroke="#fff44"/><path d="M100-162.5l-183 27.5" stroke="#005bbb44"/><path d="M100-162.5l-141-122.7" stroke="#fff45"/><path d="M100-162.5l-152.4-109.7" stroke="#fff45"/><path d="M100-162.5l-181.6 52.3" stroke="#c2e1ff45"/><path d="M100-162.5l-126.8-145.2" stroke="#fff47"/><path d="M100-162.5l-193.9 11.2" stroke="#c2e1ff47"/><path d="M100-162.5l-154.9-118.7" stroke="#005bbb47"/><path d="M100-162.5l-61.7 187.4" stroke="#fff48"/><path d="M100-162.5l113.7 161.9" stroke="#fff48"/><path d="M100-162.5l160.6 120.4" stroke="#005bbb49"/><path d="M100-162.5l-164.9-116.1" stroke="#005bbb49"/><path d="M100-162.5l-72.3-188.5" stroke="#fff5004A"/><path d="M100-162.5l30.8-199.7" stroke="#fff4A"/><path d="M100-162.5l-183.9 94.2" stroke="#fff4B"/><path d="M100-162.5l-184.5-93.3" stroke="#c2e1ff4B"/><path d="M100-162.5l181.1 106.8" stroke="#fff4D"/><path d="M100-162.5l-16.7 213" stroke="#c2e1ff4E"/><path d="M100-162.5l211-38.7" stroke="#005bbb4F"/><path d="M100-162.5l211.2-38.3" stroke="#c2e1ff4F"/><path d="M100-162.5l209.3 61.3" stroke="#c2e1ff50"/><path d="M100-162.5l-64-208.6" stroke="#005bbb50"/><path d="M100-162.5l188.3 112.8" stroke="#fff51"/><path d="M100-162.5l155.4-157.1" stroke="#fff52"/><path d="M100-162.5l-158-155.6" stroke="#005bbb52"/><path d="M100-162.5l70.9 210.1" stroke="#c2e1ff52"/><path d="M100-162.5l-195.8 108.5" stroke="#fff53"/><path d="M100-162.5l183.7-128.8" stroke="#fff54"/><path d="M100-162.5l-42.8 221.2" stroke="#fff50054"/><path d="M100-162.5l168-151.8" stroke="#fff55"/><path d="M100-162.5l13.7-227" stroke="#005bbb56"/><path d="M100-162.5l-205.6 97.6" stroke="#fff56"/><path d="M100-162.5l185.7 134.1" stroke="#fff50057"/><path d="M100-162.5l-183.9-136.6" stroke="#005bbb57"/><path d="M100-162.5l-127.5 191.2" stroke="#005bbb58"/><path d="M100-162.5l-103.6-205.4" stroke="#fff50058"/><path d="M100-162.5l43.6 228.4" stroke="#fff5005B"/><path d="M100-162.5l203.8 112.3" stroke="#fff5B"/><path d="M100-162.5l-177.3 152.4" stroke="#fff5C"/><path d="M100-162.5l8 234.1" stroke="#c2e1ff5D"/><path d="M100-162.5l181-148.8" stroke="#fff5D"/><path d="M100-162.5l89.9 216.7" stroke="#fff5E"/><path d="M100-162.5l-229.5-49.8" stroke="#fff5E"/><path d="M100-162.5l-233.3-29.5" stroke="#fff5F"/><path d="M100-162.5l203.8-117.7" stroke="#fff5F"/><path d="M100-162.5l-159.5-173.6" stroke="#fff60"/><path d="M100-162.5l-54.8-229.5" stroke="#fff50061"/><path d="M100-162.5l-55.5-229.5" stroke="#c2e1ff62"/><path d="M100-162.5l163.1-170.7" stroke="#005bbb62"/><path d="M100-162.5l-40.5 232.6" stroke="#005bbb62"/><path d="M100-162.5l-228.3 60.8" stroke="#fff63"/><path d="M100-162.5l188.6-142.3" stroke="#c2e1ff63"/><path d="M100-162.5l115.4 206" stroke="#fff65"/><path d="M100-162.5l232.3 41.3" stroke="#fff50066"/><path d="M100-162.5l-227.6 61.1" stroke="#c2e1ff67"/><path d="M100-162.5l-226.2 65.1" stroke="#c2e1ff68"/><path d="M100-162.5l97.4 214.3" stroke="#fff50068"/><path d="M100-162.5l-66.2 225.6" stroke="#c2e1ff69"/><path d="M100-162.5l-222.3 74.5" stroke="#005bbb6A"/><path d="M100-162.5l-10.1-233.4" stroke="#fff6B"/><path d="M100-162.5l233.6 0" stroke="#c2e1ff6B"/><path d="M100-162.5l209.4-101.6" stroke="#005bbb6C"/><path d="M100-162.5l141.3-184.9" stroke="#fff6C"/><path d="M100-162.5l96.4 211.3" stroke="#c2e1ff6D"/><path d="M100-162.5l-36.6 229.2" stroke="#fff6D"/><path d="M100-162.5l-159.2 168.4" stroke="#c2e1ff6D"/><path d="M100-162.5l-102.6-206.3" stroke="#fff6F"/><path d="M100-162.5l-227.8-22.8" stroke="#005bbb70"/><path d="M100-162.5l39.9 224.2" stroke="#fff50071"/><path d="M100-162.5l-20.2-226" stroke="#fff50071"/><path d="M100-162.5l57.6-219.4" stroke="#fff50071"/><path d="M100-162.5l204.1-93.4" stroke="#fff73"/><path d="M100-162.5l-135.4 177" stroke="#fff74"/><path d="M100-162.5l-192.3 112.5" stroke="#fff50074"/><path d="M100-162.5l-219-38.9" stroke="#fff50074"/><path d="M100-162.5l7.8-222.3" stroke="#fff50074"/><path d="M100-162.5l-221.7 16" stroke="#fff74"/><path d="M100-162.5l-197.9 99.2" stroke="#fff50075"/><path d="M100-162.5l221-1.1" stroke="#c2e1ff75"/><path d="M100-162.5l203.4-83.8" stroke="#fff76"/><path d="M100-162.5l-7.7 219.4" stroke="#c2e1ff76"/><path d="M100-162.5l-197.6-94.4" stroke="#fff50076"/><path d="M100-162.5l-80.5 200.5" stroke="#005bbb78"/><path d="M100-162.5l64.2-205.6" stroke="#fff50078"/><path d="M100-162.5l-198.4 82.8" stroke="#c2e1ff78"/><path d="M100-162.5l-213.5-18.1" stroke="#fff50079"/><path d="M100-162.5l29.2 209.5" stroke="#c2e1ff7A"/><path d="M100-162.5l53.3-203.1" stroke="#005bbb7A"/><path d="M100-162.5l-77.2 194.4" stroke="#fff7B"/><path d="M100-162.5l-122.5-169.4" stroke="#005bbb7B"/><path d="M100-162.5l-5.9 208.9" stroke="#005bbb7B"/><path d="M100-162.5l116.3-172" stroke="#005bbb7B"/><path d="M100-162.5l-199.5-57.4" stroke="#fff7B"/><path d="M100-162.5l-15-206.4" stroke="#c2e1ff7C"/><path d="M100-162.5l-168.2 119.7" stroke="#c2e1ff7C"/><path d="M100-162.5l122.5-165.7" stroke="#fff7C"/><path d="M100-162.5l34.2-203.2" stroke="#fff5007C"/><path d="M100-162.5l-170.8 114.7" stroke="#fff7C"/><path d="M100-162.5l197.3 58.2" stroke="#005bbb7C"/><path d="M100-162.5l108.4 174.8" stroke="#fff5007C"/><path d="M100-162.5l-141.5-147.1" stroke="#fff7D"/><path d="M100-162.5l202.4 5.9" stroke="#fff5007D"/><path d="M100-162.5l-200.7-22" stroke="#005bbb7D"/><path d="M100-162.5l65.2 185.5" stroke="#c2e1ff7F"/><path d="M100-162.5l-57.3-187.6" stroke="#005bbb7F"/><path d="M100-162.5l-69-181.8" stroke="#c2e1ff80"/><path d="M100-162.5l86.7 171.6" stroke="#c2e1ff81"/><path d="M100-162.5l122-148.5" stroke="#fff81"/><path d="M100-162.5l111.6 152.9" stroke="#005bbb81"/><path d="M100-162.5l55.2-176.6" stroke="#fff83"/><path d="M100-162.5l-65.7-172.6" stroke="#fff50083"/><path d="M100-162.5l-172.3 66.7" stroke="#fff83"/><path d="M100-162.5l-166.9 74.9" stroke="#fff50083"/><path d="M100-162.5l-181.6-20.2" stroke="#fff83"/><path d="M100-162.5l117.8-138.3" stroke="#c2e1ff83"/><path d="M100-162.5l167.6-40.8" stroke="#c2e1ff86"/><path d="M100-162.5l165-49.7" stroke="#005bbb86"/><path d="M100-162.5l119-124.5" stroke="#fff50086"/><path d="M100-162.5l-158.1 63.4" stroke="#c2e1ff86"/><path d="M100-162.5l5.2-168.9" stroke="#fff50086"/><path d="M100-162.5l156.6 46.5" stroke="#fff88"/><path d="M100-162.5l-141.8-70.1" stroke="#fff50089"/><path d="M100-162.5l-6.5 146.6" stroke="#fff5008B"/><path d="M100-162.5l-2.2-140" stroke="#fff5008C"/><path d="M100-162.5l80.7-106.8" stroke="#fff8D"/><path d="M100-162.5l123.9-44.7" stroke="#fff8D"/><path d="M100-162.5l99.8 85.1" stroke="#fff8D"/><path d="M100-162.5l91.6-92.6" stroke="#005bbb8D"/><path d="M100-162.5l-120.6 33.2" stroke="#fff5008E"/><path d="M100-162.5l-105.9 60.2" stroke="#c2e1ff8E"/><path d="M100-162.5l117.1-25.9" stroke="#fff8F"/><path d="M100-162.5l-114.6-17" stroke="#005bbb8F"/><path d="M100-162.5l-111.5 20.5" stroke="#005bbb8F"/><path d="M100-162.5l85.3-73.5" stroke="#fff5008F"/><path d="M100-162.5l-91-59.6" stroke="#fff90"/><path d="M100-162.5l102.3-25.1" stroke="#005bbb90"/><path d="M100-162.5l-75.2 71.9" stroke="#fff90"/><path d="M100-162.5l-92.4-39.7" stroke="#fff50091"/><path d="M100-162.5l19.2 94.2" stroke="#c2e1ff91"/><path d="M100-162.5l16.9 94.4" stroke="#fff50091"/><path d="M100-162.5l-40.3 50.4" stroke="#c2e1ff94"/><path d="M100-162.5l15.9 3.9" stroke="#005bbb95"/></g><g class="sparcs"><path d="M121.3-139a5.9 5.9 0 1 1 0-11.8 5.9 5.9 0 0 1 0 11.8" fill="#fff5007D"/><path d="M65-170.9a5.9 5.9 0 1 1 0-11.9 5.9 5.9 0 0 1 0 11.9" fill="#fff7D"/><path d="M145.6-145.9a6 6 0 1 1 0-11.9 6 6 0 0 1 0 11.9" fill="#fff5007E"/><path d="M75-94.6a6 6 0 1 1 0-12.1 6 6 0 0 1 0 12.1" fill="#005bbb7F"/><path d="M36.6-118.3a6.1 6.1 0 1 1 0-12.1 6.1 6.1 0 0 1 0 12.1" fill="#fff80"/><path d="M155.1-99.5a6.1 6.1 0 1 1 0-12.1 6.1 6.1 0 0 1 0 12.1" fill="#c2e1ff80"/><path d="M186.2-135.1a6.1 6.1 0 1 1 0-12.3 6.1 6.1 0 0 1 0 12.3" fill="#005bbb81"/><path d="M11.6-140.4a6.1 6.1 0 1 1 0-12.2 6.1 6.1 0 0 1 0 12.2" fill="#fff81"/><path d="M181.8-116.7a6.1 6.1 0 1 1 0-12.3 6.1 6.1 0 0 1 0 12.3" fill="#c2e1ff82"/><path d="M188.6-128a6.1 6.1 0 1 1 0-12.3 6.1 6.1 0 0 1 0 12.3" fill="#005bbb82"/><path d="M193.7-176.3a6.2 6.2 0 1 1 0-12.4 6.2 6.2 0 0 1 0 12.4" fill="#fff50082"/><path d="M80.7-59.5a6.2 6.2 0 1 1 0-12.4 6.2 6.2 0 0 1 0 12.4" fill="#fff50082"/><path d="M162.5-78.3a6.2 6.2 0 1 1 0-12.3 6.2 6.2 0 0 1 0 12.3" fill="#c2e1ff83"/><path d="M22.2-225.4a6.2 6.2 0 1 1 0-12.4 6.2 6.2 0 0 1 0 12.4" fill="#005bbb83"/><path d="M210.5-175.6a6.3 6.3 0 1 1 0-12.5 6.3 6.3 0 0 1 0 12.5" fill="#c2e1ff84"/><path d="M24.7-240.9a6.3 6.3 0 1 1 0-12.5 6.3 6.3 0 0 1 0 12.5" fill="#fff84"/><path d="M204.7-208.5a6.3 6.3 0 1 1 0-12.6 6.3 6.3 0 0 1 0 12.6" fill="#005bbb85"/><path d="M197.3-80.6a6.3 6.3 0 1 1 0-12.7 6.3 6.3 0 0 1 0 12.7" fill="#fff86"/><path d="M58.6-279.8a6.4 6.4 0 1 1 0-12.8 6.4 6.4 0 0 1 0 12.8" fill="#c2e1ff87"/><path d="M175.2-42a6.4 6.4 0 1 1 0-12.9 6.4 6.4 0 0 1 0 12.9" fill="#fff50088"/><path d="M101.9-17.9a6.5 6.5 0 1 1 0-13 6.5 6.5 0 0 1 0 13" fill="#005bbb89"/><path d="M138-21.2a6.5 6.5 0 1 1 0-13 6.5 6.5 0 0 1 0 13" fill="#fff50089"/><path d="M-28.6-221.9a6.5 6.5 0 1 1 0-13 6.5 6.5 0 0 1 0 13" fill="#fff5008A"/><path d="M7.2-267.3a6.5 6.5 0 1 1 0-13 6.5 6.5 0 0 1 0 13" fill="#fff5008A"/><path d="M237.5-98.4a6.6 6.6 0 1 1 0-13.2 6.6 6.6 0 0 1 0 13.2" fill="#fff8B"/><path d="M239.3-102.4a6.6 6.6 0 1 1 0-13.2 6.6 6.6 0 0 1 0 13.2" fill="#005bbb8B"/><path d="M30.8-290.7a6.6 6.6 0 1 1 0-13.2 6.6 6.6 0 0 1 0 13.2" fill="#fff5008C"/><path d="M252.2-171.1a6.6 6.6 0 1 1 0-13.2 6.6 6.6 0 0 1 0 13.2" fill="#005bbb8C"/><path d="M-33.5-68.7a6.7 6.7 0 1 1 0-13.4 6.7 6.7 0 0 1 0 13.4" fill="#c2e1ff8E"/><path d="M-39.1-234.9a6.7 6.7 0 1 1 0-13.3 6.7 6.7 0 0 1 0 13.3" fill="#fff5008E"/><path d="M260.3-177.9a6.7 6.7 0 1 1 0-13.4 6.7 6.7 0 0 1 0 13.4" fill="#fff8E"/><path d="M222-49.5a6.7 6.7 0 1 1 0-13.4 6.7 6.7 0 0 1 0 13.4" fill="#fff8E"/><path d="M260.3-113.9a6.8 6.8 0 1 1 0-13.5 6.8 6.8 0 0 1 0 13.5" fill="#fff8F"/><path d="M256.2-229.3a6.8 6.8 0 1 1 0-13.7 6.8 6.8 0 0 1 0 13.7" fill="#fff91"/><path d="M214.6-24.9a6.9 6.9 0 1 1 0-13.7 6.9 6.9 0 0 1 0 13.7" fill="#fff91"/><path d="M104.1-329.5a6.9 6.9 0 1 1 0-13.8 6.9 6.9 0 0 1 0 13.8" fill="#fff92"/><path d="M230.9-32.3a6.9 6.9 0 1 1 0-13.9 6.9 6.9 0 0 1 0 13.9" fill="#005bbb93"/><path d="M-81.1-164.7a7 7 0 1 1 0-13.9 7 7 0 0 1 0 13.9" fill="#fff94"/><path d="M76.6-337.8a7 7 0 1 1 0-14 7 7 0 0 1 0 14" fill="#c2e1ff95"/><path d="M148.8-333.9a7 7 0 1 1 0-14 7 7 0 0 1 0 14" fill="#c2e1ff95"/><path d="M-83-128a7 7 0 1 1 0-14 7 7 0 0 1 0 14" fill="#fff50095"/><path d="M-41-278.2a7.1 7.1 0 1 1 0-14.1 7.1 7.1 0 0 1 0 14.1" fill="#fff50096"/><path d="M-52.4-265.2a7.1 7.1 0 1 1 0-14.1 7.1 7.1 0 0 1 0 14.1" fill="#005bbb96"/><path d="M-81.6-103.2a7.1 7.1 0 1 1 0-14.1 7.1 7.1 0 0 1 0 14.1" fill="#005bbb96"/><path d="M-26.8-300.5a7.2 7.2 0 1 1 0-14.3 7.2 7.2 0 0 1 0 14.3" fill="#fff98"/><path d="M-93.9-144.1a7.2 7.2 0 1 1 0-14.4 7.2 7.2 0 0 1 0 14.4" fill="#fff98"/><path d="M-54.9-274a7.2 7.2 0 1 1 0-14.3 7.2 7.2 0 0 1 0 14.3" fill="#fff99"/><path d="M38.3 32.1a7.2 7.2 0 1 1 0-14.4 7.2 7.2 0 0 1 0 14.4" fill="#fff5009A"/><path d="M213.7 6.6a7.2 7.2 0 1 1 0-14.5 7.2 7.2 0 0 1 0 14.5" fill="#fff5009A"/><path d="M260.6-34.8a7.3 7.3 0 1 1 0-14.6 7.3 7.3 0 0 1 0 14.6" fill="#005bbb9B"/><path d="M-64.9-271.3a7.3 7.3 0 1 1 0-14.6 7.3 7.3 0 0 1 0 14.6" fill="#c2e1ff9C"/><path d="M27.7-343.6a7.3 7.3 0 1 1 0-14.7 7.3 7.3 0 0 1 0 14.7" fill="#c2e1ff9C"/><path d="M130.8-354.9a7.3 7.3 0 1 1 0-14.6 7.3 7.3 0 0 1 0 14.6" fill="#005bbb9C"/><path d="M-83.9-60.8a7.4 7.4 0 1 1 0-14.9 7.4 7.4 0 0 1 0 14.9" fill="#fff5009E"/><path d="M-84.5-248.4a7.4 7.4 0 1 1 0-14.8 7.4 7.4 0 0 1 0 14.8" fill="#c2e1ff9E"/><path d="M281.1-48.1a7.5 7.5 0 1 1 0-15.1 7.5 7.5 0 0 1 0 15.1" fill="#fff500A0"/><path d="M83.3 58.1a7.6 7.6 0 1 1 0-15.2 7.6 7.6 0 0 1 0 15.2" fill="#005bbbA2"/><path d="M311-193.6a7.6 7.6 0 1 1 0-15.2 7.6 7.6 0 0 1 0 15.2" fill="#c2e1ffA2"/><path d="M311.2-193.1a7.6 7.6 0 1 1 0-15.3 7.6 7.6 0 0 1 0 15.3" fill="#005bbbA2"/><path d="M309.3-93.4a7.7 7.7 0 1 1 0-15.5 7.7 7.7 0 0 1 0 15.5" fill="#005bbbA5"/><path d="M36-363.3a7.7 7.7 0 1 1 0-15.5 7.7 7.7 0 0 1 0 15.5" fill="#c2e1ffA5"/><path d="M288.3-42a7.8 7.8 0 1 1 0-15.5 7.8 7.8 0 0 1 0 15.5" fill="#fff500A5"/><path d="M255.4-311.8a7.8 7.8 0 1 1 0-15.7 7.8 7.8 0 0 1 0 15.7" fill="#005bbbA7"/><path d="M-58-310.2a7.8 7.8 0 1 1 0-15.7 7.8 7.8 0 0 1 0 15.7" fill="#fff500A7"/><path d="M170.9 55.4a7.8 7.8 0 1 1 0-15.7 7.8 7.8 0 0 1 0 15.7" fill="#c2e1ffA7"/><path d="M-95.8-46.1a7.9 7.9 0 1 1 0-15.8 7.9 7.9 0 0 1 0 15.8" fill="#005bbbA9"/><path d="M283.7-283.3a7.9 7.9 0 1 1 0-15.9 7.9 7.9 0 0 1 0 15.9" fill="#fff500A9"/><path d="M57.2 66.7a8 8 0 1 1 0-15.9 8 8 0 0 1 0 15.9" fill="#fffAA"/><path d="M268-306.3a8 8 0 1 1 0-16 8 8 0 0 1 0 16" fill="#c2e1ffAB"/><path d="M113.7-381.4a8.1 8.1 0 1 1 0-16.1 8.1 8.1 0 0 1 0 16.1" fill="#005bbbAC"/><path d="M-105.6-56.8a8.1 8.1 0 1 1 0-16.2 8.1 8.1 0 0 1 0 16.2" fill="#fffAC"/><path d="M285.7-20.2a8.1 8.1 0 1 1 0-16.3 8.1 8.1 0 0 1 0 16.3" fill="#005bbbAE"/><path d="M-83.9-291a8.1 8.1 0 1 1 0-16.2 8.1 8.1 0 0 1 0 16.2" fill="#fffAE"/><path d="M-27.5 36.9a8.2 8.2 0 1 1 0-16.4 8.2 8.2 0 0 1 0 16.4" fill="#fffAE"/><path d="M-3.6-359.7a8.2 8.2 0 1 1 0-16.4 8.2 8.2 0 0 1 0 16.4" fill="#fffAF"/><path d="M143.6 74.2a8.3 8.3 0 1 1 0-16.6 8.3 8.3 0 0 1 0 16.6" fill="#fffB2"/><path d="M303.8-41.9a8.3 8.3 0 1 1 0-16.7 8.3 8.3 0 0 1 0 16.7" fill="#fff500B2"/><path d="M-77.3-1.6a8.4 8.4 0 1 1 0-16.9 8.4 8.4 0 0 1 0 16.9" fill="#fffB4"/><path d="M108 80.1a8.5 8.5 0 1 1 0-17 8.5 8.5 0 0 1 0 17" fill="#fffB5"/><path d="M281-302.8a8.5 8.5 0 1 1 0-17 8.5 8.5 0 0 1 0 17" fill="#005bbbB5"/><path d="M189.9 62.7a8.5 8.5 0 1 1 0-17 8.5 8.5 0 0 1 0 17" fill="#fffB6"/><path d="M-129.5-203.7a8.5 8.5 0 1 1 0-17.1 8.5 8.5 0 0 1 0 17.1" fill="#c2e1ffB6"/><path d="M-133.3-183.4a8.6 8.6 0 1 1 0-17.2 8.6 8.6 0 0 1 0 17.2" fill="#fff500B7"/><path d="M303.8-271.6a8.6 8.6 0 1 1 0-17.2 8.6 8.6 0 0 1 0 17.2" fill="#c2e1ffB8"/><path d="M-59.5-327.4a8.7 8.7 0 1 1 0-17.3 8.7 8.7 0 0 1 0 17.3" fill="#fffB9"/><path d="M45.2-383.3a8.7 8.7 0 1 1 0-17.4 8.7 8.7 0 0 1 0 17.4" fill="#c2e1ffBA"/><path d="M44.5-383.2a8.8 8.8 0 1 1 0-17.5 8.8 8.8 0 0 1 0 17.5" fill="#fff500BB"/><path d="M263.1-324.5a8.8 8.8 0 1 1 0-17.5 8.8 8.8 0 0 1 0 17.5" fill="#fffBB"/><path d="M59.5 78.9a8.8 8.8 0 1 1 0-17.5 8.8 8.8 0 0 1 0 17.5" fill="#005bbbBC"/><path d="M-128.3-92.9a8.8 8.8 0 1 1 0-17.7 8.8 8.8 0 0 1 0 17.7" fill="#c2e1ffBD"/><path d="M288.6-295.9a8.8 8.8 0 1 1 0-17.7 8.8 8.8 0 0 1 0 17.7" fill="#fff500BD"/><path d="M215.4 52.5a9 9 0 1 1 0-18 9 9 0 0 1 0 18" fill="#005bbbC0"/><path d="M332.3-112.2a9 9 0 1 1 0-18.1 9 9 0 0 1 0 18.1" fill="#c2e1ffC1"/><path d="M-127.6-92.3a9.1 9.1 0 1 1 0-18.2 9.1 9.1 0 0 1 0 18.2" fill="#fff500C2"/><path d="M-126.2-88.3a9.1 9.1 0 1 1 0-18.2 9.1 9.1 0 0 1 0 18.2" fill="#c2e1ffC3"/><path d="M197.4 61a9.1 9.1 0 1 1 0-18.3 9.1 9.1 0 0 1 0 18.3" fill="#fff500C3"/><path d="M33.8 72.2a9.2 9.2 0 1 1 0-18.3 9.2 9.2 0 0 1 0 18.3" fill="#fffC4"/><path d="M-122.3-78.8a9.2 9.2 0 1 1 0-18.4 9.2 9.2 0 0 1 0 18.4" fill="#fffC5"/><path d="M89.9-386.6a9.3 9.3 0 1 1 0-18.6 9.3 9.3 0 0 1 0 18.6" fill="#c2e1ffC7"/><path d="M333.6-153.2a9.3 9.3 0 1 1 0-18.6 9.3 9.3 0 0 1 0 18.6" fill="#005bbbC7"/><path d="M309.4-254.8a9.4 9.4 0 1 1 0-18.7 9.4 9.4 0 0 1 0 18.7" fill="#fff500C9"/><path d="M241.3-338.1a9.4 9.4 0 1 1 0-18.7 9.4 9.4 0 0 1 0 18.7" fill="#005bbbC9"/><path d="M196.4 58.2a9.4 9.4 0 1 1 0-18.8 9.4 9.4 0 0 1 0 18.8" fill="#fff500C9"/><path d="M63.4 76.1a9.4 9.4 0 1 1 0-18.8 9.4 9.4 0 0 1 0 18.8" fill="#005bbbCA"/><path d="M-59.2 15.4a9.4 9.4 0 1 1 0-18.9 9.4 9.4 0 0 1 0 18.9" fill="#fff500CA"/><path d="M-2.6-359.3a9.5 9.5 0 1 1 0-19 9.5 9.5 0 0 1 0 19" fill="#fffCC"/><path d="M-127.8-175.7a9.6 9.6 0 1 1 0-19.2 9.6 9.6 0 0 1 0 19.2" fill="#fff500CE"/><path d="M139.9 71.3a9.6 9.6 0 1 1 0-19.3 9.6 9.6 0 0 1 0 19.3" fill="#005bbbCF"/><path d="M79.8-378.8a9.7 9.7 0 1 1 0-19.4 9.7 9.7 0 0 1 0 19.4" fill="#c2e1ffD0"/><path d="M157.6-372.2a9.7 9.7 0 1 1 0-19.4 9.7 9.7 0 0 1 0 19.4" fill="#fffD0"/><path d="M304.1-246.2a9.8 9.8 0 1 1 0-19.5 9.8 9.8 0 0 1 0 19.5" fill="#fff500D2"/><path d="M-35.4 24.3a9.8 9.8 0 1 1 0-19.7 9.8 9.8 0 0 1 0 19.7" fill="#c2e1ffD3"/><path d="M-92.3-40.1a9.8 9.8 0 1 1 0-19.7 9.8 9.8 0 0 1 0 19.7" fill="#005bbbD3"/><path d="M-119-191.6a9.9 9.9 0 1 1 0-19.7 9.9 9.9 0 0 1 0 19.7" fill="#005bbbD3"/><path d="M107.8-375a9.9 9.9 0 1 1 0-19.7 9.9 9.9 0 0 1 0 19.7" fill="#c2e1ffD3"/><path d="M-121.7-136.6a9.9 9.9 0 1 1 0-19.8 9.9 9.9 0 0 1 0 19.8" fill="#c2e1ffD4"/><path d="M-97.9-53.4a9.9 9.9 0 1 1 0-19.8 9.9 9.9 0 0 1 0 19.8" fill="#c2e1ffD4"/><path d="M321-153.7a9.9 9.9 0 1 1 0-19.8 9.9 9.9 0 0 1 0 19.8" fill="#fffD4"/><path d="M303.4-236.3a9.9 9.9 0 1 1 0-19.9 9.9 9.9 0 0 1 0 19.9" fill="#fffD5"/><path d="M92.3 66.8a10 10 0 1 1 0-19.9 10 10 0 0 1 0 19.9" fill="#fff500D6"/><path d="M-97.6-247a10 10 0 1 1 0-19.9 10 10 0 0 1 0 19.9" fill="#fffD6"/><path d="M19.5 48a10.1 10.1 0 1 1 0-20.1 10.1 10.1 0 0 1 0 20.1" fill="#fffD8"/><path d="M164.2-358a10.1 10.1 0 1 1 0-20.2 10.1 10.1 0 0 1 0 20.2" fill="#005bbbD8"/><path d="M-98.4-69.7a10.1 10.1 0 1 1 0-20.1 10.1 10.1 0 0 1 0 20.1" fill="#c2e1ffD8"/><path d="M-113.5-170.5a10.1 10.1 0 1 1 0-20.2 10.1 10.1 0 0 1 0 20.2" fill="#fffD9"/><path d="M129.2 57.2a10.2 10.2 0 1 1 0-20.3 10.2 10.2 0 0 1 0 20.3" fill="#fff500DA"/><path d="M153.3-355.4a10.2 10.2 0 1 1 0-20.4 10.2 10.2 0 0 1 0 20.4" fill="#c2e1ffDB"/><path d="M22.8 42.1a10.2 10.2 0 1 1 0-20.4 10.2 10.2 0 0 1 0 20.4" fill="#fffDC"/><path d="M-22.5-321.6a10.2 10.2 0 1 1 0-20.5 10.2 10.2 0 0 1 0 20.5" fill="#c2e1ffDC"/><path d="M94.1 56.6a10.2 10.2 0 1 1 0-20.4 10.2 10.2 0 0 1 0 20.4" fill="#005bbbDC"/><path d="M216.3-324.2a10.3 10.3 0 1 1 0-20.5 10.3 10.3 0 0 1 0 20.5" fill="#005bbbDD"/><path d="M-99.5-209.7a10.3 10.3 0 1 1 0-20.5 10.3 10.3 0 0 1 0 20.5" fill="#fff500DD"/><path d="M85-358.6a10.3 10.3 0 1 1 0-20.6 10.3 10.3 0 0 1 0 20.6" fill="#c2e1ffDD"/><path d="M-68.2-32.5a10.3 10.3 0 1 1 0-20.6 10.3 10.3 0 0 1 0 20.6" fill="#fff500DD"/><path d="M222.5-317.9a10.3 10.3 0 1 1 0-20.7 10.3 10.3 0 0 1 0 20.7" fill="#fff500DD"/><path d="M134.2-355.4a10.3 10.3 0 1 1 0-20.6 10.3 10.3 0 0 1 0 20.6" fill="#fffDD"/><path d="M-70.8-37.5a10.3 10.3 0 1 1 0-20.6 10.3 10.3 0 0 1 0 20.6" fill="#fffDD"/><path d="M297.3-94a10.3 10.3 0 1 1 0-20.6 10.3 10.3 0 0 1 0 20.6" fill="#c2e1ffDD"/><path d="M208.4 22.6a10.3 10.3 0 1 1 0-20.6 10.3 10.3 0 0 1 0 20.6" fill="#005bbbDD"/><path d="M-41.5-299.2a10.3 10.3 0 1 1 0-20.7 10.3 10.3 0 0 1 0 20.7" fill="#fffDE"/><path d="M302.4-146.2a10.4 10.4 0 1 1 0-20.8 10.4 10.4 0 0 1 0 20.8" fill="#fff500DF"/><path d="M-100.7-174.1a10.4 10.4 0 1 1 0-20.8 10.4 10.4 0 0 1 0 20.8" fill="#fffDF"/><path d="M165.2 33.5a10.5 10.5 0 1 1 0-21 10.5 10.5 0 0 1 0 21" fill="#fffE2"/><path d="M42.7-339.6a10.5 10.5 0 1 1 0-21 10.5 10.5 0 0 1 0 21" fill="#fffE2"/><path d="M31-333.7a10.5 10.5 0 1 1 0-21.1 10.5 10.5 0 0 1 0 21.1" fill="#c2e1ffE2"/><path d="M186.7 19.7a10.6 10.6 0 1 1 0-21.1 10.6 10.6 0 0 1 0 21.1" fill="#005bbbE3"/><path d="M222-300.4a10.6 10.6 0 1 1 0-21.1 10.6 10.6 0 0 1 0 21.1" fill="#fff500E3"/><path d="M211.6 1a10.6 10.6 0 1 1 0-21.2 10.6 10.6 0 0 1 0 21.2" fill="#005bbbE4"/><path d="M155.2-328.4a10.7 10.7 0 1 1 0-21.4 10.7 10.7 0 0 1 0 21.4" fill="#005bbbE6"/><path d="M34.3-324.4a10.7 10.7 0 1 1 0-21.4 10.7 10.7 0 0 1 0 21.4" fill="#fff500E6"/><path d="M-72.3-85.1a10.7 10.7 0 1 1 0-21.4 10.7 10.7 0 0 1 0 21.4" fill="#fffE6"/><path d="M-66.9-76.8a10.7 10.7 0 1 1 0-21.5 10.7 10.7 0 0 1 0 21.5" fill="#fff500E7"/><path d="M-81.6-172a10.7 10.7 0 1 1 0-21.4 10.7 10.7 0 0 1 0 21.4" fill="#fffE7"/><path d="M217.8-290a10.7 10.7 0 1 1 0-21.5 10.7 10.7 0 0 1 0 21.5" fill="#005bbbE7"/><path d="M267.6-192.4a10.9 10.9 0 1 1 0-21.8 10.9 10.9 0 0 1 0 21.8" fill="#005bbbEA"/><path d="M265-201.3a10.9 10.9 0 1 1 0-21.7 10.9 10.9 0 0 1 0 21.7" fill="#c2e1ffEA"/><path d="M219-276.2a10.9 10.9 0 1 1 0-21.7 10.9 10.9 0 0 1 0 21.7" fill="#fff500EA"/><path d="M-58.1-88.2a10.9 10.9 0 1 1 0-21.8 10.9 10.9 0 0 1 0 21.8" fill="#fff500EB"/><path d="M105.2-320.5a10.9 10.9 0 1 1 0-21.9 10.9 10.9 0 0 1 0 21.9" fill="#005bbbEB"/><path d="M256.6-105a11 11 0 1 1 0-22 11 11 0 0 1 0 22" fill="#fffEC"/><path d="M-41.8-221.6a11.1 11.1 0 1 1 0-22.1 11.1 11.1 0 0 1 0 22.1" fill="#fffEE"/><path d="M93.5-4.7a11.2 11.2 0 1 1 0-22.4 11.2 11.2 0 0 1 0 22.4" fill="#fff500F0"/><path d="M97.8-291.2a11.2 11.2 0 1 1 0-22.5 11.2 11.2 0 0 1 0 22.5" fill="#fff500F2"/><path d="M180.7-258a11.3 11.3 0 1 1 0-22.6 11.3 11.3 0 0 1 0 22.6" fill="#fff500F3"/><path d="M223.9-195.9a11.3 11.3 0 1 1 0-22.7 11.3 11.3 0 0 1 0 22.7" fill="#fffF3"/><path d="M199.8-66a11.3 11.3 0 1 1 0-22.7 11.3 11.3 0 0 1 0 22.7" fill="#fff500F4"/><path d="M191.6-243.8a11.3 11.3 0 1 1 0-22.6 11.3 11.3 0 0 1 0 22.6" fill="#fffF4"/><path d="M-20.6-117.9a11.4 11.4 0 1 1 0-22.7 11.4 11.4 0 0 1 0 22.7" fill="#c2e1ffF5"/><path d="M-5.9-90.9a11.4 11.4 0 1 1 0-22.8 11.4 11.4 0 0 1 0 22.8" fill="#c2e1ffF5"/><path d="M217.1-177a11.4 11.4 0 1 1 0-22.9 11.4 11.4 0 0 1 0 22.9" fill="#c2e1ffF5"/><path d="M-14.6-168.1a11.4 11.4 0 1 1 0-22.9 11.4 11.4 0 0 1 0 22.9" fill="#005bbbF6"/><path d="M-11.5-130.5a11.5 11.5 0 1 1 0-22.9 11.5 11.5 0 0 1 0 22.9" fill="#fff500F7"/><path d="M185.3-224.5a11.5 11.5 0 1 1 0-22.9 11.5 11.5 0 0 1 0 22.9" fill="#c2e1ffF7"/><path d="M9-210.6a11.5 11.5 0 1 1 0-23 11.5 11.5 0 0 1 0 23" fill="#005bbbF7"/><path d="M202.3-176.1a11.5 11.5 0 1 1 0-23 11.5 11.5 0 0 1 0 23" fill="#c2e1ffF8"/><path d="M24.8-79.1a11.5 11.5 0 1 1 0-23 11.5 11.5 0 0 1 0 23" fill="#fff500F8"/><path d="M7.6-190.7a11.5 11.5 0 1 1 0-23.1 11.5 11.5 0 0 1 0 23.1" fill="#c2e1ffF8"/><path d="M119.2-56.8a11.6 11.6 0 1 1 0-23.1 11.6 11.6 0 0 1 0 23.1" fill="#fff500F9"/><path d="M116.9-56.6a11.6 11.6 0 1 1 0-23.1 11.6 11.6 0 0 1 0 23.1" fill="#fff500F9"/><path d="M59.7-100.4a11.7 11.7 0 1 1 0-23.4 11.7 11.7 0 0 1 0 23.4" fill="#fffFC"/><path d="M115.9-146.8a11.8 11.8 0 1 1 0-23.6 11.8 11.8 0 0 1 0 23.6" fill="#fff500FE"/></g></svg>