<svg width="1200" height="675" viewBox="-500 -500 1200 675" xmlns="http://www.w3.org/2000/svg"><path d="M-500-500h1200v675h-1200z" fill="#000"/><style>.sparkles path{stroke-linecap:round; stroke-width:1}</style><g class="sparkles"><path d="M100-162.5l-23.4-4.5" stroke="#c2e1ff32"/><path d="M100-162.5l17.8-17.1" stroke="#005bbb32"/><path d="M100-162.5l-18.5-51.1" stroke="#005bbb33"/><path d="M100-162.5l-32.8 53.2" stroke="#fff50033"/><path d="M100-162.5l5.1 76.5" stroke="#005bbb34"/><path d="M100-162.5l-60.5 49.4" stroke="#005bbb34"/><path d="M100-162.5l-65.1 45.9" stroke="#fff50034"/><path d="M100-162.5l93.2 27.6" stroke="#fff36"/><path d="M100-162.5l40.7-93.5" stroke="#005bbb36"/><path d="M100-162.5l101.3-39.8" stroke="#fff50037"/><path d="M100-162.5l-15.5-108.7" stroke="#c2e1ff37"/><path d="M100-162.5l-102 42.8" stroke="#005bbb37"/><path d="M100-162.5l116.7-45.5" stroke="#fff50039"/><path d="M100-162.5l-12-124.9" stroke="#fff50039"/><path d="M100-162.5l116.8 63.3" stroke="#005bbb3A"/><path d="M100-162.5l108.3-82.2" stroke="#c2e1ff3B"/><path d="M100-162.5l31.8 133.3" stroke="#fff5003B"/><path d="M100-162.5l14.7 137.9" stroke="#fff3B"/><path d="M100-162.5l134.8 44" stroke="#c2e1ff3C"/><path d="M100-162.5l115.7 83.1" stroke="#fff5003C"/><path d="M100-162.5l-142.5-7.1" stroke="#c2e1ff3C"/><path d="M100-162.5l124.4-71.6" stroke="#c2e1ff3C"/><path d="M100-162.5l116.1-90.2" stroke="#c2e1ff3C"/><path d="M100-162.5l-111.5-103.9" stroke="#005bbb3D"/><path d="M100-162.5l119.5 95.7" stroke="#c2e1ff3D"/><path d="M100-162.5l130.1-83" stroke="#fff3E"/><path d="M100-162.5l130.6 84.7" stroke="#c2e1ff3E"/><path d="M100-162.5l134.3 90.8" stroke="#005bbb3F"/><path d="M100-162.5l-154.8 54.7" stroke="#fff40"/><path d="M100-162.5l-13.6-164.8" stroke="#fff50040"/><path d="M100-162.5l139.3 92.6" stroke="#c2e1ff40"/><path d="M100-162.5l-154.2-79.9" stroke="#fff42"/><path d="M100-162.5l-23-173.8" stroke="#fff42"/><path d="M100-162.5l-167.5-58.9" stroke="#fff43"/><path d="M100-162.5l127.6-128.2" stroke="#fff43"/><path d="M100-162.5l-48.1 177.2" stroke="#fff44"/><path d="M100-162.5l177.6 48.1" stroke="#005bbb44"/><path d="M100-162.5l181.2-50" stroke="#005bbb45"/><path d="M100-162.5l-155 108.3" stroke="#005bbb46"/><path d="M100-162.5l151.9 114.2" stroke="#c2e1ff46"/><path d="M100-162.5l76.5 175.6" stroke="#fff50046"/><path d="M100-162.5l138-132.9" stroke="#fff50046"/><path d="M100-162.5l35.2 189.1" stroke="#fff50046"/><path d="M100-162.5l-158.4-112" stroke="#c2e1ff47"/><path d="M100-162.5l-125.2-150.6" stroke="#005bbb48"/><path d="M100-162.5l-179.7 88" stroke="#005bbb49"/><path d="M100-162.5l-117.5 164.5" stroke="#fff5004A"/><path d="M100-162.5l114.5-174.5" stroke="#c2e1ff4C"/><path d="M100-162.5l-94.8-186.9" stroke="#fff4C"/><path d="M100-162.5l202-65.8" stroke="#c2e1ff4E"/><path d="M100-162.5l106.7 184.8" stroke="#fff5004E"/><path d="M100-162.5l-84.3-196.1" stroke="#fff5004E"/><path d="M100-162.5l-168.7-133" stroke="#fff5004F"/><path d="M100-162.5l-212.2 37.1" stroke="#fff5004F"/><path d="M100-162.5l113.7 183.8" stroke="#fff5004F"/><path d="M100-162.5l152.6 154.4" stroke="#005bbb50"/><path d="M100-162.5l211.2 58.3" stroke="#fff50051"/><path d="M100-162.5l-219.7 9" stroke="#fff50051"/><path d="M100-162.5l-218.5 24.5" stroke="#fff50051"/><path d="M100-162.5l-212.8-64.7" stroke="#fff50053"/><path d="M100-162.5l136.5-176" stroke="#fff53"/><path d="M100-162.5l-206.2 85.8" stroke="#005bbb53"/><path d="M100-162.5l61.2-215" stroke="#005bbb53"/><path d="M100-162.5l-86.1 208.4" stroke="#c2e1ff55"/><path d="M100-162.5l-177.1 142.5" stroke="#c2e1ff56"/><path d="M100-162.5l142.8-178.7" stroke="#fff57"/><path d="M100-162.5l187.7 130.8" stroke="#fff57"/><path d="M100-162.5l-120.6 195.6" stroke="#fff50058"/><path d="M100-162.5l-130.3-189.6" stroke="#c2e1ff58"/><path d="M100-162.5l-227.9-32.5" stroke="#fff50058"/><path d="M100-162.5l-46.4 226.1" stroke="#fff59"/><path d="M100-162.5l227.6 39.7" stroke="#fff59"/><path d="M100-162.5l139.6 185.7" stroke="#fff5005A"/><path d="M100-162.5l177.8 149.6" stroke="#fff5A"/><path d="M100-162.5l124.3 196.6" stroke="#fff5B"/><path d="M100-162.5l186.8 138.8" stroke="#005bbb5B"/><path d="M100-162.5l197.4-124.1" stroke="#fff5005C"/><path d="M100-162.5l-226.5 56.5" stroke="#fff5005C"/><path d="M100-162.5l129.3 195.2" stroke="#fff5005D"/><path d="M100-162.5l211.2 101.4" stroke="#fff5D"/><path d="M100-162.5l-55.2-228" stroke="#fff5005E"/><path d="M100-162.5l-182.3-147.8" stroke="#fff5005E"/><path d="M100-162.5l223.1 72.9" stroke="#fff5005E"/><path d="M100-162.5l-213.6 97.2" stroke="#fff5E"/><path d="M100-162.5l-10.1-234.6" stroke="#c2e1ff5E"/><path d="M100-162.5l233.2-31.1" stroke="#fff5005F"/><path d="M100-162.5l141.9 187.9" stroke="#fff5F"/><path d="M100-162.5l128.9 197.2" stroke="#fff50060"/><path d="M100-162.5l-209.4 108.2" stroke="#fff50060"/><path d="M100-162.5l145.5-185.7" stroke="#fff50061"/><path d="M100-162.5l108.6 209.5" stroke="#fff50061"/><path d="M100-162.5l-132.9-195" stroke="#fff61"/><path d="M100-162.5l-201 123.7" stroke="#005bbb61"/><path d="M100-162.5l113-207.2" stroke="#fff50061"/><path d="M100-162.5l217.2-92.5" stroke="#fff61"/><path d="M100-162.5l36.9-233.4" stroke="#fff50064"/><path d="M100-162.5l-232.2-43.2" stroke="#005bbb65"/><path d="M100-162.5l201.8 122.6" stroke="#c2e1ff65"/><path d="M100-162.5l-235.1 18.7" stroke="#005bbb67"/><path d="M100-162.5l-232.8 35.7" stroke="#fff67"/><path d="M100-162.5l32.1-233.3" stroke="#c2e1ff67"/><path d="M100-162.5l120.9 202.1" stroke="#005bbb68"/><path d="M100-162.5l-61.2-227" stroke="#c2e1ff68"/><path d="M100-162.5l123.9 199" stroke="#c2e1ff6A"/><path d="M100-162.5l146.2 182.6" stroke="#005bbb6B"/><path d="M100-162.5l43.3-229" stroke="#fff6C"/><path d="M100-162.5l136.6 188.7" stroke="#005bbb6C"/><path d="M100-162.5l-93.3-213.4" stroke="#005bbb6C"/><path d="M100-162.5l-6.8-232.8" stroke="#fff5006C"/><path d="M100-162.5l228.3 42.1" stroke="#c2e1ff6D"/><path d="M100-162.5l157.7 170.1" stroke="#fff5006D"/><path d="M100-162.5l175.6 151.3" stroke="#fff5006D"/><path d="M100-162.5l-226.7-46.1" stroke="#c2e1ff6E"/><path d="M100-162.5l-219.9 70.4" stroke="#c2e1ff6E"/><path d="M100-162.5l-15.4 230.3" stroke="#c2e1ff6E"/><path d="M100-162.5l-95.5 210" stroke="#fff5006E"/><path d="M100-162.5l225.9-46.6" stroke="#fff6E"/><path d="M100-162.5l107.9 202.6" stroke="#fff5006F"/><path d="M100-162.5l176.6 145.7" stroke="#005bbb70"/><path d="M100-162.5l-187.2 131.6" stroke="#fff70"/><path d="M100-162.5l165.7 154.8" stroke="#005bbb72"/><path d="M100-162.5l86.9-208" stroke="#fff72"/><path d="M100-162.5l-68.2 212.1" stroke="#fff74"/><path d="M100-162.5l7.6-220.5" stroke="#c2e1ff75"/><path d="M100-162.5l-33.5-217.6" stroke="#fff50076"/><path d="M100-162.5l-174.9-133.6" stroke="#fff50076"/><path d="M100-162.5l219.6 7.2" stroke="#fff50076"/><path d="M100-162.5l87.2-195.3" stroke="#005bbb79"/><path d="M100-162.5l-33.4-207.2" stroke="#fff5007A"/><path d="M100-162.5l-181-104.6" stroke="#c2e1ff7B"/><path d="M100-162.5l171.2-112.3" stroke="#fff5007C"/><path d="M100-162.5l37.9 200.6" stroke="#005bbb7D"/><path d="M100-162.5l201.5 0" stroke="#fff7E"/><path d="M100-162.5l-199.6-15.8" stroke="#fff5007E"/><path d="M100-162.5l-93.7 172.6" stroke="#fff5007F"/><path d="M100-162.5l-181.5 70.7" stroke="#c2e1ff80"/><path d="M100-162.5l8.9 193.1" stroke="#fff50080"/><path d="M100-162.5l163.6 102.3" stroke="#fff50080"/><path d="M100-162.5l-91.4-167.9" stroke="#fff50081"/><path d="M100-162.5l113.5 152.8" stroke="#005bbb81"/><path d="M100-162.5l170.9-80.8" stroke="#005bbb81"/><path d="M100-162.5l138 126.9" stroke="#fff82"/><path d="M100-162.5l82.8 167.4" stroke="#fff82"/><path d="M100-162.5l128.6-129" stroke="#fff50083"/><path d="M100-162.5l-159.1 87.9" stroke="#005bbb83"/><path d="M100-162.5l39.6-172.7" stroke="#fff85"/><path d="M100-162.5l142.6 101.1" stroke="#005bbb85"/><path d="M100-162.5l144.8-92.1" stroke="#c2e1ff86"/><path d="M100-162.5l91.2-145.4" stroke="#c2e1ff86"/><path d="M100-162.5l95.5-138.7" stroke="#005bbb87"/><path d="M100-162.5l-136.5-97.5" stroke="#005bbb87"/><path d="M100-162.5l-132.4-101.7" stroke="#005bbb87"/><path d="M100-162.5l-89.1 139.8" stroke="#fff87"/><path d="M100-162.5l-65.4-150.4" stroke="#fff50087"/><path d="M100-162.5l159.6 19.2" stroke="#005bbb88"/><path d="M100-162.5l0.4 160.6" stroke="#fff88"/><path d="M100-162.5l-119.4-105.3" stroke="#c2e1ff88"/><path d="M100-162.5l158.9 3.4" stroke="#c2e1ff88"/><path d="M100-162.5l121.5-102.1" stroke="#fff50089"/><path d="M100-162.5l138.4-71.4" stroke="#fff50089"/><path d="M100-162.5l138.8-61.4" stroke="#fff8A"/><path d="M100-162.5l140.9 51.1" stroke="#c2e1ff8A"/><path d="M100-162.5l1.6 149.3" stroke="#c2e1ff8A"/><path d="M100-162.5l-84.2 122.3" stroke="#fff8A"/><path d="M100-162.5l-117.7 86.3" stroke="#fff8B"/><path d="M100-162.5l0.6-141.5" stroke="#c2e1ff8C"/><path d="M100-162.5l96.3 87" stroke="#005bbb8D"/><path d="M100-162.5l112.7 52.9" stroke="#fff5008E"/><path d="M100-162.5l-54.5 105.7" stroke="#c2e1ff8F"/><path d="M100-162.5l-110.4-41.7" stroke="#fff5008F"/><path d="M100-162.5l62.1 97" stroke="#fff5008F"/><path d="M100-162.5l82.8 64.6" stroke="#005bbb90"/><path d="M100-162.5l-86.9-53" stroke="#fff91"/><path d="M100-162.5l15.4-99.6" stroke="#fff50091"/><path d="M100-162.5l9.4 99.9" stroke="#005bbb91"/><path d="M100-162.5l10.3-91.8" stroke="#fff50092"/><path d="M100-162.5l87.7 27.4" stroke="#fff92"/><path d="M100-162.5l-38.6 81.6" stroke="#fff92"/><path d="M100-162.5l5.9 90" stroke="#fff92"/><path d="M100-162.5l-40.7 73.2" stroke="#fff50092"/><path d="M100-162.5l41.6-28" stroke="#c2e1ff94"/></g><g class="sparcs"><path d="M76.6-161a5.9 5.9 0 1 1 0-11.9 5.9 5.9 0 0 1 0 11.9" fill="#fff5007D"/><path d="M117.8-173.6a5.9 5.9 0 1 1 0-11.9 5.9 5.9 0 0 1 0 11.9" fill="#fff5007D"/><path d="M81.5-207.6a6 6 0 1 1 0-12 6 6 0 0 1 0 12" fill="#fff5007E"/><path d="M67.2-103.3a6 6 0 1 1 0-12 6 6 0 0 1 0 12" fill="#005bbb7F"/><path d="M105.1-80a6.1 6.1 0 1 1 0-12.1 6.1 6.1 0 0 1 0 12.1" fill="#fff80"/><path d="M39.5-107.1a6.1 6.1 0 1 1 0-12.1 6.1 6.1 0 0 1 0 12.1" fill="#c2e1ff80"/><path d="M34.9-110.5a6.1 6.1 0 1 1 0-12.2 6.1 6.1 0 0 1 0 12.2" fill="#005bbb80"/><path d="M193.2-128.7a6.2 6.2 0 1 1 0-12.4 6.2 6.2 0 0 1 0 12.4" fill="#fff50082"/><path d="M140.7-249.9a6.2 6.2 0 1 1 0-12.3 6.2 6.2 0 0 1 0 12.3" fill="#fff50083"/><path d="M201.3-196.1a6.2 6.2 0 1 1 0-12.5 6.2 6.2 0 0 1 0 12.5" fill="#005bbb84"/><path d="M84.5-264.9a6.2 6.2 0 1 1 0-12.5 6.2 6.2 0 0 1 0 12.5" fill="#fff84"/><path d="M-2-113.4a6.2 6.2 0 1 1 0-12.5 6.2 6.2 0 0 1 0 12.5" fill="#c2e1ff84"/><path d="M216.7-201.6a6.4 6.4 0 1 1 0-12.7 6.4 6.4 0 0 1 0 12.7" fill="#005bbb86"/><path d="M88-281.1a6.4 6.4 0 1 1 0-12.7 6.4 6.4 0 0 1 0 12.7" fill="#005bbb86"/><path d="M216.8-92.8a6.4 6.4 0 1 1 0-12.8 6.4 6.4 0 0 1 0 12.8" fill="#fff50088"/><path d="M208.3-238.3a6.4 6.4 0 1 1 0-12.9 6.4 6.4 0 0 1 0 12.9" fill="#fff88"/><path d="M131.8-22.7a6.5 6.5 0 1 1 0-12.9 6.5 6.5 0 0 1 0 12.9" fill="#fff50089"/><path d="M114.7-18.2a6.5 6.5 0 1 1 0-12.9 6.5 6.5 0 0 1 0 12.9" fill="#005bbb89"/><path d="M234.8-112a6.5 6.5 0 1 1 0-13 6.5 6.5 0 0 1 0 13" fill="#c2e1ff8A"/><path d="M215.7-72.9a6.5 6.5 0 1 1 0-13 6.5 6.5 0 0 1 0 13" fill="#fff5008A"/><path d="M-42.5-163.1a6.5 6.5 0 1 1 0-13 6.5 6.5 0 0 1 0 13" fill="#fff5008A"/><path d="M224.4-227.6a6.5 6.5 0 1 1 0-13 6.5 6.5 0 0 1 0 13" fill="#005bbb8A"/><path d="M216.1-246.2a6.5 6.5 0 1 1 0-13 6.5 6.5 0 0 1 0 13" fill="#fff8B"/><path d="M-11.5-259.8a6.6 6.6 0 1 1 0-13.2 6.6 6.6 0 0 1 0 13.2" fill="#c2e1ff8C"/><path d="M219.5-60.2a6.6 6.6 0 1 1 0-13.3 6.6 6.6 0 0 1 0 13.3" fill="#fff5008C"/><path d="M230.1-238.9a6.6 6.6 0 1 1 0-13.3 6.6 6.6 0 0 1 0 13.3" fill="#fff5008C"/><path d="M230.6-71.2a6.6 6.6 0 1 1 0-13.3 6.6 6.6 0 0 1 0 13.3" fill="#005bbb8D"/><path d="M234.3-65a6.7 6.7 0 1 1 0-13.5 6.7 6.7 0 0 1 0 13.5" fill="#fff5008E"/><path d="M-54.8-101.1a6.7 6.7 0 1 1 0-13.5 6.7 6.7 0 0 1 0 13.5" fill="#c2e1ff8F"/><path d="M86.4-320.6a6.8 6.8 0 1 1 0-13.5 6.8 6.8 0 0 1 0 13.5" fill="#005bbb8F"/><path d="M239.3-63.1a6.8 6.8 0 1 1 0-13.5 6.8 6.8 0 0 1 0 13.5" fill="#c2e1ff90"/><path d="M-54.2-235.6a6.9 6.9 0 1 1 0-13.7 6.9 6.9 0 0 1 0 13.7" fill="#fff91"/><path d="M77-329.4a6.9 6.9 0 1 1 0-13.8 6.9 6.9 0 0 1 0 13.8" fill="#fff50092"/><path d="M-67.5-214.5a6.9 6.9 0 1 1 0-13.8 6.9 6.9 0 0 1 0 13.8" fill="#fff93"/><path d="M227.6-283.8a7 7 0 1 1 0-13.9 7 7 0 0 1 0 13.9" fill="#005bbb94"/><path d="M51.9 21.7a7 7 0 1 1 0-14 7 7 0 0 1 0 14" fill="#c2e1ff95"/><path d="M277.6-107.4a7 7 0 1 1 0-14 7 7 0 0 1 0 14" fill="#fff95"/><path d="M281.2-205.4a7.1 7.1 0 1 1 0-14.2 7.1 7.1 0 0 1 0 14.2" fill="#fff96"/><path d="M-55-47.1a7.1 7.1 0 1 1 0-14.2 7.1 7.1 0 0 1 0 14.2" fill="#c2e1ff97"/><path d="M251.9-41.2a7.1 7.1 0 1 1 0-14.2 7.1 7.1 0 0 1 0 14.2" fill="#c2e1ff97"/><path d="M176.5 20.2a7.1 7.1 0 1 1 0-14.2 7.1 7.1 0 0 1 0 14.2" fill="#c2e1ff97"/><path d="M238-288.3a7.1 7.1 0 1 1 0-14.2 7.1 7.1 0 0 1 0 14.2" fill="#005bbb97"/><path d="M135.2 33.7a7.1 7.1 0 1 1 0-14.3 7.1 7.1 0 0 1 0 14.3" fill="#005bbb98"/><path d="M-58.4-267.3a7.2 7.2 0 1 1 0-14.4 7.2 7.2 0 0 1 0 14.4" fill="#fff98"/><path d="M-25.2-305.8a7.2 7.2 0 1 1 0-14.5 7.2 7.2 0 0 1 0 14.5" fill="#fff50099"/><path d="M-79.7-67.2a7.3 7.3 0 1 1 0-14.6 7.3 7.3 0 0 1 0 14.6" fill="#fff9B"/><path d="M-17.5 9.3a7.3 7.3 0 1 1 0-14.6 7.3 7.3 0 0 1 0 14.6" fill="#c2e1ff9C"/><path d="M214.5-329.5a7.5 7.5 0 1 1 0-14.9 7.5 7.5 0 0 1 0 14.9" fill="#c2e1ff9F"/><path d="M5.2-341.9a7.5 7.5 0 1 1 0-14.9 7.5 7.5 0 0 1 0 14.9" fill="#fff5009F"/><path d="M302-220.8a7.6 7.6 0 1 1 0-15.1 7.6 7.6 0 0 1 0 15.1" fill="#fff500A1"/><path d="M206.7 29.9a7.6 7.6 0 1 1 0-15.1 7.6 7.6 0 0 1 0 15.1" fill="#005bbbA2"/><path d="M15.7-351a7.6 7.6 0 1 1 0-15.2 7.6 7.6 0 0 1 0 15.2" fill="#c2e1ffA2"/><path d="M-68.7-287.8a7.6 7.6 0 1 1 0-15.3 7.6 7.6 0 0 1 0 15.3" fill="#c2e1ffA2"/><path d="M-112.2-117.8a7.6 7.6 0 1 1 0-15.3 7.6 7.6 0 0 1 0 15.3" fill="#fffA3"/><path d="M213.7 29a7.7 7.7 0 1 1 0-15.3 7.7 7.7 0 0 1 0 15.3" fill="#fffA3"/><path d="M252.6-0.5a7.7 7.7 0 1 1 0-15.3 7.7 7.7 0 0 1 0 15.3" fill="#fff500A4"/><path d="M311.2-96.4a7.8 7.8 0 1 1 0-15.5 7.8 7.8 0 0 1 0 15.5" fill="#005bbbA5"/><path d="M-119.7-145.7a7.8 7.8 0 1 1 0-15.6 7.8 7.8 0 0 1 0 15.6" fill="#005bbbA6"/><path d="M-118.5-130.3a7.8 7.8 0 1 1 0-15.5 7.8 7.8 0 0 1 0 15.5" fill="#fffA6"/><path d="M-112.8-219.3a7.9 7.9 0 1 1 0-15.8 7.9 7.9 0 0 1 0 15.8" fill="#fff500A8"/><path d="M236.5-330.6a7.9 7.9 0 1 1 0-15.8 7.9 7.9 0 0 1 0 15.8" fill="#c2e1ffA8"/><path d="M-106.2-68.8a7.9 7.9 0 1 1 0-15.8 7.9 7.9 0 0 1 0 15.8" fill="#c2e1ffA8"/><path d="M161.2-369.6a7.9 7.9 0 1 1 0-15.8 7.9 7.9 0 0 1 0 15.8" fill="#c2e1ffA8"/><path d="M13.9 53.9a8 8 0 1 1 0-16 8 8 0 0 1 0 16" fill="#fff500AA"/><path d="M-77.1-12a8.1 8.1 0 1 1 0-16.1 8.1 8.1 0 0 1 0 16.1" fill="#c2e1ffAC"/><path d="M242.8-333.1a8.1 8.1 0 1 1 0-16.2 8.1 8.1 0 0 1 0 16.2" fill="#fffAD"/><path d="M287.7-23.6a8.1 8.1 0 1 1 0-16.3 8.1 8.1 0 0 1 0 16.3" fill="#fffAD"/><path d="M-20.6 41.3a8.2 8.2 0 1 1 0-16.3 8.2 8.2 0 0 1 0 16.3" fill="#c2e1ffAE"/><path d="M-30.3-344a8.2 8.2 0 1 1 0-16.3 8.2 8.2 0 0 1 0 16.3" fill="#005bbbAF"/><path d="M-127.9-186.8a8.2 8.2 0 1 1 0-16.4 8.2 8.2 0 0 1 0 16.4" fill="#c2e1ffAF"/><path d="M53.6 71.9a8.2 8.2 0 1 1 0-16.5 8.2 8.2 0 0 1 0 16.5" fill="#c2e1ffB0"/><path d="M327.6-114.5a8.2 8.2 0 1 1 0-16.5 8.2 8.2 0 0 1 0 16.5" fill="#fff500B0"/><path d="M239.6 31.5a8.3 8.3 0 1 1 0-16.6 8.3 8.3 0 0 1 0 16.6" fill="#005bbbB2"/><path d="M277.8-4.6a8.3 8.3 0 1 1 0-16.7 8.3 8.3 0 0 1 0 16.7" fill="#fffB2"/><path d="M224.3 42.5a8.3 8.3 0 1 1 0-16.7 8.3 8.3 0 0 1 0 16.7" fill="#fff500B2"/><path d="M286.8-15.3a8.4 8.4 0 1 1 0-16.7 8.4 8.4 0 0 1 0 16.7" fill="#fffB2"/><path d="M297.4-278.2a8.4 8.4 0 1 1 0-16.8 8.4 8.4 0 0 1 0 16.8" fill="#fff500B3"/><path d="M-126.5-97.6a8.4 8.4 0 1 1 0-16.8 8.4 8.4 0 0 1 0 16.8" fill="#fff500B3"/><path d="M229.3 41.2a8.5 8.5 0 1 1 0-16.9 8.5 8.5 0 0 1 0 16.9" fill="#fffB5"/><path d="M311.2-52.6a8.5 8.5 0 1 1 0-17 8.5 8.5 0 0 1 0 17" fill="#005bbbB5"/><path d="M44.8-382a8.5 8.5 0 1 1 0-17 8.5 8.5 0 0 1 0 17" fill="#c2e1ffB6"/><path d="M-82.3-301.8a8.5 8.5 0 1 1 0-17 8.5 8.5 0 0 1 0 17" fill="#005bbbB6"/><path d="M323.1-81a8.5 8.5 0 1 1 0-17.1 8.5 8.5 0 0 1 0 17.1" fill="#005bbbB6"/><path d="M-113.6-56.7a8.5 8.5 0 1 1 0-17.1 8.5 8.5 0 0 1 0 17.1" fill="#c2e1ffB6"/><path d="M89.9-388.6a8.5 8.5 0 1 1 0-17.1 8.5 8.5 0 0 1 0 17.1" fill="#005bbbB6"/><path d="M333.2-185a8.6 8.6 0 1 1 0-17.2 8.6 8.6 0 0 1 0 17.2" fill="#005bbbB8"/><path d="M241.9 34a8.6 8.6 0 1 1 0-17.2 8.6 8.6 0 0 1 0 17.2" fill="#fff500B8"/><path d="M228.9 43.3a8.6 8.6 0 1 1 0-17.2 8.6 8.6 0 0 1 0 17.2" fill="#005bbbB9"/><path d="M-109.4-45.7a8.7 8.7 0 1 1 0-17.3 8.7 8.7 0 0 1 0 17.3" fill="#005bbbB9"/><path d="M245.5-339.5a8.7 8.7 0 1 1 0-17.4 8.7 8.7 0 0 1 0 17.4" fill="#fff500BA"/><path d="M208.6 55.7a8.7 8.7 0 1 1 0-17.5 8.7 8.7 0 0 1 0 17.5" fill="#005bbbBA"/><path d="M-32.9-348.8a8.7 8.7 0 1 1 0-17.4 8.7 8.7 0 0 1 0 17.4" fill="#fff500BA"/><path d="M-101-30a8.7 8.7 0 1 1 0-17.5 8.7 8.7 0 0 1 0 17.5" fill="#c2e1ffBB"/><path d="M213-361a8.7 8.7 0 1 1 0-17.5 8.7 8.7 0 0 1 0 17.5" fill="#fff500BB"/><path d="M317.2-246.3a8.7 8.7 0 1 1 0-17.5 8.7 8.7 0 0 1 0 17.5" fill="#005bbbBB"/><path d="M136.9-387a8.9 8.9 0 1 1 0-17.7 8.9 8.9 0 0 1 0 17.7" fill="#fffBE"/><path d="M-132.2-196.8a8.9 8.9 0 1 1 0-17.9 8.9 8.9 0 0 1 0 17.9" fill="#fffBF"/><path d="M301.8-30.9a9 9 0 1 1 0-18 9 9 0 0 1 0 18" fill="#fff500C0"/><path d="M-135.1-134.8a9 9 0 1 1 0-18 9 9 0 0 1 0 18" fill="#c2e1ffC1"/><path d="M-132.8-117.7a9.1 9.1 0 1 1 0-18.2 9.1 9.1 0 0 1 0 18.2" fill="#c2e1ffC3"/><path d="M132.1-386.7a9.1 9.1 0 1 1 0-18.2 9.1 9.1 0 0 1 0 18.2" fill="#005bbbC3"/><path d="M220.9 48.7a9.1 9.1 0 1 1 0-18.2 9.1 9.1 0 0 1 0 18.2" fill="#fff500C3"/><path d="M38.8-380.4a9.1 9.1 0 1 1 0-18.3 9.1 9.1 0 0 1 0 18.3" fill="#fffC4"/><path d="M223.9 45.7a9.2 9.2 0 1 1 0-18.5 9.2 9.2 0 0 1 0 18.5" fill="#fffC6"/><path d="M246.2 29.3a9.3 9.3 0 1 1 0-18.5 9.3 9.3 0 0 1 0 18.5" fill="#c2e1ffC7"/><path d="M143.3-382.2a9.3 9.3 0 1 1 0-18.7 9.3 9.3 0 0 1 0 18.7" fill="#fff500C8"/><path d="M236.6 35.6a9.4 9.4 0 1 1 0-18.7 9.4 9.4 0 0 1 0 18.7" fill="#fffC8"/><path d="M6.7-366.6a9.4 9.4 0 1 1 0-18.7 9.4 9.4 0 0 1 0 18.7" fill="#fffC8"/><path d="M93.2-386a9.4 9.4 0 1 1 0-18.7 9.4 9.4 0 0 1 0 18.7" fill="#c2e1ffC8"/><path d="M328.3-111a9.4 9.4 0 1 1 0-18.8 9.4 9.4 0 0 1 0 18.8" fill="#005bbbCA"/><path d="M257.7 17a9.4 9.4 0 1 1 0-18.8 9.4 9.4 0 0 1 0 18.8" fill="#fff500CA"/><path d="M275.6-1.7a9.4 9.4 0 1 1 0-18.9 9.4 9.4 0 0 1 0 18.9" fill="#005bbbCA"/><path d="M-126.7-199.1a9.5 9.5 0 1 1 0-18.9 9.5 9.5 0 0 1 0 18.9" fill="#c2e1ffCB"/><path d="M-119.9-82.6a9.5 9.5 0 1 1 0-19 9.5 9.5 0 0 1 0 19" fill="#fff500CB"/><path d="M84.6 77.3a9.5 9.5 0 1 1 0-19 9.5 9.5 0 0 1 0 19" fill="#fffCB"/><path d="M4.5 57a9.5 9.5 0 1 1 0-19 9.5 9.5 0 0 1 0 19" fill="#fff500CC"/><path d="M325.9-199.6a9.5 9.5 0 1 1 0-19 9.5 9.5 0 0 1 0 19" fill="#fffCC"/><path d="M207.9 49.6a9.6 9.6 0 1 1 0-19.1 9.6 9.6 0 0 1 0 19.1" fill="#c2e1ffCD"/><path d="M276.6-7.2a9.6 9.6 0 1 1 0-19.2 9.6 9.6 0 0 1 0 19.2" fill="#fff500CE"/><path d="M-87.2-21.3a9.6 9.6 0 1 1 0-19.2 9.6 9.6 0 0 1 0 19.2" fill="#005bbbCE"/><path d="M265.7 2a9.7 9.7 0 1 1 0-19.4 9.7 9.7 0 0 1 0 19.4" fill="#fffD0"/><path d="M186.9-360.7a9.7 9.7 0 1 1 0-19.5 9.7 9.7 0 0 1 0 19.5" fill="#fff500D1"/><path d="M31.8 59.4a9.8 9.8 0 1 1 0-19.6 9.8 9.8 0 0 1 0 19.6" fill="#fff500D3"/><path d="M107.6-373.1a9.9 9.9 0 1 1 0-19.8 9.9 9.9 0 0 1 0 19.8" fill="#fff500D5"/><path d="M66.5-370.1a9.9 9.9 0 1 1 0-19.9 9.9 9.9 0 0 1 0 19.9" fill="#c2e1ffD5"/><path d="M-74.9-286.2a9.9 9.9 0 1 1 0-19.9 9.9 9.9 0 0 1 0 19.9" fill="#005bbbD5"/><path d="M319.6-145.3a9.9 9.9 0 1 1 0-19.9 9.9 9.9 0 0 1 0 19.9" fill="#c2e1ffD5"/><path d="M187.2-347.7a10.1 10.1 0 1 1 0-20.2 10.1 10.1 0 0 1 0 20.2" fill="#c2e1ffD9"/><path d="M66.6-359.5a10.2 10.2 0 1 1 0-20.4 10.2 10.2 0 0 1 0 20.4" fill="#fff500DB"/><path d="M-81-256.9a10.2 10.2 0 1 1 0-20.5 10.2 10.2 0 0 1 0 20.5" fill="#005bbbDC"/><path d="M271.2-264.5a10.3 10.3 0 1 1 0-20.6 10.3 10.3 0 0 1 0 20.6" fill="#fffDE"/><path d="M137.9 48.5a10.3 10.3 0 1 1 0-20.7 10.3 10.3 0 0 1 0 20.7" fill="#c2e1ffDE"/><path d="M301.5-152.1a10.4 10.4 0 1 1 0-20.8 10.4 10.4 0 0 1 0 20.8" fill="#fff500DF"/><path d="M-99.6-167.9a10.4 10.4 0 1 1 0-20.9 10.4 10.4 0 0 1 0 20.9" fill="#005bbbE0"/><path d="M6.3 20.6a10.5 10.5 0 1 1 0-21 10.5 10.5 0 0 1 0 21" fill="#005bbbE2"/><path d="M-81.5-81.3a10.5 10.5 0 1 1 0-21 10.5 10.5 0 0 1 0 21" fill="#c2e1ffE2"/><path d="M108.9 41.2a10.6 10.6 0 1 1 0-21.1 10.6 10.6 0 0 1 0 21.1" fill="#005bbbE3"/><path d="M263.6-49.7a10.6 10.6 0 1 1 0-21.1 10.6 10.6 0 0 1 0 21.1" fill="#c2e1ffE3"/><path d="M8.6-319.8a10.6 10.6 0 1 1 0-21.1 10.6 10.6 0 0 1 0 21.1" fill="#c2e1ffE4"/><path d="M213.5 0.9a10.6 10.6 0 1 1 0-21.2 10.6 10.6 0 0 1 0 21.2" fill="#fff500E4"/><path d="M270.9-232.7a10.6 10.6 0 1 1 0-21.2 10.6 10.6 0 0 1 0 21.2" fill="#fff500E4"/><path d="M238-24.9a10.7 10.7 0 1 1 0-21.3 10.7 10.7 0 0 1 0 21.3" fill="#005bbbE5"/><path d="M182.8 15.6a10.7 10.7 0 1 1 0-21.3 10.7 10.7 0 0 1 0 21.3" fill="#fff500E5"/><path d="M228.6-280.7a10.7 10.7 0 1 1 0-21.5 10.7 10.7 0 0 1 0 21.5" fill="#005bbbE7"/><path d="M-59.1-63.8a10.7 10.7 0 1 1 0-21.5 10.7 10.7 0 0 1 0 21.5" fill="#c2e1ffE7"/><path d="M139.6-324.4a10.8 10.8 0 1 1 0-21.7 10.8 10.8 0 0 1 0 21.7" fill="#fff500E8"/><path d="M242.6-50.5a10.8 10.8 0 1 1 0-21.7 10.8 10.8 0 0 1 0 21.7" fill="#005bbbE9"/><path d="M244.8-243.7a10.9 10.9 0 1 1 0-21.8 10.9 10.9 0 0 1 0 21.8" fill="#fff500EA"/><path d="M191.2-297a10.9 10.9 0 1 1 0-21.7 10.9 10.9 0 0 1 0 21.7" fill="#fff500EA"/><path d="M195.5-290.3a10.9 10.9 0 1 1 0-21.9 10.9 10.9 0 0 1 0 21.9" fill="#005bbbEB"/><path d="M-36.5-249.1a10.9 10.9 0 1 1 0-21.9 10.9 10.9 0 0 1 0 21.9" fill="#c2e1ffEB"/><path d="M-32.4-253.3a10.9 10.9 0 1 1 0-21.9 10.9 10.9 0 0 1 0 21.9" fill="#fff500EB"/><path d="M10.9-11.7a11 11 0 1 1 0-22 11 11 0 0 1 0 22" fill="#fff500EC"/><path d="M34.6-301.9a11 11 0 1 1 0-22 11 11 0 0 1 0 22" fill="#c2e1ffEC"/><path d="M259.6-132.2a11 11 0 1 1 0-22.1 11 11 0 0 1 0 22.1" fill="#fff500ED"/><path d="M100.4 9.1a11 11 0 1 1 0-22 11 11 0 0 1 0 22" fill="#005bbbED"/><path d="M-19.4-256.8a11 11 0 1 1 0-22 11 11 0 0 1 0 22" fill="#fffEE"/><path d="M258.9-148.1a11 11 0 1 1 0-22.1 11 11 0 0 1 0 22.1" fill="#fffEE"/><path d="M221.5-253.5a11 11 0 1 1 0-22.1 11 11 0 0 1 0 22.1" fill="#005bbbEE"/><path d="M238.4-222.8a11.1 11.1 0 1 1 0-22.2 11.1 11.1 0 0 1 0 22.2" fill="#c2e1ffEE"/><path d="M238.8-212.7a11.1 11.1 0 1 1 0-22.3 11.1 11.1 0 0 1 0 22.3" fill="#fff500EF"/><path d="M240.9-100.3a11.1 11.1 0 1 1 0-22.3 11.1 11.1 0 0 1 0 22.3" fill="#fffF0"/><path d="M101.6-2.1a11.1 11.1 0 1 1 0-22.3 11.1 11.1 0 0 1 0 22.3" fill="#005bbbF0"/><path d="M15.8-29a11.2 11.2 0 1 1 0-22.4 11.2 11.2 0 0 1 0 22.4" fill="#fff500F0"/><path d="M-17.7-65a11.2 11.2 0 1 1 0-22.3 11.2 11.2 0 0 1 0 22.3" fill="#fff500F1"/><path d="M100.6-292.8a11.2 11.2 0 1 1 0-22.5 11.2 11.2 0 0 1 0 22.5" fill="#005bbbF2"/><path d="M196.3-64.2a11.3 11.3 0 1 1 0-22.6 11.3 11.3 0 0 1 0 22.6" fill="#005bbbF4"/><path d="M212.7-98.3a11.4 11.4 0 1 1 0-22.7 11.4 11.4 0 0 1 0 22.7" fill="#c2e1ffF5"/><path d="M45.5-45.4a11.4 11.4 0 1 1 0-22.8 11.4 11.4 0 0 1 0 22.8" fill="#005bbbF6"/><path d="M-10.4-192.7a11.4 11.4 0 1 1 0-22.9 11.4 11.4 0 0 1 0 22.9" fill="#c2e1ffF6"/><path d="M162.1-54.1a11.4 11.4 0 1 1 0-22.9 11.4 11.4 0 0 1 0 22.9" fill="#005bbbF6"/><path d="M182.8-86.4a11.5 11.5 0 1 1 0-23 11.5 11.5 0 0 1 0 23" fill="#fff500F8"/><path d="M13.1-204a11.5 11.5 0 1 1 0-23 11.5 11.5 0 0 1 0 23" fill="#c2e1ffF8"/><path d="M115.4-250.6a11.5 11.5 0 1 1 0-23 11.5 11.5 0 0 1 0 23" fill="#fffF8"/><path d="M109.4-51a11.5 11.5 0 1 1 0-23.1 11.5 11.5 0 0 1 0 23.1" fill="#005bbbF8"/><path d="M110.3-242.7a11.6 11.6 0 1 1 0-23.2 11.6 11.6 0 0 1 0 23.2" fill="#fffF9"/><path d="M187.7-123.5a11.6 11.6 0 1 1 0-23.1 11.6 11.6 0 0 1 0 23.1" fill="#fffF9"/><path d="M61.4-69.3a11.6 11.6 0 1 1 0-23.2 11.6 11.6 0 0 1 0 23.2" fill="#fffFA"/><path d="M105.9-60.9a11.6 11.6 0 1 1 0-23.2 11.6 11.6 0 0 1 0 23.2" fill="#fff500FA"/><path d="M59.3-77.7a11.6 11.6 0 1 1 0-23.2 11.6 11.6 0 0 1 0 23.2" fill="#c2e1ffFA"/><path d="M141.6-178.7a11.7 11.7 0 1 1 0-23.5 11.7 11.7 0 0 1 0 23.5" fill="#fff500FD"/></g></svg>