<svg width="1200" height="675" viewBox="-500 -500 1200 675" xmlns="http://www.w3.org/2000/svg"><path d="M-500-500h1200v675h-1200z" fill="#000"/><style>.sparkles path{stroke-linecap:round; stroke-width:1}</style><g class="sparkles"><path d="M100-162.5l-24.5-10.7" stroke="#005bbb32"/><path d="M100-162.5l-27.7-12.7" stroke="#c2e1ff32"/><path d="M100-162.5l-66.6-15.9" stroke="#c2e1ff34"/><path d="M100-162.5l60.1 34.9" stroke="#c2e1ff34"/><path d="M100-162.5l56.6-45.5" stroke="#c2e1ff34"/><path d="M100-162.5l-71.3-25.9" stroke="#c2e1ff34"/><path d="M100-162.5l39.7 66.1" stroke="#fff34"/><path d="M100-162.5l61.2 47.7" stroke="#fff50034"/><path d="M100-162.5l19.1 86" stroke="#fff35"/><path d="M100-162.5l74.8 73" stroke="#005bbb37"/><path d="M100-162.5l-74.7 86.3" stroke="#005bbb38"/><path d="M100-162.5l66.8 97.2" stroke="#005bbb38"/><path d="M100-162.5l-90-76.2" stroke="#fff50038"/><path d="M100-162.5l-59.8 107.9" stroke="#005bbb39"/><path d="M100-162.5l-23.9 124.3" stroke="#005bbb39"/><path d="M100-162.5l-17.8-128.1" stroke="#fff5003A"/><path d="M100-162.5l98.1-87.7" stroke="#fff3A"/><path d="M100-162.5l128.1 34.9" stroke="#c2e1ff3A"/><path d="M100-162.5l132 46.2" stroke="#c2e1ff3B"/><path d="M100-162.5l139.9 36" stroke="#c2e1ff3C"/><path d="M100-162.5l132.4 60.1" stroke="#c2e1ff3C"/><path d="M100-162.5l-90.1 116.3" stroke="#005bbb3C"/><path d="M100-162.5l-49 144.4" stroke="#fff5003D"/><path d="M100-162.5l-147.8 50.3" stroke="#c2e1ff3E"/><path d="M100-162.5l-158.3 10.4" stroke="#c2e1ff3E"/><path d="M100-162.5l-19.1 162.4" stroke="#c2e1ff3F"/><path d="M100-162.5l148.1-75.6" stroke="#005bbb40"/><path d="M100-162.5l-167.9-13.1" stroke="#c2e1ff40"/><path d="M100-162.5l155.9 65.1" stroke="#fff41"/><path d="M100-162.5l163.4-47.4" stroke="#fff41"/><path d="M100-162.5l-13.5 178.3" stroke="#fff43"/><path d="M100-162.5l-74.1-169.2" stroke="#c2e1ff44"/><path d="M100-162.5l28.7-182.7" stroke="#fff44"/><path d="M100-162.5l-186.2 16.8" stroke="#005bbb45"/><path d="M100-162.5l-36-184.5" stroke="#fff50045"/><path d="M100-162.5l189.1 0" stroke="#c2e1ff46"/><path d="M100-162.5l-172.5 79.6" stroke="#fff50046"/><path d="M100-162.5l-144.4-130.6" stroke="#fff50047"/><path d="M100-162.5l98.8-170.8" stroke="#fff48"/><path d="M100-162.5l-145.3 135.5" stroke="#c2e1ff48"/><path d="M100-162.5l-65.2-189.4" stroke="#fff50049"/><path d="M100-162.5l-150.4-133" stroke="#c2e1ff49"/><path d="M100-162.5l78.4-185.9" stroke="#005bbb49"/><path d="M100-162.5l200.8 33.6" stroke="#c2e1ff4A"/><path d="M100-162.5l-61.1 195" stroke="#005bbb4A"/><path d="M100-162.5l49.7 200.5" stroke="#005bbb4B"/><path d="M100-162.5l-169.5-118.7" stroke="#005bbb4B"/><path d="M100-162.5l70.5 194.5" stroke="#005bbb4B"/><path d="M100-162.5l195.1 71.1" stroke="#fff4C"/><path d="M100-162.5l39 206.5" stroke="#fff4D"/><path d="M100-162.5l141.3-157.8" stroke="#fff4D"/><path d="M100-162.5l-142.8 156.6" stroke="#fff4D"/><path d="M100-162.5l-179.2 114.2" stroke="#005bbb4E"/><path d="M100-162.5l-3.1 212.7" stroke="#fff5004E"/><path d="M100-162.5l140.7 163.6" stroke="#c2e1ff4F"/><path d="M100-162.5l-166.8 137.3" stroke="#c2e1ff4F"/><path d="M100-162.5l-213.4-48.1" stroke="#fff50051"/><path d="M100-162.5l211.1 66.1" stroke="#c2e1ff52"/><path d="M100-162.5l150.7-164.5" stroke="#fff53"/><path d="M100-162.5l-183.7 127.7" stroke="#fff53"/><path d="M100-162.5l132.4-182.7" stroke="#c2e1ff55"/><path d="M100-162.5l-28.1-224.2" stroke="#c2e1ff55"/><path d="M100-162.5l-153.8 166.5" stroke="#c2e1ff55"/><path d="M100-162.5l-204.2 99.8" stroke="#fff56"/><path d="M100-162.5l131.8 185.2" stroke="#fff56"/><path d="M100-162.5l191.7-123" stroke="#fff56"/><path d="M100-162.5l-181.4-139.6" stroke="#fff57"/><path d="M100-162.5l140.5-183.3" stroke="#fff50059"/><path d="M100-162.5l181.1 146.8" stroke="#c2e1ff5B"/><path d="M100-162.5l-210.3 102.2" stroke="#c2e1ff5C"/><path d="M100-162.5l41.7 230.5" stroke="#fff5005D"/><path d="M100-162.5l58.3 227" stroke="#fff5005D"/><path d="M100-162.5l-230.7 45.7" stroke="#fff5005F"/><path d="M100-162.5l-166.3-166.4" stroke="#c2e1ff5F"/><path d="M100-162.5l90.3-217.3" stroke="#005bbb5F"/><path d="M100-162.5l-5.1 235.5" stroke="#fff60"/><path d="M100-162.5l-35.6-233.1" stroke="#c2e1ff61"/><path d="M100-162.5l-1.1-235.9" stroke="#c2e1ff61"/><path d="M100-162.5l77.1-223.1" stroke="#fff50062"/><path d="M100-162.5l-141.3 189.2" stroke="#c2e1ff62"/><path d="M100-162.5l-235.5 18.1" stroke="#005bbb63"/><path d="M100-162.5l-187.8 143.3" stroke="#fff50063"/><path d="M100-162.5l213 102.1" stroke="#fff63"/><path d="M100-162.5l106.2 211" stroke="#fff50063"/><path d="M100-162.5l173.7-160.2" stroke="#005bbb63"/><path d="M100-162.5l79.3-222.5" stroke="#c2e1ff63"/><path d="M100-162.5l172 161.9" stroke="#c2e1ff64"/><path d="M100-162.5l-72.1 224.9" stroke="#fff50064"/><path d="M100-162.5l176.9 156.5" stroke="#005bbb64"/><path d="M100-162.5l-185.4 146.3" stroke="#fff64"/><path d="M100-162.5l89.5-218.6" stroke="#fff50065"/><path d="M100-162.5l-133.9 194.6" stroke="#fff50065"/><path d="M100-162.5l223.3 76.8" stroke="#005bbb65"/><path d="M100-162.5l182.3-149.9" stroke="#fff50066"/><path d="M100-162.5l190.6 139.2" stroke="#c2e1ff66"/><path d="M100-162.5l222.1-79" stroke="#fff50067"/><path d="M100-162.5l-3.9 235.6" stroke="#005bbb67"/><path d="M100-162.5l-29.8 233.2" stroke="#c2e1ff68"/><path d="M100-162.5l-103.3 211.1" stroke="#fff50069"/><path d="M100-162.5l-180.5 150.2" stroke="#fff50069"/><path d="M100-162.5l-232.7-26.5" stroke="#005bbb6A"/><path d="M100-162.5l85.2-218.2" stroke="#c2e1ff6A"/><path d="M100-162.5l153.4-176.9" stroke="#c2e1ff6A"/><path d="M100-162.5l-218.6-83.5" stroke="#005bbb6A"/><path d="M100-162.5l-228 50.8" stroke="#005bbb6B"/><path d="M100-162.5l-103.5-207.8" stroke="#005bbb6D"/><path d="M100-162.5l-164 164.3" stroke="#005bbb6D"/><path d="M100-162.5l215 85.8" stroke="#005bbb6D"/><path d="M100-162.5l103.8-206.8" stroke="#005bbb6E"/><path d="M100-162.5l112.6-201.9" stroke="#fff5006E"/><path d="M100-162.5l-207.2 100.3" stroke="#005bbb6F"/><path d="M100-162.5l154.4 167.8" stroke="#fff50071"/><path d="M100-162.5l-218.1 65.8" stroke="#fff50071"/><path d="M100-162.5l40.5 223.6" stroke="#fff71"/><path d="M100-162.5l118.3 190.7" stroke="#fff73"/><path d="M100-162.5l-70.2 212.8" stroke="#005bbb73"/><path d="M100-162.5l-141.2 172.6" stroke="#fff50074"/><path d="M100-162.5l130.6 177.5" stroke="#fff50076"/><path d="M100-162.5l168.4 138.3" stroke="#c2e1ff77"/><path d="M100-162.5l-91.6 196.1" stroke="#005bbb78"/><path d="M100-162.5l-198-86.3" stroke="#005bbb78"/><path d="M100-162.5l-82.9 199.2" stroke="#005bbb78"/><path d="M100-162.5l-204.5 62.8" stroke="#005bbb79"/><path d="M100-162.5l104.1-186.1" stroke="#005bbb79"/><path d="M100-162.5l130.8 167.4" stroke="#fff79"/><path d="M100-162.5l108.7-182.1" stroke="#fff7A"/><path d="M100-162.5l209.2-6.8" stroke="#fff5007B"/><path d="M100-162.5l95.4 185.5" stroke="#fff5007B"/><path d="M100-162.5l78.7-193" stroke="#c2e1ff7B"/><path d="M100-162.5l197.2-64.5" stroke="#c2e1ff7B"/><path d="M100-162.5l-124.3-163.4" stroke="#c2e1ff7C"/><path d="M100-162.5l-88.4-183.3" stroke="#c2e1ff7D"/><path d="M100-162.5l-34.1 199.3" stroke="#005bbb7D"/><path d="M100-162.5l171.1 107.8" stroke="#fff5007D"/><path d="M100-162.5l159.1 123.8" stroke="#005bbb7E"/><path d="M100-162.5l193.2-50.2" stroke="#c2e1ff7E"/><path d="M100-162.5l-129.2 152.1" stroke="#c2e1ff7E"/><path d="M100-162.5l-1.1 198.9" stroke="#c2e1ff7E"/><path d="M100-162.5l129.9 149" stroke="#005bbb7F"/><path d="M100-162.5l-103.3-166.5" stroke="#c2e1ff7F"/><path d="M100-162.5l-62.4-183.2" stroke="#fff50080"/><path d="M100-162.5l-169.4-87.9" stroke="#c2e1ff81"/><path d="M100-162.5l-178.7-54.8" stroke="#005bbb82"/><path d="M100-162.5l178.7-54.4" stroke="#fff82"/><path d="M100-162.5l76-167.8" stroke="#fff83"/><path d="M100-162.5l-64.5 171.8" stroke="#c2e1ff83"/><path d="M100-162.5l-176.7 38.4" stroke="#c2e1ff84"/><path d="M100-162.5l65-161.7" stroke="#fff85"/><path d="M100-162.5l-37.8-168.4" stroke="#fff50086"/><path d="M100-162.5l88.3 143.6" stroke="#c2e1ff87"/><path d="M100-162.5l-164.1 37.6" stroke="#fff50087"/><path d="M100-162.5l-101.3-129.2" stroke="#fff50087"/><path d="M100-162.5l104.1 116.1" stroke="#005bbb89"/><path d="M100-162.5l112.3-107.3" stroke="#fff50089"/><path d="M100-162.5l146.7-9" stroke="#fff5008B"/><path d="M100-162.5l-73.5 124" stroke="#fff8B"/><path d="M100-162.5l36.3-132.9" stroke="#c2e1ff8C"/><path d="M100-162.5l-71.7 111.3" stroke="#fff5008D"/><path d="M100-162.5l-48.9 121.8" stroke="#fff8D"/><path d="M100-162.5l-129.6 14.2" stroke="#005bbb8D"/><path d="M100-162.5l-19.9-127.3" stroke="#c2e1ff8D"/><path d="M100-162.5l76-102.9" stroke="#005bbb8E"/><path d="M100-162.5l-19.8-123" stroke="#005bbb8E"/><path d="M100-162.5l28-120.4" stroke="#c2e1ff8E"/><path d="M100-162.5l26.1-118.5" stroke="#fff5008E"/><path d="M100-162.5l119.5 19.9" stroke="#005bbb8E"/><path d="M100-162.5l-82.2-85.4" stroke="#005bbb8F"/><path d="M100-162.5l88.7 78.6" stroke="#c2e1ff8F"/><path d="M100-162.5l-44.2 105.2" stroke="#fff8F"/><path d="M100-162.5l-16 109.6" stroke="#fff50090"/><path d="M100-162.5l-7.7 108.2" stroke="#fff90"/><path d="M100-162.5l-1.6 108.2" stroke="#fff90"/><path d="M100-162.5l39.9 100.5" stroke="#c2e1ff90"/><path d="M100-162.5l82.8-31.1" stroke="#fff50092"/><path d="M100-162.5l-82.3 28.7" stroke="#fff50092"/><path d="M100-162.5l-56.3-65.4" stroke="#c2e1ff92"/><path d="M100-162.5l75.5 20.8" stroke="#005bbb93"/><path d="M100-162.5l-55 42.8" stroke="#fff93"/><path d="M100-162.5l54.5-3.4" stroke="#c2e1ff94"/><path d="M100-162.5l-38.4-22.9" stroke="#005bbb95"/><path d="M100-162.5l-32.3 12.5" stroke="#005bbb95"/></g><g class="sparcs"><path d="M75.5-167.3a5.9 5.9 0 1 1 0-11.8 5.9 5.9 0 0 1 0 11.8" fill="#fff5007D"/><path d="M72.3-169.2a5.9 5.9 0 1 1 0-11.9 5.9 5.9 0 0 1 0 11.9" fill="#005bbb7D"/><path d="M33.4-172.4a6 6 0 1 1 0-12.1 6 6 0 0 1 0 12.1" fill="#fff7F"/><path d="M160.1-121.5a6 6 0 1 1 0-12.1 6 6 0 0 1 0 12.1" fill="#fff5007F"/><path d="M156.6-202a6 6 0 1 1 0-12.1 6 6 0 0 1 0 12.1" fill="#fff50080"/><path d="M28.7-182.4a6.1 6.1 0 1 1 0-12.1 6.1 6.1 0 0 1 0 12.1" fill="#fff50080"/><path d="M139.7-90.3a6.1 6.1 0 1 1 0-12.2 6.1 6.1 0 0 1 0 12.2" fill="#fff50080"/><path d="M161.2-108.8a6.1 6.1 0 1 1 0-12.1 6.1 6.1 0 0 1 0 12.1" fill="#005bbb80"/><path d="M119.1-70.3a6.1 6.1 0 1 1 0-12.3 6.1 6.1 0 0 1 0 12.3" fill="#005bbb81"/><path d="M174.8-83.3a6.2 6.2 0 1 1 0-12.4 6.2 6.2 0 0 1 0 12.4" fill="#c2e1ff83"/><path d="M25.3-69.9a6.3 6.3 0 1 1 0-12.6 6.3 6.3 0 0 1 0 12.6" fill="#fff50085"/><path d="M166.8-59a6.3 6.3 0 1 1 0-12.6 6.3 6.3 0 0 1 0 12.6" fill="#fff50085"/><path d="M10-232.4a6.3 6.3 0 1 1 0-12.6 6.3 6.3 0 0 1 0 12.6" fill="#c2e1ff85"/><path d="M40.2-48.3a6.3 6.3 0 1 1 0-12.7 6.3 6.3 0 0 1 0 12.7" fill="#fff86"/><path d="M76.1-31.9a6.4 6.4 0 1 1 0-12.7 6.4 6.4 0 0 1 0 12.7" fill="#005bbb87"/><path d="M82.2-284.2a6.4 6.4 0 1 1 0-12.8 6.4 6.4 0 0 1 0 12.8" fill="#fff50087"/><path d="M198.1-243.8a6.4 6.4 0 1 1 0-12.8 6.4 6.4 0 0 1 0 12.8" fill="#c2e1ff88"/><path d="M228.1-121.2a6.4 6.4 0 1 1 0-12.8 6.4 6.4 0 0 1 0 12.8" fill="#005bbb88"/><path d="M232-109.8a6.5 6.5 0 1 1 0-13 6.5 6.5 0 0 1 0 13" fill="#fff50089"/><path d="M239.9-120a6.5 6.5 0 1 1 0-13 6.5 6.5 0 0 1 0 13" fill="#c2e1ff8A"/><path d="M232.4-95.9a6.5 6.5 0 1 1 0-13 6.5 6.5 0 0 1 0 13" fill="#c2e1ff8A"/><path d="M9.9-39.7a6.5 6.5 0 1 1 0-13.1 6.5 6.5 0 0 1 0 13.1" fill="#c2e1ff8B"/><path d="M51-11.5a6.6 6.6 0 1 1 0-13.2 6.6 6.6 0 0 1 0 13.2" fill="#fff5008C"/><path d="M-47.8-105.5a6.6 6.6 0 1 1 0-13.3 6.6 6.6 0 0 1 0 13.3" fill="#c2e1ff8D"/><path d="M-58.3-145.4a6.7 6.7 0 1 1 0-13.4 6.7 6.7 0 0 1 0 13.4" fill="#c2e1ff8D"/><path d="M80.9 6.7a6.7 6.7 0 1 1 0-13.5 6.7 6.7 0 0 1 0 13.5" fill="#fff8F"/><path d="M248.1-231.4a6.8 6.8 0 1 1 0-13.5 6.8 6.8 0 0 1 0 13.5" fill="#fff5008F"/><path d="M-67.9-168.8a6.8 6.8 0 1 1 0-13.6 6.8 6.8 0 0 1 0 13.6" fill="#fff90"/><path d="M255.9-90.6a6.8 6.8 0 1 1 0-13.6 6.8 6.8 0 0 1 0 13.6" fill="#005bbb90"/><path d="M263.4-203.1a6.8 6.8 0 1 1 0-13.7 6.8 6.8 0 0 1 0 13.7" fill="#c2e1ff90"/><path d="M86.5 22.8a6.9 6.9 0 1 1 0-13.9 6.9 6.9 0 0 1 0 13.9" fill="#fff50093"/><path d="M25.9-324.6a7 7 0 1 1 0-14.1 7 7 0 0 1 0 14.1" fill="#fff95"/><path d="M128.7-338.2a7 7 0 1 1 0-14 7 7 0 0 1 0 14" fill="#c2e1ff95"/><path d="M-86.2-138.7a7.1 7.1 0 1 1 0-14.1 7.1 7.1 0 0 1 0 14.1" fill="#c2e1ff96"/><path d="M64-339.9a7.1 7.1 0 1 1 0-14.2 7.1 7.1 0 0 1 0 14.2" fill="#fff96"/><path d="M289.1-155.4a7.1 7.1 0 1 1 0-14.2 7.1 7.1 0 0 1 0 14.2" fill="#c2e1ff97"/><path d="M-72.5-75.8a7.1 7.1 0 1 1 0-14.2 7.1 7.1 0 0 1 0 14.2" fill="#fff50097"/><path d="M-44.4-285.9a7.2 7.2 0 1 1 0-14.3 7.2 7.2 0 0 1 0 14.3" fill="#fff99"/><path d="M198.8-326a7.2 7.2 0 1 1 0-14.5 7.2 7.2 0 0 1 0 14.5" fill="#c2e1ff9A"/><path d="M-45.3-19.7a7.3 7.3 0 1 1 0-14.6 7.3 7.3 0 0 1 0 14.6" fill="#c2e1ff9A"/><path d="M34.8-344.6a7.3 7.3 0 1 1 0-14.6 7.3 7.3 0 0 1 0 14.6" fill="#fff5009B"/><path d="M-50.4-288.2a7.3 7.3 0 1 1 0-14.6 7.3 7.3 0 0 1 0 14.6" fill="#fff5009B"/><path d="M178.4-341a7.3 7.3 0 1 1 0-14.7 7.3 7.3 0 0 1 0 14.7" fill="#fff9C"/><path d="M300.8-121.5a7.4 7.4 0 1 1 0-14.7 7.4 7.4 0 0 1 0 14.7" fill="#c2e1ff9D"/><path d="M38.9 39.9a7.4 7.4 0 1 1 0-14.8 7.4 7.4 0 0 1 0 14.8" fill="#c2e1ff9D"/><path d="M149.7 45.4a7.4 7.4 0 1 1 0-14.8 7.4 7.4 0 0 1 0 14.8" fill="#005bbb9E"/><path d="M-69.5-273.7a7.4 7.4 0 1 1 0-14.9 7.4 7.4 0 0 1 0 14.9" fill="#fff5009E"/><path d="M170.5 39.4a7.4 7.4 0 1 1 0-14.8 7.4 7.4 0 0 1 0 14.8" fill="#fff5009E"/><path d="M295.1-83.9a7.5 7.5 0 1 1 0-14.9 7.5 7.5 0 0 1 0 14.9" fill="#c2e1ff9F"/><path d="M139 51.5a7.5 7.5 0 1 1 0-15 7.5 7.5 0 0 1 0 15" fill="#fffA0"/><path d="M241.3-312.8a7.6 7.6 0 1 1 0-15.1 7.6 7.6 0 0 1 0 15.1" fill="#fffA1"/><path d="M-42.8 1.7a7.6 7.6 0 1 1 0-15.1 7.6 7.6 0 0 1 0 15.1" fill="#c2e1ffA1"/><path d="M-79.2-40.7a7.6 7.6 0 1 1 0-15.2 7.6 7.6 0 0 1 0 15.2" fill="#fffA1"/><path d="M96.9 57.8a7.6 7.6 0 1 1 0-15.1 7.6 7.6 0 0 1 0 15.1" fill="#c2e1ffA1"/><path d="M240.7 8.7a7.7 7.7 0 1 1 0-15.3 7.7 7.7 0 0 1 0 15.3" fill="#c2e1ffA3"/><path d="M-66.8-17.6a7.7 7.7 0 1 1 0-15.3 7.7 7.7 0 0 1 0 15.3" fill="#fff500A3"/><path d="M-113.4-202.8a7.7 7.7 0 1 1 0-15.5 7.7 7.7 0 0 1 0 15.5" fill="#fff500A5"/><path d="M311.1-88.6a7.8 7.8 0 1 1 0-15.6 7.8 7.8 0 0 1 0 15.6" fill="#fff500A7"/><path d="M250.7-319.1a7.9 7.9 0 1 1 0-15.8 7.9 7.9 0 0 1 0 15.8" fill="#fff500A8"/><path d="M-83.7-26.9a7.9 7.9 0 1 1 0-15.8 7.9 7.9 0 0 1 0 15.8" fill="#fffA9"/><path d="M232.4-337.2a8 8 0 1 1 0-15.9 8 8 0 0 1 0 15.9" fill="#fff500AA"/><path d="M71.9-378.7a8 8 0 1 1 0-16 8 8 0 0 1 0 16" fill="#fff500AB"/><path d="M-53.8 12.1a8 8 0 1 1 0-16.1 8 8 0 0 1 0 16.1" fill="#fff500AB"/><path d="M-104.2-54.6a8.1 8.1 0 1 1 0-16.2 8.1 8.1 0 0 1 0 16.2" fill="#fffAC"/><path d="M231.8 30.8a8.1 8.1 0 1 1 0-16.2 8.1 8.1 0 0 1 0 16.2" fill="#005bbbAC"/><path d="M291.7-277.4a8.1 8.1 0 1 1 0-16.2 8.1 8.1 0 0 1 0 16.2" fill="#fffAC"/><path d="M-81.4-293.9a8.1 8.1 0 1 1 0-16.3 8.1 8.1 0 0 1 0 16.3" fill="#005bbbAD"/><path d="M240.5-337.5a8.2 8.2 0 1 1 0-16.5 8.2 8.2 0 0 1 0 16.5" fill="#fff500B0"/><path d="M281.1-7.4a8.4 8.4 0 1 1 0-16.7 8.4 8.4 0 0 1 0 16.7" fill="#c2e1ffB3"/><path d="M-110.3-51.9a8.4 8.4 0 1 1 0-16.8 8.4 8.4 0 0 1 0 16.8" fill="#fffB4"/><path d="M141.7 76.5a8.5 8.5 0 1 1 0-16.9 8.5 8.5 0 0 1 0 16.9" fill="#fff500B5"/><path d="M158.3 73a8.5 8.5 0 1 1 0-17 8.5 8.5 0 0 1 0 17" fill="#fff500B5"/><path d="M-130.7-108.3a8.6 8.6 0 1 1 0-17.1 8.6 8.6 0 0 1 0 17.1" fill="#fff500B7"/><path d="M-66.3-320.3a8.6 8.6 0 1 1 0-17.2 8.6 8.6 0 0 1 0 17.2" fill="#c2e1ffB8"/><path d="M190.3-371.2a8.6 8.6 0 1 1 0-17.2 8.6 8.6 0 0 1 0 17.2" fill="#fff500B8"/><path d="M94.9 81.7a8.6 8.6 0 1 1 0-17.3 8.6 8.6 0 0 1 0 17.3" fill="#005bbbB9"/><path d="M64.4-387a8.7 8.7 0 1 1 0-17.3 8.7 8.7 0 0 1 0 17.3" fill="#fff500BA"/><path d="M98.9-389.7a8.7 8.7 0 1 1 0-17.4 8.7 8.7 0 0 1 0 17.4" fill="#c2e1ffBA"/><path d="M177.1-376.9a8.7 8.7 0 1 1 0-17.5 8.7 8.7 0 0 1 0 17.5" fill="#fff500BB"/><path d="M-41.3 35.5a8.8 8.8 0 1 1 0-17.5 8.8 8.8 0 0 1 0 17.5" fill="#fffBC"/><path d="M-135.5-135.6a8.8 8.8 0 1 1 0-17.6 8.8 8.8 0 0 1 0 17.6" fill="#fff500BD"/><path d="M-87.8-10.4a8.8 8.8 0 1 1 0-17.7 8.8 8.8 0 0 1 0 17.7" fill="#005bbbBD"/><path d="M313-51.6a8.8 8.8 0 1 1 0-17.6 8.8 8.8 0 0 1 0 17.6" fill="#005bbbBD"/><path d="M206.2 57.4a8.8 8.8 0 1 1 0-17.7 8.8 8.8 0 0 1 0 17.7" fill="#fffBD"/><path d="M273.7-313.8a8.8 8.8 0 1 1 0-17.7 8.8 8.8 0 0 1 0 17.7" fill="#005bbbBD"/><path d="M179.3-376.2a8.8 8.8 0 1 1 0-17.7 8.8 8.8 0 0 1 0 17.7" fill="#c2e1ffBD"/><path d="M272 8.3a8.9 8.9 0 1 1 0-17.8 8.9 8.9 0 0 1 0 17.8" fill="#fffBE"/><path d="M27.9 71.4a8.9 8.9 0 1 1 0-17.9 8.9 8.9 0 0 1 0 17.9" fill="#fff500BF"/><path d="M276.9 2.9a8.9 8.9 0 1 1 0-17.8 8.9 8.9 0 0 1 0 17.8" fill="#c2e1ffBF"/><path d="M-85.4-7.3a8.9 8.9 0 1 1 0-17.8 8.9 8.9 0 0 1 0 17.8" fill="#c2e1ffBF"/><path d="M189.5-372.2a8.9 8.9 0 1 1 0-17.8 8.9 8.9 0 0 1 0 17.8" fill="#005bbbBF"/><path d="M-33.9 41a8.9 8.9 0 1 1 0-17.8 8.9 8.9 0 0 1 0 17.8" fill="#fffBF"/><path d="M323.3-76.7a9 9 0 1 1 0-17.9 9 9 0 0 1 0 17.9" fill="#c2e1ffC0"/><path d="M282.3-303.4a9 9 0 1 1 0-18 9 9 0 0 1 0 18" fill="#005bbbC0"/><path d="M290.6-14.3a9 9 0 1 1 0-18 9 9 0 0 1 0 18" fill="#c2e1ffC1"/><path d="M322.1-232.4a9.1 9.1 0 1 1 0-18.1 9.1 9.1 0 0 1 0 18.1" fill="#c2e1ffC2"/><path d="M96.1 82.2a9.1 9.1 0 1 1 0-18.2 9.1 9.1 0 0 1 0 18.2" fill="#c2e1ffC2"/><path d="M70.2 79.9a9.1 9.1 0 1 1 0-18.3 9.1 9.1 0 0 1 0 18.3" fill="#005bbbC4"/><path d="M-3.3 57.8a9.2 9.2 0 1 1 0-18.3 9.2 9.2 0 0 1 0 18.3" fill="#fff500C4"/><path d="M-80.5-3.2a9.2 9.2 0 1 1 0-18.3 9.2 9.2 0 0 1 0 18.3" fill="#fffC5"/><path d="M-132.7-179.7a9.2 9.2 0 1 1 0-18.5 9.2 9.2 0 0 1 0 18.5" fill="#005bbbC6"/><path d="M185.2-371.4a9.2 9.2 0 1 1 0-18.5 9.2 9.2 0 0 1 0 18.5" fill="#c2e1ffC6"/><path d="M253.4-330.1a9.3 9.3 0 1 1 0-18.5 9.3 9.3 0 0 1 0 18.5" fill="#005bbbC6"/><path d="M-118.6-236.7a9.3 9.3 0 1 1 0-18.6 9.3 9.3 0 0 1 0 18.6" fill="#fff500C6"/><path d="M-128-102.4a9.3 9.3 0 1 1 0-18.6 9.3 9.3 0 0 1 0 18.6" fill="#fffC7"/><path d="M-3.5-360.9a9.4 9.4 0 1 1 0-18.8 9.4 9.4 0 0 1 0 18.8" fill="#005bbbCA"/><path d="M-64 11.2a9.4 9.4 0 1 1 0-18.8 9.4 9.4 0 0 1 0 18.8" fill="#fffCA"/><path d="M315-67.3a9.4 9.4 0 1 1 0-18.8 9.4 9.4 0 0 1 0 18.8" fill="#fff500CA"/><path d="M203.8-359.8a9.5 9.5 0 1 1 0-18.9 9.5 9.5 0 0 1 0 18.9" fill="#fff500CB"/><path d="M212.6-354.9a9.5 9.5 0 1 1 0-18.9 9.5 9.5 0 0 1 0 18.9" fill="#fff500CB"/><path d="M-107.2-52.7a9.5 9.5 0 1 1 0-19.1 9.5 9.5 0 0 1 0 19.1" fill="#fffCC"/><path d="M254.4 14.9a9.6 9.6 0 1 1 0-19.3 9.6 9.6 0 0 1 0 19.3" fill="#fff500CF"/><path d="M-118.1-87a9.6 9.6 0 1 1 0-19.3 9.6 9.6 0 0 1 0 19.3" fill="#fffCF"/><path d="M140.5 70.7a9.7 9.7 0 1 1 0-19.3 9.7 9.7 0 0 1 0 19.3" fill="#fff500CF"/><path d="M218.3 38a9.8 9.8 0 1 1 0-19.6 9.8 9.8 0 0 1 0 19.6" fill="#c2e1ffD2"/><path d="M29.8 60.1a9.8 9.8 0 1 1 0-19.6 9.8 9.8 0 0 1 0 19.6" fill="#005bbbD2"/><path d="M-41.2 20a9.8 9.8 0 1 1 0-19.7 9.8 9.8 0 0 1 0 19.7" fill="#005bbbD3"/><path d="M230.6 25a9.9 9.9 0 1 1 0-19.9 9.9 9.9 0 0 1 0 19.9" fill="#005bbbD5"/><path d="M268.4-14.2a10 10 0 1 1 0-20 10 10 0 0 1 0 20" fill="#fff500D7"/><path d="M8.4 43.6a10 10 0 1 1 0-20 10 10 0 0 1 0 20" fill="#005bbbD8"/><path d="M-98-238.8a10.1 10.1 0 1 1 0-20.1 10.1 10.1 0 0 1 0 20.1" fill="#fffD8"/><path d="M17.1 46.7a10.1 10.1 0 1 1 0-20.1 10.1 10.1 0 0 1 0 20.1" fill="#005bbbD8"/><path d="M-104.5-89.5a10.1 10.1 0 1 1 0-20.3 10.1 10.1 0 0 1 0 20.3" fill="#005bbbD9"/><path d="M204.1-338.4a10.1 10.1 0 1 1 0-20.3 10.1 10.1 0 0 1 0 20.3" fill="#fff500DA"/><path d="M230.8 15a10.2 10.2 0 1 1 0-20.3 10.2 10.2 0 0 1 0 20.3" fill="#005bbbDA"/><path d="M208.7-334.5a10.2 10.2 0 1 1 0-20.3 10.2 10.2 0 0 1 0 20.3" fill="#c2e1ffDA"/><path d="M309.2-159.1a10.2 10.2 0 1 1 0-20.4 10.2 10.2 0 0 1 0 20.4" fill="#fffDC"/><path d="M195.4 33.2a10.2 10.2 0 1 1 0-20.5 10.2 10.2 0 0 1 0 20.5" fill="#005bbbDC"/><path d="M178.7-345.3a10.2 10.2 0 1 1 0-20.5 10.2 10.2 0 0 1 0 20.5" fill="#fffDC"/><path d="M297.2-216.7a10.3 10.3 0 1 1 0-20.6 10.3 10.3 0 0 1 0 20.6" fill="#c2e1ffDD"/><path d="M-24.3-315.6a10.3 10.3 0 1 1 0-20.6 10.3 10.3 0 0 1 0 20.6" fill="#fff500DE"/><path d="M11.6-335.4a10.4 10.4 0 1 1 0-20.8 10.4 10.4 0 0 1 0 20.8" fill="#fffDF"/><path d="M65.9 47.2a10.4 10.4 0 1 1 0-20.8 10.4 10.4 0 0 1 0 20.8" fill="#c2e1ffDF"/><path d="M271.1-44.3a10.4 10.4 0 1 1 0-20.8 10.4 10.4 0 0 1 0 20.8" fill="#fff500DF"/><path d="M259.1-28.3a10.4 10.4 0 1 1 0-20.8 10.4 10.4 0 0 1 0 20.8" fill="#c2e1ffDF"/><path d="M293.2-202.3a10.4 10.4 0 1 1 0-20.9 10.4 10.4 0 0 1 0 20.9" fill="#fff500E0"/><path d="M-29.2 0.1a10.4 10.4 0 1 1 0-20.9 10.4 10.4 0 0 1 0 20.9" fill="#c2e1ffE0"/><path d="M98.9 46.8a10.5 10.5 0 1 1 0-20.9 10.5 10.5 0 0 1 0 20.9" fill="#c2e1ffE1"/><path d="M229.9-3a10.5 10.5 0 1 1 0-21 10.5 10.5 0 0 1 0 21" fill="#c2e1ffE1"/><path d="M-3.3-318.5a10.5 10.5 0 1 1 0-21.1 10.5 10.5 0 0 1 0 21.1" fill="#c2e1ffE2"/><path d="M37.6-335.2a10.6 10.6 0 1 1 0-21.1 10.6 10.6 0 0 1 0 21.1" fill="#fff500E3"/><path d="M-69.4-239.8a10.6 10.6 0 1 1 0-21.2 10.6 10.6 0 0 1 0 21.2" fill="#c2e1ffE4"/><path d="M-78.7-206.7a10.7 10.7 0 1 1 0-21.3 10.7 10.7 0 0 1 0 21.3" fill="#c2e1ffE5"/><path d="M278.7-206.2a10.7 10.7 0 1 1 0-21.3 10.7 10.7 0 0 1 0 21.3" fill="#fff500E5"/><path d="M176-319.6a10.7 10.7 0 1 1 0-21.4 10.7 10.7 0 0 1 0 21.4" fill="#fff500E6"/><path d="M35.5 20a10.7 10.7 0 1 1 0-21.4 10.7 10.7 0 0 1 0 21.4" fill="#c2e1ffE6"/><path d="M-76.7-113.4a10.8 10.8 0 1 1 0-21.5 10.8 10.8 0 0 1 0 21.5" fill="#c2e1ffE7"/><path d="M165-313.3a10.9 10.9 0 1 1 0-21.7 10.9 10.9 0 0 1 0 21.7" fill="#fff500E9"/><path d="M62.2-320a10.9 10.9 0 1 1 0-21.7 10.9 10.9 0 0 1 0 21.7" fill="#005bbbEA"/><path d="M188.3-7.9a10.9 10.9 0 1 1 0-21.9 10.9 10.9 0 0 1 0 21.9" fill="#fff500EB"/><path d="M-64.1-113.9a10.9 10.9 0 1 1 0-21.9 10.9 10.9 0 0 1 0 21.9" fill="#c2e1ffEB"/><path d="M-1.3-280.7a11 11 0 1 1 0-22 11 11 0 0 1 0 22" fill="#fffEC"/><path d="M204.1-35.4a11.1 11.1 0 1 1 0-22.1 11.1 11.1 0 0 1 0 22.1" fill="#fffEE"/><path d="M212.3-258.7a11.1 11.1 0 1 1 0-22.2 11.1 11.1 0 0 1 0 22.2" fill="#fff500EE"/><path d="M246.7-160.3a11.2 11.2 0 1 1 0-22.3 11.2 11.2 0 0 1 0 22.3" fill="#c2e1ffF0"/><path d="M26.5-27.3a11.2 11.2 0 1 1 0-22.4 11.2 11.2 0 0 1 0 22.4" fill="#fff500F1"/><path d="M136.3-284.1a11.3 11.3 0 1 1 0-22.6 11.3 11.3 0 0 1 0 22.6" fill="#fffF2"/><path d="M28.3-39.9a11.3 11.3 0 1 1 0-22.6 11.3 11.3 0 0 1 0 22.6" fill="#005bbbF3"/><path d="M51.1-29.4a11.3 11.3 0 1 1 0-22.6 11.3 11.3 0 0 1 0 22.6" fill="#fff500F4"/><path d="M-29.6-137a11.3 11.3 0 1 1 0-22.6 11.3 11.3 0 0 1 0 22.6" fill="#c2e1ffF4"/><path d="M80.1-278.5a11.3 11.3 0 1 1 0-22.6 11.3 11.3 0 0 1 0 22.6" fill="#fff500F4"/><path d="M176-254.1a11.3 11.3 0 1 1 0-22.6 11.3 11.3 0 0 1 0 22.6" fill="#fffF4"/><path d="M80.2-274.2a11.4 11.4 0 1 1 0-22.7 11.4 11.4 0 0 1 0 22.7" fill="#fff500F5"/><path d="M128-271.5a11.4 11.4 0 1 1 0-22.7 11.4 11.4 0 0 1 0 22.7" fill="#fff500F5"/><path d="M126.1-269.6a11.4 11.4 0 1 1 0-22.8 11.4 11.4 0 0 1 0 22.8" fill="#fff500F5"/><path d="M219.5-131.2a11.4 11.4 0 1 1 0-22.8 11.4 11.4 0 0 1 0 22.8" fill="#fffF5"/><path d="M17.8-236.5a11.4 11.4 0 1 1 0-22.8 11.4 11.4 0 0 1 0 22.8" fill="#fffF6"/><path d="M188.7-72.5a11.4 11.4 0 1 1 0-22.8 11.4 11.4 0 0 1 0 22.8" fill="#fffF6"/><path d="M55.8-45.9a11.4 11.4 0 1 1 0-22.9 11.4 11.4 0 0 1 0 22.9" fill="#c2e1ffF6"/><path d="M84-41.5a11.5 11.5 0 1 1 0-22.9 11.5 11.5 0 0 1 0 22.9" fill="#fff500F7"/><path d="M92.3-42.8a11.5 11.5 0 1 1 0-22.9 11.5 11.5 0 0 1 0 22.9" fill="#fff500F7"/><path d="M98.4-42.8a11.5 11.5 0 1 1 0-23 11.5 11.5 0 0 1 0 23" fill="#c2e1ffF7"/><path d="M139.9-50.5a11.5 11.5 0 1 1 0-22.9 11.5 11.5 0 0 1 0 22.9" fill="#fff500F7"/><path d="M182.8-182a11.6 11.6 0 1 1 0-23.2 11.6 11.6 0 0 1 0 23.2" fill="#fff500FA"/><path d="M17.7-122.2a11.6 11.6 0 1 1 0-23.2 11.6 11.6 0 0 1 0 23.2" fill="#c2e1ffFA"/><path d="M43.7-216.3a11.6 11.6 0 1 1 0-23.2 11.6 11.6 0 0 1 0 23.2" fill="#fffFA"/><path d="M175.5-130.1a11.6 11.6 0 1 1 0-23.2 11.6 11.6 0 0 1 0 23.2" fill="#005bbbFB"/><path d="M45-108a11.7 11.7 0 1 1 0-23.4 11.7 11.7 0 0 1 0 23.4" fill="#005bbbFC"/><path d="M154.5-154.2a11.7 11.7 0 1 1 0-23.4 11.7 11.7 0 0 1 0 23.4" fill="#fffFD"/><path d="M61.6-173.7a11.8 11.8 0 1 1 0-23.5 11.8 11.8 0 0 1 0 23.5" fill="#005bbbFD"/><path d="M67.7-138.2a11.8 11.8 0 1 1 0-23.6 11.8 11.8 0 0 1 0 23.6" fill="#fffFE"/></g></svg>