<svg width="1200" height="675" viewBox="-500 -500 1200 675" xmlns="http://www.w3.org/2000/svg"><path d="M-500-500h1200v675h-1200z" fill="#000"/><style>.sparkles path{stroke-linecap:round; stroke-width:1}</style><g class="sparkles"><path d="M100-162.5l-19.3 10.2" stroke="#fff32"/><path d="M100-162.5l-35.3 19.8" stroke="#fff32"/><path d="M100-162.5l42.8 1.1" stroke="#fff50032"/><path d="M100-162.5l17.1 57.8" stroke="#fff33"/><path d="M100-162.5l22.7 57.7" stroke="#c2e1ff33"/><path d="M100-162.5l65 5.5" stroke="#fff50033"/><path d="M100-162.5l-66.3 27.4" stroke="#fff50034"/><path d="M100-162.5l36.7 84.7" stroke="#005bbb35"/><path d="M100-162.5l92.5-4.1" stroke="#c2e1ff36"/><path d="M100-162.5l47.5-87.6" stroke="#c2e1ff36"/><path d="M100-162.5l-89-80.1" stroke="#fff38"/><path d="M100-162.5l-75.5 97.6" stroke="#c2e1ff39"/><path d="M100-162.5l-5.8 123.5" stroke="#c2e1ff39"/><path d="M100-162.5l137.5 14.2" stroke="#005bbb3B"/><path d="M100-162.5l142-13.9" stroke="#005bbb3C"/><path d="M100-162.5l-147.6-31.9" stroke="#005bbb3D"/><path d="M100-162.5l117.7-98.1" stroke="#005bbb3D"/><path d="M100-162.5l-123.4-92.5" stroke="#fff5003E"/><path d="M100-162.5l68-140.1" stroke="#c2e1ff3E"/><path d="M100-162.5l112.7-108.3" stroke="#005bbb3E"/><path d="M100-162.5l-24 155.3" stroke="#fff3E"/><path d="M100-162.5l163.1 0" stroke="#fff5003F"/><path d="M100-162.5l142.9 79.6" stroke="#fff3F"/><path d="M100-162.5l149.7 69.8" stroke="#fff50040"/><path d="M100-162.5l-167.1 11.4" stroke="#fff40"/><path d="M100-162.5l154.5-68.5" stroke="#fff41"/><path d="M100-162.5l-97.5 140" stroke="#fff41"/><path d="M100-162.5l-53.6 163.4" stroke="#005bbb41"/><path d="M100-162.5l-176 7.6" stroke="#005bbb42"/><path d="M100-162.5l-88.7 153.6" stroke="#005bbb42"/><path d="M100-162.5l74.6-161.4" stroke="#c2e1ff43"/><path d="M100-162.5l-67.9 165.9" stroke="#fff50043"/><path d="M100-162.5l-56.1-171.2" stroke="#fff43"/><path d="M100-162.5l165.6-76.8" stroke="#005bbb44"/><path d="M100-162.5l13.6-183.6" stroke="#005bbb44"/><path d="M100-162.5l112 146.3" stroke="#fff44"/><path d="M100-162.5l95.4 158.6" stroke="#fff44"/><path d="M100-162.5l-79-170.2" stroke="#fff45"/><path d="M100-162.5l-184.7 33.1" stroke="#fff50045"/><path d="M100-162.5l174.5 69.6" stroke="#c2e1ff45"/><path d="M100-162.5l-176.2 71.9" stroke="#005bbb46"/><path d="M100-162.5l-77-178.4" stroke="#c2e1ff47"/><path d="M100-162.5l44.7-191.8" stroke="#c2e1ff48"/><path d="M100-162.5l149.9-131.8" stroke="#fff49"/><path d="M100-162.5l10.8 202.1" stroke="#005bbb4A"/><path d="M100-162.5l-192.1 69.7" stroke="#fff5004A"/><path d="M100-162.5l-10 205.5" stroke="#fff5004B"/><path d="M100-162.5l167-123.8" stroke="#fff4C"/><path d="M100-162.5l12.2 208.2" stroke="#fff4C"/><path d="M100-162.5l-53.1-203.7" stroke="#c2e1ff4D"/><path d="M100-162.5l-144 155.2" stroke="#c2e1ff4D"/><path d="M100-162.5l24.4-210.4" stroke="#c2e1ff4D"/><path d="M100-162.5l-212.2-12.3" stroke="#c2e1ff4E"/><path d="M100-162.5l156.7-144.4" stroke="#fff5004E"/><path d="M100-162.5l133.4 168.1" stroke="#005bbb4F"/><path d="M100-162.5l-197.5-84.8" stroke="#c2e1ff4F"/><path d="M100-162.5l-180.5 121.6" stroke="#fff50050"/><path d="M100-162.5l-165.6 141.7" stroke="#c2e1ff50"/><path d="M100-162.5l117.4-187" stroke="#005bbb52"/><path d="M100-162.5l220.4-19.2" stroke="#fff52"/><path d="M100-162.5l-143.6 169.2" stroke="#c2e1ff52"/><path d="M100-162.5l143.8 173" stroke="#fff50054"/><path d="M100-162.5l224.3-29.8" stroke="#fff50055"/><path d="M100-162.5l203-100.6" stroke="#fff55"/><path d="M100-162.5l-102.3 204.1" stroke="#fff50057"/><path d="M100-162.5l23.4-227.6" stroke="#005bbb57"/><path d="M100-162.5l-127.4-190.6" stroke="#005bbb57"/><path d="M100-162.5l105.4 203.7" stroke="#fff58"/><path d="M100-162.5l96.2-209.7" stroke="#005bbb59"/><path d="M100-162.5l-227.9-39.1" stroke="#fff50059"/><path d="M100-162.5l-28.5-229.8" stroke="#005bbb5A"/><path d="M100-162.5l-232.7 14.9" stroke="#fff5B"/><path d="M100-162.5l198.6 125.5" stroke="#fff5E"/><path d="M100-162.5l-234.3-22.9" stroke="#fff5F"/><path d="M100-162.5l190.1-139.7" stroke="#fff50061"/><path d="M100-162.5l199-127.3" stroke="#fff63"/><path d="M100-162.5l56.1 229.5" stroke="#c2e1ff63"/><path d="M100-162.5l-68.2-226.2" stroke="#c2e1ff63"/><path d="M100-162.5l183.8 148.5" stroke="#fff50064"/><path d="M100-162.5l235.5-17.8" stroke="#c2e1ff65"/><path d="M100-162.5l32-233.9" stroke="#005bbb66"/><path d="M100-162.5l-215.7 95.8" stroke="#fff50066"/><path d="M100-162.5l-18-235.3" stroke="#fff66"/><path d="M100-162.5l235.7 0" stroke="#005bbb67"/><path d="M100-162.5l220.2-83.8" stroke="#fff67"/><path d="M100-162.5l25.7 233.9" stroke="#c2e1ff68"/><path d="M100-162.5l235.3 3" stroke="#fff50068"/><path d="M100-162.5l114.7-205" stroke="#fff69"/><path d="M100-162.5l-19.3 234" stroke="#fff69"/><path d="M100-162.5l-149.3 180.7" stroke="#c2e1ff6A"/><path d="M100-162.5l-203.9 114.2" stroke="#fff5006B"/><path d="M100-162.5l135.4-190" stroke="#005bbb6B"/><path d="M100-162.5l-81.5 218.6" stroke="#fff5006B"/><path d="M100-162.5l-199.6 120.7" stroke="#c2e1ff6B"/><path d="M100-162.5l35.9-230.3" stroke="#005bbb6C"/><path d="M100-162.5l230.6-13.2" stroke="#c2e1ff6E"/><path d="M100-162.5l170.7-155.3" stroke="#005bbb6E"/><path d="M100-162.5l227.6-36.1" stroke="#fff5006E"/><path d="M100-162.5l224-53.2" stroke="#fff6F"/><path d="M100-162.5l-167.9 156.4" stroke="#c2e1ff6F"/><path d="M100-162.5l207.2 96.6" stroke="#c2e1ff70"/><path d="M100-162.5l227.1 19.2" stroke="#fff71"/><path d="M100-162.5l82.5-212.2" stroke="#005bbb71"/><path d="M100-162.5l-99.7 204.7" stroke="#fff50071"/><path d="M100-162.5l50.5 221.9" stroke="#005bbb71"/><path d="M100-162.5l147.4-171.6" stroke="#fff72"/><path d="M100-162.5l-29.5 224.1" stroke="#fff50072"/><path d="M100-162.5l-117.4-193.1" stroke="#fff50072"/><path d="M100-162.5l-143.5 173.3" stroke="#c2e1ff73"/><path d="M100-162.5l-31.9 222.5" stroke="#fff50073"/><path d="M100-162.5l-42.2 220" stroke="#c2e1ff73"/><path d="M100-162.5l204.3 91.7" stroke="#005bbb73"/><path d="M100-162.5l-179.4 133" stroke="#fff74"/><path d="M100-162.5l-32.7-220.8" stroke="#fff50074"/><path d="M100-162.5l77.9 209.2" stroke="#c2e1ff74"/><path d="M100-162.5l-75.1-210" stroke="#fff74"/><path d="M100-162.5l164.8 148.6" stroke="#c2e1ff75"/><path d="M100-162.5l200.6-94.3" stroke="#fff75"/><path d="M100-162.5l93.1 201.1" stroke="#005bbb75"/><path d="M100-162.5l-212.5-57" stroke="#005bbb76"/><path d="M100-162.5l-119.1-184.4" stroke="#fff76"/><path d="M100-162.5l-213-52.2" stroke="#fff76"/><path d="M100-162.5l-74.3-206.2" stroke="#005bbb76"/><path d="M100-162.5l217.3-27.8" stroke="#c2e1ff76"/><path d="M100-162.5l215.8-29.2" stroke="#fff77"/><path d="M100-162.5l-124.9 176.8" stroke="#fff50078"/><path d="M100-162.5l16.1 215.8" stroke="#005bbb78"/><path d="M100-162.5l-138.3-162.3" stroke="#fff50079"/><path d="M100-162.5l51.5-206.4" stroke="#fff79"/><path d="M100-162.5l-160.3 137.7" stroke="#fff5007A"/><path d="M100-162.5l-195.2 69.7" stroke="#fff5007B"/><path d="M100-162.5l205.5-7.7" stroke="#fff5007C"/><path d="M100-162.5l181.5-85.7" stroke="#fff5007E"/><path d="M100-162.5l175.9-90.9" stroke="#fff5007F"/><path d="M100-162.5l180.3-80.4" stroke="#005bbb7F"/><path d="M100-162.5l-69.5 180" stroke="#fff50080"/><path d="M100-162.5l87.4 171.7" stroke="#fff50080"/><path d="M100-162.5l189.4-3.4" stroke="#c2e1ff81"/><path d="M100-162.5l39.9 183.5" stroke="#fff82"/><path d="M100-162.5l-175.6 56.3" stroke="#005bbb83"/><path d="M100-162.5l-106.6 149.6" stroke="#fff50083"/><path d="M100-162.5l132.8 117.7" stroke="#fff50084"/><path d="M100-162.5l114.2 135.5" stroke="#fff85"/><path d="M100-162.5l149.5-92.3" stroke="#c2e1ff85"/><path d="M100-162.5l173.2-17.2" stroke="#005bbb85"/><path d="M100-162.5l-18.1-170.3" stroke="#005bbb86"/><path d="M100-162.5l-67.5-153.9" stroke="#fff50087"/><path d="M100-162.5l-15.6 165.9" stroke="#005bbb87"/><path d="M100-162.5l18.2 164.7" stroke="#fff87"/><path d="M100-162.5l141.9 72.8" stroke="#fff88"/><path d="M100-162.5l-119.5 103.3" stroke="#005bbb89"/><path d="M100-162.5l-140.9 59.7" stroke="#fff5008A"/><path d="M100-162.5l-128-82.6" stroke="#005bbb8A"/><path d="M100-162.5l-87 124.1" stroke="#c2e1ff8A"/><path d="M100-162.5l82.8 123.5" stroke="#005bbb8A"/><path d="M100-162.5l-7.4-148.2" stroke="#005bbb8A"/><path d="M100-162.5l-139.9 30" stroke="#fff8B"/><path d="M100-162.5l-27.3-138.5" stroke="#005bbb8C"/><path d="M100-162.5l129.3 55.4" stroke="#c2e1ff8C"/><path d="M100-162.5l-41.9-134.2" stroke="#fff5008C"/><path d="M100-162.5l118.4-74.5" stroke="#005bbb8C"/><path d="M100-162.5l108.4 62.3" stroke="#005bbb8E"/><path d="M100-162.5l115.1 45.1" stroke="#fff8E"/><path d="M100-162.5l108.7-52.1" stroke="#fff5008F"/><path d="M100-162.5l110.5 32.4" stroke="#c2e1ff8F"/><path d="M100-162.5l-45.8 105.1" stroke="#fff8F"/><path d="M100-162.5l73.9 83.8" stroke="#fff50090"/><path d="M100-162.5l81.6 72.4" stroke="#fff50090"/><path d="M100-162.5l56.6-86.5" stroke="#fff90"/><path d="M100-162.5l-49.8-87.2" stroke="#fff91"/><path d="M100-162.5l95.1-30.7" stroke="#005bbb91"/><path d="M100-162.5l75.5-42.5" stroke="#005bbb92"/><path d="M100-162.5l-72.9 46.6" stroke="#c2e1ff92"/><path d="M100-162.5l-29.1 80.6" stroke="#fff92"/><path d="M100-162.5l-10 82.7" stroke="#fff92"/><path d="M100-162.5l82 8.4" stroke="#005bbb92"/><path d="M100-162.5l37.6-73.3" stroke="#fff50092"/><path d="M100-162.5l61.7 44" stroke="#c2e1ff93"/><path d="M100-162.5l-25.8-53.8" stroke="#fff94"/><path d="M100-162.5l-16.2 52" stroke="#fff94"/><path d="M100-162.5l20.2-4.4" stroke="#fff50095"/></g><g class="sparcs"><path d="M80.7-146.4a5.9 5.9 0 1 1 0-11.8 5.9 5.9 0 0 1 0 11.8" fill="#005bbb7D"/><path d="M64.7-136.8a5.9 5.9 0 1 1 0-11.9 5.9 5.9 0 0 1 0 11.9" fill="#005bbb7D"/><path d="M142.8-155.5a6 6 0 1 1 0-11.9 6 6 0 0 1 0 11.9" fill="#c2e1ff7E"/><path d="M117.1-98.7a6 6 0 1 1 0-12 6 6 0 0 1 0 12" fill="#c2e1ff7F"/><path d="M122.7-98.8a6 6 0 1 1 0-12 6 6 0 0 1 0 12" fill="#fff5007F"/><path d="M165-151a6 6 0 1 1 0-12 6 6 0 0 1 0 12" fill="#005bbb7F"/><path d="M33.7-129a6 6 0 1 1 0-12.1 6 6 0 0 1 0 12.1" fill="#c2e1ff80"/><path d="M136.7-71.6a6.1 6.1 0 1 1 0-12.3 6.1 6.1 0 0 1 0 12.3" fill="#fff82"/><path d="M192.5-160.5a6.1 6.1 0 1 1 0-12.2 6.1 6.1 0 0 1 0 12.2" fill="#005bbb82"/><path d="M147.5-244a6.2 6.2 0 1 1 0-12.3 6.2 6.2 0 0 1 0 12.3" fill="#c2e1ff83"/><path d="M11-236.3a6.3 6.3 0 1 1 0-12.6 6.3 6.3 0 0 1 0 12.6" fill="#c2e1ff85"/><path d="M24.5-58.6a6.3 6.3 0 1 1 0-12.6 6.3 6.3 0 0 1 0 12.6" fill="#005bbb86"/><path d="M94.2-32.7a6.3 6.3 0 1 1 0-12.7 6.3 6.3 0 0 1 0 12.7" fill="#c2e1ff86"/><path d="M237.5-141.8a6.5 6.5 0 1 1 0-13 6.5 6.5 0 0 1 0 13" fill="#fff89"/><path d="M242-169.9a6.5 6.5 0 1 1 0-13 6.5 6.5 0 0 1 0 13" fill="#fff5008A"/><path d="M-47.6-187.8a6.6 6.6 0 1 1 0-13.2 6.6 6.6 0 0 1 0 13.2" fill="#fff8C"/><path d="M217.7-254a6.6 6.6 0 1 1 0-13.2 6.6 6.6 0 0 1 0 13.2" fill="#fff5008C"/><path d="M-23.4-248.3a6.6 6.6 0 1 1 0-13.3 6.6 6.6 0 0 1 0 13.3" fill="#fff8C"/><path d="M168-295.9a6.6 6.6 0 1 1 0-13.3 6.6 6.6 0 0 1 0 13.3" fill="#c2e1ff8D"/><path d="M212.7-264.1a6.6 6.6 0 1 1 0-13.3 6.6 6.6 0 0 1 0 13.3" fill="#c2e1ff8D"/><path d="M76-0.6a6.7 6.7 0 1 1 0-13.3 6.7 6.7 0 0 1 0 13.3" fill="#fff5008D"/><path d="M263.1-155.8a6.7 6.7 0 1 1 0-13.4 6.7 6.7 0 0 1 0 13.4" fill="#fff8E"/><path d="M242.9-76.1a6.7 6.7 0 1 1 0-13.5 6.7 6.7 0 0 1 0 13.5" fill="#c2e1ff8F"/><path d="M249.7-86a6.7 6.7 0 1 1 0-13.5 6.7 6.7 0 0 1 0 13.5" fill="#fff5008F"/><path d="M-67.1-144.4a6.8 6.8 0 1 1 0-13.5 6.8 6.8 0 0 1 0 13.5" fill="#fff50090"/><path d="M254.5-224.2a6.8 6.8 0 1 1 0-13.6 6.8 6.8 0 0 1 0 13.6" fill="#fff50090"/><path d="M2.5-15.7a6.8 6.8 0 1 1 0-13.7 6.8 6.8 0 0 1 0 13.7" fill="#fff91"/><path d="M46.4 7.7a6.8 6.8 0 1 1 0-13.7 6.8 6.8 0 0 1 0 13.7" fill="#fff50091"/><path d="M-76-148a6.9 6.9 0 1 1 0-13.8 6.9 6.9 0 0 1 0 13.8" fill="#c2e1ff92"/><path d="M11.3-1.9a6.9 6.9 0 1 1 0-13.9 6.9 6.9 0 0 1 0 13.9" fill="#fff93"/><path d="M174.6-317a6.9 6.9 0 1 1 0-13.8 6.9 6.9 0 0 1 0 13.8" fill="#fff93"/><path d="M32.1 10.4a6.9 6.9 0 1 1 0-13.9 6.9 6.9 0 0 1 0 13.9" fill="#005bbb93"/><path d="M43.9-326.8a6.9 6.9 0 1 1 0-13.9 6.9 6.9 0 0 1 0 13.9" fill="#fff50093"/><path d="M265.6-232.3a7 7 0 1 1 0-14 7 7 0 0 1 0 14" fill="#fff50094"/><path d="M113.6-339.1a7 7 0 1 1 0-14 7 7 0 0 1 0 14" fill="#005bbb95"/><path d="M212-9.2a7 7 0 1 1 0-14.1 7 7 0 0 1 0 14.1" fill="#fff95"/><path d="M195.4 3.1a7 7 0 1 1 0-14 7 7 0 0 1 0 14" fill="#005bbb95"/><path d="M21-325.7a7.1 7.1 0 1 1 0-14.1 7.1 7.1 0 0 1 0 14.1" fill="#005bbb96"/><path d="M-84.7-122.3a7.1 7.1 0 1 1 0-14.2 7.1 7.1 0 0 1 0 14.2" fill="#fff96"/><path d="M274.5-85.8a7.1 7.1 0 1 1 0-14.2 7.1 7.1 0 0 1 0 14.2" fill="#005bbb96"/><path d="M-76.2-83.5a7.1 7.1 0 1 1 0-14.2 7.1 7.1 0 0 1 0 14.2" fill="#c2e1ff97"/><path d="M23-333.7a7.2 7.2 0 1 1 0-14.4 7.2 7.2 0 0 1 0 14.4" fill="#fff50099"/><path d="M144.7-347.1a7.2 7.2 0 1 1 0-14.5 7.2 7.2 0 0 1 0 14.5" fill="#fff9A"/><path d="M249.9-287.1a7.3 7.3 0 1 1 0-14.5 7.3 7.3 0 0 1 0 14.5" fill="#c2e1ff9B"/><path d="M110.8 47a7.3 7.3 0 1 1 0-14.7 7.3 7.3 0 0 1 0 14.7" fill="#005bbb9C"/><path d="M-92.1-85.4a7.4 7.4 0 1 1 0-14.8 7.4 7.4 0 0 1 0 14.8" fill="#fff5009D"/><path d="M90 50.4a7.4 7.4 0 1 1 0-14.8 7.4 7.4 0 0 1 0 14.8" fill="#fff5009E"/><path d="M267-278.8a7.5 7.5 0 1 1 0-14.9 7.5 7.5 0 0 1 0 14.9" fill="#005bbb9F"/><path d="M112.2 53.1a7.5 7.5 0 1 1 0-14.9 7.5 7.5 0 0 1 0 14.9" fill="#c2e1ff9F"/><path d="M46.9-358.7a7.5 7.5 0 1 1 0-15 7.5 7.5 0 0 1 0 15" fill="#fffA0"/><path d="M-44 0.3a7.5 7.5 0 1 1 0-15.1 7.5 7.5 0 0 1 0 15.1" fill="#fff500A1"/><path d="M124.4-365.3a7.6 7.6 0 1 1 0-15.1 7.6 7.6 0 0 1 0 15.1" fill="#c2e1ffA1"/><path d="M-112.2-167.2a7.6 7.6 0 1 1 0-15.1 7.6 7.6 0 0 1 0 15.1" fill="#c2e1ffA1"/><path d="M256.7-299.4a7.6 7.6 0 1 1 0-15.1 7.6 7.6 0 0 1 0 15.1" fill="#fff500A1"/><path d="M233.4 13.2a7.6 7.6 0 1 1 0-15.2 7.6 7.6 0 0 1 0 15.2" fill="#fff500A2"/><path d="M-97.5-239.6a7.6 7.6 0 1 1 0-15.3 7.6 7.6 0 0 1 0 15.3" fill="#c2e1ffA3"/><path d="M-80.5-33.2a7.7 7.7 0 1 1 0-15.4 7.7 7.7 0 0 1 0 15.4" fill="#fff500A4"/><path d="M-65.6-13.1a7.7 7.7 0 1 1 0-15.4 7.7 7.7 0 0 1 0 15.4" fill="#fffA4"/><path d="M217.4-341.7a7.8 7.8 0 1 1 0-15.6 7.8 7.8 0 0 1 0 15.6" fill="#fffA6"/><path d="M320.4-173.9a7.8 7.8 0 1 1 0-15.7 7.8 7.8 0 0 1 0 15.7" fill="#005bbbA7"/><path d="M-43.6 14.6a7.8 7.8 0 1 1 0-15.7 7.8 7.8 0 0 1 0 15.7" fill="#c2e1ffA7"/><path d="M243.8 18.4a8 8 0 1 1 0-15.9 8 8 0 0 1 0 15.9" fill="#c2e1ffAA"/><path d="M324.3-184.3a8 8 0 1 1 0-16.1 8 8 0 0 1 0 16.1" fill="#fff500AB"/><path d="M303-255a8 8 0 1 1 0-16.1 8 8 0 0 1 0 16.1" fill="#c2e1ffAB"/><path d="M-2.3 49.7a8.1 8.1 0 1 1 0-16.2 8.1 8.1 0 0 1 0 16.2" fill="#c2e1ffAD"/><path d="M123.4-382a8.1 8.1 0 1 1 0-16.2 8.1 8.1 0 0 1 0 16.2" fill="#fffAD"/><path d="M-27.4-344.9a8.1 8.1 0 1 1 0-16.3 8.1 8.1 0 0 1 0 16.3" fill="#fffAE"/><path d="M205.4 49.4a8.2 8.2 0 1 1 0-16.3 8.2 8.2 0 0 1 0 16.3" fill="#005bbbAE"/><path d="M196.2-364a8.2 8.2 0 1 1 0-16.4 8.2 8.2 0 0 1 0 16.4" fill="#fff500B0"/><path d="M-127.9-193.4a8.3 8.3 0 1 1 0-16.5 8.3 8.3 0 0 1 0 16.5" fill="#005bbbB0"/><path d="M71.5-384a8.3 8.3 0 1 1 0-16.6 8.3 8.3 0 0 1 0 16.6" fill="#005bbbB1"/><path d="M-132.7-139.3a8.4 8.4 0 1 1 0-16.7 8.4 8.4 0 0 1 0 16.7" fill="#c2e1ffB3"/><path d="M298.6-28.5a8.5 8.5 0 1 1 0-17.1 8.5 8.5 0 0 1 0 17.1" fill="#c2e1ffB7"/><path d="M-134.3-176.8a8.6 8.6 0 1 1 0-17.2 8.6 8.6 0 0 1 0 17.2" fill="#c2e1ffB8"/><path d="M290.1-293.5a8.7 8.7 0 1 1 0-17.4 8.7 8.7 0 0 1 0 17.4" fill="#005bbbBA"/><path d="M299-281a8.8 8.8 0 1 1 0-17.6 8.8 8.8 0 0 1 0 17.6" fill="#fff500BD"/><path d="M156.1 75.8a8.8 8.8 0 1 1 0-17.7 8.8 8.8 0 0 1 0 17.7" fill="#c2e1ffBD"/><path d="M31.8-379.8a8.9 8.9 0 1 1 0-17.7 8.9 8.9 0 0 1 0 17.7" fill="#fff500BD"/><path d="M283.8-5.2a8.9 8.9 0 1 1 0-17.7 8.9 8.9 0 0 1 0 17.7" fill="#fffBE"/><path d="M335.5-171.4a8.9 8.9 0 1 1 0-17.9 8.9 8.9 0 0 1 0 17.9" fill="#fff500BF"/><path d="M132-387.4a9 9 0 1 1 0-17.9 9 9 0 0 1 0 17.9" fill="#005bbbC0"/><path d="M-115.7-57.7a9 9 0 1 1 0-18 9 9 0 0 1 0 18" fill="#c2e1ffC1"/><path d="M82-388.8a9 9 0 1 1 0-18 9 9 0 0 1 0 18" fill="#fffC1"/><path d="M335.7-153.5a9.1 9.1 0 1 1 0-18.1 9.1 9.1 0 0 1 0 18.1" fill="#fff500C2"/><path d="M320.2-237.2a9.1 9.1 0 1 1 0-18.1 9.1 9.1 0 0 1 0 18.1" fill="#fff500C2"/><path d="M125.7 80.5a9.1 9.1 0 1 1 0-18.2 9.1 9.1 0 0 1 0 18.2" fill="#fff500C3"/><path d="M335.3-150.4a9.1 9.1 0 1 1 0-18.2 9.1 9.1 0 0 1 0 18.2" fill="#fff500C3"/><path d="M214.7-358.3a9.2 9.2 0 1 1 0-18.4 9.2 9.2 0 0 1 0 18.4" fill="#fffC4"/><path d="M80.7 80.6a9.2 9.2 0 1 1 0-18.3 9.2 9.2 0 0 1 0 18.3" fill="#fff500C5"/><path d="M-49.3 27.4a9.2 9.2 0 1 1 0-18.5 9.2 9.2 0 0 1 0 18.5" fill="#fff500C6"/><path d="M-103.9-39a9.3 9.3 0 1 1 0-18.6 9.3 9.3 0 0 1 0 18.6" fill="#fffC7"/><path d="M235.4-343.2a9.3 9.3 0 1 1 0-18.6 9.3 9.3 0 0 1 0 18.6" fill="#fffC8"/><path d="M18.5 65.5a9.3 9.3 0 1 1 0-18.7 9.3 9.3 0 0 1 0 18.7" fill="#fff500C8"/><path d="M-99.6-32.5a9.3 9.3 0 1 1 0-18.7 9.3 9.3 0 0 1 0 18.7" fill="#005bbbC8"/><path d="M135.9-383.4a9.3 9.3 0 1 1 0-18.7 9.3 9.3 0 0 1 0 18.7" fill="#fffC8"/><path d="M330.6-166.2a9.5 9.5 0 1 1 0-19 9.5 9.5 0 0 1 0 19" fill="#005bbbCB"/><path d="M270.7-308.3a9.5 9.5 0 1 1 0-19 9.5 9.5 0 0 1 0 19" fill="#c2e1ffCB"/><path d="M327.6-189a9.5 9.5 0 1 1 0-19.1 9.5 9.5 0 0 1 0 19.1" fill="#c2e1ffCC"/><path d="M324-206.2a9.5 9.5 0 1 1 0-19.1 9.5 9.5 0 0 1 0 19.1" fill="#fff500CC"/><path d="M-67.9 3.5a9.6 9.6 0 1 1 0-19.2 9.6 9.6 0 0 1 0 19.2" fill="#005bbbCD"/><path d="M307.2-56.3a9.6 9.6 0 1 1 0-19.2 9.6 9.6 0 0 1 0 19.2" fill="#fff500CE"/><path d="M327.1-133.6a9.6 9.6 0 1 1 0-19.3 9.6 9.6 0 0 1 0 19.3" fill="#c2e1ffCF"/><path d="M182.5-365.1a9.6 9.6 0 1 1 0-19.3 9.6 9.6 0 0 1 0 19.3" fill="#005bbbCF"/><path d="M0.3 51.9a9.6 9.6 0 1 1 0-19.3 9.6 9.6 0 0 1 0 19.3" fill="#fff500CF"/><path d="M150.5 69a9.7 9.7 0 1 1 0-19.3 9.7 9.7 0 0 1 0 19.3" fill="#005bbbCF"/><path d="M247.4-324.4a9.7 9.7 0 1 1 0-19.4 9.7 9.7 0 0 1 0 19.4" fill="#fffD0"/><path d="M70.5 71.4a9.7 9.7 0 1 1 0-19.5 9.7 9.7 0 0 1 0 19.5" fill="#fffD0"/><path d="M-17.4-345.9a9.7 9.7 0 1 1 0-19.4 9.7 9.7 0 0 1 0 19.4" fill="#c2e1ffD0"/><path d="M-43.5 20.5a9.8 9.8 0 1 1 0-19.5 9.8 9.8 0 0 1 0 19.5" fill="#fff500D1"/><path d="M68.1 69.8a9.8 9.8 0 1 1 0-19.6 9.8 9.8 0 0 1 0 19.6" fill="#fff500D1"/><path d="M57.8 67.3a9.8 9.8 0 1 1 0-19.6 9.8 9.8 0 0 1 0 19.6" fill="#c2e1ffD2"/><path d="M304.3-61a9.8 9.8 0 1 1 0-19.6 9.8 9.8 0 0 1 0 19.6" fill="#005bbbD2"/><path d="M-79.4-19.6a9.8 9.8 0 1 1 0-19.7 9.8 9.8 0 0 1 0 19.7" fill="#fff500D3"/><path d="M67.3-373.5a9.8 9.8 0 1 1 0-19.6 9.8 9.8 0 0 1 0 19.6" fill="#fff500D3"/><path d="M177.9 56.5a9.8 9.8 0 1 1 0-19.6 9.8 9.8 0 0 1 0 19.6" fill="#c2e1ffD3"/><path d="M24.9-362.7a9.8 9.8 0 1 1 0-19.7 9.8 9.8 0 0 1 0 19.7" fill="#fffD3"/><path d="M264.8-4.1a9.9 9.9 0 1 1 0-19.7 9.9 9.9 0 0 1 0 19.7" fill="#c2e1ffD4"/><path d="M300.6-246.9a9.9 9.9 0 1 1 0-19.8 9.9 9.9 0 0 1 0 19.8" fill="#c2e1ffD4"/><path d="M193.1 48.5a9.9 9.9 0 1 1 0-19.8 9.9 9.9 0 0 1 0 19.8" fill="#fff500D4"/><path d="M-112.5-209.5a9.9 9.9 0 1 1 0-19.9 9.9 9.9 0 0 1 0 19.9" fill="#fff500D5"/><path d="M-19.1-337a10 10 0 1 1 0-19.9 10 10 0 0 1 0 19.9" fill="#fff500D6"/><path d="M-113-204.7a10 10 0 1 1 0-20 10 10 0 0 1 0 20" fill="#c2e1ffD6"/><path d="M25.7-358.8a10 10 0 1 1 0-19.9 10 10 0 0 1 0 19.9" fill="#fffD6"/><path d="M317.3-180.3a10 10 0 1 1 0-19.9 10 10 0 0 1 0 19.9" fill="#fffD6"/><path d="M315.8-181.7a10 10 0 1 1 0-20 10 10 0 0 1 0 20" fill="#fffD7"/><path d="M-24.9 24.4a10 10 0 1 1 0-20.1 10 10 0 0 1 0 20.1" fill="#fff500D8"/><path d="M116.1 63.3a10 10 0 1 1 0-20.1 10 10 0 0 1 0 20.1" fill="#c2e1ffD8"/><path d="M-38.3-314.7a10.1 10.1 0 1 1 0-20.2 10.1 10.1 0 0 1 0 20.2" fill="#fff500D9"/><path d="M151.5-358.7a10.1 10.1 0 1 1 0-20.3 10.1 10.1 0 0 1 0 20.3" fill="#c2e1ffDA"/><path d="M-60.3-14.6a10.2 10.2 0 1 1 0-20.4 10.2 10.2 0 0 1 0 20.4" fill="#fff500DB"/><path d="M-95.2-82.5a10.3 10.3 0 1 1 0-20.6 10.3 10.3 0 0 1 0 20.6" fill="#c2e1ffDD"/><path d="M305.5-159.9a10.3 10.3 0 1 1 0-20.6 10.3 10.3 0 0 1 0 20.6" fill="#fff500DD"/><path d="M281.5-237.8a10.4 10.4 0 1 1 0-20.9 10.4 10.4 0 0 1 0 20.9" fill="#005bbbE0"/><path d="M275.9-242.9a10.5 10.5 0 1 1 0-21 10.5 10.5 0 0 1 0 21" fill="#c2e1ffE1"/><path d="M280.3-232.5a10.5 10.5 0 1 1 0-20.9 10.5 10.5 0 0 1 0 20.9" fill="#c2e1ffE1"/><path d="M30.5 28a10.6 10.6 0 1 1 0-21.1 10.6 10.6 0 0 1 0 21.1" fill="#005bbbE3"/><path d="M187.4 19.8a10.6 10.6 0 1 1 0-21.2 10.6 10.6 0 0 1 0 21.2" fill="#fff500E3"/><path d="M289.4-155.3a10.6 10.6 0 1 1 0-21.3 10.6 10.6 0 0 1 0 21.3" fill="#fffE4"/><path d="M139.9 31.7a10.7 10.7 0 1 1 0-21.3 10.7 10.7 0 0 1 0 21.3" fill="#fffE5"/><path d="M-75.6-95.5a10.7 10.7 0 1 1 0-21.4 10.7 10.7 0 0 1 0 21.4" fill="#c2e1ffE6"/><path d="M-6.6-2.2a10.7 10.7 0 1 1 0-21.4 10.7 10.7 0 0 1 0 21.4" fill="#fff500E6"/><path d="M232.8-34a10.8 10.8 0 1 1 0-21.6 10.8 10.8 0 0 1 0 21.6" fill="#005bbbE8"/><path d="M214.2-16.2a10.8 10.8 0 1 1 0-21.6 10.8 10.8 0 0 1 0 21.6" fill="#fff500E8"/><path d="M249.5-244a10.8 10.8 0 1 1 0-21.6 10.8 10.8 0 0 1 0 21.6" fill="#c2e1ffE9"/><path d="M273.2-168.8a10.9 10.9 0 1 1 0-21.7 10.9 10.9 0 0 1 0 21.7" fill="#c2e1ffE9"/><path d="M81.9-321.9a10.9 10.9 0 1 1 0-21.8 10.9 10.9 0 0 1 0 21.8" fill="#005bbbEA"/><path d="M32.5-305.4a10.9 10.9 0 1 1 0-21.9 10.9 10.9 0 0 1 0 21.9" fill="#fff500EB"/><path d="M84.4 14.3a11 11 0 1 1 0-21.9 11 11 0 0 1 0 21.9" fill="#005bbbEC"/><path d="M118.2 13.2a11 11 0 1 1 0-21.9 11 11 0 0 1 0 21.9" fill="#005bbbEC"/><path d="M241.9-78.6a11 11 0 1 1 0-22.1 11 11 0 0 1 0 22.1" fill="#fffED"/><path d="M-19.5-48.1a11.1 11.1 0 1 1 0-22.2 11.1 11.1 0 0 1 0 22.2" fill="#fff500EE"/><path d="M-40.9-91.7a11.1 11.1 0 1 1 0-22.3 11.1 11.1 0 0 1 0 22.3" fill="#fffEF"/><path d="M-28-234a11.1 11.1 0 1 1 0-22.2 11.1 11.1 0 0 1 0 22.2" fill="#fffEF"/><path d="M13-27.3a11.1 11.1 0 1 1 0-22.3 11.1 11.1 0 0 1 0 22.3" fill="#c2e1ffEF"/><path d="M182.8-27.9a11.2 11.2 0 1 1 0-22.3 11.2 11.2 0 0 1 0 22.3" fill="#fff500F0"/><path d="M92.6-299.5a11.2 11.2 0 1 1 0-22.3 11.2 11.2 0 0 1 0 22.3" fill="#fffF0"/><path d="M-39.9-121.3a11.2 11.2 0 1 1 0-22.4 11.2 11.2 0 0 1 0 22.4" fill="#fff500F1"/><path d="M72.7-289.8a11.2 11.2 0 1 1 0-22.5 11.2 11.2 0 0 1 0 22.5" fill="#005bbbF2"/><path d="M229.3-95.8a11.2 11.2 0 1 1 0-22.5 11.2 11.2 0 0 1 0 22.5" fill="#005bbbF2"/><path d="M58.1-285.5a11.2 11.2 0 1 1 0-22.5 11.2 11.2 0 0 1 0 22.5" fill="#fff500F2"/><path d="M218.4-225.8a11.2 11.2 0 1 1 0-22.4 11.2 11.2 0 0 1 0 22.4" fill="#005bbbF2"/><path d="M208.4-88.8a11.4 11.4 0 1 1 0-22.8 11.4 11.4 0 0 1 0 22.8" fill="#005bbbF5"/><path d="M215.1-106.1a11.4 11.4 0 1 1 0-22.7 11.4 11.4 0 0 1 0 22.7" fill="#fffF5"/><path d="M208.7-203.2a11.4 11.4 0 1 1 0-22.8 11.4 11.4 0 0 1 0 22.8" fill="#c2e1ffF5"/><path d="M210.5-118.7a11.4 11.4 0 1 1 0-22.9 11.4 11.4 0 0 1 0 22.9" fill="#fff500F6"/><path d="M54.2-45.9a11.4 11.4 0 1 1 0-22.9 11.4 11.4 0 0 1 0 22.9" fill="#005bbbF6"/><path d="M173.9-67.2a11.5 11.5 0 1 1 0-22.9 11.5 11.5 0 0 1 0 22.9" fill="#fff500F7"/><path d="M181.6-78.7a11.5 11.5 0 1 1 0-22.9 11.5 11.5 0 0 1 0 22.9" fill="#005bbbF7"/><path d="M156.6-237.5a11.5 11.5 0 1 1 0-23.1 11.5 11.5 0 0 1 0 23.1" fill="#fffF8"/><path d="M50.2-238.2a11.5 11.5 0 1 1 0-23.1 11.5 11.5 0 0 1 0 23.1" fill="#c2e1ffF8"/><path d="M195.1-181.7a11.5 11.5 0 1 1 0-23.1 11.5 11.5 0 0 1 0 23.1" fill="#c2e1ffF8"/><path d="M175.5-193.4a11.6 11.6 0 1 1 0-23.2 11.6 11.6 0 0 1 0 23.2" fill="#005bbbFA"/><path d="M27.1-104.3a11.6 11.6 0 1 1 0-23.2 11.6 11.6 0 0 1 0 23.2" fill="#fffFA"/><path d="M70.9-70.3a11.6 11.6 0 1 1 0-23.2 11.6 11.6 0 0 1 0 23.2" fill="#005bbbFA"/><path d="M90-68.2a11.6 11.6 0 1 1 0-23.2 11.6 11.6 0 0 1 0 23.2" fill="#c2e1ffFA"/><path d="M182-142.4a11.6 11.6 0 1 1 0-23.3 11.6 11.6 0 0 1 0 23.3" fill="#c2e1ffFA"/><path d="M137.6-224.2a11.6 11.6 0 1 1 0-23.2 11.6 11.6 0 0 1 0 23.2" fill="#fff500FA"/><path d="M161.7-106.9a11.7 11.7 0 1 1 0-23.3 11.7 11.7 0 0 1 0 23.3" fill="#c2e1ffFB"/><path d="M74.2-204.6a11.7 11.7 0 1 1 0-23.4 11.7 11.7 0 0 1 0 23.4" fill="#fffFC"/><path d="M83.8-98.8a11.7 11.7 0 1 1 0-23.5 11.7 11.7 0 0 1 0 23.5" fill="#fff500FD"/><path d="M120.2-155.1a11.8 11.8 0 1 1 0-23.6 11.8 11.8 0 0 1 0 23.6" fill="#c2e1ffFE"/></g></svg>