<svg width="1200" height="675" viewBox="-500 -500 1200 675" xmlns="http://www.w3.org/2000/svg"><path d="M-500-500h1200v675h-1200z" fill="#000"/><style>.sparkles path{stroke-linecap:round; stroke-width:1}</style><g class="sparkles"><path d="M100-162.5l-42.4 9.7" stroke="#005bbb32"/><path d="M100-162.5l-17.6 46.2" stroke="#fff33"/><path d="M100-162.5l-52.7-11" stroke="#005bbb33"/><path d="M100-162.5l-0.4-67.8" stroke="#c2e1ff34"/><path d="M100-162.5l-28-68.8" stroke="#c2e1ff34"/><path d="M100-162.5l80.7-0.7" stroke="#c2e1ff35"/><path d="M100-162.5l-75.7-34" stroke="#fff50035"/><path d="M100-162.5l-89 14.2" stroke="#fff50035"/><path d="M100-162.5l-64.5 71.3" stroke="#fff36"/><path d="M100-162.5l-95.5 28.2" stroke="#fff50036"/><path d="M100-162.5l-13.8-108.4" stroke="#fff50037"/><path d="M100-162.5l-75-82" stroke="#fff50037"/><path d="M100-162.5l84.9 75.7" stroke="#c2e1ff38"/><path d="M100-162.5l8-113.6" stroke="#c2e1ff38"/><path d="M100-162.5l81.7 92" stroke="#c2e1ff39"/><path d="M100-162.5l87 97.6" stroke="#fff5003A"/><path d="M100-162.5l-119.3-63.9" stroke="#fff5003B"/><path d="M100-162.5l14.9 136" stroke="#fff3B"/><path d="M100-162.5l13.1 139.8" stroke="#fff3B"/><path d="M100-162.5l131.6 52.5" stroke="#fff3B"/><path d="M100-162.5l-132.8 50.5" stroke="#fff3C"/><path d="M100-162.5l-143.6 16.4" stroke="#c2e1ff3C"/><path d="M100-162.5l131.3 67.9" stroke="#005bbb3C"/><path d="M100-162.5l-126.6-90.6" stroke="#fff5003E"/><path d="M100-162.5l158.6 11.5" stroke="#fff5003F"/><path d="M100-162.5l132.6-93" stroke="#fff5003F"/><path d="M100-162.5l87.2 138.2" stroke="#fff5003F"/><path d="M100-162.5l-92.8 136" stroke="#fff50040"/><path d="M100-162.5l-95-142" stroke="#fff50041"/><path d="M100-162.5l-20.3 172.9" stroke="#c2e1ff42"/><path d="M100-162.5l176-6" stroke="#005bbb42"/><path d="M100-162.5l-153.4 95.1" stroke="#c2e1ff43"/><path d="M100-162.5l-49 179.3" stroke="#fff45"/><path d="M100-162.5l-17 188.8" stroke="#c2e1ff46"/><path d="M100-162.5l-152.6-116.1" stroke="#005bbb46"/><path d="M100-162.5l-89.3 171.4" stroke="#fff47"/><path d="M100-162.5l-88.7 172.1" stroke="#005bbb47"/><path d="M100-162.5l179.6-79.4" stroke="#fff50048"/><path d="M100-162.5l31.4-195.9" stroke="#fff48"/><path d="M100-162.5l-75.8 186.5" stroke="#fff50049"/><path d="M100-162.5l-68.1 191.3" stroke="#fff5004A"/><path d="M100-162.5l114.8-172.2" stroke="#fff5004B"/><path d="M100-162.5l-83 194.5" stroke="#005bbb4D"/><path d="M100-162.5l-8.5-212.4" stroke="#fff5004E"/><path d="M100-162.5l-182.6-111.8" stroke="#fff5004E"/><path d="M100-162.5l-69.6-203.5" stroke="#fff4F"/><path d="M100-162.5l-145.7-161.4" stroke="#fff50050"/><path d="M100-162.5l125.5-179.1" stroke="#c2e1ff51"/><path d="M100-162.5l128.2-178.1" stroke="#fff50051"/><path d="M100-162.5l-87.9 202.8" stroke="#005bbb52"/><path d="M100-162.5l-137.7-174.1" stroke="#fff52"/><path d="M100-162.5l213-66" stroke="#005bbb53"/><path d="M100-162.5l181.4-129.8" stroke="#005bbb53"/><path d="M100-162.5l115.2 193.1" stroke="#fff54"/><path d="M100-162.5l-131.4 182.9" stroke="#fff54"/><path d="M100-162.5l50.7-221.3" stroke="#c2e1ff56"/><path d="M100-162.5l122.3 191.9" stroke="#c2e1ff56"/><path d="M100-162.5l42.1-224.2" stroke="#c2e1ff56"/><path d="M100-162.5l29.2 226.2" stroke="#c2e1ff56"/><path d="M100-162.5l142.7 178" stroke="#fff50057"/><path d="M100-162.5l24.5-227.3" stroke="#fff57"/><path d="M100-162.5l-142.5 183.4" stroke="#c2e1ff5A"/><path d="M100-162.5l-100.1-210" stroke="#fff5005B"/><path d="M100-162.5l-199.2 120.6" stroke="#fff5B"/><path d="M100-162.5l217.1-85.3" stroke="#fff5C"/><path d="M100-162.5l53.7 227.1" stroke="#fff5C"/><path d="M100-162.5l231.9-27.9" stroke="#fff5C"/><path d="M100-162.5l-190.9-134.6" stroke="#c2e1ff5C"/><path d="M100-162.5l222-74.2" stroke="#fff5D"/><path d="M100-162.5l-181.4 148.2" stroke="#005bbb5D"/><path d="M100-162.5l-132.1-193.6" stroke="#005bbb5D"/><path d="M100-162.5l28.9-232.9" stroke="#fff5005E"/><path d="M100-162.5l-153.9 177.3" stroke="#fff5E"/><path d="M100-162.5l-221.2 79.3" stroke="#c2e1ff5E"/><path d="M100-162.5l78.2 221.7" stroke="#c2e1ff5F"/><path d="M100-162.5l-200.9-122.4" stroke="#fff5F"/><path d="M100-162.5l126.7-198.4" stroke="#c2e1ff5F"/><path d="M100-162.5l-235.6-6.2" stroke="#fff50060"/><path d="M100-162.5l21.4 234.9" stroke="#fff50061"/><path d="M100-162.5l210.6 106.5" stroke="#fff61"/><path d="M100-162.5l204.2 118.7" stroke="#fff50063"/><path d="M100-162.5l4.7 236.2" stroke="#fff63"/><path d="M100-162.5l-9.7-236" stroke="#c2e1ff64"/><path d="M100-162.5l-188.1-142.7" stroke="#fff50065"/><path d="M100-162.5l72.4-224.8" stroke="#fff50065"/><path d="M100-162.5l175.5-157.9" stroke="#fff65"/><path d="M100-162.5l-235.5-13.5" stroke="#fff66"/><path d="M100-162.5l-207.2-112.7" stroke="#c2e1ff66"/><path d="M100-162.5l-166.1-167.5" stroke="#c2e1ff66"/><path d="M100-162.5l234.5-25.1" stroke="#fff67"/><path d="M100-162.5l-146.2-184.9" stroke="#c2e1ff67"/><path d="M100-162.5l-229.5-51.8" stroke="#005bbb68"/><path d="M100-162.5l77.2-222.3" stroke="#005bbb68"/><path d="M100-162.5l-233.9-22.9" stroke="#c2e1ff69"/><path d="M100-162.5l-164 167.8" stroke="#fff50069"/><path d="M100-162.5l56.5-227.1" stroke="#fff6A"/><path d="M100-162.5l233.7 0" stroke="#fff6B"/><path d="M100-162.5l233.4-5.6" stroke="#fff5006B"/><path d="M100-162.5l125.7 196.6" stroke="#fff6B"/><path d="M100-162.5l-220.4-74" stroke="#c2e1ff6C"/><path d="M100-162.5l-133-188.9" stroke="#005bbb6E"/><path d="M100-162.5l-213.5-87.9" stroke="#fff6E"/><path d="M100-162.5l214.8-82.5" stroke="#005bbb6F"/><path d="M100-162.5l-157-167.9" stroke="#005bbb6F"/><path d="M100-162.5l-223.1 54" stroke="#005bbb6F"/><path d="M100-162.5l-167.6 156.7" stroke="#fff5006F"/><path d="M100-162.5l165.4 158.5" stroke="#fff70"/><path d="M100-162.5l214.3 75.1" stroke="#005bbb71"/><path d="M100-162.5l193.6 116.9" stroke="#005bbb72"/><path d="M100-162.5l214.8 68.8" stroke="#c2e1ff72"/><path d="M100-162.5l-221.9 18.5" stroke="#c2e1ff74"/><path d="M100-162.5l58.6 214.5" stroke="#005bbb74"/><path d="M100-162.5l71.1 210" stroke="#fff75"/><path d="M100-162.5l214.5 44.3" stroke="#005bbb76"/><path d="M100-162.5l-133.5 172.1" stroke="#fff77"/><path d="M100-162.5l-145.3-160.3" stroke="#fff78"/><path d="M100-162.5l-213.2-21" stroke="#fff50079"/><path d="M100-162.5l145.8 156.9" stroke="#fff79"/><path d="M100-162.5l85.2 196" stroke="#c2e1ff79"/><path d="M100-162.5l-121.8-174.8" stroke="#005bbb79"/><path d="M100-162.5l194.1-81.6" stroke="#fff7A"/><path d="M100-162.5l-116.2 174.4" stroke="#c2e1ff7B"/><path d="M100-162.5l134 160.1" stroke="#fff5007B"/><path d="M100-162.5l-201.4 52.4" stroke="#fff5007B"/><path d="M100-162.5l-207.7-8.2" stroke="#c2e1ff7B"/><path d="M100-162.5l178.2 106.1" stroke="#005bbb7B"/><path d="M100-162.5l-130.1-160" stroke="#fff7C"/><path d="M100-162.5l-177.3-95.7" stroke="#fff7E"/><path d="M100-162.5l74.2-184.1" stroke="#005bbb7F"/><path d="M100-162.5l93.8-174.8" stroke="#fff7F"/><path d="M100-162.5l102.4 166.4" stroke="#fff80"/><path d="M100-162.5l58.7-185.9" stroke="#c2e1ff80"/><path d="M100-162.5l8.8 193.5" stroke="#fff50080"/><path d="M100-162.5l-116.8 152.8" stroke="#005bbb81"/><path d="M100-162.5l-119.9-149.6" stroke="#fff81"/><path d="M100-162.5l172.7 81.4" stroke="#fff50081"/><path d="M100-162.5l187.9 27.4" stroke="#c2e1ff81"/><path d="M100-162.5l-0.2 187.6" stroke="#fff82"/><path d="M100-162.5l-67.8-173.5" stroke="#c2e1ff82"/><path d="M100-162.5l49.4 177.4" stroke="#fff83"/><path d="M100-162.5l-25.3-181.8" stroke="#005bbb83"/><path d="M100-162.5l17.6-180.2" stroke="#c2e1ff84"/><path d="M100-162.5l-123.1 132.4" stroke="#c2e1ff84"/><path d="M100-162.5l-98.1-151" stroke="#fff84"/><path d="M100-162.5l-8.7 179.6" stroke="#fff84"/><path d="M100-162.5l156.8-86.1" stroke="#c2e1ff84"/><path d="M100-162.5l41.2-168.8" stroke="#c2e1ff85"/><path d="M100-162.5l-2.1-172.9" stroke="#fff86"/><path d="M100-162.5l-172.1-5" stroke="#fff50086"/><path d="M100-162.5l168.7-17.3" stroke="#005bbb86"/><path d="M100-162.5l55.4-158.5" stroke="#005bbb87"/><path d="M100-162.5l14.1 166.5" stroke="#fff50087"/><path d="M100-162.5l-149.6-56.5" stroke="#fff50088"/><path d="M100-162.5l-123.8 94.8" stroke="#fff89"/><path d="M100-162.5l-141.7-49.4" stroke="#c2e1ff8A"/><path d="M100-162.5l-143.1-28.8" stroke="#005bbb8B"/><path d="M100-162.5l131.6-59.2" stroke="#005bbb8B"/><path d="M100-162.5l-84.9 113.8" stroke="#fff5008B"/><path d="M100-162.5l16.5 139" stroke="#c2e1ff8C"/><path d="M100-162.5l-52.4-126.6" stroke="#fff8C"/><path d="M100-162.5l-132.2-11.5" stroke="#005bbb8D"/><path d="M100-162.5l116.5 55" stroke="#005bbb8D"/><path d="M100-162.5l74.4 100.5" stroke="#005bbb8E"/><path d="M100-162.5l65.5 104.8" stroke="#fff8E"/><path d="M100-162.5l32.8 119" stroke="#005bbb8E"/><path d="M100-162.5l-92.7 71.9" stroke="#c2e1ff8F"/><path d="M100-162.5l73.7 88.9" stroke="#c2e1ff8F"/><path d="M100-162.5l29.1 108.3" stroke="#fff50090"/><path d="M100-162.5l-106.6-22.5" stroke="#c2e1ff90"/><path d="M100-162.5l102.9-33.4" stroke="#fff90"/><path d="M100-162.5l-3.2-107.6" stroke="#fff50090"/><path d="M100-162.5l48.6-81.9" stroke="#fff91"/><path d="M100-162.5l60.6 65.7" stroke="#fff92"/><path d="M100-162.5l55.4 69.3" stroke="#fff50092"/><path d="M100-162.5l75.5-20.4" stroke="#fff50093"/><path d="M100-162.5l-68.7 15.1" stroke="#c2e1ff93"/><path d="M100-162.5l-19.6-65.6" stroke="#c2e1ff93"/><path d="M100-162.5l6.2 64" stroke="#fff50094"/><path d="M100-162.5l29-54.9" stroke="#005bbb94"/><path d="M100-162.5l30.9 36.1" stroke="#fff94"/><path d="M100-162.5l25.2-1.5" stroke="#005bbb95"/></g><g class="sparcs"><path d="M57.6-146.9a6 6 0 1 1 0-11.9 6 6 0 0 1 0 11.9" fill="#fff5007E"/><path d="M82.4-110.4a6 6 0 1 1 0-11.9 6 6 0 0 1 0 11.9" fill="#fff7E"/><path d="M47.3-167.5a6 6 0 1 1 0-12 6 6 0 0 1 0 12" fill="#fff5007E"/><path d="M99.6-224.2a6 6 0 1 1 0-12.1 6 6 0 0 1 0 12.1" fill="#005bbb7F"/><path d="M72-225.3a6.1 6.1 0 1 1 0-12.1 6.1 6.1 0 0 1 0 12.1" fill="#fff50080"/><path d="M180.7-157.1a6.1 6.1 0 1 1 0-12.2 6.1 6.1 0 0 1 0 12.2" fill="#c2e1ff80"/><path d="M24.3-190.4a6.1 6.1 0 1 1 0-12.2 6.1 6.1 0 0 1 0 12.2" fill="#c2e1ff81"/><path d="M11-142.2a6.1 6.1 0 1 1 0-12.2 6.1 6.1 0 0 1 0 12.2" fill="#005bbb81"/><path d="M35.5-85.1a6.2 6.2 0 1 1 0-12.3 6.2 6.2 0 0 1 0 12.3" fill="#fff50082"/><path d="M4.5-128.1a6.2 6.2 0 1 1 0-12.3 6.2 6.2 0 0 1 0 12.3" fill="#c2e1ff83"/><path d="M86.2-264.6a6.2 6.2 0 1 1 0-12.5 6.2 6.2 0 0 1 0 12.5" fill="#fff50084"/><path d="M25-238.3a6.3 6.3 0 1 1 0-12.5 6.3 6.3 0 0 1 0 12.5" fill="#fff50084"/><path d="M184.9-80.5a6.3 6.3 0 1 1 0-12.6 6.3 6.3 0 0 1 0 12.6" fill="#c2e1ff85"/><path d="M108-269.9a6.3 6.3 0 1 1 0-12.5 6.3 6.3 0 0 1 0 12.5" fill="#fff50085"/><path d="M181.7-64.2a6.3 6.3 0 1 1 0-12.7 6.3 6.3 0 0 1 0 12.7" fill="#005bbb86"/><path d="M187-58.5a6.4 6.4 0 1 1 0-12.8 6.4 6.4 0 0 1 0 12.8" fill="#fff50087"/><path d="M-19.3-220a6.4 6.4 0 1 1 0-12.9 6.4 6.4 0 0 1 0 12.9" fill="#005bbb88"/><path d="M114.9-20.1a6.5 6.5 0 1 1 0-12.9 6.5 6.5 0 0 1 0 12.9" fill="#c2e1ff89"/><path d="M113.1-16.2a6.5 6.5 0 1 1 0-13 6.5 6.5 0 0 1 0 13" fill="#fff89"/><path d="M231.6-103.5a6.5 6.5 0 1 1 0-13 6.5 6.5 0 0 1 0 13" fill="#fff89"/><path d="M-32.8-105.5a6.5 6.5 0 1 1 0-13 6.5 6.5 0 0 1 0 13" fill="#fff8A"/><path d="M-43.6-139.5a6.5 6.5 0 1 1 0-13.1 6.5 6.5 0 0 1 0 13.1" fill="#005bbb8A"/><path d="M231.3-88a6.6 6.6 0 1 1 0-13.1 6.6 6.6 0 0 1 0 13.1" fill="#fff8B"/><path d="M-26.6-246.5a6.6 6.6 0 1 1 0-13.2 6.6 6.6 0 0 1 0 13.2" fill="#005bbb8D"/><path d="M258.6-144.4a6.7 6.7 0 1 1 0-13.3 6.7 6.7 0 0 1 0 13.3" fill="#fff8D"/><path d="M232.6-248.8a6.7 6.7 0 1 1 0-13.4 6.7 6.7 0 0 1 0 13.4" fill="#fff8E"/><path d="M187.2-17.6a6.7 6.7 0 1 1 0-13.4 6.7 6.7 0 0 1 0 13.4" fill="#005bbb8F"/><path d="M7.2-19.8a6.7 6.7 0 1 1 0-13.5 6.7 6.7 0 0 1 0 13.5" fill="#c2e1ff8F"/><path d="M5-297.6a6.8 6.8 0 1 1 0-13.7 6.8 6.8 0 0 1 0 13.7" fill="#fff91"/><path d="M79.7 17.2a6.9 6.9 0 1 1 0-13.7 6.9 6.9 0 0 1 0 13.7" fill="#c2e1ff92"/><path d="M276-161.6a6.9 6.9 0 1 1 0-13.8 6.9 6.9 0 0 1 0 13.8" fill="#fff92"/><path d="M-53.4-60.5a7 7 0 1 1 0-13.9 7 7 0 0 1 0 13.9" fill="#005bbb94"/><path d="M51 23.9a7 7 0 1 1 0-14.1 7 7 0 0 1 0 14.1" fill="#005bbb95"/><path d="M83 33.4a7.1 7.1 0 1 1 0-14.2 7.1 7.1 0 0 1 0 14.2" fill="#005bbb97"/><path d="M-52.6-271.5a7.1 7.1 0 1 1 0-14.3 7.1 7.1 0 0 1 0 14.3" fill="#fff98"/><path d="M10.7 16.1a7.2 7.2 0 1 1 0-14.3 7.2 7.2 0 0 1 0 14.3" fill="#fff50098"/><path d="M11.3 16.8a7.2 7.2 0 1 1 0-14.3 7.2 7.2 0 0 1 0 14.3" fill="#fff98"/><path d="M279.6-234.7a7.2 7.2 0 1 1 0-14.4 7.2 7.2 0 0 1 0 14.4" fill="#005bbb99"/><path d="M131.4-351.2a7.3 7.3 0 1 1 0-14.5 7.3 7.3 0 0 1 0 14.5" fill="#c2e1ff9A"/><path d="M24.2 31.3a7.3 7.3 0 1 1 0-14.6 7.3 7.3 0 0 1 0 14.6" fill="#c2e1ff9B"/><path d="M31.9 36.2a7.4 7.4 0 1 1 0-14.7 7.4 7.4 0 0 1 0 14.7" fill="#c2e1ff9C"/><path d="M214.8-327.3a7.4 7.4 0 1 1 0-14.9 7.4 7.4 0 0 1 0 14.9" fill="#fff5009E"/><path d="M17 39.5a7.5 7.5 0 1 1 0-15.1 7.5 7.5 0 0 1 0 15.1" fill="#c2e1ffA1"/><path d="M91.5-367.3a7.6 7.6 0 1 1 0-15.2 7.6 7.6 0 0 1 0 15.2" fill="#c2e1ffA1"/><path d="M-82.6-266.7a7.6 7.6 0 1 1 0-15.2 7.6 7.6 0 0 1 0 15.2" fill="#fffA2"/><path d="M30.4-358.3a7.6 7.6 0 1 1 0-15.3 7.6 7.6 0 0 1 0 15.3" fill="#fffA3"/><path d="M-45.7-316.2a7.7 7.7 0 1 1 0-15.4 7.7 7.7 0 0 1 0 15.4" fill="#fff500A4"/><path d="M225.5-333.9a7.7 7.7 0 1 1 0-15.5 7.7 7.7 0 0 1 0 15.5" fill="#fffA5"/><path d="M228.2-332.9a7.8 7.8 0 1 1 0-15.5 7.8 7.8 0 0 1 0 15.5" fill="#005bbbA5"/><path d="M12.1 48.1a7.8 7.8 0 1 1 0-15.6 7.8 7.8 0 0 1 0 15.6" fill="#c2e1ffA7"/><path d="M-37.7-328.8a7.8 7.8 0 1 1 0-15.6 7.8 7.8 0 0 1 0 15.6" fill="#fffA7"/><path d="M313-220.6a7.9 7.9 0 1 1 0-15.8 7.9 7.9 0 0 1 0 15.8" fill="#fff500A8"/><path d="M281.4-284.4a7.9 7.9 0 1 1 0-15.8 7.9 7.9 0 0 1 0 15.8" fill="#fff500A8"/><path d="M215.2 38.6a8 8 0 1 1 0-16 8 8 0 0 1 0 16" fill="#fffAA"/><path d="M-31.4 28.3a8 8 0 1 1 0-15.9 8 8 0 0 1 0 15.9" fill="#fff500AA"/><path d="M150.7-375.8a8 8 0 1 1 0-16.1 8 8 0 0 1 0 16.1" fill="#fff500AC"/><path d="M222.3 37.5a8.1 8.1 0 1 1 0-16.1 8.1 8.1 0 0 1 0 16.1" fill="#fffAC"/><path d="M142.1-378.6a8.1 8.1 0 1 1 0-16.2 8.1 8.1 0 0 1 0 16.2" fill="#c2e1ffAD"/><path d="M129.2 71.8a8.1 8.1 0 1 1 0-16.2 8.1 8.1 0 0 1 0 16.2" fill="#005bbbAD"/><path d="M242.7 23.6a8.1 8.1 0 1 1 0-16.2 8.1 8.1 0 0 1 0 16.2" fill="#fff500AD"/><path d="M124.5-381.6a8.1 8.1 0 1 1 0-16.3 8.1 8.1 0 0 1 0 16.3" fill="#005bbbAD"/><path d="M-42.5 29.2a8.3 8.3 0 1 1 0-16.6 8.3 8.3 0 0 1 0 16.6" fill="#005bbbB2"/><path d="M-0.1-364.2a8.3 8.3 0 1 1 0-16.7 8.3 8.3 0 0 1 0 16.7" fill="#005bbbB2"/><path d="M-99.2-33.6a8.4 8.4 0 1 1 0-16.7 8.4 8.4 0 0 1 0 16.7" fill="#fffB3"/><path d="M317.1-239.4a8.4 8.4 0 1 1 0-16.8 8.4 8.4 0 0 1 0 16.8" fill="#fff500B3"/><path d="M153.7 73a8.4 8.4 0 1 1 0-16.8 8.4 8.4 0 0 1 0 16.8" fill="#fff500B3"/><path d="M331.9-182a8.4 8.4 0 1 1 0-16.8 8.4 8.4 0 0 1 0 16.8" fill="#fff500B4"/><path d="M-90.9-288.7a8.4 8.4 0 1 1 0-16.9 8.4 8.4 0 0 1 0 16.9" fill="#005bbbB4"/><path d="M322-228.2a8.5 8.5 0 1 1 0-16.9 8.5 8.5 0 0 1 0 16.9" fill="#c2e1ffB5"/><path d="M-81.4-5.8a8.5 8.5 0 1 1 0-17 8.5 8.5 0 0 1 0 17" fill="#fff500B5"/><path d="M-32.1-347.6a8.5 8.5 0 1 1 0-17 8.5 8.5 0 0 1 0 17" fill="#fffB5"/><path d="M128.9-386.9a8.5 8.5 0 1 1 0-17.1 8.5 8.5 0 0 1 0 17.1" fill="#fffB6"/><path d="M-53.9 23.3a8.5 8.5 0 1 1 0-17.1 8.5 8.5 0 0 1 0 17.1" fill="#fffB6"/><path d="M-121.2-74.7a8.6 8.6 0 1 1 0-17.1 8.6 8.6 0 0 1 0 17.1" fill="#005bbbB7"/><path d="M178.2 67.8a8.6 8.6 0 1 1 0-17.1 8.6 8.6 0 0 1 0 17.1" fill="#fff500B7"/><path d="M-100.9-276.3a8.6 8.6 0 1 1 0-17.1 8.6 8.6 0 0 1 0 17.1" fill="#fff500B7"/><path d="M226.7-352.3a8.6 8.6 0 1 1 0-17.2 8.6 8.6 0 0 1 0 17.2" fill="#fffB8"/><path d="M-135.6-160a8.7 8.7 0 1 1 0-17.3 8.7 8.7 0 0 1 0 17.3" fill="#005bbbB9"/><path d="M121.4 81.1a8.7 8.7 0 1 1 0-17.4 8.7 8.7 0 0 1 0 17.4" fill="#005bbbBA"/><path d="M310.6-47.3a8.7 8.7 0 1 1 0-17.4 8.7 8.7 0 0 1 0 17.4" fill="#fffBB"/><path d="M304.2-35a8.8 8.8 0 1 1 0-17.6 8.8 8.8 0 0 1 0 17.6" fill="#005bbbBC"/><path d="M104.7 82.5a8.8 8.8 0 1 1 0-17.6 8.8 8.8 0 0 1 0 17.6" fill="#fffBD"/><path d="M90.3-389.7a8.9 8.9 0 1 1 0-17.7 8.9 8.9 0 0 1 0 17.7" fill="#fffBE"/><path d="M-88.1-296.3a8.9 8.9 0 1 1 0-17.9 8.9 8.9 0 0 1 0 17.9" fill="#005bbbBF"/><path d="M172.4-378.3a9 9 0 1 1 0-17.9 9 9 0 0 1 0 17.9" fill="#c2e1ffC0"/><path d="M275.5-311.4a9 9 0 1 1 0-17.9 9 9 0 0 1 0 17.9" fill="#fff500C0"/><path d="M-135.5-167a9 9 0 1 1 0-18 9 9 0 0 1 0 18" fill="#005bbbC1"/><path d="M-107.2-266.2a9 9 0 1 1 0-18 9 9 0 0 1 0 18" fill="#005bbbC1"/><path d="M-66.1-321a9 9 0 1 1 0-18 9 9 0 0 1 0 18" fill="#fff500C1"/><path d="M334.5-178.5a9 9 0 1 1 0-18.1 9 9 0 0 1 0 18.1" fill="#fff500C2"/><path d="M-46.2-338.4a9.1 9.1 0 1 1 0-18.1 9.1 9.1 0 0 1 0 18.1" fill="#c2e1ffC2"/><path d="M-129.5-205.2a9.1 9.1 0 1 1 0-18.2 9.1 9.1 0 0 1 0 18.2" fill="#fffC3"/><path d="M177.2-375.6a9.1 9.1 0 1 1 0-18.3 9.1 9.1 0 0 1 0 18.3" fill="#fffC3"/><path d="M-133.9-176.3a9.2 9.2 0 1 1 0-18.3 9.2 9.2 0 0 1 0 18.3" fill="#fffC4"/><path d="M-64 14.5a9.2 9.2 0 1 1 0-18.4 9.2 9.2 0 0 1 0 18.4" fill="#c2e1ffC5"/><path d="M156.5-380.4a9.3 9.3 0 1 1 0-18.5 9.3 9.3 0 0 1 0 18.5" fill="#fff500C6"/><path d="M333.7-153.2a9.3 9.3 0 1 1 0-18.6 9.3 9.3 0 0 1 0 18.6" fill="#fff500C7"/><path d="M333.4-158.8a9.3 9.3 0 1 1 0-18.6 9.3 9.3 0 0 1 0 18.6" fill="#c2e1ffC7"/><path d="M225.7 43.4a9.3 9.3 0 1 1 0-18.6 9.3 9.3 0 0 1 0 18.6" fill="#fff500C8"/><path d="M-120.4-227.1a9.4 9.4 0 1 1 0-18.8 9.4 9.4 0 0 1 0 18.8" fill="#fff500C9"/><path d="M-33-342a9.5 9.5 0 1 1 0-18.9 9.5 9.5 0 0 1 0 18.9" fill="#fff500CB"/><path d="M-113.5-240.9a9.5 9.5 0 1 1 0-19 9.5 9.5 0 0 1 0 19" fill="#c2e1ffCB"/><path d="M314.8-235.5a9.5 9.5 0 1 1 0-19.1 9.5 9.5 0 0 1 0 19.1" fill="#c2e1ffCC"/><path d="M-57-320.9a9.5 9.5 0 1 1 0-19.1 9.5 9.5 0 0 1 0 19.1" fill="#005bbbCC"/><path d="M-123.1-99a9.6 9.6 0 1 1 0-19.1 9.6 9.6 0 0 1 0 19.1" fill="#fffCD"/><path d="M-67.6 3.8a9.6 9.6 0 1 1 0-19.1 9.6 9.6 0 0 1 0 19.1" fill="#fffCD"/><path d="M265.4 5.6a9.6 9.6 0 1 1 0-19.2 9.6 9.6 0 0 1 0 19.2" fill="#005bbbCD"/><path d="M314.3-77.7a9.7 9.7 0 1 1 0-19.4 9.7 9.7 0 0 1 0 19.4" fill="#c2e1ffCF"/><path d="M293.6-35.9a9.7 9.7 0 1 1 0-19.4 9.7 9.7 0 0 1 0 19.4" fill="#fffD0"/><path d="M314.8-84a9.7 9.7 0 1 1 0-19.4 9.7 9.7 0 0 1 0 19.4" fill="#c2e1ffD1"/><path d="M-121.9-134.2a9.8 9.8 0 1 1 0-19.7 9.8 9.8 0 0 1 0 19.7" fill="#c2e1ffD3"/><path d="M158.6 61.8a9.9 9.9 0 1 1 0-19.7 9.9 9.9 0 0 1 0 19.7" fill="#fff500D3"/><path d="M171.1 57.3a9.9 9.9 0 1 1 0-19.7 9.9 9.9 0 0 1 0 19.7" fill="#c2e1ffD4"/><path d="M314.5-108.2a10 10 0 1 1 0-19.9 10 10 0 0 1 0 19.9" fill="#c2e1ffD6"/><path d="M-33.5 19.7a10 10 0 1 1 0-20.1 10 10 0 0 1 0 20.1" fill="#fffD7"/><path d="M-45.3-312.8a10 10 0 1 1 0-20.1 10 10 0 0 1 0 20.1" fill="#fff500D8"/><path d="M-113.2-173.4a10.1 10.1 0 1 1 0-20.2 10.1 10.1 0 0 1 0 20.2" fill="#005bbbD9"/><path d="M245.8 4.5a10.1 10.1 0 1 1 0-20.2 10.1 10.1 0 0 1 0 20.2" fill="#fff500D9"/><path d="M185.2 43.7a10.1 10.1 0 1 1 0-20.3 10.1 10.1 0 0 1 0 20.3" fill="#005bbbD9"/><path d="M-21.8-327.1a10.1 10.1 0 1 1 0-20.3 10.1 10.1 0 0 1 0 20.3" fill="#fff500DA"/><path d="M294.1-233.9a10.2 10.2 0 1 1 0-20.4 10.2 10.2 0 0 1 0 20.4" fill="#c2e1ffDB"/><path d="M-16.2 22.1a10.2 10.2 0 1 1 0-20.4 10.2 10.2 0 0 1 0 20.4" fill="#fff500DB"/><path d="M234 7.9a10.2 10.2 0 1 1 0-20.5 10.2 10.2 0 0 1 0 20.5" fill="#005bbbDC"/><path d="M-101.4-99.8a10.3 10.3 0 1 1 0-20.5 10.3 10.3 0 0 1 0 20.5" fill="#fffDC"/><path d="M-107.7-160.4a10.3 10.3 0 1 1 0-20.5 10.3 10.3 0 0 1 0 20.5" fill="#fffDC"/><path d="M278.2-46.1a10.3 10.3 0 1 1 0-20.6 10.3 10.3 0 0 1 0 20.6" fill="#c2e1ffDD"/><path d="M-30.1-312.2a10.3 10.3 0 1 1 0-20.6 10.3 10.3 0 0 1 0 20.6" fill="#005bbbDD"/><path d="M-77.3-247.8a10.4 10.4 0 1 1 0-20.8 10.4 10.4 0 0 1 0 20.8" fill="#c2e1ffDF"/><path d="M174.2-336.1a10.5 10.5 0 1 1 0-20.9 10.5 10.5 0 0 1 0 20.9" fill="#005bbbE1"/><path d="M193.8-326.8a10.5 10.5 0 1 1 0-21 10.5 10.5 0 0 1 0 21" fill="#fff500E1"/><path d="M202.4 14.4a10.5 10.5 0 1 1 0-21.1 10.5 10.5 0 0 1 0 21.1" fill="#c2e1ffE2"/><path d="M158.7-337.9a10.5 10.5 0 1 1 0-21 10.5 10.5 0 0 1 0 21" fill="#fffE2"/><path d="M108.8 41.5a10.6 10.6 0 1 1 0-21.1 10.6 10.6 0 0 1 0 21.1" fill="#005bbbE3"/><path d="M-16.8 0.9a10.6 10.6 0 1 1 0-21.2 10.6 10.6 0 0 1 0 21.2" fill="#fff500E3"/><path d="M-19.9-301.6a10.6 10.6 0 1 1 0-21.1 10.6 10.6 0 0 1 0 21.1" fill="#fffE3"/><path d="M272.7-70.5a10.6 10.6 0 1 1 0-21.2 10.6 10.6 0 0 1 0 21.2" fill="#fffE4"/><path d="M287.9-124.4a10.6 10.6 0 1 1 0-21.3 10.6 10.6 0 0 1 0 21.3" fill="#005bbbE4"/><path d="M99.8 35.7a10.7 10.7 0 1 1 0-21.3 10.7 10.7 0 0 1 0 21.3" fill="#fff500E5"/><path d="M32.2-325.3a10.7 10.7 0 1 1 0-21.3 10.7 10.7 0 0 1 0 21.3" fill="#005bbbE5"/><path d="M149.4 25.6a10.7 10.7 0 1 1 0-21.4 10.7 10.7 0 0 1 0 21.4" fill="#fff500E6"/><path d="M74.7-333.6a10.7 10.7 0 1 1 0-21.4 10.7 10.7 0 0 1 0 21.4" fill="#005bbbE6"/><path d="M117.6-332a10.8 10.8 0 1 1 0-21.5 10.8 10.8 0 0 1 0 21.5" fill="#c2e1ffE7"/><path d="M-23.1-19.3a10.8 10.8 0 1 1 0-21.6 10.8 10.8 0 0 1 0 21.6" fill="#fff500E7"/><path d="M1.9-302.7a10.8 10.8 0 1 1 0-21.5 10.8 10.8 0 0 1 0 21.5" fill="#005bbbE8"/><path d="M91.3 27.8a10.8 10.8 0 1 1 0-21.5 10.8 10.8 0 0 1 0 21.5" fill="#c2e1ffE8"/><path d="M256.8-237.8a10.8 10.8 0 1 1 0-21.5 10.8 10.8 0 0 1 0 21.5" fill="#fff500E8"/><path d="M141.2-320.4a10.9 10.9 0 1 1 0-21.8 10.9 10.9 0 0 1 0 21.8" fill="#fffEA"/><path d="M97.9-324.5a10.9 10.9 0 1 1 0-21.8 10.9 10.9 0 0 1 0 21.8" fill="#fffEA"/><path d="M-72.1-156.6a10.9 10.9 0 1 1 0-21.8 10.9 10.9 0 0 1 0 21.8" fill="#005bbbEA"/><path d="M268.7-168.9a10.9 10.9 0 1 1 0-21.9 10.9 10.9 0 0 1 0 21.9" fill="#c2e1ffEB"/><path d="M155.4-310.1a10.9 10.9 0 1 1 0-21.9 10.9 10.9 0 0 1 0 21.9" fill="#fff500EB"/><path d="M114.1 14.9a10.9 10.9 0 1 1 0-21.9 10.9 10.9 0 0 1 0 21.9" fill="#c2e1ffEB"/><path d="M-49.6-208a11 11 0 1 1 0-22 11 11 0 0 1 0 22" fill="#fff500ED"/><path d="M-23.8-56.6a11.1 11.1 0 1 1 0-22.2 11.1 11.1 0 0 1 0 22.2" fill="#005bbbEE"/><path d="M-41.7-200.7a11.1 11.1 0 1 1 0-22.3 11.1 11.1 0 0 1 0 22.3" fill="#fff500F0"/><path d="M-43.1-180.1a11.2 11.2 0 1 1 0-22.3 11.2 11.2 0 0 1 0 22.3" fill="#c2e1ffF1"/><path d="M231.6-210.5a11.2 11.2 0 1 1 0-22.4 11.2 11.2 0 0 1 0 22.4" fill="#fffF1"/><path d="M15.1-37.5a11.2 11.2 0 1 1 0-22.4 11.2 11.2 0 0 1 0 22.4" fill="#c2e1ffF1"/><path d="M116.5-12.3a11.2 11.2 0 1 1 0-22.5 11.2 11.2 0 0 1 0 22.5" fill="#c2e1ffF2"/><path d="M47.6-277.8a11.3 11.3 0 1 1 0-22.6 11.3 11.3 0 0 1 0 22.6" fill="#fff500F2"/><path d="M-32.2-162.7a11.3 11.3 0 1 1 0-22.6 11.3 11.3 0 0 1 0 22.6" fill="#005bbbF3"/><path d="M216.5-96.1a11.3 11.3 0 1 1 0-22.7 11.3 11.3 0 0 1 0 22.7" fill="#c2e1ffF4"/><path d="M174.4-50.7a11.4 11.4 0 1 1 0-22.7 11.4 11.4 0 0 1 0 22.7" fill="#c2e1ffF5"/><path d="M165.5-46.4a11.4 11.4 0 1 1 0-22.7 11.4 11.4 0 0 1 0 22.7" fill="#fffF5"/><path d="M132.8-32.1a11.4 11.4 0 1 1 0-22.8 11.4 11.4 0 0 1 0 22.8" fill="#fffF5"/><path d="M7.3-79.2a11.4 11.4 0 1 1 0-22.8 11.4 11.4 0 0 1 0 22.8" fill="#fff500F6"/><path d="M173.7-62.2a11.4 11.4 0 1 1 0-22.9 11.4 11.4 0 0 1 0 22.9" fill="#c2e1ffF6"/><path d="M129.1-42.8a11.5 11.5 0 1 1 0-22.9 11.5 11.5 0 0 1 0 22.9" fill="#c2e1ffF7"/><path d="M-6.6-173.6a11.5 11.5 0 1 1 0-22.9 11.5 11.5 0 0 1 0 22.9" fill="#c2e1ffF7"/><path d="M202.9-184.4a11.5 11.5 0 1 1 0-23 11.5 11.5 0 0 1 0 23" fill="#c2e1ffF7"/><path d="M96.8-258.6a11.5 11.5 0 1 1 0-23 11.5 11.5 0 0 1 0 23" fill="#fff500F7"/><path d="M148.6-232.8a11.6 11.6 0 1 1 0-23.2 11.6 11.6 0 0 1 0 23.2" fill="#fffF9"/><path d="M160.6-85.2a11.6 11.6 0 1 1 0-23.2 11.6 11.6 0 0 1 0 23.2" fill="#fff500FA"/><path d="M155.4-81.6a11.6 11.6 0 1 1 0-23.2 11.6 11.6 0 0 1 0 23.2" fill="#fff500FA"/><path d="M175.5-171.3a11.6 11.6 0 1 1 0-23.2 11.6 11.6 0 0 1 0 23.2" fill="#fffFB"/><path d="M31.3-135.7a11.7 11.7 0 1 1 0-23.4 11.7 11.7 0 0 1 0 23.4" fill="#fff500FC"/><path d="M80.4-216.4a11.7 11.7 0 1 1 0-23.4 11.7 11.7 0 0 1 0 23.4" fill="#005bbbFC"/><path d="M106.2-86.8a11.7 11.7 0 1 1 0-23.4 11.7 11.7 0 0 1 0 23.4" fill="#c2e1ffFC"/><path d="M129-205.7a11.7 11.7 0 1 1 0-23.4 11.7 11.7 0 0 1 0 23.4" fill="#c2e1ffFC"/><path d="M130.9-114.6a11.8 11.8 0 1 1 0-23.5 11.8 11.8 0 0 1 0 23.5" fill="#fffFD"/><path d="M125.2-152.2a11.8 11.8 0 1 1 0-23.6 11.8 11.8 0 0 1 0 23.6" fill="#005bbbFE"/></g></svg>