<svg width="1200" height="675" viewBox="-500 -500 1200 675" xmlns="http://www.w3.org/2000/svg"><path d="M-500-500h1200v675h-1200z" fill="#000"/><style>.sparkles path{stroke-linecap:round; stroke-width:1}</style><g class="sparkles"><path d="M100-162.5l17.3 10.4" stroke="#c2e1ff32"/><path d="M100-162.5l-15.9 26.9" stroke="#fff50032"/><path d="M100-162.5l18.7-31.6" stroke="#c2e1ff32"/><path d="M100-162.5l72.8-24" stroke="#c2e1ff34"/><path d="M100-162.5l74.9 37.9" stroke="#c2e1ff35"/><path d="M100-162.5l-89.3-8.3" stroke="#c2e1ff35"/><path d="M100-162.5l73.9-60.6" stroke="#fff50036"/><path d="M100-162.5l81.6 56.7" stroke="#fff50036"/><path d="M100-162.5l-90.8-54.2" stroke="#fff37"/><path d="M100-162.5l100-34.6" stroke="#c2e1ff37"/><path d="M100-162.5l-29.8 109.2" stroke="#c2e1ff38"/><path d="M100-162.5l116.1-4.2" stroke="#fff38"/><path d="M100-162.5l56.4 105.4" stroke="#fff50038"/><path d="M100-162.5l47.6 109.7" stroke="#fff38"/><path d="M100-162.5l-76.1 92.5" stroke="#fff50038"/><path d="M100-162.5l-11.1-131.6" stroke="#fff5003A"/><path d="M100-162.5l-129.6 31.8" stroke="#fff5003A"/><path d="M100-162.5l-9.3 139.3" stroke="#005bbb3B"/><path d="M100-162.5l-140.5 8.6" stroke="#005bbb3B"/><path d="M100-162.5l-62 127.9" stroke="#c2e1ff3C"/><path d="M100-162.5l88.3 115.6" stroke="#c2e1ff3C"/><path d="M100-162.5l-128.2-71.3" stroke="#fff3C"/><path d="M100-162.5l-140.2-51.5" stroke="#fff5003D"/><path d="M100-162.5l-132.1-73.2" stroke="#c2e1ff3D"/><path d="M100-162.5l-148.7-28.3" stroke="#fff3D"/><path d="M100-162.5l-94.3-121.3" stroke="#005bbb3E"/><path d="M100-162.5l-66.4 141.5" stroke="#005bbb3E"/><path d="M100-162.5l141.7 71.4" stroke="#005bbb3E"/><path d="M100-162.5l152.5 62" stroke="#005bbb40"/><path d="M100-162.5l163.2 22" stroke="#fff40"/><path d="M100-162.5l-56.5 155.8" stroke="#005bbb40"/><path d="M100-162.5l-75.6-148.2" stroke="#fff40"/><path d="M100-162.5l-165.7-32.1" stroke="#c2e1ff41"/><path d="M100-162.5l-164.4-54.1" stroke="#c2e1ff41"/><path d="M100-162.5l52.4-171.2" stroke="#fff43"/><path d="M100-162.5l-162.3-89.8" stroke="#fff45"/><path d="M100-162.5l25.6 186.5" stroke="#fff45"/><path d="M100-162.5l154 112.1" stroke="#005bbb46"/><path d="M100-162.5l53.8 188.7" stroke="#fff50048"/><path d="M100-162.5l-49.8-190.8" stroke="#c2e1ff48"/><path d="M100-162.5l185.3 76.1" stroke="#fff49"/><path d="M100-162.5l108.3 170.1" stroke="#c2e1ff49"/><path d="M100-162.5l119.1-164.8" stroke="#fff5004A"/><path d="M100-162.5l-105.5 174.7" stroke="#fff4A"/><path d="M100-162.5l180.1-101.8" stroke="#c2e1ff4B"/><path d="M100-162.5l70.6-194.9" stroke="#c2e1ff4C"/><path d="M100-162.5l187.7 90" stroke="#005bbb4C"/><path d="M100-162.5l-49.3-203.5" stroke="#c2e1ff4C"/><path d="M100-162.5l37.4 207.3" stroke="#c2e1ff4D"/><path d="M100-162.5l209.5 34.5" stroke="#005bbb4E"/><path d="M100-162.5l-168.1 131" stroke="#fff4E"/><path d="M100-162.5l192.5-95.9" stroke="#c2e1ff4F"/><path d="M100-162.5l208.1-56.7" stroke="#fff4F"/><path d="M100-162.5l4-215.9" stroke="#c2e1ff4F"/><path d="M100-162.5l122.5-177.9" stroke="#fff5004F"/><path d="M100-162.5l12.3-215.7" stroke="#fff5004F"/><path d="M100-162.5l57.6 209" stroke="#fff50050"/><path d="M100-162.5l-141.3-165.1" stroke="#fff50"/><path d="M100-162.5l38.2-215.1" stroke="#fff50050"/><path d="M100-162.5l-178.3 127.7" stroke="#fff50051"/><path d="M100-162.5l150.1-160.5" stroke="#fff51"/><path d="M100-162.5l111.2-190.8" stroke="#fff52"/><path d="M100-162.5l215.2 52.3" stroke="#c2e1ff52"/><path d="M100-162.5l-221.4-15.5" stroke="#005bbb52"/><path d="M100-162.5l-97.1 199.7" stroke="#fff50052"/><path d="M100-162.5l-11.9-222.1" stroke="#fff50053"/><path d="M100-162.5l221.1-26.4" stroke="#fff53"/><path d="M100-162.5l207.5-83.4" stroke="#c2e1ff53"/><path d="M100-162.5l-156.5 161.6" stroke="#fff50054"/><path d="M100-162.5l193.1 119.1" stroke="#c2e1ff56"/><path d="M100-162.5l163.8-159.5" stroke="#fff50057"/><path d="M100-162.5l24.4-231.2" stroke="#fff5005B"/><path d="M100-162.5l-66.3 223.5" stroke="#005bbb5B"/><path d="M100-162.5l-194 131.3" stroke="#c2e1ff5D"/><path d="M100-162.5l-230.1 47.4" stroke="#fff5E"/><path d="M100-162.5l234.1 21.8" stroke="#fff5005F"/><path d="M100-162.5l-179.3-152.2" stroke="#c2e1ff5F"/><path d="M100-162.5l235 15.5" stroke="#fff5F"/><path d="M100-162.5l-17.9 234.8" stroke="#fff60"/><path d="M100-162.5l86.2 219.5" stroke="#fff60"/><path d="M100-162.5l196.2-131" stroke="#c2e1ff61"/><path d="M100-162.5l-41.5-232.3" stroke="#fff50061"/><path d="M100-162.5l234.5-28.7" stroke="#fff63"/><path d="M100-162.5l-121.1-202.8" stroke="#fff63"/><path d="M100-162.5l17.1-235.6" stroke="#c2e1ff64"/><path d="M100-162.5l-186.3-145" stroke="#fff65"/><path d="M100-162.5l-234.9 23.6" stroke="#fff50065"/><path d="M100-162.5l46.6-231.4" stroke="#c2e1ff66"/><path d="M100-162.5l234.6-26.1" stroke="#fff50066"/><path d="M100-162.5l-218.1-88.8" stroke="#fff50068"/><path d="M100-162.5l-111.7 206.2" stroke="#fff6A"/><path d="M100-162.5l-167.3-163.6" stroke="#fff5006A"/><path d="M100-162.5l-169.8-160.8" stroke="#005bbb6B"/><path d="M100-162.5l-232.5 17.5" stroke="#fff6C"/><path d="M100-162.5l-111.6-204.5" stroke="#fff5006C"/><path d="M100-162.5l-94.7 211.9" stroke="#c2e1ff6D"/><path d="M100-162.5l120.3 198.4" stroke="#fff6D"/><path d="M100-162.5l144.9 180.9" stroke="#fff6D"/><path d="M100-162.5l220.1-70.7" stroke="#fff5006E"/><path d="M100-162.5l209.9 96.7" stroke="#005bbb6E"/><path d="M100-162.5l45.2-226.3" stroke="#fff6E"/><path d="M100-162.5l-165.7 160.1" stroke="#fff5006F"/><path d="M100-162.5l-214.8 79.9" stroke="#fff50070"/><path d="M100-162.5l21.4-228.1" stroke="#005bbb70"/><path d="M100-162.5l-197.3-114" stroke="#fff50071"/><path d="M100-162.5l-113.1-197.3" stroke="#fff50071"/><path d="M100-162.5l-226.3-2.4" stroke="#fff50072"/><path d="M100-162.5l-198 108.7" stroke="#c2e1ff72"/><path d="M100-162.5l218.8 55.7" stroke="#c2e1ff72"/><path d="M100-162.5l-140.6 176.3" stroke="#fff50072"/><path d="M100-162.5l-78.1 211" stroke="#c2e1ff73"/><path d="M100-162.5l-189.5-120.9" stroke="#fff50073"/><path d="M100-162.5l-215.5 63.6" stroke="#fff73"/><path d="M100-162.5l-205.3 91.2" stroke="#fff73"/><path d="M100-162.5l220.7-35.9" stroke="#c2e1ff74"/><path d="M100-162.5l-67.4-211.9" stroke="#fff50074"/><path d="M100-162.5l-81.1 206.3" stroke="#c2e1ff75"/><path d="M100-162.5l133.4 173.4" stroke="#c2e1ff76"/><path d="M100-162.5l-159.4-149" stroke="#fff50077"/><path d="M100-162.5l102.4-191.7" stroke="#c2e1ff77"/><path d="M100-162.5l-149.6 155.9" stroke="#c2e1ff78"/><path d="M100-162.5l-215.5 14.6" stroke="#c2e1ff78"/><path d="M100-162.5l202.4 64.4" stroke="#005bbb79"/><path d="M100-162.5l4.4-209.9" stroke="#c2e1ff7A"/><path d="M100-162.5l-155.2 141.3" stroke="#fff7A"/><path d="M100-162.5l-201.6-54.7" stroke="#005bbb7B"/><path d="M100-162.5l-59.6-199.8" stroke="#c2e1ff7B"/><path d="M100-162.5l-194.8-55.3" stroke="#fff7D"/><path d="M100-162.5l-55.8-193.3" stroke="#fff7E"/><path d="M100-162.5l197-37.4" stroke="#fff7E"/><path d="M100-162.5l141.6-141.5" stroke="#c2e1ff7E"/><path d="M100-162.5l-113.9-159.2" stroke="#c2e1ff7F"/><path d="M100-162.5l75.2 176.9" stroke="#c2e1ff81"/><path d="M100-162.5l97.3-161.2" stroke="#005bbb82"/><path d="M100-162.5l113.8 147.2" stroke="#fff82"/><path d="M100-162.5l-180.7-39.2" stroke="#c2e1ff83"/><path d="M100-162.5l184.1 11" stroke="#c2e1ff83"/><path d="M100-162.5l84.7 162.8" stroke="#c2e1ff83"/><path d="M100-162.5l-128.1-131.1" stroke="#fff83"/><path d="M100-162.5l-167.4 70.8" stroke="#c2e1ff83"/><path d="M100-162.5l-19 179.2" stroke="#fff50084"/><path d="M100-162.5l180 0" stroke="#005bbb84"/><path d="M100-162.5l167.7 62.7" stroke="#fff50084"/><path d="M100-162.5l-150.6 96.2" stroke="#fff50084"/><path d="M100-162.5l-123.8 128.7" stroke="#fff84"/><path d="M100-162.5l-73.3-162.4" stroke="#c2e1ff84"/><path d="M100-162.5l-32.8 171.3" stroke="#005bbb85"/><path d="M100-162.5l-119.3 126.1" stroke="#fff85"/><path d="M100-162.5l173 1.1" stroke="#005bbb86"/><path d="M100-162.5l-83.4 150.5" stroke="#fff50086"/><path d="M100-162.5l166.3-32.5" stroke="#005bbb86"/><path d="M100-162.5l-3.2-167.4" stroke="#fff50087"/><path d="M100-162.5l-45.3-161" stroke="#fff87"/><path d="M100-162.5l-86.3-136.7" stroke="#fff88"/><path d="M100-162.5l80.1 137.1" stroke="#fff89"/><path d="M100-162.5l121.2 98.6" stroke="#fff50089"/><path d="M100-162.5l-118.9 100.3" stroke="#c2e1ff89"/><path d="M100-162.5l93.8 122.1" stroke="#fff50089"/><path d="M100-162.5l121.1-94.4" stroke="#fff50089"/><path d="M100-162.5l150.9 15.5" stroke="#fff8A"/><path d="M100-162.5l-2.8-151.3" stroke="#c2e1ff8A"/><path d="M100-162.5l15.4 144.7" stroke="#fff8B"/><path d="M100-162.5l-111.8 84.2" stroke="#fff5008C"/><path d="M100-162.5l-85.3 109.5" stroke="#fff5008C"/><path d="M100-162.5l89-79.1" stroke="#fff8F"/><path d="M100-162.5l110.8-24.9" stroke="#fff5008F"/><path d="M100-162.5l-82.5 72.7" stroke="#c2e1ff90"/><path d="M100-162.5l-23.6 107" stroke="#fff50090"/><path d="M100-162.5l36.4-101.7" stroke="#fff90"/><path d="M100-162.5l-56 87.3" stroke="#fff50090"/><path d="M100-162.5l103.1-6" stroke="#005bbb90"/><path d="M100-162.5l-90.4 31.9" stroke="#c2e1ff91"/><path d="M100-162.5l73-39.5" stroke="#fff50092"/><path d="M100-162.5l-72.4 35.7" stroke="#c2e1ff92"/><path d="M100-162.5l-42.7-67.7" stroke="#fff93"/><path d="M100-162.5l64.3 41.3" stroke="#c2e1ff93"/><path d="M100-162.5l-36.1 53.3" stroke="#fff94"/><path d="M100-162.5l-10.8-55.3" stroke="#fff50094"/><path d="M100-162.5l-40.1-37.9" stroke="#fff94"/><path d="M100-162.5l44 8.7" stroke="#005bbb95"/><path d="M100-162.5l-25.6 14.4" stroke="#fff95"/></g><g class="sparcs"><path d="M117.3-146.2a5.9 5.9 0 1 1 0-11.8 5.9 5.9 0 0 1 0 11.8" fill="#fff5007D"/><path d="M84.1-129.7a5.9 5.9 0 1 1 0-11.8 5.9 5.9 0 0 1 0 11.8" fill="#c2e1ff7D"/><path d="M118.7-188.2a5.9 5.9 0 1 1 0-11.9 5.9 5.9 0 0 1 0 11.9" fill="#fff5007D"/><path d="M172.8-180.4a6.1 6.1 0 1 1 0-12.2 6.1 6.1 0 0 1 0 12.2" fill="#c2e1ff80"/><path d="M174.9-118.5a6.1 6.1 0 1 1 0-12.2 6.1 6.1 0 0 1 0 12.2" fill="#005bbb81"/><path d="M10.7-164.7a6.1 6.1 0 1 1 0-12.2 6.1 6.1 0 0 1 0 12.2" fill="#fff81"/><path d="M173.9-216.9a6.2 6.2 0 1 1 0-12.3 6.2 6.2 0 0 1 0 12.3" fill="#fff50082"/><path d="M181.6-99.7a6.2 6.2 0 1 1 0-12.3 6.2 6.2 0 0 1 0 12.3" fill="#fff83"/><path d="M9.2-210.5a6.2 6.2 0 1 1 0-12.4 6.2 6.2 0 0 1 0 12.4" fill="#fff50083"/><path d="M200-190.9a6.2 6.2 0 1 1 0-12.4 6.2 6.2 0 0 1 0 12.4" fill="#005bbb83"/><path d="M70.2-47a6.3 6.3 0 1 1 0-12.5 6.3 6.3 0 0 1 0 12.5" fill="#c2e1ff84"/><path d="M216.1-160.4a6.3 6.3 0 1 1 0-12.6 6.3 6.3 0 0 1 0 12.6" fill="#fff85"/><path d="M156.4-50.7a6.3 6.3 0 1 1 0-12.7 6.3 6.3 0 0 1 0 12.7" fill="#005bbb85"/><path d="M147.6-46.5a6.3 6.3 0 1 1 0-12.6 6.3 6.3 0 0 1 0 12.6" fill="#fff85"/><path d="M23.9-63.7a6.3 6.3 0 1 1 0-12.7 6.3 6.3 0 0 1 0 12.7" fill="#005bbb85"/><path d="M88.9-287.7a6.4 6.4 0 1 1 0-12.8 6.4 6.4 0 0 1 0 12.8" fill="#005bbb88"/><path d="M-29.6-124.2a6.4 6.4 0 1 1 0-12.9 6.4 6.4 0 0 1 0 12.9" fill="#c2e1ff88"/><path d="M90.7-16.7a6.5 6.5 0 1 1 0-13 6.5 6.5 0 0 1 0 13" fill="#c2e1ff89"/><path d="M-40.5-147.4a6.5 6.5 0 1 1 0-13 6.5 6.5 0 0 1 0 13" fill="#fff50089"/><path d="M38-28.1a6.5 6.5 0 1 1 0-13 6.5 6.5 0 0 1 0 13" fill="#fff5008A"/><path d="M188.3-40.4a6.5 6.5 0 1 1 0-13.1 6.5 6.5 0 0 1 0 13.1" fill="#fff8A"/><path d="M-28.2-227.2a6.5 6.5 0 1 1 0-13.1 6.5 6.5 0 0 1 0 13.1" fill="#005bbb8B"/><path d="M-40.2-207.5a6.6 6.6 0 1 1 0-13.1 6.6 6.6 0 0 1 0 13.1" fill="#c2e1ff8B"/><path d="M-32.1-229.1a6.6 6.6 0 1 1 0-13.2 6.6 6.6 0 0 1 0 13.2" fill="#fff8C"/><path d="M-48.7-184.2a6.6 6.6 0 1 1 0-13.1 6.6 6.6 0 0 1 0 13.1" fill="#fff8C"/><path d="M5.7-277.2a6.6 6.6 0 1 1 0-13.2 6.6 6.6 0 0 1 0 13.2" fill="#005bbb8C"/><path d="M33.6-14.3a6.6 6.6 0 1 1 0-13.3 6.6 6.6 0 0 1 0 13.3" fill="#005bbb8D"/><path d="M241.7-84.5a6.7 6.7 0 1 1 0-13.3 6.7 6.7 0 0 1 0 13.3" fill="#fff8D"/><path d="M252.5-93.7a6.7 6.7 0 1 1 0-13.5 6.7 6.7 0 0 1 0 13.5" fill="#c2e1ff8F"/><path d="M263.2-133.7a6.7 6.7 0 1 1 0-13.5 6.7 6.7 0 0 1 0 13.5" fill="#005bbb8F"/><path d="M43.5 0.1a6.8 6.8 0 1 1 0-13.5 6.8 6.8 0 0 1 0 13.5" fill="#005bbb8F"/><path d="M24.4-303.9a6.8 6.8 0 1 1 0-13.6 6.8 6.8 0 0 1 0 13.6" fill="#fff8F"/><path d="M-65.7-187.8a6.8 6.8 0 1 1 0-13.6 6.8 6.8 0 0 1 0 13.6" fill="#c2e1ff90"/><path d="M-64.4-209.7a6.8 6.8 0 1 1 0-13.7 6.8 6.8 0 0 1 0 13.7" fill="#c2e1ff91"/><path d="M152.4-326.8a6.9 6.9 0 1 1 0-13.9 6.9 6.9 0 0 1 0 13.9" fill="#005bbb93"/><path d="M-62.3-245.3a7 7 0 1 1 0-14.1 7 7 0 0 1 0 14.1" fill="#005bbb95"/><path d="M125.6 31.1a7.1 7.1 0 1 1 0-14.1 7.1 7.1 0 0 1 0 14.1" fill="#005bbb96"/><path d="M254-43.2a7.1 7.1 0 1 1 0-14.3 7.1 7.1 0 0 1 0 14.3" fill="#005bbb97"/><path d="M153.8 33.4a7.2 7.2 0 1 1 0-14.4 7.2 7.2 0 0 1 0 14.4" fill="#fff50099"/><path d="M50.2-346a7.2 7.2 0 1 1 0-14.5 7.2 7.2 0 0 1 0 14.5" fill="#fff5009A"/><path d="M285.3-79.1a7.3 7.3 0 1 1 0-14.6 7.3 7.3 0 0 1 0 14.6" fill="#fff9B"/><path d="M208.3 14.9a7.3 7.3 0 1 1 0-14.6 7.3 7.3 0 0 1 0 14.6" fill="#fff5009C"/><path d="M219.1-320a7.4 7.4 0 1 1 0-14.7 7.4 7.4 0 0 1 0 14.7" fill="#fff9C"/><path d="M-5.5 19.5a7.4 7.4 0 1 1 0-14.7 7.4 7.4 0 0 1 0 14.7" fill="#fff9D"/><path d="M280.1-256.9a7.4 7.4 0 1 1 0-14.8 7.4 7.4 0 0 1 0 14.8" fill="#fff5009E"/><path d="M170.6-350a7.4 7.4 0 1 1 0-14.8 7.4 7.4 0 0 1 0 14.8" fill="#fff5009E"/><path d="M287.7-65.1a7.5 7.5 0 1 1 0-14.9 7.5 7.5 0 0 1 0 14.9" fill="#fff9F"/><path d="M50.7-358.5a7.5 7.5 0 1 1 0-15 7.5 7.5 0 0 1 0 15" fill="#005bbb9F"/><path d="M137.4 52.3a7.5 7.5 0 1 1 0-15 7.5 7.5 0 0 1 0 15" fill="#c2e1ffA0"/><path d="M309.5-120.4a7.6 7.6 0 1 1 0-15.2 7.6 7.6 0 0 1 0 15.2" fill="#005bbbA1"/><path d="M-68.1-23.9a7.6 7.6 0 1 1 0-15.2 7.6 7.6 0 0 1 0 15.2" fill="#c2e1ffA1"/><path d="M292.5-250.8a7.6 7.6 0 1 1 0-15.2 7.6 7.6 0 0 1 0 15.2" fill="#fff500A3"/><path d="M308.1-211.5a7.7 7.7 0 1 1 0-15.3 7.7 7.7 0 0 1 0 15.3" fill="#fff500A3"/><path d="M104-370.8a7.7 7.7 0 1 1 0-15.3 7.7 7.7 0 0 1 0 15.3" fill="#005bbbA3"/><path d="M222.5-332.8a7.7 7.7 0 1 1 0-15.3 7.7 7.7 0 0 1 0 15.3" fill="#c2e1ffA3"/><path d="M112.3-370.6a7.7 7.7 0 1 1 0-15.3 7.7 7.7 0 0 1 0 15.3" fill="#005bbbA3"/><path d="M157.6 54.2a7.7 7.7 0 1 1 0-15.4 7.7 7.7 0 0 1 0 15.4" fill="#fff500A4"/><path d="M-41.3-319.9a7.7 7.7 0 1 1 0-15.5 7.7 7.7 0 0 1 0 15.5" fill="#c2e1ffA4"/><path d="M138.2-369.9a7.7 7.7 0 1 1 0-15.4 7.7 7.7 0 0 1 0 15.4" fill="#005bbbA5"/><path d="M-78.3-27a7.8 7.8 0 1 1 0-15.5 7.8 7.8 0 0 1 0 15.5" fill="#c2e1ffA5"/><path d="M250.1-315.2a7.8 7.8 0 1 1 0-15.6 7.8 7.8 0 0 1 0 15.6" fill="#fffA6"/><path d="M211.2-345.5a7.8 7.8 0 1 1 0-15.6 7.8 7.8 0 0 1 0 15.6" fill="#fffA6"/><path d="M315.2-102.4a7.8 7.8 0 1 1 0-15.7 7.8 7.8 0 0 1 0 15.7" fill="#fff500A7"/><path d="M-121.4-170.1a7.8 7.8 0 1 1 0-15.7 7.8 7.8 0 0 1 0 15.7" fill="#fff500A7"/><path d="M2.9 45.1a7.9 7.9 0 1 1 0-15.7 7.9 7.9 0 0 1 0 15.7" fill="#c2e1ffA7"/><path d="M88.1-376.7a7.9 7.9 0 1 1 0-15.8 7.9 7.9 0 0 1 0 15.8" fill="#fff500A8"/><path d="M321.1-181a7.9 7.9 0 1 1 0-15.8 7.9 7.9 0 0 1 0 15.8" fill="#fff500A8"/><path d="M307.5-238a7.9 7.9 0 1 1 0-15.8 7.9 7.9 0 0 1 0 15.8" fill="#005bbbA9"/><path d="M-56.5 7.1a8 8 0 1 1 0-15.9 8 8 0 0 1 0 15.9" fill="#fffAA"/><path d="M293.1-35.4a8 8 0 1 1 0-16.1 8 8 0 0 1 0 16.1" fill="#fffAB"/><path d="M263.8-313.9a8.1 8.1 0 1 1 0-16.2 8.1 8.1 0 0 1 0 16.2" fill="#c2e1ffAD"/><path d="M124.4-385.3a8.3 8.3 0 1 1 0-16.7 8.3 8.3 0 0 1 0 16.7" fill="#fffB2"/><path d="M33.7 69.4a8.4 8.4 0 1 1 0-16.8 8.4 8.4 0 0 1 0 16.8" fill="#fffB3"/><path d="M-94-22.8a8.5 8.5 0 1 1 0-16.9 8.5 8.5 0 0 1 0 16.9" fill="#fff500B5"/><path d="M-130.1-106.6a8.5 8.5 0 1 1 0-17 8.5 8.5 0 0 1 0 17" fill="#fff500B7"/><path d="M334.1-132.1a8.6 8.6 0 1 1 0-17.1 8.6 8.6 0 0 1 0 17.1" fill="#fffB7"/><path d="M-79.3-306.1a8.6 8.6 0 1 1 0-17.1 8.6 8.6 0 0 1 0 17.1" fill="#fff500B7"/><path d="M335-138.3a8.6 8.6 0 1 1 0-17.3 8.6 8.6 0 0 1 0 17.3" fill="#fff500B8"/><path d="M82.1 80.9a8.6 8.6 0 1 1 0-17.2 8.6 8.6 0 0 1 0 17.2" fill="#fff500B8"/><path d="M186.2 65.7a8.7 8.7 0 1 1 0-17.4 8.7 8.7 0 0 1 0 17.4" fill="#005bbbBA"/><path d="M296.2-284.8a8.7 8.7 0 1 1 0-17.5 8.7 8.7 0 0 1 0 17.5" fill="#005bbbBA"/><path d="M58.5-386.1a8.7 8.7 0 1 1 0-17.5 8.7 8.7 0 0 1 0 17.5" fill="#c2e1ffBB"/><path d="M334.5-182.4a8.8 8.8 0 1 1 0-17.6 8.8 8.8 0 0 1 0 17.6" fill="#fff500BC"/><path d="M-21.1-356.5a8.8 8.8 0 1 1 0-17.7 8.8 8.8 0 0 1 0 17.7" fill="#fff500BD"/><path d="M117.1-389.3a8.9 8.9 0 1 1 0-17.7 8.9 8.9 0 0 1 0 17.7" fill="#fff500BE"/><path d="M-86.3-298.6a9 9 0 1 1 0-17.9 9 9 0 0 1 0 17.9" fill="#005bbbC0"/><path d="M-134.9-129.9a9 9 0 1 1 0-18 9 9 0 0 1 0 18" fill="#fffC0"/><path d="M146.6-384.9a9 9 0 1 1 0-18 9 9 0 0 1 0 18" fill="#fff500C0"/><path d="M334.6-179.6a9 9 0 1 1 0-18 9 9 0 0 1 0 18" fill="#005bbbC0"/><path d="M-118.1-242.2a9.1 9.1 0 1 1 0-18.2 9.1 9.1 0 0 1 0 18.2" fill="#fff500C3"/><path d="M-11.7 52.9a9.2 9.2 0 1 1 0-18.5 9.2 9.2 0 0 1 0 18.5" fill="#fff500C5"/><path d="M-67.3-316.8a9.3 9.3 0 1 1 0-18.6 9.3 9.3 0 0 1 0 18.6" fill="#c2e1ffC6"/><path d="M-69.8-314.1a9.3 9.3 0 1 1 0-18.5 9.3 9.3 0 0 1 0 18.5" fill="#c2e1ffC7"/><path d="M-132.5-135.7a9.3 9.3 0 1 1 0-18.7 9.3 9.3 0 0 1 0 18.7" fill="#005bbbC8"/><path d="M-11.6-357.7a9.3 9.3 0 1 1 0-18.7 9.3 9.3 0 0 1 0 18.7" fill="#fff500C8"/><path d="M5.3 58.8a9.4 9.4 0 1 1 0-18.8 9.4 9.4 0 0 1 0 18.8" fill="#c2e1ffCA"/><path d="M220.3 45.3a9.4 9.4 0 1 1 0-18.8 9.4 9.4 0 0 1 0 18.8" fill="#fff500CA"/><path d="M244.9 27.8a9.4 9.4 0 1 1 0-18.8 9.4 9.4 0 0 1 0 18.8" fill="#fffCA"/><path d="M320.1-223.7a9.5 9.5 0 1 1 0-19 9.5 9.5 0 0 1 0 19" fill="#005bbbCB"/><path d="M309.9-56.3a9.5 9.5 0 1 1 0-19 9.5 9.5 0 0 1 0 19" fill="#fff500CB"/><path d="M145.2-379.3a9.5 9.5 0 1 1 0-19 9.5 9.5 0 0 1 0 19" fill="#fff500CB"/><path d="M-65.7 7.1a9.5 9.5 0 1 1 0-19 9.5 9.5 0 0 1 0 19" fill="#c2e1ffCC"/><path d="M-114.8-73a9.6 9.6 0 1 1 0-19.2 9.6 9.6 0 0 1 0 19.2" fill="#fff500CD"/><path d="M121.4-381.1a9.6 9.6 0 1 1 0-19.1 9.6 9.6 0 0 1 0 19.1" fill="#005bbbCD"/><path d="M-97.3-266.9a9.6 9.6 0 1 1 0-19.3 9.6 9.6 0 0 1 0 19.3" fill="#005bbbCF"/><path d="M-13.1-350.1a9.7 9.7 0 1 1 0-19.3 9.7 9.7 0 0 1 0 19.3" fill="#fffCF"/><path d="M-126.3-155.1a9.7 9.7 0 1 1 0-19.5 9.7 9.7 0 0 1 0 19.5" fill="#c2e1ffD0"/><path d="M-98-44.1a9.7 9.7 0 1 1 0-19.4 9.7 9.7 0 0 1 0 19.4" fill="#c2e1ffD1"/><path d="M318.8-97.1a9.7 9.7 0 1 1 0-19.4 9.7 9.7 0 0 1 0 19.4" fill="#fff500D1"/><path d="M-40.6 23.6a9.7 9.7 0 1 1 0-19.5 9.7 9.7 0 0 1 0 19.5" fill="#c2e1ffD1"/><path d="M21.9 58.3a9.8 9.8 0 1 1 0-19.5 9.8 9.8 0 0 1 0 19.5" fill="#005bbbD1"/><path d="M-89.5-273.7a9.8 9.8 0 1 1 0-19.5 9.8 9.8 0 0 1 0 19.5" fill="#c2e1ffD1"/><path d="M-115.5-89.1a9.8 9.8 0 1 1 0-19.6 9.8 9.8 0 0 1 0 19.6" fill="#fffD2"/><path d="M-105.3-61.6a9.8 9.8 0 1 1 0-19.5 9.8 9.8 0 0 1 0 19.5" fill="#c2e1ffD2"/><path d="M320.7-188.6a9.8 9.8 0 1 1 0-19.6 9.8 9.8 0 0 1 0 19.6" fill="#c2e1ffD2"/><path d="M32.6-364.6a9.9 9.9 0 1 1 0-19.7 9.9 9.9 0 0 1 0 19.7" fill="#005bbbD3"/><path d="M18.9 53.7a9.9 9.9 0 1 1 0-19.8 9.9 9.9 0 0 1 0 19.8" fill="#fff500D4"/><path d="M233.4 20.9a10 10 0 1 1 0-20 10 10 0 0 1 0 20" fill="#c2e1ffD6"/><path d="M-59.4-301.5a10 10 0 1 1 0-20 10 10 0 0 1 0 20" fill="#fffD6"/><path d="M202.4-344.2a10 10 0 1 1 0-20 10 10 0 0 1 0 20" fill="#fffD7"/><path d="M-49.6 3.4a10.1 10.1 0 1 1 0-20.1 10.1 10.1 0 0 1 0 20.1" fill="#fff500D8"/><path d="M-115.5-137.9a10.1 10.1 0 1 1 0-20.1 10.1 10.1 0 0 1 0 20.1" fill="#005bbbD8"/><path d="M302.4-88a10.2 10.2 0 1 1 0-20.3 10.2 10.2 0 0 1 0 20.3" fill="#005bbbDA"/><path d="M104.4-362.2a10.2 10.2 0 1 1 0-20.4 10.2 10.2 0 0 1 0 20.4" fill="#005bbbDB"/><path d="M-55.2-11a10.2 10.2 0 1 1 0-20.4 10.2 10.2 0 0 1 0 20.4" fill="#fffDB"/><path d="M-101.6-207a10.2 10.2 0 1 1 0-20.4 10.2 10.2 0 0 1 0 20.4" fill="#fffDC"/><path d="M40.4-352.1a10.2 10.2 0 1 1 0-20.5 10.2 10.2 0 0 1 0 20.5" fill="#fff500DC"/><path d="M-94.8-207.4a10.4 10.4 0 1 1 0-20.8 10.4 10.4 0 0 1 0 20.8" fill="#005bbbDF"/><path d="M44.2-345.4a10.4 10.4 0 1 1 0-20.8 10.4 10.4 0 0 1 0 20.8" fill="#fff500E0"/><path d="M297-189.4a10.4 10.4 0 1 1 0-20.9 10.4 10.4 0 0 1 0 20.9" fill="#fffE0"/><path d="M241.6-293.5a10.4 10.4 0 1 1 0-20.9 10.4 10.4 0 0 1 0 20.9" fill="#fff500E0"/><path d="M-13.9-311.2a10.5 10.5 0 1 1 0-21 10.5 10.5 0 0 1 0 21" fill="#005bbbE2"/><path d="M175.2 24.9a10.6 10.6 0 1 1 0-21.1 10.6 10.6 0 0 1 0 21.1" fill="#fffE3"/><path d="M197.3-313a10.6 10.6 0 1 1 0-21.3 10.6 10.6 0 0 1 0 21.3" fill="#c2e1ffE5"/><path d="M213.8-4.6a10.7 10.7 0 1 1 0-21.4 10.7 10.7 0 0 1 0 21.4" fill="#c2e1ffE6"/><path d="M-80.7-191a10.7 10.7 0 1 1 0-21.4 10.7 10.7 0 0 1 0 21.4" fill="#c2e1ffE6"/><path d="M284.1-140.8a10.7 10.7 0 1 1 0-21.4 10.7 10.7 0 0 1 0 21.4" fill="#005bbbE6"/><path d="M184.7 11a10.7 10.7 0 1 1 0-21.4 10.7 10.7 0 0 1 0 21.4" fill="#005bbbE6"/><path d="M-28.1-282.9a10.7 10.7 0 1 1 0-21.4 10.7 10.7 0 0 1 0 21.4" fill="#fff500E7"/><path d="M-67.4-80.9a10.7 10.7 0 1 1 0-21.5 10.7 10.7 0 0 1 0 21.5" fill="#c2e1ffE7"/><path d="M81 27.5a10.8 10.8 0 1 1 0-21.5 10.8 10.8 0 0 1 0 21.5" fill="#005bbbE8"/><path d="M280-151.7a10.8 10.8 0 1 1 0-21.6 10.8 10.8 0 0 1 0 21.6" fill="#005bbbE8"/><path d="M267.7-89a10.8 10.8 0 1 1 0-21.6 10.8 10.8 0 0 1 0 21.6" fill="#005bbbE8"/><path d="M-50.6-55.5a10.8 10.8 0 1 1 0-21.6 10.8 10.8 0 0 1 0 21.6" fill="#fffE8"/><path d="M-23.8-23a10.8 10.8 0 1 1 0-21.6 10.8 10.8 0 0 1 0 21.6" fill="#fff500E8"/><path d="M26.7-314.1a10.8 10.8 0 1 1 0-21.6 10.8 10.8 0 0 1 0 21.6" fill="#005bbbE8"/><path d="M67.2 19.7a10.9 10.9 0 1 1 0-21.7 10.9 10.9 0 0 1 0 21.7" fill="#c2e1ffE9"/><path d="M-19.3-25.5a10.9 10.9 0 1 1 0-21.7 10.9 10.9 0 0 1 0 21.7" fill="#fff500EA"/><path d="M273-150.5a10.9 10.9 0 1 1 0-21.7 10.9 10.9 0 0 1 0 21.7" fill="#fffEA"/><path d="M16.6-1.1a10.9 10.9 0 1 1 0-21.8 10.9 10.9 0 0 1 0 21.8" fill="#005bbbEA"/><path d="M266.3-184.1a10.9 10.9 0 1 1 0-21.8 10.9 10.9 0 0 1 0 21.8" fill="#fffEB"/><path d="M96.8-318.9a10.9 10.9 0 1 1 0-21.9 10.9 10.9 0 0 1 0 21.9" fill="#fff500EB"/><path d="M54.7-312.5a10.9 10.9 0 1 1 0-21.9 10.9 10.9 0 0 1 0 21.9" fill="#fffEB"/><path d="M13.7-288.2a11 11 0 1 1 0-22 11 11 0 0 1 0 22" fill="#fffED"/><path d="M180.1-14.4a11 11 0 1 1 0-22.1 11 11 0 0 1 0 22.1" fill="#005bbbEE"/><path d="M221.2-52.8a11.1 11.1 0 1 1 0-22.2 11.1 11.1 0 0 1 0 22.2" fill="#005bbbEE"/><path d="M-18.9-51.1a11.1 11.1 0 1 1 0-22.2 11.1 11.1 0 0 1 0 22.2" fill="#005bbbEE"/><path d="M193.8-29.3a11.1 11.1 0 1 1 0-22.2 11.1 11.1 0 0 1 0 22.2" fill="#005bbbEF"/><path d="M221.1-245.8a11.1 11.1 0 1 1 0-22.2 11.1 11.1 0 0 1 0 22.2" fill="#c2e1ffEF"/><path d="M250.9-135.9a11.1 11.1 0 1 1 0-22.2 11.1 11.1 0 0 1 0 22.2" fill="#fff500EF"/><path d="M97.2-302.6a11.1 11.1 0 1 1 0-22.3 11.1 11.1 0 0 1 0 22.3" fill="#fff500EF"/><path d="M115.4-6.7a11.2 11.2 0 1 1 0-22.3 11.2 11.2 0 0 1 0 22.3" fill="#c2e1ffF1"/><path d="M-11.8-67.1a11.2 11.2 0 1 1 0-22.4 11.2 11.2 0 0 1 0 22.4" fill="#005bbbF2"/><path d="M14.7-41.7a11.2 11.2 0 1 1 0-22.5 11.2 11.2 0 0 1 0 22.5" fill="#fff500F2"/><path d="M189-230.2a11.4 11.4 0 1 1 0-22.9 11.4 11.4 0 0 1 0 22.9" fill="#fff500F6"/><path d="M210.8-176a11.4 11.4 0 1 1 0-22.9 11.4 11.4 0 0 1 0 22.9" fill="#fffF6"/><path d="M17.5-78.3a11.5 11.5 0 1 1 0-23 11.5 11.5 0 0 1 0 23" fill="#fff500F7"/><path d="M76.4-44a11.5 11.5 0 1 1 0-23 11.5 11.5 0 0 1 0 23" fill="#c2e1ffF7"/><path d="M136.4-252.7a11.5 11.5 0 1 1 0-23 11.5 11.5 0 0 1 0 23" fill="#005bbbF7"/><path d="M44-63.7a11.5 11.5 0 1 1 0-23 11.5 11.5 0 0 1 0 23" fill="#c2e1ffF8"/><path d="M203.1-156.9a11.5 11.5 0 1 1 0-23.1 11.5 11.5 0 0 1 0 23.1" fill="#fffF8"/><path d="M9.6-119a11.6 11.6 0 1 1 0-23.1 11.6 11.6 0 0 1 0 23.1" fill="#005bbbF9"/><path d="M173-190.3a11.6 11.6 0 1 1 0-23.3 11.6 11.6 0 0 1 0 23.3" fill="#fffFA"/><path d="M27.6-115.2a11.6 11.6 0 1 1 0-23.3 11.6 11.6 0 0 1 0 23.3" fill="#005bbbFB"/><path d="M57.3-218.6a11.6 11.6 0 1 1 0-23.2 11.6 11.6 0 0 1 0 23.2" fill="#fffFB"/><path d="M164.3-109.5a11.7 11.7 0 1 1 0-23.3 11.7 11.7 0 0 1 0 23.3" fill="#fffFB"/><path d="M63.9-97.5a11.7 11.7 0 1 1 0-23.4 11.7 11.7 0 0 1 0 23.4" fill="#fffFC"/><path d="M89.2-206a11.7 11.7 0 1 1 0-23.5 11.7 11.7 0 0 1 0 23.5" fill="#005bbbFD"/><path d="M59.9-188.7a11.7 11.7 0 1 1 0-23.4 11.7 11.7 0 0 1 0 23.4" fill="#c2e1ffFD"/><path d="M144-142a11.8 11.8 0 1 1 0-23.5 11.8 11.8 0 0 1 0 23.5" fill="#fff500FD"/><path d="M74.4-136.4a11.8 11.8 0 1 1 0-23.5 11.8 11.8 0 0 1 0 23.5" fill="#c2e1ffFE"/></g></svg>