<svg width="1200" height="675" viewBox="-500 -500 1200 675" xmlns="http://www.w3.org/2000/svg"><path d="M-500-500h1200v675h-1200z" fill="#000"/><style>.sparkles path{stroke-linecap:round; stroke-width:1}</style><g class="sparkles"><path d="M100-162.5l4.5 0.8" stroke="#fca31132"/><path d="M100-162.5l8.4 40.6" stroke="#14213d32"/><path d="M100-162.5l45.4-12.9" stroke="#ffffff33"/><path d="M100-162.5l-34.5 36.8" stroke="#ffffff33"/><path d="M100-162.5l-17.7 53" stroke="#11223333"/><path d="M100-162.5l19.2 59.8" stroke="#fca31133"/><path d="M100-162.5l-58.2 24.7" stroke="#ffffff33"/><path d="M100-162.5l27.2-83" stroke="#11223335"/><path d="M100-162.5l27.7-95.7" stroke="#14213d36"/><path d="M100-162.5l-81.4 60" stroke="#fca31136"/><path d="M100-162.5l40.3-97.2" stroke="#ffffff37"/><path d="M100-162.5l97.9 43" stroke="#11223337"/><path d="M100-162.5l-94.5-55.6" stroke="#fca31137"/><path d="M100-162.5l-11 115.3" stroke="#fca31138"/><path d="M100-162.5l2.8 120.3" stroke="#11223338"/><path d="M100-162.5l43.4 117.5" stroke="#11223339"/><path d="M100-162.5l121.3 36" stroke="#fca31139"/><path d="M100-162.5l120.4 47.2" stroke="#14213d3A"/><path d="M100-162.5l-109.8 72.9" stroke="#ffffff3A"/><path d="M100-162.5l131.1-41.3" stroke="#e5e5e53B"/><path d="M100-162.5l138.1-23.7" stroke="#14213d3B"/><path d="M100-162.5l99.9-99.7" stroke="#fca3113B"/><path d="M100-162.5l100 103.5" stroke="#14213d3C"/><path d="M100-162.5l-109.6 97.8" stroke="#14213d3C"/><path d="M100-162.5l-139.2 63" stroke="#1122333D"/><path d="M100-162.5l44.5-148.2" stroke="#fca3113E"/><path d="M100-162.5l149.7-39.8" stroke="#14213d3E"/><path d="M100-162.5l-140.3 88.5" stroke="#ffffff40"/><path d="M100-162.5l-163.9-34.5" stroke="#11223340"/><path d="M100-162.5l-32.9-166.5" stroke="#fca31141"/><path d="M100-162.5l26.7 168.7" stroke="#ffffff41"/><path d="M100-162.5l-6.8-171.9" stroke="#fca31141"/><path d="M100-162.5l28.2-172.4" stroke="#11223342"/><path d="M100-162.5l176.9-48.3" stroke="#ffffff44"/><path d="M100-162.5l-183.5-4.5" stroke="#fca31144"/><path d="M100-162.5l148.7 108.9" stroke="#11223344"/><path d="M100-162.5l53 181.6" stroke="#11223346"/><path d="M100-162.5l168.3-89.5" stroke="#ffffff46"/><path d="M100-162.5l-190.9 10.2" stroke="#e5e5e546"/><path d="M100-162.5l-177.7-72" stroke="#14213d46"/><path d="M100-162.5l154.3-115.7" stroke="#fca31147"/><path d="M100-162.5l108-166.4" stroke="#fca31148"/><path d="M100-162.5l-132.8 151.6" stroke="#ffffff49"/><path d="M100-162.5l168.6-113.6" stroke="#1122334A"/><path d="M100-162.5l182.9-89.5" stroke="#e5e5e54A"/><path d="M100-162.5l162.3 123.3" stroke="#1122334A"/><path d="M100-162.5l167.9 118.8" stroke="#ffffff4B"/><path d="M100-162.5l-211.9 19.7" stroke="#1122334E"/><path d="M100-162.5l48.1-207.7" stroke="#fca3114E"/><path d="M100-162.5l153.4-148.3" stroke="#fca3114E"/><path d="M100-162.5l32.2-211.7" stroke="#ffffff4E"/><path d="M100-162.5l-45.8 210.3" stroke="#14213d4F"/><path d="M100-162.5l-70.7 203.5" stroke="#e5e5e54F"/><path d="M100-162.5l-126.1 175.9" stroke="#1122334F"/><path d="M100-162.5l144 161.9" stroke="#fca31150"/><path d="M100-162.5l-125-178.7" stroke="#fca31150"/><path d="M100-162.5l-138.5-173.3" stroke="#ffffff52"/><path d="M100-162.5l48.3-219" stroke="#fca31154"/><path d="M100-162.5l105.2 198.8" stroke="#ffffff54"/><path d="M100-162.5l221.7-44.8" stroke="#14213d55"/><path d="M100-162.5l-198.7 109.1" stroke="#ffffff55"/><path d="M100-162.5l-61.8 219.2" stroke="#ffffff56"/><path d="M100-162.5l49 222.9" stroke="#ffffff57"/><path d="M100-162.5l-99 206" stroke="#ffffff57"/><path d="M100-162.5l-145-178.3" stroke="#11223358"/><path d="M100-162.5l157.8-168.5" stroke="#ffffff59"/><path d="M100-162.5l-231.2-2.7" stroke="#e5e5e559"/><path d="M100-162.5l115.5-201.3" stroke="#e5e5e55A"/><path d="M100-162.5l-193.8-130.1" stroke="#1122335C"/><path d="M100-162.5l-14.4 234.2" stroke="#1122335E"/><path d="M100-162.5l121-201.1" stroke="#1122335E"/><path d="M100-162.5l-103.9 210.7" stroke="#e5e5e55E"/><path d="M100-162.5l232.1 36.7" stroke="#ffffff5E"/><path d="M100-162.5l-234.4 19.8" stroke="#ffffff5F"/><path d="M100-162.5l-107.1-209.8" stroke="#11223360"/><path d="M100-162.5l20.3 235" stroke="#ffffff61"/><path d="M100-162.5l-234.3-30.1" stroke="#e5e5e563"/><path d="M100-162.5l15.9-235.7" stroke="#14213d63"/><path d="M100-162.5l205 117.5" stroke="#fca31163"/><path d="M100-162.5l-129.9 197.3" stroke="#11223363"/><path d="M100-162.5l220.1-85.9" stroke="#11223363"/><path d="M100-162.5l122.8 201.8" stroke="#14213d64"/><path d="M100-162.5l236.2 0" stroke="#11223364"/><path d="M100-162.5l56.4-229.4" stroke="#fca31165"/><path d="M100-162.5l219.1-88.1" stroke="#11223365"/><path d="M100-162.5l193.3-135.6" stroke="#11223365"/><path d="M100-162.5l-53.3 230.1" stroke="#11223365"/><path d="M100-162.5l138.7 191" stroke="#ffffff65"/><path d="M100-162.5l-229.8 53.9" stroke="#11223366"/><path d="M100-162.5l231.7 44.1" stroke="#14213d67"/><path d="M100-162.5l92.6-216.8" stroke="#ffffff67"/><path d="M100-162.5l-156.7-176.1" stroke="#11223367"/><path d="M100-162.5l-232.4 39.5" stroke="#11223367"/><path d="M100-162.5l-144.1 186.3" stroke="#11223367"/><path d="M100-162.5l-3-235.2" stroke="#14213d68"/><path d="M100-162.5l-16.5 234.1" stroke="#14213d69"/><path d="M100-162.5l-208.7 106.8" stroke="#fca3116A"/><path d="M100-162.5l22.6 233.2" stroke="#ffffff6A"/><path d="M100-162.5l98.2 212.6" stroke="#1122336A"/><path d="M100-162.5l-208.8 105.7" stroke="#1122336A"/><path d="M100-162.5l-224.8-63.9" stroke="#1122336B"/><path d="M100-162.5l121.1 199.7" stroke="#14213d6B"/><path d="M100-162.5l-231.5 27.1" stroke="#1122336C"/><path d="M100-162.5l104.3-208.3" stroke="#ffffff6C"/><path d="M100-162.5l-219.4 76.7" stroke="#e5e5e56D"/><path d="M100-162.5l-86.3-215.3" stroke="#fca3116D"/><path d="M100-162.5l131.9-190.1" stroke="#1122336E"/><path d="M100-162.5l21.7 230.3" stroke="#14213d6E"/><path d="M100-162.5l-159.4 166.7" stroke="#e5e5e56E"/><path d="M100-162.5l-68.8 220" stroke="#fca3116E"/><path d="M100-162.5l214.3 81.2" stroke="#fca31170"/><path d="M100-162.5l35.4 225.9" stroke="#e5e5e570"/><path d="M100-162.5l227 20" stroke="#e5e5e571"/><path d="M100-162.5l121.4-191.3" stroke="#14213d72"/><path d="M100-162.5l93.8 205.8" stroke="#14213d72"/><path d="M100-162.5l195.8-112.9" stroke="#14213d72"/><path d="M100-162.5l-11.7 225.3" stroke="#ffffff72"/><path d="M100-162.5l216.1 55.2" stroke="#ffffff74"/><path d="M100-162.5l-207-73.4" stroke="#ffffff76"/><path d="M100-162.5l217.8 18.3" stroke="#e5e5e576"/><path d="M100-162.5l-187.4-107.8" stroke="#fca31178"/><path d="M100-162.5l209.9-39.2" stroke="#ffffff79"/><path d="M100-162.5l-104.9-183.8" stroke="#1122337A"/><path d="M100-162.5l75.4 197.3" stroke="#1122337A"/><path d="M100-162.5l151.9-146" stroke="#14213d7A"/><path d="M100-162.5l-200.1 62" stroke="#ffffff7B"/><path d="M100-162.5l209-9.8" stroke="#ffffff7B"/><path d="M100-162.5l-163.7-123.2" stroke="#ffffff7C"/><path d="M100-162.5l-183-91.7" stroke="#fca3117C"/><path d="M100-162.5l203.5-8.9" stroke="#14213d7D"/><path d="M100-162.5l149.4 136.2" stroke="#e5e5e57D"/><path d="M100-162.5l149.7 135.8" stroke="#1122337D"/><path d="M100-162.5l10.3 200.5" stroke="#ffffff7E"/><path d="M100-162.5l61.4-190.8" stroke="#fca3117E"/><path d="M100-162.5l199 10.1" stroke="#1122337E"/><path d="M100-162.5l198.5 10.9" stroke="#ffffff7F"/><path d="M100-162.5l143.8-133.3" stroke="#e5e5e57F"/><path d="M100-162.5l-102.7-165.9" stroke="#11223380"/><path d="M100-162.5l-179.1-75.3" stroke="#ffffff80"/><path d="M100-162.5l-185.5 53.1" stroke="#e5e5e580"/><path d="M100-162.5l-140.1 132.4" stroke="#11223380"/><path d="M100-162.5l-188.2 21.2" stroke="#ffffff81"/><path d="M100-162.5l174.7-57.5" stroke="#e5e5e583"/><path d="M100-162.5l179.2-37.2" stroke="#11223383"/><path d="M100-162.5l-21.7 180.3" stroke="#e5e5e583"/><path d="M100-162.5l103.1 149" stroke="#ffffff84"/><path d="M100-162.5l-122.2-133.1" stroke="#11223384"/><path d="M100-162.5l179.9 16" stroke="#11223384"/><path d="M100-162.5l71 165.7" stroke="#11223384"/><path d="M100-162.5l-166.5 66.4" stroke="#11223384"/><path d="M100-162.5l172.3 18.3" stroke="#e5e5e585"/><path d="M100-162.5l109.8-132" stroke="#e5e5e586"/><path d="M100-162.5l120.7-113.2" stroke="#11223387"/><path d="M100-162.5l-109.7 123.3" stroke="#e5e5e587"/><path d="M100-162.5l93.4-135.2" stroke="#fca31187"/><path d="M100-162.5l15.5 160.1" stroke="#ffffff88"/><path d="M100-162.5l133.6 87.1" stroke="#11223388"/><path d="M100-162.5l-5-158.4" stroke="#fca31189"/><path d="M100-162.5l-9.1 157.9" stroke="#fca31189"/><path d="M100-162.5l-70.2-140.8" stroke="#14213d89"/><path d="M100-162.5l144.8 42.4" stroke="#ffffff8A"/><path d="M100-162.5l-142.2-33.9" stroke="#e5e5e58B"/><path d="M100-162.5l-34.2 141.3" stroke="#1122338B"/><path d="M100-162.5l124.9-54.2" stroke="#14213d8C"/><path d="M100-162.5l-15.5-135.2" stroke="#ffffff8C"/><path d="M100-162.5l-64-118" stroke="#14213d8D"/><path d="M100-162.5l-91.9 88" stroke="#1122338E"/><path d="M100-162.5l21.5-122.6" stroke="#14213d8E"/><path d="M100-162.5l-100 69.5" stroke="#1122338E"/><path d="M100-162.5l-62.1 99.5" stroke="#14213d8F"/><path d="M100-162.5l90.6-68.3" stroke="#fca3118F"/><path d="M100-162.5l-43.6 101.1" stroke="#fca31190"/><path d="M100-162.5l-64.8-79.1" stroke="#ffffff91"/><path d="M100-162.5l96.8 23" stroke="#14213d91"/><path d="M100-162.5l-41.8-67.9" stroke="#e5e5e593"/><path d="M100-162.5l29.8 71.2" stroke="#e5e5e593"/><path d="M100-162.5l-48.5-57.9" stroke="#14213d93"/><path d="M100-162.5l-41.4-41.5" stroke="#fca31194"/><path d="M100-162.5l54 21.3" stroke="#e5e5e594"/><path d="M100-162.5l24.5-33.8" stroke="#11223395"/><path d="M100-162.5l-21.1-19.4" stroke="#fca31195"/></g><g class="sparcs"><path d="M104.5-155.8a5.9 5.9 0 1 1 0-11.8 5.9 5.9 0 0 1 0 11.8" fill="#14213d7D"/><path d="M108.4-116a6 6 0 1 1 0-11.9 6 6 0 0 1 0 11.9" fill="#e5e5e57E"/><path d="M145.4-169.5a6 6 0 1 1 0-11.9 6 6 0 0 1 0 11.9" fill="#14213d7E"/><path d="M65.5-119.8a6 6 0 1 1 0-11.9 6 6 0 0 1 0 11.9" fill="#e5e5e57E"/><path d="M82.3-103.5a6 6 0 1 1 0-12 6 6 0 0 1 0 12" fill="#e5e5e57E"/><path d="M119.2-96.7a6 6 0 1 1 0-12 6 6 0 0 1 0 12" fill="#ffffff7F"/><path d="M41.8-131.7a6 6 0 1 1 0-12.1 6 6 0 0 1 0 12.1" fill="#fca3117F"/><path d="M127.2-239.4a6.1 6.1 0 1 1 0-12.2 6.1 6.1 0 0 1 0 12.2" fill="#14213d81"/><path d="M127.7-252a6.2 6.2 0 1 1 0-12.4 6.2 6.2 0 0 1 0 12.4" fill="#fca31183"/><path d="M18.6-96.3a6.2 6.2 0 1 1 0-12.4 6.2 6.2 0 0 1 0 12.4" fill="#ffffff83"/><path d="M140.3-253.5a6.2 6.2 0 1 1 0-12.5 6.2 6.2 0 0 1 0 12.5" fill="#e5e5e583"/><path d="M197.9-113.3a6.2 6.2 0 1 1 0-12.5 6.2 6.2 0 0 1 0 12.5" fill="#ffffff84"/><path d="M5.5-211.8a6.2 6.2 0 1 1 0-12.5 6.2 6.2 0 0 1 0 12.5" fill="#11223384"/><path d="M89-40.9a6.3 6.3 0 1 1 0-12.6 6.3 6.3 0 0 1 0 12.6" fill="#11223385"/><path d="M102.8-35.9a6.3 6.3 0 1 1 0-12.6 6.3 6.3 0 0 1 0 12.6" fill="#fca31186"/><path d="M143.4-38.6a6.4 6.4 0 1 1 0-12.7 6.4 6.4 0 0 1 0 12.7" fill="#11223386"/><path d="M221.3-120.1a6.4 6.4 0 1 1 0-12.7 6.4 6.4 0 0 1 0 12.7" fill="#14213d87"/><path d="M220.4-108.9a6.4 6.4 0 1 1 0-12.8 6.4 6.4 0 0 1 0 12.8" fill="#ffffff87"/><path d="M-9.8-83.2a6.4 6.4 0 1 1 0-12.8 6.4 6.4 0 0 1 0 12.8" fill="#ffffff88"/><path d="M231.1-197.4a6.5 6.5 0 1 1 0-12.9 6.5 6.5 0 0 1 0 12.9" fill="#fca31189"/><path d="M238.1-179.7a6.5 6.5 0 1 1 0-13 6.5 6.5 0 0 1 0 13" fill="#e5e5e589"/><path d="M199.9-255.7a6.5 6.5 0 1 1 0-13 6.5 6.5 0 0 1 0 13" fill="#14213d89"/><path d="M200-52.5a6.5 6.5 0 1 1 0-13.1 6.5 6.5 0 0 1 0 13.1" fill="#fca3118A"/><path d="M-9.6-58.1a6.5 6.5 0 1 1 0-13.1 6.5 6.5 0 0 1 0 13.1" fill="#e5e5e58B"/><path d="M-39.2-92.9a6.6 6.6 0 1 1 0-13.2 6.6 6.6 0 0 1 0 13.2" fill="#e5e5e58C"/><path d="M144.5-304.1a6.6 6.6 0 1 1 0-13.3 6.6 6.6 0 0 1 0 13.3" fill="#fca3118C"/><path d="M249.7-195.7a6.6 6.6 0 1 1 0-13.2 6.6 6.6 0 0 1 0 13.2" fill="#fca3118C"/><path d="M-40.3-67.2a6.8 6.8 0 1 1 0-13.6 6.8 6.8 0 0 1 0 13.6" fill="#e5e5e58F"/><path d="M-63.9-190.2a6.8 6.8 0 1 1 0-13.6 6.8 6.8 0 0 1 0 13.6" fill="#11223390"/><path d="M67.1-322.2a6.8 6.8 0 1 1 0-13.6 6.8 6.8 0 0 1 0 13.6" fill="#fca31190"/><path d="M126.7 13a6.8 6.8 0 1 1 0-13.7 6.8 6.8 0 0 1 0 13.7" fill="#fca31191"/><path d="M93.2-327.5a6.8 6.8 0 1 1 0-13.7 6.8 6.8 0 0 1 0 13.7" fill="#14213d91"/><path d="M128.2-328.1a6.9 6.9 0 1 1 0-13.7 6.9 6.9 0 0 1 0 13.7" fill="#e5e5e592"/><path d="M276.9-203.8a7 7 0 1 1 0-14 7 7 0 0 1 0 14" fill="#fca31195"/><path d="M-83.5-160a7 7 0 1 1 0-14 7 7 0 0 1 0 14" fill="#14213d95"/><path d="M248.7-46.6a7 7 0 1 1 0-14 7 7 0 0 1 0 14" fill="#fca31195"/><path d="M153 26.1a7.1 7.1 0 1 1 0-14.1 7.1 7.1 0 0 1 0 14.1" fill="#14213d97"/><path d="M268.3-244.9a7.1 7.1 0 1 1 0-14.2 7.1 7.1 0 0 1 0 14.2" fill="#fca31197"/><path d="M-90.9-145.2a7.1 7.1 0 1 1 0-14.3 7.1 7.1 0 0 1 0 14.3" fill="#11223397"/><path d="M-77.7-227.3a7.1 7.1 0 1 1 0-14.3 7.1 7.1 0 0 1 0 14.3" fill="#fca31198"/><path d="M254.3-271.1a7.2 7.2 0 1 1 0-14.3 7.2 7.2 0 0 1 0 14.3" fill="#e5e5e598"/><path d="M208-321.6a7.3 7.3 0 1 1 0-14.5 7.3 7.3 0 0 1 0 14.5" fill="#e5e5e59A"/><path d="M-32.8-3.6a7.3 7.3 0 1 1 0-14.6 7.3 7.3 0 0 1 0 14.6" fill="#1122339C"/><path d="M268.6-268.7a7.4 7.4 0 1 1 0-14.7 7.4 7.4 0 0 1 0 14.7" fill="#14213d9C"/><path d="M282.9-244.7a7.4 7.4 0 1 1 0-14.7 7.4 7.4 0 0 1 0 14.7" fill="#1122339D"/><path d="M262.3-31.9a7.4 7.4 0 1 1 0-14.7 7.4 7.4 0 0 1 0 14.7" fill="#1122339D"/><path d="M267.9-36.3a7.4 7.4 0 1 1 0-14.8 7.4 7.4 0 0 1 0 14.8" fill="#e5e5e59E"/><path d="M-111.9-135.3a7.6 7.6 0 1 1 0-15.1 7.6 7.6 0 0 1 0 15.1" fill="#112233A1"/><path d="M148.1-362.6a7.6 7.6 0 1 1 0-15.2 7.6 7.6 0 0 1 0 15.2" fill="#e5e5e5A1"/><path d="M253.4-303.2a7.6 7.6 0 1 1 0-15.2 7.6 7.6 0 0 1 0 15.2" fill="#14213dA2"/><path d="M132.2-366.5a7.6 7.6 0 1 1 0-15.3 7.6 7.6 0 0 1 0 15.3" fill="#fca311A2"/><path d="M54.2 55.5a7.6 7.6 0 1 1 0-15.3 7.6 7.6 0 0 1 0 15.3" fill="#e5e5e5A3"/><path d="M29.3 48.7a7.6 7.6 0 1 1 0-15.3 7.6 7.6 0 0 1 0 15.3" fill="#112233A3"/><path d="M-26.1 21.1a7.7 7.7 0 1 1 0-15.4 7.7 7.7 0 0 1 0 15.4" fill="#fca311A3"/><path d="M244 7a7.7 7.7 0 1 1 0-15.3 7.7 7.7 0 0 1 0 15.3" fill="#fca311A4"/><path d="M-25-333.5a7.7 7.7 0 1 1 0-15.4 7.7 7.7 0 0 1 0 15.4" fill="#ffffffA5"/><path d="M-38.5-328a7.8 7.8 0 1 1 0-15.7 7.8 7.8 0 0 1 0 15.7" fill="#14213dA7"/><path d="M148.3-373.6a7.9 7.9 0 1 1 0-15.8 7.9 7.9 0 0 1 0 15.8" fill="#e5e5e5A9"/><path d="M205.2 44.3a8 8 0 1 1 0-15.9 8 8 0 0 1 0 15.9" fill="#ffffffAA"/><path d="M321.7-199.2a8 8 0 1 1 0-16.1 8 8 0 0 1 0 16.1" fill="#112233AB"/><path d="M-98.7-45.4a8 8 0 1 1 0-16 8 8 0 0 1 0 16" fill="#14213dAB"/><path d="M38.2 64.8a8.1 8.1 0 1 1 0-16.2 8.1 8.1 0 0 1 0 16.2" fill="#e5e5e5AC"/><path d="M149 68.5a8.1 8.1 0 1 1 0-16.2 8.1 8.1 0 0 1 0 16.2" fill="#112233AD"/><path d="M1 51.6a8.1 8.1 0 1 1 0-16.2 8.1 8.1 0 0 1 0 16.2" fill="#112233AD"/><path d="M-45-332.6a8.2 8.2 0 1 1 0-16.4 8.2 8.2 0 0 1 0 16.4" fill="#fca311AE"/><path d="M257.8-322.7a8.2 8.2 0 1 1 0-16.5 8.2 8.2 0 0 1 0 16.5" fill="#ffffffB0"/><path d="M-131.2-157a8.3 8.3 0 1 1 0-16.5 8.3 8.3 0 0 1 0 16.5" fill="#112233B0"/><path d="M215.5-355.5a8.3 8.3 0 1 1 0-16.6 8.3 8.3 0 0 1 0 16.6" fill="#ffffffB1"/><path d="M-93.8-284.2a8.4 8.4 0 1 1 0-16.9 8.4 8.4 0 0 1 0 16.9" fill="#ffffffB4"/><path d="M85.6 80.2a8.5 8.5 0 1 1 0-17.1 8.5 8.5 0 0 1 0 17.1" fill="#ffffffB6"/><path d="M221-355.1a8.5 8.5 0 1 1 0-17 8.5 8.5 0 0 1 0 17" fill="#e5e5e5B6"/><path d="M-3.9 56.7a8.5 8.5 0 1 1 0-17.1 8.5 8.5 0 0 1 0 17.1" fill="#112233B7"/><path d="M332.1-117.3a8.6 8.6 0 1 1 0-17.1 8.6 8.6 0 0 1 0 17.1" fill="#fca311B7"/><path d="M-134.4-134.1a8.6 8.6 0 1 1 0-17.2 8.6 8.6 0 0 1 0 17.2" fill="#112233B8"/><path d="M-7.1-363.7a8.6 8.6 0 1 1 0-17.3 8.6 8.6 0 0 1 0 17.3" fill="#112233B9"/><path d="M120.3 81.2a8.7 8.7 0 1 1 0-17.4 8.7 8.7 0 0 1 0 17.4" fill="#112233BA"/><path d="M-134.3-183.8a8.8 8.8 0 1 1 0-17.6 8.8 8.8 0 0 1 0 17.6" fill="#14213dBC"/><path d="M115.9-389.4a8.8 8.8 0 1 1 0-17.6 8.8 8.8 0 0 1 0 17.6" fill="#ffffffBD"/><path d="M305-36.2a8.8 8.8 0 1 1 0-17.6 8.8 8.8 0 0 1 0 17.6" fill="#14213dBD"/><path d="M-29.9 43.6a8.8 8.8 0 1 1 0-17.6 8.8 8.8 0 0 1 0 17.6" fill="#e5e5e5BD"/><path d="M320.1-239.5a8.8 8.8 0 1 1 0-17.7 8.8 8.8 0 0 1 0 17.7" fill="#112233BD"/><path d="M222.8 48.2a8.9 8.9 0 1 1 0-17.8 8.9 8.9 0 0 1 0 17.8" fill="#112233BE"/><path d="M336.2-153.6a8.9 8.9 0 1 1 0-17.8 8.9 8.9 0 0 1 0 17.8" fill="#14213dBF"/><path d="M156.4-382.9a8.9 8.9 0 1 1 0-17.9 8.9 8.9 0 0 1 0 17.9" fill="#e5e5e5BF"/><path d="M319.1-241.7a8.9 8.9 0 1 1 0-17.9 8.9 8.9 0 0 1 0 17.9" fill="#e5e5e5BF"/><path d="M293.3-289.2a8.9 8.9 0 1 1 0-17.9 8.9 8.9 0 0 1 0 17.9" fill="#112233BF"/><path d="M46.7 76.5a8.9 8.9 0 1 1 0-17.9 8.9 8.9 0 0 1 0 17.9" fill="#fca311BF"/><path d="M238.7 37.5a9 9 0 1 1 0-17.9 9 9 0 0 1 0 17.9" fill="#fca311C0"/><path d="M-129.8-99.6a9 9 0 1 1 0-18 9 9 0 0 1 0 18" fill="#14213dC0"/><path d="M331.7-109.4a9 9 0 1 1 0-18.1 9 9 0 0 1 0 18.1" fill="#ffffffC1"/><path d="M192.6-370.3a9 9 0 1 1 0-18.1 9 9 0 0 1 0 18.1" fill="#fca311C2"/><path d="M-56.7-329.6a9.1 9.1 0 1 1 0-18.1 9.1 9.1 0 0 1 0 18.1" fill="#14213dC2"/><path d="M-132.4-114a9.1 9.1 0 1 1 0-18.1 9.1 9.1 0 0 1 0 18.1" fill="#fca311C2"/><path d="M-44.1 32.9a9.1 9.1 0 1 1 0-18.2 9.1 9.1 0 0 1 0 18.2" fill="#112233C3"/><path d="M97-388.6a9.1 9.1 0 1 1 0-18.3 9.1 9.1 0 0 1 0 18.3" fill="#ffffffC3"/><path d="M83.5 80.8a9.2 9.2 0 1 1 0-18.4 9.2 9.2 0 0 1 0 18.4" fill="#ffffffC5"/><path d="M-108.7-46.5a9.2 9.2 0 1 1 0-18.4 9.2 9.2 0 0 1 0 18.4" fill="#ffffffC5"/><path d="M122.6 79.9a9.2 9.2 0 1 1 0-18.4 9.2 9.2 0 0 1 0 18.4" fill="#14213dC6"/><path d="M198.2 59.3a9.2 9.2 0 1 1 0-18.4 9.2 9.2 0 0 1 0 18.4" fill="#14213dC6"/><path d="M-108.8-47.6a9.3 9.3 0 1 1 0-18.5 9.3 9.3 0 0 1 0 18.5" fill="#fca311C6"/><path d="M-124.8-217.1a9.3 9.3 0 1 1 0-18.6 9.3 9.3 0 0 1 0 18.6" fill="#fca311C7"/><path d="M221.1 46.5a9.3 9.3 0 1 1 0-18.6 9.3 9.3 0 0 1 0 18.6" fill="#ffffffC7"/><path d="M-131.5-126a9.3 9.3 0 1 1 0-18.7 9.3 9.3 0 0 1 0 18.7" fill="#112233C8"/><path d="M204.3-361.5a9.3 9.3 0 1 1 0-18.7 9.3 9.3 0 0 1 0 18.7" fill="#112233C8"/><path d="M-119.4-76.4a9.4 9.4 0 1 1 0-18.8 9.4 9.4 0 0 1 0 18.8" fill="#ffffffC9"/><path d="M13.7-368.3a9.4 9.4 0 1 1 0-18.9 9.4 9.4 0 0 1 0 18.9" fill="#fca311CA"/><path d="M231.9-343.1a9.5 9.5 0 1 1 0-18.9 9.5 9.5 0 0 1 0 18.9" fill="#ffffffCB"/><path d="M121.7 77.3a9.5 9.5 0 1 1 0-19 9.5 9.5 0 0 1 0 19" fill="#ffffffCB"/><path d="M-59.4 13.7a9.5 9.5 0 1 1 0-19 9.5 9.5 0 0 1 0 19" fill="#112233CC"/><path d="M31.2 67a9.5 9.5 0 1 1 0-19 9.5 9.5 0 0 1 0 19" fill="#14213dCC"/><path d="M314.3-71.7a9.6 9.6 0 1 1 0-19.2 9.6 9.6 0 0 1 0 19.2" fill="#ffffffCD"/><path d="M135.4 73a9.6 9.6 0 1 1 0-19.2 9.6 9.6 0 0 1 0 19.2" fill="#ffffffCE"/><path d="M327-132.8a9.6 9.6 0 1 1 0-19.3 9.6 9.6 0 0 1 0 19.3" fill="#e5e5e5CF"/><path d="M221.4-344.1a9.7 9.7 0 1 1 0-19.4 9.7 9.7 0 0 1 0 19.4" fill="#ffffffD0"/><path d="M193.8 53a9.7 9.7 0 1 1 0-19.4 9.7 9.7 0 0 1 0 19.4" fill="#ffffffD0"/><path d="M295.8-265.7a9.7 9.7 0 1 1 0-19.4 9.7 9.7 0 0 1 0 19.4" fill="#112233D0"/><path d="M88.3 72.6a9.7 9.7 0 1 1 0-19.5 9.7 9.7 0 0 1 0 19.5" fill="#fca311D1"/><path d="M316.1-97.5a9.8 9.8 0 1 1 0-19.6 9.8 9.8 0 0 1 0 19.6" fill="#fca311D3"/><path d="M-107-225.9a9.9 9.9 0 1 1 0-19.9 9.9 9.9 0 0 1 0 19.9" fill="#fca311D5"/><path d="M317.8-134.2a10 10 0 1 1 0-19.9 10 10 0 0 1 0 19.9" fill="#14213dD6"/><path d="M-87.4-260.2a10.1 10.1 0 1 1 0-20.1 10.1 10.1 0 0 1 0 20.1" fill="#e5e5e5D8"/><path d="M309.9-191.5a10.1 10.1 0 1 1 0-20.3 10.1 10.1 0 0 1 0 20.3" fill="#ffffffD9"/><path d="M-4.9-336.1a10.2 10.2 0 1 1 0-20.4 10.2 10.2 0 0 1 0 20.4" fill="#14213dDA"/><path d="M175.4 45a10.2 10.2 0 1 1 0-20.4 10.2 10.2 0 0 1 0 20.4" fill="#14213dDB"/><path d="M251.9-298.3a10.2 10.2 0 1 1 0-20.3 10.2 10.2 0 0 1 0 20.3" fill="#ffffffDB"/><path d="M-100.1-90.3a10.2 10.2 0 1 1 0-20.5 10.2 10.2 0 0 1 0 20.5" fill="#ffffffDC"/><path d="M309-162.1a10.2 10.2 0 1 1 0-20.5 10.2 10.2 0 0 1 0 20.5" fill="#112233DC"/><path d="M-63.7-275.3a10.3 10.3 0 1 1 0-20.7 10.3 10.3 0 0 1 0 20.7" fill="#e5e5e5DE"/><path d="M-83-243.9a10.3 10.3 0 1 1 0-20.6 10.3 10.3 0 0 1 0 20.6" fill="#e5e5e5DE"/><path d="M303.5-161.1a10.4 10.4 0 1 1 0-20.7 10.4 10.4 0 0 1 0 20.7" fill="#14213dDE"/><path d="M249.4-15.9a10.4 10.4 0 1 1 0-20.8 10.4 10.4 0 0 1 0 20.8" fill="#fca311DF"/><path d="M249.7-16.3a10.4 10.4 0 1 1 0-20.8 10.4 10.4 0 0 1 0 20.8" fill="#e5e5e5DF"/><path d="M110.3 48.4a10.4 10.4 0 1 1 0-20.8 10.4 10.4 0 0 1 0 20.8" fill="#ffffffE0"/><path d="M161.4-342.8a10.4 10.4 0 1 1 0-20.9 10.4 10.4 0 0 1 0 20.9" fill="#ffffffE0"/><path d="M299-142a10.4 10.4 0 1 1 0-20.9 10.4 10.4 0 0 1 0 20.9" fill="#112233E0"/><path d="M298.5-141.1a10.5 10.5 0 1 1 0-20.9 10.5 10.5 0 0 1 0 20.9" fill="#112233E1"/><path d="M243.8-285.3a10.5 10.5 0 1 1 0-21.1 10.5 10.5 0 0 1 0 21.1" fill="#ffffffE2"/><path d="M-2.7-317.8a10.5 10.5 0 1 1 0-21.1 10.5 10.5 0 0 1 0 21.1" fill="#14213dE2"/><path d="M-79.1-227.2a10.5 10.5 0 1 1 0-21.1 10.5 10.5 0 0 1 0 21.1" fill="#e5e5e5E2"/><path d="M-85.5-98.8a10.6 10.6 0 1 1 0-21.1 10.6 10.6 0 0 1 0 21.1" fill="#14213dE3"/><path d="M-40.1-19.5a10.6 10.6 0 1 1 0-21.2 10.6 10.6 0 0 1 0 21.2" fill="#ffffffE3"/><path d="M-88.2-130.7a10.6 10.6 0 1 1 0-21.2 10.6 10.6 0 0 1 0 21.2" fill="#14213dE4"/><path d="M274.7-209.2a10.7 10.7 0 1 1 0-21.5 10.7 10.7 0 0 1 0 21.5" fill="#14213dE6"/><path d="M279.2-189a10.7 10.7 0 1 1 0-21.5 10.7 10.7 0 0 1 0 21.5" fill="#112233E7"/><path d="M78.3 28.5a10.7 10.7 0 1 1 0-21.4 10.7 10.7 0 0 1 0 21.4" fill="#ffffffE7"/><path d="M203.1-2.8a10.8 10.8 0 1 1 0-21.5 10.8 10.8 0 0 1 0 21.5" fill="#ffffffE7"/><path d="M-22.2-284.8a10.8 10.8 0 1 1 0-21.5 10.8 10.8 0 0 1 0 21.5" fill="#e5e5e5E7"/><path d="M279.9-135.8a10.8 10.8 0 1 1 0-21.5 10.8 10.8 0 0 1 0 21.5" fill="#e5e5e5E7"/><path d="M171 14a10.8 10.8 0 1 1 0-21.5 10.8 10.8 0 0 1 0 21.5" fill="#e5e5e5E8"/><path d="M-66.5-85.3a10.8 10.8 0 1 1 0-21.5 10.8 10.8 0 0 1 0 21.5" fill="#fca311E8"/><path d="M272.3-133.3a10.9 10.9 0 1 1 0-21.8 10.9 10.9 0 0 1 0 21.8" fill="#ffffffEA"/><path d="M209.8-283.6a10.9 10.9 0 1 1 0-21.8 10.9 10.9 0 0 1 0 21.8" fill="#ffffffEA"/><path d="M220.7-264.7a11 11 0 1 1 0-22 11 11 0 0 1 0 22" fill="#e5e5e5EC"/><path d="M-9.7-28.2a11 11 0 1 1 0-22 11 11 0 0 1 0 22" fill="#ffffffEC"/><path d="M193.4-286.8a11 11 0 1 1 0-21.9 11 11 0 0 1 0 21.9" fill="#fca311EC"/><path d="M115.5 8.6a11 11 0 1 1 0-22 11 11 0 0 1 0 22" fill="#112233ED"/><path d="M233.6-64.4a11 11 0 1 1 0-22 11 11 0 0 1 0 22" fill="#e5e5e5ED"/><path d="M95-309.8a11 11 0 1 1 0-22.1 11 11 0 0 1 0 22.1" fill="#112233EE"/><path d="M90.9 6.5a11.1 11.1 0 1 1 0-22.1 11.1 11.1 0 0 1 0 22.1" fill="#14213dEE"/><path d="M29.8-292.3a11.1 11.1 0 1 1 0-22.1 11.1 11.1 0 0 1 0 22.1" fill="#ffffffEE"/><path d="M244.8-109a11.1 11.1 0 1 1 0-22.3 11.1 11.1 0 0 1 0 22.3" fill="#ffffffF0"/><path d="M-42.2-185.2a11.2 11.2 0 1 1 0-22.4 11.2 11.2 0 0 1 0 22.4" fill="#fca311F1"/><path d="M65.8-10a11.2 11.2 0 1 1 0-22.4 11.2 11.2 0 0 1 0 22.4" fill="#e5e5e5F1"/><path d="M224.9-205.4a11.3 11.3 0 1 1 0-22.5 11.3 11.3 0 0 1 0 22.5" fill="#ffffffF3"/><path d="M84.5-286.4a11.3 11.3 0 1 1 0-22.6 11.3 11.3 0 0 1 0 22.6" fill="#fca311F3"/><path d="M36-269.2a11.3 11.3 0 1 1 0-22.6 11.3 11.3 0 0 1 0 22.6" fill="#fca311F3"/><path d="M8.1-63.1a11.3 11.3 0 1 1 0-22.7 11.3 11.3 0 0 1 0 22.7" fill="#112233F4"/><path d="M121.5-273.7a11.4 11.4 0 1 1 0-22.7 11.4 11.4 0 0 1 0 22.7" fill="#14213dF5"/><path d="M0-81.6a11.4 11.4 0 1 1 0-22.8 11.4 11.4 0 0 1 0 22.8" fill="#ffffffF5"/><path d="M37.9-51.5a11.4 11.4 0 1 1 0-22.9 11.4 11.4 0 0 1 0 22.9" fill="#e5e5e5F6"/><path d="M190.6-219.3a11.4 11.4 0 1 1 0-22.9 11.4 11.4 0 0 1 0 22.9" fill="#112233F7"/><path d="M56.4-49.9a11.5 11.5 0 1 1 0-23 11.5 11.5 0 0 1 0 23" fill="#ffffffF7"/><path d="M35.2-230.1a11.5 11.5 0 1 1 0-23 11.5 11.5 0 0 1 0 23" fill="#fca311F8"/><path d="M196.8-127.9a11.5 11.5 0 1 1 0-23.1 11.5 11.5 0 0 1 0 23.1" fill="#fca311F8"/><path d="M58.2-218.8a11.6 11.6 0 1 1 0-23.3 11.6 11.6 0 0 1 0 23.3" fill="#112233FB"/><path d="M129.8-79.6a11.7 11.7 0 1 1 0-23.3 11.7 11.7 0 0 1 0 23.3" fill="#ffffffFB"/><path d="M51.5-208.8a11.7 11.7 0 1 1 0-23.3 11.7 11.7 0 0 1 0 23.3" fill="#e5e5e5FB"/><path d="M58.6-192.3a11.7 11.7 0 1 1 0-23.4 11.7 11.7 0 0 1 0 23.4" fill="#14213dFC"/><path d="M154-129.5a11.7 11.7 0 1 1 0-23.4 11.7 11.7 0 0 1 0 23.4" fill="#ffffffFD"/><path d="M124.5-184.5a11.8 11.8 0 1 1 0-23.6 11.8 11.8 0 0 1 0 23.6" fill="#fca311FD"/><path d="M78.9-170.1a11.8 11.8 0 1 1 0-23.6 11.8 11.8 0 0 1 0 23.6" fill="#14213dFE"/></g></svg>