<svg width="1200" height="675" viewBox="-500 -500 1200 675" xmlns="http://www.w3.org/2000/svg"><path d="M-500-500h1200v675h-1200z" fill="#000"/><style>.sparkles path{stroke-linecap:round; stroke-width:1}</style><g class="sparkles"><path d="M100-162.5l10 0.4" stroke="#005bbb32"/><path d="M100-162.5l3.2 22.3" stroke="#fff50032"/><path d="M100-162.5l-20.7 12.6" stroke="#fff32"/><path d="M100-162.5l50.6 22.9" stroke="#c2e1ff33"/><path d="M100-162.5l-70.4-16.9" stroke="#fff34"/><path d="M100-162.5l39-61.2" stroke="#fff50034"/><path d="M100-162.5l39.9 76.2" stroke="#c2e1ff35"/><path d="M100-162.5l-88.5-35.9" stroke="#fff36"/><path d="M100-162.5l75-65.1" stroke="#fff50036"/><path d="M100-162.5l1.9-110" stroke="#fff50037"/><path d="M100-162.5l80.5-77.9" stroke="#fff37"/><path d="M100-162.5l72.1 95.7" stroke="#005bbb38"/><path d="M100-162.5l-70.7 105" stroke="#005bbb39"/><path d="M100-162.5l-97.7 84.3" stroke="#005bbb3A"/><path d="M100-162.5l-66.5-115.1" stroke="#005bbb3A"/><path d="M100-162.5l103.5-85.4" stroke="#fff3A"/><path d="M100-162.5l113.2-72.4" stroke="#fff5003A"/><path d="M100-162.5l129.4 40.9" stroke="#c2e1ff3B"/><path d="M100-162.5l145.9 18.6" stroke="#c2e1ff3C"/><path d="M100-162.5l-148.9 4.2" stroke="#005bbb3D"/><path d="M100-162.5l144.6 39.4" stroke="#c2e1ff3D"/><path d="M100-162.5l140.8 55.7" stroke="#fff3D"/><path d="M100-162.5l152.1-16.4" stroke="#fff3D"/><path d="M100-162.5l155.7-23.7" stroke="#c2e1ff3E"/><path d="M100-162.5l-50.7 158.7" stroke="#fff40"/><path d="M100-162.5l148.7-76.5" stroke="#fff50040"/><path d="M100-162.5l-167-35" stroke="#fff50041"/><path d="M100-162.5l-148.9 85" stroke="#c2e1ff41"/><path d="M100-162.5l72.9-161.9" stroke="#005bbb43"/><path d="M100-162.5l152.3 93.7" stroke="#c2e1ff43"/><path d="M100-162.5l176.7 32.2" stroke="#c2e1ff43"/><path d="M100-162.5l175 50.1" stroke="#fff44"/><path d="M100-162.5l35-179.3" stroke="#005bbb44"/><path d="M100-162.5l-29.2 180.7" stroke="#c2e1ff44"/><path d="M100-162.5l176.4-58.3" stroke="#fff50045"/><path d="M100-162.5l104.3 154.8" stroke="#c2e1ff45"/><path d="M100-162.5l189.3 0" stroke="#fff46"/><path d="M100-162.5l190.5-35.7" stroke="#005bbb47"/><path d="M100-162.5l-156.8 115.3" stroke="#fff47"/><path d="M100-162.5l-36.5-191.7" stroke="#fff47"/><path d="M100-162.5l-148 133.7" stroke="#005bbb49"/><path d="M100-162.5l136.4 152" stroke="#fff5004A"/><path d="M100-162.5l152.5-136.2" stroke="#c2e1ff4A"/><path d="M100-162.5l-193.1-71.9" stroke="#fff5004B"/><path d="M100-162.5l43.2-201.5" stroke="#fff5004B"/><path d="M100-162.5l-175.7 108.8" stroke="#005bbb4B"/><path d="M100-162.5l142.3 152.5" stroke="#005bbb4C"/><path d="M100-162.5l7.2-209.5" stroke="#fff5004C"/><path d="M100-162.5l192.1-86.1" stroke="#c2e1ff4D"/><path d="M100-162.5l191.5 91.2" stroke="#c2e1ff4D"/><path d="M100-162.5l-52.1 205.8" stroke="#fff5004E"/><path d="M100-162.5l-208.2-48.5" stroke="#005bbb4E"/><path d="M100-162.5l-163.5 138.4" stroke="#c2e1ff4E"/><path d="M100-162.5l-214.2-26" stroke="#c2e1ff4F"/><path d="M100-162.5l133 171.2" stroke="#c2e1ff50"/><path d="M100-162.5l82.1-201.1" stroke="#fff50"/><path d="M100-162.5l-215-47.7" stroke="#005bbb51"/><path d="M100-162.5l119.7 185" stroke="#fff51"/><path d="M100-162.5l-25.1-219" stroke="#005bbb51"/><path d="M100-162.5l217.8 38.3" stroke="#fff52"/><path d="M100-162.5l-82.2 206.2" stroke="#fff52"/><path d="M100-162.5l-186.3 121.2" stroke="#005bbb53"/><path d="M100-162.5l80.7-207.5" stroke="#c2e1ff53"/><path d="M100-162.5l88-205.7" stroke="#005bbb53"/><path d="M100-162.5l-219.9-49.6" stroke="#005bbb55"/><path d="M100-162.5l49.1 220.6" stroke="#fff55"/><path d="M100-162.5l-58.3 218.3" stroke="#fff50055"/><path d="M100-162.5l-197.4-114.3" stroke="#fff56"/><path d="M100-162.5l10.5 228.7" stroke="#c2e1ff57"/><path d="M100-162.5l159.3 165.5" stroke="#005bbb58"/><path d="M100-162.5l-119.1 196.6" stroke="#005bbb58"/><path d="M100-162.5l226-42.2" stroke="#c2e1ff58"/><path d="M100-162.5l39.5-227.6" stroke="#fff50059"/><path d="M100-162.5l-189-133.1" stroke="#fff50059"/><path d="M100-162.5l232.6-16.3" stroke="#005bbb5C"/><path d="M100-162.5l231.7 26.3" stroke="#fff5005C"/><path d="M100-162.5l-25.2 232.4" stroke="#fff5C"/><path d="M100-162.5l-44.6 230.3" stroke="#fff5E"/><path d="M100-162.5l204 116.5" stroke="#fff5005E"/><path d="M100-162.5l128.6 197" stroke="#fff5F"/><path d="M100-162.5l-156.1-176.3" stroke="#005bbb60"/><path d="M100-162.5l73.8 223.8" stroke="#c2e1ff60"/><path d="M100-162.5l-39.1 232.9" stroke="#005bbb62"/><path d="M100-162.5l-165.2 168.8" stroke="#fff63"/><path d="M100-162.5l-33.1 233.8" stroke="#fff65"/><path d="M100-162.5l-117.3-204.9" stroke="#c2e1ff65"/><path d="M100-162.5l232.6 39.2" stroke="#005bbb66"/><path d="M100-162.5l233.4 34.1" stroke="#fff50066"/><path d="M100-162.5l88.9-218.4" stroke="#005bbb67"/><path d="M100-162.5l-113.6-206.6" stroke="#005bbb67"/><path d="M100-162.5l-159.5-173.6" stroke="#c2e1ff67"/><path d="M100-162.5l-26.2 233.9" stroke="#c2e1ff68"/><path d="M100-162.5l230.4-47.1" stroke="#c2e1ff68"/><path d="M100-162.5l-216-92.7" stroke="#005bbb68"/><path d="M100-162.5l-226.2 63.4" stroke="#fff69"/><path d="M100-162.5l-86.6-218.3" stroke="#005bbb69"/><path d="M100-162.5l213.4-97.8" stroke="#fff50069"/><path d="M100-162.5l44.6 230.3" stroke="#fff6A"/><path d="M100-162.5l126.2 197.6" stroke="#fff6A"/><path d="M100-162.5l-181.2 148.7" stroke="#c2e1ff6A"/><path d="M100-162.5l188.4-139.5" stroke="#c2e1ff6A"/><path d="M100-162.5l233.8 3.9" stroke="#005bbb6B"/><path d="M100-162.5l233.7 2.6" stroke="#c2e1ff6B"/><path d="M100-162.5l-124.2-197.8" stroke="#fff6B"/><path d="M100-162.5l22.6-232.2" stroke="#fff5006B"/><path d="M100-162.5l206.2-106.8" stroke="#fff5006D"/><path d="M100-162.5l179.3-140.1" stroke="#005bbb71"/><path d="M100-162.5l-94.2 206.6" stroke="#005bbb71"/><path d="M100-162.5l21.5-225.1" stroke="#fff50072"/><path d="M100-162.5l-220.5 49.3" stroke="#fff72"/><path d="M100-162.5l54.4-217.8" stroke="#fff73"/><path d="M100-162.5l-90.5-205" stroke="#fff73"/><path d="M100-162.5l107.8-196.4" stroke="#c2e1ff73"/><path d="M100-162.5l-20.5 222.6" stroke="#005bbb74"/><path d="M100-162.5l-90.9 204.1" stroke="#c2e1ff74"/><path d="M100-162.5l-221.5 27.4" stroke="#c2e1ff74"/><path d="M100-162.5l219.6 39.5" stroke="#005bbb74"/><path d="M100-162.5l-139 173.9" stroke="#c2e1ff74"/><path d="M100-162.5l-114.2-188.4" stroke="#fff50076"/><path d="M100-162.5l-119.2-184.7" stroke="#005bbb76"/><path d="M100-162.5l129.9 175.4" stroke="#fff50077"/><path d="M100-162.5l-7.7-218.1" stroke="#fff50077"/><path d="M100-162.5l-187.8 108.2" stroke="#fff77"/><path d="M100-162.5l-77.2 202.5" stroke="#fff77"/><path d="M100-162.5l-215.1 8.5" stroke="#fff50078"/><path d="M100-162.5l26.1-213.6" stroke="#c2e1ff78"/><path d="M100-162.5l-133.5 166.8" stroke="#005bbb79"/><path d="M100-162.5l210.5-35.6" stroke="#fff50079"/><path d="M100-162.5l-40.5 208" stroke="#fff7A"/><path d="M100-162.5l209.5-22.8" stroke="#005bbb7A"/><path d="M100-162.5l205.7 36.4" stroke="#fff5007B"/><path d="M100-162.5l97.5-184.6" stroke="#fff5007B"/><path d="M100-162.5l-91.4 182.8" stroke="#005bbb7D"/><path d="M100-162.5l41.8 199.9" stroke="#fff5007D"/><path d="M100-162.5l-121-163.7" stroke="#005bbb7D"/><path d="M100-162.5l180.4 92.7" stroke="#c2e1ff7D"/><path d="M100-162.5l199.6-35" stroke="#005bbb7D"/><path d="M100-162.5l130 155.3" stroke="#fff5007D"/><path d="M100-162.5l152.4-133.1" stroke="#fff5007D"/><path d="M100-162.5l115.2-163.2" stroke="#fff7E"/><path d="M100-162.5l84.3 176.9" stroke="#c2e1ff7F"/><path d="M100-162.5l-146.5 129" stroke="#fff80"/><path d="M100-162.5l-12.2 192.3" stroke="#fff80"/><path d="M100-162.5l159.6 107.6" stroke="#fff50080"/><path d="M100-162.5l178.6-64" stroke="#c2e1ff81"/><path d="M100-162.5l-154.8 93.2" stroke="#fff50084"/><path d="M100-162.5l-41-175.5" stroke="#fff84"/><path d="M100-162.5l-173.5-41.9" stroke="#fff84"/><path d="M100-162.5l-22 175.6" stroke="#c2e1ff85"/><path d="M100-162.5l173.6 33" stroke="#fff50085"/><path d="M100-162.5l118.3-128.5" stroke="#fff85"/><path d="M100-162.5l-11.6-171.6" stroke="#c2e1ff86"/><path d="M100-162.5l-150.3-77.7" stroke="#fff50086"/><path d="M100-162.5l86.8 142" stroke="#fff50087"/><path d="M100-162.5l138-84.1" stroke="#fff88"/><path d="M100-162.5l-140.9-74.5" stroke="#c2e1ff88"/><path d="M100-162.5l137.5 72" stroke="#fff50089"/><path d="M100-162.5l101.7-110.7" stroke="#fff5008A"/><path d="M100-162.5l-143.1 45.7" stroke="#005bbb8A"/><path d="M100-162.5l-94 116.7" stroke="#fff5008A"/><path d="M100-162.5l90.6 116" stroke="#005bbb8B"/><path d="M100-162.5l131.5-45.6" stroke="#fff5008C"/><path d="M100-162.5l-110.7 69.7" stroke="#fff8D"/><path d="M100-162.5l53.1 117.4" stroke="#fff8D"/><path d="M100-162.5l-82.1-96.2" stroke="#fff5008E"/><path d="M100-162.5l-55.8 109.9" stroke="#fff5008E"/><path d="M100-162.5l-12.4 113.8" stroke="#fff8F"/><path d="M100-162.5l-110.4 25.8" stroke="#fff8F"/><path d="M100-162.5l-82.3 77.9" stroke="#005bbb8F"/><path d="M100-162.5l51.2 100" stroke="#fff8F"/><path d="M100-162.5l86.5-57.9" stroke="#c2e1ff90"/><path d="M100-162.5l-91.3-32.4" stroke="#c2e1ff91"/><path d="M100-162.5l71-55.3" stroke="#fff92"/><path d="M100-162.5l85 12.4" stroke="#fff92"/><path d="M100-162.5l3.5-80.1" stroke="#005bbb93"/><path d="M100-162.5l-28.7 68.3" stroke="#c2e1ff93"/><path d="M100-162.5l32.7 66.3" stroke="#fff50093"/><path d="M100-162.5l65.3 29.9" stroke="#c2e1ff93"/><path d="M100-162.5l36.2 45.2" stroke="#005bbb94"/><path d="M100-162.5l7.2 1" stroke="#fff95"/><path d="M100-162.5l-6.1-2.9" stroke="#fff95"/></g><g class="sparcs"><path d="M110-156.2a5.9 5.9 0 1 1 0-11.8 5.9 5.9 0 0 1 0 11.8" fill="#fff5007D"/><path d="M103.2-134.3a5.9 5.9 0 1 1 0-11.8 5.9 5.9 0 0 1 0 11.8" fill="#fff7D"/><path d="M79.3-143.9a5.9 5.9 0 1 1 0-11.9 5.9 5.9 0 0 1 0 11.9" fill="#fff5007D"/><path d="M150.6-133.6a6 6 0 1 1 0-12 6 6 0 0 1 0 12" fill="#fff5007E"/><path d="M29.6-173.4a6 6 0 1 1 0-12.1 6 6 0 0 1 0 12.1" fill="#fff50080"/><path d="M139-217.6a6 6 0 1 1 0-12.1 6 6 0 0 1 0 12.1" fill="#005bbb80"/><path d="M139.9-80.2a6.1 6.1 0 1 1 0-12.2 6.1 6.1 0 0 1 0 12.2" fill="#fff81"/><path d="M11.5-192.2a6.2 6.2 0 1 1 0-12.3 6.2 6.2 0 0 1 0 12.3" fill="#c2e1ff82"/><path d="M175-221.5a6.2 6.2 0 1 1 0-12.3 6.2 6.2 0 0 1 0 12.3" fill="#c2e1ff83"/><path d="M101.9-266.3a6.2 6.2 0 1 1 0-12.5 6.2 6.2 0 0 1 0 12.5" fill="#c2e1ff84"/><path d="M180.5-234.2a6.3 6.3 0 1 1 0-12.5 6.3 6.3 0 0 1 0 12.5" fill="#c2e1ff84"/><path d="M172.1-60.5a6.3 6.3 0 1 1 0-12.6 6.3 6.3 0 0 1 0 12.6" fill="#005bbb85"/><path d="M29.3-51.1a6.4 6.4 0 1 1 0-12.7 6.4 6.4 0 0 1 0 12.7" fill="#fff50087"/><path d="M2.3-71.8a6.4 6.4 0 1 1 0-12.8 6.4 6.4 0 0 1 0 12.8" fill="#fff87"/><path d="M33.5-271.2a6.4 6.4 0 1 1 0-12.8 6.4 6.4 0 0 1 0 12.8" fill="#fff88"/><path d="M203.5-241.5a6.4 6.4 0 1 1 0-12.9 6.4 6.4 0 0 1 0 12.9" fill="#fff50088"/><path d="M213.2-228.4a6.4 6.4 0 1 1 0-12.9 6.4 6.4 0 0 1 0 12.9" fill="#005bbb88"/><path d="M229.4-115.1a6.4 6.4 0 1 1 0-12.9 6.4 6.4 0 0 1 0 12.9" fill="#fff50088"/><path d="M245.9-137.3a6.5 6.5 0 1 1 0-13.1 6.5 6.5 0 0 1 0 13.1" fill="#005bbb8B"/><path d="M-48.9-151.7a6.6 6.6 0 1 1 0-13.1 6.6 6.6 0 0 1 0 13.1" fill="#fff8B"/><path d="M244.6-116.6a6.6 6.6 0 1 1 0-13.1 6.6 6.6 0 0 1 0 13.1" fill="#fff5008B"/><path d="M240.8-100.2a6.6 6.6 0 1 1 0-13.2 6.6 6.6 0 0 1 0 13.2" fill="#fff8C"/><path d="M252.1-172.3a6.6 6.6 0 1 1 0-13.2 6.6 6.6 0 0 1 0 13.2" fill="#fff8C"/><path d="M255.7-179.6a6.7 6.7 0 1 1 0-13.3 6.7 6.7 0 0 1 0 13.3" fill="#c2e1ff8D"/><path d="M49.3 3a6.8 6.8 0 1 1 0-13.5 6.8 6.8 0 0 1 0 13.5" fill="#fff5008F"/><path d="M248.7-232.2a6.8 6.8 0 1 1 0-13.6 6.8 6.8 0 0 1 0 13.6" fill="#fff90"/><path d="M-67-190.7a6.8 6.8 0 1 1 0-13.6 6.8 6.8 0 0 1 0 13.6" fill="#005bbb91"/><path d="M-48.9-70.7a6.8 6.8 0 1 1 0-13.6 6.8 6.8 0 0 1 0 13.6" fill="#c2e1ff91"/><path d="M172.9-317.5a6.9 6.9 0 1 1 0-13.8 6.9 6.9 0 0 1 0 13.8" fill="#fff93"/><path d="M252.3-61.8a6.9 6.9 0 1 1 0-13.9 6.9 6.9 0 0 1 0 13.9" fill="#fff93"/><path d="M276.7-123.3a6.9 6.9 0 1 1 0-13.9 6.9 6.9 0 0 1 0 13.9" fill="#c2e1ff93"/><path d="M275-105.4a7 7 0 1 1 0-14 7 7 0 0 1 0 14" fill="#fff50094"/><path d="M135-334.8a7 7 0 1 1 0-14 7 7 0 0 1 0 14" fill="#c2e1ff94"/><path d="M70.8 25.2a7 7 0 1 1 0-14 7 7 0 0 1 0 14" fill="#fff50094"/><path d="M276.4-213.8a7 7 0 1 1 0-14 7 7 0 0 1 0 14" fill="#005bbb95"/><path d="M204.3-0.6a7 7 0 1 1 0-14.1 7 7 0 0 1 0 14.1" fill="#fff50096"/><path d="M289.3-155.4a7.1 7.1 0 1 1 0-14.2 7.1 7.1 0 0 1 0 14.2" fill="#c2e1ff97"/><path d="M290.5-191a7.2 7.2 0 1 1 0-14.3 7.2 7.2 0 0 1 0 14.3" fill="#fff50098"/><path d="M-56.8-40.1a7.2 7.2 0 1 1 0-14.3 7.2 7.2 0 0 1 0 14.3" fill="#fff99"/><path d="M63.5-347a7.2 7.2 0 1 1 0-14.4 7.2 7.2 0 0 1 0 14.4" fill="#005bbb99"/><path d="M-48-21.6a7.3 7.3 0 1 1 0-14.5 7.3 7.3 0 0 1 0 14.5" fill="#fff9B"/><path d="M236.4-3.2a7.4 7.4 0 1 1 0-14.7 7.4 7.4 0 0 1 0 14.7" fill="#005bbb9D"/><path d="M252.5-291.3a7.4 7.4 0 1 1 0-14.8 7.4 7.4 0 0 1 0 14.8" fill="#005bbb9D"/><path d="M-93.1-227a7.4 7.4 0 1 1 0-14.8 7.4 7.4 0 0 1 0 14.8" fill="#005bbb9E"/><path d="M143.2-356.6a7.4 7.4 0 1 1 0-14.8 7.4 7.4 0 0 1 0 14.8" fill="#fff5009E"/><path d="M-75.7-46.3a7.4 7.4 0 1 1 0-14.8 7.4 7.4 0 0 1 0 14.8" fill="#fff5009E"/><path d="M242.3-2.5a7.5 7.5 0 1 1 0-15 7.5 7.5 0 0 1 0 15" fill="#fff9F"/><path d="M107.2-364.5a7.5 7.5 0 1 1 0-15 7.5 7.5 0 0 1 0 15" fill="#c2e1ff9F"/><path d="M292.1-241a7.5 7.5 0 1 1 0-15.1 7.5 7.5 0 0 1 0 15.1" fill="#fffA0"/><path d="M291.5-63.7a7.6 7.6 0 1 1 0-15.2 7.6 7.6 0 0 1 0 15.2" fill="#005bbbA1"/><path d="M47.9 50.9a7.6 7.6 0 1 1 0-15.1 7.6 7.6 0 0 1 0 15.1" fill="#fffA1"/><path d="M-108.2-203.4a7.6 7.6 0 1 1 0-15.2 7.6 7.6 0 0 1 0 15.2" fill="#fff500A2"/><path d="M-63.5-16.5a7.6 7.6 0 1 1 0-15.2 7.6 7.6 0 0 1 0 15.2" fill="#fff500A2"/><path d="M-114.2-180.8a7.7 7.7 0 1 1 0-15.4 7.7 7.7 0 0 1 0 15.4" fill="#fffA3"/><path d="M233 16.4a7.7 7.7 0 1 1 0-15.4 7.7 7.7 0 0 1 0 15.4" fill="#c2e1ffA4"/><path d="M182.1-355.9a7.7 7.7 0 1 1 0-15.4 7.7 7.7 0 0 1 0 15.4" fill="#fffA4"/><path d="M-115-202.4a7.8 7.8 0 1 1 0-15.6 7.8 7.8 0 0 1 0 15.6" fill="#005bbbA6"/><path d="M219.7 30.3a7.8 7.8 0 1 1 0-15.6 7.8 7.8 0 0 1 0 15.6" fill="#005bbbA6"/><path d="M74.9-373.7a7.8 7.8 0 1 1 0-15.6 7.8 7.8 0 0 1 0 15.6" fill="#fff500A6"/><path d="M317.8-116.4a7.8 7.8 0 1 1 0-15.6 7.8 7.8 0 0 1 0 15.6" fill="#c2e1ffA7"/><path d="M17.8 51.6a7.8 7.8 0 1 1 0-15.7 7.8 7.8 0 0 1 0 15.7" fill="#fff500A7"/><path d="M-86.3-33.4a7.9 7.9 0 1 1 0-15.7 7.9 7.9 0 0 1 0 15.7" fill="#005bbbA7"/><path d="M180.7-362.1a7.9 7.9 0 1 1 0-15.8 7.9 7.9 0 0 1 0 15.8" fill="#c2e1ffA8"/><path d="M188-360.3a7.9 7.9 0 1 1 0-15.8 7.9 7.9 0 0 1 0 15.8" fill="#fffA9"/><path d="M-119.9-204.2a8 8 0 1 1 0-15.9 8 8 0 0 1 0 15.9" fill="#fffAA"/><path d="M149.1 66.1a8 8 0 1 1 0-16 8 8 0 0 1 0 16" fill="#005bbbAB"/><path d="M41.7 63.8a8 8 0 1 1 0-16 8 8 0 0 1 0 16" fill="#fffAB"/><path d="M-97.4-268.7a8.1 8.1 0 1 1 0-16.2 8.1 8.1 0 0 1 0 16.2" fill="#fffAD"/><path d="M110.5 74.4a8.1 8.1 0 1 1 0-16.3 8.1 8.1 0 0 1 0 16.3" fill="#005bbbAE"/><path d="M259.3 11.2a8.2 8.2 0 1 1 0-16.3 8.2 8.2 0 0 1 0 16.3" fill="#c2e1ffAE"/><path d="M-19.1 42.3a8.2 8.2 0 1 1 0-16.4 8.2 8.2 0 0 1 0 16.4" fill="#005bbbAE"/><path d="M326-196.5a8.2 8.2 0 1 1 0-16.3 8.2 8.2 0 0 1 0 16.3" fill="#c2e1ffAF"/><path d="M139.5-381.8a8.2 8.2 0 1 1 0-16.5 8.2 8.2 0 0 1 0 16.5" fill="#005bbbB0"/><path d="M-89-287.4a8.3 8.3 0 1 1 0-16.5 8.3 8.3 0 0 1 0 16.5" fill="#c2e1ffB0"/><path d="M332.6-170.4a8.4 8.4 0 1 1 0-16.8 8.4 8.4 0 0 1 0 16.8" fill="#c2e1ffB3"/><path d="M331.7-127.8a8.4 8.4 0 1 1 0-16.8 8.4 8.4 0 0 1 0 16.8" fill="#c2e1ffB3"/><path d="M74.8 78.3a8.4 8.4 0 1 1 0-16.9 8.4 8.4 0 0 1 0 16.9" fill="#fff500B4"/><path d="M55.4 76.3a8.5 8.5 0 1 1 0-17 8.5 8.5 0 0 1 0 17" fill="#fffB6"/><path d="M304-37.4a8.6 8.6 0 1 1 0-17.1 8.6 8.6 0 0 1 0 17.1" fill="#c2e1ffB7"/><path d="M228.6 43.1a8.6 8.6 0 1 1 0-17.2 8.6 8.6 0 0 1 0 17.2" fill="#005bbbB8"/><path d="M-56.1-330.2a8.6 8.6 0 1 1 0-17.2 8.6 8.6 0 0 1 0 17.2" fill="#fff500B8"/><path d="M173.8 70a8.7 8.7 0 1 1 0-17.3 8.7 8.7 0 0 1 0 17.3" fill="#c2e1ffB9"/><path d="M60.9 79.2a8.8 8.8 0 1 1 0-17.6 8.8 8.8 0 0 1 0 17.6" fill="#fffBC"/><path d="M-65.2 15.1a8.8 8.8 0 1 1 0-17.6 8.8 8.8 0 0 1 0 17.6" fill="#005bbbBC"/><path d="M66.9 80.3a9 9 0 1 1 0-17.9 9 9 0 0 1 0 17.9" fill="#005bbbC0"/><path d="M-17.3-358.5a9 9 0 1 1 0-17.9 9 9 0 0 1 0 17.9" fill="#c2e1ffC0"/><path d="M332.6-114.2a9 9 0 1 1 0-18.1 9 9 0 0 1 0 18.1" fill="#005bbbC1"/><path d="M333.4-119.4a9 9 0 1 1 0-18 9 9 0 0 1 0 18" fill="#fffC1"/><path d="M188.9-371.9a9 9 0 1 1 0-18.1 9 9 0 0 1 0 18.1" fill="#c2e1ffC1"/><path d="M-13.6-360.1a9 9 0 1 1 0-18.1 9 9 0 0 1 0 18.1" fill="#fffC1"/><path d="M-59.5-327a9.1 9.1 0 1 1 0-18.1 9.1 9.1 0 0 1 0 18.1" fill="#fffC2"/><path d="M73.8 80.6a9.1 9.1 0 1 1 0-18.3 9.1 9.1 0 0 1 0 18.3" fill="#fff500C3"/><path d="M330.4-200.5a9.1 9.1 0 1 1 0-18.2 9.1 9.1 0 0 1 0 18.2" fill="#005bbbC4"/><path d="M-116-246a9.2 9.2 0 1 1 0-18.3 9.2 9.2 0 0 1 0 18.3" fill="#005bbbC4"/><path d="M-126.2-89.9a9.2 9.2 0 1 1 0-18.3 9.2 9.2 0 0 1 0 18.3" fill="#fff500C4"/><path d="M13.4-371.6a9.2 9.2 0 1 1 0-18.4 9.2 9.2 0 0 1 0 18.4" fill="#fffC5"/><path d="M313.4-251.2a9.2 9.2 0 1 1 0-18.3 9.2 9.2 0 0 1 0 18.3" fill="#fff500C5"/><path d="M144.6 77a9.2 9.2 0 1 1 0-18.5 9.2 9.2 0 0 1 0 18.5" fill="#fffC5"/><path d="M226.2 44.4a9.2 9.2 0 1 1 0-18.5 9.2 9.2 0 0 1 0 18.5" fill="#fffC5"/><path d="M-81.2-4.6a9.2 9.2 0 1 1 0-18.5 9.2 9.2 0 0 1 0 18.5" fill="#c2e1ffC6"/><path d="M288.4-292.7a9.2 9.2 0 1 1 0-18.5 9.2 9.2 0 0 1 0 18.5" fill="#c2e1ffC6"/><path d="M333.8-149.3a9.3 9.3 0 1 1 0-18.6 9.3 9.3 0 0 1 0 18.6" fill="#fff500C7"/><path d="M333.7-150.6a9.3 9.3 0 1 1 0-18.6 9.3 9.3 0 0 1 0 18.6" fill="#fff500C7"/><path d="M-24.2-350.9a9.3 9.3 0 1 1 0-18.7 9.3 9.3 0 0 1 0 18.7" fill="#fffC7"/><path d="M122.6-385.3a9.3 9.3 0 1 1 0-18.7 9.3 9.3 0 0 1 0 18.7" fill="#fff500C8"/><path d="M306.2-259.9a9.4 9.4 0 1 1 0-18.8 9.4 9.4 0 0 1 0 18.8" fill="#fff500C9"/><path d="M279.3-293a9.7 9.7 0 1 1 0-19.3 9.7 9.7 0 0 1 0 19.3" fill="#c2e1ffCF"/><path d="M5.8 53.8a9.7 9.7 0 1 1 0-19.4 9.7 9.7 0 0 1 0 19.4" fill="#fff500CF"/><path d="M121.5-377.9a9.7 9.7 0 1 1 0-19.4 9.7 9.7 0 0 1 0 19.4" fill="#fff500D0"/><path d="M-120.5-103.5a9.7 9.7 0 1 1 0-19.5 9.7 9.7 0 0 1 0 19.5" fill="#fffD1"/><path d="M154.4-370.6a9.8 9.8 0 1 1 0-19.5 9.8 9.8 0 0 1 0 19.5" fill="#fff500D2"/><path d="M9.5-357.7a9.8 9.8 0 1 1 0-19.6 9.8 9.8 0 0 1 0 19.6" fill="#c2e1ffD2"/><path d="M207.8-349.1a9.8 9.8 0 1 1 0-19.6 9.8 9.8 0 0 1 0 19.6" fill="#fff500D2"/><path d="M79.5 69.9a9.8 9.8 0 1 1 0-19.6 9.8 9.8 0 0 1 0 19.6" fill="#fff500D3"/><path d="M9.1 51.4a9.8 9.8 0 1 1 0-19.6 9.8 9.8 0 0 1 0 19.6" fill="#005bbbD3"/><path d="M-121.5-125.2a9.8 9.8 0 1 1 0-19.7 9.8 9.8 0 0 1 0 19.7" fill="#005bbbD3"/><path d="M319.6-113.2a9.8 9.8 0 1 1 0-19.7 9.8 9.8 0 0 1 0 19.7" fill="#fff500D3"/><path d="M-39 21.3a9.8 9.8 0 1 1 0-19.7 9.8 9.8 0 0 1 0 19.7" fill="#c2e1ffD3"/><path d="M-14.2-341a9.9 9.9 0 1 1 0-19.9 9.9 9.9 0 0 1 0 19.9" fill="#fffD5"/><path d="M-19.2-337.2a9.9 9.9 0 1 1 0-19.9 9.9 9.9 0 0 1 0 19.9" fill="#fff500D5"/><path d="M229.9 22.9a10 10 0 1 1 0-20 10 10 0 0 1 0 20" fill="#fffD6"/><path d="M92.3-370.6a10 10 0 1 1 0-19.9 10 10 0 0 1 0 19.9" fill="#005bbbD6"/><path d="M-87.8-44.2a10 10 0 1 1 0-20.1 10 10 0 0 1 0 20.1" fill="#fffD7"/><path d="M22.8 50a10 10 0 1 1 0-20 10 10 0 0 1 0 20" fill="#fffD7"/><path d="M-115.1-143.9a10.1 10.1 0 1 1 0-20.2 10.1 10.1 0 0 1 0 20.2" fill="#005bbbD8"/><path d="M126.1-366a10.1 10.1 0 1 1 0-20.1 10.1 10.1 0 0 1 0 20.1" fill="#c2e1ffD8"/><path d="M-33.5 14.4a10.1 10.1 0 1 1 0-20.2 10.1 10.1 0 0 1 0 20.2" fill="#c2e1ffD9"/><path d="M310.5-188a10.1 10.1 0 1 1 0-20.2 10.1 10.1 0 0 1 0 20.2" fill="#fff500D9"/><path d="M59.5 55.6a10.2 10.2 0 1 1 0-20.3 10.2 10.2 0 0 1 0 20.3" fill="#005bbbDA"/><path d="M309.5-175.1a10.2 10.2 0 1 1 0-20.4 10.2 10.2 0 0 1 0 20.4" fill="#fffDB"/><path d="M305.7-115.9a10.2 10.2 0 1 1 0-20.4 10.2 10.2 0 0 1 0 20.4" fill="#c2e1ffDC"/><path d="M197.5-336.9a10.2 10.2 0 1 1 0-20.5 10.2 10.2 0 0 1 0 20.5" fill="#005bbbDC"/><path d="M8.6 30.6a10.3 10.3 0 1 1 0-20.6 10.3 10.3 0 0 1 0 20.6" fill="#c2e1ffDE"/><path d="M141.8 47.7a10.3 10.3 0 1 1 0-20.6 10.3 10.3 0 0 1 0 20.6" fill="#fff500DE"/><path d="M-21-315.9a10.4 10.4 0 1 1 0-20.7 10.4 10.4 0 0 1 0 20.7" fill="#005bbbDE"/><path d="M280.4-59.4a10.4 10.4 0 1 1 0-20.8 10.4 10.4 0 0 1 0 20.8" fill="#005bbbDF"/><path d="M299.6-187.1a10.4 10.4 0 1 1 0-20.7 10.4 10.4 0 0 1 0 20.7" fill="#005bbbDF"/><path d="M230 3.2a10.4 10.4 0 1 1 0-20.8 10.4 10.4 0 0 1 0 20.8" fill="#fff500DF"/><path d="M252.4-285.2a10.4 10.4 0 1 1 0-20.8 10.4 10.4 0 0 1 0 20.8" fill="#005bbbDF"/><path d="M215.2-315.2a10.4 10.4 0 1 1 0-20.9 10.4 10.4 0 0 1 0 20.9" fill="#fff500E0"/><path d="M184.3 24.9a10.5 10.5 0 1 1 0-21 10.5 10.5 0 0 1 0 21" fill="#c2e1ffE2"/><path d="M-46.5-23a10.5 10.5 0 1 1 0-21 10.5 10.5 0 0 1 0 21" fill="#fff500E2"/><path d="M87.8 40.4a10.6 10.6 0 1 1 0-21.1 10.6 10.6 0 0 1 0 21.1" fill="#fff500E3"/><path d="M259.6-44.4a10.6 10.6 0 1 1 0-21.1 10.6 10.6 0 0 1 0 21.1" fill="#c2e1ffE3"/><path d="M278.6-215.9a10.6 10.6 0 1 1 0-21.2 10.6 10.6 0 0 1 0 21.2" fill="#c2e1ffE4"/><path d="M-54.8-58.6a10.8 10.8 0 1 1 0-21.5 10.8 10.8 0 0 1 0 21.5" fill="#c2e1ffE7"/><path d="M59-327.2a10.8 10.8 0 1 1 0-21.6 10.8 10.8 0 0 1 0 21.6" fill="#fffE8"/><path d="M-73.5-193.6a10.8 10.8 0 1 1 0-21.6 10.8 10.8 0 0 1 0 21.6" fill="#c2e1ffE8"/><path d="M78 23.9a10.8 10.8 0 1 1 0-21.6 10.8 10.8 0 0 1 0 21.6" fill="#fff500E9"/><path d="M273.6-118.7a10.8 10.8 0 1 1 0-21.6 10.8 10.8 0 0 1 0 21.6" fill="#005bbbE9"/><path d="M218.3-280.2a10.8 10.8 0 1 1 0-21.7 10.8 10.8 0 0 1 0 21.7" fill="#fff500E9"/><path d="M88.4-323.2a10.9 10.9 0 1 1 0-21.8 10.9 10.9 0 0 1 0 21.8" fill="#fff500EA"/><path d="M-50.3-229.2a10.9 10.9 0 1 1 0-21.9 10.9 10.9 0 0 1 0 21.9" fill="#fffEB"/><path d="M186.8-9.6a11 11 0 1 1 0-21.9 11 11 0 0 1 0 21.9" fill="#005bbbEC"/><path d="M238-235.6a11 11 0 1 1 0-22 11 11 0 0 1 0 22" fill="#005bbbED"/><path d="M-40.9-225.9a11 11 0 1 1 0-22.1 11 11 0 0 1 0 22.1" fill="#fff500ED"/><path d="M237.5-79.4a11.1 11.1 0 1 1 0-22.1 11.1 11.1 0 0 1 0 22.1" fill="#fffEE"/><path d="M201.7-262.1a11.1 11.1 0 1 1 0-22.3 11.1 11.1 0 0 1 0 22.3" fill="#fffF0"/><path d="M-43.1-105.7a11.1 11.1 0 1 1 0-22.2 11.1 11.1 0 0 1 0 22.2" fill="#c2e1ffF0"/><path d="M6-34.7a11.1 11.1 0 1 1 0-22.3 11.1 11.1 0 0 1 0 22.3" fill="#fffF0"/><path d="M190.6-35.3a11.2 11.2 0 1 1 0-22.3 11.2 11.2 0 0 1 0 22.3" fill="#005bbbF0"/><path d="M231.5-196.8a11.2 11.2 0 1 1 0-22.5 11.2 11.2 0 0 1 0 22.5" fill="#005bbbF2"/><path d="M-10.7-81.5a11.3 11.3 0 1 1 0-22.6 11.3 11.3 0 0 1 0 22.6" fill="#fff500F4"/><path d="M153.1-33.8a11.3 11.3 0 1 1 0-22.7 11.3 11.3 0 0 1 0 22.7" fill="#fff500F4"/><path d="M17.9-247.4a11.4 11.4 0 1 1 0-22.7 11.4 11.4 0 0 1 0 22.7" fill="#c2e1ffF4"/><path d="M44.2-41.2a11.4 11.4 0 1 1 0-22.8 11.4 11.4 0 0 1 0 22.8" fill="#005bbbF5"/><path d="M87.6-37.3a11.4 11.4 0 1 1 0-22.9 11.4 11.4 0 0 1 0 22.9" fill="#fffF6"/><path d="M-10.4-125.2a11.5 11.5 0 1 1 0-22.9 11.5 11.5 0 0 1 0 22.9" fill="#005bbbF7"/><path d="M17.7-73.1a11.5 11.5 0 1 1 0-23 11.5 11.5 0 0 1 0 23" fill="#c2e1ffF7"/><path d="M151.2-51.1a11.5 11.5 0 1 1 0-22.9 11.5 11.5 0 0 1 0 22.9" fill="#005bbbF7"/><path d="M186.5-208.9a11.5 11.5 0 1 1 0-23 11.5 11.5 0 0 1 0 23" fill="#005bbbF8"/><path d="M8.7-183.4a11.6 11.6 0 1 1 0-23.1 11.6 11.6 0 0 1 0 23.1" fill="#005bbbF9"/><path d="M171-206.2a11.6 11.6 0 1 1 0-23.2 11.6 11.6 0 0 1 0 23.2" fill="#005bbbFA"/><path d="M185-138.5a11.6 11.6 0 1 1 0-23.2 11.6 11.6 0 0 1 0 23.2" fill="#fff500FA"/><path d="M103.5-230.9a11.6 11.6 0 1 1 0-23.3 11.6 11.6 0 0 1 0 23.3" fill="#005bbbFB"/><path d="M71.3-82.5a11.7 11.7 0 1 1 0-23.3 11.7 11.7 0 0 1 0 23.3" fill="#fff500FB"/><path d="M132.7-84.5a11.7 11.7 0 1 1 0-23.3 11.7 11.7 0 0 1 0 23.3" fill="#005bbbFB"/><path d="M165.3-120.9a11.7 11.7 0 1 1 0-23.4 11.7 11.7 0 0 1 0 23.4" fill="#c2e1ffFB"/><path d="M136.2-105.6a11.7 11.7 0 1 1 0-23.5 11.7 11.7 0 0 1 0 23.5" fill="#005bbbFD"/><path d="M107.2-149.7a11.8 11.8 0 1 1 0-23.6 11.8 11.8 0 0 1 0 23.6" fill="#c2e1ffFE"/><path d="M93.9-153.6a11.8 11.8 0 1 1 0-23.6 11.8 11.8 0 0 1 0 23.6" fill="#fffFE"/></g></svg>