<svg width="1200" height="675" viewBox="-500 -500 1200 675" xmlns="http://www.w3.org/2000/svg"><path d="M-500-500h1200v675h-1200z" fill="#000"/><style>.sparkles path{stroke-linecap:round; stroke-width:1}</style><g class="sparkles"><path d="M100-162.5l3.5 34.9" stroke="#fff32"/><path d="M100-162.5l47.8-32" stroke="#fff50033"/><path d="M100-162.5l5.1 62.3" stroke="#fff50033"/><path d="M100-162.5l62.5 48.3" stroke="#fff50034"/><path d="M100-162.5l-35.9 71.7" stroke="#c2e1ff34"/><path d="M100-162.5l87.6-22.1" stroke="#fff50035"/><path d="M100-162.5l-56.7-79.5" stroke="#005bbb36"/><path d="M100-162.5l29.7-96.1" stroke="#fff50036"/><path d="M100-162.5l-100.4-37.8" stroke="#fff50037"/><path d="M100-162.5l-107-41.4" stroke="#fff50038"/><path d="M100-162.5l-40.6-108.3" stroke="#005bbb38"/><path d="M100-162.5l-127.4-10.8" stroke="#fff39"/><path d="M100-162.5l-56.3 121.1" stroke="#c2e1ff3A"/><path d="M100-162.5l98.8-91.3" stroke="#005bbb3A"/><path d="M100-162.5l-107.1 96.6" stroke="#005bbb3C"/><path d="M100-162.5l89.4-113.8" stroke="#c2e1ff3C"/><path d="M100-162.5l134.5-62.6" stroke="#c2e1ff3D"/><path d="M100-162.5l37 147.7" stroke="#fff3D"/><path d="M100-162.5l-128.3 87" stroke="#005bbb3E"/><path d="M100-162.5l161.8 0" stroke="#fff5003F"/><path d="M100-162.5l161.1-21.6" stroke="#fff5003F"/><path d="M100-162.5l151.9 71.3" stroke="#005bbb40"/><path d="M100-162.5l75.2 160.6" stroke="#c2e1ff42"/><path d="M100-162.5l-73.5-165.1" stroke="#c2e1ff43"/><path d="M100-162.5l74.1-167" stroke="#005bbb44"/><path d="M100-162.5l182.2-16.4" stroke="#c2e1ff44"/><path d="M100-162.5l-172.2 80.9" stroke="#fff46"/><path d="M100-162.5l180.6-63.5" stroke="#005bbb46"/><path d="M100-162.5l191.6-22.2" stroke="#fff50047"/><path d="M100-162.5l191.1-27.7" stroke="#005bbb47"/><path d="M100-162.5l-185.3-65.2" stroke="#fff48"/><path d="M100-162.5l167.2 103.7" stroke="#fff50048"/><path d="M100-162.5l-192.3-41.8" stroke="#fff50048"/><path d="M100-162.5l188.4-67" stroke="#005bbb49"/><path d="M100-162.5l117.6-162" stroke="#005bbb49"/><path d="M100-162.5l177 95.4" stroke="#fff50049"/><path d="M100-162.5l-105.7-172.1" stroke="#fff5004A"/><path d="M100-162.5l195.7-51.6" stroke="#005bbb4A"/><path d="M100-162.5l-149.7 137.6" stroke="#c2e1ff4A"/><path d="M100-162.5l-190.9 72.7" stroke="#005bbb4A"/><path d="M100-162.5l-98.8-179.6" stroke="#c2e1ff4B"/><path d="M100-162.5l-166.5-120.7" stroke="#005bbb4B"/><path d="M100-162.5l-174.9 109" stroke="#005bbb4B"/><path d="M100-162.5l-83.5-191.3" stroke="#fff5004C"/><path d="M100-162.5l-172.9 119.9" stroke="#005bbb4D"/><path d="M100-162.5l-103.4 184.8" stroke="#fff5004D"/><path d="M100-162.5l207.4-48.6" stroke="#fff5004E"/><path d="M100-162.5l-211.6-28.2" stroke="#fff4E"/><path d="M100-162.5l-131 173.6" stroke="#005bbb50"/><path d="M100-162.5l211.3 53.9" stroke="#005bbb50"/><path d="M100-162.5l-17.6-218" stroke="#005bbb51"/><path d="M100-162.5l140.4 168.4" stroke="#c2e1ff51"/><path d="M100-162.5l-62.3-211.3" stroke="#fff51"/><path d="M100-162.5l42.1-216.5" stroke="#c2e1ff52"/><path d="M100-162.5l-194.2 107.3" stroke="#005bbb52"/><path d="M100-162.5l210-71.8" stroke="#fff50052"/><path d="M100-162.5l-60.1-214.9" stroke="#c2e1ff53"/><path d="M100-162.5l224.6-19.7" stroke="#005bbb55"/><path d="M100-162.5l194.6-114.3" stroke="#005bbb55"/><path d="M100-162.5l-32.1 224.7" stroke="#c2e1ff56"/><path d="M100-162.5l125.4 189.7" stroke="#fff50056"/><path d="M100-162.5l227.1 17.8" stroke="#fff50056"/><path d="M100-162.5l-171.8-150.3" stroke="#005bbb57"/><path d="M100-162.5l-157-167.9" stroke="#fff50058"/><path d="M100-162.5l-201.9 111.5" stroke="#fff50059"/><path d="M100-162.5l-230.4-14.5" stroke="#c2e1ff59"/><path d="M100-162.5l-163.6-164" stroke="#005bbb5A"/><path d="M100-162.5l-110.9-203.4" stroke="#fff5005A"/><path d="M100-162.5l-189.8 134.2" stroke="#fff5005B"/><path d="M100-162.5l-11-232.3" stroke="#fff5B"/><path d="M100-162.5l163.8 165.5" stroke="#fff5005B"/><path d="M100-162.5l63.9-224.1" stroke="#005bbb5B"/><path d="M100-162.5l-107.3 207.5" stroke="#005bbb5C"/><path d="M100-162.5l19.8 232.9" stroke="#fff5C"/><path d="M100-162.5l206.9 109.6" stroke="#fff5005D"/><path d="M100-162.5l-45.9 230.4" stroke="#005bbb5E"/><path d="M100-162.5l-235 11.3" stroke="#c2e1ff5F"/><path d="M100-162.5l-227.4 60.4" stroke="#fff5005F"/><path d="M100-162.5l117.1-204.2" stroke="#005bbb5F"/><path d="M100-162.5l231.5 43.4" stroke="#fff50060"/><path d="M100-162.5l-223.4 74.8" stroke="#fff60"/><path d="M100-162.5l230.7 48" stroke="#fff60"/><path d="M100-162.5l-166.7-166.7" stroke="#c2e1ff60"/><path d="M100-162.5l-164.2-169.3" stroke="#fff50061"/><path d="M100-162.5l-222.2 79.2" stroke="#fff50061"/><path d="M100-162.5l-230.2 52.6" stroke="#fff62"/><path d="M100-162.5l-214.9-97.9" stroke="#fff50062"/><path d="M100-162.5l233.1-38.4" stroke="#fff50063"/><path d="M100-162.5l113.2 207.4" stroke="#fff50064"/><path d="M100-162.5l-32.8-234" stroke="#fff64"/><path d="M100-162.5l219.8 86.3" stroke="#fff65"/><path d="M100-162.5l176.6 156.5" stroke="#fff66"/><path d="M100-162.5l-210.1 107.2" stroke="#005bbb67"/><path d="M100-162.5l-18.8-234.7" stroke="#fff50068"/><path d="M100-162.5l-18.2 234.6" stroke="#c2e1ff68"/><path d="M100-162.5l219.3-84.4" stroke="#fff50069"/><path d="M100-162.5l67.9-223.8" stroke="#005bbb6B"/><path d="M100-162.5l70.3 221.5" stroke="#c2e1ff6D"/><path d="M100-162.5l38.1 229" stroke="#fff6D"/><path d="M100-162.5l228.5 40.2" stroke="#c2e1ff6D"/><path d="M100-162.5l-99.8-207.7" stroke="#fff6F"/><path d="M100-162.5l204.6 104.1" stroke="#fff6F"/><path d="M100-162.5l-226.4-10.9" stroke="#fff72"/><path d="M100-162.5l106.9-199" stroke="#fff50072"/><path d="M100-162.5l-208.3 85.5" stroke="#c2e1ff73"/><path d="M100-162.5l-46.8-219.9" stroke="#c2e1ff73"/><path d="M100-162.5l194-113.1" stroke="#005bbb73"/><path d="M100-162.5l-203.5 93.7" stroke="#fff50073"/><path d="M100-162.5l184.3-127.2" stroke="#c2e1ff73"/><path d="M100-162.5l54.8 216.8" stroke="#c2e1ff74"/><path d="M100-162.5l220.6-34.5" stroke="#005bbb74"/><path d="M100-162.5l-218.9 43.3" stroke="#fff74"/><path d="M100-162.5l180.3-131.4" stroke="#fff50074"/><path d="M100-162.5l67.9 211.1" stroke="#005bbb75"/><path d="M100-162.5l190.1-110.5" stroke="#c2e1ff76"/><path d="M100-162.5l147.7-162.2" stroke="#fff76"/><path d="M100-162.5l128 177.9" stroke="#c2e1ff76"/><path d="M100-162.5l71.5 207.1" stroke="#005bbb76"/><path d="M100-162.5l155.4 154.3" stroke="#005bbb76"/><path d="M100-162.5l216.9-23.3" stroke="#c2e1ff77"/><path d="M100-162.5l-92.3 193.5" stroke="#c2e1ff79"/><path d="M100-162.5l8.1 213.3" stroke="#fff50079"/><path d="M100-162.5l-137.4 163.4" stroke="#c2e1ff79"/><path d="M100-162.5l196.8 78.9" stroke="#c2e1ff7A"/><path d="M100-162.5l-1.8-210.8" stroke="#fff5007A"/><path d="M100-162.5l-180.7 105.6" stroke="#fff7B"/><path d="M100-162.5l97.4-184.6" stroke="#fff7B"/><path d="M100-162.5l-20-205.6" stroke="#fff7C"/><path d="M100-162.5l-40.9-201.6" stroke="#fff7C"/><path d="M100-162.5l83.6-187.3" stroke="#005bbb7C"/><path d="M100-162.5l200.7 24.3" stroke="#c2e1ff7D"/><path d="M100-162.5l114.6 166.3" stroke="#fff7D"/><path d="M100-162.5l-94.8-176.7" stroke="#c2e1ff7E"/><path d="M100-162.5l-42.9-194.7" stroke="#c2e1ff7E"/><path d="M100-162.5l-109.4-163.5" stroke="#005bbb7F"/><path d="M100-162.5l153.9-119.6" stroke="#c2e1ff80"/><path d="M100-162.5l-192.8-17.6" stroke="#005bbb80"/><path d="M100-162.5l-191 29.6" stroke="#fff50080"/><path d="M100-162.5l-83.1-174.4" stroke="#005bbb80"/><path d="M100-162.5l-115.9 153.8" stroke="#fff80"/><path d="M100-162.5l16.2-191" stroke="#fff50081"/><path d="M100-162.5l170 88" stroke="#005bbb81"/><path d="M100-162.5l-12.8 190.7" stroke="#005bbb81"/><path d="M100-162.5l57.9 178.9" stroke="#fff50082"/><path d="M100-162.5l-92.2-163.3" stroke="#fff50082"/><path d="M100-162.5l167.1-71.9" stroke="#c2e1ff83"/><path d="M100-162.5l17.7-178.6" stroke="#fff50084"/><path d="M100-162.5l-156.8-85.1" stroke="#c2e1ff84"/><path d="M100-162.5l-138.9 111.3" stroke="#c2e1ff84"/><path d="M100-162.5l-150.7 92.9" stroke="#fff85"/><path d="M100-162.5l117.4 129.4" stroke="#c2e1ff85"/><path d="M100-162.5l-31.4-170.2" stroke="#005bbb86"/><path d="M100-162.5l-112.2 123.4" stroke="#c2e1ff87"/><path d="M100-162.5l-117.3 116.7" stroke="#fff50087"/><path d="M100-162.5l134.3-96" stroke="#fff87"/><path d="M100-162.5l164.7-0.4" stroke="#005bbb87"/><path d="M100-162.5l-145.2-62.9" stroke="#fff89"/><path d="M100-162.5l50.7 145.6" stroke="#005bbb89"/><path d="M100-162.5l-29 149.9" stroke="#fff5008A"/><path d="M100-162.5l-144.7-44.1" stroke="#fff5008A"/><path d="M100-162.5l-119.1-91.1" stroke="#c2e1ff8A"/><path d="M100-162.5l88.6 119.6" stroke="#fff8A"/><path d="M100-162.5l-116.8 92.3" stroke="#fff8A"/><path d="M100-162.5l-74.8 124.1" stroke="#fff8B"/><path d="M100-162.5l-78.8-121" stroke="#fff5008B"/><path d="M100-162.5l-11.1 143.7" stroke="#fff8B"/><path d="M100-162.5l129.5-47.6" stroke="#fff5008C"/><path d="M100-162.5l-81.1-103.2" stroke="#fff5008D"/><path d="M100-162.5l3.5 130.9" stroke="#fff8D"/><path d="M100-162.5l36.4-121.3" stroke="#c2e1ff8E"/><path d="M100-162.5l-28-121.7" stroke="#fff5008E"/><path d="M100-162.5l46.5 113.9" stroke="#c2e1ff8E"/><path d="M100-162.5l107.7 46.7" stroke="#005bbb8F"/><path d="M100-162.5l89.2-72.7" stroke="#c2e1ff8F"/><path d="M100-162.5l65.2-92.4" stroke="#c2e1ff8F"/><path d="M100-162.5l-89 57.6" stroke="#005bbb90"/><path d="M100-162.5l-85.6-29.3" stroke="#fff50092"/><path d="M100-162.5l5.9 83.5" stroke="#fff50092"/><path d="M100-162.5l-66.6 45.3" stroke="#fff93"/><path d="M100-162.5l37.2 41.2" stroke="#fff94"/><path d="M100-162.5l44.2 6.1" stroke="#fff95"/></g><g class="sparcs"><path d="M103.5-121.6a5.9 5.9 0 1 1 0-11.9 5.9 5.9 0 0 1 0 11.9" fill="#fff5007D"/><path d="M147.8-188.5a6 6 0 1 1 0-12 6 6 0 0 1 0 12" fill="#fff7E"/><path d="M105.1-94.1a6 6 0 1 1 0-12.1 6 6 0 0 1 0 12.1" fill="#fff5007F"/><path d="M162.5-108.1a6.1 6.1 0 1 1 0-12.2 6.1 6.1 0 0 1 0 12.2" fill="#c2e1ff80"/><path d="M64.1-84.7a6.1 6.1 0 1 1 0-12.1 6.1 6.1 0 0 1 0 12.1" fill="#fff50080"/><path d="M187.6-178.5a6.1 6.1 0 1 1 0-12.2 6.1 6.1 0 0 1 0 12.2" fill="#fff81"/><path d="M43.3-235.8a6.2 6.2 0 1 1 0-12.4 6.2 6.2 0 0 1 0 12.4" fill="#fff82"/><path d="M129.7-252.4a6.2 6.2 0 1 1 0-12.4 6.2 6.2 0 0 1 0 12.4" fill="#005bbb83"/><path d="M-0.4-194.1a6.2 6.2 0 1 1 0-12.4 6.2 6.2 0 0 1 0 12.4" fill="#fff84"/><path d="M-7-197.6a6.3 6.3 0 1 1 0-12.6 6.3 6.3 0 0 1 0 12.6" fill="#c2e1ff85"/><path d="M59.4-264.5a6.3 6.3 0 1 1 0-12.6 6.3 6.3 0 0 1 0 12.6" fill="#c2e1ff85"/><path d="M-27.4-166.9a6.4 6.4 0 1 1 0-12.8 6.4 6.4 0 0 1 0 12.8" fill="#fff87"/><path d="M43.7-35a6.4 6.4 0 1 1 0-12.8 6.4 6.4 0 0 1 0 12.8" fill="#c2e1ff88"/><path d="M198.8-247.4a6.4 6.4 0 1 1 0-12.8 6.4 6.4 0 0 1 0 12.8" fill="#005bbb88"/><path d="M-7.1-59.4a6.5 6.5 0 1 1 0-13 6.5 6.5 0 0 1 0 13" fill="#fff5008A"/><path d="M189.4-269.8a6.5 6.5 0 1 1 0-13 6.5 6.5 0 0 1 0 13" fill="#005bbb8A"/><path d="M234.5-218.5a6.6 6.6 0 1 1 0-13.1 6.6 6.6 0 0 1 0 13.1" fill="#fff5008B"/><path d="M137-8.2a6.6 6.6 0 1 1 0-13.2 6.6 6.6 0 0 1 0 13.2" fill="#c2e1ff8C"/><path d="M-28.3-68.9a6.6 6.6 0 1 1 0-13.3 6.6 6.6 0 0 1 0 13.3" fill="#005bbb8C"/><path d="M261.8-155.8a6.7 6.7 0 1 1 0-13.4 6.7 6.7 0 0 1 0 13.4" fill="#005bbb8E"/><path d="M261.1-177.4a6.7 6.7 0 1 1 0-13.4 6.7 6.7 0 0 1 0 13.4" fill="#fff8E"/><path d="M251.9-84.4a6.8 6.8 0 1 1 0-13.6 6.8 6.8 0 0 1 0 13.6" fill="#fff50090"/><path d="M175.2 5a6.9 6.9 0 1 1 0-13.8 6.9 6.9 0 0 1 0 13.8" fill="#005bbb93"/><path d="M26.5-320.6a7 7 0 1 1 0-13.9 7 7 0 0 1 0 13.9" fill="#fff94"/><path d="M174.1-322.5a7 7 0 1 1 0-14 7 7 0 0 1 0 14" fill="#c2e1ff94"/><path d="M282.2-171.9a7 7 0 1 1 0-13.9 7 7 0 0 1 0 13.9" fill="#fff94"/><path d="M-72.2-74.5a7.1 7.1 0 1 1 0-14.2 7.1 7.1 0 0 1 0 14.2" fill="#005bbb97"/><path d="M280.6-218.9a7.1 7.1 0 1 1 0-14.3 7.1 7.1 0 0 1 0 14.3" fill="#005bbb97"/><path d="M291.6-177.6a7.2 7.2 0 1 1 0-14.3 7.2 7.2 0 0 1 0 14.3" fill="#c2e1ff98"/><path d="M291.1-183.1a7.2 7.2 0 1 1 0-14.3 7.2 7.2 0 0 1 0 14.3" fill="#005bbb98"/><path d="M-85.3-220.5a7.2 7.2 0 1 1 0-14.4 7.2 7.2 0 0 1 0 14.4" fill="#fff99"/><path d="M267.2-51.5a7.2 7.2 0 1 1 0-14.5 7.2 7.2 0 0 1 0 14.5" fill="#c2e1ff9A"/><path d="M-92.3-197.1a7.2 7.2 0 1 1 0-14.5 7.2 7.2 0 0 1 0 14.5" fill="#c2e1ff9A"/><path d="M288.4-222.2a7.3 7.3 0 1 1 0-14.6 7.3 7.3 0 0 1 0 14.6" fill="#fff5009B"/><path d="M217.6-317.2a7.3 7.3 0 1 1 0-14.6 7.3 7.3 0 0 1 0 14.6" fill="#005bbb9B"/><path d="M277-59.8a7.3 7.3 0 1 1 0-14.6 7.3 7.3 0 0 1 0 14.6" fill="#005bbb9B"/><path d="M-5.7-327.3a7.3 7.3 0 1 1 0-14.6 7.3 7.3 0 0 1 0 14.6" fill="#005bbb9C"/><path d="M295.7-206.8a7.3 7.3 0 1 1 0-14.7 7.3 7.3 0 0 1 0 14.7" fill="#fff5009C"/><path d="M-49.7-17.5a7.4 7.4 0 1 1 0-14.7 7.4 7.4 0 0 1 0 14.7" fill="#fff9C"/><path d="M-90.9-82.4a7.4 7.4 0 1 1 0-14.8 7.4 7.4 0 0 1 0 14.8" fill="#fff5009D"/><path d="M1.2-334.7a7.4 7.4 0 1 1 0-14.8 7.4 7.4 0 0 1 0 14.8" fill="#005bbb9D"/><path d="M-66.5-275.8a7.4 7.4 0 1 1 0-14.8 7.4 7.4 0 0 1 0 14.8" fill="#fff5009E"/><path d="M-74.9-46.1a7.4 7.4 0 1 1 0-14.9 7.4 7.4 0 0 1 0 14.9" fill="#fff5009E"/><path d="M16.5-346.3a7.5 7.5 0 1 1 0-15 7.5 7.5 0 0 1 0 15" fill="#005bbb9F"/><path d="M-72.9-35a7.5 7.5 0 1 1 0-15.1 7.5 7.5 0 0 1 0 15.1" fill="#fff500A0"/><path d="M-3.4 29.8a7.5 7.5 0 1 1 0-15.1 7.5 7.5 0 0 1 0 15.1" fill="#fffA1"/><path d="M307.4-203.5a7.6 7.6 0 1 1 0-15.2 7.6 7.6 0 0 1 0 15.2" fill="#fffA1"/><path d="M-111.6-183.2a7.6 7.6 0 1 1 0-15.1 7.6 7.6 0 0 1 0 15.1" fill="#005bbbA2"/><path d="M-31 18.8a7.7 7.7 0 1 1 0-15.4 7.7 7.7 0 0 1 0 15.4" fill="#fff500A4"/><path d="M311.3-100.9a7.7 7.7 0 1 1 0-15.5 7.7 7.7 0 0 1 0 15.5" fill="#fffA5"/><path d="M82.4-372.7a7.7 7.7 0 1 1 0-15.5 7.7 7.7 0 0 1 0 15.5" fill="#005bbbA5"/><path d="M240.4 13.7a7.8 7.8 0 1 1 0-15.5 7.8 7.8 0 0 1 0 15.5" fill="#c2e1ffA5"/><path d="M37.7-366a7.8 7.8 0 1 1 0-15.6 7.8 7.8 0 0 1 0 15.6" fill="#005bbbA6"/><path d="M142.1-371.2a7.8 7.8 0 1 1 0-15.6 7.8 7.8 0 0 1 0 15.6" fill="#fff500A6"/><path d="M-94.2-47.3a7.8 7.8 0 1 1 0-15.7 7.8 7.8 0 0 1 0 15.7" fill="#005bbbA7"/><path d="M310-226.5a7.8 7.8 0 1 1 0-15.7 7.8 7.8 0 0 1 0 15.7" fill="#fffA7"/><path d="M39.9-369.5a7.9 7.9 0 1 1 0-15.8 7.9 7.9 0 0 1 0 15.8" fill="#fffA8"/><path d="M324.6-174.2a8 8 0 1 1 0-16 8 8 0 0 1 0 16" fill="#005bbbAA"/><path d="M294.6-268.8a8 8 0 1 1 0-15.9 8 8 0 0 1 0 15.9" fill="#fffAA"/><path d="M67.9 70.3a8 8 0 1 1 0-16.1 8 8 0 0 1 0 16.1" fill="#c2e1ffAC"/><path d="M225.4 35.3a8.1 8.1 0 1 1 0-16.1 8.1 8.1 0 0 1 0 16.1" fill="#c2e1ffAC"/><path d="M327.1-136.6a8.1 8.1 0 1 1 0-16.2 8.1 8.1 0 0 1 0 16.2" fill="#c2e1ffAC"/><path d="M-71.8-304.7a8.1 8.1 0 1 1 0-16.2 8.1 8.1 0 0 1 0 16.2" fill="#005bbbAD"/><path d="M-57-322.2a8.2 8.2 0 1 1 0-16.4 8.2 8.2 0 0 1 0 16.4" fill="#005bbbAE"/><path d="M-101.9-42.8a8.2 8.2 0 1 1 0-16.4 8.2 8.2 0 0 1 0 16.4" fill="#c2e1ffAF"/><path d="M-130.4-168.8a8.2 8.2 0 1 1 0-16.4 8.2 8.2 0 0 1 0 16.4" fill="#c2e1ffB0"/><path d="M-63.6-318.2a8.3 8.3 0 1 1 0-16.6 8.3 8.3 0 0 1 0 16.6" fill="#c2e1ffB1"/><path d="M-10.9-357.6a8.3 8.3 0 1 1 0-16.6 8.3 8.3 0 0 1 0 16.6" fill="#005bbbB1"/><path d="M-89.8-20a8.3 8.3 0 1 1 0-16.6 8.3 8.3 0 0 1 0 16.6" fill="#005bbbB2"/><path d="M89-386.4a8.3 8.3 0 1 1 0-16.7 8.3 8.3 0 0 1 0 16.7" fill="#fff500B2"/><path d="M263.8 11.4a8.4 8.4 0 1 1 0-16.7 8.4 8.4 0 0 1 0 16.7" fill="#c2e1ffB3"/><path d="M163.9-378.3a8.4 8.4 0 1 1 0-16.7 8.4 8.4 0 0 1 0 16.7" fill="#005bbbB3"/><path d="M-7.3 53.4a8.4 8.4 0 1 1 0-16.9 8.4 8.4 0 0 1 0 16.9" fill="#005bbbB4"/><path d="M119.8 78.8a8.4 8.4 0 1 1 0-16.9 8.4 8.4 0 0 1 0 16.9" fill="#005bbbB4"/><path d="M306.9-44.4a8.5 8.5 0 1 1 0-17 8.5 8.5 0 0 1 0 17" fill="#005bbbB5"/><path d="M54.1 76.5a8.6 8.6 0 1 1 0-17.1 8.6 8.6 0 0 1 0 17.1" fill="#fffB7"/><path d="M-135-142.7a8.6 8.6 0 1 1 0-17.1 8.6 8.6 0 0 1 0 17.1" fill="#fff500B8"/><path d="M-127.4-93.5a8.6 8.6 0 1 1 0-17.2 8.6 8.6 0 0 1 0 17.2" fill="#fffB8"/><path d="M217.1-358.1a8.6 8.6 0 1 1 0-17.3 8.6 8.6 0 0 1 0 17.3" fill="#fff500B8"/><path d="M331.5-110.4a8.6 8.6 0 1 1 0-17.3 8.6 8.6 0 0 1 0 17.3" fill="#005bbbB8"/><path d="M-123.4-79a8.6 8.6 0 1 1 0-17.3 8.6 8.6 0 0 1 0 17.3" fill="#fff500B9"/><path d="M330.7-105.9a8.7 8.7 0 1 1 0-17.3 8.7 8.7 0 0 1 0 17.3" fill="#005bbbB9"/><path d="M-66.7-320.6a8.7 8.7 0 1 1 0-17.3 8.7 8.7 0 0 1 0 17.3" fill="#c2e1ffB9"/><path d="M-64.2-323.1a8.7 8.7 0 1 1 0-17.4 8.7 8.7 0 0 1 0 17.4" fill="#c2e1ffBA"/><path d="M-122.2-74.6a8.7 8.7 0 1 1 0-17.4 8.7 8.7 0 0 1 0 17.4" fill="#005bbbBA"/><path d="M-130.2-101.1a8.8 8.8 0 1 1 0-17.5 8.8 8.8 0 0 1 0 17.5" fill="#fff500BC"/><path d="M-114.9-251.6a8.8 8.8 0 1 1 0-17.6 8.8 8.8 0 0 1 0 17.6" fill="#005bbbBC"/><path d="M333.1-192.1a8.8 8.8 0 1 1 0-17.6 8.8 8.8 0 0 1 0 17.6" fill="#fff500BD"/><path d="M213.2 53.7a8.9 8.9 0 1 1 0-17.7 8.9 8.9 0 0 1 0 17.7" fill="#005bbbBE"/><path d="M67.2-387.6a8.9 8.9 0 1 1 0-17.7 8.9 8.9 0 0 1 0 17.7" fill="#005bbbBE"/><path d="M319.8-67.3a8.9 8.9 0 1 1 0-17.9 8.9 8.9 0 0 1 0 17.9" fill="#c2e1ffBF"/><path d="M276.6 3a9 9 0 1 1 0-18 9 9 0 0 1 0 18" fill="#fffC1"/><path d="M-110.1-46.3a9 9 0 1 1 0-18.1 9 9 0 0 1 0 18.1" fill="#fffC1"/><path d="M81.2-388.1a9.1 9.1 0 1 1 0-18.2 9.1 9.1 0 0 1 0 18.2" fill="#fffC3"/><path d="M81.8 81.2a9.1 9.1 0 1 1 0-18.3 9.1 9.1 0 0 1 0 18.3" fill="#c2e1ffC3"/><path d="M319.3-237.7a9.2 9.2 0 1 1 0-18.3 9.2 9.2 0 0 1 0 18.3" fill="#fffC4"/><path d="M167.9-377a9.3 9.3 0 1 1 0-18.6 9.3 9.3 0 0 1 0 18.6" fill="#fffC7"/><path d="M170.3 68.4a9.4 9.4 0 1 1 0-18.8 9.4 9.4 0 0 1 0 18.8" fill="#fffC9"/><path d="M138.1 75.9a9.4 9.4 0 1 1 0-18.8 9.4 9.4 0 0 1 0 18.8" fill="#005bbbCA"/><path d="M328.5-112.9a9.4 9.4 0 1 1 0-18.8 9.4 9.4 0 0 1 0 18.8" fill="#c2e1ffCA"/><path d="M0.2-360.7a9.5 9.5 0 1 1 0-19 9.5 9.5 0 0 1 0 19" fill="#fff500CC"/><path d="M304.6-48.9a9.6 9.6 0 1 1 0-19.1 9.6 9.6 0 0 1 0 19.1" fill="#c2e1ffCD"/><path d="M-126.4-163.7a9.7 9.7 0 1 1 0-19.3 9.7 9.7 0 0 1 0 19.3" fill="#c2e1ffD0"/><path d="M206.9-351.7a9.7 9.7 0 1 1 0-19.5 9.7 9.7 0 0 1 0 19.5" fill="#c2e1ffD1"/><path d="M-108.3-67.3a9.8 9.8 0 1 1 0-19.5 9.8 9.8 0 0 1 0 19.5" fill="#fffD1"/><path d="M53.2-372.6a9.8 9.8 0 1 1 0-19.5 9.8 9.8 0 0 1 0 19.5" fill="#fffD1"/><path d="M294-265.8a9.8 9.8 0 1 1 0-19.5 9.8 9.8 0 0 1 0 19.5" fill="#fffD2"/><path d="M-103.5-59a9.8 9.8 0 1 1 0-19.6 9.8 9.8 0 0 1 0 19.6" fill="#fff500D2"/><path d="M284.3-279.9a9.8 9.8 0 1 1 0-19.6 9.8 9.8 0 0 1 0 19.6" fill="#fff500D2"/><path d="M154.8 64.1a9.8 9.8 0 1 1 0-19.6 9.8 9.8 0 0 1 0 19.6" fill="#fff500D2"/><path d="M320.6-187.1a9.8 9.8 0 1 1 0-19.7 9.8 9.8 0 0 1 0 19.7" fill="#005bbbD3"/><path d="M-118.9-109.4a9.8 9.8 0 1 1 0-19.6 9.8 9.8 0 0 1 0 19.6" fill="#fffD3"/><path d="M280.3-284.1a9.8 9.8 0 1 1 0-19.7 9.8 9.8 0 0 1 0 19.7" fill="#005bbbD3"/><path d="M167.9 58.5a9.9 9.9 0 1 1 0-19.8 9.9 9.9 0 0 1 0 19.8" fill="#fff500D4"/><path d="M290.1-263.1a9.9 9.9 0 1 1 0-19.9 9.9 9.9 0 0 1 0 19.9" fill="#fffD5"/><path d="M247.7-314.7a10 10 0 1 1 0-19.9 10 10 0 0 1 0 19.9" fill="#fff500D6"/><path d="M228 25.4a10 10 0 1 1 0-20 10 10 0 0 1 0 20" fill="#005bbbD6"/><path d="M171.5 54.6a10 10 0 1 1 0-19.9 10 10 0 0 1 0 19.9" fill="#fffD6"/><path d="M255.4 1.8a10 10 0 1 1 0-20 10 10 0 0 1 0 20" fill="#005bbbD6"/><path d="M316.9-175.8a10 10 0 1 1 0-20 10 10 0 0 1 0 20" fill="#fffD6"/><path d="M7.7 41.1a10.1 10.1 0 1 1 0-20.2 10.1 10.1 0 0 1 0 20.2" fill="#fffD9"/><path d="M108.1 61a10.1 10.1 0 1 1 0-20.3 10.1 10.1 0 0 1 0 20.3" fill="#c2e1ffD9"/><path d="M-37.4 11a10.1 10.1 0 1 1 0-20.3 10.1 10.1 0 0 1 0 20.3" fill="#c2e1ffD9"/><path d="M296.8-73.4a10.2 10.2 0 1 1 0-20.4 10.2 10.2 0 0 1 0 20.4" fill="#fffDA"/><path d="M98.2-363.1a10.2 10.2 0 1 1 0-20.4 10.2 10.2 0 0 1 0 20.4" fill="#fffDB"/><path d="M-80.7-46.7a10.2 10.2 0 1 1 0-20.4 10.2 10.2 0 0 1 0 20.4" fill="#fffDC"/><path d="M197.4-336.8a10.2 10.2 0 1 1 0-20.5 10.2 10.2 0 0 1 0 20.5" fill="#fff500DC"/><path d="M80-357.8a10.3 10.3 0 1 1 0-20.5 10.3 10.3 0 0 1 0 20.5" fill="#c2e1ffDD"/><path d="M59.1-353.8a10.3 10.3 0 1 1 0-20.6 10.3 10.3 0 0 1 0 20.6" fill="#005bbbDD"/><path d="M183.6-339.5a10.3 10.3 0 1 1 0-20.6 10.3 10.3 0 0 1 0 20.6" fill="#005bbbDE"/><path d="M300.7-127.8a10.4 10.4 0 1 1 0-20.8 10.4 10.4 0 0 1 0 20.8" fill="#005bbbDF"/><path d="M214.6 14.2a10.4 10.4 0 1 1 0-20.8 10.4 10.4 0 0 1 0 20.8" fill="#005bbbDF"/><path d="M5.2-328.8a10.4 10.4 0 1 1 0-20.9 10.4 10.4 0 0 1 0 20.9" fill="#005bbbE0"/><path d="M57.1-346.8a10.4 10.4 0 1 1 0-20.8 10.4 10.4 0 0 1 0 20.8" fill="#005bbbE0"/><path d="M-9.4-315.5a10.5 10.5 0 1 1 0-21 10.5 10.5 0 0 1 0 21" fill="#fffE1"/><path d="M253.9-271.5a10.5 10.5 0 1 1 0-21.1 10.5 10.5 0 0 1 0 21.1" fill="#fff500E2"/><path d="M-92.8-169.5a10.6 10.6 0 1 1 0-21.1 10.6 10.6 0 0 1 0 21.1" fill="#fff500E3"/><path d="M-91-122.3a10.6 10.6 0 1 1 0-21.2 10.6 10.6 0 0 1 0 21.2" fill="#005bbbE3"/><path d="M16.9-326.4a10.6 10.6 0 1 1 0-21.1 10.6 10.6 0 0 1 0 21.1" fill="#c2e1ffE3"/><path d="M-15.9 1.9a10.6 10.6 0 1 1 0-21.2 10.6 10.6 0 0 1 0 21.2" fill="#fff500E3"/><path d="M116.2-342.9a10.6 10.6 0 1 1 0-21.1 10.6 10.6 0 0 1 0 21.1" fill="#c2e1ffE4"/><path d="M270-63.9a10.6 10.6 0 1 1 0-21.2 10.6 10.6 0 0 1 0 21.2" fill="#fff500E4"/><path d="M87.2 38.8a10.6 10.6 0 1 1 0-21.2 10.6 10.6 0 0 1 0 21.2" fill="#fff500E4"/><path d="M157.9 27.1a10.6 10.6 0 1 1 0-21.3 10.6 10.6 0 0 1 0 21.3" fill="#fff500E5"/><path d="M7.8-315.2a10.7 10.7 0 1 1 0-21.3 10.7 10.7 0 0 1 0 21.3" fill="#fffE5"/><path d="M267.1-223.7a10.7 10.7 0 1 1 0-21.5 10.7 10.7 0 0 1 0 21.5" fill="#c2e1ffE7"/><path d="M117.7-330.3a10.8 10.8 0 1 1 0-21.6 10.8 10.8 0 0 1 0 21.6" fill="#fff500E8"/><path d="M-56.8-236.8a10.8 10.8 0 1 1 0-21.6 10.8 10.8 0 0 1 0 21.6" fill="#fffE8"/><path d="M-38.9-40.4a10.8 10.8 0 1 1 0-21.6 10.8 10.8 0 0 1 0 21.6" fill="#c2e1ffE8"/><path d="M-50.7-58.8a10.8 10.8 0 1 1 0-21.6 10.8 10.8 0 0 1 0 21.6" fill="#005bbbE9"/><path d="M217.4-22.3a10.8 10.8 0 1 1 0-21.6 10.8 10.8 0 0 1 0 21.6" fill="#c2e1ffE9"/><path d="M68.6-321.8a10.9 10.9 0 1 1 0-21.8 10.9 10.9 0 0 1 0 21.8" fill="#fffEA"/><path d="M-12.2-28.1a11 11 0 1 1 0-22 11 11 0 0 1 0 22" fill="#fff500EC"/><path d="M-17.3-34.8a11 11 0 1 1 0-22 11 11 0 0 1 0 22" fill="#005bbbEC"/><path d="M234.3-247.5a11 11 0 1 1 0-22 11 11 0 0 1 0 22" fill="#005bbbEC"/><path d="M264.7-151.9a11 11 0 1 1 0-22 11 11 0 0 1 0 22" fill="#fffEC"/><path d="M-45.2-214.4a11.1 11.1 0 1 1 0-22.1 11.1 11.1 0 0 1 0 22.1" fill="#005bbbEE"/><path d="M150.7-5.8a11.1 11.1 0 1 1 0-22.2 11.1 11.1 0 0 1 0 22.2" fill="#fffEF"/><path d="M71-1.5a11.1 11.1 0 1 1 0-22.2 11.1 11.1 0 0 1 0 22.2" fill="#c2e1ffEF"/><path d="M-44.7-195.5a11.1 11.1 0 1 1 0-22.2 11.1 11.1 0 0 1 0 22.2" fill="#c2e1ffEF"/><path d="M-19.1-242.4a11.1 11.1 0 1 1 0-22.3 11.1 11.1 0 0 1 0 22.3" fill="#005bbbF0"/><path d="M188.6-31.7a11.2 11.2 0 1 1 0-22.3 11.2 11.2 0 0 1 0 22.3" fill="#005bbbF0"/><path d="M-16.8-59.1a11.2 11.2 0 1 1 0-22.3 11.2 11.2 0 0 1 0 22.3" fill="#c2e1ffF0"/><path d="M25.2-27.2a11.2 11.2 0 1 1 0-22.4 11.2 11.2 0 0 1 0 22.4" fill="#c2e1ffF1"/><path d="M21.2-272.3a11.2 11.2 0 1 1 0-22.4 11.2 11.2 0 0 1 0 22.4" fill="#c2e1ffF1"/><path d="M88.9-7.6a11.2 11.2 0 1 1 0-22.4 11.2 11.2 0 0 1 0 22.4" fill="#005bbbF1"/><path d="M229.5-198.9a11.3 11.3 0 1 1 0-22.5 11.3 11.3 0 0 1 0 22.5" fill="#fffF2"/><path d="M18.9-254.4a11.3 11.3 0 1 1 0-22.6 11.3 11.3 0 0 1 0 22.6" fill="#c2e1ffF4"/><path d="M103.5-20.3a11.3 11.3 0 1 1 0-22.7 11.3 11.3 0 0 1 0 22.7" fill="#fffF4"/><path d="M136.4-272.4a11.4 11.4 0 1 1 0-22.7 11.4 11.4 0 0 1 0 22.7" fill="#005bbbF4"/><path d="M72-272.8a11.4 11.4 0 1 1 0-22.8 11.4 11.4 0 0 1 0 22.8" fill="#fffF5"/><path d="M146.5-37.2a11.4 11.4 0 1 1 0-22.8 11.4 11.4 0 0 1 0 22.8" fill="#fff500F5"/><path d="M207.7-104.4a11.4 11.4 0 1 1 0-22.8 11.4 11.4 0 0 1 0 22.8" fill="#fff500F6"/><path d="M189.2-223.8a11.4 11.4 0 1 1 0-22.8 11.4 11.4 0 0 1 0 22.8" fill="#fffF6"/><path d="M165.2-243.4a11.5 11.5 0 1 1 0-22.9 11.5 11.5 0 0 1 0 22.9" fill="#fffF7"/><path d="M11-93.4a11.5 11.5 0 1 1 0-23 11.5 11.5 0 0 1 0 23" fill="#fffF8"/><path d="M14.4-180.2a11.6 11.6 0 1 1 0-23.2 11.6 11.6 0 0 1 0 23.2" fill="#c2e1ffFA"/><path d="M105.9-67.4a11.6 11.6 0 1 1 0-23.3 11.6 11.6 0 0 1 0 23.3" fill="#fff500FA"/><path d="M33.4-105.5a11.6 11.6 0 1 1 0-23.3 11.6 11.6 0 0 1 0 23.3" fill="#c2e1ffFB"/><path d="M137.2-109.5a11.7 11.7 0 1 1 0-23.5 11.7 11.7 0 0 1 0 23.5" fill="#fffFD"/><path d="M144.2-144.6a11.8 11.8 0 1 1 0-23.5 11.8 11.8 0 0 1 0 23.5" fill="#005bbbFD"/></g></svg>