<svg width="1200" height="675" viewBox="-500 -500 1200 675" xmlns="http://www.w3.org/2000/svg"><path d="M-500-500h1200v675h-1200z" fill="#000"/><style>.sparkles path{stroke-linecap:round; stroke-width:1}</style><g class="sparkles"><path d="M100-162.5l49.2 0" stroke="#005bbb33"/><path d="M100-162.5l23.4 60.6" stroke="#c2e1ff33"/><path d="M100-162.5l-79.3 6.5" stroke="#fff34"/><path d="M100-162.5l-0.4-95.4" stroke="#fff50036"/><path d="M100-162.5l46.3 84.2" stroke="#fff50036"/><path d="M100-162.5l86-59" stroke="#c2e1ff37"/><path d="M100-162.5l-45.3 95.5" stroke="#c2e1ff37"/><path d="M100-162.5l111.8-8.5" stroke="#c2e1ff37"/><path d="M100-162.5l-120.3 5.8" stroke="#005bbb38"/><path d="M100-162.5l-67-101.6" stroke="#fff39"/><path d="M100-162.5l-122.9 38.3" stroke="#fff3A"/><path d="M100-162.5l-57.2 121" stroke="#fff3A"/><path d="M100-162.5l-73.8-115.4" stroke="#005bbb3B"/><path d="M100-162.5l19.3-137.3" stroke="#fff5003B"/><path d="M100-162.5l-18.1 143.5" stroke="#fff5003C"/><path d="M100-162.5l92.6-111.4" stroke="#fff3C"/><path d="M100-162.5l145.9-48.3" stroke="#fff5003E"/><path d="M100-162.5l123.7-106.1" stroke="#c2e1ff3F"/><path d="M100-162.5l-137.8-88.6" stroke="#005bbb3F"/><path d="M100-162.5l-90.6 138.7" stroke="#005bbb40"/><path d="M100-162.5l-124.5-111.2" stroke="#005bbb40"/><path d="M100-162.5l-163.5-39.4" stroke="#c2e1ff40"/><path d="M100-162.5l110.6-128.3" stroke="#005bbb41"/><path d="M100-162.5l-156.6-76.8" stroke="#fff42"/><path d="M100-162.5l167.9-59.9" stroke="#c2e1ff43"/><path d="M100-162.5l-37.4-175.3" stroke="#fff50043"/><path d="M100-162.5l-104.6-145.8" stroke="#c2e1ff43"/><path d="M100-162.5l161.2-85.5" stroke="#005bbb44"/><path d="M100-162.5l-180.3 30.4" stroke="#fff44"/><path d="M100-162.5l113.6-146.2" stroke="#c2e1ff44"/><path d="M100-162.5l-183.3-38.3" stroke="#fff45"/><path d="M100-162.5l-77-172.7" stroke="#c2e1ff46"/><path d="M100-162.5l171.6 84.2" stroke="#c2e1ff46"/><path d="M100-162.5l189-36.9" stroke="#005bbb47"/><path d="M100-162.5l60.4-183.2" stroke="#005bbb47"/><path d="M100-162.5l179.2 75.3" stroke="#005bbb47"/><path d="M100-162.5l146.5-132" stroke="#005bbb48"/><path d="M100-162.5l-195.3-27.9" stroke="#fff50048"/><path d="M100-162.5l-181.6 81.1" stroke="#005bbb49"/><path d="M100-162.5l117.3 161.8" stroke="#005bbb49"/><path d="M100-162.5l-146.4-137.1" stroke="#c2e1ff49"/><path d="M100-162.5l-74.7-186.8" stroke="#fff50049"/><path d="M100-162.5l-199.4-40.6" stroke="#c2e1ff4A"/><path d="M100-162.5l-104.5 174.9" stroke="#005bbb4A"/><path d="M100-162.5l175.3-105" stroke="#fff4A"/><path d="M100-162.5l-58-196.9" stroke="#fff5004B"/><path d="M100-162.5l144.1 147.8" stroke="#c2e1ff4B"/><path d="M100-162.5l-61.1-198.5" stroke="#fff5004C"/><path d="M100-162.5l-61.3 199.3" stroke="#c2e1ff4C"/><path d="M100-162.5l-183.4-105" stroke="#005bbb4D"/><path d="M100-162.5l84.4 195.3" stroke="#c2e1ff4E"/><path d="M100-162.5l-207-51.1" stroke="#fff4E"/><path d="M100-162.5l73.6 201.2" stroke="#fff5004E"/><path d="M100-162.5l-186.4 107.6" stroke="#005bbb4F"/><path d="M100-162.5l213.2 32" stroke="#fff5004F"/><path d="M100-162.5l-215.6-7.7" stroke="#fff5004F"/><path d="M100-162.5l-142.4 162.8" stroke="#fff4F"/><path d="M100-162.5l204.9-71.2" stroke="#005bbb50"/><path d="M100-162.5l-96.5 194.4" stroke="#fff50"/><path d="M100-162.5l157 149.9" stroke="#fff50"/><path d="M100-162.5l-214.6-41.8" stroke="#c2e1ff51"/><path d="M100-162.5l217.6 21.1" stroke="#fff50051"/><path d="M100-162.5l182 122.2" stroke="#c2e1ff51"/><path d="M100-162.5l-88.7 201.6" stroke="#005bbb51"/><path d="M100-162.5l-101.7 196" stroke="#c2e1ff52"/><path d="M100-162.5l155.4-157.3" stroke="#fff50052"/><path d="M100-162.5l-96.3-201.7" stroke="#fff53"/><path d="M100-162.5l-215.1 61.6" stroke="#005bbb53"/><path d="M100-162.5l185.1-126.7" stroke="#fff50054"/><path d="M100-162.5l209.5 84" stroke="#fff50055"/><path d="M100-162.5l-206-92.7" stroke="#fff50055"/><path d="M100-162.5l-199 108.8" stroke="#c2e1ff56"/><path d="M100-162.5l-112-197.7" stroke="#c2e1ff56"/><path d="M100-162.5l220.5-62.3" stroke="#fff57"/><path d="M100-162.5l99.6-206.5" stroke="#fff57"/><path d="M100-162.5l222.3-58.6" stroke="#fff58"/><path d="M100-162.5l-130.9 190" stroke="#c2e1ff59"/><path d="M100-162.5l-156.7-169.9" stroke="#005bbb59"/><path d="M100-162.5l116.8-199.9" stroke="#005bbb5A"/><path d="M100-162.5l-40.3 228.3" stroke="#fff5A"/><path d="M100-162.5l150.4 177.7" stroke="#c2e1ff5B"/><path d="M100-162.5l49.1 227.8" stroke="#005bbb5B"/><path d="M100-162.5l109.9-206.5" stroke="#c2e1ff5D"/><path d="M100-162.5l-122.7-199.8" stroke="#fff5005D"/><path d="M100-162.5l-232.4 31.7" stroke="#fff5E"/><path d="M100-162.5l-227.9 55.8" stroke="#c2e1ff5E"/><path d="M100-162.5l159.6 173" stroke="#c2e1ff5F"/><path d="M100-162.5l231.6-42.5" stroke="#fff5005F"/><path d="M100-162.5l-36.6 232.7" stroke="#005bbb60"/><path d="M100-162.5l148 183.7" stroke="#c2e1ff61"/><path d="M100-162.5l212.2 103.3" stroke="#005bbb61"/><path d="M100-162.5l234.9 25.2" stroke="#005bbb63"/><path d="M100-162.5l204.6-118" stroke="#fff50064"/><path d="M100-162.5l63.8-227.4" stroke="#fff50064"/><path d="M100-162.5l113.8-207" stroke="#005bbb65"/><path d="M100-162.5l-186.6 144.8" stroke="#005bbb65"/><path d="M100-162.5l128.2-198.3" stroke="#005bbb65"/><path d="M100-162.5l-235.9-10.7" stroke="#005bbb65"/><path d="M100-162.5l-109.6 209.1" stroke="#005bbb65"/><path d="M100-162.5l193.5-135.1" stroke="#fff50066"/><path d="M100-162.5l-156.2-176.9" stroke="#005bbb66"/><path d="M100-162.5l-81.8-221.3" stroke="#005bbb66"/><path d="M100-162.5l230.4-49.2" stroke="#c2e1ff67"/><path d="M100-162.5l22.3-233.9" stroke="#c2e1ff69"/><path d="M100-162.5l48-229.9" stroke="#005bbb69"/><path d="M100-162.5l-178.7 151.6" stroke="#fff6A"/><path d="M100-162.5l-159.3 171.1" stroke="#fff6B"/><path d="M100-162.5l91.3-215.1" stroke="#c2e1ff6B"/><path d="M100-162.5l-129.1 194.7" stroke="#fff6B"/><path d="M100-162.5l-228.7-46.1" stroke="#fff6B"/><path d="M100-162.5l-213.7-91.8" stroke="#c2e1ff6C"/><path d="M100-162.5l184.6 139.9" stroke="#c2e1ff6D"/><path d="M100-162.5l189.2-128.8" stroke="#005bbb70"/><path d="M100-162.5l153.5-169.1" stroke="#c2e1ff70"/><path d="M100-162.5l-170.9 150.4" stroke="#fff71"/><path d="M100-162.5l-221.6 50.1" stroke="#005bbb71"/><path d="M100-162.5l-77.6 212.6" stroke="#c2e1ff72"/><path d="M100-162.5l-226 4.3" stroke="#005bbb72"/><path d="M100-162.5l-68.6-214.5" stroke="#fff50073"/><path d="M100-162.5l146 169.8" stroke="#c2e1ff73"/><path d="M100-162.5l-135.3 178.3" stroke="#005bbb74"/><path d="M100-162.5l55.5 214.3" stroke="#c2e1ff75"/><path d="M100-162.5l-216.5 45.7" stroke="#fff75"/><path d="M100-162.5l201.4-91.5" stroke="#c2e1ff75"/><path d="M100-162.5l216.1 36.8" stroke="#fff76"/><path d="M100-162.5l214.2-21.7" stroke="#fff50078"/><path d="M100-162.5l172.1-128.8" stroke="#fff78"/><path d="M100-162.5l-139.9-162.6" stroke="#fff50078"/><path d="M100-162.5l-162.5 138" stroke="#fff79"/><path d="M100-162.5l-59 201.2" stroke="#fff7B"/><path d="M100-162.5l183.5-101.5" stroke="#fff5007B"/><path d="M100-162.5l-200.9 44.2" stroke="#c2e1ff7C"/><path d="M100-162.5l-147.3-142.1" stroke="#c2e1ff7C"/><path d="M100-162.5l-129.3 152.8" stroke="#005bbb7E"/><path d="M100-162.5l-196-20.9" stroke="#005bbb7F"/><path d="M100-162.5l-59.3-187" stroke="#fff7F"/><path d="M100-162.5l56.7-185.7" stroke="#fff80"/><path d="M100-162.5l91.5 168.1" stroke="#fff81"/><path d="M100-162.5l-86 169.1" stroke="#005bbb81"/><path d="M100-162.5l63.2-178.5" stroke="#c2e1ff81"/><path d="M100-162.5l19 187.2" stroke="#005bbb82"/><path d="M100-162.5l178.4-56.5" stroke="#c2e1ff82"/><path d="M100-162.5l-78.7-167.3" stroke="#fff50083"/><path d="M100-162.5l162.8 85.8" stroke="#c2e1ff83"/><path d="M100-162.5l-111.5-142.8" stroke="#c2e1ff84"/><path d="M100-162.5l-77.9-155.8" stroke="#005bbb85"/><path d="M100-162.5l-162.8-40.6" stroke="#c2e1ff87"/><path d="M100-162.5l-158-53.1" stroke="#fff50087"/><path d="M100-162.5l64.3 152.4" stroke="#fff87"/><path d="M100-162.5l115.3-114.7" stroke="#c2e1ff88"/><path d="M100-162.5l115.7-109.4" stroke="#c2e1ff88"/><path d="M100-162.5l116.2-103.9" stroke="#c2e1ff89"/><path d="M100-162.5l-123.2-92.8" stroke="#fff50089"/><path d="M100-162.5l91.3 124.3" stroke="#c2e1ff89"/><path d="M100-162.5l-35.8-149.6" stroke="#fff89"/><path d="M100-162.5l114.5 99.6" stroke="#fff5008A"/><path d="M100-162.5l72.9-132.1" stroke="#c2e1ff8A"/><path d="M100-162.5l129.9 75.3" stroke="#c2e1ff8A"/><path d="M100-162.5l-74.8 120.7" stroke="#005bbb8B"/><path d="M100-162.5l133.8-32.6" stroke="#005bbb8C"/><path d="M100-162.5l-86.2-106.4" stroke="#c2e1ff8C"/><path d="M100-162.5l80 104.5" stroke="#005bbb8D"/><path d="M100-162.5l101.9 77.3" stroke="#005bbb8E"/><path d="M100-162.5l-106.5-58.1" stroke="#005bbb8E"/><path d="M100-162.5l-51.9 105.1" stroke="#c2e1ff8F"/><path d="M100-162.5l107.5 31.8" stroke="#c2e1ff90"/><path d="M100-162.5l-81.3 77" stroke="#fff50090"/><path d="M100-162.5l24.6 108.1" stroke="#fff90"/><path d="M100-162.5l84.8 67.7" stroke="#fff50090"/><path d="M100-162.5l-35.4 94.6" stroke="#c2e1ff91"/><path d="M100-162.5l-67.7 69.7" stroke="#fff91"/><path d="M100-162.5l72.8-60.6" stroke="#fff50091"/><path d="M100-162.5l-28.6-80.7" stroke="#fff92"/><path d="M100-162.5l68.6 38.9" stroke="#005bbb93"/><path d="M100-162.5l63.9 41.6" stroke="#fff50093"/><path d="M100-162.5l-64-32.2" stroke="#fff93"/><path d="M100-162.5l-66.9-23.5" stroke="#fff93"/><path d="M100-162.5l51.5-27.6" stroke="#005bbb94"/><path d="M100-162.5l34.5 14.7" stroke="#c2e1ff95"/><path d="M100-162.5l-13.9-27.9" stroke="#fff95"/><path d="M100-162.5l-5.2 21.6" stroke="#c2e1ff95"/></g><g class="sparcs"><path d="M149.2-156.5a6 6 0 1 1 0-12 6 6 0 0 1 0 12" fill="#005bbb7E"/><path d="M123.4-95.8a6 6 0 1 1 0-12.1 6 6 0 0 1 0 12.1" fill="#c2e1ff7F"/><path d="M20.7-149.9a6.1 6.1 0 1 1 0-12.2 6.1 6.1 0 0 1 0 12.2" fill="#fff80"/><path d="M99.6-251.7a6.2 6.2 0 1 1 0-12.3 6.2 6.2 0 0 1 0 12.3" fill="#fff50082"/><path d="M146.3-72.2a6.2 6.2 0 1 1 0-12.3 6.2 6.2 0 0 1 0 12.3" fill="#005bbb82"/><path d="M186-215.3a6.2 6.2 0 1 1 0-12.4 6.2 6.2 0 0 1 0 12.4" fill="#c2e1ff83"/><path d="M54.7-60.8a6.2 6.2 0 1 1 0-12.4 6.2 6.2 0 0 1 0 12.4" fill="#005bbb83"/><path d="M211.8-164.7a6.3 6.3 0 1 1 0-12.5 6.3 6.3 0 0 1 0 12.5" fill="#fff50084"/><path d="M-20.3-150.4a6.3 6.3 0 1 1 0-12.6 6.3 6.3 0 0 1 0 12.6" fill="#fff50086"/><path d="M33-257.8a6.3 6.3 0 1 1 0-12.7 6.3 6.3 0 0 1 0 12.7" fill="#005bbb86"/><path d="M-22.9-117.8a6.4 6.4 0 1 1 0-12.7 6.4 6.4 0 0 1 0 12.7" fill="#fff50087"/><path d="M42.8-35.1a6.4 6.4 0 1 1 0-12.8 6.4 6.4 0 0 1 0 12.8" fill="#fff50088"/><path d="M26.2-271.5a6.5 6.5 0 1 1 0-12.9 6.5 6.5 0 0 1 0 12.9" fill="#fff89"/><path d="M119.3-293.3a6.5 6.5 0 1 1 0-12.9 6.5 6.5 0 0 1 0 12.9" fill="#005bbb89"/><path d="M81.9-12.5a6.5 6.5 0 1 1 0-13.1 6.5 6.5 0 0 1 0 13.1" fill="#fff5008A"/><path d="M192.6-267.3a6.5 6.5 0 1 1 0-13.1 6.5 6.5 0 0 1 0 13.1" fill="#c2e1ff8A"/><path d="M245.9-204.2a6.6 6.6 0 1 1 0-13.2 6.6 6.6 0 0 1 0 13.2" fill="#fff5008C"/><path d="M223.7-261.8a6.7 6.7 0 1 1 0-13.5 6.7 6.7 0 0 1 0 13.5" fill="#005bbb8E"/><path d="M-37.8-244.4a6.7 6.7 0 1 1 0-13.5 6.7 6.7 0 0 1 0 13.5" fill="#005bbb8F"/><path d="M9.4-17a6.8 6.8 0 1 1 0-13.6 6.8 6.8 0 0 1 0 13.6" fill="#005bbb8F"/><path d="M-24.5-266.9a6.8 6.8 0 1 1 0-13.6 6.8 6.8 0 0 1 0 13.6" fill="#fff90"/><path d="M-63.5-195.1a6.8 6.8 0 1 1 0-13.6 6.8 6.8 0 0 1 0 13.6" fill="#fff50090"/><path d="M210.6-284a6.8 6.8 0 1 1 0-13.6 6.8 6.8 0 0 1 0 13.6" fill="#005bbb90"/><path d="M-56.6-232.5a6.9 6.9 0 1 1 0-13.7 6.9 6.9 0 0 1 0 13.7" fill="#fff50092"/><path d="M267.9-215.4a6.9 6.9 0 1 1 0-13.9 6.9 6.9 0 0 1 0 13.9" fill="#c2e1ff93"/><path d="M62.6-330.9a6.9 6.9 0 1 1 0-13.9 6.9 6.9 0 0 1 0 13.9" fill="#fff50093"/><path d="M-4.6-301.3a6.9 6.9 0 1 1 0-13.9 6.9 6.9 0 0 1 0 13.9" fill="#fff93"/><path d="M261.2-241a7 7 0 1 1 0-14 7 7 0 0 1 0 14" fill="#fff94"/><path d="M-80.3-125.1a7 7 0 1 1 0-14 7 7 0 0 1 0 14" fill="#fff94"/><path d="M213.6-301.7a7 7 0 1 1 0-14 7 7 0 0 1 0 14" fill="#005bbb95"/><path d="M-83.3-193.7a7.1 7.1 0 1 1 0-14.2 7.1 7.1 0 0 1 0 14.2" fill="#fff50096"/><path d="M23-328.1a7.1 7.1 0 1 1 0-14.2 7.1 7.1 0 0 1 0 14.2" fill="#c2e1ff97"/><path d="M271.6-71.1a7.1 7.1 0 1 1 0-14.3 7.1 7.1 0 0 1 0 14.3" fill="#fff50097"/><path d="M289-192.2a7.1 7.1 0 1 1 0-14.3 7.1 7.1 0 0 1 0 14.3" fill="#fff50098"/><path d="M160.4-338.6a7.2 7.2 0 1 1 0-14.3 7.2 7.2 0 0 1 0 14.3" fill="#005bbb98"/><path d="M279.2-80a7.2 7.2 0 1 1 0-14.4 7.2 7.2 0 0 1 0 14.4" fill="#c2e1ff99"/><path d="M246.5-287.3a7.2 7.2 0 1 1 0-14.4 7.2 7.2 0 0 1 0 14.4" fill="#c2e1ff9A"/><path d="M-95.3-183.2a7.2 7.2 0 1 1 0-14.4 7.2 7.2 0 0 1 0 14.4" fill="#005bbb9A"/><path d="M-81.6-74.2a7.3 7.3 0 1 1 0-14.5 7.3 7.3 0 0 1 0 14.5" fill="#005bbb9A"/><path d="M217.3 6.6a7.3 7.3 0 1 1 0-14.6 7.3 7.3 0 0 1 0 14.6" fill="#fff5009B"/><path d="M-46.4-292.3a7.3 7.3 0 1 1 0-14.6 7.3 7.3 0 0 1 0 14.6" fill="#fff9B"/><path d="M25.3-342a7.3 7.3 0 1 1 0-14.6 7.3 7.3 0 0 1 0 14.6" fill="#fff5009B"/><path d="M-99.4-195.7a7.4 7.4 0 1 1 0-14.7 7.4 7.4 0 0 1 0 14.7" fill="#fff9C"/><path d="M-4.5 19.7a7.4 7.4 0 1 1 0-14.7 7.4 7.4 0 0 1 0 14.7" fill="#c2e1ff9D"/><path d="M275.3-260.1a7.4 7.4 0 1 1 0-14.7 7.4 7.4 0 0 1 0 14.7" fill="#c2e1ff9D"/><path d="M42-352a7.4 7.4 0 1 1 0-14.8 7.4 7.4 0 0 1 0 14.8" fill="#c2e1ff9D"/><path d="M244.1-7.3a7.4 7.4 0 1 1 0-14.8 7.4 7.4 0 0 1 0 14.8" fill="#fff9E"/><path d="M38.9-353.5a7.5 7.5 0 1 1 0-15 7.5 7.5 0 0 1 0 15" fill="#005bbb9F"/><path d="M38.7 44.3a7.5 7.5 0 1 1 0-14.9 7.5 7.5 0 0 1 0 14.9" fill="#fff9F"/><path d="M-83.4-259.9a7.5 7.5 0 1 1 0-15.1 7.5 7.5 0 0 1 0 15.1" fill="#005bbbA0"/><path d="M184.4 40.4a7.6 7.6 0 1 1 0-15.2 7.6 7.6 0 0 1 0 15.2" fill="#c2e1ffA1"/><path d="M-107-206a7.6 7.6 0 1 1 0-15.2 7.6 7.6 0 0 1 0 15.2" fill="#c2e1ffA2"/><path d="M173.6 46.3a7.6 7.6 0 1 1 0-15.2 7.6 7.6 0 0 1 0 15.2" fill="#c2e1ffA2"/><path d="M-86.4-47.2a7.6 7.6 0 1 1 0-15.3 7.6 7.6 0 0 1 0 15.3" fill="#fff500A3"/><path d="M313.2-122.8a7.7 7.7 0 1 1 0-15.3 7.7 7.7 0 0 1 0 15.3" fill="#fffA3"/><path d="M-115.6-162.6a7.7 7.7 0 1 1 0-15.3 7.7 7.7 0 0 1 0 15.3" fill="#fff500A3"/><path d="M-42.4 8a7.7 7.7 0 1 1 0-15.3 7.7 7.7 0 0 1 0 15.3" fill="#c2e1ffA3"/><path d="M304.9-226a7.7 7.7 0 1 1 0-15.4 7.7 7.7 0 0 1 0 15.4" fill="#c2e1ffA4"/><path d="M3.5 39.6a7.7 7.7 0 1 1 0-15.4 7.7 7.7 0 0 1 0 15.4" fill="#005bbbA4"/><path d="M257-5a7.7 7.7 0 1 1 0-15.3 7.7 7.7 0 0 1 0 15.3" fill="#005bbbA4"/><path d="M-114.6-196.5a7.7 7.7 0 1 1 0-15.5 7.7 7.7 0 0 1 0 15.5" fill="#fffA5"/><path d="M317.6-133.6a7.7 7.7 0 1 1 0-15.5 7.7 7.7 0 0 1 0 15.5" fill="#005bbbA5"/><path d="M282-32.5a7.8 7.8 0 1 1 0-15.5 7.8 7.8 0 0 1 0 15.5" fill="#c2e1ffA5"/><path d="M11.3 46.9a7.8 7.8 0 1 1 0-15.6 7.8 7.8 0 0 1 0 15.6" fill="#005bbbA6"/><path d="M-1.7 41.3a7.8 7.8 0 1 1 0-15.6 7.8 7.8 0 0 1 0 15.6" fill="#fffA6"/><path d="M255.4-311.9a7.8 7.8 0 1 1 0-15.7 7.8 7.8 0 0 1 0 15.7" fill="#fffA7"/><path d="M3.7-356.3a7.9 7.9 0 1 1 0-15.8 7.9 7.9 0 0 1 0 15.8" fill="#fffA8"/><path d="M-115.1-92.9a7.9 7.9 0 1 1 0-15.9 7.9 7.9 0 0 1 0 15.9" fill="#c2e1ffA9"/><path d="M285.1-281.3a7.9 7.9 0 1 1 0-15.9 7.9 7.9 0 0 1 0 15.9" fill="#fff500A9"/><path d="M309.5-70.5a8 8 0 1 1 0-16 8 8 0 0 1 0 16" fill="#fff500AA"/><path d="M-106-247.2a8 8 0 1 1 0-16 8 8 0 0 1 0 16" fill="#c2e1ffAA"/><path d="M-99-45.6a8 8 0 1 1 0-16.1 8 8 0 0 1 0 16.1" fill="#c2e1ffAB"/><path d="M-12-352.1a8.1 8.1 0 1 1 0-16.1 8.1 8.1 0 0 1 0 16.1" fill="#005bbbAC"/><path d="M320.5-216.7a8.1 8.1 0 1 1 0-16.3 8.1 8.1 0 0 1 0 16.3" fill="#c2e1ffAE"/><path d="M199.6-360.9a8.1 8.1 0 1 1 0-16.3 8.1 8.1 0 0 1 0 16.3" fill="#c2e1ffAE"/><path d="M322.3-212.9a8.2 8.2 0 1 1 0-16.4 8.2 8.2 0 0 1 0 16.4" fill="#fffAF"/><path d="M-30.9 35.7a8.2 8.2 0 1 1 0-16.4 8.2 8.2 0 0 1 0 16.4" fill="#005bbbB0"/><path d="M-56.7-324.2a8.3 8.3 0 1 1 0-16.5 8.3 8.3 0 0 1 0 16.5" fill="#005bbbB0"/><path d="M216.8-354.1a8.3 8.3 0 1 1 0-16.5 8.3 8.3 0 0 1 0 16.5" fill="#fffB1"/><path d="M59.7 74.1a8.3 8.3 0 1 1 0-16.6 8.3 8.3 0 0 1 0 16.6" fill="#fffB1"/><path d="M250.4 23.6a8.4 8.4 0 1 1 0-16.7 8.4 8.4 0 0 1 0 16.7" fill="#c2e1ffB2"/><path d="M149.1 73.7a8.4 8.4 0 1 1 0-16.7 8.4 8.4 0 0 1 0 16.7" fill="#fff500B3"/><path d="M209.9-360.6a8.4 8.4 0 1 1 0-16.9 8.4 8.4 0 0 1 0 16.9" fill="#fff500B4"/><path d="M-22.7-353.8a8.5 8.5 0 1 1 0-17 8.5 8.5 0 0 1 0 17" fill="#c2e1ffB5"/><path d="M-132.4-122.3a8.5 8.5 0 1 1 0-17 8.5 8.5 0 0 1 0 17" fill="#fffB6"/><path d="M-127.9-98.1a8.5 8.5 0 1 1 0-17.1 8.5 8.5 0 0 1 0 17.1" fill="#c2e1ffB6"/><path d="M259.6 19.1a8.6 8.6 0 1 1 0-17.2 8.6 8.6 0 0 1 0 17.2" fill="#fff500B8"/><path d="M331.6-196.4a8.6 8.6 0 1 1 0-17.2 8.6 8.6 0 0 1 0 17.2" fill="#fff500B8"/><path d="M63.4 78.9a8.6 8.6 0 1 1 0-17.3 8.6 8.6 0 0 1 0 17.3" fill="#005bbbB9"/><path d="M248 29.9a8.7 8.7 0 1 1 0-17.4 8.7 8.7 0 0 1 0 17.4" fill="#c2e1ffBA"/><path d="M312.2-50.5a8.7 8.7 0 1 1 0-17.4 8.7 8.7 0 0 1 0 17.4" fill="#005bbbBA"/><path d="M334.9-128.4a8.8 8.8 0 1 1 0-17.7 8.8 8.8 0 0 1 0 17.7" fill="#fffBC"/><path d="M304.6-271.6a8.9 8.9 0 1 1 0-17.9 8.9 8.9 0 0 1 0 17.9" fill="#005bbbBF"/><path d="M163.8-381a8.9 8.9 0 1 1 0-17.9 8.9 8.9 0 0 1 0 17.9" fill="#fff500BF"/><path d="M213.8-360.6a8.9 8.9 0 1 1 0-17.8 8.9 8.9 0 0 1 0 17.8" fill="#fff500BF"/><path d="M-86.6-8.8a8.9 8.9 0 1 1 0-17.9 8.9 8.9 0 0 1 0 17.9" fill="#005bbbBF"/><path d="M228.2-351.9a8.9 8.9 0 1 1 0-17.9 8.9 8.9 0 0 1 0 17.9" fill="#fffBF"/><path d="M-135.9-164.3a9 9 0 1 1 0-17.9 9 9 0 0 1 0 17.9" fill="#c2e1ffC0"/><path d="M-9.6 55.6a9 9 0 1 1 0-17.9 9 9 0 0 1 0 17.9" fill="#fff500C0"/><path d="M293.5-288.6a9 9 0 1 1 0-18 9 9 0 0 1 0 18" fill="#fff500C0"/><path d="M-56.2-330.4a9 9 0 1 1 0-18 9 9 0 0 1 0 18" fill="#005bbbC1"/><path d="M18.2-374.8a9 9 0 1 1 0-18 9 9 0 0 1 0 18" fill="#c2e1ffC1"/><path d="M330.4-202.7a9.1 9.1 0 1 1 0-18.1 9.1 9.1 0 0 1 0 18.1" fill="#c2e1ffC2"/><path d="M122.3-387.2a9.2 9.2 0 1 1 0-18.4 9.2 9.2 0 0 1 0 18.4" fill="#fff500C4"/><path d="M148-383.2a9.2 9.2 0 1 1 0-18.4 9.2 9.2 0 0 1 0 18.4" fill="#005bbbC4"/><path d="M-78.7-1.7a9.2 9.2 0 1 1 0-18.4 9.2 9.2 0 0 1 0 18.4" fill="#fffC6"/><path d="M-59.3 17.9a9.3 9.3 0 1 1 0-18.6 9.3 9.3 0 0 1 0 18.6" fill="#005bbbC7"/><path d="M191.3-368.3a9.3 9.3 0 1 1 0-18.6 9.3 9.3 0 0 1 0 18.6" fill="#fff500C7"/><path d="M-29.1 41.5a9.3 9.3 0 1 1 0-18.6 9.3 9.3 0 0 1 0 18.6" fill="#fff500C7"/><path d="M-128.7-199.2a9.3 9.3 0 1 1 0-18.7 9.3 9.3 0 0 1 0 18.7" fill="#c2e1ffC8"/><path d="M-113.7-244.9a9.4 9.4 0 1 1 0-18.8 9.4 9.4 0 0 1 0 18.8" fill="#005bbbC9"/><path d="M284.6-13.2a9.4 9.4 0 1 1 0-18.9 9.4 9.4 0 0 1 0 18.9" fill="#c2e1ffCA"/><path d="M289.2-281.7a9.6 9.6 0 1 1 0-19.2 9.6 9.6 0 0 1 0 19.2" fill="#fffCE"/><path d="M253.5-322a9.6 9.6 0 1 1 0-19.2 9.6 9.6 0 0 1 0 19.2" fill="#005bbbCE"/><path d="M-70.9-2.5a9.6 9.6 0 1 1 0-19.3 9.6 9.6 0 0 1 0 19.3" fill="#c2e1ffCF"/><path d="M-121.6-102.8a9.7 9.7 0 1 1 0-19.3 9.7 9.7 0 0 1 0 19.3" fill="#c2e1ffCF"/><path d="M22.4 59.8a9.7 9.7 0 1 1 0-19.4 9.7 9.7 0 0 1 0 19.4" fill="#fff500D0"/><path d="M-126-148.5a9.7 9.7 0 1 1 0-19.5 9.7 9.7 0 0 1 0 19.5" fill="#fffD0"/><path d="M31.4-367.2a9.8 9.8 0 1 1 0-19.5 9.8 9.8 0 0 1 0 19.5" fill="#005bbbD1"/><path d="M246 17.1a9.8 9.8 0 1 1 0-19.6 9.8 9.8 0 0 1 0 19.6" fill="#005bbbD2"/><path d="M-35.3 25.6a9.8 9.8 0 1 1 0-19.6 9.8 9.8 0 0 1 0 19.6" fill="#fff500D2"/><path d="M155.5 61.7a9.9 9.9 0 1 1 0-19.8 9.9 9.9 0 0 1 0 19.8" fill="#c2e1ffD4"/><path d="M-116.5-106.9a9.9 9.9 0 1 1 0-19.8 9.9 9.9 0 0 1 0 19.8" fill="#fffD4"/><path d="M301.4-244.1a9.9 9.9 0 1 1 0-19.8 9.9 9.9 0 0 1 0 19.8" fill="#fff500D4"/><path d="M316.1-115.7a10 10 0 1 1 0-20 10 10 0 0 1 0 20" fill="#c2e1ffD6"/><path d="M314.2-174.2a10.1 10.1 0 1 1 0-20.1 10.1 10.1 0 0 1 0 20.1" fill="#c2e1ffD8"/><path d="M272.1-281.2a10.1 10.1 0 1 1 0-20.2 10.1 10.1 0 0 1 0 20.2" fill="#fffD8"/><path d="M-39.9-315a10.1 10.1 0 1 1 0-20.2 10.1 10.1 0 0 1 0 20.2" fill="#c2e1ffD9"/><path d="M-62.5-14.4a10.1 10.1 0 1 1 0-20.2 10.1 10.1 0 0 1 0 20.2" fill="#fff500DA"/><path d="M41 48.9a10.2 10.2 0 1 1 0-20.4 10.2 10.2 0 0 1 0 20.4" fill="#fffDB"/><path d="M283.5-253.7a10.2 10.2 0 1 1 0-20.5 10.2 10.2 0 0 1 0 20.5" fill="#c2e1ffDB"/><path d="M-100.9-108a10.3 10.3 0 1 1 0-20.6 10.3 10.3 0 0 1 0 20.6" fill="#c2e1ffDD"/><path d="M-47.3-294.2a10.3 10.3 0 1 1 0-20.7 10.3 10.3 0 0 1 0 20.7" fill="#fff500DE"/><path d="M-29.3 0.7a10.4 10.4 0 1 1 0-20.8 10.4 10.4 0 0 1 0 20.8" fill="#005bbbE0"/><path d="M-96-172.9a10.5 10.5 0 1 1 0-21 10.5 10.5 0 0 1 0 21" fill="#005bbbE1"/><path d="M40.7-339a10.5 10.5 0 1 1 0-21 10.5 10.5 0 0 1 0 21" fill="#005bbbE2"/><path d="M156.7-337.6a10.5 10.5 0 1 1 0-21.1 10.5 10.5 0 0 1 0 21.1" fill="#c2e1ffE3"/><path d="M191.5 16.2a10.6 10.6 0 1 1 0-21.2 10.6 10.6 0 0 1 0 21.2" fill="#fff500E4"/><path d="M14 17.3a10.6 10.6 0 1 1 0-21.3 10.6 10.6 0 0 1 0 21.3" fill="#005bbbE4"/><path d="M163.2-330.4a10.6 10.6 0 1 1 0-21.2 10.6 10.6 0 0 1 0 21.2" fill="#c2e1ffE4"/><path d="M119 35.4a10.6 10.6 0 1 1 0-21.3 10.6 10.6 0 0 1 0 21.3" fill="#fff500E5"/><path d="M278.4-208.3a10.7 10.7 0 1 1 0-21.4 10.7 10.7 0 0 1 0 21.4" fill="#fffE5"/><path d="M21.3-319.2a10.7 10.7 0 1 1 0-21.3 10.7 10.7 0 0 1 0 21.3" fill="#005bbbE6"/><path d="M262.8-66a10.7 10.7 0 1 1 0-21.4 10.7 10.7 0 0 1 0 21.4" fill="#fff500E6"/><path d="M-11.5-294.5a10.8 10.8 0 1 1 0-21.6 10.8 10.8 0 0 1 0 21.6" fill="#fffE7"/><path d="M22.1-307.4a10.9 10.9 0 1 1 0-21.7 10.9 10.9 0 0 1 0 21.7" fill="#fffE9"/><path d="M-62.8-192.2a10.9 10.9 0 1 1 0-21.9 10.9 10.9 0 0 1 0 21.9" fill="#005bbbEB"/><path d="M-58-204.6a11 11 0 1 1 0-21.9 11 11 0 0 1 0 21.9" fill="#c2e1ffEC"/><path d="M164.3 0.9a11 11 0 1 1 0-21.9 11 11 0 0 1 0 21.9" fill="#005bbbEC"/><path d="M215.3-266.2a11 11 0 1 1 0-22 11 11 0 0 1 0 22" fill="#fff500ED"/><path d="M215.7-260.9a11 11 0 1 1 0-22 11 11 0 0 1 0 22" fill="#c2e1ffEE"/><path d="M216.2-255.3a11.1 11.1 0 1 1 0-22.1 11.1 11.1 0 0 1 0 22.1" fill="#005bbbEE"/><path d="M-23.2-244.3a11.1 11.1 0 1 1 0-22.1 11.1 11.1 0 0 1 0 22.1" fill="#c2e1ffEF"/><path d="M191.3-27.1a11.1 11.1 0 1 1 0-22.2 11.1 11.1 0 0 1 0 22.2" fill="#fffEF"/><path d="M64.2-301a11.1 11.1 0 1 1 0-22.2 11.1 11.1 0 0 1 0 22.2" fill="#005bbbEF"/><path d="M214.5-51.8a11.1 11.1 0 1 1 0-22.3 11.1 11.1 0 0 1 0 22.3" fill="#c2e1ffEF"/><path d="M172.9-283.4a11.1 11.1 0 1 1 0-22.3 11.1 11.1 0 0 1 0 22.3" fill="#005bbbF0"/><path d="M229.9-76.1a11.1 11.1 0 1 1 0-22.3 11.1 11.1 0 0 1 0 22.3" fill="#fff500F0"/><path d="M25.2-30.6a11.2 11.2 0 1 1 0-22.4 11.2 11.2 0 0 1 0 22.4" fill="#fff500F1"/><path d="M233.8-183.8a11.3 11.3 0 1 1 0-22.6 11.3 11.3 0 0 1 0 22.6" fill="#005bbbF2"/><path d="M13.8-257.7a11.3 11.3 0 1 1 0-22.5 11.3 11.3 0 0 1 0 22.5" fill="#fff500F2"/><path d="M180-46.7a11.3 11.3 0 1 1 0-22.6 11.3 11.3 0 0 1 0 22.6" fill="#c2e1ffF3"/><path d="M201.9-73.8a11.3 11.3 0 1 1 0-22.7 11.3 11.3 0 0 1 0 22.7" fill="#fffF4"/><path d="M-6.5-209.2a11.4 11.4 0 1 1 0-22.8 11.4 11.4 0 0 1 0 22.8" fill="#fff500F5"/><path d="M48.1-46a11.4 11.4 0 1 1 0-22.8 11.4 11.4 0 0 1 0 22.8" fill="#005bbbF6"/><path d="M207.5-119.2a11.5 11.5 0 1 1 0-23 11.5 11.5 0 0 1 0 23" fill="#005bbbF7"/><path d="M18.7-74.1a11.5 11.5 0 1 1 0-22.9 11.5 11.5 0 0 1 0 22.9" fill="#005bbbF7"/><path d="M124.6-42.9a11.5 11.5 0 1 1 0-23 11.5 11.5 0 0 1 0 23" fill="#fff500F7"/><path d="M184.8-83.3a11.5 11.5 0 1 1 0-23 11.5 11.5 0 0 1 0 23" fill="#c2e1ffF7"/><path d="M64.6-56.3a11.5 11.5 0 1 1 0-23.1 11.5 11.5 0 0 1 0 23.1" fill="#fff500F8"/><path d="M32.3-81.2a11.6 11.6 0 1 1 0-23.1 11.6 11.6 0 0 1 0 23.1" fill="#fff500F9"/><path d="M172.8-211.5a11.6 11.6 0 1 1 0-23.2 11.6 11.6 0 0 1 0 23.2" fill="#fffF9"/><path d="M71.4-231.6a11.6 11.6 0 1 1 0-23.3 11.6 11.6 0 0 1 0 23.3" fill="#005bbbFA"/><path d="M168.6-111.9a11.6 11.6 0 1 1 0-23.3 11.6 11.6 0 0 1 0 23.3" fill="#fff500FB"/><path d="M163.9-109.2a11.7 11.7 0 1 1 0-23.3 11.7 11.7 0 0 1 0 23.3" fill="#fffFB"/><path d="M36-183.1a11.7 11.7 0 1 1 0-23.3 11.7 11.7 0 0 1 0 23.3" fill="#005bbbFB"/><path d="M33.1-174.3a11.7 11.7 0 1 1 0-23.3 11.7 11.7 0 0 1 0 23.3" fill="#005bbbFC"/><path d="M151.5-178.3a11.7 11.7 0 1 1 0-23.5 11.7 11.7 0 0 1 0 23.5" fill="#c2e1ffFC"/><path d="M134.5-136a11.8 11.8 0 1 1 0-23.6 11.8 11.8 0 0 1 0 23.6" fill="#fffFE"/><path d="M86.1-178.6a11.8 11.8 0 1 1 0-23.6 11.8 11.8 0 0 1 0 23.6" fill="#fffFE"/><path d="M94.8-129.1a11.8 11.8 0 1 1 0-23.6 11.8 11.8 0 0 1 0 23.6" fill="#c2e1ffFE"/></g></svg>