<svg width="1200" height="675" viewBox="-500 -500 1200 675" xmlns="http://www.w3.org/2000/svg"><path d="M-500-500h1200v675h-1200z" fill="#000"/><style>.sparkles path{stroke-linecap:round; stroke-width:1}</style><g class="sparkles"><path d="M100-162.5l30-22.8" stroke="#005bbb32"/><path d="M100-162.5l38.4-13.7" stroke="#005bbb32"/><path d="M100-162.5l44.6-6" stroke="#005bbb32"/><path d="M100-162.5l46.4-37.5" stroke="#005bbb33"/><path d="M100-162.5l-38.4 53.5" stroke="#c2e1ff33"/><path d="M100-162.5l-43.2-67.3" stroke="#005bbb34"/><path d="M100-162.5l-88.3-12.5" stroke="#c2e1ff35"/><path d="M100-162.5l-67.6-90.7" stroke="#fff38"/><path d="M100-162.5l-8.1-117.5" stroke="#fff50038"/><path d="M100-162.5l28.4 116.7" stroke="#fff50038"/><path d="M100-162.5l-77.4 97.1" stroke="#fff50039"/><path d="M100-162.5l104.4 67.9" stroke="#fff50039"/><path d="M100-162.5l-14.6-128.4" stroke="#fff3A"/><path d="M100-162.5l16.5 128.4" stroke="#fff3A"/><path d="M100-162.5l-135.8-9.4" stroke="#fff5003B"/><path d="M100-162.5l124.4 59.2" stroke="#fff3B"/><path d="M100-162.5l-25.2-139.9" stroke="#fff5003C"/><path d="M100-162.5l56.5-131.1" stroke="#c2e1ff3C"/><path d="M100-162.5l140.1-37.9" stroke="#c2e1ff3C"/><path d="M100-162.5l137.1-48.1" stroke="#fff3C"/><path d="M100-162.5l7.6 153" stroke="#fff3D"/><path d="M100-162.5l-43.6 147" stroke="#fff5003D"/><path d="M100-162.5l-152.2-35.9" stroke="#005bbb3E"/><path d="M100-162.5l-157.3 4.4" stroke="#fff5003E"/><path d="M100-162.5l-116.7 107.6" stroke="#fff5003E"/><path d="M100-162.5l-153.9-44.3" stroke="#c2e1ff3F"/><path d="M100-162.5l162.4 0" stroke="#c2e1ff3F"/><path d="M100-162.5l-108.1-123.7" stroke="#c2e1ff40"/><path d="M100-162.5l-53.4 163.3" stroke="#fff41"/><path d="M100-162.5l-153.4-81.2" stroke="#005bbb42"/><path d="M100-162.5l-163.4-59.1" stroke="#fff42"/><path d="M100-162.5l-162.2 64.6" stroke="#005bbb42"/><path d="M100-162.5l-138.8 112.7" stroke="#fff43"/><path d="M100-162.5l-132.3-120.5" stroke="#fff43"/><path d="M100-162.5l164-78.5" stroke="#005bbb44"/><path d="M100-162.5l-132.2-128.9" stroke="#c2e1ff44"/><path d="M100-162.5l109.2 151.3" stroke="#005bbb45"/><path d="M100-162.5l176.5 61.9" stroke="#fff45"/><path d="M100-162.5l120.3-148.9" stroke="#fff50046"/><path d="M100-162.5l143.8-126.7" stroke="#fff46"/><path d="M100-162.5l192.8-18.8" stroke="#c2e1ff47"/><path d="M100-162.5l10.9-195" stroke="#fff47"/><path d="M100-162.5l195.2-39.6" stroke="#fff50049"/><path d="M100-162.5l-177.7-92.9" stroke="#fff50049"/><path d="M100-162.5l-181.7 97.6" stroke="#fff4B"/><path d="M100-162.5l-0.2 206.4" stroke="#fff5004B"/><path d="M100-162.5l-75.6-192.7" stroke="#fff5004B"/><path d="M100-162.5l188.4 85.8" stroke="#fff4B"/><path d="M100-162.5l-184.1 95" stroke="#c2e1ff4B"/><path d="M100-162.5l-96.2 184.3" stroke="#c2e1ff4C"/><path d="M100-162.5l-167.3 124.4" stroke="#c2e1ff4C"/><path d="M100-162.5l64.6 198.8" stroke="#005bbb4C"/><path d="M100-162.5l200.1 60.9" stroke="#c2e1ff4C"/><path d="M100-162.5l-170.1-124.8" stroke="#c2e1ff4D"/><path d="M100-162.5l-170.4-128.1" stroke="#c2e1ff4E"/><path d="M100-162.5l202.4-69.9" stroke="#c2e1ff4E"/><path d="M100-162.5l131.7-171" stroke="#fff5004F"/><path d="M100-162.5l-212.7 40.2" stroke="#c2e1ff4F"/><path d="M100-162.5l0.1 218" stroke="#fff50050"/><path d="M100-162.5l147.9-163.5" stroke="#fff52"/><path d="M100-162.5l122.3 184.9" stroke="#fff50052"/><path d="M100-162.5l-49.6-216.3" stroke="#005bbb52"/><path d="M100-162.5l-164.2 150.7" stroke="#fff53"/><path d="M100-162.5l168.8-148.6" stroke="#005bbb54"/><path d="M100-162.5l-224.9-2.2" stroke="#fff50054"/><path d="M100-162.5l208.3-89.4" stroke="#fff50055"/><path d="M100-162.5l192.1 121.4" stroke="#c2e1ff56"/><path d="M100-162.5l169.4-153.5" stroke="#005bbb57"/><path d="M100-162.5l-35.4 226.1" stroke="#fff50057"/><path d="M100-162.5l4.8 229.1" stroke="#c2e1ff57"/><path d="M100-162.5l103.7 204.3" stroke="#fff57"/><path d="M100-162.5l-220.7-62.6" stroke="#c2e1ff58"/><path d="M100-162.5l-43.3-226.5" stroke="#fff59"/><path d="M100-162.5l1.2-230.8" stroke="#c2e1ff59"/><path d="M100-162.5l189.1-132.6" stroke="#005bbb59"/><path d="M100-162.5l-221.6-68.7" stroke="#fff5A"/><path d="M100-162.5l-167.5 161.4" stroke="#005bbb5B"/><path d="M100-162.5l-172.8 155.9" stroke="#fff5005B"/><path d="M100-162.5l30.2 231.1" stroke="#fff5005B"/><path d="M100-162.5l-115.7 202.9" stroke="#fff5C"/><path d="M100-162.5l-85.9-218.4" stroke="#fff5E"/><path d="M100-162.5l68.8 224.4" stroke="#fff5005E"/><path d="M100-162.5l230.5 45.5" stroke="#fff5005E"/><path d="M100-162.5l107.9 209.2" stroke="#005bbb5F"/><path d="M100-162.5l125-199.4" stroke="#005bbb5F"/><path d="M100-162.5l230.6 48" stroke="#fff60"/><path d="M100-162.5l-233.8 28.7" stroke="#fff60"/><path d="M100-162.5l-231.2-46.2" stroke="#fff60"/><path d="M100-162.5l205.6 116" stroke="#fff50061"/><path d="M100-162.5l106.3 210.8" stroke="#c2e1ff62"/><path d="M100-162.5l-157.7 175.9" stroke="#005bbb62"/><path d="M100-162.5l-235.6 17" stroke="#c2e1ff62"/><path d="M100-162.5l-135.4 193.6" stroke="#005bbb63"/><path d="M100-162.5l-81.3 221.8" stroke="#fff63"/><path d="M100-162.5l230.7-50.9" stroke="#fff64"/><path d="M100-162.5l72.7 224.7" stroke="#fff50064"/><path d="M100-162.5l224 74.6" stroke="#fff50066"/><path d="M100-162.5l-159.9-173.3" stroke="#005bbb66"/><path d="M100-162.5l-140.5 188.8" stroke="#fff50068"/><path d="M100-162.5l-94.8-215.1" stroke="#fff50069"/><path d="M100-162.5l177.5 153.8" stroke="#fff69"/><path d="M100-162.5l39.1 231.5" stroke="#005bbb69"/><path d="M100-162.5l26.7-233.3" stroke="#c2e1ff69"/><path d="M100-162.5l4.5-234.1" stroke="#005bbb6A"/><path d="M100-162.5l-70.8-222.7" stroke="#c2e1ff6B"/><path d="M100-162.5l124-197.7" stroke="#005bbb6B"/><path d="M100-162.5l-227 51.4" stroke="#fff6C"/><path d="M100-162.5l231.6 7.7" stroke="#005bbb6D"/><path d="M100-162.5l-161-166.4" stroke="#005bbb6E"/><path d="M100-162.5l-216.1-81.7" stroke="#c2e1ff6E"/><path d="M100-162.5l-151.7 174" stroke="#fff5006E"/><path d="M100-162.5l35 227.4" stroke="#005bbb6F"/><path d="M100-162.5l-61.1 221.9" stroke="#005bbb6F"/><path d="M100-162.5l-205 100.9" stroke="#005bbb70"/><path d="M100-162.5l-222.3-3.2" stroke="#fff74"/><path d="M100-162.5l62.2 213.3" stroke="#005bbb75"/><path d="M100-162.5l-213.6 59.9" stroke="#fff75"/><path d="M100-162.5l-97.5 198.1" stroke="#c2e1ff75"/><path d="M100-162.5l-193.7 103.9" stroke="#005bbb76"/><path d="M100-162.5l-36.7 215.8" stroke="#fff76"/><path d="M100-162.5l99.2-189.7" stroke="#005bbb79"/><path d="M100-162.5l-171.7-122.9" stroke="#c2e1ff7A"/><path d="M100-162.5l-199.1-67.2" stroke="#fff5007A"/><path d="M100-162.5l-157.9-138.4" stroke="#c2e1ff7A"/><path d="M100-162.5l202.5 55" stroke="#c2e1ff7A"/><path d="M100-162.5l-114.1 175.6" stroke="#c2e1ff7B"/><path d="M100-162.5l-157.5 135.9" stroke="#005bbb7B"/><path d="M100-162.5l204.1-39.4" stroke="#005bbb7B"/><path d="M100-162.5l143.1-147.9" stroke="#c2e1ff7C"/><path d="M100-162.5l-162.5 124.6" stroke="#fff7C"/><path d="M100-162.5l-144.9-144.3" stroke="#005bbb7D"/><path d="M100-162.5l-98.8-178.2" stroke="#fff7D"/><path d="M100-162.5l104.7 173.5" stroke="#005bbb7D"/><path d="M100-162.5l-102.4-174.1" stroke="#c2e1ff7D"/><path d="M100-162.5l136.5-148.5" stroke="#fff7E"/><path d="M100-162.5l169.2 99.6" stroke="#fff5007F"/><path d="M100-162.5l186.2-60.8" stroke="#fff5007F"/><path d="M100-162.5l110.7 161.2" stroke="#fff80"/><path d="M100-162.5l-174-72.9" stroke="#fff82"/><path d="M100-162.5l-17.5-186.2" stroke="#fff50082"/><path d="M100-162.5l95.3-160.2" stroke="#fff82"/><path d="M100-162.5l184.4 17.3" stroke="#fff83"/><path d="M100-162.5l125.9 135.4" stroke="#c2e1ff83"/><path d="M100-162.5l150.2 105.3" stroke="#fff50083"/><path d="M100-162.5l85.8 160.6" stroke="#005bbb83"/><path d="M100-162.5l-177.9 23.5" stroke="#fff50084"/><path d="M100-162.5l154.4 89.4" stroke="#005bbb84"/><path d="M100-162.5l163 72" stroke="#005bbb84"/><path d="M100-162.5l129 120.3" stroke="#fff50085"/><path d="M100-162.5l-3.5 175.9" stroke="#005bbb85"/><path d="M100-162.5l163.2-11" stroke="#fff50088"/><path d="M100-162.5l63.4-146.7" stroke="#c2e1ff88"/><path d="M100-162.5l23.1 153.1" stroke="#005bbb89"/><path d="M100-162.5l-31.9 148.5" stroke="#005bbb8A"/><path d="M100-162.5l-125 83.6" stroke="#005bbb8A"/><path d="M100-162.5l-138.8-55.5" stroke="#fff8A"/><path d="M100-162.5l114.6 91.5" stroke="#005bbb8B"/><path d="M100-162.5l101.4 95.4" stroke="#fff8C"/><path d="M100-162.5l51.7 127.2" stroke="#fff8C"/><path d="M100-162.5l-118.2-69.3" stroke="#c2e1ff8C"/><path d="M100-162.5l-100.2 84.2" stroke="#c2e1ff8D"/><path d="M100-162.5l-24.7 125.8" stroke="#005bbb8D"/><path d="M100-162.5l-84.9-94.3" stroke="#c2e1ff8E"/><path d="M100-162.5l-32.8-121.6" stroke="#fff8E"/><path d="M100-162.5l-36-120.1" stroke="#fff8E"/><path d="M100-162.5l76 98.4" stroke="#c2e1ff8E"/><path d="M100-162.5l51 112.8" stroke="#c2e1ff8E"/><path d="M100-162.5l69.8 101.5" stroke="#fff8E"/><path d="M100-162.5l19.5-121.4" stroke="#fff5008E"/><path d="M100-162.5l74.8-96.6" stroke="#fff8E"/><path d="M100-162.5l52.2 103.9" stroke="#fff8F"/><path d="M100-162.5l109.4 23.9" stroke="#005bbb90"/><path d="M100-162.5l105.6 30.8" stroke="#005bbb90"/><path d="M100-162.5l-102.8 14.3" stroke="#fff50090"/><path d="M100-162.5l20.8-93.5" stroke="#fff91"/><path d="M100-162.5l79.1 34.6" stroke="#005bbb92"/><path d="M100-162.5l-11-68.8" stroke="#c2e1ff93"/><path d="M100-162.5l-25.8 59.8" stroke="#fff94"/><path d="M100-162.5l57 29.6" stroke="#fff94"/><path d="M100-162.5l55.7-3.3" stroke="#005bbb94"/><path d="M100-162.5l-0.6-2.8" stroke="#c2e1ff95"/></g><g class="sparcs"><path d="M130-179.4a5.9 5.9 0 1 1 0-11.9 5.9 5.9 0 0 1 0 11.9" fill="#005bbb7D"/><path d="M138.4-170.2a6 6 0 1 1 0-11.9 6 6 0 0 1 0 11.9" fill="#fff7D"/><path d="M144.6-162.5a6 6 0 1 1 0-12 6 6 0 0 1 0 12" fill="#fff7E"/><path d="M146.4-194a6 6 0 1 1 0-12 6 6 0 0 1 0 12" fill="#005bbb7F"/><path d="M61.6-103a6 6 0 1 1 0-12.1 6 6 0 0 1 0 12.1" fill="#005bbb7F"/><path d="M56.8-223.7a6.1 6.1 0 1 1 0-12.2 6.1 6.1 0 0 1 0 12.2" fill="#c2e1ff80"/><path d="M11.7-168.8a6.1 6.1 0 1 1 0-12.3 6.1 6.1 0 0 1 0 12.3" fill="#fff81"/><path d="M32.4-246.9a6.3 6.3 0 1 1 0-12.6 6.3 6.3 0 0 1 0 12.6" fill="#c2e1ff84"/><path d="M91.9-273.7a6.3 6.3 0 1 1 0-12.6 6.3 6.3 0 0 1 0 12.6" fill="#fff50085"/><path d="M128.4-39.5a6.3 6.3 0 1 1 0-12.6 6.3 6.3 0 0 1 0 12.6" fill="#fff86"/><path d="M22.6-59.1a6.3 6.3 0 1 1 0-12.7 6.3 6.3 0 0 1 0 12.7" fill="#005bbb86"/><path d="M204.4-88.2a6.4 6.4 0 1 1 0-12.7 6.4 6.4 0 0 1 0 12.7" fill="#fff86"/><path d="M85.4-284.5a6.4 6.4 0 1 1 0-12.8 6.4 6.4 0 0 1 0 12.8" fill="#fff50087"/><path d="M116.5-27.7a6.4 6.4 0 1 1 0-12.8 6.4 6.4 0 0 1 0 12.8" fill="#c2e1ff87"/><path d="M-35.8-165.5a6.4 6.4 0 1 1 0-12.9 6.4 6.4 0 0 1 0 12.9" fill="#005bbb88"/><path d="M224.4-96.8a6.5 6.5 0 1 1 0-13 6.5 6.5 0 0 1 0 13" fill="#005bbb89"/><path d="M74.8-295.9a6.5 6.5 0 1 1 0-13 6.5 6.5 0 0 1 0 13" fill="#fff5008A"/><path d="M156.5-287.1a6.5 6.5 0 1 1 0-13 6.5 6.5 0 0 1 0 13" fill="#fff8A"/><path d="M240.1-193.8a6.5 6.5 0 1 1 0-13.1 6.5 6.5 0 0 1 0 13.1" fill="#fff8A"/><path d="M237.1-204.1a6.5 6.5 0 1 1 0-13.1 6.5 6.5 0 0 1 0 13.1" fill="#c2e1ff8A"/><path d="M107.6-2.9a6.6 6.6 0 1 1 0-13.2 6.6 6.6 0 0 1 0 13.2" fill="#fff8C"/><path d="M56.4-8.8a6.6 6.6 0 1 1 0-13.3 6.6 6.6 0 0 1 0 13.3" fill="#c2e1ff8C"/><path d="M-52.2-191.7a6.6 6.6 0 1 1 0-13.3 6.6 6.6 0 0 1 0 13.3" fill="#005bbb8D"/><path d="M-57.3-151.4a6.7 6.7 0 1 1 0-13.4 6.7 6.7 0 0 1 0 13.4" fill="#fff8D"/><path d="M-16.7-48.3a6.7 6.7 0 1 1 0-13.3 6.7 6.7 0 0 1 0 13.3" fill="#fff8D"/><path d="M-53.9-200.1a6.7 6.7 0 1 1 0-13.4 6.7 6.7 0 0 1 0 13.4" fill="#fff5008E"/><path d="M262.4-155.8a6.7 6.7 0 1 1 0-13.4 6.7 6.7 0 0 1 0 13.4" fill="#c2e1ff8E"/><path d="M-8.1-279.4a6.7 6.7 0 1 1 0-13.5 6.7 6.7 0 0 1 0 13.5" fill="#fff8F"/><path d="M46.6 7.6a6.8 6.8 0 1 1 0-13.6 6.8 6.8 0 0 1 0 13.6" fill="#c2e1ff91"/><path d="M-53.4-236.8a6.9 6.9 0 1 1 0-13.8 6.9 6.9 0 0 1 0 13.8" fill="#fff50091"/><path d="M-63.4-214.7a6.9 6.9 0 1 1 0-13.7 6.9 6.9 0 0 1 0 13.7" fill="#c2e1ff91"/><path d="M-62.2-91a6.9 6.9 0 1 1 0-13.8 6.9 6.9 0 0 1 0 13.8" fill="#fff92"/><path d="M-38.8-42.9a6.9 6.9 0 1 1 0-13.8 6.9 6.9 0 0 1 0 13.8" fill="#fff93"/><path d="M-32.3-276a6.9 6.9 0 1 1 0-13.9 6.9 6.9 0 0 1 0 13.9" fill="#fff93"/><path d="M264-234a7 7 0 1 1 0-14 7 7 0 0 1 0 14" fill="#005bbb94"/><path d="M-32.2-284.4a7 7 0 1 1 0-14 7 7 0 0 1 0 14" fill="#005bbb95"/><path d="M209.2-4.2a7 7 0 1 1 0-14 7 7 0 0 1 0 14" fill="#005bbb96"/><path d="M276.5-93.6a7.1 7.1 0 1 1 0-14.1 7.1 7.1 0 0 1 0 14.1" fill="#c2e1ff96"/><path d="M220.3-304.3a7.1 7.1 0 1 1 0-14.2 7.1 7.1 0 0 1 0 14.2" fill="#005bbb97"/><path d="M243.8-282a7.1 7.1 0 1 1 0-14.3 7.1 7.1 0 0 1 0 14.3" fill="#005bbb97"/><path d="M292.8-174.1a7.2 7.2 0 1 1 0-14.4 7.2 7.2 0 0 1 0 14.4" fill="#fff50098"/><path d="M110.9-350.3a7.2 7.2 0 1 1 0-14.4 7.2 7.2 0 0 1 0 14.4" fill="#c2e1ff99"/><path d="M295.2-194.8a7.3 7.3 0 1 1 0-14.5 7.3 7.3 0 0 1 0 14.5" fill="#005bbb9B"/><path d="M-77.7-248.1a7.3 7.3 0 1 1 0-14.6 7.3 7.3 0 0 1 0 14.6" fill="#c2e1ff9B"/><path d="M-81.7-57.5a7.4 7.4 0 1 1 0-14.8 7.4 7.4 0 0 1 0 14.8" fill="#fff5009E"/><path d="M99.8 51.3a7.4 7.4 0 1 1 0-14.8 7.4 7.4 0 0 1 0 14.8" fill="#c2e1ff9E"/><path d="M24.4-347.8a7.4 7.4 0 1 1 0-14.8 7.4 7.4 0 0 1 0 14.8" fill="#fff9E"/><path d="M288.4-69.2a7.4 7.4 0 1 1 0-14.9 7.4 7.4 0 0 1 0 14.9" fill="#005bbb9E"/><path d="M-84.1-60.1a7.4 7.4 0 1 1 0-14.9 7.4 7.4 0 0 1 0 14.9" fill="#fff9E"/><path d="M3.8 29.3a7.5 7.5 0 1 1 0-14.9 7.5 7.5 0 0 1 0 14.9" fill="#fff9F"/><path d="M-67.3-30.6a7.5 7.5 0 1 1 0-15 7.5 7.5 0 0 1 0 15" fill="#c2e1ff9F"/><path d="M164.6 43.8a7.5 7.5 0 1 1 0-15 7.5 7.5 0 0 1 0 15" fill="#fff5009F"/><path d="M300.1-94.1a7.5 7.5 0 1 1 0-15 7.5 7.5 0 0 1 0 15" fill="#fff5009F"/><path d="M-70.1-279.8a7.5 7.5 0 1 1 0-15.1 7.5 7.5 0 0 1 0 15.1" fill="#005bbbA0"/><path d="M-70.4-283a7.6 7.6 0 1 1 0-15.2 7.6 7.6 0 0 1 0 15.2" fill="#fff500A2"/><path d="M302.4-224.8a7.6 7.6 0 1 1 0-15.2 7.6 7.6 0 0 1 0 15.2" fill="#fffA2"/><path d="M231.7-325.8a7.7 7.7 0 1 1 0-15.4 7.7 7.7 0 0 1 0 15.4" fill="#fff500A3"/><path d="M-112.7-114.6a7.7 7.7 0 1 1 0-15.4 7.7 7.7 0 0 1 0 15.4" fill="#fffA3"/><path d="M100.1 63.2a7.7 7.7 0 1 1 0-15.4 7.7 7.7 0 0 1 0 15.4" fill="#fff500A4"/><path d="M247.9-318.2a7.8 7.8 0 1 1 0-15.6 7.8 7.8 0 0 1 0 15.6" fill="#fffA6"/><path d="M222.3 30.3a7.8 7.8 0 1 1 0-15.7 7.8 7.8 0 0 1 0 15.7" fill="#005bbbA7"/><path d="M50.4-370.9a7.8 7.8 0 1 1 0-15.7 7.8 7.8 0 0 1 0 15.7" fill="#fffA7"/><path d="M-64.2-3.9a7.9 7.9 0 1 1 0-15.8 7.9 7.9 0 0 1 0 15.8" fill="#c2e1ffA8"/><path d="M268.8-303.1a8 8 0 1 1 0-15.9 8 8 0 0 1 0 15.9" fill="#fffAA"/><path d="M-124.9-156.7a8 8 0 1 1 0-15.9 8 8 0 0 1 0 15.9" fill="#c2e1ffAA"/><path d="M308.3-243.8a8 8 0 1 1 0-16.1 8 8 0 0 1 0 16.1" fill="#c2e1ffAB"/><path d="M292.1-33.1a8.1 8.1 0 1 1 0-16.1 8.1 8.1 0 0 1 0 16.1" fill="#fff500AC"/><path d="M269.4-307.9a8.1 8.1 0 1 1 0-16.2 8.1 8.1 0 0 1 0 16.2" fill="#c2e1ffAD"/><path d="M64.6 71.8a8.1 8.1 0 1 1 0-16.3 8.1 8.1 0 0 1 0 16.3" fill="#c2e1ffAD"/><path d="M104.8 74.7a8.1 8.1 0 1 1 0-16.3 8.1 8.1 0 0 1 0 16.3" fill="#fff500AE"/><path d="M203.7 50a8.1 8.1 0 1 1 0-16.3 8.1 8.1 0 0 1 0 16.3" fill="#fffAE"/><path d="M-120.7-216.9a8.2 8.2 0 1 1 0-16.3 8.2 8.2 0 0 1 0 16.3" fill="#fff500AE"/><path d="M56.7-380.8a8.2 8.2 0 1 1 0-16.5 8.2 8.2 0 0 1 0 16.5" fill="#fff500AF"/><path d="M101.2-385.1a8.2 8.2 0 1 1 0-16.5 8.2 8.2 0 0 1 0 16.5" fill="#fffB0"/><path d="M289.1-286.8a8.2 8.2 0 1 1 0-16.5 8.2 8.2 0 0 1 0 16.5" fill="#c2e1ffB0"/><path d="M-121.6-222.9a8.3 8.3 0 1 1 0-16.6 8.3 8.3 0 0 1 0 16.6" fill="#fffB1"/><path d="M-67.5 7.2a8.3 8.3 0 1 1 0-16.6 8.3 8.3 0 0 1 0 16.6" fill="#c2e1ffB2"/><path d="M-72.8 1.8a8.4 8.4 0 1 1 0-16.7 8.4 8.4 0 0 1 0 16.7" fill="#c2e1ffB2"/><path d="M130.2 77a8.4 8.4 0 1 1 0-16.7 8.4 8.4 0 0 1 0 16.7" fill="#fffB3"/><path d="M-15.7 48.8a8.4 8.4 0 1 1 0-16.8 8.4 8.4 0 0 1 0 16.8" fill="#fffB4"/><path d="M14.1-372.4a8.5 8.5 0 1 1 0-17.1 8.5 8.5 0 0 1 0 17.1" fill="#005bbbB6"/><path d="M168.8 70.4a8.5 8.5 0 1 1 0-17 8.5 8.5 0 0 1 0 17" fill="#fff500B6"/><path d="M330.5-108.4a8.5 8.5 0 1 1 0-17.1 8.5 8.5 0 0 1 0 17.1" fill="#fff500B7"/><path d="M207.9 55.3a8.6 8.6 0 1 1 0-17.2 8.6 8.6 0 0 1 0 17.2" fill="#005bbbB8"/><path d="M225-353.3a8.6 8.6 0 1 1 0-17.3 8.6 8.6 0 0 1 0 17.3" fill="#fff500B8"/><path d="M330.6-105.9a8.6 8.6 0 1 1 0-17.3 8.6 8.6 0 0 1 0 17.3" fill="#c2e1ffB8"/><path d="M-133.8-125.2a8.6 8.6 0 1 1 0-17.2 8.6 8.6 0 0 1 0 17.2" fill="#c2e1ffB8"/><path d="M-131.2-200a8.7 8.7 0 1 1 0-17.4 8.7 8.7 0 0 1 0 17.4" fill="#c2e1ffB9"/><path d="M305.6-37.7a8.7 8.7 0 1 1 0-17.5 8.7 8.7 0 0 1 0 17.5" fill="#c2e1ffBB"/><path d="M206.3 57.1a8.8 8.8 0 1 1 0-17.5 8.8 8.8 0 0 1 0 17.5" fill="#005bbbBB"/><path d="M-57.7 22.1a8.8 8.8 0 1 1 0-17.5 8.8 8.8 0 0 1 0 17.5" fill="#005bbbBC"/><path d="M-135.6-136.7a8.8 8.8 0 1 1 0-17.6 8.8 8.8 0 0 1 0 17.6" fill="#c2e1ffBC"/><path d="M-35.4 40a8.8 8.8 0 1 1 0-17.7 8.8 8.8 0 0 1 0 17.7" fill="#fff500BD"/><path d="M18.7 68.2a8.8 8.8 0 1 1 0-17.7 8.8 8.8 0 0 1 0 17.7" fill="#fff500BD"/><path d="M330.7-204.5a8.9 8.9 0 1 1 0-17.7 8.9 8.9 0 0 1 0 17.7" fill="#fffBE"/><path d="M172.7 71.2a8.9 8.9 0 1 1 0-17.9 8.9 8.9 0 0 1 0 17.9" fill="#c2e1ffBF"/><path d="M324-79a9 9 0 1 1 0-17.9 9 9 0 0 1 0 17.9" fill="#fffC0"/><path d="M-59.9-326.8a9 9 0 1 1 0-18.1 9 9 0 0 1 0 18.1" fill="#fffC1"/><path d="M-40.5 35.4a9.1 9.1 0 1 1 0-18.2 9.1 9.1 0 0 1 0 18.2" fill="#005bbbC3"/><path d="M5.2-368.4a9.2 9.2 0 1 1 0-18.3 9.2 9.2 0 0 1 0 18.3" fill="#fffC4"/><path d="M277.5 0.5a9.2 9.2 0 1 1 0-18.3 9.2 9.2 0 0 1 0 18.3" fill="#fff500C4"/><path d="M139.1 78.2a9.2 9.2 0 1 1 0-18.3 9.2 9.2 0 0 1 0 18.3" fill="#fffC5"/><path d="M126.7-386.6a9.2 9.2 0 1 1 0-18.4 9.2 9.2 0 0 1 0 18.4" fill="#fff500C5"/><path d="M104.5-387.4a9.3 9.3 0 1 1 0-18.5 9.3 9.3 0 0 1 0 18.5" fill="#005bbbC6"/><path d="M29.2-375.9a9.3 9.3 0 1 1 0-18.6 9.3 9.3 0 0 1 0 18.6" fill="#005bbbC7"/><path d="M224-350.9a9.3 9.3 0 1 1 0-18.6 9.3 9.3 0 0 1 0 18.6" fill="#fffC8"/><path d="M-127-101.7a9.4 9.4 0 1 1 0-18.7 9.4 9.4 0 0 1 0 18.7" fill="#005bbbC9"/><path d="M331.6-145.4a9.4 9.4 0 1 1 0-18.8 9.4 9.4 0 0 1 0 18.8" fill="#005bbbCA"/><path d="M-61-319.4a9.5 9.5 0 1 1 0-18.9 9.5 9.5 0 0 1 0 18.9" fill="#fffCB"/><path d="M-116.1-234.8a9.5 9.5 0 1 1 0-18.9 9.5 9.5 0 0 1 0 18.9" fill="#fff500CB"/><path d="M-51.7 21a9.5 9.5 0 1 1 0-19 9.5 9.5 0 0 1 0 19" fill="#fffCB"/><path d="M135 74.5a9.5 9.5 0 1 1 0-19.1 9.5 9.5 0 0 1 0 19.1" fill="#fff500CC"/><path d="M38.9 68.9a9.5 9.5 0 1 1 0-19.1 9.5 9.5 0 0 1 0 19.1" fill="#fffCC"/><path d="M-105-52a9.6 9.6 0 1 1 0-19.2 9.6 9.6 0 0 1 0 19.2" fill="#fffCE"/><path d="M-122.3-155.9a9.9 9.9 0 1 1 0-19.7 9.9 9.9 0 0 1 0 19.7" fill="#fff500D3"/><path d="M162.2 60.6a9.9 9.9 0 1 1 0-19.7 9.9 9.9 0 0 1 0 19.7" fill="#005bbbD4"/><path d="M-113.6-92.8a9.9 9.9 0 1 1 0-19.7 9.9 9.9 0 0 1 0 19.7" fill="#005bbbD4"/><path d="M2.5 45.5a9.9 9.9 0 1 1 0-19.8 9.9 9.9 0 0 1 0 19.8" fill="#fff500D5"/><path d="M-93.7-48.6a9.9 9.9 0 1 1 0-19.9 9.9 9.9 0 0 1 0 19.9" fill="#fff500D5"/><path d="M63.3 63.3a10 10 0 1 1 0-19.9 10 10 0 0 1 0 19.9" fill="#c2e1ffD6"/><path d="M199.2-342.1a10.1 10.1 0 1 1 0-20.2 10.1 10.1 0 0 1 0 20.2" fill="#005bbbD9"/><path d="M-71.7-275.2a10.2 10.2 0 1 1 0-20.4 10.2 10.2 0 0 1 0 20.4" fill="#c2e1ffDB"/><path d="M-99.1-219.5a10.2 10.2 0 1 1 0-20.4 10.2 10.2 0 0 1 0 20.4" fill="#c2e1ffDB"/><path d="M-57.9-290.7a10.2 10.2 0 1 1 0-20.4 10.2 10.2 0 0 1 0 20.4" fill="#fffDB"/><path d="M302.5-97.3a10.2 10.2 0 1 1 0-20.5 10.2 10.2 0 0 1 0 20.5" fill="#fffDB"/><path d="M-14.1 23.3a10.2 10.2 0 1 1 0-20.5 10.2 10.2 0 0 1 0 20.5" fill="#c2e1ffDC"/><path d="M-57.5-16.3a10.3 10.3 0 1 1 0-20.5 10.3 10.3 0 0 1 0 20.5" fill="#fff500DC"/><path d="M304.1-191.7a10.3 10.3 0 1 1 0-20.5 10.3 10.3 0 0 1 0 20.5" fill="#c2e1ffDC"/><path d="M243.1-300.1a10.3 10.3 0 1 1 0-20.6 10.3 10.3 0 0 1 0 20.6" fill="#fffDD"/><path d="M-62.5-27.5a10.3 10.3 0 1 1 0-20.7 10.3 10.3 0 0 1 0 20.7" fill="#005bbbDE"/><path d="M-44.9-296.4a10.3 10.3 0 1 1 0-20.7 10.3 10.3 0 0 1 0 20.7" fill="#005bbbDE"/><path d="M1.2-330.3a10.4 10.4 0 1 1 0-20.7 10.4 10.4 0 0 1 0 20.7" fill="#c2e1ffDE"/><path d="M204.7 21.4a10.4 10.4 0 1 1 0-20.8 10.4 10.4 0 0 1 0 20.8" fill="#c2e1ffDF"/><path d="M-2.4-326.2a10.4 10.4 0 1 1 0-20.7 10.4 10.4 0 0 1 0 20.7" fill="#005bbbDF"/><path d="M236.5-300.6a10.4 10.4 0 1 1 0-20.8 10.4 10.4 0 0 1 0 20.8" fill="#fffDF"/><path d="M269.2-52.4a10.5 10.5 0 1 1 0-21 10.5 10.5 0 0 1 0 21" fill="#c2e1ffE2"/><path d="M286.2-212.8a10.5 10.5 0 1 1 0-21 10.5 10.5 0 0 1 0 21" fill="#fff500E2"/><path d="M210.7 9.2a10.5 10.5 0 1 1 0-21 10.5 10.5 0 0 1 0 21" fill="#fffE2"/><path d="M-74-224.7a10.6 10.6 0 1 1 0-21.3 10.6 10.6 0 0 1 0 21.3" fill="#005bbbE5"/><path d="M82.5-338.1a10.7 10.7 0 1 1 0-21.3 10.7 10.7 0 0 1 0 21.3" fill="#fff500E5"/><path d="M195.3-312a10.7 10.7 0 1 1 0-21.4 10.7 10.7 0 0 1 0 21.4" fill="#c2e1ffE5"/><path d="M284.4-134.5a10.7 10.7 0 1 1 0-21.4 10.7 10.7 0 0 1 0 21.4" fill="#fffE6"/><path d="M225.9-16.4a10.7 10.7 0 1 1 0-21.4 10.7 10.7 0 0 1 0 21.4" fill="#fffE6"/><path d="M250.2-46.4a10.7 10.7 0 1 1 0-21.5 10.7 10.7 0 0 1 0 21.5" fill="#fffE6"/><path d="M185.8 8.9a10.7 10.7 0 1 1 0-21.5 10.7 10.7 0 0 1 0 21.5" fill="#c2e1ffE7"/><path d="M-77.9-128.2a10.8 10.8 0 1 1 0-21.6 10.8 10.8 0 0 1 0 21.6" fill="#fffE8"/><path d="M254.4-62.3a10.8 10.8 0 1 1 0-21.6 10.8 10.8 0 0 1 0 21.6" fill="#005bbbE8"/><path d="M263-79.7a10.8 10.8 0 1 1 0-21.6 10.8 10.8 0 0 1 0 21.6" fill="#fffE8"/><path d="M229-31.3a10.8 10.8 0 1 1 0-21.7 10.8 10.8 0 0 1 0 21.7" fill="#fffE9"/><path d="M96.5 24.3a10.8 10.8 0 1 1 0-21.7 10.8 10.8 0 0 1 0 21.7" fill="#c2e1ffE9"/><path d="M263.2-162.5a11 11 0 1 1 0-22 11 11 0 0 1 0 22" fill="#005bbbEC"/><path d="M163.4-298.2a11 11 0 1 1 0-22 11 11 0 0 1 0 22" fill="#fffED"/><path d="M123.1 1.7a11.1 11.1 0 1 1 0-22.2 11.1 11.1 0 0 1 0 22.2" fill="#005bbbEF"/><path d="M68.1-2.9a11.1 11.1 0 1 1 0-22.2 11.1 11.1 0 0 1 0 22.2" fill="#fffEF"/><path d="M-25-67.8a11.1 11.1 0 1 1 0-22.3 11.1 11.1 0 0 1 0 22.3" fill="#c2e1ffF0"/><path d="M-38.8-206.8a11.1 11.1 0 1 1 0-22.3 11.1 11.1 0 0 1 0 22.3" fill="#005bbbF0"/><path d="M214.6-59.9a11.2 11.2 0 1 1 0-22.3 11.2 11.2 0 0 1 0 22.3" fill="#005bbbF0"/><path d="M201.4-55.9a11.2 11.2 0 1 1 0-22.5 11.2 11.2 0 0 1 0 22.5" fill="#005bbbF2"/><path d="M151.7-24a11.3 11.3 0 1 1 0-22.5 11.3 11.3 0 0 1 0 22.5" fill="#fffF2"/><path d="M-18.2-220.5a11.3 11.3 0 1 1 0-22.5 11.3 11.3 0 0 1 0 22.5" fill="#c2e1ffF2"/><path d="M-0.2-67a11.3 11.3 0 1 1 0-22.6 11.3 11.3 0 0 1 0 22.6" fill="#005bbbF4"/><path d="M75.3-25.3a11.3 11.3 0 1 1 0-22.7 11.3 11.3 0 0 1 0 22.7" fill="#005bbbF4"/><path d="M15.1-245.4a11.4 11.4 0 1 1 0-22.7 11.4 11.4 0 0 1 0 22.7" fill="#005bbbF4"/><path d="M67.2-272.7a11.4 11.4 0 1 1 0-22.7 11.4 11.4 0 0 1 0 22.7" fill="#fff500F4"/><path d="M64-271.2a11.4 11.4 0 1 1 0-22.7 11.4 11.4 0 0 1 0 22.7" fill="#c2e1ffF5"/><path d="M176-52.8a11.4 11.4 0 1 1 0-22.7 11.4 11.4 0 0 1 0 22.7" fill="#005bbbF5"/><path d="M151-38.3a11.4 11.4 0 1 1 0-22.8 11.4 11.4 0 0 1 0 22.8" fill="#fffF5"/><path d="M169.8-49.6a11.4 11.4 0 1 1 0-22.8 11.4 11.4 0 0 1 0 22.8" fill="#c2e1ffF5"/><path d="M119.5-272.5a11.4 11.4 0 1 1 0-22.7 11.4 11.4 0 0 1 0 22.7" fill="#fffF5"/><path d="M174.8-247.7a11.4 11.4 0 1 1 0-22.8 11.4 11.4 0 0 1 0 22.8" fill="#005bbbF5"/><path d="M152.2-47.2a11.4 11.4 0 1 1 0-22.8 11.4 11.4 0 0 1 0 22.8" fill="#c2e1ffF6"/><path d="M209.4-127.1a11.5 11.5 0 1 1 0-22.9 11.5 11.5 0 0 1 0 22.9" fill="#005bbbF7"/><path d="M205.6-120.2a11.5 11.5 0 1 1 0-22.9 11.5 11.5 0 0 1 0 22.9" fill="#fff500F7"/><path d="M-2.8-136.7a11.5 11.5 0 1 1 0-23 11.5 11.5 0 0 1 0 23" fill="#fff500F8"/><path d="M120.8-244.4a11.6 11.6 0 1 1 0-23.2 11.6 11.6 0 0 1 0 23.2" fill="#fffF9"/><path d="M179.1-116.3a11.6 11.6 0 1 1 0-23.2 11.6 11.6 0 0 1 0 23.2" fill="#fffFA"/><path d="M89-219.6a11.7 11.7 0 1 1 0-23.4 11.7 11.7 0 0 1 0 23.4" fill="#005bbbFC"/><path d="M74.2-91a11.7 11.7 0 1 1 0-23.4 11.7 11.7 0 0 1 0 23.4" fill="#005bbbFC"/><path d="M157-121.2a11.7 11.7 0 1 1 0-23.4 11.7 11.7 0 0 1 0 23.4" fill="#fffFC"/><path d="M155.7-154a11.7 11.7 0 1 1 0-23.5 11.7 11.7 0 0 1 0 23.5" fill="#fff500FD"/><path d="M99.4-153.5a11.8 11.8 0 1 1 0-23.6 11.8 11.8 0 0 1 0 23.6" fill="#fff500FE"/></g></svg>