<svg width="1200" height="675" viewBox="-500 -500 1200 675" xmlns="http://www.w3.org/2000/svg"><path d="M-500-500h1200v675h-1200z" fill="#000"/><style>.sparkles path{stroke-linecap:round; stroke-width:1}</style><g class="sparkles"><path d="M100-162.5l33.3-30.3" stroke="#00356632"/><path d="M100-162.5l-24.7-39.5" stroke="#00081432"/><path d="M100-162.5l38.9-27.5" stroke="#ffd60a33"/><path d="M100-162.5l2.9-62.7" stroke="#001d3d33"/><path d="M100-162.5l-64.8-44.9" stroke="#ffd60a34"/><path d="M100-162.5l85.9 7.8" stroke="#ffc30035"/><path d="M100-162.5l41.2-84" stroke="#ffd60a36"/><path d="M100-162.5l-95.8 21.7" stroke="#ffd60a36"/><path d="M100-162.5l91.9-38.2" stroke="#00081436"/><path d="M100-162.5l-69.4-76.4" stroke="#00356637"/><path d="M100-162.5l-100.1-43.9" stroke="#00081437"/><path d="M100-162.5l-109.1 47.6" stroke="#00356638"/><path d="M100-162.5l-118.4 26.8" stroke="#00356639"/><path d="M100-162.5l124.8-17.5" stroke="#ffc30039"/><path d="M100-162.5l-122.7 29.9" stroke="#ffd60a39"/><path d="M100-162.5l15.3-130.1" stroke="#ffc3003A"/><path d="M100-162.5l126.1-43" stroke="#ffd60a3A"/><path d="M100-162.5l-133.3 25.1" stroke="#ffd60a3B"/><path d="M100-162.5l108.7 104.4" stroke="#ffc3003D"/><path d="M100-162.5l-84.6 128.6" stroke="#ffc3003E"/><path d="M100-162.5l-131.5 87" stroke="#001d3d3E"/><path d="M100-162.5l150.7 61.8" stroke="#ffd60a3F"/><path d="M100-162.5l69.8-152.5" stroke="#001d3d40"/><path d="M100-162.5l169.4 26.4" stroke="#001d3d41"/><path d="M100-162.5l154.4 78.2" stroke="#001d3d41"/><path d="M100-162.5l-176.9-27.2" stroke="#00081443"/><path d="M100-162.5l-161.6 77.9" stroke="#00081443"/><path d="M100-162.5l-61.4 170.2" stroke="#ffc30043"/><path d="M100-162.5l-181.3 24.6" stroke="#ffd60a44"/><path d="M100-162.5l-186 13.8" stroke="#ffd60a45"/><path d="M100-162.5l-170.3-77" stroke="#ffd60a45"/><path d="M100-162.5l168-83.2" stroke="#001d3d45"/><path d="M100-162.5l-120 145.8" stroke="#ffd60a45"/><path d="M100-162.5l13-190.2" stroke="#00081446"/><path d="M100-162.5l-60.1-183" stroke="#ffd60a47"/><path d="M100-162.5l-130.2 146.8" stroke="#001d3d48"/><path d="M100-162.5l-148.3 129.6" stroke="#00081448"/><path d="M100-162.5l170.2-100.4" stroke="#00081448"/><path d="M100-162.5l-112.6-163.2" stroke="#00081448"/><path d="M100-162.5l-192.5 48.8" stroke="#00081448"/><path d="M100-162.5l200.8-10" stroke="#00081449"/><path d="M100-162.5l179.2 92" stroke="#ffc30049"/><path d="M100-162.5l-129.9-155.1" stroke="#ffc3004A"/><path d="M100-162.5l147.4 139.6" stroke="#001d3d4A"/><path d="M100-162.5l8.9-205.9" stroke="#0035664B"/><path d="M100-162.5l207.3 0" stroke="#001d3d4C"/><path d="M100-162.5l124 168.1" stroke="#ffc3004C"/><path d="M100-162.5l115.9 175.5" stroke="#0008144D"/><path d="M100-162.5l120.6 172.9" stroke="#0035664D"/><path d="M100-162.5l-16.6 211.1" stroke="#0008144D"/><path d="M100-162.5l-7.9-213.4" stroke="#ffd60a4E"/><path d="M100-162.5l-194.6-94.9" stroke="#001d3d4F"/><path d="M100-162.5l-30.7 215.2" stroke="#00356650"/><path d="M100-162.5l-136.7 170.1" stroke="#001d3d50"/><path d="M100-162.5l-88.1 202.5" stroke="#00081452"/><path d="M100-162.5l208.1 75.2" stroke="#00356652"/><path d="M100-162.5l164.8 148.4" stroke="#001d3d52"/><path d="M100-162.5l220.5-27.3" stroke="#ffc30052"/><path d="M100-162.5l103.4-199.5" stroke="#001d3d54"/><path d="M100-162.5l208.6 89.2" stroke="#ffd60a56"/><path d="M100-162.5l15.3-227.1" stroke="#001d3d56"/><path d="M100-162.5l219.2-62.3" stroke="#ffd60a56"/><path d="M100-162.5l214.1-78.7" stroke="#ffd60a56"/><path d="M100-162.5l76-215.5" stroke="#ffc30057"/><path d="M100-162.5l132.5 186.8" stroke="#ffc30057"/><path d="M100-162.5l38.9-227.3" stroke="#ffd60a59"/><path d="M100-162.5l131.6-189.8" stroke="#00356659"/><path d="M100-162.5l160.9-165.9" stroke="#00356659"/><path d="M100-162.5l-7.8-232.4" stroke="#0008145B"/><path d="M100-162.5l-130.7 192.5" stroke="#ffd60a5B"/><path d="M100-162.5l163.9-165.6" stroke="#001d3d5B"/><path d="M100-162.5l-16-232.6" stroke="#ffd60a5B"/><path d="M100-162.5l-184-143.6" stroke="#ffc3005C"/><path d="M100-162.5l16.9-233.2" stroke="#001d3d5C"/><path d="M100-162.5l-233-25.9" stroke="#0008145D"/><path d="M100-162.5l207.3-110" stroke="#001d3d5E"/><path d="M100-162.5l-32.3-232.8" stroke="#ffc3005E"/><path d="M100-162.5l-37.3-232.2" stroke="#001d3d5F"/><path d="M100-162.5l234.4-21.1" stroke="#0008145F"/><path d="M100-162.5l234.9 17" stroke="#ffd60a60"/><path d="M100-162.5l138.9-190.2" stroke="#ffd60a60"/><path d="M100-162.5l-235.6 1.4" stroke="#001d3d60"/><path d="M100-162.5l-149.3 182.7" stroke="#ffc30061"/><path d="M100-162.5l153.6-179.2" stroke="#00081461"/><path d="M100-162.5l-80.4 222" stroke="#00356662"/><path d="M100-162.5l122.5 201.9" stroke="#ffc30062"/><path d="M100-162.5l-110.9 208.5" stroke="#00356663"/><path d="M100-162.5l194.1 134.6" stroke="#001d3d64"/><path d="M100-162.5l-132.9 195.2" stroke="#00356665"/><path d="M100-162.5l-180.9 151.6" stroke="#001d3d66"/><path d="M100-162.5l-156.9-176.2" stroke="#00081466"/><path d="M100-162.5l-93.5 216.6" stroke="#001d3d66"/><path d="M100-162.5l215.8-95.3" stroke="#ffc30066"/><path d="M100-162.5l223.6-75.2" stroke="#001d3d66"/><path d="M100-162.5l-151.4-180.9" stroke="#001d3d66"/><path d="M100-162.5l82.7 220.7" stroke="#00081467"/><path d="M100-162.5l35-233" stroke="#ffc30067"/><path d="M100-162.5l-196.6 129.7" stroke="#ffd60a67"/><path d="M100-162.5l93.6 215.9" stroke="#00081468"/><path d="M100-162.5l-175.4 156.2" stroke="#001d3d69"/><path d="M100-162.5l-189.5-137.8" stroke="#ffc3006A"/><path d="M100-162.5l-174.1-156.5" stroke="#0035666A"/><path d="M100-162.5l81.1-219.3" stroke="#0008146B"/><path d="M100-162.5l173.5 156.5" stroke="#ffc3006B"/><path d="M100-162.5l-229.8-38.7" stroke="#001d3d6C"/><path d="M100-162.5l164.1-164.5" stroke="#0035666D"/><path d="M100-162.5l202.8 112.2" stroke="#001d3d6D"/><path d="M100-162.5l29.1 229.4" stroke="#001d3d6E"/><path d="M100-162.5l-31-228.4" stroke="#001d3d6E"/><path d="M100-162.5l-229.7 17.9" stroke="#ffc3006F"/><path d="M100-162.5l-2.7-230" stroke="#ffc3006F"/><path d="M100-162.5l-228.1-11.2" stroke="#001d3d70"/><path d="M100-162.5l95.4 207" stroke="#ffc30071"/><path d="M100-162.5l198.8 110.1" stroke="#ffc30071"/><path d="M100-162.5l-78.7-212.1" stroke="#00081472"/><path d="M100-162.5l43.3 222" stroke="#00356672"/><path d="M100-162.5l182.8-131.8" stroke="#ffc30072"/><path d="M100-162.5l192.3 116.2" stroke="#001d3d73"/><path d="M100-162.5l14.3-223.6" stroke="#ffd60a73"/><path d="M100-162.5l-178.9 133.8" stroke="#00356674"/><path d="M100-162.5l-172-142.5" stroke="#ffc30074"/><path d="M100-162.5l-153.7-161.7" stroke="#ffc30074"/><path d="M100-162.5l-221.4-12.1" stroke="#001d3d75"/><path d="M100-162.5l-13.6 220.6" stroke="#ffd60a75"/><path d="M100-162.5l-100.7 193.6" stroke="#001d3d77"/><path d="M100-162.5l-198.5-90.3" stroke="#00356677"/><path d="M100-162.5l16.6-216.6" stroke="#00356677"/><path d="M100-162.5l-210.8-51.3" stroke="#ffd60a77"/><path d="M100-162.5l194-95.9" stroke="#ffc30078"/><path d="M100-162.5l178.5 121.4" stroke="#ffc30078"/><path d="M100-162.5l-89.6 196.2" stroke="#001d3d78"/><path d="M100-162.5l109.5 183.1" stroke="#ffd60a79"/><path d="M100-162.5l-201.6 68.6" stroke="#ffd60a79"/><path d="M100-162.5l-199.5 71.5" stroke="#ffc3007A"/><path d="M100-162.5l-63.5-202.1" stroke="#ffd60a7A"/><path d="M100-162.5l-165 132.4" stroke="#0035667A"/><path d="M100-162.5l-122.5-171" stroke="#0008147A"/><path d="M100-162.5l207.8-29.5" stroke="#ffd60a7A"/><path d="M100-162.5l123.7-167.8" stroke="#0008147B"/><path d="M100-162.5l-137.9-154.2" stroke="#0008147C"/><path d="M100-162.5l105 178.1" stroke="#0035667C"/><path d="M100-162.5l-148.9 140.4" stroke="#0008147C"/><path d="M100-162.5l189.1-75.5" stroke="#ffc3007D"/><path d="M100-162.5l11.9 200.1" stroke="#0008147E"/><path d="M100-162.5l-30.5 197.4" stroke="#001d3d7E"/><path d="M100-162.5l176.5-77.4" stroke="#ffd60a80"/><path d="M100-162.5l-145.3 121.4" stroke="#00356681"/><path d="M100-162.5l-132.6 129.5" stroke="#001d3d82"/><path d="M100-162.5l-180.4-12.4" stroke="#ffd60a84"/><path d="M100-162.5l178.7 15" stroke="#001d3d84"/><path d="M100-162.5l130.3 113.4" stroke="#00081486"/><path d="M100-162.5l-167.6 38.1" stroke="#00081486"/><path d="M100-162.5l110.5 130" stroke="#ffd60a86"/><path d="M100-162.5l-60 159.6" stroke="#001d3d86"/><path d="M100-162.5l-48.9-160.9" stroke="#ffd60a87"/><path d="M100-162.5l-154.7-62.1" stroke="#ffd60a87"/><path d="M100-162.5l157.9 44.5" stroke="#ffc30087"/><path d="M100-162.5l-80.7 141" stroke="#00081488"/><path d="M100-162.5l138.9 70.6" stroke="#ffd60a89"/><path d="M100-162.5l-26.1-150.9" stroke="#ffc3008A"/><path d="M100-162.5l-40.3 144.8" stroke="#0035668A"/><path d="M100-162.5l91-113.2" stroke="#ffd60a8B"/><path d="M100-162.5l120.7 75.5" stroke="#ffd60a8B"/><path d="M100-162.5l-139.2 18.3" stroke="#0035668C"/><path d="M100-162.5l21.6-127.1" stroke="#0008148D"/><path d="M100-162.5l92.4 86.1" stroke="#0008148E"/><path d="M100-162.5l94.9 75.9" stroke="#0035668E"/><path d="M100-162.5l-52.2-88" stroke="#001d3d91"/><path d="M100-162.5l-2.1 100.2" stroke="#00081491"/><path d="M100-162.5l-59.3 67.9" stroke="#001d3d92"/><path d="M100-162.5l79.9 39.3" stroke="#001d3d92"/><path d="M100-162.5l-10.2 85.8" stroke="#00081492"/><path d="M100-162.5l-36.4 73.4" stroke="#001d3d92"/><path d="M100-162.5l72.4-20.2" stroke="#ffc30093"/><path d="M100-162.5l-33.7 54.2" stroke="#00081494"/><path d="M100-162.5l-33.9 52.5" stroke="#ffd60a94"/><path d="M100-162.5l-35.8-43.8" stroke="#001d3d94"/><path d="M100-162.5l-4.1 48.1" stroke="#001d3d94"/><path d="M100-162.5l-48-0.5" stroke="#00081494"/><path d="M100-162.5l33.3 24.9" stroke="#00081495"/><path d="M100-162.5l2-30.5" stroke="#001d3d95"/></g><g class="sparcs"><path d="M133.3-186.8a6 6 0 1 1 0-12 6 6 0 0 1 0 12" fill="#0035667E"/><path d="M75.3-196a6 6 0 1 1 0-12 6 6 0 0 1 0 12" fill="#ffd60a7E"/><path d="M138.9-184.1a6 6 0 1 1 0-11.9 6 6 0 0 1 0 11.9" fill="#0035667E"/><path d="M102.9-219.2a6 6 0 1 1 0-12 6 6 0 0 1 0 12" fill="#001d3d7F"/><path d="M35.2-201.3a6.1 6.1 0 1 1 0-12.2 6.1 6.1 0 0 1 0 12.2" fill="#001d3d80"/><path d="M185.9-148.6a6.1 6.1 0 1 1 0-12.2 6.1 6.1 0 0 1 0 12.2" fill="#ffc30081"/><path d="M141.2-240.3a6.1 6.1 0 1 1 0-12.3 6.1 6.1 0 0 1 0 12.3" fill="#00081482"/><path d="M4.2-134.7a6.2 6.2 0 1 1 0-12.3 6.2 6.2 0 0 1 0 12.3" fill="#ffd60a82"/><path d="M191.9-194.5a6.2 6.2 0 1 1 0-12.3 6.2 6.2 0 0 1 0 12.3" fill="#00356683"/><path d="M30.6-232.7a6.2 6.2 0 1 1 0-12.4 6.2 6.2 0 0 1 0 12.4" fill="#ffd60a83"/><path d="M-0.1-200.2a6.2 6.2 0 1 1 0-12.5 6.2 6.2 0 0 1 0 12.5" fill="#ffc30084"/><path d="M-9.1-108.5a6.3 6.3 0 1 1 0-12.7 6.3 6.3 0 0 1 0 12.7" fill="#ffc30085"/><path d="M-18.4-129.3a6.3 6.3 0 1 1 0-12.7 6.3 6.3 0 0 1 0 12.7" fill="#001d3d86"/><path d="M224.8-173.6a6.4 6.4 0 1 1 0-12.7 6.4 6.4 0 0 1 0 12.7" fill="#001d3d87"/><path d="M-22.7-126.2a6.4 6.4 0 1 1 0-12.8 6.4 6.4 0 0 1 0 12.8" fill="#00081487"/><path d="M115.3-286.2a6.4 6.4 0 1 1 0-12.8 6.4 6.4 0 0 1 0 12.8" fill="#001d3d87"/><path d="M226.1-199.1a6.4 6.4 0 1 1 0-12.8 6.4 6.4 0 0 1 0 12.8" fill="#00356688"/><path d="M-33.3-131a6.4 6.4 0 1 1 0-12.9 6.4 6.4 0 0 1 0 12.9" fill="#ffd60a88"/><path d="M208.7-51.5a6.6 6.6 0 1 1 0-13.2 6.6 6.6 0 0 1 0 13.2" fill="#0035668B"/><path d="M15.4-27.3a6.6 6.6 0 1 1 0-13.2 6.6 6.6 0 0 1 0 13.2" fill="#001d3d8C"/><path d="M-31.5-68.9a6.7 6.7 0 1 1 0-13.3 6.7 6.7 0 0 1 0 13.3" fill="#001d3d8D"/><path d="M250.7-94a6.7 6.7 0 1 1 0-13.4 6.7 6.7 0 0 1 0 13.4" fill="#001d3d8E"/><path d="M169.8-308.3a6.8 6.8 0 1 1 0-13.5 6.8 6.8 0 0 1 0 13.5" fill="#00081490"/><path d="M269.4-129.2a6.8 6.8 0 1 1 0-13.7 6.8 6.8 0 0 1 0 13.7" fill="#00081491"/><path d="M254.4-77.4a6.8 6.8 0 1 1 0-13.7 6.8 6.8 0 0 1 0 13.7" fill="#ffc30091"/><path d="M-76.9-182.7a6.9 6.9 0 1 1 0-13.9 6.9 6.9 0 0 1 0 13.9" fill="#00081493"/><path d="M-61.6-77.6a6.9 6.9 0 1 1 0-13.9 6.9 6.9 0 0 1 0 13.9" fill="#001d3d93"/><path d="M38.6 14.6a7 7 0 1 1 0-13.9 7 7 0 0 1 0 13.9" fill="#ffd60a94"/><path d="M-81.3-130.9a7 7 0 1 1 0-14 7 7 0 0 1 0 14" fill="#00081494"/><path d="M-86-141.7a7 7 0 1 1 0-14.1 7 7 0 0 1 0 14.1" fill="#00356696"/><path d="M-70.3-232.5a7.1 7.1 0 1 1 0-14.1 7.1 7.1 0 0 1 0 14.1" fill="#001d3d96"/><path d="M268-238.6a7.1 7.1 0 1 1 0-14.1 7.1 7.1 0 0 1 0 14.1" fill="#ffd60a96"/><path d="M-20-9.6a7.1 7.1 0 1 1 0-14.2 7.1 7.1 0 0 1 0 14.2" fill="#00356696"/><path d="M113-345.6a7.1 7.1 0 1 1 0-14.2 7.1 7.1 0 0 1 0 14.2" fill="#001d3d97"/><path d="M39.9-338.3a7.1 7.1 0 1 1 0-14.3 7.1 7.1 0 0 1 0 14.3" fill="#001d3d98"/><path d="M-30.2-8.5a7.2 7.2 0 1 1 0-14.4 7.2 7.2 0 0 1 0 14.4" fill="#00356699"/><path d="M-48.3-25.7a7.2 7.2 0 1 1 0-14.5 7.2 7.2 0 0 1 0 14.5" fill="#001d3d9A"/><path d="M270.2-255.7a7.2 7.2 0 1 1 0-14.5 7.2 7.2 0 0 1 0 14.5" fill="#0008149A"/><path d="M-12.6-318.5a7.3 7.3 0 1 1 0-14.5 7.3 7.3 0 0 1 0 14.5" fill="#ffd60a9A"/><path d="M-92.5-106.4a7.3 7.3 0 1 1 0-14.6 7.3 7.3 0 0 1 0 14.6" fill="#0008149A"/><path d="M300.8-165.2a7.3 7.3 0 1 1 0-14.6 7.3 7.3 0 0 1 0 14.6" fill="#001d3d9B"/><path d="M279.2-63.2a7.3 7.3 0 1 1 0-14.6 7.3 7.3 0 0 1 0 14.6" fill="#001d3d9C"/><path d="M-29.9-310.3a7.3 7.3 0 1 1 0-14.6 7.3 7.3 0 0 1 0 14.6" fill="#0008149C"/><path d="M247.4-15.5a7.3 7.3 0 1 1 0-14.7 7.3 7.3 0 0 1 0 14.7" fill="#ffd60a9C"/><path d="M108.9-361a7.4 7.4 0 1 1 0-14.8 7.4 7.4 0 0 1 0 14.8" fill="#0008149E"/><path d="M307.3-155.1a7.4 7.4 0 1 1 0-14.8 7.4 7.4 0 0 1 0 14.8" fill="#001d3d9E"/><path d="M224 13a7.5 7.5 0 1 1 0-14.9 7.5 7.5 0 0 1 0 14.9" fill="#0035669F"/><path d="M215.9 20.6a7.5 7.5 0 1 1 0-15.1 7.5 7.5 0 0 1 0 15.1" fill="#000814A0"/><path d="M220.6 17.9a7.5 7.5 0 1 1 0-15 7.5 7.5 0 0 1 0 15" fill="#ffc300A0"/><path d="M83.4 56.2a7.5 7.5 0 1 1 0-15.1 7.5 7.5 0 0 1 0 15.1" fill="#ffc300A1"/><path d="M92.1-368.3a7.6 7.6 0 1 1 0-15.2 7.6 7.6 0 0 1 0 15.2" fill="#ffd60aA2"/><path d="M-94.6-249.7a7.7 7.7 0 1 1 0-15.3 7.7 7.7 0 0 1 0 15.3" fill="#ffd60aA3"/><path d="M69.3 60.4a7.7 7.7 0 1 1 0-15.4 7.7 7.7 0 0 1 0 15.4" fill="#ffd60aA4"/><path d="M-36.7 15.3a7.7 7.7 0 1 1 0-15.4 7.7 7.7 0 0 1 0 15.4" fill="#003566A5"/><path d="M11.9 47.8a7.8 7.8 0 1 1 0-15.6 7.8 7.8 0 0 1 0 15.6" fill="#003566A6"/><path d="M308.1-79.5a7.8 7.8 0 1 1 0-15.6 7.8 7.8 0 0 1 0 15.6" fill="#ffd60aA7"/><path d="M264.8-6.3a7.8 7.8 0 1 1 0-15.6 7.8 7.8 0 0 1 0 15.6" fill="#003566A7"/><path d="M320.5-181.9a7.9 7.9 0 1 1 0-15.7 7.9 7.9 0 0 1 0 15.7" fill="#000814A7"/><path d="M203.4-354.1a7.9 7.9 0 1 1 0-15.9 7.9 7.9 0 0 1 0 15.9" fill="#ffc300A9"/><path d="M308.6-65.2a8 8 0 1 1 0-16.1 8 8 0 0 1 0 16.1" fill="#000814AB"/><path d="M115.3-381.5a8.1 8.1 0 1 1 0-16.1 8.1 8.1 0 0 1 0 16.1" fill="#ffc300AC"/><path d="M319.2-216.7a8.1 8.1 0 1 1 0-16.2 8.1 8.1 0 0 1 0 16.2" fill="#ffc300AC"/><path d="M314.1-233.1a8.1 8.1 0 1 1 0-16.2 8.1 8.1 0 0 1 0 16.2" fill="#ffc300AD"/><path d="M176-369.9a8.1 8.1 0 1 1 0-16.2 8.1 8.1 0 0 1 0 16.2" fill="#000814AD"/><path d="M232.5 32.5a8.1 8.1 0 1 1 0-16.3 8.1 8.1 0 0 1 0 16.3" fill="#001d3dAE"/><path d="M138.9-381.6a8.2 8.2 0 1 1 0-16.4 8.2 8.2 0 0 1 0 16.4" fill="#ffc300AF"/><path d="M231.6-344.1a8.2 8.2 0 1 1 0-16.4 8.2 8.2 0 0 1 0 16.4" fill="#ffd60aB0"/><path d="M260.9-320.2a8.2 8.2 0 1 1 0-16.5 8.2 8.2 0 0 1 0 16.5" fill="#ffc300B0"/><path d="M92.2-386.5a8.3 8.3 0 1 1 0-16.7 8.3 8.3 0 0 1 0 16.7" fill="#003566B2"/><path d="M-30.7 38.3a8.3 8.3 0 1 1 0-16.7 8.3 8.3 0 0 1 0 16.7" fill="#000814B2"/><path d="M263.9-319.7a8.4 8.4 0 1 1 0-16.8 8.4 8.4 0 0 1 0 16.8" fill="#ffc300B3"/><path d="M84-386.7a8.4 8.4 0 1 1 0-16.8 8.4 8.4 0 0 1 0 16.8" fill="#003566B3"/><path d="M-84-297.7a8.4 8.4 0 1 1 0-16.8 8.4 8.4 0 0 1 0 16.8" fill="#ffc300B3"/><path d="M116.9-387.3a8.4 8.4 0 1 1 0-16.8 8.4 8.4 0 0 1 0 16.8" fill="#000814B4"/><path d="M-133-179.9a8.5 8.5 0 1 1 0-17 8.5 8.5 0 0 1 0 17" fill="#003566B6"/><path d="M307.3-264a8.5 8.5 0 1 1 0-17.1 8.5 8.5 0 0 1 0 17.1" fill="#ffc300B6"/><path d="M67.7-386.8a8.6 8.6 0 1 1 0-17.1 8.6 8.6 0 0 1 0 17.1" fill="#ffd60aB7"/><path d="M62.7-386.2a8.6 8.6 0 1 1 0-17.1 8.6 8.6 0 0 1 0 17.1" fill="#003566B7"/><path d="M334.4-175a8.6 8.6 0 1 1 0-17.2 8.6 8.6 0 0 1 0 17.2" fill="#003566B8"/><path d="M334.9-136.9a8.6 8.6 0 1 1 0-17.2 8.6 8.6 0 0 1 0 17.2" fill="#000814B8"/><path d="M238.9-344.1a8.6 8.6 0 1 1 0-17.2 8.6 8.6 0 0 1 0 17.2" fill="#003566B8"/><path d="M-135.6-152.5a8.6 8.6 0 1 1 0-17.3 8.6 8.6 0 0 1 0 17.3" fill="#000814B9"/><path d="M-49.3 28.9a8.7 8.7 0 1 1 0-17.4 8.7 8.7 0 0 1 0 17.4" fill="#000814BA"/><path d="M253.6-333a8.7 8.7 0 1 1 0-17.5 8.7 8.7 0 0 1 0 17.5" fill="#ffc300BB"/><path d="M19.6 68.3a8.8 8.8 0 1 1 0-17.6 8.8 8.8 0 0 1 0 17.6" fill="#ffc300BB"/><path d="M222.5 48.2a8.8 8.8 0 1 1 0-17.6 8.8 8.8 0 0 1 0 17.6" fill="#ffd60aBC"/><path d="M-10.9 54.9a8.8 8.8 0 1 1 0-17.7 8.8 8.8 0 0 1 0 17.7" fill="#001d3dBC"/><path d="M294.1-19a8.9 8.9 0 1 1 0-17.7 8.9 8.9 0 0 1 0 17.7" fill="#003566BE"/><path d="M-32.9 41.7a8.9 8.9 0 1 1 0-17.9 8.9 8.9 0 0 1 0 17.9" fill="#ffc300BF"/><path d="M-80.9-1.9a9 9 0 1 1 0-18 9 9 0 0 1 0 18" fill="#001d3dC1"/><path d="M-56.9-329.7a9 9 0 1 1 0-18 9 9 0 0 1 0 18" fill="#ffd60aC1"/><path d="M6.5 63.1a9 9 0 1 1 0-18 9 9 0 0 1 0 18" fill="#ffc300C1"/><path d="M315.8-248.8a9 9 0 1 1 0-18 9 9 0 0 1 0 18" fill="#000814C1"/><path d="M323.6-228.6a9 9 0 1 1 0-18.1 9 9 0 0 1 0 18.1" fill="#003566C1"/><path d="M-51.4-334.4a9 9 0 1 1 0-18 9 9 0 0 1 0 18" fill="#000814C1"/><path d="M182.7 67.3a9.1 9.1 0 1 1 0-18.1 9.1 9.1 0 0 1 0 18.1" fill="#ffd60aC2"/><path d="M135-386.4a9.1 9.1 0 1 1 0-18.1 9.1 9.1 0 0 1 0 18.1" fill="#001d3dC2"/><path d="M-96.6-23.7a9.1 9.1 0 1 1 0-18.2 9.1 9.1 0 0 1 0 18.2" fill="#001d3dC2"/><path d="M193.6 62.5a9.1 9.1 0 1 1 0-18.2 9.1 9.1 0 0 1 0 18.2" fill="#001d3dC3"/><path d="M-75.4 2.9a9.2 9.2 0 1 1 0-18.3 9.2 9.2 0 0 1 0 18.3" fill="#ffc300C4"/><path d="M-89.5-291a9.2 9.2 0 1 1 0-18.5 9.2 9.2 0 0 1 0 18.5" fill="#ffd60aC6"/><path d="M-74.1-309.7a9.3 9.3 0 1 1 0-18.5 9.3 9.3 0 0 1 0 18.5" fill="#001d3dC6"/><path d="M181.1-372.5a9.3 9.3 0 1 1 0-18.5 9.3 9.3 0 0 1 0 18.5" fill="#003566C7"/><path d="M273.5 3.3a9.3 9.3 0 1 1 0-18.6 9.3 9.3 0 0 1 0 18.6" fill="#000814C7"/><path d="M-129.8-191.9a9.3 9.3 0 1 1 0-18.6 9.3 9.3 0 0 1 0 18.6" fill="#001d3dC8"/><path d="M264.1-317.6a9.4 9.4 0 1 1 0-18.8 9.4 9.4 0 0 1 0 18.8" fill="#003566C9"/><path d="M302.8-40.9a9.4 9.4 0 1 1 0-18.8 9.4 9.4 0 0 1 0 18.8" fill="#003566CA"/><path d="M129.1 76.4a9.5 9.5 0 1 1 0-19 9.5 9.5 0 0 1 0 19" fill="#001d3dCB"/><path d="M69-381.4a9.5 9.5 0 1 1 0-19 9.5 9.5 0 0 1 0 19" fill="#001d3dCC"/><path d="M-129.7-135.1a9.5 9.5 0 1 1 0-19 9.5 9.5 0 0 1 0 19" fill="#ffc300CC"/><path d="M97.3-383a9.5 9.5 0 1 1 0-19 9.5 9.5 0 0 1 0 19" fill="#001d3dCC"/><path d="M-128.1-164.1a9.6 9.6 0 1 1 0-19.2 9.6 9.6 0 0 1 0 19.2" fill="#ffc300CE"/><path d="M195.4 54.2a9.6 9.6 0 1 1 0-19.3 9.6 9.6 0 0 1 0 19.3" fill="#003566CF"/><path d="M298.8-42.7a9.7 9.7 0 1 1 0-19.4 9.7 9.7 0 0 1 0 19.4" fill="#001d3dCF"/><path d="M21.3-364.9a9.7 9.7 0 1 1 0-19.4 9.7 9.7 0 0 1 0 19.4" fill="#ffd60aD0"/><path d="M143.3 69.2a9.7 9.7 0 1 1 0-19.4 9.7 9.7 0 0 1 0 19.4" fill="#003566D0"/><path d="M282.8-284.5a9.7 9.7 0 1 1 0-19.5 9.7 9.7 0 0 1 0 19.5" fill="#ffd60aD1"/><path d="M292.3-36.5a9.8 9.8 0 1 1 0-19.5 9.8 9.8 0 0 1 0 19.5" fill="#ffd60aD2"/><path d="M114.3-376.3a9.8 9.8 0 1 1 0-19.6 9.8 9.8 0 0 1 0 19.6" fill="#ffd60aD2"/><path d="M-78.9-18.8a9.8 9.8 0 1 1 0-19.7 9.8 9.8 0 0 1 0 19.7" fill="#003566D3"/><path d="M-72-295.2a9.8 9.8 0 1 1 0-19.6 9.8 9.8 0 0 1 0 19.6" fill="#000814D3"/><path d="M-53.7-314.3a9.8 9.8 0 1 1 0-19.7 9.8 9.8 0 0 1 0 19.7" fill="#003566D3"/><path d="M-121.4-164.7a9.9 9.9 0 1 1 0-19.8 9.9 9.9 0 0 1 0 19.8" fill="#ffc300D4"/><path d="M86.4 68a9.9 9.9 0 1 1 0-19.9 9.9 9.9 0 0 1 0 19.9" fill="#000814D4"/><path d="M-0.7 41.1a10 10 0 1 1 0-20 10 10 0 0 1 0 20" fill="#003566D6"/><path d="M-98.5-242.8a10 10 0 1 1 0-20 10 10 0 0 1 0 20" fill="#003566D6"/><path d="M116.6-369.1a10 10 0 1 1 0-20.1 10 10 0 0 1 0 20.1" fill="#000814D7"/><path d="M-110.8-203.8a10 10 0 1 1 0-20 10 10 0 0 1 0 20" fill="#ffc300D7"/><path d="M294-248.3a10 10 0 1 1 0-20.1 10 10 0 0 1 0 20.1" fill="#000814D8"/><path d="M278.5-31a10.1 10.1 0 1 1 0-20.1 10.1 10.1 0 0 1 0 20.1" fill="#ffc300D8"/><path d="M10.4 43.8a10.1 10.1 0 1 1 0-20.1 10.1 10.1 0 0 1 0 20.1" fill="#ffd60aD8"/><path d="M209.5 30.7a10.1 10.1 0 1 1 0-20.2 10.1 10.1 0 0 1 0 20.2" fill="#ffd60aD9"/><path d="M-101.6-83.8a10.1 10.1 0 1 1 0-20.3 10.1 10.1 0 0 1 0 20.3" fill="#000814DA"/><path d="M-99.5-80.8a10.2 10.2 0 1 1 0-20.3 10.2 10.2 0 0 1 0 20.3" fill="#001d3dDA"/><path d="M36.5-354.4a10.2 10.2 0 1 1 0-20.4 10.2 10.2 0 0 1 0 20.4" fill="#001d3dDA"/><path d="M-65-20a10.2 10.2 0 1 1 0-20.3 10.2 10.2 0 0 1 0 20.3" fill="#ffc300DA"/><path d="M-22.5-323.3a10.2 10.2 0 1 1 0-20.4 10.2 10.2 0 0 1 0 20.4" fill="#001d3dDB"/><path d="M307.8-181.8a10.2 10.2 0 1 1 0-20.5 10.2 10.2 0 0 1 0 20.5" fill="#000814DB"/><path d="M223.7-320.1a10.2 10.2 0 1 1 0-20.5 10.2 10.2 0 0 1 0 20.5" fill="#ffd60aDC"/><path d="M-37.9-306.4a10.3 10.3 0 1 1 0-20.6 10.3 10.3 0 0 1 0 20.6" fill="#003566DD"/><path d="M205 25.9a10.3 10.3 0 1 1 0-20.6 10.3 10.3 0 0 1 0 20.6" fill="#000814DD"/><path d="M-48.9-11.8a10.3 10.3 0 1 1 0-20.6 10.3 10.3 0 0 1 0 20.6" fill="#ffc300DE"/><path d="M289.1-227.7a10.4 10.4 0 1 1 0-20.7 10.4 10.4 0 0 1 0 20.7" fill="#001d3dDE"/><path d="M111.9 48a10.4 10.4 0 1 1 0-20.8 10.4 10.4 0 0 1 0 20.8" fill="#ffd60aE0"/><path d="M69.5 45.3a10.4 10.4 0 1 1 0-20.9 10.4 10.4 0 0 1 0 20.9" fill="#ffd60aE0"/><path d="M276.5-229.3a10.6 10.6 0 1 1 0-21.2 10.6 10.6 0 0 1 0 21.2" fill="#003566E3"/><path d="M-45.3-30.5a10.6 10.6 0 1 1 0-21.2 10.6 10.6 0 0 1 0 21.2" fill="#ffd60aE4"/><path d="M-32.6-22.3a10.7 10.7 0 1 1 0-21.4 10.7 10.7 0 0 1 0 21.4" fill="#001d3dE6"/><path d="M-80.4-164.1a10.8 10.8 0 1 1 0-21.5 10.8 10.8 0 0 1 0 21.5" fill="#003566E7"/><path d="M278.7-136.7a10.8 10.8 0 1 1 0-21.6 10.8 10.8 0 0 1 0 21.6" fill="#001d3dE8"/><path d="M230.3-38.2a10.9 10.9 0 1 1 0-21.8 10.9 10.9 0 0 1 0 21.8" fill="#000814EA"/><path d="M-67.6-113.5a10.9 10.9 0 1 1 0-21.7 10.9 10.9 0 0 1 0 21.7" fill="#000814EA"/><path d="M210.5-21.6a10.9 10.9 0 1 1 0-21.8 10.9 10.9 0 0 1 0 21.8" fill="#ffd60aEA"/><path d="M40 8a10.9 10.9 0 1 1 0-21.8 10.9 10.9 0 0 1 0 21.8" fill="#001d3dEB"/><path d="M51.1-312.5a10.9 10.9 0 1 1 0-21.9 10.9 10.9 0 0 1 0 21.9" fill="#000814EB"/><path d="M-54.7-213.6a11 11 0 1 1 0-21.9 11 11 0 0 1 0 21.9" fill="#000814EC"/><path d="M257.9-107a11 11 0 1 1 0-22 11 11 0 0 1 0 22" fill="#ffc300EC"/><path d="M19.3-10.5a11 11 0 1 1 0-22 11 11 0 0 1 0 22" fill="#000814ED"/><path d="M238.9-80.9a11.1 11.1 0 1 1 0-22.1 11.1 11.1 0 0 1 0 22.1" fill="#ffd60aEE"/><path d="M73.9-302.3a11.1 11.1 0 1 1 0-22.2 11.1 11.1 0 0 1 0 22.2" fill="#001d3dEF"/><path d="M59.7-6.5a11.1 11.1 0 1 1 0-22.3 11.1 11.1 0 0 1 0 22.3" fill="#000814F0"/><path d="M191-264.5a11.2 11.2 0 1 1 0-22.4 11.2 11.2 0 0 1 0 22.4" fill="#000814F1"/><path d="M220.7-75.8a11.2 11.2 0 1 1 0-22.5 11.2 11.2 0 0 1 0 22.5" fill="#ffd60aF1"/><path d="M-39.2-133a11.2 11.2 0 1 1 0-22.4 11.2 11.2 0 0 1 0 22.4" fill="#001d3dF2"/><path d="M121.6-278.2a11.3 11.3 0 1 1 0-22.7 11.3 11.3 0 0 1 0 22.7" fill="#ffd60aF4"/><path d="M192.4-65.1a11.4 11.4 0 1 1 0-22.7 11.4 11.4 0 0 1 0 22.7" fill="#000814F4"/><path d="M194.9-75.2a11.4 11.4 0 1 1 0-22.8 11.4 11.4 0 0 1 0 22.8" fill="#003566F5"/><path d="M47.8-239a11.5 11.5 0 1 1 0-23 11.5 11.5 0 0 1 0 23" fill="#003566F8"/><path d="M97.9-50.8a11.5 11.5 0 1 1 0-23 11.5 11.5 0 0 1 0 23" fill="#ffc300F8"/><path d="M40.7-83a11.6 11.6 0 1 1 0-23.2 11.6 11.6 0 0 1 0 23.2" fill="#000814FA"/><path d="M179.9-111.6a11.6 11.6 0 1 1 0-23.2 11.6 11.6 0 0 1 0 23.2" fill="#ffd60aFA"/><path d="M89.8-65a11.6 11.6 0 1 1 0-23.3 11.6 11.6 0 0 1 0 23.3" fill="#003566FA"/><path d="M63.6-77.5a11.6 11.6 0 1 1 0-23.2 11.6 11.6 0 0 1 0 23.2" fill="#ffd60aFA"/><path d="M172.4-171.1a11.7 11.7 0 1 1 0-23.3 11.7 11.7 0 0 1 0 23.3" fill="#ffd60aFB"/><path d="M66.3-96.6a11.7 11.7 0 1 1 0-23.4 11.7 11.7 0 0 1 0 23.4" fill="#003566FC"/><path d="M66.1-98.3a11.7 11.7 0 1 1 0-23.4 11.7 11.7 0 0 1 0 23.4" fill="#ffc300FC"/><path d="M64.2-194.5a11.7 11.7 0 1 1 0-23.5 11.7 11.7 0 0 1 0 23.5" fill="#ffc300FD"/><path d="M95.9-102.7a11.8 11.8 0 1 1 0-23.5 11.8 11.8 0 0 1 0 23.5" fill="#003566FD"/><path d="M52-151.3a11.8 11.8 0 1 1 0-23.5 11.8 11.8 0 0 1 0 23.5" fill="#003566FD"/><path d="M133.3-125.9a11.8 11.8 0 1 1 0-23.5 11.8 11.8 0 0 1 0 23.5" fill="#ffd60aFD"/><path d="M102-181.2a11.8 11.8 0 1 1 0-23.6 11.8 11.8 0 0 1 0 23.6" fill="#000814FE"/></g></svg>