<svg width="1200" height="675" viewBox="-500 -500 1200 675" xmlns="http://www.w3.org/2000/svg"><path d="M-500-500h1200v675h-1200z" fill="#000"/><style>.sparkles path{stroke-linecap:round; stroke-width:1}</style><g class="sparkles"><path d="M100-162.5l-6.1-21.3" stroke="#c2e1ff32"/><path d="M100-162.5l26.1-0.3" stroke="#c2e1ff32"/><path d="M100-162.5l56.7 6.7" stroke="#005bbb33"/><path d="M100-162.5l65-16.1" stroke="#fff50034"/><path d="M100-162.5l-11 84.2" stroke="#fff50035"/><path d="M100-162.5l96.8 36.4" stroke="#005bbb37"/><path d="M100-162.5l-53.5 88.7" stroke="#fff50037"/><path d="M100-162.5l24 102.1" stroke="#fff37"/><path d="M100-162.5l84-67.8" stroke="#fff50037"/><path d="M100-162.5l92.3-66.9" stroke="#fff50038"/><path d="M100-162.5l63.6-95.9" stroke="#fff50038"/><path d="M100-162.5l-23.5-113.3" stroke="#fff50038"/><path d="M100-162.5l74.2-96.7" stroke="#005bbb39"/><path d="M100-162.5l-83 91.6" stroke="#fff50039"/><path d="M100-162.5l-122.2-24.4" stroke="#005bbb39"/><path d="M100-162.5l-126.9-16.9" stroke="#c2e1ff39"/><path d="M100-162.5l57.5 115.8" stroke="#c2e1ff3A"/><path d="M100-162.5l-116.5-60.2" stroke="#c2e1ff3A"/><path d="M100-162.5l-63.3 118.7" stroke="#fff3A"/><path d="M100-162.5l42.2-129" stroke="#005bbb3B"/><path d="M100-162.5l137.7 4.7" stroke="#fff5003B"/><path d="M100-162.5l-40.1 141.9" stroke="#fff3C"/><path d="M100-162.5l34.5-144.9" stroke="#005bbb3D"/><path d="M100-162.5l32.5-146.6" stroke="#005bbb3D"/><path d="M100-162.5l97.7 124.4" stroke="#c2e1ff3E"/><path d="M100-162.5l90.6 132.5" stroke="#c2e1ff3F"/><path d="M100-162.5l-161.3-5.6" stroke="#005bbb3F"/><path d="M100-162.5l161.3-9.4" stroke="#c2e1ff3F"/><path d="M100-162.5l32.5 162.7" stroke="#fff40"/><path d="M100-162.5l11.5-168.6" stroke="#c2e1ff41"/><path d="M100-162.5l6.2 171.7" stroke="#c2e1ff41"/><path d="M100-162.5l-174-8.4" stroke="#005bbb42"/><path d="M100-162.5l163.1-65" stroke="#005bbb42"/><path d="M100-162.5l176.7 1.1" stroke="#fff42"/><path d="M100-162.5l-103.1-148.9" stroke="#c2e1ff43"/><path d="M100-162.5l88.2-159.2" stroke="#c2e1ff44"/><path d="M100-162.5l-157 98.1" stroke="#fff50044"/><path d="M100-162.5l-176.7 59.8" stroke="#fff50045"/><path d="M100-162.5l-105.8 154" stroke="#005bbb45"/><path d="M100-162.5l159.1 99.1" stroke="#c2e1ff45"/><path d="M100-162.5l166.2 87.4" stroke="#fff50045"/><path d="M100-162.5l-92.9-164.7" stroke="#fff50046"/><path d="M100-162.5l-50.4-183.3" stroke="#c2e1ff46"/><path d="M100-162.5l-189 23.3" stroke="#c2e1ff46"/><path d="M100-162.5l77.2 177" stroke="#fff50047"/><path d="M100-162.5l-193.5-24.9" stroke="#c2e1ff47"/><path d="M100-162.5l-197.6-13.4" stroke="#c2e1ff48"/><path d="M100-162.5l-112.5-163.9" stroke="#c2e1ff48"/><path d="M100-162.5l14.5 199.1" stroke="#005bbb49"/><path d="M100-162.5l26.7 198.2" stroke="#fff50049"/><path d="M100-162.5l22.2 201.2" stroke="#c2e1ff4A"/><path d="M100-162.5l1-205.3" stroke="#c2e1ff4B"/><path d="M100-162.5l-25.7-205.5" stroke="#fff5004B"/><path d="M100-162.5l-172.5-119" stroke="#005bbb4C"/><path d="M100-162.5l-139.1-163.3" stroke="#fff5004F"/><path d="M100-162.5l205-63.6" stroke="#c2e1ff4F"/><path d="M100-162.5l87.3-198.2" stroke="#005bbb50"/><path d="M100-162.5l-63-209.4" stroke="#005bbb51"/><path d="M100-162.5l125.5 181.1" stroke="#fff51"/><path d="M100-162.5l148.8 164.2" stroke="#fff52"/><path d="M100-162.5l-191.6-111.9" stroke="#005bbb52"/><path d="M100-162.5l-33.1-219.4" stroke="#fff52"/><path d="M100-162.5l-124.3 184.6" stroke="#fff53"/><path d="M100-162.5l107.2 196.1" stroke="#c2e1ff53"/><path d="M100-162.5l175.9-138.3" stroke="#fff50053"/><path d="M100-162.5l222.3 42.5" stroke="#c2e1ff55"/><path d="M100-162.5l-217.8 68.5" stroke="#005bbb57"/><path d="M100-162.5l223.3 50.2" stroke="#c2e1ff57"/><path d="M100-162.5l-187.2-132.7" stroke="#fff50058"/><path d="M100-162.5l-170-154.2" stroke="#fff58"/><path d="M100-162.5l-220.1 65.1" stroke="#c2e1ff58"/><path d="M100-162.5l74.5-217.7" stroke="#fff50058"/><path d="M100-162.5l-231.2-2" stroke="#fff50059"/><path d="M100-162.5l-195 124.4" stroke="#005bbb59"/><path d="M100-162.5l5.9-231.4" stroke="#c2e1ff5A"/><path d="M100-162.5l108-205.7" stroke="#005bbb5A"/><path d="M100-162.5l-224.3 62.6" stroke="#c2e1ff5B"/><path d="M100-162.5l-151.6 176.8" stroke="#c2e1ff5B"/><path d="M100-162.5l-50.3 227.6" stroke="#c2e1ff5B"/><path d="M100-162.5l-181.5-146.9" stroke="#fff5005C"/><path d="M100-162.5l231.8-31.6" stroke="#fff5005D"/><path d="M100-162.5l232.1-36" stroke="#fff5E"/><path d="M100-162.5l-132.6 194" stroke="#fff5E"/><path d="M100-162.5l206.1 114" stroke="#fff60"/><path d="M100-162.5l-139.1 190.2" stroke="#fff60"/><path d="M100-162.5l125.3 199.8" stroke="#fff50061"/><path d="M100-162.5l-115.7-205.5" stroke="#c2e1ff61"/><path d="M100-162.5l232.3-41.2" stroke="#fff50061"/><path d="M100-162.5l204.7 117.5" stroke="#fff50061"/><path d="M100-162.5l227.5 63.3" stroke="#c2e1ff62"/><path d="M100-162.5l1.4 236.2" stroke="#c2e1ff62"/><path d="M100-162.5l197.4 129.7" stroke="#c2e1ff62"/><path d="M100-162.5l118.9 204.1" stroke="#c2e1ff62"/><path d="M100-162.5l213.6-100.8" stroke="#fff50062"/><path d="M100-162.5l225.3 70.8" stroke="#fff50062"/><path d="M100-162.5l87.2 219.5" stroke="#005bbb63"/><path d="M100-162.5l236.2-6.3" stroke="#fff63"/><path d="M100-162.5l223.5-76.5" stroke="#005bbb63"/><path d="M100-162.5l66.1-226.8" stroke="#fff63"/><path d="M100-162.5l-164.8 169.2" stroke="#005bbb64"/><path d="M100-162.5l-153.5 179.5" stroke="#fff50065"/><path d="M100-162.5l-52 230.3" stroke="#fff50065"/><path d="M100-162.5l-191.9-137.6" stroke="#c2e1ff65"/><path d="M100-162.5l-50 230.8" stroke="#005bbb65"/><path d="M100-162.5l-93.6-216.5" stroke="#fff50066"/><path d="M100-162.5l221-82.1" stroke="#c2e1ff67"/><path d="M100-162.5l201.9-121.2" stroke="#005bbb67"/><path d="M100-162.5l-232.6 33.5" stroke="#c2e1ff69"/><path d="M100-162.5l-62.9 226.3" stroke="#fff50069"/><path d="M100-162.5l-102 211.3" stroke="#c2e1ff69"/><path d="M100-162.5l233.7 0" stroke="#fff6B"/><path d="M100-162.5l167-163.2" stroke="#fff6B"/><path d="M100-162.5l194.3-127.1" stroke="#fff6D"/><path d="M100-162.5l52.5 225.4" stroke="#fff6E"/><path d="M100-162.5l36.5 228" stroke="#c2e1ff6E"/><path d="M100-162.5l-158.6-167.3" stroke="#005bbb6E"/><path d="M100-162.5l-204.9 104.9" stroke="#005bbb6F"/><path d="M100-162.5l-192.7 125.1" stroke="#005bbb6F"/><path d="M100-162.5l168.5-155" stroke="#c2e1ff70"/><path d="M100-162.5l-115.5 197" stroke="#fff50070"/><path d="M100-162.5l40.2-224.2" stroke="#c2e1ff71"/><path d="M100-162.5l26.8 225" stroke="#c2e1ff72"/><path d="M100-162.5l-72.8 214.3" stroke="#005bbb72"/><path d="M100-162.5l-77.3-212.5" stroke="#c2e1ff72"/><path d="M100-162.5l17-225" stroke="#005bbb72"/><path d="M100-162.5l-48.2-219.8" stroke="#fff50073"/><path d="M100-162.5l79.6 209.9" stroke="#fff73"/><path d="M100-162.5l-10.3 223.7" stroke="#c2e1ff73"/><path d="M100-162.5l100.4 199.9" stroke="#fff74"/><path d="M100-162.5l113.9 191.7" stroke="#c2e1ff74"/><path d="M100-162.5l215.2 41.6" stroke="#fff76"/><path d="M100-162.5l164.4-144.8" stroke="#c2e1ff76"/><path d="M100-162.5l-14 218.2" stroke="#005bbb76"/><path d="M100-162.5l-212.3-33" stroke="#fff78"/><path d="M100-162.5l152 147.3" stroke="#fff7A"/><path d="M100-162.5l206.8 28.7" stroke="#c2e1ff7B"/><path d="M100-162.5l-186.4 86.9" stroke="#fff5007C"/><path d="M100-162.5l-192.1-68.3" stroke="#fff7D"/><path d="M100-162.5l-7-202.6" stroke="#c2e1ff7D"/><path d="M100-162.5l-160.5 119.6" stroke="#c2e1ff7E"/><path d="M100-162.5l-192.4 30.3" stroke="#fff80"/><path d="M100-162.5l129.1 144.4" stroke="#fff80"/><path d="M100-162.5l183.8 59.2" stroke="#fff50080"/><path d="M100-162.5l175.8-76.5" stroke="#005bbb81"/><path d="M100-162.5l-4.4 187.8" stroke="#fff82"/><path d="M100-162.5l-76.1 170.5" stroke="#005bbb82"/><path d="M100-162.5l-177.5-49.8" stroke="#005bbb83"/><path d="M100-162.5l168.3 72" stroke="#005bbb83"/><path d="M100-162.5l155.6-93.1" stroke="#fff84"/><path d="M100-162.5l-13.5-178.2" stroke="#fff84"/><path d="M100-162.5l-115-136.3" stroke="#c2e1ff84"/><path d="M100-162.5l171.3 49.1" stroke="#fff50084"/><path d="M100-162.5l-176.3 19.2" stroke="#fff50085"/><path d="M100-162.5l-123.4-127" stroke="#fff50085"/><path d="M100-162.5l-58.3-166.8" stroke="#005bbb85"/><path d="M100-162.5l-76.3-157.2" stroke="#005bbb85"/><path d="M100-162.5l-110.9 128.6" stroke="#005bbb86"/><path d="M100-162.5l64.6-150.3" stroke="#c2e1ff88"/><path d="M100-162.5l-122.7-107.2" stroke="#c2e1ff88"/><path d="M100-162.5l87.9-133.2" stroke="#005bbb88"/><path d="M100-162.5l135.2-78.3" stroke="#005bbb89"/><path d="M100-162.5l-39.7 145.2" stroke="#fff5008A"/><path d="M100-162.5l-97.3-113.7" stroke="#005bbb8A"/><path d="M100-162.5l119 87.5" stroke="#fff8B"/><path d="M100-162.5l-147.4-5.5" stroke="#fff5008B"/><path d="M100-162.5l100.2-104" stroke="#fff5008B"/><path d="M100-162.5l55.9-131.8" stroke="#fff5008B"/><path d="M100-162.5l113.9-83.5" stroke="#fff5008C"/><path d="M100-162.5l-123.9 20.3" stroke="#fff5008E"/><path d="M100-162.5l94.8 81.3" stroke="#c2e1ff8E"/><path d="M100-162.5l95.2 75.3" stroke="#c2e1ff8E"/><path d="M100-162.5l-67.4 98.8" stroke="#c2e1ff8F"/><path d="M100-162.5l113.8 24.7" stroke="#c2e1ff8F"/><path d="M100-162.5l-91-16.4" stroke="#c2e1ff92"/><path d="M100-162.5l76.4-46.2" stroke="#fff92"/><path d="M100-162.5l37.3 35.5" stroke="#c2e1ff94"/><path d="M100-162.5l50-2" stroke="#fff50094"/><path d="M100-162.5l18.1-33.4" stroke="#005bbb95"/><path d="M100-162.5l33.9-0.6" stroke="#fff50095"/><path d="M100-162.5l-18.8-16.1" stroke="#005bbb95"/><path d="M100-162.5l-5.7-2.7" stroke="#005bbb95"/></g><g class="sparcs"><path d="M93.9-177.8a5.9 5.9 0 1 1 0-11.9 5.9 5.9 0 0 1 0 11.9" fill="#fff7D"/><path d="M126.1-156.9a5.9 5.9 0 1 1 0-11.8 5.9 5.9 0 0 1 0 11.8" fill="#005bbb7D"/><path d="M156.7-149.8a6 6 0 1 1 0-12 6 6 0 0 1 0 12" fill="#fff5007E"/><path d="M165-172.5a6 6 0 1 1 0-12.1 6 6 0 0 1 0 12.1" fill="#005bbb7F"/><path d="M89-72.2a6.1 6.1 0 1 1 0-12.2 6.1 6.1 0 0 1 0 12.2" fill="#fff50081"/><path d="M196.8-119.9a6.2 6.2 0 1 1 0-12.4 6.2 6.2 0 0 1 0 12.4" fill="#005bbb83"/><path d="M46.5-67.6a6.2 6.2 0 1 1 0-12.4 6.2 6.2 0 0 1 0 12.4" fill="#fff50083"/><path d="M124-54.2a6.2 6.2 0 1 1 0-12.4 6.2 6.2 0 0 1 0 12.4" fill="#fff83"/><path d="M184-224a6.2 6.2 0 1 1 0-12.5 6.2 6.2 0 0 1 0 12.5" fill="#fff84"/><path d="M192.3-223.2a6.3 6.3 0 1 1 0-12.5 6.3 6.3 0 0 1 0 12.5" fill="#fff85"/><path d="M163.6-252.2a6.3 6.3 0 1 1 0-12.5 6.3 6.3 0 0 1 0 12.5" fill="#c2e1ff85"/><path d="M76.5-269.5a6.3 6.3 0 1 1 0-12.5 6.3 6.3 0 0 1 0 12.5" fill="#fff50085"/><path d="M174.2-252.9a6.3 6.3 0 1 1 0-12.6 6.3 6.3 0 0 1 0 12.6" fill="#fff86"/><path d="M17-64.6a6.3 6.3 0 1 1 0-12.6 6.3 6.3 0 0 1 0 12.6" fill="#fff50086"/><path d="M-22.2-180.6a6.4 6.4 0 1 1 0-12.7 6.4 6.4 0 0 1 0 12.7" fill="#fff86"/><path d="M-26.9-173a6.4 6.4 0 1 1 0-12.8 6.4 6.4 0 0 1 0 12.8" fill="#fff50087"/><path d="M157.5-40.4a6.4 6.4 0 1 1 0-12.7 6.4 6.4 0 0 1 0 12.7" fill="#fff87"/><path d="M-16.5-216.3a6.4 6.4 0 1 1 0-12.8 6.4 6.4 0 0 1 0 12.8" fill="#c2e1ff87"/><path d="M36.7-37.4a6.4 6.4 0 1 1 0-12.9 6.4 6.4 0 0 1 0 12.9" fill="#005bbb88"/><path d="M142.2-285a6.4 6.4 0 1 1 0-12.9 6.4 6.4 0 0 1 0 12.9" fill="#fff50088"/><path d="M237.7-151.3a6.5 6.5 0 1 1 0-12.9 6.5 6.5 0 0 1 0 12.9" fill="#fff50089"/><path d="M59.9-14a6.6 6.6 0 1 1 0-13.1 6.6 6.6 0 0 1 0 13.1" fill="#fff5008B"/><path d="M134.5-300.8a6.6 6.6 0 1 1 0-13.2 6.6 6.6 0 0 1 0 13.2" fill="#fff8B"/><path d="M132.5-302.5a6.6 6.6 0 1 1 0-13.1 6.6 6.6 0 0 1 0 13.1" fill="#fff5008B"/><path d="M197.7-31.4a6.7 6.7 0 1 1 0-13.4 6.7 6.7 0 0 1 0 13.4" fill="#005bbb8D"/><path d="M190.6-23.3a6.7 6.7 0 1 1 0-13.4 6.7 6.7 0 0 1 0 13.4" fill="#fff8E"/><path d="M-61.3-161.4a6.7 6.7 0 1 1 0-13.4 6.7 6.7 0 0 1 0 13.4" fill="#fff8E"/><path d="M261.3-165.2a6.7 6.7 0 1 1 0-13.4 6.7 6.7 0 0 1 0 13.4" fill="#005bbb8E"/><path d="M132.5 7a6.8 6.8 0 1 1 0-13.5 6.8 6.8 0 0 1 0 13.5" fill="#005bbb8F"/><path d="M111.5-324.3a6.8 6.8 0 1 1 0-13.6 6.8 6.8 0 0 1 0 13.6" fill="#005bbb90"/><path d="M106.2 16a6.8 6.8 0 1 1 0-13.7 6.8 6.8 0 0 1 0 13.7" fill="#005bbb91"/><path d="M-74-164a6.9 6.9 0 1 1 0-13.7 6.9 6.9 0 0 1 0 13.7" fill="#fff92"/><path d="M263.1-220.7a6.9 6.9 0 1 1 0-13.7 6.9 6.9 0 0 1 0 13.7" fill="#005bbb92"/><path d="M276.7-154.5a6.9 6.9 0 1 1 0-13.8 6.9 6.9 0 0 1 0 13.8" fill="#fff50092"/><path d="M-3.1-304.4a7 7 0 1 1 0-13.9 7 7 0 0 1 0 13.9" fill="#fff50094"/><path d="M188.2-314.7a7 7 0 1 1 0-14 7 7 0 0 1 0 14" fill="#fff50094"/><path d="M-57-57.4a7 7 0 1 1 0-14 7 7 0 0 1 0 14" fill="#005bbb95"/><path d="M-76.7-95.7a7 7 0 1 1 0-14.1 7 7 0 0 1 0 14.1" fill="#005bbb96"/><path d="M-5.8-1.4a7.1 7.1 0 1 1 0-14.1 7.1 7.1 0 0 1 0 14.1" fill="#005bbb96"/><path d="M259.1-56.3a7.1 7.1 0 1 1 0-14.1 7.1 7.1 0 0 1 0 14.1" fill="#c2e1ff96"/><path d="M266.2-68a7.1 7.1 0 1 1 0-14.1 7.1 7.1 0 0 1 0 14.1" fill="#c2e1ff96"/><path d="M7.1-320.1a7.1 7.1 0 1 1 0-14.1 7.1 7.1 0 0 1 0 14.1" fill="#c2e1ff97"/><path d="M49.6-338.7a7.1 7.1 0 1 1 0-14.2 7.1 7.1 0 0 1 0 14.2" fill="#c2e1ff97"/><path d="M-89-132.1a7.1 7.1 0 1 1 0-14.3 7.1 7.1 0 0 1 0 14.3" fill="#005bbb97"/><path d="M177.2 21.7a7.2 7.2 0 1 1 0-14.3 7.2 7.2 0 0 1 0 14.3" fill="#005bbb98"/><path d="M-93.5-180.2a7.2 7.2 0 1 1 0-14.3 7.2 7.2 0 0 1 0 14.3" fill="#005bbb99"/><path d="M-97.6-168.7a7.2 7.2 0 1 1 0-14.4 7.2 7.2 0 0 1 0 14.4" fill="#c2e1ff9A"/><path d="M-12.5-319.2a7.3 7.3 0 1 1 0-14.5 7.3 7.3 0 0 1 0 14.5" fill="#fff5009A"/><path d="M114.5 43.9a7.3 7.3 0 1 1 0-14.5 7.3 7.3 0 0 1 0 14.5" fill="#fff5009B"/><path d="M126.7 43a7.3 7.3 0 1 1 0-14.6 7.3 7.3 0 0 1 0 14.6" fill="#c2e1ff9B"/><path d="M122.2 46a7.3 7.3 0 1 1 0-14.6 7.3 7.3 0 0 1 0 14.6" fill="#fff5009C"/><path d="M101-360.4a7.4 7.4 0 1 1 0-14.8 7.4 7.4 0 0 1 0 14.8" fill="#fff9D"/><path d="M74.3-360.5a7.4 7.4 0 1 1 0-14.9 7.4 7.4 0 0 1 0 14.9" fill="#005bbb9E"/><path d="M-72.5-274a7.5 7.5 0 1 1 0-15 7.5 7.5 0 0 1 0 15" fill="#fff5009F"/><path d="M-39.1-318.2a7.6 7.6 0 1 1 0-15.2 7.6 7.6 0 0 1 0 15.2" fill="#fffA2"/><path d="M305-218.4a7.6 7.6 0 1 1 0-15.3 7.6 7.6 0 0 1 0 15.3" fill="#fffA2"/><path d="M187.3-353a7.7 7.7 0 1 1 0-15.4 7.7 7.7 0 0 1 0 15.4" fill="#fffA4"/><path d="M37-364.2a7.7 7.7 0 1 1 0-15.5 7.7 7.7 0 0 1 0 15.5" fill="#005bbbA5"/><path d="M225.5 26.4a7.8 7.8 0 1 1 0-15.6 7.8 7.8 0 0 1 0 15.6" fill="#c2e1ffA6"/><path d="M248.8 9.6a7.8 7.8 0 1 1 0-15.7 7.8 7.8 0 0 1 0 15.7" fill="#fffA7"/><path d="M-91.6-266.6a7.8 7.8 0 1 1 0-15.7 7.8 7.8 0 0 1 0 15.7" fill="#fffA7"/><path d="M66.9-374.1a7.8 7.8 0 1 1 0-15.7 7.8 7.8 0 0 1 0 15.7" fill="#fff500A7"/><path d="M-24.3 30a7.9 7.9 0 1 1 0-15.8 7.9 7.9 0 0 1 0 15.8" fill="#fffA8"/><path d="M207.2 41.5a7.9 7.9 0 1 1 0-15.8 7.9 7.9 0 0 1 0 15.8" fill="#005bbbA8"/><path d="M275.9-292.9a7.9 7.9 0 1 1 0-15.8 7.9 7.9 0 0 1 0 15.8" fill="#fff500A9"/><path d="M322.3-112a8 8 0 1 1 0-16 8 8 0 0 1 0 16" fill="#c2e1ffAB"/><path d="M-117.8-85.9a8.1 8.1 0 1 1 0-16.2 8.1 8.1 0 0 1 0 16.2" fill="#fffAD"/><path d="M323.3-104.2a8.1 8.1 0 1 1 0-16.2 8.1 8.1 0 0 1 0 16.2" fill="#c2e1ffAD"/><path d="M-87.2-287.1a8.2 8.2 0 1 1 0-16.3 8.2 8.2 0 0 1 0 16.3" fill="#005bbbAE"/><path d="M-70-308.5a8.2 8.2 0 1 1 0-16.3 8.2 8.2 0 0 1 0 16.3" fill="#fff500AE"/><path d="M-120.1-89.2a8.2 8.2 0 1 1 0-16.4 8.2 8.2 0 0 1 0 16.4" fill="#005bbbAE"/><path d="M174.5-372a8.2 8.2 0 1 1 0-16.4 8.2 8.2 0 0 1 0 16.4" fill="#fff500AF"/><path d="M-131.2-156.2a8.3 8.3 0 1 1 0-16.5 8.3 8.3 0 0 1 0 16.5" fill="#fff500B0"/><path d="M-95-29.8a8.3 8.3 0 1 1 0-16.6 8.3 8.3 0 0 1 0 16.6" fill="#fffB0"/><path d="M105.9-385.6a8.3 8.3 0 1 1 0-16.6 8.3 8.3 0 0 1 0 16.6" fill="#fff500B1"/><path d="M208-359.9a8.3 8.3 0 1 1 0-16.7 8.3 8.3 0 0 1 0 16.7" fill="#fff500B2"/><path d="M-124.3-91.5a8.4 8.4 0 1 1 0-16.8 8.4 8.4 0 0 1 0 16.8" fill="#fffB3"/><path d="M-51.6 22.7a8.4 8.4 0 1 1 0-16.8 8.4 8.4 0 0 1 0 16.8" fill="#fff500B3"/><path d="M49.7 73.5a8.4 8.4 0 1 1 0-16.8 8.4 8.4 0 0 1 0 16.8" fill="#005bbbB3"/><path d="M-81.5-301a8.4 8.4 0 1 1 0-16.8 8.4 8.4 0 0 1 0 16.8" fill="#005bbbB4"/><path d="M331.8-185.7a8.4 8.4 0 1 1 0-16.9 8.4 8.4 0 0 1 0 16.9" fill="#005bbbB4"/><path d="M332.1-189.9a8.5 8.5 0 1 1 0-17.1 8.5 8.5 0 0 1 0 17.1" fill="#005bbbB6"/><path d="M-32.6 40.1a8.6 8.6 0 1 1 0-17.2 8.6 8.6 0 0 1 0 17.2" fill="#c2e1ffB7"/><path d="M306.1-39.9a8.6 8.6 0 1 1 0-17.3 8.6 8.6 0 0 1 0 17.3" fill="#005bbbB9"/><path d="M-39.1 36.3a8.6 8.6 0 1 1 0-17.3 8.6 8.6 0 0 1 0 17.3" fill="#fffB9"/><path d="M225.3 46a8.7 8.7 0 1 1 0-17.4 8.7 8.7 0 0 1 0 17.4" fill="#fffBA"/><path d="M-15.7-359.3a8.7 8.7 0 1 1 0-17.4 8.7 8.7 0 0 1 0 17.4" fill="#fffBA"/><path d="M332.3-195a8.7 8.7 0 1 1 0-17.4 8.7 8.7 0 0 1 0 17.4" fill="#fffBA"/><path d="M304.7-36.3a8.7 8.7 0 1 1 0-17.5 8.7 8.7 0 0 1 0 17.5" fill="#fffBB"/><path d="M327.5-90.4a8.8 8.8 0 1 1 0-17.6 8.8 8.8 0 0 1 0 17.6" fill="#c2e1ffBC"/><path d="M101.4 82.5a8.8 8.8 0 1 1 0-17.6 8.8 8.8 0 0 1 0 17.6" fill="#fffBC"/><path d="M297.4-24a8.8 8.8 0 1 1 0-17.6 8.8 8.8 0 0 1 0 17.6" fill="#c2e1ffBC"/><path d="M218.9 50.4a8.8 8.8 0 1 1 0-17.6 8.8 8.8 0 0 1 0 17.6" fill="#fff500BC"/><path d="M313.6-254.5a8.8 8.8 0 1 1 0-17.6 8.8 8.8 0 0 1 0 17.6" fill="#c2e1ffBC"/><path d="M325.3-82.9a8.8 8.8 0 1 1 0-17.6 8.8 8.8 0 0 1 0 17.6" fill="#005bbbBC"/><path d="M187.2 65.9a8.8 8.8 0 1 1 0-17.7 8.8 8.8 0 0 1 0 17.7" fill="#005bbbBD"/><path d="M336.2-160a8.8 8.8 0 1 1 0-17.6 8.8 8.8 0 0 1 0 17.6" fill="#fffBD"/><path d="M323.5-230.1a8.8 8.8 0 1 1 0-17.7 8.8 8.8 0 0 1 0 17.7" fill="#005bbbBD"/><path d="M166.1-380.5a8.8 8.8 0 1 1 0-17.7 8.8 8.8 0 0 1 0 17.7" fill="#005bbbBD"/><path d="M-64.8 15.7a8.9 8.9 0 1 1 0-17.9 8.9 8.9 0 0 1 0 17.9" fill="#c2e1ffBF"/><path d="M-53.5 25.9a8.9 8.9 0 1 1 0-17.8 8.9 8.9 0 0 1 0 17.8" fill="#fffBF"/><path d="M48 76.8a9 9 0 1 1 0-17.9 9 9 0 0 1 0 17.9" fill="#c2e1ffC0"/><path d="M-91.9-291.2a9 9 0 1 1 0-17.9 9 9 0 0 1 0 17.9" fill="#c2e1ffC0"/><path d="M50 77.2a9 9 0 1 1 0-17.9 9 9 0 0 1 0 17.9" fill="#fff500C0"/><path d="M6.4-370a9 9 0 1 1 0-18 9 9 0 0 1 0 18" fill="#c2e1ffC1"/><path d="M321-235.5a9 9 0 1 1 0-18.1 9 9 0 0 1 0 18.1" fill="#c2e1ffC2"/><path d="M301.9-274.6a9.1 9.1 0 1 1 0-18.2 9.1 9.1 0 0 1 0 18.2" fill="#c2e1ffC3"/><path d="M-132.6-119.8a9.2 9.2 0 1 1 0-18.3 9.2 9.2 0 0 1 0 18.3" fill="#fff500C4"/><path d="M37.1 72.9a9.2 9.2 0 1 1 0-18.3 9.2 9.2 0 0 1 0 18.3" fill="#c2e1ffC5"/><path d="M-2 58a9.2 9.2 0 1 1 0-18.4 9.2 9.2 0 0 1 0 18.4" fill="#c2e1ffC5"/><path d="M333.7-153.2a9.3 9.3 0 1 1 0-18.6 9.3 9.3 0 0 1 0 18.6" fill="#fffC7"/><path d="M267-316.4a9.3 9.3 0 1 1 0-18.6 9.3 9.3 0 0 1 0 18.6" fill="#005bbbC7"/><path d="M294.3-280.2a9.4 9.4 0 1 1 0-18.8 9.4 9.4 0 0 1 0 18.8" fill="#c2e1ffCA"/><path d="M152.5 72.3a9.5 9.5 0 1 1 0-18.9 9.5 9.5 0 0 1 0 18.9" fill="#005bbbCB"/><path d="M136.5 75a9.5 9.5 0 1 1 0-19 9.5 9.5 0 0 1 0 19" fill="#fffCB"/><path d="M-58.6-320.3a9.5 9.5 0 1 1 0-19 9.5 9.5 0 0 1 0 19" fill="#fffCC"/><path d="M-104.9-48a9.5 9.5 0 1 1 0-19.1 9.5 9.5 0 0 1 0 19.1" fill="#c2e1ffCC"/><path d="M-92.7-27.8a9.5 9.5 0 1 1 0-19.1 9.5 9.5 0 0 1 0 19.1" fill="#c2e1ffCD"/><path d="M268.5-307.9a9.6 9.6 0 1 1 0-19.2 9.6 9.6 0 0 1 0 19.2" fill="#005bbbCE"/><path d="M-15.5 44.1a9.6 9.6 0 1 1 0-19.2 9.6 9.6 0 0 1 0 19.2" fill="#fffCE"/><path d="M140.2-377.1a9.6 9.6 0 1 1 0-19.3 9.6 9.6 0 0 1 0 19.3" fill="#c2e1ffCF"/><path d="M126.8 72.2a9.7 9.7 0 1 1 0-19.4 9.7 9.7 0 0 1 0 19.4" fill="#c2e1ffD0"/><path d="M27.2 61.5a9.7 9.7 0 1 1 0-19.4 9.7 9.7 0 0 1 0 19.4" fill="#c2e1ffD0"/><path d="M22.7-365.3a9.7 9.7 0 1 1 0-19.4 9.7 9.7 0 0 1 0 19.4" fill="#fffD0"/><path d="M117-377.8a9.7 9.7 0 1 1 0-19.4 9.7 9.7 0 0 1 0 19.4" fill="#fffD1"/><path d="M51.8-372.5a9.8 9.8 0 1 1 0-19.5 9.8 9.8 0 0 1 0 19.5" fill="#fffD1"/><path d="M179.6 57.2a9.8 9.8 0 1 1 0-19.5 9.8 9.8 0 0 1 0 19.5" fill="#fff500D2"/><path d="M89.7 71a9.8 9.8 0 1 1 0-19.6 9.8 9.8 0 0 1 0 19.6" fill="#005bbbD2"/><path d="M200.4 47.2a9.8 9.8 0 1 1 0-19.6 9.8 9.8 0 0 1 0 19.6" fill="#c2e1ffD2"/><path d="M213.9 39a9.8 9.8 0 1 1 0-19.7 9.8 9.8 0 0 1 0 19.7" fill="#c2e1ffD3"/><path d="M315.2-111a10 10 0 1 1 0-19.9 10 10 0 0 1 0 19.9" fill="#005bbbD6"/><path d="M264.4-297.3a10 10 0 1 1 0-19.9 10 10 0 0 1 0 19.9" fill="#fffD6"/><path d="M86 65.7a10 10 0 1 1 0-20 10 10 0 0 1 0 20" fill="#fff500D6"/><path d="M-112.3-185.4a10.1 10.1 0 1 1 0-20.2 10.1 10.1 0 0 1 0 20.2" fill="#fff500D9"/><path d="M252-5a10.2 10.2 0 1 1 0-20.4 10.2 10.2 0 0 1 0 20.4" fill="#fff500DA"/><path d="M306.8-123.6a10.2 10.2 0 1 1 0-20.4 10.2 10.2 0 0 1 0 20.4" fill="#c2e1ffDC"/><path d="M-86.4-65.3a10.3 10.3 0 1 1 0-20.7 10.3 10.3 0 0 1 0 20.7" fill="#fff500DE"/><path d="M-92.1-220.4a10.4 10.4 0 1 1 0-20.8 10.4 10.4 0 0 1 0 20.8" fill="#fff500DE"/><path d="M93-354.8a10.4 10.4 0 1 1 0-20.7 10.4 10.4 0 0 1 0 20.7" fill="#fffDF"/><path d="M-60.5-32.5a10.4 10.4 0 1 1 0-20.8 10.4 10.4 0 0 1 0 20.8" fill="#c2e1ffE0"/><path d="M-92.4-121.6a10.5 10.5 0 1 1 0-21.1 10.5 10.5 0 0 1 0 21.1" fill="#fffE2"/><path d="M229.1-7.5a10.6 10.6 0 1 1 0-21.1 10.6 10.6 0 0 1 0 21.1" fill="#c2e1ffE3"/><path d="M283.8-92.8a10.6 10.6 0 1 1 0-21.1 10.6 10.6 0 0 1 0 21.1" fill="#c2e1ffE3"/><path d="M275.8-228.4a10.6 10.6 0 1 1 0-21.2 10.6 10.6 0 0 1 0 21.2" fill="#c2e1ffE3"/><path d="M95.6 35.9a10.7 10.7 0 1 1 0-21.3 10.7 10.7 0 0 1 0 21.3" fill="#fffE5"/><path d="M23.9 18.7a10.7 10.7 0 1 1 0-21.3 10.7 10.7 0 0 1 0 21.3" fill="#fff500E5"/><path d="M-77.5-201.6a10.7 10.7 0 1 1 0-21.4 10.7 10.7 0 0 1 0 21.4" fill="#fffE6"/><path d="M268.3-79.8a10.7 10.7 0 1 1 0-21.5 10.7 10.7 0 0 1 0 21.5" fill="#005bbbE7"/><path d="M255.6-244.9a10.8 10.8 0 1 1 0-21.5 10.8 10.8 0 0 1 0 21.5" fill="#fffE7"/><path d="M86.5-329.9a10.8 10.8 0 1 1 0-21.6 10.8 10.8 0 0 1 0 21.6" fill="#fff500E8"/><path d="M-15-288a10.8 10.8 0 1 1 0-21.6 10.8 10.8 0 0 1 0 21.6" fill="#c2e1ffE8"/><path d="M271.3-102.6a10.8 10.8 0 1 1 0-21.6 10.8 10.8 0 0 1 0 21.6" fill="#c2e1ffE8"/><path d="M-76.3-132.5a10.8 10.8 0 1 1 0-21.6 10.8 10.8 0 0 1 0 21.6" fill="#005bbbE8"/><path d="M-23.4-278.6a10.8 10.8 0 1 1 0-21.7 10.8 10.8 0 0 1 0 21.7" fill="#c2e1ffE9"/><path d="M41.7-318.5a10.8 10.8 0 1 1 0-21.6 10.8 10.8 0 0 1 0 21.6" fill="#005bbbE9"/><path d="M23.7-308.9a10.8 10.8 0 1 1 0-21.7 10.8 10.8 0 0 1 0 21.7" fill="#005bbbE9"/><path d="M-10.9-22.9a10.9 10.9 0 1 1 0-21.9 10.9 10.9 0 0 1 0 21.9" fill="#005bbbEB"/><path d="M164.6-301.8a11 11 0 1 1 0-22 11 11 0 0 1 0 22" fill="#c2e1ffEC"/><path d="M-22.7-258.7a11 11 0 1 1 0-22 11 11 0 0 1 0 22" fill="#c2e1ffED"/><path d="M187.9-284.6a11 11 0 1 1 0-22.1 11 11 0 0 1 0 22.1" fill="#fff500ED"/><path d="M235.2-229.8a11.1 11.1 0 1 1 0-22.1 11.1 11.1 0 0 1 0 22.1" fill="#005bbbEE"/><path d="M60.3-6.1a11.1 11.1 0 1 1 0-22.3 11.1 11.1 0 0 1 0 22.3" fill="#fff500F0"/><path d="M2.7-265.1a11.1 11.1 0 1 1 0-22.2 11.1 11.1 0 0 1 0 22.2" fill="#c2e1ffF0"/><path d="M219-63.9a11.2 11.2 0 1 1 0-22.3 11.2 11.2 0 0 1 0 22.3" fill="#fffF0"/><path d="M-47.4-156.8a11.2 11.2 0 1 1 0-22.3 11.2 11.2 0 0 1 0 22.3" fill="#005bbbF0"/><path d="M200.2-255.3a11.2 11.2 0 1 1 0-22.4 11.2 11.2 0 0 1 0 22.4" fill="#c2e1ffF1"/><path d="M155.9-283.1a11.2 11.2 0 1 1 0-22.4 11.2 11.2 0 0 1 0 22.4" fill="#fffF1"/><path d="M213.9-234.8a11.2 11.2 0 1 1 0-22.4 11.2 11.2 0 0 1 0 22.4" fill="#c2e1ffF2"/><path d="M-23.9-130.9a11.4 11.4 0 1 1 0-22.7 11.4 11.4 0 0 1 0 22.7" fill="#005bbbF5"/><path d="M194.8-69.8a11.4 11.4 0 1 1 0-22.8 11.4 11.4 0 0 1 0 22.8" fill="#fffF5"/><path d="M195.2-75.8a11.4 11.4 0 1 1 0-22.8 11.4 11.4 0 0 1 0 22.8" fill="#005bbbF5"/><path d="M32.6-52.3a11.4 11.4 0 1 1 0-22.8 11.4 11.4 0 0 1 0 22.8" fill="#fff500F6"/><path d="M213.8-126.3a11.4 11.4 0 1 1 0-22.9 11.4 11.4 0 0 1 0 22.9" fill="#005bbbF6"/><path d="M9-167.4a11.6 11.6 0 1 1 0-23.1 11.6 11.6 0 0 1 0 23.1" fill="#c2e1ffF9"/><path d="M176.4-197.1a11.6 11.6 0 1 1 0-23.2 11.6 11.6 0 0 1 0 23.2" fill="#fff500FA"/><path d="M137.3-115.2a11.7 11.7 0 1 1 0-23.5 11.7 11.7 0 0 1 0 23.5" fill="#fffFD"/><path d="M150-152.7a11.7 11.7 0 1 1 0-23.5 11.7 11.7 0 0 1 0 23.5" fill="#c2e1ffFD"/><path d="M118.1-184.1a11.8 11.8 0 1 1 0-23.6 11.8 11.8 0 0 1 0 23.6" fill="#fff500FE"/><path d="M133.9-151.3a11.8 11.8 0 1 1 0-23.6 11.8 11.8 0 0 1 0 23.6" fill="#c2e1ffFE"/><path d="M81.2-166.8a11.8 11.8 0 1 1 0-23.6 11.8 11.8 0 0 1 0 23.6" fill="#005bbbFE"/><path d="M94.3-153.4a11.8 11.8 0 1 1 0-23.6 11.8 11.8 0 0 1 0 23.6" fill="#c2e1ffFE"/></g></svg>