<svg width="1200" height="675" viewBox="-500 -500 1200 675" xmlns="http://www.w3.org/2000/svg"><path d="M-500-500h1200v675h-1200z" fill="#000"/><style>.sparkles path{stroke-linecap:round; stroke-width:1}</style><g class="sparkles"><path d="M100-162.5l18.2-16" stroke="#005bbb32"/><path d="M100-162.5l15.3 36.2" stroke="#fff50032"/><path d="M100-162.5l8.3 53.1" stroke="#fff50033"/><path d="M100-162.5l72.3-44.4" stroke="#c2e1ff35"/><path d="M100-162.5l73.8 46.6" stroke="#c2e1ff35"/><path d="M100-162.5l-102-17.2" stroke="#fff50037"/><path d="M100-162.5l117.2 20.3" stroke="#fff38"/><path d="M100-162.5l31.4 125.6" stroke="#c2e1ff3A"/><path d="M100-162.5l79.3 104.5" stroke="#005bbb3A"/><path d="M100-162.5l101.5 83.2" stroke="#c2e1ff3A"/><path d="M100-162.5l55.1 121.7" stroke="#fff3A"/><path d="M100-162.5l42.9-132.1" stroke="#c2e1ff3B"/><path d="M100-162.5l-114.5-91" stroke="#fff5003C"/><path d="M100-162.5l124.1-82.9" stroke="#fff3D"/><path d="M100-162.5l152.6 5.3" stroke="#fff3D"/><path d="M100-162.5l149.7 35.8" stroke="#c2e1ff3E"/><path d="M100-162.5l-104.7 113.9" stroke="#005bbb3E"/><path d="M100-162.5l-95.9 121.6" stroke="#fff3E"/><path d="M100-162.5l61.3 145.9" stroke="#005bbb3E"/><path d="M100-162.5l127.5-106" stroke="#fff50040"/><path d="M100-162.5l-150.4-77.9" stroke="#fff50041"/><path d="M100-162.5l157.8 67.5" stroke="#fff41"/><path d="M100-162.5l-147.7 88.5" stroke="#fff50041"/><path d="M100-162.5l68-159.1" stroke="#fff41"/><path d="M100-162.5l-94.2-145.8" stroke="#005bbb42"/><path d="M100-162.5l29.3 172" stroke="#c2e1ff42"/><path d="M100-162.5l-132.4 119.9" stroke="#fff43"/><path d="M100-162.5l103.3 148.2" stroke="#c2e1ff43"/><path d="M100-162.5l31.3-178" stroke="#fff50043"/><path d="M100-162.5l-159.8 91.8" stroke="#fff50044"/><path d="M100-162.5l-162.5 87.5" stroke="#005bbb44"/><path d="M100-162.5l-156.3 98.4" stroke="#c2e1ff44"/><path d="M100-162.5l-167.5-79.1" stroke="#fff44"/><path d="M100-162.5l-86.8-164.3" stroke="#c2e1ff45"/><path d="M100-162.5l139.8 124.1" stroke="#005bbb45"/><path d="M100-162.5l-187.5-20.2" stroke="#fff50045"/><path d="M100-162.5l188.7 0" stroke="#fff50045"/><path d="M100-162.5l-194.3 5.2" stroke="#fff50047"/><path d="M100-162.5l175.6-87.1" stroke="#c2e1ff48"/><path d="M100-162.5l175.7 95.3" stroke="#005bbb49"/><path d="M100-162.5l-24.2-199.7" stroke="#fff49"/><path d="M100-162.5l160.6 124.3" stroke="#c2e1ff4A"/><path d="M100-162.5l-159.2-128.6" stroke="#c2e1ff4B"/><path d="M100-162.5l-36.1-206" stroke="#005bbb4C"/><path d="M100-162.5l-189.2-91.1" stroke="#005bbb4D"/><path d="M100-162.5l-207.7 52.8" stroke="#fff5004E"/><path d="M100-162.5l-159.5 144.9" stroke="#fff5004F"/><path d="M100-162.5l-33.7 213.8" stroke="#005bbb4F"/><path d="M100-162.5l-12.9 216.5" stroke="#fff50050"/><path d="M100-162.5l41.1-213.8" stroke="#c2e1ff50"/><path d="M100-162.5l129.2 176" stroke="#c2e1ff50"/><path d="M100-162.5l-32.3 216.9" stroke="#fff51"/><path d="M100-162.5l161 149" stroke="#fff50051"/><path d="M100-162.5l-192.2 107.4" stroke="#fff50051"/><path d="M100-162.5l211.2 74.3" stroke="#fff50054"/><path d="M100-162.5l9.3 225.2" stroke="#c2e1ff54"/><path d="M100-162.5l179.8 135.9" stroke="#005bbb55"/><path d="M100-162.5l10.9-225.3" stroke="#fff50055"/><path d="M100-162.5l-54.3-219.2" stroke="#fff50055"/><path d="M100-162.5l226 5.2" stroke="#005bbb55"/><path d="M100-162.5l-221.2-47.5" stroke="#fff55"/><path d="M100-162.5l43.2-222.1" stroke="#005bbb55"/><path d="M100-162.5l-119-192.6" stroke="#c2e1ff55"/><path d="M100-162.5l-85.1 210.5" stroke="#005bbb56"/><path d="M100-162.5l155.7 165.7" stroke="#fff50056"/><path d="M100-162.5l-77.3 214.2" stroke="#c2e1ff56"/><path d="M100-162.5l-218.6-65.3" stroke="#fff57"/><path d="M100-162.5l-228.3-0.9" stroke="#fff57"/><path d="M100-162.5l204.8 100.9" stroke="#fff57"/><path d="M100-162.5l221.4 55.9" stroke="#fff57"/><path d="M100-162.5l-92.4 209" stroke="#005bbb57"/><path d="M100-162.5l-228.3-13.8" stroke="#fff57"/><path d="M100-162.5l127.2 190.8" stroke="#c2e1ff57"/><path d="M100-162.5l-20.6-228.8" stroke="#c2e1ff58"/><path d="M100-162.5l-29.3 227.9" stroke="#c2e1ff58"/><path d="M100-162.5l194.5 122.4" stroke="#fff58"/><path d="M100-162.5l224.6-59.7" stroke="#005bbb5B"/><path d="M100-162.5l-223.6-64.2" stroke="#c2e1ff5B"/><path d="M100-162.5l-21.2-231.8" stroke="#c2e1ff5B"/><path d="M100-162.5l-171.3-158.3" stroke="#c2e1ff5B"/><path d="M100-162.5l-221.6-73.2" stroke="#fff5005C"/><path d="M100-162.5l-213.9 94.7" stroke="#c2e1ff5C"/><path d="M100-162.5l-233.2-21.6" stroke="#fff5D"/><path d="M100-162.5l232.3 32.1" stroke="#fff5005D"/><path d="M100-162.5l-124.4 199.4" stroke="#c2e1ff5E"/><path d="M100-162.5l228.9-53.8" stroke="#fff5005F"/><path d="M100-162.5l128.1-197.3" stroke="#fff5F"/><path d="M100-162.5l-41.4 231.7" stroke="#fff5F"/><path d="M100-162.5l50.2 230.1" stroke="#005bbb60"/><path d="M100-162.5l-101.1-213.1" stroke="#005bbb61"/><path d="M100-162.5l228.4-59.6" stroke="#fff61"/><path d="M100-162.5l-210 107.9" stroke="#fff62"/><path d="M100-162.5l-217.9-90.9" stroke="#c2e1ff62"/><path d="M100-162.5l-156.3-177.1" stroke="#fff50062"/><path d="M100-162.5l-188.9 141.8" stroke="#fff63"/><path d="M100-162.5l191.4 138.4" stroke="#fff50063"/><path d="M100-162.5l-166.2-167.9" stroke="#fff50063"/><path d="M100-162.5l119.8 203.6" stroke="#fff64"/><path d="M100-162.5l-189.6 140.9" stroke="#fff50064"/><path d="M100-162.5l34-233.6" stroke="#fff50065"/><path d="M100-162.5l-198.6-127.6" stroke="#fff66"/><path d="M100-162.5l-192.1-135.3" stroke="#fff69"/><path d="M100-162.5l78.1 221.6" stroke="#c2e1ff69"/><path d="M100-162.5l-222.6 70.8" stroke="#fff5006B"/><path d="M100-162.5l149.7 178.4" stroke="#fff5006C"/><path d="M100-162.5l-75.3 219.7" stroke="#005bbb6D"/><path d="M100-162.5l224.3-54" stroke="#fff5006E"/><path d="M100-162.5l193.6 125.4" stroke="#005bbb6E"/><path d="M100-162.5l-163.4 161.6" stroke="#c2e1ff6F"/><path d="M100-162.5l171.2-151.7" stroke="#fff70"/><path d="M100-162.5l-172.1-150.2" stroke="#fff50070"/><path d="M100-162.5l167.3 154.2" stroke="#005bbb71"/><path d="M100-162.5l4.8 226.5" stroke="#fff72"/><path d="M100-162.5l-87.9-208.6" stroke="#005bbb72"/><path d="M100-162.5l-142.5 175.2" stroke="#fff50072"/><path d="M100-162.5l-109.6-196.5" stroke="#fff50073"/><path d="M100-162.5l173.5 142.9" stroke="#fff50073"/><path d="M100-162.5l-224.5-9.4" stroke="#c2e1ff73"/><path d="M100-162.5l224.5-2.6" stroke="#005bbb73"/><path d="M100-162.5l212.1-71.9" stroke="#fff50073"/><path d="M100-162.5l219.7-37.2" stroke="#005bbb74"/><path d="M100-162.5l107-195.2" stroke="#c2e1ff74"/><path d="M100-162.5l86.3 204.9" stroke="#c2e1ff74"/><path d="M100-162.5l215.9 51.9" stroke="#005bbb75"/><path d="M100-162.5l119.7 186.3" stroke="#fff75"/><path d="M100-162.5l182.6 124.5" stroke="#fff75"/><path d="M100-162.5l-25.3 219.3" stroke="#fff75"/><path d="M100-162.5l187.4-113" stroke="#005bbb76"/><path d="M100-162.5l-208.5 64.9" stroke="#c2e1ff77"/><path d="M100-162.5l215.2-25.5" stroke="#fff50077"/><path d="M100-162.5l-216.3 7.9" stroke="#fff78"/><path d="M100-162.5l-24.1 213.5" stroke="#c2e1ff78"/><path d="M100-162.5l133.5-166.3" stroke="#c2e1ff79"/><path d="M100-162.5l61.9-203.7" stroke="#005bbb79"/><path d="M100-162.5l8.3-212.6" stroke="#fff79"/><path d="M100-162.5l212.5 1.6" stroke="#c2e1ff79"/><path d="M100-162.5l210-21.5" stroke="#fff5007A"/><path d="M100-162.5l205.8-12.2" stroke="#fff7C"/><path d="M100-162.5l175.7 107.6" stroke="#c2e1ff7C"/><path d="M100-162.5l34.2 202.8" stroke="#c2e1ff7C"/><path d="M100-162.5l-171.7-111.8" stroke="#fff5007C"/><path d="M100-162.5l197.1 52.2" stroke="#fff7D"/><path d="M100-162.5l195.6-54.2" stroke="#c2e1ff7D"/><path d="M100-162.5l-3.1-202.6" stroke="#fff5007D"/><path d="M100-162.5l-20.4-198.6" stroke="#fff7E"/><path d="M100-162.5l185.9-69.7" stroke="#005bbb7F"/><path d="M100-162.5l163.4-112.5" stroke="#fff7F"/><path d="M100-162.5l195.7 26.8" stroke="#005bbb7F"/><path d="M100-162.5l185.3 67.4" stroke="#c2e1ff7F"/><path d="M100-162.5l-15.9-195.4" stroke="#fff7F"/><path d="M100-162.5l142.9-123.7" stroke="#fff50082"/><path d="M100-162.5l-118.7-145.9" stroke="#fff50082"/><path d="M100-162.5l-165.9-86.4" stroke="#fff82"/><path d="M100-162.5l-149.8-111.3" stroke="#c2e1ff82"/><path d="M100-162.5l182.3 30.8" stroke="#fff83"/><path d="M100-162.5l166.3 75.1" stroke="#fff50083"/><path d="M100-162.5l-106.6 147.9" stroke="#fff83"/><path d="M100-162.5l-177.7 0" stroke="#fff50084"/><path d="M100-162.5l-102.9-144.3" stroke="#c2e1ff85"/><path d="M100-162.5l-35 172" stroke="#c2e1ff85"/><path d="M100-162.5l169.1-42.8" stroke="#fff85"/><path d="M100-162.5l165.3-50.1" stroke="#005bbb86"/><path d="M100-162.5l153.1 71.3" stroke="#fff86"/><path d="M100-162.5l-30.7-164.5" stroke="#fff50087"/><path d="M100-162.5l151.1-50.7" stroke="#fff88"/><path d="M100-162.5l156.4 21.6" stroke="#fff50089"/><path d="M100-162.5l46.2-142.2" stroke="#c2e1ff8A"/><path d="M100-162.5l-93.1 106.6" stroke="#fff5008C"/><path d="M100-162.5l93 96.3" stroke="#c2e1ff8D"/><path d="M100-162.5l73.1 111.6" stroke="#fff8D"/><path d="M100-162.5l126.5-32" stroke="#005bbb8D"/><path d="M100-162.5l-107.8-3.1" stroke="#fff50090"/><path d="M100-162.5l-105.7 8.1" stroke="#fff90"/><path d="M100-162.5l102.2 12.8" stroke="#fff90"/><path d="M100-162.5l-41.8 93.7" stroke="#fff50091"/><path d="M100-162.5l31.6 96.8" stroke="#fff91"/><path d="M100-162.5l-65.3-68.6" stroke="#fff50091"/><path d="M100-162.5l-61.6-62.2" stroke="#005bbb92"/><path d="M100-162.5l86 5.4" stroke="#fff50092"/><path d="M100-162.5l71.4-15" stroke="#fff50093"/><path d="M100-162.5l4.2 10" stroke="#005bbb95"/></g><g class="sparcs"><path d="M118.2-172.6a5.9 5.9 0 1 1 0-11.9 5.9 5.9 0 0 1 0 11.9" fill="#fff5007D"/><path d="M115.3-120.4a5.9 5.9 0 1 1 0-11.9 5.9 5.9 0 0 1 0 11.9" fill="#005bbb7D"/><path d="M108.3-103.4a6 6 0 1 1 0-12 6 6 0 0 1 0 12" fill="#005bbb7E"/><path d="M172.3-200.8a6.1 6.1 0 1 1 0-12.2 6.1 6.1 0 0 1 0 12.2" fill="#fff81"/><path d="M173.8-109.8a6.1 6.1 0 1 1 0-12.2 6.1 6.1 0 0 1 0 12.2" fill="#c2e1ff81"/><path d="M-2-173.5a6.2 6.2 0 1 1 0-12.4 6.2 6.2 0 0 1 0 12.4" fill="#c2e1ff83"/><path d="M217.2-135.9a6.3 6.3 0 1 1 0-12.6 6.3 6.3 0 0 1 0 12.6" fill="#005bbb85"/><path d="M131.4-30.5a6.4 6.4 0 1 1 0-12.8 6.4 6.4 0 0 1 0 12.8" fill="#005bbb87"/><path d="M179.3-51.6a6.4 6.4 0 1 1 0-12.8 6.4 6.4 0 0 1 0 12.8" fill="#005bbb87"/><path d="M201.5-72.9a6.4 6.4 0 1 1 0-12.8 6.4 6.4 0 0 1 0 12.8" fill="#fff50087"/><path d="M155.1-34.4a6.4 6.4 0 1 1 0-12.9 6.4 6.4 0 0 1 0 12.9" fill="#005bbb88"/><path d="M142.9-288.1a6.5 6.5 0 1 1 0-13 6.5 6.5 0 0 1 0 13" fill="#fff89"/><path d="M-14.5-246.9a6.5 6.5 0 1 1 0-13.1 6.5 6.5 0 0 1 0 13.1" fill="#c2e1ff8A"/><path d="M224.1-238.8a6.6 6.6 0 1 1 0-13.1 6.6 6.6 0 0 1 0 13.1" fill="#fff8B"/><path d="M252.6-150.6a6.6 6.6 0 1 1 0-13.2 6.6 6.6 0 0 1 0 13.2" fill="#005bbb8C"/><path d="M249.7-120.1a6.6 6.6 0 1 1 0-13.2 6.6 6.6 0 0 1 0 13.2" fill="#005bbb8C"/><path d="M-4.7-42a6.6 6.6 0 1 1 0-13.3 6.6 6.6 0 0 1 0 13.3" fill="#005bbb8C"/><path d="M4.1-34.3a6.6 6.6 0 1 1 0-13.2 6.6 6.6 0 0 1 0 13.2" fill="#005bbb8C"/><path d="M161.3-9.9a6.7 6.7 0 1 1 0-13.3 6.7 6.7 0 0 1 0 13.3" fill="#005bbb8D"/><path d="M227.5-261.8a6.8 6.8 0 1 1 0-13.5 6.8 6.8 0 0 1 0 13.5" fill="#fff5008F"/><path d="M-50.4-233.6a6.8 6.8 0 1 1 0-13.6 6.8 6.8 0 0 1 0 13.6" fill="#005bbb90"/><path d="M257.8-88.2a6.8 6.8 0 1 1 0-13.7 6.8 6.8 0 0 1 0 13.7" fill="#fff91"/><path d="M-47.7-67.2a6.8 6.8 0 1 1 0-13.7 6.8 6.8 0 0 1 0 13.7" fill="#fff91"/><path d="M168-314.8a6.8 6.8 0 1 1 0-13.7 6.8 6.8 0 0 1 0 13.7" fill="#fff50091"/><path d="M5.8-301.4a6.9 6.9 0 1 1 0-13.7 6.9 6.9 0 0 1 0 13.7" fill="#fff91"/><path d="M129.3 16.4a6.9 6.9 0 1 1 0-13.8 6.9 6.9 0 0 1 0 13.8" fill="#005bbb92"/><path d="M-32.4-35.7a6.9 6.9 0 1 1 0-13.8 6.9 6.9 0 0 1 0 13.8" fill="#005bbb93"/><path d="M203.3-7.3a7 7 0 1 1 0-13.9 7 7 0 0 1 0 13.9" fill="#c2e1ff94"/><path d="M131.3-333.5a7 7 0 1 1 0-14 7 7 0 0 1 0 14" fill="#c2e1ff94"/><path d="M-59.8-63.6a7 7 0 1 1 0-14.1 7 7 0 0 1 0 14.1" fill="#c2e1ff95"/><path d="M-62.5-68a7 7 0 1 1 0-14 7 7 0 0 1 0 14" fill="#fff95"/><path d="M-56.3-57.1a7 7 0 1 1 0-14.1 7 7 0 0 1 0 14.1" fill="#fff50095"/><path d="M-67.5-234.6a7 7 0 1 1 0-14 7 7 0 0 1 0 14" fill="#fff95"/><path d="M13.2-319.8a7 7 0 1 1 0-14 7 7 0 0 1 0 14" fill="#005bbb95"/><path d="M239.8-31.3a7.1 7.1 0 1 1 0-14.1 7.1 7.1 0 0 1 0 14.1" fill="#005bbb96"/><path d="M-87.5-175.6a7.1 7.1 0 1 1 0-14.2 7.1 7.1 0 0 1 0 14.2" fill="#005bbb96"/><path d="M288.7-155.4a7.1 7.1 0 1 1 0-14.2 7.1 7.1 0 0 1 0 14.2" fill="#fff50096"/><path d="M-94.3-150.1a7.2 7.2 0 1 1 0-14.4 7.2 7.2 0 0 1 0 14.4" fill="#005bbb99"/><path d="M275.6-242.4a7.2 7.2 0 1 1 0-14.4 7.2 7.2 0 0 1 0 14.4" fill="#005bbb99"/><path d="M275.7-59.9a7.3 7.3 0 1 1 0-14.6 7.3 7.3 0 0 1 0 14.6" fill="#005bbb9B"/><path d="M75.8-354.9a7.3 7.3 0 1 1 0-14.6 7.3 7.3 0 0 1 0 14.6" fill="#fff9B"/><path d="M260.6-30.9a7.4 7.4 0 1 1 0-14.7 7.4 7.4 0 0 1 0 14.7" fill="#fff9C"/><path d="M-59.2-283.7a7.4 7.4 0 1 1 0-14.7 7.4 7.4 0 0 1 0 14.7" fill="#fff5009D"/><path d="M63.9-361a7.5 7.5 0 1 1 0-15 7.5 7.5 0 0 1 0 15" fill="#c2e1ff9F"/><path d="M-89.2-246.1a7.5 7.5 0 1 1 0-15 7.5 7.5 0 0 1 0 15" fill="#005bbbA0"/><path d="M-107.7-102.1a7.6 7.6 0 1 1 0-15.2 7.6 7.6 0 0 1 0 15.2" fill="#c2e1ffA2"/><path d="M-59.5-10a7.6 7.6 0 1 1 0-15.3 7.6 7.6 0 0 1 0 15.3" fill="#fffA3"/><path d="M66.3 58.9a7.7 7.7 0 1 1 0-15.3 7.7 7.7 0 0 1 0 15.3" fill="#005bbbA3"/><path d="M87.1 61.7a7.7 7.7 0 1 1 0-15.4 7.7 7.7 0 0 1 0 15.4" fill="#fffA4"/><path d="M141.1-368.6a7.7 7.7 0 1 1 0-15.4 7.7 7.7 0 0 1 0 15.4" fill="#c2e1ffA4"/><path d="M229.2 21.3a7.7 7.7 0 1 1 0-15.5 7.7 7.7 0 0 1 0 15.5" fill="#fff500A5"/><path d="M67.7 62.1a7.8 7.8 0 1 1 0-15.5 7.8 7.8 0 0 1 0 15.5" fill="#fff500A5"/><path d="M261-5.8a7.8 7.8 0 1 1 0-15.5 7.8 7.8 0 0 1 0 15.5" fill="#fffA5"/><path d="M-92.2-47.3a7.8 7.8 0 1 1 0-15.6 7.8 7.8 0 0 1 0 15.6" fill="#005bbbA6"/><path d="M311.2-80.3a7.9 7.9 0 1 1 0-15.8 7.9 7.9 0 0 1 0 15.8" fill="#fff500A9"/><path d="M109.3 70.6a8 8 0 1 1 0-15.9 8 8 0 0 1 0 15.9" fill="#c2e1ffAA"/><path d="M279.8-18.6a8 8 0 1 1 0-16 8 8 0 0 1 0 16" fill="#fffAA"/><path d="M110.9-379.9a8 8 0 1 1 0-15.9 8 8 0 0 1 0 15.9" fill="#005bbbAA"/><path d="M45.7-373.7a8 8 0 1 1 0-16 8 8 0 0 1 0 16" fill="#fffAA"/><path d="M326-149.3a8 8 0 1 1 0-16 8 8 0 0 1 0 16" fill="#005bbbAB"/><path d="M-121.2-202a8 8 0 1 1 0-16 8 8 0 0 1 0 16" fill="#fff500AB"/><path d="M143.2-376.6a8 8 0 1 1 0-16 8 8 0 0 1 0 16" fill="#005bbbAB"/><path d="M-19-347.1a8 8 0 1 1 0-16 8 8 0 0 1 0 16" fill="#fff500AB"/><path d="M14.9 56.1a8 8 0 1 1 0-16.1 8 8 0 0 1 0 16.1" fill="#005bbbAC"/><path d="M255.7 11.3a8.1 8.1 0 1 1 0-16.1 8.1 8.1 0 0 1 0 16.1" fill="#005bbbAC"/><path d="M22.7 59.8a8.1 8.1 0 1 1 0-16.2 8.1 8.1 0 0 1 0 16.2" fill="#005bbbAC"/><path d="M-118.6-219.7a8.1 8.1 0 1 1 0-16.2 8.1 8.1 0 0 1 0 16.2" fill="#fff500AD"/><path d="M-128.3-155.3a8.1 8.1 0 1 1 0-16.2 8.1 8.1 0 0 1 0 16.2" fill="#c2e1ffAD"/><path d="M304.8-53.5a8.1 8.1 0 1 1 0-16.2 8.1 8.1 0 0 1 0 16.2" fill="#fffAD"/><path d="M321.4-98.5a8.1 8.1 0 1 1 0-16.2 8.1 8.1 0 0 1 0 16.2" fill="#c2e1ffAD"/><path d="M7.6 54.6a8.1 8.1 0 1 1 0-16.2 8.1 8.1 0 0 1 0 16.2" fill="#fffAD"/><path d="M-128.3-168.1a8.1 8.1 0 1 1 0-16.3 8.1 8.1 0 0 1 0 16.3" fill="#c2e1ffAD"/><path d="M227.2 36.4a8.1 8.1 0 1 1 0-16.3 8.1 8.1 0 0 1 0 16.3" fill="#fffAE"/><path d="M79.4-383.1a8.2 8.2 0 1 1 0-16.3 8.2 8.2 0 0 1 0 16.3" fill="#005bbbAE"/><path d="M70.7 73.6a8.2 8.2 0 1 1 0-16.4 8.2 8.2 0 0 1 0 16.4" fill="#c2e1ffAE"/><path d="M294.5-31.9a8.2 8.2 0 1 1 0-16.4 8.2 8.2 0 0 1 0 16.4" fill="#c2e1ffAE"/><path d="M324.6-213.9a8.3 8.3 0 1 1 0-16.7 8.3 8.3 0 0 1 0 16.7" fill="#fffB2"/><path d="M-123.6-218.4a8.3 8.3 0 1 1 0-16.7 8.3 8.3 0 0 1 0 16.7" fill="#fffB2"/><path d="M78.8-385.9a8.4 8.4 0 1 1 0-16.7 8.4 8.4 0 0 1 0 16.7" fill="#fff500B2"/><path d="M-71.3-312.4a8.4 8.4 0 1 1 0-16.7 8.4 8.4 0 0 1 0 16.7" fill="#fff500B3"/><path d="M-121.6-227.3a8.4 8.4 0 1 1 0-16.8 8.4 8.4 0 0 1 0 16.8" fill="#c2e1ffB3"/><path d="M-113.9-59.3a8.4 8.4 0 1 1 0-16.9 8.4 8.4 0 0 1 0 16.9" fill="#005bbbB4"/><path d="M-133.2-175.6a8.5 8.5 0 1 1 0-17 8.5 8.5 0 0 1 0 17" fill="#fffB5"/><path d="M332.3-121.9a8.5 8.5 0 1 1 0-17 8.5 8.5 0 0 1 0 17" fill="#fffB6"/><path d="M-24.4 45.5a8.6 8.6 0 1 1 0-17.1 8.6 8.6 0 0 1 0 17.1" fill="#fff500B7"/><path d="M328.9-207.7a8.6 8.6 0 1 1 0-17.2 8.6 8.6 0 0 1 0 17.2" fill="#c2e1ffB7"/><path d="M228.1-351.2a8.6 8.6 0 1 1 0-17.2 8.6 8.6 0 0 1 0 17.2" fill="#c2e1ffB7"/><path d="M58.6 77.8a8.6 8.6 0 1 1 0-17.2 8.6 8.6 0 0 1 0 17.2" fill="#fff500B8"/><path d="M150.2 76.3a8.6 8.6 0 1 1 0-17.3 8.6 8.6 0 0 1 0 17.3" fill="#005bbbB8"/><path d="M-1.1-366.9a8.7 8.7 0 1 1 0-17.4 8.7 8.7 0 0 1 0 17.4" fill="#fff500BA"/><path d="M328.4-213.4a8.7 8.7 0 1 1 0-17.5 8.7 8.7 0 0 1 0 17.5" fill="#fffBB"/><path d="M-110-45.8a8.8 8.8 0 1 1 0-17.5 8.8 8.8 0 0 1 0 17.5" fill="#fffBB"/><path d="M-117.9-244.7a8.8 8.8 0 1 1 0-17.5 8.8 8.8 0 0 1 0 17.5" fill="#fff500BB"/><path d="M-56.3-330.8a8.8 8.8 0 1 1 0-17.5 8.8 8.8 0 0 1 0 17.5" fill="#fffBC"/><path d="M-88.9-11.9a8.8 8.8 0 1 1 0-17.6 8.8 8.8 0 0 1 0 17.6" fill="#fff500BD"/><path d="M291.4-15.2a8.8 8.8 0 1 1 0-17.7 8.8 8.8 0 0 1 0 17.7" fill="#fff500BD"/><path d="M-66.2-321.6a8.8 8.8 0 1 1 0-17.6 8.8 8.8 0 0 1 0 17.6" fill="#c2e1ffBD"/><path d="M219.8 50a8.9 8.9 0 1 1 0-17.7 8.9 8.9 0 0 1 0 17.7" fill="#fffBE"/><path d="M-89.6-12.7a8.9 8.9 0 1 1 0-17.8 8.9 8.9 0 0 1 0 17.8" fill="#fff500BE"/><path d="M134-387.2a9 9 0 1 1 0-17.9 9 9 0 0 1 0 17.9" fill="#005bbbC0"/><path d="M-98.6-281.1a9 9 0 1 1 0-18 9 9 0 0 1 0 18" fill="#c2e1ffC0"/><path d="M-92.1-288.6a9.2 9.2 0 1 1 0-18.4 9.2 9.2 0 0 1 0 18.4" fill="#c2e1ffC4"/><path d="M178.1 68.3a9.2 9.2 0 1 1 0-18.4 9.2 9.2 0 0 1 0 18.4" fill="#fffC4"/><path d="M-122.6-82.4a9.3 9.3 0 1 1 0-18.6 9.3 9.3 0 0 1 0 18.6" fill="#c2e1ffC7"/><path d="M249.7 25.3a9.4 9.4 0 1 1 0-18.8 9.4 9.4 0 0 1 0 18.8" fill="#fffC8"/><path d="M24.7 66.6a9.4 9.4 0 1 1 0-18.8 9.4 9.4 0 0 1 0 18.8" fill="#fff500C9"/><path d="M324.3-207a9.5 9.5 0 1 1 0-19 9.5 9.5 0 0 1 0 19" fill="#005bbbCB"/><path d="M293.6-27.6a9.5 9.5 0 1 1 0-19 9.5 9.5 0 0 1 0 19" fill="#fff500CC"/><path d="M-63.4 8.6a9.5 9.5 0 1 1 0-19 9.5 9.5 0 0 1 0 19" fill="#c2e1ffCD"/><path d="M271.2-304.6a9.6 9.6 0 1 1 0-19.2 9.6 9.6 0 0 1 0 19.2" fill="#c2e1ffCE"/><path d="M-72.1-303.1a9.6 9.6 0 1 1 0-19.2 9.6 9.6 0 0 1 0 19.2" fill="#fffCE"/><path d="M267.3 1.4a9.7 9.7 0 1 1 0-19.3 9.7 9.7 0 0 1 0 19.3" fill="#005bbbCF"/><path d="M104.8 73.7a9.7 9.7 0 1 1 0-19.4 9.7 9.7 0 0 1 0 19.4" fill="#fff500D0"/><path d="M12.1-361.4a9.7 9.7 0 1 1 0-19.4 9.7 9.7 0 0 1 0 19.4" fill="#fff500D0"/><path d="M-42.5 22.4a9.7 9.7 0 1 1 0-19.5 9.7 9.7 0 0 1 0 19.5" fill="#c2e1ffD1"/><path d="M-9.6-349.2a9.8 9.8 0 1 1 0-19.5 9.8 9.8 0 0 1 0 19.5" fill="#005bbbD1"/><path d="M273.5-9.9a9.8 9.8 0 1 1 0-19.5 9.8 9.8 0 0 1 0 19.5" fill="#fff500D2"/><path d="M-124.5-162.2a9.8 9.8 0 1 1 0-19.5 9.8 9.8 0 0 1 0 19.5" fill="#fffD2"/><path d="M324.5-155.4a9.8 9.8 0 1 1 0-19.5 9.8 9.8 0 0 1 0 19.5" fill="#005bbbD2"/><path d="M312.1-224.6a9.8 9.8 0 1 1 0-19.6 9.8 9.8 0 0 1 0 19.6" fill="#c2e1ffD2"/><path d="M319.7-189.9a9.8 9.8 0 1 1 0-19.6 9.8 9.8 0 0 1 0 19.6" fill="#fffD3"/><path d="M207-347.9a9.8 9.8 0 1 1 0-19.7 9.8 9.8 0 0 1 0 19.7" fill="#c2e1ffD3"/><path d="M186.3 52.3a9.9 9.9 0 1 1 0-19.7 9.9 9.9 0 0 1 0 19.7" fill="#c2e1ffD3"/><path d="M315.9-100.7a9.9 9.9 0 1 1 0-19.8 9.9 9.9 0 0 1 0 19.8" fill="#c2e1ffD4"/><path d="M219.7 33.6a9.9 9.9 0 1 1 0-19.7 9.9 9.9 0 0 1 0 19.7" fill="#005bbbD4"/><path d="M282.6-28.1a9.9 9.9 0 1 1 0-19.8 9.9 9.9 0 0 1 0 19.8" fill="#c2e1ffD4"/><path d="M74.7 66.7a9.9 9.9 0 1 1 0-19.8 9.9 9.9 0 0 1 0 19.8" fill="#fffD5"/><path d="M287.4-265.5a10 10 0 1 1 0-20 10 10 0 0 1 0 20" fill="#fffD6"/><path d="M-108.5-87.6a10 10 0 1 1 0-20 10 10 0 0 1 0 20" fill="#fffD6"/><path d="M315.2-178a10 10 0 1 1 0-20 10 10 0 0 1 0 20" fill="#fffD7"/><path d="M-116.3-144.6a10 10 0 1 1 0-20.1 10 10 0 0 1 0 20.1" fill="#c2e1ffD8"/><path d="M75.9 61.1a10.1 10.1 0 1 1 0-20.1 10.1 10.1 0 0 1 0 20.1" fill="#fff500D9"/><path d="M233.5-318.7a10.1 10.1 0 1 1 0-20.2 10.1 10.1 0 0 1 0 20.2" fill="#c2e1ffD9"/><path d="M161.9-356.1a10.1 10.1 0 1 1 0-20.3 10.1 10.1 0 0 1 0 20.3" fill="#fffDA"/><path d="M108.3-365a10.1 10.1 0 1 1 0-20.3 10.1 10.1 0 0 1 0 20.3" fill="#fffDA"/><path d="M312.5-150.8a10.2 10.2 0 1 1 0-20.3 10.2 10.2 0 0 1 0 20.3" fill="#c2e1ffDA"/><path d="M310-173.8a10.2 10.2 0 1 1 0-20.4 10.2 10.2 0 0 1 0 20.4" fill="#fffDB"/><path d="M305.8-164.4a10.3 10.3 0 1 1 0-20.6 10.3 10.3 0 0 1 0 20.6" fill="#c2e1ffDD"/><path d="M275.7-44.6a10.3 10.3 0 1 1 0-20.6 10.3 10.3 0 0 1 0 20.6" fill="#fffDD"/><path d="M134.2 50.7a10.3 10.3 0 1 1 0-20.7 10.3 10.3 0 0 1 0 20.7" fill="#005bbbDD"/><path d="M-71.7-264a10.3 10.3 0 1 1 0-20.6 10.3 10.3 0 0 1 0 20.6" fill="#005bbbDE"/><path d="M297.1-100a10.4 10.4 0 1 1 0-20.7 10.4 10.4 0 0 1 0 20.7" fill="#fffDE"/><path d="M295.6-206.4a10.4 10.4 0 1 1 0-20.7 10.4 10.4 0 0 1 0 20.7" fill="#fff500DF"/><path d="M96.9-354.8a10.4 10.4 0 1 1 0-20.7 10.4 10.4 0 0 1 0 20.7" fill="#005bbbDF"/><path d="M79.6-350.7a10.4 10.4 0 1 1 0-20.8 10.4 10.4 0 0 1 0 20.8" fill="#c2e1ffE0"/><path d="M285.9-221.8a10.5 10.5 0 1 1 0-20.9 10.5 10.5 0 0 1 0 20.9" fill="#005bbbE1"/><path d="M263.4-264.5a10.5 10.5 0 1 1 0-21 10.5 10.5 0 0 1 0 21" fill="#005bbbE1"/><path d="M295.7-125.3a10.5 10.5 0 1 1 0-20.9 10.5 10.5 0 0 1 0 20.9" fill="#c2e1ffE1"/><path d="M285.3-84.6a10.5 10.5 0 1 1 0-21 10.5 10.5 0 0 1 0 21" fill="#c2e1ffE1"/><path d="M84.1-347.4a10.5 10.5 0 1 1 0-21 10.5 10.5 0 0 1 0 21" fill="#c2e1ffE2"/><path d="M242.9-275.5a10.6 10.6 0 1 1 0-21.3 10.6 10.6 0 0 1 0 21.3" fill="#c2e1ffE5"/><path d="M-18.7-297.7a10.6 10.6 0 1 1 0-21.3 10.6 10.6 0 0 1 0 21.3" fill="#c2e1ffE5"/><path d="M-65.9-238.3a10.7 10.7 0 1 1 0-21.3 10.7 10.7 0 0 1 0 21.3" fill="#c2e1ffE5"/><path d="M-49.8-263.1a10.7 10.7 0 1 1 0-21.4 10.7 10.7 0 0 1 0 21.4" fill="#fff500E5"/><path d="M282.3-121a10.7 10.7 0 1 1 0-21.4 10.7 10.7 0 0 1 0 21.4" fill="#c2e1ffE6"/><path d="M266.3-76.7a10.7 10.7 0 1 1 0-21.4 10.7 10.7 0 0 1 0 21.4" fill="#c2e1ffE7"/><path d="M-6.6-3.9a10.7 10.7 0 1 1 0-21.5 10.7 10.7 0 0 1 0 21.5" fill="#005bbbE7"/><path d="M-77.7-151.7a10.8 10.8 0 1 1 0-21.6 10.8 10.8 0 0 1 0 21.6" fill="#005bbbE8"/><path d="M-2.9-295.9a10.8 10.8 0 1 1 0-21.7 10.8 10.8 0 0 1 0 21.7" fill="#fffE8"/><path d="M65 20.3a10.8 10.8 0 1 1 0-21.6 10.8 10.8 0 0 1 0 21.6" fill="#c2e1ffE9"/><path d="M269.1-194.5a10.9 10.9 0 1 1 0-21.7 10.9 10.9 0 0 1 0 21.7" fill="#fffE9"/><path d="M265.3-201.7a10.9 10.9 0 1 1 0-21.7 10.9 10.9 0 0 1 0 21.7" fill="#fffEA"/><path d="M253.1-80.3a10.9 10.9 0 1 1 0-21.9 10.9 10.9 0 0 1 0 21.9" fill="#fff500EB"/><path d="M69.3-316a10.9 10.9 0 1 1 0-21.9 10.9 10.9 0 0 1 0 21.9" fill="#005bbbEB"/><path d="M251.1-202.2a11 11 0 1 1 0-22.1 11 11 0 0 1 0 22.1" fill="#fff500ED"/><path d="M256.4-129.8a11.1 11.1 0 1 1 0-22.2 11.1 11.1 0 0 1 0 22.2" fill="#005bbbEE"/><path d="M146.2-293.6a11.1 11.1 0 1 1 0-22.3 11.1 11.1 0 0 1 0 22.3" fill="#005bbbF0"/><path d="M6.9-44.6a11.2 11.2 0 1 1 0-22.5 11.2 11.2 0 0 1 0 22.5" fill="#c2e1ffF2"/><path d="M193-54.9a11.3 11.3 0 1 1 0-22.6 11.3 11.3 0 0 1 0 22.6" fill="#c2e1ffF3"/><path d="M173.1-39.6a11.3 11.3 0 1 1 0-22.6 11.3 11.3 0 0 1 0 22.6" fill="#c2e1ffF3"/><path d="M226.5-183.2a11.3 11.3 0 1 1 0-22.6 11.3 11.3 0 0 1 0 22.6" fill="#fff500F4"/><path d="M-7.8-154.1a11.5 11.5 0 1 1 0-23 11.5 11.5 0 0 1 0 23" fill="#c2e1ffF7"/><path d="M-5.7-142.9a11.5 11.5 0 1 1 0-23 11.5 11.5 0 0 1 0 23" fill="#fff500F8"/><path d="M202.2-138.2a11.5 11.5 0 1 1 0-23 11.5 11.5 0 0 1 0 23" fill="#fff500F8"/><path d="M58.2-57.3a11.5 11.5 0 1 1 0-23 11.5 11.5 0 0 1 0 23" fill="#005bbbF8"/><path d="M131.6-54.2a11.5 11.5 0 1 1 0-23 11.5 11.5 0 0 1 0 23" fill="#005bbbF8"/><path d="M34.7-219.5a11.6 11.6 0 1 1 0-23.2 11.6 11.6 0 0 1 0 23.2" fill="#fffF9"/><path d="M38.4-213.1a11.6 11.6 0 1 1 0-23.3 11.6 11.6 0 0 1 0 23.3" fill="#fffFA"/><path d="M186-145.5a11.6 11.6 0 1 1 0-23.2 11.6 11.6 0 0 1 0 23.2" fill="#fffFA"/><path d="M171.4-165.8a11.7 11.7 0 1 1 0-23.3 11.7 11.7 0 0 1 0 23.3" fill="#c2e1ffFB"/><path d="M104.2-140.6a11.8 11.8 0 1 1 0-23.7 11.8 11.8 0 0 1 0 23.7" fill="#fff500FE"/></g></svg>