<svg width="1200" height="675" viewBox="-500 -500 1200 675" xmlns="http://www.w3.org/2000/svg"><path d="M-500-500h1200v675h-1200z" fill="#000"/><style>.sparkles path{stroke-linecap:round; stroke-width:1}</style><g class="sparkles"><path d="M100-162.5l5.9-63" stroke="#005bbb33"/><path d="M100-162.5l-43.4-47.1" stroke="#fff50033"/><path d="M100-162.5l55.7-47.2" stroke="#005bbb34"/><path d="M100-162.5l-10.7 74.7" stroke="#fff34"/><path d="M100-162.5l68 32.9" stroke="#005bbb34"/><path d="M100-162.5l20.3-73.1" stroke="#fff50034"/><path d="M100-162.5l-79.1 22" stroke="#fff35"/><path d="M100-162.5l-39.4 77.6" stroke="#005bbb35"/><path d="M100-162.5l-42.3 79.6" stroke="#fff50035"/><path d="M100-162.5l-55.7-77.4" stroke="#c2e1ff36"/><path d="M100-162.5l17.2 100.9" stroke="#005bbb36"/><path d="M100-162.5l67.2 82.1" stroke="#fff50037"/><path d="M100-162.5l-84.5-64.3" stroke="#fff50037"/><path d="M100-162.5l-2.3-106.2" stroke="#c2e1ff37"/><path d="M100-162.5l70.2 81.8" stroke="#c2e1ff37"/><path d="M100-162.5l-118.8 5.6" stroke="#c2e1ff38"/><path d="M100-162.5l89-84.2" stroke="#fff39"/><path d="M100-162.5l101.6 70" stroke="#005bbb39"/><path d="M100-162.5l-27.1-132.3" stroke="#fff5003A"/><path d="M100-162.5l62.8-124" stroke="#fff3B"/><path d="M100-162.5l-85.8-114.7" stroke="#c2e1ff3C"/><path d="M100-162.5l-141.8 28.9" stroke="#fff5003C"/><path d="M100-162.5l-93.2-119.1" stroke="#fff3D"/><path d="M100-162.5l138.3 68.2" stroke="#fff5003E"/><path d="M100-162.5l129.4-85.9" stroke="#fff3E"/><path d="M100-162.5l34.2 151.7" stroke="#fff5003E"/><path d="M100-162.5l60-146.2" stroke="#fff3E"/><path d="M100-162.5l94.5-127.6" stroke="#c2e1ff3E"/><path d="M100-162.5l107.1 121.8" stroke="#005bbb3F"/><path d="M100-162.5l-60.7 152.9" stroke="#fff40"/><path d="M100-162.5l130.6 104.4" stroke="#fff50040"/><path d="M100-162.5l134.3 101.5" stroke="#fff50040"/><path d="M100-162.5l55.6-161.3" stroke="#fff41"/><path d="M100-162.5l139.6 101.3" stroke="#c2e1ff41"/><path d="M100-162.5l1.5-178.4" stroke="#005bbb43"/><path d="M100-162.5l161-82.9" stroke="#005bbb43"/><path d="M100-162.5l187.1-31.4" stroke="#fff46"/><path d="M100-162.5l-136.3-132.3" stroke="#fff46"/><path d="M100-162.5l-34.4-187.9" stroke="#c2e1ff46"/><path d="M100-162.5l51.8-186.4" stroke="#005bbb47"/><path d="M100-162.5l-165.6-102" stroke="#c2e1ff47"/><path d="M100-162.5l124.5-150.9" stroke="#fff47"/><path d="M100-162.5l48.6 191.3" stroke="#fff50048"/><path d="M100-162.5l-25.6-196.6" stroke="#005bbb48"/><path d="M100-162.5l161.6 115.1" stroke="#c2e1ff48"/><path d="M100-162.5l-190-66.9" stroke="#c2e1ff49"/><path d="M100-162.5l60.7 192.5" stroke="#005bbb4A"/><path d="M100-162.5l199.9-33.5" stroke="#fff5004A"/><path d="M100-162.5l-146.2 142.7" stroke="#005bbb4A"/><path d="M100-162.5l14.7-204.4" stroke="#005bbb4B"/><path d="M100-162.5l169.9 117.3" stroke="#c2e1ff4B"/><path d="M100-162.5l-14.2 206.7" stroke="#005bbb4B"/><path d="M100-162.5l-204.9 37.4" stroke="#fff5004C"/><path d="M100-162.5l178.2-108.3" stroke="#c2e1ff4C"/><path d="M100-162.5l71 198.4" stroke="#c2e1ff4D"/><path d="M100-162.5l24 209.6" stroke="#005bbb4D"/><path d="M100-162.5l162.7-135.9" stroke="#005bbb4D"/><path d="M100-162.5l4 214.7" stroke="#005bbb4F"/><path d="M100-162.5l-212.6 34" stroke="#fff4F"/><path d="M100-162.5l-22.6 219.5" stroke="#fff52"/><path d="M100-162.5l220.9 0" stroke="#fff52"/><path d="M100-162.5l-222.2-17" stroke="#005bbb53"/><path d="M100-162.5l-114.2 192.3" stroke="#005bbb53"/><path d="M100-162.5l-161.5-155" stroke="#fff50054"/><path d="M100-162.5l134.6 180.2" stroke="#fff54"/><path d="M100-162.5l72.5 213.3" stroke="#fff54"/><path d="M100-162.5l-7.2-225.7" stroke="#005bbb55"/><path d="M100-162.5l-72.3-215.6" stroke="#fff56"/><path d="M100-162.5l228.2 8.2" stroke="#c2e1ff57"/><path d="M100-162.5l-228.7-3.4" stroke="#005bbb57"/><path d="M100-162.5l-107-203.2" stroke="#005bbb58"/><path d="M100-162.5l-154.8 171.3" stroke="#fff50059"/><path d="M100-162.5l153.8-172.5" stroke="#c2e1ff59"/><path d="M100-162.5l86.3 215.9" stroke="#005bbb5B"/><path d="M100-162.5l-101.4 210.6" stroke="#005bbb5C"/><path d="M100-162.5l231.7-33" stroke="#005bbb5D"/><path d="M100-162.5l226.1-62.4" stroke="#fff5D"/><path d="M100-162.5l-225.5-64.6" stroke="#005bbb5E"/><path d="M100-162.5l176.2-155" stroke="#fff5005E"/><path d="M100-162.5l-17.4 234.1" stroke="#c2e1ff5E"/><path d="M100-162.5l-1.9-234.9" stroke="#005bbb5E"/><path d="M100-162.5l-140.9 188.1" stroke="#fff5E"/><path d="M100-162.5l-59.4 227.4" stroke="#fff5005E"/><path d="M100-162.5l133.3-193.7" stroke="#005bbb5F"/><path d="M100-162.5l-38.1 232.3" stroke="#c2e1ff5F"/><path d="M100-162.5l216.5-92.8" stroke="#005bbb60"/><path d="M100-162.5l-28.9-234.2" stroke="#c2e1ff61"/><path d="M100-162.5l-12.9-235.7" stroke="#fff50061"/><path d="M100-162.5l84.4-220.5" stroke="#c2e1ff62"/><path d="M100-162.5l212.9 102.1" stroke="#fff62"/><path d="M100-162.5l46.7-231.5" stroke="#fff62"/><path d="M100-162.5l-236 9.2" stroke="#005bbb62"/><path d="M100-162.5l233.5 35.4" stroke="#005bbb63"/><path d="M100-162.5l69.1 225.9" stroke="#c2e1ff63"/><path d="M100-162.5l-128-198.6" stroke="#fff50063"/><path d="M100-162.5l82.4 221.4" stroke="#c2e1ff63"/><path d="M100-162.5l-153.5 179.6" stroke="#c2e1ff63"/><path d="M100-162.5l235.9 11.7" stroke="#005bbb64"/><path d="M100-162.5l0.7-236.1" stroke="#fff66"/><path d="M100-162.5l-187.6-143.1" stroke="#c2e1ff66"/><path d="M100-162.5l235.9-1" stroke="#fff50066"/><path d="M100-162.5l-147.6-183.3" stroke="#005bbb68"/><path d="M100-162.5l39.8-231.9" stroke="#fff50068"/><path d="M100-162.5l230.1 48.3" stroke="#fff50068"/><path d="M100-162.5l-20.4-233.7" stroke="#c2e1ff69"/><path d="M100-162.5l-233 25.2" stroke="#fff6A"/><path d="M100-162.5l234.2 9.4" stroke="#fff6A"/><path d="M100-162.5l111.2 206.3" stroke="#005bbb6A"/><path d="M100-162.5l233.7 12.4" stroke="#fff5006A"/><path d="M100-162.5l-132.5-192.6" stroke="#c2e1ff6B"/><path d="M100-162.5l233.2 14.1" stroke="#fff6B"/><path d="M100-162.5l126.7-196.2" stroke="#c2e1ff6B"/><path d="M100-162.5l-230.2-37.8" stroke="#fff5006B"/><path d="M100-162.5l-169.4 160.2" stroke="#fff5006C"/><path d="M100-162.5l7.9-232" stroke="#fff5006D"/><path d="M100-162.5l228.3-28.7" stroke="#005bbb6F"/><path d="M100-162.5l-224.6 47.9" stroke="#fff5006F"/><path d="M100-162.5l203 107.2" stroke="#fff5006F"/><path d="M100-162.5l-227.5-26.2" stroke="#fff50070"/><path d="M100-162.5l226.7-31.4" stroke="#fff70"/><path d="M100-162.5l-13.5 227" stroke="#fff71"/><path d="M100-162.5l-224.8-14.9" stroke="#fff73"/><path d="M100-162.5l-167.4 150.2" stroke="#005bbb73"/><path d="M100-162.5l-177.2 135.8" stroke="#c2e1ff74"/><path d="M100-162.5l-15.1 221.7" stroke="#005bbb74"/><path d="M100-162.5l10.6-221.4" stroke="#fff75"/><path d="M100-162.5l-217.2 13.3" stroke="#005bbb77"/><path d="M100-162.5l130.9-173.6" stroke="#005bbb77"/><path d="M100-162.5l-207.1-65.6" stroke="#fff50077"/><path d="M100-162.5l-38.3-213.2" stroke="#fff50077"/><path d="M100-162.5l102.7 190.5" stroke="#fff50078"/><path d="M100-162.5l-102.9-190.4" stroke="#c2e1ff78"/><path d="M100-162.5l-13.2 215" stroke="#005bbb78"/><path d="M100-162.5l106.8 185.6" stroke="#005bbb79"/><path d="M100-162.5l173.1 124.6" stroke="#fff50079"/><path d="M100-162.5l197.4-72.3" stroke="#005bbb7A"/><path d="M100-162.5l202.5 10" stroke="#fff5007D"/><path d="M100-162.5l-166.6 115" stroke="#fff7D"/><path d="M100-162.5l-192.2-61.4" stroke="#c2e1ff7E"/><path d="M100-162.5l44.7-195.7" stroke="#fff7E"/><path d="M100-162.5l-78.6 183.7" stroke="#fff7E"/><path d="M100-162.5l-93 176.1" stroke="#c2e1ff7E"/><path d="M100-162.5l194.9 1.5" stroke="#c2e1ff80"/><path d="M100-162.5l76.9 173.4" stroke="#c2e1ff81"/><path d="M100-162.5l-98.9-160" stroke="#005bbb82"/><path d="M100-162.5l-148.7-111.8" stroke="#fff82"/><path d="M100-162.5l183.5-25.7" stroke="#fff83"/><path d="M100-162.5l-80.7 163.8" stroke="#c2e1ff83"/><path d="M100-162.5l165.4 73.1" stroke="#005bbb84"/><path d="M100-162.5l162.3 14.1" stroke="#005bbb88"/><path d="M100-162.5l91.8 133.8" stroke="#c2e1ff88"/><path d="M100-162.5l36.5-157.8" stroke="#c2e1ff88"/><path d="M100-162.5l53.7 148.3" stroke="#c2e1ff89"/><path d="M100-162.5l95.2 122.1" stroke="#c2e1ff89"/><path d="M100-162.5l-93.3 120.4" stroke="#c2e1ff8A"/><path d="M100-162.5l49.5-142.3" stroke="#005bbb8A"/><path d="M100-162.5l-2.7-143.3" stroke="#fff5008B"/><path d="M100-162.5l83.1-116.4" stroke="#c2e1ff8B"/><path d="M100-162.5l-136.3-38.9" stroke="#fff5008C"/><path d="M100-162.5l56.1 130.1" stroke="#fff8C"/><path d="M100-162.5l70.8-121" stroke="#c2e1ff8C"/><path d="M100-162.5l98.8-91.3" stroke="#005bbb8D"/><path d="M100-162.5l96.8 85" stroke="#fff5008D"/><path d="M100-162.5l-41.2 120.7" stroke="#fff5008E"/><path d="M100-162.5l-81.9 96.2" stroke="#fff5008E"/><path d="M100-162.5l91.4-79.9" stroke="#005bbb8E"/><path d="M100-162.5l42.5 103.7" stroke="#c2e1ff90"/><path d="M100-162.5l-69.4-85.5" stroke="#005bbb90"/><path d="M100-162.5l30.5 105.1" stroke="#fff90"/><path d="M100-162.5l-93.1 53.2" stroke="#c2e1ff90"/><path d="M100-162.5l85 21.8" stroke="#c2e1ff92"/><path d="M100-162.5l75 38.4" stroke="#fff92"/><path d="M100-162.5l-17.4 80.9" stroke="#fff50092"/><path d="M100-162.5l60.6-55.5" stroke="#005bbb92"/><path d="M100-162.5l52.2-55.2" stroke="#fff93"/><path d="M100-162.5l63.1-37.8" stroke="#fff50093"/><path d="M100-162.5l43.2 51.4" stroke="#005bbb93"/><path d="M100-162.5l48.6-17.1" stroke="#fff94"/><path d="M100-162.5l-42.8-24.9" stroke="#fff94"/><path d="M100-162.5l-18.5-43.6" stroke="#fff94"/><path d="M100-162.5l12.5 1.5" stroke="#c2e1ff95"/></g><g class="sparcs"><path d="M105.9-219.5a6 6 0 1 1 0-12 6 6 0 0 1 0 12" fill="#fff7F"/><path d="M56.6-203.5a6 6 0 1 1 0-12.1 6 6 0 0 1 0 12.1" fill="#005bbb7F"/><path d="M155.7-203.6a6.1 6.1 0 1 1 0-12.1 6.1 6.1 0 0 1 0 12.1" fill="#fff80"/><path d="M89.3-81.7a6.1 6.1 0 1 1 0-12.2 6.1 6.1 0 0 1 0 12.2" fill="#fff80"/><path d="M168-123.5a6.1 6.1 0 1 1 0-12.1 6.1 6.1 0 0 1 0 12.1" fill="#fff50080"/><path d="M120.3-229.6a6.1 6.1 0 1 1 0-12.1 6.1 6.1 0 0 1 0 12.1" fill="#005bbb80"/><path d="M20.9-134.4a6.1 6.1 0 1 1 0-12.2 6.1 6.1 0 0 1 0 12.2" fill="#fff50081"/><path d="M60.6-78.8a6.1 6.1 0 1 1 0-12.2 6.1 6.1 0 0 1 0 12.2" fill="#005bbb81"/><path d="M57.7-76.7a6.1 6.1 0 1 1 0-12.3 6.1 6.1 0 0 1 0 12.3" fill="#005bbb81"/><path d="M44.3-233.7a6.2 6.2 0 1 1 0-12.3 6.2 6.2 0 0 1 0 12.3" fill="#005bbb82"/><path d="M117.2-55.4a6.2 6.2 0 1 1 0-12.4 6.2 6.2 0 0 1 0 12.4" fill="#fff50083"/><path d="M167.2-74.2a6.2 6.2 0 1 1 0-12.4 6.2 6.2 0 0 1 0 12.4" fill="#fff83"/><path d="M15.5-220.6a6.2 6.2 0 1 1 0-12.5 6.2 6.2 0 0 1 0 12.5" fill="#005bbb83"/><path d="M97.7-262.5a6.2 6.2 0 1 1 0-12.4 6.2 6.2 0 0 1 0 12.4" fill="#c2e1ff83"/><path d="M170.2-74.4a6.2 6.2 0 1 1 0-12.5 6.2 6.2 0 0 1 0 12.5" fill="#fff84"/><path d="M-18.8-150.6a6.3 6.3 0 1 1 0-12.6 6.3 6.3 0 0 1 0 12.6" fill="#c2e1ff85"/><path d="M189-240.3a6.3 6.3 0 1 1 0-12.7 6.3 6.3 0 0 1 0 12.7" fill="#fff50086"/><path d="M201.6-86.1a6.3 6.3 0 1 1 0-12.7 6.3 6.3 0 0 1 0 12.7" fill="#fff86"/><path d="M72.9-288.4a6.4 6.4 0 1 1 0-12.9 6.4 6.4 0 0 1 0 12.9" fill="#fff50088"/><path d="M162.8-280a6.5 6.5 0 1 1 0-13 6.5 6.5 0 0 1 0 13" fill="#fff50089"/><path d="M14.2-270.6a6.5 6.5 0 1 1 0-13.1 6.5 6.5 0 0 1 0 13.1" fill="#fff8A"/><path d="M-41.8-127.1a6.5 6.5 0 1 1 0-13.1 6.5 6.5 0 0 1 0 13.1" fill="#fff8A"/><path d="M6.8-275a6.6 6.6 0 1 1 0-13.2 6.6 6.6 0 0 1 0 13.2" fill="#005bbb8C"/><path d="M238.3-87.6a6.6 6.6 0 1 1 0-13.3 6.6 6.6 0 0 1 0 13.3" fill="#fff8C"/><path d="M229.4-241.8a6.6 6.6 0 1 1 0-13.3 6.6 6.6 0 0 1 0 13.3" fill="#fff5008D"/><path d="M134.2-4.2a6.6 6.6 0 1 1 0-13.2 6.6 6.6 0 0 1 0 13.2" fill="#c2e1ff8D"/><path d="M160-302a6.7 6.7 0 1 1 0-13.4 6.7 6.7 0 0 1 0 13.4" fill="#c2e1ff8D"/><path d="M194.5-283.4a6.7 6.7 0 1 1 0-13.4 6.7 6.7 0 0 1 0 13.4" fill="#c2e1ff8D"/><path d="M207.1-34a6.7 6.7 0 1 1 0-13.4 6.7 6.7 0 0 1 0 13.4" fill="#fff8E"/><path d="M39.3-2.8a6.7 6.7 0 1 1 0-13.5 6.7 6.7 0 0 1 0 13.5" fill="#fff8F"/><path d="M230.6-51.3a6.8 6.8 0 1 1 0-13.5 6.8 6.8 0 0 1 0 13.5" fill="#fff50090"/><path d="M234.3-54.2a6.8 6.8 0 1 1 0-13.6 6.8 6.8 0 0 1 0 13.6" fill="#c2e1ff90"/><path d="M155.6-317a6.8 6.8 0 1 1 0-13.6 6.8 6.8 0 0 1 0 13.6" fill="#c2e1ff91"/><path d="M239.6-54.3a6.8 6.8 0 1 1 0-13.7 6.8 6.8 0 0 1 0 13.7" fill="#fff50091"/><path d="M101.5-334a6.9 6.9 0 1 1 0-13.8 6.9 6.9 0 0 1 0 13.8" fill="#c2e1ff93"/><path d="M261-238.5a7 7 0 1 1 0-13.9 7 7 0 0 1 0 13.9" fill="#005bbb94"/><path d="M287.1-186.8a7.1 7.1 0 1 1 0-14.2 7.1 7.1 0 0 1 0 14.2" fill="#fff50097"/><path d="M-36.3-287.7a7.1 7.1 0 1 1 0-14.2 7.1 7.1 0 0 1 0 14.2" fill="#fff50097"/><path d="M65.6-343.3a7.1 7.1 0 1 1 0-14.3 7.1 7.1 0 0 1 0 14.3" fill="#005bbb97"/><path d="M151.8-341.7a7.2 7.2 0 1 1 0-14.3 7.2 7.2 0 0 1 0 14.3" fill="#c2e1ff98"/><path d="M-65.6-257.3a7.2 7.2 0 1 1 0-14.4 7.2 7.2 0 0 1 0 14.4" fill="#fff99"/><path d="M224.5-306.2a7.2 7.2 0 1 1 0-14.4 7.2 7.2 0 0 1 0 14.4" fill="#fff50099"/><path d="M148.6 36a7.2 7.2 0 1 1 0-14.4 7.2 7.2 0 0 1 0 14.4" fill="#fff5009A"/><path d="M74.4-351.8a7.3 7.3 0 1 1 0-14.5 7.3 7.3 0 0 1 0 14.5" fill="#fff9A"/><path d="M261.6-40.1a7.3 7.3 0 1 1 0-14.5 7.3 7.3 0 0 1 0 14.5" fill="#005bbb9A"/><path d="M-90-222.1a7.3 7.3 0 1 1 0-14.6 7.3 7.3 0 0 1 0 14.6" fill="#fff5009C"/><path d="M160.7 37.3a7.3 7.3 0 1 1 0-14.6 7.3 7.3 0 0 1 0 14.6" fill="#fff9C"/><path d="M299.9-188.7a7.3 7.3 0 1 1 0-14.6 7.3 7.3 0 0 1 0 14.6" fill="#c2e1ff9C"/><path d="M-46.2-12.4a7.4 7.4 0 1 1 0-14.8 7.4 7.4 0 0 1 0 14.8" fill="#fff5009D"/><path d="M114.7-359.5a7.4 7.4 0 1 1 0-14.7 7.4 7.4 0 0 1 0 14.7" fill="#c2e1ff9D"/><path d="M269.9-37.8a7.4 7.4 0 1 1 0-14.8 7.4 7.4 0 0 1 0 14.8" fill="#005bbb9E"/><path d="M85.8 51.6a7.4 7.4 0 1 1 0-14.9 7.4 7.4 0 0 1 0 14.9" fill="#005bbb9E"/><path d="M-104.9-117.6a7.5 7.5 0 1 1 0-15 7.5 7.5 0 0 1 0 15" fill="#c2e1ff9F"/><path d="M278.2-263.4a7.5 7.5 0 1 1 0-14.9 7.5 7.5 0 0 1 0 14.9" fill="#fff5009F"/><path d="M171 43.4a7.5 7.5 0 1 1 0-15 7.5 7.5 0 0 1 0 15" fill="#fff500A0"/><path d="M124 54.6a7.5 7.5 0 1 1 0-15.1 7.5 7.5 0 0 1 0 15.1" fill="#fff500A0"/><path d="M262.7-290.9a7.6 7.6 0 1 1 0-15.1 7.6 7.6 0 0 1 0 15.1" fill="#fff500A1"/><path d="M104 59.8a7.6 7.6 0 1 1 0-15.2 7.6 7.6 0 0 1 0 15.2" fill="#005bbbA2"/><path d="M-112.6-120.9a7.6 7.6 0 1 1 0-15.3 7.6 7.6 0 0 1 0 15.3" fill="#fffA3"/><path d="M77.4 64.8a7.8 7.8 0 1 1 0-15.6 7.8 7.8 0 0 1 0 15.6" fill="#fffA6"/><path d="M320.9-154.7a7.8 7.8 0 1 1 0-15.6 7.8 7.8 0 0 1 0 15.6" fill="#c2e1ffA6"/><path d="M-122.2-171.6a7.9 7.9 0 1 1 0-15.7 7.9 7.9 0 0 1 0 15.7" fill="#c2e1ffA8"/><path d="M-14.2 37.7a7.9 7.9 0 1 1 0-15.8 7.9 7.9 0 0 1 0 15.8" fill="#c2e1ffA9"/><path d="M-61.5-309.6a7.9 7.9 0 1 1 0-15.8 7.9 7.9 0 0 1 0 15.8" fill="#005bbbA9"/><path d="M234.6 25.6a8 8 0 1 1 0-15.9 8 8 0 0 1 0 15.9" fill="#005bbbAA"/><path d="M172.5 58.8a8 8 0 1 1 0-16 8 8 0 0 1 0 16" fill="#005bbbAA"/><path d="M92.8-380.2a8 8 0 1 1 0-16 8 8 0 0 1 0 16" fill="#fffAA"/><path d="M27.7-370a8.1 8.1 0 1 1 0-16.1 8.1 8.1 0 0 1 0 16.1" fill="#fff500AC"/><path d="M328.2-146.2a8.1 8.1 0 1 1 0-16.2 8.1 8.1 0 0 1 0 16.2" fill="#fff500AD"/><path d="M-128.7-157.8a8.1 8.1 0 1 1 0-16.2 8.1 8.1 0 0 1 0 16.2" fill="#c2e1ffAD"/><path d="M-7-357.5a8.2 8.2 0 1 1 0-16.4 8.2 8.2 0 0 1 0 16.4" fill="#005bbbAE"/><path d="M-54.8 17a8.2 8.2 0 1 1 0-16.4 8.2 8.2 0 0 1 0 16.4" fill="#fffB0"/><path d="M253.8-326.7a8.2 8.2 0 1 1 0-16.5 8.2 8.2 0 0 1 0 16.5" fill="#fff500B0"/><path d="M186.3 61.7a8.3 8.3 0 1 1 0-16.6 8.3 8.3 0 0 1 0 16.6" fill="#c2e1ffB2"/><path d="M-1.4 56.5a8.4 8.4 0 1 1 0-16.8 8.4 8.4 0 0 1 0 16.8" fill="#fff500B4"/><path d="M331.7-187a8.5 8.5 0 1 1 0-16.9 8.5 8.5 0 0 1 0 16.9" fill="#fff500B5"/><path d="M326.1-216.4a8.5 8.5 0 1 1 0-17 8.5 8.5 0 0 1 0 17" fill="#fffB6"/><path d="M-125.5-218.6a8.5 8.5 0 1 1 0-17 8.5 8.5 0 0 1 0 17" fill="#fffB6"/><path d="M276.2-309a8.5 8.5 0 1 1 0-17 8.5 8.5 0 0 1 0 17" fill="#c2e1ffB6"/><path d="M82.6 80.1a8.5 8.5 0 1 1 0-17.1 8.5 8.5 0 0 1 0 17.1" fill="#005bbbB6"/><path d="M98.1-388.9a8.5 8.5 0 1 1 0-17.1 8.5 8.5 0 0 1 0 17.1" fill="#c2e1ffB7"/><path d="M-40.9 34.1a8.6 8.6 0 1 1 0-17.1 8.6 8.6 0 0 1 0 17.1" fill="#fffB7"/><path d="M40.6 73.5a8.6 8.6 0 1 1 0-17.1 8.6 8.6 0 0 1 0 17.1" fill="#fff500B7"/><path d="M233.3-347.6a8.6 8.6 0 1 1 0-17.2 8.6 8.6 0 0 1 0 17.2" fill="#fffB7"/><path d="M61.9 78.4a8.6 8.6 0 1 1 0-17.2 8.6 8.6 0 0 1 0 17.2" fill="#005bbbB8"/><path d="M316.5-246.7a8.6 8.6 0 1 1 0-17.2 8.6 8.6 0 0 1 0 17.2" fill="#fff500B8"/><path d="M71.1-388a8.7 8.7 0 1 1 0-17.5 8.7 8.7 0 0 1 0 17.5" fill="#fffBB"/><path d="M87.1-389.5a8.7 8.7 0 1 1 0-17.4 8.7 8.7 0 0 1 0 17.4" fill="#005bbbBB"/><path d="M184.4-374.3a8.8 8.8 0 1 1 0-17.5 8.8 8.8 0 0 1 0 17.5" fill="#005bbbBB"/><path d="M312.9-51.6a8.8 8.8 0 1 1 0-17.5 8.8 8.8 0 0 1 0 17.5" fill="#fffBC"/><path d="M146.7-385.2a8.8 8.8 0 1 1 0-17.6 8.8 8.8 0 0 1 0 17.6" fill="#fff500BC"/><path d="M-136-144.5a8.8 8.8 0 1 1 0-17.6 8.8 8.8 0 0 1 0 17.6" fill="#005bbbBC"/><path d="M333.5-118.3a8.8 8.8 0 1 1 0-17.6 8.8 8.8 0 0 1 0 17.6" fill="#c2e1ffBC"/><path d="M169.1 72.3a8.8 8.8 0 1 1 0-17.7 8.8 8.8 0 0 1 0 17.7" fill="#c2e1ffBD"/><path d="M-28-352.2a8.8 8.8 0 1 1 0-17.7 8.8 8.8 0 0 1 0 17.7" fill="#fffBD"/><path d="M182.4 67.8a8.8 8.8 0 1 1 0-17.7 8.8 8.8 0 0 1 0 17.7" fill="#fffBD"/><path d="M-53.5 25.9a8.8 8.8 0 1 1 0-17.7 8.8 8.8 0 0 1 0 17.7" fill="#c2e1ffBD"/><path d="M335.9-141.9a8.9 8.9 0 1 1 0-17.8 8.9 8.9 0 0 1 0 17.8" fill="#fff500BE"/><path d="M100.7-389.6a9 9 0 1 1 0-17.9 9 9 0 0 1 0 17.9" fill="#c2e1ffC0"/><path d="M-87.6-296.6a9 9 0 1 1 0-18 9 9 0 0 1 0 18" fill="#005bbbC1"/><path d="M335.9-154.5a9 9 0 1 1 0-18.1 9 9 0 0 1 0 18.1" fill="#fff500C1"/><path d="M-47.6-336.7a9.1 9.1 0 1 1 0-18.2 9.1 9.1 0 0 1 0 18.2" fill="#fff500C3"/><path d="M139.8-385.3a9.1 9.1 0 1 1 0-18.2 9.1 9.1 0 0 1 0 18.2" fill="#c2e1ffC3"/><path d="M330.1-105a9.1 9.1 0 1 1 0-18.3 9.1 9.1 0 0 1 0 18.3" fill="#fffC4"/><path d="M79.6-387a9.2 9.2 0 1 1 0-18.4 9.2 9.2 0 0 1 0 18.4" fill="#fffC5"/><path d="M-133-128.1a9.2 9.2 0 1 1 0-18.4 9.2 9.2 0 0 1 0 18.4" fill="#fff500C6"/><path d="M334.2-143.9a9.2 9.2 0 1 1 0-18.4 9.2 9.2 0 0 1 0 18.4" fill="#c2e1ffC6"/><path d="M211.2 53a9.2 9.2 0 1 1 0-18.5 9.2 9.2 0 0 1 0 18.5" fill="#005bbbC6"/><path d="M333.7-140.9a9.3 9.3 0 1 1 0-18.5 9.3 9.3 0 0 1 0 18.5" fill="#c2e1ffC6"/><path d="M-32.5-345.8a9.3 9.3 0 1 1 0-18.6 9.3 9.3 0 0 1 0 18.6" fill="#fffC7"/><path d="M333.2-139.1a9.3 9.3 0 1 1 0-18.6 9.3 9.3 0 0 1 0 18.6" fill="#005bbbC7"/><path d="M226.7-349.4a9.3 9.3 0 1 1 0-18.6 9.3 9.3 0 0 1 0 18.6" fill="#005bbbC7"/><path d="M-130.2-191a9.3 9.3 0 1 1 0-18.6 9.3 9.3 0 0 1 0 18.6" fill="#005bbbC8"/><path d="M-69.4 7a9.3 9.3 0 1 1 0-18.7 9.3 9.3 0 0 1 0 18.7" fill="#fff500C8"/><path d="M107.9-385.1a9.4 9.4 0 1 1 0-18.8 9.4 9.4 0 0 1 0 18.8" fill="#fffCA"/><path d="M328.3-181.6a9.5 9.5 0 1 1 0-19.1 9.5 9.5 0 0 1 0 19.1" fill="#c2e1ffCC"/><path d="M-124.6-105a9.6 9.6 0 1 1 0-19.1 9.6 9.6 0 0 1 0 19.1" fill="#fffCD"/><path d="M303-45.7a9.6 9.6 0 1 1 0-19.1 9.6 9.6 0 0 1 0 19.1" fill="#fff500CD"/><path d="M-127.5-179.1a9.6 9.6 0 1 1 0-19.2 9.6 9.6 0 0 1 0 19.2" fill="#fff500CD"/><path d="M326.7-184.3a9.6 9.6 0 1 1 0-19.2 9.6 9.6 0 0 1 0 19.2" fill="#fffCE"/><path d="M86.5 74.2a9.7 9.7 0 1 1 0-19.4 9.7 9.7 0 0 1 0 19.4" fill="#c2e1ffCF"/><path d="M-124.8-167.7a9.8 9.8 0 1 1 0-19.5 9.8 9.8 0 0 1 0 19.5" fill="#fffD1"/><path d="M-67.4-2.6a9.8 9.8 0 1 1 0-19.5 9.8 9.8 0 0 1 0 19.5" fill="#fffD1"/><path d="M-77.2-16.9a9.8 9.8 0 1 1 0-19.6 9.8 9.8 0 0 1 0 19.6" fill="#005bbbD3"/><path d="M84.9 69.1a9.9 9.9 0 1 1 0-19.7 9.9 9.9 0 0 1 0 19.7" fill="#fffD4"/><path d="M110.6-374a9.9 9.9 0 1 1 0-19.8 9.9 9.9 0 0 1 0 19.8" fill="#fffD4"/><path d="M-117.2-139.2a10 10 0 1 1 0-20.1 10 10 0 0 1 0 20.1" fill="#fffD7"/><path d="M230.9-326.1a10 10 0 1 1 0-20 10 10 0 0 1 0 20" fill="#005bbbD7"/><path d="M-107.1-218.1a10 10 0 1 1 0-20 10 10 0 0 1 0 20" fill="#005bbbD7"/><path d="M61.7-365.6a10 10 0 1 1 0-20.1 10 10 0 0 1 0 20.1" fill="#fff500D7"/><path d="M202.7 38a10 10 0 1 1 0-20.1 10 10 0 0 1 0 20.1" fill="#005bbbD8"/><path d="M-2.9-342.8a10 10 0 1 1 0-20.1 10 10 0 0 1 0 20.1" fill="#005bbbD8"/><path d="M86.8 62.6a10.1 10.1 0 1 1 0-20.1 10.1 10.1 0 0 1 0 20.1" fill="#fff500D8"/><path d="M206.8 33.2a10.1 10.1 0 1 1 0-20.2 10.1 10.1 0 0 1 0 20.2" fill="#fff500D9"/><path d="M273.1-27.8a10.1 10.1 0 1 1 0-20.2 10.1 10.1 0 0 1 0 20.2" fill="#fff500D9"/><path d="M297.4-224.6a10.2 10.2 0 1 1 0-20.4 10.2 10.2 0 0 1 0 20.4" fill="#c2e1ffDB"/><path d="M302.5-142.2a10.4 10.4 0 1 1 0-20.7 10.4 10.4 0 0 1 0 20.7" fill="#c2e1ffDF"/><path d="M-66.6-37.1a10.4 10.4 0 1 1 0-20.8 10.4 10.4 0 0 1 0 20.8" fill="#fff500DF"/><path d="M-92.2-213.5a10.4 10.4 0 1 1 0-20.8 10.4 10.4 0 0 1 0 20.8" fill="#fff500DF"/><path d="M144.7-347.8a10.4 10.4 0 1 1 0-20.8 10.4 10.4 0 0 1 0 20.8" fill="#005bbbE0"/><path d="M21.4 31.7a10.4 10.4 0 1 1 0-20.9 10.4 10.4 0 0 1 0 20.9" fill="#fff500E0"/><path d="M7 24a10.4 10.4 0 1 1 0-20.9 10.4 10.4 0 0 1 0 20.9" fill="#fff500E0"/><path d="M294.9-150.5a10.5 10.5 0 1 1 0-21 10.5 10.5 0 0 1 0 21" fill="#005bbbE2"/><path d="M176.9 21.5a10.6 10.6 0 1 1 0-21.2 10.6 10.6 0 0 1 0 21.2" fill="#fff500E4"/><path d="M1.1-311.8a10.6 10.6 0 1 1 0-21.3 10.6 10.6 0 0 1 0 21.3" fill="#005bbbE5"/><path d="M-48.7-263.6a10.7 10.7 0 1 1 0-21.3 10.7 10.7 0 0 1 0 21.3" fill="#fffE6"/><path d="M283.5-177.5a10.7 10.7 0 1 1 0-21.4 10.7 10.7 0 0 1 0 21.4" fill="#fff500E6"/><path d="M19.3 12.1a10.7 10.7 0 1 1 0-21.5 10.7 10.7 0 0 1 0 21.5" fill="#fffE7"/><path d="M265.4-78.6a10.8 10.8 0 1 1 0-21.5 10.8 10.8 0 0 1 0 21.5" fill="#c2e1ffE7"/><path d="M262.3-137.4a11 11 0 1 1 0-22 11 11 0 0 1 0 22" fill="#005bbbED"/><path d="M191.8-17.7a11 11 0 1 1 0-22 11 11 0 0 1 0 22" fill="#fff500ED"/><path d="M136.5-309.3a11 11 0 1 1 0-22 11 11 0 0 1 0 22" fill="#c2e1ffED"/><path d="M153.7-3.2a11.1 11.1 0 1 1 0-22.1 11.1 11.1 0 0 1 0 22.1" fill="#005bbbEE"/><path d="M195.2-29.3a11.1 11.1 0 1 1 0-22.2 11.1 11.1 0 0 1 0 22.2" fill="#fff500EF"/><path d="M6.7-31a11.1 11.1 0 1 1 0-22.3 11.1 11.1 0 0 1 0 22.3" fill="#005bbbEF"/><path d="M149.5-293.7a11.1 11.1 0 1 1 0-22.3 11.1 11.1 0 0 1 0 22.3" fill="#fff500F0"/><path d="M97.3-294.6a11.2 11.2 0 1 1 0-22.4 11.2 11.2 0 0 1 0 22.4" fill="#fff500F1"/><path d="M183.1-267.7a11.2 11.2 0 1 1 0-22.4 11.2 11.2 0 0 1 0 22.4" fill="#fffF1"/><path d="M-36.3-190.1a11.2 11.2 0 1 1 0-22.5 11.2 11.2 0 0 1 0 22.5" fill="#fffF2"/><path d="M156.1-21.2a11.2 11.2 0 1 1 0-22.5 11.2 11.2 0 0 1 0 22.5" fill="#005bbbF2"/><path d="M170.8-272.3a11.2 11.2 0 1 1 0-22.5 11.2 11.2 0 0 1 0 22.5" fill="#c2e1ffF2"/><path d="M198.8-242.5a11.3 11.3 0 1 1 0-22.6 11.3 11.3 0 0 1 0 22.6" fill="#005bbbF3"/><path d="M196.8-66.2a11.3 11.3 0 1 1 0-22.7 11.3 11.3 0 0 1 0 22.7" fill="#005bbbF4"/><path d="M58.8-30.5a11.3 11.3 0 1 1 0-22.6 11.3 11.3 0 0 1 0 22.6" fill="#c2e1ffF4"/><path d="M18.1-54.9a11.4 11.4 0 1 1 0-22.7 11.4 11.4 0 0 1 0 22.7" fill="#c2e1ffF4"/><path d="M191.4-231a11.4 11.4 0 1 1 0-22.8 11.4 11.4 0 0 1 0 22.8" fill="#fff500F5"/><path d="M142.5-47.4a11.5 11.5 0 1 1 0-22.9 11.5 11.5 0 0 1 0 22.9" fill="#c2e1ffF7"/><path d="M30.6-236.5a11.5 11.5 0 1 1 0-23 11.5 11.5 0 0 1 0 23" fill="#c2e1ffF7"/><path d="M130.5-45.9a11.5 11.5 0 1 1 0-23 11.5 11.5 0 0 1 0 23" fill="#c2e1ffF7"/><path d="M6.9-97.8a11.5 11.5 0 1 1 0-23 11.5 11.5 0 0 1 0 23" fill="#fff500F7"/><path d="M185-129.1a11.6 11.6 0 1 1 0-23.2 11.6 11.6 0 0 1 0 23.2" fill="#005bbbFA"/><path d="M175-112.5a11.6 11.6 0 1 1 0-23.2 11.6 11.6 0 0 1 0 23.2" fill="#c2e1ffFA"/><path d="M82.6-69.9a11.6 11.6 0 1 1 0-23.3 11.6 11.6 0 0 1 0 23.3" fill="#005bbbFA"/><path d="M160.6-206.4a11.6 11.6 0 1 1 0-23.2 11.6 11.6 0 0 1 0 23.2" fill="#fffFA"/><path d="M152.2-206.1a11.7 11.7 0 1 1 0-23.3 11.7 11.7 0 0 1 0 23.3" fill="#fff500FB"/><path d="M163.1-188.7a11.7 11.7 0 1 1 0-23.3 11.7 11.7 0 0 1 0 23.3" fill="#c2e1ffFB"/><path d="M143.2-99.4a11.7 11.7 0 1 1 0-23.4 11.7 11.7 0 0 1 0 23.4" fill="#fff500FC"/><path d="M148.6-167.8a11.7 11.7 0 1 1 0-23.5 11.7 11.7 0 0 1 0 23.5" fill="#005bbbFD"/><path d="M57.2-175.7a11.7 11.7 0 1 1 0-23.5 11.7 11.7 0 0 1 0 23.5" fill="#fff500FD"/><path d="M81.5-194.4a11.8 11.8 0 1 1 0-23.5 11.8 11.8 0 0 1 0 23.5" fill="#fff500FD"/><path d="M112.5-149.2a11.8 11.8 0 1 1 0-23.6 11.8 11.8 0 0 1 0 23.6" fill="#fff500FE"/></g></svg>