<svg width="1200" height="675" viewBox="-500 -500 1200 675" xmlns="http://www.w3.org/2000/svg"><path d="M-500-500h1200v675h-1200z" fill="#000"/><style>.sparkles path{stroke-linecap:round; stroke-width:1}</style><g class="sparkles"><path d="M100-162.5l29.5 13.1" stroke="#c2e1ff32"/><path d="M100-162.5l-24-51.5" stroke="#c2e1ff33"/><path d="M100-162.5l31.9 51.3" stroke="#005bbb33"/><path d="M100-162.5l27.7 56.1" stroke="#fff33"/><path d="M100-162.5l47.3 50.1" stroke="#fff50034"/><path d="M100-162.5l-73.9 6.8" stroke="#c2e1ff34"/><path d="M100-162.5l-91.6 40.6" stroke="#fff50036"/><path d="M100-162.5l-49.3 89.2" stroke="#005bbb36"/><path d="M100-162.5l-19.8-104.4" stroke="#fff37"/><path d="M100-162.5l28.3 106.1" stroke="#fff37"/><path d="M100-162.5l-26.9 107.4" stroke="#fff37"/><path d="M100-162.5l110.5-8.8" stroke="#fff37"/><path d="M100-162.5l-51.8 99.9" stroke="#c2e1ff38"/><path d="M100-162.5l106.7 39.6" stroke="#fff50038"/><path d="M100-162.5l-60.7-105.3" stroke="#c2e1ff39"/><path d="M100-162.5l37.1 117.4" stroke="#fff50039"/><path d="M100-162.5l138.9-13.5" stroke="#c2e1ff3B"/><path d="M100-162.5l-113.4 81.7" stroke="#c2e1ff3B"/><path d="M100-162.5l-131.5-48.7" stroke="#005bbb3B"/><path d="M100-162.5l-62.7 126.7" stroke="#fff5003B"/><path d="M100-162.5l-23.8 141.3" stroke="#005bbb3C"/><path d="M100-162.5l-80.1-119" stroke="#fff3C"/><path d="M100-162.5l149.8-0.6" stroke="#fff5003D"/><path d="M100-162.5l122.9 88.8" stroke="#c2e1ff3D"/><path d="M100-162.5l45.3-145.8" stroke="#c2e1ff3D"/><path d="M100-162.5l130.8 86.3" stroke="#005bbb3E"/><path d="M100-162.5l-134.2 84.4" stroke="#c2e1ff3E"/><path d="M100-162.5l40.4 155.2" stroke="#005bbb3F"/><path d="M100-162.5l-124.7 102.9" stroke="#c2e1ff3F"/><path d="M100-162.5l116.4-113.1" stroke="#fff5003F"/><path d="M100-162.5l160.1 36" stroke="#005bbb40"/><path d="M100-162.5l-19 166.9" stroke="#005bbb40"/><path d="M100-162.5l24 171" stroke="#005bbb41"/><path d="M100-162.5l-141.9 109.5" stroke="#005bbb43"/><path d="M100-162.5l63.3-168.2" stroke="#fff43"/><path d="M100-162.5l-128.9 132.1" stroke="#005bbb44"/><path d="M100-162.5l-155.8-100" stroke="#fff44"/><path d="M100-162.5l-107.1-154.5" stroke="#fff45"/><path d="M100-162.5l188.1 13.6" stroke="#fff45"/><path d="M100-162.5l183 57.5" stroke="#005bbb46"/><path d="M100-162.5l-31.1-189.8" stroke="#fff50046"/><path d="M100-162.5l-128.8 145.4" stroke="#fff47"/><path d="M100-162.5l-190.2-55.2" stroke="#005bbb48"/><path d="M100-162.5l-118.9-158.4" stroke="#005bbb48"/><path d="M100-162.5l192.3 51.9" stroke="#c2e1ff49"/><path d="M100-162.5l-178.3-89.4" stroke="#005bbb49"/><path d="M100-162.5l159.9 119.7" stroke="#fff50049"/><path d="M100-162.5l-195-46.9" stroke="#005bbb49"/><path d="M100-162.5l118.2 167" stroke="#fff5004A"/><path d="M100-162.5l-102.1-181.5" stroke="#fff4C"/><path d="M100-162.5l-140.4-154" stroke="#fff4C"/><path d="M100-162.5l207.9-34.5" stroke="#fff5004D"/><path d="M100-162.5l-85.8-192.7" stroke="#005bbb4D"/><path d="M100-162.5l-43.6-206.5" stroke="#fff5004D"/><path d="M100-162.5l8.1 211.4" stroke="#c2e1ff4D"/><path d="M100-162.5l-211.3-25.3" stroke="#fff5004E"/><path d="M100-162.5l-180-118.1" stroke="#fff5004F"/><path d="M100-162.5l-11.5 218" stroke="#fff50"/><path d="M100-162.5l25.4 216.8" stroke="#c2e1ff50"/><path d="M100-162.5l-124.3 179.6" stroke="#c2e1ff50"/><path d="M100-162.5l-218-19.1" stroke="#005bbb51"/><path d="M100-162.5l189.3 111.6" stroke="#c2e1ff51"/><path d="M100-162.5l-133.6-174.7" stroke="#fff50051"/><path d="M100-162.5l180.9-126.2" stroke="#fff50052"/><path d="M100-162.5l159.9-152.6" stroke="#fff50052"/><path d="M100-162.5l-154.8-158.6" stroke="#005bbb52"/><path d="M100-162.5l-147.8 165.6" stroke="#005bbb52"/><path d="M100-162.5l144.6 170.1" stroke="#005bbb53"/><path d="M100-162.5l221.3-29.8" stroke="#005bbb53"/><path d="M100-162.5l176.2 138.6" stroke="#c2e1ff54"/><path d="M100-162.5l-209.1-82.5" stroke="#fff50054"/><path d="M100-162.5l-190.7 120.2" stroke="#fff50055"/><path d="M100-162.5l201.3-104.4" stroke="#005bbb55"/><path d="M100-162.5l194.6-117.1" stroke="#005bbb56"/><path d="M100-162.5l-220.5 62.7" stroke="#fff50057"/><path d="M100-162.5l-153.8 171" stroke="#c2e1ff58"/><path d="M100-162.5l213.1-87.1" stroke="#005bbb58"/><path d="M100-162.5l229.1 27.4" stroke="#fff59"/><path d="M100-162.5l176.9 151.3" stroke="#c2e1ff5B"/><path d="M100-162.5l-62.5-224.3" stroke="#fff5B"/><path d="M100-162.5l-224.7 61.6" stroke="#fff5B"/><path d="M100-162.5l-111 204.8" stroke="#fff5005B"/><path d="M100-162.5l-155.3 174.8" stroke="#005bbb5C"/><path d="M100-162.5l-29.7-232" stroke="#005bbb5C"/><path d="M100-162.5l-153.6 176.6" stroke="#fff5D"/><path d="M100-162.5l216.3-89.5" stroke="#fff5D"/><path d="M100-162.5l-176.1 154.6" stroke="#fff5005D"/><path d="M100-162.5l64.1 225.6" stroke="#fff5005E"/><path d="M100-162.5l211.3 102.5" stroke="#005bbb5E"/><path d="M100-162.5l120.2 202.2" stroke="#005bbb5F"/><path d="M100-162.5l-235.5-8.9" stroke="#fff50060"/><path d="M100-162.5l99.5-213.8" stroke="#fff50060"/><path d="M100-162.5l57.6-228.7" stroke="#005bbb61"/><path d="M100-162.5l-131.5 195.9" stroke="#c2e1ff61"/><path d="M100-162.5l215.2 97.2" stroke="#c2e1ff62"/><path d="M100-162.5l148.7 183.6" stroke="#005bbb63"/><path d="M100-162.5l-137.6 192" stroke="#fff50064"/><path d="M100-162.5l-201.2 123.7" stroke="#005bbb64"/><path d="M100-162.5l-218.9-88.3" stroke="#c2e1ff66"/><path d="M100-162.5l224.2-73.6" stroke="#005bbb66"/><path d="M100-162.5l-65.7-226.6" stroke="#005bbb66"/><path d="M100-162.5l-114.1 206" stroke="#fff50068"/><path d="M100-162.5l114.3-205.7" stroke="#c2e1ff68"/><path d="M100-162.5l227 61.8" stroke="#005bbb68"/><path d="M100-162.5l-53.8-229" stroke="#c2e1ff68"/><path d="M100-162.5l-95.1 215.1" stroke="#c2e1ff68"/><path d="M100-162.5l-64 226" stroke="#c2e1ff69"/><path d="M100-162.5l164.6-166" stroke="#005bbb6B"/><path d="M100-162.5l138.9-187.8" stroke="#c2e1ff6B"/><path d="M100-162.5l231.8 16.7" stroke="#fff5006D"/><path d="M100-162.5l-104.7 207" stroke="#c2e1ff6D"/><path d="M100-162.5l231.7 10.5" stroke="#fff6D"/><path d="M100-162.5l67.8-221.6" stroke="#c2e1ff6D"/><path d="M100-162.5l147.3-178.2" stroke="#fff5006E"/><path d="M100-162.5l216.8-79.5" stroke="#fff5006E"/><path d="M100-162.5l-193.3 119.4" stroke="#c2e1ff71"/><path d="M100-162.5l-169.5 147.7" stroke="#005bbb73"/><path d="M100-162.5l204.8 92.3" stroke="#c2e1ff73"/><path d="M100-162.5l50 215.8" stroke="#fff75"/><path d="M100-162.5l111.7 191" stroke="#fff50075"/><path d="M100-162.5l-219.3 17.5" stroke="#fff50076"/><path d="M100-162.5l-1.2-220" stroke="#c2e1ff76"/><path d="M100-162.5l-179.2-126.2" stroke="#fff76"/><path d="M100-162.5l172.6 134.7" stroke="#fff76"/><path d="M100-162.5l212.6 40.5" stroke="#c2e1ff78"/><path d="M100-162.5l41.8 209.7" stroke="#fff50079"/><path d="M100-162.5l115.3 178" stroke="#fff7A"/><path d="M100-162.5l181.5-107.8" stroke="#005bbb7A"/><path d="M100-162.5l44.6 206.3" stroke="#005bbb7A"/><path d="M100-162.5l85.9-192.4" stroke="#c2e1ff7A"/><path d="M100-162.5l-197.3 73.3" stroke="#fff5007A"/><path d="M100-162.5l-171.6-121.3" stroke="#c2e1ff7A"/><path d="M100-162.5l-192.6 77" stroke="#fff5007B"/><path d="M100-162.5l71.2 193.9" stroke="#fff7C"/><path d="M100-162.5l-202.6-31.2" stroke="#fff5007C"/><path d="M100-162.5l-179.1 98.5" stroke="#fff5007D"/><path d="M100-162.5l-183.3-87.1" stroke="#fff7D"/><path d="M100-162.5l-149.3 136.1" stroke="#c2e1ff7D"/><path d="M100-162.5l169.8 109.1" stroke="#fff5007E"/><path d="M100-162.5l-88.2 177" stroke="#c2e1ff7F"/><path d="M100-162.5l72.7 182.7" stroke="#fff5007F"/><path d="M100-162.5l8.8 196.2" stroke="#c2e1ff7F"/><path d="M100-162.5l11.3-195" stroke="#005bbb80"/><path d="M100-162.5l-189.9-38.5" stroke="#fff80"/><path d="M100-162.5l-191.2 1.3" stroke="#c2e1ff81"/><path d="M100-162.5l163.1 98.1" stroke="#fff50081"/><path d="M100-162.5l-80.4 171.2" stroke="#c2e1ff81"/><path d="M100-162.5l62.1 177.8" stroke="#c2e1ff82"/><path d="M100-162.5l147.7-115.2" stroke="#c2e1ff82"/><path d="M100-162.5l179.8 0" stroke="#005bbb84"/><path d="M100-162.5l177.4 5.7" stroke="#c2e1ff84"/><path d="M100-162.5l3.7 172.4" stroke="#005bbb86"/><path d="M100-162.5l-162.5 50.6" stroke="#fff50086"/><path d="M100-162.5l-81.6 148.9" stroke="#fff86"/><path d="M100-162.5l-166.6 22.3" stroke="#fff50087"/><path d="M100-162.5l163.8 2.7" stroke="#005bbb88"/><path d="M100-162.5l-147.9 67.1" stroke="#c2e1ff88"/><path d="M100-162.5l-158.8 12.1" stroke="#005bbb88"/><path d="M100-162.5l57.8 146" stroke="#fff89"/><path d="M100-162.5l-69.9 132.5" stroke="#005bbb8A"/><path d="M100-162.5l84.4-123.7" stroke="#005bbb8A"/><path d="M100-162.5l111.1-97" stroke="#fff8B"/><path d="M100-162.5l30.1-141.1" stroke="#005bbb8B"/><path d="M100-162.5l135 44.7" stroke="#005bbb8B"/><path d="M100-162.5l23.1-136.2" stroke="#fff8C"/><path d="M100-162.5l-3.6 137.1" stroke="#005bbb8C"/><path d="M100-162.5l131.2-30.3" stroke="#fff8D"/><path d="M100-162.5l15.7 124.1" stroke="#c2e1ff8E"/><path d="M100-162.5l50.6 110.7" stroke="#c2e1ff8E"/><path d="M100-162.5l11.1-109.2" stroke="#fff90"/><path d="M100-162.5l27.4-97.8" stroke="#fff91"/><path d="M100-162.5l40.6-91.4" stroke="#005bbb91"/><path d="M100-162.5l-47.3-88" stroke="#fff50091"/><path d="M100-162.5l-68.7 66.1" stroke="#fff50091"/><path d="M100-162.5l49.6-58.9" stroke="#fff93"/><path d="M100-162.5l62.9-0.8" stroke="#c2e1ff94"/><path d="M100-162.5l-21.2-58.7" stroke="#fff50094"/><path d="M100-162.5l-53-21.2" stroke="#fff50094"/><path d="M100-162.5l-28.6-19.2" stroke="#fff95"/><path d="M100-162.5l27.7-15.4" stroke="#fff95"/><path d="M100-162.5l-22.4 10.7" stroke="#fff95"/></g><g class="sparcs"><path d="M129.5-143.4a5.9 5.9 0 1 1 0-11.9 5.9 5.9 0 0 1 0 11.9" fill="#005bbb7D"/><path d="M76-208a6 6 0 1 1 0-12 6 6 0 0 1 0 12" fill="#fff5007E"/><path d="M131.9-105.2a6 6 0 1 1 0-12 6 6 0 0 1 0 12" fill="#005bbb7F"/><path d="M127.7-100.3a6 6 0 1 1 0-12.1 6 6 0 0 1 0 12.1" fill="#fff7F"/><path d="M147.3-106.3a6 6 0 1 1 0-12.1 6 6 0 0 1 0 12.1" fill="#fff5007F"/><path d="M26.1-149.6a6.1 6.1 0 1 1 0-12.1 6.1 6.1 0 0 1 0 12.1" fill="#fff80"/><path d="M8.4-115.7a6.2 6.2 0 1 1 0-12.4 6.2 6.2 0 0 1 0 12.4" fill="#fff50083"/><path d="M50.7-67.1a6.2 6.2 0 1 1 0-12.4 6.2 6.2 0 0 1 0 12.4" fill="#fff50083"/><path d="M80.2-260.7a6.2 6.2 0 1 1 0-12.5 6.2 6.2 0 0 1 0 12.5" fill="#c2e1ff83"/><path d="M128.3-50.2a6.2 6.2 0 1 1 0-12.4 6.2 6.2 0 0 1 0 12.4" fill="#c2e1ff84"/><path d="M73.1-48.8a6.3 6.3 0 1 1 0-12.5 6.3 6.3 0 0 1 0 12.5" fill="#005bbb84"/><path d="M210.5-165.1a6.3 6.3 0 1 1 0-12.5 6.3 6.3 0 0 1 0 12.5" fill="#fff84"/><path d="M48.2-56.4a6.3 6.3 0 1 1 0-12.5 6.3 6.3 0 0 1 0 12.5" fill="#005bbb84"/><path d="M206.7-116.7a6.3 6.3 0 1 1 0-12.5 6.3 6.3 0 0 1 0 12.5" fill="#fff50085"/><path d="M39.3-261.5a6.3 6.3 0 1 1 0-12.7 6.3 6.3 0 0 1 0 12.7" fill="#c2e1ff86"/><path d="M137.1-38.7a6.3 6.3 0 1 1 0-12.7 6.3 6.3 0 0 1 0 12.7" fill="#fff86"/><path d="M238.9-169.5a6.5 6.5 0 1 1 0-13 6.5 6.5 0 0 1 0 13" fill="#c2e1ff89"/><path d="M-13.4-74.3a6.5 6.5 0 1 1 0-13 6.5 6.5 0 0 1 0 13" fill="#c2e1ff89"/><path d="M-31.5-204.7a6.5 6.5 0 1 1 0-13 6.5 6.5 0 0 1 0 13" fill="#005bbb89"/><path d="M37.3-29.3a6.5 6.5 0 1 1 0-13 6.5 6.5 0 0 1 0 13" fill="#fff89"/><path d="M76.2-14.7a6.5 6.5 0 1 1 0-13 6.5 6.5 0 0 1 0 13" fill="#fff5008A"/><path d="M19.9-275a6.5 6.5 0 1 1 0-13 6.5 6.5 0 0 1 0 13" fill="#005bbb8A"/><path d="M249.8-156.6a6.6 6.6 0 1 1 0-13.1 6.6 6.6 0 0 1 0 13.1" fill="#c2e1ff8B"/><path d="M222.9-67.1a6.6 6.6 0 1 1 0-13.2 6.6 6.6 0 0 1 0 13.2" fill="#005bbb8C"/><path d="M145.3-301.7a6.6 6.6 0 1 1 0-13.2 6.6 6.6 0 0 1 0 13.2" fill="#c2e1ff8C"/><path d="M230.8-69.6a6.6 6.6 0 1 1 0-13.3 6.6 6.6 0 0 1 0 13.3" fill="#005bbb8D"/><path d="M-34.2-71.4a6.7 6.7 0 1 1 0-13.4 6.7 6.7 0 0 1 0 13.4" fill="#fff8D"/><path d="M140.4-0.6a6.7 6.7 0 1 1 0-13.4 6.7 6.7 0 0 1 0 13.4" fill="#fff5008E"/><path d="M-24.7-52.9a6.7 6.7 0 1 1 0-13.4 6.7 6.7 0 0 1 0 13.4" fill="#fff5008E"/><path d="M216.4-268.9a6.7 6.7 0 1 1 0-13.4 6.7 6.7 0 0 1 0 13.4" fill="#c2e1ff8E"/><path d="M260.1-119.7a6.7 6.7 0 1 1 0-13.5 6.7 6.7 0 0 1 0 13.5" fill="#005bbb8F"/><path d="M81 11.2a6.8 6.8 0 1 1 0-13.6 6.8 6.8 0 0 1 0 13.6" fill="#fff90"/><path d="M124 15.3a6.8 6.8 0 1 1 0-13.6 6.8 6.8 0 0 1 0 13.6" fill="#fff50091"/><path d="M-41.9-46.1a6.9 6.9 0 1 1 0-13.8 6.9 6.9 0 0 1 0 13.8" fill="#fff93"/><path d="M163.3-323.7a6.9 6.9 0 1 1 0-13.9 6.9 6.9 0 0 1 0 13.9" fill="#fff93"/><path d="M-28.9-23.4a7 7 0 1 1 0-14 7 7 0 0 1 0 14" fill="#fff50095"/><path d="M-55.8-255.5a7 7 0 1 1 0-14 7 7 0 0 1 0 14" fill="#fff50095"/><path d="M-7.1-309.9a7.1 7.1 0 1 1 0-14.2 7.1 7.1 0 0 1 0 14.2" fill="#fff96"/><path d="M288.1-141.8a7.1 7.1 0 1 1 0-14.2 7.1 7.1 0 0 1 0 14.2" fill="#fff96"/><path d="M283-97.8a7.1 7.1 0 1 1 0-14.3 7.1 7.1 0 0 1 0 14.3" fill="#005bbb98"/><path d="M68.9-345.2a7.1 7.1 0 1 1 0-14.2 7.1 7.1 0 0 1 0 14.2" fill="#c2e1ff98"/><path d="M-28.8-9.9a7.2 7.2 0 1 1 0-14.4 7.2 7.2 0 0 1 0 14.4" fill="#005bbb99"/><path d="M-90.2-210.5a7.2 7.2 0 1 1 0-14.5 7.2 7.2 0 0 1 0 14.5" fill="#c2e1ff9A"/><path d="M-18.9-313.7a7.3 7.3 0 1 1 0-14.5 7.3 7.3 0 0 1 0 14.5" fill="#fff5009A"/><path d="M292.3-103.3a7.3 7.3 0 1 1 0-14.6 7.3 7.3 0 0 1 0 14.6" fill="#fff9B"/><path d="M-78.3-244.6a7.3 7.3 0 1 1 0-14.6 7.3 7.3 0 0 1 0 14.6" fill="#c2e1ff9B"/><path d="M259.9-35.5a7.3 7.3 0 1 1 0-14.6 7.3 7.3 0 0 1 0 14.6" fill="#005bbb9B"/><path d="M-95-202.1a7.3 7.3 0 1 1 0-14.6 7.3 7.3 0 0 1 0 14.6" fill="#fff5009B"/><path d="M218.2 11.9a7.4 7.4 0 1 1 0-14.8 7.4 7.4 0 0 1 0 14.8" fill="#005bbb9D"/><path d="M-2.1-336.6a7.5 7.5 0 1 1 0-14.9 7.5 7.5 0 0 1 0 14.9" fill="#fff9F"/><path d="M-40.4-309.1a7.5 7.5 0 1 1 0-14.9 7.5 7.5 0 0 1 0 14.9" fill="#fff9F"/><path d="M307.9-189.4a7.5 7.5 0 1 1 0-15.1 7.5 7.5 0 0 1 0 15.1" fill="#fff500A0"/><path d="M14.2-347.6a7.5 7.5 0 1 1 0-15.1 7.5 7.5 0 0 1 0 15.1" fill="#c2e1ffA0"/><path d="M56.4-361.5a7.5 7.5 0 1 1 0-15 7.5 7.5 0 0 1 0 15" fill="#c2e1ffA0"/><path d="M108.1 56.4a7.5 7.5 0 1 1 0-15.1 7.5 7.5 0 0 1 0 15.1" fill="#fffA1"/><path d="M-111.3-180.2a7.6 7.6 0 1 1 0-15.1 7.6 7.6 0 0 1 0 15.1" fill="#c2e1ffA1"/><path d="M-80-273a7.6 7.6 0 1 1 0-15.2 7.6 7.6 0 0 1 0 15.2" fill="#fffA3"/><path d="M88.5 63.2a7.7 7.7 0 1 1 0-15.4 7.7 7.7 0 0 1 0 15.4" fill="#c2e1ffA5"/><path d="M125.4 62.1a7.7 7.7 0 1 1 0-15.5 7.7 7.7 0 0 1 0 15.5" fill="#fff500A5"/><path d="M-24.3 24.8a7.7 7.7 0 1 1 0-15.4 7.7 7.7 0 0 1 0 15.4" fill="#fffA5"/><path d="M-118-173.9a7.7 7.7 0 1 1 0-15.5 7.7 7.7 0 0 1 0 15.5" fill="#fffA5"/><path d="M289.3-43.1a7.8 7.8 0 1 1 0-15.6 7.8 7.8 0 0 1 0 15.6" fill="#005bbbA6"/><path d="M-33.6-329.4a7.8 7.8 0 1 1 0-15.6 7.8 7.8 0 0 1 0 15.6" fill="#c2e1ffA6"/><path d="M280.9-280.9a7.8 7.8 0 1 1 0-15.6 7.8 7.8 0 0 1 0 15.6" fill="#c2e1ffA6"/><path d="M259.9-307.2a7.8 7.8 0 1 1 0-15.7 7.8 7.8 0 0 1 0 15.7" fill="#fffA7"/><path d="M-54.8-313.3a7.8 7.8 0 1 1 0-15.7 7.8 7.8 0 0 1 0 15.7" fill="#c2e1ffA7"/><path d="M-47.8 10.9a7.8 7.8 0 1 1 0-15.6 7.8 7.8 0 0 1 0 15.6" fill="#005bbbA7"/><path d="M244.6 15.5a7.9 7.9 0 1 1 0-15.8 7.9 7.9 0 0 1 0 15.8" fill="#005bbbA8"/><path d="M321.3-184.4a7.9 7.9 0 1 1 0-15.8 7.9 7.9 0 0 1 0 15.8" fill="#fffA8"/><path d="M276.2-15.9a7.9 7.9 0 1 1 0-15.9 7.9 7.9 0 0 1 0 15.9" fill="#005bbbA9"/><path d="M-109.1-237a8 8 0 1 1 0-15.9 8 8 0 0 1 0 15.9" fill="#fffAA"/><path d="M-90.7-34.3a8 8 0 1 1 0-15.9 8 8 0 0 1 0 15.9" fill="#fff500AA"/><path d="M301.3-258.9a8 8 0 1 1 0-16 8 8 0 0 1 0 16" fill="#fffAB"/><path d="M294.6-271.5a8 8 0 1 1 0-16.1 8 8 0 0 1 0 16.1" fill="#005bbbAC"/><path d="M-120.5-91.7a8.1 8.1 0 1 1 0-16.3 8.1 8.1 0 0 1 0 16.3" fill="#c2e1ffAE"/><path d="M-53.8 16.7a8.2 8.2 0 1 1 0-16.4 8.2 8.2 0 0 1 0 16.4" fill="#005bbbAF"/><path d="M313.1-241.4a8.2 8.2 0 1 1 0-16.4 8.2 8.2 0 0 1 0 16.4" fill="#005bbbAF"/><path d="M329.1-126.9a8.2 8.2 0 1 1 0-16.5 8.2 8.2 0 0 1 0 16.5" fill="#fff500AF"/><path d="M276.9-2.8a8.4 8.4 0 1 1 0-16.8 8.4 8.4 0 0 1 0 16.8" fill="#c2e1ffB2"/><path d="M37.5-378.5a8.4 8.4 0 1 1 0-16.7 8.4 8.4 0 0 1 0 16.7" fill="#fff500B3"/><path d="M-124.7-92.5a8.4 8.4 0 1 1 0-16.7 8.4 8.4 0 0 1 0 16.7" fill="#005bbbB3"/><path d="M-11 50.7a8.4 8.4 0 1 1 0-16.8 8.4 8.4 0 0 1 0 16.8" fill="#fffB3"/><path d="M-55.3 20.8a8.4 8.4 0 1 1 0-16.9 8.4 8.4 0 0 1 0 16.9" fill="#fff500B4"/><path d="M70.3-386.1a8.4 8.4 0 1 1 0-16.8 8.4 8.4 0 0 1 0 16.8" fill="#c2e1ffB4"/><path d="M-53.6 22.5a8.5 8.5 0 1 1 0-16.9 8.5 8.5 0 0 1 0 16.9" fill="#005bbbB5"/><path d="M316.3-243.5a8.5 8.5 0 1 1 0-16.9 8.5 8.5 0 0 1 0 16.9" fill="#005bbbB5"/><path d="M-76.1 0.6a8.5 8.5 0 1 1 0-17 8.5 8.5 0 0 1 0 17" fill="#c2e1ffB5"/><path d="M164.1 71.6a8.5 8.5 0 1 1 0-17 8.5 8.5 0 0 1 0 17" fill="#fff500B6"/><path d="M311.3-51.4a8.5 8.5 0 1 1 0-17.1 8.5 8.5 0 0 1 0 17.1" fill="#c2e1ffB6"/><path d="M220.2 48.2a8.6 8.6 0 1 1 0-17.1 8.6 8.6 0 0 1 0 17.1" fill="#fff500B7"/><path d="M-135.5-162.8a8.7 8.7 0 1 1 0-17.3 8.7 8.7 0 0 1 0 17.3" fill="#005bbbB9"/><path d="M199.5-367.6a8.7 8.7 0 1 1 0-17.3 8.7 8.7 0 0 1 0 17.3" fill="#c2e1ffB9"/><path d="M157.6-382.5a8.7 8.7 0 1 1 0-17.4 8.7 8.7 0 0 1 0 17.4" fill="#005bbbBA"/><path d="M-31.5 42.1a8.7 8.7 0 1 1 0-17.4 8.7 8.7 0 0 1 0 17.4" fill="#fffBA"/><path d="M315.2-56.5a8.8 8.8 0 1 1 0-17.5 8.8 8.8 0 0 1 0 17.5" fill="#fff500BB"/><path d="M248.7 29.9a8.8 8.8 0 1 1 0-17.7 8.8 8.8 0 0 1 0 17.7" fill="#fff500BD"/><path d="M-37.6 38.4a8.9 8.9 0 1 1 0-17.8 8.9 8.9 0 0 1 0 17.8" fill="#fff500BE"/><path d="M-101.2-29.9a8.9 8.9 0 1 1 0-17.8 8.9 8.9 0 0 1 0 17.8" fill="#c2e1ffBF"/><path d="M-118.9-241.8a9 9 0 1 1 0-18 9 9 0 0 1 0 18" fill="#fff500C0"/><path d="M324.2-227.1a9 9 0 1 1 0-18 9 9 0 0 1 0 18" fill="#005bbbC1"/><path d="M34.3-380.1a9 9 0 1 1 0-18 9 9 0 0 1 0 18" fill="#fff500C1"/><path d="M-14.1 52.6a9.1 9.1 0 1 1 0-18.2 9.1 9.1 0 0 1 0 18.2" fill="#fffC3"/><path d="M214.3-359.1a9.1 9.1 0 1 1 0-18.2 9.1 9.1 0 0 1 0 18.2" fill="#005bbbC3"/><path d="M327-91.6a9.1 9.1 0 1 1 0-18.2 9.1 9.1 0 0 1 0 18.2" fill="#fffC3"/><path d="M46.2-382.4a9.1 9.1 0 1 1 0-18.2 9.1 9.1 0 0 1 0 18.2" fill="#fffC4"/><path d="M4.9 61.7a9.1 9.1 0 1 1 0-18.2 9.1 9.1 0 0 1 0 18.2" fill="#c2e1ffC4"/><path d="M36 72.7a9.2 9.2 0 1 1 0-18.4 9.2 9.2 0 0 1 0 18.4" fill="#c2e1ffC4"/><path d="M264.6-319.2a9.3 9.3 0 1 1 0-18.5 9.3 9.3 0 0 1 0 18.5" fill="#c2e1ffC7"/><path d="M238.9-341a9.3 9.3 0 1 1 0-18.6 9.3 9.3 0 0 1 0 18.6" fill="#fffC7"/><path d="M331.8-136.4a9.4 9.4 0 1 1 0-18.8 9.4 9.4 0 0 1 0 18.8" fill="#fff500C9"/><path d="M-4.7 53.9a9.4 9.4 0 1 1 0-18.8 9.4 9.4 0 0 1 0 18.8" fill="#fffCA"/><path d="M331.7-142.6a9.4 9.4 0 1 1 0-18.8 9.4 9.4 0 0 1 0 18.8" fill="#c2e1ffCA"/><path d="M167.8-374.6a9.4 9.4 0 1 1 0-18.9 9.4 9.4 0 0 1 0 18.9" fill="#c2e1ffCA"/><path d="M247.3-331.3a9.5 9.5 0 1 1 0-18.9 9.5 9.5 0 0 1 0 18.9" fill="#fffCB"/><path d="M316.8-232.6a9.5 9.5 0 1 1 0-18.9 9.5 9.5 0 0 1 0 18.9" fill="#c2e1ffCB"/><path d="M-93.3-33.5a9.7 9.7 0 1 1 0-19.3 9.7 9.7 0 0 1 0 19.3" fill="#fff500CF"/><path d="M-69.5-5a9.8 9.8 0 1 1 0-19.5 9.8 9.8 0 0 1 0 19.5" fill="#fffD1"/><path d="M304.8-60.4a9.8 9.8 0 1 1 0-19.6 9.8 9.8 0 0 1 0 19.6" fill="#c2e1ffD2"/><path d="M150 63.2a9.9 9.9 0 1 1 0-19.8 9.9 9.9 0 0 1 0 19.8" fill="#c2e1ffD4"/><path d="M211.7 38.4a9.9 9.9 0 1 1 0-19.8 9.9 9.9 0 0 1 0 19.8" fill="#fff500D4"/><path d="M-119.3-135a9.9 9.9 0 1 1 0-19.9 9.9 9.9 0 0 1 0 19.9" fill="#005bbbD5"/><path d="M98.8-372.5a9.9 9.9 0 1 1 0-19.9 9.9 9.9 0 0 1 0 19.9" fill="#fff500D5"/><path d="M-79.2-278.7a10 10 0 1 1 0-19.9 10 10 0 0 1 0 19.9" fill="#c2e1ffD6"/><path d="M272.6-17.8a10 10 0 1 1 0-20 10 10 0 0 1 0 20" fill="#c2e1ffD6"/><path d="M312.6-112a10 10 0 1 1 0-20.1 10 10 0 0 1 0 20.1" fill="#fff500D8"/><path d="M141.8 57.4a10.1 10.1 0 1 1 0-20.3 10.1 10.1 0 0 1 0 20.3" fill="#005bbbD9"/><path d="M215.3 25.6a10.2 10.2 0 1 1 0-20.3 10.2 10.2 0 0 1 0 20.3" fill="#fff500DA"/><path d="M281.5-260.1a10.2 10.2 0 1 1 0-20.4 10.2 10.2 0 0 1 0 20.4" fill="#c2e1ffDB"/><path d="M144.6 54a10.2 10.2 0 1 1 0-20.4 10.2 10.2 0 0 1 0 20.4" fill="#c2e1ffDB"/><path d="M185.9-344.7a10.2 10.2 0 1 1 0-20.4 10.2 10.2 0 0 1 0 20.4" fill="#c2e1ffDB"/><path d="M-97.3-79a10.2 10.2 0 1 1 0-20.4 10.2 10.2 0 0 1 0 20.4" fill="#c2e1ffDB"/><path d="M-71.6-273.6a10.2 10.2 0 1 1 0-20.4 10.2 10.2 0 0 1 0 20.4" fill="#c2e1ffDB"/><path d="M-92.6-75.2a10.3 10.3 0 1 1 0-20.6 10.3 10.3 0 0 1 0 20.6" fill="#fff500DD"/><path d="M171.2 41.7a10.3 10.3 0 1 1 0-20.5 10.3 10.3 0 0 1 0 20.5" fill="#fffDD"/><path d="M-102.6-183.4a10.3 10.3 0 1 1 0-20.7 10.3 10.3 0 0 1 0 20.7" fill="#c2e1ffDE"/><path d="M-79.1-53.7a10.3 10.3 0 1 1 0-20.7 10.3 10.3 0 0 1 0 20.7" fill="#fffDE"/><path d="M-83.3-239.2a10.4 10.4 0 1 1 0-20.8 10.4 10.4 0 0 1 0 20.8" fill="#005bbbDF"/><path d="M-49.3-16a10.4 10.4 0 1 1 0-20.8 10.4 10.4 0 0 1 0 20.8" fill="#005bbbDF"/><path d="M269.8-43a10.4 10.4 0 1 1 0-20.8 10.4 10.4 0 0 1 0 20.8" fill="#fffDF"/><path d="M11.8 25a10.5 10.5 0 1 1 0-21 10.5 10.5 0 0 1 0 21" fill="#fffE1"/><path d="M172.7 30.7a10.5 10.5 0 1 1 0-21 10.5 10.5 0 0 1 0 21" fill="#005bbbE2"/><path d="M108.8 44.2a10.5 10.5 0 1 1 0-21 10.5 10.5 0 0 1 0 21" fill="#fffE2"/><path d="M111.3-347a10.5 10.5 0 1 1 0-21 10.5 10.5 0 0 1 0 21" fill="#005bbbE2"/><path d="M-89.9-190.5a10.5 10.5 0 1 1 0-21.1 10.5 10.5 0 0 1 0 21.1" fill="#005bbbE3"/><path d="M-91.2-150.6a10.6 10.6 0 1 1 0-21.2 10.6 10.6 0 0 1 0 21.2" fill="#fff500E4"/><path d="M263.1-53.7a10.6 10.6 0 1 1 0-21.3 10.6 10.6 0 0 1 0 21.3" fill="#c2e1ffE4"/><path d="M19.6 19.3a10.6 10.6 0 1 1 0-21.3 10.6 10.6 0 0 1 0 21.3" fill="#fff500E4"/><path d="M162.1 25.9a10.6 10.6 0 1 1 0-21.2 10.6 10.6 0 0 1 0 21.2" fill="#fffE5"/><path d="M247.7-267a10.7 10.7 0 1 1 0-21.3 10.7 10.7 0 0 1 0 21.3" fill="#fff500E5"/><path d="M279.8-151.7a10.8 10.8 0 1 1 0-21.6 10.8 10.8 0 0 1 0 21.6" fill="#fff500E8"/><path d="M277.4-146a10.8 10.8 0 1 1 0-21.6 10.8 10.8 0 0 1 0 21.6" fill="#fffE8"/><path d="M103.7 20.7a10.9 10.9 0 1 1 0-21.7 10.9 10.9 0 0 1 0 21.7" fill="#c2e1ffEA"/><path d="M-62.5-101a10.9 10.9 0 1 1 0-21.8 10.9 10.9 0 0 1 0 21.8" fill="#fffEB"/><path d="M18.4-2.7a10.9 10.9 0 1 1 0-21.8 10.9 10.9 0 0 1 0 21.8" fill="#fff500EB"/><path d="M-66.6-129.3a10.9 10.9 0 1 1 0-21.8 10.9 10.9 0 0 1 0 21.8" fill="#fffEB"/><path d="M263.8-148.8a11 11 0 1 1 0-22 11 11 0 0 1 0 22" fill="#c2e1ffEC"/><path d="M-47.9-84.4a11 11 0 1 1 0-22 11 11 0 0 1 0 22" fill="#fffED"/><path d="M-58.8-139.4a11 11 0 1 1 0-22 11 11 0 0 1 0 22" fill="#005bbbED"/><path d="M157.8-5.5a11.1 11.1 0 1 1 0-22.1 11.1 11.1 0 0 1 0 22.1" fill="#fffEE"/><path d="M30.1-18.8a11.1 11.1 0 1 1 0-22.3 11.1 11.1 0 0 1 0 22.3" fill="#fffF0"/><path d="M184.4-275.1a11.1 11.1 0 1 1 0-22.3 11.1 11.1 0 0 1 0 22.3" fill="#fffF0"/><path d="M211.1-248.4a11.2 11.2 0 1 1 0-22.3 11.2 11.2 0 0 1 0 22.3" fill="#fffF0"/><path d="M130.1-292.4a11.2 11.2 0 1 1 0-22.4 11.2 11.2 0 0 1 0 22.4" fill="#fff500F1"/><path d="M235-106.6a11.2 11.2 0 1 1 0-22.5 11.2 11.2 0 0 1 0 22.5" fill="#005bbbF1"/><path d="M123.1-287.5a11.3 11.3 0 1 1 0-22.5 11.3 11.3 0 0 1 0 22.5" fill="#fff500F2"/><path d="M96.4-14.1a11.3 11.3 0 1 1 0-22.6 11.3 11.3 0 0 1 0 22.6" fill="#fffF2"/><path d="M231.2-181.5a11.3 11.3 0 1 1 0-22.6 11.3 11.3 0 0 1 0 22.6" fill="#fffF3"/><path d="M115.7-27a11.4 11.4 0 1 1 0-22.8 11.4 11.4 0 0 1 0 22.8" fill="#fff500F5"/><path d="M150.6-40.4a11.4 11.4 0 1 1 0-22.8 11.4 11.4 0 0 1 0 22.8" fill="#fff500F5"/><path d="M111.1-260.3a11.5 11.5 0 1 1 0-22.9 11.5 11.5 0 0 1 0 22.9" fill="#fff500F7"/><path d="M127.4-248.8a11.5 11.5 0 1 1 0-23.1 11.5 11.5 0 0 1 0 23.1" fill="#c2e1ffF8"/><path d="M140.6-242.4a11.5 11.5 0 1 1 0-23.1 11.5 11.5 0 0 1 0 23.1" fill="#fff500F8"/><path d="M52.7-239a11.5 11.5 0 1 1 0-23.1 11.5 11.5 0 0 1 0 23.1" fill="#fffF8"/><path d="M31.3-84.9a11.6 11.6 0 1 1 0-23.1 11.6 11.6 0 0 1 0 23.1" fill="#fffF9"/><path d="M149.6-209.7a11.7 11.7 0 1 1 0-23.3 11.7 11.7 0 0 1 0 23.3" fill="#fff500FB"/><path d="M162.9-151.6a11.7 11.7 0 1 1 0-23.4 11.7 11.7 0 0 1 0 23.4" fill="#c2e1ffFC"/><path d="M78.8-209.5a11.7 11.7 0 1 1 0-23.4 11.7 11.7 0 0 1 0 23.4" fill="#005bbbFC"/><path d="M47-172a11.7 11.7 0 1 1 0-23.4 11.7 11.7 0 0 1 0 23.4" fill="#c2e1ffFD"/><path d="M71.4-169.9a11.8 11.8 0 1 1 0-23.6 11.8 11.8 0 0 1 0 23.6" fill="#c2e1ffFE"/><path d="M127.7-166.1a11.8 11.8 0 1 1 0-23.6 11.8 11.8 0 0 1 0 23.6" fill="#fffFE"/><path d="M77.6-140a11.8 11.8 0 1 1 0-23.6 11.8 11.8 0 0 1 0 23.6" fill="#fff500FE"/></g></svg>