<svg width="1200" height="675" viewBox="-500 -500 1200 675" xmlns="http://www.w3.org/2000/svg"><path d="M-500-500h1200v675h-1200z" fill="#000"/><style>.sparkles path{stroke-linecap:round; stroke-width:1}</style><g class="sparkles"><path d="M100-162.5l-25.8-45.3" stroke="#fff33"/><path d="M100-162.5l53.5-6.9" stroke="#fff50033"/><path d="M100-162.5l-50.7-19.4" stroke="#fff50033"/><path d="M100-162.5l-88.9-49.3" stroke="#005bbb36"/><path d="M100-162.5l0.1-106.1" stroke="#005bbb37"/><path d="M100-162.5l-78.9 89.5" stroke="#005bbb38"/><path d="M100-162.5l52.6-121.1" stroke="#fff3A"/><path d="M100-162.5l-37.5 139.7" stroke="#c2e1ff3C"/><path d="M100-162.5l-147.4 21.6" stroke="#c2e1ff3D"/><path d="M100-162.5l-65.1 139.9" stroke="#fff3E"/><path d="M100-162.5l149.9 41.3" stroke="#005bbb3E"/><path d="M100-162.5l142.3 79.5" stroke="#005bbb3F"/><path d="M100-162.5l112.8 122.3" stroke="#fff40"/><path d="M100-162.5l-130.4 106.4" stroke="#005bbb40"/><path d="M100-162.5l-65.7 156.1" stroke="#c2e1ff41"/><path d="M100-162.5l54.3-161.8" stroke="#005bbb41"/><path d="M100-162.5l-153.6-78.3" stroke="#c2e1ff41"/><path d="M100-162.5l-171.2 23.4" stroke="#c2e1ff41"/><path d="M100-162.5l59.1 162.9" stroke="#fff42"/><path d="M100-162.5l128.3 118.3" stroke="#fff50042"/><path d="M100-162.5l-144.8-100.4" stroke="#fff42"/><path d="M100-162.5l102.6-143.8" stroke="#c2e1ff42"/><path d="M100-162.5l135.4-116.9" stroke="#fff50043"/><path d="M100-162.5l-145.1-118.1" stroke="#fff45"/><path d="M100-162.5l-170.6-76.9" stroke="#fff50045"/><path d="M100-162.5l-56.6 179.9" stroke="#fff50045"/><path d="M100-162.5l-129.7-142" stroke="#fff46"/><path d="M100-162.5l174.5 86.1" stroke="#fff50047"/><path d="M100-162.5l39.6 191.1" stroke="#005bbb47"/><path d="M100-162.5l-152.5 122.8" stroke="#c2e1ff48"/><path d="M100-162.5l-192.6-50.7" stroke="#fff50049"/><path d="M100-162.5l-196.6-39.6" stroke="#c2e1ff49"/><path d="M100-162.5l83.7-184" stroke="#fff4A"/><path d="M100-162.5l184.4-83.6" stroke="#fff4A"/><path d="M100-162.5l-33.3-202.2" stroke="#fff5004B"/><path d="M100-162.5l-72.7 192.5" stroke="#c2e1ff4B"/><path d="M100-162.5l-71.9 193.2" stroke="#c2e1ff4B"/><path d="M100-162.5l202.2 44.7" stroke="#fff4B"/><path d="M100-162.5l45.1-202.3" stroke="#fff4C"/><path d="M100-162.5l-74.1-193.7" stroke="#fff5004C"/><path d="M100-162.5l-66.2-196.6" stroke="#fff4C"/><path d="M100-162.5l-202.2-47" stroke="#c2e1ff4C"/><path d="M100-162.5l194.1-87.8" stroke="#fff5004E"/><path d="M100-162.5l-153.5-149.1" stroke="#005bbb4E"/><path d="M100-162.5l127-172.7" stroke="#005bbb4E"/><path d="M100-162.5l62.7 205.6" stroke="#c2e1ff4F"/><path d="M100-162.5l-213.9 25.7" stroke="#fff4F"/><path d="M100-162.5l-171.2 132.5" stroke="#c2e1ff4F"/><path d="M100-162.5l-217.5-1.2" stroke="#fff50"/><path d="M100-162.5l95.6-196.9" stroke="#005bbb51"/><path d="M100-162.5l195.8 98.2" stroke="#c2e1ff51"/><path d="M100-162.5l-6.3 220.8" stroke="#fff50052"/><path d="M100-162.5l-55.2-214.8" stroke="#c2e1ff52"/><path d="M100-162.5l219.8 33.5" stroke="#fff50053"/><path d="M100-162.5l138.2 174.9" stroke="#c2e1ff53"/><path d="M100-162.5l223.2-9.1" stroke="#fff53"/><path d="M100-162.5l-172-144" stroke="#c2e1ff54"/><path d="M100-162.5l217.1 58.5" stroke="#fff54"/><path d="M100-162.5l-105.5 199.4" stroke="#005bbb55"/><path d="M100-162.5l-224.3 26.2" stroke="#005bbb55"/><path d="M100-162.5l-128.5 186.2" stroke="#c2e1ff55"/><path d="M100-162.5l209.6 85.4" stroke="#c2e1ff55"/><path d="M100-162.5l-209.9-84.8" stroke="#c2e1ff55"/><path d="M100-162.5l-160.9 161" stroke="#c2e1ff56"/><path d="M100-162.5l-106 203.7" stroke="#fff50058"/><path d="M100-162.5l59.7-222" stroke="#c2e1ff58"/><path d="M100-162.5l-226.7-43.1" stroke="#fff59"/><path d="M100-162.5l139.5-184.1" stroke="#005bbb59"/><path d="M100-162.5l123.1-195.5" stroke="#005bbb59"/><path d="M100-162.5l-198.7-119.9" stroke="#005bbb5A"/><path d="M100-162.5l-150-177.5" stroke="#fff5B"/><path d="M100-162.5l-185.7-140.6" stroke="#fff5B"/><path d="M100-162.5l136.2-189.3" stroke="#fff5B"/><path d="M100-162.5l-122.8-198.5" stroke="#fff5005C"/><path d="M100-162.5l145.6 183.2" stroke="#005bbb5D"/><path d="M100-162.5l197.6-125.8" stroke="#c2e1ff5D"/><path d="M100-162.5l-229.9-48.6" stroke="#fff5005E"/><path d="M100-162.5l-234.9 18.1" stroke="#c2e1ff60"/><path d="M100-162.5l179.3-152.9" stroke="#fff50060"/><path d="M100-162.5l-33.3 233.5" stroke="#fff50061"/><path d="M100-162.5l191.6 138.1" stroke="#fff62"/><path d="M100-162.5l117.6 204.9" stroke="#fff62"/><path d="M100-162.5l236.1 8.7" stroke="#fff63"/><path d="M100-162.5l236.2-1.9" stroke="#c2e1ff63"/><path d="M100-162.5l158.1 175.5" stroke="#005bbb63"/><path d="M100-162.5l-234 32.5" stroke="#fff63"/><path d="M100-162.5l-174.5-159.3" stroke="#fff64"/><path d="M100-162.5l-227.2 64.8" stroke="#005bbb64"/><path d="M100-162.5l-6-236.1" stroke="#c2e1ff64"/><path d="M100-162.5l-13.3-235.8" stroke="#005bbb65"/><path d="M100-162.5l-5.5 236" stroke="#fff66"/><path d="M100-162.5l70.7 225.1" stroke="#fff66"/><path d="M100-162.5l-154.8-178.1" stroke="#fff66"/><path d="M100-162.5l-154.9-177.8" stroke="#fff50067"/><path d="M100-162.5l199.7 125.5" stroke="#fff67"/><path d="M100-162.5l17.4 235.1" stroke="#fff67"/><path d="M100-162.5l224.8 70.7" stroke="#fff67"/><path d="M100-162.5l-172.4 160.5" stroke="#005bbb67"/><path d="M100-162.5l-206.1-113" stroke="#c2e1ff69"/><path d="M100-162.5l99.1-213" stroke="#c2e1ff69"/><path d="M100-162.5l-228.7 53.2" stroke="#c2e1ff69"/><path d="M100-162.5l-215.7 92.1" stroke="#005bbb69"/><path d="M100-162.5l194.9-130.4" stroke="#fff5006A"/><path d="M100-162.5l55.7 226.1" stroke="#005bbb6C"/><path d="M100-162.5l175.3 152.1" stroke="#fff5006D"/><path d="M100-162.5l178.1-148.5" stroke="#fff5006D"/><path d="M100-162.5l-83.1 215.4" stroke="#fff6E"/><path d="M100-162.5l-105.5-204.4" stroke="#fff6F"/><path d="M100-162.5l51.3-224.1" stroke="#005bbb6F"/><path d="M100-162.5l76.8-214.8" stroke="#c2e1ff71"/><path d="M100-162.5l226.2 24.6" stroke="#c2e1ff71"/><path d="M100-162.5l227.4 0" stroke="#c2e1ff71"/><path d="M100-162.5l221.8-47.4" stroke="#005bbb72"/><path d="M100-162.5l-195.5-108.6" stroke="#c2e1ff74"/><path d="M100-162.5l-218.2 44.8" stroke="#fff74"/><path d="M100-162.5l-19.1 220.8" stroke="#c2e1ff75"/><path d="M100-162.5l-185.6 119.1" stroke="#c2e1ff75"/><path d="M100-162.5l-150.3-159.7" stroke="#fff76"/><path d="M100-162.5l-216.3-33.6" stroke="#c2e1ff76"/><path d="M100-162.5l-47.5-213.3" stroke="#fff77"/><path d="M100-162.5l23.9 217" stroke="#005bbb77"/><path d="M100-162.5l64.1-207.7" stroke="#c2e1ff77"/><path d="M100-162.5l103.9-189" stroke="#c2e1ff78"/><path d="M100-162.5l196.3-89.3" stroke="#005bbb78"/><path d="M100-162.5l60.1-206.7" stroke="#fff78"/><path d="M100-162.5l-177.9-120.3" stroke="#c2e1ff78"/><path d="M100-162.5l202.6-64.7" stroke="#fff79"/><path d="M100-162.5l-62 202.4" stroke="#005bbb7A"/><path d="M100-162.5l-100.2-184.2" stroke="#fff5007B"/><path d="M100-162.5l169-122.6" stroke="#fff7B"/><path d="M100-162.5l-161.8-131.6" stroke="#fff5007B"/><path d="M100-162.5l-198.9 59.3" stroke="#fff5007B"/><path d="M100-162.5l182.6-96.9" stroke="#fff5007C"/><path d="M100-162.5l-202 43.7" stroke="#fff5007C"/><path d="M100-162.5l161.4 128.9" stroke="#005bbb7C"/><path d="M100-162.5l182.8 92.7" stroke="#fff7C"/><path d="M100-162.5l150-139.6" stroke="#005bbb7C"/><path d="M100-162.5l-102-176" stroke="#fff7D"/><path d="M100-162.5l-98.6 177.1" stroke="#005bbb7D"/><path d="M100-162.5l102.9 172.8" stroke="#005bbb7E"/><path d="M100-162.5l72.8-186.6" stroke="#005bbb7E"/><path d="M100-162.5l-112.5-163.7" stroke="#005bbb7F"/><path d="M100-162.5l63.5 188.1" stroke="#c2e1ff7F"/><path d="M100-162.5l169.8 102.1" stroke="#005bbb7F"/><path d="M100-162.5l-0.6 193.7" stroke="#c2e1ff80"/><path d="M100-162.5l13.2 192.9" stroke="#005bbb80"/><path d="M100-162.5l-7.1 192.9" stroke="#c2e1ff80"/><path d="M100-162.5l97.2 164.5" stroke="#fff81"/><path d="M100-162.5l111.4-155.2" stroke="#fff81"/><path d="M100-162.5l179.8 37.7" stroke="#005bbb83"/><path d="M100-162.5l-166.9 76.7" stroke="#c2e1ff83"/><path d="M100-162.5l-181 16" stroke="#fff83"/><path d="M100-162.5l87.7-159" stroke="#fff83"/><path d="M100-162.5l167.8-50.5" stroke="#fff50085"/><path d="M100-162.5l110.8 133.1" stroke="#fff50085"/><path d="M100-162.5l97.1-142.1" stroke="#005bbb86"/><path d="M100-162.5l24.5 169" stroke="#005bbb86"/><path d="M100-162.5l-114.8 122.4" stroke="#fff50087"/><path d="M100-162.5l-98.9-135.4" stroke="#005bbb87"/><path d="M100-162.5l-159-45.3" stroke="#fff50087"/><path d="M100-162.5l-130.8 94.8" stroke="#c2e1ff88"/><path d="M100-162.5l-69 143.3" stroke="#c2e1ff88"/><path d="M100-162.5l-68.4-134.1" stroke="#c2e1ff8A"/><path d="M100-162.5l-100.9-108.6" stroke="#005bbb8A"/><path d="M100-162.5l122.8-79.3" stroke="#fff5008B"/><path d="M100-162.5l-135.9-52.6" stroke="#005bbb8B"/><path d="M100-162.5l-46.8 133.7" stroke="#fff8C"/><path d="M100-162.5l71.1 120.1" stroke="#fff8C"/><path d="M100-162.5l108.2-46.3" stroke="#fff5008F"/><path d="M100-162.5l111.5-31.3" stroke="#fff8F"/><path d="M100-162.5l-60.6-98.3" stroke="#c2e1ff8F"/><path d="M100-162.5l-16.2-104" stroke="#c2e1ff90"/><path d="M100-162.5l-22.4-100.7" stroke="#fff90"/><path d="M100-162.5l-78.3 54.6" stroke="#fff50091"/><path d="M100-162.5l50.9 70.6" stroke="#fff50092"/><path d="M100-162.5l-46.7 73.1" stroke="#fff92"/><path d="M100-162.5l26.3-46.9" stroke="#fff94"/><path d="M100-162.5l-40.7 26.7" stroke="#fff50094"/><path d="M100-162.5l1.9 44.8" stroke="#c2e1ff95"/><path d="M100-162.5l33.8-4.1" stroke="#005bbb95"/><path d="M100-162.5l29.9-6.8" stroke="#005bbb95"/></g><g class="sparcs"><path d="M74.2-201.8a6 6 0 1 1 0-12 6 6 0 0 1 0 12" fill="#fff5007E"/><path d="M153.5-163.4a6 6 0 1 1 0-12 6 6 0 0 1 0 12" fill="#c2e1ff7E"/><path d="M49.3-175.9a6 6 0 1 1 0-12 6 6 0 0 1 0 12" fill="#fff5007E"/><path d="M11.1-205.6a6.2 6.2 0 1 1 0-12.4 6.2 6.2 0 0 1 0 12.4" fill="#c2e1ff83"/><path d="M100.1-262.3a6.2 6.2 0 1 1 0-12.5 6.2 6.2 0 0 1 0 12.5" fill="#fff50083"/><path d="M21.1-66.7a6.3 6.3 0 1 1 0-12.6 6.3 6.3 0 0 1 0 12.6" fill="#fff50085"/><path d="M152.6-277.2a6.4 6.4 0 1 1 0-12.8 6.4 6.4 0 0 1 0 12.8" fill="#fff50088"/><path d="M62.5-16.3a6.5 6.5 0 1 1 0-13.1 6.5 6.5 0 0 1 0 13.1" fill="#fff5008A"/><path d="M-47.4-134.3a6.6 6.6 0 1 1 0-13.2 6.6 6.6 0 0 1 0 13.2" fill="#005bbb8B"/><path d="M34.9-16a6.6 6.6 0 1 1 0-13.2 6.6 6.6 0 0 1 0 13.2" fill="#fff5008C"/><path d="M249.9-114.6a6.6 6.6 0 1 1 0-13.2 6.6 6.6 0 0 1 0 13.2" fill="#005bbb8D"/><path d="M242.3-76.2a6.7 6.7 0 1 1 0-13.5 6.7 6.7 0 0 1 0 13.5" fill="#005bbb8E"/><path d="M212.8-33.4a6.8 6.8 0 1 1 0-13.5 6.8 6.8 0 0 1 0 13.5" fill="#fff8F"/><path d="M-30.4-49.4a6.8 6.8 0 1 1 0-13.5 6.8 6.8 0 0 1 0 13.5" fill="#005bbb90"/><path d="M34.3 0.4a6.8 6.8 0 1 1 0-13.6 6.8 6.8 0 0 1 0 13.6" fill="#fff90"/><path d="M154.3-317.5a6.8 6.8 0 1 1 0-13.6 6.8 6.8 0 0 1 0 13.6" fill="#c2e1ff91"/><path d="M-53.6-234a6.8 6.8 0 1 1 0-13.7 6.8 6.8 0 0 1 0 13.7" fill="#fff50091"/><path d="M-71.2-132.2a6.8 6.8 0 1 1 0-13.7 6.8 6.8 0 0 1 0 13.7" fill="#c2e1ff91"/><path d="M159.1 7.2a6.9 6.9 0 1 1 0-13.7 6.9 6.9 0 0 1 0 13.7" fill="#005bbb91"/><path d="M228.3-37.3a6.9 6.9 0 1 1 0-13.8 6.9 6.9 0 0 1 0 13.8" fill="#c2e1ff92"/><path d="M-44.8-256a6.9 6.9 0 1 1 0-13.8 6.9 6.9 0 0 1 0 13.8" fill="#fff50092"/><path d="M202.6-299.4a6.9 6.9 0 1 1 0-13.8 6.9 6.9 0 0 1 0 13.8" fill="#fff50092"/><path d="M235.4-272.5a6.9 6.9 0 1 1 0-13.8 6.9 6.9 0 0 1 0 13.8" fill="#005bbb93"/><path d="M-45.1-273.5a7.1 7.1 0 1 1 0-14.2 7.1 7.1 0 0 1 0 14.2" fill="#fff96"/><path d="M-70.6-232.4a7.1 7.1 0 1 1 0-14.1 7.1 7.1 0 0 1 0 14.1" fill="#fff50096"/><path d="M43.4 24.5a7.1 7.1 0 1 1 0-14.2 7.1 7.1 0 0 1 0 14.2" fill="#fff96"/><path d="M-29.7-297.4a7.1 7.1 0 1 1 0-14.2 7.1 7.1 0 0 1 0 14.2" fill="#fff50098"/><path d="M274.5-69.2a7.2 7.2 0 1 1 0-14.4 7.2 7.2 0 0 1 0 14.4" fill="#005bbb99"/><path d="M139.6 35.8a7.2 7.2 0 1 1 0-14.4 7.2 7.2 0 0 1 0 14.4" fill="#fff99"/><path d="M-52.5-32.5a7.2 7.2 0 1 1 0-14.4 7.2 7.2 0 0 1 0 14.4" fill="#005bbb99"/><path d="M-92.6-206a7.3 7.3 0 1 1 0-14.5 7.3 7.3 0 0 1 0 14.5" fill="#fff5009B"/><path d="M-96.6-194.8a7.3 7.3 0 1 1 0-14.6 7.3 7.3 0 0 1 0 14.6" fill="#c2e1ff9B"/><path d="M183.7-339.1a7.3 7.3 0 1 1 0-14.7 7.3 7.3 0 0 1 0 14.7" fill="#c2e1ff9C"/><path d="M284.4-238.7a7.3 7.3 0 1 1 0-14.7 7.3 7.3 0 0 1 0 14.7" fill="#c2e1ff9C"/><path d="M66.7-357.3a7.4 7.4 0 1 1 0-14.8 7.4 7.4 0 0 1 0 14.8" fill="#fff9D"/><path d="M27.3 37.5a7.4 7.4 0 1 1 0-14.9 7.4 7.4 0 0 1 0 14.9" fill="#c2e1ff9E"/><path d="M28.1 38.1a7.4 7.4 0 1 1 0-14.9 7.4 7.4 0 0 1 0 14.9" fill="#fff9E"/><path d="M302.2-110.4a7.4 7.4 0 1 1 0-14.8 7.4 7.4 0 0 1 0 14.8" fill="#c2e1ff9E"/><path d="M145.1-357.4a7.4 7.4 0 1 1 0-14.9 7.4 7.4 0 0 1 0 14.9" fill="#c2e1ff9E"/><path d="M25.9-348.7a7.4 7.4 0 1 1 0-14.9 7.4 7.4 0 0 1 0 14.9" fill="#c2e1ff9E"/><path d="M33.8-351.7a7.4 7.4 0 1 1 0-14.9 7.4 7.4 0 0 1 0 14.9" fill="#fff9E"/><path d="M-102.2-202.1a7.4 7.4 0 1 1 0-14.9 7.4 7.4 0 0 1 0 14.9" fill="#fff9E"/><path d="M294.1-242.7a7.6 7.6 0 1 1 0-15.2 7.6 7.6 0 0 1 0 15.2" fill="#005bbbA1"/><path d="M-53.5-304a7.6 7.6 0 1 1 0-15.2 7.6 7.6 0 0 1 0 15.2" fill="#c2e1ffA2"/><path d="M227-327.6a7.6 7.6 0 1 1 0-15.2 7.6 7.6 0 0 1 0 15.2" fill="#005bbbA2"/><path d="M162.7 50.8a7.6 7.6 0 1 1 0-15.3 7.6 7.6 0 0 1 0 15.3" fill="#fff500A3"/><path d="M-113.9-129.2a7.6 7.6 0 1 1 0-15.2 7.6 7.6 0 0 1 0 15.2" fill="#fff500A3"/><path d="M-71.2-22.3a7.7 7.7 0 1 1 0-15.4 7.7 7.7 0 0 1 0 15.4" fill="#fff500A3"/><path d="M-117.5-156a7.7 7.7 0 1 1 0-15.4 7.7 7.7 0 0 1 0 15.4" fill="#c2e1ffA4"/><path d="M195.6-351.6a7.7 7.7 0 1 1 0-15.5 7.7 7.7 0 0 1 0 15.5" fill="#c2e1ffA5"/><path d="M295.8-56.5a7.8 7.8 0 1 1 0-15.6 7.8 7.8 0 0 1 0 15.6" fill="#005bbbA5"/><path d="M93.7 66.1a7.8 7.8 0 1 1 0-15.6 7.8 7.8 0 0 1 0 15.6" fill="#fff500A6"/><path d="M44.8-369.4a7.8 7.8 0 1 1 0-15.7 7.8 7.8 0 0 1 0 15.7" fill="#fffA7"/><path d="M319.8-121.2a7.9 7.9 0 1 1 0-15.7 7.9 7.9 0 0 1 0 15.7" fill="#005bbbA7"/><path d="M238.2 20.2a7.9 7.9 0 1 1 0-15.7 7.9 7.9 0 0 1 0 15.7" fill="#fff500A8"/><path d="M323.2-163.7a7.9 7.9 0 1 1 0-15.8 7.9 7.9 0 0 1 0 15.8" fill="#fffA8"/><path d="M-72-298.6a7.9 7.9 0 1 1 0-15.9 7.9 7.9 0 0 1 0 15.9" fill="#fffA9"/><path d="M317.1-96.1a8 8 0 1 1 0-15.9 8 8 0 0 1 0 15.9" fill="#fffAA"/><path d="M-5.5 44.9a8 8 0 1 1 0-15.9 8 8 0 0 1 0 15.9" fill="#fffAA"/><path d="M-124.3-128.3a8 8 0 1 1 0-16 8 8 0 0 1 0 16" fill="#c2e1ffAA"/><path d="M-28.5 31.7a8 8 0 1 1 0-16.1 8 8 0 0 1 0 16.1" fill="#005bbbAB"/><path d="M309.6-69.1a8 8 0 1 1 0-16.1 8 8 0 0 1 0 16.1" fill="#fff500AB"/><path d="M-109.9-239.3a8 8 0 1 1 0-16 8 8 0 0 1 0 16" fill="#c2e1ffAB"/><path d="M-60.9 6.6a8.1 8.1 0 1 1 0-16.1 8.1 8.1 0 0 1 0 16.1" fill="#fffAC"/><path d="M-6 49.3a8.2 8.2 0 1 1 0-16.3 8.2 8.2 0 0 1 0 16.3" fill="#fff500AE"/><path d="M159.7-376.3a8.2 8.2 0 1 1 0-16.4 8.2 8.2 0 0 1 0 16.4" fill="#c2e1ffAF"/><path d="M-126.7-197.3a8.2 8.2 0 1 1 0-16.5 8.2 8.2 0 0 1 0 16.5" fill="#c2e1ffB0"/><path d="M239.5-338.3a8.2 8.2 0 1 1 0-16.5 8.2 8.2 0 0 1 0 16.5" fill="#fffB0"/><path d="M223.1-349.7a8.2 8.2 0 1 1 0-16.5 8.2 8.2 0 0 1 0 16.5" fill="#fff500B0"/><path d="M-98.7-274.1a8.3 8.3 0 1 1 0-16.6 8.3 8.3 0 0 1 0 16.6" fill="#c2e1ffB1"/><path d="M-50-331.7a8.3 8.3 0 1 1 0-16.6 8.3 8.3 0 0 1 0 16.6" fill="#005bbbB2"/><path d="M-85.7-294.8a8.4 8.4 0 1 1 0-16.7 8.4 8.4 0 0 1 0 16.7" fill="#c2e1ffB3"/><path d="M236.2-343.4a8.4 8.4 0 1 1 0-16.8 8.4 8.4 0 0 1 0 16.8" fill="#c2e1ffB3"/><path d="M-22.8-352.6a8.4 8.4 0 1 1 0-16.8 8.4 8.4 0 0 1 0 16.8" fill="#fffB3"/><path d="M245.6 29.2a8.5 8.5 0 1 1 0-16.9 8.5 8.5 0 0 1 0 16.9" fill="#fffB5"/><path d="M297.6-279.9a8.5 8.5 0 1 1 0-16.9 8.5 8.5 0 0 1 0 16.9" fill="#005bbbB5"/><path d="M-129.9-202.6a8.6 8.6 0 1 1 0-17.1 8.6 8.6 0 0 1 0 17.1" fill="#fff500B7"/><path d="M-134.9-135.7a8.6 8.6 0 1 1 0-17.3 8.6 8.6 0 0 1 0 17.3" fill="#c2e1ffB9"/><path d="M279.3-306.8a8.7 8.7 0 1 1 0-17.3 8.7 8.7 0 0 1 0 17.3" fill="#fffB9"/><path d="M66.7 79.7a8.7 8.7 0 1 1 0-17.4 8.7 8.7 0 0 1 0 17.4" fill="#fffBA"/><path d="M291.6-15.7a8.8 8.8 0 1 1 0-17.5 8.8 8.8 0 0 1 0 17.5" fill="#c2e1ffBC"/><path d="M217.6 51.2a8.8 8.8 0 1 1 0-17.6 8.8 8.8 0 0 1 0 17.6" fill="#fff500BC"/><path d="M336.1-145a8.8 8.8 0 1 1 0-17.7 8.8 8.8 0 0 1 0 17.7" fill="#c2e1ffBD"/><path d="M336.2-155.5a8.8 8.8 0 1 1 0-17.7 8.8 8.8 0 0 1 0 17.7" fill="#005bbbBD"/><path d="M258.1 21.9a8.8 8.8 0 1 1 0-17.7 8.8 8.8 0 0 1 0 17.7" fill="#005bbbBD"/><path d="M-134-121.1a8.9 8.9 0 1 1 0-17.8 8.9 8.9 0 0 1 0 17.8" fill="#c2e1ffBD"/><path d="M-74.5-312.9a8.9 8.9 0 1 1 0-17.8 8.9 8.9 0 0 1 0 17.8" fill="#fffBE"/><path d="M-127.2-88.8a8.9 8.9 0 1 1 0-17.8 8.9 8.9 0 0 1 0 17.8" fill="#fff500BE"/><path d="M94-389.7a8.9 8.9 0 1 1 0-17.8 8.9 8.9 0 0 1 0 17.8" fill="#fff500BF"/><path d="M86.7-389.3a9 9 0 1 1 0-17.9 9 9 0 0 1 0 17.9" fill="#005bbbC0"/><path d="M94.5 82.5a9 9 0 1 1 0-18 9 9 0 0 1 0 18" fill="#fffC0"/><path d="M170.7 71.6a9 9 0 1 1 0-18 9 9 0 0 1 0 18" fill="#005bbbC1"/><path d="M-54.8-331.6a9 9 0 1 1 0-18 9 9 0 0 1 0 18" fill="#fff500C1"/><path d="M-54.9-331.3a9 9 0 1 1 0-18.1 9 9 0 0 1 0 18.1" fill="#005bbbC1"/><path d="M299.7-28a9 9 0 1 1 0-18.1 9 9 0 0 1 0 18.1" fill="#fffC1"/><path d="M117.4 81.7a9 9 0 1 1 0-18.1 9 9 0 0 1 0 18.1" fill="#fffC2"/><path d="M324.8-82.8a9.1 9.1 0 1 1 0-18.1 9.1 9.1 0 0 1 0 18.1" fill="#fffC2"/><path d="M-72.4 7.1a9.1 9.1 0 1 1 0-18.2 9.1 9.1 0 0 1 0 18.2" fill="#fffC3"/><path d="M-106.1-266.3a9.2 9.2 0 1 1 0-18.3 9.2 9.2 0 0 1 0 18.3" fill="#fffC4"/><path d="M199.1-366.4a9.2 9.2 0 1 1 0-18.3 9.2 9.2 0 0 1 0 18.3" fill="#fffC4"/><path d="M-128.7-100.2a9.2 9.2 0 1 1 0-18.3 9.2 9.2 0 0 1 0 18.3" fill="#fffC5"/><path d="M-115.7-61.2a9.2 9.2 0 1 1 0-18.4 9.2 9.2 0 0 1 0 18.4" fill="#005bbbC5"/><path d="M294.9-283.6a9.2 9.2 0 1 1 0-18.5 9.2 9.2 0 0 1 0 18.5" fill="#c2e1ffC5"/><path d="M155.7 72.9a9.4 9.4 0 1 1 0-18.7 9.4 9.4 0 0 1 0 18.7" fill="#005bbbC9"/><path d="M275.3-1a9.4 9.4 0 1 1 0-18.8 9.4 9.4 0 0 1 0 18.8" fill="#fff500CA"/><path d="M278.1-301.6a9.4 9.4 0 1 1 0-18.8 9.4 9.4 0 0 1 0 18.8" fill="#fff500CA"/><path d="M16.9 62.4a9.5 9.5 0 1 1 0-18.9 9.5 9.5 0 0 1 0 18.9" fill="#fff500CB"/><path d="M-5.5-357.3a9.5 9.5 0 1 1 0-19.1 9.5 9.5 0 0 1 0 19.1" fill="#fffCC"/><path d="M151.3-377.1a9.5 9.5 0 1 1 0-19.1 9.5 9.5 0 0 1 0 19.1" fill="#fff500CC"/><path d="M176.8-367.7a9.6 9.6 0 1 1 0-19.2 9.6 9.6 0 0 1 0 19.2" fill="#fffCE"/><path d="M326.2-128.2a9.7 9.7 0 1 1 0-19.3 9.7 9.7 0 0 1 0 19.3" fill="#005bbbCF"/><path d="M327.4-152.8a9.7 9.7 0 1 1 0-19.4 9.7 9.7 0 0 1 0 19.4" fill="#fffCF"/><path d="M321.8-200.3a9.7 9.7 0 1 1 0-19.3 9.7 9.7 0 0 1 0 19.3" fill="#fffD0"/><path d="M-95.5-261.3a9.8 9.8 0 1 1 0-19.6 9.8 9.8 0 0 1 0 19.6" fill="#fff500D2"/><path d="M-118.2-107.8a9.8 9.8 0 1 1 0-19.7 9.8 9.8 0 0 1 0 19.7" fill="#fffD3"/><path d="M80.9 68.2a9.9 9.9 0 1 1 0-19.8 9.9 9.9 0 0 1 0 19.8" fill="#c2e1ffD4"/><path d="M-85.6-33.5a9.9 9.9 0 1 1 0-19.8 9.9 9.9 0 0 1 0 19.8" fill="#005bbbD5"/><path d="M-50.3-312.2a10 10 0 1 1 0-20 10 10 0 0 1 0 20" fill="#c2e1ffD6"/><path d="M-116.3-186.2a10 10 0 1 1 0-19.9 10 10 0 0 1 0 19.9" fill="#c2e1ffD6"/><path d="M52.5-365.8a10 10 0 1 1 0-19.9 10 10 0 0 1 0 19.9" fill="#fff500D6"/><path d="M123.9 64.5a10 10 0 1 1 0-20 10 10 0 0 1 0 20" fill="#fffD6"/><path d="M164.1-360.2a10 10 0 1 1 0-20.1 10 10 0 0 1 0 20.1" fill="#fffD7"/><path d="M203.9-341.4a10.1 10.1 0 1 1 0-20.2 10.1 10.1 0 0 1 0 20.2" fill="#005bbbD8"/><path d="M296.3-241.7a10.1 10.1 0 1 1 0-20.1 10.1 10.1 0 0 1 0 20.1" fill="#fff500D8"/><path d="M160.1-359.1a10.1 10.1 0 1 1 0-20.2 10.1 10.1 0 0 1 0 20.2" fill="#fff500D8"/><path d="M-77.9-272.7a10.1 10.1 0 1 1 0-20.2 10.1 10.1 0 0 1 0 20.2" fill="#fffD9"/><path d="M302.6-217a10.1 10.1 0 1 1 0-20.3 10.1 10.1 0 0 1 0 20.3" fill="#fff500DA"/><path d="M38 50.1a10.2 10.2 0 1 1 0-20.4 10.2 10.2 0 0 1 0 20.4" fill="#fff500DA"/><path d="M-0.2-336.4a10.2 10.2 0 1 1 0-20.5 10.2 10.2 0 0 1 0 20.5" fill="#c2e1ffDB"/><path d="M269-274.8a10.2 10.2 0 1 1 0-20.5 10.2 10.2 0 0 1 0 20.5" fill="#fff500DC"/><path d="M-61.8-283.8a10.2 10.2 0 1 1 0-20.5 10.2 10.2 0 0 1 0 20.5" fill="#c2e1ffDC"/><path d="M-98.9-93a10.3 10.3 0 1 1 0-20.5 10.3 10.3 0 0 1 0 20.5" fill="#fffDD"/><path d="M282.6-249.1a10.3 10.3 0 1 1 0-20.6 10.3 10.3 0 0 1 0 20.6" fill="#fff500DD"/><path d="M-102-108.5a10.3 10.3 0 1 1 0-20.6 10.3 10.3 0 0 1 0 20.6" fill="#005bbbDD"/><path d="M261.4-23.3a10.3 10.3 0 1 1 0-20.5 10.3 10.3 0 0 1 0 20.5" fill="#fffDD"/><path d="M282.8-59.5a10.3 10.3 0 1 1 0-20.7 10.3 10.3 0 0 1 0 20.7" fill="#005bbbDE"/><path d="M250-291.8a10.3 10.3 0 1 1 0-20.6 10.3 10.3 0 0 1 0 20.6" fill="#c2e1ffDE"/><path d="M-2-328.1a10.4 10.4 0 1 1 0-20.7 10.4 10.4 0 0 1 0 20.7" fill="#c2e1ffDF"/><path d="M1.4 25a10.4 10.4 0 1 1 0-20.7 10.4 10.4 0 0 1 0 20.7" fill="#c2e1ffDF"/><path d="M202.9 20.7a10.4 10.4 0 1 1 0-20.8 10.4 10.4 0 0 1 0 20.8" fill="#c2e1ffE0"/><path d="M172.8-338.7a10.4 10.4 0 1 1 0-20.8 10.4 10.4 0 0 1 0 20.8" fill="#fffE0"/><path d="M-12.5-315.7a10.5 10.5 0 1 1 0-21 10.5 10.5 0 0 1 0 21" fill="#c2e1ffE1"/><path d="M163.5 36.1a10.5 10.5 0 1 1 0-20.9 10.5 10.5 0 0 1 0 20.9" fill="#c2e1ffE1"/><path d="M269.8-49.9a10.5 10.5 0 1 1 0-21 10.5 10.5 0 0 1 0 21" fill="#fff500E1"/><path d="M99.4 41.7a10.6 10.6 0 1 1 0-21.1 10.6 10.6 0 0 1 0 21.1" fill="#c2e1ffE3"/><path d="M113.2 40.9a10.6 10.6 0 1 1 0-21.1 10.6 10.6 0 0 1 0 21.1" fill="#fff500E3"/><path d="M92.9 41a10.6 10.6 0 1 1 0-21.1 10.6 10.6 0 0 1 0 21.1" fill="#fff500E3"/><path d="M197.2 12.6a10.6 10.6 0 1 1 0-21.2 10.6 10.6 0 0 1 0 21.2" fill="#fffE4"/><path d="M211.4-307.1a10.6 10.6 0 1 1 0-21.2 10.6 10.6 0 0 1 0 21.2" fill="#005bbbE4"/><path d="M279.8-114a10.7 10.7 0 1 1 0-21.5 10.7 10.7 0 0 1 0 21.5" fill="#fff500E6"/><path d="M-66.9-75.1a10.7 10.7 0 1 1 0-21.4 10.7 10.7 0 0 1 0 21.4" fill="#005bbbE6"/><path d="M-81-135.8a10.7 10.7 0 1 1 0-21.5 10.7 10.7 0 0 1 0 21.5" fill="#fffE7"/><path d="M187.7-310.8a10.7 10.7 0 1 1 0-21.5 10.7 10.7 0 0 1 0 21.5" fill="#fff500E7"/><path d="M267.8-202.1a10.8 10.8 0 1 1 0-21.7 10.8 10.8 0 0 1 0 21.7" fill="#005bbbE9"/><path d="M210.8-18.5a10.9 10.9 0 1 1 0-21.7 10.9 10.9 0 0 1 0 21.7" fill="#fffEA"/><path d="M197.1-293.7a10.9 10.9 0 1 1 0-21.8 10.9 10.9 0 0 1 0 21.8" fill="#c2e1ffEA"/><path d="M124.5 17.4a10.9 10.9 0 1 1 0-21.8 10.9 10.9 0 0 1 0 21.8" fill="#005bbbEA"/><path d="M-14.8-29.2a10.9 10.9 0 1 1 0-21.9 10.9 10.9 0 0 1 0 21.9" fill="#fffEB"/><path d="M1.1-287a10.9 10.9 0 1 1 0-21.8 10.9 10.9 0 0 1 0 21.8" fill="#005bbbEB"/><path d="M-59-196.9a11 11 0 1 1 0-21.9 11 11 0 0 1 0 21.9" fill="#c2e1ffEC"/><path d="M-30.8-56.6a11 11 0 1 1 0-22.1 11 11 0 0 1 0 22.1" fill="#fff500ED"/><path d="M31-8.2a11 11 0 1 1 0-22.1 11 11 0 0 1 0 22.1" fill="#005bbbEE"/><path d="M31.6-285.5a11.1 11.1 0 1 1 0-22.3 11.1 11.1 0 0 1 0 22.3" fill="#c2e1ffF0"/><path d="M-0.9-259.9a11.2 11.2 0 1 1 0-22.3 11.2 11.2 0 0 1 0 22.3" fill="#005bbbF0"/><path d="M222.8-230.6a11.2 11.2 0 1 1 0-22.4 11.2 11.2 0 0 1 0 22.4" fill="#fff500F1"/><path d="M-35.9-204a11.2 11.2 0 1 1 0-22.3 11.2 11.2 0 0 1 0 22.3" fill="#fff500F1"/><path d="M53.2-17.6a11.2 11.2 0 1 1 0-22.4 11.2 11.2 0 0 1 0 22.4" fill="#fff500F2"/><path d="M171.1-31.2a11.2 11.2 0 1 1 0-22.5 11.2 11.2 0 0 1 0 22.5" fill="#fffF2"/><path d="M208.2-197.3a11.4 11.4 0 1 1 0-22.9 11.4 11.4 0 0 1 0 22.9" fill="#c2e1ffF6"/><path d="M211.5-182.4a11.4 11.4 0 1 1 0-22.8 11.4 11.4 0 0 1 0 22.8" fill="#fffF6"/><path d="M39.4-249.3a11.4 11.4 0 1 1 0-22.9 11.4 11.4 0 0 1 0 22.9" fill="#fff500F6"/><path d="M83.8-255a11.5 11.5 0 1 1 0-23 11.5 11.5 0 0 1 0 23" fill="#fff500F8"/><path d="M77.6-251.7a11.5 11.5 0 1 1 0-23 11.5 11.5 0 0 1 0 23" fill="#fff500F8"/><path d="M21.7-96.4a11.6 11.6 0 1 1 0-23.1 11.6 11.6 0 0 1 0 23.1" fill="#fffF9"/><path d="M150.9-80.3a11.6 11.6 0 1 1 0-23.2 11.6 11.6 0 0 1 0 23.2" fill="#005bbbFA"/><path d="M53.3-77.8a11.6 11.6 0 1 1 0-23.2 11.6 11.6 0 0 1 0 23.2" fill="#005bbbFA"/><path d="M126.3-197.7a11.7 11.7 0 1 1 0-23.5 11.7 11.7 0 0 1 0 23.5" fill="#c2e1ffFD"/><path d="M59.3-124.1a11.7 11.7 0 1 1 0-23.5 11.7 11.7 0 0 1 0 23.5" fill="#fffFD"/><path d="M101.9-105.9a11.8 11.8 0 1 1 0-23.5 11.8 11.8 0 0 1 0 23.5" fill="#005bbbFD"/><path d="M133.8-154.8a11.8 11.8 0 1 1 0-23.5 11.8 11.8 0 0 1 0 23.5" fill="#005bbbFE"/><path d="M129.9-157.5a11.8 11.8 0 1 1 0-23.6 11.8 11.8 0 0 1 0 23.6" fill="#005bbbFE"/></g></svg>