<svg width="1200" height="675" viewBox="-500 -500 1200 675" xmlns="http://www.w3.org/2000/svg"><path d="M-500-500h1200v675h-1200z" fill="#000"/><style>.sparkles path{stroke-linecap:round; stroke-width:1}</style><g class="sparkles"><path d="M100-162.5l24.3-11.7" stroke="#fff50032"/><path d="M100-162.5l45 14.4" stroke="#c2e1ff33"/><path d="M100-162.5l42.7-29.9" stroke="#fff33"/><path d="M100-162.5l-23.7-63.1" stroke="#fff50034"/><path d="M100-162.5l54.6-52.8" stroke="#c2e1ff34"/><path d="M100-162.5l-16.1-80.3" stroke="#c2e1ff35"/><path d="M100-162.5l-75.2 43.1" stroke="#fff35"/><path d="M100-162.5l74.2 56.8" stroke="#005bbb36"/><path d="M100-162.5l-57.9 79.5" stroke="#c2e1ff36"/><path d="M100-162.5l73.4-66" stroke="#fff36"/><path d="M100-162.5l78.9-59.9" stroke="#fff36"/><path d="M100-162.5l100-19.6" stroke="#fff36"/><path d="M100-162.5l-26.7 102.2" stroke="#005bbb37"/><path d="M100-162.5l-105.8 14.2" stroke="#005bbb37"/><path d="M100-162.5l-55.7 103.4" stroke="#fff38"/><path d="M100-162.5l106.7 60.2" stroke="#005bbb39"/><path d="M100-162.5l-107.5-63.8" stroke="#c2e1ff39"/><path d="M100-162.5l54.4-114.4" stroke="#005bbb39"/><path d="M100-162.5l19-126.5" stroke="#fff39"/><path d="M100-162.5l-105.2 75.2" stroke="#c2e1ff3A"/><path d="M100-162.5l32.9 126.6" stroke="#005bbb3A"/><path d="M100-162.5l93.4-94.6" stroke="#c2e1ff3A"/><path d="M100-162.5l120.6-56.2" stroke="#c2e1ff3A"/><path d="M100-162.5l56.4-131.8" stroke="#005bbb3C"/><path d="M100-162.5l93.5 108.7" stroke="#c2e1ff3C"/><path d="M100-162.5l3.5 143.3" stroke="#005bbb3C"/><path d="M100-162.5l-142.4 31.6" stroke="#005bbb3C"/><path d="M100-162.5l2 147.5" stroke="#c2e1ff3C"/><path d="M100-162.5l96.9 111.6" stroke="#c2e1ff3C"/><path d="M100-162.5l-114.8 102.1" stroke="#fff5003E"/><path d="M100-162.5l-42.1 153.8" stroke="#005bbb3F"/><path d="M100-162.5l56.3-154.7" stroke="#fff50040"/><path d="M100-162.5l-162.9 36" stroke="#fff50040"/><path d="M100-162.5l25.7 171.2" stroke="#c2e1ff41"/><path d="M100-162.5l-46.7-168.1" stroke="#c2e1ff42"/><path d="M100-162.5l62.1-173" stroke="#c2e1ff44"/><path d="M100-162.5l181-41.8" stroke="#fff45"/><path d="M100-162.5l181.9-47" stroke="#fff50045"/><path d="M100-162.5l-3.2 192.1" stroke="#c2e1ff46"/><path d="M100-162.5l170.4-91.3" stroke="#fff47"/><path d="M100-162.5l157.8-113.5" stroke="#c2e1ff47"/><path d="M100-162.5l145.6 131.1" stroke="#fff48"/><path d="M100-162.5l81.9 182.2" stroke="#fff50049"/><path d="M100-162.5l-169.1-106.5" stroke="#005bbb49"/><path d="M100-162.5l-58.4-192.3" stroke="#fff50049"/><path d="M100-162.5l95.9-176.7" stroke="#c2e1ff49"/><path d="M100-162.5l-163.8-120.1" stroke="#fff5004A"/><path d="M100-162.5l72.2-192.2" stroke="#fff4B"/><path d="M100-162.5l-193.7 70.3" stroke="#c2e1ff4B"/><path d="M100-162.5l-15.4-207.1" stroke="#fff4C"/><path d="M100-162.5l-203.5-53.2" stroke="#c2e1ff4D"/><path d="M100-162.5l123.4-171.5" stroke="#005bbb4D"/><path d="M100-162.5l206.7-56.5" stroke="#fff5004E"/><path d="M100-162.5l94.9 192.8" stroke="#c2e1ff4F"/><path d="M100-162.5l17.2-214.8" stroke="#fff4F"/><path d="M100-162.5l-29.9-215.3" stroke="#fff50050"/><path d="M100-162.5l-50-213.1" stroke="#fff51"/><path d="M100-162.5l-111.3 191.6" stroke="#fff50052"/><path d="M100-162.5l155-158.6" stroke="#005bbb52"/><path d="M100-162.5l-223.3-7.2" stroke="#005bbb53"/><path d="M100-162.5l104.3-198" stroke="#c2e1ff53"/><path d="M100-162.5l213.8-66.6" stroke="#fff54"/><path d="M100-162.5l127.7 184.3" stroke="#fff50054"/><path d="M100-162.5l167.8 149.1" stroke="#fff50054"/><path d="M100-162.5l-223.6 31.9" stroke="#c2e1ff55"/><path d="M100-162.5l-205.1 95.6" stroke="#005bbb55"/><path d="M100-162.5l66.6 217.3" stroke="#c2e1ff56"/><path d="M100-162.5l52.7-223.5" stroke="#c2e1ff58"/><path d="M100-162.5l23-230.9" stroke="#c2e1ff5A"/><path d="M100-162.5l215.9-85.8" stroke="#c2e1ff5A"/><path d="M100-162.5l-232.9 5.5" stroke="#005bbb5B"/><path d="M100-162.5l-23-233.5" stroke="#fff5005E"/><path d="M100-162.5l1.3-235.1" stroke="#fff5005F"/><path d="M100-162.5l145.6-185.1" stroke="#005bbb60"/><path d="M100-162.5l-29.1-234.1" stroke="#c2e1ff61"/><path d="M100-162.5l128.1-198.1" stroke="#005bbb61"/><path d="M100-162.5l-111.2-208.3" stroke="#c2e1ff62"/><path d="M100-162.5l43.4-232.2" stroke="#fff62"/><path d="M100-162.5l-232.4-42.2" stroke="#005bbb63"/><path d="M100-162.5l-236.2 0.9" stroke="#fff50063"/><path d="M100-162.5l-149 183.3" stroke="#fff50063"/><path d="M100-162.5l-234.4 29.5" stroke="#fff50063"/><path d="M100-162.5l112.7 207.6" stroke="#005bbb64"/><path d="M100-162.5l122-202.3" stroke="#fff64"/><path d="M100-162.5l218.9 88.6" stroke="#fff50065"/><path d="M100-162.5l-167.1 166.7" stroke="#fff66"/><path d="M100-162.5l43.2 231.9" stroke="#fff50066"/><path d="M100-162.5l235.1-18.6" stroke="#fff66"/><path d="M100-162.5l-233.7 31.5" stroke="#fff66"/><path d="M100-162.5l-1.7-235.6" stroke="#005bbb67"/><path d="M100-162.5l-123.5 200.6" stroke="#005bbb67"/><path d="M100-162.5l216.1-93.7" stroke="#fff67"/><path d="M100-162.5l181.9-148.6" stroke="#005bbb69"/><path d="M100-162.5l-191.9-134.3" stroke="#005bbb6A"/><path d="M100-162.5l232-24.6" stroke="#fff5006B"/><path d="M100-162.5l203.4-114.3" stroke="#c2e1ff6B"/><path d="M100-162.5l-150.9 177.4" stroke="#fff6C"/><path d="M100-162.5l-25.5-231.2" stroke="#c2e1ff6C"/><path d="M100-162.5l-166.5-161" stroke="#005bbb6D"/><path d="M100-162.5l230.7-9.9" stroke="#fff6E"/><path d="M100-162.5l-226-42" stroke="#fff6F"/><path d="M100-162.5l-20.3 227.7" stroke="#fff50070"/><path d="M100-162.5l-139.3-180.5" stroke="#005bbb71"/><path d="M100-162.5l227.4 0" stroke="#c2e1ff71"/><path d="M100-162.5l-55.9 220.3" stroke="#c2e1ff71"/><path d="M100-162.5l199.3-107.7" stroke="#c2e1ff72"/><path d="M100-162.5l-20.6-223.7" stroke="#005bbb73"/><path d="M100-162.5l-167.5 148.1" stroke="#fff50074"/><path d="M100-162.5l175.3-138.6" stroke="#c2e1ff74"/><path d="M100-162.5l-186.4-120.1" stroke="#fff50075"/><path d="M100-162.5l31.2-219.3" stroke="#fff75"/><path d="M100-162.5l18-220.7" stroke="#fff50075"/><path d="M100-162.5l-164.9-147.1" stroke="#fff75"/><path d="M100-162.5l54.4-213.3" stroke="#005bbb76"/><path d="M100-162.5l-212.5 49.9" stroke="#fff50077"/><path d="M100-162.5l119.5 182.4" stroke="#c2e1ff77"/><path d="M100-162.5l-29.3-214.6" stroke="#c2e1ff77"/><path d="M100-162.5l159.1-146.8" stroke="#fff78"/><path d="M100-162.5l172.2-129.3" stroke="#fff78"/><path d="M100-162.5l85.1-197" stroke="#fff50078"/><path d="M100-162.5l-180.6-108.4" stroke="#fff5007A"/><path d="M100-162.5l130.2 164.3" stroke="#fff7B"/><path d="M100-162.5l173-118.4" stroke="#005bbb7B"/><path d="M100-162.5l-89-189.5" stroke="#005bbb7B"/><path d="M100-162.5l-155.8 139.7" stroke="#fff5007B"/><path d="M100-162.5l65.5-198.4" stroke="#005bbb7B"/><path d="M100-162.5l188.9-88.3" stroke="#fff7B"/><path d="M100-162.5l-200.3 54.6" stroke="#c2e1ff7B"/><path d="M100-162.5l-123.8 165.4" stroke="#fff7C"/><path d="M100-162.5l-173-111.9" stroke="#c2e1ff7C"/><path d="M100-162.5l-43-198.8" stroke="#005bbb7D"/><path d="M100-162.5l76.3-188.3" stroke="#005bbb7D"/><path d="M100-162.5l199 32.3" stroke="#fff5007E"/><path d="M100-162.5l27.3-199.6" stroke="#005bbb7E"/><path d="M100-162.5l-175.5-94.4" stroke="#fff7E"/><path d="M100-162.5l180.9-82.7" stroke="#fff7E"/><path d="M100-162.5l-93.5 173.3" stroke="#fff7F"/><path d="M100-162.5l194.6-10.8" stroke="#c2e1ff80"/><path d="M100-162.5l92.1-171.4" stroke="#005bbb80"/><path d="M100-162.5l-149.4-123.4" stroke="#fff80"/><path d="M100-162.5l-62.8-183.3" stroke="#005bbb80"/><path d="M100-162.5l-76.9 176.7" stroke="#005bbb80"/><path d="M100-162.5l-176.4-74.5" stroke="#fff81"/><path d="M100-162.5l-156-109.7" stroke="#005bbb81"/><path d="M100-162.5l-58.6-181.4" stroke="#c2e1ff81"/><path d="M100-162.5l181.7-57.1" stroke="#fff50081"/><path d="M100-162.5l151.7 104.5" stroke="#005bbb83"/><path d="M100-162.5l-141.5 114.4" stroke="#fff50083"/><path d="M100-162.5l143.3-107.3" stroke="#005bbb84"/><path d="M100-162.5l164.6 64.1" stroke="#fff50085"/><path d="M100-162.5l152.2-83.7" stroke="#005bbb85"/><path d="M100-162.5l138.5 104.3" stroke="#fff50085"/><path d="M100-162.5l47.1 164.1" stroke="#fff86"/><path d="M100-162.5l-159.1-55.3" stroke="#fff87"/><path d="M100-162.5l19.9 164.4" stroke="#005bbb87"/><path d="M100-162.5l155.8-52" stroke="#fff87"/><path d="M100-162.5l51.8 151.8" stroke="#c2e1ff88"/><path d="M100-162.5l-140.9 74.1" stroke="#c2e1ff88"/><path d="M100-162.5l-119-102.6" stroke="#fff50089"/><path d="M100-162.5l-148.9-36.4" stroke="#fff5008A"/><path d="M100-162.5l-93.3 117.7" stroke="#fff8A"/><path d="M100-162.5l81.1 125.8" stroke="#fff5008A"/><path d="M100-162.5l-36.5 144.4" stroke="#c2e1ff8A"/><path d="M100-162.5l144.2 9.2" stroke="#005bbb8B"/><path d="M100-162.5l-125.6-70.1" stroke="#fff5008B"/><path d="M100-162.5l141.1 26.8" stroke="#fff8B"/><path d="M100-162.5l-3.9 143" stroke="#fff5008B"/><path d="M100-162.5l-115.2-73.5" stroke="#fff5008C"/><path d="M100-162.5l-34.8 122" stroke="#005bbb8E"/><path d="M100-162.5l55-104.2" stroke="#fff8F"/><path d="M100-162.5l114.3 6.7" stroke="#c2e1ff8F"/><path d="M100-162.5l-45.5 99.5" stroke="#c2e1ff90"/><path d="M100-162.5l-12.5 106.7" stroke="#005bbb90"/><path d="M100-162.5l-93-13.3" stroke="#fff91"/><path d="M100-162.5l66.4 66.1" stroke="#fff91"/><path d="M100-162.5l87.5-2.9" stroke="#c2e1ff92"/><path d="M100-162.5l73.6-21.7" stroke="#005bbb93"/><path d="M100-162.5l40.9 64.7" stroke="#fff50093"/><path d="M100-162.5l-65.3 35.5" stroke="#c2e1ff93"/><path d="M100-162.5l62.7-2.6" stroke="#fff50094"/><path d="M100-162.5l-40 5.9" stroke="#fff50095"/></g><g class="sparcs"><path d="M124.3-168.3a5.9 5.9 0 1 1 0-11.9 5.9 5.9 0 0 1 0 11.9" fill="#c2e1ff7D"/><path d="M145-142.1a6 6 0 1 1 0-11.9 6 6 0 0 1 0 11.9" fill="#fff5007E"/><path d="M142.7-186.4a6 6 0 1 1 0-12 6 6 0 0 1 0 12" fill="#fff7E"/><path d="M76.3-219.6a6 6 0 1 1 0-12 6 6 0 0 1 0 12" fill="#005bbb7F"/><path d="M154.6-209.2a6.1 6.1 0 1 1 0-12.1 6.1 6.1 0 0 1 0 12.1" fill="#c2e1ff80"/><path d="M83.9-236.7a6.1 6.1 0 1 1 0-12.1 6.1 6.1 0 0 1 0 12.1" fill="#c2e1ff81"/><path d="M24.8-113.3a6.1 6.1 0 1 1 0-12.2 6.1 6.1 0 0 1 0 12.2" fill="#005bbb81"/><path d="M174.2-99.6a6.1 6.1 0 1 1 0-12.3 6.1 6.1 0 0 1 0 12.3" fill="#fff82"/><path d="M42.1-76.8a6.2 6.2 0 1 1 0-12.3 6.2 6.2 0 0 1 0 12.3" fill="#fff82"/><path d="M173.4-222.3a6.2 6.2 0 1 1 0-12.4 6.2 6.2 0 0 1 0 12.4" fill="#fff82"/><path d="M178.9-216.2a6.2 6.2 0 1 1 0-12.4 6.2 6.2 0 0 1 0 12.4" fill="#fff50082"/><path d="M200-175.9a6.2 6.2 0 1 1 0-12.4 6.2 6.2 0 0 1 0 12.4" fill="#005bbb83"/><path d="M73.3-54.1a6.2 6.2 0 1 1 0-12.4 6.2 6.2 0 0 1 0 12.4" fill="#fff50083"/><path d="M-5.8-142.1a6.2 6.2 0 1 1 0-12.5 6.2 6.2 0 0 1 0 12.5" fill="#fff84"/><path d="M44.3-52.8a6.3 6.3 0 1 1 0-12.5 6.3 6.3 0 0 1 0 12.5" fill="#fff85"/><path d="M206.7-96a6.3 6.3 0 1 1 0-12.7 6.3 6.3 0 0 1 0 12.7" fill="#005bbb86"/><path d="M-7.5-220a6.4 6.4 0 1 1 0-12.7 6.4 6.4 0 0 1 0 12.7" fill="#c2e1ff86"/><path d="M154.4-270.5a6.4 6.4 0 1 1 0-12.8 6.4 6.4 0 0 1 0 12.8" fill="#c2e1ff87"/><path d="M119-282.6a6.4 6.4 0 1 1 0-12.8 6.4 6.4 0 0 1 0 12.8" fill="#fff50087"/><path d="M-5.2-80.9a6.4 6.4 0 1 1 0-12.8 6.4 6.4 0 0 1 0 12.8" fill="#005bbb87"/><path d="M132.9-29.6a6.4 6.4 0 1 1 0-12.7 6.4 6.4 0 0 1 0 12.7" fill="#005bbb87"/><path d="M193.4-250.7a6.4 6.4 0 1 1 0-12.8 6.4 6.4 0 0 1 0 12.8" fill="#c2e1ff88"/><path d="M220.6-212.3a6.4 6.4 0 1 1 0-12.9 6.4 6.4 0 0 1 0 12.9" fill="#c2e1ff88"/><path d="M156.4-287.8a6.5 6.5 0 1 1 0-13 6.5 6.5 0 0 1 0 13" fill="#fff8A"/><path d="M193.5-47.3a6.5 6.5 0 1 1 0-13 6.5 6.5 0 0 1 0 13" fill="#fff8A"/><path d="M103.5-12.6a6.5 6.5 0 1 1 0-13.1 6.5 6.5 0 0 1 0 13.1" fill="#c2e1ff8A"/><path d="M-42.4-124.4a6.5 6.5 0 1 1 0-13.1 6.5 6.5 0 0 1 0 13.1" fill="#fff5008A"/><path d="M102-8.5a6.6 6.6 0 1 1 0-13.1 6.6 6.6 0 0 1 0 13.1" fill="#fff8B"/><path d="M196.9-44.3a6.6 6.6 0 1 1 0-13.2 6.6 6.6 0 0 1 0 13.2" fill="#fff5008B"/><path d="M-14.8-53.8a6.6 6.6 0 1 1 0-13.2 6.6 6.6 0 0 1 0 13.2" fill="#005bbb8C"/><path d="M57.9-2a6.7 6.7 0 1 1 0-13.4 6.7 6.7 0 0 1 0 13.4" fill="#fff8E"/><path d="M156.3-310.5a6.7 6.7 0 1 1 0-13.4 6.7 6.7 0 0 1 0 13.4" fill="#fff8F"/><path d="M-62.9-119.7a6.8 6.8 0 1 1 0-13.5 6.8 6.8 0 0 1 0 13.5" fill="#005bbb8F"/><path d="M125.7 15.5a6.8 6.8 0 1 1 0-13.7 6.8 6.8 0 0 1 0 13.7" fill="#c2e1ff91"/><path d="M53.3-323.7a6.9 6.9 0 1 1 0-13.8 6.9 6.9 0 0 1 0 13.8" fill="#fff50092"/><path d="M162.1-328.5a7 7 0 1 1 0-14 7 7 0 0 1 0 14" fill="#005bbb95"/><path d="M281-197.2a7 7 0 1 1 0-14.1 7 7 0 0 1 0 14.1" fill="#fff95"/><path d="M281.9-202.5a7.1 7.1 0 1 1 0-14.1 7.1 7.1 0 0 1 0 14.1" fill="#c2e1ff96"/><path d="M96.8 36.8a7.1 7.1 0 1 1 0-14.3 7.1 7.1 0 0 1 0 14.3" fill="#fff98"/><path d="M270.4-246.6a7.2 7.2 0 1 1 0-14.4 7.2 7.2 0 0 1 0 14.4" fill="#fff98"/><path d="M257.8-268.9a7.2 7.2 0 1 1 0-14.3 7.2 7.2 0 0 1 0 14.3" fill="#fff50099"/><path d="M245.6-24.2a7.2 7.2 0 1 1 0-14.4 7.2 7.2 0 0 1 0 14.4" fill="#fff99"/><path d="M181.9 26.9a7.3 7.3 0 1 1 0-14.5 7.3 7.3 0 0 1 0 14.5" fill="#fff9B"/><path d="M-69.1-261.7a7.3 7.3 0 1 1 0-14.6 7.3 7.3 0 0 1 0 14.6" fill="#005bbb9B"/><path d="M41.6-347.4a7.3 7.3 0 1 1 0-14.7 7.3 7.3 0 0 1 0 14.7" fill="#fff9B"/><path d="M195.9-331.9a7.3 7.3 0 1 1 0-14.6 7.3 7.3 0 0 1 0 14.6" fill="#fff9B"/><path d="M-63.8-275.3a7.4 7.4 0 1 1 0-14.7 7.4 7.4 0 0 1 0 14.7" fill="#005bbb9C"/><path d="M172.2-347.3a7.4 7.4 0 1 1 0-14.8 7.4 7.4 0 0 1 0 14.8" fill="#fff5009D"/><path d="M-93.7-84.8a7.4 7.4 0 1 1 0-14.8 7.4 7.4 0 0 1 0 14.8" fill="#005bbb9E"/><path d="M84.6-362.1a7.5 7.5 0 1 1 0-15 7.5 7.5 0 0 1 0 15" fill="#005bbb9F"/><path d="M-103.5-208.2a7.5 7.5 0 1 1 0-15 7.5 7.5 0 0 1 0 15" fill="#fff500A0"/><path d="M223.4-326.4a7.5 7.5 0 1 1 0-15.1 7.5 7.5 0 0 1 0 15.1" fill="#fffA0"/><path d="M306.7-211.3a7.6 7.6 0 1 1 0-15.3 7.6 7.6 0 0 1 0 15.3" fill="#c2e1ffA2"/><path d="M194.9 38a7.6 7.6 0 1 1 0-15.3 7.6 7.6 0 0 1 0 15.3" fill="#fff500A3"/><path d="M117.2-369.7a7.6 7.6 0 1 1 0-15.2 7.6 7.6 0 0 1 0 15.2" fill="#fff500A3"/><path d="M70.1-370.1a7.7 7.7 0 1 1 0-15.4 7.7 7.7 0 0 1 0 15.4" fill="#fff500A4"/><path d="M50-367.8a7.7 7.7 0 1 1 0-15.5 7.7 7.7 0 0 1 0 15.5" fill="#c2e1ffA5"/><path d="M-11.3 37a7.8 7.8 0 1 1 0-15.7 7.8 7.8 0 0 1 0 15.7" fill="#c2e1ffA7"/><path d="M255-313.3a7.8 7.8 0 1 1 0-15.6 7.8 7.8 0 0 1 0 15.6" fill="#fffA7"/><path d="M-123.3-161.8a7.9 7.9 0 1 1 0-15.8 7.9 7.9 0 0 1 0 15.8" fill="#005bbbA8"/><path d="M204.3-352.6a7.9 7.9 0 1 1 0-15.8 7.9 7.9 0 0 1 0 15.8" fill="#fffA9"/><path d="M313.8-221.2a7.9 7.9 0 1 1 0-15.8 7.9 7.9 0 0 1 0 15.8" fill="#005bbbA9"/><path d="M227.7 29.7a7.9 7.9 0 1 1 0-15.9 7.9 7.9 0 0 1 0 15.9" fill="#fffA9"/><path d="M267.8-5.4a7.9 7.9 0 1 1 0-15.9 7.9 7.9 0 0 1 0 15.9" fill="#fff500A9"/><path d="M-123.6-122.6a8 8 0 1 1 0-16 8 8 0 0 1 0 16" fill="#c2e1ffAA"/><path d="M-105.1-58.9a8 8 0 1 1 0-16 8 8 0 0 1 0 16" fill="#005bbbAB"/><path d="M166.6 62.9a8.1 8.1 0 1 1 0-16.1 8.1 8.1 0 0 1 0 16.1" fill="#fffAC"/><path d="M152.7-377.9a8.2 8.2 0 1 1 0-16.3 8.2 8.2 0 0 1 0 16.3" fill="#005bbbAE"/><path d="M123-385.1a8.3 8.3 0 1 1 0-16.6 8.3 8.3 0 0 1 0 16.6" fill="#fff500B1"/><path d="M315.9-240a8.3 8.3 0 1 1 0-16.6 8.3 8.3 0 0 1 0 16.6" fill="#fffB2"/><path d="M-132.9-148.6a8.4 8.4 0 1 1 0-16.8 8.4 8.4 0 0 1 0 16.8" fill="#c2e1ffB3"/><path d="M77-387.4a8.5 8.5 0 1 1 0-17.1 8.5 8.5 0 0 1 0 17.1" fill="#c2e1ffB6"/><path d="M101.3-389a8.6 8.6 0 1 1 0-17.2 8.6 8.6 0 0 1 0 17.2" fill="#fff500B7"/><path d="M245.6-339a8.6 8.6 0 1 1 0-17.2 8.6 8.6 0 0 1 0 17.2" fill="#005bbbB8"/><path d="M70.9-387.9a8.7 8.7 0 1 1 0-17.4 8.7 8.7 0 0 1 0 17.4" fill="#fffBA"/><path d="M228.1-351.9a8.7 8.7 0 1 1 0-17.4 8.7 8.7 0 0 1 0 17.4" fill="#c2e1ffBA"/><path d="M-11.2-362a8.8 8.8 0 1 1 0-17.6 8.8 8.8 0 0 1 0 17.6" fill="#005bbbBC"/><path d="M143.4-385.9a8.8 8.8 0 1 1 0-17.6 8.8 8.8 0 0 1 0 17.6" fill="#fff500BC"/><path d="M-132.4-195.9a8.8 8.8 0 1 1 0-17.6 8.8 8.8 0 0 1 0 17.6" fill="#c2e1ffBC"/><path d="M-136.2-152.8a8.8 8.8 0 1 1 0-17.7 8.8 8.8 0 0 1 0 17.7" fill="#005bbbBD"/><path d="M-49 29.7a8.9 8.9 0 1 1 0-17.7 8.9 8.9 0 0 1 0 17.7" fill="#005bbbBD"/><path d="M-134.4-124.2a8.9 8.9 0 1 1 0-17.7 8.9 8.9 0 0 1 0 17.7" fill="#c2e1ffBD"/><path d="M212.7 54a8.9 8.9 0 1 1 0-17.7 8.9 8.9 0 0 1 0 17.7" fill="#c2e1ffBE"/><path d="M222-355.9a8.9 8.9 0 1 1 0-17.8 8.9 8.9 0 0 1 0 17.8" fill="#005bbbBE"/><path d="M318.9-65a8.9 8.9 0 1 1 0-17.9 8.9 8.9 0 0 1 0 17.9" fill="#fff500BF"/><path d="M-67.1 13.2a9 9 0 1 1 0-18 9 9 0 0 1 0 18" fill="#005bbbC0"/><path d="M143.2 78.5a9 9 0 1 1 0-18.1 9 9 0 0 1 0 18.1" fill="#fffC1"/><path d="M335.1-172.1a9 9 0 1 1 0-18 9 9 0 0 1 0 18" fill="#c2e1ffC1"/><path d="M-133.7-121.9a9 9 0 1 1 0-18.1 9 9 0 0 1 0 18.1" fill="#005bbbC1"/><path d="M98.3-389a9.1 9.1 0 1 1 0-18.2 9.1 9.1 0 0 1 0 18.2" fill="#005bbbC2"/><path d="M-23.5 47.1a9.1 9.1 0 1 1 0-18.1 9.1 9.1 0 0 1 0 18.1" fill="#fffC3"/><path d="M316.1-247.2a9.1 9.1 0 1 1 0-18.1 9.1 9.1 0 0 1 0 18.1" fill="#fffC3"/><path d="M281.9-301.9a9.2 9.2 0 1 1 0-18.3 9.2 9.2 0 0 1 0 18.3" fill="#005bbbC5"/><path d="M-91.9-287.5a9.2 9.2 0 1 1 0-18.5 9.2 9.2 0 0 1 0 18.5" fill="#fff500C6"/><path d="M332-177.8a9.3 9.3 0 1 1 0-18.6 9.3 9.3 0 0 1 0 18.6" fill="#005bbbC8"/><path d="M303.4-267.4a9.3 9.3 0 1 1 0-18.7 9.3 9.3 0 0 1 0 18.7" fill="#fffC8"/><path d="M-50.9 24.2a9.4 9.4 0 1 1 0-18.7 9.4 9.4 0 0 1 0 18.7" fill="#fffC9"/><path d="M74.5-384.3a9.4 9.4 0 1 1 0-18.8 9.4 9.4 0 0 1 0 18.8" fill="#005bbbC9"/><path d="M-66.5-314.1a9.4 9.4 0 1 1 0-18.9 9.4 9.4 0 0 1 0 18.9" fill="#fff500CA"/><path d="M330.7-162.9a9.5 9.5 0 1 1 0-19 9.5 9.5 0 0 1 0 19" fill="#005bbbCB"/><path d="M-126-194.9a9.5 9.5 0 1 1 0-19.1 9.5 9.5 0 0 1 0 19.1" fill="#fff500CC"/><path d="M79.7 74.8a9.6 9.6 0 1 1 0-19.2 9.6 9.6 0 0 1 0 19.2" fill="#fffCE"/><path d="M-39.3-333.4a9.6 9.6 0 1 1 0-19.2 9.6 9.6 0 0 1 0 19.2" fill="#c2e1ffCF"/><path d="M327.4-152.8a9.7 9.7 0 1 1 0-19.4 9.7 9.7 0 0 1 0 19.4" fill="#fffCF"/><path d="M44.1 67.4a9.7 9.7 0 1 1 0-19.3 9.7 9.7 0 0 1 0 19.3" fill="#fff500CF"/><path d="M299.3-260.5a9.7 9.7 0 1 1 0-19.4 9.7 9.7 0 0 1 0 19.4" fill="#005bbbD0"/><path d="M79.4-376.4a9.8 9.8 0 1 1 0-19.6 9.8 9.8 0 0 1 0 19.6" fill="#fff500D2"/><path d="M-67.5-4.6a9.8 9.8 0 1 1 0-19.6 9.8 9.8 0 0 1 0 19.6" fill="#fffD2"/><path d="M275.3-291.3a9.8 9.8 0 1 1 0-19.7 9.8 9.8 0 0 1 0 19.7" fill="#fffD3"/><path d="M-86.4-272.7a9.9 9.9 0 1 1 0-19.8 9.9 9.9 0 0 1 0 19.8" fill="#c2e1ffD4"/><path d="M131.2-371.9a9.9 9.9 0 1 1 0-19.8 9.9 9.9 0 0 1 0 19.8" fill="#fff500D4"/><path d="M118-373.3a9.9 9.9 0 1 1 0-19.8 9.9 9.9 0 0 1 0 19.8" fill="#fffD4"/><path d="M-64.9-299.7a9.9 9.9 0 1 1 0-19.8 9.9 9.9 0 0 1 0 19.8" fill="#c2e1ffD4"/><path d="M154.4-365.9a9.9 9.9 0 1 1 0-19.8 9.9 9.9 0 0 1 0 19.8" fill="#fffD5"/><path d="M-112.5-102.6a10 10 0 1 1 0-20 10 10 0 0 1 0 20" fill="#005bbbD6"/><path d="M219.5 29.9a10 10 0 1 1 0-20 10 10 0 0 1 0 20" fill="#c2e1ffD7"/><path d="M70.7-367.1a10 10 0 1 1 0-20.1 10 10 0 0 1 0 20.1" fill="#005bbbD7"/><path d="M259.1-299.3a10 10 0 1 1 0-20 10 10 0 0 1 0 20" fill="#fff500D8"/><path d="M272.2-281.7a10.1 10.1 0 1 1 0-20.1 10.1 10.1 0 0 1 0 20.1" fill="#005bbbD8"/><path d="M185.1-349.4a10.1 10.1 0 1 1 0-20.2 10.1 10.1 0 0 1 0 20.2" fill="#c2e1ffD9"/><path d="M-80.6-260.7a10.2 10.2 0 1 1 0-20.4 10.2 10.2 0 0 1 0 20.4" fill="#fff500DB"/><path d="M230.2 12.1a10.2 10.2 0 1 1 0-20.5 10.2 10.2 0 0 1 0 20.5" fill="#c2e1ffDB"/><path d="M273-270.7a10.2 10.2 0 1 1 0-20.4 10.2 10.2 0 0 1 0 20.4" fill="#c2e1ffDB"/><path d="M11-341.8a10.2 10.2 0 1 1 0-20.5 10.2 10.2 0 0 1 0 20.5" fill="#005bbbDC"/><path d="M-55.8-12.5a10.2 10.2 0 1 1 0-20.5 10.2 10.2 0 0 1 0 20.5" fill="#fff500DC"/><path d="M165.5-350.6a10.2 10.2 0 1 1 0-20.5 10.2 10.2 0 0 1 0 20.5" fill="#005bbbDC"/><path d="M288.9-240.6a10.2 10.2 0 1 1 0-20.5 10.2 10.2 0 0 1 0 20.5" fill="#c2e1ffDC"/><path d="M-100.3-97.6a10.3 10.3 0 1 1 0-20.6 10.3 10.3 0 0 1 0 20.6" fill="#c2e1ffDD"/><path d="M-23.8 13.2a10.3 10.3 0 1 1 0-20.6 10.3 10.3 0 0 1 0 20.6" fill="#fff500DD"/><path d="M-73-264.1a10.3 10.3 0 1 1 0-20.6 10.3 10.3 0 0 1 0 20.6" fill="#fffDD"/><path d="M57-350.9a10.4 10.4 0 1 1 0-20.7 10.4 10.4 0 0 1 0 20.7" fill="#c2e1ffDF"/><path d="M176.3-340.4a10.4 10.4 0 1 1 0-20.8 10.4 10.4 0 0 1 0 20.8" fill="#fffDF"/><path d="M299-119.8a10.4 10.4 0 1 1 0-20.8 10.4 10.4 0 0 1 0 20.8" fill="#005bbbDF"/><path d="M127.3-351.7a10.4 10.4 0 1 1 0-20.8 10.4 10.4 0 0 1 0 20.8" fill="#005bbbDF"/><path d="M-75.5-246.5a10.4 10.4 0 1 1 0-20.9 10.4 10.4 0 0 1 0 20.9" fill="#fffE0"/><path d="M280.9-234.7a10.5 10.5 0 1 1 0-20.9 10.5 10.5 0 0 1 0 20.9" fill="#c2e1ffE1"/><path d="M6.5 21.3a10.5 10.5 0 1 1 0-21 10.5 10.5 0 0 1 0 21" fill="#005bbbE1"/><path d="M294.6-162.8a10.5 10.5 0 1 1 0-21.1 10.5 10.5 0 0 1 0 21.1" fill="#c2e1ffE2"/><path d="M192.1-323.4a10.5 10.5 0 1 1 0-21 10.5 10.5 0 0 1 0 21" fill="#fffE2"/><path d="M-49.4-275.3a10.5 10.5 0 1 1 0-21.1 10.5 10.5 0 0 1 0 21.1" fill="#fffE3"/><path d="M37.2-335.2a10.6 10.6 0 1 1 0-21.1 10.6 10.6 0 0 1 0 21.1" fill="#fff500E3"/><path d="M23.1 24.8a10.6 10.6 0 1 1 0-21.1 10.6 10.6 0 0 1 0 21.1" fill="#fff500E3"/><path d="M-76.4-226.4a10.6 10.6 0 1 1 0-21.2 10.6 10.6 0 0 1 0 21.2" fill="#fff500E4"/><path d="M-56-261.6a10.6 10.6 0 1 1 0-21.2 10.6 10.6 0 0 1 0 21.2" fill="#c2e1ffE4"/><path d="M41.4-333.3a10.6 10.6 0 1 1 0-21.2 10.6 10.6 0 0 1 0 21.2" fill="#c2e1ffE4"/><path d="M281.7-209a10.6 10.6 0 1 1 0-21.2 10.6 10.6 0 0 1 0 21.2" fill="#fff500E4"/><path d="M251.7-47.3a10.7 10.7 0 1 1 0-21.5 10.7 10.7 0 0 1 0 21.5" fill="#c2e1ffE6"/><path d="M-41.5-37.4a10.7 10.7 0 1 1 0-21.5 10.7 10.7 0 0 1 0 21.5" fill="#fffE7"/><path d="M243.3-259a10.8 10.8 0 1 1 0-21.6 10.8 10.8 0 0 1 0 21.6" fill="#c2e1ffE8"/><path d="M264.6-87.5a10.8 10.8 0 1 1 0-21.7 10.8 10.8 0 0 1 0 21.7" fill="#fffE9"/><path d="M252.2-235.3a10.9 10.9 0 1 1 0-21.7 10.9 10.9 0 0 1 0 21.7" fill="#fffEA"/><path d="M238.5-47.4a10.9 10.9 0 1 1 0-21.7 10.9 10.9 0 0 1 0 21.7" fill="#005bbbEA"/><path d="M147.1 12.5a10.9 10.9 0 1 1 0-21.8 10.9 10.9 0 0 1 0 21.8" fill="#fffEA"/><path d="M-59.1-206.9a10.9 10.9 0 1 1 0-21.9 10.9 10.9 0 0 1 0 21.9" fill="#fff500EB"/><path d="M119.9 12.9a11 11 0 1 1 0-22 11 11 0 0 1 0 22" fill="#fff500EC"/><path d="M255.8-203.5a11 11 0 1 1 0-22 11 11 0 0 1 0 22" fill="#fffEC"/><path d="M151.8 0.3a11 11 0 1 1 0-22.1 11 11 0 0 1 0 22.1" fill="#fff500ED"/><path d="M-40.9-77.4a11 11 0 1 1 0-22 11 11 0 0 1 0 22" fill="#fffEE"/><path d="M-19-254a11.1 11.1 0 1 1 0-22.1 11.1 11.1 0 0 1 0 22.1" fill="#fffEE"/><path d="M-48.9-187.7a11.1 11.1 0 1 1 0-22.3 11.1 11.1 0 0 1 0 22.3" fill="#005bbbEF"/><path d="M6.7-33.6a11.1 11.1 0 1 1 0-22.3 11.1 11.1 0 0 1 0 22.3" fill="#c2e1ffF0"/><path d="M181.1-25.6a11.1 11.1 0 1 1 0-22.3 11.1 11.1 0 0 1 0 22.3" fill="#005bbbF0"/><path d="M63.5-6.9a11.2 11.2 0 1 1 0-22.3 11.2 11.2 0 0 1 0 22.3" fill="#fffF0"/><path d="M244.2-142.1a11.2 11.2 0 1 1 0-22.4 11.2 11.2 0 0 1 0 22.4" fill="#fff500F1"/><path d="M-25.6-221.4a11.2 11.2 0 1 1 0-22.4 11.2 11.2 0 0 1 0 22.4" fill="#c2e1ffF1"/><path d="M241.1-124.5a11.2 11.2 0 1 1 0-22.4 11.2 11.2 0 0 1 0 22.4" fill="#c2e1ffF1"/><path d="M96.1-8.3a11.2 11.2 0 1 1 0-22.4 11.2 11.2 0 0 1 0 22.4" fill="#fff500F1"/><path d="M-15.2-224.7a11.3 11.3 0 1 1 0-22.6 11.3 11.3 0 0 1 0 22.6" fill="#fffF3"/><path d="M65.2-29.1a11.4 11.4 0 1 1 0-22.7 11.4 11.4 0 0 1 0 22.7" fill="#005bbbF4"/><path d="M155-255.3a11.4 11.4 0 1 1 0-22.8 11.4 11.4 0 0 1 0 22.8" fill="#c2e1ffF6"/><path d="M214.3-144.3a11.4 11.4 0 1 1 0-22.9 11.4 11.4 0 0 1 0 22.9" fill="#005bbbF6"/><path d="M54.5-51.5a11.5 11.5 0 1 1 0-23 11.5 11.5 0 0 1 0 23" fill="#005bbbF7"/><path d="M87.5-44.3a11.5 11.5 0 1 1 0-23 11.5 11.5 0 0 1 0 23" fill="#fffF7"/><path d="M7-164.3a11.6 11.6 0 1 1 0-23.1 11.6 11.6 0 0 1 0 23.1" fill="#fffF9"/><path d="M166.4-84.8a11.6 11.6 0 1 1 0-23.2 11.6 11.6 0 0 1 0 23.2" fill="#fffF9"/><path d="M187.5-153.8a11.6 11.6 0 1 1 0-23.2 11.6 11.6 0 0 1 0 23.2" fill="#c2e1ffFA"/><path d="M173.6-172.6a11.7 11.7 0 1 1 0-23.3 11.7 11.7 0 0 1 0 23.3" fill="#005bbbFB"/><path d="M140.9-86.2a11.7 11.7 0 1 1 0-23.3 11.7 11.7 0 0 1 0 23.3" fill="#c2e1ffFB"/><path d="M34.7-115.3a11.7 11.7 0 1 1 0-23.3 11.7 11.7 0 0 1 0 23.3" fill="#c2e1ffFB"/><path d="M162.7-153.4a11.7 11.7 0 1 1 0-23.4 11.7 11.7 0 0 1 0 23.4" fill="#fff500FC"/><path d="M60-144.8a11.8 11.8 0 1 1 0-23.5 11.8 11.8 0 0 1 0 23.5" fill="#c2e1ffFE"/></g></svg>