<svg width="1200" height="675" viewBox="-500 -500 1200 675" xmlns="http://www.w3.org/2000/svg"><path d="M-500-500h1200v675h-1200z" fill="#000"/><style>.sparkles path{stroke-linecap:round; stroke-width:1}</style><g class="sparkles"><path d="M100-162.5l-11.4 26.7" stroke="#fff50032"/><path d="M100-162.5l36.3 1.2" stroke="#fff50032"/><path d="M100-162.5l45.5 16.7" stroke="#005bbb33"/><path d="M100-162.5l-31.8 55.1" stroke="#fff50033"/><path d="M100-162.5l-65.5-25.3" stroke="#fff34"/><path d="M100-162.5l-45.4 58.9" stroke="#c2e1ff34"/><path d="M100-162.5l-69.7 60.1" stroke="#fff35"/><path d="M100-162.5l93.3-26.9" stroke="#fff36"/><path d="M100-162.5l-114.6 6.4" stroke="#fff38"/><path d="M100-162.5l-114-66.6" stroke="#c2e1ff3A"/><path d="M100-162.5l119.7-63" stroke="#fff5003B"/><path d="M100-162.5l-125.8 54.3" stroke="#005bbb3B"/><path d="M100-162.5l-76.6 118.3" stroke="#fff3B"/><path d="M100-162.5l32.8-137.1" stroke="#fff3B"/><path d="M100-162.5l83.1 118.7" stroke="#fff5003C"/><path d="M100-162.5l130.5-72.3" stroke="#005bbb3D"/><path d="M100-162.5l-145 46.7" stroke="#c2e1ff3D"/><path d="M100-162.5l118.3 97" stroke="#fff5003D"/><path d="M100-162.5l-123-91" stroke="#c2e1ff3D"/><path d="M100-162.5l144.8-60" stroke="#fff3E"/><path d="M100-162.5l-152.9-37.4" stroke="#fff5003E"/><path d="M100-162.5l18.1-158.9" stroke="#005bbb3F"/><path d="M100-162.5l41-155.8" stroke="#005bbb3F"/><path d="M100-162.5l75.3-150.2" stroke="#c2e1ff40"/><path d="M100-162.5l145.1 85.7" stroke="#005bbb40"/><path d="M100-162.5l167-25.4" stroke="#fff41"/><path d="M100-162.5l132.6 107.1" stroke="#c2e1ff41"/><path d="M100-162.5l-168.4 30.6" stroke="#c2e1ff41"/><path d="M100-162.5l22.6 170.2" stroke="#fff50041"/><path d="M100-162.5l108.2-137.6" stroke="#fff50042"/><path d="M100-162.5l111.8-134.7" stroke="#fff50042"/><path d="M100-162.5l-89.2-151.3" stroke="#fff50042"/><path d="M100-162.5l-43.8-173.8" stroke="#fff43"/><path d="M100-162.5l-172.8 55.6" stroke="#005bbb43"/><path d="M100-162.5l169.2 67.9" stroke="#c2e1ff44"/><path d="M100-162.5l100.3 155.2" stroke="#005bbb44"/><path d="M100-162.5l77.3-168.7" stroke="#fff50045"/><path d="M100-162.5l-10.8 191" stroke="#005bbb46"/><path d="M100-162.5l86.9-170.7" stroke="#005bbb46"/><path d="M100-162.5l-98.3 166.9" stroke="#fff50047"/><path d="M100-162.5l83.1-177.6" stroke="#fff50048"/><path d="M100-162.5l99.6 169.5" stroke="#fff48"/><path d="M100-162.5l98.7-179.3" stroke="#fff4B"/><path d="M100-162.5l107-174.5" stroke="#fff4B"/><path d="M100-162.5l-47.9-199.7" stroke="#fff4B"/><path d="M100-162.5l-104.5-179.2" stroke="#fff4C"/><path d="M100-162.5l195.4 76.3" stroke="#fff5004C"/><path d="M100-162.5l125.3-169.3" stroke="#005bbb4D"/><path d="M100-162.5l209-33.5" stroke="#005bbb4D"/><path d="M100-162.5l204 56.5" stroke="#c2e1ff4D"/><path d="M100-162.5l-58.1-204.8" stroke="#c2e1ff4E"/><path d="M100-162.5l-212.9 29.8" stroke="#005bbb4F"/><path d="M100-162.5l-211.7 52.9" stroke="#c2e1ff50"/><path d="M100-162.5l-73.1 206" stroke="#c2e1ff51"/><path d="M100-162.5l-208.5-65.6" stroke="#fff51"/><path d="M100-162.5l-185.5 116.3" stroke="#fff51"/><path d="M100-162.5l209.9-62.9" stroke="#fff51"/><path d="M100-162.5l69.1-208.2" stroke="#005bbb51"/><path d="M100-162.5l186.5 117.4" stroke="#fff50052"/><path d="M100-162.5l-114.3-189" stroke="#005bbb52"/><path d="M100-162.5l104-196.3" stroke="#fff50053"/><path d="M100-162.5l-139.8-172.8" stroke="#c2e1ff53"/><path d="M100-162.5l-53.7 216.8" stroke="#005bbb53"/><path d="M100-162.5l38-222.4" stroke="#fff50055"/><path d="M100-162.5l116.9 193.2" stroke="#005bbb55"/><path d="M100-162.5l-214.9 70.5" stroke="#005bbb55"/><path d="M100-162.5l-56.8 219.8" stroke="#c2e1ff56"/><path d="M100-162.5l-56.9 219.8" stroke="#005bbb56"/><path d="M100-162.5l-69.9-216.4" stroke="#c2e1ff56"/><path d="M100-162.5l24.8-226.2" stroke="#fff50056"/><path d="M100-162.5l-63.1-218.7" stroke="#005bbb56"/><path d="M100-162.5l-227.8-0.1" stroke="#fff56"/><path d="M100-162.5l-66.1 218.5" stroke="#fff50057"/><path d="M100-162.5l206.8 99.5" stroke="#005bbb58"/><path d="M100-162.5l-230.4-7.8" stroke="#c2e1ff59"/><path d="M100-162.5l227.6-45.3" stroke="#005bbb5A"/><path d="M100-162.5l-187.5 136.9" stroke="#fff5A"/><path d="M100-162.5l231-24" stroke="#fff5005A"/><path d="M100-162.5l-211.8 97.1" stroke="#c2e1ff5B"/><path d="M100-162.5l79.1-219.2" stroke="#fff5005B"/><path d="M100-162.5l-143.6-183.8" stroke="#fff5005C"/><path d="M100-162.5l114.2-203.4" stroke="#005bbb5C"/><path d="M100-162.5l143.6 184.8" stroke="#fff5005D"/><path d="M100-162.5l226.8 61" stroke="#fff5005E"/><path d="M100-162.5l-220.5 81" stroke="#005bbb5E"/><path d="M100-162.5l-107.6 209.2" stroke="#c2e1ff5F"/><path d="M100-162.5l235.3-17" stroke="#005bbb61"/><path d="M100-162.5l-236.1 4.9" stroke="#c2e1ff62"/><path d="M100-162.5l-178.9 154.3" stroke="#005bbb64"/><path d="M100-162.5l158.7-174.9" stroke="#c2e1ff64"/><path d="M100-162.5l195.3 132.3" stroke="#c2e1ff66"/><path d="M100-162.5l230.6-48.1" stroke="#005bbb67"/><path d="M100-162.5l157.2-175.3" stroke="#c2e1ff68"/><path d="M100-162.5l-181.8 149.4" stroke="#c2e1ff68"/><path d="M100-162.5l-205.6-113.8" stroke="#005bbb69"/><path d="M100-162.5l-130.3 194.5" stroke="#fff6A"/><path d="M100-162.5l196.2-123.4" stroke="#c2e1ff6D"/><path d="M100-162.5l-90-213.2" stroke="#c2e1ff6E"/><path d="M100-162.5l223.6 57.9" stroke="#fff5006E"/><path d="M100-162.5l-217.6-76.9" stroke="#005bbb6E"/><path d="M100-162.5l-190.3 129.9" stroke="#c2e1ff6F"/><path d="M100-162.5l221 62.9" stroke="#c2e1ff6F"/><path d="M100-162.5l-228.1-20.6" stroke="#005bbb70"/><path d="M100-162.5l-219.3 63.2" stroke="#c2e1ff70"/><path d="M100-162.5l-140.5 178.9" stroke="#c2e1ff71"/><path d="M100-162.5l-113.7-195.2" stroke="#c2e1ff72"/><path d="M100-162.5l120.2 188.8" stroke="#fff50074"/><path d="M100-162.5l164.8 149.8" stroke="#fff74"/><path d="M100-162.5l-128.5-181.7" stroke="#fff50074"/><path d="M100-162.5l220.4-24.3" stroke="#005bbb75"/><path d="M100-162.5l-91.1 201.9" stroke="#fff50075"/><path d="M100-162.5l-171.1 139.8" stroke="#fff50075"/><path d="M100-162.5l195.1-103.5" stroke="#005bbb75"/><path d="M100-162.5l206.7-77.2" stroke="#fff75"/><path d="M100-162.5l5.5 220.5" stroke="#c2e1ff75"/><path d="M100-162.5l197 98" stroke="#005bbb76"/><path d="M100-162.5l129.7 175.8" stroke="#005bbb77"/><path d="M100-162.5l-216.1-4.5" stroke="#005bbb78"/><path d="M100-162.5l94.3-194.2" stroke="#005bbb78"/><path d="M100-162.5l-144.9 158.9" stroke="#005bbb78"/><path d="M100-162.5l116.3 179.8" stroke="#fff50079"/><path d="M100-162.5l211.4 30.7" stroke="#c2e1ff79"/><path d="M100-162.5l-161.1-139.6" stroke="#fff50079"/><path d="M100-162.5l-91.5 192.4" stroke="#fff79"/><path d="M100-162.5l-205.3 51.2" stroke="#fff7A"/><path d="M100-162.5l-116.1-175.4" stroke="#fff5007A"/><path d="M100-162.5l206.2-10.4" stroke="#fff5007C"/><path d="M100-162.5l74.1-191" stroke="#fff5007C"/><path d="M100-162.5l-80.6-187.1" stroke="#fff7D"/><path d="M100-162.5l132.6 152.5" stroke="#fff7D"/><path d="M100-162.5l201.1 0" stroke="#fff5007E"/><path d="M100-162.5l-164.5-109.2" stroke="#005bbb7F"/><path d="M100-162.5l195.4 22" stroke="#005bbb7F"/><path d="M100-162.5l-33.9-192.4" stroke="#fff80"/><path d="M100-162.5l79.9 178" stroke="#fff80"/><path d="M100-162.5l-150 124.5" stroke="#c2e1ff80"/><path d="M100-162.5l-163.4 105.9" stroke="#c2e1ff80"/><path d="M100-162.5l-177.4-80" stroke="#c2e1ff80"/><path d="M100-162.5l-161-106.4" stroke="#c2e1ff80"/><path d="M100-162.5l-134.4 135.8" stroke="#c2e1ff81"/><path d="M100-162.5l38.4-185.8" stroke="#c2e1ff81"/><path d="M100-162.5l173.6-68.5" stroke="#fff82"/><path d="M100-162.5l3.4 186.5" stroke="#c2e1ff82"/><path d="M100-162.5l140.1 119.9" stroke="#fff50083"/><path d="M100-162.5l-12.4-183.9" stroke="#005bbb83"/><path d="M100-162.5l-157.8 89.9" stroke="#fff50083"/><path d="M100-162.5l-90.2-157.2" stroke="#c2e1ff84"/><path d="M100-162.5l175.5 43.8" stroke="#c2e1ff84"/><path d="M100-162.5l-0.3 180.5" stroke="#005bbb84"/><path d="M100-162.5l-154-94" stroke="#fff84"/><path d="M100-162.5l-4.6 177.7" stroke="#fff50084"/><path d="M100-162.5l-27.5-174.2" stroke="#fff85"/><path d="M100-162.5l-17.4 175.3" stroke="#005bbb85"/><path d="M100-162.5l86.2-152.9" stroke="#fff85"/><path d="M100-162.5l138.5-106.2" stroke="#fff85"/><path d="M100-162.5l-67.2 160.7" stroke="#fff85"/><path d="M100-162.5l-128.5 114.2" stroke="#005bbb86"/><path d="M100-162.5l142.4-94.8" stroke="#005bbb86"/><path d="M100-162.5l152.7-69.2" stroke="#005bbb87"/><path d="M100-162.5l123.6-94.7" stroke="#fff89"/><path d="M100-162.5l-38.8-147.7" stroke="#005bbb8A"/><path d="M100-162.5l-10 150.1" stroke="#fff5008A"/><path d="M100-162.5l105.3 100.4" stroke="#fff5008B"/><path d="M100-162.5l114.1 88.3" stroke="#fff5008B"/><path d="M100-162.5l125.4-68.2" stroke="#fff8B"/><path d="M100-162.5l-33.1 137.3" stroke="#fff8C"/><path d="M100-162.5l136.9 4.4" stroke="#005bbb8C"/><path d="M100-162.5l-114.9 74.3" stroke="#fff8C"/><path d="M100-162.5l73.4 114.9" stroke="#005bbb8C"/><path d="M100-162.5l134.9-17.4" stroke="#005bbb8C"/><path d="M100-162.5l88.3-103.3" stroke="#fff8C"/><path d="M100-162.5l-10.5 132.9" stroke="#c2e1ff8D"/><path d="M100-162.5l-80.5 105.2" stroke="#c2e1ff8D"/><path d="M100-162.5l55.6 111.8" stroke="#fff8E"/><path d="M100-162.5l36.2 114.2" stroke="#fff5008F"/><path d="M100-162.5l26.4-104.1" stroke="#005bbb90"/><path d="M100-162.5l73.5 49" stroke="#fff92"/><path d="M100-162.5l83 28.2" stroke="#c2e1ff92"/><path d="M100-162.5l48.7 70.5" stroke="#005bbb92"/><path d="M100-162.5l-53.1-16.6" stroke="#005bbb94"/><path d="M100-162.5l18.6 12.4" stroke="#fff95"/></g><g class="sparcs"><path d="M88.6-129.9a5.9 5.9 0 1 1 0-11.9 5.9 5.9 0 0 1 0 11.9" fill="#fff5007D"/><path d="M136.3-155.4a5.9 5.9 0 1 1 0-11.9 5.9 5.9 0 0 1 0 11.9" fill="#c2e1ff7D"/><path d="M145.5-139.9a6 6 0 1 1 0-11.9 6 6 0 0 1 0 11.9" fill="#fff5007E"/><path d="M68.2-101.3a6 6 0 1 1 0-12.1 6 6 0 0 1 0 12.1" fill="#fff5007F"/><path d="M34.5-181.7a6 6 0 1 1 0-12.1 6 6 0 0 1 0 12.1" fill="#005bbb7F"/><path d="M54.6-97.5a6.1 6.1 0 1 1 0-12.1 6.1 6.1 0 0 1 0 12.1" fill="#005bbb80"/><path d="M30.3-96.2a6.1 6.1 0 1 1 0-12.3 6.1 6.1 0 0 1 0 12.3" fill="#fff50082"/><path d="M193.3-183.2a6.2 6.2 0 1 1 0-12.4 6.2 6.2 0 0 1 0 12.4" fill="#fff50082"/><path d="M-14.6-149.8a6.3 6.3 0 1 1 0-12.6 6.3 6.3 0 0 1 0 12.6" fill="#005bbb85"/><path d="M-14-222.7a6.4 6.4 0 1 1 0-12.9 6.4 6.4 0 0 1 0 12.9" fill="#005bbb88"/><path d="M219.7-219.1a6.4 6.4 0 1 1 0-12.9 6.4 6.4 0 0 1 0 12.9" fill="#c2e1ff88"/><path d="M-25.8-101.7a6.5 6.5 0 1 1 0-12.9 6.5 6.5 0 0 1 0 12.9" fill="#005bbb89"/><path d="M23.4-37.7a6.5 6.5 0 1 1 0-13 6.5 6.5 0 0 1 0 13" fill="#fff89"/><path d="M132.8-293.1a6.5 6.5 0 1 1 0-13 6.5 6.5 0 0 1 0 13" fill="#005bbb89"/><path d="M183.1-37.2a6.5 6.5 0 1 1 0-13.1 6.5 6.5 0 0 1 0 13.1" fill="#c2e1ff8A"/><path d="M230.5-228.2a6.6 6.6 0 1 1 0-13.1 6.6 6.6 0 0 1 0 13.1" fill="#fff5008B"/><path d="M-45-109.2a6.6 6.6 0 1 1 0-13.2 6.6 6.6 0 0 1 0 13.2" fill="#fff8C"/><path d="M218.3-58.9a6.6 6.6 0 1 1 0-13.2 6.6 6.6 0 0 1 0 13.2" fill="#fff5008C"/><path d="M-23-246.9a6.6 6.6 0 1 1 0-13.2 6.6 6.6 0 0 1 0 13.2" fill="#fff5008C"/><path d="M244.8-215.8a6.6 6.6 0 1 1 0-13.3 6.6 6.6 0 0 1 0 13.3" fill="#c2e1ff8D"/><path d="M-52.9-193.3a6.7 6.7 0 1 1 0-13.3 6.7 6.7 0 0 1 0 13.3" fill="#fff5008D"/><path d="M118.1-314.7a6.7 6.7 0 1 1 0-13.4 6.7 6.7 0 0 1 0 13.4" fill="#c2e1ff8E"/><path d="M141-311.6a6.7 6.7 0 1 1 0-13.4 6.7 6.7 0 0 1 0 13.4" fill="#fff5008E"/><path d="M175.3-305.9a6.8 6.8 0 1 1 0-13.6 6.8 6.8 0 0 1 0 13.6" fill="#c2e1ff90"/><path d="M245.1-70a6.8 6.8 0 1 1 0-13.6 6.8 6.8 0 0 1 0 13.6" fill="#005bbb90"/><path d="M267-181.1a6.8 6.8 0 1 1 0-13.6 6.8 6.8 0 0 1 0 13.6" fill="#005bbb90"/><path d="M232.6-48.6a6.8 6.8 0 1 1 0-13.6 6.8 6.8 0 0 1 0 13.6" fill="#005bbb90"/><path d="M-68.4-125.1a6.8 6.8 0 1 1 0-13.6 6.8 6.8 0 0 1 0 13.6" fill="#fff50091"/><path d="M122.6 14.6a6.8 6.8 0 1 1 0-13.7 6.8 6.8 0 0 1 0 13.7" fill="#fff91"/><path d="M208.2-293.2a6.9 6.9 0 1 1 0-13.8 6.9 6.9 0 0 1 0 13.8" fill="#fff92"/><path d="M211.8-290.4a6.9 6.9 0 1 1 0-13.7 6.9 6.9 0 0 1 0 13.7" fill="#fff50092"/><path d="M10.8-306.9a6.9 6.9 0 1 1 0-13.8 6.9 6.9 0 0 1 0 13.8" fill="#005bbb92"/><path d="M56.2-329.4a6.9 6.9 0 1 1 0-13.9 6.9 6.9 0 0 1 0 13.9" fill="#c2e1ff93"/><path d="M-72.8-100a7 7 0 1 1 0-13.9 7 7 0 0 1 0 13.9" fill="#c2e1ff94"/><path d="M269.2-87.6a7 7 0 1 1 0-14 7 7 0 0 1 0 14" fill="#005bbb94"/><path d="M200.3-0.2a7 7 0 1 1 0-14.1 7 7 0 0 1 0 14.1" fill="#fff50095"/><path d="M177.3-324.2a7 7 0 1 1 0-14.1 7 7 0 0 1 0 14.1" fill="#c2e1ff95"/><path d="M89.2 35.6a7.1 7.1 0 1 1 0-14.3 7.1 7.1 0 0 1 0 14.3" fill="#005bbb97"/><path d="M186.9-326.1a7.1 7.1 0 1 1 0-14.2 7.1 7.1 0 0 1 0 14.2" fill="#fff50097"/><path d="M1.7 11.6a7.2 7.2 0 1 1 0-14.4 7.2 7.2 0 0 1 0 14.4" fill="#005bbb98"/><path d="M183.1-332.9a7.2 7.2 0 1 1 0-14.4 7.2 7.2 0 0 1 0 14.4" fill="#005bbb99"/><path d="M199.6 14.2a7.2 7.2 0 1 1 0-14.4 7.2 7.2 0 0 1 0 14.4" fill="#005bbb99"/><path d="M198.7-334.4a7.4 7.4 0 1 1 0-14.8 7.4 7.4 0 0 1 0 14.8" fill="#c2e1ff9D"/><path d="M207-329.7a7.4 7.4 0 1 1 0-14.7 7.4 7.4 0 0 1 0 14.7" fill="#fff9D"/><path d="M52.1-354.8a7.4 7.4 0 1 1 0-14.8 7.4 7.4 0 0 1 0 14.8" fill="#fff5009D"/><path d="M-4.5-334.2a7.4 7.4 0 1 1 0-14.9 7.4 7.4 0 0 1 0 14.9" fill="#fff9E"/><path d="M295.4-78.7a7.5 7.5 0 1 1 0-15 7.5 7.5 0 0 1 0 15" fill="#fffA0"/><path d="M225.3-324.3a7.5 7.5 0 1 1 0-15 7.5 7.5 0 0 1 0 15" fill="#c2e1ffA0"/><path d="M309-188.5a7.5 7.5 0 1 1 0-15.1 7.5 7.5 0 0 1 0 15.1" fill="#005bbbA1"/><path d="M304-98.5a7.5 7.5 0 1 1 0-15.1 7.5 7.5 0 0 1 0 15.1" fill="#fffA1"/><path d="M41.9-359.8a7.6 7.6 0 1 1 0-15.1 7.6 7.6 0 0 1 0 15.1" fill="#fff500A1"/><path d="M-112.9-125.1a7.6 7.6 0 1 1 0-15.2 7.6 7.6 0 0 1 0 15.2" fill="#c2e1ffA3"/><path d="M-111.7-101.8a7.7 7.7 0 1 1 0-15.5 7.7 7.7 0 0 1 0 15.5" fill="#005bbbA5"/><path d="M26.9 51.2a7.7 7.7 0 1 1 0-15.5 7.7 7.7 0 0 1 0 15.5" fill="#c2e1ffA5"/><path d="M-108.5-220.4a7.7 7.7 0 1 1 0-15.4 7.7 7.7 0 0 1 0 15.4" fill="#005bbbA5"/><path d="M-85.5-38.5a7.7 7.7 0 1 1 0-15.5 7.7 7.7 0 0 1 0 15.5" fill="#005bbbA5"/><path d="M309.9-217.6a7.8 7.8 0 1 1 0-15.6 7.8 7.8 0 0 1 0 15.6" fill="#c2e1ffA5"/><path d="M169.1-362.9a7.8 7.8 0 1 1 0-15.5 7.8 7.8 0 0 1 0 15.5" fill="#c2e1ffA5"/><path d="M286.5-37.3a7.8 7.8 0 1 1 0-15.5 7.8 7.8 0 0 1 0 15.5" fill="#c2e1ffA6"/><path d="M-14.3-343.7a7.8 7.8 0 1 1 0-15.6 7.8 7.8 0 0 1 0 15.6" fill="#c2e1ffA6"/><path d="M204-351a7.9 7.9 0 1 1 0-15.7 7.9 7.9 0 0 1 0 15.7" fill="#005bbbA7"/><path d="M-39.8-327.5a7.9 7.9 0 1 1 0-15.7 7.9 7.9 0 0 1 0 15.7" fill="#fff500A7"/><path d="M46.3 62.2a7.9 7.9 0 1 1 0-15.8 7.9 7.9 0 0 1 0 15.8" fill="#fffA8"/><path d="M138-377a8 8 0 1 1 0-15.9 8 8 0 0 1 0 15.9" fill="#c2e1ffAA"/><path d="M216.9 38.6a8 8 0 1 1 0-15.9 8 8 0 0 1 0 15.9" fill="#fffAA"/><path d="M-114.9-84a8 8 0 1 1 0-16.1 8 8 0 0 1 0 16.1" fill="#fffAB"/><path d="M43.2 65.3a8 8 0 1 1 0-16 8 8 0 0 1 0 16" fill="#005bbbAB"/><path d="M43.1 65.3a8 8 0 1 1 0-16 8 8 0 0 1 0 16" fill="#fffAC"/><path d="M30.1-370.8a8.1 8.1 0 1 1 0-16.2 8.1 8.1 0 0 1 0 16.2" fill="#fffAC"/><path d="M124.8-380.6a8.1 8.1 0 1 1 0-16.1 8.1 8.1 0 0 1 0 16.1" fill="#005bbbAC"/><path d="M36.9-373.1a8.1 8.1 0 1 1 0-16.1 8.1 8.1 0 0 1 0 16.1" fill="#005bbbAC"/><path d="M-127.8-154.5a8.1 8.1 0 1 1 0-16.2 8.1 8.1 0 0 1 0 16.2" fill="#fff500AC"/><path d="M33.9 64.1a8.1 8.1 0 1 1 0-16.2 8.1 8.1 0 0 1 0 16.2" fill="#fffAD"/><path d="M306.8-54.8a8.2 8.2 0 1 1 0-16.4 8.2 8.2 0 0 1 0 16.4" fill="#fffAE"/><path d="M-130.4-162.1a8.2 8.2 0 1 1 0-16.4 8.2 8.2 0 0 1 0 16.4" fill="#fffAF"/><path d="M327.6-199.5a8.3 8.3 0 1 1 0-16.6 8.3 8.3 0 0 1 0 16.6" fill="#c2e1ffB1"/><path d="M-87.5-17.3a8.3 8.3 0 1 1 0-16.6 8.3 8.3 0 0 1 0 16.6" fill="#fff500B1"/><path d="M331-178.2a8.3 8.3 0 1 1 0-16.6 8.3 8.3 0 0 1 0 16.6" fill="#fff500B2"/><path d="M-111.8-57.1a8.4 8.4 0 1 1 0-16.7 8.4 8.4 0 0 1 0 16.7" fill="#c2e1ffB3"/><path d="M179.1-373.3a8.4 8.4 0 1 1 0-16.8 8.4 8.4 0 0 1 0 16.8" fill="#005bbbB3"/><path d="M-43.6-338a8.4 8.4 0 1 1 0-16.7 8.4 8.4 0 0 1 0 16.7" fill="#005bbbB3"/><path d="M214.2-357.6a8.4 8.4 0 1 1 0-16.7 8.4 8.4 0 0 1 0 16.7" fill="#005bbbB3"/><path d="M243.6 30.8a8.5 8.5 0 1 1 0-17 8.5 8.5 0 0 1 0 17" fill="#005bbbB5"/><path d="M326.8-93a8.5 8.5 0 1 1 0-17 8.5 8.5 0 0 1 0 17" fill="#fffB7"/><path d="M-120.5-73a8.5 8.5 0 1 1 0-17.1 8.5 8.5 0 0 1 0 17.1" fill="#fff500B7"/><path d="M-7.6 55.3a8.6 8.6 0 1 1 0-17.2 8.6 8.6 0 0 1 0 17.2" fill="#fffB8"/><path d="M335.3-170.8a8.7 8.7 0 1 1 0-17.4 8.7 8.7 0 0 1 0 17.4" fill="#fffBA"/><path d="M-136.1-148.8a8.8 8.8 0 1 1 0-17.6 8.8 8.8 0 0 1 0 17.6" fill="#fffBC"/><path d="M-78.9 0.7a8.9 8.9 0 1 1 0-17.7 8.9 8.9 0 0 1 0 17.7" fill="#c2e1ffBE"/><path d="M258.7-328.5a8.9 8.9 0 1 1 0-17.8 8.9 8.9 0 0 1 0 17.8" fill="#c2e1ffBE"/><path d="M295.3-21.2a9 9 0 1 1 0-18 9 9 0 0 1 0 18" fill="#005bbbC1"/><path d="M330.6-201.6a9.1 9.1 0 1 1 0-18.1 9.1 9.1 0 0 1 0 18.1" fill="#005bbbC2"/><path d="M257.2-328.7a9.1 9.1 0 1 1 0-18.2 9.1 9.1 0 0 1 0 18.2" fill="#fff500C3"/><path d="M-81.8-3.9a9.1 9.1 0 1 1 0-18.3 9.1 9.1 0 0 1 0 18.3" fill="#fffC3"/><path d="M-105.6-267.1a9.2 9.2 0 1 1 0-18.3 9.2 9.2 0 0 1 0 18.3" fill="#c2e1ffC4"/><path d="M-30.3 41.2a9.3 9.3 0 1 1 0-18.5 9.3 9.3 0 0 1 0 18.5" fill="#c2e1ffC6"/><path d="M296.2-276.5a9.4 9.4 0 1 1 0-18.8 9.4 9.4 0 0 1 0 18.8" fill="#fffCA"/><path d="M10-366.2a9.5 9.5 0 1 1 0-18.9 9.5 9.5 0 0 1 0 18.9" fill="#fffCB"/><path d="M323.6-95.1a9.5 9.5 0 1 1 0-19 9.5 9.5 0 0 1 0 19" fill="#fffCB"/><path d="M-117.6-229.9a9.5 9.5 0 1 1 0-18.9 9.5 9.5 0 0 1 0 18.9" fill="#fff500CB"/><path d="M-90.3-23a9.5 9.5 0 1 1 0-19.1 9.5 9.5 0 0 1 0 19.1" fill="#c2e1ffCC"/><path d="M321-90a9.5 9.5 0 1 1 0-19.1 9.5 9.5 0 0 1 0 19.1" fill="#fff500CD"/><path d="M-128.1-173.5a9.6 9.6 0 1 1 0-19.2 9.6 9.6 0 0 1 0 19.2" fill="#c2e1ffCD"/><path d="M-119.3-89.6a9.6 9.6 0 1 1 0-19.3 9.6 9.6 0 0 1 0 19.3" fill="#fff500CE"/><path d="M-40.5 26a9.7 9.7 0 1 1 0-19.3 9.7 9.7 0 0 1 0 19.3" fill="#c2e1ffCF"/><path d="M-13.7-348a9.7 9.7 0 1 1 0-19.5 9.7 9.7 0 0 1 0 19.5" fill="#fff500D1"/><path d="M220.2 36.1a9.8 9.8 0 1 1 0-19.6 9.8 9.8 0 0 1 0 19.6" fill="#fffD2"/><path d="M264.8-2.9a9.8 9.8 0 1 1 0-19.6 9.8 9.8 0 0 1 0 19.6" fill="#c2e1ffD3"/><path d="M-28.5-334.4a9.8 9.8 0 1 1 0-19.7 9.8 9.8 0 0 1 0 19.7" fill="#fff500D3"/><path d="M320.4-176.9a9.9 9.9 0 1 1 0-19.8 9.9 9.9 0 0 1 0 19.8" fill="#005bbbD4"/><path d="M8.9 49.2a9.9 9.9 0 1 1 0-19.7 9.9 9.9 0 0 1 0 19.7" fill="#fff500D4"/><path d="M-71.1-12.8a9.9 9.9 0 1 1 0-19.9 9.9 9.9 0 0 1 0 19.9" fill="#fffD5"/><path d="M295.1-256.1a9.9 9.9 0 1 1 0-19.8 9.9 9.9 0 0 1 0 19.8" fill="#c2e1ffD5"/><path d="M306.7-229.8a9.9 9.9 0 1 1 0-19.8 9.9 9.9 0 0 1 0 19.8" fill="#c2e1ffD5"/><path d="M105.5 67.9a9.9 9.9 0 1 1 0-19.8 9.9 9.9 0 0 1 0 19.8" fill="#fff500D5"/><path d="M297-54.5a9.9 9.9 0 1 1 0-19.9 9.9 9.9 0 0 1 0 19.9" fill="#fff500D5"/><path d="M229.7 23.3a10 10 0 1 1 0-20 10 10 0 0 1 0 20" fill="#005bbbD6"/><path d="M-116.1-157a10.1 10.1 0 1 1 0-20.1 10.1 10.1 0 0 1 0 20.1" fill="#fffD8"/><path d="M194.3-346.7a10.1 10.1 0 1 1 0-20.1 10.1 10.1 0 0 1 0 20.1" fill="#005bbbD8"/><path d="M-44.9 6.4a10.1 10.1 0 1 1 0-20.1 10.1 10.1 0 0 1 0 20.1" fill="#fff500D8"/><path d="M216.3 27.4a10.1 10.1 0 1 1 0-20.3 10.1 10.1 0 0 1 0 20.3" fill="#fff500D9"/><path d="M311.4-121.7a10.1 10.1 0 1 1 0-20.2 10.1 10.1 0 0 1 0 20.2" fill="#c2e1ffD9"/><path d="M-61.1-291.9a10.1 10.1 0 1 1 0-20.3 10.1 10.1 0 0 1 0 20.3" fill="#fff500DA"/><path d="M8.5 40.1a10.1 10.1 0 1 1 0-20.3 10.1 10.1 0 0 1 0 20.3" fill="#005bbbDA"/><path d="M-105.3-101.2a10.2 10.2 0 1 1 0-20.3 10.2 10.2 0 0 1 0 20.3" fill="#005bbbDA"/><path d="M-16.1-327.7a10.2 10.2 0 1 1 0-20.4 10.2 10.2 0 0 1 0 20.4" fill="#c2e1ffDB"/><path d="M306.2-162.6a10.3 10.3 0 1 1 0-20.6 10.3 10.3 0 0 1 0 20.6" fill="#c2e1ffDD"/><path d="M174.1-343.2a10.3 10.3 0 1 1 0-20.7 10.3 10.3 0 0 1 0 20.7" fill="#fffDE"/><path d="M19.4-339.2a10.4 10.4 0 1 1 0-20.7 10.4 10.4 0 0 1 0 20.7" fill="#fff500DE"/><path d="M232.6 0.4a10.4 10.4 0 1 1 0-20.8 10.4 10.4 0 0 1 0 20.8" fill="#005bbbDF"/><path d="M301.1-152.1a10.4 10.4 0 1 1 0-20.8 10.4 10.4 0 0 1 0 20.8" fill="#fffE0"/><path d="M-64.5-261.2a10.5 10.5 0 1 1 0-21 10.5 10.5 0 0 1 0 21" fill="#005bbbE1"/><path d="M295.4-130a10.5 10.5 0 1 1 0-21 10.5 10.5 0 0 1 0 21" fill="#fff500E2"/><path d="M66.1-344.4a10.5 10.5 0 1 1 0-21.1 10.5 10.5 0 0 1 0 21.1" fill="#fffE2"/><path d="M179.9 26a10.5 10.5 0 1 1 0-21.1 10.5 10.5 0 0 1 0 21.1" fill="#fff500E2"/><path d="M-50-27.4a10.5 10.5 0 1 1 0-21.1 10.5 10.5 0 0 1 0 21.1" fill="#fffE2"/><path d="M-63.4-46a10.5 10.5 0 1 1 0-21.1 10.5 10.5 0 0 1 0 21.1" fill="#fff500E2"/><path d="M-77.4-232a10.5 10.5 0 1 1 0-21.1 10.5 10.5 0 0 1 0 21.1" fill="#fff500E2"/><path d="M-61-258.3a10.6 10.6 0 1 1 0-21.1 10.6 10.6 0 0 1 0 21.1" fill="#fffE3"/><path d="M-34.4-16.1a10.6 10.6 0 1 1 0-21.2 10.6 10.6 0 0 1 0 21.2" fill="#c2e1ffE4"/><path d="M138.4-337.7a10.6 10.6 0 1 1 0-21.2 10.6 10.6 0 0 1 0 21.2" fill="#005bbbE4"/><path d="M273.6-220.4a10.7 10.7 0 1 1 0-21.3 10.7 10.7 0 0 1 0 21.3" fill="#005bbbE5"/><path d="M103.4 34.6a10.7 10.7 0 1 1 0-21.3 10.7 10.7 0 0 1 0 21.3" fill="#005bbbE5"/><path d="M240.1-31.9a10.7 10.7 0 1 1 0-21.4 10.7 10.7 0 0 1 0 21.4" fill="#005bbbE6"/><path d="M87.6-335.7a10.7 10.7 0 1 1 0-21.4 10.7 10.7 0 0 1 0 21.4" fill="#005bbbE6"/><path d="M-57.8-61.8a10.7 10.7 0 1 1 0-21.5 10.7 10.7 0 0 1 0 21.5" fill="#005bbbE7"/><path d="M9.8-309a10.8 10.8 0 1 1 0-21.5 10.8 10.8 0 0 1 0 21.5" fill="#005bbbE7"/><path d="M275.5-108a10.8 10.8 0 1 1 0-21.5 10.8 10.8 0 0 1 0 21.5" fill="#005bbbE7"/><path d="M99.7 28.8a10.8 10.8 0 1 1 0-21.6 10.8 10.8 0 0 1 0 21.6" fill="#005bbbE7"/><path d="M-54-245.7a10.8 10.8 0 1 1 0-21.5 10.8 10.8 0 0 1 0 21.5" fill="#005bbbE7"/><path d="M95.4 26a10.8 10.8 0 1 1 0-21.6 10.8 10.8 0 0 1 0 21.6" fill="#005bbbE8"/><path d="M72.5-325.9a10.8 10.8 0 1 1 0-21.7 10.8 10.8 0 0 1 0 21.7" fill="#fffE9"/><path d="M82.6 23.6a10.8 10.8 0 1 1 0-21.7 10.8 10.8 0 0 1 0 21.7" fill="#fff500E9"/><path d="M186.2-304.5a10.8 10.8 0 1 1 0-21.7 10.8 10.8 0 0 1 0 21.7" fill="#fffE9"/><path d="M238.5-257.9a10.8 10.8 0 1 1 0-21.7 10.8 10.8 0 0 1 0 21.7" fill="#005bbbE9"/><path d="M32.8 9a10.9 10.9 0 1 1 0-21.7 10.9 10.9 0 0 1 0 21.7" fill="#c2e1ffE9"/><path d="M-28.5-37.4a10.9 10.9 0 1 1 0-21.8 10.9 10.9 0 0 1 0 21.8" fill="#fffEA"/><path d="M242.4-246.4a10.9 10.9 0 1 1 0-21.8 10.9 10.9 0 0 1 0 21.8" fill="#005bbbEA"/><path d="M252.7-220.7a10.9 10.9 0 1 1 0-21.9 10.9 10.9 0 0 1 0 21.9" fill="#c2e1ffEB"/><path d="M223.6-246.1a11.1 11.1 0 1 1 0-22.2 11.1 11.1 0 0 1 0 22.2" fill="#005bbbEE"/><path d="M61.2-299.1a11.1 11.1 0 1 1 0-22.2 11.1 11.1 0 0 1 0 22.2" fill="#fff500EF"/><path d="M90-1.3a11.1 11.1 0 1 1 0-22.3 11.1 11.1 0 0 1 0 22.3" fill="#c2e1ffF0"/><path d="M205.3-50.9a11.2 11.2 0 1 1 0-22.3 11.2 11.2 0 0 1 0 22.3" fill="#fffF1"/><path d="M214.1-63a11.2 11.2 0 1 1 0-22.4 11.2 11.2 0 0 1 0 22.4" fill="#c2e1ffF1"/><path d="M225.4-219.5a11.2 11.2 0 1 1 0-22.4 11.2 11.2 0 0 1 0 22.4" fill="#fff500F1"/><path d="M66.9-14a11.2 11.2 0 1 1 0-22.4 11.2 11.2 0 0 1 0 22.4" fill="#fffF2"/><path d="M236.9-146.8a11.3 11.3 0 1 1 0-22.5 11.3 11.3 0 0 1 0 22.5" fill="#fff500F2"/><path d="M-14.9-77a11.3 11.3 0 1 1 0-22.5 11.3 11.3 0 0 1 0 22.5" fill="#005bbbF2"/><path d="M173.4-36.3a11.3 11.3 0 1 1 0-22.6 11.3 11.3 0 0 1 0 22.6" fill="#fff500F3"/><path d="M234.9-168.6a11.3 11.3 0 1 1 0-22.6 11.3 11.3 0 0 1 0 22.6" fill="#c2e1ffF3"/><path d="M188.3-254.5a11.3 11.3 0 1 1 0-22.6 11.3 11.3 0 0 1 0 22.6" fill="#005bbbF3"/><path d="M89.5-18.3a11.3 11.3 0 1 1 0-22.6 11.3 11.3 0 0 1 0 22.6" fill="#fff500F3"/><path d="M19.5-46a11.3 11.3 0 1 1 0-22.7 11.3 11.3 0 0 1 0 22.7" fill="#c2e1ffF3"/><path d="M155.6-39.4a11.4 11.4 0 1 1 0-22.7 11.4 11.4 0 0 1 0 22.7" fill="#c2e1ffF5"/><path d="M136.2-36.9a11.4 11.4 0 1 1 0-22.8 11.4 11.4 0 0 1 0 22.8" fill="#005bbbF6"/><path d="M126.4-255.1a11.5 11.5 0 1 1 0-22.9 11.5 11.5 0 0 1 0 22.9" fill="#fff500F7"/><path d="M173.5-101.9a11.6 11.6 0 1 1 0-23.2 11.6 11.6 0 0 1 0 23.2" fill="#fff500FA"/><path d="M183-122.7a11.6 11.6 0 1 1 0-23.2 11.6 11.6 0 0 1 0 23.2" fill="#fffFA"/><path d="M148.7-80.3a11.6 11.6 0 1 1 0-23.3 11.6 11.6 0 0 1 0 23.3" fill="#005bbbFA"/><path d="M46.9-167.4a11.7 11.7 0 1 1 0-23.4 11.7 11.7 0 0 1 0 23.4" fill="#005bbbFD"/><path d="M118.6-138.3a11.8 11.8 0 1 1 0-23.6 11.8 11.8 0 0 1 0 23.6" fill="#fff500FE"/></g></svg>