<svg width="1200" height="675" viewBox="-500 -500 1200 675" xmlns="http://www.w3.org/2000/svg"><path d="M-500-500h1200v675h-1200z" fill="#000"/><style>.sparkles path{stroke-linecap:round; stroke-width:1}</style><g class="sparkles"><path d="M100-162.5l-6.3 21.2" stroke="#fff32"/><path d="M100-162.5l-26.3 28.2" stroke="#c2e1ff32"/><path d="M100-162.5l-70.9-25.8" stroke="#fff50034"/><path d="M100-162.5l8.7 81.1" stroke="#005bbb35"/><path d="M100-162.5l32-82.5" stroke="#005bbb35"/><path d="M100-162.5l-86.9 31.5" stroke="#fff50035"/><path d="M100-162.5l-90.3-37.9" stroke="#fff50036"/><path d="M100-162.5l-3-98.8" stroke="#fff50036"/><path d="M100-162.5l-105 53" stroke="#005bbb38"/><path d="M100-162.5l-87.7 79.4" stroke="#fff38"/><path d="M100-162.5l117.8-51.6" stroke="#fff5003A"/><path d="M100-162.5l-44.4-125" stroke="#fff5003A"/><path d="M100-162.5l-132.7 16.8" stroke="#005bbb3A"/><path d="M100-162.5l-125.6 78.9" stroke="#fff5003D"/><path d="M100-162.5l107.2 110.5" stroke="#005bbb3E"/><path d="M100-162.5l-82.6-131.4" stroke="#fff3E"/><path d="M100-162.5l-90.2 133.2" stroke="#005bbb3F"/><path d="M100-162.5l161.9 0" stroke="#005bbb3F"/><path d="M100-162.5l139.6-95.9" stroke="#c2e1ff41"/><path d="M100-162.5l157.1-63.4" stroke="#fff41"/><path d="M100-162.5l134.9-105.9" stroke="#005bbb41"/><path d="M100-162.5l83.4 151.9" stroke="#005bbb42"/><path d="M100-162.5l71-166.5" stroke="#005bbb43"/><path d="M100-162.5l177.7-34.7" stroke="#fff43"/><path d="M100-162.5l-19.7-180.8" stroke="#c2e1ff44"/><path d="M100-162.5l-178.9-39.6" stroke="#fff50044"/><path d="M100-162.5l177.6 48.8" stroke="#fff44"/><path d="M100-162.5l-85.3 168.9" stroke="#005bbb46"/><path d="M100-162.5l-113.8 152.1" stroke="#c2e1ff46"/><path d="M100-162.5l-1.6-190.2" stroke="#fff50046"/><path d="M100-162.5l-58.7 182.7" stroke="#fff50046"/><path d="M100-162.5l185.7-55.3" stroke="#fff47"/><path d="M100-162.5l-129.5 147.8" stroke="#005bbb48"/><path d="M100-162.5l-109.7-163.4" stroke="#c2e1ff48"/><path d="M100-162.5l108.3 165" stroke="#fff50048"/><path d="M100-162.5l-186.7-71.1" stroke="#fff50049"/><path d="M100-162.5l-16.3-199.2" stroke="#fff49"/><path d="M100-162.5l198.7-24.6" stroke="#c2e1ff49"/><path d="M100-162.5l52.7-194.6" stroke="#fff50049"/><path d="M100-162.5l-26.7-201.4" stroke="#fff5004A"/><path d="M100-162.5l99 179.7" stroke="#fff4B"/><path d="M100-162.5l-199.2 66.9" stroke="#c2e1ff4D"/><path d="M100-162.5l109.5 182.2" stroke="#fff5004E"/><path d="M100-162.5l-214.5-7.7" stroke="#fff4F"/><path d="M100-162.5l-55.9-207.6" stroke="#fff5004F"/><path d="M100-162.5l83.8 198.5" stroke="#c2e1ff4F"/><path d="M100-162.5l182.9-114.9" stroke="#fff5004F"/><path d="M100-162.5l194.3-95.3" stroke="#005bbb4F"/><path d="M100-162.5l-56.1-209.5" stroke="#005bbb50"/><path d="M100-162.5l-209.9-58.6" stroke="#fff50"/><path d="M100-162.5l143.3-164.5" stroke="#fff50"/><path d="M100-162.5l-219.7-9" stroke="#c2e1ff51"/><path d="M100-162.5l-156.9 154.2" stroke="#fff51"/><path d="M100-162.5l151.5 162.9" stroke="#c2e1ff53"/><path d="M100-162.5l208.9 76.5" stroke="#005bbb53"/><path d="M100-162.5l-92.9-202.2" stroke="#005bbb53"/><path d="M100-162.5l82.4 206.8" stroke="#c2e1ff53"/><path d="M100-162.5l188-120.1" stroke="#c2e1ff53"/><path d="M100-162.5l-125.7 185.9" stroke="#c2e1ff54"/><path d="M100-162.5l-151.4-167.4" stroke="#c2e1ff55"/><path d="M100-162.5l-167.1 153.9" stroke="#c2e1ff56"/><path d="M100-162.5l-226.6-18.6" stroke="#005bbb56"/><path d="M100-162.5l225.6 30.5" stroke="#fff56"/><path d="M100-162.5l-216.7 69.7" stroke="#005bbb56"/><path d="M100-162.5l94.2 207.4" stroke="#005bbb56"/><path d="M100-162.5l-58.3 221.1" stroke="#c2e1ff57"/><path d="M100-162.5l-110-200.5" stroke="#fff50057"/><path d="M100-162.5l-14 228.2" stroke="#fff57"/><path d="M100-162.5l-171.4 152.2" stroke="#fff50057"/><path d="M100-162.5l-115 198.9" stroke="#005bbb58"/><path d="M100-162.5l-178.7 145.6" stroke="#fff50059"/><path d="M100-162.5l-119.3 198.3" stroke="#fff50059"/><path d="M100-162.5l-212.2 93.6" stroke="#fff5A"/><path d="M100-162.5l-132.4 190.7" stroke="#c2e1ff5A"/><path d="M100-162.5l208.4-102.7" stroke="#fff5005A"/><path d="M100-162.5l-224 62.5" stroke="#fff5005B"/><path d="M100-162.5l-139.6-186.1" stroke="#fff5B"/><path d="M100-162.5l-186.9-139.3" stroke="#005bbb5B"/><path d="M100-162.5l-233.5-3.3" stroke="#c2e1ff5C"/><path d="M100-162.5l124.4-198" stroke="#005bbb5C"/><path d="M100-162.5l199-122.8" stroke="#fff5C"/><path d="M100-162.5l-79.8 220.4" stroke="#fff5D"/><path d="M100-162.5l135.5 192.1" stroke="#c2e1ff5E"/><path d="M100-162.5l-100.5 212.7" stroke="#005bbb5F"/><path d="M100-162.5l-62.1 227.3" stroke="#fff50060"/><path d="M100-162.5l232.6-38.2" stroke="#005bbb60"/><path d="M100-162.5l143.3 187.4" stroke="#c2e1ff61"/><path d="M100-162.5l-235.3 18.8" stroke="#005bbb61"/><path d="M100-162.5l-234.4-29.2" stroke="#005bbb62"/><path d="M100-162.5l21.9-235.2" stroke="#c2e1ff63"/><path d="M100-162.5l-219.1 88.3" stroke="#005bbb63"/><path d="M100-162.5l52.2 230.4" stroke="#c2e1ff64"/><path d="M100-162.5l110 208.8" stroke="#005bbb66"/><path d="M100-162.5l196.5-130.8" stroke="#fff50066"/><path d="M100-162.5l-157.7-175.6" stroke="#fff50066"/><path d="M100-162.5l14.6-235.5" stroke="#c2e1ff66"/><path d="M100-162.5l235.4-11.8" stroke="#c2e1ff67"/><path d="M100-162.5l235.4 11.8" stroke="#fff50067"/><path d="M100-162.5l116.5-203.9" stroke="#c2e1ff69"/><path d="M100-162.5l125.2 198.7" stroke="#fff50069"/><path d="M100-162.5l217.4-88.7" stroke="#fff50069"/><path d="M100-162.5l-226.1 61.8" stroke="#005bbb6A"/><path d="M100-162.5l-184.1 144.9" stroke="#005bbb6A"/><path d="M100-162.5l215.6-90" stroke="#fff6B"/><path d="M100-162.5l-42.5-228.9" stroke="#fff5006C"/><path d="M100-162.5l-123.3-197.4" stroke="#005bbb6C"/><path d="M100-162.5l-167.6-161.3" stroke="#c2e1ff6C"/><path d="M100-162.5l-223.1 63.8" stroke="#fff6D"/><path d="M100-162.5l220.6 71.7" stroke="#fff5006D"/><path d="M100-162.5l114.2 201.9" stroke="#c2e1ff6D"/><path d="M100-162.5l-230.6 21.1" stroke="#c2e1ff6D"/><path d="M100-162.5l49 225.9" stroke="#c2e1ff6E"/><path d="M100-162.5l-54.3 223.3" stroke="#fff5006F"/><path d="M100-162.5l-49.5 223.9" stroke="#c2e1ff6F"/><path d="M100-162.5l-226.9 32.4" stroke="#c2e1ff70"/><path d="M100-162.5l-204.6 103.1" stroke="#fff70"/><path d="M100-162.5l-140-181.1" stroke="#fff50070"/><path d="M100-162.5l-155.1-167.6" stroke="#005bbb70"/><path d="M100-162.5l-130.8-187" stroke="#fff70"/><path d="M100-162.5l226.1-21.3" stroke="#005bbb71"/><path d="M100-162.5l-226-19.4" stroke="#005bbb71"/><path d="M100-162.5l65.8-215.7" stroke="#c2e1ff72"/><path d="M100-162.5l-82.3 209.4" stroke="#005bbb73"/><path d="M100-162.5l-158.5-158.4" stroke="#005bbb73"/><path d="M100-162.5l72.4-211" stroke="#c2e1ff74"/><path d="M100-162.5l-112.2 191.4" stroke="#fff75"/><path d="M100-162.5l16.7 219.6" stroke="#fff50076"/><path d="M100-162.5l-214.6 48.3" stroke="#fff50076"/><path d="M100-162.5l-146.8 162.3" stroke="#fff50076"/><path d="M100-162.5l-39.1-213.2" stroke="#005bbb77"/><path d="M100-162.5l129.8-171.4" stroke="#fff78"/><path d="M100-162.5l-91.1-194.1" stroke="#005bbb78"/><path d="M100-162.5l-210.1 39.5" stroke="#fff79"/><path d="M100-162.5l199.1-57.2" stroke="#005bbb7C"/><path d="M100-162.5l-99.7 181.6" stroke="#fff5007C"/><path d="M100-162.5l194.1-70" stroke="#fff5007C"/><path d="M100-162.5l-135.2-155.4" stroke="#005bbb7C"/><path d="M100-162.5l-93.1-180.1" stroke="#fff7D"/><path d="M100-162.5l-4.7-200.8" stroke="#fff5007E"/><path d="M100-162.5l-153.4 125.4" stroke="#c2e1ff7F"/><path d="M100-162.5l-182.9 72.3" stroke="#c2e1ff7F"/><path d="M100-162.5l88 168.4" stroke="#c2e1ff81"/><path d="M100-162.5l189.3-9.2" stroke="#005bbb81"/><path d="M100-162.5l-164.5-94.2" stroke="#fff81"/><path d="M100-162.5l-93.9 160.6" stroke="#fff50082"/><path d="M100-162.5l-5.2-185.9" stroke="#005bbb82"/><path d="M100-162.5l-172.5 64.2" stroke="#fff83"/><path d="M100-162.5l29.9 178.1" stroke="#005bbb84"/><path d="M100-162.5l82.9 153.2" stroke="#005bbb85"/><path d="M100-162.5l71.5-158.6" stroke="#005bbb85"/><path d="M100-162.5l-173.5 11" stroke="#c2e1ff85"/><path d="M100-162.5l169.5 27.1" stroke="#c2e1ff86"/><path d="M100-162.5l-160.2 52.2" stroke="#c2e1ff87"/><path d="M100-162.5l109.2-127" stroke="#c2e1ff87"/><path d="M100-162.5l156.4-56.3" stroke="#fff50087"/><path d="M100-162.5l122.5-102.8" stroke="#c2e1ff88"/><path d="M100-162.5l-154.8 34.9" stroke="#fff50089"/><path d="M100-162.5l110.5-110.3" stroke="#fff50089"/><path d="M100-162.5l142.3-54.8" stroke="#fff5008A"/><path d="M100-162.5l-105.4-108.8" stroke="#fff5008A"/><path d="M100-162.5l57.8-138.8" stroke="#fff8A"/><path d="M100-162.5l145.3 19.1" stroke="#c2e1ff8B"/><path d="M100-162.5l71.4-127.5" stroke="#c2e1ff8B"/><path d="M100-162.5l-87.6 116.9" stroke="#005bbb8B"/><path d="M100-162.5l135.7-45.1" stroke="#fff8B"/><path d="M100-162.5l55.5 122.9" stroke="#c2e1ff8D"/><path d="M100-162.5l20.5 132.7" stroke="#fff5008D"/><path d="M100-162.5l-92 82.7" stroke="#005bbb8E"/><path d="M100-162.5l-33.4 117.7" stroke="#005bbb8E"/><path d="M100-162.5l-18.3 119.9" stroke="#005bbb8E"/><path d="M100-162.5l115.4-1.1" stroke="#005bbb8F"/><path d="M100-162.5l-114.1-6.1" stroke="#fff8F"/><path d="M100-162.5l-86.2-71.9" stroke="#005bbb8F"/><path d="M100-162.5l-98-45.2" stroke="#fff50090"/><path d="M100-162.5l83.5-44.4" stroke="#fff91"/><path d="M100-162.5l-19.1-92.1" stroke="#fff50091"/><path d="M100-162.5l20.9 64" stroke="#fff93"/><path d="M100-162.5l-30.1 58.7" stroke="#fff94"/><path d="M100-162.5l-8.9-60.3" stroke="#c2e1ff94"/><path d="M100-162.5l-58.5-2.7" stroke="#c2e1ff94"/><path d="M100-162.5l-9.8-5.4" stroke="#005bbb95"/></g><g class="sparcs"><path d="M93.7-135.4a5.9 5.9 0 1 1 0-11.8 5.9 5.9 0 0 1 0 11.8" fill="#005bbb7D"/><path d="M73.7-128.3a5.9 5.9 0 1 1 0-11.9 5.9 5.9 0 0 1 0 11.9" fill="#fff7D"/><path d="M29.1-182.2a6.1 6.1 0 1 1 0-12.2 6.1 6.1 0 0 1 0 12.2" fill="#fff50080"/><path d="M108.7-75.4a6.1 6.1 0 1 1 0-12.1 6.1 6.1 0 0 1 0 12.1" fill="#fff50080"/><path d="M132-238.9a6.1 6.1 0 1 1 0-12.2 6.1 6.1 0 0 1 0 12.2" fill="#fff81"/><path d="M13.1-124.9a6.1 6.1 0 1 1 0-12.3 6.1 6.1 0 0 1 0 12.3" fill="#fff50082"/><path d="M9.7-194.2a6.2 6.2 0 1 1 0-12.4 6.2 6.2 0 0 1 0 12.4" fill="#005bbb82"/><path d="M97-255.2a6.2 6.2 0 1 1 0-12.3 6.2 6.2 0 0 1 0 12.3" fill="#005bbb82"/><path d="M-5-103.2a6.3 6.3 0 1 1 0-12.6 6.3 6.3 0 0 1 0 12.6" fill="#c2e1ff85"/><path d="M12.3-76.8a6.3 6.3 0 1 1 0-12.6 6.3 6.3 0 0 1 0 12.6" fill="#fff85"/><path d="M217.8-207.8a6.4 6.4 0 1 1 0-12.7 6.4 6.4 0 0 1 0 12.7" fill="#c2e1ff87"/><path d="M55.6-281a6.4 6.4 0 1 1 0-12.9 6.4 6.4 0 0 1 0 12.9" fill="#005bbb88"/><path d="M-32.7-139.3a6.4 6.4 0 1 1 0-12.9 6.4 6.4 0 0 1 0 12.9" fill="#fff50088"/><path d="M-25.6-77.1a6.6 6.6 0 1 1 0-13.1 6.6 6.6 0 0 1 0 13.1" fill="#c2e1ff8B"/><path d="M207.2-45.4a6.6 6.6 0 1 1 0-13.2 6.6 6.6 0 0 1 0 13.2" fill="#005bbb8C"/><path d="M17.4-287.3a6.6 6.6 0 1 1 0-13.3 6.6 6.6 0 0 1 0 13.3" fill="#c2e1ff8D"/><path d="M9.8-22.6a6.7 6.7 0 1 1 0-13.4 6.7 6.7 0 0 1 0 13.4" fill="#fff5008E"/><path d="M261.9-155.8a6.7 6.7 0 1 1 0-13.4 6.7 6.7 0 0 1 0 13.4" fill="#fff8E"/><path d="M239.6-251.6a6.8 6.8 0 1 1 0-13.6 6.8 6.8 0 0 1 0 13.6" fill="#fff50090"/><path d="M257.1-219.1a6.8 6.8 0 1 1 0-13.6 6.8 6.8 0 0 1 0 13.6" fill="#005bbb90"/><path d="M234.9-261.6a6.8 6.8 0 1 1 0-13.6 6.8 6.8 0 0 1 0 13.6" fill="#005bbb91"/><path d="M183.4-3.7a6.9 6.9 0 1 1 0-13.7 6.9 6.9 0 0 1 0 13.7" fill="#fff50091"/><path d="M171-322.1a7 7 0 1 1 0-13.9 7 7 0 0 1 0 13.9" fill="#005bbb94"/><path d="M277.7-190.3a7 7 0 1 1 0-13.9 7 7 0 0 1 0 13.9" fill="#fff94"/><path d="M80.3-336.3a7 7 0 1 1 0-14 7 7 0 0 1 0 14" fill="#fff50094"/><path d="M-78.9-195.1a7 7 0 1 1 0-14 7 7 0 0 1 0 14" fill="#005bbb94"/><path d="M277.6-106.7a7 7 0 1 1 0-14 7 7 0 0 1 0 14" fill="#fff95"/><path d="M14.7 13.5a7.1 7.1 0 1 1 0-14.2 7.1 7.1 0 0 1 0 14.2" fill="#c2e1ff97"/><path d="M-13.8-3.3a7.1 7.1 0 1 1 0-14.3 7.1 7.1 0 0 1 0 14.3" fill="#005bbb97"/><path d="M98.4-345.6a7.1 7.1 0 1 1 0-14.2 7.1 7.1 0 0 1 0 14.2" fill="#fff97"/><path d="M41.3 27.4a7.1 7.1 0 1 1 0-14.3 7.1 7.1 0 0 1 0 14.3" fill="#c2e1ff98"/><path d="M285.7-210.6a7.2 7.2 0 1 1 0-14.4 7.2 7.2 0 0 1 0 14.4" fill="#c2e1ff98"/><path d="M-29.5-7.5a7.2 7.2 0 1 1 0-14.5 7.2 7.2 0 0 1 0 14.5" fill="#005bbb99"/><path d="M-9.7-318.7a7.2 7.2 0 1 1 0-14.5 7.2 7.2 0 0 1 0 14.5" fill="#fff5009A"/><path d="M208.3 9.8a7.2 7.2 0 1 1 0-14.5 7.2 7.2 0 0 1 0 14.5" fill="#fff9A"/><path d="M-86.7-226.3a7.3 7.3 0 1 1 0-14.6 7.3 7.3 0 0 1 0 14.6" fill="#005bbb9B"/><path d="M83.7-354.4a7.3 7.3 0 1 1 0-14.6 7.3 7.3 0 0 1 0 14.6" fill="#c2e1ff9B"/><path d="M298.7-179.8a7.3 7.3 0 1 1 0-14.6 7.3 7.3 0 0 1 0 14.6" fill="#fff9B"/><path d="M152.7-349.8a7.3 7.3 0 1 1 0-14.6 7.3 7.3 0 0 1 0 14.6" fill="#c2e1ff9C"/><path d="M73.3-356.6a7.4 7.4 0 1 1 0-14.7 7.4 7.4 0 0 1 0 14.7" fill="#005bbb9C"/><path d="M199 24.6a7.4 7.4 0 1 1 0-14.8 7.4 7.4 0 0 1 0 14.8" fill="#fff5009D"/><path d="M-99.2-88.1a7.5 7.5 0 1 1 0-15 7.5 7.5 0 0 1 0 15" fill="#fffA0"/><path d="M209.5 27.3a7.6 7.6 0 1 1 0-15.1 7.6 7.6 0 0 1 0 15.1" fill="#fff500A1"/><path d="M-114.5-162.5a7.6 7.6 0 1 1 0-15.3 7.6 7.6 0 0 1 0 15.3" fill="#005bbbA2"/><path d="M44.1-362.5a7.6 7.6 0 1 1 0-15.2 7.6 7.6 0 0 1 0 15.2" fill="#c2e1ffA3"/><path d="M183.8 43.7a7.6 7.6 0 1 1 0-15.3 7.6 7.6 0 0 1 0 15.3" fill="#fffA3"/><path d="M282.9-269.7a7.7 7.7 0 1 1 0-15.4 7.7 7.7 0 0 1 0 15.4" fill="#005bbbA3"/><path d="M294.3-250.2a7.7 7.7 0 1 1 0-15.3 7.7 7.7 0 0 1 0 15.3" fill="#fffA3"/><path d="M43.9-364.3a7.7 7.7 0 1 1 0-15.3 7.7 7.7 0 0 1 0 15.3" fill="#fffA4"/><path d="M-109.9-213.4a7.7 7.7 0 1 1 0-15.5 7.7 7.7 0 0 1 0 15.5" fill="#c2e1ffA4"/><path d="M243.3-319.2a7.7 7.7 0 1 1 0-15.5 7.7 7.7 0 0 1 0 15.5" fill="#fffA5"/><path d="M-119.7-163.8a7.8 7.8 0 1 1 0-15.5 7.8 7.8 0 0 1 0 15.5" fill="#c2e1ffA6"/><path d="M-56.9-0.5a7.8 7.8 0 1 1 0-15.5 7.8 7.8 0 0 1 0 15.5" fill="#fff500A6"/><path d="M251.5 8.2a7.9 7.9 0 1 1 0-15.7 7.9 7.9 0 0 1 0 15.7" fill="#005bbbA8"/><path d="M308.9-78.2a7.9 7.9 0 1 1 0-15.7 7.9 7.9 0 0 1 0 15.7" fill="#c2e1ffA8"/><path d="M7.1-356.8a7.9 7.9 0 1 1 0-15.8 7.9 7.9 0 0 1 0 15.8" fill="#005bbbA8"/><path d="M182.4 52.2a7.9 7.9 0 1 1 0-15.8 7.9 7.9 0 0 1 0 15.8" fill="#c2e1ffA8"/><path d="M288-274.7a7.9 7.9 0 1 1 0-15.8 7.9 7.9 0 0 1 0 15.8" fill="#005bbbA8"/><path d="M-25.7 31.3a7.9 7.9 0 1 1 0-15.8 7.9 7.9 0 0 1 0 15.8" fill="#005bbbA9"/><path d="M-51.4-321.9a8 8 0 1 1 0-16 8 8 0 0 1 0 16" fill="#fff500AA"/><path d="M-67.1-0.5a8.1 8.1 0 1 1 0-16.1 8.1 8.1 0 0 1 0 16.1" fill="#c2e1ffAC"/><path d="M-126.6-173.1a8.1 8.1 0 1 1 0-16.1 8.1 8.1 0 0 1 0 16.1" fill="#fff500AC"/><path d="M325.6-123.9a8.1 8.1 0 1 1 0-16.2 8.1 8.1 0 0 1 0 16.2" fill="#005bbbAC"/><path d="M-116.7-84.7a8.1 8.1 0 1 1 0-16.1 8.1 8.1 0 0 1 0 16.1" fill="#005bbbAC"/><path d="M194.2 53a8.1 8.1 0 1 1 0-16.2 8.1 8.1 0 0 1 0 16.2" fill="#005bbbAC"/><path d="M41.7 66.7a8.1 8.1 0 1 1 0-16.2 8.1 8.1 0 0 1 0 16.2" fill="#fff500AD"/><path d="M-10-354.9a8.1 8.1 0 1 1 0-16.2 8.1 8.1 0 0 1 0 16.2" fill="#fff500AD"/><path d="M86 73.9a8.1 8.1 0 1 1 0-16.3 8.1 8.1 0 0 1 0 16.3" fill="#fff500AD"/><path d="M-71.4-2.1a8.1 8.1 0 1 1 0-16.3 8.1 8.1 0 0 1 0 16.3" fill="#fffAE"/><path d="M-15 44.6a8.2 8.2 0 1 1 0-16.4 8.2 8.2 0 0 1 0 16.4" fill="#c2e1ffAE"/><path d="M-78.7-8.7a8.2 8.2 0 1 1 0-16.4 8.2 8.2 0 0 1 0 16.4" fill="#005bbbAF"/><path d="M-19.3 44a8.3 8.3 0 1 1 0-16.5 8.3 8.3 0 0 1 0 16.5" fill="#c2e1ffB0"/><path d="M-112.2-60.6a8.3 8.3 0 1 1 0-16.6 8.3 8.3 0 0 1 0 16.6" fill="#fffB1"/><path d="M-32.4 36.5a8.3 8.3 0 1 1 0-16.6 8.3 8.3 0 0 1 0 16.6" fill="#fffB1"/><path d="M308.4-256.9a8.3 8.3 0 1 1 0-16.6 8.3 8.3 0 0 1 0 16.6" fill="#fffB2"/><path d="M-124-91.6a8.3 8.3 0 1 1 0-16.7 8.3 8.3 0 0 1 0 16.7" fill="#005bbbB2"/><path d="M-39.6-340.3a8.3 8.3 0 1 1 0-16.7 8.3 8.3 0 0 1 0 16.7" fill="#c2e1ffB2"/><path d="M-86.9-293.5a8.4 8.4 0 1 1 0-16.7 8.4 8.4 0 0 1 0 16.7" fill="#fffB3"/><path d="M-133.5-157.3a8.4 8.4 0 1 1 0-16.9 8.4 8.4 0 0 1 0 16.9" fill="#fff500B4"/><path d="M224.4-352a8.4 8.4 0 1 1 0-16.9 8.4 8.4 0 0 1 0 16.9" fill="#005bbbB4"/><path d="M299-276.9a8.4 8.4 0 1 1 0-16.9 8.4 8.4 0 0 1 0 16.9" fill="#c2e1ffB4"/><path d="M20.2 66.4a8.5 8.5 0 1 1 0-17 8.5 8.5 0 0 1 0 17" fill="#fffB5"/><path d="M235.5 38.2a8.6 8.6 0 1 1 0-17.2 8.6 8.6 0 0 1 0 17.2" fill="#c2e1ffB7"/><path d="M-0.5 58.8a8.6 8.6 0 1 1 0-17.2 8.6 8.6 0 0 1 0 17.2" fill="#c2e1ffB7"/><path d="M37.9 73.5a8.6 8.6 0 1 1 0-17.3 8.6 8.6 0 0 1 0 17.3" fill="#005bbbB9"/><path d="M332.6-192a8.7 8.7 0 1 1 0-17.4 8.7 8.7 0 0 1 0 17.4" fill="#fff500B9"/><path d="M243.3 33.6a8.7 8.7 0 1 1 0-17.4 8.7 8.7 0 0 1 0 17.4" fill="#fffBA"/><path d="M-135.3-135a8.7 8.7 0 1 1 0-17.4 8.7 8.7 0 0 1 0 17.4" fill="#fffBB"/><path d="M-134.4-183a8.8 8.8 0 1 1 0-17.5 8.8 8.8 0 0 1 0 17.5" fill="#005bbbBC"/><path d="M121.9-388.9a8.9 8.9 0 1 1 0-17.7 8.9 8.9 0 0 1 0 17.7" fill="#c2e1ffBD"/><path d="M-119.1-65.4a8.9 8.9 0 1 1 0-17.7 8.9 8.9 0 0 1 0 17.7" fill="#fffBD"/><path d="M152.2 76.8a8.9 8.9 0 1 1 0-17.8 8.9 8.9 0 0 1 0 17.8" fill="#fff500BE"/><path d="M210 55.3a9 9 0 1 1 0-17.9 9 9 0 0 1 0 17.9" fill="#005bbbC0"/><path d="M296.5-284.3a9 9 0 1 1 0-18 9 9 0 0 1 0 18" fill="#fffC0"/><path d="M-57.7-329.1a9 9 0 1 1 0-17.9 9 9 0 0 1 0 17.9" fill="#c2e1ffC1"/><path d="M114.6-389a9 9 0 1 1 0-18 9 9 0 0 1 0 18" fill="#c2e1ffC1"/><path d="M335.4-165.2a9.1 9.1 0 1 1 0-18.1 9.1 9.1 0 0 1 0 18.1" fill="#005bbbC2"/><path d="M335.4-141.7a9.1 9.1 0 1 1 0-18.1 9.1 9.1 0 0 1 0 18.1" fill="#c2e1ffC2"/><path d="M216.5-357.2a9.2 9.2 0 1 1 0-18.4 9.2 9.2 0 0 1 0 18.4" fill="#fffC5"/><path d="M225.2 45.4a9.2 9.2 0 1 1 0-18.4 9.2 9.2 0 0 1 0 18.4" fill="#fff500C5"/><path d="M317.4-242a9.2 9.2 0 1 1 0-18.3 9.2 9.2 0 0 1 0 18.3" fill="#fff500C5"/><path d="M-126.1-91.5a9.2 9.2 0 1 1 0-18.4 9.2 9.2 0 0 1 0 18.4" fill="#005bbbC6"/><path d="M-84.1-8.4a9.2 9.2 0 1 1 0-18.5 9.2 9.2 0 0 1 0 18.5" fill="#fff500C6"/><path d="M315.6-243.2a9.3 9.3 0 1 1 0-18.6 9.3 9.3 0 0 1 0 18.6" fill="#005bbbC7"/><path d="M57.5-382.1a9.4 9.4 0 1 1 0-18.7 9.4 9.4 0 0 1 0 18.7" fill="#c2e1ffC9"/><path d="M-23.3-350.6a9.4 9.4 0 1 1 0-18.7 9.4 9.4 0 0 1 0 18.7" fill="#c2e1ffC9"/><path d="M-67.6-314.5a9.4 9.4 0 1 1 0-18.7 9.4 9.4 0 0 1 0 18.7" fill="#fff500C9"/><path d="M-123.1-89.3a9.4 9.4 0 1 1 0-18.8 9.4 9.4 0 0 1 0 18.8" fill="#fff500CA"/><path d="M320.6-81.3a9.4 9.4 0 1 1 0-18.9 9.4 9.4 0 0 1 0 18.9" fill="#005bbbCA"/><path d="M214.2 48.8a9.4 9.4 0 1 1 0-18.9 9.4 9.4 0 0 1 0 18.9" fill="#fffCA"/><path d="M-130.6-132a9.4 9.4 0 1 1 0-18.9 9.4 9.4 0 0 1 0 18.9" fill="#fff500CA"/><path d="M149 72.8a9.5 9.5 0 1 1 0-18.9 9.5 9.5 0 0 1 0 18.9" fill="#fff500CB"/><path d="M45.7 70.3a9.5 9.5 0 1 1 0-19 9.5 9.5 0 0 1 0 19" fill="#fff500CD"/><path d="M50.5 71a9.6 9.6 0 1 1 0-19.1 9.6 9.6 0 0 1 0 19.1" fill="#005bbbCD"/><path d="M-126.9-120.5a9.6 9.6 0 1 1 0-19.1 9.6 9.6 0 0 1 0 19.1" fill="#fff500CD"/><path d="M-104.6-49.8a9.6 9.6 0 1 1 0-19.2 9.6 9.6 0 0 1 0 19.2" fill="#005bbbCD"/><path d="M-40-334a9.6 9.6 0 1 1 0-19.2 9.6 9.6 0 0 1 0 19.2" fill="#c2e1ffCE"/><path d="M-55.1-320.5a9.6 9.6 0 1 1 0-19.2 9.6 9.6 0 0 1 0 19.2" fill="#c2e1ffCE"/><path d="M-30.8-339.9a9.6 9.6 0 1 1 0-19.2 9.6 9.6 0 0 1 0 19.2" fill="#c2e1ffCE"/><path d="M326.1-174.1a9.7 9.7 0 1 1 0-19.4 9.7 9.7 0 0 1 0 19.4" fill="#c2e1ffCF"/><path d="M-126-172.3a9.7 9.7 0 1 1 0-19.3 9.7 9.7 0 0 1 0 19.3" fill="#c2e1ffD0"/><path d="M165.8-368.4a9.7 9.7 0 1 1 0-19.5 9.7 9.7 0 0 1 0 19.5" fill="#fff500D1"/><path d="M17.7 56.7a9.8 9.8 0 1 1 0-19.6 9.8 9.8 0 0 1 0 19.6" fill="#fff500D1"/><path d="M-58.5-311.1a9.8 9.8 0 1 1 0-19.6 9.8 9.8 0 0 1 0 19.6" fill="#005bbbD2"/><path d="M172.4-363.7a9.8 9.8 0 1 1 0-19.7 9.8 9.8 0 0 1 0 19.7" fill="#fff500D3"/><path d="M-12.2 38.8a9.9 9.9 0 1 1 0-19.7 9.9 9.9 0 0 1 0 19.7" fill="#005bbbD4"/><path d="M116.7 67a9.9 9.9 0 1 1 0-19.8 9.9 9.9 0 0 1 0 19.8" fill="#005bbbD5"/><path d="M-114.6-104.3a9.9 9.9 0 1 1 0-19.8 9.9 9.9 0 0 1 0 19.8" fill="#c2e1ffD5"/><path d="M-46.8 9.8a10 10 0 1 1 0-20 10 10 0 0 1 0 20" fill="#005bbbD6"/><path d="M60.9-365.7a10 10 0 1 1 0-20.1 10 10 0 0 1 0 20.1" fill="#fff500D7"/><path d="M229.8-323.8a10.1 10.1 0 1 1 0-20.2 10.1 10.1 0 0 1 0 20.2" fill="#fffD8"/><path d="M8.9-346.5a10.1 10.1 0 1 1 0-20.2 10.1 10.1 0 0 1 0 20.2" fill="#fffD9"/><path d="M-110.1-112.9a10.1 10.1 0 1 1 0-20.2 10.1 10.1 0 0 1 0 20.2" fill="#c2e1ffD9"/><path d="M299.1-209.4a10.3 10.3 0 1 1 0-20.6 10.3 10.3 0 0 1 0 20.6" fill="#fffDD"/><path d="M0.3 29.3a10.3 10.3 0 1 1 0-20.5 10.3 10.3 0 0 1 0 20.5" fill="#005bbbDD"/><path d="M294.1-222.2a10.3 10.3 0 1 1 0-20.6 10.3 10.3 0 0 1 0 20.6" fill="#c2e1ffDD"/><path d="M-35.2-307.6a10.3 10.3 0 1 1 0-20.6 10.3 10.3 0 0 1 0 20.6" fill="#c2e1ffDD"/><path d="M6.9-332.2a10.4 10.4 0 1 1 0-20.8 10.4 10.4 0 0 1 0 20.8" fill="#fffDF"/><path d="M95.3-352.9a10.4 10.4 0 1 1 0-20.8 10.4 10.4 0 0 1 0 20.8" fill="#fffE0"/><path d="M-53.4-26.6a10.5 10.5 0 1 1 0-20.9 10.5 10.5 0 0 1 0 20.9" fill="#fff500E1"/><path d="M-82.9-79.7a10.5 10.5 0 1 1 0-21 10.5 10.5 0 0 1 0 21" fill="#005bbbE2"/><path d="M188 16.5a10.6 10.6 0 1 1 0-21.2 10.6 10.6 0 0 1 0 21.2" fill="#005bbbE4"/><path d="M289.3-161.1a10.6 10.6 0 1 1 0-21.2 10.6 10.6 0 0 1 0 21.2" fill="#fff500E4"/><path d="M-64.5-246a10.6 10.6 0 1 1 0-21.3 10.6 10.6 0 0 1 0 21.3" fill="#005bbbE4"/><path d="M6.1 8.8a10.7 10.7 0 1 1 0-21.4 10.7 10.7 0 0 1 0 21.4" fill="#fffE6"/><path d="M94.8-337.8a10.7 10.7 0 1 1 0-21.3 10.7 10.7 0 0 1 0 21.3" fill="#c2e1ffE6"/><path d="M-72.5-87.6a10.7 10.7 0 1 1 0-21.5 10.7 10.7 0 0 1 0 21.5" fill="#fff500E6"/><path d="M129.9 26.3a10.8 10.8 0 1 1 0-21.5 10.8 10.8 0 0 1 0 21.5" fill="#fff500E7"/><path d="M182.9 1.5a10.9 10.9 0 1 1 0-21.7 10.9 10.9 0 0 1 0 21.7" fill="#fffE9"/><path d="M171.5-310.3a10.9 10.9 0 1 1 0-21.7 10.9 10.9 0 0 1 0 21.7" fill="#fffE9"/><path d="M-73.5-140.6a10.9 10.9 0 1 1 0-21.7 10.9 10.9 0 0 1 0 21.7" fill="#fff500EA"/><path d="M269.5-124.5a10.9 10.9 0 1 1 0-21.8 10.9 10.9 0 0 1 0 21.8" fill="#fffEA"/><path d="M-60.2-99.4a10.9 10.9 0 1 1 0-21.9 10.9 10.9 0 0 1 0 21.9" fill="#005bbbEB"/><path d="M209.2-278.6a10.9 10.9 0 1 1 0-21.9 10.9 10.9 0 0 1 0 21.9" fill="#fffEB"/><path d="M256.4-207.9a11 11 0 1 1 0-21.9 11 11 0 0 1 0 21.9" fill="#fff500EC"/><path d="M222.5-254.3a11 11 0 1 1 0-22 11 11 0 0 1 0 22" fill="#c2e1ffED"/><path d="M-54.8-116.5a11 11 0 1 1 0-22.1 11 11 0 0 1 0 22.1" fill="#005bbbEE"/><path d="M210.5-261.7a11.1 11.1 0 1 1 0-22.2 11.1 11.1 0 0 1 0 22.2" fill="#005bbbEE"/><path d="M242.3-206.1a11.1 11.1 0 1 1 0-22.3 11.1 11.1 0 0 1 0 22.3" fill="#c2e1ffEF"/><path d="M-5.4-260.2a11.1 11.1 0 1 1 0-22.3 11.1 11.1 0 0 1 0 22.3" fill="#fff500EF"/><path d="M157.8-290.2a11.1 11.1 0 1 1 0-22.3 11.1 11.1 0 0 1 0 22.3" fill="#fff500F0"/><path d="M245.3-132.3a11.2 11.2 0 1 1 0-22.3 11.2 11.2 0 0 1 0 22.3" fill="#c2e1ffF0"/><path d="M171.4-278.8a11.2 11.2 0 1 1 0-22.4 11.2 11.2 0 0 1 0 22.4" fill="#fffF1"/><path d="M12.4-34.4a11.2 11.2 0 1 1 0-22.4 11.2 11.2 0 0 1 0 22.4" fill="#c2e1ffF1"/><path d="M235.7-196.4a11.2 11.2 0 1 1 0-22.4 11.2 11.2 0 0 1 0 22.4" fill="#fff500F1"/><path d="M155.5-28.3a11.3 11.3 0 1 1 0-22.6 11.3 11.3 0 0 1 0 22.6" fill="#005bbbF3"/><path d="M120.5-18.5a11.3 11.3 0 1 1 0-22.6 11.3 11.3 0 0 1 0 22.6" fill="#c2e1ffF3"/><path d="M8-68.4a11.4 11.4 0 1 1 0-22.8 11.4 11.4 0 0 1 0 22.8" fill="#fffF5"/><path d="M66.6-33.4a11.4 11.4 0 1 1 0-22.8 11.4 11.4 0 0 1 0 22.8" fill="#c2e1ffF5"/><path d="M81.7-31.3a11.4 11.4 0 1 1 0-22.7 11.4 11.4 0 0 1 0 22.7" fill="#fff500F5"/><path d="M215.4-152.2a11.4 11.4 0 1 1 0-22.8 11.4 11.4 0 0 1 0 22.8" fill="#fffF6"/><path d="M-14.1-157.2a11.4 11.4 0 1 1 0-22.9 11.4 11.4 0 0 1 0 22.9" fill="#c2e1ffF6"/><path d="M13.8-222.9a11.5 11.5 0 1 1 0-22.9 11.5 11.5 0 0 1 0 22.9" fill="#005bbbF7"/><path d="M2-196.2a11.5 11.5 0 1 1 0-23 11.5 11.5 0 0 1 0 23" fill="#005bbbF7"/><path d="M183.5-195.4a11.6 11.6 0 1 1 0-23.1 11.6 11.6 0 0 1 0 23.1" fill="#fff500F9"/><path d="M80.9-243.1a11.6 11.6 0 1 1 0-23.1 11.6 11.6 0 0 1 0 23.1" fill="#fffF9"/><path d="M120.9-86.8a11.7 11.7 0 1 1 0-23.4 11.7 11.7 0 0 1 0 23.4" fill="#c2e1ffFC"/><path d="M69.9-92.1a11.7 11.7 0 1 1 0-23.4 11.7 11.7 0 0 1 0 23.4" fill="#c2e1ffFC"/><path d="M91.1-211.1a11.7 11.7 0 1 1 0-23.5 11.7 11.7 0 0 1 0 23.5" fill="#fff500FC"/><path d="M41.5-153.5a11.7 11.7 0 1 1 0-23.5 11.7 11.7 0 0 1 0 23.5" fill="#fff500FC"/><path d="M90.2-156.1a11.8 11.8 0 1 1 0-23.6 11.8 11.8 0 0 1 0 23.6" fill="#fff500FE"/></g></svg>