<svg width="1200" height="675" viewBox="-500 -500 1200 675" xmlns="http://www.w3.org/2000/svg"><path d="M-500-500h1200v675h-1200z" fill="#000"/><style>.sparkles path{stroke-linecap:round; stroke-width:1}</style><g class="sparkles"><path d="M100-162.5l-3.9 7.3" stroke="#118ab232"/><path d="M100-162.5l2.8 24.4" stroke="#073b4c32"/><path d="M100-162.5l-27.6-29.8" stroke="#ef476f32"/><path d="M100-162.5l21.3-35" stroke="#118ab232"/><path d="M100-162.5l-38.8 36.4" stroke="#073b4c33"/><path d="M100-162.5l35.4-61.4" stroke="#073b4c34"/><path d="M100-162.5l7.5-75.3" stroke="#ffd16634"/><path d="M100-162.5l49.6 68.9" stroke="#06d6a035"/><path d="M100-162.5l-5.5-85.3" stroke="#ffd16635"/><path d="M100-162.5l26.9-85.9" stroke="#ef476f35"/><path d="M100-162.5l-103.3 19.8" stroke="#ef476f37"/><path d="M100-162.5l89.9-64.3" stroke="#06d6a037"/><path d="M100-162.5l68.2-88" stroke="#073b4c37"/><path d="M100-162.5l-115.6-15.3" stroke="#118ab238"/><path d="M100-162.5l114.2 28.8" stroke="#073b4c38"/><path d="M100-162.5l-55.4 105.1" stroke="#ef476f38"/><path d="M100-162.5l-64.7 103" stroke="#118ab239"/><path d="M100-162.5l-85.8 100.6" stroke="#073b4c3A"/><path d="M100-162.5l-133 8.1" stroke="#ffd1663A"/><path d="M100-162.5l115.2-72" stroke="#118ab23B"/><path d="M100-162.5l-119.2 77.6" stroke="#118ab23C"/><path d="M100-162.5l-112.4 89.3" stroke="#ffd1663C"/><path d="M100-162.5l54.3-145.9" stroke="#073b4c3E"/><path d="M100-162.5l145-62.4" stroke="#ffd1663E"/><path d="M100-162.5l4.7-160.9" stroke="#118ab23F"/><path d="M100-162.5l-150.3 60.1" stroke="#06d6a03F"/><path d="M100-162.5l-88.4 136.7" stroke="#ef476f3F"/><path d="M100-162.5l-157.9-45.3" stroke="#ffd16640"/><path d="M100-162.5l123.7-114.2" stroke="#ffd16640"/><path d="M100-162.5l48.6 161.5" stroke="#118ab240"/><path d="M100-162.5l-160.8-53.8" stroke="#073b4c41"/><path d="M100-162.5l68.1-156.1" stroke="#118ab241"/><path d="M100-162.5l170.6-17.4" stroke="#ffd16641"/><path d="M100-162.5l56.3 162.3" stroke="#06d6a041"/><path d="M100-162.5l-64.5-164.9" stroke="#ef476f42"/><path d="M100-162.5l-33.1-176.1" stroke="#118ab243"/><path d="M100-162.5l130.4-125.4" stroke="#06d6a043"/><path d="M100-162.5l-147-108.5" stroke="#ef476f44"/><path d="M100-162.5l80.4-167.3" stroke="#118ab245"/><path d="M100-162.5l191.9 22.7" stroke="#06d6a047"/><path d="M100-162.5l190.6 42.3" stroke="#06d6a047"/><path d="M100-162.5l-144-132.5" stroke="#06d6a047"/><path d="M100-162.5l-189.3-53.1" stroke="#ffd16648"/><path d="M100-162.5l200.9 4.1" stroke="#118ab249"/><path d="M100-162.5l155.6 131.4" stroke="#073b4c4A"/><path d="M100-162.5l-69.1 192.5" stroke="#073b4c4A"/><path d="M100-162.5l113.8-171.2" stroke="#073b4c4B"/><path d="M100-162.5l-174.9-110.3" stroke="#06d6a04B"/><path d="M100-162.5l197.4 72.3" stroke="#06d6a04D"/><path d="M100-162.5l192-85.8" stroke="#118ab24D"/><path d="M100-162.5l-177.5-119.1" stroke="#ef476f4E"/><path d="M100-162.5l-126.7 172.5" stroke="#06d6a04E"/><path d="M100-162.5l84.8 197" stroke="#ffd1664F"/><path d="M100-162.5l60.9-207.3" stroke="#073b4c4F"/><path d="M100-162.5l-76.4-202.2" stroke="#ffd1664F"/><path d="M100-162.5l-91.4 198.4" stroke="#118ab250"/><path d="M100-162.5l-103.3 194.8" stroke="#06d6a052"/><path d="M100-162.5l38-217.5" stroke="#073b4c52"/><path d="M100-162.5l125.2-182.5" stroke="#118ab252"/><path d="M100-162.5l221.1-15.1" stroke="#ef476f52"/><path d="M100-162.5l80.2 207.1" stroke="#06d6a052"/><path d="M100-162.5l-218.1-50.1" stroke="#ffd16653"/><path d="M100-162.5l-193 114.2" stroke="#118ab254"/><path d="M100-162.5l-209 83.2" stroke="#ef476f54"/><path d="M100-162.5l116.7 193.8" stroke="#073b4c55"/><path d="M100-162.5l34.1 224" stroke="#073b4c55"/><path d="M100-162.5l-219.9-55.1" stroke="#ef476f55"/><path d="M100-162.5l-47.5-224.5" stroke="#073b4c58"/><path d="M100-162.5l229.6 4.9" stroke="#06d6a058"/><path d="M100-162.5l55.2-224.3" stroke="#06d6a059"/><path d="M100-162.5l200.3-116.1" stroke="#06d6a05A"/><path d="M100-162.5l172-155.7" stroke="#ffd1665A"/><path d="M100-162.5l-135.1 188.7" stroke="#06d6a05A"/><path d="M100-162.5l52.1-226.6" stroke="#ef476f5B"/><path d="M100-162.5l233 10.2" stroke="#ffd1665B"/><path d="M100-162.5l107.7-207.2" stroke="#118ab25C"/><path d="M100-162.5l37.8-231" stroke="#06d6a05D"/><path d="M100-162.5l89.2 216.4" stroke="#ffd1665D"/><path d="M100-162.5l-7.6-234.3" stroke="#073b4c5D"/><path d="M100-162.5l-227.8-58.8" stroke="#073b4c5F"/><path d="M100-162.5l235.2 10.8" stroke="#06d6a05F"/><path d="M100-162.5l227-63.5" stroke="#ef476f60"/><path d="M100-162.5l43.9-231.7" stroke="#ffd16660"/><path d="M100-162.5l14.4 235.7" stroke="#06d6a062"/><path d="M100-162.5l-222.2 80.1" stroke="#06d6a062"/><path d="M100-162.5l214.5-98.9" stroke="#06d6a062"/><path d="M100-162.5l235 24.6" stroke="#ef476f63"/><path d="M100-162.5l-217.6 92" stroke="#073b4c63"/><path d="M100-162.5l-56.7-229.4" stroke="#118ab264"/><path d="M100-162.5l178.3-154.5" stroke="#ef476f66"/><path d="M100-162.5l-155-177.7" stroke="#06d6a067"/><path d="M100-162.5l49.5 230.3" stroke="#118ab267"/><path d="M100-162.5l32.1-233.3" stroke="#118ab267"/><path d="M100-162.5l-148.1 183.1" stroke="#ef476f68"/><path d="M100-162.5l-235.3 7.5" stroke="#ffd16668"/><path d="M100-162.5l-199.1 124.6" stroke="#ef476f69"/><path d="M100-162.5l234.3 14.7" stroke="#ffd16669"/><path d="M100-162.5l-220.1 77.8" stroke="#073b4c6B"/><path d="M100-162.5l-232.1-16.3" stroke="#073b4c6C"/><path d="M100-162.5l106.3 203" stroke="#073b4c70"/><path d="M100-162.5l-8.8 228.8" stroke="#ffd16670"/><path d="M100-162.5l206.5 98.8" stroke="#073b4c70"/><path d="M100-162.5l-124.4-191.4" stroke="#ef476f70"/><path d="M100-162.5l108.9-200" stroke="#06d6a071"/><path d="M100-162.5l-226.4 22.2" stroke="#118ab271"/><path d="M100-162.5l139.2-179.9" stroke="#06d6a071"/><path d="M100-162.5l199.5 107.9" stroke="#ef476f71"/><path d="M100-162.5l102.5-201.3" stroke="#118ab272"/><path d="M100-162.5l-194.7-113" stroke="#118ab273"/><path d="M100-162.5l159.9 156.9" stroke="#ef476f73"/><path d="M100-162.5l183.7-123.4" stroke="#118ab275"/><path d="M100-162.5l210-68.9" stroke="#073b4c75"/><path d="M100-162.5l-95.9-198.9" stroke="#ef476f75"/><path d="M100-162.5l-146.8 164.5" stroke="#06d6a075"/><path d="M100-162.5l-126.5 180.5" stroke="#073b4c76"/><path d="M100-162.5l-129.5-177.7" stroke="#ef476f76"/><path d="M100-162.5l134.8-172.8" stroke="#118ab276"/><path d="M100-162.5l-132.2-174" stroke="#06d6a076"/><path d="M100-162.5l195.4-97.1" stroke="#ffd16677"/><path d="M100-162.5l-206.8-58.5" stroke="#06d6a078"/><path d="M100-162.5l202.4-69.2" stroke="#06d6a079"/><path d="M100-162.5l55.4-205.9" stroke="#06d6a079"/><path d="M100-162.5l203.6-57.2" stroke="#ffd1667A"/><path d="M100-162.5l50.8-204.4" stroke="#06d6a07A"/><path d="M100-162.5l-94.7-187.7" stroke="#118ab27A"/><path d="M100-162.5l-186.5 95.1" stroke="#ef476f7B"/><path d="M100-162.5l186-94.3" stroke="#ffd1667B"/><path d="M100-162.5l185-95.6" stroke="#073b4c7B"/><path d="M100-162.5l175.1 111.3" stroke="#ffd1667B"/><path d="M100-162.5l-166.5-123.5" stroke="#ffd1667B"/><path d="M100-162.5l-197.5-61.1" stroke="#ffd1667C"/><path d="M100-162.5l-49.9 200.4" stroke="#ffd1667C"/><path d="M100-162.5l203.8 29.9" stroke="#073b4c7C"/><path d="M100-162.5l-120.4 166.7" stroke="#073b4c7C"/><path d="M100-162.5l-200.9-43.4" stroke="#118ab27C"/><path d="M100-162.5l-118 165.6" stroke="#073b4c7D"/><path d="M100-162.5l-45.8-195.3" stroke="#118ab27E"/><path d="M100-162.5l-65.6 189.2" stroke="#ffd1667E"/><path d="M100-162.5l39.6-196.3" stroke="#06d6a07E"/><path d="M100-162.5l-91.7 176.4" stroke="#118ab27F"/><path d="M100-162.5l165.8-107.6" stroke="#06d6a07F"/><path d="M100-162.5l81.3-180.1" stroke="#073b4c7F"/><path d="M100-162.5l-145.8-113.1" stroke="#073b4c83"/><path d="M100-162.5l83.7-163.7" stroke="#118ab283"/><path d="M100-162.5l183.6 0.5" stroke="#ef476f83"/><path d="M100-162.5l-34.4 179.1" stroke="#ef476f83"/><path d="M100-162.5l-175-48.1" stroke="#ffd16683"/><path d="M100-162.5l-166.3 54.9" stroke="#118ab285"/><path d="M100-162.5l111.4 134" stroke="#ffd16685"/><path d="M100-162.5l139.3 104.6" stroke="#073b4c85"/><path d="M100-162.5l166.3-49.3" stroke="#118ab285"/><path d="M100-162.5l-72.4 156.4" stroke="#ffd16686"/><path d="M100-162.5l-151.2 62" stroke="#118ab288"/><path d="M100-162.5l-140.8-67.7" stroke="#073b4c89"/><path d="M100-162.5l14.6-153.9" stroke="#ffd16689"/><path d="M100-162.5l-145 36.8" stroke="#ffd1668A"/><path d="M100-162.5l-130.1-73" stroke="#073b4c8A"/><path d="M100-162.5l-110.4 87.6" stroke="#118ab28C"/><path d="M100-162.5l-67.1-121.5" stroke="#ffd1668C"/><path d="M100-162.5l122 46.4" stroke="#ffd1668D"/><path d="M100-162.5l-1.8-128.9" stroke="#06d6a08D"/><path d="M100-162.5l-118.8 37.9" stroke="#ffd1668E"/><path d="M100-162.5l62.1-103.7" stroke="#073b4c8E"/><path d="M100-162.5l76.9 88.5" stroke="#ffd1668F"/><path d="M100-162.5l97.7 64.5" stroke="#073b4c8F"/><path d="M100-162.5l-77.9-79.3" stroke="#ef476f90"/><path d="M100-162.5l88.6 57.4" stroke="#073b4c90"/><path d="M100-162.5l105.2 0" stroke="#118ab290"/><path d="M100-162.5l96.5-37.3" stroke="#ffd16690"/><path d="M100-162.5l-95.8 19.4" stroke="#06d6a091"/><path d="M100-162.5l67.4 62.4" stroke="#06d6a092"/><path d="M100-162.5l13.2-89.1" stroke="#118ab292"/><path d="M100-162.5l-1.9 83.6" stroke="#073b4c92"/><path d="M100-162.5l65.3-33.6" stroke="#06d6a093"/><path d="M100-162.5l72.1 11.2" stroke="#073b4c93"/><path d="M100-162.5l-24.5-46.3" stroke="#ffd16694"/><path d="M100-162.5l25.8-41.4" stroke="#073b4c94"/><path d="M100-162.5l10.3 41.7" stroke="#073b4c95"/><path d="M100-162.5l11.7 38.7" stroke="#06d6a095"/><path d="M100-162.5l-6.2-28.6" stroke="#118ab295"/><path d="M100-162.5l-16.6-23.4" stroke="#118ab295"/></g><g class="sparcs"><path d="M96.1-149.3a5.9 5.9 0 1 1 0-11.8 5.9 5.9 0 0 1 0 11.8" fill="#ffd1667D"/><path d="M102.8-132.2a5.9 5.9 0 1 1 0-11.9 5.9 5.9 0 0 1 0 11.9" fill="#073b4c7D"/><path d="M72.4-186.3a6 6 0 1 1 0-11.9 6 6 0 0 1 0 11.9" fill="#ef476f7D"/><path d="M121.3-191.5a6 6 0 1 1 0-12 6 6 0 0 1 0 12" fill="#ffd1667D"/><path d="M61.2-120.1a6 6 0 1 1 0-12 6 6 0 0 1 0 12" fill="#118ab27E"/><path d="M135.4-217.8a6 6 0 1 1 0-12.1 6 6 0 0 1 0 12.1" fill="#ffd1667F"/><path d="M107.5-231.7a6.1 6.1 0 1 1 0-12.2 6.1 6.1 0 0 1 0 12.2" fill="#ef476f80"/><path d="M149.6-87.5a6.1 6.1 0 1 1 0-12.2 6.1 6.1 0 0 1 0 12.2" fill="#118ab281"/><path d="M94.5-241.7a6.1 6.1 0 1 1 0-12.2 6.1 6.1 0 0 1 0 12.2" fill="#073b4c81"/><path d="M126.9-242.2a6.1 6.1 0 1 1 0-12.3 6.1 6.1 0 0 1 0 12.3" fill="#06d6a081"/><path d="M-3.3-136.5a6.2 6.2 0 1 1 0-12.4 6.2 6.2 0 0 1 0 12.4" fill="#073b4c83"/><path d="M189.9-220.5a6.2 6.2 0 1 1 0-12.5 6.2 6.2 0 0 1 0 12.5" fill="#118ab284"/><path d="M168.2-244.2a6.3 6.3 0 1 1 0-12.5 6.3 6.3 0 0 1 0 12.5" fill="#073b4c84"/><path d="M-15.6-171.5a6.3 6.3 0 1 1 0-12.6 6.3 6.3 0 0 1 0 12.6" fill="#06d6a085"/><path d="M214.2-127.4a6.3 6.3 0 1 1 0-12.6 6.3 6.3 0 0 1 0 12.6" fill="#06d6a085"/><path d="M44.6-51.1a6.3 6.3 0 1 1 0-12.6 6.3 6.3 0 0 1 0 12.6" fill="#ffd16685"/><path d="M35.3-53.2a6.3 6.3 0 1 1 0-12.7 6.3 6.3 0 0 1 0 12.7" fill="#ef476f86"/><path d="M14.2-55.5a6.4 6.4 0 1 1 0-12.8 6.4 6.4 0 0 1 0 12.8" fill="#ef476f88"/><path d="M-33-148a6.4 6.4 0 1 1 0-12.9 6.4 6.4 0 0 1 0 12.9" fill="#073b4c88"/><path d="M215.2-228.1a6.4 6.4 0 1 1 0-12.9 6.4 6.4 0 0 1 0 12.9" fill="#118ab288"/><path d="M-19.2-78.4a6.5 6.5 0 1 1 0-13 6.5 6.5 0 0 1 0 13" fill="#ffd1668A"/><path d="M-12.4-66.7a6.5 6.5 0 1 1 0-13 6.5 6.5 0 0 1 0 13" fill="#ef476f8A"/><path d="M154.3-301.8a6.6 6.6 0 1 1 0-13.2 6.6 6.6 0 0 1 0 13.2" fill="#ffd1668D"/><path d="M245-218.2a6.7 6.7 0 1 1 0-13.3 6.7 6.7 0 0 1 0 13.3" fill="#118ab28D"/><path d="M104.7-316.7a6.7 6.7 0 1 1 0-13.4 6.7 6.7 0 0 1 0 13.4" fill="#06d6a08E"/><path d="M-50.3-95.7a6.7 6.7 0 1 1 0-13.4 6.7 6.7 0 0 1 0 13.4" fill="#ef476f8E"/><path d="M11.6-19.1a6.7 6.7 0 1 1 0-13.4 6.7 6.7 0 0 1 0 13.4" fill="#06d6a08E"/><path d="M-57.9-201.1a6.7 6.7 0 1 1 0-13.5 6.7 6.7 0 0 1 0 13.5" fill="#06d6a08F"/><path d="M223.7-269.9a6.8 6.8 0 1 1 0-13.6 6.8 6.8 0 0 1 0 13.6" fill="#ffd16690"/><path d="M148.6 5.8a6.8 6.8 0 1 1 0-13.6 6.8 6.8 0 0 1 0 13.6" fill="#073b4c90"/><path d="M-60.8-209.5a6.8 6.8 0 1 1 0-13.6 6.8 6.8 0 0 1 0 13.6" fill="#ffd16690"/><path d="M168.1-311.7a6.8 6.8 0 1 1 0-13.7 6.8 6.8 0 0 1 0 13.7" fill="#ef476f90"/><path d="M270.6-173.1a6.8 6.8 0 1 1 0-13.6 6.8 6.8 0 0 1 0 13.6" fill="#06d6a091"/><path d="M156.3 6.6a6.8 6.8 0 1 1 0-13.7 6.8 6.8 0 0 1 0 13.7" fill="#ffd16691"/><path d="M35.5-320.5a6.9 6.9 0 1 1 0-13.8 6.9 6.9 0 0 1 0 13.8" fill="#118ab292"/><path d="M66.9-331.7a6.9 6.9 0 1 1 0-13.8 6.9 6.9 0 0 1 0 13.8" fill="#06d6a093"/><path d="M230.4-281a7 7 0 1 1 0-13.9 7 7 0 0 1 0 13.9" fill="#073b4c94"/><path d="M-47-264a7 7 0 1 1 0-14 7 7 0 0 1 0 14" fill="#ffd16694"/><path d="M180.4-322.8a7 7 0 1 1 0-14.1 7 7 0 0 1 0 14.1" fill="#ef476f95"/><path d="M291.9-132.6a7.2 7.2 0 1 1 0-14.4 7.2 7.2 0 0 1 0 14.4" fill="#118ab298"/><path d="M290.6-113a7.2 7.2 0 1 1 0-14.4 7.2 7.2 0 0 1 0 14.4" fill="#06d6a099"/><path d="M-44-287.8a7.2 7.2 0 1 1 0-14.4 7.2 7.2 0 0 1 0 14.4" fill="#073b4c99"/><path d="M-89.3-208.4a7.2 7.2 0 1 1 0-14.4 7.2 7.2 0 0 1 0 14.4" fill="#118ab299"/><path d="M300.9-151.1a7.3 7.3 0 1 1 0-14.6 7.3 7.3 0 0 1 0 14.6" fill="#ef476f9B"/><path d="M255.6-23.7a7.4 7.4 0 1 1 0-14.8 7.4 7.4 0 0 1 0 14.8" fill="#073b4c9D"/><path d="M30.9 37.4a7.4 7.4 0 1 1 0-14.7 7.4 7.4 0 0 1 0 14.7" fill="#ffd1669D"/><path d="M213.8-326.3a7.4 7.4 0 1 1 0-14.8 7.4 7.4 0 0 1 0 14.8" fill="#ef476f9D"/><path d="M-74.9-265.4a7.4 7.4 0 1 1 0-14.8 7.4 7.4 0 0 1 0 14.8" fill="#118ab29E"/><path d="M297.4-82.7a7.5 7.5 0 1 1 0-15 7.5 7.5 0 0 1 0 15" fill="#ef476fA0"/><path d="M292-240.8a7.5 7.5 0 1 1 0-15 7.5 7.5 0 0 1 0 15" fill="#ef476fA0"/><path d="M-77.5-274a7.6 7.6 0 1 1 0-15.2 7.6 7.6 0 0 1 0 15.2" fill="#118ab2A2"/><path d="M-26.7 17.6a7.6 7.6 0 1 1 0-15.2 7.6 7.6 0 0 1 0 15.2" fill="#ffd166A2"/><path d="M184.8 42.1a7.6 7.6 0 1 1 0-15.2 7.6 7.6 0 0 1 0 15.2" fill="#ef476fA2"/><path d="M160.9-362.1a7.7 7.7 0 1 1 0-15.3 7.7 7.7 0 0 1 0 15.3" fill="#118ab2A3"/><path d="M23.6-357.1a7.7 7.7 0 1 1 0-15.3 7.7 7.7 0 0 1 0 15.3" fill="#06d6a0A3"/><path d="M8.6 43.6a7.7 7.7 0 1 1 0-15.4 7.7 7.7 0 0 1 0 15.4" fill="#073b4cA5"/><path d="M-3.3 40.1a7.8 7.8 0 1 1 0-15.6 7.8 7.8 0 0 1 0 15.6" fill="#ef476fA6"/><path d="M138-372.2a7.8 7.8 0 1 1 0-15.6 7.8 7.8 0 0 1 0 15.6" fill="#118ab2A6"/><path d="M225.2-337.2a7.8 7.8 0 1 1 0-15.7 7.8 7.8 0 0 1 0 15.7" fill="#118ab2A7"/><path d="M321.1-169.8a7.8 7.8 0 1 1 0-15.6 7.8 7.8 0 0 1 0 15.6" fill="#06d6a0A7"/><path d="M180.2 52.5a7.9 7.9 0 1 1 0-15.7 7.9 7.9 0 0 1 0 15.7" fill="#ffd166A7"/><path d="M-118.1-204.7a7.9 7.9 0 1 1 0-15.8 7.9 7.9 0 0 1 0 15.8" fill="#ef476fA9"/><path d="M-93-40.3a7.9 7.9 0 1 1 0-15.9 7.9 7.9 0 0 1 0 15.9" fill="#ef476fA9"/><path d="M-109-71.3a8 8 0 1 1 0-15.9 8 8 0 0 1 0 15.9" fill="#ef476fAA"/><path d="M216.7 39.3a8 8 0 1 1 0-16 8 8 0 0 1 0 16" fill="#ef476fAB"/><path d="M134.1 69.6a8 8 0 1 1 0-16.1 8 8 0 0 1 0 16.1" fill="#118ab2AB"/><path d="M-119.9-209.5a8 8 0 1 1 0-16.1 8 8 0 0 1 0 16.1" fill="#118ab2AB"/><path d="M52.5-378.8a8.2 8.2 0 1 1 0-16.4 8.2 8.2 0 0 1 0 16.4" fill="#ffd166AE"/><path d="M329.6-149.4a8.2 8.2 0 1 1 0-16.4 8.2 8.2 0 0 1 0 16.4" fill="#ffd166AE"/><path d="M155.2-378.6a8.2 8.2 0 1 1 0-16.5 8.2 8.2 0 0 1 0 16.5" fill="#ffd166B0"/><path d="M300.3-270.3a8.3 8.3 0 1 1 0-16.6 8.3 8.3 0 0 1 0 16.6" fill="#ffd166B1"/><path d="M272-309.9a8.3 8.3 0 1 1 0-16.6 8.3 8.3 0 0 1 0 16.6" fill="#06d6a0B1"/><path d="M-35.1 34.5a8.3 8.3 0 1 1 0-16.6 8.3 8.3 0 0 1 0 16.6" fill="#06d6a0B1"/><path d="M152.1-380.7a8.3 8.3 0 1 1 0-16.7 8.3 8.3 0 0 1 0 16.7" fill="#118ab2B2"/><path d="M333-144a8.4 8.4 0 1 1 0-16.7 8.4 8.4 0 0 1 0 16.7" fill="#ef476fB3"/><path d="M207.7-361.3a8.4 8.4 0 1 1 0-16.9 8.4 8.4 0 0 1 0 16.9" fill="#ffd166B4"/><path d="M137.8-385a8.5 8.5 0 1 1 0-16.9 8.5 8.5 0 0 1 0 16.9" fill="#ffd166B5"/><path d="M189.2 62.4a8.5 8.5 0 1 1 0-17 8.5 8.5 0 0 1 0 17" fill="#ef476fB5"/><path d="M92.4-388.3a8.5 8.5 0 1 1 0-16.9 8.5 8.5 0 0 1 0 16.9" fill="#06d6a0B5"/><path d="M-127.8-212.8a8.6 8.6 0 1 1 0-17.1 8.6 8.6 0 0 1 0 17.1" fill="#06d6a0B8"/><path d="M335.2-143.1a8.6 8.6 0 1 1 0-17.2 8.6 8.6 0 0 1 0 17.2" fill="#ef476fB8"/><path d="M327-217.3a8.7 8.7 0 1 1 0-17.3 8.7 8.7 0 0 1 0 17.3" fill="#118ab2B9"/><path d="M143.9-385.5a8.7 8.7 0 1 1 0-17.4 8.7 8.7 0 0 1 0 17.4" fill="#073b4cB9"/><path d="M114.4 82a8.8 8.8 0 1 1 0-17.6 8.8 8.8 0 0 1 0 17.6" fill="#073b4cBC"/><path d="M-122.2-73.6a8.8 8.8 0 1 1 0-17.5 8.8 8.8 0 0 1 0 17.5" fill="#ffd166BC"/><path d="M314.5-252.6a8.8 8.8 0 1 1 0-17.6 8.8 8.8 0 0 1 0 17.6" fill="#ef476fBC"/><path d="M335-129.1a8.8 8.8 0 1 1 0-17.7 8.8 8.8 0 0 1 0 17.7" fill="#ef476fBD"/><path d="M-117.6-61.7a8.9 8.9 0 1 1 0-17.7 8.9 8.9 0 0 1 0 17.7" fill="#073b4cBD"/><path d="M43.3-383a8.9 8.9 0 1 1 0-17.7 8.9 8.9 0 0 1 0 17.7" fill="#ef476fBE"/><path d="M278.3-307.9a9 9 0 1 1 0-18.1 9 9 0 0 1 0 18.1" fill="#06d6a0C1"/><path d="M-55-331.1a9 9 0 1 1 0-18.1 9 9 0 0 1 0 18.1" fill="#118ab2C2"/><path d="M149.5 76.9a9.1 9.1 0 1 1 0-18.2 9.1 9.1 0 0 1 0 18.2" fill="#ef476fC2"/><path d="M132.1-386.7a9.1 9.1 0 1 1 0-18.2 9.1 9.1 0 0 1 0 18.2" fill="#06d6a0C3"/><path d="M-48.1 29.7a9.1 9.1 0 1 1 0-18.2 9.1 9.1 0 0 1 0 18.2" fill="#ffd166C3"/><path d="M-135.3-145.9a9.1 9.1 0 1 1 0-18.2 9.1 9.1 0 0 1 0 18.2" fill="#073b4cC3"/><path d="M-99.1-28.7a9.2 9.2 0 1 1 0-18.4 9.2 9.2 0 0 1 0 18.4" fill="#ffd166C4"/><path d="M334.3-138.6a9.2 9.2 0 1 1 0-18.4 9.2 9.2 0 0 1 0 18.4" fill="#118ab2C5"/><path d="M-120.1-75.4a9.3 9.3 0 1 1 0-18.6 9.3 9.3 0 0 1 0 18.6" fill="#06d6a0C8"/><path d="M-132.1-169.4a9.4 9.4 0 1 1 0-18.7 9.4 9.4 0 0 1 0 18.7" fill="#ef476fC9"/><path d="M206.3 50.1a9.6 9.6 0 1 1 0-19.2 9.6 9.6 0 0 1 0 19.2" fill="#06d6a0CD"/><path d="M91.2 75.9a9.6 9.6 0 1 1 0-19.2 9.6 9.6 0 0 1 0 19.2" fill="#ef476fCD"/><path d="M306.5-54.1a9.6 9.6 0 1 1 0-19.2 9.6 9.6 0 0 1 0 19.2" fill="#06d6a0CE"/><path d="M-24.4-344.3a9.6 9.6 0 1 1 0-19.2 9.6 9.6 0 0 1 0 19.2" fill="#118ab2CE"/><path d="M208.9-352.9a9.6 9.6 0 1 1 0-19.3 9.6 9.6 0 0 1 0 19.3" fill="#06d6a0CF"/><path d="M-126.4-130.7a9.7 9.7 0 1 1 0-19.3 9.7 9.7 0 0 1 0 19.3" fill="#073b4cCF"/><path d="M239.2-332.7a9.7 9.7 0 1 1 0-19.3 9.7 9.7 0 0 1 0 19.3" fill="#073b4cCF"/><path d="M299.5-44.9a9.7 9.7 0 1 1 0-19.4 9.7 9.7 0 0 1 0 19.4" fill="#118ab2D0"/><path d="M202.5-354.1a9.7 9.7 0 1 1 0-19.4 9.7 9.7 0 0 1 0 19.4" fill="#073b4cD1"/><path d="M-94.7-265.7a9.8 9.8 0 1 1 0-19.5 9.8 9.8 0 0 1 0 19.5" fill="#073b4cD1"/><path d="M259.9 4.2a9.8 9.8 0 1 1 0-19.6 9.8 9.8 0 0 1 0 19.6" fill="#06d6a0D2"/><path d="M283.7-276a9.9 9.9 0 1 1 0-19.8 9.9 9.9 0 0 1 0 19.8" fill="#ffd166D4"/><path d="M310-221.5a9.9 9.9 0 1 1 0-19.8 9.9 9.9 0 0 1 0 19.8" fill="#118ab2D4"/><path d="M4.1-351.5a9.9 9.9 0 1 1 0-19.8 9.9 9.9 0 0 1 0 19.8" fill="#118ab2D5"/><path d="M-46.8 12a9.9 9.9 0 1 1 0-19.9 9.9 9.9 0 0 1 0 19.9" fill="#ef476fD5"/><path d="M-26.5 27.9a9.9 9.9 0 1 1 0-19.8 9.9 9.9 0 0 1 0 19.8" fill="#06d6a0D5"/><path d="M-29.5-330.3a9.9 9.9 0 1 1 0-19.9 9.9 9.9 0 0 1 0 19.9" fill="#118ab2D5"/><path d="M234.8-325.3a10 10 0 1 1 0-19.9 10 10 0 0 1 0 19.9" fill="#ffd166D6"/><path d="M-32.2-326.5a10 10 0 1 1 0-20 10 10 0 0 1 0 20" fill="#073b4cD6"/><path d="M295.4-249.6a10 10 0 1 1 0-20 10 10 0 0 1 0 20" fill="#073b4cD6"/><path d="M-106.8-210.9a10.1 10.1 0 1 1 0-20.2 10.1 10.1 0 0 1 0 20.2" fill="#06d6a0D8"/><path d="M302.4-221.6a10.1 10.1 0 1 1 0-20.2 10.1 10.1 0 0 1 0 20.2" fill="#06d6a0D9"/><path d="M155.4-358.3a10.1 10.1 0 1 1 0-20.2 10.1 10.1 0 0 1 0 20.2" fill="#06d6a0D9"/><path d="M303.6-209.5a10.2 10.2 0 1 1 0-20.4 10.2 10.2 0 0 1 0 20.4" fill="#073b4cDA"/><path d="M150.8-356.7a10.2 10.2 0 1 1 0-20.4 10.2 10.2 0 0 1 0 20.4" fill="#ffd166DB"/><path d="M5.3-340a10.2 10.2 0 1 1 0-20.4 10.2 10.2 0 0 1 0 20.4" fill="#118ab2DB"/><path d="M-86.5-57.1a10.2 10.2 0 1 1 0-20.5 10.2 10.2 0 0 1 0 20.5" fill="#073b4cDC"/><path d="M286-246.6a10.2 10.2 0 1 1 0-20.5 10.2 10.2 0 0 1 0 20.5" fill="#ef476fDC"/><path d="M285-247.8a10.3 10.3 0 1 1 0-20.5 10.3 10.3 0 0 1 0 20.5" fill="#118ab2DC"/><path d="M275.1-40.9a10.3 10.3 0 1 1 0-20.6 10.3 10.3 0 0 1 0 20.6" fill="#118ab2DD"/><path d="M-66.5-275.7a10.3 10.3 0 1 1 0-20.6 10.3 10.3 0 0 1 0 20.6" fill="#ffd166DD"/><path d="M-97.5-213.4a10.3 10.3 0 1 1 0-20.5 10.3 10.3 0 0 1 0 20.5" fill="#06d6a0DD"/><path d="M50.1 48.2a10.3 10.3 0 1 1 0-20.6 10.3 10.3 0 0 1 0 20.6" fill="#073b4cDD"/><path d="M303.8-122.3a10.3 10.3 0 1 1 0-20.6 10.3 10.3 0 0 1 0 20.6" fill="#073b4cDD"/><path d="M-20.4 14.5a10.3 10.3 0 1 1 0-20.6 10.3 10.3 0 0 1 0 20.6" fill="#ffd166DE"/><path d="M-100.9-195.5a10.3 10.3 0 1 1 0-20.7 10.3 10.3 0 0 1 0 20.7" fill="#06d6a0DE"/><path d="M-18 13.5a10.4 10.4 0 1 1 0-20.8 10.4 10.4 0 0 1 0 20.8" fill="#06d6a0DF"/><path d="M54.2-347.3a10.4 10.4 0 1 1 0-20.9 10.4 10.4 0 0 1 0 20.9" fill="#ffd166E0"/><path d="M34.4 37.1a10.4 10.4 0 1 1 0-20.8 10.4 10.4 0 0 1 0 20.8" fill="#ef476fE0"/><path d="M139.6-348.4a10.4 10.4 0 1 1 0-20.8 10.4 10.4 0 0 1 0 20.8" fill="#06d6a0E0"/><path d="M8.3 24.4a10.5 10.5 0 1 1 0-21 10.5 10.5 0 0 1 0 21" fill="#ef476fE1"/><path d="M265.8-259.6a10.5 10.5 0 1 1 0-21 10.5 10.5 0 0 1 0 21" fill="#ffd166E1"/><path d="M181.3-332.1a10.5 10.5 0 1 1 0-21 10.5 10.5 0 0 1 0 21" fill="#ffd166E1"/><path d="M-45.8-264.9a10.7 10.7 0 1 1 0-21.4 10.7 10.7 0 0 1 0 21.4" fill="#ffd166E6"/><path d="M183.7-315.5a10.7 10.7 0 1 1 0-21.4 10.7 10.7 0 0 1 0 21.4" fill="#073b4cE6"/><path d="M283.6-151.3a10.7 10.7 0 1 1 0-21.4 10.7 10.7 0 0 1 0 21.4" fill="#118ab2E6"/><path d="M65.6 27.4a10.7 10.7 0 1 1 0-21.5 10.7 10.7 0 0 1 0 21.5" fill="#ef476fE7"/><path d="M-75-199.8a10.7 10.7 0 1 1 0-21.5 10.7 10.7 0 0 1 0 21.5" fill="#06d6a0E7"/><path d="M-66.3-96.7a10.8 10.8 0 1 1 0-21.7 10.8 10.8 0 0 1 0 21.7" fill="#ef476fE9"/><path d="M211.4-17.6a10.9 10.9 0 1 1 0-21.7 10.9 10.9 0 0 1 0 21.7" fill="#073b4cE9"/><path d="M239.3-47a10.9 10.9 0 1 1 0-21.7 10.9 10.9 0 0 1 0 21.7" fill="#073b4cE9"/><path d="M266.3-200.9a10.9 10.9 0 1 1 0-21.8 10.9 10.9 0 0 1 0 21.8" fill="#ef476fEA"/><path d="M27.6 4.7a10.9 10.9 0 1 1 0-21.7 10.9 10.9 0 0 1 0 21.7" fill="#073b4cEA"/><path d="M-51.2-89.5a11 11 0 1 1 0-22 11 11 0 0 1 0 22" fill="#ef476fEC"/><path d="M-40.8-219.1a11.1 11.1 0 1 1 0-22.2 11.1 11.1 0 0 1 0 22.2" fill="#06d6a0EE"/><path d="M114.6-305.3a11.1 11.1 0 1 1 0-22.2 11.1 11.1 0 0 1 0 22.2" fill="#06d6a0EF"/><path d="M-45-114.5a11.1 11.1 0 1 1 0-22.3 11.1 11.1 0 0 1 0 22.3" fill="#118ab2F0"/><path d="M-30.1-224.4a11.1 11.1 0 1 1 0-22.3 11.1 11.1 0 0 1 0 22.3" fill="#073b4cF0"/><path d="M-10.4-63.7a11.2 11.2 0 1 1 0-22.5 11.2 11.2 0 0 1 0 22.5" fill="#ffd166F2"/><path d="M32.9-272.8a11.2 11.2 0 1 1 0-22.5 11.2 11.2 0 0 1 0 22.5" fill="#073b4cF2"/><path d="M222-104.8a11.3 11.3 0 1 1 0-22.6 11.3 11.3 0 0 1 0 22.6" fill="#ffd166F4"/><path d="M98.2-280.1a11.3 11.3 0 1 1 0-22.7 11.3 11.3 0 0 1 0 22.7" fill="#073b4cF4"/><path d="M-18.8-113.2a11.4 11.4 0 1 1 0-22.8 11.4 11.4 0 0 1 0 22.8" fill="#118ab2F5"/><path d="M162.1-254.8a11.4 11.4 0 1 1 0-22.8 11.4 11.4 0 0 1 0 22.8" fill="#06d6a0F5"/><path d="M176.9-62.6a11.4 11.4 0 1 1 0-22.8 11.4 11.4 0 0 1 0 22.8" fill="#118ab2F6"/><path d="M197.7-86.6a11.4 11.4 0 1 1 0-22.8 11.4 11.4 0 0 1 0 22.8" fill="#ef476fF6"/><path d="M22.1-230.3a11.5 11.5 0 1 1 0-23 11.5 11.5 0 0 1 0 23" fill="#ffd166F7"/><path d="M188.6-93.6a11.5 11.5 0 1 1 0-23 11.5 11.5 0 0 1 0 23" fill="#06d6a0F8"/><path d="M205.2-151a11.5 11.5 0 1 1 0-23 11.5 11.5 0 0 1 0 23" fill="#118ab2F8"/><path d="M196.5-188.3a11.5 11.5 0 1 1 0-23 11.5 11.5 0 0 1 0 23" fill="#ef476fF8"/><path d="M4.2-131.5a11.5 11.5 0 1 1 0-23.1 11.5 11.5 0 0 1 0 23.1" fill="#06d6a0F9"/><path d="M167.4-88.5a11.6 11.6 0 1 1 0-23.1 11.6 11.6 0 0 1 0 23.1" fill="#073b4cF9"/><path d="M113.2-240a11.6 11.6 0 1 1 0-23.1 11.6 11.6 0 0 1 0 23.1" fill="#118ab2FA"/><path d="M98.1-67.2a11.6 11.6 0 1 1 0-23.3 11.6 11.6 0 0 1 0 23.3" fill="#06d6a0FA"/><path d="M165.3-184.4a11.7 11.7 0 1 1 0-23.4 11.7 11.7 0 0 1 0 23.4" fill="#06d6a0FB"/><path d="M172.1-139.6a11.7 11.7 0 1 1 0-23.4 11.7 11.7 0 0 1 0 23.4" fill="#073b4cFB"/><path d="M75.5-197a11.7 11.7 0 1 1 0-23.5 11.7 11.7 0 0 1 0 23.5" fill="#ef476fFD"/><path d="M125.8-192.1a11.7 11.7 0 1 1 0-23.5 11.7 11.7 0 0 1 0 23.5" fill="#118ab2FD"/><path d="M110.3-109a11.8 11.8 0 1 1 0-23.5 11.8 11.8 0 0 1 0 23.5" fill="#073b4cFD"/><path d="M111.7-112.1a11.8 11.8 0 1 1 0-23.5 11.8 11.8 0 0 1 0 23.5" fill="#ef476fFE"/><path d="M93.8-179.3a11.8 11.8 0 1 1 0-23.6 11.8 11.8 0 0 1 0 23.6" fill="#ef476fFE"/><path d="M83.4-174.1a11.8 11.8 0 1 1 0-23.6 11.8 11.8 0 0 1 0 23.6" fill="#06d6a0FE"/></g></svg>