<svg width="1200" height="675" viewBox="-500 -500 1200 675" xmlns="http://www.w3.org/2000/svg"><path d="M-500-500h1200v675h-1200z" fill="#000"/><style>.sparkles path{stroke-linecap:round; stroke-width:1}</style><g class="sparkles"><path d="M100-162.5l-49.4-7.1" stroke="#fff50033"/><path d="M100-162.5l-58-8.1" stroke="#fff50033"/><path d="M100-162.5l-64.8 16.7" stroke="#fff34"/><path d="M100-162.5l66.5-22.4" stroke="#005bbb34"/><path d="M100-162.5l50.9-57" stroke="#005bbb34"/><path d="M100-162.5l9.9-84.4" stroke="#c2e1ff35"/><path d="M100-162.5l40.8-88.8" stroke="#c2e1ff36"/><path d="M100-162.5l-53.9 94.8" stroke="#005bbb37"/><path d="M100-162.5l110.5 8.8" stroke="#fff37"/><path d="M100-162.5l110.3-32" stroke="#fff50038"/><path d="M100-162.5l41.3 122.6" stroke="#c2e1ff3A"/><path d="M100-162.5l-130 13.9" stroke="#fff5003A"/><path d="M100-162.5l-85.6 99.5" stroke="#c2e1ff3A"/><path d="M100-162.5l48.1-122.2" stroke="#fff5003A"/><path d="M100-162.5l114.5 76.3" stroke="#fff3B"/><path d="M100-162.5l29.5-135.2" stroke="#fff5003B"/><path d="M100-162.5l91 104.6" stroke="#005bbb3B"/><path d="M100-162.5l-4.3 140.2" stroke="#fff3B"/><path d="M100-162.5l124.5-78.2" stroke="#fff5003C"/><path d="M100-162.5l-139.6-74.3" stroke="#005bbb3E"/><path d="M100-162.5l-156-57.4" stroke="#fff50040"/><path d="M100-162.5l-71.4 152.6" stroke="#c2e1ff40"/><path d="M100-162.5l-15.4-171.3" stroke="#005bbb41"/><path d="M100-162.5l163.4-60" stroke="#fff50042"/><path d="M100-162.5l-4.4-174.2" stroke="#005bbb42"/><path d="M100-162.5l66.1-162.7" stroke="#fff42"/><path d="M100-162.5l-178.5-6.5" stroke="#005bbb43"/><path d="M100-162.5l94-153.3" stroke="#c2e1ff43"/><path d="M100-162.5l166.6-71.9" stroke="#fff50043"/><path d="M100-162.5l163.1 84.8" stroke="#005bbb44"/><path d="M100-162.5l-184-2.4" stroke="#c2e1ff44"/><path d="M100-162.5l117.5-143.4" stroke="#fff45"/><path d="M100-162.5l5.4-185.4" stroke="#005bbb45"/><path d="M100-162.5l140-124.9" stroke="#005bbb45"/><path d="M100-162.5l160.7 97.8" stroke="#fff45"/><path d="M100-162.5l-183.5 46.5" stroke="#c2e1ff46"/><path d="M100-162.5l-189.3 11.8" stroke="#fff50046"/><path d="M100-162.5l-19.8-189.1" stroke="#fff46"/><path d="M100-162.5l181.1 61.1" stroke="#fff50046"/><path d="M100-162.5l-42.8 186.4" stroke="#c2e1ff46"/><path d="M100-162.5l-187.7-44" stroke="#fff47"/><path d="M100-162.5l167.7-95.8" stroke="#fff50047"/><path d="M100-162.5l-158.6 112.5" stroke="#005bbb47"/><path d="M100-162.5l196.6 39.4" stroke="#c2e1ff49"/><path d="M100-162.5l-20.3 200.2" stroke="#005bbb49"/><path d="M100-162.5l-67.6 192.3" stroke="#fff5004A"/><path d="M100-162.5l-33.2-201.6" stroke="#fff5004A"/><path d="M100-162.5l-95.8 191.2" stroke="#005bbb4E"/><path d="M100-162.5l-193.1-92.1" stroke="#c2e1ff4E"/><path d="M100-162.5l74.1-203.9" stroke="#005bbb50"/><path d="M100-162.5l-67.2-207.4" stroke="#fff50050"/><path d="M100-162.5l105.5-191.4" stroke="#005bbb50"/><path d="M100-162.5l68.9 209.4" stroke="#fff50052"/><path d="M100-162.5l-185.3 121.3" stroke="#c2e1ff52"/><path d="M100-162.5l-136.2-175.7" stroke="#fff53"/><path d="M100-162.5l35.3 219.9" stroke="#005bbb53"/><path d="M100-162.5l42.8 218.8" stroke="#fff53"/><path d="M100-162.5l39.4 219.7" stroke="#fff53"/><path d="M100-162.5l212.8-68.7" stroke="#c2e1ff53"/><path d="M100-162.5l3.1 224.8" stroke="#005bbb54"/><path d="M100-162.5l7.1 225.8" stroke="#fff50055"/><path d="M100-162.5l43.9 223.5" stroke="#c2e1ff56"/><path d="M100-162.5l78 214.4" stroke="#c2e1ff57"/><path d="M100-162.5l-108-201.7" stroke="#005bbb57"/><path d="M100-162.5l-125 192.5" stroke="#fff58"/><path d="M100-162.5l206.8-104" stroke="#005bbb5A"/><path d="M100-162.5l-195.2 125.1" stroke="#fff5A"/><path d="M100-162.5l-165.8-162.1" stroke="#005bbb5A"/><path d="M100-162.5l225.1 59.3" stroke="#c2e1ff5B"/><path d="M100-162.5l-143.7-183.2" stroke="#fff5005B"/><path d="M100-162.5l-40.7-229.8" stroke="#005bbb5C"/><path d="M100-162.5l-190.7-134.7" stroke="#005bbb5C"/><path d="M100-162.5l-142.1 185.5" stroke="#c2e1ff5C"/><path d="M100-162.5l3.3-233.9" stroke="#fff5005D"/><path d="M100-162.5l-188.4 139.4" stroke="#c2e1ff5D"/><path d="M100-162.5l184.9 144.5" stroke="#fff5005E"/><path d="M100-162.5l218.4-87.7" stroke="#fff5F"/><path d="M100-162.5l235.4 4.1" stroke="#c2e1ff5F"/><path d="M100-162.5l190.7 138.5" stroke="#c2e1ff60"/><path d="M100-162.5l81.5 221.5" stroke="#005bbb61"/><path d="M100-162.5l232.8-39.6" stroke="#fff50062"/><path d="M100-162.5l-180.6 152.2" stroke="#fff50062"/><path d="M100-162.5l-72.1-224.9" stroke="#005bbb62"/><path d="M100-162.5l-124.9-200.5" stroke="#c2e1ff64"/><path d="M100-162.5l216.3-94.8" stroke="#fff50064"/><path d="M100-162.5l235.7 14.1" stroke="#005bbb65"/><path d="M100-162.5l-81.5 221.6" stroke="#c2e1ff65"/><path d="M100-162.5l-159.3 174.3" stroke="#c2e1ff65"/><path d="M100-162.5l169.8 164" stroke="#c2e1ff65"/><path d="M100-162.5l232.3-40.2" stroke="#fff50067"/><path d="M100-162.5l28.8-233.9" stroke="#fff67"/><path d="M100-162.5l-9.7 235.5" stroke="#c2e1ff67"/><path d="M100-162.5l36.4 232.8" stroke="#005bbb67"/><path d="M100-162.5l104.5-211.2" stroke="#005bbb67"/><path d="M100-162.5l-57.4 228.4" stroke="#c2e1ff67"/><path d="M100-162.5l213.3-99.6" stroke="#fff50068"/><path d="M100-162.5l165.3 167.5" stroke="#fff50068"/><path d="M100-162.5l16.4-234.7" stroke="#fff50068"/><path d="M100-162.5l145.5-184.9" stroke="#fff50068"/><path d="M100-162.5l38.1-231.8" stroke="#005bbb69"/><path d="M100-162.5l234.5-11.3" stroke="#fff50069"/><path d="M100-162.5l176.7-154.3" stroke="#c2e1ff69"/><path d="M100-162.5l-138.6-189.1" stroke="#fff6A"/><path d="M100-162.5l-178.7-151.4" stroke="#005bbb6A"/><path d="M100-162.5l179.1 149.9" stroke="#fff5006B"/><path d="M100-162.5l231.5 30.1" stroke="#005bbb6B"/><path d="M100-162.5l123.4 197.9" stroke="#c2e1ff6B"/><path d="M100-162.5l142.8-184.3" stroke="#fff6C"/><path d="M100-162.5l-91.7-214.4" stroke="#fff5006C"/><path d="M100-162.5l185.7 139.9" stroke="#fff5006C"/><path d="M100-162.5l222.5-67.4" stroke="#fff5006C"/><path d="M100-162.5l-65.2-222.4" stroke="#005bbb6D"/><path d="M100-162.5l149 177.5" stroke="#fff6D"/><path d="M100-162.5l-7.3 230.7" stroke="#c2e1ff6E"/><path d="M100-162.5l229.6-3.9" stroke="#fff5006F"/><path d="M100-162.5l100.2-206.5" stroke="#c2e1ff6F"/><path d="M100-162.5l-228.3 18.9" stroke="#fff50070"/><path d="M100-162.5l27.4-227.1" stroke="#fff70"/><path d="M100-162.5l-118.8-194.9" stroke="#005bbb70"/><path d="M100-162.5l-141.1 179.2" stroke="#fff71"/><path d="M100-162.5l-121 193.4" stroke="#fff71"/><path d="M100-162.5l-227.4 15.7" stroke="#005bbb71"/><path d="M100-162.5l227.4 0" stroke="#c2e1ff71"/><path d="M100-162.5l25.9-225.7" stroke="#c2e1ff71"/><path d="M100-162.5l-180.7-130.9" stroke="#c2e1ff74"/><path d="M100-162.5l169.3-144.6" stroke="#005bbb74"/><path d="M100-162.5l219.4-36.2" stroke="#fff50074"/><path d="M100-162.5l-76 206" stroke="#005bbb76"/><path d="M100-162.5l197.3 93.2" stroke="#fff50077"/><path d="M100-162.5l83.1-200.8" stroke="#c2e1ff77"/><path d="M100-162.5l211.6 38.3" stroke="#fff50078"/><path d="M100-162.5l12-212.6" stroke="#fff79"/><path d="M100-162.5l204.8 58" stroke="#005bbb79"/><path d="M100-162.5l-0.4 212.7" stroke="#c2e1ff79"/><path d="M100-162.5l144.9-153.2" stroke="#c2e1ff7A"/><path d="M100-162.5l-75.2 194.7" stroke="#005bbb7B"/><path d="M100-162.5l-202.9-47.4" stroke="#fff7B"/><path d="M100-162.5l-206.4 4.9" stroke="#005bbb7C"/><path d="M100-162.5l-84.6 188.1" stroke="#fff5007C"/><path d="M100-162.5l-96.5 179.7" stroke="#c2e1ff7D"/><path d="M100-162.5l-114.5 168.2" stroke="#fff7D"/><path d="M100-162.5l-117.6 164" stroke="#c2e1ff7D"/><path d="M100-162.5l-190.7 65.2" stroke="#fff7E"/><path d="M100-162.5l182.8 84.7" stroke="#c2e1ff7E"/><path d="M100-162.5l-46.6 194.1" stroke="#c2e1ff7E"/><path d="M100-162.5l39.4-195.7" stroke="#fff7E"/><path d="M100-162.5l-177.6-83.1" stroke="#c2e1ff7F"/><path d="M100-162.5l-164.7-105.9" stroke="#fff7F"/><path d="M100-162.5l-48.6 186.4" stroke="#c2e1ff80"/><path d="M100-162.5l177.4-73.9" stroke="#c2e1ff81"/><path d="M100-162.5l-151.6 118.2" stroke="#005bbb81"/><path d="M100-162.5l-65.5-177.6" stroke="#fff81"/><path d="M100-162.5l-119.5-144" stroke="#fff82"/><path d="M100-162.5l184.4 25.2" stroke="#005bbb82"/><path d="M100-162.5l122.2-138.6" stroke="#c2e1ff83"/><path d="M100-162.5l-141.4-117.6" stroke="#fff50083"/><path d="M100-162.5l91.3-154.7" stroke="#005bbb84"/><path d="M100-162.5l-90.3 154.1" stroke="#fff84"/><path d="M100-162.5l-142.1 108.1" stroke="#fff50084"/><path d="M100-162.5l-174.7 21.8" stroke="#fff50085"/><path d="M100-162.5l106.7 139.1" stroke="#c2e1ff85"/><path d="M100-162.5l-140.8 102" stroke="#005bbb85"/><path d="M100-162.5l-149.5 81.6" stroke="#fff86"/><path d="M100-162.5l-88.9-143.5" stroke="#fff86"/><path d="M100-162.5l-133.2 102.4" stroke="#fff87"/><path d="M100-162.5l120.2-99" stroke="#c2e1ff89"/><path d="M100-162.5l138 37.7" stroke="#fff5008B"/><path d="M100-162.5l9.2 123.4" stroke="#005bbb8E"/><path d="M100-162.5l-41.1-115.4" stroke="#fff8E"/><path d="M100-162.5l-99.6-51" stroke="#fff50090"/><path d="M100-162.5l-75.2 74.7" stroke="#fff90"/><path d="M100-162.5l-82 28.2" stroke="#fff92"/><path d="M100-162.5l67-53.1" stroke="#005bbb92"/><path d="M100-162.5l68.5 42.7" stroke="#005bbb92"/><path d="M100-162.5l66.2-35.6" stroke="#c2e1ff93"/><path d="M100-162.5l24.7-58.7" stroke="#fff94"/><path d="M100-162.5l31.2 55.4" stroke="#c2e1ff94"/><path d="M100-162.5l55.4 2.6" stroke="#fff94"/><path d="M100-162.5l25.5-34.9" stroke="#fff95"/><path d="M100-162.5l-10.3 29.2" stroke="#005bbb95"/><path d="M100-162.5l15.9-16.6" stroke="#c2e1ff95"/></g><g class="sparcs"><path d="M50.6-163.7a6 6 0 1 1 0-11.9 6 6 0 0 1 0 11.9" fill="#fff7E"/><path d="M42-164.6a6 6 0 1 1 0-12 6 6 0 0 1 0 12" fill="#fff5007F"/><path d="M35.2-139.8a6 6 0 1 1 0-12.1 6 6 0 0 1 0 12.1" fill="#fff7F"/><path d="M166.5-178.9a6 6 0 1 1 0-12 6 6 0 0 1 0 12" fill="#fff7F"/><path d="M150.9-213.4a6.1 6.1 0 1 1 0-12.2 6.1 6.1 0 0 1 0 12.2" fill="#005bbb80"/><path d="M109.9-240.8a6.1 6.1 0 1 1 0-12.2 6.1 6.1 0 0 1 0 12.2" fill="#005bbb81"/><path d="M140.8-245.1a6.2 6.2 0 1 1 0-12.3 6.2 6.2 0 0 1 0 12.3" fill="#fff82"/><path d="M46.1-61.4a6.2 6.2 0 1 1 0-12.5 6.2 6.2 0 0 1 0 12.5" fill="#fff84"/><path d="M210.5-147.5a6.3 6.3 0 1 1 0-12.5 6.3 6.3 0 0 1 0 12.5" fill="#c2e1ff84"/><path d="M210.3-188.2a6.3 6.3 0 1 1 0-12.6 6.3 6.3 0 0 1 0 12.6" fill="#c2e1ff85"/><path d="M141.3-33.5a6.4 6.4 0 1 1 0-12.8 6.4 6.4 0 0 1 0 12.8" fill="#fff50087"/><path d="M-30-142.2a6.4 6.4 0 1 1 0-12.8 6.4 6.4 0 0 1 0 12.8" fill="#fff87"/><path d="M14.4-56.6a6.4 6.4 0 1 1 0-12.8 6.4 6.4 0 0 1 0 12.8" fill="#c2e1ff87"/><path d="M148.1-278.3a6.4 6.4 0 1 1 0-12.8 6.4 6.4 0 0 1 0 12.8" fill="#fff50087"/><path d="M214.5-79.8a6.5 6.5 0 1 1 0-12.9 6.5 6.5 0 0 1 0 12.9" fill="#c2e1ff89"/><path d="M129.5-291.3a6.5 6.5 0 1 1 0-12.9 6.5 6.5 0 0 1 0 12.9" fill="#c2e1ff89"/><path d="M191-51.5a6.5 6.5 0 1 1 0-12.9 6.5 6.5 0 0 1 0 12.9" fill="#c2e1ff89"/><path d="M95.7-15.9a6.5 6.5 0 1 1 0-12.9 6.5 6.5 0 0 1 0 12.9" fill="#fff89"/><path d="M224.5-234.1a6.5 6.5 0 1 1 0-13.1 6.5 6.5 0 0 1 0 13.1" fill="#005bbb8B"/><path d="M-39.6-230.1a6.7 6.7 0 1 1 0-13.3 6.7 6.7 0 0 1 0 13.3" fill="#005bbb8D"/><path d="M-56-213.1a6.8 6.8 0 1 1 0-13.6 6.8 6.8 0 0 1 0 13.6" fill="#fff8F"/><path d="M28.6-3.1a6.8 6.8 0 1 1 0-13.6 6.8 6.8 0 0 1 0 13.6" fill="#c2e1ff90"/><path d="M84.6-326.9a6.8 6.8 0 1 1 0-13.7 6.8 6.8 0 0 1 0 13.7" fill="#c2e1ff91"/><path d="M263.4-215.6a6.9 6.9 0 1 1 0-13.8 6.9 6.9 0 0 1 0 13.8" fill="#fff92"/><path d="M95.6-329.9a6.9 6.9 0 1 1 0-13.7 6.9 6.9 0 0 1 0 13.7" fill="#005bbb92"/><path d="M166.1-318.3a6.9 6.9 0 1 1 0-13.7 6.9 6.9 0 0 1 0 13.7" fill="#fff50092"/><path d="M-78.5-162a6.9 6.9 0 1 1 0-13.9 6.9 6.9 0 0 1 0 13.9" fill="#c2e1ff93"/><path d="M194-308.9a6.9 6.9 0 1 1 0-13.8 6.9 6.9 0 0 1 0 13.8" fill="#fff50093"/><path d="M266.6-227.4a7 7 0 1 1 0-14 7 7 0 0 1 0 14" fill="#fff94"/><path d="M263.1-70.7a7 7 0 1 1 0-14 7 7 0 0 1 0 14" fill="#fff95"/><path d="M-84-157.9a7 7 0 1 1 0-14 7 7 0 0 1 0 14" fill="#c2e1ff95"/><path d="M217.5-298.8a7 7 0 1 1 0-14.1 7 7 0 0 1 0 14.1" fill="#fff95"/><path d="M105.4-340.9a7 7 0 1 1 0-14.1 7 7 0 0 1 0 14.1" fill="#c2e1ff95"/><path d="M240-280.3a7.1 7.1 0 1 1 0-14.1 7.1 7.1 0 0 1 0 14.1" fill="#c2e1ff96"/><path d="M260.7-57.7a7.1 7.1 0 1 1 0-14.1 7.1 7.1 0 0 1 0 14.1" fill="#c2e1ff96"/><path d="M-83.5-109a7.1 7.1 0 1 1 0-14.1 7.1 7.1 0 0 1 0 14.1" fill="#005bbb97"/><path d="M-89.3-143.6a7.1 7.1 0 1 1 0-14.2 7.1 7.1 0 0 1 0 14.2" fill="#fff50097"/><path d="M80.2-344.5a7.1 7.1 0 1 1 0-14.2 7.1 7.1 0 0 1 0 14.2" fill="#005bbb97"/><path d="M281.1-94.3a7.1 7.1 0 1 1 0-14.2 7.1 7.1 0 0 1 0 14.2" fill="#c2e1ff97"/><path d="M57.2 31a7.1 7.1 0 1 1 0-14.3 7.1 7.1 0 0 1 0 14.3" fill="#c2e1ff97"/><path d="M-87.7-199.4a7.2 7.2 0 1 1 0-14.3 7.2 7.2 0 0 1 0 14.3" fill="#005bbb98"/><path d="M267.7-251.2a7.2 7.2 0 1 1 0-14.3 7.2 7.2 0 0 1 0 14.3" fill="#fff50098"/><path d="M-58.6-42.8a7.2 7.2 0 1 1 0-14.4 7.2 7.2 0 0 1 0 14.4" fill="#fff99"/><path d="M296.6-115.8a7.3 7.3 0 1 1 0-14.6 7.3 7.3 0 0 1 0 14.6" fill="#005bbb9B"/><path d="M79.7 45a7.3 7.3 0 1 1 0-14.6 7.3 7.3 0 0 1 0 14.6" fill="#005bbb9B"/><path d="M32.4 37.1a7.4 7.4 0 1 1 0-14.7 7.4 7.4 0 0 1 0 14.7" fill="#fff9D"/><path d="M66.8-356.7a7.4 7.4 0 1 1 0-14.7 7.4 7.4 0 0 1 0 14.7" fill="#fff9D"/><path d="M4.2 36.3a7.6 7.6 0 1 1 0-15.2 7.6 7.6 0 0 1 0 15.2" fill="#c2e1ffA2"/><path d="M-93.1-247a7.6 7.6 0 1 1 0-15.2 7.6 7.6 0 0 1 0 15.2" fill="#c2e1ffA2"/><path d="M174.1-358.7a7.7 7.7 0 1 1 0-15.4 7.7 7.7 0 0 1 0 15.4" fill="#fff500A4"/><path d="M32.8-362.2a7.7 7.7 0 1 1 0-15.4 7.7 7.7 0 0 1 0 15.4" fill="#c2e1ffA4"/><path d="M205.5-346.1a7.7 7.7 0 1 1 0-15.5 7.7 7.7 0 0 1 0 15.5" fill="#fffA5"/><path d="M168.9 54.7a7.8 7.8 0 1 1 0-15.6 7.8 7.8 0 0 1 0 15.6" fill="#fffA6"/><path d="M-85.3-33.4a7.8 7.8 0 1 1 0-15.6 7.8 7.8 0 0 1 0 15.6" fill="#005bbbA7"/><path d="M-36.2-330.3a7.9 7.9 0 1 1 0-15.7 7.9 7.9 0 0 1 0 15.7" fill="#fffA7"/><path d="M135.3 65.3a7.9 7.9 0 1 1 0-15.8 7.9 7.9 0 0 1 0 15.8" fill="#c2e1ffA8"/><path d="M142.8 64.2a7.9 7.9 0 1 1 0-15.8 7.9 7.9 0 0 1 0 15.8" fill="#fffA8"/><path d="M139.4 65.1a7.9 7.9 0 1 1 0-15.8 7.9 7.9 0 0 1 0 15.8" fill="#c2e1ffA8"/><path d="M312.8-223.3a7.9 7.9 0 1 1 0-15.8 7.9 7.9 0 0 1 0 15.8" fill="#005bbbA9"/><path d="M103.1 70.2a8 8 0 1 1 0-15.9 8 8 0 0 1 0 15.9" fill="#fffA9"/><path d="M107.1 71.3a8 8 0 1 1 0-16 8 8 0 0 1 0 16" fill="#fffAB"/><path d="M143.9 69.1a8.1 8.1 0 1 1 0-16.2 8.1 8.1 0 0 1 0 16.2" fill="#fffAC"/><path d="M178 60a8.1 8.1 0 1 1 0-16.1 8.1 8.1 0 0 1 0 16.1" fill="#fffAD"/><path d="M-8-356.1a8.1 8.1 0 1 1 0-16.2 8.1 8.1 0 0 1 0 16.2" fill="#fff500AD"/><path d="M-25 38.2a8.2 8.2 0 1 1 0-16.3 8.2 8.2 0 0 1 0 16.3" fill="#005bbbAE"/><path d="M306.8-258.3a8.3 8.3 0 1 1 0-16.5 8.3 8.3 0 0 1 0 16.5" fill="#fffB1"/><path d="M-95.2-29.1a8.3 8.3 0 1 1 0-16.6 8.3 8.3 0 0 1 0 16.6" fill="#005bbbB1"/><path d="M-65.8-316.3a8.3 8.3 0 1 1 0-16.6 8.3 8.3 0 0 1 0 16.6" fill="#fff500B1"/><path d="M325.1-94.8a8.4 8.4 0 1 1 0-16.8 8.4 8.4 0 0 1 0 16.8" fill="#c2e1ffB2"/><path d="M-43.7-337.4a8.4 8.4 0 1 1 0-16.7 8.4 8.4 0 0 1 0 16.7" fill="#005bbbB2"/><path d="M59.3-383.9a8.4 8.4 0 1 1 0-16.8 8.4 8.4 0 0 1 0 16.8" fill="#005bbbB3"/><path d="M-90.7-288.8a8.4 8.4 0 1 1 0-16.9 8.4 8.4 0 0 1 0 16.9" fill="#005bbbB4"/><path d="M-42.1 31.4a8.4 8.4 0 1 1 0-16.8 8.4 8.4 0 0 1 0 16.8" fill="#c2e1ffB4"/><path d="M103.3-388a8.5 8.5 0 1 1 0-16.9 8.5 8.5 0 0 1 0 16.9" fill="#fffB4"/><path d="M-88.4-14.6a8.5 8.5 0 1 1 0-16.9 8.5 8.5 0 0 1 0 16.9" fill="#005bbbB5"/><path d="M284.9-9.5a8.5 8.5 0 1 1 0-17 8.5 8.5 0 0 1 0 17" fill="#fff500B6"/><path d="M318.4-241.6a8.6 8.6 0 1 1 0-17.2 8.6 8.6 0 0 1 0 17.2" fill="#fffB8"/><path d="M335.4-149.8a8.6 8.6 0 1 1 0-17.2 8.6 8.6 0 0 1 0 17.2" fill="#fff500B8"/><path d="M290.7-15.3a8.7 8.7 0 1 1 0-17.4 8.7 8.7 0 0 1 0 17.4" fill="#c2e1ffB9"/><path d="M181.5 67.7a8.7 8.7 0 1 1 0-17.4 8.7 8.7 0 0 1 0 17.4" fill="#005bbbBB"/><path d="M332.8-193.3a8.8 8.8 0 1 1 0-17.6 8.8 8.8 0 0 1 0 17.6" fill="#fffBB"/><path d="M-80.6-1.6a8.8 8.8 0 1 1 0-17.5 8.8 8.8 0 0 1 0 17.5" fill="#fff500BC"/><path d="M27.9-378.6a8.8 8.8 0 1 1 0-17.6 8.8 8.8 0 0 1 0 17.6" fill="#c2e1ffBC"/><path d="M-24.9-354.1a8.9 8.9 0 1 1 0-17.8 8.9 8.9 0 0 1 0 17.8" fill="#005bbbBE"/><path d="M316.3-248.4a8.9 8.9 0 1 1 0-17.8 8.9 8.9 0 0 1 0 17.8" fill="#fff500BF"/><path d="M335.7-139.4a8.9 8.9 0 1 1 0-17.9 8.9 8.9 0 0 1 0 17.9" fill="#005bbbBF"/><path d="M18.5 68.1a9 9 0 1 1 0-17.9 9 9 0 0 1 0 17.9" fill="#005bbbC0"/><path d="M-59.3 20.8a9 9 0 1 1 0-17.9 9 9 0 0 1 0 17.9" fill="#005bbbC0"/><path d="M269.8 10.5a9 9 0 1 1 0-17.9 9 9 0 0 1 0 17.9" fill="#005bbbC0"/><path d="M332.3-193.7a9 9 0 1 1 0-18.1 9 9 0 0 1 0 18.1" fill="#c2e1ffC2"/><path d="M128.8-387.4a9.1 9.1 0 1 1 0-18.1 9.1 9.1 0 0 1 0 18.1" fill="#c2e1ffC2"/><path d="M90.3 82a9.1 9.1 0 1 1 0-18.1 9.1 9.1 0 0 1 0 18.1" fill="#fff500C2"/><path d="M136.4 79.4a9.1 9.1 0 1 1 0-18.2 9.1 9.1 0 0 1 0 18.2" fill="#fffC2"/><path d="M204.5-364.6a9.1 9.1 0 1 1 0-18.1 9.1 9.1 0 0 1 0 18.1" fill="#fff500C2"/><path d="M42.6 75a9.1 9.1 0 1 1 0-18.2 9.1 9.1 0 0 1 0 18.2" fill="#005bbbC3"/><path d="M313.3-253a9.1 9.1 0 1 1 0-18.2 9.1 9.1 0 0 1 0 18.2" fill="#c2e1ffC3"/><path d="M265.3 14.1a9.1 9.1 0 1 1 0-18.2 9.1 9.1 0 0 1 0 18.2" fill="#005bbbC3"/><path d="M116.4-388.1a9.1 9.1 0 1 1 0-18.3 9.1 9.1 0 0 1 0 18.3" fill="#fff500C3"/><path d="M245.5-338.3a9.1 9.1 0 1 1 0-18.2 9.1 9.1 0 0 1 0 18.2" fill="#c2e1ffC3"/><path d="M138.1-385.2a9.2 9.2 0 1 1 0-18.3 9.2 9.2 0 0 1 0 18.3" fill="#fffC4"/><path d="M334.5-164.6a9.2 9.2 0 1 1 0-18.3 9.2 9.2 0 0 1 0 18.3" fill="#fff500C5"/><path d="M276.7-307.6a9.2 9.2 0 1 1 0-18.4 9.2 9.2 0 0 1 0 18.4" fill="#fff500C5"/><path d="M-38.6-342.3a9.2 9.2 0 1 1 0-18.5 9.2 9.2 0 0 1 0 18.5" fill="#fff500C6"/><path d="M-78.7-304.7a9.2 9.2 0 1 1 0-18.5 9.2 9.2 0 0 1 0 18.5" fill="#fff500C6"/><path d="M279.1-3.3a9.3 9.3 0 1 1 0-18.6 9.3 9.3 0 0 1 0 18.6" fill="#005bbbC7"/><path d="M331.5-123.1a9.3 9.3 0 1 1 0-18.6 9.3 9.3 0 0 1 0 18.6" fill="#fff500C7"/><path d="M223.4 44.8a9.3 9.3 0 1 1 0-18.7 9.3 9.3 0 0 1 0 18.7" fill="#fffC8"/><path d="M242.8-337.5a9.3 9.3 0 1 1 0-18.7 9.3 9.3 0 0 1 0 18.7" fill="#fffC8"/><path d="M8.3-367.5a9.3 9.3 0 1 1 0-18.7 9.3 9.3 0 0 1 0 18.7" fill="#c2e1ffC8"/><path d="M285.7-13.2a9.4 9.4 0 1 1 0-18.8 9.4 9.4 0 0 1 0 18.8" fill="#005bbbC9"/><path d="M322.5-220.5a9.4 9.4 0 1 1 0-18.8 9.4 9.4 0 0 1 0 18.8" fill="#005bbbC9"/><path d="M34.8-375.5a9.4 9.4 0 1 1 0-18.9 9.4 9.4 0 0 1 0 18.9" fill="#fff500CA"/><path d="M249 24.4a9.4 9.4 0 1 1 0-18.9 9.4 9.4 0 0 1 0 18.9" fill="#fffCA"/><path d="M92.7 77.7a9.5 9.5 0 1 1 0-18.9 9.5 9.5 0 0 1 0 18.9" fill="#c2e1ffCB"/><path d="M329.6-156.9a9.6 9.6 0 1 1 0-19.1 9.6 9.6 0 0 1 0 19.1" fill="#c2e1ffCD"/><path d="M200.2-359.4a9.6 9.6 0 1 1 0-19.1 9.6 9.6 0 0 1 0 19.1" fill="#fffCD"/><path d="M-128.3-134.1a9.6 9.6 0 1 1 0-19.1 9.6 9.6 0 0 1 0 19.1" fill="#c2e1ffCD"/><path d="M127.4-380a9.6 9.6 0 1 1 0-19.2 9.6 9.6 0 0 1 0 19.2" fill="#005bbbCE"/><path d="M-18.8-347.8a9.6 9.6 0 1 1 0-19.3 9.6 9.6 0 0 1 0 19.3" fill="#c2e1ffCE"/><path d="M-41.1 26.4a9.6 9.6 0 1 1 0-19.3 9.6 9.6 0 0 1 0 19.3" fill="#fffCE"/><path d="M-21 40.5a9.6 9.6 0 1 1 0-19.3 9.6 9.6 0 0 1 0 19.3" fill="#005bbbCE"/><path d="M-127.4-137.1a9.6 9.6 0 1 1 0-19.3 9.6 9.6 0 0 1 0 19.3" fill="#fff500CF"/><path d="M327.4-152.8a9.7 9.7 0 1 1 0-19.4 9.7 9.7 0 0 1 0 19.4" fill="#fff500CF"/><path d="M125.9-378.6a9.7 9.7 0 1 1 0-19.3 9.7 9.7 0 0 1 0 19.3" fill="#fffCF"/><path d="M-80.7-283.5a9.8 9.8 0 1 1 0-19.7 9.8 9.8 0 0 1 0 19.7" fill="#fffD3"/><path d="M269.3-297.3a9.8 9.8 0 1 1 0-19.7 9.8 9.8 0 0 1 0 19.7" fill="#fffD3"/><path d="M319.4-188.8a9.9 9.9 0 1 1 0-19.7 9.9 9.9 0 0 1 0 19.7" fill="#fffD3"/><path d="M24 53.4a10 10 0 1 1 0-19.9 10 10 0 0 1 0 19.9" fill="#c2e1ffD6"/><path d="M297.3-59.3a10 10 0 1 1 0-20 10 10 0 0 1 0 20" fill="#fff500D6"/><path d="M183.1-353.3a10 10 0 1 1 0-20 10 10 0 0 1 0 20" fill="#c2e1ffD7"/><path d="M311.6-114.2a10.1 10.1 0 1 1 0-20.1 10.1 10.1 0 0 1 0 20.1" fill="#fff500D8"/><path d="M112-364.9a10.1 10.1 0 1 1 0-20.3 10.1 10.1 0 0 1 0 20.3" fill="#005bbbDA"/><path d="M304.8-94.4a10.1 10.1 0 1 1 0-20.3 10.1 10.1 0 0 1 0 20.3" fill="#c2e1ffDA"/><path d="M99.6 60.3a10.1 10.1 0 1 1 0-20.3 10.1 10.1 0 0 1 0 20.3" fill="#fffDA"/><path d="M244.9-305.5a10.2 10.2 0 1 1 0-20.4 10.2 10.2 0 0 1 0 20.4" fill="#005bbbDB"/><path d="M24.8 42.4a10.2 10.2 0 1 1 0-20.5 10.2 10.2 0 0 1 0 20.5" fill="#fff500DC"/><path d="M-102.9-199.7a10.3 10.3 0 1 1 0-20.5 10.3 10.3 0 0 1 0 20.5" fill="#fffDC"/><path d="M-106.4-147.3a10.3 10.3 0 1 1 0-20.6 10.3 10.3 0 0 1 0 20.6" fill="#fff500DD"/><path d="M15.4 35.9a10.3 10.3 0 1 1 0-20.5 10.3 10.3 0 0 1 0 20.5" fill="#c2e1ffDD"/><path d="M3.5 27.6a10.3 10.3 0 1 1 0-20.7 10.3 10.3 0 0 1 0 20.7" fill="#fffDE"/><path d="M-14.5 16.1a10.4 10.4 0 1 1 0-20.8 10.4 10.4 0 0 1 0 20.8" fill="#fffDF"/><path d="M-17.6 11.9a10.4 10.4 0 1 1 0-20.8 10.4 10.4 0 0 1 0 20.8" fill="#005bbbDF"/><path d="M-90.7-86.9a10.4 10.4 0 1 1 0-20.8 10.4 10.4 0 0 1 0 20.8" fill="#fff500DF"/><path d="M282.8-67.4a10.4 10.4 0 1 1 0-20.8 10.4 10.4 0 0 1 0 20.8" fill="#fffDF"/><path d="M53.4 42.1a10.4 10.4 0 1 1 0-20.9 10.4 10.4 0 0 1 0 20.9" fill="#c2e1ffE0"/><path d="M139.4-347.7a10.4 10.4 0 1 1 0-20.9 10.4 10.4 0 0 1 0 20.9" fill="#fff500E0"/><path d="M-77.6-235.1a10.5 10.5 0 1 1 0-21 10.5 10.5 0 0 1 0 21" fill="#c2e1ffE2"/><path d="M-64.7-257.8a10.5 10.5 0 1 1 0-21.1 10.5 10.5 0 0 1 0 21.1" fill="#fff500E2"/><path d="M51.4 34.5a10.6 10.6 0 1 1 0-21.1 10.6 10.6 0 0 1 0 21.1" fill="#fffE3"/><path d="M277.4-225.8a10.6 10.6 0 1 1 0-21.1 10.6 10.6 0 0 1 0 21.1" fill="#005bbbE3"/><path d="M-51.6-33.8a10.6 10.6 0 1 1 0-21.1 10.6 10.6 0 0 1 0 21.1" fill="#005bbbE3"/><path d="M34.5-329.4a10.6 10.6 0 1 1 0-21.3 10.6 10.6 0 0 1 0 21.3" fill="#005bbbE4"/><path d="M-19.5-295.8a10.7 10.7 0 1 1 0-21.4 10.7 10.7 0 0 1 0 21.4" fill="#c2e1ffE5"/><path d="M284.4-126.6a10.7 10.7 0 1 1 0-21.3 10.7 10.7 0 0 1 0 21.3" fill="#c2e1ffE6"/><path d="M222.2-290.4a10.7 10.7 0 1 1 0-21.4 10.7 10.7 0 0 1 0 21.4" fill="#005bbbE6"/><path d="M-41.4-269.4a10.7 10.7 0 1 1 0-21.4 10.7 10.7 0 0 1 0 21.4" fill="#c2e1ffE6"/><path d="M191.3-306.4a10.8 10.8 0 1 1 0-21.5 10.8 10.8 0 0 1 0 21.5" fill="#fff500E8"/><path d="M9.7 2.4a10.8 10.8 0 1 1 0-21.5 10.8 10.8 0 0 1 0 21.5" fill="#005bbbE8"/><path d="M-42.1-43.7a10.8 10.8 0 1 1 0-21.5 10.8 10.8 0 0 1 0 21.5" fill="#fffE8"/><path d="M-74.7-129.8a10.8 10.8 0 1 1 0-21.7 10.8 10.8 0 0 1 0 21.7" fill="#fffE9"/><path d="M206.7-12.6a10.8 10.8 0 1 1 0-21.6 10.8 10.8 0 0 1 0 21.6" fill="#fffE9"/><path d="M-40.8-49.7a10.9 10.9 0 1 1 0-21.7 10.9 10.9 0 0 1 0 21.7" fill="#c2e1ffEA"/><path d="M-49.5-70a10.9 10.9 0 1 1 0-21.8 10.9 10.9 0 0 1 0 21.8" fill="#c2e1ffEB"/><path d="M11.1-295a10.9 10.9 0 1 1 0-21.9 10.9 10.9 0 0 1 0 21.9" fill="#fff500EB"/><path d="M-33.2-49.2a10.9 10.9 0 1 1 0-21.9 10.9 10.9 0 0 1 0 21.9" fill="#fff500EB"/><path d="M220.2-250.4a11.1 11.1 0 1 1 0-22.2 11.1 11.1 0 0 1 0 22.2" fill="#c2e1ffEE"/><path d="M238-113.6a11.2 11.2 0 1 1 0-22.4 11.2 11.2 0 0 1 0 22.4" fill="#005bbbF1"/><path d="M109.2-27.8a11.4 11.4 0 1 1 0-22.7 11.4 11.4 0 0 1 0 22.7" fill="#c2e1ffF5"/><path d="M58.9-266.5a11.4 11.4 0 1 1 0-22.8 11.4 11.4 0 0 1 0 22.8" fill="#fff500F5"/><path d="M0.4-202.1a11.5 11.5 0 1 1 0-22.9 11.5 11.5 0 0 1 0 22.9" fill="#fffF7"/><path d="M24.8-76.3a11.5 11.5 0 1 1 0-23 11.5 11.5 0 0 1 0 23" fill="#005bbbF8"/><path d="M18-122.7a11.6 11.6 0 1 1 0-23.3 11.6 11.6 0 0 1 0 23.3" fill="#fffFA"/><path d="M167-204a11.6 11.6 0 1 1 0-23.2 11.6 11.6 0 0 1 0 23.2" fill="#c2e1ffFA"/><path d="M168.5-108.2a11.6 11.6 0 1 1 0-23.2 11.6 11.6 0 0 1 0 23.2" fill="#005bbbFB"/><path d="M166.2-186.4a11.7 11.7 0 1 1 0-23.3 11.7 11.7 0 0 1 0 23.3" fill="#fff500FB"/><path d="M124.7-209.5a11.7 11.7 0 1 1 0-23.4 11.7 11.7 0 0 1 0 23.4" fill="#c2e1ffFC"/><path d="M131.2-95.4a11.7 11.7 0 1 1 0-23.4 11.7 11.7 0 0 1 0 23.4" fill="#005bbbFC"/><path d="M155.4-148.2a11.7 11.7 0 1 1 0-23.5 11.7 11.7 0 0 1 0 23.5" fill="#fff500FD"/><path d="M125.5-185.6a11.8 11.8 0 1 1 0-23.5 11.8 11.8 0 0 1 0 23.5" fill="#fff500FD"/><path d="M89.7-121.5a11.8 11.8 0 1 1 0-23.6 11.8 11.8 0 0 1 0 23.6" fill="#fffFE"/><path d="M115.9-167.3a11.8 11.8 0 1 1 0-23.6 11.8 11.8 0 0 1 0 23.6" fill="#fffFE"/></g></svg>