<svg width="1200" height="675" viewBox="-500 -500 1200 675" xmlns="http://www.w3.org/2000/svg"><path d="M-500-500h1200v675h-1200z" fill="#fff"/><path d="M100 85.6a248.1 248.1 0 1 1 0-496.2 248.1 248.1 0 0 1 0 496.2" fill="undefined"/><path d="M285.8-16.5a236.3 236.3 0 0 1-352.8 21.1z"  fill="#005bbb" /><path d="M285.8-16.5a236.3 236.3 0 1 0-352.8 21.1z"  fill="#c2e1ff" /><path d="M111.8 57.5a23.8 23.8 0 1 1 0-47.6 23.8 23.8 0 0 1 0 47.6" fill="#fff500"/><path d="M-510,31.224999999999994L710,-42.0125" stroke-width="11.8125" stroke="#fff500" /></svg>