<svg width="1200" height="675" viewBox="-500 -500 1200 675" xmlns="http://www.w3.org/2000/svg"><path d="M-500-500h1200v675h-1200z" fill="#118ab2"/><path d="M100 85.6a248.1 248.1 0 1 1 0-496.2 248.1 248.1 0 0 1 0 496.2" fill="#06d6a0"/><path d="M297.5-292.1a236.3 236.3 0 0 0-370.2-31.6z"  fill="#073b4c" /><path d="M297.5-292.1a236.3 236.3 0 1 1-370.2-31.6z"  fill="#ef476f" /><path d="M116.2-325.8a27.1 27.1 0 1 1 0-54.2 27.1 27.1 0 0 1 0 54.2" fill="#ffd166"/><path d="M-510,-360.95L710,-257" stroke-width="11.8125" stroke="#ffd166" /></svg>