<svg width="1200" height="675" viewBox="-500 -500 1200 675" xmlns="http://www.w3.org/2000/svg"><path d="M-500-500h1200v675h-1200z" fill="#c2e1ff"/><path d="M100 85.6a248.1 248.1 0 1 1 0-496.2 248.1 248.1 0 0 1 0 496.2" fill="undefined"/><path d="M331-113.1a236.3 236.3 0 0 1-463.8-9z"  fill="#fff" /><path d="M331-113.1a236.3 236.3 0 1 0-463.8-9z"  fill="#005bbb" /><path d="M97.3 35.4a57.4 57.4 0 1 1 0-114.8 57.4 57.4 0 0 1 0 114.8" fill="#fff500"/><path d="M-510,-129.425L710,-105.80000000000001" stroke-width="11.8125" stroke="#fff500" /></svg>