<svg width="1200" height="675" viewBox="-500 -500 1200 675" xmlns="http://www.w3.org/2000/svg"><path d="M-500-500h1200v675h-1200z" fill="#ffd60a"/><path d="M100 85.6a248.1 248.1 0 1 1 0-496.2 248.1 248.1 0 0 1 0 496.2" fill="#ffc300"/><path d="M335.3-140.9a236.3 236.3 0 0 1-471-5.4z"  fill="#003566" /><path d="M335.3-140.9a236.3 236.3 0 1 0-471-5.4z"  fill="#000814" /><path d="M98.5 30.3a65.2 65.2 0 1 1 0-130.4 65.2 65.2 0 0 1 0 130.4" fill="#001d3d"/><path d="M-510,-150.6875L710,-136.5125" stroke-width="11.8125" stroke="#001d3d" /></svg>