<svg width="1200" height="675" viewBox="-500 -500 1200 675" xmlns="http://www.w3.org/2000/svg"><path d="M-500-500h1200v675h-1200z" fill="#c2e1ff"/><path d="M100 85.6a248.1 248.1 0 1 1 0-496.2 248.1 248.1 0 0 1 0 496.2" fill="undefined"/><path d="M307.4-275.6a236.3 236.3 0 0 0-397.1-27.7z"  fill="#fff" /><path d="M307.4-275.6a236.3 236.3 0 1 1-397.1-27.7z"  fill="#005bbb" /><path d="M112.6-311.1a32.7 32.7 0 1 1 0-65.4 32.7 32.7 0 0 1 0 65.4" fill="#fff500"/><path d="M-510,-332.6L710,-247.55" stroke-width="11.8125" stroke="#fff500" /></svg>