<svg width="1200" height="675" viewBox="-500 -500 1200 675" xmlns="http://www.w3.org/2000/svg"><path d="M-500-500h1200v675h-1200z" fill="#f4a261"/><path d="M100 85.6a248.1 248.1 0 1 1 0-496.2 248.1 248.1 0 0 1 0 496.2" fill="#2a9d8f"/><path d="M281.4-11.1a236.3 236.3 0 0 1-388.9-38.4z"  fill="#e9c46a" /><path d="M281.4-11.1a236.3 236.3 0 1 0-388.9-38.4z"  fill="#264653" /><path d="M81.9 52.2a31 31 0 1 1 0-62.1 31 31 0 0 1 0 62.1" fill="#e76f51"/><path d="M-510,-89.2625L710,31.224999999999994" stroke-width="11.8125" stroke="#e76f51" /></svg>