<svg width="1200" height="675" viewBox="-500 -500 1200 675" xmlns="http://www.w3.org/2000/svg"><path d="M-500-500h1200v675h-1200z" fill="#fff"/><path d="M100 85.6a248.1 248.1 0 1 1 0-496.2 248.1 248.1 0 0 1 0 496.2" fill="undefined"/><path d="M330.3-215a236.3 236.3 0 0 0-440.4-55.5z"  fill="#c2e1ff" /><path d="M330.3-215a236.3 236.3 0 1 1-440.4-55.5z"  fill="#fff500" /><path d="M119.8-273.2a46.6 46.6 0 1 1 0-93.2 46.6 46.6 0 0 1 0 93.2" fill="#005bbb"/><path d="M-510,-320.7875L710,-167.225" stroke-width="11.8125" stroke="#005bbb" /></svg>