<svg width="1200" height="675" viewBox="-500 -500 1200 675" xmlns="http://www.w3.org/2000/svg"><path d="M-500-500h1200v675h-1200z" fill="#fff"/><path d="M100 85.6a248.1 248.1 0 1 1 0-496.2 248.1 248.1 0 0 1 0 496.2" fill="undefined"/><path d="M334.4-191.9a236.3 236.3 0 0 0-467.8-7.3z"  fill="#c2e1ff" /><path d="M334.4-191.9a236.3 236.3 0 1 1-467.8-7.3z"  fill="#fff500" /><path d="M102.1-236.2a61 61 0 1 1 0-121.9 61 61 0 0 1 0 121.9" fill="#005bbb"/><path d="M-510,-205.025L710,-186.125" stroke-width="11.8125" stroke="#005bbb" /></svg>