<svg width="1200" height="675" viewBox="-500 -500 1200 675" xmlns="http://www.w3.org/2000/svg"><path d="M-500-500h1200v675h-1200z" fill="#fff"/><path d="M100 85.6a248.1 248.1 0 1 1 0-496.2 248.1 248.1 0 0 1 0 496.2" fill="undefined"/><path d="M324.5-88.9a236.3 236.3 0 0 1-431.6 40.1z"  fill="#c2e1ff" /><path d="M324.5-88.9a236.3 236.3 0 1 0-431.6 40.1z"  fill="#fff500" /><path d="M115.3 44.6a42.6 42.6 0 1 1 0-85.3 42.6 42.6 0 0 1 0 85.3" fill="#005bbb"/><path d="M-510,-11.299999999999983L710,-124.69999999999999" stroke-width="11.8125" stroke="#005bbb" /></svg>