<svg width="1200" height="675" viewBox="-500 -500 1200 675" xmlns="http://www.w3.org/2000/svg"><path d="M-500-500h1200v675h-1200z" fill="#fff"/><path d="M100 85.6a248.1 248.1 0 1 1 0-496.2 248.1 248.1 0 0 1 0 496.2" fill="undefined"/><path d="M317.4-255a236.3 236.3 0 0 0-416-35.5z"  fill="#c2e1ff" /><path d="M317.4-255a236.3 236.3 0 1 1-416-35.5z"  fill="#fff500" /><path d="M114.7-297.6a37.7 37.7 0 1 1 0-75.4 37.7 37.7 0 0 1 0 75.4" fill="#005bbb"/><path d="M-510,-325.5125L710,-221.5625" stroke-width="11.8125" stroke="#005bbb" /></svg>