<svg width="1200" height="675" viewBox="-500 -500 1200 675" xmlns="http://www.w3.org/2000/svg"><path d="M-500-500h1200v675h-1200z" fill="#fff"/><path d="M100 85.6a248.1 248.1 0 1 1 0-496.2 248.1 248.1 0 0 1 0 496.2" fill="undefined"/><path d="M295.8-294.6a236.3 236.3 0 0 0-418.3 52.6z"  fill="#005bbb" /><path d="M295.8-294.6a236.3 236.3 0 1 1-418.3 52.6z"  fill="#c2e1ff" /><path d="M78.6-293.7a38.9 38.9 0 1 1 0-77.8 38.9 38.9 0 0 1 0 77.8" fill="#fff500"/><path d="M-510,-193.2125L710,-346.775" stroke-width="11.8125" stroke="#fff500" /></svg>