<svg width="1200" height="675" viewBox="-500 -500 1200 675" xmlns="http://www.w3.org/2000/svg"><path d="M-500-500h1200v675h-1200z" fill="#fff"/><path d="M100 85.6a248.1 248.1 0 1 1 0-496.2 248.1 248.1 0 0 1 0 496.2" fill="undefined"/><path d="M336.1-171.5a236.3 236.3 0 0 0-472.3 15.6z"  fill="#005bbb" /><path d="M336.1-171.5a236.3 236.3 0 1 1-472.3 15.6z"  fill="#c2e1ff" /><path d="M96.1-210.6a70.5 70.5 0 1 1 0-141.1 70.5 70.5 0 0 1 0 141.1" fill="#fff500"/><path d="M-510,-143.6L710,-183.7625" stroke-width="11.8125" stroke="#fff500" /></svg>