<svg width="1200" height="675" viewBox="-500 -500 1200 675" xmlns="http://www.w3.org/2000/svg"><path d="M-500-500h1200v675h-1200z" fill="#ffffff"/><path d="M100 85.6a248.1 248.1 0 1 1 0-496.2 248.1 248.1 0 0 1 0 496.2" fill="#fca311"/><path d="M313.5-263.6a236.3 236.3 0 0 0-395.9-49.1z"  fill="#e5e5e5" /><path d="M313.5-263.6a236.3 236.3 0 1 1-395.9-49.1z"  fill="#14213d" /><path d="M122.3-309.7a32.9 32.9 0 1 1 0-65.7 32.9 32.9 0 0 1 0 65.7" fill="#112233"/><path d="M-510,-365.67499999999995L710,-214.475" stroke-width="11.8125" stroke="#112233" /></svg>