<svg width="1200" height="675" viewBox="-500 -500 1200 675" xmlns="http://www.w3.org/2000/svg"><path d="M-500-500h1200v675h-1200z" fill="#c2e1ff"/><path d="M100 85.6a248.1 248.1 0 1 1 0-496.2 248.1 248.1 0 0 1 0 496.2" fill="undefined"/><path d="M304.5-280.8a236.3 236.3 0 0 0-438.6 86.6z"  fill="#005bbb" /><path d="M304.5-280.8a236.3 236.3 0 1 1-438.6 86.6z"  fill="#fff500" /><path d="M69.7-268a47.9 47.9 0 1 1 0-95.8 47.9 47.9 0 0 1 0 95.8" fill="#fff"/><path d="M-510,-119.975L710,-360.95" stroke-width="11.8125" stroke="#fff" /></svg>