<svg width="1200" height="675" viewBox="-500 -500 1200 675" xmlns="http://www.w3.org/2000/svg"><path d="M-500-500h1200v675h-1200z" fill="#fff"/><path d="M100 85.6a248.1 248.1 0 1 1 0-496.2 248.1 248.1 0 0 1 0 496.2" fill="undefined"/><path d="M275.9-320.2a236.3 236.3 0 0 0-330.3-21.1z"  fill="#c2e1ff" /><path d="M275.9-320.2a236.3 236.3 0 1 1-330.3-21.1z"  fill="#fff500" /><path d="M112.9-344.2a20.3 20.3 0 1 1 0-40.6 20.3 20.3 0 0 1 0 40.6" fill="#005bbb"/><path d="M-510,-370.4L710,-292.4375" stroke-width="11.8125" stroke="#005bbb" /></svg>