<svg width="1200" height="675" viewBox="-500 -500 1200 675" xmlns="http://www.w3.org/2000/svg"><path d="M-500-500h1200v675h-1200z" fill="#c2e1ff"/><path d="M100 85.6a248.1 248.1 0 1 1 0-496.2 248.1 248.1 0 0 1 0 496.2" fill="undefined"/><path d="M333.9-129.1a236.3 236.3 0 0 1-469.4-52.8z"  fill="#005bbb" /><path d="M333.9-129.1a236.3 236.3 0 1 0-469.4-52.8z"  fill="#fff500" /><path d="M86.4 27.1a68.8 68.8 0 1 1 0-137.5 68.8 68.8 0 0 1 0 137.5" fill="#fff"/><path d="M-510,-223.925L710,-86.89999999999999" stroke-width="11.8125" stroke="#fff" /></svg>