<svg width="1200" height="675" viewBox="-500 -500 1200 675" xmlns="http://www.w3.org/2000/svg"><path d="M-500-500h1200v675h-1200z" fill="#eae2b7"/><path d="M100 85.6a248.1 248.1 0 1 1 0-496.2 248.1 248.1 0 0 1 0 496.2" fill="#d62828"/><path d="M335.1-186.1a236.3 236.3 0 0 0-471.1 11.8z"  fill="#fcbf49" /><path d="M335.1-186.1a236.3 236.3 0 1 1-471.1 11.8z"  fill="#003049" /><path d="M96.8-223.9a65.6 65.6 0 1 1 0-131.1 65.6 65.6 0 0 1 0 131.1" fill="#f77f00"/><path d="M-510,-164.8625L710,-195.575" stroke-width="11.8125" stroke="#f77f00" /></svg>