<svg width="1200" height="675" viewBox="-500 -500 1200 675" xmlns="http://www.w3.org/2000/svg"><path d="M-500-500h1200v675h-1200z" fill="#ffffff"/><path d="M100 85.6a248.1 248.1 0 1 1 0-496.2 248.1 248.1 0 0 1 0 496.2" fill="#14213d"/><path d="M270.6-325.9a236.3 236.3 0 0 0-352.8 13z"  fill="#fca311" /><path d="M270.6-325.9a236.3 236.3 0 1 1-352.8 13z"  fill="#e5e5e5" /><path d="M92.8-335.2a23.8 23.8 0 1 1 0-47.6 23.8 23.8 0 0 1 0 47.6" fill="#112233"/><path d="M-510,-297.1625L710,-342.05" stroke-width="11.8125" stroke="#112233" /></svg>