<svg width="1200" height="675" viewBox="-500 -500 1200 675" xmlns="http://www.w3.org/2000/svg"><path d="M-500-500h1200v675h-1200z" fill="#fff500"/><path d="M100 85.6a248.1 248.1 0 1 1 0-496.2 248.1 248.1 0 0 1 0 496.2" fill="undefined"/><path d="M322.6-83.2a236.3 236.3 0 0 1-449.1-12.2z"  fill="#c2e1ff" /><path d="M322.6-83.2a236.3 236.3 0 1 0-449.1-12.2z"  fill="#005bbb" /><path d="M95.8 41.1a48.9 48.9 0 1 1 0-97.8 48.9 48.9 0 0 1 0 97.8" fill="#fff"/><path d="M-510,-105.80000000000001L710,-72.725" stroke-width="11.8125" stroke="#fff" /></svg>