<svg width="1200" height="675" viewBox="-500 -500 1200 675" xmlns="http://www.w3.org/2000/svg"><path d="M-500-500h1200v675h-1200z" fill="#fff"/><path d="M100 85.6a248.1 248.1 0 1 1 0-496.2 248.1 248.1 0 0 1 0 496.2" fill="undefined"/><path d="M315.8-258.7a236.3 236.3 0 0 0-452 90.2z"  fill="#005bbb" /><path d="M315.8-258.7a236.3 236.3 0 1 1-452 90.2z"  fill="#c2e1ff" /><path d="M71.8-248.7a55.2 55.2 0 1 1 0-110.4 55.2 55.2 0 0 1 0 110.4" fill="#fff500"/><path d="M-510,-93.98750000000001L710,-337.325" stroke-width="11.8125" stroke="#fff500" /></svg>