<svg width="1200" height="675" viewBox="-500 -500 1200 675" xmlns="http://www.w3.org/2000/svg"><path d="M-500-500h1200v675h-1200z" fill="#14213d"/><path d="M100 85.6a248.1 248.1 0 1 1 0-496.2 248.1 248.1 0 0 1 0 496.2" fill="#e5e5e5"/><path d="M329.5-106.3a236.3 236.3 0 0 1-465.7-61.3z"  fill="#fca311" /><path d="M329.5-106.3a236.3 236.3 0 1 0-465.7-61.3z"  fill="#ffffff" /><path d="M82.9 30.5a63.1 63.1 0 1 1 0-126.3 63.1 63.1 0 0 1 0 126.3" fill="#112233"/><path d="M-510,-216.8375L710,-56.1875" stroke-width="11.8125" stroke="#112233" /></svg>