<svg width="1200" height="675" viewBox="-500 -500 1200 675" xmlns="http://www.w3.org/2000/svg"><path d="M-500-500h1200v675h-1200z" fill="#e9c46a"/><path d="M100 85.6a248.1 248.1 0 1 1 0-496.2 248.1 248.1 0 0 1 0 496.2" fill="#f4a261"/><path d="M252.2-343.2a236.3 236.3 0 0 0-317.9 12.3z"  fill="#264653" /><path d="M252.2-343.2a236.3 236.3 0 1 1-317.9 12.3z"  fill="#e76f51" /><path d="M92-349.4a18.5 18.5 0 1 1 0-36.9 18.5 18.5 0 0 1 0 36.9" fill="#2a9d8f"/><path d="M-510,-313.70000000000005L710,-360.95" stroke-width="11.8125" stroke="#2a9d8f" /></svg>