<svg width="1200" height="675" viewBox="-500 -500 1200 675" xmlns="http://www.w3.org/2000/svg"><path d="M-500-500h1200v675h-1200z" fill="#fff500"/><path d="M100 85.6a248.1 248.1 0 1 1 0-496.2 248.1 248.1 0 0 1 0 496.2" fill="undefined"/><path d="M286.3-17.2a236.3 236.3 0 0 1-379.7-9.6z"  fill="#c2e1ff" /><path d="M286.3-17.2a236.3 236.3 0 1 0-379.7-9.6z"  fill="#005bbb" /><path d="M95.3 54.5a28.7 28.7 0 1 1 0-57.4 28.7 28.7 0 0 1 0 57.4" fill="#fff"/><path d="M-510,-37.287499999999994L710,-6.574999999999989" stroke-width="11.8125" stroke="#fff" /></svg>