<svg width="1200" height="675" viewBox="-500 -500 1200 675" xmlns="http://www.w3.org/2000/svg"><path d="M-500-500h1200v675h-1200z" fill="#fca311"/><path d="M100 85.6a248.1 248.1 0 1 1 0-496.2 248.1 248.1 0 0 1 0 496.2" fill="#112233"/><path d="M329.1-104.7a236.3 236.3 0 0 1-426.1 72.6z"  fill="#e5e5e5" /><path d="M329.1-104.7a236.3 236.3 0 1 0-426.1 72.6z"  fill="#14213d" /><path d="M127.9 43.2a42.2 42.2 0 1 1 0-84.4 42.2 42.2 0 0 1 0 84.4" fill="#ffffff"/><path d="M-510,38.3125L710,-169.5875" stroke-width="11.8125" stroke="#ffffff" /></svg>