<svg width="1200" height="675" viewBox="-500 -500 1200 675" xmlns="http://www.w3.org/2000/svg"><path d="M-500-500h1200v675h-1200z" fill="#F6C8AC"/><path d="M100 85.6a248.1 248.1 0 1 1 0-496.2 248.1 248.1 0 0 1 0 496.2" fill="#6E819E"/><path d="M317.4-255a236.3 236.3 0 0 0-428.7-13.3z"  fill="#2C4D5D" /><path d="M317.4-255a236.3 236.3 0 1 1-428.7-13.3z"  fill="#EFF7F5" /><path d="M105.2-289a41.1 41.1 0 1 1 0-82.3 41.1 41.1 0 0 1 0 82.3" fill="#EF8F88"/><path d="M-510,-280.625L710,-242.825" stroke-width="11.8125" stroke="#EF8F88" /></svg>