<svg width="1200" height="675" viewBox="-500 -500 1200 675" xmlns="http://www.w3.org/2000/svg"><path d="M-500-500h1200v675h-1200z" fill="#fff"/><path d="M100 85.6a248.1 248.1 0 1 1 0-496.2 248.1 248.1 0 0 1 0 496.2" fill="undefined"/><path d="M324-87.5a236.3 236.3 0 0 1-457.6-39.8z"  fill="#c2e1ff" /><path d="M324-87.5a236.3 236.3 0 1 0-457.6-39.8z"  fill="#fff500" /><path d="M87.3 37a54.3 54.3 0 1 1 0-108.6 54.3 54.3 0 0 1 0 108.6" fill="#005bbb"/><path d="M-510,-160.1375L710,-53.82499999999999" stroke-width="11.8125" stroke="#005bbb" /></svg>