<svg width="1200" height="675" viewBox="-500 -500 1200 675" xmlns="http://www.w3.org/2000/svg"><path d="M-500-500h1200v675h-1200z" fill="#e9c46a"/><path d="M100 85.6a248.1 248.1 0 1 1 0-496.2 248.1 248.1 0 0 1 0 496.2" fill="#f4a261"/><path d="M265.7 5.9a236.3 236.3 0 0 1-346.3-16.1z"  fill="#e76f51" /><path d="M265.7 5.9a236.3 236.3 0 1 0-346.3-16.1z"  fill="#2a9d8f" /><path d="M90.8 58.4a22.7 22.7 0 1 1 0-45.5 22.7 22.7 0 0 1 0 45.5" fill="#264653"/><path d="M-510,-30.19999999999999L710,26.5" stroke-width="11.8125" stroke="#264653" /></svg>