<svg width="1200" height="675" viewBox="-500 -500 1200 675" xmlns="http://www.w3.org/2000/svg"><path d="M-500-500h1200v675h-1200z" fill="#fff500"/><path d="M100 85.6a248.1 248.1 0 1 1 0-496.2 248.1 248.1 0 0 1 0 496.2" fill="undefined"/><path d="M334.9-137.1a236.3 236.3 0 0 1-464.2 31.5z"  fill="#fff" /><path d="M334.9-137.1a236.3 236.3 0 1 0-464.2 31.5z"  fill="#c2e1ff" /><path d="M109.4 34.4a58.5 58.5 0 1 1 0-117 58.5 58.5 0 0 1 0 117" fill="#005bbb"/><path d="M-510,-79.8125L710,-162.5" stroke-width="11.8125" stroke="#005bbb" /></svg>