<svg width="1200" height="675" viewBox="-500 -500 1200 675" xmlns="http://www.w3.org/2000/svg"><path d="M-500-500h1200v675h-1200z" fill="#d62828"/><path d="M100 85.6a248.1 248.1 0 1 1 0-496.2 248.1 248.1 0 0 1 0 496.2" fill="#fcbf49"/><path d="M317.3-255.3a236.3 236.3 0 0 0-451.5 124.1z"  fill="#eae2b7" /><path d="M317.3-255.3a236.3 236.3 0 1 1-451.5 124.1z"  fill="#003049" /><path d="M64.5-230.5a61.3 61.3 0 1 1 0-122.6 61.3 61.3 0 0 1 0 122.6" fill="#f77f00"/><path d="M-510,-27.837500000000006L710,-363.3125" stroke-width="11.8125" stroke="#f77f00" /></svg>