<svg width="1200" height="675" viewBox="-500 -500 1200 675" xmlns="http://www.w3.org/2000/svg"><path d="M-500-500h1200v675h-1200z" fill="#fff"/><path d="M100 85.6a248.1 248.1 0 1 1 0-496.2 248.1 248.1 0 0 1 0 496.2" fill="undefined"/><path d="M273.4-2.1a236.3 236.3 0 0 1-372-32.4z"  fill="#c2e1ff" /><path d="M273.4-2.1a236.3 236.3 0 1 0-372-32.4z"  fill="#fff500" /><path d="M83.5 54.7a27.5 27.5 0 1 1 0-54.9 27.5 27.5 0 0 1 0 54.9" fill="#005bbb"/><path d="M-510,-70.3625L710,35.94999999999999" stroke-width="11.8125" stroke="#005bbb" /></svg>