<svg width="1200" height="675" viewBox="-500 -500 1200 675" xmlns="http://www.w3.org/2000/svg"><path d="M-500-500h1200v675h-1200z" fill="#F6C8AC"/><path d="M100 85.6a248.1 248.1 0 1 1 0-496.2 248.1 248.1 0 0 1 0 496.2" fill="#EF8F88"/><path d="M328.8-103.7a236.3 236.3 0 0 1-451.8 19.2z"  fill="#2C4D5D" /><path d="M328.8-103.7a236.3 236.3 0 1 0-451.8 19.2z"  fill="#EFF7F5" /><path d="M106.5 40.1a50.3 50.3 0 1 1 0-100.7 50.3 50.3 0 0 1 0 100.7" fill="#FFFFFF"/><path d="M-510,-68L710,-119.975" stroke-width="11.8125" stroke="#FFFFFF" /></svg>