<svg width="1200" height="675" viewBox="-500 -500 1200 675" xmlns="http://www.w3.org/2000/svg"><path d="M-500-500h1200v675h-1200z" fill="#fff500"/><path d="M100 85.6a248.1 248.1 0 1 1 0-496.2 248.1 248.1 0 0 1 0 496.2" fill="undefined"/><path d="M324.4-88.5a236.3 236.3 0 0 0-448.1-150.1z"  fill="#c2e1ff" /><path d="M324.4-88.5a236.3 236.3 0 1 1-448.1-150.1z"  fill="#005bbb" /><path d="M137.7-204.5a70.5 70.5 0 1 1 0-141.1 70.5 70.5 0 0 1 0 141.1" fill="#fff"/><path d="M-510,-368.0375L710,40.67499999999998" stroke-width="11.8125" stroke="#fff" /></svg>