<svg width="1200" height="675" viewBox="-500 -500 1200 675" xmlns="http://www.w3.org/2000/svg"><path d="M-500-500h1200v675h-1200z" fill="#fff"/><path d="M100 85.6a248.1 248.1 0 1 1 0-496.2 248.1 248.1 0 0 1 0 496.2" fill="undefined"/><path d="M333.2-124.5a236.3 236.3 0 0 1-466.8-2.7z"  fill="#c2e1ff" /><path d="M333.2-124.5a236.3 236.3 0 1 0-466.8-2.7z"  fill="#fff500" /><path d="M99.2 33.8a59.9 59.9 0 1 1 0-119.8 59.9 59.9 0 0 1 0 119.8" fill="#005bbb"/><path d="M-510,-129.425L710,-122.3375" stroke-width="11.8125" stroke="#005bbb" /></svg>