<svg width="1200" height="675" viewBox="-500 -500 1200 675" xmlns="http://www.w3.org/2000/svg"><path d="M-500-500h1200v675h-1200z" fill="#e76f51"/><path d="M100 85.6a248.1 248.1 0 1 1 0-496.2 248.1 248.1 0 0 1 0 496.2" fill="#e9c46a"/><path d="M323-84.5a236.3 236.3 0 0 1-422.2 49.1z"  fill="#f4a261" /><path d="M323-84.5a236.3 236.3 0 1 0-422.2 49.1z"  fill="#2a9d8f" /><path d="M119.6 46a39.9 39.9 0 1 1 0-79.8 39.9 39.9 0 0 1 0 79.8" fill="#264653"/><path d="M-510,12.324999999999989L710,-129.425" stroke-width="11.8125" stroke="#264653" /></svg>