<svg width="1200" height="675" viewBox="-500 -500 1200 675" xmlns="http://www.w3.org/2000/svg"><path d="M-500-500h1200v675h-1200z" fill="#fff"/><path d="M100 85.6a248.1 248.1 0 1 1 0-496.2 248.1 248.1 0 0 1 0 496.2" fill="undefined"/><path d="M294.1-27.8a236.3 236.3 0 0 1-388.2 0z"  fill="#c2e1ff" /><path d="M294.1-27.8a236.3 236.3 0 1 0-388.2 0z"  fill="#fff500" /><path d="M100 53.4a30.5 30.5 0 1 1 0-60.9 30.5 30.5 0 0 1 0 60.9" fill="#005bbb"/><path d="M-510,-27.837500000000006L710,-27.837500000000006" stroke-width="11.8125" stroke="#005bbb" /></svg>