<svg width="1200" height="675" viewBox="-500 -500 1200 675" xmlns="http://www.w3.org/2000/svg"><path d="M-500-500h1200v675h-1200z" fill="#fff500"/><path d="M100 85.6a248.1 248.1 0 1 1 0-496.2 248.1 248.1 0 0 1 0 496.2" fill="undefined"/><path d="M335.6-179.8a236.3 236.3 0 0 0-451.8-77.8z"  fill="#c2e1ff" /><path d="M335.6-179.8a236.3 236.3 0 1 1-451.8-77.8z"  fill="#005bbb" /><path d="M124.9-253.3a53.8 53.8 0 1 1 0-107.5 53.8 53.8 0 0 1 0 107.5" fill="#fff"/><path d="M-510,-325.5125L710,-115.25" stroke-width="11.8125" stroke="#fff" /></svg>