<svg width="1200" height="675" viewBox="-500 -500 1200 675" xmlns="http://www.w3.org/2000/svg"><path d="M-500-500h1200v675h-1200z" fill="#fff500"/><path d="M100 85.6a248.1 248.1 0 1 1 0-496.2 248.1 248.1 0 0 1 0 496.2" fill="undefined"/><path d="M334.3-193a236.3 236.3 0 0 0-469.6 9.1z"  fill="#c2e1ff" /><path d="M334.3-193a236.3 236.3 0 1 1-469.6 9.1z"  fill="#005bbb" /><path d="M97.5-230.5a63.1 63.1 0 1 1 0-126.2 63.1 63.1 0 0 1 0 126.2" fill="#fff"/><path d="M-510,-176.675L710,-200.3" stroke-width="11.8125" stroke="#fff" /></svg>