<svg width="1200" height="675" viewBox="-500 -500 1200 675" xmlns="http://www.w3.org/2000/svg"><path d="M-500-500h1200v675h-1200z" fill="#fff"/><path d="M100 85.6a248.1 248.1 0 1 1 0-496.2 248.1 248.1 0 0 1 0 496.2" fill="undefined"/><path d="M277.5-318.4a236.3 236.3 0 0 0-380.7 35.4z"  fill="#005bbb" /><path d="M277.5-318.4a236.3 236.3 0 1 1-380.7 35.4z"  fill="#c2e1ff" /><path d="M82.6-320a29.2 29.2 0 1 1 0-58.5 29.2 29.2 0 0 1 0 58.5" fill="#fff500"/><path d="M-510,-245.1875L710,-358.5875" stroke-width="11.8125" stroke="#fff500" /></svg>