<svg width="1200" height="675" viewBox="-500 -500 1200 675" xmlns="http://www.w3.org/2000/svg"><path d="M-500-500h1200v675h-1200z" fill="#fff500"/><path d="M100 85.6a248.1 248.1 0 1 1 0-496.2 248.1 248.1 0 0 1 0 496.2" fill="undefined"/><path d="M304.5-280.9a236.3 236.3 0 0 0-438.9 89.3z"  fill="#c2e1ff" /><path d="M304.5-280.9a236.3 236.3 0 1 1-438.9 89.3z"  fill="#005bbb" /><path d="M69-266.8a48.3 48.3 0 1 1 0-96.6 48.3 48.3 0 0 1 0 96.6" fill="#fff"/><path d="M-510,-115.25L710,-363.3125" stroke-width="11.8125" stroke="#fff" /></svg>