<svg width="1200" height="675" viewBox="-500 -500 1200 675" xmlns="http://www.w3.org/2000/svg"><path d="M-500-500h1200v675h-1200z" fill="#fff"/><path d="M100 85.6a248.1 248.1 0 1 1 0-496.2 248.1 248.1 0 0 1 0 496.2" fill="undefined"/><path d="M333.8-128.5a236.3 236.3 0 0 0-466.5-74.9z"  fill="#005bbb" /><path d="M333.8-128.5a236.3 236.3 0 1 1-466.5-74.9z"  fill="#c2e1ff" /><path d="M119-211a69.8 69.8 0 1 1 0-139.7 69.8 69.8 0 0 1 0 139.7" fill="#fff500"/><path d="M-510,-264.0875L710,-68" stroke-width="11.8125" stroke="#fff500" /></svg>