<svg width="1200" height="675" viewBox="-500 -500 1200 675" xmlns="http://www.w3.org/2000/svg"><path d="M-500-500h1200v675h-1200z" fill="#c2e1ff"/><path d="M100 85.6a248.1 248.1 0 1 1 0-496.2 248.1 248.1 0 0 1 0 496.2" fill="undefined"/><path d="M331.6-115.8a236.3 236.3 0 0 0-460.1-106.9z"  fill="#005bbb" /><path d="M331.6-115.8a236.3 236.3 0 1 1-460.1-106.9z"  fill="#fff500" /><path d="M127.5-212.1a68.8 68.8 0 1 1 0-137.6 68.8 68.8 0 0 1 0 137.6" fill="#fff"/><path d="M-510,-311.3375L710,-27.837500000000006" stroke-width="11.8125" stroke="#fff" /></svg>