<svg width="1200" height="675" viewBox="-500 -500 1200 675" xmlns="http://www.w3.org/2000/svg"><path d="M-500-500h1200v675h-1200z" fill="#fff"/><path d="M100 85.6a248.1 248.1 0 1 1 0-496.2 248.1 248.1 0 0 1 0 496.2" fill="undefined"/><path d="M290.7-23a236.3 236.3 0 0 1-408.6-48.3z"  fill="#c2e1ff" /><path d="M290.7-23a236.3 236.3 0 1 0-408.6-48.3z"  fill="#fff500" /><path d="M79.3 48.5a36 36 0 1 1 0-72.1 36 36 0 0 1 0 72.1" fill="#005bbb"/><path d="M-510,-117.6125L710,26.5" stroke-width="11.8125" stroke="#005bbb" /></svg>