<svg width="1200" height="675" viewBox="-500 -500 1200 675" xmlns="http://www.w3.org/2000/svg"><path d="M-500-500h1200v675h-1200z" fill="#fff"/><path d="M100 85.6a248.1 248.1 0 1 1 0-496.2 248.1 248.1 0 0 1 0 496.2" fill="undefined"/><path d="M331.3-210.5a236.3 236.3 0 0 0-455.5-26.5z"  fill="#005bbb" /><path d="M331.3-210.5a236.3 236.3 0 1 1-455.5-26.5z"  fill="#c2e1ff" /><path d="M108.6-258.6a52.5 52.5 0 1 1 0-104.9 52.5 52.5 0 0 1 0 104.9" fill="#fff500"/><path d="M-510,-259.3625L710,-188.4875" stroke-width="11.8125" stroke="#fff500" /></svg>