<svg width="1200" height="675" viewBox="-500 -500 1200 675" xmlns="http://www.w3.org/2000/svg"><path d="M-500-500h1200v675h-1200z" fill="#c2e1ff"/><path d="M100 85.6a248.1 248.1 0 1 1 0-496.2 248.1 248.1 0 0 1 0 496.2" fill="undefined"/><path d="M317.6-254.4a236.3 236.3 0 0 0-448.8 43.4z"  fill="#005bbb" /><path d="M317.6-254.4a236.3 236.3 0 1 1-448.8 43.4z"  fill="#fff500" /><path d="M85.2-265.5a49.7 49.7 0 1 1 0-99.4 49.7 49.7 0 0 1 0 99.4" fill="#fff"/><path d="M-510,-174.3125L710,-292.4375" stroke-width="11.8125" stroke="#fff" /></svg>