<svg width="1200" height="675" viewBox="-500 -500 1200 675" xmlns="http://www.w3.org/2000/svg"><path d="M-500-500h1200v675h-1200z" fill="#fff500"/><path d="M100 85.6a248.1 248.1 0 1 1 0-496.2 248.1 248.1 0 0 1 0 496.2" fill="undefined"/><path d="M317.8-70.9a236.3 236.3 0 0 1-453.5-107.1z"  fill="#c2e1ff" /><path d="M317.8-70.9a236.3 236.3 0 1 0-453.5-107.1z"  fill="#005bbb" /><path d="M68.3 30.6a59.1 59.1 0 1 1 0-118.3 59.1 59.1 0 0 1 0 118.3" fill="#fff"/><path d="M-510,-266.45L710,21.775000000000006" stroke-width="11.8125" stroke="#fff" /></svg>