<svg width="1200" height="675" viewBox="-500 -500 1200 675" xmlns="http://www.w3.org/2000/svg"><path d="M-500-500h1200v675h-1200z" fill="#e9c46a"/><path d="M100 85.6a248.1 248.1 0 1 1 0-496.2 248.1 248.1 0 0 1 0 496.2" fill="#f4a261"/><path d="M328.7-103.4a236.3 236.3 0 0 1-464.4-43.2z"  fill="#264653" /><path d="M328.7-103.4a236.3 236.3 0 1 0-464.4-43.2z"  fill="#e76f51" /><path d="M87.3 33.4a59.6 59.6 0 1 1 0-119.1 59.6 59.6 0 0 1 0 119.1" fill="#2a9d8f"/><path d="M-510,-181.4L710,-68" stroke-width="11.8125" stroke="#2a9d8f" /></svg>