<svg width="1200" height="675" viewBox="-500 -500 1200 675" xmlns="http://www.w3.org/2000/svg"><path d="M-500-500h1200v675h-1200z" fill="#F6C8AC"/><path d="M100 85.6a248.1 248.1 0 1 1 0-496.2 248.1 248.1 0 0 1 0 496.2" fill="#EF8F88"/><path d="M302.7-283.8a236.3 236.3 0 0 0-379-36z"  fill="#EFF7F5" /><path d="M302.7-283.8a236.3 236.3 0 1 1-379-36z"  fill="#2C4D5D" /><path d="M117.8-320.9a28.9 28.9 0 1 1 0-57.7 28.9 28.9 0 0 1 0 57.7" fill="#6E819E"/><path d="M-510,-360.95L710,-245.1875" stroke-width="11.8125" stroke="#6E819E" /></svg>