<svg width="1200" height="675" viewBox="-500 -500 1200 675" xmlns="http://www.w3.org/2000/svg"><path d="M-500-500h1200v675h-1200z" fill="#c2e1ff"/><path d="M100 85.6a248.1 248.1 0 1 1 0-496.2 248.1 248.1 0 0 1 0 496.2" fill="undefined"/><path d="M335.7-147a236.3 236.3 0 0 1-459.7 59.6z"  fill="#fff" /><path d="M335.7-147a236.3 236.3 0 1 0-459.7 59.6z"  fill="#005bbb" /><path d="M118.1 34.5a57.2 57.2 0 1 1 0-114.4 57.2 57.2 0 0 1 0 114.4" fill="#fff500"/><path d="M-510,-37.287499999999994L710,-195.575" stroke-width="11.8125" stroke="#fff500" /></svg>