<svg width="1200" height="675" viewBox="-500 -500 1200 675" xmlns="http://www.w3.org/2000/svg"><path d="M-500-500h1200v675h-1200z" fill="#fff500"/><path d="M100 85.6a248.1 248.1 0 1 1 0-496.2 248.1 248.1 0 0 1 0 496.2" fill="undefined"/><path d="M324.2-236.9a236.3 236.3 0 0 0-438.3-25.5z"  fill="#c2e1ff" /><path d="M324.2-236.9a236.3 236.3 0 1 1-438.3-25.5z"  fill="#005bbb" /><path d="M109.4-279.3a44.7 44.7 0 1 1 0-89.4 44.7 44.7 0 0 1 0 89.4" fill="#fff"/><path d="M-510,-285.35L710,-214.475" stroke-width="11.8125" stroke="#fff" /></svg>