<svg width="1200" height="675" viewBox="-500 -500 1200 675" xmlns="http://www.w3.org/2000/svg"><path d="M-500-500h1200v675h-1200z" fill="#FF7777"/><path d="M100 85.6a248.1 248.1 0 1 1 0-496.2 248.1 248.1 0 0 1 0 496.2" fill="#F3D5C0"/><path d="M334.4-133.1a236.3 236.3 0 0 0-468.2-63.5z"  fill="#CEE5D0" /><path d="M334.4-133.1a236.3 236.3 0 1 1-468.2-63.5z"  fill="#D4B499" /><path d="M116-210.5a70.2 70.2 0 1 1 0-140.4 70.2 70.2 0 0 1 0 140.4" fill="#889EAF"/><path d="M-510,-247.55L710,-82.175" stroke-width="11.8125" stroke="#889EAF" /></svg>