<svg width="1200" height="675" viewBox="-500 -500 1200 675" xmlns="http://www.w3.org/2000/svg"><path d="M-500-500h1200v675h-1200z" fill="#fff500"/><path d="M100 85.6a248.1 248.1 0 1 1 0-496.2 248.1 248.1 0 0 1 0 496.2" fill="undefined"/><path d="M336.2-164.8a236.3 236.3 0 0 1-471.7 21.1z"  fill="#fff" /><path d="M336.2-164.8a236.3 236.3 0 1 0-471.7 21.1z"  fill="#c2e1ff" /><path d="M105.4 28a68.4 68.4 0 1 1 0-136.8 68.4 68.4 0 0 1 0 136.8" fill="#005bbb"/><path d="M-510,-127.0625L710,-181.4" stroke-width="11.8125" stroke="#005bbb" /></svg>