<svg width="1200" height="675" viewBox="-500 -500 1200 675" xmlns="http://www.w3.org/2000/svg"><path d="M-500-500h1200v675h-1200z" fill="#fff"/><path d="M100 85.6a248.1 248.1 0 1 1 0-496.2 248.1 248.1 0 0 1 0 496.2" fill="undefined"/><path d="M330.5-214.3a236.3 236.3 0 0 0-447.5-41.6z"  fill="#005bbb" /><path d="M330.5-214.3a236.3 236.3 0 1 1-447.5-41.6z"  fill="#c2e1ff" /><path d="M114.3-267.4a49 49 0 1 1 0-98 49 49 0 0 1 0 98" fill="#fff500"/><path d="M-510,-292.4375L710,-179.0375" stroke-width="11.8125" stroke="#fff500" /></svg>