<svg width="1200" height="675" viewBox="-500 -500 1200 675" xmlns="http://www.w3.org/2000/svg"><path d="M-500-500h1200v675h-1200z" fill="#fff"/><path d="M100 85.6a248.1 248.1 0 1 1 0-496.2 248.1 248.1 0 0 1 0 496.2" fill="undefined"/><path d="M328.9-221a236.3 236.3 0 0 0-463.1 89.7z"  fill="#c2e1ff" /><path d="M328.9-221a236.3 236.3 0 1 1-463.1 89.7z"  fill="#fff500" /><path d="M76.2-218.6a66.7 66.7 0 1 1 0-133.4 66.7 66.7 0 0 1 0 133.4" fill="#005bbb"/><path d="M-510,-58.55L710,-294.8" stroke-width="11.8125" stroke="#005bbb" /></svg>