<svg width="1200" height="675" viewBox="-500 -500 1200 675" xmlns="http://www.w3.org/2000/svg"><path d="M-500-500h1200v675h-1200z" fill="#fff"/><path d="M100 85.6a248.1 248.1 0 1 1 0-496.2 248.1 248.1 0 0 1 0 496.2" fill="undefined"/><path d="M334.7-135.4a236.3 236.3 0 0 1-452.7 64z"  fill="#005bbb" /><path d="M334.7-135.4a236.3 236.3 0 1 0-452.7 64z"  fill="#c2e1ff" /><path d="M120.7 37a53 53 0 1 1 0-106 53 53 0 0 1 0 106" fill="#fff500"/><path d="M-510,-16.025000000000006L710,-188.4875" stroke-width="11.8125" stroke="#fff500" /></svg>