<svg width="1200" height="675" viewBox="-500 -500 1200 675" xmlns="http://www.w3.org/2000/svg"><path d="M-500-500h1200v675h-1200z" fill="#fff500"/><path d="M100 85.6a248.1 248.1 0 1 1 0-496.2 248.1 248.1 0 0 1 0 496.2" fill="undefined"/><path d="M315.9-66.6a236.3 236.3 0 0 1-396.8 56.1z"  fill="#fff" /><path d="M315.9-66.6a236.3 236.3 0 1 0-396.8 56.1z"  fill="#c2e1ff" /><path d="M125.3 49.8a33.3 33.3 0 1 1 0-66.7 33.3 33.3 0 0 1 0 66.7" fill="#005bbb"/><path d="M-510,50.125L710,-122.3375" stroke-width="11.8125" stroke="#005bbb" /></svg>