<svg width="1200" height="675" viewBox="-500 -500 1200 675" xmlns="http://www.w3.org/2000/svg"><path d="M-500-500h1200v675h-1200z" fill="#c2e1ff"/><path d="M100 85.6a248.1 248.1 0 1 1 0-496.2 248.1 248.1 0 0 1 0 496.2" fill="undefined"/><path d="M331.2-114.1a236.3 236.3 0 0 1-466.3-71.4z"  fill="#005bbb" /><path d="M331.2-114.1a236.3 236.3 0 1 0-466.3-71.4z"  fill="#fff500" /><path d="M81.2 27.6a67 67 0 1 1 0-134 67 67 0 0 1 0 134" fill="#fff"/><path d="M-510,-242.825L710,-56.1875" stroke-width="11.8125" stroke="#fff" /></svg>