<svg width="1200" height="675" viewBox="-500 -500 1200 675" xmlns="http://www.w3.org/2000/svg"><path d="M-500-500h1200v675h-1200z" fill="#d62828"/><path d="M100 85.6a248.1 248.1 0 1 1 0-496.2 248.1 248.1 0 0 1 0 496.2" fill="#003049"/><path d="M301.9-285.2a236.3 236.3 0 0 0-423.9 41.9z"  fill="#fcbf49" /><path d="M301.9-285.2a236.3 236.3 0 1 1-423.9 41.9z"  fill="#eae2b7" /><path d="M83.4-290.7a40.2 40.2 0 1 1 0-80.4 40.2 40.2 0 0 1 0 80.4" fill="#f77f00"/><path d="M-510,-205.025L710,-325.5125" stroke-width="11.8125" stroke="#f77f00" /></svg>