<svg width="1200" height="675" viewBox="-500 -500 1200 675" xmlns="http://www.w3.org/2000/svg"><path d="M-500-500h1200v675h-1200z" fill="#e76f51"/><path d="M100 85.6a248.1 248.1 0 1 1 0-496.2 248.1 248.1 0 0 1 0 496.2" fill="#f4a261"/><path d="M334-195a236.3 236.3 0 0 0-443.2-77.2z"  fill="#264653" /><path d="M334-195a236.3 236.3 0 1 1-443.2-77.2z"  fill="#2a9d8f" /><path d="M126.5-265.2a49.2 49.2 0 1 1 0-98.4 49.2 49.2 0 0 1 0 98.4" fill="#e9c46a"/><path d="M-510,-342.05L710,-129.425" stroke-width="11.8125" stroke="#e9c46a" /></svg>