<svg width="1200" height="675" viewBox="-500 -500 1200 675" xmlns="http://www.w3.org/2000/svg"><path d="M-500-500h1200v675h-1200z" fill="#fff"/><path d="M100 85.6a248.1 248.1 0 1 1 0-496.2 248.1 248.1 0 0 1 0 496.2" fill="undefined"/><path d="M332.6-203.6a236.3 236.3 0 0 0-463.3-9.9z"  fill="#c2e1ff" /><path d="M332.6-203.6a236.3 236.3 0 1 1-463.3-9.9z"  fill="#fff500" /><path d="M103-246.6a57.1 57.1 0 1 1 0-114.1 57.1 57.1 0 0 1 0 114.1" fill="#005bbb"/><path d="M-510,-221.5625L710,-195.575" stroke-width="11.8125" stroke="#005bbb" /></svg>