<svg width="1200" height="675" viewBox="-500 -500 1200 675" xmlns="http://www.w3.org/2000/svg"><path d="M-500-500h1200v675h-1200z" fill="#c2e1ff"/><path d="M100 85.6a248.1 248.1 0 1 1 0-496.2 248.1 248.1 0 0 1 0 496.2" fill="undefined"/><path d="M319.4-250.2a236.3 236.3 0 0 0-452.9 51.8z"  fill="#005bbb" /><path d="M319.4-250.2a236.3 236.3 0 1 1-452.9 51.8z"  fill="#fff500" /><path d="M83.1-258.5a52.2 52.2 0 1 1 0-104.5 52.2 52.2 0 0 1 0 104.5" fill="#fff"/><path d="M-510,-155.4125L710,-294.8" stroke-width="11.8125" stroke="#fff" /></svg>