<svg width="1200" height="675" viewBox="-500 -500 1200 675" xmlns="http://www.w3.org/2000/svg"><path d="M-500-500h1200v675h-1200z" fill="#fff500"/><path d="M100 85.6a248.1 248.1 0 1 1 0-496.2 248.1 248.1 0 0 1 0 496.2" fill="undefined"/><path d="M309.1-52.6a236.3 236.3 0 0 1-444.9-95.6z"  fill="#fff" /><path d="M309.1-52.6a236.3 236.3 0 1 0-444.9-95.6z"  fill="#c2e1ff" /><path d="M68.5 35.9a51.8 51.8 0 1 1 0-103.7 51.8 51.8 0 0 1 0 103.7" fill="#005bbb"/><path d="M-510,-228.65L710,33.58749999999998" stroke-width="11.8125" stroke="#005bbb" /></svg>