<svg width="1200" height="675" viewBox="-500 -500 1200 675" xmlns="http://www.w3.org/2000/svg"><path d="M-500-500h1200v675h-1200z" fill="#fcbf49"/><path d="M100 85.6a248.1 248.1 0 1 1 0-496.2 248.1 248.1 0 0 1 0 496.2" fill="#003049"/><path d="M330.5-110.7a236.3 236.3 0 0 1-428.4 77.2z"  fill="#f77f00" /><path d="M330.5-110.7a236.3 236.3 0 1 0-428.4 77.2z"  fill="#eae2b7" /><path d="M129.1 42.3a43.3 43.3 0 1 1 0-86.7 43.3 43.3 0 0 1 0 86.7" fill="#d62828"/><path d="M-510,40.67499999999998L710,-179.0375" stroke-width="11.8125" stroke="#d62828" /></svg>