<svg width="1200" height="675" viewBox="-500 -500 1200 675" xmlns="http://www.w3.org/2000/svg"><path d="M-500-500h1200v675h-1200z" fill="#fff"/><path d="M100 85.6a248.1 248.1 0 1 1 0-496.2 248.1 248.1 0 0 1 0 496.2" fill="undefined"/><path d="M290.8-301.8a236.3 236.3 0 0 0-411.8 55.9z"  fill="#c2e1ff" /><path d="M290.8-301.8a236.3 236.3 0 1 1-411.8 55.9z"  fill="#fff500" /><path d="M76.6-298.1a37.2 37.2 0 1 1 0-74.3 37.2 37.2 0 0 1 0 74.3" fill="#005bbb"/><path d="M-510,-193.2125L710,-358.5875" stroke-width="11.8125" stroke="#005bbb" /></svg>