<svg width="1200" height="675" viewBox="-500 -500 1200 675" xmlns="http://www.w3.org/2000/svg"><path d="M-500-500h1200v675h-1200z" fill="#c2e1ff"/><path d="M100 85.6a248.1 248.1 0 1 1 0-496.2 248.1 248.1 0 0 1 0 496.2" fill="undefined"/><path d="M297.1-32.2a236.3 236.3 0 0 1-429.1-85.6z"  fill="#fff" /><path d="M297.1-32.2a236.3 236.3 0 1 0-429.1-85.6z"  fill="#005bbb" /><path d="M68.2 41.2a44.1 44.1 0 1 1 0-88.2 44.1 44.1 0 0 1 0 88.2" fill="#fff500"/><path d="M-510,-193.2125L710,50.125" stroke-width="11.8125" stroke="#fff500" /></svg>