<svg width="1200" height="675" viewBox="-500 -500 1200 675" xmlns="http://www.w3.org/2000/svg"><path d="M-500-500h1200v675h-1200z" fill="#2a9d8f"/><path d="M100 85.6a248.1 248.1 0 1 1 0-496.2 248.1 248.1 0 0 1 0 496.2" fill="#264653"/><path d="M322.7-241.3a236.3 236.3 0 0 0-451.1 18.4z"  fill="#e9c46a" /><path d="M322.7-241.3a236.3 236.3 0 1 1-451.1 18.4z"  fill="#f4a261" /><path d="M93.8-265.3a50 50 0 1 1 0-100 50 50 0 0 1 0 100" fill="#e76f51"/><path d="M-510,-207.3875L710,-257" stroke-width="11.8125" stroke="#e76f51" /></svg>