<svg width="1200" height="675" viewBox="-500 -500 1200 675" xmlns="http://www.w3.org/2000/svg"><path d="M-500-500h1200v675h-1200z" fill="#fff"/><path d="M100 85.6a248.1 248.1 0 1 1 0-496.2 248.1 248.1 0 0 1 0 496.2" fill="undefined"/><path d="M329-220.4a236.3 236.3 0 0 0-462.6 93.1z"  fill="#c2e1ff" /><path d="M329-220.4a236.3 236.3 0 1 1-462.6 93.1z"  fill="#fff500" /><path d="M75.5-216.6a67.4 67.4 0 1 1 0-134.8 67.4 67.4 0 0 1 0 134.8" fill="#005bbb"/><path d="M-510,-51.462500000000006L710,-297.1625" stroke-width="11.8125" stroke="#005bbb" /></svg>