<svg width="1200" height="675" viewBox="-500 -500 1200 675" xmlns="http://www.w3.org/2000/svg"><path d="M-500-500h1200v675h-1200z" fill="#fff500"/><path d="M100 85.6a248.1 248.1 0 1 1 0-496.2 248.1 248.1 0 0 1 0 496.2" fill="undefined"/><path d="M306.1-47a236.3 236.3 0 0 1-389.1 33.9z"  fill="#fff" /><path d="M306.1-47a236.3 236.3 0 1 0-389.1 33.9z"  fill="#c2e1ff" /><path d="M116 52.4a31 31 0 1 1 0-62 31 31 0 0 1 0 62" fill="#005bbb"/><path d="M-510,24.137500000000017L710,-82.175" stroke-width="11.8125" stroke="#005bbb" /></svg>