<svg width="1200" height="675" viewBox="-500 -500 1200 675" xmlns="http://www.w3.org/2000/svg"><path d="M-500-500h1200v675h-1200z" fill="#000"/><path d=""  fill="#005bbb" /><path d=""  fill="#fff" /><path d=""  fill="#005bbb" /><path d=""  fill="#fff500" /><path d=""  fill="#fff" /><path d=""  fill="#fff500" /><path d=""  fill="#fff500" /><path d=""  fill="#fff500" /><path d=""  fill="#c2e1ff" /><path d=""  fill="#fff" /><path d=""  fill="#fff" /><path d=""  fill="#fff500" /><path d="M-388.6-30.4c-2.8 4.4-9.4 15.4-15.3 7-6-8.6 10-15.3 11.9-5 1.9 10.3-15.5 9.7-12.9-0.5 3.5-13.6 22.3-13.6 16.3-1.5z"  fill="#fff" /><path d="M-381.1-220.2c0.8 11.8 1.1 91.2-18.2 88.7-9.4-1.3-4-16 4-11 6.8 4.3-0.6 14.8-6.9 9.7-6.8-5.4 7.8-33.2 9.4-40.8 2.8-13.4-1.7-36.6 3.7-48.2 2-4.2 7.4-2.4 8 1.6z"  fill="#fff" /><path d="M-371.1-368.2c-30.3 78.2 25.3 158.9-4.4 238.6-3.1 8.2-12.7 38-23 38.3-9 0.2-8.5-13.9 0.4-13.2 8.9 0.7 7 14.8-1.8 13-13.8-2.7 4.4-24 7-28.9 9.8-18.5 16.2-38.6 18.2-59.6 4.8-50.5-16.3-98.4-14.9-148.6 0.4-13 1.1-33.2 8.3-44.5 3.8-5.9 11.5-1.1 10.2 4.9z"  fill="#fff" /><path d="M-363.5 45.6c0.2 5.7 6.6 25.8 3.3 29.7-3.4 4-8.7-2.9-4-5.1 4.8-2.3 6.7 6.3 1.5 6.3-16.2 0.1-5.1-51-0.8-30.9z"  fill="#005bbb" /><path d="M-355.7 69c0.6 2.3 1.9 9.4-3.4 7.2-3.4-1.4-1.8-6.8 1.9-6.1 3.7 0.7 3.2 6.2-0.5 6.3-9 0.3-1.9-16.1 2-7.4z"  fill="#fff" /><path d="M-352.4-396.1c-11.8 24.8-19.8 50.6-18.5 78.3 4.2 89.4 47.9 140.9-4.3 231.3-4 6.9-14.4 30.6-23.7 30.3-12.7-0.4-3.8-20.6 5.1-11.6 7.6 7.7-7.6 17.3-11.3 7.1-1-2.9 35.8-53 44.2-93.8 12.9-63.4-21.3-121-18.8-183.5 0.8-19 4.9-48.8 17-64.3 4.6-5.8 12.2 0 10.3 6.2z"  fill="#005bbb" /><path d="M-337.1 21.6c0.6 11.9 15 46.7 14.1 52.1-0.7 4-6.9 1.5-4.6-1.9 2.7-3.9 7.3 2.9 2.6 4-8.9 1.9-21.2-47.1-20.2-54.4 0.7-4.9 7.1-4.2 8.1 0.2z"  fill="#fff" /><path d="M-345.8-396.3c-29.4 70.3 3.7 127.8 11.1 198.2 5.9 55.8-13.7 105.5-42.4 152.3-3.9 6.3-13.9 30.6-23.3 27.8-8.5-2.6-3.7-15.8 4.5-12.3 7 3 3.7 13.9-3.8 12.4-14.4-2.7 6.4-26.7 9.3-31.4 19.7-31.2 38.2-64.1 45.1-100.8 12.5-66.9-24.5-125.4-24-190.8 0.2-17.8 2.6-45.8 13.3-60.9 4.1-5.8 11.8-0.6 10.2 5.5z"  fill="#fff" /><path d="M-318.8-157.5c-4.5 62.1-40.4 113.4-57.8 171.7-4.1 13.8-6.9 28-7.3 42.4-0.1 3.6 3.9 22.7-4.5 20.5-6-1.6-1.2-10.9 3.6-6.8 4.8 4-3.5 10.4-6.1 4.7-17-36.3 22.2-113.4 36.7-147.3 12.6-29.3 15.9-58.9 26.2-87.3 2-5.5 9.2-3.1 9.2 2.1z"  fill="#005bbb" /><path d="M-311.3-259.8c33.3 131.9-13 148.8-20.7 258.4-1.2 17.1 0.5 34.2 5.9 50.5 1.9 5.8 11.1 18.9 10.4 24.4-0.6 4.5-7.5 0.6-3.9-2.2 3.5-2.8 5.9 4.7 1.3 4.3-12.4-1-23.4-71.7-22.4-85.7 3.4-47.4 24.1-91.5 30.6-138.4 3.5-25.1 2.8-50.4-1.1-75.4-1-6.6-10.5-32.6-6.1-37.4 2-2.3 5.1-1 6 1.5z"  fill="#005bbb" /><path d=""  fill="#005bbb" /><path d="M-305.6-397.7c-8 65 19.3 125.9 25.1 189.9 5 54.4-10.4 104-17.5 157.2-0.8 6.1 1.1 37.9-6.2 37.8-6.7-0.1-4.2-10.9 1.8-8 7.1 3.4-2.9 12.6-5.7 5.4-12.7-32.9 17.6-117.1 19.7-155.8 3.7-67.5-24.5-129.2-27.5-195.6-2.1-46.6 10.3-34.1 10.3-30.8z"  fill="#fff500" /><path d=""  fill="#fff" /><path d="M-276.6 26.9c2.1 5.9 23.8 47.4 20.2 49-3.2 1.5-5.2-3.7-1.9-4.8 3.3-1.1 4.8 4.2 1.4 5-4.6 1-8.5-12.2-10-14.9-3.8-7.2-7.5-14.5-10.9-21.9-1.3-2.8-3.9-21.7 1.2-12.4z"  fill="#fff" /><path d="M-266.9-287.6c25.5 141.6-13.6 176.3-5.8 268.5 2.2 25.5 10.3 49.4 20.4 72.7 1.2 2.7 13 22.1 5.6 22.4-3.9 0.1-3.7-6 0.1-5.7 3.3 0.2 3.5 5.2 0.2 5.7-5.5 0.8-11.1-19.8-12.8-23.8-36-82.5-13.9-136.2-7-219.9 2.3-28 1-56.1-2.7-83.9-0.9-6.8-9.3-33.2-4.3-38.1 2.3-2.3 5.5-0.7 6.3 2.1z"  fill="#005bbb" /><path d="M-258.4 12.1c1.8 7.5 22.7 63 18.7 64.3-3.9 1.3-5.6-5-1.6-5.9 4-0.8 5 5.6 0.9 6-6.6 0.6-24.7-55.9-24.8-63.4-0.1-4.2 5.4-4.4 6.8-1z"  fill="#c2e1ff" /><path d=""  fill="#fff500" /><path d="M-238.5-398.5c6.1 77.6 21.9 155.7 14.3 233.7-3.3 33.7-11.7 66.5-16.5 100-1 7.1-0.5 49.4-7.4 49.2-8-0.2-2.5-12.9 3.1-7.3 5.6 5.6-7 11.1-7.3 3.2-2-56.3 16.5-110.2 20.4-166 4.8-71.3-10.8-141.2-14.8-212.1-0.3-5.4 7.1-5.7 8.2-0.7z"  fill="#005bbb" /><path d="M-231.2-393.4c6.1 70.8 18.4 142.3 13.6 213.5-3.9 59-25.3 116.2-21.7 175.8 0.6 10.1 12.1 60.5 10.5 64.6-2.2 5.1-9.6-0.2-5.6-4 4.8-4.3 8.7 6.2 2.3 6.1-14.8-0.4-16.7-91.1-16.1-103.1 2.4-48.6 17.9-95.5 21.6-144 5.2-69.9-8.6-138.6-12.8-208.1-0.3-5.4 7.1-5.7 8.2-0.8z"  fill="#005bbb" /><path d="M-222.9 65.2c0.6 2.6 4.1 12.7-2.6 11.6-4.1-0.7-3.8-6.9 0.4-7.1 4.9-0.3 4.9 7.4 0 7.1-11.6-0.6-1.6-22.3 2.2-11.6z"  fill="#005bbb" /><path d="M-213.5-269.3c9.1 116.4-24.3 173-22.5 260.2 0.3 12.8 14.2 80 12.5 83.8-2.2 5.1-9.7-0.4-5.6-4 4.9-4.3 8.7 6.4 2.2 6.1-6.2-0.2-6.6-16.6-7.6-20.9-16.9-72.7-2.3-133.8 8.9-205.6 6.1-39.1-0.5-94.9 3.9-120 0.9-5 7.3-4 8.2 0.4z"  fill="#c2e1ff" /><path d="M-203.6-85.6c-11.4 42.7-20.4 84.4-16.1 128.9 0.5 5.7 7.5 31.1 1.7 33.8-4.7 2.2-7.7-5.4-2.8-7.1 5.7-1.9 6.8 8.1 0.8 7.4-7.8-0.9-8.4-38.8-8.9-45.5-2.9-35.4-2.2-89.3 15.3-121.5 3.2-5.8 10.8-1.8 10 4z"  fill="#fff" /><path d="M-195.4-198.8c-2.6 68.7-30.6 133.8-30.8 202.4 0 10.9 9.3 68 7.4 71.7-3.1 6.2-11-2.8-4.6-5.1 5.5-2 6.8 7.7 1 7.2-6.8-0.6-7.2-23.7-8-28.9-9.1-56.2 0.6-107 13.2-161.7 6.5-27.9 4.7-60.3 12.8-87.1 1.6-5.4 8.6-3.4 9 1.5z"  fill="#005bbb" /><path d="M-187-302.2c3.4 64.9 5.3 129.9-9.8 193.6-8 33.9-19.3 67.1-22.7 101.9-1.3 13.2 5.8 77.5 3.5 81.9-2.9 5.3-10.5-1.2-5.7-4.9 5.7-4.3 8.9 7.7 1.9 6.9-14.6-1.7-8.9-89.2-7.4-101.1 5.2-40.3 19.7-78.6 26.9-118.5 6.4-35.6 7.7-71.9 7-108.1-0.2-10.8-7.6-46-1.2-54.1 2.6-3.2 6.9-1.1 7.5 2.4z"  fill="#c2e1ff" /><path d="M-176.9 54c-2.2 5.1-4.8 26.8-13.4 24.3-6.9-2-3.1-12.6 3.5-9.9 5.6 2.3 3.1 11.1-2.9 10.1-9.6-1.7-0.7-27 3.5-30.8 4.8-4.3 10.6 0.9 9.3 6.3z"  fill="#c2e1ff" /><path d="M-168.2-89.2c-13.2 42-35.2 80-38.8 124.7-0.6 7.4 3.5 37.2-1.8 41.3-5.2 4-9.9-5.9-3.4-7.4 6.5-1.5 6.5 9.5 0 8.2-6.7-1.4-4.1-17.4-4.2-22.1-1.2-44.2 11.5-82.8 28-123.2 3-7.3 5.3-21.9 11-27.4 4.5-4.3 10.3 0.6 9.2 5.9z"  fill="#fff" /><path d=""  fill="#005bbb" /><path d="M-150.7-102.6c-10.2 44.4-39.2 81.5-48.8 126-1.6 7.6-3.1 56.6-10.2 54-4.7-1.8-2.8-9 2.2-8.4 5.8 0.8 4 9.9-1.7 8.5-12.7-3.2 1.5-66.3 4.1-75.7 10.5-37.3 31.8-70.5 44-107.2 2.2-6.7 11.3-4 10.4 2.8z"  fill="#fff" /><path d="M-150.6-398.6c-2.8 86.8 7 176.1-2.5 262.4-1.6 14.1-19 106.1-37.4 103.6-10.9-1.5-1.5-18.2 5.4-9.6 5.9 7.3-8.1 14.3-10.4 5.2-2.4-9.5 12-30.4 15.7-39.4 9.6-23.4 15.9-47.6 18.3-72.9 7.7-80.1-0.8-162.2 1.6-242.7 0.2-6 8.2-18.1 9.3-6.6z"  fill="#c2e1ff" /><path d="M-133.1 59.5c-5.4 4.6-18.9 25.9-27.1 19.2-7.1-5.8 2.7-16.6 9.2-10 5.5 5.6-2 14.7-8.6 10.4-10.4-6.8 12.5-30.6 19.4-32.4 8.1-2.2 11.8 7.3 7.1 12.9z"  fill="#fff" /><path d="M-130.6-398c-9.8 83.9 4.8 256.9-8.2 306.6-6.7 25.6-20.6 47.7-33.5 70.5-3.4 5.9-10.6 29.1-18.9 28-10.9-1.5-1.5-18.2 5.4-9.6 5.9 7.3-8.1 14.3-10.4 5.2-0.2-0.7 49.6-100.1 52.8-123.9 9.8-73.8-6.8-178 2-266.9 0.4-3.7-0.5-11.1 2.7-14 3.5-3.2 8 0 8.1 4.1z"  fill="#c2e1ff" /><path d="M-115.8-341.5c-11.2 89.2 21.8 213.2 11.7 264.1-9 45.3-48.7 69.9-69.9 108.4-3.9 7.1-14 48.9-20.9 47.4-7.8-1.7-2.2-13.7 4.1-8.9 7.4 5.6-6.5 14-7.9 4.8-9-55.1 74.7-107.3 85.7-160.4 10.7-51.7-14.4-138.2-15.1-196.4-0.2-18-3.3-44.1 3-61.2 2-5.6 9.3-3.1 9.3 2.2z"  fill="#fff500" /><path d="M-128.2-397.6c-6.5 50.4-8.2 100.9-6.5 151.6 2.1 61.4 15.4 128.8-12.5 186.3-2.3 4.6-5.3 14.4-10.5 16.6-8 3.4-12.6-9.6-4.3-12.1 9.8-2.9 11 14 0.9 12.5-14-2.1 5.7-28.1 8-33.1 9.9-21.8 13.7-45.1 14.1-68.9 1.4-85-11.9-169.3 1.2-254.1 1-6.4 9.7-5 9.6 1.2z"  fill="#fff500" /><path d="M-98.4 39.7c-13.6 9.5-45.6 41.4-53.7 40.7-11-0.9-5.6-18.4 4.1-13 9.6 5.5-2.7 19.1-9.1 10.1-8.8-12.3 42.6-51.3 53.2-52.5 8.9-1.1 11.3 9.6 5.5 14.7z"  fill="#fff500" /><path d=""  fill="#fff500" /><path d="M-82.2-193c24.2 78.7 118.5 164.9 61.1 249.3-4.6 6.8-17.2 27-26.9 24.6-8.6-2.2-6.8-15.3 2.1-15 8.9 0.3 9.9 13.5 1.2 15.1-5.2 1-9.9-3.7-8.9-8.9 3.7-18.9 52-33.7 40.8-99.7-8.7-51.5-46.9-94.4-67.2-141.6-2.4-5.7-9.5-17.1-8.5-23.3 0.6-3.5 4.9-3.3 6.3-0.5z"  fill="#005bbb" /><path d="M-77.1-395.8c-21.6 46.9-26.6 100-21.6 150.9 8.1 82.3 85.8 188.3 44.1 252.4-4 6.2-12.9 20.8-21.1 21.5-14.1 1.2-6.9-22.4 4.1-13.5 11.1 8.9-10.4 21-12.3 7-0.2-1.3 35.4-41.8 34.5-73.5-1.7-63.3-57.9-132.1-59.7-229.8-0.7-37.1 4.1-74.4 17-109.4 4.6-12.6 20.1-22.9 15-5.6z"  fill="#c2e1ff" /><path d="M-63.4-277.2c2.5 141 115.4 136.9 173 226.4 7.5 11.7 44 127.2 26.7 128.2-4.6 0.3-5.8-6.6-1.3-7.8 4.5-1.3 7 5.2 3 7.4-8.8 4.7-7.9-21.4-8.3-25.1-3.5-32.9-6.5-66.9-22.2-96.7-33.6-63.5-112.2-83.8-151.2-143.8-15-23.1-24.1-49.7-27.2-77.1-0.4-3.5-2.2-9.7-0.6-13.1 2-4.3 7.4-2.4 8.1 1.6z"  fill="#fff500" /><path d="M-56.1-395.1c-49.5 77.6-36.9 185.2 14.7 258.2 28.2 39.9 68 69.6 96.4 109.1 2.3 3.3 18.7 23.6 12.5 26.3-4 1.7-5.3-5.4-1-5.2 3.7 0.1 3.2 5.9-0.4 5.4-5.1-0.7-20-32-24.4-37.6-62.6-79.7-128.4-115.8-136.5-228.7-2.7-37 1.5-75.1 15.5-109.6 13.9-34.1 29-31.2 23.2-17.9z"  fill="#c2e1ff" /><path d="M-44.4-377.7c-43.5 66.5-32.8 161.7 17.8 221.1 38.7 45.5 100.9 66.4 132.8 117.9 3.4 5.5 19.3 29.9 14.4 36-3.3 4.1-8.8-2.7-4.1-5.1 4-2 6.8 4.5 2.6 6.1-1.1 0.4-28.3-52.1-33.8-58.5-63.2-73.1-144-76.8-162.6-193.9-5.6-35.3-2.9-72.8 10.1-106.2 12.6-32.5 28.8-30.9 22.8-17.4z"  fill="#fff" /><path d="M-37.4-57.6c12.3 59.7-28.3 92.4-72.7 122.5-6.2 4.2-20.1 20.2-28.1 15.1-11.9-7.5 7.9-21.8 11.3-8.2 2.9 11.6-17 12.2-14.7 0.4 2.4-12.7 62-46.2 74.9-59.6 21-22.1 19.1-42.2 21.7-70 0.4-4.6 6.4-4.2 7.6-0.2z"  fill="#fff" /><path d="M-28.2-275.3c3.2 88.2 84 121 133.1 181.1 32 39.2 37.7 86 41 134.7 0.4 6 6.4 34.3 0.1 36.8-4.3 1.7-7.6-4.5-3.7-7 4.5-3 8.9 4.3 4.1 6.8-9.1 4.8-7.9-24.2-8.2-27.9-2.9-37.1-3.2-75.4-18.3-110-27.4-62.9-95.7-89.8-132.3-145.5-11.3-17.2-27.6-47.8-24.1-69.4 0.8-5 7.3-4.1 8.3 0.4z"  fill="#fff500" /><path d="M-21-226.2c24 58.2 83.1 84.9 122.4 130.4 38.3 44.3 40.7 98.2 45.3 153.8 0.3 3.8 4.8 19.3-2.4 19.6-4.6 0.2-5.8-6.6-1.3-7.9 4.5-1.2 7 5.2 2.9 7.4-9.1 4.8-8.1-26.8-8.4-30.6-3-38.4-3.9-78-21.6-113.1-25.6-50.8-78.3-76.5-115.1-117.6-10.7-11.9-19.9-25.2-26.9-39.6-1.6-3.4 3.2-5.4 5.1-2.4z"  fill="#fff500" /><path d=""  fill="#fff" /><path d="M-1.8-274.4c2.8 75.5 70.7 114.7 111.4 169.7 31.9 43.1 36.4 91.9 39.1 143.7 0.3 6.2 6.1 35.7-0.2 38.1-7 2.7-6.9-10.3 0.1-7.5 5.9 2.4-0.1 11.1-4.5 6.5-6.3-6.7-9.1-113.7-16.7-136.3-21.6-63.9-82.9-97.3-116.7-153.1-9.4-15.5-23.6-42.4-20.7-61.3 0.8-5 7.3-4.1 8.2 0.2z"  fill="#fff500" /><path d="M8.3-318.5c-11 32.3-7.4 67.8 7.7 98.2 22.5 45.2 65.6 74.8 94.8 115.1 30.5 42.1 35.6 89.5 38 139.9 0.3 6.6 6.3 39.7 0 42.2-6 2.3-7.6-8.2-1.2-7.8 7.5 0.5 1.9 12.2-3.2 6.8-6.1-6.5-8-105.8-13.1-125.6-20.4-78.4-101-114.8-129.2-188.2-8.6-22.3-16.8-62.4-4-84.8 3.3-5.9 11-1.7 10.2 4.2z"  fill="#fff" /><path d="M12.8-74c36.4 37.2 65.4 75.2 72.1 128.3 0.7 5.2 4 17.1 1 21.5-3.8 5.6-11.5-2.6-5.7-6.1 5-2.9 9.2 5.1 3.9 7.6-8.6 3.9-6.6-15-6.8-18.2-1.7-21.2-6-42.1-14.7-61.5-11.6-26-30.4-47.3-50-67.6-1.2-1.2-3-6.7 0.2-4z"  fill="#fff500" /><path d="M22.9-31.2c14.6 26.7 21.4 56.3 18.9 86.7-0.5 5.6 0.6 22.7-7.6 23.2-8.3 0.5-6.1-13.2 1.6-10.1 7.7 3 0 14.5-5.7 8.5-5.1-5.4 3.1-30.5 3.3-38.2 0.7-23.6-23.5-89.7-10.5-70.1z"  fill="#fff" /><path d="M35-341.9c-20.2 32.3-23.5 72.2-10.6 107.8 18.2 50.2 62.5 83.8 91.2 127.5 28.4 43.3 32.4 90.8 34.5 141.1 0.3 6.2 6 37-0.5 39.5-7 2.7-6.8-10.4 0.1-7.5 5.9 2.5-0.2 11.2-4.5 6.4-5.8-6.3-6.1-94.1-8.9-110.8-14.8-88-102.9-130.9-124.3-214.3-7.7-29.9-4.8-62.6 9-90.3 4.3-8.8 19-11.5 14 0.6z"  fill="#fff" /><path d=""  fill="#fff500" /><path d=""  fill="#fff" /><path d="M61.2-372c-32.7 33.1-50.5 76.2-39.7 122.7 23.6 101.7 120.4 117.6 127.6 256.2 0.3 5.1 4.6 25.6-2 27.7-6.4 2.1-7.5-9.1-0.8-8.3 7.9 1 1.2 13.1-3.8 6.9-4.2-5.1-1.9-70.9-15.4-106.9-29.1-77.6-119.1-123.5-117.6-213.7 0.5-30.5 14.9-77.8 42.4-95.7 7.5-4.9 14 4.7 9.3 11.1z"  fill="#fff500" /><path d="M69.2-276c-2.7 68.7 46.4 120 69.3 180.8 19.2 50.9 13.2 104 16.5 157.2 0.2 3.5 3.6 15.3-3 15.6-5.5 0.2-5.4-8.4 0.1-8.1 4.7 0.3 5 7.3 0.4 8-6.9 1-9.4-125.9-12.1-140.4-10.9-59.8-52.5-105.5-71.2-162.1-4.7-14.2-12.4-36.9-8.8-52 1.3-5.3 8.2-3.8 8.8 1z"  fill="#c2e1ff" /><path d="M74.5-141c57.8 56.9 69.5 103.2 73.9 182 0.3 5.9 6.1 33.6-0.2 36.1-5.9 2.3-7.6-8.1-1.3-7.7 7.5 0.5 1.9 12.2-3.1 6.7-6-6.4-8.2-103-13.2-122.2-9.3-35.9-30.6-64.8-56.2-90.9-1.1-1.1-3.1-6.5 0.1-4z"  fill="#005bbb" /><path d="M83.6-146.1c53.1 60.6 63 107.3 66.5 185.8 0.3 6.1 5.9 35-0.3 37.5-7 2.7-6.9-10.3 0-7.5 5.9 2.4-0.1 11.1-4.4 6.5-6.1-6.6-7.1-104.8-11.4-124-7.7-34.6-25.9-64-48.5-90.8-0.1-0.2-6.9-12.1-1.9-7.5z"  fill="#fff" /><path d="M3.5-392.8c-52.9 45.6-65.8 123-33.3 184.7 15.9 30.1 41.4 52.4 68.4 72.5 2.4 1.8 21.8 16.4 20.1 16.8-1.7 0.4 1.5 0-0.2 0-5.5 0-19-14-23.6-17.4-54.9-40.6-95.7-92.3-90.8-164.2 2.6-37.4 18-72.6 44.7-99.1 8-8 24.3-4.5 14.7 6.7z"  fill="#005bbb" /><path d=""  fill="#fff" /><path d=""  fill="#fff500" /><path d="M119.9-66.2c10.6 18.5 36.3 125.9 26.9 141.6-3.3 5.4-10.9-1.8-5.7-5.4 5.3-3.6 9.2 6.3 2.9 7.2-8.1 1.3-10.1-68.2-11.2-77.2-1.8-15.2-21.4-78.8-12.9-66.2z"  fill="#fff500" /><path d="M129.8-194.9c24.1 91.4 33.2 117.7 29.4 214.7-0.5 12.1 6.1 46.3 0.1 55.8-3.4 5.5-11.1-2-5.6-5.6 5.4-3.5 9.2 6.5 2.8 7.4-10.5 1.5-3.6-124.6-4.1-138.5-1-28.4-30.1-129.6-29.3-133.6 0.8-3.7 5.4-3.2 6.7-0.2z"  fill="#c2e1ff" /><path d=""  fill="#c2e1ff" /><path d="M149.4-354.6c-9.2 33.2-16.1 66.3-14.4 101 2.2 43.3 16.2 84.3 24.5 126.6 9.3 47.6 5.1 94.2 2.1 142.2-0.5 8 2 62.1-4 62.3-6.5 0.2-4.5-10.3 1.4-7.8 5.9 2.5-0.3 11.3-4.6 6.5-9.3-10.3 2.2-117.5 2.6-138.1 1.4-75.2-33.4-144.9-31-219.9 0.7-22.6 2.2-56.6 13.4-76.8 3.2-5.8 10.8-1.8 10 4z"  fill="#c2e1ff" /><path d="M156.5-194.7c17.8 88.5 13 129.1 6.8 216.9-0.5 7.4 2.5 55.3-4.1 55.5-6.5 0.2-4.5-10.4 1.5-7.8 6 2.5-0.3 11.3-4.6 6.5-10.5-11.6 4.8-121.8 6.2-143.5 1.9-29.5 0-58.6-5.2-87.7-1.5-8.3-11.4-33.9-7.3-41 1.8-3.1 5.8-1.9 6.7 1.1z"  fill="#fff500" /><path d=""  fill="#fff" /><path d="M174.2-209.7c18.3 97 5.3 131.2-6.1 224.6-1 8.1-0.5 62.5-5.9 62.6-6.5 0.2-4.4-10.4 1.5-7.8 7 3-2.4 12.4-5.4 5.3-15-35.1 11.2-122.5 16.4-161.2 3.7-27.9 3.4-55.7-0.8-83.5-1.1-7.2-11-36.7-5.9-41.9 2.2-2.3 5.4-0.8 6.2 1.9z"  fill="#fff" /><path d="M184.5 29c-1.9 8.3-0.5 44-5.8 48-5.3 4-9.9-6-3.4-7.4 6.5-1.4 6.5 9.6-0.1 8.1-8.6-1.9-4.4-47.3 0.2-52.9 3.6-4.5 9.5-0.7 9.1 4.2z"  fill="#c2e1ff" /><path d="M194.1-399.4c16.9 93.6 106.9 185.1 107.1 259.3 0.1 54.9-42.1 87.2-74.1 126-2.9 3.5-16 22.4-19.8 8.1-5.4-20.2 27.9 2.9 7.1 4.9-18.4 1.8 5-25.8 7.5-28.7 30.9-37.3 72.6-68.7 70.3-122.2-2.9-67.8-60.4-124.4-85.9-184.8-7.3-17.2-20.2-43-19.4-62.1 0.2-4.5 6-4.4 7.2-0.5z"  fill="#fff" /><path d="M200.3-357.9c19.5 71.4 91.3 162 81.5 233.1-7.8 56.7-60.6 89.4-82.3 139.7-3 7-9.6 47-16.1 46.2-5.4-0.7-5.2-8.8 0.2-9.3 6.3-0.5 6.6 9.5 0.3 9.3-9.1-0.2-3.1-20.7-2.3-24.9 12.4-68.4 86.9-107.1 92-176.1 5-67.2-55.8-141.9-76.5-205.6-1-3.1-1.4-23.1 3.2-12.4z"  fill="#c2e1ff" /><path d="M210.6 66.3c-0.3 2.8-0.9 16.7-8 10.4-3.9-3.4 0.6-9.7 5.1-7.2 5.3 2.9 0.2 11-4.7 7.5-10.8-7.6 6.7-23.2 7.6-10.7z"  fill="#fff500" /><path d="M217-369.2c44.4 88.2 229.4 186.8 115.5 313.5-9.1 10.1-62.2 58.7-72.9 59.5-14.1 1.1-6.8-22.3 4.1-13.4 12.9 10.5-15.4 20.8-12.2 4.4 2.6-13.3 32.9-29 43.2-36.9 36.9-28.7 65.4-64.4 62.1-113.7-5.9-86.9-90.5-128.6-134.4-194.5-3.9-5.9-13.7-30.5-5.4-18.9z"  fill="#c2e1ff" /><path d="M229.1 23.3c-7.6 11.5-13 24.4-15.3 37.9-0.6 3.6 0.5 19.5-7.6 16-4.8-2-2.5-9.5 2.6-8.5 6 1.1 3.7 10.4-2.1 8.7-12.2-3.7 4.9-57.6 13.4-62.9 6.1-3.8 11.5 3.1 9 8.8z"  fill="#fff" /><path d="M237.9 10.3c-11.5 13.3-20.2 29-24 46.3-0.9 4.2 0.3 24.8-8.4 21.1-4.8-2-2.6-9.4 2.5-8.5 5.9 1.1 3.7 10.3-2.1 8.7-17.3-5.1 13.1-70.2 22.1-77.4 6.7-5.3 13.7 3.3 9.9 9.8z"  fill="#005bbb" /><path d="M246.7 20.2c-9.7 11.4-17.1 24.7-20.7 39.2-0.9 3.7-0.4 22.1-8.7 18.4-5.6-2.5-1.1-11.2 4.2-8.1 4.5 2.7 1.3 9.9-3.8 8.2-14.3-4.7 10.1-63.4 20.5-68.2 6.9-3.3 11.8 4.8 8.5 10.5z"  fill="#fff500" /><path d="M254.5-139.8c0.3 57.3-45.5 97.4-63.8 148.6-5.8 16.1-9.2 32.9-10.1 49.9-0.2 3.6 2.9 21.4-5.6 18.5-6.3-2.2-0.6-11.6 4.2-7 4.1 3.9-2.4 10.1-6.1 5.8-3.3-4-1.5-14.2-1.5-18.9 0.7-54.3 28.9-94.6 54.7-139.8 4.2-7.4 26.2-86.2 28.2-57.1z"  fill="#c2e1ff" /><path d="M264.3-77.3c-22.9 37.1-57.6 65-70.4 108.1-2.5 8.3-2 41.9-7.5 45.9-6.4 4.7-9.8-8.7-2-7.6 6.7 0.9 2.9 11.4-2.8 7.8-4.7-2.9-2.3-15-2.2-19.2 1.9-50.3 30.1-86.8 60.4-124.3 4.5-5.6 9.6-16.7 15.9-20.2 6.4-3.5 11.5 3.8 8.6 9.5z"  fill="#fff500" /><path d="M296.4-399.5c42 37 84.2 70.8 111.1 121.1 35.6 66.5 57.4 152.2 34.1 225.9-1.8 5.7-4.6 24.5-13.1 23.5-6.8-0.7-6.8-10.9 0-11.6 6.8-0.7 9 9.2 2.5 11.3-19 6.4 7.3-51.1 9-61.1 8.5-48.6-3.9-99.1-20-144.9-22.5-63.7-62.6-109.9-113.7-152.7-1.2-1-14.2-14.4-9.9-11.5z"  fill="#fff500" /><path d="M277-385.7c29.5 23.2 62.2 41.8 88.7 68.8 58.6 59.9 93.1 165.2 69.2 247.2-3.7 12.8-27.2 71.8-37.9 76.2-13.1 5.3-9.1-20 1.7-10.9 9.2 7.7-9.2 17.6-10.6 5.7-0.8-7.2 28.9-54.6 33.5-66.9 16.9-44.6 13.1-91.2 0.7-136.4-21.3-77.5-66.5-126-130.9-171.1-2-1.4-17.5-14.5-14.4-12.6z"  fill="#c2e1ff" /><path d="M290.4 14.7c-12.4 10.4-23.9 22.3-31.2 36.9-2.9 5.7-4.5 23.6-9.7 26.3-7.9 4.1-9.5-11.3-0.9-8.8 7.3 2.1 1.4 13.2-4.4 8.2-16.2-13.9 25-68.4 37.5-75 8.2-4.4 14.1 6.2 8.7 12.4z"  fill="#fff500" /><path d=""  fill="#fff" /><path d="M307.9-124c-8.6 61.3-69.8 89.4-97.1 140.2-7.2 13.4-12.4 57.8-16.5 60.6-5.6 3.9-10-6.6-3.2-7.8 7.9-1.4 5.1 12.3-1.6 7.8-4.9-3.2-2-16.2-1.7-20.8 4.7-60.7 51.1-91.9 86.3-135.4 11.7-14.5 15.6-37.4 24.9-48.8 3.6-4.4 9.4-0.6 8.9 4.2z"  fill="#fff" /><path d="M334.4-399.5c73 94.8 149.3 215.8 119.4 341.9-2.1 9-8 47-17.6 49.8-10 2.9-8.2-15.2 1-10.4 9.3 4.8-4.4 16.7-7.8 6.8-2.2-6.4 16.3-56.5 18.4-68.1 6.9-37.2 2-74.1-7.3-110.4-18.9-74.4-52.1-135.8-99.7-195.5-1-1.2-12-19.8-6.4-14.1z"  fill="#c2e1ff" /><path d="M325.6 8.9c-14.6 12-29.5 24.5-39.8 40.7-3.7 5.9-7.4 25.9-13 28.5-7.2 3.3-10-9.6-2.1-9.6 9.3 0.1 3.2 15-3.5 8.6-16.6-16 36.6-78.3 51.7-81.7 8.3-1.8 11.7 8.1 6.7 13.5z"  fill="#c2e1ff" /><path d=""  fill="#fff500" /><path d="M343.2-8.1c-20.4 17.5-44.1 33-59.1 55.8-3.1 4.8-12.2 37.9-19.9 28.7-3.7-4.4 2.3-10.7 6.9-7.2 5.4 4.1-1.6 12.3-6.5 7.6-17-16.3 53.5-89.5 70.2-97.7 8.5-4.2 14.1 6.7 8.4 12.8z"  fill="#c2e1ff" /><path d="M347.8-316.9c66.2 55.1 104.6 160.7 77 244.6-11.8 35.8-35 65.1-57.8 94.4-5.7 7.4-30 56.1-34.6 56.3-9.6 0.5-4.3-15.3 3-9.1 8.5 7.2-10.6 14-8.4 2.9 14.1-72.7 91.1-108.2 97.1-194.2 4-56.5-16.1-120.4-51-164.8-8.1-10.3-36.1-37.5-25.3-30.1z"  fill="#c2e1ff" /><path d="M368-399.7c11.3 31.3 29.4 59.8 43.7 89.8 38.9 81.6 70.1 178.1 49.7 268.3-1.4 6.4-3.5 32.4-11.8 32.8-7.2 0.3-7-11 0.1-10.5 6.1 0.4 6.5 9.5 0.5 10.5-12.9 2 2.3-40.7 3.6-46.9 8.3-38.6 7.6-76-1.2-114.4-17.9-78.4-53.2-144.7-85.9-217.2-1.3-2.8-3.8-21.8 1.3-12.4z"  fill="#fff500" /><path d="M369.9 62.3c-1.2 3.9-2 20.2-10.2 15.5-4.9-2.8-1.5-10.6 3.9-8.9 5.4 1.7 3.8 10.1-1.9 9.5-7.9-0.7-4.1-17.6-1-21 3.9-4.5 9.9-0.3 9.2 4.9z"  fill="#005bbb" /><path d="M377.6-155.3c11.4 99.7-69.4 118.6-122.2 179.4-8.3 9.6-15.1 20.5-19 32.6-1.7 5.2-1 18.1-5.9 21-7.4 4.3-9.6-10.4-1.3-8.5 7.1 1.7 1.9 12.7-3.9 8.1-13.6-10.6 13.5-54.8 20.6-63.7 26.5-33.4 67.4-51 95-83.4 10.8-12.7 19.3-27.4 24-43.5 3.8-12.9-0.1-32.1 4.9-43.4 1.8-4.1 7.1-2.5 7.8 1.4z"  fill="#fff500" /><path d="M387.8-76.1c-24.2 51.3-77 71.1-110.8 113.2-6.3 7.8-13.6 37.5-20.1 40.8-8.1 4-9.4-11.6-0.8-9 7.4 2.2 1.1 13.4-4.6 8.3-10.5-9.4 11.6-44.4 17.5-52.3 21.8-28.6 54.8-45.9 80.2-70.9 11.4-11.3 18.1-25.5 28.5-37.1 5.1-5.7 12.5 0.8 10.1 7z"  fill="#005bbb" /><path d=""  fill="#fff" /><path d=""  fill="#005bbb" /><path d="M414.3-43c-15.9 31.3-40.1 56.7-58.5 86.3-3.6 5.7-13.9 39.7-21.8 34.5-5.8-3.9 0.8-12.7 6.1-8.3 5.4 4.5-2.1 12.5-7 7.5-9.7-10 15-46.4 20.5-54.5 7.4-10.9 45.3-69.4 51.7-73.7 5.8-3.8 11.2 2.6 9 8.2z"  fill="#c2e1ff" /><path d=""  fill="#fff500" /><path d="M429.3-275.1c21.4 56.3 44.1 119.8 42.4 180.8-1.2 43.3-19.3 84.4-18.9 127.6 0.1 7.6 9.9 37.1 7 41.5-2.5 3.8-7.8-1.6-4-4 3.9-2.4 6.4 4.7 1.9 5.3-28.7 3.6 5.7-173.3 5.2-190.6-1.6-51.5-19.7-103.8-37-152-1-2.9-0.9-17 3.4-8.6z"  fill="#fff500" /><path d="M438.5-299.9c17.9 62.3 45.9 126 52.1 190.7 4.3 44.5-9.8 88.8-4.3 133.1 0.8 6.9 15 51.6 15 51.6-2.7 0.4-3.7-3.4-1.3-4.4 2.9-1.2 4.5 3.5 1.5 4.3-11.8 3.3-23.7-55-24.4-62.8-3.9-43.1 9-85.8 4.7-129-5.9-59.5-31-117.9-47.8-175.1-1.1-3.7 0.6-17.5 4.5-8.4z"  fill="#c2e1ff" /><path d="M448.9-370.6c-11.7 82.5 38.5 162.7 55.9 240.7 11.1 49.8-2.4 99.7 5.7 149.3 1.2 7.1 17.6 54.6 17.3 54.7-3.2 0.5-3.7-4.6-0.5-4.7 3.2-0.1 3.2 4.9 0 4.7-13.7-0.9-24.8-55.8-26.2-66.3-5.1-38.9 3.6-78.2-0.6-117.2-7.6-70.8-44.2-136.2-57-206.4-2.9-15.9-9.4-41-3.9-56.8 1.9-5.6 9.2-3.2 9.3 2z"  fill="#fff" /><path d="M456.2-189.9c26.3 94.7 5.4 118.9-4.2 207.6-1.6 14.3-1.3 28.8 2.1 42.9 0.6 2.4 7.6 15.7 1 15.7-4.6 0-3-7.5 1.2-5.5 3.6 1.6 0.7 7.2-2.7 5.1-27.2-16.1 4.6-134.6 7.4-162.5 4.4-44.3-10.8-68.5-11.5-102.3-0.1-4.2 5.3-4.4 6.7-1z"  fill="#005bbb" /><path d="M466.4 6.3c-1.5 16.6-0.7 33.5 4.2 49.5 0.9 3 10.8 19.5 4.5 20.1-12.3 1.2 11.7-6.6 1.1-0.4-10 5.9-21.5-62.2-18.9-70.9 1.7-5.5 8.8-3.4 9.1 1.7z"  fill="#c2e1ff" /><path d="M474.8-112.2c3.2 48.9-17 94.9-15.3 143.3 0.3 8 12 38.9 9.1 43.7-2.2 3.7-7.4-1.1-3.8-3.6 4.1-2.9 6.1 5.6 1.1 4.9-21.8-3.3-9.6-103.3-4.8-129.7 2.5-13.8 1-50.6 5.7-60.2 2-4.2 7.4-2.3 8 1.6z"  fill="#fff" /><path d="M482.6-173c25.3 80.6 5.5 114.5 12.5 187.9 1.5 15.8 5.8 31.1 12.7 45.4 1.1 2.2 10.9 14.5 5.1 15.6-3.1 0.5-3.7-4.3-0.6-4.5 3.1-0.2 3.2 4.7 0.1 4.5-15.9-0.7-25.7-61-26.5-72.5-2-29.8 3.7-59.4 4-89.1 0.2-18.3-14.8-81.4-13.7-86.9 0.7-3.6 5.1-3.2 6.4-0.4z"  fill="#fff" /><path d="M490.9 51.8c1.5 4.2 11.5 18.8 9.8 22.6-1.5 3.3-6.4-0.3-3.6-2.7 2.8-2.4 5.7 3 2.2 4-12.1 3.4-14.2-34-8.4-23.9z"  fill="#fff" /><path d="M502.1-351.2c-17.6 84 46.2 142.9 62.6 219.3 11.8 54.9-9.6 110.3 2.2 165.2 1.5 7 15.5 37 12.4 41.7-2.5 3.9-7.9-1.6-4-4 3.9-2.4 6.5 4.7 1.9 5.3-11.1 1.4-21.5-61.9-22.3-70.6-3.6-39.2 6.8-78 4.6-117.2-3.6-64.9-50.9-114.9-64.4-177.2-3.9-17.9-10.1-47.6-2.7-65.3 2.4-5.7 9.9-2.7 9.7 2.8z"  fill="#c2e1ff" /><path d="M510.2-9.2c0.1 23.7 4.7 46.6 15.1 68 1.4 2.8 9.7 13.2 6.8 16.2-2.6 2.7-6-2.4-2.6-3.8 3-1.2 4.6 3.6 1.5 4.5-15.4 4.2-29.2-74.5-29.4-84.5-0.1-5.7 7.8-5.7 8.6-0.4z"  fill="#c2e1ff" /><path d="M520.1-369.2c-35.5 88.8 43.6 152 59 232.7 11.3 59.1-15.5 117.7-1.7 176.9 1.2 5.3 10.5 24.5 7.5 28.8-2.8 3.9-8.2-2-4-4.4 4.2-2.4 6.6 5.3 1.8 5.7-11.5 1-18.2-61.8-18.6-70.5-1.6-38 9.4-75 9.1-112.9-0.5-70.3-56-120.7-67.9-188.1-3.6-20.2-7.2-54.6 4.6-73.1 3.8-5.9 11.5-1.2 10.2 4.9z"  fill="#fff500" /><path d="M526.2-172.1c30.7 70.3 10.8 117.5 20.4 186.8 1.5 10.9 19.4 55.5 18.5 59.6-0.8 4.2-7.3 1.3-4.8-2.1 3-4 7.6 3.3 2.7 4.2-13.3 2.4-25.8-71.3-26.5-81-2-28.4 2.2-56.7 1.7-85.1-0.5-29.4-13.2-53.1-17.5-80.9-0.5-3.5 4-4.3 5.5-1.5z"  fill="#005bbb" /><path d=""  fill="#005bbb" /><path d="M543.9-164.1c25.4 60.1 5.7 117.7 13.4 179.6 1.3 10.6 17.8 54.7 16.8 58.8-1 4.3-7.7 1.1-5-2.4 3.2-4.1 7.8 3.7 2.7 4.5-14 2.1-24.2-74.5-24.6-84.5-1-27.1 3.4-53.9 3.8-81 0.4-25.1-18.9-97.1-7.1-75z"  fill="#fff500" /><path d="M552.5-179.1c31.6 64.7 8.4 123.6 13.9 190.8 0.9 11.5 16.8 58.2 15.7 62.6-1.2 4.5-8 1-5.1-2.6 3.5-4.2 8 4.1 2.6 4.8-13.1 1.6-22.1-70.8-22.4-80.5-1.1-31.2 5.6-61.9 6.4-92.9 0.5-18.5-1.4-37-6.6-54.9-1.5-5.1-11.9-23.2-9.4-27.6 1.2-2 3.8-1.5 4.9 0.3z"  fill="#005bbb" /><path d="M563.5-33.7c-2.7 30.5-1.1 60.1 8.9 89.2 1.3 3.9 9.5 16.9 5.6 20.1-3.6 2.8-6.9-4-2.5-5.1 3.8-0.9 4.9 5.2 1 5.7-6.1 0.8-12.5-25.5-13.9-30.2-7.2-22.4-15.8-58.2-8.2-81.5 1.8-5.5 8.9-3.3 9.1 1.8z"  fill="#005bbb" /><path d=""  fill="#fff500" /><path d="M580.8 71.9c2.8 11.4-14.9 3.4-6.4-2 9.7-6.1 6.7 15.3-1 6.6-4.3-4.9 2.7-11.1 6.9-5.8z"  fill="#fff" /><path d=""  fill="#c2e1ff" /><path d="M589.5-394.9c-24.8 34.2-28 74.7-12.1 113.4 4.8 11.5 21.7 31.1 22.2 42.9 3.1 67.5 4.1 134.1 3.9 201.4 0 7 0.6 61.8-5.9 62-6.5 0.2-4.5-10.4 1.5-7.8 5.9 2.5-0.3 11.3-4.6 6.4-9.7-10.7-0.7-72.8-0.8-83.4 0-17.6-0.3-35.1 0-52.6 0.5-40.8 2.1-81.6 2.2-122.4 0-14.1-39.6-62.4-37.5-107.5 0.7-15.7 6.7-53.3 22.3-61.9 6.5-3.6 11.6 3.8 8.8 9.5z"  fill="#fff" /><path d="M603.7-31.9c-3.2 16.5-4.9 33.3-4 50.1 0.3 5.2 5.2 21.1 1.5 24.7-4.1 4.1-9.3-4-3.8-6 5.4-2 6.8 7.5 0.9 7.1-12.4-1-8.2-69.7-4.3-78.8 2.5-5.7 9.9-2.6 9.7 2.9z"  fill="#c2e1ff" /><path d=""  fill="#fff500" /><path d=""  fill="#fff" /><path d=""  fill="#fff500" /><path d=""  fill="#c2e1ff" /><path d=""  fill="#005bbb" /><path d=""  fill="#005bbb" /><path d=""  fill="#fff" /><path d=""  fill="#005bbb" /><path d=""  fill="#c2e1ff" /><path d=""  fill="#fff500" /></svg>