<svg width="1200" height="675" viewBox="-500 -500 1200 675" xmlns="http://www.w3.org/2000/svg"><path d="M-500-500h1200v675h-1200z" fill="#000"/><path d=""  fill="#fff" /><path d=""  fill="#c2e1ff" /><path d=""  fill="#c2e1ff" /><path d=""  fill="#005bbb" /><path d=""  fill="#fff500" /><path d=""  fill="#fff500" /><path d=""  fill="#fff500" /><path d=""  fill="#c2e1ff" /><path d=""  fill="#c2e1ff" /><path d=""  fill="#fff500" /><path d=""  fill="#005bbb" /><path d=""  fill="#c2e1ff" /><path d="M-389.4-349.5c-1.3 2.7-13.1 21.8-15.1 7-2.1-15.2 22.2 0.3 7.5 4.8-12 3.7-5.5-14.4-2.6-18 4.5-5.8 12.1 0 10.2 6.2z"  fill="#fff500" /><path d="M-380.6-375c-3.4 6-10.5 29-19 27.6-8-1.3-5.3-13.9 2.6-11.7 9.2 2.6 1.8 16.5-5.5 10.3-15-12.8 32.4-52.7 21.9-26.2z"  fill="#005bbb" /><path d="M-372.3-212c-3.1 14.7-12.9 85.3-23.3 91.2-8.2 4.7-12.8-10.3-3.4-11.1 9.4-0.8 7.3 14.7-1.5 11.5-10-3.6 4.7-28.9 6.5-35.5 5-18.3 4.1-42.4 12-59.3 2.7-5.7 10.1-2.4 9.7 3.2z"  fill="#005bbb" /><path d="M-365.8-395.2c-5.5 9.4-22 53.5-31.8 55.4-9.2 1.7-8.7-13.8 0.4-11.6 9.1 2.3 2.1 16.2-5.2 10.3-7.6-6.2 21.4-62.9 30.6-63.6 5.5-0.4 7.9 5.1 6 9.5z"  fill="#c2e1ff" /><path d=""  fill="#005bbb" /><path d="M-345.9 21.3c-12 11.3-23.1 23.7-31.4 38-2.6 4.5-8.2 26-16.7 18.4-5.7-5.1 2.8-13.7 7.9-8.1 5.2 5.7-4.2 13.3-8.8 7.2-8.9-12.3 29.7-64.2 41.7-67.9 7.8-2.4 11.7 6.8 7.3 12.4z"  fill="#fff500" /><path d="M-337.3 12.6c-15.3 13.5-30 28-40.4 45.8-2.6 4.4-8.8 27.1-17.3 19.5-5.7-5.1 2.7-13.7 7.9-8 5.2 5.7-4.2 13.3-8.8 7.1-10.7-14.6 38-73.8 51.7-77.3 8.1-2.1 11.7 7.4 6.9 12.9z"  fill="#005bbb" /><path d="M-328.3-211.5c-14.5 48.7-23.1 94-58.8 132.6-3.7 4-8.5 11.1-14.8 7.6-10.2-5.7 2.7-20.1 9.5-10.8 6.8 9.4-10.9 17.1-13.1 5.8-2-9.9 24.3-30.7 30.1-39 24.4-35 21.2-72.6 37.1-100.4 3.3-5.8 10.9-1.6 10 4.2z"  fill="#fff" /><path d=""  fill="#fff" /><path d=""  fill="#005bbb" /><path d="M-301.9-267.8c-26.9 64.1-30.8 138.5-80.7 190.5-3.9 4.1-8.9 11.9-15 12.5-10.1 1.1-10.9-14.9-0.7-14.8 11.8 0 7.6 19.2-3.2 14.2-13.3-6.2 34-49.2 44.1-69.8 19.8-40.3 19.6-103.3 45.4-138.3 4.3-5.8 11.9-0.4 10.1 5.7z"  fill="#c2e1ff" /><path d="M-295-397.9c-8.2 66.6-47.7 122.4-64.4 186.3-3.7 14.2-20.7 115.1-41.1 109.4-9.9-2.8-1.8-17.8 6-11.1 7.8 6.7-5.8 16.9-10.1 7.6-3.2-7.1 19.6-44.6 24-61.1 7.4-27.6 11.8-55.8 21.5-82.9 16.7-46.8 42.5-89.9 52.5-139 3.9-19.1 11.7-11.9 11.6-9.2z"  fill="#005bbb" /><path d="M-285.1-175.5c-7.1 73.7-25 105.1-86.3 146.8-6.5 4.4-23.4 21.9-31.7 15.5-9.9-7.6 5.9-20.9 11.7-9.9 6.8 12.9-18.5 15.6-14.4 1.5 3-10.7 65.5-47.9 78.3-62 34-37.3 22.2-77.4 33.8-95 2.9-4.4 8.6-1.5 8.6 3.1z"  fill="#fff" /><path d="M-276.1-123c-7.5 50.6-41.4 80.4-81.4 108.1-7.7 5.4-38.8 35.6-46.6 26.1-5.5-6.8 3.7-16 10.5-10.6 8 6.3-2.7 18.4-9.9 11.1-12-11.9 72.8-65 83.1-74.7 27.6-26.2 24.5-50.4 35.4-64.1 3.5-4.4 9.2-0.7 8.9 4.1z"  fill="#c2e1ff" /><path d="M-267.3-228.1c-22.7 114.9 15.7 138.5-96.1 216.2-7.5 5.2-30.7 29.2-39.3 23.8-11.8-7.5 7.9-21.7 11.3-8.2 2.9 11.6-16.9 12.1-14.7 0.4 2.8-14.8 86.4-64.4 102.3-87.7 27.2-39.8 18.8-90 24.9-135.3 3-22.8 11.6-9.8 11.6-9.2z"  fill="#fff500" /><path d="M-258.3-336.6c-10 40.3-28.6 77.8-39.2 117.9-16.6 63.1-19.7 116.4-73.8 160.3-6.3 5.1-18.7 18.9-27.1 19-10.6 0-9.8-16.7 0.8-15.6 12.4 1.3 5.8 20.9-4.9 14.5-14.6-8.7 15.9-25.6 21-29.6 21.6-16.9 41-35.9 52-61.5 13.6-31.5 44.2-190.9 62.1-210 4-4.3 9.8 0 9.1 5z"  fill="#fff" /><path d="M-249.9-362.3c-5.5 46.7-27.6 89.4-40 134.4-20.6 74.7-13.2 125.3-81.2 176.9-6.3 4.8-21.4 20.8-29.9 17.9-13.8-4.8 2.8-24.1 9.5-11.1 6.7 13-18.6 15.5-14.5 1.5 1.7-6.1 68.9-52.9 82.7-85.3 14.2-33.4 14.7-71.1 23.9-105.9 11.6-43.9 30.3-85.2 39.8-129.8 1.3-6.3 9.9-4.7 9.7 1.4z"  fill="#fff" /><path d="M-241.1-246.3c-20 121.1 36 144.1-31.9 280.6-3.9 7.9-13.2 41.7-20.8 44.2-8.2 2.6-9.5-11.6-1-10.6 7.3 0.9 5.3 12.4-1.9 10.7-10.5-2.5 2.2-25.8 4.3-30.9 14.8-36 36-68.6 43.9-107.3 10.5-51.2-5.4-101.2-5.1-152.4 0.3-43 12.8-48.2 12.5-34.3z"  fill="#005bbb" /><path d="M-232.9-215.1c-0.2 36.1 26.2 194.6 37.9 229 3.1 9 28.7 57.1 28.3 60-0.6 3.9-6.7 1.6-4.6-1.8 2.6-3.9 7.2 2.8 2.7 3.9-6.3 1.5-24.8-42.4-27.5-48.6-15.8-36-43-193.2-45.2-235.4-0.3-6.1 6.8-18 8.4-7.1z"  fill="#fff500" /><path d="M-204.2-399c14.8 87.9-33.9 140.4-1.7 258.1 9.1 33.3 17.2 68.3 32.2 99.5 1.9 4 13.8 19.4 12.5 23-1.3 3.5-6.1-0.8-2.8-2.4 2.8-1.4 4.1 3.7 1 3.7-10.4 0.3-25.2-43.3-28.1-51.4-23.7-66.3-43.6-136.8-34-207.5 3.8-28 10.7-55.5 13.3-83.7 1.2-13-1.5-26.7 0-39.3 0.6-4.7 6.6-4.1 7.6 0z"  fill="#fff" /><path d=""  fill="#fff" /><path d="M-207.2-197.6c9.5 64.7 32.7 146.1 81.8 191.7 7.8 7.2 94.3 76.8 87.9 81.1-2.3 1.5-4.5-2.2-2-3.5 2.1-1.1 4 1.8 2.2 3.3-1.9 1.6-26.2-27.2-29.9-30.6-37.7-34.5-81.3-58.6-104.7-106.2-7.4-15.1-46.6-130.2-42.3-137.2 2-3.1 6-1.7 7 1.4z"  fill="#c2e1ff" /><path d=""  fill="#005bbb" /><path d="M-188.8-271.7c-5.9 73.6 22.8 187.9 70.6 245 8 9.6 99.3 98.4 93 102-3.1 1.8-4.9-3.9-1.3-4.2 3.6-0.3 2.8 5.6-0.6 4.4-7-2.6-18.6-25.4-24.4-31.7-67.7-75.4-94.1-79.3-126-184.6-10.3-33.9-19.4-68.4-20.8-103.9-0.3-7.5-3.1-23.1 0.9-29.7 2.6-4.4 8.3-1.7 8.6 2.7z"  fill="#005bbb" /><path d="M-158.1-398.1c-0.8 101.9-36 114.8-5.5 237.3 7.4 29.8 14.9 60.2 27.3 88.4 1.3 3 14.6 23.8 9.1 24.7-2.6 0.4-3.7-3.4-1.2-4.4 2.9-1.2 4.5 3.5 1.5 4.3-7.2 2-21.5-38.6-23.6-44.4-23.9-65.2-41.8-138.5-32.4-208.1 3.8-28 11.4-55.4 14.6-83.5 0.5-4.5-0.9-14.1 2.5-17.6 3.1-3.2 7.4-0.5 7.7 3.3z"  fill="#c2e1ff" /><path d=""  fill="#c2e1ff" /><path d="M-164.1-127c18.7 61.1 46.9 101.9 93 145.6 9.9 9.4 49.1 40.4 47.9 55-0.3 3.6-6.1 1.8-4.3-1.3 1.8-3.1 6.3 0.9 3.3 3-2.1 1.5-27.8-33.3-31.7-37.5-29.6-31.7-65.2-57.7-87.2-96-10.4-18.2-26-46.4-27.3-67.6-0.2-4 4.9-4.4 6.3-1.2z"  fill="#c2e1ff" /><path d="M-154.9-164.8c13.9 64.8 31.4 118.2 77.4 167.4 6.1 6.5 64.8 69.5 57.8 73.2-3.4 1.8-5-4.3-1.3-4.5 3.2-0.2 3.2 5 0 4.8-5-0.3-19.5-27.5-23.4-32.4-31.7-39.1-71.7-70.8-92.2-118.1-10.6-24.5-26.1-62.7-25.4-89.7 0.1-4.4 5.8-4.3 7.1-0.7z"  fill="#fff" /><path d="M-145.9-398c-4.1 42.6-19.9 83.1-23.1 125.9-4.5 58.9 11.4 121.7 29.3 177.4 8.7 27 21.5 51.6 39.6 73.6 3.3 4 15.4 13.5 15.9 18.4 0.1 0.7-0.6 1.6-1.3 1.7-7 1.1-28.4-31.4-32.4-37.1-42.1-58.9-66-175.3-59.4-246.9 3.3-35.2 14.4-68.8 20.3-103.5 3.2-19.1 11.2-11.4 11.1-9.5z"  fill="#c2e1ff" /><path d="M-135.5-325.2c-27.4 73.6-10.9 219.8 30.8 286.3 16.7 26.6 83.4 88.4 88.1 111.7 0.9 4.4-6.8 3-4.4-0.8 2.4-3.8 7 2.5 2.6 3.7-3.8 1-24.3-33.3-28-37.9-20.4-25.2-44.2-47.8-62.3-74.9-38.6-57.4-49.6-144.4-50.2-212.4-0.2-23.3 0.2-60.3 13.3-80.6 3.8-5.8 11.4-1.1 10.1 4.9z"  fill="#fff" /><path d="M-127.5-245.7c-6.7 70.3-2.2 160.5 38.5 220.3 16.3 24.1 69.8 73 74.6 98.5 0.8 4.5-7 3-4.5-0.9 2.5-3.9 7.2 2.7 2.7 3.8-3.9 1-24.1-34.2-27.8-39-34.1-43.9-71.5-81.8-83.2-138.2-9.4-45.6-13.7-98.6-9.6-145.1 0.5-6.2 9-5.2 9.3 0.6z"  fill="#fff" /><path d=""  fill="#fff" /><path d="M-113.9 56.2c3.9 3.2 18.7 12.2 19.4 17.1 0.1 0.4-0.1 0.8-0.3 1.1-3 3.5-22.5-20.3-19.1-18.2z"  fill="#c2e1ff" /><path d="M-100.3-316.7c-41.8 62.8-33.3 212.3 2.9 276.6 15.6 27.7 78.8 89.6 83.1 112.9 0.9 4.5-7 3-4.5-0.9 2.5-3.9 7.2 2.7 2.6 3.8-4.1 1-23-32.7-26.5-37.4-82.7-107.8-99-132.6-92-276.5 1.2-25.2 5.1-67.2 24.3-86.4 5.6-5.6 13 1.5 10.1 7.9z"  fill="#c2e1ff" /><path d="M-96.4 60.2c1.9 1.5 17.1 12 14.3 14.5-2 1.8 2.1-1.1-0.2 0.2-3.9 2.2-17.6-17-14.1-14.7z"  fill="#fff500" /><path d="M-106-395.5c-54.2 107.5-53.7 177.1-25.2 293.1 6.1 24.8 15.5 48.2 29.8 69.4 2.1 3.1 13.6 14.8 12.6 18.2-0.8 2.7-5 0.4-3.1-1.7 2.2-2.5 4.8 2.7 1.5 3-5 0.4-16.4-19.9-19.1-23.9-41.1-61.1-60.7-189.7-46.6-261.6 6.1-31.1 19-78.6 40-103.2 4.9-5.7 12.4 0.5 10.1 6.7z"  fill="#005bbb" /><path d="M-74.1-243.7c-28.6 61.7-41.4 149.1-8.6 211.1 13.5 25.4 67.9 84.2 71.5 105.5 0.8 4.7-7.3 2.9-4.6-1 2.7-3.9 7.3 2.9 2.6 3.9-4.4 1-17.4-26.1-20.3-30.4-37.7-55.1-79.2-100.1-76.7-171.3 1.4-40.2 8.6-85.5 25.2-122.4 3.2-7.2 13-2.5 10.9 4.6z"  fill="#fff" /><path d="M-65.7-379.5c-65.4 58.3-73.5 128.1-65.7 211.2 2.9 30.5 5.4 61.7 14.7 91 10.3 32.5 30.1 59.3 51.9 85 1.5 1.7 19.4 20.8 13.9 20.8-2.1 0-2.4-3.1-0.4-3.5 2.3-0.5 2.9 3.2 0.5 3.4-4.8 0.5-19-21.3-22.3-25.2-17.6-20.8-34.4-42.5-45.3-67.6-24.4-56.5-33.8-162.2-20.5-222.3 8.8-39.7 32.1-77.3 63-103.8 7.5-6.5 16.3 3.8 10.2 11z"  fill="#fff500" /><path d="M-57-323.4c-64 53.8-73 197-41.7 270.5 17.6 41.3 51 72.5 75.7 109.2 1.6 2.4 15.3 18.9 8 19.8-12.1 1.5 11.4-6.8 1.1-0.4-4.2 2.6-17.6-24.5-20.3-28.1-17-24.4-37.3-46.3-53.9-71.1-41.5-61.8-39.6-143.3-28.4-214.3 5.5-35 19.2-67.5 44.9-92.5 8.1-7.9 24.3-4.2 14.6 6.9z"  fill="#fff" /><path d="M-84.2-394.5c-70.7 90.4-66.1 170.7-46.1 278.4 4.9 26.3 12.6 51.9 26.4 75 1.2 1.9 15 19.1 8.4 18.7-8.8-0.6 8.2-6 1.4-0.5-2.8 2.3-6.6-5.4-6.8-5.7-45.9-63-65.1-202-45-276.9 8.2-30.4 26.6-78 52-98.4 6.5-5.3 13.5 3.1 9.7 9.4z"  fill="#fff" /><path d=""  fill="#005bbb" /><path d=""  fill="#fff500" /><path d=""  fill="#fff500" /><path d="M-12.9-269.6c-47.3 56.2-94.1 141-71 216.6 12.7 41.6 43.4 74 65.9 110.3 1.4 2.2 13.9 18.3 6.7 19-12.6 1.2 12-6.7 1-0.3-4.2 2.5-6.8-7.4-7.8-9.2-37.3-68.7-94.3-118.3-76.4-203.8 9.5-45.5 31.3-89 59-126.2 22.4-30.1 28.4-15.4 22.6-6.4z"  fill="#005bbb" /><path d="M-4.3-107.6c-33.7 29.8-41.2 69-25.9 110.7 7.4 20.2 18.1 39.1 27.3 58.5 0.9 1.9 9.4 14.8 2.5 14.9-4.6 0.1-3.1-7.3 1.1-5.5 3.6 1.6 0.8 7.1-2.6 5.2-12.2-6.9-51.4-107.4-43.1-143.4 3.4-14.9 16.8-48.1 33.4-53 7.9-2.3 11.8 7 7.3 12.6z"  fill="#fff" /><path d="M4.2-331.1c-21.8 18.6-45.2 35.7-62.3 59-37 50.4-53.2 137.1-40.1 198 10.1 47.1 43.7 82.2 70.4 120.4 1.9 2.7 10.3 11.4 8.8 15.1-1.5 3.3-6.4-0.3-3.7-2.7 3.2-2.8 5.7 4.2 1.5 4-6.1-0.3-26-36.3-30.6-42.3-64.4-85.4-73-146.9-40.6-249.7 15.2-48.1 47-83.6 86.7-113.6 8.1-6.1 16.4 4.6 9.9 11.8z"  fill="#c2e1ff" /><path d="M12.9-136c-37.9 30.3-67.7 65-54.6 116.6 6.9 27.4 22.1 51.8 34.7 76.8 1.2 2.3 12.3 18.9 4.8 19.1-3.8 0.1-3.7-5.9 0.2-5.6 3.8 0.3 3.1 6.3-0.8 5.6-8.4-1.5-62.3-111.2-46.3-159.4 7.9-23.6 30.6-55.3 53.8-66.1 8.6-4 14 7 8.2 13z"  fill="#fff500" /><path d="M21.5-117.6c-34.5 25-61.6 55.2-53.7 100.7 2.8 16.1 37.2 86.1 35.9 91.1-1.4 5.2-8.9-0.3-4.3-3.2 4.6-2.9 6.3 6.4 0.9 5.3-5.6-1.1-12.5-25.2-14.9-30.4-21.5-45-43-95.4-10.4-140.9 8.9-12.5 24.3-30.3 38.7-36.3 8.9-3.7 14 7.8 7.8 13.7z"  fill="#fff500" /><path d="M31.1-40.1c-17.6 21.8-20.8 48.5-16.1 75.4 0.9 5.4 13 42.1 5.3 41.2-4.6-0.5-3.4-7.7 1.2-6.7 3.8 0.9 3.2 6.7-0.8 6.7-5.4 0-5.8-12-6.8-15.3-8.2-30.3-21.6-85.1 7.2-110.3 6.2-5.4 13.4 2.5 10 9z"  fill="#fff" /><path d="M39.6-52c-22.3 21.3-31.1 48.4-27.1 78.8 0.9 6.5 13.5 50.3 7 49.7-4.6-0.5-3.4-7.6 1.1-6.7 5.2 1.2 1.5 9.2-2.7 6-4.4-3.3-5.4-16.7-6.8-21.8-11.1-40.6-13.8-83.5 17.9-116 6.7-6.9 16 2.6 10.6 10z"  fill="#fff500" /><path d="M48.5-271.4c-36.4 76.8-123.3 139.3-116.8 211.8 4.8 53.6 59.2 101.8 63.1 132.6 0.8 5.9-9 1.6-4.2-1.9 4.1-2.9 6.1 5.6 1.2 4.9-5.5-0.8-16.6-28.9-20-34.3-27.8-45.8-60.6-93-45-149.2 14-50.5 57.7-83 86-125 9.4-13.9 15.1-32.7 25.6-45.4 4.7-5.7 12.3 0.3 10.1 6.5z"  fill="#005bbb" /><path d="M57.3-340.7c-46.3 80.7-141 154.1-141.4 254.6-0.2 44.3 24.9 80.6 49 115.6 1.5 2.2 20.3 27.6 12.9 26.5-11.1-1.7 11.7-3.2 1 0-4.2 1.2-9.1-11.5-10.7-14-38.6-59.2-76.2-111.7-52.3-185.4 18.5-57.3 58.5-105.3 94.3-152.5 8.4-11.1 28.9-47.8 38.4-53.6 6-3.7 11.3 3.2 8.8 8.8z"  fill="#005bbb" /><path d=""  fill="#c2e1ff" /><path d=""  fill="#c2e1ff" /><path d="M83.4-60.1c-22.9 25.4-47 47.8-49.8 84-1 12.3 8.7 41.9 3.9 51.5-3.1 6.1-11-2.8-4.6-5.2 6.5-2.3 6 9.6-0.2 6.9-5.6-2.5-5.5-21.5-6.2-26.7-6.7-47.8 9.4-81.1 41.6-115.3 7-7.4 24.1-7.5 15.3 4.8z"  fill="#fff" /><path d="M92.2-166.7c-20.9 57.7-99.6 70.6-110.8 131.8-5.8 31.8 8.5 62.9 20.6 91.5 0.7 1.6 11.4 22.6 2.5 19.5-3.9-1.4-1.4-7.3 2.3-5.6 3.7 1.8 0.6 7.5-2.9 5.3-13.3-8.3-41.6-101.8-25-139.1 16.3-36.8 54.5-50.9 81.5-77.8 8.9-8.9 13.7-25.2 22.8-32.4 5-4.1 10.6 1.5 9 6.8z"  fill="#005bbb" /><path d="M100.7-181.8c-15.5 79.2-100.9 85.3-114.4 149.2-6.4 30.3 6.1 60.4 17.2 88 0.8 2 11.8 24.1 2.7 20.8-3.9-1.4-1.3-7.5 2.4-5.6 3.7 1.8 0.5 7.6-3 5.3-14.7-9.4-35.4-99.9-24.4-129.7 15.5-42.2 59.8-55.7 87.4-87.3 12-13.8 14.4-28.9 22.4-44.3 2.9-5.7 10.4-2 9.7 3.6z"  fill="#fff" /><path d=""  fill="#fff" /><path d=""  fill="#fff" /><path d="M126-174.3c9.5 116-32.5 99.9-65.6 181.1-6.4 15.8-8.6 32.7-8.2 49.7 0.1 3.5 4.6 23.2-4 20.6-5.2-1.5-2.4-9.6 2.6-7.5 4.3 1.8 2.4 8.5-2.2 7.6-15.6-2.8-0.4-71.3 3.9-81.7 12.4-30.4 37.6-52.8 52-81.9 16.3-32.9 8.2-76.9 13.6-89.3 1.8-4.2 7.1-2.5 7.9 1.4z"  fill="#005bbb" /><path d=""  fill="#005bbb" /><path d="M143.3-364.5c6 45.1 7.5 94.5 28.1 135.9 48.5 97.3 150.7 73.3 96.7 221.4-3.4 9.3-12.8 50.3-22.5 52.7-10.3 2.5-7.8-15.8 1.4-10.5 9.2 5.3-5.2 16.8-8.3 6.6-4.9-16 44-99.1 33.8-143.8-13.5-59-86.1-80.8-111.2-135-10.9-23.6-26-128.3-24.5-129.7 2.5-2.3 5.7-0.5 6.5 2.4z"  fill="#c2e1ff" /><path d=""  fill="#005bbb" /><path d="M185.9-399.6c19.7 45.6 36.3 96.5 63.9 138 23.2 34.9 59.4 61.2 74.4 101.3 6.6 17.5 7.9 101.3-13.9 104.7-7 1.1-9.7-9.1-3.1-11.7 7.7-3 11.7 9.4 3.8 11.6-16.3 4.3 4.8-36.4 6.1-41.1 7.5-25.4 6.6-52-4.6-76.2-16.6-35.7-49.4-60.5-70.8-93-25.2-38.1-39.6-83.6-58.2-125-1.2-2.6-2.2-16.3 2.4-8.6z"  fill="#fff" /><path d="M168.8-377c13.3 43.5 22.5 92.4 48.2 130.7 21.4 31.8 55.7 51.3 77.9 82.1 33.1 46.1 16 97.1-6.5 143.4-4.4 9.1-17.9 50.1-27.7 51.8-10.9 1.9-7-17 2.3-10.9 9.2 6.1-6.6 17.1-9.1 6.3-5.1-21.9 61.9-102.9 49.4-159.2-12.6-56.6-76.3-82.7-102.8-132-6.1-11.4-40.3-107-37.8-112.5 1.3-2.9 4.9-2.1 6.1 0.3z"  fill="#005bbb" /><path d="M179.3 55.7c-0.7 4.9 0 24.7-8.8 22.8-6.6-1.4-3.8-11.7 2.6-9.5 6.4 2.1 2.5 12-3.6 9.2-15.6-7.1 10.3-39.5 9.8-22.5z"  fill="#fff" /><path d="M238.7-399.7c19.4 30.9 104.4 200 110.6 229.2 5.1 24.2 3 49-5.2 72.3-2.2 6.1-5.5 20.7-11.7 23.7-7.5 3.7-12.7-8.5-4.8-11.3 7.9-2.8 11.7 9.8 3.6 11.7-16.4 4 5.2-36.3 6.6-41 8.1-26.8 6.6-54.6-2.8-80.9-7.4-20.5-83.8-174.3-96.6-195.5-0.7-1.2-4.7-14.6 0.3-8.2z"  fill="#005bbb" /><path d="M193.5-121.2c39.5 49.9 43.9 96.2 30.3 157.2-2 9.2-3.7 35.7-11.2 41.6-6.7 5.2-12.8-7.5-4.6-9.4 7.1-1.7 9.1 9.6 1.9 10.5-11.7 1.4-2-21.4-1-25.4 7.3-29.3 15.3-59.9 14.8-90.3-0.3-18.6-4.8-36.5-13.6-52.9-5.6-10.4-24.9-39.6-16.6-31.3z"  fill="#c2e1ff" /><path d="M202-123.1c42.6 48.2 43.4 96.3 28.6 156.5-2.4 9.7-5.1 38.7-13 44.6-6.9 5.2-12.8-7.8-4.4-9.7 7.2-1.5 9 10 1.7 10.7-11.9 1.2-1.9-20.6-0.8-24.8 8.3-30.4 17.8-62.1 18.2-93.9 0.2-18.5-3.7-36.6-12.6-52.9-5.6-10.3-26.4-38.5-17.7-30.5z"  fill="#fff" /><path d="M211-112.1c40 48.5 30.6 102.9 15.9 159.4-1.7 6.4-4.2 31.9-12.8 31.9-8.6 0-5.5-14 2.3-10.4 9.1 4.3-3.7 16.3-7.3 6.9-3.2-8.1 21.2-87.4 22.5-105.5 1.4-18.3-0.5-36.8-7.8-53.7-4.1-9.6-20.1-36-12.8-28.6z"  fill="#fff" /><path d="M275-399.5c18.5 32.7 81.3 197.2 85.1 231.4 2.8 24.8-1.5 49.5-11.1 72.4-3.4 8.2-11 31-19.7 34.4-8.2 3.2-12.5-10-4-12.3 8.5-2.3 11.3 11.3 2.7 12.6-17.9 2.8 9-37.1 11.1-41.9 12.6-28 16.2-58 9.5-87.9-6.5-29.3-60.5-172.1-74.8-200.3-0.8-1.5-3.7-15.5 1.2-8.4z"  fill="#c2e1ff" /><path d="M232.3 57.6c-1.3 4.3-4.9 27.6-14.2 20.1-5.8-4.8 2.2-13.5 7.4-8.2 4.5 4.6-1.6 12-6.9 8.5-15.4-10 17-38.7 13.7-20.4z"  fill="#fff500" /><path d=""  fill="#005bbb" /><path d=""  fill="#005bbb" /><path d="M255.6-367.2c14.5 27.1 25 56 38.5 83.5 24.2 49 62.5 95.2 56.8 153.3-5.7 57.5-48.8 104-75 153.3-3.2 6.1-11.7 34-21.3 28.9-6.2-3.3-2.3-13 4.5-11.1 6.7 1.9 5 12.2-2 11.8-13.6-0.7 2.9-25.6 5.1-29.9 27.2-54.5 79.8-107.9 80.5-171.7 0.5-42.7-64.4-158.9-86.9-205.9-0.4-0.9-6-20.5-0.2-12.2z"  fill="#fff500" /><path d="M264.5-316.2c25.6 56.5 80 110.2 82.1 174.5 2.3 69.7-56.2 129.7-84.1 189.9-2.9 6.3-10.3 35.3-20.2 30.4-6.1-3-2.6-12.6 4-11 6.7 1.6 5.3 11.8-1.5 11.6-13.4-0.3 2.2-25.5 4-29.8 25.4-57.5 82-121.3 88.4-183.3 6.7-64.8-46.8-115.6-73-170-0.9-1.8-5.1-21 0.3-12.3z"  fill="#005bbb" /><path d="M311.6-399.2c12 35.6 16 73.1 25.1 109.5 19 76.1 50 138.9 6.5 213.7-4.1 7-14.8 31.5-23.9 31.4-12.4-0.1-4.2-20 4.7-11.4 8.9 8.6-10.7 17.5-11.3 5.1-0.2-5.3 48-70.7 46.6-120.3-0.4-14.3-43.7-189.4-50.8-215.6-0.5-1.7-1.8-23.2 3.1-12.4z"  fill="#fff500" /><path d=""  fill="#005bbb" /><path d="M292.9-82.7c-0.5 43.5-24.7 85.4-40.3 125-2.2 5.7-11.9 44.5-21.9 35.4-4.9-4.5 0.9-12.5 6.8-9.2 5.8 3.3 1.8 12.4-4.6 10.5-11.1-3.5 12.6-50 15.7-57.9 9.5-23.6 20.3-46.8 28-71.1 3.2-9.9 2.7-27.1 7.8-35.4 2.7-4.3 8.2-1.6 8.5 2.7z"  fill="#005bbb" /><path d="M298.8-241.2c79.8 114.1 31.3 156.6-24.3 263.8-4.5 8.7-21.6 58.1-30.9 56.8-9.3-1.2-4-15.8 3.9-10.8 9.3 5.9-6.2 17-8.8 6.4-4.7-18.6 82.4-151.9 91.9-186.4 7.4-27.1 4.7-54.8-6.7-80.3-7.6-16.9-37.4-63.3-25.1-49.5z"  fill="#c2e1ff" /><path d="M311.3 22.2c-7.7 9.4-30.3 56.7-40.4 57.7-9.9 1-7.9-15.3 1.5-12.1 9.4 3.2 0.8 17.3-6.4 10.4-8.1-7.8 27.8-62.3 37-66.5 6.9-3.1 11.7 4.9 8.3 10.5z"  fill="#fff500" /><path d="M317-174.1c37.1 68.3-13.6 133.4-43.6 193-6.4 12.7-16.4 52.7-28 59.5-8 4.7-12.8-10-3.5-10.8 9.3-0.9 7.4 14.4-1.4 11.3-14.6-5.1 62.7-140.7 69.6-157.2 8-19.2 13.2-39.8 11.1-60.7-1.2-12.1-6.9-22-9.2-33.5-0.6-3.2 3.5-4.1 5-1.6z"  fill="#fff500" /><path d="M329.8-399c5.9 32.8 7.5 66.3 13.2 99.1 8.2 47.8 30.6 94.4 28.3 143.6-2.3 51.7-33.6 92.1-62 132.7-5 7.2-25.9 49-35.3 42.9-6.2-4-1.2-13.8 5.7-11.2 6.9 2.6 4.2 13.2-3.1 12.2-14.8-2.1 7.5-29.8 10.4-34.5 28.1-43.9 67.8-85 74.6-138.9 6.5-51.1-17.7-100.1-26.7-149.5-5-27.9-6.9-56.3-10.9-84.4-0.4-2.9 2.1-24.4 5.8-12z"  fill="#fff500" /><path d="M341.8-398.7c2.5 38.5 2.3 77.3 9.2 115.3 16.8 92.8 41.5 141.5-18 227.3-5.2 7.4-20.2 36.9-29.7 36.8-12.4-0.2-4.1-20.1 4.7-11.4 8.9 8.7-10.8 17.4-11.3 5-0.1-1.6 62.2-89.1 67.2-130.2 7.2-60.7-23.2-122.2-27.3-182.8-1.2-17.5-1.7-35.1-2.7-52.7-0.3-5.3 5.9-18.2 7.9-7.3z"  fill="#005bbb" /><path d="M345-337.3c3.7 63.6 35.6 127.9 27.4 191.4-8 62.5-56.6 108.3-87.4 160.3-5.5 9.3-28 66.1-37.3 64.7-10.9-1.6-1.3-18.3 5.6-9.6 6.8 8.7-11.6 14.1-10.7 3.2 4.3-46.4 96.9-146 115.1-201.2 20.4-62-11.7-123.6-18.8-185-0.6-5.1-6-24.3 0.3-27.3 2.8-1.3 5.3 0.8 5.8 3.5z"  fill="#fff500" /><path d="M355.1 51.6c-4.3 6.2-13.3 30-22 28-9.6-2.2-2.6-17.1 5.2-11 6.7 5.2-2 15.3-8.1 9.4-15-14.4 38.4-53.7 24.9-26.4z"  fill="#c2e1ff" /><path d="M362.7-162c3.9 66.8-44.7 117.1-76.5 170.7-5.5 9.3-33.3 74.6-41.9 70.3-8.4-4.2 1.5-16.4 7.3-9 5.9 7.4-8.2 14.2-10.4 5.1-4.9-20.2 65.6-121.7 79.5-143.3 11.4-17.6 21.8-36.1 27.9-56.3 3.4-11.4 1-29.7 6-39.4 2.2-4.2 7.6-2.2 8.1 1.9z"  fill="#005bbb" /><path d="M371.4-290.2c1 55.8 22.3 109.9 4.3 165.2-19.2 58.9-87.4 128.1-119 197.4-5.8 12.7-17.7 2.4-10.9-3.4 9.9-8.6 14 14.8 1.7 10.1-19.7-7.6 107.5-183.3 116-204.2 21.8-53.7 2.9-107-0.4-162-0.4-6.3 7.1-10.6 8.3-3.1z"  fill="#005bbb" /><path d="M361-398.1c-4.9 37.9-7.4 76.7-2.4 114.8 10.6 81.2 36.5 133.8-12.6 210.3-4.2 6.5-14.3 28.2-23.1 27.9-12.6-0.4-3.8-20.4 5.1-11.5 8.8 8.9-11.3 17.4-11.6 4.9 0-1.6 46.1-73.3 50.5-103.7 7.9-54.9-17.2-108.9-19.5-163.6-1-23.6-4.2-59.1 4.2-81.4 2.1-5.5 9.3-3 9.4 2.3z"  fill="#fff500" /><path d="M390.1-106.6c-30.7 53.2-81 91.4-111.4 145.2-4.1 7.3-16.4 42.3-25.5 40.7-9.4-1.6-3.5-16.3 4.4-10.9 6.8 4.6-1.1 14.9-7.4 9.6-10.3-8.9 29.5-66.4 35.9-76 27.5-41.3 64.4-75 93.1-115.4 4.9-6.9 14.4-0.6 10.9 6.8z"  fill="#005bbb" /><path d="M398.2-288.5c-7.6 55.5 9.2 110.8-12.1 164.8-24.5 61.9-92.2 120.5-127.5 196.4-5.9 12.7-17.8 2.3-11-3.5 10-8.5 13.9 15 1.7 10.1-22.5-8.9 113-181.5 122.8-201.1 26.5-53.3 11.8-108.5 16.3-165 0.6-7.1 9.6-10.1 9.8-1.7z"  fill="#fff500" /><path d="M407.6-334.9c-28 65.4 2.1 136.1-19.6 202.4-21.9 66.8-92.7 127.2-126.1 197.7-1.7 3.5-10.1 23.3-15.9 10.8-2.5-5.4 3.9-10.8 8.7-7.5 5.8 3.9 0.9 13.1-5.5 10.6-22-8.7 112.8-182.2 122.4-202.2 27.2-56.4 7.9-114.9 15.1-174 1.3-10.9 2.8-36.4 11.7-44.3 4.8-4.2 10.6 1 9.2 6.5z"  fill="#fff" /><path d="M416.1-300.7c-16.7 57.7 1.4 118.8-22.3 175.5-26.9 64.2-96 117.9-133.4 197.1-6.3 13.4-18 2.7-11.3-3 10.1-8.5 13.9 15.1 1.6 10.1-11-4.4 8.4-32.5 11.5-38.6 30.6-59.9 83.7-102.4 115.6-160.6 28.8-52.6 16.5-108 24.5-164.6 0.7-5.3 0.6-18.2 5.6-21.6 4.3-3 8.8 1.2 8.2 5.7z"  fill="#fff500" /><path d="M387.5-396.6c-53.2 125.2 39.8 214.2-47.3 335.6-4.9 6.9-18.2 32.3-27.5 31.9-9.2-0.4-7.8-14.9 1.4-13.5 9.1 1.4 6.1 15.7-2.8 13.3-14.5-3.9 7.8-26 11.2-30.5 20.5-27.3 40.4-55.9 47.6-89.9 13-61.2-15.5-122.8-9-184.8 2.1-19.7 4.6-50.9 16.3-67.5 4.1-5.8 11.7-0.6 10.1 5.4z"  fill="#fff500" /><path d="M433.7-72.2c-37 42.3-88 68.8-122 114.1-5.2 6.9-20.9 40.1-29.9 37.8-9.8-2.6-2.1-17.5 5.6-11.1 6.7 5.5-2.6 15.5-8.6 9.3-8.9-9.1 25.4-49 31.6-56.7 11.2-14 104-100.8 115.7-104.9 7.4-2.7 11.7 6 7.6 11.5z"  fill="#fff" /><path d="M386.1-396.3c-12.3 30.2-18.3 63.3-18.3 95.9 0.1 82.3 34.5 140.9-14.3 219.4-4 6.5-13.9 27.8-22.6 27.5-9.2-0.4-7.9-14.8 1.3-13.4 9.1 1.3 6.2 15.6-2.7 13.2-14.5-3.8 7.9-26.6 11.2-31.5 14.6-21.8 26.3-45.5 30.5-71.6 9-56.3-15.3-112.1-11.5-168.8 1.5-21.9 3.5-57.2 16.2-75.9 4-5.8 11.6-0.8 10.2 5.2z"  fill="#fff500" /><path d="M403.7-395.6c-71.5 116.8 29.5 208.5-60.5 332.5-4.8 6.6-17.2 30.1-26.1 29.5-9.3-0.5-7.7-15.1 1.5-13.5 9.2 1.5 6 15.8-3 13.3-14.3-4 6.8-24.2 10.3-28.8 19.1-25.1 37.5-51.3 45.6-82.2 16.5-62.2-12.5-125.8-2.1-188.9 3.4-20.5 9.3-53.6 24.1-69.3 5.3-5.7 12.8 1.1 10.2 7.4z"  fill="#c2e1ff" /><path d="M460.2-143.6c-30.6 74.8-101.3 107.1-149.7 167-7.6 9.4-29.1 55.4-39.4 56.4-9.9 1-7.9-15.4 1.4-12.1 9.4 3.2 0.8 17.3-6.3 10.4-13.2-12.7 47.9-81 57.6-90.8 22-22.1 47.6-40 70.5-61.1 18.7-17.2 55.2-75.6 56.8-76.8 5.1-4.1 10.7 1.6 9.1 7z"  fill="#fff500" /><path d=""  fill="#fff" /><path d="M399.1-395.8c-17.8 31.9-26 69-25.8 105.3 0.4 67.7 25.2 128.8-8.8 193.2-3.2 6-8.7 20.8-15.7 23.2-8.5 2.9-12.4-10.7-3.6-12.7 10.3-2.3 10.3 15.1 0.1 12.9-13.5-2.9 4.1-22.6 6.8-27.2 10.6-18 18.5-37.6 21.7-58.3 9-57.9-15.3-115-6.9-173.5 2.9-20.5 7.9-53.7 22-69.9 5-5.7 12.5 0.6 10.2 7z"  fill="#fff500" /><path d="M486.5-369.9c-76.2 100.7-33.8 138.6-71.3 233-25.1 63.2-84.7 101.6-121.9 156.8-3.7 5.5-20.5 14.1-15.5 0.2 6.9-19 20.6 17.7 3 7.9-15-8.4 102.4-131.8 112.6-148.6 36.8-60.5 19.6-131.2 44.6-194.8 7.9-20.1 21.5-49.9 38.7-63.9 6.5-5.3 13.4 3 9.8 9.4z"  fill="#fff" /><path d="M494.6-270.4c-9.1 67.8-12.6 128.3-56.7 184.5-33.7 43-83 68.9-118.6 110-6.8 7.8-36.5 59.6-44.8 54.4-8.4-5.4 3.3-17.2 8.8-8.7 6.3 9.9-13.7 13.7-11.6 2.2 10.7-55.3 126.7-128.3 162.7-175.9 21.5-28.5 36.3-61.6 42.8-96.6 1.9-10.3 6-71.1 9.4-74.1 3.5-3.2 8 0.1 8 4.2z"  fill="#fff" /><path d="M503.2-240.7c-10.9 172.2-90.8 173.8-175.4 269.8-6.6 7.4-34.5 55.5-43.1 49.8-8.4-5.6 3.7-17.3 9-8.7 6.2 10.1-14.2 13.6-11.7 2 11-51.6 120.8-121.2 156.1-165 21.4-26.6 38.1-57.6 47.1-90.6 5.1-18.9 3.1-40.8 8.9-59 1.7-5.4 8.8-3.3 9.1 1.7z"  fill="#005bbb" /><path d="M512.7-350.7c-33.3 76.3-20.9 152.6-55.3 221.9-33.7 67.7-101.4 98.8-146.9 155.9-2.9 3.7-15.2 20.3-18.7 6.5-1.6-6.4 6.6-11.1 11.3-6.4 5.5 5.5-1.8 14.6-8.4 10.4-10.6-6.8 11.1-26.9 15.3-31.9 40.3-47.2 97.5-75.9 130.5-130 35.6-58.3 27.3-122.7 44.9-185.9 3.3-11.9 8.3-39.4 18.2-47.4 5.1-4.1 10.7 1.5 9.1 6.9z"  fill="#fff" /><path d="M521.5 6.1c-6.6 15.6-14.9 68.8-18.6 71.1-6 3.8-10-7.3-3-8.2 7.1-0.9 6 10.9-0.8 8.7-12.4-3.9 6.3-68.8 12.2-77.1 4.1-5.8 11.8-0.6 10.2 5.5z"  fill="#005bbb" /><path d="M530.1-393.3c-10.3 34.4-28.5 65.9-36.7 101.1-6.5 27.6-7.2 55.9-10.8 83.9-10.2 79.8-55 134.3-115.8 183.1-7.2 5.8-32.2 34.4-41.4 29.1-11.8-6.8 6.8-21.6 10.7-8.4 3.9 13.1-19.8 11-13.6-1.3 13.4-26.5 95.3-72 126-129 30.5-56.8 22.4-119.6 39.7-179.7 4.6-15.9 22.5-74.5 32.8-84.5 4.4-4.3 10.2 0.5 9.1 5.7z"  fill="#fff" /><path d="M539 5.3c-7.2 15.9-16.6 69.7-20.5 72.1-6.3 3.7-10-7.8-2.8-8.6 7.2-0.7 5.8 11.3-1 8.9-12.3-4.3 7.9-69.9 14.1-78.2 4.3-5.8 11.9-0.3 10.2 5.8z"  fill="#fff" /><path d="M546.9-319.8c-2.4 47.3 6 94.9-7.8 141.1-23.9 80.3-84.2 138.8-133 203.8-5.7 7.6-28.5 56.1-34.9 53.5-9.7-3.9 2.9-17 7.2-7.6 3.7 8.1-10.8 11.2-10.7 2.3 0.2-30.2 115.7-164.9 139.6-208.5 18.8-34.3 30.8-69.7 31.4-109.1 0.2-15.2-6.4-67.4-0.3-78 2.5-4.3 8.1-1.9 8.5 2.5z"  fill="#c2e1ff" /><path d="M556.6-123.2c-32.4 46.5-67.6 93.4-90 145.8-3.3 7.8-13.8 57.1-19.2 54.8-5.6-2.4-1.2-11 4.1-8 4.5 2.6 1.4 9.7-3.6 8.1-12.8-4 6.1-55 9.4-63.1 14.2-34.9 62.1-122.5 89.4-146.4 6.1-5.4 13.3 2.5 9.9 8.8z"  fill="#fff" /><path d="M563.9-308.3c3.3 43.7 9.8 86.7-4.6 129.3-26.8 78.9-90.3 138.6-128.1 211.4-4.2 8.1-10.9 42.7-17.2 45.7-7 3.4-10-9.1-2.2-9.2 7.8-0.1 5.2 12.5-1.9 9.3-26.9-11.8 115.2-213 127.2-236 14.1-27.3 22.7-55.9 22.9-86.7 0.1-13.2-10.8-56.2-3.4-65.9 2.4-3.2 6.6-1.3 7.3 2.1z"  fill="#005bbb" /><path d="M574-75.3c-28 30.7-50.6 67.8-62.1 107.9-2 6.8-5.6 48.5-13.4 45.2-5.6-2.4-1.3-11 4.1-8 4.5 2.6 1.4 9.7-3.6 8.2-8-2.5-1.6-27-0.7-32.5 7.4-44.8 29.9-87.1 58.2-122.2 8.4-10.4 27.7-13.8 17.5 1.4z"  fill="#fff500" /><path d="M582.8 27.2c-3.8 8.9-9.4 47.5-16.6 50.9-7 3.4-10-9.1-2.2-9.3 7.8-0.2 5.2 12.5-1.9 9.4-8.8-3.9 5-54.6 12.6-58.4 5.1-2.6 9.3 2.6 8.1 7.4z"  fill="#c2e1ff" /><path d="M591.5-129.4c-39.8 46-79 93.5-99.8 151.7-3.3 9.3-6.2 50.6-12.3 54.6-6.9 4.5-9.7-9.5-1.7-8 6.9 1.2 2.4 12-3.3 8-7-4.9 0-31.1 1.4-38.1 13.5-66.1 58.9-129.6 105-177.4 6.5-6.7 15.7 1.9 10.7 9.2z"  fill="#c2e1ff" /><path d="M598.6-289.6c6.2 34 7.8 69-4.1 101.9-24.3 67.5-81.7 122.7-115.1 186.3-9.2 17.4-17.3 35.6-21.5 54.9-0.9 4.3-0.1 27.7-8.9 23.7-6.5-2.8 0.4-12.4 5.1-7 4.7 5.3-5.6 11-7.6 4.2-18-60 96.3-192.4 126.1-244 10.9-18.8 20-40.4 21.3-62.4 0.6-10.5-5.6-49-2.6-58.2 1.3-3.9 6.2-2.9 7.3 0.6z"  fill="#c2e1ff" /><path d="M604.1-189.1c-22.4 61.4-85.8 123.4-117.8 186-9.5 18.7-17.9 38.3-21.5 59.1-0.7 4.1 0.8 25.1-8.1 21.3-5.5-2.4-1.4-10.9 3.9-7.9 6.1 3.4-1.6 12.2-5.8 6.4-19.4-26.7 57.2-149 74.9-174 15.5-21.9 32.6-42.8 47.3-65.3 5.6-8.7 10.4-25.9 18-32.2 4.9-4.1 10.6 1.3 9.1 6.6z"  fill="#fff500" /><path d=""  fill="#005bbb" /><path d="M604.1-9.8c-12.6 18-22.3 38-28.7 59-1.8 6.1-2.8 25.7-8.5 28.5-7 3.4-10-9.2-2.2-9.4 7.8-0.1 5.2 12.5-1.9 9.4-15.5-6.9 21.7-87.1 31.3-96 5.9-5.5 13.2 2 10 8.5z"  fill="#fff500" /><path d=""  fill="#005bbb" /><path d="M604.1-14.7c-13.8 18.8-24.4 39.8-31.3 62.1-1.9 6.2-3 27.5-8.9 30.4-7 3.4-10-9.1-2.3-9.3 7.8-0.2 5.3 12.5-1.8 9.4-18.1-7.9 25.7-89.6 33.3-100.1 5.2-7.2 14.9 0.1 11 7.5z"  fill="#fff" /><path d="M604 23.5c-4.5 9.3-11.9 50.7-19.5 54.2-7.2 3.3-10-9.5-2-9.6 7.9 0 5 12.8-2.2 9.5-9.1-4.2 7.5-60.7 17.1-62.5 5.1-0.9 7.9 4 6.6 8.4z"  fill="#005bbb" /><path d=""  fill="#fff" /><path d="M603.6-106.9c-34 31.4-63.4 66.6-82.2 109.3-3.1 7-13.8 51.5-22 46.1-5-3.2-1-11.1 4.6-9 6.5 2.4 2.1 12.5-4.1 9.3-11.8-6 47.9-141.3 95-167.7 8-4.5 14 5.8 8.7 12z"  fill="#005bbb" /><path d="M603.5-106c-39.8 36.6-73.5 79.5-90.5 131.5-2.8 8.8-5.1 47.2-11.3 51.2-7.1 4.4-9.7-9.9-1.4-8.3 7 1.4 2.2 12.2-3.6 8.1-12.1-8.9 8.2-62.7 12.4-73.8 13.8-35.8 51.3-101.5 85.6-120.7 8-4.5 14 5.8 8.8 12z"  fill="#005bbb" /><path d=""  fill="#005bbb" /><path d="M603.7-97.5c-37.3 33.4-68 73.5-84.1 121.3-2.5 7.5-9.7 56.9-16.4 53.9-4.8-2.1-2.4-9.6 2.7-8.5 6 1.2 3.5 10.6-2.3 8.7-9-2.9-0.2-35 1.3-41.4 11.2-51.4 40.6-97.9 77.7-134.6 3.9-3.9 9.8-12.4 15.9-12.5 7.4-0.1 9.4 8.2 5.2 13.1z"  fill="#005bbb" /></svg>