<svg width="1200" height="675" viewBox="-500 -500 1200 675" xmlns="http://www.w3.org/2000/svg"><path d="M-500-500h1200v675h-1200z" fill="#000"/><path d=""  fill="#c2e1ff" /><path d=""  fill="#005bbb" /><path d=""  fill="#fff" /><path d=""  fill="#c2e1ff" /><path d=""  fill="#005bbb" /><path d=""  fill="#005bbb" /><path d=""  fill="#005bbb" /><path d=""  fill="#c2e1ff" /><path d="M-396.3-202.9c11.9 27.3 24.1 83.1 1.1 108.8-5 5.7-12.4-4.5-5.4-7.5 7-3 9.4 9.3 1.8 9.1-7.4-0.2 7.6-46.6 8-55 0.9-18.6-14.5-71.7-5.5-55.4z"  fill="#c2e1ff" /><path d="M-396.2-186.6c3.3 9.5 16 80.1-2.5 79.5-6.1-0.2-5.3-9.7 0.8-8.9 6 0.8 4.2 10.2-1.7 8.8-7-1.8 3.1-33.3 3.3-40 0.5-13.1-5.2-51.4 0.1-39.4z"  fill="#fff500" /><path d=""  fill="#c2e1ff" /><path d="M-396.6-254.9c29.4 59.2 47.6 111.5 16.1 174.7-2.9 5.9-10.6 26.6-18.1 26.7-9.8 0.2-3.9-15.8 3.4-9.2 7.3 6.6-8 14.1-8.8 4.3 0-0.4 32.6-66.6 34.5-88.6 3.1-36.6-12.3-69.3-28.4-101.1-0.9-1.8-2.5-12.6 1.3-6.8z"  fill="#005bbb" /><path d=""  fill="#c2e1ff" /><path d="M-389.9-399c2.3 27.5 3 55 10.3 81.8 13.7 50.2 49.3 92.3 56.4 144.6 8.3 61.3-32.7 146.8-39.2 143.8-4.9-2.3-2.4-9.9 2.9-8.8 5.3 1.1 4.5 9.2-1 9.2-11.3 0 4-27.2 5.7-31.3 14-34.7 28.1-70.8 25.5-108.9-4.1-59.3-47.2-106.5-59.7-163.6-4.2-19.3-10.7-47.3-7.4-67.1 0.7-4 5.8-3.2 6.5 0.3z"  fill="#005bbb" /><path d="M-395.7-329.5c8.9 57.2 50.9 102.8 57.3 160.5 5.9 52.5-20.2 100.7-44.9 144.9-2.8 5-10.1 26.6-18 21.8-5-3-1.3-10.9 4.2-9.1 5.5 1.9 3.6 10.4-2.2 9.8-12.1-1.4 8.3-29.6 10.8-33.9 20.8-37.1 42.8-76.8 43.9-120.4 1.5-55.9-35.9-99.9-51.7-151.1-7.6-24.5-0.8-27 0.6-22.5z"  fill="#c2e1ff" /><path d="M-389.7-72.4c-1.6 3-14.2 18.3-14.1 4.9 0.1-19.6 20 13.9 2.7 4.6-15-8.1 18.5-26.1 11.4-9.5z"  fill="#fff500" /><path d="M-384.9-210.9c18.3 41.4 18.2 84-1.3 125-2.2 4.5-5.4 15.2-10.4 17.2-7.6 3.1-9.9-10.2-1.7-9.9 7 0.3 5.9 11.3-1 10.3-11.2-1.7 3.5-20.3 5.5-24.3 7.8-15.7 13.5-32.4 15.4-49.9 1.7-15.3 0.3-30.8-3.7-45.6-1.1-4.3-9.3-19.5-6.9-23.2 1.1-1.7 3.2-1.2 4.1 0.4z"  fill="#fff500" /><path d="M-377.9-221.9c22.6 48.5 22.6 96.5-1.9 144.4-3.9 7.5-8.8 20.7-15.5 26.1-6.6 5.2-12.7-7.3-4.6-9.3 8.2-2 8.4 12 0.2 10.3-11.5-2.3 5.4-21.9 7.8-26 10.9-19 19.7-39.5 23.2-61.1 6.1-37.8-14.5-67.9-13.5-83.6 0.2-2.5 3.2-2.6 4.3-0.8z"  fill="#fff" /><path d="M-369.9-394.4c15.3 108.7 64.2 141.5 78.2 216.1 10.9 58-17.8 113.1-12.7 170.9 0.9 10.5 14.9 45.3 14.1 49.8-0.5 3.2-5.5 1.2-3.7-1.5 2.1-3.1 5.8 2.3 2.1 3.2-5.2 1.1-12.4-23.3-13.6-27.3-20-62.9 15.2-124.3 8.6-187.5-6.3-60.4-50.6-107.1-67.6-164.1-5.1-17-13.4-41.7-11.5-59.5 0.4-3.8 5.3-3.4 6.1-0.1z"  fill="#fff" /><path d="M-361.5-45.9c-12.2 25.7-35.5 79.5-35.8 79.6-6.5 2.2-7.7-9.2-0.9-8.4 6.8 0.8 3.2 11.6-2.7 8-9.6-5.8 24.5-76.2 31.2-84.4 3.8-4.6 9.9 0.2 8.2 5.2z"  fill="#005bbb" /><path d="M-356.9-268c22 44.5 44.1 86.9 36.7 138.3-7.5 52.6-37.8 99-45.2 151.6-1.6 11 4.3 47.6 2.3 52.4-1.8 4.6-8.1-1.3-3.6-3.4 3.9-1.8 5.4 5.1 1.2 5.1-6.8 0-8-29.3-8.3-34.4-2.9-64.4 39.7-119.7 47.1-182.3 5.2-44-12.3-82.1-31.6-120.4-0.9-1.8-2.5-12.6 1.4-6.9z"  fill="#fff500" /><path d="M-343.9-398.7c17.7 97.9 62.5 124.1 86.6 201.8 16 51.4 1.6 105.7 15.6 157.2 3 11 20.4 36 19.2 45.8-0.4 3-5.2 1.3-3.6-1.3 1.9-3 5.6 2 2.1 2.9-4.8 1.3-15.3-25.7-17-29.8-22.2-52.9-7.3-109.1-19-163.6-12.5-58.1-56.7-101.7-76.2-157-5.5-15.8-14.7-38.7-13.6-55.6 0.2-3.6 4.9-3.4 5.9-0.4z"  fill="#c2e1ff" /><path d="M-340.8-134.3c-2.7 20.6-38.6 118.8-55.9 126.1-7.5 3.2-9.9-10-1.8-9.8 8.1 0.3 4.8 13.3-2.4 9.7-9-4.5 11.8-31.2 14.9-36.8 21-36.9 23.1-57.7 37.6-91.5 1.9-4.5 7.8-2.1 7.6 2.3z"  fill="#fff500" /><path d="M-328-398.7c15.5 86.3 59.2 117.8 86 190.9 17.7 48.3 9.8 100.7 25.5 149.2 4.8 14.9 11.8 28.9 19.9 42.3 0.3 0.6 8.2 10.8 2.7 10-8.6-1.2 9.1-2.6 0.8-0.1-4.3 1.3-16.5-24.8-18.5-28.7-25.7-50.2-17.6-105.3-31.4-158.3-14.4-55.3-56.1-96.9-76.3-149.6-5.9-15.5-15.6-38.5-14.6-55.3 0.2-3.6 4.9-3.5 5.9-0.4z"  fill="#c2e1ff" /><path d="M-308.3-398.7c11.3 68.1 53.6 113.7 80.3 174.8 17.9 41.1 18.3 85.5 29.6 128.2 1.1 4.3 12.4 31.1 9.1 32.4-3.3 1.3-4.2-4.5-0.6-4.3 3.5 0.2 1.9 5.8-1.2 4.2-13.5-7.2-27.5-115.6-33.6-136.6-15.5-53.8-55.4-94.7-75.5-146.3-5.7-14.5-15-36.2-14-52.1 0.2-3.7 5-3.4 5.9-0.3z"  fill="#c2e1ff" /><path d="M-314.4-399.2c13.3 77.8 57.2 116.1 84.1 184.2 18 45.6 14.5 95.6 30.7 141.6 3.5 10 32.3 57.3 32.1 60.3-0.2 3.2-5.3 0.8-2.9-1.3 2-1.9 4.3 2 1.7 2.9-9.8 3.2-37.4-64.6-40-73.2-11.3-36.7-10.8-75.7-21.1-112.6-15.3-55.1-56.6-96.6-76.7-149.5-5.6-14.6-14.8-36.3-13.8-52.1 0.2-3.7 5-3.4 5.9-0.3z"  fill="#fff" /><path d="M-314.9 67c1 1.8 5.2 5.7 3.3 7.9-1.6 1.8-4.3-0.9-2.5-2.5 2.1-1.9 4.4 2.2 1.7 3-7.1 2.2-6.5-13.5-2.5-8.4z"  fill="#c2e1ff" /><path d="M-307.6-311c21.7 42 52.8 78.3 64.2 125.1 12.9 52.7 1.9 107.9 25.4 158.5 4.8 10.2 62 101.4 57.1 103.1-3.5 1.3-4.3-4.8-0.6-4.5 3.1 0.3 2.5 5.2-0.6 4.6-3.9-0.8-7.4-14.2-9.1-17.6-19.9-39.4-50.8-72.4-63.2-115.6-12.2-42.6-5.4-87.5-15.3-130.4-10-43.6-37.5-78.1-58.9-116.4-1-1.8-2.9-12.2 1-6.8z"  fill="#005bbb" /><path d=""  fill="#005bbb" /><path d="M-293.6-304c21.7 38.2 48.9 72.6 60 116 13.2 51.6 6.2 105.2 31.3 153.8 13.7 26.6 61.1 79.9 62.2 107.5 0.2 3.9-6.2 2.7-4.7-0.8 1.7-4.2 7.4 1.3 3.2 3.1-3.8 1.7-15.4-29.2-17.8-33.5-19.9-36.8-48.6-68.4-61.5-108.8-12.8-40-9.1-82.7-19-123.3-9.7-40.1-33.4-72.6-54.2-107.3-0.9-1.5-3.4-11.9 0.5-6.7z"  fill="#fff" /><path d="M-284.3-109.4c-6 43.8-15.7 87.6 1.4 130.3 5.8 14.5 14.1 27.8 23 40.6 1 1.4 11.2 12.4 6.8 13.5-6.5 1.6 6.4-2.3 0.1-0.1-3 1.1-6.5-7.1-7.6-8.7-21-29.6-37.1-59.9-39.2-96.8-1.3-23.6-1.1-58.7 7.9-80.9 1.8-4.5 7.7-2.2 7.6 2.1z"  fill="#005bbb" /><path d="M-279.7 53c1.7 2.8 15.6 20 12.9 21.7-1.8 1.2-3.6-1.8-1.6-2.8 2-1 3.3 2.2 1.3 3-7 2.6-17.2-27.3-12.6-21.9z"  fill="#fff500" /><path d="M-271.1-393.5c9.3 59.7 46.7 103.9 69.9 157.8 18 41.7 21.8 87.2 37.7 129.5 14.3 38.1 39.6 70.5 56.6 107.3 1.9 4.2 12.1 21.5 9.1 25.4-2.4 3.2-6.7-1.8-3.2-3.7 3-1.6 5.3 3.2 2.2 4.5-3.6 1.5-17.1-35.3-19.7-40.1-50-99-44.8-75.7-75.5-186.8-16.5-59.5-58.4-106.3-76.4-164.9-2.5-8.3-7.4-20-6.7-28.7 0.3-3.7 5-3.5 6-0.3z"  fill="#c2e1ff" /><path d="M-265.1 18c2.9 6.2 34.1 56.1 32.9 56.9-2.1 1.2-3.8-2.2-1.6-3.2 2.2-1 3.6 2.6 1.3 3.3-4.6 1.5-35.1-48.8-36.7-55.5-0.6-2.6 2.7-3.4 4.1-1.5z"  fill="#c2e1ff" /><path d="M-253.4-398.6c8.3 59.6 43.3 105.5 65.2 160 19.4 48.1 24.4 100.5 46.7 147.6 4 8.5 45.9 84.3 40.8 86-2.6 0.9-4.3-2.8-2-4.2 2.7-1.7 5.1 2.8 2.2 4.2-3.5 1.7-4.9-5.5-5.4-6.7-12.1-29.2-29.3-55.7-42.7-84.2-16-34.1-23-70.5-33-106.5-16.3-59.3-55.4-108.2-71.8-167.1-2.3-8.4-6.9-20.1-6.1-28.9 0.3-3.7 5.2-3.4 6.1-0.2z"  fill="#c2e1ff" /><path d="M-251-329c17.2 36.4 41.4 68.9 55.5 106.9 15.3 41.2 19.1 85.7 36.5 126.2 15.6 36.3 40 67.9 55.6 104.2 3.3 7.7 26.3 63.8 17.9 68-4.2 2.1-6.1-5.4-1.4-5.6 5.5-0.2 2.3 8.8-1.8 5.2-5.5-4.9-6.4-26.7-8.4-34.1-6.5-23.8-16.2-46.4-28.1-68-14.8-26.7-32-52-43.3-80.5-35.5-90-16.3-95.8-75.7-200.5-12.5-22.1-9-25.2-6.8-21.8z"  fill="#fff" /><path d="M-244.5 55c1.8 2.7 14.6 17.8 11.2 19.9-2.1 1.2-3.8-2.2-1.6-3.2 2.2-1 3.6 2.6 1.3 3.3-6.7 2.1-15.2-25-10.9-20z"  fill="#fff" /><path d="M-234-398.8c8 53.2 34.5 97.4 54.1 146.6 16.7 42 23.2 86.9 38.5 129.3 14.5 40.3 37.9 76.7 51.8 117.3 1.5 4.3 9 20.2 5.9 23.8-2.9 3.3-7.2-2.6-3.2-4.3 3.4-1.5 5.5 4 2 5.1 0 0-34.2-81.8-38.7-90.8-27.7-55.7-37.5-114.5-58.5-172.4-16.5-45.7-43.1-87.1-54.2-134.7-5.9-25.5 1.7-21.9 2.3-19.9z"  fill="#005bbb" /><path d=""  fill="#c2e1ff" /><path d="M-221.8-388.6c9 50 33.7 93.8 50.6 141.2 15.5 43.5 22.2 89.5 38.9 132.6 17.7 45.5 42.1 87.2 53.3 135.1 1 4.2 7.5 22 2.6 24.4-3.7 1.8-6.2-4.2-2.3-5.6 3.9-1.3 5.7 4.9 1.7 5.8-6.1 1.4-7.4-22.5-8.3-26.6-6.1-27.4-15.9-53.5-27.6-79-31.8-69.2-40.2-119.9-64.1-188.2-14.2-40.4-35.3-78.2-46.3-119.8-6.7-25.5 1-21.3 1.5-19.9z"  fill="#fff500" /><path d="M-216.2 44c2.3 3.5 20.8 29 16.6 31.1-2.5 1.2-4.1-2.8-1.5-3.8 2.6-0.9 3.8 3.3 1.1 3.9-3.5 0.8-6.2-8.2-7.3-10.2-1.3-2.2-13.5-26.6-8.9-21z"  fill="#fff" /><path d="M-209.1 44c2.3 3.5 20.7 29.3 16.2 31.3-2.6 1.2-4.2-3-1.5-3.8 2.7-0.9 3.9 3.4 1.1 4-3.6 0.8-6.1-8.3-7.2-10.4-1.2-2.2-13.3-26.8-8.6-21.1z"  fill="#fff" /><path d="M-200.6-168.6c25.1 123.6 43.9 104.6 86.2 201 2.2 5 18.5 42.3 12 43.6-3.1 0.7-4.6-3.9-1.7-5.2 3.4-1.5 5.5 4 2 5.2-2.4 0.8-21.6-53.4-24.9-60.1-19.9-39.4-49.7-72.9-63.9-115.1-6.6-19.6-16.5-48.1-15.6-68.9 0.2-3.6 4.8-3.5 5.9-0.5z"  fill="#005bbb" /><path d="M-193.7-180.6c7.2 30.1 11.6 60.9 23.5 89.7 23.2 56.1 63.1 100.2 77.9 160.5 1.4 5.6-4.2 9.1-4.8 4.2-0.9-7.3 10.7 0.3 3.6 2.3-2.2 0.6-22.4-61-25.9-68.3-19.1-39.7-48.1-73.9-62.5-116-7.1-20.6-17.8-49.9-17.4-71.8 0.1-3.5 4.6-3.5 5.6-0.6z"  fill="#fff500" /><path d=""  fill="#fff" /><path d="M-180.9-1c6.9 10.3 44.5 66.2 41.9 75.2-1.1 3.7-6.8 0.6-4.2-2.3 2.6-2.9 6.4 2.3 2.8 3.8-3.9 1.7-15.1-28.7-17.3-32.9-7.8-14.6-33.9-56.3-23.2-43.8z"  fill="#fff" /><path d="M-171.7-399.1c16.6 115.5 45.1 228.3 82.2 338.8 4.7 14 27.7 92.8 22.1 102.3-2.6 4.3-8.7-1.4-4.5-4.3 4.2-2.9 7.3 4.9 2.4 5.8-0.2 0-24.1-100.5-28-111.8-34.4-100.3-63.8-205.7-77.9-311-1.3-9.9 0.6-31.4 3.7-19.8z"  fill="#fff" /><path d=""  fill="#005bbb" /><path d="M-159.5-60c44.2 77.3 71.4 131.4 63.7 135.7-3.9 2.2-6-4.9-1.6-5.2 5.2-0.4 2.5 8.3-1.5 5-8.4-6.8-12.7-41.8-17.5-52.9-12.4-28.7-30.8-53.6-46.4-80.6-1.3-2.2 1.8-3.9 3.3-2z"  fill="#fff" /><path d="M-152.5 28c5.1 8.5 24.8 36.2 21.7 46.3-1.2 3.8-6.9 0.5-4.2-2.5 2.7-2.9 6.5 2.5 2.8 4-4.9 2-9.2-17-10.5-20-3.9-9-15.7-35.6-9.8-27.8z"  fill="#fff500" /><path d=""  fill="#fff" /><path d="M-135.8-398.8c2.8 31 1.7 62.1 4.8 93 8.4 83.6 29.3 162.8 50.5 243.8 3.7 14 22.3 95.5 16.9 104-2.8 4.4-8.9-1.7-4.5-4.5 4.4-2.8 7.4 5.2 2.2 6-1.7 0.2-18.7-99.3-21.6-110.7-27.3-103.8-50.4-204.4-54-312.2-0.2-4.8-3.3-17.2-0.2-21.2 2-2.6 5.4-1 5.9 1.8z"  fill="#005bbb" /><path d=""  fill="#005bbb" /><path d="M-123.8 38.1c2.2 4.8 17.2 34 12 37.3-3 1.9-5.8-3-2.6-4.6 3.2-1.6 5.5 3.6 2.1 4.8-5.1 1.8-6.7-12.4-7.6-14.9-9.2-27-8.7-30.5-3.9-22.6z"  fill="#c2e1ff" /><path d="M-115.9-203.5c16.3 92.6 48 178.7 55.2 273.1 0.3 3.3-3.9 12.4-6.2 5.1-3-9.8 13.8 1 3.6 2.3-3.7 0.5-13.1-92.8-15.1-103.7-10.9-57.6-31.7-112.7-42.4-170.4-0.7-3.7 2.4-14.4 4.9-6.4z"  fill="#c2e1ff" /><path d="M-107.9-398.7c1.8 35.3-2.7 70.7-1.3 106.1 3.1 79.4 21.7 155 36.7 232.5 2.8 14.3 17.5 99.5 12.2 107.4-2.9 4.4-9.1-1.9-4.5-4.7 4.5-2.8 7.4 5.6 2.1 6.2-2.8 0.3-14.5-102-16.8-113.7-21.5-111.7-38.3-199.7-35.3-314.7 0.1-5.5-2-15.6 0.4-20.5 1.6-3.4 6-1.8 6.5 1.4z"  fill="#fff500" /><path d="M-102.1 65.3c0.5 1.8 4.8 11.3-1 10.6-3.2-0.4-3.1-5.2 0.1-5.5 3.7-0.4 4 5.5 0.2 5.5-9.6-0.1-2.7-18.7 0.7-10.6z"  fill="#fff500" /><path d="M-95.4-58.9c11.4 29.6 36.4 102.4 29.7 133-1.1 5-8.8 1.4-5.7-2.6 3.6-4.7 8.9 4.2 3 5.1-5.5 0.9-10-53.4-11.3-60.6-3.2-17.6-7.4-35-12.9-52-1.3-4.2-9.7-19.6-7-23.4 1.2-1.7 3.4-1.1 4.2 0.5z"  fill="#005bbb" /><path d="M-88.2-27.8c4.7 13.9 26 93.3 20.5 102.8-2.6 4.3-8.7-1.4-4.6-4.2 4.2-2.9 7.3 4.9 2.4 5.7-6 1-8.4-39.3-9.4-45.2-3.2-19.7-17.3-77.1-8.9-59.1z"  fill="#c2e1ff" /><path d="M-80-390c0.9 46.6-5.2 92.9-3.3 139.6 2.9 72 16 142.9 22.3 214.7 1.2 13.4 9.1 95.5 4.7 101.8-3.1 4.4-9.2-2.2-4.5-4.9 4.7-2.7 7.4 5.8 2 6.3-4.2 0.4-9.6-112.7-10.9-125.4-7-68.4-18.7-136.1-20.9-205-1.3-39.6 2.4-78.7 3.4-118.2 0.1-3.2 5.7-20.3 7.2-8.9z"  fill="#005bbb" /><path d=""  fill="#fff500" /><path d="M-66.3-70.4c3.9 29.9 17.6 119.1 10.4 144.7-1.5 5.2-9.3 1-5.8-3.1 4.1-4.8 9.2 4.9 2.9 5.5-6.9 0.7-5.7-50.1-6.1-56.9-1.4-28.2-10.9-62.4-7.6-90.2 0.4-3.8 5.4-3.3 6.2 0z"  fill="#fff500" /><path d="M-59 50.8c0.2 4.2 4.7 25.7-2 25.8-4.5 0-4.2-7.1 0.3-6.7 4.5 0.5 3.4 7.5-1.1 6.6-12.3-2.6 0.6-38 2.8-25.7z"  fill="#005bbb" /><path d="M-51.8-201.1c0.5 25.4 1.2 278.4-3.6 278.3-5.5-0.2-3.3-9 1.6-6.6 4.9 2.4-0.8 9.5-4.2 5.3-4.4-5.5-1.1-89.1-1.1-102.6 0.2-58-0.6-116.2 0.3-174.2 0.1-4.6 6.3-4.5 7-0.2z"  fill="#c2e1ff" /><path d="M-44.6 67.1c-0.1 2.1-0.1 14.7-6.2 9.3-3.1-2.8 0.5-7.8 4.1-5.8 4.3 2.4 0.2 8.9-3.8 6.1-8.7-6.1 4.9-19.3 5.9-9.6z"  fill="#fff" /><path d="M-37.6-186.9c-1.4 54.7-8.1 109.2-10.5 163.9-0.5 10.6-0.6 99.8-5.8 99.6-5.5-0.2-3.2-9.1 1.7-6.5 4.9 2.5-0.9 9.6-4.3 5.2-4.1-5.3 0.1-73.6 0.5-85.1 2.1-59.1 7-118.3 11.2-177.3 0.3-4.8 6.8-4.3 7.2 0.2z"  fill="#c2e1ff" /><path d="M-30.8-256.2c6.3 82.3-10.9 162.8-15.9 244.7-0.6 9.7-1 88.3-6.3 88.1-6.5-0.3-1.8-10.6 2.7-5.9 3.9 4-4 8.8-5.8 3.5-9.1-26.4 5.1-131.5 8.7-163.7 6.2-53.7 13.6-106.6 10.3-160.8-0.3-4.2 4.6-14.6 6.3-5.9z"  fill="#c2e1ff" /><path d=""  fill="#fff500" /><path d="M-16.7-235.2c5.5 76.5-20.3 150.9-27.1 226.7-0.9 9.5-2.7 85.5-7.8 85.2-5.6-0.3-3.1-9.3 1.9-6.6 4.9 2.6-1.1 9.7-4.5 5.2-10.2-13.4 12-157.7 16.6-181.8 5.5-28.5 11.6-57.1 13.9-86.1 0.9-11.5-3.9-33.8 0.7-43.8 1.5-3.4 5.8-2 6.3 1.2z"  fill="#fff" /><path d="M-8.6-79.1c-18 40.8-28 83.6-32 127.9-0.5 5 1.3 26.6-4.4 27.9-4.8 1.1-6.2-6.5-1.3-7.1 5.7-0.7 4.9 8.8-0.7 7-7.4-2.4 0.1-42.6 1-49.5 3.9-32.7 8.8-83.9 29.3-111 3.5-4.7 9.6-0.2 8.1 4.8z"  fill="#fff500" /><path d="M-1.4-20.5c-10.7 18.1-30.4 96-30.8 96.4-4.2 4.4-9.9-4-4.2-6.2 6.6-2.6 6.6 9.8 0 7.1-13.9-5.6 18.1-93.8 26.8-103.3 4.2-4.6 10.3 0.8 8.2 6z"  fill="#005bbb" /><path d="M4.3-235.3c10.2 76.1-29.8 146-41.7 219.6-1.6 10.2-7.7 93.1-11.7 92.8-5.7-0.4-3-9.4 1.9-6.7 5 2.7-1.2 9.8-4.6 5.2-14.9-20.3 26.6-177.6 35.8-206.8 7-22.2 13.1-44.8 14.7-68.1 0.8-11.8-2.2-24.7-0.7-36.1 0.5-3.8 5.5-3.3 6.3 0.1z"  fill="#c2e1ff" /><path d="M12.2-175.2c-10.6 63.9-43 121.2-51.5 186.2-1.2 9.1-3.1 61.4-5.8 64.8-3.5 4.5-9.5-2.9-4.4-5.5 6-3 7 8.6 0.6 6.7-8.6-2.6 1.1-61 2.2-69.7 7.9-62.9 36.2-117.7 49.8-178.8 1.1-5.2 9.9-13.8 9.1-3.7z"  fill="#fff500" /><path d="M19.7-66.7c-25.9 33.7-42.7 70.9-50.3 112.8-1 5.4-1 29.9-6.9 30.9-5.9 1.1-5.6-8.9 0.3-7.4 5 1.3 2.6 9-2.3 7.3-7.8-2.9 2.7-42.8 4.2-49.7 6.8-31.4 21-80.1 47.1-101.4 5.2-4.3 10.8 2.4 7.9 7.5z"  fill="#005bbb" /><path d=""  fill="#fff" /><path d="M30.6-390c29.1 39.7 76.6 56.8 109.5 92.4 30.1 32.6 43 76.4 69.7 111.4 35.1 46.1 81.2 76.9 101.1 133.9 1 2.9 6.1 11.6 2.3 13.9-2.7 1.6-5.5-2.1-3.3-4.2 2.6-2.5 6.4 1.8 3.5 4.1-5.3 4.1-7.7-13.1-8.4-15.3-5.3-15.8-12.4-31.1-21.4-45.2-21.5-33.4-54-57-78.3-88.1-20.3-26-32.6-56.4-49.6-84.3-29.7-48.5-82.1-66.8-119.4-107.2-1.3-1.4-10.1-15.8-5.7-11.4z"  fill="#fff500" /><path d="M40.9 38.3c-5.3 6.7-18.9 38.5-25.6 39.8-7.3 1.5-7.1-10.9 0.1-9.2 7.3 1.7 1.9 12.9-4 8.3-6.8-5.3 17.1-50.1 26.5-47.5 4 1.1 4.7 5.3 3 8.6z"  fill="#fff" /><path d=""  fill="#005bbb" /><path d=""  fill="#c2e1ff" /><path d="M58.2-380.7c29.4 25.9 67.2 40.3 93.6 69.9 29.5 33.1 40.7 77.6 65.5 114 40.2 58.9 86 89.8 103.1 164.3 0.7 3.2 5 12.3 0.7 14.4-3.1 1.5-5.9-2.8-3.2-5 3.2-2.5 6.9 2.7 3.5 4.8-6.1 3.9-6.8-13.8-7.4-16.2-4.3-19.6-10.5-38.8-19.4-56.8-20.4-41-56.2-69.4-82-106.4-18.2-26.1-29.2-55.8-44.4-83.5-24.7-44.8-64.9-63.2-104.1-92.6-0.6-0.4-9.3-9.1-5.9-6.9z"  fill="#c2e1ff" /><path d=""  fill="#c2e1ff" /><path d="M76.4-399.2c28.7 23.1 63.3 38.3 87 67.4 29.5 36.3 37.5 84.2 60.9 124 33 56.3 79.6 95.6 95.9 161.7 0.9 3.5 5.7 13.4 1.2 15.6-3.6 1.8-6.1-4-2.3-5.4 3.2-1.2 5.5 3.4 2.6 5.3-6.2 4-7.2-14.7-7.8-17.5-4.4-18.4-10.5-36.5-18.9-53.4-18.7-37.7-49.6-66.3-72.1-101.5-19.7-30.7-29.2-65.6-44.9-98.2-21-43.8-57.2-64.5-95.3-91.5-0.5-0.3-9.4-8.3-6.3-6.5z"  fill="#fff" /><path d="M81.5-222.7c31.3 104.5-50.1 138.8-89.3 217.6-8.2 16.6-19.7 77.3-23.6 81.4-5 5.2-10.1-6.2-3-6.5 6.1-0.3 4.4 9.7-1.3 7.4-15.1-6.1 19.3-87.8 25-98.3 20-37 54.4-63 74.8-99.4 10.7-19.1 16.2-40.7 16.6-62.6 0.2-13.2-4.4-26-4.6-38.9 0-3.3 4.3-3.5 5.4-0.7z"  fill="#c2e1ff" /><path d="M90.2-17.4c-18.3 23.3-41.6 42-58.1 66.8-3.1 4.6-14.5 34.2-21.5 27.3-3.9-3.8 1.1-10.2 5.7-7.4 5.4 3.4-0.3 11.6-5.4 7.7-14-10.9 59-97.4 72.8-103.2 5.7-2.4 9.4 4.2 6.5 8.8z"  fill="#fff" /><path d="M93.2-361.4c23.7 14.9 47.5 29.2 65.3 51.3 30.5 37.9 41.5 87.3 71.4 126 48 62 84 97 96.2 178.7 0.7 4.4 5.9 22.7 0.6 24.8-3.5 1.4-6.1-3.6-3-5.8 3.7-2.4 7.2 3.6 3.3 5.6-6.4 3.3-8.8-35.1-9.7-40.2-7.2-41.3-22.1-79.4-48-112.6-21.7-27.6-47.1-51.6-64.8-82.3-21.8-37.9-33.4-81.6-66.2-112.2-13.1-12.3-28.4-21.8-43.6-31.3-0.7-0.4-2.2-2.4-1.5-2z"  fill="#005bbb" /><path d=""  fill="#fff500" /><path d=""  fill="#005bbb" /><path d="M125.2-399.2c73.5 58.6 64.7 109.2 103.4 184 34.9 67.4 80 99.7 95.8 180.6 0.8 3.9 7.3 24.2 0.8 24.8-3.6 0.3-4.6-5-1.2-6.1 3.5-1.1 5.6 3.9 2.5 5.7-6.5 3.7-8.9-28.9-9.8-33.1-7.3-35.3-20.8-68.2-41.2-98-21.2-30.9-45.9-58.6-60.9-93.5-17.6-41.1-23.6-87.2-50.9-123.8-10.7-14.4-23.9-26.5-37.8-37.9-0.2-0.1-3.3-4.4-0.7-2.7z"  fill="#fff" /><path d="M170.2-399.6c43.1 63.6 37.8 144.4 79.3 208.8 13.1 20.2 79.3 111.9 70.5 132.7-1.7 4.1-7.7-0.2-4.5-3.1 3.3-3 6.9 3.4 2.7 4.7-5.5 1.7-8.8-21.2-10-25-7.4-22.3-17.9-43.3-30.7-63-21.2-32.4-45.5-61.7-58.9-98.7-16-44.4-18.5-92.7-40.3-135.2-1.1-2.1-12.9-26.8-8.1-21.2z"  fill="#fff" /><path d="M131.2-142.5c12.9 67.9 19.1 129 6.4 197.3-0.9 5-0.7 19.7-5.6 22-5.7 2.7-8.1-7.5-1.7-7.6 5.4-0.1 5 8.5-0.4 8-5.3-0.5 9.5-88.7 9.8-100.1 0.5-20.6-16-114.6-14.3-120 1-3.1 4.9-2.4 5.8 0.4z"  fill="#fff500" /><path d="M139.3-5.3c-1.5 9.8-17.4 85.7-26.1 83-5.5-1.7-2.4-10.3 2.9-8 5.3 2.3 1.3 10.5-3.8 7.6-6.8-3.9 5-30.6 6.8-36.6 4.6-15.2 6.2-34 12.5-48.3 2-4.5 7.9-2.1 7.7 2.3z"  fill="#fff500" /><path d="M146.1-3.7c-0.7 9.4-8.6 82.6-16.8 80.9-5.3-1.1-3.1-9.4 2.1-7.7 5.1 1.7 2.1 9.6-2.9 7.4-6.6-3 1.6-27.2 2.6-32.8 2.9-15.5 2.6-34.7 7.7-49.3 1.5-4.4 7.2-2.5 7.3 1.5z"  fill="#c2e1ff" /><path d=""  fill="#fff" /><path d="M158.2-152c42.6 81.3 129 90.5 141.1 198 0.6 5.5 4.8 26.9-0.8 30.3-5.9 3.6-7.9-8.3-1.1-6.8 6.8 1.5 0 11.5-3.9 5.7-3.9-5.8-0.2-24.5-0.9-31.9-2.3-23.1-9-46-20.3-66.3-24.8-44.5-72.8-65.8-103.3-105.3-4.7-6.1-12.4-14.6-14.5-22.2-0.6-2.4 2.4-3.3 3.7-1.5z"  fill="#fff" /><path d="M164.8-325.9c27.5 35.3 36 81.1 58.8 119.2 24.4 40.9 61 72.4 81 116.2 17.8 39.1 24.5 83.1 27 125.7 0.4 6.3 4.7 40.6-2.7 42.1-5 1-6.2-6.9-1.1-7.3 4.3-0.4 5.7 5.9 1.5 7.2-7.8 2.6-4.2-35.6-4.5-41-1.9-44.1-8.4-89.9-26.8-130.4-19.4-42.6-54.7-73.5-79-112.9-20.8-33.7-29.7-73-50.1-106.7-0.2-0.4-8.8-17.2-4.1-12.1z"  fill="#005bbb" /><path d="M173.8 35.6c0.7 5.6 7.1 41.4-0.1 41.4-4.6 0-4.2-7.2 0.4-6.7 4.5 0.5 3.4 7.6-1.1 6.7-9.7-2.1-4.8-64.8 0.8-41.4z"  fill="#fff" /><path d="M178.9-81c20.4 27.9 47.6 50.3 66 79.8 6.3 10.2 35.3 67.9 20.9 77.6-5.5 3.7-7.9-7.5-1.4-6.5 5.6 0.9 2.1 9.6-2.6 6.5-2.6-1.7 2.4-32.1-17-69.8-16.2-31.3-43.3-54.2-65-81.3-0.7-0.8-4.9-10.3-0.9-6.3z"  fill="#005bbb" /><path d="M187.4 25.3c1.6 6 13.6 50.7 5.9 51.1-3.8 0.2-4.6-5.4-1-6.4 4.3-1.1 5.7 5.7 1.3 6.3-6.3 1-5-14.5-5.4-17.9-4.3-30.7-5.1-44.5-0.8-33.1z"  fill="#fff" /><path d="M209.4-398.6c14.5 70.7 6.5 142.8 45.6 206.9 29.8 48.9 59.2 91.5 70.4 149 0.7 3.7 4.8 14.3 1.6 17.3-3.1 2.8-7.3-2.2-3.9-4.8 3.9-2.9 7.2 4.5 2.5 5.5-0.4 0.1-24-81-28.4-90.3-19.5-42.1-52.2-76.6-68.3-120.3-18.2-49.2-15.2-102.4-23.7-153.5-0.4-2.2 1.1-19.7 4.2-9.8z"  fill="#c2e1ff" /><path d="M201-257.9c24.9 64.1 74.4 104.2 102.6 164.1 19.7 41.9 26.6 89.7 28.5 135.7 0.2 5.2 3.9 36.3-4.2 35.3-4.3-0.5-4.3-7 0-7.4 4.3-0.4 5.7 5.9 1.6 7.3-8.3 2.7-4.1-30.2-4.3-35-1.1-39.8-6.3-80.9-19.6-118.5-20.8-58.7-70.6-97.6-97.3-152.8-3-6.1-5.7-12.3-8.3-18.6-0.7-1.7-3.1-17.8 1-10.1z"  fill="#005bbb" /><path d="M210.2-399.3c10.1 51.3 6.3 105 21.4 155.5 29.2 98 85.5 105 100.1 244.3 0.5 4.7 5.4 25.6-0.1 27.5-5 1.7-6-7-0.8-6.5 6.2 0.6 1.2 10.2-2.9 5.5-5-5.8-2.8-28.1-3.6-35.9-3-26.6-7.6-53.2-16.1-78.6-20.5-61.6-70.6-107.6-86.3-171.2-11.2-45.4-10.8-93.3-17.5-139.5-0.6-3.9 4.7-4.6 5.8-1.1z"  fill="#fff500" /><path d="M214.7-221c23.6 46.1 65 79.7 87.6 126.4 20.2 41.7 27.3 89.5 29.4 135.5 0.2 5.3 4 37-4.1 36-4.3-0.5-4.3-7 0.1-7.4 4.3-0.4 5.7 5.9 1.5 7.3-8.2 2.7-4.2-30.7-4.3-35.7-1.2-38.7-6.3-78.6-19.1-115.2-18.9-53.9-61.9-89.1-90.2-137.1-0.9-1.5-5.3-16.1-0.9-9.8z"  fill="#c2e1ff" /><path d="M224.1-398.7c2.8 49.8-3.4 100.6 9 149.4 21.2 83.6 80.1 117 95.9 225 1 6.7 9.5 48 2.8 50.4-5 1.7-6.1-7-0.8-6.5 6.2 0.6 1.2 10.2-2.9 5.5-3.8-4.4-12.7-91.5-17.6-107.5-19.5-64.4-71.6-112.6-86-178.7-4.1-18.9-13.2-125.3-6.9-138.9 1.6-3.4 5.9-1.9 6.5 1.3z"  fill="#fff" /><path d="M228.4-194c68.4 98.9 98.1 103.2 103.2 238.6 0.2 5.5 3.6 31.2-3.1 32.5-4.2 0.9-6.3-5.3-2.3-7 4.6-2.1 7.5 5.4 2.7 6.9-8.4 2.8-4.1-27.7-4.2-32.2-0.8-37.6-5.6-76.3-17.4-112.2-15.3-46.7-46.9-79.5-76.2-117.4-0.7-0.9-7.2-14-2.7-9.2z"  fill="#fff" /><path d="M236.9-398.3c-4.3 67.3-16.1 133 16.9 195.6 33.2 63.3 65.4 105.5 75.8 179.3 0.7 5.3 5 19.6 2.2 24.1-2.7 4.4-8.8-1.5-4.6-4.4 4.3-2.8 7.4 5.1 2.3 5.9-1.9 0.3-17.7-83.5-21-93.4-20.7-62.7-71.2-110.6-82.1-176.9-2.7-16.6-4.2-125 4.2-133.2 2.6-2.6 6.2-0.2 6.3 3z"  fill="#005bbb" /><path d="M245.1-304.5c-3.8 25.9-1.8 52.5 6.4 77.4 13 39.6 39.9 73 55.9 111.3 20.9 50.1 27.4 105.7 28.9 159.6 0.2 5.6 3.5 31.8-3.2 33.2-6.8 1.5-4.8-10.4 1.2-6.8 5 3.1-1.7 10.2-5 5.3-2.8-4.2-3-93.2-8.8-125.7-14-79.3-61.6-123.7-79.1-192.3-4.5-17.5-10.5-46.3-3.9-63.9 1.7-4.5 7.5-2.4 7.6 1.9z"  fill="#fff" /><path d="M251.4-397.6c-10.2 54.8-24.9 108.4-7.7 163.7 24.9 80.1 71.1 103.6 85.9 207.7 1.7 11.7 11.7 49.4 5 59.3-3 4.4-9.1-2.1-4.6-4.9 4.6-2.7 7.4 5.7 2.1 6.3-2.5 0.3-14.4-94.9-17.1-106-17.6-70.8-75-124.8-84.9-197.5-5.9-43.5 3.1-88 13.2-130.1 1.3-5.3 8.4-3.6 8.1 1.5z"  fill="#fff500" /><path d="M258 39.3c1.6 5.6 10.1 35.3 2.6 37.5-4.6 1.3-6.3-6-1.6-6.9 4.7-0.8 5.6 6.7 0.8 7-6.1 0.4-3.8-11.4-4-14.5-1.5-22.9-0.8-31 2.2-23.1z"  fill="#005bbb" /><path d="M266.2-276.6c-8.7 54.9 25.4 101.7 43.9 150.7 17.3 45.8 23.7 94.4 26.7 142.9 0.5 7.9 6.3 58.5-1.9 60.3-6.8 1.5-4.8-10.4 1.1-6.8 5 3.1-1.7 10.1-5 5.3-0.3-0.5-5.2-110.1-6.5-119.3-11.4-84.1-51.5-129-64.2-194.5-2.2-11.3-5.8-29.2-1.6-40.4 1.7-4.5 7.5-2.4 7.5 1.8z"  fill="#c2e1ff" /><path d="M273.8-319c-12.9 26.6-16.9 56.2-10.7 85.1 8.6 40.7 33.6 76 48 114.7 19.3 51.9 25.2 108.5 26.6 163.5 0.1 5.5 3.4 31.1-3.2 32.5-6.7 1.5-4.8-10.4 1.1-6.8 5 3-1.7 10.1-5 5.3-2.9-4.2-2.8-85.1-4.2-98.6-11.5-106.9-63.7-160.7-72.2-226.9-2.7-21-2.4-56 11.4-73.8 3.6-4.7 9.8-0.1 8.2 5z"  fill="#005bbb" /><path d="M274.7-397.1c-21.9 62.8-45.8 119.3-17.6 185 40 93.4 72.1 111.1 77.5 226 0.3 6.2-9.7 2.8-5.8-1.9 3.9-4.8 9.1 4.6 3 5.4-3.6 0.5-13-77.7-15.2-87.2-16.8-72.8-76.6-130.9-80.3-206.5-1.9-37.9 8.7-92.7 30.3-124.9 3.1-4.6 9.2-0.7 8.1 4.1z"  fill="#c2e1ff" /><path d="M285.6-185.9c31.4 71.8 49 139.2 52.3 217.8 0.3 6.6 4.6 43.8-2.7 45.5-6.8 1.5-4.8-10.4 1.1-6.8 5 3.1-1.7 10.1-5 5.2-3.6-5.4-3.8-102.3-7.4-127.2-6.6-45.2-21.5-86.2-40.2-127.7-1-2.1-1.8-13 1.9-6.8z"  fill="#c2e1ff" /><path d="M294.4-251.7c-5.7 43 15.5 85 26.2 125.7 12.4 47.1 16.9 95.7 19.2 144.2 0.4 7.8 5.8 57.1-2.3 58.9-5.7 1.3-5.7-8.5 0-7.2 6.7 1.5 0 11.4-3.8 5.7-3.4-5-2.8-96.5-4.2-111.5-6.7-76-34.2-128.9-42-190.7-2.4-19.3 6.3-40.2 6.9-25.1z"  fill="#fff500" /><path d="M300.7-217.4c3.4 29.7 14.2 58.1 21.4 87 11.8 48.4 16.2 98 18.4 147.7 0.4 7.8 5.7 57.8-2.3 59.6-5.7 1.3-5.8-8.5 0-7.3 6.7 1.5 0 11.4-3.9 5.7-3.6-5.3-3.1-102.9-4.5-118.9-5.1-57.9-24.5-110.8-34.3-167.5-0.7-4.2 3.1-14.4 5.2-6.3z"  fill="#005bbb" /><path d="M307.4-5.7c4.3 15.1 19.7 68.1 8.2 81.4-3.9 4.5-9.8-3.4-4.4-5.9 5.4-2.4 7.4 7.2 1.5 7.2-7.3-0.1-3-24.7-3.2-29.7-0.6-14.7-10.6-39.5-7.5-52.9 0.7-2.9 4.4-2.5 5.4-0.1z"  fill="#c2e1ff" /><path d="M314.3-395.9c-32 60.2-74.3 106-49.4 178.7 13.9 40.6 38.8 76.2 51.9 117.3 3.8 12.2 27.8 128.5 16.4 128.4-5.4 0-3.4-8.7 1.4-6.4 4.9 2.3-0.5 9.3-4 5.2-3.7-4.3-10.7-93.4-14.4-108.9-17.9-74.5-81.9-141.1-62.7-221.4 7.7-32.3 29.7-74.5 52.7-98.9 4.2-4.5 10.2 0.9 8.1 6z"  fill="#005bbb" /><path d="M307.9-396c-31 60.8-70.1 108.4-44.1 180.3 20.3 56.2 53.3 102.9 64 163.1 0.9 4.8 8.4 34.5 1.6 34.9-5.1 0.3-3.7-8 1-6.1 4.7 1.9 0 8.8-3.5 5.1-3-3.1-12.6-69.7-16.2-81.2-20.1-65.6-72.8-122.1-61.6-194.6 5.4-35 26.7-80.9 50.7-107.3 4.1-4.5 10.1 0.7 8.1 5.8z"  fill="#c2e1ff" /><path d="M325.2-395.9c-33.2 59.1-80.8 101.9-58.1 175.9 12.9 42 38.3 78.9 51 121.3 3.4 11.4 25.5 118.4 15 118.4-5.3 0-3.5-8.6 1.3-6.4 4.8 2.2-0.4 9.2-3.9 5.3-3.5-4-10.6-87.8-14-102.2-16.6-69.7-75-134.4-60.4-209 7.2-36.9 34.5-82.8 61-109.5 4.4-4.5 10.3 1.2 8.1 6.2z"  fill="#c2e1ff" /><path d=""  fill="#fff500" /><path d="M343.4-103.1c1.1 28.8 9.9 159.2 2.7 177.6-2.1 5.4-10.2 0.1-6-4 4.9-4.7 9.4 6.3 2.6 6.3-6.6 0.1-3.1-45.9-3.2-52.7-0.5-31.4-8.4-100.9-2.8-127.8 0.9-4.1 6.2-3.1 6.7 0.6z"  fill="#c2e1ff" /><path d="M350.8-188.7c-5.2 61.9-3 125.4-2.6 187.5 0.1 10.6 3.1 72.5-0.8 77.1-3.7 4.5-9.7-3.2-4.4-5.7 5.3-2.5 7.4 6.9 1.6 7-5.9 0.1-3.4-75.7-3.5-85.1-0.4-59.8-3.2-121.7 2.2-181.4 0.5-4.9 7.2-4.2 7.5 0.6z"  fill="#c2e1ff" /><path d="M343.8-395.9c-33.7 56.2-89.1 93.8-73.2 167.6 9.4 43.4 63.8 127.9 57.7 167.6-0.9 5.5-9.3 0.6-4.8-2.8 4.4-3.4 7.1 5.9 1.6 5.4-5.2-0.5-12.9-48.2-15.1-55.1-18.6-59.7-63.1-116.2-44.9-181.7 9.4-33.7 45.2-83.4 70.7-107.6 4.6-4.4 10.5 1.5 8 6.6z"  fill="#fff" /><path d="M365.2-194.3c-12.3 67.3-13.8 138.5-14.1 206.8 0 7.7 3 65.6-4.4 64.9-5.8-0.6-2.8-9.7 2.2-6.8 5 2.9-1.5 10-4.8 5.2-7.1-10.3 0-50.8 0-64 0.1-68.1 0.3-140.4 13.1-207.5 1-5.3 8.2-3.8 8 1.4z"  fill="#fff" /><path d=""  fill="#005bbb" /><path d="M379.7-277.7c-50.2 64.2-33.2 208-32.2 288.8 0.1 7.9 3.6 67.1-4 66.3-5-0.5-3.8-8.3 1.1-7.3 4.2 0.9 3.5 7.2-0.7 7.3-6.9 0.1-3-40.3-3.1-46.7-0.7-72.4-10.7-186 2.7-253.7 3.8-19.2 12.5-49.2 28.3-62.2 5.2-4.3 10.9 2.3 7.9 7.5z"  fill="#005bbb" /><path d="M386.5-151c-14 55.3-25 110.4-27 167.6-0.3 7.4 2 61.3-5 60.7-4.9-0.4-3.8-8.1 1-7.2 4.1 0.8 3.6 7.1-0.6 7.2-7.3 0.2-3.1-41.2-3-47.4 0.5-30.2 10.4-165.9 27.3-184.8 3.2-3.5 7.9-0.2 7.3 3.9z"  fill="#c2e1ff" /><path d="M375.7-395.3c-35.2 56.5-103.9 88.4-93.7 165.3 4.5 33.7 64.1 168 51 190.1-2.6 4.4-8.7-1.4-4.5-4.2 4.9-3.4 7.2 6.7 1.3 5.8-5.4-0.8-11.3-56.8-13.2-64.8-14.6-60.6-58.6-123.5-36.2-187.2 11.7-33.3 37.8-57 61.7-81.7 5.3-5.5 22.9-33.2 30.4-31.4 3.9 0.9 4.8 5 3.2 8.1z"  fill="#005bbb" /><path d="M400.8-84.5c-15.1 42-24.6 84.6-26.2 129.3-0.2 5.4 2.7 30.6-3 32.2-5.4 1.5-5.9-7.8-0.3-6.9 4.7 0.8 3.1 8.2-1.5 6.9-6.3-1.7-2.5-27-2.4-32.4 1.1-44.8 8.4-90.2 24.8-132.1 2.2-5.6 9.8-2.6 8.6 3z"  fill="#fff" /><path d="M407.8-127.5c-17.5 52.2-34.1 102.6-37 158-0.4 7.5 3.1 42-2.6 45.8-4.7 3.1-8.1-5.6-2.5-6.4 5.6-0.9 5 8.5-0.4 6.9-6.2-1.8-2.3-27.5-2.3-33 1.3-59.3 15.3-113.3 34.5-169.1 2-5.9 12.5-12.5 10.3-2.2z"  fill="#fff500" /><path d="M414.8-137.6c-17.1 53.5-37.4 104-41.6 160.6-0.6 8.4 3.2 48.9-3.1 53.2-4.7 3.1-8.1-5.6-2.5-6.5 5.6-0.9 5 8.4-0.4 6.9-6.2-1.8-2.4-25.3-2.3-30.3 1.3-63.2 18.3-119.1 38.6-178.3 1.7-4.9 13.9-18.4 11.3-5.6z"  fill="#005bbb" /><path d="M421.2 51c-0.2 4.5 3.2 23.5-1.6 25.3-4.2 1.5-6.2-5.1-2-6.2 5-1.3 5.3 7.3 0.2 6.4-13.9-2.6 1.9-38.9 3.4-25.5z"  fill="#005bbb" /><path d="M429-348.3c-28.5 33.9-68.7 60.4-84.8 103.3-21.3 56.7-2.6 130.6-0.6 189.8 0.4 13.2 5.3 131.2-1.9 130.4-11.4-1.1 6.8-13.8 3.9-2.7-2.2 8.4-7.2-1.9-7-5.6 3.2-77.4-23.5-277.9 4.8-333.6 13.8-27.2 53-72.3 78-90 5.7-4 11 3.3 7.6 8.4z"  fill="#c2e1ff" /><path d=""  fill="#fff" /><path d="M443.2-361.8c-47 67.5-105.9 88.8-103.8 182.6 1.3 57.4 5.1 114.6 6.2 172.1 0.3 13 8 54.8 0.2 64.8-4.1 5.2-9.9-4.7-3.3-5.7 5.6-0.9 5 8.5-0.5 7-8.2-2.4-3.9-93.8-4.1-105.8-1.4-63.9-19.8-158 8.3-216 11.5-23.7 68.4-89 89.1-106.4 5.1-4.3 10.7 2.2 7.9 7.4z"  fill="#fff" /><path d="M450-236.1c-7.8 32.5-11.5 65.9-20.7 98.2-13.9 48.6-37 93.9-44.8 144.2-1.6 10.1-2.1 65.9-4.6 69.4-3.9 5.2-9.8-4.4-3.4-5.5 5.5-1 5.1 8.2-0.3 6.8-5.9-1.6-2.7-19.8-2.7-24.2 0.7-61.3 19.8-114 40-171 11.2-31.7 17.8-99.2 28.6-120.7 2.3-4.6 8.4-1.7 7.9 2.8z"  fill="#c2e1ff" /><path d="M457.2-41.7c-9.4 31.7-20.9 62.7-21.4 96.2-0.1 4.3 3.4 19.8-1.3 21.6-4.8 1.8-6-6.5-1-6.2 4.4 0.3 3.5 7.1-0.8 6.4-18.3-3.2 9.3-109.7 16.4-121.6 2.8-4.6 8.9-1.2 8.1 3.6z"  fill="#fff" /><path d="M464-92.3c-7.2 43.8-28.2 84.2-33.3 128.4-0.8 6.8 2.7 36.1-1.7 39.7-4 3.3-7.8-4.3-2.8-5.6 5-1.3 5.3 7.2 0.2 6.3-21.8-3.9 22.7-155.2 29.9-171.2 2-4.5 8-2 7.7 2.4z"  fill="#fff" /><path d="M471.2-9c-7.6 30.5-6.9 78.7-10.1 84.1-3.1 5.1-9.3-3.2-3.6-4.8 4.9-1.3 5.3 7.1 0.3 6.3-12.8-2.2 0.6-79.3 5.5-88.6 2.4-4.6 8.5-1.6 7.9 3z"  fill="#fff" /><path d="M478.5-311.1c-24.3 55.8-28.8 112.8-44 170.8-12.2 46.8-35.1 90-44.6 137.7-2.3 11.8-3.8 74.7-6.5 78.4-3.2 4.4-9.3-2.4-4.5-5.1 5.6-3.1 7.1 8 0.8 6.4-6.1-1.6-2.8-22.3-2.7-26.9 0.9-57.6 19.7-107.5 38.8-160.9 19.2-53.4 21-110.2 38.5-164 3.5-10.8 7.6-21.4 11.9-31.9 2.4-5.7 16-17.2 12.3-4.5z"  fill="#005bbb" /><path d="M485.2-12.2c-3.9 19.3-8.4 38.5-9.7 58.2-0.4 6.7 3 23.7-0.3 29-3.2 5.1-9.4-3.3-3.6-4.9 5-1.3 5.3 7.2 0.2 6.3-12.4-2.3 1.1-81.7 5.6-91.2 2.2-4.6 8.2-1.9 7.8 2.6z"  fill="#c2e1ff" /><path d=""  fill="#005bbb" /><path d="M499.3 6.6c-2.4 15-4.8 30-5.6 45.3-0.2 4.8 2.5 21-1.3 23.9-4.2 3.2-7.9-4.7-2.7-5.9 5.1-1.2 5.2 7.6 0 6.5-5.4-1.1-3.3-14.2-3.3-17.9-0.2-15.9-1.1-39.2 5.2-54.1 1.9-4.5 7.8-2.2 7.7 2.2z"  fill="#005bbb" /><path d="M498.8-396.7c-17.2 51.4-49.7 94.3-72.2 143.1-22.7 49.2-35.1 104.7-48.1 157.2-3.5 14.2-13.3 99.2-16.8 103.2-4.5 5.2-10-5.4-3.2-6.1 5.9-0.6 4.7 9.1-0.8 7.2-12.4-4.3 10.2-96.8 13.2-109 14.7-60.7 29.5-124.9 58.5-180.4 18.2-34.8 40.5-67.2 55.3-103.7 10.8-26.7 15.9-19.6 14.1-11.5z"  fill="#fff500" /><path d="M497.6-397c-17.2 51.5-50.3 94-73.5 142.4-17.9 37.4-27.2 78-37.9 118-3.6 13.3-18.6 98.8-22.1 102.5-5.1 5.2-10.2-6.3-3-6.7 6.2-0.2 4.4 9.9-1.3 7.5-11.2-4.7 14-90 17.1-101.6 13.9-52.9 26.8-105.4 53.7-153.6 18-32.2 38.9-62.8 52.9-97 10-24.3 15.5-17.9 14.1-11.5z"  fill="#fff" /><path d="M519.7-52.3c1.6 13-1.3 129.2-9.4 128.9-4.7-0.2-4-7.5 0.6-6.9 4.6 0.7 3.2 7.9-1.4 6.8-7.6-2-1.4-39.5-0.7-46 2.9-27.1 0.7-56.5 4.5-83 0.6-3.9 5.6-3.3 6.4 0.2z"  fill="#fff500" /><path d=""  fill="#c2e1ff" /><path d="M534.4 35.4c-0.7 6-0.6 42-6.9 41.5-4.9-0.4-3.8-8 0.9-7.1 4.8 0.9 3 8.4-1.7 7-5.7-1.7-2.5-39.2 0.7-43.9 2.4-3.5 7-1.1 7 2.5z"  fill="#fff" /><path d=""  fill="#fff" /><path d=""  fill="#c2e1ff" /><path d="M555.4 3.1c-0.1 8.6-3 75.1-10.3 74.2-5-0.6-3.6-8.5 1.3-7.3 4.9 1.2 2.7 8.8-2 7.1-6.3-2.2 1.7-66.9 3.9-75.1 1.2-4.2 6.7-2.8 7.1 1.1z"  fill="#fff500" /><path d="M562.7 61.4c-0.4 3.6 0.8 16.4-5.7 15.5-5.1-0.8-3.5-8.8 1.5-7.5 5 1.3 2.5 9.1-2.3 7.2-12.4-4.7 6.3-28.3 6.5-15.2z"  fill="#fff" /><path d="M569.6-294.7c-3.9 43.3 1.6 86.1 16.8 126.8 2.8 7.5 16.1 27.9 14.5 35.3-0.8 3.4-6 1-4-1.8 2.5-3.3 6.2 2.9 2.2 3.5-12 2-40.9-97.2-37.3-158.9 0.3-5.3 7.4-14.3 7.8-4.9z"  fill="#fff500" /><path d="M576-22.5c2.6 14.4 4.3 89.4-4.6 98.6-4.3 4.4-9.9-4.1-4.2-6.3 5.7-2.2 7.3 7.9 1.2 7.4-7.9-0.5 0.9-40.5 1.6-46.9 0.2-2.2 0-74.2 6-52.8z"  fill="#c2e1ff" /><path d="M583.5 7c0.1 8.4-2.1 71.8-10.8 70.3-5.2-0.9-3.3-9.1 1.8-7.6 5.1 1.5 2.3 9.4-2.6 7.3-4.3-1.8 1.6-65.5 5-71.7 1.9-3.4 6.3-1.6 6.6 1.7z"  fill="#fff" /><path d="M562.1-397.3c-20.8 68.9-33.8 138.6-8.7 208.2 9.6 26.4 23.3 50.9 37.1 75.3 1.3 2.2 13.7 20 8.2 20.6-2.8 0.3-3-4.1-0.3-4.1 2.4 0 2.8 3.5 0.5 4.1-3.7 0.8-7.3-10.4-8.6-12.8-34.4-62.2-64.6-122.1-57.6-195.3 3.1-33 10.5-67 20.9-98.5 1.8-5.5 9.4-3 8.5 2.5z"  fill="#fff500" /><path d="M598.1-316.3c-6.7 38-10.5 76.8-4.3 115.1 1.2 7.6 9.8 27.4 7.3 34.1-1.7 4.6-8.1-1.2-3.6-3.3 3.8-1.8 5.4 5 1.2 5-5.6 0.1-8.5-23.8-9.5-28.1-8.6-40.4-7.2-83.7 0.9-124.2 1.1-5.2 8.2-3.7 8 1.4z"  fill="#c2e1ff" /><path d=""  fill="#c2e1ff" /><path d=""  fill="#fff500" /><path d=""  fill="#c2e1ff" /><path d=""  fill="#005bbb" /><path d=""  fill="#005bbb" /><path d=""  fill="#fff" /><path d=""  fill="#c2e1ff" /><path d=""  fill="#c2e1ff" /><path d=""  fill="#fff" /><path d=""  fill="#c2e1ff" /><path d=""  fill="#fff" /><path d=""  fill="#fff500" /><path d=""  fill="#fff500" /><path d=""  fill="#c2e1ff" /></svg>