<svg width="1200" height="675" viewBox="-500 -500 1200 675" xmlns="http://www.w3.org/2000/svg"><path d="M-500-500h1200v675h-1200z" fill="#000"/><path d=""  fill="#c2e1ff" /><path d=""  fill="#fff" /><path d=""  fill="#fff" /><path d=""  fill="#005bbb" /><path d=""  fill="#005bbb" /><path d=""  fill="#fff" /><path d=""  fill="#fff" /><path d=""  fill="#fff" /><path d=""  fill="#fff500" /><path d=""  fill="#fff500" /><path d=""  fill="#fff" /><path d=""  fill="#c2e1ff" /><path d=""  fill="#fff" /><path d=""  fill="#005bbb" /><path d="M-395.5-84.5c-6.4 7.3-9.3-8.5-1.6-5.3 8.7 3.6-7.1 11.7-5 2.5 1.2-5.2 8.7-3.8 7.4 1.7z"  fill="#005bbb" /><path d="M-386.7-174.1c-1.1 5.7-4.5 36.4-13.7 32.8-5.9-2.3-1.7-11.4 3.9-8.5 5.6 2.9 0.5 11.5-4.8 8-8.9-6 16.7-56.6 14.6-32.3z"  fill="#fff" /><path d="M-379.5-234.2c-2.4 11.6-10.7 74.5-16.5 78.9-5.7 4.3-10.7-6.5-3.7-8 7-1.5 7 10.4 0 8.8-8.3-1.9 1.5-24.3 2.5-29.3 2.2-10.8 2.4-48 11-54.6 3.3-2.5 7 0.6 6.7 4.2z"  fill="#005bbb" /><path d="M-372 1.4c-5.6 16.3-9.6 33.2-10.3 50.4-0.2 4.7 3.1 20.7-0.3 23.7-3.8 3.4-7.9-4-3.1-5.5 4.9-1.5 5.5 6.9 0.5 6.3-14.2-2 1.4-68.9 4.4-77.7 2-5.8 9.9-2.9 8.8 2.8z"  fill="#c2e1ff" /><path d=""  fill="#fff" /><path d="M-357.3-91.1c-3.7 9.2-34.3 74.8-44.4 67.7-6-4.3 1.3-13.3 6.7-8.4 5.5 4.9-2.7 13.1-7.6 7.6-3.6-4 31.2-67.4 37.7-72.6 4.2-3.4 8.9 1.3 7.6 5.7z"  fill="#fff" /><path d=""  fill="#c2e1ff" /><path d=""  fill="#fff" /><path d="M-336.3-201c-1.2 70.9-9.5 111.9-44.3 174.5-3.1 5.5-11.4 28.8-19 27.3-9.3-1.9-0.2-15.7 5.3-7.9 4.6 6.7-7.8 11.8-9.3 3.8-1.4-7.8 39.7-76.1 45.5-90.8 18.3-46.5 6.1-75.1 14.5-107.8 1.1-4.4 6.8-3 7.3 0.9z"  fill="#c2e1ff" /><path d="M-328.5-94.9c-9.5 40.9-30.8 79-34.7 121.2-0.6 6.6 3 49.8 0.9 49.6-3.1-0.3-3.2-5 0-5.4 3.7-0.4 4.1 5.4 0.3 5.4-14.1 0.2-7.5-65.7-5.8-74.1 6.6-33.2 21.4-64 30.2-96.6 1.6-6 10.1-7.7 9.1-0.1z"  fill="#fff" /><path d="M-321.9-172.1c2.5 73.3-25.7 116-37.6 183.3-2.9 16.2-3.4 32.8-0.3 49.1 0.5 2.6 6.5 16 0.1 15.5-4.2-0.3-2.2-7.1 1.5-5 4.3 2.4-2.4 7.9-3.8 3.1-18-57.3 7.5-107.2 23.2-161.4 5.1-17.5 7.7-81.1 10.2-86.1 1.7-3.5 6.2-1.9 6.7 1.5z"  fill="#fff" /><path d="M-314-61.2c-6.1 32.3-11.5 65.1-1.5 97.2 1.6 5 17.5 39 16 39.3-2.5 0.5-3-3.5-0.5-3.7 2.2-0.2 2.8 3 0.7 3.7-11.4 3.4-47.4-84.6-22.7-139 2.1-4.7 8.3-2.1 8 2.5z"  fill="#fff500" /><path d="M-307.3-204.1c0.2 29 4.2 57.8 2.7 86.8-2.2 43.2-18.1 86.4-12.1 129.9 2 14.3 24.3 55.4 23.8 61.1-0.3 3.4-5.6 0.8-3.1-1.5 2.5-2.3 4.6 3.3 1.2 3.2-10.3-0.3-30.2-70.7-30.4-85.8-0.6-35.1 9.8-69.2 12.7-104 2.4-28.5-7.9-63.1-1.9-90.4 0.9-4.3 6.5-3.2 7.1 0.7z"  fill="#005bbb" /><path d="M-299.8-110.8c-2.1 43.8-16 88.3-4.2 131.8 4.1 15.1 10.9 29.1 19 42.4 0.8 1.4 9.2 10.8 4.5 11.7-2.1 0.4-3-2.6-1.1-3.4 2.3-1 3.6 2.6 1.3 3.4-3.3 1.1-6.7-7.8-7.9-9.7-36.2-57-26.2-113.1-19.2-176.6 0.5-5 7.3-4.3 7.6 0.4z"  fill="#005bbb" /><path d="M-292.5-71.7c-2.6 38.1-2.4 74.4 15 109.3 2.2 4.5 22.2 37.4 19.6 37.9-2.5 0.5-3-3.5-0.5-3.7 2.5-0.2 2.6 3.8 0.1 3.7-3.4-0.1-7.5-10.1-9.1-12.6-16.2-25.3-29.2-51.6-32.7-81.8-1.8-15.6-4.7-39 0.1-54.3 1.4-4.5 7.3-2.7 7.5 1.5z"  fill="#fff500" /><path d=""  fill="#fff500" /><path d="M-280.3 69c0.5 0.7 4.6 5.5 1.1 6.2-2.1 0.4-3-2.6-1.1-3.5 2.3-1 3.6 2.6 1.2 3.4-6 1.9-5-10.6-1.2-6.1z"  fill="#fff500" /><path d="M-272.7 39c2.2 4.2 22.2 34.5 19.4 36.1-2.2 1.2-4-2.4-1.6-3.4 2.3-1 3.7 2.8 1.3 3.5-3.2 1-6.3-7.4-7.5-9.2-4.3-6.7-8.6-13.4-12.5-20.2-1.1-1.9-3-12.3 0.9-6.8z"  fill="#fff" /><path d="M-263.9-92.3c3.7 44.6 12.3 83.9 35.6 122.6 2.9 4.9 28.7 43.5 24 45.5-3.3 1.4-4.4-4.5-0.8-4.3 3.1 0.1 2.6 4.9-0.4 4.4-3.9-0.6-8.3-14.3-10.3-17.7-17.6-30.8-37.7-59.1-46.6-93.9-4.1-16.2-10.9-40.1-8.2-56.8 0.6-4.1 5.9-3.3 6.7 0.2z"  fill="#005bbb" /><path d="M-255.6-254.7c-18.9 56.2 0.9 191.1 26.6 244.5 5.7 11.8 48.8 78.8 47.4 84-1 3.7-6.7 0.8-4.2-2.2 2.9-3.5 6.7 3.4 2.2 4-3.9 0.5-15.2-27.5-17.8-31.7-14-23.3-29.7-45.4-40-70.8-19.8-48.8-34.4-152.3-28.2-204.5 3-25.7 16.6-38.6 14-23.3z"  fill="#fff500" /><path d="M-249.6-150.5c7.9 56.1 18.5 108.9 49.3 157.4 7.8 12.2 42.4 52.6 37.6 67.5-1.3 4-7.2 0.4-4.4-2.6 2.8-3 6.8 2.6 2.9 4.2-2.8 1.1-19.7-36.6-22.8-41.6-40.7-66.2-56.9-104.1-68.5-181.6-0.7-4.6 4.4-9.1 5.9-3.3z"  fill="#fff" /><path d="M-260.1-396c-26.4 61-77.3 100.8-84.9 170.7-3.3 30.3-1 61.1-6.6 91.2-2.1 11.6-22.9 85.4-38.8 80.5-8.2-2.5-1.2-15 5.2-9.2 6.4 5.7-5.2 14.1-8.6 6.2-1.8-4.2 27.5-53.9 32.3-72.7 13.4-51.9 2-106.2 22.3-157.1 11.5-28.9 30.6-53.1 48.4-78.2 8.1-11.4 13.7-26 22.3-36.7 3.8-4.7 10.1 0.1 8.4 5.3z"  fill="#c2e1ff" /><path d="M-233.6-345.1c-18.5 29.9-42 56.7-52.5 90.9-4.2 13.7-6.2 27.9-6.6 42.2-0.8 30.3 4.4 60.5 5.2 90.8 0.9 34.6-4.6 69.6-0.2 104.1 3.4 27 14.5 51 28.7 73.9 1.9 3.1 11.5 14.4 10.1 17.6-1.2 2.8-5.2-0.2-2.9-2.2 2.6-2.3 4.7 3.5 1.1 3.3-4.5-0.2-14.4-21.3-16.8-25.3-35.1-57.9-25.5-113.7-27.3-178-1.2-46.5-12.1-93.5 3.1-138.8 9.1-27.4 28.6-65.2 49.8-85.3 4.8-4.5 10.8 1.6 8.3 6.8z"  fill="#005bbb" /><path d="M-227.6-180.3c6.3 82.8 41.4 132.9 82.4 201.1 5.8 9.6 27.6 42.2 22.3 53.6-2 4.3-8.2-0.4-4.6-3.5 3.6-3.1 7.3 3.8 2.8 5.1-2 0.6-20.4-47-24-53.2-27.5-48.2-59.9-88.8-74.5-143.5-4.5-17-13.6-42.1-11-59.8 0.6-4.1 5.9-3.4 6.6 0.2z"  fill="#005bbb" /><path d="M-222 20c8.5 14.2 29.5 36.6 31 53.4 0.4 4.4-6.9 2.2-4.2-1.3 2.3-2.9 6.3 1.9 3 3.6-4.4 2.2-10.9-17.1-12.6-20.2-1.1-2-26.2-46.9-17.2-35.5z"  fill="#005bbb" /><path d=""  fill="#c2e1ff" /><path d=""  fill="#005bbb" /><path d="M-197.4-358.4c-13.2 39.2-42 70.8-53.4 110.8-16.2 56.6-0.8 129.1 14 184.9 10.3 39 32.2 70.3 52.8 104.3 1.6 2.7 16.6 25 9.9 25.3-11.4 0.5 11.1-5.4 1-0.3-4.2 2.1-12.3-19.7-14.3-23-14.2-24.4-31.3-47-43-72.8-24.2-53.2-40.6-149.2-31.7-207.1 2.9-18.9 53.3-126.9 59.1-128.3 4-1 6.4 2.7 5.6 6.2z"  fill="#fff500" /><path d=""  fill="#c2e1ff" /><path d=""  fill="#005bbb" /><path d="M-175.6-287.7c-22.5 75.2-24.2 140 14.6 210.7 12.6 22.9 81.8 131.2 69.6 152.1-2.6 4.5-9-1.4-4.7-4.3 4.3-3 7.6 5.1 2.4 5.9-3.2 0.5-15.2-51-18-57.9-27.7-68-79.3-120.3-88.5-196.1-4.6-38.5 3.1-76.7 15.8-113 2-5.7 9.7-3 8.8 2.6z"  fill="#fff" /><path d="M-171.2 14c9.5 14.4 31.3 41.3 30.4 59.5-0.2 4.5-7.4 2.5-5.3-1.5 2.4-4.6 8.3 2.3 3.4 4-5.1 1.7-10.3-22-12.2-26.1-0.8-1.8-25.2-46.6-16.3-35.9z"  fill="#fff" /><path d="M-163.7-73c7.8 13.9 90 140 67.9 149.3-4.8 2-6.3-6.4-1.2-6.2 6.1 0.2 1.8 9.8-2.4 5.5-2.5-2.6-12.3-48.4-16.2-57.3-13.8-31.8-34.8-59.2-51.6-89.3-1.3-2.3 2-4 3.5-2z"  fill="#fff" /><path d="M-145.6-398.9c11.4 43.2 25.4 85.8 33.2 129.8 7 39.9 8.8 80.5 16.4 120.3 8.9 46.5 23.1 91.7 29.7 138.8 0.5 3.8 4.5 14-0.4 16-4.1 1.7-6.4-5-2.2-6.2 4.3-1.2 5.8 5.6 1.5 6.4-5.3 0.9-42.8-206.1-45.1-227.5-6.5-59.8-22.1-116.1-37.9-173.9-1.1-4 2.7-8.9 4.8-3.7z"  fill="#c2e1ff" /><path d="M-147.9-377.6c17.3 89.7-6.6 181.8 27.8 268.2 10.6 26.6 65.4 157 50.9 178.1-3.2 4.6-9.5-2.2-4.6-5 4.8-2.8 7.7 5.9 2.1 6.5-0.6 0.1-19-92.1-22.6-102.8-16.5-49.3-43.8-94.7-51.1-146.8-8.7-61.4 4-123.2-6.4-184.9-0.3-2 0.4-24.2 3.9-13.3z"  fill="#005bbb" /><path d="M-141.5-111c15.5 35.9 36.6 69 49.9 106 3.3 9.2 25.9 78 14.5 81.8-5.3 1.8-6.2-7.4-0.7-6.8 6.5 0.7 1.1 10.7-3.1 5.7-2.6-3.1-10.1-61.7-13.6-72.6-12.4-39.7-34.9-74.2-51.3-112.1-1.2-2.8 2.8-4.4 4.3-2z"  fill="#005bbb" /><path d="M-128.2-399.7c26.8 60.2 84.5 99.9 109.1 160.3 24.5 60-1.6 120.7-13.7 180.1-1.7 8.5-6.2 64.5-12.7 65.6-7.2 1.2-4.6-11.2 1.5-7.1 6.1 4.1-4.4 11.3-6 4.1-9.5-41.5 42.2-152.8 32.7-215.3-10.5-69.5-75.8-112.6-107.9-171.7-1.3-2.4-7.8-23.7-3-16z"  fill="#c2e1ff" /><path d=""  fill="#c2e1ff" /><path d="M-118.9-156.7c13.4 64 43.2 122 51.4 187.6 0.8 6.6 7.7 44.1 0.4 46.2-6.5 1.8-5.3-9.9 0.7-6.8 5.1 2.7-1.1 10-4.6 5.5-2.8-3.7-7.3-74.7-9.9-87.1-10.2-49.4-33.4-94.9-43.8-144-0.8-3.8 4.5-4.8 5.8-1.4z"  fill="#fff500" /><path d="M-60-399c22.5 18.2 48.2 32 69.8 51.3 48.9 43.7 67.2 116.5 49.4 179.1-3.9 13.7-16.9 57.4-31.6 62.8-9.5 3.5-9-14.1 0.3-10.1 10.9 4.7-6.6 17.3-7.5 5.4-0.9-11.6 20.8-36.7 25.6-48.4 14.4-34.9 15.8-73.8 6.5-110.2-14.9-58.7-56.9-88.1-103.6-121.3-1-0.7-12-10.4-8.9-8.6z"  fill="#005bbb" /><path d="M-105-82.9c17.6 42.8 31.7 86.3 36.4 132.6 0.5 4.7 5.1 25.4-1.1 27.2-5.5 1.6-6.1-7.9-0.5-7.1 6.6 1 0.8 11.1-3.3 5.8-2.5-3.2-5-52.7-6.7-61.8-3.3-17.9-30.2-87.9-29.5-96 0.3-2.7 3.5-2.7 4.7-0.7z"  fill="#c2e1ff" /><path d="M-97.6-90.9c16 45.8 28.6 92 32.5 140.6 0.4 4.8 4.6 25.5-1.7 27.2-5.6 1.6-6.1-8.1-0.3-7.1 6.7 1.1 0.6 11.2-3.5 5.8-2.5-3.3-3.9-53-5.3-62-2.7-18.5-27.9-95.8-26.7-104 0.4-2.8 3.9-2.7 5-0.5z"  fill="#fff500" /><path d="M-90.8-297c13.9 26.9 26.7 54.3 33.3 84 15.1 68.5 7.6 203.1 4.9 277.2-0.1 2.7 1.1 15.8-5.8 12.5-4-1.9-1.9-8.2 2.4-7.2 4.3 1 3.6 7.6-0.8 7.6-5.7 0-1-210.4-1.4-232.4-0.9-47.1-11.3-89.6-32.4-131.7-0.5-1-4.9-16.8-0.2-10z"  fill="#fff" /><path d="M-82.3-192.4c9.5 68.7 20.3 137.6 24.1 206.9 0.7 12.2 8.2 51.6 0.4 61-3.8 4.6-9.9-3.2-4.5-5.7 5.4-2.6 7.7 7 1.7 7.1-4.4 0.1-6.3-91.3-7.2-102.4-4.5-53.8-13.2-107.2-20.1-160.6-0.5-4 3.5-14.7 5.6-6.3z"  fill="#005bbb" /><path d="M-76.9-312c25 32.2 50.1 64.4 57 105.7 11.2 67.4-18.5 140.5-24.2 207.9-0.9 10.3-1.9 70.1-5.6 74.2-4.1 4.6-10.1-3.7-4.4-6.2 5.7-2.4 7.6 7.6 1.4 7.5-16.5-0.4 26.6-232.8 27.5-256 1.8-48.3-19.9-87-48.7-124.1-0.4-0.5-7.6-13.6-3-9z"  fill="#fff" /><path d="M-70.3-397.7c34.7 30.4 78.3 48.7 104.4 88.3 65.3 99.2 7.4 167.3-38.1 252.7-3.6 6.7-18.1 49.1-24.6 46.6-5-1.9-3-9.6 2.2-8.8 5.3 0.8 5 8.7-0.3 9.1-11.7 0.8 3.2-28.8 5-32.9 27.6-65.9 81.9-115.5 75.3-192.3-6.5-75.8-56.2-110.4-112.6-151.7-1.6-1.2-14.4-13.1-11.3-11z"  fill="#fff500" /><path d="M-60.4-189.4c8.1 61.7 6.1 125.8 6.8 188 0.1 10.7 2.9 72.4-1.2 77.3-3.9 4.6-10-3.4-4.5-6 5.5-2.5 7.7 7.3 1.6 7.3-5.5 0-3.3-94.2-3.4-105.5-0.8-53.5-1.8-107-5.8-160.3-0.3-4.3 5.5-4.7 6.5-0.8z"  fill="#005bbb" /><path d="M-52.7-67c0.1 28 7.5 121-0.9 141.8-2.6 6.6-11.6-1.9-5.2-4.9 5.5-2.5 7.7 7.3 1.6 7.3-5.3 0-2.8-127.5-2.8-141.9 0-5.3 6.4-8.9 7.3-2.3z"  fill="#fff" /><path d="M-48.7-377.5c75.1 52.8 129.9 107 102.9 208-11.3 42.2-39.8 75.9-59.6 114.1-4.8 9.2-24.5 75.9-29.6 76.3-7.9 0.5-3.7-12.6 2.4-7.5 6.1 5-6 11.7-6.9 3.8-7.1-57 89.6-152.6 92-231.3 1.4-45.8-15.4-91.3-48.9-123-15.5-14.7-33.6-26.2-51.1-38.1-0.7-0.5-2-2.7-1.2-2.3z"  fill="#c2e1ff" /><path d="M-39.2-226.7c19.5 61.2-0.1 128.7-5.3 190.8-2 23.7 1.1 93.6-6.1 110.9-2.4 5.7-10.7-0.2-6.2-4.4 5.3-4.9 9.7 6.9 2.6 6.7-9.9-0.2 7.7-169.9 9.9-187.8 3.7-28.6 8-57.6 5.1-86.5-1-9.5-5-19.5-5.4-28.9-0.1-3.3 4.2-3.6 5.4-0.8z"  fill="#005bbb" /><path d="M-30.4 41.8c-1.1 5.7-2.6 37.5-10.4 35.9-5.5-1.1-3.2-9.7 2.1-8 5.3 1.7 2.1 10-2.9 7.7-5.6-2.5 0.5-34.8 3.7-39 2.9-3.7 7.7-0.7 7.5 3.4z"  fill="#005bbb" /><path d="M-23 52c-1.3 5.1-2.2 25.2-8.8 25.7-5.8 0.4-5.9-8.7-0.2-8.5 6.7 0.2 4 11.1-2 8-12.1-6.1 13.4-46.6 11-25.2z"  fill="#fff500" /><path d=""  fill="#fff" /><path d=""  fill="#005bbb" /><path d="M-1.4-169.4c-6.7 59.8-32.7 115.9-39.6 176.2-1 8.5-3 71.6-10.2 70.6-5.3-0.8-3.6-9 1.5-7.7 4.4 1.1 3.4 7.9-1.1 7.7-7.7-0.3-0.1-50.7 0.6-57.9 5.7-64.1 29.2-122 39.9-184.7 0.9-5.1 9.1-14.2 8.9-4.2z"  fill="#fff500" /><path d="M6.4-96.6c-23.2 43.9-38.3 88.3-44.6 137.6-0.8 6.5-0.2 32.8-5.9 35.8-5.6 2.9-8.4-7.3-2.1-7.6 6.4-0.3 4.5 10.1-1.3 7.7-6.6-2.7 0.6-30.8 1.3-36.9 6-49.3 18.5-98 43.5-141.4 3.4-5.9 11.4-1.3 9.1 4.8z"  fill="#c2e1ff" /><path d="M13.6-128c-21.6 51.2-43.9 98-51.5 153.7-1.5 10.6 0.7 42.9-6.5 50.3-5.1 5.4-10.5-6.3-3.1-6.7 6.3-0.3 4.6 10-1.2 7.7-6.5-2.6 0.2-29.7 0.8-35.5 6.5-61 25.3-112.9 50.3-168.5 2.8-6.2 14.4-11.6 11.2-1z"  fill="#fff500" /><path d="M17.2-386.8c61.1 59 82.9 161.4 47.5 239.6-20.5 45.3-58.3 79.9-78.3 125.6-4.9 11.2-8.5 43.6-16.9 50.8-5.2 4.4-10.5-5.5-3.9-7.4 6.6-1.8 7.2 9.4 0.5 8.4-9.2-1.5 2.8-30.9 4.4-36.1 22.2-70.4 87.7-118.6 100.4-192.3 8.1-46.9 0.1-100.3-22.2-142.4-8.8-16.7-20.4-30.8-33.2-44.6-1.1-1.1 0.5-2.6 1.7-1.6z"  fill="#c2e1ff" /><path d="M28.2-97.9c-28.2 41.1-50.8 81.2-60.1 130.7-1.4 7.5-2 40.9-8.6 44.1-5.8 2.9-8.4-7.6-1.9-7.7 6.5-0.2 4.4 10.4-1.5 7.8-7.8-3.4 4.6-51.2 6.3-59.1 8.2-39 26.6-95.6 57.6-123 5.1-4.5 11 2 8.2 7.2z"  fill="#005bbb" /><path d="M35.3-24.8c-17.7 17.6-32.3 37.7-42.1 60.7-3.8 9.1-6.8 35-14 40.7-5.4 4.4-10.6-6-3.8-7.7 7.9-2 6 12.1-1.1 8.1-6.5-3.7 2.7-23.4 4.3-28.4 9.4-30.2 25-59.6 48-81.8 5.8-5.6 13.3 2.3 8.7 8.4z"  fill="#fff" /><path d=""  fill="#c2e1ff" /><path d="M50-128.3c-27.4 48.2-63.1 87-77.2 142.1-2.5 9.9-5.1 59.1-12.9 63-5.8 2.8-8.4-7.6-1.9-7.8 6.5-0.1 4.4 10.4-1.5 7.8-6.1-2.7-0.2-20.2 0.5-24.8 11.3-76.9 41.3-117.4 81.1-181.1 3.9-6.2 16.7-9.8 11.9 0.8z"  fill="#fff500" /><path d="M54.5-363c37.1 64 45.7 156.6 11.4 223.3-23.2 45.1-62 79.6-81.5 127.1-3.7 8.9-19.3 76.2-23.5 75.3-6.4-1.4-1.9-11.2 3.4-7.4 5.2 3.9-3 11-6.1 5.3-4.2-7.9 4.6-32.1 6.5-40.6 18.9-82.3 83.4-124.1 106.3-197.7 15.5-49.7 9.7-108.7-8.2-157-3.4-9.2-14-36.3-8.3-28.3z"  fill="#fff500" /><path d="M62.1-338.9c28.8 62.3 32.7 143.6-0.8 204.6-25 45.5-63.2 80.9-80.9 130.7-3.4 9.5-17.4 81.7-21.9 80.8-7.5-1.5-0.2-12.6 4.2-6.4 3.7 5.3-6.2 9.5-7.4 3.1-1.7-9.5 3.4-24.4 5.1-34 18.7-106.9 75.8-127.1 105.9-209 16.7-45.4 13.4-98.1 0.1-143.9-6.2-21.4-9-34.1-4.3-25.9z"  fill="#fff" /><path d="M71.5-67.4c-30.2 27.4-60.8 53.7-78.1 91.6-3.3 7.1-16.7 57.2-22.9 52.9-4.1-2.9-0.6-9.5 4.1-7.5 5.5 2.2 1.5 10.6-3.7 7.8-8.4-4.6 9.3-46.7 12.2-53.9 14.1-35.4 46.6-82.4 81.2-101 6.7-3.6 11.6 5 7.2 10.1z"  fill="#c2e1ff" /><path d="M77.1-398.8c25.7 76.2 39.5 178 3.2 252.9-23.2 47.9-67 81.8-90.1 129.9-3 6.3-13.1 43.6-19.9 41.3-5.7-1.9-2.3-10.8 3.2-8.3 4.7 2.1 2.3 9.5-2.8 8.4-9.2-2 3.3-27.9 5.2-32.9 24.9-66.2 88.9-108.1 108.7-176.4 18.2-63.1 9.2-139.4-9-201.6-0.4-1.4-3-22.8 1.5-13.3z"  fill="#fff500" /><path d="M85-284.4c24.1 154.7-50.2 156.3-99 269.6-6 14.1-19.6 87.6-23.3 91.3-4.7 4.5-10.4-4.7-4.2-6.9 7.2-2.5 6.6 10.8-0.3 7.7-6.2-2.8 0.2-21.3 1-26.3 18.4-112.9 63.6-120 104.8-205.8 29.7-61.9 9.6-80.2 14.6-129.5 0.4-3.9 5.4-3.5 6.4-0.1z"  fill="#c2e1ff" /><path d="M99.6-398.8c11.9 81.6 24.5 185-16.7 260.3-15.4 28.1-37.8 51-58.1 75.5-5.4 6.5-27.9 45.6-34.7 44.1-8-1.8-2.2-14.1 4.3-9.1 7.6 5.9-6.7 14.4-8.3 4.9-1.8-11.5 91.5-116.1 104.9-159.6 19.7-64.4 12.2-140.6 3.5-206.3-0.4-2.8 2.4-20.1 5.1-9.8z"  fill="#c2e1ff" /><path d="M99.6-333.4c6.6 53.4 10.1 112.9-7.1 164.7-21.5 64.5-81.8 104.1-107.4 166.5-4.9 11.9-17.1 75.7-20.5 79-5.6 5.3-10.6-7.1-2.8-7.2 6.6 0 4.2 10.7-1.8 7.9-7-3.3 3.3-37.1 4.8-43.7 20.1-92.7 81.9-120.5 115.1-196.5 22.1-50.6 19.3-110.7 13.8-164.5-0.4-4.1 3.9-14.7 5.9-6.2z"  fill="#fff" /><path d=""  fill="#fff500" /><path d="M114.6-398.7c2.3 79 13.2 174.1-20.7 247.8-23.9 51.9-72.9 85.6-99.5 135.7-3 5.7-11.5 35.3-18.9 32.3-5-2-2.8-9.8 2.4-8.8 6.2 1 4.1 10.7-2 9-9.3-2.6 4.2-26 6.4-30.9 27.2-60.1 87.1-97.5 110.3-159.7 25.4-68.3 16.9-151.3 15-222.9-0.1-5.1 6.1-9 7-2.5z"  fill="#005bbb" /><path d="M121.9-381.9c-2.1 74.6 6.6 161.2-25.3 230.6-22.6 49.1-67.6 81.2-95.6 126.6-4.8 7.7-26 63.1-30.3 61.7-6.7-2.1-0.9-12.2 4.3-7.4 5.2 4.7-4.3 11.4-7.1 4.9-2.1-5.1 3.2-15.5 4.8-20.4 22.7-72.1 89.7-111.3 119-178.6 28.4-65.3 20.9-145.6 22.7-215.3 0.1-5.4 6.9-8.8 7.5-2.1z"  fill="#005bbb" /><path d="M130-119.8c-34.1 50.4-91.7 79-124 130.6-9.4 14.9-16.1 31.3-21.2 48.1-1.1 3.6-3.4 24-11.2 18.4-4.1-3-0.4-9.6 4.3-7.6 4.7 2 2.5 9.3-2.5 8.3-7.9-1.5-0.3-17.8 0.7-21.7 24.1-85.8 89.1-111.3 139.5-175.5 4.1-5.2 21.5-13.7 14.4-0.6z"  fill="#fff" /><path d="M137.2-103.4c-34.7 45.5-88.1 72.6-121.4 119.1-9.6 13.4-17 28.2-22.6 43.7-1.3 3.7-4.5 23.9-12.2 17.9-4.8-3.8 1.5-11.1 5.9-6.8 3.8 3.7-1.1 9.8-5.5 7.1-13.3-8.2 26.8-70.8 33.5-79.4 31.3-40.3 77.2-65.7 109.9-104.6 5.1-6.1 18.8-7.4 12.4 3z"  fill="#c2e1ff" /><path d=""  fill="#fff" /><path d="M151.7-179.5c-27.1 84.2-94.7 110.9-141.5 177.2-11.7 16.6-31.7 84.3-38.8 79.4-4.8-3.4 0.9-10.7 5.4-6.9 4.5 3.9-2.1 10.6-6.1 6.3-4.5-4.9 3.5-22.7 5.2-28.3 19.4-67 69.3-101.1 115.5-148.6 21.4-21.9 51.4-82.8 52.7-84 3.7-3.5 8.5 0.6 7.6 4.9z"  fill="#005bbb" /><path d="M158.4 69.2c-0.2 2.5-1.5 12.2-6.7 7.2-3.2-3 0.8-8.2 4.5-5.9 3.7 2.3 1 8.2-3.2 6.8-10.5-3.6 4.7-19.5 5.4-8.1z"  fill="#fff" /><path d="M149.3-397.5c-33.2 137 5.1 212.8-104.4 326.8-5.3 5.5-23.3 31.5-31 28-6.1-2.7-3.1-12.3 3.5-10.9 7.7 1.6 4.5 13.6-2.9 11.1-13.1-4.2 11.1-25.2 14.7-29.1 28.8-31 59.1-60 74.9-100.3 26.9-68.6 19.2-147.4 34.8-218.8 1.2-5.3 11.8-19.3 10.4-6.8z"  fill="#005bbb" /><path d="M173.6-34.1c-15.3 24.2-32.4 47.5-45.9 72.8-4.7 8.8-9.6 33-16.9 38.6-6.7 5-10.5-9-2.2-8.1 7.1 0.8 3.2 12-2.8 8.3-13.2-8.1 47.6-111.8 60.6-119.2 5.2-3 9.5 3 7.2 7.6z"  fill="#005bbb" /><path d="M180.5 43.7c-1.2 6-0.3 29.4-4.7 32.4-4.6 3.2-8.2-5.4-2.6-6.4 5.6-1 5.2 8.4-0.3 7-6.4-1.7-3.1-32 0.1-36.3 2.8-3.7 7.7-0.7 7.5 3.3z"  fill="#005bbb" /><path d="M160.5-396.9c-36.8 110.2-10.2 219.1-97 310.6-5.5 5.9-22.6 29.7-31.1 28.3-8.1-1.3-5.2-13.9 2.7-11.7 7.9 2.2 3.7 14.4-3.9 11.3-12.8-5.2 12.9-25.2 16.6-29 25.7-26.2 49.1-53.7 62-88.6 23.4-63.3 18.1-133.7 34.7-198.7 2-7.7 4.2-15.3 6.5-22.8 2-6.4 11-7.1 9.5 0.6z"  fill="#fff" /><path d="M195.5-63.6c-19.6 38.6-46.9 73.2-63.5 113.3-2.1 5-6.3 30-13.4 27.9-5.6-1.6-2.7-10.3 2.7-8.1 5.4 2.2 1.5 10.5-3.6 7.8-9.6-5.1 11.6-46.2 15.1-53.2 6.6-13.2 47.4-88.9 55.2-94.3 4.7-3.2 9.2 2 7.5 6.6z"  fill="#005bbb" /><path d="M202.7-78.9c-19.9 43.7-50.6 81.5-69.6 125.6-2.4 5.5-7.2 30.8-13.5 31.2-5.8 0.3-5.8-8.9 0.1-8.6 6.8 0.4 3.8 11.3-2.3 8.1-18.6-9.9 67.5-144.1 76.3-160.5 3.1-5.8 11-1.7 9 4.2z"  fill="#005bbb" /><path d="M209.8 0.2c-4.7 16.7-8.7 33.7-10.2 50.9-0.4 5.1 2 22.2-1.7 25.2-4.3 3.3-8.1-4.8-2.9-6 5.3-1.2 5.4 7.7 0.1 6.6-11.6-2.4 1.8-71.6 6.4-80.1 2.6-4.8 8.9-1.5 8.3 3.4z"  fill="#005bbb" /><path d="M217 1.9c-3.9 16.9-7.2 34-8.1 51.4-0.2 4.6 2.6 19.6-1.1 22.6-4.2 3.3-8.1-4.6-2.9-5.9 5.2-1.3 5.4 7.6 0.2 6.6-10.9-2.1-0.4-69.2 3.7-77.5 2.3-4.7 8.6-1.8 8.2 2.8z"  fill="#fff500" /><path d="M224 21.5c-1.2 8.7 2 50.3-3.3 54.6-4.1 3.4-8.1-4.5-2.9-5.8 5.1-1.3 5.4 7.5 0.2 6.5-9-1.7-3-49.1-2-56.3 0.8-5.3 8-4.1 8 1z"  fill="#c2e1ff" /><path d="M231.4-171.2c-12.9 74.7-51.2 131.2-85.6 196.8-4.4 8.5-14.6 49.1-21.5 51.9-6.2 2.6-8.2-8.4-1.4-8.2 6.7 0.3 3.9 11.1-2.1 8-19.4-9.9 56.7-126.7 64.5-141.4 24.2-45.5 25.1-80.8 38.1-109.6 2.1-4.7 8.2-2.1 8 2.5z"  fill="#c2e1ff" /><path d=""  fill="#fff" /><path d="M245.4 49.9c0.1 4.8 4.2 24.8-0.9 26.8-4.2 1.6-6.4-5.1-2-6.3 5.1-1.4 5.5 7.4 0.2 6.4-11-1.9-0.6-47.6 2.7-26.9z"  fill="#c2e1ff" /><path d="M253.1-222.6c-4.9 38.8-5.5 77.9-11.5 116.6-9.3 59.8-32.8 118.2-31 179.3 0.2 7.5-11.1 1.3-5.1-2.5 5.3-3.4 7.3 7.3 1.2 6.1-19.7-3.8 16.5-132.7 19.8-148 18.6-85.6 13-148.6 19.9-154.9 2.9-2.6 6.6 0 6.7 3.4z"  fill="#fff" /><path d="M261-286.5c-31.8 52.5-24.4 123.3-43.8 180.9-20 59.5-64.3 109.7-79.3 170.5-0.9 3.5-0.7 14.1-6.8 12.8-5.4-1.1-3.2-9.6 2.1-7.9 5.3 1.7 2.1 9.9-2.9 7.6-20.4-9.2 59.8-142.5 67.1-158.9 27-60.4 24.4-124.6 44.3-186.1 2.2-6.7 5.5-21.6 11.8-25.8 4.8-3.2 9.4 2.2 7.5 6.9z"  fill="#c2e1ff" /><path d=""  fill="#c2e1ff" /><path d=""  fill="#c2e1ff" /><path d=""  fill="#005bbb" /><path d="M288.3-168.7c23.8 107 135.2 145.5 135.3 241.9 0 6.7-10.7 2.5-6.3-2.3 3.9-4.2 9.3 3.5 4 5.7-7.8 3.3-5.8-20-6.2-23.5-2.4-18.7-8.8-36.6-18.5-52.8-25.8-42.8-69.8-70.3-93.8-114.7-9-16.6-15.9-34.6-20.2-52.9-0.9-3.7 4.4-4.8 5.7-1.4z"  fill="#fff" /><path d="M256.5-393.8c-30.8 26.1-56.6 53-69.9 91.9-28.4 82.9-22.7 153-90.6 220-7.9 7.8-18.9 21.9-29.2 26.2-9.3 3.8-12.1-12.6-2.2-12.1 10 0.4 5.7 16.5-3.1 11.9-12.3-6.3 12.3-22.2 16.2-25.8 19.6-17.7 37.8-37 51.5-59.8 37.1-62.2 29.5-139.1 64.9-201.4 11.8-20.8 33.4-50.4 55.5-61.4 7-3.5 11.6 5.5 6.9 10.5z"  fill="#c2e1ff" /><path d="M302.9-201.6c15.2 83.6 96.6 105.1 140.3 168 6.5 9.4 50.1 109.2 34.1 110-3.8 0.2-4.8-5.5-1.1-6.5 3.7-1 5.8 4.3 2.4 6.2-7.2 3.8-7-20.2-7.5-23.6-4.6-27.4-13.2-54.4-27.4-78.4-30.2-51.1-88.4-72.1-122-119.6-11.6-16.4-20.3-35.2-24.6-54.9-0.9-3.9 4.6-4.8 5.8-1.2z"  fill="#005bbb" /><path d=""  fill="#005bbb" /><path d=""  fill="#005bbb" /><path d=""  fill="#fff500" /><path d=""  fill="#005bbb" /><path d=""  fill="#fff500" /><path d="M346.4 40.3c1.5 5.3 10.9 33.9 4.1 36.4-4.3 1.6-6.5-5.3-2-6.4 4.5-1.1 5.9 6 1.3 6.6-4.8 0.7-9.9-32.2-8.9-36.5 0.7-3 4.5-2.6 5.5-0.1z"  fill="#c2e1ff" /><path d="M352.6-191c19.9 36.5 57.9 58.4 83.7 90.2 32.8 40.5 49.5 92.2 62 142 1.3 5.1 10.8 32.1 5.8 34.8-4.9 2.6-5.9-7.1-0.6-5.5 5.3 1.5-0.6 9.2-3.4 4.3-6.8-11.6-26.1-101.3-42-133.7-25-51.3-71.8-77.7-103.8-122.6-1.3-1.8-6.1-15.3-1.7-9.5z"  fill="#005bbb" /><path d="M362.6-343.1c-15.5 18.6-35.1 33.4-50 52.6-35.7 45.9-27.8 109.9-2 158.6 29.6 56.1 93.3 81.8 121.8 138.4 1.8 3.5 13.9 25.3 7.4 26.8-4.3 1-4.4-6.3 0-5.3 4.3 0.9 1.4 7.5-2.2 4.9-7.4-5.4-13-32.9-18.7-42-51.6-82.2-143.6-93.6-137.6-222.6 1.2-24.9 9.5-48.4 24.4-68.4 7.9-10.6 39.4-48.2 50.4-52.4 6.1-2.3 9.7 4.8 6.5 9.4z"  fill="#005bbb" /><path d="M366-118.7c65.9 53.9 100.7 79.8 119.2 168.3 0.9 4.4 7.6 24.3 2.2 26.7-3.4 1.5-6.2-3.4-3.2-5.6 3.5-2.6 7.3 3.2 3.5 5.4-6.9 3.9-7.8-22-8.5-25.3-5.8-30.5-15.5-60.9-31.3-87.7-18.9-31.9-46.8-53-75.9-75-0.4-0.3-9.3-8.8-6-6.8z"  fill="#fff" /><path d="M375.4 38.3c1.8 5.6 11.6 36.1 4.2 38.6-4.5 1.5-6.5-5.7-1.9-6.8 4.6-1 5.8 6.4 1.2 6.9-0.9 0.1-10-54.4-3.5-38.7z"  fill="#fff" /><path d="M384.5-289.1c-11 23.8-15.9 49.2-7.3 74.7 13.6 40.3 50.1 69.4 71.2 105.6 30.1 51.5 45.7 111.3 59.9 168.7 0.8 3.2 5.8 13.9 1.7 16.2-3.5 1.9-6.2-3.7-2.5-5.3 3.6-1.5 5.7 4.3 2 5.5-4 1.2-24.2-80.4-27.1-89.8-12.5-40.5-27.5-80.9-51.6-116.1-20.8-30.4-51.1-56.6-61.7-92.9-5.9-20.1-6.5-53.6 7-71.5 3.6-4.8 10-0.2 8.4 4.9z"  fill="#c2e1ff" /><path d="M387.7-101.6c49.9 36.8 80.8 81.4 95.2 142.1 1.4 5.9 9.8 31.2 5.1 35.5-3.2 2.9-7.6-2.4-4-5 3.5-2.6 7.3 3.2 3.5 5.4-7.1 4-7.6-21.1-8.3-24.7-5.1-27.3-13.3-54.4-26.3-79.1-14.9-28.4-36.3-50.6-61.7-69.7-1.5-1.1-5.2-5.4-3.5-4.5z"  fill="#005bbb" /><path d="M396.1-4c5.6 8.2 39.4 75.9 22.9 80.8-5.5 1.6-6.2-7.8-0.5-7 5.7 0.8 2.3 9.7-2.5 6.6-4.5-3-2.6-21.7-3.4-27.1-2.9-18.3-28.3-67.6-16.5-53.3z"  fill="#fff500" /><path d=""  fill="#005bbb" /><path d="M410.5-13c6.5 8.7 45.6 84.2 27.3 89.8-5.4 1.6-6.2-7.8-0.6-7 5.6 0.8 2.3 9.6-2.4 6.6-4.9-3.2-3.8-30.4-5.2-37-4-18.2-31.4-66.3-19.1-52.4z"  fill="#c2e1ff" /><path d="M419.7-394.3c8.6 68.7-59.7 124.2-27 192.3 18 37.5 48 67.9 65.9 106 5.4 11.5 48.3 124.4 40.1 126.1-4.4 0.9-4.3-6.5 0-5.5 4.4 1 1.2 7.7-2.3 5-3.7-2.9-21-69.5-24.7-80-23.5-67.4-91.4-151.1-95.7-188.9-4.8-42.8 23.2-77 33.4-116.6 3-11.5-0.4-29.3 3.9-39.4 1.5-3.4 5.8-2.1 6.4 1z"  fill="#c2e1ff" /><path d="M424.5-103.9c35.2 35.5 54.1 82.9 67.2 130.4 1.7 6.3 15.2 46.3 9.3 49.3-4.3 2.2-6.3-5.6-1.5-5.7 5.6-0.2 2.3 9-1.9 5.3-3.5-3.1-20.7-79.8-25.3-92.3-10.8-29.3-25-57.7-45.9-81.2-1.3-1.5-3.4-7.1-1.9-5.8z"  fill="#fff500" /><path d="M432.3-131c23.5 31.7 82.1 167.9 78.7 204.4-0.5 5.4-8.9 1.1-4.8-2.4 3.5-3 7.2 3.7 2.8 4.9-3.1 0.9-28.9-95.7-32.5-106.4-11-32.8-24.2-65.3-43.8-94-0.5-0.7-4.6-11-0.4-6.5z"  fill="#c2e1ff" /><path d="M439.9-139c37 64 57.4 139.9 73.8 211.6 1.2 5.2-7.9 3.9-5.3-0.7 2.6-4.7 8.4 2.6 3.4 4.1-3.7 1.2-27.7-91.7-30.9-102-11.1-36.4-23.7-72.7-41.9-106.2-0.8-1.4-3.1-12.3 0.9-6.8z"  fill="#fff500" /><path d="M448.7-370.3c6.2 47.6-16.5 92-14.4 139.3 2.6 59.7 31.9 121.1 48.4 178.1 3.6 12.3 37.2 127.3 32.2 128.4-4.4 0.9-4.3-6.5 0-5.5 4.4 1 1.2 7.7-2.3 4.9-4.7-3.7-23.4-84.6-27-97-17.8-63.8-52.8-144.2-58.1-208.5-3.6-43.4 15.4-83.9 15.2-127 0-1.3 3.4-25.1 6-12.7z"  fill="#c2e1ff" /><path d="M455.5-157.7c5.3 21.4 64.1 233.3 60.4 234-4.4 0.9-4.3-6.5 0-5.4 4.3 1 1.2 7.7-2.3 4.9-4.4-3.4-19.4-69.6-22.3-80.1-13.3-48.9-27.4-97.6-40-146.7-0.9-3.4 1.3-14.3 4.2-6.7z"  fill="#fff500" /><path d="M466.3-399.5c31.6 65 1.3 122.4-3.9 188.4-2.6 32.3 2.5 64.7 8.8 96.3 5.9 29.2 39.7 134.3 38.5 153-0.3 5.2-8.5 1.4-4.7-2.2 3.8-3.6 7.1 4.9 1.9 4.8-6.1 0-14.6-46.1-16.3-52.7-18.5-69.1-43.5-144.4-34.4-216.8 3.5-27.9 12.9-54.7 16.9-82.5 3.1-21.9 2.3-44.2-3.6-65.6-0.5-1.8-8.2-31.1-3.2-22.7z"  fill="#005bbb" /><path d="M471.4-298.2c-22.7 135.8-13 146.3 22.6 278.8 2.6 9.7 27.5 94.8 22.9 95.7-4.3 0.9-4.3-6.4 0-5.4 4.3 1 1.2 7.6-2.3 4.9-9.4-7.1-13.2-46.2-16.4-57.9-20.3-75.2-50.1-156.3-48.2-235.1 0.6-25 3.1-60.5 13.5-83.5 2.1-4.7 8.2-2.1 7.9 2.5z"  fill="#fff500" /><path d="M477 2.2c4.9 13.7 24.8 59.6 17.7 73-2.3 4.4-8.6-1-4.7-4 4-3 7.4 4.5 2.6 5.6-6.3 1.4-7.7-24.5-8.6-28.8-0.9-4.3-15.2-62.7-7-45.8z"  fill="#fff500" /><path d="M486.1-170c-15.8 60.6 5.2 127.8 20.7 186.3 1.8 6.7 18.4 58.7 13.7 59.8-3.6 0.9-4.7-4.9-0.9-5.4 3.2-0.4 4.3 4.2 1.2 5.3-5.6 2-11.1-27.8-12.3-32.2-15.3-54.7-32.8-111.9-34.7-169-0.5-13.7-2.2-35.1 4.1-47.7 2.4-4.8 8.6-1.8 8.2 2.9z"  fill="#fff" /><path d="M497.9-399.4c56.3 97.5-32.6 168.2-22.9 273 3.2 34.7 34.9 140.1 33.9 156.4-0.3 5.2-8.5 1.4-4.7-2.2 3.8-3.6 7.1 4.9 1.9 4.9-6.1 0-13.5-42.6-15.1-48.9-14.7-57-31.8-118.6-21.6-177.9 6.8-39.3 29.1-73.1 37.6-111.7 4.9-22.7 4.1-46.1-2.9-68.2-2.6-8.3-11.2-32.5-6.2-25.4z"  fill="#fff" /><path d=""  fill="#005bbb" /><path d="M508.2-133.1c-24.2 51.2-4.7 116.8 9.7 168.2 1.8 6.3 14.6 35.7 11 40.2-2.6 3.3-7-2-3.3-3.9 3.7-1.9 5.5 4.8 1.4 5-6.2 0.3-14.8-40.9-16.5-47-12.2-43.8-25.1-92-18.8-137.7 4.1-29.9 20.6-39.9 16.5-24.8z"  fill="#fff" /><path d="M515.1-81.3c-9.4 41.5 2.2 87 14.6 126.7 1.5 4.9 11.7 25.7 9 29.5-2.3 3.3-6.8-1.7-3.3-3.7 3.5-2 5.4 4.3 1.5 4.7-5.7 0.5-13.7-33.4-15.4-38.6-11.5-37.6-22.1-80.6-14.8-120 1-5.5 8.6-3.8 8.4 1.4z"  fill="#c2e1ff" /><path d="M522.7-154.5c-41.6 48.2-22.9 121.3-8.3 176.5 2.9 10.8 18.4 42.6 15 52.5-1.4 4-7.3 0.3-4.4-2.7 3.4-3.5 6.9 4.2 2.1 4.5-6.9 0.3-18.1-52.7-20-60-12.3-46.7-25.9-101.3-9.3-148.5 12.9-36.3 32.2-34.5 24.9-22.3z"  fill="#c2e1ff" /><path d="M563.7-399.3c53.6 117-53.6 149.3-76 241.1-7.9 32.4-4 66.6 2.1 99 0.7 3.7 8.9 28.9 1.7 27.7-3.9-0.6-2.6-6.8 1.2-5.7 3.3 0.9 2.5 5.9-0.9 5.7-5.3-0.3-5.8-16.2-6.6-19.9-10.2-49.1-16.2-101.9 8.1-148 18.8-35.8 51.7-62.1 67.1-99.9 8.3-20.3 11.1-42.4 8.1-64.2-1.6-11.9-10.8-46.3-4.8-35.8z"  fill="#c2e1ff" /><path d="M538.2-399.4c58.6 107.7-54.6 164.2-57.8 264-1.4 43.5 9.7 86.9 20.3 128.7 1.1 4.4 12.1 37.4 5.7 36.6-3.8-0.4-2.8-6.4 0.9-5.5 3.2 0.7 2.6 5.6-0.6 5.6-5.6 0-9.4-27.2-10.7-32-15.4-59.6-34.7-127.3-14.6-188.1 13.5-41 46.2-71.9 59.8-112.7 6.6-19.8 8.3-40.9 4.4-61.3-2.3-11.8-14-45.4-7.4-35.3z"  fill="#fff500" /><path d="M603-300.9c-18.5 58.7-79.3 83.5-103.9 137.3-6.1 13.3-10.5 63.9-11.9 66.1-3.7 5.3-10-4.2-3.6-5.5 6.4-1.3 4.4 9.9-1.1 6.5-5-3.1-2-20.8-1.7-26.1 3.7-65.9 50.8-94.4 89.2-140.5 9.7-11.7 15.2-33.3 25.4-42.8 3.8-3.5 8.6 0.7 7.6 5z"  fill="#005bbb" /><path d="M550.9-20.1c-0.7 26.3 6.7 52.2 16.9 76.3 1.3 3.2 9.9 16.3 7 18.9-2.6 2.3-5.4-2.7-2.2-3.7 2.9-0.9 4 3.7 1.1 4.2-12.8 2.4-32.6-85.1-30-96.4 1-4.3 6.6-3.1 7.2 0.7z"  fill="#fff500" /><path d="M559.1-278.5c-45.5 90.4-92 84.2-71.6 207.4 6.4 38.7 16.7 76.8 27.2 114.6 1.1 3.9 12 33.1 5.5 32.4-14.2-1.3 14.6-4.9 1.1-0.1-4.7 1.7-5.7-9.1-6.3-11.4-21.6-73.6-56.6-167-31.5-243.3 5.2-15.8 56.7-98.7 68.2-106.4 4.7-3.2 9.2 2.2 7.4 6.8z"  fill="#fff" /><path d=""  fill="#fff" /><path d="M573.6-55.3c-13.2 30.5-9.7 64.6 1.2 95.2 1.6 4.4 16.2 35.1 12.4 35.5-2.9 0.3-3.1-4.3-0.2-4.3 3.4 0.1 2.1 5.6-0.9 4-17.4-8.4-29.7-89.9-27.5-108.5 3.2-26.6 18.4-36.6 15-21.9z"  fill="#fff500" /><path d="M580.5-318.1c-14.9 87.3-101.9 108.9-96.1 213.9 2.6 47.9 16.2 95.3 28.9 141.3 1.3 4.6 13.4 39.5 7.3 39-12.1-1.1 11.5-8.1 1.9-0.6-4.3 3.4-5.7-5.9-6.2-7.7-21.8-73.2-57.2-167.4-31.5-243.3 14.6-43 51.9-70.4 73.6-109.1 5.8-10.3 7.7-28.7 14.7-37.1 3-3.6 7.8-0.4 7.4 3.6z"  fill="#005bbb" /><path d=""  fill="#fff500" /><path d="M595.2-310.8c-20.2 85.1-111.7 106.8-108.9 206.9 1.3 47.8 15 95.6 27.7 141.4 1.3 4.6 13.5 39.4 7.4 38.9-12.1-1 11.4-8.1 1.9-0.6-4.3 3.4-5.7-5.9-6.2-7.6-21.6-71.7-57-166.1-28.6-240.1 16.4-42.7 55.7-67.5 80.5-104.2 7.2-10.7 10.5-30.3 18.7-39 3.4-3.6 8.2 0.1 7.5 4.3z"  fill="#005bbb" /><path d=""  fill="#c2e1ff" /><path d="M603.1-245.7c-47.6 57.2-111.6 67-110.5 156.1 0.6 47.7 14.5 95.8 27.8 141.3 1.3 4.3 8.7 20.1 5.9 23.5-3.1 3.9-7.4-3.6-2.5-4.3 4.2-0.6 3.7 6.4-0.4 5.2-6.4-1.9-11.9-35.2-13.8-41.7-16.7-59.4-40.6-135.3-11.3-194.3 8.4-16.9 83.8-89.8 98.3-95.2 6.1-2.3 9.7 4.8 6.5 9.4z"  fill="#c2e1ff" /><path d="M602.6-201.1c-49.9 38.8-101.8 58.5-101.3 131.3 0.3 48.3 30.2 123.5 30.3 143.2 0 5.7-8.9 0.4-3.8-2.3 4.3-2.3 5.2 6.1 0.5 4.8-6.2-1.7-11.8-32.7-13.6-38.9-17-58.3-38.6-136.2 2.4-189.4 11.1-14.4 63.3-57.7 80.6-60.4 7.1-1.1 9.4 7.4 4.9 11.7z"  fill="#005bbb" /><path d="M602.5-177.9c-48.9 34.4-94.2 56.9-93.3 124.6 0.6 45.3 27.2 105.4 27.7 126.4 0.1 5.6-8.6 0.6-3.8-2.2 4.1-2.3 5.2 5.8 0.7 4.7-5.9-1.5-11.5-29.7-13.3-35.4-16.8-54.7-34.4-126.6 4.4-176.1 10.4-13.2 56.8-52.3 73.1-54.1 7.3-0.8 9.3 7.9 4.5 12.1z"  fill="#fff" /><path d="M602.2-183.2c-49.8 35.5-96.4 57.4-95.1 126.9 0.8 45 28.1 109.4 28.4 129.8 0.1 4.8-7.7 1.8-4.5-1.7 3.8-4.1 6.7 5.6 1.3 4.2-6.2-1.6-12.2-32.6-14.1-38.7-16.4-54.7-34.3-126.5 3.8-176.3 10.6-13.8 58.8-54.3 75.7-56.3 7.3-0.9 9.3 7.9 4.5 12.1z"  fill="#fff" /><path d=""  fill="#fff500" /><path d=""  fill="#fff" /><path d=""  fill="#fff" /><path d="M602.3-216.9c-29.3 25.7-69.4 40.6-90 75.3-10.6 17.9-14.3 60-20.9 53.8-3.2-3 0.7-8.2 4.5-6 4.4 2.6-0.1 9.3-4.2 6.3-4.2-3.2-0.9-14.6-0.4-18.9 6.3-51.9 42.3-78 82.6-105.3 6.4-4.4 15.5-14.7 23-16.3 6.9-1.5 9.6 6.7 5.4 11.1z"  fill="#c2e1ff" /><path d="M602.3-201c-47.4 36.8-99 55.9-101 124.8-1.3 45.9 24.8 108.5 24.3 131.2-0.1 5-8.1 1.6-4.6-1.9 4.1-4.2 6.8 6.2 1.2 4.4-10.1-3-18.6-62.4-20.8-72.9-9.1-44.2-14.6-95 13.3-134 11.1-15.6 64.3-60.5 82.7-63.3 7.1-1.1 9.4 7.4 4.9 11.7z"  fill="#c2e1ff" /><path d=""  fill="#c2e1ff" /><path d="M602.6-203.3c-29.6 23.3-68.3 37.6-87.9 71.6-7.4 12.7-12.3 56.1-19.9 48.7-3.7-3.6 2.3-9.2 5.6-5.2 2.8 3.4-1.8 8.2-5.3 5.5-4.3-3.3-0.5-16.1 0.2-20.4 7.6-49 56.5-92.5 100.9-111.4 7.3-3.1 11.6 6.3 6.4 11.2z"  fill="#fff500" /><path d=""  fill="#005bbb" /><path d=""  fill="#fff500" /></svg>