<svg width="1200" height="675" viewBox="-500 -500 1200 675" xmlns="http://www.w3.org/2000/svg"><path d="M-500-500h1200v675h-1200z" fill="#000"/><path d=""  fill="#c2e1ff" /><path d=""  fill="#fff500" /><path d=""  fill="#fff500" /><path d=""  fill="#fff" /><path d=""  fill="#005bbb" /><path d=""  fill="#fff" /><path d=""  fill="#c2e1ff" /><path d=""  fill="#c2e1ff" /><path d=""  fill="#c2e1ff" /><path d=""  fill="#c2e1ff" /><path d=""  fill="#fff" /><path d=""  fill="#005bbb" /><path d="M-389.6-342.4c-12.5 35.9-5.6 79-3 116.9 0.7 10.7 5.9 43.6-2.7 51.6-5.9 5.5-12.7-6.1-5-8.6 7.7-2.5 8.9 10.8 1 9.9-8.8-1.1-1.2-34.9-1.3-41.7-0.4-39.2-2.9-78.2-2.8-117.6 0-12.7 16-23.8 13.8-10.5z"  fill="#c2e1ff" /><path d="M-382.4-278.6c5.1 33.1 17.2 65.2 18.5 98.8 0.6 15.8-14.8 85.8-35.2 83.5-13.1-1.5-2.3-21.6 6.2-11.5 7.2 8.6-9.2 17.2-12.2 6.4-0.2-0.9 28.2-45.1 31.1-62.8 6.5-38.4-9.8-75.9-15.8-113.2-0.8-4.9 6-5.8 7.4-1.2z"  fill="#005bbb" /><path d=""  fill="#005bbb" /><path d="M-363.8-63.9c-7 5.7-30.2 29.5-39.4 22.3-8.5-6.6 2.6-19.3 10.3-11.8 9 8.7-8.3 20.2-12.8 8.5-3.8-9.7 34.3-38.9 42.6-30.6 3.5 3.5 2.5 8.4-0.7 11.6z"  fill="#c2e1ff" /><path d="M-354.3-387.8c-14.8 24.6-25.1 51-24.3 80.1 1.9 73.1 58.6 143 3.5 210-4.8 5.9-16.4 23.4-25.3 21.3-9.9-2.2-5.5-17.6 4.1-14.3 8.2 2.8 5.4 15.5-3.3 14.5-21.4-2.4 33.9-44.8 40-81.5 9.6-57.9-31.4-112.1-27.5-170.5 1.4-20.4 8.1-51.8 22.6-67.2 5.4-5.6 12.8 1.2 10.2 7.6z"  fill="#fff" /><path d="M-348.4-254.1c28.8 73.4 55.2 128.7-16 188.1-6.9 5.7-26.8 26.7-36.4 23.3-10.1-3.5-3.7-19.1 5.9-14.6 8.3 3.9 3.8 16.8-5.1 14.8-5.3-1.2-7.8-7.6-4.7-12.1 20.4-29.6 62.1-30.8 75.8-84.3 12.9-50.2-27.3-92.2-25.1-114.4 0.3-3.2 4.3-3.3 5.6-0.8z"  fill="#005bbb" /><path d="M-337-371.4c-30.4 87 53.6 146.9 51.1 230.2-1.3 44-30.3 76.6-64.3 101-8.2 5.8-46.9 39.6-54.7 28.2-4.4-6.4 2.7-14.7 9.7-11.5 8.3 3.8 4 16.7-4.9 14.8-23.1-5 41.5-45.1 47.7-49.6 26.1-18.8 49.6-42.6 56-75.2 12.6-64.4-42.5-117.9-54.5-178.1-3.5-17.8-6.1-47.7 3.8-64.2 3.5-5.8 11.1-1.5 10.1 4.4z"  fill="#005bbb" /><path d=""  fill="#c2e1ff" /><path d="M-341.6-395.7c-65.8 116.1 27.2 150.6 19.4 249-3 38.7-65 110.4-80.8 98.4-7.3-5.5-0.2-17.2 8-13.4 8.3 3.8 3.9 16.7-4.9 14.8-5.3-1.2-7.9-7.6-4.8-12.1 20.4-30 60.8-30.7 72.2-85 13.2-63.2-42-119.8-42.2-182.7-0.1-23.1 6.9-58.5 22.9-76.2 5.2-5.7 12.7 0.9 10.2 7.2z"  fill="#c2e1ff" /><path d=""  fill="#fff500" /><path d="M-302.2-48.7c-20.3 21.1-45.5 36.2-68.6 53.9-6 4.6-28.1 31.1-34.3 17.5-3.5-7.6 7.3-14.1 12.3-7.4 5.9 7.8-6.9 16.5-11.9 8.1-6.4-10.7 23.2-29.7 29.7-34.7 13.2-10.2 52.5-45.9 65.6-49.8 7.8-2.3 11.6 6.9 7.2 12.4z"  fill="#c2e1ff" /><path d=""  fill="#fff" /><path d=""  fill="#c2e1ff" /><path d="M-275.7-31.6c-22.1 28.3-51.5 49.6-73.7 77.8-4.4 5.5-19.3 39.5-27.5 31.4-5.7-5.5 3.5-14 8.5-7.9 4.3 5.2-2.8 12.5-8.1 8.3-9.2-7.2 13.5-36.4 18.4-42.9 8.6-11.4 64.9-73.5 74.4-77.5 7.1-3 11.6 5.2 8 10.8z"  fill="#fff500" /><path d="M-270.8-397.4c-23.2 93.1 27.4 138 46.5 221.6 12.3 54-5.2 108.3-34.3 153.8-5.4 8.5-23.8 43.6-34.9 42.9-12.7-0.8-3.3-20.8 5.4-11.5 8.7 9.3-11.9 17.4-11.8 4.6 0.1-12.6 25.4-35.7 32.5-46.5 18.6-28.5 33.1-60.7 37.2-94.7 9.1-73.6-44.3-130-54.8-199.8-3.2-21-5.5-54.3 4.4-74 2.9-5.7 10.4-2.1 9.8 3.6z"  fill="#c2e1ff" /><path d="M-258.5-120c-3.2 22-12.7 42.7-26 60.4-22.5 30.1-54.7 49.1-83.4 72.5-6.4 5.2-27.2 32.9-35.4 25.6-8.2-7.3 6.5-17.9 10.9-7.9 4.4 10-13.4 13.5-13.2 2.6 0.4-17.5 72.9-65.8 88.3-79.2 42.7-37.1 36.3-61.6 49.9-78.2 3.5-4.3 9.3-0.6 8.9 4.2z"  fill="#fff500" /><path d="M-249.3-18.8c-35.8 63.9-54.9 96.8-58.7 97.7-8.8 2.1-9.1-12.9-0.2-11.2 8.9 1.8 2.8 15.6-4.5 10.2-12.2-8.9 43.7-94.3 53.4-104.3 5.4-5.6 12.8 1.2 10 7.6z"  fill="#fff500" /><path d="M-241.6-349c-2.2 61 34 111.4 43 170.1 10.7 69.9-21.5 138.2-49.6 200.2-3.8 8.4-18.4 57.6-26.2 57.6-10 0-3.5-16.2 3.7-9.2 7.3 6.9-8.6 14.2-9.1 4.1-1.1-21.7 64.2-152.3 71.9-201.1 11.1-70.2-28.4-124.3-39.8-190.7-7.2-42 5-40 6.1-31z"  fill="#fff" /><path d="M-233.6-169.6c20.1 92.3-46.9 148.5-97.8 213.2-4.8 6.1-19.7 39.3-28 35.2-8.4-4.1 1.2-16.2 7.1-8.9 5.9 7.2-7.9 14.1-10.2 5.1-5.1-20.1 82.2-108.1 96.8-131.9 13-21.1 22.4-44.7 25.6-69.4 1.7-12.8-4.3-32.4-0.6-43.8 1.2-3.9 6.1-2.9 7.1 0.5z"  fill="#005bbb" /><path d="M-223.4-105.8c-10.7 55.2-44.8 97.2-77.1 141.2-5 6.8-24 47-31.9 43.2-8.3-4 1.1-16.1 6.9-8.9 5.9 7.1-7.7 14.1-10.1 5.2-4.2-15.8 49.1-80 60.1-95.4 13.4-18.9 42.9-89.7 43.1-89.9 3.7-4.4 9.5-0.4 9 4.6z"  fill="#fff" /><path d="M-214.8-387.2c-14.8 83.3 22.9 127.2 31.1 203.4 7 65.1-21 129.9-41.3 190.4-2.7 8.2-11.3 52.9-19.9 53.2-8.4 0.2-5.8-13.4 1.9-10.2 9 3.9-3 16-6.9 7-4.9-11.4 51.5-166 56-196.2 10.1-67.9-26.3-123.2-33.1-188.7-1.8-17.7-4.4-44.9 2.7-61.7 2.4-5.6 9.8-2.7 9.5 2.8z"  fill="#fff500" /><path d="M-206.6-150c2.1 63.4-29.2 121.5-59.5 174.9-4.4 7.8-24.2 56.9-32.1 53.7-8.2-3.4 0.1-15.5 6.2-9 6.1 6.5-6.6 14-9.4 5.6-4.3-13 47.9-97.9 56.5-116 11.4-23.9 20.8-49 25.9-75 1.3-6.6 0.1-35.9 6.5-38.3 3.1-1.1 5.5 1.2 5.9 4.1z"  fill="#005bbb" /><path d="M-197.5-369.6c-7 68 29.4 127 28.7 193.6-0.8 78.1-40.3 152.4-52.9 229-0.8 5.1 0.3 26.5-8.4 25.2-5.5-0.9-5.1-9.1 0.5-9.5 6.4-0.4 6.5 9.8 0 9.5-14.4-0.7 45.7-208.9 49.2-230.8 9.8-61.6-18.9-113.9-25.7-173.7-1.5-13-4.7-32.5-0.6-45.2 1.8-5.5 8.9-3.2 9.2 1.9z"  fill="#005bbb" /><path d=""  fill="#fff" /><path d="M-180.4 34.9c0.1 7.2 6.4 36.8 1.4 41.3-4.5 4.1-9.6-4.7-3.7-6.6 5.8-1.8 6.7 8.3 0.6 7.5-6.9-0.9-9-38.9-6.4-44 2.1-4.3 7.5-2.3 8.1 1.8z"  fill="#fff" /><path d="M-172.1-324.5c5 42.7 22.6 83.5 22.7 126.8 0.1 66-33.5 129.1-46.1 193.2-1.9 9.9-7.7 82.7-12.7 82.5-6.9-0.4-3.9-11.5 2.3-8.3 6.1 3.2-1.3 12-5.5 6.5-18.9-24.8 41.5-204.9 49.1-242.7 9.8-48.4-18.7-154.9-17.3-158.8 1.4-4 6.5-2.8 7.5 0.8z"  fill="#fff" /><path d="M-163.3 40.5c0.7 6.3 8.7 31 4.9 35.3-3.6 4.1-8.9-3.3-3.9-5.5 5-2.2 6.7 6.7 1.3 6.6-6.1-0.1-11.5-32.4-9.8-37.2 1.5-4.1 6.6-2.8 7.5 0.8z"  fill="#c2e1ff" /><path d="M-155-286.8c5.7 24.9 12.6 49.6 13.7 75.2 2.9 73.8-54 169.1-55 285.1-0.1 9.4-14.1 1-6.4-3.5 6.8-3.9 8.8 9.6 1.2 7.7-15.1-3.6 3.2-97.6 5.9-110.2 9.8-45 27.9-87.4 39.2-132 6.2-24.6 8.1-49.4 4.4-74.6-1.4-9.9-13.9-40.4-9.5-48.6 1.6-3 5.5-1.9 6.5 0.9z"  fill="#fff" /><path d="M-145.5-398.1c-1 65.5 26.5 130.1 21.9 191.7-4.5 60.6-40.2 115.3-53 174.4-1.9 8.7-6.4 68.6-12.4 68.2-7-0.5-3.7-11.6 2.4-8.3 6.1 3.4-1.5 12.1-5.6 6.5-3.6-4.9-0.6-18-0.3-23.7 4.6-74.2 43.7-135.2 57.6-206.3 10.4-53.8-12.3-105.8-17.6-158.9-6.3-64 6.7-46.4 7-43.6z"  fill="#fff" /><path d="M-136.7-380.2c2.1 56.2 25.9 111.5 21.6 167.7-5.3 70-51.5 130.8-61.5 200.7-1.8 12.6 0.9 72.5-2 77.3-3.2 5.4-10.8-1.7-5.6-5.2 6.1-4.1 8.8 8.3 1.6 7.1-8.7-1.4-5.9-40.7-5.8-47.6 1.1-91.9 46-141.4 62-221.6 10.7-53.5-11.7-106.1-17.2-158.8-0.7-6.4-1.3-12.8-1.5-19.2-0.2-5.6 7.5-5.6 8.4-0.4z"  fill="#fff" /><path d="M-126.8-53.4c-10.8 31-10.9 64.5-2.4 96.1 1.2 4.3 14.1 33.3 8.5 33.6-3.6 0.2-3.7-5.5-0.1-5.3 4.3 0.2 2.4 7-1.3 5-22.9-11.9-23-108.3-15.3-132.6 2.2-7 11.8-3.6 10.6 3.2z"  fill="#fff" /><path d="M-119.8-274.7c20 98.3-38.9 161.3-55 253.1-5.8 33.3 2.6 88.5-2 97-3.4 6.2-11.3-3.3-4.5-5.4 5.8-1.8 6.7 8.2 0.6 7.4-11.5-1.4-5.1-105.5 4.7-140.7 11.2-40.6 31.6-77.5 44.5-117.4 13.8-42.6 2.3-56.2 4.5-93.5 0.3-4.5 6.1-4.3 7.2-0.5z"  fill="#fff" /><path d="M-110.1-398.9c3.7 58.2 25.8 118.2 19.2 176.5-7.5 66.3-57.1 119.5-71.5 184.4-2.8 12.9-2.9 70.7-6 75.5-3.5 5.4-11-2.1-5.6-5.6 6.3-4.1 8.8 8.8 1.4 7.4-8.4-1.6-4.6-36-4.3-42.5 4.2-88.2 55.2-132.9 73.9-209 16.2-66.2-23.5-138.7-15.3-187.1 0.8-5 7.3-4 8.2 0.4z"  fill="#c2e1ff" /><path d="M-95.7-399c4.4 61.5 27.1 128.2 12.3 189.4-14 58.1-57.6 103.7-72.8 161.9-0.7 2.8-4.2 21.5-11.5 12.2-3.7-4.7 2.7-10.9 7.3-7.1 3.9 3.2 1 9.8-4.1 9.1-10.5-1.6 0.6-27.2 2.3-32.7 16.3-54.4 57.4-98.5 70.4-153.7 10.7-45.1-19.6-162.1-11.7-180.3 1.8-4.2 7.1-2.5 7.8 1.2z"  fill="#005bbb" /><path d=""  fill="#fff" /><path d="M-85.1 21.1c2.6 10.8 24 47.8 23.8 52.3-0.1 3.3-5.4 1.9-3.9-1 1.8-3.4 6.2 1.6 2.5 2.9-8.3 2.9-26.8-45.6-28.9-52.4-1.3-4.3 4.8-5.8 6.5-1.8z"  fill="#c2e1ff" /><path d="M-76.4 21c2.7 10.9 24.9 48.2 24.8 52.7-0.1 3.2-5.3 1.9-3.9-1 1.7-3.4 6.1 1.5 2.5 2.8-8.3 3-27.7-45.8-29.7-52.5-1.3-4.2 4.7-5.7 6.3-2z"  fill="#005bbb" /><path d="M-65.6-36.6c-9.1 27.6-4.2 56.9 8.2 82.5 1.8 3.8 18.3 28.5 14.4 29.4-2.7 0.7-3.5-3.6-0.7-4 3.2-0.4 2.7 4.9-0.4 4-21.3-6.7-42.6-95.2-31.5-115.9 3.1-5.8 10.8-1.9 10 4z"  fill="#005bbb" /><path d="M-57.8-398.4c-0.1 61.5 12.9 130.5-6.8 189.9-18 54.2-62.3 94.5-80.6 149-2.9 8.6-5.4 45.4-12.1 49.1-6.5 3.6-10.1-8.2-2.6-8.7 7.4-0.6 5.7 11.6-1.3 9-8.4-3.1 0.1-30.7 1.4-36.7 14.3-66 66.5-110.5 87.1-172.9 14.3-43.5-2.6-163 6.7-180.7 2.2-4.3 7.7-2.1 8.2 2z"  fill="#005bbb" /><path d=""  fill="#fff500" /><path d="M-43.6-398.5c-4.1 61.5 5.5 130.6-15.2 189.5-16.8 47.7-55 83.4-75.9 129.1-3.7 8.1-16.5 60.3-22.4 59.2-7.6-1.5-2.5-13.2 3.8-8.8 6.3 4.5-3.3 13.1-7.1 6.4-2.6-4.6 0.7-13.1 1.7-17.9 12.9-68.9 66.9-112.5 90.6-175.7 20.9-55.5 11.7-121.3 15.2-179.6 0.4-6.7 8.9-10.3 9.3-2.2z"  fill="#005bbb" /><path d="M-31.8-1.5c1.1 19.7 28.9 71.6 28.7 74.9-0.3 3.5-5.9 1.8-4.2-1.3 2-3.6 6.6 2 2.6 3.2-12.2 3.8-33.8-66.4-35-75.8-0.7-5.3 6.8-5.8 7.9-1z"  fill="#fff" /><path d="M-22-340.1c-9.4 49.1-8.3 100.8-31.4 146.3-27.6 54.4-76.3 93.3-90.4 154.9-5.6 24.5-5.9 50-1.7 74.7 1.5 8.8 12 30.6 9.8 38.3-1.6 5.4-9.2-0.7-4.4-3.4 4.8-2.8 6.2 6.8 0.8 5.5-7.3-1.8-12-32.4-13.3-39-26.7-127.3 52.6-156 95.2-250.8 18.9-42 11.8-98 25.8-129.5 2.5-5.7 9.9-2.5 9.6 3z"  fill="#005bbb" /><path d="M-19.5-397.6c-13.4 62.2-7.9 132-31.8 191.2-22.4 55.4-71.6 94.5-89.9 152.2-3 9.5-4.6 52.4-10.7 56.5-5.8 3.9-10-6.9-3.1-8 6.9-1.1 6.2 10.4-0.5 8.6-15.8-4.5 9.2-77.5 13.6-87.7 20.1-46.3 59-80.6 79.7-126.3 25.7-56.7 19.8-125.6 32-186 1.5-7.3 11.4-9.4 10.7-0.5z"  fill="#fff500" /><path d=""  fill="#fff500" /><path d="M4.6-283.3c-12.7 37.9-22.4 75.3-46.3 108.2-32.3 44.4-76.9 78.4-91 133.9-7.5 29.5-5.9 60.7 2.6 89.8 0.9 3 13.1 29.6 5.3 27.3-11.8-3.3 12.9-5.9 2-0.2-5.8 3-11-18-12.1-21.3-47.5-132.7 43.1-167.6 97.8-260.4 14.9-25.2 16.8-57.9 31.6-81.9 3.6-5.8 11.2-1.3 10.1 4.6z"  fill="#fff" /><path d=""  fill="#fff" /><path d="M21-7.2c-0.1 16.9 23.5 81 23.4 81.6-1 4.3-7.7 1.1-5-2.4 3.2-4.1 7.8 3.7 2.7 4.5-12.2 1.8-28.9-73-29.6-83.3-0.4-5.6 7.6-5.7 8.5-0.4z"  fill="#fff" /><path d="M29.6-0.4c0.5 9.2 20.6 76 19.8 76.3-3.7 1.3-5.5-4.7-1.7-5.6 3.8-0.9 4.9 5.2 1.1 5.7-10.4 1.3-26.1-66.2-27.3-75.6-0.6-5.3 6.9-5.8 8.1-0.8z"  fill="#fff500" /><path d="M39.8-311.4c-27.3 38.6-34.7 87.1-61.3 126.3-35.2 52-93.1 86.5-106.5 151.8-8.6 41.7 15.8 105.3 15.4 107.4-0.9 4.8-8 0.3-4.1-2.6 4.6-3.4 5.5 6.9 0.4 4.4-10.6-5.2-17.1-39.9-19.4-50.4-24.6-112.5 59.8-149.2 110.6-229 22.9-36 29.8-79.9 53.9-115.1 4.9-7.2 14.7-0.2 11 7.2z"  fill="#005bbb" /><path d="M40.9-394.4c-48.1 59.7-44.6 122.6-74.8 187.9-22.9 49.5-68.6 83.4-92 132.5-7.9 16.6-13.2 34.3-15.4 52.5-0.5 3.9 1.7 26.4-7.2 22.9-5.5-2.2-1.6-10.6 3.6-7.8 5.2 2.7 0.5 10.7-4.5 7.4-11.2-7.5 13.3-82.7 20.2-95.6 20-37.3 52.2-65.4 74.9-100.8 31.1-48.6 31.1-108 55-159.5 7.1-15.2 17-38.4 30.4-49 6.6-5.2 13.5 3.2 9.8 9.5z"  fill="#005bbb" /><path d="M57.3-163.6c-29.4 49.9-95.2 86.2-101.6 147.5-5.1 48.6 20.1 57.1 28.9 89 0 0-2.7 2.6-2.7 2.5-4.5-1.5-9.4-13.3-11.8-17.1-21-34.5-31.6-74.4-15.1-113 5.4-12.6 85.9-113.4 93.6-117.9 6.2-3.6 11.3 3.4 8.7 9z"  fill="#fff" /><path d="M60-393.2c-64.1 62.6-54.9 120-91.6 191.7-23.6 46-66.6 78-90.2 124-8.4 16.3-14.2 33.9-16.9 51.9-0.6 3.9 1.1 26.5-7.8 22.9-5.5-2.3-1.4-10.8 3.8-8 5.3 2.9 0.2 10.9-4.7 7.5-5.3-3.7-1.4-19.2-0.8-24.3 7.5-69.8 58.3-109.7 95.6-163.8 34.4-49.9 34.8-112.9 65-164.6 9.1-15.5 22.8-39 38.6-48.7 7.7-4.7 13.9 5.1 9 11.4z"  fill="#c2e1ff" /><path d="M74.8-138.1c-22.3 44.4-65.9 83.4-63.1 136.7 0.9 16.9 25.8 69.3 24.5 75.6-1 4.9-8.3 0.1-4.2-2.8 4.1-2.9 6.1 5.6 1.2 4.9-6.9-1-17.2-33.8-19.7-40.3-11.2-28.7-14.4-58.7-3.8-88.1 9.5-26.2 36.4-72.4 55-93 5.1-5.6 12.5 0.8 10.1 7z"  fill="#fff500" /><path d="M70-392.8c-73.7 65.5-59.4 114.5-99.1 191.3-23.2 44.8-64.9 75.9-89.3 119.8-7.6 13.7-13.4 28.4-16.9 43.7-1 4.3-0.8 25.7-9.9 21-6.7-3.5 1.3-13 5.9-7.1 3.9 5.1-4.4 10.8-7.7 5.4-3.1-5 0.7-16 1.6-21.3 11.4-62 57.3-99.2 92.5-147.7 36.5-50.4 37.3-114.9 70.2-166.9 10.3-16.3 26.7-40.9 44.1-50.4 8.1-4.4 14 6 8.6 12.2z"  fill="#005bbb" /><path d=""  fill="#c2e1ff" /><path d="M100.8-71.6c-11.7 41.2-13.2 78.6-5 120.7 0.9 4.9 8.3 25.1 2.2 27.9-4.7 2.1-7.7-5.4-2.7-7.1 5.7-1.9 6.8 8 0.7 7.4-7.1-0.8-10.1-40.1-11.2-46.8-5.3-30.7-9.8-77.5 6.1-106.1 3.2-5.8 10.8-1.7 9.9 4z"  fill="#fff" /><path d="M109.4-320.4c-48.1 41.5-63.1 98.6-100.5 147.5-33.7 43.9-88.9 72.3-108.7 126.2-17.4 47.1 8.8 87.9 6.1 100.3-1.1 4.9-8.3 0-4.2-2.8 4.9-3.3 5.5 7.4 0.2 4.6-9.2-4.8-14-34.7-15.7-44-18-96.9 70.6-136.3 119.1-202.7 33.6-46 48.5-98.9 91.6-138.5 8-7.3 19.9 0.5 12.1 9.4z"  fill="#fff" /><path d="M118-332c-64.2 51.8-67.2 98.3-112.4 157.6-32.2 42.2-83.3 69.7-105.5 119.5-17.7 39.7-0.6 84-3.6 93-2.2 6.5-10.2-3-3.5-4.1 5.7-0.9 3.6 9-1.2 5.6-7.7-5.2-9.3-31.8-10.2-40.3-8.4-89.2 71.4-126.9 118-188.4 41.4-54.6 49.7-105.5 106.6-153.1 8.4-7 20.2 1.4 11.8 10.2z"  fill="#005bbb" /><path d="M127.4-288c-32.3 42.2-42.9 94.5-71 138.9-26.8 42.3-77.7 75.3-86.7 127-9 51.3 19.2 61.4 27.6 95 1.2 4.7-7.3 2.1-3.7-1.1 3.6-3.3 5.3 5.4 0.7 3.7-9.2-3.4-20.2-33.1-23.9-41.7-37.9-88.1 41.7-134.1 81.7-200.6 24.5-40.8 35.2-87.7 62.8-127 5.6-8 17.8-3.7 12.5 5.8z"  fill="#005bbb" /><path d="M135.5-77.4c-4.4 38.6-9.3 76.1-8 115.1 0.2 5.9 5.6 40.8-3.8 40.1-6-0.4-4.9-9.8 1.1-8.8 5.9 1 3.8 10.3-2 8.7-7.5-2.2-3.6-36.9-3.9-43.8-1.3-34-5.1-81.3 7.2-113.6 2.1-5.5 9.3-2.9 9.4 2.3z"  fill="#005bbb" /><path d="M143.8-210c-0.9 36.1 7.2 71.7 8.3 107.7 1.1 38-5.3 75.6-7.6 113.4-0.8 13.5 4.5 55.7-4.4 65.5-5.1 5.5-12.3-4.7-5.3-7.6 7-2.9 9.2 9.5 1.6 9.1-9.9-0.4 4-125.6 5.2-140.2 4.4-50.2-7.2-98.1-6.6-147.9 0.1-5.8 8.1-5.5 8.8 0z"  fill="#005bbb" /><path d="M153.7-300.1c-37 49.4-41.3 106.6-61.8 162.7-14.9 40.7-44.6 78-47.9 122.3-1.6 22 20.7 84.6 19.2 89.3-1.7 5.5-9.5-0.9-4.4-3.7 5-2.8 6.3 7.2 0.7 5.7-5.7-1.5-10.3-24.5-12.2-29.7-30.3-86.6 11.6-122.7 38.2-199.7 18.1-52.5 23.5-105.4 55.7-152.5 5.5-8 17.7-3.9 12.5 5.6z"  fill="#fff500" /><path d="M162.5-291.9c-33.1 54.6-24.4 113-27 173.7-1.7 40.5-11.6 80.1-12.3 120.6-0.2 9.3 5.9 76-2.2 75.7-5.1-0.2-5.5-7.8-0.5-8.7 5.9-1 6.9 8.3 0.9 8.7-8.7 0.5-5.5-34.4-5.8-40.4-2.9-53.8 7.8-104.4 10.9-157.7 2.6-44.8-4.4-90.3 7.2-134.2 3.6-13.6 8.7-34.6 18.6-45.1 5.3-5.7 12.8 1.1 10.2 7.4z"  fill="#c2e1ff" /><path d="M169.7 74.9c-5.1 10.5-13.5-6.9-3.6-5.6 11.3 1.5-4.6 15.9-5 4.5-0.2-6.4 9.1-6.9 9-0.2z"  fill="#fff500" /><path d="M179.2-31.4c-1.5 14.5-12.3 103.1-19 108.6-6.4 5.3-12.8-7-4.7-9.1 8.1-2.1 8.6 11.7 0.4 10.2-10-1.8 1.7-33.6 2.9-40.3 2.6-14.6 5-63 11.7-72.7 3-4.4 8.7-1.3 8.7 3.3z"  fill="#c2e1ff" /><path d="M186.3-121.9c16.8 51.6 10.6 100.7-1.5 152.5-1.9 8-7.3 48.8-17.3 48.4-10.3-0.3-3.1-16.7 4.2-9.4 6.2 6.2-6.2 14-9.2 5.8-2.4-6.7 20.3-83.6 22.8-98.3 3.6-22.2 5.1-44.7 1.7-67.2-0.9-6.1-10-28.4-6.3-32.9 1.7-2.2 4.7-1.2 5.6 1.1z"  fill="#fff" /><path d="M194.5-140.1c30.9 65.7 24.8 122.4 1.6 189.6-2.2 6.2-6.6 30.7-15.7 29.6-9.2-1-4.2-15.6 3.7-10.7 9.3 5.6-5.8 17-8.7 6.5-1.8-6.5 28.6-86.7 32.1-110 7.6-51.4-19.1-88.8-18.3-104 0.2-3 3.9-3.2 5.3-1z"  fill="#c2e1ff" /><path d="M202.6-176.2c52.8 85.7 82.5 111.5 34.4 214-3.9 8.3-15.4 41.6-25.7 42.2-11.9 0.8-5.5-18.9 3.7-11.2 9.1 7.6-9 17.5-10.4 5.6-0.3-2.5 46.5-93.8 48.2-128.1 2.2-45.5-26.1-78.9-50.1-114.3-1-1.5-5.1-14.2-0.1-8.2z"  fill="#fff" /><path d="M214.5-282.2c-21.3 86 92.4 118.7 122.2 184.1 18.7 41 7.1 85.4-9.8 124.8-3.9 9-21.1 56.9-33.3 53.3-7.3-2.2-5.2-13.3 2.3-12.8 7.6 0.6 7.9 11.9 0.5 13-17.8 2.5 5-28.8 7-32.6 19.8-36.6 39.8-81.2 33-123.8-11-69.6-86.9-91.7-119.6-147.4-8.9-15.2-19.7-43.7-12-61.4 2.5-5.7 10-2.7 9.7 2.8z"  fill="#005bbb" /><path d="M223.7 40.4c-3 6.9-15.1 44.5-25.8 38.1-7.2-4.4 0.2-15.4 6.9-10.3 6.7 5.1-1.9 15.3-8 9.5-5.9-5.6 12.4-40.2 17.8-44.4 5.2-4.1 10.8 1.7 9.1 7.1z"  fill="#c2e1ff" /><path d="M231.8-279.6c-12.4 71.2 75.6 103.1 112.6 148 46.9 56.8 24.9 125.7 2.6 187.7-1.9 5.4-5.7 27.1-15.1 22.8-5.2-2.4-3.9-10.4 1.8-11.1 6.7-0.7 8.9 9.1 2.4 11.3-15.4 5.2 0-26.5 1.1-29.4 15-40.9 33.5-86.8 25.4-131.1-13-70.5-86-90.5-123.5-143.5-9.5-13.5-22.5-39.3-16.6-56.6 1.9-5.6 9.1-3.3 9.3 1.9z"  fill="#005bbb" /><path d="M241.2 27.5c-3.5 8.1-22.8 58.9-34.1 51.3-7.2-4.8 0.9-15.8 7.6-10.2 6.7 5.5-2.6 15.6-8.7 9.4-5.5-5.7 19.9-52.9 26.1-57.7 5.2-4.1 10.8 1.7 9.1 7.2z"  fill="#005bbb" /><path d="M245.8-146.1c52.1 59.2 52.4 117.5 16.1 185.9-4.4 8.3-17.8 40.3-28.1 40.3-12.4 0-4.3-20 4.6-11.5 8.9 8.5-10.6 17.5-11.2 5.2 0 0 48.3-89.5 52.4-114.6 3.9-23.7 0-47.1-11.3-68.2-0.8-1.4-31.5-45.3-22.5-37.1z"  fill="#fff" /><path d=""  fill="#fff" /><path d="M248.9-392.3c-47.5 36.7-95 71.1-126.2 123.9-39 65.9-34 105.5-89.9 181-5.7 7.7-21.2 42.1-29.3 43.7-9.1 1.8-8.8-13.5 0.2-11.3 9 2.1 2.3 16-5 10.2-14-11 54.3-93.2 61.8-106.5 49-87.3 33.9-131.6 122-209.2 16.6-14.7 38.1-36.5 58.6-45.3 8.8-3.8 13.9 7.5 7.8 13.5z"  fill="#c2e1ff" /><path d="M276.2-321.3c-84.3 85.6 76.7 148.8 105.1 216.3 22.3 53 2 108.1-9.5 161-0.9 4-1.9 24.1-10.9 18.3-4.2-2.7-2.1-9.6 2.9-9.4 5.9 0.2 6.6 9.1 0.8 10.1-11.9 2.2-2-25.6-1.1-29.8 8.4-38.5 22.5-77.9 18.7-117.9-8.8-93.2-106.2-103.9-133.6-178.2-8.9-24-5.1-64.8 18.1-81 7.2-5 13.9 4.2 9.5 10.6z"  fill="#fff500" /><path d="M220.7-392.2c-55.9 43.9-116.4 86-150.1 150.5-11.7 22.4-56.4 113.8-81.9 116.3-11.8 1.2-9.5-18.4 1.8-14.5 11.2 3.9 0.9 20.7-7.7 12.5-9.1-8.8 33.5-45 39.8-53.6 24.1-32.8 36.6-72.4 60.2-105.6 31.5-44.4 76.9-78.5 119.7-111.3 9.8-7.5 33.9-9.9 18.2 5.7z"  fill="#fff500" /><path d="M293.3-30.9c-3.1 18.8-36 105.3-52.8 110.7-10.1 3.3-11.8-14.2-1.3-12.9 10.5 1.3 4.7 17.9-4.3 12.3-10.3-6.4 17.9-40 22.1-47.5 5.4-9.7 25.2-65.5 28.3-67.8 4-3 8.4 0.8 8 5.2z"  fill="#fff500" /><path d="M299.1-235.2c19.5 36.7 59 58.3 83.2 91.7 38.2 52.8 29.2 109.5 20.7 169.8-1 7.4 0.2 49-5.9 51-7.4 2.4-6.5-11.1 0.5-7.8 7 3.4-2.9 12.6-5.7 5.3-13.9-36.2 19.2-118.5 7.4-168.7-13.9-58.9-63.2-85.2-97.8-129.8-1.9-2.5-7.7-18.2-2.4-11.5z"  fill="#c2e1ff" /><path d="M307.8-113.2c33.8 50 15.3 108.6-11 157.4-4.6 8.4-14.4 32.8-24 35.7-8.7 2.7-12.3-11.2-3.3-13 10.5-2.1 10.1 15.6-0.2 13.1-14.3-3.5 8.1-27.9 11.1-32.8 14.3-23.5 26.9-49 33.5-75.8 4.4-17.7 5.6-36.2 1.4-54.1-2.4-10.2-13.9-38.8-7.5-30.5z"  fill="#fff" /><path d=""  fill="#fff" /><path d="M324-168.8c71.7 57.5 70.9 115.5 49.2 198.2-2.3 8.6-6.4 45.5-14.5 48.6-6.7 2.5-10.1-8.2-3.2-10 6.9-1.8 9.1 9.3 2.1 10.3-12.5 1.8-0.8-27.2 0.3-31.9 9.5-38.2 23.9-77.6 20.5-117.5-2.7-32.5-18.5-60.9-41.6-83.4-1.4-1.4-16.5-16.7-12.8-14.3z"  fill="#c2e1ff" /><path d="M334.1-114.2c40.3 61.5-8.6 185.9-28 193.9-9.4 3.8-12.3-12.8-2.1-12.4 8.7 0.4 7.3 14.1-1.3 12.8-13.5-2.1 3.4-23.2 5.9-27.9 13.4-25.6 25.3-53.1 31.6-81.4 4-17.8 5-36.4 0.9-54.3-2.3-10.2-13.3-39-7-30.7z"  fill="#005bbb" /><path d="M346.2-286.3c-24.4 59.4 57.7 120.3 77.6 174.3 17.9 48.6 6.8 95.5 8 145.4 0.1 5.9 7.7 41.7 3.5 42.8-4.9 1.3-5.2-7-0.3-6.1 5.8 1 0.4 9.7-3.1 5-21.3-28.7-2.7-110.5-6.1-146.9-8-82.7-63-104.7-88.1-169.4-5.2-13.3-9.7-36.6-1.6-49.7 3.6-5.9 11.3-1.4 10.1 4.6z"  fill="#c2e1ff" /><path d="M352.5-240.1c13.2 43.1 52.6 74.7 70.6 116.2 22.1 50.9 12.6 99.6 14 152.8 0.2 6.3 8.5 46.7 5.6 47.6-4.5 1.4-5.2-6.4-0.6-5.7 4.7 0.6 2.1 8-1.9 5.4-17-10.6-7.5-139.9-13.5-168-11.9-56.2-54-89.9-77.1-139.7-1.8-4-1.2-16.4 2.9-8.6z"  fill="#fff" /><path d="M361.1-102.1c18.9 41.4 8.3 86.2-5.4 127.4-2.9 8.7-13.9 55.2-24.6 53.8-9.3-1.1-4.1-15.7 3.8-10.8 7.9 4.9-2.9 16-8 8.2-4.8-7.3 23.6-68.3 29.7-92.4 4.5-17.8 7.3-36.1 5.7-54.5-0.8-9.2-7.8-22.3-6.8-30.9 0.4-3.2 4.3-3.2 5.6-0.8z"  fill="#fff" /><path d="M371.6-396.3c-17.2 55.1-109.1 80.3-88.2 147.1 24.8 79.1 128.4 81 123.7 205.4-0.2 5.7 1.7 25.5-6.1 26.6-7.7 1-6.7-11.8 0.7-9.5 8.7 2.7-1.2 15-5.7 7.1 0-0.1 2.6-71-10.3-99.3-26.4-57.6-121.3-93.3-113.5-164 4.7-42.2 44.2-62.3 70.4-90.3 7.7-8.2 12-22.8 19.9-29.6 4.8-4.1 10.4 1.2 9.1 6.5z"  fill="#fff500" /><path d="M379.1-240c11.2 49.1 51.2 88.4 66.2 137.1 15.1 49.1 2.9 99.7 15 148.6 1.3 5.3 12.2 25.3 10.3 29.1-1.7 3.4-6.6-0.5-3.6-2.9 2.9-2.4 5.8 3.2 2.1 4.1-22.9 5.8-23.6-147-26.6-162.1-11-55.1-48.8-94.2-67.5-145.3-1.7-4.5 0.4-17.1 4.1-8.6z"  fill="#fff500" /><path d="M389.7 13.1c-1.8 8.6-8.8 66.1-16.4 64.8-7.5-1.3-2.8-13 3.5-8.7 5.4 3.7-0.9 11.9-5.8 7.6-7.3-6.3 4.9-58.5 9-67.1 2.8-5.7 10.2-2.3 9.7 3.4z"  fill="#c2e1ff" /><path d="M396.8-91.8c12.5 44.3-11.5 170.5-17.7 169.7-7.3-0.9-3.2-12.5 3.1-8.5 6.2 3.9-2.4 12.7-6.4 6.4-5.3-8.2 9.3-71.6 11.7-84.5 3.2-16.9 5.9-34 5.8-51.3-0.1-9-5.4-23.6-3.2-31.9 1-3.7 5.6-3 6.7 0.1z"  fill="#fff500" /><path d="M406.8 41.2c-0.5 6.5 3.2 31.4-1.5 35.3-4.9 4-9.7-5.4-3.6-7 6.1-1.6 6.6 8.9 0.4 7.8-7-1.3-6.6-33.8-3.9-38.6 2.6-4.4 8.2-1.8 8.6 2.5z"  fill="#fff" /><path d="M415.7 8.6c-1.4 10.7 0.2 62.2-2.1 66.5-2.9 5.3-10.4-1.3-5.6-4.9 5.7-4.2 8.8 7.7 1.8 6.8-10.6-1.3-6.5-62.4-3.4-70.7 2.1-5.5 9.3-3 9.3 2.3z"  fill="#fff500" /><path d="M424.3-33.7c-1.8 31.6-8.8 63.1-5.6 94.9 0.3 3.3 4.6 15-1.5 15.9-4.9 0.7-5.5-7-0.6-7.2 4.9-0.2 4.7 7.6-0.2 7.2-13.5-1-7.4-102.8-0.6-113.6 2.7-4.3 8.4-1.6 8.5 2.8z"  fill="#c2e1ff" /><path d="M430.9-183.2c21.6 45.5 41.8 90.5 48.1 141 2.8 22.6 3.2 45.6 8.5 67.8 3 12.9 7.9 25.3 14.7 36.6 1 1.6 10.7 11.8 6.2 13.2-2.4 0.7-3.3-3.1-0.9-3.6 2.4-0.4 2.9 3.4 0.5 3.6-7.9 0.6-20.7-30.3-23.1-36.3-14.5-36.7-11.1-77.7-19.3-115.9-4.1-18.8-40-101-39.8-105.3 0.1-3 3.8-3.2 5.1-1.1z"  fill="#fff" /><path d="M442-272.6c-7.5 61 25.4 115.9 46.3 171 14.5 38.3 20.4 78.2 32.4 117.1 5.1 16.6 12.5 32.3 22.5 46.4 1.1 1.6 11.8 11.8 7.2 13.3-7.4 2.4 7.2-3.3 0.2 0-3.6 1.6-9.3-9.2-11-11.5-24-31.6-31.2-68.3-40-106.1-14.4-62.2-48.5-117.6-63.1-179.3-3.5-14.7-8.8-37.9-3.8-52.8 1.9-5.5 9.1-3.2 9.3 1.9z"  fill="#fff500" /><path d="M448.6-136.1c23.1 53.5 20.8 105.7 32.3 161.3 2.7 12.9 7.1 25.5 13.6 36.9 0.9 1.6 10.5 12.1 5.8 13.4-2.5 0.7-3.4-3.3-0.8-3.7 2.6-0.4 3 3.6 0.4 3.8-21.7 1.1-32.4-109-35.7-133.6-3.5-26.6-17.2-50.9-21.1-76.6-0.5-3.5 4-4.3 5.5-1.5z"  fill="#005bbb" /><path d="M457.8-197c12.9 42.2 33.4 81.8 47.9 123.4 11.1 31.8 16.6 65.4 28.7 96.9 3.5 9 28.4 46.4 28.5 49.9 0.1 2.9-4.6 2-3.5-0.7 1.3-3.1 5.5 1.1 2.4 2.4-8.7 3.7-33.1-50.1-35.8-57-9.2-24-14.1-49.4-21.4-74.1-10.6-35.6-50.9-110-53.1-139.6-0.3-3.9 4.8-4.4 6.3-1.2z"  fill="#fff" /><path d=""  fill="#fff500" /><path d=""  fill="#005bbb" /><path d=""  fill="#c2e1ff" /><path d="M493.2-59.8c8.1 33.3 9.6 68.8 24 100.4 2 4.5 20.6 34.2 19.3 34.6-6.5 2.2 6.4-2.9 0.2-0.1-3.6 1.6-9.3-9.1-11-11.4-12-15.8-47.2-109.4-39-124.4 1.7-3 5.5-1.9 6.5 0.9z"  fill="#fff500" /><path d=""  fill="#005bbb" /><path d="M510.7-360.8c23.1 81.9-21.4 133.2 26 231.7 6.1 12.6 72.2 132.2 62.8 135.2-4.5 1.5-5.3-6.3-0.6-5.8 4.7 0.5 2.1 8-1.9 5.5-10.3-6.3-19-45.3-24.6-57-24.3-50.2-57.5-96-67-152.1-7.8-46.1 5.6-91.4 1.4-137.5-0.4-4.6-5.5-17.8-2.1-21.5 2-2.2 5-0.9 6 1.5z"  fill="#fff500" /><path d=""  fill="#005bbb" /><path d="M528.8-208.4c4 50.6 30 92.5 53.9 135.7 2.6 4.7 23 38.2 17 40.5-3 1.2-5.3-3.1-2.5-4.9 3.2-2.1 6.2 3.1 2.8 4.8-5.2 2.7-15.8-26.7-18-30.9-18.7-36.1-42.1-70-53.8-109.3-3.1-10.2-8.7-25.3-7.3-36 0.6-4.9 6.9-4.1 7.9 0.1z"  fill="#fff" /><path d=""  fill="#fff500" /><path d="M546.5-334.2c6.4 67.7-21.4 120.1 6.5 188.8 5.5 13.5 49.2 88.2 48.2 93.5-0.9 4.9-8.2 0.2-4.2-2.7 3.4-2.5 6.2 4 2.1 4.8-5 1-17.9-30.4-20.7-35.2-22.1-39.6-44.4-78.7-48.4-124.9-2.8-31.5 3.5-62.2 6.9-93.4 0.7-6.6-2.2-30 2.9-34 2.8-2.2 6.1 0 6.7 3.1z"  fill="#005bbb" /><path d="M555.9-299.4c-6.5 58-16.6 107.8 8.1 163.6 4.4 9.9 37.7 66.8 37 71.1-0.7 4-7 1.5-4.6-1.9 2.7-4 7.4 3 2.6 4-5 1.1-16.5-26.9-19-31.4-20.8-37.3-39.9-75.1-42.3-118.6-1.5-26.3-0.8-64.4 8.9-89.2 2.1-5.5 9.4-2.9 9.3 2.4z"  fill="#c2e1ff" /><path d="M561.8 49.8c1.9 3.2 17.4 23.1 14.3 25.1-2.2 1.5-4.3-2.1-1.9-3.3 2.3-1.2 4.1 2.6 1.6 3.5-3.6 1.4-18-20.5-18.3-23.9-0.2-2.6 2.9-3.1 4.3-1.4z"  fill="#005bbb" /><path d="M573.3-312.5c-4 54.2-23.4 102-6.2 156.4 11 34.9 35.4 75.4 31.7 75.9-3.4 0.4-3.7-5.1-0.3-5.1 3.5 0 3.2 5.4-0.3 5.1-4.6-0.5-8.8-14.1-10.7-17.9-20.3-37.9-37.7-76.3-37.4-120.1 0.2-29.3 4.1-68.8 14.1-96.4 2-5.5 9.1-3 9.1 2.1z"  fill="#c2e1ff" /><path d="M582.5-277.8c-10 41.9-17.6 81.8-4.8 124.2 2.2 7.1 23.6 57.5 21 57.7-3.5 0.3-3.7-5.3-0.2-5.2 3 0.1 3.4 4.6 0.5 5.2-7.3 1.5-24.9-48.7-27.3-55.7-12.6-36.7-17.6-93.8 1-129.8 3-5.7 10.5-2 9.8 3.6z"  fill="#fff" /><path d="M589.7-355.7c14.8 58.3-22.9 114.6-15.8 173.6 2.7 22.6 10.5 44 20 64.6 1 2.2 11.5 17.6 4.8 18.1-3.6 0.3-3.7-5.3-0.1-5.2 3.1 0.1 3.4 4.6 0.4 5.2-5.3 1-11.1-18.1-12.9-22-32.4-69.6-18.6-112.5-4.9-183.3 1.8-9.3 2.1-70.7 8.5-51z"  fill="#fff" /><path d=""  fill="#fff" /><path d="M603.9-277.9c-10.6 35.6-21.7 70.1-15.9 107.8 1 6.5 14.7 50.3 10.8 50.4-3.4 0-4-4.9-0.7-5.7 3.3-0.8 4.9 4 1.9 5.4-11.2 5.4-29.3-71.6-17.5-123 2.4-10.6 5.6-21.1 8.9-31.5 2.2-7.2 14.8-16 12.5-3.4z"  fill="#fff500" /><path d=""  fill="#005bbb" /><path d="M603.8-225.6c-4.2 16.2-6.1 32.9-5 49.6 0.3 5.2 6 22.7 2.5 26.5-3.8 4.1-9-3.5-3.9-5.6 5.1-2.1 6.7 7 1.2 6.7-13.6-0.6-9.2-71.4-4.6-80.7 2.8-5.7 10.4-2.2 9.8 3.5z"  fill="#005bbb" /><path d=""  fill="#005bbb" /><path d=""  fill="#005bbb" /><path d=""  fill="#fff" /><path d=""  fill="#fff500" /><path d=""  fill="#fff500" /><path d=""  fill="#fff" /><path d=""  fill="#005bbb" /><path d=""  fill="#005bbb" /></svg>