<svg width="1200" height="675" viewBox="-500 -500 1200 675" xmlns="http://www.w3.org/2000/svg"><path d="M-500-500h1200v675h-1200z" fill="#000"/><path d=""  fill="#005bbb" /><path d=""  fill="#fff" /><path d="M-394.6-105c2.1 8.8 29.4 68.5 25.6 70.1-4.5 1.8-6.9-5.5-2.2-6.7 4.7-1.3 6.3 6.2 1.5 6.9-6.1 1-9-13.2-10.9-17-32.6-66.2-15.8-57.3-14-53.3z"  fill="#c2e1ff" /><path d=""  fill="#c2e1ff" /><path d=""  fill="#005bbb" /><path d=""  fill="#c2e1ff" /><path d="M-395.8-28.3c15.4 27 25.8 55 24.2 86.5-0.3 5.9 1.3 20.9-7.3 21.8-8.7 0.9-9.4-12.9-0.7-12.8 10.2 0 6.5 16.6-2.7 12.2-8.7-4.1-0.5-28.3-0.4-35.7 0.5-24.4-27.3-91.9-13.1-72z"  fill="#fff" /><path d="M-394.6-304.8c16.9 55.6 29.2 111.9 44.7 167.7 9.8 35 25.4 68.7 31.1 104.8 2.4 15.2 7.4 85.7-13 91.1-11.1 3-12-16.1-0.7-14.1 13.3 2.3 1 22.3-7 11.4-5.7-7.7 19-51.9 7.9-105.3-6.7-32.3-20.2-62.9-29.1-94.7-14.5-51.7-25.4-104.1-41-155.5-1.8-5.8 3.9-12.7 7.1-5.4z"  fill="#fff500" /><path d="M-394.5-343.3c18.8 72.5 43.1 144.3 64.5 216.1 7.5 25.2 39.4 134 17.4 152.3-8.2 6.8-16.4-8.9-6-11.7 8.8-2.4 11.8 11.7 2.7 13.2-14.7 2.3-3-31.1-2.4-37.5 2.4-27.9-2.9-55.4-10.4-82.3-22.9-82.1-50.2-162.9-73.4-244.8-1.7-6.1 4.4-12.8 7.6-5.3z"  fill="#fff" /><path d="M-394.1-119c10.8 63.5 56.8 108.4 43.4 176.8-1.1 5.6-1.6 17.3-6.8 21.1-9 6.6-16.5-10.3-5.5-12.5 9.3-1.9 11.5 13 2 13.8-14.2 1.3 5.2-56.2 0.5-84.4-6.1-36.3-43.7-80.4-42.8-113.9 0.2-5.7 7.5-5.6 9.2-0.9z"  fill="#fff" /><path d="M-383.9-105.3c16 56.1 50.1 97.7 37.6 159.4-1.4 6.7-2.2 20.8-8.1 25-7.9 5.6-16-7.4-7.5-12 9.9-5.5 15.2 12.5 3.9 13.3-14.3 1 6-58.4 2.9-83.9-4.3-35.3-34.4-69-36.9-100.2-0.4-5 6.1-5.7 8.1-1.6z"  fill="#005bbb" /><path d="M-371.4 35.7c0.8 7.4 5.1 47.4-9 44.2-8.6-2-4.7-15.3 3.5-12.4 8.3 2.9 3.1 15.7-4.9 12-6.4-3-2.8-42.1 1-46.8 3.3-4 8.6-1.4 9.4 3z"  fill="#005bbb" /><path d="M-361-187c18.3 79.6 62.2 158.2 34.8 240.6-2.3 6.9-5.2 22.8-12 26.6-9 5-16.2-9.6-6.7-13.6 11.1-4.7 14.8 15 2.7 14.6-16.5-0.5 1.7-30.7 3.9-36.7 8.2-23 12.5-47.2 10.7-71.7-4-54.1-31.6-104.7-42.2-157.8-1.2-5.9 6.9-7.4 8.8-2z"  fill="#fff" /><path d="M-349.6-353.9c22.5 131.1 108.1 256.2 54 392.2-3.7 9.3-13.4 42-25 43.1-14.9 1.3-7.5-23.7 4.3-14.4 11.8 9.3-10.9 22.3-13 7.5-1.8-12.8 18.7-38.6 23.6-51.1 12.6-31.7 17.4-65.3 16.1-99.3-3.7-96.4-48.3-180.7-68.5-273.2-1.5-6.8 5.9-13 8.5-4.8z"  fill="#005bbb" /><path d="M-354.3-398.4c-3.2 87.3 61.9 205.7 73.2 305 1.1 9.9 9.6 65.4-3.5 67.6-9.5 1.7-8.8-14.4 0.5-11.9 9.4 2.5 2 16.8-5.5 10.6-6.2-5.2-0.5-26.2-0.4-33.4 0.2-23.3-2.4-46.6-6.4-69.6-14.2-81.1-53.6-155.5-66.3-236.5-5.9-37.9 6.5-46.4 8.4-31.8z"  fill="#005bbb" /><path d="M-327.7-155.2c19.6 68.9 40 135.4 13.3 205.6-2.9 7.6-7.2 26-15 29.9-11.1 5.6-16.2-14.4-3.7-14.8 10.6-0.3 10.2 16.4-0.4 15.6-4.4-0.3-7.7-4.4-7.1-8.8 3.3-24.8 27.4-51.8 29-98.3 1.9-51.1-23.2-92.4-24.4-127.8-0.2-5.2 6.6-5.6 8.3-1.4z"  fill="#fff500" /><path d="M-313.9 33c-2.3 8.7-12.7 55.1-26.9 47.6-9.3-4.9-0.7-19.1 8-13.2 8.7 5.9-1.4 19.1-9.4 12.2-7.1-6.1 12.8-55 21.2-55.6 5.2-0.4 8 4.4 7.1 9z"  fill="#c2e1ff" /><path d="M-305.3-208.2c24.5 79.5 41.3 168.4 9 248.1-4 9.9-11.6 36.6-22 41.1-10 4.4-16.1-11.8-5.7-15.1 12.2-3.8 14.1 17.3 1.4 15.7-17.5-2.3 5.6-33.2 8.5-39.2 14.1-29.2 22.7-60.3 24.3-92.8 1.8-35.8-3.5-71.6-11.1-106.5-2.3-10.5-16.6-42.7-12.3-51.9 1.8-3.7 6.4-2.7 7.9 0.6z"  fill="#c2e1ff" /><path d="M-291.1 46.5c-3.7 8-13.5 37.9-25.6 34.6-10.7-2.9-5.3-19.5 5.1-15.5 12.1 4.7 0.2 22.6-8.8 13.3-7.1-7.3 11.2-37.5 17.7-42.2 7-5.1 14 2.8 11.6 9.8z"  fill="#005bbb" /><path d="M-282.2-135.8c11.8 65.6 9.9 131.2-19.5 192-3.2 6.6-7.7 21.5-14.9 24.6-11.8 5.1-15.8-15.9-3-15.5 11 0.3 9.6 17.6-1.3 16.1-18.3-2.5 21.7-58.9 30.1-101.1 5.2-26.3-1.8-113.3-0.7-116.8 1.7-5 8-3.7 9.3 0.7z"  fill="#fff" /><path d="M-270.6-398.6c3.1 86.3 25.1 171.3 25.8 257.5 0.2 17.9-3.9 146.3-26.9 145.3-13.3-0.6-3.7-21.7 5.5-12.1 7.9 8.2-8.2 18-11.9 7.2-3.5-10 20.9-51.3 22.1-140.4 0.9-63.4-34.2-213.8-25.3-258.3 1.3-6.5 9.7-5 10.7 0.8z"  fill="#005bbb" /><path d="M-259.3-318.5c10.2 125.3 36.8 240-21 360-4.3 8.9-15.2 40-26.8 40.4-11.2 0.5-11-17.3 0.2-16.5 11.2 0.7 9.1 18.4-2 16.4-18.4-3.2 13-44.1 16.7-51.4 18.8-37.6 28.8-78.4 34.4-119.9 11-81.7-16.3-200-11.8-229.3 1-6.3 9.1-5.2 10.3 0.3z"  fill="#fff500" /><path d="M-250.1-399c3.7 79.5 14.4 160.1 14.4 239.6 0 16.2-3 128.2-21.9 128.8-10.8 0.3-7.4-17.2 2.4-13.1 11.6 5-3.9 20.5-8.9 9-2.6-5.9 16.4-99.9 17-124.8 1.3-56-21.7-199.7-13.7-240.3 1.3-6.5 9.7-5 10.7 0.8z"  fill="#c2e1ff" /><path d="M-236.4-398.8c6.4 129.5 19.8 281.4-24.7 404-3.6 9.8-12.8 45-24.6 46.3-10.8 1.2-11.7-15.9-0.8-15.9 10.8 0 9.9 17.1-0.9 15.9-17.7-1.9 7.8-39.8 10.8-47.2 18.1-44.3 27.9-92.9 33.4-140.3 9.9-86-3.4-175.8-4-262.4 0-7.1 9.6-7.2 10.8-0.4z"  fill="#fff" /><path d="M-224-55.4c-8.4 22.6-47.3 130-66.3 136.7-12.6 4.5-15.3-17.5-2.1-16.3 13.3 1.2 6.5 22.4-5 15.7-13.2-7.7 16.9-43.3 21.6-52 8.5-15.8 32.8-85.6 40.1-92.2 6-5.4 13.4 1.2 11.7 8.1z"  fill="#005bbb" /><path d="M-212.6 58.8c-3.1 5.7-13 32.3-23.3 19.6-5-6.2 1.5-15.4 9-12.6 8.8 3.2 5.5 16.8-3.8 15.6-15.5-2 0.7-29 6.6-33 7.3-4.9 14.3 3.3 11.5 10.4z"  fill="#fff500" /><path d="M-200.2-398.4c7.1 110.2-3.7 226.9-32.9 333.3-3.1 11.2-14 70.9-27.9 69.6-11.7-1.1-5.7-19.7 4.5-13.8 10.1 5.9-3.1 20.2-9.8 10.6-6-8.6 10.4-38.2 13.3-47.6 11.4-37.2 21.9-75.3 28.9-113.7 11.3-62.3 12.3-129 13.9-192.1 0.4-14.7-3.3-32.6-0.6-47 1.2-6.4 9.5-5 10.6 0.7z"  fill="#fff" /><path d="M-190.1-38.4c-21.2 30.8-36.9 64.9-56.1 96.9-4 6.6-13.2 29.9-24.3 21.7-9.2-6.8 2.3-20.7 10.7-13 8.4 7.7-4.5 20.3-12 11.7-8.3-9.5 16.6-37.2 21.4-45.6 14.3-24.6 26.5-63 47.5-82.5 7.5-7 16.9 2.6 12.8 10.8z"  fill="#c2e1ff" /><path d=""  fill="#c2e1ff" /><path d="M-169.6-385.4c12.3 133.3-29.7 264.9-79.1 386.9-4.3 10.5-21 62.5-35.6 58.6-14.7-3.9 1.1-25.1 9-12.2 6.8 11-13.5 18.2-15 5.3-0.9-7.9 25-50.6 29.6-61.7 20.9-50.3 38.4-103.3 54.8-155.4 17.7-56.1 25.3-116.5 27-175.2 0.4-14.8-3.4-32.4-1-46.8 1-6.3 9.2-5.1 10.3 0.5z"  fill="#fff" /><path d="M-156.5-7.3c-15.1 21.2-26.5 44.7-37.4 68.2-2.8 6.1-7.5 24.9-18 19.3-9.2-4.9-0.7-19.1 8-13.1 8.7 5.9-1.4 19-9.3 12.2-10.3-8.8 33.8-92.3 45.6-98.8 8.2-4.5 14.8 4.9 11.1 12.2z"  fill="#fff" /><path d="M-147.3-380.6c18.5 144.9-40.2 243-92.7 371.7-4.6 11.3-24.3 71.3-39.6 67.2-14.7-3.9 1.1-25.1 9-12.2 6.8 11.1-13.5 18.2-15.1 5.3-0.9-7.9 25.2-50.8 30-61.7 25.4-59 51.6-118.5 75.5-178.1 16.9-42.1 23.9-86.3 25.2-131.6 0.5-16.3-7.7-47.4-2-61.8 2-5.2 8.6-3.4 9.7 1.2z"  fill="#005bbb" /><path d="M-129.7-399.1c30.4 172.9-3.6 177.6-73.8 318.1-6.4 12.8-24 73.1-37.1 75.6-11.8 2.2-11.2-17.8 0.5-14.9 10 2.5 5.1 18.1-4.6 14.5-21.1-7.9 92.3-195 100.7-218.2 13.7-37.7 14.5-79.3 11.8-118.9-0.8-11.9-12.1-48.5-6.2-58 2.5-4 7.6-2.2 8.7 1.8z"  fill="#005bbb" /><path d="M-123.9-101.9c-49.9 35.8-77.4 83.1-106.7 135.6-4.9 8.8-25.1 56.4-38.5 46.5-9.2-6.8 2.3-20.7 10.6-12.9 8.4 7.7-4.5 20.3-12 11.7-8.7-10 25-51.8 30.7-62 27.9-49.9 55.1-102 103.9-135.1 11.1-7.5 21.3 7.4 12 16.2z"  fill="#fff500" /><path d="M-112.4-135.4c-59 49.5-86.9 91.6-122.8 159-5.2 9.8-30.3 67.1-44.1 56.7-9.2-6.9 2.4-20.8 10.8-12.9 8.4 7.8-4.7 20.4-12.2 11.7-8.4-9.7 19.4-41.6 24.7-50.8 31.1-54.7 73.7-151.4 133-180.1 10.8-5.2 17.9 8.7 10.6 16.4z"  fill="#fff" /><path d="M-100.4-19.8c-12.2 18.9-20.6 39.8-25.1 61.8-1.7 8.5-0.3 29.3-6 35.6-7.7 8.3-16.1-9.4-4.9-10.2 9.6-0.6 7.2 15.2-1.8 11.8-18.3-7 14.3-98.2 24.8-108.9 7-7.2 16.5 1.7 13 9.9z"  fill="#005bbb" /><path d="M-84.5-399c10.1 62.7 22.4 139.2-7.2 198.3-21.5 42.8-61.7 72.4-89.5 110.8-7.2 9.9-31.6 65-42.9 62.8-10.4-2-6.4-18.2 3.7-15.2 10.2 3.1 4.4 18.8-5.4 14.7-12.7-5.4 5.5-29.6 9-36.1 32-59.9 95.6-105.7 119-160.6 16.3-38.3 13.3-82.7 9.8-123.1-0.9-11-11.1-44.6-5.4-53.5 2.6-4 7.8-2.1 8.9 1.9z"  fill="#005bbb" /><path d="M-78.3-56.8c-25.1 26.7-46.4 55.6-57.5 90.9-2.3 7.1-7 52.5-19.3 44.8-6.4-4-1.5-14.1 5.6-11.6 8.3 3 2.9 15.8-5 12-2.6-1.3-14.1-71.2 62.7-148.5 8.6-8.6 20.3 2.9 13.5 12.4z"  fill="#fff" /><path d="M-67.1-163.7c-49.5 57.8-98.3 69.6-141 145-7.5 13.2-52.2 109.7-67 98.7-9.2-6.8 2.4-20.7 10.8-12.9 8.4 7.8-4.6 20.4-12.1 11.7-8.3-9.6 17.2-38.1 22.3-46.8 87.6-151 50.4-95.7 173.6-208.3 8.9-8.1 20.3 3.1 13.4 12.6z"  fill="#fff" /><path d="M-55.7-212.9c-25.3 66.6-109.1 106.6-149.8 178.4-8.2 14.4-59.2 126-74.6 114.5-9.2-6.9 2.4-20.8 10.8-12.9 8.4 7.8-4.7 20.4-12.1 11.7-8.6-10 25.2-51.5 30.8-61.9 22.9-42.2 42.1-86.5 74.3-122.7 27.3-30.8 63.5-52.7 89.1-84.9 6.1-7.7 12.7-28.2 21.5-32.2 6.8-3.1 11.9 3.8 10 10z"  fill="#c2e1ff" /><path d="M-45.7-335.8c-1.5 52.6-0.3 108.2-31.2 153.4-32.1 47-84 75.3-115.6 123.4-11.7 17.8-55.3 113.4-66.6 117.9-12.2 4.8-15.6-16.6-2.6-15.9 13.1 0.7 7.2 21.7-4.3 15.5-4.1-2.2-5.6-7.6-3.2-11.5 27.6-45.3 46.8-95.9 78.7-138.5 28.8-38.5 70.8-63.7 99.9-101.6 45.9-59.6 20.5-97.1 33.7-144.4 1.9-6.8 10.7-4.5 11.2 1.7z"  fill="#005bbb" /><path d="M-37.9 68.5c6.1 9.3-3.2 7.4-2.7 4.4 1.2-7 9.8 3.2 2.7 3.2-7.8 0-4.7-13 0-7.6z"  fill="#fff500" /><path d="M-22.3-62.3c-11.2 35-5.2 69.3 21.3 95.5 5.1 5 49.4 41.5 49.4 41.5-0.1 0-0.2 0.1-0.3 0.2-2.9 0.8-9-7-11-8.5-35.8-28.8-76.8-52.7-76.4-104.7 0.3-34.9 19.3-41.4 17-24z"  fill="#005bbb" /><path d=""  fill="#005bbb" /><path d="M0.4-197.7c-38.4 89-124.9 111-177.4 184.7-10.2 14.3-48.1 90.4-57.1 94.1-12 5-15.7-16.2-2.7-15.7 15.2 0.6 4.4 24.7-6.2 13.9-8.4-8.6 11.4-31.7 15.6-39.4 61.2-110.5 70.1-98.3 159.4-173.8 21.6-18.2 51.6-69.3 56.8-73.2 6.8-5.1 13.9 2.4 11.6 9.4z"  fill="#c2e1ff" /><path d="M11.7-337.9c-23.4 48.5-23.2 105-50.6 151.8-34.3 58.8-102.8 82.8-143.5 136.3-21.9 28.7-49.9 92.7-60.9 85.7-10.8-6.9 4.2-22 11.1-11.2 6.9 10.8-13 18.2-14.8 5.5-1.7-12 17.6-35.3 23.4-45.7 59.2-106.8 97.4-93.3 158.5-163.6 46.1-53 36.3-130.9 63.7-166.6 5.7-7.4 15.5-0.2 13.1 7.8z"  fill="#fff500" /><path d="M22.6-122.1c-11.5 37.4-16.8 77.1 10.6 109.1 18.3 21.3 80.4 57.5 82.3 85.9 0.5 7-11.1 3.3-6.7-2.1 3.8-4.6 9.9 3.2 4.5 5.8-3 1.4-29.3-40.8-35-46.3-30.6-29.1-70-49-76-95.3-1.9-15.1-2.9-51.8 8.5-63.8 5.3-5.6 12.8 0.1 11.8 6.7z"  fill="#005bbb" /><path d="M27.8 23.1c6.8 5.3 67.2 43.7 60.6 52.1-2.6 3.3-6.9-2.1-3.3-3.9 3.7-1.9 5.4 4.8 1.3 4.9-4.6 0.2-12.7-14.6-15.9-17.8-13.1-13-29.1-22.8-44.1-33.5-1.2-0.9 0.1-2.6 1.4-1.8z"  fill="#fff" /><path d="M38.9 27.2c6.5 4.6 60.6 39.7 53.4 48.2-2.8 3.4-7.3-2.4-3.3-4.2 4-1.9 5.6 5.3 1.2 5.2-4.5 0-10.4-12.8-13.3-15.9-11.3-12.6-25.4-22-39.2-31.7-1.1-0.8 0-2.2 1.2-1.6z"  fill="#005bbb" /><path d="M52-44.6c12 21.7 88.2 98.3 78.7 119.8-2.5 5.6-11.2 1.2-8.1-4.1 3.6-6.2 12.4 1.9 6.5 6-6.7 4.6-20.1-39.9-24-46.5-14.7-24.6-36.9-42.9-53.6-65.8-2.2-3.1-5.2-16.4 0.5-9.4z"  fill="#005bbb" /><path d="M67.2-371.8c-65.1 55.2-57.4 124.9-97.6 191.6-31.7 52.6-89.1 74.4-130.9 116.6-8 8.1-36.4 55.8-47.4 48.2-10.8-7.5 5.2-22.3 11.9-10.9 6.6 11.3-14.1 18-15.4 4.9-0.6-6.6 6.6-13.9 9.9-19 38.3-58.5 94.1-79.4 139.9-127 47.3-49.1 45.7-119.2 80-175.1 9-14.6 23-36.7 38.6-45 10.4-5.6 18 7.8 11 15.7z"  fill="#fff500" /><path d="M78.3-390.6c-89.5 74.4-61.3 126.2-111.5 209.3-29.3 48.5-80.4 70.4-120.7 107.5-7.8 7.2-33.5 46.8-44.4 38.2-10.7-8.4 6.7-22.7 12.9-10.6 6.2 12.1-15.6 17.8-16.1 4.3-1.3-32.6 111.6-101.2 135.9-126.2 50.2-51.3 46.2-126.3 83.4-184.5 11.5-17.9 30.2-44.3 49.8-54.1 10.7-5.4 17.9 8.4 10.7 16.1z"  fill="#fff" /><path d="M90-298.9c-38.4 39.5-50.5 94.2-71.4 143.5-18 42.4-52.2 90.3-45.8 138.4 3.4 25.5 19.4 45.3 38.8 61 4.2 3.4 39.9 26.4 38.1 30.1-0.2 0.5-0.9 0.9-1.5 0.9-4.8-0.3-15.8-12.8-20.1-16-43.2-32-77.7-66-63.7-124.4 6.8-28.2 79.6-199.8 95.3-223.7 22.4-34.3 42.3-26.8 30.3-9.8z"  fill="#fff" /><path d="M96.1 37.6c4.4 4.7 29.3 33.3 21.1 39.3-4.3 3.1-8.9-4-4.3-6.7 4.7-2.7 8.4 4.9 3.6 7.1-6.8 3-10.2-15.1-11.9-18.4-0.5-0.9-15.6-28.1-8.5-21.3z"  fill="#005bbb" /><path d="M107.9 22.5c4.7 6.6 32.4 48.7 21.4 54.7-5.5 2.9-9.7-5.9-3.8-8.3 5.8-2.3 9 6.9 2.9 8.7-5.5 1.6-31.1-67.7-20.5-55.1z"  fill="#005bbb" /><path d="M122.8-100.6c-7 67.3 32.9 162 23 176.9-4.7 7-14.4-3.1-7.2-7.5 7.2-4.4 11.8 8.8 3.4 9.9-8.9 1.1-37.2-162.2-30.9-181.6 2.3-7 11.4-4.2 11.7 2.3z"  fill="#fff500" /><path d="M132 31.8c2.4 7 16.5 42.2 6.8 46-6.4 2.6-10-7.7-3.3-9.6 6.7-1.9 9.1 8.8 2.3 10-11.1 1.9-15.2-67.3-5.8-46.4z"  fill="#fff" /><path d="M146.2-301.5c-49.5 59.9-84.9 153-62.8 231 4.1 14.4 69.7 148 52.6 149.3-8 0.6-6.1-12.6 1.4-9.8 6.4 2.4 2 12.3-4 9.2-7.4-3.8-12.2-47.1-16.1-56.7-36.4-91.9-66.7-112.1-40.7-219 8.9-36.6 25.8-92.4 57.2-116.5 8.6-6.6 17.4 4.4 12.4 12.5z"  fill="#c2e1ff" /><path d="M157.4-256.4c-26.5 65.8-45.1 152-32.7 222.5 2.2 12.4 29.6 112.3 16.6 112.5-7.2 0.1-6.7-11.3 0.5-10.7 6.2 0.6 6.3 9.8 0.1 10.6-9.8 1.2-7.4-23.1-8.2-28.4-8.6-57.8-29.1-109.7-22-169.3 4.2-35.2 13.4-115.7 32.7-143.9 5.1-7.4 14.8-1.1 13 6.7z"  fill="#c2e1ff" /><path d="M168 28.9c-1.5 8.2-0.6 52.5-12.1 50.8-8.2-1.3-5.5-14.1 2.5-12 8 2.2 3.9 14.6-3.8 11.6-8.4-3.3-3.2-55.6 5.7-57.5 4.7-1 7.8 2.9 7.7 7.1z"  fill="#c2e1ff" /><path d="M179.2-192c-8.4 60.1-41.4 114.2-38.6 175.9 0.5 11.5 15.4 95.2 3.9 94.9-6.4-0.2-7.2-9.7-0.9-10.9 6.3-1.2 9.1 7.9 3.2 10.5-10 4.3-7.9-14-8.1-18-2.6-43.1-14-85-7.1-128.4 1.7-10.5 33.9-125.7 36.2-128.8 4.2-5.6 11.6-1.3 11.4 4.8z"  fill="#c2e1ff" /><path d="M191.2-17.2c-18.2 23.4-25.9 91.7-28.6 94.6-6.8 7.1-15.8-6.4-6.7-10 10.7-4.2 10.6 15.7-0.1 11.4-17.3-7 11.3-96.9 22.6-107.1 7.7-7 17.1 2.8 12.8 11.1z"  fill="#c2e1ff" /><path d="M202.2-63.1c-20.7 23.2-36 47.6-40.4 78.9-1.9 13.5 3.8 51.8-4.6 61.6-6.1 7.1-15.5-5.3-6.9-9.3 10-4.6 10.9 14.5 0.5 11-9.2-3.1-2.8-35.3-2.5-42.8 1.4-41.6 11.1-80 40.2-111.2 8.1-8.8 20.1 2.3 13.7 11.8z"  fill="#005bbb" /><path d=""  fill="#fff" /><path d="M224.4 7.7c-14.4 12.9-25.6 28.4-33 46.4-2.3 5.6-7 34.1-18.5 25.1-7.5-5.9 2.4-17.1 9.2-10.5 6.8 6.6-4.2 16.7-10.3 9.4-12.6-15.3 27.4-77 41.1-85.2 9.9-6 17.9 6.8 11.5 14.8z"  fill="#fff500" /><path d="M235.9-98.6c-20 37.6-58.4 59.6-69.5 102.7-4.8 18.6-1.5 81.5-15.3 74.9-7.3-3.5-1.2-14.7 5.7-10.4 6.9 4.3-0.4 14.7-6.8 9.7-6.4-5-1-26.7-0.7-33.8 2.4-55 19.3-90.3 55.8-130.7 6.1-6.7 12.1-19.4 19.7-23.9 7.8-4.6 14.4 4.4 11.1 11.5z"  fill="#fff500" /><path d="M245.1-182.6c16.9 99.9-54.7 105.3-77.8 180.8-4.2 13.9-5.1 74.1-9.4 79.1-6.2 7.1-15.5-5.4-6.9-9.3 10.1-4.5 10.9 14.7 0.4 11-8.2-2.9-3-22.7-2.7-28.6 4.5-113.3 29.7-86 74.9-162.9 18.5-31.5 5.2-52.9 12-71.2 1.9-5.1 8.3-3.5 9.5 1.1z"  fill="#fff500" /><path d="M258.5 75.1c-8.4 13.8-23.4-1.3-13.1-8.4 14.6-10.2 16.8 22.1 0.9 13.9-20.6-10.6 22.3-28.8 12.2-5.5z"  fill="#fff" /><path d="M266.9-172.1c34 118.8-50.9 109.1-85.7 186.8-5.1 11.4-8.2 60.2-17.3 64.7-9 4.4-12.9-11.8-2.9-12 10-0.2 6.7 16.1-2.4 12.1-8.2-3.6-1.6-21.2-0.8-27.3 14.5-98.8 54.9-80.9 93.5-144.5 23.4-38.6 1.7-57.5 7.1-79.7 1.1-4.7 7-3.9 8.5-0.1z"  fill="#fff" /><path d="M280.7 31c-7.5 8.4-34.9 53.1-45.3 50.4-12.5-3.3-2.7-22.4 7.3-14.1 8.5 7-3.3 19.9-11.1 11.9-10-10.3 28.4-58.7 39-62.7 9.4-3.6 15 7.3 10.1 14.5z"  fill="#c2e1ff" /><path d="M290.2-396c-64.1 146.7 94.2 179.6 156 273.1 7.3 11.1 48.2 97.7 26.5 104.2-6.2 1.8-9.9-7-4.3-10.2 6.6-3.7 11.8 7 4.8 10-11.4 4.8-8.3-22.9-8.6-27.2-2.2-23-8.5-45.6-19.2-66.2-39.9-76.2-137.2-100-169.9-180.6-11.8-29.2-17.8-82 1.6-110 5.2-7.5 15-0.9 13.1 6.9z"  fill="#fff" /><path d="M301.7-360.3c-1.4 76.2 68.1 106.7 114.5 153.4 50 50.3 78.4 119.9 74.8 191-0.5 9.5 0.8 46.3-9 50.8-10.9 5-11.9-15.8-0.6-11.9 9.6 3.3 0.9 17.8-6.5 10.7-7.3-7 3.5-41.3 4.3-51 2.6-32.4-0.5-65-11.2-95.8-38.4-111-105.6-111-155.7-184.6-10.6-15.5-25.3-43.7-21.4-63.3 1.3-6.6 9.8-5.1 10.8 0.7z"  fill="#fff500" /><path d="M310.4-146.5c43.9 81.1 23.3 125.8-29.5 193.5-5.7 7.3-19.7 37.1-30.3 34.3-12.5-3.2-2.8-22.3 7.2-14.1 11.7 9.6-11.3 22.3-13.2 7.3-2-16.1 62-86.3 71.7-109.8 8.1-19.6 9.9-40.8 5.7-61.6-3.4-16.8-13.9-31.2-17.7-47.3-0.9-3.9 4.1-5.2 6.1-2.3z"  fill="#c2e1ff" /><path d=""  fill="#c2e1ff" /><path d="M331.3-165.3c62.2 66 96.1 102.2 94.5 197.8-0.1 8.4 4.4 40.3-2.7 45.4-6.1 4.3-12.4-5.7-5.9-9.3 6.5-3.6 11.7 7 4.8 9.9-11.7 4.9-7.9-23.2-7.9-27.3 0.2-37.1 3.4-75-8.6-110.7-13.3-39.3-43-68.2-71.2-97.2-0.1-0.1-9-13.6-3-8.6z"  fill="#c2e1ff" /><path d="M285.8-395.6c-29.8 64.3-13.1 130.6 37.3 178.7 9.6 9.1 117.3 93.9 109.5 99-9.6 6.3 3.7-12.8 1.1-1.5-1.4 5.8-6.5-1.8-7.2-2.8-48.8-66.8-141-92.9-163.2-180.1-7-27.7-8.6-76 9.4-100.6 5.4-7.5 15.2-0.6 13.1 7.3z"  fill="#fff500" /><path d=""  fill="#c2e1ff" /><path d="M372.2-399.7c15.1 48.2 70.3 64.7 100 101.6 39.3 48.8 46.5 130.6 54.4 190.9 1.6 12.3 11.8 68.3-1 75.1-10 5.4-12.3-14.2-1.3-11.2 11 2.9-0.8 18.8-6.8 9.1-3.2-5.2 0.6-56.4-0.5-67.8-4.8-48.8-14.4-100.4-28.1-147.6-19.9-68-68-76.7-108.9-124.3-24.2-28.2-10.1-29.9-7.8-25.8z"  fill="#fff" /><path d="M375.9-326.3c24.4 24.6 54.3 42.4 74.3 71.4 53.1 77 69.8 195.7 49.7 285.4-2 8.7-5.7 49.1-16.7 49.7-9 0.5-9-13.8 0.1-13.3 7.7 0.4 8.3 12 0.6 13.2-16.3 2.6 2.3-49.9 4-57.2 12.9-56.1 13.4-109.5-1.6-165.3-11.8-43.8-25-92.7-54.4-128.3-16.1-19.5-45.2-32.8-58.6-53.4-1.1-1.8 1.1-3.3 2.6-2.2z"  fill="#fff500" /><path d="M386.7-196c79.1 59.7 103 139.3 89.5 235.2-1.1 7.9-0.7 39.2-10.3 40.6-7.2 1-9.8-9.5-3.1-12.1 7.9-3 11.9 9.8 3.7 11.9-14.6 3.7-4.3-31.8-3.4-37.5 6-41.4 11.3-83.3 0.4-124.3-11.3-42.6-38.2-78.7-71.9-106.6-2.2-1.8-7.3-8.6-4.9-7.2z"  fill="#fff500" /><path d="M403 40.2c-0.4 7.2 3.4 36.3-4.7 38.8-8.3 2.5-9.4-11.9-0.8-10.7 7.4 1 5.1 12.6-2.2 10.8-18.6-4.7 5.4-67.3 7.7-38.9z"  fill="#005bbb" /><path d="M411.9-66.4c9 19.8 24.6 127.4 13.4 142.8-5.2 7.1-14.8-3.8-7.2-8.1 7.6-4.2 11.8 9.7 3.1 10.3-11.9 0.9-5.9-44.5-5.7-51.9 0.4-20.1 0.5-40.3-2.7-60.3-1.5-9.1-9.1-23.1-8.1-31.8 0.5-4.1 5.5-4.1 7.2-1z"  fill="#fff500" /><path d="M424.4-30.7c2.4 12.2 10.4 109.8-2.4 109.3-7.5-0.3-6.4-12.1 1-10.9 7.4 1.1 5.1 12.7-2.2 10.8-9.3-2.4-4.3-32-4.1-39.1 0.3-15.4-5.6-59.5-1.6-71 1.7-5 8.1-3.6 9.3 0.9z"  fill="#005bbb" /><path d="M434.1-76.4c11.4 23.2 27.1 136.3 13 153.5-5.8 7.1-15.2-4.9-7-8.8 8.3-4 11.8 10.8 2.7 11-11.6 0.2-2.8-71.1-2.9-81.7-0.1-24.7-18.2-95.4-5.8-74z"  fill="#005bbb" /><path d="M445.2-91.5c23.9 44.7 20.7 95.2 16.1 144-0.6 6.4 0.9 19.9-3.4 24.8-6.3 7.1-15.6-5.7-6.8-9.5 8.7-3.8 11.7 11.7 2.2 11.5-11.2-0.3 0.3-80.7 0.3-92.6 0-26.2-22.3-100.4-8.4-78.2z"  fill="#c2e1ff" /><path d=""  fill="#c2e1ff" /><path d="M513.2-399.7c35.6 49.5 46.5 103.9 65.8 160.4 2.3 6.7 24.8 52.8 21.1 54.6-4.3 2.2-6.4-5.6-1.5-5.8 5.7-0.2 2.4 9.1-1.9 5.4-24.9-22-38.4-96.6-48.3-128.6-6-19.4-13.3-38.2-23-56.1-3.3-6.1-17.8-22.3-17-28.7 0.3-2.6 3.3-2.9 4.8-1.2z"  fill="#c2e1ff" /><path d=""  fill="#005bbb" /><path d="M526.1-400.2c27.1 47.7 38.6 98.1 55.8 149.5 2.1 6.3 22 47.5 18 49.5-4.4 2.2-6.4-5.8-1.5-5.9 5-0.1 3.4 7.9-1.1 5.9-13.3-5.8-35.8-89.1-40.6-105.9-18.3-64.6-37.5-90.3-36.2-92.9 1.2-2.4 4.2-2.1 5.6-0.2z"  fill="#fff" /><path d="M502.5-145c15 60.7 15.7 118.1 0.8 178.8-2.1 8.5-6 45.8-16.8 46.2-12.5 0.4-5.1-20.1 4.3-11.8 8 7.1-6.4 17.6-10.7 7.7-3.6-8.3 18.4-80 20.7-95.5 9.9-65.1-7.6-84.7-7.2-124.5 0.1-5.5 7.2-5.5 8.9-0.9z"  fill="#fff500" /><path d="M513.8-233.9c22.5 100.4 37.2 185.5 3.5 285.3-2.4 7.1-5.1 29.4-15.2 28.9-11.3-0.5-6.4-18.6 3.6-13.4 11.8 6.1-5.7 21.2-10 8.6-2.3-6.5 29.8-99.8 31.9-127.8 2.7-36.2-24.3-176.4-22.7-182 1.4-4.9 7.5-3.8 8.9 0.4z"  fill="#fff" /><path d="M540.3-400c18.4 43.7 30.1 88.5 44.3 133.6 3.2 10.3 18.9 34.8 17.2 44.6-1 6-10 0.5-5.2-3.2 4.1-3.1 7.7 4.7 2.7 5.8-7.4 1.6-17.2-30.2-19.2-35.7-5.1-13.6-45.8-136.2-46.9-143.1-0.7-4.5 5.1-5.5 7.1-2z"  fill="#fff" /><path d="M535.3-308.4c16.2 38.6 22.1 81 35.5 120.7 6.9 20.5 29.6 59.9 30.7 79.1 5 81.4 4.9 80.6 4.6 142.3 0 7.3 4.5 44.5-10.1 47.1-14 2.5-9-21.7 2.9-13.9 10.1 6.6-4.3 20.7-10.7 10.5-4.1-6.5 2.8-37.8 2.8-43.7 0.1-14-0.3-27.9 0.1-41.9 0.9-32.3 3.1-64.6 3.7-97 0.2-12.3-31.6-79-37.5-97.3-9.7-30.3-25.6-73.2-29.3-104-0.6-4.6 5.4-5.5 7.3-1.9z"  fill="#fff500" /><path d="M547.5-157.9c15.5 74.1 20 139-8.9 210.5-2.9 7.2-7.2 29.4-17.6 28.1-11.8-1.4-5.3-20.1 4.8-13.8 11.8 7.3-7.6 21.8-11.1 8.3-2.3-8.6 29.5-80.6 32.7-98.6 11.3-62.9-10.5-94.5-9-133.8 0.2-5.7 7.5-5.5 9.1-0.7z"  fill="#fff" /><path d="M565-399.4c3.1 14.2 39.2 138.8 34.9 140.3-4.8 1.6-7-6.1-2.1-7.2 5-1.1 6.3 6.8 1.3 7.4-9.3 1.1-46.4-127.1-42.9-140.6 1.3-4.8 7.3-4 8.8 0.1z"  fill="#fff" /><path d="M572 2.7c-2.4 11.3-22.2 85.8-38 77.4-9.2-4.9-0.7-19 8-13.1 8.7 5.9-1.3 19-9.4 12.2-6.8-5.8 24.1-78.6 27.8-82.7 5-5.6 12.4-0.2 11.6 6.2z"  fill="#005bbb" /><path d="M580.1-179.4c2.6 6.6 25.3 50.8 19.8 53.1-4.3 1.8-6.8-5.1-2.3-6.4 4.4-1.3 6.2 5.8 1.6 6.6-6 1.1-9.2-13.2-11-16.9-4.9-10.2-13.6-23.3-15.3-34.5-0.7-4.5 5.2-5.5 7.2-1.9z"  fill="#fff500" /><path d="M590.9-174.5c2 4.2 14.1 20.9 10 24.8-3.1 3-7.6-2.1-4.2-4.8 4-3.1 7.6 4.5 2.7 5.6-13.6 3.2-15.7-36.5-8.5-25.6z"  fill="#fff500" /><path d=""  fill="#c2e1ff" /><path d="M605.6 65c-1.9 4.8-17 28.1-19.3 9.2-3.5-28.5 31.7 16.5 4.8 6.2-23.1-8.8 21.8-40.6 14.5-15.4z"  fill="#c2e1ff" /><path d=""  fill="#005bbb" /><path d=""  fill="#c2e1ff" /><path d=""  fill="#005bbb" /><path d=""  fill="#fff" /><path d=""  fill="#c2e1ff" /><path d=""  fill="#fff500" /><path d=""  fill="#fff" /></svg>