<svg width="1200" height="675" viewBox="-500 -500 1200 675" xmlns="http://www.w3.org/2000/svg"><path d="M-500-500h1200v675h-1200z" fill="#000"/><path d=""  fill="#005bbb" /><path d=""  fill="#005bbb" /><path d=""  fill="#fff500" /><path d=""  fill="#fff500" /><path d=""  fill="#fff" /><path d=""  fill="#fff" /><path d="M-385.1-74.9c-17.9 21.8-39.5-9.4-19.4-18.4 28.2-12.7 21.6 42.9-2.9 24-31.6-24.5 46.6-41.7 22.3-5.6z"  fill="#fff500" /><path d=""  fill="#fff500" /><path d="M-370.5-392.5c-4.7 9.7-21.8 53.1-38 32.7-9.1-11.5 6.6-26.8 17.9-17.6 13.2 10.9-5 30.8-17 18.6-11.6-11.9 15.8-61.6 33.2-49.5 5.5 3.8 6 10.1 3.9 15.8z"  fill="#005bbb" /><path d="M-340.8-392.6c-9.7 18.9-44.6 60-46.4 78.5-1.1 11.4-0.5 184.2-2.5 187.3-8.8 14.2-28.6-5.1-14.7-14.3 16.3-10.7 23.1 22.5 4 19.1-17.2-3.1-3.1-40.1-3.6-51-1.9-51-4.2-102.1-3.3-153.3 0.3-19.3 25.5-47.5 35.4-63.3 19.7-31.2 39.6-23.5 31.1-3z"  fill="#fff500" /><path d="M-317.6-165.1c6.2 67.2-65.3 148-89.8 130.3-17-12.2 3.8-37.9 19.3-23.9 15.5 14-7.8 37.3-21.8 21.7-18.1-20.3 40.6-52.8 51.7-65.3 15.4-17.4 25.6-68.4 27.2-69.6 6-4.2 12.5 0.4 13.4 6.8z"  fill="#fff500" /><path d="M-297.7-313.2c-58.4 97.8 23.1 178.2-70.2 259.5-8.5 7.4-22.2 23.9-35.1 20-23.3-7.1-3.5-42.4 14.7-26.2 21.3 19-23.2 41.2-25.5 12.8-1.2-14.4 50.8-49.5 61.7-65 35.4-50.3 0.1-124.1 19.9-183.3 3.5-10.4 10.8-41.9 28-35.2 7.5 2.9 9.1 10.6 6.5 17.4z"  fill="#005bbb" /><path d="M-304.3-392.5c-25 49.1-67.6 87.7-70.5 145.9-1.8 36.5 10.1 72.5 4.5 109-2 13-11 58.5-32 52-16.9-5.2-7.2-31.4 9-24.4 13.9 6 7.2 27.6-7.6 24.7-25.5-4.9 9.9-52.7 12.4-65.1 7.3-35.9-4.9-72.3-3.8-108.4 1.5-46.3 36.2-115.1 68.1-148.6 10.5-11.1 25.2 2.3 19.9 14.9z"  fill="#fff" /><path d="M-264-103.7c-5.1 50.7-48.2 82.3-85.6 110.5-11.6 8.8-42.5 48.9-57.8 35.5-13.9-12.2 6.5-33.1 19.1-19.4 12.5 13.6-10.1 32.2-21.1 17.2-19.8-27 86.9-91.3 102.3-108.2 8.6-9.4 22.2-44.5 29.4-47.4 8.2-3.2 14.5 4.1 13.7 11.8z"  fill="#fff" /><path d="M-245.7 16.1c-5.3 10.9-22.4 77-39.1 66.1-11.5-7.6 1.4-25.1 12.1-16.4 9.1 7.5-0.6 22.2-11.1 16.9-16.7-8.5 9.2-73.1 20-81.2 10.6-8 21.7 3.7 18.1 14.6z"  fill="#c2e1ff" /><path d="M-232.4-150.5c25 81.4-27.8 135.3-65.6 200.1-5.1 8.8-11.3 39.4-26.6 34.2-16.1-5.6-1.2-29.7 11-17.9 12.2 11.9-11.4 27.5-17.4 11.6-9.6-24.8 52.1-100.5 65.3-123.4 36.1-61.9 13.1-79.1 19.9-104.9 1.9-7.4 11.2-6 13.4 0.3z"  fill="#fff" /><path d="M-211.9 35.6c-1.9 9.5 0.6 48.8-15.2 47-10.5-1.2-10.5-17 0-18.1 12.3-1.3 13.3 18.2 1 18.2-16.9 0-9.3-47-3.6-54.6 6.6-8.8 18.1-2 17.8 7.5z"  fill="#fff500" /><path d=""  fill="#c2e1ff" /><path d="M-178.6-138.2c5.2 55-16.6 108-27 161.1-2.1 10.8-0.5 60.8-16.3 59.3-12.1-1.2-9.3-20.2 2.7-17.7 12 2.5 7 21.1-4.6 17.3-18.4-5.9 0.4-74.2 3.3-87.5 22.8-105.4 25.3-135.6 27.1-137.7 5.3-6.3 13.7-1.9 14.8 5.2z"  fill="#005bbb" /><path d="M-162.3-243.3c19.8 117-1.2 132.9-17.2 241.5-3.4 23.3 2.5 57.1-2.7 77.4-3.7 14.6-25-0.8-12.2-8.9 12.8-8.1 17.6 17.8 2.8 14.9-19.6-3.9-7-88-4.8-102.3 5.2-34.3 15.2-67.6 21.7-101.7 13-67-4.5-83.5-2.2-120 0.5-9 12.2-8.5 14.6-0.9z"  fill="#005bbb" /><path d="M-144.5-267c17 140.9-7 130.7-25.7 255.3-2.5 16.4 2.8 81.9-1.5 89.3-6.2 10.7-21.3-3.2-11.1-10.2 11.8-8.3 17.6 16.1 3.3 14-13.2-2-10.2-37.7-10.7-46.9-4.4-75.5 29.4-142.5 36.1-216.3 1.7-18.9-8.8-77.3-5.3-86.8 2.9-8 13-5.5 14.9 1.6z"  fill="#c2e1ff" /><path d="M-127.1-266c16.4 119.7-30 161.8-38.9 267.4-0.9 11 2.3 76.2 1 77.4-8.7 8.2-18.8-8.8-7.5-12.6 11.3-3.8 13.4 15.9 1.5 14.6-20-2.3-13.2-89.9-11.4-104.8 6.6-56.7 32.2-108.6 40.9-164.6 2.9-18.9-4.3-68.7-0.5-79.1 3-8 13.1-5.5 14.9 1.7z"  fill="#c2e1ff" /><path d="M-106.5-62.5c-15.1 29.6-18 63.5-10.7 95.6 1.4 6.2 20.7 45.4 7.7 45.9-6.5 0.2-7.9-9.4-1.6-11 7.4-1.9 9.7 9.9 2.2 10.9-11.9 1.7-20.8-40.3-23-48.3-7.9-28.7-14-78.4 5-104.5 8.5-11.6 23.7-0.9 20.4 11.4z"  fill="#005bbb" /><path d=""  fill="#005bbb" /><path d="M-71.8-150.2c-34 48.1-68.2 95.4-66.9 157.2 0.4 18.8 16.5 63.7 11.3 70.5-6 7.9-16.7-4.7-7.9-9.3 10.3-5.4 12.5 14.7 1.2 11.6-9.5-2.7-12.3-28.5-14.2-36.1-20.5-77.8 7.5-144.2 52.8-206.7 11-15.1 33.3-4.7 23.7 12.8z"  fill="#005bbb" /><path d="M-56.7-9.4c-2.6 30.9 26.9 75.2 26.3 83.3-0.6 7-11.8 3.6-8.3-2.6 4.1-7.2 13.1 4.1 5.1 6.5-15.7 4.8-42.7-75.4-40-88.5 2.1-10.3 15.5-7.9 16.9 1.3z"  fill="#fff" /><path d=""  fill="#005bbb" /><path d="M-19.6-193.4c-31.3 59.2-93 96.2-106.5 165.5-5 25.8-2.6 52.1 4.7 77.2 0.8 2.9 15.4 34.8 0 29.5-7.5-2.6-2.9-14.2 4.3-10.9 7.2 3.4 1.3 14.5-5.5 10.4-5.5-3.4-7.4-15.3-9.3-20.6-16.7-46-19.5-94.1-0.2-139.8 8.5-20 80.2-119.9 95.1-128.8 12-7.2 22.4 6.4 17.4 17.5z"  fill="#005bbb" /><path d="M-3-125.1c-35.8 34.1-80.8 65.5-81.9 120.1-0.5 23.3 24.2 75.1 23.8 78.9-1 8.6-14.2 1.5-7.6-4.1 7.8-6.6 10.7 11.7 1.2 7.9-11.1-4.5-20.7-34.9-24.7-45.3-28.1-73.1 12.9-134.6 69.1-179.3 15.3-12.2 32.4 7.5 20.1 21.8z"  fill="#fff500" /><path d="M15.1-278.9c-15.5 37.1-24.6 75.1-48.4 108.3-32.6 45.8-78.4 80.5-91.5 138-5.8 25.6-4.3 51.9 2.4 77.1 0.8 3.1 17.4 40 1.4 34.6-6.4-2.2-4.2-12.1 2.6-11.4 7.9 0.9 5.9 13.3-2 11.6-9.7-2.1-14.3-30-16.6-37.7-38.5-127.3 43.9-161.8 98.9-252.3 14.6-24.1 21-50.7 31.7-76.4 5.9-14 24.9-5.9 21.5 8.2z"  fill="#fff" /><path d="M1.3-394.6c-23 58.5-19.8 121.8-39.5 180.6-15.6 46.7-50.7 81.2-74.3 123.5-5.9 10.5-16.2 57-32.4 51.9-15.9-5-2.1-29.1 10.2-17.8 12.4 11.2-10.3 27.3-16.7 11.9-13.5-32 68.7-132.5 84.7-162.6 30.1-56.4 20.4-155.5 47.9-197.5 7.6-11.5 22.7-2 20.1 10z"  fill="#fff500" /><path d="M50.1-265.5c-22.1 33.1-34 71.2-59.4 102.4-35.1 43.2-87.2 74-101.3 131.2-10.3 41.7 17.5 103.1 14.4 108.3-5 8.6-15.6-5.1-6.1-7.8 9.5-2.8 7.9 14.4-0.9 9.9-11.4-5.9-19.1-40.5-22.4-52.4-29.4-108 48.8-148.3 105.7-220 20.6-25.9 30.6-56.8 48-84.6 9-14.3 28.4-1.8 22 13z"  fill="#005bbb" /><path d="M67.4-97.9c-19.4 35.8-42.8 69.6-35.7 112.4 1.9 11.7 24.1 53.7 18.9 61.9-4.8 7.5-15.3-2.9-7.8-7.7 8.8-5.7 12.3 12.2 2 10.3-8-1.5-11.9-21-14.3-26.8-22-52.3-25.3-119.5 16.9-164.7 10.4-11.2 25.2 2.1 20 14.6z"  fill="#fff500" /><path d="M83.1-359.1c-71.5 47-67 106.4-106.4 172.5-26 43.7-68.6 75-90.4 121.5-15.9 33.8-9.6 99.2-25.7 89-7.5-4.7-1.7-16.5 6.6-13.5 8.3 3 5.2 15.8-3.6 14.6-20.2-2.6-2.4-91.4 5-108.4 21.5-49.5 65.3-81.9 92.8-127.2 29.2-48 33.6-106 73.4-148.3 8.7-9.3 23.5-26.9 37-28.8 17.4-2.4 22.6 18.4 11.3 28.6z"  fill="#fff500" /><path d="M101.6-135.2c-12.1 47.3-35.4 94.3-29.9 144.2 1.1 9.7 22.6 71.7 9.4 71-7.3-0.4-7.8-11.3-0.7-12.5 8.4-1.4 9.8 12 1.4 12.5-9.5 0.5-11.7-20.3-13.5-26.1-18.6-58.4-15-105.4 3.2-163.2 3.3-10.6 5-24.1 10.5-33.9 6.3-11.4 21.3-3.4 19.6 8z"  fill="#005bbb" /><path d="M49.2-389.7c-54.5 60.1-49.1 124.5-81.5 192.3-12.7 26.5-31.4 48.9-49.5 71.7-8 10.1-26.2 50.9-43 40.1-14.3-9.1 1.3-30.9 14.6-20.2 13.2 10.6-4.7 30.6-16.7 18.6-19.6-19.6 60.8-101.3 71.8-120 37.4-63.8 30.9-142.9 82.9-200.5 12.4-13.7 31 3.2 21.4 18z"  fill="#005bbb" /><path d="M132.1 12c2.9 9.1 28.2 63.8 15.9 67.4-8.1 2.3-11.1-10.6-2.8-12 8.3-1.4 9.8 11.7 1.5 12.2-9.9 0.6-28.2-58-26.8-66.6 1.1-6.9 9.6-6.4 12.2-1z"  fill="#fff" /><path d="M148.5-66.4c10.9 28.5 103.2 130.9 102 140.7-0.9 7.5-12.8 3.4-8.8-3.1 4-6.5 13 2.3 6.7 6.5-1.8 1.2-4.2 1-5.8-0.4-3.4-3-104-137.6-104.5-140.2-1.3-6.6 7.2-8.5 10.4-3.5z"  fill="#005bbb" /><path d="M170.7-351.6c-29.4 27.1-66.4 45.7-93.8 75-28.4 30.3-41 71.2-65.2 104.5-24.3 33.5-58.9 56.7-85.4 88.1-26.1 30.9-30.7 91.9-46.4 77.6-7.6-6.9 1.4-19.4 10.3-14.2 10.5 6 0.2 21.9-9.6 14.8-7.3-5.3-3.5-21.3-2.6-28.2 8.9-71.1 70.4-104.4 112.1-154.8 57.5-69.3 42.6-99.2 129.6-161.7 11.2-8 22.2-19.8 34.4-26 16.5-8.3 27.7 12.8 16.6 24.9z"  fill="#fff500" /><path d="M186.6-190.5c-0.6 29.8 8.2 59.7 23.8 85 34.3 55.5 92.9 89.8 121.6 150 3 6.3 17.2 28.7 7.7 34.5-9 5.5-14.7-11.1-4.2-12.3 10.5-1.2 8.7 16.3-1.3 13-3-1-20.3-48.4-25-56.8-31.8-56.4-91.6-90.8-121.2-148.5-8.7-17.1-21.7-46.2-18-65.9 1.9-10.1 15-7.9 16.6 1z"  fill="#fff" /><path d="M206.1-256.9c-57.9 172.1 101.6 194.9 138.4 328.7 3.3 12.1-18.3 9.7-12.4-1.4 5.9-11 19.9 5.5 8.1 9.5-9.6 3.2-30.3-60.4-36.6-70.1-43.6-68.6-119.7-111.5-126.8-199.6-1.8-21.8-2-56.2 9.4-75.7 6.7-11.5 21.8-3.1 19.9 8.6z"  fill="#c2e1ff" /><path d="M219-141.1c17.7 68.9 83.7 113.1 114.6 175.6 3.8 7.7 22.4 38.4 11.5 44.8-9.3 5.5-14.8-11.6-4.1-12.6 10.8-1 8.6 16.8-1.6 13.2-10.4-3.7-17.5-45.4-22.7-55.8-24.8-49.2-67.8-85-95.7-132.1-24.8-41.9-7.1-43.6-2-33.1z"  fill="#c2e1ff" /><path d="M240.3-201.4c-24.8 113 86.9 173 111.1 273.2 3 12.5-18.9 9.4-12.7-1.7 6.3-11.2 20.3 6.1 8.1 10-11.6 3.6-12.8-21.2-14.6-27-6-18.5-14.4-36.1-24.4-52.8-33.5-56.2-86.1-103.5-88.9-173-2.2-55.1 21.6-37.1 21.4-28.7z"  fill="#c2e1ff" /><path d="M257.8-179.3c-25.3 96.6 75.8 163.8 96.1 251.3 2.9 12.6-19.1 9.3-12.8-1.8 6.4-11.2 20.4 6.4 8 10.1-11.1 3.3-26.2-58.1-31.3-68.1-28.3-55.6-79.3-104-81.4-169.8-1.3-40.6 22.3-39.5 21.4-21.7z"  fill="#c2e1ff" /><path d="M268.6-69.4c10.7 15.7 104.6 134.6 79.3 149-9.5 5.4-14.9-11.9-4-12.8 9.3-0.8 9.8 14 0.5 13.7-11.3-0.3-14.9-34.9-18.1-42.7-15.6-38.7-54.7-77.4-64.9-103.3-1.8-4.7 4.2-7.2 7.2-3.9z"  fill="#fff500" /><path d="M292.7-138.2c-19 58.6 31.1 116.9 52.5 167.8 4.2 9.9 18.6 36.2 13.8 46.8-4.6 10.2-19.5-1-11-8.3 8.5-7.3 17.3 9.1 6.5 12.1-12.4 3.5-22.4-52.3-26.5-61.7-20.3-47.6-59.2-95-56.4-149.4 1.1-22.2 22.2-26.1 21.1-7.3z"  fill="#fff" /><path d="M304.3-43.4c10 18.2 60.2 103.3 52.9 119.5-4.5 10.2-19.4-0.8-11-8.1 8.4-7.3 17.3 8.9 6.5 12-12.8 3.7-21.2-47.9-24.8-56.6-5.9-14-32.5-52.8-32.8-64.3-0.1-5.4 6.4-6.3 9.2-2.5z"  fill="#fff500" /><path d="M321.6 21.7c5 8.1 31.9 49.8 19.7 57.1-7.8 4.7-14.5-8-6.3-11.8 8.3-3.8 13.6 9.5 5 12.5-7.9 2.7-27.4-52.1-27.5-55.4-0.1-5.4 6.4-6.2 9.1-2.4z"  fill="#c2e1ff" /><path d="M340.1 32.8c3.3 7.1 23.8 44.6 8.6 47.5-9.3 1.7-11.2-13-1.8-13.8 9.4-0.7 9.7 14.2 0.3 13.9-9.5-0.3-18.8-38.9-18.1-46 0.6-6.3 8.4-6.4 11-1.6z"  fill="#005bbb" /><path d="M357.7-382.3c13.7 52 76.1 75.5 81.3 131.6 7.1 77.9-81.6 91.7-104 152.8-9.3 25.5-2.8 53 5.5 77.8 1.5 4.7 18 35.2 3.4 34.7-7.1-0.3-7.9-10.9-0.9-12.1 7-1.3 10 8.9 3.5 11.6-12.1 5.1-20.2-37.1-22.5-43.7-10.9-32.9-16.7-68.2-0.3-100.5 23.1-45.4 86.1-62.9 96.8-115.3 11.5-55.9-52.7-88.1-73.9-132.3-3.4-7.1 7.4-11.1 11.1-4.6z"  fill="#fff500" /><path d=""  fill="#fff" /><path d="M397.4-230.7c-13.3 61.3-95.1 76.5-88.5 147.5 4.5 48.6 36.4 92.2 50.3 138.4 1.5 4.8 10.6 27.4-3.7 25.1-8.2-1.4-7.5-13.7 0.8-14.2 8.3-0.4 10.2 11.8 2.3 14-13 3.5-14.9-31.2-17-37.9-17.2-55.6-63-113.7-47.2-174.5 9.9-38.6 41.7-58.8 67.2-86.3 6.6-7.1 11.6-22.3 20.3-26.5 10-4.9 18 5.1 15.5 14.4z"  fill="#c2e1ff" /><path d=""  fill="#c2e1ff" /><path d="M432-43.5c-11 32.8 3.4 117.4 2.3 120-5.7 12-21.4-4.9-9.1-9.7 10.6-4.1 13.4 14.5 2.2 13.8-17.6-1.1-20.9-120.2-15.1-131.5 6-11.5 21.1-4 19.7 7.4z"  fill="#fff500" /><path d="M447.5-2.5c-0.3 21.4 17.2 72.6 11.1 80.1-6.7 8-17.3-5.6-7.9-10.2 9.4-4.5 13.3 12.4 2.9 12.6-13.1 0.1-27.1-74.5-22.1-85.5 3.9-8.4 14.6-4.9 16 3z"  fill="#fff" /><path d="M466.5-46.2c-10 39.6 11.7 121.3 11.6 121.6-3.4 10.8-18.7-1.7-8.8-7.2 8.5-4.7 13.1 10.7 3.4 11.4-11.3 0.8-16.4-33.3-18.6-40.8-7.1-24.6-17.8-65.9-6.8-90.9 5-11.3 19.8-5.1 19.2 5.9z"  fill="#005bbb" /><path d=""  fill="#c2e1ff" /><path d=""  fill="#005bbb" /><path d="M519.1-245.8c-21.8 86.4-107 155.9-116.9 217.1-3.2 19.6 10 101.5 8 105.3-6.4 12.3-22.1-6-9-10.5 13.1-4.5 11.9 19.5-0.6 13.8-10.5-4.8-10.2-38.9-11.9-48.6-18.3-108.2 21-127 73.7-209.7 15.4-24.1 22.6-52.4 37-76.2 6.9-11.4 21.8-2.7 19.7 8.8z"  fill="#005bbb" /><path d=""  fill="#005bbb" /><path d="M559.3-400.2c7.2 26.9 14.3 53.9 11.3 82-7.1 67-73.3 165.7-107.2 225.6-8.3 14.7-29.7 78.7-30.4 79.5-11.5 12.8-24.8-14.1-7.6-15.5 14.7-1.2 11.3 23-2.5 18-38.2-14.1 96.6-236.2 109.9-263.2 11.9-24.2 21.7-49.4 21.1-76.9-0.4-14.4-10.9-36-7.8-49.3 1.7-7.3 10.8-6.2 13.2-0.2z"  fill="#005bbb" /><path d=""  fill="#fff" /><path d="M586.4-399.2c2.7 27.8 7 55.2 1 82.9-10.6 49.2-89.7 173.2-116.9 228.5-12.5 25.5-22.3 52-23.2 80.6-0.2 6.5 7.5 39.8-8 36.1-11.7-2.8-3-20.8 6.4-13.3 8.1 6.4-2.6 18.6-9.9 11.4-6-5.9-4.8-21.7-5.4-29.2-6.6-91.3 77.6-207.8 121.1-286.3 32.2-58.1 12.2-94 19.7-112.7 3.2-8.1 13.5-5.3 15.2 2z"  fill="#c2e1ff" /><path d="M599-398.7c1.6 25.4 4.9 50.6-0.2 75.9-6.9 34.1-94.7 176.1-118.6 226.5-5.4 11.5-18.2 69.3-33.3 65.9-13.1-3-7.3-23.5 5.4-19 12.7 4.4 4.7 24.1-7.5 18.3-38.9-18.4 98.8-232.7 114.8-258.6 35.3-57.6 15.4-92.5 23.8-111.7 3.6-8.3 14.2-5 15.6 2.7z"  fill="#fff500" /><path d="M608.8-190c-45.8 42.7-65.2 106.8-50.7 167.7 6.8 28.8 20.4 55.1 32.6 81.8 1.7 3.7 11.2 19.6-0.2 19.7-7.9 0.1-7.3-12.4 0.5-11.6 7.9 0.8 6 13.1-1.7 11.5-9.6-2-18.3-36.1-22.2-44.5-33.4-71.9-45.9-149.3 0.6-219.3 31.8-47.9 56.5-25.8 41.1-5.3z"  fill="#005bbb" /><path d="M608.8-212.9c-52.9 46.3-85.3 116.5-72.2 187.6 3.4 18.5 41.1 93.5 39.9 99.6-2 9.8-16.5 0.2-8.3-5.4 8.2-5.7 12.2 11.2 2.3 9.7-10-1.5-22.3-39.5-26.6-48.2-41.7-84.4-33.3-181.8 32.2-252.4 26.2-28.2 48.9-10.2 32.7 9.1z"  fill="#c2e1ff" /><path d=""  fill="#c2e1ff" /><path d="M609.7-148.8c-12.3 17.3-23.7 78.8-37.9 71.7-9.6-4.8-4-19.9 6.5-17.3 12.2 3.1 6.3 22.1-5.6 17.7-20.1-7.5 6.3-81.6 19.3-89.6 12.1-7.4 22.7 6.2 17.7 17.5z"  fill="#c2e1ff" /><path d="M609.7-152.5c-27.4 36.6-33.2 84.1-23.6 127.8 1.9 8.8 26.1 65.4 12.5 65.1-9.6-0.2-5.8-15.7 2.8-11.4 8.6 4.2-1.3 16.7-7.4 9.2-5.3-6.5-7.3-18.5-10.1-26.3-20.9-57-31.4-124 3.8-178.3 9.4-14.5 29-0.9 22 13.9z"  fill="#fff" /></svg>