<svg width="1200" height="675" viewBox="-500 -500 1200 675" xmlns="http://www.w3.org/2000/svg"><path d="M-500-500h1200v675h-1200z" fill="#000"/><path d=""  fill="#fff" /><path d=""  fill="#fff" /><path d=""  fill="#fff500" /><path d=""  fill="#005bbb" /><path d=""  fill="#fff" /><path d=""  fill="#fff" /><path d=""  fill="#005bbb" /><path d=""  fill="#fff" /><path d=""  fill="#fff500" /><path d="M-389.7-84.9c-2.4 44.4-5.1 87.3-4.6 131.5 0 5 10.2 29.9 3.3 30.2-5.6 0.3-4.2-8.9 1.1-6.8 5.3 2.1 0 9.9-3.9 5.7-12.4-13-13.8-150-10.6-162.6 2.3-8.9 13.8-6.1 14.7 2z"  fill="#fff500" /><path d=""  fill="#c2e1ff" /><path d="M-367.6-194.5c-22.9 103-28.1 76.7-27.2 229.2 0 0.9 4.8 38.6 1.9 41.2-4.1 3.6-8.5-4.3-3.3-5.9 5.2-1.6 5.9 7.5 0.5 6.7-4.1-0.6-5.8-56-6.3-86.1-0.6-36.2-2.1-72.3-2.3-108.5 0-3.4 23.7-81.2 24.8-82.5 4.9-5.7 12.5-0.5 11.9 5.9z"  fill="#005bbb" /><path d=""  fill="#fff" /><path d=""  fill="#fff" /><path d=""  fill="#fff500" /><path d="M-321.3 4.7c-9.2 15.5-14.8 32.9-16 50.9-0.3 4.4 3.9 26-6.6 22.9-6.8-2-3.1-12.6 3.5-9.9 5.6 2.3 3 11.1-3 10-17.7-3.2 0.8-73.8 8.7-82.9 6.5-7.5 16.4 0.7 13.4 9z"  fill="#c2e1ff" /><path d="M-311.3-398c-4.1 84.5-2.1 171.2-23.2 253.9-11.2 44.3-40.8 81.3-51.1 125.5-3.5 15-4.3 30.4-2.5 45.7 0.4 3.7 6.6 21.1-2.8 19.6-6.1-0.9-4.1-10.5 1.8-8.9 6 1.6 3 10.9-2.8 8.7-15.7-6.1-7.7-64.5-4.9-76.7 10.4-46.3 41.3-84.6 52.3-131 12-50.8 17.3-106.1 19.2-158.2 0.6-16-3.7-70.7 2.9-81.9 3.3-5.7 10.6-2.4 11.1 3.3z"  fill="#005bbb" /><path d="M-299.7-227.6c-3.1 41-3.7 83.3-19.6 121.9-15.6 37.8-45.5 69.2-53 110.4-3 16.4 7.1 68.4 4.7 71.4-4.2 5.2-11.2-3.4-5.2-6.4 7-3.5 8.2 10.1 0.7 7.8-6.5-2-8.1-20.4-9.3-25.8-17.5-77.7 29.5-112.5 53.9-178 13-34.9 6-73 16-103.6 2.3-7.1 11.5-4.3 11.8 2.3z"  fill="#fff500" /><path d="M-288.3-242.7c-2.5 46.8-0.3 97-18.7 141.1-15.7 37.7-47.2 67.7-56.8 108.1-3.8 16.2 4.2 66 1.2 69.6-5.3 6.2-11.9-6.4-3.8-7.3 7-0.7 5.6 10.8-1 8.5-6.7-2.3-7.6-21.9-8.6-27.7-12.1-71.5 38.1-110.6 60.8-171.7 15.7-42.2 4.3-87 15.2-122.6 2.1-7 11.3-4.4 11.7 2z"  fill="#005bbb" /><path d="M-277.6-329.5c6.5 59 8.7 172.6-12 227.3-15.8 41.8-53 72.3-64.4 115.7-3.9 14.8-4.6 30.3-2.9 45.5 0.4 3.6 6.3 20.6-3.1 19.1-6.2-1-4.1-10.7 2-9.1 6.1 1.7 2.9 11.1-2.9 8.8-7.1-2.9-7-24.3-7.6-30.5-7.1-74.2 56.3-113.6 73.3-179.6 11.8-46 8.4-98.7 8.9-146 0.1-11.3-7.1-45.2-0.8-53.8 3-4.2 8.5-1.7 9.5 2.6z"  fill="#fff" /><path d="M-264.4-20.1c-16.8 19.7-34.2 39.8-43.2 64.5-2.2 6-3.8 39.5-14.9 34.1-7.3-3.5-1.3-14.7 5.6-10.5 6.9 4.2-0.4 14.8-6.7 9.9-14.7-11.3 29.7-104.6 48.7-112.4 9.4-3.8 15.3 7.1 10.5 14.4z"  fill="#fff500" /><path d="M-252.8 27.6c-5.6 8-23.6 58.3-33.5 51.3-7.6-5.4 1.6-16.9 8.5-10.7 5.9 5.3-0.9 15-7.9 11.1-12.4-6.9 12.2-58.4 21.4-63.7 8.2-4.7 15 4.6 11.5 12z"  fill="#c2e1ff" /><path d="M-242.9-260c0.6 55.2 7.9 118-14.1 170-17.5 41.2-55.1 69.4-72.1 110.6-3.7 9-7.6 60.3-14.7 58.1-6.8-2-3.1-12.6 3.5-9.8 6.6 2.7 1.7 12.8-4.5 9.4-5.8-3.2-3.9-17.6-4-22.7-0.7-69.8 60-105.1 83.2-165 21.7-56.1 0.8-107.8 11.5-151.9 1.6-6.8 10.4-4.8 11.2 1.3z"  fill="#c2e1ff" /><path d=""  fill="#fff" /><path d=""  fill="#fff" /><path d="M-173-399.2c15.3 67.4-12.3 316.9-73.1 356.7-12 7.8-20.4-14.3-6.2-16.4 14.1-2.1 12.5 21.6-1.3 17.5-4.9-1.4-7.6-6.8-5.9-11.6 2.7-7.7 11.3-15.1 16-21.8 24.9-35.6 39.3-76.6 47.4-119.1 11-57.4 22.1-137.9 14.8-195.6-0.7-5.2 4.4-22.5 8.3-9.7z"  fill="#c2e1ff" /><path d="M-195.7 34.9c-4.8 8.2-16.6 49-27.6 44.9-9.1-3.3-3.1-17.4 5.6-13.1 8.7 4.3 1.2 17.6-7 12.4-10.4-6.6 9.8-49.8 17.3-54.9 7.5-5.1 14.6 3.4 11.7 10.7z"  fill="#005bbb" /><path d="M-186.4-367.6c12.9 75.3 0.2 213.3-34.5 281.2-19.4 37.9-50.8 65.9-74.1 100.9-5.2 7.8-17.4 49-26.6 46.7-10.2-2.6-2.4-18.2 5.8-11.6 8.2 6.6-5.5 17.5-10.1 8.1-14-28.5 89.3-137.5 107.5-189.3 25.4-72.1 27-159.2 22-234.8-0.4-6.6 8.4-7.5 10-1.2z"  fill="#c2e1ff" /><path d="M-173.9-267.5c-5.8 65-13.7 130.7-46.6 188.5-21.8 38.3-56.5 67-78 105.2-4.6 8.2-14.7 56.8-23.6 52.6-8.6-4.1 1.1-16.5 7.2-9.2 6.1 7.3-7.9 14.6-10.4 5.3-14.8-55.1 77.8-134.9 101.6-182.4 37.2-74.2 24.7-124.2 37.9-162.5 2.4-7.1 11.7-4.1 11.9 2.5z"  fill="#fff" /><path d=""  fill="#c2e1ff" /><path d="M-142.3-398c-1.7 34.4-10.3 68.1-16.1 101.9-13.6 79.6-20 158.4-65 228.2-5.5 8.6-12.7 23.1-21.5 28.8-12.1 7.7-20.3-14.7-6.1-16.6 14.2-1.9 12.3 21.8-1.4 17.6-18.7-5.7 12.8-36.4 17.2-43.1 19.8-29.5 33.3-62.6 43-96.7 15.8-55.7 19.5-114.7 30.3-171.5 2.2-11.4 1.4-45.7 9.4-53.5 4.3-4.1 10-0.3 10.2 4.9z"  fill="#c2e1ff" /><path d="M-138.8-214.6c-20.7 62.3-53.3 124.2-94.7 175.3-17.1 21.1-36.6 40.6-51.2 63.6-5.5 8.6-19.8 58.9-28.4 54.3-7.5-4.1-0.4-15.5 6.6-10.6 8.2 5.7-3.9 16.9-9 8.3-19.1-32.7 71.7-129.7 90.7-156.4 16.7-23.5 73-141.2 74.1-142.3 5.9-5.5 13.4 0.9 11.9 7.8z"  fill="#c2e1ff" /><path d="M-127.3-243.7c-24.2 70.5-54.5 139.4-101 198.5-18.7 23.8-40.9 45.3-57 71.1-5.2 8.4-18.7 58-27.5 53.3-7.5-4-0.5-15.5 6.5-10.7 8.2 5.6-3.9 16.9-8.9 8.3-19.6-33.2 78.4-138 97.7-166.7 22.3-33.3 41.8-69.8 57.4-106.7 5.9-14 10-44.4 20.8-54.7 5.9-5.6 13.4 0.8 12 7.6z"  fill="#fff" /><path d="M-115.9-393.5c-54.1 151.3-39 252.2-150.2 383.4-6.4 7.6-22.5 38.3-33.4 35.3-10.9-3-5.2-20 5.3-15.8 10.5 4.2 3 20.4-7 15.1-14.5-7.7 12.9-36.1 18.1-42.5 29.6-36.9 59.3-70.5 78.7-114.3 30.5-68.6 33.3-142.9 56.1-213.6 5.3-16.5 9.6-39.7 19.3-54.2 5-7.5 14.9-1.2 13.1 6.6z"  fill="#fff500" /><path d="M-122.1-396.4c-9.3 34.4-21.3 68.1-28.9 103-9.5 43.4-13.3 87.7-26.8 130.2-5.4 17.2-43.4 126.6-67.2 117-13.2-5.3 0.2-24.8 9.9-14.4 9.7 10.4-10.6 22.4-15.1 8.9-2.5-7.5 40.7-66.2 55.5-107.2 28.1-78 32.5-162.4 59-241.4 3-8.8 14.9-5 13.6 3.9z"  fill="#fff" /><path d=""  fill="#c2e1ff" /><path d="M-81.6-51.9c-23.6 25.8-43.7 54.6-53.5 88.6-2 6.9-3 46.7-14.2 42.1-6.2-2.6-3.3-12.2 3.3-11 7.7 1.4 4.8 13.4-2.7 11.2-22.7-6.7 19.6-108 53.2-143.1 8.5-8.9 20.5 2.6 13.9 12.2z"  fill="#fff" /><path d="M-73.5 71.7c2.7 8.7-11.3 3.3-5-1.2 7.2-5.2 5.9 11.4-0.4 5.1-3.5-3.5-0.4-9.6 4.2-6.3z"  fill="#fff" /><path d="M-58.6-65.4c-24.9 30.9-47.8 64.1-52.3 104.5-0.8 7.2 4.2 35.5-2 38.6-6.8 3.3-9.8-8.8-2.2-9.1 7.5-0.2 5.1 12.1-1.8 9.2-4.8-2.1-4.6-12.5-5.1-16.5-6.6-50.5 16.8-100.4 49.2-137.9 7.8-9 20.1 1.4 14.2 11.2z"  fill="#fff500" /><path d="M-51.7 55.4c2.1 3.9 12.6 14.9 11.5 18.6-1 3.4-6.1 0.6-3.9-2.1 2.3-2.7 5.8 2 2.7 3.5-9.7 4.5-22.2-34.5-10.3-20z"  fill="#005bbb" /><path d="M-35.7-232.8c-65.2 88.6-150.7 159.2-218.3 246.5-10.4 13.4-19.7 27.7-26 43.5-2.2 5.6-3.1 19.8-9.5 22.4-11.5 4.8-11.8-16.8-0.1-12.4 9.9 3.8 0.2 18.5-7.2 10.9-17.8-18.3 59-112.1 74.4-129.9 21.8-25.2 42.4-51.5 65.6-75.3 21.9-22.4 46-42.4 67-65.8 14-15.6 25.4-38.7 41.3-51.9 8.3-6.9 17.5 3.7 12.8 12z"  fill="#c2e1ff" /><path d="M-24.4-268.1c-24.6 28.3-44.2 60.3-68 89.2-47 57.3-102.7 117.2-151.7 174.8-15 17.6-29.5 36-38.5 57.5-2.3 5.6-5.4 32.8-16.7 25.5-8.8-5.6 3.4-17.9 9.1-9.1 5.7 8.8-10.7 14.8-12.1 4.4-6-43.6 61.2-109.1 87.1-140.3 38.2-45.9 80.3-88.8 117.7-135.2 19.1-23.8 36.1-62 60.7-80.1 9-6.6 17.9 4.9 12.4 13.3z"  fill="#fff" /><path d="M-12.9-256.6c-21.2 27.3-40.2 56.2-63.3 82-22.3 24.8-48.3 45.4-71.9 68.8-36.2 35.9-70.2 76.6-101.9 116.5-10.4 13.1-20 27.1-26.8 42.5-2.9 6.7-4.2 23.6-11.4 26.5-11.5 4.7-11.7-16.9-0.1-12.5 9.9 3.8 0.1 18.5-7.2 10.9-18.7-19.4 73.4-128.2 92.6-150.8 37.1-43.5 81-79.1 119.1-121.4 19.9-22.1 35.3-56.4 58.2-74.9 8.5-6.8 17.6 4 12.7 12.4z"  fill="#fff" /><path d="M-69.1-392.3c-74.7 77-68.3 152.1-106.2 243.9-8.8 21.3-20.7 61.3-39.3 76-12.5 9.9-20.4-16.7-4.5-15.3 13.5 1.2 6.7 22.7-5.1 16-10.7-6.2 25.1-58.3 40.1-95.6 27.6-68.3 30.5-143.5 74.4-205.1 7.7-10.8 17.4-26.9 28.6-34.2 9.7-6.3 18.1 6.1 12 14.3z"  fill="#fff" /><path d="M8.8-391.1c-39.9 37.6-90.6 57.6-117.6 108.2-13.5 25.2-21 53.1-31 79.8-19.9 53-48.4 105.8-82.6 150.9-6.4 8.5-14.5 22.9-23.6 28.3-12.5 7.5-20.2-15.5-5.7-17 17-1.8 9 26.8-4.6 16.4-11.2-8.6 35-55.5 58.9-97 37.4-64.9 68.3-177.7 110.5-220.7 11.5-11.6 74.1-62.9 87-65.9 10.6-2.5 15.1 10.1 8.7 17z"  fill="#c2e1ff" /><path d="M19.7-75.4c-0.5 60.7 58.3 80.5 90.8 121.5 3.5 4.4 21.2 25.8 14 30.9-5.3 3.7-9.5-6.2-3.1-7.4 6.4-1.2 6 9.6-0.2 8-6.1-1.6-11.4-23.2-15.3-28.9-22.3-33.2-62.3-49.4-83.6-83.3-6.5-10.4-15.5-28.5-13.4-41.3 1.1-6.6 9.7-5.3 10.8 0.5z"  fill="#005bbb" /><path d="M32.9-244.4c-22.5 44.2-45.6 88.2-82 122.8-41.2 39.2-90.5 65.9-128 109.6-17.4 20.4-33.8 42.3-45.6 66.5-2.9 5.8-8.9 34.1-20.3 24.8-7.6-6.2 2.8-17.6 9.7-10.6 8 8.1-8 18.2-11.9 7.4-4.5-12.6 13.6-40.1 19.6-50.7 43.4-76 100.6-106.2 162.7-160.9 54.4-48 55.8-86.9 82.5-117.8 6.4-7.4 16.2 0.7 13.3 9z"  fill="#fff" /><path d=""  fill="#fff500" /><path d="M49.2 27.2c6.5 4.6 58.6 39.8 50.6 48.6-3.2 3.5-7.8-2.9-3.5-4.8 3.8-1.6 6 4.5 2.1 5.6-5.3 1.6-9.9-11.6-12.5-14.8-10.6-13.3-24.3-23.1-37.9-33-1.1-0.8 0-2.3 1.2-1.6z"  fill="#c2e1ff" /><path d=""  fill="#fff500" /><path d="M78-211.6c-10.8 51.4-26.4 109.3 1.6 157.9 17.4 30.2 85.1 92.2 76.8 128.5-1.8 8.2-14.4 2.3-9.3-4.3 6-7.8 14.7 6.9 5 8.4-6.6 1-16.7-46.8-21.5-55.3-25.5-44.9-70.2-75.3-77.1-129.8-2.5-19.6 0.8-96.6 12.7-111.1 4.7-5.7 12.3-0.8 11.8 5.7z"  fill="#fff500" /><path d=""  fill="#fff500" /><path d="M77.7-395.5c-20.9 58.4-67.5 98.1-104.5 145.9-25.1 32.5-83.2 117-117.6 134.2-15.9 8-18.5-22.8-1.5-17.7 14.5 4.4 2.2 26.3-9.1 16.3-13.5-12 57.7-71.2 67.6-82.8 21.5-25.2 39.6-52.9 60.3-78.7 19.7-24.4 42.2-46.4 61.1-71.4 9.9-13 21.9-45.9 31.8-54.3 6.3-5.4 13.7 1.5 11.9 8.5z"  fill="#c2e1ff" /><path d="M111.6-142.8c-4.4 70.4 39.1 115.5 59.1 178.6 2.2 7.1 13.4 40.5 1.8 43.4-9 2.3-9.5-13.2-0.3-11.4 9.2 1.7 3.1 16-4.5 10.5-6.7-4.8-3.5-31.8-5.5-40.1-11.2-46.3-44.7-83.5-56.7-129.7-3.8-14.8-9.6-37.9-5.5-53.1 1.9-7 11-4.6 11.6 1.8z"  fill="#fff500" /><path d="M123.5-211.1c-9.1 62.9-14.7 116.7 15 175.4 6.1 12.1 59.3 109 35.1 114.9-9.1 2.3-9.5-13.3-0.3-11.5 9.2 1.8 3 16.1-4.6 10.6-6.6-4.7-3.1-30-4.8-38.2-11.8-54.7-53.1-97.2-59.8-154.1-2.1-18.4-2.4-87.7 7.8-101.8 4.2-5.7 11.7-1.4 11.6 4.7z"  fill="#c2e1ff" /><path d="M130.5-398c-4.2 66.9-32 248.9-23.6 298.3 10.6 62.3 37 82.3 36.5 86.5-0.8 5.9-9.8 0.8-5.2-2.9 4.6-3.7 7.7 6.1 1.8 5.7-6.8-0.5-17.6-28.1-20.8-33.9-12.4-22.8-21.8-46.8-24.8-72.7-6.4-55 18.9-205.5 23.5-273.6 0.6-8.2 11.8-22.1 12.6-7.4z"  fill="#005bbb" /><path d="M145.5-397.9c-3 53.1-2.3 106.8-8.7 159.6-6.3 52-22.7 104.8-9.8 157.2 7 28.6 50 97.7 48.6 118.3-0.6 8.3-13.7 2-7.6-3.6 6.2-5.7 11.3 7.9 3 7.8-6.6-0.1-20.2-47.1-23.9-54.7-50.9-104.5-33.4-132.3-21.2-240.5 4.7-42.1 4.6-84.7 6.7-127 0.3-5.6-1.7-17.2 2.7-21.6 4.1-4.2 9.9-0.5 10.2 4.5z"  fill="#c2e1ff" /><path d="M154.5-10.5c5.3 10.4 40.8 84.9 20.8 89.7-9.2 2.2-9.5-13.5-0.2-11.6 7.9 1.6 4.7 13.9-3 11.5-8.4-2.6-5.4-36.1-7.4-44.3-3.2-12.6-17.1-31.7-16.7-43.9 0.1-3.8 4.8-4.2 6.5-1.4z"  fill="#fff" /><path d="M169.6-221.1c-14.7 56.5-34.4 108-16.8 166.5 6.5 21.6 49.3 116.7 35.4 132.3-6.5 7.3-16-5.9-7.1-9.8 9-3.9 12.1 12 2.3 11.8-9.1-0.2-7.7-47.2-10.3-56.6-13.9-49.9-41.7-92.9-39.5-146.6 0.8-19.5 11.7-91 24.1-104.3 5.3-5.7 12.9 0 11.9 6.7z"  fill="#c2e1ff" /><path d="M176.1-397.1c-8.9 52.6-6.8 106.2-15.5 158.8-8.3 50.4-28.8 99.7-21 151.5 4.5 29.7 38.2 89.8 38.1 107.8 0 7.8-12.6 2.7-7.2-2.9 5.4-5.6 11 6.7 3.2 7-7.1 0.3-18.5-40.2-21.4-46.9-42.2-97.1-17.2-136.3-2.3-232.6 7.3-46.9 5.9-94.6 12.8-141.6 1.4-9.3 13.6-12 13.3-1.1z"  fill="#c2e1ff" /><path d="M192.4-262.3c-15.6 65.4-52.9 127.9-37.7 197 7.1 32.5 49.9 112.1 37 141.4-4 9-17.2-0.6-9.8-7.1 8.6-7.6 15.4 11.2 3.9 10.8-9-0.3-7.4-47.8-10-57.4-13.6-50.1-40.3-93.7-36-147.6 2.1-26.7 27.5-119 39.8-142 4-7.5 13.7-2.5 12.8 4.9z"  fill="#005bbb" /><path d="M203-71.9c-3.1 43.4 18.8 82.6 21.6 125.1 0.4 6.4 3.8 25.3-5.9 26.6-8.7 1.1-9.8-12.6-1-12.8 8.8-0.2 8.3 13.6-0.4 12.9-10.4-0.9-4.5-42.1-6-51-5.1-29.9-27.6-71.9-19.8-102.4 1.8-6.9 10.8-4.8 11.5 1.6z"  fill="#005bbb" /><path d=""  fill="#fff500" /><path d=""  fill="#fff500" /><path d="M238.5-149.2c-38.7 42.5-39.5 92.9-25.1 145.7 5.5 20.1 21.1 59.3 10.9 79.6-4.6 9.2-17.8-1.5-9.8-7.9 9.4-7.5 15.4 12.5 3.5 11.5-8.9-0.7-5.9-51.2-8.2-61.4-11.2-50.1-28.5-97.2-5.5-147.1 20.5-44.5 46.2-39.1 34.2-20.4z"  fill="#fff500" /><path d="M249.6-194.1c-41.2 38.3-69.9 86.4-61.3 144.3 1.9 13.1 37 133.7 16 129.7-7.3-1.4-6.4-12.5 1-12.7 8.7-0.3 8.4 13.5-0.3 12.8-11-0.9-4.1-35.3-5.1-43.1-7.6-60.8-39.3-112.3-13.9-174.2 8.1-19.8 31.7-66.2 54.1-72.9 10.2-3.1 15.3 8.9 9.5 16.1z"  fill="#fff" /><path d="M259.1 40.3c1.4 6.6 9.6 41.2-4.3 39.1-8.4-1.2-5.7-14.3 2.5-12.2 8.2 2.1 4.1 14.9-3.8 11.9-10.4-4-1.9-65.5 5.6-38.8z"  fill="#fff" /><path d="M250.4-392.2c-43.1 45.4-48.6 101.1-65.5 158.5-13.5 45.6-36 89.8-34.1 138.5 1.7 45.4 29.4 85.5 25.9 96.9-2.1 7.1-12.1-0.9-5.7-4.6 6.4-3.7 8.2 9 1 7.3-7.3-1.7-13.6-30.4-16-37-33-87.8-2.8-139.2 20.3-222.6 13.5-48.5 19.4-98.5 51.7-139.2 13.8-17.5 34.1-14.4 22.4 2.2z"  fill="#005bbb" /><path d="M283.4-166c-40.6 29.9-68.9 70.2-64.1 122.7 1.2 13 31.7 127.1 12.3 123.3-7.3-1.4-6.4-12.5 1-12.7 8.7-0.3 8.4 13.5-0.3 12.8-11.1-0.9-4-31.3-4.7-38.5-5.4-55.9-34.3-104.8-9-160.8 8.5-18.9 34.1-60.7 56.7-64.8 11.1-2 15 11.2 8.1 18z"  fill="#005bbb" /><path d="M294.3 71c0.8 19.5-20.6-0.9-6.6-3.1 15-2.3 0.1 22-4.7 7.6-3.1-9.4 10.1-14.5 11.3-4.5z"  fill="#fff500" /><path d="M265.3-391.5c-17.2 15.7-33 32.2-43.9 53.1-12.8 24.6-65.8 195-68.5 222-1.6 15.8 11.6 81.5 11.2 82.6-2.3 7.1-12.3-1.1-5.8-4.7 6.6-3.6 8.2 9.3 1 7.4-12.4-3.2-19-87.5-17-102.8 4.6-34.1 60.7-209.4 78.2-235.7 8.1-12.2 20.2-30.1 33.3-37.5 10.4-5.8 18.2 7.5 11.5 15.6z"  fill="#c2e1ff" /><path d="M272.3-391.4c-17.3 15.2-34.2 30.5-46 50.6-14.8 25-67.2 186-71.8 216.7-2.4 16.4-2.4 33.1 0.1 49.4 0.8 5.4 7.1 19.4 3.4 23.9-4.4 5.3-11.4-3.8-5.2-6.8 7.3-3.4 8.1 10.6 0.5 8.1-14.8-4.9-9.8-91.2-5.9-107 10.5-42.1 58.7-189.8 81.9-219.2 8.3-10.4 19.8-25.5 31.8-31.8 10.7-5.6 18.2 8.1 11.2 16.1z"  fill="#005bbb" /><path d="M326.4 22.6c3.1 7.6 24 50.5 14.2 55.2-5.9 2.9-10-6.7-3.7-8.9 6.2-2.2 9.2 7.7 2.7 9.3-8.7 2.1-8.8-18.4-10-23-1.6-5.9-14.3-29.5-9.3-34 2.1-1.9 4.9-0.8 6.1 1.4z"  fill="#c2e1ff" /><path d="M329.3-392.2c-22.5 28-58 41.4-81.6 68.5-28 32.1-73 142.9-84.3 186-7.1 27.4-7.3 55.3-0.6 82.7 0.9 3.8 15.4 40.3 4.4 36.2-4.4-1.6-2.6-8.4 2-7.7 5.4 0.8 3.7 9.2-1.6 7.8-7.2-1.8-11.2-26.6-13-32.7-20.7-71.3 8.4-129.2 35.3-193.8 11.7-28.1 21.5-57.6 38.7-83 11-16.2 74.1-73.4 90.9-79.2 9.7-3.4 15.1 8 9.8 15.2z"  fill="#fff" /><path d="M350.6-39.9c3.6 32.3 20.6 61.3 34.9 89.8 2 4 15.9 24 8.4 26.9-4.7 1.8-7.1-5.8-2.2-7.1 4.9-1.3 6.4 6.5 1.5 7.3-10.7 1.5-53.3-102.6-52.4-116.3 0.4-6 8.2-5.7 9.8-0.6z"  fill="#fff" /><path d="M352.7-394.1c-20.3 39-65.7 52.8-95.5 82.5-37.3 37.2-60.1 98.3-80.2 146.4-11 26.4-18 54.3-16 83 0.3 4.7 10.5 43.2-0.5 38.1-8.7-4.1 5.7-13.8 6.2-4.2 0.5 9-8.4 2.3-9.6-2.4-19.4-69.9 7.8-126.7 37.5-188.6 13.2-27.5 25.4-56.3 44.8-80.2 22.4-27.5 53.7-41.7 80.4-63.9 7.5-6.2 13.6-18.1 21.8-22.7 8.1-4.5 14.7 4.7 11.1 12z"  fill="#fff" /><path d="M375.1-240.6c-54.1 51.6-147.1 77.2-161.6 160.6-7.1 41.2 30.6 131.4 18.3 156.1-5.3 10.7-19.2-4.8-8-8.9 11.2-4.1 10.7 16.7-0.3 12-8-3.4-2-20.4-2-26.4 0-17.5-4.2-34.6-8.6-51.3-14-52.7-20.1-103.6 14.4-150.3 19.8-26.8 106.5-92 136.7-107.9 10.6-5.6 18.1 8.1 11.1 16.1z"  fill="#fff" /><path d="M387.1-359c-20.7 44.8-67.6 63.4-104.9 91.1-41.7 31-79.6 81.2-99 129.5-13.2 33.1-13.3 67.5-4.2 101.6 1.2 4.6 18.2 49.6 6.7 44.8-5.3-2.2-1.3-10.4 3.7-7.6 4.3 2.4 1.4 9.1-3.3 7.8-7-2.1-10.9-27.7-12.9-34.1-17.7-56.2-14.6-108 15.7-159.3 67.5-114.3 92-90.6 163.2-156.5 8.3-7.7 14.5-22.3 23.5-28.1 7.5-4.9 14.5 3.6 11.5 10.8z"  fill="#005bbb" /><path d=""  fill="#005bbb" /><path d="M410-147.5c-27.7 43.4-46.5 86.6-27.4 137.7 2.5 6.6 49.8 85.5 41.7 86.6-5 0.7-4.3-7.6 0.5-6.1 4.8 1.4 0.8 8.7-3 5.4-7.6-6.7-13.1-22.1-18.3-30.9-27.7-46.8-52.9-95.8-33.7-151 5.6-16.1 14.7-40.2 27.2-52.3 7.4-7.2 17 2.2 13 10.6z"  fill="#fff" /><path d="M417.2 4.4c4 7.9 44.8 69.6 42.2 71.2-3.1 1.9-5.9-3.1-2.6-4.7 3.9-1.9 5.5 5.1 1.2 5.1-11.1 0.2-41.2-58.4-46.6-68.4-2.1-3.8 3.4-6.5 5.8-3.2z"  fill="#c2e1ff" /><path d=""  fill="#fff" /><path d="M444.3-146.2c-25 44.8-37.3 90.6-15 139.4 6.2 13.6 51.9 75.1 52 80.4 0 4.7-7.6 1.7-4.4-1.7 3.2-3.4 6.6 4 2 4.2-5.9 0.3-19.9-24.6-23.5-29.5-32.8-45.1-60.8-94.8-45.4-152.2 4.1-15.2 10.4-37.9 21.1-49.9 6.7-7.4 16.4 1.1 13.2 9.3z"  fill="#c2e1ff" /><path d="M454-359.2c5.8 68.2-28.5 134.1-74.1 182.4-28.3 30-67.1 56.6-79.7 97.7-13 42.2 24 115.1 21.4 122.5-2.6 7.4-12.8-1.5-5.9-5.1 6.9-3.6 8.3 9.9 0.8 7.8-7.7-2.2-16.9-41.3-19.8-49.4-46.4-127.3 70.8-159.9 120.6-254.3 21-39.8 22-94.9 26.3-103.8 2.6-5.5 9.6-3 10.4 2.2z"  fill="#fff" /><path d="M522.3-399.3c33.1 108.8-26.1 177.1-72.6 267-6.9 13.4-13 27.4-16.5 42.1-1.5 6.1-0.2 21.9-5.9 25.5-7.8 4.9-13-9.5-3.9-10.7 9.1-1.2 7.9 14.1-1 11.3-33.4-10.4 75.2-183.4 83.3-204.2 9.8-25.4 14.5-52.2 14-79.5-0.2-14.6-9.2-38-6-51.4 1.1-4.8 7.1-4 8.6-0.1z"  fill="#fff500" /><path d="M478.6-176.6c-29.4 47.2-59 97.6-39 154.6 12.9 36.7 52.2 74.1 59.7 94.7 1.8 5-7.6 3.1-4.1-0.8 3-3.3 6.5 3.7 2 4-5.8 0.4-20-23.8-23.6-28.5-38.4-51-66.7-106.1-42.5-170.1 7.5-19.8 19-49.3 34.4-64.3 7.4-7.2 16.9 2.2 13.1 10.4z"  fill="#fff500" /><path d="M490-167.1c-31.7 45.2-56.3 95.3-34.5 150.5 12.4 31.6 50.8 70 57.6 89 1.8 5-7.6 3.1-4-0.8 3-3.3 6.4 3.7 2 4-5.8 0.4-20.1-23.7-23.7-28.4-37.2-49-66.3-103.4-43.4-165.5 6.8-18.5 18.1-46.6 33.1-60.1 7.9-7.1 17.3 3 12.9 11.3z"  fill="#fff" /><path d="M501.5-135.9c-29.7 38.7-39.1 83.9-19 129.3 6.1 13.8 51.5 74.8 51.5 79.8 0 4.7-7.5 1.7-4.3-1.7 3.2-3.4 6.6 4 1.9 4.2-5.8 0.3-18.6-22.6-22-27.2-32.9-44.4-62.4-95.6-44-152.4 4.4-13.5 11.8-34.2 22.9-43.7 8.1-7 17.5 3.3 13 11.7z"  fill="#c2e1ff" /><path d="M507.9 37.4c3.1 4.5 29 35.6 25.1 38.3-2.8 1.9-5.6-2.7-2.6-4.3 3-1.6 5.3 3.3 2.1 4.5-4.2 1.7-8.1-7.6-9.8-9.7-13.3-17.4-24.7-39.6-14.8-28.8z"  fill="#fff500" /><path d="M519.1 58.5c1.7 2.3 14.2 13.8 9.8 16.9-2.8 1.9-5.5-2.6-2.6-4.2 3-1.6 5.2 3.2 2.1 4.5-9.6 3.9-15.9-24-9.3-17.2z"  fill="#fff" /><path d="M533.6-25.8c1.8 24.1 42 96.9 41.6 99.8-0.6 5.7-9.4 1-5-2.7 3.7-3.1 7.5 4 2.8 5.3-14.4 3.9-47.3-88.4-49.5-100.8-1.1-6.6 8.4-7.6 10.1-1.6z"  fill="#fff" /><path d="M547-109.9c-30.7 31.6-37.7 72.2-21.7 113 4.6 11.7 39.5 65.7 39.1 70.3-0.4 5.4-8.8 1.3-4.8-2.3 4-3.6 7.3 5.1 1.9 5-6.2-0.1-16.4-23-19.5-27.9-26-41.2-49.5-89.2-29.2-137.9 19.4-46.5 47.9-40.5 34.2-20.2z"  fill="#fff500" /><path d="M558.7-398.4c-1.5 50.9-5 102.7-27.4 149.3-23.4 48.8-62.1 89.4-82 140-9.4 23.8-6.6 76.8-7.4 77.7-5.3 6.2-11.8-6.4-3.7-7.2 6.9-0.7 5.6 10.7-1 8.5-16.3-5.6-4-78.9 1.3-92.6 20.6-53.4 62.1-95.5 85.4-147.7 25.1-56.1 11.9-90.5 23.2-129.9 2-6.9 11-4.5 11.6 1.9z"  fill="#005bbb" /><path d="M569.3-375c-7.6 47.9-13.9 94.2-38 137.1-29 51.8-78.9 99.4-87.5 160.3-6.2 43.8 15.8 80.4 39.3 115.2 2.4 3.5-3.9 6-4.7 2-1.9-9.7 11.2 4.8 1.8 2-11.6-3.5-27.2-39.2-32.5-49.6-55.3-109.9 53.8-185.3 89.4-279.2 6.9-18.3 14.3-84.3 20.6-92.6 4.3-5.8 11.8-1.4 11.6 4.8z"  fill="#fff" /><path d="M577.2 58.4c2 3.7 10.9 13.5 6.8 17.6-3.7 3.6-8.2-3.7-3.4-5.4 4.2-1.5 6.1 5.2 1.8 6.2-13.2 3.1-12-27.9-5.2-18.4z"  fill="#fff" /><path d="M592.7-373.5c-16.9 42.9-22.6 88.6-46.1 129-32.1 55.1-90.1 104.2-97.7 170.6-5.7 49.7 36.7 97.2 36.4 108.1-0.2 5.9-9.1 0.1-3.9-2.5 4.5-2.2 5.1 6.4 0.4 5-11.7-3.7-26.6-39.7-31.5-50.4-51-110.7 63-184.3 100.9-275.9 11.2-27.2 12.2-66.3 28.3-90.5 5-7.6 15-1.2 13.2 6.6z"  fill="#c2e1ff" /><path d="M604.2-336.1c-15.4 35.3-26.5 71-49.1 102.7-36 50.4-93.9 97.7-99.7 163.4-4.2 47.6 24.7 89.1 52.1 125.1 4.7 6.2-1.7 7.7-2.4 4.6-2.1-9.1 10.8 4.3 1.8 1.9-5.4-1.4-12.3-15.2-15.6-19.6-32.3-43.5-58.6-92.9-42.3-148.2 18-61 69.8-102.5 103.6-154.2 16.4-24.9 22.3-61.4 38.4-83.1 5.6-7.6 15.5-0.5 13.2 7.4z"  fill="#c2e1ff" /><path d=""  fill="#fff500" /><path d="M605.9-391.5c-24.2 43-28.4 93.7-51.7 137.2-27.8 52.1-74.7 93.1-96.3 148.7-7.5 19.3-10.6 39.9-7.6 60.5 0.5 3.3 11.7 33.1 1.4 29.5-4.2-1.5-2.7-8 1.7-7.4 4.4 0.5 4.4 7.2-0.1 7.6-6.7 0.7-9.3-16.5-10.5-20.5-26.1-90.2 55.7-156.1 96.7-225.9 21.6-36.8 30.3-112.5 53.1-138.7 6.5-7.5 16.3 0.7 13.3 9z"  fill="#fff500" /><path d="M604.8-158.2c-40.9 33.3-94 65-88.9 125.7 2.7 31.7 19.6 60.3 36.3 86.6 1.3 2.1 18.3 23.6 8.9 22.4-3.9-0.5-2.8-6.6 1-5.7 3.3 0.8 2.6 5.8-0.7 5.7-6.6-0.1-19.7-28-23.2-33.6-32.6-52.4-50.1-111.7-6.9-164 10.4-12.6 50.1-52.1 65.3-55 11-2 15 11 8.2 17.9z"  fill="#fff500" /><path d="M605.7-333.7c-15.6 35.2-27.2 70.7-50.2 102.2-32.6 44.5-78.3 83.7-94.8 138-9.8 32.4 8 87.4 7.2 88.9-3.3 5.6-10.2-3.3-4-5.1 6.2-1.8 5.2 9.4-0.6 6.5-9.3-4.7-14.6-33.1-16.5-42.4-18.8-92.2 69.5-152.5 112-221.7 13.7-22.4 18.3-53.4 33.6-74 5.6-7.6 15.6-0.5 13.3 7.6z"  fill="#fff500" /><path d=""  fill="#c2e1ff" /><path d="M605.6-326.3c-11.4 26.2-20.6 53-35.9 77.3-29.7 47.3-75 83.4-99.5 134.3-9 18.5-14.4 38.7-13.5 59.3 0.1 3.1 8.7 34-2.1 29.3-5.3-2.3-1.2-10.5 3.9-7.5 4.3 2.5 1.3 9.2-3.4 7.7-6.7-2.1-7.7-21-8.6-26.5-11.5-78.4 55.1-135.9 98.4-191.7 12.3-15.8 44.5-87.6 48.7-91.1 6.5-5.4 14 1.8 12 8.9z"  fill="#005bbb" /><path d="M605.5-237.2c-40.3 55.2-114.5 87.8-129.7 159.9-8.2 39.5 19 79.6 17.8 89.4-0.8 5.8-9.6 0.8-5.1-2.9 5.3-4.3 7.1 8 0.8 5.3-10.8-4.6-19.7-37.9-22.5-48.2-26.3-96.4 68.9-154.4 124.6-214.7 8-8.6 20 1.5 14.1 11.2z"  fill="#fff500" /><path d=""  fill="#fff500" /></svg>