<svg width="1200" height="675" viewBox="-500 -500 1200 675" xmlns="http://www.w3.org/2000/svg"><path d="M-500-500h1200v675h-1200z" fill="#000"/><path d=""  fill="#fff500" /><path d=""  fill="#fff500" /><path d=""  fill="#005bbb" /><path d=""  fill="#005bbb" /><path d=""  fill="#fff" /><path d=""  fill="#fff" /><path d=""  fill="#fff500" /><path d=""  fill="#c2e1ff" /><path d="M-357.8-399.7c14 46.7 5.2 94.6-13.4 138.7-4.1 9.6-15.6 48.4-29.1 45.7-13.6-2.7-4.4-23.8 6.9-15.7 11.2 8.2-6 23.5-12.8 11.4-6.8-12.3 24.5-58.9 29.5-72.6 20.5-55.8 5.5-92 9.4-107.5 1.3-5.3 7.9-4.4 9.5 0z"  fill="#005bbb" /><path d="M-383.3-65.5c10.7 31.8 46.2 110.9 28 142.4-5.9 10.1-20.2-3-10.6-9.7 9.6-6.7 17.1 11.2 5.6 13.3-13.5 2.4-5-53.7-6.7-63.8-4.4-27.7-16-52.9-24.7-79.2-1.9-5.6 5.9-8 8.4-3z"  fill="#005bbb" /><path d="M-367.6-301c-2.5 10.9-18.4 74.7-35.4 65.1-10.3-5.9-0.2-21.7 9.5-14.7 9.6 7-2.2 21.6-11 13.6-8.9-8 6.6-27.5 10-35.3 3.9-8.9 7.1-31.7 15.3-37.1 6.3-4.1 12.5 2 11.6 8.4z"  fill="#fff500" /><path d="M-351.6-399.6c12.7 49 1.9 98.1-18 143.6-4.3 9.7-17.1 51.1-30.5 48.6-13.6-2.5-4.6-23.6 6.6-15.6 11.2 8-5.7 23.4-12.6 11.4-7.4-12.9 25.9-61.7 31.4-75.7 22.2-56.8 9-97.8 13.3-112.6 1.5-5.4 8.3-4.2 9.8 0.3z"  fill="#fff500" /><path d="M-336.1-399.1c8.3 49.7-3.5 97.6-23.6 143-7.9 17.8-28.2 44.1-29.6 63.3-2 27.9-3.4 55.8-4.4 83.7-1.9 53.1 12.3 108.3 8.8 113.7-5.1 7.8-16-3.2-8-8.2 9.3-5.8 12.7 12.9 1.9 10.8-9-1.8-7.3-29.6-8.6-36.6-10.8-54-5.5-116.5-5-169.7 0.2-17.8 41-87.9 48.8-113.1 9.3-30 5.2-56.9 8.8-86.9 0.8-6.7 9.5-5.9 10.9 0z"  fill="#005bbb" /><path d="M-332.4-131.1c8.5 66.1 73 109.7 98.9 168.5 2.7 6.2 18.1 35.6 9.7 40.4-6.8 3.9-10.7-8.6-2.9-9.2 7.8-0.7 6.1 12.3-1.3 9.6-8.3-3-15.4-43.7-19.7-52.8-21.1-44.3-59-77.3-81.9-120.5-5-9.4-13.5-24.1-13.1-35.1 0.2-6.4 8.5-6.3 10.3-0.9z"  fill="#c2e1ff" /><path d="M-318.1-164.2c-4.6 23.5-0.3 47.3 9.8 68.8 23.2 49.4 66.4 85.8 85.5 137.8 2.2 5.9 14.4 31.3 6.2 35.7-7.1 3.8-10.7-9.1-2.7-9.6 8-0.5 5.9 12.7-1.6 9.8-8.2-3.2-12.8-40.5-16.3-49.2-21.2-52.3-68.1-89.6-87.5-142.6-5.3-14.4-12.4-38.7-6.8-53.9 2.9-8 13.4-4.4 13.4 3.2z"  fill="#fff" /><path d="M-302.5-398.1c2.5 111.3-72.1 177.9-72.6 259.9-0.2 34.1 14.8 65 32.1 93.5 1.4 2.3 20.1 26.7 9.7 25.3-14.1-1.9 13.8-8.9 2.3-0.6-6.1 4.4-15.3-17.7-17.6-21.2-78.7-125.4-14.4-163.9 22.1-281.6 5.6-18 7.1-68.5 12.3-78.3 3.2-6.1 11.1-3 11.7 3z"  fill="#fff" /><path d="M-296.2 40.4c2.4 5.2 18.7 35.5 7.7 37.7-6.6 1.3-8.1-9.1-1.4-9.7 6.7-0.6 7 10 0.4 9.8-9.5-0.2-19.1-60.2-6.7-37.8z"  fill="#fff" /><path d="M-284.7 15.3c5 7.5 36.2 55.1 25.9 61.7-5.3 3.4-10.3-5.2-4.6-8 5.6-2.8 9.6 6.3 3.7 8.5-8.3 3.1-11.1-18.7-12.7-22.9-4.8-12.4-14.2-24.1-18.2-36.6-1.2-3.8 3.7-5.5 5.9-2.7z"  fill="#fff500" /><path d="M-268.3-384.3c-8.4 107.9-89.6 196-70.2 267.8 13.2 48.9 54.2 84.2 81.3 125.2 1.6 2.4 17.8 22.5 7.9 23.5-5 0.5-5.4-7.5-0.3-7.4 5 0.1 4.5 8-0.5 7.4-7-0.8-19.9-31.5-24.4-37.9-34.3-48.5-84.3-93.5-80-158.2 3.8-56.5 42.7-104.1 59.8-156.9 6.9-21.4 6.1-45.8 13.3-66.4 2.7-7.8 12.9-4.4 13.1 2.9z"  fill="#005bbb" /><path d="M-254.7-202.3c-52.8 106.2 28.5 148.2 52.1 243.5 2.3 9.2 7.6 23.7 6 33.1-1.5 8.5-14.8 3-9.9-4 5.8-8.3 15.5 6.4 5.6 8.4-7.9 1.6-19.1-64.1-23-73.9-21.1-52.9-67.9-98.5-62.8-159.2 1.4-17.1 6.3-43.3 17.5-57 6.6-8.2 17.5 0.2 14.5 9.1z"  fill="#c2e1ff" /><path d="M-244.9-397.9c-3.3 43.4-10.3 85.8-27.6 126-20.2 46.7-57 93.6-46.4 147.4 10.1 51.4 67.2 96.3 73.5 123.4 1.4 6-9.2 4.4-6.1-0.9 3.6-6.2 9.9 5.3 2.7 5-7.8-0.3-31.6-43.4-37.2-51-104.3-138.8 3.2-181.1 23.7-316.4 1.5-10.1-0.4-29.2 5.1-37.7 4-6.2 12.1-2.2 12.3 4.2z"  fill="#fff500" /><path d=""  fill="#005bbb" /><path d="M-221.3-397.9c-3.9 45-9.8 89.5-27.6 131.4-18.6 43.7-53.5 87-48.2 137.1 2.9 27.6 56.9 112.7 56.9 112.9-0.6 6.1-10.1 1.2-5.5-2.8 4.6-4 8.2 6.1 2.1 5.8-7.4-0.3-25.7-36.8-30.3-43.7-80.9-121.1 1.5-157.7 28.6-270.6 5.5-23.1 3.3-50.9 10.9-73 2.7-7.8 12.9-4.5 13.1 2.9z"  fill="#c2e1ff" /><path d="M-208.7-45.6c8.3 19.7 38.4 104.5 27.1 122-5.1 7.8-15.9-3.2-8.1-8.2 7.9-4.9 13.1 9.6 3.9 10.8-11.8 1.5-8.7-35.2-9.4-41.9-3-28.3-17.3-53.3-21.4-80.5-0.8-5 5.7-6.1 7.9-2.2z"  fill="#005bbb" /><path d="M-192.4-219.2c-43.2 118.5-13.2 113.7 10.8 222.9 2.1 9.4 14.9 75.6 0.6 75.4-8.2-0.1-7.3-13 0.8-12 8.1 1 5.9 13.7-2 11.8-10.4-2.4-5.9-38.8-6.5-46.9-4.4-60-42-113.5-39.6-173.8 1-25 7.3-63.4 21.6-84.7 5.5-8.3 16.4-1.3 14.3 7.3z"  fill="#fff" /><path d="M-183.1-68.4c7.4 24.3 33 126 17.8 145.5-6.2 7.9-16.8-5-7.8-9.5 8.9-4.6 13.1 11.5 3.1 12-13.2 0.5-5.4-45.8-5.5-54-0.1-36.6-15.1-64.9-16.6-92.3-0.3-5.7 7-6.2 9-1.7z"  fill="#005bbb" /><path d="M-170.4-50.3c6.4 21.4 22.8 110.8 8.9 127.8-6.5 7.9-17-5.4-7.8-9.9 9.2-4.5 13.1 12 2.9 12.2-13.5 0.3-4.4-48.1-4.1-56.8 0.2-11.3-10-71.5-8.8-74.1 2-4.2 7.3-2.9 8.9 0.8z"  fill="#fff500" /><path d=""  fill="#fff" /><path d="M-142.8-388.6c-7.2 34.5-10.3 69.6-17 104.1-11.7 60.5-41.6 119.5-30.2 182.4 2.8 15.5 47.3 167.8 20.4 165.3-8.7-0.8-6.7-14.5 1.9-12.7 10 2.1 3.1 17.6-5.1 11.5-9-6.6-1.7-51.4-2.8-63-5.4-54.8-34.1-103.7-28.9-159.9 4.5-48.6 24.7-94.3 33.4-142.2 2.9-15.6 3.5-87.3 18.2-93.6 5.8-2.5 10.5 2.6 10.1 8.1z"  fill="#fff" /><path d="M-130.3 42.5c-1.4 7.3-2.4 40.6-14.8 37.9-9.4-2-5.5-16.6 3.6-13.6 9.1 3 3.6 17.1-5.1 13.1-9.6-4.3-1.3-37.8 3.4-43.5 5.1-6.3 13.4-0.9 12.9 6.1z"  fill="#fff500" /><path d="M-119-222.4c1.5 93.9 72.9 108 100.7 180.8 12.8 33.4-6.1 128.8-30.4 123.7-10-2.1-8.5-17.3 1.7-17.5 10.2-0.1 12 15.1 2.1 17.4-6 1.4-11.6-3.9-10.7-9.9 5.5-35.5 40.9-51.3 29.7-105.8-11.2-54.6-67.2-83.3-90.6-131.5-7.4-15.2-17.6-40.6-14.4-57.9 1.3-7.2 10.7-5.7 11.9 0.7z"  fill="#005bbb" /><path d="M-109.8-120.7c37 61.3 74.7 93.8 43.2 170-3.2 7.7-8.5 30.5-18 32.5-15.1 3.3-10.6-23.2 2.6-15.2 13.2 8-8.2 24.1-12.3 9.3-3.6-13 27.8-67.6 27.7-92.2-0.3-40.2-27.9-69.3-48.6-101-2.3-3.6 2.8-6.6 5.4-3.4z"  fill="#c2e1ff" /><path d="M-110.5-396c-20.8 58.5-44 195.5-25.7 254.3 10.1 32.5 64.1 104.7 53 136-3.4 9.6-17.7 0.7-10.6-6.6 8.3-8.5 16.7 10.4 4.8 10.9-9.5 0.4-11-46.2-14.5-55.1-20.9-53.5-54.2-92.5-52.2-153.3 1.8-53.9 12-140.9 30.1-191.1 3.6-9.9 17.1-4.9 15.1 4.9z"  fill="#fff500" /><path d="M-84-194.7c35.3 87.8 154.7 105.6 121.7 226.4-3.2 11.8-10.9 44.3-22.9 50-14.8 7.1-16.7-21.4-1.1-16.3 15.6 5-2.6 27-10.4 12.6-5.4-9.8 12-32.1 15.7-41.3 10.4-25.5 14.9-53.3 7.8-80.3-15-57.1-70.8-82.6-104.4-126.6-20.5-26.8-9.8-29.9-6.4-24.5z"  fill="#fff500" /><path d="M-69.8-394c-35.7 57.7-48.9 160.2-14.4 221 32.6 57.5 105.8 83.2 113.6 155.7 0.7 6.2 3.3 20-1.6 25.1-6.5 6.8-16.6-4-9.4-10 8.4-7.1 16.8 9 6.3 11.9-14.1 3.9-7-26.5-7.4-32-1.2-19.2-8.2-37.5-18.8-53.5-50.5-75.9-113.9-78.6-113-189.7 0.3-39.2 1.6-108.2 30.1-139 7.5-8.1 18.2 1.5 14.6 10.5z"  fill="#c2e1ff" /><path d="M-54.6-371.8c-26.4 43.3-32.6 107.1-16.7 155.1 29.4 89 141.9 108 134.3 220.6-0.5 7.5 0.2 28.3-8.8 31.5-11.4 4.1-14-15.8-1.9-14.7 14.1 1.2 3.1 23.3-6.4 12.6-5.4-6.1 1.8-20.3 2.9-26.9 2.8-17 2.7-34.5-1.1-51.4-18.9-83.7-118.3-111.6-135.5-196.7-7.5-37.4-8.9-109.5 18.6-140.3 7.3-8.2 18.1 1.1 14.6 10.2z"  fill="#fff" /><path d="M-42.6-324.2c-10.3 33.9-9 72.9 5.7 105.3 44.2 97.1 149.7 108.5 115.5 256.3-2.2 9.6-6.4 41.1-17.4 43.9-14.7 3.7-11.2-22.4 2.1-15 11.3 6.4-3.1 22.3-10.6 11.8-6.1-8.5 7.4-31 9.9-39.9 7.8-26.7 11.7-54.8 7.6-82.6-12.3-83-96.7-117.6-123.1-192.1-8.7-24.4-16.4-68.6-3.8-93 4.3-8.3 15.1-2.9 14.1 5.3z"  fill="#fff" /><path d=""  fill="#fff500" /><path d="M-19.1-16.2c1.9 14.9-15.9 110.4-38.8 97.2-8.8-5.1-2.7-19 7-15.9 11.3 3.6 4.7 21.1-6.2 16.3-14.8-6.5 8.7-37.1 12.5-45.1 5.6-11.8 10.7-50.9 15-56.1 3.7-4.5 9.8-1.4 10.5 3.6z"  fill="#fff500" /><path d="M-4.8-328.4c-13.4 31.3-12.4 67.8 0.4 99.2 42 102.7 126.4 115.6 97.8 261.3-2 10-5.4 45.5-16.4 48.8-12 3.6-13.6-17.1-1.2-15.3 14.5 2.1 1.9 24.2-7.3 12.7-2.2-2.8 21.3-73.9 16.8-123.5-7.8-84.8-86.3-130.1-107.3-208.1-6-22.2-10.7-61.4 2.7-82.1 5.4-8.4 16.4-1.6 14.5 7z"  fill="#c2e1ff" /><path d="M1.5-108.4c45.4 43.9 60 101.2 37.2 160.6-3 7.7-7.8 28.5-17.8 29.8-13.7 1.9-11.9-21 1.4-16.9 15.5 4.7-2.1 26.8-10.2 12.6-0.2-0.4 25.1-67.2 25.6-91.5 0.4-22.8-6-44.9-17.9-64.3-6.1-10-15.9-18-21.6-27.9-1.3-2.2 1.6-3.9 3.3-2.4z"  fill="#fff" /><path d=""  fill="#005bbb" /><path d=""  fill="#c2e1ff" /><path d="M44.8-309.6c-18.9 68.2 29.8 128.2 53.3 188.2 20.1 51.3 20.5 103.6 9.8 157.2-1.9 9.4-4 41.3-14 44.8-9.7 3.5-14.4-12.2-4.3-14.5 10.1-2.4 13 13.6 2.7 14.9-16.3 2.1-3.5-28.4-2.1-33.9 8.2-34.2 14.6-69.5 12.4-104.8-4.5-72.8-54.7-127.5-70.4-196.5-3.8-16.5-8.9-43.8-1.4-59.9 3.8-8.2 14.6-3.4 14 4.5z"  fill="#005bbb" /><path d="M57.4-314.2c-22 69.1 25.9 132.7 47.4 195.1 17.2 50.1 16.5 100.6 6.5 152.2-1.9 9.6-3.9 43.8-14.3 47.5-9.6 3.5-14.4-12-4.4-14.4 10-2.5 13 13.4 2.8 14.8-15.8 2.2-4.3-25.7-2.9-31.3 8.5-36 15.6-73 13.7-110.1-3.8-72.4-51.5-129.4-64.1-199.1-3-16.7-7-44.2 1.1-60 4.3-8.3 15.1-2.9 14.2 5.3z"  fill="#c2e1ff" /><path d=""  fill="#fff500" /><path d="M82.4 53.2c-1.7 6.3-6.7 37.4-19.7 26.4-7.1-6 0.7-17.5 8.9-13.1 9.6 5.1 0.8 19.8-8.2 13.7-18.9-12.8 23.9-56.3 19-27z"  fill="#fff500" /><path d=""  fill="#c2e1ff" /><path d="M106.5-288.8c-4.9 57 19.4 111.5 28.6 166.8 9.2 55.1 0.4 108.8-10.9 162.8-1.8 8.5-2.7 39.2-13.9 40-11.6 0.8-8.7-18.4 2.2-14.2 12.8 4.9-3.4 22.4-9.3 10-4.8-10 21.7-117.2 23.1-139.6 4.5-69.9-25.4-132.7-31.8-201.1-3.7-39.4 11.5-30.9 12-24.7z"  fill="#fff" /><path d="M117.4-113.1c14.4 55.3 7.1 110.9-4.9 165.8-1.5 6.9-1.8 21.6-7.6 26.4-9.1 7.6-18.2-9.9-6.7-13 11.5-3 12.3 16.7 0.6 14.6-14.3-2.5 5.9-62.4 7.8-73.1 4.3-24.3 7.4-49 6.6-73.7-0.4-13.1-8.8-35.1-5.5-47.2 1.4-5.4 8.1-4.3 9.7 0.2z"  fill="#fff" /><path d="M40.6-389.8c-50.4 39.1-75.6 99.4-50.1 161.1 13.7 33.3 39.6 59.5 60.8 88 2.1 2.9 21 23.5 11.5 25.1-6.1 1-3.9-9.5 1.3-6 4.4 3-2 9-4.7 4.5-39.4-65.7-105.5-116-88.7-201.4 4.8-24.2 34-85 60.6-90.6 11.9-2.5 16.5 11.6 9.3 19.3z"  fill="#005bbb" /><path d="M104.3-391.6c-41.4 46-71 90.6-53 155 9.4 33.5 82.6 171.9 64.3 196.7-5.8 7.9-16.6-4.3-7.9-9.1 8.6-4.7 13.2 10.9 3.4 11.6-8.6 0.6-13.5-63.7-16.7-74.1-21.9-71.3-79.5-137.2-55.8-216 5.9-19.7 35.1-73.4 54.6-80.5 10.6-3.9 16.7 8.4 11.1 16.4z"  fill="#005bbb" /><path d="M157 69.1c-3 17.2-19.5 8.9-13.7 0.3 8.6-12.8 20.5 12.5 5.1 10.9-21.4-2.2 9.5-34.5 8.6-11.2z"  fill="#005bbb" /><path d="M143.2-394.5c-33.3 68.4-51.6 105.2-33.1 183 9.3 39.2 42.1 130.9 25.9 168.2-4.2 9.8-18.6-0.6-10.6-7.7 9.3-8.3 16.8 12.1 4.2 11.8-9.5-0.3-6.9-74.3-8.8-86.3-11.3-67.8-44.8-134.6-26.1-204.3 6.2-23.2 18.1-56 34-74.4 7-8.1 17.7 0.8 14.5 9.7z"  fill="#005bbb" /><path d="M181.4-333.9c-2.4 67.3 23.6 128.9 24.6 195.1 0.8 50.6-23.7 95-39.9 141.5-4.3 12.3-15.5 70.6-20.9 75.6-8.1 7.8-17.8-8.2-7.1-11.8 10.6-3.6 12.7 14.9 1.5 13.7-22.2-2.3 47.8-178.1 51.4-198.6 10.1-57.2-15.2-112.8-20.7-169.1-5.8-59.6 9.6-61.7 11.1-46.4z"  fill="#c2e1ff" /><path d="M192.9-177.8c12.3 68.8-14 124.8-33.8 188.9-3.2 10.4-12.1 71.5-23.9 68.9-11-2.4-3.2-19.4 5.9-12.6 9 6.8-5.3 19-10.6 9-9-17 32-124 39.7-146.7 7.3-21.5 13.1-43.5 14.1-66.3 0.5-11.8-5.7-31.5-1.9-42.2 2-5.7 9.1-4 10.5 1z"  fill="#fff500" /><path d="M206.5-133.6c-0.2 54.3-30.2 102.9-45.9 153.6-2.9 9.5-9.4 63.1-21.6 60.4-9.4-2-5.4-16.7 3.7-13.6 9.1 3 3.6 17.2-5.2 13.1-24.1-11 41.9-154.4 48.3-175.3 4-13.2 3.9-27.7 8-40.5 2.4-7.6 12.3-4.7 12.7 2.3z"  fill="#fff" /><path d="M217.1-252.3c12.2 46 34.4 92.2 24.2 140.8-10.4 49.4-47.6 88.4-65.4 135.1-3.5 9.3-10.8 59.3-22.2 57-10.9-2.2-3.4-19.2 5.6-12.6 9 6.6-5 18.8-10.3 9.1-17-31 66-155.8 76.9-190.5 20.2-63.7-16.8-92-18.2-137.4-0.2-5.9 7.4-6.3 9.4-1.5z"  fill="#005bbb" /><path d="M229.6-342.3c17.3 63.1 75.9 177.9 60.1 233.9-17 60.2-78.8 94.1-100.2 152.9-2.5 7-4.6 36.3-16.2 33.8-9.4-2.1-5.3-16.7 3.8-13.7 7.8 2.6 5.1 14.7-3.1 13.8-11.8-1.3-3.9-22.3-2.5-28 18.4-77.4 98-118.9 108.5-183.7 9-55.3-30-111.3-46.5-162.1-3.9-12-7.5-24.2-10.9-36.4-1.7-5.9 2.1-22.5 7-10.5z"  fill="#005bbb" /><path d="M245.3-60.3c-21.8 31.4-47.2 59.2-61.2 95.3-2.9 7.4-8.5 51.9-21.3 44.4-7.1-4.1-2.1-15.3 5.7-12.7 9.1 2.9 3.7 17-5 13.1-11.3-5.1 1.4-37 3.7-44.8 10.7-35.8 34.9-83.8 64.1-108.4 9-7.6 19 3.9 14 13.1z"  fill="#fff500" /><path d="M257.7-93.4c-16.7 42.6-52.9 74.4-71.4 116.3-4 9-14.1 63.5-26 56.6-8.2-4.8 0-17.4 7.7-11.7 7.7 5.7-1.9 17.3-8.9 10.8-4.5-4.2-1.3-12.9-0.5-17.7 9.6-55.6 41.1-95.4 71.5-140.8 4.5-6.8 8.2-18.9 14.8-23.9 7.5-5.7 15.4 2.7 12.8 10.4z"  fill="#fff500" /><path d="M267.2-181.2c26.5 87.5-42.6 131.2-76.4 201.9-5.2 10.9-11.6 54.5-21 58.9-10.1 4.8-14.3-13.2-3.1-13.3 11.2-0.1 7.4 18-2.8 13.4-16-7.2 11.9-68.1 17.2-78.7 17.7-35.8 47.3-63.3 66.4-98.1 25.1-45.5 4.9-62 10.3-84 1.3-5.2 7.8-4.4 9.4-0.1z"  fill="#fff500" /><path d="M312.3-399.7c14.6 41.9 18.1 86.5 30.1 129 19.6 69.8 58.2 141.2 9.4 208.6-5.6 7.8-16.5 25.2-26.9 26.2-19.9 1.8-10-31.5 5.6-19.1 15.7 12.4-14.4 29.7-17.2 10-0.5-3.6 51-56.6 50.8-104.6-0.2-50-26.3-97-38-144.8-7.6-31.4-11.4-63.7-20.2-94.7-1.4-5 1.1-22.4 6.4-10.6z"  fill="#c2e1ff" /><path d="M320.6-399.7c11 39.2 13.5 80 22.9 119.4 17.2 72 60.6 145.5 13.1 215.7-5.8 8.6-18.1 28.7-29.5 29.7-19.9 1.8-10-31.5 5.7-19.1 15.7 12.3-14.3 29.7-17.3 10-0.5-3.6 49-56 51-99.4 2.3-51.8-25.2-100.8-36.4-150.4-7.1-31.6-10-64-17.1-95.6-1.3-5.7 2.8-22.8 7.6-10.3z"  fill="#fff500" /><path d="M305.8-154.4c3.5 23-0.8 46.7-11.5 67.3-22.1 42.7-65.6 69.1-89.2 111-5.1 9.1-17.9 62-28.9 55.4-9.6-5.7 3.1-19.3 9.5-10 5.4 7.9-7.5 15.8-12.1 7.3-3.5-6.5 1.6-19.3 3.2-25.7 14.2-57.9 57.5-89.7 92.6-134.1 30.4-38.5 15.6-50.9 25.3-73.1 2.6-5.8 10-3.5 11.1 1.9z"  fill="#fff500" /><path d="M324-399.3c10.3 41.1 12.2 83.7 22.4 124.8 21.7 87.8 66.8 162.7-13 238.1-10.4 9.8-35.8 37.1-50.7 37.2-24.5 0-1.7-38 9.9-16.4 9.8 18.4-26.2 22.3-20.7 2.2 3.5-12.7 28.6-24.2 38.5-32 28.2-22.4 51.1-50.4 56.1-87.1 6.6-48.3-17.1-94.2-29.5-139.5-10.5-38.5-13.3-78.1-21.1-117.1-1.2-6 3.6-23 8.1-10.2z"  fill="#005bbb" /><path d="M330.3-342.9c4.6 27.4 9.2 54.7 17 81.4 17.4 59.7 48.2 120.8 17.1 181.9-27.5 54-89.6 72.7-122.1 121.7-3.2 4.8-14.6 28.6-22.4 12.7-3.6-7.5 5.2-15.3 12.2-10.7 8.2 5.3 1.6 18.4-7.6 14.9-12.8-4.8 0.9-24.4 4.7-30.7 34.9-58.6 115.1-77.8 133-148.3 15.1-59.4-21-119-33.9-175.6-2.8-12.4-5.1-24.9-7.2-37.4-1.2-7 5.3-23.1 9.2-9.9z"  fill="#005bbb" /><path d="M341.6-207.5c52.7 135.6-30.1 146.3-100.6 225.8-10.1 11.3-18.4 24.2-23.9 38.3-2.3 5.9-3.1 20.5-9.7 23.4-10.5 4.6-14.1-14-2.8-13.8 11.4 0.2 7 18.6-3.3 13.6-9.4-4.6-0.6-24.8 1.5-31.2 21.2-65.3 88.3-86.1 124-139.6 11.8-17.7 17.9-38.3 17.6-59.5-0.3-19.5-9.3-36.4-11.2-55.1-0.5-5.3 6.3-6.2 8.4-1.9z"  fill="#005bbb" /><path d="M355.9-152.3c3.2 26.7-3 53.9-17.1 76.7-25.7 41.4-72.2 61.7-102.4 99-7.2 8.9-26.7 61.7-35.9 55.8-9.7-6.1 3.7-19.6 9.9-10 5.3 8.2-8.1 15.9-12.5 7.2-2.9-5.8 1.2-15.5 2.7-21.2 16.4-61.1 71.1-85.9 111.5-128.4 39.8-41.9 21.6-57.9 32.5-81.3 2.8-5.9 10.3-3.3 11.3 2.2z"  fill="#c2e1ff" /><path d="M367.7-268c10.3 62 41.2 120.9 15.4 183.7-21.5 52.4-70.4 75.1-108.7 112.6-12.7 12.4-32.2 54.2-38.7 52.3-11.3-3.3-1.9-20.5 7-12.7 8.9 7.7-6.9 19.4-11.7 8.6-18.9-42.3 115.9-125.2 137.6-170.1 28.1-58.3-0.7-114.2-11.3-172.4-1.2-6.8 8.3-8.3 10.4-2z"  fill="#fff500" /><path d=""  fill="#c2e1ff" /><path d="M395.1-349.5c-25.8 66.5 3.4 125.6 8.8 192.1 6.2 76.3-37 126.5-92.5 171.7-9.4 7.7-39.2 47.6-49.3 45.1-16.1-3.9 0.6-27.5 9.6-13.6 7.7 11.9-14.4 20.1-16.3 6.1-3.3-23.6 104.5-99.6 124.2-143.9 30.5-68.7-9-134.7-8.8-204.5 0.1-17.3 0.3-44.7 9.9-59.8 5.2-8.3 16.2-1.7 14.4 6.8z"  fill="#005bbb" /><path d="M377.5-396.2c-10.6 36.1-15.1 75.1-11.2 112.6 8.1 77 52.3 149.8 4.7 223.5-6.1 9.5-19.5 32.1-31.6 33.3-14.4 1.5-15.5-21.4-1-21.3 14.5 0.1 13.1 22.9-1.3 21.3-7.4-0.8-11.7-9.1-8.2-15.6 16.8-31.3 45.2-30.4 52-92.8 6.8-62.9-28.5-122.5-28.5-185.6 0-23.3-0.5-60 10.9-81 4.5-8.2 15.3-2.7 14.2 5.6z"  fill="#005bbb" /><path d="M382-396.3c-12.3 35.5-17.5 74.5-14 111.9 6.9 75.7 50.4 146.7 6.9 219.9-5.4 9.1-16.9 30.8-28.3 32.5-14.1 2-16.1-20.3-1.9-20.8 14.2-0.5 13.8 21.9-0.4 20.8-30.2-2.2 32-48.6 37.7-103.9 6.5-63.1-28.6-122.5-27.5-185.9 0.4-23.2 0.9-60.4 13.2-80.9 5-8.3 15.8-2.1 14.3 6.4z"  fill="#fff" /><path d="M430.9-230.4c7.1 133.8-3.7 156.5-71.5 270.2-4.5 7.5-14.1 43.5-24.9 40.5-11.2-3-2.3-20.1 6.7-12.6 10.4 8.7-10.4 20-12 6.4-4.2-36.4 60.3-111.8 75.3-149.7 33.5-84.4 7.3-112.8 14.7-155.4 1.2-7.1 10.5-5.7 11.7 0.6z"  fill="#c2e1ff" /><path d=""  fill="#fff500" /><path d="M457.8-358c-62.3 74.7-25.7 136.6-31.1 221-4.1 64.2-36.8 114.4-76.6 162.5-6.2 7.6-21.8 38.9-32.8 36.7-11.6-2.4-6.9-20.5 4.4-16.9 11.3 3.6 4.6 21.1-6.2 16.3-14.1-6.3 5.2-29.4 9.7-35.8 25.7-36.6 57.3-66.7 74.1-109.1 31.1-77.9-7.3-148 11.7-223.5 5.1-20.2 15.9-51.4 32.9-64.9 9.4-7.5 19.3 4.5 13.9 13.7z"  fill="#005bbb" /><path d="M403.8-394.3c-17.6 29.1-26.6 63.7-27.2 97.6-1.4 73.5 42.5 141.7 12.8 214.8-3.6 9-11.6 33.1-23.5 32.8-15.3-0.4-9.2-25 4.5-18.3 16.1 7.9-7.1 28.8-13.3 12-1.6-4.4 24.2-50.1 27.1-62.2 16.7-69.7-26.1-137.1-19-207.5 2.3-23.2 7.7-61.3 24-79.4 7.3-8.1 18.1 1.2 14.6 10.2z"  fill="#fff" /><path d="M411.3-393.5c-80.2 116 37.6 231.9-32.2 335.9-9.8 14.6-26.9-10.3-10-14.3 14.5-3.4 14.9 21.3 0.3 18.4-17.8-3.6 18.7-52.5 20.4-91.2 3.4-76-37.7-136-13.4-215.3 4.2-13.7 10-34.7 20.5-45 8.1-8 18.6 2.3 14.4 11.5z"  fill="#005bbb" /><path d="M494.9-64.1c-8.4 28.1-10.7 57.3-6.4 86.3 1.7 12 15.3 42.9 10.6 53.5-3.2 7.3-13.9-0.6-7.9-5.8 7-6.1 12.4 9.2 3.1 8.8-8.8-0.3-10.5-27.9-11.9-34-8.7-36.7-11.3-72.6-3-109.6 2.4-10.8 17.1-11.4 15.5 0.8z"  fill="#fff500" /><path d=""  fill="#c2e1ff" /><path d="M520.1-152.2c-17.7 51.4-43.1 99.4-40.9 155.4 0.8 19.5 4.8 38.6 9.5 57.5 0.9 3.5 7.2 19.1-2.6 17.7-6.7-0.9-4.6-11.4 1.9-9.7 5.6 1.4 4.4 9.9-1.3 9.8-8.1-0.2-8.8-20.6-10.2-25.9-15.5-63-8.1-117.9 15.6-177.8 4.2-10.7 7.3-24.8 13.7-34.3 5.5-8.2 16.3-1.3 14.3 7.3z"  fill="#fff" /><path d="M532.7-147.8c-19.1 49.1-45.2 94.1-42.8 148.6 0.9 19.6 5 38.6 9.6 57.6 0.8 3.5 8 21.4-2.4 19.7-5.8-0.9-5.4-9.7 0.5-10 6.8-0.4 6.9 10.4 0.1 10.1-8.3-0.4-9.1-22.7-10.4-28-14.8-61.5-9.6-114.3 15.9-172.3 4.6-10.5 8.3-24.6 15.1-33.8 6-8.2 16.8-0.6 14.4 8.1z"  fill="#fff500" /><path d="M544-256.7c-4.4 103.9-54.2 155.2-60.1 236.7-1.8 24.8 2 49.2 7.8 73.3 0.9 3.6 10.4 26.6-1 24.9-6.7-1-4.6-11.5 2-9.7 6.6 1.7 3.3 11.9-3 9.5-7.5-2.8-8.7-26.3-10.3-32.9-21.4-89.9 11-140 37.9-221.8 5.9-18 9.4-74.8 14.6-83.6 3.7-6.2 11.7-2.6 12.1 3.6z"  fill="#c2e1ff" /><path d="M553.7-396.9c-5.9 32.7-16.2 64.5-21.8 97.3-7 41.1-7.2 83-17.1 123.7-9.4 38.5-26.2 74.7-36.4 112.9-5.8 22-9.3 44.7-8.8 67.5 0.1 4.7 6.3 29.8-5.3 26.9-8.5-2.1-2.1-15.1 4.8-9.6 6.8 5.4-4.5 14.5-8.4 6.7-23.9-48 25.7-159.1 39.3-208.3 17.9-64.9 19-142.4 39.4-220 2.4-9.3 15-6.3 14.3 2.9z"  fill="#fff" /><path d="M568.6-252.2c4.8 108.7-54.9 142.8-63.1 229.5-2.5 26.7 2.4 52.7 8.1 78.6 0.9 3.9 8.7 24.7-2.6 22.6-7-1.3-4.3-12.2 2.5-10.2 6.8 2.1 3 12.6-3.6 9.8-7.5-3.2-8.2-28.8-9.8-35.9-21.4-99.5 13.5-127.9 44.7-213.9 7.5-20.6 9.1-76.7 12.2-83 3-6 10.7-3.2 11.6 2.5z"  fill="#005bbb" /><path d="M582.8-95.6c-21.9 39.1-38.8 74.4-36.2 120.5 0.5 9.7 10.2 46.9 2.4 53.1-7.2 5.8-14-8-5-10.2 9-2.2 9.4 13.1 0.3 11.4-9.7-1.9-7.6-35.1-8.4-42.6-5.3-51.6 4.2-93.3 29.7-138.3 6.3-11.1 22.6-6.9 17.2 6.1z"  fill="#fff500" /><path d="M593.6-219.1c4.8 81-52.1 123.5-63.5 196.1-4.1 26.4-0.1 52.7 4.2 78.8 0.7 4.2 7.3 25.7-4.3 22.7-7.3-1.9-3.8-13.2 3.3-10.6 7.1 2.6 2.3 13.6-4.4 10.2-7.5-3.8-6.6-29.3-7.9-36.6-14.7-91.8 13.1-114.2 46.8-192 9-20.7 9-60.6 14.2-71.2 3-6 10.7-3.2 11.6 2.6z"  fill="#fff500" /><path d="M606.3-25.9c-8.6 24.6-11.3 50.1-11.9 76-0.2 6.5 4.2 30.8-7.6 29.7-8.7-0.8-6.7-14.5 1.9-12.7 8.6 1.7 5.1 15.1-3.2 12.5-14.7-4.6-0.8-99.5 6.5-111.8 4.9-8.3 15.8-2.1 14.3 6.3z"  fill="#fff" /><path d=""  fill="#005bbb" /><path d="M606.6-79.5c-14.1 27.5-28.4 54.2-32.5 85.3-1.6 12.2 2 66.1-2.1 71.6-6.9 9.3-17.4-7.9-6.1-9.8 9.7-1.7 9 14.7-0.5 12.1-9.6-2.6-5-29.8-5.2-36.8-1.2-47 7.7-86 29.3-127.7 5.7-11.1 21.9-7.7 17.1 5.3z"  fill="#fff500" /><path d="M606.3-26.5c-8.6 24.6-11.5 50-12.2 75.9-0.2 6.6 4.4 31.5-7.5 30.4-8.7-0.8-6.7-14.5 1.8-12.8 8.6 1.7 5.1 15.1-3.2 12.5-15.1-4.8-0.6-100.2 6.7-112.4 5-8.3 15.8-2.1 14.4 6.4z"  fill="#fff" /><path d=""  fill="#fff" /><path d=""  fill="#005bbb" /><path d=""  fill="#fff500" /><path d=""  fill="#c2e1ff" /></svg>