<svg width="1200" height="675" viewBox="-500 -500 1200 675" xmlns="http://www.w3.org/2000/svg"><path d="M-500-500h1200v675h-1200z" fill="#000"/><path d="M-397.6-79.4c51.3 39.8 110.4 69.3 136.8 132.5 2.1 5 8.7 16.2 6.4 21.9-2.9 7-13.3-0.2-7.7-5.4 4.8-4.4 11.4 3.5 6.1 7.4-9.1 6.7-13.2-22.2-14.5-25.8-7.6-19.9-19-38.2-33.1-54-26.3-29.6-61.3-49.6-93-72.7-0.8-0.6-4.6-5.9-1-3.9z"  fill="#005bbb" /><path d="M-398-16.7c22.5 16 80 59.8 79.9 90.3 0 7.1-11.6 4.5-8.6-2 3-6.5 12.4 0.8 7 5.4-6 5-25.1-40.5-30-46.8-13.2-16.9-30-30.5-47.2-43.2-0.4-0.3-4.7-5.7-1.1-3.7z"  fill="#c2e1ff" /><path d=""  fill="#c2e1ff" /><path d=""  fill="#fff" /><path d="M-397.1-102.8c34.5 35.9 79.5 59.7 112.5 97.3 9.2 10.4 54.7 68 42.7 82-4.2 4.9-11.5-2.1-6.8-6.5 4.7-4.4 11.2 3.3 6.1 7.2-9 6.8-12.8-20.7-14.2-24.4-8.1-21.6-20.2-41.6-35-59.3-29.2-34.8-68.8-57.4-102-87.8-0.5-0.5-9.5-13.2-3.3-8.5z"  fill="#fff500" /><path d=""  fill="#c2e1ff" /><path d="M-397.7-60.2c42.7 28.7 90.2 54 115.7 100.9 3.4 6.3 17.7 29.7 12 36.2-5.9 6.7-13-7.1-4.1-7.9 7.6-0.7 6 11.9-1.1 9.3-6.4-2.3-7.3-19-9.4-24.6-6.2-16.5-15.4-31.9-26.8-45.3-22.2-26.1-52.1-43.9-80.5-62.5-2.4-1.5-8.4-7.4-5.8-6.1z"  fill="#fff" /><path d="M-397.7-14.5c23.9 17.3 76.8 53.5 76.8 87.7 0 7.1-11.5 4.6-8.5-1.9 3-6.4 12.3 0.7 7 5.3-5.6 4.7-25.9-41.3-31.1-47.6-13.1-16.2-29.3-28.9-45.6-41.6-1.3-1 0.1-2.7 1.4-1.9z"  fill="#fff500" /><path d="M-398.2-52.5c34.1 22.3 124.9 78.8 122 126.4-0.5 7.6-12.6 4.1-9-2.6 3.6-6.7 13.1 1.6 7.1 6.1-8.6 6.4-11-15.6-12.1-18.8-6.4-18.4-16.5-35.2-29.6-49.7-21.6-24-49.8-40.9-76.7-58.3-1-0.6-2.7-3.7-1.7-3.1z"  fill="#005bbb" /><path d="M-389.3-47.7c32.7 21.1 116.7 76.2 113.9 121.3-0.5 7.6-12.6 4.1-8.9-2.6 3.6-6.7 13.1 1.5 7 6.1-8.7 6.5-11.4-16.7-12.5-20-6.6-18.3-16.9-35.1-30-49.5-19.3-21.2-43.9-36.8-67.9-52.2-1-0.6-2.7-3.7-1.6-3.1z"  fill="#fff500" /><path d="M-377.1-45.7c31.8 20.6 110.3 75.7 107.4 119.3-0.5 7.6-12.6 4.1-9-2.6 3.6-6.7 13.2 1.6 7.1 6.2-8.7 6.5-11.2-16.2-12.3-19.5-5.8-16.7-14.5-32.2-25.7-46-18.2-22.3-42-38.6-65.8-54.2-1-0.7-2.7-3.7-1.7-3.2z"  fill="#c2e1ff" /><path d="M-358.1-219.2c-31.1 108.8 57.9 149.6 111.1 227.4 10.8 15.9 33.9 45 34.3 64.9 0.2 6.8-11 4.7-8.2-1.6 3.2-7.4 13 2.5 5.6 5.7-3.4 1.5-39.3-69.6-45.4-78.4-36.5-51.9-102.6-93.4-115.1-158.8-3.5-18.2-5.1-47.6 3.9-64.5 4.3-8.1 14.8-2.7 13.8 5.3z"  fill="#005bbb" /><path d="M-346.3-187.2c-16.2 85.2 75.1 145.5 115.6 210 6.1 9.8 29.4 40.2 26.2 51.9-1.7 6.3-11.4 1.3-7.1-3.7 4.2-5 10.8 3.6 4.9 6.4-4.3 2-36.3-62.3-41.7-70.5-33.4-50.1-92.5-93.1-108.3-152.8-13.5-50.8 10.5-60.6 10.4-41.3z"  fill="#005bbb" /><path d=""  fill="#005bbb" /><path d="M-324.3-398.5c-1.7 39.3 0 78.4-8.7 117.1-10.9 48.9-38.7 98.3-20.1 148.9 17.1 46.5 81.7 89.3 91.6 118.1 1.6 4.7-7 4.3-4.9-0.2 2.4-5.3 8.5 3.4 2.6 3.8-6 0.4-20.9-24.3-25.1-29.1-34.4-39.4-79.1-76.3-82.7-132.3-3.1-49.3 23.5-95.5 30.6-143.6 3.9-26.7-2.8-59.2 4.3-84.6 2.1-7.4 11.8-4.9 12.4 1.9z"  fill="#fff500" /><path d="M-308.9-222.3c-37.8 102.7 13.6 139.7 70 218.1 5.8 8.1 54.3 77.2 45.4 80.9-5.5 2.3-7.3-7.4-1.3-7.2 6 0.2 3.5 9.8-1.9 7.1-3.6-1.8-29.6-51.6-34.8-59.7-34.6-52.6-97.8-105.7-104.8-171.1-2.3-22 0.8-56.2 13.4-75.2 5.4-8.1 16-1.4 14 7.1z"  fill="#fff500" /><path d="M-301.5 30.4c4.3 6.1 27.9 41 18.2 46.8-5.5 3.3-10.3-5.7-4.4-8.4 5.8-2.7 9.6 6.7 3.5 8.8-8.4 2.8-10.4-18.3-12-22.5-6.8-17.6-11.7-32.9-5.3-24.7z"  fill="#005bbb" /><path d="M-287.8 60.6c1.3 3.1 9 18.8-0.9 17.7-5.5-0.6-5.5-8.8 0-9.4 6.4-0.7 6.9 9.4 0.5 9.4-14.4 0-5.6-30.2 0.4-17.7z"  fill="#fff" /><path d=""  fill="#005bbb" /><path d="M-264 36.4c3.4 6.2 20.9 36 12.4 41-5.6 3.3-10.3-5.8-4.4-8.5 5.9-2.7 9.6 6.9 3.4 9-10.2 3.3-22.5-58.7-11.4-41.5z"  fill="#fff" /><path d="M-249.5-344.4c10.7 95.5-65.5 168.7-32.3 247 20.6 48.7 58.4 91.6 89.7 133.7 2.7 3.6 27.6 32.5 20.3 34.3-10.5 2.6 4.8-12.6 2.1-2.1-1.5 6.1-6.8-1.4-7.8-2.8-41.3-58.2-123.5-141.1-126.2-214.4-1.9-49.6 29.5-92.6 39.5-139.9 3.1-15-0.7-46.8 3.9-57.6 2.5-5.8 9.8-3.5 10.8 1.8z"  fill="#fff" /><path d="M-240.6-10.7c8 10.9 55.2 76.4 53.7 84.9-1 5.7-9.9 2-6.5-2.7 3.3-4.7 9.8 2.3 4.8 5.2-6.7 3.9-19.5-27.8-22.2-32.4-10.2-16.8-27.4-34.3-34.7-52.2-1.3-3.2 2.8-5 4.9-2.8z"  fill="#fff500" /><path d="M-228.1-42.7c20.7 32.5 46.2 62 74 88.7 3.3 3.1 31.1 26.5 28.7 28.8-1.9 1.9-4.4-1.9-1.8-2.8 2.6-0.9 3.2 3.6 0.5 3.3-6.7-0.6-20.8-18.3-25.9-23-29.3-27-55.9-56.4-78.8-89.1-2.6-3.7-0.9-10.8 3.3-5.9z"  fill="#fff" /><path d="M-212.6-342.3c8.3 99.9-72.9 173.8-40.7 256.4 18.5 47.5 54.4 89.9 89.6 126 4.7 4.8 22 16.7 23 23.1 0.6 3.4-5.3 2.1-3.4-0.8 1.9-2.8 5.3 2.1 2 2.9-5.6 1.2-24.2-22.1-28.3-26.2-44.3-44.6-99.2-105.8-103.8-171.7-3.8-55.3 33.6-102.1 45.5-154.2 3.8-16.5-1.5-43.4 5.1-57.6 2.7-5.8 10.1-3.4 11 2.1z"  fill="#c2e1ff" /><path d="M-203.9 21.4c4.3 5.9 41.1 51.2 35.8 54.4-3.4 2.1-6.5-3.5-2.8-5.2 3.6-1.7 6 4.2 2.2 5.5-5.4 1.9-13.3-15.3-15.6-18.7-7.4-10.3-19.5-21.7-24.4-33.3-1.3-3.1 2.7-4.9 4.8-2.7z"  fill="#fff500" /><path d="M-186.7-271.1c-18 84.7-78.9 133.4-25.9 222.6 25.1 42.2 61.8 74 101.2 102.2 5.3 3.8 24.9 13.5 26.6 19.6 0.2 0.6-0.3 1.4-0.8 1.6-4.2 1.4-23.1-10.2-78.1-58.4-42.3-37.1-84.4-90.5-83.8-149.6 0.2-19.7 37.5-133.3 48.1-144.9 5.5-6.1 13.6-0.2 12.7 6.9z"  fill="#fff500" /><path d="M-177.8-77.6c19.5 57.3 75.1 87.5 118.3 124.6 5.6 4.8 25.8 18.5 26.5 26.2 0.3 3.6-5.7 2.8-4.5-0.7 1.3-3.4 6.4-0.2 3.8 2.5-2.6 2.6-126.6-108.8-136.6-122.9-23.9-33.9-9.4-32.9-7.5-29.7z"  fill="#fff" /><path d="M-161.8-210.9c-25.3 63.7-43.2 120.3 4.8 178.9 29.9 36.5 72.1 59 106.6 90.5 1.5 1.3 19.3 14.9 13.2 17.3-10 3.9 8.3-8.2 0.8-0.6-3.2 3.3-24.9-21.9-28.3-24.9-51.6-45.4-122.1-79.7-135.3-154.4-4.4-25.2 5.4-99.3 25.4-116.1 6.9-5.8 14.8 1.8 12.8 9.3z"  fill="#fff500" /><path d="M-155.7 52.6c2.6 2.7 22.9 19.4 19.4 22.5-2 1.8-4.7-1.5-2.5-3.1 2.2-1.6 4.5 2 2.2 3.3-8.6 4.9-26.8-28.9-19.1-22.7z"  fill="#005bbb" /><path d=""  fill="#fff" /><path d="M-128.5-372.5c15.5 49.6 53 92.6 51.7 146.8-1.4 56.8-42.7 102.6-24.5 161.3 10.6 34.3 34.5 62.3 56.5 89.9 1.8 2.3 21.2 22 13.8 24-13.9 3.7 12.2-9.8 1.1-0.6-4.9 4.1-20-21.6-22.7-24.9-35-44.3-72.8-90.4-65.2-150.6 5-39.8 30-75 28.6-115.9-1.5-46.5-32.3-84.7-47.6-127-2-5.4 5.8-7.8 8.3-3z"  fill="#fff" /><path d="M-119.3-8.3c21 19.2 80.7 56.2 90.3 80.6 1.4 3.6-4.9 4.6-4.7 0.8 0.3-4.5 7.4-1.2 4.1 1.9-3 2.8-31.5-30.2-35.7-34-16.6-15.1-43.7-28.8-56.5-47-1.2-1.7 1-3.2 2.5-2.3z"  fill="#fff" /><path d="M-100.7-184.4c-19 57.1-28.2 103.6 8 156.6 24 35.1 56.8 63.5 79.5 99.5 3.6 5.7-8.3 6-5.2 0.3 2.7-5 9 2.5 3.7 4.3-5.5 1.8-23.1-28.9-26.9-33.7-37.8-47.8-90.1-92.7-90.5-158.6-0.1-22.7 4.8-55.9 17.3-75.3 5.2-8.1 15.8-1.5 14.1 6.9z"  fill="#fff" /><path d="M-93.2-318.7c22.8 36.6 46.2 74.4 37.1 119.4-10.4 51-45 89.7-28.9 144.5 11.6 39.6 40.2 71.7 63.3 105 1.8 2.6 20.7 24.8 11.8 26.3-3.7 0.6-5.3-4.8-1.7-6.2 3.5-1.4 6.2 3.5 3 5.7-5.9 4.1-18.6-23.1-21.1-26.9-33.1-48.8-78.5-97.3-71.6-160.8 4.5-41.6 34.6-76.4 35.1-118.5 0.5-35.2-22.7-55.1-32.8-85.8-1.2-3.7 3.6-5.4 5.8-2.7z"  fill="#fff500" /><path d="M-81.3-310.7c24.9 35.4 47.3 73.1 35.7 117.9-12.6 48.3-46.9 84.7-34 137.8 9.8 40.1 37.9 72.9 60.3 106.5 2 3 19.9 23.9 10.8 25.4-3.8 0.6-5.3-4.9-1.7-6.3 3.6-1.4 6.2 3.7 3 5.7-6.2 4.2-17.2-21.5-19.8-25.4-32.2-49.2-76.5-98.9-66.6-162.1 6.2-39.6 35.8-71.7 38.9-111.8 1.6-21.1-5.3-41.1-15.5-59.3-2.8-5-18.3-22.3-16.2-27.7 0.9-2.4 3.7-2.3 5.1-0.7z"  fill="#c2e1ff" /><path d="M-66.2-246.7c16.2 71.3-51.1 123-21.4 198.6 14.4 36.8 42 66.7 64.5 98.6 1.8 2.6 20.9 24.5 12.2 26-4.3 0.8-5.1-6-0.8-6.3 5.1-0.4 3.8 8-0.9 6.2-7-2.6-74.8-105.9-81.4-119.5-8.2-17.1-13.6-35.5-14.5-54.5-1.9-41.5 21.3-74.7 29.9-113.8 2.1-9.6-2.1-30.1 2.8-37.5 2.9-4.3 8.5-2.2 9.6 2.2z"  fill="#fff" /><path d="M-53.3-230.1c7.3 66.6-54.4 110.1-28.8 182.7 13.1 37.2 40.1 67.8 62.1 99.9 1.8 2.7 19.2 22.6 10.3 24.1-4.4 0.7-5.2-6.2-0.7-6.4 4.4-0.3 4.5 6.7 0 6.5-6.6-0.3-19.4-27.9-23.3-33.6-29.7-43-67.9-86.1-67.6-141.5 0.2-37.9 20.9-68.2 31.5-103.2 2.5-8.2 0.8-26.1 6.1-32.3 3.8-4.4 9.7-1.2 10.4 3.8z"  fill="#fff500" /><path d="M-40.1-60.2c-11.5 51.5 45.4 120.1 42.9 134.1-1 5.7-9.9 2-6.5-2.8 3.9-5.5 10.3 4.3 3.7 5.7-4 0.8-55.6-90.7-53.8-135.5 0.4-10.3 13.7-12.6 13.7-1.5z"  fill="#fff500" /><path d="M-28-45.4c-8.3 41.8 37.4 105.6 34.5 119.5-1.2 5.9-10.3 1.8-6.7-3 4.2-5.7 10.6 4.8 3.7 6-7.2 1.3-15.1-24.9-17.5-29.9-13.9-28.7-27.8-58.1-27.4-90.7 0.1-10.2 13.1-12.8 13.4-1.9z"  fill="#005bbb" /><path d="M-14.8-93.1c-28.8 31.9-25.1 72-9 109 3 7 32.5 60.6 24.8 61.2-5.9 0.5-4.6-9.2 1-7.2 4.7 1.7 1.6 9-2.9 6.8-6.1-3-11-20.2-14.1-26.1-22-42.7-47.8-91.2-24.9-139.1 11.7-24.6 35.9-23.1 25.1-4.6z"  fill="#fff" /><path d="M40.5-400.2c63.4 85.2 94.2 207.6-1.8 280.3-10.1 7.7-41.6 40.7-53.5 39.4-21.3-2.4 2.3-33.3 10.3-13.4 6.7 16.9-25 16.8-18.2 0 17.2-42.7 92.2-51.8 107.8-120.7 12.8-56.1-11.9-124.1-41.8-171-0.2-0.3-10.8-23.3-2.8-14.6z"  fill="#fff500" /><path d="M51.6-400.4c56.3 90.2 84.6 210.3-12.2 282.3-9.7 7.2-37.7 36.4-49.5 34.4-18.5-3.1-1.5-31 9.8-16 11.3 15-20.2 23.6-18.1 4.9 2.1-18.4 92.2-63.7 105.9-117.3 14.6-57.2-9.8-128.1-37.5-177.8-1.3-2.3-5.1-19.1 1.6-10.5z"  fill="#005bbb" /><path d="M57.3-400.2c35.8 63.3 70.8 163.1 31.4 231.9-14.8 25.9-38.4 43.6-62.1 60.7-9.3 6.6-37.2 38.8-47.3 35.1-10.2-3.7-6.3-19.4 4.4-18 12.6 1.7 8.8 21.3-3.4 18.3-6.4-1.6-9-9.2-5.4-14.5 33.6-49.1 100.8-65.6 114.9-128.9 12.5-56.1-9.8-124.2-34.9-174-1.4-2.8-4.1-19.8 2.4-10.6z"  fill="#005bbb" /><path d="M30.7-259.3c40.9 96.8-77.8 123.1-81.3 204.4-1.6 38.8 52.9 120.2 51.5 129.2-1.1 6.5-10.9 0.6-5.7-3.4 5.3-4 8.4 7.1 1.8 6.3-8.3-0.9-25.1-42.2-29.5-50-27.2-48.6-44.6-101.1-9.5-150.9 19.6-27.8 50.8-47.8 63-80.6 8-21.6-1.9-36.6 1.2-54.5 0.8-4.8 6.7-4.4 8.5-0.5z"  fill="#fff" /><path d="M56.8-400c38.4 67.2 75 175.3 23.4 244.6-27 36.2-76.9 51.7-98.4 91.9-4 7.4-5.7 36.8-13 38.9-7.8 2.3-10.7-10.2-2.7-11.6 9.3-1.7 8.7 14.1-0.5 11.7-7.2-1.9-4.8-15-4.5-20 5.5-80.2 107.4-92.8 127.3-166.1 15.4-56.9-8.1-128.2-33.9-178.8-1.4-2.7-4.2-19.7 2.3-10.6z"  fill="#fff500" /><path d="M57.4-77.7c-30.9 19.8-56.4 44.9-54.6 84.2 0.8 18 19.1 65.5 16 69.8-4.7 6.5-12.1-5.3-4.3-6.8 6.7-1.3 6.3 10.1-0.2 8.4-6.8-1.7-9.7-21.4-11.6-26.8-15.7-46.5-19-93.5 19.6-129.8 33.1-31 50.8-12.7 35.1 1z"  fill="#fff500" /><path d="M69.7 52.3c-0.6 6.2 3.9 27.3-6.5 27.1-8-0.1-7.2-12.6 0.8-11.6 6.8 0.8 6.7 11-0.1 11.6-10.4 1-9-25.8-6.2-30.6 3.5-6.1 11.5-2.6 12 3.5z"  fill="#fff" /><path d="M79.9-292.3c19.8 57.8 14.3 116.2-33.1 158.3-27.9 24.8-66.8 43.3-76.4 82.6-8.9 36.5 10.2 72.8 25.9 104.5 0.8 1.6 16.2 26.8 4.9 24-16.2-4.2 17.4-8.4 2.7-0.4-7.3 4-15.5-22.7-17.5-26.9-26.1-52.6-48.5-110.6-2.5-159.7 28-29.8 68.9-46.7 86.5-85.8 20.4-45.7-3.7-73.7 0.7-96.2 0.9-4.9 7-4.4 8.8-0.4z"  fill="#fff500" /><path d="M95.2-187.8c-21.5 64.1-110.7 79.5-121.9 145.8-5.7 33.3 10.6 65.9 24.5 95.1 0.8 1.6 15.9 27.1 4.6 24-5-1.3-2.4-9.1 2.3-7.2 4.8 1.9 1.4 9.3-3.1 6.9-14.6-7.6-52.4-107.6-34.9-150.3 16.6-40.4 58.2-57.5 88-85.9 9.5-9.1 18.9-33.9 29.6-39 7.2-3.4 12.9 3.9 10.9 10.6z"  fill="#c2e1ff" /><path d="M107.6-180.1c-26 61.9-115.2 80-127.9 141.6-6.8 33 8.9 66.1 22.3 95.4 0.7 1.5 13.3 23.7 2.3 20.5-5.1-1.5-2.4-9.3 2.6-7.3 4.9 2 1.3 9.5-3.3 7-14.8-8-48.6-105.7-29.6-147.4 18.1-39.6 60.5-56.1 91.2-83.7 9.7-8.7 20.7-33.6 31.7-37.9 7.8-3 13.2 5 10.7 11.8z"  fill="#005bbb" /><path d="M119.3-398.7c2.4 74.5 27.2 170-15.7 236.9-27.9 43.6-82.4 57.9-110.5 99.6-4.2 6.2-8.7 31.2-18.9 28.7-9.3-2.3-4.9-16.7 4-13.4 9 3.2 3.1 17.1-5.5 12.9-8.2-4-1.9-18.9 0-24.7 21.2-65.1 105.2-77.3 131.1-141 24.9-61.1 3.8-134.8 3.6-198.6 0-7.8 10.7-7.8 11.9-0.4z"  fill="#005bbb" /><path d="M131.3-37.5c-22.4 16.6-42.7 37-52 64-3.5 10.1-1.9 46.9-8.9 51.9-7.6 5.5-13.9-8.8-4.6-10.6 10.8-2.1 7.3 16.7-2 10.8-21.3-13.5 16.8-116.5 56.1-134.5 12.1-5.6 19.6 10 11.4 18.4z"  fill="#c2e1ff" /><path d="M143.4-245.2c-4.8 52-26.6 95.9-68.4 127.9-28.4 21.7-68.1 37.9-83.1 72.7-13.6 31.5-1.2 65.9 11 95.6 0.9 2.3 15.8 30 4 26.3-17-5.3 19-8.1 3-0.2-7.5 3.7-12.5-18.5-14.2-22.4-21-49.4-36.2-103.2 6.5-146 30.6-30.8 73.3-45.9 99.9-81.5 19.7-26.3 21.3-65.9 29.1-77 4.3-6.1 12.2-1.8 12.2 4.6z"  fill="#fff500" /><path d="M156.2-20.5c-19.8 17.5-35.9 39-43.2 64.7-1.8 6.2-1.8 40.9-14.1 35.3-6.7-3.1-3.2-13.6 4-12 8.5 1.8 4.8 15-3.4 12.2-11.1-3.7-1.6-36 0.3-43.8 5.7-23.8 21.5-59.8 44-72.9 11-6.4 19.6 7.7 12.4 16.5z"  fill="#fff" /><path d=""  fill="#005bbb" /><path d="M180.8-370c-21.8 69.6-9.4 148.2-52.4 211-33.1 48.2-99.7 65.1-127.2 111.7-17.4 29.5-2 72.5-14.3 66.3-5-2.6-2-10.4 3.5-9 5.5 1.4 4.2 9.8-1.4 9.5-8.6-0.3-8.8-23.4-9.4-29.1-2.3-24.5 4.4-48.3 19.9-67.5 35.2-43.5 93.5-58.2 123.8-107.7 37.3-60.9 20.2-149.4 43.6-190.9 4.6-8.1 15.2-2.4 13.9 5.7z"  fill="#005bbb" /><path d="M192.8-330.6c-15.2 68.5-18.1 138.3-68.9 192.3-33 35.1-85.7 51-113.7 90.1-13.7 19-15.9 42.1-11.7 64.6 0.7 3.8 14.7 40.4 2.9 36-4.7-1.8-2.8-9 2.1-8.3 5 0.7 4.7 8.2-0.3 8.6-9 0.6-14.3-33.2-15.7-39.6-6.4-28.9-3.1-58.6 15.1-82.7 34.8-46.1 96.2-61.5 130-110.2 43.3-62.4 28.6-116.9 46.6-155.3 3.7-8 14.2-3.3 13.6 4.5z"  fill="#fff500" /><path d="M205.1-26.3c-18.6 16.3-35.9 34.9-46.1 57.7-4.3 9.6-5.9 43-13.6 47.6-8.6 5.2-14-10.6-4-11.8 11.8-1.3 6.3 18.5-3.2 11.4-20.3-15.3 33.6-110.1 54.7-121.8 11.2-6.2 19.6 8.2 12.2 16.9z"  fill="#fff500" /><path d="M193.5-395.6c-27.6 60.8-20.2 128.8-41.3 191.2-20.4 60.3-66.5 89.1-116 123.7-8.7 6.1-30.6 34.9-41.2 26.3-8.4-6.8 0.3-20.5 10-15.6 11.4 5.7 1.5 23.1-9.2 16.2-11.9-7.6 4.3-23.2 9.6-28.9 37.2-39.7 91.4-55.3 120.5-104.1 32.6-54.8 26.1-121.3 41.4-181.2 12.4-48.3 30.8-44.4 26.2-27.6z"  fill="#c2e1ff" /><path d="M228.9-87.9c-41.8 30.6-95.7 54.6-122.8 101-9.2 15.8-15.1 75.2-26.6 64.9-6.3-5.6 3.1-15.1 8.7-8.8 4.8 5.4-2.3 13.4-8.2 9.3-6.8-4.8-2.2-21.9-1.4-28.8 7-63.3 54.3-100.5 103.9-133.4 11.2-7.4 23.4-18.8 35.9-23.7 12.7-5 19.4 11.4 10.5 19.5z"  fill="#c2e1ff" /><path d="M214.2-394.5c-28.4 52.3-26.8 112.3-43 168.2-18.5 64.1-59.6 103.7-114.3 138.7-9.7 6.2-39.2 36-49.9 30.8-16.5-8.2 7.4-29.6 13.7-12.3 6.3 17.3-25.7 16.4-18.4-0.5 11.8-27.5 99.2-69 126.7-106.4 41.7-57 36.9-128.1 56.9-192.8 3-9.7 6.9-30.1 15.5-36.4 7.7-5.6 15.5 3 12.8 10.7z"  fill="#c2e1ff" /><path d="M254.4-28.5c-16.4 18.8-33.3 38-42.9 61.3-3.8 9.2-4.2 41-10.9 45.8-9 6.4-13.6-12.3-2.6-10.8 9.4 1.3 3.9 16.1-4.1 10.9-18.8-12.2 27.6-114.3 49.4-122.9 10.2-4 16.4 7.8 11.1 15.7z"  fill="#005bbb" /><path d=""  fill="#fff500" /><path d="M277.8-268.6c-3.7 146.7-148.1 162.6-219 242.4-33 37.1-15 98.4-19.9 103.4-6.6 6.7-13.2-8.2-3.8-8.6 9.4-0.4 3.9 15-3.1 8.8-7.8-6.8-7.3-33.9-7.9-43.6-6.2-105.8 130.9-142.4 194.4-205.8 50.7-50.6 34.7-79.6 47.5-100.4 3.7-6 11.5-2.3 11.8 3.8z"  fill="#c2e1ff" /><path d="M289.4 63.5c0 3.3 1.9 20.7-7.7 14.4-14.1-9.1 18.2-13.3 6.9-0.9-8 8.8-11.3-9.9-10.6-13.9 1.1-7 10.2-5.7 11.4 0.4z"  fill="#005bbb" /><path d=""  fill="#005bbb" /><path d="M315.3-181.1c-21.3 99.3-103 116.7-156 188.5-10.1 13.7-17.4 29.1-21.3 45.7-1.5 6.4-0.1 22.3-6.4 26-8.7 5.2-14-10.8-3.9-11.9 11.9-1.2 6.2 18.7-3.2 11.5-6.4-5-1.5-21.2-0.5-27.7 12-77.4 82.3-108.5 132.3-158.6 28-28 37.2-70.3 46.4-80.4 5.5-6 13.6-0.1 12.6 6.9z"  fill="#fff" /><path d="M327.2-6c-4.2 26.5-5 82.7-5.6 83.4-6.1 5.7-13.2-6.2-5.3-8.8 7.9-2.6 9.4 11.1 1.1 10.2-13.9-1.6-9.6-80.2-2.6-89.9 4.5-6.2 12.6-1.5 12.4 5.1z"  fill="#fff" /><path d=""  fill="#c2e1ff" /><path d="M350.9-176.1c1 28.9 9.7 241.6 8 250.6-0.4 2.3-2.5 4.2-4.9 4.4-7.3 0.6-7.6-10.9-0.3-10.8 7.3 0.2 6.4 11.7-0.8 10.7-10.9-1.5-8.8-43.8-9.2-51.9-3.4-67.2-6.1-135.5-4.8-202.8 0.2-7.9 10.9-7.8 12-0.2z"  fill="#fff500" /><path d="M362.9-4.4c0.8 10.4 10.9 82.6 0.8 83.2-7.4 0.5-7.6-11.3-0.1-10.9 7.4 0.3 6.3 12-1.1 10.9-10.4-1.6-12.8-73.5-11-83.8 1.2-6.9 10.2-5.5 11.4 0.6z"  fill="#005bbb" /><path d="M374.4-61c3.9 20.7 25.9 124.8 17 138-5.2 7.7-15.8-3.5-7.8-8.3 8-4.8 12.9 9.9 3.6 10.8-12 1.3-8.5-43-9.2-50.9-1.6-18.5-17.5-76.8-13.5-90.1 1.6-5.4 8.4-4.2 9.9 0.5z"  fill="#005bbb" /><path d="M383.5-298.6c36.7 43.2 49.9 90.9 73.5 141.1 31.7 67.3 80.7 122 47.8 199.6-4 9.6-11.5 34.7-21.2 39.3-10.6 5-17.6-12.1-6.5-15.9 11.1-3.9 16.2 13.9 4.7 16.5-24.2 5.6 11.1-53.8 13.7-60.4 11.1-28.1 12.2-56.8 2.2-85.4-12.5-35.6-36.2-66.2-52.2-100.3-18.3-39.1-27.9-81.2-54-116.4-3.1-4.2-11.2-10.8-12.3-16-0.6-2.7 2.6-3.7 4.3-2.1z"  fill="#c2e1ff" /><path d="M397.9-223.5c10.7 27.7 18.2 56.4 30.4 83.6 31.2 69.2 63.9 111.1 42.3 190.6-2 7.4-4.1 27.8-13 30.4-13.9 4-11.4-21.1 1.5-14.4 12.9 6.7-6.2 23.2-11 9.4-1-2.8 20.9-82.7 16.7-109.8-10-64.1-68.3-123.9-75.2-187.8-0.6-5.2 6.2-6 8.3-2z"  fill="#fff" /><path d="M407.6-303.4c42.7 41.4 50.8 93.9 76.1 145.1 32.5 65.7 89.4 126.3 48.5 202.4-5.2 9.7-15.9 34.6-27.1 38.1-16.5 5.3-14.5-24.8 1.2-17.3 15.6 7.5-6.6 28-12.7 11.8-4.8-12.4 24-41.7 29.7-53.1 11.9-23.4 14.8-48.7 8.2-74-11.5-43.5-42.6-79-61.6-119.2-17.5-37.1-24.5-79.2-49.5-112.6-1-1.3-19.8-26.9-12.8-21.2z"  fill="#c2e1ff" /><path d="M420.1-292.5c34.4 36.5 41.7 84.7 62.4 128.6 31.6 67.3 93.5 129.3 51.9 207.1-5.3 9.9-16.7 35.7-28 39.2-19.6 6.1-10.8-30.1 3.8-15.6 12.4 12.3-15.4 24.4-15.9 7-0.7-21.8 55-54.6 39.9-120.1-10.1-43.8-41.4-79.5-60.8-119.2-17.3-35.3-24-75.6-45.6-108.8-0.1-0.2-15.3-25.2-7.7-18.2z"  fill="#fff500" /><path d="M434.4-231.5c11.7 27.3 19.9 55.8 33.5 82.3 34.6 67.6 78 122.1 39.9 199-3.9 7.9-11.6 31.6-22.1 32.6-10.2 0.9-13.1-14.1-3.4-17.2 11.4-3.6 16.1 14.7 4.4 17-6 1.2-11.5-4.2-10.4-10.2 7.1-38.1 46.7-53.6 34-117.2-10.1-50.8-48.3-92.6-67.3-140.2-5.4-13.3-14.4-29.8-16.4-44-0.7-4.9 5.7-6 7.8-2.1z"  fill="#fff500" /><path d="M446.4-248.6c15.4 31.6 22.9 66.2 39.3 97.5 34.9 66.7 85.3 126.1 40.8 202-4.7 8.1-15 32.1-26 32-10.8-0.1-12.4-16.1-1.8-18.4 12.3-2.6 15.4 17 2.8 18.3-6.4 0.7-11.6-5.6-9.8-11.7 10.8-38.1 52.3-48.9 39.7-113.8-8.9-45.9-42.1-83.1-62-124.4-11-22.9-17.9-47.2-27.1-70.8-1.4-3.5-2-21 4.1-10.7z"  fill="#fff" /><path d=""  fill="#005bbb" /><path d="M471.5-245.4c11.7 31.2 18.7 63.4 34.4 93.1 33.6 63.8 91.7 128.4 46.3 202.1-5.5 9-16.9 30.8-27.8 33.2-21 4.7-8.6-32.3 5.4-16 11.9 13.9-18.2 24.1-17.3 5.9 1.1-21.2 50.3-47.1 44.3-102.3-6.2-57.2-52.6-102.2-73.9-153.9-7.3-17.7-18.2-41.2-19.9-60.3-0.5-5.3 6.4-6 8.5-1.8z"  fill="#fff500" /><path d="M482.5-132.7c34.6 60.3 66.3 113.8 30.9 182-4.2 8.2-13 32.6-23.6 33.2-16.6 1-7.5-26.5 5.2-15.8 10.9 9.1-7.8 23.5-13.8 10.7-0.7-1.4 36.2-75 37.2-96.9 2.7-58.3-45.1-96.9-42.1-112.1 0.6-3.2 4.4-3.3 6.2-1.1z"  fill="#fff500" /><path d="M497.3-30.5c3.8 21.8-12.3 114.3-30.1 112-11.1-1.4-7.9-18.8 2.9-16.2 10.9 2.6 5.8 19.5-4.7 15.7-14.6-5.3 8.6-43.1 11.7-52.1 4.2-12.1 6.8-57.5 10.3-62.1 3.2-4.4 8.9-1.9 9.9 2.7z"  fill="#fff500" /><path d="M507.9-70.5c16.6 36.4 17 74.2 1.1 110.9-3.8 8.9-15.1 44.5-28.3 41.5-13.5-3.1-3.7-23.9 7.3-15.4 11 8.5-6.7 23.2-13.1 10.9-6.3-12.1 23.7-53 28.2-66.5 14.4-43.9-5.2-59.7-3.1-80.3 0.5-4.5 6-4.5 7.9-1.1z"  fill="#fff500" /><path d="M532.9-399.7c28.3 92.2 10.7 162.4 32.3 225.9 4.2 12.2 37.8 73.3 36.9 78.1-0.9 5.6-9.7 2.1-6.4-2.6 3.7-5.5 10.2 4.1 3.7 5.5-6.6 1.4-13.7-20-16-24.2-45.6-83.7-35.6-115.6-43.2-204.4-2.2-25.8-14.9-51.7-16.2-76.7-0.3-5.6 6.9-6.1 8.9-1.6z"  fill="#005bbb" /><path d="M534.1-246.6c3.7 39.1 13 74.3 31.8 109 9.1 16.8 32.4 42.4 34.6 61.2 7.5 61.9 7.2 57.8 6.9 103.7-0.1 15.6-4.3 52.3-25.9 56.1-18.5 3.2-11.8-28.7 3.8-18.4 13.4 8.9-5.8 27.3-14.2 13.7-7.6-12.3 14.9-22.5 17.6-33 4.7-18.6 5-114.7 5.1-118.8 0.2-9.2-50.3-90.8-57.5-110.5-6.4-17.6-15.9-44.2-13.3-63.2 0.9-6.8 9.7-5.7 11.1 0.2z"  fill="#fff" /><path d="M546.1-324.8c8.3 45.1 0.4 91.7 12.3 136.4 6.2 23.3 41.3 80.3 42.5 92.1 7.7 76.7 7.5 73.4 7.1 130.9-0.1 12.4 2.7 44.8-16.3 48.6-15.5 3.1-15-23.2 0.4-19.5 18 4.4-0.7 30.7-10.7 15.1-5.6-8.7 7-18.8 7.2-27.8 1.4-48.1 4.5-95.9 6-143.9 0-1.1-44.9-89.5-49.5-108.9-3.9-16.5-13.7-111.4-9.3-124 1.9-5.5 8.9-3.9 10.3 1z"  fill="#fff500" /><path d="M560.7 47c-5.1 9-25.6 46.6-39.1 33.4-9.6-9.5 6.1-23.8 14.7-13.3 8.5 10.4-8.7 23-16 11.7-6.4-9.8 21.6-43.1 30.4-45.6 8.6-2.4 13.4 6.8 10 13.8z"  fill="#fff500" /><path d="M552.6-398.7c1.1 26.2 5.4 52.2 6.6 78.4 2 48.1-5.9 96.5 8.7 143.4 6.4 20.5 15.9 39.7 25.9 58.6 1.3 2.5 13.9 19 5.1 20-4.1 0.4-5.5-5.6-1.6-7 3.9-1.3 6.5 4.3 3 6.5-6.9 4.1-18.1-26.1-20.4-30.5-35.5-68.1-31.2-116.9-32.7-190.6-0.5-26.2-4.9-51.9-6.1-78-0.4-7.7 10.2-7.9 11.5-0.8z"  fill="#fff" /><path d=""  fill="#c2e1ff" /><path d="M597.4 41c-4 9.5-27.1 54.9-41.7 39.2-9.4-10.1 7.3-24.1 15.6-13 8.3 11.1-9.9 23.2-16.9 11.3-5.6-9.5 28.5-53.3 38.4-49.5 5.2 2 6.3 7.3 4.6 12z"  fill="#fff500" /><path d=""  fill="#005bbb" /><path d=""  fill="#005bbb" /><path d="M606.1-321.7c-13.7 42.1-24.8 88-17.8 132.4 1.1 7.3 17.9 55 10.3 55.1-4.7 0-5.6-7-0.9-8.1 5.4-1.2 6.9 7.4 1.3 8.1-10.7 1.2-20.5-50.5-21.9-58.7-6.2-34-3-104.7 15-135 4.8-8.1 15.4-2 14 6.2z"  fill="#fff" /><path d=""  fill="#fff" /><path d=""  fill="#005bbb" /><path d=""  fill="#fff" /><path d=""  fill="#c2e1ff" /><path d=""  fill="#fff500" /></svg>