<svg width="1200" height="675" viewBox="-500 -500 1200 675" xmlns="http://www.w3.org/2000/svg"><path d="M-500-500h1200v675h-1200z" fill="#000"/><path d=""  fill="#fff500" /><path d="M-396.5 25.1c1.9 4.3 19.8 35.6 17.6 36.9-2.2 1.2-3.9-2.3-1.7-3.3 2.3-1 3.6 2.7 1.3 3.4-3.2 1-6.3-7.5-7.4-9.2-3.5-5.8-6.9-11.8-10-17.8-0.9-1.8-4.2-17 0.2-10z"  fill="#fff" /><path d="M-396 30.2c1.6 5.8-7.6 1.9-3.4-0.9 4.1-2.8 4.6 6.2 0.2 3.8-3.4-1.8-2-7.5 2-5.4z"  fill="#c2e1ff" /><path d=""  fill="#c2e1ff" /><path d=""  fill="#005bbb" /><path d=""  fill="#005bbb" /><path d="M-396.5 54.5c1.3 3.1 11.6 19.4 7.5 21.2-2.7 1.2-4.3-3.1-1.5-4.1 2.8-0.9 3.9 3.6 1.1 4.2-9.3 1.8-11.6-29-7.1-21.3z"  fill="#c2e1ff" /><path d="M-396.3-56.2c16.2 40.7 38.7 73.5 74.2 99.6 11.8 8.7 24 16.7 35.7 25.5 2 1.5 7.2 4 5.2 5.5-1.6 1.2-19.8-14.5-22.4-16.3-26.9-19.2-53.6-37.7-72.6-65.4-8.7-12.7-22.4-32.1-24.7-47.7-0.4-2.9 3.3-3.5 4.6-1.2z"  fill="#fff" /><path d="M-396.6-12.9c1.3 3.1 8.1 12.9 6.4 16-1.6 3-5.9-0.8-3.1-2.8 2.7-2 5 3.2 1.7 3.9-9.2 1.8-9.5-24.6-5-17.1z"  fill="#005bbb" /><path d="M-396.2-93.7c13.5 39 30.7 76.4 62.5 103.8 9.4 8 19.5 15.1 29.8 22 0.8 0.5 9.7 5.4 8.3 6.4-5.6 3.9-11.7-7.3-17.3-11.1-26.7-18.1-49.6-39.2-65.5-67.7-9.2-16.3-16.7-34-22.6-51.7-1.1-3.2 3.4-4.6 4.8-1.7z"  fill="#fff" /><path d=""  fill="#005bbb" /><path d="M-395.9 72.8c3.7 5.1-6.7 4.7-3.6 0.3 3-4.2 6.7 4.4 1.6 3.7-3.9-0.5-4.7-6.6 0-6z"  fill="#c2e1ff" /><path d=""  fill="#fff500" /><path d=""  fill="#c2e1ff" /><path d="M-396.4-82c17.1 46.9 40.5 84.8 82 113.7 5.3 3.7 58.7 40 56.1 42.5-0.2 0.2-0.6 0.3-0.9 0.3-5.3-0.6-17.7-15.3-22.5-18.9-32-23.8-66.7-42.3-89.9-76-10.9-15.8-27.3-40.9-29.6-60.4-0.4-3 3.6-3.6 4.8-1.2z"  fill="#005bbb" /><path d="M-390.1-50.9c17.4 40.8 43.3 70.3 79.6 95.3 3.9 2.7 41 28 39.3 29.8-2.7 2.8 2.4-3.1 0-0.1-1 1.2-18.4-13.6-20.6-15.2-27.5-20-56.7-37.2-77.7-64.8-10-13.2-18.3-27.9-24.8-43.2-1.2-2.8 2.7-4.4 4.2-1.8z"  fill="#c2e1ff" /><path d="M-396.1-125.3c7.9 27.4 17 55.1 31.3 80 1.7 2.9 15.7 21.7 13.7 23-0.1 0.1-0.2 0.1-0.3 0.2-3.5 1.5-13.2-15.6-14.9-18.4-16.1-25.1-27.1-54.5-35-83.2-0.9-3.5 3.9-4.7 5.2-1.6z"  fill="#fff" /><path d="M-376.4 53c1.8 2.8 16.2 20.1 13.8 21.8-0.1 0.1-0.2 0.1-0.3 0.2-6.9 2.9-18.1-27.2-13.5-22z"  fill="#fff" /><path d="M-396.3-92.8c1.8 5.2 18.8 44.1 15.8 45.3-2.7 1.1-4.3-3.3-1.5-4.1 2.8-0.8 3.9 3.7 1 4.2-4 0.7-7-10.9-8.1-13.3-3.3-7.4-13.3-23.5-12.1-31.6 0.4-2.8 3.8-2.7 4.9-0.5z"  fill="#005bbb" /><path d="M-361.8-52c24.7 44.2 67.1 65 105.4 95.1 3.9 3.1 33.4 26.6 29.9 31.2-3.9 5.1 3.4-5.7 0.1-0.2-0.3 0.6-27.1-26.5-31.1-29.7-27.8-23-60.8-39.1-85.8-65.5-21.9-23.2-22.8-36.4-18.5-30.9z"  fill="#fff" /><path d="M-354.3-315c12.5 27.4 27.3 53.5 37.8 81.9 21.9 59.4 27.6 122.8 68.8 173.7 22.7 28 52.4 50 72.3 80.2 4 6.1 29 50.5 20.2 55.3-4.1 2.2-6.2-5.2-1.5-5.5 5.4-0.3 2.5 8.6-1.7 5.2-3-2.5-17.8-51.9-31.6-69.4-28.9-36.7-66.6-63.8-88.5-106.2-30.3-58.5-38-129.7-72.9-199.1-1-2-7.7-23.7-2.9-16.1z"  fill="#fff500" /><path d="M-346.7-113.9c22.5 66.6 74.4 95.5 122 141.9 4.8 4.7 39.1 41.4 32.4 47.3-2.7 2.3-5.5-2.8-2.1-3.8 4-1.2 3.3 6-0.4 4.1-2.4-1.2-23.4-37.1-29.3-43.5-32.4-34.8-75.7-57.1-103.2-96.8-10.1-14.6-18.3-30.7-24.2-47.4-1.1-3.2 3.4-4.6 4.8-1.8z"  fill="#fff500" /><path d=""  fill="#fff500" /><path d="M-334.1 65.3c1.7 1.5 10.7 6.8 8.8 8.8-1.2 1.2 1.3-0.8-0.2 0.1-4.2 2.8-11.8-11-8.6-8.9z"  fill="#fff" /><path d="M-325.8-335c19.4 34.5 40.6 66.5 52.7 104.6 16.9 52.7 20.7 108.1 55.4 153.6 21.8 28.7 52.1 50.6 70.6 81.8 5.4 9.1 28.1 57.3 17.5 66-3.5 2.9-7.7-2.9-3.9-5.4 3.8-2.5 7.3 3.7 3.3 5.8-7.2 3.7-7.1-23.2-7.8-26.9-3.8-21-12.3-40.1-25.3-57.1-27.9-36.3-64.3-62.9-83.6-105.7-28.7-63.8-28.9-126-67.2-189.7-5.1-8.4-17.6-34.8-11.7-27z"  fill="#c2e1ff" /><path d="M-315.4-399c12 46.3 47.6 83.4 63.5 128.7 20 56.9 16.9 121.7 53.8 171.9 6.6 9 84.6 88.6 79.2 91.2-2.2 1-4.1-2.1-2.2-3.6 2.3-1.7 4.8 2 2.4 3.5-3.3 2-13.8-18.4-16.1-21.4-26.2-33-62.4-55.3-82.6-93.5-23.9-45.3-23.6-98.5-39.4-146.5-13.6-41.4-40.8-74.4-58.1-113.8-8.4-19-2.3-20.7-0.5-16.5z"  fill="#fff500" /><path d="M-310.6-216.8c21.9 68 33.2 128.6 85.1 181.6 27.4 27.9 55.2 53.9 67.6 92.3 1.2 3.7 7.5 16.3 2.8 18.8-4.8 2.6-5.9-6.8-0.6-5.3 4.5 1.2 0.9 8-2.6 5-3.6-3-18.3-51-26-61.9-30.9-44-75.9-73.2-98.8-123.5-7.9-17.3-35.6-90.6-32.7-106.7 0.5-2.9 4.1-2.6 5.2-0.3z"  fill="#fff" /><path d="M-304-273c33.6 66 32.6 145.3 79.6 204.7 19.6 24.7 44.7 44.7 62.9 70.7 5.4 7.7 36.8 68.4 23.4 74-5.5 2.3-5.7-8.1-0.1-5.9 4.8 1.8 0.2 8.9-3.4 5.2-0.4-0.4-15.2-60.6-26.6-76.9-26.2-37.2-63.8-63.6-84.8-104.8-24.6-48.4-27.8-104.3-49.8-153.9-0.4-0.9-6.1-20.5-1.2-13.1z"  fill="#fff" /><path d="M-296.5-239.9c24.2 62.3 27.7 128.4 72.9 181.3 18.3 21.4 40.1 39.8 56.6 62.7 5.3 7.4 37.6 66.4 24.8 72.1-4.5 2-6.2-6-1.3-6 5.8 0.1 2 9.4-2.2 5.4-3.3-3.2-14.4-54.8-24.2-69.5-29.7-45-74.6-74.3-95.9-125.7-11.7-28.2-17.3-58.4-25.5-87.7-2.8-10-8.8-21.3-10-31.4-0.3-3 3.6-3.5 4.8-1.2z"  fill="#005bbb" /><path d="M-290-318c45.8 74.9 38.7 163.3 82.7 225.2 35.5 49.9 89.4 77.3 93.3 144.7 0.3 4.9 3.3 21.5-1.1 24.6-4.1 2.7-8-3.9-3.7-6.2 4.3-2.3 7.6 4.7 3 6.5-8.3 3.3-5.1-24.1-5.2-27.9-1.1-23.6-7-45.7-20.6-65.3-26.7-38.4-67.3-63.1-87.8-106.5-25.6-54.2-24.6-116.4-51.5-170.6-13-26.1-14.2-31.2-9.1-24.5z"  fill="#fff500" /><path d="M-267.4-399.7c17.2 39.5 38.1 75.5 47.5 118.1 10.7 48.6 7.4 102.2 32.1 146.8 13.8 25 35.4 42.8 57.5 60.1 1.8 1.4 18.2 13.6 16 14.7-4.3 2.2 3.3-4 0.3-0.3-1 1.3-20.2-15.5-22.6-17.3-96.8-75.4-65.5-137.2-98.4-238.4-6.2-19.2-14.6-37.5-23.6-55.5-2.7-5.4-14.8-22.1-13.1-27.9 0.7-2.2 3.3-1.9 4.3-0.3z"  fill="#fff500" /><path d="M-276.8 58.4c3.7 2.7 16.9 10.2 17.7 14.7 0.1 0.3 0 0.6-0.3 0.9-2.1 2.5-19.5-16.9-17.4-15.6z"  fill="#fff" /><path d="M-251.6-399.5c17 39.7 34.2 77.4 41.5 120.4 8 47.8 4.6 100.2 30.5 143.1 19.2 31.9 51.3 48.8 78.2 72.9 2 1.8 11.1 8.4 10.3 11.3-0.1 0.4-0.4 0.7-0.7 0.9-1.7 0.8-25.5-23.1-29-25.8-114.1-87.9-70.9-128.9-105.5-247.2-7.5-25.7-19.3-49.2-29.5-73.7-1.2-2.8 2.8-4.4 4.2-1.9z"  fill="#fff" /><path d="M-261.4-82c34.1 54.7 96 87.3 109 154.7 1 5.4-8.1 3.7-5.3-0.9 2.4-4 8 1.3 4.1 4-5.7 3.9-7-12.5-7.5-14.6-4.5-17.3-11.7-33.5-21.9-48.2-22.6-32.4-55.6-55.9-78.3-88.5-0.9-1.3-4.1-11.3-0.1-6.5z"  fill="#005bbb" /><path d="M-240.5-399.3c15.8 38.9 30.4 76.7 36.4 118.5 7 48.9 2.9 102.8 31.5 145.8 23.1 34.7 63.3 49.9 89.4 81.2 2 2.4 14.9 16.6 9.6 18.8-3.2 1.4-4.3-4.4-0.8-4.2 3.5 0.1 2.1 5.8-1.1 4.2-5.8-2.9-13.3-21.4-18.7-27.1-29.3-30.6-69.1-46.8-90.4-85.4-28.5-51.7-19.7-115.8-32.9-172-6.4-27.1-17.3-52.2-27.4-78-1.1-3 3-4.4 4.4-1.8z"  fill="#fff" /><path d="M-246.4-119.9c27.2 66.9 101.2 101.5 113.5 175.5 0.7 4.4 4.2 15.5 1.8 19.5-2.4 3.8-8.2-0.2-5.4-3.8 3.2-4.1 8.8 2.6 4.1 5-6.8 3.5-5.9-13.9-6.3-16.4-2.5-19.9-7.7-39.1-18-56.5-20.3-33.9-53.9-57.4-76.2-89.8-6.5-9.5-21-46.4-13.5-33.5z"  fill="#005bbb" /><path d="M-222.4-399c10.4 29.7 20 59.2 24.9 90.3 8.3 52.7-0.2 112.9 27.3 160.8 14.9 25.9 38.9 42.5 62.8 59.5 2 1.4 19.7 13.9 17.4 15.1-3.5 1.8 3.4-2.2 0.1-0.1-1.5 1-23.5-17.7-26.5-19.8-109.5-77.2-66.6-153.4-97.7-263.7-2.1-7.5-15.7-57-8.3-42.1z"  fill="#c2e1ff" /><path d="M-216.3-399c9.4 28.8 18 57.5 22.3 87.5 7.7 52.7-1.4 113.1 25.9 161 14.8 26 38.8 42.6 62.6 59.4 2.1 1.5 20.3 14.2 18 15.5-3.5 1.8 3.4-2.2 0.1-0.1-1.4 0.9-24.1-18-27.1-20.1-109.2-76.4-66.4-154-95.4-264.1-1.1-4.1-14.2-56-6.4-39.1z"  fill="#005bbb" /><path d="M-226.1 29.2c10.3 9.9 30.8 29.1 32.8 44.1 0.5 4.1-6.4 2.3-4-1 2-2.8 5.9 1.5 2.9 3.2-3.8 2.1-12.9-19.2-15.1-22.3-2.1-3.1-23.4-29.4-16.6-24z"  fill="#005bbb" /><path d="M-217.1-166.7c23.8 96.4 132.4 113.1 123.8 217.2-0.4 5.2 0.6 23.7-4.6 26.4-6.5 3.4-7.8-9.2-0.8-7.3 7 2-0.7 12.1-4.4 5.8-2.6-4.4 5.1-65.5-4.2-87.1-18.7-44-67.8-65.6-93.6-104.8-19.6-29.8-21.5-63.2-16.2-50.2z"  fill="#fff500" /><path d="M-210-364.8c21.1 67.7 8.2 170.4 45.1 224.5 37.8 55.3 120.8 69.9 108.9 152-0.9 6.2-2.7 28.9-9.4 30.9-8 2.5-6.9-12 0.6-8.3 7.5 3.7-3.3 13.5-6.2 5.6-4.3-11.5 18.3-52 0.9-86.9-25.1-50.6-89.7-63.7-112.9-118-22.6-52.7-13.1-114.7-25-170.1-7.5-35.1-5.3-37.1-2-29.7z"  fill="#005bbb" /><path d="M-204-105c35.9 55.1 98.6 80.4 99.1 154.4 0 5.2 2.4 24.3-2.6 27.3-5.9 3.6-8-8.3-1.1-6.9 6.8 1.5 0.1 11.5-3.9 5.8-1.8-2.6-0.9-63-9.2-80.9-18-39.1-58.7-61.8-83.7-95.8-1.5-2-1.3-6.9 1.4-3.9z"  fill="#c2e1ff" /><path d="M-196.4 64c1.3 2.2 6.8 8.6 4 11.1-2.7 2.3-5.5-2.8-2.1-3.8 2.9-0.9 4 3.8 1 4.3-7.9 1.4-7-17.4-2.9-11.6z"  fill="#fff" /><path d="M-187.7-221.3c2.3 28.4 8.2 56.8 24.7 80.5 47.1 67.7 134.3 67.4 103 175.6-2.2 7.4-8.2 40.3-15.4 42.6-7.8 2.6-7-11.7 0.4-8.2 7.5 3.5-2.9 13.3-5.9 5.7-3.6-9.1 26.7-77.5 17.4-110.2-15-52.8-79.6-68.1-108-112-14-21.7-20.8-47.8-22.8-73.4-0.3-4.4 5.7-4.7 6.6-0.6z"  fill="#fff" /><path d=""  fill="#005bbb" /><path d="M-169.6-398.7c7.5 63.8-5.8 191.8 26.2 240 18.3 27.4 90.8 63.6 96.1 89.5 0.7 3.7-5.7 2.5-3.7-0.7 2-3.2 5.8 2.1 2.3 3-0.9 0.2-30.6-34-35.5-37.7-17.9-13.7-37.5-25.2-53.1-41.8-53.4-56.7-29.8-166.4-37.4-239.3-0.3-2.4 2.3-24.6 5.1-13z"  fill="#c2e1ff" /><path d="M-165.9-307c0.7 44-6.6 93 12.3 134.3 39.1 85.5 155.9 72.1 105.3 203.4-3.1 8-12.8 44.9-20.7 47.1-8.2 2.3-6.6-12.4 0.9-8.4 8.9 4.7-6.7 14.1-6.7 4 0-33.9 40-68 29.7-119.4-12.6-62.8-92.8-76.6-116.8-134.2-6.6-15.8-19.2-118.9-10.2-129.1 2.3-2.6 5.8-0.7 6.2 2.3z"  fill="#c2e1ff" /><path d="M-159.5-200.7c21.4 105.2 166.6 93.8 112.3 231.1-3.2 8-13.4 45.4-21.2 47.6-9.7 2.7-4.8-14.9 2.1-7.6 5.9 6.2-7.9 11.7-7.9 3.2 0.1-35.4 42.5-69.6 30.6-123-11.5-51.8-69.3-67.2-99.5-105-22.6-28.2-21-58.5-16.4-46.3z"  fill="#005bbb" /><path d="M-152.6-193.8c27.2 98.5 163.1 86.8 107.9 222.4-3.4 8.3-14.5 47-22.6 49.2-8.3 2.2-6.5-12.6 1-8.6 7.5 4.1-4 13.6-6.6 5.5-4.2-12.9 42.4-87.1 31.9-129.2-11.9-47.8-63.1-64-93.2-97.5-10.5-11.7-18.5-25.3-23.4-40.2-1.1-3.3 3.7-4.7 5-1.6z"  fill="#c2e1ff" /><path d="M-144.2-370.9c-1.2 57.3-16.9 127.3 3.6 182.2 29.8 79.9 144 82.6 108 193.5-2.2 6.9-9.1 34.3-17.1 35.6-5.7 0.9-8-7.3-2.6-9.4 6.2-2.5 9.6 7.5 3.2 9.3-13.8 3.8 4.1-28.9 5.4-32.3 9.2-23.2 14.6-48.8 6.7-73.2-19-59.2-94.1-73.1-112.8-134.7-15.8-52.2-4.9-117.5-1.8-171.2 0.3-4.8 6.9-4.4 7.4 0.2z"  fill="#005bbb" /><path d="M-136.9-287.7c-2.5 34.4-5.2 71.5 10.4 103.4 41.4 84.6 151 75.4 89 209.5-4 8.6-18.1 50.5-26.5 52.5-8.5 2-6.3-13 1.3-8.6 7.6 4.4-4.4 13.8-6.9 5.4-3-10.2 46.8-93.1 41.3-132.1-8.8-62.5-82.5-79.9-106.5-134-13.2-29.7-12.8-64.9-9.7-96.7 0.5-5 7.3-4.3 7.6 0.6z"  fill="#c2e1ff" /><path d="M-131.4 7.1c6.1 12.5 21.5 55.4 12.2 68.3-3.3 4.5-9.4-2.4-4.5-5.1 4.9-2.7 7.6 6.1 2 6.5-7 0.6-4.9-28.8-5.5-33.8-1.4-12-10.2-46.3-4.2-35.9z"  fill="#fff" /><path d="M-123.4-398.1c-8.4 59.7-28.3 162.5 1.2 216.7 32.8 60.3 117.4 78.1 101.1 161.8-1.2 6.2-4.2 28.3-11.5 30-7.4 1.6-7.4-11 0-9.4 8.7 1.9 0 14.7-5 7.4-3.6-5.3 5.7-20.9 7.3-26.6 4.6-16.8 5.7-34.5 1-51.5-17.5-62.5-95.3-78.6-110.4-144.7-7.5-33.1-3.6-154.8 8.6-185.7 1.8-4.6 7.8-2.3 7.7 2z"  fill="#fff500" /><path d="M-115.5-265c-4.6 141.9 168.5 130.4 82.5 292-4.5 8.4-19.7 49.1-28.1 50.9-8.7 1.8-6.1-13.4 1.5-8.8 7.6 4.6-4.8 13.9-7.1 5.4-2.6-9.6 53.9-99.4 50.8-139.1-4.9-61.4-69.9-83.9-94.4-134.6-8.4-17.3-17.4-47.3-12.4-66.7 1.1-4.3 6.8-3 7.2 0.9z"  fill="#fff500" /><path d="M-109.6-209.9c12.7 40.4 48.7 61 74.8 91.7 37.1 43.6 28.4 94.4 3.7 141.7-4.6 8.8-21.3 52.6-30 54.4-8.7 1.8-6.1-13.4 1.5-8.7 7.6 4.6-4.8 13.9-7.1 5.3-2.7-9.9 54.2-99.4 50.6-139.7-4.7-54-55.8-77-84.2-116.8-5.8-8.1-10.5-16.8-14.1-26.1-1.2-3.1 3.3-4.6 4.8-1.8z"  fill="#005bbb" /><path d=""  fill="#005bbb" /><path d="M-95.6-21.9c12.3 22.4 12.7 47.6 9.2 72.3-0.7 5.1-0.7 26.5-7.2 27.3-6.4 0.8-5.4-9.8 0.8-7.9 6.1 2 0.7 11.2-4 6.8-5.7-5.2 3.7-35.6 4.5-43.2 1.8-18.4-13.2-71-3.3-55.3z"  fill="#fff" /><path d=""  fill="#fff500" /><path d="M-78.8-381.3c-19.1 45.9-30.1 106.3-18.7 155.4 21.1 91 136.4 103.5 82.6 223.6-3.4 7.5-15 39.2-23.9 39.8-9.7 0.7-4.6-15.4 2.9-9.2 7.5 6.1-7.2 14.3-8.4 4.7-0.8-5.9 37.3-68.5 35.5-102.3-3.8-71.7-87-101.3-97.8-172-6.5-42.8 1.2-90.8 14.7-131.6 7.4-22.4 14.7-14.6 13.1-8.4z"  fill="#005bbb" /><path d=""  fill="#fff" /><path d="M-67.5-188c22.4 32.4 55.7 56.3 67 95.7 17 58.7-23.2 106.9-48.7 155.6-1.9 3.6-7 20.7-13.8 13.8-15.6-15.6 25.3 2 3.3 1.4-11.9-0.3 4.3-25.2 6.3-28.9 20.1-37.2 49.2-73.4 49.8-117.8 0.6-47.3-33.5-77-61-110.7-0.8-1-7.4-13.8-2.9-9.1z"  fill="#005bbb" /><path d="M-60.5-178.9c24.6 31 55.8 56.9 62.8 98.1 7.2 42.6-14.3 81-35.4 116.2-3.9 6.5-21.6 45.9-28.6 42.5-5-2.5-2.1-10.4 3.3-9 5.4 1.4 4.3 9.7-1.3 9.5-12.2-0.3 5.1-26.6 7.4-30.7 19.8-36.2 47.7-71.6 48.8-114.6 1.1-43.1-26.9-73.1-53.5-103.3-0.6-0.7-8-12.9-3.5-8.7z"  fill="#fff500" /><path d="M-50.8-289.9c-4.7 68.8 45 107.4 65.6 167.6 23.3 68.4-20.2 121.4-54.2 176.1-3.1 5-11.3 28.1-18.9 24-5-2.7-1.9-10.6 3.6-9.1 5.5 1.5 4.1 10-1.6 9.7-11.4-0.6 2.4-20.6 4.4-24.1 24.5-43.9 63.4-83.1 66.2-136 3.2-60.4-45.4-99-64.1-152.1-5.4-15.4-13-40.9-8.3-57.2 1.3-4.4 7-2.9 7.3 1.1z"  fill="#fff500" /><path d="M-43.6-16.8c0.1 11.4-18.8 99.1-30.9 94.5-5.7-2.1-1.9-11 3.6-8.2 5.5 2.7 0.7 11.1-4.5 7.8-7.6-4.9 11.8-43.4 14.5-50.9 4.5-12.8 4.1-34.3 10.4-45.2 2-3.5 6.6-1.5 6.9 2z"  fill="#fff500" /><path d="M-36-316.1c-20.2 83.3 36.1 121.3 57 192.5 20.3 68.9-23.1 121.1-58 175.3-3.3 5.1-13 30.2-20.5 26.1-5-2.7-1.8-10.7 3.7-9.1 5.5 1.6 4.1 10-1.7 9.7-11.4-0.7 2.5-20.6 4.6-24.1 25-43.8 64.2-82.2 69.6-134.7 6.8-66.3-48.1-110.3-62.2-170.8-4.3-18.5-9-49.6-0.5-67.6 2.2-4.7 8.4-1.9 8 2.7z"  fill="#fff" /><path d="M-28.4 29.8c-4.9 8.1-21.3 47.1-29.5 48.6-7.6 1.4-7.1-11.4 0.3-9.5 7.5 1.9 1.7 13.3-4.2 8.5-6.6-5.3 20.5-55.2 28.6-55.7 4.6-0.2 6.5 4.4 4.8 8.1z"  fill="#fff" /><path d="M-21.2-357.4c-67.2 106.1 26.7 158.3 44.3 247.5 12.3 62.4-27.1 110.4-58.9 159.4-2.4 3.7-9.7 21.1-16.2 12.8-3.2-4 1.1-9.9 5.9-8 5.6 2.1 3.4 10.9-2.6 10-12.5-1.8 7.1-25.7 9.8-29.8 22.9-34.6 50.8-68.7 56.2-111.2 9.3-74.1-59.7-123.2-66.4-194-2.7-28.7 2.2-58.5 14.8-84.4 3.6-7.3 18.1-14.1 13.1-2.3z"  fill="#c2e1ff" /><path d="M-16.9-117c36.6 57.5 4.6 113.5-25 165.4-3.1 5.5-12 30.7-18.9 29.8-8.9-1.2-1.3-14.8 4.4-7.8 4.8 5.9-6.5 11.6-8.5 4.2-2.4-9.5 45.9-86.9 51.9-105.3 5.8-17.6 7.8-36.4 4.1-54.6-2.2-10.6-14.5-40.3-8-31.7z"  fill="#c2e1ff" /><path d=""  fill="#005bbb" /><path d="M-1.5-94.7c16.9 52.4-13.8 99.2-39.2 142.7-4.9 8.5-8.8 21.6-15.2 28.7-6 6.7-12.9-7.3-4-8.1 7.6-0.6 5.9 12-1.3 9.4-10-3.7 41.8-87.6 46.6-99 5.9-14 10.1-28.9 10.7-44.2 0.3-8.8-4.8-21.5-3-29.4 0.7-3 4.3-2.5 5.4-0.1z"  fill="#c2e1ff" /><path d="M7.5-18.6c-5.8 11.3-58.8 100.1-65.4 96.6-5.9-3.2-0.4-12.2 5.1-8.4 5.5 3.8-0.9 12.2-6 7.8-7.4-6.4 48.7-95.7 58.9-102.6 4.7-3.2 9.1 2.1 7.4 6.6z"  fill="#fff500" /><path d="M-14.3-394.4c-35.3 34.6-50.8 85.4-45.9 134.2 8.6 84.5 102.1 132.3 70.1 225.1-2 5.7-6.6 24.6-13.6 25.5-8 1-6.7-12.4 1-9.9 9 2.9-1.5 15.6-6.1 7.2-2-3.8 18.4-50.8 18.8-67.9 2.1-79-80.3-119.3-78.1-207.4 0.8-32.2 9.3-64.8 26.9-92 27.3-42.1 29-17.6 26.9-14.8z"  fill="#fff500" /><path d=""  fill="#fff" /><path d="M27-220.8c38.5 122.3 33.6 154-46 255.9-5.1 6.5-26.3 44.9-33.2 43.5-7.8-1.6-2.4-13.7 4-9 7.5 5.6-6.3 14.1-8 4.9-0.4-2 84.5-119 94.3-149.2 15.7-48.6 1.3-93-14.3-139.3-1-2.9 0-13.8 3.2-6.8z"  fill="#fff" /><path d="M34.2-213.8c35.7 112.8 19.1 158.2-52.7 249.2-5.1 6.5-26.4 44.2-33.1 42.7-9.2-1.9-0.1-15.5 5.2-7.8 4.6 6.6-7.8 11.6-9.1 3.7-2-11.3 83.9-116.8 94.2-144.8 17-46.4 7.2-90.8-7.8-136.2-1-2.9 0-13.9 3.3-6.8z"  fill="#005bbb" /><path d="M41.4-184.8c31.1 94.7-3.6 147.9-60.5 220.5-5.6 7.2-23.7 42-31.3 42.9-7.9 1-6.7-12.2 1-9.8 6.5 2.1 2.6 12.2-3.6 9.4-9.8-4.4 9.6-28 12.9-32.9 25.2-36.6 58.5-68 75.4-109.9 9.5-23.5 13.3-48.9 10.8-74.2-0.5-5.4-12.4-63-4.7-46z"  fill="#fff500" /><path d=""  fill="#c2e1ff" /><path d="M57.7-363.4c-79.1 91.2 10.2 169.7-3.4 267-6.4 45.8-32.9 82.3-61.1 117.3-4.7 5.9-25.6 39.7-33.2 33.8-5-3.9 0-12 5.7-9.2 5.7 2.7 2.6 11.7-3.6 10.2-12.7-3 9-25.3 12.1-29.2 25.9-33.1 54.9-64.7 67.5-105.7 23.4-76-30.8-139.2-25-213.9 1.9-24.4 12.2-62.9 33.2-78.5 5.6-4.2 11.2 3 7.8 8.2z"  fill="#c2e1ff" /><path d="M64-266.2c0.8 45 17.7 87.9 14.5 133.2-4.8 68.1-46.5 116.3-89.2 165.4-5.7 6.6-31.3 47.3-38 45.8-7.9-1.9-2-14 4.3-9 7.5 5.9-6.8 14.2-8.2 4.7-1.9-13 95-118.2 110.5-156.5 24.7-61.3 4.1-115.6-0.5-177.7-0.4-4.9 5.1-14.5 6.6-5.9z"  fill="#c2e1ff" /><path d="M70.6-212.6c30.9 162.6-40.4 172.4-113.9 288.7-5.2 8.2-14.7-4.5-6.1-7.3 9-2.9 7.9 13.6-0.6 9.5-10-4.8 11.5-29.6 15.1-34.3 29.5-39.4 67.5-71.6 88.6-117 21.3-45.8 18.7-90 11-138.4-0.6-3.9 4.8-4.7 5.9-1.2z"  fill="#c2e1ff" /><path d="M79.2-378c-102.7 107.4-0.3 173.2-22.2 286-7.8 40.4-30.7 73.8-56.2 105.1-4.3 5.2-20.3 31.9-28.1 25.1-4.9-4.4 0.7-12.4 6.5-9.2 5.7 3.2 1.9 12.2-4.4 10.4-12.5-3.7 9.6-24.4 12.9-28.3 23.9-29 47.6-58.6 58.5-95.3 23-77.4-33.4-145.4-19.7-221.8 3.5-19.3 26.7-74.7 46.4-81.6 6.2-2.2 9.6 5 6.3 9.6z"  fill="#fff" /><path d="M86.5-81.7c-23.5 47.9-61.1 82.3-96.8 120.7-8.1 8.6-21.7 35.1-31.7 39.2-9 3.7-9.1-13.2-0.1-9.6 7.7 3 0.1 14.4-5.6 8.4-10.9-11.2 46.4-64.6 54.6-72.9 17.2-17.4 34.2-34.9 48.6-54.8 7-9.7 14.3-30.9 23.6-37.4 4.6-3.2 9.1 1.9 7.4 6.4z"  fill="#fff" /><path d=""  fill="#fff" /><path d=""  fill="#fff" /><path d="M108-62.3c-31.8 38.7-69.3 69.4-106.3 102.7-9.3 8.4-25.1 34.5-35.9 38.2-8.1 2.8-9.7-11.4-1.2-10.5 10 1 1.9 16.5-4.6 8.9-7.7-9 24.9-37.6 30.9-43.3 36.5-34.8 74-66.3 108.3-103.4 5.1-5.6 12.7 1.3 8.8 7.4z"  fill="#c2e1ff" /><path d="M114.6-168.6c-7.3 93.7-72.9 150.2-131.2 215.4-4.8 5.4-23 35.9-29.9 31.3-6.9-4.6 3-14.1 7.3-7.1 4.3 7-8.6 11.6-9.6 3.3-1.8-15.3 90.4-103.8 105.5-124 17.1-23 31.3-48.5 40.5-75.6 4.2-12.4 3.6-35.6 10.3-45.8 2.4-3.6 7-1.2 7.1 2.5z"  fill="#fff" /><path d="M122.5-346.9c-30.4 62.8-9.9 124.1-16.4 190-7.2 74-52.8 129.7-102.7 180.8-6.1 6.2-32.8 42.8-40.2 40-8.2-3.1-0.3-15.3 5.9-9 7.2 7.3-9.3 14.2-9.5 4-0.4-19.2 90.3-91.2 118.6-150.5 34.4-72 9.9-131.2 19.4-204.5 2.1-16.6 5.8-42.5 16.5-56 3.8-4.7 10 0 8.4 5.2z"  fill="#005bbb" /><path d="M129.5-324.8c-19.7 62 1.6 127.1-15.2 189.6-22.1 82.6-85.6 128.6-137.6 190.9-4.1 4.9-15 27.1-22.4 22.1-5-3.4-0.8-11.4 4.9-9.2 6.6 2.6 1.9 12.8-4.4 9.5-10.9-5.8 19.5-37.4 24.2-42.8 40.2-44.6 84.9-81.1 112.1-136.1 32.2-65.4 14.7-128.6 23.8-197.3 1-7.8 1.4-25.1 7-31 3.4-3.6 8.2 0.1 7.6 4.3z"  fill="#fff" /><path d="M108.4-394.9c-29.2 33.3-57.7 66-60.9 112.3-6.8 98.7 64.2 165.2-21.4 267.7-6.8 8.1-15.3-7.2-5.4-8.9 8.8-1.5 8 13.2-0.6 10.9-11.9-3.2 7.7-23.4 10.3-27.5 13.2-20.3 23-42.7 27.8-66.4 14.2-70.6-31.5-137.1-13.9-207.1 7.5-29.9 30.5-71.6 56.4-89.6 5.8-4.1 11.3 3.4 7.7 8.6z"  fill="#fff" /><path d="M143.2-264c-2 89.9-0.6 135.1-57.6 210.9-33.4 44.4-80.4 75.6-114 119.3-2.7 3.5-9.9 18.4-15.9 10.2-3.6-5 3.2-11.2 7.8-7 4.6 4.1-0.7 11.6-6.1 8.6-11-6.1 20.3-37.1 25.3-42.3 41.4-43.5 86.8-79.2 118.7-131.2 33.8-55.2 32.4-106.4 34.5-168.5 0.2-4.8 6.8-4.5 7.3 0z"  fill="#fff500" /><path d="M117.2-394.8c-28.6 35.6-56.3 69.9-58.4 117.7-3.5 82.9 38.6 134.3-3.5 220.1-4.7 9.5-11.5 26.8-20.2 33.1-7.1 5.1-12.9-8.2-4.3-9.9 8.6-1.7 8.2 12.9-0.3 10.8-11.9-2.9 6.6-22.7 9.3-27.1 12-19.7 20.8-41.4 25.3-64 13.2-66.9-25.2-131.2-9.6-197.6 7.1-29.9 28.7-72.1 53.8-91.2 5.5-4.2 11.1 2.9 7.9 8.1z"  fill="#fff" /><path d=""  fill="#c2e1ff" /><path d=""  fill="#fff" /><path d="M172.6-339.7c-18 57-4.2 115.1-15.8 172.5-15 74-75.7 136.3-130.9 184-7 6.1-39.5 42.1-47.2 38-8.3-4.3 1.7-16.2 7.4-8.8 6.7 8.7-11.7 13.9-10.5 3 1-10.2 56.6-54 67.3-63.8 32.3-29.8 62.3-64.4 84.4-102.6 36.5-62.9 18.6-128.1 30-196 5.7-33.8 17.2-37.6 15.3-26.3z"  fill="#fff500" /><path d="M179-266c-0.5 47 5.4 92.9-15.7 136.7-43.2 89.6-126.3 127.7-184.9 196.2-2.9 3.4-10.9 18-16.5 9.5-3.5-5.3 3.8-11.3 8.3-6.9 4.5 4.4-1.3 11.9-6.7 8.5-11.5-7.1 26.7-40.6 32.5-45.8 49.5-44.5 100.8-84 140.6-138.2 37.5-51.1 33.9-100 35.3-160 0.1-4.8 6.6-4.5 7.1 0z"  fill="#fff500" /><path d="M187.1 60.3c-3.4 4.5-12 23.2-19.4 17.5-5-3.8-0.2-11.9 5.5-9.2 6.7 3.1 1.3 13.4-5 9.6-7.9-4.7 7.1-23.8 12-26.2 5.5-2.7 9.5 3.7 6.9 8.3z"  fill="#fff500" /><path d="M182.5-396.5c-11.6 28.5-24.7 56.5-30.7 86.9-8.8 44.5-0.4 89.8-6.7 134.5-7.9 55.8-40.9 105.2-77.7 146.6-4.6 5.2-18.9 26.3-27 21.6-6.1-3.5-1.8-13.2 4.9-11 7.8 2.5 3.2 14.6-4.3 11.3-12.5-5.5 15.8-27.7 19.9-32.2 27-30 52.1-64.6 66.5-102.6 22.1-58.2 5.4-120.2 18.2-179.8 5.2-24.2 13.7-59.7 28.6-80 3.5-4.7 9.7-0.3 8.3 4.7z"  fill="#c2e1ff" /><path d="M201.5-113.1c-29.8 50.2-113.6 113-162 147.2-8.3 5.9-56.6 48.2-61.4 43.5-6.6-6.4 6.1-14.8 9.3-6.2 3.3 8.5-11.7 10.9-11.1 1.7 0.9-14.6 82.6-68.7 98.1-81.2 41.3-33.2 86.2-68.3 118.1-110.8 4.2-5.6 11.9-0.3 9 5.8z"  fill="#005bbb" /><path d=""  fill="#c2e1ff" /><path d="M198.7-397.1c-11.5 32.3-25.2 63.6-29.8 97.8-14.6 106.8 17.8 136.4-60.3 234.1-4.8 6-19.1 29.4-27.6 28.3-7.9-1.1-5.5-13.5 2.3-11.5 7.7 2 4 14-3.5 11.1-12.4-4.6 12.1-25.7 15.6-29.9 22.5-26.9 44.3-56 55.3-89.7 17.3-53 2.8-109.7 13.4-163.8 4.8-24.4 12.3-59.8 26.4-80.6 3.2-4.7 9.4-0.7 8.2 4.2z"  fill="#005bbb" /><path d="M222.5 0c-19 14.7-36.5 30.9-51.7 49.5-5.4 6.7-15.2 26.6-23.1 29.1-8.3 2.6-9.6-11.7-1-10.6 10.1 1.3 1.6 16.8-4.9 8.9-10.4-12.7 61.2-81.8 74.1-87.7 7.1-3.2 11.5 5.9 6.6 10.8z"  fill="#fff" /><path d="M220.7-397c-12 36.9-27.6 72.1-30.5 111.3-3.4 45.2 7.6 91.2-6 135.3-13.6 44-48.4 78.2-80.1 110.1-5.4 5.4-23.1 28.8-31.2 23.8-6.1-3.8-1.5-13.4 5.3-11 7.9 2.8 2.8 14.9-4.7 11.3-12.6-6 15.4-26 19.7-30.2 30.6-30.2 65.3-62.8 81.1-103.8 20.5-53.2 2-111.6 11.9-166.6 4.6-25.5 12.3-62.1 26.3-84.2 3-4.7 9.2-0.9 8.2 4z"  fill="#005bbb" /><path d="M236.8-15.9c-23.6 18.1-46.8 35.9-66.3 58.5-6.9 8-19.6 33.2-29.3 36.3-8.4 2.6-9.6-11.9-0.9-10.8 10.2 1.4 1.4 16.9-5 9-12.8-15.9 79.5-97.2 95.1-104 7.2-3.1 11.5 6.1 6.4 11z"  fill="#c2e1ff" /><path d="M243.2-185.5c13.1 78.1-33.6 115-89.6 158.7-24.9 19.4-48.2 40.6-73.1 60-10.3 8-54.9 49.5-66.7 46.2-8.2-2.2-4-14.9 4-11.8 9.2 3.6 0 17.3-6.8 10.1-9.4-9.8 35.7-35.8 42.8-40.8 49.4-35.2 99.1-75 144.6-115.1 17.9-15.8 32.8-34.6 38.1-58.4 1.5-6.7 0.9-70.2 6.7-48.9z"  fill="#fff500" /><path d="M251.7-70.4c-30.3 40.1-80.9 64.4-116.6 100-7.1 7.1-48.8 56.9-56.6 48.1-4.6-5.3 2.4-13 8.1-8.9 6.6 4.8-1.6 14.9-7.6 9.4-8.4-7.6 18.7-27.5 23.5-32.4 35.5-36.2 72.1-67.2 112.3-98 7.7-5.8 22.8-26.1 31.6-27.4 5.5-0.8 7.9 5.2 5.3 9.2z"  fill="#fff" /><path d=""  fill="#fff500" /><path d="M264.6-396.5c-14.1 37.3-35 71.3-38.4 112-3.9 45.4 14.6 89.3 10.4 134.4-4.9 52.3-46.3 82.8-84.3 113.1-8.2 6.5-37.9 38.5-47.9 35.6-11.3-3.2 1.2-19.3 7.2-9.2 5.9 10.1-14.2 13.2-11.6 1.8 3.2-14.1 103.2-78.6 120.3-114.5 26.6-55.7-8.6-120.3 0.1-178.9 4.5-30.6 17.8-73.4 36-98.8 3.4-4.7 9.6-0.5 8.2 4.5z"  fill="#005bbb" /><path d="M273.1-22.7c-23.8 24.5-53.1 42.7-75.8 68.5-4.6 5.2-25.7 40.1-32.2 30.5-3.5-5.2 3.6-11.3 8.2-7 5.4 5.1-3.1 13.1-7.9 7.4-12.2-14.4 85.1-104.6 101.8-109.5 6.4-1.9 9.5 5.6 5.9 10.1z"  fill="#fff" /><path d="M278.5-233.8c31.3 103.2 144.1 138.8 95.7 266.1-3 7.9-12.9 44-20.9 45.8-8.6 2-6.2-13.1 1.3-8.7 7.6 4.5-4.5 13.8-6.9 5.4-1.6-5.7 37.6-89.2 30.3-129.3-10.8-59.8-63.7-99.8-92.1-150.8-4.3-7.6-11.6-18.6-12.4-27.5-0.3-3.2 3.8-3.6 5-1z"  fill="#c2e1ff" /><path d="M287.4-396.3c-16.6 37.4-41.7 70.3-45.9 112.3-11.5 114.3 81.3 158.3-46.9 251.7-8.4 6.1-39 36.9-48.4 34.3-11.2-3.1 1-19.2 7-9.3 6 9.9-13.9 13.3-11.5 2 3.5-16.2 94.3-64.3 109.6-104.6 22.5-59.4-24.4-123.5-16.5-185.1 4.3-33.8 22.6-79.7 44.3-106.5 3.8-4.7 10 0.1 8.3 5.2z"  fill="#c2e1ff" /><path d="M293-241.8c14.6 54.5 66.5 85.2 103 123.9 49.3 52.2 48.3 109.9 28.1 174.9-1.4 4.7-3.5 23.6-11.3 20.8-18.8-6.7 21.6-8.2 3.3-0.1-12.4 5.4 0.4-26.7 1.4-29.8 11.4-36.9 21.2-75.5 8-113.3-19.8-57-77.3-86-113.2-131.2-10.4-13.1-19.1-27.6-24.4-43.6-1.1-3.4 3.7-4.7 5.1-1.6z"  fill="#005bbb" /><path d="M299.3-171c51.6 86.8 62.8 132.1 0.3 217.6-4.3 5.8-19.3 34.6-27.2 32.2-6.9-2.1-3-12.9 3.7-10 5.7 2.5 3 11.3-3.1 10.2-12.3-2.4 7.1-24.1 9.7-27.9 21.9-31.1 48.9-61.7 53.8-100.8 5.4-43.3-18-81.7-39.3-117.3-1.4-2.3-0.6-7.5 2.1-4z"  fill="#fff" /><path d="M309.3-371.8c-23.7 33.1-47.8 65.7-46.1 108.6 4.3 102.2 122.8 164.4 43.4 272.4-5.1 6.9-22.8 35.5-31.8 34.3-10.7-1.3-1.8-17.8 5.1-9.4 6.9 8.3-10.9 14.1-10.2 3.3 0.3-5.4 50.7-61.1 56-92.9 13.6-80.1-69-138.8-69.7-217.7-0.4-39.6 20.3-75 44.3-105 4.5-5.7 12.3 0.4 9 6.4z"  fill="#fff" /><path d="M316.5 59.6c-2.6 4.4-8.9 22.8-16.4 18.3-6.9-4.2 2.4-13.9 6.9-7.3 3.9 5.8-5.5 11.4-8.8 5.3-7.8-14.9 24.5-30.9 18.3-16.3z"  fill="#fff500" /><path d="M320.3-165.9c54.3 67.7 97.2 111.4 64.1 203.2-2.6 7.3-9.9 38.7-17.6 40.6-8.4 2.1-6.4-12.8 1.1-8.6 7.6 4.2-4.2 13.7-6.7 5.4-0.8-2.6 32.1-89 27.7-121-6.1-44.1-37.7-78-65.2-110.9-0.5-0.6-7.9-13.1-3.4-8.7z"  fill="#005bbb" /><path d=""  fill="#c2e1ff" /><path d="M327.4-395.5c-30.5 53.5-76.1 92.5-58.3 160.2 19.4 73.3 95.4 132.7 66.2 214.8-1.9 5.3-6 21.6-12.8 22.2-9.6 0.9-4.8-15.1 2.7-9.2 6.5 5.1-4.1 13.7-7.8 6.5-2.2-4.3 17.9-49.9 17.4-67.2-2.4-78.7-82-132-77-213.4 2.5-41.3 32.3-91.4 61.4-120.3 4.6-4.5 10.5 1.3 8.2 6.4z"  fill="#005bbb" /><path d="M341.5-162.8c63.5 62.3 108.4 102.9 80.7 198.8-2.1 7.4-7.6 39.2-15.1 41.5-8 2.5-6.8-12.1 0.7-8.3 7.5 3.7-3.4 13.5-6.2 5.6-0.5-1.2 27.5-90.9 19.9-125.8-9.5-43.9-43.9-74.5-75.1-104-0.4-0.4-8.8-10.7-4.9-7.8z"  fill="#fff" /><path d=""  fill="#fff" /><path d="M356.5-220c54 85 151.1 90.1 119 243-1.9 8.9-7.1 51.7-15.3 54.8-7.5 2.8-7.2-11.2 0.1-8.1 7.4 3.1-2.4 13.1-5.6 5.8-4.6-10.5 9.9-42.7 12.5-54.3 7.3-32.4 10.4-66 0.8-98.3-18.2-61.9-74.2-88.6-111-136.5-1.1-1.4-4.4-10.8-0.5-6.4z"  fill="#005bbb" /><path d="M363.7-220c53.6 85.2 147 91.2 113.8 245.7-1.8 8.5-6.6 48.5-14.5 51.4-7.5 2.8-7.2-11.1 0.2-8 7.4 3.1-2.4 13.1-5.7 5.7-4.6-10.5 9.8-42.7 12.4-54.2 7.2-32.4 10.2-66 0.9-98.4-17.4-60.8-70.7-88.5-106.7-135.8-1.1-1.4-4.4-10.9-0.4-6.4z"  fill="#fff500" /><path d=""  fill="#fff500" /><path d="M363.1-395.5c-34.8 56.2-101.1 95-68.3 170.5 22.9 52.7 75.9 82 109 127.2 1.4 1.9 15.5 19.5 9.4 20.1-10.1 1.1 9.6-5.6 0.9-0.3-2.1 1.2-21.5-29.4-24.8-33.3-42.5-50.6-115.6-92.6-110.5-168.2 2.9-42 45.8-95.2 76.3-123 4.9-4.4 10.7 1.8 8 7z"  fill="#005bbb" /><path d="M375.2-395.6c-32.8 53-102.7 89.2-75.9 162.1 18.3 49.8 67.1 77.3 102.3 113.8 1.9 1.9 10.6 9 9.7 11.8-0.2 0.5-0.7 1-1.3 1-4.4 0.4-24.6-25.6-28.9-29.5-42.6-39.1-101.5-79.9-94.4-145.8 4.6-42.3 82.2-122.4 85.2-121.7 3.9 0.9 4.9 5 3.3 8.3z"  fill="#005bbb" /><path d=""  fill="#005bbb" /><path d=""  fill="#c2e1ff" /><path d="M409.9-289c-35.9 68.8 52.9 127.3 75.6 186.2 21 54.5 10.5 109.5-2.4 164.4-0.8 3.4-2 20.6-9.5 15.5-15.7-10.7 21.8-2.4 3.1 0.7-10.3 1.7-0.4-24.8 0.5-28.7 8.1-34.6 15.9-69.6 13-105.4-7.5-90.4-70-112-92.5-180-5.3-16-7.6-43.4 3.8-57.8 3.8-4.8 10 0 8.4 5.1z"  fill="#fff500" /><path d="M413.3-157.8c58.9 53.1 75.6 116.7 57.3 193.1-1.8 7.4-5.4 39.5-12.6 42.1-5.5 2-8.3-6.8-2.6-8.3 5.7-1.4 7.5 7.7 1.7 8.5-10.6 1.5 0.8-27.3 1.8-31.4 8.9-34.3 16.9-69.5 11-104.9-6-35.8-26-66.2-51.6-91.4-0.2-0.2-8.8-10.4-5-7.7z"  fill="#c2e1ff" /><path d="M408.9-395.4c-30 52.3-113.8 88.6-84.8 160.8 20.3 50.7 77.3 75.1 110.8 115.6 1.7 2 16 17.6 10.3 18.6-9 1.7 8.2-5.6 0.8-0.3-2 1.5-20.8-25.4-23.9-28.7-39.8-43.6-116.2-77.5-110.8-146.9 3.4-44.2 41-70.5 69-100.1 6.6-6.9 13.6-21.8 21.5-26.4 5.1-2.9 9.3 2.8 7.1 7.4z"  fill="#fff500" /><path d="M428.1-114.9c41 48.7 38.5 106 22.5 164.1-1.5 5.6-4.2 28.4-11.3 28.4-7 0.1-4.6-11.3 1.8-8.4 7.5 3.4-2.8 13.2-5.9 5.6-2.7-6.5 20.2-84.6 20.3-103 0.1-23.3-5.7-46.2-17.3-66.5-1.2-2-14.4-24.5-10.1-20.2z"  fill="#c2e1ff" /><path d="M438.4 41.2c-1.7 6.1-7.5 39.5-15.6 36.7-5.7-2-2.1-10.8 3.3-8.3 5.5 2.6 0.9 11-4.2 7.9-10.9-6.7 20.8-62.9 16.5-36.3z"  fill="#fff" /><path d="M442.8-194c54.5 84.9 72.4 137.9 49.8 239-1.3 5.7-3.5 32.3-10.5 32.8-4.9 0.3-6.2-6.9-1.4-8.3 5.5-1.6 7.5 7.3 1.9 8.2-10.3 1.8 0-27.3 0.9-31.3 8.4-36.9 15.9-74.2 11.8-112.3-4.9-44.6-25.9-82.1-50.5-118.7-0.6-0.8-6.6-14.9-2-9.4z"  fill="#fff" /><path d="M452.3-15.8c-0.4 13.5-12.5 86.1-21.3 92.7-5.6 4.2-10.5-6.4-3.6-7.9 6.9-1.5 6.8 10.2 0 8.7-8.8-2 5.8-36.7 7.5-43 3.9-14.2 3.2-40.8 10.4-52.7 2.2-3.5 6.8-1.4 7 2.2z"  fill="#005bbb" /><path d="M458.8-46.4c3.4 19.4-4.1 111.7-18.8 123-5.5 4.3-10.5-6.3-3.6-7.8 6.8-1.5 6.9 10.1 0 8.6-8.2-1.7 10.7-56.7 12.5-65 0.7-3.1 5.2-77 9.9-58.8z"  fill="#c2e1ff" /><path d="M467.4-345.4c-17.5 31.2-45.7 62.1-42.1 100.3 3.9 41 38.1 74.1 55.8 109.7 28.3 56.7 26.6 116 13.3 176.5-1.3 6.1-4.2 36.3-11.3 36.7-7.9 0.5-3.6-12.5 2.4-7.5 5.2 4.3-3.7 11.1-6.5 5.1-2.8-5.9 17.9-94.5 18.3-112 2.8-104.7-76.5-150.2-79.4-218.2-1.3-30.9 19.8-74.7 41.2-96.8 4.4-4.6 10.5 1 8.3 6.2z"  fill="#fff" /><path d="M474.4-394.4c-17.3 53.1-90.4 99.3-72.2 159.9 24 79.9 107.5 92.2 94.2 225-0.5 5.2 0.1 24.9-6.8 25.6-6.6 0.6-5.2-10.2 1-8.1 7.3 2.6-1.6 12.7-5.1 5.8-4.2-8.1 4.2-33.6 4.7-43.4 0.9-19.9-0.9-39.9-6.2-59.1-16.9-62.2-99-122.5-91.3-181.6 5-38.1 37.5-65.3 57.2-96.2 5.6-8.8 9.7-26.3 17-32.9 3.8-3.4 8.5 0.7 7.5 5z"  fill="#005bbb" /><path d="M481-22.8c-0.3 14.2-11.3 92.7-20 99.7-5.3 4.3-10.4-5.9-3.7-7.6 6.7-1.7 7 9.7 0.2 8.5-8.7-1.6 3.1-31 4.5-36.6 3.7-14.6 6.2-56.1 12-66.1 2.1-3.5 6.7-1.5 7 2.1z"  fill="#fff" /><path d=""  fill="#005bbb" /><path d="M494-181.8c26.6 74.8 31.8 144.6 16.3 222.5-1.2 6.1-3.4 36.3-10.4 36.9-6.6 0.6-5.1-10.3 1-8 7.3 2.6-1.7 12.7-5.1 5.7-2.8-5.6 17.3-104.3 17.7-122.4 1.1-44-8.2-86.5-22.5-127.9-0.9-2.6-0.4-13.7 3-6.8z"  fill="#fff" /><path d="M502.4-38c0.2 16.2-9.4 106.5-19.1 114.9-5.1 4.4-10.4-5.4-3.9-7.3 6.5-1.8 7.1 9.3 0.5 8.2-8.6-1.4 6.6-50.2 8.1-57.5 3.9-19.1 2.5-40.7 7.3-59.2 1.1-4.3 6.7-2.9 7.1 0.9z"  fill="#fff" /><path d="M510.1-325.1c-5.9 26.8-10.5 53.7-8.1 81.3 2.2 25.7 9.3 50.7 14.7 75.8 15.3 71.7 14.7 140.4 1.1 212.2-1.1 5.7-2.4 32.4-9.2 33.1-7.6 0.7-3.9-12.1 2.1-7.4 5.2 4-3.2 11-6.2 5.1-2.8-5.5 17-110.3 17.5-128.6 2.2-72.2-26.8-139.1-27.9-210.1-0.3-18.7-0.3-47 8.1-64.2 2.3-4.7 8.4-1.8 7.9 2.8z"  fill="#fff" /><path d="M516.1-192.6c14.7 73.1 19.9 144.1 7.1 217.9-1.8 10.7-2.5 44.1-10.2 51.2-4.8 4.5-10.3-4.9-4.1-6.9 6.2-2 7.3 8.8 0.8 8-8.4-1 0.1-25.5 1.1-30.6 6-31.9 11.6-63.8 13.1-96.3 2.2-48.4-5.6-94.7-13.7-142.1-0.7-3.9 4.7-4.7 5.9-1.2z"  fill="#fff500" /><path d="M523.6-233.4c11.8 108.8 18 198.9-4 307.5-1.5 7.6-12.5 0.5-6.5-3.9 6.1-4.6 9.6 8.2 2 7.3-8.5-0.9 0.5-28.5 1.5-33.9 6.2-34.2 11.5-68.4 13-103.1 2.3-56.4-4.9-111.9-11.8-167.7-0.5-4.2 3.8-14.6 5.8-6.2z"  fill="#fff" /><path d="M538.6-398.9c7.1 44.2 0.5 89.4 2.3 134 3.7 92.6 9.5 184.7-4 276.9-0.4 3-0.7 15.4-7.5 11.4-4.1-2.4-1.1-8.9 3.4-7.4 4.5 1.5 3 8.4-1.7 7.9-8-0.8 1.1-36.9 1.8-43.1 5-42.3 5.9-85 5.9-127.6 0-46.2-4.6-92.1-5.5-138.2-0.6-32.5 2.8-65.1 0.6-97.6-0.1-1.5 1.5-28.5 4.7-16.3z"  fill="#005bbb" /><path d="M570.3-399.6c46.6 112.7-0.5 251.7-14.1 369.5-0.3 2.9-0.3 14.4-6.8 10.9-4-2.2-1.4-8.6 3-7.3 4.4 1.3 3.2 8.1-1.3 7.8-11.2-0.7 27.5-207.6 30.1-229.1 5.9-47.9 4-95.9-12.3-141.7-0.4-1.2-2.9-18.2 1.4-10.1z"  fill="#005bbb" /><path d="M545.9 58.6c-0.6 4 0.2 20.1-7 18.7-5.4-1.1-3.2-9.4 2-7.8 5.2 1.6 2.2 9.7-2.8 7.6-13-5.7 8.1-32.5 7.8-18.5z"  fill="#fff" /><path d="M552.7-199c0.2 71.4-2.9 144.2-13.3 214.8-1.9 12.5-1.8 52.2-10.7 60.8-4.6 4.5-10.2-4.6-4.1-6.7 6.1-2.1 7.3 8.5 0.9 7.8-6.3-0.6 10.6-97.9 11.9-109.7 5.7-55.5 5.9-111.3 8.1-167 0.2-4.8 6.7-4.5 7.2 0z"  fill="#fff500" /><path d="M564.8-399.1c34.4 93.6 11.9 188.5-0.9 283.7-6.2 46.9-9.9 94-16.7 140.8-0.5 3.7 0.2 15.9-6.5 14.5-5.4-1.1-3.2-9.5 2-7.8 4.5 1.4 3.1 8.3-1.6 7.9-8.3-0.8 27.9-238.7 31-263.2 6.7-54.1 7.4-109.9-8.4-162.6-0.3-1.1-3.4-22.5 1.1-13.3z"  fill="#fff" /><path d="M566.6-353.4c16.8 114.4-10.3 299.4-28.3 416.2-0.6 3.7 0.1 15.9-6.5 14.5-4.6-0.9-4-7.9 0.7-8 5.5-0.1 5.2 8.6-0.3 8.1-2.3-0.2-4-2.4-3.6-4.6 9.9-67.3 17.2-134.4 24.3-202 7.5-70.5 15.8-140.2 8.8-211.2-0.2-2 1.9-24.6 4.9-13z"  fill="#fff500" /><path d="M574.6 46.5c-0.6 5.3-0.2 32.3-8 30.9-5.3-0.9-3.4-9.2 1.8-7.7 5.2 1.5 2.3 9.5-2.6 7.4-10.7-4.4 8.8-53.8 8.8-30.6z"  fill="#c2e1ff" /><path d="M580.8-354.6c18 83.1-5.7 165.3-16.7 247.6-7.6 56.9-13.3 114-21.8 170.7-0.5 3.6 0.1 15.2-6.3 13.9-5.4-1.1-3.2-9.4 2-7.8 4.5 1.4 3.1 8.3-1.6 7.9-7.6-0.7 6.4-72.5 7.6-81.9 7.8-59.3 13.4-118.5 23.9-177.4 9.5-53.7 17.3-108.7 8.6-163.1-0.3-2.1 1.1-19.8 4.3-9.9z"  fill="#fff" /><path d=""  fill="#fff500" /><path d=""  fill="#fff500" /><path d="M602.8-230.7c-18.9 77-35.6 150.9-45.7 229.7-1.2 9.1-7.7 79.6-15.1 78.1-6.3-1.2-2.1-10.9 3.1-7.2 5.2 3.7-2.7 10.8-5.9 5.3-2.9-5.2 8.1-63.4 9.5-73.9 10.2-77.1 23.6-150.3 43.4-225.5 1.3-4.8 12.3-19.2 10.7-6.5z"  fill="#fff" /><path d="M602.9-189.8c-21.3 57.2-32.4 114.6-40 175.1-1 7.5-4.4 60.3-12.1 58.8-5.4-1-3.3-9.4 2-7.8 5.2 1.6 2.2 9.7-2.8 7.5-6.9-3 3.2-45.4 4.1-52.8 8-62.4 17.6-122.4 39.2-181.8 2.3-6.3 11.4-6.7 9.6 1z"  fill="#fff" /><path d="M603.2-172.5c-25 60.6-33.1 123.7-41.5 188.2-1 7.7-5 62.8-12.5 61.4-6.2-1.2-2.1-10.9 3.1-7.2 5.2 3.7-2.6 10.7-5.8 5.3-5.5-9.6 4.9-42.6 6.4-53.9 7.9-59.4 13.4-119.4 33.4-176.2 2.2-6.4 4.6-12.7 7.1-19 2.5-6.4 11.8-6.4 9.8 1.4z"  fill="#005bbb" /><path d="M602.7 46.4c-0.6 5.3-0.2 32.4-8.1 30.9-5.3-1-3.3-9.3 1.9-7.7 5.2 1.6 2.3 9.6-2.7 7.5-10.6-4.5 8.8-53.7 8.9-30.7z"  fill="#005bbb" /><path d="M602.7 61.9c-0.5 3.7 0.5 16.7-6.2 15.4-5.3-1-3.3-9.3 1.8-7.7 5.2 1.6 2.3 9.6-2.7 7.5-12.3-5.2 7.1-28.5 7.1-15.2z"  fill="#c2e1ff" /><path d="M603.1-180.4c-25.1 63.2-33.8 128-42.6 195-1 7.9-5.3 64.2-12.7 62.8-6.2-1.2-2.1-10.9 3.1-7.2 5.2 3.7-2.7 10.8-5.8 5.2-5.9-10.3 5.5-46.4 7.1-58.5 4.6-34.7 21.2-183.2 43.4-202.6 4-3.4 8.7 0.9 7.5 5.3z"  fill="#fff" /><path d="M603.1-168.7c-24.4 58.3-32.4 119.4-40.4 181.6-0.9 7.3-4.1 58.2-11.8 56.7-6.2-1.2-2.1-10.9 3-7.2 5.2 3.7-2.7 10.8-5.8 5.3-5.4-9.5 4.7-41.5 6.2-52.5 7.5-57.2 13.3-114.9 33-169.5 2.2-6 4.3-12.1 6.9-18 2.6-5.8 10.5-2.2 8.9 3.6z"  fill="#fff" /><path d="M603.1-148.7c-17.6 39.7-25.9 82-31.7 124.9-0.8 6.1-1.9 42.8-9.6 41.3-12.2-2.2 8.7-14.3 4.4-2.5-3.1 8.6-7.7-2.2-7.1-6.4 5.6-43.7 10.5-87.9 23.7-130.1 2.4-7.6 5-15.2 8-22.6 2.4-6.1 16-17.3 12.3-4.6z"  fill="#005bbb" /><path d="M603.1-151.3c-20.3 46.1-28.2 95.3-34.6 144.8-0.8 6.4-2.5 48.2-10.2 46.8-4.6-0.8-4-7.8 0.6-7.9 5.4-0.2 5.2 8.4-0.2 7.9-6.4-0.5-2.8-11.1-2.4-14.3 6.4-49.2 10.9-99.3 25.5-146.9 11.5-37.6 25.6-45.5 21.3-30.4z"  fill="#fff" /><path d=""  fill="#005bbb" /><path d="M603.1-129.8c-22 50-27.4 105.1-34.1 158.8-0.8 6.6-2.7 49.5-10.3 48.1-4.6-0.8-4.1-7.7 0.5-7.9 5.4-0.2 5.3 8.3-0.1 8-8.1-0.6 0.4-36.5 1.1-42.5 5.8-45.8 10-92.5 23.1-137 9.9-33.9 24.1-42.5 19.8-27.5z"  fill="#fff500" /><path d="M603-123.4c-20.8 48-26.1 100.9-32.5 152.3-0.8 6.7-2.7 50.2-10.3 48.8-4.5-0.8-4.1-7.7 0.6-7.9 5.4-0.2 5.3 8.3-0.2 7.9-8.1-0.6 0.4-37.1 1.2-43.1 5.6-44.7 9.7-90.3 22.6-133.7 8.9-30.2 22.7-39 18.6-24.3z"  fill="#005bbb" /><path d=""  fill="#c2e1ff" /><path d=""  fill="#fff" /></svg>