<svg width="1200" height="675" viewBox="-500 -500 1200 675" xmlns="http://www.w3.org/2000/svg"><path d="M-500-500h1200v675h-1200z" fill="#000"/><path d=""  fill="#fff500" /><path d=""  fill="#fff500" /><path d=""  fill="#005bbb" /><path d="M-397.6-398.5c53.4 49 81.8 153.3 99.1 222.5 2.9 11.5 25.9 99.5 15.5 103.6-6.2 2.4-6.1-9.2 0-6.7 6.2 2.5-1.9 10.8-4.6 4.8-7.3-16.1-5.5-43-8.7-60.8-6.2-34.2-15-67.8-26.2-100.7-15.8-46.3-28.9-99-57.9-139.1-2.9-4-23.8-28.6-17.2-23.6z"  fill="#005bbb" /><path d=""  fill="#fff500" /><path d=""  fill="#c2e1ff" /><path d=""  fill="#fff500" /><path d="M-380.3-399.2c47 50.2 81 178.8 94.5 247 2.4 12.1 22.9 104.9 11.8 108.3-6.7 2.1-5.8-10.1 0.5-7 6.4 3.1-2.7 11.4-5.2 4.7-1.2-3.1-18.4-133.6-29.1-170.1-15-50.9-29.4-108.5-56-154.7-3.5-6-22.9-34-16.5-28.2z"  fill="#005bbb" /><path d="M-371-399.7c44 51.9 76.4 181.5 89.2 249.3 2.2 11.7 22 101.4 11.7 104.9-6.6 2.2-5.9-9.9 0.4-6.9 6.3 2.9-2.5 11.2-5 4.7-3-7.5-19.1-133.8-28.4-167-15.6-55.5-30.2-121.4-61.5-170.3-0.6-0.9-11.5-19.7-6.4-14.7z"  fill="#005bbb" /><path d=""  fill="#fff500" /><path d=""  fill="#fff" /><path d=""  fill="#fff500" /><path d="M-396.8-340.4c17.8 27 28.5 58.2 40.2 88.3 32.3 83.2 82.9 207.4 21.8 288.6-6.9 9.1-26.5 36-38.9 36.2-12.8 0.3-5.1-20.6 4.5-12 9.5 8.6-10.5 18.5-11.5 5.6-0.8-10.3 37-37.4 44-47.7 19.6-28.9 23.4-63.3 20.6-97.3-6.8-82.2-38.1-169.5-75-243-0.7-1.5-11.1-25.4-5.7-18.7z"  fill="#fff500" /><path d="M-393.1 45.4c5 6.9-4 15.6-9.6 8.6-10.5-13.1 21.1-12.3 9.8 0.3-10.7 12-18.7-18.8-2.2-10.9z"  fill="#fff" /><path d="M-337.7-399.5c38.3 74.3 75 267 84.3 353.5 0.3 2.7 2.8 13.9-4 11.8-4.1-1.3-2.8-7.5 1.4-7.2 4.2 0.4 4.4 6.7 0.2 7.3-3.7 0.5-26.6-151-30.2-167.3-13.3-60.7-27.6-127.2-51-184.8-0.3-0.7-5.9-21.4-0.7-13.3z"  fill="#fff500" /><path d=""  fill="#c2e1ff" /><path d=""  fill="#c2e1ff" /><path d="M-358.3-399.7c44.5 62.1 78.8 227.8 90.4 305.7 3.1 21.1 10.5 123.6-8.3 127.1-9.7 1.8-6.4-15 1.9-9.6 7.1 4.6-2.8 14.4-7.3 7.3-3.8-6.1 9.2-32.7 10.5-40.9 7.8-50.4-6.1-106.6-15.6-156-11.7-61.3-37-160.7-65.3-215.2-0.7-1.4-11.7-24.6-6.3-18.4z"  fill="#fff500" /><path d="M-354.9 2.2c-4 10.1-32.8 64.5-47 56.5-7.7-4.4-0.1-16.2 7.1-11 7.2 5.2-1.6 16.1-8.2 10.2-8.5-7.6 12.8-22.7 17.3-28 7.8-9.1 13.9-27.1 22.7-34.1 4.6-3.6 9.6 1.5 8.1 6.4z"  fill="#005bbb" /><path d="M-349.3-205.9c29.3 81.9 59.9 188.3-9.7 258.3-6.3 6.4-27.3 30.6-36.8 27.6-7.7-2.4-5.3-14.2 2.7-13.4 9.4 0.8 7.3 15.5-2 13.6-19-3.8 22.5-33.1 26.9-37.2 22.4-21.2 38.1-47.3 42.4-78.2 7.8-55.3-10.2-115-28-166.7-1.3-3.8 2-9 4.5-4z"  fill="#005bbb" /><path d="M-341.6-278.9c32.5 88.4 91.5 239.1 26.4 323.5-7.1 9.2-27.5 36.1-40.2 36.1-13-0.1-4.5-21.1 4.9-12.1 9.4 9-11.2 18.4-11.9 5.4-0.5-9.8 32.6-31.1 39.6-39.6 18.1-22.4 27-49.6 28.3-78.1 3.4-75.5-22-152-47.9-221.8-0.7-1.8-3.9-22.7 0.8-13.4z"  fill="#fff" /><path d="M-333.9-364.9c35.4 87.3 103.2 325.1 59.4 408.9-4.4 8.5-16.2 32.6-26.6 34.4-11.8 2-7.4-18.4 2.5-11.7 10 6.7-7.2 18.4-9.9 6.8-1.7-7.5 26.6-37 32.7-52.3 11.6-29.2 10.6-60.6 6.8-91.2-11.7-94.1-35.1-184.9-63.7-275.1-1.6-5-6.9-14-6.3-19.2 0.3-2.9 3.9-2.9 5.1-0.6z"  fill="#c2e1ff" /><path d="M-325.4-115.6c13.3 65.2 9.2 126.9-42.1 174.4-5.7 5.3-21.8 24-30.3 21.5-12.3-3.8 1.7-21.1 8.1-10 5.4 9.5-12 14.8-12.9 3.9-0.7-8.4 18-18.3 23.6-23.1 17.2-14.9 32.7-31.9 42.1-52.9 10.9-24.3 12.4-51.1 10.1-77.3-0.7-7.8-8.4-31.2-4.6-37.6 1.6-2.7 5.1-1.6 6 1.1z"  fill="#fff" /><path d="M-318-294.8c26.4 87.2 84.2 257.2 35.2 340.3-5.1 8.6-18.8 33.3-29.8 34.5-12.2 1.4-6.6-19.3 3.2-11.9 9.8 7.4-8.5 18.5-10.5 6.4-1.5-9.1 27.1-34 32.3-43.4 12.9-23.3 17.1-49.5 16.2-75.9-2.8-80.5-24.7-160.2-48.5-236.6-0.7-2.2-2.5-23.5 1.9-13.4z"  fill="#005bbb" /><path d="M-308.9-42.7c-1.8 44.9-23.5 81.4-57.4 109.9-4.7 3.9-12.7 13.3-19 13.3-9.5 0-8.7-14.9 0.7-13.9 11 1.1 5.2 18.6-4.3 12.9-12.2-7.3 40.2-46 49.7-59.5 16.1-23 15.4-53.4 22.7-65.2 2.4-3.9 7.4-1.5 7.6 2.5z"  fill="#005bbb" /><path d=""  fill="#fff500" /><path d="M-294.6-244.8c22.6 77.9 61.7 230.4 16.6 301.8-4.1 6.5-10.2 18-17.1 21.8-7.6 4.2-13.6-8-5.6-11.4 9.3-4 12.4 12.6 2.3 12.3-16.9-0.5 13-32.5 15.9-37.3 14.9-24.8 19.9-53.1 18.6-81.7-2.9-64.7-16.7-133-33.9-195.3-0.7-2.4-0.7-19.7 3.2-10.2z"  fill="#fff500" /><path d="M-286.6-191.7c18.3 76.4 47.2 182.7-4.2 251.4-4.1 5.5-14.3 22.2-22.4 20.5-7.5-1.6-6.4-13 1.3-13.1 9-0.1 8.3 14.1-0.6 13.2-17.6-1.8 13-29.2 16-33.3 15.8-21.2 24.3-46.2 25.8-72.5 3-52.1-9.6-108.8-20.8-159.5-0.8-3.7 2-14.8 4.9-6.7z"  fill="#c2e1ff" /><path d="M-277 29.3c-4.1 9.5-30.1 58.2-43.4 50-7.7-4.8 0.5-16.5 7.6-11 7.2 5.6-2.2 16.4-8.8 10.1-7.9-7.7 10.9-19.8 15.2-24.7 6.1-7 14.7-28.4 22.5-31.7 4.9-2 8.4 3 6.9 7.3z"  fill="#005bbb" /><path d="M-265.5-398.7c3.3 95.2 10.2 203.9 34.4 296 2.8 10.8 28.1 76.3 26.9 79.9-1.4 4.2-7.7 0.5-4.7-2.8 3.5-3.8 7.4 4.4 2.2 4.7-9.2 0.6-31-82.8-33.6-93.4-21.8-89.2-29.2-187.1-32.5-278.7-0.2-5.1 5.9-15.1 7.3-5.7z"  fill="#005bbb" /><path d="M-262.5-374.1c2.9 90.1 12.6 220.4 43.1 304.3 23.2 63.9 45.3 143.1 30 146.3-6.5 1.3-6.3-9.6 0.1-8.1 7.5 1.8-0.2 12.8-4.4 6.3-2.8-4.3-2.6-63.1-9.6-85.8-9.7-31.2-24-60.8-32.9-92.2-22.3-79.2-28.8-169.4-33-251.5-1.6-32.2 5.3-28.3 6.7-19.3z"  fill="#fff500" /><path d=""  fill="#fff500" /><path d="M-247.4-60.6c6.1 34.6 12.2 113-19.2 138.3-7.2 5.8-14-7.9-5.1-10.1 9-2.2 9.4 13.1 0.4 11.3-10.3-2 16.1-47.1 19.2-63.6 5-26.1-3.8-50.2-1.9-75.5 0.3-4.1 5.6-3.8 6.6-0.4z"  fill="#fff500" /><path d="M-239.8-91.7c9.2 39.7 39.8 131.1 13.7 167.7-4.5 6.3-13.2-3.2-6.5-7.1 6.8-3.9 10.6 8.5 2.9 9.2-10.4 0.9-1.6-18.2-0.7-22 3.8-16.1 5.4-32.6 4.7-49.1-1.6-33.5-13.1-64.8-20.2-97.3-0.9-4 4.7-5.1 6.1-1.4z"  fill="#c2e1ff" /><path d="M-232.3-398.5c-4.3 90.4-11.6 213.8 22.3 298.6 15.6 38.8 46.6 69.5 61.2 108.5 2.1 5.5-8.3 3.6-4.5-0.8 3.3-3.8 7.3 3.9 2.3 4.4-4 0.4-19.1-35.1-22.3-40.2-15.7-25-33-48.7-44-76.2-32.2-80.4-27.5-196.5-23.7-282.4 0.2-5.1 7.5-28.4 8.7-11.9z"  fill="#fff500" /><path d="M-223.7-398.4c-5.6 87.3-14.7 188.1 10.7 273 9.4 31.3 34.8 57.3 41.2 76.5 0.2 0.6-1 2.2-1.6 2.3-5.2 0.3-18.3-23.7-21.1-28.1-54.6-83.7-43.6-219.1-37.9-315.3 0.3-4.8 8-20.7 8.7-8.4z"  fill="#005bbb" /><path d="M-217.1-398.1c-6.3 86.8-20.5 210.6 15.7 291.4 18.5 41.4 57.1 69.5 74.7 111.1 1.9 4.5-6.8 4.7-5 0 2.1-5.4 8.5 3 2.8 3.6-2.6 0.3-23.5-38.8-27.5-43.9-18.2-23.3-38.1-44.8-50.8-71.8-38.3-81.5-24.9-191.5-19-278.7 0.3-3.7-1.5-15.8 4.7-16.1 2.7-0.1 4.2 2 4.4 4.4z"  fill="#fff" /><path d="M-209.5-75c12.2 27.5 28.7 52.9 39.3 81.1 3.2 8.5 21.2 67.5 8.9 70.9-6 1.6-6.5-8.7-0.4-7.7 6.2 1 2.3 10.6-2.9 7.1-6.1-4.2-5.3-49.3-7.9-58.9-5.8-21.3-42.4-76.8-41.6-91.6 0.1-2.7 3.5-2.9 4.6-0.9z"  fill="#005bbb" /><path d="M-199.7-309.6c-5.6 65-16.7 143.3 21.2 201 26 39.6 76.3 61 88.7 109.5 2.3 8.8 5.6 80.9-8.5 77.1-5.2-1.4-4-9.2 1.3-9 5.3 0.2 5.8 8.2 0.6 9.1-10.6 1.9-1.8-22.7-1-26.9 3.7-21.5 5-43.9-3-64.6-21.7-56.7-85.7-73-104.4-142.5-5.2-19.5-12.8-146.9-2-157.1 3-2.8 6.9-0.2 7.1 3.4z"  fill="#005bbb" /><path d="M-193.9-33c5.5 11.4 44.2 104.8 24.1 110-6.1 1.6-6.5-8.9-0.3-7.7 6.2 1.1 2.2 10.8-3 7.1-5.2-3.7-2.3-31.9-3.2-38.9-3.3-24.8-17.5-45.5-22.2-69-0.6-2.9 3.2-3.7 4.6-1.5z"  fill="#005bbb" /><path d=""  fill="#005bbb" /><path d="M-179.4-398c-10.2 77.2-37.4 198.8 0.6 269.8 22.4 41.9 71.6 59.2 93.5 100.8 1.7 3.2 10.8 17.6 3.9 19.1-4.1 0.9-5.1-5.6-1-6 4.8-0.5 3.9 7.5-0.6 5.9-4.3-1.5-8.4-20.9-11.2-25.7-40.3-69.8-102.1-54-109.8-167.2-2.6-37.1 3.8-167 16.2-198.8 1.9-4.9 8.4-2.6 8.4 2.1z"  fill="#005bbb" /><path d="M-168.9-216.2c1.1 106.8 83 93.5 116.5 164.9 13.9 29.6 6.9 62.1-3.8 91.4-2.4 6.7-10.6 39.1-18.9 38.3-5.9-0.5-6.1-9.4-0.2-10.1 5.9-0.8 7.9 7.9 2.4 9.9-13.2 4.7-1-20.9 0-23.6 12.1-30.8 27.2-64.7 17.6-98.3-14.6-51.3-76-64.8-102.8-107.7-10.2-16.3-22.4-45.6-18.3-65.4 0.9-4.5 6.8-3.5 7.5 0.6z"  fill="#fff" /><path d="M-161.5 42.6c0.8 5.1 6.7 35.2-2 34.6-5.3-0.3-4.4-8.7 0.9-7.8 5.3 0.9 3.4 9.1-1.7 7.7-4.8-1.4-5.4-31.1-3.9-35.3 1.4-3.6 5.9-2.4 6.7 0.8z"  fill="#fff500" /><path d=""  fill="#fff" /><path d="M-145-324.3c-7.8 46.7-21.1 101.1-4.7 147.3 32.2 90.4 155.8 73.4 102 208.9-3.3 8.2-13.5 44.5-22.2 46.4-9.4 2-6.6-14.5 1.6-9.5 8.2 5-5.2 15.1-7.7 5.8-2.5-9.4 37-82.8 32.7-116.2-8.6-68.2-97-81.4-115.9-146.6-12.5-43.1-3.2-94.4 5.5-137.5 1.1-5.8 9-4.2 8.7 1.4z"  fill="#c2e1ff" /><path d="M-137-383.9c-14.8 60.6-40.9 168-9.6 224.9 33.3 60.5 122.1 71.6 107.1 157-1.1 6-3 26-10 27.8-7.7 2.1-8.3-11.2-0.4-9.8 9.2 1.6 0.7 15.5-4.9 8-4-5.4 13.9-44.8 6.6-72.7-17-64.8-101.8-72.1-117.2-146.6-5.3-25.6 6-176.2 20.3-192.8 3.4-3.9 8.6-0.3 8.1 4.2z"  fill="#005bbb" /><path d=""  fill="#c2e1ff" /><path d="M-121.9-259.8c-9.9 145.6 170.2 125.5 85.2 290.7-4.3 8.3-18.1 46.2-27 47.6-11.5 1.9-3.7-17.8 3.4-8.5 6 7.9-10.6 12.5-9.6 2.7 3.9-35.8 52.5-73.6 48.6-131.2-4.1-62.2-71.3-82-96.5-132.3-9.1-18.1-18.1-50-12.1-70.4 1.4-4.8 7.6-3.1 8 1.4z"  fill="#c2e1ff" /><path d="M-113.5-374.6c-16.1 51.1-31.7 119.9-19.2 173.1 20.5 86.7 142.5 90 104.4 203.5-2.4 7.1-9.5 34.5-17.9 35.7-10 1.4-5.9-15.6 2.4-9.8 8.2 5.8-6.5 15.4-8.5 5.5-1.5-7.4 27.5-59.9 22.2-92.1-11.5-68.5-98.8-84-111.5-154.7-9-50.5 2.9-115.6 18.7-164 2-6.1 10.4-3.3 9.4 2.8z"  fill="#fff" /><path d="M-105.9-324.2c-7.7 38.3-15 82.6-1.9 120.5 13.1 37.8 47.7 57.5 72.5 86.5 37.3 43.6 28.3 94.6 3.7 142-4.7 9.1-21.5 52.4-31.1 53.8-9.9 1.5-6-15.4 2.2-9.7 9.7 6.7-9.7 15.5-8.4 3.8 4.2-36 54.6-75.2 52.1-133.5-3-67.8-80.6-90.4-99.5-150.8-11.2-35.6-6.4-78.3 1.5-114.2 1.3-5.9 9.3-4 8.9 1.6z"  fill="#c2e1ff" /><path d="M-102.1-84.6c44.3 32.4 55 74.6 39.1 126.2-2.5 8-6.3 31-13.2 35.7-5.6 3.8-11.1-5.4-5.1-8.5 7-3.7 10.5 9 2.6 9.4-11.1 0.6-0.4-19.8 0.9-23.7 8.2-23.5 17.1-48.2 14.8-73.6-1.7-18.9-10.3-35.9-23.4-49.5-2.3-2.4-17.3-17-15.7-16z"  fill="#fff" /><path d="M-90.2-396.2c-28.2 58.6-52.9 162.5-13.7 220.7 26.8 39.8 77.3 58.7 88.5 109.3 3 13.6-2.6 81.6-17.4 83.9-8.4 1.3-7.6-12.8 0.6-10.5 9.6 2.7-1 16.5-6.1 8-3.5-5.9 6.9-20.8 9.1-26.7 6.4-17.3 9.9-35.8 7.2-54.2-10.7-71-98.6-86.5-107.2-165.6-5.4-49.7 5.6-108 23.2-154.5 9.8-26 18-17.3 15.8-10.4z"  fill="#fff" /><path d="M-83.2 19c0.4 8.5-0.7 58.8-11.3 59.3-6.3 0.3-6.3-9.6 0-9.3 6.3 0.4 5.2 10.2-1 9.2-8.2-1.4 9.5-83.5 12.3-59.2z"  fill="#c2e1ff" /><path d=""  fill="#005bbb" /><path d="M-74.3-395.6c-32.8 55.7-53.6 154.9-15.7 212.4 25.1 38.2 70 59.6 81.5 106.7 3.3 13.6-0.1 81.1-15.5 83.6-8.4 1.4-7.6-12.8 0.6-10.4 9.6 2.7-0.9 16.5-6 7.9-2.9-4.9 17.3-54.7 15.3-73.9-7.4-72.5-94.3-94.1-101.6-173.2-4-42.9 4.1-91.2 19.2-131.4 15.9-42.4 24.3-26.8 22.2-21.7z"  fill="#005bbb" /><path d="M-58.7-382.1c-26.3 41.4-36.9 101.3-27 149.3 19.3 93.4 132.5 109.2 74.3 230.4-3.6 7.6-15.5 38.5-24.7 39-10.6 0.6-4.7-16.9 3.3-10.1 8.1 6.9-8.2 15.5-9.3 5-0.4-3.4 37.7-70.2 38.5-98.3 2.4-76-84.1-111.3-92-185.7-3.9-36.8 2-77.1 15.6-111.4 11-28.1 27.7-32.8 21.3-18.2z"  fill="#005bbb" /><path d="M-51.7-1.6c-0.5 10.1-16.1 84.8-27.9 79.9-5.4-2.2-2.9-10.6 2.8-9.6 6.7 1.2 4.3 11.7-2.2 9.8-9.6-2.8 5.5-30.9 7.5-36.8 4.4-12.6 5.2-35.5 12.2-46 2.6-3.9 7.6-1.3 7.6 2.7z"  fill="#005bbb" /><path d="M-47-161c63.6 69.4 61.3 117.6 14.1 196.5-4.6 7.7-18.7 42.3-27.3 43.5-7.3 1-8.2-10.6-0.9-10.8 7.4-0.2 7 11.4-0.3 10.8-12.6-1 4.4-24.9 6.7-28.9 19.2-34 45-67.6 49.5-107.6 3.2-28-6.3-54.5-22.9-76.8-2.1-2.8-27-33.6-18.9-26.7z"  fill="#c2e1ff" /><path d=""  fill="#005bbb" /><path d="M-29.6-62.8c12.4 35.5-19.5 131.5-35.6 140.6-7.3 4.1-11.3-9.2-3-9.9 8.3-0.6 6.4 13.1-1.5 10.2-9.3-3.5 25.7-69 29.3-79.1 5.2-14.8 5.1-75.7 10.8-61.8z"  fill="#fff" /><path d="M-19.8-349.5c-56.9 99.6 28.2 150.6 45.3 236.8 13.1 66.3-30.5 116.3-64.2 168-2.7 4.1-11.2 24.3-18.3 15.2-3.5-4.4 1.2-10.7 6.4-8.8 6.1 2.3 3.7 11.8-2.8 10.9-13.5-2 8-28.4 10.9-32.8 24.1-36.3 54.7-71.6 61.3-116.1 11-74.2-56.3-124.4-63.2-194.9-2.3-23.8-1.3-65.1 15.6-84.4 4.4-5.1 11.2 0.5 9 6.1z"  fill="#c2e1ff" /><path d="M-13.6-259.6c7 49.6 41.6 89.6 49.5 139 11.7 73.5-38.8 124.4-75.8 180.9-2.8 4.3-11.5 25.5-18.9 16.5-3.5-4.3 1-10.7 6.3-8.8 6.1 2.2 3.8 11.6-2.7 10.8-13.7-1.8 8.4-29.4 11.5-33.9 27.4-40.9 64.3-78.7 72.1-129.2 8.8-57.1-25.8-100.6-42.8-152-7.1-21.6-2-32.5 0.8-23.3z"  fill="#fff500" /><path d="M-6.9-116c31.2 59.3-3.1 114.7-33.6 165.4-3.5 5.8-13 31-20.9 29.5-9.9-2-0.4-16.7 5.5-8.5 5 7-8.2 12.6-9.8 4.1-1.9-10.1 48.2-85.2 55.2-103.2 6.6-17.2 10.1-35.7 8-54.2-1.3-11.1-10.3-42.6-4.4-33.1z"  fill="#c2e1ff" /><path d="M1.8-252.7c8.8 49.1 40.4 90.9 42.4 141.8 2.7 71.7-48.8 119-85.1 174.6-2.7 4.1-10.2 22.2-17.2 13.5-3.5-4.3 1.1-10.7 6.4-8.8 6.1 2.2 3.8 11.7-2.7 10.8-12.4-1.7 3.4-21.3 5.9-25.3 28.5-44.4 70.3-82.7 81.8-136 13-60.7-22.3-107.7-36.4-163.8-1.1-4.4 2.2-14.7 4.9-6.8z"  fill="#c2e1ff" /><path d="M9.9-263.5c5 50.8 36.5 94.6 38.8 146.1 3.1 73.4-48 121.3-86.3 177.4-3 4.4-12.2 26-19.6 16.7-3.5-4.4 1.2-10.7 6.4-8.7 6.1 2.3 3.7 11.8-2.7 10.8-12.5-1.8 4.1-22.1 6.5-25.9 29.6-45.1 72.5-83.6 84.5-138.1 13.9-62.9-23.3-112.4-33.6-171.9-0.9-4.9 3.8-14.9 6-6.4z"  fill="#c2e1ff" /><path d="M-13.5-394c-48.4 45.4-62.9 124.8-32.6 184.2 20.2 39.6 55 70.1 62 116 1.7 11-0.2 83.5-19.1 80-6.2-1.1-5.5-10.5 0.8-10.8 7.4-0.3 7.2 11.4-0.2 10.8-11.6-0.9 1.9-21.3 3.4-25.5 6.6-17.3 9.8-35.8 8.1-54.3-7.4-76.1-81.9-108.4-78-197.6 1.4-32.4 10.4-64.9 29.1-91.6 18.5-26.3 36.8-24.5 26.5-11.2z"  fill="#fff" /><path d="M25.8-96.2c5.1 57.5-32.6 102.5-62.3 147.6-4.2 6.4-11.1 24.2-17.7 27.2-8 3.6-11-10.6-2.3-10.6 8.8 0.1 5.6 14.3-2.4 10.5-11.2-5.3 50.1-88.8 56.6-100.2 18.2-32.3 15.5-64.1 21-75.9 1.8-3.7 6.5-2.1 7.1 1.4z"  fill="#c2e1ff" /><path d="M34.8-357.4c-69.5 88 22.1 171.6 12.1 264.6-5.2 48.6-34.5 86.4-63.4 123.8-4.5 5.9-22.1 37.6-30.4 31.5-5.4-4.1-0.3-12.8 5.9-10.1 6.2 2.8 3 12.4-3.6 11.1-13.6-2.9 9.5-28 12.7-32.3 25.6-34.4 55.7-67.2 67-109.7 19.9-75.6-37.1-135.3-35.9-208.7 0.4-23.6 7.4-62.1 26.8-78.4 5.7-4.8 12 2.5 8.8 8.2z"  fill="#fff500" /><path d="M40.6-157.8c22.7 78.2-17 136.1-62.4 195.7-5.6 7.3-22.2 40.3-30.7 41-7.6 0.6-7.9-11.5-0.2-11.3 8.9 0.3 5.3 14.7-2.7 10.7-9.8-4.9 8.2-25.4 11.6-30.5 22.5-33.1 51.4-62.3 68.7-98.7 9.9-20.8 15.3-43.5 15.1-66.5-0.1-11.5-7.7-29.9-5.3-40.3 0.8-3.2 4.8-2.8 5.9-0.1z"  fill="#fff" /><path d="M48.5-228.7c29.1 127.9 18.9 163.5-64.4 264.5-5.6 6.8-28.2 45.2-36.1 43.1-10.2-2.8 0.9-17.5 6.4-8.4 4.7 7.7-9.5 12.5-10.5 3.5-0.8-7.3 90.1-119 101.1-146.2 21.4-53.3 9.1-101.6-2.6-155.1-0.9-4 4.7-5.1 6.1-1.4z"  fill="#005bbb" /><path d="M56.7-151.4c11.8 76.1-28.9 130.9-73.9 186.8-7.6 9.5-21.5 38.9-32 43.2-8.3 3.4-10.9-11.3-1.9-10.9 9 0.4 5.1 14.8-2.9 10.7-11.3-5.9 74.7-110.6 82.7-124.8 11.3-20.1 18.7-42.1 21.3-65.1 1.5-13.2-1.7-27.1-0.2-39.9 0.5-4.2 5.9-3.7 6.9 0z"  fill="#fff500" /><path d="M65.2 36.7c-10.1 7.4-52.4 46-63.4 43.2-10.3-2.6-2.3-18.4 5.9-11.7 8.3 6.7-5.6 17.7-10.3 8.2-4.9-10.1 52-50.8 62.6-52.4 7.7-1.1 10.1 8.1 5.2 12.7z"  fill="#c2e1ff" /><path d="M73.2 1.2c-33.5 29.4-95 78.8-98.6 78.3-9.9-1.2-4.5-16.8 4.1-11.6 8.5 5.2-3 17.1-8.5 8.8-8.1-12.2 82.7-84.1 97.1-87.3 7.3-1.6 10.3 7 5.9 11.8z"  fill="#fff" /><path d="M80.1-206.4c15.4 110.7-27.7 167.1-95.9 246.3-5.5 6.4-26.4 41.6-34.3 39.3-7.5-2.2-3.4-13.8 3.8-10.8 7.2 3 1.9 14.1-4.9 10.3-10.1-5.5 11.4-28.6 15.2-33.5 29.1-38.1 66.7-69.6 88.4-113 16.8-33.6 24.3-71.5 23.1-109-0.3-9.4-3.4-20.4-2.3-29.6 0.5-4.2 6-3.7 6.9 0z"  fill="#fff" /><path d="M89.2-42.1c-7.8 10-122.8 121-124.4 121.5-9.1 2.7-10.2-13.1-0.8-11.7 11 1.6 1.3 18.4-5.6 9.6-8-10.2 31.6-43.4 38.8-49.9 9.6-8.7 82.2-77.9 84.8-79 6.2-2.7 10.3 4.5 7.2 9.5z"  fill="#005bbb" /><path d=""  fill="#fff" /><path d="M104.8 71.7c-17.7 23.1-14.8-13.7-4.4-2.5 9.1 9.8-14.7 14.8-10.3 2.1 4.1-11.8 21-10.1 14.7 0.4z"  fill="#fff" /><path d="M112.4-322.9c-14 51-1.2 105-8.6 157-11.9 83.5-54.1 139.6-110 199.4-6.4 6.8-34.1 47.7-41.6 45.4-10.3-3.2 1.5-17.8 6.8-8.4 4.5 8-10.1 12.5-10.8 3.3-1.2-14.7 29.6-41.9 39-52 31.2-33.7 63.7-64.7 83.2-107.1 43.5-94.5 15.2-144.2 31-230.9 1.2-6.7 12.5-19.4 11-6.7z"  fill="#fff500" /><path d="M120.5-88.9c-34.2 54-76.6 90.7-122.9 133.6-6.1 5.7-31.1 39.3-38.4 33.3-7.4-6.1 5.1-15.8 9.2-7.2 4.1 8.6-11.3 12.2-11.4 2.7-0.2-15.3 63.9-66.7 77.5-78.5 40-34.5 56.1-71.2 77.1-91.2 5.1-4.9 11.6 1.6 8.9 7.3z"  fill="#005bbb" /><path d="M128.3-383.1c-53.5 87.8-24.8 130-33.3 221.7-6.3 68.1-36.4 123.8-82.5 173-5.1 5.5-20.7 28.6-29 24.5-6.6-3.3-2.8-13.6 4.4-11.9 8.4 2.1 4.3 15.1-3.7 12.1-13.9-5.2 14.8-29 18.9-33.4 28.4-30.2 53.5-61.3 68.1-100.7 31.3-84.8-0.3-147.3 17.3-223.2 4.9-21.1 15.1-53.2 30.8-69 4.9-5 11.5 1.3 9 6.9z"  fill="#fff500" /><path d="M136.1-393.1c-16.2 27.2-32.6 54.5-38.7 86-8.1 42.1 2.1 85 0.4 127.5-2.8 68.1-28.9 129.9-74.6 180.1-5.3 5.8-23 31.3-31.5 26.9-6.6-3.4-2.6-13.8 4.6-11.9 8.4 2.3 4.1 15.3-4 12.2-13.8-5.4 15-28.8 19.2-33.3 26.7-28.6 48.9-59.4 62.1-96.6 29.7-83.4-0.6-149.3 18.5-223.4 5.9-22.9 18-57.2 35-74.4 4.9-5 11.4 1.3 9 6.9z"  fill="#fff" /><path d="M143.8-123.7c-73.1 105.4-58.8 85.4-149.7 171.9-5.8 5.6-27.1 35.8-34.6 29.6-7.4-6.1 5.1-15.8 9.2-7.2 4.1 8.6-11.3 12.2-11.4 2.7-0.2-16.7 75.8-76.2 91-90.3 36.7-33.9 66.8-96.6 86.7-114.4 5.4-4.8 11.8 2 8.8 7.7z"  fill="#c2e1ff" /><path d="M151.6-92.3c-56.1 72-71.7 86-142.5 142.4-6.5 5.2-31.5 34.8-38.7 28-7.2-6.9 6.5-16 10.2-6.8 3.6 9.2-12.6 11.8-12.1 2 0.9-15.5 71-63 85.8-74.6 39-30.8 68.2-83 88.6-99.5 5.8-4.7 12 2.8 8.7 8.5z"  fill="#005bbb" /><path d="M137.1-395.7c-15.1 25.2-31 50.4-38.3 79.2-23.5 91.4 34.9 202.3-66.7 306.9-8.3 8.6-16.5-9.3-5.4-10.4 10-1 8 15.5-1.5 12.2-13.2-4.6 12.4-28.2 16-33.1 17.6-24.1 30.1-51.4 38.1-80.1 18.8-68.1-5.3-137.4 12-204.4 6.2-23.9 19.1-59.4 36.9-77.3 4.9-5 11.5 1.3 8.9 7z"  fill="#fff" /><path d="M167.2-90.2c-21.2 26-39.4 54.4-62.4 79-11.3 12.1-112.4 98.5-120.8 89.1-6.9-7.7 8-16.1 11.1-6.2 3 9.9-14.1 11.3-12.7 1 1.8-13.4 72-57.5 86.1-68.6 37-29.3 67.5-85.5 90.1-103 6-4.6 12.1 3 8.6 8.7z"  fill="#fff500" /><path d=""  fill="#fff" /><path d="M142.9-395.7c-15.4 27.7-31.1 55.5-37.1 87-10.4 54.4 3.3 110-7.6 164.9-2.6 13.2-25 104.3-42.9 98.9-8.8-2.6-1.4-16 5.5-9.9 6.9 6.1-5.4 15.1-9.2 6.7-2.9-6.5 9.3-20.1 12.3-25.8 9.6-18.7 16.9-38.6 22.2-58.8 17.2-65.5-2.3-133.3 15.2-197.9 6-21.9 16.9-54.7 32.6-71.6 4.6-5 11.3 0.9 9 6.5z"  fill="#005bbb" /><path d="M190.6-212.7c-35.6 54.3-86.3 147.1-126.1 191.1-22.8 25.1-50 45.5-73.9 69.4-5.7 5.7-26.3 36.3-33.9 30.4-7.4-5.9 4.7-15.7 9-7.3 4.2 8.4-10.9 12.3-11.2 2.9-0.6-17.2 92.9-94.7 109.4-113.9 45.5-52.6 76.4-119.7 115.6-177.2 4.7-6.9 15.4-3.9 11.1 4.6z"  fill="#c2e1ff" /><path d=""  fill="#fff" /><path d="M206.1-104.8c-49.9 55.2-78.4 122.4-136.8 170.9-4.8 4-13 14-19.5 14.4-10.8 0.5-7.8-17.2 2.3-13.1 10 4.1-0.1 18.9-7.6 10.9-8.5-9.1 41.5-44.5 48.9-51.8 41-40.7 64.5-94.2 101.6-137.9 5.9-6.9 16.6-1.7 11.1 6.6z"  fill="#c2e1ff" /><path d="M212.9-353.1c0.4 34.2 3.4 67.9-8.8 100.7-17.3 46.7-122.8 214.2-158.6 248.8-7.5 7.2-44.3 48.2-53.7 42.6-10.5-6.3 6.4-19.3 9.8-7.4 2.8 10.1-14.5 11.1-12.9 0.7 1.4-8.6 54.4-51.5 64.2-61.8 27-28.6 46-62.4 65-96.5 27.7-49.4 72.2-98.9 84.5-155 5.3-23.9-2.3-49.8 2.9-72.8 1-4.6 7-3.4 7.6 0.7z"  fill="#005bbb" /><path d=""  fill="#fff" /><path d="M228.8-30.8c-2.6 29.9 3.9 59.4 14.8 87.1 1.4 3.5 8.6 14.8 6.7 18.2-2 3.3-6.7-1.1-3.5-3.3 3.2-2.2 5.6 3.8 1.8 4.4-15.4 2.5-31.6-95.2-27.9-107.8 1.4-4.8 7.7-3 8.1 1.4z"  fill="#fff500" /><path d=""  fill="#c2e1ff" /><path d="M242.7 47c1.5 4 13.7 26.8 9.6 28.6-3 1.2-4.7-3.6-1.6-4.5 3.1-0.9 4.3 4.1 1.1 4.6-7.4 1.3-18.4-45.9-9.1-28.7z"  fill="#fff500" /><path d="M251.4-25.6c3.9 29.9 18.4 56.8 34.9 81.6 2 3 12.9 14.8 11.6 18.2-1 2.7-5.1 0.1-3-2 2.1-2 4.6 2 1.9 3-12.9 4.6-53-87.5-52.1-100.4 0.3-4.1 5.6-3.8 6.7-0.4z"  fill="#fff500" /><path d=""  fill="#005bbb" /><path d="M268.3-262.5c-13.2 51.9-67.8 82.8-101.1 121.1-35.6 41-60 90.4-98.8 128.8-21.7 21.4-46.7 39-69.3 59.4-6.2 5.6-30.3 37.4-37.6 31.3-7.3-6.2 5.4-15.9 9.4-7.2 4 8.7-11.5 12.1-11.6 2.6 0-15.6 108.5-102.2 126.5-124.1 27.2-33.2 47.8-71.1 75.9-103.6 24.9-28.8 57-51.1 80.4-81 7-9 10.6-24.9 18.1-32.3 3.9-3.8 8.9 0.4 8.1 5z"  fill="#fff500" /><path d="M275.3-398.9c2.1 49.7 35.7 95.5 23.8 145.9-15.4 65.7-92.7 98.3-133.9 146.5-9.4 11-60.3 90.5-72.9 84.1-9-4.6 1.7-17.6 8-9.6 7.3 9.4-12.5 15.2-11.4 3.3 1-11.1 25.1-31.2 32.1-40.5 19.2-25.5 37.8-51.3 60.7-73.7 31.3-30.4 73.8-52.6 97.6-90 30.8-48.6 1.6-96.5-8.5-146.2-4-19.9 2.3-30.5 4.5-19.8z"  fill="#005bbb" /><path d=""  fill="#fff" /><path d="M286.1-398.6c2.7 47.7 34.9 89 32 137.5-4.2 70.5-74.9 107.6-118.1 153.9-7.5 8-41.6 60.7-50.1 57.8-10.4-3.6 2.1-18.1 7.2-8.3 5.1 9.8-13.9 11.7-10.9 1.1 14.3-50.1 126-119.4 153.1-172.3 26.8-52.2-5.2-99-17.1-149.8-4.4-18.8 1.3-31.3 3.9-19.9z"  fill="#005bbb" /><path d="M268.2-398.6c1.4 43 25.9 82.6 22.5 125.9-4.6 59.4-61 89.6-100.3 125.9-7.2 6.7-37.9 47.6-45.9 44.3-10.5-4.3 3.2-18.5 7.9-8.1 4 8.8-11.7 12.1-11.7 2.4 0.3-28.4 114.4-102.1 132.9-138.7 22.8-45-3.3-90.2-10.9-135.3-0.8-5-2.8-11.7-1.9-16.7 0.8-4.5 6.6-3.6 7.4 0.3z"  fill="#fff500" /><path d="M304-13.1c10.1 14 76.4 77.3 75.6 86.9-0.3 3.2-5.3 1.6-3.8-1.1 1.6-2.8 5.5 0.8 3 2.6-2.4 1.8-21.9-27-25-30.6-16.3-18.7-35.4-34.7-51.1-53.9-1.6-1.9-1.6-6.8 1.3-3.9z"  fill="#005bbb" /><path d="M314.4-399c3.6 50 40.3 90 47.1 139.5 7.3 53.5-26.7 111 1.3 161.4 19.3 34.8 57.2 54.2 77.8 88.3 1.5 2.5 11.8 16.4 6.5 18.4-3.8 1.4-4.7-5.2-0.7-4.9 4 0.3 2.1 6.7-1.4 4.7-5.7-3.2-11.3-22-15.4-28-25.4-37.5-71.5-59-83-105.5-11.5-46.8 13.7-93.4 7.1-140.8-5.4-38.5-28.3-70.3-40.3-106.6-7.1-21.8-1.8-38 1-26.5z"  fill="#c2e1ff" /><path d="M322.5-132.4c-4 22.7-0.9 45.9 11.6 65.5 29.2 45.7 79.2 60.1 102.4 115 1.8 4.3 12.5 24.9 8 27.9-3.7 2.5-6.4-4.4-2-5.1 5.2-0.8 3.2 8.1-1.1 5.1-8.5-5.8-14.3-37.6-19.7-47.8-23.7-44-75.4-61.8-98.4-105.3-7.7-14.7-15.6-41-9.2-57.5 1.9-5 8.4-2.6 8.4 2.2z"  fill="#c2e1ff" /><path d="M330.7-220.4c-20.1 65.7-84.5 113.2-77 187.5 3.3 32.5 19.5 61.3 38 87.6 1.4 2 16.9 21.1 11.4 20.7-8.6-0.6 8.8-3.2 0.7-0.1-4.3 1.6-23.4-30.4-26.2-34.7-23.7-36-38.5-77.1-29.3-120.4 9.2-43.1 37.9-77.1 59.2-114.6 5.4-9.5 8.5-21.3 14.3-30.3 3.3-5.1 10-0.9 8.9 4.3z"  fill="#fff500" /><path d="M337.5-267.2c8 84.6-83.8 140.3-73.2 225.2 4.7 37.4 28 67.4 51.1 95.7 1.6 2 18.9 21.8 13.6 21.6-2.3-0.1-1.9-3.7 0.4-3.4 2.3 0.4 1.5 3.9-0.7 3.3-8.2-2.2-22.6-27.8-28.2-34.7-100.4-125.7-12.3-157.5 23.4-266.1 4.2-12.7 1.3-31.9 6.5-43 1.7-3.7 6.5-2.1 7.1 1.4z"  fill="#fff500" /><path d=""  fill="#c2e1ff" /><path d="M353.8-177.3c-4.8 25.6-6.6 52 5.1 76.1 28.7 58.9 79.3 61.5 101.6 144.4 1.3 4.8 10.8 29.9 5.9 32.7-4.9 2.8-6.3-6.9-0.8-5.6 4.7 1.1 1.2 8.4-2.6 5.3-3.7-3-14.6-53.5-18.2-62.8-19.9-51.8-76-74.3-95.9-124.4-7.3-18.3-11.9-49.4-3.7-68.2 2.2-5 8.7-2.3 8.6 2.5z"  fill="#005bbb" /><path d="M357.7-13.7c14.3 11.5 81 79.6 69 88.9-3.3 2.5-6.2-3.6-2.2-4.6 4.7-1.1 3.4 7.2-0.7 4.8-8.4-4.9-16.6-34.6-23-43.7-11.6-16.6-26.7-29.9-42.4-42.5-0.4-0.3-3.3-4.5-0.7-2.9z"  fill="#c2e1ff" /><path d="M369.1-398.7c4 46 38.4 83.2 52.5 126.2 13.2 40.2 8.3 82.7 17.7 123.5 11.2 48.7 39 91 46.6 140.9 0.8 5.5 7.1 30.9 1.1 33.2-6.3 2.4-6-9.3 0.1-6.7 5.3 2.2-0.2 10-4.1 5.7-1-1.1-14-78.9-20.8-96.4-11.6-29.6-26.1-57.9-32.1-89.3-7-36.4-3.7-74-14.2-109.8-12.2-41.3-42-75.4-51.9-117.3-1.2-5 2.4-19.9 5.1-10z"  fill="#fff" /><path d="M332.5-399c3.7 47.4 38.7 85.4 51.2 130.4 12.1 43.6 0.3 90.5 15.6 133.2 5.7 15.8 14.7 29.9 24.4 43.6 1.1 1.6 12 12.9 7.2 14.1-2 0.5-3.1-2.4-1.3-3.4 2.2-1.1 3.7 2.5 1.5 3.4-3.3 1.2-7.3-7.8-8.7-9.8-48.5-66.9-29.6-97.9-42.8-170.4-7.4-40.7-32.1-73.4-46.4-111.4-3.1-8.2-8.7-20.7-7.7-29.6 0.5-4.3 6-3.8 7-0.1z"  fill="#c2e1ff" /><path d="M384.3-177.2c1 59 41.7 89.6 68.3 137.5 18.6 33.5 22 70.7 29.2 107.6 0.3 1.6 2.5 11.8-3.6 8.6-12.5-6.7 16-3.4 2.4 0.2-4.6 1.3-18.9-80.8-22.1-90.3-14.9-45.2-53.6-74.5-71.8-117.4-6.1-14.4-9.4-30.2-9.9-45.8-0.2-5 6.7-5 7.5-0.4z"  fill="#fff500" /><path d="M389-19.7c23.2 19 40.2 41.7 51.1 69.6 1.6 4 11.4 23.2 6.9 26.1-3.8 2.5-6.5-4.5-2-5.2 5.2-0.8 3.2 8.2-1.1 5.2-8.6-5.9-14-38.4-19.4-48.7-8.8-17-20.8-31.4-35.1-44-0.5-0.4-3.2-4.9-0.4-3z"  fill="#005bbb" /><path d="M398.6-368c11.4 31.5 31 59.3 41 91.5 12.9 41.6 6.4 85.1 13.7 127.5 5.7 33.3 20 64.2 28.8 96.7 9.3 34.2 9.9 69 13.3 104.1 0.4 4.2 6.2 24.1-0.1 24.8-4.4 0.5-4.9-6.5-0.4-6.5 3.8 0 4.5 5.6 0.7 6.4-7.4 1.7-7.9-29.4-8.3-34.1-3.4-37.1-4.8-73.3-15.6-109.3-8.9-29.2-20.9-57.4-26.1-87.7-8-46.8-0.6-94-18-139.2-9.6-24.9-24.2-47.4-34-72.2-1.3-3.3 3.4-4.9 5-2z"  fill="#fff500" /><path d="M406.4-285.9c18.6 44.7 12.3 92.3 24.2 138.1 7.1 27.3 21.2 51.7 32.7 77.2 19.3 42.8 21.5 86.3 28 132.1 0.5 3.2 4.8 14.1-1 14.9-4.4 0.6-4.9-6.4-0.5-6.5 3.8-0.1 4.5 5.5 0.8 6.4-4.3 1.1-18.1-104.7-21.6-116.6-11.6-39-35.6-73.1-45.9-112.5-10-38.2-5.7-78.5-16.8-116.5-0.3-1-5.1-26.3 0.1-16.6z"  fill="#fff500" /><path d="M415.3-210.3c5.8 82.1 31.3 99 56.2 169.1 12.6 35.6 13 73 19.3 109.9 0.5 3.1-2.5 12.7-5.5 5.7-4-9.3 13.6-0.6 3.8 1.9-5.9 1.5-15.9-89.2-18.5-99.6-11.4-47.7-44.1-86.3-55.7-133.6-3.8-15.3-9.5-37.9-6.8-53.7 0.8-4.4 6.5-3.5 7.2 0.3z"  fill="#c2e1ff" /><path d=""  fill="#c2e1ff" /><path d="M431.3-398.6c3.2 42.8 29.3 79.8 37.2 121.6 8.3 43.6-2.3 87.7 2.1 131.6 5.5 55.3 24.9 106.8 27.2 163 0.2 3.7 3.6 17.9-3.1 17.8-4.3 0-5-6.5-0.8-7.3 5-1.1 6.2 6.8 1.2 7.3-6.2 0.6-7.6-63.1-8.8-71.7-5.1-36.9-18.2-72.1-22.8-109-4.2-33.9 1-67.5 0.7-101.5-0.5-49.4-25.4-88.7-36.9-135.2-5.7-23.2 3.2-19.9 4-16.6z"  fill="#fff500" /><path d="M438.1-152.7c7.6 36.4 26.8 68.6 38.1 103.7 12.7 39.5 13 81.3 18.8 122 0.9 6.1-9.2 3.8-5.9-1.1 3.3-5.1 9.4 3.5 3.5 4.9-6.5 1.6-14.4-91.4-16.6-102-8.5-43.4-32.3-81.2-43.4-123.8-1.2-4.5 3.4-9.3 5.5-3.7z"  fill="#fff500" /><path d="M446.4-239.3c3.6 32 1 64.2 7.4 95.9 11.1 55.1 34.8 103.6 38.9 160.6 0.5 7.2 7.3 59.1 2.5 59.7-5.2 0.6-4.4-8 0.6-6.4 5 1.6 0.6 9.1-3.2 5.6-6.1-5.6-9.6-89.7-12.1-105-7.7-45.8-30.2-87.4-36.7-133.4-3.2-23.1-8-54.2-4.5-77.2 0.7-4.3 6.3-3.6 7.1 0.2z"  fill="#c2e1ff" /><path d="M452.6-44c14.2 25.1 34.6 89.1 31.3 117.8-0.6 5-8.5 2.3-5.9-2.1 3.1-5.1 9.3 3.2 3.5 4.8-6.7 1.8-13.2-55.5-14.6-62.8-0.7-3.8-22.1-69.1-14.3-57.7z"  fill="#fff" /><path d="M461.4 57.2c1 3.7 7 16.5 2.7 19.1-4.1 2.4-6.6-5.2-1.9-5.6 4.1-0.4 4.4 6.1 0.3 6-11.6-0.1-5.1-29.7-1.1-19.5z"  fill="#005bbb" /><path d="M470.2-231.9c-0.3 29.8-4 59.5-0.5 89.3 6.4 54.2 25.3 104.4 27.8 159.5 0.3 7.2 6.1 59.2 1.5 59.7-5.2 0.6-4.3-8.1 0.6-6.4 5 1.7 0.5 9.2-3.3 5.6-6.5-6.1-7.3-81.4-8.5-95.4-4.5-48.4-24-94-27-142.6-1.3-21.1-3.9-50.4 1.6-70.8 1.3-4.7 7.4-3.1 7.8 1.1z"  fill="#fff500" /><path d="M477.1-12.7c2.2 9.2 16.3 88.4 10.2 89.3-4.4 0.6-4.9-6.3-0.5-6.4 4.4-0.1 4.2 6.8-0.2 6.4-6.7-0.5-7.6-30.6-8.2-36-1.7-13.6-11-40.8-7.4-53.5 0.9-3.4 5.2-2.7 6.1 0.2z"  fill="#005bbb" /><path d=""  fill="#c2e1ff" /><path d="M493.1-18.4c1.2 9.9 9.2 94.5 4.7 95.1-4.5 0.5-4.9-6.6-0.5-6.6 4.5 0 4.2 7-0.3 6.6-6.8-0.7-6.6-29.5-7-35-1.5-18.4-6.4-42-3.9-60.2 0.6-4.3 6.2-3.6 7 0.1z"  fill="#c2e1ff" /><path d="M501.5-267.8c-1.5 41.2-14.5 81-14.4 122.5 0.2 45.1 13.6 88.9 15.6 133.8 0.4 9.4 4.9 87.7 1 88.2-5.3 0.6-4.3-8.2 0.8-6.5 5 1.7 0.5 9.2-3.4 5.6-7-6.6-5.6-79.1-6.2-93-1.9-44-14.6-86.8-15.5-130.8-0.8-40 10.6-78.4 13.7-117.9 0.5-5.8 7.9-9.1 8.4-1.9z"  fill="#fff" /><path d="M496.5-398.4c-3.2 41.5 11.6 82.1 10.1 123.8-2.2 59.3-22.1 113.2-13.7 173.3 1.5 10.9 17.9 106.5 7.2 106.1-6.1-0.2-3.5-10 1.9-7.3 5.4 2.8-1 10.6-4.8 5.8-6.7-8.5-2.4-42.7-3.8-54.3-13.2-114.8-10.4-96.3 3.5-208.2 5.4-43.5-6.5-83.9-8.4-126.9-0.2-4.1-1.1-9.6 0-13.6 1.4-4.8 7.6-3.1 8 1.3z"  fill="#005bbb" /><path d="M516.5 65.6c0.2 2.5 2.9 12.6-3.3 11.1-3.8-0.9-3.1-6.8 0.8-6.7 4.6 0.1 4.1 7.3-0.5 6.7-11.4-1.5 0.3-22 3-11.1z"  fill="#005bbb" /><path d="M524.6-79.1c0.4 20.4 0.9 141-1.4 153.1-1.2 6.2-10.5 0.3-5.4-3.4 5.2-3.7 7.8 7 1.5 6.1-13.2-1.8-2-137.1-2.3-153.3-0.1-5.5 6.6-9.3 7.6-2.5z"  fill="#c2e1ff" /><path d="M532.7 11.3c-0.8 9.6 1.2 60.2-1 64.1-3.2 5.6-10.1-3.2-3.9-5.1 5.2-1.6 5.9 7.5 0.5 6.8-9.1-1.3-6.2-59.6-3.7-67.4 1.6-4.8 7.9-2.9 8.1 1.6z"  fill="#c2e1ff" /><path d="M541.1-215.2c-30 79.5-20.9 160.5-23.4 243.9-0.2 7.7 5.3 43.1 0.5 47.3-4 3.6-8.5-4.1-3.3-5.7 5.1-1.6 5.9 7.3 0.6 6.6-11.4-1.5-4.9-72.4-4.4-82.2 2.6-55.1-6.8-111.5 5.7-165.7 11.9-51.5 28.2-60.4 24.3-44.2z"  fill="#005bbb" /><path d="M548.9-243.2c-42.9 117.6-27.3 144.9-32 262.4-0.4 8.9 5.6 52 0.3 56.8-4 3.6-8.5-4.1-3.3-5.8 5.1-1.6 5.9 7.3 0.6 6.6-11.6-1.5-4.9-74.8-4.5-84.8 2.6-62.6-8-124.4 10.6-185.6 18.5-61 32-64.9 28.3-49.6z"  fill="#c2e1ff" /><path d="M556 34.2c-0.4 7.1 4 37.6-0.8 41.6-4.3 3.6-8.6-4.6-3.2-6.1 5.4-1.5 5.9 7.8 0.4 6.9-6.6-1.1-6.9-39.6-4-44.6 2.2-3.9 7.2-1.7 7.6 2.2z"  fill="#fff500" /><path d="M564-128.6c-2.4 19.8-0.4 204.9-9 205.3-5.6 0.3-4.1-8.8 1.1-6.7 5.2 2.1 0 9.7-3.8 5.7-11.1-11.7-1.5-59.7-0.4-74.7 3.4-43.3-1.6-87.4 3.6-130.4 0.7-5.6 8.3-4.5 8.5 0.8z"  fill="#fff" /><path d="M571.6 11.2c-0.5 9.2 1.4 60.5-0.9 64.3-3.4 5.6-10.3-3.5-3.9-5.2 5.4-1.5 5.9 7.8 0.3 6.9-8.6-1.4-5.9-59.6-3.5-67.4 1.5-4.8 7.7-3 8 1.4z"  fill="#fff" /><path d="M579-96.2c0.7 16.7 12.2 172.4 2.6 172.9-5.6 0.3-4.1-8.9 1.1-6.8 5.2 2.1-0.1 9.8-3.8 5.7-9.4-10-2.9-51.8-2.7-65 0.5-27.6-8.6-85.5-4.5-107.3 0.8-4.5 6.7-3.5 7.3 0.5z"  fill="#005bbb" /><path d="M587 16c-0.1 7.4 3.2 60.5-2 60.8-4.8 0.2-4.8-7.3 0.1-7 4.8 0.3 3.9 7.8-0.8 7-7.6-1.3-6.8-54.4-5-61.8 1.2-4.7 7.3-3.2 7.7 1z"  fill="#fff500" /><path d="M594.3-53.5c1.5 10.6 13.4 101 4.4 101-5 0-4.6-7.9 0.4-7.4 5 0.5 3.7 8.4-1.2 7.4-3.6-0.8-13.2-93.4-10.2-101.7 1.3-3.6 5.8-2.5 6.6 0.7z"  fill="#fff500" /><path d="M603.4-390.6c-34.2 34.1-40.5 81.5-54 125.7-17.7 58.2-39.6 109.9-36.7 172 1 20.8 9.6 125.7 0.8 137.9-4.2 5.7-10.8-4.7-3.8-6 6-1.1 5.6 9-0.2 7.4-8.5-2.2-1.7-60.1-1.7-69 2-137.3-11.1-107.7 32.5-245.8 8.8-28 14.1-57.3 25-84.6 5.9-14.9 15.9-38.2 29.9-47.4 6.6-4.3 12.4 4.1 8.2 9.8z"  fill="#005bbb" /><path d=""  fill="#fff500" /><path d=""  fill="#fff500" /><path d=""  fill="#c2e1ff" /><path d=""  fill="#fff" /><path d="M603.5-275c-61.3 135.1-45.3 140.3-57.8 278-1.5 16.6-3.2 33.3-3 50.1 0 4.6 3.6 19.6-0.1 22.7-4.2 3.6-8.6-4.5-3.2-6 5.3-1.5 5.9 7.6 0.4 6.8-11.8-1.8-2.7-71.3-1.8-81.1 6.7-74.1 1.3-143.1 29.7-213.7 7.6-18.8 14.3-46.2 26.8-62.2 4-5.1 10.7-0.1 9 5.4z"  fill="#c2e1ff" /><path d=""  fill="#fff500" /><path d=""  fill="#c2e1ff" /><path d=""  fill="#fff" /><path d="M587-394.9c-9.8 11.4-17.3 24.5-22.6 38.6-6.4 17.1-51.5 187.2-53.9 204.5-2.6 18.7-2.7 37.6-1.5 56.4 0.2 3 3.9 19.4-3.8 17-4-1.3-2.8-7.5 1.4-7.1 4.2 0.4 4.4 6.7 0.1 7.3-7.8 1-6-32.5-6.1-37.8-0.5-19.5 0.9-38.9 4.7-58 4.2-21 48.6-184.7 54.9-199.3 3.6-8.3 10.6-27 19.4-31 6.2-2.8 10.4 4.4 7.4 9.4z"  fill="#005bbb" /><path d=""  fill="#005bbb" /><path d=""  fill="#fff500" /><path d="M603.4-199c-13.5 43.4-14.3 85.7-6.9 130.3 1 6.1 8.8 31.4 4.5 35.5-3.9 3.7-8.5-4-3.4-5.7 5.1-1.7 6 7.2 0.7 6.6-6.6-0.8-10-45-11.1-52-5.1-33.8-10.9-87.3 7.3-118.5 3-5.1 9.7-1.4 8.9 3.8z"  fill="#fff" /></svg>