<svg width="1200" height="675" viewBox="-500 -500 1200 675" xmlns="http://www.w3.org/2000/svg"><path d="M-500-500h1200v675h-1200z" fill="#000"/><path d=""  fill="#fff500" /><path d=""  fill="#005bbb" /><path d=""  fill="#fff" /><path d=""  fill="#c2e1ff" /><path d=""  fill="#005bbb" /><path d=""  fill="#005bbb" /><path d=""  fill="#005bbb" /><path d=""  fill="#c2e1ff" /><path d=""  fill="#fff500" /><path d=""  fill="#fff500" /><path d=""  fill="#fff500" /><path d=""  fill="#fff" /><path d=""  fill="#c2e1ff" /><path d=""  fill="#c2e1ff" /><path d=""  fill="#005bbb" /><path d=""  fill="#fff" /><path d="M-388.1-243.9c-0.3 13.2 2.2 57.3-8 66.5-4.6 4.2-9.8-4.8-3.8-6.7 6-1.9 6.8 8.5 0.7 7.7-7.7-1-0.3-21.7 0.3-26.3 2-13.3 0.4-29.5 4-42.2 1.2-4.1 6.5-2.7 6.8 1z"  fill="#c2e1ff" /><path d="M-380.5-56.3c-13.1 30.4-17.7 62.3-10.2 94.8 1.1 4.8 12.9 37.1 9.2 37.2-10.8 0.2 10.7-4.9 0.9-0.2-7.3 3.5-29.8-44-18-103.4 6-30.1 22.3-44.1 18.1-28.4z"  fill="#c2e1ff" /><path d=""  fill="#005bbb" /><path d="M-367.5-226.5c-3.3 29.6-26 91.9-26.5 108.2-1.2 35.5-1.9 71.1-2.5 106.7-0.1 8.6 5.7 71.3 3 85.3-0.7 3.6-6.1 0.2-3.1-2 3-2.2 4.6 4.1 0.9 3.6-5.7-0.8-4.4-19-4.4-21.4-0.8-43.6 0.6 6.5-0.5-65.5-0.5-36.1-1.7-72.1-2.1-108.2-0.2-13.3 24.1-80.7 27.5-105.4 0.7-5.3 7.8-8.2 7.7-1.3z"  fill="#005bbb" /><path d="M-360.2-35c-12.3 24.5-17.4 51.2-13.4 78.5 0.6 4.2 9.3 32.6 4.3 32.2-2.9-0.2-3-4.5-0.2-5 3.3-0.5 3.8 4.8 0.4 5-5.1 0.2-8.1-21.1-9-25.3-6.2-28.4-4.3-57.5 7.2-84.3 2.7-6.4 14-11.1 10.7-1.1z"  fill="#fff" /><path d="M-353.4-48.6c-14.9 25.3-24 52.9-21.6 82.6 0.4 5.4 9.2 42.3 5.5 42-11.9-0.8 12.2-4.4 1.1-0.1-5.3 2-8.4-18.8-9.3-22.4-6.3-26.4-6-53.5 3.1-79.1 15.7-44.7 22.2-25.2 21.2-23z"  fill="#005bbb" /><path d="M-346.6-20.9c-11.4 21.1-16.6 44.4-14.6 68.3 0.3 4.2 7.2 29.5 1.2 28.7-3.1-0.4-2.9-5.1 0.1-5.3 3.6-0.3 3.8 5.4 0.2 5.3-5.2-0.1-6.3-18.7-6.9-22.6-3.9-25-1.3-50.4 9.2-73.6 2.9-6.5 14.4-10.8 10.8-0.8z"  fill="#fff500" /><path d=""  fill="#005bbb" /><path d="M-334.4-329.4c10.6 63.6-2.2 124.7-25.2 184.1-8.2 21.2-33.1 61-34.2 81.4-1.7 32.5-7.8 79-1.5 113.6 0.9 5 11.5 21 9.2 24.9-2 3.4-6.2-2.1-2.4-3.1 3.2-0.9 3.5 4.7 0.2 4.1-11.4-1.9-12.5-41.6-12.5-47.3-0.1-9.2 0-18.4-0.1-27.7-0.4-21.8-1.5-43.6-1.8-65.4-0.2-16.6 46-111.7 53.7-140.2 8.5-31.1 13.9-63.1 12-95.5-0.6-9.1-4-19.8-3.2-28.8 0.3-3.6 5-3.3 5.8-0.1z"  fill="#c2e1ff" /><path d="M-326.6-234.2c-8.4 42.1-66.7 176.1-67.1 181.2-1.7 28-6.8 66.8-1.6 96.6 0.8 4.8 13.4 28.7 10.2 31.2-2.6 2.2-5.2-2.8-1.9-3.7 3.3-0.9 3.5 4.8 0.2 4.2-11.1-1.9-14.1-43.5-14.2-50.1-0.2-26.7-1-53.5-1-80.2 0-22.7 41.1-94.7 50.5-121.5 4.5-12.7 11.2-53 17.9-61 2.8-3.4 7.3-0.4 7 3.3z"  fill="#fff" /><path d="M-319.5-30c-15.4 20.8-27.1 43.7-29.1 69.8-0.4 5.1 3.4 37.8-1.8 36.7-3.3-0.7-2.8-5.7 0.6-5.7 3.9 0 3.6 6.1-0.3 5.8-19.1-1.9 3.9-85.9 19-108.1 4.3-6.3 17-8.4 11.6 1.5z"  fill="#fff500" /><path d="M-312.7-28.9c-15.6 20.5-28.3 42.9-31.3 69-0.6 5 2.4 37.3-3 36-3.3-0.8-2.7-5.9 0.8-5.8 4 0.1 3.5 6.4-0.4 5.9-5.4-0.7-4.4-16.9-4.6-20.8-1.7-31.6 8.7-60.5 26.8-86 4.4-6.3 17.3-8.1 11.7 1.7z"  fill="#fff500" /><path d="M-298.6-398.9c20.9 115 12.8 172.1-41.5 276.7-12.9 24.8-28 48.6-38.7 74.4-1.6 3.7-3.3 16.2-9.9 13.6-4.7-1.8-2.7-9.1 2.3-8.3 5.8 0.9 3.8 10-1.9 8.4-9.9-2.7 11.8-41.1 14.9-46.9 25.8-49.4 52-97 68.6-150.6 17.4-56.2 11.8-107.2 1.1-163.9-0.8-4.1 3.5-8.7 5.1-3.4z"  fill="#fff" /><path d="M-299.2-192.3c-23 59.1-77 126.2-86.3 185.1-3.3 20.9 11.5 78.7 10.8 81.2-1.2 4.1-7.1-0.5-3.4-2.7 3.7-2.2 4.8 5.3 0.7 4.3-5.2-1.2-9.4-23.6-10.7-28.4-23.8-88.8 47.2-160.5 78.5-237.8 2.3-5.7 13-11.9 10.4-1.7z"  fill="#c2e1ff" /><path d="M-292.6-237.8c-20.7 76-86.8 172.2-96 224.9-3.4 19.6-2 39.6 3 58.9 1.6 6.2 10.3 22.3 8.7 27.9-1.1 4.1-7-0.4-3.3-2.6 3.6-2.2 4.8 5.1 0.6 4.2-5.4-1.2-10.3-25.2-11.6-30.2-23.1-83.4 36.8-148.7 67.4-221 8.6-20.4 12.7-46.4 23.6-65.4 2.5-4.4 8.4-1.3 7.6 3.3z"  fill="#005bbb" /><path d="M-285.6-9c-13 18.3-25.1 37.3-30.2 59.5-0.9 4.1-0.9 29.3-7.8 26.3-4.3-1.8-1-8.5 3.1-6.2 4.1 2.3 0.1 8.5-3.7 5.8-12.5-9 20.9-79.1 30.1-91.4 4.1-5.5 11.5 0.2 8.5 6z"  fill="#fff" /><path d="M-278.8-109.6c-23.3 42.5-65.4 77.1-76 125.8-2.8 12.9-3.2 26.1-1.9 39.2 0.4 4 5 17 2.2 20-3 3.2-7-2.8-3-4.4 4.7-1.9 4.7 7 0 5-4.8-1.9-5.3-20.1-5.8-24.7-7.7-67.7 41.6-107.9 73.2-161 3.4-5.8 15.5-10 11.3 0.1z"  fill="#fff500" /><path d="M-272.2-233.7c-24.8 80.2-94.6 174.1-106.1 221.9-5.5 22.7-4 46.1 2 68.5 0.5 1.7 8.6 21.4 1.8 18.8-9.9-3.8 11.6-4.1 1.8 0-3.9 1.6-5-6.5-5.6-8.3-31.4-92 31.5-152.7 68.6-230.7 10.9-23 16.6-52.5 29.8-73.8 2.8-4.5 8.6-1 7.7 3.6z"  fill="#fff500" /><path d="M-266.4-346.3c10.3 84.2-23.2 166.2-65.2 237.7-15.4 26.2-33.5 51.4-43.9 80.2-9.1 25.2-10 51.7-3.9 77.7 1.1 4.5 9.2 22.3 6.8 25.7-2.2 3-6.3-1.6-3.1-3.4 3.8-2.2 4.8 5.4 0.6 4.3-5.2-1.3-8.9-23.2-10.1-27.9-22.9-90.4 57.6-171.3 89.4-252.4 13.5-34.2 24.2-69.4 24.9-106.4 0.2-11.4-3.1-24.5-1.6-35.6 0.5-3.7 5.3-3.2 6.1 0.1z"  fill="#fff500" /><path d="M-259.9-387.5c17.8 102.1-8.4 193.1-62.1 280.8-16.2 26.5-35.7 51.6-47.2 80.6-6.5 16.3-9.7 33.7-9.1 51.3 0.1 2.9 4.4 19.1-2.3 17.6-3.9-0.9-2.1-6.9 1.6-5.6 3.8 1.3 1.4 7.1-2.2 5.4-9.1-4.3-3.2-43.6-1.7-51.6 8.9-47.1 78.1-141.2 102.6-205.7 20.5-54.2 25.2-106.6 16.1-163.7-0.4-2.5 1.6-18.5 4.3-9.1z"  fill="#fff500" /><path d="M-242.3-398.8c19.8 112.9-7.3 220-73 314.1-4.1 5.8-19.1 34.2-26.8 31.5-9-3.1 1.8-15.7 6.2-7.3 3.8 7.2-9.3 10.8-9.7 2.7-0.3-6.8 34.4-51 40.3-60.7 20.4-33.2 35.5-69.8 48-106.5 18.4-54.3 19.8-108.5 10.7-164.7-0.4-2.5 1.5-18.5 4.3-9.1z"  fill="#fff" /><path d="M-245.2-251c-29.1 122.3-94.6 169.2-119 239.6-9.5 27.5 1.1 83.7 0.4 85.7-1.7 4.4-7.7-1.1-3.5-3.1 4.2-2.1 4.8 6.1 0.3 4.7-5-1.6-7.1-22-8-26.7-14.6-78.6 46.8-130.9 79.8-195 17.2-33.4 28.5-82.2 42.4-108.1 2.4-4.4 8.2-1.5 7.6 2.9z"  fill="#fff" /><path d=""  fill="#005bbb" /><path d="M-232.7-397.5c17.5 98.7-0.8 193.2-48.7 281.3-20.3 37.3-52.8 67.7-69.8 106.8-2.9 6.7-6.3 35.8-11.1 38.5-4.9 2.8-7.8-6.2-2.1-6.7 5.7-0.5 4.4 8.9-0.9 6.9-8.6-3.1 4-37.6 6.3-43.5 22.4-56.7 69-90.3 102.8-183.8 22.4-61.8 29.7-121.8 19.6-187-0.3-2.1 0.7-22.8 3.9-12.5z"  fill="#c2e1ff" /><path d=""  fill="#005bbb" /><path d=""  fill="#005bbb" /><path d="M-211.8-11.9c-0.1 13.2-1.2 82.4-6.6 88-4.1 4.3-9.6-3.9-4-6.1 5.5-2.1 7 7.6 1.1 7.2-7.6-0.5-0.8-29.1-0.4-34.1 1.5-17.4-1.3-39.3 3.1-56 1.1-4.1 6.4-2.8 6.8 1z"  fill="#c2e1ff" /><path d="M-205.3-21.3c1.1 12.5 9.5 90.7 4.9 96.7-3.3 4.3-9.1-2.6-4.3-5.1 4.8-2.5 7.2 6.2 1.7 6.4-6.8 0.3-4-30.3-4.2-35.4-0.9-19.4-7.4-43.8-4.4-62.8 0.6-3.8 5.5-3.1 6.3 0.2z"  fill="#005bbb" /><path d="M-174-398.8c18.9 76 12.8 188.1 42.7 253.2 11.3 24.6 28.4 45.5 45 66.6 1.6 2.1 15.3 16.9 10.9 18-0.1 0-0.8 0-0.9 0-5.2-1.6-13.3-17.5-16.9-22-78.4-100-58.9-158.9-78.5-276.8-1.8-10.9-7.8-53.8-2.3-39z"  fill="#fff500" /><path d="M-166.6-399.3c21.5 81.4 17.9 173.7 54.2 250.5 10.8 22.8 52.3 73.2 55.5 92.2 0.6 3.6-5.6 2.3-3.6-0.8 2-3 5.6 2.2 2.1 3-3.6 0.8-15.9-24.9-18.3-28.7-73.2-115.3-62.6-151.3-87.5-280.6-1.4-7.2-10.6-29.9-7.3-36.1 1.2-2.3 4.1-1.5 4.9 0.5z"  fill="#005bbb" /><path d="M-184.6-264.8c-3.2 70-20.6 139.8 22.9 201.9 27.3 39 70.5 63.7 92.1 107.3 2.4 4.8 13.9 26.2 9.8 30.6-2.6 2.7-6.7-1.5-3.9-3.9 3.3-2.9 6.8 3.5 2.6 4.7-0.8 0.2-21.3-47-25.3-52.8-35.5-52.1-90.7-80.2-106.8-145.5-5.8-23.3-8.3-127.1 2-144.3 2-3.4 6.4-1.4 6.6 2z"  fill="#005bbb" /><path d="M-178.1-186.1c1.9 119.8 116.6 141.7 137.3 250.7 0.5 2.7 3.8 11.7-1.4 12.1-3.5 0.2-4.5-5-1-6 3.4-1 5.4 3.9 2.3 5.6-6.3 3.5-6-13.6-6.5-15.9-3.5-18.5-10-36.6-19-53.1-26.7-48.7-79.4-76-103.1-126.6-9.7-20.6-14.7-43.8-15.2-66.6-0.1-4.4 6-4.3 6.6-0.2z"  fill="#fff" /><path d="M-171.6-344.4c10 75.3-7.5 167.6 37.4 233.3 21.8 31.9 52.6 56.3 72.9 89.5 5.9 9.7 44 92.1 28.6 97.7-4.7 1.7-5.9-6.6-0.8-6.1 5.9 0.5 1.3 9.7-2.7 5.3-0.9-1 6-25.2-22.1-83.2-27.4-56.7-86.5-90.9-104.1-153.2-15.7-55.4-7.7-117.3-14.2-174.3-0.3-2.8 2.6-18.7 5-9z"  fill="#005bbb" /><path d="M-126.9-399c11.6 33.4 21 67.3 37.1 99 19.5 38.4 46.9 72.7 60.8 113.8 4.7 13.9 26.8 115.4 13.7 119.8-5.7 1.9-5.1-8.5 0.3-6 4.7 2.1-0.5 8.9-3.8 5-10.2-11.9 1-70-16.6-122.3-13.1-39-38.6-71.9-57.6-107.9-15-28.3-24.9-58.4-34.9-88.8-0.5-1.6-3.2-21.1 1-12.6z"  fill="#c2e1ff" /><path d="M-159.8-72.9c35.6 51 94.9 79.5 107.7 145.5 1 5.2-8.1 3.5-5.3-1 2.4-3.8 7.8 1.5 4 3.9-5.7 3.7-6.7-13.1-7.3-15.3-4.7-17.2-12.6-33.3-22.9-47.8-21.2-30.1-52.6-50.4-75.3-79.1-0.7-0.9-4.8-10.3-0.9-6.2z"  fill="#fff" /><path d="M-121.6-398.9c11.5 32.2 21.3 64.9 37.8 95 56.4 102.7 78 98.3 77.2 224.1 0 5.5 3.1 33.2-2.7 34.8-6.1 1.7-4.9-9.3 0.7-6.2 5.6 3-2.9 10.1-4.8 4-8.2-24.6 5.4-97.3-8.4-141.6-17.1-55.1-70.8-109.7-99.5-194.3-0.6-1.8-4.6-24.5-0.3-15.8z"  fill="#fff500" /><path d="M-146 32.1c5 7.7 25.2 32.7 22.5 41.9-1.1 3.6-6.5 0.6-4-2.2 2.5-2.8 6.1 2.2 2.7 3.7-4.5 2-8.5-14.4-9.9-17.1-4.3-8.6-17.4-33.8-11.3-26.3z"  fill="#005bbb" /><path d="M-139.3 32.1c5.3 7.6 26.4 32.5 23.6 42.1-1 3.6-6.5 0.6-4-2.2 2.4-2.8 6.1 2.2 2.7 3.7-4.5 2-8.8-14.7-10.2-17.6-4.2-8.1-11.8-16.1-15-24.5-0.7-1.9 1.7-2.8 2.9-1.5z"  fill="#fff500" /><path d="M-132.5 41.1c4.1 6.1 19.7 25.6 17.6 33.1-1 3.6-6.5 0.6-4-2.2 2.4-2.8 6.1 2.2 2.7 3.7-4.4 2-7.3-11.6-8.5-14-0.9-1.8-12.4-26.1-7.8-20.6z"  fill="#c2e1ff" /><path d="M-125.8-113.9c19.8 28.9 46.2 52.6 64.6 82.6 11 18 38.7 101.6 31.7 107-3.4 2.7-7.4-3-3.7-5.2 3.7-2.3 7 3.7 3.1 5.6-7.1 3.4-5.9-17.9-6.3-21.1-3.3-24.2-10-48.2-20.5-70.2-17.3-36.3-46.4-63.2-70.1-95-1.3-1.8-1.5-6.6 1.2-3.7z"  fill="#005bbb" /><path d="M-119.7-27.7c14.7 13.5 76.6 81 66.3 102.3-1.7 3.5-7 0.5-5-2.8 2.4-3.8 7.7 1.4 4 3.9-4 2.6-22.6-50.8-23.9-52.8-11-18-25.6-33.2-41-47.6-0.6-0.5-3-4.9-0.4-3z"  fill="#fff500" /><path d="M-111.2-191.8c24.4 76.6 75.1 138.2 87.4 219.5 1 6.6 8.9 47.1 1.9 49.2-6 1.8-5-9 0.6-6.2 4.7 2.4-0.9 9.2-4.2 5.1-7.4-9.3-2.5-60.6-17.4-107.3-17-53.2-51.4-98.4-70.3-150.9-0.8-2.2-1.7-17.2 2-9.4z"  fill="#fff500" /><path d="M-104.7 68.2c0.5 1.2 4.2 7.6-0.4 7.6-2.8 0-3.2-4.1-0.4-4.7 3.1-0.7 3.9 4.3 0.7 4.7-7.5 0.8-3.3-13.8 0.1-7.6z"  fill="#fff500" /><path d="M-98.1-299.9c13.3 29.4 30.5 56.8 44.1 86.1 33.3 71.3 38.2 156.8 41.8 234.2 0.3 6.7 5.8 54.8-1.5 56.7-5.4 1.3-5.6-7.8-0.2-6.8 5.4 1 1.8 9.5-2.7 6.2-4.9-3.5-1.2-29.3-1.4-35.6-1.4-55-6.4-109.8-15.2-164.2-9.9-61.5-36.7-110-63.9-164.9-0.9-1.7-5.3-18.7-1-11.7z"  fill="#fff" /><path d="M-92.1 16.1c4.9 5.9 38.6 53.8 28.6 59.5-3.8 2.1-5.8-4.8-1.6-5.1 4.3-0.3 3.3 6.8-0.7 5.2-4-1.5-5.2-15-6.6-18.9-5.2-14.1-30.3-51.4-19.7-40.7z"  fill="#fff500" /><path d="M-61.8-399.4c54.6 129.3 220.3 130.9 158.7 270.4-5.3 11.9-19.9 50-31.8 54.8-8.6 3.4-8.6-12.6-0.1-9.2 10.1 4-5.5 16-6.7 5.1-1.1-9.8 17.3-30.6 22.2-39.3 17.2-30.8 28.4-65.4 16.4-100.2-20.7-60.2-89.8-79.1-129-124-14.3-16.4-25.3-35.8-33.7-55.9-1.1-2.7 2.6-4.1 4-1.7z"  fill="#005bbb" /><path d="M-78.3 12.1c4.7 6.5 36.4 58.6 25.7 63.9-3.5 1.7-5.9-3.9-2.3-5.3 4.3-1.6 5.3 6 0.8 5.5-4.8-0.4-5.3-15.4-6.4-18.9-4.5-15.6-28.5-57.4-17.8-45.2z"  fill="#c2e1ff" /><path d="M-59.8-399.1c37.2 87.7 91.2 86.4 143.7 147.7 47.2 55.1 21 116.1-12.1 170.1-3.4 5.5-16.8 36.3-24.3 31.7-18.8-11.6 25.1-3.9 3.5 0.6-14.2 3 8.2-30.7 10.2-34.1 24.1-39.9 53.3-82.7 38.9-131.5-18.6-62.8-89.5-82-129.8-127.1-14.5-16.3-25.6-35.5-34.1-55.6-1.1-2.7 2.6-4.1 4-1.8z"  fill="#005bbb" /><path d="M-64.3-96.9c23.3 44.8 38.2 91.1 43.4 141.4 0.5 5.2 5.4 30.6-0.4 32.3-5.1 1.5-5.7-7.3-0.5-6.5 6.2 0.9 0.7 10.3-3.1 5.4-2.8-3.6-6.8-67-9.2-78.3-6.8-32.8-19.3-62.5-33.8-92.5-1.1-2.4 2.2-3.9 3.6-1.8z"  fill="#c2e1ff" /><path d="M-29.4-399.2c42.3 98.4 213.5 127 150.7 264.4-3.6 8-18.4 42.3-28 42.1-6-0.1-6.9-9-1-10.2 5.9-1.2 8.6 7.3 3.1 9.8-3.9 1.8-8.3-2-7-6.2 4.7-16 21.2-31.4 28-47.3 11.9-27.5 13.8-58 3.1-86.2-21.9-57.8-82.7-77.6-122.6-119.3-12.6-13.2-22.8-28.6-30.3-45.3-1.2-2.6 2.5-4.1 4-1.8z"  fill="#c2e1ff" /><path d="M-50.2-123.8c18 54.5 30.7 108.8 34.4 166.3 0.4 5.4 4.6 32.7-1.4 34.3-5.2 1.4-5.7-7.6-0.3-6.7 6.3 1.1 0.5 10.5-3.3 5.5-2.9-3.8-4.5-70.8-6-82.2-5.3-39.8-16.6-77.3-28.1-115.6-0.9-3.1 3.4-4.3 4.7-1.6z"  fill="#005bbb" /><path d="M-43.2-134.7c7.4 27.4 42.7 193 29.3 210-3.4 4.3-9.1-2.7-4.2-5.2 4.9-2.5 7.2 6.3 1.7 6.5-3.9 0.2-7.4-83-8.6-93.1-3.8-32.9-22.9-92.2-23.4-117.5-0.1-3.2 4.1-3.4 5.2-0.7z"  fill="#fff500" /><path d="M-28.8-399.2c25.3 59 80.1 79.3 123.1 121.9 62.6 62.1 37.9 134.6-7.2 197.5-4.1 5.8-22.7 40.2-30.1 35.1-4.8-3.3-0.6-11 4.8-8.8 4.6 1.9 3.7 8.9-1.2 9.6-14.9 2.2 10.9-31.9 13.4-35.3 29-41.3 62.3-83.9 50.6-137.6-15.6-72.4-91.5-92.2-134.2-143.5-9.3-11.2-17.1-23.8-23.1-37.1-1.2-2.6 2.5-4.1 3.9-1.8z"  fill="#fff500" /><path d="M-12.1-399.4c41.4 96.7 209.3 126.2 140.1 266.8-6.6 13.4-27.9 57-42.5 61.3-11.1 3.2-5.7-17 2.3-8.7 6.8 7-9 13.5-9 3.7-0.1-10.5 21.5-30.4 27.6-39.3 22.1-32.2 35.2-69 25.6-108.1-16.9-69.4-86.1-91.3-127.6-141.5-15-18.2-21.6-42.5-16.5-34.2z"  fill="#005bbb" /><path d="M-22.5-137.4c3.7 25.1 20 202.5 11.7 212.7-3.5 4.3-9.2-2.9-4.2-5.3 5-2.4 7.2 6.5 1.6 6.6-5.4 0.1-4.3-74.8-4.7-84.2-1.4-33.9-13.3-101.3-10.3-129.7 0.4-3.6 5.1-3.2 5.9-0.1z"  fill="#c2e1ff" /><path d=""  fill="#fff500" /><path d="M-10.2-384.9c24.8 45.8 72.8 66.1 108.3 101.5 60.4 60.2 45 133.5-1.1 196.2-12.6 17.1-25.4 34-36.5 52.1-3.2 5.3-10.3 25.4-16.5 26.3-10.2 1.5-3-15.7 3.1-7.4 6.1 8.2-12.4 10-8 0.7 29.5-62.1 100.3-116.2 93.4-190.3-7-75.7-78.1-101.1-124.4-149.1-8.2-8.5-25.5-39.5-18.3-30z"  fill="#c2e1ff" /><path d="M-4.5-271.7c27.8 24.3 56.1 50.5 62.1 88.9 9.5 60.9-33.3 124.5-44.7 183.3-2 10.4-7.2 71.8-10.5 75.2-4 4.3-9.5-3.7-4.1-5.9 5.4-2.2 7.1 7.4 1.2 7.1-7.7-0.4-0.5-34.6 0.2-40.2 8.6-76.7 44.5-138.6 51.4-195.9 3.9-32-7.7-60.9-28.9-84.5-8.6-9.6-37.3-35.3-26.7-28z"  fill="#c2e1ff" /><path d="M3.4-216.9c34 58.3 7.5 127.9 0.4 189.9-3.8 33.5-3.6 67.2-7 100.7-0.7 6.7-10.8 1.5-6-2.9 4.9-4.5 9.1 6.3 2.3 6.2-12.3-0.2 14.3-178.8 17.2-197 3.6-22.9 5.7-46.3-0.1-69-2.4-9.3-12.3-35.7-6.8-27.9z"  fill="#c2e1ff" /><path d="M12.3-72.3c-6.7 36.9-10.8 74.2-12.9 111.6-0.3 5.4 1.3 38.5-6 37.6-4.9-0.6-3.5-8.2 1.2-7.1 4.8 1.1 2.6 8.5-2 6.9-6-2.1-1-25.3-0.7-30.4 2.2-39.9 4.6-80.7 12.7-120 1.1-5.1 8-3.5 7.7 1.4z"  fill="#005bbb" /><path d="M19.2 18.9c-1.8 7.5-7.7 59.2-13.8 58.1-5-1-3.1-8.8 1.8-7.4 4.9 1.5 2.1 9.1-2.6 7.1-5.4-2.3 2.8-55.7 7.6-61.3 2.9-3.4 7.4-0.4 7 3.5z"  fill="#005bbb" /><path d="M25.9-127.3c-8 50.8-20.6 100-24.7 151.6-0.5 6.9-0.4 53.9-7.2 52.9-4.2-0.5-4-6.8 0.1-7.1 4.9-0.4 5.1 7.3 0.3 7.2-7.2-0.2-1.2-39.4-0.9-45.5 1.7-26.7 13.2-146.2 25.5-162.2 2.6-3.4 7.1-0.7 6.9 3.1z"  fill="#fff" /><path d=""  fill="#005bbb" /><path d="M38.4-185.5c13.4 59.1-22.3 125.4-30.8 183.6-1.3 9-5.9 79.6-11.5 78.8-5.7-0.8-2.4-9.8 2.5-6.7 4.9 3.1-2 9.9-5.1 5-9.9-15.6 18.8-142.8 25.4-166.4 6.2-22.3 13.6-44.9 15.1-68.2 0.5-7.5-3.2-19.7-1.1-26.5 1-3 4.7-2.2 5.5 0.4z"  fill="#fff" /><path d="M56.3-399.2c17.7 42.2 56.3 70.5 80.5 108.6 52.2 82 30.1 148.3-29.1 216.7-4 4.6-18.2 28-25.4 21.4-4.6-4.2 0.8-11.7 6.2-8.6 4.6 2.6 2.8 9.9-2.5 10-15.6 0.4 25.5-44 29.2-48.3 27.6-32.7 47.5-68.8 44-113-5.9-75.3-64.9-113.1-100.3-172.8-1.6-2.8-6.9-21-2.6-14z"  fill="#005bbb" /><path d="M53.3 34.7c-3.1 7.4-9.3 40.3-15.8 42.6-6.1 2.2-7.5-8.5-1-7.9 6.5 0.6 3.3 10.9-2.4 7.6-5.8-3.3 7.5-46.9 14-48.4 3.8-0.9 6.1 2.8 5.2 6.1z"  fill="#c2e1ff" /><path d="M60.1 50.5c-2 5.2-5.7 27.1-12.2 27.1-5.7 0-5.1-9 0.5-8.4 6.6 0.8 3 11.2-2.6 7.7-11.7-7.2 19.7-49 14.3-26.4z"  fill="#c2e1ff" /><path d="M73.6-399.5c15.6 39.4 48.4 68.7 69.5 104.9 42.7 73.3 34.3 146.6-20.9 209.7-7.9 9.1-40.7 58.2-51 58-9.6-0.1-3.2-15.6 3.6-8.9 6.9 6.7-8.4 13.5-8.7 3.9-0.5-13.7 30.1-40.4 38.9-50.2 29.7-33.3 58.1-67.1 60-113.9 3.4-79.5-54.3-125.9-89.3-189.3-1.5-2.8-6.4-21.4-2.1-14.2z"  fill="#c2e1ff" /><path d="M71.5-215.8c9.5 19.5 11.8 41.3 8 62.5-10 56-47.2 104.4-60.7 160-2 8.4-10.2 71.5-15.5 70.6-5.9-1-2.1-10.2 2.8-6.8 4.2 2.9-0.8 9.2-4.7 5.9-4-3.5 0.3-16.2 0.9-20.6 8.4-66.9 34.3-120.6 59.9-181.9 7.5-18.1 13.1-37.4 12.2-57.2-0.5-10.9-8.3-41.9-2.9-32.5z"  fill="#fff" /><path d=""  fill="#c2e1ff" /><path d="M95.6-399c15 41.9 46.1 75.8 63.7 116.6 40.6 93.8 14 148.9-50.6 219.4-4.1 4.4-17 25.4-24.1 18.9-3.9-3.6-0.5-10.3 4.8-9.3 6.1 1.3 5.2 10.6-1 10.7-16 0.2 12.4-28.1 15.3-31.3 33.3-36.4 66.8-71.5 68.3-123.7 2.3-77.5-50.3-128.2-78.6-194.5-1.1-2.5-1.2-13 2.2-6.8z"  fill="#005bbb" /><path d="M94.1 43c-3.2 6.4-9.5 32.9-16 34.8-6.6 1.9-7.3-9.5-0.5-8.4 6.8 1.1 2.6 11.6-3.1 7.8-6-4 7.9-34.4 11.7-39.1 3.6-4.5 9.5 0.1 7.9 4.9z"  fill="#005bbb" /><path d="M97.6-343.9c50.2 58.6 94.7 133.9 54.9 211.2-25.7 49.8-72.6 84.5-98.4 134.7-4.6 8.9-15.9 54-23.3 56.5-5.3 1.9-7.8-6.6-2.3-7.9 6.4-1.5 6.5 9.4 0.1 8.1-8.6-1.8 4.2-30 6-35.1 27.4-74.9 107.4-128 123.2-196 10.3-44.8-4.9-91.8-29.9-129-9.7-14.4-43.1-54.2-30.3-42.5z"  fill="#fff" /><path d="M115.1-399.2c8.7 28.5 24.3 54.1 37.2 80.8 53.3 110.4 43.9 169.5-39.2 257-3.2 3.3-13.7 18.7-18.5 8.9-9.2-18.6 25.5 3.7 4.7 3.1-16.4-0.5 23.9-38.8 27.5-42.6 27.8-29.4 49.7-61.4 51.6-103.1 3.2-74.3-42.1-131-66.2-197.3-1-2.8-0.3-13.4 2.9-6.8z"  fill="#fff500" /><path d="M114.3-81.4c-31.2 36.1-59.9 72.5-75.5 118.2-2.4 6.9-6.5 37.6-12.6 40-5.9 2.4-7.7-8-1.3-7.7 6.3 0.3 3.6 10.5-2 7.6-7.8-4.1 8.9-46.5 11.5-53.6 12.1-33.1 43.5-91.9 72.6-112.6 5.5-3.9 10.6 3.1 7.3 8.1z"  fill="#fff500" /><path d="M118.1-328.9c44.2 57.1 73.4 133.8 34.8 201.8-26.8 47.1-71.5 80.5-96.9 128.9-4.5 8.7-27.5 76.2-30.8 75.4-7.2-2 0.7-12.3 4.5-6 3.3 5.5-6.7 8.8-7.4 2.5-1-9.1 5-22.8 7.6-31.6 27.6-92.9 105.3-133.5 128.3-203.7 13.6-41.5 3.6-87-16.1-124.8-7.5-14.4-35.3-54.1-24-42.5z"  fill="#005bbb" /><path d="M127.8-74.1c-31.7 32.5-60.7 65.7-78.1 108.4-2.5 6.2-12.6 47.4-19.1 42.7-4.5-3.2 0.9-10 5-6.3 3.5 3.1-0.5 8.9-4.7 6.6-7.9-4.4 9.9-45.1 12.8-52.1 14.5-35.6 43.3-87 77-108 5.9-3.6 10.7 3.9 7.1 8.7z"  fill="#fff500" /><path d="M134.5-36.8c-29.4 26.5-52.1 58.2-66.3 95.4-1.6 4.2-4 21.5-11.1 18.9-5.4-2-1.8-10.3 3.4-7.8 5.2 2.6 0.7 10.5-4.2 7.4-7.1-4.5 9.3-36.4 12.1-42.6 11.8-26 33.3-66.1 59.3-80.6 6.2-3.4 10.8 4.5 6.8 9.3z"  fill="#005bbb" /><path d="M139.3-250.9c47.5 102.9-50.4 166-90.5 248.6-4.4 9-26.4 80.1-29.5 79.4-5.2-1.3-2.7-9.4 2.3-7.5 5.9 2.2 0.2 10.9-4.1 6.4-3.9-3.9 1.8-18 2.8-22.6 20.2-88.8 68.4-117.8 108.5-190.3 12.3-22.2 18.4-47 16.3-72.3-0.3-3.1-13.6-55.3-5.8-41.7z"  fill="#c2e1ff" /><path d="M148.1-398.9c15 79.3 67.4 164.2 43 246.9-15.4 52.2-63.2 82.9-96.6 122.6-4.6 5.5-23.7 38.8-30.4 34.2-4.8-3.2-0.8-10.8 4.5-8.7 5.3 2.1 3.1 10.4-2.6 9.5-11.5-1.8 5.6-22.1 8.3-25.9 34.9-50.3 98.3-84.9 112.3-147.5 17-75.9-26.6-152.4-42.8-224.6-0.8-3.5 1.8-14 4.3-6.5z"  fill="#fff500" /><path d="M153.2-361.8c23.2 69.9 63.7 156.7 28.1 229.4-25.3 51.7-78.9 83.1-109.2 131.7-4.1 6.5-21.7 48.8-27.7 46.2-5.5-2.4-1.3-10.9 4-7.8 4.5 2.5 1.4 9.6-3.5 8-8.7-2.7 5.9-27.4 8.2-32.2 31.8-65.7 110.5-109.4 129.7-174.3 18.7-63.7-11.9-134.7-32.5-194.2-0.9-2.5-0.4-13.5 2.9-6.8z"  fill="#005bbb" /><path d="M159.9-258.8c44.8 120.7-45.6 160.9-98.1 250.6-10.1 17.2-18.1 35.5-24 54.6-2.1 6.8-3.7 26.1-8.8 30.4-5.7 4.8-9.8-7.5-2.4-7.1 6.4 0.3 3.5 10.5-2.1 7.6-6.8-3.6 5.4-34.5 7.4-40.6 24.7-77.3 79.9-109.4 116.4-174.5 13-23.2 18.4-49.3 16.3-75.7-0.2-2.1-12.4-61.1-4.7-45.3z"  fill="#c2e1ff" /><path d="M168.5 3c-13.7 13.2-47.5 73.9-48.1 74.2-7 4.4-9.6-9.7-1.5-8.1 6.9 1.4 2.2 12.1-3.5 7.9-13.5-9.9 36.6-73.9 45-82 5.4-5.2 12.5 2.3 8.1 8z"  fill="#005bbb" /><path d="M175.1-78.7c-35.6 33.7-73.8 61.6-97.5 105.8-3.7 6.8-20.7 54.2-26.2 49.8-4.5-3.6 1.5-10.3 5.6-6.4 3.5 3.4-1 9.2-5.2 6.6-8.1-5.1 13-45.6 16.5-52.6 18.5-37.4 63.3-92.3 100.1-112.6 6.2-3.4 10.8 4.5 6.7 9.4z"  fill="#fff500" /><path d="M182.2 74.6c-5.4 8.8-14.4-0.7-8.1-5 12.8-8.7 4.8 20.2-1.7 6.2-4.4-9.6 14.5-11.8 9.8-1.2z"  fill="#fff" /><path d="M188.9-143.3c-21.8 58.6-83.2 91.8-115.8 143.9-11.7 18.8-20.9 39.1-27.4 60.2-1.1 3.4-3.1 21.5-10.4 16.2-4.5-3.3 1.1-10.1 5.2-6.3 4.1 3.8-2.2 10-5.8 5.7-3.6-4.1 2-14.9 3.3-19.4 18.8-63.7 59.9-105.7 105.1-151.8 2-2.1 53.8-76.7 45.8-48.5z"  fill="#fff500" /><path d="M195.2-24.2c-26.2 19.6-49.3 41.8-64.9 71-2.6 4.9-12.5 36.5-19.7 30-4.5-4 2.3-10.7 6.3-6.2 4 4.5-3.4 10.4-6.9 5.5-8.8-12.3 58.3-101.6 79.1-110.7 6.8-3 10.8 5.8 6.1 10.4z"  fill="#fff" /><path d="M202.1-66.5c-33.9 29.9-71.6 53.1-95.8 92.6-4.2 6.8-23.9 55-29.2 50.4-3.8-3.2 0.4-9.5 4.8-7.1 5.2 2.7 0.4 10.7-4.5 7.4-9.4-6.4 19.9-55.3 24.7-62.9 12.5-19.9 74.2-86 94.9-90.6 6.4-1.4 8.9 6.1 5.1 10.2z"  fill="#fff500" /><path d="M209.3 72.3c-15.3 18.9-12.5-12.1-3.7-2.6 7.9 8.5-12.6 12.8-8.8 1.8 3.5-10.2 17.9-8.3 12.5 0.8z"  fill="#fff500" /><path d="M214.8-255.5c7.7 50.9 20.9 104.5-10.7 150.4-31.3 45.4-83.5 70.7-114 117.6-5.1 7.8-30.3 66.5-34.1 65.1-6.3-2.3-0.3-11.7 4.4-7 4.1 4.1-2.7 10.2-6.3 5.7-3.7-4.5 3.6-18 5.4-22.6 35.6-98.4 95.9-102.8 140.9-171.8 27.6-42.3 14.6-90.2 8.6-136.4-0.5-3.9 4.8-4.5 5.8-1z"  fill="#005bbb" /><path d="M222.6 25.3c-12.7 11.3-41.4 53-46.6 53.2-7.8 0.5-5.8-12.4 1.5-9.5 7.3 2.9 0 13.7-5.3 8-7.9-8.2 35.2-59 44.9-61.6 6.2-1.7 9 5.7 5.5 9.9z"  fill="#005bbb" /><path d="M229.1-314.6c-7.7 64.1 31 131.5 11.4 193.5-18.7 59.1-87.3 83.7-123 130.7-6 7.9-36.2 69.3-39.4 68.1-6.4-2.5 0-12 4.7-7 4 4.2-3 10.3-6.6 5.6-4.9-6.4 9.9-32.4 13-39 35-73.9 112-97.1 139.9-154.2 23.6-48.4-2.6-104.7-7.2-154.5-1.2-12.9-4.3-32.3 0-44.8 1.5-4.3 7.1-2.4 7.2 1.6z"  fill="#005bbb" /><path d="M235.9-10.2c-20.6 15.8-41 31.7-56.8 52.5-5.9 7.7-14.5 31.2-22.3 35.1-6.7 3.4-9.7-8.7-2.2-8.9 8.7-0.3 3.6 14-3 8.2-16.5-14.7 64-91.1 78.2-97.2 6.8-3 10.8 5.8 6.1 10.3z"  fill="#005bbb" /><path d="M240.7-397.2c-9.8 42.2-20.4 82.2-16.6 126.1 4.1 47.5 25.2 98.4 10.1 145.7-15.6 49.1-65.6 73.2-100.3 107-4.3 4.1-17 24-23.8 17.8-4.6-4.2 0.9-11.7 6.3-8.6 5.4 3.1 1.6 11.7-4.3 9.7-11.1-3.5 6-18.7 9.1-22 34.4-37 90.6-61.3 106.6-112.2 17.6-55.8-13.5-118.3-11.3-175.7 1-26.9 4.2-66.4 16.6-90.6 2.3-4.4 8.1-1.6 7.6 2.8z"  fill="#fff" /><path d=""  fill="#fff500" /><path d="M256.7-328.6c-32.6 87.1 30.7 140.9 23.5 218.5-6.2 67.2-81 90.1-118.1 137.1-5.5 7-19.7 40.7-26.9 42-6.1 1.1-7.4-8.7-1.1-9.1 7.3-0.5 5.5 11.5-1.4 8.9-8.4-3.2 4.5-21.4 7-25.9 31.2-57.5 108.8-84.6 128.8-137.7 21.4-56.7-23.9-117-28-173.8-1.3-18.2-1.9-47.7 8.4-63.8 2.9-4.5 8.8-0.9 7.8 3.8z"  fill="#005bbb" /><path d="M259-396.8c-14.2 44.7-30.5 85.1-26 133.1 4.5 48.5 29.8 100 13.9 148.6-15 46-61.7 68.4-95.4 98.8-3.6 3.2-15.3 18.9-20 8.9-2.3-5 3.7-10.1 8.3-7 5.4 3.7 0.8 12.2-5.3 9.8-10.6-4.3 5.3-16.6 8.6-19.7 33.4-31.6 83.9-53.9 98-101 17.3-57.7-19.8-120.6-15.3-180.2 2.1-28.8 10-70.3 25.5-94.9 2.8-4.5 8.7-0.9 7.7 3.6z"  fill="#fff500" /><path d=""  fill="#fff" /><path d="M274.9-192.9c58.8 137.7 35 131.3-61.4 223.4-6.6 6.3-35.5 49-41.3 47.5-8.8-2.3 0.6-15.1 5.5-7.4 4.1 6.6-8.1 10.9-9.1 3.2-3.5-28.5 105.2-103 121.1-134.4 21.9-43.1-0.2-88.3-17.9-128.4-1.3-2.9 0.7-8 3.1-3.9z"  fill="#005bbb" /><path d="M283.8-32.5c-26.3 33.3-65.7 53.1-91.7 87.1-3.8 5-12.9 25.3-19.7 23.5-6.5-1.7-3.2-11.7 3-9.4 7.3 2.8 0.2 13.6-5.3 8-6.9-7.1 19-35.8 23.9-41.5 11.5-13.5 71.7-71.5 83.6-76.2 5.6-2.2 9 4.2 6.2 8.5z"  fill="#005bbb" /><path d="M278.3-396.9c-14.4 36.1-34.3 68.9-36.8 108.7-5 81.1 64.3 165.4-9.5 232.9-5.5 5-22.9 23.7-30.7 21-6.7-2.3-4.3-12.7 2.8-11.9 8.2 1 6 13.9-2.1 12-16.7-3.9 23.1-30.6 27.1-34.2 15.9-14.7 27.9-32.9 31.2-54.6 9.2-59.7-31.2-116.7-25-177.9 3.1-31.2 16.3-75 35.2-100.4 3.3-4.4 9.2-0.3 7.8 4.4z"  fill="#fff" /><path d="M297.5-332.3c-21.6 31.6-27.4 68.5-14 104.7 37.4 101.2 149.7 132.8 105.4 260.8-2.7 7.8-12 43.3-20.4 44.8-8.5 1.5-5.4-13.2 1.7-8.5 7.2 4.8-5.1 13.3-7 4.9-0.3-1.2 31.3-83.5 29.7-110.4-4.8-85.4-99.1-128.4-119.8-208.2-6.4-24.6-4.7-50.4 5.3-73.7 9.1-21.2 26.2-29.1 19.1-14.4z"  fill="#005bbb" /><path d="M291.2-396.6c-22.1 49-50 88.7-42.1 145.2 7 50.6 41.7 100.3 31.2 152.7-2.2 10.7-29.6 71.3-45.8 60.1-5.7-3.9-0.8-13 5.6-10.4 6.4 2.6 3.6 12.5-3.2 11.4-15.9-2.7 15.5-27.4 18.4-31 11.8-14.2 18.8-31.4 19.9-49.9 3.4-61.7-40.4-115.3-33.7-178.6 3.6-33.2 20.6-78.4 41.9-104.5 3.6-4.4 9.4 0.2 7.8 5z"  fill="#005bbb" /><path d="M300-396.6c-18.1 37.6-44.7 69.8-47.9 113.1-6.5 87.4 87.6 175.1 6.8 251-5.8 5.5-25.4 26.5-33.5 23.9-6.7-2.2-4.4-12.5 2.6-11.8 8.2 0.9 6.1 13.7-2 11.9-16.9-3.7 23.1-30.8 27-34.3 16.8-15.3 29.8-34.2 33-57.2 9.1-66.6-46.9-124.5-40.4-192.9 3.4-35.3 23.3-82.1 46.6-108.9 3.8-4.4 9.6 0.4 7.8 5.2z"  fill="#fff500" /><path d="M315.1-147.9c44.2 71.8 46.3 126.7-6.9 194.6-5.1 6.5-22.4 33.4-31.1 32.1-10.3-1.6-1.1-17.1 5.3-8.9 6.3 8.2-11 13.2-10 2.8 0 0 59.6-73.9 67.2-104.6 9.9-40.2-6.1-78.1-26.4-112.2-1.3-2.1-0.8-7.2 1.9-3.8z"  fill="#c2e1ff" /><path d="M313.1-395.9c-29.8 56.1-67.8 97.1-48.8 165.3 11.2 40.1 36.6 74.5 47.4 114.7 2.1 7.8 11.1 60.2-2.9 60.1-6.7 0-4.3-10.9 1.9-8.1 6.1 2.9-0.7 11.7-5.1 6.6-3.5-4.2 2.4-16.4 3.1-21.4 1.6-13.1 0.2-26.3-3-39.1-16-63.9-65.6-115.5-51.3-185.7 6.6-32.2 28.6-74.2 51-98.1 4.1-4.3 9.8 0.8 7.7 5.7z"  fill="#005bbb" /><path d="M328.2-154.9c53.2 64.5 84.7 110.7 51.7 195.3-2.7 7-11.1 36.8-19 38-8.6 1.3-5.2-13.5 2-8.5 7.2 5-5.5 13.4-7.3 4.8-0.9-4.3 34.9-83 31.6-117.1-4-40.9-30.5-73.9-55.9-104.4-0.5-0.5-7.3-12-3.1-8.1z"  fill="#fff" /><path d=""  fill="#fff" /><path d="M342.6-105.9c25.6 53.9 12.9 105.6-19.6 153.2-5 7.3-16.7 29.6-25.5 31.7-7.2 1.6-9.2-9.8-1.8-10.7 8.6-1 7.1 13.2-1.1 10.6-11.3-3.7 6.7-19.8 9.6-23.5 17.4-22.4 33.7-47.1 41.7-74.6 5.2-18 6.2-36.8 2.5-55.1-2.1-10.5-11.2-40.8-5.8-31.6z"  fill="#c2e1ff" /><path d="M351.1-269.8c-8.2 60.1 62.8 97.3 96.5 136 39.7 45.5 45.1 99.1 33.7 156.6-1.9 9.4-6 51.6-14.5 54.8-7.1 2.7-6.9-10.5 0.2-7.6 7 2.9-2.2 12.3-5.3 5.4-4-9.1 8.1-37 10.2-47 7.1-32.2 12.5-66.1 5.2-98.8-15.5-68.9-81.5-95.7-118-149.9-8.3-12.4-20-35.2-15.1-50.8 1.3-4.3 6.9-2.6 7.1 1.3z"  fill="#fff500" /><path d="M358.5-292.2c-38.6 76.1 72.6 127.9 106.4 181.2 26.2 41.3 25.5 88.7 16.2 135.1-1.8 9-5.9 49.7-14 52.8-7.1 2.7-6.9-10.5 0.1-7.5 7 2.9-2.2 12.3-5.3 5.4-1.7-3.9 21.9-100.1 17.4-133.4-11.1-81.3-91.7-106-126-171.8-9.7-18.5-12.4-40.3-5.3-60.2 2.4-6.9 13.4-11.3 10.5-1.6z"  fill="#fff" /><path d="M361.9-133.8c49.8 51.6 68.8 104.3 46.3 174.2-2.3 7.1-8 35.4-15.2 37.1-8 2-6-12.2 1.1-8.2 7.2 4.1-4.1 13-6.4 5.2-0.9-2.9 26.8-83.4 24.5-110.6-3-35.4-23.1-64.5-46.4-90.1-0.3-0.4-7.8-10.8-3.9-7.6z"  fill="#fff500" /><path d="M372-389.9c-36.2 52.4-102.8 91.6-68.6 164.9 33.6 71.8 127.7 98.2 141.7 182.2 0.8 4.7 5.6 27-0.9 28.6-5.4 1.3-5.6-7.9-0.2-6.9 6.4 1.3 0.2 10.8-3.5 5.5-0.9-1.2-4.6-56.3-24-83.7-41-58-132.2-93.7-129.4-175.9 1.5-42.7 45.7-95.5 77.4-121.8 4.9-4.1 10.3 2.2 7.5 7.1z"  fill="#c2e1ff" /><path d="M375.1-179.7c74.9 63.8 116.4 104.7 93 209.1-1.9 8.5-6.2 45.1-14 47.9-7.2 2.6-6.7-10.8 0.3-7.6 7 3.1-2.5 12.5-5.5 5.3-0.8-1.9 25.2-104.5 15.4-142.6-11.5-44.9-46.9-75.2-81.3-103.3-0.9-0.7-11.1-10.8-7.9-8.8z"  fill="#fff500" /><path d="M383.5-75.8c15.9 36.2 11.9 74-1.5 110.2-2.6 7-14.2 45.2-22.8 43.8-7.3-1.3-2.6-12.8 3.5-8.5 7.2 5-5.6 13.4-7.3 4.8-1.2-5.7 24.7-60.3 27.8-72.8 3.9-16 5.4-32.5 3.2-48.9-1.1-8.1-8.1-20.4-7.3-28 0.3-2.5 3.3-2.5 4.4-0.6z"  fill="#005bbb" /><path d="M388.9-193.8c76.1 77.5 117.4 104.4 92.9 222.4-1.7 8.2-5.5 45.9-13.1 48.8-7.1 2.7-6.9-10.4 0.1-7.5 7 2.9-2.2 12.3-5.3 5.4-0.2-0.4 23.5-112 14.9-148.5-11.9-50.1-51.7-81.3-87.1-115.2-0.1-0.1-6-8.2-2.4-5.4z"  fill="#005bbb" /><path d=""  fill="#c2e1ff" /><path d="M406-290.9c-40.6 74.1 60.7 128.4 86.1 189.1 21.1 50.3 9.4 105.2-1.2 156.5-0.9 4.3-1.6 24.6-8.9 22.7-4.5-1.2-3.5-8 1.1-7.8 4.6 0.2 5.1 7.1 0.6 7.8-9.7 1.8 0.1-27.6 0.9-31.6 7.4-35.7 15.4-72.6 11.7-109.2-8.1-79.3-77.8-105.4-102-171.1-6.3-17-8.8-46.2 3.7-61.5 3.7-4.5 9.6 0.2 8 5.1z"  fill="#c2e1ff" /><path d="M412.1-261.8c-6.6 56.5 55.5 96.2 79.4 141.5 28.8 54.3 17.1 114.8 6 172.2-0.9 4.9-1.5 27.3-9.1 25.4-4.4-1.1-3.5-7.9 1-7.8 4.6 0.1 5.1 6.9 0.7 7.8-9.7 1.9-0.5-26.1 0.2-30.3 7.5-38.9 16.5-79.4 11.4-119.2-8.2-62.6-58.2-95-85.9-147-7.1-13.3-11.3-27.8-10.9-43 0.1-4.8 6.8-4.2 7.2 0.4z"  fill="#c2e1ff" /><path d="M415.9-162.7c67.7 60.4 80.4 114.8 60.5 202-1.4 6.3-5.4 38.2-12.4 38.4-4.7 0.2-5.7-6.8-1.1-8 5.4-1.4 7.1 7.2 1.6 7.9-10 1.4 1.1-28.1 2.1-32.3 8.5-35.3 16.7-72.3 10.3-108.6-6.6-37.3-29.3-67-56.2-92.4-0.4-0.3-8.2-9.5-4.8-7z"  fill="#fff500" /><path d="M426.3-387.2c-28.9 47.7-107.3 84.1-82.7 150.1 29.4 78.7 131.4 91.6 138.6 196.2 0.3 4.9 3.4 27.2-3 28.5-5.7 1.1-5.4-8.5 0.2-7.1 6.6 1.6-0.3 11.2-3.9 5.5-0.3-0.5-1.5-64.5-19.9-94.4-33.7-54.7-128.9-91.5-123.1-165.3 3.3-41.4 39.1-66.7 65.4-94.5 6.5-6.9 13.8-21.8 21.7-26.2 4.9-2.7 8.8 2.8 6.7 7.2z"  fill="#c2e1ff" /><path d="M433-385.3c-27.9 46.8-104.5 83.7-81.3 147.8 30.1 83 135.9 90.2 134.5 209.2-0.1 4.5 1.8 20.6-4.1 21.6-6.8 1.1-4.3-10.6 1.4-6.7 4.9 3.3-2.2 10-5.2 5-0.6-1 0.3-68-16.6-97.9-31.5-55.9-127.3-94.1-120.7-167.2 3.6-40.2 38.5-65.1 63.9-92.4 7.3-7.9 12.8-18.5 20.5-25.7 4.5-4.2 10 1.5 7.6 6.3z"  fill="#c2e1ff" /><path d=""  fill="#c2e1ff" /><path d="M446.6-356.9c-22.3 32.1-63.3 61.7-60.3 104.9 3.2 45.6 48.8 76.5 75.3 109.2 37.1 45.9 43.6 97.7 34.1 154.6-1 6-2.5 32.5-9.3 32.9-7.4 0.5-3.4-11.8 2.3-7 4.9 4.1-3.4 10.5-6.2 4.8-3.7-7.9 5.7-32.3 7.1-41.3 4.5-28.4 6.3-57.7-1.2-85.7-18.2-68.1-118.5-118-108.2-188.1 4.6-31.3 35.2-71.4 58.8-91.4 4.9-4.1 10.3 2.1 7.6 7.1z"  fill="#fff" /><path d="M450.3-185.9c61.9 78.9 71.7 123.1 53.7 221.9-1.2 6.4-3.7 40.9-10.5 41.5-5.3 0.5-5.6-7.9-0.3-7.8 4.5 0.1 5.2 6.8 0.7 7.7-9.6 2-0.8-25.6-0.1-29.6 7.2-39.1 16.3-79.5 11.9-119.4-4.6-41.6-26.9-74.3-52.5-106-0.5-0.6-7.1-12.4-2.9-8.3z"  fill="#005bbb" /><path d="M458.1-78.8c15.6 36.3 11.3 76 2.2 113.4-1.7 6.9-7 42.7-14.6 42.8-7.7 0-2.8-12.5 2.9-7.2 4.8 4.5-4.2 10.7-6.8 4.6-2.1-5.3 15.7-63.9 17.6-75.5 2.5-16.3 3.4-33 1.2-49.4-1.1-8.1-7.8-20.6-6.9-28.2 0.3-2.5 3.4-2.5 4.4-0.5z"  fill="#fff500" /><path d="M466.9-305.4c-9.4 23-14.9 47.1-7.9 71.5 11.4 39.9 44.9 69.6 60.6 107.8 21.1 51.2 10.3 106.5 2.3 159.3-1 6.5-2.3 42.8-9 43.8-6.9 1-4.1-10.9 1.7-6.8 4.9 3.5-2.5 10.1-5.5 4.9-4.6-8.1 16.3-119.4 16.2-140.9-0.3-81.8-58.8-110.1-74.1-177.3-4.3-18.9-3.8-49.8 7.8-66.5 3.1-4.5 9.1-0.5 7.9 4.2z"  fill="#fff500" /><path d="M473.1-277.7c-7.2 58.5 43.1 97.8 61.4 148.9 18.5 51.5 5.7 106.6-1.2 159-0.9 6.7-1.5 45.4-8.1 46.6-6.7 1.2-4.3-10.5 1.4-6.7 5.7 3.8-4.1 10.6-5.6 3.8-5.9-25.6 18.1-119.9 16.2-159.4-2.9-60.1-45.2-95.9-65-149-5.2-13.9-7.5-28.9-6.4-43.8 0.4-4.8 7.1-4 7.3 0.6z"  fill="#c2e1ff" /><path d=""  fill="#005bbb" /><path d="M485.3-239.8c12.5 39.6 44.6 69.5 57.8 109 17.1 51 3.5 105.4-2.9 157.1-0.9 7-1.4 49.4-7.9 50.6-6.6 1.3-4.4-10.3 1.3-6.6 5.7 3.6-3.9 10.5-5.5 3.9-7-28.3 19-126.8 16.1-169.6-3.6-54-39.4-88.2-60.2-135-1.2-2.7-2.3-16.6 1.3-9.4z"  fill="#005bbb" /><path d="M493.7 45.8c-1.1 5.3-3.1 33.4-10.6 31.5-5.2-1.3-2.7-9.4 2.3-7.6 5 1.9 1.6 9.7-3.1 7.3-10.3-5.2 13.4-54.7 11.4-31.2z"  fill="#fff" /><path d="M498.1-155.9c39.9 62.3 29.8 127.2 19 196.5-0.9 5.8-1.7 35.5-8.2 36.4-7 0.9-4-11 1.7-6.8 4.9 3.5-2.6 10.2-5.5 4.9-4.2-7.4 15.6-110.3 16.2-129.5 0.8-26.8-3.3-53.2-14.4-77.7-8.5-18.6-12.2-28.2-8.8-23.8z"  fill="#fff500" /><path d="M504.9-203.9c59.8 95.5 49 126.7 36 234.3-0.8 6.6-0.8 45.4-7.2 46.6-6.6 1.3-4.4-10.2 1.2-6.6 5.7 3.6-3.8 10.5-5.4 3.9-7.3-29 17.3-122 16.6-161.6-0.8-43.4-19.9-77.4-42.9-112.8-1.3-2-1-7 1.7-3.8z"  fill="#c2e1ff" /><path d="M514 18.6c-1.2 7.5-6.7 59.9-13.9 58.4-5.1-1.1-2.9-9.1 2.1-7.4 5 1.7 1.9 9.3-2.8 7.2-5.6-2.6-0.1-17.1 0.5-21.3 2-11.9 1.9-27.9 6.7-39 1.9-4.3 7.5-2 7.4 2.1z"  fill="#c2e1ff" /><path d="M511.1-396.6c-18.7 48.9-56.2 109.6-38.7 163.2 29.8 91.7 82.2 75 64.7 213.2-0.7 5.4-0.5 28.4-6.9 29.2-7 0.9-4-11 1.8-6.9 4.9 3.6-2.6 10.2-5.6 4.9-2.7-4.9 7.8-77 7-91.4-4.2-72-72.5-117-72.4-184.1 0.1-33.8 44.8-134 44.9-134 3.7-0.9 6 2.7 5.2 5.9z"  fill="#005bbb" /><path d="M525.5-253.9c17.7 37 50.4 64.4 61.5 104.9 15.1 55.6-9.2 114-15.2 169.2-1.3 11.8 3.2 46.8-3.6 55.5-3.4 4.3-9.1-2.7-4.3-5.2 4.8-2.5 7.1 6.3 1.7 6.5-11.5 0.5 19.8-186.9 19-202.4-2.5-51.2-38.2-82.6-61.5-124.6-1.5-2.6-0.1-7.6 2.4-3.9z"  fill="#c2e1ff" /><path d="M534.2-27.6c-1.2 11.3-12 106-18.2 104.9-5-0.9-3.2-8.7 1.7-7.2 4.9 1.4 2.2 9-2.4 7-5.8-2.4 6.4-98.8 12.1-107.2 2.3-3.4 6.8-1 6.8 2.5z"  fill="#005bbb" /><path d="M540.4-320.3c2.6 46.7 58.7 97.5 59.3 111.1 2.2 48.3 10.3 113.5 2.1 164.3-6.1 37.8-15.7 72.3-16.3 111.1 0 2.5 1.3 12.8-4.7 10.4-3.7-1.5-2.1-7.2 1.9-6.5 3.9 0.7 3.6 6.5-0.4 6.7-7.3 0.4-3-35.5-2.7-41.2 1.7-28.8 11.7-56.1 14.2-84.4 1.9-22.1 0.2-45.7 0.4-67.6 0.2-31.1 1.3-62.2 1-93.3-0.1-9.7-47.6-63.6-54.7-83-7.8-21.2-2.7-39.5-0.1-27.6z"  fill="#fff500" /><path d="M546.5-129.7c15.6 49.5 2.6 102-3.8 151.9-1.4 11.2 1 45.5-6 53.5-3.8 4.3-9.4-3.4-4.2-5.7 5.3-2.3 7.1 7 1.4 6.9-8.5-0.2 8.4-105.8 9.9-117.8 2.8-22 4.7-44.3 1.9-66.4-2.9-23-2.7-30.9 0.8-22.4z"  fill="#005bbb" /><path d="M552.3-263.9c8 13.2 47 54.7 47.6 66.6 2.1 41.6 9.4 98.2 2 142.2-7.1 42.3-18.1 80.7-18.5 124.3 0 1.9-2.2 13.3-6.3 6.2-6.6-11 15.8 1 3.1 1.7-7.2 0.4-3.2-29.2-3.1-34.5 1.5-34.9 13.5-67.3 16.9-101.4 1.9-19 0.3-39.4 0.5-58.2 0.3-26.7 1.2-53.5 1-80.2-0.1-13.3-25.1-36.5-32.9-46.6-4.6-6-15.1-26-10.3-20.1z"  fill="#fff500" /><path d="M561.1 63.1c-0.1 2.8 1.5 16.1-5.1 13.2-3.7-1.6-1.9-7.3 2-6.6 4.6 0.9 2.8 8.1-1.7 6.7-11.6-3.6 3.8-24.8 4.8-13.3z"  fill="#fff" /><path d="M565.9-190.9c48.5 74.4 6.3 171.1 2.2 264.1-0.3 6.5-10.3 2-5.9-2.4 4.5-4.6 9 5.6 2.6 5.8-13.4 0.5 16.3-158.9 17.7-172 2.6-24.3 1.1-48.7-8.3-71.6-3.1-7.6-9-14.8-11.5-22.5-0.7-2 2-2.9 3.2-1.4z"  fill="#fff" /><path d="M572.4-259.9c39.1 54.9 27.3 31.6 30.4 143.6 2.2 81.3-7.9 85.1-13.3 150-1 12.1 2.2 29.8-1.7 41.1-0.9 2.7-4.7 3.1-6.1 0.7-6.5-11 15.9 1 3.1 1.6-6.5 0.3-3.5-13.9-3.5-17.4 0.5-33.6 10.5-65.1 12.7-98 4-60.2 2.6-124 3-183.6 0-5.2-12.6-17.3-15.9-21.5-1.4-1.8-13.1-21.2-8.7-16.5z"  fill="#c2e1ff" /><path d="M580.9-327.5c1.8 16.1 18.7 40.1 19 50.9 2.3 89.5 5.1 180.6 2.3 270.4-0.7 20.6-6.2 41.2-7 62.1-0.2 4.1 2.3 19.1-2.9 20.5-4.5 1.2-6-6-1.4-6.7 4.6-0.7 5.3 6.6 0.7 6.8-7.4 0.3-2.3-43.2-1.7-49.4 4.7-49.3 4.3-96.7 4.6-147 0.4-52 1.5-104.1 1.6-156.1 0-9.2-14.7-27-17.8-36.9-5.4-17.5 0.9-20.3 2.6-14.6z"  fill="#fff500" /><path d=""  fill="#fff500" /><path d="M595.3-86.4c-5.8 39.2-17.2 77.2-20.5 116.8-0.5 6.2 0.6 46.5-5.4 46.1-4.6-0.3-3.8-7.6 0.8-6.7 4.6 0.8 2.9 7.9-1.5 6.6-6-1.7-2.1-25.6-1.9-30.9 0.7-18.7 14-128.7 22.3-135.5 2.9-2.4 6.4 0.3 6.2 3.6z"  fill="#fff500" /><path d="M601.4-140.3c6.9 51.9-15.7 103.7-22.1 154.6-0.9 7.6-2.1 63-7 62.8-5.4-0.3-2.9-9 1.9-6.4 5.6 3-2.9 10.1-4.9 4-9.3-28.1 7.8-97.4 14.5-126.7 4.4-19.2 9.6-38.8 11.1-58.5 0.6-8.4-4.6-26.8 1.4-31.9 2-1.7 4.5-0.2 5.1 2.1z"  fill="#005bbb" /><path d="M602.6-62.1c-9.9 37.5-18.4 74.5-19.8 113.4-0.2 4.7 2.5 23.8-2.9 25.3-5.2 1.4-5.7-7.5-0.3-6.7 4.6 0.8 3 7.9-1.5 6.6-15.7-4.4 9.6-128.4 16.9-141.6 2.4-4.4 8.3-1.4 7.6 3z"  fill="#005bbb" /><path d="M602.5 9.5c-1.5 8.1-4.9 67.6-9.1 67.3-4.6-0.3-3.8-7.6 0.9-6.8 4.6 0.8 2.9 7.9-1.6 6.6-7.5-2.2-0.9-61.9 2.4-69.3 1.9-4.4 7.6-2 7.4 2.2z"  fill="#fff" /><path d=""  fill="#fff500" /><path d=""  fill="#005bbb" /><path d=""  fill="#fff" /><path d=""  fill="#fff500" /><path d=""  fill="#005bbb" /><path d="M564.4-396.3c-18.7 36.1-23.9 78.8-4.9 115.8 8.7 17 21.1 31.6 32.6 46.8 1.2 1.6 11.6 12.3 6.9 13.4-2.2 0.5-2.8-3-0.5-3.3 2.6-0.3 2.2 4-0.4 3.2-5.3-1.8-14.5-19.5-18.2-24.3-21.8-28.2-40.1-57.1-39.4-94.1 0.4-18.1 3.9-47.9 16-62.5 3.7-4.5 9.5 0.2 7.9 5z"  fill="#005bbb" /><path d=""  fill="#005bbb" /><path d=""  fill="#fff500" /><path d=""  fill="#fff" /><path d=""  fill="#005bbb" /><path d=""  fill="#fff500" /><path d=""  fill="#fff" /></svg>