<svg width="1200" height="675" viewBox="-500 -500 1200 675" xmlns="http://www.w3.org/2000/svg"><path d="M-500-500h1200v675h-1200z" fill="#000"/><path d="M-395.7 38.9c3.5 4.7 35.2 33.7 33.3 35.8-1.6 1.8-4.5-0.2-3.3-2.3 1.3-2.4 5-0.1 3.5 2.2-3.2 4.5-37-26.6-39.6-31.5-2.1-4 3-6.8 6.1-4.2z"  fill="#c2e1ff" /><path d="M-394.5 17.8c7.5 14.1 47 48.5 48.6 55 1 3.9-6 3-4-0.5 1.7-3 5.9 0.8 3.2 2.8-7.1 5.1-53.5-44.7-56.5-53-2-5.6 5.3-8.3 8.7-4.3z"  fill="#fff500" /><path d=""  fill="#c2e1ff" /><path d=""  fill="#c2e1ff" /><path d=""  fill="#fff" /><path d="M-392.9-243.8c47.8 108.5 18.2 119 32.4 215.3 2.7 18 8.7 35.2 18.1 50.8 1.2 2 14 15.2 5.7 17.7-5.2 1.5-7.1-6.8-1.9-7.8 5.3-0.9 6.4 7.5 1 7.9-6.5 0.4-13.6-14.4-16.3-18.3-35.2-51.3-23.8-107.8-26.5-166-1.9-43.4-18.7-63.4-24.1-96.2-1.2-7.4 8.3-9.1 11.6-3.4z"  fill="#fff500" /><path d="M-378.4-101.3c1.7 43.2-0.1 87.2 24 125.2 4.3 6.8 44.1 50.6 41 52.1-3.6 1.6-5.8-4.2-2.1-5.4 4.4-1.4 5.1 6.2 0.6 5.6-5.5-0.6-12.6-11.3-16.2-14.7-40-38.6-61.6-78.8-64.6-135-0.5-9.1-2.6-20.5-0.7-29.4 2.3-10.9 16.5-8.1 18 1.6z"  fill="#fff" /><path d="M-361.7-349c10.3 54.8 44.2 98.1 51.4 158.2 7 59-14.8 119.7-2 177.5 5.8 26.1 19.5 48.8 34.7 70.5 1.6 2.3 17.3 18.1 7 20.5-5.1 1.2-7.6-6.1-3-8.3 5.5-2.6 9.1 6.2 3.5 8.2-7.8 2.8-16.7-18-19.9-22.5-68.7-97.1-29.9-142.9-37.7-246.9-4.3-56.9-47.9-139.1-48.4-155-0.3-9 11.3-9.5 14.4-2.2z"  fill="#fff" /><path d="M-351-398.2c-4 54.6 29.7 100.7 42.4 152 15.3 62.4 6.3 121.1 2.6 183.9-0.6 9.6 8.2 48.1-5 50.1-12.1 1.8-10.7-18.4 1.1-14.9 11.7 3.4 2 21.2-7.2 13.1-18.3-16 0.4-138.8-0.1-167.3-1.5-94.2-44.7-135.4-51.7-204.6-2.1-20.4 15.4-31.6 17.9-12.3z"  fill="#c2e1ff" /><path d="M-324.9-267.1c40.9 105.4-0.7 162.2 14.3 247.9 4.6 26.3 17.1 49.5 31.8 71.4 1.8 2.7 21.4 23.2 10.3 25.7-6 1.4-7.6-8.3-1.6-9 6.1-0.7 6.7 9 0.6 9.1-8 0-17.9-22.4-21.8-28-59-85.8-31.7-130.6-32.5-223.9-0.2-19.4-15.1-86-14.1-92.2 1.2-7.3 10.2-6.8 13-1z"  fill="#005bbb" /><path d="M-303.1-160.8c1.1 55.3-18.7 112.6 1 166.4 7.3 20.1 19 38 31 55.5 1.5 2.2 13.3 14.9 4 17-6.1 1.3-7.7-8.4-1.5-9.1 7.3-0.8 5.9 11.3-1 8.9-8.9-3-18.9-25.9-23.9-33.5-44-66.2-35-130.2-28.4-205.6 1.1-12.4 17.7-11.6 18.8 0.4z"  fill="#fff" /><path d=""  fill="#c2e1ff" /><path d=""  fill="#fff" /><path d="M-246.6-117.7c-1.9 40.7-0.6 81.6 12.9 120.5 4 11.7 31.9 65.3 30.3 71.9-2.2 9.3-16.6 2.4-10.6-5.2 7-8.8 16.7 8.1 5.6 9.8-10.7 1.6-19.2-31.9-22.5-38.9-23.8-50.6-38.4-102-35-158.7 0.8-12.7 18.1-11.5 19.3 0.6z"  fill="#fff" /><path d="M-227.5-343.2c-7.8 102.2-39.5 208.5-23.4 311.3 4.5 29.1 15.8 55.8 28.5 82.3 1.8 3.7 18.6 28.4 4.8 29-8.1 0.4-8-12.3 0-11.9 6.9 0.4 7.4 10.7 0.6 11.8-10.4 1.7-17.6-27.6-20.8-34.3-61.9-128.8-22.3-251.5-10.1-386 1.3-14.2 19.8-18.3 20.4-2.2z"  fill="#005bbb" /><path d="M-209-161.6c-5.9 65.4 16.8 120.8 48 176.7 4.4 7.9 37.7 59.4 24.1 64.3-6.8 2.4-11.5-7.3-5.4-11.2 7.2-4.5 13.6 7.2 6 10.9-11.8 5.7-25.2-41.6-29.2-49.3-28.9-56.8-59.9-106.9-62.8-172.6-1.7-38.7 18.2-32.2 19.3-18.8z"  fill="#c2e1ff" /><path d=""  fill="#fff500" /><path d="M-176.5 1.4c4.8 8.9 45.6 73 31.6 78.1-7.9 2.8-11.7-9.9-3.6-11.9 8.2-2 10.6 11.1 2.3 12.2-9.8 1.2-13.7-21.1-16.4-27-6.8-15.1-19.7-31.6-23.9-47.4-1.7-6.4 6.6-8.7 10-4z"  fill="#fff500" /><path d="M-152.5-192.3c-12.5 87 56.5 156.3 76 237.2 2.1 8.6 7.1 20.3 6.2 29.3-1.4 14-23 2.7-12.4-6.5 9-7.8 18.5 9.6 7 13-14.8 4.3-24.5-69.1-28.4-80.4-20.5-59.4-64.3-109.4-68.3-174.1-2-33.2 18.9-39 19.9-18.5z"  fill="#005bbb" /><path d="M-132.1-389.1c-13.3 27.8-21.1 58-30.9 87.1-22.9 68.1-50.2 133.9-33.8 207 8.9 39.7 30 73.5 50 108.4 2 3.6 19.6 26.8 6.1 27.9-9 0.7-7-14.2 1.5-11.1 7.3 2.7 2.4 13.9-4.5 10.5-10-5-19.1-34.5-24.9-44.3-36.3-62.3-60.5-123.7-49.2-197.2 3.9-25.5 53.5-192.7 66-203 10.8-8.9 23.1 3.1 19.7 14.8z"  fill="#c2e1ff" /><path d="M-114.6-210.7c-15.5 74.2 41.8 172.6 52.7 253.1 1.3 9.6 5.5 22.8 3.9 32.3-2.1 12.7-21.9 4.7-14.7-5.9 8.5-12.4 23.1 9.3 8.4 12.5-3.5 0.8-7.2-1-8.9-4.2-10-19.1-11.4-79.3-18-105.3-14.2-55.4-45-107.5-45.2-165.9-0.1-30.9 21.9-39.2 21.8-16.6z"  fill="#fff" /><path d="M-100.2 30.8c3.1 7.5 23.1 45.8 8.9 49.4-9.2 2.3-12-12.4-2.6-13.7 9.4-1.3 10.6 13.6 1.1 13.9-10.7 0.3-20.9-40.6-19.9-48.3 1-7.1 9.7-6.9 12.5-1.3z"  fill="#fff" /><path d="M-75.8-352.5c-32 68.2-77.1 140.2-57.5 218.6 9.2 36.9 83 181.4 68.6 210.6-5.5 11.1-21.6-1.7-11.9-9.6 11.3-9.1 18.8 15 4.3 13.9-13.8-1.1-23.4-87.2-28.3-101.8-23-68.1-66-125-53.9-200.7 5.6-35.2 35-117.7 57-144.7 10-12.3 26.1 0.4 21.7 13.7z"  fill="#fff" /><path d="M-59.6-147.4c0.4 57.8 8.4 115.6 10 173.5 0.3 9.7 9.6 55.2-6.5 55.8-10 0.4-12.2-14.3-2.5-16.9 11.3-3 15 15.1 3.5 16.8-18.9 2.8-12.9-61.5-13.3-72-1-34.2-14.4-133.5-9.3-158.6 2.2-10.9 16.5-8.3 18.1 1.4z"  fill="#fff500" /><path d="M-38.4-300.5c-99.3 111.4-29.2 207.1-18 334.1 1.1 12.2 5.7 29.2 3.3 41.2-3.1 15.2-25.6 0.5-13-8.5 12.7-8.9 18.9 17.3 3.6 15.1-16.4-2.4-14.4-82.3-16.4-96.8-11.1-82.3-53.3-165.5-17.9-247.4 7.3-17 22.7-53.3 41-61 15.3-6.4 25.1 11.3 17.4 23.4z"  fill="#fff" /><path d="M-37.5-393.1c-30.9 76.7-96.6 145.9-86.4 234.1 4.6 39.7 23.6 75.5 37.2 112.4 1.7 4.6 14 28.9-0.9 27.7-6.9-0.6-8.7-10.3-2.5-13.3 7.3-3.6 13.9 6.7 7.5 11.8-11.4 9.1-15.1-16.8-16.5-21.1-21.7-66.2-56.1-124.1-39.4-196.2 5.9-25.6 65.3-157.8 81.6-170.5 11-8.7 23 3.6 19.4 15.1z"  fill="#fff500" /><path d="M-1.5-261.2c-80.5 64.7-48.6 198.4-47 291 0.2 13.8 4.4 32.5 1.2 45.8-3.7 15.6-26.5-0.5-13.1-9.2 13.4-8.8 18.9 18.6 3.2 15.7-18-3.3-10.4-90-10.9-105.1-2-72.5-22.2-161.7 17.1-227.4 7-11.8 19.9-34.2 34.3-38.2 17.2-4.7 25.1 15.6 15.2 27.4z"  fill="#fff" /><path d="M17.4-236.8c-65.9 56.5-57.9 164.3-60.6 243.5-0.4 12.3 2.6 64.5-2.1 71.8-8.9 13.7-25.3-9.6-9.4-13.3 13.6-3.2 13.9 19.9 0.3 17.1-18.8-3.8-7.7-87.3-7.2-101.9 2.8-72-2-164.4 43.8-224.6 24.4-32.1 52.5-14.5 35.2 7.4z"  fill="#fff" /><path d=""  fill="#fff" /><path d="M55.6 50.4c-7.1 8.6-23.1 48.8-39.5 31.8-10.3-10.6 3.9-27.6 16.2-19.5 12.3 8.2 2.1 27.8-11.6 22.5-20.4-7.9 5.3-50.4 16.5-56.1 14.2-7.3 24.9 9.1 18.3 21.3z"  fill="#fff500" /><path d="M74.2-148.7c-29.8 49.7-71.5 93.7-90.2 149.3-4.1 12.3-10.4 88.8-27.6 81.6-11.9-5.1-2.9-23.4 8.4-17.1 11.3 6.3 0.4 23.5-10.2 16.1-7-5-4-17.9-3.6-24.7 4.1-71.2 35.6-126.9 75.7-183.8 8.5-12 15.7-28.4 26.1-38.6 12.1-11.8 27.7 3.6 21.4 17.2z"  fill="#fff" /><path d="M91.8-278.5c-98.7 88.6-106.7 80.5-125.3 219.1-3.9 29.4-4.3 117.8-9 134.9-1.3 4.8-6.6 7.7-11.4 6.1-11.4-3.8-4.4-21.5 6.5-16.5 12.8 5.9-1.3 24.6-10.4 13.8-11.5-13.5-2.8-58.5-1.9-75 4-72.9 6.9-166.5 48.2-229.3 13.3-20.3 65.8-76.4 89.2-81.5 17.6-3.9 24.7 17 14.1 28.4z"  fill="#fff500" /><path d="M111.8 69c-20.2 34.5-38 5.2-25.2-5.6 21.6-18.1 29.6 32.4 3.5 21.8-37.8-15.3 37.8-60.4 21.7-16.2z"  fill="#c2e1ff" /><path d="M124.4-394.9c-22.4 96-138.7 109.4-169.1 197.1-11.5 33.2-0.2 157.1-6.6 166.1-9.9 13.8-25.9-11.1-9.1-14.3 16.7-3.2 11.2 25.9-3.2 16.7-13.2-8.4-6.2-67.1-6.9-82-2.6-63-0.4-122.9 47.3-170.1 31.7-31.3 74.7-49.3 103.4-83.7 9.3-11.1 15.1-36.9 27.1-43.8 10.1-5.8 19.1 4.1 17.1 14z"  fill="#fff" /><path d="M149.2-271c-27.7 48.9-56.8 98.2-87.5 145.3-22.6 34.6-50.6 66.2-68.1 103.9-17.3 37.3-19.6 111.5-37 104.1-10.2-4.3-5.4-20.2 5.5-18.1 12.7 2.4 7.8 22.2-4.5 18.4-26.6-8.1 11.2-111.9 18.6-128 22.8-50.1 61.4-92 89.4-139.2 11.2-18.9 50.5-96.2 64.7-105 12.8-7.9 24.2 6.6 18.9 18.6z"  fill="#c2e1ff" /><path d=""  fill="#c2e1ff" /><path d="M185.3-3.9c-57 41.5-47.4 56.9-74.2 85.8-4.9 5.3-13.5 5.3-18.5 0.1-10.3-10.7 3.9-27.7 16.2-19.4 14.4 9.6-2 31.5-15.2 20.4-25-20.9 55-106.4 74.5-115.2 18.6-8.4 30 15.5 17.2 28.3z"  fill="#fff" /><path d="M203.9-347.8c-5.8 63.3-20.7 181-56 232.6-29.9 43.7-77.6 69.3-113.7 106.9-11 11.4-36.9 63.4-50.9 57-17.8-8.2 1.8-34.1 14.5-19.3 12.8 14.9-15.9 30.2-21.3 11.4-2.4-8.4 4.9-20.2 8.2-27.1 32.7-70.3 108.5-97.6 149.8-159.7 37.7-56.6 31.6-157.9 49.6-206.6 4.4-11.8 19.7-6.4 19.8 4.8z"  fill="#005bbb" /><path d="M218.4-397.9c-2.2 46.6-3.4 93.9-2 140.5 3 94.9 10.8 145-73.2 207.2-11.7 8.6-35.5 33.9-51.7 28-29.7-10.6 6.5-51.7 20.7-23.6 14.2 28.1-40.3 33-31.3 2.9 7.1-23.7 92.5-60.7 111.6-106.5 21.6-51.8-7.8-199.6 6.9-251.5 3.2-11.4 18.1-7.5 19 3z"  fill="#c2e1ff" /><path d="M242.7-116c-16 57.5-82.7 85.7-125.3 120.5-40.2 32.8-45.9 55.3-69 78.2-5.2 5.2-14 4.9-18.9-0.5-11.8-13.2 10.1-30.7 20.3-16.3 10.3 14.4-13.3 29.4-22 14-4.8-8.6 2.8-19.2 6.7-26.4 35.3-64.1 97.3-97.4 152.2-141.7 12.3-9.9 29-39.4 39.4-44.1 11.1-5.1 19.7 6.2 16.6 16.4z"  fill="#fff500" /><path d="M251.9-399c-0.8 75.9 34.7 141.8 93.3 188.4 31.5 25 114.4 80.9 119.5 123.7 1.1 9.2-14.2 7.7-11.4-1.1 3.4-10.3 17.9 1.8 8.3 6.9-6.9 3.7-42.7-61.8-50.9-70.5-64.6-69.4-137.9-86.8-167.1-189.7-4.7-16.5-13.1-41.8-9.7-59 2.1-10.9 16.4-8.4 18 1.3z"  fill="#c2e1ff" /><path d="M256.4-398.6c-0.3 69.9 33.5 131.3 87 174.6 27 21.8 103.6 69.5 110.6 104.6 1.6 8.1-12.1 7.8-10.2-0.2 2.3-9.4 16 0.3 7.9 5.6-7.8 5.1-35.5-43.5-41.7-50.1-61.6-65.2-135.4-88.7-162.6-184-4.1-14.5-11.6-36.4-8.9-51.6 2-10.8 16.1-8.5 17.9 1.1z"  fill="#c2e1ff" /><path d=""  fill="#fff" /><path d="M308.6-218.3c34.2 38.9 81.2 63.7 114.7 103.1 33.8 39.8 51.9 92.2 77.3 137.5 4.7 8.3 33.2 48.7 22.3 56.5-8.5 6.1-15.4-9.9-5-11.9 12.1-2.3 8 18.7-2.4 12.1-9.5-6.1-15-34.1-20.4-44.5-22.3-42.6-42.9-87.5-67.6-128.6-30.5-50.8-82.7-78.6-123.6-119.6-3.1-3.1 1.5-7.1 4.7-4.6z"  fill="#005bbb" /><path d="M326.7-210.9c33.8 31.5 75.6 53.9 105 90 34.5 42.4 52.7 98.2 78.8 145.9 4.5 8.2 31 46.3 20 53.9-10.3 7.1-15.2-14.1-2.8-12.1 10.6 1.6 4.1 18.2-4.8 12.2-8.8-5.8-13.4-32-18.3-41.7-22.6-45.4-44.3-92.9-69.4-136.9-26.2-45.8-69-72.5-108.8-105.1-2.8-2.3-5-9.8 0.3-6.2z"  fill="#fff500" /><path d="M352.2-68.7c6.6 33.5-26.1 158.8-54.2 154.8-17-2.4-11.8-29 4.9-24.8 16.7 4.2 8.6 30.1-7.5 24.1-23.1-8.6 12-57.1 17.7-68.8 9-18.2 17-37.1 20.5-57.2 1.5-8.8-2.1-25.1 3.3-32.5 5-6.7 13.8-2.7 15.3 4.4z"  fill="#c2e1ff" /><path d="M364.4-274c118.5 112.9 93.3 136.2 156 269.3 5.2 11.1 45.1 76 31.4 84.5-11.3 7-15.3-15.7-2.3-13.1 11.1 2.3 3.4 19.4-5.7 12.7-9.5-7-14.1-38.1-19.3-49.4-25.7-55.7-44.8-112.5-68.3-168.9-21.1-50.8-52.7-91.2-92.8-128.4-2.8-2.6-4.5-10.8 1-6.7z"  fill="#c2e1ff" /><path d="M382.5-198.6c72.2 53.8 86.1 112.7 123.7 189.3 5.6 11.5 48.9 79.7 35.8 88.2-9.2 6-15.7-11-4.8-12.6 12.7-1.9 7.6 19.9-3 12.5-9.4-6.6-13.7-34.7-18.7-45.2-20-41.7-39.8-82.6-57.9-125.2-14.8-34.8-34.4-65.6-62.6-91.1-3.9-3.5-13.4-8.6-15.6-13.5-0.9-2.1 1.5-3.5 3.1-2.4z"  fill="#fff500" /><path d="M395.9-399.4c1.2 48.2 38.7 89.5 56.8 132.3 23.6 55.7 34.5 117.7 49.3 176.2 2.4 9.5 25 63.8 13.7 67.5-9.6 3.2-11.3-13.5-1.2-12.3 10 1.1 4.6 17-4.1 11.7-13.4-8.2-36.8-119.5-42.2-140.4-11.4-43.9-20.7-88.8-41-129.7-13.9-28.1-32.4-54.3-42.7-84.1-9.8-28.4 6.3-39.3 11.4-21.2z"  fill="#fff" /><path d="M424.4-357.5c13.7 35.1 33.3 67.1 43.7 103.7 21.9 76.8 28 158.2 57.7 232.7 5.9 14.7 42.9 87 38.7 97.4-4.4 10.7-20.2-0.2-11.7-8.1 8.5-7.9 18.3 8.7 7.3 12.3-13.4 4.4-18.9-36.5-22.2-44.4-29.3-71.4-46.9-117.9-64.2-194.1-9.5-41.6-15.2-84.8-29.4-125.1-3.9-11.2-33.1-68.4-31.4-73.8 1.8-5.7 8.8-5.1 11.5-0.6z"  fill="#005bbb" /><path d="M442.7-2.5c4.6 10 45.5 77 33.2 81.4-7.9 2.9-11.7-9.8-3.5-11.8 8.1-2 10.6 11 2.2 12.1-9.4 1.2-40.7-67.8-42.8-78-1.5-6.9 7.5-9 10.9-3.7z"  fill="#fff" /><path d="M462.8-355.1c8.7 28.3 19.5 55.6 24.6 84.9 13.8 78.7 12.3 158.5 38.5 235.2 4.5 13.2 54.1 112.6 37.4 115.9-8.4 1.7-12.3-10.5-4.5-14 9.2-4 14.8 10.8 5.2 13.8-12.6 4-27.8-59.3-32.3-69.3-67.3-150.6-37-226.9-75.6-343.5-1.9-5.7-8.9-17.1-6.1-23.6 2.7-6.2 10.3-4.7 12.8 0.6z"  fill="#c2e1ff" /><path d="M472.8-399.1c0.1 40.2 18.5 78.5 24.5 118 8.6 57.5 5.2 115.9 14.7 173.7 2.4 14.4 24.4 84.7 22.7 91.2-2.7 9.6-17.3 1.9-10.9-5.8 7.6-8.9 17.1 9.1 5.5 10.3-20.1 2.2-34.9-103.3-37.3-118.5-8.1-51.9-5.9-104.1-12.2-156-4.2-34-17-65.8-22.7-99.4-3.2-18.8 11.7-32.2 15.7-13.5z"  fill="#005bbb" /><path d="M502.5-271.6c8.7 81.4 1.9 161.2 29.2 240.3 4.5 12.9 51.7 108.6 34.7 111.9-8.5 1.6-12.3-10.7-4.3-14.1 7.9-3.4 14.3 7.8 7.3 12.9-12.2 8.8-14.6-17.1-16.1-21.9-23.5-78.9-49.3-109.9-61.4-200.6-3-22.1-13.2-115.3-6.2-131.4 3.9-8.9 15.2-5.3 16.8 2.9z"  fill="#005bbb" /><path d="M517.5 3.5c5.2 10.3 41.3 67.4 28.6 75.6-8 5.1-15.4-7.9-7-12.2 8.5-4.2 14.5 9.5 5.6 12.8-12.1 4.5-16-25.9-18.4-31.7-4-9.7-21.9-33.3-19.2-43.4 1.4-5.3 7.8-5.1 10.4-1.1z"  fill="#fff" /><path d="M533.4-397.7c-7 45.1 3.1 91.1 2.4 136.3-0.9 64-9.3 126 2.3 189.9 2.6 14.4 26.6 76.9 24.7 83.8-3.2 11.3-19.4-1.1-9.3-7.1 8.6-5.2 13.9 10.6 3.9 11.7-11.1 1.2-16.9-29.9-19.4-36.7-33.2-88.7-20.5-174.1-20.9-265.9-0.1-36.7-5.9-73.2-4.2-110 0.7-14.9 20-18.1 20.5-2z"  fill="#005bbb" /><path d="M540.2-397c-8.3 45 0.6 91.4-0.2 136.7-1.1 58.6-8.6 115.6-0.6 174.2 1.7 12.4 20.2 60.3 13.8 69-6.3 8.5-17.8-4.7-8.5-9.8 9.2-5.1 14.1 11.7 3.6 12.5-13.4 0.9-20.1-46.3-22.2-55.7-15.4-69.4-6.1-137.4-4.9-207.4 0.7-40.4-7.1-81.9-1.8-122.1 1.8-13.7 20.8-10.6 20.8 2.6z"  fill="#c2e1ff" /><path d="M579.8-394.8c-30 70.5-18.3 267.9 1.7 343.5 3.8 14.4 32.7 75.3 22.7 86.7-7.7 8.8-19.2-6.8-8.5-11.6 10.7-4.7 14.5 14.2 2.9 14.1-12.2-0.2-15.4-36.1-18.1-44.5-11-34.6-21.6-69-27.4-105-10.6-66.9-18.5-229.6 3.7-291.1 5.5-15.2 26.2-7 23 7.9z"  fill="#fff500" /><path d="M588.5-393.5c-34.9 71.2-19.8 233.3-1.3 310 2.9 12.1 24.4 59.3 16.8 68.8-6.9 8.6-18.5-5.7-8.5-10.6 9.9-4.9 14.4 12.9 3.3 13.2-14.3 0.4-25.8-67.5-28.9-79.7-19.5-78.2-29-198.1-14.1-277.3 2-10.7 3.9-31.1 12.8-38.7 10.6-9 22.9 2.7 19.9 14.3z"  fill="#005bbb" /><path d=""  fill="#005bbb" /><path d=""  fill="#c2e1ff" /><path d=""  fill="#fff" /><path d=""  fill="#005bbb" /><path d=""  fill="#fff" /></svg>