<svg width="1200" height="675" viewBox="-500 -500 1200 675" xmlns="http://www.w3.org/2000/svg"><path d="M-500-500h1200v675h-1200z" fill="#000"/><path d=""  fill="#005bbb" /><path d=""  fill="#fff500" /><path d=""  fill="#005bbb" /><path d=""  fill="#005bbb" /><path d=""  fill="#fff500" /><path d=""  fill="#005bbb" /><path d="M-396.1-48.9c7.6 27.7 23.4 87.3 0.9 112.8-4.9 5.5-12.1-4.4-5.4-7.3 6.8-3 9.2 9 1.8 8.9-7-0.1 6.1-44.3 6.3-52.4 0.1-3.7-10.7-79.7-3.6-62z"  fill="#005bbb" /><path d=""  fill="#c2e1ff" /><path d=""  fill="#fff" /><path d="M-395.6-15.1c0.7 5.6 5.3 36.5-2.5 37.8-5.1 0.8-6-7.3-0.8-7.6 5.2-0.3 5.1 7.9-0.1 7.6-8.7-0.5-0.1-53.7 3.4-37.8z"  fill="#fff500" /><path d="M-396.3-85.3c11.9 34.7 51.9 127.2 28.4 161.2-3.9 5.6-11.6-2.7-5.8-6.1 5.9-3.5 9.4 7.3 2.6 8-9.4 0.9-1.3-17.7-0.6-21.2 2.7-15.2 2.4-30.7 0-45.9-2.9-18.7-30.7-86.5-29.3-95.6 0.4-2.7 3.7-2.6 4.7-0.4z"  fill="#fff" /><path d=""  fill="#fff" /><path d="M-396.2-111c9 28.3 72.4 168.8 57.5 186.6-3.7 4.4-9.5-3.1-4.3-5.6 4.4-2.1 7.4 5.1 2.7 6.7-7.8 2.7-4.4-16.9-4.5-19.9-0.6-16.6-4.2-33-9.3-48.9-12.9-40.2-34.3-77.1-46.9-117.3-1-3.2 3.4-4.4 4.8-1.6z"  fill="#fff" /><path d="M-396.1-126.7c5.6 20.4 90.6 197 72.5 203.5-4.9 1.7-5.9-6.8-0.8-6.3 6 0.6 1.2 10-2.8 5.4-2.5-2.9-9.9-50.5-13.5-60.1-17.2-46.4-44.2-88.3-58.8-135.8-0.9-3 0.4-13.8 3.4-6.7z"  fill="#fff500" /><path d="M-395.7-22.9c1.1 6.8 8 53.1-2.6 54.1-5.4 0.5-5.8-8-0.3-7.9 5.4 0.1 4.9 8.6-0.5 7.9-7.3-0.9-1.2-20.2-1.1-24.7 0.3-8.2-4-22.7-1.3-30 1.1-3.1 5.1-2.2 5.8 0.6z"  fill="#fff500" /><path d=""  fill="#fff500" /><path d="M-391.6-394.6c-63.6 29.3-1.7 0.4-3.6 206.9-0.5 50.8-2.9 104.1 0 155.2 0.6 10.2 10.6 38 3.7 46.6-3.6 4.4-9.4-2.9-4.3-5.5 5.1-2.5 7.3 6.6 1.6 6.8-6.8 0.2-3.6-20.4-3.9-24.7-2.5-30-3.1-58.6-3.1-89.1 0.2-100.5-1.3-201-0.7-301.5 0-7.4 17.7-4.3 10.3 5.3z"  fill="#fff" /><path d=""  fill="#005bbb" /><path d=""  fill="#005bbb" /><path d="M-364.8-226.6c-26.6 73.9 8.3 140.3 52.3 198.4 16.1 21.3 59.3 75 58.6 101.8-0.1 4.1-6.7 2.5-4.9-1.3 2.1-4.3 7.7 1.9 3.2 3.6-0.2 0.1-30.4-61.5-35-68.4-36.2-55.1-84.4-102.7-90.1-172-1.6-18.6-2.3-49.3 8-65.8 2.9-4.6 8.9-1 7.9 3.7z"  fill="#005bbb" /><path d="M-357.8-386.7c-56.3 74.5-35.4 13.5-38.2 193.1-0.5 34.4-5.3 81.5 0.9 117.6 1.7 9.8 37.9 112 23.6 111.3-5.5-0.3-3.1-9.1 1.8-6.5 4.9 2.6-1 9.5-4.4 5.1-2-2.6-6.5-48.2-8.9-56.9-22.4-79.4-17.7-61.6-17.9-170.6-0.1-53.6-1.1-107.2-0.5-160.9 0.1-4.8 32-38.2 37.1-40.4 5.5-2.4 9.1 3.9 6.5 8.2z"  fill="#c2e1ff" /><path d="M-350.9-302c-51.8 73.2-52.3 153.2-11.1 232.2 6.6 12.7 83.7 143.2 72.3 145.6-4.2 0.9-4.1-6.3 0-5.3 3.6 0.8 1.9 6.4-1.5 5.2-5.1-1.8-12.7-35-15.5-41.4-37.4-82.4-102.7-148.9-92.3-246.4 3.7-34.9 18.4-68 39.5-95.9 4.2-5.5 11.7 0.2 8.6 6z"  fill="#c2e1ff" /><path d="M-346.1 0.1c3.6 8.6 27.6 73.1 15.3 76.8-4.4 1.3-6.2-5.8-1.6-6.6 5.3-1 5 8-0.2 6.6-5.4-1.4-2.9-14.8-3.4-18.9-0.4-4-18.1-72.5-10.1-57.9z"  fill="#005bbb" /><path d="M-338.9-132.8c16.8 64.1 74.6 108.6 99.1 170 2 5 15.7 35.4 10.1 38.5-4.5 2.5-5.6-6.4-0.7-5.1 4.2 1.1 1 7.6-2.4 4.8-2.8-2.3-19.1-55.5-23.8-64.7-21.9-43.4-58.8-77.3-79.3-121.4-2.3-5-9.1-16.1-8.1-21.8 0.6-2.8 4.1-2.5 5.1-0.3z"  fill="#005bbb" /><path d=""  fill="#c2e1ff" /><path d="M-326.3-44.9c8.2 11.4 85.1 110.3 69.7 120.2-4 2.6-5.6-5.6-1-4.7 4 0.8 1.4 7-1.9 4.6-8.2-5.9-15-37.8-20.6-47.9-13.5-24.4-30.9-46.2-47.4-68.5-1.3-1.7-1.5-6.6 1.2-3.7z"  fill="#fff500" /><path d=""  fill="#fff500" /><path d="M-336.5-395.6c-6.2 10.7-56.4 69.7-56.5 71.5-3.1 82.3-3.1 117-2.9 188.3 0 13.2-1.7 30.3 0.9 44 1.3 7 11.5 21.5 9.6 28-1.2 4.2-7.3-0.5-3.5-2.7 3.8-2.2 4.9 5.3 0.7 4.3-15.9-3.7-12.6-70.4-12.6-73.6 0-19 0.2-38.1 0-57.1-0.4-45.4-1.6-90.7-1.7-136.1 0-8.4 22.4-26.9 27.9-33.3 9-10.3 19.9-33.6 31.2-40.2 4.8-2.9 8.9 2.6 6.9 6.9z"  fill="#fff" /><path d=""  fill="#c2e1ff" /><path d=""  fill="#c2e1ff" /><path d="M-289.8-176.2c2.3 59.7 63.1 164 77.8 245.1 0.5 2.9-2.4 12.1-5 5.4-3.4-8.6 12.5-0.2 3.4 1.8-3.2 0.7-19.5-70.1-22.1-78.5-15.7-50.3-45.7-96.7-57-148.1-5.3-24.1 1.3-34 2.9-25.7z"  fill="#fff" /><path d="M-283.1-173.3c5.3 69.2 60.8 162.2 73.2 246.3 0.8 5.5-8.6 3.3-5.4-1.3 3.2-4.6 8.5 3.5 3 4.7-3.4 0.7-19.2-72.1-21.7-80.8-14.4-49.6-40.4-96.2-51.7-146.5-5.1-22.5 0.9-30.1 2.6-22.4z"  fill="#c2e1ff" /><path d="M-275.2-344.7c-21.8 72.7-75.2 151.4-43.4 228.6 23.3 56.7 68.5 99.5 88.1 159 1.4 4.2 12.4 32.4 6 33.4-4.4 0.7-4-6.8 0.4-5.5 4.3 1.2 0.8 7.8-2.7 4.8-3.2-2.8-21.5-66.6-27-77.8-30.2-61.7-88.5-110.8-81.4-185.3 2-20.5 41.8-150.4 52.8-161.6 3.4-3.4 7.9 0.3 7.2 4.4z"  fill="#c2e1ff" /><path d="M-282.4-396.9c-21.3 77.3-91.7 140.1-92.6 222.5-0.4 31.3 8.9 61.7 23.5 89.1 1.2 2.3 15 23.3 10.2 22.7-2.3-0.3-1.7-3.9 0.6-3.4 2.3 0.5 1.2 4.1-1 3.3-6.7-2.4-14.9-23.5-18.1-29.7-59.8-116.6 16.9-176 58.5-276.6 3.5-8.4 5.6-25.7 11.7-32.1 3.3-3.4 7.8 0.1 7.2 4.2z"  fill="#fff" /><path d="M-261.7-397.5c-15.7 80.2-84.4 191.6-60.2 269.1 8.8 28.3 88.7 137.1 84.4 152-1.2 4.2-7.2-0.4-3.4-2.6 3.2-1.9 5.2 4 1.4 4.3-4.1 0.4-18.3-36.9-21.1-42.1-31.1-56.8-81-103.2-73.3-173.3 7.5-68.1 46.5-131 61.8-197.7 0.8-3.6 11.5-23.3 10.4-9.7z"  fill="#fff500" /><path d="M-256.6 43.1c1.9 4.2 15.3 31.1 9.3 32.6-3.5 0.8-4.5-4.7-1-5.2 3.5-0.4 3.9 5.1 0.4 5.2-0.4 0-15.2-43.8-8.7-32.6z"  fill="#005bbb" /><path d="M-249.7-43.9c11 24.4 40.8 92.6 36.9 117.8-0.7 4.6-8 1.8-5.4-2.1 3.1-4.6 8.5 3.3 3.1 4.6-4.6 1-12.8-44.4-14.6-50.6-2.9-10.3-28.2-63-23.9-70 1-1.6 3.1-1.2 3.9 0.3z"  fill="#fff500" /><path d=""  fill="#fff" /><path d="M-235.7 15.2c4.4 11.3 22.5 48.5 17 59.7-2 4.1-8-0.6-4.4-3.5 3.6-2.9 7 3.9 2.5 5-5.8 1.5-7.2-19.3-8.1-22.9-3.2-12.6-12.9-49.8-7-38.3z"  fill="#fff" /><path d="M-227.6-323.1c0.5 55 24.8 102.9 29.7 156.6 5.3 57.2-15.3 113.2-9.6 171.2 0.8 8 11.4 71.3 5.6 71.6-5 0.2-3.6-7.9 1.1-6.1 5.4 2.2-1.6 9.6-4.1 4.2-3.8-8.4-2.8-22.9-4.1-32.2-13.1-93.8 1.2-108.5 4.8-191.7 2-46.7-20.4-89.1-27-134.6-6.8-46.7 2.9-44.1 3.6-39z"  fill="#fff" /><path d="M-232.9-398.2c-6.8 52.4-13.2 105.9-5.3 158.6 7.3 48.7 19.6 94.1 20 143.8 0.1 8 4 70.9-0.6 71.1-5 0.2-3.5-8 1.1-6 4.6 1.9-0.2 8.8-3.6 5-6.2-6.8-3.8-91.6-4.6-106.9-3.7-67.4-26.3-129-21.7-197.7 1.4-20.9-0.2-50.2 7.3-69.7 1.7-4.4 7.4-2.3 7.4 1.8z"  fill="#005bbb" /><path d="M-214.6-194.6c16 63.7-2.3 128.6 4.6 193.3 0.9 8.5 12.8 77.2 7.1 77.6-5 0.3-3.6-7.9 0.9-6.1 4.6 1.8 0 8.7-3.4 5.1-13.1-13.8-13-155.8-10.8-181 4.4-49.2-7.2-85.7-3.1-90.1 1.6-1.8 4-0.7 4.7 1.2z"  fill="#fff" /><path d="M-207-348.2c2.2 58.9 34.7 106.5 39 162.1 4.5 58.7-34.4 111.1-35.5 170.2-0.2 10.1 8.1 92.2 4.3 92.4-14.2 0.5 12.1-11.1 2.1-1-5 5-5.8-5.4-5.9-7.1-3.9-43.1-11.6-85.6-3.6-128.7 7.2-38.5 28.6-73.7 31.7-112.9 3.6-46.5-24-88.1-33.3-132.6-10.6-51 0.4-46.3 1.2-42.4z"  fill="#005bbb" /><path d="M-202.6-398.2c-10.7 108.9 33.9 135.8 38.6 211.3 3.2 52.4-30.9 97.7-37.3 148.9-0.9 7.6 0.5 63.1-3.2 63.2-5 0.2-3.5-8 1.1-6.1 4 1.7 1 7.8-2.7 5.7-4.2-2.3-2.6-13.8-2.9-17.9-5.5-82.5 30.8-113.1 37.6-180.4 5.7-55.7-32-107.5-38-162.6-2-18.3-6.4-45.9-0.4-63.6 1.5-4.3 7.1-2.5 7.2 1.5z"  fill="#c2e1ff" /><path d="M-194.1-287.7c9.7 34.6 28.9 67 30.3 103.5 2.2 57.7-37 107.8-39 165.9-0.4 10.3 7.4 94.9 3.9 95.1-4.3 0.1-4.2-6.7 0.1-6.4 5.1 0.4 2.6 8.5-1.8 6-5.3-3-4.7-31.5-5.4-37.9-14.3-124.1 18.4-111.9 33.7-204.3 9.2-55.6-24.9-80.9-26.9-121.1-0.2-3.2 4-3.5 5.1-0.8z"  fill="#fff500" /><path d="M-185.4-61.4c-13 32-13.3 66.3-10.5 100.2 0.4 5.1 6.6 37.5 0 37.6-3.8 0.1-4.5-5.5-0.8-6.4 4.3-1 5.5 5.8 1.1 6.4-12.3 1.6-8.5-126.2 2.2-141.9 3.1-4.6 9.1-0.7 8 4.1z"  fill="#fff500" /><path d="M-180.4-294.8c11 34.9 31.4 67.8 31.2 105.4-0.3 60.1-46.9 108.3-51.2 168.6-0.8 10.6 5.5 97.6 2.5 97.7-14.3 0.4 12.3-11.1 2.2-0.9-5.3 5.3-5.8-6.5-6-7.9-3.8-44.6-11.2-88.7 0.7-132.8 10.1-37.8 34.7-70.3 42.5-108.7 8.9-43.8-13.8-79.7-26.6-119.8-1-3.2 3.4-4.4 4.7-1.6z"  fill="#c2e1ff" /><path d="M-172.5-379.1c0.1 66.9 49.2 122.7 45.5 182.3-4 63.4-61.1 107.9-69.7 171-1.3 9.3 0.7 82.5-1.6 82.7-3.7 0.2-4.5-5.3-0.9-6.2 4.1-1.1 5.5 5.5 1.3 6.1-14.6 2.3-2.4-109.1 1.9-121.9 15.1-44.9 52.8-80.4 60.9-127.8 8.4-49.7-26.6-93.9-38-140.5-13.3-54.7 0.1-49 0.6-45.7z"  fill="#fff500" /><path d="M-164.6-96.2c-25.7 38.2-34.4 78.7-31.6 124.4 0.6 9.7 8.4 39 3.3 46.8-2.8 4.3-8.8-1.8-4.4-4.5 5.1-3.2 7 7.1 1.1 5.9-7.1-1.4-13.7-111.2 12.7-160.9 2.6-4.9 7.3-17.9 13.2-19.5 4.9-1.4 7.7 3.8 5.7 7.8z"  fill="#005bbb" /><path d="M-159.6-319.8c12.1 40.6 40.1 78.5 36.6 122.5-5.1 64.5-64.7 108.4-73.3 173-2.1 15.2 5.1 95.6 2.6 99.4-2.8 4.3-8.8-1.8-4.4-4.5 5.1-3.2 7 7.1 1.1 5.9-5.8-1.2-4.8-27.8-5.3-33-4.3-43.9-4.4-87.1 15.1-127.7 17.1-35.7 46.3-66.2 55.2-105.6 10.6-46.7-19.3-85.9-32.5-128.4-1-3.2 3.5-4.5 4.9-1.6z"  fill="#fff" /><path d="M-152.6-227.7c22.5 74.7-40.4 131.4-47.2 203.1-1.4 14.7 6.9 95.8 4.6 99.5-3.2 5-9.3-3.4-3.5-4.8 4.9-1.2 5.2 7.2 0.2 6.2-5.6-1.1-4.4-22.3-4.9-26.8-12.4-114.8 7.5-108.4 41.9-206 4.7-13.4 7.7-27.4 7.6-41.6-0.1-8.5-5.6-21.7-3.9-29.5 0.7-2.9 4.2-2.4 5.2-0.1z"  fill="#fff500" /><path d="M-145.5-221.5c17.2 72.2-46.3 127.5-53.5 196.5-1.6 14.8 6.5 96.5 4.1 100.2-2.8 4.3-8.7-1.7-4.4-4.5 5-3.2 7 7 1.1 5.9-5.6-1.1-4.5-23.4-5-28.2-12.3-115.4 8.5-108.7 45.4-205.7 7.7-20.4 5.6-85 12.3-64.2z"  fill="#fff" /><path d="M-137.2-116.3c-31.6 35.8-55 71.4-57 120.5-0.8 19 1 38 2.6 57 0.2 2.7 3.8 17.6-3.4 15.3-4.9-1.6-0.6-9 3.2-5.5 3.3 3-1.8 7.9-4.6 4.5-12.7-14.7-2.3-117.2 12.1-145.7 8.8-17.5 23.5-43 39.7-54.4 5.6-3.9 10.8 3.3 7.4 8.3z"  fill="#fff500" /><path d="M-164.2-398.2c-6.7 73.2 35.3 112 44.8 176.2 6.7 45.4-20.4 82.6-43.9 118.6-4.1 6.4-20.5 43.3-26.5 42.7-7.2-0.8-3.4-12.1 2.8-8.4 7.3 4.4-4.5 13.3-6.7 5.1-4-14.4 62.7-104 67.4-135.1 7.8-51.4-31.2-98-41.3-146.9-12.8-62.4 3.2-56.4 3.4-52.2z"  fill="#fff" /><path d="M-123.3-166c-22.5 53.2-67.1 90.4-73 150.9-2.4 24.5 0.1 49.1 2.4 73.5 0.3 2.9 4.6 20.4-2.9 18-3.6-1.1-2.5-6.7 1.2-6.4 3.7 0.3 3.9 6 0.1 6.5-6.6 0.8-5.2-22.3-5.6-26.3-3.8-40-6.1-80.3 9-118.4 10.2-25.9 43.5-81 60.8-102.7 3.6-4.5 9.5 0.1 8 4.9z"  fill="#005bbb" /><path d="M-118.5-259.8c39 92.8-51.6 139.4-72.7 220.8-6.6 25.4 1.4 109.7-1.5 114.1-3.3 5.1-9.3-3.5-3.5-4.9 5-1.2 5.2 7.4 0.1 6.3-5.9-1.2-4.7-27.9-5.1-32.9-12.1-133.5 28.8-117.5 76.5-217.4 7.5-15.7 11.7-32.8 10.3-50.3-1-12-9.8-46.4-4.1-35.7z"  fill="#fff500" /><path d="M-111.5-254.8c35.2 89.8-57.7 137.4-78.8 215.4-11.5 42.6 5.2 103.5-2.1 114.8-3.3 5.1-9.4-3.6-3.5-5 5-1.2 5.2 7.4 0.1 6.4-5.8-1.2-4.7-29-5.2-34.4-11.7-134.2 32.1-118.7 80.7-217.7 7.2-14.6 11.4-30.5 10.7-46.8-0.5-10.9-6.8-42.4-1.9-32.7z"  fill="#005bbb" /><path d="M-103.1-110.2c-37.5 29.4-72.9 59-81.1 108.6-1.2 7.1 2.3 80.6-5.3 77.9-5-1.8-0.3-9.2 3.5-5.5 3.2 3.2-2 8-4.9 4.5-3.4-4.1-1.4-17.4-1.7-22.7-2.1-41.8-0.2-83.4 25-118.6 13.5-18.8 36.8-45 58.2-54.6 6.8-3.1 11 5.7 6.3 10.4z"  fill="#fff" /><path d="M-99.3-398.6c-0.9 64.7 49.4 102.5 77.1 155 31.1 58.8-5.4 110.6-50.3 148.4-16 13.4-59.9 56.7-67.5 55.7-10.3-1.3-1.5-17.1 5.1-9 6.6 8-10.6 13.5-9.9 3.1 1-13.8 33.4-34 43.1-41.8 33.4-26.8 75.3-56.7 83.6-101.7 11.2-60.3-50-103.3-73.4-152.5-7.1-15-18.3-40.6-14.6-57.8 0.9-4.1 6.2-3 6.8 0.6z"  fill="#005bbb" /><path d=""  fill="#fff500" /><path d=""  fill="#fff500" /><path d="M-108.9-398.6c-2.4 63.5 44.9 102.3 67 156.9 25.9 64-27 106.7-72.1 141.9-4.1 3.2-19.2 19.6-23 8-7.1-21.6 27.1 7.9 4.7 4.1-16.4-2.8 11.1-22 13.9-24.2 31-24.3 71.5-50.7 76.2-93.5 5.9-53-45.5-95-63.3-141.3-5.4-14-14-37.3-10.2-52.7 1-4.1 6.4-2.9 6.8 0.8z"  fill="#fff500" /><path d="M-68.5-97.4c-35 30.3-77.6 56-92.4 102.6-3.7 11.8-5.8 67-8.5 70.4-4.1 5.1-9.7-4.8-3.2-5.7 6.5-0.9 3.8 10.2-1.6 6.4-5.2-3.7-0.9-28-0.5-34 3.6-69.3 46-108.9 98.4-148.9 6.3-4.8 12.9 3.6 7.8 9.2z"  fill="#005bbb" /><path d="M-67.9-398.9c7.8 81 91.9 105.5 135.5 162.2 32.9 42.7 30.9 97.8 47.9 146.8 2.2 6.4 12.9 23.8 11.4 30.1-0.9 3.5-6.2 0.8-3.9-2 2.2-2.8 5.9 1.8 2.7 3.4-8.4 4.1-41.8-140.8-47.8-153.9-26.2-57.6-90-79.3-126.7-128.2-11.5-15.3-20.5-33.1-24.2-52-0.8-4.3 3-14.2 5.1-6.4z"  fill="#005bbb" /><path d=""  fill="#005bbb" /><path d="M-48.5-9.3c0.6 24.6 11.8 46.2 27.7 64.5 3.3 3.9 16.2 13.4 16.8 18.1 0.1 0.4-0.2 0.9-0.5 1.1-2.4 1.4-14.4-13.4-16.4-15.5-15.7-16.8-28.8-36.2-32.9-59.2-0.9-5 3.5-18.2 5.3-9z"  fill="#005bbb" /><path d="M-40.7-108.3c-32.4 37.5-77.9 67.8-96.5 115.4-6.9 17.6-9.3 36.2-10.6 55-0.2 2.9 1.2 17.7-5.9 14.3-3.8-1.8-1.7-7.8 2.3-6.8 4.1 0.9 3.4 7.2-0.8 7.2-7.6-0.1-2.3-24.2-1.9-28.7 2.9-33.5 13.3-63.5 34.3-90 17.4-21.8 49.3-59.2 71.8-74.7 5.6-3.9 10.8 3.3 7.3 8.3z"  fill="#005bbb" /><path d=""  fill="#fff" /><path d="M-29.3-375c25.7 50.7 82.6 69.7 120.8 108.4 45 45.6 79.2 147.3 89.7 210.1 1.6 9.7 11.2 59.4 2.3 65.2-4.7 3-7.9-5.7-2.4-6.5 6.5-0.9 3.8 10.2-1.5 6.4-5.8-4.1-1.9-43.3-2.8-51.6-5.4-56.1-28.9-115-51.7-166.3-31.4-70.7-86.5-85.1-136.1-135.6-8.4-8.5-15.7-17.9-21.8-28.1-1.3-2.3 2-3.9 3.5-2z"  fill="#c2e1ff" /><path d="M-23.2-274.9c33 36.3 54.1 74.7 43 124.7-9 40.9-34 83.7-15.4 125.7 16.6 37.7 91.2 65.7 97.4 97.6 0.7 3.6-5.5 2.4-3.6-0.7 2-3.1 5.7 2.1 2.1 3-0.6 0.1-31.5-35.7-36.3-39.5-43.4-33.7-82.3-61.9-70.8-123 7-36.8 26.8-71.4 22.5-109.8-3.1-28.1-19-51.4-37.2-72.1-0.1-0.1-5.6-9.2-1.7-5.9z"  fill="#fff" /><path d=""  fill="#c2e1ff" /><path d="M-14.4-399.3c17.8 57 78.3 80.1 117 120.2 37 38.4 55 90.9 76.3 138.6 2.1 4.8 17.5 33.4 13.2 36.5-3.2 2.2-5.7-3.7-1.8-4.4 4.5-0.8 2.9 6.9-0.9 4.4 0 0-53.3-121.6-62-136.6-32-55.3-91.2-77.7-129.1-126.5-7.2-9.3-13.1-19.5-17.3-30.5-1.2-3 3.2-4.4 4.6-1.7z"  fill="#fff500" /><path d="M-1.4-230.9c38.7 80.9-47.7 141.8-65.9 214.3-6 24-3.5 48 5.2 70.9 1.4 3.7 9.6 17.1 7.6 20.5-2.1 3.5-6.4-2.2-2.5-3.3 3.4-0.9 3.6 4.9 0.2 4.3-5-0.9-11-22.8-12.6-27.4-29-80.7 34.9-133.3 62.6-202.3 6.1-15.1 9.5-31.3 8.1-47.7-0.8-9.8-7.6-37.8-2.7-29.3z"  fill="#fff" /><path d="M4.1-274.7c94.1 82.2 39.8 128.3 85 214 11.6 22 75.5 113.8 60.1 135.8-2.6 3.7-8.2-0.7-5.2-4 3.5-4 8.7 3.1 3.9 5.2-3.7 1.7-11.2-43.9-13.7-50.7-15.5-42.7-50.7-75.1-63.4-119-9.1-31.6-5.3-65-12.6-96.9-7.2-31.5-25.9-56-49.2-77.5-0.4-0.3-8.3-9.3-4.9-6.9z"  fill="#c2e1ff" /><path d=""  fill="#fff500" /><path d="M28.3-399.5c18.8 46.2 64.5 73.2 94.5 111.2 26.8 33.8 78.8 131 99.7 172.6 4.8 9.6 28.8 66.7 14.2 75.2-5.1 2.9-8-6.3-2.2-6.9 6.8-0.6 3.4 10.8-1.9 6.6-4.5-3.6-0.9-26.4-1.7-32.5-4.1-31.5-21.3-58.3-37.4-85-26-43.1-44.4-91.5-75.5-131.3-25.6-32.9-61.8-56.6-84.7-91.7-3.8-5.9-11.2-28.1-5-18.2z"  fill="#005bbb" /><path d=""  fill="#fff" /><path d="M34.7-160.6c-3.3 45-21.9 89.5 7.5 130.2 13.2 18.3 92.9 83.8 84.6 104.6-1.6 4-7.4 0-4.4-2.9 3.1-2.9 6.7 3.1 2.7 4.5-4.9 1.7-6.3-11.8-7.2-14.3-5.1-13.5-13.2-25.7-22.8-36.4-28.5-31.8-68.6-53.2-75.7-99.2-4-25.8-0.6-63.6 8.1-88.1 1.5-4.3 7.1-2.4 7.2 1.6z"  fill="#c2e1ff" /><path d="M38.9-21.9c13.3 16.4 90.5 76.5 83.6 96.2-1.3 3.8-7.1 0.3-4.2-2.7 2.4-2.5 6.1 1.5 3.4 3.8-0.9 0.8-22.2-36.8-26.6-41.9-16.9-19.4-39-33.2-56.6-51.9-1.3-1.4-2.2-5.8 0.4-3.5z"  fill="#c2e1ff" /><path d="M45.6-13.8c13.3 13.7 83.3 68.9 76.7 88-1.1 3.3-6.2 1.2-4.8-1.9 1.7-3.7 7 0.5 4 3-1.1 0.9-22-36.3-26.4-41.3-14.6-16.9-33.1-29.5-49.3-44.6-0.9-0.9-2.8-5.2-0.2-3.2z"  fill="#fff" /><path d=""  fill="#c2e1ff" /><path d="M60.4-220.9c29.7 52 18.1 115.6 47.3 169 20.4 37.2 42.5 72.6 45.8 116.1 0.2 3.3 2.7 11.5-2.1 12.8-5.3 1.5-5.8-7.6-0.4-6.7 5.4 0.9 2.1 9.4-2.5 6.3-4.3-2.9-2-19.4-2.6-24.5-2.1-17.7-7.2-34.8-14.3-51.1-14.5-33.1-37.2-62.1-48-96.9-10.6-34.5-7.8-71.6-19.5-105.9-0.4-1.2-8.6-26.2-3.7-19.1z"  fill="#fff500" /><path d="M65.9-305.6c61.8 45.4 121.2 164.6 132.6 240 4.6 30.4 1.3 61.5-3.1 91.7-1.3 8.5-3.5 48.5-11.8 51.5-7.3 2.7-6.9-10.8 0.2-7.7 8.4 3.6-5.1 13.3-5.8 4.2-2.9-35.2 33.4-93.6 5.6-177.8-19-57.7-44.8-128.4-87-173.2-9.1-9.6-19.1-18.1-29.7-26.1-0.7-0.6-1.8-3-1-2.6z"  fill="#fff500" /><path d="M72.9-286.6c83.3 64.9 123.5 229.8 111.8 330.8-0.7 5.7-1 32.9-8.4 33.3-5.5 0.4-5.6-8.3-0.1-8.1 4.7 0.2 5.2 7.2 0.5 8.1-8.9 1.6 0.9-38.5 1.6-44.2 5.1-47 3.8-93.6-11-138.9-16.7-51.1-33.9-110.4-68.2-152.7-8.1-10-37.1-35.2-26.2-28.3z"  fill="#fff" /><path d=""  fill="#fff" /><path d="M87.9-224.9c22.2 36.5 26 80.2 38.3 120.4 17.8 57.8 43.3 112.2 39.2 174.3-0.3 4.2-6.7 12-7.7 4-1.2-9.7 14.1 0.4 4.8 3.2-8.5 2.5-3.5-23.2-3.5-27 0-29-5.7-57.7-14.2-85.4-8-25.8-18.5-50.8-26.2-76.7-9.6-32.1-13.8-66.1-27.2-97-0.4-0.9-8.4-22.4-3.5-15.8z"  fill="#005bbb" /><path d="M94.1-256.9c54.9 61.6 90.6 211.5 86.1 292.9-0.4 7.1 0.6 37.6-6.4 40.7-4.9 2.2-8-5.8-2.8-7.4 5.1-1.7 7.3 6.6 2 7.7-8.9 1.8-0.7-33-0.3-38.1 3.2-39.9 1-80.7-9.2-119.6-14-53.3-31-116.8-62.5-162.5-0.6-0.9-11.3-17.7-6.9-13.7z"  fill="#fff500" /><path d="M102.7-116.7c4.3 18.8 80.1 187.4 53.9 193.5-6.5 1.5-4.8-10 1-6.6 4.9 2.9-1.5 9.8-4.8 5.2-2.4-3.5-4.7-55.3-7.7-66.5-11.4-41.2-35.2-77.6-46.4-118.9-0.9-3.3 1.2-14 4-6.7z"  fill="#fff" /><path d="M109.4-108.7c11 40.8 33.1 77.6 44 118.4 2.2 8.2 15.3 64.5 4.5 67-5.6 1.2-5.6-8.3 0-7.1 6.6 1.4 0 11.2-3.8 5.6-2.3-3.4-4-56.3-6.8-67.4-8.3-32.8-41.9-87.1-43-115.7-0.1-3.2 4-3.5 5.1-0.8z"  fill="#c2e1ff" /><path d="M115.2 21.1c4 5.6 30.9 50.5 20.7 55.1-3.7 1.7-6.1-4.3-2.2-5.6 4.5-1.5 5.4 6.4 0.6 5.9-4.8-0.5-7.2-23.4-8.9-28-3.4-9.2-16.6-34.9-10.2-27.4z"  fill="#fff" /><path d="M122.6-217.9c43.8 86.6 71.2 190.4 55.3 287.1-0.4 2.4-5.3 14.8-8.6 5.9-4.4-11.7 16.8 0.1 4.5 2.5-9.3 1.8-1-28.2-0.4-32.8 3.6-34.2 3.6-69.5-2.3-103.4-8.7-50.3-28.4-103.3-48.9-150-0.4-0.9-4-16.1 0.4-9.3z"  fill="#c2e1ff" /><path d="M130-381.8c17.7 58 49.3 135.3 85.9 183.7 27.4 36.3 70 62.8 87.3 106.2 11.2 28.1 8.3 58-1 86.2-1.9 5.7-7.2 30.4-14.9 29.4-5.3-0.7-5.2-8.7 0.2-9.2 5.3-0.5 7 7.3 1.8 9-12.4 4 6.4-37.3 7.8-42.1 8.8-28.9 9.3-58.9-4.7-86.2-27.1-52.9-81.9-81.9-114.1-149.4-18.7-39.1-37.2-79.9-51.3-120.8-1-2.9-0.1-13.6 3-6.8z"  fill="#fff500" /><path d="M136.9-110.8c17.3 56.2 36.3 110.7 33.1 170.5-0.2 4 1.3 16.6-4.4 17.5-7 1.1-4.2-11 1.6-6.9 5 3.5-2.4 10.3-5.5 5-2.2-3.8 0.8-61.4-0.6-72.7-4.3-35-27.6-87.5-29.2-112.4-0.2-3.1 3.8-3.4 5-1z"  fill="#fff500" /><path d="M143.8 24.2c2.3 6.7 15.8 49.8 6.6 52.5-4.5 1.3-6.2-5.8-1.6-6.7 4.6-0.8 5.5 6.5 0.9 6.8-6.6 0.5-4.3-19.1-4.8-23-1.1-9.5-5.5-19.3-6-28.6-0.2-3.1 3.8-3.4 4.9-1z"  fill="#fff" /><path d="M150.1-219.9c52.2 104.3 79.9 142.8 52 262.2-1.4 6.2-5 35.3-12.4 35.2-5.8-0.1-5.2-9.3 0.6-8.6 5 0.6 4.9 8.1-0.1 8.6-10.3 1 1.9-29 3.1-33.8 9.1-37.1 19.1-76.8 14.1-115.2-6.3-48.9-36.5-95.3-57.4-139.1-0.5-1.1-4.2-15.9 0.1-9.3z"  fill="#005bbb" /><path d="M155.6-398.4c1.4 67.1 29.1 149.4 72.7 200.7 27.6 32.5 67.1 55.1 88 93.2 5.2 9.4 24.8 60.3 10.5 67.8-6.3 3.3-7.5-9-0.7-7.1 6.8 2-0.7 11.7-4.3 5.6-2.4-4-0.4-49.2-12.6-70.8-34.1-60.6-92-76.5-125.8-156.6-15.6-37-28.4-77.4-33.2-117.4-2.2-18.4 3.7-25.5 5.4-15.4z"  fill="#005bbb" /><path d="M165.4 40.9c0.3 5.3 3.9 37.4-4.5 36.2-5-0.7-3.4-8.6 1.4-7.4 4.9 1.3 2.5 8.9-2.2 7.2-4.2-1.6-3.2-34.7-0.6-38 2-2.5 5.4-0.8 5.9 2z"  fill="#c2e1ff" /><path d="M170.9-260.9c63.4 131.1 162 141.1 102 285.9-3.6 8.7-15.5 51.2-24.3 53-8.4 1.7-5.8-13 1.5-8.4 7.3 4.5-4.7 13.4-6.9 5.1-4.4-16.8 51.1-103.8 41-153.3-10.8-53.1-62.7-87.6-90.6-131.5-9.9-15.7-32.8-66.4-22.7-50.8z"  fill="#fff500" /><path d="M177.6-184.9c51.3 98.4 67.2 118.1 34.6 229.2-1.7 5.9-6.3 33.7-13.8 33.3-6-0.3-5-9.7 0.9-8.7 5.1 0.8 4.7 8.5-0.5 8.7-10.5 0.6 1.9-25.2 3.2-29.3 10.8-35.4 23.9-73.2 22.2-110.6-1.9-43.3-27.8-79-47.5-115.9-0.9-1.6-2.8-12.2 0.9-6.7z"  fill="#fff500" /><path d=""  fill="#c2e1ff" /><path d=""  fill="#005bbb" /><path d="M198.1-215c59.7 98.3 136.2 107.1 80.9 239.7-3.6 8.7-15.5 51.1-24.3 53-8.4 1.8-5.8-12.9 1.4-8.5 7.3 4.5-4.7 13.4-6.8 5.1-3.4-12.6 47.9-104.3 42-146.8-7.6-54.8-60.2-88.1-89.8-130.8-1-1.5-8-17.2-3.4-11.7z"  fill="#c2e1ff" /><path d="M204.8-165.9c54.2 81.1 61.8 112.7 27.9 205.4-2.3 6.4-10.1 39-18 38.2-5.3-0.5-5.3-8.4 0-9.1 6.1-0.7 6.7 9 0.5 9.1-10.9 0.1 3.2-25.7 4.8-29.9 12.5-33.6 28.4-69.1 28.6-105.6 0.2-40.5-23.4-72.4-45.2-104.3-1.3-1.9-1.2-6.9 1.4-3.8z"  fill="#fff" /><path d="M213.6-60.2c1.7 18.5-10.3 128.3-22.1 137.1-5.5 4.1-10.1-6.2-3.4-7.7 6.7-1.4 6.6 9.9-0.1 8.4-7-1.6 9.8-57.6 11.5-65.9 0.7-3.5 10.2-93.7 14.1-71.9z"  fill="#c2e1ff" /><path d="M220.1-286.6c11.9 76.6 83.4 98.7 127.8 151.7 42.7 50.9 29.6 112.9 21.5 173.1-0.8 5.7-0.9 39.1-7.2 38.5-4.1-0.4-4.2-6.6-0.1-7 4.1-0.5 5.5 5.5 1.6 6.9-8.8 3.1-3.6-22.8-3.3-26.5 4.6-48 20.4-98.2 5.1-145.7-20.3-63-87.5-83.5-125.1-132.8-11.6-15.2-20.4-33-24.8-51.6-0.9-3.9 2-14.1 4.5-6.6z"  fill="#fff" /><path d="M227.9 75c-6.4 10.5-13.5-8.5-3.3-6.2 11.7 2.6-6.3 16.1-5.6 4.2 0.4-6.8 9.7-7.8 9.9-0.5z"  fill="#c2e1ff" /><path d="M234-286.5c8 71.9 78.9 95.6 121.2 143.7 41.9 47.7 35.5 106.5 32.4 165.3-0.4 7 3.2 52-1.5 53.8-5.4 2.1-5.4-8 0.1-5.8 5.4 2.2-1.6 9.5-4 4.2-14.6-32.3 10.1-123.4-5.6-172.8-20.3-63.8-86.1-84.1-124.3-133.2-11.1-14.3-19.5-31-23.2-48.8-0.9-4.2 2.7-14.1 4.9-6.4z"  fill="#c2e1ff" /><path d="M242.2-345.2c-54.2 112.7 78.3 148.3 124.9 220 30.1 46.3 21.4 100.6 18.4 152.6-0.2 4.3 2.3 25-4.3 24.6-4-0.2-4.3-6.2-0.4-6.8 3.9-0.6 5.5 5.1 1.9 6.6-8.3 3.3-4.3-24.1-4.2-27.5 1.9-37.6 8.4-76.1-0.7-113.3-19.4-79-109.2-96.8-141.7-165.9-10.6-22.5-14-48.1-9.1-72.4 4.6-22.5 19.4-32.2 15.2-17.9z"  fill="#c2e1ff" /><path d="M207.7-396.3c-28.8 61.4-9.9 142.1 35 190.8 26 28.3 60.8 46.8 85.6 76.3 4.5 5.3 36.8 53.3 25.2 58.7-4.3 2-6-5.7-1.2-5.7 4.7 0 3.1 7.7-1.3 5.7-4.2-1.9-5-18.6-6.6-23.2-5-14.8-13.3-28.1-23.4-39.9-56.2-64.8-115-75.3-130.9-174-4.4-27.2-3.6-55.6 5.1-81.8 1.3-3.9 3.1-15.1 9.5-13.2 2.9 0.8 3.8 3.7 3 6.3z"  fill="#fff" /><path d="M256 54.8c-2.1 5.1-6.3 24.3-13.4 23.4-7.3-0.9-3.2-12.4 3-8.5 5.3 3.3-0.4 11.4-5.3 7.5-11-8.6 21.4-43 15.7-22.4z"  fill="#c2e1ff" /><path d="M262.2-48.7c-0.6 18.1-27.8 119.2-39.5 126.2-6.2 3.7-10.1-7.7-2.8-8.5 7.2-0.8 5.9 11.2-1 8.9-8.2-2.8 15.7-53.4 18.5-61.1 5.3-14.2 13.2-59.7 18.1-67.7 2.1-3.4 6.5-1.3 6.7 2.2z"  fill="#c2e1ff" /><path d="M201.8-397.1c-25.8 63.4-5.1 145.1 40.7 194.2 7.7 8.2 99.6 87.2 92.8 90.9-2.6 1.4-3.9-3.3-1-3.5 2.9-0.2 2.2 4.6-0.5 3.6-6.8-2.6-17.4-23.6-23.4-29.5-54.5-54.9-104.9-77.1-121.8-160.8-5.4-26.9-6.4-55.1 0-81.9 1.1-4.6 2.2-16 6.8-18.5 3.9-2.1 7.3 1.8 6.4 5.5z"  fill="#fff" /><path d="M276.5-19.9c-2.8 11.4-33.4 101.8-42.3 97.5-5.7-2.7-0.9-11.4 4.4-8.1 5.3 3.3-0.4 11.4-5.3 7.6-4.3-3.4 29.2-93.7 36-101 3.2-3.4 7.7 0 7.2 4z"  fill="#fff500" /><path d=""  fill="#fff" /><path d="M290.2-29.1c-2.4 12.6-35.5 111.3-45.1 106.7-4.8-2.3-2.2-9.9 3.1-8.7 6.1 1.4 3.3 10.9-2.6 8.9-8.8-3.1 8.1-32.2 10.4-37.8 5.3-12.5 21.8-66.4 27.1-72.6 2.9-3.4 7.5-0.4 7.1 3.5z"  fill="#fff500" /><path d="M297.3-1.5c-3.3 9.6-29.6 82.4-37.4 78.8-5.6-2.6-1-11.3 4.4-8 5.3 3.2-0.2 11.3-5.2 7.5-5.2-4 24.2-77 31-83.1 3.7-3.3 8.2 0.7 7.2 4.8z"  fill="#005bbb" /><path d="M304.2-378.5c-27.1 32.3-52.5 69.1-38.6 113.2 14.7 46.5 62.2 69.5 94.5 102.1 38 38.3 47 85.3 48.9 137.4 0.2 5.7 4.7 36.8-0.5 38.7-5.6 2-5.3-8.3 0.2-6 5.5 2.4-1.9 9.7-4.2 4.2-10.5-24.7 0.4-86.8-16.2-127.2-28.9-70.4-132.1-96.8-133.5-179.6-0.6-34.2 18.8-65.3 41-89.8 4.9-5.4 12.2 1.2 8.4 7z"  fill="#005bbb" /><path d="M307.3-171.6c78.8 59.4 75.8 114 63 204.1-0.9 6.4-1.3 43.1-6.9 44.4-6.4 1.5-4.7-9.8 1-6.5 6.7 3.9-5.6 10.7-5.4 2.9 1.7-49.2 18.5-98.9 11.3-148.1-5.6-37.9-28.2-67-57.4-90.5-0.4-0.3-8.5-8-5.6-6.3z"  fill="#005bbb" /><path d=""  fill="#fff500" /><path d="M313.9-394.8c-35.3 42.5-76.4 88.9-44.9 146.6 44.9 82.5 127.3 69.2 136.5 196.2 0.3 4.5 4.2 23.1-1.3 24.9-5.1 1.6-5.8-7.3-0.5-6.6 6.2 0.8 0.9 10.3-3.1 5.5-4.8-5.9-1.7-27.5-2.5-35.3-2.2-23.2-7.5-46.1-19-66.6-35-61.9-130.1-88.3-128.4-169.7 0.9-40.4 28.5-73.9 54.8-102.1 5-5.3 12.3 1.3 8.4 7.1z"  fill="#c2e1ff" /><path d=""  fill="#fff" /><path d="M269.2-394.3c-44.8 44.3-59.4 107.5-21.7 161.8 23.7 34.2 112.7 80 119.3 115.9 0.7 3.6-5.6 2.4-3.6-0.7 2-3.1 5.7 2.2 2.1 3-2.2 0.5-24.4-32.1-28.3-36.1-47.7-47.7-114.9-75-118.5-152.1-1.3-28.3 7.8-55.7 24.4-78.6 17.6-24.3 36.6-26.7 26.3-13.2z"  fill="#c2e1ff" /><path d="M345.4-18.1c-2.2 10.9-26 97.9-33.6 95.4-5.5-1.8-2.1-10.3 3.1-7.9 5.2 2.4 1 10.4-3.9 7.5-5.6-3.4 20.8-91 27.3-98.6 2.9-3.4 7.5-0.3 7.1 3.6z"  fill="#c2e1ff" /><path d="M319.8-395c-33.6 43.4-76.5 89.7-44.3 147.2 32.1 57.4 102 78.1 124 144.5 1.8 5.4 10.9 28.9 6.1 33.2-3.1 2.8-7.2-2.3-3.9-4.7 3.9-2.8 7.1 4.5 2.4 5.4-6.1 1.2-6.4-20-7.3-24-5.1-21.8-14.8-41.9-28.9-59.3-38.1-47.2-112-75.7-110.8-145.9 0.7-40.5 28.9-74.2 54.2-103.2 4.7-5.4 12.1 0.9 8.5 6.8z"  fill="#005bbb" /><path d="M359.2 24.9c-1.5 7-7.4 53.2-13.7 52-6-1.1-2-10.4 2.9-6.9 4.2 3-0.9 9.4-4.7 6-4.7-4.1 3.8-51.4 9.1-55.3 3.2-2.4 6.7 0.7 6.4 4.2z"  fill="#c2e1ff" /><path d=""  fill="#fff500" /><path d="M372.8 24.5c-1 6.9-3.1 53.2-8.7 52.7-4.8-0.4-3.7-7.9 1-6.9 4.7 0.9 2.9 8.2-1.7 6.8-6.8-2.1-0.6-48 2-54.5 1.7-4.4 7.5-2.2 7.4 1.9z"  fill="#c2e1ff" /><path d="M377.6-241c19.2 35.8 42.9 67.3 53 107.4 11.3 44.8 7 92.1 20.3 136.5 6.1 20.4 16.3 39 29.9 55.3 1.5 1.8 15.3 15.4 13.4 16.3-1.8 0.8 1.7-0.3-0.2 0.1-2.5 0.5-8.8-8-10.5-9.7-18.3-19.1-32-41.5-39.5-67-12.8-43.4-9-89.6-19.5-133.4-8.8-36.7-28.9-66.6-47.6-98.8-0.9-1.6-3.2-11.9 0.7-6.7z"  fill="#fff500" /><path d="M386.1-323.1c0.9 61.4 36.1 110.5 50 168.7 12.2 51.4 5 106.1 21.7 156.5 7.4 22.4 20.1 42.2 36.5 59.1 2.5 2.6 11.6 8.7 12.2 12.1 0.1 0.4-0.3 1-0.7 1.1-3.9 1-18-16.4-20.7-19.4-51.1-55.5-40.3-127-52.1-195.7-8.5-49.6-36-91.7-47.9-140-3-12.2-8.3-30.4-5.6-43 0.9-4 6.1-3 6.6 0.6z"  fill="#fff" /><path d="M392.9-57.2c1 12.8 0.2 133.1-1.9 133.3-4.1 0.3-4.3-6.1-0.2-6 4.1 0.1 3.6 6.6-0.5 6-5.9-0.8-4.9-21.9-5.1-26.2-6-92.5 4.5-124.9 7.7-107.1z"  fill="#005bbb" /><path d="M399.8-385.2c7.1 107.5 27.4 131.7 43.1 222.4 8.1 46.6 3.7 94.5 13 140.9 4.4 21.9 12.7 42.7 25.8 60.8 2.4 3.3 11.7 11.5 12.1 15.1 0.1 0.6-0.5 1.2-1 1.3-9.2 1.4-39.9-63.3-43.8-82.7-8.1-41-5.1-83.2-10.5-124.5-10.4-78.7-38.1-133.8-44.4-221.2-0.2-2.9 3.5-23.5 5.7-12.1z"  fill="#c2e1ff" /><path d="M405.5-130.9c22.1 48.6 14.2 103.3 28.1 153.9 3.8 13.9 9.3 27.4 16.6 39.9 0.9 1.5 9.3 11.1 4.9 12-6.5 1.5 6.5-2.2 0.2 0-9.8 3.3-29.9-42.6-39.9-140.2-2.2-22-20.8-84.7-9.9-65.6z"  fill="#c2e1ff" /><path d="M413.5-1.3c1.4 20 17.4 70.2 16.2 75.4-1 4-6.8-0.2-3.4-2.4 3-1.9 5 3.6 1.5 4.1-4.6 0.6-8-15.1-9.1-18.3-5.7-16.3-14.3-41.6-11.5-59 0.6-3.9 5.7-3.2 6.3 0.2z"  fill="#005bbb" /><path d="M445-399.2c64.9 147.9 23.5 166.8 18.3 312.4-0.3 7.2 3.8 62.6 1.2 62.9-5.2 0.8-3.1-8.2 1.2-5.1 4.3 3-3.3 8.1-4.4 2.9-16.9-79.7 9.9-159.4 14-238.7 2.5-47.3-14.6-88.1-33.4-130.5-1.3-2.9 0.6-8 3.1-3.9z"  fill="#fff" /><path d="M426.9-285.6c8.1 39.2 17.6 78 22 117.9 6 53.9-2 111.4 14.7 163.6 7.9 24.7 22.4 46 40.9 64.1 2.8 2.8 13.8 10.2 14.5 13.5 0.1 0.4-0.2 0.9-0.6 1.1-3.8 1-19.7-17.1-22.7-20.2-66.9-67.9-43.8-168.8-57.4-254.8-4.2-26.4-17.9-58.3-17-84.7 0.1-3.5 4.6-3.4 5.6-0.5z"  fill="#fff500" /><path d="M433.3 41.2c1.5 4.3 15.7 33 13.8 34-2.2 1.2-3.8-2.4-1.5-3.3 2.3-0.9 3.6 2.8 1.2 3.4-4.6 1.3-17.6-28.4-18.2-33-0.3-2.9 3.4-3.5 4.7-1.1z"  fill="#c2e1ff" /><path d="M439.7 67c0.6 1.2 5.5 7.7 1.3 8.3-2.6 0.3-2.9-3.8-0.2-3.9 2.3 0 2.7 3.3 0.4 3.8-7.2 1.7-5.4-13.7-1.5-8.2z"  fill="#fff500" /><path d="M447.9-41.4c3.7 31.9 12.8 62.6 32.7 88.4 5.5 7.1 11.6 13.7 17.9 19.9 1 0.9 8.9 6.1 6 7.4-1.6 0.8 1.6-0.4-0.2 0.1-2.4 0.6-8.3-7-10.2-8.8-19-18.3-34.2-39.7-42.9-64.8-4.1-11.8-10.8-29.5-9.4-42.1 0.4-3.7 5.3-3.3 6.1-0.1z"  fill="#fff500" /><path d="M454.6-295.5c17.5 92.3-13.1 194.9 11.8 283.6 7.7 27.3 23.2 50.4 43.4 70.1 2 1.9 17.6 16 16 16.3-1.6 0.3 1.5 0.1-0.2 0-6.2-0.3-20-17.4-24.5-21.9-78.2-78.4-42.4-206.4-47.8-305.7-0.7-13.5-5.5-28.9-4.5-42.1 0.2-3.6 4.9-3.3 5.8-0.3z"  fill="#fff" /><path d="M461.3-316.6c25.1 97.5-18 199.6 4.9 297.1 7 29.9 23 55.3 44.9 76.6 2 2 18.3 17 16.9 17.2-1.6 0.3 1.5 0.1-0.1 0-6.3-0.4-20.5-17.8-25.1-22.3-83.5-83.5-37.2-214.9-40.6-319-0.1-2.4-8-68.7-0.9-49.6z"  fill="#fff" /><path d="M470.1-399.5c71.6 138.8 0.4 187.3-3.4 323.4-0.8 28.7 2.4 58.1 14.8 84.3 1.6 3.4 16.3 26 14.9 27-0.1 0-0.7 0.3-0.8 0.2-5 0.3-15.6-21.2-17.8-25.4-50.2-95.3 11.4-195.7 19-291.8 3.1-39.6-10.4-76.2-27.9-111-0.8-1.5-2.6-12.4 1.2-6.7z"  fill="#fff" /><path d="M475.4-38.5c4.1 33.6 19.5 62.7 42.9 86.9 7 7.2 14.5 14.1 22.1 20.7 1.7 1.5 6.2 5.2 4 5.5-4.4 0.7 4.1-2.6 0.4-0.1-2.2 1.5-18.9-15.8-21.2-18-22.7-21.2-41.6-45.5-50.2-75.8-5.6-19.6-0.2-26.8 2-19.2z"  fill="#fff500" /><path d="M483.2-87.5c-7.1 41.8 0.4 84.3 26.6 118.3 9.6 12.4 20.9 23.4 32.5 33.9 1.2 1.1 11.5 8.2 8.6 9.6 0 0-0.5 0.1-0.5 0.1-5.5-0.5-18.2-16.1-22.4-20.1-25.1-24-45-51.8-51.6-86.5-3-15.9-7-41.7-0.7-57.3 1.8-4.4 7.6-2.2 7.5 2z"  fill="#c2e1ff" /><path d="M488.4-356.8c41.5 103.3-32.3 207.6-20.7 314.4 3.8 35.2 18.2 66.2 42.7 91.7 6.2 6.5 12.8 12.6 19.6 18.5 1.4 1.2 4.8 4.3 3 4.5-0.1 0-0.4 0-0.5 0-9.9-4-21.2-18.6-28.4-26.3-85.5-89.6-25-211.2-10-314.3 5-34.3-11.5-77.9-10.2-88 0.3-2.6 3.5-2.5 4.5-0.5z"  fill="#fff500" /><path d="M497.2-230.8c-19.5 71.2-47.1 154.7-20.1 227.7 9 24.4 25.1 44.6 44 62.2 1.8 1.6 17 15 15 15.3-3.5 0.6 3.6-1 0.1 0-2.5 0.7-11.9-9.8-13.9-11.6-47-41.9-65.3-92.5-61.7-155 2.8-47.7 13.5-95.5 28.4-141 1.8-5.3 9-3 8.2 2.4z"  fill="#fff500" /><path d=""  fill="#c2e1ff" /><path d="M508.1 28.1c9.7 13 21.2 24.5 33.1 35.4 1.4 1.3 12.1 9.1 10.4 10.8 0 0-0.4 0.2-0.4 0.2-2.3 0.6-9.5-8-11.3-9.6-12-10.9-43.3-48.3-31.8-36.8z"  fill="#c2e1ff" /><path d="M527.8-399.2c7.7 43.9 15.4 88.2 4 132.1-15.9 61.2-51.6 112.1-58.6 176.7-1.3 11.9 4.7 42.9-0.7 52.1-2.4 4.2-8.4-1.2-4.4-4 4.6-3.3 6.9 6.3 1.3 5.5-16.4-2.4 2.9-97.3 6-108.8 11.5-43.9 36.4-82.3 48.7-125.7 17.5-61.7-5-85.7-2.1-127.6 0.2-3.6 4.9-3.4 5.8-0.3z"  fill="#fff500" /><path d="M523.4-391.6c35.2 153.7-45.2 182.4-51.9 316-1.6 32.1 3.1 64.8 19.5 92.9 2.1 3.7 18.6 27.2 17.6 27.2-5 0.2 5.1-0.7 0.2-0.1-5.1 0.7-18.6-21.8-21.3-25.8-67.6-106.3 18.8-211.7 36.8-301.8 6.2-31.2-8-102.2-6.3-108.5 0.8-3 4.5-2.4 5.4 0.1z"  fill="#fff500" /><path d="M533.9-399c5.2 44.5 12.4 88.9 0.1 133-13.8 49.8-43.8 92.7-55 143.7-5.2 23.8-8.1 48.3-6.5 72.7 0.2 3.9 6.1 26.7-0.5 25.5-3.8-0.7-2.4-6.6 1.3-5.4 3.1 0.9 2.3 5.7-1 5.5-19.1-1.3-0.1-106.4 3.1-118.6 11.8-45.1 38-84 51.1-128.4 10.9-36.6-0.1-124.9 1.4-128.7 1.2-3.2 5.3-2.1 6 0.7z"  fill="#c2e1ff" /><path d="M538.5-280.1c-18.3 91.1-83.8 145.3-63.1 252.7 5.8 30.2 21.3 55.9 42.7 77.6 4.9 4.9 23.6 16.9 25 23.2 0.1 0.5-0.5 1.1-1 1.1-6.6-0.4-21.2-18.5-26-23.2-42.8-41.7-56.1-94.8-48.4-153.2 8.2-62.9 43.6-112.1 60.6-171.5 1.1-3.7 11.6-19.3 10.2-6.7z"  fill="#fff" /><path d="M545.7-94.3c-23.9 34.9-23.8 76.8-2.6 113 10.8 18.4 25.2 34.3 39.2 50.3 1.3 1.5 3.4 6.2 1.6 5.6-6.2-2 7-0.7 0.5 0-11.4 1.3-72.4-81.8-62.7-135.2 2.2-12.1 6.9-31.2 16.1-40.1 4.5-4.4 10.3 1.4 7.9 6.4z"  fill="#fff" /><path d="M549.3 43.1c2.9 3.4 28.7 30.3 27.3 31.5-1.7 1.5 1.8-0.9-0.2 0.2-1.9 1-3.5-2.5-5-4.1-1.9-2.1-27.9-32.7-22.1-27.6z"  fill="#fff500" /><path d="M558.8-336.8c-6.7 111.4-92.9 178.8-83.7 291.4 2.9 35.3 17.6 66.3 41.9 91.9 7.8 8.2 22.5 16.8 28 26.4 0.7 1.3-1.6 2-1.7 0.5-0.3-2.9 3.7 1 0.9 0.9-12.7-0.9-38.9-36.3-46.4-46.1-87.4-114.7 25.4-228.6 47-317.8 3.8-15.5 2.1-33.7 6.9-48.5 1.4-4.2 6.9-2.6 7.1 1.3z"  fill="#fff500" /><path d="M566.3-101.6c-28 33-36.8 74-17.4 113.8 9.3 19.2 22.9 35.8 36.3 52.2 0.2 0.3 10.4 12.4 5.2 10.5-6.5-2.4 7.5-0.5 0.6 0-11.6 1-71.1-84.7-56.6-138.8 3.2-12.1 13-40.6 25.5-46.1 5.6-2.4 9.2 4 6.4 8.4z"  fill="#c2e1ff" /><path d="M573.3-238.4c-40.9 70.7-104 116.3-88 208.8 5.4 31.5 22.4 57.7 44.6 80.1 3 3 23.4 23.7 23 23.8-1.8 0.2 1.6 0.2-0.2 0-7.1-0.6-22.5-20.3-27.7-25.5-41.6-41.5-57.4-94.9-43.6-152.5 6.7-27.8 73-141.5 87.3-142.3 4.3-0.3 6.2 4.2 4.6 7.6z"  fill="#005bbb" /><path d="M576.9 58.1c1.8 2.1 14.5 14.6 12 16.5-2.1 1.6 2.1-0.9-0.3 0.1-5.2 2.3-15.7-20.3-11.7-16.6z"  fill="#c2e1ff" /><path d=""  fill="#c2e1ff" /><path d="M593.9-51.6c-8.2 21.5-8.4 44.3-1.5 66.2 1 3.2 11.3 22.9 6.3 23.2-3.3 0.2-2.5-5.2 0.6-4 3.1 1.2 0.1 5.8-2.3 3.4-16.8-17.1-24.2-71.8-11.1-92.6 2.9-4.6 8.9-1 8 3.8z"  fill="#fff" /><path d=""  fill="#fff" /><path d="M574-397.3c-13 43.8-8.2 90.5-23.8 133.9-18.1 50.7-53.8 91.9-67.2 144.8-5.7 22.5-8.7 45.9-7.4 69 0.2 3.4 5.6 24.8-1 23.6-3.3-0.6-2.9-5.6 0.4-5.6 3.9-0.1 3.7 6-0.1 5.7-6.6-0.5-12.9-62.1 8.2-123 14.2-40.8 41.2-74.8 57.4-114.6 16.5-40.3 14.6-83.1 22.8-125 0.7-3.6 0.9-9.9 3.4-12.7 3.2-3.5 7.8-0.1 7.3 3.9z"  fill="#005bbb" /><path d="M602.9-310c-29.8 106.2-114.1 150-119.2 246.7-1.7 32.5 7 64.1 26.3 90.4 6.6 9 14.2 17.3 22.1 25.2 1.3 1.3 4.1 5.4 2.3 5-4.1-0.9 4.3 0.5 0.1 0-11.9-1.4-32.5-35-38.2-44.6-72.3-120.5 47.3-196.2 85-285.7 5.3-12.5 7.1-28.7 13.7-40.3 2.6-4.5 8.5-1.3 7.9 3.3z"  fill="#fff" /><path d="M602.9-185.2c-41.7 48.2-104.3 86.4-92.1 159.9 5.1 30.3 23.1 55.1 43.5 77.2 4 4.3 19.6 16.1 20.3 21.5 0.1 0.6-0.7 1.4-1.4 1.3-4.8-0.8-14.3-14.5-17.9-18.2-37.1-38.9-64.6-85.6-47.5-140.6 11.5-36.9 56.2-88.1 87.8-109.5 5.7-3.8 10.8 3.4 7.3 8.4z"  fill="#fff500" /><path d="M602.7-347.2c-11.4 36.5-17.7 73.9-36.7 107.6-27.9 49.4-68.5 87.3-80.7 144.9-5.9 27.9-6 57.7 3.1 85 1 3 12.5 25.9 7.9 25-2.1-0.4-1.9-3.6 0.3-3.7 2.5-0.1 2.5 3.9-0.1 3.8-4.8-0.3-10.8-18.8-12.4-22.9-43.9-112.5 44-170.9 84-257.6 12.1-26.2 12.5-61.3 26.7-85.5 2.7-4.6 8.6-1.2 7.9 3.4z"  fill="#c2e1ff" /><path d=""  fill="#c2e1ff" /><path d="M602.6-108.7c-26.9 30.7-49 65.2-37.9 107.7 6.6 25.4 29.1 44.4 35.4 65.9 0.2 0.8-0.7 2.1-1.5 2.1-4 0.1-13.6-18.2-15.9-21.7-24.5-36.9-37.9-78.5-17.2-120.5 6.6-13.3 17.4-32.9 29.7-41.6 5.5-3.9 10.8 3.1 7.4 8.1z"  fill="#c2e1ff" /><path d="M602.8-212.7c-40.3 57-109.3 94-103.8 173.5 2 29.4 15.4 55.4 34.2 77.5 2.4 2.8 22.5 21.6 21.4 23.7-0.2 0.4-0.7 0.6-1.2 0.6-4.1-0.5-11.9-11.5-14.8-14.6-38-39.7-57.8-90.2-39.7-144.2 8.7-26 88.8-125.3 99.8-125 4.6 0.2 6.1 5 4.1 8.5z"  fill="#c2e1ff" /><path d="M602.8-252.1c-29.9 63.5-97.1 101.2-110.6 173.5-4.2 22.7-3.3 46.5 4.1 68.4 1.4 4.2 11.8 21.5 10.3 24.6-1.5 3.1-5.5-1.3-2.4-2.5 3.2-1.2 3.1 4.7 0 3.4-9.4-3.9-16.1-33.4-18.1-42.3-23.5-104.8 63.4-146.2 105.5-224.6 3.1-5.7 14.8-10.9 11.2-0.5z"  fill="#fff" /><path d=""  fill="#fff" /><path d=""  fill="#fff500" /><path d="M602.9-292.3c-22.2 71.4-81.9 111.7-106.9 178.5-6.2 16.5-9.9 33.9-10.9 51.4-0.2 4.7 2.7 20.8-0.7 23.7-4.5 3.7-7.6-5.9-1.8-5.5 5 0.3 2.7 8.2-1.7 5.8-5.2-2.8-2.9-21.8-2.7-27 2.3-72.4 51-114.9 88.5-171 9.4-14.1 20-51.6 29-60.4 3.5-3.4 8 0.4 7.2 4.5z"  fill="#c2e1ff" /><path d=""  fill="#fff500" /><path d=""  fill="#fff" /><path d=""  fill="#fff500" /></svg>