<svg width="1200" height="675" viewBox="-500 -500 1200 675" xmlns="http://www.w3.org/2000/svg"><path d="M-500-500h1200v675h-1200z" fill="#000"/><path d=""  fill="#fff" /><path d=""  fill="#c2e1ff" /><path d="M-397.6 70.5c7.4 6.5-0.7-0.5 0 0z"  fill="#fff500" /><path d="M-397.7 38.1c10.1 8 30.8 22.3 34.9 35.1 1.1 3.4-5.1 3-3.6-0.3 1.3-2.7 5.3 0.4 2.9 2.3-2 1.6-34.5-37.3-34.2-37.1z"  fill="#fff500" /><path d="M-396.5 72.5c2.9 3.7-5.6-1-2-1.8z"  fill="#c2e1ff" /><path d=""  fill="#fff" /><path d=""  fill="#005bbb" /><path d="M-398.1 17c6.5 5.3 57.4 50 49.5 58.1-2.2 2.2-5.6-1.4-3.1-3.4 2.8-2.3 5.6 3.1 2 4.1-4.1 1-13-18-15.4-21.2-2.2-3.1-40.5-42.3-33-37.6z"  fill="#fff" /><path d="M-397.9 26.7c9.2 7.3 43.4 32.2 42.5 45.3-0.2 3.3-5.5 1.8-3.9-1.1 1.6-2.9 5.8 0.7 3.1 2.7-3.2 2.3-16.6-19.5-19.2-22.4-7.3-8.4-31.8-30.5-22.5-24.5z"  fill="#c2e1ff" /><path d="M-397.6-22.9c8.7 9 82.2 87.7 67.4 98.8-3.6 2.7-6.7-4.1-2.3-5.1 4.4-0.9 4.4 6.6-0.1 5.6-5.8-1.3-17-34.4-20.7-40.6-12.9-21.1-29.5-38.8-46.4-56.7-1.3-1.4 0.7-3.1 2.1-2z"  fill="#fff" /><path d=""  fill="#005bbb" /><path d="M-397-56c8.4 13.1 93.1 120.7 75.2 132.2-4.1 2.7-7-5-2.1-5.6 5.7-0.8 3.3 8.9-1.3 5.6-8.5-6-15.1-39.3-20.5-49.8-13.7-26.3-45.7-55.3-55-80.5-0.9-2.4 2.2-3.6 3.7-1.9z"  fill="#005bbb" /><path d=""  fill="#005bbb" /><path d="M-386.5-188.8c-10.1 22.8-7.9 31.4-9.1 64.2-2.2 58.4 29.5 86.1 54.9 134.3 3.6 6.8 31.5 65.1 22.7 67-3.7 0.8-5.4-4.5-2-6.1 4-1.8 6.5 4.6 2.4 6-6 2-11.5-26.9-13.2-31.5-13-35.8-67.8-108.2-70.2-134.9-3-33.3-9.7-72.2 4.2-103.4 3-6.8 12.3-2.5 10.3 4.4z"  fill="#fff" /><path d="M-378.1-213.4c-16.7 33.3-16.4 43.8-17.8 89.8-0.8 25.4-1.8 43 10.4 64.3 6.6 11.5 82 132.6 66.6 136.1-5 1.1-5-7.3 0-6.3 4.3 0.9 2.4 7.5-1.7 6.2-6-2-14-38.5-17-45.6-15.1-34.9-53.9-74.2-62.5-108.4-6.6-26.5-3.2-86-3.5-107.2-0.1-7 11.2-32 16.8-36.2 5.2-3.8 10.5 2 8.7 7.3z"  fill="#005bbb" /><path d="M-383.9-397.5c-1.7 7.8-7.2 56.9-16 54.7-6.4-1.6-3.3-11.6 2.9-9.2 6.2 2.3 2 11.9-3.9 8.9-6.1-3.1 3.8-53 8.4-58.5 3.5-4.2 9-0.5 8.6 4.1z"  fill="#c2e1ff" /><path d="M-361.5-204.5c-33.7 69.1-23.9 110.2 10.5 175.5 5.1 9.8 49.4 103.9 37.6 106-5.2 0.9-4.9-7.9 0.3-6.5 5.2 1.4 1.1 9.2-3 5.8-2.8-2.3-15.2-50.4-18.5-58.6-21-52.9-62.4-101.9-57.2-161.8 1.7-19.8 7.7-50.6 20.7-66.5 4.4-5.5 11.6 0.2 9.6 6.1z"  fill="#c2e1ff" /><path d="M-353.2-251.7c-23.8 56.5-61.7 110.1-34.4 174.6 5.7 13.6 85.1 150.5 70.5 153.5-5.9 1.2-4.1-9.1 1.1-5.9 5.2 3.2-3.3 9.4-4.9 3.6-16.9-65.4-69.5-124.1-79.9-170.6-4.4-19.9-2.1-47.6-2.3-66.4-0.2-17.3 29.3-80.2 40.3-94.5 4.2-5.5 11.4-0.1 9.6 5.7z"  fill="#005bbb" /><path d="M-345.1-297.8c-6.7 30-46.8 100.2-47.9 115.3-1.4 19.7-2.2 39.4-2.8 59.1-0.4 11.7-2.4 33.3 1 46.2 7.6 28.6 87.5 128 78.1 151.9-1.9 4.7-8.9 0-5.2-3.5 4.3-4.1 8.2 5.5 2.2 5.5-5.2 0-16.2-41.3-18.9-47.6-14.9-33.7-52.9-72.2-61.3-105.3-8-31.6-2.6-84.4-2.6-112.4 0-17.9 21.6-45.7 29.2-61.8 7.5-16.1 10.7-35.5 18.9-50.9 2.9-5.4 10-1.8 9.3 3.5z"  fill="#005bbb" /><path d=""  fill="#fff" /><path d="M-330.3-54.9c5 18.3 36.8 118.8 30.7 129.9-2.8 5.1-10-1.3-5.3-4.7 4.7-3.4 8.6 5.4 2.9 6.5-6.7 1.4-11.1-42.7-12.6-49.2-5.6-25.5-21.2-55.8-21.9-81.5-0.1-3.9 4.9-4.2 6.2-1z"  fill="#c2e1ff" /><path d="M-321.8-398.3c-0.3 44.7 3.5 88.4-11.4 131.4-16.9 48.9-53.4 93.2-50.5 147.4 1.9 36.7 21.5 68.5 37.9 100.2 1.7 3.3 16.4 27.1 9.2 27.4-13.3 0.6 12.9-6.4 1.1-0.3-4.9 2.5-14-23.3-16-27.2-23.2-45.6-49.1-89.4-37.5-142.5 10.9-49.7 44.7-90.7 55.1-140.8 6.4-31.2-2.9-68.3 3.9-96.6 1.2-5 7.7-3.5 8.2 1z"  fill="#c2e1ff" /><path d="M-312-124.3c-10.5 53.4 9 109.9 16.3 162.7 0.8 5.6 8.3 38.7 0.4 39-4.4 0.2-5.4-6.4-1.1-7.5 5-1.3 6.7 6.7 1.5 7.5-7.4 1.1-8.3-39-9.1-45.3-5.8-42.3-17.7-84.5-19-127.3-0.9-31.7 11.5-44.6 11-29.1z"  fill="#fff" /><path d="M-303.1-164.8c-28.5 61.2-7.5 123.3 3 186.1 1.2 6.9 11.4 55.3 3.6 55.7-5.1 0.3-5.1-7.9 0-7.6 4.4 0.3 4.7 6.8 0.4 7.5-7.4 1.2-5.9-17.8-6.5-21.9-6.8-56.2-27.8-114.1-23.9-171 1.1-16 3.7-41.2 13.7-54.4 4.2-5.5 11.4-0.2 9.7 5.6z"  fill="#c2e1ff" /><path d="M-294.8-179.3c-34.5 63.8-18.4 123.6-6.6 190.7 1.4 7.7 13.2 65.3 5.1 65.8-5.2 0.3-5.1-7.9 0.1-7.6 4.4 0.3 4.7 6.9 0.3 7.5-7.6 1.2-6.3-20.8-6.8-25.2-7-57.1-28.9-116.9-22.4-174.7 2.1-18.9 7.7-48.3 20.7-63.1 4.7-5.4 11.9 0.6 9.6 6.6z"  fill="#c2e1ff" /><path d="M-286.8-121.9c-13.5 49.8-1.7 103.5 1.8 154 0.4 6.2 6.4 45.3-1.7 45.2-4.7 0-5.3-7-0.8-7.9 5.3-1.1 6.6 7.4 1.3 7.9-8 0.8-6-36.5-6.5-42.7-2.7-42.6-10.5-85.8-8-128.5 0.5-8.1-0.3-26 5.2-32.4 3.6-4.2 9.2-0.4 8.7 4.4z"  fill="#c2e1ff" /><path d="M-278.2-237.5c-26.7 59.2-59.2 102.3-46.4 170.9 3.8 20.5 34.5 130.8 28.1 141.9-3.5 6-10.9-3.5-4.3-5.5 5.7-1.7 6.4 8.1 0.5 7.3-6.6-1-11-54-12.6-62.1-10.4-51.4-31.7-104.7-20.9-157.7 6.5-31.9 25.2-75.6 46-100.9 4.5-5.4 11.6 0.2 9.6 6.1z"  fill="#005bbb" /><path d="M-269.8-231.4c-29.4 62.4-59.1 96.9-47 170.8 3.1 19.3 28.9 125.9 22.8 136-3.1 5.1-10.3-1.7-5.4-5.1 5.8-3.9 8.5 8 1.5 6.9-6.8-1.1-9.9-54.2-11.3-62.4-9.1-51.8-27.8-105.7-15-158.4 7.2-29.7 24.9-70.7 44.8-94.2 4.6-5.4 11.7 0.4 9.6 6.4z"  fill="#fff500" /><path d="M-252.8-399.4c13.6 51.5 29 101.5 10.8 154.2-16.9 48.8-54.3 87.7-60.4 140.6-1.4 11.8 5.3 73.2 3 77.2-3.4 6-10.8-3.3-4.3-5.4 5.6-1.7 6.4 8 0.6 7.2-6.4-0.9-5.6-21.8-6.2-26.5-13.3-114.8 40.5-125.2 63.4-216.8 12.5-49.8-16.5-115.7-13.2-130.3 0.8-3.5 5.1-3 6.3-0.2z"  fill="#fff500" /><path d="M-254.1-304.9c0.6 81.2-73.2 136.7-66.8 219.6 2.8 36.4 32.9 131.9 26.9 159.2-1.5 6.9-11.6 0-5.8-3.9 5.8-4 8.5 8 1.5 6.8-6.9-1.1-9.2-48.8-10.5-56.4-9.1-52.7-29.2-107.8-17.3-161.6 10-45.3 42.2-80.4 56.4-123.9 4.4-13.5 3.6-27.8 7.3-41 1.4-5 7.9-3.3 8.3 1.2z"  fill="#c2e1ff" /><path d="M-244.8-169.5c-30.5 60.8-26.9 118.4-25.7 184.2 0.1 7.9 3.7 63.4-4.7 62.8-4.9-0.3-5.2-7.7-0.3-8.3 5.7-0.8 6.5 8.2 0.8 8.3-7.8 0.3-4.2-17.5-4.2-21.6 0.7-57.7-9.4-119.5 3.7-176.1 3.8-16.7 9.6-42 20.7-55.5 4.5-5.5 11.7 0.3 9.7 6.2z"  fill="#c2e1ff" /><path d="M-237.5 13c0.1 8.1 1.5 66.4-8.1 65.1-6-0.8-4.2-10.3 1.8-8.8 5.9 1.5 3 10.7-2.7 8.5-5.2-1.9-2.2-60.6 1.2-66.8 2.2-4.1 7.4-2 7.8 2z"  fill="#fff500" /><path d="M-228.4-140.8c-16.8 61.1 14.3 176.6-3 216.3-2.9 6.5-12.4-0.4-7.1-5.2 6.2-5.5 11.2 8.1 2.8 7.9-8.1-0.3-1.2-51.6-1.2-59.6 0.2-52.1-14-104-2.7-155.8 1.6-7.3 12.6-15 11.2-3.6z"  fill="#005bbb" /><path d="M-214.9-399.4c11 39.4 23.3 78.5 20.4 120-4.8 68.5-52.2 124.3-57.5 192.8-0.9 11.8 3.8 108.2-3.6 107.7-7.9-0.6-1.9-12.9 3.4-7.1 5.3 5.8-7.5 10.7-7.4 2.8 1-47.9-6.6-96.9 4.3-144.2 10.4-45.4 37.1-84.9 47.9-130.2 17.7-74.5-12.2-95.7-13.8-140.8-0.1-3.9 4.9-4.2 6.3-1z"  fill="#fff500" /><path d="M-213.4-34.7c3.8 17 19.8 99 10.1 110.6-4.4 5.3-11.4-3.8-5.2-6.7 6.3-2.9 8.8 8.3 1.9 8.2-8.5 0-3.5-24.6-3.5-29.7 0.2-27.7-4.7-53.9-9.9-81-0.8-4.4 5.2-5.5 6.6-1.4z"  fill="#c2e1ff" /><path d="M-203.3-190.3c-14.6 42.2-22.3 82.4-13.7 126.9 6.6 34.1 31.6 105.9 19.1 138.5-2.9 7.5-13.1-2-5.8-5.4 6.2-3 8.8 8.1 1.9 8.2-6.8 0.1-4.9-56.5-5.9-64.3-7-56.4-29.7-107.4-17.7-165.1 2.3-11 5.1-36.4 13.4-44.4 4.3-4.1 9.8 0.6 8.7 5.6z"  fill="#fff500" /><path d="M-196.3 18.6c1.2 8.1 8.8 56.9-0.7 59.1-5.7 1.4-7.3-7.7-1.5-8.4 5.8-0.8 6.5 8.4 0.6 8.6-8.1 0.2-3.9-20.5-3.9-25 0-11-3.2-23.6-1.9-34.3 0.5-4.5 6.4-3.9 7.4 0z"  fill="#c2e1ff" /><path d="M-186.9-188c-7.1 31.7-9 64.1 4.7 94.4 24.1 53.2 74.6 81.4 73.3 145.7-0.1 5.7 1.3 20.2-2.9 24.4-4.4 4.5-11.1-2.9-6.3-6.8 5.7-4.7 11.2 6.3 4.1 8.1-9.7 2.5-4.3-16.7-4-20.1 1.5-17 0.9-34.3-4-50.7-14.5-48-62.5-76-75.1-125.5-5.1-20.1-8.3-53.2 1-72.6 2.6-5.4 9.7-2.2 9.2 3.1z"  fill="#fff500" /><path d="M-171-399c10.3 39.8 20.4 78.8 18.5 120.3-2.3 47-22.6 99.8 0.3 144.4 16.3 31.6 95.7 73.4 93.3 106.6-0.4 6.1-10.1 1.5-5.5-2.6 3.9-3.5 8.2 4 3.2 5.5-2.1 0.7-20.2-36.6-25-41.7-26.5-28.7-64.2-43.9-78.4-83.1-19.5-53.9 8-115.1 3.1-170.8-2.3-25.6-15.5-52.6-15.9-77.7-0.1-4 5.1-4.2 6.4-0.9z"  fill="#c2e1ff" /><path d="M-172.5-13.1c4.5 10.1 32.2 85.8 16.2 90.4-6.4 1.8-7-9.1-0.5-8.1 5.6 0.9 3.7 9.6-1.8 8.1-6.4-1.7-3.2-17.1-3.4-21.8-0.4-8.3-19.3-83.9-10.5-68.6z"  fill="#fff500" /><path d="M-163.3-159.8c9.2 57.7 67.8 70.2 94 115.8 15.1 26.3 12.6 56.7 4.5 84.8-2 7.1-8.4 39-17.4 38.2-6.3-0.6-6.5-10-0.2-10.8 6.3-0.8 8.5 8.4 2.5 10.5-14.9 5.3 1.6-30.2 2.9-33.9 8.2-24.4 14.8-51.2 7-76.7-12.8-41.9-57.8-56.8-82.6-89.5-8.4-11-14.2-23.5-17.4-36.8-1.1-4.4 5.3-5.6 6.7-1.6z"  fill="#fff" /><path d="M-154.1-290.9c-0.1 46.8-20.4 96.3-7.8 142.4 22.9 83.9 130.2 70.1 96.1 190.3-2.1 7.2-7.1 34.9-15.1 36.9-9.8 2.4-7.4-15 1.4-10 8.8 5-5 16-7.9 6.3-2.6-8.6 23.7-69.3 18.3-97.7-11.2-59.2-85.3-73.1-100.9-131.3-4.3-15.9 0.7-131.5 8.6-139.9 2.8-3 7-0.6 7.3 3z"  fill="#c2e1ff" /><path d="M-148.2-132.2c42.6 72.9 125.4 58 84.8 178.3-2.2 6.4-7.9 33.5-16.6 32.6-6.4-0.7-6.4-10.3 0-10.9 6.4-0.7 8.5 8.6 2.4 10.7-15.1 5.1 2-30.3 3.4-34 9.2-25.4 17.2-53.5 9.2-80.3-11.5-38.7-50.4-54-76.2-81.2-2.9-3-10.4-9.4-10.9-13.8-0.3-2.3 2.5-2.9 3.9-1.4z"  fill="#fff" /><path d="M-136.2-399.5c8.3 28.2 16.7 56.3 19.3 85.7 3.7 41.3-8 86 6.3 125.8 26.1 72.5 119.7 81 89.4 180.1-1.7 5.6-5.1 24.5-13.4 23.3-6.5-0.9-6.2-10.8 0.4-11.2 6.6-0.5 8.3 9.2 2 11-15.2 4.5 2-29.7 3.1-33.2 6.5-21.3 7.3-44-1.3-64.7-18.8-45.4-71.9-63.6-88.5-111-16.4-47.2-0.8-100.4-9.4-149.2-3.2-17.9-13.2-37.7-14-55.5-0.2-3.8 4.8-4.2 6.1-1.1z"  fill="#005bbb" /><path d="M-111.3-399.3c9.5 25.4 18.9 50.8 23 77.7 6.9 45.3-4.7 94.1 18.2 136.1 6.1 11.1 87 106 66.3 114.8-5.4 2.3-7.3-7.3-1.3-7.1 5.9 0.2 3.5 9.7-1.8 7.1-5.5-2.7-12.3-39.2-17.1-47.1-20.2-33.5-52.6-57.3-63.8-96.3-15.3-53.7-1.5-105.4-22.2-164.7-3.6-10.2-6.4-30.2-1.3-20.5z"  fill="#fff500" /><path d=""  fill="#005bbb" /><path d="M-113.2 21.4c1.7 7.9 8.7 54.5-2.5 56.3-6.2 0.9-7.1-8.9-0.8-9.2 6.3-0.3 6.1 9.6-0.2 9.2-4.8-0.3-3.4-79.7 3.5-56.3z"  fill="#005bbb" /><path d=""  fill="#fff" /><path d="M-77-399.3c57.4 101.9 24.8 102.7 48 190.4 20 75.5 75.2 119.4 27.1 202.2-4.8 8.3-16.3-2.1-8.8-7.7 7.6-5.6 14.1 8.7 4.7 10.7-16.2 3.4 6.7-36 8.4-40.6 8.7-25.2 8.8-51.6 0.4-76.9-11.6-35.2-34.3-65.2-41.9-101.9-9.5-46-2.4-91.3-22.1-135.7-1.4-3.1-25.9-54.2-15.8-40.5z"  fill="#005bbb" /><path d="M-91.2-105.7c54.8 40.6 62.8 88.5 36.9 150.3-2.9 7-10.1 33.3-18.1 34.7-10.4 1.8-6.6-16.2 2.1-10.4 8.8 5.9-6.3 16.3-8.6 6-1.4-6.1 33-79 32.7-103.8-0.3-22.5-10.1-42.6-25.9-58.4-3.2-3.2-19.9-18.9-19.1-18.4z"  fill="#fff500" /><path d="M-80.9-376.1c26.4 58.8 14.5 103.6 29 160.8 24.5 96.9 105.6 108.1 35 228.9-4.7 8-20 42.1-29.5 42.5-11.4 0.5-4.8-18.3 3.8-10.8 8.6 7.5-9.1 16.6-10.1 5.2-1-10.8 18.7-32.1 24.3-41.4 18.1-29.9 34.1-62.9 29.2-98.8-6.5-46.9-45.2-79.6-58.8-123.9-14.2-46.4-4.2-95.6-20.6-142.1-1.8-5.2-7.8-14.1-7.4-19.5 0.2-3 3.9-3.1 5.1-0.9z"  fill="#005bbb" /><path d="M-74.3-128.8c63.3 52.6 66.3 97.5 30.2 169.4-3.8 7.5-14.2 37.3-22.7 38.4-10.8 1.4-6.1-16.9 2.8-10.5 8.8 6.4-7.2 16.5-9.2 5.7-1.2-6.5 43.3-88 44.9-114.7 1.5-25.3-8.4-48.2-25.5-66.6-0.7-0.8-27.3-26.1-20.5-21.7z"  fill="#005bbb" /><path d=""  fill="#005bbb" /><path d="M5.5-399.5c25.1 21.4 48.4 45.5 57.9 78.1 14.6 50.4-3.2 106.9-0.8 158.6 0.8 17.9 0.2 110.7-17.2 113.5-9 1.4-8.2-13.7 0.6-11.2 10.3 2.9-1 17.7-6.5 8.5-4-6.8 10.4-32.4 12.3-40.8 8.3-38.5 0.5-78.3 2.1-117.2 1.1-24.5 5.5-48.6 6.2-73.1 0.9-31.9-7.7-61.6-28-86.5-8.4-10.3-37.6-37.3-26.6-29.9z"  fill="#c2e1ff" /><path d="M-44.8 48.9c-3.5 6.2-12.8 32-21.4 30.1-7.8-1.7-4.4-14 3.2-11.4 8.9 3 0.8 16.4-6 9.9-12.9-12.3 35-55.1 24.2-28.6z"  fill="#c2e1ff" /><path d="M62.1-399.2c22.8 19.3 40.2 43.8 47.5 73.1 13.5 53.7-5.7 111.3-9.3 165.3-0.6 9.5-0.1 68.2-11.3 68.8-9.2 0.5-4.1-14.7 3-8.7 7 6-7.1 13.5-8.2 4.3-2.4-21.4 21.1-157.6 21.9-193.5 0.7-29.3-6-58.2-22.9-82.5-1.2-1.7-26.5-30.8-20.7-26.8z"  fill="#fff500" /><path d="M-28.1 42.7c-4.8 6.7-21 39-29.8 36.4-9.4-2.7-1.6-17 5.7-10.5 6.3 5.5-2.9 14.9-8.5 8.8-6-6.5 17.8-40.7 24.5-44.1 6.3-3.2 11 4 8.1 9.4z"  fill="#005bbb" /><path d="M-23.4-374.1c43.1 57.3 29.4 100.5 36.5 165.5 11.7 105.7 49.5 125.2-23.3 226.8-5.5 7.7-22.9 40.9-32.6 40.8-11.7 0-4.1-19 4.4-10.8 8.5 8.1-10.1 16.6-10.7 4.9-0.7-12.9 25.3-38 32.8-48.4 22.6-31.6 42.9-65.5 42.8-105.7-0.1-38-16.7-73.4-21.3-110.8-4.9-39.6 3.9-80.6-9.6-119-0.7-1.9-26.6-51.6-19-43.3z"  fill="#005bbb" /><path d=""  fill="#c2e1ff" /><path d="M-6.8-370.1c40.2 51.1 28.8 102 32.6 162 6.9 110.6 42 125.1-35.5 228.5-5.8 7.7-24.3 41.6-33.8 41.5-11.8-0.1-4-19 4.5-10.9 8.5 8.2-10.2 16.6-10.7 4.9-0.6-13.2 26.7-39.2 34.5-49.7 24-32.1 46.2-66 47.9-107.3 1.5-37.9-12.5-74.3-15.1-111.9-2.6-37.4 6-76-5.3-112.5-4.8-15.5-30.3-56.3-19.1-44.6z"  fill="#c2e1ff" /><path d="M3.6-303.5c5.4 31.4 0.5 63.5 4.7 95.1 5.2 39.3 24 75.9 24.3 115.9 0.5 51.7-30.9 92.6-59.5 132.8-4.9 6.9-22.6 41.7-31.5 39.1-8-2.3-3.7-14.7 4.1-11.5 6.6 2.7 3.6 13-3.4 11.7-14.2-2.5 8.4-29 11.6-33.8 26.3-38.9 61.4-76.7 68.9-124.8 7.6-48.6-18.2-93.2-23.4-140.6-1.7-15.7-7.3-72.4-2.8-84.6 1.4-3.8 6.2-2.6 7 0.7z"  fill="#005bbb" /><path d="M11.7-196.7c23.3 129.9 45.8 118.8-39.2 238.1-4.9 6.9-22.1 40.5-30.8 38-9.4-2.7-1.6-16.9 5.8-10.5 8.6 7.5-9.1 16.6-10.2 5.2-0.6-6.3 73.7-109.9 81.5-133.9 9.7-30 6.2-60.2-1.9-90.1-2.5-9.2-16.4-39.5-11.6-47.8 1.7-3 5.5-1.8 6.4 1z"  fill="#c2e1ff" /><path d="M19.7-161.9c26.9 93.3 2.5 132.7-50.6 208-4.5 6.4-18.5 35.6-27.3 33.1-11-3.2 1.3-18.9 7.1-9 4.9 8.4-10.5 13.4-11.5 3.7-1.2-12.2 67.1-99.4 76.3-120.7 8.8-20.6 12.5-42.7 10.4-65-1.5-16.3-10-33.1-10.6-49.1-0.1-3.9 4.9-4.2 6.2-1z"  fill="#005bbb" /><path d="M28.5-309.6c7.5 34.5-0.2 70 1.9 104.9 2.4 40.2 16.9 79.4 12.2 120.1-5.8 49.5-38.4 87.4-67.2 125.8-5.2 6.9-23.2 40.6-31.9 37.9-6.9-2.1-4.9-12.7 2.3-12 8.4 0.7 6.6 13.8-1.6 12.2-14.2-2.7 8.5-28.5 11.7-33.1 28.3-40.3 66.7-78.3 76.6-128.3 8.2-41-6.3-80.8-9.9-121.3-3-34.1 3.7-68.4-0.7-102.3-0.6-4.9 4.6-10.5 6.6-3.9z"  fill="#005bbb" /><path d="M37.7 34.2c-8.1 5.8-61.2 46.4-61.4 46.3-10.8-2-3.7-18.9 5.3-12.5 9 6.4-4.6 18.7-10.1 9.1-6.2-10.9 49.6-55.1 60.8-56.6 8.3-1.2 10.8 8.8 5.4 13.7z"  fill="#005bbb" /><path d="M118.5-399.9c18.8 24.7 29.3 54.3 32 85.2 5.2 59.1-14.1 119.3-18.9 178.2-1 11.5-4.3 88.1-19.1 87-10-0.7-2.4-16.5 4.4-9 6.8 7.4-9.6 13.6-9.4 3.5 0.2-13.5 8.8-29.9 10.9-43.6 8.6-55.5 14.5-112.1 21.9-167.9 4.3-32.8 4-66.7-7.7-98-4.3-11.6-21.2-43.1-14.1-35.4z"  fill="#c2e1ff" /><path d="M55.2-36.4c-19.7 30.6-47.7 54.7-71.8 81.7-5.5 6.2-26.2 40.1-34.9 33.2-6.8-5.4 2.3-15.6 8.5-9.5 6.1 6.1-4 15.3-9.5 8.5-7.4-9.1 24.6-39.9 30.7-46.7 11.1-12.5 60-71.7 68.9-76.4 6.2-3.2 10.9 3.8 8.1 9.2z"  fill="#fff500" /><path d=""  fill="#005bbb" /><path d="M68.3-365.1c35.8 47.8 22.9 103.4 17 158-11.3 105.5 3.5 141.1-76.5 224.8-7.2 7.5-30.2 40.7-39.9 39.8-9-0.8-6.9-14.9 2-13.1 8.8 1.8 5.2 15.6-3.4 12.8-15.1-4.9 16.1-32.8 20.6-37.7 36.4-39.3 74.2-75.1 82.7-130.7 4.2-27.5 15.8-186 12.2-206.4-1.1-6.1-21.2-55-14.7-47.5z"  fill="#fff500" /><path d="M78.1-324.8c12.1 39.8 1.1 81.1-2.1 121.3-3.6 44 3.4 89.4-10.7 132-14.7 44.4-49.4 76.3-79.4 110.6-6.2 7.1-28.5 43.4-37.3 40.3-9.5-3.3-0.7-17.5 6.5-10.5 8.5 8.2-10.2 16.6-10.8 4.8-0.4-9.7 101.3-117.4 114-158 6.2-20.1 18.7-203.9 15.9-225.8-0.1-0.7-0.7-26.8 3.9-14.7z"  fill="#c2e1ff" /><path d="M116.8-399.3c55.1 71.2 24.2 156.1 16 236.3-4.1 39.9-7.2 139.9-47.8 161.6-8.3 4.4-14.5-9-5.9-12.4 10.2-4.1 13.2 13.8 2.3 13.2-18.1-0.9 21.9-48.1 26.1-59.4 21-56.3 17.7-123.8 27.9-183 6.5-37.7 10.2-76.6-1.6-113.6-0.7-2.3-25.2-51.7-17-42.7z"  fill="#fff500" /><path d="M96.2-262.5c-4.6 47.8-9.3 159.9-24.7 197.9-17.5 43.4-54.2 73.5-84.9 107.2-6 6.6-27.1 40.3-36 37-11.2-4.1 2.7-19.5 8-8.8 4.5 9.1-11.8 13.1-12.2 3-0.5-17.8 98.6-110.3 112.8-138.7 24.8-49.8 20-135.3 27.2-192.5 0.8-6 9.7-16.1 9.8-5.1z"  fill="#fff500" /><path d="M105.1-69.1c-16.8 51.8-59.9 79.6-99.4 113.1-7.1 6-36.6 42.1-44.6 34.4-7.7-7.4 7-17.2 10.8-7.2 3.9 9.9-13.6 12.6-12.9 2 0.9-15.2 68.1-65.2 82.3-76.9 32.4-26.7 47.7-64.7 55.1-71.3 4.4-4 9.8 0.8 8.7 5.9z"  fill="#c2e1ff" /><path d="M112.9-264.5c-4.7 48.9-13.5 168.2-31.9 207.3-19 40.5-55.4 67.4-86.4 98.2-6.6 6.6-31.4 42-40.1 38.5-11.2-4.5 3.3-19.7 8.3-8.7 4.3 9.4-12.4 13-12.4 2.7 0-13.8 106.6-109.3 121.3-138.2 31.3-61.7 10.9-143.8 32.4-201.9 1.9-5.2 8.8-2.8 8.8 2.1z"  fill="#c2e1ff" /><path d="M121.9 31.4c-5 8.3-39 58.6-49.5 46.7-6.3-7.1 5.4-16.5 10.9-8.7 5.5 7.8-7.2 15.8-11.8 7.5-3.3-5.9 36.5-52.9 43.5-54.9 5.9-1.6 9.1 4.6 6.9 9.4z"  fill="#fff" /><path d="M129.6-194.4c-20.3 138.6 1.2 147.1-116.9 240-7.5 5.9-35.8 38.4-44.3 34-11.3-5.8 5.4-20.3 9.6-8.3 4.2 12-17.9 11-12.7-0.6 15.7-35.1 94.3-70.9 120.8-109.4 31.9-46.4 25.6-104.1 34.3-156.9 1-6.1 9.3-4.6 9.2 1.2z"  fill="#fff" /><path d="M148.7-399.3c13.1 25.4 19.7 53.5 21.1 81.9 2.8 63-18.6 124.9-22.4 187.8-1.7 28.6-14 157-38.8 156.2-11.9-0.3-3.7-19.4 4.7-10.9 7.2 7.2-7.1 16.3-10.6 6.7-3.1-8.3 19.1-37.1 22.4-46.9 21.4-64.1 13-137.6 25.8-204 8-41.5 15.1-83.4 7.1-125.5-1.9-9.8-18-59.1-9.3-45.3z"  fill="#005bbb" /><path d=""  fill="#005bbb" /><path d="M154.6-261.3c-4.5 34.4-12.5 68.1-15.9 102.6-10.7 109-9.7 146.6-105.2 213-7.6 5.3-33 30.8-41.4 25.1-7-4.7-1.2-15.8 6.6-12.8 9.2 3.6 2.7 17.7-6 13.2-4.5-2.3-5.1-8.6-1.3-11.9 39.8-34.7 94.1-57.2 117.5-107.3 22.8-48.7 25-162.7 36.5-223.3 1.2-6.1 9.4-4.6 9.2 1.4z"  fill="#fff500" /><path d=""  fill="#fff" /><path d="M171.4-255.2c-5.7 34.1-13.9 67.7-17 102.3-4.3 49.3 0.4 100.2-10.9 148.7-3.5 14.9-34.8 86.2-50.5 84.2-9.1-1.1-6.6-15.4 2.3-13.2 8.9 2.1 4.9 16-3.8 12.9-14-4.9 10.9-26.9 14.5-31.5 16.1-21.1 26.5-44.9 31.3-71 14.1-75.6 5.2-146.1 24.7-234 1.4-6.2 9.7-4.4 9.4 1.6z"  fill="#fff" /><path d="M178.5-85.6c6.8 45.9 29.6 81.2 48.1 122.5 2.5 5.6 16.8 36.9 8.3 40.3-5.7 2.2-7.3-7.8-1.2-7.5 6.1 0.4 3.3 10.1-2.1 7.3-5-2.7-5.7-25.6-7.8-31.7-11.6-33.8-33.6-62.7-44.4-97-3-9.6-8.7-23.3-8-33.6 0.3-4.4 6-4.1 7.1-0.3z"  fill="#fff" /><path d=""  fill="#fff" /><path d=""  fill="#fff" /><path d="M204.9-208.8c-15.3 58.7-17.3 122.2 21.5 172.6 20 26 93 77.7 93.7 109.5 0.1 5.5-8.9 2.2-5.2-1.9 3.2-3.5 7.7 2.9 3.4 4.7-3 1.3-20.7-34.8-24.7-39.8-40.5-51-94.7-79.3-105.5-149.4-5-32.3-1.7-66.7 7-98.1 1.8-6.4 10.6-3.9 9.8 2.4z"  fill="#005bbb" /><path d="M212.6-146c-5 115 91.3 115.4 134.2 192.5 2.4 4.3 15.1 26.3 8.9 29.8-3.9 2.2-7.1-4.2-3-5.9 3.6-1.5 6.4 3.5 3.3 5.7-6.4 4.6-8.1-13.2-9-15.7-3.8-11.3-9.5-21.9-16.8-31.3-31.3-40.9-83.1-59.7-108.9-106-9.9-17.8-22.4-49.3-17.1-70.1 1.3-5 7.8-3.5 8.4 1z"  fill="#c2e1ff" /><path d="M219.3 34c2.5 5.9 16.9 40.2 7.7 43.4-5.1 1.8-7.5-6.5-2.2-7.7 5.3-1.2 6.7 7.3 1.4 7.9-2.5 0.3-17.5-63.9-6.9-43.6z"  fill="#005bbb" /><path d="M229.8-320c-17.3 85.3-64.2 177.9-22.1 263.2 21.8 44.2 66.5 69.3 91.4 111 1.8 3 13.7 20.3 7.1 22.2-4.5 1.4-5.1-6.4-0.4-5.8 4 0.6 2.8 6.8-1.2 5.8-5-1.3-12.4-25.2-15.6-30.2-48.1-74-107.4-82.8-106.7-190.1 0.1-20.4 30.5-174.2 39.8-181 3.9-2.9 8.1 0.8 7.7 4.9z"  fill="#fff500" /><path d="M238.2-321.8c-20 83.4-69.2 178.1-24.9 261.9 24.2 45.7 73.5 68.7 100.5 111.8 2 3.3 15 22 8.1 24.1-3.9 1.2-5.4-5-1.4-5.8 4.6-0.9 4.4 7-0.2 5.8-4.8-1.2-11.4-23.6-14.5-28.6-46.5-73.1-116.6-81.1-118.6-187.2-0.5-24.6 29.7-172.3 42.4-186.5 3.7-4.2 9.2-0.2 8.6 4.5z"  fill="#005bbb" /><path d="M245.3-127.6c8.9 83.8 107.3 101 132.3 175.1 2.3 7 7.3 19.3 5.9 26.5-1.2 5.8-10.2 1.8-6.7-2.9 3.5-4.8 10 2.6 4.8 5.5-7.5 4.2-7.3-15.6-7.8-18.3-3.1-15.6-9.1-30.4-18.2-43.6-26.2-37.9-71.7-56.2-98.1-94.1-8.3-11.9-20.8-32.7-19.5-47.9 0.4-4.5 6.2-4.1 7.3-0.3z"  fill="#fff" /><path d="M254.8-362.1c-16.2 90.5-81 190.2-44.8 283 19.8 50.6 67.6 73.7 101.6 112.6 1.6 1.8 6.3 5.2 5.4 8-1 2.9-5.3 0.2-3.2-2 2.5-2.6 5 3.1 1.4 3.2-4.4 0.2-24.3-26.5-29-30.6-49.4-44.1-93.7-81.7-94.9-153.4-1.2-73.5 35.8-142.9 51.9-213.3 1.2-5.2 12.6-21.6 11.6-7.5z"  fill="#005bbb" /><path d="M263.5-246.5c-27.6 55.4-47.9 122.6-7.6 177.4 33 44.9 93.1 63.5 113.9 118.2 1.7 4.5 10.7 24.8 4.4 27.7-5.2 2.4-7.3-6.9-1.5-6.9 6.7 0 2.4 10.9-2.5 6.3-2.5-2.4-15.2-49-26.4-62.7-41.8-51.3-110.7-71.3-118.7-146.3-4.3-40.1 9.6-83.5 28-118.7 3.5-6.8 12.8-1.9 10.4 5z"  fill="#c2e1ff" /><path d="M270.6-136.4c2.7 82.6 102 107.5 120.5 183.9 1.8 7.2 5.8 19.7 4 27-1.6 6-10.8 1.4-6.9-3.5 3.9-4.8 10.4 3.3 4.8 6-8.4 4.1-6.9-18.1-7.4-21.5-2.3-15.7-7.1-31-15-44.8-23.1-40.6-68.6-61.3-92.6-101.2-8.3-13.8-13.6-29.2-15.2-45.1-0.5-5.1 6.8-5.5 7.8-0.8z"  fill="#c2e1ff" /><path d="M305.1-397.7c-5.8 82.9-74.8 154.5-84.5 240.2-2.8 24.9 0.1 50.4 11 73.2 1.9 3.9 14 19.2 12.8 22.6-1.1 3.2-5.5-0.6-2.5-2.2 2.9-1.6 3.6 4.2 0.3 3.3-9.1-2.5-18.9-28.6-22-36.5-35.3-91.2 36-183.1 66.2-264.8 4-10.7 4.3-30.1 10.4-38.9 2.8-4.1 8.2-1.2 8.3 3.1z"  fill="#fff" /><path d="M287.4-397.8c-5.7 98.8-92.4 183.4-72.9 286.3 7 37.2 30.1 65.8 58.9 88.9 8.8 7.1 17.9 13.7 26.7 20.6 1.1 0.9 2.2 5.1 2.1 3.7-0.4-3 3.9 0.9 0.9 0.8-6.6-0.1-23.2-17.6-28.8-21.9-44.7-34.6-73.7-78.3-70.4-136.8 4.2-74.1 46.4-139.3 67.4-208.9 3.3-11.1 3.6-23.9 7.4-34.7 1.8-5.2 8.6-2.9 8.7 2z"  fill="#005bbb" /><path d="M294.4 70c4.3 11.2-8.9 4-3.3 0.9 5.8-3.2 5.3 8.8-0.2 5.2-5.6-3.7 0.8-11.6 3.5-6.1z"  fill="#fff500" /><path d="M300.7-44.8c35.3 30.2 72.7 54.9 83.4 103.3 0.9 4.1 5 14.8 1.2 18.1-5.4 4.6-9.3-7-2.3-6.7 6 0.3 3.4 10-2 7.2-4.9-2.6-3.6-16.2-4.5-21.1-2.8-14.3-8-28-15.8-40.3-14.9-23.6-37.9-39.9-59.2-57.2-0.5-0.4-3.8-5.2-0.8-3.3z"  fill="#fff500" /><path d="M309.3 20.1c5.7 5.4 44.6 49.3 33.4 56.3-3.6 2.3-6.9-3.6-3.1-5.5 4.5-2.2 6.5 5.9 1.5 6-5.5 0.1-7.1-15.1-8.8-18.9-5.9-13.6-34.6-47.1-23-37.9z"  fill="#fff500" /><path d="M321.9-341.2c-36.7 72.8-113.5 157.5-78.1 245 19.5 48.3 120.7 101.7 124 135.8 0.5 5-7.9 2.6-4.8-1.4 3.1-3.9 7.5 3.5 2.6 4.3-2.9 0.5-23.2-34.4-28.1-39.3-49.3-50.6-115.9-77.9-109.9-160.9 4.4-60.8 39.6-114.6 70.1-165.2 3.8-6.4 9.7-23.9 16.9-26.6 5.4-2 9.1 3.6 7.3 8.3z"  fill="#c2e1ff" /><path d="M329.9-382.7c-19.5 92.6-117 165.2-95.5 268.1 10.5 50.3 52 76.5 89.3 106.2 1.5 1.2 19 15.2 14.4 15.6-6.6 0.6 6.3-3.5 0.6-0.2-2.2 1.2-17.7-15.1-20.4-17.3-49.8-40.3-99.5-76-94.3-147.6 5.4-74.9 55.1-133.5 85.5-199 3.9-8.3 5.9-24 11.8-30.5 3.7-4.1 9.2-0.1 8.6 4.7z"  fill="#005bbb" /><path d="M338.5-289.1c-39.3 51.6-92.1 120.6-63.1 189.1 25.7 60.5 98.3 81.6 114.7 149 1.2 4.9 8 25.9 1.3 28.3-5 1.8-7.4-6.2-2.2-7.5 5.2-1.3 6.7 7 1.4 7.7-1.7 0.2-17.8-60-22.7-68.2-37.2-61.3-117.2-85.1-108.1-170.1 5.4-50.3 36.6-98.1 68.4-136.1 5.5-6.6 14.5 0.8 10.3 7.8z"  fill="#c2e1ff" /><path d="M346.9-349.3c-36.6 74.9-125.3 151.8-94.5 244.2 18.5 55.6 76.9 75 109.5 119.4 1.3 1.8 14.1 17.4 7 18.1-12.2 1.1 11.7-6.4 1.1-0.4-3 1.7-19.8-27.1-23.6-31.2-47.1-52.4-115.9-79.3-107.1-162.7 6.6-62.5 46.4-113.7 79.9-164.3 5.3-8.1 11.3-25.2 19.1-30.6 5.3-3.7 10.5 2.3 8.6 7.5z"  fill="#c2e1ff" /><path d="M355-179.7c-7.3 23.5-8.9 48.5-1.5 72.3 18 57.4 61.4 89.1 66.3 154.8 0.4 5.5 4.5 28-2.4 29.8-6.5 1.7-6.9-9.4-0.4-8.3 7.7 1.4 0.5 13-4.1 6.7-3.1-4.2-2.8-49.9-4.9-59.9-10.8-52.1-55.1-88.2-65.5-139.9-3.3-16.5-5.6-43.9 3-59.3 3.1-5.5 10.3-1.7 9.5 3.8z"  fill="#005bbb" /><path d="M363.5-362.8c-32.3 81.8-132.9 152-106.9 250.5 14.9 56.5 71.5 77.3 105 119.8 0.1 0.2 10.1 14.8 3.2 11.3-9.4-4.7 11.5 0.6 0.9 0.2-4.5-0.1-23.7-28.9-28.9-33.6-46.9-43.2-100-76.9-90.9-149.6 9.9-78.5 71.5-129.3 104.4-196.9 3.2-6.5 17-14.4 13.2-1.7z"  fill="#fff" /><path d="M371.9-255.4c-30.2 43.8-62.8 97.2-41.8 151.8 21 54.7 72.1 85.8 80.6 147.6 0.8 6.1 5.8 28.8 0.3 32.7-4.6 3.2-9.3-4.4-4.4-7.1 5.8-3.1 8.8 7.4 2.3 7.8-8 0.5-4.7-20.2-5-24.5-1.3-19.9-5.3-39.5-13.7-57.6-25.6-55.7-83.4-90.1-74-158.8 4.2-31 22.3-78.7 46.3-100.2 5.8-5.2 12.6 2.2 9.4 8.3z"  fill="#005bbb" /><path d="M379.2-145c-2.2 64.1 48.1 117.3 51.4 184.2 0.3 6.3 4.3 36.8-3.2 38.5-6.6 1.6-6.8-9.7-0.2-8.3 6.7 1.3 2.1 11.7-3.4 7.6-7.3-5.3-2.4-58.7-4-69.3-6.8-43-32.8-77.7-44.1-119-2.6-9.7-7.1-24.6-4.8-34.7 1.2-5 7.7-3.6 8.3 1z"  fill="#fff" /><path d=""  fill="#c2e1ff" /><path d="M413.6-397.8c-7.1 91.3-104.4 144.2-124 231.6-5.8 26-2.9 52.6 10.2 75.9 2.4 4.3 20.6 30.4 19.2 30-6.7-1.9 7.5-1.1 0.6 0-5.7 0.9-20.7-23.3-23.5-27.7-64-99.6 53.6-187.5 94-267.7 6.5-12.9 7.5-34.4 15.3-45.3 2.9-4.1 8.3-1.1 8.2 3.2z"  fill="#c2e1ff" /><path d="M403.6-124.6c7.1 56.9 37.2 104.7 37.5 163.7 0 6.3 3.1 36.8-4.3 38.4-7.9 1.8-5.7-12.1 1.3-7.9 5.9 3.5-1.9 11.9-5.8 6.2-2.8-4.1 0-64-1.2-74.6-4.3-39.3-22.7-73.7-32-111.7-0.9-3.6-4.4-11.9-2.2-15.4 1.9-3 5.8-1.6 6.7 1.3z"  fill="#fff500" /><path d=""  fill="#fff" /><path d="M449.4-397.6c-5.8 89.5-89.1 148.5-106.4 233.7-4.5 22.1-2.7 44.6 5.9 65.4 1.9 4.5 15.6 23.6 14 27.5-1.5 3.6-6.3-1.1-2.7-2.7 3.5-1.6 3.8 5.2 0.1 3.9-8-2.9-17.1-27.9-20-35.5-33.4-85 44.8-160.8 79.6-231 7.8-15.7 15-55.1 21.3-64.4 2.8-4.1 8.2-1.3 8.2 3.1z"  fill="#c2e1ff" /><path d="M427.9-44.9c6.1 18.3 23.1 107.3 11.5 121.2-4.4 5.3-11.4-3.8-5.2-6.7 6.2-2.9 8.8 8.2 1.9 8.2-7.9 0.1-3.1-49.6-3.4-57.2-0.8-21.9-13.8-85.4-4.8-65.5z"  fill="#fff500" /><path d="M437.8-397.5c-7.2 100.1-125.8 162.7-118.4 264.8 4.1 56.4 57 87.1 78.1 135.7 2.4 5.5-8.5 4.1-4.6-0.6 3.8-4.7 7.5 5.6 1.6 4.4-5.2-1-16-29-20.1-34.7-31.1-44.4-71.7-79-61.9-138.9 10.9-66.8 65.6-115.9 96.2-173.7 8-15.1 14.7-51.1 20.9-60.1 2.9-4.1 8.2-1.2 8.2 3.1z"  fill="#fff" /><path d="M446.5-262.9c-26.6 106.3 4.1 135.2 17.9 230 5.1 34.8 2.4 71.3-0.5 106.3-0.7 8.1-12.8 2.2-7.3-3.2 5.7-5.6 11.1 7.3 3.1 7.3-7.2 0.1-0.8-83-1.4-93.5-2.8-57.7-30.3-110.1-30.9-168.3-0.3-23.7-1.2-60.4 9.8-82 2.8-5.5 9.9-2 9.3 3.4z"  fill="#005bbb" /><path d="M454.2 28.1c-0.1 6.9 1.8 50.3-6.7 49.4-5.9-0.6-4.4-9.8 1.4-8.6 5.8 1.2 3.3 10.2-2.3 8.4-11.5-3.8 5.2-75.2 7.6-49.2z"  fill="#fff" /><path d="M487.4-397.9c-2.5 78-42.6 144.2-18.9 223.9 8 27 49.3 91.7 49.3 111.6 0 5.6-9.1 2-5.2-2 3.8-4.1 8 4.8 2.3 5.1-4.8 0.3-17.5-37.3-20.4-43.1-25.2-50-46.8-98.2-42.9-155.7 3.2-45.9 22.2-88.7 26.5-134.3 0.5-5.5 8.6-16.4 9.3-5.5z"  fill="#005bbb" /><path d="M471 55.2c-0.3 4.7 2.4 22.9-5.5 22.3-5.8-0.5-4.5-9.5 1.2-8.5 5.7 1.1 3.5 10-2.1 8.3-15.1-4.7 5.4-37.3 6.4-22.1z"  fill="#005bbb" /><path d="M478.6-44.5c2.2 12.6 6.6 122.7-4.7 121.9-5.7-0.4-4.6-9.3 1-8.3 5.6 1 3.6 9.8-1.9 8.1-7.5-2.2-0.3-108-1.6-120.7-0.5-4.7 5.9-5.5 7.2-1z"  fill="#fff500" /><path d="M485.7-120.1c27.5 58.3 34.7 95.8 35 160 0 6.8 5.1 32.2 0.4 36.4-3.8 3.3-8.7-3-4.5-5.9 4.8-3.4 8.6 5.7 2.7 6.7-8.6 1.5-7.2-96.1-8.4-106.8-2.4-21.3-8.7-41.6-17.3-61.2-2.6-5.8-14.5-22.9-12.7-28.8 0.7-2.4 3.6-2.2 4.8-0.4z"  fill="#005bbb" /><path d="M496 43.2c-0.3 6.1 2.7 32.1-3.3 34-5.2 1.6-7.4-6.7-2-7.8 6.3-1.3 6.1 9.4-0.2 7.9-12.8-3.1 3.3-60.1 5.5-34.1z"  fill="#c2e1ff" /><path d="M504 68.8c0.1 2.7-0.1 12.6-6.1 8-3.6-2.7-0.1-8.6 4-6.6 4.1 1.9 2 8.4-2.5 7.4-11.1-2.4 2.5-20.3 4.6-8.8z"  fill="#fff" /><path d="M512.6 15.1c-0.2 8.1 2 62.2-3.5 62.4-5.2 0.2-5.1-8 0.1-7.6 5.2 0.4 4.2 8.5-0.9 7.5-8.1-1.5-6.1-56-4.1-63.5 1.4-5 7.9-3.4 8.4 1.2z"  fill="#fff" /><path d="M520.1-41.6c2.6 12.1 11.4 118 4.1 118.6-5.8 0.5-4.5-9.1 0.9-7.1 4.7 1.7 1.6 8.9-2.9 6.7-9-4.4-5.3-47.8-5.3-56.9-0.1-19.9-4.8-41.4-3.7-60.9 0.2-4.2 5.8-4 6.9-0.4z"  fill="#c2e1ff" /><path d="M527.4-274.1c10.7 26.3 31.8 45.1 53.8 61.8 3.5 2.7 16.9 9.8 18 13.8 0.1 0.3-0.1 0.7-0.3 0.9-1.7 1.3-16.5-11.7-18.7-13.3-17.2-12.9-34.4-26.3-47.2-43.8-5.9-8.1-13.1-31.3-5.6-19.4z"  fill="#005bbb" /><path d="M536.9-323.6c3.9 30.2 17.4 56 38.7 77.6 2.6 2.7 24.5 23.1 23.3 23.7-4 2 3.9-2.5 0.1-0.1-2.4 1.5-17.6-14.5-19.9-16.6-21.3-19.6-38.8-42.1-46.5-70.5-1.1-4.2-2.1-8.6-2.8-12.9-0.8-4.7 5.8-5.5 7.1-1.2z"  fill="#005bbb" /><path d=""  fill="#c2e1ff" /><path d="M553.3-31.7c2.8 10.9 18.6 107.9 13.1 108.7-5.3 0.9-4.8-8 0.4-6.5 4.4 1.2 2.1 8.1-2.2 6.4-7-2.8-21.7-137.6-11.3-108.6z"  fill="#c2e1ff" /><path d="M562.7-399.1c3.8 32.3 8.2 65 22.4 94.6 1.8 3.7 17.5 27.5 14.7 29.2-2.3 1.4-4.3-2.3-1.9-3.5 2.5-1.2 4.1 2.8 1.5 3.7-10.2 3.5-47.2-98.1-44.1-124 0.5-4.5 6.4-3.9 7.4 0z"  fill="#005bbb" /><path d="M567.1-171.6c6.2 4.3 30.4 16.3 32.1 23.5 0.1 0.3 0 0.6-0.1 0.8-1.4 2-32.5-24.5-32-24.3z"  fill="#005bbb" /><path d="M578.5 56.4c0.7 4 6.1 17.7 1.4 20.2-4.1 2.1-7.1-4.5-2.9-6.2 5-2 6.4 6.9 1.1 6.5-13.1-0.8-3.4-32.7 0.4-20.5z"  fill="#005bbb" /><path d="M584.4-106c2.9 3 17.7 16.3 16.1 20.5-0.9 2.5-4.8 0.8-3.6-1.6 1.4-2.8 5.4 0.5 3 2.4-4.9 3.9-20-25.3-15.5-21.3z"  fill="#fff500" /><path d=""  fill="#fff" /><path d=""  fill="#fff500" /><path d=""  fill="#c2e1ff" /><path d=""  fill="#fff500" /><path d=""  fill="#fff500" /><path d=""  fill="#fff500" /><path d=""  fill="#fff" /><path d=""  fill="#c2e1ff" /><path d=""  fill="#fff500" /><path d=""  fill="#fff500" /><path d=""  fill="#005bbb" /><path d=""  fill="#005bbb" /><path d=""  fill="#c2e1ff" /></svg>