<svg width="1200" height="675" viewBox="-500 -500 1200 675" xmlns="http://www.w3.org/2000/svg"><path d="M-500-500h1200v675h-1200z" fill="#000"/><path d=""  fill="#005bbb" /><path d=""  fill="#c2e1ff" /><path d=""  fill="#fff500" /><path d=""  fill="#005bbb" /><path d=""  fill="#fff500" /><path d=""  fill="#005bbb" /><path d=""  fill="#c2e1ff" /><path d=""  fill="#fff" /><path d=""  fill="#c2e1ff" /><path d=""  fill="#fff" /><path d=""  fill="#c2e1ff" /><path d="M-396.6 22.5c2.4 5.7 27.6 52 26.6 52.6-2.1 1.2-3.8-2.2-1.6-3.1 2.2-1 3.6 2.6 1.2 3.3-3.6 1.1-8.6-10.7-10-13.1-18.4-29.4-21.9-49.3-16.2-39.7z"  fill="#c2e1ff" /><path d=""  fill="#005bbb" /><path d="M-395.5-205.5c8.7 67.6-9.9 141.6 33.9 200.3 20.4 27.4 49.1 45.6 75.3 66.7 1.5 1.2 15.7 11.7 13 13-0.1 0-0.5 0.1-0.5 0.1-3.5-0.3-10.7-9.4-13.6-11.8-44.6-37.2-92.3-66.6-106.5-127.1-10.6-45.3-4.5-94.2-8-140.4-0.3-4.2 5.4-4.7 6.4-0.8z"  fill="#fff500" /><path d=""  fill="#fff500" /><path d="M-389.4-122.1c0.8 56.3 15.8 103.5 60 140.7 19.8 16.7 41.9 30.5 61.4 47.5 1.4 1.2 8.1 5.5 7.7 7.7-0.1 0.3-0.3 0.6-0.5 0.8-1.8 1.1-33.3-27.3-37.3-30.3-35.9-26.6-71.4-53.2-87.3-96.8-7-19.1-15.4-49.9-10.9-70.3 0.9-4.2 6.4-3.1 6.9 0.7z"  fill="#005bbb" /><path d="M-379.1-398.5c1.1 28.8-0.9 57.5 2.3 86.2 4.5 41.9 33 187.7 48.1 223.2 11.1 25.9 28.9 47.7 49.8 66.4 1.9 1.7 17.4 15 15.9 15.3-3.3 0.6 3.3-1 0.1 0-4.4 1.3-23.8-19.6-27.4-22.9-18.2-17.2-33.7-37.1-43.9-60.1-24.6-55-51.9-229.8-51.7-292.3 0-4.6-1.8-13 0.2-17.3 1.7-3.5 6.1-1.8 6.6 1.5z"  fill="#c2e1ff" /><path d="M-375.3-150.3c5.9 65.3 22.4 113.5 76.2 154.3 7.7 5.8 89.5 66.6 85 70.3-0.1 0-0.6 0.3-0.7 0.3-2.6 0.4-7.1-6.9-8.8-8.6-10.9-11.3-22.9-21.5-35.4-31.1-43.4-33.2-91.8-60.9-110.7-115.5-6.6-19.3-15.3-49.4-12.1-69.9 0.6-4 5.8-3.3 6.5 0.2z"  fill="#fff500" /><path d="M-368.3-160.4c8.7 69.4 27.1 118.1 84.4 161.4 8 6.1 92.1 69.9 87.4 73.7-0.4 0.3-1 0.4-1.4 0.1-16.1-8.9-31.2-30.7-46.2-42.4-45.6-35.6-97.4-65.3-117.2-123.2-6.6-19.3-15.7-49-13.3-69.6 0.5-3.9 5.5-3.4 6.3 0z"  fill="#005bbb" /><path d=""  fill="#fff" /><path d="M-354.2-276.6c15.1 84.7 19.8 185.1 85.3 248 31.6 30.4 68.5 54.8 102.1 82.9 4.3 3.6 20.7 13.6 21.7 18.9 0.1 0.4-0.1 0.8-0.5 1.1-2.5 1.6-38.7-32.1-43.2-35.8-43.3-34.7-94.2-65.9-122.5-115.2-30.9-53.7-33.6-123.5-45.8-183.3-1-5.1-2.2-10.3-3-15.4-0.6-3.9 4.8-4.7 5.9-1.2z"  fill="#005bbb" /><path d="M-347-165.5c13.9 80.8 38.2 120.6 103.2 170.6 7.5 5.8 84.5 66.4 81.5 69.1-1.4 1.3-3.4-1.9-4.8-3.2-8.9-8.6-18.1-16.9-27.4-24.9-44.7-38.1-100.7-68.9-130.9-121.1-15.6-27.1-23.2-58.7-27.6-89.5-0.6-4 4.9-4.7 6-1z"  fill="#fff" /><path d="M-339.9-224.6c16.2 84.6 18.9 148.8 88.6 209 29.8 25.7 62.2 48.3 92.4 73.6 3.5 2.9 16.8 11.2 17.7 15.3 0.1 0.4-0.1 0.8-0.4 1-2.5 1.6-39.9-32.7-44.5-36.3-114.9-91.3-131-102.1-157.5-249.3-0.4-2.1 0.3-24 3.7-13.3z"  fill="#005bbb" /><path d="M-334.1-65c28.9 49.7 83.4 77.1 125.6 113.8 5.1 4.5 24.5 17.6 25.2 24.4 0 0.3-0.1 0.7-0.3 1-0.6 0.7-34.9-31.5-39-34.9-34.5-28.6-74.8-51.7-103.4-86.7-3.6-4.5-9.7-10.4-11.5-16-0.7-2.2 2.1-3.2 3.4-1.6z"  fill="#fff" /><path d="M-325.4-239.4c11.1 83.9 16.3 161.5 83.2 221.3 30.2 26.9 63.6 50.2 95.4 75.1 4 3.1 19.1 11.8 20.2 16.4 0.1 0.3-0.1 0.7-0.3 0.9-2.1 1.5-30.6-23.7-34.1-26.5-57-44.3-124.7-85.4-148.7-157.5-6.6-20-28-113.6-21.8-130.4 1.2-3.3 5.3-2.3 6.1 0.7z"  fill="#c2e1ff" /><path d="M-317.5-370.5c-9.7 80.4-6.6 235.1 37.1 304.4 21 33.4 52.8 58.2 83.7 81.8 3 2.3 19.4 16.3 19.2 16.3-3.6-0.4 3.7-1.2 0.3 0-6.3 2.1-41.1-31-47.1-35.9-27.3-22-53.3-46.4-69.6-77.9-33.1-63.7-40.8-202.5-33.2-274 2.8-26.1 9.6-21.6 9.6-14.7z"  fill="#fff" /><path d="M-309.5-397.8c-10.1 93.5-15.4 190.2 9.4 282.5 6.1 22.7 16.1 43.9 30.4 62.6 2.4 3.1 11.5 10.9 11.9 14.5 0.1 0.6-0.5 1.3-1.1 1.3-4.9 0.7-18.6-20.9-21.4-24.8-53.6-76.2-49.8-238.5-38.1-328.2 0.5-4.1 8.8-20 8.9-7.9z"  fill="#fff" /><path d="M-305.2-87c25.6 55.5 79.9 89.6 126.3 126.2 4 3.2 42.5 33.7 41.3 35-1.6 1.7-4-2.3-5.8-3.8-10.2-8.8-20.7-17.4-31.2-25.8-41.6-33.3-89.9-63.2-121.1-107.3-4.5-6.3-11.9-15.2-13.6-22.8-0.6-2.6 2.8-3.4 4.1-1.5z"  fill="#fff500" /><path d="M-297.1-128.6c14.9 76.3 73.8 119.9 132.7 163.7 16.9 12.6 34 25 50.6 38 0.3 0.3 0.3 1 0 1.3-2 1.5-31.5-23.4-35.2-26.1-45.9-34.2-99.3-67.4-130.3-116.8-22.3-35.5-23-75.3-17.8-60.1z"  fill="#fff500" /><path d="M-288.8-302.3c-16.5 83.6-17.5 197.6 42.8 264.2 33 36.5 75.7 64.2 115.2 93 2.5 1.8 23.4 17.6 22.6 18.1 0 0-0.4 0.1-0.4 0.1-7.1 0-25-18.6-31.2-23-62.8-45.7-136.4-91.2-154.9-172.2-6.5-28.6-17.8-162.4-1.4-183.4 2.8-3.6 7.6-0.7 7.3 3.2z"  fill="#fff500" /><path d="M-281.6-389c-20.4 90.7-40.4 225.3 4 311.7 17 33.2 45.3 58.4 74.2 81.1 2.5 1.9 19.9 16.3 19.3 16.4-1.3 0.3 1.2 0-0.1 0-8.5 0-29.3-22.3-36.1-27.8-83.5-68.8-89.8-145.1-89.9-247.3-0.1-46.3 8.1-91.6 20.3-136.1 1.5-5.4 8.9-3.4 8.3 2z"  fill="#c2e1ff" /><path d="M-277-70c28 48 78.2 80.2 121.8 112.8 3.8 2.9 40.7 30.2 39.8 31.2-0.2 0.2-0.6 0.3-0.9 0.2-12.3-4.4-26.5-20.3-37-28.3-42.5-31.8-90.7-62.5-121.8-106.4-1-1.4-6.3-15-1.9-9.5z"  fill="#c2e1ff" /><path d="M-271 33.4c13 9.4 39.3 24.3 46 39.4 0.2 0.4 0.1 1.1-0.2 1.4-1.7 1.8-16.6-15-18.8-17-8.8-8.1-37.4-29.7-27-23.8z"  fill="#005bbb" /><path d=""  fill="#c2e1ff" /><path d="M-258.1-397.5c-7.4 30.2-18.9 59.2-26 89.5-14.9 63.7-18.2 146.2 2.7 208.8 10.4 31.2 30.4 57 54.4 79.1 2.5 2.3 20.4 18.8 19.9 18.9-1.5 0.3 1.4 0.1-0.2 0-6.6-0.2-21.2-17.5-26.1-22-69.4-64.1-73.9-157.2-65.3-246.2 4.3-44.7 18.9-87.5 32.2-130.3 1.7-5.5 9.1-3.3 8.4 2.2z"  fill="#fff" /><path d=""  fill="#fff500" /><path d="M-242.4 5.4c19.6 15.1 71.4 47.4 82 67.8 0.2 0.4 0.1 0.9-0.2 1.3-1 1.1-27.6-23.9-30.8-26.7-16.2-13.9-33.1-26.8-50.1-39.8-0.1 0-3.4-4.1-0.9-2.6z"  fill="#005bbb" /><path d=""  fill="#005bbb" /><path d="M-224.1-274.7c-37 70.5-55.1 164.2-0.9 230.8 35.6 43.7 86.4 72 131.7 104.2 3.4 2.4 16 9 17 12.9 0.1 0.4-0.2 0.9-0.6 1.1-4.8 1.5-36.4-26.3-42.1-30.2-60.9-41.2-133.9-86.5-145.5-165.6-6.1-41.4 2.1-85.6 16.7-124.5 15.9-42.3 27.2-38.3 23.7-28.7z"  fill="#fff" /><path d="M-221 6.4c20.1 15.7 71.8 46.6 83.7 66.6 0.2 0.3 0.1 0.8 0 1.1-0.9 1.1-29.1-23.1-32.3-25.7-35.2-28.4-53.4-43.3-51.4-42z"  fill="#005bbb" /><path d="M-209.9-192.4c-27.4 69.7-10.3 131.4 46 179.9 30.8 26.5 66.4 46.3 97.9 71.9 3.2 2.6 14.8 9.9 15.4 14 0.1 0.4-0.2 1-0.6 1.2-1.8 1.1-28.2-23.7-31.8-26.4-53.1-39.7-123.9-74.6-143.4-143.5-8.2-29.1-5-59.9 3.7-88.5 1.2-3.8 2.1-10.9 5.3-13.7 3.8-3.5 8.6 0.7 7.5 5.1z"  fill="#005bbb" /><path d="M-206-397.6c-16.8 99.4-85.7 142.3-65.6 275.3 4.9 32.5 19.4 61.4 41.4 85.6 7.5 8.3 15.7 15.8 23.9 23.3 1.1 1-0.9 2.4-1.4 1.1-1.4-3.2 4.3 0.8 0.8 0.6-12.8-0.8-37.3-36.4-44.2-46.3-45.5-64.6-34.8-160.6-7.8-230.7 12.9-33.4 32.2-64.2 41.9-98.8 2.2-7.8 12.1-23.8 11-10.1z"  fill="#fff500" /><path d="M-196.1-135.7c-9.1 73.1 49.4 119.2 101.9 158.4 5.7 4.3 61.6 48.7 57.2 52-4.5 3.5 4.2-4 0.1-0.1-2.6 2.5-6.8-5.7-8-7-10.5-11.6-22.4-22-34.7-31.8-42.4-33.6-94.5-63.8-115.9-116.3-6.1-15-13.6-40.6-8.2-56.7 1.5-4.5 7.4-2.6 7.6 1.5z"  fill="#fff500" /><path d=""  fill="#fff500" /><path d=""  fill="#005bbb" /><path d="M-174.4-369.8c-23.9 95.8-109.5 164.3-75.6 275.7 12.9 42.5 46.5 73.6 80.8 99.8 6.6 5 18.6 10.5 23.5 17.1 0.2 0.3-0.1 1-0.5 1-8.5 0.3-29.9-21.4-36.7-26.8-50.8-40.2-84.4-89.6-80.2-156.6 5.1-80.5 51.3-129.5 76.6-201.1 1.3-3.7 1.9-11.7 5.6-14 3.6-2.3 7.2 1.2 6.5 4.9z"  fill="#fff" /><path d=""  fill="#005bbb" /><path d="M-161.1-397.8c-6.9 100.6-99.2 167.4-89.4 276.2 3.3 36.4 20.9 67.7 46.3 93.4 7.9 8 16.3 15.4 25 22.6 0.9 0.8 1.9 4.4 1.7 3.1-0.4-2.5 3.3 0.7 0.8 0.7-13.5-0.3-41.3-36.9-49.2-46.8-87.4-111 14.1-212 47.8-309.3 4-11.6 3.6-32.8 10-42.4 2.3-3.5 7-1.2 7 2.5z"  fill="#c2e1ff" /><path d="M-153.6-398.4c-5.9 99.5-97.1 169.4-92.2 272.4 1.6 35.3 16.8 66.5 40.6 92.2 7.6 8.2 21.3 16.2 26.9 25.5 0.7 1.2-1.4 1.9-1.5 0.5-0.3-2.7 3.5 0.9 0.8 0.8-12.8-0.5-38.1-35.5-45.3-45.2-81.9-110.1 21.9-206.3 54.4-306.1 3.8-11.6 3.1-32.9 9.3-42.5 2.3-3.5 6.9-1.2 7 2.4z"  fill="#c2e1ff" /><path d="M-145.7-171.5c-22.5 62.8-3.5 114.6 42.3 160.5 7.4 7.4 85.6 82.3 80.2 85.8-2.3 1.4-3.8-2.8-1.1-3.1 2.7-0.3 2.3 4.1-0.3 3.3-2-0.6-33.3-39.4-38.8-44.8-37.8-37.4-85.9-72.4-97.6-127.5-4.7-21.9-5.4-58.3 7.1-78.2 3-4.7 9.2-1 8.2 4z"  fill="#fff500" /><path d="M-120.8-397.7c-10.1 98.5-71.3 155.2-91 240.9-5.7 24.7-5.8 50.6 2.9 74.6 1 2.9 12.7 23.9 7.5 23.1-9-1.5 9.6-2.5 0.8-0.1-3.9 1.1-7.2-9.4-8.5-11.9-44.7-86.6 28.4-167.9 58.6-245.1 6.5-16.6 16.9-76 22.6-84.2 2.5-3.6 7.1-1 7.1 2.7z"  fill="#005bbb" /><path d="M-133.5-71.9c21.8 56.9 77.7 92 111.9 140.5 0.5 0.7 4.6 4.7 2.1 6.3-1.8 1.1-3.6-1.4-2.1-2.8 1.8-1.6 4.2 1.3 2.2 2.7-1.7 1.3-26.5-32.1-29.8-35.9-26.7-30.3-58.8-56.8-79.8-91.8-2.8-4.7-11.2-30.4-4.5-19z"  fill="#fff500" /><path d="M-128.3 30.5c16.3 11 49.5 25.3 59.8 42.4 0.2 0.3 0.2 0.8-0.1 1-0.9 1.2-20-14.7-22.3-16.4-11.8-8.6-24-16.6-36.1-24.7-0.7-0.5-2.1-2.6-1.3-2.3z"  fill="#005bbb" /><path d="M-117.1-267.7c-20.7 69.2-73.6 138.8-31 210.8 26.6 44.9 73 72.9 107.6 110.9 1.9 2.1 19 20.1 14.5 21.2-7.7 2 6.8-5.4 0.7-0.3-1.6 1.3-25.3-28.1-28.6-31.5-45.8-47.2-114-86.9-118.2-159.7-1.4-24.5 37.7-150.1 48.4-156.5 3.8-2.3 7.3 1.4 6.6 5.1z"  fill="#fff" /><path d="M-113.4-21.9c20.7 22.8 83 67.9 91.1 94.9 0.8 2.6-3.7 2.9-3.3 0.2 0.4-3.1 5.2-0.4 2.7 1.6-1.3 1.1-29-33.1-32.6-36.9-18.7-19.5-39.3-36.9-58.1-56.4-1.1-1.1-2.5-5.7 0.2-3.4z"  fill="#c2e1ff" /><path d="M-98.6-397.5c-9.1 45.8-21.6 92.4-39.3 135.7-15.9 39.1-39.9 75.7-47.9 117.6-4.1 21.6-3.2 44 4.6 64.7 1.2 3.2 14 26.8 10.1 26.3-8.5-1.1 8.9-2.7 0.7-0.1-3.5 1.1-8-10-9.1-12.1-43.3-76.8 15.6-150.7 41.3-221.8 11.7-32.4 18.6-85.7 31.7-113 2.2-4.6 8.3-1.9 7.9 2.7z"  fill="#fff500" /><path d="M-96.5-94.1c-0.4 50.5 33.3 90.6 61.4 129.2 3 4.1 28.5 38.2 24.4 40.3-2.8 1.4-4.1-3.6-1-3.7 2.7-0.1 2.6 4.1-0.1 3.9-4-0.3-12.4-18.8-14.8-22.6-23.6-35.5-54.2-67.7-69-108.3-4.5-12.3-7.4-25.4-7.9-38.6-0.2-4.6 6.3-4.6 7-0.2z"  fill="#c2e1ff" /><path d=""  fill="#fff" /><path d="M-84.9-397.4c-14 49.3-24.8 100.3-42.6 148.4-17.3 46.9-48.3 93.4-41.9 145.5 4.2 33.8 24.4 61.9 48.1 85.4 3 3 23.4 23.4 23.2 23.4-1.7 0.3 1.5 0.1-0.2 0-10.8-0.7-34-30.9-41.1-38.9-70.9-80.1-23.2-144.8 6.6-228.1 14.8-41.2 23.8-84.4 36-126.3 7-24.3 12-9.7 11.9-9.4z"  fill="#fff500" /><path d="M-74.2-375.4c-17.2 45.1-22.5 93-36.9 138.8-15.8 50.1-46.9 99.3-31.2 153.6 12.3 42.6 46.9 73.4 77.2 103.7 1.3 1.3 16 14.8 11.8 15-2.4 0.1 2.1 0.4-0.3 0-4.2-0.7-12.4-12.6-15.6-15.8-41.4-41.7-88.4-85.1-84.4-149.1 2.5-41.1 23.8-77.8 35.9-116.5 13.5-43.1 18.8-88.1 34-130.7 2.3-6.4 11.3-6.7 9.5 1z"  fill="#fff500" /><path d="M-81.8-397.3c-15.1 49.1-25.2 100-42.3 148.3-15 42.4-41.3 83.3-42.1 129.5-0.4 23.4 6.6 45.9 19 65.7 2.9 4.5 14.2 15.2 14.5 20.1 0 0.7-1 1.6-1.7 1.4-7.1-1.6-17.7-22.3-21.3-28.2-40.4-68.3 2.1-132.5 25.1-197.9 15.3-43.4 24.1-89 37.6-133 1.6-5.2 13.5-18.6 11.2-5.9z"  fill="#005bbb" /><path d=""  fill="#005bbb" /><path d="M-52.7-101.3c-19.9 44.2-0.6 87.9 22.2 126.6 5.6 9.5 29.4 38 27.5 48.6-0.6 3.3-5.7 1.2-3.8-1.6 2.2-3.2 6 2.5 2.1 3.3-4.2 0.9-23-38-26.1-43.1-20.3-34-41.8-70.7-37-111.9 3.5-30.5 18.2-34 15.1-21.9z"  fill="#fff" /><path d=""  fill="#fff500" /><path d="M-38.4-91.8c-22.1 40.4-5.5 83.2 14.5 120.4 4.8 8.9 25.6 35.7 23.7 45.4-0.7 3.4-5.9 1.1-3.9-1.7 2.4-3.3 6.1 2.7 2.2 3.4-4.5 0.8-21.5-37.5-24.3-42.7-17.9-32.8-36-69.1-28.3-107.6 4-20 21.7-33.8 16.1-17.2z"  fill="#fff500" /><path d="M-64.8-396.5c-22.1 49.6-28.6 102.2-43.8 153.9-11.3 38.3-32.6 74.4-36.7 114.6-2.4 23.2 2 46.2 12.5 67.1 1 2 13.1 19.2 7.7 18.6-7.6-0.8 7.3-5 1.3-0.3-2.4 1.9-5.2-4.3-5.5-4.8-47.3-70.3-6.6-133.6 14.1-204.2 13.7-46.8 19.5-95 38-140.4 2.4-5.9 16.1-17.2 12.4-4.5z"  fill="#fff500" /><path d="M-24.8-271.8c-6.6 110-71.2 145.9-52.5 219.8 10.2 40.4 38.5 73.3 60.2 107.9 1.5 2.4 14.3 19 8.5 19.8-9.7 1.2 9.1-5.5 0.8-0.3-2.9 1.8-20.6-30.4-23.3-34.5-31.2-47.3-68.6-96.5-53.2-156.7 10.9-42.8 41.9-76.5 48.8-120.9 1.5-9.7-1.2-29.1 3.7-37.2 2.1-3.6 6.7-1.4 7 2.1z"  fill="#c2e1ff" /><path d="M-17-185.7c-25.2 52.6-67.7 89.7-46.4 153.1 10.4 30.9 30.1 57.6 46.8 85.2 1.6 2.7 15.6 22.2 9.9 22.8-9.2 1 7.3-7.8 1.3-0.7-2.8 3.3-5.5-4.3-5.8-5-27.1-50.4-73.6-99.7-64.6-161.3 4.8-33.1 28.7-74.7 50.6-99.7 4-4.6 10.1 0.5 8.2 5.6z"  fill="#005bbb" /><path d="M-12.4 43c2 3.9 18 30.9 13.6 32.7-2.8 1.1-4.4-3.4-1.4-4.2 2.9-0.8 4 3.9 0.9 4.4-3.8 0.6-5.8-8.6-6.9-10.9-3.1-6.3-8.6-13.7-10.2-20.5-0.6-2.5 2.7-3.4 4-1.5z"  fill="#fff" /><path d="M-4.3 14.4c1.3 7.1 19.6 60.5 16.8 61.4-2.8 0.8-4.5-3.2-1.9-4.6 3-1.7 5.3 3.2 2.2 4.5-5 2.1-7.6-13-8.6-15.9-4.8-12.9-14.6-31-14.3-44.9 0.1-3.6 4.7-3.6 5.8-0.5z"  fill="#fff500" /><path d="M-40-395.7c-34.4 50.3-34.6 107-48.7 164-9.8 39.8-32.5 77.1-34.1 118.7-0.9 23.4 5.6 46 16.8 66.5 0.8 1.5 12.3 17.5 6.9 16.9-8.4-0.9 8.7-2.7 0.7-0.1-2.8 0.9-5.1-5.3-6-6.7-50.4-77.2-9.6-127.7 9-204.5 12.8-52.6 13.6-105.6 42-153.5 4-6.7 19.3-13.3 13.4-1.3z"  fill="#fff500" /><path d="M11.6-183.4c-25.7 49.4-79.5 79.4-68.5 142.6 7.1 40.9 50.7 89.1 54.4 113.7 0.6 3.9-6.1 2.3-3.8-0.9 2.7-3.8 6.1 3.9 1.4 3.4-7.5-0.9-69.8-112.4-58-162.9 4.4-18.8 52.5-93.4 67.3-102.8 4.8-3 9.1 2.4 7.2 6.9z"  fill="#fff500" /><path d="M18.8-32.8c-15.1 26.4-11 56.7-3.3 84.7 1.2 4.2 8.3 19.5 5.5 22.9-2.7 3.3-7-2.2-3.2-4 3.8-1.9 5.5 5 1.2 5-5.3 0.1-9.8-25.7-11-30.3-6.7-25.2-10.7-52.7-0.5-77.5 3-7.3 14.8-10.9 11.3-0.8z"  fill="#c2e1ff" /><path d="M25.3-108.8c-33.8 24.4-58.8 54-51.3 98.3 2.5 14.6 33.1 79.8 32 84.3-1 4.2-7.1-0.2-3.5-2.5 3.6-2.3 5.1 5 0.8 4.3-4.7-0.9-11.2-22.5-13.2-27.1-19.2-41.8-38.3-90.1-9.2-132.3 8.6-12.5 23.7-30.2 38.1-36.2 7.3-3 11.4 6.4 6.3 11.2z"  fill="#fff" /><path d="M32.5-132.2c-35.4 30-74.5 56.1-67.5 108.8 4.4 33.9 36 73.4 38.4 96.6 0.5 4.9-7.6 1.1-3.5-1.6 3.5-2.3 5 4.8 0.9 4.1-4.9-0.8-12.4-23.8-14.7-28.5-21.9-44.2-44.4-94.6-13.2-140.6 11.8-17.4 33.8-40.1 53-49.3 6.9-3.3 11.4 5.6 6.6 10.5z"  fill="#fff" /><path d="M40.1-172c-28.6 46.8-90.4 69.3-85.7 132.9 3.3 44.9 42.8 84.5 46.3 112.4 0.6 4.8-7.4 1.2-3.4-1.5 3.3-2.4 5 4.6 0.9 3.9-7.5-1.1-25.8-47.7-29.8-55.5-17.3-34.2-29.7-72.6-13.7-109.8 6.2-14.3 66.2-83.6 78.5-90.1 5.2-2.8 9.3 3.2 6.9 7.7z"  fill="#fff500" /><path d="M46.5-250.9c-2.2 109.4-98.3 122.2-97.2 201.3 0.6 41.7 26.9 78.1 45.6 113.7 1.7 3.3 4.3 13.1 1.1 11-8.8-5.7 11.3 1.7 0.9 0.4-6.8-0.9-24.4-43.7-28.3-51-25.1-46.5-39.2-96.9-4.9-143 22.5-30.3 56.4-51 68.8-88.3 5-14.9 2.8-30.7 6.8-45.2 1.2-4.3 6.8-2.8 7.2 1.1z"  fill="#fff500" /><path d="M32.6-393.7c-75.2 60.2-47.1 106.6-69 184.7-11.2 39.9-40.9 72.9-45.6 114.7-2.9 25.5 3.9 50.6 15.4 73.2 0.9 1.8 12.7 19.5 6.8 18.5-2.5-0.4-1.7-4.4 0.7-3.7 2.1 0.6 1.6 3.8-0.5 3.7-3.9-0.2-9.3-13.9-11-17.2-48.8-91 8.5-121.7 28.5-201.9 10.5-42.1 2.8-86.5 22-126.8 8.9-18.6 26.6-46.3 46-55.7 6.9-3.4 11.4 5.5 6.7 10.5z"  fill="#fff" /><path d="M60.9 50.1c-0.3 4.9 2.7 25-2.6 26.8-5.2 1.7-6.1-7.3-0.6-6.7 4.6 0.5 3.4 7.8-1.2 6.8-11.7-2.7 2.6-47.9 4.4-26.9z"  fill="#005bbb" /><path d="M68.6-318.8c-14.6 45.4 1.5 95.4-20.3 139.1-24.8 49.9-91.5 71-92.7 133.2-1.1 52.8 41.7 88.7 45.5 119.8 0.5 4.1-6.4 2.3-4-1 2.9-3.9 6.2 4.2 1.5 3.5-6.9-1-23.7-44.1-27.5-51.5-24.3-47.9-34-98.7 4.7-142.2 24.2-27.2 57.5-46 70.6-81.8 12.1-33.1 4.9-68.9 9.8-103 3.5-23.9 13.7-24.7 12.4-16.1z"  fill="#c2e1ff" /><path d="M75.7-46.8c-22.2 21.6-38.5 45.6-39.8 77.5-0.2 6.2 5.1 46.7 0.1 45.7-4-0.9-2.4-7.2 1.6-5.9 3.9 1.3 1.6 7.4-2.2 5.7-4.3-1.9-3.9-15-4.5-18.9-6.2-43.1 3.6-82.2 36.3-112.5 5.8-5.4 13.1 2.5 8.5 8.4z"  fill="#fff500" /><path d="M82.5 51.5c-0.7 4.8 0.6 24-5 25.3-4.9 1.1-6.3-6.7-1.3-7.3 5.8-0.7 4.9 9-0.7 7.2-12.1-4 7.2-46 7-25.2z"  fill="#005bbb" /><path d=""  fill="#005bbb" /><path d=""  fill="#c2e1ff" /><path d="M104.5-369.1c-51.1 76.4-13.7 123.6-42.3 189.1-21.5 49.3-84.8 66.5-98.6 120-6.7 26.1 0.8 52.7 11.4 76.6 0.8 1.8 11.9 21 5.2 19.3-2.4-0.6-1.9-4.3 0.5-4.2 2.9 0.1 2.5 4.7-0.3 4.2-4.6-0.6-10.5-19.6-12.3-23.7-54.2-124.5 49.6-120.5 86.6-199.2 19.9-42.4 4.4-91.5 16.5-135.9 4.4-16.2 12.5-41.1 25.1-53 4.8-4.5 10.7 1.6 8.2 6.8z"  fill="#c2e1ff" /><path d="M111.6-390.6c-22.2 28.7-43.1 57.7-48.6 94.6-5.5 37.2 2.8 75.8-12.7 111.3-19.8 45.3-73.2 64.5-90 111.3-7.1 19.8-5.8 41 0.2 60.8 0.9 2.9 12.1 27.7 6 26-10.5-3 11.7-1.6 1 0.1-4.3 0.7-7.2-12-8.3-14.9-43.7-108.4 45.2-115 82.2-187.5 22.9-45 5-98.4 22.6-145.2 7.6-20.3 22.3-50.4 39.7-64.3 5.3-4.3 11 2.6 7.9 7.8z"  fill="#fff500" /><path d="M62.4-393.7c-90.5 77.1-43.7 105.2-74.6 193.2-16.3 46.4-59.5 80.2-58.2 132.5 0.1 3.4 3.2 12.4-1 14.3-4.5 2-6.1-6-1.2-6 4.9 0.1 3 8-1.4 5.9-5.6-2.7-3.7-22.7-3.4-27.8 2.4-52.6 46.6-86.3 60.6-134.5 13.6-46.6 1.7-95.4 28.2-139.1 9.8-16.1 26.9-40 44.1-48.7 6.8-3.5 11.4 5.2 6.9 10.2z"  fill="#fff500" /><path d="M125.9-79.2c-20.3 35.1-55.9 59.9-66.9 100.4-2.5 9.3 0.5 51-4.7 55.1-4.2 3.3-8-4.6-2.9-5.8 6-1.5 4.5 9.2-0.8 6.1-4.6-2.7-2.7-17.5-2.8-22.3-1.3-60.2 36.6-93.8 69.2-139.1 4-5.6 11.7-0.5 8.9 5.6z"  fill="#005bbb" /><path d="M132.9-343.7c-24 72.9 13.9 144-7.6 212.8-17.3 55.3-82.7 75-97.6 129.8-5.2 19.2-3.2 39.4 0.5 58.7 0.5 2.7 6.8 18.8-0.2 17.8-3.3-0.5-3.1-5.5 0.3-5.8 3.3-0.2 4.2 4.7 1 5.7-2 0.6-32.5-51 1.6-108 23.2-38.8 69.2-57.1 85.7-101.1 19.6-52.3-4.1-109.2-1.2-163 0.8-14.7 1.5-37.5 9.3-50.5 2.8-4.7 9-1.2 8.2 3.6z"  fill="#c2e1ff" /><path d="M140.2-63.7c-15.5 32.8-40.9 60-51.5 95.2-1.9 6.2-6.2 48.1-12.1 45.4-4.6-2.1-0.9-9.2 3.5-6.6 3.7 2.2 1 8.1-3.1 6.7-8.5-2.9 2.1-43.7 4-50.5 4.5-16.3 39.7-87.9 51.8-96.6 4.5-3.2 9 1.8 7.4 6.4z"  fill="#fff" /><path d="M145.9-253.5c8.2 56.4 37.3 109.3 38 166.8 0.6 51.7-27.3 97.5-36.4 147.4-0.7 3.7-0.1 17.7-6.8 16.4-5.3-1-3.2-9.3 2-7.7 4.4 1.4 3.1 8.1-1.5 7.7-9.6-0.8 34.6-143.9 35.4-160.6 2.7-56.4-25.7-109.1-35.8-163.6-0.7-4 2.8-14.4 5.1-6.4z"  fill="#005bbb" /><path d="M154.3 25.3c-2.6 8.4-6.7 48.5-13.2 51.7-5.7 2.8-8.2-7.4-1.9-7.5 6.3-0.2 4.3 10.1-1.4 7.6-7.5-3.2 4.7-49 8.3-55.4 2.8-4.7 9-1.3 8.2 3.6z"  fill="#fff" /><path d="M110.2-395c-19.8 24.5-40.5 49-49.6 79.8-10.8 36.1-2.3 74.2-11.3 110.4-9.2 37-36.8 59.2-62.6 85-4.9 4.9-20.1 29.5-26.6 27.7-6.8-1.8-3.3-12.4 3.2-9.8 6.6 2.5 2 12.7-4.3 9.4-11.7-6.1 67.8-84.5 74.3-96.7 23.9-44.7 6.1-98.2 24.1-144.9 8.5-22.1 25.7-54.3 45-68.9 5.5-4.2 11.1 2.9 7.8 8z"  fill="#fff" /><path d="M168.6-25.5c-5.4 15.6-30 101-30.5 101.6-4.5 4.5-10.1-4.4-4.2-6.6 7-2.5 6.6 10.4-0.2 7.4-12.4-5.4 19.9-96 26.7-106.4 3.1-4.7 9.3-0.8 8.2 4z"  fill="#c2e1ff" /><path d="M137.7-395.6c-14.6 25.6-30.1 51.1-37.2 80-22.2 90.7 29.8 141.3-66.8 209.6-5.9 4.2-23.6 22.4-30.6 17.8-6-4-1.1-13.5 5.7-10.9 7.8 3 2.4 15.1-5.1 11.2-12-6.2 10.1-19.7 14.3-22.7 24.5-18.3 51.1-34.3 63.4-63.7 20.2-48.2-0.2-103.2 13.2-153.3 4-14.7 23.7-67.3 35.8-75 4.8-3.1 9.2 2.4 7.3 7z"  fill="#fff" /><path d="M180.7-213.9c19.2 45.2 58.5 80.9 72.4 128.2 12 40.7-3.5 78.2-13.6 117.2-1.7 6.5-4.5 44.4-9.6 45.7-6.6 1.6-4.9-10.1 0.9-6.8 5.9 3.4-3.3 10.7-5.3 4.3-10-33.3 29.3-102.3 24.4-146-6-52.8-50.6-92.2-72.4-138.7-1.4-3.1 0.7-8.1 3.2-3.9z"  fill="#005bbb" /><path d="M187.6-183c20.3 39.7 50.6 76.5 52.8 122.9 2.2 43.3-19.2 83.4-23.2 126.1-0.3 2.7 0.5 13.8-5.8 10.9-3.9-1.8-1.9-7.9 2.3-6.9 4.2 0.9 3.6 7.3-0.7 7.3-8.4 0.1 21.1-128.7 20.2-143.8-2.3-41.2-27.7-74.7-46.7-109.7-1-1.8-2.8-12.4 1.1-6.8z"  fill="#005bbb" /><path d="M195.4-120.8c16.8 51.6 4.1 95.5-9.2 146-1.8 6.9-7.8 53.2-13.5 52.3-6.1-0.9-2.4-10.4 2.7-7 5.1 3.4-2.2 10.4-5.5 5.3-7.2-11.6 20.6-96.2 24.3-114.4 3.7-18.4 4.7-37.2 1.8-55.8-0.8-5-8.2-23.5-5.2-27.3 1.4-1.8 3.8-1 4.6 0.9z"  fill="#fff" /><path d="M198.9-397.8c-5.3 60.9-0.3 127.7 41.7 175.7 31.4 35.8 77.5 54.9 106.9 92.6 6.2 7.9 42.6 77.4 23.7 82.1-4.9 1.2-6.3-6.5-1.3-7.2 4.2-0.6 5.8 5.6 1.7 7.1-8.1 3-4.9-18.3-5.2-21.8-1.6-18.8-7.7-36.8-17.7-52.7-37.8-59.4-112.7-78.7-141.6-146.7-16.9-39.7-20.1-87.1-15.8-129.7 0.5-5 7.4-4.2 7.6 0.6z"  fill="#fff" /><path d=""  fill="#fff" /><path d="M217.4-80.4c6.3 40-8.4 77-17 115.3-1.4 6.2-4.2 42.8-10.3 42.1-6-0.8-2.6-10.1 2.5-7 5.1 3.2-1.9 10.3-5.2 5.3-5.9-9 12-71.3 15.4-84.2 6.3-23.5 8.9-95.1 14.6-71.5z"  fill="#005bbb" /><path d="M222.5-199.9c74.2 93.3 131.2 85.9 81.8 225.3-2.4 6.8-9.5 50.2-13.8 51.3-6.6 1.6-4.9-10.1 1-6.7 6.9 4-5.7 11.1-5.5 3 1.2-51.7 38.5-97.3 29-149.9-9.3-51-56.3-78.8-88.8-114.4-0.7-0.8-8-12.7-3.7-8.6z"  fill="#fff" /><path d="M231.3-364.7c23.3 98.4 82.8 104.8 145.5 166 43.8 42.8 60.7 102 57.8 161.9-0.4 8.6 1.4 50.5-5.7 54.7-7.1 4.2-7-10.7 0-6.4 6 3.6-3.7 10.9-5.5 4.2-8.7-32.2 20.3-86.4-13-160.3-32.1-71.2-107.3-90.3-151.9-149.2-15.5-20.4-26.5-44.7-32.6-69.5-0.9-3.6 4.2-4.7 5.4-1.4z"  fill="#c2e1ff" /><path d=""  fill="#c2e1ff" /><path d=""  fill="#fff500" /><path d="M253.6-57c1.4 38.3-16.8 73.5-22.7 110.7-0.7 4.5 0.6 21.7-4.8 23-4.8 1.2-6.2-6.6-1.3-7.2 5.8-0.7 4.9 8.9-0.7 7.2-11.8-3.8 8.4-67.3 11.1-76.5 0.6-1.9 15.5-81.5 18.4-57.2z"  fill="#fff" /><path d="M257.7-185.7c88.5 76.3 114 96.2 74.4 215.7-2.1 6.5-7.9 45.9-12.2 46.9-6.6 1.6-4.9-10.1 1-6.7 6.9 4-5.7 11.1-5.5 3 1.6-52.3 37.4-98.9 27.3-152.3-8.8-46.6-47.6-73.7-81.9-101.7-1.5-1.2-4.7-5.9-3.1-4.9z"  fill="#c2e1ff" /><path d="M268.6 17.4c-3.1 9.2-8.1 55.4-13.7 59-4.9 3.1-8.2-5.9-2.5-6.6 5.7-0.8 4.9 8.8-0.6 7-9.6-3 4.3-56.2 8.6-63.2 2.9-4.7 9.1-1 8.2 3.8z"  fill="#fff500" /><path d="M279.8-399.1c24.2 61.1 84.9 84.5 126.2 130.6 48.1 53.7 57.9 143.3 58.2 212.6 0 5.2 3.1 33.7-4.3 33.2-4.2-0.3-4.4-6.7-0.2-7.3 4.2-0.6 5.7 5.6 1.8 7.1-7.8 2.9-4.4-40.4-4.5-46.4-0.9-51.2-8.7-106.6-27.8-154.4-25.9-64.8-92.1-87.6-133.1-139.6-11.8-15-24.1-48.8-16.3-35.8z"  fill="#fff500" /><path d="M279-186.6c89.6 66.7 108.5 106.4 76.8 215.8-1.9 6.6-6.8 46.8-11.1 47.9-6.5 1.7-5-9.9 0.9-6.6 6.9 3.8-5.5 11-5.4 3.1 0.9-52.6 33-100.6 23.3-154-7.9-44-41-72.7-75.4-97.8-0.9-0.7-11.8-9.9-9.1-8.4z"  fill="#fff" /><path d="M286.3-257.7c33.1 28.6 73.6 46.7 101.9 81.1 46.8 56.8 43.3 122.3 37.7 191.1-0.6 7.5 2.6 59.9-0.9 61.6-5.2 2.4-5.7-7.5-0.3-5.7 5.4 1.8-1 9.4-3.7 4.3-15.4-29.2 12.2-142.4-8.2-199.7-21.2-60-69.5-88-117.9-123.8-1-0.8-11.9-11-8.6-8.9z"  fill="#fff" /><path d="M302.6-399.4c25.9 53.1 83.5 75.9 118.3 121.3 41.2 53.7 47.8 156.8 48 223 0 5.5 3 39-4.3 38.5-4.2-0.3-4.4-6.6-0.2-7.2 4.2-0.6 5.7 5.5 1.8 7-7.8 3-4.4-42.4-4.4-48.4-0.5-56.2-6-118.9-24.2-172.3-21-62-79.7-86.3-119.8-133-6.2-7.2-16.6-17.9-19.1-27.3-0.6-2.5 2.6-3.4 3.9-1.6z"  fill="#005bbb" /><path d="M301.1-354.9c31.9 39.4 80.9 60.2 111.7 100.6 48.3 63.4 51.7 159.4 49.7 235.5-0.2 7.9 4.2 62.7-0.5 64.7-5.5 2.3-5.6-8-0.1-5.9 4.7 1.8 0.1 8.8-3.4 5.2-6.6-6.8-3.5-34.7-3.5-43.8-0.2-69.5 0.6-135.5-20.7-202.7-22.1-69.8-79.1-94-126.9-142.7-1.2-1.2-10.6-14.9-6.3-10.9z"  fill="#fff" /><path d="M311.1-39.4c-3.7 33.3-21.2 62.8-27.3 95.4-0.8 4.2 0.5 21.5-6 21-4.9-0.4-3.8-8.2 1-7.2 4.9 1 2.9 8.5-1.8 7-7.9-2.5 0.6-32.7 2.1-38.4 2.9-11.5 20.3-74.6 24.8-80.8 2.6-3.6 7.3-0.9 7.2 3z"  fill="#fff500" /><path d="M315.5-379c29.8 41.2 78.6 63 108.4 104.2 41.5 57.6 46 168 45 237.3-0.1 8.1 3.7 63-2.1 65.1-5.9 2.1-5.4-8.8 0.3-6.3 4.9 2.2-0.4 9.3-3.9 5.3-6.5-7.5-1.9-37.5-1.8-47.3 1-68.8-1.8-139.8-20.3-206.6-18.6-67.1-76.6-92.1-120.1-140.3-1.3-1.4-10-16-5.5-11.4z"  fill="#fff500" /><path d="M325.6-20.9c-5.9 24.5-17.4 47.3-23.1 71.9-1 4.1-1.2 28.9-8.4 25.7-3.9-1.7-2-7.8 2.2-6.9 4.9 1 2.9 8.6-1.9 7.1-11.7-3.7 15.9-93.3 23.8-101.8 3.3-3.5 8 0 7.4 4z"  fill="#c2e1ff" /><path d=""  fill="#fff" /><path d="M338.9-69.3c6.6 43-15.9 79.9-25.4 120.3-1.1 4.5-1 26.6-7.4 26-5-0.5-3.8-8.2 1-7.3 4.9 1 2.9 8.6-1.8 7.1-14.2-4.6 15.9-78.2 19.2-88.4 6.1-18.9 10-77.1 14.4-57.7z"  fill="#fff" /><path d="M347.9-399.2c25.8 42.4 72.9 66.5 97.3 110 28.8 51.3 29.5 170.3 29.8 230.7 0 8.8 4.2 69.8-2.4 72-5.2 1.7-6.1-7.4-0.6-6.7 5.4 0.7 2.4 9.2-2.2 6.3-6.4-4-2.1-37.3-2.1-44.6 0.7-71 0.2-148.2-13.6-218-13-65.8-69.7-92.8-106.1-143.2-1.1-1.5-4.1-11.2-0.1-6.5z"  fill="#c2e1ff" /><path d="M352.1-102.9c20.3 42.4 7.7 86.2-5.8 128.4-2.1 6.6-10.1 52-14.3 51.6-5.8-0.5-2.9-9.7 2.1-6.8 5 2.9-1.4 10-4.8 5.3-7.8-10.9 19.7-86.5 23.3-103.5 3.4-16.1 4.6-32.7 2-48.9-1.3-8.5-5.6-16.5-6.9-24.8-0.4-2.8 3.2-3.4 4.4-1.3z"  fill="#fff" /><path d="M357.6-279.6c123.8 90.3 88.5 198.4 99.2 319.9 0.4 4.9 7.8 35.2 3 36.1-3.8 0.7-4.6-5.3-0.7-5.6 3.3-0.3 4.2 4.5 1 5.5-6.7 2-9.3-30.9-9.8-35.4-7-61.9 4.8-122.7-9.8-184.4-9.2-39-23.6-77.7-51.6-107.1-9.3-9.7-19.6-18.3-30.3-26.4-0.7-0.6-1.8-3-1-2.6z"  fill="#005bbb" /><path d="M364.7-306.6c123.8 93.4 87.8 212.8 100.4 344.1 0.5 5.3 8.2 37.8 3.9 38.7-3.7 0.7-4.6-5.1-0.8-5.5 3.2-0.3 4.2 4.4 1.1 5.5-6.7 2.1-10.4-36.2-11-41.4-7.1-66.5 1.6-131.5-11.7-198-7.9-39.5-18.6-78.8-46.1-109.4-10.5-11.7-22.5-21.8-34.8-31.4-0.7-0.6-1.7-3.1-1-2.6z"  fill="#fff" /><path d="M390.9-399.5c22.8 37.4 59.7 64.4 75.3 106.4 17.6 47.3 10.4 144.8 12.4 198.9 0.3 8.3 5.5 63.4-2 65.5-6.4 1.7-5.1-9.8 0.8-6.6 5 2.7-1.1 9.9-4.6 5.3-7.2-9.6-0.7-48-1-60.6-1.5-55.5 2.2-121-4.8-175-6.8-52.8-44.4-84-74-124.5-0.9-1.3-6.6-14.7-2.1-9.4z"  fill="#fff500" /><path d="M380.4-120.9c25.1 45.3 16.2 94.2 6.1 142.3-1.5 7-6.1 55.4-9.9 55.3-5.5-0.1-3.3-8.9 1.6-6.6 4.9 2.4-0.7 9.5-4.2 5.3-8-9.8 13.3-97 15.2-115 1.8-17.5 1.4-35.3-2.8-52.5-2.3-9.5-11.4-37-6-28.8z"  fill="#fff" /><path d="M403.7-399.5c20.4 34.8 52.5 61.6 66.7 100.3 16.7 45.6 7.6 148.5 9.4 202.3 0.4 10.6 6.5 88-1.9 90.4-5.4 1.6-6-7.7-0.5-6.9 6.5 1 0.7 10.8-3.3 5.7-8.3-10.7-0.7-54.8-0.8-68.8-0.7-53.6 1.6-136.5-1.5-185.3-3.4-53.7-37.2-86.5-66.2-128.2-0.9-1.3-6.3-15.1-1.9-9.5z"  fill="#005bbb" /><path d="M394.1-196.9c58 70.4 42.5 149.2 44 232.5 0.1 5.5 5.8 40.3 1.4 41-4.6 0.7-4.1-7 0.4-5.7 4.5 1.3 0.7 8.1-2.8 5-12.1-10.6-1.2-136.1-3.6-161.1-3.5-36.4-15.7-72.5-36.6-102.7-0.1-0.1-7.4-13.7-2.8-9z"  fill="#c2e1ff" /><path d=""  fill="#005bbb" /><path d=""  fill="#c2e1ff" /><path d="M431.2-399.7c17.9 35.1 45.2 64.6 53.7 104 4.6 21.7-2.7 173.6-2.1 216.1 0.2 10.1 2.9 70.3-0.4 74.8-3.3 4.5-9.4-2.4-4.5-5.1 4.9-2.7 7.5 6.1 2 6.6-7.2 0.5-4-52.1-4-59.4-0.1-38.3-2.8-76.6-1.4-114.9 1.1-30.3 6.7-60.3 6.6-90.6-0.1-50.8-28.5-85.5-52.4-127.5-1.5-2.7-0.2-7.7 2.5-4z"  fill="#005bbb" /><path d="M425.1-44.8c-1 33.2-8.4 66.1-7.4 99.4 0.1 4.3 4.2 19.6-0.4 21.6-3.9 1.7-6.2-4.6-2.2-5.8 4.7-1.5 5.4 6.7 0.5 6.1-12.9-1.7-1.4-110.2 2.3-122.6 1.3-4.3 6.9-2.8 7.2 1.3z"  fill="#fff" /><path d="M430.8-181.9c26.4 64.5 22.8 127.9 22.7 195.9 0 7.2 6 61.7 3.7 62.2-4.4 0.8-4.2-6.6 0.2-5.5 4.4 1.1 1 7.8-2.5 4.9-13.5-11-6.3-123.3-6.9-145.8-1-38.1-9.4-74-21.7-109.9-1-3 3.1-4.4 4.5-1.8z"  fill="#fff500" /><path d="M452-399.1c15.2 34 37.5 64.1 42.6 101.9 5.5 40.5-6.6 81.1-9.6 121.4-2.1 29.1-0.9 58.3-0.3 87.4 0.2 10.6 3.2 73.5-0.4 78.3-3.3 4.5-9.4-2.5-4.5-5.2 4.9-2.7 7.5 6.2 1.9 6.6-5.1 0.4-5.3-142-4.7-157.4 1.3-36.1 10-71.3 11.6-107.2 2.1-45.5-18.8-79.7-38.2-118.9-1.1-2.2-2.1-12.8 1.6-6.9z"  fill="#fff500" /><path d="M446.4-55c0.2 35.5-5.3 70.9-1.7 106.3 0.5 4.6 5.6 21 2.6 24.2-3.2 3.3-7.4-3-3.2-4.7 4.3-1.7 5.5 5.8 0.9 5.6-16.3-0.9-6.4-117.5-5.7-131.4 0.2-4.7 6.6-4.4 7.1 0z"  fill="#c2e1ff" /><path d="M452.7-242.7c22.9 82.1 16.8 170.6 19.5 254.7 0.3 9.4 9.5 58.9 8.1 62.3-1.7 4-7.6-0.1-4.5-3.1 3.8-3.5 7 4.8 1.9 4.8-18.9-0.2-12.3-145-12.9-161.6-1.8-49.4-5.6-102.1-16.3-150.4-0.6-2.9 1.3-14.3 4.2-6.7z"  fill="#fff" /><path d="M471.8-399.1c12.7 32.6 30.3 62.9 32.8 98.5 2.9 40.8-11.3 80.5-15.8 120.8-3.6 32.3-2.3 64.9-2 97.3 0.1 9.5 3 87.7-2.9 87.7-6.4-0.1-2.1-10.4 2.5-5.9 4.6 4.4-5.6 9-5.9 2.6-2.7-61.9-5.7-127.7 1.3-189.3 3.3-29.1 11.3-57.4 14.7-86.4 5.1-43.9-10.2-79-27-118.4-1.1-2.5-1.3-13.3 2.3-6.9z"  fill="#005bbb" /><path d="M466.1-374c45.1 84.3 23.5 118.8 18.7 206.3-2.4 42.6 0.4 85.4 0.3 128.1-0.1 31.3-0.1 62.7 5.8 93.5 0.8 4.3 6.4 18 3.7 21.2-2.8 3.3-7.2-2.5-3.2-4.2 4-1.8 5.5 5.2 1.1 5.2-22-0.1-16.2-230.2-14.6-254.3 1.8-28.1 7.7-55.7 10.5-83.8 3.8-38.4-5.5-71.4-23.4-105.2-0.8-1.6-2.9-12.4 1.1-6.8z"  fill="#fff" /><path d="M474.5 42.5c0.6 4.8 8.5 32.6 3.8 33.6-3.7 0.8-4.6-5.1-0.9-5.5 3.7-0.4 4 5.5 0.3 5.5-4.9 0-10.7-29.8-9.2-34.1 1.1-3.3 5.3-2.3 6 0.5z"  fill="#005bbb" /><path d="M491.5-399.5c10.7 31 23.9 60.7 24.3 94.1 0.4 41-15.9 79.7-22.4 119.7-5.6 34.3-4.6 69.1-4.4 103.8 0.1 10.2 2.8 96.3-2.2 96.3-15 0.1 13.1-11.4 2.3-0.9-5.2 5.1-5.9-5.5-6-7.5-4.1-65.5-7.3-138.2 4-203 5-28.8 14.7-56.6 19.3-85.4 6.7-42-6.4-76.4-19.6-115.4-1.1-3.2 3.3-4.5 4.7-1.7z"  fill="#fff" /><path d=""  fill="#c2e1ff" /><path d="M496.2 6.8c0.4 7.7 10.1 69 7.9 69.4-3.6 0.8-4.6-5-0.8-5.4 3.2-0.3 4.2 4.3 1.1 5.3-5.5 1.8-6.6-13.4-7.2-16.2-4-17.2-6.9-35-7.7-52.7-0.2-4.5 5.9-4.6 6.7-0.4z"  fill="#fff" /><path d="M504.2-227.9c-21 77-18.6 163.3-13.2 242.5 0.6 8.7 10.4 56.4 9.1 59.6-1.6 4-7.6 0-4.4-3 3.7-3.5 7 4.8 1.8 4.7-9.3 0-13.2-59.4-13.7-67.6-5-74.2-8.4-157.3 9.7-229.7 1.3-5.3 12.4-18.9 10.7-6.5z"  fill="#005bbb" /><path d="M523-399.3c35.8 115.5-24 158.7-29.3 265.7-0.7 13.6 1.1 135.4-3.7 135.4-10.7-0.1 5.3-13.4 3.5-2.8-1.4 7.7-6.8-0.7-7-4.4-2.9-67-7.2-141.1 11.4-206.1 8-28 20.4-54.7 27.4-83 10.9-44.7-9.7-91.9-7.4-104.5 0.5-2.9 4.1-2.6 5.1-0.3z"  fill="#fff500" /><path d="M527.4-399.5c35.3 114.7-27.9 161.5-33.1 268.6-0.7 14.4 1.2 145.3-2.8 145.4-3.9 0.1-4.6-5.7-0.9-6.6 3.8-0.9 5.7 4.6 2.3 6.3-5.8 2.8-5.2-7.7-5.3-10.1-4.3-69.6-8.4-148.8 11.7-216.2 8.4-27.9 21.1-54.4 28.6-82.6 12.4-47-8.1-92.2-5.7-104.5 0.6-2.9 4.1-2.6 5.2-0.3z"  fill="#005bbb" /><path d="M525-50c0.1 27.6 13.3 114.6 12.5 123.4-0.4 5.2-8.6 1.2-4.7-2.3 3.9-3.5 7 5 1.8 4.9-14.2-0.4-17-112.5-16.7-126 0.1-4.7 6.5-4.5 7.1 0z"  fill="#fff" /><path d="M559.2-399.1c28.6 99.1-40.6 150.2-56 240.3-2.6 15.2-2.2 97.5-6 102.3-4 5.3-10-4.6-3.4-5.6 5.6-0.9 5.1 8.5-0.4 6.9-6.2-1.7-2.5-25.3-2.5-30.3 1.2-124.9 23.6-116.7 60.6-219.3 6.7-18.6 10-38.2 8.6-58-0.7-10-8.3-26.9-6.3-36.1 0.7-3 4.3-2.6 5.4-0.2z"  fill="#fff500" /><path d=""  fill="#fff500" /><path d="M547.1-301.9c-9.9 41-33 77.5-43.1 118.5-12.4 50.6-9.3 105.3-8.7 157.1 0.3 25.7 1.4 51.4 6.1 76.7 0.7 3.7 8.7 26.2 1.9 25.5-3.2-0.4-3.1-5.1 0-5.5 3.7-0.4 4 5.5 0.3 5.5-7.7 0-11.9-47.1-12.6-54-7.7-71.1-11.1-157.5 9.7-226.5 8.8-29.2 23.2-56.2 33.3-84.8 1.5-4.3 2.4-14.5 6.5-17.2 3.6-2.4 7.1 1.1 6.6 4.7z"  fill="#005bbb" /><path d="M554.5-254.1c-52.1 81.1-54.9 150.9-51.2 245 0.9 22.3 2.9 44.6 7.4 66.4 0.6 3 7.6 19.7 0.6 18.9-14.3-1.7 14.8-4.6 1.2-0.1-4.8 1.6-5.4-8.7-5.9-10.9-18.3-73.1-21.3-195.7 6.8-266.1 7.4-18.5 18.3-46 32.9-60 4.7-4.5 10.6 1.5 8.2 6.8z"  fill="#fff" /><path d="M564.8-398.9c28.6 101-57.2 174.2-64.3 272.2-2.1 29.7 3.9 139.4 1.1 152.7-1.3 5.9-9.9 0-5-3.4 5-3.4 7.2 6.8 1.3 5.8-7.4-1.2-5.7-43.9-5.9-50.7-1.5-55.4-4.5-115.4 11.3-169.1 11.9-40.4 37.1-74.5 52.2-113.4 7.1-18.5 10.9-37.9 9.8-57.8-0.7-11.8-5.7-24-5.9-35.5-0.1-3.4 4.3-3.5 5.4-0.8z"  fill="#c2e1ff" /><path d="M576-399c27.1 99.9-60.7 165.2-72 259.6-4.2 34.4 3.1 129.9-1.9 149.2-1.6 6-10.3-0.4-5-3.6 5.3-3.3 7.2 7.3 1.1 6.1-7.1-1.4-4.5-41-4.6-47.6-0.8-53.6-3.1-110.7 14.8-162 13.9-39.6 40.8-72.6 56.7-111.1 7.1-17.3 11-35.5 10.5-54.3-0.3-11.9-5.1-24-5.1-35.6 0-3.4 4.4-3.5 5.5-0.7z"  fill="#c2e1ff" /><path d="M576.3-398.9c27.5 101.7-64.5 171.8-73.3 269.5-3 33.7 3.8 149.4 1.3 161.9-1.1 5.8-9.7 0.2-4.9-3.2 4.8-3.4 7.2 6.5 1.4 5.7-7.4-1.1-6.4-43.3-6.6-49.9-2.2-58.4-5.5-123 13.2-179 13.7-41 41.5-74.7 57.8-114.4 7.1-17.2 11-35.5 10.6-54.3-0.3-11.9-5-24-5.1-35.6 0-3.4 4.5-3.5 5.6-0.7z"  fill="#005bbb" /><path d="M582.1-358c2.2 55.6-34.6 98-57.2 145.5-18.1 37.9-22.9 78.1-24 119.7-1.1 43.4-2 87.8 4.2 130.8 0.7 4.9 9.4 38.6 3.9 38-3.2-0.4-3.1-5.1 0.1-5.4 3.7-0.4 4 5.5 0.2 5.5-5.8 0-8.3-25.1-9.1-29.7-12.8-68.5-15.1-173.6 6.8-239.9 13.2-40.1 39.6-73.2 56.2-111.6 1.3-3.1 16.1-76.4 18.9-52.9z"  fill="#005bbb" /><path d="M599.5-399.3c23.7 103.9-71.9 158.2-89.1 252.1-6.7 36.4 0.6 121.6-5 141.6-1.7 6.1-10.5-0.6-5-3.9 5.5-3.2 7.2 7.7 1 6.3-6.5-1.5-3.7-32.4-3.8-38.2-0.7-52.7-1.8-108.7 19.1-158.1 16.8-39.8 47.5-71.1 66.4-109.6 16.8-34.1 6.3-86.4 11.4-91.7 1.8-1.8 4.3-0.7 5 1.5z"  fill="#005bbb" /><path d="M597.2-188.1c-49.6 53.1-49.6 124.3-43.6 192.6 1.7 18.9 3.8 37.9 7.3 56.6 0.5 2.5 5.7 16.3-1 15.1-4.5-0.8-1.7-7.8 2.1-5.2 4.5 3-3.3 8.3-4.5 3-15-68.1-26.3-155.3 0.7-221.6 6.3-15.4 17.1-39.4 31.4-49.2 5.9-4 11.3 3.5 7.6 8.7z"  fill="#fff" /><path d="M603-293.2c-32.2 53.6-77.9 91.3-88.9 156.1-4.1 24.2-4.9 48.9-5.1 73.5 0 3.2 2.9 23-4.9 19.9-3.8-1.5-2.2-7.4 1.8-6.8 4.1 0.6 3.8 6.8-0.3 7.1-7.6 0.5-3.8-25-3.7-29.8 0.6-44.6 3.8-89.7 24.3-130.1 7.8-15.4 57.8-90.5 69.8-97.3 5.1-2.9 9.3 2.9 7 7.4z"  fill="#fff500" /><path d="M602.9-317c-35.4 98.2-91.6 85.6-96.3 228.6-1.2 37.9-1.3 76.4 2.8 114.1 0.5 4.4 7.7 34.9 1.3 33.8-3.9-0.7-2.5-6.8 1.4-5.7 3.3 0.9 2.4 6-1.1 5.7-6.2-0.4-7.2-27.4-7.8-32.3-9-69.5-13.1-156.7 14.2-222.6 17.5-42.2 51.1-74 71.7-114.2 1.8-3.6 3.6-12.7 8.4-13.7 4-0.9 6.3 2.9 5.4 6.3z"  fill="#fff500" /><path d="M602.7-90.1c-1.6 9.6-1.3 85.6-3.9 85.6-4.5 0.1-4.3-7 0.2-6.6 3.9 0.3 4 6.1 0.2 6.6-6.6 0.9-4.8-16.4-5.1-19.8-1.3-19.5-6.6-49.4 0.9-67.9 1.8-4.6 7.8-2.3 7.7 2.1z"  fill="#fff500" /><path d=""  fill="#fff" /><path d="M602.8-272.3c-36.6 45.1-74.7 82.3-84.7 142.2-3.9 23.1-4.7 46.7-4.9 70 0 3 2.7 20.2-4.9 17.3-3.8-1.5-2.2-7.4 1.9-6.8 4.8 0.7 3.2 8.2-1.5 6.9-6.6-1.8-2.6-32-2.4-37.7 1.1-43.8 6.6-87.2 29.2-125.7 8.9-15.1 46.1-69 60.8-75.1 5.8-2.4 9.5 4.4 6.5 8.9z"  fill="#c2e1ff" /><path d="M602.7-266.4c-34.7 39.9-70.1 75.2-81.4 128.9-4.1 19.6-5.6 39.7-6.2 59.7-0.1 3 2 18.2-5.3 15.2-3.9-1.6-2.1-7.6 2-6.9 4.1 0.7 3.7 7-0.5 7.2-7.8 0.3-2.9-34-2.5-39.4 3-45.9 15.3-87.9 43.5-124.8 11.7-15.3 26.8-37.5 42.8-48.5 5.8-4 11.2 3.4 7.6 8.6z"  fill="#fff500" /><path d=""  fill="#fff500" /><path d="M602.7-261.8c-46.3 50.8-80.2 94.1-85.3 165.3-1.9 26.8-1.8 53.8-0.6 80.5 0.2 3.5 4.5 24.5-3.3 22-4.3-1.4-1.8-8.1 2.4-6.2 4.9 2.1-0.3 9.2-3.9 5.3-4.5-5.1-2.3-24.2-2.5-30.9-2.2-58.2-2.7-121.5 27.2-173.5 8.5-14.9 44.7-66.6 59.7-72 6.1-2.2 9.5 5 6.3 9.5z"  fill="#fff500" /><path d="M602.6-257.1c-33 34.8-65.1 68-76.9 116.1-4 16.2-5.9 32.8-7 49.3-0.2 3 1.5 18.3-5.8 15.1-3.9-1.7-2-7.8 2.2-6.9 4.2 0.8 3.6 7.2-0.7 7.3-8 0.1-2.3-31-1.7-36.3 4.1-41 17.5-78.4 43.2-110.9 10.7-13.5 24.6-33.5 39.3-42.8 6.1-3.9 11.3 4 7.4 9.1z"  fill="#fff500" /><path d=""  fill="#fff" /><path d="M602.9-200.5c-56.1 53.8-60 125.1-54.2 198.5 1.6 20.1 3.8 40.1 7.3 59.9 0.5 2.9 6.7 19.5-0.3 18.5-12.7-2 12.7-7.7 2.1-0.5-4.6 3.1-5.4-6-5.8-7.5-15.1-68.1-25-156.7 3.8-222.4 7.9-17.9 22.3-45.4 39.7-55.9 6.3-3.8 11.4 4.3 7.4 9.4z"  fill="#fff500" /><path d="M602.6-241.4c-47.2 44.8-74.2 90.6-78.2 156.6-1.4 23.4-1.1 47 0.1 70.4 0.2 3 4.3 22.4-3.2 20-4.3-1.3-1.8-8 2.3-6.2 4.1 1.8 1 8.2-3 5.9-7.7-4.4-4.1-47.9-4.2-56.6-0.5-46.6 2.5-95.1 26-136.6 11.6-20.7 32-51.1 53-63.2 6.4-3.7 11.4 4.6 7.2 9.7z"  fill="#fff500" /><path d=""  fill="#fff500" /><path d="M602.9-105.9c-9.1 34.2-6.2 70.2-3.4 105.1 0.4 5 6 32.8-0.6 33-8.6 0.3 1.4-12.4 3.1-3.9 1.2 5.8-6.3 3.7-6.8-2.3-3.2-35.8-7.7-72.5-4.5-108.5 2.2-24.5 13.9-38.3 12.2-23.4z"  fill="#fff" /></svg>