<svg width="1200" height="675" viewBox="-500 -500 1200 675" xmlns="http://www.w3.org/2000/svg"><path d="M-500-500h1200v675h-1200z" fill="#000"/><path d=""  fill="#fff500" /><path d=""  fill="#005bbb" /><path d=""  fill="#005bbb" /><path d=""  fill="#005bbb" /><path d=""  fill="#fff500" /><path d=""  fill="#c2e1ff" /><path d=""  fill="#fff500" /><path d=""  fill="#fff" /><path d=""  fill="#fff" /><path d=""  fill="#c2e1ff" /><path d=""  fill="#fff500" /><path d=""  fill="#005bbb" /><path d="M-389.6 22.5c-1.3 4.1-3.4 23-12 17.1-5-3.4-0.7-11.3 4.9-9 5.6 2.3 3.1 10.9-2.8 9.9-8.4-1.4-2.7-19.8 0.7-23.3 4.2-4.4 10.1 0.2 9.2 5.3z"  fill="#005bbb" /><path d="M-381.7-230.9c-0.3 14.3 2.5 119.6-17.4 118.3-7.7-0.5-6.3-12.5 1.3-11.2 7.6 1.3 4.9 13.1-2.5 11-9.6-2.7 4.5-36 5.7-43.3 2.7-16.6-1.3-66.2 4.6-77 2.3-4.3 7.9-2 8.3 2.2z"  fill="#c2e1ff" /><path d="M-372.7-298.6c-1.9 21-2 198.4-26.5 195.6-9.2-1.1-4.2-15.6 3.7-10.8 7.9 4.8-2.7 16-7.9 8.3-4.9-7.3 10.9-40.4 12.5-50 8.1-47.4 2.8-96.2 8.8-143.9 0.8-6.2 9.2-5.1 9.4 0.8z"  fill="#005bbb" /><path d=""  fill="#fff500" /><path d="M-344.2-398.5c1.6 52.5-12.5 104-17.2 156.1-3.5 39.7-1.9 135.5-32.9 163.8-7.4 6.7-15.7-7.6-6.1-10.7 9.5-3 11 13.5 1.1 12.3-13.8-1.8 4.7-27.2 7.1-32.6 9.5-21.9 14.6-45.3 17-69 3.2-30.9 3.6-62.1 7.3-93 4.8-39.9 14.3-79.6 14.9-120 0.1-5.3 7.2-18.3 8.8-6.9z"  fill="#fff500" /><path d="M-346-138.7c-4.3 18.8-33.5 102.5-50.4 108.6-9.8 3.5-12-13.6-1.6-12.7 10.4 0.9 5.2 17.4-3.9 12.2-10.7-6.1 14-35 17.9-42 8.1-14.4 22.7-64 29-70.9 3.9-4.4 9.7-0.2 9 4.8z"  fill="#fff" /><path d=""  fill="#005bbb" /><path d="M-329.2-398c-2.8 52.4-18.1 103-24.2 155-4.8 41.7-7.8 148.1-41.2 176.3-7.8 6.6-15.7-8.4-5.8-11.2 9.9-2.7 10.7 14.3 0.6 12.6-13.8-2.3 5-25.8 7.5-30.7 11.4-22.5 18.5-46.6 22.2-71.5 4.9-33.4 5.4-67.3 10.2-100.8 5.9-41.3 17.1-81.9 20.9-123.5 0.5-5.9 9.2-18 9.8-6.2z"  fill="#c2e1ff" /><path d="M-322.9 68.8c0.4 0.7 5 7.4 0 6.7-2.9-0.4-2.1-4.9 0.8-4.2 2.4 0.6 2 4.3-0.6 4.3-6.9-0.1-4.1-11.3-0.2-6.8z"  fill="#c2e1ff" /><path d="M-310.9-87.7c-9.5 37.3-22.8 77.5-13.5 116.1 2.5 10.4 22 40.7 22.1 45.3 0 3.5-5.7 1.3-3.3-1.3 2.4-2.6 5 3 1.5 3.2-9.6 0.5-24.3-37.9-26.7-45.4-10.6-33.5-6.8-90.2 10.1-121.7 3.1-5.7 10.6-1.9 9.8 3.8z"  fill="#005bbb" /><path d="M-306.9-397.5c-9.1 47.3-24 93.3-32.7 140.8-7.8 42.6-8 86.6-19.2 128.6-3.2 11.8-25.5 83.3-41.7 78.2-9.9-3.1-1.3-18.1 6.4-11.1 7.7 7-6.4 17-10.5 7.4-3.3-7.7 11.7-23.7 15.3-30.2 10.9-19.7 19-40.7 24.1-62.6 8.6-36.8 9.4-74.9 15.7-112.1 8-47.4 21.2-94.3 32.5-141 1.6-6.6 10.5-4.4 10.1 2z"  fill="#005bbb" /><path d=""  fill="#005bbb" /><path d="M-284.6-163.8c-13.4 53.8-37.6 120.1-26.8 176 3.6 18.4 12 35 23 50.1 0.6 0.8 12.1 13.1 6.2 12.9-8.7-0.2 8.8-3.6 0.8-0.2-3 1.3-6.4-5.8-7.6-7.2-22.3-28.1-34.8-59.1-33.2-95.4 1.3-29.2 14.9-115.3 27.7-139.8 3-5.7 10.5-2 9.9 3.6z"  fill="#fff500" /><path d="M-275.6-259.8c-10.5 24.6-70 236-74.3 262.3-2.7 16.8-2.8 34 1.6 50.5 0.6 2.4 11.3 24.5 3.9 22.7-3.4-0.9-1.8-6.2 1.5-5 2.8 1 1.8 5.4-1.2 5.1-4.6-0.6-7.7-13.4-9.1-17-19.5-52.3 5.7-105.9 20.8-155.9 15.3-50.5 22.2-103.4 40.5-153 1.7-4.6 3.3-14.7 8.3-17.2 5.2-2.5 9.3 2.7 8 7.5z"  fill="#fff" /><path d=""  fill="#fff" /><path d="M-258.7-90.4c-5.8 41.4-2.6 81.2 16.5 118.9 4.7 9.4 26.7 35.6 25.1 45.4-0.7 4.6-7.7 0.5-4-2.4 3.2-2.5 6 3.6 2.1 4.5-4.8 1.1-11.5-16.9-13.6-20.5-14.6-24.9-28.7-49.8-34.4-78.5-4.4-22.3-4.6-46.2-1.3-68.6 0.9-6.4 9.6-4.9 9.6 1.2z"  fill="#fff500" /><path d="M-250.1-395.6c-26.5 54.3-51.8 112.5-65.3 171.6-15.3 67-25.2 128.6-57.8 190.2-4.9 9.4-13.4 36.5-22.6 41.3-8.5 4.4-12.6-10.9-3.1-11.3 9.6-0.5 6.9 15.2-2 11.6-10.7-4.3 6.3-27.7 9.1-33.1 15.5-29.7 31.6-58.9 42.1-90.8 12.3-37.2 16.5-76.1 25-114.2 12.6-56.8 36.3-111.6 60.7-164.2 3.7-7.9 18.2-13.9 13.9-1.1z"  fill="#fff500" /><path d="M-240.5-352.4c-21.5 45.7-45 90.8-58.3 139.8-9.9 36.6-15.6 74.1-26.4 110.4-9.6 32.3-23.5 63.2-32.9 95.6-4.7 16.3-7.9 33.3-7.2 50.3 0.3 7.6 7.1 24.4 5 30.8-1.9 5.5-9.6-1-4.5-3.7 5.1-2.7 6.2 7.3 0.7 5.7-4.6-1.3-5.5-12-6.4-15.7-13-52.3 13.4-102.6 29.8-150.9 29-85.1 33.3-149.2 74.2-235.6 4.8-10.2 8.8-24.4 15.8-33.1 4.6-5.7 12.2 0.1 10.2 6.4z"  fill="#fff" /><path d=""  fill="#005bbb" /><path d="M-256.6-395.9c-25.7 54.8-50 113.2-62.7 172.5-7.9 37.2-11.8 75.1-23.2 111.5-3.8 12-28.5 86.7-43.2 83.2-9.7-2.4-2.4-17.3 5.4-11.1 7.8 6.2-5.1 16.7-9.5 7.8-3.5-6.9 30.5-64.2 38-87.1 12.1-37.2 16-76.2 24.1-114.4 12-55.6 34.4-109.3 57.4-161.1 3.5-7.9 17.8-14.2 13.7-1.3z"  fill="#005bbb" /><path d="M-216.1-19.7c1.8 10.9 31.5 95.9 30.1 96.4-4 1.2-5.6-5.2-1.4-6 4.1-0.8 5 5.8 0.8 6.1-8.6 0.7-37.3-85-36.8-96 0.2-4.5 6.1-4.3 7.3-0.5z"  fill="#005bbb" /><path d="M-233.1-395.7c-28.4 54.8-56.6 113.3-72.3 173.1-8.4 32-40.2 190.7-63.2 203.8-8.1 4.6-12.7-10.2-3.4-11 9.3-0.8 7.3 14.6-1.5 11.4-8.9-3.3 29.9-88 33.6-100.4 10.5-34.9 15.5-71.1 24.2-106.4 14.5-59 41.7-115.5 68.6-169.9 3.9-7.9 18.7-13.5 14-0.6z"  fill="#c2e1ff" /><path d="M-198.4-17.6c1.4 10.7 27.1 93.3 24.9 93.9-4.3 1.1-5.6-5.7-1.3-6.4 5.1-0.7 4.5 7.8-0.4 6.3-5.7-1.7-11.5-29-13.8-34.9-6.2-16.5-18.4-40.7-17-58.6 0.4-4.6 6.4-4.3 7.6-0.3z"  fill="#fff" /><path d="M-221.5-395.6c-61.5 119.2-66.9 148.6-99.7 274.4-2.9 11.2-25.5 94.8-37 89.8-7.1-3.1-1.6-14.1 5.1-10.2 7.9 4.5-2.2 15.7-7.5 8.3-5.2-7.3 21.4-63.6 27.9-86.8 10-35.1 15.4-71.3 25.1-106.5 16.1-58.5 45.1-114.2 72-168.4 3.9-7.9 18.8-13.5 14.1-0.6z"  fill="#fff500" /><path d=""  fill="#005bbb" /><path d="M-172.9-396.7c-39.5 107.8-94 197.7-113.4 312.6-4.8 28.5-8.2 58.2-1.1 86.7 0.7 3 12.3 28.4 5 26.5-8-2.1 6.4-9.1 3.1-1.5-2.4 5.5-6.3-2.9-6.9-4-32.4-66.9-1.3-181.7 25.7-247.5 13.8-33.8 32.8-65.1 47.5-98.5 7-15.9 21.1-71.4 30.9-80.5 4.6-4.2 10.4 0.8 9.2 6.2z"  fill="#fff500" /><path d="M-163.4 0.4c1.2 9 21.1 75.3 16.4 76.2-4.5 0.9-5.7-6.3-1-6.7 4-0.4 5.2 5.4 1.4 6.6-6.5 2.1-8.5-17.5-9.6-20.9-21.1-68.6-8.6-60-7.2-55.2z"  fill="#005bbb" /><path d="M-153.7-36.6c-3.8 29 2.4 57.4 11 85 1.3 4.2 11.8 26.6 4.6 28.1-4.6 0.9-5.7-6.3-1.1-6.8 4.6-0.4 4.9 6.9 0.3 6.9-6.2-0.1-11.2-29.8-12.8-35.3-6.6-21.8-18.9-57-11.2-79.8 1.9-5.5 9.1-3.2 9.2 1.9z"  fill="#c2e1ff" /><path d="M-177.1-396.5c-32.7 84.7-81.3 164.4-102.2 252.9-3 12.9-13.3 84.4-18.2 89.5-5.3 5.5-12.3-5.1-5.2-7.8 8.4-3.2 8.2 12.4-0.1 8.9-11.1-4.6 9.9-77.9 12.4-89 15.1-67.1 45.4-122.7 73.4-184.7 10.9-24.2 18.7-49.6 29.1-73.9 3-7 12.5-2.9 10.8 4.1z"  fill="#c2e1ff" /><path d="M-160.9-396.7c-10.2 33.4-18 67.5-31.4 99.9-22.2 53.9-51.7 102.6-65.5 159.9-5.9 24.6-10.6 49.7-12.2 75-0.2 3.7 2.6 23.7-6.1 20.5-5.4-2-1.8-10.4 3.3-7.9 6.1 3-1 11.8-5.2 6.5-4.3-5.4-1.1-21.4-0.7-27.8 4.7-75.4 32.8-142.1 65.5-209 15.9-32.6 31.4-102.8 42.3-121.4 3.4-5.8 11-1.5 10 4.3z"  fill="#c2e1ff" /><path d="M-126.6-156.3c-30.5 45.9-56.2 91.9-49.1 149 2.8 22.7 10.2 44.3 17.3 65.9 0.9 2.8 9 19.3 0.7 18.4-4.6-0.5-3.4-7.7 1.1-6.6 4.5 1 2.5 8-1.8 6.5-5-1.7-5.9-15.6-7.4-20.2-15.4-48.5-27.9-94.9-11.7-145.2 7.7-23.8 22.1-59.1 40.9-76.4 5.9-5.4 13.2 2.1 10 8.6z"  fill="#fff" /><path d="M-119.5-331.5c4.8 42.6 15 85.7-0.5 127.4-20.4 54.7-62.2 96.6-66.8 157.4-2.5 33.8 6.6 65.8 17.7 97.4 1.2 3.5 12.7 26.9 3.7 26-4.5-0.4-3.4-7.5 1-6.6 3.8 0.8 3.2 6.6-0.6 6.6-5.6 0.1-6.9-14.6-8.1-18.2-19-57.3-32.3-109.7-9.5-168.5 15.5-40 45.9-73.5 57.6-114.9 11.4-40.4-6.6-71.5-2.3-106.6 0.6-4.8 6.8-4.1 7.8 0z"  fill="#fff" /><path d="M-109.1-88.4c-23 32.9-29.7 71.8-21.3 110.7 1.4 6.6 17.9 55.1 11.2 54.4-5.3-0.5-2.5-8.9 2-6.2 3.9 2.3-0.1 8.3-3.7 5.6-15.7-11.7-25.1-104.5-16.4-134 12.8-43.6 36.3-47.2 28.2-30.5z"  fill="#fff" /><path d="M-101.5-247.9c2.7 77.1-72.8 128.5-78.6 205.2-2.4 32.4 6.1 63.2 16.4 93.7 1.2 3.6 12.5 27.1 3.4 26.1-3.9-0.4-3.9-6.3 0-6.7 4.6-0.5 5 6.7 0.4 6.7-5.5 0-6.6-14.2-7.7-17.7-17.3-54.5-30.9-105-9.6-160.8 14.6-38.2 43-68.6 58.4-106.2 5.7-13.9 5.1-27.6 8.7-41.5 1.4-5.2 8.1-3.6 8.6 1.2z"  fill="#fff500" /><path d="M-91.6-60.4c-16.4 30.7-16.2 65.1-5.7 97.6 2.5 7.9 15.5 29.5 13.2 37.1-1.4 4.6-8.4 0.7-5.2-2.9 3.8-4.2 8.2 4.6 2.5 5.1-5.9 0.5-13.7-29.4-15.5-34.7-11.9-33-16.2-68.4-2.7-101.6 3.5-8.7 17.4-12.7 13.4-0.6z"  fill="#fff" /><path d="M-84.9 16.2c1.5 7.4 22.2 59.1 19.2 60.1-3.6 1.3-5.4-4.5-1.7-5.4 3.8-0.9 4.9 5.1 1.1 5.6-5.2 0.7-8.5-14.2-10-17.6-5.9-13.4-11.8-26.9-15.4-41.1-1.2-4.5 5.2-5.8 6.8-1.6z"  fill="#fff" /><path d="M-73.6-399c11.4 75.5 75.5 101.3 120.2 153.5 56.5 65.9 1.8 122.7-35.1 179.5-4 6.2-14.8 38.4-22.5 35.9-5.9-1.9-3.9-11 2.2-10.4 6.2 0.6 6.2 9.9 0.1 10.6-13.7 1.6 1.8-29 3.8-33 22.6-45.5 74.8-81.5 67-138-8.7-62.1-81.1-88.8-115.3-134.9-11.5-15.5-28.8-42.4-27.8-62.6 0.2-4.5 6.1-4.3 7.4-0.6z"  fill="#005bbb" /><path d=""  fill="#c2e1ff" /><path d="M-56.9-105.8c-31.6 30-53.7 67.2-48.6 112.2 1.3 11.6 21.1 64.6 19.9 68.1-1.7 5.4-9.4-0.8-4.4-3.5 5-2.8 6.3 7 0.8 5.6-5.6-1.4-11.1-25.4-13.1-30.8-20.2-54.7-14.5-107.2 25-151.4 12.3-13.8 33.6-16.7 20.4-0.2z"  fill="#fff500" /><path d="M-50.2 23c1.9 6.5 23.9 51.7 20.6 53.1-3.3 1.4-5.2-3.8-1.8-4.9 3.4-1.1 4.8 4.4 1.3 5.1-4.6 0.9-8.4-12.3-9.8-15.1-5.4-10.5-15.5-25-16.6-36.9-0.3-3.9 4.7-4.4 6.3-1.3z"  fill="#c2e1ff" /><path d="M-39-67.3c-20.5 28-26.3 61.3-15.7 94.4 2 6.1 22.1 48.5 18.1 48.8-3.6 0.3-3.7-5.4-0.2-5.3 3.6 0.1 3.1 5.8-0.4 5.3-13.7-1.9-43.8-88.3-21.2-135.7 10.1-21.3 26.3-21.2 19.4-7.5z"  fill="#c2e1ff" /><path d=""  fill="#fff500" /><path d="M-14.3-399.8c20.2 58.1 79.3 79.2 120.7 118.7 37.7 36 56.7 86.1 76.1 133.4 2.1 5.2 16.4 32.3 11.2 35.8-5 3.3-7.1-6.8-1.3-5.8 5.9 1 0.5 9.8-3.1 5.1-12.1-16.1-38.8-100.5-58.3-132.1-31.5-50.7-85.6-71.1-124.9-113.3-25.5-27.4-26.3-52.4-20.4-41.8z"  fill="#c2e1ff" /><path d=""  fill="#c2e1ff" /><path d="M-6.8 33.9c2 5.2 21.1 40 16.7 41.9-3.3 1.4-5.3-3.9-1.8-5 3.4-1.1 4.8 4.4 1.2 5.2-4.2 0.8-6.8-9.2-7.9-11.6-17.3-34.2-11.6-36.5-8.2-30.5z"  fill="#c2e1ff" /><path d="M0.6-361.1c28.7 36.1 73.3 53.5 105.8 85.4 51.9 50.9 96 167.7 89.2 240-1 10.2-2.4 58.6-11.7 63.1-8.2 4-9.4-11.9-0.7-9.1 8.7 2.8-1.4 15.1-5.8 7-7.1-13 8.1-54.7 9.5-69.9 4.7-51.6-14.4-99.8-33.7-146.7-40.8-99.2-76.2-92.8-144.6-156.7-1.8-1.7-13.2-17.8-8-13.1z"  fill="#c2e1ff" /><path d="M12.8-193.2c-4.3 68.7-92.7 94.7-108.6 160.8-7 29-0.3 57.5 10.4 84.6 0.9 2.2 13.4 26.8 4.4 23.8-12.6-4.3 14.3-5.6 2.2-0.1-5.7 2.6-10-16.5-11.3-19.6-54.6-133.6 25.7-143.5 80.2-221.1 4.1-5.9 11.4-34.3 18.1-34.1 3.1 0.1 4.7 2.8 4.6 5.7z"  fill="#005bbb" /><path d="M22.3-73.4c-19.6 28.5-29.5 60-20.4 94.2 1.8 6.9 22.7 55.3 19.3 55.5-4.3 0.3-3.2-6.8 0.8-5.2 4 1.6 0.1 7.5-3 4.4-29.8-30.8-41.6-124.5-6.7-157.3 5.9-5.5 13.1 2 10 8.4z"  fill="#c2e1ff" /><path d="M29.9-399.8c22 53.9 80 82.5 112.7 129.1 17.3 24.6 93.9 151.4 102.9 174.9 6.5 17 9.2 35.2 7.9 53.4-0.4 6 0.2 26.8-8.4 27.2-6.1 0.3-7.5-8.7-1.5-10.3 5.9-1.6 9.2 6.9 3.7 9.7-12.6 6.5-2.3-37.6-2.2-43.1 0.1-30-12.9-56.3-28.9-81-31.3-48.1-55.3-103.2-91.2-147.9-28.8-35.8-71.1-59.9-94.7-99.9-1.9-3.1-5.4-20.3-0.3-12.1z"  fill="#fff" /><path d="M39.7-111.8c-26.3 35.2-60.4 67.9-55 115.8 1.6 14.6 26.7 64.7 25.7 69.7-0.9 4.8-8.1 0.3-4.1-2.7 4-2.9 6.1 5.4 1.2 4.8-7.5-1-20.2-38.4-23-45.4-11.6-29.8-12.3-61 1.6-90.1 9.5-20 26.5-47.7 44-61.7 6.6-5.2 13.5 3.2 9.6 9.6z"  fill="#fff" /><path d=""  fill="#005bbb" /><path d="M62.3-399.8c16 40.1 51.5 67.8 76.8 101.6 26.8 35.8 43.9 77.5 69.7 113.9 29.1 40.9 72.1 76.2 73 130.4 0.1 5.1 1.5 16.9-2.5 20.8-4.9 4.7-11.9-3.3-6.5-7.5 5.3-4.2 11.4 4.6 5.6 8.2-11.7 7.2-5.4-29.7-5.6-33.9-1.6-24.2-12.5-45.8-26.7-65-17.7-24-38.2-45.6-54.4-70.7-19.7-30.6-34.7-64.1-55.9-93.8-22.7-31.9-54.1-57.5-73.5-91.8-1.7-3.1-5.1-20.6 0-12.2z"  fill="#c2e1ff" /><path d="M61-288.6c128.4 85.7 74.9 225.4 82 351.5 0.2 3 3 16.6-4.8 14.1-4.6-1.5-3.1-8.5 1.7-8 4.8 0.5 4.9 7.6 0.1 8.2-8.9 1.1-6.4-36.2-6.6-42.3-1.6-63.5 13.9-125.8 4.3-189.2-5.8-38.1-18.7-76-44.9-105-9.1-10-19.5-18.6-30.4-26.5-0.8-0.6-2.3-3.3-1.4-2.8z"  fill="#fff" /><path d="M82.5-399.6c14.7 38.9 46.2 68.5 68.5 102.9 28.9 44.5 49 92.5 85.2 132 7 7.7 69.7 72.7 55.8 81.7-4.4 2.8-7.4-5.3-2.3-5.9 5.1-0.7 4.5 7.9-0.5 6.3-4.9-1.5-13.1-33.2-36.1-59.1-63.4-71.6-64.4-90.7-112.4-162.8-17.3-25.9-38.9-48.7-54.7-75.6-14.8-25.3-3.8-20.1-3.5-19.5z"  fill="#fff500" /><path d="M82.3-186.1c5.9 67.2-61.8 107.9-66.7 171.8-1.7 21.8 23.8 86.4 23.3 88.4-1.3 5.1-8.7-0.2-4.3-3 4.4-2.9 6.2 6.2 1 5.1-5.9-1.1-13-26.5-15.3-31.9-35.6-85.9 11.1-114.3 43.5-186.4 6.3-14 4.3-33.3 10.5-45.8 2.1-4.2 7.5-2.2 8 1.8z"  fill="#005bbb" /><path d=""  fill="#fff500" /><path d="M100.8-71.6c-11.2 39.5-13.7 76.2-5.9 116.7 1 5.2 9.5 28.6 3.9 31.5-5.1 2.6-7.5-6.6-1.8-6.8 4.9-0.2 4.8 7.5-0.1 7.2-7.3-0.5-11-39.9-12.2-46.5-5.3-30.6-9.7-77.5 6.2-106.1 3.2-5.8 10.8-1.7 9.9 4z"  fill="#c2e1ff" /><path d="M105.5-331c41.3 43 64.3 94 96.8 142.9 25.9 39.1 65.5 73.1 71.8 122 5.4 41.8-15.7 80-25.6 119.3-1.2 4.8-1.6 24.5-10 22.6-5.6-1.2-4.7-9.8 1.1-9.8 5.8 0 6.7 8.6 1 9.8-11.3 2.5-3.2-21.5-2.3-25.1 11.3-50.2 41.3-98.4 19.8-150.3-14.4-34.8-43.4-61.8-63.9-92.8-26.9-40.6-45.7-85.5-78.1-122.5-1.3-1.4-15.7-20.3-10.6-16.1z"  fill="#fff" /><path d=""  fill="#fff500" /><path d="M126.8-77.2c-6.7 42.7-11.4 83.2-6.5 126.4 0.6 5 6.7 25.4 0.7 28-4.9 2.1-7.7-5.8-2.6-7.3 5.9-1.8 6.7 8.5 0.5 7.6-8.2-1.2-8.7-48.1-9.2-55.8-1.4-19.3-2.6-88.2 8.2-102.7 3.3-4.4 9.1-1 8.9 3.8z"  fill="#005bbb" /><path d="M135.3-100.6c-3.8 48.3-13.7 94.4-9.6 143.2 0.5 6 6.9 32.2 0.6 34.7-5 2-7.7-6-2.5-7.5 6.1-1.7 6.6 8.7 0.4 7.8-8.1-1.3-12.8-41.3 1.5-176.3 0.7-6.7 9.4-10.2 9.6-1.9z"  fill="#fff500" /><path d=""  fill="#fff" /><path d="M157.7-399.8c17.3 51 51.7 145.2 85.6 184.8 38.8 45.2 102.1 68.2 119.6 130 2.2 7.8 11.6 53.6-0.9 55.1-5.7 0.7-7.7-7.6-2.3-9.5 5.4-1.9 9.2 5.8 4.3 8.8-11.7 7.4-5.3-29.4-5.5-33.3-0.9-22.6-8.5-44.1-21.7-62.5-33.7-46.7-90.2-68.5-120.3-119.2-26.2-44.3-43.8-97.6-62.2-145.6-1.3-3.4-0.8-16.9 3.4-8.6z"  fill="#005bbb" /><path d=""  fill="#fff500" /><path d="M170-75c0.4 15.3-9.1 152.6-13.7 152.4-5.9-0.2-5-9.4 0.8-8.6 6.8 1 2.8 11.6-3 7.9-7.8-5.1-1.8-43.6-1.2-52.3 1.7-29.4 1.8-72.6 8.6-100.4 1.3-5.2 8-3.6 8.5 1z"  fill="#005bbb" /><path d="M205.9-399.5c27.3 58.8 27.6 131.3 74 179.8 26.2 27.4 60.1 46.3 84.6 75.5 7.3 8.7 41.5 57.3 29.8 68.4-3.8 3.5-9-2.7-4.9-5.8 4.1-3.1 8.7 3.6 4.3 6.3-7.8 4.7-8.4-17.2-9.3-20.5-4.8-18-13.6-34.7-25.2-49.2-33.3-41.4-85.1-63.6-111.3-111.5-22.8-41.6-25.3-91.1-44.3-134.5-1-2.2-2.4-16.3 2.3-8.5z"  fill="#fff" /><path d="M188.1-0.2c-1.6 9.5-6.9 78.6-13.1 78.1-6.1-0.5-4.8-10 1.2-8.9 6 1.2 3.6 10.5-2.2 8.7-6.8-2.1-2.7-19.3-2.4-24 0.7-12.3 2-24.5 3.8-36.6 0.9-6.2 0.8-14.3 3.2-20.1 2.4-5.6 9.7-2.6 9.5 2.8z"  fill="#fff" /><path d="M194.6-393.1c22.4 52.8 28.6 117.3 64.7 163.1 35.3 45 94 66.5 119.1 120.3 12.5 26.6 14.9 56.6 10.5 85.4-0.9 5.8-1.5 27.4-10 27.5-6.3 0-7.3-9.3-1.2-10.7 6.1-1.4 9.2 7.5 3.5 10.2-13.8 6.5-0.8-35.9-0.3-40.3 3.6-28.9-0.3-58.5-14.5-84.1-30.1-54.4-95-75.8-126.6-129.4-24.1-40.8-29.9-90-47.9-133.4-1.1-2.6-1.9-16.5 2.7-8.6z"  fill="#fff500" /><path d="M205.8 18c-2.1 9.6-3.5 54.9-10.7 59.1-6.3 3.7-10.1-7.9-2.8-8.6 7.3-0.7 5.8 11.4-1.1 8.9-8.1-2.8 0.4-57.5 5.5-63.7 3.6-4.4 9.4-0.6 9.1 4.3z"  fill="#fff500" /><path d="M212.6-317c8.5 27.7 17.1 55.8 33.5 80 63.9 94.1 182 91 125.9 254.8-3.4 10-14.2 56.8-23.9 59.7-9.8 3-8.3-14.8 0.8-10.2 9.2 4.6-4.2 16.4-7.6 6.8-4.5-12.4 14.3-44.3 18.7-56.3 13.1-35.8 22.4-74.2 11.6-111.9-19.4-67.9-93-90-131.2-143.8-14.1-19.9-32.7-53-34.2-77.9-0.2-4 4.9-4.4 6.4-1.2z"  fill="#c2e1ff" /><path d="M222.3-68.3c1.7 15.5-15.2 147.4-25.1 146.1-7.3-1-3.1-12.5 3.1-8.6 5.3 3.4-0.5 11.5-5.4 7.6-11.7-9.3 9.5-73.6 12.5-86.9 3.4-14.9 2.3-48.8 7.1-59.6 1.8-4.1 7.1-2.4 7.8 1.4z"  fill="#fff500" /><path d="M229.7-399.6c24 46.1 19.3 100.1 43.1 145.6 46.7 89.1 143.9 88.8 133.2 221-0.6 7.6-0.7 35.8-8.6 38.8-7.8 3-9.9-10.7-1.6-10.1 9.8 0.6 2.4 16-4.2 8.8-5.4-5.8 4.6-34.2 5.4-42.4 2.8-28.9-0.3-58.6-12.9-85-26.8-56.4-91-80.8-119.5-135.9-19.6-37.9-17.4-81.7-32.2-121.1-0.4-1.1-8.8-29.1-2.7-19.7z"  fill="#fff" /><path d="M271.9-399.4c26.1 53 2.2 114.2 37.7 165.1 40 57.3 98.4 88 105.6 164.4 0.6 5.9 4.6 25.9-1.3 29.6-5.2 3.3-9.9-5.2-4.4-7.9 5.5-2.7 9.3 6.3 3.5 8.3-10 3.6-5.8-24.5-6-28.7-1.3-23.8-6.9-47.4-18.4-68.4-26.1-48-79.3-75.2-100.6-126.3-14.1-33.7-8.6-69.3-13.5-104.5-1.4-10.4-6.3-19.9-7.9-30-0.5-3.4 3.8-4.2 5.3-1.6z"  fill="#fff500" /><path d="M249.8 17.7c-3.2 9.8-9.3 56.6-17 60.3-7 3.4-10-9.1-2.3-9.2 7.8-0.2 5.3 12.5-1.8 9.3-8.5-3.7 5.6-62.5 13-66.9 4.7-2.8 9 1.8 8.1 6.5z"  fill="#fff500" /><path d="M269.5-399.9c22.3 44.3 6.5 95.4 25.2 140.6 36.3 87.4 122.7 90.5 121 213-0.1 7.2 1.9 34.3-5.5 37.7-7.1 3.4-10.1-9.4-2.2-9.4 9.2-0.1 3.5 14.9-3.3 8.6-5.5-5.1 1.6-29.3 2-36.5 1.3-26.4-1.8-53.3-12.1-77.8-23.1-55-81.9-82.7-106.4-136.4-16.9-37.3-8.8-77.2-17.1-116-1.4-6.6-7.4-16.4-6.9-22.8 0.2-3 3.9-3.2 5.3-1z"  fill="#c2e1ff" /><path d="M262.8-191.9c80.5 70.4 129.5 98.5 83.1 215.7-3.7 9.2-14.1 52-22.5 54.8-9.6 3.1-8.5-14.3 0.6-10 10.7 5.1-7.2 17-7.7 5.2-1.7-36.3 46.4-88.4 37.4-149.8-7.3-49.7-47.2-78.2-83.8-107.2-0.6-0.5-11.3-11.4-7.1-8.7z"  fill="#c2e1ff" /><path d="M276.1-2.2c-6.1 18.7-21.7 78.2-26.2 80.3-7.2 3.3-10-9.6-2.1-9.6 7.9 0 5 12.9-2.1 9.6-11.1-5.2 14.5-75.9 20.4-85.1 3.7-5.8 11.3-1.1 10 4.8z"  fill="#005bbb" /><path d="M282.8-385.8c13.5 42.2-0.9 87.8 17 129.3 16.8 39 53.1 63.8 79.3 95.8 34.5 42.2 42.6 94.8 35.3 147.7-1.2 8.6-3.2 44.5-12.5 47.7-9.5 3.3-8.6-14.1 0.5-9.9 9.1 4.1-3.5 16.2-7.2 6.9-3.9-9.5 7.6-34.9 9.3-45.5 5.1-31.2 5.8-63.9-3-94.5-18.5-64.3-84.2-93.5-109.8-152.8-15.2-35.2-8.2-71.8-12.8-108.6 0-0.4-1.1-28.9 3.9-16.1z"  fill="#c2e1ff" /><path d="M293.7 30c-3.3 8.4-9.8 44.8-17.3 47.9-7.6 3.1-9.9-10.3-1.7-9.9 8.2 0.4 4.6 13.5-2.6 9.7-8.3-4.3 6.7-48.9 12.4-54 4.8-4.2 10.5 1 9.2 6.3z"  fill="#c2e1ff" /><path d=""  fill="#fff" /><path d="M311.1 58.7c-1.7 5-3 22.3-11.6 19.6-6.9-2.2-2.9-12.8 3.8-10 5.6 2.5 2.9 11.3-3.2 10.1-8.8-1.8-1.9-21.7 1.8-25.3 4.4-4.3 10.2 0.4 9.2 5.6z"  fill="#fff" /><path d="M349.7-397.7c-5.4 56-44.1 103.3-15.1 159.8 19.3 37.5 54.3 64 72.7 102.1 4.3 8.9 27.8 72.1 14.3 76.5-6.4 2.1-7.5-9.1-0.8-8.2 7.8 1 1.2 13-3.8 6.9-7.3-8.8-4.8-42.2-8.3-54.7-17.5-60.9-82.2-96.2-93-159.1-5.4-31.8 5.7-61.8 15.6-91.5 2.2-6.6 5.4-35.7 12.6-37.2 3.6-0.8 5.9 2.2 5.8 5.4z"  fill="#fff" /><path d="M325.8-248.2c16.2 38.6 51.6 64.6 73 100 31.1 51.4 28.9 115.2 16.5 172-2.1 9.5-7.4 51.6-17.3 54.6-9.7 3.1-8.4-14.6 0.8-10.1 9.2 4.4-3.9 16.4-7.5 6.9-4.4-11.8 11.8-44.8 14.7-57.6 7.9-34.8 11.8-71.4 6.8-106.9-9.2-66.3-61.1-98.9-90.6-154.1-2-3.7 0.6-9.5 3.6-4.8z"  fill="#005bbb" /><path d="M333.6-222.2c15.2 20.2 34 37.4 49.6 57.3 42.8 54.3 44.1 123.3 29.3 188.3-2.2 9.6-8 52.1-17.8 55.2-9.7 3-8.4-14.6 0.8-10.2 9.2 4.5-4 16.4-7.6 6.8-4.5-11.9 12.3-45.4 15.3-58.1 8.2-34.7 12.3-71.3 7-106.8-8-53.2-42.2-85.6-75.1-124.8-0.7-0.9-6.5-12.6-1.5-7.7z"  fill="#c2e1ff" /><path d="M342.8-119.2c37.5 54.1 14.7 112.4-6.7 167.4-2.4 6.1-6.5 30.8-14.5 30.7-10.1-0.1-3.5-16.3 3.8-9.3 6.2 6-5.7 13.9-8.8 5.9-3.9-10 31.3-87.8 35.1-106.1 4-19.2 4.4-39.2-0.7-58.2-2.7-10.1-14.7-38.5-8.2-30.4z"  fill="#c2e1ff" /><path d="M353.3-75.6c8.7 41.2-8.3 79.8-23.2 117.3-2.3 5.7-10.5 43.1-20 35.9-5-3.8-0.2-11.8 5.5-9.2 5.7 2.6 2.7 11.5-3.4 10.1-12.6-2.7 22.1-78.1 25.6-88.5 7.1-21.3 9.6-87.2 15.5-65.6z"  fill="#fff500" /><path d=""  fill="#c2e1ff" /><path d="M372.5 57.8c-1.7 4.9-4.2 23.9-13 20.7-6-2.3-3.6-11.5 2.7-10.7 7.4 1.1 5.1 12.7-2.1 10.8-8.9-2.3-0.5-23.2 3.2-26.7 4.5-4.3 10.3 0.6 9.2 5.9z"  fill="#c2e1ff" /><path d="M380.4-49.8c-0.1 15-26.7 133.8-41.8 128.3-7-2.6-2.4-13.4 4.3-10 6.7 3.3 0.9 13.5-5.4 9.5-9.3-5.9 12.4-48.2 15.6-56.6 5.6-14.7 15.3-67.7 18.9-73.7 2.5-4.3 8.1-1.8 8.4 2.5z"  fill="#fff" /><path d=""  fill="#c2e1ff" /><path d="M396.1-215.1c7.8 19.8 19 38 27.1 57.6 22.9 55.2 20.8 119.6 13 177.8-1.6 12.1-3 49.9-12.9 57.5-6.8 5.2-12.8-7.6-4.5-9.5 7.1-1.6 9.1 9.7 1.8 10.6-12.7 1.5 0.3-31 1.5-36.4 8.3-39.1 11.1-79.8 9.8-119.7-1.8-51.5-21.2-89.6-41.1-135.7-1.5-3.5 3.5-5.4 5.3-2.2z"  fill="#005bbb" /><path d="M406.4-63.2c1.6 22.5-12.8 129.1-29.8 141.2-7.1 5.1-12.8-8.3-4.2-9.9 8.6-1.6 8.1 12.9-0.3 10.8-11-2.8 6.4-38.7 8.5-45.4 13.9-42.8 10-61.4 17.5-97.4 1-5 7.6-3.8 8.3 0.7z"  fill="#c2e1ff" /><path d="M415.4-47.9c-0.1 19.3-13.8 116.3-27.3 126-7.1 5.1-12.8-8.2-4.2-9.8 8.6-1.6 8.2 12.8-0.3 10.7-10.7-2.7 6.1-39.2 8.1-46.1 4.9-16.6 10.6-74.7 15.4-83.1 2.4-4.3 8-1.9 8.3 2.3z"  fill="#fff" /><path d=""  fill="#c2e1ff" /><path d="M431.6-144.9c17 53.2 13.9 114.6 6.6 169.4-1.1 8.5-4.6 53.9-15 54-8.5 0.1-5.6-13.7 2.1-10.3 9.1 4.1-3.3 16.2-7.1 7-2.1-5 13.6-78.3 14.5-92 2.9-41 3.6-83.5-6.7-123.7-1.2-4.5 3.1-10.6 5.6-4.4z"  fill="#fff" /><path d=""  fill="#fff" /><path d="M422.8-393.2c-36.5 37.4-89.2 81.9-75.6 140.7 16.8 72.4 78.8 87.8 82.6 190.7 0.2 6.1 4 32.4-3.9 34.1-6.1 1.3-7.7-8.4-1.4-9 6.2-0.7 6.7 9.2 0.4 9.2-8.9 0-3.8-21.7-3.7-26.7 0.3-25.2-2.2-50.6-10.3-74.6-20.1-59.2-88.5-103.5-71.9-172.3 7.8-32.3 46.6-86.1 74.8-103.5 7.6-4.7 13.9 5.1 9 11.4z"  fill="#c2e1ff" /><path d="M459.2-56.9c-1 30.1 4.2 108.8-10.6 132.9-4.4 7.1-14.3-2.6-7.4-7.1 8.2-5.4 11.6 11.3 2 9.5-9.4-1.7 2.3-40.5 3.1-48 1.9-18-2.3-77.5 4.5-89.6 2.4-4.3 8-1.9 8.4 2.3z"  fill="#fff" /><path d="M425.6-393.2c-37.9 37.7-92.8 82.8-77.1 143.2 16.6 64.1 72.2 90 80.3 170.7 0.4 4.4 5.3 25-3.2 24.7-6.9-0.2-4-11.3 2.1-8.2 6.1 3.1-1.1 11.9-5.4 6.6-3.8-4.8-7.8-63.8-13.1-78-21.1-56-84.7-98.8-69.8-164.9 7.5-33.5 48-88.2 77.3-105.6 7.7-4.6 13.9 5.3 8.9 11.5z"  fill="#005bbb" /><path d="M477.2-343.2c-27.8 24.3-66.1 47.3-72.7 86.7-6.9 41.1 22.4 80 32.2 118.5 12.3 48.3 10 101.3 5.1 150.5-1.3 13-1.4 54-12.2 62.5-6.6 5.3-12.8-7.4-4.5-9.3 8.2-2 8.5 12.1 0.2 10.4-10-2 1.9-32 3-38.3 6.3-34.2 8.1-69.3 8-104-0.1-95.5-56.9-163.9-35.4-216.7 7.7-19 50.2-69.2 69.7-73.5 8.2-1.9 11.6 7.9 6.6 13.2z"  fill="#fff" /><path d="M485.7-214.7c-5.1 59.7-12.5 120.4-14.6 180.3-0.9 25.6 5.5 89.9-6.6 110.6-4.2 7.1-14.2-2.2-7.4-6.9 7.9-5.5 11.7 10.8 2.1 9.4-6.2-1 2.6-74.3 2.6-84.9 0.2-29.5 8.4-190.5 14.8-210.2 1.8-5.4 8.8-3.3 9.1 1.7z"  fill="#fff500" /><path d="M495.2-317c-53.1 72.6-37.3 96.1-33.2 178.7 1.9 39.2-1.2 78.5-2.2 117.7-0.7 26.1 5 74-9.2 97-4.4 7.1-14.3-2.5-7.3-7.1 8.1-5.4 11.6 11.2 2 9.6-5.4-0.9 5.3-85.9 5.5-97.7 1.1-41.6 4.4-83.5 2.5-125.1-1.3-28.4-7.6-56.6-7.5-85.1 0.1-11 1.4-22 4.3-32.7 5.6-20.6 18.8-50.5 35.3-64.5 6.3-5.3 13.4 2.7 9.8 9.2z"  fill="#c2e1ff" /><path d="M503.8-109.5c-12 40.2-15.2 79.6-14.3 121.4 0.3 13.3 6.2 55.9-4.3 65.6-5.9 5.4-12.6-6.1-5-8.6 7.7-2.5 8.9 10.9 0.9 9.8-8.2-1-0.1-46.6 0-54.5 0-40.9-8.6-100.6 12.7-137.9 3.3-5.8 10.9-1.6 10 4.2z"  fill="#c2e1ff" /><path d="M466.4-392.9c-41.6 36.8-115.6 69.6-108.3 136.5 6.3 58 64.3 98.2 71.8 161 1 8.5-12.8 2.3-6.1-2.6 5.8-4.2 8.9 7.9 1.7 7-5.5-0.7-13.1-45.8-16.1-53.1-21.7-52.2-78.1-97-54.8-159 13.7-36.6 68.9-85.4 103.5-102.4 8.4-4.1 13.9 6.6 8.3 12.6z"  fill="#005bbb" /><path d=""  fill="#005bbb" /><path d="M530.1-68.3c-8.2 23.2-10.8 144.3-11.7 145.2-5.6 5.5-12.5-5.5-5.2-8.1 7.4-2.7 9.1 10.2 1.3 9.5-8.4-0.7-3.4-136.4 5.6-151.2 3.5-5.8 11.2-1.4 10 4.6z"  fill="#fff" /><path d=""  fill="#fff" /><path d=""  fill="#fff" /><path d="M556.6-130.3c-21.7 45.1-39.6 83.3-38.4 134.6 0.2 9 5.8 76.6-6.4 74.2-5.6-1.1-4.9-9.7 0.9-9.8 4.9-0.1 6.9 6.5 2.7 9.2-9.3 5.8-6.7-10.2-6.3-13.2 5.5-44.8-5.2-89.7 7.4-134 5.9-20.8 15.8-50.9 29.9-67.6 4.8-5.7 12.3 0.4 10.2 6.6z"  fill="#005bbb" /><path d="M564.2-254.1c2.2 102.2-48.2 137.4-56 220.8-1.2 12.4 3.6 113.9-7.6 111.5-6.6-1.4-3.9-11.7 2.5-9.6 7.5 2.5 0.9 13.8-4.9 8.3-5.5-5.1 1.6-37.4 1.5-45.8-1-112.5 8-101 43.5-200.2 10.8-30.2 5.8-57.3 12.4-85.9 1.2-5.1 7.9-3.7 8.6 0.9z"  fill="#fff" /><path d="M573.1-398c-0.6 38.2-1.3 193.6-7 218.1-12.6 54.3-49.4 98.2-53.1 155.2-0.8 12 6.3 46.2-0.3 55.4-4.6 6.5-12.1-5.2-4.3-6.7 6.7-1.3 6.4 10-0.2 8.4-7.6-1.9-4.3-34.6-4.4-41.1-1.2-77.4 40.6-116.5 54.7-185.3 12.3-59.7-9.4-150.5 5.8-205.3 1.5-5.3 8.3-3.5 8.8 1.3z"  fill="#fff500" /><path d="M581.7-225c2.1 76.7-51 123.7-59.2 194.7-1.4 12.2 3.2 110.8-7.5 108.7-6.6-1.3-4-11.5 2.4-9.6 7.5 2.3 1 13.6-4.7 8.4-5.7-5.2 1.1-35.1 1-43.1-1-101.8 6.5-97.8 44.7-187.3 10.5-24.5 8.7-48.1 14.8-72.8 1.3-5.2 8-3.6 8.5 1z"  fill="#005bbb" /><path d=""  fill="#fff" /><path d="M599.5 37.3c-0.4 6.4 1.5 42.5-8.4 40.8-6.5-1.1-4.2-11.2 2.2-9.4 6.3 1.8 2.9 11.6-3.2 9.1-6-2.5-2.1-38.3 0.8-43.2 2.7-4.4 8.3-1.7 8.6 2.7z"  fill="#c2e1ff" /><path d=""  fill="#fff" /><path d="M604-117.6c-18.2 42.7-42.2 76.5-43.7 124.7-0.3 8.9 3.7 73.1-7 71.3-12.4-2.1 5.7-17.3 5.6-4.7-0.1 8.8-10 3.2-9-5.7 4.6-40.9-2.8-82 10.3-121.9 4.5-13.7 24.4-63 34.7-70.9 5.2-4 10.8 1.8 9.1 7.2z"  fill="#fff" /><path d=""  fill="#fff" /><path d=""  fill="#fff" /><path d=""  fill="#005bbb" /><path d=""  fill="#fff" /><path d=""  fill="#c2e1ff" /><path d=""  fill="#005bbb" /><path d=""  fill="#fff500" /><path d=""  fill="#fff" /><path d=""  fill="#005bbb" /></svg>