<svg width="1200" height="675" viewBox="-500 -500 1200 675" xmlns="http://www.w3.org/2000/svg"><path d="M-500-500h1200v675h-1200z" fill="#000"/><path d=""  fill="#fff500" /><path d=""  fill="#005bbb" /><path d=""  fill="#fff500" /><path d=""  fill="#005bbb" /><path d=""  fill="#005bbb" /><path d=""  fill="#c2e1ff" /><path d=""  fill="#c2e1ff" /><path d=""  fill="#fff" /><path d=""  fill="#005bbb" /><path d="M-395.5-333.5c6.4 41.2 33 161.1 0.7 193.3-5.9 5.8-13.2-5.7-5.4-8.5 7.8-2.8 9.6 10.8 1.3 10-10.9-0.9 1.4-19.2 2.9-23.3 6.4-17.6 8.4-36.4 8.4-55.1 0-14.2-13.8-117.6-13.8-117.6 1.7-2.7 5.1-1.4 5.9 1.2z"  fill="#fff500" /><path d=""  fill="#005bbb" /><path d="M-395.5-272.3c1.6 11.6 12.9 98.7-3 99.5-6 0.3-6-9.2 0-8.8 6 0.3 5 9.7-1 8.8-8-1.3-0.5-21.6 0.1-26.6 2.5-24.2-0.3-48-2.6-72-0.4-4.3 5.5-4.9 6.5-0.9z"  fill="#fff" /><path d=""  fill="#fff500" /><path d=""  fill="#fff500" /><path d="M-391.7-145.8c-8.5 20.1-16.1-5.6-5.4-2.3 13 4-8.6 17.8-6.7 4.2 1.4-10 15.4-11.7 12.1-1.9z"  fill="#fff500" /><path d="M-384.4-154.3c-1.7 5.3-8.3 29.5-17.3 23.5-6.1-4.1 0.8-13.4 6.5-8.7 5.7 4.7-2.3 13.2-7.4 8-8.6-8.9 23.4-43.7 18.2-22.8z"  fill="#005bbb" /><path d="M-378.5-342.6c14.6 67.7 38.3 156.2-0.8 219.8-3.5 5.7-10.9 20.1-18.1 21.4-8.2 1.4-9.7-11.6-1.4-12.1 8.3-0.5 8.4 12.5 0.1 12.2-16.2-0.7 9.5-26.6 11.9-30.2 12.6-19.4 18.1-42 19.5-64.9 3.1-49.4-8.3-96.8-17.1-145-0.7-3.9 4.7-4.9 5.9-1.2z"  fill="#fff" /><path d="M-370-73.9c-5.9 5-25.1 24.8-33 18-7-6 3.1-16.6 9.4-9.9 7.4 7.9-8 17.1-11.5 6.9-5.6-16.8 55-35.6 35.1-15z"  fill="#fff" /><path d=""  fill="#fff" /><path d="M-355.3-5.6c-8 5.9-35.6 35.9-43.9 34.6-9.5-1.3-3.9-16.2 4.1-11 8 5.2-3.2 16.4-8.4 8.3-5.7-9 34.2-42.5 43.2-43.9 7.3-1.2 9.7 7.5 5 12z"  fill="#005bbb" /><path d="M-349.1-366.8c22.2 76.9 43.5 212.1-16.3 276-6.5 6.9-23.3 26.8-33.5 26.5-9.1-0.3-8-14.7 1.1-13.4 9.1 1.2 6.3 15.4-2.5 13.2-17.5-4.4 24-32.8 28.3-37.2 20.3-20.8 30.9-46.9 34.3-75.4 7.1-58.9 0.6-122.4-14.5-179.5-0.5-2.1-0.7-19.4 3.1-10.2z"  fill="#fff" /><path d="M-321.8-399.4c21 69.9 30.2 210.1 2.6 278.3-8.9 22.1-24.1 40.3-42.4 55.1-7 5.6-30.3 27.6-39.4 23.8-8.6-3.6-2.1-16.9 6.1-12.4 7 3.9 2.3 14.9-5.4 12.6-17.6-5.3 34.7-37.4 40.6-42.6 24.6-21.5 38.2-49.3 42.8-81.4 10.1-69.6 11.2-148.5-6.2-216.8-0.4-1.7-3.2-27 1.3-16.6z"  fill="#fff500" /><path d="M-332.5-98.6c-7 10.5-57 65.9-70.3 54-7-6.2 3.4-16.7 9.6-9.8 6.3 6.9-5.2 16.2-10.6 8.7-7.3-10 24-24.4 30.3-29.1 11.1-8.2 22.4-26.6 34-32.3 5.7-2.7 9.7 3.8 7 8.5z"  fill="#005bbb" /><path d="M-326.8-369.7c22.7 83.8 33.9 237-38.7 298.1-6.5 5.4-26.9 25.6-35.7 22-7.4-3-4-14.5 3.8-13 9.2 1.6 5.8 15.9-3.1 13.3-17.6-5.2 31.3-35.9 36.6-40.8 22.3-20.4 35.1-46.4 39.7-76 9.4-60.6 8.1-130.4-5.4-190.3-0.4-1.6-1.3-23.8 2.8-13.3z"  fill="#fff" /><path d="M-318.5-208.9c-0.8 56.1-12.2 104.4-58.2 140.4-5.1 4-15.1 14.3-21.9 14-9.3-0.5-7.6-15.1 1.5-13.6 10.7 1.8 4 18.5-5 12.4-14.7-10 37.2-28.8 58.7-68.1 15.1-27.5 11.9-76.4 17.9-87 2-3.6 6.7-1.7 7 1.9z"  fill="#c2e1ff" /><path d="M-311-230.9c-1.2 65.1-5.4 124.1-61.1 166.6-5.8 4.4-21 19.4-28.7 16.2-10.1-4.2 0.3-19 7.7-11 8.6 9.4-12.1 17.3-12 4.6 0.1-6.1 42.3-21.5 67.1-64.7 24.4-42.5 9.2-74.1 19.5-112.8 1.2-4.4 7-3 7.5 1.1z"  fill="#c2e1ff" /><path d="M-303.1-139.9c-8.3 37.8-31.3 66.1-62.4 88.2-6.6 4.7-29.9 25.6-37.6 18.7-8.2-7.2 6.5-17.9 10.9-7.9 4.4 10-13.4 13.5-13.2 2.6 0.2-11.2 41.6-30.8 50.6-38.2 33.9-27.9 31.5-53.5 44.1-67.5 3.3-3.7 8.2-0.1 7.6 4.1z"  fill="#005bbb" /><path d="M-295.5-55c-20.9 25.3-49.4 42.2-74.7 62.5-5.2 4.2-28 31.9-33.6 21-3.2-6.2 5.5-11.9 9.9-6.5 5.2 6.2-5.1 13.8-9.6 7.1-6.5-9.9 26.5-32.9 33-38.1 11.6-9.1 59.8-52.3 68.4-55.6 6.2-2.3 9.8 4.8 6.6 9.6z"  fill="#005bbb" /><path d="M-288.1 59.5c-1.6 4.3-3.1 20.5-10.2 18.3-5.8-1.7-2.6-10.7 2.9-8.3 4.7 2 2.6 9.4-2.5 8.4-7.7-1.4-1.2-20.3 2-23.3 3.8-3.7 8.7 0.4 7.8 4.9z"  fill="#005bbb" /><path d="M-280.5 18c-10.9 16.4-30.6 59.7-31.5 60-6.8 2.3-8.1-9.5-1-8.8 7.1 0.7 3.4 12.1-2.8 8.4-9.6-5.7 19.3-62.6 27.9-67.4 5.3-3 9.7 3.1 7.4 7.8z"  fill="#fff" /><path d="M-273.1 31.3c-4.1 7.7-13.5 44-20 46.5-6.5 2.5-8.3-9-1.3-8.5 7 0.5 3.7 11.6-2.4 8.3-7.5-4.1 9.8-52.6 18.3-53.8 4.5-0.6 6.7 3.8 5.4 7.5z"  fill="#fff" /><path d="M-266.3-204.5c-12.5 102-10.9 130-100.7 191.7-6.5 4.4-27.9 25.9-35.2 20.9-9.9-6.7 7.3-18.4 9.9-6.7 2.2 10-14.7 10-12.6 0 2.6-11.9 85.4-63.2 100.7-84.1 26.6-36.4 23.8-80.3 29.8-122.8 0.8-5.3 8-4.2 8.1 1z"  fill="#c2e1ff" /><path d="M-258.6 64c-0.9 3.4-1.7 17.6-8.8 13.2-4.2-2.6-1-9.3 3.7-7.6 5.4 1.9 1.9 10.4-3.3 7.8-13.4-6.5 9.9-27.9 8.4-13.4z"  fill="#fff500" /><path d="M-251.3 64.9c-0.8 3.3-1.6 16.2-8.3 12-4.9-3 0.3-10.5 4.8-7 3.9 3 0 9.3-4.4 7.2-12.7-6.1 9.2-26.3 7.9-12.2z"  fill="#005bbb" /><path d="M-243.5 10.2c-12.3 25.2-22.2 64.9-26.7 66.9-6.3 2.7-8.4-8.4-1.5-8.3 6.8 0.2 4.1 11.2-2.1 8.2-10.4-5.2 15.6-64.9 21.7-72.3 4-4.8 10.4 0.2 8.6 5.5z"  fill="#c2e1ff" /><path d="M-227.7-398.5c4.1 73-27.8 139.9-34.9 211.7-5.1 52.1-8.1 101.3-47.9 140.1-3.8 3.7-10.4 12.7-16.6 10.9-11.6-3.4 1.3-20 7.4-9.5 5.2 8.9-11.1 14.2-12.1 3.9-0.8-8.4 20.9-22.1 26.3-28.4 15.1-17.6 24.2-38.6 28.6-61.1 6.1-30.9 5.8-62.7 11-93.8 8.9-53.1 30.2-103.5 31.2-157.9 0.1-4.7-1.8-13 0.2-17.3 1.7-3.6 6.2-2 6.8 1.4z"  fill="#c2e1ff" /><path d="M-229.3-104.6c-4.4 56-36.7 93.6-64.5 139.7-5.8 9.6-11.8 36.1-19.8 42.1-6.7 5.1-10.6-9.1-2.2-8.1 7.2 0.8 3.3 12.1-2.8 8.4-17.2-10.4 50.5-100.3 57.8-112.8 11.5-19.6 19.5-64.9 24.1-71.9 2.4-3.7 7.3-1.2 7.4 2.6z"  fill="#fff" /><path d="M-221.4-253.5c-20.1 59.3-9.6 121.3-28.9 178.1-15.5 45.9-53.7 74.8-82.2 111.9-4.7 6.1-22.4 43.4-28.1 41-8.2-3.4 2.5-14.4 6.1-6.3 3.1 6.9-9.2 9.4-9 1.9 0.5-42.2 78.9-99.8 98.8-139.8 23-46 14-98.9 23.3-148 2.4-12.8 4.5-31.6 11.5-42.8 3.1-4.9 9.5-1.1 8.5 4z"  fill="#fff500" /><path d=""  fill="#fff500" /><path d="M-206.7-310.7c-10.6 37.4-26.6 72.8-32.6 111.5-6.8 43.6-1.3 89.5-19.4 130.9-19.2 44-59.8 70.2-88.7 106.8-4.6 5.8-21.4 41.6-27.3 39-8.2-3.4 2.6-14.4 6.2-6.3 3.5 8-11.7 8.8-8.9 0.3 20.9-61.1 84.3-89.8 110.8-147 22.3-48.1 12.5-104.4 24.7-155.2 6.2-25.6 13.4-60.9 26.8-83.6 2.9-4.9 9.3-1.3 8.4 3.6z"  fill="#c2e1ff" /><path d="M-199.3-305.6c-11 37.3-27.5 72.4-33 111.2-6.2 42.6-0.2 86.8-15.3 127.9-15.7 42.6-50.8 71.6-75.4 108.4-3.8 5.8-16.4 38.3-23 35.8-6.9-2.7-0.1-13 5.1-7.6 6 6.3-8 12-8 3.3-0.2-41.5 74.7-101.6 92.1-143.4 20.5-49.1 9.6-104.7 21.7-155.9 6.1-25.6 13.7-61 27.4-83.5 2.9-4.9 9.3-1.2 8.4 3.8z"  fill="#c2e1ff" /><path d="M-191.8-8.6c-3 9.8-25.8 87.2-30.9 86-5.7-1.4-3-10.2 2.5-8.2 5.5 2 1.9 10.4-3.4 7.8-9.8-4.8 17.6-80.3 23.3-89.5 3-4.9 9.4-1.1 8.5 3.9z"  fill="#fff500" /><path d="M-185.5-101.3c5.2 50-9.4 91.7-24.8 138.4-2.1 6.2-8.2 42.1-15.2 40.4-6.6-1.6-1.7-11.7 3.6-7.5 5.3 4.2-3.4 11.3-6.4 5.3-5.1-10.1 23-80.5 27.5-95.3 6-19.9 6.7-77.2 8.8-82.3 1.5-3.5 5.9-2.2 6.5 1z"  fill="#fff500" /><path d="M-177.1-293.8c-8.7 33.2-23.3 64.5-28.2 98.8-6.1 42.7 4.4 85.4-1 128-4.9 39-24.2 72.6-37 109.1-2 5.7-7 37.3-14 35.7-6.5-1.5-1.8-11.6 3.5-7.4 5.3 4.1-3.3 11.3-6.3 5.3-6.9-13.2 37.9-108.9 43-130.9 12-51-3.5-103.2 5.6-154.5 4.7-26.8 12.6-63.8 26.1-87.5 2.7-4.8 9.1-1.4 8.3 3.4z"  fill="#fff500" /><path d=""  fill="#005bbb" /><path d="M-162.5-34.3c-1.8 12.5-29.9 114.4-38.2 112-4.9-1.5-3.6-9.1 1.6-8.7 6 0.4 4.8 9.9-1.2 8.8-9.5-1.7 3.9-32.7 5.8-38.1 4.1-12.2 19.9-71.3 24.5-77.3 2.9-3.7 7.7-0.7 7.5 3.3z"  fill="#005bbb" /><path d="M-155.1-291.4c-5.3 39.6-20.2 77.2-18.6 117.8 1.8 44.2 19.4 86.2 15.1 130.9-3.8 39.8-22.9 75.5-33.1 113.8-3 11.1-12.8 4.9-8.8-0.2 6.1-7.6 12.3 9 2.7 7.2-8.9-1.7 1.5-24.4 2.9-29.1 10.3-32.9 25.7-64.4 28.9-99.1 4.8-51-18.3-99.5-14.8-150.7 1.9-28.1 6.8-66.8 17.7-92.8 2-4.7 8.1-2.3 8 2.2z"  fill="#005bbb" /><path d=""  fill="#fff" /><path d="M-141.1-74.3c4 33.7-25.1 142-38.2 151.6-5.9 4.3-10.8-6.9-3.7-8.3 7.2-1.4 6.9 10.8-0.1 9-10.4-2.5 22.7-75.1 26-84.8 4-11.8 11.4-89.8 16-67.5z"  fill="#fff" /><path d="M-133.8-190.5c14.8 114.3 70.4 110.4 0.9 235.5-3.3 6-13.6 34.7-21 33.6-6.7-1-4.6-11.5 2-9.8 5.6 1.4 4.4 10.1-1.5 9.8-11.8-0.4 2.9-22.9 4.8-26.7 16.4-32.2 39-63 42.6-100 4.3-44.6-20.8-83.9-31-125.8-0.9-3.5-6.2-16.3-1.6-18.9 2.1-1.2 4.2 0.2 4.8 2.3z"  fill="#c2e1ff" /><path d="M-126.2-222.3c3.2 55.5 36.9 99.8 44.6 153.5 6.6 46.6-19 83.2-42.3 120.7-3.3 5.3-13 30.8-20.9 26.3-5.2-3-1.6-11.2 4.1-9.4 5.7 1.8 4 10.6-2 10-12-1 3.9-22.9 6.1-26.6 19.1-33 45.7-64.2 48.5-103.9 3.3-46.7-26.8-87.2-38.4-130.8-3-11.4-8.5-28.2-6.6-40.1 0.7-4.2 6.2-3.4 6.9 0.3z"  fill="#005bbb" /><path d="M-119.7-323.8c14.1 42.1 21.1 86.8 39 127.6 44.1 101 109.1 138.3 12.2 241.5-5.6 6-27.1 36.7-34.7 33.7-6.2-2.5-3.6-12.1 3-11.1 6.6 1.1 6.1 11-0.6 11.4-16.9 1 9.3-26.9 12-29.8 30.3-34 67.7-66.9 63-117-4.1-45.1-37-81.4-56.3-120.6-18.6-37.8-25.9-79.1-38-119.1-0.5-1.8-4.2-26.4 0.4-16.6z"  fill="#c2e1ff" /><path d="M-110.2 7.3c-4.3 9.1-36.2 74.4-43.4 70.6-6.1-3.1-0.6-12.4 5-8.6 5.7 3.8-0.7 12.4-6 8-7.7-6.4 29.1-67.9 35.9-75.7 4.1-4.8 10.4 0.4 8.5 5.7z"  fill="#005bbb" /><path d="M-104.5-234.7c22.2 107.5 118.3 163.5 27.4 271.3-6.2 7.3-27.9 42.3-36.6 42.3-10.4 0-3.7-16.8 3.8-9.6 8.9 8.4-12.5 14.4-9.2 2.6 10.3-37.2 69.6-62.7 75.2-122.2 4.9-52.4-35.9-95.8-54-141.8-4.7-11.9-12.8-29-12.5-42 0.1-3.7 4.9-3.7 5.9-0.6z"  fill="#c2e1ff" /><path d=""  fill="#fff" /><path d="M-88 28.4c-6.2 8.4-29.1 49.9-38.5 50.5-8.5 0.5-6.3-13.5 1.7-10.4 8 3.1 0.1 14.9-5.9 8.8-6.3-6.5 28.5-56.1 36.9-57.9 5.5-1.2 8.2 4.8 5.8 9z"  fill="#005bbb" /><path d="M17-399.5c20.8 20.6 37.8 44.5 48.8 71.6 20.6 51 22.2 108.6 34 162 2.1 9.3 20 75.1 10.2 78.4-6.3 2.1-5.6-9.4 0.4-6.6 5.1 2.4-0.6 9.8-4.2 5.5-6.4-7.6-4.6-39-6.7-49.6-9.4-48.6-17.5-97.4-27-146-7.9-40-23.8-76.5-51.2-107.1-0.1-0.1-8.5-11.7-4.3-8.2z"  fill="#005bbb" /><path d="M-73.3 60.2c-4.3 4.4-16.2 24-23.5 17.4-5.9-5.3 3-14.2 8.3-8.3 4.5 5.1-2.3 12.6-7.8 8.7-8.2-5.9 10.9-25.8 16.5-27.8 6.4-2.2 9.9 5.2 6.5 10z"  fill="#fff500" /><path d="M-68.6-268c50.5 87.7 158.7 198.1 75 298.4-9.5 11.3-37 47.3-51.9 49.3-13.5 1.7-3.6-20.9 4.3-9.8 6.7 9.4-12.9 14.1-11.2 2.8 1.7-11.5 27.8-27.9 36-35.9 27.8-26.8 48.9-59.6 47.6-99.5-2.2-70.8-63.2-134.1-97.2-192.6-0.7-1.2-7.6-19.3-2.6-12.7z"  fill="#c2e1ff" /><path d="M-61.2-174c46.9 81.5 84.5 133.4 7.2 213.9-6.7 7-31 40.3-40.1 39.6-10.8-0.9-2.4-17.8 4.8-9.7 7.3 8.1-10.5 14.6-10.1 3.7 0.3-11.9 74.9-75.5 82.2-115.6 8.9-48.1-23-89.1-46.3-127.9-1.5-2.5-0.5-7.6 2.3-4z"  fill="#fff500" /><path d="M-52.5-75.5c11.9 53.5-22.2 92.2-51.9 131.9-4 5.4-10.4 19.8-16.6 22.1-8.1 3.1-10.2-11.1-1.6-10.5 8.6 0.6 4.6 14.4-3 10.2-10.2-5.6 48.9-77.2 54.9-88.1 12.1-22.2 13.4-82 18.2-65.6z"  fill="#c2e1ff" /><path d="M-44.2-47.6c-1.6 38.1-26.4 67.4-49.2 95.7-4.6 5.7-21.5 35.6-29.2 30.1-5.2-3.7-0.5-12 5.4-9.5 6.9 3 1.6 13.5-4.9 9.8-10.6-6 21-39.7 25.9-45.7 39.4-48.6 35.8-69.5 44.7-83 2.4-3.7 7.2-1.2 7.3 2.6z"  fill="#fff" /><path d="M-40.4-347.5c21.9 15.5 43.3 31.6 59.4 53.4 33.2 45 70.9 160.9 74.7 216.9 1.9 28.8-2.6 57.6-12.9 84.5-4.8 12.7-19.1 53.2-33.2 57.5-12 3.6-6.4-18.4 2.4-9.5 7.5 7.5-9.5 14.8-9.8 4.2-0.1-5.5 26-42.9 30.2-52.7 17.9-41.5 20.1-86 9.5-129.7-14-57.5-32.9-130-69.6-177.3-13.8-17.8-31.3-31.8-49.5-44.9-0.7-0.5-1.9-2.9-1.2-2.4z"  fill="#c2e1ff" /><path d="M-31.7-221c28.9 45.2 66.5 91.4 75.6 145.6 9.5 56-19.8 100.4-59 137.1-4.8 4.5-17.5 21.6-25 17.3-6.3-3.6-1.9-13.5 5.1-11.4 6.9 2.2 4.7 12.8-2.5 12.2-18.2-1.7 26.5-39.2 30.7-43.5 25.7-25.7 44.8-57.1 45.2-94.3 0.7-58.7-40.1-109.5-70.3-156.4-0.8-1.3-3.9-11.6 0.2-6.6z"  fill="#005bbb" /><path d="M45.7-399.3c47 71.9 43.9 158.2 60.6 239.6 2.4 11.6 21.4 99.4 6.3 102.1-6.2 1.2-5.9-9.4 0.3-7.8 6.2 1.6 1.4 11-3.5 7-5.2-4.2-0.1-33.3-0.5-40.4-2.8-54.6-18.8-108.7-25.1-163.2-5.1-44.8-13.9-88.2-36.7-127.6-0.3-0.5-6.2-15.6-1.4-9.7z"  fill="#c2e1ff" /><path d="M-14.1 30.1c-6.7 7.5-50 55.7-57.6 47.8-5.7-6 4.3-14.5 9.3-7.9 5 6.6-5.8 13.9-10.1 6.8-4.6-7.6 43-53.4 52-56.5 6.3-2.2 9.9 5.2 6.4 9.8z"  fill="#fff" /><path d="M-9.1-113c32 63.2 8.4 116.6-39.3 162.8-6.9 6.7-21.9 27.8-30.9 29.6-8 1.6-9.8-11.1-1.7-11.8 9.5-0.9 7.5 14.8-1.5 11.6-12.3-4.4 7.4-20.6 10.9-24.2 22.9-23.4 49.8-44.5 63.1-75.3 7.8-18.1 9.9-37.9 6.4-57.2-2.2-11.8-13.3-45.6-7-35.5z"  fill="#005bbb" /><path d="M57.8-399.6c39.5 75.9 36.1 163.4 52.1 245.7 2.2 11.3 18.8 95.1 4.3 97.6-6.3 1.1-5.8-9.5 0.4-7.9 6.2 1.7 1.3 11.1-3.6 7-4.9-4.1 0.2-32.1 0-39.2-1.8-53.7-17.8-106.5-23-160-4.4-46-10.7-90.9-30.3-133.2-0.4-0.9-4.6-17.2 0.1-10z"  fill="#fff" /><path d="M5.4-166c45.6 72.6 59.8 148.5-5.5 214.6-6.2 6.3-27.4 32.7-36.4 30.9-11.4-2.3-0.3-19.2 6.4-9.7 6.6 9.5-13 14.1-11.3 2.6 0.8-5.6 68.3-62.5 78.1-106.3 9.8-43.6-8.2-85.6-30-122.4-0.4-0.7-6.1-15.7-1.3-9.7z"  fill="#005bbb" /><path d=""  fill="#c2e1ff" /><path d="M23 42.9c-5.5 6.6-35 44-43.1 35-5.6-6.3 4.8-14.6 9.7-7.8 4.9 6.9-6.4 14-10.5 6.7-3.8-6.8 30-40.6 37.3-43.4 6.2-2.4 9.9 4.8 6.6 9.5z"  fill="#005bbb" /><path d="M27.9-244c45.1 89 86.4 194.6 26.9 286.6-4.8 7.4-22 37.8-31.6 36.8-6.9-0.7-6.9-11 0-11.7 8-0.9 8.8 11.8 0.7 11.8-16.6 0.1 18.2-38.1 21.6-43.1 20.6-30 33.1-65.1 33.4-101.6 0.5-57.9-27.5-117.1-51.2-168.8-0.5-1-4.5-17.3 0.2-10z"  fill="#fff" /><path d="M36.2-89.7c17.1 60.2-11.9 109.5-55 149.4-5.4 5-15.7 19-23.1 19.9-8.4 1.1-9.3-12.3-0.9-12.4 9.9-0.2 6.6 15.9-2.4 11.9-11.7-5.2 6.8-18.5 10.4-21.8 20.8-19.4 42.7-38.4 55.9-64.2 8-15.4 12.5-32.5 12.9-49.9 0.2-10.9-3.6-21.6-3.6-32.2 0-3.6 4.6-3.6 5.8-0.7z"  fill="#fff" /><path d="M42.8-292c15.5 29.7 22.5 63.2 31.3 95.3 23 82.9 41.8 157.6-2 238-4.1 7.5-18 38.2-27.4 38-10.6-0.2-3.4-17.1 4.1-9.7 7.5 7.4-9.3 14.8-9.7 4.2-0.4-11.6 22.7-35.4 28.5-46.4 16.9-32.2 26.6-68.4 26-104.8-0.9-55.6-28.9-149.3-50-201.4-0.3-0.6-5.9-20.9-0.8-13.2z"  fill="#fff" /><path d=""  fill="#fff" /><path d="M57.5-371c27.7 50.6 29.6 107.1 38.4 162.8 14.3 90.3 33.5 154.6-6.2 243.3-3.4 7.7-14.6 39.5-23.8 40.1-10 0.6-4.6-16 3.1-9.5 7.7 6.5-7.7 14.8-8.8 4.7-1.4-11.9 20.7-39.7 25.7-51.6 15.5-36.7 24.2-76.5 22.1-116.5-1.9-38.3-32.4-218-45.3-251-9.6-24.6-8.1-26.5-5.2-22.3z"  fill="#c2e1ff" /><path d="M65.6-288.8c9.8 30.8 14 63.1 21.1 94.5 18.7 83.2 33.5 155.6-7.1 235.7-3.7 7.4-15.9 37.6-25.2 37.8-10.3 0.2-4-16.6 3.7-9.7 7.6 7-8.6 14.8-9.3 4.5-0.8-11.4 20.7-35.4 26.1-46.3 15-30.7 24.6-64.4 25.9-98.7 2-53.1-24.3-157.4-39-211-0.8-2.9 0.6-14.3 3.8-6.8z"  fill="#c2e1ff" /><path d=""  fill="#c2e1ff" /><path d="M81.2-75.2c6.7 69.5-48.8 162.6-66.5 154.1-10-4.8 4.2-18 8.2-7.5 3.4 8.9-12.2 11.2-11.6 1.7 0.4-6.4 37.3-48.5 43.5-60.1 8.7-16.4 14.8-34.3 17.8-52.7 1.6-10.2-1.9-27.9 2-36.7 1.6-3.5 6-2.1 6.6 1.2z"  fill="#005bbb" /><path d="M88.1-117.6c14.9 61.9 2.5 123.3-33.3 175.7-3.7 5.4-10.5 19.4-17.1 21.2-8.9 2.4-9.6-12.8-0.5-11.3 7.8 1.3 5.1 13.4-2.6 11.3-12.4-3.5 8-23.6 10.9-27.7 14.7-20.7 26.7-43.1 33.9-67.5 9.6-32.4 2.3-100.9 3.2-102.6 1.4-2.6 4.7-1.6 5.5 0.9z"  fill="#005bbb" /><path d="M97.1 9.7c-3.6 10.2-26.3 72.9-39.1 69.1-7.1-2.1-3.2-13.2 3.7-10.3 6.9 2.9 1.8 13.4-4.8 9.9-8.9-4.9 9-25.8 12-31 6.2-11.1 11.4-34.8 20.5-43 4-3.6 8.8 0.8 7.7 5.3z"  fill="#fff" /><path d="M103.4-240.3c7.8 109 38 173.8-10.6 282.2-3.2 7.1-12.7 35.9-21.2 36.6-7.2 0.6-7.6-10.8-0.4-10.6 7.2 0.1 6.4 11.5-0.8 10.6-12.3-1.6 7.9-30 10.3-34.8 16-32.8 27.9-68.2 32.5-104.5 7.7-60.9-13.5-118.7-16.6-178.9-0.2-4.6 6-4.8 6.8-0.6z"  fill="#005bbb" /><path d="M111.9 29.7c-2.7 7.1-16.9 53.1-26.2 48.1-6.1-3.3-0.5-12.6 5.3-8.7 5.7 3.9-0.9 12.6-6.2 8.1-4.7-4 14.7-50.6 20.4-53.5 4.2-2.2 7.8 2 6.7 6z"  fill="#005bbb" /><path d="M118.9-51.4c-2.7 21.2-29.6 122.1-47.5 129.8-7.8 3.4-10.5-10.5-2-10.2 8.5 0.2 5.1 13.9-2.5 10.1-9-4.5 10.8-31.4 13.7-37.3 14.6-30.1 23.5-61 30.1-93.6 1.1-5.4 8.4-4 8.2 1.2z"  fill="#fff" /><path d="M125.4-171.5c11.1 77.5 4.9 146-26.3 218.6-2.6 6.1-10.8 33.2-19.1 31.6-9.5-1.9-0.4-16 5.2-8.1 4.8 6.7-7.8 12.1-9.3 3.9-1.1-5.7 23.1-32.5 41.8-113.6 6.5-28.3 9-57 6.9-85.9-0.9-12-9.3-36.1-5.4-47.1 1.2-3.4 5.5-2.4 6.2 0.6z"  fill="#fff" /><path d="M133.1-128.3c5.3 55.9-6.9 110.4-27.3 162.3-2.9 7.4-14.8 46-24 44.3-9.4-1.8-0.5-15.9 5.1-8.1 4.8 6.6-7.7 12.1-9.2 4-1.1-5.7 30.6-74.7 34.6-88 7.7-25.5 13.2-51.8 14.5-78.4 0.4-8-4.4-31.9 0.1-37.9 2-2.7 5.6-1.1 6.2 1.8z"  fill="#005bbb" /><path d="M141-87.7c-1.7 24.7-31.3 155.9-49.9 165.7-7.1 3.8-10.7-9.1-2.6-9.5 8.1-0.4 5.9 12.8-1.6 9.8-8.8-3.5 12.5-41.5 15.2-48.5 11-28 20.3-56.8 26.3-86.4 2.1-10.3 1.6-22.9 4.9-32.7 1.6-4.6 7.6-2.7 7.7 1.6z"  fill="#fff" /><path d="M147.9-211.3c7.9 111.9 10.2 143.6-30.1 251.6-2.5 6.6-10.7 39.2-19.1 38.2-7.8-1-3.5-13.3 3.3-9.2 7.8 4.9-5.1 14.4-7.4 5.5-3.4-13.1 28.8-64.4 45.6-136.9 15.6-66.8-4.5-116.4 0.8-149.5 0.7-4.2 6.1-3.4 6.9 0.3z"  fill="#fff500" /><path d="M156.3 70.4c-1 3.3-5.3 12.6-9.7 5.6-2.9-4.5 3.4-9.6 7.1-5.8 3.8 3.8-1.2 10.1-5.7 7.2-10.8-6.9 10.7-20.4 8.3-7z"  fill="#005bbb" /><path d="M175.3-399c7.3 50.3 2.6 100.2 5.7 150.6 5.8 91.7 24.6 121-12.5 213.3-3.5 8.6-14.7 7.6-10.7 0 5.1-9.5 15.1 7.3 4.4 7.3-11.6-0.1 3-25.4 4.6-29.7 11.7-30.1 20.4-60.8 19.3-93.4-1.2-34.9-10.3-69-12.5-103.8-2.9-46.1 1.8-92-4.1-138-0.5-4 3.5-14.8 5.8-6.3z"  fill="#fff" /><path d=""  fill="#fff500" /><path d="M178.7-38.9c-16.9 37.4-30.5 75.3-44.6 113.8-0.9 2.5-3.6 3.9-6.2 2.9-5.1-2-3-9.9 2.4-9 6.3 1 4.3 10.8-1.9 9.2-9-2.4 32.9-111 41.7-122.1 3.8-4.9 10.2 0 8.6 5.2z"  fill="#fff" /><path d="M186.1-2.5c-5.2 9.4-33.5 82.2-38.2 80.5-5.9-2.2-2-11.3 3.6-8.5 5.7 2.8 0.8 11.5-4.5 8-9.5-6 23.2-77.9 30.6-86 4.3-4.8 10.7 0.7 8.5 6z"  fill="#005bbb" /><path d="M193.5 29.4c-4.4 8.1-14.7 46-22.2 48.2-7.1 2.1-8-10.2-0.6-9.1 7.3 1.1 3 12.6-3.3 8.6-6.8-4.5 12.8-54.2 20.8-55.3 4.5-0.6 6.7 3.9 5.3 7.6z"  fill="#c2e1ff" /><path d="M234.2-399.7c53 76.8 166 222.9 110.1 318.6-3.8 6.5-15.8 28.9-24.8 27.4-7.1-1.2-6.4-11.9 0.7-12.3 7.2-0.3 8.8 10.3 1.9 12.2-25.1 6.7 20.6-46.5 22-50 12.4-28.8 9.9-60.5 0.8-89.9-22.4-71.3-65.1-136.7-108.4-196.7-0.6-0.8-7-14.6-2.3-9.3z"  fill="#c2e1ff" /><path d=""  fill="#005bbb" /><path d="M215.8 60.2c-2.3 4.4-6 21.1-13.5 17.7-6-2.8-1.2-12 4.5-8.7 4.9 2.9 1.3 10.6-4 8.9-8-2.7 1.4-21.3 5.2-24.3 4.6-3.4 9.3 1.7 7.8 6.4z"  fill="#fff" /><path d="M223.1-36.5c-17.6 22.5-33.4 45.9-45.1 72.1-4.1 9.1-8.8 36.1-16.3 41.6-6 4.3-10.8-6.9-3.6-8.4 8.5-1.6 5.7 13.1-1.6 8.5-16.2-10.3 45.9-111.9 58.4-121.8 5.6-4.4 11.4 2.7 8.2 8z"  fill="#fff" /><path d="M230.6-71.2c-23.4 40.9-51.1 77-67.6 121.7-2.1 5.7-5.7 28-12.8 27.8-6.3-0.2-5.5-10.1 0.7-9.2 7.3 1 3.1 12.5-3.1 8.5-7.3-4.6 8.3-36.5 10.9-43.2 12.9-33.3 38.3-86.9 63.4-112.2 4.6-4.7 10.9 1.2 8.5 6.6z"  fill="#005bbb" /><path d=""  fill="#005bbb" /><path d=""  fill="#fff" /><path d=""  fill="#fff500" /><path d="M258.2-189.8c8.4 26.2 12.1 53.8 4.4 80.7-13.8 47.9-55.3 83-77.9 126.6-4.1 7.9-23 62.4-29.2 60.2-8.1-3 1.9-14.1 5.8-6.4 3.3 6.6-8.6 9.6-8.8 2.2-1.3-46.1 69.4-124.7 91.7-164.8 10.1-18.1 15.9-38.1 15.3-59-0.4-13.2-6.1-25.8-6.7-38.6-0.2-3.4 4.2-3.7 5.4-0.9z"  fill="#005bbb" /><path d="M267.5 43c-5.8 6.2-20.5 34.8-27.4 35.6-8.1 1-6.9-12.5 0.9-10.1 7.8 2.5 1 14.3-5 8.8-6.8-6.2 19.5-47.5 29-43.9 4.2 1.6 4.7 6.3 2.5 9.6z"  fill="#c2e1ff" /><path d="M347.6-399.4c16.3 33.4 55.1 201.3 59.8 241.8 1.6 13.9 4.3 85.6-16.8 88-8.3 1-6.9-12.8 1.1-10.2 9.3 3.1-1.6 16.1-6.3 7.5-3.4-6.3 10.2-28.1 12-35.5 5.8-23.7 4.4-48.4 0-72.2-7.6-41.3-35.4-167.2-48.2-203-0.4-1-6.7-24.7-1.6-16.4z"  fill="#005bbb" /><path d="M281.2-154.2c8.7 72.8-58 115.8-89.8 172.9-5.2 9.4-18.6 56.6-26.8 59.1-7.1 2.2-8-10.1-0.7-9.1 7.3 1 3.1 12.5-3.1 8.5-12.1-7.8 27.4-74.9 33.5-84.4 17.2-26.6 39.9-48.7 57.9-74.6 8.6-12.4 15.7-26 19.4-40.7 2.4-9.6-0.7-24.4 3-32.9 1.5-3.5 5.9-2.1 6.6 1.2z"  fill="#fff500" /><path d="M287.1-262c21.8 41.9 49.4 88 42.4 137.1-9.3 65.2-75.1 94.5-111.3 142.7-9.9 13.2-28.9 59.2-33.3 60.5-6.2 1.7-8.4-8.2-2.1-9.3 7.4-1.2 6.7 11.2-0.5 9.2-9.4-2.6 4.1-26 6.3-30.9 29.8-66.9 104.4-97.3 128-158.1 18.9-48.8-7-98.4-29.2-141.3-0.6-1.1-5-16.8-0.3-9.9z"  fill="#fff" /><path d="M355.3-399.5c17.5 43.7 20.2 91.8 30.5 137.4 14.3 63.4 47.2 142.5 4.5 202.5-5.2 7.3-15-3.2-7.6-7.8 7.5-4.7 12.4 9.2 3.6 10.3-14.5 1.8 7.8-32.4 9.5-37.1 9.5-26.1 9.1-54.3 4.5-81.4-5.6-33.3-16.2-65.5-23.3-98.4-8-37.2-11.3-75.7-22.6-112.1-0.3-0.9-3.9-22.5 0.9-13.4z"  fill="#fff" /><path d="M301.9-262c31.8 60.1 65.4 129.9 18.1 191.9-30.2 39.5-76.7 62-104.5 104-4.2 6.4-20.2 46.5-26.9 43.8-5.1-2.1-2.8-10.1 2.7-9.1 6.4 1.2 4 11.1-2.2 9.2-9.1-2.7 3.6-24 5.7-28.4 31.4-68.2 108.8-94.6 134.5-156.8 20.5-49.4-4.4-100.8-27.1-144.7-0.6-1.1-5-16.8-0.3-9.9z"  fill="#c2e1ff" /><path d="M311.5 20.1c-14.4 11.1-28.2 23.3-39.5 37.6-3.8 4.8-10.3 20.3-16.4 20.9-8.3 0.8-6.6-13 1.2-10.2 7.9 2.8 0.5 14.6-5.4 8.7-11.4-11.1 42.7-63.3 53.3-68.1 7.3-3.4 11.8 6 6.8 11.1z"  fill="#fff500" /><path d="M361.8-399c14.7 44.7 16.5 92.4 26.5 138.2 13.5 62 41 129 10.3 190.5-3.8 7.6-9.8 21.2-17.2 25.9-6.8 4.3-12.9-6.8-5.7-10.3 8.4-4.1 12.1 11 2.7 11.2-15.5 0.3 11.5-32.5 13.9-37.4 12.8-25.9 14.9-55 11.4-83.4-4.7-37.9-17.4-74.4-24.8-111.8-7.3-36.3-9.9-73.6-19-109.5-0.3-1.2-2.4-23.3 1.9-13.4z"  fill="#fff500" /><path d="M325.9-143.9c2.7 76-72.9 109.2-111.5 163.2-9.5 13.2-26.3 57.1-31.5 58.5-7.2 2-7.9-10.4-0.5-9.2 7.4 1.2 2.8 12.8-3.4 8.6-13.3-9 31.4-72.2 38.5-81 20.8-25.4 47.7-44.5 69.7-68.8 10.1-11.2 18.9-23.7 24.5-37.8 4.1-10.4 2.4-26.4 7.3-35.4 2-3.6 6.6-1.7 6.9 1.9z"  fill="#c2e1ff" /><path d="M332-204.9c54 131.4-46 147.7-108.7 229.7-5.4 7.1-28.7 55.5-33.7 53.3-7-2.9 0.3-13.2 5.3-7.6 5.1 5.6-5.8 11.9-8.1 4.7-1.8-5.6 4.7-15.8 7-20.9 28.8-66.2 90.4-87.2 127.4-142.6 13.4-20.1 19.4-43.7 17.6-67.7-0.1-1.8-15-64.2-6.8-48.9z"  fill="#c2e1ff" /><path d="M341.2-127.3c-7.7 69.9-78.8 98.2-117.8 148-9.9 12.7-28 56.1-33.1 57.4-7.3 1.9-7.8-10.6-0.4-9.3 7.5 1.3 2.6 12.9-3.6 8.6-13.8-9.6 33.4-71.4 41-79.8 21.2-23.6 47.7-41.2 70.1-63.5 29.2-29 25.5-50.3 36.3-64.6 2.8-3.7 7.6-0.8 7.5 3.2z"  fill="#fff500" /><path d="M346.6-379.9c17.3 37.6 22.8 79.7 33.1 119.4 28.6 110.3 50.5 180-54.4 256.6-7.3 5.3-38.2 34.6-46.1 29.2-6.2-4.2-1-14.1 6-11.3 7 2.7 4 13.5-3.4 12.4-19.4-3.1 35.6-41.1 41-45.1 36.8-26.9 68.7-58.6 74.4-106.1 5.3-44-34.7-199.7-51.7-245-0.3-0.9-3.5-18 1.1-10.1z"  fill="#fff500" /><path d="M354.5-314.8c23.3 74.2 69.8 172 25.6 246.2-29.1 49-85.5 69.5-122.2 111.3-4.8 5.5-21.2 36.5-28.1 32.5-5.2-3-1.6-11.2 4.1-9.4 6.7 2.1 2.8 12.5-3.6 9.6-9.6-4.2 7.2-24.8 10.2-29.2 39.7-58 121.4-79.2 144.4-149.6 20.9-64.1-14.1-137-32.1-198-0.5-1.7-2.6-23.1 1.7-13.4z"  fill="#c2e1ff" /><path d="M363.4 13.1c-16.8 13.7-34.2 27-49 43.1-4.4 4.8-13.7 22.7-20.3 22.9-8.7 0.3-6.1-13.8 1.9-10.5 8 3.4-0.3 15.1-6.1 8.8-11.4-12.5 55.1-69.8 66.6-75.3 7.2-3.4 11.8 5.9 6.9 11z"  fill="#c2e1ff" /><path d="M382.5-398.5c4.5 42 4.4 84.5 11.1 126.4 11.3 71.2 47.3 148.4 5.2 216.3-4.4 7.1-15.3 26.8-24.1 28.1-8.3 1.2-9.5-12-1.2-12.4 8.4-0.3 8.2 13-0.2 12.4-16.4-1.2 14.8-32.1 17.9-36.8 15.7-24.2 21.5-52.5 20.2-81.1-2-43.8-17.6-85.8-24.7-128.8-6.5-39-6.8-78.6-10.4-117.9-0.4-4.3 4.3-14.8 6.2-6.2z"  fill="#fff" /><path d="M378.6-52.3c-28.6 38.2-73.7 58-106.7 91.6-5.6 5.6-29.6 44.1-35.5 37.4-4.6-5.3 4.1-12.2 8.1-6.4 4 5.8-5.4 11.6-8.8 5.5-10-18.2 82.5-90.1 101.4-104.9 12.1-9.4 21.6-22.6 33.5-31.5 5.7-4.3 11.4 3 8 8.3z"  fill="#c2e1ff" /><path d=""  fill="#fff" /><path d="M392-177.6c25.9 126.8-61.3 141.1-130.8 213.4-5.7 6-29.2 45.1-35.1 41.9-8.3-4.5 4.3-15.1 7.3-6.1 2.5 7.7-10.8 9-9.9 1 6.2-52.3 104-97.6 136.3-136.2 16.1-19.3 26.1-42.7 28.4-67.8 1.4-15.5-3.4-30.8-2.4-45.8 0.2-3.8 5.2-3.6 6.2-0.4z"  fill="#fff" /><path d=""  fill="#005bbb" /><path d="M406.6-224.7c15 65.4 30 132.9-17.6 189.3-31.3 37.1-77.6 57.9-107.7 96.1-3.5 4.5-10.6 22.1-18.1 17.2-5.2-3.4-1-11.7 4.8-9.4 6.8 2.5 2.2 13-4.3 9.7-9.4-4.7 7.2-22.8 10.6-27.2 35.9-47.4 98-69.5 126.3-123.3 25.6-48.6 10.5-100.7 0.2-151-0.8-3.9 4.5-4.9 5.8-1.4z"  fill="#fff" /><path d="M415.6 52.1c-5.1 5.5-21.9 30.4-29.8 27-8.5-3.8 0.7-16.3 6.8-9.3 5.3 6-4.7 13.8-9.2 7.3-4.8-6.9 19.1-32.5 25.7-34.8 6.3-2.2 9.9 5.2 6.5 9.8z"  fill="#fff" /><path d="M421.5-217.6c13.5 63.8 30.6 130.5-12.3 187.3-29.3 38.9-75.2 61-104.1 100.2-2 2.7-14.8 16.3-14.5 3.2 0.5-20.6 20.8 15 2.8 4.9-9.1-5.1 7.4-21.7 10.8-25.8 34.3-42.4 89-66.2 113.3-116.8 23.7-49.2 7.7-101.4-1.9-151.8-0.8-3.9 4.7-4.9 5.9-1.2z"  fill="#005bbb" /><path d="M430.5-53.7c-21.2 48.2-68.7 73.2-103.2 110.2-4.3 4.6-16.7 27-24.1 21.6-6-4.4 1.4-13.6 6.9-8.5 5.5 5.1-2.9 13.3-7.8 7.7-12.3-14 59-68.7 68.9-77.2 15.1-12.9 48.6-58 51.7-60.2 4.6-3.3 9.2 1.8 7.6 6.4z"  fill="#fff500" /><path d="M437.8-357.7c-46.7 144.2 82.6 258.4-51.1 379.1-7.6 6.9-35.9 40.5-45.3 39-11.1-1.7-1.3-18.6 5.7-9.7 8.2 10.4-15.7 13.4-10.3 1.3 15.3-34.3 83.6-56.9 102.1-123.5 19.5-70.3-20.8-141.8-21.2-212.3-0.2-22.3 0-57.8 11.6-77.6 2.9-4.9 9.3-1.3 8.5 3.7z"  fill="#fff500" /><path d="M443.7-166.6c22.2 103.6-8.4 143-81.3 210.8-6 5.6-29 36.9-36 34.4-9.9-3.5 2.1-17.2 6.9-7.8 4.8 9.3-13.4 11-10.5 0.9 9.2-31 82.8-77.2 103.9-113.2 32.7-55.5 9-76.9 11-124.6 0.2-3.7 5-3.6 6-0.5z"  fill="#005bbb" /><path d="M451.3-234.5c15.7 102.9 76 181.1 3.2 279.2-5.1 6.9-22.2 35.7-31.2 34.8-10.9-1-2.3-18 4.9-9.7 7.2 8.2-10.7 14.6-10.3 3.7 0.1-3.9 60.1-74.8 65.1-118.2 7.1-61.4-24.2-121-36.3-179.9-0.7-3.5 1.6-19.8 4.6-9.9z"  fill="#005bbb" /><path d="M460-335.6c-45.5 137.3 90 254.9-6.6 383.4-4.9 6.5-20 32.4-28.7 31.7-10.9-1-2.3-17.9 4.9-9.7 7.2 8.2-10.7 14.6-10.2 3.6 0.1-2.6 58.4-75.1 63.8-114.5 10.4-75.3-36.7-146.1-41.3-220.4-1.4-22.2-2.2-58.1 9.6-77.9 2.9-4.9 9.4-1.2 8.5 3.8z"  fill="#fff500" /><path d="M465.7-167.8c25.9 89.9 35.6 147-28.4 223.5-4.4 5.3-17.2 26.6-25.2 23-6.3-2.8-3.1-12.6 3.6-11.1 7.9 1.6 4.6 13.9-3 11.4-12.8-4.2 9.9-24.4 13.3-28.4 22-25.8 43.5-53.2 50.9-87.1 9.6-44.2-5.7-87.4-16.6-129.7-0.9-3.6 4-4.8 5.4-1.6z"  fill="#fff" /><path d="M474.3-287.7c-3 29.6 1.7 59.1 10.7 87.4 29 90.9 82.8 151.1 77.9 252.5-0.2 4.8 1.9 23.6-4.1 24.9-7 1.6-5-10.7 1.1-7 5.3 3.1-1.7 10.5-5.1 5.4-3.2-4.7 0.2-86.3-3.7-103.4-15.1-68.3-60.7-125.7-78-193.6-4.8-18.7-12.7-48.7-6.5-67.7 1.5-4.6 7.5-2.8 7.7 1.5z"  fill="#fff" /><path d="M441.4-396.6c-14.9 35.2-23.1 73.9-23.1 112.2 0.2 59 25.4 114.5 25.1 173.4-0.1 13.6-6.5 79.6-26.7 79.7-8.9 0.1-5.8-14.4 2.3-10.7 9.5 4.3-3.6 16.9-7.5 7.2-0.7-1.7 22.1-40.3 24.2-73 4.2-67.9-28.5-132-24.2-200.5 1.9-30.9 8.3-63.5 20.7-92 2.6-6 10.8-2.3 9.2 3.7z"  fill="#fff" /><path d="M489.6-329.7c-40.6 132.2 77.4 221 91.7 343.8 0.9 7.4 7.3 62.8 0.5 63-4.7 0.1-4.4-7.3 0.3-6.9 4 0.4 4.1 6.4 0.1 6.8-3.2 0.4-11.5-90.6-14.4-101.5-20.6-77.8-79.4-139.4-92.4-220.4-4.6-28.7-3.2-59.4 5.4-87.4 1.8-5.8 9.7-3.2 8.8 2.6z"  fill="#c2e1ff" /><path d="M495.9-74.4c6.4 42.4-3.8 81.6-27 117.4-4.4 6.7-22.4 39.6-31.5 35.8-8.5-3.5 0.2-16.1 6.5-9.3 7.3 7.9-10.2 14.7-10.1 3.9 0.1-6.6 36.6-52.8 42.4-65 6.6-13.8 11.3-28.4 13.2-43.6 1.4-11.3-3.7-30 0.1-40 1.3-3.4 5.6-2.3 6.4 0.8z"  fill="#005bbb" /><path d="M459.2-396.3c-24.3 46-35.3 97.9-29.1 149.7 5.7 47.2 48.5 177.6 9.3 214.4-6.1 5.8-13.3-6.2-5.3-8.9 8-2.7 9.4 11.2 1.1 10.3-11.3-1.3 2.3-20.2 4-24.6 6.8-17.4 9.2-36.1 8.7-54.7-1.7-67.1-32.7-129.2-25.8-197.2 3.2-32 12.4-65.4 27.8-93.7 3.3-6.1 11.5-1.5 9.3 4.7z"  fill="#fff500" /><path d="M509.5-147c33.4 71 62.5 118.8 62 200.3 0 4.5 2.9 22-2.7 23.6-6.6 1.9-5.4-9.9 0.7-6.8 5.2 2.7-1 10.1-4.6 5.5-3.4-4.4-3-83.3-6.5-98.8-9.4-41.9-32-78.8-50.6-116.9-1-2.1-2.1-13 1.7-6.9z"  fill="#c2e1ff" /><path d="M517.8-240.6c9.3 48.5 35.1 91 60.3 132.6 2.8 4.6 25.9 40.3 21.3 42.3-3.3 1.4-4.4-4.4-0.9-4.3 3.6 0.1 2.2 5.8-1 4.2-6.8-3.4-15.2-27.4-19.4-34.4-23.1-38.9-47.8-77-61.3-120.5-7.2-23.2-0.5-24.2 1-19.9z"  fill="#fff" /><path d="M526.8-365.3c-28.6 74.4-19 143.6 18.9 212.6 12.5 22.6 52.8 73 55.2 96 0.5 4.3-6.9 2.3-4.2-1.2 2.7-3.5 6.6 3.1 2.3 3.7-4.1 0.7-17.7-31.1-20.4-35.7-37-63.5-81.3-126.1-77.4-203.1 1.1-22.3 4.2-57.6 17-76.7 3.3-4.9 9.8-0.7 8.6 4.4z"  fill="#fff" /><path d="M483.6-395.8c-38.8 64.4-45.8 131-26.9 203 8.5 32.4 40.6 123 24.5 152.7-3.2 6-11.8-1.4-6.3-5.4 6.4-4.8 10 8.6 2 7.6-4.3-0.5-2-53.7-3.2-62-10.1-68.3-43.4-132.1-34.4-202.7 4.3-34.2 16.6-69.3 34.9-98.6 3.8-6 12-0.8 9.4 5.4z"  fill="#c2e1ff" /><path d="M538.8-119c30.7 53.2 53.4 101 58.9 163 0.5 5.3 5.9 30.6 0.8 32.8-4.8 2-6.4-6.6-1.2-6.4 6.1 0.2 1.8 10-2.5 5.6-3.8-3.9-9.5-80.5-13-94.2-9-34.9-27.3-65.9-45.3-96.8-1.5-2.5-0.4-7.7 2.3-4z"  fill="#005bbb" /><path d=""  fill="#fff500" /><path d="M553.7-159c10.8 20.6 43.6 61.7 46.9 82.1 0.6 4-6.2 2.5-3.9-0.9 2-2.9 5.9 1.3 2.9 3.1-3.8 2.3-15.9-24.2-18-27.8-9.6-16.4-27.1-36.5-31.8-55-0.7-2.5 2.6-3.5 3.9-1.5z"  fill="#c2e1ff" /><path d=""  fill="#c2e1ff" /><path d=""  fill="#fff" /><path d="M575.9-79c6.1 10.7 30.2 46.5 25.5 58.9-1.6 4.2-7.8 0.1-4.6-3.1 3.2-3.1 7.1 3.2 2.9 4.7-5.5 1.9-9.2-19.4-10.7-23.2-3-7.7-20.4-47.3-13.1-37.3z"  fill="#fff" /><path d="M585-230.3c0.7 13.3 17.6 74.8 16.1 79.3-1.2 3.9-7.2 0.5-4.4-2.6 3.3-3.6 6.9 4 2.1 4.4-4.9 0.4-7.3-15-8.3-18.3-5.6-17.6-15.6-44.5-12.5-63.1 0.7-4.2 6.2-3.4 7 0.3z"  fill="#c2e1ff" /><path d="M592.9-379.6c-5.6 56.2-15 116.7-6.4 172.9 1.1 7.2 14.2 58.9 11.9 58.8-3.5-0.1-3-5.6 0.5-5.1 3 0.4 2.8 4.9-0.2 5.1-5.4 0.4-10.2-23.7-11.4-27.9-19.1-65.2-10.5-138-2.4-204.6 0.6-5.3 7.8-4.3 8 0.8z"  fill="#005bbb" /><path d="M600.1-234.9c-0.4 7.7 5.2 43.3 0.8 47.4-3.8 3.5-8-3.9-3.1-5.5 4.9-1.6 5.7 6.9 0.5 6.3-6.4-0.8-8.5-44.6-5.3-50.2 2.1-3.7 6.8-1.6 7.1 2z"  fill="#fff500" /><path d=""  fill="#fff" /><path d=""  fill="#fff500" /><path d=""  fill="#c2e1ff" /><path d=""  fill="#005bbb" /><path d=""  fill="#fff" /><path d=""  fill="#005bbb" /><path d=""  fill="#c2e1ff" /><path d=""  fill="#fff500" /><path d=""  fill="#fff" /><path d=""  fill="#fff500" /><path d=""  fill="#c2e1ff" /><path d=""  fill="#c2e1ff" /><path d=""  fill="#005bbb" /></svg>