<svg width="1200" height="675" viewBox="-500 -500 1200 675" xmlns="http://www.w3.org/2000/svg"><path d="M-500-500h1200v675h-1200z" fill="#000"/><path d="M-396.1 72.2c1.8 5.9-7.7 2.3-3.4-0.8 4.1-3 4.9 6.2 0.3 3.9-3.5-1.7-2.2-7.6 1.9-5.5z"  fill="#005bbb" /><path d=""  fill="#fff" /><path d=""  fill="#fff" /><path d=""  fill="#005bbb" /><path d="M-396.3 62.6c1.2 2.9 6.9 10 3.8 12.7-2.5 2.1-5.6-2-2.9-3.8 3.1-2.2 5.5 3.7 1.7 4.3-9.8 1.7-7.1-20.6-2.6-13.2z"  fill="#c2e1ff" /><path d=""  fill="#c2e1ff" /><path d=""  fill="#005bbb" /><path d="M-396.6-204.7c47.5 85 5.8 101 3 153.5-0.9 17.5-1.6 35-2.1 52.5-0.4 16.6-1.8 34.2 3.4 50.3 1.1 3.5 11.9 24.6 5.5 24.7-3.5 0-3.3-5.4 0.2-5.1 3.5 0.3 2.6 5.7-0.7 5-5-1-8.9-19.2-10.5-23.5-10.9-31.2-4.8-76.2-4.9-106.3-0.1-24 16.9-49.7 19.5-74.2 3.1-28.6-18.7-71.4-17.6-76.4 0.5-2.1 3-2.1 4.2-0.5z"  fill="#c2e1ff" /><path d=""  fill="#c2e1ff" /><path d=""  fill="#005bbb" /><path d=""  fill="#fff500" /><path d="M-396.8-237.1c18.7 30.2 41.3 61.2 43 98.1 2.4 51.5-36.3 94.4-37.2 146.1-0.2 13.5 14.1 61.8 12.5 67-1.5 4.8-8.3-0.7-3.9-3.1 3.7-2.1 5.8 4.7 1.5 5-5 0.4-7.5-14.9-8.5-18.3-30.3-95.3 23.3-117 27.8-193.3 2.1-36.5-18.8-67.8-37.4-97.4-1.5-2.4-0.7-7.6 2.2-4.1z"  fill="#fff" /><path d=""  fill="#fff" /><path d="M-396.2 58.1c1.3 3.3 7.9 13.2 6 16.5-2 3.3-6.7-1.1-3.5-3.3 3.2-2.2 5.6 3.8 1.8 4.5-10 1.6-9-26-4.3-17.7z"  fill="#fff500" /><path d="M-388.2-327.5c8.1 77.4 86.5 111.7 114.8 177.8 30.5 71.1-36.7 110.1-60.1 168.4-4.9 12.2-7.1 52.8-9.7 54.7-3.9 3-8.4-3.4-4.1-6 5-3 8.1 6.1 2.3 6.8-13.1 1.5 2-59.5 4.8-66.3 18.5-45.3 69.4-77.8 66.8-130.8-3-62.3-70.4-101.6-100.7-150.7-8.5-13.7-22.4-36.8-20.9-53.7 0.4-4.2 5.8-3.8 6.8-0.2z"  fill="#fff500" /><path d=""  fill="#fff500" /><path d="M-374.5-224.1c18 26.9 37.8 55.4 38.7 89 1.5 50.8-40.7 90.2-45.9 140.2-1.5 15 10.7 63.5 8.7 69.4-1.7 4.9-8.6-1-4-3.4 4-2 5.9 5.1 1.4 5.3-5.5 0.2-7.4-16.8-8.4-20.7-24.4-93.2 30.9-111.8 39.8-184.4 4.2-34.1-14.1-64-32.2-91.3-1.5-2.2-1-7.4 1.9-4.1z"  fill="#005bbb" /><path d="M-364.5 34.9c-0.2 6.9 6.7 36.4 3 40.4-3.4 3.6-8-3.2-3.4-5.1 4.6-1.8 6 6.3 1 6-6.2-0.3-10.5-37.8-7.9-42.9 1.9-3.8 6.8-2 7.3 1.6z"  fill="#fff500" /><path d="M-355.8-38.6c-13.5 25.3-20.2 52.8-17.2 81.5 0.5 4.6 8.8 34.2 2.6 33.6-4-0.4-3-6.7 0.9-5.8 3.4 0.7 2.8 5.8-0.6 5.8-5.9 0-7.9-22.2-8.7-26.6-5.4-30.2-2-60.4 10.9-88.3 3.4-7.4 15.9-11 12.1-0.2z"  fill="#fff" /><path d="M-348.4 21c-2.5 9.5 1.3 50.8-3.4 55.1-3.9 3.6-8.4-4.1-3.3-5.7 5.1-1.6 5.9 7.2 0.6 6.6-9.6-1.2-5.9-52.1-2.6-59 2.5-5.1 9.1-2 8.7 3z"  fill="#fff500" /><path d=""  fill="#fff" /><path d="M-333.2 54.4c-0.6 4.5 1.5 21.2-3.8 22.8-5.7 1.7-6.5-8.2-0.6-7.4 5.9 0.8 2.5 10.1-2.6 6.9-13-8.4 6.6-35.9 7-22.3z"  fill="#005bbb" /><path d="M-339-397.8c-8 34-3.5 67.8 15.8 97.3 53.6 81.8 140.3 89.8 168.5 210.1 1.4 5.8 8 28.5 2.2 32.5-5.9 4.1-8.7-8.1-1.6-7 6.1 0.9 2.4 10.4-2.7 7-1.5-1 3.8-30-21.9-82-39.7-80.3-119.4-104.8-157-173.6-11.2-20.5-16.3-43.5-14.8-66.8 1.6-23.2 12.4-28.6 11.5-17.5z"  fill="#005bbb" /><path d=""  fill="#fff" /><path d="M-317.3-398.3c-2.7 32.3 4.2 63 22.5 90 53.8 79 132 99.3 163.5 219.9 1.5 5.6 8.6 27.6 3 31.6-4.1 3-8.6-3.7-4.1-6.3 4.4-2.6 8.1 4.7 3.4 6.7-8 3.5-6.5-20.4-7.1-24.1-4.2-25.2-15.2-49.1-27.5-71.3-42.8-77.8-111.7-111.3-145.3-171.7-11.3-20.3-16.9-43-16.8-66.1 0-5.7 7.6-20.3 8.4-8.7z"  fill="#fff500" /><path d=""  fill="#c2e1ff" /><path d="M-295.3-136.4c10.4 58.4-46.1 95-60.5 146.6-3.7 13.3-0.8 62.4-1.8 64.4-2.6 5.4-9.6-2.3-4-4.4 5.6-2.1 5.4 8.3-0.1 5.9-12.2-5.2-1.4-77.8 4.1-90.8 11.5-27.3 32.4-48.7 45.7-74.9 3.3-6.5 12-67 16.6-46.8z"  fill="#fff500" /><path d="M-288.2-357.9c26.8 97.3 216.7 209.5 169.6 348.7-3.9 11.6-14.9 47.6-26.4 52.9-9.3 4.3-10.2-13.5-0.5-10.2 11.4 3.9-5.3 18-7.2 6.1-1.8-11 17.7-35.4 22.2-46.1 13.3-31.3 14.7-63.6 3.7-95.9-35.7-105.5-98.6-136.8-148.3-214.8-7.7-12.1-14.3-25.2-18.6-38.9-1.2-3.7 4-5 5.5-1.8z"  fill="#fff500" /><path d="M-281.5-321.1c19.5 34 50.6 58.9 76.4 87.8 60.2 67.6 114.9 160.6 71.7 250-4.7 9.8-22.8 58.9-32.1 61.2-9.1 2.3-6.9-13.8 1.3-9.2 8.1 4.6-4.5 14.8-7.3 5.8-4.6-15.1 23.2-52 29.9-65.6 16.6-33.5 23.5-68.1 12.9-104.6-28.3-97.7-92.3-136.6-147.3-210.2-1.7-2.3-10.5-21.6-5.5-15.2z"  fill="#005bbb" /><path d="M-272.8-359.9c31.9 108 209.8 221.6 160.3 354-4.3 11.4-16.1 47.1-27.7 52.3-11.1 4.9-8.4-16.9 1.2-9.5 8.1 6.4-7.4 15.4-8.9 5.2-1.6-10.5 17.1-33 21.8-42.8 15.1-31.8 18.7-64.8 7.7-98.5-33.8-104.3-114.9-160-151.4-237.8-5.2-11-9-35.6-3-22.9z"  fill="#fff" /><path d="M-262.9 34.8c-4.4 7.3-14.6 41-21.1 43.1-7.1 2.4-8.5-10-1-9.2 7.5 0.8 3.5 12.7-2.9 8.8-7.6-4.6 11.3-52.6 21-51 4.2 0.6 5.5 4.8 4 8.3z"  fill="#c2e1ff" /><path d="M-255.2 61c-1.8 4-5.6 22.8-13.4 16.3-4.4-3.7 0.4-10.8 5.4-8.1 5.1 2.6 1.9 10.6-3.5 9.1-7.9-2.2-0.2-20.2 3.4-23.3 4.4-3.7 9.5 1.2 8.1 6z"  fill="#fff500" /><path d="M-232.6-399.1c9.3 27.2 16.3 55.2 27.9 81.7 29.5 67.9 73.2 129.4 106.1 195.7 7.4 14.9 31.9 94.2 12.6 100.6-7.3 2.4-8.6-10.2-1-9.3 8.9 1 1.6 14.7-4.2 7.8-4.2-5 3.9-26.5 4.1-33.5 0.6-21.1-5.7-41.5-14.4-60.5-40.8-89.6-101.4-167.7-130.7-262.6-2.1-7-7-33.9-0.4-19.9z"  fill="#fff500" /><path d="M-242.1-345c34.4 92.4 168.3 213.7 147.5 316.1-6 29.6-23.2 54.5-37.9 80.2-2.3 4-8.5 21.8-15.6 13.9-13.6-15 24.9-3.4 5.3 1.6-21.4 5.4 13.7-42.3 24.2-61.7 16.6-30.8 23.4-63.3 13.6-97.5-26-90.8-100.8-157.8-138.4-242.3-1.1-2.4-3-18.2 1.3-10.3z"  fill="#fff" /><path d="M-205.6-399.5c22.8 56.1 38.6 113.6 64.4 168.8 21.7 46.5 53.9 90 70.6 138.5 3.2 9.3 15.9 54.6 3.1 60.2-7.7 3.3-8.2-11.3-0.2-8.5 6.8 2.5 0.3 12.6-4.8 7.5-4.3-4.3 1.5-25 1.1-31.6-1.1-20-8.4-38.9-17.1-56.7-46.4-93.4-82.3-157.2-115.6-258.4-1.9-5.8-5.7-12.5-6.5-18.5-0.4-3.2 3.7-3.8 5-1.3z"  fill="#fff500" /><path d="M-224.3-52.1c-13.6 39.5-46.5 68.1-62.4 106.3-2.1 5-4.7 25.9-12.4 23.7-6-1.7-2.8-11 3-8.6 5.8 2.3 1.6 11.2-3.9 8.3-8.7-4.7 7.4-36.2 10.4-42.5 4.6-9.3 53.2-89.5 57.3-92.9 4.2-3.7 9.3 1 8 5.7z"  fill="#005bbb" /><path d="M-216.5-40c-14 36.6-42.8 65.1-57.6 101.4-1.8 4.3-3.5 19.1-10.8 16.6-6.1-2.1-2.3-11.6 3.5-8.8 5.9 2.8 1 11.8-4.5 8.4-8.4-5.2 8.7-35.3 11.9-41.5 6.1-11.9 42.5-76.5 49.4-82.1 4.4-3.6 9.4 1.3 8.1 6z"  fill="#c2e1ff" /><path d="M-210.9-381.9c20 60.2 43.9 115.7 72.9 172.3 35.4 69 94.2 139.3 50 218-4.2 7.5-13.6 29.2-22 32.1-12.1 4.1-7.2-18.6 2.1-9.8 7.9 7.5-9.3 15.4-9.8 4.5-0.5-9.5 16.8-26.9 21.6-35.2 15.8-27.2 22.1-56.6 13.9-87.4-16.7-62.9-99.2-180.3-128.4-274.6-1-3.3-6.3-32.8-0.3-19.9z"  fill="#fff500" /><path d="M-204.3-171c55.1 74.6 44.8 135.5 5.8 213.3-3.2 6.3-12.4 36.3-19.5 35.9-7.9-0.5-4.2-13.1 2.7-9.3 8.1 4.4-4.3 14.7-7.1 5.8-3.2-10 46.6-103.2 49.4-129.5 3.7-35.4-8-70.8-25.9-101-0.6-1-10.7-21-5.4-15.2z"  fill="#fff500" /><path d=""  fill="#fff" /><path d="M-177.7-399.5c24.4 52.4 33.9 111.5 54.9 165.4 26.2 67.5 101.7 144 71 220.4-2.4 5.9-7 20.4-13.3 22.8-10 3.8-9.6-14.9 0.2-10.7 9.9 4.2-3.2 17.4-7.5 7.6-3.1-7.1 14.2-30.5 16.7-38.9 6.3-21.3 4.1-43.4-3.4-64-15.6-43.2-45.2-80.5-63.4-122.8-23.3-54.1-34.5-111.7-55.1-166.5-0.3-0.9-5.1-21.9-0.1-13.3z"  fill="#005bbb" /><path d="M-179.8-355.8c16.1 53.4 35.3 105.7 59.9 155.8 43.6 88.7 97.4 139.1 27.3 234.1-4.3 5.9-18.5 32.9-26.4 30.5-6.4-1.9-4.6-11.6 2-11.2 6.6 0.5 7 10.4 0.5 11.4-17 2.5 16.6-40.1 27.9-56.8 18.2-26.7 28.8-56.2 21.9-88.6-10-46.5-43-87.1-63.3-129.5-20.9-43.7-38.9-89.1-52.8-135.5-0.7-2.4-1-19.4 3-10.2z"  fill="#c2e1ff" /><path d="M-166.3-399.3c25.7 53.1 33 114.2 53.6 169.4 25.2 67.6 100.8 140.9 68.8 217.2-3.1 7.4-10.6 27.5-18.9 30.1-10.6 3.2-9-16 0.9-11.1 9.9 5-4.5 17.8-8.3 7.4-2.8-7.8 17.2-31 20.4-39.5 8.3-21.7 7.7-45 0.5-66.9-14.8-44.7-46.4-82.4-64.5-125.9-22.6-54.3-31-112.9-52.2-167.5-0.3-0.8-5.4-21.7-0.3-13.2z"  fill="#fff" /><path d="M-126.4-399.7c27.6 55.4 25.9 120.4 45.7 178.4 16.9 49.2 54.8 89.1 68.8 139.1 2.5 8.8 11.1 49.2-0.8 53.7-6.9 2.7-8.8-9.5-1.3-9 8.7 0.6 2.1 14.2-3.8 7.8-4.4-4.7 7.7-42.5-11.2-82.2-18.5-38.9-45-72.8-59.1-114-16.9-49.1-18.8-101.8-34.8-151.1-8.4-25.8-8.1-30-3.5-22.7z"  fill="#fff" /><path d="M-157.4-232.1c29.8 54.8 84.2 122.6 79.3 188-3.2 41.6-31.1 72.6-50.4 107.5-2.1 3.9-7.4 20.9-14.6 13.7-3.6-3.7 0-10 5-8.7 5.9 1.5 4.6 10.4-1.5 10.2-12.7-0.4 4.1-25.6 6.4-29.5 20.7-36.2 49.9-69.2 47.5-113.5-3-55.8-45.6-109.9-71.4-157.7-0.6-1.2-5.2-16.9-0.3-10z"  fill="#fff" /><path d="M-149.4-243c45.2 96 123.9 168.9 51.6 273.4-5.6 8.1-24.3 46.8-32.7 48.1-11.5 1.8-3.6-17.7 3.4-8.4 5.9 7.9-10.6 12.4-9.5 2.6 4.3-38.3 65.3-72.5 63-135.4-2.2-59.7-51.3-117.8-76.3-170.2-0.7-1.5-4.2-17.6 0.5-10.1z"  fill="#005bbb" /><path d="M-141-308.8c11.6 41.6 24.7 83.3 44.3 121.9 42.7 84 91.5 132.8 19.8 220.8-6.2 7.6-27.3 44.2-36 45-10.2 0.9-5.2-16.2 3-9.8 9.5 7.5-11 15.3-8.9 3.3 7.5-41.2 75.6-67.6 72.2-136.1-2.9-58.3-58.2-121-78.8-176.9-5.8-15.9-11-32-15.9-48.3-0.3-1.1-5.6-33.9 0.3-19.9z"  fill="#fff500" /><path d="M-133.1-88.7c13.7 51.6-7.7 94.4-29.7 139.7-3.1 6.3-6.7 22.8-12.5 26.5-6.6 4.3-11.3-7.9-3.4-9 7.8-1.2 6.9 11.9-0.7 9.7-10.6-3.1 32.4-84.2 36.1-95.5 7.6-22.8 2.1-94 10.2-71.4z"  fill="#fff" /><path d="M-126.5-180.1c48.6 88.6 73.9 130 13.4 222.1-4.1 6.3-17.9 37.6-25.1 36.5-6-0.9-5.7-10 0.4-10.4 7.1-0.5 7.3 10.7 0.2 10.5-10.5-0.4-0.9-15.7 0.9-19.2 18.9-37.1 51.3-68.7 53.9-112.4 2.6-44-24.4-83.4-44.8-120.1-1-1.9-2.9-12.6 1.1-7z"  fill="#005bbb" /><path d="M-117.6-339.7c10.9 46.5 17.5 94.3 36.8 138.3 39.5 90.2 109 143.9 23.6 237.6-6.5 7.1-29.4 41-38.1 41-10.8 0-3.9-17.5 4-10 9.3 8.7-13 15-9.6 2.7 11-40.2 81.1-60.8 77.8-133.2-2.8-60.6-55.7-111.3-74.8-167.7-4.1-12.1-28.3-104.4-25.5-109.5 1.5-2.7 4.9-1.7 5.8 0.8z"  fill="#fff500" /><path d="M-108 60.1c-3.2 4.7-9.2 22.4-17.1 17.9-5.4-3.1-1.7-11.7 4.4-9.8 7 2.2 2.9 13.1-3.8 10.1-8.6-3.8 4.1-23.6 8.7-26.3 5.6-3.2 10.1 3.1 7.8 8.1z"  fill="#fff" /><path d=""  fill="#fff" /><path d="M-89.2-399.1c20.4 53.7 13.7 113.3 28 168.4 19.1 73.6 99.4 141 63.6 221.8-3.5 7.9-12.4 29.6-21.7 31.8-11.2 2.7-8.3-17.1 1.6-11.4 9.9 5.7-5.7 18.1-8.9 7.2-0.8-2.6 38.4-54.7 27.7-101.5-11.2-49.5-48.9-88.6-65-136.6-18.1-53.9-12.8-111.7-27.1-166.3-0.2-0.9-3-23.3 1.8-13.4z"  fill="#005bbb" /><path d="M-84.9 25.5c-6.2 8.7-29.8 52.1-38.6 53.3-8.5 1.1-7.3-13 0.9-10.4 8.2 2.5 1.2 14.8-5.2 9.1-8.5-7.6 27-53.9 34.3-60.1 5.6-4.7 11.8 2.5 8.6 8.1z"  fill="#005bbb" /><path d="M-77.5-34c-2.4 14.3-50.8 118.3-63 112.2-6.3-3.2-0.8-12.9 5.2-9.1 5.9 3.9-0.6 12.9-6.2 8.5-9.2-7.5 21.6-47.7 26.6-55.4 8.8-13.5 24.1-53.8 29.5-60.1 3.2-3.8 8.3-0.4 7.9 3.9z"  fill="#005bbb" /><path d="M-70.6-321.3c3.7 40.8 6.1 81.9 21.6 120.3 40.3 100 113.1 148.3 10.6 248.3-5.9 5.7-28.3 34.9-36.1 31.6-6.5-2.8-3.5-12.9 3.5-11.6 6.9 1.3 6.1 11.8-0.9 12.1-4.2 0.1-7.3-4.2-5.9-8.2 6.4-17.6 31.7-34.2 44.5-47.3 22-22.7 39.1-50 39.2-82.6 0.2-61.1-51.8-109.5-69.1-166-8.2-27.1-19-68.5-14.5-96.9 0.7-4.3 6.3-3.6 7.1 0.3z"  fill="#fff" /><path d="M-63.5-236.8c23.6 101.1 130.9 170.8 33.5 272.7-7.3 7.6-35.3 44-44.9 43.4-11.2-0.8-2.8-18.4 4.8-10.1 7.6 8.3-10.6 15.3-10.5 4 0.2-13.8 79.2-70.5 83.5-124.3 4.7-58.4-42.8-105-63.1-156.1-3.3-8.3-9.2-19.8-9.3-28.8 0-3.7 4.8-3.9 6-0.8z"  fill="#fff500" /><path d="M-56.3-205c35.6 91.4 112.5 149.8 21.8 243.2-7 7.2-33.1 41.6-42.4 41-11.2-0.7-2.9-18.3 4.8-10.1 7.7 8.2-10.5 15.3-10.5 4.1 0.1-12.2 77.4-71.9 83-121.3 6.5-57.2-39.1-103.7-60.5-152.8-1.5-3.5 1.3-8.7 3.8-4.1z"  fill="#fff500" /><path d="M-47.4-397.3c5.2 54.3-5.5 109.5 5 163.5 15.8 81.7 103.1 152.6 52.8 239.2-4.8 8.2-17.5 31.7-27.6 33.3-13.9 2.2-4.3-21.5 4.1-10.2 7.2 9.6-12.9 15-11.5 3.1 1.8-15.6 47.8-40.7 42.8-99.8-5.4-64.4-59.1-113.6-69.4-177.8-5.1-31.3-3.7-63.3-3-94.9 0.4-17.9-3.3-39.3-0.3-56.7 0.7-4.3 6.4-3.5 7.1 0.3z"  fill="#005bbb" /><path d="M-40-238.6c17.5 111.1 131 176.3 19.4 285.2-6 5.9-30.5 36.1-38.7 32.3-6.5-3.1-2.9-13.4 4.1-11.7 7.1 1.7 5.7 12.4-1.5 12.3-19.4-0.3 20.9-36.5 24.6-40 26.2-24.8 49.8-52.9 52.7-90.4 4.6-59-41.2-105.2-59.4-157.9-2.9-8.4-8.2-20.4-7.7-29.4 0.2-4 5.4-3.8 6.5-0.4z"  fill="#fff500" /><path d="M-33.4-182.1c41.4 85.3 89.6 142 6.3 224.9-6.8 6.7-31.1 37.8-39.9 37-11.4-1-2.4-18.7 5.2-10.2 7.5 8.6-11.2 15.2-10.8 3.8 0.3-8.5 74.3-71.5 82.6-112.8 10.4-51.9-23.8-95.3-46.5-138.5-1.6-3 0.3-8.2 3.1-4.2z"  fill="#c2e1ff" /><path d="M-25.1-398.1c-5.6 61-21.1 124.7-4 185.2 16.2 57.3 65 104.7 61.3 167.3-0.6 10.8-15 75.5-32.6 68.5-6.5-2.6-3.7-12.8 3.3-11.6 7 1.2 6.3 11.7-0.7 12-16.2 0.8 9.3-31 11.6-35.6 10-20.7 13-43.9 9-66.6-10.9-63.1-60.2-110.3-66.2-176-1.6-17.4 3.6-139.7 11.3-146.7 3-2.8 7-0.1 7 3.5z"  fill="#fff500" /><path d="M-19.4-398c-10.1 69.6-27.4 142.2 0.8 209.8 13.1 31.2 33.2 59.1 44.4 91.3 2.7 7.9 16.9 60.6 3.3 62.3-6.9 0.9-5.9-10.6 0.7-8.6 6.6 2.1 0.9 12.1-4.2 7.5-2.6-2.3-0.7-43.3-4.3-56.3-16.3-58.9-58.6-103.4-62.8-166.8-2.1-32.6 13.8-142.7 15.9-143.8 3.4-1.7 6.3 1.3 6.2 4.6z"  fill="#005bbb" /><path d="M-10.1-175c39.5 83.3 77.1 142.6-1 220.6-6.6 6.6-29.6 35.4-38.5 34.1-11.6-1.6-1.5-19.3 5.8-10.1 7.3 9.1-12.2 15.1-11.2 3.4 0.6-7.3 71.8-68.3 80.6-109.9 10.2-48.4-16.5-90-37.5-131.2-1.2-2.3-2.2-13.1 1.8-6.9z"  fill="#c2e1ff" /><path d="M0.3-9.6c-5.5 12.8-68.9 97.6-80.4 87.6-6.2-5.3 2.7-14.7 8.3-8.7 5.6 6-4.3 14.3-9.2 7.7-6.9-9.2 22.7-33 28.5-38.7 7.6-7.4 42.9-54 46-55.2 4.9-2 8.3 3 6.8 7.3z"  fill="#fff" /><path d="M5.5-396.9c-24.1 60.8-42.3 132.7-21.1 196.9 16.7 50.4 55.3 93.2 54.7 148.7-0.1 12.4-17.8 92.6-39 82.8-6.6-3-3.1-13.3 3.9-11.7 7.1 1.5 5.9 12.3-1.3 12.3-16.8 0 9-28 11.5-31.9 12-19.5 18.1-42 17-64.9-3.3-71.1-62.7-124-63.8-197.4-0.7-46.2 10.4-96.1 28.6-138.5 2.7-6.2 11.1-2.6 9.5 3.7z"  fill="#c2e1ff" /><path d="M15.8-8.7c-5.4 13-68.4 98.3-80.9 86.4-6.1-5.8 3.6-14.9 9-8.5 5.4 6.4-5.2 14.4-9.9 7.5-6.5-9.6 25.6-33.7 31.8-39.6 7.9-7.6 39.7-51.5 43.1-53 4.8-2 8.3 2.9 6.9 7.2z"  fill="#c2e1ff" /><path d="M23.5-288.1c-53.5 123.9 107.2 208.7-5.9 335.5-5.9 6.7-26.1 33.9-35.4 32.3-7.3-1.2-6.7-12.3 0.8-12.7 8.7-0.4 8.6 13.3-0.1 12.8-18.9-1.1 17.6-32.9 21.2-36.6 22.9-23.7 41.2-51.2 46.2-84.4 10.2-67-40.1-119.4-45.9-183.7-1.8-19.3-1.6-51.4 10.1-68.1 3.6-5.1 10.4-0.6 9 4.9z"  fill="#c2e1ff" /><path d="M30.7-239.5c-16.4 105.6 95.5 166.5 1.6 284.7-5.7 7.1-25.3 36.2-35.2 34.7-11.7-1.8-1.3-19.5 6-10.1 7.2 9.3-12.5 15-11.3 3.2 0.2-1.9 60.4-66.7 68-111.5 9.7-57.6-23.3-104.3-34.8-158.4-2.6-12.4-7-32.2-2.6-44.6 1.8-4.9 8.2-2.7 8.3 2z"  fill="#c2e1ff" /><path d="M37.3-191.7c18.2 94.1 71.5 144.5-2.6 238.7-5.4 6.8-23.1 33.9-32.6 32.5-11.7-1.7-1.4-19.4 5.9-10.1 7.3 9.3-12.4 15.1-11.2 3.3 0-0.1 58-68.4 65.5-108.8 10.4-56.3-19.6-101.4-31.2-154.2-0.9-4.1 4.8-5.1 6.2-1.4z"  fill="#c2e1ff" /><path d="M46.2-229.6c-15 102.2 84.3 157-4.1 276.8-5.1 6.8-21.5 33.5-30.7 32.3-11.6-1.5-1.8-19.2 5.6-10.2 7.4 9-11.9 15.2-11.1 3.6 0.7-10.3 22.5-27.6 29-36.2 16.5-21.9 28.6-46.8 33.4-73.9 9.9-56.4-19.2-102.8-28.7-156.5-1.9-10.6-5.4-27.2-1.7-37.7 1.7-4.9 8.1-2.8 8.3 1.8z"  fill="#fff500" /><path d="M54.3-16.5c-3.8 13.7-60.3 111.3-76 94.6-5.1-5.4 2.1-13.9 8.3-9.7 7.2 4.9-1.2 15.8-7.8 10.2-9.5-8.2 26.9-37 32.6-43.3 8.3-9.2 32.2-55.4 35.8-57.5 4.1-2.4 7.9 1.6 7.1 5.7z"  fill="#c2e1ff" /><path d="M62.3 63.1c-2.6 4.2-11.7 23.7-18.6 13.8-3.8-5.6 3.8-12.2 8.8-7.6 4.2 3.9 0.4 11.2-5.2 10-11.2-2.4 2.6-21.6 7.3-24.3 5.5-3.2 10.1 3.1 7.7 8.1z"  fill="#c2e1ff" /><path d="M70 31.6c-3.9 7.6-28.1 54.8-38.1 46.4-6.3-5.2 2.5-14.7 8.2-8.7 5.7 5.9-4.1 14.3-9.1 7.8-4.2-5.5 25-48.6 31.1-52.7 5.1-3.4 9.8 2.3 7.9 7.2z"  fill="#c2e1ff" /><path d="M32.5-395c-38.2 54.3-60.7 127.9-41.2 193.3 11.5 38.6 71.1 126.6 51.7 165.1-3.1 6.2-12.1-1.1-6.7-5.4 6.4-5.1 10.4 8.5 2.4 7.8-4.4-0.4-4.3-49.5-6.4-57.5-22.1-86.9-73.2-113.3-49.7-216.8 6.5-28.4 18.5-73.8 41.1-94.2 5.3-4.8 11.7 2 8.8 7.7z"  fill="#fff" /><path d="M85.5-278.7c-16.1 22-25.6 47.9-25.2 75.3 1.4 97.6 66.4 139-6.4 249.7-4.6 7-19.3 34.1-28.5 33.3-11.4-0.9-2.5-18.7 5.1-10.2 7.6 8.5-11 15.3-10.7 3.9 0.3-9.6 19.2-26 24.8-34.1 13.1-18.9 23.4-39.8 29.3-62.1 18.7-70.6-25.9-129.4-21-198.3 1.4-19.7 8.3-51.2 23.8-65.2 5.4-4.8 11.7 2 8.8 7.7z"  fill="#c2e1ff" /><path d="M91.6-157.6c13.8 73.5 18.6 136.3-18.4 204.6-3.6 6.7-14.1 32.2-22.7 32.3-7.9 0.1-7.4-12.3 0.4-11.6 7.9 0.7 6 13.1-1.7 11.5-12.7-2.6 6.5-24.6 9.2-29 16-26.4 28.3-55.2 34.4-85.6 7-35.5-7.9-121.9-7.2-123.2 1.6-2.7 5.1-1.6 6 1z"  fill="#005bbb" /><path d="M100.3-389.5c-63.3 47.9-113.9 112.5-89.3 196.7 15.7 53.8 52.1 99.9 43.3 159-1.3 8.8-11.5 56.5-24.7 52.7-6.4-1.9-4.7-11.7 2-11.2 7.8 0.5 6.3 12.7-1.4 11.4-12.2-2.1 6.5-27.2 8.7-32.7 8.6-21.4 10.9-44.7 7.4-67.4-13.5-87.3-77.9-130-34.9-228.2 16.6-37.8 46.6-68.3 80.5-91.3 7.6-5.1 14.7 5 8.4 11z"  fill="#fff500" /><path d="M107.5-95.3c4.6 46.7-6.2 93.3-26.6 135.3-3.5 7.2-17.6 42.1-27.2 39.2-8.7-2.6-1.4-15.8 5.4-9.8 6.8 6-5.4 15-9 6.6-3-6.7 27.4-52.2 34.5-71.1 16.7-44.4 9.1-61.5 15.7-100.5 0.7-4.3 6.4-3.5 7.2 0.3z"  fill="#fff" /><path d="M116.4 64.9c-1.5 3.9-5.3 19.4-12.5 12.5-4.3-4.1 1.1-11.2 6.2-8.1 5.1 3.1 1.4 11.2-4.3 9.2-7.3-2.5-0.9-14.8 1.6-18.4 3.6-5.1 10.3-0.6 9 4.8z"  fill="#c2e1ff" /><path d="M123.8-321.1c-32.2 28.8-62 63-64.6 108.2-5.6 95.8 66.5 138.9-0.8 250.6-5.8 9.6-20.9 39-32.2 41.8-8.1 2-10.5-11-2.3-12.1 9.7-1.3 8.3 14.9-1 12-13.3-4.2 11-26.9 14.4-31.6 15.9-21.1 28.7-44.3 35.6-69.8 21.4-78.9-35.6-144.6-18.4-218.9 8.2-35.4 32.8-67 60.4-90 6.7-5.6 14.4 3.5 8.9 9.8z"  fill="#c2e1ff" /><path d="M73.4-393.7c-54.6 47.5-91.7 117.7-72.4 191.5 11.4 43.8 40.4 81.1 47.9 126.2 0.7 4.2 5.9 23.4-2.1 23-5.3-0.2-4.4-8.5 0.7-7.7 6.1 0.9 2.4 10.5-2.7 7.1-5.3-3.5-7.2-44.9-10.2-53.6-24.3-71.4-62.6-115.1-37.9-195.5 12-39.1 36-75.1 67.9-101 6.9-5.6 14.5 3.7 8.8 10z"  fill="#c2e1ff" /><path d="M55.6-394.2c-46.7 48.1-76.3 118.1-60.5 185.5 7.7 33 25.9 61.8 38.9 92.8 0.9 2.2 9.4 17.3 2.3 17-3.3-0.2-3.5-5.1-0.3-5.6 3.2-0.5 4.5 4.2 1.5 5.4-4.3 1.7-5.2-6.4-6-8.6-26.2-74.6-64.3-117.2-39.5-201.6 8.9-30.1 27.8-76.8 55.5-94.7 6.6-4.3 12.2 4.2 8.1 9.8z"  fill="#fff500" /><path d="M88.1-393.2c-55.1 44-98.7 104.4-86.2 178.9 8.9 53.2 48.3 97.1 50.9 151.9 0.4 8.2-12.7 1.1-5.6-3.1 6-3.6 7.9 8.4 1 6.9-4.7-1.1-8.6-40.7-10.7-47.4-24.2-74.2-64.6-119.8-33.3-202.2 14.6-38.5 42.1-71.5 75.3-95.7 7.3-5.3 14.6 4.5 8.6 10.7z"  fill="#005bbb" /><path d="M155.2-297.7c-18.1 25.5-33.4 54-38.1 85.4-6 40.3 6.5 80.2 7.2 120.4 0.9 50.3-13.7 99.9-34.6 145.2-2.6 5.7-8.9 27-17.1 25.3-10-2.1-0.1-16.9 5.6-8.5 4.9 7.2-8.5 12.6-9.9 4-1-6.2 34.3-81.4 38.5-97.1 20.8-78.1-10.2-139.7 4.6-207.6 5-22.9 16.9-58.7 35-74.8 5.4-4.8 11.7 2.1 8.8 7.7z"  fill="#fff500" /><path d="M162.9-282.6c-11.5 22.4-19.4 46.6-21.7 71.6-2.3 24.6 0.9 49 2.7 73.6 4.6 62.4-11.2 121.6-33.3 179.4-2.6 6.8-10.8 38.1-19.5 36.8-8.3-1.2-3.3-14.2 3.7-9.6 8.2 5.4-5.7 15.1-8 5.6-1.7-7 36.1-99.3 40.5-116.7 16.7-66.2-2.8-126.8 8.1-191 2.8-16.5 7.4-42.4 18.5-55.6 4.2-5.1 10.9 0.3 9 5.9z"  fill="#fff500" /><path d="M170.4-343.4c-32.4 32.3-70.4 66.2-83.9 111.5-13.6 45.7 5.9 89.7 12.1 134.7 6.9 50.8-5.2 101.3-30.5 145.6-3.2 5.6-11.7 26.4-20.1 23.6-8.8-3-0.9-16.2 5.9-9.8 6.8 6.4-6 15.1-9.5 6.4-2.9-7.2 12-22.7 15.6-28.8 10.6-18.1 19.2-37.3 24.9-57.5 23.1-81.4-28.4-154-4.6-226.7 13.8-42.2 48.6-78.8 80.9-108.2 6.3-5.8 14.2 2.7 9.2 9.2z"  fill="#c2e1ff" /><path d="M178.4 69.5c-14.2 27.7-13-12-3.8 1 5.8 8.2-11.2 12.3-9.8 2.3 1.7-11.8 17.4-14 13.6-3.3z"  fill="#fff500" /><path d="M186-65.1c-17.8 46.7-35.8 94.7-55.8 140.4-1.2 2.6-4.1 4-6.9 2.8-7.4-3.3 0.6-14.1 6-8 4.5 5.2-4.1 11.9-8.1 6.3-5.2-7.5 13-41 16.2-49.4 11.1-29.9 21.2-70.9 39.7-97 3.6-5.1 10.3-0.5 8.9 4.9z"  fill="#c2e1ff" /><path d="M193.7-78.3c-10.9 31.5-26.5 61.4-38.7 92.4-3.4 8.6-21.2 67.8-29.9 63.9-7.4-3.3 0.6-14.1 5.9-8 4.5 5.2-4.1 11.9-8 6.2-2.7-3.9 17.6-56.4 61.3-157.9 2.6-6.1 10.9-2.7 9.4 3.4z"  fill="#fff500" /><path d=""  fill="#005bbb" /><path d="M158.5-393.3c-55.6 47.7-132.8 83.2-134.2 167.4-0.8 47.1 26.5 87.1 37.5 131.6 0.8 3.2 7.4 21.9-1.1 19.8-6.2-1.6 0.3-10.6 3.7-5.2 3 4.6-5.6 7.7-6.3 2.4-10-77.3-66.8-140-24.5-219 17.6-32.8 84.1-92 117.6-108.3 7.4-3.6 12.3 5.9 7.3 11.3z"  fill="#005bbb" /><path d=""  fill="#fff500" /><path d="M224.8-42.4c-20.8 27.4-39.1 55.5-53.5 86.8-2.8 6-12.1 38.3-20.9 33.9-5.4-2.7-2.3-11.2 3.6-9.8 6.9 1.7 3.6 12.4-3.1 10-13.9-5.1 52.5-118.8 65.3-129.2 5.7-4.6 11.9 2.7 8.6 8.3z"  fill="#fff500" /><path d="M230.9-174.6c15 72.9-30.2 123.9-59.2 185.9-4.6 9.7-23.9 63.9-28.9 66.8-7 4.2-11.3-8.6-3.2-9.5 8.1-0.9 6.6 12.6-1.1 10-16-5.4 63.7-145.5 71.5-161 8.3-16.6 14.6-34.2 16.4-52.7 1.1-11.5-5-29.7-1.8-39.9 1.1-3.4 5.4-2.6 6.3 0.4z"  fill="#fff" /><path d="M240.1-5.4c-14.3 14-59.2 83.1-61.2 83.9-8 3.6-11-10.6-2.2-10.5 10.3 0.1 3.5 16.6-3.9 9.5-12.1-11.6 48.1-82.7 58.1-92.1 6.2-5.9 14.2 2.7 9.2 9.2z"  fill="#005bbb" /><path d="M248.1-343.5c-52.5 99.3 12 133.4-0.1 220.1-6.9 49.1-67.6 126.9-90.1 181.3-2 5-5.8 24-14.1 20.1-6.3-3-1-12.8 5-9.1 5.1 3.2 1.2 11.3-4.5 9.3-18-6.3 84.2-168.6 90.7-187.4 20.4-59-20.2-112.3-16.7-171.1 1.2-20.5 6.9-53 20.8-69.2 4.3-5.1 11 0.5 9 6z"  fill="#c2e1ff" /><path d="M255.8-362.2c-21.4 36.1-38.5 73.9-33.1 116.9 5 40.7 24.9 78.4 19.8 120.3-7.2 58.7-60.1 117.8-83.1 173.6-1.7 4-6.2 22.7-13.9 15.4-4.3-4.1 1.1-11.2 6.3-8.2 5.1 3.1 1.3 11.2-4.4 9.3-15.9-5.5 75.3-154.9 81.4-172.5 21.3-61.1-21.1-117.1-14-178.4 2-17.2 18.5-74.8 33.2-84 5.3-3.3 10 2.6 7.8 7.6z"  fill="#c2e1ff" /><path d="M263.5-63.1c-30.9 39.1-63.8 71.7-86.2 117.1-2.7 5.4-8.3 26-16 24.7-8.3-1.4-3.1-14.4 3.9-9.7 6 4.1-1 13.1-6.5 8.5-7.8-6.6 18.7-47.8 23-55.6 11.3-20.3 54.5-86.2 74.6-94.6 6.3-2.6 10.3 4.6 7.2 9.6z"  fill="#005bbb" /><path d="M219.4-394.3c-47 54.2-126.8 106.3-135.9 182.9-4.7 39.4 11.2 77.1 16.1 115.7 0.4 3 4.7 20.6-3.6 17.9-4.8-1.6-1.8-9 2.8-6.9 4.6 2.1 0.8 9.2-3.5 6.6-5.3-3.2-4.3-30.1-5.4-36.6-9.5-53.7-25.8-102.4 2.2-154 14.8-27.3 94.1-117.6 119.1-134.9 6.3-4.4 12.1 3.7 8.2 9.3z"  fill="#005bbb" /><path d=""  fill="#005bbb" /><path d="M285.5-281.4c3.4 52.2 40.4 96.9 35.9 150.3-5.5 65.7-70 98.7-106.8 146-6.6 8.5-35.6 65.6-43.3 64-9.9-2.1-0.2-16.8 5.6-8.5 5.8 8.3-11.4 12.3-9.8 2.3 1.2-7.9 8.9-17.9 12.8-25 34.6-63.3 106.1-109 126.2-155.7 23.1-53.6-12-102.5-24.3-153.5-4.5-18.9 1.1-31.1 3.7-19.9z"  fill="#c2e1ff" /><path d="M294.4-354.4c-36.6 103.1 22 126.3 22.6 213.2 0.5 63.3-54.1 97.1-91.6 139.5-6.7 7.6-35.5 56.9-42.7 55.2-10-2.4 0.3-17 5.9-8.4 4.8 7.4-8.8 12.5-10.1 3.8-4.2-28.7 110-121.8 124.7-161.9 22.5-60.8-26.5-115.2-29.9-174.8-1.2-20.5 0.7-53 12.2-70.9 3.3-5.1 10-1 8.9 4.3z"  fill="#fff" /><path d="M302-112.5c-15 56.7-74.1 91.1-104.3 139.3-5.4 8.6-21.2 50.4-30.3 51.7-8.5 1.2-7.4-12.9 0.8-10.5 8.2 2.5 1.3 14.8-5.1 9.2-7.1-6.3 6.9-48.3 91.9-137 14.9-15.6 34-52.8 39-57.7 3.8-3.8 8.9 0.4 8 5z"  fill="#005bbb" /><path d="M307.7-237.9c14 40.7 34.9 80.7 23.6 124.9-15.7 61.3-81.3 91.1-117.5 138.8-6.6 8.6-26.4 52-35.6 52.9-7.5 0.7-8-11.1-0.5-11 8.8 0.1 5.5 14.3-2.4 10.5-9.5-4.5 7.3-25.4 10.4-30.7 36.5-62.6 104.5-98.6 130.1-148.4 23.8-46.3 2.1-90.5-13.2-135.2-1.2-3.4 3.6-4.9 5.1-1.8z"  fill="#c2e1ff" /><path d="M317.7-77.5c-29.1 43.8-78.6 69.3-109.2 112.5-5.4 7.7-20.6 42.8-29.3 43.7-8.8 0.8-7-13.7 1.4-10.7 8.3 2.9 0.6 15.3-5.7 9.1-9.4-9.2 33.1-61.9 40-70.3 27.8-33.8 65-57.9 93.2-91.3 5-5.9 13.2 0.4 9.6 7z"  fill="#fff" /><path d="M324.3-302.2c1.9 55.7 37.7 103.3 39 158.9 1.8 79.3-68.7 111.4-118.5 158.5-8.5 8-48.5 65.9-55.3 63.8-10.2-3.1 1.3-17.6 6.6-8.3 6.3 10.9-16.5 10.5-9.8-0.2 51.1-81.4 137.8-122.7 160-172.9 26.6-60.1-13.1-115.7-25.6-173.4-4.8-22.2 1.2-38.8 3.6-26.4z"  fill="#c2e1ff" /><path d="M314.5-397c-11.1 36.5-27.2 72.9-25.3 111.8 3.6 74.1 66.5 137.1 15.7 209.6-5.5 7.9-20.2 30.6-30.4 31.7-8.9 1-9.6-13.2-0.7-13.2 9 0 8.2 14.1-0.8 13.2-4.6-0.5-7.2-5.6-5.1-9.7 16-30.1 45.6-30.9 50-85 4.6-57.3-37.9-105.9-36.5-163.4 0.7-29.2 9-73.7 24.3-99 3.1-5.1 9.8-1.2 8.8 4z"  fill="#005bbb" /><path d="M339.4-164.5c5.2 27.5 1.3 55.8-12.7 80.2-25.6 44.4-74.9 68.8-106.9 108.1-6.1 7.5-35.1 59.2-42.4 54.6-7.5-4.7 2.9-15.2 7.7-7.7 4.8 7.4-9 12.5-10.2 3.7-0.9-6.2 7.3-15.3 10.3-20.4 32.9-56.1 78.4-82.1 119.5-128.4 12.9-14.5 22.8-31.5 27-50.6 2.9-13.5-0.1-26.1 1.1-39.3 0.4-4.1 5.7-3.7 6.6-0.2z"  fill="#c2e1ff" /><path d="M346.4-218.9c51.7 138.2-12.8 152.7-99.8 233.7-10.4 9.7-46.6 61.7-52.5 63.9-8.6 3.2-10.6-11.8-1.6-11.2 9.1 0.7 4.7 15.2-3.2 10.8-9.5-5.3 9.4-25.9 12.8-30.8 38.3-54.9 102.8-81.8 136.7-133.4 15.1-23.1 20.5-50.4 17-77.6-0.1-1.1-18-72.3-9.4-55.4z"  fill="#005bbb" /><path d="M354.5-188.8c35.2 115.9-52.4 143.5-118.1 211.4-8.5 8.8-35.6 56-45.4 56.4-9.1 0.3-6.4-14.5 2-11 7.2 3 1.8 14.1-5 10.3-9.3-5.2 8.2-24.2 11.5-29.2 36.4-53.5 92.2-78.2 130.4-126.3 14.9-18.8 23.7-41.4 24.6-65.4 0.6-15.7-5.5-30.2-5.8-45.3-0.1-3.6 4.6-3.8 5.8-0.9z"  fill="#fff" /><path d="M363.2-399.2c21.4 136.3 105.1 257.8 21.2 388.3-5.3 8.3-24.4 45.5-34.6 45.2-11-0.3-3.5-17.9 4.3-10.1 7.8 7.8-9.8 15.4-10.1 4.4-0.4-12.5 25.5-37.9 32.5-48.7 21.2-32.4 37.5-67.8 39.2-107 3.7-86-41.1-171.7-56.4-255.5-1.8-10 1.1-26.2 3.9-16.6z"  fill="#005bbb" /><path d="M371.9 0.6c-7.4 10.1-60.4 85.5-69.3 77.2-6.2-5.7 3.4-14.9 8.9-8.6 5.5 6.4-5 14.5-9.7 7.6-5.3-7.7 52.2-76.7 61.5-84.4 5.7-4.7 11.8 2.6 8.6 8.2z"  fill="#005bbb" /><path d=""  fill="#fff" /><path d="M385.3-260.9c44.7 144.1 39.2 194.9-73.7 300.1-7.3 6.8-39.9 44.9-48.8 39.7-6.6-3.8-1.9-14.2 5.3-11.8 8.4 2.7 3.4 15.8-4.7 12.2-14-6.3 19.4-31.1 24.4-35.9 40.3-38 87.4-75.2 107.9-128.5 21.9-57.1 2.4-116.4-15.1-171.8-1.3-4 2.4-9.1 4.7-4z"  fill="#fff500" /><path d="M394-149.1c6.2 90.2-67 130.6-126.7 181.3-8.4 7.1-42 46.1-47.7 47.4-9.5 2.3-9.8-13.9-0.2-12 9.6 1.9 3 16.8-4.8 11-16.9-12.4 119.2-114.9 131.8-128 15.8-16.4 28.4-35.9 34.9-57.9 3.7-12.6 0.5-32.5 5.7-43.3 1.8-3.7 6.5-2 7 1.5z"  fill="#fff" /><path d=""  fill="#fff500" /><path d="M407.8-361.1c52.4 98.8 66.6 214.6 91.6 322.9 3 12.8 28.3 111.5 14 115.5-5.9 1.7-6.5-8.5-0.5-7.5 6.1 1 2.3 10.4-2.7 7-5.4-3.6-2.6-31-3.2-37.7-4.9-53.3-20.3-106.2-32.7-158.1-17.7-74.4-26.4-154.4-61.6-223.1-2.9-5.7-6-11.2-8.9-16.8-1.3-2.7 2.4-4.4 4-2.2z"  fill="#005bbb" /><path d="M416.3-282.9c22.2 68 40.9 143.5 35.3 215.5-2.4 30.2-8.3 60-9.1 90.3-0.2 6.9 5 53.3-0.3 53.7-5.4 0.4-4.2-8.5 1-6.6 5.1 1.9 0.2 9.5-3.7 5.6-15.6-15.8 6-153.7 5.3-183.7-1.3-57.3-16.4-116.3-33.3-170.8-1.2-3.9 2.4-9.1 4.8-4z"  fill="#fff500" /><path d="M422.8-374.1c61.5 86.7 45.5 135.5 76 227.1 20.6 61.9 65.6 120.7 64.9 187.9 0 4.1 2.1 19.9-5.6 18.7-4.8-0.8-4.5-8.1 0.4-8.4 4.9-0.3 6.1 6.9 1.4 8.3-8.8 2.5-4-33-4.4-38.6-2.3-31.5-15.4-60.2-28.7-88.3-18.5-38.8-35.7-78.2-45.7-120.2-10.9-45.6-11-94.1-31.8-137-8.1-16.9-39.1-63.3-26.5-49.5z"  fill="#005bbb" /><path d="M432.6 70.7c1.2 13.4-11.5 1.6-4.2-0.4 7.5-2 3.6 11.5-1.7 5.8-5.2-5.6 4.2-12.6 5.9-5.4z"  fill="#c2e1ff" /><path d="M439.5-287.9c11 32.7 91.6 358.3 69.9 364.9-5.8 1.8-6.6-8.2-0.6-7.4 7 1 0.9 11.7-3.5 6.1-0.7-0.9-16.2-114.2-20.7-136.1-14.8-71.1-28-144-47.1-214-0.4-1.4-2.6-23.5 2-13.5z"  fill="#005bbb" /><path d="M462.4-399.5c84.1 81.5 36 157 75 250.8 11.2 26.9 63.3 100 63.9 121.2 0.1 4.3-7 3-5.2-1 2-4.7 8.2 1.6 3.5 3.6-4.4 1.9-15.2-28.8-17.5-33.2-22.8-43.2-52.1-82.2-63.7-130.6-9.9-41-3.5-83.1-10.6-124.3-5.5-31.5-21.2-58.1-43.3-80.8 0 0-6.1-8.8-2.1-5.7z"  fill="#c2e1ff" /><path d="M455.6-134.5c7.4 50.5 0.4 100.2 2.1 150.8 0.2 7.4 7.9 59.9 2.6 60.4-5.4 0.5-4.2-8.4 0.8-6.6 5.1 1.8 0.3 9.4-3.5 5.7-7.9-7.8-7.9-85.4-7.4-100 0.9-25.7 2.8-51.4 1.5-77.2-0.3-6.3-6.3-31-1.7-35.1 2.2-2 5-0.4 5.6 2z"  fill="#c2e1ff" /><path d="M461.5-353c40.1 55.7 28.9 124.3 48.6 186.8 17.3 55.2 56.8 100.4 73.2 155.5 3.9 12.9 10.1 83.8-1.9 88.4-6.9 2.6-8.7-9.6-1.3-9 8.7 0.6 2.1 14.2-3.8 7.8-3-3.3 14.7-59-7.3-110.7-20.9-49.1-53.3-91.3-68.3-143.3-13.6-47.4-8.2-99.3-27.1-145.1-4.1-9.9-11.8-18.9-15.3-28.8-0.8-2.1 2-3.2 3.2-1.6z"  fill="#fff500" /><path d="M514.8-399.4c48.4 72.5 6.5 158.2 32.7 236.1 9.2 27.2 50.9 86.1 53.5 103.8 0.6 4.3-6.7 2.5-4.2-1 2.5-3.5 6.6 2.8 2.3 3.7-4.3 0.9-15.5-25.3-17.8-29.4-70.7-121.6-42.5-112.2-48.4-236.5-0.9-19.9-4.8-39.6-12.9-57.9-0.5-1.2-10.6-25.6-5.2-18.8z"  fill="#c2e1ff" /><path d="M478.9 48.5c0.6 4.6 7 27.6-0.1 28.1-4.7 0.3-4.8-7.1-0.1-7 4.7 0.2 4 7.6-0.6 6.9-9.8-1.5-4.4-48.1 0.8-28z"  fill="#fff" /><path d="M486.6-256.4c6.2 45.8 13 89.2 31.8 131.9 28.7 65.6 75.5 123.1 56.6 199.2-2.1 8.4-14-0.1-7.1-4.8 6-4.1 10.5 7.2 3.4 8.3-10.5 1.7-1.4-24.9-0.8-29.4 3-23.1 0.9-46.2-6.6-68.4-19.9-59.1-58.9-108.5-73.6-170.2-5.1-21.5-8.5-43.8-10.5-65.8-0.4-4.5 5.8-5.1 6.8-0.8z"  fill="#c2e1ff" /><path d="M510.7-399.4c50.9 71.6 9.5 157.5 35.5 235.4 9.3 27.9 52.1 88.1 54.8 106.3 0.6 4.3-6.7 2.5-4.3-1.1 2.5-3.5 6.6 2.8 2.4 3.7-4.3 0.9-15.1-24.8-17.5-28.9-76.3-131.5-42.2-109-50.7-239.4-1.3-19.9-5.7-39.5-14.2-57.5-0.6-1.3-11.3-24.8-6-18.5z"  fill="#fff" /><path d="M537.5-399.7c31.9 74.9-8.1 153.2 13.7 229.1 8.3 29.1 47.1 85.1 49.7 101.6 0.7 4.1-6.5 2.6-4.1-0.9 2.4-3.5 6.5 2.6 2.4 3.5-4.3 0.9-15.7-25.2-18.1-29.2-61.4-106.7-37.7-123.9-37.2-235 0.1-23.1-17.2-89.5-6.4-69.1z"  fill="#fff" /><path d=""  fill="#fff" /><path d=""  fill="#005bbb" /><path d="M525.6 43.8c0.4 5.2 4.7 34.6-3.8 33.9-5.4-0.5-4.2-9 1.1-7.9 5.3 1.1 3.2 9.4-2 7.7-8.7-2.8 0.6-57.4 4.7-33.7z"  fill="#005bbb" /><path d="M533.7 65.2c-0.1 3 0.7 14.9-6.2 11.6-5-2.4-0.8-10.1 3.9-7.2 4.1 2.5 1 8.9-3.5 7.4-12.2-4.2 4.9-24.2 5.8-11.8z"  fill="#005bbb" /><path d=""  fill="#fff500" /><path d="M547.2-64c20.8 39.2 35.2 78.2 28.9 123.2-0.7 4.7-0.5 14.7-4.2 17.9-5.5 4.7-11.2-5.9-4.2-7.9 6-1.7 8.2 7.9 2 9-9.8 1.7-2.9-16.7-2.3-20.3 2.8-16.3 3.6-32.8 1.4-49.2-1.7-12.3-26.9-70.3-25.6-72.8 0.9-1.7 3-1.4 4 0.1z"  fill="#c2e1ff" /><path d="M555.3-32c11.7 27.4 17.3 56.2 14.4 86.1-0.5 5 0.1 23.3-7.1 23.9-7.2 0.6-5.5-11.2 1.3-8.8 6.7 2.5 0.3 12.5-4.8 7.5-5.1-5.1 3.2-32.4 3.5-40 0.9-23-18.4-88.9-7.3-68.7z"  fill="#005bbb" /><path d="M562.6-59c21 38 32.6 77.1 25 120.6-0.7 4.1-0.8 12.9-4.4 15.8-5.8 4.7-11.3-6.3-4.1-8.2 6.2-1.6 8.1 8.3 1.8 9.2-10.1 1.4-2.3-18.1-1.6-21.8 2.9-15.1 4-30.5 2.5-45.8-2.4-23.6-25.6-64.9-23.1-69.8 0.9-1.7 3-1.4 3.9 0z"  fill="#005bbb" /><path d="M572.8-317.2c-9.9 54-24.9 105.7-6.6 159.8 6.8 20.2 16.8 39 27 57.7 1.2 2.2 11.7 16.1 5.6 16.7-3 0.3-3.3-4.4-0.2-4.4 3 0 2.8 4.8-0.2 4.4-4.1-0.4-8.8-14.2-10.7-17.6-21-38.4-39.2-77.5-38.8-122.2 0.3-28.5 3.4-70.9 15.4-97.1 2.3-5 8.8-2.2 8.5 2.7z"  fill="#c2e1ff" /><path d=""  fill="#005bbb" /><path d="M587.9 38.3c-0.2 6-0.9 42.4-10.9 39.5-6.1-1.8-2.7-11.2 3.1-8.8 5.8 2.4 1.5 11.4-4 8.4-4.3-2.4 1.4-38.8 4.9-42.3 2.9-2.8 6.7-0.3 6.9 3.2z"  fill="#fff" /><path d="M594-35c7 16 21 113.2 2.6 113.5-6.5 0.1-6-10.1 0.4-9.5 6.4 0.6 4.9 10.7-1.4 9.4-7.4-1.6-1.7-22.7-1.7-27.2 0.1-22.1 1.1-44.3 1.2-66.4 0-0.7-7.6-31.5-1.1-19.8z"  fill="#c2e1ff" /><path d="M601.6-397.5c-9.5 70.7-48.4 143.8-35.7 216 2.9 16.3 35.6 83 34.8 87.8-0.7 4.1-6.9 0.4-3.6-2.1 3.3-2.5 5.3 4.5 1.1 4-5.9-0.6-16.2-28.7-18.8-34.1-47.5-97.7-3-170 12.8-267.5 0.9-5.8 9.7-14.4 9.4-4.1z"  fill="#fff" /><path d=""  fill="#c2e1ff" /><path d="M603.4-289.9c-16.2 38.6-28.2 78.9-19.8 120.9 1.4 6.8 17.2 54.3 15.2 54.4-2.8 0.1-3.5-4.1-0.7-4.8 3.2-0.9 4.3 4.3 1 4.7-5.6 0.9-14.2-28.6-15.8-33.3-15-43-11.6-85.5 3.6-127.9 2.2-6 4.3-12.1 6.9-18 2.8-6.2 11.3-2.4 9.6 4z"  fill="#fff500" /><path d="M603.3-274c-14.5 34.6-22.8 70.9-15.2 108.2 1.2 5.7 14.2 43.9 10.6 44-12.3 0.2 12.1-5.6 1-0.2-5.4 2.6-10.6-19.1-11.8-22.7-10.8-30.9-13.6-63-6.3-95.1 9-39.7 26.2-51.1 21.7-34.2z"  fill="#c2e1ff" /><path d=""  fill="#005bbb" /><path d=""  fill="#005bbb" /><path d=""  fill="#fff" /><path d="M603.5-288.9c-15.8 37.5-27.5 76.8-20 117.7 1.3 7 16.8 55.7 15.2 55.7-2.8 0.1-3.5-4.1-0.8-4.8 3.2-0.9 4.3 4.3 1 4.8-5.6 0.9-14.5-29.8-16.1-34.7-14.1-42-10.6-83.5 4.2-124.7 7.7-21.5 20.7-29.3 16.5-14z"  fill="#fff" /><path d=""  fill="#c2e1ff" /><path d=""  fill="#fff" /><path d="M603.5-258.3c-11.7 29.6-17.2 60.8-11.4 92.4 0.9 4.7 11.7 36.2 6.6 36.1-13.3-0.3 13.3-5.6 1.1-0.2-5.6 2.4-9.5-18.1-10.4-21.4-9.8-32.7-9.4-66 0.6-98.6 1.2-3.9 2.2-11 5.4-13.8 4.2-3.7 9.3 0.8 8.1 5.5z"  fill="#fff500" /><path d="M603.2-241.8c-8.3 23.9-11.4 49-7.5 74.1 0.6 4 9.2 28.6 2.7 28.1-3.3-0.3-3.5-5.2-0.2-5.7 3.8-0.5 4.4 5.5 0.5 5.7-5.8 0.2-8-20-8.9-24.3-5.6-26.5-4.6-55 4.1-80.8 2.1-6.2 10.5-3.1 9.3 2.9z"  fill="#005bbb" /><path d=""  fill="#c2e1ff" /></svg>