<svg width="1200" height="675" viewBox="-500 -500 1200 675" xmlns="http://www.w3.org/2000/svg"><path d="M-500-500h1200v675h-1200z" fill="#000"/><path d=""  fill="#005bbb" /><path d=""  fill="#fff" /><path d=""  fill="#fff500" /><path d=""  fill="#c2e1ff" /><path d=""  fill="#005bbb" /><path d=""  fill="#fff500" /><path d=""  fill="#c2e1ff" /><path d="M-397.9-27.3c24 21.7 91.3 64.7 90.9 101-0.1 5.8-9.4 3.6-6.9-1.6 2.5-5.2 10 0.7 5.6 4.4-6.4 5.3-9.7-13.4-10.7-15.8-5.1-12.3-12.1-23.6-20.6-33.9-16.5-19.8-37.9-34.3-57.8-50.4-1.1-0.9-3.6-5.8-0.5-3.7z"  fill="#fff500" /><path d="M-397.4-31.5c25.1 22.9 96.1 66.3 95.5 104.7-0.1 5.8-9.5 3.6-6.9-1.7 2.5-5.2 10.1 0.7 5.6 4.5-6.3 5.2-9-11.6-9.9-14.1-5.3-13.6-13-26.2-22.5-37.3-17.6-20.8-40.5-35.5-61.4-52.5-1.2-1-3.6-5.8-0.4-3.6z"  fill="#fff" /><path d="M-396.6-80.9c32.4 51.1 97 66.5 123.3 125.1 2.5 5.6 13.6 26.9 8.7 32.2-3.7 4-9.7-2.2-5.5-5.8 4.1-3.5 9.4 3.3 4.8 6.3-7.9 5.4-10.3-19.2-11.4-22.7-5.8-17.7-14.8-34.2-26.7-48.5-24.5-29.6-60-45.6-86.8-72.4-15.6-15.6-7.8-15.6-6.4-14.2z"  fill="#fff500" /><path d="M-397.7-10.3c13.5 12 75.8 66.1 69.9 84.5-1.4 4.5-8.5 1.9-6.6-2.5 2.3-5.1 9.7 0.4 5.6 4.1-4.3 3.8-21.6-34.6-25.5-39.9-12.8-17-29.2-30.3-45.2-44.2-1.3-1.2 0.4-2.9 1.8-2z"  fill="#c2e1ff" /><path d="M-388.3-128.1c18 70.3 109.1 91.3 135.4 176.1 1.8 5.9 8.6 21.3 5.7 27.1-3 5.9-11.5-1.1-6.3-5.2 4.5-3.5 9.6 3.8 4.8 6.8-8.2 5.1-8.8-16.4-9.6-19.6-4.8-20.7-12.7-40.7-24.4-58.4-25.2-38.1-67.6-57.6-95.3-93-6.4-8.2-16.7-21.7-17.4-32.4-0.3-4.5 5.4-5 7.1-1.4z"  fill="#fff" /><path d="M-375.9-363.8c-21.1 53.5-14.5 209.7 18.2 257.6 33.1 48.3 84.6 74 106.4 131.7 1.7 4.4 7.2 14.6 5.3 19.2-2.3 5.6-10.6-0.1-6.1-4.2 4.4-4.1 9.6 4.5 3.8 6.4-4.4 1.5-22.7-50.1-26.9-57.1-24.7-41.3-69.3-64.7-94.3-105.3-29-47-25.7-118.3-28.9-171.9-1.4-23.7-2.7-61.3 11.1-82.1 4.3-6.5 12.9-1.1 11.4 5.7z"  fill="#fff500" /><path d=""  fill="#fff" /><path d=""  fill="#c2e1ff" /><path d="M-350.8 34.7c4.1 4.9 28.8 36.4 21 41.9-3.9 2.7-7.9-3.7-3.7-6 4.2-2.3 7.5 4.5 3.1 6.4-4.7 2-28.2-50.4-20.4-42.3z"  fill="#fff" /><path d="M-341.7-76c42.7 39.7 81.6 72.3 96 131.7 1.1 4.7 6.4 17.1 2.3 21-4.2 4-10.1-3-5.5-6.4 4.6-3.5 9.7 4 4.8 7-8.4 5-8.7-16.6-9.4-19.8-4.6-22.1-12.3-43.6-24.2-62.9-16.5-26.7-40.4-46.4-63.8-66.8-1.2-1.1-3.5-6.1-0.2-3.8z"  fill="#005bbb" /><path d="M-329.4-324.2c16.2 54 56.3 97.6 77.6 149.6 24.1 58.8 24.3 125.8 31.2 188.1 1 8.8 11.4 61.2 2.8 64.4-7.9 3-7.6-11.7 0.2-8.5 7.8 3.3-2.5 13.7-5.9 6-8.5-19.5-15.4-167.3-22.8-205.3-13.5-70.1-62-120.7-87.4-185.4-1.8-4.5 0-17.6 4.3-8.9z"  fill="#005bbb" /><path d="M-320.3-242.3c45.5 92.6 82.3 169.2 96.9 272.9 1 7.2 9.6 43.9 2 46.9-7.8 3-7.7-11.6 0.1-8.4 6.6 2.7-0.2 12.5-5.1 7.3-1.1-1.2-18.6-121.6-25.5-147.4-15.9-58.9-45.2-112.1-72.5-166.2-1.9-3.9 0.7-10.2 4.1-5.1z"  fill="#005bbb" /><path d="M-310.7-142.4c16.1 29.3 36.6 56 51.4 86.1 15.7 31.8 25.4 66.3 31.2 101.3 0.9 5.7 8.1 29.9 1 32.7-7.7 3.1-7.7-11.3 0-8.3 6.6 2.6 0 12.3-4.8 7.2-3.8-4-15.2-82.6-19.8-96.7-14.3-44.2-41.3-79.6-63.8-119.5-1.8-3.2 2.7-5.5 4.8-2.8z"  fill="#fff" /><path d="M-301.7 13.7c5.7 6.6 40.7 56.3 28.9 63-4.6 2.6-8.4-4.9-3.5-7 5.7-2.5 7.7 7.7 1.4 7.6-6.4-0.2-10.3-25.7-12.6-31.1-4.6-10.8-22.5-40.8-14.2-32.5z"  fill="#fff500" /><path d="M-291.1-308.4c24.5 43.3 57.3 82.8 69 132.2 11 46.3 2.1 95.1 3 142.1 0.7 32.3 3.7 64.5 6.2 96.8 0.2 3.3 3.5 17.9-5.1 15.3-5.1-1.6-3.6-9.3 1.7-8.9 5.3 0.4 5.5 8.4 0.3 9.1-15.5 2.1-9.6-218.7-12.3-241-6.2-52-37.5-93.5-63.9-136.9-1.4-2.3-4.2-15.5 1.1-8.7z"  fill="#fff" /><path d="M-274-399.5c16.9 68.3 67.6 123.1 79.4 193.5 10.6 63.1-18.5 125.8-19.1 189.2-0.1 5.1 4.1 25.7-4.7 25.5-6.5-0.1-5.7-10.3 0.8-9.5 5.5 0.7 5.3 9-0.2 9.5-16.5 1.4 17-189.4 15.1-209.5-6.6-70.1-55.1-125-76.5-190-1.6-5 1.2-18.1 5.2-8.7z"  fill="#005bbb" /><path d="M-271.6-263.4c56.1 87.3 47.8 130.4 51.3 228.4 1.3 36.1 6.7 72 7.7 108.1 0.3 8.7-13.2 3.9-8.1-2.5 5.3-6.6 12.6 6.2 4.1 7.3-13.5 1.9-13.1-197-14.3-217.6-2.5-42.5-19.1-79.4-41.3-115.1-1.1-1.7-4.8-15.1 0.6-8.6z"  fill="#005bbb" /><path d="M-260.9-104.2c14.3 33.5 48.9 145.2 41.2 178.7-1.6 7-12.3 1.9-8-3.8 5.1-6.6 12.5 5.9 4.3 7.2-7.1 1.1-14.3-74.3-16.3-84.3-5.4-28.1-29.6-94.5-27-98.4 1.5-2.4 4.5-1.6 5.8 0.6z"  fill="#c2e1ff" /><path d="M-251.7-232.3c39.8 69.5 28 141 32.4 217.4 0.7 13 10 84.4 6 90.7-3.9 6.1-12.4-2.4-6.3-6.3 6.1-3.9 10.3 7.4 3.1 8.4-13 1.8-13.2-182.3-13.4-201.8-0.6-66.6-14.8-60.3-26.9-106.4-0.9-3.3 3.4-4.5 5.1-2z"  fill="#c2e1ff" /><path d="M-234.9-399.3c23.9 66.3 58.8 133.8 56.8 206.1-1.5 53-27.3 101.7-32.3 154.4-0.9 9.1 1.8 69.6-5.7 69.6-7.5-0.1-4.7-12.2 2.1-9 6.8 3.2-0.9 13.1-5.7 7.3-3.9-4.7-1.7-17.8-1.9-23.7-2.5-87.2 31.5-136.8 33.6-206.9 2-65.5-27.6-129.3-50.8-189-1.5-3.8-0.7-17.6 3.9-8.8z"  fill="#005bbb" /><path d="M-230.1 69.4c2.2 16.5-14.2 2.4-5.2-0.3 9.2-2.8 4.9 14.1-1.8 7.3-6.7-6.7 4.8-15.8 7-7z"  fill="#fff500" /><path d="M-221.5-374.2c19.6 49.7 39 101.9 43.7 155.5 6 67.3-30.2 128.3-33.6 195-0.6 11.6 5.1 100.5-1.8 100.6-7.3 0.1-4.9-11.8 1.7-8.8 5.7 2.5 1.3 11.3-4.1 8.2-7.3-4.2-4.3-35.5-4.7-43.3-6.5-127.1 25.9-138.1 32.9-227.4 4.6-57.8-17.2-118-37.8-171-1.4-3.5-1-17.5 3.7-8.8z"  fill="#005bbb" /><path d="M-211.6-315.2c14.4 36 27.8 74.3 29.6 113.3 3.1 63.7-29 123.4-30.3 187.4-0.2 10.8 6.5 92.5-1.1 92.7-7.3 0.1-4.9-11.7 1.7-8.8 5.7 2.5 1.3 11.3-4.1 8.2-7.3-4.2-4.4-35.5-4.8-43.4-6.2-115.2 15.2-118.3 27.5-212.2 6.9-52.5-26.3-124.6-25-136.4 0.4-3.7 4.9-3.6 6.5-0.8z"  fill="#fff" /><path d="M-199.5-8.4c-1.5 10.5-0.7 86.2-6.7 86.3-6.3 0-5.8-9.9 0.4-9.3 6.3 0.7 4.7 10.5-1.4 9.2-10.1-2.2-6.5-78.8-2.8-88.7 2.3-6.2 10.5-3.4 10.5 2.5z"  fill="#005bbb" /><path d="M-189.1-114.9c-18.8 51.5-23.2 101.4-20.7 155.9 0.3 6.3 5.9 34.2-1.3 36.8-5.9 2.1-8.7-7.4-2.6-8.8 7.1-1.7 7.3 10.4 0.2 8.9-9.2-1.9-6.5-52.3-6.8-60.8-1.4-40.4-3.5-102.2 19.9-137.6 4.3-6.5 12.8-1.1 11.3 5.6z"  fill="#fff" /><path d="M-181.3-365.8c13.2 57.4 23 127.5 12.1 185.8-9.4 50.6-35.2 95.7-40.2 147.5-1.2 12.5 2.6 110.4-3.1 110.6-6.3 0.1-5.9-9.8 0.3-9.2 7.3 0.7 3.6 12.2-2.7 8.5-7.4-4.3-4.4-37.3-4.8-45.4-5.8-127.2 24.7-126.8 41.4-225.9 11.4-67.6-12.7-125.3-11-171.2 0.2-4.9 6.6-4.8 8-0.7z"  fill="#fff500" /><path d="M-169.2-50.2c-26.5 38.8-21.8 119.6-26.3 126.2-4.2 6.2-12.7-2.9-6.3-6.7 7.5-4.5 9.9 10.6 1.3 8.6-8.1-1.8-4.4-26.4-4.3-32.1 0.4-35 4.8-70.1 21.9-101.2 5.1-9.3 18.4-5.3 13.7 5.2z"  fill="#fff500" /><path d="M-149.2-399c7.9 44.8-2.7 186.7-16 230.5-10.9 36-29.4 69.3-38 106.2-2.1 9.1-5.3 69-12.1 68.6-7.8-0.5-4.3-12.9 2.6-9.3 6.9 3.7-1.5 13.5-6.2 7.3-3.3-4.4-1-14.8-0.8-19.9 2-66.9 36.3-119.7 50-183.3 10.6-48.7 15.6-148.9 12-198.9-0.4-5.7 7.2-6.4 8.5-1.2z"  fill="#fff500" /><path d="M-150.8-361c1 55.5 1 128.2-12.3 181.8-12.7 51.3-40.3 96.2-45.5 149.6-1.6 16.2 4.3 99.7 0.3 105.8-4.7 7.2-13.3-5-4.9-7 7.1-1.7 7.3 10.4 0.1 9-8.2-1.7-5.5-32.4-5.8-39.2-6.4-136.2 21.9-124.3 47.1-232.8 12.5-53.8 8-112.3 11.2-167.2 0.4-6.5 9.1-6.1 9.8 0z"  fill="#005bbb" /><path d="M-140.7-363.7c-2 48.1-8.5 140.4-20.5 185-13.7 51-41.6 95.6-47.1 149.1-1.7 16.2 4.1 99.7 0.1 105.7-4 6.1-12.5-2.5-6.3-6.4 7.3-4.5 9.9 10.1 1.5 8.4-8.2-1.7-5.4-32.5-5.7-39.2-5.7-125.1 19.5-123.6 47.9-228.5 15.1-55.9 12.7-117.4 19.7-174.7 0.8-6.8 10-5.8 10.4 0.6z"  fill="#c2e1ff" /><path d="M-130.3-264.7c-7.1 28.7-11.8 58-21.7 86-18.6 52.4-49.7 97.3-55.4 153.9-1.6 15.6 3.8 95.1-0.2 101-4 6.1-12.5-2.6-6.3-6.4 7.3-4.5 9.9 10.1 1.6 8.4-8.2-1.7-5.4-31.9-5.7-38.5-4.2-98.5 14.8-128.6 50.9-215.5 11.5-27.7 14-69.9 25.8-92.9 3.3-6.4 11.7-2.3 11 4z"  fill="#c2e1ff" /><path d=""  fill="#fff500" /><path d="M-110.8-398.3c0.2 14.2-41 207.3-47.5 226-12.2 35.6-32 68.2-42 104.6-5.4 19.7-7 93.7-9.8 97.7-5.2 7.2-13.5-5.8-4.8-7.5 7.5-1.5 7.2 11.2-0.2 9.3-15.9-3.9 1.4-95.8 4.8-108.5 10.8-40.7 33.6-76.6 45.7-116.8 20.3-66.9 24.2-139.3 43.9-206.4 1.7-5.9 9.4-3.8 9.9 1.6z"  fill="#fff500" /><path d="M-100.4-281.9c-19 35.4-28.4 74.9-45.6 111.1-22.6 47.6-52.7 89.3-59.7 142.9-3.6 27.8-2.7 56.1-1.4 84.1 0.2 3.9 4.6 24.4-5.1 21.3-5.1-1.6-3.5-9.5 1.8-9 5.3 0.5 5.5 8.5 0.1 9.2-9.8 1.2-6.9-35.2-7.1-41.3-4.1-115.6 24.9-134 67.5-231.2 13.4-30.5 21.2-64 37.2-93.3 4.4-8.1 15.3-2 12.3 6.2z"  fill="#fff500" /><path d="M-90.5-246.3c-29.2 47.2-103.5 164.6-112.2 212.4-5.3 28.9-4.7 58.6-3.5 87.8 0.2 3.9 4.9 27.2-5.1 23.9-6-1.9-2.4-11.2 3.3-8.6 5.7 2.6 1.2 11.4-4.2 8.2-7.8-4.6-4.2-41-4.4-49.6-2.1-102 30.2-136.2 78.8-218.7 9.5-16.1 21.5-55.6 37.3-65.2 6.8-4.2 12.8 3.5 10 9.8z"  fill="#fff" /><path d="M-81.1-6.6c-6 19.5-7.1 40.5-2.5 60.5 0.8 3.5 10.7 22.6 3.3 22.9-4.2 0.2-4.1-6.5 0.1-6.1 3.6 0.2 3.8 5.6 0.3 6.1-17.5 2.6-17.7-77.3-12.3-87.6 3.4-6.5 11.9-2.2 11.1 4.2z"  fill="#fff500" /><path d="M-70.9-291.5c-14 18.5-105.3 181.4-116.3 205.3-7.8 16.9-13.3 34.7-16.4 53.1-4.9 29-4.1 58.6-2.9 87.9 0.2 4.3 5 26.5-5.1 23.3-5.1-1.6-3.5-9.5 1.8-9 5.3 0.5 5.5 8.5 0.2 9.2-9.1 1.1-6.3-23.1-6.6-27.8-5.7-128.5 22-142.7 76.8-248.1 17.9-34.5 31.8-72.1 56.2-102.9 6.2-7.9 16.9 0.6 12.3 9z"  fill="#fff" /><path d="M-62.6-397.4c-4.6 40.9-32.6 74.1-48.7 110.7-14.7 33.4-21.2 69.6-34.3 103.6-11.7 30.4-29 58-42.1 87.8-10.7 24.3-17.3 49.8-19.6 76.2-0.4 4.8 2.4 30.6-8.1 26.3-7.3-3 0.2-13.8 5.6-8 4.6 5-3.7 11.8-7.7 6.3-3.7-5.1-0.7-18.1-0.3-24 3.7-65.1 37.4-113.4 61-171.8 14.3-35.2 20.9-72.9 36-107.9 13.8-32 37-60.7 45.6-94.7 1.7-6.7 13.3-18.1 12.6-4.5z"  fill="#fff" /><path d="M-51.3-318.4c-34.6 46.8-140.1 226-150.7 276.4-6.3 30.1-5.9 61-4.8 91.6 0.2 4.3 5.4 31.3-4.9 28-5.1-1.7-3.5-9.5 1.9-9 5.4 0.5 5.5 8.5 0.1 9.2-9.2 1.1-6.4-23.6-6.6-28.5-1.7-38.2-2.4-77.2 7.8-114.4 11.1-40.8 114.9-223.3 143.4-260.4 6.6-8.6 19.9-3.4 13.8 7.1z"  fill="#fff" /><path d="M-41.6-105.5c-35.3 38.9-83.5 69.8-102.3 121-5.4 14.7-6.1 57.6-11.2 61.4-6.9 5.2-10.9-9.4-2.3-8.4 7.4 0.8 3.4 12.5-2.9 8.6-6-3.6-2.8-20.8-2.5-26.5 3.8-63.6 43.9-104 87.5-145.4 6.8-6.5 16.2-20.7 25.1-23.8 8.4-2.9 13.1 6.9 8.6 13.1z"  fill="#005bbb" /><path d="M-34.4 2.8c6.8 24.9 25.5 43 45.2 58.5 3 2.4 14.4 8.8 15.2 12 0.1 0.4-0.1 0.9-0.4 1.2-6.1 4.5-62.4-60.1-63.7-62.9-2.4-5-0.5-17.1 3.7-8.8z"  fill="#fff" /><path d="M-19.4-397.5c-2.9 52.7-45.1 88.8-71 131.1-27.5 44.9-46.7 94.2-74.4 139.3-14 22.7-26.8 46-34 71.8-1.5 5.5-3 34.9-13.5 28.9-7.6-4.3 2.1-15 7.2-8 5.1 7.1-8.3 12.8-9.9 4.2-8.9-47.5 54.9-128.2 75.9-169.8 14.1-28 25.7-57.2 42.4-83.8 17.8-28.3 42.4-52.7 56.8-83.1 4.7-9.9 4.9-25.9 10.8-34.3 3.4-4.9 9.7-1.4 9.7 3.7z"  fill="#c2e1ff" /><path d="M-15.2-9.3c16.4 44.8 73.3 56.7 85.9 82.2 1.2 2.3-3.1 3.4-3.2 0.8-0.1-3.1 4.9-1.2 2.9 1-2 2.2-77-60-83.2-68.2-11.9-16-6.5-22.3-2.4-15.8z"  fill="#fff500" /><path d="M-2.2-254.1c-46.1 58.6-166.9 156-187.2 209.4-9.7 25.3-11 118.3-12.6 120.6-4.8 7.2-13.3-5.2-4.9-7.2 8.5-1.9 6.1 13-1.3 8.6-8-4.8-3.6-42.4-3.5-51.2 1.3-98.4 43.2-134.6 110.5-197.1 30.3-28.2 58.7-59.1 85.2-90.8 7-8.4 20.4-2.7 13.8 7.7z"  fill="#c2e1ff" /><path d="M22.8-398.8c5 29.1 1.1 58.6-12.3 85.1-27.2 53.9-109.9 138.5-152.7 185.6-8 8.8-43.9 64.4-51.5 60.2-11.1-6.1 5.9-20 9.7-8 3.3 10.3-14.5 11.9-13.2 1.2 3.4-27 132.3-167.1 158.5-197.1 19.5-22.5 39.6-46 48.5-74.9 5.6-17.9 2.2-34.2 4.3-52 0.6-5.3 7.5-4.6 8.7-0.1z"  fill="#fff" /><path d=""  fill="#fff" /><path d="M27.4-309.3c-38.3 97.3-169.8 167.9-210.6 247.8-13 25.4-17.7 53.6-18.8 81.8-0.4 9.8 4.5 36.5-0.9 44.2-5.1 7.2-13.5-5.6-4.8-7.3 8.7-1.8 5.9 13.4-1.6 8.6-7.5-4.7-2.9-38.9-2.8-47.2 3.2-125.8 97.8-175.5 174-260.7 10.1-11.3 54.2-74.2 55.3-75.1 5.8-4.5 12.1 1.9 10.2 7.9z"  fill="#fff500" /><path d="M31.9 6c7.7 6.9 83.4 58.8 73.9 69.3-2.8 3-6.7-2.6-3-4.2 3.8-1.6 5 5.1 0.9 5-4.9-0.2-16.7-21.9-20.7-26-15-15.7-33.5-27.2-50.5-40.5-1.1-0.9-3.7-5.6-0.6-3.6z"  fill="#fff" /><path d="M45.8-357c6.6 124.3-134.1 193.3-204.9 272.1-16.3 18.1-27.9 39.4-34.1 63-1.8 7-1.7 32.2-8.1 35.8-7.3 4.1-11.3-9.2-2.9-9.9 9.8-0.7 4.7 15.5-3 9.4-6.1-5 0.2-25.2 1.4-31.8 16.4-91.4 118.4-144.2 178.4-212.2 21.3-24.1 42.5-49.7 54.3-80 5.6-14.4 3.1-36.1 9.8-48.7 2.5-4.8 8.6-2.4 9.1 2.3z"  fill="#c2e1ff" /><path d=""  fill="#fff" /><path d="M65.1-102.5c3.7 62.6 84.4 131.9 81.8 176.2-0.4 7.1-11.6 1.8-6.4-3 4.4-4.1 9.6 4.5 3.8 6.4-5.9 1.9-17.5-39.9-20.4-46.3-17.4-36.7-47.8-66.6-61.3-105.1-8.5-24.2-1-43.4 2.5-28.2z"  fill="#fff500" /><path d="M71.6-11.1c8.1 8.2 76.4 76.3 61.2 87.3-4.4 3.2-8-5.1-2.7-6.2 5.4-1 5.1 8-0.2 6.8-5.9-1.4-13.8-28.6-17.2-34.5-8.3-13.9-40.4-41.3-43.7-51.8-0.5-1.7 1.4-2.5 2.6-1.6z"  fill="#fff500" /><path d="M86.1-185.6c-15.4 61.6-12.3 110.4 20.9 165.3 5.4 9 53.4 95 39.8 97.7-5.2 1-6.3-7.3-1.1-7.7 5.3-0.4 5.5 7.9 0.2 7.8-6.7-0.2-9.6-24.5-11.3-29.7-18.1-52.5-61-95.2-68.1-151.4-3-24.5-3.2-63.6 8.6-86.1 3.3-6.4 11.8-2.3 11 4.1z"  fill="#c2e1ff" /><path d="M116.9-399.6c83.9 121.8 18.4 192.8 14.4 309.9-0.6 16.7 16.6 89.6 14.6 94.7-2.3 5.6-10.5-0.1-6.1-4.2 5.2-4.8 9.6 6.6 2.6 6.5-15-0.1-21.3-92.9-20.9-105.4 1.7-54.2 24.6-105.1 27.1-159.3 1.7-37-4.1-74.9-19.1-108.9-3.9-8.8-16.2-22.6-17.1-31.7-0.3-2.7 3-3.4 4.5-1.6z"  fill="#fff" /><path d=""  fill="#fff500" /><path d="M115.3-241.2c-7.9 67.7-32.6 128.3-6.1 195.5 4.7 11.9 55 120.7 42.2 122.8-4.6 0.8-6.5-6-2.1-7.7 5.1-2 7.8 6.2 2.5 7.6-7.7 2.1-11.4-29.2-13.1-34.5-16.5-53.2-50.7-100.5-52.9-157.7-1.2-30.7 7.7-100.6 18.9-128.8 2.5-6.2 10.6-3.2 10.6 2.8z"  fill="#fff" /><path d="M122.9-345.2c38.8 98.1-19.2 179.8-4.3 275.2 2.4 15.3 45.6 146.1 37.1 147.3-18.3 2.5 14.2-15.9 2.7-1.5-5.7 7-8-5.9-8.5-8.3-10.5-54.5-38.7-105.1-42.8-160.7-3.9-52.2 15.2-101.4 20.1-152.8 3.9-41.1-7.2-61.2-10.9-97.7-0.4-4.2 5-4.8 6.6-1.5z"  fill="#fff500" /><path d="M131.9-390.3c73.4 122.7 2.9 199.6 2.8 312.1-0.1 36.4 10.9 71.3 19.5 106.3 1.2 4.8 11.2 30.6 2.7 31.8-8.9 1.3-2.6-13.7 2.7-6.4 3.7 5-6 9.7-7.9 0.1-10.1-50.5-29.5-100-26.5-152.4 3-52.8 25.3-102.1 28.7-154.9 2.1-34.3-1.7-69.6-12.8-102.1-3.7-10.9-11.2-21.5-14.2-32.5-0.9-3.2 3.3-4.5 5-2z"  fill="#005bbb" /><path d="M152.4-399.6c60.6 133.2-5.3 216.8-10.6 321.9-0.9 18.1 16.7 100.4 14.2 105.8-3.1 6.8-12-2.7-5.1-5.4 5.9-2.4 7.6 8.1 1.3 7.8-7-0.4-8-22.3-9.1-27.4-25.5-114 10.9-145 21.4-247.9 4.9-47.9 1.4-100.6-15.6-146-1.1-2.9-1.4-17.5 3.5-8.8z"  fill="#fff500" /><path d="M154.6-80.4c-6.2 41.1 2.5 81.7 9.5 122.1 0.9 5.4 10.1 35.5 1.1 36.2-5.9 0.5-6.1-8.9-0.3-8.7 5.9 0.2 5.2 9.5-0.7 8.7-7.9-1.1-9.9-43.3-11.2-50.8-5.5-30.8-20.4-79.4-8.9-110 2.3-6.2 10.5-3.4 10.5 2.5z"  fill="#fff500" /><path d="M176.3-398.9c12.8 70.4 13.7 148.8-4.7 218.2-8.2 31-19.6 61.3-23.7 93.3-1.9 14.9 6.3 79.3 3.7 84.2-3.4 6.9-12.3-3.1-5.1-5.7 6.1-2.2 7.6 8.5 1.1 8-14.2-1.2-11.2-80.6-10-91.9 5.2-47.2 25.5-91 32.7-137.8 5.9-38.3 5.2-77.6 2.9-116.1-0.8-13.7-9.2-40.2-5-52.8 1.5-4.4 7-3.2 8.1 0.6z"  fill="#c2e1ff" /><path d="M173.4-306.3c9.4 100.6-40.5 175.8-31 262.2 1.9 17.6 26.6 112.1 22.6 119.5-3.8 7-12.7-3.6-5.1-6.1 6.5-2.1 7.6 9.1 0.8 8.4-7.4-0.9-9.8-38-11.3-45-31.2-146.8-12.1-121.6 11.3-255.9 4.8-27.6-0.8-56.7 3.6-83.6 0.9-5.5 8.1-4.5 9.1 0.5z"  fill="#005bbb" /><path d="M183.7-280.9c-0.4 83.8-44.5 160.9-37 241.1 1.6 16.9 23.5 108.3 19.6 115.2-3.9 7-12.7-3.7-5-6.1 6.5-2.1 7.6 9.2 0.7 8.3-7.5-0.9-8.7-34-9.9-40.5-25.2-129.9-12.4-125.8 13.9-248 3.5-16.2 2.4-61.6 8.3-72.5 2.6-4.8 8.9-2.3 9.4 2.5z"  fill="#c2e1ff" /><path d="M193.4 36c-0.1 6.7 5.1 42-3.9 41.8-6.4-0.1-5.8-10.2 0.6-9.4 6.4 0.8 4.6 10.8-1.7 9.3-6.9-1.6-7.1-38.6-4.2-44 2.5-4.8 8.7-2.4 9.2 2.3z"  fill="#fff500" /><path d="M204.1-195.7c-13.5 63.6-44.3 119.2-40.1 186 0.8 12.3 12.2 80.3 9.1 85.6-4.2 7.1-13-4.3-5-6.6 6.8-1.9 7.5 9.8 0.5 8.7-7.7-1.2-7.1-31.9-8.1-38.5-14.2-106.8 3-129.2 29.5-227.3 4.1-15.4 15.3-18.9 14.1-7.9z"  fill="#fff500" /><path d="M205-397.5c-11.8 60.9-7.8 123.2-18.5 184.1-8.4 47.7-30.4 92.3-35 140.7-1.4 14.7 8.2 80 5.6 85.2-3 5.9-11.5-1.1-6.3-5.2 6.1-4.8 9.9 8.1 2.2 7.4-17.4-1.6-11.4-99.8-9.1-112.9 6.3-37.4 21.4-72.6 29.7-109.5 14.3-63 6.8-128.7 20.2-191.8 1.6-7.4 11.6-5.1 11.2 2z"  fill="#fff500" /><path d="M223.9-123.4c-13.9 52.1-31.5 100.8-32.1 155.4-0.1 8.1 5.4 40.7-0.9 45.4-6 4.5-11.1-6.8-3.8-8.4 7.3-1.6 7.2 10.9-0.1 9.2-9-2.1-5.2-46.4-5.1-54.4 0.4-39.3 11.6-117.6 30.9-151.8 3.6-6.4 12.1-1.9 11.1 4.6z"  fill="#fff" /><path d="M233.2 4.5c-1.1 9.5-0.8 73.9-8 73.7-6.5-0.2-5.7-10.5 0.8-9.5 6.5 0.9 4.5 11-1.9 9.4-9.4-2.4-4.5-67-1.3-75.9 2.2-6.2 10.2-3.5 10.4 2.3z"  fill="#fff" /><path d="M243.2-119.1c-7.9 54.2-23.4 107.1-25.7 162-0.3 6.6 3.5 33.2-3.9 35.3-6.3 1.9-8.7-8.2-2.2-9.4 7.6-1.4 7.1 11.4-0.3 9.5-12.3-3.2-5-70.3 21.1-199.2 1.5-7.2 11.2-5.3 11 1.8z"  fill="#fff500" /><path d=""  fill="#fff500" /><path d="M262.1 43.7c0.3 6.3 5.9 31.7-1.2 34.3-5.9 2.1-8.7-7.3-2.6-8.8 7.1-1.7 7.3 10.4 0.1 9-14.1-2.8-0.9-59.9 3.7-34.5z"  fill="#005bbb" /><path d="M273.3-313.8c-40 41.1-36 104.1-47.8 156.4-12.2 53.8-36.1 104-39.3 159.9-0.7 11.8 7.4 68.8-0.4 74.7-5.9 4.5-11.1-6.6-3.9-8.2 7.2-1.6 7.3 10.6 0.1 9.1-14.6-3.1-4.6-100.4-2.6-113.7 7.3-46.9 27.4-90.5 37.4-136.8 10-46.3 8.5-98 35-139.1 12.9-20.1 31.4-17.1 21.5-2.3z"  fill="#c2e1ff" /><path d="M281.5 59.5c0.5 4.3 5.1 18-2.8 18.4-5.2 0.3-6.4-7.4-1.4-8.8 5.9-1.6 7.9 7.8 1.9 8.7-7.4 1.2-7.9-15.5-6.3-19.4 1.8-4.6 7.6-3 8.6 1.1z"  fill="#005bbb" /><path d=""  fill="#c2e1ff" /><path d="M301.1 67.5c0.4 3 1 14.3-6.1 9.5-4.3-2.8-0.8-9.6 4-7.8 4.8 1.8 2.9 9.2-2.2 8.5-12.5-1.8 1.2-22.8 4.3-10.2z"  fill="#005bbb" /><path d="M311.9-371c-23.3 18.6-49.7 32.6-65.9 58.6-24.3 39-23.4 88.6-33.6 132.2-9.5 40.7-28.1 78.8-36.4 119.7-5.3 26.2-5.5 52.8-3.6 79.3 0.3 4 5.7 25.5-4.1 22.7-16.3-4.7 16.2-13.4 4.5-1.2-6.8 7-8.1-7-8.5-9.9-9.2-94.5 16.9-132.6 37.8-218.6 11.2-46 10.2-97.4 35.9-138.7 13.8-22.2 40.7-48.7 65.1-59.2 9.9-4.2 15.6 8.5 8.8 15.1z"  fill="#005bbb" /><path d=""  fill="#fff" /><path d="M332.4-273.2c-16.7 31.5-13.3 68.1 4.6 98.3 50 84.5 146.2 79.1 129.4 211.7-1 8.2-2.3 39-10.9 42.2-10.3 3.9-10-15.2 0.2-10.9 10.1 4.2-3.2 17.9-7.7 7.8-1.1-2.5 12.1-79.1 7.3-102.7-16.2-78.3-104.1-97.6-134.2-166.6-10-23-17.3-64.9-0.2-86.8 5.1-6.5 13.7-0.1 11.5 7z"  fill="#fff500" /><path d="M338.6-13.3c5.7 10.1 40.9 85.5 23.2 91.3-6.1 2-8.8-7.7-2.5-9.1 6.3-1.4 7.9 8.6 1.5 9.3-8.2 0.9-8.7-38.5-10.4-45.5-3.7-15.5-13.3-29.1-17.1-44-0.8-3.3 3.5-4.5 5.3-2z"  fill="#c2e1ff" /><path d="M347.1-62.2c32.5 34.5 59.2 66.4 60 116.4 0.1 5.6 2 18.4-2 22.8-4.8 5.3-12.8-2.7-7.5-7.4 6.3-5.6 13.1 6.5 5.1 8.9-10.9 3.3-5.8-18.4-5.6-22.4 0.7-17.7-1-35.5-7-52.3-9.6-27.1-32.4-40.6-45.7-64-1-1.8 1.3-3.2 2.7-2z"  fill="#fff" /><path d="M358.2-198.4c40.8 86.6 139.5 89.4 118.8 232-1.2 8.6-3.2 42.1-12.2 45.4-10.4 3.8-9.9-15.4 0.3-11 10.2 4.4-3.4 18-7.8 7.8-5.4-12.5 10-48.9 11.4-63.6 2.1-22.3 0.4-44.9-6.3-66.3-16.8-53.5-61.8-81.2-95.7-122.3-4.4-5.4-11.9-13-13.7-19.9-0.9-3.4 3.4-4.6 5.2-2.1z"  fill="#fff500" /><path d="M367.7-191.4c48.5 83.1 131.6 91.9 110.2 227.5-1.3 8.3-3.3 39.6-11.9 42.7-10.4 3.8-9.9-15.4 0.3-11 10.2 4.4-3.4 18-7.8 7.8-4.3-10 7.8-37.9 9.6-49.2 4.4-27.4 3.9-55.4-4.4-82.1-17.1-55.1-63.6-83.2-96.2-127.3-1.8-2.4-5.1-14.5 0.2-8.4z"  fill="#005bbb" /><path d="M376-101.8c51.3 38.6 84.4 78.8 76.5 146.8-0.8 7.1-0.9 30.6-8.5 33.7-10 4.1-10.1-14.7-0.1-10.8 10.1 3.9-2.8 17.7-7.3 7.9-0.6-1.3 9.1-75 2.8-97.2-9.2-32.6-32.7-55-59.1-74.7-1.9-1.4-6.4-6.9-4.3-5.7z"  fill="#005bbb" /><path d="M389.3-231.8c5.1 40.4 37.3 72 58.5 104.8 32.4 50.3 46.6 105.3 36 164.7-1.4 8.1-3.5 38.1-11.9 41.2-10.4 3.8-9.8-15.5 0.3-11.1 10.2 4.4-3.5 18-7.9 7.8-4.2-9.8 7.4-35.3 9.4-45.9 4.8-26 5.9-52.6 0.7-78.6-12.2-61.4-56.9-101.2-83.7-155-12.5-25.1-5.4-39.8-1.4-27.9z"  fill="#fff" /><path d="M400.4-392.3c-4.6 77.6-105 115.5-69.3 201.1 28.1 67.4 111.5 86.9 132.4 160.1 1.5 5.1 6.5 17.3 3.6 22.3-3.6 6.1-12.2-1.9-6.4-5.9 5.8-4 10.3 6.9 3.3 8-8.3 1.4-7.6-21.1-8.7-25.7-4.8-19.4-14-37.3-26.8-52.5-41.1-49.3-110.6-74-115-147.4-3.1-52.2 35.8-82.2 61-122.3 4.7-7.5 12.3-42 19.4-43.7 4-0.9 6.6 2.4 6.5 6z"  fill="#005bbb" /><path d="M406.5-169.3c51.5 64.7 90.6 123.9 74.6 210.5-1.4 7.7-3.2 34.9-11.3 37.9-10.4 3.8-9.9-15.5 0.3-11.1 10.2 4.4-3.5 18-7.8 7.9-4-9.4 7.2-34.4 9.1-44.7 4.6-24.7 5.8-49.9 1.2-74.7-8.8-47.6-37.5-84.8-67.5-121.1-1.8-2.2-2.1-8.1 1.4-4.7z"  fill="#005bbb" /><path d="M420.7-301.1c-9.6 29.3-16.3 58-7 88.3 30.1 98.8 96.7 125.2 72.4 253-1.5 7.8-3.4 36.1-11.7 39.1-7.6 2.8-11.3-9.5-3.4-11.4 7.9-1.9 10.2 10.6 2.2 11.7-12.9 1.7-2.7-22.8-1.6-27.4 6.8-28.4 11.4-57.2 8.6-86.4-7.4-76.3-66-127.4-79.2-197.8-4-21.3-3.3-55 8.4-74.2 4-6.5 12.5-1.5 11.3 5.1z"  fill="#c2e1ff" /><path d="M428.4 1.1c3 10.3 12.5 76.4-3.5 78.2-7.6 0.8-8.2-11.2-0.6-11.2 7.6 0 7 12-0.6 11.2-10.5-1.1-1.2-32.4-0.8-39.1 0.7-11.5-5-28.8-2.1-39.2 1.1-4.2 6.4-3.4 7.6 0.1z"  fill="#005bbb" /><path d=""  fill="#c2e1ff" /><path d="M449.8-323.1c-4.8 35.5-16.9 69.1-11.9 105.4 15.2 108.5 78.2 142.3 48.7 271.9-1.4 6.1-2.1 25.2-10.7 25.4-11.1 0.3-4.4-17.8 3.8-10.3 7 6.3-5.8 15.5-9.4 6.7-2.4-5.5 15.7-83.5 14.3-107-4.3-71.4-51-131.4-57.3-201.9-1.6-17.8 2.2-80.7 12.5-94.4 3.7-4.9 10.2-1.1 10 4.2z"  fill="#fff500" /><path d="M459.1-225c-4 90.2 51.6 163.6 34.7 258.3-1.5 8.1-4.9 45.9-15 46.1-9.5 0.2-6.5-15.2 2.2-11.4 10.2 4.4-3.5 18-7.8 7.8-2.2-5.1 15.6-81.5 14.9-103.7-1.7-54.5-25.8-104.2-35.2-157.3-2.1-11.8-6.6-29.2-3.6-41 1.5-5.9 9.2-4.1 9.8 1.2z"  fill="#fff" /><path d="M468.6-193.3c2.6 78.7 41.3 147 26.5 227.5-1.5 8-4.8 45.2-14.9 45.5-11.1 0.3-4.4-17.8 3.9-10.4 7 6.3-5.7 15.5-9.5 6.8-2.9-6.7 15.4-81.8 15.3-99.2-0.2-53.2-22-102.3-29-154.4-0.6-4.5-3.8-14.3-0.7-18.4 2.8-3.6 7.6-1.4 8.4 2.6z"  fill="#c2e1ff" /><path d="M479.4-239.9c-20.7 92.2 33.4 178.1 17.3 270.9-1.4 8.2-5 47.9-15.4 48.2-9.4 0.3-6.5-15.1 2.2-11.4 8.7 3.7-0.5 16.5-6.8 9.4-5.1-5.7 13.2-67.8 14.1-91.5 2.3-60.2-24.4-115.8-26.8-175.5-0.6-15.5-2.2-39.2 4.5-53.7 3-6.4 11.4-2.7 10.9 3.6z"  fill="#005bbb" /><path d="M489.4-269.5c-7.8 30.8-15.5 60.8-14 92.8 2.6 52.9 24.5 102.7 25.7 155.9 0.3 13.3-3.1 99.8-19.5 100.2-9.4 0.3-6.5-15.1 2.2-11.4 8.7 3.7-0.5 16.5-6.8 9.4-5.2-5.8 13-66.8 14.1-90.2 3-64.3-27.2-124-25.7-188.1 0.5-21.6 2.5-53.6 12.9-72.9 3.5-6.4 11.9-2.1 11.1 4.3z"  fill="#fff" /><path d=""  fill="#fff500" /><path d="M509.3-251.7c-10.5 27.9-20.2 55.5-21.2 85.6-2.2 69.1 24.7 131.9 11.3 201.9-1.5 7.7-4.5 43.1-14.5 43.4-11 0.3-4.5-17.7 3.8-10.3 7 6.3-5.7 15.4-9.4 6.8-2.7-6.1 13-63.6 14.3-76.2 6.7-64.1-21.2-125.5-14.2-189.3 2.2-20.3 6.8-50.6 18.6-67.8 4.4-6.5 13-0.9 11.3 5.9z"  fill="#c2e1ff" /><path d="M518.5 2.6c-1 10.1-8.5 80-20.7 76.6-7.6-2.2-3.6-14 3.8-11.1 7.4 3 2.1 14.3-5 10.6-7.9-4.3 1.3-25 2.7-31.3 2.8-12.6 2.3-38.2 9.4-48.4 3.4-4.9 9.8-1.5 9.8 3.6z"  fill="#fff500" /><path d="M528.5 52c-1 5.7-1.1 29.3-10.9 27.1-7.5-1.7-4.1-13.3 3.1-10.8 7.2 2.5 2.7 13.7-4.3 10.4-15.7-7.4 13.6-51.2 12.1-26.7z"  fill="#fff500" /><path d=""  fill="#c2e1ff" /><path d="M548 47.7c-0.8 6.1 0.4 29.4-7.6 30.7-8.4 1.4-7.7-12.7 0.5-10.4 7 1.9 3.4 12.8-3.3 10.1-15.4-6.1 10.6-56.2 10.4-30.4z"  fill="#005bbb" /><path d="M548.4-398c-1.5 38.1-1.9 75.9-13.4 112.6-14.2 45.7-40.5 85.5-41.1 134.9-0.2 14.2 18 130.6 8 130.2-6.7-0.3-5.6-10.8 0.9-9.8 7.7 1.2 3 13.2-3.4 8.9-6.6-4.4-4.2-41.6-5.4-50.3-21.7-163.5-3-99.9 33.8-232.9 8.6-31.2 3-68.2 10.6-95.2 1.7-6 9.5-3.9 10 1.6z"  fill="#fff" /><path d="M565.7-397c-8.4 38.3-9.7 77.5-22.8 114.8-18.5 52.5-48.6 95.7-45.1 153.8 1.7 28.3 22.7 150.9 3 168.2-6.9 6.1-14.2-7.3-5.5-9.9 8.8-2.6 9.9 12.6 0.8 11.2-6.8-1 2.7-75.5 2.1-87-2.7-46.3-16.3-91.9-7.5-138.4 7.4-39.2 29.7-72.6 42.9-109.8 10.3-29.2 13.8-59.7 18.4-90.1 4.4-29.2 14.4-21.1 13.7-12.8z"  fill="#fff500" /><path d="M550.8-398.3c-2.5 39.4-3.1 78.5-15.7 116.4-14.6 44.1-39.7 82.8-40.7 130.7-0.3 15.2 13.3 92.5 10 98-4.3 7.1-13.1-4.5-5-6.7 6.9-1.9 7.5 9.9 0.4 8.8-7.5-1.3-7-30.7-7.9-37.1-17.5-114.6 6.8-113.8 36.2-212.8 9.6-32.3 4.5-72.7 12.6-99.1 1.9-6 9.7-3.8 10.1 1.8z"  fill="#c2e1ff" /><path d=""  fill="#c2e1ff" /><path d="M596.2 1.5c1.1 9.1 10.7 75.9 1.8 76.3-6.1 0.3-6-9.4 0.1-9 6.1 0.4 4.9 10-1 8.9-7.5-1.3-5.4-22.8-5.8-28.1-1.1-14.9-5.8-33.5-3.9-48.2 0.7-5.4 7.7-4.6 8.8 0.1z"  fill="#fff500" /><path d="M604.8-230.9c-50.6 101.4-43.7 115.6-45.2 224.6-0.1 10.3-0.9 86.3-11.7 84.9-7-0.9-5-11.9 1.9-10.2 6.9 1.7 3.7 12.4-3 10-8.9-3.2-0.4-39.8 0.3-47.6 5.6-60.3-7.7-123.7 8.3-182.6 7.2-26.5 19.9-65.6 38-86.6 5.5-6.4 13.9 0.6 11.4 7.5z"  fill="#005bbb" /><path d="M604.8-354c-11.3 27.2-19.7 55.5-32.3 82.2-25 53.1-61.3 96.7-60.7 158.4 0.1 16 10.8 173.6-11.6 167.3-7.7-2.1-3.6-14 3.7-11.1 8.6 3.5-0.1 16.2-6.4 9.5-6.8-7.2 7.2-50.6 8.1-61.5 4.8-55.5-12.6-112.2 3.4-166.6 12.7-43 41.9-79.1 59.6-120 8.5-19.5 12.6-47.3 24.8-64.4 4.6-6.5 13.2-0.7 11.4 6.2z"  fill="#fff" /><path d="M604.7-227c-50.1 101-40.3 118.2-41.5 225.4-0.1 10-0.2 81.4-10.3 80.2-6.9-0.8-5.1-11.6 1.6-10.1 6.8 1.5 3.9 12.1-2.7 9.9-8.9-3-1.1-39.2-0.5-46.8 4.6-59-8.3-120.8 5.5-178.7 6.4-26.6 18.5-66.2 36.5-87.4 5.4-6.4 13.9 0.5 11.4 7.5z"  fill="#005bbb" /><path d="M590.8-396c-17.1 36.5-20.8 78-35.7 115.4-18.7 47.4-50.5 88.2-52.5 141.1-0.6 16.2 11.6 100 7.3 106-5.2 7.3-13.6-5.7-4.9-7.5 7.5-1.5 7.2 11.2-0.2 9.4-7.9-1.9-6.5-43.9-7.4-51.7-13.3-112.8 14-118.4 50.3-213.9 12.8-33.8 16.3-70.9 30.8-103.9 3.5-8.1 14.5-2.9 12.3 5.1z"  fill="#005bbb" /><path d=""  fill="#fff500" /><path d=""  fill="#fff500" /><path d=""  fill="#005bbb" /><path d=""  fill="#c2e1ff" /><path d=""  fill="#fff500" /><path d=""  fill="#c2e1ff" /></svg>