<svg width="1200" height="675" viewBox="-500 -500 1200 675" xmlns="http://www.w3.org/2000/svg"><path d="M-500-500h1200v675h-1200z" fill="#000"/><path d=""  fill="#fff" /><path d=""  fill="#005bbb" /><path d=""  fill="#fff" /><path d=""  fill="#c2e1ff" /><path d=""  fill="#c2e1ff" /><path d=""  fill="#fff" /><path d=""  fill="#fff500" /><path d=""  fill="#c2e1ff" /><path d=""  fill="#fff500" /><path d=""  fill="#005bbb" /><path d=""  fill="#005bbb" /><path d=""  fill="#c2e1ff" /><path d=""  fill="#fff500" /><path d=""  fill="#fff" /><path d="M-358-398.9c7.3 31.1 14.9 62.4 33.7 88.9 26 36.7 68 54.3 99.3 85.2 27.9 27.5 41.7 63.7 61.3 96.8 1.6 2.6 13.7 17.9 10.7 19.8-2.3 1.5-4-2.8-1.2-3.2 2.8-0.4 2.4 4.2-0.2 3.4-8.4-2.6-45.2-78.5-53.9-91.4-32.6-49-92.1-68.3-124.8-116.9-16.2-24.1-25.1-52.9-30.9-81.2-0.8-4 4.7-5.1 6-1.4z"  fill="#005bbb" /><path d="M-370.3-399c8.1 44.1 15.6 87.2 44.6 123.1 26.3 32.6 63.9 53.5 89.6 86.8 18.1 23.4 29.1 50.8 43 76.5 9.4 17.4 27.4 32.6 35.5 49.8 0.3 0.5 0 1.4-0.6 1.7-13.9 7.5-63.4-98.1-69.9-109.1-31.3-53.5-91.7-79.9-121.4-134.5-15.5-28.5-22.5-61.3-27.2-93.2-0.6-4.3 5.2-5.1 6.4-1.1z"  fill="#fff" /><path d=""  fill="#fff500" /><path d="M-355.5-399c7.5 31.1 15.8 62.2 35.2 88.2 27.5 36.7 71.5 53.9 102.6 86.8 31.3 33.2 44.4 78.1 71.1 114.5 2.9 4 31.8 37.1 31.1 37.7-0.3 0.2-0.7 0.4-1 0.3-22.1-3.2-71.1-102.5-83.8-123.5-33.3-55-98.3-74.5-132.6-127.6-12.6-19.5-28.7-51.9-28.6-75.7 0-3.7 4.9-3.8 6-0.7z"  fill="#c2e1ff" /><path d="M-358.8-221.8c19.6 66 28.2 134.3-16 193-4.4 5.9-16.5 24.8-25.2 22.7-10.2-2.5-2.6-18.2 5.7-11.6 9.7 7.7-8.9 18.3-10.7 6.1 0-0.2 42.6-52.1 51-85.5 16.1-64-8.5-79.7-10.4-123.8-0.2-3.5 4.4-3.8 5.6-0.9z"  fill="#fff" /><path d="M-351.2-351.9c23.4 77.1 85 91 131.1 146.6 36.4 44 52.3 98.1 94.4 138.7 16.4 15.8 52.8 40.4 58.5 63.4 0.9 3.6-5.4 2.7-3.6-0.5 1.5-2.7 5.4 0.7 2.9 2.6-2.4 1.8-20.5-24.9-23.5-28.3-74-83.4-55.2-47.6-116.4-151.6-30.5-51.9-86.5-72.9-122.3-119-11.6-14.9-20.5-32.1-26.4-50.1-1.1-3.5 3.8-5 5.3-1.8z"  fill="#c2e1ff" /><path d="M-334.9-399.1c7.4 24.2 16.6 47.8 32.3 67.8 27.4 35 70.1 52.5 99.7 85.3 35.1 38.8 47.2 91.9 78.1 133.7 3.9 5.3 41.8 49.6 40.2 50.8-2 1.5-3.7-2.3-1.3-2.8 2.5-0.5 2.4 3.7 0 3.1-3.8-0.9-10.5-12.1-13.3-15.4-40.9-47.6-56.8-87.3-87-140-30.6-53.3-89.6-73-125.2-120.7-13.3-17.8-22.6-38.8-29-60.1-1.1-3.6 3.9-5 5.5-1.7z"  fill="#c2e1ff" /><path d="M-333.7-21c-5.2 13.4-49.4 97.2-68.5 84.6-8.9-5.8 3.8-18.1 9.3-9.1 4.8 7.7-7.8 14.6-11.7 6.4-4.2-8.8 23.3-27.9 29-34.3 11.5-13.1 23.7-45.1 33.9-53.5 4.4-3.6 9.3 1.2 8 5.9z"  fill="#005bbb" /><path d="M-326.2-50.7c-8.7 34.5-25.6 66.5-50.3 92.2-4.7 4.9-17.6 22.3-25.6 17-8.8-5.9 3.9-18.1 9.5-9.1 4.7 7.8-7.9 14.6-11.8 6.4-4.1-8.8 20.2-24.6 25.5-30.3 22-23.8 38.4-74.1 44.7-80.7 3.6-3.8 8.7 0 8 4.5z"  fill="#fff" /><path d=""  fill="#c2e1ff" /><path d="M-312-127.4c10.1 61.9-7.7 130.6-42.6 182.2-4.7 7-11 19.2-18.3 23.7-8.3 5.2-13.7-10.1-4-11.3 9.7-1.2 8.2 14.9-1.1 12-12.7-4.1 8.6-24 11.8-28.4 15-20.5 26.7-43.1 34.7-67.2 15.7-46.9 9.5-106.8 13.3-112.5 1.9-2.8 5.4-1.3 6.2 1.5z"  fill="#fff" /><path d="M-303.4-35.4c-2.4 17.5-20.3 106.1-33.1 113.3-7.2 4-11.2-9.1-2.9-9.8 8.3-0.6 6.3 13-1.4 10.1-9.1-3.4 8.6-35.1 10.8-41.5 5.7-16.4 11.2-64.7 18.8-75.2 2.8-3.9 7.9-0.9 7.8 3.1z"  fill="#c2e1ff" /><path d="M-272-399.3c18.7 52.3 64.6 83.5 93.6 129 26.2 41.1 35.6 89.9 59.4 132.2 2.9 5.2 31.3 46.5 29.7 47.5-7.1 4.6 5-7.7 0.6-0.5-1.8 2.9-4.7-2.3-5.2-3-34.9-47.4-51.3-97.7-75.6-150.4-23.3-50.5-68.8-82.2-96.1-129.4-6-10.3-12.9-37.5-6.4-25.4z"  fill="#c2e1ff" /><path d="M-288.2 41.3c-0.4 5.6 1 37.3-7.3 36.1-5.6-0.8-3.8-9.5 1.6-8.1 5.5 1.4 2.8 9.9-2.5 7.9-5.6-2.1-2-34 0.6-38.4 2.4-3.8 7.3-1.5 7.6 2.5z"  fill="#005bbb" /><path d=""  fill="#fff500" /><path d="M-273.3-2.2c0.5 9 7.4 79.5 0.4 79.4-5.1-0.1-4.5-8 0.5-7.4 5 0.6 3.6 8.5-1.3 7.3-6.4-1.5-3.7-24.2-4-29.5-0.8-15.3-5.5-35.2-2.8-50.3 0.8-4.4 6.5-3.4 7.2 0.5z"  fill="#005bbb" /><path d="M-265.9-61.5c1.9 13.8 24.5 137.4 21.5 137.8-4.3 0.6-4.9-6.3-0.5-6.4 4.4-0.1 4.2 6.8-0.2 6.4-5.9-0.5-6.9-23.3-7.9-28.2-7.3-36-15.7-72.1-19.6-108.6-0.5-4.5 5.6-5.1 6.7-1z"  fill="#fff" /><path d=""  fill="#fff500" /><path d="M-250.9-16.7c2.3 9.7 27.3 92.3 22.7 93.3-3.9 0.9-4.9-5.4-0.9-5.8 4-0.4 4.3 5.9 0.3 5.9-5.7 0-9.6-26.4-11-31.2-5.3-18.4-17.2-42.3-17.1-61.5 0-3.8 4.9-3.8 6-0.7z"  fill="#fff500" /><path d="M-234.4-399.5c12.4 47 47.3 82.7 68.3 125.5 21.4 43.5 30 92 53.3 134.7 4.2 7.7 48.1 73.2 45.9 74.4-8.6 4.7 6.5-8.5 0.6-0.6-2.4 3.2-5.2-3.2-5.7-4-49.2-79.3-54.2-85.7-86.9-174.5-18.2-49.5-53.8-87.9-74.4-135.7-9.4-21.6-3.2-24.6-1.1-19.8z"  fill="#005bbb" /><path d="M-236.7-170c43.5 69.4 39.8 94.8 107.5 154.9 24 21.3 45.2 44.2 59.9 73.1 1.7 3.3 9.9 14.6 6.1 17.6-3.7 2.9-6-4.9-1.4-4.5 4 0.3 2 6.7-1.4 4.7-2.9-1.6-28.8-51.9-36.3-60.7-15.3-18.1-33.7-33-51-48.8-39-35.6-57-77.8-81-123.5-0.4-0.7-7.6-19.6-2.4-12.8z"  fill="#fff500" /><path d="M-228.3-103c22.2 57.8 60.3 94.2 99.3 140.5 5.6 6.6 26.7 27.3 26 35.9-0.2 3.1-5.2 1.6-3.7-1.1 1.5-2.7 5.4 0.7 2.9 2.6-1.9 1.4-28.2-36.2-31.9-40.6-27-32.1-58.9-59.3-79.5-96.3-6.2-11.2-16.4-26.8-18.2-39.7-0.4-3.2 3.7-3.8 5.1-1.3z"  fill="#005bbb" /><path d="M-220.4-388.9c12 41.9 41 76.5 58.6 116 31 69.6 36.9 116.2 82.5 183.3 19.6 28.8 57 111.1 48.7 115.4-5.3 2.7-6.2-7.6-0.6-5.9 4.9 1.4 0.8 8.8-3 5.5-8.7-7.6-11.1-52.3-35.5-93.1-19.8-33-44.1-62.8-59.4-98.4-16.5-38.2-24.9-79.3-42.7-117.1-14.9-31.6-36.3-59.9-49.6-92.2-1.3-3.2-3.2-22.7 1-13.5z"  fill="#fff500" /><path d="M-213.4 5.9c3.7 7 39.3 67.5 35.5 69.3-2.7 1.3-4.5-3.1-1.7-4.1 2.9-1 4.2 3.6 1.2 4.3-4.2 0.9-6.9-9.5-8.4-12.3-9.9-18.5-38.8-74.3-26.6-57.2z"  fill="#c2e1ff" /><path d="M-206-6.1c12.5 20.6 46.9 57.5 52 78.9 0.9 3.6-5.5 2.7-3.7-0.6 1.6-2.7 5.5 0.8 2.9 2.7-3.5 2.4-17.2-23.2-19.4-26.6-11.5-17.5-24.2-34.4-35.2-52.2-1.4-2.3 1.8-4.1 3.4-2.2z"  fill="#005bbb" /><path d="M-198-151c13.8 26.7 27.7 52.7 48.2 74.9 38.9 42.3 82.4 71.7 102.1 128.5 1.6 4.7 8 17.1 6.1 21.8-1.7 4.4-8.2 0-4.7-3.2 2.9-2.8 7 2.1 3.8 4.5-5.9 4.5-8.6-15.6-9.4-18.2-6.6-21.3-15.7-41.7-28.8-59.8-27.9-38.6-70-63.6-96.8-103.3-6.6-9.8-29.5-58.5-20.5-45.2z"  fill="#005bbb" /><path d="M-190.6-100.1c32 55.2 92.8 84.4 123.2 140.6 2.5 4.6 18.2 31.8 13.3 35.4-4.1 2.9-6.2-5.6-1.2-4.9 4.3 0.6 1.8 7.3-1.9 4.9-3.4-2.2-26.1-54.5-33.7-64.4-27-34.9-65.9-58-92.4-93.5-3.5-4.7-9.2-10.7-11-16.4-0.8-2.4 2.3-3.4 3.7-1.7z"  fill="#005bbb" /><path d="M-182.2-343c10.8 26.9 23.4 52.9 32.6 80.4 11 33 18.3 67.2 31.7 99.4 19.6 47 54.8 85.2 74.1 132.3 4.7 11.5 34.4 101.8 21.3 107.3-5.1 2.1-6.6-6.9-1.1-6.7 6.4 0.3 1.8 10.5-2.7 5.9-0.6-0.6-19-98.4-28.8-119.9-18.8-41.1-49.1-75.5-67.4-116.9-24.1-54.5-35.7-113.6-59.6-168.5-0.8-1.9-5-21.9-0.1-13.3z"  fill="#005bbb" /><path d="M-175.2 51.9c1.9 3 15.5 21 11.4 23.2-2.5 1.3-4.3-2.7-1.7-3.8 2.6-1 4 3.2 1.3 3.9-7.7 2.1-15.9-29.4-11-23.3z"  fill="#c2e1ff" /><path d=""  fill="#fff" /><path d="M-160.6-6.9c10.8 10.9 68.9 68.7 67.6 80.6-0.3 3.2-5.5 1.5-3.8-1.3 1.7-2.8 5.6 0.9 2.9 2.8-2.4 1.7-24.6-32.8-27.9-37-12.5-15.5-26.8-29.2-40.6-43.3-1.2-1.2 0.5-2.8 1.8-1.8z"  fill="#005bbb" /><path d="M-153-8.9c8.1 7.8 77.9 73.6 68 83.6-2.4 2.4-5.5-2.4-2.2-3.6 3.8-1.4 3.6 5.6-0.1 4-7.1-3-17.1-27.2-22.3-34-12.8-17.1-28-32-43.4-46.6-0.9-0.9-2.8-5.4 0-3.4z"  fill="#fff" /><path d="M-145.3-2.8c18.9 17.9 57.1 48.6 62.1 75.6 0.6 3.4-5.1 3.2-4.2-0.1 1-3.9 6.7 0.2 3.3 2.3-2.8 1.8-21.9-31-25-35-11.3-15-24.5-28-37.9-41.2-1.1-1.1 0.4-2.6 1.7-1.6z"  fill="#005bbb" /><path d="M-168-398.4c-5.2 47.2 46 222.3 70.1 266.2 5.2 9.4 41.8 64.8 41 69.7-0.7 4.1-6.9 0.4-3.6-2.2 2.8-2.2 5.3 3.2 1.8 4-4.2 0.9-25.6-40.8-29-46.2-33.3-53.3-85.7-214.3-88.6-276-0.2-4.6-1.9-13.8 0.7-17.9 2.4-3.9 7.4-1.5 7.6 2.4z"  fill="#fff" /><path d="M-127.4-279.5c5 37.2 10.1 74.9 22.7 110.5 17 47.9 49.2 88.5 66 136.6 4.2 11.9 30.9 104.3 18.2 109.2-5.2 2-6.6-7.1-1-6.8 6.5 0.4 1.7 10.6-2.8 5.9-3.4-3.6-14-88.6-18.6-103.4-19.7-62.9-63.3-114-78.7-178.8-5-21.2-14.9-51.3-12.5-73.1 0.4-4.1 5.8-3.7 6.7-0.1z"  fill="#005bbb" /><path d=""  fill="#fff500" /><path d="M-114.4 14.1c9.7 10 44.6 44.8 41.7 60-0.7 3.6-6.3 1.2-4.2-1.8 2.2-3 6.3 1.6 3.1 3.4-3.8 2.1-16.3-25.1-18.7-28.9-1.5-2.4-27.5-37.5-21.9-32.7z"  fill="#c2e1ff" /><path d="M-110.7-397c-28.1 78.2-6 202.9 31.6 275.1 16.5 31.8 60 104 54.3 139.8-0.8 5.2-8.9 2-6-2.3 3.4-5.1 9.5 3.7 3.5 5-4 0.9-16.8-57.2-19.5-64.7-43.4-121.2-71.6-102.7-81.7-258.6-1.9-29.7-2-59.7 5.9-88.6 1.9-6.9 14.5-18.5 11.9-5.7z"  fill="#fff" /><path d="M-95.6-370.1c-14.6 65.2-12.7 143.9 8.7 207.3 19.8 58.4 52.2 109.2 62.9 171 2.2 12.7 13.7 53 6.9 63.9-3 4.8-9.7-1.8-5-4.8 4.7-3.1 8 5.7 2.5 6.4-3.4 0.5-15.5-89.8-18.3-100.5-18.9-74.3-64.2-135.8-71.1-214-3.8-42.5-4.9-89.3 4.6-131.1 1.3-5.8 9.3-3.9 8.8 1.8z"  fill="#fff500" /><path d="M-130.9-396.9c-19.9 64.2 9.5 203.8 40 263.2 5.6 10.9 44 73.7 42.5 79.9-1.1 4.5-7.6-0.1-3.8-2.6 3.3-2.2 5.6 4 1.7 4.5-4.3 0.6-21.7-39.5-24.7-45-44.6-78.3-69.9-168.3-70.2-259.1 0-12.8-0.7-32.8 5.7-44.4 2.8-5.1 9.5-1.6 8.8 3.5z"  fill="#fff500" /><path d="M-83.4-11c7.1 8.3 53.9 78.7 40.5 86.7-4.7 2.8-6.3-6.6-0.9-5.4 4.6 1 1.3 8.1-2.4 5.2-6.3-4.8-9.2-28.6-12.2-36.4-6.8-17.4-38.3-63.1-25-50.1z"  fill="#005bbb" /><path d="M-72.5-380.2c-12.8 64.3-17.6 137.7-2.8 201.9 12.5 53.9 38.9 103.2 49.8 157.7 2.4 11.8 14.2 80.7 9.9 87.4-3.1 4.8-9.8-1.9-5-5 4.8-3 8 5.9 2.4 6.7-3.9 0.5-13.9-90.1-16.3-101-16-73.6-53.9-138.3-56.3-215.2-1.4-43.9 0.3-91.1 9.5-134.1 1.2-5.8 9.1-4 8.8 1.6z"  fill="#fff500" /><path d="M-108.5-397.2c-25.1 69.4-10.9 184.2 18.4 251 5.5 12.5 45.8 84.2 44.2 90.4-1 3.9-7 0.8-4.5-2.3 3-3.7 7 3.6 2.3 4.2-4.6 0.6-18.9-36.8-21.7-42.1-39.4-75.4-58-148.6-58.1-234.2 0-20.5-0.8-53.1 10.6-71.1 3.2-5.1 9.9-1.1 8.8 4.1z"  fill="#c2e1ff" /><path d="M-74.5-397.3c-23.1 83.4-24.1 181.2 7.4 262.3 4.6 11.8 51 127.1 39.3 128.6-4.4 0.6-4.9-6.4-0.5-6.5 5.2-0.1 3.5 8.3-1.2 6.2-6.5-2.8-11.1-43.1-13.6-51-23.1-75-55-129.8-54.7-211.6 0.1-43 2.1-88.9 14.2-130.4 1.7-6 9.9-3.5 9.1 2.4z"  fill="#fff" /><path d="M-50.8-160.7c7.6 36 18.7 71.1 25.7 107.3 5.8 30.3 19 123.9 11.7 129.5-3.9 3-8.4-3.4-4.2-6 4.9-3 8.1 6.1 2.3 6.7-5.3 0.6-10.2-88.4-11.6-99.2-4.4-33.9-30.7-114.5-30.1-137.7 0.1-3.8 5.1-3.8 6.2-0.6z"  fill="#c2e1ff" /><path d="M-42.2-387.9c-4.3 146.7 28 292.9 32.3 439.3 0.1 4.1 3.2 16.6-2.1 18.4-4.8 1.5-6.8-6.2-1.9-7.2 5-1 6.1 6.9 1.1 7.3-4.5 0.4-9.9-125.2-11.3-139.3-9.8-100.9-23.6-201.4-25.9-302.8-0.5-23.4 7.2-20.9 7.8-15.7z"  fill="#005bbb" /><path d="M-35.3-129.6c5.3 26.6 33.7 190.4 23.8 204.8-3.3 4.8-9.9-2.2-4.9-5.2 5-3 8.1 6.2 2.3 6.8-6.3 0.7-8-77-8.9-86.7-5.1-57.8-23.9-110.9-18.2-120.7 1.6-2.7 5-1.6 5.9 1z"  fill="#fff500" /><path d="M-27.2-187.3c6 67 14.2 133.6 16.6 200.8 0.5 12.7 8.1 52.1 1.1 62.1-3.4 4.8-10-2.4-4.9-5.3 5.1-3 8.1 6.4 2.2 6.9-6.4 0.6-6.9-89.6-7.4-100.5-1.9-36.2-18.7-137.6-14.7-164.2 0.6-4.3 6.2-3.6 7.1 0.2z"  fill="#fff500" /><path d=""  fill="#c2e1ff" /><path d="M-11.7-45.2c0.6 12.6 6.8 122.8-0.2 122.7-5.1-0.1-4.5-8.1 0.5-7.5 4.3 0.6 4.2 7-0.1 7.5-7.1 0.6-4.4-15.2-4.6-19-0.9-34.4-2.5-68.9-3-103.3-0.1-4.9 6.6-4.9 7.4-0.4z"  fill="#fff" /><path d="M-4-189.2c1.3 24.7-0.9 266.7-5.9 266.5-6-0.2-3.5-9.9 1.9-7.1 5.4 2.7-1 10.4-4.7 5.7-4.5-5.7-0.7-84.3-0.6-97.4 0.4-34-3.1-142.9 2-168.2 0.9-4.4 6.7-3.4 7.3 0.5z"  fill="#c2e1ff" /><path d="M4.1 17.4c-0.8 7.6-1.3 60.6-7.9 60.1-5.3-0.4-4.2-8.8 1-7.8 5.2 1 3.2 9.2-1.9 7.6-7.1-2.2-1.8-54.6 0.8-61.7 1.7-4.8 8-2.7 8 1.8z"  fill="#c2e1ff" /><path d="M11.2-211.3c7.3 67.7-8.6 136.9-12.4 204.5-0.5 9.6-0.5 84-6.6 83.7-6.1-0.3-3.4-10.1 2-7.2 5.4 2.8-1.1 10.6-4.8 5.7-5.5-7.2 2.5-104.1 3.7-119.8 4.2-53.3 15.1-107.3 11.5-160.9-0.3-4.4 4.7-15.1 6.6-6z"  fill="#c2e1ff" /><path d="M17.1-364.1c23.3 39.8 61.1 68.3 84.3 108 40.3 69.2 42.6 171.3 18.3 246.1-3.5 10.9-17.5 64.8-28.6 67.3-7.9 1.8-7.9-11.6-0.1-9.9 9.2 2 0 15.6-5.2 7.8-5.8-8.5 17.6-49.1 21.2-58.9 19.8-53.1 22.6-108.3 15.5-164.2-11.9-93.2-52.9-113.8-102-183.7-1.2-1.7-8.4-18.7-3.4-12.5z"  fill="#c2e1ff" /><path d="M27.5-125.1c-9.8 49.3-21.2 97.6-25.3 147.9-0.6 7.1 0 55.1-6.9 54.6-4.5-0.3-4.8-7.1-0.3-7.8 5.2-0.8 6 7.6 0.7 7.8-8.4 0.3-3-36-2.6-41.7 1.3-21.4 16.6-157.3 27.3-165.3 3.6-2.7 7.4 0.7 7.1 4.5z"  fill="#fff" /><path d="M35.5-72.4c-36.7 103.3-28 144.6-31.5 148.6-4.1 4.9-10.5-3.6-4.7-6.2 6.8-3.1 7.5 9.8 0.4 7.4-14.5-4.9 14.9-143.1 27.7-155 4-3.7 9.1 0.6 8.1 5.2z"  fill="#fff" /><path d=""  fill="#005bbb" /><path d="M102.7-399.3c45.4 33.4 95.1 60.9 123.4 111.9 29 52.4 26.1 118.1 28.7 176.2 0.2 4.8 4.8 30.8-2.7 30.7-4.3-0.1-4.9-6.5-0.7-7.4 4.3-0.8 6.2 5.3 2.2 7.1-8.3 3.7-6.5-35.1-6.7-40.2-2.4-50.9-0.2-107.7-20.6-155.2-22.5-52.3-69-83.8-114.3-114.9-1-0.7-12.1-9.7-9.3-8.2z"  fill="#fff" /><path d=""  fill="#c2e1ff" /><path d="M66.3-79.9c-18.2 42.1-38.9 81.4-47.7 127-1.1 5.5-1.2 29.5-7.7 30.5-5.6 0.9-6.6-8.1-0.8-8.3 6.7-0.3 4.8 10.6-1.4 8.1-7.9-3.2 2.4-38.6 3.8-45.4 7-33.1 24.2-90.5 44.9-117.2 3.9-5 10.6-0.1 8.9 5.3z"  fill="#fff500" /><path d=""  fill="#005bbb" /><path d="M98.9-399.3c44.4 32.9 93.3 59.1 122 108.6 37.2 64.1 31.9 154.3 34.6 226.2 0.2 5.5 4.7 38.4-2.9 38.1-4.4-0.1-4.9-6.7-0.6-7.4 4.3-0.8 6.2 5.5 2.2 7.1-8.1 3.4-6.3-41.8-6.5-47.6-2.4-61.2 0-131.4-20.1-189.9-20.7-60.5-72.2-94.2-122.2-128.7-0.4-0.3-9.5-8-6.5-6.4z"  fill="#005bbb" /><path d="M85.5-302.9c17.7 17.3 32.9 36.5 43.7 58.9 28.8 59.9 63.3 214.4 60.9 280.6-0.3 7.5 0.1 38.4-8.2 41.4-8.2 2.9-7.7-12.3 0.3-8.8 6.8 3-0.5 13-5.5 7.4-4.7-5.3 4.7-32.8 5.3-40.4 3.5-49.9-9.7-100.7-21.3-148.8-12.8-53.1-20.8-112.5-52-158.6-2-3-27.7-35.2-23.2-31.7z"  fill="#005bbb" /><path d="M93.5-284c61.7 72.8 82.1 261.6 58.7 352.4-0.8 3.2-8.1 17.3-11 6.3-3.8-14.4 20 2.1 5.1 3.6-10.5 1 2.9-38.6 3.9-44.8 7.4-46.3 3.8-93.9-3-140-7.4-49.7-13.9-103.9-38.3-148.7-5-9.1-20.3-33.7-15.4-28.8z"  fill="#fff500" /><path d="M100.4-338.6c26.8 19.1 50.5 40.9 65.9 70.4 27.9 53.3 65.1 196.2 71.8 257.1 1.5 13.5 8.9 83.8-8.3 89.1-8.6 2.6-7.3-13 0.8-9 6.9 3.4-1.1 13.4-6 7.4-4.6-5.7 6.7-38.2 7.3-46.9 3.6-55.4-11.5-111.9-27.7-164.4-16.2-52.8-25.4-114.8-59.2-159.7-12.2-16.2-27.4-29.4-43.6-41.4-0.7-0.5-1.8-3-1-2.6z"  fill="#005bbb" /><path d="M112.4-28.2c-4.3 12.1-44.1 109-50.5 106.4-6.2-2.4-1.9-11.9 4-8.8 5.9 3 0.6 12.1-4.9 8.4-8-5.3 34.1-103.2 43.4-111.5 4.1-3.7 9.2 0.8 8 5.5z"  fill="#005bbb" /><path d=""  fill="#c2e1ff" /><path d=""  fill="#fff500" /><path d="M154.6-399.3c52.3 39.8 126.5 84.4 140.2 154.3 10.5 53.8-16 113.9-22.4 167.4-0.8 6.8-1.4 50-8.7 49.1-4.7-0.6-4.6-7.6 0.1-8.1 4.7-0.5 6.1 6.4 1.6 7.9-9.7 3.1-3.8-25.5-3.4-29.6 4.7-55 36.4-150.2 23.7-198.5-15.8-60-78-100.9-124.9-135.8-0.4-0.3-9.4-8.5-6.2-6.7z"  fill="#c2e1ff" /><path d=""  fill="#c2e1ff" /><path d="M219.4-399.1c68.2 53.6 189.9 108.2 130.6 214.2-6.8 12.2-24.7 51.6-37.3 56.9-11.2 4.7-8.1-17.1 1.4-9.4 9.4 7.7-11.4 15.2-9 3.2 8.1-40.5 70-68.7 50.2-136.5-16.9-58-85-88.2-129.8-121.6-0.4-0.3-9.4-8.7-6.1-6.8z"  fill="#005bbb" /><path d="M155.7-273c29.8 50 69.2 194.7 77.6 254.1 2.1 14.4 12.3 91.4-6.4 97.2-8.6 2.7-7.4-13 0.7-9 8.1 4-3.6 14.5-6.7 6-3.4-9.3 7.4-35.5 7.9-46.8 1.5-30-3.3-60.3-9.7-89.4-12.6-57.9-36.4-142.4-60.3-196.1-0.4-0.9-8.4-23.4-3.1-16z"  fill="#fff500" /><path d="M164.9-64.4c2.1 15.7 14.8 142.5-7.6 142.5-7.5 0-4.9-12.2 2-9 6.8 3.1-0.7 13.1-5.6 7.3-4.8-5.6 6.2-36.3 7-44.4 3.6-32.1-6.1-66.6-2.6-96.4 0.5-4.2 5.9-3.6 6.8 0z"  fill="#005bbb" /><path d=""  fill="#fff500" /><path d="M177.7-339.8c23.5 21 42.6 46.8 53.5 76.5 22.9 62.4 34.9 266.5 17.7 330.5-0.8 2.9-9.1 19.6-11.8 7.3-3.3-15 20.5 3 5.1 3.8-9.6 0.5 4.6-42.3 5.8-62.6 3.9-65.7-3.1-132.9-9-198.2-3.7-41.3-8.7-82.3-31.5-118.1-8.9-13.9-22.8-24.3-31.5-37.8-0.7-1.2 0.7-2.2 1.7-1.4z"  fill="#c2e1ff" /><path d="M185.2-358.7c124.1 98.7 80.8 193 77.3 339-0.3 14 2.8 87.6-13.1 92.5-6.3 1.9-8.8-8.2-2.3-9.4 6.5-1.2 7.9 9.1 1.3 9.6-9.5 0.8 3.6-41.6 5-62.7 4-60.1 11.9-172.2 10.3-228.8-1.3-47.6-24.4-86.8-57.9-119.4-3.8-3.7-21-21-20.6-20.8z"  fill="#c2e1ff" /><path d="M195.7-4.4c1.4 10.4 8.6 82.6-6.9 82.8-6.4 0.1-6-10 0.3-9.4 7.5 0.7 3.7 12.5-2.8 8.8-6.1-3.6 3-29.6 3.6-36.1 1.4-15.2-2.9-31.4-1-46.1 0.5-4.2 6-3.6 6.8 0z"  fill="#c2e1ff" /><path d="M202.7-97.9c11.7 36.3 41.6 140.3 18.5 173.8-4.3 6.3-12.9-3-6.4-6.9 6.6-3.9 10.5 8.1 3 8.9-10.2 1-2-17.3-1.2-21.1 3.6-17.3 4-35.1 2.5-52.7-1.1-12.6-21.8-102-21.7-102.3 1.1-2.5 4.3-1.9 5.3 0.3z"  fill="#005bbb" /><path d="M210.4-131.8c9.7 31.1 47.8 189.9 20.4 209.4-6.3 4.5-11.3-7.3-3.7-8.7 6.5-1.2 7.9 9.1 1.3 9.6-10.7 0.8-0.7-21.6 0.2-25.8 4.1-20.7 4-41.9 2.1-62.7-3.5-37.8-24.5-97.5-25.9-120.8-0.2-3.5 4.3-3.8 5.6-1z"  fill="#fff500" /><path d="M215.9-369.6c38.7 29.4 89.6 62.9 103.9 112.1 16.3 56.1-31.8 132.4-41.8 190.1-2.2 12.8-6.3 107.7-15.9 108.8-6.9 0.8-5.7-10.8 0.9-8.6 6.6 2.2 0.6 12.2-4.4 7.4-5.6-5.3 3.2-40.1 4-48.3 3-35.1 6.9-69.9 15.8-104.1 10.8-40.8 36.8-81.7 37.3-124.4 0.7-55.6-51.5-93.6-91-124.2-0.8-0.7-11.9-10.6-8.8-8.8z"  fill="#005bbb" /><path d="M224.3-317c55.9 65.5 40.9 147.1 38.6 226.6-1.5 53.2 4.1 110.9-11.7 162.3-2.6 8.5-13.6 6.7-10.1-0.6 4.6-9.8 15.6 6.5 4.7 7.1-8.6 0.4 5.3-49.8 6-58 6-64.6 3.7-130.6 6.4-195.4 1.5-35.7 1.7-71.3-13.8-104.4-1.3-2.7-26.3-43.7-20.1-37.6z"  fill="#fff500" /><path d=""  fill="#fff500" /><path d="M241.8-92.5c2.7 17.6 21.4 171.9-4.6 170.8-7.8-0.3-4.5-12.8 2.4-9.3 6.9 3.6-1.4 13.5-6.1 7.4-4.6-5.9 8.4-45.7 8.9-55.4 2.5-43.8-8.9-113-6.2-115.5 2.1-2 5-0.5 5.6 2z"  fill="#fff" /><path d="M249.6 74.9c-4.9 9-11.6-6.5-3-5.1 9.9 1.7-4.6 13.8-4.5 3.8 0.1-5.7 8.2-5.9 7.9 0z"  fill="#c2e1ff" /><path d="M257.6-178.1c0.5 25.1 10.7 257.7-13.8 256.3-7.8-0.4-4.3-13 2.6-9.3 6.9 3.7-1.5 13.6-6.3 7.4-3.7-4.9 3.8-18.6 5.1-23.9 4.1-17.3 5.5-35 6-52.8 1.2-39-7.5-150.1-1-178.4 1-4.5 6.9-3.3 7.4 0.7z"  fill="#005bbb" /><path d="M262.2-334.7c29 24.2 59 53.4 63.1 93 4.2 40-42.9 140-50.5 199-1.8 14.3-5.9 122.6-22.6 121.4-7.9-0.6-4.2-13.2 2.8-9.4 6.9 3.8-1.7 13.7-6.5 7.3-4.7-6.4 9.8-43.9 11.1-53.2 6.9-50.8 8.5-101.1 24-150.5 9.4-29.7 24.8-57.9 31.7-88.4 6.3-27.7 0.5-54.5-15.8-77.5-10.3-14.6-23.4-27-36.8-38.7-0.5-0.5-3.2-4.8-0.5-3z"  fill="#fff" /><path d="M273.5 17.6c-1.1 8.9-5.8 61.8-17.4 60.9-6.8-0.5-5.4-11.2 1.3-9.9 6.7 1.2 4.2 11.7-2.4 9.7-8.6-2.6 2-21.8 3.4-27 2.9-11.3 2.7-25.2 6.8-35.9 1.9-4.9 8.3-2.5 8.3 2.2z"  fill="#fff500" /><path d="M277.3-360.5c39.8 27.1 87 58.4 91.8 111 5.5 60-63.1 122.9-80.5 183.9-7.1 25-8.7 88.2-18.1 105.2-4 7.3-13.1-3.9-5.2-6.4 6.7-2.1 7.8 9.6 0.8 8.7-8.4-1.1 1-36.5 1.8-42.9 5.6-44.5 13.9-87.9 35.4-127.8 18.5-34.3 50.2-64.8 57.1-104.2 6.9-39.1-15.4-73-44.1-97.3-12-10.1-24.9-19.1-37.8-27.9-0.7-0.5-2-2.8-1.2-2.3z"  fill="#fff" /><path d="M326.1-399.6c42.3 48.9 99.2 107.1 81.3 178.2-10.2 40.5-43 66.8-69.5 96.7-6.5 7.4-35.4 57.9-41 57.1-9.5-1.3-1.3-15.9 4.8-8.4 6 7.5-10 12.4-9.2 2.8 4.4-52.5 99.8-100.7 109.3-166.5 8.5-58.3-34-108.2-69.8-148.7-0.8-0.9-10.6-15.4-5.9-11.2z"  fill="#fff" /><path d="M297-54.4c-10.6 29-16.4 113.1-30.7 130.9-5 6.2-13.3-4.1-6.2-7.7 8.4-4.2 9.7 12.1 0.8 9.4-8.5-2.6 5.4-33.9 6.8-40.7 6.2-28.4 4.5-71.3 20.4-96.2 3.3-5.1 10-1 8.9 4.3z"  fill="#fff" /><path d="M304.8-75.8c-10.8 22.4-34.5 149.8-40.3 153.4-6.7 4.3-11.3-8.1-3.3-9.2 7.9-1.1 6.8 12.1-0.8 9.8-5.7-1.8 24.7-145.7 35.5-159.5 4-5.1 10.7 0 8.9 5.5z"  fill="#fff" /><path d="M312.3 30.4c-2.2 7.1-11.3 51.8-21 47.5-6.3-2.8-1.4-12.4 4.6-9 5.9 3.4 0 12.5-5.5 8.5-4.8-3.5 9.6-49.3 14.8-52.5 4.1-2.5 7.9 1.5 7.1 5.5z"  fill="#fff" /><path d="M320.2-55.1c-14.8 23.1-38.5 129-45 133.1-6.8 4.3-11.3-8.3-3.3-9.3 8-1 6.7 12.3-0.9 9.8-8.3-2.7 28.6-128.6 40.4-140.5 4.8-4.9 11.4 1.2 8.8 6.9z"  fill="#fff" /><path d="M323.6-355.7c48.6 37.2 86.7 95.1 56.7 156.5-23.9 49-68.3 81.8-86.4 135-5.5 16.2-19.6 112.1-24 115.6-5.6 4.7-11.2-6.1-4.1-7.9 7.1-1.9 7.6 10.2 0.4 8.9-8.4-1.5-0.3-21.4 0.6-26.2 8.7-50 13.6-99.2 40.2-143.8 21.8-36.7 59.8-65.5 72.5-107.2 10.3-33.6-0.9-68.2-21.9-95.1-9.6-12.3-21.1-23-33.3-33-0.2-0.2-3.4-4.4-0.7-2.8z"  fill="#fff" /><path d="M335.6-46.5c-21.7 27.4-29.9 60.6-39.1 93.6-1.6 5.8-6.3 34.9-15.6 30.7-6.3-2.8-1.3-12.5 4.6-9 6 3.5 0 12.5-5.6 8.5-6.3-4.6 6.6-30.1 8.5-36.7 9.2-32.3 16.5-66.9 37.6-94.1 4.8-6.3 13.3 0.5 9.6 7z"  fill="#c2e1ff" /><path d="M343.2-194.8c-31.8 74.1-57.2 94.6-67.6 182.5-1.7 14.1-8 84.1-17.6 90.2-6.7 4.3-11.3-8-3.4-9.2 7.9-1.1 6.9 12-0.7 9.8-7.4-2.2 7.6-47.1 8.8-55.1 9.5-63.6 15.3-122.4 47.2-179.7 7.6-13.8 14.6-31.8 24.5-44 4-5 10.6 0.1 8.8 5.5z"  fill="#c2e1ff" /><path d="M351-0.3c-5.8 9.5-30.5 80.9-36.1 78.6-6.2-2.5-1.7-12.1 4.2-8.9 5.9 3.2 0.4 12.2-5.2 8.4-8.6-5.9 20.7-76.7 28.2-84.6 4.7-5 11.2 1 8.9 6.5z"  fill="#fff" /><path d="M358-399.8c30.1 63.4 86.9 129.2 49.4 202.7-24.2 47.6-74.7 74.6-99.5 122.3-4.7 9-24.5 76.6-28.4 75.7-6.8-1.6-1.8-12.1 3.8-7.8 4.7 3.7-1.5 10.9-5.8 6.7-5-4.9 2.7-24.7 4-30.6 24-101.6 105.7-124.5 126.5-195.1 17.5-59.8-23.4-114-50-163.8-0.9-1.8-4.7-17.2 0-10.1z"  fill="#fff500" /><path d="M366.4 12.4c-4.6 8.4-22.4 67.6-28.2 65.8-6.1-2-2.5-11.4 3.4-8.8 5.8 2.6 1.2 11.6-4.3 8.4-8-4.7 13.5-66.7 21.1-72.2 4.9-3.5 9.7 2 8 6.8z"  fill="#fff500" /><path d="M373.4-94.5c-37.7 28.2-61.3 61.9-73.6 107.4-2.3 8.5-13.7 69.5-24.2 64.9-5.4-2.4-2.7-10.8 3.1-9.6 6.7 1.4 4 11.9-2.6 9.8-8.5-2.7 7.8-40.7 9.6-47.8 12.1-47.5 26.4-90 64.3-123.4 4.8-4.2 10.5-10.6 16.5-13.1 7.7-3.4 12.3 6.5 6.9 11.8z"  fill="#005bbb" /><path d="M381.7-188.9c-36.9 61.1-79.2 83-95.9 160.3-2.5 11.7-15.5 111.6-27.4 106.5-6.3-2.7-1.5-12.3 4.4-9 5.1 2.9 1.7 10.9-3.9 9.2-8.4-2.6 1.6-20.4 2.9-25.1 14.8-53 13.8-107.8 40.8-157.3 17-31.1 44.5-67.7 70.4-91.9 5.1-4.8 11.4 1.8 8.7 7.3z"  fill="#fff" /><path d="M388.9-130.7c-41.8 34.2-76.9 65-92.2 118.9-3.8 13.6-16.3 84.9-24.1 89.8-6.8 4.3-11.3-8.3-3.3-9.3 9.3-1.2 5.2 14.7-2.4 9.1-6.2-4.5 6.2-29.5 7.9-36 16.7-65.4 28.1-119.5 82.7-164.8 32.9-27.3 42.4-19.1 31.4-7.7z"  fill="#005bbb" /><path d="M396.8 38c-1.8 6.9-1.9 35.1-7.1 38.4-5.3 3.3-8.8-6.5-2.6-7.2 6.2-0.8 5.3 9.6-0.7 7.6-6.8-2.2-2.1-41.6 4.2-44.1 3.7-1.5 6.6 1.8 6.2 5.3z"  fill="#c2e1ff" /><path d="M398.3-398.5c1.9 55.5 39.3 103.3 34.4 160.3-6.1 69.4-70.7 98.2-108.4 148.3-10 13.3-27.9 60.1-32.3 61.5-7.2 2.3-8.4-10.3-0.8-9.3 6.4 0.8 4.6 10.9-1.7 9.4-9.2-2.2 2.3-24.1 4-28.7 26.8-68.3 101.2-96.2 125.1-160.3 20.8-55.7-12-108.2-24.3-161.4-4.2-18.1 1.5-32 4-19.8z"  fill="#c2e1ff" /><path d="M412-66.8c-33.8 28-63.1 55.5-78.8 97.6-3.1 8.2-9.8 44.9-18 47.1-7.6 2-8.2-11-0.4-9.7 7.8 1.3 2.8 13.4-3.7 9-7.2-5 12.1-48.4 15.1-56.3 13.3-35.4 43-81.8 78.6-99 7.4-3.6 12.3 6 7.2 11.3z"  fill="#fff500" /><path d="M411.5-397.9c-5.3 57.9 34.6 110.1 25 169-11 67.5-76.7 94.5-113.6 145.1-5.6 7.6-29.3 61.6-33.7 60.1-7.1-2.5-0.5-13.2 4.9-8 4.6 4.5-2.9 11.4-7 6.5-5.5-6.6 8.2-31.9 11.3-38.6 27.9-61.1 98.2-87.8 123.6-148.9 22.9-55.2-8.5-108.3-16.8-162.6-2.9-18.8 5-38.2 6.3-22.6z"  fill="#fff500" /><path d="M423.4-397.7c-11.7 58.2 28.8 113.8 17.3 173-13.3 69.1-83.2 95-120 148.4-5.7 8.2-30 68.5-33.7 67.4-6-1.8-2.6-11.2 3.2-8.7 6.8 2.9-0.3 12.8-5.3 7.4-5.6-6.2 6.8-32.1 9.4-39 27.3-70.9 99.6-93.8 130-156.9 26.6-55.4-4.4-110.2-9.7-166.2-2.8-29.5 9.1-39.3 8.8-25.4z"  fill="#c2e1ff" /><path d="M435.3-396c-17.2 60.7 26.2 121.4 8.1 183.4-19.5 66.9-91.8 91.3-126.6 147.5-5.3 8.6-27.7 72.5-31.5 71.4-6-1.6-2.9-10.9 2.9-8.6 5.7 2.3 1.7 11.1-3.8 8.3-7.2-3.8 3.7-30.1 5.5-36.1 27.9-91.4 105.1-103.2 139.4-174.2 26.8-55.3-3.7-110.5-5.2-167.1-1-38.9 11.5-28.5 11.2-24.6z"  fill="#fff500" /><path d="M441.6-310.6c11.2 54 12.6 105.4-26 149.3-33.4 37.9-79.9 60.8-104.3 106.9-17.5 33-21.4 69.9-30.5 105.6-1.4 5.4-4.9 31.1-14.1 27-6.3-2.8-1.4-12.4 4.6-9 6 3.4 0 12.5-5.5 8.5-6.2-4.5 7.6-34.8 9.2-41.8 11.2-47.7 18.5-94.4 51.4-133.1 28.3-33.3 69.1-54 94.3-90.1 13.8-19.8 20.9-42.9 21.2-67 0-2.2-8-79.1-0.3-56.3z"  fill="#005bbb" /><path d="M450.8-205.2c-24.4 73.5-110.9 96.6-142.6 165.9-7.9 17.3-27.7 112.5-34.4 116.8-6.8 4.3-11.3-8.3-3.4-9.2 9.3-1.2 5.3 14.6-2.3 9-6.2-4.6 7.5-34.3 9.1-41.1 34.3-141.2 37.7-106.2 131.4-197.8 13.3-13 25-41 34.2-49.2 4.2-3.7 9.2 0.9 8 5.6z"  fill="#c2e1ff" /><path d="M458.2-372.3c-11.5 56 17.8 111.9-0.2 167.8-22.4 69.4-97.7 91.1-135.8 148.2-10.8 16.1-27 76.2-31.1 79.6-5.6 4.7-11.2-6.1-4.2-8 8.3-2.2 6.5 12.5-1 8.5-6.4-3.5 1.4-21 2.7-26.1 29.6-116.3 109.3-110 153.5-191.4 28-51.6 5.4-105.9 5.9-160.5 0.2-20.4 10.7-31.9 10.2-18.1z"  fill="#fff" /><path d=""  fill="#fff" /><path d=""  fill="#fff500" /><path d="M481.7-79.3c-26.5 33.8-55.9 69.7-65.7 112.6-1.7 7.5 0.2 39-4.4 42.7-5.2 4.1-8.5-6.9-2-6.4 5.6 0.5 2.8 9.5-2 6.7-18.3-10.5 26.4-133.2 65.6-164.1 5.8-4.6 11.9 2.9 8.5 8.5z"  fill="#fff500" /><path d="M489.2-373.8c-18.3 60.5 11.5 123.8-10.4 183.9-24.9 68.1-94.7 90.2-138.6 141.7-6.6 7.7-35 65.2-38.5 63.9-6.2-2.3-2-11.8 3.9-8.9 6.9 3.4-1.2 13.3-6 7.4-5.6-7 9.6-34.1 13.1-41.1 32.5-66.6 110.6-87.8 148-150 33-54.8 10-114 15-173.2 2.2-25.5 15.6-39.5 13.5-23.7z"  fill="#c2e1ff" /><path d="M415.2-398.2c-12.7 98.1 83.2 153.9-31.7 256.4-7.2 6.4-32.6 35.4-41.9 33.5-11.8-2.4-0.2-19.9 6.6-10.1 6.9 9.9-13.5 14.6-11.7 2.8 0.9-6.1 77.4-68.1 89.3-103.1 18.4-53.6-11.3-104.4-17.9-157-2.4-18.9 6.5-38.4 7.3-22.5z"  fill="#fff500" /><path d="M450.5-397c-17.8 44.6 2.8 92.5 5 138 3.3 66.5-37.2 106.6-85.6 145.1-7.1 5.7-37 39.1-44.4 35.8-10.4-4.7 3.9-18.4 8.2-7.9 4.3 10.6-15.5 10.7-11.4 0.1 14.3-36.8 90.9-68.2 114.1-116.5 25.3-52.8-0.6-106.6-0.7-161 0-10.9-0.2-28.3 5.9-37.8 3.2-5.1 10-1.1 8.9 4.2z"  fill="#fff" /><path d=""  fill="#fff500" /><path d="M518.9-284.4c6.7 67.6 1.5 122.3-44.6 175.8-40.3 46.8-96.9 82-119.9 141.4-3.1 7.9-8.5 42.7-16 45.2-7.1 2.4-8.5-10-1-9.2 7.5 0.8 3.5 12.6-3 8.8-7.2-4.3 6.2-35.3 8.4-41.7 26-79.3 102.7-116.8 146.4-183.9 15.1-23.1 24-49.1 25.6-76.7 1.1-19.3-5.6-41-2.9-59.8 0.6-4.3 6.1-3.6 7 0.1z"  fill="#005bbb" /><path d="M526.4 22.5c1.1 10.3 16.2 47.2 15.4 51.4-0.8 4.3-7.2 0.1-3.7-2.3 3-2.1 5.4 3.5 1.8 4.2-8.3 1.5-19.2-45.7-20.2-52.3-0.7-4.4 5.6-5.1 6.7-1z"  fill="#c2e1ff" /><path d="M533.7 36.2c2 9.1 14.7 29.7 13.1 37.8-0.7 3.6-6.4 1.2-4.2-1.8 2.6-3.5 6.6 2.9 2.3 3.7-5.7 1-17.1-33.7-17.2-38.9-0.1-3.7 4.8-3.9 6-0.8z"  fill="#fff" /><path d="M504.2-396.5c-25 55.5-7.2 109.4-11.1 167.1-3.7 55.2-36.8 96.2-79 128.9-8 6.2-36.7 34.4-46.6 31.3-12.1-3.8 1.8-20.9 8-9.8 6.2 11.1-15.7 13.9-12.5 1.6 0-0.2 91.5-71.5 108.5-105.9 26.8-54 4.8-111.6 10.6-168.3 1.5-14.8 4-37.8 13.1-50 3.8-5.1 10.5-0.3 9 5.1z"  fill="#c2e1ff" /><path d="M550.7-22.9c-7.3 24.4-6.1 49.7 1.6 73.9 1 3.2 12 24.6 6.5 24.9-3.8 0.2-2.8-6 0.8-4.6 3.5 1.4 0 6.6-2.6 3.9-17.9-18.7-27.1-78.5-15-101.4 2.7-5.1 9.3-1.7 8.7 3.3z"  fill="#c2e1ff" /><path d="M558.7-53.7c-14.1 27.2-21.2 56.9-15.3 87.4 1.1 5.5 14.1 42 11.2 42.2-3.7 0.2-2.8-5.9 0.7-4.6 3 1.2 0.9 5.8-2 4.3-3.5-1.8-5.7-11-7.2-14.5-16.4-38.9-16.8-81.5 2.9-119.4 3.3-6.3 11.9-1.7 9.7 4.6z"  fill="#fff" /><path d="M565.3-214.1c3.7 81.6-63 129.4-84.5 202.3-5.9 20-7.2 41-3 61.5 0.6 3 10.4 28.3 3.7 26-3.3-1.1-1.3-6.2 1.8-4.7 2.7 1.2 1.3 5.4-1.6 4.8-5.7-1.2-9.5-23.1-10.7-28.1-17.9-76.9 40.5-129.8 71-193 10.5-21.8 20-92.7 23.3-68.8z"  fill="#fff500" /><path d="M572.8-371.3c2.5 39.1 27.5 94.3 28.4 115.8 1.2 28.4 2.1 56.9 2.7 85.3 2.6 120.1-34.3 86.4-45.7 166.6-2.5 17.4-0.7 35.1 4.2 52 0.8 2.9 9.2 18.4 2.8 18.5-12.4 0.1 12.3-5.5 1-0.3-5.3 2.5-8.2-13.5-9.2-16.5-30.6-91.6 34.7-116.6 35.9-168.3 1-45.2 2.2-90.5 3-135.6 0.3-17.4-25.2-77.7-28.8-104.5-1-7.1 3.5-23.8 5.7-13z"  fill="#fff" /><path d="M581.6-32.3c-9.8 24.6-12.3 50.8-6 76.6 1 4.1 12.4 31.5 7.3 31.6-3.4 0.1-3.2-5.2 0.1-4.9 3.9 0.3 2 6.6-1.4 4.6-18.3-10.3-20.1-95.4-8.9-112.4 3.4-5.1 10.1-0.8 8.9 4.5z"  fill="#c2e1ff" /><path d=""  fill="#c2e1ff" /><path d="M595.3-232.7c27.3 112.8-43.1 131.4-59.9 221.4-5.5 29.5 14.4 82.4 13.9 85.2-0.9 4.3-7.2 0.1-3.7-2.4 3.6-2.5 5.3 4.9 1 4.2-5.4-0.8-11.1-22.2-12.7-26.9-27.7-79.3 31-127.3 53.7-196.7 9.9-30.3 1-54.3 1.6-84.2 0.1-3.8 5-3.8 6.1-0.6z"  fill="#c2e1ff" /><path d=""  fill="#fff500" /><path d="M603.4-118.7c-17.7 43.8-52.5 80.6-52.6 130.3 0 14.6 16.4 56.3 15.1 62.6-1 4.4-7.4 0-3.7-2.5 3.7-2.5 5.4 5.1 0.9 4.3-6.3-1-12.8-28.1-14.4-33.6-7.5-26-7.1-53 1.5-78.7 9.3-27.8 26.5-64.3 44.3-87.6 3.9-5 10.5-0.2 8.9 5.2z"  fill="#005bbb" /><path d=""  fill="#fff" /><path d=""  fill="#fff" /><path d=""  fill="#c2e1ff" /><path d=""  fill="#fff500" /><path d=""  fill="#fff" /><path d=""  fill="#005bbb" /><path d=""  fill="#c2e1ff" /><path d=""  fill="#fff" /><path d=""  fill="#fff500" /><path d=""  fill="#fff" /><path d=""  fill="#c2e1ff" /></svg>