<svg width="1200" height="675" viewBox="-500 -500 1200 675" xmlns="http://www.w3.org/2000/svg"><path d="M-500-500h1200v675h-1200z" fill="#000"/><path d="M-397.1-138.3c29 49.4 79.2 76.6 114.3 120.4 3.1 3.8 24 30 19.5 33.9-3 2.6-5.3-3.9-1.3-3.7 3.4 0.1 2 5.5-1 4-2.5-1.3-24.4-38.8-30.2-45.3-31.7-35.5-72.8-60.4-99.9-100.4-0.9-1.3-5.7-14.3-1.4-8.9z"  fill="#a8dadc" /><path d=""  fill="#457b9d" /><path d="M-398.1-53.8c25.3 19.6 53.9 35 77.4 56.9 8.4 7.9 53.7 58.6 42.1 71.8-3.3 3.8-7.3-4-2.3-4.4 5-0.5 2.5 7.9-1.4 4.8-0.2-0.2-23.6-52.6-33-63.3-22.4-25.3-52.2-41.7-79.2-61.4-1.5-1.1-5.2-5.3-3.6-4.4z"  fill="#e63946" /><path d="M-397.5 27.1c6.8 8 32 35.5 28.4 47.2-1.1 3.7-6.7 0.5-4.1-2.4 2.6-2.9 6.3 2.3 2.8 3.9-4.5 1.9-9.9-17.5-11.6-20.7-1.4-2.6-22.9-35.1-15.5-28z"  fill="#a8dadc" /><path d=""  fill="#a8dadc" /><path d="M-398.1-60.4c25.9 20.7 55.6 36.4 80.1 58.9 11.2 10.3 51.6 68.7 44.7 76.4-3.4 3.8-7.3-4.1-2.3-4.5 5.1-0.4 2.5 8-1.5 4.9-0.2-0.1-23.5-54.4-33.1-65.6-23-26.5-54.1-43.6-82.1-64-0.6-0.4-8.6-7.9-5.8-6.1z"  fill="#f1faee" /><path d="M-398.1-70.1c28.7 24.4 63 41.6 89.9 68.2 10.3 10.2 48.5 69.3 41.3 77-3.5 3.8-7.4-4.3-2.2-4.7 5.2-0.3 2.4 8.2-1.6 4.9-0.4-0.3-22.7-56.8-34.7-70.6-24.5-28.2-58-45.9-87.3-68.4-0.6-0.5-8.6-8.4-5.4-6.4z"  fill="#e63946" /><path d="M-396.6-167.8c27.9 67.7 91.7 100.3 128.1 160.7 0.4 0.7 4.8 6.3 0.9 6.8-9.3 1.2 8.7-5.3 0.8-0.3-1.2 0.7-26.8-35.6-30.5-39.7-28.1-31-62.2-55.7-85.2-91.3-6.1-9.5-21.3-48.5-14.1-36.2z"  fill="#f1faee" /><path d="M-398.2-44.9c44.1 33.3 96.4 60.3 112 117.9 1.3 4.8-7.2 3.8-4.9-0.5 2-3.7 7.3 0.8 4 3.3-5.3 4-7.8-13.4-8.6-15.8-6.2-16.7-15.7-32-27.8-45.1-20.4-22.5-46.7-37.9-71.1-55.5-1.5-1.1-5.3-5.2-3.6-4.3z"  fill="#e63946" /><path d="M-397.4 23.3c4.7 5.2 39.2 46.7 31.2 52.4-3.1 2.2-5.6-3.6-1.8-4.3 3.8-0.7 3.6 5.6-0.2 4.7-3.8-1-6.3-13.4-7.9-16.7-6.1-12.6-31.6-45.5-21.3-36.1z"  fill="#e63946" /><path d=""  fill="#a8dadc" /><path d="M-398-25.2c18.4 13.9 37.6 26.8 54.1 43 6.6 6.5 43.4 46.8 35.2 57.3-2.1 2.7-6.2-0.8-3.8-3.3 2.4-2.5 6.1 1.5 3.4 3.7-4.9 4-8-12.6-8.8-14.7-5.6-13.3-13.6-25.6-23.1-36.5-16.2-18.4-36.4-32.6-56-47-0.7-0.5-1.8-2.9-1-2.5z"  fill="#f1faee" /><path d=""  fill="#f1faee" /><path d="M-397.2-135.2c40.2 66.2 118.3 97.1 144 173.6 1.7 5.1 12.7 34.7 6.9 37.5-3.7 1.7-6-4.2-2.2-5.6 3.3-1.1 5.4 3.6 2.4 5.4-6.4 3.8-7.7-19.7-8.4-22.9-5.7-23.9-15.4-46.6-29.9-66.4-30.8-42-78.5-67.5-109.1-110-1.1-1.6-8.1-17-3.7-11.6z"  fill="#1d3557" /><path d="M-397.1-128.4c41.2 62.7 116.6 92.2 142.4 166.2 1.8 5.2 13.2 35.3 7.3 38-3.1 1.4-5.8-2.9-3.1-5 3.2-2.4 6.8 2.8 3.3 4.9-6.4 3.9-7.2-17.3-7.9-20.2-5.5-23.9-15.1-46.7-29.6-66.6-30.7-42.1-78.8-67.1-110.3-108.7-0.8-1.1-6.4-13.4-2.1-8.6z"  fill="#a8dadc" /><path d="M-396.1-206.4c15.5 61.3 48.4 102.5 91.7 146.8 5.6 5.7 38.7 36.6 35.2 44.6-1 2.3-4.5 0.5-3.2-1.7 1.5-2.5 5 0.8 2.6 2.4-1.7 1.2-23.8-30.1-27.1-33.8-31.1-35.1-66.4-64.1-86.7-107.5-6.5-13.9-17.4-34.5-17.7-50.1-0.1-3.3 4.2-3.4 5.2-0.7z"  fill="#1d3557" /><path d="M-386.4-358.3c-15.7 81.5-11.8 172.7 38.3 242.5 35.8 49.9 83.6 84.2 102.4 145.4 1.9 6.1 6.4 16.2 5.6 22.5-0.6 5.2-8.7 0.8-4.6-2.5 3.5-2.9 6.9 3.8 2.5 4.9-0.9 0.2-23.2-62.4-27.3-69.8-43.1-77.9-100.4-92.6-123.8-194.2-11.4-49.3-10-98.3-1.3-147.9 1-5.7 8.6-7.9 8.2-0.9z"  fill="#f1faee" /><path d="M-380.6-212.6c5.9 31.2 16.3 61.6 33.5 88.5 40.2 62.7 91.2 94.6 108 173 1 4.8 7.1 23.1 3.1 26.6-3.1 2.8-7.2-2.4-3.8-4.7 3.4-2.4 6.9 3.1 3.3 5.1-6.6 3.7-6.5-16.6-7-19.3-4.1-24.1-11.1-47.9-22.2-69.8-26.2-51.7-76.2-85.9-101.1-138.6-8.9-18.8-15.5-39.2-19.4-59.6-0.7-3.7 4.4-4.5 5.6-1.2z"  fill="#1d3557" /><path d="M-376.1-66.6c45.1 35 93.4 62.6 112.5 120 1.3 4 8 18.7 4.6 22.2-2.7 2.8-6.8-1.7-3.8-4.2 3-2.5 6.6 2.5 3.3 4.6-5.9 3.9-8.1-18.3-8.9-21.1-6-20.3-15.9-39.3-29.5-55.5-20.9-25.1-48.8-42.3-74.7-61.5-1.5-1.1-5.2-5.4-3.5-4.5z"  fill="#e63946" /><path d="M-368.5 35.1c5.4 6.6 25.2 29.7 22.2 39.1-1.1 3.7-6.7 0.5-4.1-2.3 2.6-2.9 6.3 2.3 2.8 3.8-4.6 2-8.6-14.9-10.1-17.8-1.3-2.5-14.7-26.7-10.8-22.8z"  fill="#a8dadc" /><path d="M-362.4-62.6c43 32.5 85.2 61.9 102.2 115.9 1.5 4.6 7.1 17 4.9 21.5-1.7 3.5-7.1 0.5-5-2.8 2.4-3.9 7.8 1.5 4 3.9-5.9 3.8-7.3-15.5-7.9-17.9-5.4-20.5-14.4-39.9-27.2-56.8-18.3-24.2-43.3-41.6-67.5-59.4-1.5-1.1-5.2-5.3-3.5-4.4z"  fill="#a8dadc" /><path d=""  fill="#1d3557" /><path d="M-347.7-128c23.8 39.1 60.8 68 83.5 107.9 5.6 9.8 41.4 90.2 27.7 96-3.8 1.6-6-4.6-2-5.7 3.4-1 5.5 3.9 2.3 5.6-6.8 3.8-6.7-18.1-7.3-21.3-4.4-25.2-12.1-50-24.1-72.7-20.8-39-55.5-67-80-103.3-0.8-1.2-4-11.2-0.1-6.5z"  fill="#a8dadc" /><path d="M-346.8-396.8c-28.9 85.6-40.8 181.8 5.6 264 18.7 33.1 85.2 92.9 87.8 127.5 0.3 4.2-6.6 2-4-1.3 2.6-3.3 6.2 3.1 2.1 3.7-3.1 0.4-22.3-39.5-25.9-44.7-56.5-82.2-99.9-113.5-98.6-223.8 0.5-42.8 10-87.9 24.7-128.1 2-5.4 9.4-2.7 8.3 2.7z"  fill="#e63946" /><path d=""  fill="#e63946" /><path d="M-328-58.7c38.3 32.1 67.9 67.2 79.7 116.9 0.9 3.6 5.2 14.2 2.1 17.2-2.9 2.8-7-2.1-3.9-4.6 3.2-2.4 6.8 2.8 3.3 4.9-6.2 3.7-6.5-13.9-7-16.3-4.1-19.6-10.8-38.7-20.8-56-13.4-23.3-32.5-41.9-52.8-59.2-0.3-0.3-3.2-4.5-0.6-2.9z"  fill="#e63946" /><path d="M-318.4-298.1c0.6 70.5 39.6 127.4 63 191.4 13.2 36.1 20.8 74.1 27 111.9 1.4 8.5 14 68.2 6.4 70.9-4.8 1.7-5.9-6.6-0.8-6.2 5.9 0.5 1.3 9.7-2.6 5.4-3.7-4.2-15.8-109.1-19.4-125.4-16.3-73.2-60.4-136-75.6-209-2.4-11.4-7.1-28.1-4.6-39.6 0.9-4 6.1-3 6.6 0.6z"  fill="#f1faee" /><path d="M-312.4-226.7c25.4 88.9 65.7 136.8 83.6 239.9 1.3 7.7 12.8 60.3 5.7 62.9-4.7 1.8-5.9-6.6-0.9-6.2 5.9 0.5 1.4 9.7-2.6 5.3-3.5-3.9-16.9-107.1-21.2-123.5-15.5-59.4-47.8-111.2-67-169-0.8-2.4-1.1-17.5 2.4-9.4z"  fill="#a8dadc" /><path d="M-305.6-237.8c10 32.8 26.4 63 40.4 94.2 24.5 54.6 34.1 115 41.7 174 0.8 6.3 8.4 44 2.4 46.2-5.6 2-5.3-8.3 0.2-5.9 5.5 2.4-1.9 9.7-4.3 4.2-4.4-10.4-15.6-118.2-21-143.3-12.4-57.2-42-105.5-61.5-160-0.8-2.4-1.5-17.3 2.1-9.4z"  fill="#1d3557" /><path d="M-328.5-397.3c-24.9 79.2-36.7 160.9-4.2 240 10.7 26.1 26.5 49.1 42.6 72.1 1.4 2 14.9 18.3 10.3 19.2-2.3 0.5-2.8-3.2-0.5-3.4 2.3-0.2 2.5 3.5 0.2 3.5-3.7-0.1-10.5-14.4-12.6-17.4-44.3-63.6-72.7-129.5-66.9-208.9 2.4-31.8 6.6-80.9 23.3-108.7 2.7-4.5 8.7-1.1 7.8 3.6z"  fill="#f1faee" /><path d="M-292.6-125.9c30.5 56.7 55.7 110.5 65 174.9 0.7 4.5 6.2 25.3 0.9 27.4-4.7 1.8-5.9-6.4-0.9-6.1 5.9 0.4 1.4 9.6-2.5 5.3-3-3.3-13.3-78.7-16.9-91.4-10.6-36.9-27.9-70-46.4-103.5-0.8-1.5-3-12.1 0.8-6.6z"  fill="#457b9d" /><path d="M-285.9 25.1c5.7 8.8 24.6 38.9 19.9 49.5-1.8 4-7.7-0.4-4.4-3.3 3.3-2.9 6.8 3.6 2.6 4.8-5.5 1.6-8.1-19.8-9.4-23.6-3.2-9-14.5-35-8.7-27.4z"  fill="#f1faee" /><path d="M-278.5-264.9c15.8 38.8 48.2 69.2 59.9 109.7 15.2 52.8-0.9 114.8 2.3 169.5 0.7 12.4 10 51.1 3.3 61.1-2.9 4.3-8.8-1.9-4.4-4.6 4.4-2.7 7.2 5.4 2 6-13.7 1.6-3.9-194-5.6-213-4.3-47.7-39.6-80.5-59.3-121.9-1.1-2.3-1.8-12.8 1.8-6.8z"  fill="#f1faee" /><path d="M-270.1-387.7c-3.4 42.3-0.8 83.3 21.6 120.4 18.9 31.5 49.6 57.1 58.6 94 11.8 48.3-21.3 121-21.6 176.9 0 5.9 3.8 43-2.3 42.9-4.5 0-4-7.1 0.4-6.5 3.8 0.5 3.7 6.2-0.1 6.5-7.1 0.7-4.6-27.9-4.7-32.7-1.5-67.8 25.7-126.2 24.1-172.9-2-57.1-59.1-92.7-76.1-145-8.7-26.8-9.9-56.3-7.2-84.2 0.5-4.8 7.1-4.1 7.3 0.6z"  fill="#f1faee" /><path d="M-263.4-378.9c-4.2 119.2 65.4 120.8 83.1 200 11.2 50.3-27.9 120.5-29.6 178.2-0.2 8.4 5.4 49.3-0.6 53.6-4.2 3.1-7.8-4.8-2.6-5.8 4.4-0.9 5.5 6.1 1 6.5-7.1 0.7-4.5-27.3-4.6-32.1-1.9-82.6 33.2-141.4 31.7-188.3-1.7-56.2-58.2-91.1-76-141.9-6.8-19.5-14.8-50.8-9.2-71.2 1.1-4.1 6.5-2.8 6.8 1z"  fill="#a8dadc" /><path d=""  fill="#1d3557" /><path d="M-251.8-223.9c50.4 74.6 39.9 93.5 35.7 178.9-1.8 37 1.4 74 3.7 110.9 0.1 2.4 2.1 12.5-3.9 10.6-3.6-1.2-2.4-6.7 1.4-6.4 3.8 0.4 3.8 6.1 0 6.5-14.9 1.7-2.3-184.9-2.3-203.1 0.1-35.2-14.8-62.7-34.2-91-0.6-0.9-4.3-11-0.4-6.4z"  fill="#1d3557" /><path d="M-243.9-18.7c4.1 12.6 23.2 85.4 18.1 93.6-2.6 4.3-8.6-1.5-4.4-4.3 4.2-2.8 7.2 5 2.2 5.8-6 0.9-7.4-34.6-8.3-39.9-3-18.3-15.2-72.2-7.6-55.2z"  fill="#e63946" /><path d=""  fill="#1d3557" /><path d="M-231.3-218.9c48 64.6 26.6 102.8 19.4 175.3-3.6 36.8-0.8 73.9 1.1 110.7 0.1 1.4 1 13.2-4.9 8.7-11.6-8.8 16.8-0.9 2.3 0.7-7.6 0.8-7.2-101.2-6.5-112.6 2-32.7 11.3-64.2 13.7-96.8 1.4-18.8-1.3-37.3-9.3-54.5-0.7-1.5-24-40.3-15.8-31.5z"  fill="#a8dadc" /><path d="M-221.2-398.9c7.2 103 63.7 118 79.5 187.7 10.8 47.6-19.6 87.9-39.9 128.1-3.6 7.2-17.4 54.2-22.3 54.4-7.4 0.5-3.5-11.9 2.3-7.1 6.7 5.6-8.2 10.9-6.5 2.3 11.3-56.2 60-102.9 61.7-160.4 1.7-55.1-51.1-93.9-68.8-142.9-7.1-19.6-11.1-40.8-12.4-61.6-0.3-4.2 5.6-4.5 6.4-0.5z"  fill="#e63946" /><path d="M-215.6 24.8c0.4 6.5 6.4 51.9-0.1 52-4.4 0-4.1-7 0.3-6.5 4.4 0.5 3.3 7.4-1 6.4-8.8-1.9-3.7-75.6 0.8-51.9z"  fill="#a8dadc" /><path d=""  fill="#e63946" /><path d="M-201.3-15.5c-1.6 10.1-2.8 92.5-6 92.4-4.5-0.1-4-7.2 0.5-6.6 4.5 0.6 3.2 7.6-1.2 6.6-8.6-2.1-4.5-84.7-0.7-94.3 1.7-4.4 7.4-2.2 7.4 1.9z"  fill="#a8dadc" /><path d="M-194.1-56.7c-10.9 31.4-12.5 64.5-12.1 97.6 0.1 5.2 4.1 35.7-2.4 35.5-4.5-0.1-4-7.1 0.5-6.6 4.5 0.6 3.2 7.5-1.2 6.6-14.4-3.4-1.6-122.1 7.3-136.7 2.8-4.5 8.8-1 7.9 3.6z"  fill="#457b9d" /><path d=""  fill="#a8dadc" /><path d="M-173.1-399c16.4 65.4 66.1 100.6 83.5 156.2 19.7 62.7-36.1 108.5-70.4 152.5-4.1 5.3-19.9 36-26.8 31.9-4.8-2.9-1.3-10.5 4-8.8 5.3 1.8 3.6 10-2 9.4-10.8-1.1 2.8-19.1 4.9-22.6 27.4-43.9 83.6-81.1 87.4-136.4 3.6-52.3-45.9-91.9-68-135-12.6-24.6-18.4-61.4-12.6-47.2z"  fill="#a8dadc" /><path d="M-165.3-399.5c18.1 62.3 70.7 98.8 88.7 154.3 21.7 66.8-42.4 112.4-79.9 156.9-4.6 5.5-23.1 38.5-29.6 34.6-4.8-2.9-1.3-10.5 4-8.8 5.3 1.8 3.5 10-2 9.4-12.3-1.3 8.5-27.9 11.3-31.7 30-41.7 88-76.8 93.4-131.9 5.3-53.7-46.8-93.6-71.1-136.2-8.1-14.2-14.9-29.4-19.7-45.1-1-3.2 3.6-4.4 4.9-1.5z"  fill="#1d3557" /><path d="M-169.5-275.9c18.5 26.1 36.3 53.1 34.7 86.4-2.9 61-55.9 107-66.6 167-1.9 10.7-4.2 99.5-6.5 99.5-4.5-0.1-4-7.2 0.4-6.6 4.5 0.6 3.2 7.5-1.2 6.5-6-1.4-3.3-25.1-3.4-30-3.4-146.2 36.9-120.5 66.1-218.5 6.3-21.3 5.5-43.3-3.1-63.9-0.7-1.6-27.7-48.5-20.4-40.4z"  fill="#f1faee" /><path d="M-160.8-399.2c19.6 61.7 78.2 101.6 93.6 157.7 21.1 76.6-66.1 121.4-102.7 174.6-11.5 16.7-24.6 54.6-25.9 55.1-6 2.3-7.7-8.3-1.2-7.8 5.5 0.3 4.5 9-0.9 8-8.5-1.5 1.8-24.1 3.4-28.7 24.4-67.3 114.3-107 122.9-174.8 7.1-55.2-47.2-95.5-73-138.1-15.4-25.4-22-58-16.2-46z"  fill="#f1faee" /><path d="M-155.8-287.9c87.6 128.1-14 143.6-41.8 257.4-4.3 17.6-2.8 100.3-6.6 105.7-3 4.3-8.9-2.2-4.4-4.8 5.3-3.1 6.9 7.5 0.9 6.1-6-1.4-3.2-24.3-3.3-29.3-2.8-152.5 47.8-128.2 79.7-227.9 7.2-22.4 5.7-45.4-3.9-66.8-0.4-0.8-28.7-49.7-20.6-40.4z"  fill="#f1faee" /><path d="M-148.5-368.9c25 51.3 89.8 95 84.6 157.1-5.7 66.9-81 101.7-112.4 155.1-10.1 17.1-16.4 35.9-19.6 55.4-0.7 4.5 0.2 25.2-6.6 24.3-5.7-0.7-2.5-9.7 2.4-6.7 4.2 2.6-0.3 9-4.2 6-4.9-3.9 0.4-22.6 1.3-28.2 15.4-99.6 111.8-125.3 130.2-200.5 14.7-59.9-46.7-104.3-73.6-150.4-1.1-1.9-6.5-18.7-2.1-12.1z"  fill="#a8dadc" /><path d="M-134-399.4c29.2 58.3 97.3 87.9 121.1 148.2 28.7 72.8-32.4 129.5-84.4 169.5-7.1 5.4-31.2 31.5-39.5 29.8-6.6-1.4-5.6-11.4 1.2-11.5 7.9-0.1 7.3 12.3-0.5 11.6-17.7-1.8 19.6-30.2 22.8-32.9 43.6-34.6 100.1-72.2 100.6-134.5 0.6-67.3-68.2-102-105.2-148.7-7.3-9.2-22.9-41.1-16.1-31.5z"  fill="#f1faee" /><path d="M-132.3-30.7c-18.1 22-28.7 48.2-32.5 76.4-0.6 4.5 0.5 33.7-6.6 30.8-3.7-1.5-2.1-7.2 1.8-6.6 4.6 0.7 3 7.9-1.5 6.7-7.7-2.1-1.4-70.2 27-109.4 4.7-6.5 17.7-7.7 11.8 2.1z"  fill="#e63946" /><path d="M-128.2-273.9c66 101-37.7 148.7-65.3 236.1-7.3 23.1-7.1 109.4-9.8 113.1-3.6 5-9.4-4-3.4-5.2 5.2-1 5 7.7-0.1 6.5-6-1.4-3.2-24.3-3.2-29.3-2-147.1 43.1-122.8 88.5-224.7 8.5-19 11.4-39.8 6-60.1-0.5-1.8-20.6-46.1-12.7-36.4z"  fill="#e63946" /><path d="M-121.6-313.9c34.2 45.6 66.6 91.1 32.1 147-28.8 46.7-78.4 76.8-98.6 129.4-9.1 23.9-11.8 49.5-12.4 75-0.2 8.1 4 31.9-0.4 38.1-3.1 4.3-9-2.2-4.4-4.8 5.4-3.1 6.9 7.6 0.9 6.1-6.1-1.5-3-26.9-3.1-32.1 0.1-50.5 8.5-97.1 40.2-137.8 25.6-32.9 63-59.6 79.8-98.7 10.2-23.8 8.2-49.3-3.3-72.2-4.1-8.3-39.3-58.7-30.8-50z"  fill="#457b9d" /><path d=""  fill="#f1faee" /><path d="M-105.9 47.8c0.2 5 5.8 23.9 2.9 27.2-2.8 3.2-6.9-2.4-3.1-4.1 3.8-1.7 5.2 5.1 1 5-5.1-0.1-8.7-25.5-7-29.2 1.4-3.3 5.6-2 6.2 1.1z"  fill="#1d3557" /><path d=""  fill="#a8dadc" /><path d="M-91.7-208.5c-4.9 69.8-81.4 111.2-101.3 176.3-8.5 27.7-9.4 57-9.1 85.9 0 3.7 3.8 25.4-4.1 22.5-3.6-1.3-2.3-6.9 1.6-6.4 4.5 0.6 3.2 7.6-1.2 6.5-6-1.5-3.1-23.8-3.2-28.7-1-102.3 27.8-125 84.5-202.6 12.3-16.9 33-74.5 32.8-53.5z"  fill="#f1faee" /><path d="M-84.9-212.6c-2.9 71-83.1 112-105.6 176-10 28.4-11.3 58.9-11.1 88.7 0 3.6 3.6 27.4-4.1 24.6-3.6-1.3-2.3-6.9 1.6-6.4 4.5 0.6 3.2 7.6-1.2 6.5-6.1-1.5-3.1-25.2-3.1-30.1-0.6-103.8 30.5-125.9 89.5-202.9 9-11.8 33.6-76 34-56.4z"  fill="#1d3557" /><path d="M-81.1-354.7c63.7 57.1 125.7 95 95.9 192.2-14.2 46.4-50.9 90-48.7 140.4 0.8 17.7 7.3 34.5 18.2 48.4 1.5 1.9 14.6 14.8 13.6 15.9 0 0-0.4 0.2-0.4 0.2-3.5 0.9-14.8-13.7-17.1-16.4-65.5-79 42.3-167.5 34.4-252-5.2-55.7-48.4-87-88.2-119.8-0.9-0.8-11.1-11.2-7.7-8.9z"  fill="#1d3557" /><path d=""  fill="#f1faee" /><path d="M-67.6-373.6c39 30.8 83.2 53.3 104.8 100.9 33.5 74-12.6 139.3 7.6 206.4 8.6 28.5 30.3 49 48.9 71.1 1.7 2 9.5 8.6 7.5 11.3-0.1 0.1-0.6 0.5-0.7 0.5-2.9 1.1-18.6-21.4-21.2-24.4-90-103-9.8-145.7-41.8-250.6-15.5-50.7-55.6-77.8-96.6-107.1-1-0.7-11.3-9.8-8.5-8.1z"  fill="#1d3557" /><path d="M-57.1-140c-41.3 43.5-102.2 67.4-123.6 127.6-6.6 18.6-8.4 83.5-11.7 87.8-3.7 5.1-9.5-4.2-3.3-5.3 6.2-1.1 4 9.6-1.2 6.1-6.7-4.4-1-39.3-0.4-46.8 3-35.4 13.5-68.8 36.9-96.2 12-14 84.7-78.7 97.6-82.7 6-1.9 9.1 5.2 5.7 9.5z"  fill="#e63946" /><path d="M-50.1-150.4c-39.5 48.6-105.4 71.1-129.6 132.5-8.1 20.5-9.4 88.2-13.3 93.5-3.7 5.1-9.5-4.2-3.3-5.4 6.2-1.1 4 9.6-1.3 6.2-6.7-4.4-1-39.3-0.4-46.8 6.1-75.4 50.4-112.8 106.4-156.9 11.9-9.4 22.1-22.6 34.1-31.2 5.5-3.9 10.7 3.2 7.4 8.1z"  fill="#a8dadc" /><path d=""  fill="#f1faee" /><path d="M-4.9-399.2c34.7 28.3 61.2 61.4 75.3 104.4 23.3 71.4 0.8 134.7 11.2 204.7 1.9 12.6 25.1 66.5 24.3 70.2-0.8 3.8-6.5 0.1-3.3-2.1 2.7-1.9 4.9 3.2 1.6 3.8-5 0.9-16.8-32.6-18.7-37.5-26.4-68.1 0-141.2-13.6-211.6-8.4-43.3-27.3-82.9-59.1-113.9-3-2.9-18.6-18.6-17.7-18z"  fill="#f1faee" /><path d="M-32 17c8.6 18 23.1 31.8 38.6 44 1.7 1.3 17 12 16.2 13.1 0 0-0.3 0.2-0.4 0.2-1.8 0.6-8.5-6-10.2-7.3-14.5-10.9-28.9-22-40-36.5-2.2-2.9-8.5-19.5-4.2-13.5z"  fill="#e63946" /><path d="M-26.5-380.5c35.9 24.6 66.6 52.1 83.2 93.4 30.3 75.3-4.4 143.6 15.8 213.6 3.2 11.1 51.4 102.9 49.7 103.5-2.8 1.1-4.3-3.5-1.3-4.2 3.4-0.9 3.6 5 0.1 4.4-3.9-0.7-7.7-14.6-9.4-18.2-18.6-36.9-45-69.9-50.2-112.2-6.6-53.4 10.3-106.1-1.7-159.6-9.4-42.5-32.3-78.3-66.6-105-6.6-5.2-27.1-19.6-19.6-15.7z"  fill="#1d3557" /><path d="M-19.6-339.6c52.2 38.6 76 93.7 70.3 158-3.5 39.2-17.6 80.1-4.2 118.8 9.3 26.8 89.4 112.3 83.7 130.2-1.2 3.7-6.7 0.5-4.1-2.4 2.6-2.9 6.3 2.4 2.7 3.9-2.6 1.1-20.1-38.4-23.3-43.3-23.8-37.2-62.8-64.6-70-110.7-8-51 15.5-101.3 7-152.9-5.4-33.4-21.7-63.4-46.4-86.4-2.5-2.3-16.7-15.7-15.7-15.2z"  fill="#457b9d" /><path d="M-11.4-266.9c60.4 104.5-64 172.3-117 240.9-16.9 21.9-26.9 47.6-30.3 75-0.5 4.2 1.2 30.3-6.1 27.5-3.7-1.4-2.1-7.1 1.7-6.5 3.9 0.6 3.6 6.5-0.3 6.7-7.1 0.4-3.4-19.8-3.1-23.7 2.1-29.7 11-58.5 28-83.1 31.2-44.9 80.9-72.8 111.5-118.4 15.8-23.5 25.9-51.3 23-79.9-0.4-4.3-15.1-49.6-7.4-38.5z"  fill="#457b9d" /><path d=""  fill="#e63946" /><path d=""  fill="#1d3557" /><path d="M16.9-399.2c28.8 29.1 49.1 63.4 60.1 102.9 22.8 80.8-4.9 153 12.8 224.5 2.4 9.9 36.5 92.8 34.4 93.5-3.6 1.2-4.2-5-0.4-4.6 3.2 0.4 2.3 5.3-0.8 4.7-3.7-0.9-5.5-11.4-6.8-14.4-14.8-35.9-33.7-70.2-37.5-109.5-5.1-52.3 7.7-104.2 0.4-156.8-6-43.1-20.3-85.3-47.5-119.8-2.1-2.7-17.5-22.7-14.7-20.5z"  fill="#e63946" /><path d="M58.9-399.5c33.5 65.9 44.9 142.8 40.4 216.1-1.8 30.1-6.5 60.2-3.9 90.4 0.7 8.7 12.7 51.6 11.7 54.7-1.4 4.3-7.5-0.8-3.5-2.9 3.4-1.8 5.2 4.4 1.3 4.6-5.8 0.3-11.3-30.6-12.3-35.5-12.5-57.6 3.7-117-0.2-175.4-3.2-48.9-13.2-98.1-33.7-142.8-0.4-0.9-4.2-15.9 0.2-9.2z"  fill="#1d3557" /><path d="M24.3-225.3c9.8 74-64 145.6-40.3 212.9 13.3 37.7 52 54 80.6 77.9 1.6 1.3 8.7 5.9 8.3 8.1-0.1 0.4-0.5 0.8-0.8 0.9-1.5 0.3-94.9-60.5-99.1-112.2-4.1-49.4 29-92.9 40.6-139.1 1.8-7.2 6.1-69.8 10.7-48.5z"  fill="#457b9d" /><path d="M29.7-41c6.6 13.6 106.3 106 93.2 116.5-2.8 2.2-5.5-3.2-2-4 4.1-1 3.1 6.3-0.6 4.2-7.6-4.4-15.9-30.4-22.2-38.6-18.7-24.2-45.5-40.5-64.1-64.6-2.2-2.8-8.6-19.4-4.3-13.5z"  fill="#457b9d" /><path d=""  fill="#457b9d" /><path d="M43.3-319.9c58.5 92.1 4.6 170.2 34.5 255 8.2 23.1 69 123 61.7 139.4-1.8 4-7.7-0.3-4.3-3.3 3.3-2.9 6.8 3.5 2.6 4.8-3.9 1.1-14.6-39.7-16.9-45.3-16.5-40.9-46.7-76.4-55.3-120.2-9-45.6 4.4-92.3 1.1-138.3-2.2-29.6-9.4-59.4-23.9-85.5-0.5-0.9-3.5-11.8 0.5-6.6z"  fill="#a8dadc" /><path d="M51.7-223.2c6.1 58.4-26.3 121.6 4.1 176.3 5.5 10 90.3 119.2 75.5 122.9-3.9 1-4.1-5.8-0.2-5 4 0.8 1.3 7-1.9 4.6-6.9-4.9-12.2-31.6-16.8-40-22.1-40.7-64.9-69.7-74.4-116.9-8.2-40.7 6.9-81.9 7.8-122.7 0.1-4.8-2.7-17.1 0.2-20.9 1.9-2.5 5.2-1 5.7 1.7z"  fill="#a8dadc" /><path d="M57.2-343.9c58.4 108.2 6.8 186.7 34.2 279.7 3.9 13.1 58.1 139.1 48.3 140.6-4.5 0.7-4-6.8 0.4-5.6 3.7 1.1 1.7 6.8-1.9 5.4-4.2-1.7-4.6-15.5-5.6-19.5-12.5-49.7-43.1-93.5-52.3-144-8.9-48.5 3.9-98.1 0.7-147.1-2.3-35.1-9.7-70.9-25-102.8-0.6-1.3-2.6-12.5 1.2-6.7z"  fill="#e63946" /><path d="M63-4.7c7.5 7 74.5 69.7 61.2 79.9-3.4 2.6-5.5-4.6-1.2-4.2 3.7 0.4 1.7 6.2-1.4 4.3-7-4.2-14.2-28.5-19.6-36.2-11-15.4-24.7-28.2-38.7-40.8-0.6-0.6-3-4.9-0.3-3z"  fill="#e63946" /><path d="M69.6 36.4c5.9 4.5 38.5 29.4 35.1 37.6-1.1 2.6-4.9-0.1-2.8-2 1.8-1.6 4.1 1.3 2.2 2.7-2.9 2.1-12.9-15.1-15-17.5-6.2-7.2-27.6-25.8-19.5-20.8z"  fill="#457b9d" /><path d="M76.6 49.3c3.9 3.3 24.1 19.4 22.2 24.7-0.8 2.1-3.9 0.7-2.9-1.3 1.1-2.3 4.5 0.4 2.4 2-2.6 2.1-23.2-26.4-21.7-25.4z"  fill="#f1faee" /><path d="M85.4-372.7c38.1 138 0.2 233.7 20.1 316.3 3.1 12.7 43.9 131.7 36.1 132.7-3.9 0.5-4.4-5.7-0.4-5.8 4-0.1 3.7 6.2-0.2 5.8-4.7-0.4-4.4-12.3-5.1-15.4-10.1-48.6-34.1-93.6-41.1-142.7-6.7-47.1 4.4-94.6 4.4-141.8 0-47.6-5.8-96.2-17.6-142.4-0.7-2.8 0.9-14 3.8-6.7z"  fill="#457b9d" /><path d="M90.7 6.1c5.9 6.7 49.7 62.5 39.3 69.5-3.3 2.2-5.7-3.9-1.8-4.5 3.9-0.6 3.5 5.9-0.3 4.9-4.3-1.2-8.7-20.7-10.8-25.1-6.3-13.4-25.6-30.4-28.7-43.6-0.3-1.4 1.4-2 2.3-1.2z"  fill="#f1faee" /><path d="M97.9-2.9c5.7 7.9 47.8 72 36.8 78.6-3.6 2.2-5.8-4.5-1.6-4.9 4.2-0.4 3.4 6.5-0.6 5.1-4.6-1.5-8.6-24-10.6-28.9-6.9-17.1-36.4-63.7-24-49.9z"  fill="#f1faee" /><path d=""  fill="#e63946" /><path d="M114-162.6c-7.5 67.4-2.5 111.3 16.7 176.2 2 6.7 18.9 61.7 11.9 62.5-3.4 0.4-4.5-4.6-1.3-5.7 3.8-1.3 5.5 4.8 1.6 5.7-5.5 1.2-9.7-33.3-10.9-38.4-11-43.9-28.7-86.2-30.2-131.9-0.7-20.6-2.2-50.6 5-70.1 1.6-4.3 7.2-2.3 7.2 1.7z"  fill="#1d3557" /><path d="M120.2-53.4c3.3 30.7 30.4 103.2 26.3 127-0.8 4.7-8.1 1.7-5.4-2.2 3.2-4.6 8.5 3.5 3.1 4.6-3.7 0.8-28-113.7-29.8-126.3-0.6-4.5 4.3-8.8 5.8-3.1z"  fill="#a8dadc" /><path d="M127.4-59.1c-0.1 14 20 135.4 17.7 135.6-4.1 0.3-4.3-6.1-0.2-6 4.1 0.1 3.6 6.6-0.5 6-5.4-0.7-5.6-22.4-6.4-26.9-5.9-33.3-15.1-66.2-17-100.2-0.3-4.3 5-18.7 6.4-8.5z"  fill="#1d3557" /><path d="M134.4-229.9c-2 69.2-23.8 136.2-9.7 205.3 2.1 10.2 25.8 100.2 19.2 100.9-4.7 0.5-3.8-7.3 0.7-5.8 3.8 1.3 1.4 7.3-2.3 5.5-5.9-2.8-8.6-39.6-10.3-46.9-32.1-136.6-10.2-128.4-4.9-253.8 0.2-4.6 6.5-14.3 7.3-5.2z"  fill="#1d3557" /><path d=""  fill="#e63946" /><path d="M148.2-211.7c-4.2 64.8-28.5 125.7-18.3 191.1 1.5 10 21.1 96.3 15 96.8-4.1 0.4-4.3-6.1-0.2-6 4.1 0.1 3.6 6.5-0.4 6-5.5-0.7-7.7-33.9-8.9-39.5-25.7-129.3-7.6-118.9 4.5-237.4 0.3-3 7.7-23.8 8.3-11z"  fill="#1d3557" /><path d="M155-242.9c-2.6 74.1-33.3 147.4-23.7 221.4 1.7 13.3 19.6 90.4 16.4 96.1-2.8 4.9-8.9-2.7-3.5-4.4 4.6-1.4 5.3 6.6 0.4 5.9-5.4-0.7-7.3-32.6-8.4-38.2-19.8-104.7-10.8-115.3 5.9-216.1 3.4-20.8 0.2-45.9 5.9-65.8 1.2-4.2 6.6-2.7 7 1.1z"  fill="#f1faee" /><path d="M163.7-398.4c6.6 72.4 7.2 163.6-7 234.8-6.8 34-19.8 66.7-22.9 101.5-1.4 15.2 9.8 90 7.8 94-2.5 4.8-8.7-2.3-3.6-4.1 4.3-1.5 5.3 6.1 0.7 5.7-12.9-1.2-12.8-90.7-11.7-103 4.1-43.8 22.2-84.8 27.2-128.6 7-62.3 8.4-129 3.9-191.6-0.2-3 3.6-18.9 5.6-8.7z"  fill="#e63946" /><path d="M173.5-398.7c9.9 69.4 14.8 159.9 2 228.9-8.1 43.6-31.6 82.8-35.5 127.3-0.8 9.4 3.7 57.1 2 60.3-2.4 4.2-8.3-1.2-4.4-4 4.6-3.3 6.9 6.3 1.3 5.5-6.3-0.9-5.9-32.2-6.1-37.7-3.2-62.1 31-113.2 38.2-173.3 7.7-63.8 5.5-134.4-2.4-198-0.3-2.7 2.4-18.7 4.9-9z"  fill="#e63946" /><path d="M175.5-258c-0.4 32.3-0.4 64.7-7.4 96.4-10.2 46.4-32 88-30.7 136.6 0.4 14.4 14.9 94.9 11.9 99.9-2.5 4.2-8.4-1.3-4.4-4.1 4.7-3.3 7 6.5 1.3 5.6-5.7-0.9-6.4-31.1-7.2-36.5-15.5-100.5-1.6-110.1 21.1-203.3 7.6-31.1 1.2-66.9 8.5-95.5 1.1-4.1 6.4-2.8 6.9 0.9z"  fill="#e63946" /><path d="M183.2-75.1c-23.6 34.4-31.9 69.6-30.4 111 0.2 6.7 6 36.4 0.9 40.3-4.1 3.2-7.7-4.6-2.7-5.8 5-1.1 5.1 7.4 0 6.4-6.1-1.3-4.4-32.8-4.7-38.6-1.9-37.9 1.4-73.9 20.9-107.3 2.3-3.9 5.1-11.2 9.2-13.4 5-2.7 9 3 6.8 7.4z"  fill="#f1faee" /><path d="M189.9 68.3c-1.1 3-11.2 16.3-10.4 4.8 1.3-18.9 13 17.7 0.9 3-7.7-9.4 11.6-19.1 9.5-7.8z"  fill="#1d3557" /><path d=""  fill="#1d3557" /><path d="M201.9-381.7c16.3 52.6 71.2 230.8 57.2 275.3-13.8 43.8-59.8 63.1-80.2 102.6-3.7 7.2-9.1 40-14.5 42.5-4.7 2.3-7.9-5.3-3-7 5.7-2 7 8 1 7.4-7.5-0.7-1.3-18-0.4-21.9 14.3-62.5 89.3-87.6 94.3-151.6 2.8-36.5-42.1-187.4-55-231.5-0.5-1.8-3.6-25.2 0.6-15.8z"  fill="#457b9d" /><path d="M210.3-47.9c-23.6 22.5-39.8 47.1-44.8 79.8-0.9 6-1.5 47.6-7.9 44.9-4.4-1.9-1.1-8.6 3-6.3 3.5 2 1.2 7.6-2.7 6.4-6.5-2-1.5-30.9-1-36.5 3-34.9 14.9-65.2 39.4-90.6 5.8-6 22.8-8.6 14 2.3z"  fill="#a8dadc" /><path d="M270.8-399.5c43.5 43.9 62.3 97.6 96.1 147.8 33.2 49.3 80 86.2 96.5 145.7 0.9 3.2 6.1 14.7 1.7 16.9-3.5 1.7-6-3.9-2.3-5.3 3.1-1.2 5.4 3.3 2.6 5.1-5.9 3.8-8.9-21.7-9.9-25-7.7-25.9-21.1-49.1-37.8-70.2-20.4-25.7-43.3-48.9-61-76.6-25.5-40-40.8-85-72.7-121-1.8-2-16.4-20-13.2-17.4z"  fill="#457b9d" /><path d=""  fill="#457b9d" /><path d="M230.8 11.3c-14.5 12.7-26.8 27.4-34.9 45-1.8 3.8-6.5 26.2-13.8 20.3-3.9-3.1 0.1-9.4 4.6-7.1 5.2 2.6 0.7 10.6-4.2 7.4-14.1-9 31.4-69.5 41.5-75.1 6.3-3.5 11 4.6 6.8 9.5z"  fill="#f1faee" /><path d="M236.1-288.8c19.1 62.3 83.7 161.6 60.7 224-16.7 45.2-64.8 63.1-91.2 100.9-4.9 7.1-14.6 39.5-20.9 41.6-5.5 1.8-7.8-7-2.2-8.2 6.6-1.4 6.5 9.8-0.1 8.3-8-1.9 1.5-20.1 3-24.2 22.8-58.1 99.4-80 109.2-143.3 9.6-62.1-41-129.2-59.8-186.4-0.7-2.1-2.7-21.4 1.3-12.7z"  fill="#a8dadc" /><path d="M241.8-392.9c33.2 44.7 60.1 93.8 93.6 138 55.5 73.5 131.5 106 131.8 211.4 0 6.5 1.7 33.3-5.1 36.3-5 2.2-8-5.8-2.8-7.5 4.4-1.4 7.2 4.9 3.2 7.3-8.8 5.1-2.1-36.8-2.1-42.2-0.1-34.5-9.6-68.8-28.7-97.6-24.9-37.7-63.5-63.6-92.3-98-33.2-39.7-55.8-87.2-86.9-128.5-1.6-2.2-14.9-23.7-10.7-19.2z"  fill="#f1faee" /><path d="M249.1-345.9c20.9 37.6 39.3 77.2 67 110.5 62.3 74.9 158 104.8 141.7 222.6-1.5 10.9-5.8 45.3-16.5 50.9-9.2 4.8-8.1-13.9 0.5-8.1 7.3 5-5.4 13.5-7.3 4.9-2-9.2 11.9-31.6 14.2-41.8 7.7-34.5 3.8-71.6-12.2-103.2-29.6-58.9-96.3-87.4-135.2-139.4-20.9-27.9-36.3-59.3-52.9-89.8-0.7-1.4-3.1-12.1 0.7-6.6z"  fill="#f1faee" /><path d="M256.5-217.8c19.2 49.8 48.1 107.8 13.4 157.7-21.4 30.8-58.3 46.6-78 79-4.4 7.2-19.7 58.8-22.6 58.2-5.1-1-3-9 1.9-7.5 5 1.6 2.1 9.3-2.7 7.2-6.2-2.8 0.8-22.6 1.9-27.5 16.7-71.9 80.1-80.1 103.1-136.6 16.8-41.1-4.5-85.6-19.4-123.7-0.9-2.3-1.1-13.2 2.4-6.8z"  fill="#f1faee" /><path d="M265.3-102.5c-14 47.4-65.9 66-86.2 109.3-8 17-11.1 35.7-12.8 54.3-0.3 3.1 1.3 18.9-6 15.5-3.8-1.8-1.8-7.7 2.3-6.7 4.8 1.1 2.7 8.5-1.9 6.9-5.9-2-1.4-20.1-1-24.5 7.5-79.4 44.7-81.3 85.5-136.3 4.1-5.5 8.2-20.7 13.8-23.9 3.8-2.1 7.1 1.7 6.3 5.4z"  fill="#457b9d" /><path d="M272.2-90.2c-15.8 44.3-64.8 61.4-86.8 101.4-8.5 15.4-12.7 32.7-15 50-0.4 3.1 0.4 19.1-6.8 15.4-4.5-2.3-0.5-9.1 3.7-6.4 3.6 2.4 0.7 8.1-3.4 6.6-7-2.7 1.2-32.6 2.6-38.9 11-50.6 47.6-70.6 80.1-106.1 6.9-7.5 11.2-21.4 18.5-27.3 3.9-3.2 8.3 1.1 7.1 5.3z"  fill="#1d3557" /><path d="M276.5-230c46.9 83.1 157.6 150.4 112.4 258.3-4.8 11.3-16.9 45.7-28.6 50-8.9 3.3-8.5-13.3 0.3-9.5 10.3 4.5-6.3 16.3-7.1 5.1-0.8-9.5 16.8-29.2 21.4-38 14.7-28.4 23.5-59.7 16-91.7-15-64.1-77.7-108.3-111.6-162.3-0.9-1.5-7.4-17.9-2.8-11.9z"  fill="#e63946" /><path d="M285.8 20.9c-13.1 13.9-48.7 57.9-55.2 57.9-8.3-0.1-5.1-13.5 2.4-9.9 7.5 3.6-1 14.4-6.3 8-7.7-9.4 43.8-59.5 52-64.7 5.9-3.7 10.8 3.8 7.1 8.7z"  fill="#457b9d" /><path d="M322.6-399.1c30.9 40.8 36.6 92.6 58.9 137.5 37.3 75 90.7 115.3 91.9 207.2 0.1 5.4 2.4 27.9-3.3 30.8-6.3 3.2-7.5-8.9-0.7-7 6.8 1.9-0.7 11.6-4.3 5.5-4.5-7.6 1.7-33 1.2-42.6-1.3-28.9-7.8-57.6-19.8-83.9-18.4-40.1-50.1-71.9-70.1-111.1-18.9-37.2-25.3-79.4-45-116.2-1-1.8-13.1-25-8.8-20.2z"  fill="#457b9d" /><path d="M357.9-399.5c31 84.1 14.1 111.8 70.2 199.7 40.4 63.2 52.8 119.2 43.2 122.8-4.7 1.8-5.9-6.4-1-6.1 5.9 0.4 1.5 9.6-2.5 5.3-4.2-4.6-3.2-21.8-4.4-28.1-3.5-18.6-9.2-36.8-17.1-53.9-17.5-38-45.5-70-61.1-109-15.6-39-17.3-81.4-29.4-121.3-0.4-1.3-1.8-17.4 2.1-9.4z"  fill="#457b9d" /><path d="M346.1-399.4c22 44.1 23.6 94.8 43.9 139.5 35.1 77.3 84.2 112.8 84.3 207.1 0 3.3 2 14.8-4.3 14.1-4.2-0.4-4.2-6.7 0-7.1 4.2-0.5 5.5 5.6 1.6 7-8.2 2.8-4.2-23.6-4.3-27.4-0.9-30-7.3-59.9-19.4-87.4-17.3-39.3-47-71.5-64.6-110.7-16.8-37.3-20.4-78.3-34.1-116.5-0.5-1.3-7.9-26.3-3.1-18.6z"  fill="#e63946" /><path d="M364.3-399.2c25.7 86.3 12.8 115.8 65.8 200.7 21.5 34.5 53.6 118.3 41.5 122.8-4.7 1.8-5.9-6.5-0.9-6.2 5.9 0.4 1.4 9.7-2.5 5.3-3.1-3.4-13.8-66-19.2-78.6-16.4-38.5-44.2-70.7-60-109.4-15.6-38-17.2-79.1-26.1-118.8-0.3-1.4-2.6-25.7 1.4-15.8z"  fill="#a8dadc" /><path d="M318.6-111.7c20.9 70.1-26.4 111.3-70.8 156.9-5.7 5.8-21.9 33.1-29 33.3-6.8 0.3-6.7-10.5 0.1-10 8 0.5 4.3 13.3-2.7 9.4-12.6-6.9 77-94.5 83.9-105.1 9.5-14.5 15.7-31 16.8-48.4 0.8-12.3-3.4-23.5-3.5-35.4 0-3.2 4.2-3.4 5.2-0.7z"  fill="#a8dadc" /><path d="M360-399c15.6 45.2 15.5 94.3 34.2 138.6 33 78.1 81.3 114.5 80.5 208.7 0 3.3 1.9 14.9-4.3 14.2-4.2-0.5-4.1-6.8 0-7.2 4.2-0.4 5.5 5.7 1.5 7-8.2 2.7-4-23.6-4.1-27.4-0.6-27.8-5.8-55.5-15.7-81.5-16.2-42.3-47.2-76.6-64.7-118.3-16.7-39.9-18.1-83.4-29.8-124.7-0.4-1.5-1.4-17.6 2.4-9.4z"  fill="#457b9d" /><path d="M354.3-399.6c18.2 44.4 18.7 93.7 37.6 137.9 38.1 89.2 92.9 122 81.4 233.2-0.4 4.1 0.5 18.2-6.6 16.6-4.5-1-3.7-7.9 0.9-7.8 4.6 0.1 5.3 6.9 0.8 7.8-9 1.9-1.5-27.5-1.2-32 2.1-33.2-2.5-67.1-14-98.4-15.6-42.7-46.6-76.7-65.3-117.6-17.6-38.5-20.4-80.5-32.2-120.7-0.4-1.5-6-27.7-1.4-19z"  fill="#a8dadc" /><path d="M338.6-342.9c15.3 33.2 25.9 67.9 45.8 98.9 26.5 41.2 61.5 75.2 77.1 122.8 16.4 50 15.2 106.7-6 155.1-3.4 7.7-18.3 45.1-27.7 42.2-5.7-1.7-4-10.5 1.9-10 5.9 0.5 6.2 9.3 0.3 10.2-18.1 2.5 16.1-43.8 19.9-52.9 17.5-40.7 20-87.1 10.1-130.2-13.2-57.5-53.9-95.5-84-143.8-14.4-23.2-24.3-48.3-34.4-73.6-0.7-1.7-7.7-26.6-3-18.7z"  fill="#a8dadc" /><path d="M346.9-55.9c0.7 41.8-53.4 129.7-72.8 134.4-8.4 2-8.7-12.3-0.2-10.6 8.5 1.7 2.7 14.8-4.2 9.8-7.7-5.6 42.6-61.5 48.4-70.8 12.4-19.4 26.7-85.7 28.8-62.8z"  fill="#457b9d" /><path d="M352.5-317.8c30.9 83.5 87.1 129 108.9 194.8 20.4 61.7 13.1 128-19.6 183.9-2.7 4.6-8.3 19.8-15.4 17.6-5.7-1.8-4-10.5 2-10 5.9 0.5 6.1 9.4 0.2 10.2-13.1 1.7 16.8-44.9 19.6-51 18-39.4 21.8-84.1 13.9-126.5-14.7-78.6-80.4-130.4-108.7-203.3-0.8-2-5.2-24.2-0.9-15.7z"  fill="#f1faee" /><path d="M357.9-141.8c54.7 53.7 83 113 46.5 186.2-3.4 6.8-14 34-22.3 34.3-5.9 0.2-7.2-8.6-1.4-10 6.7-1.7 8.8 9 2 9.9-14.6 2.1 8.9-30.9 10.9-34.5 14.2-26 24.5-54.5 21.5-84.6-3.8-37.7-27.1-67.8-52.9-93.9-0.4-0.4-8-10.3-4.3-7.4z"  fill="#457b9d" /><path d=""  fill="#1d3557" /><path d="M371.4-196.7c33.7 28.5 66.8 56.3 82.1 99.3 15.3 42.9 12.4 90.9-6.1 132.3-3.5 7.8-19.2 46.2-28.7 43.3-5.7-1.8-4-10.5 2-10 5.9 0.5 6.1 9.4 0.2 10.1-13.8 1.9 14.5-40.4 17.1-45.6 16.2-32.9 22.3-69.7 16.2-105.9-8.1-49-38.1-83.7-75-114.7-0.8-0.7-11.1-10.9-7.8-8.8z"  fill="#f1faee" /><path d="M381.3-27.7c-0.9 29.6-13.6 57.2-28.6 82.1-3.3 5.5-12.5 26.8-20.3 24.2-6.7-2.3-2.5-12.6 3.9-9.6 7.5 3.5-0.9 14.4-6.2 8-5.3-6.3 13.6-27.1 17.1-33 13.7-22.7 32.9-98.2 34.1-71.7z"  fill="#a8dadc" /><path d="M386-98.9c34.3 48.8 30.5 101.7 2.7 152.5-3.2 6-9.6 22.4-15.9 24.8-6.5 2.4-9.7-8-3.1-9.7 7.8-2 8.3 11.4 0.4 9.9-10.9-2 3.9-19.3 6-22.9 13.4-22.5 25.4-46.8 28.3-73.2 2.3-20.9-1.7-41.9-10.7-60.8-0.8-1.7-12.3-26-7.7-20.6z"  fill="#e63946" /><path d="M394-284.7c23.1 98.3 135.2 183.5 56.6 333.6-3.2 6.1-13.9 32.2-22.1 29.6-5.7-1.8-4-10.5 2-10 5.9 0.5 6.1 9.4 0.2 10.2-13.8 1.8 14.5-40.4 17.1-45.6 17.6-36.1 23.4-76.4 19.9-116.2-6.5-76.2-53.2-120.8-75.5-188.9-1-2.9-1.7-21.7 1.8-12.7z"  fill="#457b9d" /><path d="M399.7-97.9c34.2 48 29.1 102.2 1.9 152-3.2 5.8-9.3 21.9-15.6 24.3-6.5 2.4-9.8-8-3-9.7 7.8-2 8.3 11.4 0.3 9.9-11.1-2.1 4.9-21 7-24.6 12.7-21.7 23.9-45 26.9-70.3 2.4-20.9-1.1-41.9-9.9-61-0.8-1.7-12.2-26-7.6-20.6z"  fill="#1d3557" /><path d=""  fill="#457b9d" /><path d="M415.1-40.3c4.8 32.1-5.4 63.1-20.4 91.1-3 5.7-12.5 29.7-20.4 27.4-7.7-2.3-1.2-14 4.8-8.7 6.1 5.4-4.8 13.3-8 5.9-3.4-7.8 19.9-37.9 23.8-46.3 6-12.9 10.8-26.4 13.1-40.5 1.4-8.5-1.8-22.2 1.1-29.7 1.3-3.2 5.3-2 6 0.8z"  fill="#f1faee" /><path d="M413.9-397.5c-8.8 43.4-14.3 90.5-2.4 133.8 27.2 98.4 87.7 134.3 59.6 259.6-0.9 3.9-1.5 15.7-8.1 13.4-4.7-1.6-3-8.9 1.9-8.3 4.9 0.6 4.9 8-0.1 8.5-9.9 1 0.6-25.2 1.4-29.7 4.9-27.3 4.8-55.5 0.9-82.9-9.7-68.4-58.3-122.2-67.3-190-4.6-34.5-1.2-72.1 6.3-105.9 1.1-5.2 8.2-3.5 7.8 1.5z"  fill="#a8dadc" /><path d="M429.9 24.7c-3.2 8.4-24.6 59.7-34.2 53-5.6-4 1.2-12.6 6.4-8 5.2 4.6-2.5 12.4-7.2 7.2-3.5-3.9 22.6-53 27.9-57.4 3.9-3.2 8.3 1 7.1 5.2z"  fill="#f1faee" /><path d="M436.9 58.5c-2.8 4.8-10.3 24.3-18 18.9-5.6-4.1 1.3-12.6 6.5-8 5.2 4.7-2.6 12.4-7.3 7.2-11.4-12.7 25.6-33.7 18.8-18.1z"  fill="#e63946" /><path d="M441.5-209.9c35.4 81.3 54.6 173.3 12.3 256.3-3.4 6.7-13.4 32.1-21.6 32.4-9.5 0.2-3.8-15.3 3.3-9 7.1 6.4-7.8 13.7-8.6 4.2-0.8-10.2 18.6-32.3 23.4-42.1 12.5-26 19-54.3 20.6-83 2.9-52.2-9.5-101.8-30.2-149.4-0.6-1.4-3.4-16.4 0.8-9.4z"  fill="#1d3557" /><path d="M450.5 31.9c-3.3 7.7-22.6 52.3-31.6 45.8-5.6-4.1 1.3-12.6 6.4-8 5.2 4.7-2.6 12.4-7.2 7.2-3.6-4.1 20.8-48.8 26.3-51.2 4.2-1.9 7.3 2.4 6.1 6.2z"  fill="#e63946" /><path d="M456.8-286.7c-11 105.9 65.2 200.1 1.7 330-3.6 7.3-14.5 35.2-23.2 35.5-9.5 0.2-3.8-15.3 3.3-8.9 7.1 6.4-7.8 13.7-8.5 4.2-0.8-10.8 19.6-34.1 24.4-44.6 11.7-25.2 17.8-52.4 20.1-80 7-85.2-26.5-150.2-25.6-225.6 0.1-4.8 7.3-22.3 7.8-10.6z"  fill="#a8dadc" /><path d=""  fill="#f1faee" /><path d="M469.5-166.6c17.4 72.1 19.4 152.7-16.8 219.4-3 5.6-10.9 25.5-18 25.7-7 0.2-6.6-10.8 0.3-10.2 6.9 0.6 5.4 11.5-1.4 10.1-11.7-2.3 8.7-27 11.2-31.5 13.6-24.2 22.6-50.3 26.6-77.9 6.6-45.2 1.3-89.9-7.2-134.4-0.7-3.6 4.2-4.5 5.3-1.2z"  fill="#457b9d" /><path d="M476.7-186.4c11.5 78.7 17.6 166.1-21.3 238.5-3.1 5.8-11.1 26.1-18.3 26.4-6.9 0.2-6.6-10.8 0.2-10.3 6.9 0.6 5.4 11.4-1.4 10.2-11.5-2.2 6.9-24 9.2-28.1 15-26.1 24.8-54.2 29.2-84 7.5-50.8 2-101.3-3.6-151.9-0.4-4 5-4.5 6-0.8z"  fill="#f1faee" /><path d="M483.8-197.2c6 83.4 13.4 175.8-28.2 251.8-3.1 5.7-9.1 21.3-15.4 23.6-6.5 2.4-9.7-8.1-3-9.8 7.9-1.9 8.2 11.5 0.3 10-11.5-2.2 7.1-24.5 9.5-28.6 15-26.2 24.5-54.3 29.1-84.1 8.3-54 3.5-108.3 1.3-162.5-0.2-4.3 5.6-4.4 6.4-0.4z"  fill="#1d3557" /><path d="M453.8-396.4c-68.2 139.2 19.6 191.2 24.8 321.7 0.3 6.4 3.5 41.4-4.1 42.7-5 0.9-5.9-7.1-0.9-7.4 5.1-0.3 5.1 7.7 0.1 7.5-3.3-0.2-3.5-71.2-4.9-80.5-9.1-64.8-51.1-122.6-49.2-188.9 0.9-33.7 10.4-69.1 25.6-99.2 2.8-5.6 10.5-1.6 8.6 4.1z"  fill="#457b9d" /><path d="M497.9-176.8c-4.1 78.3-1.7 164.1-41.2 234.5-2.8 5-8.8 20.8-15.4 21-6.9 0.2-6.6-10.8 0.3-10.2 6.9 0.6 5.4 11.4-1.4 10.1-11.6-2.2 7.3-24.9 9.8-29.3 12-21.3 20.7-43.9 26.1-67.8 9.8-44.3 5.6-129.5 14.8-159.5 1.3-4.2 6.8-2.6 7 1.2z"  fill="#e63946" /><path d="M505.1-67.2c-9.5 44.9-18.2 89.2-41 129.6-2.6 4.6-7 18.2-14 16.1-7.7-2.3-1.2-14 4.8-8.6 6.1 5.3-4.8 13.3-8 5.8-3.3-7.5 18.2-35.5 21.9-43.5 14.7-32.1 16.2-75.8 28.7-102 2.1-4.5 8-1.8 7.6 2.6z"  fill="#1d3557" /><path d="M511.7-277.7c-8.4 101.2-6 270.2-64.5 353.6-5.5 7.9-14.5-5.5-5.5-7.7 7.9-2 8.2 11.5 0.3 10-11.6-2.2 10.2-30.1 12.9-35 14.2-26.6 22.4-55.4 27.1-85.1 11.9-75.1 16.7-152.3 21.8-228.1 0.3-4.3 7.4-18.7 7.9-7.7z"  fill="#f1faee" /><path d=""  fill="#457b9d" /><path d="M525.3-294.8c-6.7 96.8-23.6 286.9-73.4 367.3-5.1 8.2-16.2 4.8-10.7-2 7-8.7 14 10.3 3 8.2-11.6-2.2 8.2-26.6 10.7-31 16.3-29.4 25.2-61.4 30.7-94.4 13-78.5 27.8-157.3 31.9-236.9 0.2-3.6 7.2-23.6 7.8-11.2z"  fill="#a8dadc" /><path d=""  fill="#a8dadc" /><path d=""  fill="#e63946" /><path d="M546.1-215.4c-6.9 55.5-32.4 108.2-43.8 163.1-2.9 13.9-29.3 137-51.7 130.4-7.7-2.3-1.3-14 4.8-8.7 7.1 6.2-7.5 13.7-8.4 4.3-0.7-7.3 11.6-21.1 15.1-27.7 9.9-18.6 17.2-38.4 22.8-58.7 8.5-31.5 13.3-63.9 21.8-95.5 9.6-35.6 25.3-69.6 31.4-106.1 0.9-5.4 8.2-8.1 8-1.1z"  fill="#a8dadc" /><path d="M552.4-323.1c1.4 38.1 7.6 76.7 2.1 114.7-7.8 52.8-35.6 101.3-47.9 153.4-3.4 14.4-30.9 139.9-53.1 133.4-7.7-2.3-1.3-14 4.8-8.6 6.1 5.3-4.7 13.2-8 5.8-3.5-7.8 20.3-40.3 24-49 16.3-38.4 22.1-79.9 33.5-119.7 7.5-26.1 18.3-50.9 27.6-76.4 28-76.1 1.8-111 10.5-154.1 0.8-4 6-3 6.5 0.5z"  fill="#f1faee" /><path d="M559.3-397.2c3.4 65.6 26.8 136.4 16.1 201.7-9.5 57.8-47.8 108.9-64.2 165.3-2.9 10-17.8 77.2-29.2 75.4-7.3-1.1-2.9-12.6 3.3-8.5 7.3 4.8-5.1 13.4-7.2 5-2.4-10.2 13.9-37.6 17.3-48.4 9-29.2 16.3-58.9 28.1-87.2 13.3-31.8 33.3-61.1 42.1-94.7 17-65.4-8.9-139.7-12.7-205.9-0.3-4.8 5.3-8.8 6.4-2.7z"  fill="#457b9d" /><path d="M566-269.3c9.8 91.9-38.6 158.2-61.4 244.2-3.1 11.9-28.5 108.1-45.7 103.3-7.7-2.2-1.4-13.9 4.6-8.7 6.1 5.2-4.5 13.2-7.8 5.9-3.3-7.2 16.9-34.3 20.3-42 26.3-58.6 36-122.6 63-181.4 10.7-23.2 19.5-46.9 21.7-72.6 0.5-5.5 0.3-71.3 5.3-48.7z"  fill="#a8dadc" /><path d="M572.5-378.6c17.1 89.3 28.5 74.5 30.7 186.8 0.3 17.1 3.3 44.4-1.5 62.7-9.9 37-46.4 78.7-61 118.7-3.2 8.9-16.6 67.4-25.2 66.9-7-0.4-3.9-11.5 2.3-8.2 7.2 3.8-3.6 13-6.2 5.3-1.9-5.5 4.5-16.5 6.2-21.8 8.9-28.1 17.3-56.4 30.1-83.1 12.2-25.5 40-54.4 45.1-82.2 3.3-17.9 0.6-41.2 1-58.3 2.1-121.6-6-85.7-26-180.3-0.7-3.5 1.9-14.2 4.5-6.5z"  fill="#f1faee" /><path d="M590.9-399.2c1.4 3.5 12.4 22.6 8.7 24.2-2.5 1.1-4.1-3-1.5-3.8 2.6-0.8 3.7 3.4 1 4-9.3 1.8-12.6-32-8.2-24.4z"  fill="#e63946" /><path d=""  fill="#e63946" /><path d="M599.1-399.3c3.9 7.6-3.8 4.5-2.2 2.2 2.5-3.6 5.8 3.6 1.4 3.1-5.5-0.6-2.2-9.6 0.8-5.3z"  fill="#1d3557" /><path d="M599.2-340.9c0.1 0.3 3.3 10.1-1.8 6.4-8.7-6.3 11.5 2.4 0.9 0.4-6.7-1.3-2.1-11.9 0.9-6.8z"  fill="#a8dadc" /><path d="M602.7-12.2c-5.6 18.7-8.8 38.1-9.1 57.7-0.1 6.7 4.1 24.3 0.9 29.7-2.9 4.9-9-3-3.5-4.6 4.7-1.3 5.2 6.8 0.3 6-12.6-2-2.1-81.9 3.6-92 2.5-4.5 8.5-1.3 7.8 3.2z"  fill="#1d3557" /><path d=""  fill="#1d3557" /><path d=""  fill="#a8dadc" /><path d=""  fill="#457b9d" /><path d=""  fill="#e63946" /><path d="M602.8-9.4c-6.6 23.4-6.4 82.9-7.2 84.2-2.5 4.2-8.4-1.3-4.4-4.1 4.7-3.2 6.9 6.4 1.3 5.6-12-1.9-2.8-79 2.5-88.7 2.4-4.5 8.4-1.5 7.8 3z"  fill="#f1faee" /><path d=""  fill="#1d3557" /><path d=""  fill="#e63946" /><path d=""  fill="#1d3557" /><path d=""  fill="#1d3557" /><path d=""  fill="#a8dadc" /><path d=""  fill="#f1faee" /><path d=""  fill="#f1faee" /><path d=""  fill="#a8dadc" /></svg>