<svg width="1200" height="675" viewBox="-500 -500 1200 675" xmlns="http://www.w3.org/2000/svg"><path d="M-500-500h1200v675h-1200z" fill="#000"/><path d=""  fill="#005bbb" /><path d=""  fill="#005bbb" /><path d="M-394.8-70.4c0.9 6.7 6.1 39.2-3.1 40.7-6.3 1-7.4-9-1-9.3 6.4-0.3 6.3 9.7 0 9.3-6.8-0.4-5.4-36.9-3.4-41.8 1.6-4 6.7-2.5 7.5 1.1z"  fill="#fff500" /><path d=""  fill="#005bbb" /><path d=""  fill="#005bbb" /><path d=""  fill="#c2e1ff" /><path d=""  fill="#fff500" /><path d=""  fill="#005bbb" /><path d="M-395.7-182.7c4.3 13.3 49.4 142.2 27.5 146.5-7.1 1.4-6.8-10.6 0.2-8.9 7 1.7 1.7 12.5-4 8-5.6-4.4-2-40.6-3.3-49.2-5-32.6-16.9-63.1-26.3-94.5-1.2-3.9 4.2-5.5 5.9-1.9z"  fill="#005bbb" /><path d="M-395.7-183.1c20.6 63.5 49.8 135.5 15.3 199.6-3.3 6.1-10.2 22.9-18.3 22.5-12.3-0.6-3.4-20.2 5.1-11.2 7.3 7.6-7.7 16.7-11.1 6.8-1.1-3.4 29.7-53.2 31.6-81.7 3.8-59.1-25.8-96-28.6-134.8-0.3-3.8 4.6-4.2 6-1.2z"  fill="#fff500" /><path d=""  fill="#fff" /><path d=""  fill="#fff500" /><path d=""  fill="#005bbb" /><path d="M-382.4-398.1c1.6 46.9-13.4 92.6-9.7 139.6 5.4 67.4 41 128.3 45.7 195.6 1 14.5-0.9 84.7-23 85.7-11.7 0.5-5-18.7 3.9-11 7.6 6.5-5.7 16.5-9.9 7.4-3.2-7.1 10.3-23.4 12.9-30.4 7.4-19.7 9.1-41 7.3-61.8-5.9-68.1-42-129.7-45.7-198.5-1.7-31 4.1-61.3 7.7-91.9 1.4-11.3-0.2-24.7 2.5-35.7 1.2-5 7.7-3.6 8.3 1z"  fill="#fff" /><path d=""  fill="#005bbb" /><path d="M-368.7-234.6c15 100.7 85.2 203.6-4.4 290.4-5.6 5.4-21.1 25-29.8 19.1-7.1-4.9-1.1-16.3 7-13.1 8 3.2 4.5 15.7-4 14.3-20.3-3.4 27-40.4 31.6-45.6 19.4-21.6 31.1-47.8 33.1-76.8 4.5-65.2-30.8-124.1-40.7-187.1-0.8-4.8 5.9-5.6 7.2-1.2z"  fill="#fff500" /><path d="M-360.8-139.9c18.6 60.5 28.5 124.4-13.7 177.6-4.7 5.9-16.6 24.6-25.3 22.9-13.1-2.6-0.5-22 7.2-11.2 6.6 9.3-10.8 16.6-12.9 5.5-0.8-4.2 35-24.4 48.9-78 6.7-25.7 4.5-52.7-0.8-78.5-1.7-8-12.6-31.7-9.3-38.7 1.3-2.8 4.9-2.1 5.9 0.4z"  fill="#fff500" /><path d="M-352.2-134.9c18.8 62.2 25.4 126.6-20.5 179-5.2 5.9-18.6 24.8-27.3 22.7-13.2-3.1 0.3-22.4 7.7-11.1 7.4 11.3-15.6 16.1-13.2 2.7 0.6-3.1 45.9-50.5 53.5-73 17.7-52.2-10.4-100.5-6.5-120 0.7-3.5 5-3.1 6.3-0.3z"  fill="#fff500" /><path d="M-342.4-397.7c-2.1 54.3-21.3 105.9-13.4 160.7 12.8 89.5 88.1 202.6 8 282.9-8 8-17.9-7.2-7.8-11.3 10.3-4.2 13.5 14 2.4 13.5-18.7-0.9 12.2-32.3 15-36.9 14.4-23.7 19.2-51.4 17.5-78.8-4.1-69.3-43.4-131.1-45.8-201-0.9-26.7 3.6-53 8.2-79.2 2.9-16.2 2.3-36 7.2-51.5 1.6-5.2 8.4-3.2 8.7 1.6z"  fill="#005bbb" /><path d="M-334.4-263.4c6.3 102.9 96.5 209 19.3 307.2-7.7 9.7-29.7 37.8-43.4 37.5-16.9-0.4-0.5-26.3 7.1-11.2 6.4 12.8-18.4 15-14.3 1.2 3.1-10.4 26.8-22.3 34.8-30.5 21.2-21.8 33.4-49.5 37.1-79.5 8.4-70.4-30.2-130.8-44.3-197.4-4.9-23 0.9-40.5 3.7-27.3z"  fill="#005bbb" /><path d=""  fill="#c2e1ff" /><path d=""  fill="#c2e1ff" /><path d="M-308-369.2c-5.9 36.1-13.5 72-9.1 108.8 12.5 105.2 95.6 193.9 21.8 302.1-4.8 7-19.4 30.6-29.6 28.1-8.3-2-6.6-14.7 2-14.4 10 0.2 8.7 15.9-1.2 14.6-19-2.5 18.3-36 21.9-41.2 18.7-27.1 26.3-60.5 27.1-93 1.8-74-44.1-135.3-51-207.5-2.8-29.1-2.9-73.1 8.9-100.2 2.4-5.5 9.5-2.5 9.2 2.7z"  fill="#fff" /><path d=""  fill="#fff500" /><path d=""  fill="#fff" /><path d="M-283.8-103.7c13.2 59.5 3 123.8-42.8 166.9-5.6 5.3-18.9 20.8-27.3 17.8-13.5-4.8 3-23.5 9.4-10.8 5.5 10.9-14.1 16-14.5 3.8-0.3-8.4 15.8-15.8 21.1-20.4 14.8-12.6 27.4-27.5 35.9-45 11.6-23.6 15.7-50.3 15.1-76.4-0.2-8-7.1-30.5-3.4-37 1.8-3 5.6-1.7 6.5 1.1z"  fill="#005bbb" /><path d="M-276.2-397.9c-4.5 44.5-15.6 88.3-7.8 133.1 14.9 85.5 54 121.2 39.3 217-3.7 24-9 49.4-19.8 71.3-4.9 9.9-17.5-4-7.5-8 8.7-3.4 11.1 11.8 1.9 11.3-13-0.7 3.6-28.6 5.3-33.7 10.8-32.4 16.2-67.9 15.4-102-1.6-64.7-41.3-119.6-45.6-183.8-2.1-31.6-1.2-77.5 9.8-107.3 2-5.3 8.9-2.9 9 2.1z"  fill="#c2e1ff" /><path d="M-266.5-282.5c4.8 43.7 26 82.7 34.1 125.5 12 63.1-3.2 144.1-34.9 199.8-4.8 8.5-21.7 39.8-33.3 37.6-8.2-1.6-7.1-14 1.2-14.2 9.7-0.2 9.3 15.1-0.4 14.3-17.9-1.5 21-42.5 24.8-49.1 21.1-36.4 30.3-80.4 35.4-121.7 9.1-73.8-25.3-122.3-34.4-191.2-0.6-5 6.3-5.6 7.5-1z"  fill="#fff500" /><path d="M-256.4 71.6c-2.8 4.4-9.4 13.5-14.6 5.5-5.7-8.7 10.4-14.8 11.9-4.5 1.5 10.3-15.7 9-12.7-0.9 3.6-12.3 21.3-11.5 15.4-0.1z"  fill="#fff500" /><path d="M-248.9-319c-1.1 54.3 22.2 101.6 29.2 154.3 8.6 64.9-10.6 147.1-41.1 204.6-4.7 8.9-21.6 42.7-33.6 40.7-13-2.2-1.1-21.7 6.8-11.2 7.9 10.5-14.1 16.5-12.7 3.5 0.7-6.5 29-38.6 34.3-49.3 18.3-36.6 27.5-78.7 34.6-118.8 13.8-78.7-16.7-123.7-24.6-197-4.2-39.5 6.4-32.5 7.1-26.8z"  fill="#fff500" /><path d="M-239.5-4.2c-4.1 12.7-33.7 93.6-52.5 84.1-8.5-4.3-1-17.3 6.9-12.1 8 5.2-0.9 17.3-8.2 11.2-9.3-7.6 14.5-28.1 18.6-34.3 8.4-12.8 17.9-46.7 26.3-54.7 4.4-4.1 10 0.6 8.9 5.8z"  fill="#fff500" /><path d="M-230.9 9c-4.2 11-28 76.6-43.1 70.7-8.4-3.3-2.4-16.3 5.5-12.1 8 4.2 0.7 16.4-6.8 11.4-9.5-6.4 10.4-26.2 13.9-32 6.8-11.5 11.9-35.8 21.6-44.2 4.7-4.1 10.2 1.1 8.9 6.2z"  fill="#fff500" /><path d=""  fill="#fff" /><path d=""  fill="#c2e1ff" /><path d="M-205.5 72.8c-3.9 11.2-15.8 3-10-3 8.3-8.6 14 12.3 2.5 9-15.3-4.4 11.2-23 7.5-6z"  fill="#005bbb" /><path d="M-197.5-153.4c-4.7 44.7-44.2 209.8-83.5 232.9-9.5 5.5-15-11.8-4.1-12.8 10.9-1.1 8.7 17-1.6 13.3-13.6-4.8 7.5-23.3 10.8-28.1 13-18.4 22.1-39 29.5-60.2 27.4-78.4 38.7-148.2 42.1-149.9 3.6-1.9 6.8 1.2 6.8 4.8z"  fill="#fff500" /><path d="M-188.3-65c-17.8 30.2-45.8 126.4-67.9 143.6-9.4 7.3-15.2-12.6-3.3-11.5 10.1 1 4.9 17.1-3.9 11.9-9.6-5.7 16-39.8 19.6-47.4 14.3-30.6 22.2-78.8 45.7-103.8 5.1-5.5 12.4 1 9.8 7.2z"  fill="#fff500" /><path d=""  fill="#c2e1ff" /><path d="M-171.9-320.5c-6.1 47.8 0.6 96.3-6.6 143.9-7.7 51.3-30.2 100.5-46.1 149.6-8.3 25.5-28.1 92.1-51.3 106.5-9.2 5.7-15.1-11.2-4.4-12.6 10.7-1.3 9 16.5-1.3 13.2-13.2-4.3 19-42.2 22.9-49.7 24.7-48.4 38.3-104.1 55.9-155.4 11.8-34.6 18.8-68.8 18.8-105.5 0-16.9-5.1-80.6 3.5-93.1 2.9-4.3 8.5-1.3 8.6 3.1z"  fill="#fff" /><path d="M-162.8-61.6c-27.7 31-41.5 69.8-57.6 107.5-2.8 6.6-12.3 38.6-22.3 32.6-7-4.1 0.1-14.9 6.6-10 6.6 4.9-1.7 14.8-7.7 9.2-7.1-6.6 15.5-42.5 18.9-50.6 12.2-29.2 25.9-78.9 52.8-98.6 6.7-4.9 13.3 3.7 9.3 9.9z"  fill="#c2e1ff" /><path d="M-155.4-397.9c-2.2 35.7-10.4 70.5-13.9 105.9-3.1 30.7-1.1 61.6-3.7 92.4-5.2 62.4-34.3 122.2-53.9 181.1-3.1 9.3-17.6 65.4-29.9 62.8-11-2.3-0.2-18.5 6.2-9.3 5.4 7.9-9.2 13.9-10.9 4.5-1.9-11.1 16.3-38.5 20.4-50 17.4-49.1 36.9-98.9 50.9-149.1 13-46.7 7.7-94.4 12.6-142.1 3.1-30.2 9.9-59.9 12.6-90.1 0.5-5.8 9.1-17.8 9.6-6.1z"  fill="#c2e1ff" /><path d="M-146-321.7c-12.4 47-11.2 95.6-22.1 142.7-12 52.3-37.3 101.5-54.4 152.2-6 17.9-35.2 102.5-52.6 106.8-8.9 2.2-11.6-12-2.6-13.2 10.6-1.5 9.2 16.3-1 13.1-13.3-4.1 18.3-42 22-49.3 22.9-45.4 35.2-96.3 54.1-143.6 14.1-35 27-69.4 31.6-107 2.4-19.8 3.9-93 16.1-106.5 3.8-4.3 9.5-0.2 8.9 4.8z"  fill="#fff500" /><path d="M-137.2 1.6c-6.4 12-21.8 73.7-22.8 74.8-5.7 6.3-12.2-7.1-3.7-7.7 7.2-0.5 5.5 11.4-1.3 8.9-12.7-4.8 10.9-74.1 17.9-82.4 4.7-5.6 12.1 0.4 9.9 6.4z"  fill="#fff" /><path d="M-128.9-270.4c-9.9 29.6-15 60.5-25.3 90-14.3 41.1-36.6 78.9-52.7 119.3-6 15.2-46.8 149.8-69.1 140.7-9.8-4 0.2-18.5 7.4-10.8 7.2 7.8-7.9 16.7-11.2 6.6-2.5-7.7 11.9-20.7 15.7-26.8 11.9-19.3 20.3-40.4 27.9-61.6 21.1-58.6 50.3-113.5 71.8-171.7 9.6-25.9 14.9-53 22.5-79.6 2-7.1 15.7-20.3 13-6.1z"  fill="#c2e1ff" /><path d="M-120.2-203.2c-25.5 49.9-60.1 94.5-82.8 145.8-13.6 30.8-35.5 117.7-62.2 136.4-10.1 7-15-13.7-2.8-11.9 10.4 1.5 4.2 17.8-4.6 12-7.5-4.9 27.2-59 31.3-69.1 31.2-76.6 48.8-113.5 91.5-184.7 6.5-10.8 11.5-25.9 19.8-35.3 4.8-5.5 12.1 0.6 9.8 6.8z"  fill="#fff" /><path d=""  fill="#fff" /><path d=""  fill="#005bbb" /><path d="M-94.6-322.9c-28.1 47.3-38.2 98.7-58.6 149.1-21.6 53.5-50.2 103.1-69.6 157.7-4.5 12.8-34.1 103.3-52.5 95.9-9.8-4 0.1-18.5 7.3-10.8 7.2 7.7-7.9 16.7-11.2 6.7-2.6-7.7 12.1-21.1 16-27.5 11.1-18.2 19.1-38 26.4-57.9 22.2-60.7 52.5-116.7 76.4-176.4 17.5-43.8 25.8-89.9 48.6-131.6 13.5-24.7 18.7-8.9 17.2-5.2z"  fill="#fff500" /><path d="M-86.4-177.2c-48.2 51.8-96.6 93.6-124.4 160.6-4.3 10.5-38.4 105-52 95-6-4.4-0.4-14 6.4-11 7.9 3.5 1.7 15.7-5.8 11.4-9.7-5.6 7.7-24.6 10.8-30.3 27.2-50.1 39.8-106 75.1-151.9 10.9-14.1 71.1-81.3 82.5-85.2 7.3-2.5 11.4 6 7.4 11.4z"  fill="#fff500" /><path d=""  fill="#005bbb" /><path d="M-78.6-396.7c-10.5 40.1-34.5 74.5-48.6 113.1-25.8 71-24 99.5-60.8 178.2-4.3 9.1-26 71.5-34.3 68-8.1-3.4 0.4-15.3 6.2-8.8 5.9 6.5-6.7 13.7-9.4 5.4-4.3-13.9 48.6-114.5 56.7-135.5 13.1-33.7 18.2-69.4 28.9-103.7 9.5-30.8 25.3-58.4 38.7-87.5 4.8-10.5 7.2-23.5 13-33.3 3.2-5.6 10.5-1.5 9.6 4.1z"  fill="#fff" /><path d=""  fill="#fff500" /><path d="M-59.1-396.8c-10.8 42.5-39.8 76.5-57.3 116-27.1 61.2-32.5 101.2-68.1 172.6-5.2 10.3-34 86.2-41.2 83.2-8.1-3.4 0.3-15.3 6.2-8.8 5.9 6.5-6.7 13.7-9.3 5.4-5.1-16 52.8-121.8 62-142.3 17.3-38.3 24.9-79.9 41.5-118.4 16.5-38.3 41.7-71.4 56.1-110.6 2.4-6.5 11.2-3.6 10.1 2.9z"  fill="#c2e1ff" /><path d="M-43.8-47.3c-10.5 28.3-11.1 58.9 4.2 85.6 5.6 9.8 27.7 25.6 29.6 34.8 0.1 0.5-0.3 1.2-0.8 1.3-13.8 3.7-59.2-61-46-115.6 2-8.2 15.7-19.9 13-6.1z"  fill="#fff" /><path d="M-37-397.2c-9.2 47-44.3 81.3-66.4 122.1-23.3 43.3-36.3 91.1-60 134.4-5.9 10.7-43.3 90.4-50.3 87-8.1-3.9 1-15.7 6.8-8.7 5.8 6.9-7.5 13.8-9.8 5.1-3.8-14 53.5-108.4 62.4-127.2 16.5-35 26.9-72.6 45.8-106.5 18.5-33.2 46.1-62 58.5-98.4 6.6-19.2 13.3-10.8 13-7.8z"  fill="#fff" /><path d="M-30 23.8c8.3 15 20.7 27 33.9 37.6 2 1.6 16.3 11.1 15 12.7-2.3 2.7 2.1-3.1 0.1-0.1-1.4 2.1-7-4.1-7.6-4.6-13.2-10-26.4-20-37.2-32.7-2.3-2.7-9.4-19.3-4.2-12.9z"  fill="#c2e1ff" /><path d="M-18.2-306.9c-59.6 80.2-148.7 174.4-187.9 265.2-7.6 17.6-41.5 115.3-56.4 120.1-9.8 3.2-11.5-13.9-1.3-12.6 10.2 1.2 4.6 17.4-4.2 12-6.8-4.2 30.1-69.4 34.4-80.4 45.3-117.2 125.4-213 203.2-310.3 5.9-7.3 17.8-3.3 12.2 6z"  fill="#fff500" /><path d=""  fill="#fff500" /><path d=""  fill="#005bbb" /><path d="M7.4-245.8c-24.1 30.6-50.7 60-79.5 86.3-39.8 36.5-86.6 64.3-115.1 111.6-19.4 32.2-30.3 68.4-46.6 102.1-2.8 5.9-11 30.8-20.6 24.3-7-4.7 1-15.4 7.5-9.9 5.5 4.7-0.5 13.7-6.9 10.3-10.1-5.3 10.4-31.7 13.5-38.3 21-44.2 34.6-91.3 66.3-129.6 40.2-48.5 106.6-89.2 161.4-153.8 3.4-4 7.9-12.9 13.6-13.8 6.5-1.1 9.4 6 6.4 10.8z"  fill="#fff" /><path d="M11.9-4.1c7.2 9.3 92.9 70.8 86.2 78.7-1.9 2.2-5.2-0.9-3.1-2.9 2.1-2 5 1.5 2.8 3.2-2.7 2.1-18.8-20.5-22-23.4-18.3-17.4-41.3-29.1-59.6-46.5-1.5-1.4-9.1-13.5-4.3-9.1z"  fill="#c2e1ff" /><path d="M21.6-42.2c16.5 42.2 64.3 58.8 90.2 93.9 2.4 3.3 16 20.1 11.3 23.9-4 3.3-6.7-5.4-1.5-5 4.4 0.3 2.3 7.4-1.6 5.2-6.9-3.9-14.4-26.4-20.3-33.5-19.5-23.3-47.2-37.6-67.6-60-5.3-5.8-14-14.9-15.6-22.7-0.7-3.2 3.5-4.2 5.1-1.8z"  fill="#fff" /><path d="M32.7-335.4c-23 88.9-155.6 179-209.3 254.7-11.8 16.6-50.1 111.3-55.8 114.5-8 4.5-12.4-10.1-3.3-10.7 10.7-0.8 5.1 17-3.2 10.2-6.9-5.6 5.9-24.7 8.4-30.8 44-110.4 85.6-134 161.2-218.6 25.6-28.6 53.9-56.6 75.1-88.7 6.5-9.9 10.3-28.1 18.1-36 4.2-4.1 9.7 0.4 8.8 5.4z"  fill="#fff500" /><path d=""  fill="#fff" /><path d="M48.8-106.3c0.3 19.5 5.3 38.5 15.6 55.1 23.6 37.8 65 59.7 82.6 102.1 1.8 4.3 10.9 22.3 5.1 25.4-5.7 3-7-8.2-0.7-6.5 5.3 1.5 1 9.6-3.2 6-7.2-6.1-10-32.5-15.3-42-20.7-37.4-61-58.8-80.6-96.8-6.8-13.2-10.7-27.9-11.7-42.7-0.4-5.4 7.2-5.5 8.2-0.6z"  fill="#fff" /><path d="M58.5-261.5c-28.3 63.8-73.2 127.1-124.6 174.2-23.3 21.4-48.8 40.9-68.1 66.3-16.8 22.1-27.9 47.7-34.8 74.4-1.2 4.5-2.5 29.6-11.8 24-5.6-3.4 0.3-12 5.5-8 6.1 4.7-3.7 12.9-7.3 6.1-4.4-8.4 5.3-31.8 7.8-40.5 22.4-76.8 85-112.3 135-169.2 26.3-30 48.8-64 69.2-98.2 6.5-10.9 11.3-25.5 19.3-35.3 4.5-5.5 11.8 0.1 9.8 6.2z"  fill="#c2e1ff" /><path d="M64.7-383.9c31.8 94.8-48 206-112.9 269.6-23.3 22.8-50.5 40.8-74.7 62.5-7.2 6.5-37.8 48.5-44.9 43.6-9.6-6.6 7.3-17.8 9.7-6.4 2.4 11.3-17.5 8-11.5-2 37.8-62.9 114.3-98.2 171.8-180.5 26.6-38.1 55.6-80.3 61.5-127.6 0.5-3.9-6.9-77.4 1-59.2z"  fill="#005bbb" /><path d="M74.6-329.7c-1.4 74.8-72.4 171.8-123.5 223.2-24.2 24.3-52.6 44.1-76.3 69-14.4 15.3-26.3 32.5-35.1 51.6-3.5 7.6-6.7 27.5-13.2 32.3-6.8 5-12.4-7.9-4.1-9.6 9.7-1.9 6.5 15-1.9 9.7-8.4-5.3 8.3-36.6 11.4-43.4 31.8-69.3 104.2-106.2 149.4-165.7 28.4-37.5 57.3-78.8 74.1-123 5-13.2 4.2-35.5 11-46.7 2.6-4.2 8-1.6 8.2 2.6z"  fill="#fff" /><path d="M82.6-135.4c5.1 77.2 83 117.4 96.6 192.1 0.8 4.6 4.2 14.6 1.6 18.7-3.4 5.3-10.8-2-5.5-5.5 4.5-2.9 8.7 4.5 3.9 6.9-8.1 4-6.9-16-7.3-18.9-2-14.4-5.8-28.6-11.8-41.9-17.9-40.5-54.9-68.1-73.4-108-6.2-13.4-10.3-27.9-11.9-42.6-0.6-5.1 6.7-5.6 7.8-0.8z"  fill="#c2e1ff" /><path d="M88 3.1c6.8 5.8 65.4 63.1 50.3 72.9-4.2 2.7-7.2-5.1-2.1-5.8 5-0.7 4.4 7.7-0.5 6.2-5.2-1.6-11.1-25.7-14.2-31.2-9.1-15.7-21.8-28.2-35-40.3-1.1-1 0.3-2.5 1.5-1.8z"  fill="#fff500" /><path d=""  fill="#005bbb" /><path d="M105.2-11c7.3 7.2 68.7 78 49.6 87.7-5 2.6-7.4-6.5-1.7-6.7 5.6-0.2 4 9-1.3 6.9-5.6-2.4-9.4-30.1-12.3-36.5-8.9-19.8-25.8-31.9-36.4-49.7-0.9-1.4 1-2.6 2.1-1.7z"  fill="#fff500" /><path d="M114.8 60.9c1.5 2.3 10.2 12.9 4.9 15-3.4 1.4-5.3-4.2-1.8-5.1 3.6-1 4.8 4.7 1.2 5.3-9.4 1.5-9.1-21.8-4.3-15.2z"  fill="#005bbb" /><path d="M123.4 52.9c2 3.3 14.6 21.6 7.7 23.6-3.9 1.2-5.5-5.1-1.5-5.8 4-0.7 4.9 5.7 0.8 6-9 0.7-12.1-30.9-7-23.8z"  fill="#005bbb" /><path d="M133.1-162.8c16.3 76.2 76.4 127.3 83 209.8 0.6 7.7 3.2 20.5 0.6 27.8-2.2 6.4-11.9 0.5-7.1-4.4 4.7-4.9 11 4.5 4.6 7-9.1 3.5-5.8-17.3-5.8-20.5-0.5-24-4.1-47.8-11.7-70.6-15.3-45.9-47.6-83.2-64.2-128.4-8-21.8-2.2-28.1 0.6-20.7z"  fill="#c2e1ff" /><path d="M154.6-399.6c23.5 58 18.8 120.7 28.8 181.4 5.5 33.3 16.6 64.9 27.8 96.6 6.8 19.3 39.1 123.9 30 137.8-3.5 5.3-10.9-2.3-5.5-5.6 5.4-3.4 8.9 6.6 2.6 7.4-8.1 1-6.3-26.1-6.9-30.9-3.7-30.7-10.7-60.7-20.3-90.1-13.9-42.7-30.7-84-37.2-128.7-7-47.9-5.3-97-17.9-144.1-1.3-4.7-9.4-20.3-6.5-24.5 1.4-2.1 4.1-1.3 5.1 0.7z"  fill="#fff500" /><path d=""  fill="#fff" /><path d="M158.8-195.7c14.1 78.9 66 143.2 72.7 224.9 0.6 7.4 5.9 46.2-2.4 48.2-6.7 1.7-7-9.9-0.2-8.6 8 1.6 0.3 13.4-4.4 6.9-3.2-4.5-4.9-82-8.4-97.4-12.5-54-43.9-100.4-59.4-153.2-7.5-25.6 0.8-24.7 2.1-20.8z"  fill="#fff" /><path d="M167.6-322.5c5.9 41.9 5.4 84.3 14.6 125.8 12.1 54.2 38.5 103.8 50 158.3 2.8 13.3 20.6 112.7 5.2 116.3-8 1.9-5.9-12.2 1.3-8.1 6 3.5-1.8 12.1-5.9 6.3-0.8-1.2-4.1-96.7-8.4-117.7-10.5-51.2-34.2-97.9-47.4-148.3-10.1-38.3-11.6-77.6-15.3-116.8-1.3-13.6 2.1-30.9 5.9-15.8z"  fill="#c2e1ff" /><path d="M174.4-87.2c23.8 41.9 42.5 84.3 45.9 133 0.4 5.6 4.7 30-2.4 31.9-6.6 1.7-7.1-9.6-0.4-8.5 6.7 1.2 2.4 11.7-3.2 7.8-3.3-2.3-3.5-54.4-7.1-71.6-4.3-20.4-37.1-85.3-37.2-91.3-0.1-2.6 3.1-3.1 4.4-1.3z"  fill="#fff" /><path d="M184.9-300.2c7 123.1 50.1 193.4 59.2 302.4 0.8 9.7 7.7 72.9-2.6 75.3-8 1.8-5.8-12.3 1.3-8.1 6.1 3.6-1.9 12.1-5.9 6.3-3-4.4-3.1-99.7-5.6-116.1-13.2-85.3-48.6-162.6-53.9-249.8-0.3-4.5 5.3-22.4 7.5-10z"  fill="#c2e1ff" /><path d="M192.7-195.8c11.1 48.4 31.5 94.1 41.6 142.8 2.8 13.6 22.8 126.6 6.1 130.4-8 1.8-5.8-12.3 1.2-8.1 6.1 3.6-1.9 12.1-5.8 6.3-2.9-4.2-2.5-89.9-4.7-104.8-8.3-57.2-32.3-109.1-45-165-1-4.4 5.1-5.6 6.6-1.6z"  fill="#fff500" /><path d="M201.6-237.5c10.1 86.1 43.3 166.1 46.8 253.6 0.3 8.5 5.1 59.6-4.1 61.7-6.9 1.5-6.9-10.2 0-8.7 8.1 1.8 0 13.7-4.6 6.8-2.9-4.2-1.7-98.2-3.6-113.7-7.7-65.6-31.7-127.5-41.1-192.6-0.7-5.1 4.2-16.6 6.6-7.1z"  fill="#fff500" /><path d="M209.6 1.2c4 14.4 17.7 62.2 7.8 75-4.2 5.4-11.4-3.3-5.4-6.4 6.1-3.1 9 7.8 2.2 8.1-8.6 0.4-4.6-27.5-5-32.8-0.8-14.2-6.2-29.1-6.2-43.1 0-4.1 5.3-4.2 6.6-0.8z"  fill="#fff500" /><path d="M219.6-317.4c-15.8 101.6 38.6 247.5 31.7 384.4-0.1 2.1-3.5 18.4-8.7 8.4-7.8-14.8 20.7 2.4 3.9 2.4-9 0-3.3-27-3.1-32.1 1-29.5-0.1-59.1-2.6-88.5-6.9-80-34-158.2-33.1-238.8 0.5-47.9 12-48 11.9-35.8z"  fill="#fff500" /><path d="M226.7-151.8c7.3 31.6 38.3 208.6 22 227.9-4.6 5.4-11.7-3.9-5.3-7 6.4-3 8.9 8.5 1.9 8.5-5.8 0-3.9-87.7-4.7-99-2.2-29.5-6-58.8-11.7-87.8-1.7-8.6-12.6-35.8-8.5-43.4 1.6-3 5.4-1.9 6.3 0.8z"  fill="#fff" /><path d="M235.8 12.7c0.9 8.4 7 66.3-3.1 65.4-5.9-0.5-4.6-9.9 1.3-8.7 5.9 1.2 3.5 10.3-2.2 8.5-6.8-2.2-2.5-20.5-2.5-25.6 0.1-7.5-5.4-37.7 0.1-42.3 2.6-2.2 5.8-0.2 6.4 2.7z"  fill="#005bbb" /><path d="M244.6-226.1c1.7 73.8 11.5 147.3 12.5 221.2 0.2 11.6 2 75.2-3 81.1-4.6 5.4-11.7-4.1-5.2-7 6.5-2.9 8.9 8.6 1.8 8.5-5.9 0-2.2-99.7-2.6-112.1-1-35.3-16.1-171.5-11.7-192.5 1-5 7.5-3.7 8.2 0.8z"  fill="#005bbb" /><path d="M212.2-397.2c-25.6 91.8-4.5 186.8 17.4 276.5 2.3 9.6 21.4 89.6 12 90.2-5.2 0.3-5.3-8 0-7.7 6.1 0.3 3.4 10.1-2 7.3-7.4-3.9-8.9-51.7-10.8-61.2-15.6-79.3-38.6-152.2-35.4-234.2 0.8-21.4-1-55.2 9.2-74.6 2.9-5.6 10.3-1.9 9.6 3.7z"  fill="#005bbb" /><path d=""  fill="#fff500" /><path d="M271.3-344.8c-15 23-23.2 49.2-26.2 76.4-8.9 79.9 16.5 229.4 10.3 335.4-0.1 2.1-3.6 18.4-8.8 8.4-7.8-14.9 20.8 2.5 3.9 2.4-7.4-0.1-2-78.2-2.1-88.6-1.2-84.9-21.5-187.2-11.4-268.8 2.7-21.6 8.3-56.6 24.5-72.8 5.4-5.4 12.6 1.4 9.8 7.6z"  fill="#fff500" /><path d=""  fill="#c2e1ff" /><path d="M288.1-280.5c-26.6 82.3-23.4 188.9-25.3 275.2-0.2 9.8 0.8 84.2-8.5 83.1-7.1-0.9-3.2-12.1 2.9-8.3 6.1 3.8-2.2 12.3-6.1 6.3-3.3-5 2.8-72.3 3.1-84 1.9-82.7-1.4-197 23.7-275.3 2.2-6.7 11.3-3.6 10.2 3z"  fill="#fff" /><path d="M296.7-380.4c-89.6 99.4-44.3 232.6-40.6 356 0.3 9.7 4.6 85.7-5.2 84.7-7-0.7-3.3-11.9 2.7-8.2 6.1 3.6-2 12.1-5.9 6.3-3.3-4.8 0.1-86.6-0.4-100-3-84.3-30.3-201.8-2.6-281 7.7-21.9 23.1-54.4 42.9-68.1 7-4.8 13.4 4.1 9.1 10.3z"  fill="#fff500" /><path d="M305.2-24.2c-9.4 24.6-13.7 50.8-17.2 76.7-0.7 5.1 0.7 26.6-7.9 25.3-6.2-1-4.1-10.7 2-9.1 6.1 1.7 2.9 11.1-3 8.8-11-4.3 8.9-95.2 16.3-106.5 3.7-5.7 11.1-1 9.8 4.8z"  fill="#fff" /><path d="M265.8-393.9c-71.7 76.5-37.9 190.2-23.7 281.5 1.6 10.2 14.8 93.6 5.6 93.7-7.5 0-2.7-12.1 2.7-7 5.5 5.2-6.4 10.7-6.8 3.2-5.8-102-50.2-220.2-21.1-319.9 5.7-19.4 16.8-49.6 34.2-61.7 6.9-4.8 13.4 4 9.1 10.2z"  fill="#fff500" /><path d=""  fill="#fff500" /><path d="M330.9-378.6c-15.8 25.3-33.6 49.5-45.1 77.2-31.3 75.3-22.5 170.9-23.7 250.9-0.2 12.4 1.6 115.3-7.8 114.2-5.2-0.6-5.1-8.4 0.1-8.9 6.1-0.6 6.5 9 0.4 8.9-8.6-0.1-2.3-51.2-2.1-59 1.9-88-7.2-216.2 18.6-298.5 6.1-19.4 34.8-84.3 51.1-93.7 6.1-3.5 11.1 3.4 8.5 8.9z"  fill="#005bbb" /><path d="M294.7-393.8c-84.7 86.7-58.2 175.2-46.6 283.6 1.2 11.2 9.2 76.3 5.3 82-3.7 5.3-11-2.6-5.4-5.9 6.6-3.9 8.6 9.2 1.1 7.6-7.8-1.8-6.2-54.9-6.9-63.4-6.9-80.3-34-170.7-2.6-248.9 8.7-21.6 25.9-53 46.3-65.9 7.3-4.6 13.5 4.8 8.8 10.9z"  fill="#fff500" /><path d="M347.7-128.1c-43 43.8-59.6 95.9-67 155.6-1 8.5-0.1 45.6-7.3 49.6-6.4 3.5-9.8-8.1-2.5-8.6 7.3-0.5 5.5 11.5-1.3 8.9-8.3-3.2 1.2-45.3 2.1-53 6.3-53.1 17.9-104.7 52.4-147.1 4.2-5.1 9-12.6 14.6-16.2 7.3-4.7 13.5 4.6 9 10.8z"  fill="#c2e1ff" /><path d="M356.1-301.6c-23.8 91-71.9 172.1-82.4 266.8-1.7 15.6-4 105.2-9.6 111.3-5.6 6.3-12.2-6.8-3.7-7.5 7.2-0.6 5.6 11.2-1.2 8.8-9-3.3 2.3-77.6 3.1-88.6 8.5-114 49.2-175 79.7-279.2 1.3-4.5 1.8-14.5 6.2-17.4 4.3-2.8 8.5 1.3 7.9 5.8z"  fill="#005bbb" /><path d="M308.4-394c-60.1 67.7-72.2 114.4-64.2 204.4 1.4 15.3 13.5 107.1 8.8 114.1-3.6 5.3-11-2.4-5.5-5.7 6.4-3.9 8.6 9 1.3 7.4-7.4-1.6-5.7-41.4-6.3-48.6-5.8-71.7-23.6-152 9.9-219.6 10.1-20.3 27.9-49.3 47-62.4 7-4.8 13.4 4.2 9 10.4z"  fill="#005bbb" /><path d="M372.8-76.2c-33 25.7-54.6 57.6-65 98.2-1.9 7.5-8 59.7-16.3 55.2-4.8-2.6-1.7-10.1 3.6-8.6 6.1 1.8 2.8 11.2-3.1 8.8-8.5-3.5 2.7-43.5 4.3-51.2 8.8-42 26.9-79.1 59.6-107.7 10.8-9.5 29.2-7.3 16.9 5.3z"  fill="#fff" /><path d="M381.9-221.4c-33.1 73.2-83.3 102.4-99.6 191.4-2.8 15.4-7.7 101.1-12.8 106.7-4.9 5.4-11.8-4.4-5.1-7.2 7.8-3.3 8.2 11.4 0.2 8.5-7.9-2.9 0-38.4 0.6-45.6 14.4-156 35.9-136.8 106.1-259 3.9-6.7 13-1.8 10.6 5.2z"  fill="#fff500" /><path d="M390.2-171.4c-42.3 49.8-86.4 83.9-101.5 151.1-5.9 26.2-8.7 53-11.4 79.6-0.4 3.8 0.8 22.7-8.1 18.2-4.8-2.4-1.9-9.9 3.2-8.5 5.2 1.3 4 9.2-1.3 9-9.6-0.4-0.4-44.8 0.4-51.9 6.3-53.3 17.6-105.2 52.2-147.9 10.4-12.8 46.1-55.7 59-60.6 7.1-2.7 11.3 5.6 7.5 11z"  fill="#fff" /><path d="M398.9-207.9c-35.1 66.6-91.3 92.8-110.9 174.4-6.9 28.7-9.7 58.2-12.5 87.5-0.4 4 0.9 28.4-8.5 23.6-4.7-2.4-1.9-9.8 3.2-8.5 5.2 1.3 4 9.2-1.3 9-9.4-0.3-2.2-28.9-1.7-34.4 5-50.3 10.5-101.7 35.3-146.8 17.3-31.5 43.2-55.7 65.9-83.1 4.8-5.8 18.6-34.2 27.6-30.4 3.6 1.5 4.3 5.4 2.9 8.7z"  fill="#fff" /><path d="M406.2 58.8c0.1 3.9 3.4 16-1.7 18-5.8 2.2-7.3-7.9-1.2-7.5 5.3 0.4 4.3 8.6-0.9 7.7-14.5-2.6 1.5-32.2 3.8-18.2z"  fill="#fff" /><path d="M433.3-399.7c50 139.2 49.3 189.1-69.7 287.3-7.8 6.5-40.6 47-48.1 44.4-11.3-3.8 2.2-19.6 7.7-9.1 4.8 9-11.5 13.5-12.1 3.3-1-19.9 110.6-96 134.4-153.5 24.3-58.7 4.1-111.8-16.8-167.8-1.5-4.1 1.9-10 4.6-4.6z"  fill="#fff" /><path d="M427.8-399.2c23.6 74.9 49.3 144 0.6 215.6-27.6 40.5-72.2 63.6-101.9 102-6.3 8.2-32 65.6-36.8 63.9-7.9-2.7-0.7-14.5 5.3-8.7 6 5.8-5.5 13.5-8.5 5.7-2.2-5.6 3.6-16.3 5.4-21.7 27.4-78.3 111.3-106.8 144.3-180.1 26-57.9 6.3-112.4-12.4-169-1.2-3.6 0.3-15.9 4-7.7z"  fill="#005bbb" /><path d="M432.6-247.9c-15.6 84.1-103.8 119-133.3 195.8-12.4 32.5-16.6 67.4-20.4 101.8-0.5 4.3 0.6 32.6-9.1 27.6-5.6-2.8-0.6-11.4 4.6-8 4.5 2.9 0.8 10-4.1 8.2-7.6-2.9-0.5-29.2 0.1-35.5 16.3-149.5 33.9-127.8 118.7-228 16.9-19.9 28.1-58.5 34.7-66.3 3.6-4.2 9.2-0.4 8.8 4.4z"  fill="#005bbb" /><path d="M439.7 63.3c0.4 2.3 4.9 14.4-2.1 13.3-4.6-0.7-3.1-7.9 1.4-6.7 3.8 1 2.9 6.9-1 6.8-11.9-0.6-2-24.5 1.7-13.4z"  fill="#005bbb" /><path d="M447.9-331.8c45.6 162.4-85.8 173.3-138 274.6-13.4 26-19.7 54.9-23.9 83.7-1.4 9.6 0.1 37-6.4 43.9-5 5.4-11.9-4.7-5.1-7.5 8-3.2 8.1 11.8 0 8.6-7.7-3 0.1-31.9 0.9-38.3 6.5-50.5 18-100.1 52.5-139.3 30.1-34.3 71-57.2 95.7-96.5 14.6-23.3 23.4-50.1 24.1-77.6 0.1-4.7-8.8-74.6 0.2-51.6z"  fill="#fff" /><path d="M458.5-73.5c-21.5 32.2-43.9 65-49.9 104.1-1 6.5 0.9 48.7-6 46.7-5.1-1.5-2.3-9.3 2.5-7.3 4.2 1.7 2.3 8.2-2.1 7.4-9.2-1.6-4.3-43.6-3.4-50.8 4.3-34.1 23.3-84.5 49.3-108.3 5.8-5.3 12.8 2.1 9.6 8.2z"  fill="#fff500" /><path d="M476.4-399.5c14.3 22.8 28.6 46.4 33.2 73.3 11.4 67.3-33 146.5-79.6 192.1-32.2 31.5-75.3 51.6-101.3 89.2-6.1 8.8-19.9 5.8-13-2.9 10.1-12.8 16.2 17.2 1.9 9.3-11.9-6.6 15.9-34.3 20.8-39.4 53.6-56.4 101-68.2 139.3-146.3 16.5-33.5 30.2-72.3 23.1-110-4.4-23.2-16.4-42.9-28.2-63-1.5-2.5 2-4.5 3.8-2.3z"  fill="#c2e1ff" /><path d="M473.7-319.7c34.3 145.5-106.3 186.4-154.6 263.8-19.1 30.6-26.2 66.5-31.1 101.7-0.7 4.8-0.1 34.6-10 29.4-4.8-2.5-1.8-10 3.4-8.5 5.2 1.4 3.9 9.4-1.5 9.1-9.7-0.5-1.2-32.2-0.4-38 5.8-41.8 15.1-83.8 40.8-118.2 31.9-42.7 82.7-65.3 113.9-109 17.4-24.4 29.8-53.1 33.8-82.9 2.1-16.1-2-31.2-1.3-46.9 0.2-4.3 5.8-4.1 7-0.5z"  fill="#c2e1ff" /><path d="M505.6-399.8c17.4 23.1 32.6 48.5 33.3 78.3 1.2 59.6-55 149.6-95 192-19.2 20.4-41.8 36.4-63.8 53.4-8.5 6.5-17.4 17.8-26.8 22.4-10.1 5-14.6-13.1-3.4-13.4 11.3-0.3 7.8 18-2.5 13.6-17.8-7.6 43.1-49.6 49.7-54.6 44.7-34 75.5-76.1 101.5-125.6 17.1-32.5 36.9-70.1 30.5-107.9-2.4-14.4-8.5-27.8-16.1-40.2-2-3.2-12.1-13.9-10.8-17.5 0.6-1.6 2.4-1.6 3.4-0.5z"  fill="#fff500" /><path d="M558.2-399.8c80.2 86.4 0.4 149.8-46.9 226.1-7.8 12.5-48.5 82.8-59.7 85.6-8.9 2.2-11.6-12-2.6-13.2 10.6-1.4 9.2 16.2-1 13.1-14.7-4.5 18.5-39.1 22.6-45.1 24.9-36.2 83.4-120.3 102.3-154.7 12-21.9 16.5-46.4 7.7-70.4-2.2-5.9-30.7-48.8-22.4-41.4z"  fill="#fff500" /><path d=""  fill="#fff" /><path d="M509.6-127.4c-22.3 44.5-47.8 92.9-47 144 0.2 10.1 11.1 54.1 9.6 58-2.1 5.5-9.7-1.4-4.3-4 5.3-2.6 6.1 7.6 0.4 5.9-5.5-1.7-7.6-21.2-8.8-26.2-15.1-64.1 9-126.8 39.4-182.9 3.7-6.9 13.1-1.8 10.7 5.2z"  fill="#fff500" /><path d="M517.3-55.7c-3.3 33.2 1.9 65.7 9.3 98 1.2 5.1 11.4 32.9 4.5 34.2-4.6 0.8-5.5-6.5-0.9-6.8 4.6-0.3 4.7 7 0.1 6.8-14.2-0.6-27-118.2-21.9-133.9 1.7-5.3 8.6-3.2 8.9 1.7z"  fill="#fff" /><path d=""  fill="#005bbb" /><path d=""  fill="#fff" /><path d="M543.2-108c-10.4 46.3-3.3 91.8 5.4 137.7 1.2 6.1 12.3 46.4 4.7 47.3-4.2 0.5-5.6-5.7-1.6-7.1 4-1.4 6.7 4.4 3.1 6.6-6.2 3.8-6.5-8.6-6.9-11-7.6-44.6-19.6-89.4-18.7-135 0.8-41.7 15.2-54.8 14-38.5z"  fill="#fff" /><path d="M550.4-15.6c1.6 10.1 19.1 92.2 11.5 92.9-5.1 0.4-5.3-7.6-0.3-7.5 4.4 0.1 4.9 6.6 0.7 7.4-7.7 1.5-7.7-25.7-8.5-30.3-3-19-12.2-43.1-10.6-62.2 0.3-4.5 6.2-4.1 7.2-0.3z"  fill="#fff500" /><path d="M558.9-342.5c8.7 40-14.5 77.3-33.8 110.3-31 52.9-61.5 104.4-109 144.2-21 17.6-43.7 33.5-61.5 54.6-11.8 14-20.9 29.9-27.3 46.9-1.7 4.4-5.1 28.8-14.1 22.3-5.7-4.1 1.3-12.7 6.5-8 5.2 4.7-2.7 12.5-7.3 7.2-6.5-7.3 8.8-37 12.2-44.6 30.2-65.9 103.2-97.7 144.4-156 29.4-41.6 66.3-93 79.9-142.6 3-10.9-0.5-25.3 3-35 1.4-3.8 6.2-2.7 7 0.7z"  fill="#fff" /><path d=""  fill="#c2e1ff" /><path d=""  fill="#c2e1ff" /><path d="M585.3-117.8c-2.5 32 5.6 62.9 12.1 93.9 0.9 4.5 9.5 30.8 1.6 31.5-5.1 0.4-5.3-7.6-0.2-7.5 5.1 0.1 4.5 8.1-0.6 7.5-6.6-0.9-8.4-33.8-9.7-40-5.2-24.2-19.2-62-11.9-86.9 1.5-5.2 8.4-3.4 8.7 1.5z"  fill="#005bbb" /><path d=""  fill="#fff500" /><path d="M601.4-89.7c0.4 2.3 1.6 11.9-4.4 8.4-3.6-2.1-1.1-7.7 2.8-6.4 3.9 1.2 2.7 7.3-1.4 6.9-10.5-0.9-0.2-19.1 3-8.9z"  fill="#fff" /><path d=""  fill="#fff" /><path d=""  fill="#fff" /><path d="M603.8-173.4c-14 35.1-15.1 71-7.5 107.7 1 4.9 9.2 25.7 4 28.5-4.1 2.2-7.2-4.4-3-6.1 5-2.1 6.6 6.8 1.2 6.6-6.5-0.3-8.9-26.9-10-32.2-7.7-36-8.6-73.5 4.9-108.3 2.7-6.9 12-3 10.4 3.8z"  fill="#fff" /><path d=""  fill="#005bbb" /><path d=""  fill="#c2e1ff" /><path d=""  fill="#005bbb" /><path d=""  fill="#fff" /><path d=""  fill="#005bbb" /><path d=""  fill="#c2e1ff" /><path d=""  fill="#c2e1ff" /><path d=""  fill="#fff500" /></svg>