<svg width="1200" height="675" viewBox="-500 -500 1200 675" xmlns="http://www.w3.org/2000/svg"><path d="M-500-500h1200v675h-1200z" fill="#000"/><path d=""  fill="#c2e1ff" /><path d="M-396.3-130.2c14.9 31.4 36.2 59.8 48.1 92.6 5.3 14.6 15 92-1.4 96.9-7.6 2.3-8.5-10.8-0.7-9.7 9.2 1.3 1.1 15.3-4.6 8-4-5.1 3.8-20 5-25.9 3.5-17.2 3.8-34.9 0.4-52.1-7.9-39.8-33.8-71.8-51.1-107.7-1.4-2.9 2.6-4.6 4.3-2.1z"  fill="#005bbb" /><path d=""  fill="#005bbb" /><path d=""  fill="#fff" /><path d=""  fill="#fff500" /><path d=""  fill="#fff" /><path d="M-395.5-181.9c7.3 39 87.7 189 59.7 214-5.4 4.9-11.4-5.7-4.4-7.8 6-1.8 8.3 7.8 2.2 8.9-9.8 1.9-3-18.3-2.7-22 1.8-17.5-0.1-35.2-4.8-52.1-10.8-38-34.3-70.8-47.4-108-3.3-9.3-9.3-22.5-9-32.4 0.1-4 5.3-3.9 6.4-0.6z"  fill="#fff500" /><path d="M-397-38.9c21.3 29.6 32 62.9 26.7 99.4-0.6 4.4-0.6 13.6-4.3 16.7-5 4.1-11-4.1-5.5-7.7 6.3-4.1 10.7 7.6 3.2 8.7-10.1 1.5 2.5-36.9-0.9-60.8-2.8-19.6-32.3-71.3-19.2-56.3z"  fill="#fff500" /><path d=""  fill="#c2e1ff" /><path d=""  fill="#c2e1ff" /><path d="M-395.5-340.7c14.4 56.4-3.3 116.1 9.4 173.4 13.5 60.7 59.5 111.9 56.3 176.3-0.4 7.3-2.3 44.6-12.7 44-5.8-0.3-6.3-9-0.6-9.9 6.7-1.1 7.9 9.6 1.1 9.9-11.3 0.6 0.8-26 1.8-31 4.5-22.8 2.9-46.1-3.6-68.3-13.6-45.7-41.8-84.8-51.2-132.3-9.9-50.5 1.8-101.1-5.2-151.5-0.2-1.6 0.9-21.6 4.7-10.6z"  fill="#005bbb" /><path d="M-395.7-166.7c20.1 76 80.8 134.6 54.9 218.3-1.9 6-5.6 25.5-12.7 26.8-9.7 1.8-6.4-15 1.8-9.7 8.3 5.3-5.7 15.3-8 5.7-0.3-1.1 20.5-65.5 17.4-91.1-6.2-51.9-42.2-94-57.6-143-1.2-3.8 1-14.5 4.2-7z"  fill="#c2e1ff" /><path d="M-397.2-43.3c22.2 30.4 34.1 64.5 28.5 102.3-0.7 4.7-0.7 14.8-4.6 18-5 4.1-11-4.2-5.6-7.7 6.4-4.1 10.7 7.7 3.3 8.7-9.9 1.4 3.3-35.6-0.5-62.1-1.7-12-24.7-56.1-24.4-58.3 0.2-1.8 2.3-2 3.3-0.9z"  fill="#c2e1ff" /><path d="M-394.3 53.8c0.4 4.4 4 25-4.5 23.9-5.6-0.7-4-9.6 1.5-8.2 5.5 1.3 3 9.9-2.3 8-11.8-4.2 3.1-36.5 5.3-23.7z"  fill="#c2e1ff" /><path d="M-386.1-284.8c-1.8 38.8-5.4 77.2 2.4 115.6 15.8 77.9 74.6 137.2 46.3 220.8-2.1 6.1-6.4 26-13.6 27.2-9.9 1.7-6.2-15.4 2.1-9.8 8.3 5.6-6.1 15.4-8.2 5.7-0.2-1.1 22.7-67.3 20-94-5.9-58.7-46.9-107-56.1-165.3-4.7-29.2-9.7-72.8-0.9-101.6 1.5-4.8 7.7-3 8 1.4z"  fill="#005bbb" /><path d="M-378.5-208.1c0.5 92.7 77.3 167.2 43 261.3-2.1 5.8-6.5 24.6-13.6 25.7-10 1.5-6-15.6 2.2-9.8 8.3 5.8-6.3 15.4-8.4 5.6-0.1-0.5 23.7-67.6 22.1-93-3.4-51.2-35.7-94.1-47.1-143.3-9.9-42.7-0.6-62.6 1.8-46.5z"  fill="#005bbb" /><path d="M-371.6 3.3c3 9.5 12.3 74.5-4.1 74.8-7.6 0.2-5.2-12.2 1.8-9.1 5.9 2.6 1.4 11.7-4.3 8.5-6.4-3.6 3-30.8 3.5-37.4 0.8-11-5.1-26.9-2.8-36.8 0.8-3.3 4.8-2.7 5.9 0z"  fill="#c2e1ff" /><path d="M-364.3-117c24.1 56.9 49.3 106.7 27.5 169.3-2.1 6-6.4 25.3-13.5 26.5-8.5 1.4-7.7-12.8 0.6-10.6 9.7 2.7-0.9 16.6-6.1 8-3.6-6 7.2-21.5 9.4-27.4 7-18.4 11.4-37.8 11.2-57.6-0.6-49-28-72-34-106.8-0.5-3.1 3.4-3.8 4.9-1.4z"  fill="#c2e1ff" /><path d="M-354.7 31.3c-0.3 7.5-2.5 47.3-13 46.9-6.8-0.3-5.8-10.9 0.9-9.9 6.7 1 4.5 11.5-2 9.7-10.7-2.8 13.2-69.3 14.1-46.7z"  fill="#fff" /><path d="M-347.7-156.6c12.1 76.9 54.4 127 20.9 208-2.5 6.1-8.4 26.7-16 27.6-10.3 1.1-5.5-16.2 2.8-10 8.3 6.3-7.2 15.6-8.9 5.4-0.4-2.5 27.3-68 27.9-91.2 0.9-31.2-35.9-131.4-33.2-140.2 1.1-3.5 5.5-2.7 6.5 0.4z"  fill="#c2e1ff" /><path d="M-336.6-399.3c26.5 81.2-0.3 146.7 4.2 227 3.1 55.6 32.7 106.3 28.1 162.8-0.7 8.4-5.5 54.1-17.1 52.8-6-0.7-6-9.8 0-10.4 7.1-0.7 7.6 10.5 0.5 10.5-11.6 0 3.7-31.1 5.1-36.9 6.1-26 5-52.7-0.8-78.6-8.9-40.2-23.9-77.7-23.9-119.6-0.1-52.8 15-104.5 8.8-157.5-0.4-3.8-13.4-69.4-4.9-50.1z"  fill="#c2e1ff" /><path d="M-332.1-142.7c13.6 69.6 41.1 125.7 9.3 195.7-2.7 6-8.8 25.3-16.2 25.9-7.6 0.7-8-11.4-0.3-11.3 7.7 0.2 6.7 12.3-0.9 11.3-12.7-1.7 5.5-26.1 7.9-31.1 10.5-21.8 17.5-45.1 18.5-69.3 1.8-43.2-29.5-112.7-24.3-122.1 1.5-2.8 5.1-1.7 6 0.9z"  fill="#c2e1ff" /><path d=""  fill="#fff500" /><path d=""  fill="#005bbb" /><path d="M-308.1-335.3c5.2 53.9-7.9 106.9-5.8 160.6 3.3 84.1 42.2 142.4 0 226.6-3 6.1-10.5 26.8-18.3 27.1-10.7 0.5-4.6-17.2 3.5-10.2 6.9 6-5.3 15.1-9 6.8-3.5-7.7 14.6-29.7 18.2-37 12.1-24.8 19.1-51.6 19.2-79.3 0.4-45.3-18-87.9-21-132.9-3.3-48.4 7.7-96.5 6.7-144.9-0.1-4.5-2.9-14.9-0.1-18.7 2.2-2.9 5.9-1.1 6.6 1.9z"  fill="#005bbb" /><path d="M-300-302c0.4 45.6-8.5 91-5.1 136.7 7.1 95.2 42.3 151.4-19.9 242-6.2 9.1-16.6-6.2-6.3-8.8 9-2.3 9.5 13.1 0.3 11.4-13-2.5 9.3-30.3 12.1-35.5 14.6-27.3 23.4-57.1 24.1-88.1 0.9-41.9-14-81.7-17.7-123.1-3.7-41.8 3.2-83.3 4.5-125.1 0.1-3.7 6.6-22.1 8-9.5z"  fill="#c2e1ff" /><path d="M-292.3-185.1c1.5 90.6 34.5 155.1-15.7 242.1-3.3 5.6-10.6 24.7-18.9 21.9-6.5-2.1-4.4-12.2 2.4-11.5 8 0.8 6 13.3-1.8 11.7-13.1-2.8 9.3-29.3 12.2-34.2 13.7-23.9 23.3-49.9 26.9-77.3 6.7-50.7-10.2-99.7-12.6-150.1-0.3-5.6 6.5-9.3 7.5-2.6z"  fill="#fff" /><path d="M-272.6-398.9c17.3 87.4 13.5 172.9 19.1 261.3 0.9 14.7 6.3 126.9-14.1 126.6-9.1-0.1-3.1-14.7 3.4-8.4 5.6 5.4-5.2 12.5-7.9 5.3-3.2-8.4 16.1-46.4 10.8-129.8-5.1-79.9 0.5-159.2-14.7-238.3-0.9-4.5-4.3-12.5-3-17 1-3.5 5.4-2.7 6.4 0.3z"  fill="#fff" /><path d="M-277-119.5c9 60.3 5.9 117.7-24.9 171.8-4.3 7.6-9.9 20.9-16.9 26.1-7.6 5.7-14.1-8.6-4.8-10.6 9.2-2 9.2 13.7-0.1 11.7-12.7-2.9 5.7-22.9 8.5-27.4 12.9-20.5 23.2-42.6 29.1-66.1 6-23.6 7.7-48.1 6-72.4-0.4-6.3-7.2-30.9-2.6-35.1 2.2-2 5.1-0.5 5.7 2z"  fill="#fff500" /><path d=""  fill="#005bbb" /><path d="M-260.8-274c0.5 31.1-1 62.1 0.3 93.1 3.1 77 12.3 149-25.6 220.2-4.9 9.1-16.5 36.6-26.9 39.7-7.9 2.4-10.9-10.2-2.9-11.7 9.4-1.8 8.9 14.2-0.3 11.8-13.2-3.4 13.6-33.9 16.9-39.5 17.6-29.4 28.9-62.3 33.6-96.2 9.2-66-3-141-2.9-208.4 0-4.1 6.2-20.9 7.8-9z"  fill="#c2e1ff" /><path d=""  fill="#005bbb" /><path d="M-245.1-203.1c1 88.6 6.3 174.7-42.2 253.6-3.9 6.4-14.8 29.3-23.2 28.9-8.3-0.4-7-13.4 1.2-12.1 8.2 1.3 5.5 14.1-2.5 11.9-13.3-3.6 11.3-29.7 14.6-34.9 16.8-26.1 28.7-54.8 36.2-84.9 6.7-27.1 9.6-54.8 9.9-82.6 0.1-15.7-6.9-70.7-1.4-81.5 1.9-3.8 6.8-2 7.4 1.6z"  fill="#fff500" /><path d="M-236.3 4.5c-6.3 12.6-37.6 72.3-48.9 75.1-9.6 2.4-10-14-0.4-12.1 9.7 1.9 3.2 16.9-4.8 11.2-9-6.5 11.8-25.5 15.7-31 9-12.7 18.3-41.6 30.3-50.2 5-3.5 9.9 2 8.1 7z"  fill="#c2e1ff" /><path d="M-224.7-399.2c16.2 125.8 22.2 256.2-20.3 378-2.2 6.2-7.6 31.6-16.2 30.4-9.8-1.4-1.2-16.3 4.9-8.6 5.3 6.6-7.4 12.8-9.3 4.6-2.8-11.6 15.7-42.8 19.5-55.1 11.1-36.3 18.2-73.8 21.8-111.6 7.3-75.1 4.8-150-5.6-224.5-0.4-3.1 2.1-25.2 5.2-13.2z"  fill="#fff" /><path d="M-221.5-229c-0.8 95.3-6.7 195.3-58.8 278.5-4.1 6.6-15.9 30.9-24.8 30.3-8.3-0.5-6.8-13.6 1.4-12.2 8.2 1.4 5.3 14.3-2.7 12-13.3-3.8 11.1-28.8 14.4-33.6 19.9-29.5 33.4-62.5 43-96.7 19.4-68.8 12.6-152 19.7-179.3 1.2-4.7 7.3-3.2 7.8 1z"  fill="#fff500" /><path d=""  fill="#fff" /><path d="M-205.4-155.2c-11.2 68.5-30.9 141.8-67.7 201.2-4.1 6.7-19.6 37.2-29.1 33.2-9-3.8 0.3-17.1 6.9-9.9 6.6 7.2-7.5 15.4-10.5 6.1-1.7-5.3 37.1-58.5 46.2-78.8 23.3-52.2 44.1-153.8 47-156.1 3.4-2.8 7.4 0.5 7.2 4.3z"  fill="#c2e1ff" /><path d="M-197.3-398.5c10.1 144.4 5.3 291.1-62.7 423-1.8 3.5-10.7 19.8-15.1 8.1-7.3-20 25.7 6.6 4.6 3.7-12.2-1.7 12.3-40.4 15-47 20.6-48 35.5-99.4 45.3-150.6 14.3-75.1 12.2-151.9 6.2-227.7-0.3-4 4.4-20.8 6.7-9.5z"  fill="#fff" /><path d="M-189.2-10.8c-7.1 10.8-52.5 96.5-62.1 89-6.4-4.9 1.9-14.6 7.7-9 5.8 5.6-3.5 14.3-8.7 8.1-5.2-6.2 45.4-87.3 54.2-95.5 5.2-4.9 11.7 1.7 8.9 7.4z"  fill="#fff500" /><path d="M-181.5-159.4c-23.3 71.6-49.2 151.2-91.4 214-3.9 5.8-15.1 28.1-23.8 24.4-9.1-3.8 0.4-17.2 7-9.9 6.6 7.3-7.6 15.4-10.5 6-1.9-6.1 36-55.9 45.4-75.4 9.6-19.9 60.8-162 66-165 4.3-2.5 8.1 1.8 7.3 5.9z"  fill="#fff500" /><path d="M-173.5 11.8c-5.1 8.7-31.7 70.5-39.3 66.7-6.4-3.3-0.7-13.1 5.3-9.2 6.1 3.9-0.7 13.1-6.3 8.5-7.5-6.1 24.4-65.5 31.2-72.7 4.8-5 11.4 1 9.1 6.7z"  fill="#c2e1ff" /><path d="M-165.8-65.8c-18.9 20.6-85.6 142.1-97.5 145.4-9.4 2.6-10.2-13.6-0.6-12 9.6 1.6 3.6 16.6-4.5 11.1-8.9-6.1 21.3-40.8 25.8-48 17.5-28.4 41.8-87.3 68.4-105.9 6.4-4.5 12.3 3.7 8.4 9.4z"  fill="#fff500" /><path d="M-158.6-345.7c-7.8 131.8-46.5 312.8-128.7 419.1-7.1 9.2-19.9 3.4-12.5-4.1 9.6-9.6 15.6 14.2 2.6 10.3-12.6-3.8 20.7-42.1 25-49.1 27.7-45.7 44.7-97.9 62.6-148 26.5-74.1 37.4-148.2 42.6-226.4 0.4-5.9 8-9.1 8.4-1.8z"  fill="#fff" /><path d="M-150.3-232.9c-18 81.6-57.2 163.3-93.1 238.5-5.3 11.1-37.6 79.9-51.8 73.8-10.6-4.5 3.6-18.8 8.2-8.2 3.9 9-12.1 12.2-11.9 2.4 0.2-9.5 18.7-26.3 24.1-34.6 14.1-21.4 25.1-44.5 35.3-68 29.3-67.7 60.2-135 80-206.1 1.7-6 9.7-3.8 9.2 2.2z"  fill="#fff500" /><path d="M-144.5-398.1c-12 150.1-28.3 226.3-84.8 366.1-3.5 8.6-19 57.8-29.7 55.6-10.1-2.2-0.1-17.1 5.8-8.6 5 7.3-8.6 12.8-10.1 4-2.1-12.3 19.3-42.8 24.3-54.9 18.3-44.5 36.4-89.6 51.2-135.3 22.6-69.7 27.9-146 34.2-218.7 0.4-4.8 8.7-20.7 9.1-8.2z"  fill="#c2e1ff" /><path d="M-134.7-330.1c-24.7 129.2-55.4 233.2-116.7 351-4.9 9.5-31.9 63.8-44.2 58.5-10.6-4.5 3.5-18.8 8.2-8.2 3.9 9-12.1 12.2-11.9 2.3 0.3-13 27.8-39.8 34.8-52.1 19.9-35 33.9-73.2 49.3-110.3 38.1-92.2 52.2-143.1 71.1-240.7 1.2-6.4 9.9-8.4 9.4-0.5z"  fill="#fff" /><path d="M-127-380.3c-23.6 150.9-42.2 208.7-100.5 348.6-4.9 11.8-34.3 90.4-48.7 85.6-8.9-2.9-1-16.4 5.9-9.9 8 7.5-9.3 15.7-10 4.6-0.3-5.5 26.5-47.5 30.9-56.7 22.3-47.7 41.5-97.2 61.2-146.1 28-69.4 38.6-145.2 51-218.7 0.9-5.2 10.8-20.3 10.2-7.4z"  fill="#fff" /><path d=""  fill="#fff500" /><path d="M-111-334.5c-14.1 44.7-24.2 90.8-39.4 135.1-18.2 52.8-77.4 182.4-105.1 231.2-4.7 8.3-27.3 52.4-38.3 47.6-10.6-4.6 3.6-18.8 8.1-8.1 3.9 9.1-12.2 12.1-11.9 2.3 0.3-12.8 27-38.4 33.9-50.4 18.5-32 32-66.6 46.9-100.3 18.1-41 40-80.5 55.7-122.6 16.4-44.1 25.9-90.7 40-135.6 2.1-6.8 11.7-7.4 10.1 0.8z"  fill="#fff500" /><path d=""  fill="#c2e1ff" /><path d="M-95.1-301.8c-18.2 38.6-30.2 79.7-48.8 118.2-16.1 33.5-36.2 64.9-52.9 98.1-9.6 19.1-72 174.4-94.7 164.6-9.1-3.9 0.5-17.2 7.1-9.8 7.7 8.6-11.1 15.5-10.9 4 0.2-9 17.5-24.6 22.7-32.4 14.3-21.3 25.6-44.3 36.3-67.5 26.4-57.4 58.6-111.5 85.9-168.4 17-35.5 28.4-73.3 44.6-109.1 3.2-7 13.4-6 10.7 2.3z"  fill="#005bbb" /><path d="M-90.5-397c-11.6 52.6-45.8 166.4-65.8 215.8-15.2 37.6-34.9 73.2-51.3 110.2-12.8 28.7-23.5 59.6-39.2 86.9-5.2 9.1-16.2-4.5-6.8-7.8 9.7-3.4 8.9 14.5-0.4 10.3-2.2-1-3.6-3.5-3.2-5.9 3.3-21.3 74.2-159 88.3-191 30.6-69.6 48-147.8 69.3-220.7 1.7-5.9 9.8-3.7 9.1 2.2z"  fill="#fff" /><path d="M-79.5-196c-70.9 85.9-95.6 96.7-151.1 202.4-6.4 12.1-37.4 70.3-48.1 73-9.6 2.4-10-13.9-0.4-12.1 9.7 1.8 3.2 16.9-4.8 11.1-8.7-6.3 22.3-40.7 26.9-48.2 24.4-39.3 41.8-82.5 68.2-120.7 25.8-37.5 59.9-67.4 89.6-101.6 3.4-3.9 8.4-13.2 13.9-14.1 6.1-0.9 8.6 5.7 5.8 10.2z"  fill="#fff" /><path d="M-72.2-124.4c-53.4 42.2-95.4 67.1-131.5 127.7-5.9 9.8-43.9 83.2-54.3 74.9-5.5-4.4 0.2-13.2 6.5-10.1 5.3 2.7 3.7 10.9-2.2 11.4-13.6 1.1-1.1-15.4 1.1-18.6 31.8-45.6 53.5-97.9 93.9-137.2 13.2-12.8 64.8-57.9 81-60.6 7.6-1.3 10.2 7.8 5.5 12.5z"  fill="#fff" /><path d=""  fill="#fff500" /><path d=""  fill="#fff500" /><path d="M-48-358.2c-15.2 27-32.7 52.6-46.6 80.5-15.5 31.3-27.5 64.3-43.8 95.2-18.4 34.8-40.8 67.3-58.9 102.2-13.4 26-45.5 111.6-64.1 126.5-7.2 5.8-14.1-8-5.1-10.2 10.6-2.6 8 16.1-1.4 10.8-2.3-1.3-3.4-4-2.8-6.5 1.6-6.5 63-124.8 71.1-140.1 17.5-32.7 38.6-63.4 55.7-96.3 27.8-53.4 49.9-107.8 81.2-159.5 3.6-6 20.8-16.7 14.7-2.6z"  fill="#c2e1ff" /><path d=""  fill="#fff" /><path d="M-32.6-157.5c-49.7 52.3-116.6 81.2-157.3 142.6-7.3 11.1-55.3 101.1-65.3 93.2-5.5-4.3 0.1-13.2 6.3-10.1 7.3 3.6 1.1 14.8-5.8 10.5-8.7-5.5 6-19.5 9.2-24.3 26.9-40.6 47.1-85.8 81.1-121.5 36.3-37.9 83.8-63.9 122.5-99.4 6.3-5.8 14.3 2.5 9.3 9z"  fill="#c2e1ff" /><path d="M-24.8-59.9c-10.1 35.8-1.3 69.6 26.1 94.9 12.4 11.5 26.7 20.5 40.1 30.7 1.1 0.8 11.8 7.2 8.7 8.8-1.8 0.9-3.5-2.2-5.1-3.5-32.9-28.5-75.4-47.8-81.3-96.1-1.3-10.8-2.4-28.1 2.7-38.1 2.6-5.2 9.4-1.9 8.8 3.3z"  fill="#005bbb" /><path d="M-26.8-396.4c-13.8 39.2-41 72.1-60.6 108.3-32.9 60.9-53.1 110.1-90.6 173.5-5.8 9.7-39.7 82.4-46.9 78.5-7.6-4 1.7-14.8 6.9-8 5.2 6.8-7.8 12.8-9.6 4.4-3.7-16.9 65.5-122.2 77.6-143.6 20.5-36.3 34.5-75.7 54-112.4 18.8-35.6 42.6-67.8 59.6-104.4 2.8-6.1 11.2-2.6 9.6 3.7z"  fill="#fff500" /><path d=""  fill="#fff" /><path d="M-11.4-396.1c-15.1 40-45.8 71.9-67.7 108.1-33.6 55.5-58 110.9-95.2 170.9-6 9.7-41.6 82.8-48.7 78.9-7.6-4.1 1.8-14.9 6.9-8 5.1 6.9-7.9 12.8-9.6 4.4-3.6-17.2 66.4-119.7 78.9-140.7 21.4-35.8 36.5-74.8 57.5-110.8 19.7-33.8 46.7-63.4 64.3-98.4 2.4-4.9 17.8-19 13.6-4.4z"  fill="#fff500" /><path d="M4.7-39.9c11.4 45.4 59.4 60.9 88.3 92.4 2.7 2.9 18 19 13.8 22.9-2.9 2.6-6-3-2.3-4.2 4.3-1.3 3.7 6.5-0.4 4.5-5.8-2.9-13-21.1-18.2-26.7-21.5-23.2-52-36.3-72-61.1-18.1-22.4-12.4-34.8-9.2-27.8z"  fill="#c2e1ff" /><path d="M9.9-396.2c-17.3 42.9-54.6 74.2-80.2 111.9-35.9 52.8-64.2 110.9-99.5 164.4-16 24.3-30 49.6-42.8 75.7-2.6 5.4-9.5 29.5-18.2 24.8-7.6-4.1 1.8-14.9 7-8 5.1 6.9-7.9 12.8-9.7 4.3-4.3-20.9 74.3-132.7 89.3-155.8 24.6-37.8 42.2-79.7 67.5-117.1 22.5-33.2 53.4-60.9 72.7-96.2 2.6-4.8 18.5-18.6 13.9-4z"  fill="#005bbb" /><path d="M18.2 24.3c6.2 5.2 65.6 43.6 61.2 50-1.3 1.8-4-0.3-2.6-2 1.7-1.9 4.2 1.5 1.9 2.6-2.4 1.1-16.2-15.7-19-18.1-12.9-10.9-27.3-19.6-40.7-29.7-0.6-0.4-3.3-4.4-0.8-2.8z"  fill="#fff" /><path d="M30.2-209.6c-29.4 31.2-53.2 67.1-84.9 96.1-39.9 36.6-86.2 62.5-117.1 108.4-8.2 12.1-41.4 80.6-48 83.6-9.3 4.4-10.4-13.5-0.6-10.3 8.4 2.8 0.9 15.3-5.6 9.3-6.6-6.2 11.2-30.2 14.5-36.3 46.5-88.3 74.1-101 145.8-163 28.4-24.6 62.8-81 87.6-97.6 6.6-4.4 12.4 4 8.3 9.8z"  fill="#fff" /><path d="M37.7-241.6c-38.1 30-67.7 68.3-104.5 99.6-44.2 37.7-92.3 64-125.3 113.6-8.1 12.2-63.9 115.6-74.5 106.6-6.3-5.4 2.7-14.9 8.4-8.9 4.9 5.1-2 13.3-7.9 9.3-9.2-6.2 15.6-32.4 19.6-38.5 25.9-40.1 45.6-84 78.6-119.1 31.2-33 71.8-54.4 105.3-84.7 31-28 57.4-60.6 89.8-87.2 7.6-6.3 18 1.6 10.5 9.3z"  fill="#c2e1ff" /><path d="M41.6 22.4c6.4 4.7 64.5 44.1 56.4 52.7-2 2.1-5.2-1.2-2.9-3.1 2.2-1.9 5 1.8 2.6 3.4-3 2-15.4-18.3-18.3-21.3-10.9-11.3-23.9-20.2-36.7-29.2-0.7-0.5-1.9-3-1.1-2.5z"  fill="#c2e1ff" /><path d="M51.1-59.1c12.3 27.4 108.4 109.3 94.1 134.1-2.4 4.2-8.8 0-5.9-3.9 3.3-4.5 9.5 2.5 4.5 5.2-6.8 3.8-6.6-12.8-7.1-15.4-2.9-12.9-8.6-25-16.3-35.8-17-24-42.1-40.5-60.7-63.2-2.8-3.5-16.1-32-8.6-21z"  fill="#005bbb" /><path d=""  fill="#c2e1ff" /><path d="M65.6-22.9c19.8 20.6 79.6 64.2 74.4 96.8-0.8 5.3-9.2 2.1-6.1-2.4 3-4.5 9.2 2 4.6 4.7-6.4 3.9-6.7-11.3-7.3-13.7-3-11.8-8.5-22.7-15.6-32.5-13.9-19.2-33.1-33.4-50.1-49.5-1.2-1.1-2.7-5.6 0.1-3.4z"  fill="#fff500" /><path d="M76.8-266.5c-51.5 40.2-90.9 87.9-139.7 129.7-39.4 33.6-85 56.9-116.9 98.8-10.2 13.4-52.7 91.9-60.4 94.7-8.8 3.2-10.8-12.2-1.4-11.4 10.9 1 2.3 17.9-4.9 9.7-6-6.8 13.9-30.1 17.6-36.5 53.7-91.7 71.9-98.5 152-161.7 41.6-32.9 73.1-76.3 114.1-110 8.4-6.9 23.3-23.8 34.1-25.7 7.6-1.4 10.3 7.7 5.5 12.4z"  fill="#005bbb" /><path d="M81.1-7.8c13.1 11.6 68.5 63.8 58.4 83-2.1 4.1-8.4 0.4-5.8-3.5 3-4.5 9.2 2 4.6 4.8-3.5 2.1-16.4-36.6-20.2-42.4-9.9-15-23.3-27-36.7-38.8-0.8-0.7-3.1-5-0.3-3.1z"  fill="#fff500" /><path d="M93.2-218.1c-28.4 46-42.3 106.3-12.8 155.3 18.7 31.1 49.6 52.5 67.5 84.2 3.8 6.7 23.9 52.6 11.6 56-6.1 1.7-6.6-8.8-0.4-7.7 6.2 1 2.3 10.8-2.9 7.2-11.5-7.9 4.4-22.2-14.2-56.8-28.9-54.1-85.5-81.5-86-149.8-0.2-32.5 9.9-66.6 27.3-94.2 4-6.4 12.8-0.8 9.9 5.8z"  fill="#005bbb" /><path d="M96.9 4.2c15.8 14.3 48.1 45.3 44.1 69.7-0.9 5.4-9.3 2-6.2-2.4 3.1-4.5 9.2 2.1 4.5 4.8-4.6 2.7-14-32.6-17.1-38-7.1-12.3-36.8-42.5-25.3-34.1z"  fill="#005bbb" /><path d="M97.9-396.4c-23.2 65.3-117.3 105.1-166.2 168.8-9.9 12.9-88.1 120.9-98.8 111.1-7.3-6.7 6.1-16.1 9.9-7 3.8 9.1-12.3 12.1-12 2.2 0.3-8.5 58.9-70.9 68.5-83.4 25.7-33.7 49.8-68 83.1-94.9 27.5-22.3 60.1-39 83.8-65.7 7.3-8.2 16.1-33.4 24.6-37.7 4.6-2.3 8.3 2.3 7.1 6.6z"  fill="#fff" /><path d="M106-396.3c-24.1 69.8-119.3 104.7-174.2 174.7-10.5 13.4-96 125.2-106 116.4-7.3-6.4 5.7-16.1 9.7-7.2 4 8.9-11.9 12.2-11.8 2.4 0.2-9.4 45-53.9 53.7-63.8 62.3-70.8 76.3-100.2 158-157 44.9-31.2 50.4-60.9 62.5-71.3 4.3-3.7 9.4 1 8.1 5.8z"  fill="#c2e1ff" /><path d="M122.9-156.6c10.4 71.6 76.6 119.6 83.1 193.4 0.6 7.4 3.8 37.1-4.3 40.6-6.7 2.9-9-9-1.7-8.8 8.5 0.2 2.7 13.8-3.3 7.8-4.4-4.3 1.5-20.9 1.8-26.6 0.9-16.5-1.4-33-6.1-48.9-13.2-44.9-45.5-79.5-64.6-121.6-19.8-43.7-5.5-37.8-4.9-35.9z"  fill="#c2e1ff" /><path d=""  fill="#fff500" /><path d="M140.2-303.4c-50.5 70.2-158.1 160.4-152.1 261.7 1.5 25.1 14.9 45.8 33.8 61.7 14.7 12.3 31.5 21.8 46.3 33.9 2 1.6 8.6 5.8 8.9 8.3 0.3 2.1-3.2 1.8-2.6-0.2 1-3.3 4.5 2.2 1.1 1.7-6.9-1-22.9-19.7-29.5-24.3-46.7-32.8-77.3-67.7-60.8-128.1 20.9-76.4 67.7-134.6 119.9-191.7 8.7-9.5 16.4-23.2 26.2-31.3 5.7-4.7 12 2.6 8.8 8.3z"  fill="#fff" /><path d="M148.1-280.1c-32.3 54.5-64.5 110.8-37.4 174.9 17.3 40.7 52.1 70.9 69.1 111.8 3.5 8.5 21.3 69.5 5.6 71.5-7 0.9-5.9-10.8 0.8-8.6 6.7 2.1 0.8 12.3-4.4 7.5-4.2-3.9 0.5-18.1 0.6-23.2 0.4-16.5-2.8-32.9-8.8-48.3-25.2-64.8-88.2-106-80.9-182.6 3.7-39.1 24.2-76.5 45.5-108.8 4.2-6.3 12.8-0.8 9.9 5.8z"  fill="#005bbb" /><path d="M155.9-266.8c-73.5 159.8 84.9 204.3 56.1 341.1-1.8 8.4-14.2 0.2-7.1-4.7 6-4.2 10.7 7.1 3.4 8.4-9.8 1.8-3-17.8-2.5-21.5 2.1-17.5 0.9-35.3-2.8-52.5-14.4-65.5-70.5-115.3-76.7-182.9-2.5-27.3 3-70.9 20.5-93.4 4-5.2 10.8-0.1 9.1 5.5z"  fill="#fff" /><path d="M161-121.1c14.5 30.2 32.9 58.3 44.7 89.8 6.2 16.3 23.3 103.3 8.9 109.1-5.9 2.4-9.1-7-3-8.8 6.1-1.7 8.3 8 2 9.1-10.3 1.8-2.3-21.8-1.8-26.1 2.3-22-0.4-44.2-6.3-65.5-10.5-38.1-31.8-70.3-48.8-105.4-1.4-2.8 2.6-4.6 4.3-2.2z"  fill="#005bbb" /><path d="M168.4-45.1c12 18.9 49.9 103 29.8 121.5-5.3 4.9-11.3-5.4-4.5-7.6 5.9-1.9 8.4 7.5 2.3 8.8-7.8 1.6 1-29.7-5.6-60.5-7.9-36.9-27-58.7-25.6-61.9 0.7-1.6 2.7-1.5 3.6-0.3z"  fill="#c2e1ff" /><path d="M177.7 35.4c1.6 6.4 8.9 40.9-0.8 42.5-5.8 1-6.8-8.3-1-8.6 5.9-0.3 5.9 8.9 0 8.6-7.4-0.4-3-14.9-2.8-18.9 0.2-6.8-3.5-17.7-1.7-23.9 1-3.4 5.3-2.6 6.3 0.3z"  fill="#fff" /><path d="M185.3 22.3c2.2 7.5 12.2 53.8 0.2 55.3-6 0.8-6.7-8.7-0.6-8.8 6-0.1 5.7 9.4-0.3 8.8-5.3-0.5-5.2-71.3 0.7-55.3z"  fill="#fff" /><path d="M194.7-262.1c-22.5 99.1 68.3 209.7 44.7 333.3-1.6 8.3-12.1 7.9-9.6 0.7 3.3-9.7 15.3 4.4 5.2 6.1-10.1 1.7-2.6-18.5-2.1-22.3 3.7-24.2 2.9-48.8 0.2-73-7.8-66.7-39.9-126.9-48.7-192.7-2-15.5-5.1-40.2 1.6-54.9 2.3-5.1 9-2.2 8.7 2.8z"  fill="#fff" /><path d="M202.9-373.5c-19.1 26.2-34.8 54.5-51.6 82-31.9 52.1-73.2 105-59.8 170.1 10.6 51.6 54.7 83.3 77 128.8 1.2 2.4 11.7 20.7 3.7 20.2-3.4-0.2-3.6-5.3-0.2-5.8 3.4-0.5 4.6 4.4 1.5 5.6-4.7 1.8-13.3-26.1-15.7-30.4-36.1-66-93.4-100.1-72.4-186.4 3.6-14.6 9.2-28.6 16-42 8.3-16.3 92.9-150.9 95.3-151.5 5.8-1.3 8.7 4.8 6.2 9.4z"  fill="#fff500" /><path d="M208.7-15.8c3.5 10.8 21.7 92.9 2.7 94-6.3 0.4-6.4-9.6 0-9.2 6.3 0.3 5.3 10.2-1 9.2-8.3-1.3-1.1-19.2-0.5-24.1 0.9-7.6-8.7-87.2-1.2-69.9z"  fill="#c2e1ff" /><path d=""  fill="#fff500" /><path d="M224.7-20.7c2.7 11.6 17.2 98.1-1 99.1-6.3 0.3-6.3-9.7 0-9.4 7.4 0.4 4.1 12.3-2.5 8.8-6.1-3.2 0.7-19.9 1.3-25 3.1-24.3-5.9-96.6 2.2-73.5z"  fill="#005bbb" /><path d="M224.9-394.2c-46.2 53.3-130.5 180.8-119.9 252.4 7.9 53.6 67.2 104.4 71.1 132.3 0.7 5.2-8 1.5-3.7-1.6 3.6-2.6 5.5 4.9 1 4.3-5.2-0.7-18.8-30.9-22.5-36.3-35.9-52-68.5-101.1-48.4-167 17.5-57.5 72.7-144.1 111.3-190.5 5.8-6.9 16.6-2 11.1 6.4z"  fill="#005bbb" /><path d="M241.9-263.9c-15.6 53.1 14.2 209.9 13.1 280.7-0.1 8.6 0.8 60.7-10 61.4-7.4 0.4-5.4-11.7 1.5-9 8.1 3.2-2.3 14.1-6 6.3-2-4.3 6.8-67.5 6.7-79.6-0.8-77-20.7-157.5-18.3-232.3 1-29.8 14.8-43.2 13-27.5z"  fill="#c2e1ff" /><path d=""  fill="#fff500" /><path d="M257.8-275.9c-25.9 52.6 0 220.2-1 289.3-0.1 8.9 0.8 64-10.3 64.6-7.4 0.4-5.4-11.7 1.5-8.9 6.9 2.7 0 12.9-5.1 7.5-6-6.2 6-40.6 6.1-77.5 0.3-73.6-17.7-176.4-10-243.2 4.6-39.7 23.1-46.5 18.8-31.8z"  fill="#005bbb" /><path d="M264.9 18.3c-0.5 8.5-1 59.2-11.1 59.8-6.3 0.4-6.4-9.6 0-9.2 6.3 0.3 5.3 10.2-1 9.2-5.9-0.9 1.7-54.1 4-61.4 1.6-4.8 7.9-2.9 8.1 1.6z"  fill="#005bbb" /><path d="M272.9-80.5c-2.7 21.2-8 150.6-15.9 157.4-5.6 4.8-11.4-6-4.3-7.9 7.1-2 7.8 10.2 0.6 9-7.8-1.2 2.6-45.4 3.2-52.8 3.1-35.4 2.5-71.5 7.8-106.7 0.8-5.7 8.6-4.4 8.6 1z"  fill="#c2e1ff" /><path d="M281-100.1c-7.2 34-10.4 157.2-21.2 175.6-3.7 6.3-12.7-2-6.6-6.2 7.1-4.9 10.4 9.7 1.9 8.4-6.6-1 13.1-159.8 16.4-177.3 1.2-6.5 10-8.3 9.5-0.5z"  fill="#fff500" /><path d="M288.8-15.1c-2.4 10.7-12.2 94.9-20.7 92.7-6.1-1.6-3-11 2.8-8.7 5.9 2.2 1.8 11.3-3.7 8.4-6.5-3.3 8.5-85.9 12.9-95.3 2.4-5.1 9.1-2.1 8.7 2.9z"  fill="#fff500" /><path d="M296.8-5.8c-2.7 10-13.6 85.4-21.3 83.4-6-1.6-3.1-11 2.7-8.7 5.8 2.2 1.9 11.2-3.7 8.4-7-3.6 8.8-77.8 13.4-86.5 2.7-5.2 9.5-1.7 8.9 3.4z"  fill="#fff" /><path d="M304.9-43.1c-12.8 29.7-17.1 61.9-22.5 93.5-0.9 5.2-1.4 29.7-9.9 27.4-6.1-1.6-3.1-11 2.7-8.8 5.8 2.2 1.8 11.2-3.7 8.5-10.3-5.2 16.1-114.1 24.2-125.5 3.7-5.2 10.5-0.5 9.2 4.9z"  fill="#005bbb" /><path d="M312.4 41.1c-1.5 6-4.4 39-12.6 37-6-1.4-3.2-10.8 2.6-8.7 5.8 2.1 2 11-3.5 8.4-13.7-6.7 16.2-61.1 13.5-36.7z"  fill="#fff500" /><path d="M277.6-393.3c-60 50.1-113.7 111.9-103.5 196.6 5 41.3 26.1 78.6 40.1 117.3 1.1 2.9 10.7 22.3 3 21.6-4-0.3-3.1-6.5 0.8-5.8 3.3 0.6 2.9 5.7-0.5 5.8-4.6 0.1-5.3-9.9-6.2-12.8-27.3-83.7-67.1-138.8-29-229 18.1-43 49.1-77.1 86.5-104.3 7.4-5.3 14.8 4.4 8.8 10.7z"  fill="#fff" /><path d="M328.4-101.3c-30.8 38.1-40.5 84.5-47.4 131.8-1 6.9-3.7 50-13 47.5-6.1-1.6-3-11 2.8-8.7 5 1.9 3 9.7-2.3 8.8-8.7-1.3 1.9-36.5 2.8-42.9 6.9-45.4 13.2-91 38.2-130.6 2.7-4.4 7.1-14.5 12.8-15.6 5.9-1.2 8.7 5.2 6.1 9.7z"  fill="#fff500" /><path d="M336.3-21c-10.5 15.9-33.2 97.5-33.7 97.9-5.3 4.8-11.3-5.5-4.4-7.7 8.1-2.5 6.9 12.1-0.6 8.5-14.8-7.2 21.8-93.6 28.8-104.7 4.1-6.5 12.9-0.6 9.9 6z"  fill="#fff500" /><path d="M344-151.1c-40.3 48.6-58.6 100.5-66.3 162.6-1.1 8.5-5.3 69-14.9 66.5-5.2-1.4-4-9.3 1.4-9.1 5.4 0.2 5.9 8.2 0.6 9.2-9.5 1.7-3.4-15-2.7-18.4 9.9-53.7 10.4-108.7 33.8-159.1 8.8-18.9 22.5-47.7 39.6-60.6 6.1-4.6 12.2 3.2 8.5 8.9z"  fill="#fff" /><path d="M352-17.6c-13.1 17.4-21.9 37.6-27.7 58.6-2.2 8-2.8 30.1-8.7 35.5-6.1 5.7-11.4-7.9-3-7.8 7.1 0.1 4.5 11.6-2 8.6-16.3-7.7 23.8-91.2 31.5-101.7 4.7-6.4 13.4 0.2 9.9 6.8z"  fill="#005bbb" /><path d="M359.8-14.5c-14 18.2-23.2 39.3-29.1 61.4-1.6 6-2.7 27.9-8.3 30.5-6.4 3-9-8.5-1.9-8.5 7.1 0 4.6 11.5-1.9 8.5-16.6-7.7 23.7-88.7 31.4-98.9 4.8-6.4 13.5 0.4 9.8 7z"  fill="#c2e1ff" /><path d="M367.6-211.5c-42.1 58.4-78.1 113.4-88.9 186.1-1.7 11.6-9.1 105.9-18.8 103.3-5.2-1.4-4-9.3 1.4-9.1 6.3 0.3 5.3 10.2-0.9 9.2-8.7-1.3-0.5-22.5 0.3-27.6 9.6-59.9 10.3-119.7 37.1-175.6 12.5-26.2 39.2-75.9 61-94.4 5.6-4.8 12 2.4 8.8 8.1z"  fill="#c2e1ff" /><path d="M375.5-370.1c-38.3 75-107.1 59.6-113.1 170.5-2.1 38.7 4.5 222.4-4.5 242.3-3.3 7.2-12.8-2.7-5.5-5.7 7.3-3 7.5 10.8 0.1 7.9-7.4-2.9 0.1-93.4 0.2-105.7 0.3-63.4-11.5-163.4 20.2-219 16.4-28.7 43.9-45.9 67.9-67.3 9.1-8.1 17.1-24.7 26.8-30.7 5.3-3.3 10 2.7 7.9 7.7z"  fill="#fff500" /><path d=""  fill="#c2e1ff" /><path d="M448.9-399.2c24.1 63.7 7.2 160.9-27.8 218.2-14 23-34.1 40.3-54.4 57.5-8.8 7.5-26.2 31.3-36.9 33.6-9.7 2.1-9.7-14.4 0.1-12.2 8.3 1.9 4.7 14.8-3.4 12-14.1-4.8 11.5-25.8 15.5-29.6 33.7-32.3 69.5-56.3 86.6-101.9 15.4-41.2 24.6-90 22.4-134.1-0.7-14.6-6.4-28.3-7.6-42.4-0.3-3.4 4.1-3.9 5.5-1.1z"  fill="#fff500" /><path d="M398.7-43.2c-24.3 22.6-44.5 47.6-55.1 79.4-2.1 6.2-7.8 45.5-15.6 41-5.2-3 0-10.9 4.8-7.3 4.8 3.6-1.2 10.8-5.6 6.7-15.2-14 39.5-116.7 63.6-130.4 7.1-4 12.5 5.1 7.9 10.6z"  fill="#fff500" /><path d="M468.9-399.1c22.5 50.8 15.9 109 18.5 163.1 2.9 61.1 12.4 123.4 4.1 184.4-1.1 8-13 1.4-7-3.7 6-5.2 10.5 7.9 2.5 7.5-8.2-0.4-1.3-36.3-1-42.6 1.7-39.2-1.6-78.5-4.4-117.6-3.7-53 1.6-108.8-9.2-161-2-9.6-7.1-19.3-8.5-28.8-0.4-3.2 3.6-3.8 5-1.3z"  fill="#c2e1ff" /><path d=""  fill="#fff" /><path d="M421.5 51.9c-0.1 4.4 4.7 24-1.1 24.7-4.4 0.6-4.9-6.3-0.5-6.4 4.4-0.1 4.2 6.8-0.2 6.5-13.9-1.1-1.2-44.6 1.8-24.8z"  fill="#c2e1ff" /><path d="M447.3-399.3c24.8 66.9 3.9 169.5-38.4 225.9-23.8 31.6-58.7 52.4-82.9 83.7-5.7 7.4-30 58.5-34.9 56.6-7.4-2.9-0.1-13.8 5.4-8.1 5.5 5.7-5.7 12.5-8.3 5.1-1.9-5.5 4.1-15.6 6.1-20.6 26.4-65.9 95.5-94.3 125.3-156.7 21.6-45.3 34.2-105.4 28.4-155.5-1-8.4-7.5-22.1-6.2-29.9 0.5-3.1 4.3-2.8 5.5-0.5z"  fill="#fff500" /><path d="M438-254.5c-29.6 99.6-110.5 121.8-141 208.7-6.3 18-19.8 118.2-25.1 122.9-5.5 4.8-11.4-5.8-4.3-7.9 8.2-2.4 6.8 12.5-0.8 8.5-6.8-3.5 2.7-32.6 3.7-39.2 7.5-48.8 13.8-97.9 42-139.9 22.9-34.1 57.4-57.1 82.5-89.2 12-15.4 29.1-63.1 34.9-68.9 3.9-3.8 9.1 0.3 8.1 5z"  fill="#c2e1ff" /><path d="M446.1-17.7c-9.9 20.5-18.2 42.1-18.8 65.1-0.1 4.6 5.3 29.9-1.2 29-3.6-0.5-3.4-5.9 0.2-6.2 4.2-0.3 4.3 6.4 0.1 6.2-18.7-0.7-0.3-91.8 11.5-100.7 4.8-3.6 9.8 1.7 8.2 6.6z"  fill="#005bbb" /><path d="M509.4-399.5c23.7 76.5 12.4 157.7 44.5 232.9 9.5 22.3 43.8 69.9 47 88.5 0.7 4.1-6.4 2.6-4.1-0.9 2.3-3.5 6.4 2.5 2.4 3.4-4.4 1-15.5-24.6-17.8-28.6-58.8-103-54.1-146.9-70.5-258.2-1.7-11.7-6.9-24.6-7.4-36.2-0.1-3.6 4.6-3.9 5.9-0.9z"  fill="#c2e1ff" /><path d="M461.2-281.5c-5.8 48-12.8 99.9-46.2 137.4-33.9 38.1-80.7 58.4-103.8 106.4-8.9 18.4-24.5 110.1-29.9 114.7-5.5 4.8-11.3-5.8-4.3-7.8 8.2-2.4 6.9 12.4-0.8 8.5-6.9-3.5 2.5-30.8 3.7-37.3 8.4-46.9 18.8-93 51.7-129.4 26.2-29 63.2-46.7 86.4-78.6 31.7-43.7 19.6-76.6 34.8-116 1.9-5 8.4-2.6 8.4 2.1z"  fill="#c2e1ff" /><path d="M487.6-399.6c32.5 76.3 13.8 166.2 51.6 252 5.2 11.8 65 119.1 60.3 120.9-3.2 1.2-4.9-4-1.6-4.8 3.9-1 4.1 5.7 0.2 4.9-4.4-0.8-8.6-16.4-10.4-20.2-22.5-47-52.9-89.2-68.8-139.3-17.1-53.6-16.5-108.5-24.5-163.6-0.3-2.2-15.7-66.7-6.8-49.9z"  fill="#005bbb" /><path d="M476.9-8.4c-3.2 20.5-3.5 41.4 2.9 61.3 1 3.1 11.6 21.8 6.8 22.4-3.4 0.5-2.9-5.2 0.3-4.2 3.3 1 0.5 6-2 3.7-16.9-15.1-24.4-65-16.4-85.4 2-5 8.5-2.6 8.4 2.2z"  fill="#c2e1ff" /><path d="M484.8-68.2c-5.8 34.2-19.7 68.7-15.8 103.9 1.1 10.2 12.8 29.6 11.5 38.2-0.6 4.1-6.8 0.4-3.6-2.1 3.3-2.5 5.3 4.4 1.2 4-6-0.6-11.9-23.3-13.4-28.3-9.5-33.5-2.8-86.6 11.6-118.4 2.3-5 8.9-2.2 8.5 2.7z"  fill="#c2e1ff" /><path d="M491.9-250.2c5.2 86.9 22.5 176.6 46.3 260.3 2.7 9.3 25.2 60.3 24.6 63.5-0.7 3.6-6.3 1.3-4.2-1.7 2.5-3.5 6.6 2.8 2.3 3.6-11.2 2.2-32.2-76.8-34.6-86.7-18.5-75.2-34.8-152.3-41.1-229.6-0.3-4.2 4.6-20.7 6.7-9.4z"  fill="#c2e1ff" /><path d="M499.5-221.5c10.4 81.2 43 153.7 68.8 230.5 2.4 7.2 24.9 65.4 21.2 66.7-4 1.3-4.7-5.6-0.6-5.1 4.2 0.4 2 7-1.6 4.8-5.8-3.5-25.1-66.8-28.7-77.4-23.4-70-53.3-136.1-64.6-209.6-0.6-3.8 2.8-20.5 5.5-9.9z"  fill="#c2e1ff" /><path d="M507.4-248.5c8.4 68.4 36.1 123.9 67.9 183.9 3.3 6.2 30.3 58.1 24.1 60.1-4.1 1.3-4.7-5.7-0.5-5.3 4.2 0.5 1.9 7.2-1.7 5-8.8-5.4-16.8-39.2-21.8-49.3-23.8-48.1-51.9-92-65.4-144.6-3.7-14.4-11.2-34.8-9.5-49.7 0.5-4.2 6-3.7 6.9-0.1z"  fill="#fff" /><path d="M514.8-111.7c11.4 47.3 23.5 95.6 39.7 141.5 1.9 5.5 19.7 44.6 16.2 45.9-3.6 1.5-4.7-4.9-0.7-4.7 3.9 0.2 2.2 6.4-1.3 4.6-7.9-4.1-15.1-32.4-18.2-40.8-17.6-46.4-31-96.6-41.8-145.1-0.9-4 4.6-5.1 6.1-1.4z"  fill="#fff500" /><path d="M522.4-185.9c9.5 32.5 80 162.9 78.8 167.6-1.1 4-7.2 0.9-4.5-2.3 2.6-3.2 6.9 2.2 3.1 4-3.2 1.5-73.7-140.4-79.1-155.8-0.9-2.7-2.7-23.3 1.7-13.5z"  fill="#fff" /><path d="M530.2-188.9c12.6 39.9 34.3 74.7 54.7 110.8 2.2 3.8 19.6 30.9 14.7 33-3 1.3-4.7-3.5-1.7-4.5 2.7-0.8 4.3 3 1.9 4.4-4.1 2.3-16.8-27.3-19.1-31.3-11.1-19.9-59.3-92.3-56.1-112 0.5-3.1 4.3-2.9 5.6-0.4z"  fill="#c2e1ff" /><path d="M540.3-398.8c2.8 73.9 0.6 150.9 26.5 221.3 3.7 10.2 34.6 70.2 34 73.7-0.7 4.2-7 0.4-3.6-2.2 2.9-2.2 5.4 3.3 1.9 4.1-5.2 1.1-21.1-37.1-23.8-42.6-37.1-77-38.9-157.9-42.1-241.6-0.1-3.8-1.8-10.5-0.1-14.1 1.8-3.8 6.6-2.1 7.2 1.4z"  fill="#005bbb" /><path d="M546.9-305.2c2.4 53.9 10.8 105.6 33.1 155.1 4.1 9.1 22.6 34.3 21 43.5-0.7 4.2-7.1 0.3-3.7-2.2 2.9-2.2 5.4 3.3 1.9 4.1-4.9 1-15.7-26.8-17.9-31.2-25.1-50.9-38-103.4-41.4-160-0.3-4.3 5-20.8 7-9.3z"  fill="#fff" /><path d="M554.9-315.1c0.3 53.6 6.3 106.3 26.5 156.4 3.7 9.1 21.1 34.6 19.4 43.5-0.7 3.7-6.4 1.2-4.2-1.8 2.6-3.6 6.7 2.9 2.4 3.7-4.9 0.9-14.9-26.5-16.9-31-23.5-51.6-33.4-105.2-34.8-161.7-0.1-4.5 6-20.8 7.6-9.1z"  fill="#fff500" /><path d=""  fill="#005bbb" /><path d="M569 58c1.3 3.1 8.8 14.3 5.6 17.1-3 2.5-6-3.3-2.3-4.3 3.2-0.9 4.4 4.3 1.1 4.8-9.9 1.6-9.2-25.8-4.4-17.6z"  fill="#fff500" /><path d="M579.2-381.8c-17.4 59.4-15.5 131.9 0 191.4 2 7.6 21.3 63.8 19.6 63.9-2.9 0.1-3.5-4.2-0.8-4.9 3.3-0.9 4.4 4.4 1 4.9-5.2 0.8-12.1-23.3-13.7-27.5-25.1-63.5-30.1-133.7-21-201 4.2-30.8 16.9-41.9 14.9-26.8z"  fill="#005bbb" /><path d="M584.2-101.1c2.2 3.8 19.7 29.9 15.3 32-2.8 1.3-4.6-3.2-1.7-4.2 2.9-1 4.2 3.7 1.2 4.3-3.8 0.9-6.3-8.3-7.5-10.4-3.4-6.2-9.3-13.3-11.2-20-0.7-2.5 2.5-3.5 3.9-1.7z"  fill="#fff" /><path d="M592.3-130.1c1.4 2.9 11.8 18.1 7.3 20.2-2.9 1.3-4.7-3.4-1.7-4.4 3-1 4.3 3.9 1.2 4.5-9.3 1.9-11.8-27.9-6.8-20.3z"  fill="#fff" /><path d="M600.7-110.9c1.9 5.9-7.7 2.3-3.4-0.8 4.1-3 5 6.2 0.3 4-3.5-1.7-2.3-7.6 1.9-5.6z"  fill="#005bbb" /><path d=""  fill="#fff500" /><path d=""  fill="#005bbb" /><path d=""  fill="#005bbb" /><path d=""  fill="#005bbb" /><path d=""  fill="#fff500" /><path d=""  fill="#fff500" /><path d=""  fill="#005bbb" /><path d=""  fill="#fff" /><path d=""  fill="#fff500" /><path d=""  fill="#c2e1ff" /><path d=""  fill="#005bbb" /><path d=""  fill="#c2e1ff" /></svg>