<svg width="1200" height="675" viewBox="-500 -500 1200 675" xmlns="http://www.w3.org/2000/svg"><path d="M-500-500h1200v675h-1200z" fill="#000"/><path d=""  fill="#fff500" /><path d=""  fill="#fff" /><path d=""  fill="#005bbb" /><path d=""  fill="#fff500" /><path d=""  fill="#fff" /><path d=""  fill="#fff" /><path d=""  fill="#005bbb" /><path d=""  fill="#fff" /><path d=""  fill="#fff500" /><path d=""  fill="#fff" /><path d=""  fill="#fff" /><path d="M-372.2-29.2c-7.4 4.7-32.1 25.7-36.1 6.4-2.4-11.7 14.5-17.2 19.4-6.3 4.1 9.3-6.9 18.4-15.2 12.6-16.1-11.2 14.6-28.5 23-31.3 12-4 17.5 11.5 8.9 18.6z"  fill="#fff" /><path d="M-364-269.6c50.7 93.7 170 150.3 30.7 253.7-7.8 5.8-65.1 49.4-66.7 49.1-16.7-2.4-2-27.8 8.4-14.6 10.4 13.2-17.6 21.6-16.1 4.8 2.3-26 112.2-74.3 124.6-131.2 13.6-62.4-52.8-105.9-82.2-152.2-1.9-3-4.5-17.1 1.3-9.6z"  fill="#fff500" /><path d="M-376-397.4c-7.3 39.3-1.8 79.7 17.4 115 35.3 64.9 129 102.3 122.7 185.9-0.5 6.9-0.6 22.7-6.9 27.2-7.8 5.6-15.9-7.2-7.5-11.8 8.3-4.7 15 8.8 6.2 12.6-17.4 7.4 4.2-49.3-10.5-83-26.7-61.4-96.5-90.4-122.7-154.2-10.2-25-21.5-68.4-10.7-95 2.9-7.1 12.2-3.5 12 3.3z"  fill="#fff500" /><path d=""  fill="#fff" /><path d="M-326.6-85.7c-8.4 12.7-62.6 68.1-78.7 53.3-10.4-9.6 5.6-25.1 14.9-14.5 9.3 10.6-8.3 24.4-16.4 12.8-10-14.4 23.3-27.2 31.7-32.8 12.7-8.4 25.2-26.1 38.3-32 8.7-3.9 14.6 6.2 10.2 13.2z"  fill="#fff" /><path d="M-319-332.5c22.7 58 82.7 83 118.2 130.8 45.6 61.5 15 137.1 1.2 203.9-2.2 10.5-5.1 71.3-14.4 73.2-10.7 2.2-7.3-16.6 2-10.7 9.3 5.8-6.1 17.1-8.9 6.4-12-46.2 42.7-162.4 31.7-227.8-11.1-66.1-78.1-94.2-116.6-142-6.7-8.3-17.9-20.9-19.9-31.6-0.8-4.3 4.7-5.5 6.7-2.2z"  fill="#c2e1ff" /><path d="M-304.7-2.1c-18.5 17.5-38.7 33.6-53.9 54.2-4.2 5.7-15.4 36.6-26 26.4-7.2-6.9 4.3-17.7 10.7-10 6.4 7.7-6.2 17.1-11.7 8.8-12.8-19.2 54.2-90.6 72-95.4 10.1-2.7 14.8 9.2 8.9 16z"  fill="#fff500" /><path d="M-315.6-398.1c-3 30.4 4.8 60.7 21.3 86.4 50.6 78.8 135.7 95.5 120.7 209.1-1.1 8.4-1.7 36.7-10.5 40.1-11.4 4.5-11.4-16.9 0.1-12.2 11.4 4.6-3.3 20.1-8.5 8.9-2-4.3 13.5-82.2 4.3-111.7-19.7-63.4-90.1-91.5-121.3-148.1-10.4-18.9-24-52.4-17.5-74.4 2-6.8 10.9-4.4 11.4 1.9z"  fill="#fff" /><path d="M-288-252c32.2 27 71.3 49.7 88.7 89.9 24.7 57.3-3 122.3-18.6 178.3-2.7 9.8-9.1 62.4-19 63.5-11.6 1.3-6.3-18.3 3.1-11.3 8 6-4.6 16.8-9.3 8-9.8-18.2 43.9-165.1 42-205.1-2.4-52.8-40.4-83.6-78.9-113.6-0.6-0.5-13.1-12.9-8-9.7z"  fill="#fff" /><path d="M-276.8-264.1c32.7 28.9 72.8 53.4 89.1 96 22.1 57.7-5 121.8-17.1 178.8-2.2 10.1-5.1 66.7-14.6 68.4-9.3 1.7-8.8-14 0.4-11.6 10.7 2.7-0.6 18.3-6.5 9-13.1-20.7 36.9-174.9 34.5-215.7-3-52.4-40.4-83.8-78.2-114.8-0.6-0.5-12.9-13.6-7.6-10.1z"  fill="#fff500" /><path d="M-265-296.4c30.2 37.8 74.1 66.3 91 113.5 21.8 61.1-8.1 127.4-17.6 188.1-1.6 10.4-0.9 71.4-9.5 73.6-10.1 2.7-7.9-15.3 1.2-10.3 10.8 5.9-8.4 17.2-8.3 4.8 0.7-78.1 34.7-176.2 30.1-231.9-4.9-58.3-52.1-92.2-88.2-132.7-2.1-2.4-2.6-8.8 1.3-5.1z"  fill="#005bbb" /><path d="M-252.4-332.5c22.5 52.2 73.8 87.6 89.7 143 19.1 66.3-16.1 136-22.9 201.7-1 9.3 1.9 67-7.2 66.8-7.4-0.2-6.4-11.8 0.9-10.8 6.2 0.8 6 10.2-0.3 10.8-11.1 0.9-6.5-33.4-6.5-39.8 0.5-70.6 34.7-139.1 29.9-209.2-4.4-62.9-58-100.9-86.3-152.8-2.2-4-2.8-18.2 2.7-9.7z"  fill="#fff" /><path d="M-243.5-248.1c97 83 65.2 145.9 44.4 254.9-2.3 11.8-2.2 66-11.1 71.4-6.8 4.1-12.6-7-5.4-10.3 8.4-3.9 11.7 11.1 2.4 11.1-16.2 0 27.5-194.5 27.4-216.3-0.3-31.7-12.2-59.8-33.3-83.3-8.7-9.7-31-32-24.4-27.5z"  fill="#fff500" /><path d=""  fill="#fff500" /><path d="M-220.8-215.3c65.7 64.1 32.7 147.2 15.8 224.4-2.3 10.6-7.7 64-11.8 68.5-6.4 7-15.5-5.9-6.7-9.5 8.7-3.7 11.6 11.8 2.1 11.5-16.4-0.6 27.3-172.1 29.2-191.7 2.3-22.7 0.6-45.9-8.8-67.1-5.3-11.8-27-42.1-19.8-36.1z"  fill="#fff" /><path d="M-206.8-139.9c15.5 52.5-9.6 108.7-28.7 156.7-3.8 9.5-18.5 66.2-29 63-10.2-3.2-1.4-18.6 6.5-11.4 7.9 7.2-6.5 17.4-10.7 7.6-5.2-12.3 31.7-94.6 38-112.1 7.8-21.6 14.6-43.9 16.7-66.9 1-11.1-4.2-27.2-1.4-37.2 1.3-4.7 7.2-3.8 8.6 0.3z"  fill="#005bbb" /><path d="M-196.3-163.3c23 53.5-1 114.9-15.2 167.5-2.8 10.4-12.9 77.4-22.7 75.5-9.7-1.9-3.2-16.9 4.9-11.1 8 5.8-4.2 16.6-9.1 8-7.4-13.1 24.5-114.2 29.7-134.4 5.7-22.2 10.7-45.1 10.4-68.1-0.1-11.2-7.1-26.4-5.5-36.7 0.7-4.2 5.9-4 7.5-0.7z"  fill="#fff" /><path d="M-184.5-347.1c9.5 49.8 45.8 90.1 53.1 140.4 9.7 65.8-29.4 130.5-37.4 194.9-1.4 11.3 2.3 90-3.2 90.3-6.8 0.4-6.8-10.4 0-10 8 0.4 4.5 13.2-2.6 9.5-6.9-3.6-5.3-27.2-5.9-34.1-7.9-87.3 31.2-146.7 38.8-227.5 5.1-54.2-29.4-96.1-46.5-144.7-1.9-5.4-3.7-11-5.1-16.6-1.4-5.8 6.8-7.4 8.8-2.2z"  fill="#fff" /><path d="M-193.9-397.8c-12.6 68.9 36.8 117.3 53.9 179.3 13.7 49.4-5.1 98.7-18 146.1-2.3 8.5-6.1 46.9-15.7 47.9-11.8 1.1-6-18.7 3.3-11.4 9.4 7.3-8.4 17.7-10.2 6-4.6-30.6 32.6-113.6 34.3-155.4 2.4-60.3-43.1-106-56.6-162.5-3.5-14.7-8.7-38.3-3-53 2.7-7.1 12-3.8 12 3z"  fill="#c2e1ff" /><path d="M-163.7-249.5c12.9 23.9 21.5 49.4 21.5 76.9 0.1 60-28.3 116.7-33.7 176.3-0.9 9.9 3.8 74.4-4.1 74.6-8.2 0.2-5.6-13.2 1.9-9.9 7.5 3.3-0.4 14.3-5.9 8.2-3.8-4.3-2.3-15.2-2.7-20.4-5.4-71.2 16.5-132.5 29.5-201.2 4-21 5.6-42.5 1.2-63.5-2.8-13.6-10.9-25.6-13.9-38.8-0.9-3.9 4.2-5.2 6.2-2.2z"  fill="#c2e1ff" /><path d="M-149.9-398.3c-4.2 68.8 50.4 116.8 55.1 182.1 4.6 63.6-46.8 122.6-58.2 184.4-1.8 9.7-1.4 71.9-6.8 72.3-6.7 0.5-6.9-10.1-0.2-9.8 7.8 0.3 4.6 12.9-2.4 9.3-6.3-3.2-4.7-20.6-5-26.2-6.4-100.3 48.5-140 60.5-217 8.4-54.1-34-99.5-47.9-149.1-13-46.4 2.9-64.2 4.9-46z"  fill="#fff" /><path d=""  fill="#fff500" /><path d=""  fill="#c2e1ff" /><path d=""  fill="#005bbb" /><path d="M-106.3 8.2c0.9 9 20.5 67.4 16.4 68.7-5 1.6-7-6.4-1.9-7.4 5.1-1 6.3 7.1 1.1 7.6-8.9 0.8-26-59.8-25.3-68.5 0.5-5.9 8.2-5.5 9.7-0.4z"  fill="#c2e1ff" /><path d="M-97.5-303.5c20.5 34.5 45.2 70 34.9 112.2-13.6 55.7-63.8 95-76.7 155.1-6.2 29-4.3 58 2.2 86.7 0.9 3.8 11.1 29.1 0.5 27.6-5.1-0.7-4.8-8.4 0.3-8.9 5.1-0.4 6.5 7.2 1.6 8.7-9 2.7-11.6-27.8-12.9-33.3-8.9-38.6-9-77.1 3.5-115 15.6-47.4 56.3-83.1 69.8-130.2 12.6-44-30.9-89.5-28.6-101.9 0.5-2.9 3.9-3 5.4-1z"  fill="#005bbb" /><path d="M-83.7-224.3c9 59.9-56 133.4-66.2 198.6-4.1 26.1-2.4 52.2 2.5 78.1 0.8 4.1 9.6 27.8-1.2 25.8-6.2-1.1-3.9-10.8 2.1-9 7 2.1 1.1 12.7-4.4 7.9-7.3-6.4-7.9-33.7-9.3-43.1-12-75.2 18.4-135.5 50.9-200.7 11-22.1 10.4-47.6 15.7-59.4 2.3-5.2 9-3 9.9 1.8z"  fill="#005bbb" /><path d="M-72.3-219c5 56.1-62.3 125.8-73.2 190.9-4.6 27.7-2.3 55.2 3.5 82.5 0.8 3.6 9.4 25.4-1 23.7-6.1-1-4-10.5 1.9-8.8 6.9 1.9 1.3 12.5-4.1 7.8-6.9-5.9-8-31.3-9.7-40.1-14.7-77.9 17.1-138.2 54.2-203.8 10.5-18.6 11.5-42.4 18.1-54.8 2.8-5.3 9.7-2.6 10.3 2.6z"  fill="#fff" /><path d=""  fill="#005bbb" /><path d="M-49.2-27c-10.2 41.5 25.5 91.4 23.6 101.3-1 5.2-9.1 1.8-6-2.6 3.6-5.1 9.5 4.1 3.3 5.3-6.4 1.2-14.4-23-16.6-27.7-12-24.4-20.8-50.7-17-78.3 1.2-8.4 13-6 12.7 2z"  fill="#c2e1ff" /><path d=""  fill="#005bbb" /><path d="M-27.6-399.3c11.8 73.2 84.8 128.6 78.1 205.4-5.9 68-74.9 93.8-99.7 151.2-4 9.2-3.5 40.7-9.6 45.7-6.3 5.1-12.3-6.9-4.4-8.9 7.9-2 8.3 11.5 0.2 9.9-7.9-1.5-5.2-19.3-4.9-24.3 3.9-78.7 97.3-105.6 106.9-180.2 7.6-59.1-39.7-107.4-62.4-157.7-5-11.2-13.9-27.8-13.4-40.3 0.2-5.7 7.5-5.6 9.2-0.8z"  fill="#fff500" /><path d="M-15.5-87.8c-26.8 27.5-46.1 60.9-38.7 100.5 2.2 11.7 25.1 57.1 24.3 61.6-1.2 6.2-10.4 0.3-5.3-3.4 5.1-3.7 7.7 7 1.5 6.1-5.8-0.8-11.6-19.8-14-24.6-20.8-41.9-27.3-85.5-1.2-126.9 4.9-7.7 15.4-27.5 25.8-28.6 8.9-0.9 12.2 9 7.6 15.3z"  fill="#c2e1ff" /><path d="M-4.1-52.7c-15 26.8-16 56.4-5.6 84.9 2.1 5.7 23.1 44.2 15.9 44.8-4.6 0.4-4.8-6.9-0.2-6.7 5.4 0.2 3.2 8.8-1.6 6.4-4.9-2.4-8.4-15.3-10.8-20.1-18.5-36.8-30.5-76.4-11.7-115.9 4.4-9.3 17.1-2.6 14 6.6z"  fill="#fff" /><path d="M6.5-191.1c-11.8 66.4-92.7 92-108.9 158.4-6.2 25.6-2.6 51.6 5.8 76.2 1.2 3.5 17.5 37.8 6.1 33.8-5.7-2-0.4-10.6 3.9-6.4 3.7 3.6-2.3 9.2-5.6 5.2-23.1-28.1-28.9-100.8-17-134.1 16.1-45 54.5-69.4 83.9-104.4 7.4-8.8 13-30.7 21.7-36.3 5.6-3.6 11 1.9 10.1 7.6z"  fill="#c2e1ff" /><path d="M15-398c-7 73.1 54.9 130.5 51.3 203-3.4 70.5-71.1 99.9-91.3 161.5-2.3 7.1-1.2 39.5-6.9 42-6.1 2.6-9.7-7.2-3.3-9.1 7.4-2.3 8.4 10.5 0.8 9.4-7.4-1-5.9-17.8-6.1-22.3-1.1-74 79.2-106.5 93.5-174.3 12.8-61-30.4-112.7-44.6-169.1-11.1-44 4.9-60.8 6.6-41.1z"  fill="#fff" /><path d="M15.2-397.9c-6.8 69.9 49.4 124.8 51.3 193.2 2 70.5-57.4 101.1-85.6 157.4-2.5 5-6.5 26.8-16.7 19.4-6.3-4.6-0.5-14.7 6.7-11.5 7.1 3.1 3.6 14.2-4.1 12.7-10.9-2.2-1.9-20.8 0.1-26 20.4-52.2 77.2-81.6 86.9-139.3 10-59.5-31.5-109.6-45.2-164.8-11-44.1 5-60.7 6.6-41.1z"  fill="#fff" /><path d=""  fill="#005bbb" /><path d=""  fill="#fff500" /><path d="M62.5-137.3c-21.2 44.6-69.1 77.9-69.5 131-0.2 23.4 9 45.1 19.1 65.7 0.6 1.2 11.9 19.9 2.2 17.4-4.5-1.2-2.3-8.2 2.1-6.5 4.3 1.7 1.4 8.4-2.8 6.2-16.8-8.6-38.5-89.3-25.6-126.2 5.4-15.5 51.2-89.7 63.2-97.8 7.2-4.9 14 3.2 11.3 10.2z"  fill="#fff500" /><path d=""  fill="#fff" /><path d="M82.5-235.8c22.9 114.4-56 136.7-64.6 220.2-2.5 24 23.5 86 22.5 89.8-1.6 6.5-11.1-0.3-5.4-3.9 5.7-3.6 7.9 7.9 1.2 6.6-7.1-1.4-14.5-29.3-17-35.6-36.9-91.2 23-122.7 48.5-199.9 8.9-26.9 3.2-49.9 5.4-76.8 0.5-5.8 8-5.3 9.4-0.4z"  fill="#fff500" /><path d="M95.3-90.7c-9.9 47.4-9.9 89.4 1.5 136.5 1.4 5.6 11 28.2 4.1 31.9-5.5 2.9-9.5-6-3.8-8.3 6.7-2.6 8.6 9.2 1.4 8.8-8.4-0.5-13.2-42-14.9-49.4-8.2-35.5-16.9-88.9-0.6-123.6 3.4-7.2 12.8-3 12.3 4.1z"  fill="#005bbb" /><path d=""  fill="#fff500" /><path d=""  fill="#c2e1ff" /><path d="M77.6-395.2c-34.4 59.5 2.5 119.2 8.6 180.5 5.1 51.8-15.4 93.5-41.7 136.4-4.5 7.3-13.8 35.3-23.6 34.2-11.6-1.3-5.4-19.6 4.6-13.5 11.7 7.1-7.3 21.4-10.9 8.2-3.4-12.5 49.8-93.5 56.1-116.8 17.4-64.8-21.1-121.3-19.4-185 0.4-15.5 2.8-40.2 13.3-52.5 6.2-7.3 15.9 0.6 13 8.5z"  fill="#fff500" /><path d="M137.9-112c14.8 87.4 99.7 118.3 113.2 184.6 1.5 7.3-10.8 7.1-9.1-0.1 2-8.4 14.4 0.2 7.1 5-6.4 4.2-19.9-38.3-24.3-44.8-26.1-38.3-65.2-64.7-84.6-107.9-3.8-8.5-14-27.6-11.3-37.1 1.4-4.9 7.5-3.9 9 0.3z"  fill="#005bbb" /><path d="M149.3-169.7c5.1 42.4 18.1 80.6 48.9 111.3 28.1 28 120.4 87.2 114.7 132.3-0.9 7.3-12.5 3.2-8.5-3 3.9-6.3 12.7 2.3 6.5 6.3-8.4 5.5-9.4-14.2-10.4-17.3-4.4-14.8-12-28.4-21.3-40.7-32.9-42.9-85.8-65.6-114.7-112.1-12.1-19.5-27.4-52.9-24.9-76.6 0.6-6 8.4-5.3 9.7-0.2z"  fill="#fff" /><path d="M158.2-71.6c19.7 37.6 119.3 108.2 115 145.4-0.8 7.3-12.3 3.3-8.5-3 3.8-6.3 12.6 2.2 6.5 6.3-8.1 5.4-8.2-23.8-29-50.3-21.5-27.3-51.1-46.9-73.5-73.5-5.2-6.1-13.7-14.6-16.1-22.4-1.1-3.6 3.5-5.1 5.6-2.5z"  fill="#c2e1ff" /><path d="M169.6-107.5c31.8 68.8 116.5 92.5 144.1 164.8 1.7 4.5 6.6 13.5 4.3 18.1-2.8 5.7-11.5 0.9-8.1-4.5 3.9-6.3 12.7 2.3 6.5 6.4-8.9 5.8-10.6-18.7-11.9-22.4-5.5-16.1-14.5-30.8-25.3-43.9-27.3-33.1-65.7-54-94.2-85.8-8.1-9.1-15.3-19-21.2-29.7-2.1-3.8 3.5-6.5 5.8-3z"  fill="#fff500" /><path d="M182-397.4c-6.2 31.8-17.2 62.4-22.9 94.3-10.8 60.4-9.7 141.1 19.9 196.3 20.4 38.1 57 61.7 88.2 90.1 2.6 2.3 12.9 9.3 12.1 12.9-0.6 3-5.3 0.9-3.4-1.6 2.2-2.9 5.4 2.5 1.9 3.1-5.4 0.9-31.5-28.8-37-33.4-74.4-62.4-94.6-109.2-97.4-206.4-1.2-42.9 7.5-121 26.3-159.5 3.5-7.2 12.9-2.8 12.3 4.2z"  fill="#c2e1ff" /><path d="M192.6-144.3c24.5 80.1 111.3 119 140.2 197.6 1.9 5.1 7.9 16.8 5.3 22-3.2 6.6-12.8-0.9-7.1-5.6 4.9-4 10.8 4 5.5 7.5-8.9 5.8-10.5-18.4-11.6-22-5.4-17.8-14.1-34.5-24.4-49.8-27.6-40.7-68.6-69.8-96.2-110.4-31.9-46.9-14-44-11.7-39.3z"  fill="#c2e1ff" /><path d="M215.8-399.2c6.4 40.4 13.5 81.1 10.7 122.2-3.3 48.2-17.4 95.5-2.4 143.2 12.4 39.4 48.2 68.9 56 90.2 1.5 4.1-6.1 3.9-4.4-0.1 2-4.7 7.4 2.9 2.4 3.2-6.4 0.5-23.5-27.8-27.6-33-71.1-93.5-30.3-145-34.8-246.1-1.1-25.3-11.7-54.4-9.5-79.3 0.5-5.9 8.1-5.4 9.6-0.3z"  fill="#fff" /><path d=""  fill="#005bbb" /><path d="M227.8-300.9c1.4 73.6-26.6 139.3 15.6 207.5 22.4 36.2 107.2 126.1 102.2 167.2-0.9 7.3-12.4 3.2-8.6-3 4.5-7.3 13.4 4.7 5.1 6.9-5.6 1.5-21.8-52.7-25.9-60.5-31.8-59.9-91.9-104-106.2-172.8-6.7-32-1.4-114.8 6.8-146.8 1.7-6.6 10.3-4.6 11 1.5z"  fill="#c2e1ff" /><path d=""  fill="#005bbb" /><path d="M251-204.4c-22.2 78.7 20.9 130.9 61.1 193.7 12.9 20.1 40.6 59.3 37.6 84.5-0.9 7.3-12.3 3.3-8.5-2.9 4.5-7.3 13.4 4.7 5.1 6.8-3.9 1-27.3-65-32.3-73.8-30.1-53.4-79-100.2-81.4-165.1-0.5-13.9-0.9-35.3 5.9-48 3.9-7.3 13.4-2.5 12.5 4.8z"  fill="#fff500" /><path d="M260.7-136.5c1.6 64.4 55.7 115.1 79.6 172 2.6 6.3 18.1 37.8 9.7 42.1-6.5 3.4-9.6-8.4-2.3-8.7 7.3-0.3 5.2 11.6-1.5 8.8-6.9-2.9-11.7-36.6-14.8-44.4-18.9-47.1-53.9-85.7-72-133-3.9-10.2-10.6-26-9-37.1 0.9-6.3 9.1-5.2 10.3 0.3z"  fill="#005bbb" /><path d="M268.6-61.5c9.9 13 98.7 126.9 75.4 138.9-6.5 3.3-9.6-8.4-2.3-8.7 7.3-0.3 5.2 11.7-1.6 8.9-7.2-3-14.3-42.8-18.4-51.5-8.5-17.9-55.9-77.1-57.4-85.7-0.5-2.7 2.7-3.6 4.3-1.9z"  fill="#fff500" /><path d="M280.2-62.5c8.6 14 88.8 129.4 68.2 140-6.5 3.4-9.6-8.4-2.3-8.7 7.3-0.3 5.2 11.6-1.6 8.9-7-2.9-13.6-41.5-17.2-49.9-13.7-31.3-34-58.4-51.9-87.3-2-3.2 2.6-5.9 4.8-3z"  fill="#fff" /><path d="M295.8-239.7c-25.6 57.3-48.7 101.6-18.4 163 6.8 13.8 89.5 151.7 71.2 154.6-6.2 1-7.1-8.9-0.9-9.2 7.3-0.3 5.2 11.6-1.5 8.9-7.6-3.1-17.5-51.2-22.1-60.9-26.9-56.1-78.2-107.2-74-173.6 1.8-28.3 14.7-68.6 32.9-90.9 5.9-7.2 15.4 0.2 12.8 8.1z"  fill="#c2e1ff" /><path d="M306.1-291.2c-5.6 74.6-69.1 117.4-36.8 198.6 19.9 50 57.8 90.5 76 141.5 1.7 4.7 12.8 27.6 3.1 29.1-6.2 0.9-7.1-8.9-0.9-9.1 7.3-0.3 5.2 11.6-1.5 8.8-7.6-3.1-17.2-50.6-21.9-60.2-27.5-57.6-80.8-109.6-75.4-177.9 2.8-36.1 22.4-66 35.6-98.7 4.1-10.2 4.6-27.9 10.7-36.5 3.9-5.5 11.2-1.5 11.1 4.4z"  fill="#fff" /><path d="M316.4-322.2c7.5 81.2-73.5 140.1-47.4 222 16.8 52.7 56.9 94.5 76 146.5 1.7 4.7 13.9 30.2 4 31.7-6.2 0.9-7.1-8.9-0.9-9.1 5.3-0.2 6.6 7.7 1.4 9-7.8 2.1-15.4-39-18.2-45.8-23.4-57.7-75.4-107.3-79.2-171.8-3-51.3 30.6-88.3 46.3-134.2 5.1-15 1.7-37.3 7.9-50.4 2.5-5.3 9.3-2.9 10.1 2.1z"  fill="#fff" /><path d="M328.9-199.9c-39.4 41.8-53.6 85-30.1 139.5 5.6 13.1 70.1 136.2 54.7 138.6-6.2 1-7.1-8.8-0.9-9.1 7.3-0.3 5.2 11.6-1.5 8.8-7.4-3-14.4-44.5-18.1-53.2-21.8-52.5-66.7-105.2-56.8-165.6 3.3-20.6 20.9-65.7 42.9-73.7 9.5-3.4 14.9 7.6 9.8 14.7z"  fill="#fff" /><path d="M344.7-398.8c2.3 47.2 5.4 96.7-14.3 141-17.5 39.3-52.5 70.9-58.4 115-3.5 26.2 4 51.7 15.3 75.1 0.9 1.8 15 23.5 5.6 21.6-13.6-2.7 14-7.8 2.3-0.4-4.6 2.9-7.8-7.2-9-9.2-67.9-123.1 9-134.8 40.4-233.1 13-40.7 0.6-75.9 7.5-110.8 1.3-6.4 9.6-4.9 10.6 0.8z"  fill="#fff" /><path d="M350.9-76.9c-10.9 40 8.1 82.9 19.3 120.9 1.6 5.3 13.6 32.4 4.3 34.1-6 1.1-7.1-8.4-1.1-8.8 6-0.4 6.2 9.2 0.1 8.9-6.9-0.3-38.8-123.1-36.4-149.6 1-10.5 14.5-19.4 13.8-5.5z"  fill="#fff" /><path d="M361.8-175.4c-37.1 29.6-61 63.2-48.7 112.5 5.5 22.1 55.2 126.4 49.7 138.3-3 6.6-12.6-0.7-7.1-5.4 6.5-5.5 11.1 8.5 2.7 8-7.5-0.4-12.3-35-14.7-41.9-19.4-56.1-65.6-119.3-35.4-179.7 7.3-14.6 27.8-45.4 45.3-49 10.6-2.2 14.7 10.4 8.2 17.2z"  fill="#fff" /><path d="M361.6-397.5c-5.7 45.4-3.6 92.9-22.4 135.6-19.2 43.7-61.5 77.3-65.4 127.2-2.3 29.6 9.2 57.5 23 83.1 0.7 1.4 14.9 22 5.5 20.2-13.5-2.5 13.7-7.9 2.2-0.4-5.7 3.7-12.3-15-13.9-18-71.4-128.5 5.1-135.7 42.2-235.8 13.5-36.5 11.2-75.4 16.7-113.3 1.1-8 12.1-6.3 12.1 1.4z"  fill="#005bbb" /><path d="M384.4-336.1c-9.5 32.4-17.1 64.7-35.7 93.4-29.2 45.2-76.9 79.9-66.9 140.1 10.5 63.1 61 112.1 74.2 175 2.1 9.8-15.1 3.9-7.4-2.6 6.5-5.5 11.2 8.6 2.7 8.1-7.3-0.4-15.5-43.5-18.6-51-23.4-56.7-74.7-112.9-61.2-178.4 9.8-47.2 50.4-76.3 73.4-116.4 13.1-22.9 14.3-51.4 26.9-73.5 4.2-7.3 13.8-2.1 12.6 5.3z"  fill="#fff500" /><path d="M395.7-309.5c-8.6 23.9-17.6 47.5-32.2 68.5-31.4 45.6-85.8 78.3-76.7 141.2 7.1 49.2 74.9 134.5 70.4 173.6-1 8.5-14 1.4-7.5-4 6.5-5.5 11.2 8.6 2.7 8-5.9-0.4-25.7-67.8-30.4-77.3-22.8-46.4-57.6-95.2-44.3-149.6 11.1-45.5 51.4-72.1 76.9-108.7 9.7-14 20-51 29.4-59.5 5.9-5.4 13.2 1.1 11.7 7.8z"  fill="#c2e1ff" /><path d="M406.6-116.5c-35.2 33.6-45.2 71.5-35.8 118.7 4.8 23.8 12.5 46.7 17.9 70.3 0.7 3-1.8 5.8-4.8 5.4-6.9-0.9-2.9-11.8 2.9-8 5.9 3.7-2.3 11.9-6 6.1-16.7-25.9-30.7-128.7-17.3-162.1 5.9-14.7 17.7-36.3 31.6-44.8 9.7-6 17.7 6.4 11.5 14.4z"  fill="#005bbb" /><path d="M418-101.3c-30.4 33.7-38.4 71.9-30.9 116 1.3 7.8 17.8 64.3 9.1 63.3-5.8-0.7-4.3-9.7 1.4-8.5 6.6 1.5 1.8 11.7-3.6 7.6-5.7-4.4-6.9-22.2-8.6-28.9-14.4-55.5-22.1-114.3 18.9-160.9 7.8-8.9 19.8 2 13.7 11.4z"  fill="#005bbb" /><path d=""  fill="#fff" /><path d="M440.4-74c-20.1 31.3-25.6 66.9-20.2 103.4 1 6.5 14.3 48.5 5.8 47.9-6.4-0.5-3.4-10.8 2.2-7.6 5.7 3.1-1.4 11.2-5.2 5.9-21.9-29.8-21.7-131.9 4.5-159.2 6.9-7.2 16.3 1.6 12.9 9.6z"  fill="#fff500" /><path d="M449.7-392.2c-42.3 41.7-49.1 97.2-80 145.5-26.3 41.1-76.3 70.2-82.5 122-4.3 35.8 13.4 69.6 29.5 100.2 1 1.8 17.1 27.5 6.9 25-3.8-0.9-3-6.6 0.8-6.6 4.5 0.1 4 7.2-0.5 6.7-11.4-1.5-62.5-109.4-40.6-163.4 17-41.8 57.5-67.1 80.2-105.2 27.1-45.1 33.7-98.8 72.9-136.9 8.7-8.5 20.3 3.5 13.3 12.7z"  fill="#fff" /><path d="M460.3 27.2c1 8.5 14.4 43.1 10.4 48.7-3.6 5-10.4-2.7-5.1-5.7 5.4-3 8.3 6.8 2.2 7.3-7.7 0.6-19.1-44.4-16.8-51 1.7-5.1 8.1-3.7 9.3 0.7z"  fill="#fff" /><path d="M403.4-394.8c-24.5 40.8-26 89.7-46.4 132.1-18.7 38.7-55.6 66.3-71.1 106.5-6.3 16.2-8 33.7-5.4 50.9 0.4 2.6 10.2 29.8-0.1 25.8-5-1.9-1.5-9.6 3.2-7.2 4.1 2.1 1.6 8.5-2.8 7.3-6.4-1.7-8.4-19.8-9.5-24.9-16-72.1 41.5-110 72-166.2 19.9-36.6 21.4-105.1 47.2-133.5 6.6-7.2 16.1 1.1 12.9 9.2z"  fill="#c2e1ff" /><path d="M420.5-393.7c-32 40.1-35 92.1-58.8 136.2-20.3 37.8-58.4 64.6-73.7 105-6.7 17.8-7.7 36.9-4 55.4 0.5 2.6 11.6 29.8 1.4 26.2-4.1-1.4-2.7-7.8 1.7-7.2 4.3 0.5 4.3 7-0.1 7.4-6.7 0.7-9.4-16.9-10.6-21-23.2-77.3 36.5-115.7 71.7-174.3 22.3-37.2 28.4-112.6 59.9-139.3 8-6.8 17.1 3.4 12.5 11.6z"  fill="#c2e1ff" /><path d="M495.8-139.8c-31.6 43.3-71.1 80.3-73.2 137.5-0.5 15.2 14.1 70.9 11.9 77.2-2.5 7.1-12.3-1.5-5.6-4.9 6.7-3.4 7.9 9.6 0.7 7.4-7.5-2.2-10.8-29.3-12.3-36-14.3-62.6 2.7-114 42-163.2 7.4-9.3 14.9-22.4 24.2-29.9 8.2-6.6 17 3.8 12.3 11.9z"  fill="#fff500" /><path d="M506.3-18.1c-4.9 23.6 9.7 91.9 9.3 93.1-2 6-11 0.6-6.6-4 5.1-5.4 10.5 6.3 3.1 6.7-17.6 1-20.1-85.7-18.4-97.6 1.2-8.3 12.7-6.1 12.6 1.8z"  fill="#fff" /><path d="M512.1-393.7c-14.5 23.5-32.9 44.2-47.1 68-21.3 35.7-31.3 77.1-57.8 109.8-27.6 34.1-76.4 54.3-92.1 97.2-14.2 39 14.9 82.9 11.7 95.4-2 7.7-12.2-2.6-4.4-4.4 6.6-1.6 4.9 10.1-0.9 6.7-8.6-4.9-14.4-34.1-17-43.3-27.5-98.8 58.2-115.5 102.5-180.3 34.3-50 46.4-116.9 92.5-159.7 7.4-6.9 16.6 2.6 12.6 10.6z"  fill="#c2e1ff" /><path d="M478.1-392.2c-58.6 61.6-52.1 89-92.3 149.4-21.4 32.3-55.5 53.1-76.9 85.1-14.8 22.2-13.1 68.8-23.3 61.8-5.6-3.8 0.9-12.4 6.1-7.9 5.2 4.4-2.2 12.2-6.9 7.2-4.4-4.7-2.8-17.5-2.6-23.2 1.7-57.6 51.2-85.6 84.1-125.6 40.9-49.7 45.5-104 96.3-157.2 9-9.4 24-1 15.5 10.4z"  fill="#005bbb" /><path d="M539.2 1.3c-1.7 15.6 10.9 67.2 8.3 73.8-2.9 7.4-12.9-2.1-5.8-5.5 6.1-2.8 8.5 8.1 1.8 8.2-11.8 0-18.7-68.8-15.8-78.5 2-6.9 11-4.4 11.5 2z"  fill="#005bbb" /><path d=""  fill="#fff" /><path d="M557.1-397.4c-8.5 58.2-29.5 164.4-56.6 214.7-19.1 35.6-49.2 61.8-73.6 93.3-6.2 8-23.1 50.1-30.6 50.2-10.6 0.2-7.2-17.1 2.6-12.8 8.3 3.6 1.9 16.5-6.1 12-9.3-5.3 2.2-26.6 5.1-33.1 22.4-50.9 72.7-82.7 97-132.9 28.3-58.5 35.9-130.5 49.8-193.5 1.8-8.1 12.8-5.9 12.4 2.1z"  fill="#fff" /><path d=""  fill="#fff500" /><path d=""  fill="#005bbb" /><path d=""  fill="#005bbb" /><path d=""  fill="#fff" /><path d=""  fill="#fff" /><path d=""  fill="#fff500" /><path d="M605.7-57.1c-14.8 28.5-25.6 57.7-24.8 90.2 0.2 6.6 9.2 47-1.2 44.9-6.3-1.3-3.7-11.1 2.4-9.1 6.1 2 2.5 11.4-3.4 8.8-5.5-2.5-4.9-16.1-5.6-20.8-6.6-42.1-1.9-83.1 18.6-121 4.9-9 17.2-2.3 14 7z"  fill="#c2e1ff" /><path d=""  fill="#005bbb" /><path d=""  fill="#005bbb" /><path d=""  fill="#fff500" /><path d=""  fill="#fff500" /><path d=""  fill="#005bbb" /></svg>