<svg width="1200" height="675" viewBox="-500 -500 1200 675" xmlns="http://www.w3.org/2000/svg"><path d="M-500-500h1200v675h-1200z" fill="#000"/><path d=""  fill="#fff" /><path d=""  fill="#c2e1ff" /><path d=""  fill="#fff500" /><path d=""  fill="#005bbb" /><path d=""  fill="#fff" /><path d=""  fill="#fff" /><path d=""  fill="#005bbb" /><path d=""  fill="#005bbb" /><path d=""  fill="#c2e1ff" /><path d=""  fill="#c2e1ff" /><path d=""  fill="#005bbb" /><path d=""  fill="#fff500" /><path d="M-397.3-376.5c64.1 74.9 66.3 225.2 24.5 311-3.8 7.7-16.6 41.8-25.5 42.5-9.5 0.7-4.6-15 2.8-9 7.4 6-7 14-8.3 4.6-1.8-13.2 23.6-44.6 29.4-57.4 14.7-32.8 20.9-67.5 21.2-103.4 0.4-47.7-1.8-100.5-20.9-144.8-6.5-15.1-35-54.9-23.2-43.5z"  fill="#c2e1ff" /><path d="M-397.5-367.6c57.9 71.6 60.9 215.2 22.5 296.2-3.4 7.3-14.5 37.8-23.1 38.5-9.5 0.7-4.5-15.1 2.8-9.1 7.4 6-7.1 14.1-8.3 4.6-1.6-12.4 21.5-41.1 26.8-53.3 13.3-30.9 18.8-63.5 19-97.1 0.3-49.6-2.6-105.5-25.1-150.6-4.3-8.5-19.7-34.4-14.6-29.2z"  fill="#c2e1ff" /><path d="M-389-399.2c61.4 72.2 70.4 198.2 48.6 288-7.3 30-20.7 57.6-34 85.4-3.3 7-16.7 47.4-23.7 46.9-8.4-0.6-2.1-13.8 3.7-7.6 5.7 6.2-8 11.5-7.9 3 0.3-24.6 24.9-57.9 35-80 17.9-39.2 27-79.2 27.9-122.3 1.2-53.1 1.1-112.2-20.5-161.7-2.9-6.7-36.9-59.2-29.1-51.7z"  fill="#005bbb" /><path d=""  fill="#fff500" /><path d="M-338.3-399.4c37.3 75.6 31.1 163.6 25.9 245.6-0.8 12-7 97.4-20.8 97.3-5.9 0-5.4-9.3 0.5-8.7 6.9 0.8 3.2 11.6-2.7 8.1-6.2-3.8 3.8-25.8 5.1-31.3 11.6-47.1 12-95.1 13.1-143.3 1-48.1 1.9-96.4-15.1-142.2-2.9-7.7-8.5-16.1-10.1-24.1-0.5-2.6 2.8-3.4 4.1-1.4z"  fill="#fff" /><path d="M-378-332.9c36.6 73.8 34.7 194.1-1.7 267.1-4.1 8.1-8.7 22-15.6 28.1-6.1 5.4-12.6-6.4-4.8-8.8 7.8-2.3 8.8 11.1 0.7 10-12-1.7 8-28.4 10.5-33.2 16.6-31.8 26.8-65.3 28.7-101.3 2.5-45.4-0.5-95.8-14-139.3-0.6-1.9-8.7-30.5-3.8-22.6z"  fill="#fff" /><path d="M-368.6-88.2c-3.1 7.7-23.5 59-32.9 53-5.8-3.8 0.6-12.7 6-8.3 5.4 4.4-2 12.5-6.8 7.6-5.3-5.4 6.8-19.3 9.3-24.1 3.6-6.5 11.8-33.1 19.1-34.6 4-0.8 6.3 3 5.3 6.4z"  fill="#005bbb" /><path d="M-329.8-399.4c38.9 88.3 29.4 244.1 6.5 336.9-1.4 5.9-4.5 34-11.1 34.5-7.6 0.6-3.6-12.2 2.3-7.3 5.9 4.9-5.7 11.3-6.7 3.7-2.6-20.9 12.2-51.3 16.1-72.1 6.2-33.1 7.5-66.6 8.4-100.2 1.5-54.4 7-110.4-8.7-163.4-8.5-28.9-10.4-38.5-6.8-32.1z"  fill="#fff500" /><path d="M-355.2-175.9c-1.7 103.1-42.5 134.8-44.6 134.3-7.9-2-1.8-14 4.5-8.9 6.3 5.1-4.2 13.5-7.8 6.2-3.9-8 19.1-40.3 22.8-49.1 8-19 15.7-79.7 18.3-84.4 2-3.5 6.5-1.5 6.8 1.9z"  fill="#005bbb" /><path d="M-348.6-270.4c11 81.6 5.8 157.1-34 230.3-2.8 5.1-9.8 25.4-17.3 23.6-7.8-1.9-2-13.9 4.3-8.9 7.4 5.8-6.8 14-8.1 4.7-0.2-1.6 39.6-75.9 46.8-106.8 14-60.6-2.7-103 2-142.9 0.5-3.8 5.4-3.3 6.3 0z"  fill="#005bbb" /><path d="M-341.2 9c-0.5 17.3 2.8 34.4 10.3 50 1.1 2.4 11.2 15.5 6.6 16.4-6.8 1.4 6.8-2.2 0.2 0-3.5 1.1-8-10-9.2-12.1-8-14-18.7-38.4-14.8-55.1 1-4.2 6.5-3 6.9 0.8z"  fill="#fff500" /><path d="M-334.2-217.1c2.2 72.6-12.8 130.4-44.6 195.3-3.3 6.7-11.8 35.1-18.8 36.7-6.2 1.4-7.8-8.5-1.5-9.2 7.4-0.8 6 11.4-1 9-7.8-2.6 42.2-104.1 46.4-117.2 8.2-25.5 11.8-51.9 12.6-78.6 0.2-6.7-3.9-34.8 1.4-38.7 2.4-1.8 5.1 0.1 5.5 2.7z"  fill="#fff" /><path d=""  fill="#c2e1ff" /><path d="M-320-241c0.9 61.6-0.7 121.3-21.4 180-8.9 25.1-19.6 50-24 76.4-2.6 15.1-2.8 30.6 0.3 45.7 0.5 2.4 6.4 14.9 0.5 14.6-3.4-0.2-2.8-5.5 0.5-5 3.4 0.5 2.2 5.8-1.1 4.9-14.2-3.9-8.8-58.1-7-68.2 6.9-40.1 26.6-76.6 35.9-116.1 4-16.9 10-134.5 10.1-134.6 2.2-2.6 5.7-0.7 6.2 2.3z"  fill="#005bbb" /><path d="M-314.9 56c1.5 2.6 13.1 17.3 10.7 19-0.1 0.1-0.2 0.1-0.3 0.1-7.8 3.1-15.1-25.1-10.4-19.1z"  fill="#c2e1ff" /><path d="M-288.4-399.1c19.2 84-5.9 263.2-13.7 355.9-0.2 2.3-0.8 14.5-6.7 8.9-11.9-11.2 18.9 1 2.5 1-8.3 0-1.3-32.4-0.6-37.5 4.9-40.3 7.3-80.3 9.1-120.8 2.7-59 16.1-118.6 8.7-177.7-0.7-5.5-7.9-27.2-4.2-31.1 1.7-1.8 4.2-0.7 4.9 1.3z"  fill="#fff500" /><path d="M-298.7-253.8c-2.4 44.5-2.3 89.5-7.1 133.8-4.3 39.7-18.4 79.4-17 119.5 0.7 21.2 7.4 41.2 18.8 59.1 1 1.5 13.5 16.6 8.8 16.4-7.2-0.3 7.3-2.9 0.7-0.1-2.9 1.2-7.1-7.2-8.4-8.9-46.7-62.5-15.8-130.6-9.2-200.2 3.8-39.9 2.5-80.1 6.1-120 0.4-4.9 7.1-4.2 7.3 0.4z"  fill="#c2e1ff" /><path d="M-291.5-107.7c-3.4 42.2-13.8 86.7 1.3 127.8 5.8 15.8 14.7 30 24.1 43.8 0.9 1.3 9.5 10.3 5 11.4-6.6 1.5 6.6-2.3 0.2-0.1-3.1 1.1-6.8-7.6-8-9.3-18.6-26.8-33.6-54.2-35.9-87.5-1.8-25.3-2.3-63.5 5.9-87.6 1.5-4.4 7.2-2.6 7.4 1.5z"  fill="#fff500" /><path d="M-284.4-227.6c-4.7 45.2-18.8 196.7-10.2 233.1 6.4 27.3 28.8 46.8 34.8 67.6 0.2 0.7-0.9 2.2-1.7 2.2-4.4 0-15.5-21.2-18-25.2-35.1-54.9-22.9-110.6-18.5-171.7 2.4-32.6 2.5-65.3 5.2-97.8 0.4-4.4 8.1-19.9 8.4-8.2z"  fill="#fff" /><path d="M-277.5-312.8c-3.4 67-27.1 247.2-22.4 301 2.2 24.8 11.9 47 25.5 67.6 2 3 13.2 15.3 12 18.5-1.1 2.9-5.1-0.7-2.3-2.1 2.4-1.2 3.4 3.1 0.8 3.2-4.4 0.1-14.7-19.6-17.1-23.3-12.7-19.3-22.1-40.1-25.2-63.2-5.7-43.6 14.9-231.2 20.1-286.6 0.4-4-1.3-17.3 3.8-18.8 2.7-0.8 4.7 1.3 4.8 3.7z"  fill="#fff" /><path d="M-272.6 53c1.8 2.8 15.7 20.1 12.7 22-2 1.2-3.7-2-1.7-3 2.1-1 3.5 2.4 1.3 3.1-6.8 2.3-16.9-27.4-12.3-22.1z"  fill="#c2e1ff" /><path d="M-263-236.3c-10.4 55.1-19.6 179.5-8.3 232.9 4.7 22 14.5 42.1 24.9 61.7 1.2 2.3 11.8 16.6 5.9 17.3-2.8 0.3-3-4.2-0.2-4.2 2.4 0 2.8 3.6 0.4 4.1-3.7 0.8-5.4-7.1-6.5-9.3-12.2-23.1-24.9-46-30.8-71.7-11.8-51.5-3.3-169.4 5.1-223.3 0.8-5 10.2-19.5 9.5-7.5z"  fill="#fff500" /><path d="M-255.9-275.1c-14.9 66-29 200.2-17.6 265.8 4 23.3 13.9 44.5 24.9 65.2 1.3 2.4 13 18.9 7.3 19.5-2.4 0.2-3.2-3.3-0.9-4 2.7-0.9 3.8 3.4 1.1 4-3.5 0.7-5.2-6.7-6.2-8.7-12.9-24.1-26.2-47.9-32-74.9-12.4-58.2 0.2-200.2 13.3-260 1.1-4.9 11.4-19.2 10.1-6.9z"  fill="#fff500" /><path d="M-248.1-398.5c6 60.9-12 116.9-20.8 176.5-7.8 53-7.1 107.8-9.4 161.2-1.1 25.6-0.1 51.1 8.3 75.6 1.4 4.1 10.8 20 8.9 23.4-2 3.4-6.3-2-2.5-3.1 3.2-1 3.7 4.6 0.3 4.1-6.1-0.9-13-27.2-14.7-32.5-23.2-73.7 3-238.4 17.8-316.2 5.9-31.2 1.3-62 5.6-89.2 0.6-3.9 5.7-3.2 6.5 0.2z"  fill="#fff" /><path d="M-242.4-34.1c-0.1 27.8 5.2 54.4 13.8 80.8 1.3 3.9 12.3 27.9 7.1 29.3-11.1 3 7.5-10.9 1.5-1.1-3.1 5-5.7-3.7-6.1-4.9-8.9-27-18.7-53.5-21.9-81.9-2.4-21 4.1-32.9 5.6-22.2z"  fill="#005bbb" /><path d="M-235.1-359.7c-2.3 43.6-17 85-25.1 127.6-12 62.7-13.9 133.9-11.3 197.6 1.3 30.7 10.7 58.5 24.4 85.8 1.3 2.7 14.4 23.6 8.8 24.1-2.9 0.2-3-4.4-0.1-4.3 2.9 0.1 2.5 4.7-0.3 4.2-3.9-0.5-7.1-12.2-8.8-15.4-11.4-22.3-22.5-44.7-27.5-69.5-17.3-85.3 8.1-223.8 26.2-309 2.9-13.5 2.3-29.7 6.4-42.6 1.4-4.3 7.1-2.6 7.3 1.5z"  fill="#c2e1ff" /><path d=""  fill="#fff500" /><path d="M-221.4 4.8c0.4 8.1 12.3 70.9 9.4 71.4-3.8 0.6-4.5-5.4-0.7-5.7 3.3-0.2 4.1 4.7 1 5.6-5.5 1.6-6-13-6.7-15.7-3.7-16.1-12.4-39.3-9.6-56 0.7-4 5.9-3.2 6.6 0.4z"  fill="#c2e1ff" /><path d="M-214.4 21.7c0.5 6.7 10 53.9 5.5 54.5-4 0.5-4.5-5.8-0.4-5.9 4-0.1 3.8 6.2-0.2 5.9-4.8-0.4-4.6-12.4-5.2-15.5-6.3-32.1-3-53.5 0.3-39z"  fill="#005bbb" /><path d="M-203.2-398.8c5.7 88.2-42.1 156.3-45.8 266.7-0.7 20.8 0.8 114-2.3 119.3-2.5 4.3-8.6-1.3-4.5-4.2 4.8-3.3 7.1 6.6 1.3 5.7-9.1-1.4-4.5-55.8-4.2-63.8 4.8-110.6 6.7-132.7 38.5-239.2 9.2-31 4.9-56.6 10.4-85 0.8-4 6-3.1 6.6 0.5z"  fill="#fff500" /><path d="M-199.7 6.3c-1 8.3 1.8 70-1.3 70.2-4.3 0.2-4.3-6.6 0-6.4 4.3 0.2 3.6 7.1-0.7 6.4-8.1-1.3-8.2-63.7-5.4-71.7 1.5-4.4 7.3-2.6 7.4 1.5z"  fill="#fff" /><path d="M-192.5-337.3c-6.6 43-27.4 82.1-37.1 124.4-13 57-14.7 122.2-14.2 180.6 0.3 29.4 6.8 57.2 16.3 84.8 1 3 11.2 24 4.5 23.6-3.5-0.2-2.9-5.6 0.6-5.1 2.9 0.5 2.7 4.9-0.3 5.1-4.7 0.2-7-14.9-8.2-18.2-27.5-78.8-24.3-204.1-3.9-285.3 8.2-32.8 22.6-63.6 31-96.2 1.1-4.3 1.1-14.6 4.8-17.6 3.1-2.5 6.7 0.5 6.5 3.9z"  fill="#fff500" /><path d="M-185.1-67.5c-12.7 35.8-21.3 71.1-18.4 109.4 0.4 5.9 6.7 30.3 2.5 34-3.7 3.3-7.8-3.9-3-5.4 4.8-1.4 5.4 6.8 0.4 6.1-6.6-0.9-6.9-38.3-7.2-44.3-1.8-30.4 0.3-77.2 17.6-103.8 3-4.7 9.2-0.8 8.1 4z"  fill="#c2e1ff" /><path d="M-178.1-277.7c-25.7 85.1-48.9 175.7-48.5 265.5 0.1 23.5 4.6 46.5 10.3 69.2 0.7 2.9 8.1 19.9 1 19-14.6-2 15.3-4.5 1.2-0.1-5.6 1.7-13.4-41.5-14.6-47.3-16.6-82.8 14.3-223.5 40.4-303.7 1.9-5.8 12.1-12.8 10.2-2.6z"  fill="#fff" /><path d="M-162.5-399.2c6.7 32 12.5 64 10 96.8-2 26.3-61.2 284.1-65.4 283.4-6-1-2.2-10.5 2.9-7 5.1 3.5-2.4 10.4-5.5 5.2-8.2-13.8 10.5-60.4 14-75.5 12.7-53.8 23.9-107.5 37.7-161 11.8-45.8 11.1-89.2 1.7-135.3-0.7-3.4 1.9-14.3 4.6-6.6z"  fill="#005bbb" /><path d="M-163.8-49.9c-15.8 32-26.2 64.4-26.7 100.5-0.1 4.9 3.4 24.3-2.1 26-5.2 1.6-6-7.4-0.6-6.7 4.6 0.6 3.3 7.8-1.2 6.7-6.6-1.6-3.2-33.9-3-39.8 1.1-27.5 7.1-69.9 25.4-91.9 3.8-4.6 9.9 0.2 8.2 5.2z"  fill="#005bbb" /><path d="M-156.9 26.5c-4 11-5.3 42.7-13 49.9-4.6 4.4-10.1-4.6-4-6.7 7.1-2.4 6.4 10.5-0.4 7.5-7.4-3.4 5.3-48.4 9.3-54.6 3-4.7 9.1-0.9 8.1 3.9z"  fill="#005bbb" /><path d="M-150.1-245.1c-14.4 71-51.5 172.7-58.3 237.5-2.4 22.2-0.5 44.4 2.9 66.4 0.4 2.8 5.9 19.6-1.3 17.9-4.7-1.1-1.3-8.3 2.5-5.4 4.5 3.5-4 8.5-4.9 2.9-12.7-79.8-0.2-118.8 20.2-194.5 11.3-41.9 19.8-84.5 30.8-126.6 1.4-5.3 8.6-3.5 8.1 1.8z"  fill="#005bbb" /><path d="M-141.4-399.3c20.2 55.5 53.3 107.1 66.6 164.9 18.8 81.4-3.6 167.7-38.1 241.4-2.2 4.8-7.7 25.7-15.5 21.7-5-2.5-2-10.3 3.3-8.9 5.4 1.4 4.2 9.6-1.4 9.4-11.5-0.5 13.2-44.6 16.1-50.7 23.2-51.8 35.5-108.5 34.8-165.3-0.9-75-41.9-137.7-68.4-205.7-1-2.6-0.8-13.4 2.6-6.8z"  fill="#c2e1ff" /><path d="M-130.5-399.6c25.7 55.9 72.6 95.8 102 148.9 24.6 44.5 30.2 96.8 57.4 140 5.4 8.5 66.8 81.1 66.5 81.3-0.1 0-0.7 0.3-0.8 0.3-3.2 0.2-9.1-10.5-11.2-13.1-36-42.7-69.4-76.7-87.3-131.2-7.3-22.3-13.8-45-23.8-66.3-25.9-55.3-74.5-95.7-102.7-150-0.8-1.6-4.5-16.8-0.1-9.9z"  fill="#005bbb" /><path d="M-129.9-307.4c19 126.6-37.3 186.5-63.6 293.3-10.1 41 2.4 79.4-3.7 89.2-3.2 5.1-9.4-3.3-3.6-4.8 5-1.3 5.3 7.2 0.3 6.3-13.9-2.5-3-85.1-0.4-95.9 11.5-49.3 37.1-94.3 50.4-143.2 12.3-45.3 20.5-91.7 15.1-138.7-0.4-3.7 3.4-14.6 5.5-6.2z"  fill="#fff" /><path d="M-122.3-248.9c-1.8 104.8-50.2 155.7-69.9 243.9-3 13.4-1 76.4-3.4 80.1-2.8 4.4-8.9-1.7-4.5-4.5 5.2-3.3 7.1 7.2 1.1 6-14.9-2.9-0.6-88.2 2.4-99.3 10.5-38 30.4-72.8 43.3-110.1 9-26.3 16-53.5 20.2-81 1.2-7.9-0.7-32.2 4.6-37.7 2.5-2.6 6-0.4 6.2 2.6z"  fill="#c2e1ff" /><path d="M-114.5 68.7c-7.3 19-13.8 0.7-7.3-0.1 10.2-1.1 2.4 15.7-3.3 7.3-7.1-10.3 13.7-19 10.6-7.2z"  fill="#005bbb" /><path d="M-109.9-336c16.3 31.7 35 62.6 46 96.7 16.1 49.8 20.7 228.4 26.5 295.9 0.3 3.9 4.1 18.6-1.3 20.2-4.5 1.4-6.3-5.8-1.7-6.7 4.6-0.9 5.6 6.5 0.9 6.9-11.4 0.9-17.6-235.1-19.5-258.9-4.5-53.5-25.8-97.5-50.5-144.2-0.6-1.1-5-16.5-0.4-9.9z"  fill="#c2e1ff" /><path d="M-101.2-225c2.8 102-46.4 142.2-74.4 227.6-4 12.2-7.8 69.2-10.6 72.8-4.1 5.2-9.9-4.7-3.3-5.8 5.6-0.8 5 8.5-0.5 7-6.6-1.9-1.9-29.8-1.5-35.3 4.6-59 40.1-103.8 61.3-157.1 9.8-24.7 16.7-50.8 20-77.1 0.8-6.3-1.5-31.5 3.5-35 2.5-1.7 5.2 0.2 5.5 2.9z"  fill="#005bbb" /><path d="M-96.6-374.9c30.4 36 73.2 59.1 101.7 96.8 39.1 51.7 49.6 121.1 81.7 177.4 6.4 11.1 61.9 103.5 50.3 110.9-11.2 7.1 8-11.9 0.8-0.8-3.2 5-5.7-3.7-6.1-5-16.6-54.5-50.2-99.8-73.7-151.1-14.6-31.7-22.9-65.9-37.5-97.6-24.3-53.1-71.4-79.8-110.8-119.8-1.1-1.1-10.7-14.6-6.4-10.8z"  fill="#fff500" /><path d="M-67.6-399.3c38.6 33.2 85.6 53.3 113.4 98.2 35 56.4 36.9 128.2 58.7 189.9 2.9 8.2 29.9 68.8 24.4 72.6-6.6 4.5-2.5-10.4 0.8-3.2 2 4.3-4.1 3.5-5.7-1.1-12.3-36.3-27.4-71.6-37.8-108.5-11.9-42-16.4-86.4-33.3-126.8-22.5-53.7-67.1-79.2-111.8-112.2-1-0.8-11.9-11-8.7-8.9z"  fill="#005bbb" /><path d="M-79.4 19c-1.8 7.7-12.3 62.1-21.4 58.4-5.7-2.3-1.6-11.2 3.9-8.2 5.4 2.9 0.3 11.3-4.7 7.8-4.3-2.9 10.5-56.7 14.9-61.8 3.1-3.5 7.8-0.2 7.3 3.8z"  fill="#005bbb" /><path d="M-72.4-3.2c-2.2 11.5-14.2 75.8-20.7 80.2-5.9 4.1-10.4-7-3.3-8.2 7.1-1.2 6.5 10.7-0.4 8.8-8.3-2.2 3.2-26.1 4.5-31.2 2.8-10.7 4.9-47.4 13.3-53.7 3.2-2.4 6.8 0.6 6.6 4.1z"  fill="#005bbb" /><path d="M-65.5 24.5c-0.8 7-4 55.5-13.1 52.8-5.5-1.6-2.5-10.2 2.8-7.9 5.3 2.2 1.4 10.4-3.7 7.6-8.3-4.5 14-79.7 14-52.5z"  fill="#fff500" /><path d="M-61.6-321.8c80.8 78.3 64.8 106.3 112.8 191.7 34.3 61 83 109.9 93.5 182.3 0.6 4 5.7 24.8-1.7 24.5-4-0.1-4.5-6.2-0.6-6.9 4-0.7 5.7 5.1 2 6.7-6.6 2.8-7.5-34.5-8.5-39.9-7.3-36.2-23.9-70-44.3-100.5-17.5-26.3-37.5-50.9-51.9-79.2-23.7-46.2-32.9-98-66.4-139.1-11.1-13.7-23.9-25.7-36.4-38-1-1 0.4-2.4 1.5-1.6z"  fill="#005bbb" /><path d="M12.5-399.3c93.4 88.6 75.6 201.4 108.9 314.8 1 3.3 7.5 16.5 3.7 19-3 1.9-5.8-3-2.6-4.6 3.2-1.6 5.4 3.6 2 4.9-12 4.3-40.6-194.6-45.2-213.2-10.3-41.8-30-79.3-59.7-110.6-0.6-0.6-11-13.3-7.1-10.3z"  fill="#fff500" /><path d="M-45-51.3c2 25.8 20.1 107.3 15.6 125.6-1.3 5.1-9.1 1.2-5.8-2.8 3.9-4.8 9.1 4.5 3 5.3-5.8 0.8-18.6-114.7-19.3-127.5-0.2-4.3 5.7-4.6 6.5-0.6z"  fill="#005bbb" /><path d="M-38.1-93.4c5.7 44.7 19 86.1 38.7 126.5 2.3 4.7 22.3 41 17.4 42.7-3 1.1-4.4-3.8-1.3-4.5 3.6-0.9 3.7 5.3 0.1 4.6-4.6-1-10.5-21.4-12.6-25.8-21.5-44.6-40.2-87.8-47.7-137.2-0.6-4 3.2-14.4 5.4-6.3z"  fill="#005bbb" /><path d=""  fill="#005bbb" /><path d="M-24.5-70.8c12.9 45.4 40.4 80 66.7 118.1 3.5 5.1 16.9 20.6 15.8 26.7-0.6 3.3-5.8 1.1-3.8-1.6 2-2.8 5.7 1.4 2.8 3.1-2.8 1.6-18.7-27.9-21.4-31.8-19.4-27.9-41-54-54.9-85.3-3.6-8.1-9.9-19.3-10.4-28.3-0.2-3.2 4-3.5 5.2-0.9z"  fill="#fff" /><path d="M-17.7 7.1c3.2 9 27.3 62.7 26 66.9-1.2 3.8-7 0.5-4.3-2.5 2.7-2.9 6.5 2.5 2.8 4.1-5 2.1-9.3-17.7-10.5-20.8-19.3-48.1-18.1-55.5-14-47.7z"  fill="#fff" /><path d="M-9.9 72.7c0.5 7.6-9.9 0.4-3.8-2 5.8-2.4 4 8.9-0.8 4.8-3.7-3.1 0.2-9.3 4.1-5.5z"  fill="#fff500" /><path d=""  fill="#fff" /><path d="M2.7-54c8.1 13.3 111.3 119.9 96.9 129.6-3.4 2.3-5.9-4-1.8-4.6 4.7-0.8 2.9 7.4-1.1 4.6-8-5.4-15.3-33.1-22.1-42.3-21.5-29.1-51.1-51-71.8-80.8-0.9-1.4-4-11.2-0.1-6.5z"  fill="#fff500" /><path d="M10-250.9c21.2 38.1 30.2 81.5 50.9 119.9 34 63.3 80.6 118.2 86.6 193 0.3 3.3 3.3 15.3-3.1 15-4.1-0.2-4.5-6.3-0.4-7 4-0.7 5.7 5.2 1.9 6.8-7.7 3.2-5.7-23.6-6.2-27.6-3.4-28.8-13.1-56.6-25.5-82.7-18.1-37.6-44.3-70.5-63.2-107.6-16.4-32.2-25.2-67.4-40.6-100-0.3-0.5-4.9-16.6-0.4-9.8z"  fill="#fff500" /><path d="M17.4-231.9c15.5 34.6 25 71.2 43.6 104.5 35.1 62.8 81.6 117.7 86.5 192.8 0.2 2.5 2.1 13.9-4.4 11.4-14.6-5.6 17.1-6 2.6 0-7.7 3.2-5.7-23.6-6.3-27.6-3.2-26.5-11.8-52.3-23-76.4-17.1-36.9-42.5-68.7-62.2-104.2-15.5-27.8-25.1-57.8-36.4-87.3-0.4-1-5-21.2-0.4-13.2z"  fill="#fff" /><path d="M23.4-316.9c44.3 49 48.2 117.2 67.9 177.4 21.3 65.1 56.1 127.2 60.8 196.7 0.3 4 3.9 20.3-3.4 19.8-4.2-0.3-4.4-6.6-0.3-7.1 4.1-0.6 5.7 5.5 1.8 6.9-7.2 2.7-5.9-33.6-6.6-39.1-5-38.8-18.7-76.2-32.9-112.4-11.2-28.4-22.8-56.5-31.4-85.8-11.5-39.6-17.1-81.6-35.2-119.1-6.2-12.8-31.2-46.9-20.7-37.3z"  fill="#005bbb" /><path d="M31-119c35.9 60.2 94.1 98.9 107.8 172.1 0.9 4.9 5 17.9 2 22.4-2.6 3.8-8.4-0.6-5.4-4.1 3.5-4.1 8.9 3 4 5.3-7.3 3.4-6.1-19.3-6.5-22.5-3.3-22-11.1-43.2-21.7-62.7-21.7-40-57.3-68.9-82.1-106.6-1.5-2.2-0.9-7.2 1.9-3.9z"  fill="#c2e1ff" /><path d="M37.3-41.8c17.2 17.3 36.2 32.8 51.7 51.7 6.7 8.2 41.2 55.1 31 65.5-2.8 2.9-7.1-1.8-4-4.3 3.1-2.5 6.8 2.6 3.5 4.8-3.2 2.1-25.8-54.4-26.9-56-15.3-22.4-35.9-39.9-55.2-58.5-0.9-0.9-2.8-5.3-0.1-3.2z"  fill="#005bbb" /><path d="M45.4-275.9c24.4 47.1 41.8 135.9 66.9 196.1 6.3 15.2 59.6 151.1 37.2 156.9-6.5 1.7-5-9.9 0.9-6.7 5 2.8-1.3 9.9-4.7 5.3-2.3-3.2 6.3-35.7-24-118.6-13.5-37-30.8-72.6-42.9-110.2-11.4-35.2-17.5-72.2-31-106.7-0.4-1-7.2-23.8-2.4-16.1z"  fill="#005bbb" /><path d="M52.1 55c1.8 2.7 14.1 18.5 9.3 20.6-2.7 1.2-4.3-3.2-1.5-4.1 2.8-0.9 3.9 3.6 1.1 4.2-6.8 1.3-13.2-26-8.9-20.7z"  fill="#c2e1ff" /><path d="M59.4-344c40.5 68.9 41.6 190.8 67.2 276.6 4.4 14.7 43.6 139.5 25.2 144-4.8 1.2-6.2-6.5-1.3-7.1 5.7-0.8 4.9 8.8-0.6 7.1-5.7-1.8-2.5-23-2.8-28-2.6-40.2-15-79.3-26.5-117.7-24.3-81.3-24.8-163.3-46.7-231-0.6-2-22-54.1-14.5-43.9z"  fill="#c2e1ff" /><path d="M66.9-152.9c29.6 73.7 85.6 143 83.3 226.4-0.2 6.7-10.6 2.2-6.1-2.5 3.9-4.1 9.1 3.7 3.9 5.8-7.9 3.1-5.2-20.3-5.5-23.7-1.9-23.3-7.8-46.2-15.6-68.2-16.3-45.8-43-86.5-62.2-130.9-1-2.4-1.4-13.1 2.2-6.9z"  fill="#c2e1ff" /><path d="M73.7 67.1c7.5 14-3.9 5.4 0.1 4.2 4-1.1 3.3 6.1-0.4 4.2-6.2-3.3-2.6-12.8 0.3-8.4z"  fill="#c2e1ff" /><path d=""  fill="#fff500" /><path d="M87 12.1c5.3 6.3 41.4 58.1 30 64.1-4.1 2.1-6.1-5.3-1.5-5.5 4.6-0.2 3.3 7.4-0.9 5.6-4.2-1.7-5-15.7-6.4-19.8-5.3-15.5-32.8-55.9-21.2-44.4z"  fill="#005bbb" /><path d="M94.7 44.1c2.6 4.4 17.3 28.4 11.7 31.7-3.1 1.9-5.9-3.2-2.6-4.7 3.3-1.6 5.5 3.8 2.1 5-5 1.8-6-10.4-7-13-0.4-1.2-9.3-25.9-4.2-19z"  fill="#fff" /><path d="M102.3-114.8c38.3 107.9 61.5 188.3 47.9 191.8-6.5 1.7-5-9.9 0.9-6.7 5 2.8-1.3 9.9-4.7 5.3-2.4-3.3-6.1-60.9-8.8-72-9.9-40.2-26.7-77.7-39.9-116.8-1.1-3.1 3.3-4.5 4.6-1.6z"  fill="#fff500" /><path d="M109.4 59.2c1.3 3.2 8.3 16 2.3 17.1-3.8 0.7-4.6-5.3-0.8-5.5 3.8-0.3 4 5.7 0.2 5.6-9.6-0.3-5.5-25-1.7-17.2z"  fill="#c2e1ff" /><path d="M117.3-315.3c10.4 104.3-0.8 171.7 23.9 280 3.6 16 22.6 101 14.4 110.9-3.7 4.5-9.7-3.2-4.4-5.7 5.3-2.5 7.5 6.9 1.7 7-1 0-12-87.3-14.3-97.8-9.5-43.1-20.5-85.7-23.2-129.9-3.3-51.7 0.8-103.3-3.7-155-0.3-3 3.3-20.1 5.6-9.5z"  fill="#005bbb" /><path d="M131.1-398.3c2.7 48 5.2 96.1 3.8 144.2-1.3 45.9-7.7 91.8-4 137.8 0.9 11.1 13.9 76.9 12 80.6-2 4.2-8.1-0.6-4.4-3.5 4.2-3.4 7.1 5.6 1.6 5.2-10.9-0.8-19.8-77.4-13.2-203.6 2.8-53.7-1.3-106.8-2.5-160.3-0.1-4.4 6-4.5 6.7-0.4z"  fill="#fff" /><path d="M132.2-398.7c2.5 45.7 4.8 91.6 3.7 137.4-1.5 63.3-9.9 124.7 0.7 187.8 2 11.9 24.7 119.9 16.9 120-8.6 0.2 1.6-12.4 3.2-3.9 1.1 5.9-6.4 3.7-6.8-2.3-2.7-37-12.2-73.1-18.7-109.5-10.3-56.9-6.7-111.5-3.5-168.8 3-53.7-1-106.8-2.2-160.4-0.1-4.5 6-4.5 6.7-0.3z"  fill="#c2e1ff" /><path d="M138.7-350.1c3.5 99.6-15.8 199.1 2.4 297.8 3.4 18.3 24.4 118 15.7 128.3-3.8 4.5-9.7-3.3-4.4-5.7 5.3-2.5 7.4 7.1 1.6 7-1.2 0-10.9-88.1-12.9-98.7-25.5-131.7-6.2-184.8-8.7-309.5-0.1-5.4-2.5-15.7-0.2-20.6 1.7-3.4 6-1.9 6.5 1.4z"  fill="#fff" /><path d="M151.2-398.5c3.3 51.5 4.9 103-0.2 154.5-4.4 45.7-13.9 91-12.2 137.1 0.4 12.5 12.6 84.9 10.5 89-2.6 5-9-2.4-3.7-4.2 4.5-1.6 5.4 6.3 0.7 5.8-5.2-0.5-5-15.9-5.6-19.6-12.6-74.5-3.8-141.3 3.4-215.6 3.6-36.8-3-128.2 0.5-147.4 0.7-4 6-3.2 6.6 0.4z"  fill="#c2e1ff" /><path d="M153.1-265.7c-6 89.4-20.2 147.8-4.5 239.5 2.5 14.7 16.6 93.5 9.2 102-3.8 4.5-9.7-3.3-4.3-5.8 5.4-2.5 7.4 7.1 1.5 7.1-3.5 0-6.6-66.8-8-75.6-20-129.1-12.1-137.6-1.8-262.3 0.4-4.9 7.5-14.3 7.9-4.9z"  fill="#005bbb" /><path d="M160-49.1c0.1 17.8 10 117.8 3.1 125.3-4.1 4.5-9.9-3.8-4.3-6.1 5.6-2.3 7.4 7.6 1.4 7.4-2.2-0.1-7.3-113.6-7.2-126.4 0-4.6 6.4-4.5 7-0.2z"  fill="#fff500" /><path d="M170.1-399c10.3 74.2 12.8 140.7-3.8 214.3-7.4 32.8-14.6 65.3-15.2 99-0.2 12.2 9.7 116.6 6.2 116.7-14.7 0.4 12.7-11.3 2.3-0.9-5.4 5.4-5.9-6.4-6.1-8-4.8-58.4-14.3-113.8-3.3-172.3 6-32 14.8-63.4 19.5-95.6 7.5-51.9-0.1-100.8-5.8-152.4-0.5-4.1 5.2-4.6 6.2-0.8z"  fill="#fff500" /><path d="M174.8-147.9c-11.8 42.3-16.5 83.8-13.8 127.7 1.6 25.7 13.4 71.2 2.8 95.3-2.4 5.5-10.6-0.4-6-4.4 5.3-4.7 9.5 6.9 2.4 6.6-6.5-0.2-2.2-40.1-2.4-46.6-2.1-59-8.6-114 6.3-172.1 1.3-5.2 12.5-18.8 10.7-6.5z"  fill="#fff500" /><path d=""  fill="#fff500" /><path d="M188.9-105.8c-13.1 43.3-17.5 179.1-18.5 181.2-3.2 6.6-11.8-2.8-4.9-5.4 5.8-2.2 7.3 8 1.1 7.6-12.3-0.9 8.3-166.1 13.3-183.6 1.7-6.1 10.3-7.3 9 0.2z"  fill="#005bbb" /><path d="M202.2-399c18.8 48.3 52.7 87.9 74.6 134.4 21.5 45.6 28.6 97.7 63.5 136.2 12.8 14.2 93.6 74.9 92.3 86-0.3 3.1-5.2 1.4-3.6-1.2 1.6-2.6 5.3 0.9 2.8 2.6-3.5 2.4-8.7-10.3-10.2-12.3-8.6-11.8-19.4-21.7-30.8-30.6-98.8-78.2-72.9-86.6-122.3-188-18.8-38.5-46-72.1-64.3-110.9-1.1-2.4-6.6-24.4-2-16.2z"  fill="#c2e1ff" /><path d="M203.1-125.6c-16.1 50.2-24.2 97.2-25.9 149.9-0.2 7 0.3 55.1-8.4 53.3-4.5-0.9-3.9-7.8 0.7-7.8 5.4-0.1 5.1 8.4-0.2 7.9-7.6-0.7-0.6-31.2-0.2-36.9 2.8-44.5 2.3-88 14-131.4 12.9-47.9 21.7-43.7 20-35z"  fill="#fff" /><path d=""  fill="#fff500" /><path d="M214.7-391c22.6 43 59.3 74.6 89.2 112.2 42.8 53.8 63.9 93.8 115.3 144.4 19.7 19.4 74.5 99.6 60.4 111.6-4.6 3.9-7.9-6-1.9-5.7 6 0.3 1.6 9.8-2.6 5.4-5.1-5.4-5.1-27.4-7.7-35.3-7.5-22.3-20.5-42.1-36-59.7-22.4-25.4-48.9-46.6-70.1-73.1-24.6-30.8-43.2-65.8-68.2-96.3-22.9-27.8-49.6-52.5-70-82.3-8.3-12.2-12.4-26.7-8.4-21.2z"  fill="#005bbb" /><path d="M223-280.4c15.2 88-33.3 164.6-42.6 249.7-1.3 11.6-3.1 110-11.4 108.3-5.3-1-3.2-9.3 2-7.6 6 1.9 0.8 11-3.9 6.7-5.2-4.8 2.2-35.8 2.6-43.3 4-79.3 13.3-116.9 34.8-192.4 8.5-29.8 14.8-60.8 14.6-91.9-0.1-9.5-3-20.1-2.1-29.4 0.4-3.7 5.2-3.4 6-0.1z"  fill="#fff500" /><path d="M231.1-72.2c-3.8 18.2-23.9 144.7-29.1 149-5.2 4.3-10.3-5.7-3.7-7.4 6.5-1.7 6.9 9.5 0.3 8.3-6.3-1.2 20.7-136.5 24.4-151.5 1.3-5.3 8.6-3.5 8.1 1.6z"  fill="#fff" /><path d="M237.3-253.3c9.6 84.5-30.1 162-41.7 243.8-1.8 12.3-6.7 81-12.2 86-4.8 4.4-10.2-5-3.9-7 6.2-1.9 7.1 8.9 0.6 8-15.8-2.1 30.6-186.7 35.7-205.9 7.4-28 12.9-56.6 15.1-85.6 0.8-10.8-3.7-30.8 0.2-40.2 1.4-3.3 5.6-2.1 6.2 0.9z"  fill="#005bbb" /><path d="M245-31.6c-1.5 15.4-8.5 101.8-16.5 108.3-5.2 4.3-10.3-5.7-3.7-7.4 6.5-1.7 6.9 9.5 0.3 8.3-6.7-1.2 6.7-59.2 7.8-67.6 1.3-11.1-0.9-35 5.1-44.1 2.3-3.5 6.9-1.2 7 2.5z"  fill="#c2e1ff" /><path d=""  fill="#fff500" /><path d="M258.8-40c-0.1 16.8 0.5 108.6-8.3 116.7-4.8 4.4-10.2-5-4-7 6.2-1.9 7.1 8.8 0.7 8-7.7-1 1.4-35.6 1.9-41.7 2.4-24.1-3.1-53.8 2.8-76.9 1.1-4.2 6.5-2.9 6.9 0.9z"  fill="#c2e1ff" /><path d="M262.9-378.7c29.6 25.5 64.5 43.9 92.3 71.8 46.1 46.3 125.9 194.3 137.4 258.4 1.4 7.8 8.7 44.1 0.7 48.6-5.2 3-8.2-6.5-2.2-7 7-0.6 3.5 11.1-2.1 6.7-5.4-4.3-2.3-47.9-4.1-57.2-11.9-59.5-48.6-114.6-76.8-167.5-35.6-67-74.1-98.7-133.9-142.8-1.6-1.2-14.3-12.9-11.3-11z"  fill="#fff500" /><path d="M273.2 58.3c-0.3 4.3 1.2 18.1-4.8 19-5.3 0.8-6-7.6-0.7-7.8 6.2-0.2 4.4 9.9-1.4 7.6-12.1-5 6.4-31.7 6.9-18.8z"  fill="#fff" /><path d="M276.9-366.6c29.6 22.2 60.9 41.2 86 68.8 46 50.6 128.4 204.2 132.3 271.7 0.4 7.6 3.5 41.7-4.6 45.4-5 2.3-8.2-5.8-2.9-7.5 4.5-1.5 7.4 4.9 3.3 7.3-9.5 5.7-4.2-16.4-3.9-18.4 1.9-16.5 1.7-33.1-0.8-49.6-8.4-54.4-40-102.4-65.2-150.2-33.8-64.3-69.2-113.4-129.5-155.3-2.4-1.7-16.3-13-14.7-12.2z"  fill="#005bbb" /><path d="M286.3-189.6c6.1 28 14.4 55.5 29.8 79.9 34.4 54.7 101.3 84.2 92.8 158.5-0.7 5.8-1.5 26.3-7.8 28.5-4.8 1.6-8-5.2-3.7-7.8 5.1-3.1 9.5 5.2 4.1 7.6-11.3 5.3-1.6-23.2-1-26.1 3.7-20.6 2.8-41.7-5.6-61.1-18.9-43.5-65.3-68.2-88.9-109.3-12.2-21.2-20.3-45.1-25.3-69-0.8-3.7 4.4-4.6 5.6-1.2z"  fill="#005bbb" /><path d="M293-145.8c23 73.9 106.3 117.7 103.8 191.6-0.2 6.1 0.2 29-6.3 31.6-7.3 2.9-7.2-10.7 0-7.8 7.3 2.9-2.1 12.8-5.4 5.6-2.1-4.6 7.4-53.8-3.1-78.6-16.7-39.5-55.2-65.3-76.5-102.1-10.1-17.4-19.8-55.5-12.5-40.3z"  fill="#005bbb" /><path d="M300-209.8c9.6 27.1 20.6 53.5 39.8 75.4 49.3 56.2 124.3 73.3 109.7 166.1-1.5 9.8-5.1 40.2-14.2 45.8-7.4 4.5-9.9-10.4-1.5-8.6 8.5 1.8 0 14.4-4.8 7.2-4-5.9 8.5-29.2 10.3-36.2 6.3-24.4 7.1-50.5-2.5-74.1-20.9-51.6-80.3-70.8-112-114.2-11.4-15.5-27.6-40.7-29.6-60.3-0.3-3 3.6-3.5 4.8-1.1z"  fill="#fff500" /><path d="M306.8-216.9c54.9 130.6 177.1 122.5 152.2 250-1.9 9.5-6.1 39-14.9 44.1-8.9 5.3-8.7-13.5 0.1-8 7.5 4.6-4.7 13.7-7 5.2-4-15 32-66.9 8.6-120.4-22.4-51.2-79.9-71-112.8-113.7-11.2-14.5-27.6-37.5-30.6-55.9-0.5-2.8 3.2-3.4 4.4-1.3z"  fill="#fff500" /><path d=""  fill="#fff500" /><path d="M320.2-124c42.5 64.3 123.5 81.9 103.5 176.8-1.1 5.3-3 25.2-10.5 24.8-5.2-0.3-5.7-8.1-0.5-8.9 5.2-0.9 7.3 6.7 2.4 8.6-12 4.8 1-29 1.8-32.8 4.7-22.6 3.9-46.2-6.3-67.2-18.8-39-61.3-59-87.7-92.1-0.9-1.1-7.1-14-2.7-9.2z"  fill="#fff500" /><path d="M327.4-171c45.8 76.1 150.5 90 131 201.4-1.8 10-6 41.4-15.3 46.8-7.5 4.5-9.9-10.6-1.3-8.6 8.5 1.9-0.1 14.5-5 7.2-3.8-5.7 27.3-72.8 8.9-118.1-19.9-49-72.1-68.7-105.5-106-5.8-6.5-18.3-29.3-12.8-22.7z"  fill="#fff500" /><path d=""  fill="#005bbb" /><path d="M341.5-199c57.4 88.8 164.7 114.2 127.2 244.9-1.7 6-7.1 33.4-15.3 32.5-5.5-0.7-5.4-8.9 0.1-9.4 5.5-0.5 7.1 7.5 1.9 9.2-12.5 4.1 5.4-36.5 6.7-41.1 9.1-32 10.2-65.9-2.8-97.1-22.7-54.6-79.3-81.2-113.6-126.9-1-1.4-8.9-17.4-4.2-12.1z"  fill="#fff" /><path d="M349.6 19.3c2.4 7.4 14.5 55.6 3.6 57.8-5 1-6.2-6.9-1.1-7.4 5.1-0.5 5.4 7.6 0.3 7.5-7.2-0.1-2.9-20.6-3.1-25-0.3-9.4-6.6-24.1-4.8-32.7 0.6-2.9 4.1-2.5 5.1-0.2z"  fill="#fff" /><path d=""  fill="#fff500" /><path d=""  fill="#c2e1ff" /><path d="M368.8-78.6c42.8 34.8 71.5 72.8 58.6 130.7-1.2 5.5-3.3 24.2-9.7 25.9-8.2 2.2-6.5-12.4 1-8.4 7.4 4-3.9 13.5-6.5 5.4-1.4-4.2 15.1-57.7 8.6-83.2-7.1-27.9-27.3-48-48.8-65.7-1.5-1.2-4.8-5.8-3.2-4.7z"  fill="#005bbb" /><path d="M376.7-232c60.2 85.8 137.4 166.2 104.8 279-1.7 6-6.5 32-14.5 31.2-5.4-0.6-5.4-8.7 0-9.3 5.4-0.6 7.2 7.3 2 9.1-12.6 4.3 4.5-35.2 5.9-39.9 9.8-34.3 11.8-70 1.5-104.5-17.4-57.9-61.6-104.7-95.5-153.5-0.7-0.9-9-17.3-4.2-12.1z"  fill="#c2e1ff" /><path d="M383.8-228c55.4 81 127.2 159.5 101 265-1.9 7.5-7.4 39.2-15.5 41.1-8.5 1.9-6.1-13 1.3-8.6 7.5 4.4-4.5 13.6-6.8 5.3-2.8-9.7 11.8-35.9 14.4-46.4 7.4-30.2 8.3-61.5 0-91.7-15.6-57.3-57.6-104.3-90.3-152.5-0.7-1-8.8-17.5-4.1-12.2z"  fill="#fff" /><path d=""  fill="#fff500" /><path d="M378.4-399.2c9.4 38.8 31.2 73.9 45.5 111 14.2 36.8 22.4 75.5 34.6 113 11.1 34.3 26.1 67.4 34.8 102.4 0.9 3.5 5.8 13.4 1.2 15.7-3.6 1.8-6.1-4.1-2.3-5.5 3.8-1.4 5.7 4.7 1.7 5.7-2 0.5-47.2-138.3-51.4-153-20.6-73.2-45.7-115.8-66.9-179.9-1-3.1-0.6-17.7 2.8-9.4z"  fill="#c2e1ff" /><path d="M406.3 7.4c2.5 9.1 8.2 70.2-6.6 70.3-5.9 0-5.4-9.3 0.4-8.7 6.9 0.7 3.3 11.6-2.7 8.1-5.9-3.5 3.5-27.7 4.2-33.8 1.5-12.2-1.3-23.5-0.9-35.4 0.1-3.5 4.6-3.4 5.6-0.5z"  fill="#fff500" /><path d="M414.1-398.1c-4.5 38.2 13.1 76.7 23.1 112.8 9.6 34.7 15.1 70.4 24.4 105.2 12.8 47.8 35.1 93.6 39.2 143.5 1.1 12.7 4 77.9-10.7 82.9-5.6 1.9-8.1-7-2.3-8.3 5.7-1.3 7.3 7.8 1.4 8.6-10.2 1.2 0.4-25.9 1.3-30.5 5.6-29.7 5-59.6-1.6-89.1-8-36.3-22.8-70.6-32.8-106.3-10-35.8-15.5-72.6-25.2-108.4-8-29.3-19.5-58.2-23.4-88.5-2.3-18 5.7-36.4 6.6-21.9z"  fill="#fff500" /><path d=""  fill="#c2e1ff" /><path d="M426-55.9c26.3 32.6 27.9 74.2 16.1 112.9-1.5 5.1-3.5 17.4-8.1 20.3-5.4 3.3-10.2-5.5-4.5-8.2 6.7-3.2 9.4 8.9 2 8.9-10.4 0.1 0.6-19.3 1.9-23 5.6-16.6 9.4-34 9-51.6-0.2-13.2-2.8-26.2-8.1-38.3-0.8-1.9-12.8-25.7-8.3-21z"  fill="#005bbb" /><path d="M434.2-234.8c32.2 94 84 184.9 54.4 286.2-1.6 5.4-5 27.4-12.5 26.8-5.3-0.4-5.6-8.4-0.3-9.1 6.2-0.9 7 9 0.8 9.1-10.8 0.3 3.1-27.9 4.5-32.5 9.6-32 14-65.2 9-98.4-8.8-59.3-39.2-115.4-57.9-172-0.6-1.7-2-18.4 2-10.1z"  fill="#005bbb" /><path d="M441.5-257.7c7.7 30.1 13.4 60.6 22.5 90.4 22.2 72.4 48.7 135.1 28.3 211.8-1.7 6.4-5.6 31.5-12.7 33.4-6 1.6-8-8.1-1.8-9 6.2-0.9 7 8.9 0.9 9.1-10.8 0.4 3-28 4.3-32.6 9.5-32 13.8-65.2 9.2-98.4-8.3-60.5-39.2-131.8-54-194.6-0.5-2.1-0.2-19.3 3.3-10.1z"  fill="#fff500" /><path d=""  fill="#fff" /><path d="M456.9-371.4c-8.2 43.2 4.5 140.4 12 185.9 14 84.2 48.8 144.7 25.1 232.8-1.7 6.1-5.1 29-11.8 30.8-6 1.6-8-8-1.8-8.9 6.1-0.9 7.1 8.8 0.9 9-10.8 0.5 2.2-26.1 3.5-30.6 9.1-30.9 13.9-62.9 10.7-95.2-3.9-39.3-18.5-76.2-27.7-114.3-13.2-54.7-21.4-135.6-20.2-191.9 0.4-21.7 9.6-27.6 9.3-17.6z"  fill="#fff500" /><path d="M462.8-186.7c17.2 77 51.7 143.4 32.2 224.3-2.1 8.5-5.3 34.4-12.8 39.3-5.2 3.4-10.1-5-4.6-7.8 6.4-3.3 9.5 8.3 2.3 8.6-10.6 0.4 1.1-22.3 2.3-26.2 8.9-28.6 14.3-58.3 12.6-88.3-2.7-49.7-24.4-95.4-36.3-143.2-0.9-3.4 1.5-14.2 4.3-6.7z"  fill="#fff500" /><path d="M469.9-174.6c15.1 72.9 44.4 135.8 26.4 211.8-2.1 8.6-5.4 35.1-12.9 40-5.2 3.4-10.1-5-4.7-7.8 6.4-3.3 9.5 8.3 2.3 8.6-10.6 0.5 1.2-22.7 2.4-26.8 8.4-27.6 13.8-56.1 12.8-85.1-1.8-48.5-22.4-92.5-32-139.5-0.8-3.7 4.4-4.7 5.7-1.2z"  fill="#fff500" /><path d="M476.3-93.9c21.5 49.9 21.4 101.3 4.6 152.6-1.6 4.8-3.3 16.1-7.7 18.9-5.4 3.3-10.2-5.4-4.5-8.2 6.7-3.2 9.4 8.7 2.1 8.9-10.3 0.1 0.3-18.9 1.5-22.5 7.2-20.9 12.6-42.5 14-64.6 1.7-27.1-15.3-76.9-14.5-84.4 0.3-2.6 3.4-2.6 4.5-0.7z"  fill="#005bbb" /><path d="M484.2-39.5c5.7 30.1 1.7 60.8-7.2 89.9-1.8 5.7-5.9 28.8-13.7 27.9-7.4-0.8-3.4-12.5 3-8.7 6.4 3.8-2.1 12.8-6.3 6.6-4.2-6.2 10.1-33.1 12.1-40.6 6.8-24.4 5.2-99.5 12.1-75.1z"  fill="#fff" /><path d=""  fill="#fff" /><path d="M498.6-396.8c-24.6 58.1-28.9 178.1-17.7 240.3 7.8 43.4 23.7 85.1 24.8 129.6 0.2 10.2-1.4 79.4-14.4 79.5-8.1 0-2.9-13.1 2.9-7.5 5 4.8-4.5 11.2-7 4.7-0.8-2 12-70.2 11.2-87.2-2-46.3-19.7-89.8-26.3-135.4-8-55.5-2.7-117.2 4.1-172.7 2-16.5 4.3-41.8 14.2-55.7 3.3-4.7 9.5-0.5 8.2 4.4z"  fill="#005bbb" /><path d="M506.6-222.8c-26.4 83.7 16.2 167.4-0.8 252.6-1.5 7.3-7.3 48-15.9 47.8-8.3-0.2-2.6-13.4 3.3-7.6 5 5-4.9 11.3-7.3 4.7-1.8-4.9 16.3-70.2 17.5-83.4 5.1-56.8-16.3-111.2-13.6-167.7 0.7-14.6 1.2-36.9 8.7-49.8 2.7-4.7 8.8-1.3 8.1 3.4z"  fill="#fff500" /><path d="M513.2 0.4c-1.5 15.4-4 66.7-16.8 76.3-5.6 4.2-10.3-6.4-3.6-7.8 6.8-1.4 6.7 10.2-0.1 8.5-8.4-2 3-27.7 4.4-33.1 3.6-14.4 3.6-32 8.7-45.7 1.7-4.4 7.4-2.4 7.4 1.8z"  fill="#fff500" /><path d="M520-120c-1.5 60.9 5.5 117-7.6 177.6-1 4.7-1.4 16.1-5.2 19.3-5.2 4.3-10.3-5.6-3.8-7.3 6.5-1.7 7 9.4 0.3 8.2-6.1-1.1 9.8-72.2 10.9-82 4-38.9-2.6-77-1.7-115.8 0.1-4.7 6.6-4.4 7.1 0z"  fill="#c2e1ff" /><path d="M527.8-290.5c-12.8 36.4-29 71.9-32.1 110.9-5.9 74 25.1 138.4 8.4 215-1.5 6.8-6.5 42.7-14.9 42.4-7.1-0.2-4.2-11.6 2.2-8.4 7.4 3.7-3.4 13.3-6.2 5.5-1.9-5.3 16.5-70.4 17.7-84 5.4-62.4-20.8-122.5-13.5-184.7 3.6-30.2 13.2-75 30.3-100.7 3.1-4.7 9.2-0.8 8.1 4z"  fill="#fff500" /><path d="M535-228.5c-18.6 32-27.5 65.9-25.9 102.9 2.7 63.2 11.8 119.2-3.8 182.1-1.3 5.1-2.1 17.3-6.3 20.5-5.5 4.2-10.3-6.2-3.6-7.7 6.8-1.5 6.8 10 0 8.5-5.8-1.3 11.4-70 12.5-79.8 6.9-60.7-15.6-122.2-1.4-182.1 3.6-15.2 9.5-38.6 20.4-50.4 4.2-4.6 10.2 0.8 8.1 6z"  fill="#fff" /><path d="M542.1-235.3c-21.1 33.2-33 68.2-32 107.9 1.6 63.1 11.5 119.3-3.7 182-1.3 5.4-2.3 19.1-6.7 22.5-5.5 4.2-10.3-6.2-3.6-7.6 6.7-1.5 6.8 9.9 0 8.4-5.8-1.3 11.5-71.8 12.6-81.7 6.6-61.7-16.5-124.9 0.9-185.5 4.6-16 12.2-40.4 24.4-52.4 4.5-4.5 10.5 1.3 8.1 6.4z"  fill="#c2e1ff" /><path d="M549.1-219c-51.6 73.4-19 157-31.5 239.4-1.8 11.7-3.4 49.2-12.7 56.6-5.3 4.3-10.3-5.8-3.7-7.4 6.6-1.7 6.9 9.6 0.3 8.3-6.5-1.2 9.6-66.7 10.7-76 7.2-59.2-12.2-121 4.9-178.8 4.4-15 12-38.2 24-49.1 4.8-4.4 10.7 1.8 8 7z"  fill="#c2e1ff" /><path d="M555.8-112.3c-3.6 18.2-7.5 189.9-13.8 189.5-4.8-0.3-3.9-7.9 0.9-7.1 4.1 0.7 3.7 6.9-0.5 7.1-7.8 0.3-2.6-38.3-2.3-44.1 2.7-48-1.3-99.5 7.7-146.8 1-5.3 8.3-3.7 8 1.4z"  fill="#fff500" /><path d=""  fill="#fff500" /><path d="M580.4-399.1c33.2 127.8-51.9 132.8-68.3 236.6-2.9 18.6 7.4 110.8 4.2 115.6-3 4.4-9.1-2-4.6-4.8 5.4-3.2 7.1 7.6 1 6.2-5.9-1.3-4.7-30.9-5.3-36.4-7.3-68.7-0.7-120.3 38.4-178.8 11-16.4 22.9-32.7 30.4-51.1 7.5-18.5 8.7-38 5.4-57.6-0.9-5.4-9.4-26.7-5.9-30.8 1.6-1.8 4-0.8 4.7 1.1z"  fill="#c2e1ff" /><path d="M576.1 59.6c0.4 3.6 4.3 14.6-0.1 16.6-4.4 2-6.1-5.9-1.2-5.9 4.2 0.1 3.7 6.6-0.5 6.1-12-1.5-0.9-27.7 1.8-16.8z"  fill="#fff" /><path d="M583.6-345.8c0.2 75.4-76.9 123.4-75.8 210.4 0.8 65.4 13.6 123.4-2.3 188.7-1.4 5.6-2.6 20.3-7.2 23.8-5.5 4.2-10.3-6.3-3.6-7.7 6.8-1.5 6.7 10 0 8.5-8.1-1.8 1.2-21.4 2.3-26 6.3-24.8 11.1-50 12.1-75.7 2.1-55.3-16.9-110.7-2.9-165.5 12.5-49 51.4-84.7 65.9-132.3 2.2-7.4 1.1-19.9 4.8-26.2 2-3.5 6.5-1.5 6.7 2z"  fill="#fff500" /><path d="M591.4-270.6c-43.8 58.4-77.1 90.8-73.2 169.2 2.7 54.6 4.7 104.8-7.4 158.7-1 4.3-1.8 22.3-9.3 20.1-6.5-2-1-11.7 4.1-7.3 5.1 4.5-4 11.1-6.8 4.9-4.8-11.1 9.5-45.7 11.6-58.3 10.5-65.4-12.4-135.5 9.1-198.7 10.9-32.1 37.2-75.1 64.1-96.3 5.3-4.2 10.9 2.6 7.8 7.7z"  fill="#fff500" /><path d="M598.6-144.7c-29.4 52-23.3 121.2-19.2 178.7 0.5 6.7 7.8 37.7 3.7 41.8-3.4 3.3-7.6-3.4-3.1-5 4.5-1.6 5.4 6.3 0.7 5.8-7.3-0.7-8-43-8.4-49.5-3.3-47.2-6.9-99.7 5.6-145.8 2.2-8.2 5.9-27.2 13.4-32.4 4.6-3.2 9 1.9 7.3 6.4z"  fill="#c2e1ff" /><path d="M603-303c-27.5 71.6-87.5 87.6-87.3 181.4 0.1 32.7 5.7 65.1 4.9 97.8-0.2 10.1-7 93-17.9 89.7-5.5-1.7-2.5-10.2 2.9-8 6.2 2.6-0.2 11.8-4.8 6.8-6-6.6 9.4-54.4 10.7-64.8 7.2-61.4-14.3-125.8 5.9-185.4 14.3-42.1 46.9-71.1 69.7-108 2.4-3.9 6.3-18 12.9-15.9 2.9 0.9 3.8 3.8 3 6.4z"  fill="#005bbb" /><path d="M602.7-267.6c-41.1 50.9-81.1 88.7-80.9 158.8 0 13.9 6.5 149.9-8.4 146.5-5.4-1.3-2.9-9.7 2.3-7.8 5.2 1.8 1.9 9.9-3.1 7.5-6.2-3 1.8-28.8 2.5-34.7 7.3-61.1-12.1-126.7 11.3-185.2 12.6-31.5 40.9-72.9 68.7-93.2 5.6-4.1 11 3.1 7.6 8.1z"  fill="#fff" /><path d=""  fill="#c2e1ff" /><path d=""  fill="#fff" /><path d="M602.7-260c-46.1 51.8-80.8 92.3-78.7 165.5 0.5 16 1.3 177.2-17.1 172.1-4.7-1.3-3.5-8.4 1.2-8.2 5.7 0.3 4.7 9.2-0.8 8.3-8.2-1.3 4-41.2 5.1-47.6 11.9-67.8-9.7-143.9 15.6-208.5 12-30.5 39.5-71.7 67.3-90.3 5.9-3.9 11.1 3.6 7.4 8.7z"  fill="#fff" /><path d=""  fill="#fff500" /><path d=""  fill="#fff" /><path d="M602.7-207.6c-69.6 64.8-54.4 148.5-62 234.8-0.9 10.3 1.7 41.4-4.9 49-4.5 5.2-10.1-5.5-3.2-6.2 5.9-0.6 4.7 9.2-0.9 7.2-8-2.8 3-68.6 3.6-78.2 4.1-58.1-5.5-121.3 25.5-173.7 8-13.6 20.7-34.3 34.8-42.4 6.3-3.7 11.3 4.4 7.1 9.5z"  fill="#fff" /><path d=""  fill="#fff500" /><path d=""  fill="#005bbb" /><path d="M602.6-200.9c-59.5 57.1-52 126.9-56.3 202.7-0.6 10.3 2.5 41.6-4.2 49.2-4.6 5.2-10.1-5.5-3.1-6.1 5.9-0.6 4.7 9.2-0.9 7.2-7.3-2.6 1.5-62.5 1.9-71.5 2.3-54.8-2.7-111.3 29-159.3 5.7-8.6 17.3-28.8 27.7-32.1 6.3-1.9 9.5 5.4 5.9 9.9z"  fill="#fff500" /><path d=""  fill="#fff500" /><path d=""  fill="#005bbb" /><path d=""  fill="#c2e1ff" /></svg>