<svg width="1200" height="675" viewBox="-500 -500 1200 675" xmlns="http://www.w3.org/2000/svg"><path d="M-500-500h1200v675h-1200z" fill="#000"/><path d=""  fill="#005bbb" /><path d=""  fill="#005bbb" /><path d=""  fill="#005bbb" /><path d=""  fill="#005bbb" /><path d=""  fill="#fff500" /><path d=""  fill="#005bbb" /><path d=""  fill="#005bbb" /><path d=""  fill="#fff500" /><path d=""  fill="#005bbb" /><path d=""  fill="#c2e1ff" /><path d=""  fill="#fff500" /><path d=""  fill="#c2e1ff" /><path d=""  fill="#c2e1ff" /><path d=""  fill="#005bbb" /><path d="M-380.5-395c-3.3 5.7-12.7 29.3-22 22.6-7-5.1 1.6-15.7 8.1-9.9 6.4 5.8-3.3 15.4-9.1 8.9-12.1-13.7 33.5-45.4 23-21.6z"  fill="#005bbb" /><path d="M-367.1-6.9c-4.9 6.7-28 39.7-37.3 27.6-6.1-8 7-17 12.3-8.4 5.2 8.6-8.8 16.1-13.1 7-3.3-7 24.8-35.7 31.7-36.9 6.4-1.1 9.3 5.9 6.4 10.7z"  fill="#c2e1ff" /><path d=""  fill="#005bbb" /><path d="M-350-354.3c-39.9 82.8-47.3 76.8-44.7 190.4 0.2 8.5 8.8 80.5-5.2 77.1-5.6-1.3-4.5-9.8 1.3-9.7 6.7 0.1 6 10.7-0.7 9.8-8.8-1.1-1.8-20.8-1.5-25.7 3.8-50.9-13.7-110.1-1.2-158.2 4.7-18.2 29.6-81.4 43.2-91.2 5.3-3.8 10.7 2.1 8.8 7.5z"  fill="#c2e1ff" /><path d="M-341.5 64c-2.4 4.5-9.9 22.7-17.3 13.1-3.8-4.9 1.5-11.8 7.2-9.6 6.7 2.6 3.9 13.1-3.2 11.9-11.5-1.8 0.1-20.5 4.7-23.5 5.6-3.7 10.9 2.7 8.6 8.1z"  fill="#005bbb" /><path d="M-352.7-395.8c-4.8 11.7-38.4 88.3-48.6 82.8-7-3.7-0.5-14.4 6-9.9 6.5 4.5-1 14.4-7.1 9.2-7.7-6.5 33-79.1 39.8-87.9 4.3-5.6 11.6-0.2 9.9 5.8z"  fill="#c2e1ff" /><path d="M-324.4-197.1c-18.2 31.2-38.7 181.9-73.1 187.9-9.4 1.7-11.2-13.2-1.7-13.9 11.1-0.7 8.4 17.5-2 13.6-11.3-4.3 24.6-48.6 28.7-58.4 18.3-43.3 14.2-93.3 37.3-135 3.9-7.1 13.5-1.4 10.8 5.8z"  fill="#fff" /><path d="M-316-342.2c-25.5 51.4-66 89.9-69.3 150.4-1.1 19.2 4.5 115.7-10.4 125.4-7.4 4.8-12.5-8.9-3.8-10.1 8.7-1.2 7.6 13.4-0.8 10.8-8.1-2.5 5.6-43.2 6.2-51.6 3.6-45.5-5.7-90.7 11-134.7 10.8-28.4 37.4-74.7 57.3-97 4.9-5.5 12.1 0.7 9.8 6.8z"  fill="#005bbb" /><path d="M-307.9-42.1c-3.6 21.1-29.6 114.5-49 121.5-9.5 3.4-11.7-13.2-1.6-12.3 10.1 0.9 5.1 16.9-3.7 11.9-10.1-5.8 15.1-37.5 18.8-44.9 8.4-16.8 20.3-72 26.8-80.1 3.4-4.3 9-0.7 8.7 3.9z"  fill="#fff" /><path d="M-298.9-199.8c-40.7 63.7-25.6 145.9-77.5 204.8-5 5.7-12.1 15.5-19.3 18.3-10.9 4.4-14.2-14.9-2.4-14.3 11.8 0.6 6.6 19.5-3.8 14-12.3-6.5 32.1-43.5 44.7-70.7 18.6-40.5 17.7-86.1 32.9-127.6 13.6-36.8 32.7-41 25.4-24.5z"  fill="#005bbb" /><path d="M-290.6-167.3c-29.1 79.8-8.9 146.6-61.6 226.2-3.8 5.7-10.3 19.4-17 21.2-8.8 2.4-11.7-11.6-2.8-13 10.5-1.6 9.4 15.9-0.8 13-13.7-3.9 6.4-23.3 9.6-27.9 13.7-19.5 24.7-40.6 32.4-63.2 16.5-47.8 14-98.4 26.2-146.9 6.5-25.7 15.5-17.1 14-9.4z"  fill="#fff" /><path d="M-282.2-157.8c-14.1 50.6-11.4 197.8-38.7 234.5-5.1 6.9-14.5-3.9-6.9-8 8.8-4.8 10.9 12.6 1.2 10-9.6-2.6 10.4-55.3 12.4-64.1 12.4-54.7 9.3-110.7 19.9-165.3 1.4-7.3 13.7-20.9 12.1-7.1z"  fill="#fff" /><path d="M-274.3 45.2c-0.2 5.9 2.9 33.2-5.8 32.5-5.9-0.5-4.6-9.8 1.2-8.6 5.8 1.1 3.5 10.2-2.1 8.4-13-4 4.7-56.1 6.7-32.3z"  fill="#fff" /><path d="M-265.8-113.9c-0.8 18.7-1.8 192.2-9.6 191.8-5.8-0.4-4.7-9.5 1-8.6 5.7 1 3.7 10-1.9 8.4-7.7-2.2-2.6-34.1-2.5-40.5 1.3-50.3 1.2-101.2 4.2-151.3 0.3-5.8 8.3-5.2 8.8 0.2z"  fill="#005bbb" /><path d="M-256.4-196.7c-31.5 68.3-21 151.5-27.5 224.9-0.6 7.1-0.5 51-9.5 49.6-6.2-0.9-4.2-10.6 1.8-9 6 1.6 3 11-2.8 8.8-8.2-3.1 1.7-54.8 2.5-63.7 4.9-56.9 0.3-116.9 11.7-172.9 2.2-11.1 5.7-37 14.9-44.5 5-4 10.5 1.5 8.9 6.8z"  fill="#fff" /><path d="M-248.1-386.5c-26.6 93.1-100.9 128.3-117.5 199.8-7.7 33.1-2.7 117.8-28.9 141.1-7.3 6.5-15.3-7.7-5.9-10.5 11-3.3 9.3 16.6-0.9 11.5-6-3 16.5-58.6 18-69.3 5.9-41.4 3.4-83.1 24.2-120.9 23.3-42.3 64.3-71.3 85.8-115 6.3-12.8 8.5-28.9 15.5-40.9 3.3-5.6 10.6-1.5 9.7 4.2z"  fill="#fff500" /><path d="M-239.4-287.4c-25.9 40.3-64.7 71.8-82.6 117.1-23.2 58.3-17.2 120.7-62.5 169.8-3.5 3.8-20.9 20.3-21.5 4.2-1-27.5 28.9 18.3 4.1 6.3-11.8-5.7 30-46.9 38-64 25-53.2 19.6-113.4 53.5-163.5 8.4-12.4 54.2-74.5 62.7-79.1 6.2-3.3 11.1 3.8 8.3 9.2z"  fill="#c2e1ff" /><path d="M-231.7-116.8c-2.4 48.9-7.3 97.9-8 146.9-0.1 6.8 4.1 47.2-3.6 47.1-5.6-0.1-5-8.9 0.6-8.2 5.5 0.7 4 9.3-1.5 8.1-7.5-1.8-4-32.5-4-38.9-0.2-40.7 3.7-81 6-121.6 0.6-10.7-1.2-24.6 1.8-34.9 1.5-5.2 8.3-3.3 8.7 1.5z"  fill="#fff" /><path d=""  fill="#fff" /><path d="M-213.9-304.5c-22.6 50.4-65 90-82.7 142.7-26 77.3-11.4 146.6-67 215.9-6.2 7.7-14.9 21.3-23.9 25.7-10.1 5.1-14.7-13.1-3.4-13.4 11.3-0.4 7.9 18.1-2.5 13.6-14.4-6.1 13.4-27.8 17.6-32.6 17.3-19.9 31-42.5 40.2-67.2 20.2-54.4 13.9-114.6 37.1-168 13.9-32 36.3-59 55-88.1 6-9.4 12.2-29.3 20.8-35.8 5.2-3.9 10.6 1.9 8.8 7.2z"  fill="#fff" /><path d=""  fill="#fff" /><path d="M-197.1-390.7c-34.5 136.1-77.8 124.3-118 215.7-19.6 44.5-26.6 170.1-80 192.6-10.8 4.5-14.3-14.6-2.6-14.2 11.7 0.4 6.9 19.2-3.6 14-13.9-7 13.5-26.1 17.8-31.1 16.4-18.8 27.5-41.3 34.2-65.3 11.6-41.6 13-84.6 34.4-123.1 28.3-50.7 73.8-87.5 94-143.5 5.5-15.1 6.8-34.9 14.2-48.8 3-5.6 10.3-1.9 9.6 3.7z"  fill="#fff500" /><path d="M-188.9 58.6c-0.7 4.4 0.7 20.5-7.1 19.3-6.1-0.9-4.2-10.5 1.8-8.9 5.1 1.3 4 9.2-1.3 9-7.9-0.3-4.6-19-2-22.7 3-4.3 8.6-1.2 8.6 3.3z"  fill="#c2e1ff" /><path d="M-180.3 62.8c-0.7 3.7-0.7 19.2-8.7 14.7-4.8-2.6-1.6-10.2 3.6-8.7 5.2 1.6 3.8 9.6-1.7 9.2-7.3-0.5-4.1-14.1-2.5-17.9 2.3-5.5 9.5-2.6 9.3 2.7z"  fill="#c2e1ff" /><path d="M-172.1-193.7c-6.7 88.9-30.3 138.5-39.7 215.6-1.5 11.9 2.7 45.5-4.1 54.4-4.8 6.3-11.9-5.5-4.1-6.8 6.7-1.1 6 10.1-0.4 8.3-6.7-1.9-3-20.1-2.9-25 1.6-46.5 12.5-90.1 24.7-134.7 4.5-16.5 16.7-112.1 18.2-114.5 2.6-4.2 8.2-1.6 8.3 2.7z"  fill="#fff" /><path d=""  fill="#fff500" /><path d="M-154.6 69.2c-6 23.2-15.8-5.5-4.3-0.6 10.3 4.3-6 16.2-7 5.1-1-11.1 12.5-14.3 11.3-4.5z"  fill="#c2e1ff" /><path d="M-145.8 35.1c-3.3 7.8-8.8 40.3-16 43.1-7.4 2.9-9.6-10.2-1.6-9.7 8 0.5 4.4 13.2-2.7 9.5-7.4-3.9 6.1-50.8 15.1-50.7 4.2 0.1 6.1 4.1 5.2 7.8z"  fill="#fff500" /><path d="M-137.8-261.3c-7.4 44.6-3.6 90.4-13 134.8-9.2 43.2-31.2 82.1-42.9 124.5-3.4 12.3-8.8 73.7-12.3 78-4.4 5.4-11.5-3.7-5.3-6.7 7.3-3.6 8.4 10.5 0.6 8.1-13-4.1 6.4-80.4 9.5-91.4 9.4-33 25-63.7 35.3-96.3 15.9-50 9.7-101.5 18.6-152.4 1.1-6.3 9.7-4.6 9.5 1.4z"  fill="#005bbb" /><path d="M-129.4-242.5c-5.2 41.7-2.4 84-13.3 125-11.5 43-35.6 81.1-47.6 123.9-4.8 16.9-8.7 68.3-12.9 70.9-6 3.7-9.8-7.4-2.8-8.2 7-0.8 5.8 10.8-0.9 8.6-13.3-4.4 8.1-80.4 11.5-91.2 10.4-32.7 27.4-62.7 38.7-95 15.6-44.4 12-89.3 18-135 0.8-6.1 9.2-4.9 9.3 1z"  fill="#005bbb" /><path d="M-131.7-397.4c-10 52-25.2 103.3-33.1 155.7-6.8 45.1-5.6 91-15.2 135.8-2.7 12.3-24.4 105.4-32.2 103.4-7.6-1.9-1.8-13.6 4.4-8.7 6.1 5-4.1 13.1-7.6 6.1-4.7-9.6 26.5-105.1 29.8-123.9 7-39.9 6.4-80.7 12.4-120.8 7-47.2 20.6-93.3 29.9-140.1 1.2-5.9 12.6-21.6 11.6-7.5z"  fill="#fff500" /><path d="M-111.9 56.7c-1.8 5-4.1 25-12.8 21.9-5.8-2.1-3.7-11 2.4-10.2 7.1 0.9 5.1 12.1-1.9 10.4-8.7-2.1-0.3-24.2 3.4-27.7 4.3-4.2 10 0.6 8.9 5.6z"  fill="#c2e1ff" /><path d="M-103.7-146.2c-9.5 64.4-51.2 112.4-70.9 172.9-2.8 8.7-5.9 47-12.8 50.5-6.6 3.4-9.8-8.4-2.4-8.8 7.4-0.3 5.3 11.8-1.5 9-12.5-5.1 11.1-68.5 14.9-78 13.3-33 34.1-62.3 47.9-95.1 6.1-14.6 7.2-42.5 16.1-54.2 3.2-4.3 8.8-0.9 8.7 3.7z"  fill="#fff500" /><path d="M-94.8-13.9c-4.3 11.1-35 94.5-42 92-6.8-2.4-2.4-12.9 4-9.7 6.5 3.1 1 13.1-5.1 9.2-10.5-6.5 26.8-87.9 33.3-96.9 4-5.6 11.4-0.5 9.8 5.4z"  fill="#005bbb" /><path d="M-86.5-386.7c-11 44-30.3 85.5-37.9 130.5-7.8 45.7-3.4 92.8-15.4 137.9-10.7 40.3-33.1 75.9-46.1 115.4-2.6 7.9-10.6 59.4-17.5 58.2-8.6-1.5-0.7-14.4 4.5-7.4 4.4 5.9-6.8 11-8.3 3.8-8.5-40.6 44.1-130.4 56.6-171 17.1-55.6 9.1-115 23.2-171.3 7.1-28.6 17.6-74.8 31.4-99.9 3.1-5.6 10.4-1.7 9.5 3.8z"  fill="#c2e1ff" /><path d=""  fill="#c2e1ff" /><path d=""  fill="#c2e1ff" /><path d="M-60.8-227.3c-16.3 43.7-12.5 92.2-23.7 137.3-11.5 46.2-37.3 85.2-55.6 128.6-2.8 6.8-10.3 42.3-18.8 39.8-7.8-2.4-1.2-14.1 4.9-8.8 6.1 5.4-4.9 13.3-8.1 5.9-7.2-16.5 47.8-114.6 56.2-135 21.1-51.5 18.3-105.4 31.2-158.4 1-4.2 1.7-11.9 4.9-15 4.3-4.2 10 0.5 9 5.6z"  fill="#c2e1ff" /><path d="M-53.1-133.9c-0.6 34.3 1.3 187.7-8.2 209.4-3.4 7.8-13.8-2.7-6-6 6.7-2.8 8.9 9 1.7 8.8-8.8-0.3-0.8-57-0.4-65.3 1.7-31.8-1.7-124.9 4.4-148.1 1.3-5.1 8-3.5 8.5 1.2z"  fill="#005bbb" /><path d="M-44.9 42.8c0.3 5.6 5.7 35-2.9 34.7-5.7-0.2-4.9-9.1 0.7-8.3 5.6 0.8 3.9 9.6-1.6 8.2-11-2.8-0.5-59.4 3.8-34.6z"  fill="#005bbb" /><path d="M-35.1-363.9c-21.8 38.5-49.3 72.3-60.6 116-12.2 47.2-7.7 96.9-23.3 143.5-18.3 54.8-55.7 99.9-66.3 157.9-2.8 15.3-13.8 4-8.4-0.2 8.4-6.4 10.5 12.6 0.9 8.2-10.2-4.6 8.2-52.7 11.3-60.9 12.8-34.3 33.9-64.5 48-98.2 24.8-58.9 14.5-124.4 37.3-183.8 7.1-18.7 37.6-81.6 52.5-90.9 5.8-3.6 10.9 3 8.6 8.4z"  fill="#c2e1ff" /><path d="M-28.2-130.6c8.4 64.8 42.3 107.1 84 154.5 4.3 4.9 40 48.4 33.9 51.4-3.3 1.7-4.9-4.3-1.1-4.4 3.7-0.1 2.6 6-0.8 4.5-7.5-3.1-17.1-27.1-22.4-34.1-26.8-36.2-62-64.5-81.5-106-8.3-17.6-21.3-45.8-19.5-65.6 0.4-4.5 6.3-4.1 7.4-0.3z"  fill="#fff" /><path d="M-20.5-64c14.2 43.5 80.9 121.3 84 137.1 0.7 3.7-5.5 3.6-4.6-0.1 1-4.3 7.2 0.1 3.6 2.5-5.2 3.4-79.3-113.5-85.3-128.4-1.3-3.1-2.3-20.2 2.3-11.1z"  fill="#c2e1ff" /><path d="M-9.7-352.8c-27.3 34.9-59.1 64.7-73.1 108.1-15.4 47.9-10.6 99.5-27 147.3-18.3 53.1-55.6 96.7-67.8 152.4-3.2 14.4-14.4 3.1-8.5-1.2 8.8-6.3 10.4 13.2 0.6 8.4-22-10.9 51.4-132 58.1-146.3 28.5-61.6 16.7-132 45.3-193 8.7-18.6 47.2-78.6 64.5-86.1 6.8-2.9 11.3 5 7.9 10.4z"  fill="#fff500" /><path d=""  fill="#c2e1ff" /><path d="M6.8-286c-24.9 18.7-45.9 41.2-56.4 71.1-14.6 41.7-11 88-16.2 131.3-4.8 40.1-15.1 78.6-27.3 117.1-2.2 7-10.1 48.3-19.6 45.1-7.9-2.7-0.7-14.5 5.3-8.8 6 5.7-5.4 13.5-8.5 5.8-5.4-13.6 15.2-53.7 19.6-67.9 24.7-79.2 21.7-196.1 43.3-244.4 9.5-21.3 29.8-52.3 52-62.2 8.5-3.8 13.6 7.1 7.8 12.9z"  fill="#fff" /><path d="M13.8-147.9c11.1 47.2 50.7 76.8 78.3 113.9 22.5 30.3 33 65.3 45.6 100.3 0.5 1.3 5.2 10.2-0.5 10.1-3.4-0.1-3.9-5.1-0.5-5.8 3.3-0.7 4.9 4.1 1.8 5.5-3.6 1.6-31.9-77.2-36.6-86-20.3-38.9-55.7-65.6-78.7-102.4-6.6-10.5-12-21.9-15.7-33.8-1.3-4.2 4.7-5.6 6.3-1.8z"  fill="#fff500" /><path d="M14.2-396.2c-25.4 65-88.8 101.4-103.3 173.4-13.4 66.5-11.7 116.7-46 178.5-3.1 5.7-7.7 19.2-13.7 21.8-8.9 3.9-12-11.8-2.4-11.6 9.7 0.2 6 15.8-2.7 11.6-9.5-4.6 4.4-21.2 7.1-26 12.4-22 24.1-44.3 31.4-68.6 15.7-52.5 9.1-109.1 32.4-159.8 16.7-36.4 45.9-63 69.2-94.8 6.2-8.4 11.4-25.1 19.2-31.3 5-3.9 10.4 1.6 8.8 6.8z"  fill="#005bbb" /><path d="M22.5-396.3c-26.2 66-93.3 100.6-109 173.8-6.3 29.6-17.7 164.6-46.6 177.4-8.9 3.9-12.1-11.9-2.4-11.7 9.7 0.2 6 15.8-2.8 11.6-7.4-3.6 24.4-67.6 27.3-78.7 13.1-50.5 8-104 31.1-152 18-37.4 49.4-63.7 74.1-96.2 7.1-9.4 11.4-21.1 18.5-30.1 4.3-5.5 11.6 0 9.8 5.9z"  fill="#fff500" /><path d="M37.3-66c36.8 40.6 68.5 71.7 89.6 123.4 1.3 3.2 9 15.1 5.2 18.1-4.1 3.2-6.7-5.4-1.5-5 4.4 0.4 2.2 7.4-1.7 5.2-3.9-2.2-26.1-59.3-31.8-69-15.9-26.6-38.7-46.7-60.1-68.7-1.3-1.4-2.9-6.7 0.3-4z"  fill="#005bbb" /><path d="M46.2 36.9c5.5 7 25.6 27.7 24.5 36.6-0.4 3.7-6.2 1.6-4.3-1.5 1.9-3.1 6.3 1.1 3.3 3.2-4.3 2.9-10.3-12.6-11.8-15-14.9-23.4-17.4-29.2-11.7-23.3z"  fill="#fff500" /><path d="M57.7-299.8c-97.8 72.2-114.3 106.3-89.8 230.2 9.7 48.8 32.7 89.6 54.8 133.6 1.8 3.5 3.4 13.9 0.2 11.7-11.1-7.5 14.3 2.6 1.1 0.4-6.3-1-19-35.2-22.4-41.5-38.6-71.7-70-171.4-41.6-252.2 13.1-37.5 52.9-80.5 90.3-95.5 8.7-3.5 13.5 7.7 7.4 13.3z"  fill="#fff" /><path d="M66.3-185.7c-6.5 48.9 30.8 93.7 47.6 137.1 10.4 26.7 16.7 54.4 23.2 82.1 1.3 5.5 13.7 41.1 8.3 42.6-4.7 1.3-5.1-6.8-0.3-6 4.8 0.8 1.8 8.3-2.2 5.6-6.3-4.3-18.9-69-21.9-80.6-13.3-52.3-45-96.2-59.6-147.3-2.8-9.7-7.2-25.2-4.1-35.2 1.7-5.3 8.6-3.3 9 1.7z"  fill="#fff" /><path d="M71.3-50c16.7 17.7 72.5 103.7 66.8 124-1.3 4.4-7.9 0.8-5-2.7 3-3.5 7.5 2.6 3.4 4.5-4.9 2.2-25.5-58.8-28.8-66.1-9.9-21.6-23.3-39.8-38.6-57.7-1.3-1.5 0.8-3.3 2.2-2z"  fill="#005bbb" /><path d="M83.5-281.3c-48.6 41.9-96 85.7-65.9 155.3 27.4 63.2 80.9 84.4 111 169.1 3 8.6 10.2 21 10.6 29.9 0.2 5.4-8.6 2.3-5.1-1.8 3.5-4.1 7.8 4.3 2.5 4.8-6.1 0.6-31.9-77.4-37.3-86.9-33.9-60.6-109.2-101.4-99-180.5 5-38.7 40-84.7 75.1-102.2 8.1-4 13.6 6.4 8.1 12.3z"  fill="#fff500" /><path d="M92.5-386.5c-31.9 76.7-129.4 94.6-152 178.1-16.5 61.1-11.3 123.6-34.9 183.8-2.4 6.1-9.5 34.6-19.4 29.5-7-3.6-0.7-14.4 5.9-10 7.7 5.1-3.3 15.7-8.2 7.9-5.7-9.2 20.6-56.2 24.1-68 17.9-60.6 7.1-130.5 37.9-186.9 25.2-46.1 73.8-66.9 109.5-102.8 10.3-10.4 17.5-30.6 28.3-38.8 5.1-3.9 10.5 1.9 8.8 7.2z"  fill="#fff" /><path d="M97.9-69.1c8 14.4 57.7 142.5 46.5 145.6-4.6 1.3-5.1-6.7-0.3-5.9 4.8 0.7 1.8 8.2-2.2 5.5-11.5-7.7-15.7-52-19.2-65.2-7.6-28.9-30.5-74.7-29.3-79.5 0.6-2.3 3.3-2.3 4.5-0.5z"  fill="#fff" /><path d="M102.6-396.8c-25.2 82.2-125.9 99.1-154.7 178-8.9 24.3-13.1 139-22.3 147.3-6.9 6.2-12.4-8.9-3.2-8.7 7.9 0.2 4.7 12.9-2.3 9.4-7.4-3.7 3.2-41.7 4-49.5 5.5-53.4 4.3-108.2 40.5-151.8 29.7-35.8 74.5-54.4 104.6-89.6 9.6-11.2 14.5-31.8 24.6-41 4.5-4.1 10 0.8 8.8 5.9z"  fill="#005bbb" /><path d="M118.1-262c-84.4 111.8-12.3 144.1 17.8 284 2.4 11.3 16.1 42.3 12.6 52.5-1.9 5.4-9.4-1.1-4.3-3.7 4.3-2.3 6.4 5.5 1.5 5.8-10.3 0.5-24.4-88.6-27.2-99.7-14.2-55.1-58.8-114.9-49.2-173.4 3.9-24 20-58.9 39.3-74.6 6.3-5.1 13.1 2.9 9.5 9.1z"  fill="#005bbb" /><path d=""  fill="#c2e1ff" /><path d="M132.3-397.5c-17.5 99-130.4 108.8-158.7 194-12 36.2-7.4 77.3 1.9 113.6 0.9 3.4 12.7 33.6 4.9 30.9-3.2-1.1-2.1-5.9 1.3-5.5 3.3 0.4 3.3 5.4-0.1 5.7-6.5 0.7-12.7-30.1-14.1-35.4-15.5-60-14.9-126.4 31.7-172.5 31.4-31.2 73.5-49.5 100.7-85.3 10.7-14.1 14.9-39.5 23.7-49.8 3.6-4.2 9.2-0.4 8.7 4.3z"  fill="#c2e1ff" /><path d="M143.6-311.8c-29.5 53.1-96.1 93.8-77.3 162.7 14.7 53.9 49.2 92.5 69.1 176.7 2.3 9.9 14.9 37.5 11.9 46.5-1.8 5.4-9.3-1-4.3-3.6 4.3-2.3 6.4 5.5 1.6 5.7-9.6 0.5-23.6-79.8-26.5-90.1-16-57.2-72.8-124.8-62.5-184 4.1-23.7 65.8-114 79.5-122.4 5.8-3.6 10.9 3.1 8.5 8.5z"  fill="#fff500" /><path d="M151.6-74.1c-7.8 39.9-8.5 82.1-1.8 122.2 0.8 4.8 8.4 25.4 3.9 28.2-3.7 2.3-7-3.7-3-5.6 4.6-2.2 6.5 6 1.4 6.1-20.1 0.2-16.7-138.1-9.8-153.8 2.4-5.5 9.6-2.5 9.3 2.9z"  fill="#005bbb" /><path d="M160.2-398.4c1.3 110.2-117.7 148-112.8 228.6 3.1 51.7 48.1 93.4 67.3 139.6 1.1 2.6 11.1 20.8 3.2 20.5-3.6-0.2-3.9-5.5-0.3-6.1 3.5-0.6 5 4.5 1.6 5.8-4.3 1.7-20.3-42-23.4-47.9-28.6-54.6-80.1-107-44.2-171.5 24.7-44.5 71.3-71.9 90.4-120.5 6.5-16.5 5.3-33.2 9.7-49.7 1.4-5.1 8-3.4 8.5 1.2z"  fill="#c2e1ff" /><path d="M174.7-398.5c13.9 105.5-67.4 158.2-61.7 249.3 2.3 36.5 28.8 124.8 23.9 152.7-1.2 6.8-11.4 0.5-5.9-3.6 5.5-4.1 8.6 7.5 1.8 6.7-7.5-0.9-9.9-46.9-11.1-54.3-7.8-47.9-24.3-99.9-14.8-148.6 8.7-44.7 38.3-81.6 52.4-124.5 7.3-22.3 4.9-70.9 8-78.7 1.6-3.9 6.6-2.6 7.4 1z"  fill="#005bbb" /><path d="M195.6-399.5c16.8 50.5 51.1 221.4 38 269.5-7.6 27.7-26.6 48.3-43.4 70.8-4.7 6.2-17.9 37.1-25.5 36.2-10.5-1.3-1.6-17.4 5.1-9.2 6.7 8.1-10.7 13.7-10.1 3.2 2.8-41.2 65.9-75.9 69.2-133.3 2.6-45.2-23.1-184.2-37.4-229.5-1.1-3.4 0.3-15.9 4.1-7.7z"  fill="#c2e1ff" /><path d="M235.4-399.6c48.7 64.6 86.4 139.5 145.9 195 17.7 16.5 66.2 55.9 71.1 79.5 0.9 4.2-6.5 2.9-4.3-0.8 1.9-3.2 6.4 1.1 3.3 3.2-4.3 2.9-12.3-15.5-14.2-18.2-11.4-16.6-25.2-31.4-39.8-45.3-83.4-79.3-89.8-114.3-154.1-197.1-1.1-1.5-13.5-22-7.9-16.3z"  fill="#c2e1ff" /><path d="M193.9-225.7c-6 84.7-42.1 141.8-45.6 214.9-1.1 22.6 0.1 45.4 4.3 67.7 0.5 2.8 7.6 20.3 0 19.4-4.4-0.5-3.3-7.3 1.1-6.3 4.3 0.9 2.5 7.6-1.8 6.2-5.7-1.9-7.3-22.6-8.2-28-13.8-77.4 10.2-129.8 30.3-201.9 6.6-23.6 3.7-51 11.1-73.7 1.7-5.3 8.6-3.2 8.8 1.7z"  fill="#005bbb" /><path d="M201.7-344.4c6.6 53.1 7.9 145.6-5.8 197-10.9 40.7-35 76-42.2 118-4.5 26.1-4.8 53.2-1 79.3 0.5 3.6 8.7 27.6 1.1 26.7-4.4-0.5-3.2-7.4 1-6.4 3.7 0.8 3.1 6.4-0.7 6.4-6 0-7.3-18.7-8.1-22.8-20.9-108.8 26.4-132.6 44.3-221.9 11-55.2-1.8-136 3.8-176.4 0.7-4.7 6.7-3.9 7.6 0.1z"  fill="#c2e1ff" /><path d="M211.5-19.9c-49.7 46.1-26.7 79.1-35.5 95.2-3.2 6-10.8-3.1-4.4-5.2 6.5-2.1 5.7 9.7-0.4 6.8-18.2-8.6 11-95.7 31.5-108 7.5-4.5 13.6 5.1 8.8 11.2z"  fill="#005bbb" /><path d=""  fill="#fff500" /><path d="M228.4 66c-1 3.4-1.7 15.7-8.8 11.7-5.5-3.1-0.1-11.6 5-7.9 5.2 3.7-1.1 11.6-5.9 7.3-11.3-10.1 10.8-24.8 9.7-11.1z"  fill="#005bbb" /><path d="M234.3-352.1c20.3 43 36.7 88.1 65.4 126.5 32 42.9 78.6 69.4 113.6 109.1 31.1 35.2 44.7 79.1 64.4 120.8 1.4 2.9 11.3 16.5 6.7 18.7-2.5 1.2-4.7-2.3-2.5-4 2.6-2 5.5 2.2 2.8 3.9-1.9 1.2-56.3-113.2-64.2-124.4-38.3-54.6-100.8-85.2-138-141.6-17.2-26.2-47.3-77-53.2-107.4-0.6-3.2 3.5-4.1 5-1.6z"  fill="#005bbb" /><path d="M243.6-212.8c8.1 30.1 16.7 62.3 9.3 93.4-11.7 49.5-63.1 72.6-80.6 119.1-6.9 18.3-9.1 38.3-7.5 57.8 0.3 3.1 6 20.9-1.7 19.6-4-0.7-3.6-6.6 0.4-6.9 4-0.2 4.9 5.7 1 6.8-7.1 1.9-7.2-17.6-7.6-21.5-11.6-98.9 52.3-101.9 82.4-168.8 16.1-35.7-1.7-63.5-2.2-98.7-0.1-4.1 5.2-4.2 6.5-0.8z"  fill="#fff500" /><path d="M254-115.3c-12.6 48.6-64.4 71.2-81.5 117.6-6.3 17.1-8.5 35.7-7.2 53.9 0.2 2.4 5.8 25.2-2.8 20.5-4.1-2.2-0.3-8.6 3.6-5.9 3.3 2.3 0.5 7.6-3.2 6.1-6.3-2.6-5.9-25.3-6.2-31.1-3.4-71.7 39.1-91.1 75.2-141.9 4.9-7 7.5-19.2 13.3-24.8 4.3-4.1 9.8 0.5 8.8 5.6z"  fill="#005bbb" /><path d="M258.7-385.1c36.4 41.7 59.1 91 92.2 134.8 79.4 105 93.9 72.7 142 216.4 1.6 4.8 13.2 28.6 9.1 31.7-4.2 3.2-6.7-5.7-1.4-5.2 5.3 0.6 0.9 8.7-2.5 4.7-14.3-16.8-35.8-109.4-61-146-26.1-38-63.5-66.2-91.6-102.5-29.8-38.6-49.4-83.5-80.5-121.3-0.7-0.8-11.6-17.4-6.3-12.6z"  fill="#c2e1ff" /><path d="M268.2-294.2c51.1 101.2 99.4 102.3 158.9 175 34.6 42.3 45.5 96.6 71.5 143.6 2.9 5.3 32.2 47.4 31.1 48.2-2.2 1.6-4.1-2.6-1.4-3.1 2.3-0.5 2.9 3.2 0.5 3.4-4.1 0.4-13.3-15.2-15.7-18.5-35.3-46.8-46.8-104.2-76.9-153.6-34.2-56.4-96.9-84.9-137.1-136.2-12-15.3-31-37.8-35.6-57-0.7-3 3.2-4 4.7-1.8z"  fill="#c2e1ff" /><path d="M279.9 47.2c-3.5 5.4-13.8 36.6-22 30.3-5.6-4.4 1.7-12.9 6.8-7.9 4.4 4.2-1.2 11.4-6.3 8.3-7.9-4.9 7.9-44.4 18.6-39.6 3.7 1.6 4.3 5.6 2.9 8.9z"  fill="#c2e1ff" /><path d="M288.3 58.5c-2.4 4.7-6 23.1-14.1 20.1-6.8-2.5-2.2-13 4.2-9.8 5.5 2.8 2.3 11.4-3.7 9.9-9.3-2.4 0.3-24 4.7-27.4 5.2-4 10.7 1.8 8.9 7.2z"  fill="#fff500" /><path d="M293.1-211.2c30.2 43.8 73.8 76.3 103.4 120.4 25.3 37.8 35.1 82.7 57.2 122.2 2.7 4.8 29.9 42.9 29.6 43.1-0.4 0.4-1.2 0.4-1.7 0.2-14.4-7.9-27.8-33.4-35.7-47.5-18.7-33.4-28.1-71.1-46.6-104.6-26.4-47.7-70.9-80.8-103.7-123.7-0.9-1.2-7.7-15.8-2.5-10.1z"  fill="#fff500" /><path d="M335.2-399.7c27.2 43.1 30.4 95.6 52.4 141 45.8 94.7 68.2 81.5 107.7 212.1 1 3.3 6.5 12.9 2.4 15.6-3.6 2.3-6.9-3.5-3.1-5.4 3.8-1.9 6.5 4.2 2.5 5.8-1.2 0.4-40.9-108.7-47-120.5-21.4-40.5-53.3-74.6-72.5-116.3-17.8-38.7-22.2-82.2-41.2-120.4-0.1-0.1-6.9-19.4-1.2-11.9z"  fill="#c2e1ff" /><path d="M313.8-37.4c-13.6 32.4-42.6 52.4-62.5 80.3-4 5.7-14.8 39-21.9 34.5-5.6-3.5 0.4-12.1 5.6-7.9 5.2 4.1-1.7 11.9-6.4 7.2-10.7-10.6 15.8-47.1 22.4-55.2 6.4-7.9 52.5-65.8 55.3-66.9 5.3-2.2 9.1 3.3 7.5 8z"  fill="#fff" /><path d=""  fill="#fff500" /><path d="M326.9-248.1c34.6 43.6 84.8 72.1 116.7 118 32.8 47.2 41.7 105.3 68.5 155.5 2.9 5.5 31.9 48.6 30.5 49.5-1.8 1.2-3.9-1.2-2.4-2.8 1.7-1.8 4.5 1 2.6 2.6-2.7 2.3-6.7-5.5-6.7-5.4-43.7-56.7-54.6-124.5-89.1-185.6-28.6-50.6-78.6-79.9-116.5-122.3-0.9-1-8.7-14.3-3.6-9.5z"  fill="#005bbb" /><path d="M338.7-51.4c-2.8 37.2-24.2 66.6-42.8 97.5-3.6 5.9-13 35.4-21 32.4-6.8-2.5-2.2-13 4.3-9.7 6.5 3.3 0.8 13.2-5.3 9.2-8.7-5.6 8-32.1 11.4-38.1 11.9-21.3 27-40.8 36.2-63.6 3.9-9.7 4.5-20.5 8.2-30 2.1-5.3 9-2.8 9 2.3z"  fill="#c2e1ff" /><path d="M344.6-114.1c29.4 50.4 25.3 100.3 24.9 156.3-0.1 7.7 4.6 27.1 0.8 33.4-3.1 5.2-10.4-1.6-5.4-5.1 5-3.4 8.8 5.9 2.8 6.9-10.3 1.8-4.9-100.2-5.4-110.5-2.1-44.4-23.7-73.3-22.1-80.4 0.5-2.3 3.2-2.3 4.4-0.6z"  fill="#005bbb" /><path d="M352.6-255.2c30.5 43 73.8 75.2 100.8 120.9 28.9 48.9 37.2 106.1 62.6 156.5 2.9 5.8 32.7 52.1 31.4 53-2.1 1.4-4.2-2.1-1.9-3.3 2-1 3.8 1.7 2.1 3.1-2.5 2.1-5.4-3.8-5.9-4.5-43.7-58.4-54.8-125.8-86-189.9-24.2-49.8-66.7-83.2-100.3-125.8-0.9-1.2-7.9-15.5-2.8-10z"  fill="#005bbb" /><path d="M360.4-149.9c66.3 59.5 70.4 96.7 110.2 170.2 7.7 14.2 16.7 27.5 26.8 40 1.5 1.8 13 12.1 10.3 14.3-0.3 0.3-0.8 0.4-1.3 0.3-24.2-4.4-71-121.2-83.2-144.5-15.7-29.9-37.6-54.1-62.4-76.7-0.8-0.7-3.5-5.8-0.4-3.6z"  fill="#005bbb" /><path d="M369.7-108.1c31 42.6 38.1 92.7 59 139.8 2.4 5.4 24.1 43.6 23.7 43.6-7.4 2.3 7.3-3.2 0.2 0-9.1 3.9-42.7-79.6-55.4-117.4-5.1-15.2-11.1-30.1-18.7-44.2-2.5-4.5-12.9-16.1-12.4-20.9 0.2-2 2.5-2.2 3.6-0.9z"  fill="#c2e1ff" /><path d="M379.5-66c13.1 35.8 13.9 74.4 25 110.7 1.6 5.2 13.1 26 10.9 30-1.9 3.5-6.8-0.8-3.6-3.2 3.2-2.4 5.9 3.6 2 4.4-10.4 2.2-23.1-58.3-24.7-66.3-4.5-23.8-13.7-50.6-15.5-74.4-0.3-3.7 4.5-4.2 5.9-1.2z"  fill="#005bbb" /><path d=""  fill="#c2e1ff" /><path d="M394.8-119c41.1 43.2 53.6 100.2 83.7 149.9 9.6 15.9 34.9 44 30.2 44.2-7.5 0.2 7.4-3.5 0.7-0.2-8.9 4.5-33.6-36.2-76.6-128.8-10.2-22-22.6-42.6-38.6-61-1.1-1.3-2.8-7 0.6-4.1z"  fill="#c2e1ff" /><path d="M403-178.9c58.7 53.6 71.3 120.6 103.1 189.8 3.2 6.9 37.5 64 37.5 64-6.8 4.7 2.5-9.2 0.8-1.2-0.9 4.1-4.7-1.1-5.3-1.7-38.6-50.2-53.5-105.5-77.7-162.8-13.2-31.1-31.5-58.5-55.7-82-1.6-1.5-4.5-7.4-2.7-6.1z"  fill="#005bbb" /><path d="M407.7-397.8c-22.4 162 39.5 177.9 80.6 315.5 2.4 8.2 24.1 74.6 19.7 75.9-4.5 1.4-5.1-6.5-0.4-5.8 4.7 0.7 1.9 8-2 5.4-6.1-4-23.4-74-27.1-86-20.7-68-70.8-129.2-82.2-198-5.8-35.1-3.5-73.3 2-108.2 1-6.2 9.4-4.8 9.4 1.2z"  fill="#005bbb" /><path d="M420.3-167c50 52.6 59.6 121 90.2 183.9 4.1 8.5 35.3 53.7 35.2 56.6 0 3.5-5.6 1.2-3.2-1.3 2-2.2 4.8 1.9 2 3-8.6 3.4-40.3-58.9-44.3-67.6-14.1-30.7-22.8-63.6-35.3-95-11-27.7-25.5-53.1-45.1-75.5-1.1-1.3-2.8-6.9 0.5-4.1z"  fill="#fff" /><path d="M432.7-363.6c-28 91.8 8.8 142.2 39.8 224.6 16.2 43.1 24.9 88.4 40.3 131.6 7.2 20.2 16.5 39.5 27.9 57.8 1 1.7 12.4 14.8 7 15.9-2.7 0.6-3.5-3.7-0.6-4 2.8-0.3 3 4.1 0.2 4.1-10.3 0-32.3-49.5-71.2-176-21.9-71.1-70.2-136.3-62-213.6 1.2-11.1 1.8-37.1 9.7-45.4 4-4.2 9.7 0.1 8.9 5z"  fill="#fff500" /><path d="M440.8-299.5c-8.1 58.5 20.1 111.2 37.6 165.2 14.9 46.1 23.2 94.5 41.1 139.6 4.2 10.6 37.8 65 37.6 68.3-0.1 3.2-5.3 1.9-3.8-1 1.7-3.3 6 1.6 2.5 2.8-8.4 3-37.2-58-41-66.7-9.5-21.8-79.7-248.7-82.4-268.4-7.9-57.4 8.4-41.6 8.4-39.8z"  fill="#005bbb" /><path d="M447.2-37.1c13.1 30.1 25.3 60.3 45 87 3.8 5.1 18.5 17.8 19 23.6 0 0.6-0.3 1.3-0.8 1.5-3.5 1.7-16.7-17.3-19.1-20.2-9.3-11.6-52.7-81.4-49.2-91.7 0.9-2.6 4-2.3 5.1-0.2z"  fill="#fff" /><path d="M456.7-226.7c8.1 45.1 50.3 199.2 67.6 239.7 3.9 9.2 34.2 57.2 34.1 60.4-0.1 3.2-5.3 1.8-3.9-1 1.8-3.4 6.1 1.6 2.5 2.9-8.3 2.9-36.4-57.1-40.1-65.7-22.5-51.8-51-167.1-65.1-225.4-1-4 1.3-21.6 4.9-10.9z"  fill="#c2e1ff" /><path d="M464.2-10.1c10.6 24.4 23.2 47.4 39.8 68.2 2.2 2.8 13.1 12.7 12.3 15.8-0.1 0.4-0.5 0.8-0.8 1-3.5 1.7-15.1-15.6-17.3-18.2-15.8-19.6-29-41.4-39-64.6-1.4-3.3 3.2-5.2 5-2.2z"  fill="#005bbb" /><path d="M471.7 50.8c2.1 2.9 19.8 22.3 17.8 24-0.1 0.1-0.2 0.1-0.3 0.2-8.8 4.6-24.4-31.2-17.5-24.2z"  fill="#fff" /><path d="M483.8-303.5c-26.5 81.8 8.1 216.6 35.8 297.3 7.9 22.9 18.6 44.4 31.6 64.9 1.2 1.9 13.4 15.9 7.9 17-3.2 0.7-3.2-4.8 0-4 3.8 0.8 0 6.4-2.2 3.2-14.9-21.9-28.9-44.3-39-68.9-25.7-62.7-62.4-213.2-51.9-279.6 8.8-55.6 18.8-35.1 17.8-29.9z"  fill="#fff500" /><path d="M484.7-395.9c-69.7 141.6-24.3 181.4 11.4 320 6.4 24.7 12.4 49.6 21.2 73.6 1.2 3.4 13.1 24.2 6.3 24.6-3.6 0.2-3.6-5.4 0-5.3 3.1 0.2 3.3 4.7 0.3 5.3-4.7 0.8-7.7-11.9-9-15-19.8-46.4-28.1-97.1-42.7-145.2-17.3-56.8-43.2-111.6-32.1-172.3 3.4-18.4 21.6-82.9 35.8-93.2 5.3-3.9 10.7 2.1 8.8 7.5z"  fill="#fff500" /><path d="M497.1 54.9c2 2.5 17 17.8 14.5 19.8-0.1 0.1-0.2 0.1-0.3 0.2-6.9 3.5-19.3-25-14.2-20z"  fill="#fff500" /><path d="M509.3-222.7c-20.5 69.8-3.3 160.3 21.3 227.3 6.9 18.9 16 36.8 26.5 54 1.1 1.8 12.8 15.7 7 16.9-2.9 0.6-3.5-4-0.6-4.3 2.9-0.3 3.1 4.4 0.2 4.3-5.1-0.1-14-20.2-16.5-24.4-37.5-63.1-52.9-142.6-54.4-215.5-0.4-17.9-1.9-45.9 6.9-62.1 3-5.6 10.4-1.8 9.6 3.8z"  fill="#005bbb" /><path d="M516.1-43.8c7.3 32.5 18 63.6 34.6 92.6 2.4 4.2 16.3 21.1 14.5 25.3-1.3 3.1-5.9-0.1-3.4-2.4 2.5-2.3 5.3 2.6 2.1 3.6-4.5 1.4-13.1-17.6-15.1-20.7-18.2-29.9-31.9-62.5-39.4-96.8-1-4.4 5.2-5.6 6.7-1.6z"  fill="#005bbb" /><path d="M526.6-239.6c-34.3 72.1-20.9 163.5 3.5 237 7.2 21.7 17.2 42.1 28.9 61.7 1 1.7 12.3 15.3 6.6 16.4-2.9 0.6-3.5-4.1-0.5-4.4 2.5-0.2 3.2 3.5 0.8 4.3-6.4 1.9-28-44.4-31.1-50.8-29-61.3-43.5-142.2-35.4-209.7 2.1-17.9 5.9-45.8 17.3-60.5 4.4-5.6 11.8-0.1 9.9 6z"  fill="#c2e1ff" /><path d="M534.9-339.4c-12 40.6-33.4 77.9-39.7 120.3-9.3 62.8 6.7 133.9 23.3 194.3 7.8 28.6 19.3 55.5 34.8 80.9 2 3.2 12.1 14.6 10.5 18.3-1.3 3.1-5.9-0.1-3.4-2.4 2.9-2.7 5.4 3.7 1.5 3.7-8-0.1-25.9-40.1-29.6-47.4-34.2-67.9-57.9-187-44.4-262.3 6.2-34.4 21.5-65.7 33.3-98.4 1.4-3.9 2.2-12.3 7-13.7 4.4-1.3 7.4 2.8 6.7 6.7z"  fill="#fff" /><path d="M543.6-299.6c-11 24.9-24.4 48.8-32.6 74.9-20.5 65.5-5.6 144.8 13.2 209.2 8.5 29.2 38.4 74.7 41.9 88.5 1 3.9-5.9 3-4-0.5 2.3-4.1 6.6 3.3 1.9 3.2-5.6-0.1-16.7-24.8-19.5-29.6-38.8-67.5-61.7-179.2-47.7-256.3 5.4-29.5 18.2-71.7 36.9-95.4 4.4-5.6 11.7 0 9.9 6z"  fill="#005bbb" /><path d="M549.3 26.9c2.5 5.6 26.1 47.4 23.3 48.8-2.3 1.2-4.6-2.1-2.6-3.7 2.4-2 5.3 1.9 2.8 3.6-4.3 2.9-9.1-10.5-10.4-12.8-23-39.4-15.8-40.4-13.1-35.9z"  fill="#005bbb" /><path d="M559.4-59.3c1.4 37.2 10.8 73.3 24.8 107.7 1.9 4.6 12.7 22.4 10.2 26.5-2.2 3.7-7.4-1.3-3.8-3.7 3.6-2.4 6.1 4.3 1.9 4.9-5.4 0.8-11.5-20.9-13.2-24.9-14.7-34.7-26.3-72-28-109.9-0.3-5.4 7.2-5.5 8.1-0.5z"  fill="#005bbb" /><path d="M567.5-392.5c17.6 102.5-72.8 145.2-59.9 277.3 4.2 43.5 11.9 88.5 28.3 129.2 2.7 6.8 14.9 23.6 13.8 30.4-0.7 4.4-7.4 0.5-3.8-2.3 3.5-2.8 5.7 4.7 1.2 4.3-10.6-1-25-52.2-27.9-61.6-19.3-63.2-33-141.5-13.2-206.2 12.5-40.9 41-75.2 51.7-116.6 4.9-18.8 0.6-35.9 2.4-54.4 0.5-4.5 6.3-4 7.4-0.1z"  fill="#fff" /><path d="M603.5-245.3c-30.1 27.4-57.7 56.7-68.1 97.3-2.3 8.9-1.5 48.3-7.4 52.4-5.5 3.8-9.7-6.5-3.1-7.6 7.7-1.3 4.9 12-1.6 7.6-19.5-13 22.1-134.3 71.8-161.4 7.8-4.3 13.6 5.8 8.4 11.7z"  fill="#fff" /><path d="M603.3-255.7c-36 35.6-68.2 70.5-74.8 123-1.5 11.6 2.7 64.7 0 69.2-3.6 6.1-11.1-3.6-4.4-5.6 6.8-2 5.6 10.3-0.6 7.1-5.9-3.1-4.5-26.5-4.8-32.7-3-57.3 13.1-106.7 52.4-148.9 6.9-7.4 14.8-18.2 23.6-23.3 7.5-4.5 13.5 5.2 8.6 11.2z"  fill="#005bbb" /><path d="M594.7-287.4c-64 101-94.6 102.4-69.5 240.3 6.3 34.5 17.2 67.3 34.1 98.1 2.2 4 14.4 19.5 12.5 23.5-1.5 3.3-6.2-0.3-3.5-2.7 3.2-2.7 5.5 4.2 1.3 4-13-0.6-35.2-64-39.3-76.2-20.3-58.7-31.6-134-10.7-194 11.8-34 38.7-77.2 65.5-101.4 5.8-5.2 12.8 2.2 9.6 8.4z"  fill="#fff" /><path d="M603.7-272.2c-42.9 51.5-80.9 90.9-80.8 162.3 0 19.8 15.2 95.8 13.4 100.3-2.2 5.6-9.8-1.5-4.4-4.1 5.4-2.6 6.1 7.9 0.4 6-10.1-3.3-13.8-55.9-15-65.4-5.7-45.7-4.6-93.3 17.8-134.6 8.8-16.3 45.2-69.1 60.9-75.3 7-2.8 11.3 5.4 7.7 10.8z"  fill="#fff" /><path d="M603.9-300.1c-47.9 95.4-104.1 83.7-80.7 239.2 5.6 37.3 15.8 73.3 33.5 106.7 3.1 5.9 16.2 21.9 15.6 28.1-0.4 4.2-6.9 0.8-3.7-1.9 3.2-2.7 5.5 4.2 1.3 3.9-12.9-0.7-34.9-63.4-39.1-75.5-20.4-58.7-31.7-134-10.6-194 7.1-20.2 60.4-105 75.1-114.6 5.6-3.7 10.8 2.7 8.6 8.1z"  fill="#c2e1ff" /><path d="M604-289.5c-60.7 96.8-102 91.7-78.6 236 5.8 35.9 16.4 70.3 33.7 102.4 2.3 4.3 15.2 21.4 13.4 25.3-1.8 3.8-6.8-1.5-2.9-3.1 3.3-1.3 4.3 4.6 0.7 4.4-3.1-0.2-31.7-54.3-39.7-78.3-19.2-57.7-29.7-130.9-8.3-189.4 13.2-36.3 43.5-79.9 72.1-105.7 5.8-5.2 12.7 2.2 9.6 8.4z"  fill="#fff" /><path d=""  fill="#005bbb" /><path d="M603.7-163c-38.9 48.8-36.5 115.4-22 172.9 1.9 7.6 20.5 63.7 17 63.7-4.6 0-2.9-7.5 1.2-5.6 4.9 2.3-2 8.7-3.9 3.7-23.4-60-43.5-128-26.5-192.5 4.1-15.6 11.7-40.4 24.6-51.2 6.2-5.2 13.1 2.7 9.6 9z"  fill="#fff" /><path d=""  fill="#c2e1ff" /><path d="M603.5-222.3c-37.4 31.3-61.1 69.8-64.4 119.2-0.7 10.3 7.5 58.8 1.7 64.2-4.3 4-9.2-4.4-3.7-6.2 6.5-2.1 5.8 9.8-0.4 6.8-6.3-3-5.4-28.2-5.8-34.4-4.1-56.5 9.6-108.7 50.6-149.4 4-4 9.7-11.6 15.4-13 8-1.9 11.3 7.5 6.6 12.8z"  fill="#005bbb" /><path d=""  fill="#c2e1ff" /><path d=""  fill="#fff" /><path d="M603.5-192.3c-51 47.5-56.8 116.5-42.4 181.5 2.9 13.1 31.5 81 30.7 85-1 4.8-8.1 0.1-4.1-2.7 4-2.8 5.9 5.5 1.1 4.8-6.3-1-15.6-31.1-18.1-37.1-25.7-61.8-39.1-141.1-6.3-202.9 6.7-12.7 17.6-32.2 30.4-39.8 7.5-4.5 13.6 5.1 8.7 11.2z"  fill="#c2e1ff" /><path d=""  fill="#c2e1ff" /><path d=""  fill="#fff500" /></svg>