<svg width="1200" height="675" viewBox="-500 -500 1200 675" xmlns="http://www.w3.org/2000/svg"><path d="M-500-500h1200v675h-1200z" fill="#000"/><path d=""  fill="#fff" /><path d=""  fill="#fff500" /><path d=""  fill="#fff" /><path d=""  fill="#fff500" /><path d=""  fill="#005bbb" /><path d=""  fill="#fff500" /><path d=""  fill="#fff" /><path d=""  fill="#005bbb" /><path d=""  fill="#fff" /><path d=""  fill="#c2e1ff" /><path d="M-375.8-374.6c10.1 96.9 60.9 263 47.6 350.9-4.1 26.7-15.6 51.2-32.9 71.8-5.7 6.9-17.7 25.1-28.5 22.6-11.5-2.7-9.4-20.2 2.5-20 13.8 0.2 12.3 22-1.4 20.2-26.9-3.3 22.2-46 26.9-52.7 18.2-26 24.4-56.6 23.2-87.9-4-99.8-36.8-196.6-47.3-295.5-0.8-7.2 6.8-22.8 9.9-9.4z"  fill="#fff500" /><path d="M-364.3-218.8c13.4 79.7 49.3 182.4-1.8 255-6.2 8.8-19.8 30.9-31.3 32.4-13.5 1.7-15-19.8-1.4-20 13.6-0.2 12.8 21.3-0.8 20-6.9-0.7-11.2-8.4-8-14.5 16.5-32.2 49.1-32.6 55.3-98.7 5.4-57.2-14.9-116.2-22-172.6-0.9-6.7 8.3-7.8 10-1.6z"  fill="#c2e1ff" /><path d="M-352.5-125.9c10.7 59.1 17.5 117.4-21.5 168.2-5.4 7.1-15.8 24.6-26.3 22.7-18.2-3.4-1-30.6 9.8-15.6 9.3 12.8-14.7 23.2-17.8 7.7-0.9-4.7 38.1-51.4 43.6-64.6 19.6-47.2-3.4-100.4 2.5-119 1.7-5.3 8.4-4 9.7 0.6z"  fill="#005bbb" /><path d="M-339.5-399.4c42.3 144.4 60.5 134.1 66.1 295.8 1.3 36.2 3.9 73.4-5.4 108.9-2.5 9.6-9.1 40.2-21.7 41-13.8 0.9-10.3-21.8 2.7-16.8 15.1 5.9-4.1 26.5-11.1 11.8-0.6-1.2 20.9-57.8 22.5-69.2 6.2-43.8 1-89.9-0.3-134-2.5-85.5-35.8-147.4-59.1-227.1-1.6-5.3 1.4-21.9 6.3-10.4z"  fill="#fff500" /><path d="M-326.3 27.6c-6.6 12.2-43.3 66.8-60.5 54.7-11.6-8.2 2.4-25.8 13.1-16.4 10.7 9.4-5.1 25.4-14.7 14.8-3.1-3.4-3.6-8.7-1.2-12.6 6.7-10.6 21.9-18.6 30.8-27.8 6.2-6.4 13.9-23.1 22.7-25.7 8.2-2.4 13 6.3 9.8 13z"  fill="#005bbb" /><path d="M-315.4-37.3c-2.3 40.7-54.5 136.9-79.7 119.3-11.6-8.1 2.1-25.7 12.8-16.4 10.7 9.3-4.9 25.4-14.5 14.9-12.2-13.2 32-42.2 39.8-51.8 12.4-15.2 30.3-70.9 30.9-71.5 4.7-4.2 10.6 0 10.7 5.5z"  fill="#005bbb" /><path d="M-304.1-65.1c2.3 45.3-8.5 88.4-39.4 122.6-7 7.8-26.4 33.4-38.6 24.8-11.6-8.3 2.4-25.9 13.1-16.4 9.1 8.1-1.5 23-12.1 17-18-10.1 37.4-52 47.8-70.3 16.8-29.6 11.8-67.4 18.2-80.2 2.9-5.7 10.2-3 11 2.5z"  fill="#005bbb" /><path d="M-292.5-143.4c5.4 72.5 17 149.5-36.4 208-5.9 6.4-16.9 22-27.1 19.1-15.9-4.5-2.9-28.7 9.6-17.9 14.7 12.6-15.1 28.2-17.2 9-0.1-0.9 47.7-57.7 53.8-72.9 18-45.3-0.6-130.4 6.7-147.1 2.4-5.6 9.6-3.4 10.6 1.8z"  fill="#fff" /><path d="M-282.6-314.5c12.2 27.4 23 55.4 27.5 85.2 8.8 58.4 4.5 232.4-23 283-4.4 8.1-14.2 30.3-25.6 29.2-15.1-1.5-7.2-25.4 5.8-17.7 15.3 9-9.2 27.9-14 10.8-3.4-11.8 23.6-38.2 28.8-49.6 11.6-25.7 15.1-53.8 15.8-81.8 1.8-62.2 10.7-131.4-1.4-192.7-4.3-22-17.6-42.8-21.2-64.3-0.8-4.6 5.2-5.8 7.3-2.1z"  fill="#005bbb" /><path d="M-257.5-400.2c25.6 50.4 48.6 102.6 49.3 160.1 0.7 61.7-19.5 121.7-21.3 183.6-0.3 11.4 3.6 79-10.8 80.4-12.6 1.3-6.6-20 3.5-12.2 8.6 6.6-5.2 18.2-10.3 8.6-5.7-10.9 4.1-42.1 4.7-54.9 1.3-31.5 1.3-63 5.8-94.4 4.8-34.3 13.9-68 16-102.6 3.7-60.5-18.5-111.8-43.3-165.4-2-4.3 3.9-6.9 6.4-3.2z"  fill="#c2e1ff" /><path d="M-256.3-132.8c-1.7 50.2 5.8 184.7-44.8 214.6-13.1 7.8-21-16.3-5.9-17.9 15.2-1.5 12.2 23.6-2.2 18.7-17.5-6.1 25.5-51.6 33.8-85.6 10.2-42-2.4-97.3 7.2-131.6 2-7.2 11.4-4.8 11.9 1.8z"  fill="#fff" /><path d="M-247-355.5c52.3 114.1 20.4 162.1 14.7 276.4-1.9 37.6 1.8 131.5-27.1 158.9-9.7 9.2-21.2-9.8-8.5-14.1 12.7-4.3 15.2 17.8 1.8 16.4-16.5-1.8 12-56.9 14.4-67.9 8.2-38.9 5.5-79 8.5-118.4 2.3-30.5 8.4-60.3 12.7-90.5 5-35.2 4.8-70.4-4.3-104.9-4.7-17.9-16.2-35.9-19.4-53.7-0.8-4.6 5.1-5.7 7.2-2.2z"  fill="#fff" /><path d="M-231.9 19.2c-1.6 11.1-8.4 64.7-24.4 62.3-10.9-1.6-7.4-18.6 3.2-15.9 10.6 2.8 5.4 19.3-4.9 15.5-12.3-4.7 1.5-24.3 3.9-31.2 3.1-8.8 4-31.4 11.3-37.2 5.2-4.1 11.2 0.7 10.9 6.5z"  fill="#005bbb" /><path d="M-219.9 62.4c-0.7 4.2-10.5 31.3-16.3 13.3-8.2-25.5 31.9 9.5 5.5 4.9-23.1-4.1 12.7-42.6 10.8-18.2z"  fill="#c2e1ff" /><path d=""  fill="#fff" /><path d="M-196-118.4c-7.4 28.2-11.8 194.6-13.6 196.5-7.1 7.5-16.7-6.7-7.1-10.5 9.6-3.8 12.4 13.1 2 12.5-12.2-0.7-2.5-53.4-2.3-62.9 0.6-36.2-8.5-108.4 7.7-140.4 3.9-7.8 14.1-2.9 13.3 4.8z"  fill="#c2e1ff" /><path d=""  fill="#fff500" /><path d="M-174.2 5.1c1.4 9.2 18.7 71 12.2 72.7-5.8 1.5-7.6-7.8-1.6-8.6 5.9-0.8 6.7 8.5 0.7 8.7-8.7 0.3-23.9-65.2-21.2-73.5 1.7-5.4 8.5-4 9.9 0.7z"  fill="#fff500" /><path d="M-160.4-241.4c-15 71.8-46.1 134.1-46.3 209.1 0 12.5 4.5 115-11.2 112.1-7.5-1.4-6.7-12.8 1-13.1 9-0.3 8.7 13.8-0.2 13.2-12.7-0.9-2.2-44.8-1.9-53 2.2-50.4-3.1-101 8.1-150.7 6-26.6 26.2-100.5 37.3-122.4 3.9-7.7 14-2.9 13.2 4.8z"  fill="#fff" /><path d="M-151.4 18.6c2.8 9.2 24.1 51.1 23.5 55.1-0.8 6-10 0.9-5.2-2.9 4-3.3 7.9 4.4 2.8 5.7-8.1 2.1-28.8-48.6-29.4-56.1-0.5-5.2 6.3-6 8.3-1.8z"  fill="#005bbb" /><path d="M-136.1-174.1c-28.8 55.1-45.6 106.2-37.1 169 2.9 21.2 7.6 42.1 13.7 62.6 0.9 3 9.8 20.5 0.4 20.1-4.9-0.2-5.4-7.5-0.5-8.4 4.8-0.8 6.9 6.2 2.3 8.1-9.1 3.7-17.3-39.6-18.9-46.1-12.6-49.9-17.4-103-1.5-152.6 6.1-18.9 14.5-46.9 27.8-62.1 6.8-7.7 16.9 0.9 13.8 9.4z"  fill="#fff500" /><path d=""  fill="#fff500" /><path d="M-112.3-138.9c-26.4 46-36.8 96.6-17 147.3 5.1 13.2 40.8 60 41.1 64.8 0.3 4.2-6.7 2-4-1.2 2.7-3.2 6.2 3.2 2.1 3.6-5.4 0.7-17.9-19.3-21.2-23.4-41.5-53.6-52.5-120.6-24-183 11.8-26 29.2-23.7 23-8.1z"  fill="#fff" /><path d="M-100.6-304.9c-29 67.5-86.8 184.6-88.7 254.3-0.9 33.9 3.2 67.9 7.2 101.4 0.5 4.4 8.1 30.6-3.7 27.7-5.9-1.5-4.7-10.5 1.4-10.3 6.1 0.2 6.8 9.3 0.8 10.4-11 2.1-10.3-36-11-42.6-14.9-125.8-0.7-152 46.5-265.5 10.5-25.3 17.4-61.4 33.8-83.3 5.9-7.8 16.2-0.4 13.7 7.9z"  fill="#fff" /><path d=""  fill="#fff500" /><path d="M-77.1-372.9c-23.9 91.6-98.5 207-110.6 294.2-5.1 37-1.2 74.8 2.7 111.8 0.5 4.7 8.5 35-3.7 31.7-6-1.6-4.6-10.8 1.6-10.5 6.2 0.3 6.8 9.5 0.7 10.6-11.3 1.9-10.5-42.7-11.4-50.2-10-97.3 4.6-141.1 42.4-229.2 20.4-47.6 40.1-96.3 58.1-144.9 2.2-5.9 3.3-16.1 7.9-20.7 5.7-5.8 13.5 0.3 12.3 7.2z"  fill="#fff" /><path d="M-66-61.8c-4.8 39.7 17.2 72.7 44.2 99.4 7 7 35 25.8 35.9 35.5 0.3 3.4-5.3 2.7-4.2-0.5 1.3-3.8 6.6 0.8 3 2.6-4 2.1-14-12.6-16.3-14.9-31.9-31.5-69-61.3-74.4-109-2-17.3 10.4-28.8 11.8-13.1z"  fill="#fff500" /><path d="M-59.2 57.7c2.6 2.5 19 14.2 15.8 17.3-1.7 1.7-4.2-1.2-2.3-2.7 1.9-1.5 4 1.7 2 2.9-6.5 4-21.4-21.9-15.5-17.5z"  fill="#c2e1ff" /><path d="M-41.1-180.2c-37.5 46.2-76.9 106.1-55.1 167.7 10.3 29 31.6 51.2 53.9 71.6 1 0.9 19.5 15.3 13.4 16-2 0.2-2.7-2.7-0.7-3.4 2.3-0.8 3.3 2.8 0.9 3.4-3.9 0.9-15.4-13.1-18.3-15.8-55.1-49.9-86.2-110.1-52.1-182.8 10.1-21.5 25.8-54.9 44.8-69.9 9-7.1 18.4 4.4 13.2 13.2z"  fill="#fff500" /><path d=""  fill="#fff" /><path d="M-17.4-177.9c-37.3 42.6-78.8 101.5-58.1 160.8 10.8 30.9 35.2 53.2 58.7 74.5 1.2 1.1 21.4 17.4 14.5 18-2.6 0.2-2.8-4-0.1-3.9 2.3 0.1 2.5 3.4 0.3 3.9-4.1 0.8-15.3-13.9-18.5-16.8-53.5-49.3-92.7-102.8-58.5-177 10.5-22.7 28.1-58.2 48.7-73.3 9.4-6.9 18.6 5.2 13 13.8z"  fill="#fff500" /><path d="M-5.6-185.6c-39 41.9-85.4 102.5-67.3 163.3 9.9 33.2 35.8 56.7 60.5 79.4 1.2 1.1 21.5 17.7 14.4 18.2-2.3 0.2-2.9-3.3-0.7-3.9 2.6-0.8 3.6 3.4 0.9 3.9-4.5 0.8-16.2-14.9-19.4-17.9-55.2-51.4-92.8-106.1-54.8-181.6 11.9-23.6 31.3-60.5 53.7-75.8 9.8-6.7 18.7 5.8 12.7 14.4z"  fill="#c2e1ff" /><path d="M2.4-15.6c6.6 17 59.7 82.6 59.1 89.4-0.5 4.9-8.3 2.4-5.8-1.8 2.5-4.3 8.5 1.3 4.5 4.1-2.6 1.8-62.4-77.1-64.9-89.4-0.9-4.6 5-5.8 7.1-2.3z"  fill="#c2e1ff" /><path d=""  fill="#fff500" /><path d="M19.7-394.8c-15.6 41-50.7 70.6-77.1 104.4-28.6 36.5-50 78.1-72.1 118.6-11.8 21.6-23.7 43.4-31.4 66.9-1.8 5.4-4 31.2-15.6 23.8-6.7-4.3-1.5-15 6.1-12.2 8.8 3.2 3 16.7-5.4 12.6-15.8-7.8 15.7-68.6 21-79.3 25.1-50.2 52.2-102 86.4-146.6 22.6-29.4 52.1-54.9 69.8-87.8 4.9-9.1 23.7-17.6 18.3-0.4z"  fill="#005bbb" /><path d="M42.1-149.4c-26.2 41.5-51.5 89-30.4 138.1 11.2 26 30.5 47.4 46.2 70.7 1.4 2 13.7 16 5.8 17.3-4.3 0.7-5-6.2-0.7-6.4 5.1-0.3 3.7 8.1-1 6.2-7.6-3.1-17.9-27.2-23.1-34.4-31.4-43.8-59-85.1-41-140.9 6.1-18.8 16.3-47.3 30.6-61.4 7.6-7.5 17.6 2.2 13.6 10.8z"  fill="#fff" /><path d="M51-25.2c2.6 12.1 44.3 100.4 40.2 102-4.8 1.9-7.3-5.8-2.3-7.2 5-1.3 6.6 6.6 1.5 7.4-8 1.2-48.2-88.4-48.5-100.9-0.2-5.7 7.2-6 9.1-1.3z"  fill="#fff" /><path d="M61.5 17.4c3.5 6.9 33.9 56.6 26.3 59.7-4.7 1.9-7.3-5.6-2.4-7 4.8-1.4 6.6 6.4 1.7 7.2-6.5 1.1-11.2-17.3-13.2-21.3-5.9-11.9-12.6-23.5-18.6-35.4-2.1-4.1 3.7-6.9 6.2-3.2z"  fill="#005bbb" /><path d="M77-277.2c-65.4 58.3-168.9 125.5-171.2 224.4-0.9 38.5 19.9 70.6 46.6 96.4 8.7 8.5 26 18.4 31.6 29.1 0.7 1.3-0.5 2.9-2 2.6-7.9-1.7 8.2-4.4 1.3-0.2-3.5 2.1-14.5-11.8-16.8-13.9-51.6-46.7-90.7-100-62.3-172.1 21.7-54.8 109.8-157.1 161.4-183.3 11.2-5.7 18.9 8.7 11.4 17z"  fill="#fff500" /><path d="M89.5-353.6c-26.1 40-69.9 61.8-105.2 92.2-44.9 38.7-83.9 94.7-108 148.8-12.1 27.1-17.3 56.4-12.9 85.9 1.4 9.2 11.5 28.2 9.4 36.5-2.1 8.2-12.9-2.7-4.7-4.7 7-1.7 5.2 10.7-1 7.1-11.5-6.6-15.1-43.2-16.3-55-8.4-83.8 59.3-176.7 117.4-231.5 20.9-19.7 44.8-35.4 67.6-52.7 13.7-10.5 27.8-33.1 42.4-40.2 9.1-4.4 15.6 6 11.3 13.6z"  fill="#c2e1ff" /><path d="M92-395.6c-22.4 70.9-117.2 110.3-174.5 195.5-19.5 29-39.8 59.2-52.8 91.8-2.5 6.2-7 41-19.1 33.5-9.2-5.7 3.3-18.6 9.3-9.5 5.1 7.7-7.5 15.1-11.8 6.8-7.7-15.1 13.4-53.4 20.3-66.9 41.3-81.2 91-135.8 161.4-192 14.7-11.7 28.6-24.6 39.3-40 5-7.2 9.3-24.9 17.2-28.9 6.8-3.5 12.4 3.3 10.7 9.7z"  fill="#005bbb" /><path d="M112.9-137.4c-12.4 52.9-22.9 100.3-9.5 154.2 3.2 12.6 20.3 46.1 16.4 57.9-2.1 6.4-11.8 0.6-7.1-4.3 5.4-5.8 11.3 6.7 3.3 7.2-9.7 0.5-19.7-51.7-22.1-60.4-12-44.8-16.3-116.6 5.7-159.4 4-7.8 14.1-2.8 13.3 4.8z"  fill="#fff500" /><path d=""  fill="#c2e1ff" /><path d=""  fill="#fff500" /><path d="M147.5 72.3c0.7 9.7-13.3 8.9-11.6 0.2 2.5-12.8 20 3.1 7.6 6.8-14.7 4.4-4-23.6 3.7-8.4z"  fill="#fff500" /><path d="M160.6-58c-9.8 33.2-16.8 66.7-14.2 101.5 0.4 5.5 9.7 36.2-1.5 34.4-6.4-1-4.3-11.1 2-9.4 6.3 1.7 3 11.5-3 9.1-12.4-4.9-8.2-121.4 3.2-141.3 4.5-7.8 14.7-2.2 13.5 5.7z"  fill="#fff" /><path d="M172-247.1c-7 41.6-0.4 83.7-5.3 125.5-4.8 40.9-20.9 79.4-24.5 120.5-1.6 18.3 6.9 74.1 3.7 77.6-5.1 5.5-12.2-4.7-5.3-7.6 6.9-2.9 9.1 9.4 1.6 9.1-14.4-0.6-13-72-12.3-82.7 2.6-46 21.4-88.7 25.6-134.4 3.1-33.4-8.8-79.8 3.6-111.4 3-7.6 12.9-3.9 12.9 3.4z"  fill="#fff500" /><path d=""  fill="#fff" /><path d="M195.1-251c-1.8 45.2 15.3 89 8.9 134.2-6.4 45.9-34 85.2-42.1 130.6-1.7 9.4 2.2 61.1-3.3 63.8-6.1 3-10.2-6.9-3.8-9.2 7.5-2.7 9.1 10.4 1.2 9.7-15.6-1.4-7.3-68.4-5.4-78.7 7.6-40.1 30-75.1 39.1-114.7 10.8-47.1-14.8-102.7-6.4-137.1 1.7-7.1 11-5 11.8 1.4z"  fill="#c2e1ff" /><path d="M208.2-322.6c-29.7 80.7 1.3 126.4-6.9 201-5.8 52.9-39 98-43 151.4-0.7 8.9 6 42 0.6 47.4-5.6 5.5-12.6-5.5-5.2-8.2 7.4-2.7 9.1 10.2 1.3 9.6-18.5-1.5-5.9-82-3-93.6 7.4-29.6 21.6-56.7 30.6-85.8 21.2-68.8-12.1-139 6.1-209.3 1.5-5.8 2.5-16.1 7-20.4 6.1-5.8 14 0.8 12.5 7.9z"  fill="#fff" /><path d="M217.6-200.1c6.5 28.2 12.3 56.5 7.2 85.5-8.2 47.5-42 85.1-53.2 131.6-2.1 8.8-1.4 62.9-9.2 61.1-7.9-1.8-2.2-14 4.3-9 5.5 4.2-1.7 12.5-6.7 7.7-4.1-4-3.3-14.1-3.8-19.3-5.7-61.9 30.4-105.3 50.3-160.2 15.7-43-2.3-82.5 1.7-97.5 1.4-5.1 7.8-4.1 9.4 0.1z"  fill="#c2e1ff" /><path d="M216.9-394.7c-70.3 134.7-59.8 181.4-87.2 318.7-4.2 20.8-7.3 41.7-7.3 62.9 0 5 6 32.1-5.9 28.7-6-1.7-4.4-11 1.9-10.6 7.3 0.5 6 12-1.3 10.7-18.5-3.2-1.3-93.3 1.4-106.3 13.9-69.5 15.4-140.1 39.2-207.5 10.1-28.5 26.3-83.5 45.4-105.8 6.7-7.7 16.9 0.7 13.8 9.2z"  fill="#fff" /><path d="M244.2 39.9c-4.3 6.7-11.6 44.2-22 38.9-6.6-3.4-2.6-13.7 4.6-11.8 7.2 1.9 5.5 12.9-1.9 12.5-15.1-0.7-0.1-45.6 6.9-50.5 7.7-5.4 15.3 3.3 12.4 10.9z"  fill="#fff" /><path d="M255.5-27.8c-19.2 18.2-38.5 37.5-48.6 62.5-3.6 8.9-3.2 38.2-9.8 43.1-8.5 6.3-13.2-11.6-2.6-10.3 9 1.1 3.9 15.3-3.8 10.5-23.4-14.6 31.3-109.2 52.8-121.7 10.6-6.2 18.9 7.4 12 15.9z"  fill="#005bbb" /><path d="M267.8-349c-45 102.3 26.2 141 14.2 226.2-9 63.4-72.9 96.9-90.6 156.3-2.3 7.8-1.3 39.7-8.3 42.2-7.1 2.5-10.4-8.9-3.1-10.6 8.6-2 8.8 12.6 0.1 10.8-8.8-1.8-5.3-21.6-5-27.5 4.4-72.2 73.8-105.4 92.3-170.1 16.5-57.7-27.7-110.4-27.9-167.6-0.1-19.7 2.6-50.8 14.5-67.3 5.7-7.9 16-0.7 13.8 7.6z"  fill="#fff" /><path d="M258.9-394.1c-22.7 38.3-43.6 79.4-45.7 124.7-5.2 106.9 51.4 109.3-14 228.6-4.7 8.6-14.2 40-23.9 42.4-10.2 2.5-13.3-13.8-2.8-15.2 12.2-1.6 10.4 18.7-1.3 15-12.3-3.8 0.2-23.7 3-30 14-31 35.3-59.2 42.9-92.9 16.6-73.9-35.5-126.9-3.7-217.3 7.1-20.1 16.9-50.1 31.9-65.6 7.3-7.6 17.4 1.7 13.6 10.3z"  fill="#fff500" /><path d="M291.7 51.7c-4.3 5.7-13.4 36-24.4 27.3-6.7-5.3 0.2-16.2 7.9-12.4 7.7 3.8 3.3 15.8-5 13.8-14.1-3.4 2.3-36.8 9.5-41.1 8.5-5 15.6 4.6 12 12.4z"  fill="#005bbb" /><path d="M302.5-314.5c-9.5 69.4 47 127.3 34.7 196-12.7 71.3-89.6 92.8-119.3 152.7-4 8-7.2 42.9-14.2 44.9-8.9 2.5-9.9-12.9-0.7-11.4 7.9 1.2 5.2 13.5-2.5 11.5-8.8-2.4-4.3-21.7-3.4-27.6 10.9-77.8 99.8-98.5 124.3-167.2 20.2-56.7-20.8-107.9-29.9-162.2-7.6-45.4 10.4-52.3 11-36.7z"  fill="#005bbb" /><path d="M314.5 8.3c-15.5 11.9-31.3 24.3-42.5 40.5-4.8 6.9-9.1 28.1-16.6 31-10.3 4.1-13.3-14.1-2.2-13.4 13 0.7 3.4 21.2-5.5 11.7-14.7-15.6 39.5-80.3 55.8-87.7 11.8-5.4 19 9.8 11 17.9z"  fill="#005bbb" /><path d="M326.1-326.6c-6.9 74.2 50.2 138.4 36 211.7-14.4 74.6-92.4 92.1-128.1 150.8-4.6 7.7-9.6 38.5-17.4 40-9.9 1.8-9.3-14.9 0.4-12.4 8.3 2.2 4.2 15.1-3.8 12-8.8-3.3-2.6-21.9-1.1-27.7 18.3-73.9 109.1-90.7 134-160 21.7-60.2-20.3-115.1-30.1-172.8-1.9-10.9-7.5-35.2-1.6-45.2 3.6-6 11.3-2.4 11.7 3.6z"  fill="#c2e1ff" /><path d=""  fill="#c2e1ff" /><path d="M348.9-308.7c5.4 58.7 40.4 111.1 39.8 170.7-0.7 80.8-64.6 111-116.5 158.9-10.9 10.1-20.6 21.9-26.5 35.7-2.4 5.7-3.4 25.1-13.1 23.2-12-2.3-0.6-20.2 6.5-10.2 6.1 8.5-9.8 15.3-11.7 5-12.3-63.7 118.6-118.6 141.7-180.1 23.3-61.9-13.1-120.1-26.7-179.4-1.5-6.4-2.6-12.9-3.6-19.4-1.2-7.8 7.8-13.5 10.1-4.4z"  fill="#005bbb" /><path d="M360.5-311.9c8.7 61.2 43.3 117.7 39.6 180.8-4.5 77-62.7 109.2-114.2 155.3-11.1 10-21.1 21.4-27.6 35-2.7 5.7-3.9 23.5-13.8 21-10.5-2.6-2.6-18.7 5.9-11.9 8.5 6.8-5.5 18.1-10.4 8.3-2.6-5.2 1.1-14.2 2.5-19.1 20.7-71.6 110.8-89.8 137.2-159.3 26.6-70-15.8-137.6-28.7-205.3-1.4-7.4 6.9-13.5 9.5-4.8z"  fill="#c2e1ff" /><path d=""  fill="#c2e1ff" /><path d="M423.5-399.9c81 100.7 107.1 160.5 63 289.1-4 11.7-14.9 60.4-27.9 63-14.5 3-10-22.3 2.6-14.5 12.6 7.8-8.1 23.1-11.8 8.8-3.7-14 17.7-48.4 22.6-62.4 13.6-38.2 24.6-77.6 23.1-118.5-2.3-62.2-30.8-109.8-70-156.1-0.9-1-8.1-15.6-1.6-9.4z"  fill="#fff500" /><path d="M395.3-264.3c25.8 82.8 41.1 168.6-22.1 239.4-19.2 21.5-42.6 38.3-63.1 58.3-7.7 7.5-30.6 50-38.9 47-11-4-0.5-20.5 7.8-12.2 9.7 9.7-12.2 19.2-12.6 5.4-1.3-46.3 105.2-111.1 127.6-162.6 17-39.1 16.2-82.5 6.8-123.4-3.1-13.3-16.5-38.3-14-51.4 0.9-4.8 6.8-4.4 8.5-0.5z"  fill="#fff" /><path d="M439-400c93.5 98.8 102 185.8 51.5 309.9-5 12.2-18.4 64.8-31.8 67.6-10.6 2.2-13.1-14.7-2.3-15.7 10.8-1 11.4 16 0.6 15.9-18.5-0.3 4.4-38.8 7-45.1 22.2-53.4 48.7-108.1 46.8-167.3-1.4-44-15-88.3-41.1-123.9-1.1-1.6-43.9-52.2-30.7-41.4z"  fill="#c2e1ff" /><path d="M421.1-141.6c-2.1 88.3-55.4 121.6-111 178.1-6.1 6.2-29.7 43.3-31.3 43.9-11.4 3.3-12.7-16.3-1-14.6 11.7 1.7 4.7 20.1-5.2 13.6-29.1-19.1 88.3-116.3 99.2-129.6 34.6-42.2 27.7-78.8 37.7-95.1 3.6-5.9 11.2-2.3 11.6 3.7z"  fill="#c2e1ff" /><path d="M432.6-165c4.7 107.2-49 138.2-108.7 211.6-5.6 6.9-17.8 38.8-28.6 34.1-11.2-4.8 0.6-21.3 8.7-12.1 8.1 9.1-9.5 19-13 7.3-7.8-25.4 78.2-103.2 94.2-125.6 38.6-53.9 26.8-99.6 36.3-118 3-5.8 10.3-2.9 11.1 2.7z"  fill="#fff500" /><path d=""  fill="#c2e1ff" /><path d="M512.9-399.9c45.5 48.2 79.6 160.8 70.9 226.5-3.9 29.5-17.3 55.8-32.2 81.1-5.6 9.6-20.2 46.5-31.6 47.7-15.6 1.7-8.3-24.5 4.1-15 12.5 9.5-10.8 23.5-13.3 8-1.3-8.2 62.6-101.6 62.4-153-0.2-54.2-19.4-121.6-46.8-168.3-4.2-7.2-15.7-17.3-17.4-25-0.6-2.4 2.3-3.4 3.9-2z"  fill="#fff500" /><path d="M467.4-245.8c21.5 113.4-27.1 189.6-76.2 284.7-3.9 7.6-12.2 44.8-23.3 41.6-10.8-3.1-1.9-19.4 6.6-12.1 9.9 8.6-10.3 19.1-11.7 6-3.3-32.6 60.4-122.8 74.3-159.9 12.3-33 20.5-67.9 22.5-103.1 1-16.1-7-43.6-2.1-58 1.8-5.3 8.6-3.8 9.9 0.8z"  fill="#fff" /><path d="M481.3-125.9c-14.9 54.2-40.2 102.7-62.4 153.9-4.1 9.6-9.8 47.2-17.7 51.3-9.2 4.7-13.6-11.9-3.2-12.4 10.3-0.4 7.3 16.5-2.3 12.6-16.4-6.8 12.9-68.3 17.8-79 9.2-19.8 52.6-130.8 55.5-133.6 5.7-5.9 13.5 0.2 12.3 7.2z"  fill="#fff500" /><path d="M493.5-41.8c-11.8 26.6-22.7 54.2-29.3 82.6-1.8 8-1.1 33.6-8 37.8-8.4 5.1-13.6-10.3-3.9-11.4 9.7-1.1 8 15.1-1.3 12-21.5-7.2 20.9-113 27.8-127.4 4.6-9.6 17.6-3.4 14.7 6.4z"  fill="#fff" /><path d="M536.9-400c42.1 53.7 82.4 200.1 67.6 261.1-7.4 30.8-27.3 57.9-43.8 84.3-5 8-16.5 39.3-28.1 36.9-9.5-2-8.1-16.4 1.6-16.5 11.4-0.1 10.6 17.8-0.7 16.6-21.6-2.1 31.4-76.5 36.8-85.5 24.9-41.6 22.2-74.8 22.6-125.3 0.2-30-39.2-134.8-56-161.6-0.5-0.8-6.7-17.5 0-10z"  fill="#c2e1ff" /><path d="M516.1-209.6c-2.4 83.1-50.4 158.9-77.7 235.3-3.2 8.9-8.3 51.9-16.3 53.6-9.7 2-9.5-14.4 0.1-12.2 8.2 1.9 4.6 14.7-3.5 11.9-22.5-7.8 26-111.4 31.9-125.1 15.2-36.1 30.9-72.5 42.3-110.1 4.8-15.7 3.6-43.9 11.7-57.1 3.6-5.9 11.2-2.3 11.5 3.7z"  fill="#c2e1ff" /><path d=""  fill="#fff" /><path d="M541.1-69.7c-17.7 29.7-33 60.7-43.2 93.9-3.9 12.5-4.4 44.9-13 53.7-7.2 7.5-16.7-6.8-7-10.6 11.3-4.4 11.1 16.7-0.2 12.1-24-9.8 35.7-145 49.7-159.4 7.4-7.6 17.4 1.7 13.7 10.3z"  fill="#c2e1ff" /><path d="M552.9-139.8c-21.5 54.6-55.6 102.5-73 159.2-2.6 8.6-8.9 65-20 59.7-7.7-3.7-1.2-15.4 6-11 7.2 4.5-0.4 15.5-7.2 10.3-13.8-10.8 9.7-73.1 14.4-86.8 8.3-24.1 52-128.4 67.4-140.8 6.9-5.5 14.5 2.1 12.4 9.4z"  fill="#c2e1ff" /><path d="M569-400c47.4 84.4 36 180.3 37.7 275.2 0.2 13.7 7.2 119.5-3.9 145.7-5 11.8-22.5-0.8-12.8-9.4 11.3-9.9 20.1 14.8 5.1 14.2-13.3-0.5-4.6-69-4.7-72.6 0.1-26-0.2-52 0.2-77.9 0.8-61.1 2.8-122.2 3.2-183.3 0.2-23.7-31.7-70.6-31.4-90.4 0.1-3.9 4.8-4.3 6.6-1.5z"  fill="#fff500" /><path d="M599.4-399.9c1.1 2.9 7.6 15.9-1.1 15.3-5.1-0.4-5.4-8-0.3-8.7 5.9-0.9 6.8 8.5 0.8 8.7-14.3 0.5-5.2-27.4 0.6-15.3z"  fill="#fff500" /><path d="M588.6 2.8c-5.8 11.3-33.5 84.1-46.3 77.7-9.7-4.8-1.3-19.7 7.8-13.9 9.2 5.8-0.8 19.8-9.3 13-10-8 26.2-80.8 35.6-87.4 7.5-5.3 15 3.1 12.2 10.6z"  fill="#005bbb" /><path d=""  fill="#fff500" /><path d=""  fill="#c2e1ff" /><path d="M606.1 27.3c-4 9.5-20.8 61.7-35.1 53.4-9.8-5.7 0-20.7 9.1-14 9.1 6.7-2.2 20.6-10.6 12.9-8.3-7.7 16.9-55.9 24.2-61.8 6.9-5.5 14.6 2.1 12.4 9.5z"  fill="#fff" /><path d=""  fill="#005bbb" /><path d=""  fill="#fff" /><path d=""  fill="#fff500" /><path d=""  fill="#c2e1ff" /><path d=""  fill="#c2e1ff" /><path d=""  fill="#c2e1ff" /></svg>