<svg width="1200" height="675" viewBox="-500 -500 1200 675" xmlns="http://www.w3.org/2000/svg"><path d="M-500-500h1200v675h-1200z" fill="#000"/><path d=""  fill="#005bbb" /><path d=""  fill="#c2e1ff" /><path d=""  fill="#c2e1ff" /><path d=""  fill="#fff500" /><path d=""  fill="#c2e1ff" /><path d=""  fill="#005bbb" /><path d=""  fill="#fff500" /><path d=""  fill="#fff" /><path d=""  fill="#fff500" /><path d=""  fill="#fff500" /><path d=""  fill="#fff500" /><path d="M-395.8-299.8c22.7 60.5 46.2 119.6 15.4 182.4-3.1 6.2-10.1 24.6-18.4 24.3-12.5-0.4-3.7-20.4 5-11.5 7.5 7.6-7.5 17.1-11.1 7 0-0.1 28.9-60.2 30.8-81.7 3.8-42.4-28.5-110.4-27.4-119.7 0.4-3.3 4.4-3.3 5.7-0.8z"  fill="#005bbb" /><path d=""  fill="#c2e1ff" /><path d="M-382.6-373.1c-1.7 42.3 23.7 78.1 36 117 18.7 59 10.2 122.4-20.9 175.5-4.8 8.2-20.5 40.1-31.6 39.1-12.8-1.2-2.7-21.2 5.8-11.5 7.3 8.3-8.7 17.1-11.8 6.5-2.7-9.2 21.2-32 26.3-40.1 16.9-26.8 28.4-56.8 32.2-88.3 8.5-69.9-27.1-110.6-41.5-173.8-6.3-27.9 3.7-37.2 5.5-24.4z"  fill="#c2e1ff" /><path d="M-379.3-397.6c-13.9 51.3 16.4 93.2 31.6 139.9 19.7 60.3 10.9 125.1-21.7 179.2-4.7 7.8-19.3 37.1-29.8 36.1-12.9-1.2-2.6-21.2 5.8-11.5 7.2 8.3-8.8 17.1-11.8 6.5-2.7-9.2 19.9-30.2 24.9-37.9 17.1-26.6 28.9-56.5 33-87.9 10-76.6-30.7-114.3-42.7-181.9-2.3-12.8-5-33.7 1-45.9 2.8-5.7 10.3-2.3 9.7 3.4z"  fill="#005bbb" /><path d=""  fill="#c2e1ff" /><path d="M-357.1-218.5c7.9 44.4-1.2 90.1-26.2 127.7-3.2 4.8-7.6 14.3-13.5 15.8-10.7 2.6-11-15.7-0.2-13.5 9.2 1.9 5.5 16.2-3.5 13.4-11.9-3.8 24-51.1 29.9-69.4 8.2-25.6 3.4-48.3 6-73.9 0.5-4.6 6.4-4.1 7.5-0.1z"  fill="#fff" /><path d="M-346.8-99.6c-4.7 11.1-43.2 91-56 81-7.1-5.6 2.3-16.3 8.7-10 5.5 5.4-1.6 14.4-8.1 10.4-10.2-6.3 10-26.5 13.6-31.9 8.2-12.1 23.8-49.4 32.8-56.5 5.1-4 10.7 1.7 9 7z"  fill="#fff" /><path d=""  fill="#fff" /><path d="M-377.1-397.4c-12.7 49.9 16.3 90.8 31.5 136.1 18.6 55.8 13.3 116.3-13 168.8-4 7.9-16 37.8-26.5 37.5-12.4-0.3-3.9-20.2 4.9-11.4 8.8 8.8-11 17.4-11.4 4.9-0.3-10.8 18.7-30.3 23.9-40.2 12.7-24.6 21.1-51.4 23.7-79 6.6-69.6-30.7-110.9-42.9-174-2.5-12.8-5.6-33.6 0.1-45.8 2.7-5.7 10.1-2.4 9.7 3.1z"  fill="#fff" /><path d="M-322.3-386.6c6.5 59.2 34.4 100.9 31.3 165.8-3.7 77.3-40.5 145.4-49.8 220.9-1.8 14.3-1.7 28.9 1.1 43 0.5 2.6 7.8 18.8 0.8 18.5-4.1-0.2-3.5-6.6 0.6-6 4.1 0.6 2.8 7-1.3 5.9-10.4-2.7-11.2-42.5-11.1-51.3 0.6-71 39.4-138.5 48.4-209 11.4-89.8-15.4-109.6-27.6-186.6-0.8-5 6.3-5.8 7.6-1.2z"  fill="#fff500" /><path d=""  fill="#c2e1ff" /><path d="M-306.1 39.9c1.8 4.6 18.8 34.1 16.2 35.6-2.6 1.5-4.7-2.7-1.9-3.9 2.7-1.2 4.4 3.2 1.5 4-4.8 1.5-20.4-29.2-21.2-34.1-0.6-3.5 3.9-4.3 5.4-1.6z"  fill="#fff500" /><path d="M-295.6-226.9c-0.6 82.4-41 151.9-53.5 231.2-6.9 44.1 7.6 68.6 6.1 70.9-2.5 3.8-7.8-1.6-3.9-4 4.5-2.8 6.1 6.3 0.9 5.2-13.9-2.9-12.8-76.4-10.1-89.8 7.7-38.5 23.7-74.9 34.6-112.5 5.1-17.5 14.7-98.1 17.6-103.3 2.4-4.3 7.9-1.9 8.3 2.3z"  fill="#fff" /><path d="M-286.3-173c-11.2 59.8-40.8 122.1-35.9 183.7 1.1 13.9 21.7 61.9 21.6 63.1-0.4 4.2-6.9 0.9-3.7-1.9 3.1-2.8 5.6 4.1 1.4 4-5.3-0.2-13.1-20.3-15.2-24.8-32.6-69.2 4.7-146.4 19.6-215.4 0.8-3.7 0.7-11.1 4.1-13.7 4-3 8.4 0.7 8.1 5z"  fill="#005bbb" /><path d=""  fill="#fff500" /><path d="M-281.5-398.8c1.1 45.8 17.3 89.3 16.1 135.7-1.8 68.3-24.3 132.9-36.9 199.4-1.4 7.4-3.3 55.5-9.1 55.5-6.6-0.1-4.1-10.7 1.8-7.9 7 3.3-2.9 12.5-5.7 5.2-12.2-31.7 29.4-164.7 35.9-206.1 5.6-35.7 7.3-71.7 1.9-107.6-2.7-17.9-19.4-59-11.9-75.7 1.9-4.2 7.2-2.5 7.9 1.5z"  fill="#005bbb" /><path d="M-260.2-143.9c-10.9 50.1-19.9 102.7 0.1 151.8 7.6 18.7 18.5 35.7 29.1 52.8 1.1 1.8 11.5 14.1 5.2 15-3.2 0.5-3.7-4.6-0.5-4.8 2.8-0.1 3.4 4 0.7 4.8-4.3 1.1-7.8-10-9.4-12.6-22.5-37.2-43.5-72.3-45.7-116.9-1.3-26.8-1.1-68.8 10.9-93.4 2.7-5.7 10.1-2.3 9.6 3.3z"  fill="#fff" /><path d="M-253.2-32.9c6.9 30.1 23.1 55.9 39.1 81.8 2.2 3.6 17.9 24.3 12.5 26.8-3.2 1.4-5.2-3.7-1.9-4.8 3.3-1.1 4.8 4.2 1.3 5-4.5 1-8.5-12.1-10-14.7-14.1-24.8-31.1-47.9-41.6-74.6-9.5-24.1-1-23.5 0.6-19.5z"  fill="#005bbb" /><path d="M-243.9-70.5c3.8 42.6 25.6 76.6 47.7 111.9 2.6 4.1 21.9 31.9 15.8 34.3-3.4 1.4-5.3-4.1-1.7-5.1 3.6-1 4.9 4.7 1.2 5.3-4.9 0.8-9.7-15.5-11.5-18.7-16.9-31-39.4-58.8-51.1-92.5-3.4-9.8-9.4-24.6-8.2-35.2 0.6-4.8 6.7-4.2 7.8 0z"  fill="#fff" /><path d="M-234.8-365c-0.3 36.5 1.7 72.3-3.5 108.7-10.5 74-44.4 150.4-34.6 226 6.2 48.1 40.9 79.2 45.9 103.4 0.9 4.3-6.7 3-4.4-0.8 2.7-4.4 7.1 4 1.9 3.6-6-0.4-20.2-31.1-23.6-36.7-60.5-101.2-5.7-206.6 7.3-312.9 3.4-28.1-3.7-67 2.4-92.3 1.2-5.2 8-3.7 8.6 1z"  fill="#fff500" /><path d="M-228.5 52.8c1.9 3 15.9 20.7 10.9 23.1-3 1.5-5.1-3.4-2-4.5 3.1-1.1 4.7 3.9 1.5 4.7-8.6 2.1-15.9-30.3-10.4-23.3z"  fill="#005bbb" /><path d="M-218.3-78.8c9.6 48.4 76.8 122.5 77.9 152.2 0.2 5.6-9 2.3-5.3-1.8 3.1-3.6 7.8 2.8 3.5 4.7-3.2 1.4-76.8-131.3-81.1-146.8-1.3-4.6 1.6-17.5 5-8.3z"  fill="#c2e1ff" /><path d=""  fill="#c2e1ff" /><path d=""  fill="#fff" /><path d="M-193.5 57.8c1.6 2.8 11.9 15.7 6.4 18-3.4 1.4-5.3-4-1.8-5 3.5-1 4.8 4.5 1.2 5.2-9.7 1.8-11.1-25.5-5.8-18.2z"  fill="#fff" /><path d=""  fill="#005bbb" /><path d="M-173.8-178.8c-2.3 37.7 5.3 73 23.1 106.3 12.4 23.2 75.7 125.2 65.2 147.2-2.4 5.1-9.9-0.7-5.5-4.3 4.4-3.6 8.7 4.8 3.2 6.2-4.8 1.3-18.4-54.7-21.4-62.2-20.1-50.4-59-92-70-146.2-2.8-13.7-7.4-34.7-3.4-48.4 1.5-5.3 8.4-3.5 8.8 1.4z"  fill="#fff" /><path d="M-167.2-76.2c15.6 32.6 38.7 60.9 54.2 93.7 3.4 7.1 25.8 54.4 17.7 58.9-5.6 3.1-7.1-8-0.8-6.4 5.3 1.4 1.2 9.5-3 6-3-2.4-15.2-48-18.9-56.2-8.4-19.1-54.3-80.7-54.2-94.8 0-2.9 3.5-3.2 5-1.2z"  fill="#c2e1ff" /><path d=""  fill="#fff500" /><path d="M-149.7-93.2c14.6 33.1 36 62.6 50 96.1 3.6 8.6 27.7 69 17.9 73.7-6.1 3-7-8.9-0.5-6.8 5.6 1.8 0.7 10.1-3.5 6.2-3.4-3.1-13.2-54-16.6-63.4-6.4-18-52.8-97.3-52.5-104.7 0.1-3 3.8-3.3 5.2-1.1z"  fill="#fff500" /><path d="M-139.9-153.7c10.3 62.4 49.7 115.7 63.1 177.7 1.8 8.2 13.3 46.4 6.8 52.1-3.9 3.5-9.1-3-4.8-6 5-3.5 9 5.9 2.9 6.9-4.9 0.9-16.9-73.9-19.6-83.3-12.9-44.3-38.1-83.7-51.1-127.9-1.4-4.9-5.9-14.8-4.4-19.8 1.2-3.9 6-3 7.1 0.3z"  fill="#fff" /><path d="M-131.4-146.8c7.3 34.3 79.3 196.6 64.3 222-3.2 5.4-10.7-1.7-5.5-5.3 5.1-3.5 9 6 2.8 7.1-5.1 0.9-16.1-76.6-18.7-86.4-12.3-45.9-36.8-87.3-49-133.2-1.3-5 3.7-10.5 6.1-4.2z"  fill="#005bbb" /><path d="M-123-128c18.5 61.7 46.8 116 55.1 181 0.7 5.2 4.6 17.8 1.8 22.4-3.2 5.4-10.8-1.8-5.6-5.3 5.2-3.5 9 6.1 2.9 7.2-5.3 0.9-15.5-76.8-18-86.7-6.2-24.4-47.1-107.9-42.2-118.9 1.3-2.9 4.8-2.2 6 0.3z"  fill="#c2e1ff" /><path d="M-114.6 44.9c1.8 4.4 14.6 30.1 7.2 31.9-4.4 1-5.6-6-1.2-6.6 4.5-0.5 4.9 6.6 0.4 6.6-4.6 0-12.6-27-12.1-31.1 0.4-3.2 4.4-3.2 5.7-0.8z"  fill="#c2e1ff" /><path d="M-104.8-187.4c6.5 71 34.3 138 41.7 209.1 1.2 11.2 9.6 44.9 3.5 54.2-3.5 5.4-11.1-2.2-5.5-5.6 5.5-3.4 9.1 6.7 2.6 7.5-6.4 0.8-11.8-84.6-13.4-95.3-4.9-31.6-45-149.1-36.5-170.9 1.6-4.1 6.8-2.7 7.6 1z"  fill="#fff500" /><path d="M-96.4-157.7c5.7 34 50.6 213.8 37.6 233.6-3.6 5.4-11.1-2.3-5.5-5.7 5.5-3.4 9.1 6.7 2.6 7.5-6.7 0.8-10.9-82.3-12.3-92.7-2.3-16.7-29.7-143.2-29.2-143.9 1.9-3.1 5.9-1.7 6.8 1.2z"  fill="#fff" /><path d="M-189.2-396.5c-17.4 42.7-13.6 92.7-21.9 137.7-6.6 35.8-16.8 70.9-23.4 106.7-1.8 10.1-0.9 57.4-7.8 62.2-5.5 3.9-9.9-6.5-3.2-7.7 6.7-1.2 6.2 10-0.3 8.4-19.7-5.1 19.3-145.5 23-163 9.4-44.6 8.2-91.2 19.1-135.2 5-20.1 17-20.3 14.5-9.1z"  fill="#005bbb" /><path d="M-78.7-183.4c6.5 66.9 18.2 133.1 21.7 200.3 0.6 12.3 8.4 49.1 1.6 59.1-3.7 5.5-11.2-2.6-5.6-6 5.7-3.4 9.1 7.1 2.6 7.7-7.5 0.8-8.3-85.9-9.1-96.7-1.8-24.7-23.5-153.8-18.8-165.5 1.6-4.1 6.8-2.6 7.6 1.1z"  fill="#fff500" /><path d="M-177.9-396.1c-6.7 14.3-42.4 208.3-47.6 239.4-1.7 10.1 0.2 57.9-6.3 62.9-5.2 4-9.8-5.9-3.4-7.3 6.4-1.4 6.4 9.5 0 8-18.9-4.2 11.4-122 14.9-136.8 12-51.8 11.9-107.4 27.2-158 4.7-15.6 19.9-24.8 15.2-8.2z"  fill="#fff" /><path d="M-60.7-282.8c-2.1 32.2 17.6 360.5 4.7 360.2-6.7-0.2-4-11 2-8 6 3-1 11.7-5.2 6.4-5.2-6.4-2-109.5-2.2-125.9-0.7-64.1-11.6-180.5-8.3-233.1 0.4-6 8.6-5.3 9 0.4z"  fill="#fff" /><path d="M-52.2-26c0.1 11.4 3.9 103.7-3.7 103.5-5.8-0.2-5-9.2 0.7-8.5 4.9 0.7 4.7 8-0.2 8.4-5.2 0.4-10.2-95.4-5-105.4 2.2-4.2 7.6-2.1 8.2 2z"  fill="#fff500" /><path d="M-42.6-340.4c-19 54-6.6 110.4-4.4 165.9 2.3 58-2.3 116.3-3.2 174.3-0.1 9.2 2.9 77.8-4.7 77.6-6.8-0.2-4-11.1 2-8 6 3-1 11.8-5.2 6.4-5-6.3-0.7-91.6-0.4-105.8 0.9-47.1 4.1-94.4 3.1-141.5-1-44.6-9.9-89.4-5.3-134.1 1-10 1.5-32.9 9-40.3 4.3-4.3 10.1 0.4 9.1 5.5z"  fill="#005bbb" /><path d="M-34.4-314.5c-6.3 46.8 8.1 92.9 7.7 139.6-0.5 57.9-14.8 115.4-18.6 173.3-0.6 9.5-0.1 79.7-7.2 79.4-6.8-0.3-3.9-11.3 2.2-8.2 7.1 3.7-3.5 12.8-6.1 5.3-10.3-30 10.9-165.8 16.2-203.5 8.2-58-5-111.3-4.5-168.8 0.2-29.3 10.2-25 10.3-17.1z"  fill="#005bbb" /><path d="M-25.3-73.7c-9.9 37.2-15.5 75.3-18.1 113.8-0.4 6 2.2 38.2-6.2 37.6-6-0.4-4.8-9.7 1.1-8.7 5.9 1 3.7 10.2-2 8.5-15.1-4.4 7.5-140.1 15.4-155 3.1-5.7 10.5-1.9 9.8 3.8z"  fill="#fff500" /><path d="M-16.4-6.1c-5.5 14.1-14.4 77.7-19.1 82.9-4.9 5.5-12-4.4-5.2-7.4 7.9-3.4 8.3 11.6 0.2 8.6-11.6-4.2 7.9-79.8 14-89.1 3.8-5.8 11.4-1 10.1 5z"  fill="#fff" /><path d="M-7.6 4.4c-7.9 16.5-18.4 71.1-22.7 73.2-6.8 3.5-10-8.8-2.3-9 7.6-0.3 5.4 12.2-1.7 9.2-11.5-4.8 10.2-71.1 16.6-79.4 4.4-5.8 12-0.1 10.1 6z"  fill="#005bbb" /><path d="M-1-279.8c7.4 33.4 21.2 65.4 19.7 100.3-2.7 61.1-42.1 116.7-53 176.9-1.8 9.7-6.6 81.1-13 80.6-7-0.6-3.6-11.8 2.6-8.3 6.1 3.5-1.7 12.2-5.8 6.5-6.1-8.5 1-37.9 2-48.1 7.3-70.5 34.5-117.7 53-182.7 13.1-46.3-13.8-122.6-11.9-126 1.6-3 5.4-2 6.4 0.8z"  fill="#c2e1ff" /><path d=""  fill="#c2e1ff" /><path d=""  fill="#fff500" /><path d="M25.2-325.8c10 57 59 99.3 52.3 160.5-7.3 66.7-71.2 107.4-94.1 168-3.6 9.4-16.4 76.4-21.4 75.7-6.3-0.9-4.3-10.7 1.8-9.2 6.1 1.6 3.1 11.1-2.8 8.9-8.4-3.2 0.6-34.1 1.8-40.6 18.4-96.6 84.5-126 102.9-194.7 15-55.9-21.6-97-40.8-145.9-8-20.5-3.5-33.3 0.3-22.7z"  fill="#fff500" /><path d=""  fill="#005bbb" /><path d=""  fill="#fff500" /><path d="M50-297.2c37 70.7 80.9 120.3 34 202.7-21.9 38.4-61 62.8-83 101.2-5.1 8.9-24.8 72.2-29.4 71.2-7.6-1.7-2.2-13.5 4-8.7 5.3 4-1.5 12.1-6.4 7.5-6.6-6.2 4.6-34.4 6.9-41.9 22.5-72.3 91.2-102.3 112-168 10-31.6 8.3-65.8-4.6-96.3-9.9-23.4-25.6-43.3-37.8-65.3-1.6-2.9 2.5-4.9 4.3-2.4z"  fill="#005bbb" /><path d="M59.7-217.8c26.2 83.5-50 136.1-76.9 206.7-5.7 14.8-14.7 82-19.4 87.4-5.7 6.4-12.4-6.9-3.9-7.7 7.3-0.6 5.7 11.4-1.1 8.9-18.3-6.6 19-107 25.2-119.9 16.1-33 41.7-59.7 58.8-92 7.9-14.9 13.2-31 14.2-47.9 0.6-10.7-5.6-25.9-3.3-35.5 0.8-3.6 5.3-3.1 6.4 0z"  fill="#005bbb" /><path d="M70.7 44.9c-4.6 6.1-20.1 39-29 33.9-7.2-4.2 0-15.1 6.7-10.2 6.7 4.9-1.7 15-7.8 9.4-7.3-6.8 17.5-48.6 27.9-42.9 3.8 2.1 4.1 6.4 2.2 9.8z"  fill="#c2e1ff" /><path d="M77-216.9c31 91.3-52.6 138.2-86.5 210.5-5.4 11.6-22.6 82.5-22.9 82.7-5.1 5.5-12.2-4.8-5.2-7.6 8.1-3.3 8.2 12 0.1 8.8-17-6.7 19.2-94.1 25.3-105.6 19.3-36 51.6-62.3 71.5-97.7 9.5-16.9 15.3-35.9 15.8-55.4 0.3-10.6-6.3-25.8-4.4-35.5 0.7-3.5 5.1-3.1 6.3-0.2z"  fill="#fff" /><path d="M87.8-137.3c-15.8 56.7-70.4 88.5-95.3 140.3-8.6 17.8-14.4 36.9-18.1 56.3-0.7 3.8-0.7 23.3-9.5 18.5-19.2-10.5 24.6-5.1 3.5 0.4-10.1 2.7-4.4-17.3-3.9-20.6 14.7-90 57.4-103.5 99.9-171.4 5-8 7.9-22.9 14.4-29.2 4.4-4.2 10.1 0.5 9 5.7z"  fill="#fff500" /><path d="M96.7-66.7c-20.5 37.3-58.8 59.5-81.9 94.9-4.7 7.3-22.3 54.8-29.4 49.5-5.8-4.3 1.5-13 6.7-8.1 5.3 4.9-2.9 12.8-7.6 7.3-3.7-4.3 1-13.1 2.4-17.3 14.8-46.9 48.1-74.7 80.5-109.3 6.5-6.9 12.8-21 20.7-25.7 6-3.6 11.2 3.2 8.6 8.7z"  fill="#005bbb" /><path d="M105.4-58.2c-18 38.8-55.1 61.8-79.1 96.1-4.4 6.2-20.3 46.6-28.5 39.6-5.7-4.9 2.6-13.5 7.7-8 5.2 5.5-4 13.2-8.5 7.2-11.2-15 52.8-86.9 64.6-98.7 10.6-10.6 25.3-37.3 34.9-44 5.5-3.8 10.9 2.4 8.9 7.8z"  fill="#fff" /><path d="M117.3-399.3c11.5 47.4 48.7 83 63.4 129.4 17.2 54.3 8.2 113.1 38.1 163.7 14.5 24.5 58.3 60.1 66.2 80 1.2 3-4.4 3-3.1 0 1.2-3 5.2 0.8 2.3 2.2-3.4 1.6-20.5-21.4-23.4-24.5-95.5-103.9-54.6-107.6-86.7-220.8-11.7-41.1-40.3-72.5-57-111.2-9.2-21.2-2.2-24.5 0.2-18.8z"  fill="#fff500" /><path d=""  fill="#c2e1ff" /><path d="M128.4-370.2c17.5 36.7 43.8 67.5 54.8 107.4 16.4 59.8 7.8 119.8 46.4 172.8 20.3 27.8 92 89.7 93.8 122.1 0.3 5.5-8.8 2.4-5.3-1.8 3.1-3.6 7.8 2.6 3.5 4.6-3.4 1.6-22.8-37.7-26.5-42.8-30.1-41.7-73.2-73.7-93.9-121.9-20.1-46.7-13.5-98.8-28.9-146.6-10.8-33.5-32.6-60.5-48.5-91.4-1.6-3.1 2.8-5.1 4.6-2.4z"  fill="#c2e1ff" /><path d=""  fill="#fff500" /><path d="M146.8-204.8c14.8 55 15.2 110.9 56.5 155 17.7 18.8 115.9 96.3 97.5 125.2-3.5 5.5-11.1-2.1-5.7-5.7 4.7-3 9 4.6 4 7.2-8.2 4.1-7.3-16.6-8-19.9-3.3-14.2-10.2-27.3-19-38.8-31.6-41.6-80.8-63.6-104.3-112.4-7.6-15.8-27.7-111.1-26.9-112.1 2-2.2 5-1 5.9 1.5z"  fill="#fff" /><path d="M155.1-234c20.6 56.4 17.4 115 60.4 162 37.6 41.2 91.8 71.2 105.2 129.5 1 4.5 4.4 14.3 1.7 18.3-3.8 5.5-11.4-2.6-5.6-6 4.9-2.9 9.1 5.1 3.9 7.5-8.7 4-7.3-19.8-8.1-23.5-3.5-16.9-11.4-32.5-21.4-46.5-32.7-45.3-85.7-71.6-110.8-123.1-7.4-15.3-33.5-104.1-31.3-117.7 0.6-3.4 4.8-3.2 6-0.5z"  fill="#c2e1ff" /><path d="M163.1-323.2c40.5 72.4 18.6 160.8 65.9 229.4 34.2 49.5 89.6 87.1 102.4 149.2 1 4.8 4.6 16.1 1.5 20.4-3.4 4.7-10.5-1-6.7-5.4 4.5-5.1 11.1 4.1 4.9 6.8-9 3.9-7.4-23.5-8.3-27.6-4.3-20.9-14.4-40.1-26.7-57.4-31.4-44.1-76.8-78-96-130.3-18.8-51.1-9.7-107.4-30-158.3-11.3-28.4-11.3-32.9-7-26.8z"  fill="#005bbb" /><path d="M172.4-119.1c23.9 69.5 98.1 92.7 129.8 155.5 3.1 6.2 16.6 34.2 9.3 40-6.1 4.7-9.8-8.1-2.2-7.4 6.5 0.6 3.2 11-2.5 7.7-4.7-2.7-3-15.2-3.9-19.8-2.7-12.9-8.2-25.1-15.3-36.2-25.4-39-69-60.2-97.5-96.5-9.7-12.4-17.6-26.4-23.4-41.1-1.4-3.7 3.9-5.5 5.7-2.2z"  fill="#005bbb" /><path d="M180.2-29.2c14.5 24.9 65.9 71.1 57 103.5-1.8 6.4-11.5 1.3-7.2-3.9 4.3-5.1 11 3.7 5 6.5-6.2 2.9-12.6-35.2-15.9-41.4-11.6-22.5-29.5-40.9-42.8-62.3-1.6-2.6 2.1-4.7 3.9-2.4z"  fill="#005bbb" /><path d="M188.5-69.2c30 43.4 84.3 64.9 106.4 114.5 2.4 5.4 11.9 26.2 6 31-5.9 4.8-9.8-7.9-2.3-7.3 6.5 0.5 3.3 10.8-2.3 7.7-7.6-4.3 0.7-26-22-57-21.7-29.7-54.5-48.1-79.1-74.9-1.8-2-12.1-19.6-6.7-14z"  fill="#fff" /><path d="M199.6-261.4c8.2 63.2 0.6 121 40.3 175.6 17.8 24.5 115.2 132.6 94.3 161.5-4 5.5-11.5-2.9-5.6-6.2 5.1-2.9 9.2 5.4 3.8 7.7-8.7 3.7-6.5-16.6-6.9-20-2.2-17.1-8.4-33.4-16.8-48.4-29.8-53.4-83.6-90.1-103.6-149.5-5.8-17.1-13-122.4-12-123.3 2.6-2.2 5.8-0.3 6.5 2.6z"  fill="#fff" /><path d="M208.6-203.1c0.2 42.3 9 80.5 33.4 115.6 23.9 34.5 107.7 116.9 93.6 162-2 6.5-11.9 0.9-7.3-4.2 4.6-5.1 11.1 4.2 4.9 6.9-8.9 3.8-6.5-17.2-7-20.7-2.1-15.8-7.5-30.9-14.8-44.9-27.1-51.7-77.4-87.9-98.9-143.1-7.6-19.6-17.1-51.3-12.3-72.4 1.2-5.1 7.8-3.7 8.4 0.8z"  fill="#fff" /><path d="M217.6-205.8c-2.6 43.7 5.8 83.2 30.3 119.9 22.8 34.2 102.6 116.5 88.9 160.3-2 6.5-11.9 0.9-7.3-4.2 4.6-5.1 11.2 4.2 4.9 6.9-8.9 3.8-6.5-17.2-6.9-20.7-2-15.8-7.3-30.9-14.6-45-26.6-52-76-89.4-95.3-145.5-6.9-19.9-15-52.3-8.9-73.2 1.6-5.3 8.5-3.4 8.9 1.5z"  fill="#fff" /><path d="M226-398.7c9 85.5-25.1 216.8 7.6 286.5 15.8 33.6 88.7 108.4 91 135.3 0.5 5.3-8.3 2.6-5-1.5 3.3-4.1 7.8 3.8 2.6 4.6-3.7 0.5-27.3-44.6-31.6-50.4-29.8-40.5-66.3-77.4-77.1-128.3-14.8-69 9.8-157 5.6-230.6-1.2-21.6 6.2-19 6.9-15.6z"  fill="#fff500" /><path d=""  fill="#005bbb" /><path d="M241.7-114.1c13.2 33.3 115.6 164.2 96.4 190.2-3.5 4.7-10.7-1.2-6.7-5.5 4.7-5.1 11.2 4.3 4.9 6.9-9 3.7-6.6-19.2-7-22.7-2.3-17.1-8.3-33.5-16.3-48.7-19.5-37.2-49.6-67.5-69.7-104.4-2-3.7-7.3-10.6-7-14.9 0.2-3.1 4-3.3 5.4-0.9z"  fill="#fff500" /><path d="M253-308.6c-19.1 69.7-43.4 144-6 212 21.6 39.2 54.7 70.7 75 110.7 3.8 7.4 26.3 59.8 13.2 63.6-6.6 1.9-7.4-9.4-0.5-8.4 6.8 1 2.7 11.7-3.1 7.9-5.7-3.7-5.9-37.7-8.6-46-23.5-70.2-93.8-114.4-103.8-190.9-4.4-34 7.3-123.1 24-152.9 3.2-5.7 10.7-1.7 9.8 4z"  fill="#fff500" /><path d="M257.6 9c13.2 13.3 39.5 44.2 34.3 65.4-1.5 6.3-11.2 1.6-7.1-3.5 4-5.1 10.8 3.3 5 6.2-7.4 3.7-10.7-28.9-13-34-1.1-2.5-27.3-41-19.2-34.1z"  fill="#fff" /><path d=""  fill="#fff" /><path d="M275.1-38.1c14.5 16.1 72.6 92.7 57.4 114-4 5.5-11.5-2.9-5.6-6.2 5.1-2.9 9.1 5.4 3.8 7.7-5.4 2.3-12-43.4-17.4-55.2-10.2-22.2-29.9-37.7-40.8-58.4-0.9-1.8 1.3-3 2.6-1.9z"  fill="#c2e1ff" /><path d=""  fill="#005bbb" /><path d="M296-394.4c-7.9 91.9-87.2 170.9-58.2 267.7 13.3 44.4 87.5 119.2 89.6 150.6 0.4 5.4-8.6 2.5-5.2-1.6 3.5-4.2 8 4.1 2.6 4.7-4.8 0.6-17.7-31.7-20.8-36.6-37-59.1-86.9-107.2-80.3-182.7 5.6-63.5 39.1-117.7 57-177.5 1.7-5.8 2.6-28.2 9.5-29.9 3.5-0.8 5.9 2.1 5.8 5.3z"  fill="#fff" /><path d="M305.4-141.8c-30.1 61.8 25.5 122.2 39.2 180.4 1.5 6.3 9.8 36.7 1 39-6.8 1.8-7.3-9.8-0.3-8.6 6.9 1.2 2.5 12-3.3 8-5.4-3.8-2.9-28.7-4.1-35.6-8.8-49-43.1-89.7-49-139.4-1.7-14-2.4-37.3 6.3-49.4 4.2-5.8 11.8-0.5 10.2 5.6z"  fill="#fff500" /><path d="M314.1-337c-35.7 68.6-94.3 136.2-67.5 219.1 15.6 48.1 108.7 145.5 93.3 192.8-2.1 6.6-12 0.8-7.3-4.3 5.5-5.9 11.5 6.8 3.5 7.3-4.1 0.3-12.9-53-16.4-61-31.3-72.6-100.2-122.6-86.5-209.9 6.4-40.9 42.9-120.5 70.9-151.2 5.1-5.6 12.5 0.9 10 7.2z"  fill="#fff500" /><path d="M322.6-182.1c-92.8 90.5 45.9 196.5 24.8 257.3-2.7 7.8-13.5-1.6-6.2-5.4 6.2-3.2 9.2 8 2.2 8.3-3.6 0.2-12.6-58.9-15.9-67.5-18.4-48.6-56.2-95.5-43.9-150.6 3.3-14.7 15.4-48.3 31.4-53.8 7.5-2.6 11.7 6.2 7.6 11.7z"  fill="#fff500" /><path d="M331.1-237.4c-42.5 36.8-73.4 83.6-55.9 141.7 12.6 41.8 82.7 129.6 68.9 170.8-2.2 6.6-12.1 0.6-7.4-4.5 5.6-5.9 11.6 7 3.4 7.4-4.4 0.2-11.5-52.2-14.5-60.3-22.6-59.9-77.3-111.8-61.6-180.9 5-22.1 37.1-81.3 60.3-87.1 8.1-2 11.6 7.5 6.8 12.9z"  fill="#fff500" /><path d="M340-95.5c-20.3 55 21.7 113.1 18.5 169.2-0.5 8.5-13.6 2.4-7.6-3.4 6-5.9 11.6 7.7 3.2 7.8-7.6 0.1-5.8-41-7-48-6.2-37.1-23.7-73.5-20.5-111.7 1.6-18.5 16-30.4 13.4-13.9z"  fill="#fff500" /><path d="M347.4-40.5c2.4 28.2 24.7 91 14.9 115.7-2.7 6.7-12.6 0-7.4-5 6.2-5.9 11.6 7.9 3.2 7.9-8.2 0-4.7-37.1-5.5-43.7-1.7-14.7-16.7-65.5-12.8-75.8 1.6-4.1 6.7-2.7 7.6 0.9z"  fill="#c2e1ff" /><path d=""  fill="#005bbb" /><path d="M366.2-318.9c-44.4 62.1-125.1 111.1-107.2 199.2 12.8 63.3 68.7 107.5 81 171.2 0.8 4.3 7 26.7-2.2 26.3-5.9-0.3-5-9.6 0.9-8.7 6.8 1.1 2.6 11.8-3.1 8-5-3.3-2.3-18.9-3.1-24.4-2-14.5-6.4-28.5-12.3-41.7-29.1-65.2-88.8-119.1-67.6-196.9 10.6-39 73.8-117.7 104-142.3 6.4-5.2 13.3 3 9.6 9.3z"  fill="#fff" /><path d="M374.5-253.4c-46 42.7-108.9 78.4-94.7 151.8 10.6 55 53.8 97.3 63.6 152.9 0.8 4.7 6.8 26.8-2.5 26.3-5.9-0.3-4.9-9.7 1-8.7 6.9 1.1 2.6 11.9-3.2 7.9-1.7-1.2-2.1-34.6-12.3-61.5-22-58.1-73.2-111.5-52.2-177.9 11.7-36.8 58.1-85.2 91.9-103 8.1-4.3 13.8 6.1 8.4 12.2z"  fill="#fff" /><path d="M383.5-56.5c-11.6 34-5.9 71-6.2 106.2 0 5.1 3 30-6.5 28.6-6.3-0.9-4.3-10.8 1.9-9.2 6.2 1.6 3.1 11.2-2.8 9-7.3-2.8-1.2-41.1-1.4-48.7-0.4-25.5-8.2-66.9 5-90.1 3.3-5.8 10.9-1.7 10 4.2z"  fill="#c2e1ff" /><path d=""  fill="#c2e1ff" /><path d=""  fill="#fff" /><path d="M409.7-290c-41 58.9-136.2 92.5-130.5 175.8 4.6 66.9 63.5 115.9 66.4 184.1 0.5 13-12.2 5.3-7.4 0.3 6.6-7 11.3 9.8 2 7.2-5.1-1.4-9.1-49.6-11.9-57.7-21.2-60.9-76.5-116.4-51.4-185.3 16.7-45.9 59.6-69.9 93.8-101.2 9.3-8.5 19.9-27.9 30.7-33.2 6.7-3.2 11.5 4.4 8.3 10z"  fill="#c2e1ff" /><path d="M418.1-149.5c-32.1 30.1-65.7 55.3-65.8 103.5 0 30.9 22.5 94.7 12.1 120.9-3.2 7.9-13.9-2.3-6.2-5.9 7.7-3.6 8.5 11.2 0.4 8.5-6.2-2.1-4.6-52.2-5.8-60.7-6-40-17.5-81.7 2.5-119.7 10.8-20.6 33.6-47.4 54.2-58.6 8-4.3 13.8 5.9 8.6 12z"  fill="#fff" /><path d="M426.8 37.1c-1.6 6.8-4 42.9-13.2 40.9-6.6-1.5-3.7-11.7 2.7-9.6 6.4 2.2 2.4 12-3.7 9.2-6.6-3.1 0.8-45.6 8.4-46.7 3.8-0.6 6.1 2.8 5.8 6.2z"  fill="#005bbb" /><path d=""  fill="#fff500" /><path d="M444.6-232.8c-30.8 56.5-117.9 85.2-121 151.7-1.3 29.3 41.9 143.2 30.6 157.1-4.5 5.5-11.9-3.7-5.5-6.8 7.5-3.7 8.6 10.8 0.7 8.3-4.7-1.4-9-59.9-11.6-69-12.1-42.2-34.3-86.5-15.3-130.2 16.8-38.5 56.8-56.7 85.4-84.8 10.4-10.2 16.8-23.8 26.7-33.9 5.4-5.5 12.7 1.4 10 7.6z"  fill="#fff500" /><path d=""  fill="#c2e1ff" /><path d="M461.9-184.9c-26.6 50.4-88.1 78.4-95.7 138.6-4.2 32.8 15 94.8 3.7 121.8-3.4 8-14.1-2.6-6.2-6.1 7.9-3.5 8.4 11.6 0.3 8.6-6.8-2.5-2.5-45.1-3.1-53-2.9-37.9-10.5-77.2 6.2-113.2 4.6-9.9 80.7-101.6 86.1-105.1 5.9-3.7 11.1 2.9 8.7 8.4z"  fill="#fff" /><path d=""  fill="#fff500" /><path d="M479.2-211.2c-21.3 68.2-93.3 103.9-104.4 168.6-5.5 32.1 10.3 91.5-1.1 117.6-3.5 8-14.1-2.7-6.1-6.2 8-3.4 8.4 11.7 0.2 8.7-7.2-2.7-1.7-41-1.9-48.6-1.4-40.7-6.7-82.1 13.9-119.2 19.6-35.2 54.5-58.5 74.7-93.4 5.2-9 8.4-26.6 15.6-33.3 4.5-4.2 10.2 0.7 9.1 5.8z"  fill="#fff" /><path d="M504.4-398.4c2.6 59.8-26.5 169.2-62.3 217.5-21.6 29-54.4 47.1-75.7 76.1-4.9 6.7-17.6 46.7-23.2 43.7-6.6-3.5 1.5-13 6-7 3.9 5.1-4.5 10.8-7.9 5.3-19.4-32.5 92.5-123.5 108.6-155.3 23.1-45.4 44.2-122.4 45.8-173.4 0.2-5 7.2-18.3 8.7-6.9z"  fill="#fff" /><path d="M496.4-398.4c1.3 59.6-30.8 159.6-69.9 205-25 29-63.2 46.1-83.7 78.8-13.5 21.5-14.5 46.6-9.6 70.8 0.8 3.8 12.2 37.5 3.3 33.6-13.3-5.9 16.2-4.8 2.4 0.1-5.7 2-6.9-11-7.7-13.7-38.9-134.3 62-123.3 110.5-215.6 23.8-45.4 43.5-105.1 45.8-156.4 0.3-6.1 8-10.6 8.9-2.6z"  fill="#005bbb" /><path d="M505.1-160.7c-14.4 64.4-52.7 119.9-70.2 183.3-2.6 9.3-6 51.5-14 55.2-7.2 3.3-9.9-9.5-2-9.5 7.9 0 5 12.8-2.1 9.4-10.7-5 10.2-67.1 13.2-76.9 3.9-12.7 64.6-164.6 66.1-166.3 3.8-4.3 9.6-0.2 9 4.8z"  fill="#fff" /><path d="M513.5-184.3c-7.9 64.4-37.9 119.8-59.2 180-3.6 10.1-20 84-26.2 82.6-7.7-1.7-2.2-13.5 4-8.8 6.3 4.7-3.6 13.2-7.3 6.3-9.2-17.3 35.1-126.5 44.3-148.2 10.4-24.6 20.5-49.4 27.2-75.2 2.7-10.6 2.3-31.6 8.5-40.2 3.1-4.4 8.8-1.1 8.7 3.5z"  fill="#fff500" /><path d="M522.2-330.3c-8.3 58.8-10.1 123.1-29.5 179.4-17.2 49.9-51 91.9-67.1 142.5-3.4 10.5-16.6 88.4-23.4 86.9-7.7-1.6-2.3-13.5 4-8.8 6.3 4.7-3.6 13.2-7.3 6.3-4.6-8.6 4.4-34.2 6.2-43.7 13-71.3 50-118.5 75.5-183.3 10.8-27.5 29.2-180.1 33.6-183.7 3.7-3.1 8.1 0.3 8 4.4z"  fill="#fff" /><path d="M530.3-382.1c1.5 36.1-5.9 71.7-9.8 107.5-7 63.5-9 123.6-33.3 183.8-12.6 31.2-27.3 61.4-38 93.3-2.8 8.4-13.5 63.8-21.5 61.9-9.1-2.2 0.4-15.5 5.4-7.7 4.3 6.7-8.1 11.3-9.2 3.4-5.6-40.6 58-160 70.9-207.4 12-44 26.7-184.8 27-231.9 0-6.1 7.5-10.6 8.5-2.9z"  fill="#fff500" /><path d="M539-178.1c2.5 65.6-4.3 128-10.2 193.1-0.9 9.4 2 56.9-0.1 60.6-3.5 6.2-11.2-3.4-4.5-5.5 5.8-1.8 6.6 8.2 0.7 7.4-18.1-2.4 0.9-117.2 2.5-131.8 3.7-33.3-1.6-101.3 3.3-124.6 1.1-5 7.6-3.8 8.3 0.8z"  fill="#005bbb" /><path d="M547.2 65.4c0.4 2.7 3.5 12.8-3.1 11.5-4.8-1-2.9-8.5 1.8-7.1 4 1.3 2.8 7.5-1.4 7.1-11.9-1-0.7-22.9 2.7-11.5z"  fill="#fff500" /><path d=""  fill="#fff" /><path d="M565.1-40.1c0.4 18.5 8 113.2 7.2 115.1-2.3 5.1-9.7-0.5-5.5-4.2 5-4.2 8.6 6.5 2.1 6.2-11.5-0.6-17.6-107.5-11.9-118.9 2.1-4.2 7.5-2.2 8.1 1.8z"  fill="#fff" /><path d=""  fill="#fff" /><path d="M582.3 8.7c0.6 8.1 10.8 67.7 6.3 68.4-4.7 0.8-5.6-6.6-0.8-6.9 4.7-0.3 4.8 7.2 0.1 7-7.3-0.3-16.5-62.3-13.4-69.8 1.7-4.1 7-2.6 7.8 1.3z"  fill="#c2e1ff" /><path d="M589.7-173.1c1.6 4.1 14.7 27.4 9.8 29.4-3.3 1.4-5.2-3.9-1.8-4.9 3.4-1 4.8 4.5 1.3 5.1-9.6 1.8-19.8-48.5-9.3-29.6z"  fill="#005bbb" /><path d="M599.5-352.5c0.6 4.9 7.4 28.6-0.5 29.2-5.3 0.4-5.4-7.9-0.1-7.8 5.3 0.2 4.5 8.5-0.8 7.7-11.5-1.7-4-50.6 1.4-29.1z"  fill="#005bbb" /><path d=""  fill="#fff500" /><path d=""  fill="#005bbb" /><path d=""  fill="#fff500" /><path d=""  fill="#fff500" /><path d=""  fill="#c2e1ff" /><path d=""  fill="#c2e1ff" /><path d=""  fill="#005bbb" /><path d=""  fill="#005bbb" /><path d=""  fill="#005bbb" /><path d=""  fill="#c2e1ff" /><path d=""  fill="#fff" /></svg>