<svg width="1200" height="675" viewBox="-500 -500 1200 675" xmlns="http://www.w3.org/2000/svg"><path d="M-500-500h1200v675h-1200z" fill="#000"/><path d=""  fill="#e5e5e5" /><path d=""  fill="#14213d" /><path d=""  fill="#e5e5e5" /><path d=""  fill="#fca311" /><path d=""  fill="#14213d" /><path d=""  fill="#ffffff" /><path d=""  fill="#ffffff" /><path d=""  fill="#ffffff" /><path d=""  fill="#fca311" /><path d=""  fill="#fca311" /><path d=""  fill="#ffffff" /><path d=""  fill="#14213d" /><path d=""  fill="#14213d" /><path d=""  fill="#14213d" /><path d=""  fill="#e5e5e5" /><path d="M-394.6 15.7c0.8 10.7 15.5 54.2 14.4 58.1-1 3.5-6.3 0.7-4-2.1 2.7-3.2 6.2 3.2 2 3.7-4.2 0.5-5.8-9.9-6.8-12.6-5.6-14.9-10.2-30.6-11.8-46.5-0.4-4.1 5.3-4.5 6.2-0.6z"  fill="#ffffff" /><path d="M-389.3-397.4c-1 4.8-2.8 21.4-9.7 20.8-7.1-0.6-3.6-11.8 2.5-8.3 5.3 3 0.1 11-4.8 7.5-11.6-8.3 13.8-33.7 12-20z"  fill="#fca311" /><path d=""  fill="#e5e5e5" /><path d="M-373.8 72.5c1.7 8.9-11.6 2-4.9-1.8 7.7-4.4 4.6 12-1 5.1-3.1-3.9 2.1-8.7 5.4-4.6z"  fill="#fca311" /><path d="M-366.2-274.9c-39.9 76.7-30.6 235.2-30.2 304.8 0 5.6 5.9 41 3.9 44.5-1.9 3.3-6.1-1.9-2.4-3 3.1-1 3.6 4.5 0.3 4.1-6.9-1-5.8-21.8-5.8-25.1-0.5-27.1-0.1-34.9-0.4-67.8-0.6-68-6.2-158.1 13.2-228.1 14.1-50.9 22.1-31.5 21.4-29.4z"  fill="#e5e5e5" /><path d=""  fill="#14213d" /><path d="M-338.6-397.1c-3.5 15.6-51.5 121.5-62 116.4-5.6-2.7-0.8-11.2 4.4-8 5.2 3.3-0.4 11.3-5.3 7.5-9.7-7.7 34.4-70.3 39.3-79.4 6.6-12.5 9.4-27.3 16-39.5 2.4-4.4 8.2-1.4 7.6 3z"  fill="#fca311" /><path d="M-346.3 37.3c-0.8 6.6 3.4 34.7-0.4 38.2-3.5 3.2-7.4-3.6-2.9-5 4.5-1.4 5.2 6.4 0.5 5.8-7.2-0.9-5-34.1-4.6-39.6 0.4-4.9 7.2-4 7.4 0.6z"  fill="#112233" /><path d="M-339.1-228c-9.7 34.9-10.6 71.5-21 106.3-12.8 43.3-34.4 79.1-35.6 125.2-0.8 29 16.6 62.4 14.4 70.6-1.1 4-6.9-0.3-3.4-2.4 3.6-2.2 4.8 5 0.8 4.1-4.7-1-9.1-20.2-10.6-24.7-23.4-70.5 10.8-119.8 28.9-184.2 8.3-29.5 4.3-71 18.7-97.9 2.4-4.5 8.3-1.5 7.8 3z"  fill="#14213d" /><path d="M-332.6 47.4c-0.8 5.4 1.5 25.4-2.4 28.4-4 3.1-7.6-4.5-2.7-5.7 5-1.1 5 7.3 0.1 6.3-12.3-2.6 4.7-52.4 5-29z"  fill="#fca311" /><path d=""  fill="#112233" /><path d="M-323-397.6c-10.5 46.4-43.2 81.3-62 124-2.6 5.8-6.7 29.2-12.2 31.3-6 2.3-7.6-8.2-1.2-7.8 6.4 0.4 3.5 10.6-2.2 7.6-10.2-5.5 15-52.2 19.2-59.5 11.7-20.9 25.7-40.5 36.5-61.9 5-10 7.7-29.7 14.8-37.5 3.1-3.4 7.6-0.1 7.1 3.8z"  fill="#112233" /><path d="M-311.8-107.4c-15 43.6-52.1 76.3-57.3 123.7-1.1 9.8 8.9 53.8 4.9 58.5-2.7 3.1-6.8-2.3-3.1-4 4.4-2 4.8 6.4 0.3 4.8-4.7-1.6-6.1-19.2-7-23.5-12.2-65.4 28-102.2 51.9-157.7 2.3-5.3 13-12.1 10.3-1.8z"  fill="#112233" /><path d="M-309.4-397.3c-14.1 62.3-65.6 107.4-78 170.1-2.4 12.3-4.9 81.1-8.6 85-4.1 4.3-9.6-3.8-4.1-6.1 6.5-2.6 6.5 9.5 0 7-5.9-2.4-0.3-25.8 0-31.1 5.3-84.4 23.9-107.4 63-179.3 7.2-13.3 11.2-39 20.6-49.4 3.1-3.4 7.6-0.1 7.1 3.8z"  fill="#112233" /><path d="M-298.9-188.1c1.9 127.3-45.9 108.7-65.1 195.1-3.2 14.3 3.3 65.7 2.5 67.5-1.9 4.5-8-1.4-3.5-3.5 4.5-2 4.8 6.5 0.2 5-4.8-1.7-6-19.9-6.7-24.4-11-66.8 33.6-102.8 56.2-159.7 8.8-22 5.9-73.2 10-81.4 1.7-3.3 5.9-1.7 6.4 1.4z"  fill="#e5e5e5" /><path d="M-296.8-397.2c-14.9 67.9-69.7 117.8-81.5 186.8-1.8 10.7-11 115.2-21.6 111.8-6.3-2-0.8-11.5 4.1-7 4.9 4.4-4.1 10.8-6.7 4.7-4.2-10.1 8.6-42.4 10.2-54.2 5-37.8 6.2-75.2 21.6-110.7 17.8-41 47.2-75.9 61.6-118.6 1.4-4.3 2.1-14.5 6-17.1 3.3-2.3 6.7 0.9 6.3 4.3z"  fill="#e5e5e5" /><path d="M-284.4-314.4c-39.1 101.3-20.7 118.5-41 191.5-11.7 42-43.2 75.5-51.8 118.5-4 20 7.7 76.5 6.9 78.9-1.5 4.3-7.5-0.9-3.5-3 4.1-2.1 4.9 5.8 0.5 4.6-5-1.4-7.8-21.6-8.9-26.3-16-69.3 26.9-110.8 47.6-172 14.3-42.4 8.7-88.4 19.9-131.7 5.1-19.7 10.7-48 22.4-64.7 3.2-4.5 9.1-0.5 7.9 4.2z"  fill="#ffffff" /><path d="M-278.2 74.2c-4.2 10-12.9-5.6-3.6-4.9 10.6 0.7-3.3 15-4.4 4.4-0.6-5.9 7.3-8.5 8.6-2.1z"  fill="#fca311" /><path d="M-271.2-270.4c-9.3 55.9 17.1 111.6 4.6 166.2-11.1 48.2-55.4 77.5-70.9 123.4-4.5 13.5-6.3 27.7-5.8 41.9 0.1 2.7 3.7 16.8-3 15-3.4-0.9-2.6-6.1 0.9-6 4.1 0.2 3.5 6.7-0.5 6.1-5.9-0.9-4.3-22-4.3-26.5 0.4-64.6 56.9-96.5 74.8-153.5 13.4-42.6-5-86.3-5.9-129.4-0.2-11.5-1.7-28.5 2.7-39.3 1.8-4.4 7.5-2.2 7.4 2.1z"  fill="#e5e5e5" /><path d="M-263.9 31.5c-4.7 7.5-14.6 43.1-20.5 45.5-5.9 2.4-7.6-8.1-1.3-7.7 6.4 0.4 3.5 10.6-2.1 7.5-8.5-4.5 10.9-46 16-51.3 4.3-4.4 10 1 7.9 6z"  fill="#fca311" /><path d="M-258.6-207.6c8.4 46.5 24.8 89 1.9 134.3-19.8 39.1-58.1 66.5-70 110.1-1.9 6.8-1 35.7-5.4 39-4.2 3.1-7.7-4.8-2.6-5.9 5.1-1 5 7.6-0.1 6.4-6.2-1.5-2.6-23-2.1-27.7 6.3-59.4 59.4-90.2 79.3-142.9 17.1-45.2-11.6-96.4-6.5-113.5 0.9-3 4.7-2.3 5.5 0.2z"  fill="#fca311" /><path d="M-251-125.8c-0.5 58.4-48.4 89.5-72.2 137.7-7.3 14.7-11.3 30.7-12 47-0.1 3 3 19.8-4 17.7-4.1-1.3-1.7-7.7 2.3-6 4 1.7 0.9 7.8-2.9 5.7-3.9-2.2-2.3-13.1-2.3-16.8-0.3-56.1 38.2-87.8 65.8-131.8 10.5-16.7 23.9-73.2 25.3-53.5z"  fill="#14213d" /><path d="M-244.7-147.4c10.7 70.2-40.9 103.6-70.9 158.8-7.8 14.4-12.7 30.1-14.2 46.4-0.3 3.4 2.4 21.4-4.8 18.9-4.2-1.5-1.5-8 2.5-6 4 1.9 0.6 8.1-3.1 5.7-4.1-2.5-1.9-14.3-1.8-18.4 2.2-56.9 44.7-88 71.4-133.6 7.1-12.2 12.3-25.4 14.5-39.4 1.5-9.5-2.6-24.7 0.5-33.1 1.2-3.1 5.1-2.1 5.9 0.7z"  fill="#fca311" /><path d="M-240.1-398.3c-4.8 50.6-24 99.1-25.6 150-2.4 78.7 40.6 128.5-14.2 201.5-5.7 7.6-18.6 30.9-27.6 33.6-6.9 2-9.4-9-2.4-10.3 8.2-1.5 7.7 12.4-0.4 10.3-11.7-3.1 7.6-22 10.2-25.4 19.9-24.9 39.7-50.3 43-83.2 4.8-48.1-18.6-94.3-14.9-143.1 5.3-69.1 31.5-161.2 31.9-133.4z"  fill="#ffffff" /><path d="M-231.6-179.7c38.1 128.3-52.7 128.8-81.4 224.3-1.8 5.9-2 28.9-6.5 31.7-4.7 2.9-7.8-5.8-2.3-6.5 5.5-0.7 4.6 8.5-0.7 6.9-6.4-2.1-0.8-23.3 0.1-28.2 10.7-54.5 58.9-84.9 82.2-132.5 8.7-17.8 12.5-37.2 11-56.9-1-12.7-7-25.6-7.5-38-0.1-3.2 4-3.4 5.1-0.8z"  fill="#e5e5e5" /><path d=""  fill="#14213d" /><path d="M-216.9-323.8c-4.7 79.8 33.9 137.5 28.4 196.6-5.9 62.9-57.8 98.1-90.2 147.1-4.5 6.9-23.8 57.7-25.8 57.3-5.9-1.1-1.9-10.3 2.9-6.8 4.9 3.5-2.6 10.2-5.5 5-18.1-32.3 96-145.3 107.9-188.1 15.4-55.1-17.1-105.8-23.5-159.6-1.8-15.3-5.6-37.9-1.2-52.7 1.3-4.2 6.7-2.7 7 1.2z"  fill="#e5e5e5" /><path d="M-209.3 51.6c-3.1 4.8-11.3 28.8-18.2 25.6-5.5-2.5-1.1-11 4.1-7.9 5.2 3.1-0.1 11.1-5 7.4-13.6-10.2 29.3-48.4 19.1-25.1z"  fill="#14213d" /><path d="M-204.4-223.7c16.5 55.5 28.6 104.9-4.1 157.4-23.2 37.3-60.3 64.5-79.5 104.5-3.2 6.7-8.1 36.3-13.3 38.8-5.4 2.6-7.8-7.1-1.8-7.2 6-0.1 4.1 9.7-1.4 7.2-6.8-3 2.2-26.6 3.8-31.6 18.8-56.9 75-89.1 98-143.6 18-42.7 5.4-81.9-6.6-124.1-0.9-3.3 3.6-4.4 4.9-1.4z"  fill="#fca311" /><path d="M-195.2-398.6c1.7 40.7-0.5 82 6.2 122.3 14.2 85.8 47.7 139.7-11.6 219.2-4.5 6.1-19 29.6-27.1 28.5-8.8-1.2-3.6-15 3.8-10.2 8.7 5.6-6 16.1-8.4 6-2-8.3 22.5-29.5 27.6-36.5 17.6-23.9 30.2-51.3 32.7-81.2 3.9-47.5-18.4-92-24.9-138.2-4.5-32.5-3.5-65.3-4.4-98-0.1-2.8 4.3-23.5 6.1-11.9z"  fill="#e5e5e5" /><path d="M-190-150.2c2.1 23.3-2.3 46.6-12.3 67.8-19.9 42.2-59.1 70.2-82.2 110.3-3.8 6.6-18 50.8-21.8 48.5-4.5-2.5-0.1-9.4 4.1-6.3 4.2 3-0.9 9.3-4.8 5.9-3.4-3.1-0.1-11.8 0.7-15.5 10.7-53.7 54.6-85.8 84.2-128.6 9.9-14.3 18-30.1 22.3-47.1 2.6-10.4-0.4-27.2 3.7-36.1 1.5-3.2 5.6-1.9 6.1 1.1z"  fill="#14213d" /><path d="M-182.8-398.9c2.7 34 3.6 68.4 8.5 102.2 7.5 52.5 31.1 103.4 21.1 157.3-10.6 57.3-51.8 96.2-88.8 137.8-4 4.5-16 25.5-23.1 19.6-4.7-3.9 0.3-11.5 5.7-8.7 5.4 2.8 2.2 11.3-3.7 9.8-13-3.4 17.2-33 20.9-37.2 35-38.4 72.9-76 82.4-129.4 9.2-51.8-13.4-101.2-20.9-151.7-4.7-31-5.6-62.5-8-93.7-0.3-4 4.2-14.4 5.9-6z"  fill="#ffffff" /><path d="M-175.3-83.4c-24.6 42.3-65.2 71.7-91.3 112.7-4.1 6.5-20.7 50.2-24.9 47.4-3.9-2.6-0.7-8.7 3.6-7.1 5.1 1.9 1.6 9.7-3.3 7.3-6.9-3.5 3.9-27.1 6-32.2 20.9-52.2 70.4-84.9 100.1-131.4 3.8-6 13.3-4.4 9.8 3.3z"  fill="#112233" /><path d="M-169.6-375.3c6.1 57.7 34.7 173.2 29.1 218.4-7.4 60-47.6 103.4-87.3 145.5-6.4 6.8-38.9 54-44.7 52.6-8.8-2 0.1-14.9 5.1-7.4 5.8 8.8-13.3 9.7-8.3 0.4 33.8-63.3 101.7-100.9 123-172.3 19.5-65.5-14.8-156.2-21.9-225-0.3-2.6 2.5-23.2 5-12.2z"  fill="#ffffff" /><path d="M-161.6 53.9c-3.3 4.5-12.2 27.2-19.1 23.5-5.6-2.9-0.5-11.5 4.7-8 5.2 3.5-0.8 11.5-5.6 7.4-13-11 31.4-45.6 20-22.9z"  fill="#112233" /><path d="M-154.9-118.4c-19.9 57.2-68.6 91.7-103.1 138.9-9 12.3-16.5 25.8-21.5 40.2-1.2 3.4-2.9 21-10.1 16.2-5.3-3.5 2.3-10.8 5.7-5.4 2.8 4.6-4.7 8.7-7 3.8-12.6-26.9 65.2-107.9 81.6-126.3 12.3-13.8 45.1-70.4 47.3-72.3 3.7-3.3 8.1 0.8 7.1 4.9z"  fill="#14213d" /><path d=""  fill="#112233" /><path d="M-141.6-2.6c-19.5 16.9-38.8 34.6-53 56.3-2.9 4.4-12.1 30-19.1 23.2-3.8-3.7 1.1-9.9 5.5-7.1 5.2 3.3-0.4 11.2-5.2 7.4-15-11.8 53.2-83.2 65.2-89.4 6.4-3.3 10.9 4.9 6.6 9.6z"  fill="#112233" /><path d="M-134.4 41.4c-5.3 6.3-19.6 35.7-26.5 36.8-7.3 1.2-6.6-11.1 0.6-9 7.1 2 1.3 12.8-4.3 8-7.2-6.1 17-39.1 22.7-43.5 5.3-4 10.6 2.7 7.5 7.7z"  fill="#ffffff" /><path d="M-127.8 18.1c-12.2 11.9-24 24.3-33.6 38.3-3.3 4.8-8.9 20.7-14.5 21.6-7.3 1.2-6.6-11 0.4-9 7.1 2 1.4 12.8-4.2 8-10.6-9 35.9-62.4 44.9-67.9 6-3.6 10.8 4.1 7 9z"  fill="#e5e5e5" /><path d="M-122.2-390.5c15 76.2 42.7 166.6 18.3 243.2-18.8 59-67 99.6-109 142.2-4.8 4.8-22.2 30.3-29.1 24-4.7-4.2 0.8-11.8 6.2-8.6 5.4 3.1 1.7 11.7-4.2 9.8-13-4 19.5-33.6 23.7-38 41.6-42.1 89.9-82.5 107.2-141.6 20.7-71.1-3.8-154.1-17.6-224.6-0.7-3.3 2-14.2 4.5-6.4z"  fill="#112233" /><path d="M-114.7-191.8c-1.7 91.1-71.3 141.3-124.5 205-8.7 10.5-33.7 62.6-35.1 63.7-5.1 4.1-9.9-5.7-3.6-7.2 7.4-1.8 5.6 11.4-1 7.5-10.9-6.2 17.8-52.2 22.6-59.2 27-38.9 65.8-67.9 94.2-105.8 14.5-19.4 26.6-40.7 33.5-63.9 3.5-11.6 1.6-32.3 7.4-42.1 2-3.4 6.3-1.4 6.5 2z"  fill="#14213d" /><path d="M-107.4-9.8c-21.2 20.2-44.2 39.1-61.2 63.1-3.2 4.5-13.5 30.2-20.4 23.1-3.7-3.9 1.4-10 5.9-7.1 5.2 3.5-0.7 11.4-5.6 7.4-15.2-12.7 63.3-89.5 74.5-95.8 6.2-3.5 10.8 4.5 6.8 9.3z"  fill="#14213d" /><path d="M-93.5-399c17.6 99.5 45.1 224.2-22.6 310.9-5 6.4-22.1 32.3-31 30.6-10.4-2-0.5-17.6 5.7-8.9 6.2 8.6-11.7 13.1-10.2 2.5 1.5-10.9 25.8-29 32.8-38.2 18.8-24.8 30.6-53.4 35.3-84.1 9.9-65.1-2.9-136-13.7-200.3-0.4-2.2 0.6-22.8 3.7-12.5z"  fill="#112233" /><path d="M-86.8-398.9c16.4 100.3 42 227.8-27.5 313.9-5 6.2-21.9 30.9-30.5 29.2-10.5-2.1-0.4-17.7 5.8-8.9 6.2 8.7-11.9 13.1-10.4 2.5 1.5-10.4 25.5-28 32.5-36.9 19.2-24.5 31.5-52.8 36.7-83.5 11.1-65.9-0.6-138.4-10.6-203.9-0.3-2.3 1-22.9 4-12.4z"  fill="#fca311" /><path d="M-87.8-253.3c18.1 174.9-77 175.4-153.7 287.9-4.8 7.1-16.4 41.2-22.4 43.1-6.4 2.1-7.4-9-0.8-8.2 6.7 0.8 3 11.3-2.7 7.8-27.6-17.1 133.3-172.6 144.1-188.9 17.3-25.9 27.2-55.3 30-86.2 0.3-3.4 0.4-79.3 5.5-55.5z"  fill="#fca311" /><path d="M-81.1-375.4c25.5 180 33.2 235.8-100.2 358-7 6.4-42.3 48.7-49.2 45.8-9.2-3.8 2.9-16.2 6.9-7.1 4.1 9.1-13.2 9.8-9.9 0.4 13.2-37.5 116.9-96.6 144.1-165.9 27-69 12.5-153.6 3.1-225-0.5-3.6 3.1-14.3 5.2-6.2z"  fill="#14213d" /><path d="M-73-91.3c-28.9 49.5-81.2 77.6-118.5 119.6-9.4 10.6-17.9 22.1-24.5 34.7-1.8 3.4-6.2 20.2-12.9 14-4.4-4.1 2.5-10.8 6.4-6.2 4.6 5.4-5.7 11-7.6 4.2-7-24.4 70.5-93.4 87.8-108.1 23.9-20.3 40-43.6 61.5-64.5 4.4-4.3 10.1 1.3 7.8 6.3z"  fill="#14213d" /><path d="M-62.9-399c8.9 112 29.5 250.9-57.3 337.9-6.5 6.5-28 33.1-37.3 30.7-10.6-2.8 0.7-18.2 6.5-8.9 5.8 9.3-13 12.7-10.8 2 2.5-12.2 32.9-31 41.9-40.4 23.1-24.1 39.9-52.3 48-84.9 17.7-70.8 8.3-152.2 3.4-224.3-0.2-2.6 3.3-23.4 5.6-12.1z"  fill="#14213d" /><path d="M-60.1-398.5c5.5 83.7 19.9 203.4-16.9 280.7-21.8 45.8-63 76.2-99.7 109.4-4.5 4.1-17.7 22.1-24.3 14.6-4.4-5 2.2-12.3 7.6-8.4 5.4 3.9 0.5 12.5-5.6 9.9-12.9-5.6 21.8-31.4 26-35.2 40.1-35.4 81.8-69 98.7-121.8 23.9-74.8 12.6-166 8.1-243.3-0.2-4.1 4.5-14.4 6.1-5.9z"  fill="#fca311" /><path d="M-52.3-398.5c2.7 104.8 20.7 251.9-56.8 333.6-5.7 6-24.5 29.7-33 27.5-10.6-2.8 0.7-18.2 6.5-8.8 5 8-9.7 13.2-10.9 3.8-1.2-9.9 38.6-39.9 45.9-49 15.8-19.9 26.7-42.9 32.9-67.5 18.3-72 10.1-154.2 8.9-227.8 0-2.9 4.8-23.6 6.5-11.8z"  fill="#112233" /><path d="M-46.5-360.9c-2 79.6 10.1 173.2-24.6 247.4-21.1 45.1-61.2 74.6-97.6 106.7-7.1 6.3-42.7 48.9-49.1 46.4-9.1-3.5 2.3-16 6.6-7.2 4.2 8.8-12.7 10-9.7 0.7 13.1-41.2 117-97.3 144.4-157.3 31.2-68.2 20.8-152.3 22.7-225.2 0.1-3.2 6.1-23.6 7.3-11.5z"  fill="#fca311" /><path d="M-39.6-314.8c-4.6 72.4 3.8 154.1-33.3 219.6-27.7 48.8-77.8 77.1-115.5 117-6.3 6.6-38.9 57.2-41.8 56-6.5-2.9 0.5-12.3 5.2-7 4.7 5.3-5.7 11-7.6 4.2-8.9-30.7 135-145.6 155-182 33.9-61.6 26.8-138.1 30.7-205.9 0.3-5.2 6.9-8.5 7.3-1.9z"  fill="#14213d" /><path d="M-32.4 20c-1.8 7.4-11.4 58.9-18.1 57.3-5.2-1.3-2.7-9.4 2.3-7.6 5 1.8 1.7 9.6-3.1 7.3-6-3 7.1-55.4 11.9-60.7 3-3.4 7.6-0.2 7 3.7z"  fill="#e5e5e5" /><path d="M-25.8-141.5c-10.5 91.2-41.2 120.4-93.2 190.3-3.8 5.1-16.2 32.3-23 28.6-6.5-3.5 1.5-12.9 6-6.9 4.4 5.9-6.8 11-8.3 3.8-3-14.2 65.9-91.4 76.5-108.6 14-22.7 23.1-47.7 28.8-73.7 1.4-6.6 1.9-34.3 7.7-37.3 2.9-1.5 5.5 1 5.5 3.8z"  fill="#112233" /><path d=""  fill="#14213d" /><path d="M-12-285.3c-14.6 72-6 148.5-32.8 218-19.9 51.8-63.1 83.5-92.1 129-2.6 4.1-7.1 19.4-14.1 15.6-4.8-2.6-1.7-10.1 3.5-8.6 6.1 1.8 2.8 11.2-3.1 8.8-8.9-3.7 6.6-23.7 9.6-28.1 28.2-43.1 69.5-74.1 89-123.1 25.8-64.9 19.4-137 30.7-204.8 0.8-5 10-18.1 9.3-6.8z"  fill="#112233" /><path d="M-5-386.7c-29.7 88.1-16 182.3-42.8 270.1-14.7 48.1-46.8 80.9-83.8 113.2-5.7 5-31.3 34.7-38 27.4-4.5-4.8 2-12.2 7.4-8.5 5.4 3.8 0.7 12.4-5.4 9.9-12.7-5.3 17.6-28.2 21.7-31.8 34.2-30.7 68.9-59 86.2-102.9 30.6-77.2 17.2-165.7 36.8-245.8 2.2-9 4.1-29.4 10.8-36 3.4-3.3 8 0.4 7.1 4.4z"  fill="#fca311" /><path d="M0.9-107.2c2.9 46.6 10.4 92.2 21.5 137.5 1.3 5.4 13.6 44.9 7.9 45.9-4.3 0.7-4-6.5 0.3-5.4 4.2 1.1 0.9 7.6-2.5 4.8-6.5-5.5-8.1-32.2-10.2-40.7-9.1-37-29.8-105.5-23.3-142.5 0.7-3.9 5.7-3.1 6.3 0.4z"  fill="#fca311" /><path d=""  fill="#e5e5e5" /><path d="M15.3-246.2c-18.2 77.9-4.5 164.8 26.9 237.4 3.5 8.2 38.8 83.6 31.7 85.1-4.1 0.9-4.1-6.1 0-5.2 3.5 0.8 2 6.3-1.4 5.1-5.3-1.8-12.2-33.4-14.8-39.5-29.4-70-55.2-133.7-56.5-211.1-0.3-21-3-54.8 6.5-74.4 2.2-4.5 8-1.8 7.6 2.6z"  fill="#e5e5e5" /><path d="M21.7-197.9c-4.6 82.3 32.8 144.8 66.8 216.2 4.7 9.9 24.2 45.4 18.4 56.4-2.2 4.1-8.1-0.8-4.4-3.7 3.7-2.8 7 4.2 2.5 5.2-2.4 0.5-17.7-50.2-20.7-56.7-24.3-53.1-55.6-100.2-65.6-159-2.9-16.9-8.7-42.7-3.9-59.5 1.2-4.2 6.6-2.7 6.9 1.1z"  fill="#14213d" /><path d="M29.3-337.2c-16.7 24.4-26.4 52.7-31.9 81.5-5.5 29-21.8 337.6-43.7 332.7-6-1.4-1.7-10.6 3.2-6.9 4.9 3.8-3 10.4-5.8 4.9-3.2-6 17.9-89.1 20.1-103.4 12.8-82 3.1-167.3 22.4-248.1 4.8-20 12.3-52.4 27.9-67.2 4.5-4.3 10.2 1.5 7.8 6.5z"  fill="#e5e5e5" /><path d="M35.3-196.9c-4 77.6 38 138 67.5 206.1 3 6.8 26.4 63.4 16.3 67.2-4.7 1.8-5.9-6.4-0.9-6.1 5.8 0.4 1.5 9.6-2.6 5.3-2.4-2.6-10.4-47.8-13.7-56.6-20.6-54.1-55.1-101.6-67.8-158.9-3.6-16.3-10.2-41.6-5.7-58 1.1-4.1 6.5-2.8 6.9 1z"  fill="#e5e5e5" /><path d="M39.9-395c-25.7 31.9-42.3 68.4-50.8 108.3-20.8 97.8-3.3 200.7-69.6 284-4.8 6-18.4 28-26.3 27.1-7.4-0.9-5.4-12.6 2-10.8 7.3 1.7 4 13.1-3.1 10.5-11.9-4.2 10.3-23.2 13.4-26.9 20.2-23.7 36.9-49.4 47-79.1 26.7-79 12.5-165.5 38.7-244.8 7.7-23.4 21.1-60 41.2-75.8 5.2-4.1 10.5 2.5 7.5 7.5z"  fill="#fca311" /><path d=""  fill="#e5e5e5" /><path d="M54.1-46.9c5.7 11.7 66.1 116.2 51.2 123.2-4.2 2-5.9-5.6-1.3-5.6 4.7 0 3 7.6-1.2 5.6-5.1-2.3-10.9-37.9-13.7-44.9-6.4-15.8-39.1-65.2-38.9-77.4 0-2.3 2.8-2.5 3.9-0.9z"  fill="#ffffff" /><path d=""  fill="#ffffff" /><path d="M68.3 66.3c0.6 1.8 4.6 10.4-0.8 9.8-3.5-0.4-2.7-5.9 0.9-5.2 3 0.6 2.5 5.2-0.6 5.2-8.9 0-2.8-17.3 0.5-9.8z"  fill="#112233" /><path d="M76.5-356.3c-90.8 71.1-84 205.5-64 308.1 6.2 32 16.4 62.9 26.2 93.9 0.9 3 10.3 24.6 3.5 23.9-3.5-0.4-2.6-5.9 0.8-5.1 3.5 0.8 2 6.2-1.4 5-4.6-1.5-7.1-20.4-8.5-24.8-31.9-102-59.7-222.7-23-327.7 10.5-30.1 28.4-56.3 52.4-77.2 6.6-5.8 24-6.4 14 3.9z"  fill="#ffffff" /><path d="M81.6-75.9c5.9 13.9 67.3 146.3 46.9 152.8-5 1.6-5.8-7.1-0.6-6.5 5.2 0.7 2.3 8.9-2.1 6.1-5.5-3.4-7.7-47-10.2-55.5-8.5-29.3-33.8-69.1-38.2-95.6-0.4-2.7 3-3.3 4.2-1.3z"  fill="#e5e5e5" /><path d="M88.4-59.9c5.5 12.4 59 130.6 40.1 136.7-5 1.6-5.8-7.1-0.6-6.5 5.2 0.6 2.3 8.9-2.2 6.1-5.3-3.3-6.3-40.7-8.3-48.5-4.1-15.8-33.7-79.4-33.2-87 0.2-2.4 3.1-2.5 4.2-0.8z"  fill="#e5e5e5" /><path d="M33.3-395.7c-42.6 58.7-51.5 126.7-56.9 197.1-2.2 28.4-4.7 107.6-23.6 129.5-4.7 5.5-11.9-4.2-5.3-7.2 7.7-3.5 8.4 11.2 0.4 8.5-4.8-1.6 13.7-63.1 15.2-72.5 10.2-66.9 6.2-136.1 29.7-200.6 6.9-18.8 17.3-48.2 32.8-61.8 4.8-4.2 10.4 1.9 7.7 7z"  fill="#fca311" /><path d=""  fill="#112233" /><path d="M110.6-329.4c-72.7 58.9-89.4 143.1-57.1 229.8 18.7 50.2 51.2 94.9 64.3 147.3 1 4.2 8.6 28.7 1.5 28.9-5 0.2-3.5-8 1.1-6.1 4.6 2-0.2 8.8-3.6 5.1-5.8-6.4-5.7-33.4-8.6-42.7-28.4-92.8-98.2-168.8-72.5-272.4 7.5-30 23.2-56.7 44.8-78.7 25.6-26.1 41-22.6 30.1-11.2z"  fill="#14213d" /><path d="M117-141.1c0.4 42.9 37.4 191.9 28.2 215.8-2 5.3-9.9 0.1-5.8-3.9 4.8-4.6 9.1 6.1 2.5 6.1-4.2 0-6.4-55.6-7.6-63.3-6.3-37.6-31.5-121-23.9-155.3 0.9-4 6.1-3 6.6 0.6z"  fill="#fca311" /><path d="M123.4-76.5c2.4 15.5 35 149.7 19.4 153.3-5.5 1.3-5.6-8.1 0-7 5.5 1.2 1.7 9.7-2.9 6.4-5-3.8-1.9-36.7-2.8-44.1-1.6-13.4-20.8-107.1-19.1-109.7 1.5-2.4 4.7-1.3 5.4 1.1z"  fill="#112233" /><path d="M130.5-89.2c2 33.2 27.2 139.8 17.5 163.7-2.1 5.3-10-0.1-5.8-4 4.9-4.6 9.1 6.3 2.4 6.3-5.6 0-4.1-43.6-4.8-50.3-3.6-32.4-20.9-85.5-15.7-116 0.7-3.9 5.7-3.1 6.4 0.3z"  fill="#ffffff" /><path d="M138.2-213.8c-24.7 78.2-6 155.1 5.5 233.6 1.5 10.5 10.2 46.9 2.6 55.7-3.7 4.3-9.4-3.2-4.2-5.6 5.2-2.4 7.2 6.8 1.5 6.9-4.5 0-5.4-53.3-6.5-60.8-8.6-59.4-22.9-117.8-17.3-178.3 1.5-16.1 2.3-40.6 10.6-54.9 2.6-4.5 8.6-1.2 7.8 3.4z"  fill="#fca311" /><path d="M145.1-241.3c-34.7 81.9-18.7 163.9-4.2 248.2 2.2 12.6 14.2 58.1 4.9 69.1-3.7 4.3-9.4-3.2-4.2-5.5 5.2-2.4 7.2 6.8 1.5 6.8-4.5 0-5.5-53.3-6.6-60.8-9.6-64.9-26.7-129-17.6-195.1 2.7-19.8 6.4-50.5 18.3-67.1 3.3-4.5 9.2-0.4 7.9 4.4z"  fill="#e5e5e5" /><path d="M151.2-62.9c-1.1 29.2 12.9 116.8 3.6 137.6-2.4 5.4-10.3-0.5-5.8-4.3 5.2-4.5 9.2 6.8 2.2 6.5-3-0.1-7.2-123.9-7-137.7 0.1-5.1 6.4-8.6 7-2.1z"  fill="#112233" /><path d="M158.6-195.9c-20.8 71.2-17.8 137.8-9.7 210.6 1.3 11.4 9.9 51.7 1.5 61.2-3.9 4.3-9.5-3.5-4.2-5.8 5.3-2.3 7.2 7.2 1.4 7-5-0.1-3.7-51-4.5-58.4-5.5-55.7-13.3-109.7-4.2-165.6 2.8-17.2 6.3-34.7 11.6-51.2 1.7-5.3 9-3 8.1 2.3z"  fill="#fca311" /><path d="M165.1-385.2c-82.3 64.9-148.2 100.8-139.8 219.6 3.4 47.6 20.1 91.2 42.4 132.9 1.8 3.4 18.2 32.5 12.9 31.4-2.7-0.6-1.5-4.8 1.2-3.9 2.6 0.9 0.9 4.9-1.6 3.7-5.7-2.7-12-21.8-15-27.5-40.4-75.1-67.8-167.8-29.1-249.7 17.2-36.3 87.4-101 122.8-116.8 6.8-3 10.9 5.7 6.2 10.3z"  fill="#ffffff" /><path d="M172.5-293.4c-52.6 83.6-55.1 170.2-38 264.9 1.7 9.5 19.4 106.8 8.3 105.6-5.7-0.6-2.7-9.6 2.2-6.6 4.9 2.9-1.6 9.8-4.8 5-5.2-7.7-0.8-36.3-2-46.5-8.7-75-31.7-147.9-16.4-224 7.3-36 21.9-72.8 42.1-103.6 3.6-5.6 11.2-0.5 8.6 5.2z"  fill="#112233" /><path d="M178.6 16.3c-0.9 12.1 2.1 51.8-7.3 60.3-4.7 4.2-9.8-4.8-3.8-6.7 6-1.9 6.9 8.5 0.6 7.7-7.6-1-0.9-19.1-0.2-23.6 1.1-8.3-1.2-35 4.6-40.6 2.5-2.5 6-0.2 6.1 2.9z"  fill="#ffffff" /><path d="M185.9-141.7c-17.6 54.7-23.9 105.6-23.1 162.9 0.1 6.1 2.4 57.8-6.4 56.1-4.3-0.8-3.8-7.4 0.6-7.5 5.2-0.2 5 8-0.2 7.6-7.1-0.5-0.9-32.4-0.8-38 1.1-47.5-2.2-93.8 9.1-140.5 3.2-13.4 5.8-32.4 13-44.2 2.8-4.5 8.7-1 7.8 3.6z"  fill="#14213d" /><path d="M117.5-393.6c-68.6 51.3-106.9 85.6-116.6 175.6-3.5 32.3-3.3 64.9-2.1 97.2 0.1 3.6 4.5 29.1-3 26.6-8-2.6 5.5-10.9 4.2-2.5-1.2 7.5-6.4-0.9-6.7-4.2-4.7-75.1-8.7-163.6 35.2-229 18.1-26.9 52.7-61.8 83-74.3 6.9-2.9 10.9 6 6 10.6z"  fill="#fca311" /><path d="M199.7-298.7c-44.2 79.3-64.6 176.2-55.8 266.2 1 10.2 13.8 110.7 3.5 109.4-5.8-0.8-2.5-9.8 2.4-6.7 4.2 2.7-0.4 9-4.2 5.9-5.2-4.2-0.7-38.5-1.3-46.3-5.5-75.4-15.2-143.7 4.6-218.2 10.3-38.7 22.3-80 42.3-114.9 3.2-5.6 10.8-1.1 8.5 4.6z"  fill="#e5e5e5" /><path d="M206.4-128.7c-16.2 50.9-28.2 98.3-31.3 151.9-0.4 6.2-0.9 55.8-9.6 53.8-4.4-1-3.6-7.8 0.9-7.8 5.3 0.1 4.8 8.5-0.5 7.8-7.3-0.9 0.6-33.6 1.1-39.5 4.6-58.8 12.1-110.4 30.4-166.6 1.9-5.9 10.4-6.9 9 0.4z"  fill="#112233" /><path d="M213.1-365.8c-65.1 61.2-121.4 133.4-111.4 227.4 4 37.5 44 161.3 38.9 184.3-1.2 5.6-9.6 0-4.8-3.3 4.8-3.2 6.9 6.6 1.3 5.7-5-0.8-9.5-44.7-11.1-51.4-18.7-80.4-51.9-165.8-16.5-246.4 20.5-46.7 57.5-91.2 95.6-124.7 5.8-5 12.6 2.7 8 8.4z"  fill="#e5e5e5" /><path d="M219.8-211.2c-13.3 69.1-44.4 133.1-48.3 204-0.5 8.8-0.6 86.1-9.5 84.2-5.2-1.1-3-9.1 2-7.5 5.9 1.9 0.6 10.7-3.9 6.5-5.6-5.2 3.1-48.8 3.4-57.9 2.9-88.8 28.4-136.9 46.2-219.5 0.8-3.6 11.1-23.2 10.1-9.8z"  fill="#ffffff" /><path d="M227-297.1c-23.3 50.4-66.7 215.7-67.4 270.6-0.1 10.3 4.5 104.9-4.7 103.3-4.3-0.8-3.9-7.3 0.5-7.5 5.1-0.2 5 7.9-0.1 7.6-6.4-0.4-1.2-39.6-1.2-46-0.8-108.4 6.3-127.7 34.7-230.7 8.8-32 14.9-65.1 27.5-96 2.6-6.2 13.7-11.4 10.7-1.3z"  fill="#112233" /><path d="M191.8-393.9c-63.8 52.9-144.7 96.2-154 187.2-3.8 36.6 2.9 73.6 15.8 107.9 2 5.3 16 29.7 13.6 33.8-2 3.4-6.1-2-2.4-3 3.7-1.1 3.1 5.6-0.4 3.9-7.7-3.9-14.6-31.3-17.6-39.4-21.8-58.8-25.6-128 8.4-183.1 17.3-28.1 102.5-104 130.2-117.3 6.6-3.2 10.9 5.3 6.4 10z"  fill="#112233" /><path d="M240.3-387.6c-69 60.2-139.2 137.2-135.8 234.7 1.6 46 14.3 90.8 25 135.3 1 4.2 10.8 36.2 3.8 34.9-3.8-0.7-2.4-6.6 1.3-5.5 3.2 1 2.3 5.8-1 5.5-4.7-0.4-4.7-12.8-5.4-15.9-18.9-87.3-51.6-177-8.2-262.5 25.9-51.2 68.1-99.4 112.5-135.3 6.1-4.9 12.8 3.3 7.8 8.8z"  fill="#ffffff" /><path d="M246.8-23.7c-1.9 22.9-1 81.2-12.2 99.6-4 6.5-11.9-4.1-4.6-6.1 6.3-1.7 6.7 9.1 0.4 7.9-7.6-1.3 1.9-31.1 2.7-36.9 2.3-16.7-1.8-53 7-66.8 2.2-3.4 6.6-1.2 6.7 2.3z"  fill="#112233" /><path d="M162.5-394c-54.9 43.8-118.5 74.9-138.1 147.9-8 30-9.3 61.7-6.7 92.6 0.2 2.7 5.4 26.8-2.2 22-3.4-2.1 0.2-7.3 3.4-4.8 3.2 2.5-1 7.3-3.9 4.5-3.9-3.8-3.2-18.4-3.7-23.8-5.5-57 2.5-118.7 39.9-164.3 19.5-23.8 78.2-72.2 105-84.4 6.7-3 10.9 5.6 6.3 10.3z"  fill="#14213d" /><path d="M260.2-142c0.2 26.4 5 210.6-2.4 217.9-4.3 4.3-9.7-4.3-4-6.4 5.7-2.1 7 8 1 7.5-4.9-0.4 0.6-66.8 0.5-75.7-0.1-21.3-7.1-133.9-1.5-144.9 1.7-3.3 6-1.7 6.4 1.6z"  fill="#fca311" /><path d="M266.8-102.2c2.4 34.6 23.6 151.6 13.7 177-2.4 6.2-10.8-1.7-4.8-4.5 5.1-2.4 7.2 6.7 1.5 6.8-5.7 0-3.8-46.1-4.3-53.1-2.4-33.5-17.6-96.5-12.4-126.5 0.7-3.9 5.7-3.1 6.3 0.3z"  fill="#112233" /><path d="M273.4-80.4c4.2 31.4 29.6 130.5 22 155-1.6 5.1-9.2 0.7-5.7-3.3 4.2-4.6 9 5.1 2.8 5.6-5.2 0.4-7-48.2-8-55.1-4.9-33.9-13.1-67.3-17-101.4-0.5-4 5-4.5 5.9-0.8z"  fill="#14213d" /><path d="M280.2-17.4c2 13 13.9 86.1 8.6 93.1-3.3 4.3-9.1-2.6-4.3-5.1 4.8-2.5 7.2 6.2 1.7 6.4-6.7 0.3-4.2-30.1-4.6-35.3-1.4-18.5-8.9-40.7-7.3-59 0.3-3.6 5-3.3 5.9-0.1z"  fill="#ffffff" /><path d="M286.9-0.5c2.6 14.7 17.2 63.6 8.2 76.2-3.1 4.3-9-2.3-4.3-4.9 4.6-2.6 7.2 5.8 1.9 6.2-6.8 0.5-4.5-23.9-4.9-28.4-0.2-2.7-7.2-70-0.9-49.1z"  fill="#e5e5e5" /><path d="M293.9-217.4c3.9 30.2 14 60 31.7 84.9 57.3 80.5 109.5 60.8 145.6 182.9 1.2 3.9 9.4 23.1 5.2 25.6-3.6 2.1-5.8-4.5-1.6-4.9 4.9-0.5 2.5 7.7-1.3 4.7-4-3.1-25.7-77.5-33.6-91.1-31.2-54.1-94-76.6-126.4-129.4-13.3-21.6-22-46.7-25.5-71.9-0.6-3.9 4.9-4.5 5.9-0.8z"  fill="#fca311" /><path d="M301.8-392.2c-73.3 79-76.6 109.1-104.7 209.4-9.7 34.5-22.8 68.1-29.6 103.4-5.5 28.6-6.1 57.6-5.5 86.6 0.1 3.5 3.7 25-4.3 22-3.7-1.4-2.2-7.1 1.8-6.5 4.5 0.7 3.1 7.8-1.4 6.6-6.1-1.6-3.1-33-3.1-38.9-0.3-24.1 0.8-48.2 4.9-71.9 7.1-40.6 51.1-199.6 68.7-234.1 14.6-28.5 35.3-52.6 57.1-75.8 3.3-3.5 9.4-13.5 15.3-9.1 2.9 2.1 2.7 5.7 0.8 8.3z"  fill="#112233" /><path d="M307.4 42.5c0.9 5 8.4 34 1.6 34.4-4.2 0.2-4.2-6.5 0-6.3 4.2 0.3 3.5 6.9-0.7 6.2-4-0.7-7.9-30.4-6.5-34.7 1-3 4.8-2.3 5.6 0.4z"  fill="#112233" /><path d="M312.9-103c31 52.5 83.4 86 109.7 142.5 2.2 4.6 17 32.8 12.7 35.9-3.1 2.2-5.6-3.6-1.9-4.4 4.4-0.8 2.9 6.8-0.8 4.4-3-1.9-27.9-62.3-34.7-72.4-24.3-36.6-60.8-62.9-85-99.4-0.9-1.3-3.8-11.3 0-6.6z"  fill="#14213d" /><path d="M322.2-304c-11.1 39.3-8.3 81.6 11.2 117.9 24.2 45 70.5 67.4 106.4 101.3 36.7 34.7 52.8 78.5 62.8 127 1 4.9 9.4 31.6 4.8 34-4.7 2.4-5.5-6.7-0.5-5.2 4.3 1.3 0.7 7.8-2.7 4.8-4.2-3.7-19.5-84.4-25.5-98.9-32.4-78.1-123.9-101.6-157-177.6-10.6-24.4-14.7-51.5-12.2-78 2.3-24.6 14.7-40.5 12.7-25.3z"  fill="#14213d" /><path d="M327.8 69.5c0.4 2 1 9.1-3.7 6.3-2.9-1.7-0.9-6.3 2.4-5.2 3.2 1 2.2 6-1.2 5.6-8.2-0.8 0-14.8 2.5-6.7z"  fill="#ffffff" /><path d="M334.5 66.4c0.4 2 3.8 10.9-1.8 10-3.8-0.7-2.4-6.5 1.3-5.5 3.1 0.9 2.3 5.7-0.9 5.5-9.4-0.6-1.4-18.4 1.4-10z"  fill="#14213d" /><path d="M342.1 72.9c0.6 9.1-11.8 0.6-4.6-2.4 8.2-3.4 3 12.5-1.6 4.9-2.6-4.3 3.2-8.3 5.9-3.8z"  fill="#e5e5e5" /><path d="M290.7-394.4c-77.3 76.1-95.3 130.8-123.9 232.9-6 21.5-11.2 43.2-14 65.4-0.5 3.7 0.7 25.1-7 21.4-3.8-1.8-1.7-7.7 2.4-6.8 4.8 1.1 2.6 8.5-2 6.9-7-2.5 1-36.6 2-42.7 11.8-69.2 36.2-161.8 76.3-220.1 9.7-14.1 46.3-62.4 60.6-66.6 6.1-1.8 9.1 5.3 5.6 9.6z"  fill="#112233" /><path d="M340.2-396.2c-58.6 105-86.9 135.8-54.2 263.9 9.3 36.3 26.2 68.6 46.9 99.6 2.2 3.3 14.7 17.5 13.3 21-1 2.5-4.7-0.1-2.8-1.9 2.3-2.1 4.3 3 1.2 3-5.2-0.1-19.5-27.8-22.7-32.7-44.5-68.1-67-158.9-49.7-239.6 7.6-35.4 35.3-93.3 60.2-119.2 4.2-4.4 9.9 1 7.8 5.9z"  fill="#fca311" /><path d="M360.7-396.9c-24.7 74-65.1 145.9-14.2 219.7 35.9 52 99.3 75.6 131.7 131.4 1.9 3.3 15.4 25 10.2 26.8-3.5 1.2-4.1-4.9-0.5-4.5 3.7 0.4 1.7 6.2-1.5 4.3-2.2-1.4-20.7-40-25.6-46.7-48.7-65.7-135.9-91.9-145.9-183.2-3.6-32.6 24.9-144.8 39.5-153 3.7-2.1 7.1 1.6 6.3 5.2z"  fill="#112233" /><path d="M368.2 59.2c1.1 3.1 8.3 15.1 3.1 16.5-3.2 0.9-4.4-4.3-1.1-4.7 3.3-0.5 3.9 4.7 0.5 4.8-9.8 0.5-6.5-24.3-2.5-16.6z"  fill="#112233" /><path d="M373.1-108.6c62.8 47.9 93.2 78 112.9 156.5 1.1 4.4 9 25.4 4.7 27.8-3.2 1.8-5.8-3.5-2.4-4.9 2.9-1.2 5.2 2.9 2.6 4.8-6 4.2-8.7-20.5-9.5-23.8-7.1-29.2-15.1-58.7-30.7-84.6-17.8-29.4-44.3-49.7-71.7-69.7-0.5-0.4-8.6-7.6-5.9-6.1z"  fill="#e5e5e5" /><path d="M368.6-397.2c-17.4 70.1-49.4 139.3-4 206.4 24.1 35.7 61.2 59.3 91.1 89.5 1.6 1.6 16 14.7 12.1 16-6.3 2.1 5.4-4.9 0.5-0.3-1.6 1.5-20.2-20.2-22.8-22.7-47-45.8-104.6-82.2-111.7-153.4-3.4-34.6 6.2-67.9 16.2-100.6 2.1-7 6.3-37.3 13.2-39.8 3.4-1.2 5.8 1.8 5.4 4.9z"  fill="#e5e5e5" /><path d="M386.8-74.6c39 30 64.5 65.3 79.7 112.1 1.6 5.1 14 35.7 9.3 38.5-4.2 2.5-5.5-5.9-0.8-4.8 4.1 0.9 1.1 7.2-2.1 4.6-3.5-2.7-23.2-71-29.3-82.8-12.9-25-31.5-45.5-53.4-63-1.5-1.2-5-5.6-3.4-4.6z"  fill="#e5e5e5" /><path d="M393.9-41.8c26.3 25.1 44.1 55.6 56.6 89.6 1.5 4.2 11.5 25.1 7.4 27.7-3.4 2.2-5.7-4-1.7-4.6 4.6-0.7 2.7 7.2-1.1 4.5-2.7-1.9-19.1-51.9-23.1-60.1-9.7-20-22.4-38-38-53.9-0.7-0.7-2.8-5.3-0.1-3.2z"  fill="#e5e5e5" /><path d="M405.7-398.6c12.5 99.5 24.5 176.4 85.3 259 13.9 19 82.1 117.4 74.2 136.8-1.6 3.9-7.3-0.1-4.3-2.9 3.1-2.9 6.6 3.2 2.6 4.4-5.5 1.8-7.6-16.8-8.7-20.3-6.6-20.2-15.8-39.4-26.5-57.7-35.7-61-85.8-110.3-105-180.3-8.2-30.1-26.9-110-23.6-139 0.4-3.7 5.2-3.2 6 0z"  fill="#e5e5e5" /><path d="M409.8-305.4c4.4 33.8 12.2 67 27.7 97.5 51.4 101.2 114.1 126.9 131.3 255.3 0.6 4.8 6.3 27.2 1.2 29.2-5.3 2.1-5.4-7.8 0-5.7 4.6 1.8 0 8.5-3.4 5-1.3-1.4-16.9-96.7-26-118.5-29.1-69.3-90.1-118.5-118.2-188.1-8.3-20.4-20.9-52.2-18.6-74.6 0.4-3.7 5.1-3.3 6-0.1z"  fill="#14213d" /><path d="M415.5 30.1c4.4 8.4 21.1 34.7 18.3 43.9-1.1 3.6-6.6 0.5-4.1-2.3 2.5-2.8 6.2 2.3 2.7 3.8-4.8 2-8.2-14.8-9.2-17.6-3.5-8.9-13-35.8-7.7-27.8z"  fill="#e5e5e5" /><path d=""  fill="#14213d" /><path d="M427.8-118.7c53 44.6 77.8 95.5 89.7 163 0.8 4.8 8 29.3 3.4 31.5-4.1 2-5.9-5.4-1.3-5.5 5.4-0.1 2 8.7-1.9 5-4.3-4-19.6-93.6-26.8-110.2-13-30.2-33.6-55.3-58-77-0.4-0.3-8.3-8.9-5.1-6.8z"  fill="#ffffff" /><path d="M435.7-199.9c26.5 46.5 66.3 83.8 92.6 130.5 20.4 36.1 30.9 75.1 36.5 116 0.6 4.3 6.8 29.7 0.4 30-3.6 0.2-4.5-5-1-6 3.4-1 5.4 4 2.3 5.7-6.9 3.7-7.2-25.3-7.7-28.9-4.3-33.3-11-66.1-24.9-97-23.9-53-66.1-93-97-141.4-0.8-1.3-5.5-14.5-1.2-8.9z"  fill="#112233" /><path d="M443.2 69.2c3.5 10-5.3 4.8-3 2.3 3.6-3.9 6.3 5.4 1.2 4-6.5-1.7-0.9-11.9 1.8-6.3z"  fill="#e5e5e5" /><path d="M448.5-89.8c34.5 34.1 51.2 76.4 60.6 123.3 1.1 5.7 11 40.2 5.8 42.7-4.8 2.3-5.5-6.9-0.4-5.3 4.3 1.3 0.6 7.9-2.7 4.9-3.9-3.5-16.5-78.9-21-91.9-8.7-25.2-22.1-48.5-40.2-68.1-1.3-1.5-3.6-6.8-2.1-5.6z"  fill="#14213d" /><path d="M511.6-399.3c42.2 76.6 22.6 150.9 48.8 229.4 8 23.9 37.1 66.3 40.2 85.6 0.6 3.7-5.7 2.3-3.6-0.9 2.1-3.1 5.7 2.3 2 3.1-4 0.9-12-19.5-13.8-22.9-47.4-88.9-36.7-119.6-49.9-212.3-4.2-29.6-20.3-52.8-27.3-80.6-0.6-2.3 2.4-3.1 3.6-1.4z"  fill="#ffffff" /><path d="M463.6 20.2c2.3 6.2 19.6 54.6 13.9 55.8-3.5 0.7-4.4-4.9-0.8-5.3 3.6-0.4 3.8 5.3 0.3 5.3-5-0.1-6.5-16.8-7.6-20.6-1.9-7-12.8-28.9-10.3-35.3 0.9-2.2 3.6-1.7 4.5 0.1z"  fill="#112233" /><path d="M470.1-364.9c34.3 73.9 34 156 74.1 228.1 5.5 9.8 61.1 103.9 55.1 106-3.4 1.2-4.1-4.8-0.5-4.4 3.6 0.4 1.7 6.1-1.4 4.2-2.5-1.5-32.5-63.2-37.7-71.9-72.1-121.5-45.1-135.5-85.1-240.2-2.1-5.4-8.9-15.3-8.6-21 0.1-2.4 3.1-2.5 4.1-0.8z"  fill="#fca311" /><path d="M476-122.9c38.5 44.8 63.3 93.8 73 152.3 1 6.1 10 44.1 4.3 46.6-4.4 1.9-5.9-6-1.1-5.9 5.6 0.2 1.7 9.2-2.2 5.2-3.7-3.8-15.3-88.4-20.6-103.5-11.3-32.8-29.9-62.1-51.9-88.7-0.2-0.2-5.4-9.6-1.5-6z"  fill="#e5e5e5" /><path d="M484.4-243.7c18.4 74.9 67.1 131.1 98.9 199.7 2.9 6.3 23.3 49.7 16.6 53.5-3.8 2.1-5.8-4.8-1.5-5.1 5-0.4 2.4 8-1.5 4.8-2.3-1.9-18.9-54.9-23.2-63.5-29.5-60-72.8-111.4-91.4-176.7-0.7-2.4-1.5-21.9 2.1-12.7z"  fill="#e5e5e5" /><path d="M491.3 35.4c1.2 5.2 11.9 40 6.2 40.9-3.7 0.6-4.4-5.3-0.6-5.5 3.8-0.2 3.8 5.7 0 5.5-4.6-0.2-4.8-12.2-5.4-15.2-1.6-7.4-3.3-14.8-5-22.2-0.9-3.8 2.9-8.7 4.8-3.5z"  fill="#ffffff" /><path d="M532.4-399.4c38.1 78.9 13.7 144.8 34.8 223.1 6.4 23.8 30.5 60.4 33.4 79.6 0.6 3.7-5.8 2.2-3.7-0.9 2.2-3.1 5.7 2.4 2.1 3.1-4.1 0.8-10.8-18-12.6-21.3-15.2-30.6-27.6-62.3-32.1-96.4-4.8-35.6-0.4-71.5-3.7-107.3-1.8-19.3-22.6-72.2-22.3-79.1 0.1-2.3 3-2.5 4.1-0.8z"  fill="#14213d" /><path d="M547.3-399.2c33.6 78.9 8 139.8 24.8 217.1 2.6 12.2 29.2 73.3 28.4 76.9-0.7 3.8-6.4 0.1-3.2-2.1 2.7-1.9 4.8 3.1 1.6 3.8-4.3 0.8-11.4-20-13-23.6-12.5-27.4-21.6-56-24.7-86.1-3.6-36.2 2.6-72.4 0.5-108.6-0.7-10.9-18.6-77.3-18.6-77.3 0.7-2.1 3.3-1.8 4.2-0.1z"  fill="#14213d" /><path d="M510.7-153.9c37.3 63 78.3 119.1 89.2 193.4 0.5 3.5 4.6 15.3 0 17.2-5.3 2.2-5.4-7.8 0-5.7 4.5 1.8 0.1 8.5-3.4 5-3.1-3.2-15.9-76.4-21.3-90-16.7-41.6-43.2-78-66.5-116.1-1.3-2.2-0.7-7.3 2-3.8z"  fill="#112233" /><path d="M542.9-399.2c35 79.1 9.5 142.3 28 220.1 5.6 23.5 27.3 57.5 29.9 76.5 0.5 3.8-5.9 2.2-3.7-0.9 2.2-3.1 5.8 2.5 2 3.2-4.2 0.8-9.9-16.6-11.4-19.8-14.1-29.4-24.9-60.1-28.5-92.6-4-36.4 1.8-72.9-0.9-109.3-0.8-10.9-19.5-77-19.5-77.1 0.7-2.1 3.2-1.8 4.1-0.1z"  fill="#ffffff" /><path d="M525.7-242.4c7.2 50.7 26.4 94.6 51.5 138.7 2.7 4.8 26.4 43.6 22.3 45.3-3 1.3-4-4-0.7-3.9 3.3 0.1 2 5.3-1 3.9-5.8-2.8-12.3-22.8-15.6-28.7-21-37.6-43.2-74.4-54.6-116.3-3.4-12.5-6.2-25.3-7.8-38.2-0.5-3.9 4.9-4.5 5.9-0.8z"  fill="#fca311" /><path d="M531.2-147.9c9.9 18 73.6 119.4 69.7 131.3-1.2 3.7-6.8 0.4-4.1-2.4 2.7-2.8 6.3 2.5 2.7 3.9-2.7 1.1-21.8-45.4-24.8-51-14.5-27.3-32.1-52.8-46.8-80-1.2-2.2 1.9-3.8 3.3-1.8z"  fill="#fca311" /><path d="M538.2-157.9c7.4 15.6 64.1 109 62.5 115.8-0.8 3.4-6 0.9-3.8-1.9 2.1-2.7 5.8 1.7 2.7 3.3-3.3 1.7-18.8-33.1-21.3-37.5-13.6-24.4-28.7-48-41.3-73-0.9-1.8-2.5-12.4 1.2-6.7z"  fill="#ffffff" /><path d="M546.4-290.2c3.4 53.3 5.2 102.4 27.7 152 5 10.9 28.3 41.7 26.5 52.7-0.6 3.7-6.1 0.3-3.2-1.9 2.5-1.9 4.7 2.9 1.6 3.5-4.3 0.9-16.1-27.2-18.2-31.3-28.9-55.5-37.7-107.3-40.6-169.2-0.2-4.1 4.7-14.4 6.2-5.8z"  fill="#14213d" /><path d="M551.9-55.9c14 27.9 40.1 99.1 33 129.8-1.3 5.7-9.6-0.1-4.7-3.3 4.1-2.7 7.1 4.9 2.2 5.7-4.8 0.8-10.7-58.2-12.4-65.7-3.2-15.3-7.6-30.3-13.2-44.9-1.5-3.7-10.6-18.2-8.6-21.7 0.9-1.6 2.8-1.2 3.7 0.1z"  fill="#112233" /><path d="M560.3-280c-0.5 47.3 1 91.7 19 136.3 3.9 9.7 23 36.7 21.3 46.1-0.6 3.2-5.5 1.1-3.7-1.5 2.2-3.1 5.8 2.4 2.1 3.1-4.4 0.9-14.4-25.3-16.4-29.3-22.6-47.5-30.2-94.2-29.4-146.5 0.1-3.7 5.9-18.9 7.1-8.2z"  fill="#fca311" /><path d="M565.6-49.9c12.9 26.8 37.5 95.1 30.6 124.3-1.1 4.8-8.6 1.3-5.5-2.7 3.6-4.6 8.7 4.2 2.9 5.1-5.2 0.8-9.7-52.8-11-59.9-3-15.3-7.1-30.4-12.6-45-1.4-3.8-10.3-18.4-8.2-22 0.9-1.6 2.9-1.2 3.8 0.2z"  fill="#fca311" /><path d="M573.2 7.4c3.1 13.1 16.7 56 9.5 67.6-2.6 4.2-8.5-1.5-4.4-4.2 4.1-2.7 7.1 4.9 2.2 5.7-6.5 1-5.7-22.6-6.1-26.7-1.3-11-9.4-32.2-6.6-42.5 0.8-2.9 4.5-2.4 5.4 0.1z"  fill="#112233" /><path d="M581-280.6c-4.1 41-7.4 80.5 4.1 120.8 2.7 9.5 17.8 34.6 15.7 43.2-0.8 3.4-5.9 0.9-3.8-1.8 2.5-3.2 6 2.9 2 3.5-4.6 0.7-11.1-21.5-12.5-25.5-17.2-44.6-18.5-88.5-13.5-135.5 0.5-4.9 7.8-14 8-4.7z"  fill="#e5e5e5" /><path d="M587.7-297.7c-3.4 43.4-12.1 84.6-2.3 128 1.4 6 15.4 49.2 13.2 49.3-3 0.1-2.9-4.7 0.1-4.5 2.6 0.2 2.7 4.1 0.1 4.5-4.4 0.6-7.8-14.5-8.9-17.6-16.9-44.3-25-115.7-9.3-161.2 1.5-4.2 7-2.4 7.1 1.5z"  fill="#112233" /><path d="M593.5-159.7c1 4 10.1 26.1 5.8 27.4-3.1 0.9-4.3-4-1.1-4.6 3.2-0.6 3.8 4.5 0.6 4.7-4.1 0.3-11.3-23.6-10.5-27.4 0.6-2.9 4.2-2.5 5.2-0.1z"  fill="#112233" /><path d="M600-21.8c0.6 1.7 1.9 7.2-2.3 5.6-11-4.2 12.8-0.6 1.1 0.2-6.8 0.4-1.9-12.1 1.2-5.8z"  fill="#14213d" /><path d="M602.7-266.6c-6.7 31.1-11.6 62-6.8 93.9 0.7 4.8 7.6 23.6 4.8 27-2.6 3.1-6.8-2.2-3.1-4 3.7-1.7 5.2 4.9 1.1 4.9-14.7 0.1-11.2-81-9.8-91.1 1.3-10.1 1.7-24 6.2-33.3 2.2-4.4 8-1.7 7.6 2.6z"  fill="#112233" /><path d=""  fill="#e5e5e5" /><path d="M602.4-222.6c-1.4 9.2 1 49.1-1.1 52.8-2.7 4.8-8.8-2.7-3.5-4.3 4.5-1.4 5.2 6.5 0.5 5.8-8-1.1-5.7-49.7-3.2-56.2 1.7-4.3 7.3-2.3 7.3 1.9z"  fill="#ffffff" /><path d=""  fill="#fca311" /><path d=""  fill="#ffffff" /><path d=""  fill="#ffffff" /><path d=""  fill="#e5e5e5" /><path d=""  fill="#ffffff" /><path d=""  fill="#14213d" /><path d=""  fill="#112233" /><path d=""  fill="#ffffff" /><path d=""  fill="#14213d" /><path d=""  fill="#112233" /><path d=""  fill="#fca311" /></svg>