<svg width="1200" height="675" viewBox="-500 -500 1200 675" xmlns="http://www.w3.org/2000/svg"><path d="M-500-500h1200v675h-1200z" fill="#000"/><path d=""  fill="#c2e1ff" /><path d=""  fill="#c2e1ff" /><path d=""  fill="#c2e1ff" /><path d=""  fill="#fff" /><path d=""  fill="#fff500" /><path d=""  fill="#005bbb" /><path d="M-384.7-311c-14.7 22.6-37.5-2.6-20.8-13.3 23.8-15.3 25.3 36 0.6 22.1-32.5-18.3 37.8-45.6 20.2-8.8z"  fill="#c2e1ff" /><path d="M-367.5-235.4c-7.3 8.7-29.4 47.1-42.9 24.4-6.9-11.6 6.3-25.3 18.2-18.9 13.9 7.5 5 29.4-10.2 25-25-7.2 7.1-46.7 18.6-51.7 14-6.1 23.2 10.1 16.3 21.2z"  fill="#fff" /><path d="M-350 65.6c-3.9 7.1-5.8 19.5-16.3 19-6.2-0.3-11.1-5.9-10.4-12.2 2.5-24 37.5 2.3 15.1 11.4-19.6 7.9-14.7-21.8-8.8-29.9 8.6-11.6 23.9-0.7 20.4 11.7z"  fill="#005bbb" /><path d="M-333.3-245.1c-12.2 10.6-56.4 65.7-66.2 64.9-21.8-1.7-11.2-36.4 7.8-25.7 19 10.7-5.1 37.7-17.9 20-9.9-13.7 49.2-80.9 62.2-84.5 15.9-4.3 23.2 14.4 14.1 25.3z"  fill="#fff500" /><path d="M-316.1 76.3c-7.6 15.9-28.9 2-18.5-10.1 15.4-17.8 28.6 22.8 5.7 17.6-26.9-6.2 14.6-40.8 13.5-10.1z"  fill="#fff500" /><path d="M-298.5-57.6c-13.7 14.9-94.9 90.6-112.4 67.4-12.4-16.5 14.7-34.6 25.2-16.9 10.5 17.7-18.3 32.8-26.8 14.1-9.4-20.6 101.9-89.5 103.1-89.6 14.3-0.7 18.6 15.3 10.9 25z"  fill="#fff500" /><path d=""  fill="#c2e1ff" /><path d="M-263.1-349.6c-19.3 47-62.3 76.1-95.3 112.7-9.3 10.4-31.8 52.8-49.2 37.7-16.3-14.3 12.6-35.7 21.5-15.9 7.6 17-19.8 27.4-25.5 9.8-6.5-20.1 42.9-63 55.9-76.3 17.1-17.4 36-33 52-51.5 7.8-9 13.3-25 22.8-31.7 10.9-7.8 21.7 4.4 17.8 15.2z"  fill="#005bbb" /><path d="M-247.4-251.1c-28 21.9-60.8 36.1-86.5 61.1-18.2 17.7-35.3 53.3-57.8 64.7-5.7 2.9-12.9 1.6-17.3-3.1-13.3-14.5 10.7-34.3 22.4-18.4 13.7 18.6-21.3 34.1-25.9 11.5-4.3-21 124.1-140.4 153.9-144.3 17.3-2.3 22.3 18.4 11.2 28.5z"  fill="#fff" /><path d="M-228.2 47.8c-4.2 7.8-11.1 45.6-27.3 34.3-9.9-6.9-1.3-22.6 9.8-18.1 11.1 4.6 6.1 21.8-5.7 19.8-18-3.2-3.5-43.5 4.8-50.1 10.3-8.2 21.6 3.2 18.4 14.1z"  fill="#005bbb" /><path d="M-211.2-277.9c-27 37.3-71.1 53.5-105.7 82.1-27.4 22.6-44.5 55.3-71.4 77.9-6.4 5.4-15.7 5.6-21.4-1-13.1-15.2 12-34.5 23.3-18 11.4 16.5-15.6 33-25.1 15.4-9.2-17.1 29-44.9 38.6-56.5 39.4-47.8 74.8-64.7 121.6-101 7.7-6 15.3-17.4 24.5-21 14.3-5.6 23 11.1 15.6 22.1z"  fill="#c2e1ff" /><path d="M-193.7-143.9c-32.7 85.1-59.9 110.6-112.5 180.6-7.8 10.4-18.3 43.4-30 47-16.5 5-18.8-23.5-1.7-21.1 17.1 2.4 7.2 29.2-7.3 19.9-32-20.5 85.7-145.4 98.2-165.8 10.3-16.9 23.3-62.9 35.1-73.3 9.5-8.3 20.9 2.1 18.2 12.7z"  fill="#fff" /><path d="M-176.6-122.8c-16.2 59.4-53.4 101.4-85.6 152.1-6.4 10.1-21.6 64.3-38.1 52.7-11.5-8.1 2.2-25.6 12.9-16.3 9.1 8-1.3 22.7-11.9 16.9-33-18.2 65.9-138.4 77.1-156.9 7-11.6 21.7-56.2 29.6-61 9.1-5.6 17.7 3.4 16 12.5z"  fill="#fff" /><path d="M-158.9-25.1c-18.6 23.8-41.2 44.4-56.7 70.5-6.2 10.5-8.6 23.7-15.1 33.7-3.2 5-10.2 6.3-15 2.8-11.5-8.4 2.7-25.9 13.3-16.2 10.6 9.6-5.4 25.4-14.9 14.7-20.8-23.4 50.6-118.2 72.5-127.2 14.1-5.8 23.1 10.6 15.9 21.7z"  fill="#fff" /><path d="M-143-319.3c-2.7 70.2-53.3 202.6-90.3 262.7-18 29.3-41.3 54.3-63 80.8-9.2 11.2-30.8 53.9-36.7 58.1-16.4 11.8-24.9-22.3-4.9-19.6 17.1 2.3 7.2 29.2-7.3 19.9-12.2-7.8 1.2-31.1 5.2-39.6 25.8-54.8 77.2-92.7 104.6-147.2 24.6-48.9 46.5-104.4 62.6-156.7 4.9-15.8 5.8-52.5 12.8-63.9 5.3-8.6 16.5-3.3 17 5.5z"  fill="#005bbb" /><path d=""  fill="#fff" /><path d="M-110.4-340.5c13 69.7 38.6 142 88.8 193.7 50.8 52.4 118.5 76 139.2 152.6 1.9 6.9 13.5 36-1.3 37.1-9 0.7-11.4-12.6-2.8-15.2 8.7-2.6 13.9 9.9 6 14.3-15 8.3-14.5-28-15.6-33.6-4.8-23.5-13.3-46.4-27.6-65.8-43-58.5-107.3-70.8-153.1-150.1-22.8-39.3-38.9-85.4-47.6-130-1.8-9.3 11.1-11.5 14-3z"  fill="#005bbb" /><path d="M-92.5-394.2c16.5 161.6 177.9 150.8 219.5 325.6 2.9 12.1 14.7 44.6 8.1 55.9-6.3 10.7-21.4-3.3-11.2-10.4 8.7-6.1 17.5 8.2 8.2 13.3-14.9 8.1-13.7-24.7-14.6-30.3-5.6-38.1-14.9-77-33.5-110.9-37.6-68.5-117.8-97.5-160.1-163.2-12.9-20-33.3-54.4-31.4-79.4 0.7-9.2 12.7-8.5 15-0.6z"  fill="#005bbb" /><path d="M-74.8-97.8c4.3 23.2 2.6 47.9-7.9 69.3-16.9 34.2-51.5 51.6-78 77.1-8.4 8.1-27.6 48.8-42.6 33.2-9.5-9.9 3.7-25.6 15.1-18 13.3 8.9-1.8 29.2-14.2 18.9-27.5-23.1 76.1-99.3 91.4-116.3 27.2-30.2 11.5-42.8 21.1-66.4 3.3-8 13.4-5.1 15.1 2.2z"  fill="#fff" /><path d="M-61.7-271.4c34.7 56 91.4 83.5 136.2 129 41.9 42.7 56.9 101.2 62.6 159.2 1.2 12.2 10.6 56.2-1.7 64-14 8.9-19.4-19.4-3.1-16.3 16.3 3.1 0.7 27.4-9 13.9-8.4-11.7-1.3-45.9-2.3-60.3-2.7-38.3-8.6-77.8-24.5-113.1-29.7-66.3-97.4-93.8-144.2-145.3-5.8-6.4-20.7-19.2-21.8-28.2-0.6-4.7 5.1-6 7.8-2.9z"  fill="#fff500" /><path d=""  fill="#005bbb" /><path d="M-28.2-146.1c59.3 68.2 131.7 82.9 147.6 184.7 1.4 8.9 8.9 34.9-0.5 41.5-13.1 9.2-19.5-17.9-3.7-15.5 15.8 2.3 1.9 26.4-8 13.8-0.7-0.9-10.5-87.2-24.5-112.7-25.9-47.2-78.5-70.2-115.4-107.6-2.9-2.9 1.5-6.7 4.5-4.2z"  fill="#fff500" /><path d="M-2.2 75.2c-12.6 23.4-36.7-0.4-20.8-11.7 22.5-16.1 26.5 33.8 1.7 21.5-32.5-16.2 34.3-46.2 19.1-9.8z"  fill="#fff500" /><path d=""  fill="#005bbb" /><path d="M29.4 6.2c2.9 13.6 7.6 79.6-16.5 78.3-15.1-0.8-12.6-24.5 2.4-22.1 14.9 2.4 9.9 25.8-4.8 21.7-17.4-4.8-0.9-33.7 1.1-43.4 2.1-10.1-2-30 3.8-38.2 4.4-6.2 12.5-2.8 14 3.7z"  fill="#fff500" /><path d="M55.3-400.9c18.4 52.6 70.5 84.6 91.5 136.1 22.8 56.2-3.3 113.7-5.4 171.1-0.5 12.8 9.2 74-4.3 78.5-10.8 3.5-15.4-13.8-4.3-16.1 11.1-2.3 13.9 15.3 2.5 16.4-29.5 3 6.1-207.6 2.8-230.7-7.9-56.1-55.8-90.3-84.4-135.4-16.1-25.3-1.7-25.4 1.6-19.9z"  fill="#c2e1ff" /><path d="M58.3-174.9c62.2 53.5 78.4 138.2 81.8 216.4 0.4 9.3 6.6 37.3-6.4 40.5-13.8 3.4-14.3-20.2-0.4-17.5 13.9 2.7 4.5 24.4-7 16-9.5-6.9-3.7-87.1-12.9-132.9-6.7-33.1-17.9-65.9-37.5-93.7-5.4-7.7-19-17.5-21.8-26.1-0.9-2.7 2.3-4.2 4.2-2.7z"  fill="#fff" /><path d="M76.5-58.2c22 22.3 67 131.9 40.6 139.7-11.2 3.3-15.5-14.7-3.9-16.7 13.5-2.4 12.6 20.3-0.7 16.8-7.7-2-10.3-64.1-14.8-80.8-5.5-20.2-36.3-73.4-21.2-59z"  fill="#fff" /><path d="M106-400.6c13.9 51 52.6 91.5 62.3 144.1 9.6 51.9-16.2 98.5-22.8 148.9-1.6 12.2 4.6 66.4-8.4 70.4-11 3.4-15.4-14.3-4.1-16.5 11.3-2.2 13.8 15.9 2.3 16.8-32.8 2.6 18-188 17.9-208 0-65.2-55.6-112.3-59.4-153.1-0.7-7.7 9.2-8.8 12.2-2.6z"  fill="#fff500" /><path d="M113.9-228.1c24.2 44.9 24 165.9 27.7 221 0.9 12.6 12.1 91.6-7.8 89.6-10.5-1-10.6-16.7-0.1-18 12.2-1.5 13.4 17.9 1.1 18-4 0-7.7-2.7-8.7-6.5-3.6-12.3-2.3-105.5-4.3-129-3.8-46.3-3.9-94-10.7-139.9-1.5-10.1-8.9-23.8-8-33.6 0.6-6.2 8.1-6.3 10.8-1.6z"  fill="#fff500" /><path d="M134.3-187.4c5.1 49.8 2.2 101 5.8 151 1.3 17.8 10.3 105.2 1.9 115.5-9.2 11-23.8-7.8-10.9-14 13-6.2 18.3 17.1 4 17.2-17.4 0.2-8.3-61.3-8.7-72.6-2.2-55.1-18-147.2-8.4-198.2 1.9-9.9 14.7-7.7 16.3 1.1z"  fill="#fff" /><path d="M148.6-333.2c57.5 128.2-7.6 168.2-5 293 0.4 18.3 7.8 109.6-0.3 119.3-9.3 11-23.9-8-10.8-14.1 13.1-6.1 18.3 17.2 3.9 17.3-16.8 0.1-7.9-41.7-7.9-50.6-0.1-58.2-8.5-118 4.3-175.5 5.8-26.1 16.6-50.8 22.1-77 11.7-55.7-18.5-91.2-17-110.6 0.5-6.2 8.1-6.5 10.7-1.8z"  fill="#fff500" /><path d="M169.1-245.3c6.1 45.2-16.2 87.5-22.9 131.2-4.1 26.5-3.7 53.4-2.9 80.1 0.5 15 12.1 118.5-8 116.4-12.3-1.3-9.2-20.5 2.8-17.9 10.3 2.2 8.7 17.9-1.9 18-17.3 0.1-7.9-45.9-7.9-56-0.8-87.4-5.5-139 17.4-225.6 3.4-12.7 0.9-41.6 8.8-51.2 5.2-6.3 13.6-2 14.6 5z"  fill="#fff500" /><path d="M185.8-302.1c17 101.5-39.6 152.3-41.1 248.2-0.3 17.1 10.2 138.4-8.9 136.3-12.3-1.3-9.2-20.5 2.9-17.9 12.1 2.6 6.9 21.4-4.8 17.5-14.3-4.8-4.9-61.2-5.2-73.7-1-48.5-5.5-98.6 6.7-146.1 10.1-39.4 33.4-74.6 37-115.7 1.4-16.1-3.3-32.7-1.7-48.3 1-9.3 13-8.3 15.1-0.3z"  fill="#fff" /><path d="M205.6-360.4c-11.4 46 1.7 94.1-9.7 140.4-17.6 71.2-49.8 94.2-50.5 178-0.1 15.9 10.3 126.4-9.4 124.3-12.3-1.3-9.2-20.6 2.9-17.9 10.3 2.3 8.7 18-1.9 18-16.4 0-7.9-36.7-7.8-45.4 0.5-53.4-6.7-108.7 5.3-161.4 10.1-44.4 39.3-81.8 46.9-126.9 4.1-24.4-5.3-101.6 6.2-116.8 6.7-8.9 18.3-1.9 18 7.7z"  fill="#c2e1ff" /><path d=""  fill="#005bbb" /><path d="M241.5-365c-28.5 42.2-20.6 96.4-34.5 143.4-15.9 53.7-53.6 94.3-59.1 151.9-3.2 33.6 7.9 115.6-1.8 140.8-6.1 15.7-27.5-4.2-12.4-11.5 15.2-7.2 17.1 22 1.1 16.8-13.4-4.4-5.1-42.1-5.1-52.2-0.1-50.7-5.7-103.7 8.9-153 11.7-39.4 38.9-71.5 51-110.7 13.9-44.6 6.8-95.6 29.8-137.5 8-14.6 27.9-2.7 22.1 12z"  fill="#fff500" /><path d="M258.3-152.5c-33.4 42.7-83.4 61.6-96.6 118.9-6.8 29.4 0.2 126.4-22.7 115.2-11.3-5.6-1.6-22.9 9.1-16.2 10.7 6.8-0.9 23-10.8 15.1-10.5-8.3-1-45.1-0.4-56.7 4.3-90.1 25.4-145.2 103.1-197.5 14.3-9.6 27.1 8.7 18.3 21.2z"  fill="#fff500" /><path d="M275.7-125.7c-30.5 40.2-82.7 57.8-101 107.7-7.2 19.7-9 110.3-29.1 99.7-11.4-6.1-0.9-23.6 9.9-16.3 10.7 7.3-1.7 23.5-11.6 15.1-9.7-8.3 0-39.2 1.1-49.8 7.9-74.8 26.2-107 85.1-153.1 9.4-7.4 17.4-17.4 27.2-24.1 14.1-9.7 27.1 8.4 18.4 20.8z"  fill="#fff500" /><path d="M293.3-197.3c-27.4 74.8-100.6 91.8-124 153.5-15.1 39.7-7 136.8-28.9 125.8-11.3-5.7-1.4-23.1 9.2-16.2 10.7 6.9-1.1 23.1-10.9 15.1-10-8.1-0.9-41.6-0.2-52.7 8.9-145.8 30.2-111.7 107.1-195.1 11.3-12.3 17.4-34.3 29.7-44.2 10.1-8.1 21.2 3.1 18 13.8z"  fill="#fff500" /><path d="M310.3 15c-3.6 13-14.4 79.3-35.9 68.9-14.3-6.9-2.2-28.8 11.2-20.4 13.5 8.4-0.9 28.9-13.4 19.1-8.4-6.6 14.7-72.4 20-78 8.2-8.6 19.8 0.2 18.1 10.4z"  fill="#c2e1ff" /><path d="M327.6-123.2c-13.4 59.2-48.8 105.8-77 158.2-5.7 10.6-18.5 57.7-36.6 48.6-14.3-7.1-1.9-29 11.5-20.3 13.4 8.6-1.3 29-13.7 19-17.3-13.9 27-77.9 35.2-91.9 15.9-27.2 34-53.3 46.8-82.2 4.8-10.8 7.6-36.3 17.8-43.1 8.7-5.7 17.4 2.7 16 11.7z"  fill="#fff500" /><path d=""  fill="#fff" /><path d="M360.3-116.6c3.3 50.4 9.5 100.6 16.5 150.6 1.2 8.6 13.4 46.6-2.1 47.5-9.1 0.6-11.4-12.9-2.6-15.3 10.2-2.9 14 13.5 3.4 15.2-15.5 2.7-13.7-43.7-14.9-52.6-5-36.1-22-113.1-16.5-146.2 1.7-9.8 14.5-7.9 16.2 0.8z"  fill="#fff" /><path d="M377.8-233.6c3.4 86.7 41.7 162.7 66.3 244.4 2.7 9.1 26.8 64.4 16.1 68-7.6 2.5-10.9-9.6-3.1-11.3 6.7-1.4 9.9 8.2 3.7 11.1-12.9 5.9-26.5-55.5-29.1-64.1-20.2-66.2-51-130.4-63.9-198.5-2.8-14.8-9-35.5-6.3-50.4 1.7-9.9 14.6-7.9 16.3 0.8z"  fill="#fff" /><path d=""  fill="#fff" /><path d="M415.8-400c12.1 70.5 22.6 145 44.3 213.2 21.2 66.5 40 116.7 49.5 187.2 0.8 5.8 4.9 16.6 1.9 22.3-5.5 10.4-20.4-2.1-11.1-9.3 9.3-7.2 17.7 10.5 6.1 13.1-14.7 3.3-23.6-103.7-27.3-118.3-9.7-38.5-26.6-74.5-38-112.4-13.7-45.3-19.6-92.3-28.8-138.6-3.4-17.1-12.2-38.9-11.2-56.3 0.5-9 12.2-8.5 14.6-0.9z"  fill="#fff" /><path d="M428.8-340.4c9.5 44.5 15.2 89.9 27.2 133.8 19.8 72.2 44.1 124.1 54 201.2 1.5 11.5 20.5 82.8 9.7 85.3-10.3 2.3-10.3-15.1-0.1-13 10.3 2.2 3 18.1-5.4 11.8-15.1-11.4-25-129.9-30-154.9-14.5-72.6-46.5-135.8-60.6-214.3-2.1-11.4-14-41.8-8.1-52.1 3.5-6.1 11.3-3.7 13.3 2.2z"  fill="#fff500" /><path d="M446.1-302.5c7.7 34.8 13.8 69.9 24.2 104 11.6 38.1 28.2 74.6 36.9 113.7 7.6 34.1 9 68.9 13.5 103.4 1.2 9.3 17.7 59.1 5.1 61.7-10.5 2.2-10.3-15.7 0.2-13.2 10.5 2.5 2.7 18.5-5.7 11.9-15.4-12.1-22.1-128.7-26.1-153.8-12.3-76.9-49.2-147.4-62-224.7-1.5-9.3 11-11.5 13.9-3z"  fill="#005bbb" /><path d="M462.7-52.9c4.6 14.3 39.2 129.1 29.8 132-8 2.4-11-10.4-2.8-11.9 8.2-1.5 9.8 11.5 1.5 12.1-11.8 0.9-17.7-38.1-19.9-46-4.6-16.4-23.9-71.6-21.2-85.6 1.4-7 10.1-6.3 12.6-0.5z"  fill="#005bbb" /><path d=""  fill="#fff500" /><path d="M518.1-400.8c24.9 32.9 38.4 71.7 60.7 106 3.5 5.4 23.4 24.4 22.4 30-0.8 4.3-7.4 1.5-5-2.1 2.5-3.5 7.4 1.8 3.6 3.9-17.4 10-79.7-119.1-88.4-133.2-2.8-4.6 3.2-8.5 6.7-4.6z"  fill="#fff" /><path d=""  fill="#fff" /><path d="M534.3-6.5c0.5 10.9 8.2 84.7 8 84.9-7.8 8.1-18.2-7.4-7.7-11.5 10.5-4.1 13.4 14.4 2.1 13.7-13.2-0.8-23-79-18.1-89.9 3.7-8.3 14.3-4.9 15.7 2.8z"  fill="#005bbb" /><path d="M552.1 72c0.4 14.3-20.1 12-16.9-0.4 4.6-18.5 29 5.9 10.5 10.5-22.1 5.5-3.3-34.7 6.2-11.4z"  fill="#005bbb" /><path d="M568.8 54.2c0.5 6 6.6 30.5-8.1 26.5-7.5-2-7.5-13-0.1-15.1 8.8-2.5 13.9 10.2 5.9 14.4-13.4 7.2-14.4-20.1-13.5-26.1 1.4-9.7 14-8.1 15.8 0.3z"  fill="#c2e1ff" /><path d=""  fill="#c2e1ff" /><path d="M599.3-323.4c1.5 2.4 7 12-1.1 11.1-4.9-0.6-4.8-7.9 0-8.4 4.9-0.5 6.4 6.7 1.8 8.2-11.8 3.9-9.1-20.7-0.7-10.9z"  fill="#c2e1ff" /><path d=""  fill="#fff" /><path d=""  fill="#c2e1ff" /><path d=""  fill="#c2e1ff" /><path d=""  fill="#c2e1ff" /><path d=""  fill="#fff" /></svg>