<svg width="1200" height="675" viewBox="-500 -500 1200 675" xmlns="http://www.w3.org/2000/svg"><path d="M-500-500h1200v675h-1200z" fill="#000"/><path d="M-397.2-67.6c29 37.1 57 75.5 73.3 120.1 1.4 3.8 9.8 20.4 5.3 23.1-3.9 2.4-6.4-4.8-1.9-5.4 5.4-0.6 2.9 8.4-1.4 5.3-2.8-2.1-19.7-52.6-24.2-61.2-14.5-27.8-33.2-53.2-52.3-78-1.3-1.7-1.7-6.8 1.2-3.9z"  fill="#fff500" /><path d="M-397.2-74.6c9.1 12.4 89.7 121.5 74.3 132-3.6 2.5-6.3-4.3-1.9-5 5-0.8 3.1 7.8-1.1 5-9-6.1-17-41.5-22.8-52.3-14.3-26.7-32.1-51.3-49.9-75.7-1.4-1.9-1.4-7 1.4-4z"  fill="#c2e1ff" /><path d="M-397.4-70.8c29.2 38.4 57.7 77.7 74.2 123.4 1.4 3.8 9.7 20.4 5.2 23.2-4.6 2.8-6.2-6.5-0.9-5.3 4.5 1 1.3 8-2.4 5.1-2.8-2.1-19.4-52.7-23.8-61.3-14.8-29-34-55.4-53.5-81.3-1.4-1.8-1.6-6.9 1.2-3.8z"  fill="#005bbb" /><path d="M-397.3-44.3c30.5 32.4 87.9 110.6 73.8 120-3.7 2.4-6.3-4.4-2-5 5.1-0.8 3.1 8-1.2 5-2.5-1.7-18.8-44.9-22.9-52.2-13.2-23.4-30.1-44.4-48.2-64.2-1.1-1.2-2.4-6 0.5-3.6z"  fill="#005bbb" /><path d=""  fill="#c2e1ff" /><path d="M-397.1-87.4c50 77 89.9 158.3 81.6 163.1-4.8 2.8-6.2-6.8-0.8-5.5 4.6 1.1 1.2 8.2-2.5 5.3-2.6-2-18.9-55.1-23.1-63.9-15.4-32.5-35.7-62.4-55.4-92.4-0.8-1.3-4-11.7 0.2-6.6z"  fill="#fff500" /><path d=""  fill="#c2e1ff" /><path d="M-396.4-134.5c7 16.3 63.2 125.9 61.9 131.4-0.9 3.8-6.8 0.9-4.3-2.1 2.4-3.1 6.5 2 3 3.7-4.1 2.1-19.4-35.8-21.8-40.7-13-26.2-26.3-52.3-38.3-79-0.8-1.7-5.3-21.6-0.5-13.3z"  fill="#c2e1ff" /><path d="M-398.1 10.5c7 5.6 62.1 55.8 53.2 64.3-2.5 2.4-5.6-2.5-2.3-3.7 3.9-1.3 3.5 5.8-0.2 4.1-5.9-2.7-13.6-22.2-17.9-28-8.8-11.7-35.6-38.6-32.8-36.7z"  fill="#fff500" /><path d="M-396-179.4c29.3 82.9 74.9 165.5 90.3 252.4 1 5.9-9 3.8-5.8-1.1 3.2-5 9.2 3.4 3.4 4.8-2.1 0.5-24.8-79.3-28.4-88.7-21.1-54.6-44.1-108.2-63.8-163.4-1.3-3.7 1.9-8.8 4.3-4z"  fill="#fff500" /><path d=""  fill="#c2e1ff" /><path d="M-396.1-249.4c36.1 102.5 76.7 208.2 94.7 315.8 0.4 2.4 3.1 11.6-3 10.2-3.7-0.9-3.1-6.6 0.8-6.5 3.8 0 4.4 5.8 0.6 6.6-1.3 0.3-28.7-108-32.5-120.1-20.9-66.9-39.4-133.3-63.8-199.1-1.1-3-0.4-13.9 3.2-6.9z"  fill="#fff" /><path d="M-397.3-70.6c29.2 38.4 57.7 77.7 74.2 123.5 1.4 3.8 9.7 20.4 5.1 23.2-4.6 2.8-6.2-6.5-0.9-5.4 4.5 1 1.3 8-2.4 5.2-2.8-2.1-19.4-52.7-23.8-61.3-14.7-29-34-55.4-53.5-81.3-1.4-1.8-1.6-6.9 1.3-3.9z"  fill="#fff500" /><path d="M-396.1-256.2c36.4 105.2 77.4 212.1 95.3 322.6 0.4 2.4 3 11.7-3 10.2-3.8-0.9-3-6.6 0.8-6.5 3.9 0.1 4.4 5.8 0.6 6.5-1 0.2-29.8-114.2-33.5-126.7-20.1-67.3-39-133.2-63.4-199.2-1.1-3-0.3-13.9 3.2-6.9z"  fill="#fff500" /><path d="M-392.2-71c37.5 52.9 86.5 140.8 75.5 147.3-4 2.4-6.5-5-1.8-5.5 5.5-0.5 2.8 8.6-1.5 5.3-2.5-2-18.4-52.2-22.4-60.5-14.1-29.3-32.7-56.2-51.4-82.7-1.4-2-1.3-7.1 1.6-3.9z"  fill="#fff" /><path d=""  fill="#fff500" /><path d="M-375.4-397.7c-14.4 82.6 37.9 139.8 61.3 213.8 19.5 62.1 18 133.5 23.7 198 0.4 4.3 5.4 25.1-1.8 25.2-4.1 0.1-4.9-6-0.9-7 4.7-1.1 6.1 6.4 1.3 7-6.5 0.8-16.8-155.7-18.6-172.4-8-73.4-56.1-128.4-71.3-198.7-4.1-18.9-9.5-49.6-1.9-68.2 2-4.9 8.4-2.4 8.2 2.3z"  fill="#fff" /><path d=""  fill="#fff" /><path d="M-362 20c10.1 12.7 30.2 36.6 31.2 53.5 0.3 4.7-7.6 2.2-4.5-1.5 2.6-3.1 6.7 2.2 3.1 3.9-4.7 2.2-11.7-20.2-13.5-23.7-2.4-4.6-24.2-40.4-16.3-32.2z"  fill="#005bbb" /><path d="M-353-98.8c7.4 24 57.6 160 50.4 173.8-2.4 4.6-9-1-4.9-4.1 4.1-3.1 7.8 4.6 2.7 5.7-4.6 1-15.7-58.4-17.9-66-9-31.6-33.8-77.4-35.8-108.4-0.2-3.4 4.2-3.8 5.5-1z"  fill="#fff" /><path d="M-345.7-198.9c23.4 57.6 48.1 207.6 52.7 271.9 0.5 6.5-10.1 3.2-6.2-1.8 3.9-5.1 9.7 4.5 3.3 5.6-3.7 0.6-18.5-102.2-20.8-114.1-9.6-50.4-13.4-102.9-30.7-151.4-0.5-1.4-2.8-18.6 1.7-10.2z"  fill="#c2e1ff" /><path d="M-338.5-243c46.8 90.6 46.4 209.1 52.3 310.1 0.1 1.8 0.9 13.8-5.4 9-12.9-9.7 18.6-1.1 2.5 0.7-5.1 0.6-17.5-175.7-18.9-194.2-3.3-42.1-13.2-80.8-32.1-118.7-1-1.9-2.5-12.9 1.6-6.9z"  fill="#fff" /><path d="M-329.3-375.3c2.9 63.6 45.5 115.8 58.3 177.1 16.4 78.8 2.3 166.8-0.5 246.7-0.2 4.6 2.7 25.7-4.8 25.2-5.3-0.4-4.1-8.7 1-7.7 4.4 0.8 3.9 7.6-0.6 7.7-8 0.2-2.7-45.7-2.4-52.5 2.3-58.1 7.3-117 5.4-175-2.4-71.4-41.7-124.7-58.6-191.7-1.8-7.3-7.8-23.7-4.7-30.9 1.6-3.6 6.2-2.2 6.9 1.1z"  fill="#c2e1ff" /><path d="M-322.2-76.6c6 32.1 33.2 123.6 27.4 150.7-1.1 5.3-9.4 1.6-6.1-2.8 3.8-5.1 9.6 4.4 3.3 5.4-6.6 1.1-8.5-38.3-9.4-44.1-4.9-31.4-23.1-78.9-21.5-108.8 0.2-3.9 5.2-3.7 6.3-0.4z"  fill="#c2e1ff" /><path d="M-314.4-76.5c4.8 32.3 28.6 124 22.3 150.8-1.3 5.4-9.6 1.4-6.1-2.9 4-5.1 9.7 4.6 3.2 5.6-2.9 0.4-22.9-132.5-25.2-147.1-0.7-4.3 3.4-14.8 5.8-6.4z"  fill="#fff" /><path d="M-307.9-227c30.7 68.1 29.7 222.2 27.9 300.3-0.2 7.1-11 2.5-6.5-2.5 4.7-5.1 10 5.7 3 6.3-6 0.4-8-161.6-8.1-179-0.5-40.5-3.4-80.2-18.7-118.1-0.9-2.2-1.4-13.6 2.4-7z"  fill="#fff500" /><path d="M-299.6-179.7c14.5 55.7 10.6 116.9 13.8 174.1 0.6 11 6.4 76 2.8 81-3.4 4.8-9.9-2.4-4.9-5.3 5.1-2.9 8 6.3 2.2 6.9-6.1 0.5-8-94.5-8.7-105.8-2.8-47.7-0.1-97.3-9.9-144.2-0.7-3.4 1.8-14.7 4.7-6.7z"  fill="#c2e1ff" /><path d="M-291.5 10.7c0.7 7.8 8.6 66.5 1.3 66.5-4.9 0-4.5-7.7 0.4-7.2 4.9 0.5 3.7 8.1-1.2 7.1-5.9-1.3-3.8-19-4.1-23.3-0.9-13.3-5.3-30.2-3.3-43.3 0.6-4.2 6.1-3.5 6.9 0.2z"  fill="#005bbb" /><path d="M-283.6-111.1c0.4 18.2 5.6 188.2 0 188.1-5.1-0.2-4.4-8.2 0.7-7.5 5 0.7 3.4 8.6-1.5 7.3-7.1-1.8-3.6-43.5-3.7-50.6-0.3-16.4-5.7-135.5-2.1-139.6 2.4-2.8 6.1-0.8 6.6 2.3z"  fill="#c2e1ff" /><path d=""  fill="#c2e1ff" /><path d="M-269.5-260.8c33.6 101.7 11.9 228.9 2.9 334.3-0.6 7.4-11.9 1.9-6.7-3.1 5.4-5.1 10.1 6.8 2.7 6.8-8.3 0-1.9-37.7-1.4-43.8 3.6-48.2 7.5-96.4 10.4-144.7 3-48.3 2.4-95.9-11.6-142.6-0.9-3 0.4-14.3 3.7-6.9z"  fill="#c2e1ff" /><path d="M-260.9-158.1c1 22.2-7 235.9-13.6 235.3-6.2-0.5-3.1-10.4 2.3-7.3 5.4 3.1-1.6 10.7-5.1 5.6-4-5.7 2.7-74.5 3.3-86.5 2.6-49 5.1-97.9 5.8-146.9 0.1-4.9 6.7-4.8 7.3-0.2z"  fill="#005bbb" /><path d="M-252.9-24.6c-1 11.1-7.6 102.5-14.2 101.7-5.4-0.7-3.9-9.2 1.5-7.9 4.6 1.1 3.7 8-1 7.9-4.8-0.1 0-94.9 6.2-104.4 2.5-3.8 7.4-1.3 7.5 2.7z"  fill="#fff" /><path d=""  fill="#fff500" /><path d="M-238.1-390.1c1.2 49.2 10.6 97.6 12.8 146.7 4.5 97.9-11 196.3-24.9 292.8-0.6 4.2 0.4 19.4-7 18.1-4.8-0.9-4.3-8.2 0.7-8.3 5.7-0.2 5.5 8.8-0.2 8.4-8.8-0.6 1.5-42.8 2.6-49.5 8.3-52.2 14-104.5 18-157.2 6.3-82.4-4.5-159.9-8.9-241.8-0.2-4.3 5.2-20.5 6.9-9.2z"  fill="#fff" /><path d="M-230.3-180.9c-0.6 24.3-19 260.2-30.5 258.4-6.5-1-2.5-11.2 2.9-7.6 5.4 3.7-2.4 11.2-5.8 5.6-4.3-7 10.5-86.1 12.3-100.2 4.6-35.6 6.4-132.5 13.5-157.4 1.3-4.6 7.3-3 7.6 1.2z"  fill="#c2e1ff" /><path d="M-222.7-213.9c-0.9 74.7-8.2 150.8-20.2 224.5-2.2 13.6-1.5 56-10.7 65.4-4.6 4.8-10.7-4.4-4.5-6.8 6.2-2.4 7.9 8.5 1.2 8.1-8.3-0.5 11.3-105.5 12.9-118 4.7-37.1 7.5-150.9 13.7-174.3 1.2-4.6 7.2-3.1 7.6 1.1z"  fill="#fff500" /><path d=""  fill="#c2e1ff" /><path d="M-207.3-189.6c-6.9 70.4-10.1 140.9-24.7 210.3-2.5 11.8-3.4 47.8-11.7 55.7-5 4.7-10.9-5-4.4-7.2 6.5-2.2 7.7 9.1 0.9 8.4-8.8-1 13.6-93.4 15.5-104.9 4.5-26.6 8.9-152.8 16.9-165 2.5-3.8 7.4-1.3 7.5 2.7z"  fill="#fff500" /><path d="M-199.8-384.7c-3.4 43.3-2.5 86.9-4.9 130.3-5.9 105.1-18 208.5-36.6 311.9-0.7 3.9-0.2 16.1-7.2 14.6-5.7-1.3-3.3-10.2 2.4-8.4 4.8 1.6 3.1 8.9-1.9 8.4-9-1 1.2-33.8 2.4-39.5 8-40.9 15.5-81.3 19.1-122.8 8.5-96.6 12.6-192.9 18.3-289.6 0.3-5.6 7.9-14.7 8.4-4.9z"  fill="#c2e1ff" /><path d="M-193.3-398.2c-5.5 43.1-5.2 86.7-7.8 130-6.3 101.9-14.2 205.4-34.8 305.5-0.7 3.3-1.6 15.7-8.4 11.2-4.3-2.8-0.9-9.7 3.9-7.8 4.8 1.8 2.9 9.3-2.2 8.5-9-1.3 1.5-31.2 2.8-36.9 7.8-37.4 13-74.8 16.1-112.9 8-97.4 11.6-195.9 21.5-293 0.6-5.9 8.8-14.4 8.9-4.6z"  fill="#fff" /><path d="M-184.7-93.9c-0.7 34.9-15.3 142.7-33.2 169.9-4 6.1-12.5-2.6-6.3-6.5 7.3-4.6 10 10.2 1.5 8.5-9.6-2 8.3-47.9 10.5-55.1 7.7-25.6 14.8-51.3 17.6-78 1.3-12.5-0.9-27.9 2.3-39.9 1.2-4.6 7.2-3.1 7.6 1.1z"  fill="#c2e1ff" /><path d="M-176.7-301.3c-8.6 49.3-16.9 98.9-21.6 148.8-3.6 39.3-3.9 78.9-9.8 118-5.4 35.7-16.1 70.3-23.5 105.6-2.2 10.6-12.5 4.9-8.6-0.5 5.8-7.9 12.6 8.5 2.9 7.1-7.2-1.1 20.8-113 22.7-126.8 11.2-83.8 14.6-167.7 28.9-251.3 1.1-6.2 9.4-8.4 9-0.9z"  fill="#005bbb" /><path d="M-169.1-352.2c-12.1 63.4-22.8 127.7-29.2 192-4.2 41.5-4.4 83.4-10.5 124.6-5.1 34.6-15.3 68.2-22.6 102.4-0.6 2.7-3.4 17.3-9.5 9.6-12.3-15.6 22.4 4.5 2.9 1.6-6.5-0.9 21.8-120.3 23.4-134.8 11.1-95.5 17.8-189.9 34.7-284.8 0.7-3.9 0.5-10.8 3-14.1 3-3.8 8.1-0.7 7.8 3.5z"  fill="#fff500" /><path d="M-161.4-362c-15.8 68.1-28.5 138.2-35 207.8-3.8 40.4-3.7 81.2-10 121.4-5.2 33.5-15.2 65.9-22.6 98.9-0.7 3.3-1.9 15.7-8.7 11.2-4.3-2.9-0.8-9.8 4.1-7.9 4.8 1.9 2.8 9.4-2.3 8.5-6.6-1 22.1-117.7 23.9-131.9 4.5-36.8 4.8-74.1 8.3-111 6.4-64.9 18.3-129.9 32.3-193.6 1.4-6.3 11.1-13.7 10-3.4z"  fill="#fff500" /><path d=""  fill="#c2e1ff" /><path d="M-147.2-128.4c7.6 76.3 8.4 106.1-22.6 178-2.5 5.8-8.5 29.9-16.2 29-9.3-1.1-1.6-15.5 4.5-8.2 5.2 6.2-6.7 12.3-8.8 4.5-2.2-8.1 32.1-79 36.4-94.6 9.9-36.6 3-71-0.2-107.9-0.4-4.6 5.9-5 6.9-0.8z"  fill="#c2e1ff" /><path d=""  fill="#005bbb" /><path d="M-132-77.3c5.5 48.9-12.7 89.9-32.6 133.3-2.5 5.4-5.8 19-11.1 21.8-7.1 4-11-9-2.8-9.6 8.1-0.6 6.2 12.8-1.5 10-9-3.4 27.7-74.4 31.4-84.8 8.2-22.8 11.6-94.4 16.6-70.7z"  fill="#c2e1ff" /><path d="M-124.8-137.7c16.7 84.1 23.7 106.8-19 185.7-3.3 6-12.6 32.2-20.7 30.5-9.7-2-0.2-16.5 5.5-8.3 4.8 7-8.2 12.3-9.7 4-1.6-9.4 42-81.5 47.2-100.6 6.8-25 4.7-50-1-74.9-1.7-7.4-11.8-30.6-8.1-37.2 1.5-2.7 4.9-1.6 5.8 0.8z"  fill="#fff" /><path d="M-115.5 49.4c-4.2 5.9-17.6 32.5-25.8 29.7-7.4-2.5-2.9-13.9 4.2-10.6 8.3 3.8-0.8 15.8-6.8 8.9-5.2-6 15.1-33.6 21-36.6 5.7-2.9 10 3.7 7.4 8.6z"  fill="#005bbb" /><path d="M-107.9 19.8c-4.8 8.3-34.9 64.2-43.5 58.4-6.3-4.3 1.1-13.8 6.8-8.9 5.7 5-2.6 13.6-7.7 8.1-5.5-5.9 29.3-60.5 36.7-65.1 5.2-3.2 9.8 2.7 7.7 7.5z"  fill="#fff500" /><path d="M-101.7-184.4c3.9 46.3 36.9 84.9 37.1 131.8 0.1 38.4-22.4 69.9-44.3 99.5-4.3 5.8-21.7 37.5-30.1 30.9-5.3-4.2 0-12.7 6.1-9.7 6.1 2.9 2.7 12.4-3.8 10.8-12.8-3 7.4-24.2 10.3-28.1 20.9-28.6 46.8-57.8 52.8-93.9 7.3-43.9-20-80.8-31-121.4-5-18.4 0.1-30.9 2.9-19.9z"  fill="#fff" /><path d="M-92.8-241.3c-30.7 76.1 31.1 122.4 28.4 192.9-1.4 36.9-23.5 67.2-44.7 95.8-4.4 6-21.4 36.9-29.7 30.4-5.3-4.2 0.1-12.7 6.1-9.8 6.1 2.9 2.7 12.4-3.8 10.9-12.8-3 6.9-23.4 9.9-27.6 20.9-28.6 46.9-57.7 53.2-93.8 9.2-53-31.5-97.1-35.7-148.5-1.3-15.6-1.6-41.1 7.5-54.7 3.3-5.1 10-0.9 8.8 4.4z"  fill="#fff" /><path d="M-85.1-257.6c-47 85.3 24.9 131.8 20.6 210.9-2 36.8-24.4 66.9-45.6 95.4-4.3 5.8-20.5 35.8-28.8 29.3-5.3-4.2 0-12.7 6.1-9.8 6.1 2.9 2.7 12.4-3.9 10.9-12.5-3 6.2-22.5 9.1-26.5 20.3-27.8 45.5-55.9 53.3-90.4 12.9-57.5-34.4-105.4-35.2-161.9-0.3-18.6 2.8-48.9 15.6-63.8 4.3-5 10.8 0.4 8.8 5.9z"  fill="#fff500" /><path d=""  fill="#005bbb" /><path d="M-70.7-49.7c-0.9 47.1-36.4 90.3-63.7 126.2-2 2.6-5.5 3.4-8.2 1.4-6.2-4.7 1.7-14.1 7.4-8.7 4.8 4.6-1.2 12.5-6.9 9-10-6 21-40.9 25.6-47.3 28.6-40.4 33.7-75.5 38.4-83 2.3-3.7 7.2-1.4 7.4 2.4z"  fill="#c2e1ff" /><path d="M-63.3-208c-2.1 40.3 24.4 72.1 39.5 107.3 23.2 54.3 3.1 101.4-35.8 141.6-7 7.3-33 40.6-42.9 38.7-11.6-2.1-0.7-19.5 6.2-9.9 6.9 9.5-12.9 14.6-11.4 2.9 1.7-13.2 75.1-70.1 84.7-110.5 12.3-52.2-26.5-91.1-41.9-137.2-10-29.8-0.4-48.9 1.6-32.9z"  fill="#005bbb" /><path d="M-54.8-8.6c-5.4 12-62 95.8-72.4 86.4-6.1-5.4 3-14.5 8.4-8.4 5.5 6-4.5 14.1-9.3 7.5-5.9-8.1 20.3-31.8 25.5-38 10.3-12.2 29.6-46.8 40-54.2 4.8-3.4 9.5 1.9 7.8 6.7z"  fill="#fff" /><path d="M-47.6-38.2c-6.6 47.8-70.9 124.4-80.5 115.9-6.1-5.4 2.9-14.5 8.4-8.5 4.7 5.1-2.2 12.9-7.9 8.9-9.8-6.9 21.9-37 26.9-43 24.9-29.9 44.8-76.1 45.4-76.8 3-3.8 8-0.6 7.7 3.5z"  fill="#fff500" /><path d="M-41.8-396.9c-27.6 82.4-96.8 127.3-97.8 222.8-0.4 43 15.7 84.6 13.5 127.6-0.6 10.5-10.5 75.9-25.2 73.6-8.2-1.3-3.1-14.1 3.7-9.5 6.9 4.6-3.1 14.1-7.4 7-2.7-4.4 18.9-53.3 20.8-71.7 6.5-66.3-24.4-122.4-4.7-191.6 15.3-53.7 54.4-92.7 79-141.5 2.6-5.1 6.1-21.6 12.2-23.2 4.1-1.1 6.7 2.8 5.9 6.5z"  fill="#fff" /><path d="M-34.7-153c39.7 81.9 59.2 128.4-15.2 199.5-6.9 6.6-31 35.6-40.7 33.4-11.8-2.8 0.3-20 6.9-9.9 6.6 10.1-13.9 14.3-11.8 2.4 1.4-7.6 74.5-66.4 86-103 13.3-42.1-7.6-79.3-26.7-115.5-1.1-2.2-2.4-12.9 1.5-6.9z"  fill="#fff" /><path d="M-24.9 66.1c-4.6 3.8-22.5 23.1-26.5 9.5-2.2-7.5 8.6-12 12.4-5.2 4.4 8.1-8.7 14.3-12.1 5.9-7.4-17.9 43.8-28.6 26.2-10.2z"  fill="#fff500" /><path d="M-17-29.7c-8 35.2-34.7 61.8-59.6 86.2-5 4.9-22.9 29.4-30.5 21.1-5-5.4 2.3-13.7 8.3-9.4 7 4.9-1.3 15.6-7.8 9.9-9.2-8 20-29.6 25.4-34.9 24.6-24.3 38.8-47.2 55.6-76.5 2.8-4.9 9.3-1.4 8.6 3.6z"  fill="#fff" /><path d="M-9.4 29.2c-7 8-55.6 60.2-64.1 48.4-5.4-7.3 6.7-15.2 11.2-7.3 4.5 7.9-8.3 14.3-11.9 6-3-6.9 49.6-54 58.2-57.1 6.4-2.3 10.1 5.2 6.6 10z"  fill="#c2e1ff" /><path d="M-1.9-373.9c-13.6 67-88.2 103.9-87.3 176.1 0.6 48.9 37.9 86.2 43.2 133.8 3.4 30.1-7.7 57.8-24.9 82-3.9 5.4-18 30.8-26.3 23.1-5.2-4.8 1.1-13.2 7.2-9.7 6.1 3.6 1.8 13.2-4.9 11-13-4.2 11.1-26.7 14.5-31.3 14.3-19.1 25.8-40.5 27.2-64.8 3.4-60.5-51.5-105.8-42.4-168.2 7.1-49 44.9-79.8 69.6-119.7 6.3-10.1 8.9-28.2 16.3-36.4 3.4-3.8 8.4-0.2 7.8 4.1z"  fill="#005bbb" /><path d="M5.7 54.6c-5.4 5.4-29.1 33.5-36.7 23-5.4-7.4 6.7-15.2 11.3-7.3 4.5 7.9-8.3 14.4-12 6-3.4-7.9 29.9-37.1 37-31.3 3.2 2.6 2.8 6.7 0.4 9.6z"  fill="#fff500" /><path d=""  fill="#005bbb" /><path d="M21.2-242.2c-29 66.8 27.4 119.7 30.2 185.1 1.7 41.1-17.3 77.2-45.3 106.1-6.1 6.3-31.9 36.6-41.2 29.9-6.3-4.6-0.5-14.7 6.6-11.6 7.2 3.1 3.7 14.3-3.9 12.8-18.4-3.6 20.9-31.8 24.7-35.4 22.9-21.6 42.7-47.4 49.2-78.9 12.3-59.9-30.9-104.6-36.8-161.3-1.6-14.8-1.3-38.7 7.6-51.4 3.5-5 10.2-0.6 8.9 4.7z"  fill="#005bbb" /><path d="M28.8-256.7c-43.6 85.4 28.5 131.8 23 214-2.6 38.3-23.4 70.7-50.1 97-5.9 5.8-27.1 30.8-35.8 24.6-6.3-4.6-0.6-14.7 6.6-11.6 7.2 3.1 3.7 14.3-4 12.8-18.4-3.6 17.9-29.2 21.8-32.8 23.1-21.3 43.5-46.7 51-77.9 15.1-63.6-33.8-110.9-36.4-171.4-0.7-17.9 3.1-46 15.1-60.4 4.1-5 10.7 0.3 8.8 5.7z"  fill="#fff500" /><path d="M35.7-46.6c-2 48.3-35.4 84.5-70.7 113.6-5 4.2-15.7 17.2-22.8 12-8.6-6.3 4.7-18.1 9.9-8.7 5.2 9.4-11.9 14.4-12.7 3.7-0.8-11.4 44.9-41.2 53.7-50.8 31.7-34.6 24.5-56.1 35.1-72.4 2.4-3.8 7.3-1.3 7.5 2.6z"  fill="#c2e1ff" /><path d="M43.9 0.3c-5 11.7-62.8 94.3-75.3 77.1-4.6-6.3 4.1-14.1 9.9-9 6.8 6.1-3.3 16.3-9.4 9.5-8-8.9 25.1-30.5 30.9-36.3 7.3-7.2 33.6-46.9 37.2-48.4 4.7-2 8.2 2.9 6.7 7.1z"  fill="#fff500" /><path d="M50.2-182.5c9.7 91.8 64.5 136.8-1.9 231.3-4.7 6.8-19.6 32.1-28.6 30.7-11.4-1.6-1.4-19.1 5.8-10 7.2 9.1-12.1 14.8-11.1 3.3 0-0.1 50.4-65.3 56.4-101.8 10.1-62-30.8-117.1-27.3-153.3 0.4-4.1 5.7-3.7 6.7-0.2z"  fill="#fff500" /><path d="M57.3-381.7c22.8 81-33.6 112.5-35.1 180.9-2 88.2 83.7 136.2 5.9 236.8-4 5.1-13.9 22.2-21.8 17.9-6.5-3.5-2.3-13.6 4.7-11.6 7 2 5.2 12.8-2.1 12.3-17.2-1 14.7-32.1 17.8-36.4 16.6-23.3 25.9-50.6 25.1-79.3-1.5-51.6-38.4-95.1-37.1-146.7 1.3-52.8 44-93.2 40.7-147.5-0.5-8.5-3.9-17.4-3.9-25.7 0-3.6 4.7-3.7 5.8-0.7z"  fill="#005bbb" /><path d="M66.6-285.4c-9.5 30.3-25.9 58.4-25.3 91 1.7 92.8 77.6 139.4-3.1 243.9-5.2 6.7-21.7 32.3-31.2 30.4-11.7-2.3-0.4-19.7 6.4-10 6.9 9.7-13.2 14.6-11.5 2.8 0.3-1.8 54.1-61.4 61.8-100 12.8-63.7-30.8-115.5-29.9-177.2 0.4-25.9 10-63 24.1-85.1 3.2-5 9.7-1 8.7 4.2z"  fill="#005bbb" /><path d="M74.4 55.6c-2.9 5.5-10.1 25.5-18.2 23.2-7.3-2.1-3.4-13.4 3.7-10.6 8.2 3.3-0.1 15.5-6.2 9-10.8-11.5 29.5-43.5 20.7-21.6z"  fill="#005bbb" /><path d="M121.5-399.7c69.1 99.4 17.7 167.5 29.4 271.2 3.6 32 26 84.5 27.3 101.1 0.4 4.6-7.3 2.2-4.4-1.4 2.9-3.6 6.8 3.4 2.3 4-5 0.7-10.3-20.2-11.7-23.9-39.5-105.9-11.5-138.3-11.4-237.2 0-38.3-11-74.8-31.6-107.1-0.6-1-4.2-11.6 0.1-6.7z"  fill="#fff500" /><path d="M89.4 23.8c-2.8 8.1-22.9 61.2-33.4 54-6.3-4.2 0.9-13.7 6.7-8.8 5.8 4.9-2.4 13.6-7.6 8-5.5-5.8 7.1-19.9 9.9-25 4.9-8.9 9.2-27.2 16.5-33.7 4.1-3.6 9 0.9 7.9 5.5z"  fill="#fff" /><path d=""  fill="#005bbb" /><path d=""  fill="#fff500" /><path d="M109.6-376c34.7 65.9 13.2 125.7 11.9 195.1-0.6 31.3 5.4 62.3 11.7 92.8 7.5 36.5 34.6 129.3 20.6 162.8-2.9 6.9-12.2-2.2-5.4-5.2 5.9-2.6 8 7.8 1.6 7.7-5.7-0.1-3.8-56.6-4.7-64.8-7.1-65.9-31.9-130.1-31.4-196.8 0.2-29.5 6.9-58.1 9.5-87.4 2.4-26.5 0.3-53.2-8.1-78.6-5.9-17.8-10-32.3-5.7-25.6z"  fill="#fff500" /><path d=""  fill="#fff" /><path d="M126.9-260.5c-4.4 39-11.9 75.8-7 115.3 9 72.7 36.4 144.7 26.4 219-1 7.7-12.5 1.3-6.8-3.6 5.9-5 10.2 7.7 2.4 7.3-3.4-0.2-3.2-78.6-4.5-89-7.9-61.2-29.8-121.8-27-184 0.7-16.3-0.5-54.4 8.9-67.9 2.6-3.8 7.6-1.1 7.6 2.9z"  fill="#fff" /><path d=""  fill="#c2e1ff" /><path d="M172.5-399.5c51.6 102.7-7 178.5 5.4 278.1 3.4 27.6 12.8 54.3 27.3 78 2.2 3.6 15.7 19 14.7 22.2-0.8 2.4-4.4 0.3-2.7-1.5 2-2.2 4.3 2.5 1.3 2.6-5.2 0.4-17.6-22.7-20.3-27-54.3-88.8-12.4-162.1-10.4-254.6 0.9-44-12.1-59-19.7-96.4-0.6-2.8 3.1-3.6 4.4-1.4z"  fill="#c2e1ff" /><path d="M148.5-43.7c4.1 17.3 26.2 108.7 17.6 119.5-3.8 4.8-10.3-3.1-4.8-5.8 5.5-2.8 8 7.1 1.9 7.3-6.5 0.2-5.3-41.7-6.1-48.3-3-23.1-14.8-49.1-14.6-72 0-3.7 4.9-3.8 6-0.7z"  fill="#c2e1ff" /><path d="M156-336.7c26 89.4-23.5 164.8 11.5 272.2 10 30.6 61.5 112 56.4 138.5-1 5.3-9.3 1.7-6.1-2.7 3.7-5.1 9.6 4.2 3.3 5.4-4.8 0.9-11.6-35.4-13.8-41.1-23.1-56.7-53.8-105.5-61.1-167.9-6.1-52.6 10-102.5 9.9-154.8 0-4.7-8-69.8-0.1-49.6z"  fill="#fff500" /><path d=""  fill="#fff" /><path d=""  fill="#fff" /><path d="M212.1-398.9c23.2 93.8-23.9 169.6-22 259.4 0.5 24.4 6.1 48.5 17.1 70.3 1.6 3.1 9.2 12.6 7.9 15.6-1.2 2.8-5.2-0.1-3-2.1 2.6-2.4 4.8 3.4 1.2 3.3-4.9-0.1-12.8-19.6-14.7-23.8-36.5-76.9 2.6-154.8 11-233 3.3-30.6-4.3-59.3-3.6-89.1 0.1-3.7 4.9-3.7 6.1-0.6z"  fill="#fff" /><path d=""  fill="#005bbb" /><path d="M193.7-395.9c38.7 108.8-33.4 204.7-2.1 305.2 12.4 39.8 39.1 69 68.2 97.5 2.8 2.8 18.7 15.4 17.8 19.2-0.1 0.5-0.7 1-1.3 1-5.9 0.8-34.5-34.4-39.8-39.8-102.3-104.2-41.3-180.7-37.3-300.4 0.6-18.8-0.6-37.8-4.3-56.3-1-5-8.9-23.3-5.9-27.2 1.4-1.9 3.9-1.1 4.7 0.8z"  fill="#fff500" /><path d="M203.2-230c-14.8 63.9-23.6 127.2 17.3 184 19.7 27.3 102.1 87.1 98.1 120.1-0.7 5.9-9.7 0.9-5.2-2.9 3.9-3.2 7.7 4.2 2.8 5.6-2.7 0.7-16.9-35.9-20.7-41.2-43.7-59.7-102.6-80.3-112.4-164.1-4-34.4 2.2-70.3 11.2-103.5 1.6-5.8 9.5-3.6 8.9 2z"  fill="#fff" /><path d="M207.8-34c15.4 23.5 76.3 81.1 73.1 108-0.6 5-8.5 2.2-5.8-2.1 2.6-4.3 8.6 1.5 4.4 4.3-3.1 2-17.1-35-20.7-40.5-14.7-22.4-44.7-43.1-54.2-68-0.8-2.1 1.9-3.2 3.2-1.7z"  fill="#fff500" /><path d="M218.2-289.3c-11.9 77.3-48.4 155.4-4 229.5 19.6 32.8 113 99.2 109 133.3-0.6 5-8.5 2.3-5.8-2.1 3.1-5 9.2 3.2 3.5 4.8-2.5 0.7-17.3-36.4-21.2-41.7-47.8-63.9-109.5-78.4-115.3-172.9-1.1-18 18-147.8 26.8-155 3.3-2.7 7.1 0.4 7 4.1z"  fill="#fff" /><path d="M227.9-399.2c16 102.2-50.4 204.2-28.4 294.8 8.9 36.7 31.6 66 59.6 90.6 2.6 2.3 21.8 19.3 20.4 19.5-3.9 0.6 3.9-1.1 0.1 0-5.6 1.5-32.3-27.1-37-31.6-103.2-98.5-26.4-207.3-19.9-323.7 0.9-16.2-3.2-33.8-1.4-49.5 0.5-4.1 5.7-3.6 6.6-0.1z"  fill="#005bbb" /><path d="M255.4-398.2c2.5 87.7-49.5 166.1-51.7 252.6-0.6 24.3 4.4 48.6 15.7 70.3 1.4 2.6 15 22 10.5 21.7-6.7-0.4 6.9-0.3 0.1 0-3.6 0.2-9-11-10.8-13.8-51.2-80.1-1.9-174.1 17.8-256.2 5.9-24.7 5-51.4 10.9-75.5 1.1-4.5 6.9-3.2 7.5 0.9z"  fill="#fff" /><path d="M241.1-316c-16.8 78.3-64.3 167.5-21.3 245.1 21.3 38.5 128.1 105.2 122.1 144.9-0.9 6-10.1 0.7-5.3-3.1 4.1-3.2 7.8 4.6 2.8 5.7-1.6 0.4-18.2-40.5-22.6-46.1-48.7-63.2-117.8-73.9-122.2-171-1-22.2 27.8-166.5 38.7-179.4 3.2-3.8 8.3-0.4 7.8 3.9z"  fill="#c2e1ff" /><path d="M248.8-311.7c-21.2 75.4-67.7 164.5-24.1 240.3 18.6 32.4 138.5 118.7 123.4 146.6-2.5 4.7-9.2-1.1-4.9-4.2 4.2-3.2 7.9 4.8 2.7 5.9-1.6 0.3-18.3-42.4-22.8-48.2-49.2-63.9-122-73.3-124.2-173-0.4-20.7 31.5-165.4 42.9-172.7 3.9-2.5 7.7 1.3 7 5.3z"  fill="#c2e1ff" /><path d="M253.1-63c32.7 41.1 90 60 109.9 111.4 1.9 4.9 9.8 23.7 4.9 27.8-5 4.2-8.5-6.6-2-6.2 6.5 0.4 1.7 10.7-2.8 5.8-3-3.3-11.3-43.7-22.3-57.5-23.8-30.3-60.4-47-86.4-75.2-0.8-0.8-5.5-9.8-1.3-6.1z"  fill="#c2e1ff" /><path d="M260.4-50.9c24.8 25.8 57.9 42 81.4 69.2 6.4 7.4 35 48.7 23.8 58-5 4.2-8.5-6.5-2-6.1 6.5 0.4 1.7 10.6-2.8 5.9-2.5-2.7-11.5-42.8-21.5-55.8-21.4-27.7-53.7-44.1-79-67.8-1.1-1.1-2.7-5.4 0.1-3.4z"  fill="#005bbb" /><path d="M267.9-52.9c24.2 24.7 56.1 40.8 78.8 67 6.8 7.8 37 52.1 24.9 62-4.4 3.6-8.6-4.8-3.1-6.2 6.4-1.6 4.9 9.7-0.9 6.6-4.4-2.5-3.5-17.4-4.6-22.1-3.1-12.9-8.9-25-16.7-35.6-20.1-27.5-51.2-43.6-76-66.2-0.3-0.3-6.2-8.3-2.4-5.5z"  fill="#c2e1ff" /><path d="M279.2-356.6c-23.2 82.4-92 180.3-54.8 267.8 21.6 50.7 72.1 70.6 107.3 109.1 1.5 1.7 16 16.4 9.9 17.4-9.6 1.7 8.8-5.9 0.8-0.3-2.3 1.6-19-22-22-25-50.2-49.9-113.6-78-113.8-159.4-0.2-72.4 39.7-145.5 63.6-212.4 2.1-5.9 10.1-3.2 9 2.8z"  fill="#fff" /><path d="M286.9-192.3c-49.3 123.4 78.4 137.5 104.4 232.2 1.6 5.7 9.7 34.8 1.9 36.9-4.2 1.2-6.7-4.9-2.8-7 4.5-2.5 8 4.9 3.2 6.9-8.1 3.3-5.5-15.8-5.7-19.1-1.3-14.2-4.8-28.3-11-41.2-24.4-52-86.3-74.8-103.7-131.4-6.9-22.4-8.9-61.1 5-81.8 3.4-5 10-0.8 8.7 4.5z"  fill="#fff" /><path d="M294.6-298.1c-35.7 59.2-83 139.7-48.4 209.4 27.8 56.2 99 73.8 122.3 132.6 2.2 5.6 11.3 28.1 5.7 32.6-4.5 3.5-8.6-4.9-3.1-6.3 4.7-1.2 6.1 6.4 1.3 7-6.8 0.9-5.1-14.9-5.7-18.7-2.8-15.2-9.2-29.5-18.4-42-44.7-60.7-123.4-73.9-121.5-166.2 1.1-53.7 29.2-110.1 58.3-154.2 4-6.1 12.4-0.7 9.5 5.8z"  fill="#fff" /><path d="M298.1-46.7c35.3 30.8 75.6 55.5 84.8 105.2 0.8 4.1 4.4 15.1 0.4 18.1-4.7 3.5-8.7-5.4-3-6.6 6.7-1.4 4.7 10.3-1.1 6.8-4.3-2.7-2.5-15.9-3.3-20.5-2.2-14.2-7.3-27.8-14.8-39.9-15.5-25.1-40.2-41.8-62.5-60.2-0.7-0.5-3.2-4.7-0.5-2.9z"  fill="#c2e1ff" /><path d="M307.9 67.3c0.8 2.3 3.5 9.9-2 9-3.6-0.5-3.4-6 0.2-6.2 4.3-0.3 4.3 6.4 0.1 6.3-9.1-0.4-1.6-17.5 1.7-9.1z"  fill="#fff" /><path d="M317.2-178.7c-35.2 107.8 94.9 142.4 90.4 252.1-0.3 7.3-11.9 2.2-6.7-2.9 4.4-4.4 10 4.4 4.1 6.5-8.5 3-4.9-16.2-5-19.5-0.5-15.4-3-30.8-8.3-45.4-17.9-49.8-69.4-78.3-84.3-129.3-5.2-17.8-8.6-48.2 1.1-65.2 2.9-5 9.5-1.4 8.7 3.7z"  fill="#fff500" /><path d="M325.6-397.9c-7.2 91.2-101.9 163.2-96.2 264.9 2.1 36.7 21.3 67.4 48.5 91.2 7.7 6.7 33.2 21.1 23.1 20.1-3.7-0.4 3.8-1.2 0.3 0-2.3 0.8-12-8.6-14-10.2-43.8-33.8-71.6-78-64.3-135.1 9.6-74 58.1-131.3 85-198.4 3.9-9.8 4.4-27.2 10.1-35.4 2.6-3.8 7.6-1.1 7.5 2.9z"  fill="#c2e1ff" /><path d="M329.1-75c17.3 23.3 39.8 42.1 55.3 66.8 7.2 11.6 30.7 78.2 19.9 85-4.5 2.9-8.6-4.5-3.9-6.8 4.8-2.3 8.1 5.4 3.1 7.2-8.5 3.1-5.1-20-5.3-23.4-1.1-17.6-5.1-35-12.7-51.1-13.6-28.8-37.6-49.7-57.5-73.9-1.5-1.8-1.7-6.7 1.1-3.8z"  fill="#005bbb" /><path d="M340.2-248.6c-31.8 43.9-60.7 100.7-33.4 154 27.7 54.1 85.7 80.1 94.6 145.5 0.7 4.9 5.2 24.5-1.5 26.2-6 1.5-6.3-8.7-0.2-7.6 7.1 1.3 0.4 11.9-3.9 6.1-1.3-1.8-7.2-56.7-14.6-71.3-28.6-56.4-96.3-85.2-92.9-156.7 1.8-36.9 20.3-74 42.4-103 4.7-6.1 13 0.3 9.5 6.8z"  fill="#c2e1ff" /><path d="M343.8-24.8c15.7 14.2 64.4 79.1 48.6 100.5-3 4.1-9.3-1-5.8-4.8 4.1-4.4 9.8 3.7 4.2 6-7.8 3.3-5.5-14.7-5.7-17.7-1.2-13.1-4.4-26.1-9.9-38.1-7.8-17.3-19.8-31-32.9-44.3-1-1.1 0.4-2.5 1.5-1.6z"  fill="#fff" /><path d="M352.9 45.1c2.3 4.7 13.4 28.4 6.4 31.3-4.3 1.8-6.8-5.1-2.3-6.4 4.5-1.3 6.2 5.8 1.6 6.6-6.3 1.1-14.4-47-5.7-31.5z"  fill="#005bbb" /><path d="M362.9-363c-32.2 81.4-132.5 151.9-106.9 250.2 14.7 56.3 70.8 77.3 104.5 119.3 0.4 0.6 10.8 15.4 4.2 12.1-8.6-4.4 10.5 0.5 0.8 0.2-4.2-0.1-23-28.2-27.8-32.6-46.6-43.2-100.4-76.3-91.7-149 9.3-78.1 70.1-129.6 103.8-196.3 2.5-5 17.2-17.6 13.1-3.9z"  fill="#fff" /><path d="M367.1-15c16.9 20.1 28 44 31.3 70.1 0.6 4.5 4.6 20.4-1.7 22.1-5.9 1.6-6.4-8.5-0.3-7.5 6 1 2.2 10.4-2.9 7-5.1-3.5-3.4-33.2-5-40.4-4.2-18.1-34.5-64.4-21.4-51.3z"  fill="#fff500" /><path d="M378.1-305.6c-38.8 55.4-106.3 120.8-82.1 195.6 20.4 63.3 92.4 89.2 103.5 159.1 0.8 4.9 5.8 26.5-1 28.3-5.1 1.3-6.7-6.8-1.5-7.6 5.2-0.8 6 7.5 0.7 7.7-7.3 0.3-4.1-19.9-4.5-24.2-1.9-21-8.6-41.2-20.1-58.9-35.4-54.8-100-85-87.7-160.9 6.5-40.3 53.2-120.4 84.2-146.9 5.4-4.6 11.5 2.3 8.5 7.8z"  fill="#c2e1ff" /><path d="M385.2-161.6c-10.1 71.1 44.7 129.1 46.4 199.7 0.2 6.4 2.8 38.4-4.9 39.7-6.5 1.1-5.9-9.8 0.4-8.1 6.4 1.7 1.3 11.4-3.8 7.2-6.3-5.3 0.3-57.4-1.1-68.5-6.2-45.5-34.2-82.9-43.3-127.3-2.5-12.4-6.3-32.2-1.8-44.5 1.7-4.8 8-2.7 8.1 1.8z"  fill="#fff" /><path d="M399.2-398.1c-7.6 94-112.2 147.5-125.5 241.4-4.3 30.3 4.3 59.2 23.2 83.1 12.4 15.7 30.5 30.8 26.6 30.1-4.1-0.8 4.3 0.3 0.1 0-10-0.8-29.7-28.4-35.5-36.1-75.5-100.9 46.4-194.8 88.6-277.6 6.4-12.5 7.4-33.3 14.9-43.9 2.7-3.8 7.6-1 7.6 3z"  fill="#fff500" /><path d="M400.8-208.4c-9.4 26.5-15.7 54.8-12.5 83 6.6 59.4 45.1 106.9 44.8 168.9 0 5.8 2.3 32.9-5.1 34.1-6.5 1.1-5.9-9.9 0.4-8.1 6.4 1.8 1.2 11.4-3.8 7.2-6.3-5.3 0.8-52.9-0.1-63.2-5.3-53.6-41-98.2-44.3-151.8-1.3-21.3 0.1-55.7 11.9-74.3 3.2-5 9.8-1 8.7 4.2z"  fill="#fff" /><path d="M407.2-397.6c-8.3 99.8-127.2 153.9-127.2 257.3 0 32.2 16 59.4 38 81.8 7.7 7.8 39.7 29 40.7 39.4 0.1 0.7-0.9 1.6-1.6 1.5-4.8-0.8-14.7-14.8-18.6-18.5-39-36.7-74-73.9-64.2-131.8 12.6-74.3 75.5-122.1 109-185.8 7-13.4 8.3-35.5 16.4-46.9 2.7-3.8 7.6-1 7.5 3z"  fill="#fff" /><path d="M431.1-397.6c-7 92-101.7 146.1-119.8 234-5.4 26.3-1.3 52.6 12.3 75.8 4 6.9 21.3 22.7 21.8 29.7 0.1 0.8-1 1.7-1.7 1.5-10.2-2.1-25.9-32.3-30.4-41-49.6-96.8 60.2-179.2 96.6-258.4 6.5-14.2 7.8-29.4 13.2-43.6 1.8-4.7 8-2.5 8 2z"  fill="#c2e1ff" /><path d="M446.4-398.2c-5.6 90.8-93 149-109.6 235.6-4.6 24.1-1.5 48.2 9.3 70.2 2.2 4.5 17.6 23.9 16.2 27.8-1.1 3.1-5.4-0.8-2.4-2.2 3-1.5 3.4 4.3 0.2 3.2-8.3-2.6-19.1-28.4-22.5-35.9-39.7-86.7 42.4-164.3 79.1-235.5 8.1-15.6 17.4-58.6 22.2-65.9 2.5-3.8 7.4-1.2 7.5 2.7z"  fill="#fff500" /><path d="M431-220c-7.1 28.6-11.7 58.3-9.7 87.9 4 59.4 30.1 112.3 26.5 173.2-0.4 6.3 0.5 35.6-6.8 36.6-6.7 0.9-5.8-10.2 0.6-8.2 6.4 2 1 11.7-4 7.2-6.6-5.9 3.4-58.4 3.1-69.5-1.5-53.5-26.4-102.6-27.4-155.9-0.4-21.4-0.8-54.9 9.2-74.4 2.5-5 9-1.8 8.5 3.1z"  fill="#fff500" /><path d="M464.5-397.8c-4 86.8-76.4 153.2-88.1 238.1-3.9 28.1 1.8 54.7 13.4 80.3 1 2.2 13.1 22.5 5.8 20.6-10.8-2.7 11.9-2.1 1 0-4.5 0.9-8.1-12.5-9.6-15.6-45.7-94.1 11.9-170.6 49.3-255.7 10.1-22.8 12.6-46.3 20.4-69.3 1.6-4.7 7.7-2.7 7.8 1.6z"  fill="#005bbb" /><path d="M446.3-368.6c-22 82.6-115.8 155.3-100.6 246 9.1 54.1 57.9 90.9 68.9 145.3 0.8 4.2 7.2 25.4-0.6 25.4-5.7 0.1-3.8-9.2 1.4-6.9 5.2 2.4-0.5 10-4.2 5.7-2.9-3.3-8.7-47.9-12.9-58.1-23.4-56.6-72.6-94.8-58.8-162 13-63.5 61.3-113.5 87.5-171.5 2.6-5.7 7.4-29.5 14.4-30 3.5-0.3 5.4 2.9 4.9 6.1z"  fill="#005bbb" /><path d="M475.3-398.4c-2.1 86.7-66.3 160.1-70.6 247.4-1.4 29.5 6.2 56.9 15.8 84.4 1 2.9 11.2 23.9 3.8 23.4-3.8-0.3-3-6.3 0.7-5.6 3.8 0.7 2.3 6.5-1.3 5.5-4.3-1.3-6-14.5-7.2-18.3-43.1-125.8 6.2-178.2 42-293.2 3.9-12.6 3-35.3 9.4-45.9 2.3-3.7 7.1-1.5 7.4 2.3z"  fill="#c2e1ff" /><path d="M460.9-212.8c-4.9 80 19.5 157.8 12.1 237.7-1 10.7 0.3 43.9-7.3 51.4-4.8 4.8-10.8-4.7-4.4-7.1 6.4-2.3 7.8 8.8 1 8.3-5-0.4 5.2-91.7 5-103.4-0.6-48-26.3-147.6-14.1-188.2 1.4-4.7 7.5-3 7.7 1.3z"  fill="#005bbb" /><path d="M468.4-398.2c-3.6 95.7-91.7 171.9-82.9 269.8 4.8 52.6 41.7 95.7 45.6 148.9 0.6 7.7-11.8 1.5-5.5-2.6 5.5-3.6 7.7 7.6 1.3 6.4-4.5-0.8-11.3-49-13.8-56.2-14.4-41.4-37.9-77.8-35.5-123.4 3.9-73 52-135 74.1-202.8 3.8-11.7 3.2-32.7 9.3-42.5 2.4-3.8 7.2-1.4 7.4 2.4z"  fill="#005bbb" /><path d="M475.7-160.3c5.7 72.2 14.6 138.9 5.1 211.4-0.8 5.8-0.1 20.9-4.2 25-4.7 4.8-10.8-4.6-4.4-6.9 6.3-2.3 7.8 8.7 1.1 8.1-5.9-0.4 6-92.4 6.3-104.1 0.4-16.2-10.8-134.5-10.3-135.3 2.1-2.8 5.7-1.1 6.4 1.8z"  fill="#fff500" /><path d="M483.8-398.3c-0.8 91.8-63.9 167-52 274.8 1.6 14.6 33.8 164.2 16.8 162.1-6.3-0.8-2.8-10.8 2.6-7.4 5.4 3.4-2 11-5.5 5.6-2.4-3.7-0.9-59.4-2.5-70.1-7.6-52.6-24.3-100.1-18.8-154.3 6.6-65 36.1-122.7 48.4-186 1-5.3 0.1-26.7 5.9-28.6 2.8-0.9 4.9 1.3 5.1 3.9z"  fill="#c2e1ff" /><path d="M491.2-28.9c-0.1 11.5-5.3 108.4-14.7 106.8-5.6-1-3.6-9.8 1.9-8.2 4.7 1.4 3.4 8.5-1.5 8.2-8.6-0.6-0.4-32.5 0.4-38 1.8-14.2 1.3-61.2 6.7-70.8 2.1-3.7 6.9-1.7 7.2 2z"  fill="#fff" /><path d="M505.9-398.2c2.1 45-13.7 88.3-17.9 132.8-4.7 50.2 3.3 100.8 8.6 150.6 1.9 18.3 10 115.9 0.3 126.3-4.5 4.8-10.7-4.2-4.5-6.7 6.1-2.5 7.9 8.3 1.3 8-3.4-0.2-1.2-94.9-2.1-106.8-4.3-53.8-14.6-107.8-12.3-161.9 1.9-43 15.7-84 18.6-126.7 0.3-4.4-1.6-14.4 1.4-17.9 2.4-2.8 6.1-0.8 6.6 2.3z"  fill="#c2e1ff" /><path d="M540.5-398.6c6.9 45.5-0.3 91.6 0.9 137.3 1.8 71.1 10 142.3 1.2 213.3-0.9 7.6-12.3 1.5-6.8-3.3 5.6-5 10.2 7.3 2.6 7.1-4.4-0.1 0.5-115.6 0.1-129.2-1-34.9-4.7-69.7-4.9-104.6-0.2-35.9 4.2-71.8 1.5-107.7-0.1-1.9 2.4-25.2 5.4-12.9z"  fill="#c2e1ff" /><path d=""  fill="#fff500" /><path d="M521.8-311.6c-5.8 58.4 4.2 115.1 7.7 173.2 2.9 48.8 0.3 96.9-4 145.4-0.7 8.4-2 70.1-7.3 69.9-6.9-0.2-2.1-11.3 2.8-6.3 4.1 4.2-4.2 9.4-6.2 3.9-8.8-24.6 7.3-116.7 8.3-148.7 2.3-76.7-16-152.8-10.2-229.2 0.4-5 8.6-20.3 8.9-8.2z"  fill="#fff500" /><path d="M529.3 31.2c-0.4 6.2 2.2 46-4.2 45.9-4.9 0-4.5-7.8 0.5-7.2 4.9 0.6 3.6 8.2-1.2 7.1-6.3-1.4-5.5-42.9-2.5-48 2.2-3.8 7.1-1.6 7.4 2.2z"  fill="#c2e1ff" /><path d="M536.8 30.1c-0.3 6.3 3.1 46.4-2.7 46.6-4.8 0.2-4.6-7.3 0.2-7 4.7 0.4 3.8 7.8-0.9 6.9-6.3-1.2-6.8-43.3-3.9-48.5 2.1-3.8 7-1.7 7.3 2z"  fill="#005bbb" /><path d="M544.5-88.8c-0.7 15.9-9.6 165.6-11.7 165.6-4.8 0.1-4.6-7.4 0.2-7 4.8 0.4 3.8 7.9-0.9 7-6.7-1.3-4.3-27-4.3-32.3-0.3-33.9 3.9-67.6 6.6-101.3 0.7-8.7-1.7-26.7 2.7-34.2 2.2-3.8 7.1-1.6 7.4 2.2z"  fill="#005bbb" /><path d="M551.8-357.1c3.8 123.9-2.6 246.4-10.1 369.9-0.5 7.7 1.8 63.4-2.7 63.7-5.4 0.3-4-8.6 1.1-6.6 5.1 2 0 9.5-3.8 5.6-10.9-11.5 5.3-155.6 6.8-180.9 4.7-79.6 0.6-159.6 1.3-239.3 0-2.9 5.6-25.6 7.4-12.4z"  fill="#fff" /><path d="M559.5-196.9c-0.7 74.1-12.5 147.2-14.9 221-0.3 8.2 5.7 47.7 0.8 52.1-4 3.5-8.3-4.2-3.2-5.8 5.1-1.5 5.8 7.3 0.5 6.6-15.3-2.2-2-110.5-0.7-124.1 3.1-31.7 4.4-129.7 10-150.9 1.2-4.5 7.1-3.1 7.5 1.1z"  fill="#c2e1ff" /><path d="M567.3-11.7c-4.9 55.9 6.1 80.8 3.7 86.2-2.4 5.2-9.2-2-4-4.1 4.5-1.8 5.8 6.2 1 5.9-11.3-0.6-11.8-79.7-8.6-89.6 1.5-4.7 7.7-2.8 7.9 1.6z"  fill="#c2e1ff" /><path d="M575.1-147.3c-9 57.8-20 117.2-19.6 175.7 0 7.6 7.2 42.8 2.7 47.2-3.6 3.6-8.1-3.6-3.3-5.3 4.8-1.7 5.8 6.7 0.8 6.2-13.7-1.3-5.7-115.9 9.6-216.3 0.8-5.1 10.3-20.1 9.8-7.5z"  fill="#fff500" /><path d="M582.9-123c-11.4 50.1-21.1 103.2-19.3 154.8 0.3 7.1 8 39.4 4 43.6-3.4 3.5-8-3.3-3.4-5 4.6-1.8 5.8 6.3 0.9 5.9-7.4-0.5-23.6-48.5 7.8-195.9 1.3-6.3 11-13.8 10-3.4z"  fill="#c2e1ff" /><path d="M589.5-366.3c13.3 112.2-20.9 230.2-32.2 341.6-2.6 25.4 2.6 95 0.1 99.8-2.8 5.3-9.6-2.6-3.9-4.6 4.8-1.7 5.8 6.8 0.7 6.3-11.5-1.1-12.5-63.2 13.4-246.4 8.7-61.5 20.1-124.9 15.8-187.2-0.2-3 3.6-20.7 6.1-9.5z"  fill="#fff500" /><path d="M597.3-352.2c7.9 108.4-27.5 219.9-38.5 327.4-2.5 24.8 1.7 97.1 0.3 99.8-2.3 4.5-8.8-0.8-4.8-4 4.7-3.7 7.6 6.3 1.7 5.7-17.4-1.6-8.6-102.7 12.7-236.3 9.6-60.3 23.2-121.9 21.7-183.3-0.1-3.3 4.8-20.8 6.9-9.3z"  fill="#fff500" /><path d=""  fill="#005bbb" /><path d="M603.1-247.2c-17.1 80.8-37.1 161.3-42.9 244-1.4 20-1.5 40 0.8 60 0.4 3 6.1 21.4-1.2 20-4.9-0.9-1.7-8.6 2.4-5.7 3.5 2.5-0.7 7.8-3.9 4.9-8.3-7.4-6.6-73.3-5.7-86.5 5.4-77.7 23-154 39.8-229.8 1.2-5.2 11.9-19.7 10.7-6.9z"  fill="#fff" /><path d="M603.3-196.1c-12.8 40.2-23 81.1-30 122.7-1.1 6.3-3 44.7-10.7 43.3-9-1.6 1.9-14.1 4.6-5.4 2 6.1-8.9 7.4-7.7-2.4 6.4-53.9 16.4-109.8 34.6-161.1 2.1-6 10.3-3.1 9.2 2.9z"  fill="#fff500" /><path d="M603.2-202.3c-18.6 60.6-32.4 122.9-38.4 186-0.7 7.7 2.1 42.3-3.5 46.3-4.8 3.4-8.6-5.5-2.8-6.6 5.8-1.1 5.5 8.7-0.2 7.2-7-1.8-2.8-28.6-2.6-34 3.4-65.2 17.3-130.6 35.8-193.1 1.7-5.8 14-18.9 11.7-5.8z"  fill="#fff500" /><path d="M603.3-196.6c-19.5 61.2-33.7 125-38.6 189.3-0.6 8.2 3.5 47.3-1.8 51.5-4.4 3.5-8.5-4.8-3.1-6.2 5.4-1.3 5.7 7.9 0.2 6.9-7-1.3-4.1-30.1-4-35.8 1.2-67.3 16-135.9 35.5-200 1.8-5.9 14.2-18.8 11.8-5.7z"  fill="#c2e1ff" /><path d="M603.2-180.9c-11.9 34.5-21 69.9-27.5 105.9-1.1 5.9-2.3 37.4-10.2 35.9-5.7-1.1-3.5-9.9 2.1-8.2 5.5 1.7 2.4 10.2-2.9 7.9-10.9-4.7 19.3-135.8 30.5-146.6 3.9-3.7 8.9 0.5 8 5.1z"  fill="#c2e1ff" /><path d="M603.2-179.5c-21.2 61.1-35.9 127.5-37.5 192.3-0.4 16.7 0.6 33.3 3.3 49.7 0.4 2.4 5.1 15.1-1.5 14.1-3.5-0.6-3.2-5.9 0.3-6.1 3.6-0.2 4.4 5.1 1 6-6.9 1.9-8.2-25.5-8.7-29.7-5.8-46.5 9.9-192.2 34.3-230.5 3.2-5 9.8-1 8.8 4.2z"  fill="#fff" /><path d=""  fill="#fff" /><path d=""  fill="#fff" /><path d="M603.3-164.8c-17.6 47.6-28.6 98.3-33.5 148.8-0.6 6.4 1.4 32.3-3.5 35.6-5 3.4-8.7-5.9-2.7-6.8 5.9-1 5.4 9-0.4 7.3-6.9-1.9-2.2-27.8-1.8-33.4 3.8-51.7 14.7-103.7 31.8-152.6 2.3-6.7 11.9-6.9 10.1 1.1z"  fill="#fff500" /><path d="M603.4-119.2c-17.7 45.5-27.7 97-25.5 145.8 0.3 6.3 7.9 50 3.7 49.5-3.4-0.4-3.3-5.5 0.1-5.8 4-0.4 4.2 5.9 0.2 5.9-6.6-0.1-9-30.3-9.7-35.5-7.1-53.5 3.2-110.6 21.1-161.1 2.4-6.8 12-6.8 10.1 1.2z"  fill="#fff500" /><path d=""  fill="#005bbb" /><path d="M603.4-160.7c-10.9 28.9-18.8 58.8-24.6 89.1-1 5.1-1.7 31.5-9.7 29.8-5.7-1.2-3.4-10 2.2-8.2 5.5 1.8 2.3 10.3-3 7.9-11.8-5.3 18.6-111.6 26.3-123.1 3.4-5 10-0.8 8.8 4.5z"  fill="#c2e1ff" /></svg>