<svg width="1200" height="675" viewBox="-500 -500 1200 675" xmlns="http://www.w3.org/2000/svg"><path d="M-500-500h1200v675h-1200z" fill="#000"/><path d=""  fill="#fff" /><path d=""  fill="#fff500" /><path d=""  fill="#005bbb" /><path d=""  fill="#005bbb" /><path d=""  fill="#fff" /><path d="M-396.4-124.5c20.5 42.7 29.7 92 8.7 136.4-2.1 4.5-4.6 13.5-10.6 13.8-9.5 0.5-6.9-15 1.9-11.5 10.3 4.1-3 18.1-7.7 8.1-3-6.6 17.9-42 19.8-58.5 2.2-19.7-0.7-39.7-6.3-58.6-1.9-6.3-12.3-23.7-10.5-29.4 0.7-2.4 3.6-2.2 4.7-0.3z"  fill="#fff" /><path d="M-396.3-128.8c21.1 43.5 31.7 94 10.4 139.6-2.3 5-5.8 16.6-12.4 16.9-11.2 0.4-4.6-18 3.7-10.6 7.2 6.3-5.7 15.7-9.5 7-3-6.7 19.5-44.1 21.3-61.4 2.2-20.9-1.2-41.9-7.5-61.8-2-6.2-12.5-23.6-10.8-29.3 0.7-2.4 3.6-2.2 4.8-0.4z"  fill="#c2e1ff" /><path d=""  fill="#fff500" /><path d="M-396.4-146.2c24.3 50.4 40.8 109.1 13.2 161.7-2.9 5.6-8.3 19.9-15.7 19.8-11.6-0.3-3.6-18.9 4.6-10.7 7 7-6.9 15.9-10.3 6.6-1.7-4.7 25.5-43.9 27.7-73.3 3.4-45.5-16.8-64.6-24.2-102.6-0.6-3 3.3-3.9 4.7-1.5z"  fill="#fff" /><path d=""  fill="#005bbb" /><path d=""  fill="#fff500" /><path d=""  fill="#005bbb" /><path d=""  fill="#fff500" /><path d=""  fill="#c2e1ff" /><path d="M-381.4-343.2c-26.2 33.2-16.2 100-13.9 145.7 3 59.1 73.4 130.2 19.7 219-4 6.6-15 27.8-23.8 26.7-7.6-1-7.4-12.4 0.2-13.1 8.9-0.8 9.4 13.3 0.5 13.1-19.9-0.3 30.4-48.8 33.6-92.4 3.9-52.6-22.8-96.4-35.1-145.7-4.7-18.8-1.1-43.9-1.3-62-0.3-27.3-1.4-54.6-1.3-82 0.1-17.6 29.4-23.4 21.4-9.3z"  fill="#005bbb" /><path d=""  fill="#005bbb" /><path d="M-367.3-121.9c15.8 51.7 20.9 106-12 152.4-3.9 5.5-12.3 21-20.1 19.9-12.2-1.7-1.6-20.4 6.1-10.7 6.6 8.2-9.2 15.9-11.6 5.6-1.9-8 32.1-45.7 37.6-64.3 16.7-56.9-9.4-95.4-5.7-103.3 1.3-2.7 4.7-1.9 5.7 0.4z"  fill="#c2e1ff" /><path d="M-359-152.8c16 66.9 33.5 135.5-15.5 193.4-4.8 5.7-17.2 23.9-25.7 22-10.7-2.4-3-18.9 5.7-12.2 10.2 7.8-8.9 19.3-11 6.6-1.2-7.7 44.4-48.9 52.4-80.8 11.1-44.2-15.4-116-12.2-129 0.9-3.5 5.2-2.9 6.3 0z"  fill="#c2e1ff" /><path d=""  fill="#005bbb" /><path d="M-341.7-225.8c-6.4 95.4 54.5 198.1-25.3 277.2-6.1 6-24.6 27.9-33.7 25.2-9.3-2.8-4.1-17.2 4.8-13.4 7.6 3.2 4.1 15.1-4.1 13.6-19.6-3.6 23.6-35.3 28.1-39.8 18.6-18.4 32.3-40.6 37.4-66.5 11.2-57.4-13-115.9-15.6-173.3-1.1-25 7.5-34.3 8.4-23z"  fill="#c2e1ff" /><path d="M-332.9-308.1c-12.1 30.9-18.7 63.4-18.1 96.6 1.4 89.2 53.6 183-18.2 258.8-5.7 6-22.1 26.7-30.9 24.3-7.9-2.2-6-14.3 2.2-13.9 9.6 0.5 8 15.6-1.5 14-19.4-3.1 20.8-34.1 25.1-38.5 18.1-19 30.7-41.9 34.7-68 10.6-68.1-23.3-135.3-19-203.9 1.4-21.7 3.8-55.8 16.4-74.3 3.7-5.4 10.7-0.8 9.3 4.9z"  fill="#c2e1ff" /><path d="M-325.3 71.6c-4.1 3.5-28 16.2-20.8-1 10.6-25.5 18.6 28.8 1.1 7.5-15.1-18.3 37.1-24.3 19.7-6.5z"  fill="#fff500" /><path d="M-317.1-244.3c-17 101.5 50.6 221.9-38.3 302.2-6.2 5.6-24.3 25.6-33.4 22.4-8-2.8-5.1-15.2 3.3-14.1 9.9 1.2 7.1 16.6-2.6 14.4-19.7-4.6 24.9-34.4 29.7-38.8 19.6-18 34-40.3 39.7-66.5 12.3-57-9.7-116.4-10.4-173.7-0.2-14.1-2.1-35.1 3.2-48.3 2.1-5.2 8.9-2.6 8.8 2.4z"  fill="#fff500" /><path d="M-308.5-368.7c-18.7 41.8-39.9 81.4-44.3 127.9-8.9 95 59 200.8-13.8 283.3-4.9 5.6-17.8 23.6-26.3 21.4-12.6-3.2 0.6-21.5 7.6-10.5 6 9.4-11.3 15.7-12.8 4.7-1.2-8.6 18.9-21.5 24.4-27.4 15.2-16.7 26.4-36.4 31.1-58.6 15.9-75.2-26.8-150.8-17.5-227.3 4.5-36.7 18.8-89.8 42.2-119.3 4.2-5.3 11.2 0 9.4 5.8z"  fill="#005bbb" /><path d="M-300.4 19.8c-5.6 11.6-48.1 72.4-63.7 59.5-7.8-6.4 3-18.1 10-10.9 7 7.2-4.9 17.7-11.1 9.7-2-2.6-2.1-6.3-0.2-9 8.1-11 25.1-18.6 35-28.6 7.4-7.6 13.5-22.7 21.8-28.3 5.3-3.5 10.3 2.4 8.2 7.6z"  fill="#c2e1ff" /><path d="M-292.4-395.5c-14.6 50.7-44 95-51.6 148.1-12 84.3 43 178.3 4 258.2-3.8 7.8-17.3 36-28 34.4-12.3-1.8-1.4-20.5 6.2-10.7 6.5 8.3-9.3 15.9-11.7 5.6-0.2-0.9 35-49 38-84 6.5-73.7-28.1-143.6-15.5-218.2 5.8-34 31.5-108.4 49.4-137.6 3.3-5.3 10.2-1.2 9.2 4.2z"  fill="#c2e1ff" /><path d="M-284.3-332.3c-12.9 37.9-25.3 75.7-28.3 115.9-7.1 93.1 46.2 199.9-34.4 273.9-6.3 5.8-25.5 26.5-34.7 23.1-8-2.9-5-15.3 3.5-14.2 9.9 1.3 6.9 16.8-2.7 14.5-19.6-4.9 26.2-35.1 30.9-39.5 19.4-18.3 33.2-40.9 38.3-67.3 13.4-68.3-15.6-138.8-8.1-208.1 3.3-30.6 9.3-76.5 26.2-102.8 3.4-5.4 10.5-1 9.3 4.5z"  fill="#005bbb" /><path d="M-267.7-397.5c-10.1 87.8-53 133.8-44.6 235.4 1.1 13.2 17.9 131.8 6 130.1-6.9-1-2.8-11.8 3-8 5 3.2-0.5 10.8-5.2 7.1-5.7-4.7-1.3-45.7-2.1-54.7-5.4-54.6-15.9-107.4-7.1-162.4 7.9-49.2 31.2-94 40-142.8 1-5.7 10.3-16 10-4.7z"  fill="#fff" /><path d="M-268.6-226.6c-9.8 82.8 32.4 204.4-4.3 271.5-4.4 8.1-20.4 37.5-31.6 35.1-9.2-1.9-5.3-16.2 3.5-13.2 7.6 2.5 5.1 14.2-2.8 13.3-18.3-1.9 14.4-31.8 17.5-36.3 12.2-17.8 19.1-38.4 21.1-59.9 4.8-54.5-13.1-109.6-14-164.2-0.2-14.2-2.7-34.7 2.1-48.2 1.8-5.1 8.5-2.9 8.5 1.9z"  fill="#fff500" /><path d="M-260.3-385.3c-7.2 53.4-32.7 102.4-39.3 156.2-8.4 69 16.8 137 8.1 205.3-2 15.7-27.9 86.5-47.1 82.3-12.6-2.8 0.1-21.3 7.3-10.7 6.1 9.1-10.8 15.8-12.6 5-0.9-5.5 39.5-40.5 44.6-87.7 7.7-70.9-17.9-140.5-6.9-212.1 5.6-37 37.5-142.2 39.4-143.1 3.6-1.7 6.6 1.4 6.5 4.8z"  fill="#c2e1ff" /><path d=""  fill="#c2e1ff" /><path d="M-245.3-60.6c6.5 34.7 13.9 114-18.7 139.1-7.7 5.9-14.6-8.7-5.1-10.9 9.5-2.1 9.6 14 0.1 12-10.7-2.3 16.5-46.9 19.6-63.7 5-26.5-4.3-50.5-2.7-76.1 0.3-4.2 5.7-3.9 6.8-0.4z"  fill="#fff" /><path d="M-216.8-398.2c5.7 83.9-41 159.5-28.7 262.7 1.8 15.4 27.3 110.4 25.7 114-2.6 5.6-9.9-2.2-4.2-4.5 4.9-2 6.3 6.6 1.1 6.4-5.9-0.3-9.9-30.2-11.4-35.6-39-139.7-15-170.8 6.7-303.7 2.1-13 0.5-27.4 3.1-40 1-4.7 7.1-3.5 7.7 0.7z"  fill="#005bbb" /><path d="M-228.6-167.3c4.2 83.4 57.7 126.1 74.5 199.5 1.5 6.4 10.3 42.4 2.5 45.1-5.8 2-6.9-8.2-0.8-7.5 6.1 0.7 2.8 10.3-2.4 7.1-6.7-4-7.5-52.6-10.7-62.6-14.6-46.4-47.9-84.1-61.7-131.1-4.2-14.2-11.5-35.9-9-50.8 0.8-4.6 6.8-3.7 7.6 0.3z"  fill="#005bbb" /><path d="M-220.7-162.4c7.9 90.1 112.2 175.7 93.1 236.9-1.9 6-11 0.8-6.8-3.8 4.2-4.7 10.3 3.9 4.5 6.3-8.3 3.5-5.8-15.6-5.9-18.8-0.8-17.7-3.2-35.2-9.6-51.7-16.8-43.3-53.7-75-70.5-118.8-19.9-51.8-6.8-58.7-4.8-50.1z"  fill="#fff" /><path d="M-211.6-338.1c-15.8 84.8-38.8 164.7-10.3 250.1 13.4 40.3 59.9 120.3 45.7 162.4-2.4 7.2-12.4-1.3-5.7-4.8 5.7-3 8.6 7.3 2.1 7.6-3.4 0.2-10.1-66.4-12.9-75.6-21-70.9-54.1-120.4-51.9-198.4 1-35.7 9.4-112.7 24.1-144.2 2.4-5.2 9.3-2.2 8.9 2.9z"  fill="#c2e1ff" /><path d="M-204.9-151.8c15.7 79.4 107.9 112.3 106.1 196.9-0.1 6.2 1.5 29.2-4.4 32.5-7.2 3.9-8.9-10.2-0.9-8.1 7.9 2.1-0.6 13.5-4.9 6.5-1.6-2.6 2.2-62.7-4-79.6-15.2-41.8-57.9-65.4-80.4-102.8-8.1-13.5-14.4-28.5-17.9-43.8-1-4.2 5-5.4 6.4-1.6z"  fill="#fff500" /><path d="M-197-150.9c20.9 85.6 120.7 99.5 108.9 199.9-0.7 5.9-0.5 26-6.3 28.7-7.7 3.6-8.6-11.2-0.6-8.5 8.1 2.7-1.4 14-5.4 6.6-3-5.5 8.4-66-0.6-89.3-15.7-40.6-59.2-60.9-83.2-95.9-8.3-12.1-14.8-25.6-18.8-39.7-1.1-4 4.5-5.3 6-1.8z"  fill="#fff500" /><path d="M-188.3 28.6c0.9 6.4 6.8 50.1-3 49.1-5.7-0.6-4.3-9.5 1.3-8.4 5.6 1.2 3.3 9.9-2.2 8.2-7.9-2.6-0.9-69 3.9-48.9z"  fill="#fff500" /><path d="M-179.2-269.2c-7.8 40.5-13.4 84.6 3.4 123.7 33.5 78.1 132.6 75.9 107.3 184.8-1.7 7.2-5.4 36-12.5 38.5-8.6 3.1-8-12.9 0.3-9.1 8.4 3.7-3 14.9-6.5 6.4-2.3-5.5 18.4-72.2 12.9-96.1-13.7-60.3-90.1-76.7-111.5-135.1-13.2-35.9-10.6-77.9-2.6-114.7 1.3-6.1 9.6-4.2 9.2 1.6z"  fill="#fff500" /><path d="M-171.3-235.6c-3.3 30.4-1.3 62.3 14.4 89.2 42.7 73.1 137.2 63.8 100.3 180.6-2.5 7.9-9.7 41.7-17.5 44-9.1 2.7-7.6-13.8 0.9-9.5 8.5 4.3-4 15.2-7.1 6.3-3.3-9.3 28.9-78.6 21.4-111.1-13-56.6-83.4-70.3-108.5-120-12.3-24.3-15.5-53.4-12.6-80.3 0.6-5.8 8.5-4.7 8.7 0.8z"  fill="#005bbb" /><path d="M-162.9-284c-8.5 40-16.4 84.4-0.4 123.6 34.1 84.2 145.6 74.1 106.6 195.5-2.5 7.8-9.5 41-17.3 43.3-9.1 2.7-7.6-13.8 0.9-9.5 8.5 4.3-4 15.2-7.2 6.3-2.5-7 27.4-78.8 22.7-106.6-10.8-64.8-94.8-78.2-115.7-139.7-12.3-36.1-7.7-78.3 1.1-114.9 1.5-6.1 9.8-4.1 9.3 2z"  fill="#fff" /><path d="M-154.7-323.9c-11.8 49.6-28.6 106.6-12.2 156.9 29 88.8 148.2 79 109.8 201.7-2.4 7.8-9.3 41.1-17.2 43.4-9.1 2.7-7.6-13.8 0.9-9.5 8.5 4.3-3.9 15.2-7.2 6.3-2.1-5.8 25.8-77.9 22.5-102.8-9.1-67.9-99.6-79.9-118.4-150.3-12.6-47-0.4-102 12.3-147.9 1.7-6.2 10.1-3.9 9.5 2.2z"  fill="#c2e1ff" /><path d="M-149.6-20.1c15 22.2 23.4 46.7 25.3 73.4 0.3 4.7 4.1 22.4-2.2 24.2-6.1 1.8-6.8-8.8-0.5-7.9 6.3 1 2.5 10.9-2.9 7.4-5.8-3.9-2.6-32.5-3.5-39.7-2.5-19.7-28.7-72.8-16.2-57.4z"  fill="#c2e1ff" /><path d=""  fill="#fff" /><path d="M-130.4-392.8c-16.7 69.8-58.3 164.3-24.2 234.2 20.3 41.7 66.9 54.7 94 89.8 13.9 18 19.5 40.1 17.4 62.6-0.4 4.8-0.4 23.9-9.2 21.2-5.5-1.7-3.9-10.1 1.9-9.6 5.7 0.5 5.9 9 0.2 9.8-10.7 1.4-2.3-19.5-1.7-23.8 2.2-15.7 1-31.8-5.4-46.4-27.1-61.8-104-63.1-115.5-143.9-3.9-27.4 18.8-181 34.1-198.3 3.6-4 9-0.2 8.4 4.4z"  fill="#fff500" /><path d=""  fill="#c2e1ff" /><path d="M-126.8-397.3c-17.8 70.6-61.8 169.8-24.6 240.2 22 41.6 71.5 54.2 96.6 92.6 1.1 1.7 6.2 7.4 2.2 9.2-3.1 1.4-4.9-3.6-1.7-4.7 3.2-1 4.5 4.1 1.2 4.8-2.8 0.6-20-26.8-23.9-30.5-45.4-43.2-91.8-55.2-95.3-128.4-1.3-26.2 22.6-171.7 37.1-187.7 3.6-4 9-0.1 8.4 4.5z"  fill="#fff" /><path d=""  fill="#c2e1ff" /><path d="M-117.9-396.6c-21.4 66.9-62.4 164.5-28.1 232.7 21.7 43.1 73.9 55.4 97.8 96.1 0.5 0.8 6.2 8.6 0.8 8.9-3 0.2-3.7-4.2-0.8-5 3.3-1 4.6 4.4 1.1 5-2.7 0.5-19-26.7-22.8-30.6-45.3-45.3-93.8-56-95.9-131.8-0.6-22.6 27.4-173.5 40.4-181.3 4.3-2.6 8.3 1.7 7.5 6z"  fill="#c2e1ff" /><path d="M-90.3 42.4c-0.4 5.8-0.2 37.3-9.1 35.5-6.1-1.2-3.7-10.6 2.2-8.8 5.9 1.8 2.5 11-3.2 8.5-10.7-4.7 9.3-60.8 10.1-35.2z"  fill="#fff" /><path d="M-84.5-35.1c15.3 24.4 14.7 53.2 9.2 80.4-1.2 6.1-3.5 32.9-11.3 33.2-7.6 0.4-5.5-12.2 1.6-9.2 7.1 2.9-0.1 13.3-5.4 7.7-6.3-6.7 8-43.8 9.4-53.1 1.7-11.8 2-23.9-0.3-35.7-0.3-1.5-8.8-31.3-3.2-23.3z"  fill="#c2e1ff" /><path d=""  fill="#c2e1ff" /><path d="M-65.2-351.8c-17.8 38.1-30.1 86.1-20 127.9 9.6 40.1 42.9 63.5 65.8 95.5 33 45.9 24.6 96.5-1.3 143.3-4.9 8.8-22 49-31.8 50-10.6 1.1-5.6-16.8 2.9-10.3 8.5 6.5-7.5 16-9.2 5.5-1.1-6.9 52.1-91.5 53.9-123.6 4.2-74.5-79.5-106.1-90.2-175.7-5.8-38.1 3.4-82.4 19.8-117 3.1-6.6 12.1-2.2 10.1 4.4z"  fill="#c2e1ff" /><path d="M-61.3-147.9c69.7 64.8 64.4 112.3 20.4 191.5-3.6 6.5-14.4 36.1-22.2 35-6.3-0.9-6-10.4 0.4-10.9 7.4-0.5 7.6 11.2 0.2 11-12.5-0.4 2.1-22.8 4.1-26.8 17.2-33.8 41.5-67.1 43.4-106.3 1.3-26.7-9.7-50.8-27-70.6-3-3.4-26.4-28-19.3-22.9z"  fill="#c2e1ff" /><path d="M-50.6-258.6c6.5 51.3 47.8 84.2 65.6 130.6 28.2 73.4-21.5 129.4-57.4 188.3-2.7 4.4-10.5 25.9-18.2 17.1-4.4-4.9 2.2-12.2 7.5-8.3 4.5 3.3 1.8 10.7-3.8 10.2-13.9-1.2 6.8-29.4 9.7-33.9 25.1-40.5 60.4-79.3 62.6-129.4 2.6-58.7-43-94.3-64.1-144.2-3.5-8.3-9.5-20.9-8.8-30.1 0.3-4.3 5.9-4 6.9-0.3z"  fill="#c2e1ff" /><path d="M-88.6-396c-31.1 57.5-67.2 151.9-37.3 215.7 20.3 43.3 72.2 58 93.7 100 2.1 4.1-5.9 4.8-4.6 0.4 1.5-5.2 8.1 2.1 2.9 3.1-3 0.6-19.8-27-23.5-30.8-44.5-45.1-88.6-60.2-86.5-134.1 1.5-52.9 19.1-113.6 45.1-159.6 3.7-6.6 12.7-1.5 10.2 5.3z"  fill="#c2e1ff" /><path d=""  fill="#fff500" /><path d="M-27.9-205.1c64.5 109.1 79.2 128.3 1.8 241.2-4.8 7-22.9 44.4-31 42.8-6.4-1.3-5.6-11.1 1-11.2 7.7-0.2 7.3 12-0.4 11.3-13.7-1.2 6.4-28.4 9.1-32.7 24.1-38.8 57.7-75.3 63.7-122.4 6.3-49-21.6-86-46.6-124.8-1.7-2.6-0.5-7.8 2.4-4.2z"  fill="#fff500" /><path d="M-83.8-395.6c-31.8 55.5-66.1 145.7-39.9 209 13.9 33.6 45.4 50.8 70.6 74.6 0.3 0.3 10.5 10.8 5 9.1-7.1-2.2 8-1 0.7 0.1-3.5 0.5-21.1-19.9-25-23.1-41.3-34-70.5-65.7-67.3-122.8 2.7-48.1 18.4-97.9 39.6-140.8 2.1-4.3 4.8-14.1 10.6-14.7 5-0.5 7.3 4.5 5.7 8.6z"  fill="#005bbb" /><path d="M-10.2-290.7c8.2 53.2 48.9 92.8 62.1 144.5 21.5 85-36.4 137.8-82.3 200-3.9 5.3-14.7 29.7-23 24.4-5.7-3.6-1.2-12.7 5.1-10.4 6.3 2.3 3.9 12.1-2.8 11.3-13-1.7 4.1-22.9 6.7-26.9 32-48 83.3-87.6 91.8-147.9 9.2-65.9-34.8-110.6-56.7-167.8-2.5-6.4-9.6-20.7-7.5-27.5 1.1-3.6 5.6-2.8 6.6 0.3z"  fill="#fff500" /><path d="M-3.4-225.1c63.3 119.8 69.6 147.6-15.8 259.6-5.3 7-26.6 46.1-34.6 44.4-6.5-1.5-5.4-11.4 1.3-11.4 7.8 0 7.1 12.4-0.7 11.5-12.3-1.4 2-20.1 4.4-24 27.7-44.7 71.3-82.3 82.5-135.5 11.2-53-14.9-96.2-40-140.4-1.7-3 0-8.2 2.9-4.2z"  fill="#005bbb" /><path d="M-54.4-394.8c-36 51.1-68.5 134.5-41.9 195.9 19.1 44.2 70.5 65.1 85.5 111.7 2 6.2-9.5 3.6-4.9-1.1 3.8-4 7.8 4.8 2.3 5-3.6 0.2-17.2-32.1-20.9-37-40.2-53-84.9-70-78.2-147.3 3.7-41.8 17.7-83.9 39-120 2.7-4.6 6.1-13.4 11.1-16.1 6-3.2 10.7 3.6 8 8.9z"  fill="#fff" /><path d=""  fill="#005bbb" /><path d=""  fill="#fff500" /><path d="M29.3-179.1c46.4 91.1 2.1 149.1-52.3 220.2-5 6.5-22.3 39.5-30.1 37.7-8.9-2.1-2.4-15.8 4.9-10.1 8.5 6.6-7.7 16-9.3 5.4-2.1-13.6 77.4-107.8 88.1-133.6 10.1-24.4 12.5-51.1 7.6-77-2.2-11.4-16.4-54.4-8.9-42.6z"  fill="#fff500" /><path d="M37-267.1c37.7 66.1 91.6 144.4 51.3 222.9-22.7 44.2-69.4 68.5-103 103.3-4.3 4.4-19 28.7-25.8 17.9-3.3-5.2 2.5-11.6 8-8.9 6.5 3.2 2.7 13.3-4.3 11.6-13.3-3.3 6-22.3 9.2-26.1 39-45 105-73.3 118.4-136.3 13.1-61.6-18.9-121.1-50.7-171.1-1.1-1.7-8.4-20.2-3.1-13.3z"  fill="#c2e1ff" /><path d="M45-243.1c37.2 59.1 70.3 136.4 30.3 203-25.8 43-71.8 68.7-102.8 107.4-2.6 3.2-14.5 21.2-18.2 8.1-6.2-22 27 9.1 4.5 4.3-14.3-3.1 8.8-26.8 12.4-31 35.3-41.5 91.9-71.1 108.7-125.9 15.9-51.8-4.7-108.4-31.6-152.6-0.7-1.2-8.7-20-3.3-13.3z"  fill="#005bbb" /><path d="M53.7-328.1c10.9 27.5 97.1 147.8 119.5 174.2 61.7 72.6 82.7 89.1 56.8 188.9-1.7 6.6-5.8 36.9-14.2 36.8-5.9-0.1-6.7-8.8-0.9-10 5.8-1.2 8.4 7.2 3.1 9.5-13.5 6-0.3-29 0.6-32.3 10.8-39.2 23.4-83.7 6.2-122.9-14-31.9-43.5-54.2-64.9-81-23.7-29.6-81.1-111.2-101.3-143.5-2.8-4.4-10.2-13.5-9.9-18.8 0.2-2.9 3.7-3.1 5-0.9z"  fill="#c2e1ff" /><path d="M61.3-308.1c14.2 24.5 86.6 128 105.3 151.8 60.5 77.1 85.2 91.5 58.9 195.8-1.7 6.9-6.1 38.9-14.5 38.8-5.9-0.1-6.7-8.8-0.9-10 5.7-1.2 8.4 7.2 3.1 9.5-13.4 6-0.8-27.5 0.2-31 11.2-41.2 24.4-88.4 5.8-129.5-15.2-33.6-46.2-58.1-67.7-87.6-30.3-41.6-59.2-85.1-88.5-127.5-1.1-1.6-6.8-16.6-1.7-10.3z"  fill="#fff" /><path d="M72.4-72.3c-13.1 45.7-51.5 77.1-82.5 110.8-6 6.5-31.3 44.9-38.6 39.8-7.8-5.4 3.7-16.1 8.5-8 4.8 8.1-10.1 13-11 3.7-1.3-12.7 46.2-60.4 56.5-71.1 14.6-15 29.4-30 41.3-47.3 6.2-9.1 9.9-26.1 17.4-33.3 4.1-3.9 9.4 0.6 8.4 5.4z"  fill="#005bbb" /><path d="M80.7-39.7c-21.7 37.3-60.3 60.7-90.3 90.5-5.2 5.1-25.9 36.4-32.9 25.8-4.6-7 6.8-13.6 10.7-6.2 3.3 6.4-5.7 12.2-10.3 6.7-8.5-10.4 30.9-44.1 38.1-50.7 17.3-15.9 36-30.2 52.8-46.7 7.6-7.5 15.2-22.9 23.9-27.9 5.8-3.3 10.5 3.3 8 8.5z"  fill="#fff500" /><path d="M88.4 47.2c-6.8 6.4-40.2 41.4-48.1 30.7-5.8-7.7 6.9-16.2 11.8-7.9 4.9 8.3-8.6 15.3-12.6 6.5-3.7-8.2 34.3-39.2 42.6-41.2 7.4-1.9 10.7 6.9 6.3 11.9z"  fill="#005bbb" /><path d="M95.1-389.8c8.7 46.1 77.9 142.6 111.4 177.3 54 55.8 113.5 77 82.5 169.1-3.1 9.1-9.1 36.2-17.6 41-8.9 5-11.2-12.5-1.4-10 11.6 2.9-3.8 18.3-6.6 6.6-4.6-18.8 41.6-70.9 19.8-123.7-15.6-37.9-56-57.8-83.3-86-34.5-35.6-61.8-82-88.7-123.5-8.4-13-22.8-33.8-22.6-50 0-4 5.2-4.1 6.5-0.8z"  fill="#c2e1ff" /><path d="M106.1-399.4c8.5 50.4 56.8 119.4 87.3 160.7 39.1 52.9 117.4 83 107 160.1-1.1 8.3-3.4 32.5-11 37.4-8.3 5.3-11.5-11.5-1.9-9.7 11.4 2.2-2.7 17.9-6 6.8-4.2-13.7 24.9-52.4 2.3-96.1-17.7-34.1-54.5-53.3-80-80.8-29.1-31.4-48.8-70.6-71.4-106.7-12.1-19.3-24-38.9-30.5-60.9-1.3-4.4 0.7-20.8 4.2-10.8z"  fill="#c2e1ff" /><path d="M114.5-399.4c9.4 49 67.5 146.4 102.1 182.9 23.9 25.2 56.3 43.4 74.1 74 12 20.6 14.9 44.4 10.7 67.6-1 5.5-2.4 24.6-10.4 24.3-6-0.3-6.6-9.3-0.6-10.3 5.9-1 8.4 7.7 2.8 9.9-13.3 5.4-0.1-30.6 0.6-34.7 3.5-22.1-0.1-44.2-12.1-63.2-19.7-31.5-54.5-50.3-78.6-78.1-31.8-36.7-55.2-84-77.7-126.9-7.3-14-13.7-28.6-17.3-44-1-4.2 5-5.4 6.4-1.5z"  fill="#fff" /><path d="M121.1-45.4c-12.2 44.3-49.8 70.7-85.6 95.4-7.5 5.2-39.7 36.1-46.8 28-7.1-8.2 8.7-16.8 11.8-6.4 3 10.4-15 11.6-13.4 0.9 1.9-12.4 60.2-48.4 72.8-57.8 37.4-28 39.9-53.2 52.8-65.4 4.1-3.9 9.4 0.5 8.4 5.3z"  fill="#c2e1ff" /><path d="M128.1-399.3c10.9 53.2 52.4 134.5 88 175.5 28.5 32.8 72.7 55.1 85.7 99.2 2 6.7 9.9 44.1-1.2 45.4-5.3 0.6-7.1-7.2-2.1-8.9 5.1-1.8 8.5 5.5 3.9 8.3-11 6.8-5-22.8-5-25.8-0.2-18.1-6-35.4-16.3-50.2-37.3-53.5-72.7-56.3-111.9-133.8-16.1-31.9-34.4-64.4-44.8-98.7-1.2-3.8 0.1-20.8 3.7-11z"  fill="#fff500" /><path d="M135.1-130c23.7 62.6 24.3 119.5-13.9 176.6-5.3 7.9-17.2 30.9-26.6 33.3-8.4 2.1-11.1-11.3-2.5-12.5 10.1-1.4 8.8 15.4-0.9 12.4-13.7-4.2 10.4-27.3 14-32.1 16.3-21.9 30.4-45.9 36.7-72.7 11.1-47.4-14.4-88-12.3-104.4 0.4-3.1 4.2-3 5.5-0.6z"  fill="#005bbb" /><path d="M146.6-398.9c9.3 57.2 35.4 126.1 72.4 171.1 26.2 32 67 53.5 82.6 93.5 11.3 29.1 5.5 60.1-5.5 88.4-2.6 6.6-10.6 35.7-19.6 34.2-6.4-1.1-5.8-10.8 0.7-11.1 6.5-0.3 8 9.2 1.7 11-15.6 4.3 6.3-35.9 8.2-40.6 11.1-27.4 17.9-57.6 6.8-86.1-18.4-47.6-82.6-80.7-110.7-138.4-18.1-37.1-34.2-78-42.8-118.4-1.1-5 4.3-9.6 6.2-3.6z"  fill="#fff" /><path d="M150.3-167.1c55.8 85.9 91.7 100 65.4 212.3-1.4 6.2-4.1 33.1-12.2 33.1-6.8 0-6.2-10.6 0.4-9.9 5.8 0.6 5.8 9.3 0.1 9.9-11.4 1.3-0.5-24.6 0.6-28.8 8.5-33.6 17.4-70 10.3-104.7-8.4-41.4-41.3-71-64.4-104.5-0.8-1.2-4.8-12.8-0.2-7.4z"  fill="#fff500" /><path d="M158.2-175.1c61.4 83.4 104.6 88.1 74.1 205.9-2.2 8.4-7.4 44.9-15.8 47.5-9 2.8-7.7-13.6 0.7-9.4 8.5 4.2-3.7 15.2-7 6.3-2.3-6.3 28.1-104.9 23.7-134.9-6.7-46.4-47.4-73.9-74.7-108.3-0.7-0.8-5.6-11.8-1-7.1z"  fill="#fff" /><path d="M167.4-90c17.4 41.8 16.3 84.2 5.1 127.5-1.9 7.1-7.5 41.5-16.2 41.1-8.1-0.3-4.8-13.4 2.6-9.7 7.3 3.7-1.3 14.1-6.4 7.8-4.4-5.6 15.8-59.6 18.9-80.7 2.5-17.4 2.8-35.1-0.3-52.5-1.9-10.8-7.6-21.5-9-32.2-0.4-3.3 3.9-4 5.3-1.3z"  fill="#005bbb" /><path d="M176.6-46.3c2.7 20-6.7 113-22.7 123.7-6.9 4.6-11.9-8.2-3.7-9.4 8.2-1.3 7.4 12.4-0.6 10.1-9.7-2.7 5.5-33.4 7.4-39.6 8.9-29.1 8-55.9 12.3-85 0.7-4.5 6.5-3.7 7.3 0.2z"  fill="#fff500" /><path d="M185.5-2.5c-0.9 9.9-12.1 84.5-23.4 80.5-5.5-1.9-3.5-10.5 2.3-9.8 6.8 0.8 4.9 11.5-1.8 10-9.4-2.2 2.4-27.7 4-33.3 4.2-15.7 4.7-34.5 10.3-49.5 1.9-5.1 8.6-2.7 8.6 2.1z"  fill="#c2e1ff" /><path d=""  fill="#005bbb" /><path d="M202 49.1c-1.3 5.7-3 29.3-10.8 29.4-6.7 0.1-6.3-10.4 0.3-9.8 7.8 0.7 3.9 13.1-2.9 9.2-11.9-6.9 15.9-52.8 13.4-28.8z"  fill="#c2e1ff" /><path d=""  fill="#fff" /><path d="M190.7-397.8c-9.8 57.6 2.5 123.7 39.3 169.8 23.8 29.9 59.4 51 74.5 87.4 4.2 10.1 16.4 59.4 1.4 65.1-8.5 3.3-8.3-12.5 0.2-9 7.2 3-0.2 13.5-5.5 7.8-3.4-3.6 6.9-39.7-2.5-65-20.4-55-82.9-78.8-105.6-146.3-10.5-31.2-14.7-65.1-12.2-98 0.3-4.1-0.6-13 2.9-15.9 3.4-2.9 7.6 0.2 7.5 4.1z"  fill="#fff" /><path d="M226.7-378.3c-68 115.4 53.2 166 81.1 234.6 17.6 43.2-1.7 86.8-20.9 125.7-4.4 8.9-18.2 50.4-27.6 52-10.1 1.8-6.5-15.7 2.1-10 8.6 5.6-6.1 15.8-8.4 5.9-1.8-7.9 51.9-107.4 53.6-138.3 4.2-74.8-84-109.2-101.1-178.2-7.3-29.4-5.2-61 7-88.8 3.6-8.3 19.3-16.1 14.2-2.9z"  fill="#c2e1ff" /><path d="M202.5-397c-17.3 57.8-6.2 125.1 32.5 172 23.6 28.6 57.4 49.8 71.3 85.6 4.7 12.2 14.8 73.3-4.3 78.6-9.3 2.6-7.5-14.2 1.1-9.6 7.3 3.9-1.6 14.3-6.6 7.8-2.9-3.8 13.2-45.1 4.2-74.8-17.4-57.8-85.2-83-105.8-153.8-8.9-30.7-10.8-63.9-4.9-95.4 3.1-16.4 14.6-25.5 12.5-10.4z"  fill="#fff500" /><path d=""  fill="#005bbb" /><path d="M246.7-156.8c65.8 55.8 31.3 127.1 5.4 194.1-2.7 7-10.9 41.9-19.6 41.1-8.4-0.7-4.2-14.1 3.1-9.9 8.6 4.9-4.9 15.6-7.7 6.2-3.9-13.1 44-114.3 48.7-139.5 4.2-22.5 1.9-45.6-10.2-65.4-1.2-2-25.1-30.5-19.7-26.6z"  fill="#c2e1ff" /><path d="M259.1 23c-3.2 8-18.4 59.1-27.3 55.1-6.6-2.9-1.4-13.1 4.8-9.4 6.3 3.6 0 13.2-5.8 8.9-6.7-4.9 14.1-52.9 18.9-59.7 3.8-5.4 10.9-0.5 9.4 5.1z"  fill="#005bbb" /><path d="M267.2 4c-3.9 9.5-26.6 78.3-35.3 74.5-6.6-2.9-1.4-13.1 4.8-9.5 6.3 3.6 0 13.2-5.8 8.9-7.4-5.5 21-71 26.9-79.1 3.9-5.3 10.9-0.4 9.4 5.2z"  fill="#c2e1ff" /><path d="M275-38.8c-3.2 13.4-37.2 120.9-46.5 117-6.6-2.8-1.6-12.9 4.7-9.4 6.2 3.5 0.2 13-5.7 8.9-7.2-5.2 9-36.3 11.7-43.4 5.7-15.7 18.4-67.7 27.4-77.6 3.7-4 9-0.1 8.4 4.5z"  fill="#fff500" /><path d="M283.5-309.7c-46.2 61.7 38.9 117.2 45.2 177.1 6.1 57.6-35.3 108.9-59.2 157.9-4 8.1-19.2 54.5-28 53.4-8.6-1.1-3.8-14.5 3.6-10 8.6 5.3-5.6 15.7-8.2 6-5.6-21.4 71.4-140.2 80.3-174 19.4-73.7-42-100.6-53.9-163-2.6-13.8-2.7-47.6 12-56 5.9-3.4 10.7 3.3 8.2 8.6z"  fill="#fff" /><path d="M291.2-279.2c-12.6 47.5 33.6 87 41.9 131.3 11.8 61.9-33.1 115.8-59.5 167.6-4.4 8.6-22.5 60.4-31.2 59.2-10-1.3-1.5-16.7 4.9-8.8 5.5 6.7-7.3 13.2-9.5 4.8-6-23.1 76.4-144.7 85.5-181 14.2-56.4-24.4-90.7-38.8-140.9-3.2-10.9-4.4-22.5-2.7-33.8 0.9-6.2 9.6-4.3 9.4 1.6z"  fill="#c2e1ff" /><path d="M299.7 9.6c-6.4 8.8-39.5 72.4-46.3 68.6-6.7-3.7-0.3-13.9 5.9-9.5 7.3 5.1-3.6 15.1-8.1 7.4-5.5-9.5 30.8-70.7 40.6-75.6 6.1-3.1 10.7 3.9 7.9 9.1z"  fill="#005bbb" /><path d="M266.1-393.6c-31.1 28.6-53.1 62.4-46.8 106.5 12 84.4 118.9 116 92.6 211.4-1.6 6-4.9 25.1-12.1 26.5-8.5 1.7-8.2-12.7 0.2-10.7 9.9 2.4-0.4 16.8-5.9 8.3-3.9-6.1 6.9-23.2 8.8-29.5 5.7-18.7 7.6-38.6 2.7-57.7-19-72.6-105.6-93.6-94.7-184.7 2.6-21.2 26-75.5 48.7-81.8 7.4-2 10.8 6.6 6.5 11.7z"  fill="#c2e1ff" /><path d="M314.6-118.2c6.5 55.7-33.9 109.6-55.2 158.3-3 6.9-11.8 39.5-20.3 38.5-7.3-0.8-5.4-12.2 1.8-10.6 7.1 1.6 4 12.7-3 10.4-11.9-4.1 42.1-107.5 48.2-120.3 13.8-28.8 18.7-72.1 21.2-77.7 1.8-3.8 6.6-2.2 7.3 1.4z"  fill="#fff500" /><path d="M323.7-92.8c-9.5 43.6-37.7 82-56.7 122-3.5 7.5-18.9 53.7-27.7 49.4-5.7-2.7-2.6-11.6 3.5-10.2 7.2 1.7 3.9 12.8-3 10.4-9.7-3.4 4.9-26.7 7.2-32 20.2-47 51.8-90.8 66.5-139.8 2-6.6 11.3-8.1 10.2 0.2z"  fill="#fff500" /><path d="M332.1 75.6c-7.2 10-17.6-2.5-9.3-7.3 11.7-6.8 11.3 17.8-0.2 10.6-14.9-9.4 18.7-20.3 9.5-3.3z"  fill="#005bbb" /><path d="M340-386.8c-26.3 34.3-78.1 47.9-87.6 94.4-10.2 49.7 33.5 82.6 56 120.7 27.9 47.4 12.3 95.8-11.3 141.1-3.5 6.7-14.5 36.8-23.1 35.1-10.4-2.2-0.2-17.6 5.8-8.9 5.2 7.4-8.7 13.2-10.3 4.3-1.6-9.2 39.6-79.6 43.9-99.6 17.9-81.9-82.3-120.4-69.4-198.4 6.6-40.4 41.6-59.2 70.6-82.6 5.5-4.4 11.7-13.8 18.2-16.3 6.7-2.6 10.7 5.1 7.2 10.2z"  fill="#fff" /><path d="M348.1-270.7c-15.9 46.7 15.1 94.6 7.3 142.5-9.7 60.4-57.5 108.7-84.6 161.9-3.7 7.2-18.2 48.9-26.9 44.4-6.7-3.3-0.8-13.5 5.4-9.5 5.4 3.5 1.1 12-4.9 9.8-16.1-6 86.5-165.2 94.2-184.1 20.3-49.9-1.7-90.8-3.1-140.9-1-39.8 13.6-31.5 12.6-24.1z"  fill="#c2e1ff" /><path d=""  fill="#fff" /><path d="M364.1 19.2c-15.2 13.3-49.9 60.4-56.2 60.4-9.7 0-6.3-15.7 2.5-11.7 8.8 4.1-0.9 16.9-7.2 9.6-8.2-9.7 43.1-67.3 54.5-70.3 7.5-1.9 10.8 6.9 6.4 12z"  fill="#fff500" /><path d="M372.6-85.2c-33 45.6-73.9 82.7-100.5 133.1-3.3 6.2-11.6 32.6-19.9 31.2-7.5-1.3-4.9-12.9 2.5-10.8 8.5 2.4 1.6 15.4-5.2 9.6-7.6-6.5 14.9-40.1 18.8-47.3 18.1-33.1 66.6-101.1 95.3-124.5 6-4.9 12.4 2.8 9 8.7z"  fill="#fff500" /><path d="M380.1-159.5c-5.7 67.4-57 114.1-91 168.5-5.7 9-35.1 73.1-42.4 69.4-7.8-4 1.5-15.2 6.9-8.3 5.4 6.9-7.8 13.2-9.8 4.7-5.1-21.9 70.2-122.6 85.9-144.1 12.3-16.9 23.8-34.4 31.7-53.8 5.1-12.5 5.5-26.3 10.1-38.5 1.9-5.1 8.6-2.7 8.6 2.1z"  fill="#fff" /><path d="M388.6-73.4c-36.7 39.7-78.6 71.1-106.7 118.4-3.8 6.5-14.6 35.6-22.9 34-8.8-1.7-2.9-15.4 4.4-10.1 6.2 4.5-1.4 14-7.1 8.8-8.7-7.9 24.4-53.7 30-61.9 12.2-18.1 77.9-94.2 95.4-100.1 7-2.4 10.8 5.9 6.9 10.9z"  fill="#c2e1ff" /><path d="M396.5-3.6c-20.2 17.2-40.7 33.8-58.2 53.9-5.2 6-17.7 29.3-25.6 29.3-9.8-0.1-6.2-15.8 2.7-11.7 8.8 4.1-1 17-7.4 9.5-11.9-14.2 67-85.9 80.8-92.7 7.8-3.8 12.9 6.1 7.7 11.7z"  fill="#fff500" /><path d="M404.7-62c-36.7 36.3-80.3 62.6-109.8 106-4.4 6.5-17.6 37.1-26 35.2-7.7-1.8-4.2-13.7 3.2-11.1 8.7 3 0.7 16-5.9 9.6-8.5-8.3 24.6-49.7 30.4-57.4 13.1-17.4 83.7-88.9 101.5-93.9 7.3-2.1 10.8 6.5 6.6 11.6z"  fill="#fff" /><path d="M441.3-399.1c16.8 49.9-0.4 98-9.9 147.3-14.2 74.4-14 125.9-67.5 186-6.9 7.8-22.9 31.8-33.1 33.6-8.9 1.6-10.6-12.6-1.6-13.1 10.5-0.7 7.9 16.6-1.9 12.8-14.4-5.5 15.5-29.9 20-34.8 29-31.1 53.1-64.2 62.7-106.3 7.2-31.5 31.3-161.9 30.7-188.5-0.2-10.6-7.2-27.1-5.3-36.8 0.7-3.3 4.7-2.9 5.9-0.2z"  fill="#c2e1ff" /><path d="M421.3-119.1c-31.2 58.2-91.6 92.4-128.4 146.6-5.9 8.6-23 50.2-32.1 51.4-8.9 1.2-7.7-13.7 0.9-11 8.6 2.7 1.2 15.6-5.5 9.6-8.7-7.9 24.7-54.2 30.3-62.5 25.9-38.1 61.4-65.8 92.9-98.8 10.7-11.2 21.4-35.4 33.7-43.1 5.5-3.5 10.4 2.7 8.2 7.8z"  fill="#fff" /><path d="M442.8-399.5c16.2 46.2 3.4 91.6-6.1 137.5-9.4 45.4-9.4 93.4-29.2 136.1-20 43.1-56.3 73.7-87.1 108.8-9.3 10.6-18.8-3.6-9.8-7.8 11-5.1 12.1 16 0.7 12.1-14.7-5 15.6-31.2 19.8-35.7 33-34.9 65.9-68.4 79.3-115.9 8.8-31.1 33.4-169 32.4-198.1-0.4-10.6-7.6-27-5.8-36.7 0.6-3.2 4.6-2.9 5.8-0.3z"  fill="#fff500" /><path d="M437.2-281.9c-13 54.4-11 114.3-37.2 164.8-27.7 53.4-78.8 89.7-111.2 140-5.1 7.9-28.7 60-36.7 55.7-7.8-4.2 1.9-15.4 7.2-8.3 5.3 7.1-8.2 13.2-10 4.5-1.2-5.7 5.6-14.5 8-19.3 36-73 87.6-107 127.4-169.7 32.1-50.4 29.5-111.1 42.5-167.6 1.6-6.8 10.9-8.2 10-0.1z"  fill="#fff" /><path d="M448.9-399.2c22.6 59-8.9 238.3-42.3 291.8-24.2 38.8-61.2 66.5-90.8 100.6-2.6 3-19.3 17.4-17.2 2.1 2.7-19.8 23.6 12.9 4.5 7-14.8-4.6 14.5-30.8 18.8-35.4 37.6-39.9 79.8-73.8 97.4-127.9 13.3-40.8 33.7-156.2 31.3-197.9-0.7-11.6-9-29.2-7.3-39.8 0.5-3.1 4.4-3 5.6-0.5z"  fill="#c2e1ff" /><path d="M453.7-98.9c-33.2 57.9-94.1 85.4-136.1 134.9-6.4 7.6-24.4 42.7-33.4 43.2-9.4 0.5-6.9-14.9 1.9-11.5 8.8 3.5 0 16.4-6.5 9.6-8.7-9.2 28.3-50.1 34.7-57.5 27-31 62.1-52.1 92-79.9 11.4-10.6 29-40.8 39.3-47 5.6-3.4 10.5 3 8.1 8.2z"  fill="#c2e1ff" /><path d="M461.4-198.1c-5.8 31.6-15 62.4-31.9 90-31.3 50.9-85.2 80-122.3 125.8-6.5 8.1-38.3 65-45.3 60.9-9.2-5.4 5.5-16.7 8.4-6.5 2.5 8.7-12.6 9.7-11.2 0.7 8.1-51.4 106.5-125.2 140-161.7 48.5-53 33.1-68.5 53.4-112.1 2.4-5.2 9.3-2.2 8.9 2.9z"  fill="#fff" /><path d="M469.9-105.5c-30.5 65.7-90.9 96.2-137.2 147.8-6.1 6.8-22.8 37.1-31.5 37.3-9.6 0.1-6.4-15.6 2.4-11.7 8.8 3.9-0.7 16.8-7 9.6-9.5-10.8 37.2-56.2 45.2-63.9 19.5-18.8 41.7-34.4 61.9-52.4 26.9-23.9 35.8-47.9 56.9-72.8 4.4-5.3 11.4 0.4 9.3 6.1z"  fill="#c2e1ff" /><path d="M478-61.6c-7.8 16.9-92.9 149.8-105.9 139.9-6.6-5.1 1.9-15.1 7.9-9.3 6 5.7-3.5 14.8-8.9 8.4-9.3-11.1 49.9-71.9 58.2-82.6 15-19.2 24.2-44.1 39.4-62.4 4.4-5.3 11.3 0.3 9.3 6z"  fill="#005bbb" /><path d="M486-138.4c-22.7 74.1-73.4 113.7-128 163.8-7.8 7.2-46.6 57.6-53 52.8-7.7-5.9 4.6-16.3 9.1-7.7 4.6 8.6-11 12.9-11.5 3.2-1.3-24.6 92.2-96.5 111.9-115.8 32-31.3 60.4-99 63-101.6 4.1-4 9.4 0.5 8.5 5.3z"  fill="#005bbb" /><path d="M493.1-330.1c3.6 78.2-15.1 192-65.5 253.6-38.7 47.2-95 74.6-130.2 125.6-2.4 3.5-12.7 19.7-16.6 7.3-1.8-5.7 5.3-10.2 9.8-6.3 5.2 4.6-0.8 13.1-6.9 9.7-10.3-5.8 11.6-29.3 15.5-34.4 41.7-54.8 108.7-83.8 143-145 33-58.9 43.2-141.3 43-208 0-5.6 6.9-9.6 7.9-2.5z"  fill="#fff500" /><path d="M502.1-76.6c-7.1 25.3-54.4 147.9-75.4 155.6-9 3.3-11.1-12.4-1.6-11.6 9.5 0.8 4.9 16-3.5 11.2-10.2-5.7 15.9-36.5 19.9-42.9 22.8-36.5 37-74.6 51-115.1 2.2-6.3 10.7-3.5 9.6 2.8z"  fill="#fff" /><path d="M510.1-18.9c-3.8 17.1-26.6 92.3-42.1 97.9-9.1 3.3-11.1-12.6-1.6-11.7 9.6 0.8 4.8 16.1-3.5 11.3-9.5-5.4 12.1-31.5 15.4-38 7.6-14.6 15.4-54.5 23.4-63.8 3.5-4 8.9-0.3 8.4 4.3z"  fill="#005bbb" /><path d="M532.9-399c17.2 87.3-0.3 218.7-16.4 306.5-2.3 12.6-15.5 99.9-29.2 98.9-8.3-0.6-4.4-13.9 2.9-9.8 8.6 4.7-4.6 15.5-7.5 6.2-3.5-11.2 12.3-42.3 15.3-54.4 9.1-37 15.5-74.6 19.8-112.4 8.4-72.3 18.4-148.5 10-221.1-0.2-1.9 1.3-26.3 5.1-13.9z"  fill="#005bbb" /><path d="M526.1-126.4c-7.4 60.8-15.9 125.8-45.2 180.4-3.3 6.1-11.6 28.1-20.5 25.4-9.2-2.9-1.2-16.7 5.9-10.3 7.1 6.5-5.9 15.7-9.7 6.9-2.9-7 25.6-48.6 32.1-66.5 16.2-44.2 20.7-91 28.5-137.1 1-5.8 8.9-4.5 8.9 1.2z"  fill="#fff" /><path d="M534.1-208.6c-7.2 88-11.4 188.8-55.5 267.5-3 5.3-7.9 18.3-13.9 20.4-7.8 2.8-11.5-9.7-3.5-11.6 9.4-2.3 9.7 13.7 0.2 11.9-13.2-2.6 7.5-27.4 10.3-32.3 13.6-24.3 22.6-50.4 28.9-77.4 5.8-24.8 22.3-176.2 25.5-181.2 2.6-4.1 7.8-1.5 8 2.7z"  fill="#fff500" /><path d="M542.6 25.3c-2.2 9-15.2 57.5-28.1 53.7-7.8-2.3-3.5-14.5 4-11.3 7.5 3.2 1.9 14.8-5.2 10.8-5-2.8 16.2-55 21.8-58.7 4.1-2.7 8.1 1.3 7.5 5.5z"  fill="#c2e1ff" /><path d="M549.9-93.1c1.4 52 5.3 106.1-18.1 154.4-2.3 4.8-5.8 15.5-11.2 17.5-7.6 2.9-11.6-9.4-3.7-11.4 9.2-2.4 9.9 13.4 0.5 11.7-11-2 16.6-46.5 21.4-72.3 6.1-32.6-3.2-70.7 3.3-100.6 1-4.7 7.2-3.5 7.8 0.7z"  fill="#c2e1ff" /><path d=""  fill="#fff500" /><path d=""  fill="#fff" /><path d=""  fill="#c2e1ff" /><path d="M581.6-149.7c1.8 8.2 21.9 72.7 17.7 73.6-3.4 0.8-5.2-4.1-2-5.6 3.7-1.8 6.2 4.1 2.3 5.5-6.1 2.2-8.5-16.8-9.6-20.4-4.9-15.4-15-36.2-14.9-52.4 0-4 5.2-4 6.5-0.7z"  fill="#fff500" /><path d="M589.5-93.8c9.4 35.1 27.5 155.3 1 171.9-7.2 4.5-11.9-8.8-3.5-9.8 7.2-0.9 8 10.5 0.7 10.6-11.8 0.2 0.7-23 2.1-27.7 4.9-16.5 3.9-31.6 4.2-48.8 0.2-15.3 0.8-30.7 0.9-46.1 0.1-16.7-11.2-32.9-11.6-49.2-0.1-3.8 4.9-4 6.2-0.9z"  fill="#c2e1ff" /><path d="M599.6-375c-21.4 49.1-20 108.2-11.3 160 1.1 6.8 13.6 54 10.3 54-3.8-0.1-3.3-6 0.4-5.6 3.2 0.4 3.1 5.3-0.1 5.5-5.3 0.5-8-15.9-9.1-19.6-15.4-48.9-19.4-104.8-11.5-155.4 8.8-55.7 23.6-47.8 21.3-38.9z"  fill="#005bbb" /><path d=""  fill="#005bbb" /><path d="M580.7-397.4c-22.8 81.2-21.2 176.6-7 259.2 1.7 10 21.3 91.7 15.4 92.4-4 0.5-5.3-5.4-1.6-6.7 4.4-1.6 6.5 5.6 1.9 6.7-6.6 1.5-10.1-32.7-11.3-38.2-21.9-98.2-31.9-203.7-10.1-303.1 6.2-28.2 13.9-19.5 12.7-10.3z"  fill="#fff" /><path d="M603.7-384c-25.8 50.7-24.7 114-15.5 168.9 1.1 6.9 13.7 54.7 10.5 54.6-3.2-0.1-3.7-4.9-0.5-5.5 3.7-0.7 4.6 5.2 0.8 5.5-4.9 0.4-6.2-10.6-7.3-13.8-17.6-51.6-22.1-111.6-12.9-165.3 2.6-14.8 5.8-38.2 15.5-50.3 4.3-5.3 11.3 0.1 9.4 5.9z"  fill="#fff500" /><path d=""  fill="#fff" /><path d="M603.7-366.3c-17.6 40.3-17.6 87.2-11.3 130.1 0.9 5.8 11.1 45 6 44.6-3.4-0.2-3.6-5.4-0.2-5.8 3.4-0.5 4.7 4.5 1.5 5.7-6.6 2.5-11.4-28.7-12.3-33.4-8.6-41.9-10.4-87.6 1.1-129.2 1.4-4.9 2.7-16.2 7.7-18.8 4.7-2.4 8.6 2.3 7.5 6.8z"  fill="#005bbb" /><path d=""  fill="#005bbb" /><path d=""  fill="#fff" /><path d="M603.6-340.9c-6.8 23.1-8.1 47.7-6.3 71.7 0.6 8 7.6 28.7 4.4 35.5-2.2 4.7-9.1-0.5-5.1-3.9 4.7-4 8.1 6.2 1.9 5.8-16-0.9-10.5-100.9-4.1-112.6 2.9-5.3 9.9-1.8 9.2 3.5z"  fill="#fff" /><path d=""  fill="#c2e1ff" /><path d=""  fill="#c2e1ff" /><path d=""  fill="#fff500" /><path d=""  fill="#005bbb" /></svg>