<svg width="1200" height="675" viewBox="-500 -500 1200 675" xmlns="http://www.w3.org/2000/svg"><path d="M-500-500h1200v675h-1200z" fill="#000"/><path d="M-396.8-365c22.7 21.9 43.4 45.8 66.2 67.6 60.1 57.4 85.9 81 112.5 162.2 1.9 5.7 13.9 27.3 8.5 31.7-5.1 4.1-10-5.7-3.6-7.3 7.5-1.9 5.7 11.4-1.1 7.7-7.6-4.3-38.5-102.9-51.3-121.8-32.3-47.2-87.4-89.4-127.9-130.8-0.1-0.1-9.9-14.4-3.3-9.3z"  fill="#c2e1ff" /><path d=""  fill="#c2e1ff" /><path d="M-397.1-397.3c28.3 27.6 143.8 142 160.4 165.8 20.8 29.9 30.5 65.1 47.6 96.9 1.4 2.5 9.5 11.3 4.4 14.2-3.3 1.9-6.5-2.7-3.8-5.2 3.2-2.9 7.6 2.4 4.1 5-4.3 3.1-61-113.3-69.9-124.9-22.6-29.2-106.8-108.9-139.5-142.5-0.1-0.1-9.9-14.5-3.3-9.3z"  fill="#fff500" /><path d=""  fill="#c2e1ff" /><path d="M-378.8-400c32.1 36 138.2 143.8 155 170.6 16.3 26.1 25.9 55.4 40.8 82.2 2.2 4 19.1 24.4 15.2 27.3-3.2 2.4-6-3.7-2.1-4.5 4-0.8 3.9 5.9 0 5-14.2-3.2-60.1-109.4-74.3-128.8-31.1-42.5-93.4-96.8-132.4-141.9-0.3-0.4-9.3-16.3-2.2-9.9z"  fill="#005bbb" /><path d=""  fill="#fff500" /><path d="M-396.9-315.9c35.7 39.8 82 79.9 104.3 129.3 26.7 58.8 2.1 121.3 15.9 181.9 2.9 12.8 29.3 61.3 28.8 66.1-0.6 5.4-9.2 2.5-6.4-2.2 3.3-5.5 10.1 3.4 3.9 5.1-6.9 1.9-18.2-25.8-20.9-30.8-38.5-72.6-4.3-140.3-27.6-211.9-16.9-52.3-64.2-91.8-99.6-131.9-2.2-2.5-2.7-9.3 1.6-5.6z"  fill="#fff500" /><path d="M-350.2-400.1c38.3 53.4 87 95.1 124.6 146.5 26.6 36.4 37.7 82 66.1 117.1 1.9 2.3 16.7 14.9 14 17.5-1.7 1.7-4.2-1.1-2.3-2.6 1.9-1.5 4.1 1.6 2 2.9-4.1 2.6-18.6-15.9-21.1-18.7-28.8-33-39.9-76.5-63.8-112.6-33.7-50.8-83-89.9-119.1-139.4-1.2-1.7-7.6-18.5-0.4-10.7z"  fill="#fff500" /><path d="M-392.9-400.1c23.6 23.9 45 49.8 68.5 73.9 28.9 29.7 62.9 54.9 87.5 88.6 27.7 38 37 86.1 66.1 123.2 5.7 7.3 64.5 60.7 64.1 61-2.1 1.9-4.9-1.5-2.7-3.2 2.3-1.7 4.7 2.1 2.3 3.4-3.4 2-8.8-6.6-10.5-8.1-25.7-23.7-54.5-41.7-73.8-71.7-22.4-34.9-32.2-76.1-56.7-109.9-26.2-36-101.6-104.6-138.1-143.8-0.3-0.3-14-19.3-6.7-13.4z"  fill="#fff" /><path d="M-381.7-256.7c98.6 124.2 42.7 150.1 6.1 276.3-2.7 9.4-4 59.5-12 59.9-9.2 0.5-6.7-14.7 1.9-11.2 10.1 4.1-3 17.7-7.5 7.8-23.8-52.2 46.5-152.8 53.2-208.9 3.3-27.5-3.1-54.1-16.5-78-8.3-14.8-23.1-27.9-29.9-43.1-1.4-3.1 2.6-5 4.7-2.8z"  fill="#c2e1ff" /><path d="M-362.9-63.8c-4.8 9.9-25.7 62-41 51.6-10.6-7.3 1.7-23.4 11.5-15 9.8 8.4-4.2 23.1-13.1 13.7-8.8-9.3 24.3-64.8 35.6-63.5 6.8 0.8 9.1 7.5 7 13.2z"  fill="#005bbb" /><path d="M-356.3-355.6c37.9 41.8 86.8 76.5 119.3 122.7 27.1 38.4 36 86.5 65.2 123.6 21.4 27.2 53 43.7 74.4 70.7 5.4 6.8 26 35.6 17 44.1-9 8.5-13.7-13.4-2.1-9.5 7.8 2.7-4.7 21.3-8.2-0.5-8.3-51-62.7-72.7-92.1-109.9-26.1-33-35.6-74.6-56.8-110.4-29.3-49.4-79.6-83.5-118.1-125.3-2.2-2.4-2.9-9.1 1.4-5.5z"  fill="#fff" /><path d="M-343.7-321.5c33.4 34.3 74.6 62.6 100.7 103.3 25.3 39.6 32.3 87.9 59.1 126.7 29.5 42.7 78.3 69.2 83 125.8 0.5 6.6 2.2 17.1-0.7 23.3-4.1 8.8-17.5 1.6-12.5-6.7 5.8-9.7 19.4 3.3 10 9.6-15.6 10.5-9.1-50-19-70.6-16.5-34.3-50.7-55.9-72-86.8-21.9-31.6-30.4-69.1-46.6-103.5-22.8-48.6-65.4-79.3-102.7-115.9-2.1-2-3.4-8.4 0.7-5.2z"  fill="#fff500" /><path d="M-330.9-276.4c25.7 24.8 52.6 49 69.3 81.1 28.4 54.9 24.7 119.1 56 173.6 6.5 11.2 60 92.1 41.2 100.3-8.3 3.6-11.2-11.2-2.2-11 10.6 0.2 3.4 17.3-4.2 9.8-3.9-3.9-11.7-43.7-16.6-53.7-11.9-24.3-28.3-46.2-40-70.6-18.3-38.2-21.1-79.9-32.6-120.1-11.7-41-37-71.4-67.2-100.4-0.1-0.1-10.2-13.9-3.7-9z"  fill="#c2e1ff" /><path d=""  fill="#005bbb" /><path d="M-300.8-154.7c10.8 56.9-19.6 111.8-12.2 168.7 1.9 14.8 22.9 52.7 22.3 59.8-0.5 6.1-10 1.3-5.5-2.7 4.6-4.1 8.2 5.9 2.1 5.8-13-0.4-27.3-50.2-29.5-60.4-10.1-45.8 6.4-90 11.1-135.2 1.1-10.7-2.9-27.7 0.7-37.3 2.2-5.9 9.7-3.9 11 1.3z"  fill="#fff" /><path d="M-292-254.5c55.9 53.9 54.8 110.7 86.1 175.4 23.2 48 68.4 82.4 73.7 138.5 0.5 5.3 3.1 16.6-2.8 20.1-9.2 5.6-15-11.4-4.3-12.5 12.5-1.4 6.7 19.8-3.3 12.1-1.6-1.2-6.6-59.3-20.5-82.8-18.6-31.4-44.2-57.2-58.8-91.1-17-39.5-21.7-83.4-44.5-120.5-8.2-13.3-18.2-24.7-28.7-36.2-1.9-2.1 0.9-4.6 3.1-3z"  fill="#c2e1ff" /><path d="M-279.3-296.4c73.7 69.5 61.1 97.2 108.7 163.8 45.1 63 128.9 71.7 106.2 170.2-2.4 10.5-6.9 38.1-16.9 43.6-14.3 7.9-17.9-20.3-2.1-16.2 15.8 4.1-1 27-9.6 13.2-1.7-2.8 32.4-83.8 8.8-123.8-22.1-37.4-67.8-53.6-94.2-87.9-37.3-48.5-47.8-104.3-93.4-150.1-0.3-0.3-14.4-18-7.5-12.8z"  fill="#fff500" /><path d="M-266.2-293.5c58.5 57.8 59 99.7 100.6 155.8 46 61.8 131.4 69.9 107.9 168.5-2.8 11.8-8.7 44.4-20.4 50.5-14.7 7.7-17.6-21-1.7-16.4 18.8 5.3-7 29.5-11.1 10.4-4.4-20.5 43.3-68.7 16.1-122.5-20.5-40.4-70.1-56.3-98-90.9-34.2-42.3-46.2-96.9-83-138.1-0.9-1-17.7-23.1-10.4-17.3z"  fill="#005bbb" /><path d="M-251.3-197.7c20.8 39.3 24 84.9 43.1 125 22.8 48.1 66.7 83.9 70.3 140.2 0.9 13.6-14.1 15.9-12.8 5.3 1.7-14.3 22.3 1.8 8.9 6.9-13.3 5.1-5.3-39.5-25.4-76-15.7-28.6-38.3-52.6-52.5-82.2-16.5-34.4-21-72.6-35.3-107.7-1.2-3-3-22.3 3.7-11.5z"  fill="#fff500" /><path d="M-238.1-192.6c15.9 33.3 22.2 70.3 39.7 102.9 26.3 48.8 76.9 80.5 80.9 140 0.5 7.2 3.6 25.4-4.5 29.4-10.3 5.1-14.9-13.5-3.4-13.8 13.5-0.3 5.3 21.7-4.7 12.7-0.8-0.7-1.1-55.4-8.2-72.7-17.2-41.9-56.7-69.8-76.4-110.8-11.9-24.8-26.9-58.3-31.3-85.4-0.8-5 5.6-6.2 7.9-2.3z"  fill="#fff" /><path d="M-225-53.7c5.6 15.5 74.2 124 56.7 132.2-6.9 3.2-11.3-7.9-4.2-10.4 7.2-2.4 10.4 9.1 3.1 10.8-9.9 2.2-9.6-20.8-11.2-26.1-10.2-34.7-47.8-72-52.7-104.1-0.8-5.2 6-6.4 8.3-2.4z"  fill="#005bbb" /><path d="M-170.9-400c21.2 72 14 161.3 61.2 223.4 22 29 55.2 46.7 77.2 75.6 2.1 2.8 12.8 13.6 5.7 16.8-5.6 2.5-7.7-7.5-1.5-7.4 5.3 0.1 4.7 8.4-0.5 7.7-6-0.7-16.5-24.6-21.2-29.9-32.3-36.5-72.9-58.4-92-105.8-7.3-18.3-42.7-172.4-38.2-181.4 2.2-4.4 7.7-3 9.3 1z"  fill="#005bbb" /><path d="M-200.3-55.8c17.3 30.1 73.9 94 61.3 131-3.3 9.8-18 0.9-10.9-6.6 7.1-7.5 16.7 6.7 7.1 10.5-10.6 4.2-14.6-51.1-18.7-60.9-10.7-25.1-36.7-46-45-71.1-1.3-4 3.8-5.7 6.2-2.9z"  fill="#005bbb" /><path d="M-187.2-146.8c25.1 48.6 77.9 66.9 105.7 111.4 17.2 27.6 14.2 119.8-9 117.2-9.9-1.1-9.9-16.1 0.2-17.2 10-1 13.1 13.6 3.5 16.8-5.7 1.9-11.7-2.7-11.3-8.7 2.1-34.7 32.3-56.3 9.7-105.1-16.9-36.4-57.7-53.5-83.8-82-7.1-7.8-18.6-19.3-21.6-29.6-1.2-4.2 4.3-5.9 6.6-2.8z"  fill="#c2e1ff" /><path d="M-173.4-261.6c13.8 33.8 24.5 69.5 48.9 97.5 60.5 69.5 139.9 76.3 87.6 193.7-5.5 12.2-16.6 47.1-29.5 52.5-16.1 6.7-16.6-23.6-0.3-17.4 19.2 7.3-10 30.3-12.6 9.9-2.9-22.9 57.9-81.1 43.1-139.1-13.8-54.2-78.3-74-108.8-117-16.4-23-27-50.5-36.5-76.9-1.9-5.4 5.5-8 8.1-3.2z"  fill="#c2e1ff" /><path d="M-162.3-152.8c48.2 70.3 146.3 73.1 111 185.1-3.7 11.6-10.9 43.6-22.7 49.3-15.2 7.4-17.3-21.9-1.2-16.8 18.9 6-8.1 29.8-11.6 10.3-3.2-17.5 40.1-70.3 27.5-117.3-12.3-45.9-63.2-62.5-94.4-92.8-19.5-18.9-10.6-19.9-8.6-17.8z"  fill="#fff" /><path d="M-149.8-39.6c22.8 24.5 39.5 52.3 40.8 86.5 0.3 7.6 3.2 33.2-8.6 34.2-10.2 0.8-10.7-15.3-0.4-15.1 8.8 0.2 9.8 13.3 1.2 15-14.2 2.7-5.4-53.9-7.6-64.1-4.4-20.2-40.7-70.3-25.4-56.5z"  fill="#c2e1ff" /><path d=""  fill="#fff" /><path d="M-120.6-239.2c13 76.8 86 96.1 108 161.3 19.8 58.5-46 163.6-56.5 160.6-10.6-3-7.8-19.3 3.2-18.6 11 0.7 11.8 17.2 0.8 18.9-6.5 1-12.2-5.1-10.7-11.5 8.8-38.7 62.9-76.4 54.6-140.4-6.9-53.3-61.2-78.5-88.8-119.6-8.5-12.6-21.4-33.7-21.1-49.6 0.1-6.5 8.5-6.5 10.5-1.1z"  fill="#fff" /><path d="M-98.4-397.7c-1.6 69.2-36.5 140.2 0.5 206.3 17.9 32 98.3 91.4 90.6 128.3-2.2 10.7-18 0.2-9-6 7.6-5.3 13.5 9 4.3 10.6-8.8 1.5-15.3-39.5-20.1-47.6-29.2-48.4-80.3-72.6-92.4-132.3-7.6-37.6 1.3-124.8 12.9-161.8 2.5-7.9 12.8-4.9 13.2 2.5z"  fill="#fff" /><path d="M-91.8-397.8c-3.5 67.5-39.7 135.1-7 201.1 26.9 54.4 94.9 81.7 93.5 149.8-0.1 6 0.8 17.5-4.3 21.9-7.9 6.8-18-6.3-9.4-12.2 10.1-6.9 17.6 11.9 5.7 13.9-13.8 2.3-3.5-49.8-11.1-68.9-22.8-57.5-86-81.9-98.2-147.2-7.1-38.1 4.6-124.4 17.4-161.3 2.8-8 13.2-4.6 13.4 2.9z"  fill="#fff" /><path d=""  fill="#fff500" /><path d="M-70-396.7c-9.8 66.7-54.9 130-23.8 198.2 23.7 51.9 85.3 78.9 89.9 140.4 0.5 7.2 1.9 19.3-1.8 25.8-5.8 10.4-20.6-2.7-11-9.7 9.6-7 17.6 11.1 5.9 13.4-13.3 2.6-4.9-49.2-13.3-68.5-24.9-57.2-86.3-82.4-92.8-150.5-2.3-24.5 20.8-138.9 33.8-155.2 5.1-6.4 13.6-1.1 13.1 6.1z"  fill="#005bbb" /><path d=""  fill="#c2e1ff" /><path d="M-40.7 12.3c-2.8 11.5-21.8 79.3-39.2 68.9-10.7-6.4 0.3-22.7 10.3-15.2 9.9 7.5-2.8 22.5-11.9 14-8.8-8.4 6.8-27.2 10.5-35 4.3-9.1 10.1-39.3 20.1-42.6 6.5-2.1 11.1 3.9 10.2 9.9z"  fill="#005bbb" /><path d=""  fill="#fff" /><path d="M-18.3-81.4c16.9 37.1 3.2 77.5-14 111.6-5.3 10.5-22.8 56.5-37.4 52.3-14.5-4.1-2.7-26.1 8.7-16.3 11.4 9.8-8.5 24.8-14.8 11.2-6.2-13.4 27-54.5 33.4-67.4 22.6-45.4 15-90.2 15.7-91.8 1.8-4.1 6.8-3.1 8.4 0.4z"  fill="#fff" /><path d="M-2.8-48.3c-0.3 18.4-45.4 145.4-68 129.6-9.1-6.4-1.1-20.9 9.2-16.7 12 5 3.1 23.4-8.3 17.2-15.4-8.5 15.8-45 21-54 9.8-16.9 19.6-34.2 26.1-52.6 2.7-7.5 2.5-23.8 8.5-29.3 5-4.6 11.4-0.1 11.5 5.8z"  fill="#fff500" /><path d="M10.7-46.2c-3 18.2-58.3 142-78.3 127.3-9.1-6.7-0.6-21.2 9.6-16.6 12 5.3 2.6 23.8-8.8 17.2-15.4-8.9 15.8-43.1 21.5-52 16.1-25.2 42.1-82.6 44.1-84 6.2-4.3 12.6 1.6 11.9 8.1z"  fill="#005bbb" /><path d=""  fill="#005bbb" /><path d="M36.2-76.9c-3.9 46.3-34.3 84.1-60.5 120.4-6.3 8.7-25.5 48.5-39.3 37.7-9-7 0-21.6 10.3-16.6 12 5.8 1.9 24.3-9.4 17.2-16.1-10 25-53.6 31.8-63 14.6-20.2 30-40.2 40.9-62.7 4.7-9.7 6.6-33.2 14.4-39.7 5.5-4.5 12 0.6 11.8 6.7z"  fill="#c2e1ff" /><path d="M48-124.4c2.5 25.6 0.9 51.1-8.3 75.3-7 18.6-84.8 144-101.5 130.5-10.5-8.5 3.7-24.3 13.2-14.7 8.1 8.2-2.7 21.6-12.3 15.4-17.1-10.9 63.7-101.6 73.2-117 28.4-45.6 16.6-74.9 24.1-91.6 2.7-6.1 10.5-3.6 11.6 2.1z"  fill="#fff500" /><path d="M51.9-394.7c-24.4 65.6-119.8 97.8-117 174.1 2.2 59.6 66.8 93.4 69.8 153.3 0.6 11.7-19 4.9-11-4 9.2-10.4 16.7 13.7 3.2 10.3-8.6-2.1-9.5-40-13.4-49-22.6-51.3-75-87.1-58.1-149.9 12.7-46.9 55-73.4 86.1-107.3 8.4-9.2 18.2-34.4 28.9-39.1 7.9-3.5 13.7 4.6 11.5 11.6z"  fill="#fff" /><path d="M75.2 2.1c-11 11.1-87.9 75.7-98.8 81.1-4.3 2.1-9.6 1.1-12.8-2.5-9.8-10.9 8.2-25.4 16.8-13.5 8.6 11.9-10.9 24.4-18.2 11.6-7.1-12.6 85.7-90.9 102.7-95.4 11.7-3.1 17.1 10.7 10.3 18.7z"  fill="#c2e1ff" /><path d="M87.1-154c-2.2 106.3-19.4 121.3-91.3 195.1-9.7 9.9-26.5 38.8-39.8 42.1-15.8 3.8-16.4-23.1-0.4-20 15.9 3.1 5.2 27.8-8 18.3-13.5-9.8 9.9-29.3 15.8-36.2 28.2-32.9 64.8-60.1 88.9-96.3 31.6-47.7 12.1-65 22-104.6 1.9-7.7 12-5.4 12.8 1.6z"  fill="#005bbb" /><path d="M101.5-345c-31.8 47.6-115.6 72.5-123.2 133.7-4.4 35.3 19.3 65.7 30.6 97.3 17 47.9 1.7 92.3-23.8 133.7-4.5 7.3-12.7 28.7-24.4 25-14.6-4.6-1.9-26.7 9.5-16.3 11.3 10.3-9.5 25-15.4 10.9-2.4-5.7 35.1-64.7 40.2-77.8 31.6-80.1-52.1-134.7-24.2-205.6 16.6-42.2 61-61.9 93.1-90.2 8-7 16-21.3 25.4-25.7 10-4.7 17 6.8 12.2 15z"  fill="#005bbb" /><path d="M112.6-146.4c6.7 118-19.8 131.1-105.3 200.9-8.6 7.1-30 35.6-42.5 28.6-14.9-8.3 3.8-29.5 13.9-15.7 11.8 16.1-21.9 24.8-19.4 5 2.8-21.9 93.9-79.1 113-100.7 46.8-52.9 17.8-96.2 28.6-120.2 2.8-6.2 10.6-3.6 11.7 2.1z"  fill="#fff" /><path d="M124.3-395.6c-25.9 91.5-140.2 121.6-147.1 184.8-6.5 60.3 52.8 100.9 35.5 170.1-2 8.1-4.4 21.4-10.4 27.6-9.7 10.2-22.9-9.2-9.7-14.4 15.4-6.1 15.3 22.7-0.1 16.6-10.7-4.3 10.8-54 11-69.8 0.5-55.6-53-100.1-36.1-157 15.8-53.4 75.9-73.5 110.6-111.9 9.7-10.7 27.5-51.9 34.4-55.8 7-4 13.3 3 11.9 9.8z"  fill="#fff500" /><path d="M139.4-48.8c-5.8 58.1-84.9 147.4-106.2 131.8-12.6-9.1 2.9-28.2 14.4-17.7 11.5 10.5-5.9 27.7-16.3 16-14.1-15.9 45.3-51.1 55.3-60.9 12.1-12 22.4-25.8 29.3-41.4 3.9-8.7 4.6-28.7 11.8-34.6 5.5-4.5 12 0.6 11.7 6.8z"  fill="#fff500" /><path d="M153.1-364.4c-28.5 68.2-111.2 128.9-119.1 173.8-5.4 30.9 6.3 61.7 7.1 92.5 1 43-18.9 79.6-43.5 113.5-5.5 7.6-15.9 30.2-27.9 25.5-14.8-5.7-0.3-27.6 10.7-16.2 11 11.4-11.3 25.2-16.6 10.2-1.5-4.3 46.9-73.7 53.2-88.1 24.6-56.4-11.9-113.8 9.5-169.1 15.4-39.8 53.5-64.7 79.2-97.3 10.2-13 23.7-47.2 34.1-55.3 7.6-6 15.9 2.5 13.3 10.5z"  fill="#c2e1ff" /><path d="M165.2 3c-1.3 13.4-10.8 83-30.8 79.1-12.1-2.3-7.3-21.1 4.4-17.5 11.7 3.6 5 21.8-6.3 16.9-13-5.6 1.9-24.8 5-32.1 5.1-12.1 6.9-45 15.9-52.8 5.3-4.6 11.8 0.3 11.8 6.4z"  fill="#005bbb" /><path d=""  fill="#005bbb" /><path d="M188.2-135.5c52.3 151.7 45.5 214.7 32.1 216.2-11.6 1.3-9.6-18 1.5-14.3 11.1 3.7 1.2 20.4-7.3 12.4-1.5-1.4 1.1-58.2 0.3-67.9-2.9-35.5-11.1-70.5-21.9-104.3-2.5-7.8-17.7-36.4-12.7-43.3 2.3-3.2 6.5-1.9 8 1.2z"  fill="#005bbb" /><path d="M177.8-395.6c-11.8 31.8-25.2 63.3-43.3 92.1-23.7 37.8-63.5 70.4-74.1 115.1-3.5 14.7 2.8 144.1-20.6 133.9-9-3.9-4.7-18 5-16.1 9.7 1.9 8.4 16.6-1.5 16.8-16.1 0.4-4-21.9-2.3-28.1 12.5-45.2-5.4-92.6 12.1-137.1 15.9-40.6 50.9-70.8 73.3-107.7 14.4-23.7 21.1-54.5 36.6-76.8 5.9-8.5 17.1-1.1 14.8 7.9z"  fill="#fff500" /><path d="M216.9-276c-12.7 71.9 31.5 201.2 34.6 290.6 0.4 10.6 6.1 63.9-8.1 65.7-11.4 1.5-9.8-17.6 1.2-14.1 11 3.4 1.5 20.1-7.1 12.3-0.1-0.1 1.3-69.8 0.9-80.3-3.5-78.3-30.3-151.6-36.7-228.9-1.2-14.1-4-35.4 1.2-48.9 3.2-8.2 14-4.3 14 3.6z"  fill="#fff" /><path d=""  fill="#005bbb" /><path d="M241.1-169.8c3.7 26.5 35.9 246.2 7 250.1-11.4 1.5-9.8-17.5 1.3-14.1 11 3.4 1.5 20-7.1 12.3-8.4-7.6 1.9-59.1 1.8-71.8-0.3-35.7-15.7-162-14.3-176.3 0.7-6.9 9.7-6.2 11.3-0.2z"  fill="#c2e1ff" /><path d="M254.5-130.4c1.9 27.2 11.5 197.8 0.1 209.1-8.2 8.1-18.4-8.1-7.6-11.9 10.8-3.9 13.3 15.1 1.9 14-3.2-0.3-5.9-2.7-6.6-5.9-3.6-19.2 4.3-46.4 4.5-66.5 0.3-46.1-3.4-92-4.5-138-0.2-8 10.7-8.3 12.2-0.8z"  fill="#c2e1ff" /><path d="M268-194.7c-2.4 58.7-3.7 117.4-4.3 176.1-0.2 22.1 4.6 77-4.6 95.3-6 12.1-21.6-5.5-9-10.1 10.8-3.9 13.3 15 1.9 14-4.1-0.3-7.2-4.2-6.6-8.2 13-86.3 6-177.4 9.1-264.6 0.3-9.6 12.5-13.7 13.5-2.5z"  fill="#fff500" /><path d="M281.5-274.8c-14.9 77.7-14.9 160.4-16.5 239.4-0.5 25.8 5.4 90.9-5.2 112.1-5.2 10.3-20-1.7-11-8.9 10.5-8.4 17.3 14 3.9 12.9-12.6-1.1-1.8-62.9-1.6-73.9 2.2-89.9 1.7-181.1 13.7-270.4 0.7-5.4 0-16.3 6.3-19.1 5.8-2.7 10.7 2.4 10.4 7.9z"  fill="#fff" /><path d="M294.5-199.4c-11.7 55.6-21.4 111-24.7 167.8-1.5 25.6 3.5 87.5-7 108.4-5.1 10.3-20-1.7-11-8.9 10.5-8.4 17.3 14 3.9 12.9-13.5-1.1-2-54.8-1.5-64.5 3.4-73.4 7.2-147.3 25.5-218.9 2.5-9.7 15.7-6.4 14.8 3.2z"  fill="#fff500" /><path d="M297.3-394.6c-61.6 137.5-45.3 171-39.5 314.9 0.5 13.1 8.5 109.5-4.9 108.5-7.6-0.5-8-11.9-0.5-13.1 8.8-1.3 10.1 12.7 1.2 13.1-12.7 0.5-6.6-35.6-6.7-42.8-1-87.5-21.2-204.4-3.5-287.2 6.7-31.2 18.8-77 39-102.5 6.7-8.5 17.8 0 14.9 9.1z"  fill="#fff" /><path d="M320.4 40.6c-2 8.1-1.8 38.5-12.1 40.1-9.6 1.4-11-13.8-1.4-14.2 11.3-0.4 8 18-2.4 13.7-10-4.1-3.7-49.9 9.1-48.8 4.9 0.4 7.2 4.7 6.8 9.2z"  fill="#005bbb" /><path d="M333.9-163c-33.9 54-51.3 108.5-57.1 171.9-1 10.5 0.1 74.3-14.6 71.4-9.6-1.9-5.9-16.9 3.5-14 9.4 2.9 4 17.4-5 13.6-8.8-3.8 2.9-200.2 58.4-254.7 8.3-8.2 19.1 2.4 14.8 11.8z"  fill="#fff500" /><path d="M345.6-307.3c-6.6 91.9-57.6 171.8-69 263-1.9 15.1-4.4 127.2-18.3 124.5-8.2-1.6-7.2-14.1 1.2-14.3 9.8-0.3 9.4 15.2-0.4 14.4-13-1.1-0.8-70.8-0.1-82.1 9.2-146.2 56.5-187.3 71.1-292.8 0.7-5.3-0.6-16.2 5.2-19.5 5.2-2.9 10.2 1.5 10.3 6.8z"  fill="#fff" /><path d="M359.6 28.9c-4.2 9.7-6.9 46-15.2 50.5-9.7 5.3-14.8-12.4-3.8-13.1 11-0.7 8.3 17.4-2.1 13.5-11.5-4.4-1.1-65.7 15-62 5.3 1.2 7.2 6.3 6.1 11.1z"  fill="#005bbb" /><path d=""  fill="#fff500" /><path d="M384.4-95.7c-38.4 28-67.1 59-79.8 106-2.7 10-8.4 77-21.9 69.4-8.5-4.8-0.3-17.8 7.6-12.1 7.9 5.7-1.7 17.7-8.9 11.2-7.3-6.5 0.9-30.8 2.1-39 9.1-62.3 32.9-118 87-154.1 12.8-8.5 24.5 8.5 13.9 18.6z"  fill="#fff" /><path d="M397.4-115.9c-41.3 33.3-78.3 60.7-94.1 114-5.3 17.9-9 90.4-24.3 81.8-7.3-4.1-2.4-15.6 5.6-13.1 9.4 2.8 4.1 17.3-4.9 13.5-9.8-4.2-1.7-27.6-0.7-34.9 10-75.6 36-127.7 97.2-174.1 15.6-11.8 36.8-2.8 21.2 12.8z"  fill="#005bbb" /><path d="M407.4-333.5c62.9 157.6-64.5 166.6-107.5 282.7-9.7 26.2-19.6 124.6-24.1 129.1-8.1 8.1-18.3-7.9-7.6-11.8 12.6-4.6 12 18.7-0.4 13.4-10.4-4.5-1-33.7-0.1-42.1 5.8-53.6 13.5-107.4 45.3-152.6 24.4-34.7 62-59 82.9-96.2 11.1-19.8 16.1-42.2 15.1-64.8-0.9-19.6-10.1-36.9-12.2-55.7-0.6-5.4 6.4-6.3 8.6-2z"  fill="#c2e1ff" /><path d="M423.5-117.8c-38.6 38.6-87.3 58.6-108.7 112.6-8 20.1-14.4 92.7-28.2 85-8.5-4.8-0.3-17.8 7.6-12.1 7.9 5.6-1.6 17.7-8.9 11.2-7.8-6.9 1.5-35.1 2.9-43.9 10.6-64.6 40-109 92.5-147.4 9.8-7.2 19.6-17.5 30.2-23.3 11.9-6.4 20.4 8.8 12.6 17.9z"  fill="#fff500" /><path d=""  fill="#c2e1ff" /><path d=""  fill="#c2e1ff" /><path d="M457-366.7c47.9 56.8 92.7 217.3 88.2 291.5-3 48.7-25.2 93.6-26.9 142.5-0.5 15.1-16.2 10.5-12.3 1.8 5.8-12.7 20.2 8.1 6.2 9.1-12.1 0.7-6.7-26.7-6.2-32.6 4.9-61.7 33.3-115.7 24.1-179-8.4-57.3-31-149.6-58.1-200.2-4.7-8.8-18.2-21.6-19.8-30.9-0.5-2.9 3-4 4.8-2.2z"  fill="#005bbb" /><path d="M471-333.7c38.5 64.5 58.1 186 40 258.8-8.3 33.4-25.5 63.4-35.3 96.3-2.7 8.8-4 57.7-12.7 57.9-9.5 0.2-6.4-15.3 2.2-11.5 8.7 3.8-0.6 16.6-6.9 9.5-20.3-22.9 43.8-163.8 46.2-207 3.3-61.5-9.7-136.8-36.1-192.6-1.1-2.3-4.5-21.4 2.6-11.4z"  fill="#c2e1ff" /><path d=""  fill="#005bbb" /><path d="M499.5-210.5c3.7 34 3.5 69-6.1 102.1-14.7 50.8-54.5 86-75.6 133.3-3.8 8.6-9.9 59-20.5 54.6-8.1-3.3-2.2-15.8 5.5-11.7 9 4.9-2.1 17.7-8.2 9.5-3.3-4.4-1.4-13.8-1.1-18.5 4-62.6 52.1-102.1 77.4-155.6 20.9-44.2 11.8-102.7 17.2-115.5 2.6-6.1 10.2-3.8 11.4 1.8z"  fill="#c2e1ff" /><path d="M512.4-173.5c9.5 92.9-25.9 122.1-48.6 202-2.5 8.7-1.8 47.7-9.4 50.5-7.7 2.7-11.4-9.6-3.4-11.5 9.3-2.2 9.6 13.6 0.2 11.8-15.2-3.1-2.3-56.1 0.3-65.5 8.8-31.4 26.1-59.4 37-89.9 14.5-40.5 6.1-62.1 12-97.9 1.2-7.2 10.6-5.9 11.9 0.5z"  fill="#005bbb" /><path d="M526.2-99.3c-2.7 52.2-31.1 97.7-36.3 149-0.7 6.5 3.9 29.6-6.6 29.7-8.2 0.1-7.7-12.9 0.5-12.1 8.2 0.8 6.2 13.6-1.8 12-14.9-3.1-2.6-58.7-0.3-68.6 2.7-11.4 31-114 32.9-115.8 5-4.6 11.5-0.2 11.6 5.8z"  fill="#fff" /><path d=""  fill="#fff500" /><path d=""  fill="#fff500" /><path d="M565.5-30.4c-5.9 31.7-20 107.2-23.9 109.5-9.2 5.5-14.8-11.3-4.2-12.5 10.6-1.1 8.7 16.5-1.5 13.1-16-5.4 8.9-101.8 15.3-115 4-8.3 15-3.3 14.3 4.9z"  fill="#c2e1ff" /><path d=""  fill="#fff" /><path d=""  fill="#c2e1ff" /><path d="M604.2 6.5c-2.1 10.9-8.5 76.5-21.3 74-9.6-1.9-5.8-16.9 3.6-14 9.4 2.9 3.9 17.4-5.1 13.5-10.5-4.6 3-71.6 9.5-79.7 5.2-6.5 13.8-1 13.3 6.2z"  fill="#c2e1ff" /><path d="M606 34c-1.6 8.8-1.9 45.1-13 46.5-9.7 1.3-10.9-14.2-1-14.4 11.5-0.2 7.8 18.5-2.8 13.9-9.7-4.3-1.4-45.3 3.6-51.8 5-6.5 13.6-1.2 13.2 5.8z"  fill="#fff500" /><path d=""  fill="#fff500" /><path d=""  fill="#c2e1ff" /><path d=""  fill="#fff" /><path d=""  fill="#fff" /><path d=""  fill="#005bbb" /><path d=""  fill="#fff500" /></svg>