<svg width="1200" height="675" viewBox="-500 -500 1200 675" xmlns="http://www.w3.org/2000/svg"><path d="M-500-500h1200v675h-1200z" fill="#000"/><path d=""  fill="#005bbb" /><path d=""  fill="#fff" /><path d=""  fill="#fff" /><path d=""  fill="#c2e1ff" /><path d=""  fill="#fff" /><path d=""  fill="#fff500" /><path d=""  fill="#c2e1ff" /><path d=""  fill="#c2e1ff" /><path d=""  fill="#fff" /><path d="M-390 21.3c-8.2 14.6-24.2-1.6-13.3-9 15.3-10.3 17.1 23.1 0.8 14.5-21.1-11.2 23.2-29.2 12.5-5.5z"  fill="#fff500" /><path d="M-378.8-399.4c4.1 14 4.2 102.3-21.1 98.1-10.5-1.7-6.9-18.2 3.3-15.3 10.3 2.8 4.9 18.8-5 14.9-12.8-5.1 9.2-43.4 11.4-52.4 3.5-14.5-1.5-32.6 2.4-45.8 1.5-4.9 7.6-3.8 9 0.5z"  fill="#005bbb" /><path d="M-367.3-2.1c-3.2 9.6-22.3 58.2-37.3 44.9-9.2-8.1 4.4-21.9 12.7-12.8 8.3 9.1-6.7 21.3-14 11.4-5.6-7.6 20.1-46.6 26.8-52.2 6.4-5.4 13.7 1.7 11.8 8.7z"  fill="#fff" /><path d="M-356.4 64.4c-6.2 5.8-30.2 31.5-36 11.8-3.3-11.3 13-18.1 18.7-7.7 6.7 12.1-13 21.6-18.3 8.8-10.4-25.1 59.7-39.7 35.6-12.9z"  fill="#005bbb" /><path d="M-346-116.3c2.4 59.4 9.8 112.1-31.2 161.3-5.1 6.2-13.6 20.3-23 18.5-17.5-3.4-0.8-29.5 9.6-15 8.9 12.4-14.3 22.3-17.2 7.4-1-5.2 35.8-46.7 41.5-58.3 24.3-49.8 2.3-75.3 9.5-114.6 1.2-6.6 9.8-5.1 10.8 0.7z"  fill="#c2e1ff" /><path d="M-317.2-397.4c-3 46.6-28.5 88-53 126.3-5 7.8-21 43.8-33.6 34.2-8-6.1-0.2-19 8.9-14.7 10.7 5 1.9 21.3-8.1 15.3-14-8.4 21.9-49.2 27.5-58.1 13.5-21.3 26.7-43.2 35.8-66.8 4.4-11.4 4.5-31 11.2-40.5 3.9-5.7 11.3-1.7 11.3 4.3z"  fill="#c2e1ff" /><path d="M-321.4-272.2c-29.5 55.3-56.1 109.2-60.6 172.8-0.8 11.5-1.3 97.6-19.2 91-7.9-2.9-4.8-15.1 3.5-13.9 9.7 1.4 6.8 16.6-2.7 14.1-9.4-2.4 5.1-65.9 5.7-77.8 2.8-53.3 24.1-155.3 60.1-195.4 6.6-7.4 16.4 1 13.2 9.2z"  fill="#fff" /><path d="M-311.4-397.8c-4.3 49.8-32.3 93.2-58.8 134.1-5.1 7.8-21 43.7-33.5 34.2-9.4-7.1 2.6-21.2 11.2-13.2 7.3 6.9-1.8 18.9-10.4 13.7-13.8-8.3 17.6-42.7 22.8-50.7 17.9-27.6 36.3-55.8 47.6-86.9 4-11 4.7-23.7 8.9-34.4 2.9-7.2 12.3-3.6 12.2 3.2z"  fill="#c2e1ff" /><path d="M-298.6 41c-6 9.5-38.2 56-51 38.4-8.1-11.1 10.1-22.9 16.9-10.9 6.8 11.9-12.5 21.6-18 9-2.6-5.9 34.8-46.1 41.1-49.2 8.6-4.3 14.9 5.5 10.9 12.7z"  fill="#fff500" /><path d="M-287.6-14.3c-4.2 21.5-52 113-74.9 96-11.1-8.3 2.9-25.1 13.1-15.6 10.2 9.4-5.6 24.6-14.7 14.1-11.3-13.1 25.4-34.3 32.6-42.3 9.7-10.7 31.1-58.1 33.4-59.6 5.6-3.8 11.3 1.6 10.5 7.4z"  fill="#005bbb" /><path d="M-277.2-63c1.2 42.7-9.5 85.4-37.4 118.5-6.8 8.1-26.8 35.1-39.1 26.1-9.5-6.9-0.8-22.2 10.1-17.5 12.6 5.5 2.8 25-9.2 18.1-16.9-9.7 35.9-49.8 46.6-69.8 13.4-25.2 12.2-66.5 18.3-78.1 3-5.6 10.1-2.7 10.7 2.7z"  fill="#fff" /><path d="M-267.9-397.4c-16.6 91.2-82 167.9-90 260.4-3.2 36.4 4.3 73-1.3 109.2-1.6 10.6-11 59.7-27.8 54.9-12.9-3.8-2.2-23.4 7.9-14.6 10.1 8.9-7.9 22.1-13.3 9.9-0.1-0.1 21.2-53 22.9-70.5 4.8-48.1-5.1-94.6 8-142.4 18.3-67 59.3-125 76.6-192.5 1.4-5.6 1.4-17.2 6.5-21 5.2-3.9 11 1 10.5 6.6z"  fill="#fff" /><path d="M-253.4-368.6c-12.4 60.6-32.3 121.1-35.1 183.1-3.6 80.1 31.5 162.6-22.6 233.9-6.2 8.1-15.5 22-25.3 26-12.5 5.2-19.5-14.9-6.6-18.8 15.1-4.4 16.9 21.7 1.3 19.4-5.6-0.8-9.4-6.3-8.2-11.8 2.2-10.5 20.4-20.9 27.1-29.1 17.5-21.3 27.4-47.2 30.8-74.4 8-64.6-13.7-128.1-4.1-193.3 4.6-30.8 17.9-113.9 30-139.3 3.6-7.4 13.3-3 12.7 4.3z"  fill="#fff500" /><path d="M-243.7-203.8c13.5 87.6 19 181.9-31.6 260.3-4.8 7.5-15.4 28-26.3 26.4-17.3-2.7-1.9-28.9 8.9-15.1 9.2 11.8-13.3 22.5-16.6 7.9-2.4-10.4 16.9-24.8 22.2-32.6 14.8-21.5 24-46 30.6-71.1 8.9-34.3 14.2-70.2 12.4-105.7-0.5-10.2-10.8-68.6-8.6-71.9 2.6-4.1 7.9-2.2 9 1.8z"  fill="#fff" /><path d="M-230.8-374.1c-18.9 128.4 12.2 135 16.5 231.7 2.6 57.8-15.6 125-39.6 177.2-4.3 9.4-16 41-28.8 40.5-16.6-0.8-4.6-27 6.8-15.1 9.8 10.2-10.3 22.4-14.8 9-3.8-11.2 25.1-45.7 30.2-57.9 14.2-34.1 23.4-71.3 30.1-107.6 13.3-72.2-18.1-137.5-18-209.3 0-21.1-2.4-51.9 5.3-71.7 2.9-7.3 12.4-3.7 12.3 3.2z"  fill="#c2e1ff" /><path d=""  fill="#fff" /><path d="M-209.9-276.1c8.4 38.5 28.5 74.4 28.4 114.5-0.2 55.5-34.5 130.4-54.9 182.5-4.8 12.3-21.2 61.9-37.1 61.6-11.9-0.3-10.5-19 1.3-17.5 11.8 1.6 8.4 20.1-3.2 17.2-4.8-1.2-7.8-6.3-6.3-11.1 4.6-15.1 19.5-30.2 26.4-45 23-49.5 43.1-106 56.8-158.8 13.6-52.2-8.4-91.8-20.2-141.2-1.4-5.9 6.8-7.5 8.8-2.2z"  fill="#fff" /><path d="M-208-397.6c-18.6 117.7 24.8 134.3 32.1 219.6 4 47-19.4 91-35.3 133.7-3 8-8 37.8-19 37.1-13.7-0.9-3.4-22.5 6-12.4 7.9 8.6-8.9 18.4-12.5 7.3-5.1-16 44.7-118.5 48.6-147.2 7.7-56.2-28.2-108.9-34-164.3-2.3-22-6.6-56 1.8-77 2.9-7.3 12.4-3.7 12.3 3.2z"  fill="#c2e1ff" /><path d="M-187.5-281.3c11.3 36.4 30.4 70.7 27.9 110-3.7 56.9-41.6 112.1-61 164.9-5.6 15.2-29.4 83-42.7 87.7-11 3.9-16.2-13.8-4.8-16.5 13.3-3.1 13.6 19.5 0.2 16.8-18.2-3.8 11.8-42 15.6-49.9 14.4-30.4 64.3-149.5 74.2-179.2 7.1-21.3 9.3-43.4 4.8-65.5-2.3-11.6-27.5-61.4-21.5-69.5 2.2-2.9 5.9-1.7 7.3 1.2z"  fill="#c2e1ff" /><path d="M-172.8-92.8c-13.9 23.3-75.3 170.6-84 173.9-12.5 4.8-15.9-17.2-2.5-16.3 13.4 0.9 7.2 22.3-4.6 15.9-12.8-6.9 16.4-47.6 20.6-57.2 15.2-35.3 31-99.2 57.3-126.3 7.1-7.3 16.7 1.7 13.2 10z"  fill="#fff" /><path d="M-163.1-188.2c6.4 63.2-39.3 130.1-60.5 187.9-4.8 13.2-27.9 88-46.2 81.9-13-4.3-1.5-23.8 8.5-14.5 10 9.3-8.7 22.2-13.8 9.6-0.1-0.2 27.9-56.5 36.8-80.3 18.3-48.5 43.8-96.3 58.5-145.9 3.6-12 1.2-30.3 6.3-40.9 2.6-5.4 9.6-2.9 10.4 2.2z"  fill="#c2e1ff" /><path d="M-153.4-304.4c13.1 37.7 31.2 74.4 25.7 115.5-8.5 63.4-60.1 116.7-83.7 175.2-5.7 14.2-31.7 100.7-50.1 95.5-12.9-3.7-2.3-23.2 7.9-14.5 11.9 10.3-12.3 22.8-13.9 7.2-1.3-12.8 20.3-39.9 25.6-52.5 13.7-32.2 24.7-65.3 41.1-96.3 15.6-29.6 36.1-56.6 50-87.1 10.1-22.1 14.8-45.8 11.7-70.1-3.2-24.6-19.5-47.3-22-71.1-0.5-4.9 5.8-5.7 7.7-1.8z"  fill="#fff500" /><path d="M-140.3-208.2c6.5 55.5-59.5 158.9-84.6 223.5-4.5 11.6-23.3 71.2-39.2 66.4-11.1-3.3-4.9-20.5 5.7-16 10.6 4.5 2.7 20.9-7.4 15.3-12.3-6.8 21.2-57.4 25.6-68.1 17.5-43 34-85 56.7-125.7 30.2-54 28.2-87.4 32.9-97.5 2.5-5.4 9.4-3 10.3 2.1z"  fill="#fff500" /><path d="M-129.3-392.8c6.3 60.3 45.7 112 37.7 174.7-9.5 74.3-76.3 123.9-107.4 188.8-4.8 10-18.6 61-30.9 59.5-10.3-1.2-7.5-17.3 2.5-15 10.1 2.3 5.6 18-4.2 14.7-13-4.5 4.6-33 7.5-40 31.2-77.6 98.1-140.4 115.7-195.1 19.3-60.1-12.7-111.7-27.1-168.3-1.5-5.8-2.9-11.8-3.8-17.7-1-6.6 8.3-7.6 10-1.6z"  fill="#005bbb" /><path d="M-115.6-16.4c-13.1 18.9-21.9 40-27.3 62.3-1.8 7.5-1.9 30.2-9.6 33.6-9.6 4.2-13-12.9-2.5-12.7 10.5 0.2 6.4 17.2-3 12.6-16.8-8.2 18.5-96.2 29.2-106.6 7.5-7.2 17.1 2.3 13.2 10.8z"  fill="#fff" /><path d=""  fill="#fff" /><path d="M-93.1 0c-9.1 25.7-5.7 75.4-8.7 77.8-6.7 5.3-12.8-7.4-4.6-9.4 8.3-2 8.5 12.1 0.2 10.4-13.7-2.7-5.8-74.5 0-84.4 4.4-7.6 14.4-2.1 13.1 5.6z"  fill="#fff" /><path d="M-83.8 55.1c0.7 4.5 7.8 21.3-0.4 22.6-5.3 0.9-7.5-6.8-2.5-8.8 5.8-2.3 9 7 2.9 8.7-8 2.2-10.7-18.9-9.4-23 1.6-5.1 8-3.9 9.4 0.5z"  fill="#fff" /><path d="M-70.8-96.2c-39.8 33-80.7 60.4-103.7 108.7-4.7 9.8-23.8 77.3-35.8 66.7-7.6-6.7 3.6-18 10.3-10.5 6.8 7.4-5.5 17.5-11.4 9.3-5.7-7.8 6.9-29.5 9.5-37.2 19.1-55.4 47.2-96.9 93.4-133.1 8.3-6.5 17.5-16.3 27.1-20.8 11.2-5.2 18.2 9.1 10.6 16.9z"  fill="#c2e1ff" /><path d="M-59.2-95.7c-37.4 34.8-79.7 62.7-102.1 110.3-4.4 9.3-20.5 73.7-32.5 64.3-7.6-6.1 2.6-17.5 9.6-10.7 6.9 6.9-4.5 17.2-10.7 9.6-6.1-7.5 5.8-30.3 8.2-38.2 16.9-54.5 47.2-93 90.4-129.4 8.1-6.8 16.6-16.9 26-21.9 10.6-5.6 18.2 7.9 11.1 16z"  fill="#c2e1ff" /><path d="M-51.2 49.4c2.2 4.7 14.8 20.8 12.8 25.4-1.8 4.2-7.9-0.2-4.5-3.2 3.4-3.1 7.1 3.5 2.8 4.8-5.2 1.6-17.6-21.5-17.6-25.4 0-3.8 4.6-4.3 6.5-1.6z"  fill="#fff" /><path d="M-36-149.8c-45.7 53.8-113.8 81-147.7 145.7-7.3 14-25.1 82.1-39.2 84.9-12 2.3-11.5-18 0.4-15.1 11.9 2.9 2.9 21.2-6.7 13.5-8.6-6.9 5.8-28.2 8.6-35.5 34.1-87.5 59.8-114.8 132.9-171.6 13.8-10.7 25.5-26.2 39.7-35.8 9.4-6.3 17.9 5.7 12 13.9z"  fill="#fff" /><path d="M-24.4-132.2c-38.1 48.1-96.4 78.2-127.7 131.7-10.5 17.9-27.5 89.2-40.1 79.3-7.6-6 2.5-17.5 9.4-10.7 6.9 6.8-4.4 17.1-10.5 9.6-5.8-7.1 4.6-26.9 6.8-34.3 21.1-70.1 64.4-107.7 116.8-155.1 11.2-10.2 20.9-24.8 32.9-33.6 9-6.6 17.7 4.9 12.4 13.1z"  fill="#fff500" /><path d="M-14.4-320.1c3.1 42.4-10.4 87.4-30.9 124.2-36.6 66-107.4 102.1-143.8 168.2-7.2 13.1-40.9 108.6-54.3 101.1-11-6.2 2.9-21.9 10.4-11.6 7.4 10.2-11.8 18.6-14.3 6.2-2.4-12.3 16.1-38.9 20.9-50.6 49.1-121.1 78.6-109.8 149.1-196.7 20.7-25.4 35.4-55.1 44-86.7 4.4-16.1 1.4-42.5 8.3-56.5 2.8-5.5 9.8-2.9 10.6 2.4z"  fill="#c2e1ff" /><path d="M-2.5-65.7c-5.9 43 19.5 71.2 52.4 94.3 5.6 3.9 57.9 42 50.3 47.2-3.4 2.3-5.9-4-1.8-4.7 4-0.7 3.7 6.1-0.3 5-6.7-1.9-18.8-21.6-24.8-27-28.4-25-67.2-41-82-78.3-13.9-35.2 4.9-56 6.2-36.5z"  fill="#fff" /><path d="M13.2-399.6c34.2 76.5-18.9 187.3-70 245-24.3 27.5-54.6 48.2-81.6 72.8-7.8 7.1-49.9 57.1-50.9 57.2-11.2 0.8-11.5-17-0.2-16.5 13.1 0.5 7.6 21.6-4.1 15.6-13.4-6.9 8.3-30.9 13-37.3 41.3-56.8 107.1-87.9 143.8-149 24-39.9 45.3-90.1 48.9-137 1.3-16.4-8.3-35.2-6.4-49.9 0.5-4.2 5.8-4.2 7.5-0.9z"  fill="#fff500" /><path d="M20.3-87.7c-10.1 90.8 98.4 109.2 107.1 160.5 1 6.1-9.5 3.8-6-1.3 2.9-4.4 9 2 4.4 4.7-4 2.4-26.9-35.5-31.5-40.6-27.7-30.3-69.2-49.9-81.9-91.5-9.8-32.1 6.4-50.8 7.9-31.8z"  fill="#fff" /><path d="M26.4 61.1c2.1 1.5 17.7 10.7 15.3 13.3-1.7 1.9 1.9-1.3-0.2 0.2-4.1 2.9-19.1-15.9-15.1-13.5z"  fill="#005bbb" /><path d=""  fill="#c2e1ff" /><path d="M49.3 57.1c4.1 2.9 18.9 11.2 19.7 16.1 0.5 2.7-4.1 2.5-3.4-0.2 0.7-2.7 4.8-0.5 3 1.6-3.6 4.2-23.2-19.7-19.3-17.5z"  fill="#c2e1ff" /><path d=""  fill="#c2e1ff" /><path d="M72.7 69.7c0.8 0.8 5.1 3.9 1.9 5.4-2.3 1-3.8-2.7-1.3-3.5 2.1-0.7 3.4 2.3 1.5 3.4-5 2.9-6.5-8.6-2.1-5.3z"  fill="#c2e1ff" /><path d="M86.6-67.4c16.2 49.7 54.2 89.3 71.1 139.2 2.4 7.2-10.5 6.5-7.6-0.2 3.1-6.9 12.2 2.5 5.3 5.3-7.5 3.1-17.2-33.2-19.8-38.9-15.9-34.7-39.9-64.9-55.2-99.7-2.4-5.5 2.6-12.3 6.2-5.7z"  fill="#fff" /><path d="M101.3-303c-46.6 54.3-76.2 116.6-117.4 174.5-27.9 39.2-65.8 70.2-93 109.8-13.4 19.6-22.4 41.4-27.3 64.6-1.3 6-1.6 37.5-14.1 30.1-8.8-5.2 2.8-17.7 8.6-9.2 5 7.2-6.8 14.5-11 6.7-3.4-6.3 1.6-19.6 2.7-26.1 12.4-73 60.3-114.2 105.5-168.2 42.7-51 67.6-113.5 108.4-165.7 5.9-7.5 23.2-38.4 35.7-30.1 4.9 3.3 4.9 9.2 1.9 13.6z"  fill="#c2e1ff" /><path d="M112.8-367.6c-11.9 27.8-134.3 216.1-155.2 237.8-27.8 29.1-62.6 49.4-92 76.5-8.2 7.5-34.9 49.5-45.5 42.2-11-7.5 5.1-22.6 11.9-11.2 8 13.4-18.8 17.6-15.3 2.4 11-48.9 107.9-100 141.7-138.4 46-52.3 76.2-119.7 116-176.8 6.2-9 19.4-42 30.1-43.7 6.7-1 10.2 5.6 8.3 11.2z"  fill="#fff500" /><path d="M120.8-39.4c6.2 17.3 49 103.4 45.3 114.1-2.2 6.3-11.6 0.5-7-4.3 4.6-4.8 10.7 4.4 4.5 6.9-8.1 3.1-16.6-35.3-18.9-41.1-5.4-14-32.7-63.4-31.5-74.6 0.5-4.3 5.8-4.3 7.6-1z"  fill="#fff" /><path d="M135.8-186.9c-30.1 48.6-34.8 102.7-13.3 155.5 6.4 15.7 46.6 95.8 43 106.2-2.6 7.3-12.8-1.5-5.8-5.1 5.9-3 8.7 7.6 2 7.9-7.8 0.3-15.2-34.9-17.6-41.3-23.9-60.8-59.3-115.3-42.1-183.3 3.8-15 9.6-38.1 20.5-49.7 7-7.4 16.7 1.5 13.3 9.8z"  fill="#fff500" /><path d="M147.2-200.2c-33.9 47.4-47.4 102.9-27.5 158.9 6.3 17.7 50.2 105.4 46.3 116.4-2.6 7.3-12.8-1.5-5.9-5.1 5.9-3 8.7 7.6 2.1 7.9-7.6 0.3-14.2-32.6-16.6-38.9-23.3-60.8-59.1-115.7-42.5-183.4 5-20.5 14.9-52.4 31.1-67 7.8-7.1 17.3 2.9 13 11.2z"  fill="#fff" /><path d="M157.4-58.7c-3.8 35.5 8.4 71.4 17.9 105 1.4 4.8 12.7 29.2 4.2 31.2-5.7 1.3-7.3-7.8-1.5-8.5 5.8-0.7 6.4 8.6 0.5 8.6-8 0.1-11.7-29.4-13.4-35.4-9.3-32.7-20.9-67.1-19.7-101.5 0.3-8 11.4-7 12 0.6z"  fill="#c2e1ff" /><path d="M169.5-397.5c-6.3 66.3-59.1 105.3-95.6 155.5-20.1 27.7-35.4 58.4-49.7 89.4-11.2 24.2-22.7 48.8-30 74.5-2.2 7.8-1.7 33-7.5 37.2-7 5.1-12.8-8-4.3-9.7 10-2 6.8 15.4-1.8 10-11.3-7 1.2-46 4.1-55.8 30.1-97.9 75.5-154.7 137.9-231.9 23.1-28.6 28.3-64.3 35.4-74 4.2-5.7 11.6-1.4 11.5 4.8z"  fill="#c2e1ff" /><path d="M179.1 6.1c1.4 8.8 19.3 69.7 12 71.4-5.7 1.3-7.3-7.9-1.4-8.5 5.9-0.7 6.4 8.6 0.5 8.6-8.8 0.1-21.3-62.2-20.8-70.9 0.3-5.9 8-5.6 9.7-0.6z"  fill="#fff" /><path d="M190.3 32c1.4 6.5 14.9 43.9 6.8 45.7-5.7 1.3-7.3-7.8-1.5-8.4 5.8-0.7 6.4 8.5 0.5 8.5-7.2 0.1-16.5-40.1-14.9-46 1.3-5 7.5-4 9.1 0.2z"  fill="#fff" /><path d="M203.8-140.9c-39.1 34-53.9 76.6-44.2 127.5 4.7 24.6 12.2 48.7 19.1 72.7 0.9 3.1 8.3 19.2-1 18.3-5.9-0.6-4.5-9.7 1.3-8.5 5.8 1.2 3.4 10.2-2.2 8.4-7.6-2.5-11.2-32-13.2-39.1-16.2-57-32.7-116.5 5.2-169.1 5.5-7.6 17.3-26.8 28.1-27.1 9.6-0.3 12.3 10.5 6.9 16.9z"  fill="#c2e1ff" /><path d="M215-316.8c-11.6 90.4-111.5 132.1-103.4 234.2 3.9 48.5 32.4 92.1 48.7 137.1 1.2 3.2 11.9 24 1.8 23.3-5.7-0.4-4.6-9.3 1-8.3 5.6 1 3.6 9.7-1.9 8.1-7.5-2.2-14.6-37.3-17.6-44.9-22.7-57.7-54.7-110.5-39.1-174.8 13.3-54.9 54.1-89.8 81.6-136.6 7.3-12.4 8.9-32.9 17.3-43.4 4.5-5.7 12-0.9 11.6 5.3z"  fill="#fff" /><path d="M225.2-8.6c1.3 18.6 22.4 77.4 21.1 83-1.3 5.6-10 1.4-6.4-3.1 4.2-5.3 10.1 4.9 3.4 5.9-13.1 1.9-27.3-74.1-28.5-84.6-0.7-6.9 8.9-7.5 10.4-1.2z"  fill="#fff" /><path d="M238.5-262.5c-28.9 70.3-110.5 101.9-109.8 187.3 0.2 27.8 44.4 144.9 42.6 149.8-2.7 7.4-13-1.7-5.9-5.2 7.1-3.5 8.2 10.2 0.7 7.8-7.7-2.4-13-34.8-15.7-42.3-19.8-56.9-46.4-112.4-23.4-172.8 16.8-44.2 52.9-72.4 81.7-108.1 5.9-7.3 10.7-21 18.1-26.4 7.1-5.1 14.2 2.8 11.7 9.9z"  fill="#005bbb" /><path d="M247.9-25.7c2.1 24.9 38.4 97.9 38.3 99.6-0.5 4.8-8.1 2.3-5.6-1.9 2.9-4.8 8.8 2.9 3.4 4.5-15.4 4.4-44.3-88.5-46.2-100.8-1-6.7 8.4-7.6 10.1-1.4z"  fill="#c2e1ff" /><path d="M299.1-399.8c32 73.9 28.1 153-32.4 210.7-22.1 21-48 37.5-69.9 58.7-7.5 7.3-30 48.5-39.5 44.1-10.9-5.1 1.3-20.9 9-11.7 9 10.8-14.2 18.4-13.3 4.4 3.3-53.6 110.1-105.7 137.9-154.3 16-27.9 20.5-60.3 16.4-91.9-2.6-20-12.7-38.6-15.5-58-0.6-4.6 5.3-5.6 7.3-2z"  fill="#fff500" /><path d=""  fill="#c2e1ff" /><path d="M284-167.6c-37.6 42-88.6 77.3-93.2 138.4-1.3 17.8 15.6 102.4 15.1 103.9-2.8 7.4-13-1.9-5.9-5.4 7.1-3.5 8.2 10.3 0.6 7.9-10.5-3.3-15.5-51.5-17.2-61.5-7.4-41.3-5.8-82.5 17.2-118.9 16.5-26 45.4-61.6 71.4-78.6 9.6-6.3 18 6 12 14.2z"  fill="#fff" /><path d=""  fill="#c2e1ff" /><path d="M304.6-340.9c35.5 147-111.3 151.6-146.5 252.5-16.5 47.2 20.7 134.7 16.8 144.9-2.9 7.5-13.2-2-5.9-5.4 7.3-3.5 8.2 10.5 0.5 8-9.1-2.9-16-48-18.6-57.3-45.2-165.8 67.7-150.7 128.7-250.2 28.8-47 8.9-70.2 15.9-93 1.5-5 7.8-3.8 9.1 0.5z"  fill="#c2e1ff" /><path d="M315.9-90.1c9 59.3 110.5 100.6 163.9 156 1.3 1.3 7.9 5.8 6.2 8.6-1.4 2.4-5-0.1-3.4-2.2 1.7-2.2 5 0.7 3.1 2.6-2 2.1-39.8-37.4-44.7-41.7-36.1-32.1-86.7-50-117-88.2-32.8-41.3-8.9-37.1-8.1-35.1z"  fill="#fff500" /><path d="M330.6-399.6c14.6 78.5 10 156.5-46.6 217.8-34.4 37.3-86.6 65-103.4 115.5-3.5 10.6-0.6 50.1-7.1 55.4-6.4 5.3-12.7-6.9-4.7-9 9.4-2.5 7.4 14.3-1.2 9.6-6.9-3.8-4.3-23.8-4.2-30.3 1.5-95.8 104.6-127.6 143.9-203.8 14.3-27.8 19.7-58.7 19.6-89.7-0.1-11.5-11.6-61.3-4.5-68.1 3-2.9 7.2-0.9 8.2 2.6z"  fill="#005bbb" /><path d="M341.2-256.7c-24.8 84.9-114.5 133.2-132.1 211.3-7.3 32.6-1.5 67.1 7 98.9 0.6 2.3 11.1 27.8 0.1 23.5-4.4-1.7-2.5-8.6 2.1-7.9 4.7 0.8 4.3 7.8-0.4 8.2-8.2 0.5-12.8-30.4-14.4-36.6-31.7-125.4 27.4-152.4 92.1-242 14-19.3 20.2-42 32.6-61.6 4.7-7.5 14.6-1.5 13 6.2z"  fill="#005bbb" /><path d="M351.1-398.6c-0.9 67.7 0.6 135.2-36.5 194.9-29.1 46.8-78.1 79-103.7 127.8-12.1 23.1-12.1 67.7-21.9 63.9-7.1-2.7-2.2-13.7 4.6-10.2 6.8 3.5 0.7 13.9-5.7 9.7-8.5-5.6-1.5-34.4 0.1-42.3 14.5-74.1 89.7-114.1 124.1-177.6 41.1-76.1 15.6-121.2 27.6-167.7 1.8-6.8 10.7-4.7 11.4 1.5z"  fill="#fff" /><path d="M363.9-201.3c-33.7 127.7 43.1 133 115.4 210.1 6 6.4 59.6 64.2 56.2 66.7-2.9 2.2-5.4-3.3-1.9-4 3.6-0.8 3.5 5.3 0 4.4-5.1-1.1-49.3-55.6-56.9-63.8-37.5-41.1-111-78.9-128.7-131.2-8-23.8-9.1-64.2 3-87.1 4-7.5 13.8-2.5 12.9 4.9z"  fill="#005bbb" /><path d="M375.2-301.6c-5.5 26.1-11.6 52-20.2 77.4-16.6 49.2-52.7 108.5-20.6 158.9 25.9 40.7 100.4 73 139.4 111 2.3 2.2 22.5 19.2 17.2 21.3-2.9 1.2-3.8-4-0.6-3.8 2.7 0.1 2.2 4.3-0.4 3.9-8.2-1.3-23.6-23.7-29.9-29.6-47.1-45-140.8-73.2-149.3-146.1-5.2-44.9 19.5-88 33.4-129.2 4.1-12.3 10.8-66.9 21.8-71.4 5.4-2.2 9.6 2.6 9.2 7.6z"  fill="#c2e1ff" /><path d="M386.7-248.4c-13.5 56.9-27.8 114.7 14.7 163 16.6 18.9 36.4 34.9 53.9 52.9 31.5 32.4 61.1 68.6 88.9 104.3 3.3 4.2-6.2 5.4-4.1 0.5 1.8-4.1 7.3 1.4 3.2 3.2-6.7 2.9-57.9-67.1-64.8-75.3-36.9-44.5-102.1-84.2-115.3-143.3-4.5-20.3-1.9-95.8 11.6-111.4 4.9-5.7 12.5-0.5 11.9 6.1z"  fill="#c2e1ff" /><path d="M393.4-98.6c18.8 26.6 45.7 46.8 67.7 70.6 29.3 31.6 57 65.9 83.7 99.8 2.8 3.5-4.7 5.8-4.3 1.3 0.4-4.5 7.4-1 4 2-3.2 2.8-53.5-60.7-59.2-67.8-29.1-35.8-64-65.5-93.8-100.4-2.5-2.9-2.1-9.4 1.9-5.5z"  fill="#c2e1ff" /><path d="M409.6-269.4c-35.4 135.6 9.3 164 83.6 266.5 6.8 9.3 58.8 73.1 58.8 76.5 0 4.7-7.6 1.7-4.4-1.7 2.8-2.9 6.5 2.6 2.8 4.1-6.9 2.7-52.5-63.8-58.6-72-36.9-50-95.3-104.7-105.6-168.1-3.3-20-1.6-96.7 11.5-111.5 5.1-5.7 12.7-0.4 11.9 6.2z"  fill="#fff500" /><path d="M420.2-197.9c-5.1 81.1 52.3 158.4 97.8 221 7.4 10.1 38.1 38.2 37.9 50.2-0.1 4.2-6.8 2.6-5-1.2 2.1-4.4 7.8 1.9 3.3 3.6-5.8 2.2-38.5-46.9-43.2-53.3-37.4-50.7-82-111.7-97.4-173.6-3.4-13.5-8.8-34.5-5-48.3 1.9-6.9 10.9-4.7 11.6 1.6z"  fill="#fff" /><path d="M432.9-340.9c-36.8 58.7-61.6 174.3-22.7 235.5 29 45.6 68.4 87.3 101.7 130.1 2.8 3.6 27.5 31.4 22.4 33-3 1-4.3-3.9-1.1-4.6 2.7-0.5 3.9 3.4 1.4 4.5-4 1.7-9.5-9-11.2-11-30.6-37.3-110.8-131.8-130.1-168.8-9.9-19-14.7-39.8-14.9-61.2-0.7-49.1 12.4-105.2 32.3-149.9 10.2-22.8 29.7-25.6 22.2-7.6z"  fill="#005bbb" /><path d="M438.2 34.9c8 6.8 37.9 27.9 38.9 38.3 0.3 3.2-5 2.6-4-0.4 1.1-3.1 5.7-0.2 3.4 2.1-3.6 3.7-15.2-13.1-17.6-15.6-7.4-7.7-29.6-30.5-20.7-24.4z"  fill="#005bbb" /><path d="M455.6-364.3c-47 53.8-80.4 176.2-48.4 243.1 12.6 26.4 112.1 144.5 112.2 154.4 0.1 4.5-7.3 1.7-4.2-1.6 3-3.3 6.5 3.7 2 4.1-8.2 0.6-30.8-38.6-35.8-45.5-45.8-62.7-105.1-116.5-97.1-200.5 4.6-48.2 16.3-101.1 41.5-142.9 27-44.8 31.8-14.2 29.8-11.1z"  fill="#fff" /><path d="M461.7-34.5c13.5 15.6 82.2 94.5 86.6 107.3 1.3 3.7-5.2 4.5-4.8 0.6 0.4-4.6 7.6-0.9 4.1 2.1-3.7 3.2-27.6-30-31.1-34.2-11-13.3-55.8-60.4-58.7-73.8-0.5-2.4 2.3-3.4 3.9-2z"  fill="#c2e1ff" /><path d="M478.5-215.4c-31.2 76.8-7.8 150.9 33.5 218.8 12.3 20.2 26.6 38.8 40.7 57.7 1.1 1.5 13.1 13.4 6.3 15-13.9 3.3 12.3-9.3 1.1-0.5-3.9 3.1-8-6.5-9.2-8.1-45.4-63.6-97.5-131-99.7-212.9-0.6-22.2 1-57.7 14-76.8 5.2-7.6 15.1-1.1 13.3 6.8z"  fill="#005bbb" /><path d="M485.2-21.6c6.5 9.8 69.5 96.1 68.1 97-3.4 2.3-5.9-4.1-1.8-4.7 3.5-0.5 4 5 0.5 5.2-5 0.2-13.1-15.6-15.9-19.1-19.3-24.5-38.7-48.9-55.6-75.2-2-3.1 2.4-5.8 4.7-3.2z"  fill="#005bbb" /><path d="M496.5-3.6c5.6 8.1 58.8 77.3 56.4 79-2.9 1.9-5.7-2.8-2.7-4.5 3.6-1.9 5.4 4.7 1.3 4.9-4.4 0.2-9.1-10.3-11.3-13.2-14.7-19-39.8-41.1-48.5-63.6-1.2-3.1 2.8-4.8 4.8-2.6z"  fill="#005bbb" /><path d="M512.7-388.9c-60.4 67.3-107.6 161-81.2 253.8 13.5 47.4 43.1 91.5 69.8 132.5 2.1 3.2 13.8 15.5 10.6 19.3-2.7 3.3-7.1-2.3-3.2-4.2 3.9-1.9 5.5 5.1 1.2 5.2-3.8 0.1-22.1-28.3-52.2-79.9-42.8-73.6-55-142.9-28.4-225.2 12.1-37.4 37.6-92.1 71.1-115.2 9.3-6.5 17.9 5.5 12.3 13.7z"  fill="#c2e1ff" /><path d="M524.1-90.8c-17.8 42.3 2.6 89.4 25.3 125.3 5 8 25.7 30 24.8 39.1-0.5 4.8-8.1 2.3-5.7-1.8 2.9-4.9 8.9 2.9 3.5 4.4-5.8 1.6-22.6-31.2-26-36.3-23.7-35.9-45.4-77.9-38.6-122.3 2.8-18.7 19.7-24.4 16.7-8.4z"  fill="#fff500" /><path d="M535.2-181.7c-51.7 43-52.8 104.5-27.1 162.6 12.1 27.4 29 51.7 46.6 75.8 1.5 2.1 16.6 18.1 9.1 19.7-3.2 0.7-4.8-4-1.8-5.3 3-1.4 5.5 2.9 2.9 4.8-4.2 3.2-8.3-7.1-9.6-8.9-41.4-60.6-97.6-133.4-69-211.6 6.4-17.6 20.4-43.8 37.6-53.1 10.6-5.7 18.3 7.9 11.3 16z"  fill="#fff" /><path d="M547.1-111.2c-32.7 33.9-27.5 81.9-8.5 121.3 8.9 18.4 20.5 35.2 31.5 52.4 1.1 1.8 11.1 13.2 3.8 14.3-4.9 0.8-4.4-7.4 0.4-6.1 4.7 1.3 0.9 8.5-2.9 5.3-7.2-6.2-12.4-20-17.6-28-28.6-43.9-57.6-98.2-33.2-150.8 14.7-31.8 37-24.9 26.5-8.4z"  fill="#005bbb" /><path d=""  fill="#fff" /><path d="M570-367.9c-12 27.2-23.2 54.9-37.2 81.2-31.6 59.4-73.7 112.1-62.1 183.6 6.9 42.7 27.3 83.7 50.7 119.6 1.8 2.8 23.3 30.3 15.8 29.8-12.4-0.8 12.7-4.7 1.1-0.1-5 1.9-13.9-15.6-16.1-18.8-41.5-58.4-77.7-133.1-60.6-206.3 3.4-14.3 8.5-28.1 14.8-41.4 14.8-31.4 35.1-59.8 50.8-90.7 10-19.8 16.2-47.3 29.5-64.7 5.8-7.5 15.7-0.2 13.3 7.8z"  fill="#c2e1ff" /><path d="M578.6 4.8c1.8 8.7 26.8 66.5 21.3 68.4-4.9 1.7-7.2-6.2-2.1-7.3 5.1-1.2 6.5 6.9 1.3 7.5-6.1 0.7-9.1-14.7-10.6-18.3-29.4-68.8-10.6-52.2-9.9-50.3z"  fill="#fff500" /><path d="M589.3 32.6c2 5.3 17.9 33.7 10.4 36.3-4.9 1.7-7.2-6.2-2-7.4 5.1-1.1 6.5 7 1.2 7.5-5.9 0.7-17.6-30.5-17.1-35.4 0.5-4.3 5.7-4.3 7.5-1z"  fill="#fff500" /><path d="M603.9-356.1c-35.5 130.4-128.3 154.7-124.9 249.5 1.6 44.9 22.4 88.7 46.4 125.8 1.9 3 23.3 29.9 15.3 29.3-3-0.2-3.2-4.7-0.2-5.1 3.5-0.5 4 5 0.5 5.1-6.1 0.2-18.5-23.6-21.8-28.5-33.9-50.5-63-115.2-47.3-177 14-54.9 61.1-86.9 89.8-133 9.6-15.4 23.2-65.3 30.3-72.9 5.4-5.7 12.9 0.1 11.9 6.8z"  fill="#fff500" /><path d=""  fill="#fff500" /><path d="M605.5-352.2c-29.8 112.4-107 141.9-122.9 213.1-7.1 31.8-0.9 64.4 10.4 94.4 0.8 2.2 14.9 28.3 4.7 25.7-15.1-4 16.3-7.8 2.5-0.3-6.3 3.4-10.3-13.1-11.7-16.3-61.9-140.7 18.9-161.4 76.5-254.8 10.1-16.3 18.7-58 28.6-68.5 5.3-5.7 12.9 0.1 11.9 6.7z"  fill="#fff" /><path d="M605.2-223.3c-49.1 48.3-121.1 69.9-110 153.5 5.8 43.6 28.8 82.4 53.9 117.4 1.8 2.4 23.8 29.7 14.4 28.6-12.7-1.5 12.3-8.1 2.1-0.5-4.4 3.2-8.6-7.6-10-9.6-39.6-58.2-93.2-128.1-66.2-203.1 14.7-41 50.7-62.4 84.2-86.4 6.6-4.7 14.7-14.7 22.7-16.7 10.5-2.7 15.1 9.7 8.9 16.8z"  fill="#fff500" /><path d="M605.2-234.1c-44.6 49.3-117.3 70.4-113.5 149.5 2.2 45.2 25.2 87.7 50.8 123.9 7.1 10-0.9 9.1-1.4 6.8-1.9-9.8 11.4 5 1.8 2.1-9.6-3-23.1-32.3-28.2-40.9-33.1-55.8-52.4-128.4-7.7-183.8 10.2-12.6 75.6-69.4 88.6-73.4 10-3.1 15.2 8.7 9.6 15.8z"  fill="#fff" /><path d=""  fill="#fff500" /><path d="M604.4-165.6c-45.6 32.2-96.5 57.2-87.5 122.6 4.9 36.2 24.6 67.3 44.5 97 1.3 2 18.8 24.1 8.8 22.6-4.1-0.6-2.7-7 1.2-5.9 4 1.1 2 7.2-1.9 5.7-6.1-2.4-13.2-19.9-16.9-25.4-30.6-45.6-63.9-102.4-40.6-158.6 9.6-23.1 59.4-74.3 85.4-77.1 11.5-1.3 14.6 12.6 7 19.1z"  fill="#fff" /><path d="M604.6-170.1c-40 28.4-89.5 49.2-91.2 105.7-0.9 31.6 32.4 95.9 32.2 97.3-0.4 5.4-8.9 1.2-4.8-2.4 4.7-4.3 6.9 7.1 0.9 4.9-8.1-3-17.3-27.1-20.9-34.6-26.2-53-26.8-113.9 21.5-154.3 12.5-10.4 38.7-34 55.3-35.7 11.5-1.3 14.6 12.6 7 19.1z"  fill="#005bbb" /><path d=""  fill="#fff500" /></svg>