<svg width="1200" height="675" viewBox="-500 -500 1200 675" xmlns="http://www.w3.org/2000/svg"><path d="M-500-500h1200v675h-1200z" fill="#000"/><path d=""  fill="#005bbb" /><path d=""  fill="#c2e1ff" /><path d=""  fill="#005bbb" /><path d=""  fill="#fff500" /><path d=""  fill="#fff500" /><path d=""  fill="#005bbb" /><path d="M-385-387.5c-20.8 19.9-41-14.7-18.7-22.9 31.6-11.7 20.3 48.3-4.9 25.9-32.2-28.7 52.8-40.5 23.6-3z"  fill="#fff500" /><path d="M-364.6-103.2c15.2 53.5 57.8 93.5 78.2 144.7 3.1 7.8 16.8 33.6 4.9 39.2-9.7 4.6-16.2-11.1-6-14.7 10.2-3.5 14.9 12.8 4.4 15.2-13.5 3.1-13.4-27.4-15.4-34.1-16-54-58.8-93.8-78.5-145.9-3.1-8.2 8.7-11.9 12.4-4.4z"  fill="#005bbb" /><path d=""  fill="#fff500" /><path d=""  fill="#fff500" /><path d="M-311-3.5c6.9 10.9 46.3 75.6 27.8 84.2-9.8 4.6-16.2-11.3-6-14.8 10.3-3.5 14.9 13 4.3 15.4-14.1 3.1-14.7-33.2-17.1-40.5-4-12.2-17.9-29.3-18.4-41.6-0.2-5.5 6.5-6.5 9.4-2.7z"  fill="#fff" /><path d="M-311.3-390.1c-23.4 35.6-53.5 64.2-66.6 106-3.2 10.3-5.9 71.9-25.7 60.8-10.4-5.8-3.5-22.1 7.8-18.7 13.3 4 5.9 24.6-6.9 19.2-14.3-6-2.4-40.3-0.4-50.8 8.5-47.1 33.7-103.9 71.3-135.6 13.2-11.1 28 5.7 20.5 19.1z"  fill="#005bbb" /><path d="M-276.1-393.5c-30.8 85.8-92.9 117.7-41.8 243.8 19.9 49.1 81.2 111.6 88.1 129.1 2.5 6.3-9.3 6.3-6.8 0 3-7.4 11.8 4.1 3.8 5-8.8 0.9-31.8-35.1-37.5-42-57.7-70.7-103-159.5-75.3-252.9 9.3-31.5 28-69.9 48.4-95.8 9.4-12 25.2-0.1 21.1 12.8z"  fill="#fff" /><path d=""  fill="#fff" /><path d="M-230.5-346.6c-7 23.5-15.1 46.7-16.4 71.3-3.5 69.1 34.6 151.7 71.9 208.1 14.2 21.5 85.6 115.7 76.4 137.7-4.5 10.6-20.1-0.4-11.6-8.2 8.5-7.8 18.1 8.8 7.1 12.3-12.6 4-24.8-52.5-29.7-61.8-17.5-34.1-42.9-63.1-63.3-95.4-36.2-57.1-71.6-137.5-69.3-206.3 0.7-20.1 3.4-49.4 13.9-67 7.2-12.2 23.2-3.1 21 9.3z"  fill="#005bbb" /><path d="M-210.6-398.4c3.5 40.3-16 78.1-18.4 117.8-3.2 53.9 19.3 111.8 41 160.3 11.9 26.5 68.9 102.8 71.8 119.5 1.7 9.8-15.3 6.2-9.7-2.1 5.5-8.3 15.3 6 5.6 8.2-9.5 2.1-22.1-31.2-26.3-37.7-47.9-73.8-98.4-157.3-101-248.4-0.5-17.4 12.8-109.4 19.8-122.2 4.9-8.9 16.3-4.2 17.2 4.6z"  fill="#c2e1ff" /><path d="M-195.2-399.3c7 40-8.4 79.6-9.5 119.5-1.4 54.4 17.7 111.8 39.8 160.9 17.9 39.8 44.4 74.7 63.2 114.1 2.7 5.7 19.5 31.6 6.5 35.1-7.5 2.1-11.8-8.8-4.9-12.4 8.1-4.2 14.1 8.8 5.6 12.2-12.4 4.9-17.7-29.5-20.7-36.2-40.8-92.7-85.1-130.3-104.2-242.2-8-46.8-0.6-105.1 7.4-151.8 1.7-10.2 15-8.2 16.8 0.8z"  fill="#fff500" /><path d="M-182.9-47.5c10.3 13.7 91.9 113.2 69.1 126.8-8.4 5-15.5-8.6-6.7-12.7 8.8-4 14.5 10.2 5.3 13.3-12.9 4.3-17.9-33.8-21-40.8-13.2-30.3-33.7-55.3-53.2-81.6-3.2-4.3 2.9-8.6 6.5-5z"  fill="#c2e1ff" /><path d="M-162.2-131.4c18.6 46.3 49.2 86.3 68.2 132.3 4.8 11.5 31.3 73 15.2 80.1-11.8 5.2-16-15.9-3.1-15.6 12.9 0.3 7.9 21.1-3.8 15.4-5.3-2.6-13.9-56.2-17.1-66.6-13.4-42.2-65.3-111-70.8-142.2-1.3-7.2 8.1-9 11.4-3.4z"  fill="#fff" /><path d="M-134.3-400.7c12.3 29.7 16.7 62.2 24.9 93.1 27.6 103.3 41 130.6 52.2 242.7 1.5 14.9 10.9 86.3 4.6 95.4-8.2 11.6-24.1-5.8-11.8-12.9 12.3-7.1 19.4 15.4 5.2 16.7-16.9 1.5-11-41.5-11.5-50.1-2.8-51.3-8-102.8-15.6-153.5-9.2-61.1-34.2-117.9-47.9-178-2.7-11.9-16.9-42.6-12.2-53.7 2.4-5.9 9.7-4.6 12.1 0.3z"  fill="#fff" /><path d=""  fill="#fff" /><path d="M-104.9 71.5c0.8 9.6-12.8 12.8-14.3 2.8-2.7-18.7 27.5 0.2 9.4 5.9-17.5 5.5-6.7-28.9 4.2-11.3z"  fill="#005bbb" /><path d="M-86.5-146.6c7.2 34.2 47.7 202.9 31.9 225.4-8.2 11.6-24.1-5.8-11.8-13 12.3-7.1 19.4 15.4 5.3 16.7-18 1.6-13-72.3-14.3-84.6-2-20.3-27.4-139-25.7-144.9 2.2-8 12.3-6.4 14.6 0.4z"  fill="#c2e1ff" /><path d="M-52.3-400.8c39.1 96.9 126.3 105.9 161.5 186.1 16.7 38.2 16.8 82.6-2.9 119.7-7.2 13.5-28.4 53.1-48.2 41.8-15.7-8.9-4.9-33.7 12.3-28.3 14.7 4.6 14 26.2-0.9 29.9-10.5 2.6-20.6-6.6-19.1-17.2 2-14.4 23.7-27.6 31.9-39.2 21.4-30.1 25.7-67.8 14.7-102.8-20.9-66.3-87.8-87.8-129.9-136.5-11-12.7-27.6-33-30.7-50-1.3-7.2 8-9 11.3-3.5z"  fill="#fff500" /><path d="M-47.8-89.1c0.5 54.1 2.7 108.7 0.8 162.8-0.2 5.2-4.4 9.5-9.7 9.2-12.5-0.7-10.4-20.3 2-18.3 12.4 2 8.1 21.3-4 18-12.3-3.4-10.4-160-7.1-173.7 2.6-10.9 16.8-7.8 18 2z"  fill="#fff500" /><path d="M-34.4-369.6c45.9 84.6 155.3 94.8 159.8 210.2 1.2 31-8.2 61-26.4 86-10.2 14-66.4 75.1-80 78.5-26.2 6.6-20-40 3.6-26.8 27.8 15.6-22.5 44.2-21.7 12.3 0.5-19.4 33.4-42.4 46.4-54.2 33.5-30.5 61.6-63.1 59.6-111.2-3.6-87.3-80.7-113.6-132.4-168.5-26.2-27.8-14.2-32.6-8.9-26.3z"  fill="#005bbb" /><path d="M-10.3-400.9c19.3 52.3 67 77.7 104.6 115 50.8 50.3 84.9 138.8 73.4 210.4-2.7 17-12 60.7-30.8 67.7-24 8.9-22.9-35.6 0.6-25.5 23.5 10-7.8 41.6-18 18.1-4.6-10.7 22.7-50.3 26.7-64.8 8.4-30.2 4.5-61.9-3.1-91.8-32.3-126.9-79.9-113.2-145.4-194.7-29-36.1-14.4-44.7-8-34.4z"  fill="#c2e1ff" /><path d="M8.6-156.4c-3.2 53.2-33.7 107.7-41.6 162.4-1.6 10.9 0.5 85-19.6 75.8-10.1-4.6-5-20.4 5.9-18.1 12.7 2.7 7.4 22.5-5 18.5-16.4-5.4-3.4-62.8-2-75.4 3.1-27.5 30.6-153.2 43.9-171 6.8-9.1 18.8-2 18.4 7.8z"  fill="#005bbb" /><path d="M19.7-364.4c38.4 51.9 92.1 75.9 122.7 137.7 41.3 83.6 54.3 157.5 8.3 241.8-5.2 9.5-12.4 32.8-27.3 29.3-14.9-3.5-12.1-26.2 3.2-26 15.3 0.2 17.5 23 2.5 26.1-9 1.8-17.3-6.2-15.6-15.3 4.7-26.2 29.9-52.7 39.5-77.9 14.4-37.7 10.8-75.4 0.1-113.6-31.7-112-62.8-118.4-136.2-194.5-4.1-4.2-2.8-12.8 2.8-7.6z"  fill="#fff" /><path d="M46.4-34.1c-23.3 21.9-42.5 46.5-53.7 76.7-3.1 8.3-7.2 51.3-25.4 39.9-12.2-7.7 0.9-26.3 12.3-17.4 9.7 7.7-0.1 23.3-11.3 17.9-17.4-8.5 28.9-132.2 62.4-142.8 16.3-5.2 24.7 14 15.7 25.7z"  fill="#c2e1ff" /><path d="M55.1-307.6c70.2 53 123.1 149.3 89 238.5-15.2 39.8-47.6 66.8-76.5 96.4-10 10.3-41.7 59.9-51.4 58.4-23-3.4-2.7-38.3 11.6-20 14.3 18.3-24.4 29.7-22.2 6.5 5.8-62 113.9-110.4 127.4-186.5 8.9-50-8.7-107.7-38.5-148-2.7-3.6-54.2-54.3-39.4-45.3z"  fill="#005bbb" /><path d="M83-153.2c-7.6 60.6-68.9 99.6-92 154-5.3 12.6-15.6 90.9-33.5 81.2-10.4-5.6-3.7-21.9 7.6-18.6 13.2 3.8 6.2 24.3-6.6 19.1-18.8-7.6 4.4-73.5 8.8-87 15.2-46.2 46-78.8 74.1-117 8.2-11.2 13.7-36.3 24.8-43.7 9-6 18.1 2.7 16.8 12z"  fill="#c2e1ff" /><path d=""  fill="#fff" /><path d=""  fill="#005bbb" /><path d="M135-396.7c10 56.4 43.1 135.3 73.5 183.8 40 63.8 121.8 102.2 105.2 189.5-2.1 11.2-4.7 29.1-12.1 38.3-12.1 14.9-31.9-10-14.7-18.4 14.7-7.2 24.8 16.6 9.4 22.2-7.9 2.9-16.4-3.3-16.2-11.8 1.2-38.2 35.4-56.5 7.5-113-25.3-51.3-81.5-83.1-111.3-143.7-21.9-44.6-44.3-95-55.9-143.5-2.3-9.6 11.3-12.3 14.6-3.4z"  fill="#fff500" /><path d="M154.2-391.2c5.5 56.2 27.4 120.6 56.4 169 41.4 68.9 135.1 104.6 117.3 199-2.2 11.4-5.5 37.4-16.2 44.1-13.9 8.7-26.5-13.9-11.7-21.1 14.8-7.2 24.8 16.7 9.4 22.3-7.9 2.8-16.5-3.4-16.2-11.9 1.3-37.2 35.3-56.7 10.4-112.7-24.6-55.3-91.5-86.4-122.9-153.5-14-29.9-45.5-102.8-42.6-134.7 0.9-9.9 13.8-9 16.1-0.5z"  fill="#005bbb" /><path d="M162.4-398.9c0.4 72.8 30.3 162.4 81.7 214.7 10.4 10.6 109.5 93.2 83.5 108.6-9.9 5.8-15.9-12.3-4.4-13.5 9.8-1 10.5 14.6 0.6 14.5-11.1-0.1-13.7-28.7-18-36.5-32.3-58.3-92.3-77.8-124.7-151.7-13.4-30.4-41.9-104.9-36.2-137.2 1.9-10.6 15.7-8.4 17.5 1.1z"  fill="#fff500" /><path d="M187.7-224.6c60 116.6 131.2 106.9 79.6 259.3-3.6 10.7-5.2 46-18.4 48.3-15.6 2.7-14.4-23.5 0.8-19.4 17.9 4.8-1.3 30.6-11 14.8-13.4-21.8 33.9-116.7 29.8-153.1-5.6-49.5-49.5-83.1-75.9-122-3.3-4.9-19.3-21.9-13.5-28.7 2.5-3 6.5-2 8.6 0.8z"  fill="#fff" /><path d="M210.1-80.5c6.9 43.3-10.8 84.1-23.5 124.4-3.1 9.9-4.8 44.1-21.8 39.8-14.2-3.6-7.3-25.6 6.5-20.5 13.7 5.1 4.4 26.3-8.6 19.6-7-3.6-6-10.7-4.8-16.9 6.8-35.5 21.4-68.5 30.1-103.6 3-12.2-0.6-38.2 6.8-47.6 5.2-6.6 14-2.4 15.3 4.8z"  fill="#fff500" /><path d=""  fill="#fff" /><path d="M240.7-168.2c69.2 73.4 85.8 103.9 49.6 202.6-3.7 10.1-6.6 46.8-19.3 49-18.1 3.3-11.7-28.1 3.7-18 13.1 8.6-5.5 26.9-13.9 13.5-12.8-20.5 31.8-110.5 32.2-141.4 0.6-50.1-57.3-95.4-57.7-103.4-0.1-3.1 3.3-4 5.4-2.3z"  fill="#fff" /><path d="M267.7-19.2c-3.5 18.1-19.8 81.9-26.5 96.5-1.8 4-6.2 6.4-10.6 5.8-13.4-2.1-9-23 4.1-19.5 13.1 3.5 6.4 23.9-6.2 18.9-19.7-7.7 9.6-100.2 20.2-112 8.2-9.1 20.4-0.3 19 10.3z"  fill="#fff500" /><path d="M286.6 33.7c-3.9 10.3-6.9 51.8-22.6 49.4-13.3-2-9-22.9 4-19.4 11.1 2.9 8.6 20-3 19.5-20.1-0.8-5.7-54.1 2.2-61.7 9.4-9.1 21.7 1.1 19.4 12.2z"  fill="#fff" /><path d="M251.2-392.5c-29.9 53.8-34.7 119.9 6.1 169.7 29.1 35.6 73.6 54.1 102.6 90 2.5 3.1 14.1 14.1 6 18.2-7.2 3.7-10.6-9.3-2.5-9.6 6.9-0.3 6.8 10.6-0.1 10.2-8.6-0.6-23.3-31.2-29.9-37.9-48.2-48.9-111.7-73.2-123-149.1-4.5-30.4-1.7-80.6 19.3-105.6 10.2-12.1 26.2 0.8 21.5 14.1z"  fill="#c2e1ff" /><path d=""  fill="#005bbb" /><path d=""  fill="#fff500" /><path d="M358-356.6c4 96.4 53 127.4 79.8 209.7 20 61.3 8.3 119.8 10.7 182.4 0.3 7.9 11.7 41.7 0.5 44.6-12.1 3.1-9.4-18.4 1.5-12.3 9.3 5.1-2.3 18.5-8.6 9.8-26.9-36.6-5-138.2-10.6-184.5-9.2-77-59-122.5-80.9-191.7-5.2-16.5-12.8-41.5-9.8-58.9 1.9-10.5 15.6-8.4 17.4 0.9z"  fill="#fff" /><path d="M398.5-401c19.7 39.9 48.5 74.8 61.7 117.8 18.5 60.2 14.5 131.6 15.4 194.1 0.2 11.9 7.4 62.7-8 66.4-14.6 3.6-15.2-21.4-0.5-18.5 17.3 3.4 0.7 29.1-9.5 14.8-9.5-13.3-0.3-55-0.4-71.3-0.3-48.3-1.7-97.4-5.7-145.5-4.9-59.8-35.1-101.5-62.4-152.7-3.4-6.3 5.6-10.6 9.4-5.1z"  fill="#fff500" /><path d="M389.4-175.4c55.7 66.1 38.9 138.2 36.7 216.6-0.2 8 7.9 37.7-4.7 39.6-11.9 1.8-10.5-18.2 1.1-14.7 11.5 3.4 1.9 20.9-7.2 12.9-17.5-15.4-0.8-117.9-0.6-143.1 0.2-23.4-3.2-46.8-11.6-68.7-5.3-13.9-15.2-25.3-20.7-38.6-1.9-4.6 4-7.2 7-4z"  fill="#fff500" /><path d="M424.7-400.8c26.2 32.9 57.5 62.3 68.1 104.4 11 43.6-6.2 161.1-7.3 215.7-0.3 13.1-0.9 93.2-4.9 96.3-9.4 7.2-20-8.2-9.9-14.4 11.8-7.2 19.3 14.6 5.6 16.1-17 1.9-11-38.5-10.9-47.1 0.5-49.5 0.7-99.7 4.4-149.1 2.3-30.5 8.5-60.9 9-91.5 0.4-23.4-4.3-46.1-15.5-66.9-11.6-21.7-34.6-38.1-44.9-59.5-2-4.1 3.3-6.9 6.3-4z"  fill="#005bbb" /><path d="M429-295.2c39.7 96.8 38.5 199.4 37.9 301.8-0.1 15.1 8.3 69.9 8 70.3-5.7 8.2-16.9-3.9-8.3-8.9 8.6-5 13.7 10.7 3.7 11.6-32.1 3.1-19.8-173.8-20.9-194.3-2.5-45-8.4-90.8-19.4-134.6-3.5-13.9-11.5-28.9-13.2-42.9-0.9-7.7 9-9.1 12.2-3z"  fill="#fff" /><path d=""  fill="#fff500" /><path d="M465.8-313.2c26.8 55.2 14.8 222.5 12.9 290.5-0.6 23.5-0.9 47.3 3.8 70.5 1.1 5.2 14.4 31.9 1 32-9.7 0.1-6.4-15.7 2.5-11.6 7.6 3.4 1.5 15.1-5.7 10.8-27.6-16.3-18.6-161.7-18.7-194.2-0.2-50.3 4.7-102.1 0.9-152.2-1-13.5-10.2-31.5-8.6-44.3 0.8-6.8 9.1-6.7 11.9-1.5z"  fill="#fff500" /><path d=""  fill="#005bbb" /><path d="M556-400.9c20 25.9 34.3 56.9 34.1 90.1-0.5 64.9-45.1 121.8-57.6 184.5-2.8 13.9-0.9 93.3-16.6 92.6-14.5-0.7-8.3-23.9 4.6-17.3 12.9 6.7-2.6 25.2-11.4 13.8-7.7-9.9-2-36.3-1.5-47.9 3.2-73.2 34-130.3 56-198.2 7-21.7 10.4-44.3 5.5-66.8-3.9-17.6-14.8-30.5-20.9-46.8-1.9-5.1 4.6-7.6 7.8-4z"  fill="#fff500" /><path d=""  fill="#005bbb" /><path d="M537.9-382.5c64.3 86.6-18.3 189.7-26.6 288.9-3.3 39.3-4.9 80.1 0.2 119.3 0.8 6.3 15.5 44.7 0.6 43.7-9.1-0.6-7.4-14.8 1.6-13.2 8.9 1.5 5.7 15.5-3 13-11.9-3.4-14.8-39.9-16.3-49.9-18.7-116.9 7.9-184 41.6-290.3 6.9-21.6 11.6-44.4 8-67.1-2.2-14-14-28.5-14.9-41.6-0.3-5.2 5.9-6.3 8.8-2.8z"  fill="#005bbb" /><path d="M561.1-62.6c1.3 34.6 6 69.2 10.8 103.5 1.1 7.5 12.3 37.9-1.5 39.9-10.3 1.5-11.7-14.9-1.4-15.2 10.4-0.4 10.1 16-0.3 15.2-16.5-1.2-28.1-127.7-25-144.4 1.9-10.6 15.7-8.4 17.4 1.1z"  fill="#fff500" /><path d="M582.2-204.4c-31.7 75.6-34.6 147.7-24 228.3 1.3 9.9 15 50.1 4.6 55.8-8.7 4.8-15.6-9.3-6.4-13.2 10.7-4.5 14.2 14.5 2.6 14.1-15.4-0.5-18-61.7-19.5-73.4-9.1-71.6-10.3-141.5 15.6-209.8 8-21 33.5-25.8 27.1-1.8z"  fill="#fff500" /><path d="M597.1-12.2c2.2 12.6 19 94.2 0.1 94.5-11.8 0.2-11.1-18.4 0.7-17.3 11.7 1.1 9 19.4-2.5 17.1-12.9-2.6-8.5-31.8-9.1-40.7-0.9-14.7-9.3-41.3-4.6-55 2.9-8.4 13.4-6 15.4 1.4z"  fill="#005bbb" /><path d=""  fill="#fff500" /><path d=""  fill="#fff" /><path d=""  fill="#fff500" /><path d=""  fill="#c2e1ff" /><path d=""  fill="#005bbb" /></svg>