<svg width="1200" height="675" viewBox="-500 -500 1200 675" xmlns="http://www.w3.org/2000/svg"><path d="M-500-500h1200v675h-1200z" fill="#000"/><path d=""  fill="#005bbb" /><path d=""  fill="#fff" /><path d=""  fill="#005bbb" /><path d=""  fill="#fff500" /><path d=""  fill="#fff500" /><path d="M-396.3-388.9c20.3 43.3 7.3 102.4-2.7 101.9-7.5-0.4-4.2-12.5 2.5-9 6.7 3.5-1.4 13.1-6 7.1-4.2-5.5 6.8-30.6 7.9-37.9 3-20.5-11.8-80.1-1.7-62.1z"  fill="#005bbb" /><path d="M-396.3 64c1 2.3 6.2 10.4 1.4 11.7-3.5 1-4.8-4.6-1.1-5.2 3.6-0.6 4.2 5.1 0.6 5.3-8.9 0.5-4.8-19.1-0.9-11.8z"  fill="#fff500" /><path d=""  fill="#fff" /><path d=""  fill="#c2e1ff" /><path d=""  fill="#c2e1ff" /><path d=""  fill="#fff500" /><path d=""  fill="#fff500" /><path d="M-397 42.6c2.8 4.2 19.7 29.2 14.2 32.9-3 2.1-6-2.9-2.7-4.6 3.2-1.7 5.7 3.5 2.2 4.9-5 2-7.2-11.9-8.3-14.5-0.5-1.2-10.6-25.2-5.4-18.7z"  fill="#c2e1ff" /><path d="M-396.3-105.8c19.7 61.9 105.7 77.9 130.1 153.4 1.5 4.6 9.9 26 4.1 28.6-4 1.8-6.5-4.7-2.3-6 3.6-1.2 5.9 4 2.6 5.8-6.7 3.9-6.8-14.4-7.4-17.2-4.2-19.5-12-38.2-23.6-54.4-24.1-33.9-62.5-50.7-90.2-80.6-7.6-8.2-13.7-17.4-18.1-27.7-1.3-3.1 3.2-4.7 4.8-1.9z"  fill="#c2e1ff" /><path d="M-394.8-82c32.7 52 96.6 63 120.9 127.6 1.9 5.1 11.1 26.1 6.6 30.4-4.3 4.1-8.2-5.5-2.2-5.5 5.1 0 3.3 8.2-1.3 6.1-4.5-2-4.9-18.4-6.2-22.9-4.5-16-11.7-31.2-21.5-44.7-23.8-32.6-61-48.9-88.9-76.9-2.4-2.4-12.1-19.2-7.4-14.1z"  fill="#fff500" /><path d="M-385.8-365.5c2.3 10.8 4.6 85.6-13.3 84.1-7.7-0.6-3.9-12.8 2.8-9.1 5.7 3.3 0.1 12-5.2 8.2-6-4.3 7.2-33.8 8.5-40.9 2.3-12.8-2.6-31.5 1.1-42.8 1.1-3.3 5.2-2.4 6.1 0.5z"  fill="#fff500" /><path d="M-377-299.5c-2.2 7-14.2 49.7-24 44.1-6.1-3.5-0.2-12.8 5.5-8.7 5.7 4.1-1.2 12.8-6.5 8.1-4.1-3.6 13.7-47.9 19.2-49.5 3.9-1.1 6.5 2.5 5.8 6z"  fill="#c2e1ff" /><path d="M-356.7-399.3c14.8 40.8 2.2 84.3-14.4 122.5-3.4 7.9-18.9 51.2-28.7 48.8-9.6-2.3 0.3-16.4 5.7-8 4.6 7.1-8.5 12-9.7 3.6-0.9-6.5 32.5-68.9 36.9-82.5 5.8-17.7 9.8-36.1 9.4-54.8-0.2-8.6-5.9-21.4-4.4-29.3 0.6-2.9 4.2-2.7 5.2-0.3z"  fill="#005bbb" /><path d="M-362.2-195.6c-8.9 25.4-13.1 53.2-2.2 78.7 26.9 63.5 95.6 73.4 115.7 162.8 1.1 4.9 8.3 28.7 2.2 31-5.1 1.9-6.4-6.9-1-6.6 6.3 0.4 1.6 10.4-2.7 5.7-2.9-3.1-9.7-50.9-13.6-60.8-23-59.4-88.4-84.3-109-139.7-7.5-20.3-9.9-55.6 2.1-75 3-4.9 9.5-1.1 8.5 4z"  fill="#fff" /><path d="M-320.8-399.2c14.8 85.1-69.9 174.9-72.6 211.6-1.6 22.3-12.5 85.1-2 113.2 1.5 4 18.8 22.4 18.7 22.3-4.2-0.6 4.5-1.2 0.4 0-12.3 3.6-23.5-30.5-23.8-43.6-0.4-32-2.1-64-2.4-96-0.2-16.2 54.1-109 63.5-133.8 9-23.6 12-98.2 18.2-73.7z"  fill="#fff500" /><path d="M-350.7-95c41.3 52.8 88.7 72.7 103.2 145.7 1 4.8 6.3 21.6 2.1 25.1-3.6 3-7.9-2.9-4.1-5.4 3.9-2.6 7.6 3.8 3.5 5.8-7.4 3.8-6.6-17.8-7.1-21-3.6-23.1-10.8-45.5-22.9-65.6-19-31.6-48.9-51.8-73.3-78.5-0.8-0.8-5.4-9.8-1.4-6.1z"  fill="#c2e1ff" /><path d="M-343.9-7.7c13.7 10.7 63.5 64.2 55.1 82.7-2 4.4-8.4-0.4-4.7-3.6 3.1-2.7 7.1 2.5 3.7 4.8-3.1 2.1-17.1-37.9-20.6-43.6-8.6-14.4-20.1-26.6-32.8-37.4-0.2-0.2-3.3-4.5-0.7-2.9z"  fill="#c2e1ff" /><path d="M-333.3-374c2 67.4-58.5 142.7-59.7 164.2-4.7 81.1-4.9 84.6-4.4 147.7 0.1 5.8-2.4 27.3 2.7 34.5 11.8 16.9 37.3 28 52.1 42.9 0 0 8 7 3.6 7.1-6.8 0.2 6.7-3.2 0.6-0.2-2.5 1.3-12-11.3-14.1-13.2-12.2-11.6-35.7-22.1-44.3-36.3-9.6-15.7-2.5-68.7-2.7-79.4-0.7-36-2.4-72-2.8-108.1-0.1-8.6 47.2-94.6 53.6-115.2 1.3-4.1 13-65.1 15.4-44z"  fill="#fff500" /><path d="M-315.3-399c12.9 85.9-74 175.8-77.8 220.4-1.4 16.8-2.6 33.6-3.3 50.4-1.3 29.4 0.5 44.6 21.5 64.2 11.5 10.8 24.6 19.5 37.3 28.9 4.8 3.5 4.8 5.7 3.7 4.7-2.5-2.4 4 0.2 0.5 0.2-9.3 0-33.5-24.3-40.8-30.5-25-21-25.7-34.2-26.5-67.5-0.4-17.9-1.4-35.9-1.4-53.8-0.1-23.2 64.2-128.7 74.7-165.5 1.2-4.1 6.9-74.5 12.1-51.5z"  fill="#fff500" /><path d="M-318.5-166.1c-1.9 59.1 71.3 119.5 83.8 204.9 0.8 5.7 7.4 35.8 0.8 37.9-5.4 1.8-6.3-7.6-0.7-6.9 6.6 0.8 1.1 10.9-3.2 5.8-3-3.5-8.6-66.3-12.1-78.4-14.1-47.9-50.5-81.7-68.4-127.1-17.9-45.5-0.6-38.6-0.2-36.2z"  fill="#005bbb" /><path d="M-313.7-89c37 44.9 67.7 84.1 75.5 143.9 0.6 4.4 4.4 18 0.4 21.1-3.8 2.9-8-3.2-4-5.7 4-2.5 7.6 4.1 3.4 6.1-7.6 3.6-6.1-17.6-6.5-20.7-2.4-22.1-7.3-44-16-64.5-12.1-28.3-31.6-51-51.5-74.1-0.5-0.6-5.4-9.9-1.3-6.1z"  fill="#c2e1ff" /><path d="M-302.8-232.7c-14.5 27.5-25 58.8-18.2 90.1 13.2 61.3 72.1 95.1 85.3 181.6 0.9 5.7 7.6 35.7 1 38-5.4 1.8-6.3-7.5-0.7-6.9 6.6 0.7 1.1 10.9-3.1 5.8-3.1-3.7-9.5-68.6-13.7-81.5-18.8-58.2-80-102.7-78.3-166.6 0.5-19.5 6-50.7 19.1-66.2 4.1-4.8 10.5 0.4 8.6 5.7z"  fill="#005bbb" /><path d="M-295.4-290.2c-28.5 47.9-71.7 109.3-46.6 167.3 29.4 68.2 86.1 76.2 101.4 172.4 0.9 5.6 5.4 20.7 2.2 25.7-3 4.6-9.5-1.9-4.7-4.9 4.7-2.9 7.8 5.7 2.2 6.5-6.9 0.9-5.6-22.1-6.1-26.3-3.1-23.1-9.4-45.8-20-66.7-28.1-55-95.4-89.9-89.3-158.8 2.9-32.9 29-98.1 52.5-121.8 4.7-4.7 10.9 1.2 8.4 6.6z"  fill="#fff" /><path d="M-290.8 26c3.2 5.1 25.3 49.5 15.6 50.8-4.2 0.6-4.7-6.1-0.5-6.2 3.6-0.1 4.4 5.3 0.8 6.2-6 1.5-7.3-18.6-8.4-22.4-2.4-7.9-11.1-19.6-11.3-27.3-0.1-2.2 2.6-2.6 3.8-1.1z"  fill="#c2e1ff" /><path d="M-243.2-398.4c4.3 86.7-80.8 142.1-89.9 224.9-2.6 23.5 3.6 45.8 15.9 65.8 2.9 4.6 22.4 26 21.2 30-0.2 0.7-1.2 1.2-1.9 1-8.9-2.3-23.3-30-27.9-37.7-47.6-81.8 29.7-154.4 61.4-224.9 7.7-17.2 9.7-51.9 14.4-60.8 1.8-3.6 6.4-1.8 6.8 1.7z"  fill="#fff500" /><path d=""  fill="#fff500" /><path d="M-268.5-1c7.7 13.4 31.6 60.9 22.3 76.2-2.8 4.6-9.3-1.6-4.8-4.6 4.5-3 7.7 5.3 2.5 6.1-6.2 1-7.9-31.1-9.2-36.3-0.7-3-19.5-53.9-10.8-41.4z"  fill="#fff" /><path d="M-260.1-123.7c13.3 60.4 34.2 114.5 36.7 177.3 0.2 5.1 2.8 17.7-0.2 21.7-3.5 4.7-9.8-2.6-4.7-5.4 5.1-2.8 7.8 6.5 2 6.9-4.4 0.3-8.3-76.6-9.8-86.4-5.7-37.5-34.2-105.8-29.5-114.8 1.4-2.6 4.6-1.7 5.5 0.7z"  fill="#c2e1ff" /><path d="M-240.4-398.7c5 92-94.9 150.5-90.5 241.1 2.3 46.7 40.6 78.1 63.6 115.4 0.5 0.7 4.8 13.4 0 8.1-6.2-7 10.7 1.5 1.4 0.7-6-0.5-28.7-41.4-33.8-48-90.1-116.2 8.1-167.4 44.4-273.3 2.1-6.1 11.9-66.8 14.9-44z"  fill="#005bbb" /><path d="M-244.2-383.6c-5.6 86.4-106.6 150.4-88.5 240.2 7.6 37.8 104 142.6 91.3 170.3-2.4 5.1-9.1-2-3.9-4.1 4.5-1.8 5.8 6.1 1 5.9-3.9-0.2-18.2-50-21.7-56.9-26.3-51.3-82-88.2-75.2-151.9 6.2-58.9 49.9-103.8 74.2-155.4 6.8-14.4 7.4-38.6 15.5-50.7 2.5-3.7 7.3-1.2 7.3 2.6z"  fill="#fff" /><path d="M-236.1-230.8c-50.3 100.5 17.6 185.1 14.2 304-0.2 7-10.9 2.4-6.4-2.5 4.7-5 9.8 5.8 2.9 6.2-5.4 0.3-6.8-68.9-7.9-77.8-6.9-59.1-38.8-120.1-29.8-179.8 2.5-16.5 7.5-42.3 18.4-55.6 4-4.9 10.4 0.2 8.6 5.5z"  fill="#fff500" /><path d="M-229.9-114.3c2.1 26.6 21.7 176.2 11.1 189.7-3.6 4.7-9.9-2.9-4.6-5.6 5.3-2.7 7.8 6.8 1.8 7.1-7.2 0.3-4-47.2-4.1-54.1-0.8-30.4-14.2-116.5-11-137.3 0.6-4.1 6-3.4 6.8 0.2z"  fill="#c2e1ff" /><path d="M-221.3-242.7c-50.6 97.3-9.1 159.7-1.4 259.4 0.6 7.4 6 60.9-1.8 60.4-5.9-0.3-3.3-9.7 1.9-7 4.4 2.4 0.4 9.2-3.8 6.4-6.5-4.4-2.5-47.1-3-56-3.9-62.9-32.5-133.1-25.5-194.2 2.5-22.3 10-57.2 25-74.7 4.1-4.8 10.5 0.4 8.6 5.7z"  fill="#c2e1ff" /><path d="M-214.1-351.7c-19.3 72.3-99.7 132.3-81.7 212.9 14.3 63.7 56.1 93.6 65.4 179.9 0.5 4.8 6 32.1-1.5 32-5.7-0.1-3.5-9.3 1.6-6.8 5.1 2.5-0.7 9.9-4.3 5.5-2.9-3.5-8.3-70.4-11.6-82.7-16.6-62.8-72.5-116.5-56.1-185.1 10.9-45.8 42.9-82.2 64.4-123 5.2-9.9 8.6-29.6 16.1-37.2 3.6-3.6 8.4 0.2 7.7 4.5z"  fill="#fff500" /><path d="M-207.1-126.7c-4.9 52.1-5 104.8-5.9 157.1-0.1 6.4 2.3 47.3-5.1 46.7-4.4-0.4-4.6-6.9-0.2-7.5 5.1-0.7 5.8 7.4 0.6 7.5-7.6 0.2-3-40.5-2.9-46.8 0.9-47.3 1.5-94.6 4.4-141.9 1.8-29.1 8.7-23.9 9.1-15.1z"  fill="#fff500" /><path d="M-199.1-326.1c-25.5 64.5-85.2 120.6-69.5 195.5 13 61.9 38.7 105.5 43.3 173.3 0.3 5 5.1 34.3-2.5 34.1-5.8-0.2-3.4-9.6 1.8-7 5.2 2.6-1 10.1-4.6 5.6-6.5-8.3-2.2-41.1-3.2-52.3-6.5-66.5-52.6-150.8-43.3-207.5 2.9-17.8 61.6-143.5 71.3-148.1 4.4-2.1 7.9 2.3 6.7 6.4z"  fill="#fff500" /><path d=""  fill="#fff" /><path d="M-184.5-23.7c-3.4 11-18.3 101.4-21.5 100.9-5.3-0.7-3.7-9 1.4-7.7 4.5 1.1 3.5 7.9-1 7.8-9.2-0.2 6.9-94.4 12.7-104.6 2.8-4.9 9.2-1.4 8.4 3.6z"  fill="#fff" /><path d="M-176.9-275.9c-48.7 108.5-43 144.1-39.9 259.3 0.3 10.2 4.2 94-3.4 93.5-6-0.4-3.1-9.9 2-7.1 5.2 2.9-1.3 10.3-4.8 5.5-6.5-8.8-0.2-43.2-0.4-54.6-0.6-67.5-12.6-139.8 2-206.4 6.3-28.9 17.4-71.8 35.9-95.4 3.8-4.9 10.2 0 8.6 5.2z"  fill="#005bbb" /><path d="M-163.7-398c-4.5 90-82.2 156.6-84.2 245.3-0.8 37.9 27.6 105.2 21.6 134.8-1.2 6-10.2 0.2-5.1-3.4 5-3.5 7.5 6.9 1.4 6-5.9-0.9-7.9-37.6-9.1-43.8-8-42.6-21.8-84.4-13-128.1 10.4-51.4 43.8-94.1 63-142.1 9.3-23 10.1-47.4 17.7-70.3 1.5-4.6 7.5-2.7 7.7 1.6z"  fill="#005bbb" /><path d="M-162.1-328.3c-39.7 109.5-73 127.7-61.6 254.3 1.3 14.8 11.5 151.5 2.2 150.9-5.9-0.4-3.2-9.9 2.1-7.1 4.5 2.4 0.2 9.3-4 6.4-6.9-4.8-1.6-49.6-1.8-58.8-1.8-69.4-20.5-144.7-2.9-212.9 7.2-28.1 50.6-136.8 60.3-139.2 4.1-1 6.6 2.8 5.7 6.4z"  fill="#c2e1ff" /><path d="M-156-398.1c-8 92.8-86.6 165.6-83.7 259.1 1.2 39 28.4 140.3 19.5 170.5-1.9 6.4-11-0.8-5.3-4.1 5.8-3.3 7.5 8.1 1 6.6-6.4-1.5-6-54.1-6.9-62.2-5.5-52.3-23-105.9-12.2-158.5 12.1-58.8 51.2-107.9 69.1-164.9 4.9-15.5 5.2-33.5 10.7-48.4 1.7-4.6 7.8-2.5 7.8 1.9z"  fill="#005bbb" /><path d="M-144.9-397.4c-13.1 86.1-75.4 157-83 243.3-1.6 18 9.9 110.5 6 116.5-3 4.6-9.4-1.9-4.8-4.8 5.5-3.4 7.5 7.6 1.2 6.3-6.2-1.2-4.8-28.5-5.3-33.8-12.3-132.9 13.2-143.9 57.8-259.6 8.6-22.4 10.7-48.8 20.1-70.3 2.1-4.7 8.3-2.2 8 2.4z"  fill="#005bbb" /><path d=""  fill="#fff" /><path d="M-132.7-174.9c-15.5 64.3-48.7 122.7-61.1 187.6-1.9 10-2.5 59.8-10 64.1-5.5 3.1-8.5-6.9-2.3-7.4 6.3-0.5 4.9 9.8-1 7.7-9-3.3 4.4-63.5 6.1-72.6 3.5-18.1 53.2-169.6 60-182.6 2.6-4.8 8.9-1.6 8.3 3.2z"  fill="#fff500" /><path d="M-125.2-391.7c-31 104-82.7 189.4-86.3 300.7-0.6 18 1.6 135.7-3.2 141.8-4.4 5.5-10.4-5.1-3.5-6.1 5.9-0.8 5.2 9.1-0.6 7.4-8.2-2.5-1.7-81.7-1.5-92.6 3.2-184.6 33.8-185.3 83.6-345.3 1.7-5.3 13.8-18.9 11.5-5.9z"  fill="#005bbb" /><path d="M-129.4-397.2c-21.1 84-73 160.8-83.4 247-1.8 15 0.7 98.4-3.1 103.5-3.5 4.7-9.8-2.7-4.7-5.5 6-3.2 7.4 8.6 0.8 6.8-6.3-1.7-2.9-25.8-2.9-31-0.9-114.2 22.4-148.9 61.3-250.8 8.7-22.8 12.2-52.2 23.6-73.3 2.6-4.8 9-1.6 8.4 3.3z"  fill="#005bbb" /><path d="M-118.8-397.2c-31.5 96.5-80.9 187.8-88.5 290.3-1.2 16.1-1.6 118.5-5.9 124-3.7 4.7-10-3-4.6-5.7 6.3-3.2 7.3 9 0.6 7-8.8-2.6-0.5-78.1 0-88.7 6.6-136.6 43.5-191.7 84.5-314.9 1.5-4.6 2.5-13.3 6.1-16.8 3.7-3.6 8.6 0.4 7.8 4.8z"  fill="#005bbb" /><path d=""  fill="#fff" /><path d="M-95.5 0.8c-4 10.4-23.5 72.4-27.6 76-6.2 5.3-10.7-8.1-2.7-7.7 6.9 0.3 3.9 11.4-2.2 8.2-9.4-5 18.1-72.8 24-81.1 3.4-4.9 9.8-0.6 8.5 4.6z"  fill="#fff" /><path d="M-108-396.7c-38.9 95.9-78.5 193.5-91.8 296.7-1.6 12.5-6.1 89.5-9.8 93.9-4.7 5.5-10.5-5.6-3.4-6.4 6.1-0.7 5 9.5-0.8 7.5-9.6-3.3 4.1-81.7 5.4-92.7 12.6-102.2 49.8-195.7 86.8-291.1 7.7-19.8 14.5-10.9 13.6-7.8z"  fill="#c2e1ff" /><path d="M-81-284.3c-10.2 55.3-9.7 111.9-27.2 165.8-15.7 48.6-47.4 89.4-64.3 137.3-2.7 7.6-12.8 59.9-18.4 58.8-6.4-1.3-2.1-11.3 3.2-7.4 5.3 3.9-2.8 11.1-6 5.4-14.5-25.8 59.8-154.1 71.9-184.7 13.8-34.6 31.3-176 33.2-178.5 2.9-3.7 7.8-0.8 7.6 3.3z"  fill="#c2e1ff" /><path d="M-73.7-141.5c-7.6 63.3-33.5 114.2-59.8 171-3.1 6.8-15.5 49.6-21.7 47.8-6.7-1.9-1.2-12.2 4.1-7.5 5.3 4.6-4 11.5-6.9 5.1-6.3-14 38.4-95.7 46.5-113.2 19.3-41.7 18.5-76.1 29.9-105.2 1.8-4.7 7.9-2.4 7.9 2z"  fill="#fff" /><path d="M-99.1-396.4c-42.9 91.1-74.7 190.6-92.8 289.5-2 10.9-9.3 75.9-13.1 79.9-4.4 4.7-10.4-4.2-4.4-6.5 7-2.8 7 10.3 0 7.5-9.8-3.9 8.9-81.4 10.9-92.4 17.8-96 49.1-191 89.2-280.1 3-6.7 12.8-5.9 10.2 2.1z"  fill="#fff" /><path d="M-58.5-329.7c-20.7 64.2-11 133.3-22.6 199.1-10.5 59.3-41 105.7-65.2 159.5-3.1 6.9-14.9 50.4-20.9 48.7-7.8-2.1 0.6-13.4 4.8-6.4 3.6 5.9-7.2 9.6-8 2.7-4.9-41.7 57-123.9 71-167.3 22.5-69.8 12.7-142.4 25.9-213.4 5.4-28.7 17.3-36.8 15-22.9z"  fill="#c2e1ff" /><path d="M-51.9-156.1c0.5 21.5 6.2 232.4 3.3 232.7-5.2 0.4-4-8.1 0.9-6.3 4.9 1.8 0.2 9-3.4 5.3-10.6-10.6-5.1-59.3-5.5-74.1-1.1-35-9-129.4-2.5-158.3 1-4.3 6.6-3.2 7.2 0.7z"  fill="#fff500" /><path d="M-44.7-18.3c0.8 10 11.9 94.5 8.4 95-4.1 0.6-4.7-5.9-0.5-6 4.8-0.2 3.4 7.7-1.1 5.8-8.4-3.5-17.4-86.5-13.4-95.8 1.5-3.5 5.9-2.2 6.6 1z"  fill="#c2e1ff" /><path d=""  fill="#005bbb" /><path d="M-29.6-300c-1.3 68.3 28.9 172.9 76.6 222.8 45.5 47.6 88.7 69.9 115.1 134.6 1.5 3.6 7.9 13.9 5.7 17.2-1.9 2.8-6.2-0.5-4-3 2.6-3 6.6 2.3 3 3.9-0.6 0.3-33.2-65.3-38.5-72.5-42.5-58-102.2-79.9-130.6-152.4-16.5-42.3-30-89.4-33.9-134.7-0.4-4.5-0.6-9-0.8-13.5-0.2-5.5 6.5-9 7.4-2.4z"  fill="#c2e1ff" /><path d=""  fill="#fff500" /><path d="M-15.5 72.5c1 7.2-9.4 1.2-3.8-1.7 5.3-2.7 4.5 8.1-0.4 4.7-3.7-2.6-0.6-8.9 3.4-5.6z"  fill="#c2e1ff" /><path d="M-8.5-241.8c12.2 40.7 27.8 83.2 51.3 118.8 39.4 60 104.9 90.4 132.1 160.2 2 5 16.1 35.4 11.7 38.5-4 2.8-5.9-5.5-1.1-4.8 4.1 0.6 1.6 7.1-1.8 4.8-3.8-2.5-28.7-72.1-37.1-84.6-32.9-49.2-87.7-77.2-117.7-129.3-9.2-15.9-45.5-87.9-42.7-103.3 0.5-3 4.2-2.7 5.3-0.3z"  fill="#005bbb" /><path d="M-0.4-311.5c6 57 43.9 115.1 73.2 163.2 49.4 81 100.6 95.5 129.6 198.6 1.1 4 9.4 23 5.3 25.7-3.7 2.3-6.2-4.5-1.8-5.1 5.1-0.7 2.9 8-1.3 5-4.2-3-27.4-84.6-35.6-99.1-19-33.6-48.5-58.5-73.3-87.6-36.3-42.6-64.4-97.7-87-148.7-7.2-16.2-13.2-33.4-15.7-51-0.6-4.3 5.5-4.9 6.6-1z"  fill="#c2e1ff" /><path d="M6-206.9c12.3 31.8 25.7 64.1 46.1 91.7 28.2 38.3 70.6 63 98.5 101.5 6.4 8.8 48.4 82 38 89.2-4 2.8-5.9-5.5-1.1-4.8 4.1 0.6 1.6 7.1-1.9 4.8-4-2.6-29.2-74.1-37.9-87.1-29.8-44.2-78.5-70.9-108.2-115.5-16-23.9-28.2-51.1-38.1-78-1.2-3.1 3.2-4.6 4.6-1.8z"  fill="#005bbb" /><path d="M0.3-395.9c-46.1 86.3-21.6 207.7 31.8 286.7 19.1 28.3 46.1 48.5 71.5 70.7 1.8 1.6 13.9 10.3 12.6 12.7-0.2 0.3-0.5 0.5-0.8 0.6-4.6 0.9-29-25.4-33.6-29.3-71-59.4-113.8-154.9-115.6-248.2-0.6-33.8 8.3-68.4 24.8-98 3.4-6 11.6-1.4 9.3 4.8z"  fill="#fff" /><path d="M20.7-178c43 97.4 120 121.4 154.3 204.3 2.5 6 20.4 46 15.5 49.5-3.5 2.4-6.1-4.1-1.9-4.8 4.8-0.8 3.1 7.5-1.1 4.8-3.9-2.6-29.5-75.9-38.3-89.2-29.1-43.3-76.3-69.9-105.8-113.1-10.6-15.5-32.5-67.6-22.7-51.5z"  fill="#fff" /><path d="M26.9-60.9c24.1 27.9 56 47.7 79.8 75.9 5.1 6.1 41 54.2 33.8 60.2-2.9 2.4-5.8-3.2-2.1-4.1 4.3-1.1 3.3 6.5-0.5 4.4-2.7-1.4-27.1-50.3-33.5-58.5-22.4-28.4-53.1-48.2-77.9-74.4-1.3-1.3-2.3-5.9 0.4-3.5z"  fill="#fff" /><path d="M34.8-118c38.6 59.9 105.4 88.8 133.7 157.3 2 4.8 15.9 33.4 11.6 36.4-3.3 2.4-6-3.9-2-4.6 4.7-0.9 3.1 7.3-0.9 4.7-3.7-2.3-29.4-69.8-37.9-81.9-28.2-39.9-72.7-63.8-102.2-102.6-0.9-1.2-6.9-14.6-2.3-9.3z"  fill="#005bbb" /><path d="M44.7-385.7c-2.4 21.6 0.9 43.3 10.5 62.9 15.8 32.4 44.6 56.4 64.4 86.2 21.7 32.6 81.3 153.6 94.4 190.8 2.9 8.2 22.8 66.6 14.5 70.6-5.4 2.5-5.9-7.8-0.4-5.9 4.8 1.6 0.5 8.8-3.2 5.3-1-0.9-20.2-81.8-28.1-99.4-19.4-42.9-57.7-124.5-82.2-162.2-21.4-32.9-54-59-69.3-95.8-5.9-14.3-13.3-38.5-8.3-54 1.5-4.6 7.5-2.8 7.7 1.5z"  fill="#c2e1ff" /><path d="M48.9-11.8c8.4 7.9 79.9 76.1 67.7 87.1-2.7 2.4-5.6-2.8-2.2-3.8 4-1.2 3.4 6-0.3 4.1-7.5-3.7-16.6-29.8-22-37.4-12.3-17.5-27.5-32.3-43-46.8-0.8-0.7-2.9-5.2-0.2-3.2z"  fill="#005bbb" /><path d=""  fill="#c2e1ff" /><path d="M38.5-397.8c-18.1 72.5 27.8 112.8 64.8 167.8 20.8 30.9 34.3 65.9 52.9 98.1 3.4 5.9 35.8 55.9 32.1 57.7-3 1.5-4.3-4-0.9-4 3.3-0.1 2.2 5.4-0.9 4.1-7.6-3.4-49.9-84.6-56.2-97.5-10.4-21.1-20.6-42.3-33.8-61.9-26.6-39.5-64.9-72.4-69.6-122.6-5.6-58.9 11.8-43.7 11.6-41.7z"  fill="#005bbb" /><path d="M71.2-85.8c48.7 48.3 85.4 73.7 109.3 141.6 1.2 3.5 8.8 17.4 5 20-4 2.8-5.9-5.4-1.1-4.7 4.1 0.6 1.7 7-1.8 4.8-3.7-2.4-28.1-70.2-35.9-82.2-19.4-29.5-47.5-50.3-73.1-74.1-0.2-0.2-6.2-8.3-2.4-5.4z"  fill="#c2e1ff" /><path d="M81.1-395.4c5 57.4 56.1 90.8 82.8 137.7 31 54.4 67.9 178.9 76.2 241.6 0.8 6 8.1 39.3 2.2 41.6-5.9 2.3-5.8-8.7 0-6.3 5.8 2.4-1.8 10.3-4.3 4.5-7.8-17.3-5-46.5-8.3-65.5-5-28.8-13.1-56.7-22.5-84.3-16.1-46.9-27.5-98.6-53.7-141.2-22.3-36.4-59.2-63.9-73.6-105-7.6-21.6-1.3-32.6 1.2-23.1z"  fill="#c2e1ff" /><path d="M89.1-398.8c6.5 55.7 55.4 89.1 81.3 135.2 28.6 50.9 56.6 154.3 67.1 212.8 1 5.8 9.2 37.2 3.2 39.6-4.9 2-6.4-6.7-1.1-6.5 5.3 0.3 3 8.8-1.7 6.3-5.3-2.8-5.1-28.9-6.1-35-7.5-46.7-23.3-91.2-36.7-136.4-37.4-126.1-65.6-105.8-102.3-183.4-4.2-8.7-10.9-22.5-10.1-32.4 0.3-3.9 5.4-3.6 6.4-0.2z"  fill="#fff" /><path d="M87.3-399.1c5.6 55 52.6 87.7 79.1 132.3 26.2 44.1 37.3 97.7 52.6 146.3 2 6.5 17.8 48.3 11.9 51.4-4.9 2.6-6-7-0.7-5.5 5.4 1.5-0.4 9.2-3.3 4.5-8.8-14.5-35-119.8-43.3-145.4-22.6-69.5-67.1-94.1-93.2-150.9-17-37-3.9-35.5-3.1-32.7z"  fill="#c2e1ff" /><path d="M101.8-202c13.2 23.1 24.4 47.2 38.4 69.8 17.2 27.8 38.1 53.2 53.1 82.4 15.2 29.6 22.6 61.4 29.3 93.8 1 4.9 9.3 29.5 5 31.9-4.7 2.7-6-6.7-0.8-5.3 5.3 1.3-0.2 9-3.1 4.4-10.9-17.1-18.2-85.7-30.3-113.6-23.3-54-63.1-101.5-90.9-153.5-0.5-0.9-5.4-16.4-0.7-9.9z"  fill="#c2e1ff" /><path d="M116-399c13.4 48.1 55.7 80.1 78.4 123.3 28.3 54.1 36.8 123.7 46.5 183.5 1.2 7.3 11.8 54.4 4.7 57.1-5.9 2.3-5.8-8.8 0.1-6.4 5.9 2.5-1.9 10.3-4.4 4.5-1.4-3.1-28-165.3-35.2-192.7-15.2-58.3-56.4-93.1-84.6-143.7-3.8-6.8-10.2-16.7-10.9-24.6-0.2-3.3 4.1-3.7 5.4-1z"  fill="#005bbb" /><path d="M116.4 36c2.8 4.2 23.9 37.4 18.5 39.5-3 1.2-4.5-3.6-1.5-4.4 2.6-0.7 4.1 3.1 1.7 4.3-4.6 2.4-8.4-12.3-9.6-14.9-11.9-24.4-11.5-27.6-9.1-24.5z"  fill="#c2e1ff" /><path d="M123.1-29.9c14 13.9 63.8 85.5 58.1 104.1-1.2 3.9-7.1 0.6-4.4-2.5 2.7-3.1 6.7 2.5 3 4.1-3.7 1.6-21.8-49.5-24.9-55.7-8.8-18-20.3-33.4-33.6-48.2-1.1-1.2 0.6-2.7 1.8-1.8z"  fill="#fff500" /><path d="M143.8-399.5c20.5 46.4 63.9 77.6 85.4 123.6 27.8 59.4 23.6 136.5 26.1 200.8 0.3 8.3 6.5 63.3-0.8 65.6-5.5 1.7-6.2-7.9-0.5-7.1 6.7 1 0.8 11.2-3.4 5.8-8.2-10.4-2-53.6-2.6-67.4-2-52-2.3-106.3-11.8-157.5-12.1-64.5-61.6-99.7-92.3-153.8-1.2-2.1-4.6-16.8-0.1-10z"  fill="#fff" /><path d="M163.5-399.3c26.2 45.9 73.2 76 96.2 124.3 25.2 53 10.3 115.2 6.7 171.3-0.3 5.2 1.9 30.5-5.7 29.7-4.5-0.5-4.5-7.1 0-7.7 4.4-0.5 5.9 6 1.7 7.5-9.1 3.1-4.2-22.7-4-26.6 2.9-49.5 15.9-104.7 3.3-153.5-14.7-56.6-64.8-89.6-96.6-135.4-1.1-1.5-6.2-15.4-1.6-9.6z"  fill="#fff" /><path d=""  fill="#005bbb" /><path d="M153.1-307c71.8 90.3 85.5 252.2 98.8 363.7 0.5 3.8 5.1 17.7 0.4 19.8-3.9 1.8-6.4-4.5-2.3-5.9 4.1-1.4 5.9 5.2 1.7 6.2-7.2 1.6-8.7-40.5-9.3-46.2-4.4-49.4-8.7-98-21-146.3-13.7-53.7-24.3-114.4-52.6-162.6-5.3-9-14.3-17.7-18.4-27.1-0.8-1.8 1.5-2.9 2.7-1.6z"  fill="#fff" /><path d="M160.9-117c32.9 52.1 54.1 99.8 65.7 160.6 1.7 8.9 7 21.5 6.2 30.4-0.5 5.5-9 1.1-4.9-2.5 3.5-3.1 7.3 3.7 2.8 5-4.3 1.3-22.6-90.2-25.9-100.4-10.3-32.3-27.7-60.7-45.9-89.1-1.5-2.3-0.8-7.4 2-4z"  fill="#c2e1ff" /><path d=""  fill="#005bbb" /><path d="M197.7-399.6c39.3 48.3 113.7 77.9 131.5 141.5 15.5 55.4-28.2 110.6-42.4 162.2-2 7.2-8.5 54.3-15.3 53-4.7-0.9-4.1-8.1 0.8-8.2 4.8-0.1 5.7 7.1 1 8.2-9.8 2.4-2.5-21.8-1.8-25.3 9.7-53.9 59.7-140.6 52.5-185.2-9.9-61.6-80.4-94.3-120.1-135.2-1.1-1.2-10.7-15.1-6.2-11z"  fill="#005bbb" /><path d="M183.2-67c11.2 18.4 52.4 125.3 45.4 141.6-1.8 4.3-8.1-0.2-4.6-3.3 3.4-3.1 7.2 3.6 2.8 4.9-5.6 1.7-17.9-66.2-20-74.3-4.2-16.2-9.6-32-16.7-47.1-2.1-4.5-11.5-16.5-10.6-21.2 0.4-1.9 2.7-2 3.7-0.6z"  fill="#c2e1ff" /><path d="M191.1-135c23.7 54.1 40 105.4 47.7 164.1 1.3 9.6 10.4 37.4 6.3 45.6-2.2 4.4-8.5-0.7-4.7-3.8 3.8-3.1 7.4 4.2 2.7 5.4-5.9 1.5-17.3-92.3-19.4-102.9-7.5-37.6-22.4-71.3-37-106.4-1.2-2.9 2.8-4.5 4.4-2z"  fill="#fff" /><path d="M251.9-399.2c37.4 31.5 84.7 52.8 113.1 93.9 46.5 67.3-0.4 120.5-39.5 175.2-3.5 4.9-13 27.2-20.7 22.2-4.4-2.9-2.2-10 3-9.8 6.2 0.2 6.9 9.4 0.9 10.6-12.6 2.4-1.5-15.1 0.1-17.9 27.2-44.5 78.2-83.5 67.6-141.6-11.1-60.4-71.4-90.2-115.9-123.7-1-0.7-12-11.1-8.6-8.9z"  fill="#c2e1ff" /><path d=""  fill="#fff500" /><path d="M213.9 66.2c0.5 2 4.3 10.6-1.2 10.1-3.8-0.4-2.9-6.3 0.8-5.5 3.2 0.7 2.7 5.5-0.5 5.5-9.6 0.1-2.6-18.5 0.9-10.1z"  fill="#c2e1ff" /><path d="M221.5-0.6c1.9 8.2 17 76.2 11.8 77.1-3.4 0.6-4.8-4.4-1.6-5.7 3.8-1.5 5.8 4.5 2 5.6-6.4 1.8-7.6-20.1-8.4-23.9-3.1-16.1-10.2-36.3-9.8-52.6 0.1-3.7 4.9-3.6 6-0.5z"  fill="#fff500" /><path d="M228.8-72.7c3.7 14.1 27 148.3 19 149.3-5 0.6-4.1-7.7 0.6-6.1 4.7 1.5 0.6 8.7-3.1 5.3-8.4-7.8-6.9-44-8.1-55.4-2.3-22.3-4.6-44.6-8.7-66.6-0.9-5-8.2-23.8-4.8-27.7 1.7-1.9 4.2-0.8 5.1 1.2z"  fill="#c2e1ff" /><path d="M236.3-235.6c6.3 27.9 32 311.7 21.5 312.5-6.1 0.5-2.9-9.6 1.8-5.8 4 3.3-2.7 8.6-5 4-10.4-21.2-6.4-108.2-7.8-136.5-2.7-56.6-5.7-114.9-16-170.7-0.8-4.3 3.7-9.1 5.5-3.5z"  fill="#005bbb" /><path d="M244.1-173.3c2.4 22.9 21.5 249.4 13.5 250-5.2 0.4-4-8.1 0.9-6.4 4.9 1.8 0.2 9-3.5 5.4-6.2-6.2-6.5-84.6-6.9-98.3-1-32.6-13.8-128.3-10.7-150.9 0.6-4.1 5.9-3.5 6.7 0.2z"  fill="#fff" /><path d="M248.7-358.6c36.4 28.8 84 58.2 92.4 107.8 8.3 49.1-49.7 135.1-61.1 195.2-3 15.7-5.8 101.5-9.6 106.7-3.4 4.7-9.7-2.5-4.7-5.3 5-2.8 7.8 6.4 2.1 6.8-8.1 0.6-3.7-36.5-3.5-42.1 2.4-47.6 9.6-95.5 27.5-139.9 13.8-34.2 38.9-66.9 42.6-104.4 5.3-52.8-39.9-87.2-77-116-0.9-0.7-11.9-10.8-8.7-8.8z"  fill="#005bbb" /><path d="M259.2-165c0.1 22.3 3.4 241.3 0.9 241.4-5.2 0.4-3.9-8.3 1-6.4 4.9 1.9 0.1 9.2-3.6 5.4-5.8-6-5.2-74-5.2-86.3-0.1-22-5.7-144.8 0-155.8 1.9-3.6 6.5-1.8 6.9 1.7z"  fill="#c2e1ff" /><path d="M266.8-32.8c-0.6 11.4-0.2 109.5-2.8 109.7-5.3 0.3-3.9-8.4 1.1-6.5 4.2 1.7 1.2 8.2-2.8 6.1-10.1-5.4-8.8-101-2.7-111.5 2.2-3.7 6.9-1.5 7.2 2.2z"  fill="#005bbb" /><path d="M271.1-325.8c26 23.4 50.4 51.4 52.8 87.9 2.4 35.9-43.3 139.8-50.4 202.5-1.3 11.6-4.4 111.9-6.2 111.9-12.8 0.5 8.5-13.4 2.9-1.9-3.6 7.4-6.7-3.7-6.9-5.8-6.3-69.9 1.8-145.2 25-211.5 8.4-24.1 20.2-47.4 25.7-72.4 5.6-25.2 1.5-50.2-12.2-72.1-8.8-14-20.3-25.5-32.2-37-1-1 0.4-2.4 1.5-1.6z"  fill="#fff" /><path d="M278.1-362.5c39.7 27.4 86.9 57.7 93 110.2 7.4 63.7-62.5 122.5-81 183.4-7.4 24.3-12.2 100.1-16.6 105.5-3.8 4.7-10-3.1-4.6-5.8 5.4-2.7 7.8 7 1.8 7.2-16.6 0.4 17.5-132 23.2-145.1 19.1-43.6 62.3-80.4 69.4-128.5 5.9-39.2-17.3-72.8-46-96.8-12.1-10-25-18.9-38-27.8-0.7-0.5-2-2.8-1.2-2.3z"  fill="#fff500" /><path d="M289.5-25c-4.6 19-7.7 96.8-10 100.2-3.2 4.6-9.5-2.2-4.7-5 5.7-3.4 7.4 7.9 1 6.5-11.9-2.7 0.2-94.1 5.4-104.7 2.4-4.8 8.8-1.8 8.3 3z"  fill="#fff" /><path d="M296.6 47.4c-0.6 5.2 1.2 28-4.6 29.5-5.7 1.5-6.1-8.3-0.2-7.3 5 0.9 3.2 8.7-1.8 7.3-12.2-3.6 6-52.6 6.6-29.5z"  fill="#fff" /><path d="M340.3-399.3c65.1 93.7 113.8 157.1 18.6 254.1-7.6 7.7-35 47.8-44 47.8-12.2 0.1-0.9-18.9 4.9-8.2 4.9 9.1-13 11.2-10.3 1.2 11.4-42.2 87.7-71.3 96.3-139.4 7.1-57.2-34-105.8-65.1-149.1-0.7-1-4.5-11.1-0.4-6.4z"  fill="#fff500" /><path d="M341.4-399.7c34.1 50.3 83.9 104.7 70.9 170.6-8.8 45-44.9 73.2-73.8 105.6-6.4 7.2-34.9 56.4-40.6 55.6-9.2-1.4-1.1-15.4 4.7-8.1 5.8 7.4-9.8 11.9-9 2.6 4.8-50.4 99.2-100.5 111.5-164 11.4-59.3-31.8-110.8-63.5-155.8-0.8-1.1-4.4-11.2-0.2-6.5z"  fill="#c2e1ff" /><path d="M319.5-69.1c-23 34.7-32 77.5-34.1 118.5-0.3 4.9 2.6 25.7-2.9 27.4-4.7 1.4-6.6-6.1-1.8-7 5.6-1.1 5.4 8.4-0.2 7-8.2-2-1.9-44.6-1.1-51.6 3.1-29.3 9.2-79.2 31.6-101.1 4.8-4.7 11 1.4 8.5 6.8z"  fill="#c2e1ff" /><path d="M349.7-399.3c29.6 51 76 103.1 65.4 166.7-7.9 48-46.6 77.2-77.1 111.2-6.3 7-33.6 54.1-39.4 53.3-9.3-1.5-0.9-15.5 4.8-8.1 5.7 7.4-10 11.9-9 2.6 5.2-50.4 100.3-99.6 112.9-163.8 11.1-56.9-28.1-107-56.4-152.2-0.7-1.1-6-15.8-1.2-9.7z"  fill="#005bbb" /><path d="M330.3-367.7c50.2 43 92.6 107.2 56.3 173-25.8 46.7-70.2 77.3-89.7 128.7-9.1 23.9-14.1 49.1-17 74.4-0.6 4.9 1 28.9-6.3 28.2-5.2-0.5-3.9-8.7 1.2-7.6 4.4 0.9 3.7 7.6-0.8 7.6-18.5 0.1 22.4-128.2 29.3-140.6 24-43.4 71.5-74.1 86-122.5 11.1-37.1-3.3-74.9-26.3-104.3-6.6-8.5-40.2-42-32.7-36.9z"  fill="#005bbb" /><path d="M341.7-6.3c-10.2 16.5-17 34.9-21.2 53.7-1.3 5.7-1.3 27-6.4 29.8-5.6 3-8.5-7.1-2.2-7.5 6.3-0.4 4.7 10-1.2 7.8-14.7-5.7 15.9-79.6 21.7-89.2 3.7-6.1 12-0.9 9.3 5.4z"  fill="#005bbb" /><path d="M345.3-354.8c44.8 42.6 74.1 103.9 40.2 162.4-26.7 46.3-70.3 76.9-89.3 128.6-12.5 34-16.1 113.5-19.7 118.1-3.5 4.7-9.8-2.7-4.6-5.5 6.1-3.2 7.4 8.7 0.7 6.8-6.7-1.9-2.3-26.7-2-32 3.2-52.6 15.3-105.3 46.3-148.8 22.9-32.1 57.1-57.9 70.9-95.9 12-33.1 3.4-68-15.2-96.8-8.3-12.9-39.5-46.3-27.3-36.9z"  fill="#c2e1ff" /><path d="M365.1-399.3c19.6 49.7 57.4 94.5 56 150.6-1.8 69.4-65.6 102-101.1 153.1-9.1 13.1-25.1 57.7-29.7 59.2-6 1.9-8.4-7.6-2.4-8.9 7.2-1.5 7 10.7-0.1 9-9-2.1 2.4-24 4.1-28.5 25.6-66.2 99.7-100.4 117.9-165.2 16.2-57.8-22.4-109.5-45.5-159.2-1-2.1-3.5-17.7 0.8-10.1z"  fill="#005bbb" /><path d="M362.7-251.2c7.1 54.2-65 131.6-80.1 204.2-6.6 31.6-9.6 64.2-9.4 96.4 0 4 4.3 29.9-3.5 27.4-3.8-1.2-2.7-7.1 1.3-6.7 4.7 0.4 3.6 7.7-1 6.8-6.3-1.2-4-22.7-4.1-27.4-2.2-98.2 21.2-154.9 70.5-237.1 12.6-21.1 23-81.1 26.3-63.6z"  fill="#fff500" /><path d="M371-220.8c-13.5 59.6-72.2 98.8-88.8 185.6-5.4 28.4-8.1 57.6-7.9 86.5 0 4 4.2 27.9-3.7 25.5-4.5-1.4-1.9-8.4 2.4-6.5 3.7 1.6 1.9 7.4-2.1 6.6-7-1.4-4.1-33.1-4-39.1 0.7-66.7 14.5-132.5 52.1-188.4 12.9-19.2 28.2-37.3 37.9-58.5 11.6-25.3 15.3-19.4 14.1-11.7z"  fill="#c2e1ff" /><path d=""  fill="#c2e1ff" /><path d="M385.4-103.6c-41.6 30.4-72.4 63.6-85 114.9-2.6 10.4-5.5 60.8-8.5 64.6-4.2 5.5-10.3-4.8-3.5-5.9 6.8-1.1 4.2 10.6-1.5 6.7-6.1-4.1-0.7-30.5 0-37 5.7-54.4 36.9-132.1 92-154.9 7.6-3.1 11.8 6.6 6.5 11.6z"  fill="#005bbb" /><path d="M380.4-399.4c10.3 47.2 41.4 87.7 45.1 136.8 4.9 66.2-45.1 102.6-85.6 145.8-6.4 6.9-34 53-39.8 52.1-9.3-1.6-0.8-15.6 4.9-8.1 5.7 7.6-10.2 11.9-9.1 2.5 5.7-49.8 99.3-99.4 117.5-156.6 18.4-58-19.3-109.4-36.1-162.4-1.1-3.4-0.3-19.1 3.1-10.1z"  fill="#c2e1ff" /><path d="M400.9-14.6c-13 17.3-24 36-31.2 56.4-2.8 7.9-4.1 29.5-9.9 34.8-5.8 5.4-10.7-7.5-2.8-7.4 6.7 0.1 4.2 11-1.9 8.1-17.3-8.3 28.8-88.7 36.6-98.7 4.6-6 12.8 0.4 9.2 6.8z"  fill="#fff" /><path d="M398.6-398.8c1.6 54.4 38.7 101.3 32.5 157.2-7.6 68.4-70.9 98.6-108.1 149-9.3 12.7-26.4 56.6-30.7 57.9-7.1 2.1-8-10.1-0.7-9.1 6.3 0.9 4.3 10.7-1.8 9.1-9.1-2.3 2.4-23.1 4.4-27.8 26.4-64.8 97.7-94.5 122.6-158.4 21.4-55-10.2-105.4-22.1-158.1-4.1-18.2 1.5-31.5 3.9-19.8z"  fill="#fff500" /><path d="M388.4-399.3c5.9 44.5 33.1 83.2 38.8 127.9 8.8 67.9-38.6 107.2-81.7 150.7-6.5 6.6-34.8 49.5-40.9 48.1-8.1-1.8-2.2-14.4 4.4-9.3 7.7 6-6.9 14.6-8.4 5-3.2-20.2 101.7-110 114.7-148.7 19.5-58-18.1-109.3-31.3-163.7-1-4.1 1.5-19.6 4.4-10z"  fill="#005bbb" /><path d="M422.5 51.4c-0.6 4.8 1.3 24-4.3 25.5-5.8 1.5-6.1-8.4-0.3-7.4 5 0.9 3.1 8.8-1.8 7.3-12.3-3.7 5.8-46.3 6.4-25.4z"  fill="#fff" /><path d="M428.8-302.7c34.1 130.8-81.4 148.8-124.8 245.2-14.5 32.2-20.6 68.3-22.1 103.4-0.2 4.4 2.9 33.4-4.9 30.7-3.9-1.4-2.5-7.4 1.6-6.9 4.1 0.5 4 6.7-0.1 7.1-19.1 1.8 8.8-130.9 30.5-166.1 25.8-41.9 70.3-66.3 97.8-106.6 12.9-19 20.5-40.9 21.1-63.9 0.4-14.4-5-28.3-4.9-42.2 0-3.6 4.7-3.6 5.8-0.7z"  fill="#c2e1ff" /><path d="M437.6-389.3c-12.5 54.5 20.4 108 5.2 163.2-19.6 71.1-94 98-129.2 158.3-7.1 12.2-27.4 81.3-27.5 81.5-4.7 4.6-10.5-4.7-4.3-7 7.3-2.6 6.8 10.9-0.3 7.8-6.4-2.9 0.3-21 1.2-25.8 24.1-116.2 101.1-116.5 143.6-199.5 26.8-52.4 2.8-102.6 1.4-156.9-0.5-19 10.7-38.2 9.9-21.6z"  fill="#005bbb" /><path d=""  fill="#c2e1ff" /><path d=""  fill="#c2e1ff" /><path d="M460-225.4c-26.4 82-118.5 107.7-152.8 183.4-11.4 25.1-17.2 52.7-19.8 80.2-0.8 8.2 2.5 31.1-2 37.3-3.9 5.5-10.2-4.4-3.6-5.7 6.6-1.2 4.4 10.2-1.3 6.6-6.5-4.2-1.3-35.2-0.7-42.3 10.9-128.8 63.6-128.5 137.2-208.7 12.9-14.1 26.3-47.8 35.3-55.9 3.9-3.6 8.7 0.7 7.7 5.1z"  fill="#fff" /><path d="M467.4-21.7c-9 27.8-3.6 93.9-4.7 96.3-2.2 4.4-8.6-0.8-4.8-3.9 4.5-3.6 7.4 6.1 1.7 5.6-16.8-1.5-4.5-89.5-1.1-100.6 1.8-5.9 9.8-3.2 8.9 2.6z"  fill="#fff500" /><path d="M474.1-396.1c-27.3 54.7 1.5 117.6-18.2 174.5-24 69.2-93.7 94.3-133.5 150.7-8.8 12.5-24.6 63.2-29.9 67.7-5.4 4.5-10.7-5.9-4-7.7 8-2.1 6.2 12.1-1 8.1-7.4-4 4.9-31.1 7.2-37.1 26.9-73.1 101.4-98.8 140.3-161.8 32.5-52.6 13.8-105.6 20.4-162.6 1.3-10.9 3.1-28 10.1-37 3.8-4.9 10.3-0.1 8.6 5.2z"  fill="#fff" /><path d="M482.4-186.5c-46 62.8-131.3 99-163.6 160.3-22.6 43-17 92.8-24 101.9-4.3 5.5-10.4-5-3.5-6.1 6.9-1 4.1 10.8-1.6 6.8-6.4-4.5 0.1-34.2 1-41.2 13.9-102 75.6-123.6 143-185.5 14.4-13.2 25.6-32.1 40.5-44.2 5.5-4.4 11.3 2.6 8.2 8z"  fill="#c2e1ff" /><path d=""  fill="#c2e1ff" /><path d="M495.3 50.2c1.1 3.8 10.5 24.2 5.5 25.7-3.4 1-4.7-4.4-1.2-5 3.4-0.7 4.2 4.8 0.7 5.1-4.3 0.3-11.1-21.9-10.4-25.5 0.6-3 4.3-2.7 5.4-0.3z"  fill="#005bbb" /><path d=""  fill="#fff" /><path d=""  fill="#fff500" /><path d="M508.8-396.2c-28.3 55.4-12.9 119.1-36.2 175.9-26.6 64.9-85.4 92.2-131.7 139.6-6.4 6.5-34.6 52.4-39.1 50.2-7.1-3.5 1.1-13.7 6.1-7.6 5.8 7.2-9.6 11.9-8.9 2.7 4.5-55.9 115.6-113.3 148.2-160.4 36-52.2 26.8-108.2 39.4-166.7 2.2-10 5.8-33.5 14.5-40.1 4.6-3.4 9.3 1.7 7.7 6.4z"  fill="#fff500" /><path d="M526.9-237.3c-64.2 114.8-156.8 140.3-198.9 206.6-13.6 21.4-21.5 45.9-25.6 70.8-1.3 8.1 0.6 29.9-4.3 35.8-4.4 5.5-10.4-5.2-3.4-6.1 7-0.9 4 11-1.8 6.8-6.4-4.7 0.6-34.2 1.7-41.2 16.8-108.6 98.8-131.4 165.6-202.1 22.1-23.3 37.1-55.3 58.2-77 4.6-4.7 10.8 1.1 8.5 6.4z"  fill="#fff" /><path d="M533.9-315c-15.3 69.7-45.8 130.1-99 178.6-34.3 31.2-78.7 52.8-105.9 91.2-14 19.7-22.8 42.6-28 66.2-1.8 8.2-0.9 30.5-6.1 36.3-4.9 5.5-10.6-5.9-3.3-6.6 7.3-0.6 3.6 11.6-2.1 7-6-4.8 1.7-31.8 3-38.5 20.8-106.9 109-127.9 170.7-203.1 20.3-24.8 36.8-52.7 47.9-82.8 4-10.7 7.4-46.7 16-52.9 3.5-2.5 7.2 0.8 6.8 4.6z"  fill="#c2e1ff" /><path d="M531.9-396.2c-25.4 55.8-20.2 118.9-45.6 174.6-29.5 64.6-85.5 95.3-135.7 140.8-6.6 6-35.8 47-40.9 44-7.1-4.3 2.4-14.3 7.1-7.5 5.4 8.1-11.1 11.7-9.6 2.1 6.5-38.9 121-110.5 151.2-152.7 39.8-55.6 35.3-118.5 55-180.8 9.8-31 22.1-32.9 18.5-20.5z"  fill="#fff" /><path d="M547.5 6.4c1.3 7.8 22 69.1 21.3 69.4-3.4 1.4-4.4-4.6-0.7-4.4 3.1 0.2 2.6 5.1-0.5 4.5-11-1.8-24.2-58.3-26.2-68.3-0.8-4.1 4.9-4.9 6.1-1.2z"  fill="#005bbb" /><path d="M555.9-145.9c-48.8 38-91.9 88.6-107.3 149.7-3.2 12.8-2.7 66.4-5.6 71.1-3.4 5.4-9.9-3.6-3.7-5.1 6.2-1.6 4.7 9.4-0.9 6.3-5.9-3.3-3.2-27.4-3.1-33.3 1.2-78.6 49.1-147.2 108.2-195.5 7.4-6.1 21.7-2.5 12.4 6.8z"  fill="#c2e1ff" /><path d="M563.7-361.7c-24.4 81.4-41.4 143.4-101.8 207.4-37.6 40-90.2 64.7-124.7 107.1-6.9 8.5-22.8 50.5-30.2 52.6-7.2 2-7.9-10.3-0.6-9.2 7.4 1.2 2.8 12.7-3.3 8.6-7.7-5.1 8.7-32.7 11.9-38.5 34.2-63.8 113.7-97 160.2-153.9 35.5-43.3 57.1-91.2 71.1-145.1 2.6-9.9 3.8-23.7 9-32.6 2.8-4.9 9.2-1.3 8.4 3.6z"  fill="#fff" /><path d="M571.1-102.8c-29.8 30.2-46.5 68.3-39.1 111 1.9 11.3 23.3 61.5 22.4 65.5-0.9 4.2-7.1 0-3.6-2.4 3.5-2.4 5.2 4.8 1 4.2-15-2.4-41.4-100.7-15.3-151 5.2-10 16.8-33.3 28.2-37.3 6.4-2.2 9.9 5.3 6.4 10z"  fill="#c2e1ff" /><path d=""  fill="#fff500" /><path d="M585.9-333.6c-25.5 83.2-75.1 151-139.5 209-32.2 29-72 50.5-100.6 83.3-11.5 13.2-20.5 28.2-27.1 44.4-1.6 4-5.2 25-12.9 19-4.9-3.8 1.5-11.2 5.9-6.9 5.2 5-4.8 11.7-7.4 4.9-2-5.3 3.6-15.6 5.4-20.5 28.7-78.8 116.6-116.4 170.9-175.9 27.4-30 54.5-62.5 73.1-98.9 6.9-13.5 16.6-55.1 24.5-63.1 3.6-3.6 8.5 0.3 7.7 4.7z"  fill="#c2e1ff" /><path d="M592.9-163.7c-51.4 39.5-104 80.4-120.5 146.7-5.9 23.7-5.8 48.2-1.8 72.2 0.4 2.3 7.3 24.8-0.6 20.8-3.1-1.5-1.3-6.3 2.1-5.5 3.9 1 2 7-1.8 5.6-4.2-1.6-4.4-12.8-5.1-16.5-11.9-57.7 1.3-112.5 37.2-159.1 20.1-26 53-62.4 83.9-75.6 7.5-3.2 11.8 6.4 6.6 11.4z"  fill="#c2e1ff" /><path d=""  fill="#c2e1ff" /><path d=""  fill="#005bbb" /><path d="M603-393.1c-34.8 114.7-61.2 179.4-151.4 263.1-11.2 10.4-42.1 45.3-57.8 45.1-10.6-0.1-6.6-17.3 3-12.7 8.2 3.9 1.3 16.5-6.4 11.7-13-8.1 24.3-29.6 29.8-34 38.2-30.6 71.7-67 101-106.2 23-30.8 39.6-63.4 51.3-100 4.4-14 14.4-63.2 22.8-71.7 3.6-3.6 8.5 0.3 7.7 4.7z"  fill="#fff" /><path d="M603.2-276.3c-37.4 75.9-150.4 166.8-216 222.2-17.6 14.8-33.9 31.1-45.6 51-2.6 4.4-10.6 29.9-18.3 22.8-5.6-5.3 5-12.6 7.9-5.4 2.5 6.2-7.4 9.5-9.3 3.1-9.2-32.9 118.1-131.7 143.4-156 35.9-34.5 74.4-69.1 105.8-107.8 7.7-9.5 15.1-30 24.6-36.6 4.7-3.3 9.3 2 7.5 6.7z"  fill="#c2e1ff" /><path d="M603.2-269.8c-39 73.7-156.5 165.6-220.7 222.4-12.3 10.9-23.8 22.6-33.1 36.1-3.4 4.9-8.8 20.3-14.9 21.2-8.1 1.1-7-12.4 0.8-10 7.8 2.4 1.2 14.2-4.9 8.8-21.6-19.2 117.8-128.9 132.5-143 40.2-38.4 86.6-77 119.2-122.3 19.9-27.7 24.9-22.6 21.1-13.2z"  fill="#005bbb" /><path d="M603.2-244.2c-33.1 47-159.8 155.1-208.7 201.1-16 15-30.9 31.2-42 50.3-2.5 4.4-9.7 28.3-17.3 21-5.6-5.3 5-12.6 7.9-5.4 2.9 7.2-9.9 9.3-9.4 1.5 2.4-43.7 83.9-104.8 114.2-133.6 16.4-15.6 143.2-141 148.3-143.4 5.7-2.7 9.8 3.8 7 8.5z"  fill="#005bbb" /><path d=""  fill="#fff500" /><path d="M603.3-288.7c-8.1 18.7-18.3 36.3-30.9 52.3-24.3 31.1-144.9 158.7-175.8 170-9.8 3.6-12.1-13.6-1.6-12.7 12.2 1 2.7 20-5.5 10.9-8.1-9.1 20.2-24.9 25.9-29.6 28.7-23.3 55.2-48.9 81.1-75.2 24.9-25.3 51.4-50.1 72.9-78.5 8.5-11.3 15.7-35.2 26.2-43.3 4.4-3.4 9.2 1.5 7.7 6.1z"  fill="#fff500" /><path d="M603.2-228.6c-25 30-58.2 52.8-86.8 79.1-37.1 34.2-72.5 70.6-107.9 106.4-7.5 7.5-33.5 46.4-42.2 46.6-8.8 0.2-5.9-14.1 2.1-10.5 8 3.5-0.5 15.3-6.3 8.7-11-12.4 56.9-72.7 66.3-82.1 21.1-20.8 153.8-152.3 168.2-157.7 6.2-2.4 9.9 4.8 6.6 9.5z"  fill="#fff" /><path d="M603.3-254.4c-28.9 46-76.3 80.9-114.8 118.6-20 19.5-71.2 75.9-93.9 85.4-9.3 4-12.4-12.6-2.3-12.2 11.9 0.4 3.6 19.3-4.8 10.8-8.4-8.5 52.4-54.9 60.7-62.7 37.7-35.2 75.2-71.1 112.2-107.1 10.7-10.4 23.2-34 35.7-40.7 5.4-2.9 9.7 3.2 7.2 7.9z"  fill="#fff" /><path d="M602.6-134.5c-37.9 32.6-76.7 68.1-76.2 122.3 0.2 24.5 8.1 48.2 17.6 70.4 0.7 1.7 10.6 19.1 3.6 17.2-3-0.8-1.5-5.5 1.4-4.4 2.5 1 1.4 4.8-1.2 4.5-15.3-2.4-40-100-16.2-148.6 8.3-17 46.9-68.4 65.4-72.6 6.9-1.6 9.8 6.6 5.6 11.2z"  fill="#005bbb" /><path d="M603.1-218.8c-38.1 41.6-101.6 88-149.9 139-7.1 7.5-49.2 59.8-56.7 52.7-5.9-5.5 3.4-14.3 8.6-8.2 5.2 6.1-4.9 13.9-9.5 7.2-6.1-9 28.6-38.8 34.8-45.4 41.1-44 83.1-85.9 129.9-123.9 8.3-6.7 27.7-31 37.9-31.8 6-0.5 8 6.2 4.9 10.4z"  fill="#fff500" /><path d="M603-226.9c-10.5 12.4-123.4 117.7-132 122-2.5 1.2-5.5 0.7-7.3-1.4-5.6-6.2 4.7-14.6 9.6-7.8 4.9 6.8-6.2 14-10.4 6.7-5.4-9.4 30.5-36.7 37-43 24.2-23.1 69.3-67.8 95.2-85.4 6.1-4.1 11.6 3.6 7.9 8.9z"  fill="#005bbb" /><path d="M603.1-46.8c-9.3 25.5-1 79.3-1.9 81.3-1.7 4.2-7.8 0-4.6-3.1 3.8-3.6 7.2 4.9 2 4.9-16.6 0-7.6-76.4-4.5-86 2-5.9 10.1-3 9 2.9z"  fill="#005bbb" /></svg>