<svg width="1200" height="675" viewBox="-500 -500 1200 675" xmlns="http://www.w3.org/2000/svg"><path d="M-500-500h1200v675h-1200z" fill="#000"/><path d=""  fill="#fff" /><path d=""  fill="#fff500" /><path d=""  fill="#005bbb" /><path d=""  fill="#fff" /><path d=""  fill="#fff" /><path d=""  fill="#005bbb" /><path d=""  fill="#005bbb" /><path d="M-397.9 59.4c1.7 1.6 16.8 13.7 15.9 14.8-2.2 2.6 2-2.9 0.1-0.1-2.8 4.1-20.5-17.8-16-14.7z"  fill="#c2e1ff" /><path d=""  fill="#c2e1ff" /><path d=""  fill="#005bbb" /><path d=""  fill="#005bbb" /><path d=""  fill="#fff500" /><path d=""  fill="#005bbb" /><path d="M-389.6-339.9c-1.4 3.1-7.9 21.2-13.7 10.5-7.9-14.6 22.2-3 6.4 2.5-11.7 4-4.4-15.1-2.1-18.3 3.9-5.4 11-0.4 9.4 5.3z"  fill="#005bbb" /><path d="M-382.5-48.2c0 35.4 14.4 66.4 38.2 92 7.7 8.2 15.9 15.8 24.2 23.4 0.4 0.4 9.2 6.9 5.2 7.5-5.7 0.7 5.4-3.2 0.5-0.2-2.6 1.6-21.8-19-24.6-21.6-24.3-23.3-43.9-50.2-49.6-84.1-4.2-24.8 5.4-21.3 6.1-17z"  fill="#fff" /><path d="M-373.6-165.9c-12.8 54.9-37.5 116.9-12.5 171.7 10.3 22.6 27.6 40.5 46.2 56.5 1.4 1.2 15.4 11.5 11.7 12.1-4 0.7 4-1.1 0.1 0-2.9 0.8-14.8-11.9-17.3-14-52.6-45.4-56.6-73.5-57.7-143.3-0.3-17.4 12.4-70.9 20.4-86.3 2.7-5.3 9.7-1.9 9.1 3.3z"  fill="#fff500" /><path d="M-365.6-132.9c-11.3 49.2-24.2 101.2 2.9 147.9 11.3 19.5 27.4 35.3 43.7 50.5 1.6 1.5 8.5 6.1 8.1 8.4-0.1 0.5-0.5 0.9-1 1-5.5 1.2-28.8-26.7-33.1-31.2-25.2-26.4-41.3-58-42.3-95-0.7-24.6 1.4-62.6 12.7-84.9 2.7-5.3 9.6-2 9 3.3z"  fill="#fff500" /><path d="M-361.5 58.2c1.8 1.6 18.9 14.5 17.9 15.7-1.1 1.2 1.2-0.8-0.1 0.2-3.4 2.6-21.1-18-17.8-15.9z"  fill="#fff500" /><path d="M-384.2-395.1c-2.7 4.4-12 25.3-19.3 15.2-4.1-5.7 3.6-12.7 8.9-8 5.2 4.6-0.8 13.2-6.9 9.7-8.2-4.6 4.4-22.4 9.2-25.3 5.7-3.3 10.5 3.2 8.1 8.4z"  fill="#fff" /><path d="M-341-345.2c-6.5 17.7-51.7 206.4-52.3 218.8-2 42.6-5.3 88-2.2 131.1 1.7 23.2 31 46.6 47.5 60.2 1.9 1.6 10.3 6.7 10.2 8.7 0 0.4-0.5 0.9-0.9 0.8-7.9-0.2-26.2-21.1-32-26.6-9.8-9.4-25.8-24-28.9-37.8-7.3-32.4-3-115.3-3.3-139.1-0.1-4.7 44.3-196.4 48.9-210.5 2.2-6.7 16.2-19.6 13-5.6z"  fill="#c2e1ff" /><path d="M-333.2-201.2c-11.1 60.9-39.4 136.1-17.1 196.9 9.3 25.5 27.1 45.9 45.2 65.6 2 2.2 11.4 9.9 10.7 12.7-0.1 0.5-0.7 1.1-1.2 1.1-3.2 0.4-11.6-11.8-14-14.3-32.2-35-57.2-70.9-56.6-120.5 0.6-47.1 13.6-97.3 23.8-143.1 1.3-6 9.5-4.2 9.2 1.6z"  fill="#005bbb" /><path d=""  fill="#c2e1ff" /><path d="M-317.7-47.2c0.7 35.5 14.8 66 33.9 95.1 3.4 5.2 17.2 19.9 16.7 25.9-0.3 3.8-6.3 0.9-3.4-1.7 2.4-2.2 5.1 2.5 2 3.5-4.3 1.3-23.1-32.2-26.1-36.8-14.1-22-36.1-58.9-30.9-86.5 0.9-4.7 7-3.6 7.8 0.5z"  fill="#005bbb" /><path d=""  fill="#005bbb" /><path d=""  fill="#005bbb" /><path d="M-296 55.9c1.8 2.3 16 16.5 12.8 18.8-1.9 1.4-3.9-1.8-1.8-2.9 2.1-1.1 3.7 2.2 1.5 3.1-6.2 2.6-17.3-23.6-12.5-19z"  fill="#fff500" /><path d=""  fill="#fff500" /><path d="M-277.8-14.7c1.9 10 32 90.2 31.6 90.3-3.3 1.3-5-4-1.6-4.9 3.4-0.9 4.5 4.5 1.1 5.1-8.6 1.3-38-79.5-37.7-89.9 0.1-4.1 5.4-4 6.6-0.6z"  fill="#005bbb" /><path d="M-268-376.2c-12.1 33.6-27.5 66-38.7 100.1-18.9 57.4-43.8 167.3-43.3 226.8 0.3 30.6 10.6 58.4 28.6 82.9 1.6 2.2 18.1 21.3 13.8 21.4-6.4 0 6.5-0.7 0.2 0-4.4 0.5-16.2-18.4-18.9-21.9-15.3-20.3-26.6-43.1-30.3-68.4-11.9-82.3 42.8-253.7 74-332.5 1.6-4.1 2.7-11.1 6.1-14.1 4.3-3.9 9.7 0.9 8.5 5.7z"  fill="#fff500" /><path d=""  fill="#005bbb" /><path d="M-253.7 9.2c1.9 7.5 23.5 65.6 19.2 66.8-3.7 1.1-5.2-4.8-1.3-5.6 3.3-0.6 4.7 4.2 1.6 5.5-5.5 2.3-8.4-14.5-9.4-17.4-5.2-14.2-15.8-33.2-16.3-48.4-0.1-3.8 4.8-4.1 6.2-0.9z"  fill="#005bbb" /><path d="M-244.6-61c-0.6 34.7 5.1 68.4 14 101.9 1.3 5 12.5 34.2 6.4 35.5-3.5 0.8-5.3-4.3-2-5.8 3.3-1.5 6.1 3.1 3.2 5.3-4.6 3.5-5.9-5.5-6.5-7.4-9.4-33.8-19.2-67.7-22.1-102.7-2.1-25.1 5.5-39.2 7-26.8z"  fill="#fff500" /><path d="M-235.6-198.1c-23.7 60.6-37.3 134.7-22.4 198.9 4.8 20.7 12.4 40.7 19.9 60.6 0.9 2.3 8.3 15.2 1.4 15-3.3-0.1-3.7-5-0.4-5.6 3.2-0.6 4.7 4.1 1.6 5.4-5.6 2.4-10.1-18.7-11.4-22.3-20.5-54.7-29.1-105.3-21-163.6 3.8-27.3 7.1-70.1 23-93.3 3.7-5.4 10.7-0.8 9.3 4.9z"  fill="#fff" /><path d="M-227.4-256.4c-35.5 69.2-65.7 158.1-52.8 237 2.6 16.3 35.7 88.9 34.7 93.3-1 4.6-7.9 0-3.9-2.7 3.9-2.7 5.7 5.4 1 4.6-6.2-1-16.8-33.1-19.6-39.2-43.3-95-15.6-206.4 29.4-296.1 3.7-7.3 14.4-5.6 11.2 3.1z"  fill="#005bbb" /><path d="M-219.5-180.6c-19.9 63.1-22 133.1-9.6 197.9 2.3 12.1 17 47 12.3 57.7-2.1 4.7-8.9-0.3-5.1-3.7 4.5-4 8 5.8 2.1 5.6-6.8-0.2-12.4-41.8-13.8-48.4-14.5-66.5-15.4-136.4 1.8-202.5 1.7-6.7 14.6-20.3 12.3-6.6z"  fill="#c2e1ff" /><path d="M-211.5-168c-14.4 59.3-10.8 122.6-3.2 182.7 0.9 7.4 11.7 61.1 5.5 61.8-4.7 0.5-5.1-6.9-0.4-6.9 4.7 0 4.3 7.4-0.3 6.9-6.2-0.7-6.3-22.6-7.1-27.4-10-64.5-17.3-131.1-8.1-196.1 1-7.3 1.2-17.5 4.6-24.1 2.6-5.3 9.6-2 9 3.1z"  fill="#fff" /><path d="M-204.3-40.3c0.9 12.2 11.5 117.4 5.2 117.7-5 0.2-5-7.7 0.1-7.4 5.9 0.4 3.2 9.8-2 7-2.2-1.2-15.1-91.7-10.8-117.6 0.8-4.6 6.7-3.7 7.5 0.3z"  fill="#c2e1ff" /><path d="M-195-302.7c-39.4 86.4-85.4 170.4-77.7 269.3 1.7 22.5 33.2 107.1 33 107.7-1.3 4.8-8.3-0.3-4-2.9 4.2-2.6 5.8 5.9 0.8 4.9-7-1.4-17.8-39.3-20.6-46.4-45.4-115.1 6.5-228.1 55.8-331.7 3.3-7 16.6-12.8 12.7-0.9z"  fill="#fff500" /><path d="M-186.9-348c-40.3 102.1-100.7 187.2-97.9 302.9 0.9 36.6 14.2 69 30 101.3 0.6 1.3 12 24.6 4.2 19.5-10.2-6.8 13.1 2.3 1 0.4-7.2-1.1-21-41.1-24.2-48.3-57.9-131.1 24.4-254.2 73.3-371 2.5-6 17.5-19.2 13.6-4.8z"  fill="#fff500" /><path d="M-178.8-294.8c-37 86.4-75.3 164.5-68.7 261.5 1.9 29.1 9.1 57.2 17.2 85.1 1 3.3 10.6 25.2 2.9 24.5-4.1-0.4-3.2-6.9 0.8-6 3.5 0.7 3 6-0.5 6-5.9 0.1-10.5-27.5-11.9-32.5-21.4-73.4-22.1-148-1-221.7 8.7-30.4 33.4-98.2 51.9-122.4 4.1-5.3 11.1-0.2 9.3 5.5z"  fill="#c2e1ff" /><path d="M-170.7-285.9c-36.6 89-63.1 155.4-56.2 254.2 1 14.8 18 102 15.6 106.9-2.7 5.6-10-2.4-4.2-4.6 5-1.9 6.3 6.9 1 6.5-6.8-0.5-10.6-41.1-11.7-47.7-12.3-68.7-15.6-141.4 2.4-209.5 8-30.2 25.5-86.4 43.8-111.1 3.9-5.3 11-0.4 9.3 5.3z"  fill="#005bbb" /><path d="M-162.6-303c-37.6 96.2-68.2 156.1-62.3 263.4 0.9 15.7 17.7 109.5 15.2 114.4-2.8 5.7-10.1-2.5-4.2-4.6 5.1-1.9 6.3 7 0.9 6.5-7.1-0.6-11.2-47.9-12.5-55.2-11-68.8-13.9-141.9 5.6-209.4 8.4-29.2 31.2-96.6 48-120.2 3.8-5.3 10.8-0.5 9.3 5.1z"  fill="#fff" /><path d="M-155 41.7c-0.9 6-1.5 37.3-9.7 35.8-6-1.1-3.8-10.4 2-8.7 5.8 1.7 2.7 10.7-3 8.4-12.5-5.2 11.4-62.1 10.7-35.5z"  fill="#fff" /><path d="M-146.9-216.4c-16.2 106.3 77.1 158 39.7 265.9-2.1 6.1-6.1 27.4-12.9 29.2-6.8 1.8-9.1-9.1-2.1-10.2 7-1.1 8.1 10 1 10.4-11.3 0.5-0.8-19.5 0.7-23.4 9-24.7 18-49.9 16.2-76.6-3.3-50-40.8-89.9-50.1-138.7-3.2-16.5-7.4-42.7-1.2-58.8 2-5.2 8.7-2.7 8.7 2.2z"  fill="#fff" /><path d="M-140.5-137c23.8 75.3 65.9 104.7 34.8 190.1-2 5.5-5.8 26-13.4 25.4-6.1-0.4-6.4-9.5-0.4-10.4 7.1-1 8.1 10.2 0.9 10.5-11.3 0.4-0.8-19 0.7-22.8 9.6-25.7 19.1-51.8 16.4-79.8-3.7-39.8-29.9-72.5-43.7-108.9-1.5-4.1 2.2-9.1 4.7-4.1z"  fill="#c2e1ff" /><path d="M-132.8-102.1c24.3 54.1 38.3 95.3 18.9 154-2 6.1-4.3 21.7-9.7 25.5-5.7 4-11.5-5.4-5.4-8.7 7.1-3.9 10.9 9.1 2.8 9.6-10.6 0.7-2.1-16.3-0.8-20.1 8.1-23.9 16.8-48.1 16.4-73.7-0.5-30.9-14.8-56.9-26.9-84.4-1.4-3.1 3-4.9 4.7-2.2z"  fill="#fff500" /><path d="M-124.3-166c25.5 85.5 116.2 112.5 66.7 217.4-2.8 6-10.5 29.4-18.9 27.6-6.5-1.4-5.5-11.4 1.2-11.4 6.7 0 7.8 9.9 1.3 11.4-16.3 3.6 6.2-32.2 8-36.1 11.3-23.3 18.8-48.7 13.6-74.7-8.1-40.6-41.7-68.2-62.6-102-5.9-9.5-11.1-19.7-14.8-30.2-1.3-3.7 3.9-5.2 5.5-2z"  fill="#fff" /><path d="M-115.7-193.8c11.5 61.8 70.8 89.3 96.2 142.9 14.6 30.7 11.9 64.2-1.6 94.7-3.1 7.1-14.5 37.8-24 35.2-6.6-1.8-5-12 1.9-11.6 6.9 0.3 7.5 10.6 0.6 11.8-16.7 2.8 7.7-32.7 9.9-37.1 12.3-24.3 19.2-51.4 12.4-78.4-12.2-48.5-58.9-75.1-84.4-115.5-7.9-12.4-14-26.1-17.4-40.4-1-4.3 5-5.4 6.4-1.6z"  fill="#fff500" /><path d="M-105.7-372.2c-35.7 60.7-70.8 172.2-59.4 242.3 10.7 65.8 33.7 107.3 20.1 176.8-1.1 5.5-1.2 19.1-5.5 23-5.5 5-11.7-5.7-4.5-8 7.1-2.2 8.2 10.1 0.8 9.1-6.1-0.8 7.5-77.4 7.1-88.4-2.1-68.7-38.2-120.5-24.8-193.3 9.9-54.2 27.9-119.4 56-167.1 3.9-6.7 13-1.2 10.2 5.6z"  fill="#005bbb" /><path d="M-99.2-28.5c2.4 12.4-6.9 114.1-25.1 106.8-5.6-2.3-3.2-10.9 2.8-9.9 7 1.2 4.5 12-2.3 10.1-9.7-2.7 11.5-49.8 13.6-57.9 4-15.2-0.7-36.4 4.2-49.8 1.3-3.7 6-2.5 6.8 0.7z"  fill="#005bbb" /><path d="M-93.2-129.1c43.9 58.4 95.2 93.7 58.3 174.8-3.2 7-12.4 33-21 33.5-8 0.6-8.2-12-0.2-11.7 6.8 0.2 7.6 10.4 0.9 11.7-4 0.7-7.6-2.9-6.9-7 6.7-33.3 39.1-46.2 30.6-100.2-6.2-39.1-36.6-65.2-60.5-94.1-0.6-0.8-5.8-11.5-1.2-7z"  fill="#005bbb" /><path d="M-81.8 16.1c-1.7 8.7-17.3 67.2-28.2 62.1-6.6-3.1-1.1-13.3 5.2-9.5 6.3 3.8-0.3 13.4-6.2 8.9-4.8-3.7 15.8-59.9 20.9-65.8 3.5-4 8.8-0.3 8.3 4.3z"  fill="#c2e1ff" /><path d="M-98.8-394.6c-42.2 54.5-88.4 201.3-83.6 270 1.4 19.4 21.7 120.4 14.5 129.9-4 5.1-10.9-3.1-5.2-6.2 6.8-3.5 8.1 9.7 0.8 7.6-6.2-1.8-4.9-46.7-5.9-54.4-4.1-30.2-11.3-60-12.7-90.6-3.3-73.4 29.4-152.5 57.8-219.1 5.9-13.8 13.4-35.6 25.1-45.6 5.8-5 12.4 2.5 9.2 8.4z"  fill="#fff" /><path d="M-65.2-366.1c-36.4 59.5-51.2 151-4.4 208.5 31.5 38.7 78.7 62.9 96.4 112.2 4.8 13.2 11 81.9-4.6 85.9-8.1 2.1-8.6-11.8-0.4-10.3 9.7 1.8 0.6 16.2-5.2 8.3-2.8-3.8 10.3-54.9 6.9-72.5-15.7-80.8-114.5-105.8-128.2-188.7-6.8-41 2.4-86.5 17.6-124.7 12.5-31.3 27.6-32.4 21.9-18.7z"  fill="#fff" /><path d=""  fill="#fff" /><path d="M-51.1-239.9c27.1 104.2 174.9 129.2 142.1 288.2-1.2 5.9-3.4 30.1-11.5 29.9-5.9-0.1-6.7-8.8-1-10 5.7-1.2 8.4 7.2 3.1 9.6-13.1 5.9 1.2-36.7 2.1-41.3 5.9-30.7 3.9-61.6-7.3-90.9-24.7-64.7-83.2-97.4-118.9-153.2-13.3-20.8-13.6-43.4-8.6-32.3z"  fill="#fff" /><path d="M-47.6-394.2c-46.7 53.8-76.1 152.1-41.1 218.7 28.7 54.6 95.6 79.3 111 142.7 1.2 5 7.5 26.7 0 28.6-6.3 1.7-6.8-9.2-0.4-8 7.6 1.3 0.5 12.7-4 6.5-0.4-0.6-7.2-49.4-19.5-68.2-45.2-68.5-114.8-84.2-109.2-182.4 2.3-39.4 12.7-80.7 32-115.2 4.9-8.8 14.1-28.8 23.7-32.8 6.6-2.8 10.8 4.9 7.5 10.1z"  fill="#005bbb" /><path d="M-32.8 52.7c-2.9 5.9-11.2 28.9-19.8 26.5-9.1-2.4-1.9-16.2 5.3-10.2 6.2 5.1-2.4 14.4-8 8.6-11.2-11.6 31.7-49.3 22.5-24.9z"  fill="#fff" /><path d="M-25.9-293.3c0.9 23.1 7.5 45.6 19 65.6 14.6 25.3 35.6 46.2 54.1 68.7 48.7 59.4 98.4 131.7 101.4 210.9 0.2 5.1 3.4 24-3.3 25.6-4.7 1.1-7.2-5.7-2.8-7.8 5.1-2.5 8.6 5.8 3.3 7.7-9.4 3.3-5.1-27.3-5.3-31.9-1.1-30.2-8.8-59.3-21.6-86.6-37.9-81.5-112.7-144.9-139.4-202.4-7.1-15.4-11.8-32.3-13-49.2-0.4-5 6.7-5.3 7.6-0.6z"  fill="#fff500" /><path d=""  fill="#005bbb" /><path d="M-8.4 58.8c-2.7 5.1-9.9 25.6-18.5 19.7-6.7-4.5 1-14.7 7.2-9.5 6.2 5.2-2.6 14.5-8.2 8.6-12.9-13.6 26.6-36.9 19.5-18.8z"  fill="#005bbb" /><path d="M-60.1-394.2c-47.1 52.8-77.4 154.6-52.5 223.1 13.6 37.4 71.3 82 76.9 103.3 1 3.7-5.6 2.9-3.8-0.5 2.2-4 6.3 3.1 1.8 3.1-4.5-0.1-21-26.5-25-30.9-46.5-51.3-74.1-96-62.7-167.9 6.2-38.9 17.1-79.5 37.5-113.5 19.7-32.9 36.6-30.1 27.8-16.7z"  fill="#005bbb" /><path d="M4.8-249.1c32.1 66.3 131.4 169.6 170.7 250.4 5.1 10.5 30.4 65.8 19.3 75.1-3.9 3.2-8.6-3.1-4.5-6 4.2-2.8 8.3 4.1 3.8 6.4-7.8 4.1-8.2-25.1-9-29.1-5.9-29.8-19.1-56.9-35.2-82.4-43.8-69.4-99.3-131.5-142.7-200.8-1.5-2.4-7.5-21-2.4-13.6z"  fill="#005bbb" /><path d="M11.8-115.9c45.6 45.5 63.8 103.9 42.9 165.9-2.1 6.3-6.7 27.8-14.3 29.2-10.1 1.8-6.5-15.7 2.1-10.1 8.6 5.6-6 15.9-8.4 5.9-0.3-1.2 23.6-71.8 21.6-96-2.7-33.5-19.4-64-41.7-88.5-1.5-1.7-4-7.9-2.2-6.4z"  fill="#005bbb" /><path d="M23.2-358.8c-1.7 19.6 1.3 39.3 8.2 57.7 19.6 51.9 110.2 179.4 153.8 214.5 70.7 57 96.9 88.4 87.2 96.2-3.8 3.1-6.4-5.1-1.4-4.7 4.2 0.3 2.2 7-1.5 5-3.1-1.8-24.6-41.5-31.8-49.2-26.8-29-61.7-48.9-89.2-77.1-30.5-31.2-100.2-136.4-119.2-176.4-8.3-17.5-20.1-47.6-14.5-67.4 1.4-5 7.9-3.2 8.4 1.4z"  fill="#c2e1ff" /><path d="M28.4-208.1c52.5 68.8 141.7 173 158.7 257.4 1.1 5.7 6.1 20.7 2.9 25.9-3.2 5-10.2-1.9-5.3-5.1 4.3-2.8 8.3 4.2 3.8 6.5-8 4-8-25.2-8.8-29.3-5.5-29.8-18.1-57.2-33.8-83-33.6-55.2-72.3-109.3-112.2-160-0.9-1.2-10.4-17.6-5.3-12.4z"  fill="#fff" /><path d="M38-44.8c10.8 31.2 6.6 64.5-5.3 94.6-2.5 6.3-9.4 30.9-18.4 29-8.9-1.9-2.6-15.7 4.7-10.2 7.3 5.5-4.2 15.3-8.5 7.3-4.2-7.8 16.1-39.4 19.1-48.7 4.3-13.5 6.8-27.5 6.6-41.7-0.1-8.8-5.7-22.1-4-30.1 0.7-3.3 4.7-2.9 5.8-0.2z"  fill="#005bbb" /><path d="M21.8-396.8c-40.2 102 36.5 186.2 92.2 265.2 14.3 20.2 30.3 38.9 47.7 56.5 1.5 1.5 15.1 12.9 11.9 14.3-0.3 0.1-0.8 0.1-1.1 0-22.9-11.1-46.9-48.4-61.5-68.6-34.9-47.9-98.9-129.3-108.6-186.5-4.1-24.2-4.5-64.3 10-85.7 3.6-5.4 10.7-0.8 9.4 4.8z"  fill="#fff" /><path d="M55.9 13.8c-1.2 8.8-15.2 71.5-27.8 64.6-5.7-3.1-2-12.1 4.2-10.3 7.3 2.1 3.4 13.5-3.6 10.6-9.3-3.8 4.6-23.9 6.8-29.2 5-12.3 6.4-26.5 11.6-38.4 2.3-5.2 9-2.3 8.8 2.7z"  fill="#fff500" /><path d="M61.9-339.1c8.4 22.5 112 172.2 130.8 190.3 31 29.9 69.7 50.3 93.7 87.4 8.2 12.7 37.5 80.2 30.8 92.4-2.7 4.9-9.7-1.2-5.2-4.5 3.9-2.9 8 3.5 3.9 5.9-7.4 4.3-9.2-25.3-10.1-29.4-6.4-29.4-17.4-57.8-36.3-81.4-25.5-31.9-62.7-51.1-90.6-80.5-13-13.8-96.7-135.3-110.7-157.4-3.8-5.9-10.2-14.2-11.4-21.3-0.5-3.2 3.7-4 5.1-1.5z"  fill="#005bbb" /><path d=""  fill="#fff500" /><path d="M56.1-398.2c-2.5 20.6-0.6 41.5 7.2 60.9 7.3 18.3 104.7 160.8 120.3 178 14.4 15.9 31.4 28.8 48.2 41.8 2.2 1.7 10.2 6.1 10.9 8.8 0.1 0.4-0.1 0.8-0.4 1-6.5 4.6-63.9-52.7-69.9-59.7-20.9-24.5-115.7-165.4-121.9-190.7-2.8-11.6-6.8-30.2-2.9-41.8 1.7-5.1 8.3-3 8.5 1.7z"  fill="#c2e1ff" /><path d="M79.5-398.5c2.3 52 41.1 86.2 68.6 126.5 27.6 40.4 47.2 83.5 83 118 17 16.4 54.8 42.3 60.3 66.5 0.9 3.9-6 2.8-4-0.7 1.8-3 5.9 0.9 3.1 2.9-1 0.7-32.2-39.2-36.7-43.7-18.2-18.5-38.3-35-54.7-55.2-5.1-6.3-113.2-167.7-114.9-171.1-6.5-13.3-10.9-27.8-12.2-42.5-0.5-5 6.5-5.3 7.5-0.7z"  fill="#fff500" /><path d="M93.7-339.1c14.7 25 35.4 46.2 51.7 70.1 20.9 30.6 36.3 64.8 60.5 93.1 27.1 31.9 62.8 55.2 85.3 91.2 18.2 29.1 27.1 62.7 32.6 96.3 0.9 5.5 8.1 32.1 1.8 34.6-4 1.6-7-4.1-3.4-6.5 4.2-2.8 8.2 4 3.8 6.3-8 4.2-8.5-28.9-9.2-33.3-5.6-37.4-15.1-74.8-36.4-106.5-23.5-34.8-59.5-57.9-85.7-90.4-33.7-41.9-59.6-92.4-93.1-136.4-2.8-3.6-5.5-7.3-8-11.1-1.1-1.6-4.4-13 0.1-7.4z"  fill="#fff500" /><path d="M102.2-62.1c18 34.8 27.6 72.4 25.6 111.7-0.3 5.4 1.3 27.1-6 28.2-7.1 1-6.2-10.8 0.6-8.8 8 2.4-1 13.8-5.1 6.6-2.4-4.2 2.9-49.6 2.1-59.6-1.4-18.8-5.8-37.2-12.5-54.9-1.6-4.3-11.3-19.3-9-23.3 1-1.8 3.3-1.4 4.3 0.1z"  fill="#fff500" /><path d="M109.9-217.1c17.1 27.4 32.4 56.2 54.8 79.8 62.8 66.6 123.4 72.1 140.7 177.7 1 6.4 7.6 32.1 2.3 36.3-5.6 4.4-9.1-7.5-2-6.9 7.1 0.7 1.4 11.7-3.2 6.4-5.6-6.4-3.6-32.3-5.1-41.3-4.3-26.2-12.4-52.1-27-74.6-32.4-49.8-91.9-71.7-127.8-118.7-22.8-29.9-42.8-71.5-32.7-58.7z"  fill="#005bbb" /><path d=""  fill="#005bbb" /><path d="M126.5-45.1c16.5 31.4 27.2 65 29.1 100.5 0.3 4.7 3.6 20.5-2.7 22.2-6.3 1.7-6.8-9.1-0.3-8 6.4 1.1 2.3 11.1-3.1 7.4-5.9-4.1-2.8-39.6-3.9-47.7-5.6-39.7-25.7-70.1-23.4-74.5 1-1.8 3.3-1.4 4.3 0.1z"  fill="#c2e1ff" /><path d="M134-156.1c53.9 77.6 143.7 94.8 162.5 199.5 1.1 5.9 7.3 28.9 2.3 32.8-5.6 4.4-9.1-7.4-2.1-6.7 7.1 0.6 1.5 11.6-3.2 6.3-5.2-5.9-3.5-29.5-5-37.9-4.3-24-12.4-47.4-26.1-67.7-29.3-43.6-79.8-65.2-114.7-103.4-6-6.6-19.8-29.4-13.7-22.9z"  fill="#c2e1ff" /><path d="M142.4-237.1c15.9 25.6 30.1 52.2 50.6 74.5 30 32.5 69.8 53.9 94.5 91.5 21.9 33.5 30.7 73.7 35.3 112.9 0.6 5.3 7 35.6-0.9 35.7-4.5 0-5.2-6.6-0.9-7.6 4.3-1 6.5 5.3 2.5 7.2-8.4 4-7.5-29.8-8-34.4-3.9-37.3-11.2-75.7-29.9-108.7-27.9-48.9-81.2-73.5-114.4-118-12-16.2-41.3-69-28.8-53.1z"  fill="#fff500" /><path d=""  fill="#fff500" /><path d="M157.8-141c61 69.9 127.8 74 146 181.8 1 6.2 7.6 31.4 2.3 35.6-5.6 4.4-9.1-7.5-2-6.9 7.1 0.7 1.4 11.7-3.3 6.4-5.2-6-3.2-29.1-4.5-37.3-3.9-25.2-11.3-50-24.6-72-26.5-43.5-73.8-64.1-109.3-98.7-0.9-0.8-9.2-12.8-4.6-8.9z"  fill="#005bbb" /><path d="M166.7-275.1c17.3 27.4 30.5 57.2 49.7 83.4 26.1 35.6 61.5 63 82.5 102.6 20.8 39.2 27.9 84.2 32.5 127.9 0.6 5.5 7.1 38.2-0.7 38.3-4.4 0.1-5.2-6.5-1-7.6 4.3-1 6.5 5.3 2.6 7.2-8.5 4.1-7.4-29.4-7.9-33.8-4-42.9-9.9-87.4-28.3-126.8-19.5-41.8-54.8-69.9-82.5-105.6-17.3-22.4-29.9-47.7-44-72.2-0.6-1.1-8.4-20.3-2.9-13.4z"  fill="#fff" /><path d="M173.7-80.8c42.5 37.9 85.3 71 98.2 129.7 1.1 5.1 7.1 23.5 2.5 27.3-3.9 3.2-8.6-3.1-4.4-5.9 4.2-2.8 8.3 4 3.7 6.4-7.7 4-7-16.9-7.4-19.9-3.3-21.9-10.2-43.2-21.8-62.3-17.2-28-43-48.5-67.5-69.6-1.7-1.4-5.1-7-3.3-5.7z"  fill="#fff500" /><path d="M182.5-185.1c29.3 40.3 75.3 64.2 103.5 105.3 24.6 35.9 33.9 79.8 38.7 122.4 0.6 5.2 6.9 34.9-1.1 35-4.5 0-5.2-6.6-0.9-7.6 4.3-1 6.5 5.3 2.5 7.2-8.5 4-7.1-26.3-7.5-30.5-3.6-37.3-9.9-75.9-26.9-109.7-24.1-48.1-71.4-72.6-105-112.4-0.9-1.1-8.2-14.7-3.3-9.7z"  fill="#c2e1ff" /><path d="M191.3-251.1c34.6 65 79.4 101.2 107.5 154.1 22 41.2 29.1 88.5 34 134.4 0.6 5.7 7.1 39.6-0.7 39.6-4.4 0.1-5.2-6.5-0.9-7.5 4.3-1 6.5 5.2 2.5 7.2-8.5 4.1-7.5-30.4-8-35.2-3.8-40.8-9.1-82.8-24.4-121.1-24.4-60.9-78.9-103.1-109.7-160.8-0.7-1.3-5.5-18-0.3-10.7z"  fill="#c2e1ff" /><path d="M197.8-99.6c52.6 39.1 92.4 75.8 103.5 143.6 1 5.9 6.9 28.3 1.9 32.3-4.1 3.2-8.8-3.5-4.4-6.3 4.4-2.7 8.4 4.4 3.7 6.7-8.4 4-6.9-21.2-7.4-25-3.1-26.4-9.6-52.7-22.6-76-16.8-30.1-43.3-50.5-70.6-70.4-1.7-1.3-5.9-6-4.1-4.9z"  fill="#c2e1ff" /><path d="M206.2-149.8c75.4 69.8 105.1 85.9 117.2 196 0.6 5.2 6.1 28.6-0.2 30.7-4.9 1.7-7.2-6.2-2.2-7.3 4.3-1 6.5 5.3 2.5 7.2-8.5 4-7.1-25.8-7.5-29.8-3.3-34.1-9.3-69-23.8-100.3-18.3-39.4-50.8-63.3-82.8-90.8-1.7-1.4-5-7-3.2-5.7z"  fill="#fff" /><path d="M216.7 51.3c1.1 4.2 8.6 25 0.9 25.6-4.9 0.4-5.1-7.3-0.2-7.2 4.9 0.1 4.3 7.9-0.6 7.1-11.7-1.6-4-36.6-0.1-25.5z"  fill="#005bbb" /><path d="M224.3 32.1c2.1 5.4 16.2 44.4 7.2 45.1-4.2 0.3-5.3-5.8-1.3-7 4.7-1.4 6.5 6.1 1.7 7-6.7 1.3-5.8-14.4-6.5-18-5.2-28.1-4.9-34.8-1.1-27.1z"  fill="#fff" /><path d="M231.4-204.1c71.1 113.3 88.7 94.3 103.6 244.1 0.6 5.9 6.6 34.5 0.3 36.7-5.7 2-7-7.9-0.9-7.4 7.1 0.7 1.5 11.6-3.3 6.3-1.8-2.1-16-125.5-22.8-147.1-15.4-49-48.5-83.8-76.8-125.2-0.9-1.4-4.6-12.9-0.1-7.4z"  fill="#fff500" /><path d="M240.3 23c3 6.7 20.6 50.1 11.6 53.9-4.6 1.9-7.2-5.4-2.5-6.8 4.7-1.4 6.5 6.2 1.7 7-7 1.3-6.6-19.8-7.4-23.9-2-9.6-7.1-19.3-8.5-28.8-0.5-3.2 3.7-3.9 5.1-1.4z"  fill="#005bbb" /><path d=""  fill="#c2e1ff" /><path d="M256.1-312.1c61.7 112.6 79.4 249.8 90.1 375.5 0.3 3.3 3.3 13.8-2.8 14-4.4 0.1-5.3-6.4-1.1-7.5 5-1.2 6.5 6.7 1.5 7.4-7.7 1-7.2-37.7-7.7-43.5-4.4-49-7.3-98.7-17.7-146.9-13.3-62-34.4-127.5-60.8-185.2-0.4-1-6.9-21.8-1.5-13.8z"  fill="#fff500" /><path d=""  fill="#fff500" /><path d="M271.5-82c28.3 31.9 40.9 73.3 47 114.7 0.9 6.4 8.7 41.8 1.6 44.3-6.7 2.3-6.2-10.1 0.3-7.2 5.6 2.5-0.5 10.6-4.5 6-3.2-3.7-8.3-66.8-10.9-78.3-5.9-24.9-15.2-49-30.2-69.9-2-2.8-5.8-12-3.3-9.6z"  fill="#005bbb" /><path d="M280.4-179.1c34.9 64.3 50.1 127.5 57.5 199.8 1.1 11.2 10.1 45.5 4.1 54.7-3.3 5.1-10.3-2.1-5.2-5.2 5.1-3.2 8.5 6.2 2.5 6.9-4.2 0.5-17-124.8-19.7-138.9-7.4-38.9-21.7-74.8-40.3-109.6-0.9-1.7-3.4-14 1.1-7.7z"  fill="#005bbb" /><path d=""  fill="#005bbb" /><path d=""  fill="#fff" /><path d="M305.1-94c13.6 29.6 40.2 138.3 32.4 168.4-1.5 5.9-10.5 1.3-6.7-3.4 4.5-5.5 10.5 5.3 3.5 6.2-6 0.7-10.9-72.9-12.3-82.3-1.5-10.5-21.8-88.6-21.8-88.7 0.8-2.4 3.8-2.1 4.9-0.2z"  fill="#005bbb" /><path d="M313.5-302c38.5 99.6 28.9 259.3 38.8 368.6 0.2 2.3 1.5 14.7-5.3 9.9-13.6-9.6 19.2-1.8 2.7 0.6-8.6 1.3-15-173.5-16.1-191.8-3.5-58.3-5.3-120.1-22.5-176.3-0.4-1.3-2.3-20.4 2.4-11z"  fill="#fff500" /><path d="M322.3-212.6c4.7 26.3 35.2 289.3 25.2 289.6-5.9 0.2-4.2-9.5 1.3-7.2 5.5 2.3-0.2 10.4-4.2 6-6-6.6-9.3-107.6-10.3-123.9-3.3-55-11.2-108.8-18.8-163.3-0.6-4.5 5.5-5.3 6.8-1.2z"  fill="#005bbb" /><path d="M330.6-202.4c3.3 25.6 24.4 279.1 18 279.3-5.9 0.2-4.2-9.5 1.4-7.2 5.5 2.3-0.2 10.4-4.2 6-5.5-6-8.5-95.3-9.3-109.8-2.9-56.1-8.3-111.5-13.1-167.5-0.4-4.8 6.1-5.3 7.2-0.8z"  fill="#fff500" /><path d="M338.9-176.3c11.6 163.3 15.8 253.1 10.9 253.3-5.9 0.2-4.2-9.5 1.3-7.2 5.5 2.3-0.2 10.3-4.2 6-4.5-4.9-6.9-72.2-7.6-83.5-1.8-30.5-11.7-147.1-7.9-169 0.8-4.6 6.8-3.7 7.5 0.4z"  fill="#fff" /><path d="M347.3-115c0.3 48.1 0.3 96.2 4 144.2 0.5 6.4 7.5 47.9 0.4 48.2-5 0.2-5-7.8 0.1-7.4 4.3 0.3 4.6 6.7 0.3 7.4-7.7 1.2-7.2-35.2-7.7-40.8-3.1-36-4.5-72-4.9-108.2-0.1-13.5-3.3-31.3-0.2-44.3 1.1-4.8 7.4-3.4 8 0.9z"  fill="#fff500" /><path d="M354.4-335.8c27.7 97.7-0.9 203.3-1.5 302.8-0.1 11.7 6.8 109.7 2.7 109.9-5.8 0.3-4.2-9.3 1.2-7.1 5.4 2.2-0.1 10.2-4.1 5.9-7.6-8.1-5-43.3-5.8-54.5-4.8-66.7 0.7-133 6.5-199.4 4.4-49.8 7.6-100.8-3.7-150-0.8-3.3 1.3-16.2 4.7-7.6z"  fill="#fff500" /><path d="M362.7-339.7c23 99.9-6.3 202.2-8.3 302.7-0.2 12.1 6 113.7 2.4 113.9-5.8 0.3-4.3-9.3 1.2-7.1 5.4 2.2 0 10.2-4.1 5.9-7.7-8.1-5.1-43.9-5.9-55.2-4.9-69.2 2.7-137.3 10.2-205.9 5.7-51.7 6.2-101.5-2-152.9-0.7-4.3 5.1-5.3 6.5-1.4z"  fill="#fff500" /><path d=""  fill="#c2e1ff" /><path d="M379.7-286.1c2.4 93.5-25 184.6-23.5 278.3 0.2 11.6 8 78.8 5.3 83.2-3 5-10-1.6-5.2-4.9 5.6-3.8 8.2 7.7 1.5 6.6-6.7-1.1-5.8-28.5-6.3-34-6.2-66-1.7-130.6 7.9-196 4.1-27.8 9.7-122.2 12.4-134 1.1-4.8 7.3-3.5 7.9 0.8z"  fill="#005bbb" /><path d="M388.2-236.5c-7.5 79.4-31.1 155.9-29.4 236.3 0.2 10.7 7.7 71.4 5.2 75.8-2.9 5-10-1.5-5.2-4.9 5.6-3.9 8.2 7.6 1.5 6.6-9.1-1.4-9.1-67.8-9.4-77.3-2.7-80.2 19.4-156.2 28.2-235.1 0.7-6.3 8.9-9.1 9.1-1.4z"  fill="#fff" /><path d="M395 69.2c0.5 2.3 1.4 9.5-3.7 6.9-3.3-1.7-1.4-6.9 2.2-5.9 3.6 0.9 2.8 6.4-0.9 6.3-8.9-0.3-0.9-16 2.4-7.3z"  fill="#fff500" /><path d="M404.9-96.3c-15.2 42.2-23.3 85-18.5 129.9 1 9.2 10 33.6 6.5 41.5-2.1 4.7-9-0.4-5.1-3.8 4.6-4 8 6 2 5.7-8-0.3-11-45.7-11.8-52.7-3.5-36.1-3.1-93.4 17.6-125.2 3.5-5.4 10.5-1 9.3 4.6z"  fill="#c2e1ff" /><path d="M413-138.3c-16.9 51.5-35.3 99.9-32.9 155.1 0.3 7.5 8.1 61 3.1 60.1-3.8-0.7-3.4-6.5 0.5-6.6 3.9-0.1 4.7 5.6 1 6.6-6.8 1.8-7.3-18.8-7.9-22.5-7-41.9-6.7-84.2 3.6-125.6 3.4-13.6 15.5-64.3 24.1-72.5 4.1-4 9.5 0.5 8.5 5.4z"  fill="#fff500" /><path d="M411.9-397.3c-10.9 60.8-9 123-18.3 184-11.1 72.4-33.7 141.6-32.3 215.7 0.1 3.3 2.5 13.3-3.6 13.3-5.3-0.1-4.7-8.4 0.5-7.8 5.3 0.6 3.8 8.9-1.4 7.7-11.2-2.6-5.4-64.5 22.8-203.9 9.2-45.5 12.5-186.3 23.5-211.7 2.3-5.2 9.1-2.4 8.8 2.7z"  fill="#c2e1ff" /><path d="M427.8 9.4c1.7 13 23.9 63.3 23.8 64.2-0.2 3.7-6.1 0.9-3.3-1.6 2.3-2.2 5 2.4 1.9 3.3-4 1.3-9-11.2-10.6-13.9-7.7-13.4-20-35.6-18.8-51.7 0.3-4.3 5.9-4 7-0.3z"  fill="#c2e1ff" /><path d="M434.6-396.7c-22.1 59.2-21.1 123-31.5 184.6-9.5 56.5-29.9 110.7-36.1 167.8-1.4 12.9 1.9 84.3-0.6 88.3-3.6 5.9-10.8-3.8-4.1-5.6 5.7-1.5 6.1 8.3 0.3 7.3-6.6-1.2-4.9-24.3-5.2-29.6-3.5-61.3 9.5-118.7 24.7-177.5 18.1-70.1 17.1-143.1 34.9-213 10.5-41.3 19.7-31.8 17.6-22.3z"  fill="#fff" /><path d="M444.9-264.5c-3.9 35.9-6 71.9-15.2 107-12.5 47.7-36.1 91.8-40.4 141.6-2 23.2-0.4 46.6 3.8 69.5 0.7 3.6 8.4 23.7 0.6 22.7-4.3-0.6-3-7.3 1.2-6.2 4.2 1 2.2 7.5-1.9 6-5.8-2.1-7.5-25.6-8.4-31.3-12.8-72.7 13.1-130.7 33.6-198.5 10.3-34 9.6-88.8 18.2-112.8 1.8-5.1 8.5-2.8 8.5 2z"  fill="#c2e1ff" /><path d="M453.7-394.6c-30 60.4-29.6 127-41.8 191.8-10.5 55.2-33.3 107.4-40.1 163.4-1.7 13.7 2.4 85-0.2 89.4-3 5-10-1.6-5.2-4.9 5.6-3.8 8.2 7.7 1.5 6.6-6.7-1.1-5.4-25.6-5.7-30.7-3.9-58.2 8.7-112 25.2-167.3 21.7-72.6 20.1-150 43.7-221.7 2.3-6.8 8.6-35.4 18-34.6 4.2 0.3 5.8 4.4 4.6 8z"  fill="#fff" /><path d="M444-396.3c-27.4 62.3-25.7 130.8-38.5 196.5-13.2 67.5-39 130.8-38.8 200.6 0 3 1.7 14.2-5.2 11.7-5-1.8-1.7-9.6 3.1-7.3 4.1 2 1.8 8.5-2.7 7.4-8.2-2 2.1-93.1 23-168.7 19.6-70.8 18.2-145.5 38.9-215.8 11.7-39.7 22.8-34.2 20.2-24.4z"  fill="#005bbb" /><path d="M468.9-208c1.4 71.8-32.7 155.7-24.6 208.8 3.2 20.9 11.7 40.4 24 57.6 1.2 1.6 14.7 16.3 10.1 16.4-5.9 0.2 6.1-0.8 0.2 0-3.5 0.5-11.1-11.7-13.2-14.3-53.3-68.1-17.7-137.4-7.5-212.3 2.5-18.2-1.1-39.6 3.1-57.1 1.1-4.8 7.3-3.4 7.9 0.9z"  fill="#fff" /><path d="M477.3-289.6c-5.4 48.1 5.3 96.1 2.9 144.3-2.4 46.1-19.9 93.4-8.5 139.5 6.2 25.2 21 46.4 38.7 64.8 1.6 1.6 17 15.3 13.1 15.7-4.9 0.5 4.9-1.1 0.1 0-3 0.7-12.7-11.4-15.1-13.8-70.7-70.5-41-127.2-36.4-213.4 2.2-42.8-6-85.4-4.1-128.1 0.3-5.8 8.9-21.7 9.3-9z"  fill="#fff500" /><path d="M479.2-395.5c-39.3 65.8-37.5 136.2-52.1 208.8-9.8 48.7-32.6 93.4-41.9 142.2-2.4 12.5-1.4 71.2-4.1 75.6-3.1 5-10.2-1.9-5.2-5.1 5.8-3.8 8.2 8 1.3 6.8-10.3-1.9-8.1-71.1 26.8-173.4 22.8-66.8 18.8-138.1 40.1-204.8 5.5-17.2 12.9-43.8 25.7-57.1 5-5.2 11.8 1.1 9.4 7z"  fill="#fff500" /><path d="M493.2-145c1.1 51.7-14 105.7 10.8 154.2 9.7 19 23.8 35.2 38.1 50.8 1.4 1.5 14.6 13.2 10.7 14.7-0.1 0-0.2 0.1-0.3 0-3.2 0.5-10.5-10.5-12.6-12.8-25.8-28.1-49.6-57.1-56.2-95.7-4.9-28.3-5.1-84.3 1.6-112.1 1.2-4.8 7.4-3.4 7.9 0.9z"  fill="#fff" /><path d="M498.5 46c2.5 3.1 26.6 27.5 25.5 28.5-1.7 1.6 1.8-1-0.2 0.1-2.4 1.4-7.8-6.2-9.2-7.5-4.1-3.9-8.1-7.9-11.9-11.9-0.8-0.9-8.9-13.5-4.2-9.2z"  fill="#c2e1ff" /><path d="M508.6-241.8c7.1 31.8 18.7 62.4 24.3 94.5 8.6 48.6 2.3 99 19.8 146 4.3 11.5 40.1 71.6 39.7 75.3-0.5 4.1-6.8 0.7-3.6-2 2.7-2.2 5.4 2.9 2 3.8-4.3 1.1-12.5-17.9-14.5-21.1-43.7-72.7-39.1-111.1-48.9-190.9-4.4-35.8-17.4-69-25.2-104-0.9-4.2 4.9-5.3 6.4-1.6z"  fill="#fff" /><path d="M516.4-218.9c8.2 28.1 17.2 56 21.2 85.1 6.2 45.6 1.8 91.9 18.5 135.8 4.1 10.6 37.9 68.6 37.5 71.9-0.5 3.5-6 1.5-4.1-1.5 2.2-3.5 6.5 2.3 2.4 3.3-4.3 1.1-11.9-17.3-13.9-20.7-41.1-69.8-39.2-107.5-47.2-184.5-3-29-19-61.5-20.3-88.4-0.2-3.7 4.7-4.1 5.9-1z"  fill="#fff500" /><path d="M522.5 69.1c1 1 5.1 3.3 4.1 5.2 0 0.1-0.4 0.4-0.4 0.5-4.4 2.6-7.2-8.3-3.7-5.7z"  fill="#c2e1ff" /><path d=""  fill="#fff500" /><path d="M540.5-202c26.8 73.9 9.6 134.8 29.6 202.2 3.2 10.9 31.8 68.3 31 72-0.7 3.8-6.6 1.3-4.3-1.9 2.6-3.7 6.9 2.9 2.4 3.8-4.7 0.9-11.4-18.7-13.2-22.2-13.9-27.6-25.8-55.8-30.2-86.6-4.7-32.4-1.6-65.2-4.8-97.7-2.3-23.3-20.8-90.5-10.5-69.6z"  fill="#005bbb" /><path d="M549.8-101.2c2.2 45.6 4.3 87.7 24.5 129.7 4.5 9.4 25 35.8 23.5 45.4-0.6 3.7-6.3 1.4-4.3-1.7 2.4-3.6 6.7 2.6 2.5 3.6-4.6 1-16-25.8-18.3-30.1-24.5-45.5-33.5-89-35.4-140.3-0.2-5 5.9-16.6 7.5-6.6z"  fill="#fff" /><path d="M542.7-396.5c-50.1 109.7-7.8 138.5 14.3 240.4 8 36.9 4.4 74.1 7 111.4 0.6 8.9 11.2 50.9 10 54.4-1.7 5.1-8.9-0.9-4.1-3.5 4.1-2.2 6.1 5.2 1.5 5.5-17.3 1-16.4-101-16.5-113.4-0.9-78.5-47.4-141.8-44.4-213.6 1-25.4 6.8-66 22.8-86.8 4.1-5.3 11.1-0.2 9.4 5.6z"  fill="#005bbb" /><path d="M563.6 56.9c1.7 2.2 14.8 16 11.3 18.3-2.1 1.4-4.1-2.1-1.8-3.2 2.2-1.1 3.9 2.5 1.4 3.4-6.7 2.5-15.9-23.6-10.9-18.5z"  fill="#005bbb" /><path d=""  fill="#fff" /><path d="M553.9-396.7c-12 30.5-19.9 63.3-16.5 96.2 4.7 45.2 31 84 41.5 127.8 9.7 40.7 2.9 80.7 1.6 121.8-0.2 5.2 3.9 33.4-2.7 33.7-5.8 0.3-4.2-9.3 1.2-7 5.4 2.2-0.1 10.2-4.1 5.9-8.2-8.8 1.8-95.8 1.6-113.5-0.7-66.2-45.1-119.9-47.8-185-1-24.4 1.7-63.9 15.9-84.8 3.7-5.4 10.7-0.8 9.3 4.9z"  fill="#c2e1ff" /><path d="M558.8-396.8c-36.6 101.3 11.4 133.6 30 224.4 9.3 45.5-2.7 89.6-3.3 135.1 0 3 1.6 14-5.2 11.7-4.3-1.5-2.7-8.2 1.8-7.6 4.5 0.6 4.4 7.4-0.1 7.8-9.1 0.8 3-106.8 2.6-119.3-1.8-62.5-43.9-113.1-48-174.7-1.6-23.4-0.2-61.4 12.9-81.9 3.4-5.4 10.5-1 9.3 4.5z"  fill="#fff" /><path d="M574.6-397.4c-9.7 36.9-9.3 74 3.2 110.2 5.7 16.4 22.1 39.2 22.8 56.3 2.8 69.2 1.4 132.5-2.9 199.7-0.2 3 1.1 15-5.9 12.2-4.4-1.8-2.4-8.6 2.2-7.8 4.6 0.8 4.2 7.8-0.5 8.1-8.9 0.4-3.3-27.2-2.7-32.1 3.4-29.3 2.7-57.4 3.1-87.2 0.4-30.3 1.4-60.6 1.5-90.9 0.1-17.9-33.5-76.4-35.8-113.1-1-16.8-2.1-43.3 5.9-58.7 2.7-5.3 9.7-1.9 9.1 3.3z"  fill="#fff" /><path d=""  fill="#fff" /><path d=""  fill="#c2e1ff" /><path d=""  fill="#fff" /><path d=""  fill="#fff" /><path d=""  fill="#005bbb" /><path d=""  fill="#fff" /><path d=""  fill="#005bbb" /><path d=""  fill="#005bbb" /><path d=""  fill="#fff500" /><path d=""  fill="#c2e1ff" /><path d=""  fill="#fff500" /><path d=""  fill="#fff500" /></svg>