<svg width="1200" height="675" viewBox="-500 -500 1200 675" xmlns="http://www.w3.org/2000/svg"><path d="M-500-500h1200v675h-1200z" fill="#000"/><path d=""  fill="#005bbb" /><path d=""  fill="#fff" /><path d="M-393.1-120.9c1.3 9.9 9.1 58.9-4.5 61.2-9.2 1.5-10.8-13.1-1.5-13.5 9.3-0.5 9.3 14.2 0 13.6-9.4-0.5-8-55.2-4.9-62.8 2.4-5.8 9.7-3.7 10.9 1.5z"  fill="#c2e1ff" /><path d=""  fill="#fff" /><path d=""  fill="#fff" /><path d=""  fill="#fff500" /><path d=""  fill="#fff500" /><path d="M-393.3-138.1c2 12.4 13.1 85.6-4.5 87.7-9.5 1.2-10.6-14-1-14.1 9.6-0.1 9 15-0.6 14.1-12.7-1.2-3.4-28.9-2.9-36 1-14.7-6.3-39.8-1.6-52.8 2-5.7 9.2-4 10.6 1.1z"  fill="#fff500" /><path d=""  fill="#005bbb" /><path d="M-380.3-261.7c-14.6 65.2 8.9 130.8-2.5 196.4-1.5 8.6-3.4 42.3-15.8 42.3-12.3 0-7.9-19.9 3.3-14.7 11.1 5.2-1.2 21.3-9.2 12-7.6-9 8.5-46.4 10.3-57.8 8-52.3-7.1-103.6-3.5-155.9 0.5-6.8-1.3-31.6 10.7-30.9 4.7 0.3 7 4.3 6.7 8.6z"  fill="#fff" /><path d="M-368.8-388c3.8 71.1-31 132.2-22 207 3.1 25.6 16.9 131.9-3.1 148.2-9.3 7.6-18.2-10.2-6.7-13.1 11.6-3 12.3 16.9 0.5 14.7-12-2.2 6.2-45.6 4.2-93.8-1.1-25.1-6.6-49.7-8.3-74.7-3.5-51.1 7.4-94.1 17.5-143.2 3.1-15.1 2.1-31.8 5.7-46.6 1.8-7.3 11.3-5.2 12.2 1.5z"  fill="#fff500" /><path d="M-352.6-397.9c-3.1 71.8-41 134.8-34.8 208.2 2.4 28.5 16.5 144.4-6.5 162.2-9.6 7.5-18.3-10.8-6.4-13.5 11.8-2.7 12.1 17.4 0.1 15-12.3-2.6 6.4-69.7 7-81.9 1.1-25-2.2-49.8-5-74.6-6.7-59.6 6.8-109.8 22.4-166.7 3.9-14.4 3.3-40.9 11-52.9 4-6.2 12-2.2 12.2 4.2z"  fill="#fff500" /><path d="M-345.3-397.4c-7.8 71.4-45.7 133.1-40.3 206.7 2.2 29.2 15.5 147.3-8.3 165.6-9.7 7.4-18.3-11-6.4-13.7 11.9-2.6 12 17.7 0 15.1-13.2-2.9 6.6-63.9 7.6-75.4 3.8-43.3-7.1-85.9-6.2-129.1 0.6-29.7 28.9-145 40.2-172.9 3.2-7.9 13.6-3.9 13.4 3.7z"  fill="#fff" /><path d="M-330.5-143.9c-2.8 20-49 176.9-71.8 165.7-10.2-5-1.5-20.7 8.1-14.6 9.6 6.1-0.8 20.8-9.7 13.6-12.2-9.7 20.4-59 25.8-69.9 10.2-20.5 19.8-41.3 26.1-63.3 2.6-9 2.6-32 10-38.1 5.4-4.4 11.7 0.6 11.5 6.6z"  fill="#005bbb" /><path d="M-317.1-306.8c-57.6 81.7-29.9 180.6-62.2 271.1-3.5 9.9-6.4 25.7-13 33.8-8.1 10.1-21.6-6.7-9.9-12.5 13.6-6.7 15.7 19.6 1.1 15.2-14.1-4.4 19.5-79.9 22.7-93.2 15.2-64.3-0.7-131.4 27.8-193 29-62.8 33.9-22.3 33.5-21.4z"  fill="#fff" /><path d="M-304.7-233c-17.6 39-17.4 82.6-28 123.5-8.8 34-25.2 64.5-41.2 95.5-4.6 8.8-13 38.1-23.2 40.1-13.1 2.5-12.5-19.6 0.4-16.4 11.1 2.7 5.8 20-4.9 16-17.4-6.4 33.1-87.9 39.1-100.8 19.4-41.6 28.8-145.4 43.2-165.7 5.9-8.3 16.8-0.9 14.6 7.8z"  fill="#fff500" /><path d=""  fill="#fff500" /><path d="M-312.7-395.2c-25.7 66.1-65.7 124.6-64.3 198.1 0.5 26.9 11.1 139.7-9.4 155.5-9.7 7.4-18.3-10.9-6.4-13.6 11.9-2.7 12 17.6 0.1 15-13.5-2.9 4.5-55.1 5.6-65.5 4.7-46.9-6.7-93.9-0.3-140.8 7.3-53.2 35.6-98.9 56.1-147.4 4.5-10.7 23.2-18.6 18.6-1.3z"  fill="#c2e1ff" /><path d="M-267.6-393.1c-40 59.3-89.7 114.3-94.7 188.8-4.2 62.3-1.2 117.4-22.2 177.7-2.1 6.1-3.8 18.5-9.7 22.3-10.8 7-18.3-12.9-5.6-14.8 12.7-1.8 11.2 19.4-1.1 15.8-13.8-4.1 18.1-81.3 20.6-94.7 13.7-71.8-4.4-141 31.9-208.6 13.1-24.3 47.2-81.3 66.7-98.9 8.6-7.7 18.8 3.2 14.1 12.4z"  fill="#fff" /><path d=""  fill="#fff" /><path d="M-242.2-87.5c-31.5 58.9-90.2 89.4-127.5 142.8-4.8 6.8-13.2 32.3-25 25.8-10.3-5.6-0.5-21.4 9.1-14.7 9.6 6.7-1.8 21.3-10.7 13.6-15.5-13.5 32.9-64.7 42.2-74.1 21.3-21.6 46-39.6 66.5-62 9.1-10 22.7-40.4 34.7-44.5 8.4-2.8 13.7 6 10.7 13.1z"  fill="#005bbb" /><path d="M-229.9-301.4c-21 24.8-43.6 48.2-57.5 78-18.3 39.3-19.8 83.7-34 124.4-12.2 34.7-33 64.8-51.3 96.3-4.8 8.3-16.5 45.1-29.6 38.4-12-6.1 2.2-23.3 10.5-12.7 8.3 10.6-11.8 20.3-14.9 7.2-3.3-14 39.8-77.6 48.7-92.9 34.8-59.2 32.7-128.6 64.7-187.9 9.7-18 32.1-58.9 52.1-66.8 10.3-4.1 16.7 7.9 11.3 16z"  fill="#c2e1ff" /><path d="M-217.2-82.8c-33.5 52.5-81.1 82.8-125.2 124.6-7.7 7.3-34 51.3-44.9 37.4-6.5-8.3 4.8-19.2 12.9-12.6 9.5 7.8-3.6 22.1-12.2 13.3-15.9-16.2 43.2-66.5 54.1-75.6 24.6-20.3 50.5-38.6 72.1-62.2 8.3-9.1 21.2-36.1 33-39.2 8.9-2.3 13.8 7.2 10.2 14.3z"  fill="#fff500" /><path d="M-204.8-68.9c-36.2 47.1-82.3 77.3-126.9 115.2-7.8 6.6-35.8 47.6-46.1 32.3-6.1-9.1 6.4-19.7 14.3-12 9.3 8.9-5.5 22.7-13.7 12.9-13.9-16.6 41.8-58.8 52.6-67.2 23.9-18.5 48.8-35.4 70.6-56.3 10.9-10.5 24.1-34.1 37.5-40 10-4.4 16.6 7.1 11.7 15.1z"  fill="#005bbb" /><path d="M-192.2-252.5c-50.3 71.2-49 111.6-85.1 176.1-20.9 37.2-53.4 63.7-80.4 96-6.5 7.8-37 57.5-39.2 58-13 2.7-12.7-19.3 0.3-16.3 12.9 3 3.4 22.8-7.1 14.7-20.3-15.9 60.7-101.2 85.5-128.8 52.4-58.6 61.2-139.9 105.7-203.9 7.9-11.3 29.5-12.8 20.3 4.2z"  fill="#005bbb" /><path d="M-179.6-213.3c-29.8 48.6-46.9 104.5-79.2 151.4-24.2 35.1-58.3 59.2-87.9 89.2-10 10.1-32.8 50.2-40.4 54.1-12.1 6.3-18-15.7-4.4-16.3 16-0.7 6.8 25.6-5.2 15.1-18.4-15.9 60-90.8 86.8-115.3 55.1-50.3 73.4-118.1 110.3-180.5 6.8-11.5 27.6-14.8 20 2.3z"  fill="#005bbb" /><path d="M-228-392.6c-44.5 59-105.6 112.5-116.5 189.1-2.2 15.6-6.9 148.2-28.8 139.6-7.4-2.9-6.2-14 1.6-15.3 9.1-1.6 12.9 11.8 4.3 15.3-17.2 7-7.1-20.1-5.7-24.8 18.9-63.2 5.6-131.5 36.1-191.7 8.9-17.6 83.8-120.5 97-126.8 9.7-4.6 16.6 6.5 12 14.6z"  fill="#fff" /><path d="M-154.7-231.6c-32.1 58.1-75.3 153.3-118.1 199.1-21.1 22.5-46.2 40.3-68.5 61.4-10.4 9.8-34.4 48.9-42.3 52.7-12.5 6-17.8-16.4-3.9-16.6 16.3-0.2 6.2 26.2-5.8 15.2-21.3-19.6 79.9-102.5 101.8-123.5 62.7-60.1 82.4-156.5 122.5-198.9 7.6-8 18.1 1.6 14.3 10.6z"  fill="#fff" /><path d=""  fill="#fff500" /><path d="M-202.6-392.9c-42.3 56.7-109.1 115.6-124.9 185.7-3.4 15-12.4 134-31.4 126.6-23.2-9.1 22.5-24.8 9.7-3.4-9.6 16.2-15.5-2.8-11.5-15.1 18.4-57.6 10.9-120.2 40.9-174.5 9.3-16.9 90.2-121.6 103.2-132.4 9.1-7.6 19.1 4 14 13.1z"  fill="#fff500" /><path d="M-178.1-392.6c-15.9 21-29.6 43.5-45.8 64.3-33.2 42.4-71.8 76.7-85.8 130.7-4 15.3-22 142.2-43.6 130.7-8.8-4.7-3.3-18.5 6.3-15.8 8.2 2.3 8.2 14.3 0 16.5-18.7 5.2-5.8-21-3.7-26 23.5-55.6 19.3-118.8 50.2-171.7 4.1-7 106.4-140 108.4-141.7 9-7.6 19.1 3.9 14 13z"  fill="#fff" /><path d="M-104.7-162.7c-37.6 74.5-118.3 148.3-185.5 196.3-11.1 7.9-60.2 56.7-70.5 47-11.5-10.9 10.2-25.7 16.1-11 5.9 14.7-20 19-19.2 3.2 1.1-21.4 95.1-82.1 115.1-98.9 35.2-29.7 66.3-64.6 95.8-100 10.7-12.8 22.1-39.7 35.5-48.4 8.3-5.4 15.9 3.9 12.7 11.8z"  fill="#fff500" /><path d=""  fill="#fff" /><path d="M-80.3-230.4c-23.7 122.7-135.5 209.7-230.1 280.1-9.2 6.8-37.9 42-49.2 31.3-11.5-11 10.4-25.7 16.3-11 5.8 14.8-20.2 19-19.4 3.1 1-16.6 132.3-112.6 154.6-135.3 31.6-32.3 65.2-66.5 88.2-105.6 12.7-21.5 15.2-45.8 25.8-67.5 4-8.1 14.6-3.1 13.8 4.9z"  fill="#fff500" /><path d="M-169.5-393c-16 20.8-29.2 43.6-45 64.6-30.9 41.2-70.2 74.7-86.1 125.4-4.7 15.1-9.4 85.1-23.9 89.9-11.6 3.9-13.8-16.3-1.6-15 12.2 1.3 5.7 20.6-4.8 14.3-9.3-5.6 1.5-27.3 3.1-34.8 22.4-104.6 33.6-110.5 97.8-191.8 16.2-20.5 28.8-43.6 44.8-64 7.9-10 21.6 0.7 15.7 11.4z"  fill="#fff500" /><path d="M-76.5-391.7c-34 33.9-48.9 80.2-70.8 121.8-29.8 56.5-60.5 108.4-88.4 166.5-7 14.6-46.1 92.5-67.3 80.1-14.5-8.4 4.3-28.9 13.9-15.1 9.6 13.7-16 24.4-19 7.9-0.9-5 40.6-52.5 47.2-63.5 16.7-27.7 27.6-58.3 41.9-87.1 17.6-35.6 40.4-68.1 59.2-103.1 17.1-32 29.6-66.7 49.6-97.2 26-39.6 44.9-25.9 33.7-10.3z"  fill="#c2e1ff" /><path d="M-42.3 7.2c-4.5 11.5-29.2 82.1-44.3 74.1-10.3-5.5-0.8-21.2 8.9-14.7 9.6 6.6-1.5 21.2-10.4 13.6-9.3-7.9 24-75.4 32.8-82.6 7.1-5.9 15.2 2 13 9.6z"  fill="#c2e1ff" /><path d=""  fill="#fff500" /><path d="M-19.8-247.9c14.1 82.6 15.1 162.3 13.5 245.9-0.2 12 1.6 73.4-3.5 79.5-6.7 7.9-17.1-5.7-7.7-10.1 9.4-4.4 13.2 12.4 2.8 12.4-2.9 0-5.5-2-6.3-4.7-4.8-17.2 2.9-121 3.1-147.5 0.4-41.1 1.5-82.3-3.8-123.1-1.3-9.8-14.1-48.3-7-55.3 3.3-3.2 7.8-1 8.9 2.9z"  fill="#005bbb" /><path d="M-6.2-84.9c-0.4 28.7 1.7 141.1-6.8 161-1.2 2.7-4.1 4.4-7 4-7.7-1-7.4-12.6 0.3-13.3 9.1-0.8 9.5 13.6 0.4 13.3-13.3-0.3-3.9-46.3-3.4-54.6 0.9-17.5-0.3-104.4 4.6-113.5 3.4-6.1 11.3-2.9 11.9 3.1z"  fill="#005bbb" /><path d=""  fill="#005bbb" /><path d="M17.9 58.2c0.7 4.3 6.5 23.7-4.7 20.9-6.3-1.6-4.9-11.1 1.6-10.9 6.4 0.2 7.2 9.8 0.8 11-8.7 1.6-10-17.1-8.2-22 2-5.7 9.2-4 10.5 1z"  fill="#fff500" /><path d=""  fill="#005bbb" /><path d="M41.1-213.6c12.2 25.7 104.1 287.6 90.2 291.4-6.9 1.9-7.5-9.9-0.5-8.8 7 1.2 2.6 12.2-3.3 8.2-7.4-5.1-27.8-96.1-32.7-111.9-18.6-58.9-37.6-118.5-60.9-175.7-2-4.8 4.6-7.5 7.2-3.2z"  fill="#005bbb" /><path d="M53.1-225.7c39.1 68.8 53.3 153.8 69.5 230.6 1.9 8.9 19.9 70.9 12.3 72.9-7 1.8-7.5-10.2-0.3-9 7.1 1.3 2.5 12.4-3.5 8.3-8.7-6.1-29.4-119.4-34-138.4-12.7-51.5-22-106.2-46.4-153.7-1.5-2.9-4.1-19.9 2.4-10.7z"  fill="#fff500" /><path d="M66.4-95.6c6.3 16.7 73.1 169.3 59.5 173.4-6.7 2-7.5-9.6-0.6-8.6 6.9 1 2.8 11.9-3 8-11.6-7.6-16.7-48.8-20.9-61.9-9.2-29-39.7-84.3-43.1-108.7-0.7-5.1 5.9-6.2 8.1-2.2z"  fill="#fff500" /><path d=""  fill="#fff" /><path d="M93.9-399.5c6.6 66.9 73.4 108.8 88.6 174.3 17.6 76.6-32.9 141.9-38.2 216.7-0.4 6.4 4 32.7-6.8 32.5-7-0.1-7.9-10.6-1-11.9 8.1-1.6 9.9 11.2 1.7 11.9-11.9 1-7-27.9-6.8-33.8 2.4-67.2 44.9-126.6 42.8-193.2-2.2-69.8-54.1-107-81.3-165.4-14.2-30.3-3.6-46.6 1-31.1z"  fill="#fff500" /><path d=""  fill="#fff500" /><path d="M118.3-148.5c6.4 61.7 6.7 123.7 17 185.1 1.2 7.4 11.6 34.1 6.8 39.9-4.7 5.7-12.3-3.9-5.7-7.2 6.7-3.2 9.5 8.7 2.2 8.9-24.1 0.5-30-199.3-31.7-222.6-0.6-8.2 9.3-14 11.4-4.1z"  fill="#fff" /><path d=""  fill="#fff500" /><path d="M144.9-399.6c15.5 88.3 83.3 166.3 54.7 260.6-6.9 22.8-19.1 43.3-29.4 64.6-4.2 8.8-12.2 46-22.5 46.4-14 0.4-5.7-22.4 4.8-13.1 8.9 7.9-7.1 19.5-11.9 8.6-5.8-13.4 51.5-121.1 53.1-156.8 3.3-73.8-40.1-136.2-58-205-1.9-7.4 6.2-13.8 9.2-5.3z"  fill="#fff" /><path d="M154.9-387.2c14.7 71.8 57.9 137.3 53.1 213.1-3.6 57.5-45.6 101.3-56.2 157-1.9 10.1-0.4 72.9-7.6 73.4-8.7 0.7-6.7-13.7 1.5-10.7 8.2 3.1 0.3 15.3-5.8 9.1-4.8-4.8-3.5-18.2-3.9-24.3-6.6-100.1 51.5-133.5 59.1-211 4.7-47.4-12.4-95.7-28.3-139.6-5.7-15.7-25.8-50.6-21.7-67 1.3-5.4 8.1-4.5 9.8 0z"  fill="#fff" /><path d="M168.8 50.9c-0.3 6 5.4 26.6-4 27.6-7.3 0.7-7.8-10.7-0.5-10.7 6.2 0 7.2 9.3 1.1 10.6-10.1 2.2-10.9-25.5-8.5-30.2 3.1-6.2 11.1-3.2 11.9 2.7z"  fill="#c2e1ff" /><path d="M181.7-178.3c-2.7 60.4-36.5 114.3-38.8 175.6-0.7 19.4 0.2 38.9 3.4 58 0.6 3.9 8.5 23.9-1.9 22.7-5.6-0.7-5.5-9.1 0.1-9.6 6.5-0.6 7 9.7 0.4 9.7-20.1-0.2-14-104.9-12.3-118.9 5.8-47 28.4-89.3 35.2-135.8 1.4-9.2 13.6-13.2 13.9-1.7z"  fill="#005bbb" /><path d="M193.4-397.4c-13.6 76 25.9 146.7 24 221.9-1.5 57.5-43.4 95.8-59.3 148.4-3 9.8-5.8 67.5-14.1 67.3-9.5-0.1-5.9-15.5 2.6-11.4 10.1 4.8-4.2 18-8.2 7.6-2.9-7.7-1-19.4-0.6-27.4 3.5-76 50.8-107.3 64.2-170.6 13.4-63-18.1-128-23.2-190.4-1.2-14.1-4.2-35.4 1.1-48.9 3.1-8 13.6-4.1 13.5 3.5z"  fill="#005bbb" /><path d="M206.6-337.7c-6.1 59.3 21.7 116.3 17 175.5-4.7 58.6-54.1 97.1-67.2 152.9-4.7 20.3-5.9 41.6-3.8 62.3 0.4 4.1 8.1 26.9-2.6 25.4-6.7-1-4.5-11.4 2-9.7 6.5 1.7 3.3 11.9-3 9.4-7.5-2.9-7.5-24.2-8.3-30.5-13.3-110.4 47.9-123.3 67.2-202 12.8-52.2-10-106.7-13.9-158.8-3.8-50.7 12.4-27.6 12.6-24.5z"  fill="#fff500" /><path d="M218.5-289.3c0.6 46.4 18.9 91.6 14 138.1-6.1 57.9-59.2 92.5-73.2 147.6-4.7 18.5-6.1 37.9-4.5 56.9 0.3 4.1 7.7 27-2.9 25.3-6.7-1.1-4.5-11.6 2-9.8 6.6 1.8 3.2 12-3.1 9.5-7.9-3.1-7.7-26.5-8.3-33.5-9.5-104.8 50.9-114.1 73.5-188.2 16.2-53.1-17-106.8-9.4-146.7 1.4-7.2 10.8-5.6 11.9 0.8z"  fill="#005bbb" /><path d="M230.2-225.9c5.5 30.9 12.2 63 4.7 94.1-12.1 50.1-60 80.3-73.7 130.2-5 18.4-6.5 37.7-4.9 56.7 0.4 4.3 7.3 25.1-3.4 23.4-5.8-0.9-5.3-9.7 0.6-10 6.8-0.4 6.8 10.5 0 10.1-8-0.4-7.7-17.7-8.4-22.9-14.7-103.1 39.5-112.3 71.8-184.3 16.6-37 0.5-61.5 2.8-96.8 0.4-6.5 8.8-6.1 10.5-0.5z"  fill="#c2e1ff" /><path d="M242.6-225.1c6.6 34.2 18.8 69.2 11.3 104.4-11 51.9-64.4 75.5-83.1 123.2-6.2 16-9 33.2-8.7 50.3 0.1 4.5 6.6 28-4.2 26-6.9-1.3-4.2-12.1 2.5-10 5.8 1.8 4.1 10.6-2 10.1-8.2-0.7-7.3-18-7.9-23.3-10.7-101.5 53.8-104.9 85-171.7 20.4-43.7-4.6-69-3.2-108.1 0.2-6.3 8.4-6.2 10.3-0.9z"  fill="#c2e1ff" /><path d="M257.7-78.6c-21 36.9-64.1 54.3-80.4 94.9-6.1 15.2-3.4 68.9-15.1 61.7-6.2-3.8 0.3-13.3 6.1-8.8 4.9 3.8 0.1 11.8-5.6 9.1-6.9-3.3-5.5-21-5.7-27-1.7-55.5 31.7-87.6 69.1-122.9 6.2-5.9 12.1-16.8 19.6-20.7 9.2-4.8 16.2 5.8 12 13.7z"  fill="#c2e1ff" /><path d="M268.4-144.2c8.8 76.2-64.2 95.7-90.7 154.9-6.2 14-9.3 29.2-9.5 44.5-0.1 5.7 4 17.7-0.6 22-7.2 6.8-13.6-9.3-3.7-9.3 8.5 0 5.4 13.8-2.3 10.2-7.4-3.5-5.7-23.5-5.8-29.7-1.2-72.7 46.5-89.3 83.9-139 16.5-22.1 9.1-38.4 17.4-56 2.8-5.9 10.4-3.3 11.3 2.4z"  fill="#fff500" /><path d="M279.8-154.1c30.4 105.7-49.1 105.4-88.2 173.6-7 12.2-14 58-14.1 58-6.9 5.8-13.8-7.5-5.1-9.8 10.2-2.7 8 15.5-1.2 10.4-6.4-3.5-4.3-17.6-4.3-23.3 0.7-72 56.8-84 91.6-132.9 26.4-37.2 5.5-52.2 11.7-76.1 1.4-5.3 8-4.3 9.6 0.1z"  fill="#fff500" /><path d="M290.7-206.7c20 41.6 55.4 73.5 77.2 114.1 22 41.1 25.5 86.8 29.8 132.4 0.7 7.2 8.3 35.2-0.3 38.6-9.9 3.9-9.8-14.6 0-10.6 8.4 3.4-0.1 15.8-6.3 9.2-7.9-8.4-13.1-118.1-20.4-141.5-16.4-52.6-57.5-89.6-84.8-136.1-2.8-4.8 0.7-12 4.8-6.1z"  fill="#005bbb" /><path d="M305.9-257.6c-1.7 64.9 74.5 98.5 111 140.9 36.8 42.7 55.9 105.7 65.1 160.5 1.2 7 8.8 32.3-1 35.3-6.8 2.1-11-7.6-4.9-11.1 7.2-4.1 13.1 7.6 5.5 10.9-12.9 5.6-10-30.3-10.6-35.5-4.9-36.6-16.7-73.5-30.7-107.6-28.3-68.8-84.9-89.3-125.7-144.6-8.7-11.8-22.7-33.4-20.4-49.1 1-7.1 10.3-6 11.7 0.3z"  fill="#fff500" /><path d="M320.3 3.7c-6 10.9-44.8 80.5-54 77-10-3.8-3.1-19.2 6.4-14.3 9.5 4.9 1 19.4-7.9 13.6-15.5-10.2 31.4-81.8 43-88.8 8.6-5.2 16.1 4.6 12.5 12.5z"  fill="#c2e1ff" /><path d="M332.9-304.5c-18.4 22.6-24.4 50.3-12.5 77.4 19.1 43.5 65.8 65.6 96.9 99.1 40.8 44 59.9 112 69.1 170.2 1.1 7 8.8 34.5-1.4 37.4-8.1 2.4-11.1-10.6-2.8-12 7.1-1.3 10.1 9.1 3.4 11.8-13.1 5.4-9.5-29.9-10.1-35.1-4.6-40-17-81.1-32.2-118.3-32.2-78.5-133.1-115.5-141.3-184.1-1.9-16 1.9-51.7 18.5-60.4 9.4-4.9 16.6 5.9 12.4 14z"  fill="#005bbb" /><path d="M341.2-236.7c14.8 44 63.6 66.9 91.4 101.5 37.2 46.2 52.2 116.2 60.5 173.9 1.1 7.7 8.8 38.1-1.9 41-8.3 2.2-11.1-11.1-2.6-12.4 7.3-1.1 10.1 9.5 3.2 12.1-13.7 5.3-9.2-33.7-9.9-40-4.7-43.3-16.5-88.9-32-129.6-21-54.8-66.7-79.1-102.2-122.1-22.4-27.2-10-30.1-6.5-24.4z"  fill="#fff" /><path d="M341.6-392.5c-26.4 40.5-82.3 51.9-95 102.8-20.2 80.9 60.7 167.1-17.7 235.2-15.2 13.2-26.4-18.1-7.4-18.3 16.8-0.1 11 27.2-4.3 20.3-20.1-9.1 33.4-46.8 35.9-86.4 4.1-65.5-45.5-129.4-6.7-192.9 8.4-13.7 70.4-69.9 83.7-75.7 9.9-4.3 16.4 7.1 11.5 15z"  fill="#fff" /><path d="M367.5-252.2c5.3 47.6 57.2 77.1 80.9 115.4 28 45.3 37.2 104.3 46.4 156 1.9 10.4 12.7 53.1 2.1 59.9-7.3 4.7-14.1-7.3-6.3-11.2 7.8-3.9 13.3 8.8 5.1 11.8-13.8 5.1-8.7-32.9-9.2-39-3.7-43.7-14.8-89-27.1-131-19.2-65.8-60.4-84-91.9-136.8-16.4-27.4-4.6-37.4 0-25.1z"  fill="#005bbb" /><path d="M380.6-32.6c1.9 12.8 9.9 112.1-2.6 111.9-8.2-0.2-7.3-13.1 0.9-12.1 8.2 1 5.8 13.8-2.2 11.9-10.3-2.5-5.4-35.8-5.5-43.5-0.1-14.5-5.7-58.7-1.4-69.7 2.3-5.8 9.6-3.8 10.8 1.5z"  fill="#fff500" /><path d="M388.6-147.2c19 15.9 36.1 33.7 48.8 55.1 17.6 29.5 59 134.6 48.9 167.2-2.9 9.3-16.9 1.3-10.4-5.9 6.5-7.2 15.9 5.9 7 9.7-12.9 5.6-9.8-30.3-10.5-35.5-4.3-33.4-14.7-66.4-26.3-98-11.2-30.4-26.5-58-49.7-80.9-3.3-3.3-11.6-14.4-7.8-11.7z"  fill="#c2e1ff" /><path d="M407.6-345.9c-11 32.4-37.4 62-30.4 98.3 8.4 44 53.3 72.4 74.7 109.8 27.2 47.3 36.2 108.9 44.9 162.2 1.4 8.6 11 48.1-0.7 51.1-9.7 2.6-10.4-14.1-0.5-12.3 9.9 1.8 3.5 17.2-4.7 11.4-7.5-5.2-3.3-34.6-4.3-43.3-3.9-33.7-12-67.1-19.6-100.2-7.6-33.1-17.8-64.9-38.1-92.6-24.7-33.6-64.4-62.5-65.3-107.9-0.4-18.8 16.8-73.7 31.1-85.9 6.9-5.9 15 1.7 12.9 9.4z"  fill="#fff500" /><path d="M424.7-399.4c13.4 60.9-40.4 116.3-13.2 175 14.5 31.2 38.9 56.5 52.5 88.4 6.3 14.7 41 147.4 28.1 148.8-8.4 1-7-13 1.1-10.3 8.1 2.7 0.9 14.8-5.3 8.9-6.6-6.1-17.2-88.3-20.4-103.4-15-70.7-67.3-115.7-75.8-164.7-6.3-36.2 13.2-67.6 20.4-101.9 2.6-12.7-1.9-30.4 2.2-41.8 2-5.6 9.1-3.9 10.4 1z"  fill="#fff500" /><path d="M480.8-400.3c37.6 70.2 34.6 193.7 27.3 271.6-1.2 12.4-1.3 101.9-8.7 102.1-9.2 0.2-6.3-14.8 2.2-11.2 8.5 3.7-0.5 16.1-6.6 9.2-12.5-14 4.9-157.8 4.4-186.8-0.9-51.8-2.5-109.2-17.3-159.2-1.5-5-12-22.2-7.5-26.8 2-2.1 4.9-1.1 6.2 1.1z"  fill="#fff" /><path d="M441.4-45.5c7.3 17.3 40.3 109.7 31.8 122.5-5.1 7.8-16-3.3-8-8.3 8-5 13.1 9.7 3.8 10.9-10.9 1.4-10.6-40.2-12.2-47.9-3.7-17.3-24.9-62.7-23.5-76.1 0.5-4.6 6.1-4.6 8.1-1.1z"  fill="#c2e1ff" /><path d="M456.3 72.9c-0.4 10.3-15 7.7-12.2-1.1 4.2-13 20.5 5.7 7.1 8-15.9 2.8-1.2-25.1 4.9-8.2z"  fill="#005bbb" /><path d="M467.6-372c9.9 40 2.2 81.2 5.6 121.8 2.5 30.5 11.1 60 15.7 90.2 4.9 32.2 5.3 64.8 7.6 97.2 2.3 31.8 22.8 111.8 12 138.4-3.9 9.7-18.3-0.1-10.6-7.3 8.9-8.4 16.7 11.5 4.5 11.4-12.1-0.1-5.9-41.5-6.6-49.7-3.9-50.4-11.5-100.1-14.5-150.6-2.7-45.3-15.3-88.4-20-133.3-4.1-38.7 0.7-77.4-3.9-116.1-0.8-6.7 8.1-8.2 10.2-2z"  fill="#fff" /><path d="M480.3-226.9c11 73.9 11.9 126.4 19.9 196.3 2.8 24.6 17.5 84.9 8.7 106.4-4 9.7-18.3-0.2-10.6-7.3 9-8.4 16.7 11.5 4.4 11.4-11.5-0.1-5.6-23.1-5.6-29.2-0.1-23.2-3.5-46.2-6.6-69.2-6.2-46.6-5.5-93.4-10.3-140.1-1.4-14.1-13.7-58.8-10.3-69.1 1.9-5.7 9-4.1 10.4 0.8z"  fill="#c2e1ff" /><path d="M493.4-306.3c3 47.6 8.3 95.5 9.2 143.2 0.6 37.7-2.8 75.4-0.9 113.1 1.6 29.6 19.2 100.9 8.9 125.7-4.7 11.4-20.1-3.6-8.8-8.6 9.6-4.3 13.2 12.8 2.6 12.7-3.7-0.1-6.8-3.3-6.6-7 2.9-35.6-2.8-70.4-6.4-105.8-5-48.7-0.1-97.2-1.5-146-1.1-42.3-7.8-84.3-8.3-126.7-0.1-7.9 10.5-8 11.8-0.6z"  fill="#fff500" /><path d=""  fill="#005bbb" /><path d="M519.3-400c24.3 47.2 36.7 108.8 38.1 161.7 1.7 66.5-38.7 123.1-42.9 188.8-0.8 12.3 7.6 95-3 94.6-9.7-0.3-5.8-16 2.9-11.6 7.5 3.7 1 15.1-6 10.7-7.8-5-4.2-36.2-4.9-45-8.6-119.8 29.9-131.3 40.3-221.8 6.6-57.4-10.9-121.1-31.5-174.1-1.8-4.8 4.5-7.4 7-3.3z"  fill="#fff" /><path d="M531.8-32.3c-2.7 17.9 0.9 103-6.5 110.6-7.7 7.9-17.7-7.5-7.4-11.3 10.3-3.9 13 14.2 1.9 13.4-12.8-0.9-3.7-33.1-3.4-40.6 0.9-22.4-5.6-54 2.1-75.2 2.9-7.9 13.2-4.4 13.3 3.1z"  fill="#fff" /><path d="M554.5-399.9c24.8 61 52.1 140.9 32.3 206.4-14.1 46.6-49.7 82.9-60.6 130.9-2.4 10.5-1.6 73.9-10.6 73.8-9.6-0.2-5.9-15.7 2.8-11.5 8.6 4.2-1.2 16.7-7.3 9.3-6.3-7.6-2.3-31.7-2.1-41.1 2-85.2 56.4-119.8 69.5-191.2 12-65.6-34.5-156.4-32.2-175.6 0.6-4.7 6.3-4.6 8.2-1z"  fill="#005bbb" /><path d="M557.9-74.7c-22.2 34.8-21.5 75.2-23.1 115-0.3 7.6 2.8 42.7-11 40-8-1.6-7-13.8 1.2-14 9.6-0.2 9.1 14.9-0.4 14.1-19-1.7 8.2-144.4 16.2-160.9 5.7-11.8 22.3-7 17.1 5.8z"  fill="#fff" /><path d="M569.7-205.4c-10.3 62.1-51.5 110.6-52.6 175.9-0.2 13.2 10 112.1-5.8 109.7-25.3-3.9 21.8-23.2 6.5-2.6-10.3 13.9-11.5-11-11.2-15.1 4.2-50.9-7.8-101.6 3.7-152 6.4-27.8 32.6-94.7 45.6-120.8 4-8.1 14.6-3 13.8 4.9z"  fill="#c2e1ff" /><path d="M592.6-400c16.7 53.8 12.4 64.9 15.4 148.4 0.7 18.7 7.3 71.9-3.9 94.1-13.4 26.4-39.1 46.2-54 72.1-5.8 10-19.3 69.8-27 68.8-10.5-1.4-4.4-17.9 4.5-12.2 8.9 5.7-3.5 18.1-9.2 9.2-3.6-5.7-0.1-16.6 0.7-22.6 10.6-77.9 50.2-84.2 68.4-124.6 8.1-18 1.2-72.5 1.6-84.8 2.4-95.3 13.7-86.7-2.8-137.8-1.8-5.6 1-22.2 6.3-10.6z"  fill="#fff" /><path d="M592.1-324.3c14 48.2 22.2 100.2 0.6 147.3-20.1 44-55.8 77.8-65 126.9-6.4 33.6-2 67.7-2.8 101.5-0.2 6.4 2.9 30.6-9.3 28.6-9.2-1.6-6-15.9 3-13.4 10.5 3 1.9 18.9-6.4 11.8-7.8-6.7 0.3-41.4 0.3-51.4-0.3-42.9-3.3-85 13.5-125.6 15.9-38.1 46.5-68.1 60.4-107.1 17.6-49.4-7.2-101.8-3.6-118.3 1.1-5.2 7.6-4.5 9.3-0.3z"  fill="#c2e1ff" /><path d="M605.9 66.1c-1.1 5.7-3.5 19.5-13 13.3-9.7-6.4 4.1-19.9 10.3-10 6.2 9.9-12.1 16.4-13.5 4.7-1.9-15.2 17.3-22.9 16.2-8z"  fill="#fff500" /><path d="M606.4-13.7c-11.1 21.4-15.7 45.4-20.4 68.9-1.3 6.5-1.6 28.7-13.4 25.3-9.8-2.8-4.5-17.9 4.8-14.1 9.4 3.8 2.5 18.3-6.3 13.5-11.6-6.3 11.8-95.6 22.1-103.8 7.4-5.9 15.6 2.4 13.2 10.2z"  fill="#fff500" /><path d="M605.8-77.6c-27.6 24.8-42.4 55.1-48 91.6-2.2 14.2 0.2 55.5-10.5 65.1-10.1 9.1-18.2-13-4.7-12.7 11.6 0.3 6.9 18.9-3.4 13.8-10.4-5.1 2.1-45.8 3.2-55.3 5.2-43.6 15-86.6 48.6-117.6 10.3-9.5 23.1 4.7 14.8 15.1z"  fill="#fff" /><path d="M605.8 58.3c-1.1 5.6-2.6 29.2-14.6 21.3-7.1-4.7-1.3-16.1 6.8-13 6.8 2.6 5.8 12.9-1.4 14.1-13.7 2.4-7.7-23.3-3.6-28.4 5.1-6.3 13.4-1 12.8 6z"  fill="#005bbb" /><path d=""  fill="#c2e1ff" /><path d="M605.7-82.5c-6.5 5.7-25 32.5-34 16.2-5.6-10.1 8.5-20 16.1-11.3 7.6 8.6-4 21.3-13.3 14.5-12.9-9.4 11.8-34.7 21-37.3 11.3-3.2 16.7 10.1 10.2 17.9z"  fill="#fff500" /><path d="M605.8-80.9c-16.1 14.3-30 30.9-38.5 50.8-2.6 6-6.5 36.6-18.9 28.3-8.3-5.5 1.1-18.1 8.8-11.7 6.5 5.5-0.5 16.1-8.1 12.1-20.7-10.8 29.2-92.4 46.3-97.4 11.3-3.3 16.8 10 10.4 17.9z"  fill="#c2e1ff" /><path d="M606.1-67.4c-7.1 6.7-29.5 47.5-40.5 35.2-7.8-8.9 6.8-20.5 13.7-10.8 5.8 8.3-5.5 18.3-13 11.5-11.5-10.5 23.2-62.5 38.4-51.4 5.4 4 5 10.6 1.4 15.5z"  fill="#fff" /></svg>