<svg width="1200" height="675" viewBox="-500 -500 1200 675" xmlns="http://www.w3.org/2000/svg"><path d="M-500-500h1200v675h-1200z" fill="#000"/><path d=""  fill="#c2e1ff" /><path d=""  fill="#005bbb" /><path d=""  fill="#005bbb" /><path d="M-396.3-388.2c26.1 40.7 38.6 88.6 58.4 132.5 24.6 54.5 49.8 105.5 50.5 166.7 0.1 7.7 1.9 20.2-1 27.4-3.1 7.7-14.6-0.1-8.4-5.8 6.1-5.7 13.2 6.2 5.2 8.8-11.6 3.9-5.9-26.1-5.8-30.4 0.5-33.6-5-66.2-16.7-97.7-14.4-38.7-63.2-155.1-81.4-189.2-0.3-0.7-7.2-20.5-0.8-12.3z"  fill="#005bbb" /><path d="M-376.3-399.5c26.9 41.7 37.7 91.9 58.7 136.6 18.6 39.9 72.8 136.6 58.2 180.1-2.5 7.5-13.8 0.8-8.4-5 5.5-5.8 12.9 5.1 5.5 8-11.2 4.5-7.3-29.3-7.7-34.3-2.1-26.7-9.3-52.3-19.8-76.9-13.8-32.3-31.4-62.8-45.2-95.2-13.7-32.2-23.1-66.2-38.7-97.5-0.3-0.7-9.3-24.5-2.6-15.8z"  fill="#fff" /><path d=""  fill="#fff" /><path d=""  fill="#fff500" /><path d=""  fill="#fff500" /><path d=""  fill="#005bbb" /><path d=""  fill="#fff" /><path d=""  fill="#005bbb" /><path d="M-324.4-399.7c15.5 39.9 22.1 82.4 39.4 121.9 26.5 60.4 62.9 111.4 57.4 180.4-0.7 8.9 0.1 23.2-3.8 31.3-3.9 7.9-15.3-1.2-8.5-6.7 6.8-5.6 13.4 7.5 4.9 9.7-12.7 3.3-4-29-3.5-33.9 2.9-27.9 2.1-55.3-6.9-82.1-12.2-36.2-33.5-68.7-48.7-103.6-14.8-33.8-22.6-69.3-33.5-104.3-0.6-2.1-2.4-23.9 3.2-12.7z"  fill="#fff" /><path d="M-374-4.7c-4.5 5.6-26.4 34.3-32.8 16.2-3.9-11.1 13.9-16.4 16.7-4.9 2.3 9.8-11.9 14.8-16.3 5.8-9.4-19.6 50-42.5 32.4-17.1z"  fill="#fff500" /><path d="M-363.8-45.5c-4.3 8.4-28.7 53.5-41.2 39.5-7.6-8.6 6.6-19.8 13.3-10.5 6.6 9.4-8.7 19-14.3 9-4.1-7.3 25.3-43.1 32.1-47.5 6.7-4.3 12.7 3.3 10.1 9.5z"  fill="#fff500" /><path d="M-353.8-58.3c-4.4 11.4-32 69.7-49 59.5-9.9-6 0.3-21.1 9.6-14.1 9.2 7-2.6 20.9-11.1 13-9.7-9.2 10.3-22.1 15.2-27.8 7.6-8.8 16.6-34.9 26.3-39.4 6-2.8 10.6 3.3 9 8.8z"  fill="#005bbb" /><path d=""  fill="#c2e1ff" /><path d="M-336.8-387.2c15 37.2 23.4 76.5 39.9 113.2 20 44.2 49.2 86 57.7 134.5 9.8 56.9-5.8 116.7-4 174.3 0.1 4.4 4 20.3-4.1 20.2-5.5 0-6.4-8.2-1-9.4 6.3-1.4 8 8.7 1.5 9.4-9.8 1.1-6.4-29.1-6.6-34.8-1.3-55.8 14.2-114.3 3.8-169.5-9.6-50.5-41.5-94-61.3-140.7-11.6-27.5-19.2-56.3-28.7-84.5-0.7-2-2.9-23.6 2.8-12.7z"  fill="#fff" /><path d="M-327.1-225.3c40.3 86.6 40.6 169.9 19.3 262.1-1.8 7.9-5.9 43.4-16.5 43.1-10-0.2-6-16.3 3-11.9 10.5 5.2-4.6 18.7-8.7 7.8-4-10.8 10.1-39.9 12.8-51.5 7.8-34 13-68.9 14.8-103.9 2.6-51.9-10.6-95.9-30.5-143.1-1.6-3.8 3.7-6 5.8-2.6z"  fill="#c2e1ff" /><path d="M-314.1 0.7c-2.9 11.1-25.7 88.4-40.6 79-7.1-4.4-1.7-15.6 6.2-12.8 9.2 3.3 3.3 17.5-5.5 13.2-11.8-5.7 10-35.1 13.2-42.2 5.8-13.1 8.4-29.7 15.4-42 3.8-6.6 12.4-1.8 11.3 4.8z"  fill="#fff" /><path d="M-296.3-399.6c11.2 38.5 16.2 78.1 31.3 115.5 17.1 42.4 45.4 82.2 51.6 128.3 5.5 41-7.6 81.3-13.5 121.5-1.1 7.9 0.1 47.1-7.9 49.1-9.2 2.3-7-14.1 1.3-9.4 7.1 4-1.9 14-6.7 7.4-10.7-14.9 20.8-142.5 17.2-173.5-7.3-61.6-51.1-115-66.6-175-4.9-19.1-13.9-43.2-14.3-62.8-0.1-4.7 6-4.9 7.6-1.1z"  fill="#005bbb" /><path d="M-296-146.8c9.5 39.9 4.5 190.9-16.7 223.8-5.2 8.1-16.5-3.3-8.4-8.4 9.5-6 13.2 13.3 2.1 11.1-10.3-2-1.1-21.9 0.2-27.5 6.4-27.4 11.2-55.2 14.7-83.1 3.4-28.2 5.9-56.8 3.9-85.2-0.7-9.7-4.3-20.5-3.9-30.1 0.2-5 6.7-4.9 8.1-0.6z"  fill="#c2e1ff" /><path d="M-286.6-309.2c17.9 54.5 57.4 103.1 65.3 160.5 7.8 56.1-16.2 139.2-11.8 209.8 0.2 3.6 3.7 19.6-5.3 16.8-5.2-1.7-3.6-9.6 1.9-9.2 5.4 0.5 5.6 8.6 0.1 9.3-20.1 2.5 7.5-203.3 6.3-222.4-3.4-56.6-41.5-104.3-60.9-155.9-1.6-4.3-0.1-17.8 4.4-8.9z"  fill="#005bbb" /><path d="M-274.8-58.8c-0.5 14.8-3.3 138-12.4 137.1-6-0.6-6.1-9.7 0-10.3 7-0.8 7.7 10.4 0.6 10.3-10.6 0.1-3.6-38.9-3.3-45.7 0.9-17.9-1.8-81.7 5.4-94.2 2.8-4.9 9.2-2.1 9.7 2.8z"  fill="#fff500" /><path d="M-266.4-315.1c15.8 55 55.5 104.7 59.6 162.7 4.3 59.9-26.1 130.3-21.3 212.6 0.2 3.7 3.8 20.3-5.3 17.4-5.2-1.7-3.6-9.7 1.9-9.1 5.4 0.5 5.6 8.7 0.1 9.3-9.7 1.2-7-32.1-7.3-38-2.9-70.9 23.1-129.5 22.3-191.8-0.8-62-54.5-115.6-57.3-161.8-0.3-4.6 5.6-5 7.3-1.3z"  fill="#c2e1ff" /><path d=""  fill="#c2e1ff" /><path d="M-246.1-151.9c13.9 52.4 0.6 107.9 0.3 161.2-0.1 8.8 6.1 68.5-2.3 68.6-7.5 0.1-5-12.1 1.8-9 6.8 3-0.6 13-5.4 7.3-6.5-7.5-4.1-86.2-3.5-100.3 1.3-29.1 5.3-58.1 5.2-87.1-0.1-11.4-6.7-30.3-3.9-40.9 1.2-4.3 6.5-3.4 7.8 0.2z"  fill="#c2e1ff" /><path d="M-208.9-399c8.6 33.7 9.3 68.8 16.1 102.8 5.9 29.2 16.8 57.3 21.8 86.7 2.1 12.4 2.9 25 2.1 37.5-2.7 37.7-20.7 71.6-33.2 106.6-2.7 7.6-7.6 42.6-16.5 43.2-10.9 0.7-5.1-17.3 3.3-10.3 7.2 5.9-5 15.4-9 7-7.5-15.7 44.2-128.9 45.5-159.2 2-43.9-18.2-85.8-25.7-128.5-4.5-25.7-5.9-51.8-10.9-77.4-0.9-4.6 2.8-18.9 6.5-8.4z"  fill="#005bbb" /><path d="M-224.9 18.1c-0.3 8.2 5.1 59.8-3.3 59.9-6.4 0.1-6-10 0.4-9.4 6.4 0.6 4.9 10.6-1.4 9.3-7.7-1.6-8.9-55.7-5.3-62.3 2.7-4.9 9.1-2.3 9.6 2.5z"  fill="#fff500" /><path d="M-215.7-365.7c8.3 49.9 43 166 41.2 197.5-3.3 59.3-38.9 111.7-44.8 171.1-0.9 8.9 2 74.9-4.9 74.9-6.4 0-6-10.1 0.5-9.4 7.5 0.8 3.6 12.6-2.9 8.8-6.8-4-3.8-30.4-4-37.6-2.5-95.2 36-131.2 45.3-208.1 6.4-52.5-22.2-102.4-32-152.9-2.3-12-4.1-24.1-5.9-36.1-0.8-5.5 4.4-19 7.5-8.2z"  fill="#fff500" /><path d="M-206.5-282.1c10.5 34.8 27.2 68.5 28.4 105.3 1.9 60.4-34.9 115.4-41.6 175.1-1 9.3 1.3 79.5-5.2 79.5-7.5 0.1-4.9-12.1 1.9-9 5.9 2.7 1.2 11.7-4.3 8.4-5.6-3.3-3.3-19.2-3.6-24.6-4.8-99.1 25.2-123.9 40.4-208 8.1-44.9-10.7-82.7-23-124.5-1.4-4.7 5.1-6.5 7-2.2z"  fill="#fff" /><path d="M-167.7-398.8c3.3 33-1.8 66.2 0.2 99.3 7.6 129.8 28.4 94.5-26.8 224.8-3 7-8.4 35.5-17.5 35.3-11.6-0.2-3.8-18.8 4.4-10.6 7 6.9-6.7 15.9-10.2 6.6-5.1-13.5 45.8-113.1 50.1-137.9 11.2-65.6-22.1-146.9-9.4-218 1-5.6 8.3-4.5 9.2 0.5z"  fill="#fff500" /><path d=""  fill="#fff500" /><path d="M-174.2 18.3c-2.7 10.3-1 54.4-8.5 59.3-6.7 4.4-11.5-8.1-3.5-9.3 8-1.2 7 12.1-0.7 9.9-9-2.7-3.2-58.4 2.3-65 4.2-5.1 10.9-0.6 10.4 5.1z"  fill="#fff" /><path d="M-163.7-123.7c-22.6 43.8-45.5 85.1-50.3 135.2-2 21.5 3 69.9-6.7 66.7-6.1-2.1-2.4-11.6 3.6-8.9 5 2.3 2.4 10.2-3.1 9-11.2-2.5-3.1-156.1 44.9-210 5.8-6.5 14.3 0.8 11.6 8z"  fill="#c2e1ff" /><path d="M-154.7-398.4c0.2 35.1-7.5 69.7-6.1 104.9 1.6 41.7 14 82.5 5.5 124.3-10 49.4-41.6 91.3-54 140.2-2.3 9-6.1 66.2-13.2 65.7-8-0.5-4.3-13.3 2.8-9.4 7 3.8-1.7 13.8-6.5 7.4-3.3-4.5-0.9-14.9-0.6-20 3.5-77.3 45.9-122.9 61.1-192.3 10.5-47.8-6.7-96.1-5.2-144.3 0.5-15 0.7-68.3 6.7-79.1 2.7-4.9 9-2.3 9.5 2.6z"  fill="#fff" /><path d="M-141.2-397.4c-3.7 33.6-13 66.4-13.6 100.4-2.1 117.1 22.4 94.1-33.3 212.9-5.5 11.6-11.5 44.5-21 51.7-7.7 5.9-14.6-8.7-5-10.8 9.5-2.1 9.6 14 0 12-14.6-3.1 47.8-133.1 51.3-148.5 10.7-47.6-5.2-96-1-144.1 1.3-14.5 5.4-67.3 12.6-77.5 3.5-5 10.1-1.4 10 3.9z"  fill="#005bbb" /><path d=""  fill="#005bbb" /><path d=""  fill="#fff" /><path d=""  fill="#fff" /><path d="M-103.8-195.2c-27 63.5-83 110.9-100.2 178.9-5.9 23.4-7.4 47.6-6.9 71.6 0.1 4.3 4.4 26.2-5.7 22.7-5.3-1.8-3.4-9.9 2.1-9.2 6.5 0.7 4.7 10.9-1.6 9.4-7.7-1.8-4.6-23.8-4.7-29.4-2.9-123.5 55.2-146.3 101.7-243.4 4-8.4 19.7-14.7 15.3-0.6z"  fill="#fff" /><path d="M-93.7-289c-20.8 38.4-20.6 84.4-38.3 124.3-22.5 50.7-61.1 91.8-74.4 146.9-5.7 23.5-7.1 47.6-6.5 71.7 0.1 4 4.6 27.5-5.6 24.1-6.1-2.1-2.3-11.6 3.5-8.9 6.9 3.2-0.8 13.2-5.6 7.4-6.4-7.6-2.5-35.8-2.4-45.5 1-82.9 39.7-126.5 75.5-195.7 21.4-41.3 21-89.1 41.2-130.3 4.1-8.3 15.4-2.3 12.6 6z"  fill="#c2e1ff" /><path d="M-84.4-127.2c-42.7 36.2-90.1 66.7-106.6 123.6-5.5 19-5.7 78.6-9.5 81.3-6.3 4.5-11.4-7.4-3.8-8.8 8.9-1.7 5.9 13.9-1.7 8.9-6.7-4.3-2.7-30.1-2.5-37.2 1.9-66.4 31.4-115.7 82.3-156.9 9.9-8 21-20.1 32.4-25.6 9.7-4.7 15.9 7.8 9.4 14.7z"  fill="#fff500" /><path d="M-81.5-393.7c-79.2 97.6-35 128.6-62.9 224.1-20.4 69.7-60 106.9-70.1 186.7-1.5 11.6-17.4-0.6-7.4-5.1 8.9-4 9.7 13 0.5 9.8-11.8-4.1-8.5-43.8 52-165.1 31.8-63.7 11.3-133.1 37.6-197.3 8.2-19.9 21.8-50.5 39.3-64.2 7.6-5.9 15.5 3.8 11 11.1z"  fill="#005bbb" /><path d="M-64.3-350.4c-64.4 52.4-46.5 114-72.1 182.4-19.4 51.9-57.6 93.8-70.8 148.5-5.3 22.2-7 45-6.7 67.7 0 4 3.6 22.7-6 19.3-5.3-1.8-3.4-10 2.1-9.3 5.5 0.7 5.5 9-0.1 9.5-9.9 1-6.1-29.3-6-35 0.5-99.8 48.3-131.5 78.7-214.7 17.2-47 10.8-99.9 37.4-143.9 7.7-12.7 20.2-31.8 33.8-38.8 9.5-4.9 16 7.3 9.7 14.3z"  fill="#fff" /><path d="M-94.9-394.5c-16.6 26.3-31.9 54.2-39.2 84.7-9.7 40.7-0.9 82.6-8.2 123.6-7.5 42-31.8 76.9-49.2 114.9-3.1 6.8-10.6 40.8-20.9 37.1-9.3-3.3-0.6-17.2 6.4-10.3 7 6.9-6.7 15.9-10.1 6.7-5.9-15.7 46.4-104.8 54.3-125.3 21.5-54.9 4.2-113.8 21.2-169.5 6.6-21.7 17.8-54.9 34.3-71.1 6.4-6.3 14.8 1.8 11.4 9.2z"  fill="#005bbb" /><path d=""  fill="#fff500" /><path d="M-33.8-182.1c-44.5 58.3-122.5 91.4-151.6 160.7-8.4 20.1-13.7 96.3-14.5 97.4-5.3 7.4-13.8-6-4.8-7.7 8.9-1.7 5.9 13.8-1.8 9-7.2-4.6-2.6-34.9-2.2-42.8 5.4-118.8 92.4-142.4 158.2-221.2 7-8.4 25.1-9.2 16.7 4.6z"  fill="#fff500" /><path d="M-23.8-223.7c-16.9 24.5-34.2 48.7-54.7 70.4-38.7 40.9-88.9 72.5-110.9 126.6-8.8 21.5-13.4 101.4-14.4 102.8-5.2 7.4-13.8-5.8-4.9-7.6 8.9-1.8 6 13.7-1.6 8.9-7.2-4.5-2.9-34.3-2.8-42 3-102.1 61.9-137.3 125.9-203.6 18.8-19.5 32.3-48 52.2-65.5 7-6.2 15.1 2.7 11.2 10z"  fill="#005bbb" /><path d="M-18.5 32.7c9.6 12.5 21.8 22.6 34 32.5 1.2 1 11.1 6.7 8.9 9-0.1 0.1-0.5 0.3-0.6 0.4-2.5 0.7-8.1-6.1-9.8-7.5-23.9-19.7-40.2-41.4-32.5-34.4z"  fill="#c2e1ff" /><path d="M-4.6-385c-31.1 25.3-68.8 43.2-90.8 78.2-23.5 37.2-21.1 82.6-33.7 123.6-12.6 40.8-39.1 74.3-58.2 111.9-8.3 16.4-15.1 33.6-19.4 51.6-1.1 4.7-1.8 28.5-12.1 22.6-5.6-3.2-1.7-12.1 4.5-10.2 6.2 2 4.3 11.5-2.2 10.9-12.8-1.1 2.5-43.9 4.7-50.8 15.9-49.2 51.1-88.3 69.2-136.3 18.2-48.4 13-102.9 44.6-146.3 12.5-17.1 66.2-67.4 86.5-71 9.7-1.7 13 9.8 6.9 15.8z"  fill="#fff500" /><path d="M-67.2-392.8c-28.5 28.4-53 61.2-61.4 101.3-15.5 74.4 1.8 102.6-39.6 178.3-4.6 8.5-11.9 31.1-20.6 35.4-9.9 4.9-14.3-12.9-3.2-13.2 11.1-0.3 7.6 17.7-2.6 13.4-11.6-5 35.7-84.5 39.9-96.6 23-65.3 3.1-132 44.6-192.8 8.4-12.3 19.8-30.7 32.5-38.7 8.6-5.4 15.9 5.7 10.4 12.9z"  fill="#fff" /><path d="M11.9-13.4c7.3 11.5 99.4 80.7 91.6 88.9-3 3.1-7-2.8-3-4.4 4-1.6 5.2 5.5 0.9 5.3-4.6-0.2-15.7-20.9-19.8-25.1-17.9-18.6-41.2-30.6-60.2-47.8-4.2-3.8-11.3-9.2-13.5-14.6-1.1-2.6 2.2-4.1 4-2.3z"  fill="#005bbb" /><path d="M-46.8-391.8c-33.6 27.5-64.6 58-75.8 101.5-18 69.7-2.3 102-42.4 173.6-5 8.9-10 23.4-17.3 30.4-8.2 7.7-17.8-8.3-7.2-11.8 12.5-4.2 11.3 18.7-0.7 13.1-11.5-5.3 34-79.2 38.3-90.8 23.1-63.6 5.5-129.9 50.4-186.7 11.4-14.4 28.4-35.8 45.3-43.9 9.7-4.7 16 7.7 9.4 14.6z"  fill="#fff500" /><path d=""  fill="#005bbb" /><path d="M46.2-374.3c-28.2 40.2-73.5 62.9-103 101.7-22.6 29.7-33.5 66-51.5 98.3-15.5 27.9-36 52.2-54.7 77.9-14.4 19.9-27.1 41-35.2 64.2-1.9 5.4-5.4 36.9-16 30.2-7.7-4.9 3-15.7 7.9-8 4.3 6.6-6.5 12.7-10 5.7-14.1-28.2 60.3-126.3 77.5-150.2 31.2-43.3 44.5-97 78-138.5 10.9-13.5 82.3-81.1 95.9-92 7.4-5.9 15.3 3.5 11.1 10.7z"  fill="#005bbb" /><path d=""  fill="#c2e1ff" /><path d="M65.4-156.5c-5.1 43.4 1.3 82.1 30.2 116 28 32.9 60.2 60.4 68.2 105.1 0.7 3.7 3.2 10.9-1.8 12.9-6.9 2.6-8.7-9.5-1.3-9 7.3 0.5 3.9 12.2-2.6 8.7-6.3-3.5-8.1-36.1-11.4-44.1-19.6-47.1-69.3-73.2-86.1-121.9-6.5-18.8-12.5-50.5-5.7-70 2.2-6.3 10.4-3.6 10.5 2.3z"  fill="#fff500" /><path d="M71.5-40.3c20.8 26.9 87.3 76 81.6 114.1-1 6.7-11.6 2.7-7.9-3.1 3.8-5.7 11.6 2.5 5.9 6.1-6.1 3.7-9.1-28.2-25-52.2-9.8-14.8-55.6-52-58.1-63.2-0.5-2.2 2.1-3.1 3.5-1.7z"  fill="#fff" /><path d="M85.9-276.5c-16 61.9-48.6 150.3-18.4 211.6 18.6 37.5 100.4 94.1 91.7 138.9-1.6 8.2-13.8 0.3-7-4.5 5.8-4.1 10.4 6.7 3.4 8.1-5.3 1-16.4-45.4-20.6-52.8-31-54.1-87.9-79.3-88.6-149-0.3-32.9 13.3-128.7 28.2-156.7 3.5-6.6 12.1-2.2 11.3 4.4z"  fill="#fff500" /><path d="M91.2-397c-17.2 69.8-90.8 194.7-140.6 246.9-25.3 26.6-56.1 46.3-83.9 69.9-7.3 6.2-31 39.1-40.5 31.2-11-9.2 10.9-21.1 12.6-6.8 1.4 12.2-18.8 10.2-15-1.5 9.4-28.7 112-97.3 138.9-131.5 40.8-51.9 96.3-142.3 114.8-204.9 2.3-8 15.7-17.1 13.7-3.3z"  fill="#005bbb" /><path d="M101.8 55.7c2.2 2.7 16.3 17.7 9.8 20.6-3.7 1.7-6-4.4-2.2-5.6 3.9-1.3 5.5 5 1.6 5.8-8.4 1.7-14.8-26.9-9.2-20.8z"  fill="#fff500" /><path d="M112-72.4c27.6 43 65.9 76.1 71.6 129.9 0.5 4.7 3 14.8-0.3 18.9-4.3 5.5-12.5-1.8-7.6-6.8 5.7-5.8 13 5.5 5.4 8.4-10.3 3.9-6.7-18.1-6.9-21.7-1-16.9-5.3-33.4-12.4-48.7-18.6-40.4-55.3-69.8-54.2-78.9 0.3-2.4 3.1-2.7 4.4-1.1z"  fill="#fff500" /><path d="M125.3-395.7c-5.5 88.6-34.6 194.1 1.3 279 16.1 38.1 84.5 114.8 75.7 155.6-1.5 7.1-12.4 2.1-8.1-3.7 5.1-6.8 12.7 5.8 4.4 7.3-4.6 0.8-18.2-55.6-22.2-63.9-26.9-55.9-67.5-96.7-74.1-161.4-5.1-50.1 2.5-100.5 7.3-150.3 1.6-16.4-2.5-51.9 5.9-65.6 3-5 9.5-1.9 9.8 3z"  fill="#fff500" /><path d=""  fill="#fff" /><path d="M144.8-264.2c1.3 39.5 6.5 78.7 20.7 115.9 25.6 66.9 67 125.4 63.1 200.4-0.3 6.4 0.7 21.3-4.3 25.8-5.8 5.3-13.7-4.3-7.3-9 7.5-5.4 13.6 8.6 4.6 10.4-12.9 2.6-3.6-26.7-3.3-31.9 1.8-23.1-1.1-46.4-6.7-68.8-15.4-61.2-54.6-112.8-68.2-174.6-4.3-19.7-12.2-48.9-8.1-69 1.2-5.8 8.7-4.4 9.5 0.8z"  fill="#fff500" /><path d="M154-195.9c15.7 78.3 70.1 142.1 75.4 223.5 0.6 9.2 4.4 46.6-5.7 51.1-7.2 3.2-11.6-8.5-4.1-10.9 7.5-2.4 10.6 9.7 2.9 11.2-12.8 2.5-3.7-25.7-3.3-30.6 2.1-24.7-1-49.5-7.2-73.4-13.6-52.9-45.3-98.4-61-150.5-1.6-5.2-6.4-15.1-4.9-20.6 1.2-4.4 6.6-3.5 7.9 0.2z"  fill="#fff" /><path d=""  fill="#fff500" /><path d="M171.5-398.1c-5.6 75.4 0.5 157.6 23 229.8 10.9 34.9 25.2 68.6 34.5 104 4 15.2 21.3 65.6 12 79.4-4.3 6.3-12.9-2.9-6.5-6.8 6.5-3.9 10.5 8 3 8.9-4.7 0.5-17.1-83.8-20.2-95.1-36.5-131.1-60.1-157.8-56.9-305.7 0.1-4.8-1.3-13.2 1.3-17.5 3-5 9.5-2 9.8 3z"  fill="#fff" /><path d="M174.7-397.8c-8.8 102.9 13.6 198.2 45 295.1 4 12.3 24.2 79 19.5 87.2-3.5 6.1-12.2-1.7-6.4-5.8 5.7-4.1 10.3 6.7 3.4 8-6 1.1-18.3-69.9-21.2-79.5-33.4-112.9-57.5-181.1-51-302.9 0.4-7.7 10.2-11 10.7-2.1z"  fill="#fff" /><path d=""  fill="#005bbb" /><path d="M203.8-189c19.6 79.9 51.1 158.5 41.7 242.6-0.7 6.1-0.3 20.1-5.4 24.2-6.2 5.2-13.9-5-7.2-9.5 7.9-5.3 13.6 9.4 4.3 10.9-13.3 2.1-2.7-27-2.1-32.3 3.3-26 1.8-52.4-1.4-78.3-2.8-22.5-38.4-154.1-37.5-157.5 1-4.2 6.3-3.6 7.6-0.1z"  fill="#fff500" /><path d="M215.5-366.4c-17 120.3 33.2 243.7 37.5 363.8 0.4 11.4 4 81.9-11.4 82.4-9.6 0.3-6.7-15.3 2.2-11.6 10.3 4.4-3.4 18.3-7.9 8-1.9-4.3 8.8-70.5 5.6-114.7-7.6-104.9-42.5-208-38-313.8 0.2-4.9-0.9-13.5 1.9-17.8 3.4-5 10-1.6 10.1 3.7z"  fill="#c2e1ff" /><path d="M223.6-73c20.6 67.6 15.5 151.7 7.8 152.2-9.4 0.6-7-14.8 1.8-11.5 8.8 3.4 0.1 16.4-6.4 9.6-6.1-6.4 3.5-36 3.8-44.8 1.6-40.2-13.2-70.9-14.4-104.4-0.2-4.6 5.8-5 7.4-1.1z"  fill="#005bbb" /><path d="M234.1-156.8c20.2 108.4 29.6 235.8 7.6 236.6-9.6 0.3-6.7-15.3 2.1-11.6 8.8 3.7-0.4 16.7-6.8 9.6-4.6-5.1 6.7-58.7 6.3-78.1-0.6-36.2-4.2-72.5-9.5-108.3-1.5-10-12.5-41.2-7.4-49.6 2.1-3.5 6.7-2 7.7 1.4z"  fill="#fff500" /><path d="M244.8 5.8c0.7 10.4 5.1 72.5-9.4 73.2-8.1 0.4-8.1-12.4 0-11.9 8.1 0.5 6.7 13.2-1.3 11.9-10.4-1.7-1.3-23.9-0.6-29.6 1.7-12.4-2.9-34.6 2.2-45.4 2.2-4.8 8.3-2.7 9.1 1.8z"  fill="#005bbb" /><path d="M210.1-397c-24.1 89.9 7.3 192 25.6 280.1 1.9 9.3 18 80.8 7.7 81.3-7.3 0.3-5.2-11.5 1.5-8.8 5.8 2.3 1.6 11.2-3.9 8.2-8.6-4.6-9.1-55.9-11.1-66.5-14.4-79-35.7-155.6-36.6-236.5-0.2-17.8-2.6-45.5 5.6-61.8 3.3-6.6 11.9-2.5 11.2 4z"  fill="#fff500" /><path d="M265.1-21.8c-0.5 15.7-1.7 92.6-11.6 100.4-7.6 6-14.6-8.5-5.2-10.8 9.4-2.2 9.7 13.9 0.2 11.9-11.1-2.3 0.5-29.7 1.6-36.3 2.2-14 0-58.4 5.4-67.9 2.8-4.9 9.2-2.2 9.6 2.7z"  fill="#005bbb" /><path d="M275.5-62.3c-2.8 20.5-8 132.9-18.1 140.7-7.7 6-14.6-8.7-5.1-10.9 9.5-2.2 9.7 14 0.1 12-10.9-2.3 3.1-43.5 4-51.5 2.2-18.4 0.6-82.1 9-94.2 3.5-5 10.1-1.5 10.1 3.9z"  fill="#005bbb" /><path d="M285.7 16c-1.6 9.1-7.4 68.2-20.4 63.6-8-2.9-2.8-15.2 4.8-11.5 7.7 3.7 1.2 15.5-6.1 10.9-5.7-3.6 6.3-60.9 11.4-67.5 3.9-5 10.5-1 10.3 4.5z"  fill="#005bbb" /><path d="M296-30.4c-4.9 16.1-17.3 103.4-24.9 109-8 5.9-14.7-9.2-5-11.2 9.7-2 9.4 14.5-0.2 12.2-11.3-2.7 3.5-38.8 4.9-46.4 3.9-20.3 3.6-50.1 13.8-68.2 3.7-6.6 12.4-2 11.4 4.6z"  fill="#fff500" /><path d="M269-396.2c-23.7 49.9-11.4 106.7-8.6 159.5 2.9 53.9 1 108.2 0.9 162.3 0 9 4.1 68.9-5.5 68.3-8-0.5-4.3-13.3 2.7-9.5 7 3.8-1.7 13.9-6.4 7.4-4.5-6-0.8-80.9-0.7-93.9 0.1-43.1 1.2-86.3-0.4-129.4-1.6-43.2-10-87.2-4.5-130.4 1.4-10.6 3.1-34.7 11.9-42 5.7-4.8 12.3 1.5 10.6 7.7z"  fill="#005bbb" /><path d="M316.3-142.7c-19.6 35.5-31.5 73.4-37.4 113.5-2.4 16.4-8.2 100.3-17.3 107.3-7.8 5.9-14.7-8.8-5.1-11 9.6-2.1 9.6 14.2 0 12.1-9.8-2.1 5.8-61 7-71.6 4.7-43.1 11.4-125 41.2-158.3 5.8-6.5 14.4 0.8 11.6 8z"  fill="#fff" /><path d="M326.2-185.2c-35 82-46 119.2-55.3 207.9-1 9.2-2.6 57.1-14.8 57.1-8.4 0-7.7-13.2 0.6-12.3 8.3 0.9 6.2 13.9-1.9 12.2-10.8-2.3 3.9-47 4.9-55.5 10.2-82.7 17.4-135.4 53-212.5 4-8.7 16.8-7.5 13.5 3.1z"  fill="#c2e1ff" /><path d="M336.2-107.8c-34.7 38.6-45.6 85.9-54 135.7-1.3 8-5.4 56-18 51.5-8-2.8-2.9-15.2 4.8-11.5 7.6 3.7 1.2 15.4-6 10.9-8.3-5.2 6.2-43 7.8-52.2 8.5-48.2 16.2-95.5 46.1-135.9 9.6-13 29.5-14.3 19.3 1.5z"  fill="#005bbb" /><path d="M342.8-346.4c17.3 40 53 72.7 46.5 119.9-7.8 56.6-81 106.6-100.5 183.5-4.3 17.1-14.6 111.6-22.3 117.5-7.7 6-14.6-8.7-5.1-10.9 9.5-2.2 9.6 14 0.1 12-11.2-2.4 1.9-35.4 3.1-42.3 8.5-50.5 12.3-100.7 37.5-146.6 20.4-37.1 57.4-65.4 72.6-105.1 24.7-64.6-38.7-98.9-37.8-126.7 0.1-3.4 4.3-3.8 5.9-1.3z"  fill="#c2e1ff" /><path d="M355.9-219.3c-12.9 59.4-61.7 98.3-75.7 185.7-2.1 13.1-9.9 117.5-24 112.8-6.8-2.3-4.5-12.8 2.6-12 8.4 0.9 6.2 14-2 12.2-11.2-2.5 2.5-37.5 3.7-45 18.1-114.3 15.2-125.3 71.6-229.7 4.9-9.1 7.5-19.9 12.6-28.8 3.7-6.5 12.3-1.8 11.2 4.8z"  fill="#fff" /><path d="M331.7-398.3c-5.3 52.7 35.6 86.7 49.1 133.8 17 59.3-31 99.6-60.3 144.2-5.5 8.4-22.6 54.4-31.2 53.9-11.9-0.7-3.1-19.4 5-10.8 7 7.4-7.5 16-10.7 6.4-9.6-29 79.2-121.7 88.3-157.1 13.2-51.4-31.3-89.2-45.3-134.6-11.8-38.1 3.9-49.1 5.1-35.8z"  fill="#005bbb" /><path d="M373.8-268.9c23.9 72.5-63.7 138.5-84 211.4-9.9 35.4-11.5 72-18 108-1.1 6.2-2.4 32.7-13.5 28.9-8-2.7-3-15.1 4.6-11.5 8.9 4.2-1 17.1-7.4 9.6-6.1-7.2 7-40.6 8.5-50.2 16.1-107.5 21.8-126.4 82.9-216.7 9.2-13.5 17.1-28.1 20.2-44.4 2.1-11.3-3.3-24.9-0.9-35.1 1-4.2 6.2-3.5 7.6 0z"  fill="#005bbb" /><path d="M395.6-400.1c27.3 45.2 85.6 57.2 108.7 107.6 31.9 69.7 8.7 164-30.2 226.1-5.2 8.4-11.6 22.4-19.7 28.2-9.9 7.1-17.9-11.5-5.9-13.9 10.3-1.9 12.5 14.4 2 15.3-26.3 2.1 23-57.1 26.5-63.7 23.9-45.7 35.2-101 29.6-152.4-8.7-80.2-61.1-86.5-107.6-135.9-2.5-2.7-9-17.5-3.4-11.3z"  fill="#fff500" /><path d="M396.2-17.8c-14.8 16.4-26.5 34.9-34.3 55.6-3.4 9.2-5.3 33.9-12.9 40.1-7.4 6-14.6-8.2-5.2-10.6 10.9-2.7 8.3 16.6-1.5 11.1-18.1-10.2 30.3-98.7 43-107.9 8-5.8 15.7 4.4 10.9 11.7z"  fill="#fff500" /><path d="M401.6-396.3c23.9 32.9 65.8 46.2 90.7 78.5 50.2 65.1 29.4 173.7-4.9 241.2-5.3 10.5-47.4 78.8-51.6 79.2-13.3 1.1-6.6-21.1 3.8-12.7 10.4 8.3-9.7 19.8-11.5 6.6-1.4-9.7 41.4-69.4 48.3-82.5 23.1-43.6 34.3-93.5 34.1-142.8-0.1-33.9-6.9-68.4-28.7-95.4-20.9-25.8-51.7-39.2-75.6-61.5-2-1.9-10.2-15.8-4.6-10.6z"  fill="#fff500" /><path d="M416.1-22.8c-17.7 20.1-32.5 42-40.7 67.7-1.9 6-4.9 40.2-16.1 33.1-6.6-4.2 0.6-14.3 6.7-9.4 5.3 4.2-0.1 12.7-6.2 9.7-9-4.4 2.4-32.8 4.4-39.7 6.8-23.3 20.6-58.3 41.1-73.1 8-5.8 15.7 4.4 10.8 11.7z"  fill="#c2e1ff" /><path d="M425.3-399.8c27.4 28.3 64.8 43.3 86.4 77.7 39.1 62 30.2 179.6 17.5 249.4-2.5 13.9-12 79.8-26.5 83.9-11.3 3.3-9.3-17.2 1.2-11.7 10.5 5.4-5 18.9-8.9 7.7-2.4-6.8 20.7-71.4 23.2-84.1 11.1-55.4 13.1-115.1 7.7-171.3-3.3-35.4-12.8-70.2-37.4-96.9-18.5-20-42.6-33.1-63.2-50.7-1.6-1.4-3.3-6.4 0-4z"  fill="#fff500" /><path d="M435.9-124c-38.1 40.1-91.3 61-115.9 113.6-10.9 23.5-16.1 49-23.1 73.8-1.4 4.8-4.5 22-13.5 14.7-6.7-5.5 2.6-15.5 8.6-9.4 5.1 5.3-1.9 13.8-8 9.8-8.1-5.3 4-28.8 5.9-35.9 20.9-78.1 43.8-108.5 107.9-156.7 8.5-6.4 19.7-20.9 29.8-23.9 8.9-2.7 13.3 7.8 8.3 14z"  fill="#fff500" /><path d="M440.7-332.9c74.5 55.7 68.2 156.5 11.6 223.9-26.8 31.9-64.2 52.2-91.7 83.3-14.2 16-24.3 34.6-31.6 54.6-1.8 5-5.7 29.4-15.9 21.3-6.6-5.3 2.3-15.3 8.3-9.3 6 6-3.9 15-9.3 8.3-4.8-5.9 3.4-20.5 5.4-26.4 29.7-87.4 117.4-109.7 153.3-188.6 16.7-36.7 22.6-82.1 5.7-119.8-5.1-11.3-46.4-53.8-35.8-47.3z"  fill="#fff500" /><path d="M456.2-184c-29 69.1-111.7 89.6-143.1 157.2-7.2 15.6-24.9 100.8-31.4 105.5-8.2 5.8-14.7-9.5-4.9-11.4 11.6-2.2 7.6 17.9-2.2 11.5-8.4-5.4 5.7-36.7 7.6-45 35.6-153.3 63.2-105.9 142.3-195.7 7.3-8.3 12.9-24.4 21.4-30.7 6.1-4.5 12.4 2.4 10.3 8.6z"  fill="#fff" /><path d="M466.2-178.1c-28.8 70-109.9 90-144.6 154.7-8.3 15.4-27.6 97.8-33.9 102.2-9.7 6.8-14.4-13.2-2.7-11.4 10 1.5 4 17.1-4.4 11.5-8.3-5.4 5-32.7 7-40.4 37.6-147 66.8-102.1 144.6-190.3 8.2-9.4 14.3-27.5 23.7-34.7 6-4.5 12.4 2.2 10.3 8.4z"  fill="#c2e1ff" /><path d="M476.2-134.3c-29.7 55.7-90.6 81.4-123.5 133.7-17.4 27.6-28.2 88.3-39.6 79.1-5.7-4.6 0.2-13.8 6.8-10.5 7.7 3.8 1 15.6-6.2 10.9-7.5-4.8 1.8-21.6 3.6-27.6 33.8-113.3 92.9-107.9 145-190.7 5.4-8.5 18.6-5.7 13.9 5.1z"  fill="#005bbb" /><path d="M484.1-256.7c30.9 127.9-99.2 161.2-147.9 233.9-11.1 16.5-32.5 97.1-39.1 101.7-8.3 5.8-14.7-9.8-4.7-11.5 11.7-2 7.4 18.1-2.4 11.6-7.9-5.2 3.3-25.9 5.2-32.7 42-148.4 79.4-102 150-193.3 14.8-19.1 25.2-41.6 29.6-65.4 2.6-13.6-2.8-32.7 1.2-44.9 1.4-4.4 7-3.3 8.1 0.6z"  fill="#c2e1ff" /><path d="M496 26.6c-2.8 9.3-4.8 47.1-11.9 51.3-7.2 4.2-11.5-8.9-3.2-9.7 8.3-0.8 6.7 12.9-1.2 10.2-9.1-3.2-0.6-58.5 9.7-59.5 4.6-0.4 7.1 3.7 6.6 7.7z"  fill="#c2e1ff" /><path d="M506-136.1c-16.8 59.1-59.4 99.6-86 153.1-10.1 20.3-14.3 65.1-23.2 61-6.4-3.1-1-13 5.1-9.2 5.2 3.2 1.3 11.5-4.5 9.4-15.7-5.5 10.2-67.6 14.9-77.1 16.1-31.6 40.3-58.1 58.2-88.6 9.9-16.9 14.2-37.4 24.1-53.8 4-6.6 12.6-1.6 11.4 5.2z"  fill="#c2e1ff" /><path d="M512.1-333.3c42.5 59 40.4 220.6 28 291.5-6.9 39.4-21.6 76.8-29.7 115.9-2.2 10.4-16.8 1-9-5.2 8.2-6.4 13.3 10.9 3 9.9-12.5-1.1 2-42.1 3.9-49.2 14.6-52.2 27-100.5 27.7-155.2 0.6-56.4 3.2-119.9-14.2-174.2-3.5-11.1-17.1-42.5-9.7-33.5z"  fill="#c2e1ff" /><path d=""  fill="#c2e1ff" /><path d="M534.3-262.6c18.6 109-3.1 194.8-31.2 298-2 7.4-4.6 44.8-13.7 43.4-8.4-1.2-3.4-14.5 3.7-9.8 7.1 4.7-3 14.6-7.5 7.4-8-12.7 32.6-133.1 36.6-156.7 7.8-46.5 8.7-94.7 6.7-141.7-0.5-12.9-4.5-27.8-3.2-40.4 0.5-5.3 7.4-4.8 8.6-0.2z"  fill="#c2e1ff" /><path d="M545.1-113.9c-1.6 86.5-35 194.3-42.6 192.8-8.7-1.7-2.8-15.2 4.3-9.9 7.2 5.2-3.8 15-8.1 7.2-8.8-15.8 13.1-63.2 18-79.5 6-19.7 18.4-112.3 18.8-113.2 2.8-4.9 9.1-2.2 9.6 2.6z"  fill="#005bbb" /><path d="M554.5-222.5c10.5 96.4 32.2 178.1-0.6 272.9-2.3 6.5-5.2 29.1-14.1 29-9.8-0.1-6.2-16 2.7-11.8 10.4 4.9-4.2 18.6-8.4 7.8-3.2-8.3 27.5-93 29.1-112.4 2.9-35.2-23.2-172.1-17.4-186.7 1.8-4.7 7.7-3 8.7 1.2z"  fill="#fff500" /><path d=""  fill="#fff" /><path d="M575.9 9.6c-2.4 9.9-18.3 74-29.9 69.6-8-3-2.6-15.4 5.1-11.5 7.6 3.9 0.9 15.6-6.3 10.9-7.8-5.1 14.7-68.2 20.7-74.8 4.6-4.9 11.2 0 10.4 5.8z"  fill="#fff" /><path d=""  fill="#fff500" /><path d=""  fill="#005bbb" /><path d=""  fill="#c2e1ff" /><path d=""  fill="#c2e1ff" /><path d=""  fill="#c2e1ff" /><path d=""  fill="#fff" /><path d=""  fill="#005bbb" /><path d=""  fill="#fff500" /><path d=""  fill="#005bbb" /><path d=""  fill="#fff" /><path d=""  fill="#fff500" /><path d=""  fill="#005bbb" /></svg>