<svg width="1200" height="675" viewBox="-500 -500 1200 675" xmlns="http://www.w3.org/2000/svg"><path d="M-500-500h1200v675h-1200z" fill="#000"/><path d="M-397.8-85.5c26.9 26.2 115.2 74.8 121.3 111.3 0.5 3.2-4.9 2.9-4.1-0.2 0.9-3.2 5.7-0.6 3.6 1.8-3.3 4-7.7-8.3-8.4-9.5-8-13.5-18.3-25.4-29.8-36-24.8-23-54.7-39.6-80-62.1-0.1-0.1-6.2-7.8-2.6-5.3z"  fill="#fff500" /><path d="M-397.5-89.1c10.8 11 135.8 101.6 121.6 115.1-2.4 2.2-5.2-2.4-2.1-3.5 3.6-1.2 3.3 5.4-0.2 3.8-2.3-1.1-28-38.8-34.8-45.2-25.5-24-56.4-41.2-82.1-64.9-0.2-0.2-6.1-8.1-2.4-5.3z"  fill="#fff500" /><path d="M-397.6-96.7c20.6 22.8 140 108.5 132.2 135.5-1.1 3.7-6.7 0.7-4.2-2.2 2.1-2.5 5.9 1.1 3.5 3.3-4.6 4.3-8.9-13.1-10-15.4-7.3-15.1-17.4-28.6-29.1-40.6-27.4-28.2-62.6-47.2-90.3-75-0.3-0.3-5.9-8.8-2.1-5.6z"  fill="#005bbb" /><path d="M-397.1 36.3c5.1 6.8 23.1 29.2 20.2 38-1.2 3.8-7 0.4-4.2-2.5 2.7-2.9 6.5 2.5 2.8 4-4.9 2-7.5-12.7-8.8-15.5-3.6-7.9-15.8-30.5-10-24z"  fill="#fff" /><path d=""  fill="#fff" /><path d="M-397.2 32.7c5.8 7.4 26.4 31.9 23.1 41.8-1.2 3.8-7 0.4-4.2-2.5 2.7-2.9 6.5 2.5 2.8 4-4.7 1.9-9.2-16.7-10.8-19.7-1.3-2.7-15-27.9-10.9-23.6z"  fill="#c2e1ff" /><path d=""  fill="#fff500" /><path d=""  fill="#005bbb" /><path d=""  fill="#c2e1ff" /><path d=""  fill="#005bbb" /><path d="M-397.1-121.5c38.1 60.6 112.9 87.5 138.8 157.4 2.3 6.2 13.7 34.8 8 39.8-4.4 3.9-7.8-5.7-2-5.5 5.8 0.2 1.7 9.5-2.3 5.3-4.2-4.2-11.8-54.8-29.9-79.9-30.6-42.3-79.4-66.5-110.7-108.3-1-1.3-6.2-13.8-1.9-8.8z"  fill="#fff" /><path d="M-396.6-136c32.5 68.5 112.9 96.8 140 169.1 2.4 6.5 14.6 37.2 8.6 42.5-4.4 3.9-7.8-5.8-1.9-5.6 5.9 0.3 1.7 9.6-2.5 5.4-5.1-5.3-9.4-50.9-26.6-77.1-28.8-43.7-77.4-68.7-108-110.8-4.4-6.1-11.8-14.6-13.5-22.1-0.6-2.5 2.6-3.3 3.9-1.4z"  fill="#005bbb" /><path d="M-396.6 60.1c1.3 2.8 9 14.3 3.6 15.9-3.3 0.9-4.5-4.4-1.1-4.9 3.4-0.6 4 4.8 0.6 5-8.7 0.5-7.1-22.8-3.1-16z"  fill="#c2e1ff" /><path d="M-396.9-133.7c31.3 62.6 103 90.1 133.9 153 3 6.1 17.7 35.1 12.3 40.6-2.8 2.8-7-1.8-4-4.3 3.1-2.5 6.8 2.5 3.5 4.7-6 3.9-7.5-15.5-8.2-17.9-5.4-19.3-14.6-37.3-26.7-53.3-28.9-37.8-72-61.5-100.6-99.5-4.5-6-12-14.4-14-21.8-0.6-2.4 2.5-3.3 3.8-1.5z"  fill="#005bbb" /><path d="M-397.1-124.8c37.1 62.7 113.7 89.9 139.6 161 2.3 6.2 13.6 34.9 7.8 39.9-4.4 3.9-7.8-5.8-1.9-5.6 5.9 0.2 1.7 9.6-2.4 5.4-3.1-3.2-12.7-56.6-29.5-80.1-28.3-39.8-72.9-63.4-103.8-100.9-4.7-5.7-14.5-25.4-9.8-19.7z"  fill="#fff500" /><path d=""  fill="#005bbb" /><path d="M-383.3-333.8c-20.8 40.9-11.2 44.1-12.9 117.4-1 42.5-5.2 72.3 18.5 106 28.3 40.3 138.3 116 129.9 171.9-0.7 4.7-8.1 1.9-5.5-2.1 3.1-4.7 8.6 3.3 3.2 4.6-0.4 0.1-21.7-56.7-26-63.7-31.8-50.9-107-81.8-123.4-141.9-6.7-24.4-3.1-170.7-3.2-173.3-0.1-16.5 26.1-38 19.4-18.9z"  fill="#fff" /><path d=""  fill="#fff500" /><path d=""  fill="#005bbb" /><path d="M-366.3-49.5c22.8 15.9 46.4 31.1 65.1 51.9 8 8.9 46.4 61.5 34 73.5-3.4 3.3-7.6-3.4-3-5 5.3-1.8 4.9 7.9-0.3 5.6-4.3-1.9-4.9-18.3-6.3-22.8-4.4-14.9-11.3-29-20.4-41.6-17.3-23.9-41.4-40.9-65.3-57.5-1.5-1.1-5.5-5-3.8-4.1z"  fill="#c2e1ff" /><path d="M-385.3-395.7c-32 53.1-9.1 12.4-11.4 161-0.2 14.9-6.2 89.8 1.6 113.2 7.2 21.8 35.1 42.4 51.9 56.6 0.9 0.8 10.1 6.8 6.7 7.5-1.6 0.3 1.4 0.1-0.1 0-7.9-0.3-26.2-21.9-32.1-27.5-48.3-46.1-30.8-76-31.6-149.8-0.6-51-2.3-102-2.4-152.9 0-13.3 23-20.2 17.4-8.1z"  fill="#fff" /><path d="M-368.6-396c-36.6 74.5-25.8 25.3-27.9 169.3-0.3 22-6.4 69.8 1.4 95.1 9.4 31 45.3 57.1 68.7 77.1 1.2 1 14.6 11.3 11.1 11.8-0.1 0-0.5 0-0.5-0.1-10.6-4.5-22.4-19.3-31.2-27-63.9-55.7-52.4-62.8-53.6-157-0.5-42.7-2-85.4-2.3-128 0-7.1 21.1-43.2 27-47.4 4.4-3.1 8.8 1.8 7.3 6.2z"  fill="#005bbb" /><path d="M-366.4-396.2c-36.2 75.8-27.3 30.1-29.9 170.8-0.4 21.5-6.1 67.9 1.4 92.8 8.2 27 37.6 51 58 68.6 1.1 0.9 13.9 10.7 10.6 11.2-1.7 0.3 1.5 0.1-0.2 0-7.7-0.5-25.1-21.4-30.9-26.8-52.8-49.2-42.4-66.6-43.1-145.8-0.4-42.1-1.6-84.1-1.5-126.1 0-7.6 22.1-46.3 28.4-50.8 4.4-3.2 8.8 1.7 7.2 6.1z"  fill="#fff" /><path d="M-334.2-284.2c-32.9 52-62.7 107-29.4 167.4 33.5 60.7 99.8 91.2 117.6 162.6 1.9 7.7 6.5 20.7 4.7 28.5-1.1 5-8.8 1.3-5.7-2.7 3.7-4.7 9 4.3 3.1 5.2-6.4 1-6.1-22.3-6.9-26.5-4.3-21.9-12.7-42.6-25.2-61.2-38.3-57.3-109.7-92.2-109.8-169.5-0.1-40.2 20.2-77.3 42.8-109.4 4-5.6 11.6-0.3 8.8 5.6z"  fill="#c2e1ff" /><path d="M-328.6-134.5c7.3 60.5 76.4 105.9 91.6 172.9 1.4 6.2 9.2 33.5 3.8 37.8-3.6 2.8-7.6-3.1-3.8-5.4 3.8-2.4 7.2 3.9 3.1 5.8-7.2 3.4-5.6-15.1-5.9-17.9-2-18.8-6.3-37.3-13.6-54.7-16.8-40.1-49.9-69-70-106.9-5.1-9.6-9.1-19.8-11.2-30.6-0.8-3.9 4.8-4.7 6-1z"  fill="#c2e1ff" /><path d="M-320.2-270.8c-33.2 46.2-65.9 94.1-37.4 151.9 30.7 62.3 97 93.6 113.7 165.4 1.8 7.5 6.1 20.2 4.3 27.9-1.2 5-8.9 1.3-5.7-2.8 3.7-4.7 9 4.3 3 5.2-6.4 0.9-5.9-21.8-6.6-25.8-4-21.9-12.1-42.8-24.1-61.6-35.4-55.3-106-92.2-102.9-166.2 1.6-38 23.9-71.6 47-100.4 4.5-5.6 12.1 0.4 8.7 6.4z"  fill="#fff500" /><path d="M-318.1-397.2c-22.7 84.1-98.1 166.4-64.5 257.6 18.1 49.1 63.3 76.9 96.2 114.9 1.5 1.8 7.9 7.1 7.1 9.7-0.2 0.6-0.8 1-1.4 1-4.5 0.3-23.6-26.4-27.9-30.6-47.2-46.5-93.5-87.8-89.2-160.1 4-67.8 50.3-122.5 68.9-186.3 1.4-4.7 12.7-18.9 10.8-6.2z"  fill="#c2e1ff" /><path d="M-309.5 11.1c5.6 6.3 42.1 58.5 30.1 64.7-4.1 2.1-6.1-5.3-1.4-5.5 4.6-0.2 3.3 7.4-1 5.6-4.3-1.8-5.8-19.1-7.5-23.7-5.1-14.4-31.3-51.6-20.2-41.1z"  fill="#005bbb" /><path d="M-306.8-397.5c-22.5 91.7-97.6 167.9-74.5 250.4 12.9 46.1 50.8 74.7 82.8 107.4 1.2 1.2 16.1 15.6 11.2 15.6-6.8 0 6.7-3 0.6-0.1-2.6 1.2-13.7-14-15.9-16.2-44.4-46.1-94.3-85.5-90.2-156.3 3.3-57.7 41.9-101.2 62.4-152.9 6.3-15.8 7.9-36.1 15.7-50.9 2.4-4.6 8.4-1.6 7.9 3z"  fill="#005bbb" /><path d="M-323.6-396.9c-21.8 76.5-81.4 146-68.1 229.3 4.4 27.8 17.2 52.8 35.4 74.1 4 4.7 19.8 16.4 20.7 21.9 0.1 0.6-0.6 1.3-1.2 1.2-4.3-0.5-13.3-12.6-16.4-15.8-38-39.8-53.9-90.2-44.6-144.7 10-58.2 47.3-107.1 64.3-163.2 1.7-5.7 11.6-12.9 9.9-2.8z"  fill="#fff" /><path d="M-287.9-77c27.3 44.8 54.4 83.7 59.6 137.6 0.4 3.8 3.8 14.4-1.4 16.1-5.1 1.7-6-7.2-0.7-6.5 6.2 0.7 1.1 10.3-2.9 5.5-2.5-3-7.9-56.1-11.5-66.7-10.2-31-29.3-56.5-46.2-84-1.3-2.1 1.7-3.7 3.1-2z"  fill="#c2e1ff" /><path d=""  fill="#005bbb" /><path d="M-271.1-278.3c-29.5 50-91.7 91.5-68 157.2 23.7 66 87.4 93.9 101.3 173.1 0.9 5 5 18.4 2.2 22.9-2.8 4.4-8.9-1.8-4.5-4.5 4.4-2.8 7.4 5.3 2.2 6-6.7 0.9-5.4-21-6.2-25.4-3.3-20.9-9.9-41.1-20.2-59.6-28.8-52.1-95.1-93.3-86.5-159.9 4.3-33.3 47.7-92.8 71.8-116.2 4.5-4.4 10.4 1.4 7.9 6.4z"  fill="#fff" /><path d="M-264.9-129c-2.7 56 41.3 111.4 47 169.8 0.5 5.6 5.4 34-1 35.8-6.3 1.8-5.1-9.5 0.6-6.4 4.9 2.6-1 9.6-4.4 5.2-2.3-3-3.5-52-5.1-61.1-7.4-40.4-29.6-75.1-40-114.4-2.2-8.3-6.2-21.1-4.1-29.7 1-4.2 6.5-3 7 0.8z"  fill="#c2e1ff" /><path d="M-286.8-397.2c-6 27.5-12.1 54.9-24.3 80.4-23.3 48.7-67.2 89-65.8 146.8 0.7 29.4 13.5 56 31.9 78.3 4.1 5 20.3 17.4 21.1 23.3 0.1 0.6-0.7 1.4-1.3 1.3-10.9-1.5-30.7-32.9-36.5-41.7-64.2-96.1 33.7-167.6 58.5-255.5 2.6-9.4 3-29.2 9.2-36.5 2.9-3.5 7.6-0.4 7.2 3.6z"  fill="#fff500" /><path d=""  fill="#fff500" /><path d="M-244.4 57.5c0.7 3.5 5.8 18.8-0.8 19.1-4.4 0.2-4.3-6.7 0.1-6.4 4.4 0.3 3.6 7.1-0.7 6.4-10.8-1.8-1.5-29.2 1.4-19.1z"  fill="#005bbb" /><path d=""  fill="#fff500" /><path d=""  fill="#005bbb" /><path d="M-222.4-359.4c-5.3 37.5-13.2 73.4-33.1 106.1-24.1 39.8-69.9 75.7-61 127.3 6.5 37.6 99.4 150.3 84.1 177.7-2.4 4.3-8.5-1.1-4.5-4 4.6-3.4 7.1 6.3 1.4 5.6-3.6-0.5-15.7-53.3-19-60.6-22.5-48.6-77.3-91.3-69.4-149.7 7.1-52.6 58.5-88.5 77.7-136.8 8.6-21.6 7.8-46.8 16.2-67.7 1.8-4.5 7.7-2.2 7.6 2.1z"  fill="#c2e1ff" /><path d="M-226-397.9c-9.1 43.5-11.6 87.1-34.1 126.7-23.5 41.3-73.4 76-72.3 127.6 0.9 40.3 31.4 70.7 54.3 100.8 1 1.3 13.5 15.8 7.4 15.2-8.3-0.9 8.6-2.8 0.8-0.1-3.2 1.1-26-32.9-29.4-37.1-96.2-121.7 13.4-144.5 48.5-251 8.6-26.2 5.7-60.2 17-84.6 2.1-4.6 8.1-1.9 7.8 2.5z"  fill="#fff" /><path d="M-209.4-38.6c3.6 16.8 15.2 103.5 5.8 114.5-3.8 4.4-9.6-3.3-4.3-5.7 5.3-2.4 7.4 7 1.5 7-6.8 0-2-45.8-2-52.7-0.3-21-7.6-83-1-63.1z"  fill="#fff" /><path d="M-202.3-55.5c3.5 19.7 14.8 118.6 3.4 131.4-4 4.4-9.7-3.6-4.2-5.9 5.5-2.4 7.3 7.3 1.4 7.1-6.9-0.2-0.4-52-0.3-59.5 0.4-23.9-7.9-49.6-6.2-72.8 0.3-3.6 5-3.4 5.9-0.3z"  fill="#c2e1ff" /><path d="M-194.9-121.2c3.4 60.8 13.2 116.3 5.8 177.5-0.6 4.7 0.3 16-3 19.5-4.2 4.4-9.9-4-4.2-6.2 5.7-2.2 7.3 7.7 1.2 7.4-6-0.3 3.7-75.8 3.8-85.7 0.7-37.9-8.3-74.5-10.2-112.1-0.2-4.4 5.8-4.6 6.6-0.4z"  fill="#fff500" /><path d="M-188.1-107.4c6.1 56.5 9.5 107.6 1.8 164.3-0.6 4.7 0 15.9-3.4 19.4-4.3 4.4-9.9-4.1-4.1-6.3 5.7-2.2 7.3 7.9 1.1 7.5-6.6-0.5 5.2-75.2 5.6-85 1.6-33.6-4.3-65.9-7.3-99.1-0.4-4.2 5.4-4.6 6.3-0.8z"  fill="#c2e1ff" /><path d="M-180.4-206.7c-8.4 89.7 15.9 161.3 0.2 254.5-1.4 8-1 20.4-4.7 27.6-3.3 6.5-11.7-3-4.8-5.5 5.9-2.1 7.2 8.2 1 7.6-5.5-0.5 9.3-93.2 9.6-104.8 1.6-53.1-12.8-104.9-10.3-158.2 0.3-7.3 0.6-14.6 1.4-21.8 0.6-5 7.4-4.1 7.6 0.6z"  fill="#fff500" /><path d="M-173.4-235.7c-11.5 136.6 25.1 152.3-7 309.9-1.5 7.4-12.1 0.5-6.3-3.8 5.9-4.5 9.4 8 2 7.2-5.2-0.6 13.3-100.6 13.7-113.2 2.3-65.7-15.6-127.8-10.4-195.2 0.4-5.1 7.6-14.2 8-4.9z"  fill="#c2e1ff" /><path d="M-167.1-97.4c7.8 51.1 3 97-7.5 147.2-1.3 6.1-1.5 22.3-6 26.4-4.6 4.4-10-4.7-3.9-6.7 6-2 7.1 8.5 0.7 7.8-7.6-0.9 11-78.5 12.4-88.5 4-29.6-4.5-58.6-1.8-86.1 0.4-3.7 5.2-3.4 6.1-0.1z"  fill="#fff500" /><path d="M-159.5-274.8c-7.4 154.3 48.7 173.2 1 322-1.8 5.6-5.3 30.4-11.8 30.7-6.7 0.2-4.7-10.6 1.4-8.1 7.2 3-2.3 12.7-5.4 5.6-3.5-7.9 29.6-102.5 30.6-124.4 2.6-57.2-22.8-112.3-24.1-169.8-0.4-17-3.6-40.9 1.1-57.2 1.3-4.3 6.8-2.8 7.2 1.2z"  fill="#fff500" /><path d="M-151.9 33.5c-2.2 6.4-11.1 46-18.2 43.8-5.5-1.7-2.4-10.2 2.9-7.9 5.3 2.3 1.3 10.4-3.7 7.6-6.2-3.5 7-43.8 11.7-48.3 3.6-3.4 8.3 0.5 7.3 4.8z"  fill="#fff" /><path d="M-146.3-173.6c21.4 104.2 43.5 111.7-0.2 219.1-2.3 5.7-8.2 32.5-14.7 32.4-8.1-0.1-2.7-13.1 3.1-7.5 5 4.8-4.6 11.1-7.1 4.7-3.5-9.1 36.1-96.8 38.5-118.7 5.6-51.1-26.2-92.2-25.3-129.5 0.1-3.5 4.6-3.5 5.7-0.5z"  fill="#fff" /><path d="M-139.4-177.7c25.7 108.4 52.7 111.6 0.8 223.7-2.6 5.6-9.5 32.1-16.2 31.7-8.3-0.4-2.3-13.5 3.4-7.5 4.9 5.1-5.1 11.2-7.4 4.5-3.4-9.9 41.4-96.2 44.1-120.1 5.1-46.3-19.6-87.3-30.1-130.9-0.9-3.6 4.1-4.6 5.4-1.4z"  fill="#fff" /><path d="M-130.7 70.9c-1.5 3.2-6.9 11.9-10.5 4.5-2.4-4.9 4.5-9.3 7.9-5 3.4 4.3-2.4 10-6.7 6.6-10.2-8.3 13.3-19.3 9.3-6.1z"  fill="#fff500" /><path d=""  fill="#fff500" /><path d="M-117.6-270.1c1.8 92.2 62.4 137.3 68.8 208 4.6 50.4-30.9 84.4-57.2 122.8-2.6 3.8-10.7 23.7-17.5 15.7-3.7-4.4 2.2-10.7 6.9-7.1 3.9 3 1.3 9.4-3.6 8.9-12.1-1.4 6.2-24.5 8.5-28 22.7-33.3 54.9-62.9 56.2-106 1.8-56.2-44.2-103.3-59.5-155.4-4.9-16.5-12.9-42.2-9.4-59.5 0.8-4.1 6.2-3.1 6.8 0.6z"  fill="#fff" /><path d="M-111.8-178.9c14.4 38.4 40.7 74 44.8 115.7 4.5 45.3-23 79.2-46.2 114.9-4.8 7.4-8.6 18.9-14.5 25.2-1.5 1.5-3.9 1.9-5.8 0.9-4.9-2.6-1.8-10.4 3.6-8.9 5.4 1.5 4 9.7-1.6 9.5-10.4-0.6 0.8-17.1 2.6-20.4 19.3-35.6 51.3-66 55-108.4 3.8-44.2-24-82.6-40.3-121.6-1-2.5-1.1-13.2 2.4-6.9z"  fill="#fff" /><path d="M-117.3-396.6c-31.5 64.8-32.9 152.7-12.8 221 14.3 48.7 44.8 94.9 33.7 147.6-1.4 6.7-12.7 50.5-23 44.5-5-2.9-1.4-10.8 4.1-9 5.5 1.8 3.7 10.2-2.1 9.6-11.1-1.1 3.5-22 5.3-26.1 8.3-19.2 12.6-39.6 10.7-60.5-7.1-76-49.9-105.2-47.2-216.3 0.8-31.9 4-64 14.3-94.3 11.7-34.2 20-26.1 17-16.5z"  fill="#005bbb" /><path d=""  fill="#fff500" /><path d="M-139.2-396.6c-26.4 69.4-27.8 178.4-11.8 250.5 2 9.2 23.5 90.8 13.5 90.6-4-0.1-4.5-6-0.6-6.8 4.6-0.9 5.6 6.4 1 6.8-5.7 0.5-6.8-35.1-8-40.8-19-96.5-30.9-162.2-13.4-262 7.5-42.6 22.7-53.6 19.3-38.3z"  fill="#005bbb" /><path d=""  fill="#c2e1ff" /><path d=""  fill="#c2e1ff" /><path d="M-67.7 51.9c-4.6 4.9-21.4 31.3-28.4 25.8-5.7-4.4 1.7-13 6.9-8 5.2 5-3.1 12.8-7.8 7.3-5.4-6.5 16.7-32.1 23.1-34.4 6-2.1 9.4 4.8 6.2 9.3z"  fill="#c2e1ff" /><path d="M-60.5-394c-42.7 61.5-50.2 138.3-18 206.4 19.1 40.4 52.3 76.3 58.1 121.9 3.4 26.9-4.6 52.8-19.7 75-3.6 5.3-13.1 23.6-20.9 19.9-6-2.8-2.7-12.1 3.7-10.6 6.4 1.5 5.3 11.3-1.4 11.1-15.8-0.1 10.7-27.8 13.2-31.3 12.2-18 19.7-38.8 18.8-60.8-2.9-72.1-77.3-123.3-79-216-0.6-32.3 5.8-64.4 20-93.5 15.1-30.7 32.5-36.6 25.2-22.1z"  fill="#fff" /><path d="M-54-314.4c-15.3 84.4 43 133.5 74.4 203.8 32.4 72.7-2.2 125.5-53.9 175.5-3.7 3.5-16.5 21.7-21.8 11.3-9.6-19.1 26.3 3.7 5 3.1-17.8-0.4 24.2-37.9 28-41.6 26.1-25.2 47.9-54.8 49.1-92.4 2.3-72.1-62.2-120-82.6-184.6-7.7-24.3-10.2-51.1-6-76.3 0.9-5.2 8-3.8 7.8 1.2z"  fill="#005bbb" /><path d="M-47.9-266.5c7.1 54.2 44.7 92.5 69.4 138.9 42.4 79.6 16.8 134.7-43.6 192.7-3.7 3.5-16.8 21.7-21.9 11.1-9.3-19.5 26.5 4.1 4.9 3.3-17.5-0.7 26.7-40.1 30.9-44.4 25.6-25.8 44.7-57.3 44-94.8-1.2-67.5-56.5-112.4-80-171.4-3.9-9.8-10.6-24.4-9.7-35.1 0.3-3.7 5.1-3.4 6-0.3z"  fill="#fff500" /><path d="M-42.3-139c45.1 72.7 40.6 120.9-17.9 182.6-5.9 6.2-25.1 35.2-32.9 35.1-7.2-0.1-6.5-11.4 0.6-10.6 7.2 0.8 5.2 12.1-1.8 10.4-11.8-2.7 5.5-20.3 8.3-23.6 23.6-28.6 55.2-52.6 65.2-90.1 9.1-34.5-4.4-67.8-21.8-97.1-0.6-1.1-3.7-11.7 0.3-6.7z"  fill="#fff500" /><path d="M-32.9-327.3c-20.9 104.2 77.1 163.2 90.8 258.9 5.9 41.8-9.2 80.6-36.2 112.3-5.5 6.4-30.6 39.3-39 34.9-5.9-3.1-2.3-12.4 4.2-10.7 6.5 1.8 4.9 11.7-1.8 11.3-16.9-0.8 24.7-39.2 28.5-43.5 23.5-26.4 39.6-58.3 38.6-94.3-2-76.4-66.6-124.9-88-193.9-7.5-24.4-9.7-51.2-5-76.4 1-5.3 8.2-3.7 7.9 1.4z"  fill="#fff500" /><path d="M-74.1-395.7c-42.6 63.3-47.3 145-15.7 214.1 5.6 12.3 75.3 132.9 50 137.9-5.9 1.2-5.7-8.8 0.2-7.4 5.8 1.4 1.4 10.4-3.3 6.7-4.3-3.4-1.1-23.9-2-29.8-14.6-90.4-90.1-114.5-69.5-246.1 3.9-24.9 13.1-64.1 32.3-82.1 4.7-4.4 10.5 1.6 8 6.7z"  fill="#c2e1ff" /><path d="M-18.4 3.9c-6.2 10.1-62.6 80.1-70.6 73.5-5.7-4.7 2.1-13.2 7.3-8 5.1 5.2-3.6 12.9-8.1 7.2-6-7.7 16.6-27.1 21.5-32.3 9.7-10.1 33.2-42.5 43-47.9 5.1-2.8 9.1 3 6.9 7.5z"  fill="#005bbb" /><path d="M-11.5-364.6c-45.5 123.9 69.2 185.5 87.6 296.8 5.8 35-1.7 69.5-19.6 99.9-3.5 6-16.2 31.8-24.8 28.2-5.9-2.5-3.2-11.7 3.1-10.5 6.3 1.2 5.6 10.7-0.8 11-15.4 0.5 13-33 15.7-37.4 15.4-25.6 23.5-54.5 20.9-84.4-7.1-83.8-80.3-137.3-96.8-216.5-5.7-27.1-4-55.3 3.6-81.9 1.8-6.2 13.5-16.9 11.1-5.2z"  fill="#fff500" /><path d="M-73.2-395.4c-40.6 60.2-47.4 137.8-19.5 204.8 14.7 35.4 40.6 66.3 51.6 103.2 1.4 4.7-7.1 4-4.9-0.4 2.6-5.2 8.2 3.7 2.4 3.8-4 0.1-14.4-32-16.9-36.8-33.5-64.5-64.4-120-53.6-195.8 3.7-25.9 12.9-66.7 32.9-85.5 4.7-4.4 10.5 1.6 8 6.7z"  fill="#fff500" /><path d="M2.3-359.2c-6.5 27.7-5.4 56.6 3.8 83.6 35.4 104.4 140.5 167.1 102.3 312.4-1.5 5.9-5.4 33.5-12.4 33.6-5 0.1-5.9-7.3-1-8.4 5.7-1.3 7.3 7.7 1.5 8.4-10.6 1.3 0.9-25.8 2-30 9.3-33.5 15.3-66.8 8.2-101.4-18.4-89.7-85.4-147.1-108.8-223.3-7.5-24.5-9.3-51.4-3.7-76.5 1.2-5.4 8.5-3.5 8.1 1.6z"  fill="#fff500" /><path d="M9.2-37.2c-5.3 36.8-30.5 63.8-56 88.8-5.1 5-25 32.1-31.9 26.1-4.8-4.2 0.7-12 6.3-9 6.5 3.6 0.3 13.6-5.8 9.3-10.4-7.3 27.6-39.2 33.2-44.7 38-37.4 36.2-60.3 47.1-73.8 2.8-3.5 7.4-0.5 7.1 3.3z"  fill="#fff" /><path d="M15.3-73.4c10.6 56.4-24.6 95.6-62.1 132.2-4.6 4.5-16.6 22.7-23.6 19.5-8.1-3.6 0.6-15.4 6.4-8.7 6.8 7.8-10.1 13.8-9.7 3.4 0.4-9.4 53.8-56.8 63.1-70 9.4-13.2 16.3-28.1 19.2-44.1 2-10.9-0.5-21.5 0.7-32.2 0.4-3.7 5.2-3.3 6-0.1z"  fill="#c2e1ff" /><path d=""  fill="#c2e1ff" /><path d="M21.5-396.9c-12.5 33.1-17.3 67.9-7.2 102.3 20.7 70.7 102.5 154.8 125.9 245.6 1.7 6.7 12 49.1 3.2 51.4-5.4 1.5-5.9-7.9-0.3-6.9 6.5 1.1 0.5 10.9-3.4 5.6-2.9-3.9-7.1-59.1-11.6-71.8-27-75.9-109.1-178.3-122.7-236.3-6.4-27.2-4.1-55.2 3.9-81.8 1.1-3.7 1.9-10.3 4.9-13 3.7-3.4 8.3 0.6 7.3 4.9z"  fill="#fff500" /><path d="M35.5-113.9c27.4 62.8 10.8 120.9-36.6 168.1-5.3 5.3-21.1 26.4-28.8 25.2-7.7-1.2-5.1-13.3 2.4-11.3 7.6 2.1 3.7 13.8-3.6 11-11.9-4.7 8.2-20 11.6-23.4 22-21.5 44.2-43.1 55.2-72.6 7.3-19.6 8.8-40.7 5.3-61.2-2-11.9-11.4-46.3-5.5-35.8z"  fill="#fff" /><path d="M9.5-396.6c-25.2 54.6-27.3 110.5 2.5 163.8 15.2 27.1 99.8 159.3 84.4 184.2-2.7 4.4-8.8-1.6-4.5-4.4 4.3-2.8 7.4 5.2 2.2 5.9-6.3 0.9-6.1-21.6-7-25.7-4.6-21.8-12.9-42.8-22.3-63-29.4-63.2-85.1-116.1-82.7-190.2 0.7-22.2 5.2-57.3 19.3-75.5 3.6-4.6 9.7-0.1 8.1 4.9z"  fill="#005bbb" /><path d=""  fill="#fff" /><path d="M56-297c24.4 42 69 104.7 99.9 142.5 23.4 28.6 54.7 52.9 67.6 88.5 13.7 37.6 2.5 76.4-0.1 114.8-0.3 4.6 2.5 27.7-3.5 27.9-3.8 0.1-4.5-5.6-0.8-6.5 3.7-0.9 5.6 4.5 2.2 6.1-7.7 3.7-5.4-18.8-5.4-21.7 0.6-45.4 17.7-91.6-3.5-134.9-16.7-34.1-49.1-58.7-71.8-88.8-27-35.8-51.5-73.9-77.5-110.5-1.6-2.2-11.8-23.3-7.1-17.4z"  fill="#fff" /><path d="M63.1-178c42.4 72.4 67 141.7 45.4 225-1.4 5.5-4 30-10.7 30.4-4.8 0.3-6-6.8-1.3-8.1 5.4-1.5 7.4 7.1 1.8 8.1-10 1.7-0.7-22.4 0.2-26 8.3-32.4 16.6-64.5 12.3-98.3-5.6-43.7-27.2-86.4-48.4-124.4-0.7-1.2-3.3-12 0.7-6.7z"  fill="#005bbb" /><path d=""  fill="#fff" /><path d="M75.6-398.9c0.8 57.8 87.8 165 130.7 203.8 27.3 24.7 63.1 43.7 77 79.8 2.9 7.6 13.5 58.5-0.2 59.4-4.8 0.3-6.1-6.8-1.5-8.1 4.6-1.4 7.4 5.3 3.2 7.6-10.3 5.6-2.8-25.4-2.7-28.9 0.6-20-5.4-39.2-17.5-55.2-18.2-24.3-45.7-39.9-67.7-60.4-35.7-33.4-86.7-98.2-110.9-140.6-8.5-14.8-20.5-40.1-17.1-57.8 0.8-4.1 6.1-3.2 6.7 0.4z"  fill="#005bbb" /><path d=""  fill="#fff" /><path d="M90.7-289.9c28.5 36.6 54.3 77.1 86.5 110.5 28.5 29.5 69.8 51.4 82.6 92.7 13.3 42.8-7.6 85.6-16.1 127.1-1.1 5.5-2 37.1-7.8 36.7-4.1-0.2-4.4-6.3-0.3-7 4-0.6 5.6 5.2 1.8 6.8-8.2 3.2-4.4-18.2-4.1-21 4.6-50.2 37.7-103.3 17.3-153.6-14.6-35.8-51.4-56-77.5-82.5-28.4-28.9-50-63.9-75-95.6-1.1-1.4-11.9-18.7-7.4-14.1z"  fill="#fff500" /><path d=""  fill="#005bbb" /><path d="M108.5-399.1c10 48.6 73.3 134.1 107.9 171.1 51.2 54.8 113.9 80.1 84.1 169.3-2.6 7.9-8.2 31.6-15.7 35.6-7.9 4.2-9.6-11.3-0.9-8.9 10.2 2.8-3.7 16-6 5.7-3.9-17.4 40.8-63.7 14.9-118.8-16.9-35.9-54.6-56.3-81-84.2-33.3-35.2-61.7-79.3-87.3-120.3-7.9-12.6-14.6-25.8-19.1-40-1.1-3.5 0-17.8 3.1-9.5z"  fill="#005bbb" /><path d="M118.5-399c12.8 51.8 54.4 103.8 86.2 145.8 41 54 119.7 88.1 105.7 167.7-1.4 7.8-4.2 30.8-11.6 35.2-7.5 4.5-9.9-10.4-1.4-8.6 8.5 1.9 0 14.4-4.8 7.2-4.6-6.9 25.7-54.5 3.1-99.8-17.1-34.5-52.9-54.8-78.4-82.3-32.4-34.8-58.8-78.4-83.4-119-8.5-14-16-28.9-20.6-44.7-1-3.4 3.9-4.6 5.2-1.5z"  fill="#fff" /><path d="M119.4-368c21.7 46.5 65.8 107.9 101.9 144.6 28.9 29.4 69.3 51.3 82.7 92.7 14 43.5-8 86.3-26.1 124.9-2.3 5-8.6 28.6-16.3 24.9-19.3-9.1 23.7-6.4 3.4 0.2-13.6 4.4 4.4-29.6 5.9-32.8 18.4-39.8 42.3-84.5 23.5-128.7-16-37.7-55.2-58.6-82.3-87.3-32.7-34.5-59.8-77.6-85.4-117.6-3.6-5.6-9.7-13-11.2-19.4-0.6-2.5 2.7-3.4 3.9-1.5z"  fill="#005bbb" /><path d="M125.7-280.9c22.8 28.6 42.9 59.8 69.4 85.2 30.3 29.2 74 50.2 85.8 93.9 12.6 46.6-14.6 91.9-27.2 135.3-1.8 6.1-6.2 44-11.3 43.5-4.2-0.4-4.3-6.7-0.1-7.2 4.2-0.5 5.6 5.6 1.6 7-8.6 3-3.8-19-3.3-22 7.3-53.9 50.2-109.3 32.3-164.8-14-43.4-61.5-64.9-91.3-96-19.5-20.4-35.5-43.7-52.7-66-0.3-0.4-7.6-13.3-3.2-8.9z"  fill="#fff" /><path d="M132.8-310.9c24.8 32.5 47.1 68.1 76.2 97 30.7 30.5 75.3 52.4 87.3 97.1 13.4 50.3-18.9 98.1-35.2 143.6-2.4 6.6-10.5 50.6-14.8 50.1-4.2-0.5-4.2-6.9 0.1-7.4 4.3-0.4 5.6 5.9 1.5 7.2-8.9 2.9-3.3-19.6-2.9-22.8 9.6-57.8 60.9-115.2 44.2-175.7-11.5-41.5-52.5-62.7-81.7-90.5-25.4-24.2-44.7-53.6-65.6-81.6-1.3-1.8-13.5-21.7-9.1-17z"  fill="#fff500" /><path d="M140.5-373c22.2 47.1 54.1 98.5 89.2 137 29.3 32.2 71.6 56.1 83.6 100.6 12.2 45.2-11.8 88.1-31.3 127.3-2.6 5.2-10.6 31.4-18.3 27.6-19.3-9.5 24-6.1 3.5 0.3-13.8 4.3 4.8-29.6 6.3-32.8 20.2-41.2 47.7-87.1 30.5-134.3-17.1-46.8-80.2-85.3-110-130.2-20-30.1-41.2-61.2-57.3-93.5-1.3-2.5 2.3-4.1 3.8-2z"  fill="#fff" /><path d=""  fill="#c2e1ff" /><path d="M160.4-399.3c15.4 49.4 45 103 77.1 143.6 52.1 65.8 117.5 95.6 75.9 192.8-4.2 9.9-14.3 41.2-24.3 45.7-10 4.5-7.7-15.2 0.9-8.5 7.4 5.7-6.5 13.9-8 4.8-1.4-9.1 14.5-29 18.6-37.5 15-30.6 25.1-64.4 14-97.9-15.4-46.3-81.3-93-110.3-143-9.1-15.7-51.2-85.1-48.9-99.6 0.4-2.8 3.9-2.6 5-0.4z"  fill="#005bbb" /><path d=""  fill="#fff500" /><path d="M169-395.8c16 49.5 43.9 103.3 77.3 143.3 28 33.7 68.1 59.4 79.6 104.1 12.4 48-13.4 92.2-35.7 132.8-2.6 4.7-9.2 25.2-16.8 20.8-4.9-2.9-1.5-10.7 3.9-8.9 4.6 1.5 4.4 8.3-0.3 9.5-14.5 3.5 6.2-29.4 8-32.7 21.3-38.8 46.1-81.3 33.6-127.2-14.6-53.7-77.4-92.2-106.1-141.4-9.1-15.5-50.4-85.6-48.3-99.9 0.4-2.8 3.8-2.6 4.8-0.4z"  fill="#fff" /><path d="M177.2 37c0 6.4 5.3 34.7 1.2 38.5-3.5 3.3-7.5-3.5-3-5 4.5-1.5 5.4 6.3 0.7 5.8-5.8-0.6-7.9-36-5.5-40.9 1.7-3.4 6.1-1.8 6.6 1.6z"  fill="#fff" /><path d="M184-399.2c13.5 48.4 38.1 100.2 69.6 139.5 26.7 33.4 64.6 59.2 76.9 102.2 14.4 50.5-12.7 96.5-36.8 138.9-2.7 4.8-9.9 25.8-17.6 21.1-5-3-1.3-10.8 4.2-9 4.7 1.6 4.3 8.5-0.5 9.6-14.7 3.3 6.9-29.8 8.8-33.2 22-38.6 47.1-80.5 36.4-126.7-13.5-58.4-75.9-95.1-104.4-146.5-6.2-11.1-44.2-90.5-41.6-96.2 1.1-2.4 4-1.7 5 0.3z"  fill="#005bbb" /><path d="M197.1-399.3c10.9 44 31.1 89.8 57.7 126.5 47.4 65.5 111.5 100.2 73.3 193.2-3.8 9.2-13 37.6-22.6 41.6-8.7 3.7-9-12.8-0.1-9.5 10.4 4-5.5 16.5-6.9 5.4-2-16 46.7-65.3 30.1-124.8-15.5-55.9-73.3-91.2-100.3-141.8-14.9-28-28.5-58.4-36.5-89.2-0.9-3.5 4-4.6 5.3-1.4z"  fill="#fff500" /><path d="M196.1-96.9c32.6 43.2 26 88.3 22.5 138.8-0.4 5.9 2.7 30.5-1.4 33.8-4 3.2-7.8-4.3-2.8-5.6 4.2-1.1 5.6 5.7 1.3 6.3-9 1.3 0.6-93.9 0.2-104.6-0.6-17.7-4.6-35-12.7-50.8-0.7-1.4-11.9-23.2-7.1-17.9z"  fill="#fff" /><path d=""  fill="#005bbb" /><path d="M209.3-174.6c25.8 21.3 55.6 40.7 66 74.4 14.3 46.3-12.2 92.1-24 135.8-1.6 6-5.1 42.1-10.3 41.6-4.2-0.4-4.3-6.6-0.1-7.1 4.8-0.6 5.4 7 0.5 7.1-8 0.2-2.4-22.6-1.7-26.9 6.9-44.8 34.4-86.8 32.4-132.9-1.7-38.6-28.6-62.8-56.9-85.2-0.4-0.3-9.2-8.9-5.9-6.8z"  fill="#fff500" /><path d="M216.6-224.8c27.4 28.7 66.3 49.3 82.8 87 23.1 52.9-11.3 105.3-31.3 152.9-3.2 7.7-15.1 61.5-19 62.3-6.7 1.4-4.6-10.4 1.3-6.8 5.8 3.7-3.8 10.7-5.6 4.1-11.1-43 55.8-127.8 55.2-181.9-0.6-53.3-47.1-79.3-81.1-112.1-0.2-0.2-6-8.4-2.3-5.5z"  fill="#fff" /><path d="M223.3-170.6c107.9 84.7 34.7 133 23.5 236.6-0.3 2.7 0.5 13.6-5.7 10.9-3.8-1.7-1.9-7.7 2.2-6.9 4.1 0.8 3.5 7.1-0.7 7.2-7.8 0.1-2.4-21.5-1.7-25.6 7-45.2 34.8-86.3 35.5-132.5 0.4-26.3-10.8-49.2-29.3-67.5-7.7-7.6-33.1-27.9-23.8-22.2z"  fill="#fff" /><path d="M231.3-278c28.3 43.4 80.3 73.3 95.2 124.6 18.4 63.3-28.5 117.8-53.3 171.7-3.3 7.3-18.1 59.6-21 59.1-4.3-0.7-4.1-7.2 0.3-7.4 5.1-0.3 5.2 7.7 0.1 7.5-8.6-0.4-0.3-26.9 0.8-31.3 15.5-60.8 70.3-111.4 70.3-176.1 0-63-59.4-95.5-92.1-141.6-0.8-1.1-4.3-11-0.3-6.5z"  fill="#fff500" /><path d="M237.7-233.8c29.1 30.8 68.3 54.9 78.7 98.7 13.8 58-28.3 109.5-49 160.1-2.8 6.8-13.1 52.7-17.2 52.1-5-0.7-3.5-8.6 1.5-7.3 4.2 1.1 3.3 7.5-1.1 7.4-8.4-0.3-0.9-24.9 0.1-29.2 12.9-56.2 59-103.6 61.2-162.4 1.9-52.1-38.7-81-72-113.9-0.2-0.2-5.9-8.6-2.2-5.5z"  fill="#c2e1ff" /><path d="M248 15.1c-2.5 9.4-7.7 56.7-10.4 60.2-3.4 4.4-9.3-2.6-4.4-5.2 5.7-3 6.9 8.2 0.7 6.5-9.2-2.6 2.3-57.4 6.2-64.6 2.5-4.6 8.5-1.5 7.9 3.1z"  fill="#fff" /><path d="M255.1 26.2c-2.6 8.2-5.4 46.7-11 50.2-4.9 3-8-5.9-2.4-6.6 5.7-0.7 4.8 8.8-0.6 7-7.8-2.5 1.6-49.6 6.6-54.9 3.4-3.5 8.1 0.1 7.4 4.3z"  fill="#fff500" /><path d="M262-398.5c7.5 77.9 60.9 110.7 94 173.6 36.3 68.9 0.6 133.1-39.8 189.9-3.7 5.2-16.1 30.6-23.9 24.9-4.2-3.1-1.5-10 3.6-9.5 6.1 0.6 6.2 9.7 0.2 10.5-15.7 1.9 9.4-29.4 11.7-32.6 28.6-40.3 59.4-82.1 56.5-134.2-3.7-66.5-63.8-105.1-90.4-161.6-8.9-18.9-15.7-39.4-18.2-60.2-0.5-4.1 5.3-4.6 6.3-0.8z"  fill="#fff" /><path d="M265.6-212.7c105.6 97 29.9 150-3.7 254.4-1.7 5.4-5.2 36.2-11.3 35.3-4.3-0.6-4.1-7.1 0.3-7.4 5.1-0.4 5.2 7.7 0.1 7.5-8.3-0.3-1.1-23.8-0.1-27.9 12.3-54.9 54.8-99.4 62.5-155.4 4-29.3-5.4-56.9-24.1-79.5-7.6-9.2-33.4-34.1-23.7-27z"  fill="#c2e1ff" /><path d="M272.7-223.8c110.8 107.9 29.7 152.9-8.5 263.4-2 5.8-6.6 38.6-12.3 37.7-5.1-0.8-3.4-8.7 1.5-7.4 4.2 1.1 3.3 7.6-1.1 7.4-8.3-0.3-1.2-22.8-0.2-27.2 13-57.4 58.6-102.3 68.2-160.4 4.4-26.5-1.7-52.9-16.6-75.1-9.1-13.6-24.4-23.5-32.7-37-0.7-1.1 0.8-2.1 1.7-1.4z"  fill="#c2e1ff" /><path d="M283.4 9.3c-7.8 14.1-14.6 28.9-19 44.5-1.4 4.9-1.8 21-6.3 23.3-5.4 2.8-8-6.9-1.9-7.2 6.1-0.3 4.4 9.7-1.3 7.4-11.6-4.7 13.8-66.3 20.3-73.6 4.1-4.6 10.1 0.6 8.2 5.6z"  fill="#005bbb" /><path d="M290.3 51.8c-2.2 4.9-6 27.3-13 25.3-5.4-1.6-2.5-10 2.8-7.9 5.2 2.2 1.4 10.2-3.6 7.6-14.7-8 19.9-47.2 13.8-25z"  fill="#c2e1ff" /><path d="M295.1-136.9c23.1 48.2-4.7 98.1-23.9 142.3-3.5 8.1-22.2 71.8-23.9 71.6-6.8-0.9-1-11.3 3.3-6 3.7 4.5-5 9-6.4 3.2-8.3-32 31.9-99.4 43.2-130.5 5.9-16.4 10.2-33.7 9.3-51.2-0.5-9.8-6.4-37.9-1.6-29.4z"  fill="#fff" /><path d="M301.2-283.9c42 53.5 81.7 102.3 55.8 174.2-18.8 52.3-61.2 91.9-83.4 142.6-2.7 6.2-11.6 45.5-16.6 44.6-5.2-0.9-3.3-9 1.8-7.5 4.3 1.3 3.1 7.8-1.4 7.6-8.8-0.6 0.5-27.5 1.9-32 19.7-67.4 82.5-114.4 96.7-183.6 6.5-31.9 0.3-64.2-16.6-91.9-11-18.2-32-33.7-40.7-52.5-0.8-1.6 1.3-2.7 2.5-1.5z"  fill="#fff500" /><path d="M311.4-47.5c-16.4 29.6-35.7 58.1-46.6 90.3-1.8 5.4-6 37.7-12.7 34.2-4.6-2.4-0.4-9.4 3.8-6.6 4.3 2.9-0.6 9.4-4.5 6.1-16.5-13.8 37.8-121 52.9-130.7 4.7-3 9 2.3 7.1 6.7z"  fill="#c2e1ff" /><path d="M315.5-194.9c55.3 80.1-15.8 151.9-45.9 224.5-2.7 6.4-11.7 48.2-16.5 47.5-6-0.9-2.3-10.3 2.7-6.9 5 3.4-2.2 10.3-5.4 5.1-13.4-22 60.8-139.9 71.1-168.6 8.2-22.7 10.7-47.2 4.1-70.6-3-10.5-17-39.4-10.1-31z"  fill="#c2e1ff" /><path d="M322.5-326c34.9 55.3 81.5 98.2 70.2 169.8-10.4 66.4-65.3 110.1-99.7 164.1-5 7.8-30.7 69.8-32 69.5-6.1-1.2-1.9-10.7 3.1-7 5 3.7-2.7 10.5-5.8 5.1-19-34.4 112.2-174.2 125.2-227.3 16.8-69.2-24.5-114.8-60.8-167.7-0.8-1.2-4.1-11.2-0.2-6.5z"  fill="#fff" /><path d="M329.3-248.9c86.1 107.8-3 176.4-50.5 270.5-3.5 7-18.4 56-21.8 55.4-6-1.1-2.1-10.5 2.9-7 5 3.5-2.5 10.4-5.5 5.1-15.2-26.3 84.6-160.3 96.6-196 10.3-30.5 9.5-63.6-3.8-93.1-0.8-1.8-24.8-41.9-17.9-34.9z"  fill="#c2e1ff" /><path d=""  fill="#fff" /><path d="M344.7-381.8c12.4 49.3 53.2 85 70.4 132.4 38.7 106.7-25 161-89.8 232.5-5 5.6-26.2 38.4-33.2 33.1-4.9-3.7-0.2-11.6 5.4-9 5.6 2.6 2.7 11.3-3.3 9.9-12.6-2.7 9-25.3 12-29.1 40.6-50.7 100.8-89 111-157.8 12.7-86.1-42.4-125.5-72.4-196.1-8.2-19.4-1.4-18.9-0.1-15.9z"  fill="#fff" /><path d="M353.5 40.4c-3.8 6.5-11.8 35.2-17.5 37.2-6.4 2.2-7.7-9-1-8.3 6.8 0.7 3.2 11.4-2.6 7.9-7-4.1 8.9-45.3 17.4-44.2 3.7 0.5 5 4.2 3.7 7.4z"  fill="#c2e1ff" /><path d="M357.9-237.9c64.7 109.4-46.3 184.5-84.6 276.2-2.8 6.7-7 36-12.3 38.7-5.5 2.8-8-7.2-1.8-7.3 6.2-0.2 4.3 9.9-1.4 7.4-7.8-3.3 3.6-32.7 5.5-38.3 20.5-58.3 70-99.4 94.6-155.3 12-27.2 16.1-57.6 9.2-86.6-4.3-18-15.3-43.3-9.2-34.8z"  fill="#c2e1ff" /><path d="M364.5-301.9c111.7 153.7 4 202.1-69.1 313.1-5 7.5-29.8 66.5-31.6 66.1-5.3-1.1-3-9.3 2.1-7.6 6 2 0.6 11-4 6.6-7.3-6.9 8.2-39.1 11.6-46.5 29.1-63.9 95.2-103.6 120.1-169.4 14.2-37.4 12-79.4-4.5-115.7-7.3-16-36.5-59.6-24.6-46.6z"  fill="#fff500" /><path d="M372.5-221.8c47.6 118.2-87.5 190.7-108.6 295.5-1.7 8.5-12.9-1.4-5.2-4.2 6.8-2.5 6.4 10.1-0.3 7.2-7.5-3.2 2.8-29.7 4.7-35 19.4-57.9 67.5-98.2 94.8-151.5 12.5-24.4 19.2-51.7 16.7-79.2-0.8-9.4-8.1-23.6-6.8-32.3 0.4-2.7 3.7-2.6 4.7-0.5z"  fill="#c2e1ff" /><path d="M378.7-286c94.1 139.5-17.1 197.3-83.5 298.5-4.9 7.5-29.3 65.3-31 64.9-5.3-1.2-3-9.4 2.1-7.6 6 2 0.6 11-3.9 6.6-6.9-6.6 7.5-37.4 10.7-44.5 28.3-63.6 92.7-102.2 120-165.8 14.9-34.5 15.6-74.1 3.1-109.5-1.1-3.1-23.7-49.8-17.5-42.6z"  fill="#fff" /><path d="M388.1-398.6c4.2 45.6 36.9 83.4 52.9 125.1 40.6 105.6 22.1 179.6-51.9 260.9-4.3 4.7-17.6 26.2-24.9 19.4-4.8-4.5 1.1-12.2 6.7-8.9 4.8 2.8 2.7 10.4-2.9 10.4-16.7 0.1 24.7-41.9 28.9-46.5 30.5-33.8 53.2-69.3 56.2-115.9 7.8-120.8-42.8-139.6-68-228.7-5.3-18.9 1.3-22 3-15.8z"  fill="#fff500" /><path d="M395.3-153.1c-12.4 66.3-68.8 109.2-103.2 163.7-9.3 14.8-17.3 30.7-22.2 47.6-1 3.5-2.1 22.9-9.5 18.6-4.6-2.7 0-9.7 4.3-6.6 5 3.7-2.8 10.5-5.8 5.1-15.4-28.1 69.5-130 87.6-153.2 16.7-21.3 41.1-78.3 41.6-78.8 3-3.5 7.6-0.4 7.2 3.6z"  fill="#005bbb" /><path d="M402.3-157.2c-11.9 68-70.4 110.6-106.7 165.3-10.3 15.5-19.1 32.2-24.4 50.1-1 3.5-2.3 22.9-9.7 18.6-4.6-2.7 0.1-9.8 4.4-6.6 5 3.8-2.9 10.6-5.8 5.1-15.7-29.2 72.8-131.3 91.7-154.6 21-25.8 42.3-80.2 43.3-81.3 2.9-3.5 7.5-0.4 7.2 3.4z"  fill="#fff" /><path d=""  fill="#c2e1ff" /><path d=""  fill="#c2e1ff" /><path d="M423.4 18.9c-3.4 13.4-4.5 27.3-2.6 41 0.3 2.4 5.9 16.6-0.2 16.1-3-0.3-3.1-4.8 0-5.2 3.5-0.4 3.9 5.2 0.3 5.2-10.8 0.1-8.8-52.7-5.4-59.8 2.2-4.6 8.2-1.8 7.9 2.7z"  fill="#c2e1ff" /><path d="M430.6 3.3c-5.9 17.2-9 35.4-6.5 53.6 0.4 2.7 6.9 19.6 0.9 19.2-12.3-0.8 12.6-4.6 1.1-0.1-11.7 4.5-8.8-67.7-3.6-76.3 2.8-4.7 8.9-1.1 8.1 3.6z"  fill="#005bbb" /><path d="M434.6-398.8c3.2 43 27.4 82.6 39.5 123.4 19.1 63.9 30.3 128.5 56.4 190.4 4.7 11.2 37.1 79.1 34.9 85.1-1.4 3.9-7.2 0.2-4.3-2.7 2.9-2.9 6.7 2.8 2.8 4.3-2.1 0.8-35.4-79.6-39.2-88.6-27.1-64.1-38.2-131.2-58.7-197.3-10-32.3-25.9-62.7-34.2-95.5-4.6-18.3 0.5-28.9 2.8-19.1z"  fill="#005bbb" /><path d="M443-244.7c42.7 157.4-41.2 171.1-118.1 269-5.2 6.6-29.3 54.3-32.7 53.1-6.5-2.2-0.6-11.9 4.4-7.2 4.9 4.7-4.5 11.1-7 4.7-13.1-33.6 115.5-140.9 135.5-174.6 22.2-37.4 23.3-83.2 16.4-125.1-0.9-5.3-5-14.7-3.8-19.9 0.7-3 4.4-2.5 5.3 0z"  fill="#005bbb" /><path d="M449.5-309.9c39.2 91.5 40.8 192.4 60.4 288.6 2.1 10.1 27.5 97 22.8 97.8-4.5 0.7-4.1-6.8 0.3-5.6 5.1 1.4-0.4 8.8-3.2 4.2-17.6-29-35.6-164.9-42-204.8-9-55.8-17.7-114-38-167-0.4-1.1-4.9-21.3-0.3-13.2z"  fill="#c2e1ff" /><path d="M457.7-191.2c9 108.8-48.8 138.8-108.2 214.6-9.1 11.6-27.1 52.7-31.4 54-6.7 2-7.6-9.5-0.7-8.6 6.9 1 2.9 11.8-3 8.1-24.6-15.9 101.5-142 112.2-158.3 12.7-19.3 20.6-41.1 23.5-64 1.9-15-1.6-31.6 1-46.2 0.7-4 5.9-3.2 6.6 0.4z"  fill="#005bbb" /><path d=""  fill="#fff500" /><path d="M470.9-291.8c17.2 51.8 25 106 43.8 157.3 17.7 48.5 46.7 93.3 60 143.4 2.2 8.3 15 65.7 4.2 68.3-6.6 1.6-4.9-10 1-6.7 5 2.9-1.5 9.9-4.8 5.2-3.6-5.1-2.1-61.7-15.6-96.7-16.3-42-38.7-81.3-53.8-123.9-15.8-44.8-23.5-91.5-37.1-136.8-0.5-1.5-1.7-18.6 2.3-10.1z"  fill="#c2e1ff" /><path d=""  fill="#005bbb" /><path d="M485-305.7c22.2 75.3 33.6 137.7 75.8 206 4.4 7.1 44.9 73 38.5 75.2-3.5 1.2-4.3-4.9-0.5-4.5 3.7 0.4 1.8 6.2-1.4 4.3-2.4-1.4-23.3-46.2-27.4-52.9-51.4-86.1-61.3-119.3-86.8-214.8-0.4-1.5-2.2-22.9 1.8-13.3z"  fill="#c2e1ff" /><path d="M492.2-182.7c15.7 66.9 42.4 129.4 60.9 195.2 2.2 7.8 17 61.3 7.9 64.3-5.9 2-5.3-8.9 0.4-6.2 4.8 2.3-0.5 9.3-4 5.2-2.5-3-9-60.8-12.2-71.5-17.6-59.5-41.2-116.5-56.3-176.9-0.6-2.4-0.1-19.2 3.3-10.1z"  fill="#fff" /><path d="M499.2-248.6c15.5 65.9 43.3 118.5 77.6 176.2 5.4 9 27 38 24.1 48.4-1 3.6-6.5 0.7-4.1-2.1 2.4-2.9 6.2 2.1 2.8 3.6-2.6 1.2-23-42.6-26.1-48-32-55.2-62.4-105.4-77.7-168.1-0.6-2.4 0-19.2 3.4-10z"  fill="#fff" /><path d="M506.2 2.3c1.8 8 22.8 73 18.6 73.9-3.6 0.8-4.5-4.9-0.9-5.3 3.7-0.4 4 5.4 0.3 5.4-5 0-7.3-18.6-8.5-22.5-4.7-15.1-15.1-34.9-15-50.8 0-3.4 4.5-3.5 5.5-0.7z"  fill="#fff500" /><path d="M513.9-375.2c3.1 71.6 15 153 48.7 216.9 4.6 8.8 38.6 62.3 38 66.4-0.5 3.6-6 0.5-3.2-1.8 2.4-2 4.7 2.7 1.7 3.5-4.2 1.1-22.4-35.5-25.3-40.4-43.5-73.3-59.4-154.3-66.2-238.7-0.4-4.5 4.7-14.5 6.3-5.9z"  fill="#fff" /><path d="M520 38.2c1.4 4.7 13.8 36.7 8 37.9-3.7 0.7-4.5-5.1-0.8-5.5 3.7-0.3 3.9 5.6 0.2 5.5-4.6-0.1-5.2-12-6-14.9-2-7.2-4.3-14.3-6.4-21.4-0.9-3.3 3.7-4.5 5-1.6z"  fill="#fff500" /><path d="M527.7-312.4c6.8 56.3 15.3 109.2 42.4 159.8 5.9 11 32.2 42.7 30.6 54.4-0.4 3.1-5.3 1.3-3.6-1.3 2-3.1 5.7 2.1 2.1 2.9-4.3 1.1-20-31.9-22.6-36.4-31.5-54.4-46.3-107.6-54.1-169.7-0.4-2.9 2.6-19.9 5.2-9.7z"  fill="#fff500" /><path d="M526.9-397.8c-7.2 66.2 7.1 165.3 35.1 225.6 8.9 19.2 35.1 52.3 38.6 70.8 0.7 3.6-5.6 2.4-3.6-0.7 2-3.1 5.7 2.1 2.1 2.9-4.4 1.1-21.2-34.1-23.8-38.9-42.1-74.3-58.6-163.3-56.6-248.5 0.1-3.6-1.1-11.5 1.8-14.2 2.7-2.6 6.3-0.2 6.4 3z"  fill="#fff" /><path d=""  fill="#005bbb" /><path d="M548-202.8c9.6 28.4 24.2 54.5 39.2 80.3 1.9 3.3 16 23.5 12.3 25.4-2.8 1.4-4-3.6-1-3.8 2.7-0.1 2.5 4.1-0.1 4-4.2-0.4-11.1-17.7-13.1-21.4-15.5-26.7-31.8-53.6-42-82.9-1.1-3.1 3.3-4.5 4.7-1.6z"  fill="#005bbb" /><path d="M555.9-262.3c2.9 39.2 13.6 75.7 30.6 111.1 2.9 6 15.1 22.5 14 28.8-0.6 3.2-5.6 1.2-3.7-1.5 2.2-3.2 5.9 2.4 2.1 3.2-4.3 0.9-13.2-22.5-15.1-26.2-17.2-34.7-30-70.6-33.9-109.3-0.4-4.3 4.2-14.5 6-6.1z"  fill="#fff" /><path d="M554.3-397.4c-12.5 65.6-9 148 14.3 210.7 3 8.1 30.3 70.2 30.3 70.3-2.8 0.3-3-4.1-0.2-4.1 2.8 0 2.5 4.4-0.3 4.1-5.3-0.6-15.2-27.1-17.7-32.1-36.7-72.9-45.5-157.8-36-238.6 2.2-18.8 9.7-12.9 9.6-10.3z"  fill="#005bbb" /><path d=""  fill="#c2e1ff" /><path d="M575.9-180.9c2.3 6.2 25.9 55.6 23.5 56.7-2.6 1.1-4.2-3.1-1.5-3.9 2.7-0.9 3.8 3.5 1 4.1-4.1 0.8-8.7-13.8-10-16.7-13.3-26.8-20.3-53.8-13-40.2z"  fill="#fff" /><path d="M584.8-394.1c-14 60.2-21.5 130.8-6.8 191.5 1.9 7.8 21.3 65.9 20.8 65.9-3 0.1-3-4.6 0.1-4.4 3 0.2 2.5 4.9-0.5 4.4-5.3-0.9-12-24.8-14-29.8-27.9-70.2-23.6-148.2-9.4-221.2 1-5.3 10.9-18.1 9.8-6.4z"  fill="#005bbb" /><path d=""  fill="#c2e1ff" /><path d="M596.6-130c1.2 2.3 5.9 7.2 3.3 9.7-2.8 2.6-5.2-3.6-1.4-3.6 3.3 0 2.1 5.3-0.9 4-7.7-3.6-3.9-14.3-1-10.1z"  fill="#fff500" /><path d=""  fill="#fff500" /><path d=""  fill="#005bbb" /><path d=""  fill="#c2e1ff" /><path d=""  fill="#fff500" /><path d="M602.3-229.8c-0.1 2.4 1.5 13.7-4.8 11.3-3.7-1.4-2.2-7.2 1.8-6.6 4.6 0.7 3.2 7.9-1.4 6.7-11.6-3 3.2-22.7 4.4-11.4z"  fill="#c2e1ff" /><path d=""  fill="#c2e1ff" /><path d=""  fill="#fff" /><path d=""  fill="#c2e1ff" /><path d=""  fill="#fff500" /><path d=""  fill="#fff" /><path d=""  fill="#005bbb" /><path d=""  fill="#fff500" /><path d=""  fill="#005bbb" /><path d=""  fill="#fff" /></svg>