<svg width="1200" height="675" viewBox="-500 -500 1200 675" xmlns="http://www.w3.org/2000/svg"><path d="M-500-500h1200v675h-1200z" fill="#000"/><path d=""  fill="#005bbb" /><path d=""  fill="#fff500" /><path d="M-396.8-318.3c12.6 24.5 21.2 51.1 30 77.1 23.7 70.6 22.5 105.2-13.1 170.5-3.1 5.7-12.7 34.3-19.1 33.9-6-0.4-4.8-9.8 1.1-8.8 5 0.9 4.5 8.6-0.6 8.8-10.6 0.4 1.6-21.4 3.3-25 15.7-34 38.8-64 39.3-103.1 0.6-47.6-22-101.3-41.1-144.1-0.4-0.8-4.1-16 0.2-9.3z"  fill="#fff" /><path d="M-396.1-259.9c5.9 21.7 25.1 121.8-0.2 136.1-5.5 3.1-9.9-5.8-4.2-8.3 6.8-2.9 9.1 9.1 1.7 8.9-8-0.2 8.2-30.3 8.9-61.4 0.5-25.6-11.1-49.8-11.4-74.5-0.1-3.3 4.2-3.4 5.2-0.8z"  fill="#fff" /><path d=""  fill="#fff500" /><path d=""  fill="#005bbb" /><path d=""  fill="#fff" /><path d=""  fill="#fff500" /><path d=""  fill="#c2e1ff" /><path d="M-396.1-261.1c6.1 22.1 25.9 124.1-0.3 138.7-6.5 3.6-10-8.2-2.6-8.7 6.3-0.5 6.5 9.5 0.1 9.3-9.1-0.3 8.4-31.3 9.4-60.8 0.9-26.9-11.3-51.9-11.9-77.8-0.1-3.2 4.1-3.4 5.3-0.7z"  fill="#fff" /><path d=""  fill="#005bbb" /><path d=""  fill="#fff500" /><path d=""  fill="#005bbb" /><path d="M-354.9-399.2c25.3 36.9 34.4 82 52.4 122.3 23.5 52.7 58.1 101.8 60.9 161.4 0.6 11.9-0.6 70.7-16.6 73.4-6.3 1-7.4-9-1-9.4 5.5-0.3 6.8 7.8 1.5 9.3-11.8 3.3 5.3-35.8 6.4-41 6.6-31.6 1.9-64.4-8.9-94.5-13.2-37.1-34.7-70.6-50.4-106.7-13.9-31.9-22.3-66.1-38.1-97.1-0.7-1.3-10.9-23.4-6.2-17.7z"  fill="#005bbb" /><path d="M-396.1-256.8c5.4 20.5 22.9 116-0.3 129.6-6.3 3.7-10-7.8-2.8-8.5 6.2-0.6 6.6 9.2 0.4 9.2-9.2-0.1 7.1-35 7.7-58.3 0.6-24.5-10.1-47.7-10.3-71.3 0-3.3 4.2-3.4 5.3-0.7z"  fill="#005bbb" /><path d="M-394-208.2c0.6 6.5 4.7 44.3-4.3 45.2-5.4 0.5-5.7-8-0.4-7.9 5.4 0.1 4.8 8.5-0.5 7.9-6.9-0.8 1.1-66.5 5.2-45.2z"  fill="#c2e1ff" /><path d="M-353.5-399.3c24.9 37.1 33.9 82.2 52 122.6 32.9 73.6 83.8 146.4 50.1 229.7-2.4 5.9-9.2 27.2-16.6 27.7-6.8 0.4-6.8-10.4 0-10.1 5.8 0.3 6.3 9 0.5 10-12.7 2.1 10.9-38.8 12.8-44.6 11.4-33.8 9.1-70.4-1.3-104.1-13-41.9-37.8-79-55-119.3-13.2-31-21.5-64-36.5-94.1-0.7-1.3-10.7-23.6-6-17.8z"  fill="#c2e1ff" /><path d=""  fill="#fff500" /><path d="M-372.3-99.8c-29.7 59.9-25.7 58.1-23.7 147.9 0.1 3.9 7.9 25.7 6.3 27-2.6 2.2-5.3-2.8-2-3.7 3.3-0.9 3.6 4.8 0.2 4.2-10.2-1.7-9.2-35.4-9.3-40.1-0.2-32.7-1.5-65.4-1.7-98 0-7.8 16.7-38.9 23.2-43.4 4.4-3.1 8.6 1.8 7 6.1z"  fill="#fff" /><path d="M-367.6-298.9c22.6 54 62.7 120.4 45.9 180.8-12.8 46-52.3 79.2-56.9 128.4-1.3 13.5 10 58.8 8 64.1-1.6 4.4-7.7-1-3.5-3.1 3.6-1.8 5.2 4.7 1.2 4.8-4.9 0.2-6.7-15.8-7.6-19.3-25.4-100.3 47.4-120.9 55.5-200.2 5.2-51.5-27.1-105.3-45.9-151.6-1.2-3 0.9-8.2 3.3-3.9z"  fill="#005bbb" /><path d="M-360.5-232.8c14.9 43.1 23.6 84.8 4.2 128-10.8 24-35.8 51.9-37.8 78.8-1.6 22.3-4.9 47.3 1.2 69.6 1.1 4 12.6 32 7.9 32-11 0.1 10.9-4.9 1-0.2-4.8 2.3-8-13.3-9.1-16.2-9.8-26.6-15.1-62.5-8.5-89.3 9.6-39 38.7-69.7 47.7-108.8 8.7-38-13.9-77.2-11.4-93.5 0.4-2.7 3.7-2.5 4.8-0.4z"  fill="#fff500" /><path d="M-352.6 46c-0.2 5.4 4.2 26.6 0.9 29.7-3.4 3.2-7.4-3.5-3-5 4.5-1.5 5.2 6.3 0.6 5.8-5-0.6-7-28-5-32.1 1.7-3.4 6.1-1.7 6.5 1.6z"  fill="#fff" /><path d="M-347.3-374.9c18.3 34.2 27.8 72.4 44.3 107.5 50.3 107.3 83.4 157.7 7.9 262.8-4.8 6.7-25.2 52-29.6 52.1-7.8 0.1-2.9-12.5 2.8-7.3 6.6 6.2-9.2 10.9-6.9 2 16.5-64.4 78.3-101.9 73.2-174.2-4-55.6-38.1-102.5-59.7-152.1-10.8-24.8-18.6-50.7-29.4-75.5-0.5-1.1-7.4-22.5-2.6-15.3z"  fill="#fff" /><path d="M-339 68.8c0.5 13.1-7.8 5.6-5.5 2.8 5.4-6.4 8 9.1 0.8 4.9-7.9-4.7 3.2-16 4.7-7.7z"  fill="#fff" /><path d=""  fill="#c2e1ff" /><path d="M-326.4-305.9c25.2 65.3 80.7 132.8 66.1 206.7-9.1 46-46.9 74.3-65.9 115.2-3.3 7.2-13.2 60.6-14.1 60.6-4.4 0-4-7 0.4-6.5 5.1 0.6 2.4 8.7-2.1 6.1-5.7-3.4-1.6-27-0.8-32.9 8.2-62.8 71.6-98.4 77.4-161.7 5.9-63.5-37.9-119.1-61-174.9-0.8-1.8-4.3-20.5 0-12.6z"  fill="#fff500" /><path d="M-319.2-185.7c23.8 81.3-35.6 110.9-53.3 180.5-5.2 20.4-4.5 41.5-0.2 62 0.5 2.6 7.7 19.9 1.4 19.3-12.4-1.1 12.8-4.3 1.1-0.2-15.3 5.5-9.6-87.7-6.5-97.1 11.1-34 36.8-60.3 49.5-93.4 4.7-12.2 7.2-25.1 7.2-38.2 0-9.4-6.3-24.2-4.3-32.8 0.7-2.9 4.2-2.4 5.1-0.1z"  fill="#fff" /><path d="M-312.4-374.7c10 31.6 17.3 63.7 30.5 94.2 16.5 38.3 38.2 74.1 53.2 113 16.2 42.1 24.8 86.5 39.9 129 8.3 23.3 19 45.4 31.1 66.9 1.6 2.9 13.8 19.9 10.2 21.7-2.2 1.2-3.9-2.5-1.5-3.4 2-0.8 3.5 2.1 1.7 3.3-2.7 1.8-4.9-4.4-5.3-5.1-34.8-59.4-51.5-120.2-71.9-185.3-23.8-75.6-67-141.8-88.6-218.5-0.5-1.7-3.5-25.3 0.7-15.8z"  fill="#fff" /><path d="M-305.6-185.7c28.1 85.2-32.9 112.3-55.6 183.2-6.1 18.9-6.9 38.9-4.1 58.5 0.4 2.9 6.8 21.1 0.3 20.2-13.5-1.9 14.2-4 1.1-0.1-15.4 4.6-4.9-84.2-1.6-93 12.5-33.4 39.3-58.7 52.7-91.5 5.8-14.1 8.6-29.3 7.9-44.5-0.4-9.4-7.3-24-5.6-32.6 0.5-2.8 4-2.5 4.9-0.2z"  fill="#005bbb" /><path d="M-297.8-147c2.9 60.8-51.2 96.5-65.3 151.6-4 15.4 2.1 67.8 1.1 70.1-2 4.6-8.2-1.6-3.6-3.5 4.6-2 4.8 6.8 0.2 5-5-1.9-5.9-20.8-6.6-25.9-8.8-62 28.4-97.5 54.8-148.4 2.1-4.1 16.9-70.5 19.4-48.9z"  fill="#005bbb" /><path d="M-290-62.1c-19.9 30.9-47.1 56.5-54.7 93.9-1.5 7.4 1.6 40.3-2.4 43.8-4.3 3.7-7.6-5.6-1.9-5.4 4.9 0.2 2.8 8-1.5 5.8-4-2.1-2.7-12-3-15.8-2.8-44.8 17.7-78.5 43.8-112.9 3.5-4.6 7.8-14.1 13-16.8 5-2.7 9 3 6.7 7.4z"  fill="#c2e1ff" /><path d=""  fill="#fff" /><path d="M-278.7-220.9c31.2 61.3 46.1 126.3 6.7 187.6-13 20.2-29.2 38.4-39.6 60.2-3.1 6.5-12.8 50.1-15.8 49.8-5.6-0.6-2.7-9.5 2.2-6.6 4.8 2.9-1.5 9.7-4.7 5.1-17.9-26.1 65.1-132.5 72.6-165 10.2-44.3-4.5-87.8-24.1-127.2-1.3-2.6 0.1-7.8 2.7-3.9z"  fill="#005bbb" /><path d="M-271.8-206.9c28.5 58.9 35 120.7-2.5 177.1-12.8 19.2-28.1 36.8-37.9 58-3 6.4-11.8 49-15.2 48.6-5.6-0.6-2.7-9.4 2.2-6.6 4.8 2.9-1.5 9.7-4.8 5.1-18.2-26.4 63-129.4 71.4-160 10.7-39 1.5-79.4-14.8-115.4-0.7-1.7-2.1-12.7 1.6-6.8z"  fill="#fff" /><path d="M-264.1-343.6c14.9 72 75.5 210.2 125.7 263.3 17.8 18.8 38 35.3 55 54.8 6.2 7.2 50.3 68.4 38.9 75.7-3.4 2.2-5.8-4.2-1.7-4.7 4.7-0.6 2.7 7.4-1.2 4.6-3.7-2.7-25.4-57.4-33.9-68.5-24.7-32.3-58.8-55.8-83.1-88.5-36-48.4-82.3-152.5-99.1-211-2.6-9-5.3-39.2-0.6-25.7z"  fill="#c2e1ff" /><path d="M-255.7 35.8c-3.2 7.2-10.8 39.2-17.6 41.4-6.4 2.1-7.5-9-0.8-8.2 6.7 0.8 3 11.3-2.7 7.8-6.4-3.9 9.1-42.6 13.9-46.4 4-3.2 8.4 1.2 7.2 5.4z"  fill="#fff500" /><path d="M-248.9-8c-26.6 59.1-38.8 85.1-40 85.5-6.1 2.3-7.6-8.5-1.1-7.9 6.5 0.5 3.3 10.9-2.4 7.7-11.5-6.5 29.1-82.3 35.6-90.3 3.6-4.5 9.5 0.1 7.9 5z"  fill="#005bbb" /><path d="M-242.3-63.9c-9.9 42.1-40.9 72.7-56.2 112.3-2 5.1-5 28.3-10.5 28.9-6.1 0.7-5.1-9.4 0.8-7.5 5 1.7 2 9.4-2.8 7.2-19.2-8.8 40.8-97.9 46.1-107.7 6.3-11.5 8.8-25.1 15-36.3 2.5-4.5 8.3-1.4 7.6 3.1z"  fill="#c2e1ff" /><path d="M-190.5-399.4c28.1 80.6 6.3 139.8 61.8 240.7 12.5 22.8 58.7 74.7 63.1 93.8 0.8 3.3-5 2.4-3.3-0.5 1.7-2.9 5.3 1.7 2.1 2.6-3.5 1-19.7-27.6-22.5-31.4-67.8-94.6-83.2-155.5-98.6-269-1.6-11.6-6.7-23.8-7.4-35.3-0.2-3.1 3.8-3.4 4.8-0.9z"  fill="#fff500" /><path d="M-230.2-158.8c25.4 73.5 32.3 155 42.7 231.8 0.7 5.5-8.3 3.3-5.4-1.1 3-4.5 8.4 3.3 3.1 4.4-5.2 1.2-17-93.2-18.6-103.7-6.2-41.8-12.1-84.2-24.9-124.6-0.8-2.4-0.2-13.6 3.1-6.8z"  fill="#fff" /><path d="M-221.9 15.7c-1.2 7.8-8.8 63.4-16.4 61.4-5.3-1.3-2.7-9.5 2.3-7.6 5.1 1.9 1.7 9.7-3.1 7.3-5.1-2.5 6-58.5 10.3-64.2 2.6-3.4 7.1-0.7 6.9 3.1z"  fill="#fff500" /><path d="M-216.8-167.9c25.3 60.8 48.2 110.6 96.4 157 8 7.7 72.1 76.2 59.1 86.4-2.9 2.2-5.5-3.2-1.9-4.1 4.1-1 3 6.3-0.6 4.2-2.5-1.5-24.9-47.5-30.9-55.2-29.2-38-68.5-64.7-91.9-107.6-4.7-8.7-35.8-76.4-34.4-80.5 0.7-2.1 3.3-1.8 4.2-0.2z"  fill="#fff500" /><path d="M-208.6 1c0.1 8.6 1.8 76.3-5.6 75.7-4.8-0.4-3.7-7.9 1-7 4.7 0.9 2.8 8.2-1.7 6.8-6.2-1.9-1.6-25.3-1.4-30.3 0.6-14.3-2.2-32.3 1-46 1-4 6.2-2.9 6.7 0.8z"  fill="#005bbb" /><path d="M-203.1-161.9c49.5 111.5 106.3 119.7 142.5 191.6 2.8 5.5 21.2 42.3 15.4 45.9-3.5 2.2-5.8-4.3-1.7-4.8 4.8-0.6 2.7 7.5-1.2 4.7-3.4-2.5-23.6-59.1-31.2-70.1-29.6-43-75.8-70.2-102.9-115.7-9.5-15.9-30.5-67.5-20.9-51.6z"  fill="#005bbb" /><path d="M-195.5-312.5c8.3 46.4 23.5 92.9 44 135.3 35.3 73.5 101.1 123.5 119.9 205.7 1.4 6.2 12.1 45.1 6 47.8-5.1 2.2-5.5-7.5-0.1-5.6 4.5 1.6 0.3 8.3-3.2 5-5.7-5.6-13.8-76.4-28.2-106.1-36.5-75.2-86.8-104.2-120.5-198.1-9.7-26.9-18.7-54.7-23.5-83-0.6-3.8 4.6-4.5 5.6-1z"  fill="#fff500" /><path d="M-183-399c30.3 88.8-1.8 147.5 70.8 261.5 13.9 21.9 88.1 124.2 79.1 145.6-1.7 4-7.5-0.2-4.3-3.1 3.2-2.9 6.7 3.3 2.6 4.6-5.4 1.7-8.1-18.8-9.2-22.4-6.5-20.2-15.7-39.4-26.7-57.5-27.3-44.7-60.5-83.8-79.3-133.4-21.5-56.7-22.8-113.4-32.9-172.2-1-6.2-6.1-16.8-5-22.8 0.5-2.7 3.9-2.5 4.9-0.3z"  fill="#fff" /><path d="M-182.5-214.9c43.8 107.5 121.2 151.3 145.9 238.6 1.8 6.5 14.9 49.3 8.6 52.1-3.1 1.4-5.8-3-3.1-5 3.2-2.4 6.8 2.8 3.3 4.9-6.6 4-7.6-21-8.2-24.5-5.1-27.5-12.8-54.4-26.3-78.9-34.9-63.5-86.3-98.3-118.5-171.6-0.9-2-6.2-23.6-1.7-15.6z"  fill="#fff" /><path d="M-176.1-52c25.7 45.9 69.7 77.9 94.3 124.7 1.7 3.2-4.5 3.9-3.6 0.4 0.9-3.5 6 0.2 2.9 2.2-2 1.3-24.7-35.7-28-40.1-21.2-27.6-47.5-50.8-66-80.6-0.9-1.5-3.5-11.7 0.4-6.6z"  fill="#fff" /><path d="M-158.8-399.2c25.7 84.7-10.5 137.3 51 249 12.9 23.5 86.1 134.5 76.9 155.2-1.8 4-7.6-0.3-4.4-3.2 3.3-2.9 6.8 3.5 2.6 4.7-0.3 0.1-27.9-70.7-32.3-78.7-26-48-59.1-90.4-75.5-143.2-16.6-53.5-13.1-106-19.4-160.7-2.7-23.2-2.5-32.4 1.1-23.1z"  fill="#005bbb" /><path d="M-162.8-97.9c26.2 36.2 65 60.7 90.7 97.2 5.4 7.7 41.1 70 30.7 76.1-3.1 1.8-5.8-3.3-2.5-4.7 2.8-1.3 5.2 2.7 2.7 4.6-5.5 4.1-7.5-13.8-8.2-16.2-6.3-21.4-14.8-42.1-27.3-60.6-23.5-34.5-59.3-57.7-85.1-90.2-0.6-0.8-4.9-10.2-1-6.2z"  fill="#005bbb" /><path d="M-156-20.9c10.9 14.1 75.3 82.5 73.6 94.7-0.4 3.1-5.2 1.3-3.6-1.4 1.7-2.6 5.3 1.1 2.7 2.8-1.9 1.2-24.4-35.1-27.7-39.5-14.7-19.1-32.2-36-47.3-54.8-1.2-1.5 1-3.1 2.3-1.8z"  fill="#fff500" /><path d="M-148.7 40.1c2.4 4.1 21.9 33.2 19 34.7-2.1 1.2-3.8-2.3-1.6-3.2 2.3-0.9 3.5 2.7 1.2 3.4-2.1 0.6-27.6-46.3-18.6-34.9z"  fill="#fff" /><path d="M-140.5-260.5c15.1 102 92.6 174.4 112.8 273.9 1.6 7.6 13.5 60 6.5 62.8-5.4 2.1-5.4-7.9 0-5.8 4.6 1.8 0 8.6-3.4 5-3.2-3.4-15.3-90.9-20.5-106.2-21-61.1-65.6-110.2-86.8-171.2-5.7-16.4-15.9-40.6-14.5-58.2 0.3-3.6 5-3.3 5.9-0.3z"  fill="#005bbb" /><path d="M-135.7-81.8c41.5 43.5 80.1 77.7 96.3 138 1 3.6 6.3 15.7 3.4 18.8-2.6 2.8-6.7-1.5-3.8-4 2.9-2.5 6.5 2.2 3.4 4.4-5.8 4-7.5-15.5-8.1-17.8-5.5-21.6-12.9-42.7-24.5-61.9-16.9-28.1-41.6-49.1-64.5-72-0.1-0.1-5.9-8.5-2.2-5.5z"  fill="#fff" /><path d=""  fill="#c2e1ff" /><path d="M-121.6-125.9c44.5 61.1 81.3 100.6 94.5 178.4 0.7 4.1 6.2 21.6 1.4 23.8-4.4 1.9-5.9-5.9-1.1-5.8 5.6 0.1 1.8 9.1-2.2 5.1-3.6-3.5-17.5-81.5-23.9-96.2-16.2-37.4-43.4-67-67.9-99.1-0.5-0.7-4.8-10.4-0.8-6.2z"  fill="#fff" /><path d="M-115-96.9c38.8 43.8 70.5 84.4 83 143 1 4.5 8.3 27.3 3.3 29.7-4.2 2-5.9-5.6-1.2-5.6 5.5 0 2 8.8-2 5-3.4-3.2-17.3-72.3-23.2-85.3-14.3-31.9-37.2-57.6-60.3-83.3-1-1.1-2.3-5.8 0.4-3.5z"  fill="#c2e1ff" /><path d="M-106.4-216.6c17.6 82.9 71.3 150.8 83.8 236 1.1 7.2 10.4 54.4 3.9 56.9-5.5 2.1-5.3-8.1 0.1-5.9 4.6 1.9-0.2 8.8-3.6 5-3.3-3.7-12.7-92.8-16.8-107.7-16.7-61.2-54.6-113.7-70.8-175-0.8-2.9 0.3-18 3.4-9.3z"  fill="#c2e1ff" /><path d="M-100.3-167.9c17 39.9 41.5 76 57.3 116.5 23.6 60.9 30.8 124.8 23.3 127.7-4.7 1.8-5.9-6.4-0.9-6.1 5.8 0.4 1.5 9.6-2.5 5.3-3.2-3.5-13.6-91.3-18-106.1-14.1-47.6-41.8-88.6-62.2-133.4-1.3-2.9 0.6-8 3-3.9z"  fill="#fff" /><path d="M-91.8-329.7c-15.4 169 62.4 227.4 75.4 387.6 0.3 3.9 4.1 16.7-0.9 18.5-4.1 1.5-6.1-5.1-1.8-6.1 4.2-1 5.5 5.7 1.2 6.3-2.7 0.4-14.4-96.8-16.9-108-16.7-74-59.3-139.4-66-216-2.1-24.3-6.2-60.4 1.9-83.8 1.5-4.3 7-2.5 7.1 1.5z"  fill="#fff500" /><path d="M-87.4-79.9c29.5 36.8 49.1 76.5 58.1 122.9 0.9 4.9 8.5 30.8 3.2 33.1-4.4 1.9-5.9-5.8-1.2-5.7 5.6 0.1 1.8 9.1-2.1 5.1-3.1-3-13.2-65.7-17-76.8-9-26.4-23-50.4-40-72.5-0.3-0.4-5.1-10.1-1-6.1z"  fill="#fff500" /><path d="M-79.1-189.7c27.6 110 54.6 129.7 64.2 259.5 0.5 6.1-6.3 9-6.1 3.3 0.3-8.3 11.9 2.2 3.6 3.3-2.6 0.3-14.5-101.2-17-112.8-11.2-50.6-34.4-97-48.4-146.6-0.9-3.1 0.8-13.9 3.7-6.7z"  fill="#c2e1ff" /><path d="M-73.6-53.9c22.3 30.1 35.7 64.1 43.1 100.6 0.9 4.5 8 27.4 3 29.7-4.3 2-5.9-5.7-1.2-5.6 5.5 0 1.9 8.9-2.1 5.1-8.8-8.4-9.2-47.8-12.9-60.6-7.2-24.5-18.4-46.2-32.5-67.4-1.2-1.8 1.2-3.3 2.6-1.8z"  fill="#005bbb" /><path d="M-66.3 21.1c5.6 9.7 25.6 41.9 21.4 53-1.4 3.8-7.1 0.1-4.2-2.7 2.9-2.9 6.5 2.9 2.7 4.2-5.2 1.9-9.2-20.4-10.5-23.8-2.9-8.1-12.9-21.6-13-29.8 0-2.1 2.5-2.5 3.6-0.9z"  fill="#c2e1ff" /><path d="M-59.5-43.9c14.5 24.6 41.1 89.4 35.8 117.8-0.9 4.7-8.2 1.6-5.4-2.3 3.2-4.6 8.5 3.6 3 4.7-4.8 0.9-11.7-51-13.4-57.8-1.9-7.9-23.6-61.7-23.5-61.9 0.4-1.8 2.6-1.8 3.5-0.5z"  fill="#c2e1ff" /><path d="M-52.3 5.1c6 12.7 27 55.8 20.5 69.3-2 4.1-7.9-0.6-4.4-3.5 3.5-2.9 6.9 3.8 2.5 5-5.8 1.5-8.4-25.3-9.5-29.6-0.7-2.8-17.3-54.9-9.1-41.2z"  fill="#c2e1ff" /><path d="M-45.2 12.2c4.5 11.7 21.5 50.5 15.6 62.2-2.1 4.1-8-0.7-4.3-3.6 3.6-2.9 6.9 4 2.4 5.1-6 1.4-7.2-21.5-8-25.2-4.1-19-11-49-5.7-38.5z"  fill="#c2e1ff" /><path d="M-37.9-113.6c6.5 26.3 36.7 171.6 25.2 188.6-2.9 4.3-8.8-1.9-4.4-4.6 4.4-2.7 7.2 5.4 2.1 6.1-5.5 0.6-8-72.6-8.9-81.6-1.8-17.6-21.2-100.7-19.3-108.6 0.7-2.9 4.4-2.4 5.3 0.1z"  fill="#fff500" /><path d="M-21.2-399.2c16.6 63.9 51.4 126.2 58.6 192 5.9 53.6-13.4 105.2-23.9 157-1.6 8-5.8 59.7-12.2 60.7-6.9 1.1-4.3-10.7 1.5-6.8 5.8 3.9-4.3 10.7-5.8 3.9-7.5-34.2 34.3-148.3 34.7-197.7 0.5-68.3-37.8-131.7-55.1-196.5-0.6-2.1-1.5-22 2.2-12.6z"  fill="#c2e1ff" /><path d=""  fill="#005bbb" /><path d="M-16.9-26.3c1.1 10.7 9.7 103.3 2.8 103.3-4.5 0-4-7 0.4-6.6 5.2 0.6 2.4 8.8-2.1 6.1-6.1-3.7-3.1-36.5-3.4-43.6-0.8-18.4-6.6-41.3-3.9-59.4 0.6-3.8 5.5-3.2 6.2 0.2z"  fill="#fff500" /><path d="M-10.8-388.8c20.5 64.8 69 123.9 73.6 192.8 4.6 68.8-36.5 132-49.5 198.1-1.3 6.4-4.4 47.9-10.9 46.9-4.3-0.7-4-7.2 0.4-7.5 5.1-0.3 5.1 7.7 0 7.5-8.1-0.4 0.2-34.2 1.2-39.7 11-66.8 51.2-129.8 52.3-197.7 1.1-68.5-46.2-125.5-68.1-187.8-0.7-2.1-3-21.2 1-12.6z"  fill="#c2e1ff" /><path d="M-2.7-76.9c-0.6 15.1-2.4 153.9-6.7 153.8-4.6-0.2-3.9-7.4 0.7-6.8 4.5 0.7 3.1 7.8-1.4 6.7-6.1-1.6-2.7-25.8-2.7-30.8 0.2-36 1-72.1 2.4-108.1 0.8-20.5 7.4-18 7.7-14.8z"  fill="#fff500" /><path d="M2.9-309.8c12.9 36.8 27 73.6 29.1 113 3.6 66.1-21.8 131.7-28.6 197.1-0.9 8.7-3.2 76.7-8.4 76.3-5.5-0.4-2.9-9.2 2-6.5 4.8 2.7-1.2 9.5-4.5 5.1-6.3-8.5 0.7-41.4 1.5-52 4.5-63.4 22.7-123.8 29.8-186.6 5.8-50.3-8.2-95.8-24.7-142.6-1.2-3.3 1.6-8.4 3.8-3.8z"  fill="#005bbb" /><path d="M14.7-399.1c25.6 48.4 71.7 78 102.4 122.1 54.4 78.5 41.4 164.4-9.7 239.1-3.5 5.1-16.6 31.9-24.3 26.2-4.8-3.5-0.3-11.2 5.1-8.8 4.6 2.1 3.6 9.2-1.4 9.8-3.5 0.4-6.5-2.9-5.6-6.4 4.5-17.3 24.7-36.5 34.3-51.8 25.6-40.6 36.8-84.5 28-132.1-16.6-89-85.1-118.7-128-189.1-0.9-1.5-5-14.9-0.8-9z"  fill="#fff" /><path d="M18.1 70.5c-2.1 15-12.2-0.7-4.4-1 8.3-0.2 0.9 12.9-3.2 5.7-4.3-7.5 7.7-12.8 7.6-4.7z"  fill="#fff" /><path d="M24.6-185c0.4 63.3-18.7 126-23.7 189.1-0.7 8.4-1.5 72.8-7 72.5-5.5-0.3-3-9.1 1.9-6.5 4.8 2.6-1.1 9.5-4.5 5.1-4.8-6.4 3.2-85.5 4.6-98.6 5.3-52.1 19.8-103.8 21.6-156.2 0.1-4.3 6.1-14.4 7.1-5.4z"  fill="#c2e1ff" /><path d=""  fill="#c2e1ff" /><path d=""  fill="#fff" /><path d="M45.7-137c-13 55.5-33.4 107.5-39.9 164.7-0.9 7.8 0.6 45.2-5.3 48.8-4.8 3-7.9-5.8-2.4-6.5 5.6-0.7 4.7 8.6-0.6 6.9-7.5-2.4 0.7-49.3 1.6-56.8 4.6-39.6 21-125.9 39-160 2.4-4.5 8.2-1.5 7.6 2.9z"  fill="#005bbb" /><path d="M52.2-178.8c-2.4 64.8-34.9 125.9-44.2 190.1-1.3 9.1-3.9 61.4-6.6 64.7-4.2 5.1-9.7-4.9-3.2-5.8 5.6-0.7 4.7 8.6-0.6 6.9-6.5-2.1-1.1-28.5-0.7-33.8 3.7-45.4 12.9-89.4 26.5-133 4.2-13.6 19.7-87.2 22.1-91.2 2.1-3.4 6.5-1.3 6.7 2.1z"  fill="#005bbb" /><path d=""  fill="#fff" /><path d="M63-351.7c20.1 18.9 42.1 35.8 59.7 57.1 39.7 48.1 60.6 121.5 44.9 182.7-11.7 45.8-43.9 81.6-67.9 121.2-3.7 6.2-18.9 43.1-25.5 40-4.8-2.3-2.2-9.8 3-8.6 5.2 1.2 4.2 9.1-1.1 9.1-11.3-0.1 4.7-26.4 6.8-30.6 31-60.4 84.4-108.9 82.7-181.5-1.2-52.9-22-107.2-58.3-145.8-13.7-14.5-29.2-27.2-44-40.6-0.7-0.6-3-4.9-0.3-3z"  fill="#c2e1ff" /><path d="M69.7-357.7c20.8 18.1 43.3 34.3 61.4 55.3 41.5 48.3 65.8 126.5 51.7 189.5-10.1 44.9-40.7 80.3-64.2 118.7-3.6 5.8-17.4 39.6-24.3 36.1-4.8-2.4-2-9.9 3.2-8.6 5.2 1.3 4.1 9.3-1.3 9.1-12.3-0.4 12.9-40.2 15.6-44.7 32.2-53.3 72.6-99.2 67.3-165.5-4.2-52.3-24.7-107.1-61.2-145.3-14.6-15.3-31.4-28.1-47.6-41.7-0.4-0.4-3.2-4.5-0.6-2.9z"  fill="#005bbb" /><path d="M77.7-266.9c66.7 112.9-14.6 177.5-48 279.8-2.6 7.9-13.3 65-17.9 64.3-5.1-0.9-3.2-8.8 1.7-7.4 5.8 1.7 1 10.4-3.6 6.5-6.5-5.7 4.9-41 6.9-48.8 14.6-59.2 53.7-106.1 72.1-163.3 9.9-30.7 10.2-63.4 0.6-94.3-0.9-3-20-48-11.8-36.8z"  fill="#005bbb" /><path d="M87.1 48.6c-2.2 5.4-6.4 28.7-12.6 28.9-5.6 0.1-5.3-8.8 0.2-8.3 6.6 0.6 3.3 11-2.4 7.7-12.5-7.1 20.7-52.3 14.8-28.3z"  fill="#c2e1ff" /><path d=""  fill="#005bbb" /><path d=""  fill="#c2e1ff" /><path d="M133.5-399c22.5 17.8 45.2 35.7 63 58.5 31.3 40.1 77.4 145.7 78.9 196.4 0.6 22.7-6 44.4-17.5 63.9-6.4 10.8-23.7 43.2-36 46.1-11.7 2.7-4.9-18 2.9-8.9 6.7 7.7-10.1 13.5-9.6 3.3 0.5-11 24-30.8 30.5-40.3 22.4-32.6 27.6-67.9 16.7-105.8-18.2-63.3-46.4-137.1-95.2-182.9-4.6-4.3-34.3-30.7-33.7-30.3z"  fill="#c2e1ff" /><path d="M114.4-122.6c-16.9 53.1-57 95-76.1 147.4-3.1 8.4-8.8 49.2-15.5 52.2-5.7 2.6-7.8-7.5-1.6-7.5 6.2 0 3.9 10.1-1.7 7.4-9.1-4.3 10.2-54.9 13.2-62.8 4.8-12.9 69.9-136.9 74.6-141.3 3.5-3.3 8 0.6 7.1 4.6z"  fill="#fff" /><path d="M117.8-332.7c62 52.9 103.3 159.7 74.8 239.5-16.5 46.4-52.5 82.5-72.6 127.1-2.8 6.2-12.3 44.2-17.6 43-5.2-1.2-2.9-9.3 2.2-7.5 4.3 1.5 2.8 8.1-1.8 7.6-8.8-1 2.2-29 3.9-33.9 22.3-65.7 84.8-114.4 87.7-186.8 2.2-53.6-19-117.2-51.6-159.6-7.8-10.2-35.6-36.7-25-29.4z"  fill="#c2e1ff" /><path d="M124.4-396.6c23.7 18.2 47.6 36.3 66.3 59.9 36.1 45.7 85.1 157.3 74.6 216-7.1 39.5-35.3 69.6-59.1 100.1-3.3 4.3-12.6 23.1-19.7 17.6-4.8-3.7 0-11.4 5.4-8.8 4.6 2.2 3.4 9.4-1.7 9.8-4.3 0.4-7.2-4.6-4.8-8.1 14.4-20.9 31.3-39.9 46.2-60.5 23.7-32.7 34-67.8 24.5-107.7-15.3-64.4-45.5-140.8-94.8-186.3-11.4-10.5-23.6-19.9-35.9-29.4-0.7-0.6-1.7-3-1-2.6z"  fill="#c2e1ff" /><path d="M135.1 34.6c-3 7.1-7.7 39.4-12.8 42.1-5.2 2.8-7.8-6.7-2-7 5.9-0.3 4.3 9.4-1.2 7.2-7-2.8 3.5-46.6 10.7-48.3 3.8-0.9 6.1 2.7 5.3 6z"  fill="#005bbb" /><path d="M141-178.1c5.9 79.5-50.9 130.6-83.1 196.9-4.4 9.1-15.1 55.5-22.2 58.3-6 2.4-7.7-8.2-1.2-7.9 6.4 0.4 3.5 10.7-2.2 7.7-10.6-5.7 17.8-64.1 22.1-72.6 16.4-32.2 39.4-60.2 57-91.8 9.6-17.3 17.1-35.8 20.6-55.3 2.1-11.7 0.2-24.4 2.5-35.8 0.8-3.9 5.9-3 6.5 0.5z"  fill="#fff" /><path d="M147.1-216.7c31.6 109.3-34.9 156.3-78.4 244.9-3.3 6.7-16.9 51.1-22.8 49.2-6.3-2-0.8-11.5 4.1-7 4.9 4.4-4.1 10.8-6.7 4.6-10.7-25.3 77.1-143.7 90.4-172.5 12.5-27.3 17.1-57 14-86.9-1.1-10.3-5.6-21.4-5.8-31.6-0.1-3.2 4.1-3.4 5.2-0.7z"  fill="#005bbb" /><path d="M180.2-399.4c17.7 16.7 34.4 34.2 47.7 54.7 27.6 42.5 80.4 155.5 79.9 205-0.2 25.8-10.3 49.5-25.9 69.8-7.4 9.6-26.8 38.4-38.9 40-10.6 1.5-6.1-16.6 2.6-10.3 10.2 7.3-10.7 16.4-9 3.9 1.4-10.5 25.1-26.7 32.2-34.8 24.7-28.2 37.2-61.4 29.7-98.9-10.7-53.7-65-170-102.1-210.1-2.5-2.7-18.4-20.9-16.2-19.3z"  fill="#fff" /><path d="M160-275.9c31.8 56 49.9 131 23.8 192.3-18.6 43.6-52.4 78.7-71.2 122.2-2.5 5.8-10.3 40.2-16.3 38.7-5.2-1.3-2.7-9.4 2.4-7.6 4.3 1.6 2.7 8.3-1.9 7.7-8.6-1.2 2-27.3 3.5-31.9 19.9-58.9 71.7-102.7 85.7-163.8 11-47.9-3.9-101.9-24.3-145.4-0.4-0.8-6.4-18.8-1.7-12.2z"  fill="#fff500" /><path d="M168.4-168.2c6.1 79.9-49.8 130.5-83.7 196.5-3.4 6.6-17.8 50.7-23.7 48.8-7.4-2.4 1.3-12.8 5-6 3.2 5.8-7.4 8.9-7.8 2.3-2.6-41.5 59.3-112.7 79.6-148 10.4-18.1 18.5-37.5 22-58.1 1.7-10.1-1.7-27.9 2.4-36.7 1.5-3.3 5.7-1.9 6.2 1.2z"  fill="#fff500" /><path d=""  fill="#c2e1ff" /><path d="M181.5-206.6c28.7 108.4-27.7 147.4-71.8 235.9-3.3 6.6-16.4 49.5-21.5 48.1-6.2-1.7-1.2-11.1 3.7-7 4.9 4.1-3.6 10.6-6.3 4.8-10.8-23.3 72.2-138.4 84.4-165.7 10.4-23.3 14.7-48.4 12.9-73.9-0.9-13.7-6.7-28.2-6.7-41.6 0-3.3 4.3-3.4 5.3-0.6z"  fill="#c2e1ff" /><path d=""  fill="#fff" /><path d="M195.6-169.3c10.4 78.2-40.6 127.4-74.3 191.6-4.5 8.6-15 51.8-21.4 54.6-5.8 2.5-7.8-7.8-1.5-7.6 6.3 0.2 3.8 10.3-1.9 7.5-23.1-11.4 67.4-140.5 74.7-154.4 9.2-17.5 15.9-36.2 18.3-55.9 1.2-10.2-3.3-27.7 0.2-36.6 1.3-3.2 5.3-2.1 5.9 0.8z"  fill="#005bbb" /><path d="M241.5-399.6c29.8 39 44.1 84 62.1 128.9 27 67.3 68 139.1 13.9 204.7-4.8 5.8-20.7 27.5-29.2 25.2-6.7-1.8-5.1-12 1.8-11.7 6.9 0.3 7.6 10.6 0.8 11.8-27.2 4.8 28.6-45.5 31.1-49.5 16.3-25.5 19.7-55.4 13.3-84.7-9.1-42-62.6-171.8-85.9-207.8-0.9-1.4-12.5-21.7-7.9-16.9z"  fill="#005bbb" /><path d="M208.5-240.8c18.1 49.1 33.9 101.4 12.8 152.1-18.6 44.6-55.5 78.8-73.4 123.8-2.8 7.1-6.1 38.4-11.2 41.3-4.9 2.9-7.8-6.1-2.2-6.6 5.7-0.6 4.5 8.8-0.8 6.9-27.6-9.6 80-168.7 85.3-185 13.7-42.1 0.9-85.5-13.2-125.7-0.8-2.3-0.6-13.5 2.7-6.8z"  fill="#005bbb" /><path d="M214.1-388.9c42.1 47.4 123.9 216.7 105.3 279-12.9 43-51.1 68.8-81.3 99.2-4.4 4.4-17.4 25.3-24.4 19.3-4.7-4.1 0.6-11.7 6.1-8.8 4.7 2.5 3 9.8-2.3 10.1-14.2 0.6 3.6-18.8 5.9-21.4 37.8-42.9 96.4-75 93.4-140.1-2.1-45.2-63.6-180.6-91.2-218.6-1.4-2-15.3-22.2-11.5-18.7z"  fill="#fff" /><path d="M230.6-399.5c32 39.1 47.7 84.3 66.7 130.3 31.7 76.7 70 150.2-0.3 218.3-9.8 9.4-35.9 40.2-49.1 41.4-12.8 1.2-2.7-19.8 4.4-9.1 6 9.1-12.6 12.9-10.7 2.2 2-11.4 29.4-27.1 38-34.6 31.2-27 55.5-59.7 52.8-103-2.9-45.4-64.4-187.1-91.2-226.2-1.3-2-14.7-23.3-10.6-19.3z"  fill="#fff" /><path d=""  fill="#fff500" /><path d="M234.9-385.9c28.4 36.7 42.5 80.1 60.5 122.3 40.4 94.9 68.5 152.2-20.4 229-13.2 11.4-45.5 48.2-52.6 47.6-11.8-0.9 0.6-18.3 5.4-7.5 4 9.2-13.4 9.7-10 0.3 16.9-46.7 109.7-64.7 111-150.7 0.7-45.3-62.9-190-89.6-229.7-0.5-0.7-8.8-16-4.3-11.3z"  fill="#c2e1ff" /><path d="M242.8-219.8c56.6 151.2-31 141.8-74.7 256.3-2.6 6.8-4.9 36.6-9.4 39.5-4.6 3-7.8-5.5-2.4-6.3 5.4-0.8 4.8 8.3-0.5 6.7-7.1-2.1-0.3-27.2 0.9-32.2 14.2-58.5 67.1-94.5 89.5-148.6 16.1-38.9 4.8-75.9-7.9-113.8-1-3 3.1-4.3 4.5-1.6z"  fill="#c2e1ff" /><path d="M248.9-375.9c23.7 35.3 35.9 76.3 52.4 115.1 42.8 100.8 63.9 154.2-29.2 232.2-13.3 11.1-48.1 51.4-53.7 51.3-11.4-0.1-0.6-17.7 4.7-7.5 4.4 8.6-12.2 10.2-9.6 0.9 14-48.8 113.1-71.7 119.2-154.7 3.4-46.3-53.8-175.8-77.5-219.7-0.8-1.4-11.1-23.4-6.3-17.6z"  fill="#fff500" /><path d=""  fill="#005bbb" /><path d="M280-399.6c22.3 40.3 30.9 85.5 45.6 128.7 26.3 77 65.4 154-3.5 221.3-8.8 8.6-31.8 34.5-44.1 34.6-11.4 0.1-4.2-18.4 4.1-10.6 9.8 9.2-13.6 15.8-10.1 2.9 2.7-10 27.6-22.7 35.7-29.6 28.7-24.7 48.7-56.4 48.4-95.2-0.2-30.4-56.8-200.1-71.7-233.8-0.6-1.5-9.3-25.2-4.4-18.3z"  fill="#005bbb" /><path d="M306.5-399.2c15.4 41.8 19.7 86.6 32.1 129.2 19.5 66.6 56.9 136.3 11.2 201.2-4.7 6.7-16.8 25.7-25.4 26.4-10.9 1-5.5-17.2 3.1-10.4 8.6 6.8-7.8 16.3-9.5 5.4-1.2-8.3 24.5-28.9 29.6-36.7 14.3-22.3 19.9-48.5 17.5-74.9-4-44.7-25.7-86.1-36.9-129.1-8.8-33.7-13.2-68.4-23.7-101.7-0.4-1.4-1.9-17.4 2-9.4z"  fill="#c2e1ff" /><path d=""  fill="#c2e1ff" /><path d=""  fill="#fff" /><path d=""  fill="#fff" /><path d="M297.5-273.9c25.1 62.2 67.6 130.7 24.9 195.4-27.9 42.2-77.6 63.8-104.1 107.2-5 8.2-11.7 44.6-16.9 47.7-4.9 2.9-7.8-6-2.2-6.6 5.6-0.6 4.6 8.8-0.8 6.9-6.8-2.3 0.1-24.3 1.4-29 19.9-71.1 105-92.5 128.9-160 18.6-52.6-12.2-105-32.2-152.2-0.7-1.7-3-16.6 1-9.4z"  fill="#005bbb" /><path d="M304.3-247.9c26.2 59.2 52.8 121.3 7.3 178.8-28.3 35.7-71.1 57.3-95.2 96.7-6.5 10.6-13.7 46.9-17.1 49-4.8 2.9-7.8-5.9-2.2-6.5 5.6-0.6 4.6 8.7-0.7 6.8-6.9-2.3 0-24.9 1.3-29.6 19-68.4 96.8-90.7 124.3-152.6 20.9-47.1-1.5-95.3-20.8-138.7-1.3-2.9 0.6-8 3.1-3.9z"  fill="#fff500" /><path d="M311.5-299.8c22 70.1 75.3 150.7 29.8 222.4-28.3 44.5-81.5 64.2-110.8 107.6-5.4 8-13.1 43.4-18.6 46.4-5.1 2.8-7.8-6.5-2-6.9 5.8-0.4 4.4 9.2-1 7.1-6.5-2.5 0.3-21.9 1.6-26.4 21.9-73.9 115.2-91.6 137.6-164.7 18.3-59.8-20.5-121-38.8-176.1-0.7-2.1-1.4-17.4 2.2-9.4z"  fill="#c2e1ff" /><path d="M318.4-292.8c21 69.1 70.6 146.2 25.8 216.4-28.4 44.5-81.7 63.9-111.3 107-5.5 8-13.4 43.3-18.9 46.2-5.2 2.8-7.8-6.6-1.9-6.9 5.9-0.4 4.3 9.3-1.2 7.1-6.9-2.7 1.1-24.4 2.7-29.1 23.6-70.6 112.4-88.2 136.5-158.2 20.3-58.7-16.2-118.6-34-173-0.7-2.2-1.3-17.5 2.3-9.5z"  fill="#c2e1ff" /><path d="M325.7-330.5c13 66.9 61.2 158.7 43 223.8-15.3 54.9-65.4 79.6-105.1 114.7-12.1 10.7-23.2 22.9-30.8 37.3-2.2 4.2-5.8 22.8-12.4 20.7-6.3-2-0.8-11.5 4.1-7 4.8 4.5-4.1 10.7-6.7 4.6-2-4.9 3.2-14.8 5.1-19.2 27.9-67.2 115-83.9 137.9-154.8 21.8-67.6-25.1-142.2-38.5-207.6-0.5-2.4 0.1-22.6 3.4-12.5z"  fill="#005bbb" /><path d="M333.4-398.7c5.7 41.7 6.3 83.9 15.7 125 24.8 107.3 66.1 174.4-39.3 253.9-6.9 5.2-36.5 33.2-43.8 28.2-5.7-3.9-0.9-13.1 5.5-10.5 6.4 2.6 3.7 12.6-3.2 11.4-17.9-2.9 33.4-38.5 37.9-41.8 32.6-24.6 60.9-54.4 66.6-96.6 7.4-54.9-22.1-107.3-32.7-159.9-6.2-31-7.7-62.6-11.1-94.1-0.2-2.2 1.4-27.2 4.4-15.6z"  fill="#005bbb" /><path d="M338.8-206.8c54.3 143.4-46.6 145.3-109 230.8-15.9 21.7-21.7 54.4-25.2 52.7-5.2-2.6 0.8-10 4.5-5.5 3.1 3.8-3.2 8.4-5.9 4.2-2.8-4.4 0.8-15.4 1.8-20.1 15.5-68.8 90.7-90 125.2-145.3 12.8-20.6 17.9-44.5 15.5-68.5-0.1-1.4-14.3-62.8-6.9-48.3z"  fill="#fff500" /><path d="M347.7-84.5c-26.2 48.6-81.9 68.4-113.6 112-7.5 10.3-17.3 46.9-20.8 48.9-6.1 3.3-7.4-8.6-0.8-6.8 5.7 1.5 1.1 10.2-3.3 6.4-9.7-8.1 10.7-45.4 15.6-53.2 22.6-35.3 60.6-54.9 90.3-83.1 8.5-8.1 16.4-25.1 25.7-30.9 4.7-2.9 8.8 2.4 6.9 6.7z"  fill="#fff500" /><path d="M353.3-293.4c7.9 61.2 44 121.6 29.1 184.4-14.8 63-71.8 87.6-115 128.2-11.7 11.1-22 23.9-28.2 38.9-1.7 4-3.2 20.5-9.7 19-6.1-1.5-1.5-10.8 3.4-6.9 4.9 3.9-3.2 10.4-6 4.8-2.4-4.8 2.3-15.4 4-20.1 24-69.4 111.4-86.1 139.1-153.7 26.1-63.6-12.4-128.8-22.3-191.5-0.7-4.4 4.1-8.8 5.6-3.1z"  fill="#fff500" /><path d="M361.3-49.3c-29 34.7-72.9 53.3-100.6 89-5.1 6.6-14.1 35.4-19.8 37.6-6 2.3-7.6-8.2-1.2-7.8 7.5 0.5 1.9 12.3-3.2 6.8-4.2-4.5 2.9-18.5 4.8-23.1 16.8-40.2 56.6-61.7 88.6-88.1 8.3-6.8 15.4-16.7 24.1-22.7 5.6-3.8 10.7 3.3 7.3 8.3z"  fill="#fff500" /><path d="M368.1-40.3c-28.1 32.8-69.1 52.4-95.1 87-3.8 5.1-13.6 31.3-19 31.2-6.7-0.1-4.1-11 1.9-8.1 6.1 2.9-0.9 11.7-5.1 6.5-8.1-9.9 18.3-42.5 24.5-49.5 10.2-11.5 77.2-72.5 86.8-76 5.8-2.1 9.1 4.6 6 8.9z"  fill="#c2e1ff" /><path d="M375.1-61c-28 42.3-76.7 61.9-108.1 100.5-5.3 6.5-15.4 35.6-21.1 37.7-6.2 2.2-7.6-8.6-1-8 7.6 0.7 1.6 12.6-3.5 6.9-18.9-21.4 76.3-94.2 99.5-115 9.7-8.7 16.9-20.7 26.6-29.1 4.8-4.2 10.4 2 7.6 7z"  fill="#c2e1ff" /><path d="M380.7-168.4c19.6 116.7-67.7 128.5-126.8 198-8.3 9.8-15.2 21-19.3 33.2-1.1 3.1-2.1 17.9-8.9 13.7-4.5-2.8 0.3-9.7 4.5-6.4 4.2 3.3-1.3 9.6-5.1 5.9-5.4-5.2 4.4-25.5 6.8-31 23.3-51.3 81.5-70.8 116-112.6 13.9-16.8 23.4-36.8 26.8-58.4 2.3-14.3-1.4-28.4 0-42.3 0.4-3.6 5.1-3.2 6-0.1z"  fill="#c2e1ff" /><path d="M387.7-262.4c5.1 53.8 28.7 105.5 15.9 160.1-14.6 62.2-66.9 91.2-110 132.2-6 5.7-33.8 48.4-36.4 47.3-7.5-2.9 2-13.1 5.4-5.9 2.9 6.2-8.1 8.8-8.2 1.9-0.5-42.7 111.7-107.8 134.7-159.7 24.9-56.5 0.9-112.6-6.9-169.7-0.6-4.1 3.5-14.3 5.5-6.2z"  fill="#fff500" /><path d="M395.4 55.8c-1 4.3-0.9 20.5-6.3 21.5-5.8 1-5.3-8.7 0.3-7.2 5.7 1.5 1.2 10.2-3.3 6.4-11.3-9.4 10.4-33.7 9.3-20.7z"  fill="#fff" /><path d="M401-211.6c32.5 153-12.5 153.7-104 247.3-5.4 5.6-28.5 43.4-32.2 41.9-6.4-2.7 0.2-12.2 4.9-7 5.5 6-7.7 11.1-7.6 2.9 0.6-44.2 100.1-102.6 123.9-144 24.2-42.2 20.3-88.8 10.7-134.6-0.7-3.3 1.8-14.2 4.3-6.5z"  fill="#c2e1ff" /><path d=""  fill="#fff" /><path d="M416.3-13.8c-9.7 19.4-20.5 38.3-28.4 58.6-2.8 7.3-4.7 26.9-10.1 31.6-4.6 4.2-9.8-4.8-3.8-6.6 7-2.2 6 10.5-0.6 7.3-13.1-6.4 28-88.2 35-96.2 3.8-4.5 9.7 0.4 7.9 5.3z"  fill="#fff" /><path d="M423.1-319.4c-27.9 67 8.7 134.5 3.3 203.1-5.7 72.3-58.6 112.1-98.7 166.3-3.6 4.9-15 31.2-21.7 27.7-5.6-2.8-0.6-11.4 4.6-8 4.5 2.9 0.9 10.1-4.2 8.2-9-3.4 6.1-23.8 9-28.3 29.5-46.5 76.8-78.5 95.7-132 22.4-63.4-7.5-124.6-6.1-188.6 0.3-15.2 1.2-39.6 10.1-52.6 3.1-4.6 9.1-0.6 8 4.2z"  fill="#fff500" /><path d=""  fill="#c2e1ff" /><path d="M436.8-367.8c-66.5 83.2-13 154.4-18.8 244.6-4.5 68.7-52.3 108.5-98.1 153.4-3.4 3.3-14.2 18.8-19.1 9-2.9-5.8 5.2-11 9.3-5.9 3.5 4.3-1.1 10.6-6.2 8.7-12.5-4.5 12.6-24.7 16.2-28.1 31.2-29.8 65.2-57.4 81.3-98.8 28.1-72-16.4-143.1-4.8-216 3.6-22.7 13.8-59 32.6-74.3 5.1-4.1 10.6 2.4 7.6 7.4z"  fill="#005bbb" /><path d="M386.9-397.1c-13.6 32.1-20.1 67.8-18.8 102.7 2.9 75.7 51.2 150.2 9.5 223.4-3 5.3-10.1 21-17.1 20.4-10.1-0.8-2.2-16.6 4.5-9.1 5.8 6.5-6.8 13.5-9.3 5.2-1.7-5.7 28.5-37.8 32.2-78.1 5.8-64.5-30-124.5-26.5-189.6 1.3-22.6 3.7-60 17.5-79.2 3.2-4.5 9.2-0.5 8 4.3z"  fill="#fff500" /><path d="M450.3-14c-5.9 24.1-11.3 48.6-9 73.6 0.3 3.4 4.4 14.6 0.4 16.6-4 2-5.9-5.1-1.4-5.3 3.8-0.1 3.7 5.9-0.1 5.6-15.2-1.1-2.2-84.7 2.4-93.4 2.3-4.5 8.2-1.6 7.7 2.9z"  fill="#005bbb" /><path d="M456.9-266.6c-7.5 58.7 14.8 117.4 18.2 175.7 2.9 50.2-12.6 101.2-0.9 150.7 0.7 3 5.9 13.3 2.4 15.5-2.8 1.9-5.5-2.8-2.5-4.3 3.5-1.8 5.2 4.6 1.2 4.8-9.5 0.4-12.4-52.5-12.4-60.2-0.1-29.3 5.4-58.2 5.9-87.5 0.9-58.7-18.9-115-20.1-173.3-0.4-17.5 7.9-36.5 8.2-21.4z"  fill="#005bbb" /><path d="M462.9 53.5c0.7 4.2 6.4 18.7 3.8 21.8-2.6 3.1-6.8-2.2-3.1-3.9 3.7-1.8 5.2 4.8 1.2 4.8-12.2 0.2-5.3-33.4-1.9-22.7z"  fill="#fff500" /><path d="M470.5-59.7c-2.3 33.9-11.6 67.5-8.9 101.6 0.4 4.7 7.8 34.8 3 34.4-12.3-1.1 12.8-4.3 1.1-0.1-4.3 1.5-5-7.4-5.6-9.4-5.4-19.6-7.5-118.3 4.2-129.4 2.6-2.5 6.1-0.2 6.2 2.9z"  fill="#fff" /><path d="M477.8-382c-26.9 26.8-49.4 59.1-56.2 97.1-8.6 48.1 8.9 95.5 11.5 143.3 3.2 56.7-18.7 102.9-51.9 147.4-4.3 5.8-20 33.6-27.6 30.9-5.7-2-3.6-10.9 2.5-10.1 7 0.9 5 11.9-1.9 10.3-12-2.9 8.5-24.1 11.2-27.7 20.6-27.4 41.8-55 52.7-87.9 25.1-75.7-20.9-151.6-0.1-227.1 8.7-31.5 28.1-61.5 51.6-84.2 5.4-5.2 12.6 2.2 8.2 8z"  fill="#fff500" /><path d="M483.4-127.6c10.7 52.7 9.8 106.2 19.1 158.9 1.7 9.4 13.4 34.7 10.7 42.8-1.2 3.7-6.8 0.4-4.1-2.4 3.1-3.3 6.5 3.9 1.9 4.1-15.1 0.9-20.4-98.7-21.1-110.9-1.3-21.2-3.4-42.4-7-63.4-0.9-5.2-8.2-26.6-4.4-30.5 1.7-1.8 4.2-0.6 4.9 1.4z"  fill="#c2e1ff" /><path d="M490.3-98.5c8.2 44.8 7.2 90.8 16.4 135.3 1.3 6.1 12.7 34 9.4 38.3-2.4 3.1-6.6-1.8-3.1-3.7 3.5-1.8 5.2 4.4 1.3 4.7-10.4 0.6-18.6-69.3-19.5-78.4-9-89.7-8.6-109.7-4.5-96.2z"  fill="#fff500" /><path d=""  fill="#fff500" /><path d="M504.2-229.4c5.1 54.9 28.4 104.3 61.1 148 3.7 4.9 37.5 47.7 34.3 49.7-2.4 1.4-3.8-3-1.1-3.2 2.7-0.2 2.2 4.3-0.4 3.3-5.3-1.9-13.3-18.9-16.8-23.7-29.4-39.7-58.3-77.3-73-125.2-10.4-34-8-65.2-4.1-48.9z"  fill="#c2e1ff" /><path d="M510.2-133.8c25.3 69.9 63.5 132.4 76.2 206.9 0.9 5.3-7.9 3.4-5.2-1 2.8-4.5 8.2 2.9 3.1 4.3-3 0.8-21.5-74.5-24.5-83.3-14.3-41.3-36.3-79.4-52.1-120.1-0.9-2.5-0.9-13.3 2.5-6.8z"  fill="#fff" /><path d="M517-120.9c17.3 42.4 78.9 152.5 73.5 194.4-0.7 5.3-8.7 0.8-4.7-2.6 3.5-2.9 6.9 3.8 2.6 5-2.8 0.7-21.6-74.5-24.8-83.2-13.3-36.9-33.2-70.8-48.7-106.8-0.9-2.2-1.5-13 2.1-6.8z"  fill="#fff500" /><path d=""  fill="#fff" /><path d=""  fill="#fff500" /><path d="M539.6-381.3c-72.2 78.5-58.8 181.9-22.1 273.5 8.7 21.6 61.9 136.9 55.4 151.6-2 4.7-8.2-1.6-3.5-3.6 4-1.7 5.3 5.4 0.9 5.3-5.2-0.2-17-54-19.5-61.3-31.4-89.3-88.8-178.6-67.3-277.4 7-32.3 21.6-63.2 42.3-89 5.1-6.4 21.5-10.4 13.8 0.9z"  fill="#fff" /><path d=""  fill="#c2e1ff" /><path d="M551.7 21.3c1.6 6.3 16 54.1 10.9 55.1-3.6 0.7-4.4-5.1-0.7-5.4 3.7-0.3 3.8 5.5 0.1 5.5-5-0.1-6-16-6.9-19.6-6.4-25.9-8.8-49.6-3.4-35.6z"  fill="#c2e1ff" /><path d="M557.9-176.9c7.7 16.7 18.2 31.9 30.6 45.5 1.8 2 11.4 9.7 11 11.8 0 0.3-0.2 0.6-0.5 0.7-2.2 1.4-10.6-9.2-12.2-10.9-13-13.4-24.3-28.5-32.7-45.3-1.2-2.5 2.3-4.1 3.8-1.8z"  fill="#fff" /><path d="M564.7-35.9c11.8 23.5 38.8 84.1 35.4 109.7-0.6 4.5-7.7 1.9-5.3-2 2.9-4.5 8.3 3.1 3.1 4.4-4.9 1.2-12.4-43.3-14.1-49.3-2.6-9.4-26.2-56.8-22.8-62.9 0.9-1.6 2.8-1.2 3.7 0.1z"  fill="#fff500" /><path d="M571.7-24.9c6.2 13.1 34.6 87.4 29.6 97.5-2 4.1-7.9-0.6-4.4-3.5 3.5-2.9 6.9 3.9 2.5 5-5.3 1.3-10.9-36.7-12.3-42.1-3-11.5-22.6-68.7-15.4-56.9z"  fill="#fff" /><path d="M578.3-33.9c5.5 9.8 26.6 41.3 22.8 52.3-1.3 3.7-6.9 0.3-4.2-2.5 2.7-2.9 6.4 2.6 2.7 4.1-4.9 2-8.8-17.2-9.9-20.3-3.8-9.7-17.5-42.2-11.4-33.6z"  fill="#005bbb" /><path d="M586.1 37.4c1.3 5.1 11.6 38.2 5.5 39-3.9 0.5-4.4-5.6-0.4-5.7 3.9-0.1 3.7 6-0.2 5.8-4.5-0.4-4.2-10.4-4.8-13.4-5.1-24.9-3.5-34.6-0.1-25.7z"  fill="#005bbb" /><path d=""  fill="#c2e1ff" /><path d=""  fill="#fff" /><path d=""  fill="#fff" /><path d="M497.2-394.2c-44 39.8-75.9 89.4-72.7 150.7 1 19.2 20.2 120.1 12.8 129-3.7 4.4-9.4-3.1-4.3-5.5 6-2.8 6.7 8.7 0.4 6.6-5.6-1.8-2.5-33.9-3.1-40-5.3-61-25.3-119.3 3.4-177.8 11.4-23.3 33.3-59.4 56.7-72.4 6.3-3.5 10.9 4.5 6.8 9.4z"  fill="#c2e1ff" /><path d=""  fill="#fff" /><path d="M538.3-394.2c-54.9 51-78.7 119.5-67.3 193.3 4.2 26.9 27.5 99.7 24 121.2-0.9 5.4-9.1 0.5-4.7-2.8 4.4-3.3 6.9 5.9 1.5 5.3-5.6-0.6-8.2-33.2-9.3-38.7-14-68.1-35.1-137.3-7.7-204.9 10.6-26.1 31.1-67.7 56.6-82.6 6.1-3.6 10.9 4.3 6.9 9.2z"  fill="#c2e1ff" /><path d=""  fill="#fff" /><path d=""  fill="#fff" /><path d=""  fill="#fff" /><path d="M546.7-394.1c-49.3 45.8-74.5 110.7-66.8 177.6 3.2 27.8 10.1 55.1 17.8 81.9 0.9 3.2 10.3 24.9 3.7 24.4-12.3-1 12.6-4.4 1.1-0.1-3.9 1.4-4.7-6-5.3-7.9-20.5-66.4-38.2-136.9-11.8-204.3 10-25.6 29.4-66.3 54.3-80.8 6.1-3.6 10.9 4.3 7 9.2z"  fill="#c2e1ff" /><path d=""  fill="#005bbb" /><path d=""  fill="#fff" /><path d=""  fill="#005bbb" /><path d=""  fill="#fff500" /><path d=""  fill="#fff500" /><path d=""  fill="#fff500" /></svg>