<svg width="1200" height="675" viewBox="-500 -500 1200 675" xmlns="http://www.w3.org/2000/svg"><path d="M-500-500h1200v675h-1200z" fill="#000"/><path d=""  fill="#fff500" /><path d=""  fill="#fff" /><path d=""  fill="#fff" /><path d=""  fill="#fff500" /><path d=""  fill="#fff" /><path d=""  fill="#005bbb" /><path d=""  fill="#fff500" /><path d=""  fill="#fff" /><path d=""  fill="#fff500" /><path d=""  fill="#fff500" /><path d=""  fill="#fff500" /><path d=""  fill="#005bbb" /><path d=""  fill="#fff" /><path d=""  fill="#c2e1ff" /><path d="M-383.2 53c-0.2 4.5 3.5 21.4-1.4 23.5-4.4 1.9-7-5.3-2.4-6.7 5.4-1.6 6.1 7.7 0.5 6.9-15.8-2.2 1.4-38.8 3.3-23.7z"  fill="#fff500" /><path d="M-374.5-328.8c-3.6 14.2-8.7 61.4-21.4 69.3-7.2 4.4-11.8-8.7-3.5-9.8 8.4-1 7 12.9-0.9 10.3-9.1-2.9 2.3-22.2 4-27.4 4.5-14.1 5.9-32.9 12.8-45.9 2.8-5.3 9.7-1.7 9 3.5z"  fill="#fff500" /><path d="M-367.1 37.9c-0.2 6.5 6.4 33.6 3.2 37.4-3.1 3.7-8-2.7-3.6-4.8 4.4-2 6.1 5.8 1.3 5.9-7.2 0-10.1-33.9-8.9-39.3 1.1-4.8 7.4-3.5 8 0.8z"  fill="#005bbb" /><path d="M-369.8-396.6c-3.2 8.6-21.7 65.6-31.1 61.1-6.6-3.2-1-13.3 5.3-9.5 6.2 3.9-0.5 13.4-6.3 8.9-5.6-4.4 17.5-60.9 23.7-66.3 4.4-3.9 9.7 1 8.4 5.8z"  fill="#fff" /><path d=""  fill="#fff" /><path d="M-342.4-204.1c-2.8 15.3-34.7 126.2-58.9 114.2-8-4-1-16.3 6.5-11.5 7.5 4.8-0.7 16.3-7.7 10.7-8.5-6.8 19.1-34.4 23.5-41.7 9.7-16.3 23.5-69.6 28.4-75.6 3.3-4 8.6-0.6 8.2 3.9z"  fill="#fff" /><path d="M-334.6-235.6c-3.9 51.1-18 103-49.9 143.9-3.1 4-7.6 12.1-13 13.1-8.9 1.6-10.6-12.5-1.6-13.1 10.5-0.7 7.9 16.6-2 12.8-11.2-4.3 27-48.1 35.8-68.1 13-29.5 12.1-61.1 22.3-90.4 1.7-5 8.3-2.9 8.4 1.8z"  fill="#005bbb" /><path d="M-323.4-398.8c1.7 65.5 23.3 127.9 26.1 193.2 2.5 58-14 111-24.8 167.2-0.8 4.4-9.5 15.1-10 4.5-0.7-14.3 18.3 5.9 4 4.3-9.6-1.1 1.1-31.5 2.4-37.2 9.1-39.2 19-78.1 20.4-118.5 2.4-70.4-22.7-137.1-25.7-207-0.2-5.3 6-16.5 7.6-6.5z"  fill="#c2e1ff" /><path d=""  fill="#fff500" /><path d=""  fill="#c2e1ff" /><path d="M-291.4-399.4c35 124.4 125.5 179.9 128.8 351.7 0.1 5.7 3.1 29-4.1 30.3-4.9 1-7.1-6.2-2.6-8.1 5.4-2.3 8.6 6.3 3 8-9.3 2.9-4.3-34.4-4.4-40.2-1.3-41.2-12-82.1-23.6-121.4-21.9-74.8-74-133.1-98.9-206.1-1-2.9-2.6-24.4 1.8-14.2z"  fill="#fff" /><path d=""  fill="#005bbb" /><path d="M-287.9-368c17.8 52.4 52.7 96.3 73 147.5 30.2 76 38.2 159.1 35 240.1-0.3 7.3 2.7 49.4-3.9 51.4-7.1 2.1-5.9-10.7 0.7-7.3 6.6 3.3-3.1 11.8-5.6 4.8-7.2-20.3 2.5-89.9 1.7-116.4-0.9-29.1-4.9-57.9-10.6-86.4-21.1-107.9-58.9-135.9-93.5-225.9-1.2-3.1-0.7-15.3 3.2-7.8z"  fill="#fff" /><path d="M-280.2 22.9c2.4 6 28.9 51.6 27.2 52.6-2.5 1.4-4.4-2.6-1.8-3.7 2.6-1.1 4.1 3.1 1.4 3.9-3.8 1.2-8.4-10.3-9.9-12.7-6.9-10.8-19.5-25.7-21.8-38.5-0.6-3.1 3.5-4 4.9-1.6z"  fill="#005bbb" /><path d="M-272.3-314.1c85.5 175.9 68.5 183.4 82.7 371.4 0.3 4.2 4.9 19.6-2.1 19.9-4.3 0.2-5.2-6.2-1.1-7.2 4.8-1.3 6.5 6.5 1.5 7.2-7.8 1.2-7.4-43.2-7.8-49.7-3.2-55-5.1-109.8-13.7-164.3-9.6-61-31.4-112-59.5-166.5-0.8-1.5-5-18.4 0-10.8z"  fill="#fff500" /><path d="M-262.4-141c-0.1 52.5-8.4 104.8 9.8 155.5 4.5 12.6 28.4 47.4 25.6 59.3-0.9 4-7.1 1-4.5-2.1 3-3.8 7.2 3.4 2.4 4.1-4.9 0.7-11.7-21.1-13.6-25.2-29.9-63.7-31.6-122.3-27.8-191.6 0.3-5.4 7.6-5 8.1 0z"  fill="#c2e1ff" /><path d="M-256.6 57.9c1.5 2.4 12.2 15.2 8 17.4-2.6 1.4-4.5-2.8-1.8-3.9 2.7-1.1 4.2 3.3 1.4 4.1-8.2 2.3-12.7-24-7.6-17.6z"  fill="#fff500" /><path d="M-246.3-100c0.4 44.2 4 85.9 17.8 128.1 1.9 5.7 18.8 46.8 13.1 48.3-3.9 1-5.2-5.1-1.2-5.7 3.9-0.6 4.6 5.7 0.6 5.8-4.8 0.2-6.1-11.7-7.1-14.6-13.5-40.2-27.1-79-29.9-121.7-0.8-12.3-4-29.1-1.2-41.1 1.1-4.8 7.3-3.4 7.9 0.9z"  fill="#005bbb" /><path d="M-238.5-66.2c1.9 37.1 9.6 72.4 20.2 107.8 1.4 4.8 13.1 33.3 7 34.8-4.7 1.1-4.8-7-0.1-6 4.1 0.9 2.4 7.2-1.6 5.9-4.6-1.5-6-15.8-7.2-20-11.9-40-24.4-80.1-25.9-122.1-0.2-5.1 6.8-5.2 7.6-0.4z"  fill="#005bbb" /><path d="M-177.5-399.5c25.2 42.7 55.9 80.9 84.1 121.6 22.4 32.4 42.2 66.5 64.1 99.2 5.3 7.9 50 69.1 42.3 75.1-3.4 2.6-6.4-3.7-2.3-4.8 4.1-1 4.3 6.1 0.1 5.3-4.3-0.9-7.8-15.2-9.8-19.1-15.2-30-35.9-57.1-54.1-85.3-39-60.5-83.7-117.4-121.4-178.6-0.9-1.5-8.3-20.2-3-13.4z"  fill="#c2e1ff" /><path d="M-222.5-120.3c4.5 49.1 7.3 98.1 15.8 146.7 1.1 6.3 12.1 49.4 5.6 50.3-3.9 0.5-5.3-5.2-1.6-6.5 4.3-1.6 6.4 5.4 1.9 6.4-6.9 1.7-10.5-36.8-11.5-42.3-4.2-23.4-24-139.9-17.3-155.7 1.6-3.8 6.4-2.4 7.1 1.1z"  fill="#c2e1ff" /><path d="M-216.2-265.1c36.6 61.4 65.7 147.2 65.3 219.3-0.2 28.5-6.8 56.2-12.1 84-1.2 6.5-2.3 38.1-8.7 39.3-7.9 1.5-5.2-12.2 1.5-7.8 5.7 3.7-2.3 11.7-6 5.9-5.7-9.1 3.9-38.9 5.9-49.1 6.8-35.2 14-69.6 9.8-105.6-6.7-57.6-26.3-121.1-53.3-172.5-0.5-1-7.9-20.8-2.4-13.5z"  fill="#c2e1ff" /><path d="M-176.7-399.6c47.4 80.3 184.9 242.5 201.6 322.6 0.8 3.7 5.5 16.8-1.6 17-4.4 0.1-5.3-6.4-1-7.5 4.3-1.1 6.5 5.1 2.5 7.1-7.5 3.7-8.8-26.6-10.1-31.4-8.3-29.1-25.5-54.7-42.2-79.6-24.4-36.4-46.8-74.3-71.9-110.2-25.2-36.1-53-70-76-107.5-0.7-1.1-6.4-17.1-1.3-10.5z"  fill="#c2e1ff" /><path d="M-200.4-310.1c36.1 53 114.2 205.6 109.1 267.5-3.2 38.7-27.2 69.3-42.5 103.6-1.8 4.1-5.7 22.8-13.6 16.2-3.9-3.3-0.9-9.8 4.1-9 5.9 0.9 5.4 9.8-0.6 10.2-13.1 0.8 3.6-29.8 5.8-34.2 19.9-41.7 46.4-78 36.6-126.8-10.9-54.9-65.2-170-96.8-217.3-0.5-0.7-7.3-16.1-2.1-10.2z"  fill="#fff500" /><path d="M-190.9-158.8c16.2 64.5 19.2 125.2 14.5 191.3-0.5 7.5 2.3 40-3.4 44-4.5 3.1-8.9-4.3-4.2-6.8 5.6-3 8.5 7.2 2.1 7.5-8.5 0.5 1-103.5 1.1-115.7 0.3-42.7-19.7-114-16-121 1.5-2.8 5-1.8 5.9 0.7z"  fill="#fff500" /><path d="M-183-175.9c23.1 76 28.7 131.7 16.4 210.3-1.2 7.3-0.9 38.9-6.7 42.3-5.7 3.4-9.3-7.1-2.6-7.8 5.7-0.6 6.1 8.4 0.4 8.4-8 0 9.7-113.7 9.9-127.3 0.2-25.4-24.1-121.4-23.3-125.6 0.6-3.3 4.7-2.9 5.9-0.3z"  fill="#fff" /><path d="M-174.4-92.5c2.6 16.7 6.4 170.9-6.7 170.1-6.4-0.4-3.5-10.6 2.2-7.6 5.6 3-1.3 11.1-5.2 6-8.9-11.8 2.1-56.8 3.5-71.3 2.9-32.3-3.1-72.8-0.8-97.1 0.4-4.3 6-3.8 7-0.1z"  fill="#fff" /><path d=""  fill="#c2e1ff" /><path d="M-160.1-308.1c27.1 40.7 121.4 210 123.4 251 1.7 34.2-15.4 63.1-36.3 88.7-6.5 8-29.6 46.8-38.7 47.4-12.7 1-2.3-19.6 4.5-8.8 5.8 9.1-12.7 12.6-10.6 1.9 8.6-43.7 83.3-68.6 72-145.3-5.2-35.5-89.1-188.4-112.4-224.6-0.4-0.7-7.1-16.4-1.9-10.3z"  fill="#005bbb" /><path d="M-148.9 59.4c-1.4 4.4-2.4 21-10 18.9-5.3-1.5-4-9.6 1.5-9.3 6.4 0.3 5.4 10.4-1 9.4-8-1.3-2-20.6 1.1-23.8 3.8-4 9.2 0.1 8.4 4.8z"  fill="#fff500" /><path d="M-142.1-80.5c6.8 42-4 80.3-14.2 120.6-1.5 6.1-4.4 38.9-12 37.6-7-1.3-2.4-12.1 3.3-8.1 5.8 4.1-2.9 12-6.4 5.9-8-14 11.2-58.6 15-73.6 4.6-17.9 7.4-82.9 7.4-83.1 1.3-3.7 6-2.5 6.9 0.7z"  fill="#c2e1ff" /><path d="M-132.6 46.2c-2.8 6-9.2 32.5-16.2 32.4-7.9-0.1-4.9-12.9 2.2-9.4 6.1 2.9 1 12.3-4.8 8.7-15.5-9.6 27.3-59.2 18.8-31.7z"  fill="#005bbb" /><path d="M-128.2-352.1c66.1 86.5 227.2 244.3 163.4 361.9-4.3 8-19.9 37.9-30.8 36.3-7.6-1.2-7.1-12.7 0.6-13.2 7.7-0.5 9.7 10.9 2.2 13-25.2 7.3 23.9-52 27.8-62.1 13-33.6 8-69.7-5.5-102.3-33.2-79.9-93.2-150.3-147.9-216-1.8-2.1-14.8-22.6-9.8-17.6z"  fill="#fff" /><path d="M-119.1-199.1c19.1 42.8 51 86.2 56.8 133.5 5.1 40.6-15.6 73.4-38 105.1-4.5 6.3-22.4 42.8-30 38.8-5.6-3-2.1-11.8 4-10.2 6.2 1.7 4.6 11.1-1.8 10.8-11-0.6-0.7-16.5 1.3-20.2 20-37.7 55.3-68.6 57.2-113.8 2-48.7-32.2-93.7-51.6-136.2-1.1-2.3-2.1-14.7 2.1-7.8z"  fill="#fff" /><path d="M-108.4 14.7c-8 15.3-27.1 61.6-33.6 63.4-7.9 2.2-8.6-11.3-0.5-10 8 1.3 3 13.9-3.7 9.3-8.3-5.6 21.8-67.4 30.8-70.8 5.3-1.9 8.8 3.5 7 8.1z"  fill="#c2e1ff" /><path d=""  fill="#005bbb" /><path d="M-27-399.2c105.1 78.6 99.1 135.5 126.2 254.1 1.7 7.3 16.4 53.8 10 56.9-5.6 2.8-6.5-8-0.5-6.2 5.1 1.5 0.8 9.3-3.2 5.7-7.9-7-9.4-41-11.9-51.7-11.2-48.9-17.9-100-33.7-147.7-14.4-43.3-41.4-75-77.4-102.1-1.1-0.8-12.6-10.8-9.5-9z"  fill="#c2e1ff" /><path d="M-88.2-313c72.2 80.1 196.3 232.2 120 341.1-8.5 12.1-33.9 49.4-49 51.9-14.3 2.4-4.6-22.1 4.2-10.5 7.5 9.8-13.2 15.6-11.9 3.3 1.3-12.6 29.9-32.2 38.4-41.9 28.1-32.3 41.6-71.8 33.6-114.4-13.4-71.9-76.9-158.3-124.4-212.7-1.6-1.8-15.6-20.8-10.9-16.8z"  fill="#fff" /><path d="M-80.4-332.9c22 20.8 44.9 40.7 63.8 64.6 55 69.5 120.2 195.8 79.9 283.6-5.8 12.6-23.6 50.9-38.3 54.2-11.8 2.6-8.3-18.1 1.9-11.9 12.1 7.3-10.6 19.3-9.8 5.2 0.7-12.5 26.4-34.7 33.1-46.6 21.2-37.6 22.6-79.9 11.3-120.9-21.5-78.2-67.4-155.6-126.6-210.7-2.4-2.2-18.8-20-15.3-17.5z"  fill="#fff500" /><path d="M-68.3 40.4c-6.2 6.9-26.1 38.8-34.4 39-9.4 0.3-6.6-15.1 2.1-11.4 8.7 3.7-0.4 16.5-6.7 9.5-7-7.7 24-44.6 31.8-47.6 6.8-2.5 10.8 5.4 7.2 10.5z"  fill="#fff500" /><path d="M-60.2 36.4c-6.7 7.4-30.1 43-39.2 43.2-9.5 0.2-6.4-15.3 2.3-11.5 8.7 3.8-0.6 16.6-6.9 9.4-7.2-8.1 28.2-48.7 36.7-51.7 6.8-2.5 10.8 5.5 7.1 10.6z"  fill="#c2e1ff" /><path d="M-30.7-399c31.1 23.2 61.7 45.3 81.2 79.8 14.7 26 89.6 298.1 65.8 304.7-5.3 1.5-7.2-7-1.7-7.9 4.7-0.7 6.5 6.1 2.1 7.8-6.5 2.6-8.5-50.5-9.7-58.2-10.2-65.5-25.3-133.5-42.9-197.4-14.2-51.6-42.5-88.4-85.3-119.8-1.1-0.8-12.6-10.7-9.5-9z"  fill="#fff500" /><path d="M-46-85.8c17.5 55-13.7 95.5-46 136.4-4.6 5.8-15.3 27.9-22.4 28.6-7.8 0.7-8.2-11.6-0.4-11.5 9.1 0.2 5.6 14.9-2.6 11-12.2-5.9 50.6-80.4 56.6-91.9 6.4-12.2 10.7-25.4 11.8-39.1 0.8-10.1-5.1-24.3-3-33.4 0.8-3.3 4.9-2.8 6-0.1z"  fill="#fff500" /><path d="M-36.4-40.2c-4 35.3-27.8 62.1-49.6 88.4-4.8 5.8-21.1 35.5-28.9 30.4-6.6-4.3 0.7-14.3 6.8-9.4 6.1 5-2.2 14.2-7.8 8.6-8.5-8.6 22.2-40.5 27.8-47.2 27.7-33.2 40.3-70.3 43.5-74.4 3.1-4 8.4-0.8 8.2 3.6z"  fill="#fff" /><path d="M-31.2-155.1c52.7 79.4 58 135.1-13.1 204.8-5.8 5.7-25.8 32.8-33.7 29.5-6.8-2.8-3.7-13.3 3.5-12 8.4 1.5 5.3 14.7-2.9 12.2-13.5-4 7.5-23 11.1-26.8 26.3-28 58-52.5 66.4-92.1 8.3-39.2-10.7-76.2-31.3-108.2-0.6-1-4.7-12.9 0-7.4z"  fill="#005bbb" /><path d="M-20.1 50.9c-6 5.7-27.1 32.5-35.3 28.6-8-3.9-1.2-16.1 6.3-11.4 8.7 5.5-3.3 17.7-8.9 9.1-5.3-8.2 28.8-43.7 37.5-36.5 3.4 2.8 2.9 7.1 0.4 10.2z"  fill="#c2e1ff" /><path d="M-16-315.8c58.6 50.8 111.2 197.3 112.1 274.3 0.3 28-6 55.1-17.9 80.4-3.7 7.9-15.9 39.9-25.4 40.4-8 0.4-8-12.3 0-11.8 6.9 0.4 7.4 10.7 0.6 11.8-21 3.4 16.9-49.2 20.3-57.2 17-39.6 16.9-81.6 7.5-123-13.8-60.7-36.2-132.3-72.5-183.5-7.7-10.9-35.6-39.1-24.7-31.4z"  fill="#005bbb" /><path d=""  fill="#fff500" /><path d=""  fill="#fff500" /><path d="M11.9-40.3c-4 38.3-29.8 66.6-56.2 92.3-5.7 5.5-25.8 33.3-33.6 26.5-5.5-4.9 0.8-13.8 7.3-10.3 7.5 4.2 0.3 15.6-6.7 10.7-11.5-8.2 27.1-40 33.2-46 42.5-41.7 35.6-60.4 47.9-76.6 3-4 8.3-0.8 8.1 3.4z"  fill="#fff500" /><path d=""  fill="#fff500" /><path d=""  fill="#c2e1ff" /><path d="M36.5 30.7c-5.5 8-42 57.6-51.6 47.6-6.2-6.5 4.5-15.7 10-8.6 5.5 7.1-6.2 15.2-10.9 7.4-4-6.6 36.9-51.9 44.8-55.7 6.2-3 10.6 4.1 7.7 9.3z"  fill="#005bbb" /><path d="M73.4-399.3c28.6 76.5 28 156 39.3 235.7 5.8 41.2 15.8 81.7 22.5 122.8 0.4 2.6 3.6 13.4-3.1 11.8-4-1-3.2-7.1 0.9-7 4.1 0.1 4.7 6.2 0.6 7-10.9 2.2-35.2-200.3-36.9-221.1-4-48-10.8-95.8-26.5-141.4-0.9-2.7-0.6-15.5 3.2-7.8z"  fill="#005bbb" /><path d="M49.4-368.1c35.7 54.7 62.2 234.2 74.1 307.2 6.1 37.6 6 74.1 2.1 111.9-0.5 5.4 1.1 24.9-5.1 26.3-7.6 1.7-5.5-11.6 1.2-7.6 6.7 4-4 12.2-6.2 4.7-5.3-18.6 4.2-48.2 5.1-67.7 1.5-35.9-4.1-71.2-11.2-106.3-14.8-73.1-19.3-158.4-45-227.6-0.9-2.5-24.5-52.8-15-40.9z"  fill="#fff" /><path d="M58.2-161c28.5 70.1 42.9 142.1 0.4 209.9-4.2 6.7-16.4 31.3-25.2 30.9-11.6-0.5-3.3-18.9 4.8-10.6 8.1 8.4-10.6 16-10.8 4.4 0-0.5 45-71.3 49.5-100.3 7.2-46.2-8.4-89.6-23.7-132.3-1.2-3.4 3.4-5 5-2z"  fill="#fff500" /><path d="M68.2-32.3c-3.9 35-22.1 65.2-45 91.1-4.8 5.4-17.2 24.9-25.6 20.7-8-4-1-16.2 6.6-11.4 8.8 5.7-3.6 17.8-9.2 9-5.6-8.9 21.2-30.1 26.7-36.5 26.5-31 30.8-66.1 38.4-76.3 3-4 8.2-0.9 8.1 3.4z"  fill="#fff500" /><path d="M76.8 25.3c-3.6 8.4-28.1 61.1-38.8 52.9-6.6-5.1 2-15 8-9.3 6 5.8-3.6 14.7-9 8.3-5.6-6.7 8.5-20.2 12-25.5 5.7-8.7 11.5-27 19.5-33.1 4.8-3.7 10 1.7 8.3 6.7z"  fill="#c2e1ff" /><path d="M82.8-134.9c19.5 64.9 25.4 126.9-5.1 189.6-2.9 5.9-7.6 21.2-13.8 24-8.3 3.8-11.5-10.9-2.4-10.9 7.8 0 7.1 12.3-0.6 11.4-12.8-1.4 4.5-25.1 6.7-29.5 11.4-22.6 20.6-46.3 23.5-71.7 3.8-32.8-15.3-110.6-14-113.3 1.3-2.7 4.6-1.9 5.7 0.4z"  fill="#005bbb" /><path d=""  fill="#c2e1ff" /><path d="M99.3-174.6c13 71.7 33.3 140.5 24.4 214.1-0.8 6.8-0.4 34.5-6.2 37.9-5.1 2.9-9.2-5.4-3.8-7.7 6.3-2.7 8.4 8.4 1.6 8.2-5.3-0.1 3.6-94 2.8-106-1.5-25.8-29.1-135-25.4-146.9 1.1-3.6 5.6-2.7 6.6 0.4z"  fill="#c2e1ff" /><path d="M107.7-393.4c11.6 111.2 8 221.3 31.4 331.2 2.6 12.3 25.8 123 18.4 124.1-5.2 0.8-4.6-8 0.4-6.5 5.1 1.5 0.8 9.1-3.1 5.7-4.2-3.7-17.7-100.8-20.8-115.3-25.9-123.7-21.2-207.7-32.7-328.9-0.3-3.5 3.7-22 6.4-10.3z"  fill="#fff" /><path d="M116.8-398.3c5.1 106.3-1.4 213.6 21 318.2 2.6 12 28.2 119.2 21.1 120.2-5.3 0.7-4.6-8.1 0.5-6.5 5.1 1.5 0.8 9.2-3.2 5.7-4-3.6-17.7-85.7-20.4-98.2-24.4-109.5-21.6-218-26.3-329.5-0.2-4 5.3-22.1 7.3-9.9z"  fill="#005bbb" /><path d="M126.4-398.6c-0.4 94.1-9.1 192.2 7.4 285.2 2 11.2 19.6 78.2 17.6 82.7-2.4 5.5-9.7-2-4.2-4.2 4.7-2 6.2 6.4 1.1 6.2-8.8-0.3-20.5-79.7-22.4-90.2-15.5-87.1-8.4-178.7-7.7-266.8 0-4.1-1.4-11.1 0.6-14.8 2.1-3.9 7.2-1.9 7.6 1.9z"  fill="#005bbb" /><path d="M132.3-306.9c-3.2 114-1.6 180.7 27.9 292.3 3.2 12 27.9 83.7 26.5 88.9-1 4-7.2 1-4.5-2.3 3-3.8 7.2 3.6 2.4 4.2-9.8 1.3-26.2-73.2-28.8-82.7-30.7-116-34.9-175.2-31.9-294.4 0.1-5.5 7.4-16.4 8.4-6z"  fill="#fff" /><path d="M138.9-398.2c-5.6 93.4-17.3 192.2-1.2 284.9 2.1 12.4 22.7 86.2 20.8 90.9-2.2 5.4-9.4-1.6-4.2-4 4.5-2 6.2 6 1.3 5.9-8.3 0-20-69-21.9-78.3-19.9-95.6-9.7-197-3.7-293.7 0.4-5.7 8.2-16.3 8.9-5.7z"  fill="#005bbb" /><path d="M148.7-342.5c-11.6 105-17.6 206.6 14.6 308.6 9.1 28.8 19.1 57.5 31.6 85 1.3 2.9 14.1 23.8 8.4 24.4-11.3 1.2 10.7-6.1 1-0.3-5.2 3.1-26.2-50.1-28.6-56.2-48-123.6-49-212.8-37.7-342.7 1.8-20.8 10.4-31.2 10.7-18.8z"  fill="#005bbb" /><path d="M155.8 38.5c0.9 6.1 9.2 32.9 5.6 37-3.3 3.7-8.1-2.9-3.6-4.9 4.5-2 6.2 6.1 1.2 6-5.6-0.1-11.6-33.9-10-38.8 1.3-3.7 5.9-2.6 6.8 0.7z"  fill="#fff500" /><path d="M164.8-199.5c-9.3 70.2 5 137.5 45 196.3 12.9 18.9 52.1 56.4 57.1 76 0.9 3.7-5.7 2.8-3.9-0.5 1.9-3.4 6.1 1.9 2.5 3-3.7 1.1-20.6-27-23.6-30.8-36.9-47.4-71.1-93.3-83.3-153.7-5.2-25.8-12-67-2.4-92.4 1.9-5.1 8.6-2.7 8.6 2.1z"  fill="#005bbb" /><path d="M171.1-13c3.1 9 35.9 88.1 35.1 88.6-2.4 1.1-4.5-2.3-2.4-4 2.5-1.9 5.3 2.2 2.6 3.9-3.3 2-5.5-5-6-6.1-13.7-25.6-25.5-52.8-34.6-80.4-1.2-3.6 3.8-5.1 5.3-2z"  fill="#005bbb" /><path d="M179.1-68c16.1 44.1 45.7 78.2 74.8 114.1 3.3 4.1 21.5 23.1 19.4 28-1.1 2.6-5.1 0.6-3.7-1.9 1.6-2.9 5.7 0.8 3 2.7-6.4 4.6-88.6-117.9-94.9-132-1.1-2.5-3.2-19.4 1.4-10.9z"  fill="#c2e1ff" /><path d="M187.7-397.8c-12.7 86.1-40.2 174.6-32.8 262.4 2.1 25.5 7.7 50.7 16.1 74.8 1.1 3.3 12.1 23.9 5.6 24.1-3 0.1-3.6-4.4-0.7-5.1 3.4-0.9 4.5 4.6 1 5.1-6.7 0.9-17-38.8-18.7-44.8-29.7-101.7 2-210.7 19.4-311.9 1-6 10.5-15.8 10.1-4.6z"  fill="#fff" /><path d=""  fill="#c2e1ff" /><path d="M202.4-30.1c9.3 15.1 82.2 99 81.8 103.6-0.3 3.3-5.6 1.7-3.9-1.2 1.7-2.9 5.8 0.9 3 2.8-2.8 1.9-21.4-26.8-24.4-30.4-20.1-24.1-42.9-46-60-72.6-1.5-2.3 1.8-4.2 3.5-2.2z"  fill="#fff" /><path d="M213-156.7c-6.3 63.2 28.6 108.3 76.9 144.2 27.2 20.2 55.7 40.3 71.8 71.1 1.6 3.1 9.3 14.1 5 17-3.8 2.6-6.7-4.4-2.2-5.2 4.5-0.8 4.2 6.8-0.2 5.6-4.9-1.3-16.2-32.2-20.6-38-34.9-46.5-94.8-66.3-123.2-119.1-11.5-21.4-16.9-45.7-16.3-69.9 0.2-6.3 8.2-16.1 8.8-5.7z"  fill="#fff500" /><path d="M221.3-172.3c-10.6 55.9 9.6 104.5 52.9 140.4 20.8 17.3 44.1 31.4 63.8 50 5.8 5.5 46.1 51 35.1 58.1-4 2.6-6.8-4.8-2.1-5.4 5.5-0.8 3.3 8.6-1.3 5.4-3.8-2.7-20.8-42.8-31.2-53.9-41.5-44-102.4-65.9-122.1-128.1-5.9-18.6-11.9-50.2-3.9-69 2.2-5.2 9-2.5 8.8 2.5z"  fill="#005bbb" /><path d="M229.7-258.3c-24.3 67.2-44.8 142.9 2.7 205.3 31.7 41.6 83.8 62.3 112.8 106 2 3 15 20.6 8.8 22.8-4.1 1.4-4.9-5.7-0.6-5.3 4.3 0.4 2.1 7.2-1.7 5.1-6.2-3.7-12.5-24.7-17.4-31.4-47.6-64.5-127-80-138.3-172.8-5.4-44.2 7.7-92.3 23.9-133.1 2.5-6.4 11.3-2.9 9.8 3.4z"  fill="#fff" /><path d="M235.8-397.9c-10.3 97-71.4 192.1-50.6 291.9 7.2 34.1 24.4 64.6 47.9 90.2 2.3 2.5 20.7 21.2 18.7 21.4-2.2 0.3 1.9 0.2-0.2 0-8.8-0.9-26.2-25.4-31.9-32.1-92.1-108.7-17.7-240.7 5.1-359.9 0.5-2.5 11.2-31.3 11-11.5z"  fill="#fff500" /><path d="M243.9-111.9c20.7 83.1 127.7 99.8 147.7 184.6 1.2 5-7.5 5.2-6.4 0.1 1.3-6 10.1-0.1 5.1 3.4-6.5 4.5-8-14.3-9-17.2-4.7-14.8-12.2-28.5-21.9-40.6-28.5-35.3-72.2-54.2-100.4-89.8-32.9-41.6-16.3-43.2-15.1-40.5z"  fill="#fff500" /><path d="M252.9-397.8c-8.4 95.8-76.2 184.7-59.4 283.6 5.4 32.1 20.9 61.1 42.8 84.9 4.7 5 22.8 17.2 24.1 23.2 0.1 0.5-0.5 1.3-1.1 1.2-12.1-0.7-35.9-33.9-42.8-43.1-78.7-105.2 4.7-228.9 25.6-338.2 0.9-4.5 10.7-27.5 10.8-11.6z"  fill="#fff500" /><path d="M262-312.8c-31.1 72.1-78.6 163.8-34.5 240.3 30.1 52.2 92.2 72 125 121.4 2.1 3.1 16.3 23.3 9.8 25.4-4.2 1.4-4.9-6-0.5-5.5 4.4 0.5 2 7.5-1.8 5.2-6.7-4.1-12.9-26.6-18.4-33.9-49.9-67.4-136.2-81.1-139.9-182.1-1.2-32.4 41.6-175.9 54.3-178.3 4.6-0.9 7.2 3.6 6 7.5z"  fill="#005bbb" /><path d="M265.8-40.8c24.7 22.8 54.9 39.1 78.5 63.2 6.5 6.6 38.5 43 30.7 52.9-2.5 3.2-7.4-1.1-4.5-4 2.9-2.9 7.2 1.9 4.1 4.4-5.6 4.5-8.4-12.7-9.4-15-5.8-14.4-14.6-27.4-25.2-38.8-21.7-23.2-49.6-39.2-73.8-59.6-1-0.8-3-5-0.4-3.1z"  fill="#fff500" /><path d="M282.5-398.1c-6.3 92.7-80.7 169.8-75.2 265.9 1.7 30.1 13.2 58.5 32.5 81.6 12.3 14.8 24.3 25.2 23 25.4-1.9 0.3 1.7 0.1-0.2 0-11-0.6-31.6-30.4-37.5-38.8-66.7-95.1 11.2-207 40.8-300.2 3.7-11.5 4.1-24.7 8.2-35.9 1.8-5 8.4-2.8 8.4 2z"  fill="#fff500" /><path d="M282.1 32.1c7.2 7 34.3 30.6 32.8 41.6-0.5 3.6-6.2 1.5-4.2-1.6 2-3.1 6.2 1.2 3.2 3.2-4 2.5-12.3-15.9-14.4-18.8-3.7-5.1-23.8-29.6-17.4-24.4z"  fill="#c2e1ff" /><path d="M293.9-382c-17.1 92.9-103.8 178.8-74.9 278.9 12.3 42.7 45.7 70.1 80 95.3 3.2 2.4 26 20.9 24.5 21.1-1.9 0.3 1.7 0.1-0.2 0-5.2-0.3-17.5-14-22-17.4-51-38.3-97.2-78.2-95.4-147.6 2-80.1 52.7-145.9 75.4-220.1 2.9-9.3 13.9-23.5 12.6-10.2z"  fill="#005bbb" /><path d="M300.3-118.8c15 69 94.8 98.6 111.9 168.7 1.6 6.5 5.4 17.6 3.9 24.1-1.3 5.7-10.1 1.6-6.5-3.1 3.6-4.6 9.8 2.8 4.6 5.5-7.6 3.9-6.9-16.3-7.4-19.2-2.9-17.5-8.5-34.4-17.4-49.7-20.6-35.4-56.1-58.2-79.1-91.8-6.9-10.1-12.5-21.1-16-32.9-1.2-4 4.5-5.3 6-1.6z"  fill="#fff500" /><path d="M309.9-162.3c-19.6 97.8 103.4 134.7 109.3 235.3 0.4 7-11 3.3-6.7-2.1 3.7-4.7 9.9 3 4.6 5.7-7.6 3.8-6.4-14.5-6.8-17.4-2-15.3-6-30.4-12.5-44.4-21.6-46.7-70.6-73.8-90.2-121.5-6.3-15.3-13.2-41.8-6.5-58.1 2.1-5.2 8.9-2.5 8.8 2.5z"  fill="#005bbb" /><path d="M318.5-207.5c-22.9 43.6-26.2 91.3 4.3 132 21 28 50 49 69.5 78.3 5.3 7.9 36.1 69 22.1 74.4-6.5 2.5-6.3-9.6 0.1-6.9 5.5 2.3-0.2 10.3-4.2 5.9-4.1-4.5-11.3-52.6-18.3-65.4-28.9-53.7-95.2-83.6-100-149.8-1.6-21.6 2.6-57.2 17.1-74.6 4.4-5.3 11.4 0.3 9.4 6.1z"  fill="#c2e1ff" /><path d=""  fill="#005bbb" /><path d="M331.6-95.1c24.5 50.8 74.4 81.1 87.4 138.9 1.3 5.9 8 28.9 2.7 32.9-4.1 3.2-8.8-3.6-4.3-6.3 4.4-2.7 8.3 4.5 3.6 6.8-8.3 3.9-6.6-18.6-7.1-22.3-2.2-17.6-7-34.7-14.9-50.6-16.3-32.5-44.6-56.1-64.7-86-1.8-2.6-7.8-20.6-2.7-13.4z"  fill="#c2e1ff" /><path d="M349.6-397.9c-7 87-102.9 152-109.1 249.4-1.9 30.3 7.7 59.1 26.9 82.5 6.4 7.8 13.6 14.9 21.2 21.5 1.7 1.4 5.9 5.8 3.8 5.4-3.8-0.6 3.9 0.1 0.1 0-10.1-0.4-30-27.3-35.7-34.9-74.4-98.6 32.5-202.4 72.4-288.4 5-10.9 5.9-29.6 12.4-38.7 2.9-4 8.1-1.1 8 3.2z"  fill="#fff" /><path d=""  fill="#c2e1ff" /><path d="M355.6-84.1c27.6 49.3 66.2 83.8 72 143.3 0.4 4.1 3.3 14.6-0.6 17.5-4.3 3.1-8.9-3.9-4.3-6.6 4.6-2.7 8.4 4.9 3.5 7-7.9 3.5-5.9-14.3-6.1-17.2-1.3-18.8-4.9-37.3-12-54.8-12.3-29.9-48.7-62.2-56.5-87.5-0.8-2.6 2.5-3.6 4-1.7z"  fill="#c2e1ff" /><path d="M364.1 60c1.3 2.6 9.3 14.7 3.4 16.4-3.8 1.1-5.2-5-1.3-5.7 3.9-0.7 4.6 5.6 0.7 5.8-9.5 0.6-7.4-24.2-2.8-16.5z"  fill="#fff" /><path d="M372.4 65.1c1 2.4 5.8 10.2 0.7 11.5-4 1-5.2-5.3-1.1-5.9 4-0.6 4.6 5.9 0.5 6-10.1 0.3-4.1-19.7-0.1-11.6z"  fill="#fff" /><path d="M379.2-8c6.8 8.1 49.9 77.6 32.5 84.5-5.4 2.2-7-7.4-1.2-7.1 5.8 0.3 3.2 9.6-1.9 6.9-5.2-2.8-5.5-26.6-7.1-32.6-4.9-18.1-35.7-65-22.3-51.7z"  fill="#c2e1ff" /><path d="M390.9-319.7c-38.5 61.2-118 129.5-91.4 210.4 20.6 62.6 91.8 89.8 110.3 155.1 1.1 3.9 8.8 24.1 1.2 24.7-5.7 0.5-4.4-8.9 0.9-6.9 5.3 2 0.3 9.9-3.8 5.9-0.8-0.8-16.9-57.3-25.9-70.3-38-54.7-106.1-87.6-94.1-165 5.5-35.7 82.7-162.9 97.6-163.2 5.2-0.1 7.2 5.2 5.2 9.3z"  fill="#fff500" /><path d="M399-306.7c-36.4 57.3-104.7 122.9-80.1 197.6 20.2 61.5 85.4 92.4 98.9 159 0.9 4.6 7.7 26.8-0.4 27-6 0.1-4.1-9.7 1.4-7.3 5.5 2.4-0.4 10.5-4.4 6-4.1-4.6-2.7-21.3-3.8-27.7-3-16.3-8.5-32.1-16.7-46.6-32.3-57-98-92-86.5-166.8 5.8-37.4 54.8-123.1 82.5-148.9 5.4-5 12 1.8 9.1 7.7z"  fill="#fff500" /><path d="M403.9-20.1c6.1 10.1 42 91.5 23.6 97.1-6 1.8-6.8-8.6-0.6-7.7 6.2 0.9 2.6 10.6-2.6 7.2-5.3-3.4-3.2-28.9-4.2-35.5-3-20.9-28.8-78-16.2-61.1z"  fill="#005bbb" /><path d="M414.1-397.9c-7.5 99.2-123.6 153.1-127 254.2-1.2 36 17.7 65.3 42.5 89.8 8.6 8.5 25.7 18.8 31 29.5 0.3 0.7-0.6 2-1.4 1.9-4.8-0.6-14.8-14-18.6-17.5-37.4-34.8-68.9-72.8-59.8-127.4 12.3-74.1 75.9-122.2 108.9-186 7.1-13.6 8.2-36.1 16.4-47.6 2.8-4 8-1.1 8 3.1z"  fill="#005bbb" /><path d=""  fill="#c2e1ff" /><path d="M429-5.9c5.3 15.4 21.3 67.9 9.9 82.1-4.1 5.1-10.9-3.3-5.1-6.2 5.9-2.9 8.5 7.6 2 7.8-7.9 0.2-4.2-30.8-4.6-36.7-1.1-17.3-9.8-63.8-2.2-47z"  fill="#fff" /><path d="M439.2-291.7c-26.5 58.7-63.1 122.8-45.1 189.2 15 55.1 47 98.4 48.1 157.8 0.1 5 2.2 16.8-1.1 20.7-4.2 5.1-11-3.5-5-6.3 5.9-2.9 8.5 7.8 1.9 7.9-6.1 0.1-5.3-53.8-6.6-61.9-10-62.3-56-112.2-49.5-178 3.5-35.4 25.9-107.2 48-135.1 4.2-5.3 11.1 0 9.3 5.7z"  fill="#fff500" /><path d="M446.6-151.6c-4.2 38.2 23.9 212.3 8.9 228.2-4.8 5.1-11.3-4.5-4.9-7 6.5-2.6 8.4 8.8 1.4 8.4-7.5-0.4-0.3-54.5-0.2-62.7-0.1-53.2-17.6-104.6-14.6-158 0.3-5.6 9-21.7 9.4-8.9z"  fill="#c2e1ff" /><path d="M455.3-342.1c-26.2 73.1-91.5 149-72.7 231.1 13.2 57.5 53.2 100.6 56.5 161.9 0.3 4.8 4.2 27-4.1 26.4-6.5-0.5-3.4-10.9 2.3-7.7 5.7 3.2-1.5 11.3-5.3 6-6.5-8.9-1.4-42-3.4-54.1-10.5-65.9-64.5-116.1-56.2-185.9 2.7-23.2 61.4-171.9 74.4-183.5 4.4-3.9 9.6 0.9 8.5 5.8z"  fill="#c2e1ff" /><path d="M462.4 5.9c0.3 8.6 1.2 73.5-8.9 71.8-5.9-1-3.8-10.3 1.9-8.6 5.8 1.6 2.7 10.6-2.9 8.3-5.4-2.2 0.1-64.3 2-72.3 1.1-4.7 7.3-3.4 7.9 0.8z"  fill="#c2e1ff" /><path d="M471.1-251c-10.9 51.6-22.4 105.8-19 158.7 2.6 39.4 22 133.1 6 167.3-3 6.4-12.2-0.7-6.9-5.3 6.3-5.3 10.8 8.3 2.6 7.8-6.2-0.4 0.5-72.2 0.1-82.1-2.2-52.5-14.2-102.5-7.8-155.3 3.3-27.9 3.9-68.7 16.1-94.1 2.5-5.2 9.3-2.1 8.9 3z"  fill="#005bbb" /><path d=""  fill="#c2e1ff" /><path d="M487.1-196.3c-6.8 43.2-16.4 85.2-16.4 129.2 0 31.8 6.2 116.4-6.9 142.5-3.2 6.4-12.4-1.1-6.8-5.5 6.6-5.2 10.8 8.7 2.4 8-7.6-0.7 2.7-61.9 3.2-71 3.5-64.2 1.1-124.8 12.6-188.6 0.9-5 0.6-14 3.7-18.1 3.1-4 8.4-0.9 8.2 3.5z"  fill="#fff" /><path d="M495.2-366.1c-17.3 94-58.3 185.4-46.6 283 3.1 25.8 23.2 142.9 7.3 159.7-4.8 5.1-11.3-4.5-4.9-7.2 6.5-2.6 8.4 8.9 1.4 8.5-5-0.3-0.4-79.4-1.2-90.1-3.4-41.8-14.4-82.4-12.7-124.6 3.1-73.7 26.7-144.2 43.9-215.3 1.2-5 1.2-13.8 4.6-17.9 3.3-4 8.6-0.6 8.2 3.9z"  fill="#c2e1ff" /><path d="M503.2-306.2c-18.2 97.5-31.8 194.2-32 293.3 0 12.9-1.8 83.1-8.4 89.6-5.1 5-11.4-5-4.7-7.4 6.7-2.4 8.3 9.3 1.2 8.7-5.9-0.5 3.8-83.3 3.9-94.3 0.8-105.4 11.1-175.2 28.6-278.7 1.5-8.9 12.5-29 11.4-11.2z"  fill="#005bbb" /><path d="M511.1-388.4c-12.1 104.9-50.2 208.8-46.5 315.4 0.7 21.1 9.1 126.8-2.3 138.5-5 5.1-11.4-4.8-4.8-7.3 6.6-2.5 8.3 9.1 1.3 8.7-4.7-0.3 0.9-87.6 0.3-99.1-6-128.8 23.2-223.9 41.9-347.9 0.7-4.7 10.3-21.9 10.1-8.3z"  fill="#c2e1ff" /><path d="M519.2-370.4c-12.6 91.8-44.7 237.5-45.2 322.8-0.1 18.3 0 114.5-9.7 124.1-5.1 5-11.5-5.1-4.7-7.5 6.8-2.4 8.3 9.4 1.1 8.7-5.2-0.5 5-96.3 5.2-108.5 1.1-107 24.8-218.8 41.9-324.7 4.3-26.5 11.6-21.6 11.4-14.9z"  fill="#005bbb" /><path d=""  fill="#fff" /><path d="M530.4-397.9c-7.3 66.6-13.7 134.8-25.2 200.7-6 34.3-16.6 67.7-21.6 102.1-1.8 12-5.4 109.5-12.4 108.6-6.8-1-2.8-11.7 3-8 5.8 3.7-2.4 11.8-6 6-10.8-17.1 20.2-172.8 25.9-200.5 14.4-68.9 16.9-140.3 27.5-209.9 0.9-5.8 8.7-4.6 8.8 1z"  fill="#c2e1ff" /><path d=""  fill="#c2e1ff" /><path d=""  fill="#c2e1ff" /><path d="M559.3-378.7c-3.9 51.4-0.4 103.9-8.8 154.9-11.2 68-47.9 127.9-58.6 196.6-1.7 11.1-11.9 99.9-21.3 97.5-6.2-1.5-3.2-11.1 2.7-8.9 7 2.5 0.4 12.9-4.9 7.7-6.2-6.2 5.9-42.3 7.3-51 7.2-42.4 11.3-85.4 25-126.5 10.3-30.9 25.1-60.1 34.4-91.3 9.6-32.5 13-176.1 16.3-181.5 2.5-4 7.7-1.5 7.9 2.5z"  fill="#fff" /><path d="M567.2-357.9c-1.2 44.9 2.5 90.6-5.9 135-13.2 69.8-54.4 128.7-67.1 200.8-2 11.3-14.2 102.1-23.3 99.8-6.2-1.5-3.2-11.1 2.7-8.9 7 2.6 0.3 13-4.9 7.7-6.5-6.5 6.7-44.6 8.3-53.7 8.5-45.8 14-91.9 31.2-135.5 11.1-28.2 25.7-54.8 35.7-83.5 13.1-37.6 15.4-163.4 15.6-163.8 2.2-4 7.3-1.8 7.7 2.1z"  fill="#fff" /><path d=""  fill="#005bbb" /><path d="M556.4-397.9c-6.7 60.2-2.5 121.9-13.3 181.6-7.7 42.6-27.3 81.1-39.5 122.2-2 6.9-7.7 48.2-15.3 46.5-7.1-1.6-2-12.6 3.8-8.2 5.8 4.4-3.5 12.2-6.9 5.8-8.8-16.8 40.3-132.5 46.5-158.4 8.6-35.6 6-176.3 16.6-192.4 2.7-4 7.9-1.3 8.1 2.9z"  fill="#005bbb" /><path d="M591.1-366.2c1.9 46.3 10.1 92.6 0 138.6-15.3 69.8-68 123.9-86.1 193.4-3.1 11.9-20.4 108.3-28.7 106.1-6.2-1.7-3-11.4 3-9.1 7 2.8 0 13.2-5.2 7.7-6.2-6.5 7.1-42.3 9-50.9 11.7-54.4 24.1-105.5 52.3-154.1 13.4-23.1 28.1-45.5 38-70.4 13.4-33.3 16.1-68.6 14.1-104.1-0.8-14.3-9.7-45.7-3.8-58.6 1.8-3.9 6.7-2.2 7.4 1.4z"  fill="#fff500" /><path d="M600.3-160.2c-43.4 58.4-75.8 96.8-95.6 169.1-3 11-10.1 65.3-20 69-7.1 2.7-9-9.8-1.4-9.3 7.6 0.5 4.1 12.7-2.6 9.1-7.4-4 4.2-32.3 5.8-38.7 22.8-88.4 43.5-130.5 100-202 5.4-6.9 20.6-8.8 13.8 2.8z"  fill="#c2e1ff" /><path d=""  fill="#005bbb" /><path d="M603.6-190.2c-34.3 69.2-75.8 97.9-98 180.5-3.3 12.4-16.8 82.2-22.3 86.9-6.8 5.7-11.7-9-2.8-8.5 7.6 0.4 4.2 12.6-2.5 9-7.5-4 4.9-36.3 6.5-43.3 20.1-82.5 38.3-127.6 87.9-196.9 7.6-10.6 13.4-24.6 22-34.1 4.6-5.2 11.5 0.7 9.2 6.5z"  fill="#fff" /><path d=""  fill="#005bbb" /><path d="M603.5-175.6c-39.4 63.7-76.6 96.3-97.6 172.9-3.1 11.5-16.1 75.8-21.2 80.1-5.9 4.9-11.7-6.4-4.4-8.3 8.6-2.3 6.8 13.1-1 8.8-7.4-4 4.4-33.9 6.1-40.6 26.5-105.5 41.4-124.8 102.7-211.6 15.5-21.9 19.2-9 15.4-1.3z"  fill="#fff" /><path d="M603.1-133.6c-15.5 15.7-31.2 31.2-44.6 48.7-5 6.5-12.8 24.9-20 28-8.5 3.6-11.3-11.5-2.1-11.2 10.8 0.4 3.3 17.6-4.3 9.9-11.3-11.4 51.4-78.9 62.7-85.8 7-4.3 12.8 4.7 8.3 10.4z"  fill="#fff" /><path d="M603.4-154c-45.1 55.5-76.7 93.5-96.9 164-3.1 10.8-10.6 64-20.2 67.6-7.2 2.7-9-9.9-1.3-9.3 7.7 0.6 4 12.8-2.7 9-7.4-4.1 4.8-33.9 6.6-40.6 22.6-84.8 43.7-127.4 100.6-194.2 5.9-6.9 21.3-7.9 13.9 3.5z"  fill="#fff500" /><path d="M603.2-139.7c-45 48-76.1 92.9-95.2 156.5-3 9.9-10.2 57.6-19.1 60.9-7.3 2.7-9-10.1-1.3-9.4 7.7 0.6 3.9 12.9-2.8 9.1-7.3-4.1 4.3-30.9 6.1-37.4 20.5-73.9 47.8-131.2 101.1-187.1 6.5-6.8 17.5-1 11.2 7.4z"  fill="#fff500" /><path d="M603.5-136.1c-45.7 47.3-76.2 92.8-95.4 156.2-2.9 9.6-9.6 55-18.5 58.2-7.3 2.7-9-10.1-1.3-9.4 7.7 0.6 3.9 12.9-2.8 9-7.4-4.2 4.6-31.7 6.3-38 20.1-71.4 46.6-133.9 102.1-185.4 6.5-6 14.7 2.6 9.6 9.4z"  fill="#005bbb" /><path d="M603.2-126.3c-46.4 44.7-75 91.2-94.1 152.7-2.7 8.8-8.8 48.6-17.1 51.6-7.3 2.6-8.9-10.2-1.2-9.5 7.7 0.7 3.8 13-2.9 9.1-4.7-2.8 37.3-174 107.2-214.7 7.2-4.2 12.8 5 8.1 10.8z"  fill="#fff" /><path d="M603.3-72.7c-27.7 25.8-48.5 56.3-63.9 90.8-5.7 12.8-12.9 51.7-23.6 59.2-6.6 4.6-11.8-7.8-3.8-9.1 9.3-1.7 6 14.5-1.9 9.2-8.5-5.6 13.4-49.4 16.7-57.4 13.6-32.8 36-84.7 68.3-103.6 7.2-4.2 12.8 5.1 8.2 10.9z"  fill="#c2e1ff" /><path d=""  fill="#005bbb" /><path d="M603.3-77.4c-22 20-40.4 43-54.4 69.2-5.8 10.8-13.7 43.8-23.4 49.9-8.3 5.2-11.4-11.6-1.7-9.7 8.2 1.7 2.5 14.4-4.2 9.4-7.7-5.7 11.4-38.6 14.7-45.6 12.7-26.9 33.9-68.9 61-84.2 7.3-4.1 12.8 5.2 8 11z"  fill="#fff" /></svg>