<svg width="1200" height="675" viewBox="-500 -500 1200 675" xmlns="http://www.w3.org/2000/svg"><path d="M-500-500h1200v675h-1200z" fill="#000"/><path d=""  fill="#005bbb" /><path d=""  fill="#005bbb" /><path d=""  fill="#005bbb" /><path d=""  fill="#005bbb" /><path d=""  fill="#fff" /><path d=""  fill="#fff500" /><path d=""  fill="#005bbb" /><path d=""  fill="#fff" /><path d="M-385.4-398.8c3.3 11.4 5.8 91.1-13.5 89.7-6.3-0.5-5-10.4 1.2-9.2 6.2 1.1 3.9 10.9-2.2 9-8-2.4 7.7-40.1 9-47.1 2.5-14 0.7-55.8 5.5-42.4z"  fill="#005bbb" /><path d=""  fill="#fff" /><path d=""  fill="#fff" /><path d="M-396.2-77.6c12.5 34.3 48.1 120.7 21.3 153.9-4.7 5.8-12.5-3.9-5.7-7.2 6.7-3.3 9.7 8.7 2.2 8.9-10.2 0.3-0.1-19 0.8-22.9 3.7-14.9 4.2-30.4 2.3-45.6-1.5-11.8-25.7-86.9-25.6-87.2 0.9-2.3 3.7-1.9 4.7 0.1z"  fill="#c2e1ff" /><path d="M-396.3-93.7c9.7 26.8 63.1 149.8 38.4 170.3-4.5 3.8-10.1-3.7-5.2-7 5.7-3.8 9.8 6.9 3 7.9-9.4 1.4-2.3-16.9-1.8-20.4 2.2-16.4 1-33-2.5-49.2-4.1-18.8-37.9-92.1-36.8-101.1 0.4-2.7 3.7-2.7 4.9-0.5z"  fill="#fff" /><path d="M-396.1-127.2c5.4 20.2 95.1 197 73.1 203.7-6.3 1.9-5.3-9.5 0.5-6.5 5 2.5-0.8 9.8-4.3 5.3-2.7-3.4-7.9-50.1-11.6-60.4-16.8-46.7-46.2-87.9-61.3-135.3-1.1-3.3 0.6-13.9 3.6-6.8z"  fill="#fff500" /><path d="M-395.7-145.6c12.1 66.3 58.7 117.3 80.4 179.6 2 5.8 14.3 39.7 7.2 42.6-4.8 1.9-6.2-6.6-1-6.4 6.1 0.3 1.6 10-2.6 5.6-2.2-2.4-10.7-47.2-14.2-55.8-19.8-49.2-53.3-91.7-69.7-142.5-1.8-5.6-7.5-17.5-5.9-23.3 0.9-3.2 4.9-2.5 5.8 0.2z"  fill="#c2e1ff" /><path d=""  fill="#fff" /><path d="M-380.9-214.2c-23.1 101 57.4 164.5 96 247.2 2.5 5.4 18.9 39.5 12.5 42.9-3.5 1.9-6.2-3.8-2.5-5.2 3.7-1.5 5.7 4.4 1.9 5.5-2.4 0.7-20-49.9-23.3-56.4-28.9-55.1-75.2-99.6-90.7-161.7-5.1-20.5-11.2-54.8-1.9-74.9 2.2-4.7 8.3-2 8 2.6z"  fill="#fff500" /><path d="M-374.4-174.2c1.3 82.9 70.5 132.7 104.1 201.7 2.9 5.9 21.7 44.9 14.6 48.7-4.1 2.2-6.2-5.3-1.5-5.5 5.5-0.3 2.4 8.7-1.7 5.1-2.7-2.3-15.5-47.1-19.8-55.4-25.2-49.4-68.2-87.1-89.5-138.9-6.2-15.1-16.2-39.6-13.1-56.2 0.8-4.2 6.2-3.2 6.9 0.5z"  fill="#c2e1ff" /><path d="M-366.4 72.3c-1.2 4.1-7.8 9.6-9.5 2.4-2-8.3 12.6-6.2 8.4 1.1-3.8 6.7-10.6-1.3-7-7.1 2.9-4.7 9-1.1 8.1 3.6z"  fill="#005bbb" /><path d="M-361.7-69c7.6 13.9 86.5 136.2 67.4 145.3-5.2 2.5-5.8-7.5-0.4-5.7 4.7 1.5 0.5 8.5-3 5.1-2.5-2.3-12.7-45-16.3-53.1-14.1-31.5-34.8-59.4-51.2-89.6-1.3-2.4 2-4 3.5-2z"  fill="#005bbb" /><path d="M-353.9-128.9c21.2 62.4 78 103.6 101.2 165.1 2 5.3 15 36.8 8.8 39.9-4.3 2.1-6.2-5.6-1.4-5.8 5.6-0.1 2.2 9.1-2 5.3-3.2-2.9-17.7-57.4-23.5-68.2-22.4-41.9-58.6-74.3-80-116.9-2.3-4.5-8.6-13.7-8-18.8 0.3-2.8 3.7-2.7 4.9-0.6z"  fill="#fff500" /><path d="M-347.2-105c26.2 52.4 73.4 90.8 93.6 146.7 1.8 4.9 12.9 31.8 7.2 34.6-5 2.5-5.8-7.2-0.4-5.5 4.6 1.4 0.7 8.3-2.9 5.1-3.2-2.8-18.8-58.2-24.9-69.1-20.9-37.5-52.6-67.5-73.7-105-1.1-1.9-2.8-12.3 1.1-6.8z"  fill="#c2e1ff" /><path d="M-339.8-120c24.7 58.5 77.1 98.6 96.3 160.5 1.6 5.2 11.8 33 6 35.7-5.3 2.4-5.8-7.6-0.3-5.8 4.7 1.6 0.4 8.6-3.2 5.2-3.2-3-17.5-62.2-23.4-73.9-21-41.4-56.5-73.2-77.2-114.8-1.2-2.4-1.9-12.9 1.8-6.9z"  fill="#c2e1ff" /><path d="M-330.2-260.7c-29.7 55.7-31.7 113.6 1.8 168.2 19.5 31.7 46.1 58.3 64.6 90.7 5.8 10.2 36 67.5 25.6 77.5-3 2.9-7.4-2.1-4-4.7 3.9-3 7.4 4.4 2.6 5.4-1.1 0.2-22.2-65.4-26.3-73.2-32.7-63.6-96.5-109.2-95.6-187.1 0.3-24.2 6.4-63.3 22.9-82.4 4.1-4.7 10.2 0.5 8.4 5.6z"  fill="#005bbb" /><path d="M-323.1-345.8c-38.8 83.4-92.7 136.3-54.5 235 20.9 53.9 61.9 96.8 83.6 150.1 1.6 4 13.3 29.4 6.6 30.7-4.5 0.8-4.2-6.8 0.2-5.7 4.4 1.1 1 7.9-2.5 5-6.1-5-9.1-29.5-12.6-37.5-34.4-80.7-106.4-142.7-94.3-238.2 3.2-25 54.9-144.5 68.3-146.5 4.2-0.6 6.4 3.5 5.2 7.1z"  fill="#005bbb" /><path d="M-317.8 36.3c1.8 5.6 12.7 37.6 5.6 40.2-4.3 1.6-6.4-5.3-2-6.3 4.4-1.1 5.8 5.9 1.3 6.5-6.3 0.9-4.8-14-5.4-17.3-3.2-21.2-2.5-30.2 0.5-23.1z"  fill="#c2e1ff" /><path d="M-310.6-397.6c-11.6 93.9-99.3 146.9-79 252.5 9.2 47.8 36.9 88.6 62.1 129.2 2.1 3.4 13.2 17.4 11.4 21-1.4 2.9-5.6-0.5-3.1-2.5 2.9-2.3 4.8 3.9 1.1 3.6-7.9-0.7-32.2-51.4-37.3-59.7-37.9-62.6-58.8-130.2-30.7-201.3 17.7-44.8 51.2-82.2 64.1-129.1 1.1-4.2 1.1-15.8 5.6-18 3.2-1.5 5.9 1.2 5.8 4.3z"  fill="#fff" /><path d="M-299.7-397.9c-13.2 84.2-92.1 141.1-86.1 231.1 2.5 37 18 71.3 37.3 102.4 1.7 2.7 17.5 25.1 12.6 24.6-2.4-0.3-1.8-3.9 0.6-3.4 2.3 0.5 1.3 4.1-1 3.3-8-2.7-19.6-29-23.9-36.4-80-136.5-4.7-177.8 42-289.7 4.6-11 5.8-23.9 10.6-34.4 2.1-4.6 8.1-2 7.8 2.5z"  fill="#fff500" /><path d="M-294.3-313.4c-36.6 63.4-74.9 126.2-39.9 199.8 27.1 56.9 76.5 96.7 93.8 159.4 1.2 4.2 10.2 30.1 3.2 30.8-5 0.5-4-7.7 0.7-6.1 4.7 1.6 0.4 8.7-3.2 5.2-3.7-3.6-18.1-65.5-24.8-78.4-33.5-64.8-98.1-111.7-91.1-192.1 3-35.3 28.1-99.2 53.1-124.8 4.5-4.6 10.5 1.1 8.2 6.2z"  fill="#005bbb" /><path d="M-288.7 70.4c2.5 11.9-9.5 2.6-3.5 0.4 6.2-2.3 4 9.6-0.9 5.1-5-4.5 2.5-11.5 4.4-5.5z"  fill="#005bbb" /><path d="M-280.7-193.8c-4.9 66.1 46.2 146.9 57.7 218.5 1.1 6.9 10.3 49.5 3.2 51.9-5.2 1.7-6.2-7.2-0.7-6.7 6.3 0.7 1.2 10.5-3 5.6-2.9-3.4-8.1-65.7-10.3-76.3-10.7-52.4-38.3-98.6-50.2-150.2-3.2-14.1-5-28.8-4.2-43.2 0.3-5 7.1-4.4 7.5 0.4z"  fill="#fff" /><path d="M-272.9-380.6c-24.3 83.6-107.6 148.3-81.1 242.9 15.6 55.6 61.3 92.9 88.8 141.8 1.4 2.5 14.2 22.5 7.5 22.7-11.5 0.3 11.3-5.3 1-0.3-3.3 1.6-17.8-30.6-20.5-34.9-38.7-62.2-98.3-111.8-88.1-192.6 7.6-60.3 50.4-105.2 74.6-158.7 2.5-5.5 6.1-24.7 12.1-26.6 3.7-1.1 6.3 2.3 5.7 5.7z"  fill="#005bbb" /><path d="M-267.7 48.2c1.4 3.8 11.9 27.2 5.3 28.3-3.9 0.7-4.6-5.5-0.7-5.8 4-0.2 4 6 0 5.8-8.7-0.4-12.9-45.4-4.6-28.3z"  fill="#fff" /><path d="M-258.4-323.9c-28.7 63.5-69.3 125.3-41.1 196.9 15.7 39.9 43.5 73.6 58.4 114.1 3.2 8.8 26 89.3 15.7 89.6-5.3 0.2-3.7-8.5 1.2-6.4 4.9 2.1-0.2 9.2-3.8 5.3-3.4-3.7-13.4-73.8-17.9-86.8-22.8-66.7-79.9-119.5-69.5-194.9 4.7-33.7 27.3-96.3 48.7-123 3.8-4.7 10 0.1 8.3 5.2z"  fill="#005bbb" /><path d="M-253.2-106.8c8.4 25.4 48.9 164.5 36.8 182-3.1 4.5-9.3-2.2-4.6-4.9 4.7-2.8 7.6 5.9 2.1 6.4-4.3 0.4-11-73.2-12.6-82.5-2.9-16.4-27.9-93.7-26.8-100.6 0.5-2.8 4-2.7 5.1-0.4z"  fill="#005bbb" /><path d=""  fill="#c2e1ff" /><path d="M-238.8-7.8c7.1 20.8 22.2 60.1 16.8 82.2-1.3 5.2-9.2 1.3-5.9-2.9 3.9-4.9 9.2 4.5 3.1 5.4-6.4 0.9-6.8-30.1-7.7-35.4-0.3-1.6-14.4-66.8-6.3-49.3z"  fill="#c2e1ff" /><path d="M-237.8-397.5c-16.5 81.4-90.4 155.9-75.3 242.2 7.7 43.9 38 78 57.8 116.6 1.2 2.3 12.2 19.6 5.7 19.7-11.4 0.3 11.2-5.3 1-0.3-3.9 1.9-5.5-6.7-6.3-8.4-27.2-61.2-77.2-109.1-65.3-181.5 9.6-58.7 48.6-106.5 66.6-162.3 2.9-9 3.7-20.4 7.8-28.8 2.3-4.7 8.4-1.8 8 2.8z"  fill="#fff" /><path d="M-223.5-134.2c1 25.2 16.6 202.7 11.3 209.9-3.4 4.5-9.5-2.5-4.6-5.3 5-2.7 7.6 6.3 2 6.7-6.5 0.4-5.7-50.1-6.1-57.1-2.1-33.3-14.7-128-9.4-154.7 0.8-4.2 6.2-3.2 6.8 0.5z"  fill="#c2e1ff" /><path d="M-216.1-159.9c-1.7 60.3 0 120.6 3.2 180.7 0.4 7 5.7 56.5-1.6 56.2-5.7-0.3-3.2-9.4 1.8-6.7 5 2.6-1 9.9-4.5 5.3-6.9-9-2.1-45.8-2.8-57.8-3.1-58.9-6.6-118.9-3.4-177.9 0.3-4.9 6.9-4.4 7.3 0.2z"  fill="#fff" /><path d=""  fill="#fff500" /><path d="M-201.3-65.3c-6.3 36.1-6.9 72.6-6.6 109.1 0 5.3 3.7 33.7-3.8 33.2-4.9-0.3-4-8.1 0.9-7.2 4.2 0.7 3.7 7.1-0.5 7.2-7.5 0.3-3.7-21.8-3.7-26.3-0.3-38.9-1.8-78.9 5.6-117.4 1-5.3 8.3-3.8 8.1 1.4z"  fill="#fff500" /><path d=""  fill="#fff500" /><path d="M-187-385.3c-27.1 168.3-48.6 136.3-33.6 327.3 1 12.7 11.7 126.3 5 126.1-5.6-0.1-3.4-9.1 1.6-6.6 5 2.4-0.7 9.7-4.3 5.4-3.6-4.4-5.5-78.8-6.4-90.7-4.9-63.5-15-129-8-192.7 6-54.9 27.2-106.9 36.2-161.3 0.8-4.6 10-19.8 9.5-7.5z"  fill="#fff500" /><path d="M-179.6-139.9c-13.6 52.5-26.6 102.2-27.5 156.9-0.1 7.5 2.8 60.6-4.1 60.1-5-0.4-4-8.1 0.9-7.3 4.9 0.9 3.1 8.5-1.7 7.1-6.1-1.8-2.4-24.4-2.4-29.6-0.1-33.4 7.4-169.5 27.3-191.3 3.3-3.6 8-0.1 7.5 4.1z"  fill="#005bbb" /><path d="M-172.6-182.2c-11.5 62.9-32.7 122.4-34.6 186.9-0.2 8.4 2.5 72.7-4.2 72.2-4.9-0.4-4-8.1 0.9-7.2 4.2 0.8 3.7 7.1-0.5 7.2-7.1 0.3-3.7-45.4-3.7-52.1 0-72.2 17.8-138.8 34-208.6 1.2-5.4 8.5-3.7 8.1 1.6z"  fill="#fff500" /><path d="M-173.5-398.1c-17.6 108.8-37.9 193.4-40.4 305.4-0.3 11.6 2.2 110.5-2.2 110.5-5.5-0.1-3.4-8.9 1.6-6.6 5 2.4-0.6 9.5-4.2 5.4-5.1-6.1-2.9-89-2.7-102.7 0.8-50.5 1.2-102.1 9.5-152 8.1-48.9 21.3-96.4 28.1-145.6 0.7-5.1 0.5-11.8 2.5-16.6 1.9-4.6 7.9-2.2 7.8 2.2z"  fill="#005bbb" /><path d="M-157.8 67.9c-1.2 2.7-7.1 16.9-11.8 7.8-2.6-4.9 4.3-9.5 7.9-5.3 4.2 5-4 11.1-7.7 5.7-7.7-11.6 15.2-20.6 11.6-8.2z"  fill="#005bbb" /><path d="M-150.6-80.7c-26.8 35.6-42.3 72.3-46.9 116.8-0.7 7 1.2 37-4.8 40.5-5.2 3-8.3-6.6-2.2-7.1 6-0.5 4.8 9.4-1 7.4-7.4-2.6 0.8-47.6 1.7-55.1 4.3-34.7 16.6-86.4 45.2-110.1 5.2-4.3 11 2.3 8 7.6z"  fill="#fff" /><path d="M-143.9-214.3c-11 71.3-51 133.8-58.7 205.6-1.2 11.7-0.9 80.9-4 84.8-4.3 5.3-10.2-5.1-3.3-6 5.8-0.8 5 8.9-0.7 7.2-6.2-1.9-2.1-27-2-32.5 1.1-79.7 18.6-123.8 44.1-197 7.1-20.4 8.4-45 16.8-64.4 2-4.6 8-2.1 7.8 2.3z"  fill="#c2e1ff" /><path d="M-136.7-219.4c-9.6 73.3-54.4 134.7-64.2 207.6-1.6 12.2-2.1 84.2-5.2 87.9-3.7 4.6-9.8-3.1-4.5-5.7 6.2-3 7.1 8.9 0.5 6.9-6.2-2-2-27-1.9-32.5 0.7-34.1 2.4-68.3 11.5-101.3 9.3-33.9 26.1-64.8 38.3-97.6 8-21.5 9.2-46.7 17.8-67.4 1.9-4.6 7.8-2.3 7.7 2.1z"  fill="#005bbb" /><path d="M-129.1-87.3c-27.6 33-52.7 62.8-61.8 106.1-1.6 7.5-6.4 61.2-12.6 58.1-4-2-1.6-8.3 2.7-7.2 5.1 1.3 2.6 9.3-2.4 7.4-7.6-2.9 2.1-48.9 3.4-56.5 6.8-39.8 28.7-91.6 62.9-116.3 5.7-4.1 11.2 3.2 7.8 8.4z"  fill="#fff500" /><path d="M-122.9-375.2c1.8 65 29.8 128.9 13.2 194-15.4 60.1-64.3 103-81.1 162.3-2.7 9.3-10.9 81-14.6 80.6-6.9-0.7-1.3-11.5 3.3-6.2 4.5 5.3-7 9.2-6.6 2.2 7.5-145.5 59.8-136.3 90.4-241.2 18.1-62.1-6.9-123.7-11.2-185.8-0.3-4.8 5.1-14.6 6.6-5.9z"  fill="#fff" /><path d="M-143.7-398.1c-7.1 54.3-2 109.5-9 163.9-7.1 55.8-26 106.7-40.7 160.5-1.7 6.3-6.6 44.9-13.2 43.7-6.3-1.2-2-10.9 3.1-7.2 6 4.4-4.9 11.3-6.3 4-5.5-29.4 34.2-123.3 41.7-159.1 14.5-68.9 7.4-137.7 16.5-206.7 0.7-5.2 7.8-4.1 7.9 0.9z"  fill="#c2e1ff" /><path d="M-125.4-398.2c-6.2 65.1 20.5 128.9 11 194.1-9 61.9-51.8 106.3-72.5 163.1-1.7 4.6-3.6 22.9-11.1 20.6-4.8-1.5-3.3-8.9 1.7-8.5 5.9 0.5 4.6 9.8-1.2 8.6-9-1.8 2.4-25.5 4.1-30.3 18.3-49.7 55.1-89.9 68.2-141.9 16.5-65.8-9.6-131-8.2-197.1 0.1-5 7.4-19.9 8-8.6z"  fill="#005bbb" /><path d="M-122.7-397.9c-5.7 64.1 23 126 16.6 190.1-6.3 62.4-48.6 104.5-73.9 158.8-2 4.4-4.8 20.3-12.2 17.1-5.8-2.4-1.5-11.4 4-8.3 4.7 2.6 1.6 10-3.6 8.5-9.3-2.8 4.8-25.9 7.2-30.7 22.2-45.4 57.3-82.6 68.3-133.4 13.1-60.2-11.1-119.9-13.9-179.8-1-20.3 6.8-35.9 7.5-22.3z"  fill="#c2e1ff" /><path d="M-94.1-225.1c4.2 87.3-68.4 132.7-93.3 208.7-4.8 14.5-10.7 88.5-14.1 92.3-4 4.6-9.9-3.6-4.4-6 6.5-2.9 7 9.5 0.2 7.1-6-2.1-1.4-20.5-1-25.2 7.2-106.6 40.1-112.7 84.7-195.9 7.2-13.5 13.1-27.8 16.7-42.7 2.7-11.1-0.2-30.2 4.6-39.8 1.7-3.5 6.2-1.8 6.6 1.5z"  fill="#fff500" /><path d=""  fill="#fff500" /><path d="M-78.8-13.4c-24.2 30.3-72.7 91.6-72.9 91.6-7.9 1-6.7-12.2 0.9-9.8 7.6 2.4 1 13.9-4.9 8.5-12.7-11.6 57.6-90 69.1-98.5 5.6-4.2 11.1 3 7.8 8.2z"  fill="#005bbb" /><path d="M-71.5 61.4c-2 3.9-9.1 23.7-16.1 15.2-4.5-5.4 4.4-11.9 8.2-6.1 3.3 5-3.6 10.7-7.9 6.5-12.1-11.7 21.8-31.5 15.8-15.6z"  fill="#c2e1ff" /><path d="M-66.7-361c26.3 65 95.5 87.9 134.6 141.9 35.6 49.1 31.7 121.4 49.5 178.1 2.6 8.3 26.5 68.3 20.2 72-4.5 2.6-5.9-6.3-0.7-5.1 5.1 1.2-0.1 8.6-3 4.3-4.5-6.9-5.6-19.8-8.1-27.9-9.6-31.3-20.9-62-28.1-93.9-7.6-33.6-8.1-69.6-20.6-101.9-21.6-55.7-79.8-79.8-118.2-121.6-12-13.1-22.4-27.8-29.9-43.9-1.3-2.8 2.7-4.4 4.3-2z"  fill="#fff" /><path d="M-57.2 61.9c-1.6 3.9-6.5 22.7-13.8 15.2-4-4.1 1.4-10.6 6.1-7.5 5.6 3.6-0.6 12.1-5.7 7.8-12.7-10.4 17.7-30.8 13.4-15.5z"  fill="#fff" /><path d=""  fill="#c2e1ff" /><path d=""  fill="#fff" /><path d=""  fill="#c2e1ff" /><path d="M-31.3-239c41.9 69.3 33.5 151.3 57 226.8 2.8 9.1 31.9 87.3 26.5 88.4-5.1 1.1-3.6-7.8 0.8-5.1 4.4 2.7-2.8 8.1-4.1 3.1-23.5-87.1-40.9-118.5-52.7-214.4-4-32.5-12-63.3-28.1-92.1-0.7-1.2-3.4-12.1 0.6-6.7z"  fill="#fff500" /><path d="M-21.7-33.3c-2.4 15.4-19.4 104.4-28.2 110.4-6 4.1-10.5-7.1-3.4-8.3 7.2-1.2 6.6 10.9-0.4 8.9-8.6-2.4 5.3-32.6 6.9-38.4 4.3-15.3 10.5-66.2 17.8-75.8 2.7-3.6 7.5-0.8 7.3 3.2z"  fill="#005bbb" /><path d="M-17.9-324.8c35.3 33.7 86.8 50.6 114 92.8 27.2 42.3 14.4 132.7 28.5 188.9 3.2 12.6 36.5 111.4 25.9 116.1-6.3 2.8-4.8-9.6 0.7-5.3 4.6 3.6-4.2 8.7-5.1 2.9-7.9-54-29-104.9-36.7-158.9-5.7-39.6 2.9-81.8-7.9-120.4-15-53.9-71.2-74.8-111.3-106.6-1.1-0.9-11.8-12.1-8.1-9.5z"  fill="#c2e1ff" /><path d="M-7.8-98c-0.1 30.2 4.7 152.4-3.3 172.8-2.2 5.5-10.4 0-6.1-4.1 5.1-4.8 9.6 6.5 2.6 6.5-7.2 0-2.2-48-2-55 0.7-31.8-5.3-92.9 1.7-121.1 1.1-4.3 6.7-3 7.1 0.9z"  fill="#c2e1ff" /><path d="M-0.8 38.8c0.3 5.5 5.1 38.2-2 38.1-4.8-0.1-4.2-7.6 0.6-7 4.7 0.6 3.3 8-1.3 6.9-4.8-1.2-5.8-34.8-3.8-39.2 1.6-3.4 6-2 6.5 1.2z"  fill="#fff500" /><path d="M5.4-185.8c26.6 71.3 22.3 105.9 63.4 182.6 5.8 10.8 36.1 69 32.4 77.7-1.8 4.2-7.9-0.2-4.5-3.3 3.3-3 7.1 3.5 2.8 4.9-2.1 0.6-23.1-55.5-26.6-62.4-18.9-37.5-39.9-73.3-51.3-114.1-7.2-26-11.1-52.9-19.3-78.6-0.8-2.4-0.3-13.8 3.1-6.8z"  fill="#fff500" /><path d="M11.4-230.9c46.1 55.6 62.2 138.7 91.8 204.6 4.8 10.8 44.1 96.9 31.7 102.6-3.8 1.8-6.3-4.4-2.3-5.7 4.6-1.6 5.6 6.5 0.7 6-5.3-0.6-5.5-18.1-6.5-22.1-7.6-34-21.8-65.8-36.1-97.4-23.4-51.7-35-110.5-63.4-159.5-4.2-7.3-21.6-34.1-15.9-28.5z"  fill="#fff500" /><path d="M20.1-147.7c7.3 29 13.8 58 25.7 85.6 19.5 45.1 51.6 86.2 61.9 134.9 1.1 5.3-7.9 3.8-5.3-0.8 2.7-4.6 8.5 2.7 3.4 4.2-2.7 0.8-20.6-51.9-23.8-58.4-25.8-53.3-52.1-100.6-66.1-158.8-0.8-3.3 1.4-14.3 4.2-6.7z"  fill="#c2e1ff" /><path d="M32-399.4c22.7 54.2 84.4 77.2 109.6 129.4 28.1 58.1-14.3 119.6-14 179.4 0.1 13.6 14.9 82.8 13.2 86.8-1.8 4.1-7.9-0.2-4.5-3.3 3.4-3 7.1 3.5 2.7 4.9-6 1.8-9.5-26.4-10.4-30.9-22.7-103.1 25.1-155.1 14.3-216.1-9.9-55.8-66.6-82.4-99.1-123.4-7.7-9.7-18-36.8-11.8-26.8z"  fill="#c2e1ff" /><path d="M32.4-252.7c19.7 16.7 37.3 35.9 47.6 59.8 20.7 47.7 21.2 104.2 37.3 154.1 4 12.3 40.6 109.5 28.9 114.8-4.6 2-6.2-6.1-1.3-6 5.8 0.1 1.9 9.5-2.2 5.4-8.2-8-9.5-45.8-12.9-58-16.9-59.3-33.8-115.7-45.5-176.4-5.8-30.3-17.9-56.8-39.4-79.2-1.6-1.6-15.4-16.5-12.5-14.5z"  fill="#fff" /><path d="M41.3 36.2c1.8 5 15.7 39 9.8 40.2-3.7 0.8-4.6-5.1-0.9-5.5 3.8-0.4 4.1 5.6 0.3 5.6-4.8 0-5.1-10.9-6.1-14.2-2.3-7.8-7.3-17-8-25.1-0.3-3.1 3.7-3.6 4.9-1z"  fill="#005bbb" /><path d="M47.7-206c24.8 37.8 30.8 83.8 45.1 126 16.7 49.1 39.9 96.1 49 147.5 0.3 1.5 2.1 12-3.8 8.4-11.9-7.2 15.9-2.5 2.3 0.3-6.3 1.3-7.3-23.1-8.3-27.4-6.1-27.4-15.9-53.7-26.1-79.7-20.5-52.6-29.8-112.4-55.4-162.5-0.2-0.4-7.7-18.9-2.8-12.6z"  fill="#fff" /><path d="M62.8-399.3c22.8 54.1 83.8 84.8 94.7 145 10.9 60.3-31.7 117.2-28 178.7 0.5 8.7 13.6 77.3 11 77.8-3.8 0.7-4.6-5.4-0.7-5.7 3.3-0.2 4.2 4.6 1 5.6-6 1.8-10-28.9-11-33.5-24.4-112.4 28-145.1 21.8-218.7-4.6-54.2-53.1-86-81.5-127.6-3.8-5.6-10.2-13.4-11.6-20.2-0.5-2.7 3-3.5 4.3-1.4z"  fill="#c2e1ff" /><path d="M61-266.6c72.6 55 43.7 146.4 63.6 224.6 7 27.4 32.8 89.9 28.1 115.9-1.1 5.8-9.7 0.3-5-3.2 4.1-3 7.4 4.7 2.5 5.7-5.9 1.2-9.6-36.6-10.8-42.1-9.9-44-26.2-86.5-31.5-131.5-3.3-28.1-0.8-56.2-2.9-84.3-1.7-23.5-8.9-45.5-24.2-63.8-6.2-7.5-28.1-26.5-19.8-21.3z"  fill="#fff500" /><path d="M69.4-389c23.5 44.7 71.3 73.5 85.9 123.3 18.8 63.8-30.1 126.9-25.6 192.1 0.8 11.6 21.2 109.7 18.7 110.1-4 0.6-4.6-5.7-0.6-5.8 4-0.2 4 6.2-0.1 5.9-4.6-0.3-4.4-10.4-5-13.4-10.6-47.6-25.5-94.9-18.9-144.2 5.8-42.8 30.9-83.1 28.4-127-3.2-55.8-53.2-88.3-81.5-131.3-1.1-1.7-5.7-15.7-1.3-9.7z"  fill="#fff" /><path d=""  fill="#fff500" /><path d="M84.5-93.8c8 24 63.9 154.8 56.3 168.9-2.3 4.4-8.6-1-4.6-4 3.9-3 7.4 4.5 2.6 5.6-3.6 0.8-16-55.5-18.5-62.9-10.3-30.6-38.2-76.2-40.8-106.6-0.3-3.1 3.8-3.6 5-1z"  fill="#005bbb" /><path d="M101.5-399.1c17.4 49.8 61.4 88 66.3 142.4 4.9 54-31.4 100.9-36.4 153.8-0.7 7.7 3.3 64.7 0.9 65-5.6 0.7-3.1-8.8 1.4-5.5 4.5 3.3-3.8 8.5-4.8 3-19.7-106.9 32.5-134.1 32.1-212.6-0.2-52.6-40.1-90.8-60.6-136-1.1-2.4-3-17.8 1.1-10.1z"  fill="#fff500" /><path d="M99.5-165.4c4.2 27.4 4.9 55.1 10.4 82.3 7.5 37.5 21.1 73.4 30.8 110.3 1.5 5.9 13.7 48.7 6.7 49.3-3.7 0.3-4.7-5-1.3-6.1 4.1-1.3 5.8 5.3 1.6 6.1-4.1 0.8-14.7-56.7-16.7-64.1-16.3-57.9-30.1-111.7-37.1-171.6-0.4-3.8 3.5-14.7 5.6-6.2z"  fill="#c2e1ff" /><path d="M105.7-17.9c5.8 12.9 34.8 82.9 29.7 92.6-2.3 4.3-8.5-0.9-4.6-3.8 3.9-3 7.3 4.4 2.6 5.4-5.3 1.2-10.6-34.7-12.2-40.1-5.3-18-25.1-70.3-15.5-54.1z"  fill="#fff500" /><path d="M112.7-240.9c23.3 41.3 0.5 135 16 201.6 2.7 11.4 31.4 115.4 23.1 116.1-5.9 0.5-2.9-9.3 1.7-5.7 4.6 3.7-4.3 8.8-5.1 2.9-13.4-97.8-41.2-139.9-31.7-246.3 1.4-15.3 2-30.9-1-46-0.3-1.5-8-30.3-3-22.6z"  fill="#fff500" /><path d="M120.7-221.7c12.8 43.2-8.7 115.9 10.4 192.3 2.6 10.5 29.1 105.6 20.7 106.3-5 0.4-3.9-7.9 0.8-6.2 4.7 1.7 0.3 8.8-3.3 5.3-2.8-2.8-12.4-61.2-14.8-70.7-12.5-47.8-24.7-94-21-143.9 1.7-22.1 5.7-44.4 4-66.6 0-0.4-0.9-27.6 3.2-16.5z"  fill="#c2e1ff" /><path d="M132.1-399.2c10.3 50.5 44.8 94.8 43.2 147.8-1.6 51.5-35.9 94.6-42.3 145.3-0.9 7.5 1.4 62.1-1.1 62.4-4.9 0.5-4-7.6 0.7-6 5.4 1.9-1.1 9.5-3.8 4.3-3.6-6.8-3.1-19.6-3.6-27.2-5.4-68.6 35.4-112.9 42.2-175.9 5.6-52.1-26.9-95.7-39.6-144.1-1-3.8 1.6-14.2 4.3-6.6z"  fill="#005bbb" /><path d="M133.7-306c56.8 76.9-11.1 153.6-3.7 237 1.3 14.5 30.5 145.2 25 145.6-4.3 0.4-4.5-6.5-0.1-6.4 3.7 0.1 4.1 5.6 0.5 6.3-5.4 1-4.7-9.9-5.1-12.5-8.1-54.4-29.5-107.6-28.3-163.2 0.9-41.8 19.5-78.2 27.5-118.4 3.8-19.5 3.3-39.3-3.6-58.1-6.5-17.7-17-35.7-12.2-30.3z"  fill="#fff500" /><path d="M144-399c6.1 47.9 34.2 91 34.1 139.9-0.1 60.8-44.5 110.3-46 171.5-0.3 13.3 12.5 78.2 10.6 82.3-2.2 4.9-8.7-1.8-3.7-3.9 4.2-1.7 5.6 5.8 0.9 5.6-5.4-0.2-6.6-19.1-7.4-23.3-26.7-125.5 25.4-128.4 37.4-222.5 6.4-50.5-22.3-94.9-31.1-143.2-0.8-4.2 3-14.4 5.2-6.4z"  fill="#fff500" /><path d="M149.6-4.6c2.2 11 17.1 74.1 13.9 79.9-2.5 4.4-8.7-1.2-4.7-4.2 4.1-2.9 7.4 4.8 2.5 5.7-6.6 1.2-6.8-24-7.5-28.4-2.7-16.2-10.8-36.2-10.1-52.5 0.2-3.7 4.9-3.5 5.9-0.5z"  fill="#fff500" /><path d="M156.9 7.5c1.4 7.6 14.8 68.4 8 68.9-4.3 0.3-4.5-6.5-0.1-6.3 4.3 0.1 3.8 6.9-0.5 6.3-5.7-0.8-5.3-21.5-6.1-25.9-2.2-14-5.2-28-7.3-42-0.6-4 4.8-4.7 6-1z"  fill="#fff500" /><path d="M165.5-95.4c-17.2 41.5-6.8 87.5 0.3 130 0.9 5.5 9.5 41.7 3 42.2-3.7 0.3-4.7-5.1-1.2-6.2 4.1-1.3 5.8 5.4 1.5 6.2-5.4 1-4.6-9.3-4.9-11.9-5.8-42.1-17.8-85.2-14.7-128 0.8-10.7 1.6-27.3 7.7-36.5 3.2-4.8 9.5-0.8 8.3 4.2z"  fill="#fff500" /><path d=""  fill="#005bbb" /><path d="M179.3-37.7c-1.2 12.1 8.4 114 7 114.1-4.2 0.4-4.5-6.3-0.3-6.2 4.2 0 3.8 6.7-0.4 6.2-9.8-1.2-17.5-103.9-13.8-115.6 1.4-4.5 7.2-2.7 7.5 1.5z"  fill="#fff500" /><path d="M187.1-126.4c-37.3 43.1-31.1 97.3-22.4 149.5 1.4 8.1 12.7 47.4 6.7 52.7-3.8 3.4-7.9-3.9-3-5.4 4.8-1.5 5.5 6.9 0.5 6.2-6.3-0.9-9.7-49.3-10.9-56.5-7.3-43.8-14.8-90.3 6.1-131.7 3.2-6.4 9.2-20.5 16.2-23.6 5.8-2.5 9.6 4.2 6.8 8.8z"  fill="#005bbb" /><path d="M194.2-128.1c-38.6 40.7-36.9 92.3-28.7 144.2 1.9 11.9 14.1 48.3 8.3 58.6-2.5 4.4-8.7-1.2-4.6-4.1 4.8-3.4 7.3 6.5 1.4 5.7-6.3-0.9-9.6-49.3-10.8-56.5-7.3-45.2-13.9-93 10.3-134.6 15.1-25.9 33.1-26.4 24.1-13.3z"  fill="#fff500" /><path d="M188-397.3c-12.7 49.7 7.8 99.8-1.4 149.8-10.2 55.8-50.4 100.2-53.1 158.4-1.2 25.7 3.3 51.1 8.8 76 0.7 3.3 8.5 23.6 1 22.4-3.3-0.5-3.1-5.5 0.3-5.7 3.4-0.2 4.2 4.7 0.9 5.7-6 1.7-8-21.3-8.8-25.1-8.2-36.9-13.6-74.6-4.9-111.9 9.8-42 36.9-77.1 46.9-118.9 10-41.4-2.6-82-1.4-123.6 0.7-25.1 13.3-43.5 11.7-27.1z"  fill="#005bbb" /><path d="M186.2-397.8c-11.9 49.9 8.9 99.8 0.1 149.9-9.3 52.5-46.4 94.9-52.1 148.6-2.3 22.1-0.1 44.4 3.9 66.2 0.6 3 7.5 22.3 0.3 21.1-3.3-0.5-3.1-5.6 0.3-5.8 4-0.2 4 6 0 5.9-5.5-0.3-6.4-19.8-7.2-24.1-19.7-104.3 22.9-121 45.2-207.7 11-42.6-2.5-84-1.8-126.8 0.4-25.2 12.6-43.6 11.3-27.3z"  fill="#005bbb" /><path d=""  fill="#fff500" /><path d="M223.1-250.6c-34 65.4-90.4 113.3-84.7 193 2.6 37 13.6 72.8 19.9 109.3 0.6 3.4 7.3 26.8-0.6 24.8-5.7-1.4 0.3-9.8 3.4-4.8 2.7 4.3-5.2 7.1-5.8 2.1-9.4-70.8-41.4-145.5-12.2-215.6 10.6-25.4 27.3-47.3 43.1-69.5 9.8-13.9 17.3-32.7 28.6-45.1 4.2-4.6 10.3 0.7 8.3 5.8z"  fill="#fff" /><path d="M229.6-43.6c-4.3 32.7 3.5 66 14.5 96.7 1.4 3.8 9.4 18 7.2 21.4-2 3.1-6.4-1.3-3.2-3.3 3.1-2 5.2 3.8 1.6 4.3-16 2.1-32.4-107.1-27.7-120.8 1.6-4.5 7.5-2.6 7.6 1.7z"  fill="#fff" /><path d="M237.4-244.9c-40.4 58.9-99.4 104.3-97.2 182.1 1.1 38.1 12.4 75.2 18.9 112.7 0.6 3.4 7.6 28.8-0.4 26.7-5.7-1.4 0.3-9.8 3.5-4.8 2.7 4.3-5.2 7.1-5.8 2.2-9.2-70.1-41-145.5-9.5-214.2 11.3-24.7 62.3-94.3 82.4-111.9 5-4.4 10.9 2 8.1 7.2z"  fill="#005bbb" /><path d="M242.9 0.3c4.2 19.2 11.4 37.7 19.8 55.5 1.4 3 11.4 17.7 7.2 19.7-2.6 1.2-4.2-3-1.5-4 2.7-0.9 3.9 3.5 1.1 4.1-4.3 0.9-9.3-14.7-10.8-17.8-8.7-17.9-16.7-36.6-21.4-56.1-0.9-3.7 4.3-4.7 5.6-1.4z"  fill="#c2e1ff" /><path d="M251.4-159.2c-42.5 36.7-80.3 70-80.8 130.3-0.2 27.9 4.9 55.8 8.9 83.3 0.5 3.3 6.6 23.9-1.1 22.1-4.2-1-2.2-7.5 1.8-6 4 1.5 1.4 7.7-2.5 5.8-10.4-5.1-22.1-135.7 2.5-179 8.7-15.2 49-63.6 65.7-67.4 6.7-1.5 9.5 6.4 5.5 10.9z"  fill="#005bbb" /><path d="M256.6 48.1c1.5 3.6 14.1 25.6 10.3 27.3-2.7 1.2-4.3-3.1-1.5-4 2.8-0.9 3.9 3.6 1.1 4.1-3.6 0.7-14.5-23-14.3-26.7 0.2-2.6 3.3-2.7 4.4-0.7z"  fill="#c2e1ff" /><path d=""  fill="#fff500" /><path d=""  fill="#005bbb" /><path d="M280.1-93.3c-11.6 55.6 24.6 90.4 54.7 131.4 2.9 3.9 24.9 35.6 18.6 37.8-3.1 1.1-4.5-3.9-1.4-4.6 2.7-0.6 4.1 3.3 1.6 4.5-2.5 1.2-20.6-34.5-23.9-39.1-22.7-31.6-52.3-58.1-58-98.6-1.4-9.5-3.3-24.6 0.5-33.7 2-4.7 8.1-2.2 7.9 2.3z"  fill="#c2e1ff" /><path d="M287.8-139.3c-26.6 43.7-40.8 89.8-20.7 139.3 8.5 20.8 21 39.5 32.9 58.5 1.1 1.8 12.7 16.4 7.4 17.1-7.3 1.1 3.9-8.2 1.5-1.2-1.4 4.1-4.6-1.5-5.1-2.4-26.7-45.2-60.3-88.5-53.1-144.3 2.9-22.3 12.6-56.9 28.8-73.4 4.5-4.6 10.6 1.1 8.3 6.4z"  fill="#fff500" /><path d="M294.9-350.7c-28.7 38.6-48.4 82.6-75.7 122.1-30.8 44.6-72.7 83.1-79 139.9-5 45.2 23.3 120.3 19.2 144.5-1.1 6.7-10.5-1.3-4-3.4 5.5-1.8 4.9 8.2-0.3 5.7-7.2-3.3-11-50.7-12.9-59.6-26.5-124.8 8.7-145.6 73.7-241.6 23.4-34.5 40.8-72.7 64.8-106.8 4.4-6.2 21.2-13.3 14.2-0.8z"  fill="#fff500" /><path d=""  fill="#005bbb" /><path d="M269.3-394.4c-45.1 44.4-45.4 99.9-68.1 155.3-18.2 44.5-52.3 81.5-62.2 129.4-3.7 18 3.3 76.3 0.9 81-2.5 5-9-2.3-3.7-4.3 5.3-1.9 4.9 7.9-0.2 5.7-5.4-2.4-5.3-23.8-5.9-29-9.3-81.7 34.4-120.7 63.5-189.6 22.3-52.7 22.3-108.9 63.3-152.8 6-6.5 19.8-5.4 12.4 4.3z"  fill="#fff500" /><path d="M313.2-30c12.9 17.6 81 82.4 70.9 104.4-1.7 3.6-7.2 0.7-5.2-2.7 2.4-4 8 1.3 4.2 3.9-2.2 1.5-18.2-40.5-22-46.4-13.5-20.9-33-36.5-48.8-55.5-1.4-1.7-1.8-6.4 0.9-3.7z"  fill="#c2e1ff" /><path d="M323.7-316.6c-54.9 106.5-159.3 155.9-174.1 228.4-11.2 55.1 22 131.6 16.3 161.3-1.1 5.8-9.8 0.3-5-3.2 5.7-4.1 6.7 8.6 0.4 5.5-7.6-3.8-10.6-56.8-12.5-66.7-9.8-51.1-17.2-104 12.4-150.3 35.7-55.9 97.5-89.4 133.9-146.1 6.8-10.6 11.9-25.3 20.3-34.7 4.1-4.6 10.3 0.6 8.3 5.8z"  fill="#fff" /><path d="M330.8-221.4c-33.5 61-99.3 113-105.7 185.7-2.7 29.9 3.9 60 13 88.3 0.8 2.4 11.1 25.7 4 23.3-3.1-1.1-1.2-5.9 1.8-4.5 2.6 1.2 1.2 5.2-1.6 4.6-16.4-3.7-33.9-116.4-11.9-166 13.4-30.3 35.1-55.8 54.8-82.1 12.8-17 22.9-40.2 37.4-55.5 4.4-4.6 10.4 0.9 8.2 6.2z"  fill="#005bbb" /><path d="M334.6 16.1c5.2 5.9 43.4 53.3 33.5 59.8-3.5 2.3-6-4.2-1.8-4.9 4.2-0.6 3.7 6.4-0.4 5.2-4.2-1.2-6.8-16.4-8.6-20.3-6.2-14-34-50.2-22.7-39.8z"  fill="#005bbb" /><path d=""  fill="#fff" /><path d="M349.4-83c32.4 52.7 81.8 63.7 85.4 136.2 0.2 4.7 3 20.5-1.8 23.4-6 3.6-8-8.3-1.2-6.9 6.8 1.5 0.1 11.6-3.9 5.8-1.3-1.9-3.7-58.3-10.5-73.5-14.8-33.1-46.3-50.8-67.6-78.6-1.2-1.5-4.3-10.9-0.4-6.4z"  fill="#fff" /><path d="M359.3-191.1c-7.4 30.7-10.9 63.2 5.1 91.9 31.8 57 79.7 65 82.6 143.4 0.3 8.5 2.3 23.3-1.1 31.1-2.4 5.6-10.7-0.3-6.1-4.4 4.6-4.1 9.6 4.8 3.7 6.5-8.1 2.5-4.2-13.6-4-16.5 1.2-19.8 0.4-39.9-5.4-59-14.9-49.8-67.4-72.7-83.4-120.9-6.7-20.3-9.4-55 0.5-74.9 2.4-4.7 8.5-1.8 8.1 2.9z"  fill="#005bbb" /><path d="M324.2-395.2c-18.3 25-38.9 48.1-55.2 74.5-17.8 28.8-31.6 59.8-50 88.2-15.9 24.6-35.3 46.6-51.5 71-10.3 15.5-18.8 32.2-23.7 50.2-1 3.8-1.7 24.4-9.3 20.2-5.5-3 1.4-10.9 5.1-5.8 3.7 5.1-5.8 9.3-7.1 3.1-8.1-40.2 48.2-103.2 69.9-133.7 22.9-32.2 38.9-68 59.4-101.6 15.3-25.2 34.3-47.5 52.1-71 4.8-6.3 14.9-3.1 10.3 4.9z"  fill="#005bbb" /><path d="M373.5-197.4c-4.5 26.8-5.5 54.6 6 79.9 30.8 67.6 79.3 72.5 77.6 164.5-0.1 5.7 1.9 27.1-3.7 30.1-4.7 2.5-8.3-5.1-3.3-7 4.9-2 7.7 5.9 2.5 7.4-8.7 2.5-3.7-17.6-3.4-20.7 1.5-20.9 1.1-42.2-4.1-62.6-12.9-51.4-62.6-79.4-77.4-129-5.3-17.6-9.3-47.1-2-64.7 1.9-4.6 7.9-2.3 7.8 2.1z"  fill="#fff500" /><path d="M377.6-74.9c38.2 42.1 68.9 73.1 67.5 134-0.1 4.2 2 17.2-3.8 18.3-5.1 1-6.3-7.2-1.1-7.7 4.5-0.4 5.7 6.2 1.5 7.6-8.6 2.7-3.9-18.4-3.9-21.8 0.7-20.9-1.4-42.1-9.3-61.7-10.8-26.6-31.6-45.2-51.1-65.3-1.1-1.1-2.5-5.7 0.2-3.4z"  fill="#c2e1ff" /><path d="M387.9-233.4c-5.2 33.2-11.6 68-0.3 100.7 29 84.1 85.3 72.4 72.9 201.3-0.2 2.3-4 15-8 6.5-5.2-11.1 16.4-1.2 4.6 2.1-8.6 2.4-3.7-16.2-3.4-19.3 1.9-22.1 1.9-44.4-2.7-66.2-11.5-53.9-60.6-86.6-73.4-139.1-6.8-28.2-3.3-59.1 2.2-87.2 1-5.3 8.2-3.9 8.1 1.2z"  fill="#c2e1ff" /><path d="M392.2-7.9c14.9 17.4 24 38.3 27 60.9 0.6 4.3 4.9 22.1-1.1 23.9-5.5 1.6-6.1-7.8-0.4-7 5.6 0.9 2.2 9.7-2.6 6.5-5-3.3-3-29.2-4.2-35.7-3.3-17.1-31.1-60.9-18.7-48.6z"  fill="#005bbb" /><path d="M399.2-76.9c35 38.9 56.4 76.1 54.8 130-0.1 4.9 1.6 21.3-3.4 24-4.7 2.5-8.3-5-3.4-7.1 4.9-2 7.7 5.9 2.6 7.4-8.7 2.5-3.7-18.1-3.5-21.3 1.3-20.9 0.5-42.2-5.4-62.4-7.7-26.3-24-47.1-42.1-67.1-1.1-1.2-2.4-5.9 0.4-3.5z"  fill="#fff" /><path d="M408.9-190.2c1.6 82.4 64 131.5 62.1 223.9-0.1 6.6 1.3 42.1-6.1 43.4-6.2 1-5.6-9.4 0.4-7.7 7.1 2-0.7 12.1-4.4 5.8-2.8-4.7 2.4-79-0.4-94.7-8.3-47.8-39.6-85-52.4-130.9-3.6-12.8-5.8-26.2-6.2-39.4-0.1-4.6 6.2-4.6 7-0.4z"  fill="#c2e1ff" /><path d="M416-186.2c3.7 81.2 59.7 128.4 56.5 222.5-0.2 6.3 1.1 40-6.2 41.2-7.2 1.2-4.5-11.3 1.6-7.1 5.2 3.5-2.4 10.6-5.6 5.2-2.9-4.8 2.7-80.4 0.3-96.1-7.3-46.6-35-84.5-47.3-129.3-7.2-26-2-50.6 0.7-36.4z"  fill="#fff500" /><path d=""  fill="#005bbb" /><path d="M450.7-399.3c65.5 139.2 31.3 125.6 25.8 258.5-1.7 40.5 6.5 80.6 8 121 0.1 3.7 3.3 16.6-3.5 16.3-4.1-0.2-4.5-6.4-0.4-7.1 4.8-0.8 5.7 6.8 0.8 7.1-4.7 0.3-12.6-123.7-12.3-137.5 0.8-40.7 13.2-79.9 14.7-120.4 1.7-48.3-15.8-91.1-36.1-133.9-1.4-2.9 0.5-8.1 3-4z"  fill="#c2e1ff" /><path d="M437.8-240.9c-0.3 29.8-2.4 59.6 2.6 89.1 7.1 42.3 26.8 81.3 33.3 123.8 1.9 12.1 10.7 102.8-3.4 105.1-6.2 1-5.6-9.3 0.4-7.7 7 2-0.7 12.1-4.4 5.8-2.7-4.5 3.4-81.1 1.9-95.7-5.9-55.3-34-105.1-37.7-160.8-4.3-64.1 6.1-70.8 7.3-59.6z"  fill="#fff" /><path d="M444.7-272.2c2.8 38.8-3.1 77.8 1.5 116.6 5.5 46 25.1 88.8 30.2 135 1.3 11.5 7.7 95.6-4.9 97.6-6.2 1-5.6-9.3 0.4-7.7 7 2-0.7 12.1-4.4 5.8-2.5-4.2 3.6-83.8 2.1-98.4-4.5-44-22.2-84.7-29.2-128.1-5.7-36-1.5-72-2.1-108.2 0-2.2 4.2-25 6.4-12.6z"  fill="#005bbb" /><path d="M451.1-114.8c16.4 54.5 29.4 104.5 25.3 162.1-0.4 5.3 0.9 29.2-5.8 30.3-7.2 1.2-4.5-11.2 1.6-7.1 5.2 3.5-2.4 10.6-5.6 5.2-2.6-4.3 3.9-70.2 3.2-82.4-1.1-19.3-24.5-104.7-23.9-107.8 0.5-2.9 4.1-2.6 5.2-0.3z"  fill="#fff500" /><path d="M458.8 3.6c2.5 14 10.3 61.2-0.3 72.4-4.3 4.5-10.1-4-4.3-6.3 5.8-2.3 7.5 7.9 1.2 7.5-2-0.1-5.2-67.3-2.7-74.2 1.2-3.3 5.3-2.3 6.1 0.6z"  fill="#fff500" /><path d="M465.6-54.7c5.5 19.5 18.5 117.3 5.6 130.7-4.3 4.5-10.1-4.1-4.3-6.4 5.8-2.3 7.5 7.9 1.3 7.6-6.6-0.4 0.3-54.4 0.3-62.3 0-23.2-11.4-91.3-2.9-69.6z"  fill="#005bbb" /><path d="M473.5-125.2c1.3 30.5 21 184.4 5.1 201.3-4.3 4.5-10.1-4-4.3-6.3 5.8-2.3 7.5 7.9 1.3 7.5-5.8-0.3 1.3-72.9 1.3-82.4-0.1-40.3-8.7-79.6-10.3-119.7-0.2-4.5 6.1-4.6 6.9-0.4z"  fill="#c2e1ff" /><path d="M490.3-399.3c65.1 130.6 21.7 152.5 2.8 271.3-7.2 45.4-2.1 92-4 137.8-0.2 3.7 2 18.4-4.9 17.6-5.1-0.6-3.7-8.6 1.3-7.4 4.3 1 3.5 7.5-0.9 7.4-5.6 0-1.8-138.1 0.1-153.1 5.3-43.8 25.4-84 30.7-127.7 5.7-46.8-5.8-93.6-25.2-136-0.4-0.9-4.4-17.1 0.1-9.9z"  fill="#fff500" /><path d=""  fill="#fff500" /><path d=""  fill="#005bbb" /><path d="M502.9-98.3c-3.3 17.1-12.3 176.2-18.7 175.3-4.4-0.6-4.2-7.4 0.3-7.7 5.2-0.4 5.4 7.9 0.1 7.7-8-0.3-1-33.9-0.5-39.6 3.2-37 3.9-74.2 7.4-111.2 4-43 11.5-27.3 11.4-24.5z"  fill="#fff500" /><path d="M510.1-78.1c-8.9 38.8-10.6 79.3-14 118.9-0.5 5.7 0.3 37.2-7.2 36.2-4.4-0.6-4.3-7.3 0.2-7.6 5.2-0.4 5.4 7.8 0.2 7.7-8-0.2-2-25.3-1.5-30.3 3.7-41.8 4.3-85.7 14-126.7 1.3-5.5 8.8-3.6 8.3 1.8z"  fill="#fff500" /><path d="M517.5-204.7c-29 98-23.5 115.5-27.8 213.7-0.4 8.1-1.4 69.3-9.4 68.1-6.1-0.9-2.4-10.5 2.8-7.1 5.2 3.4-2.2 10.5-5.5 5.3-7-11.3 3.9-52.7 4.7-66.6 2.5-49.4-2.9-100 6.9-148.8 3.4-16.8 8.6-56.7 20.8-69.1 3.5-3.5 8.3 0.3 7.5 4.5z"  fill="#c2e1ff" /><path d=""  fill="#fff500" /><path d=""  fill="#fff500" /><path d=""  fill="#fff" /><path d="M544.9-370.5c7.3 41.7 14.8 84.9 10 127.3-8.3 72.7-49.8 111.4-56.7 206.6-0.9 12-5.3 114.8-12.8 113.8-7.1-1-0.9-11.8 3.5-6.2 4.5 5.6-7.5 9.2-6.8 2 5.2-59.6 3.9-122.7 17.5-181 9.3-39.8 32-74.3 42.7-113.6 13.4-49.2 3.5-98.6-3.4-147.9-0.6-4 4.9-4.7 6-1z"  fill="#005bbb" /><path d=""  fill="#c2e1ff" /><path d="M559.7-388.2c3.3 51 14.9 103.1 8.9 154.3-7.8 66.7-54.2 120-63.7 187.3-1.6 11.3-8 106.1-14.3 105.2-7.1-1-0.9-11.8 3.6-6.2 4.5 5.6-7.5 9.2-6.9 2.1 4.5-52.7 5.3-108.3 21.5-159.1 12.3-38.6 37.4-71.8 47.8-111 15.1-56.7-1.2-115-3.7-172.2-0.2-4.5 5.9-4.7 6.8-0.4z"  fill="#005bbb" /><path d="M567.8-16.6c-6.9 19.4-10.4 39.8-10 60.4 0.1 7 5.3 25.2 2.4 30.9-2.2 4.3-8.4-0.8-4.5-3.8 4.5-3.5 7.2 6 1.5 5.4-16.7-1.6-1.7-85.3 1.9-95.7 2-5.7 9.8-2.8 8.7 2.8z"  fill="#c2e1ff" /><path d="M574.6 14.4c-1.7 11.9 4.9 55.6 2.7 60.4-2.2 4.9-8.7-1.8-3.7-3.8 4.2-1.7 5.5 5.7 1 5.5-10.3-0.5-8.7-55.2-7.9-62.9 0.6-5.2 7.8-4.1 7.9 0.8z"  fill="#005bbb" /><path d="M582.4-94.2c-23.9 38-43.6 75.5-48.8 120.9-0.7 6.5 0 51.6-5.6 49.8-4.4-1.4-1.8-8.2 2.5-6.3 3.6 1.6 1.8 7.2-2.1 6.4-8.8-1.8-2.7-50.1-1.8-57.5 4.3-37.5 19.3-92.6 47.5-119.9 4.7-4.5 10.7 1.4 8.3 6.6z"  fill="#fff500" /><path d="M588.4-270.3c9.8 110.6-54.5 144-74.2 240.4-3.1 15.1-8.6 101-12.8 106-4.5 5.3-10.2-5.4-3.3-6.1 5.9-0.7 4.9 9.2-0.8 7.3-6.8-2.3-0.7-32.2-0.2-38.1 4.8-56.1 13.2-111 41.5-160.5 11-19.3 23.6-37.8 32-58.5 13.7-33.4 5.8-58.5 11.1-90.7 0.7-4 5.9-3.3 6.7 0.2z"  fill="#005bbb" /><path d="M596.1 10.4c-1.7 13.4 7.2 57.8 5.1 63.3-1.6 4-7.5 0-4.4-3 3.7-3.5 7 4.7 1.9 4.7-10.9 0.1-11.2-57.8-10.4-65.8 0.5-5.2 7.6-4.2 7.8 0.8z"  fill="#fff" /><path d="M603-57.9c-15.5 30.4-28.1 61.7-27.2 96.3 0.1 5.2 6.6 38.9 1.4 38.2-3.3-0.5-3.1-5.4 0.2-5.7 3.9-0.3 4 5.8 0.2 5.7-7.6-0.3-8.7-38.7-8.9-44.8-0.6-28.5 6.7-72.7 26-95.3 4-4.7 10.2 0.4 8.3 5.6z"  fill="#fff" /><path d=""  fill="#c2e1ff" /><path d=""  fill="#c2e1ff" /><path d="M602.6-390.1c-6.5 56.5 0.5 122.3 1 175.7 0.6 66.2 5.4 80.1-25.1 128.7-4 6.4-15 33.3-22.5 34.2-6.8 0.8-7.5-10-0.6-10.1 6.9-0.1 6.4 10.8-0.5 10.1-8.1-0.8-2.8-9.8-0.9-13.3 10.7-20.2 37.8-47.9 38.9-71 3.6-81.8-4.1-164.5 1.2-246.1 0.3-4.9 8.2-19.9 8.5-8.2z"  fill="#fff" /><path d=""  fill="#c2e1ff" /><path d=""  fill="#fff500" /><path d=""  fill="#c2e1ff" /><path d=""  fill="#c2e1ff" /><path d=""  fill="#fff500" /><path d=""  fill="#fff" /><path d=""  fill="#c2e1ff" /><path d=""  fill="#fff" /><path d=""  fill="#fff500" /><path d=""  fill="#c2e1ff" /></svg>