<svg width="1200" height="675" viewBox="-500 -500 1200 675" xmlns="http://www.w3.org/2000/svg"><path d="M-500-500h1200v675h-1200z" fill="#000"/><path d=""  fill="#14213d" /><path d=""  fill="#fca311" /><path d=""  fill="#e5e5e5" /><path d=""  fill="#ffffff" /><path d=""  fill="#e5e5e5" /><path d=""  fill="#112233" /><path d="M-389.5-54.1c11 15.3-13 28-18.9 12.1-8.7-23.6 36.1-15 19.3 3.7-19.7 22-30.5-34.7-2.4-17.8z"  fill="#e5e5e5" /><path d=""  fill="#ffffff" /><path d="M-354.3 62.6c-6.1 6.4-28.9 40.2-36.8 14.7-11.6-37.3 52.4 3.3 13.6 8.6-28.5 4-3.7-36.6 4.6-42.8 13.3-9.9 26.5 7.1 18.6 19.5z"  fill="#ffffff" /><path d="M-338.2-305.9c-3.3 20-42.5 153.2-65.2 142.4-13.8-6.6-2.3-27.8 10.8-19.8 13 8.1-0.8 27.9-12.9 18.5-13.8-10.7 11.6-49.3 16.4-60.5 6.1-14.2 28.8-83.3 33.6-89.1 7-8.4 18.2-1 17.3 8.5z"  fill="#112233" /><path d="M-324.2-398.4c1.2 87.3-6.9 126.4-42.6 206.1-6 13.5-13.1 48.2-26 55.9-15.3 9.1-24.7-19-6.9-20.8 17.7-1.9 14.4 27.6-2.5 21.8-21.8-7.4 22.8-85 29.1-98.9 19.6-43 32.8-83.6 32.8-131.3 0-10.7-2.7-24-0.3-34.5 2.2-9.9 15.2-7.3 16.4 1.7z"  fill="#e5e5e5" /><path d="M-303.8-261.1c-11.8 37.4-34.1 71.1-49.8 107-12.2 27.9-21.2 57.5-34.7 84.8-2.8 5.8-9.4 8.7-15.4 5.7-13.9-6.8-2-28.1 11-19.8 13.1 8.2-1.1 28.1-13.1 18.5-14.2-11.3 16.4-61.1 21.5-74.1 8.5-21.5 50.7-123.4 62.9-134.2 9.1-8.1 20.1 1.9 17.6 12.1z"  fill="#14213d" /><path d="M-287-263.4c-13.6 49.1-46 92.9-65.5 139.9-6 14.5-31 99.2-51.4 88.8-13.9-7.1-1.6-28.3 11.5-19.8 13 8.5-1.5 28.3-13.5 18.4-14.9-12.2 22.6-71.7 28.5-86 9.6-23.5 60.4-141.2 72.9-152.8 8.7-8.1 19.8 1.4 17.5 11.5z"  fill="#ffffff" /><path d=""  fill="#fca311" /><path d="M-275.9-399.4c2.1 41.7 15.8 81.7 8.1 123.7-9.5 51.6-44.5 95.2-65.9 142.3-7.6 16.7-18.7 65.4-35.7 74-16.6 8.5-24.4-21.4-5.8-22.1 18.6-0.7 13.1 29.7-4 22.5-18.7-7.8 7-43.4 11.3-53.3 22.5-51.2 53.3-99.1 74.3-150.6 27-66-4-94.9 2.2-136.9 1.4-9.5 13.7-7.9 15.5 0.4z"  fill="#fca311" /><path d=""  fill="#14213d" /><path d="M-219.2-228.6c-25.1 70.4-89.8 166.4-136 225.9-8.4 10.8-32.5 65.5-48.9 56.9-13.9-7.3-1.2-28.5 11.8-19.8 13 8.7-1.9 28.5-13.8 18.4-18.4-15.5 68.3-115.6 95.7-162.4 12.7-21.7 61.9-122.3 73.7-132.1 9.6-7.9 20.5 2.7 17.5 13.1z"  fill="#14213d" /><path d="M-205.4-362.1c4.4 31.6 11.5 62.5 7.8 94.6-8.8 76.4-87 200.1-138.5 257-10 11-40.6 57.7-49.7 61.8-17.5 7.8-23.9-23.3-4.7-23.1 19.1 0.2 11.9 31.2-5.4 22.9-11.7-5.6-5.1-17.4-0.8-25.2 20.7-37.7 53.1-65.9 79-99.7 26.3-34.3 45-74.1 65.4-112 15.8-29.2 31.9-59 37.1-92.2 3.3-21.7-8.2-74-4.4-85.4 2.6-7.7 12.3-5.5 14.2 1.3z"  fill="#fca311" /><path d="M-186-251.8c-9.4 57.4-62.7 166.9-99.7 211.9-21.1 25.6-47.8 45.5-69.9 70.1-8.2 9.2-33.6 53.2-40.3 54.4-17.8 3.4-16.9-26.6 0.7-22.2 17.5 4.4 4.1 31.3-10 19.9-26-21.1 78.6-117.4 101.8-143.4 36.4-40.8 57.1-95.7 79.4-145 6.8-15.1 10.3-42.3 20.6-54.4 7.2-8.4 18.3-0.8 17.4 8.7z"  fill="#e5e5e5" /><path d=""  fill="#112233" /><path d="M-152.7-251.8c-3.3 36.5-14.7 71.7-20.9 107.7-15.5 90-14.8 147.5-98.1 203.8-11.8 8-33.5 28.9-48.2 28.9-20.6-0.1-18.7-32.5 1.8-30.2 23.9 2.7 11 40.5-9.6 28-35.1-21.3 83.1-69.2 111.3-123.4 30.3-58.1 21.3-156.8 45.7-219.4 4.2-10.6 18.1-5.5 18 4.6z"  fill="#112233" /><path d="M-136.1-248.3c-1.9 32.1-7.7 63.9-7.7 96.2-0.1 82.2 19.9 121.5-27.3 198.8-6.3 10.3-15.8 34.2-27.7 38.5-16 5.9-23.9-19.9-7.3-24 19.4-4.8 20.3 28.3 0.6 24.5-30.7-5.9 39.1-82.4 48.4-128.7 12.6-63-17.9-144.9 3.5-208.9 3.5-10.4 17.1-6.2 17.5 3.6z"  fill="#ffffff" /><path d="M-119.8-213.1c-1.6 110.3 62 146.6-5 257.8-5.8 9.7-15.7 38.5-28.4 40.4-15.7 2.3-18-22.6-2.2-23.2 15.9-0.6 15.5 24.4-0.3 23.3-34.6-2.4 39.7-97.6 45.3-130 9.8-56.3-26.9-111.2-26.2-168.1 0.1-11.1 15.4-10.7 16.8-0.2z"  fill="#fca311" /><path d=""  fill="#fca311" /><path d="M-83.8 16.6c-7.3 12.8-39.8 77.3-57 67.4-13.9-8-0.1-29.2 12.9-19.8 13 9.5-3.1 29.1-15 18.3-14.2-13 29.5-75.8 42.3-83.3 11.9-6.9 21.9 6.6 16.8 17.4z"  fill="#14213d" /><path d="M-70.3-75c10.9 43.5-8.7 82.3-32.4 117.3-6.8 10-23.4 51-39.9 41.5-11.9-6.8-3.7-25.6 9.4-21.5 15.3 4.8 6.4 28.5-8.3 22.1-24.1-10.6 44.5-95.8 50.8-112.6 4.8-12.7 2.5-42.7 7.2-49.8 4-6 11.7-3 13.2 3z"  fill="#14213d" /><path d="M-52.5-273.4c3.8 141.3 144 202.9 27.5 321-9.5 9.6-31.7 40.7-46.2 39.4-24.7-2.1-5.4-40.7 11.1-22.2 16.5 18.5-24.1 33.3-23.3 8.5 0.7-21.7 77-73 85.7-119 11.9-62.8-43.7-112.6-61.1-168.7-5.2-16.8-13.1-42.4-9.7-60.1 1.9-9.7 14.5-7.6 16 1.1z"  fill="#e5e5e5" /><path d="M-38.6-106.1c33 65.7 1.3 115.5-41.5 165.5-6.9 8-16.9 30.1-30.3 26.2-18.9-5.5-3.3-34.2 11.6-21.3 14.9 12.9-11.4 32.4-19.4 14.5-10.2-22.6 49-71.6 60.5-89.1 32.9-50.3 3.5-79.6 8.9-95.5 1.8-5.1 7.9-4.4 10.2-0.3z"  fill="#ffffff" /><path d="M-23.7-397.2c-8 52.8-17 110.2-9.9 163.6 10 75.6 84.6 134.8 63.4 215.2-2.3 8.9-5.4 25.7-16.9 27-19 2.1-15.7-29.4 2.5-23.4 18.1 6.1 1.8 33.3-12.1 20.2-8.2-7.7 13.3-51.3 13.4-67.9 0.2-68.9-61-121.7-67.9-190.8-3.2-31.9-2.3-120.4 9.3-148.9 4.4-10.8 18.4-5.4 18.2 5z"  fill="#fca311" /><path d="M0.4-14.6c-6.4 21.5-74.5 112.7-92.3 97.9-13.6-11.3 5.4-31.8 17.8-19.1 12.3 12.8-8.8 31.1-19.7 17.1-15.3-19.7 44.7-64.9 55.7-78 7.5-8.9 12.3-23.9 21.2-31 9.6-7.8 20.4 2.8 17.3 13.1z"  fill="#ffffff" /><path d=""  fill="#14213d" /><path d="M12-394.2c-25.8 57.5-44.6 130.2-25.9 192.3 18.1 60.7 80.5 124.1 50.8 192.1-8.5 19.4-33.5-5.5-15.3-14.2 16.1-7.6 22.7 21.1 5 21.4-21.8 0.2 3.7-51.5-2.9-83.6-8.5-42-36.6-76.4-50.8-116.4-17.3-48.9-11.2-101.8 1.7-151 4.1-15.7 8-38.5 17.8-51.8 8.3-11.2 23-0.7 19.6 11.2z"  fill="#14213d" /><path d=""  fill="#ffffff" /><path d="M67.5-24.6c-3.4 23.3-55.1 124.6-82 110.6-16.7-8.7-1.7-34.3 14-23.9 15.7 10.4-2.1 34.3-16.5 22.2-18.2-15.2 20.1-42.3 28.7-51.8 11.1-12.3 38.5-66.4 40.3-67.7 8.1-5.6 16.5 2.1 15.5 10.6z"  fill="#14213d" /><path d="M84.8-3.6c-4.6 17.8-36.9 100-62.7 89.2-16.7-7-4.2-32.7 11.6-23.9 15.8 8.8 0.6 32.9-14.1 22.5-4.8-3.4-6.8-9.8-4.8-15.4 5.7-15.8 23.6-30.4 32.7-44.9 6.4-10.1 11.4-34.2 21.8-40.2 9.1-5.2 17.3 3.8 15.5 12.7z"  fill="#ffffff" /><path d="M97.7-138.8c19.6 68.4 22 127.3-8.2 193.3-3.9 8.4-8.5 25.4-17.4 29.7-14.6 7-24.3-16.6-9.1-21.9 17.8-6.3 21.6 24.8 2.8 23-26.9-2.5 22.6-75.7 29.6-118.3 8.3-50.6-8.9-66-10.3-103.8-0.3-7.9 9.9-8.4 12.6-2z"  fill="#14213d" /><path d="M70.5-388c-57.7 51.9-91.3 129.5-62.8 205.7 16.7 44.6 54.4 92.7 45.9 143.3-3 17.6-28.3 2.4-15.3-8.4 13.5-11.2 22.8 17.8 5.3 16.6-12.8-0.9-7.4-50.3-10.7-63.4-24.9-99.9-88.5-130.8-30.9-249.1 10.8-22.1 29.4-54.9 51.5-67.5 15.3-8.7 27 10.8 17 22.8z"  fill="#e5e5e5" /><path d="M62.5-388.6c-47.5 46.1-79.2 114.5-64.1 181.6 4.6 20.5 52.7 115.6 48.5 124.9-5.3 11.6-20.7-4.4-8.9-9.2 10.1-4.1 13.2 13.7 2.3 13.2-10.8-0.5-16-39-19.8-47.6-37.2-85.2-64.5-135.9-17.6-227.5 9.4-18.3 24.1-45.6 42-57 14.5-9.2 26.8 9.4 17.6 21.6z"  fill="#fca311" /><path d="M149.9-77.7c3 19.8-5.1 165.8-31.1 160.3-12.7-2.7-7.3-22.5 4.9-18.4 12.3 4.1 4.9 23.1-6.9 17.8-18.1-8.2 13.3-95.6 15.7-112.1 1.8-12.4-3.6-41.8 3.5-51.5 4.5-6.1 12.5-2.5 13.9 3.9z"  fill="#14213d" /><path d="M164.1-386.7c-56.4 45.3-137.8 83.3-137.4 167.1 0.2 53.7 71.9 166.3 38.2 212.3-10.1 13.8-28.8-7.5-13.9-15.7 17.5-9.7 21.9 24.8 2.5 19.8-14.2-3.7 5-59.5-3.3-94.3-17.3-72.2-63.2-130.6-22.4-205.4 14-25.7 97.6-105.9 124.5-110.6 16.4-2.9 22.1 16.6 11.8 26.8z"  fill="#fca311" /><path d="M185.5-19.5c-1.8 14.2-11.2 102.6-24.9 101.6-11.6-0.9-9.2-19 2.2-16.9 11.4 2.1 7.1 19.9-4 16.6-16.8-5 1.1-97.2 9.6-108.6 6.4-8.5 17.5-1.8 17.1 7.3z"  fill="#e5e5e5" /><path d="M201.3-259.4c-6.3 73.4 78.4 106.4 105.2 165.3 19.1 42 5.7 83.9-10.8 124-4.2 10.2-12.2 56.8-27.9 52.8-11.1-2.9-8.6-19.8 2.9-19.4 11.4 0.4 12.7 17.5 1.4 19.5-13.9 2.5-11.2-13.7-9.7-21.2 9.7-47.1 44.3-91 35.6-141-10.2-58.5-71.4-86.4-99-135-6.7-11.8-17-32.2-14.2-46.2 1.9-10 14.9-7.7 16.5 1.2z"  fill="#112233" /><path d="M219.1-363c-53.2 39.5-118.9 99.1-118.2 171.1 0.8 88.5 50.8 123.8 9.6 228.5-7.5 19.2-32.9-4.3-15.3-13.3 18.1-9.3 21.4 25.9 1.9 20.2-15.9-4.7 11.6-74.9 12.3-101.8 2.5-104.7-63.3-148.5 14.8-252.4 19.3-25.7 49.4-64.8 79.6-78.1 16.9-7.5 27 14.3 15.3 25.8z"  fill="#14213d" /><path d="M235.1-271.4c-6.7 55 53.1 87 88.5 116.9 57 48.1 65.1 112.2 33.2 177.7-6.1 12.5-19.8 57.3-34 60.8-19.8 4.9-15-30.3 2.8-20.2 17.8 10.1-10 32.3-15.9 12.7-5.9-19.3 55.5-106.5 50.1-154.4-8.3-74.2-86.4-94.9-124.4-149.1-7-10-22.2-34.7-16.2-47.5 3.9-8.4 14.6-4.8 15.9 3.1z"  fill="#112233" /><path d="M252.9-280.3c-15.5 59.5 57.3 94.8 92.4 127.8 51.6 48.5 56.2 113.2 25.3 174.6-6.4 12.8-22.6 59.5-37.2 62.6-20.5 4.2-14.2-31.6 3.7-20.6 17.8 11-11.5 32.7-16.8 12.4-4.1-15.4 56.7-104.2 54.2-150.6-4.3-79.3-84.3-100.6-123.7-157.3-7.9-11.4-23.8-40.3-15-54.5 5.4-8.7 16.7-3.3 17.1 5.6z"  fill="#112233" /><path d=""  fill="#ffffff" /><path d="M287.1-30c-2.3 17.5-24.3 92.7-31.7 107.7-1.9 3.7-6.1 5.8-10.2 5-12.5-2.4-7.7-21.9 4.5-18.2 12.2 3.7 5.3 22.6-6.5 17.6-12.4-5.3 16-107.6 26.7-120.4 6.9-8.4 18-1.1 17.2 8.3z"  fill="#e5e5e5" /><path d="M304.6-318.1c-23.1 19.8-36.2 47.7-23.6 77.3 15.1 35.2 51.8 55.6 78.1 81.5 49.2 48.6 58 114 27.7 175.5-6.3 12.8-22.4 56.7-38.2 58.6-21.9 2.7-12.2-34.4 5.6-21.3 17.8 13.1-14.8 33.3-18.7 11.7-1.9-10.5 50-91.9 52.8-126.6 8.3-106.7-110.2-119.6-127.6-203.2-4.5-21.8 3.9-68.5 29.2-76.9 14.9-4.9 22.8 12.5 14.7 23.4z"  fill="#ffffff" /><path d="M321.8 46.5c-3.9 8.4-12.2 48.2-28.6 35.4-9.6-7.5 0-22.9 10.9-17.7 11 5.2 5 22.4-6.9 19.6-17.6-4.1-1.1-44.3 6.8-50.7 9.8-8 20.8 2.8 17.8 13.4z"  fill="#ffffff" /><path d="M330-149.9c65 56.2 51.1 127.6 15.9 195.9-4.9 9.4-12 39.3-26 38.1-17.4-1.5-8.8-29.2 6.4-20.5 17.8 10.2-10.1 32.3-16 12.7-5.4-17.9 43.9-95.3 48.9-122.5 4.3-23.1 1-46.9-9.6-67.9-6.1-12.1-30.4-44.1-19.6-35.8z"  fill="#ffffff" /><path d="M353.7-53.5c1.6 28.5-27.4 109.9-43.8 133.1-2.7 3.8-7.7 5.4-12.1 3.9-13.4-4.8-4.7-25.6 8.1-19.4 12.8 6.2 1.9 25.9-10.2 18.4-15.4-9.6 8.9-49.9 13.8-60.6 4.7-10.1 28.8-81.4 29.4-82 6-6.1 14.3-0.8 14.8 6.6z"  fill="#14213d" /><path d="M372.4-362.5c-20.4 35.6-75.2 58.1-70.9 105.1 3.5 38.4 41.8 63.9 66.3 89.3 40.5 42.1 59.3 98.7 40.9 155.8-3.6 11.2-11.5 42.2-26.1 43.5-19.3 1.6-15-30.2 3.1-23.6 21.3 7.8-5 37.2-15.1 16.8-3.9-7.8 34.4-54.2 27.7-111.6-9.9-85.3-128.3-129-112.1-204.7 4.8-22.3 50-79.7 70.1-89.6 12.7-6.3 22 8.3 16.1 19.1z"  fill="#fca311" /><path d="M388.9-20.8c-3.9 16.7-41.1 114.1-61.3 104.3-13.8-6.7-2.1-27.9 10.9-19.7 13 8.2-1 28-13 18.4-11.4-9 40-107.9 46-113.7 8.3-8.2 19.4 0.8 17.4 10.7z"  fill="#e5e5e5" /><path d="M405.8-366.7c-8.5 40.5-50.9 70.7-48.6 113.5 1.8 35.6 32.2 63.4 49.6 92.2 32.8 54.1 37.4 118.7 8.9 175.6-5.7 11.3-17.7 43.3-32.4 43.7-19.9 0.6-13.8-31.9 4.5-24.1 21.5 9.2-7.2 38-16.4 16.6-2-4.6 42.3-84.4 45.6-109.8 13.3-100.8-73.9-136.1-76.5-209.1-0.8-21.5 33.9-96 47.9-109.5 8.4-8.1 19.4 1 17.4 10.9z"  fill="#112233" /><path d=""  fill="#14213d" /><path d="M439.1-44.2c-2.1 20-48.1 145.7-75.2 128-13.9-9.1 1.6-30.2 14.4-19.7 12.9 10.5-4.8 29.9-16.5 18-14.1-14.4 24.4-56.8 31.9-69.1 9.9-16.2 21.3-56.2 28.3-65 6.6-8.4 17.7-1.5 17.1 7.8z"  fill="#112233" /><path d="M456.9-1.5c-5.6 15.3-43.5 100.9-65.1 85-13.9-10.2 3.4-31.1 16-19.5 12.7 11.6-6.7 30.6-18.1 17.6-10-11.4 51.2-97.5 52-97.8 10.1-4.7 17.9 5.5 15.2 14.7z"  fill="#14213d" /><path d=""  fill="#112233" /><path d="M536.6-399.7c29.6 87.3-38.1 151.9-49.8 233.8-4.4 30.9 1.4 133.5-19.5 128.7-15.1-3.4-4.1-26.6 8.2-17.2 12.2 9.5-7.5 25.9-14.6 12.2-5.8-11.2 3.7-38.8 4.3-51.7 5.8-118.2 6.9-103 49.4-209.6 20.1-50.4 4.4-76 9.3-96.2 1.7-7 10.5-5.9 12.7 0z"  fill="#e5e5e5" /><path d="M522-400.6c34.1 79-21.2 140.3-35.6 214.8-4.7 24.1 1 206.8-36.3 201.1-18.1-2.8-7.2-31.2 8.1-21.1 15.3 10.1-6.6 31.3-16.2 15.7-0.6-0.9 19.7-80.1 20.7-94.7 2.9-44.6-0.9-89.5 10.4-133.2 11.2-43.2 38.6-81.4 42.7-126.5 1.7-17.9-8.1-38.9-5.4-55.2 1.1-6.5 9.1-6.1 11.6-0.9z"  fill="#fca311" /><path d="M523.8-2.9c-2.5 14.1-18.3 98.4-41.2 86.7-13.9-7.1-1.6-28.4 11.5-19.8 13.1 8.5-1.5 28.4-13.6 18.5-13-10.7 11-46.9 14.9-58.6 3.2-9.5 4.2-30.7 12.8-36.9 7.9-5.8 16.4 1.7 15.6 10.1z"  fill="#e5e5e5" /><path d="M537.7-392.4c26.6 90.8-49 162.6-53.9 256.8-3.2 60.5-2.1 116.6-32.7 171.3-3.8 6.7-8.2 18.7-16.1 21.5-16.1 5.9-24-20-7.4-24.1 19.5-4.8 20.2 28.5 0.6 24.7-28.6-5.6 29.6-63.1 35.9-137 4-46.9-0.2-94.2 13.6-139.9 12.9-42.8 41-80 47.3-124.9 2.1-15-4.6-35.3-0.6-48.9 2.1-7.3 11.2-5.7 13.3 0.5z"  fill="#112233" /><path d="M557-103.3c-3.9 31.3 1.7 167.8-18.9 184.8-12.4 10.2-24.6-13.6-9-17.7 15.6-4.1 16.6 22.7 0.7 19.8-18.7-3.4 1.8-58.7 3.5-70.6 4.5-32.5-3-93.4 5.9-119.9 3.5-10.6 17.3-6.2 17.8 3.6z"  fill="#112233" /><path d="M574.2-360.5c-6.8 68.2-54.9 115.1-74.4 178-24.2 78.1-3 150.1-47.1 226.1-5.7 9.9-16.6 37.8-31.9 32.8-19.2-6.3-2.2-35.1 12.6-21.3 14.8 13.8-12.8 32.8-20.5 14.1-2.9-7 39.9-76.3 45.6-93.1 19-56.6 7.6-117.8 24.2-175 11.4-39.3 36.3-71.2 53.9-107.6 7.7-16 11.9-49.6 20.6-61.2 6.3-8.4 17.3-1.9 17 7.2z"  fill="#14213d" /><path d="M592.2-266.4c-28.8 41.8-65.6 77.2-78.1 128.2-16.2 66-10.3 129.2-43.7 191.2-4.9 9.2-10.3 23.4-18.5 30.2-15.3 12.6-30.3-16.6-11.1-21.7 22.5-5.9 17.6 34.2-2.8 23.1-17.4-9.5 28.9-73.5 37.8-101.7 29.6-93.5 1.8-143.9 70.8-232.7 8.3-10.7 16.4-25.3 26.7-34.1 12.1-10.2 25.7 5.2 18.9 17.5z"  fill="#e5e5e5" /><path d="M609.1-229.6c-25.3 36.3-51.4 71.1-59.8 115.7-6.4 34.3-5.2 178.5-30.5 196.2-14 9.7-24.8-16.4-8-19.4 16.8-3 15.6 25.3-0.9 20.9-18.4-4.9 10-77.4 12.3-92.1 7-46.8 1.9-95.3 14.7-141.2 7.7-27.4 21.5-52 37.5-75.4 5-7.4 11.5-22.4 21.2-24.6 12.3-2.9 18.7 10.3 13.5 19.9z"  fill="#112233" /><path d="M608.8-354c-25.2 78.2-94 135.5-107.9 215.2-3 17.5-7.7 160.6-35.7 148.1-10.1-4.5-7.8-19.9 3.1-21.2 12.8-1.6 17.3 17.2 5.1 21.6-23.4 8.3-9.7-25.6-7.4-32.4 18.4-56.8 8-118.3 29.4-174.5 15.4-40.4 45.1-72.3 66.8-109.1 10.6-18 16-40.4 27.3-57.4 7.4-11.1 22-1.8 19.3 9.7z"  fill="#14213d" /><path d=""  fill="#e5e5e5" /><path d=""  fill="#fca311" /><path d=""  fill="#e5e5e5" /><path d="M608.9-255.5c-32 46.1-70.8 84.7-81.3 142.1-2.1 11.2-2.9 99.7-23.3 87.8-11.2-6.6 0.1-23.7 10.6-16 8.9 6.6 0.5 21-9.7 16.5-12.5-5.6-2-35.5-1-44.9 6.2-65.1 18.6-116.1 59.2-168.8 8.3-10.7 16.3-25.5 26.7-34.2 12.1-10.2 25.7 5.3 18.8 17.5z"  fill="#ffffff" /></svg>