<svg width="1200" height="675" viewBox="-500 -500 1200 675" xmlns="http://www.w3.org/2000/svg"><path d="M-500-500h1200v675h-1200z" fill="#000"/><path d=""  fill="#005bbb" /><path d=""  fill="#fff" /><path d=""  fill="#c2e1ff" /><path d=""  fill="#fff500" /><path d="M-395.1-31.2c14.5 19.8 47.8 112.5 15.6 114.3-13.2 0.8-13.3-20.2-0.1-19.5 11.3 0.6 12.3 17.5 1.1 19.4-20.4 3.4-5.3-50.3-6.3-60.5-1.8-18.4-16.8-36.9-17.9-51.1-0.4-4.5 5.1-5.6 7.6-2.6z"  fill="#c2e1ff" /><path d=""  fill="#005bbb" /><path d=""  fill="#fff500" /><path d="M-374.6-288.2c-31.5 57.6-14.6 31.5-19.4 162.6-0.8 22.5-6.8 80.3 1.4 107.9 3.3 11.1 42.3 98 10.1 100.6-13 1.1-13.6-19.5-0.6-19.1 13 0.3 11.4 20.8-1.5 19.1-15.6-2.1-4.5-29.7-4-38.2 1.6-25.6-12.5-45.5-13.6-69.6-3.8-84-4.4-171.2-4.9-254.5 0-4.5 4.5-7.7 6.8-11.6 10.2-17.6 34.8-19.2 25.7 2.8z"  fill="#005bbb" /><path d=""  fill="#c2e1ff" /><path d=""  fill="#c2e1ff" /><path d="M-326.6 17.3c-0.7 12.4-9.3 77.4-31.5 65.9-13.6-7-1.4-27.7 11.3-19.3 12.7 8.4-1.6 27.7-13.3 18-10.9-9 20.7-74.3 22.5-74.8 6.6-1.5 11.1 4 11 10.2z"  fill="#fff" /><path d="M-309-275.9c-33.2 41.1-70.9 89.9-61.6 146.1 12 72.6 60.5 104.5 33.8 187.9-2.8 8.7-6.1 27.9-19.1 26.1-15-2.1-10.4-25.6 4.3-21.8 14.7 3.7 7.6 26.5-6.6 21.2-18.1-6.8 7-47.5 9.5-58.7 17.5-75.9-51-134-37.7-209 4.5-25.4 37.6-101 62-111.8 13.1-5.8 21.9 9.4 15.4 20z"  fill="#fff500" /><path d="M-292.5-257.1c-23.6 29.4-47.3 61.9-51.5 100.6-8.6 81.1 53.9 122.4 14.9 218.2-3.4 8.4-7.6 25.6-20.1 23.1-15.4-3-9.3-26.9 5.6-22.3 14.9 4.6 6.4 27.8-8 21.6-18.4-8 10-48.9 13.5-60.5 22.4-74.3-36.5-139-19.3-212.6 4.7-20.1 30-79 49.3-87.7 13-5.9 21.9 9.1 15.6 19.6z"  fill="#fff" /><path d="M-276.1-326.5c-34.5 60.5-106.4 112.3-98.4 189.7 5 48.9 40.9 88.1 44.1 137.9 1 14.7-2.3 86.7-26.4 83.4-15-2-10.5-25.4 4.2-21.8 14.6 3.6 7.7 26.4-6.5 21.2-18.1-6.7 6-45 8.6-56.2 19.5-80.7-57.6-142.4-36.3-223.1 7.2-27.2 72.8-135.7 94.5-148.1 11.6-6.7 21.3 6.6 16.2 17z"  fill="#fff" /><path d="M-259.5-204.2c-13.1 20.8-22.8 43.6-25.8 68.2-5.8 46.3 8.3 92.4-0.8 138.7-3.1 15.8-22.9 89.9-46.7 82.5-15.9-4.9-6.9-29.5 8.4-23 15.3 6.6 3.6 30.1-10.8 22-18.4-10.4 14.2-47.1 19.3-58.1 35.4-75.1-6-157.8 30.8-232.5 10-20.2 34.2-18.5 25.6 2.2z"  fill="#fff500" /><path d="M-243.8-13.6c-3.7 18.1-31.6 110.9-60.1 99-16.2-6.8-4.2-31.8 11.3-23.2 15.4 8.5 0.7 32-13.7 21.9-17.2-12.1 12.6-38.1 19-48.1 9.9-15.5 16.5-47.6 26.5-58.6 7.3-8.1 18.2-0.3 17 9z"  fill="#fff500" /><path d="M-227.3-8.4c-3.9 17.4-29.3 105.2-56.8 93.8-16.2-6.8-4.2-31.8 11.2-23.3 15.4 8.5 0.7 32-13.7 22-17.3-12.1 12.9-38.7 19.2-49.2 8.8-14.8 12-40.8 23.1-52.7 7.5-8.1 18.4 0 17 9.4z"  fill="#005bbb" /><path d="M-211.2-43.2c-3.8 20.1-26.4 141.2-60.1 128.3-16.2-6.2-5.1-31.1 10.4-23.2 15.4 7.9 1.7 31.5-12.9 22-17.6-11.6 14.5-43.3 20.3-54.5 9.3-18.3 17.7-70.6 25.5-80.4 6.6-8.3 17.5-1.3 16.8 7.8z"  fill="#fff500" /><path d="M-194.5 69.3c-2 9-15.3 23.6-20.6 7.3-4.1-12.8 16.4-18.2 19.1-5 2.7 13.2-18.3 16.3-19.5 2.9-1.7-17.9 23-23.5 21-5.2z"  fill="#fff" /><path d="M-179.8-390.4c10.2 126.5-80.8 159.1-93.9 261.3-6.1 47.8 6.4 188.3-32.9 180.3-18-3.7-5.6-31.6 9.2-20.7 14.8 10.9-8.1 31-17.1 15-3.8-6.9 18.7-56.4 21-70 8.9-53.3-6.1-107.1 12.8-159.2 19.9-54.8 66.9-96.1 80.7-153.5 3.9-16.4-1.5-41.8 5.2-56.1 3.7-7.9 13.7-4.4 15 2.9z"  fill="#fff500" /><path d="M-162.4-327.1c-2.5 67.9-52 115-74.5 175.7-25.7 69.3-8.1 143.4-48.1 209.3-5.7 9.4-15.7 32.9-30.3 27.3-18.9-7.3-0.3-35.3 13.8-20.8 14.1 14.6-14.6 32.2-21.3 13.1-2.6-7.5 37.1-66.6 42.6-82.7 17-50.8 8.6-105.8 24.7-156.9 13.4-42.4 41.6-76.9 60.3-116.7 5.3-11.3 11.9-50.2 18-55.8 6.4-5.9 14.7 0 14.8 7.5z"  fill="#005bbb" /><path d="M-131.9-400.9c23.2 56 79.8 102.7 91.1 162.6 9.9 52.9-29.9 87.9-61.6 123.5-9.1 10.2-39.5 61.2-45.7 60.8-19.7-1.5-4.6-32.4 8.6-17.7 13.3 14.6-18.9 26.7-18.5 6.8 1.3-59.1 93.1-102.4 101.5-160.8 7.4-51.4-42.3-97.3-66.8-137.7-4.7-7.8-9.3-15.7-13.4-23.8-10.6-20.7 1.2-19.6 4.8-13.7z"  fill="#005bbb" /><path d="M-105.7-400.8c36.1 54.3 107.5 76.3 134.1 137.8 25.7 59.4-5.4 111.9-48.9 151.6-8.2 7.5-21.6 26.1-34.6 18.4-11.8-6.9-6.9-25.6 6.8-25.8 16.1-0.2 19 23.7 3.3 27.4-11.3 2.6-20.7-9.5-15.5-19.8 21.5-41.7 95.4-55.5 80.4-137.9-11.5-62.8-74.3-88.5-115.3-129.2-4.5-4.5-15.8-13-16.9-19.6-0.7-4 4.1-5.4 6.6-2.9z"  fill="#c2e1ff" /><path d=""  fill="#fff" /><path d="M-98.3-271.9c17.7 81.3-67.2 139.8-86.9 223.7-5.3 22.6-19.2 121.8-36.2 131.3-15.5 8.6-23.9-19.5-6.3-20.8 17.7-1.3 13.5 27.8-3.1 21.5-18.1-6.8 7-47.9 10.1-58.7 40.9-142.9 1.6-87.9 89.9-227.3 23.7-37.4 10.5-49.7 18.6-71.3 2.8-7.5 12.2-5 13.9 1.6z"  fill="#fff500" /><path d="M-79.1-203.8c-17.4 61.2-76.6 88.1-93.5 173.3-3.2 16-14.5 109.3-20.5 112.2-13.4 6.3-18.8-17.8-4-17.9 14.8 0 9.6 24-3.9 17.9-13.2-6.1-0.2-42.8 1.2-53 12.7-92.7 21.1-134.2 80.1-209.3 8-10.2 14.1-27.7 23.7-35.7 9.2-7.6 19.7 2.5 16.9 12.5z"  fill="#fff" /><path d="M-62.4-186.3c-25.8 60.6-79.4 78.6-94.7 156.1-5.2 26.6-6.3 53.9-5.7 81 0.1 6.1 6 34.1-8.8 29.6-8.4-2.5-6-15.5 2.7-14.9 10.3 0.8 8.2 16.9-2 15.1-12.6-2.4-8.2-36-8.3-44.4-1.5-81.4 19-142.8 72.9-203.8 8.5-9.6 16.7-27.2 27.3-34.1 10.8-7 20.8 5.1 16.6 15.4z"  fill="#c2e1ff" /><path d="M-10.6-400.2c99.4 76.5 131.5 198.5 49.7 302.2-6.9 8.7-37.2 53.5-44.2 54.5-15.3 2.2-17.4-22.1-1.9-22.7 15.4-0.5 14.9 23.9-0.5 22.8-8-0.6-12.7-9.2-9.4-16.4 29-62.3 85.6-99.3 85.8-174.2 0.1-43.9-13.5-89-40.9-123.6-1.9-2.3-49.1-49-38.6-42.6z"  fill="#005bbb" /><path d="M-30-93.2c-30 27.7-52.8 62.1-46.6 104.7 2.3 16.2 8.2 31.6 15.9 45.9 0.6 1.2 15.5 21.2 4.1 19.9-5.5-0.7-4-9.2 1.4-8 5.4 1.2 3 9.6-2.3 7.8-9.2-3.2-18.5-27.6-22.3-35.9-25.4-53.7-13.5-113.6 30.3-154 13.4-12.4 30.3 5.9 19.5 19.6z"  fill="#fff500" /><path d="M-13.8-110.6c-32.9 30.2-67.7 61.7-66.3 110.2 0.6 21.7 25.7 70.7 25.5 74.1-0.5 7.6-12.4 1.9-6.8-3.2 6.6-6.1 9.8 9.8 1.4 6.8-10.4-3.6-20.6-31.7-24.6-41-27.7-64.2 0.2-125.7 51.8-167.7 14.4-11.7 30.6 7.2 19 20.8z"  fill="#005bbb" /><path d="M-5.8-370.3c70.8 50.1 106 146 62.1 225.8-21.2 38.6-61 64.3-79.2 104.6-6.6 14.5-9.3 30.4-7.6 46.2 0.5 5 11.5 29.6-0.6 29.4-6.5-0.1-7.4-9.9-0.9-11.2 7.5-1.5 9.2 10.5 1.6 11.2-7.6 0.7-9.7-13.5-11.2-18-8.4-26.4-7.3-54.3 4.2-79.6 25.2-55.6 84.9-85.8 94.7-150 6.4-41.6-5.2-86.3-30-120.1-2.2-3-45.1-45.5-33.1-38.3z"  fill="#005bbb" /><path d="M17.8-223.7c8.7 85.4-97.2 115.3-118.8 188.4-20.2 68 17.9 107.2 16.4 110.6-3.5 7.4-13.2-3-5.6-6 7.6-3 7.5 11.3-0.1 8.2-12.1-4.9-21.7-39.2-25.1-50.6-33.2-110.1 45.6-135.3 98.2-205.4 10.3-13.8 15.2-45.2 20.8-51.2 5.6-5.9 13.6-1 14.2 6z"  fill="#fff500" /><path d="M33.3-238.7c22.3 98-95.4 127.4-118.6 206.9-15.7 54.1 21.5 89.2 20.3 105.5-0.6 7.7-12.6 1.8-6.9-3.5 6.8-6.1 9.9 10.1 1.4 7-12.4-4.5-23.9-39.9-27.8-51.3-37.3-111.7 57-134.8 102.8-208.4 4.7-7.6 8.5-15.7 10.9-24.3 2.8-9.7-0.9-27.6 4.7-35.5 4.2-5.8 11.8-2.6 13.2 3.6z"  fill="#fff" /><path d="M45.8-397.2c49.7 69.2 70.7 173.6 41.4 255-14.8 41.1-48.9 74.3-58.6 117.2-2.4 10.8 6.5 65.7-2.2 65.3-7.9-0.4-6.6-12.9 1.2-11.6 7.9 1.2 5.2 13.5-2.4 11.4-8.2-2.2-10.4-22.7-11.9-29-18.7-81.6 58.8-137.1 68-214.4 5.7-48-1.6-100.2-19.3-145.1-6.2-15.6-17.8-29.8-23.3-45.2-1.7-4.6 4.3-6.9 7.1-3.6z"  fill="#c2e1ff" /><path d="M67.3-222.6c4.1 102.1-97.2 123.8-112 203.2-6.2 33.4 26 92.7 25.5 94.2-3 7.1-12.5-2.3-5.5-5.4 7.1-3.1 7.5 10.3 0.2 7.7-10.6-3.8-22.4-34.7-26.6-44.5-42.8-98 40.9-131.5 83.6-200.9 11.9-19.4 11-45 19.1-59 4.7-8 15.1-3.4 15.7 4.7z"  fill="#fff500" /><path d="M80.9-389.9c27.5 74.7 41.3 169.4 21.8 247.5-10.6 42.6-39.2 79.8-45.1 123.6-5.9 44.2 17.8 79.7 3.9 78.9-8-0.4-6.7-12.9 1.2-11.6 7.9 1.3 5.2 13.6-2.5 11.4-8-2.2-10.3-22.2-12.1-28.4-25.9-88.6 35.1-140.4 44-223.1 4.7-43.8 0.7-89.8-6.9-133-1.8-10.1-17.4-60.7-15.3-65.7 2.2-5.3 8.8-4.1 11 0.4z"  fill="#c2e1ff" /><path d="M101.6-133.8c-13 48-46.7 90-42.1 141.9 0.9 10.2 16 68.9 15.9 69-6.3 8.7-16.3-7.2-5.7-9.1 9-1.7 8.5 13.6-0.4 11.3-8.8-2.3-12.6-27.7-15-35-18.8-57.3-8-101.7 15.8-155.2 4.4-10 7.1-22.3 12.9-31.6 6.7-10.8 20.8-2.4 18.6 8.7z"  fill="#fff" /><path d="M115.8-348.6c6.1 67.7 13.8 139.8 6.6 207.5-4.6 43.7-23.4 84.8-26.4 128.6-1.6 22.8 14.7 84.4 9.5 90.2-6.8 7.7-16.8-6-7.4-10.1 9.3-4.1 12.7 12.5 2.5 12.3-19-0.4-21.9-93-21-107 2.9-44.2 21.5-85.4 26.4-129.3 6-54.7-10.7-158.6-5.3-192.8 1.5-9.2 13.5-7.5 15.1 0.6z"  fill="#c2e1ff" /><path d="M133.8-68.6c-14.2 97-0.8 143.9-4.4 147.3-8.1 7.7-17.7-8.1-7.1-11.8 10.6-3.6 12.6 14.8 1.5 13.7-10.5-1.1-9.5-25.2-10.4-31.9-5.7-39.7-5.7-80.6 2.1-120.1 2.4-12 18.6-9 18.3 2.8z"  fill="#c2e1ff" /><path d="M139.3-397.7c-7.3 63.1-7.5 127.4-1.9 190.6 3.7 41.9 14.2 144.9-2.4 181.7-6.8 15.1-26.8-5.7-11.5-11.9 13.1-5.3 17.1 17.8 2.9 17.2-16.8-0.8 0.9-96.6 0.9-112.1 0-86.3-14.2-170.2-6.7-257 1.4-16.4 18.4-28.5 18.7-8.5z"  fill="#fff" /><path d="M165.9 53.1c-0.2 6.2 3.7 33.3-11.1 27.7-7.5-2.8-6.5-14.1 1.4-15.5 9.2-1.7 13.2 11.8 4.5 15.4-14.7 6.2-13.8-25.4-10.5-31.6 4.3-8.1 14.8-3.9 15.7 4z"  fill="#fff" /><path d="M182.8 55.7c-0.6 5.3-1.6 37.4-16.1 23.7-19.5-18.5 32.6-15.6 11.2 0.6-16.2 12.2-14.2-22-12.3-27.8 3.4-10.3 16.8-6 17.2 3.5z"  fill="#fff500" /><path d="M198.4 74.9c-4.1 12.9-21.7 4.5-15-5.7 9.9-15.1 24.1 14.3 6.2 12.7-21.4-2 7.7-32 9-8.4z"  fill="#005bbb" /><path d="M213.4-92.4c12.4 42.7 1 84.8-8.5 126.7-2.2 9.8-2.5 51.1-18.5 48-12.2-2.4-7.5-21.4 4.5-17.8 11.9 3.7 5.1 22.1-6.4 17.2-16-6.9 4.3-65.3 7.3-78 4.7-20.3 9.8-40.8 10.7-61.7 0.4-9.3-6-28.3-1.4-36.3 3.2-5.7 10.5-3.4 12.3 1.9z"  fill="#005bbb" /><path d="M230.9 76.1c-6.1 12.1-22.1 1-13.9-8 12.1-13.3 21.5 17.9 4.1 13.5-20.8-5.3 12.7-30.4 10.2-6.8z"  fill="#c2e1ff" /><path d="M248.1-278.1c-9.8 62.6 64.8 95.2 101 131.8 47.5 48.1 46.7 109.5 26.4 170-4.3 12.7-12.7 56.8-26.9 60.2-19.6 4.6-14.4-30 2.9-19.9 17.4 10.1-10.2 31.7-15.8 12.4-3.3-11.4 42.6-112.6 36.8-156.5-9.9-74.8-83.9-95-123-149.5-8.6-12-21.6-34.6-18-50.3 2.4-10 15.4-7.2 16.6 1.8z"  fill="#c2e1ff" /><path d="M266.1-0.6c-4.1 13.4-24.3 90.7-42.5 83.5-13.3-5.3-3.8-25.7 8.8-19 12.6 6.7 1 26-10.8 18-10-6.8 19.8-86.4 27.4-93.5 8.4-8 19.2 1.2 17.1 11z"  fill="#005bbb" /><path d="M273.9-193.6c85.7 75.8 132.3 98.3 85.2 224.7-4.5 12-12.7 50.4-26.7 53.2-20.3 3.9-13.5-31.3 3.9-20.2 17.4 11.1-11.7 32.1-16.8 12-2.5-10.2 43.6-107.8 40.9-147.6-3.8-54.9-46.6-85.7-86.3-116.8-2.2-1.7-4.7-8.2-0.2-5.3z"  fill="#fff500" /><path d="M296.4-265.1c-1.8 47.7 53.1 78.3 80.4 110.1 44.7 52.2 45.1 115 26 178-3.8 12.4-10.2 56-23.4 60.1-18.3 5.7-15.7-27.5 1.4-19.1 17.2 8.4-7.5 30.8-14.1 12.8-2.5-6.6 35.4-120.9 32.3-155.3-6.6-74.1-69.5-99.5-105.2-155.7-25-39.2-1.7-46.7 2.6-30.9z"  fill="#fff" /><path d="M307-151.7c24.4 20.1 44.8 45.6 51.7 77.1 7.7 35.5-24.4 163.4-49.5 159.1-13-2.3-11.7-22 1.5-22.6 15.4-0.7 15.2 23.7-0.2 22.7-30.1-2 33.2-91.8 34.3-144.9 0.5-21.4-5.5-42.1-17.1-60.2-6.7-10.5-30.9-38.4-20.7-31.2z"  fill="#c2e1ff" /><path d="M323.1-178.5c74.4 58.2 88.7 117 59.4 205.9-4.3 13.1-9.5 47.3-21.4 55.1-12.1 7.9-23.5-11.8-10.6-18.4 15-7.7 22.1 19.4 5.2 20.1-21.1 0.8-4.4-31.1-1.7-38.8 13.5-38.6 30.5-79.1 26.9-120.7-2.2-25.8-12.6-49.8-28.9-69.8-9.3-11.4-41.3-41.2-28.9-33.4z"  fill="#005bbb" /><path d="M346.6-265.3c-6.9 49 62.4 104.5 79.3 152 18 50.5 8.3 100.6-6.9 150.3-3.1 10-7.7 51.5-24.5 45.9-11.1-3.7-7.4-20.8 4.2-19.6 11.7 1.2 11.7 18.7 0.1 20.1-19.1 2.2-7.2-26.2-5.1-33.6 12-41.9 28.8-83.7 25.8-128.1-4.5-67.1-53.6-100.9-80.7-156.9-19.4-40.1 4.8-48.4 7.8-30.1z"  fill="#005bbb" /><path d=""  fill="#fff500" /><path d="M376-394.1c-14 55.3-104.7 78.8-90.4 141.9 14.8 65.9 108.8 86.2 123.2 176.9 1 6.6 4.7 19.4 0 25.3-8.1 10.5-22.2-6.5-10.4-12.6 11.8-6.1 17.4 15.2 4.2 15.8-14.1 0.6-8.5-27.8-9.4-35.2-2.6-21.2-10.3-41.4-22.2-59.1-31.5-47.2-109.5-79.1-102.7-145.1 4.7-45.5 46.6-65.1 73.9-95.7 6.2-6.9 10.7-21.8 19.2-26 9.5-4.6 17.1 5 14.6 13.8z"  fill="#fff" /><path d="M392.1-124.1c26.7 45.6 20.5 98.2 5.7 146.5-3.6 11.9-11.4 62.3-27.6 61.7-16.5-0.6-9.7-27 5-19.6 14.7 7.4-2.6 28.6-12.8 15.7-5.5-7 22.3-84.3 26-99.4 15.9-64.8-6.6-78.3-5.7-103 0.2-5.5 6.9-5.9 9.4-1.9z"  fill="#fff" /><path d="M412.5-54.7c0.7 18.2-20.1 146.8-43.8 138-13.2-4.9-4.3-25.2 8.2-18.9 12.6 6.3 1.6 25.6-10.3 17.9-13.8-8.9 7.4-48.9 11-59.9 5.2-16.1 14.8-73.7 19.3-81.6 4.6-8 14.9-3.5 15.6 4.5z"  fill="#fff500" /><path d="M430.4 30c-3.3 10.9-8.6 53.5-23.5 53.7-13.7 0.1-12.7-21.5 0.9-20.1 15.9 1.6 7.6 26.8-6.1 18.7-12.5-7.4 4.1-55 11.5-62.6 8-8.1 18.9 0.6 17.2 10.3z"  fill="#c2e1ff" /><path d="M445-368.1c4.4 43.6-18.8 84.1-15.2 127.4 3.6 43.2 27.9 82.6 37.8 124.6 13.5 56.8 3.6 109-15 163.2-3.2 9.2-6.4 37.2-20 36.9-16.3-0.4-9.9-26.7 4.8-19.5 17.2 8.4-7.5 30.7-14.2 12.8-2.5-6.6 33.3-114 34.7-137.9 4-70.1-38.9-125.7-44.4-193-1.2-14.3 11.1-107.7 16.4-118 4-7.9 14.1-4.1 15.1 3.5z"  fill="#005bbb" /><path d="M461.9-338.5c0 36.2-11.9 71.1-8.1 107.4 12.8 124.1 65.4 128.3 8.5 282.2-3.3 9-6.4 33.4-19.6 32.7-16.6-0.8-9.4-27.4 5.3-19.7 17.2 9-8.4 31.1-14.7 12.6-1.9-5.6 35-112.1 36.7-135.3 5.1-68.4-30.1-128.2-33.2-194.9-1.3-26.6 0.6-62.4 8.5-88 3.1-10 16.1-6.2 16.6 3z"  fill="#005bbb" /><path d="M476.3-178.5c18.9 80.4 24 148-6.3 226.4-3.6 9.2-8 37.1-21.7 36.2-16.8-1.1-9-27.9 5.7-19.8 14.8 8-3.6 29.1-13.6 15.6-4.6-6.1 28.9-92.4 32.5-109 10.8-49.8-10.8-144.4-9.4-149.5 1.8-7 10.6-5.8 12.8 0.1z"  fill="#fff" /><path d="M493.9-211.7c6.4 105.6 30.1 161.4-14.4 266.1-3.7 8.7-7.9 31.4-21 30-17.1-1.8-8.2-28.9 6.7-20.1 14.8 8.8-4.7 29.6-14.5 15.5-4-5.8 32.1-93 35.9-109.9 16.4-72.9-14-142.5-7.8-182.1 1.4-9.2 13.4-7.6 15.1 0.5z"  fill="#fff500" /><path d="M510.2-354.7c7 50.6-4.6 101.4-2.9 152.2 2.6 79.3 19.8 154.2-10.5 230.8-4.6 11.7-16.7 58.1-33 56-20.3-2.5-3.2-33.7 9.8-17.9 11.1 13.5-14.7 26.6-19.1 9.8-0.4-1.4 41.3-110.4 43.9-135.6 7-69.6-10.4-150.7-4-237 1.2-16.5-4.8-45.8 1.4-60.5 3.2-7.7 12.9-4.8 14.4 2.2z"  fill="#fff500" /><path d="M528.4-399.4c10 69.4-5.5 137.1-6.6 206.3-1.3 79.8 14.8 161.9-24.2 236.2-9.9 19-33.2-7.7-14.4-15.2 16.6-6.6 21.5 22.7 3.6 21.7-27.7-1.5 20.5-62.4 21.5-141.5 0.5-40.6-4-81.2-2.8-121.8 1.1-40.5 8.2-80.5 9.7-120.9 0.8-20.9-4.3-44.5-1.5-65 1.2-9 12.9-7.6 14.7 0.2z"  fill="#005bbb" /><path d=""  fill="#005bbb" /><path d="M561.5-278.1c-7.7 38.3-16.4 76.3-19.6 115.4-3.9 47.5-0.3 95.9-10.6 142.8-3.8 17.4-29.3 108.9-53 104.5-17.8-3.3-6.1-31.1 8.7-20.5 14.8 10.5-7.5 30.7-16.5 14.9-3.9-6.9 35.7-84.5 40.5-100.6 19.5-65.5 9.1-136.6 20.4-203.6 3-18 4.1-42.4 11.9-58.9 5-10.6 19-4.4 18.2 6z"  fill="#fff500" /><path d="M578.3-147.3c-15.3 49.1-14.3 101.7-31.2 150.3-5.3 15.2-31.2 87.6-52.5 82-15.7-4.1-7.9-28.5 7.2-22.7 15.1 5.8 4.8 29.1-9.7 21.8-20.3-10.4 27.6-72.2 33.5-85.8 18.7-43.4 17.7-123.7 34-153.2 6-10.9 20.2-3.3 18.7 7.6z"  fill="#fff500" /><path d="M582.7-393.4c-42 73.4-42.3 243.5-48.2 329.3-1.1 16.5-8.4 103.8-34 99.8-17.6-2.7-6.9-30.4 7.9-20.5 14.9 9.9-6.5 30.4-15.8 15.3-4.2-6.9 18-59 20.6-72.2 9.3-46.8 4.9-95.2 8-142.5 3.8-58.1 14.8-118 27.1-174.8 3-13.9 5.9-35.1 15.2-46.4 8.8-10.9 23.1 0.3 19.2 12z"  fill="#005bbb" /><path d="M608.4-49c-8.7 27.9-37.6 127-67.6 135.1-19.7 5.4-21.4-28.4-1.2-25 20.1 3.4 7.4 34.8-9.4 23.2-4.7-3.2-6.7-9.4-4.9-14.7 7.5-21.8 31.1-41.3 41.6-62.8 7.4-15.1 14.8-56.3 24.3-66 7.9-8.1 18.9 0.4 17.2 10.2z"  fill="#c2e1ff" /><path d="M589.2-392.9c-34.9 51.8-50.2 195.7-51.8 259.7-0.7 29.9 4.1 105.7-12.7 129.4-11.1 15.7-29.3-12.4-10.4-16.1 16.1-3.2 15.5 24.1-0.5 20.2-16.7-4.1-0.8-35.7 0.9-44.9 5.4-28.9 5.5-58.3 6-87.6 0.8-49.7 18.9-241.7 49.3-274.5 9.9-10.7 24 1.9 19.2 13.8z"  fill="#fff" /><path d=""  fill="#fff" /><path d=""  fill="#005bbb" /><path d=""  fill="#fff" /><path d=""  fill="#fff500" /></svg>