<svg width="1200" height="675" viewBox="-500 -500 1200 675" xmlns="http://www.w3.org/2000/svg"><path d="M-500-500h1200v675h-1200z" fill="#000"/><path d=""  fill="#005bbb" /><path d=""  fill="#fff" /><path d=""  fill="#fff500" /><path d=""  fill="#005bbb" /><path d=""  fill="#fff500" /><path d=""  fill="#c2e1ff" /><path d=""  fill="#005bbb" /><path d="M-392.4-222.8c0.9 8.5 8.6 53.4-7.5 50.9-10-1.5-6.7-17.1 3.1-14.5 9.8 2.6 4.8 17.8-4.6 14.1-8.6-3.3-6.1-45.9-3.2-52.6 2.8-6.4 11-3.9 12.2 2.1z"  fill="#fff500" /><path d=""  fill="#c2e1ff" /><path d="M-370-342.6c-8.5 58.2 34.7 108.1 43.6 163.8 10.5 65.3-26.3 121.3-51.4 178.4-3.8 8.7-9.9 45.2-23.2 41.2-10.6-3.2-4.7-19.7 5.6-15.3 8.7 3.7 4.7 17.3-4.7 15.5-13.8-2.6-2.4-26.5-0.1-33.5 17.2-51.5 51.8-97 60.3-151.4 9.6-61.8-29.8-110-41.8-167.7-10.1-48.5 11.1-39.8 11.7-31z"  fill="#005bbb" /><path d="M-356.3-156.1c-0.8 16-20.5 103.2-45.6 94.9-13.3-4.4-5.2-25 7.5-19.2 12.7 5.8 2.5 25.4-9.5 18.2-15.2-9.1 13.1-40 17.8-49.4 7.2-14.4 7.8-37.3 16.3-49.6 4.7-6.8 13.5-2 13.5 5.1z"  fill="#fff" /><path d=""  fill="#fff" /><path d="M-329.8-360.5c-1.1 62.6 54.5 109.2 71.9 166.6 19 62.4-11.1 126.2 6.9 188.6 3.7 13 36.1 69.4 35.5 73.9-0.9 6.9-11.5 1-6.1-3.4 4.6-3.8 9.1 5.1 3.3 6.6-6.5 1.7-12.8-16.6-14.9-20.3-71.1-121.1-9.1-149.8-36.7-249.6-13.2-47.8-49.4-84.2-65.9-130.4-15.9-44.6 3.6-44 6-32z"  fill="#c2e1ff" /><path d="M-363.3-393.3c-16.8 27.6-28.7 56.9-27.6 89.7 2.1 64.7 34.4 122.2 9.1 186.9-2.7 6.8-5.5 18.8-12.8 22.1-12.1 5.4-19.6-14.1-7-18.2 14.8-4.8 17.2 20.9 1.9 19-18.7-2.3 14.2-58.2 15.1-87.5 2.1-66.6-35.3-127-9.6-193.4 3.4-8.7 9.1-29.5 19.2-32.9 9.2-3.1 15 6.5 11.7 14.3z"  fill="#005bbb" /><path d="M-304.3 18.4c3.2 13.3 27.7 48.9 27.7 55.3-0.1 5.8-9.3 1.9-5.4-2.3 3.4-3.5 7.9 3.3 3.3 5.1-8.8 3.3-34.9-48.1-35.4-56.1-0.5-6.2 7.5-6.9 9.8-2z"  fill="#fff500" /><path d="M-291 17.3c3.6 11.8 30.6 51.5 30.4 56.5-0.2 5.1-8.3 3-6-1.5 2.7-5.3 9.5 2.4 3.9 4.4-8 2.9-36.4-48.9-37.5-57.1-0.7-5.8 6.7-6.9 9.2-2.3z"  fill="#fff500" /><path d="M-282.7-398.7c-2.2 69.9 51.5 117.2 74.7 178.6 18.7 49.3 5.6 96.4 3 146.8-0.4 7 6.1 39-4.4 39.9-8 0.7-8.5-12-0.4-11.8 6.9 0.1 7.8 10.4 1 11.7-17.3 3.5-1.2-143.6-3.3-159.2-8-60.1-54.4-103.1-74.5-158.3-4.9-13.3-12.5-34.5-9.4-48.9 1.7-8 12.2-6 13.3 1.2z"  fill="#c2e1ff" /><path d="M-265.6-398.8c0.9 69.1 52.9 117.1 73.2 179.8 16.8 51.9-1 101.1-2.3 153.5-0.2 7.2 7.6 40.3-2.4 41.6-8.9 1.2-7.7-13.6 0.9-11 8.6 2.6 1.3 15.6-5.4 9.6-18.6-16.6 6.1-141.1 2.6-171.6-6.8-59.8-51.7-104-70.7-159.3-16.7-48.8 0.4-61.5 4.1-42.6z"  fill="#005bbb" /><path d="M-248.4-398.8c1.6 72.2 57.6 123.9 71.1 192.5 11.4 58-16 114.3-7.7 172.3 1.2 8.5 14.3 38.6 10.1 44.8-4.1 6-12.4-2.8-6.2-6.5 6.2-3.7 10.1 7.7 2.8 8.5-8.7 0.9-13-24.8-14.6-30.7-17.8-62.3 10.1-120 4.4-182-5.3-58-46.2-102.5-64-156.3-15.8-47.6 0.3-61.8 4.1-42.6z"  fill="#fff" /><path d="M-236.9-227.7c34.4 69.7-0.7 141 18 212.6 4 15.3 40.3 84.1 39.3 89.5-1.2 6.4-11.1 2.2-7.3-3.1 4.4-6.2 11.6 4.9 4.1 6.4-7.5 1.5-14.6-21.9-17-26.6-49.9-94.9-33.5-110.5-32.5-209.5 0.2-20.7-13.7-57.2-13-67.9 0.4-4.8 6.2-5 8.4-1.4z"  fill="#fff500" /><path d=""  fill="#fff500" /><path d=""  fill="#c2e1ff" /><path d="M-196.4 34.2c2.9 6 25.3 39.3 17.2 42.7-5.1 2.2-8.2-6-2.8-7.6 5.3-1.7 7.5 6.8 2 7.9-6.2 1.2-24.1-35.3-24.1-41.2 0.1-4.5 5.5-5 7.7-1.8z"  fill="#fff" /><path d="M-179.3-166.6c-0.6 57.2-20.7 108.6-1.7 165.5 7 21 17.2 40.6 27.6 60 1.3 2.4 13.1 17.7 3.9 18.7-4.6 0.5-6.1-6.2-1.7-7.6 4.3-1.5 7.2 4.7 3.3 7.1-7.6 4.6-19.9-28.2-22.3-33-22.3-42.1-37.1-85.1-33.4-133.3 1.2-16.3 4-69.4 11.2-81.4 4-6.7 12.7-2.7 13.1 4z"  fill="#fff500" /><path d="M-168-8.6c2.9 10.4 39.5 83.7 36.9 85.1-4.5 2.3-7.7-4.9-3.1-6.7 4-1.6 7 4.1 3.4 6.5-7 4.7-46-71.6-46.9-82.9-0.5-6.1 7.4-6.9 9.7-2z"  fill="#005bbb" /><path d="M-151.8-72.5c-5 41.1 7.6 80.3 29.2 114.9 3.4 5.5 22.6 26.2 20.4 32.1-1.7 4.7-8.7 0.3-5.2-3.3 3.5-3.5 8 3.4 3.4 5.2-5 1.9-9.6-9.3-11.5-11.9-27.7-38.2-51.2-80.2-51-128.8 0-11.3 13.8-24.5 14.7-8.2z"  fill="#fff" /><path d="M-139.7-302c6.6 40.7 15.5 80.2 9.3 121.7-7.7 52.1-32.5 100.7-22.8 154.5 4.2 23.5 14 45.6 26.2 65.9 4.4 7.4 21.9 25.7 21.6 33.7-0.2 6-9.7 1.8-5.4-2.4 4.3-4.2 8.3 5.4 2.3 5.5-7.5 0.1-21.5-28.3-25.3-34.2-69.8-109.2-13.7-149.8-8.1-256.7 1-18.8-12.1-79.5-9.1-88.8 2-6.1 9.7-4.5 11.3 0.8z"  fill="#fff" /><path d="M-125.9-38.9c2.8 35.1 21.2 66 44.1 91.9 3.1 3.6 18.9 16.2 17.9 20.8-0.8 3.7-6.5 1.1-4.3-2 2.3-3 6.4 1.8 3 3.6-4.8 2.5-20.1-18.7-23.1-22-23.4-25.7-43.6-55.5-49.5-90.5-1.3-7.9 9.9-9.1 11.9-1.8z"  fill="#c2e1ff" /><path d="M-111.5-313.2c0.1 43.3 6.7 85.5-2.1 128.5-10.9 53.2-39.1 103.1-28.9 158.9 4.6 25.5 16.1 49 30.7 70.3 4.4 6.5 20.9 21.4 21 29 0.1 5.4-8.6 2.1-5-1.9 3.6-4 7.7 4.4 2.4 4.8-7.4 0.6-24.9-29.9-29.2-36-73.4-106.3-9.6-160.6-0.4-266.7 2.4-27.9-7.7-61.3-1.7-88.1 1.8-8 12.2-5.9 13.2 1.2z"  fill="#fff" /><path d=""  fill="#c2e1ff" /><path d="M-114.2-395.9c-24.3 61.6-0.5 123.6-4.5 186.8-3 48.5-26.1 92.6-30.7 140.7-0.8 8.3 6.7 55.6-3.2 54.2-7.2-1-5-12.2 2-10.5 8.2 2 2 14.7-4.7 9.3-4.5-3.6-4.7-14-5.6-19-9.9-53.2 12.2-100.7 23.4-151.5 13.3-60.2-7.7-118.8-1.1-179 1.2-10.5 1.9-32.4 10-40.2 7-6.7 16.1 0.9 14.4 9.2z"  fill="#fff" /><path d="M-122.2-395.8c-22.3 58.1-0.1 116.3 0.1 175.6 0.1 43-15.4 82-24.8 123.3-1.8 7.9-0.8 45.2-12.5 44.6-10.8-0.6-5.9-17.9 3.6-12.8 9.5 5.1-2.2 18.7-8.7 10.1-12-16 19.1-108.3 23.7-129.9 12.7-60.7-10.1-118.9-5-179.5 4.4-52.1 27.4-51.2 23.6-31.4z"  fill="#fff" /><path d="M-93.6-395.6c-21.8 58.2-8.5 116.2-12.9 176.2-3.1 42.8-20.5 81.3-30.8 122.4-4 15.8-1.4 56.2-7.8 61.6-7.4 6.3-15-7.9-5.7-10.5 9.4-2.6 10.3 13.5 0.7 11.9-12.3-2-12.1-37.4 18.7-140.2 21.5-72-1.7-146.5 18.6-218.2 3.6-12.7 22.8-21.4 19.2-3.2z"  fill="#005bbb" /><path d=""  fill="#fff500" /><path d="M-30.2-398.9c0 60.8 26.5 122.4 15.3 182.9-10.2 55.6-57.2 96.7-64.4 153-2.4 19.2 0.7 38.7 8.9 56.3 0.7 1.5 15.1 21.1 5.8 20.3-3.7-0.3-3.8-5.8-0.1-6.3 3.6-0.5 4.9 4.9 1.4 6.1-6.3 2.3-14.4-16.8-16.4-20.7-13.8-25.6-17.1-54.8-10.4-83 12.1-51 53.2-89.7 62.1-141.7 9.1-53.3-24-127.5-15.4-168.1 1.7-8 12.1-6 13.2 1.2z"  fill="#fff" /><path d="M-17.3-335.2c10 47.9 26.4 95.7 10.5 144.2-17 51.7-65.9 94.5-58.6 152.8 4.9 39.2 33.8 66.5 60.9 92.3 1.4 1.3 25 21.4 16 21.7-12.2 0.4 11.9-5.8 1-0.2-4.5 2.3-28-26.2-32.1-30.1-47.5-45.1-76.1-96.1-47.5-161.3 16.9-38.5 46.9-71.4 52.6-114.3 5.2-39.1-14.7-70.5-13.8-104 0.2-6.8 9-6.7 11-1.1z"  fill="#fff" /><path d=""  fill="#fff" /><path d="M13.1-133.5c-21.9 41.3-42.3 82.2-18.7 127.9 12.1 23.3 30.9 42.2 47.1 62.6 1.7 2.1 17.7 17.8 8.9 19.8-4.5 1-5.6-6.1-1-6.6 4.5-0.5 4.9 6.7 0.3 6.7-6.2 0-17.6-22.4-21.5-27.4-34.6-43.1-71-83.7-53.9-143.1 4.5-15.7 12-38.5 23-50.9 7.9-8.8 19.5 1.2 15.8 11z"  fill="#fff500" /><path d="M26.6-164.4c-17.6 47.1-57.7 89.2-40.1 142.9 6.9 21 66.2 88.4 65.9 95.3-0.3 6.2-10.2 1.7-5.6-2.6 4.5-4.3 8.5 5.8 2.3 5.7-8.1 0-36.5-45-42.9-52.6-24.6-29.9-42.9-63.5-36.3-103.5 3.3-19.8 27.8-83.9 42.5-95.9 7.8-6.4 16.6 2.3 14.2 10.7z"  fill="#c2e1ff" /><path d=""  fill="#fff500" /><path d="M80.3-399.7c42.1 34.7 109.4 55.7 128.4 112.1 22.1 65.8-51.2 129-80.1 181-4.1 7.4-14.6 47.2-28.2 36.2-6.6-5.3-1.8-16.3 6.6-15.1 9.8 1.4 9.4 16.2-0.5 17-19.4 1.5-1.3-33.3 1.5-39.5 22.8-50.4 93.3-114.5 90.9-169.5-2.4-58-72.5-86.4-113-114.6-2.6-1.8-8.2-9.1-5.6-7.6z"  fill="#c2e1ff" /><path d="M60.1-360.3c35.9 31.7 91.2 51.7 104.2 102.7 18.5 72.3-54.1 132.2-66.4 199.5-4.2 22.9 11.3 94.9 11.1 95.7-3 8.7-15.2-1.8-7-6.1 7-3.6 10.4 9 2.5 9.4-8.2 0.4-10.4-20.1-11.9-25.3-41-138.4 61.2-167.2 60.7-263.6-0.3-52.4-51.7-77.1-88.1-104.3-2.5-1.9-7.7-9.7-5.1-8z"  fill="#005bbb" /><path d="M154-399.7c73.4 54.9 174.4 116.8 76.1 209.5-9.4 8.9-47.7 49.5-57.2 51.1-24.1 4.2-8.1-37.2 6.9-17.9 12.8 16.4-22 26.5-20 5.8 2.9-29.7 93.6-67.9 97.5-122 3.8-54.4-60-91.8-97.7-119.1-2.5-1.8-8.4-8.9-5.6-7.4z"  fill="#005bbb" /><path d="M94.8-127.5c-19 44.7-30 85.1-13.9 132.8 2.9 8.5 32.3 73 22.4 73-6.2 0-5.7-9.8 0.5-9.1 7.2 0.8 3.4 12.2-2.9 8.4-15.3-9.2-46.5-119.8-40.7-155.7 2.8-17.6 8-43.7 18.8-58.3 6.7-9 18.5-0.6 15.8 8.9z"  fill="#fff" /><path d=""  fill="#fff500" /><path d="M122.2-136.7c-22.5 44.5-39.5 86.4-27.6 136.8 4.6 19.5 11.6 38.5 18.4 57.4 1.1 3 11 21 0.6 20.8-6.4-0.2-5.6-10.3 0.8-9.4 7.5 1 3.2 12.7-3.2 8.7-5.8-3.7-7.8-18.4-10-24.5-16.3-45-32.2-90.4-20.2-138.6 4.7-18.8 12.5-46.7 25.4-61.7 7.6-8.9 19.3 0.7 15.8 10.5z"  fill="#005bbb" /><path d="M133.8-8.3c0 16.1 16.8 75.8 14.3 83.1-2.6 7.4-13.7 0.6-8.3-5 6.4-6.6 13 8 3.8 8.3-12.8 0.6-24.9-76.5-22.8-87.3 1.5-7.9 11.8-6.1 13 0.9z"  fill="#fff500" /><path d="M149.5-116.3c-27.8 38.8-38.7 81.6-30.3 128.7 1.5 8.5 20.6 66.2 10.7 65.7-6.7-0.4-5.5-10.8 1.1-9.8 7.7 1.3 2.9 13.3-3.6 8.9-6.5-4.4-8.3-21.9-10.4-28.8-14.8-49.7-26.6-137.6 16.9-178 9.2-8.5 20.5 3.2 15.6 13.3z"  fill="#c2e1ff" /><path d=""  fill="#005bbb" /><path d="M175.9-28.7c-5.9 25.7-4.7 53 1.2 78.5 0.9 4.1 12.6 28.5 1.8 28.3-6.3-0.1-5.6-10.1 0.7-9.2 5.4 0.7 5.2 8.8-0.2 9.2-19.6 1.8-24.2-98-18.4-111.2 3.8-8.8 15.4-4.1 14.9 4.4z"  fill="#c2e1ff" /><path d="M190.3-95.6c-28.9 34.6-39.4 77.1-34.2 121.5 1.1 9.3 14.3 44.2 9.4 50.7-4.6 6.2-13-3.6-6.2-7.2 8-4.3 9.7 11.4 1 9-8.1-2.2-10.7-26-12.3-32.6-12.6-52-9.1-110.7 25.3-154.2 8.8-11.1 23.7 1.2 17 12.8z"  fill="#fff" /><path d="M239.9-399.9c50.2 39.5 116.6 68.5 136 134.8 13.7 46.7-6 97.3 12.9 142.6 4.3 10.4 32.8 44.4 33.1 48.9 0.3 4.2-6.6 3.1-5.1-0.7 1.8-4.6 8 1.2 3.6 3.3-5.4 2.6-19.7-19.9-22.8-23.8-51.8-65.4-10-130.2-42.1-197.2-22.3-46.5-70.3-71.2-110.2-100.3-2.5-1.8-8.2-9.2-5.4-7.6z"  fill="#fff" /><path d="M217.3-244.1c-18.1 73.7-99.1 118.7-108.9 200.4-3.1 25.9 21 117.9 20.8 118.5-2.8 8.6-14.9-1.5-6.9-5.8 8-4.3 9.8 11.3 1 9-10.7-2.9-17.9-48-20.6-58.1-10.2-38.9-12.6-77.7 2.1-115.9 5.5-14.3 92.6-152 98.4-157.4 7.1-6.5 15.9 1.2 14.1 9.3z"  fill="#fff500" /><path d="M231.2-104.3c-30.3 35.5-46.9 78-42.9 125 0.9 10.1 16 48.1 11.7 54.8-4.4 6.9-12.7-4.6-4.8-6.6 6.7-1.7 7.1 9.8 0.3 8.6-7.3-1.4-11-21.3-12.8-26.9-18.1-58-6.3-117.4 29.7-165.8 9.2-12.3 27.2-2.9 18.8 10.9z"  fill="#005bbb" /><path d="M243.8-51.2c-5.6 32 1.9 65.1 17.3 93.3 2.3 4.1 24.4 32.3 17.6 34.1-3.9 1.1-5.3-5.2-1.3-5.9 4.7-0.8 4.3 7.1-0.3 5.9-23.7-6.6-56.1-107.5-47.8-130.7 3.1-8.7 14.4-4.9 14.5 3.3z"  fill="#005bbb" /><path d="M254.8-5.6c5.1 20.5 43.4 74.3 43.5 79.2 0 5.5-8.9 2-5.2-2 3.2-3.5 7.7 3 3.3 4.8-12.1 4.9-47.7-68.3-51.2-78.8-2.2-6.4 7-8.9 9.6-3.2z"  fill="#005bbb" /><path d="M271.7-195c-46.9 53.1-118.1 81.1-133.1 157.8-5.3 27.1-2.1 55.1 3.9 81.8 0.7 3 14.3 39 0.8 33.6-6.2-2.5-1.7-12.1 4.2-8.9 5.9 3.2 0.4 12.2-5.1 8.4-6-4.2-7.6-20-9.4-26.5-14.6-53.6-16.1-108.9 14.2-157.5 13.7-22 91.3-100.6 113-107.5 11.9-3.8 18.1 10.2 11.5 18.8z"  fill="#fff500" /><path d=""  fill="#c2e1ff" /><path d="M298.7-107.7c-21.1 84.7 72.4 114 101.7 179.5 3.3 7.5-10.9 8.1-8.2 0.3 2.7-7.7 13.4 1.6 6.2 5.4-5.9 3-28.1-40.7-33.5-46.9-30.2-35-74-59.8-81.7-109.3-6.7-43.2 16.2-48.1 15.5-29z"  fill="#fff" /><path d="M305.3-372.1c45 32.3 82.6 70.6 91.6 127.5 7.2 45.2-1.3 89.4 21.1 131.5 12.2 23.1 84.4 123.3 79.4 142.6-1.8 6.9-12.3 1.6-7.8-3.9 4.5-5.5 11.9 3.8 5.4 6.8-6.7 3.2-36.3-66.9-41.4-75.8-21.1-36.5-51.2-69.6-61.7-111.2-10-39.8-1.3-81.6-13.4-121.1-11.3-37.2-37.3-65.7-67.6-88.9-2.5-1.9-8.3-9-5.6-7.5z"  fill="#005bbb" /><path d="M319.6-330.5c94.3 81.6 6.2 160.4 55.6 235.9 38.1 58.3 76.2 59.9 112 144.4 2.1 4.9 8.8 15 7.2 20.5-2.1 7.1-12.9 1.2-8-4.4 4.9-5.6 12.2 4.3 5.4 7.3-5.9 2.6-36.2-69.1-42.1-78.2-29.2-44.7-87.3-73.1-100.3-127.3-10.5-43.9 11.2-87.7 2.8-131.9-3-15.4-9.3-30-18.2-42.9-0.9-1.4-21.6-28.8-14.4-23.4z"  fill="#c2e1ff" /><path d="M337.5-114.2c5.3 58.6 94.5 96.1 125 157.9 2.7 5.4 17.4 28.7 10.2 33.7-6.3 4.4-11.2-7.3-3.7-8.7 7.5-1.4 7.1 11.3-0.3 9.5-9-2.3-21.3-46.9-27-56.2-25.4-42.1-70.8-61.7-99.4-100-27-36.2-9.6-50-4.8-36.2z"  fill="#c2e1ff" /><path d="M351.3-130c3.7 58.8 92.6 102.1 124.9 171.3 2.7 5.9 18.2 31 11 36.1-7.1 5.2-10.9-9.7-2.1-8.5 7.5 1 3.2 12.7-3.2 8.7-4.9-3.1-20.6-48.3-25.4-57.4-25.5-47.3-73.3-70.6-102.4-113.7-24.8-36.9-7.3-51.7-2.8-36.5z"  fill="#005bbb" /><path d="M367.9-400c16.4 44.7 45.5 83.2 56.3 130.3 10.4 45.6 1 93 13.5 138.2 3 10.8 38.4 87.5 32.5 89.8-6.4 2.5-8.2-8.8-1.3-8.4 5.9 0.4 4.8 9.6-1 8.6-7.9-1.4-15.5-29.3-18.6-36-41.8-90.6-21.8-104.5-36.3-189.9-8.1-47.4-35.4-85.5-53.5-129-2.3-5.6 5.6-8.5 8.4-3.6z"  fill="#005bbb" /><path d=""  fill="#fff" /><path d=""  fill="#fff500" /><path d="M383.4-399.6c8.5 44.7 35.7 83.6 45.3 128.2 9.8 45.7 0.1 93 11.5 138.4 6.1 24.5 29.3 58.8 31.3 81 0.7 8.1-12.8 4.1-7.8-2.3 5-6.4 12.1 5.9 4.1 7-15.7 2.3-42.6-99.3-44.7-114-4.9-32.8-0.5-66-4.4-98.9-5-42.9-45.7-111.2-46-138-0.1-6.6 8.5-6.9 10.7-1.4z"  fill="#c2e1ff" /><path d=""  fill="#c2e1ff" /><path d="M433.7-241.3c2 24.7-0.2 49.4 1.6 74.1 3.9 56.2 33.9 107.2 55.2 158.2 4 9.7 37.9 83.5 30.2 86.4-5.6 2.1-8.4-7-2.6-8.5 5-1.2 7.6 5.9 3.1 8.3-9.1 4.5-22.3-41.2-24.9-47.7-23.6-58.9-58.9-118.6-71.1-181.1-3.4-17.3-10.4-77.7-3.8-92.1 3-6.5 11.3-3.7 12.3 2.4z"  fill="#fff500" /><path d="M448-220.6c-5 107.7 19.8 148.1 58 245 3.3 8.4 23.4 44.1 18.9 51.3-3.7 5.9-12-2.3-6.1-6 5.9-3.8 9.9 7.1 3 8-10.2 1.4-27.7-58.5-31.3-67.5-23.7-60.1-57.1-122-58.4-187.9-1.3-71.5 15.5-48.6 15.9-42.9z"  fill="#c2e1ff" /><path d="M462.5-379.3c-11.7 37.9 0.2 78.9 0.1 117.6-0.2 86.4-19.6 112.9 12.9 202.5 6.1 16.9 48.7 113 46.4 122-1.8 6.9-12.3 1.6-7.8-3.9 5.3-6.4 12.3 6.2 4 7.3-9.5 1.2-22.1-45.6-25.1-53.4-20.1-51.7-46.1-105.4-51.6-161.2-3.9-38.9 6-76.8 7.4-115.5 1.2-33.1-6.1-65.9-4.5-98.9 1.8-36 19-24 18.2-16.5z"  fill="#c2e1ff" /><path d="M475.8-152c-16.9 88.7 51.3 186.5 54.9 224.9 0.8 8.1-12.8 4.1-7.7-2.3 5-6.4 12.1 5.8 4 7-14.6 2.2-74.9-169-66.4-231.6 1.4-10 15.2-7.6 15.2 2z"  fill="#c2e1ff" /><path d="M485.7 6.2c3.9 8.2 34.2 68.2 25.1 71.4-5.8 2-8.5-7.2-2.5-8.7 6-1.4 7.7 8.1 1.6 8.9-8.1 1-12.3-21.2-14.4-26.4-4.5-11.1-18.6-31.9-18-43.6 0.3-4.7 6-5 8.2-1.6z"  fill="#fff" /><path d="M504-139.6c-27.2 54.7-2.7 122 17.3 175 2.7 7.2 18.8 33.8 14.7 40.4-3.6 5.8-11.8-2-6.1-5.8 5.7-3.8 9.8 6.8 3.1 7.8-9.6 1.5-23.3-46.5-26.2-54.3-17.9-48.4-36.9-104.2-24.1-156.1 5.3-21.3 26.3-26.2 21.3-7z"  fill="#fff500" /><path d="M517.7-211.6c-41.7 64-42.6 120.8-19.6 192.4 8 24.9 17 49.6 26.9 73.9 1.3 3.2 13.8 22.8 3.6 23.2-5.9 0.3-5.8-9 0.1-8.7 6.9 0.5 3.7 11.4-2.4 8.2-10.5-5.7-18-39.8-22.2-50.7-21.2-55.4-46.3-118.9-34.1-179.2 4.5-22.2 15.2-55.6 32.1-71.8 8.9-8.6 20.3 2.8 15.6 12.7z"  fill="#fff" /><path d="M520.7-395.8c-14.4 44-15.7 89.8-25.5 134.7-11.7 54.5-35.1 103.1-25.1 160.2 5.5 31.6 16.6 62.2 27.6 92.2 1.2 3.3 14.1 26.6 2.9 26.4-5.5-0.1-6.2-8.2-0.9-9.3 5.4-1.1 7.8 6.7 2.9 8.9-9.1 4-13.7-22.4-15.5-27.2-18.3-49.7-38.2-102.2-32.6-156.1 4.2-40.7 21.7-78.7 29.2-118.7 6.6-35 2.8-86.6 21.4-118 5.4-9 17.2-2.3 15.6 6.9z"  fill="#fff" /><path d="M543.7-381.3c-4.1 40.7-7.9 80.8-22 119.5-20.5 56-53.7 102.9-45.5 165.3 5.4 41.6 21 82 35.6 121.1 1.6 4.3 18.2 34.1 6.8 34.3-5.2 0.1-6.2-7.7-1.1-8.9 5.1-1.2 7.7 6.2 3 8.4-9.3 4.5-19.6-35.9-21.8-41.8-21.7-57.7-47.3-121.8-34-184.5 14.9-70.6 53.2-109.7 62.2-193.9 0.7-6.6-1-20.6 4.4-25.6 5.3-4.9 12.2-0.1 12.4 6.1z"  fill="#fff" /><path d="M554.3-398.3c-1.3 45.1-1.1 88.8-18.2 131.3-19.3 48.3-55.5 89.7-58.4 143.6-1.7 31.8 6.4 63.3 15.9 93.4 1.2 3.9 12.8 26 1.4 25.4-5.6-0.3-6.2-8.7-0.6-9.6 6.5-1.1 7.7 9.2 1.1 9.6-8.9 0.5-12.9-26.7-14.7-32.7-46.6-147.9 11.9-144.7 48.8-264.1 6.5-21 7.9-93.7 11.7-100.5 3.7-6.7 12.4-3.1 13 3.6z"  fill="#fff" /><path d="M570.5-342.9c3.3 95.8-94.1 151.9-88.5 246.5 2.5 41.7 17.5 82.7 31.9 121.6 3.9 10.6 21.4 38.8 19 49.3-1.8 7.9-13.3-0.1-6.6-4.6 6.7-4.4 9.6 9.3 1.7 7.8-11.9-2.1-26.2-58-30.2-68.9-21-58.1-42.6-122.8-19.2-183.5 17.5-45.3 55.3-79.4 70.7-125.8 4.4-13.3 2-34.2 8.3-45.8 3.6-6.6 12.2-3.1 12.9 3.4z"  fill="#fff" /><path d="M585.9-79.2c-23 29.4-28 64.7-19.7 100.6 1.7 7.3 22.6 56 13.5 56.2-7 0.2-4.8-11.2 1.6-8.4 6.4 2.8-0.3 12.2-5 7-5.9-6.6-8.8-19.8-12-28.1-17.3-44.9-25-97 4.4-138.9 7.9-11.3 23.2 0.1 17.2 11.6z"  fill="#fff" /><path d="M597.7-324.9c6.5 96.3-108.4 136-109.3 229.8-0.4 39.7 13 79.2 26.2 116.2 4.1 11.5 22.9 41.7 20.3 53-1.8 7.8-13.3-0.1-6.6-4.5 6.7-4.5 9.6 9.2 1.6 7.8-11.9-2.1-26-57.4-29.8-68.4-21.3-60.4-40.3-128.3-5.6-187.5 22.4-38.3 60.9-64.8 79.5-105.5 6.2-13.5 4.4-32.2 10.9-44.3 3.6-6.6 12.1-3.1 12.8 3.4z"  fill="#fff" /><path d="M606.9-273.5c-24 74.6-114.8 102.2-114.5 188.4 0.2 37.7 12.5 75.2 25.2 110.3 3.9 10.7 21.3 38.8 18.9 49.3-1.8 7.8-13.3-0.1-6.6-4.6 6.7-4.5 9.6 9.2 1.7 7.8-12.8-2.2-28.1-63.1-32.1-74.8-16-47.3-30.5-100.7-12.1-149.4 16.2-43.1 54.6-68.1 82.7-102.4 8-9.8 13.4-27.3 22.7-35 7.7-6.4 16.4 2.1 14.1 10.4z"  fill="#c2e1ff" /><path d=""  fill="#fff500" /><path d=""  fill="#005bbb" /><path d=""  fill="#c2e1ff" /><path d=""  fill="#fff" /><path d=""  fill="#fff500" /><path d=""  fill="#005bbb" /></svg>