<svg width="1200" height="675" viewBox="-500 -500 1200 675" xmlns="http://www.w3.org/2000/svg"><path d="M-500-500h1200v675h-1200z" fill="#000"/><path d=""  fill="#c2e1ff" /><path d="M-397.9-86.1c31.1 25.3 66.5 45.4 95.5 73.3 13.4 12.9 58.4 79.4 50.8 87.9-3.6 4-7.8-4.4-2.4-4.9 5.4-0.4 2.6 8.6-1.6 5.2-5.3-4.3-7.7-24.8-10.8-31.7-7.1-16.4-16.9-31.4-28.6-45-28.1-32.5-66.1-53.9-99.6-80.1-1.5-1.2-4.9-5.7-3.3-4.7z"  fill="#fff" /><path d="M-398.4-65.8c49.7 34.3 106.2 63.9 128.8 123.8 1.4 3.6 7.1 14.2 4.1 17.5-3.6 4-7.8-4.4-2.4-4.8 5.4-0.4 2.6 8.5-1.6 5.1-4.4-3.5-6.2-19.8-8.4-25.4-6.7-16.5-16.5-31.7-28.4-45-24-26.9-55.7-45.4-85.4-65.2-0.4-0.3-9.3-7.3-6.7-6z"  fill="#005bbb" /><path d="M-396.7 53.2c1.8 3.1 13.5 20.6 7.6 22.4-3.3 1-4.6-4.2-1.3-4.9 3.4-0.7 4.2 4.7 0.8 5-7.7 0.7-11.5-28.8-7.1-22.5z"  fill="#005bbb" /><path d=""  fill="#c2e1ff" /><path d="M-397.7-103.1c32.7 32.2 73 55.3 105 88.3 7.8 8 51 55.2 43 66.8-1.9 2.8-6.1-0.5-3.9-3 2.2-2.6 6 1.1 3.6 3.5-4.6 4.3-9.4-14-10.5-16.1-9.2-19.1-21.8-36.5-36.3-51.9-28.7-30.3-64.9-52-95.8-79.9-0.5-0.5-8.9-10.6-5.1-7.7z"  fill="#fff" /><path d="M-397.9-44.1c32.4 20.9 116.1 72.8 113.7 117.9-0.2 4.5-7.4 2.5-5.2-1.5 2.1-3.9 7.7 0.8 4.1 3.6-5.5 4.2-8-13.4-8.8-15.9-6.6-17.8-17-33.8-30-47.6-20.1-21.3-45.4-37-69.8-52.7-1.6-1-5.7-4.7-4-3.8z"  fill="#005bbb" /><path d="M-396.5 63.8c1.2 2.5 6.2 9.4 2.9 11.8-3.3 2.4-6-3.8-2-4.6 3.4-0.7 4.2 4.8 0.7 5-8.8 0.7-5.6-19.2-1.6-12.2z"  fill="#005bbb" /><path d=""  fill="#c2e1ff" /><path d=""  fill="#c2e1ff" /><path d="M-397.7-116.9c35.8 41.8 85.2 69 120.4 111.4 6.4 7.7 53 74.2 40 81.4-3.4 1.9-6.2-3.7-2.6-5.2 3.1-1.3 5.6 3.1 2.9 5-5.8 4.1-9.1-18.4-10.1-21.3-8.1-23.2-21-44.5-36.8-63.2-32-38.2-75.5-63.8-109.7-99.7-0.6-0.6-8.4-12.2-4.1-8.4z"  fill="#005bbb" /><path d="M-397.9-58.6c46.4 30.9 98.4 58.9 121.1 112.9 1.7 4.1 9 17.6 5.7 21.3-3.5 4-7.7-4.3-2.4-4.7 5.3-0.5 2.7 8.4-1.5 5.1-4.9-3.9-7.4-22.7-10.2-29-6.4-14.2-15.2-27.3-25.6-38.9-22.6-25.1-52.2-42.6-80.3-60.9-0.4-0.2-9.3-7-6.8-5.8z"  fill="#fff500" /><path d="M-396.4-175.3c33.1 78.9 109.8 121.8 153.6 193.1 4.8 7.8 31 49.7 24 57.7-2.5 2.9-6.9-1.3-4.1-3.9 2.8-2.6 6.7 2.1 3.7 4.3-5.8 4.3-8.9-16.9-10-19.8-7.9-22.1-19.7-42.6-33.6-61.5-36.8-50-90.3-85.5-122.7-138.9-5.1-8.3-13.6-19.9-15.4-29.7-0.5-2.8 3.2-3.6 4.5-1.3z"  fill="#fff" /><path d="M-396.5 61.2c1.2 2.4 8.4 13 3.4 14.6-3.3 1-4.6-4.3-1.3-4.9 3.4-0.7 4.2 4.7 0.7 5-8.6 0.7-7-21.6-2.8-14.7z"  fill="#c2e1ff" /><path d="M-395.8-199.9c33.1 94.6 111.3 138.9 160.1 221 3.7 6.2 29.1 50.1 21.6 54.6-4.5 2.7-5.9-6.2-0.8-5.1 4.3 0.9 1.3 7.7-2.3 4.9-6.3-4.8-18.2-49.1-36.3-75.1-36-52-89.1-89.9-121.8-144.3-10.3-17-18.8-35.5-25.3-54.2-1.1-3.2 3.4-4.6 4.8-1.8z"  fill="#fff500" /><path d="M-389.8-116.9c34.6 41.3 82.1 69.1 116.2 110.8 8.1 10 52.2 68.9 40.8 81.7-2.6 2.9-7-1.5-4.1-4.2 2.9-2.6 6.8 2.2 3.6 4.6-5.8 4.2-9.2-18.9-10.3-22-8.2-23.2-21.1-44.4-36.6-63.4-30.8-37.7-72.6-63.7-105.7-99-0.6-0.7-8.3-12.4-3.9-8.5z"  fill="#c2e1ff" /><path d="M-383.4-37.4c19.5 12.6 39.3 25.2 56.7 40.7 10.6 9.5 51.4 64 44.6 72-2.5 2.9-6.9-1.2-4.1-3.9 2.8-2.6 6.7 2 3.6 4.3-5.5 4.2-7.9-13.5-8.8-15.9-6.1-16.7-15.6-32.1-27.4-45.3-17.3-19.3-38.9-34-60.5-48.1-1.6-1-5.7-4.7-4.1-3.8z"  fill="#005bbb" /><path d="M-373.2-318.5c11.1 91.5 100.2 231.7 156.3 304.8 14.1 18.3 54.9 65.2 57.1 87 0.4 4.3-6.8 2.2-4.2-1.2 2.3-2.9 6.2 1.8 2.9 3.4 0 0-41-64.3-46.1-71.2-68.5-91.8-134.9-187.9-167.2-299.6-7-24.3-0.6-29.6 1.2-23.2z"  fill="#fff" /><path d="M-367.8-126c39.1 55.1 97.2 92.7 130.9 152.6 3.9 6.9 24.7 42.1 18.8 48.9-2.5 2.9-6.9-1.3-4-3.9 2.8-2.6 6.7 2 3.6 4.3-5.8 4.3-8.9-16.8-10-19.9-7.9-22.1-19.8-42.6-33.6-61.4-30.1-41.1-71.2-71.9-102.8-111.5-0.7-0.9-7.4-13.9-2.9-9.1z"  fill="#005bbb" /><path d="M-360.5-121c38.9 52.5 93.4 90.2 125.7 148.1 3.8 6.8 24.4 41.5 18.7 48.3-2.5 2.9-6.9-1.3-4.1-3.9 2.8-2.6 6.7 2 3.7 4.3-5.7 4.3-8.8-16.4-9.8-19.2-7.9-22.1-19.7-42.6-33.5-61.5-28.6-39.4-66.8-69.7-97.7-107.1-0.7-0.8-7.6-13.6-3-9z"  fill="#fff500" /><path d="M-352-301.8c24.1 82.4 98 219.5 153.2 285.3 9.9 11.9 69.2 79.9 67.6 90.1-0.5 3.3-5.7 1.3-3.9-1.6 1.9-2.8 5.7 1.3 2.9 3-3.9 2.4-11.2-15.5-12.8-18.1-10.6-17.2-23.3-32.9-36.4-48.3-74.2-88-131.1-188.9-171.6-297.1-1-2.6-3.1-22.5 1-13.3z"  fill="#fff500" /><path d="M-345.7 46c2.6 3.8 18.3 25.9 13.2 29.5-2.8 2-5.8-2.6-2.7-4.3 3-1.7 5.5 3.2 2.3 4.6-4.5 1.9-6.2-9-7.2-11.2-0.5-1.2-10.7-24.7-5.6-18.6z"  fill="#005bbb" /><path d="M-338.1-152c33.8 64.8 88.7 115.1 126.5 177.3 3.5 5.7 28.6 46.1 22.4 50.4-3.4 2.4-6-4-1.9-4.7 4.8-0.8 3.1 7.4-1 4.7-2.8-1.9-30.6-61.4-37.2-71.1-34.2-50.3-77.7-93.9-108.2-146.8-0.8-1.4-5.3-16.3-0.6-9.8z"  fill="#fff500" /><path d="M-330.6-195c35.1 78.5 84.8 142.3 134.4 211.7 7.4 10.3 36.6 44.2 33.5 57.2-0.9 3.6-6.4 0.9-4.1-2 2.3-2.9 6.2 1.8 2.9 3.6-0.2 0.1-39.8-63.5-44.9-70.5-44.6-60.6-89-118.2-120.9-186.8-0.7-1.5-5.7-20.9-0.9-13.2z"  fill="#c2e1ff" /><path d=""  fill="#fff500" /><path d="M-317.6-37.7c17.4 14.3 85.7 89.2 75.7 112.2-1.9 4.2-8.1-0.3-4.6-3.4 3-2.6 6.9 2.3 3.6 4.6-5.5 3.9-6.7-10.5-7.3-12.5-4.6-16-11.6-31.3-20.5-45.4-11.9-19-27.1-35.7-43.9-50.5-1.5-1.3-4.6-6-3-5z"  fill="#fff500" /><path d=""  fill="#fff500" /><path d=""  fill="#c2e1ff" /><path d="M-295.5-398.5c-1.5 74.6 33.4 135.6 64.1 201 13.8 29.4 25.8 59.9 43.6 87.2 13.4 20.8 30.2 38.8 48.5 55.5 1.7 1.5 16.8 13.9 14.8 14.9-0.1 0-0.5 0.1-0.6 0.1-4.7-0.3-14.6-12.6-18.1-15.8-64.4-58.1-155.6-243.7-159.4-330.5-0.5-11 5.4-26.1 7.1-12.4z"  fill="#fff" /><path d=""  fill="#005bbb" /><path d="M-280.8-22.9c8 8.8 69.8 90 53.9 99.1-4 2.3-6.2-5-1.7-5.4 4.6-0.4 3.6 7.1-0.7 5.6-5.4-1.9-13.4-36.5-16.6-43.1-9.8-19.9-22.9-37.3-36.9-54.4-1.2-1.4 0.8-3 2-1.8z"  fill="#fff" /><path d="M-272.5-149c31.5 67.7 74.5 118.1 122.8 174.1 7.4 8.6 35.9 36.6 34.1 48.6-0.5 3.3-5.6 1.3-3.8-1.5 1.8-2.8 5.7 1.2 2.8 2.9-0.6 0.4-35.1-48-39.7-53.2-45.5-52.6-88-100.3-118-164-1-2.1-2-13 1.8-6.9z"  fill="#fff" /><path d=""  fill="#005bbb" /><path d=""  fill="#fff500" /><path d="M-249.8-398.3c-0.1 88 50.2 219.4 105.7 287.7 16.2 19.9 65.6 58.2 72.3 79.9 0.9 3-4.5 2.6-3.1-0.3 1.4-2.8 5.1 1.2 2.1 2.3-2.6 1-25.8-29.7-29.4-33.4-20.2-21.3-41.7-41.3-58.8-65.3-47.5-66.8-92.2-176.3-95.7-258.4-0.2-4-1.2-9.3-0.3-13.3 1-4.3 6.6-3.1 7.2 0.8z"  fill="#005bbb" /><path d="M-243.5-220c18.7 37.7 33.2 78.2 56.6 113.4 36.5 54.9 100.2 85.5 128.2 146.7 2.1 4.7 15.9 32.4 10.6 35.6-3.7 2.3-6.1-4.6-1.8-5.1 5.1-0.6 2.8 8.1-1.3 4.9-4.9-3.7-7.1-21.4-9.4-27.3-6.8-17.7-16-34.3-27.9-49.2-26.8-33.5-63.9-56.8-91-90.1-28.7-35.3-44.5-78.3-64-118.9-0.5-1.1-4.6-17 0-10z"  fill="#c2e1ff" /><path d="M-234.6-398.6c-1.3 92.2 43 213.7 101.1 285.4 13.6 16.7 89.8 96.6 85.6 113.4-0.9 3.7-6.6 0.9-4.2-2.1 2.4-3 6.3 2 2.9 3.6-0.6 0.3-30.6-49.3-35.1-55-18.2-22.9-39.7-43-57.9-65.9-41.3-52.1-69.3-122.7-87.3-186.4-8.5-30-13.3-61.8-12.4-93 0.1-4.8 6.8-4.5 7.3 0z"  fill="#c2e1ff" /><path d="M-228.6-278.9c20.2 54.7 43.7 114.9 79.3 161.6 34.6 45.4 81.8 78 103.2 132.8 2.8 7.2 21.4 57.2 13.7 60.9-3.2 1.6-6.1-3-3.2-5.2 3.3-2.6 7.1 2.8 3.5 5.1-6.7 4.2-8.1-20.3-8.8-23.7-5.7-26.2-14.5-51.6-28.8-74.3-23.6-37.3-59.7-64.1-86.3-99-31.2-41.1-50.5-91.4-70.1-138.6-2.9-6.9-7.6-29.4-2.5-19.6z"  fill="#005bbb" /><path d="M-220.3-356.3c8.2 93.1 53.9 193 114.6 263.1 31.1 35.9 58 71.8 70.5 118.4 1.2 4.4 9 25.2 3.8 27.7-5.1 2.5-5.9-7.4-0.4-5.6 4.7 1.5 0.6 8.5-3 5.2-6.3-5.8-15.3-60.8-28.8-84.8-14.9-26.5-35.7-48.8-55.3-71.9-40.3-47.3-64.4-102.5-85.4-160.4-10.6-29.3-20-59.9-22.6-91.1-0.4-4.4 5.7-4.8 6.6-0.6z"  fill="#c2e1ff" /><path d="M-214.7-104c32.6 56.9 90.9 88.5 127.3 141.5 3.1 4.5 23.3 34.1 18.3 38-3 2.4-5.8-3.4-2.1-4.3 4.4-1 3.2 6.7-0.7 4.5-2.6-1.5-25.8-47.1-32.4-55.1-34-41.1-79.6-69.6-109-115-0.8-1.3-6-15.6-1.4-9.6z"  fill="#005bbb" /><path d="M-205.7-398.1c-1.2 95 35.3 202.1 92.1 278.2 12.9 17.3 80.4 101.9 74.3 119.7-1.4 4-7.3 0.4-4.4-2.7 2.9-3 6.8 2.8 2.9 4.3-1 0.4-28.5-56.2-32.8-62.8-68.2-103.5-94.4-113.6-128.5-246.9-7.4-29.1-11.8-59.7-10.9-89.8 0.1-4.8 6.8-4.5 7.3 0z"  fill="#c2e1ff" /><path d="M-200.7-12.9c15.1 18.4 59.6 64.1 63 86.3 0.5 3.4-5.2 3-4.2-0.3 1.1-3.9 6.6 0.4 3.1 2.4-2.8 1.6-20.3-30.5-23.2-34.6-11.9-17.1-32.3-33.8-41.2-52.3-0.8-1.6 1.3-2.7 2.5-1.5z"  fill="#005bbb" /><path d="M-193.1-102c34.1 52 93.4 81.3 124.1 135.6 3.4 6 21.1 35.8 16.4 41.7-2.2 2.9-6.6-0.9-4-3.5 2.5-2.6 6.4 1.6 3.6 4-5.3 4.3-8.2-13.3-9-15.7-6.9-18.9-16.3-36.7-28.8-52.5-29.4-37.2-71.2-62.2-99.9-100.3-0.8-1.1-6.9-14.5-2.4-9.3z"  fill="#fff" /><path d="M-186.2-0.9c15.7 18.5 50.4 49.4 54.5 74.1 0.5 3.3-5.1 3-4.2-0.2 1.1-3.8 6.5 0.4 3.1 2.4-3.1 1.9-18.2-26.8-20.8-30.5-8.1-11.8-32.1-31.2-35.1-44.6-0.3-1.5 1.5-2.2 2.5-1.2z"  fill="#c2e1ff" /><path d="M-178-176c37 76.8 115.6 124.1 139.7 207.5 1.7 6 13.6 42.1 7.5 44.9-3.3 1.5-6.1-3.1-3.3-5.3 3.4-2.6 7.1 2.9 3.6 5.2-6.8 4.1-7.9-20.4-8.7-23.8-5.3-26.2-13.5-51.8-27.2-75-28.3-47.7-75.1-80.6-103.3-128.7-4-6.8-10.8-15.6-12.5-23.3-0.6-2.6 2.8-3.5 4.2-1.5z"  fill="#c2e1ff" /><path d="M-170.9 52c1.8 3 14.5 21.7 9.4 23.6-2.9 1.1-4.5-3.6-1.5-4.4 3.1-0.8 4.1 4.1 1 4.6-7.5 1.2-13.4-30-8.9-23.8z"  fill="#c2e1ff" /><path d=""  fill="#005bbb" /><path d="M-157.4-19.8c8.9 8.4 90.4 83.6 76.8 95.2-2.8 2.4-5.6-3-2.1-4 4.1-1.2 3.3 6.2-0.5 4.3-8.3-4.4-18.5-33.1-25-41.7-14.3-18.7-31.8-34.6-49-50.6-0.8-0.7-2.9-5.1-0.2-3.2z"  fill="#fff" /><path d="M-148.7-196.9c33.7 79.6 101.5 137.1 119.5 224 1.4 6.6 11.6 46.8 5.2 49.5-4.8 2-6.3-6.5-1.1-6.3 6.1 0.2 1.8 9.9-2.5 5.5-1.1-1.1-17.3-88.6-25.8-108.2-24.6-55.9-70.2-99-96-154.5-0.8-1.7-3.7-17.5 0.7-10z"  fill="#fff" /><path d="M-130.1-399.2c20.9 60.5 76.2 94.4 106.5 148.7 32.9 59 22.7 128.8 20.3 193.4-0.2 5.5 2.3 36.4-5.1 35.8-4.3-0.3-4.5-6.8-0.2-7.4 4.3-0.6 5.8 5.7 1.8 7.2-8.7 3.2-4.1-34.2-3.9-39.3 1.8-50.5 9.4-104.1-3.7-153.6-16.9-64.3-73.7-98.8-106.2-153.4-8.8-14.8-15.7-43.2-9.5-31.4z"  fill="#fff" /><path d="M-135.3 25.1c7.6 8.4 36.3 36.6 34.3 48.6-0.5 3.3-5.7 1.3-3.8-1.5 1.9-2.8 5.7 1.3 2.8 3-3.9 2.3-12-16.9-13.9-19.8-0.7-1.1-26.9-37-19.4-30.3z"  fill="#fff" /><path d="M-127.3 66c1.2 2 5.8 6.6 3.3 9-2.4 2.3-5.3-2.4-2.2-3.5 3.7-1.3 3.4 5.5-0.1 3.9-7-3.2-4-13.5-1-9.4z"  fill="#c2e1ff" /><path d="M-80.1-399.3c27.3 31.4 67.3 47.8 95.3 78.5 52.7 57.8 51.3 143.3 29.1 213.7-1.4 4.6-3.9 23.2-11.8 20-19.7-7.9 23.2-7.8 3.5 0-11.6 4.6 6.5-45.7 8-51.7 10.4-41.8 11.3-86.8-2.2-127.9-20-60.9-71-82-114.9-122.1-1.3-1.2-11.2-14.1-7-10.5z"  fill="#c2e1ff" /><path d=""  fill="#fff" /><path d="M-105-209.9c20.3 52 47.7 101.4 65.9 154.2 4.8 14 36 126.9 20.8 132.5-5.9 2.2-5.6-8.7 0.2-6.3 4.9 2.1-0.3 9.3-3.8 5.4-3.3-3.7-13.6-100.8-18.3-117.1-15.7-55.1-44.9-105.5-66.1-158.6-0.7-1.7-3-18.1 1.3-10.1z"  fill="#fff" /><path d=""  fill="#005bbb" /><path d="M-36-399.1c21.8 17.3 45.5 32.2 63.9 53.5 49.7 57.5 56.7 150.3 37.6 221.2-2.4 9.1-11.4 50.8-21.3 52.8-7.6 1.6-7.4-11.2 0.2-9.5 8.8 2.1-0.2 15-5.2 7.4-4.5-6.8 12-35.8 14.6-43.6 15.4-46.4 17.1-96.9 7.6-144.8-11-55.6-41.1-93.3-85.8-126.3-1.5-1.1-14.3-12.3-11.6-10.7z"  fill="#fff500" /><path d="M-83.3-237.9c42.9 95.2 64.5 200.3 70.3 303.9 0.1 2.6 2.1 12.8-4.1 10.7-3.8-1.3-2.5-7.1 1.4-6.7 4 0.4 4 6.4 0.1 6.9-7.2 0.8-5.3-29.1-5.6-34-2.1-35.8-5.9-71.5-13.3-106.6-11.8-55.4-27.8-111.8-49.6-164.2-0.5-1.2-3.7-17.7 0.8-10z"  fill="#005bbb" /><path d="M-76.1-237.9c43.6 94.2 58.7 202.8 64 305.4 0.1 1.6 0.9 13.5-5.3 8.8-12.3-9.3 17.8-1 2.5 0.7-7.3 0.8-5.3-30.8-5.5-36.1-2-37-5.5-73.8-12.5-110.2-10.2-53.4-22.9-108.4-43.9-158.6-0.5-1.1-3.8-17.6 0.7-10z"  fill="#c2e1ff" /><path d="M-70.3-369.7c32.9 29.3 72.7 48.7 95.6 88.1 45.7 78.4 10 161-8.7 240.9-2.3 9.8-9.2 79.5-15.6 80.7-7.2 1.3-4.7-11.1 1.5-7.1 6.1 4-4.3 11.3-6 4.2-10.7-45.1 50.5-180.5 43.5-253.3-6.8-71.5-52.3-105.4-104.5-146.4-0.5-0.4-9.3-9.4-5.8-7.1z"  fill="#fff" /><path d="M-63.1-369.7c33.3 27.4 71 47 92.9 86 45.2 80.4 8.8 163-11.5 244.1-2.4 9.8-10.1 79.4-16.4 80.5-7.2 1.3-4.6-11.2 1.5-7.1 6.1 4-4.4 11.3-6 4.1-10.3-44.5 52.4-180 46.7-252.7-3.1-40.3-18.6-78.6-47.8-107-17-16.6-37.3-28.9-56.1-43.2-1.5-1.2-4.9-5.6-3.3-4.7z"  fill="#fff500" /><path d="M-54.8-265c57.8 87.3 44.5 228.6 46.6 330.1 0.1 2.6 1.9 13.7-4.6 11.3-3.9-1.4-2.4-7.4 1.7-6.8 4.1 0.5 3.9 6.7-0.1 7-7.4 0.6-4.6-42.3-4.7-48.5-0.8-52.8-2.5-105.6-6-158.3-2.6-39-7.4-78-25.1-113.4-1-2.1-12.7-27.4-7.8-21.4z"  fill="#005bbb" /><path d="M-46.6 45.2c1.5 4.3 11.9 29.9 5.5 31-3.9 0.7-4.7-5.5-0.7-5.8 4-0.3 4 6 0.1 5.9-9.2-0.4-13.3-49.5-4.9-31.1z"  fill="#005bbb" /><path d=""  fill="#005bbb" /><path d="M-33.6-295.9c65.4 67.2 49.3 148.8 39.1 233.2-5 41.2-7.7 82.7-8.6 124.1-0.1 3.6 2.5 15.9-4 15.6-4.2-0.2-4.5-6.5-0.3-7.3 4.9-0.8 5.7 7 0.7 7.3-12.6 0.7 15.4-222 16.3-244.2 1.2-33.4-4.6-66.7-21.7-95.8-1.8-3-26.1-36.7-21.5-32.9z"  fill="#fff500" /><path d=""  fill="#005bbb" /><path d="M-16.7-82.3c1.4 15.5 12.1 159.7 4.2 159.5-5.6-0.1-3.4-9.1 1.6-6.7 5 2.4-0.7 9.7-4.3 5.4-6.6-8-1.9-40.6-2.2-51.2-0.8-29.4-10-80.9-5.9-107.2 0.6-4.1 5.9-3.3 6.6 0.2z"  fill="#fff" /><path d="M-10.9-258c43.4 73.1 7.6 235.7 7 326.3 0 1.8-2.1 14.8-6.7 7.1-7.1-11.7 16.9 1 3.3 1.7-11.2 0.6 9-197.7 10.8-217.7 2.6-29.8 2.4-60.1-6.8-88.9-2.9-9.1-9-17.9-11.4-27-0.6-2.4 2.5-3.3 3.8-1.5z"  fill="#c2e1ff" /><path d="M-4.7-317.8c100.9 93.2 24.1 225.3 10.8 336.3-1.1 9.1 0.6 54.1-6.2 58.4-4.3 2.7-8.2-4.3-3.6-6.5 5.3-2.6 7.6 7 1.7 7-8.1 0.2-2-37.1-1.5-42.9 6.3-72.4 36.8-139.5 43.2-211.2 3.2-36.3-2.2-74-20.3-106-7-12.4-35.3-43.7-24.1-35.1z"  fill="#005bbb" /><path d="M43.2-399.5c59.5 88.6 70.3 251.2 22.8 346.3-2.9 5.9-12 32.3-19.7 30.8-6.8-1.3-4.2-11.8 2.4-9.8 5.6 1.7 4 10.3-1.9 9.9-11.8-0.9 15.8-46.8 18.9-53.5 18.1-39.4 22.6-80.2 21.1-123.1-2-57.2-6.3-117.9-31-170.4-4.5-9.5-12.5-18.9-15.9-28.6-0.7-2.1 2-3.1 3.3-1.6z"  fill="#fff" /><path d="M9.8-362.8c66.1 57.8 77.3 162.4 54 243.1-12.2 42.2-33.5 80.9-44.2 123.6-2.4 9.7-8.6 62.5-11.7 66-4.2 4.6-10.1-3.8-4.4-6.2 5.7-2.4 7.6 7.7 1.4 7.5-8.6-0.3 0-36.8 0.9-42.6 12.2-73.5 56.2-138 60.6-212.8 2.7-45.7-3.4-95.4-25.8-136-8.1-14.7-18.5-27.8-30.5-39.4-0.6-0.5-3-5.1-0.3-3.2z"  fill="#fff" /><path d="M46.7-399.3c59.6 94.4 66.9 257.8 16.1 356.3-3.3 6.3-14.6 38.1-22.3 36.8-6.7-1-4.5-11.4 2.1-9.6 5.6 1.5 4.2 10-1.5 9.7-12.5-0.6 11.4-39.3 14.2-44.6 22.3-43.3 33.7-84.8 32.9-133.7-0.9-60.1-4.6-125.3-28.5-181.2-4.2-9.9-18.8-41.1-13-33.7z"  fill="#fff500" /><path d="M24.7-388.9c62.3 67.7 76.6 186.5 53.3 273.4-9.1 34.1-27.1 64.5-40.4 96.9-3.5 8.4-16.5 64.5-22.5 65-7.8 0.6-3.8-12.5 2.4-7.5 6.1 5-5.8 11.6-6.9 3.8-4.4-33.1 65-150.1 68.2-219.5 2.7-58.1-3.1-124.1-31.7-175.8-6.9-12.4-33-45.8-22.4-36.3z"  fill="#fff" /><path d="M35.4-4.4c-4.8 12.4-16.8 76.5-20.6 80.4-4.4 4.6-10.2-4.2-4.3-6.5 6.9-2.7 6.8 10.3 0 7.4-10.1-4.1 10.7-77 16.5-85.6 3.3-4.8 9.6-0.7 8.4 4.3z"  fill="#005bbb" /><path d="M51.2-399.5c42.8 73.5 58.9 207.7 40.3 290.6-6.8 30.4-21.6 57.3-35.7 84.7-3.5 6.9-16.6 46-23.8 45.5-8.7-0.6-2.1-14.3 3.9-7.9 5.9 6.5-8.3 11.8-8.2 3.1 0.6-30.8 60.1-103.3 62-180 1.6-64.7-2.5-137.7-25.6-198.7-2.5-6.7-20.5-47.6-12.9-37.3z"  fill="#fff500" /><path d="M81.1-399.3c20.7 71.5 44.9 281.6 16.1 347.4-3.7 8.4-14.7-2.7-6.5-6.3 7.1-3.1 9.7 9.5 1.9 9.3-10.9-0.2 4.6-31.4 6-37.1 7.6-30.4 5.8-61.8 3.2-92.7-5.9-68.8-6.2-139.9-23-207.3-0.4-1.5-1.9-23.3 2.3-13.3z"  fill="#fff" /><path d="M59-399.5c35.8 71.6 53.7 220.9 34.9 298.9-7.5 31.3-23.9 58.7-38.4 87.2-3.6 7-17.1 47.9-23.7 47.5-8.6-0.4-2.4-14 3.5-7.8 5.9 6.2-7.9 11.8-7.9 3.2-0.1-31.8 62.4-110.5 65.1-181.4 2.9-73.5-2.2-159.6-29.9-228.3-0.7-1.7-8.7-27.2-3.6-19.3z"  fill="#005bbb" /><path d="M64.5 34c-3.4 7.5-11 41.2-17.8 43.5-6.7 2.3-8-9.4-1-8.6 7 0.7 3.3 11.9-2.7 8.2-6.5-3.9 8.8-48.5 16.1-49.9 4.2-0.8 6.5 3.2 5.4 6.8z"  fill="#005bbb" /><path d="M69.7-333.8c24.3 66.9 32.1 158.7 12.5 227.5-12.4 43.5-38.9 81.1-52.5 124.2-2.4 7.6-11.4 60.2-17.1 59.2-6.3-1.1-2.2-10.9 3-7.2 5.2 3.7-2.6 10.8-5.8 5.3-15.1-26.1 62.9-170.9 70-209.7 10.7-58.8 4.7-128.6-11.4-186-0.3-1-3.2-22.7 1.3-13.3z"  fill="#fff500" /><path d="M85.7-399.4c13.9 55.4 34.6 255.1 27.3 308.7-3.9 28.8-15.6 54.9-29.2 80.3-3.1 5.8-11.8 30.1-19.4 28.7-6.8-1.4-4.1-11.9 2.6-9.9 5.6 1.8 3.9 10.5-2 9.9-12.6-1.1 8.7-31.7 11.3-36.5 19.5-36.2 32.1-71.7 31.2-113.4-1.2-62.7-11.4-191.2-24-251.2-0.4-1.8-1.8-27.4 2.2-16.6z"  fill="#fff500" /><path d="M102-398.7c7.9 58.9 5.6 118.3 11.6 177.3 1.9 18.4 35.5 180.3 11.5 181.6-6.9 0.4-5-10.9 1.4-8.3 7.5 3-2.2 13.2-5.6 5.8-2.8-6.1 3.4-21.7 4-28.6 1.7-18.8 0.2-37.7-2.6-56.4-5.6-36.8-13.7-73.1-16.9-110.3-4.1-48.2-2.8-96.6-8-144.7-0.5-4.5-3.3-12.7-1.6-17.1 1.2-3.3 5.5-2.3 6.2 0.7z"  fill="#fff500" /><path d="M93.6-32.7c-11.4 23.9-25.6 46.4-36 70.8-3.6 8.6-7.3 33.2-14 38.5-5.5 4.3-10.6-6.1-3.8-7.7 8-1.9 5.9 12.2-1.2 8.1-11.9-6.8 36.1-107.9 47.5-116.1 4.5-3.3 9.1 1.8 7.5 6.4z"  fill="#005bbb" /><path d="M111.9-398.6c6.9 84.3-1 167 21.7 249.6 4.5 16.2 28 97.1 19 108.1-3.8 4.6-9.9-3.2-4.6-5.8 5.4-2.6 7.7 7 1.8 7.2-1.4 0-11.7-72.7-14.3-82-29.2-108-23.1-154.3-29.3-260.9-0.3-4.6-2.6-12.9-0.8-17.2 1.5-3.4 5.9-2.1 6.5 1z"  fill="#c2e1ff" /><path d="M113.2-398.5c6.6 86.9-1.5 171.1 23.6 255.9 27.6 93.2 22.3 136.3 13.9 137.2-6.6 0.7-5.4-10.2 0.9-8 7.3 2.5-1.4 12.7-5 5.8-3.4-6.4 2.7-24.6 3-32 0.9-18.9-1.2-37.6-5.4-56.1-8.5-37.4-22.4-73.2-29-111.2-10.4-60.2-4.6-121.5-8.2-182.2-0.2-3.3 4.1-20.3 6.2-9.4z"  fill="#fff500" /><path d="M114.2-160.3c10.2 93.8-17.1 121.6-51.5 202-2.5 5.9-10.2 38.4-17.5 36-6.7-2.3-0.7-12.3 4.5-7.5 5.2 4.9-4.6 11.5-7.2 4.9-6.2-15.6 47.1-106.9 55.2-128 9.3-23.9 12.8-48.9 12.2-74.5-0.2-6.2-5.8-31.2-1.1-35.1 2.2-1.9 4.9-0.3 5.4 2.2z"  fill="#fff500" /><path d="M122.6 45.4c-2 5.9-6.5 32.7-13.5 32.8-7.1 0-4.6-11.5 1.9-8.6 5.5 2.5 1 11-4.2 7.9-12.2-7.3 20.8-57.4 15.8-32.1z"  fill="#fff" /><path d=""  fill="#fff500" /><path d="M137.1 16.3c-2.3 8-15.6 63.5-23.1 61.1-5.7-1.8-2.3-10.7 3.2-8.2 5.5 2.4 1.2 10.9-4.1 7.8-6.9-4 11.5-57.2 15.7-64.3 2.8-4.8 9.1-1.2 8.3 3.6z"  fill="#005bbb" /><path d="M143.3-87.3c4.6 35.3-13.2 135.7-32.1 163.4-4.7 6.9-12.8-5.1-4.7-6.9 7-1.5 6.9 10.3 0 8.7-9.1-2 19.8-77 22.6-87 7.2-25.5 8.2-104 14.2-78.2z"  fill="#fff500" /><path d="M151.5 18c-1.7 7.8-11.2 61.7-18.7 59.6-5.6-1.5-2.8-10.2 2.7-8.1 5.4 2.1 1.6 10.5-3.5 7.8-6.1-3.1 0.7-18.4 1.8-23.1 2.8-12 5.9-23.9 8.7-35.9 1.4-6.1 9.8-7.8 9-0.3z"  fill="#005bbb" /><path d="M158.1-390.1c2.3 53.1-13.2 110.9 3.2 162.5 29.8 93.3 139.1 82 102 211.4-2.2 7.6-8.2 40.6-16 42.8-8.3 2.3-6.7-12.6 0.9-8.6 7.6 4-3.8 13.8-6.5 5.6-2.9-8.5 27.2-81.8 20.4-113.5-13.2-61.6-88.7-81.8-107.9-142.6-15.6-49.4-3.6-106.5-3.2-157.4 0-4.7 6.4-4.6 7.1-0.2z"  fill="#005bbb" /><path d=""  fill="#005bbb" /><path d=""  fill="#005bbb" /><path d="M178.2-103c24.4 43.3 29.2 85.4 22.1 134.1-1 6.9-2.9 45.6-10 46.6-7.4 1.1-4.3-11.6 1.8-7.2 5.2 3.7-2.7 10.9-5.9 5.2-3.4-6 10.6-80.6 10.6-95.5 0-34.4-14.5-51.5-22.4-81.7-0.6-2.4 2.5-3.3 3.8-1.5z"  fill="#fff500" /><path d="M185.8-241c19.6 50.4 78 66.7 100.4 114.5 24.5 52.3-10.1 108.8-28.9 157.1-4 10.2-8.1 40-16 46.5-5.4 4.4-10.6-5.9-3.8-7.7 5.8-1.5 7.6 7.8 1.6 8.6-10.4 1.4-0.6-21.6 0.4-25 15-49.6 52.4-101.8 47.5-155.3-5.1-54.5-58.8-74.1-89.8-111.7-9.2-11.2-18-37.9-11.4-27z"  fill="#005bbb" /><path d="M196.1-399.4c13.9 45.5 20.1 98.1 46.2 138.6 25.1 39 68.6 64.5 81.8 111.1 11.3 39.5-4 77.8-22.3 112.4-3.8 7.1-19.4 45.2-27.7 43.4-5.8-1.2-4.9-10.1 1.1-10.1 6 0 7 8.8 1.1 10.1-14.8 3.4 4.9-27.3 6.7-30.5 20.6-37.8 45.4-79 35.5-123.9-12.2-55.7-69.4-84.3-92.9-134.1-10.8-23-33.6-91.7-34.8-116.1-0.2-3.3 4.1-3.6 5.3-0.9z"  fill="#fff500" /><path d="M201.3-324.5c16.7 117 72.8 97.5 107.2 174.9 28.2 63.4-21.9 126.8-45.9 182.9-2.8 6.5-13.4 46.5-20.3 44.2-4.9-1.6-3.3-9.1 1.8-8.6 5.1 0.5 5.2 8.2 0.1 8.8-10.6 1.3-0.1-22.2 1-25.7 18.4-55.5 66.1-110.5 64.3-171-2-63.5-66.8-87.7-94.7-137.2-11.5-20.4-17-44.2-19.8-67.3-0.5-4.2 5.2-4.8 6.3-1z"  fill="#fff500" /><path d="M208.6-40.4c2.6 16.1-0.7 106.8-10.2 116.5-4.6 4.6-10.3-4.5-4.3-6.7 6-2.2 7.5 8.4 1.1 7.9-8.5-0.7 3.6-51.1 4.6-58.5 0.3-2.2 3.8-79.5 8.8-59.2z"  fill="#005bbb" /><path d=""  fill="#c2e1ff" /><path d="M224.2 51.9c-1.1 5.1-1.8 25.1-8.2 25.8-6.6 0.7-5.3-10.2 1-8.1 5.3 1.9 2 10.1-3.2 7.7-12.1-5.7 12.3-46.7 10.4-25.4z"  fill="#fff500" /><path d="M229.1-379c18.1 33.1 35.9 66.6 57 98 64.6 96.1 88.9 141.7 22 247.5-6.3 10-29.9 63-39.9 64.5-9.3 1.3-5.4-14.5 2.2-9.1 7.7 5.4-6.1 14.3-7.8 5.1-2.6-13.1 22.4-43.8 29.2-54.8 24.7-39.7 54.5-80.7 51.1-129.9-3.7-53.4-83.4-157.6-113.1-211.5-0.6-1-5.4-16.3-0.7-9.8z"  fill="#c2e1ff" /><path d="M236.5-358c29.3 56.9 106.7 154.7 111.2 206.1 5.6 62.7-39.9 113-68 164.5-3.4 6.3-16.8 43.1-24.3 39.7-5.1-2.4-2.4-10.3 3.1-9.1 5.5 1.2 4.5 9.5-1 9.5-11.8 0 3.6-25.7 5.5-29.7 26.5-55.7 80.2-109.1 77.8-174.4-2.4-66.5-70.6-132.3-100.9-190.7-0.9-1.7-8.4-23.2-3.4-15.9z"  fill="#005bbb" /><path d="M245.3-48.1c1 13.5-15.4 128.1-26.4 125.4-5.5-1.3-3-10 2.4-8.1 5.4 1.9 1.9 10.2-3.3 7.8-7.3-3.6 4-34.6 5.6-40.9 2.9-11.9 14.1-83.5 15.1-85.6 1.7-3.5 6.1-1.9 6.6 1.4z"  fill="#fff" /><path d="M253.5 34.6c-2.7 7.5-8.4 40.6-15.2 43.1-6.5 2.4-8.1-8.9-1.3-8.4 6.9 0.5 3.6 11.5-2.4 8.2-6.5-3.6 6.5-43.5 11.3-48 3.8-3.5 8.6 0.7 7.6 5.1z"  fill="#c2e1ff" /><path d="M257-182.7c81.1 68.3 37.1 132.2 4.1 211.4-3 7.2-13.5 48.9-20 49-7 0.1-4.7-11.2 1.6-8.4 7.5 3.3-2.6 13.3-5.8 5.8-6.6-15.5 52.9-130.2 58.2-158.8 4.7-25.3 0-50.5-15-71.6-6.9-9.7-33-34.1-23.1-27.4z"  fill="#fff500" /><path d="M268.1 64.7c-1.4 3.5-4.2 17.7-11 12-4.8-4 1.9-11.2 6.3-6.7 3.7 3.9-1.4 10-5.9 7-4.8-3.2-0.1-13.4 2.2-16.7 3.3-4.8 9.6-0.7 8.4 4.4z"  fill="#fff" /><path d="M271.7-183.8c69.3 64.9 24.8 136.5-6.6 207.7-3.8 8.7-13.6 50.9-21.2 53.5-5.7 2-8.3-7.1-2.5-8.5 6.8-1.6 7 10 0.2 8.7-11.2-2.3 56.1-148.2 59.6-165.4 5-23.9 1.9-48.3-10.9-69.4-0.9-1.4-24.6-31.3-18.6-26.6z"  fill="#fff" /><path d="M282.1-68.6c-0.9 15.8-39.8 148.7-48.3 146.2-4.8-1.4-3.5-8.8 1.5-8.5 5.9 0.4 4.8 9.6-1 8.6-9.8-1.7 8.2-46.2 10.5-52.8 4.1-11.7 28.7-94 30.1-96.1 2.4-3.6 7.1-1.2 7.2 2.6z"  fill="#005bbb" /><path d="M288.3-108.6c12.1 44.4-12.5 89.7-28.4 129.9-3 7.5-17.1 58-23.4 56-6.6-2-1-12.1 4.2-7.4 5.2 4.6-4.1 11.4-6.9 5-4.6-10.7 29.9-88.2 35.7-103.4 6.3-16.4 12.1-33.2 14-50.8 0.9-8.8-3.1-21.6-0.9-29.5 0.9-3.1 4.8-2.4 5.7 0.2z"  fill="#fff" /><path d="M294.3-323c35.7 55.9 80.3 125.1 66.2 194.4-10.5 51.8-48.8 92.2-74.9 136.6-5.1 8.7-28.9 70.1-34.8 70-8.4-0.1-2.8-13.6 3.2-7.7 6 5.8-7.3 11.8-7.7 3.4-2-50.1 96.5-149 107.8-213.8 10.6-61.2-26.2-120.3-56.5-170.4-0.5-0.9-8.2-18.6-3.3-12.5z"  fill="#fff" /><path d="M302.5-134.8c19.2 50.2-11.8 101.1-32.2 145.5-3.8 8.3-24.4 68.8-29.8 67.1-6.7-2.1-0.9-12.2 4.3-7.4 5.2 4.7-4.3 11.4-7 4.9-5.8-13.8 42.2-107.7 50.1-126.8 7.1-17.1 12.8-35.1 13.3-53.8 0.2-8.9-5.2-21.1-3.8-29.2 0.5-2.9 4-2.6 5.1-0.3z"  fill="#c2e1ff" /><path d="M308.6-225c87 117.2-22.3 188.2-55.4 296.7-3.1 10.3-12.9 4-8.6-1.1 6.4-7.5 12 9.4 2.5 7.3-9.1-2 3.2-26.8 5-31.5 20.3-53.6 61.1-97.9 78-152.6 7.9-25.5 7.5-52.2-2-77.1-1.5-4-28-51-19.5-41.7z"  fill="#005bbb" /><path d="M319 4.9c-9.5 10.3-45.9 72.3-46.5 72.7-7.4 4.7-10.3-10.2-1.6-8.6 7.3 1.4 2.5 12.8-3.6 8.4-12.1-8.6 34.2-74.6 43.9-81.3 6-4.1 11.4 3.5 7.8 8.8z"  fill="#fff" /><path d="M354.9-399.4c20.9 51.6 45.4 196.2 34.7 249.8-6.4 32.1-23.3 60-43 85.6-5.5 7.2-24.8 39.1-33.8 38.5-10.6-0.7-2.6-17.4 4.6-9.6 7.2 7.8-10.1 14.4-9.9 3.8 0.2-12.1 26.7-35.2 34.2-45 21.6-28.2 38.8-58.9 42.8-94.6 6.2-55.1-13.2-158.1-29.3-212-0.3-1.2-5.1-25.7-0.3-16.5z"  fill="#c2e1ff" /><path d="M333.5 30c-7.3 7.7-27.8 47-35.6 48.3-7.8 1.3-7.1-11.8 0.6-9.7 7.6 2.1 1.4 13.7-4.6 8.5-8.9-7.6 24.4-51 31.9-56 6-4.1 11.5 3.6 7.7 8.9z"  fill="#fff" /><path d=""  fill="#fff500" /><path d="M349.2-399.6c27.5 58.8 54.7 211.2 33.2 272.3-16.4 46.6-53.2 81.5-81.2 121-3.5 4.9-14.3 29-22.2 23.7-5.1-3.5-0.8-11.6 5-9.3 5.7 2.3 3.3 11.2-2.8 10.2-12.3-2 6.5-24.4 9-28.1 33.8-50 83.6-92.8 92.5-155.6 7.8-54.7-13.8-165-32.1-217.8-0.4-1-6.3-24.8-1.4-16.4z"  fill="#fff500" /><path d="M359.6-399.4c20.2 57.3 44.6 210.7 26.2 267.2-15.4 47.2-52 82.3-80.7 121.4-3.5 4.8-13.6 26.6-21.3 21-5.1-3.7-0.5-11.8 5.3-9.3 5.8 2.5 3 11.5-3.2 10.3-13.3-2.6 12.8-32.4 16.2-36.8 32.3-43.2 73.4-82.5 82.4-138.2 8.4-52.1-11.8-166.3-25.5-219-0.3-1.3-3.9-26.4 0.6-16.6z"  fill="#005bbb" /><path d="M371.9-398.9c11 50.6 28.8 182.2 23.8 231.2-5.1 48.9-33 86.8-63.3 123.5-5 6-27.7 41.8-35.5 35.6-5-4.1 0.3-12.3 6.1-9.4 5.8 2.9 2.4 12-3.9 10.4-13.3-3.4 14.4-31.7 17.9-36.1 30-36.9 62.3-73.1 70.2-121.7 8.2-50.4-10.1-173.6-20.1-226.9-0.7-3.5 2.2-14.6 4.8-6.6z"  fill="#fff" /><path d="M368.3-391.7c15 59.4 37.2 201.9 19.2 258.1-14.5 45.2-48.7 79.2-76.9 116-5.6 7.2-30.2 52.3-37.5 50.7-9.4-2.1 0.1-15.9 5.4-7.9 5.3 8-11 11.5-9.3 2 7.4-43.5 98-113.7 114.2-179.5 13.1-53.3-7.5-176.7-19.6-232.7-0.7-3.2 1.6-14.5 4.5-6.7z"  fill="#fff500" /><path d="M377.3 58.3c-3.4 4.5-12.4 24.6-19.9 19.6-6-4 0.9-13.1 6.4-8.4 4.7 4-0.4 11.6-5.9 8.7-8.4-4.4 7.4-25.8 12.3-28.3 5.6-2.7 9.7 3.7 7.1 8.4z"  fill="#c2e1ff" /><path d="M388.1-398.9c1.9 37.8 1.9 75.6 4.9 113.4 7.4 90.4 17.7 147.4-43.7 223-5.5 6.8-23.9 36.5-32.9 35.6-10.7-1-2.3-17.6 4.8-9.5 7.1 8.1-10.5 14.3-10.1 3.6 0-0.6 70-84.9 78.8-128.8 9.7-48.5-6.1-170.5-8.4-228-0.1-3.5 4.7-20.4 6.6-9.3z"  fill="#005bbb" /><path d="M391.3-26.9c-28.2 22.7-58 43.4-79.5 73.1-3.7 5.2-18.1 37.8-25.1 30.7-4.7-4.8 3.2-11.7 7.4-6.5 4.1 5.2-4.5 11.3-8 5.7-7.9-12.6 74.4-102.9 98.5-114 7.2-3.3 11.6 6 6.7 11z"  fill="#c2e1ff" /><path d=""  fill="#fff500" /><path d="M406-43.3c-31.2 28.2-67.7 49.7-93.5 83.7-4.3 5.7-22.1 42.7-28.7 36.2-4.7-4.7 3.1-11.7 7.3-6.5 4.2 5.2-4.4 11.3-7.9 5.7-7-11 24.1-47.6 30.9-55.8 13.2-15.7 68.1-69.8 86.3-74.1 6.8-1.6 9.6 6.4 5.6 10.8z"  fill="#005bbb" /><path d="M413.4-68.8c-33.1 36.2-77.3 59.9-107.2 99.4-5.1 6.7-27.9 51.6-33.4 46.5-4.1-3.8 0.9-10.4 5.7-7.6 5.6 3.3-0.1 11.8-5.3 8-7.3-5.4 9.4-30.3 12.7-36.1 19.3-33.5 87.2-98.7 120-119.5 6.2-3.9 11.4 4 7.5 9.3z"  fill="#fff500" /><path d="M420.4-178.4c-9.8 84.9-80 127.1-125.1 192.3-9.8 14.2-29.6 62.5-34.4 63.8-7 2-7.8-10.1-0.5-9 7.2 1.1 2.8 12.4-3.3 8.4-13.4-8.9 33.9-76.8 41.1-86.2 22.5-29.7 50.7-54.2 74.3-83 11.1-13.5 20.9-28.2 27.8-44.3 5.4-12.4 5.4-34.8 12.8-45 2.6-3.6 7.4-0.9 7.3 3z"  fill="#fff500" /><path d="M428.2-120.7c-26.6 57.4-85.9 88-123.7 136.6-10.8 13.9-20.2 28.9-27.5 44.9-1.7 3.8-5.9 22.3-13.2 15.8-5.6-4.9 4.4-12.2 7.3-5.4 3 6.8-9.1 9.3-8.9 1.8 0.7-44.4 72-106.8 102.7-134.2 22.4-20 35.9-43.1 54.9-65.1 4-4.7 10.2 0.4 8.4 5.6z"  fill="#005bbb" /><path d="M415.9-397.8c-29.5 134.5 32.6 226.2-68.1 341.9-4.6 5.3-19.3 28.4-27.3 24.6-7.2-3.4-1.2-14.4 5.6-10.3 5.8 3.6 1.5 12.8-5 10.6-12.8-4.4 12.1-26.1 15.6-30.1 25.6-29 50-59.3 59.3-97.8 14.3-59.6-1.8-123.8 3.5-184.6 1.1-12.4 2.6-24.8 4.6-37.1 4-25 12.9-30.2 11.8-17.2z"  fill="#fff" /><path d="M442.7-90.1c-29.2 49.8-83.2 74.2-120.7 116.1-17.1 19.1-34.1 56.5-40 50.7-4.7-4.7 3-11.7 7.2-6.6 4.9 6-6.6 11.8-8.5 4.3-6.8-26.9 73.7-95.2 93.6-110.7 13-10.1 59.5-60.3 61.2-61.3 5.1-3 9.4 2.9 7.2 7.5z"  fill="#c2e1ff" /><path d="M450 33.7c-3.9 6.8-24.2 49.7-32.6 44.1-6-3.9 0.7-13 6.3-8.5 5.5 4.6-2.1 12.9-7.2 7.8-5.3-5.5 20-46.7 26.1-50.6 4.9-3.1 9.4 2.5 7.4 7.2z"  fill="#fff500" /><path d="M456.9-157.1c-18.2 90.8-86.6 113.2-141.1 175.7-10.9 12.5-34.2 58.4-38.7 59.4-7.4 1.7-7.5-10.9-0.1-9.4 7.4 1.6 2.2 13-3.8 8.5-13.1-9.8 35.3-68.4 42.8-76.5 26.2-28.2 59.2-48.5 86.3-75.6 33.2-33.2 38-75.1 47.1-85.8 3.1-3.6 7.9-0.4 7.5 3.7z"  fill="#fff500" /><path d="M464.5-356.2c-31.5 73.7-12.5 152.1-40.2 223.4-25.2 64.9-90.9 99.6-129.2 155.4-3.4 4.9-12.3 27.3-20 22.6-6-3.7 0.3-12.8 5.8-8.5 4.8 3.7 0.1 11.3-5.3 8.8-9.5-4.5 9.1-27.1 12.3-31.8 34.4-51.3 92.3-83.7 121.7-138.4 30.4-56.4 17.7-123.2 30.3-183.9 3.2-15.6 6.6-39.2 16.2-52.3 3.5-4.8 9.8-0.4 8.4 4.7z"  fill="#fff500" /><path d="M471.8 13c-3.8 8.7-30.2 70.7-39.7 64.7-6-3.8 0.5-13 6.1-8.5 5.6 4.4-1.9 12.8-7 7.8-4.4-4.4 26.5-64.8 33-69.9 4.3-3.4 9 1.4 7.6 5.9z"  fill="#fff500" /><path d="M478.6-174.5c-14.8 120.6-64.6 127.4-139.2 202.8-10.9 11-32.2 49.2-38.1 50.2-7.8 1.2-7-11.9 0.6-9.7 7.6 2.2 1.3 13.8-4.6 8.5-6.6-5.7 8.8-25.2 12-30.1 30.4-46.4 81.3-70.7 116.7-112.2 17.9-21 30-45.9 37.1-72.4 2-7.3 3.3-38 9.6-41.2 3.1-1.6 5.9 1.1 5.9 4.1z"  fill="#fff" /><path d="M486.3-352.2c-33.4 80.7-17.7 163.4-48.2 232.4-27.5 62.2-92.6 91.2-132.8 143.2-3.5 4.5-12.1 23.9-19.6 18.8-6-4.1 1.1-13.2 6.5-8.5 4.7 4.1-0.6 11.7-6 8.8-9.2-5 8.8-24.1 12.1-28.6 36.4-48.4 95.8-76.1 126.1-129.2 32.3-56.5 21.5-124.9 35.5-186.4 3.8-16.5 7.9-41.2 18-55.1 3.5-4.8 9.8-0.4 8.4 4.6z"  fill="#005bbb" /><path d="M493.4-9.7c-3.9 13.6-26.2 83-36.4 87.7-7.4 3.4-10.4-9.8-2.1-9.9 8.2 0 5.3 13.3-2.2 9.9-8.8-4.1 7.6-26.6 10.1-32 5.9-12.6 15.6-52.5 23-60.1 3.5-3.6 8.3 0.2 7.6 4.4z"  fill="#fff500" /><path d="M494.3-396.8c-14.3 33.8-30.7 65.9-38.3 102-28 132.4 13.9 156.8-103.8 261.4-5.8 5.2-26.5 30.8-34.3 26.6-6.2-3.3-2.2-13 4.5-11.1 7.9 2.2 3.7 14.4-3.9 11.4-13.1-5.3 13.8-25.7 17.8-29.4 31.5-29.2 67-55.5 85.5-95.6 26.5-57.6 14.6-124.6 30.4-185 6.9-26.2 17.1-63.5 33.7-85.2 3.6-4.8 9.9-0.2 8.4 4.9z"  fill="#c2e1ff" /><path d="M507.9 23.1c-2 8.5-12.1 57.3-22.9 55.4-6.7-1.1-4.4-11.6 2.1-9.7 6.6 1.8 3.1 12-3.2 9.4-8.2-3.3 2.9-18.9 4.7-23.5 3.7-9.3 5.3-28.4 11.8-35.6 3.2-3.6 8.1-0.2 7.5 4z"  fill="#c2e1ff" /><path d=""  fill="#005bbb" /><path d=""  fill="#fff" /><path d=""  fill="#fff" /><path d=""  fill="#005bbb" /><path d="M544.2-288.2c-16.9 86.8-23.4 175.9-43.5 262-3.1 13.3-25.8 107.8-41.9 104.4-9.4-2-0.1-15.8 5.3-8 4.6 6.7-7.9 11.8-9.3 3.8-1.5-9 13.6-29.8 17.2-38.6 10.6-25.8 18.1-52.8 24-80 17.3-80.2 23.2-162.5 39.4-242.9 1.2-6 9.3-8 8.8-0.7z"  fill="#fff" /><path d="M551.2 21.5c-0.9 8.2-4.3 56.7-14.7 56.3-6.3-0.2-5.4-10.1 0.8-9.2 6.2 0.9 4.2 10.6-1.8 9-9.1-2.4 15.7-83.4 15.7-56.1z"  fill="#005bbb" /><path d="M557.7-376.4c3 20 4.1 40.1 2.3 60.2-3.7 41.4-16.1 82-23.3 122.9-8.4 47.6-13.4 95.7-20.4 143.6-2.2 14.9-18.1 129-36.8 125.8-6.7-1.1-4.4-11.6 2.2-9.8 7.7 2.2 1.4 13.8-4.6 8.6-5.8-5 6.3-22.8 8.4-28.3 17.4-45.9 22.9-95.9 29.2-144.2 8.4-65 36.6-184.6 38.8-235.9 0.6-13.9-3.6-29.3-2.1-42.8 0.4-3.9 5.5-3.4 6.3-0.1z"  fill="#c2e1ff" /><path d="M603.1-163.8c-6.9 11.6-23.7 66.1-28.2 69.9-6.2 5.2-10.5-8.1-2.5-7.7 6.9 0.4 3.7 11.4-2.4 8.2-10.3-5.6 17.7-69.1 24.7-76.5 4.4-4.7 10.6 0.9 8.4 6.1z"  fill="#005bbb" /><path d="M603.2-134.8c-1.6 3-8.5 17.4-13 7.6-2.1-4.5 3.3-9 7.4-6.1 4.8 3.3 0.7 10.9-4.7 8.7-6.4-2.6-0.9-12.6 1.8-15.8 4.1-4.8 10.3 0.4 8.5 5.6z"  fill="#fff500" /><path d="M603.1-145.5c-4.7 8.4-15.6 49.5-22.7 52-6.7 2.3-8-9.3-1.1-8.6 7 0.7 3.4 11.8-2.6 8.2-7.4-4.4 12.2-55.9 20-58.9 4.8-1.8 8 3.1 6.4 7.3z"  fill="#c2e1ff" /><path d="M587.4-399.6c23.7 37.5 13.6 26.2 16.1 104.7 2.9 93.6-21.8 87.6-40.3 165.7-11.4 48.3-11.9 97.8-17.4 146.9-0.4 3.8 0.5 18.2-6.5 16.8-4.7-1-4-8.1 0.7-8.2 5.6-0.1 5.2 8.7-0.3 8.2-8-0.8 10.5-143.4 13.6-158.9 8.2-40.5 33.9-83.8 39.1-108.8 6-29.1 3.7-128.5 3.9-145.5 0.1-4.7-9.5-14.8-12.1-18.9-1.3-2.1 1.7-3.8 3.2-2z"  fill="#fff" /><path d=""  fill="#fff500" /><path d="M602.6-259.3c-42.5 117.1-48.8 124.3-59.8 251.9-1.5 16.8-1.3 74.7-16.9 84.7-6.3 4.1-10.7-7.6-3.2-8.6 7.5-1 6.5 11.4-0.7 9.2-4.4-1.3 11.4-69.3 12.3-79.3 10.5-103.6 15.8-155 56.1-253.1 2.1-5.1 15.5-18 12.2-4.8z"  fill="#c2e1ff" /><path d=""  fill="#c2e1ff" /><path d=""  fill="#fff" /><path d=""  fill="#fff500" /><path d=""  fill="#005bbb" /><path d=""  fill="#005bbb" /><path d=""  fill="#c2e1ff" /><path d="M603.3-185.7c-29.7 49.7-38.8 104.6-43.2 161.4-1.8 22.8-1.4 82.5-13.9 100.3-4.9 6.9-12.9-5.4-4.6-7.1 7.1-1.4 6.9 10.6-0.2 8.9-6.8-1.6 5.9-47.9 6.9-55.7 6.9-58.6 5.9-118 27.2-173.9 3.9-10.4 10.7-34.9 20.4-41 4.9-3.1 9.4 2.4 7.4 7.1z"  fill="#fff500" /><path d=""  fill="#005bbb" /><path d=""  fill="#fff" /><path d=""  fill="#005bbb" /><path d="M603.3-149.7c-28 48.9-31.5 105.3-35.8 160.2-0.5 6.9-1.6 51.9-10.5 49.8-4.8-1.1-3.8-8.4 1-8.3 5.7 0.1 5.1 9.1-0.6 8.4-8-1-1.2-19.3-0.5-23.8 6.7-50.5 5.4-101.9 20.6-151.1 13.3-43 32.3-51.9 25.8-35.2z"  fill="#c2e1ff" /><path d="M603-131.5c-31.2 59.3-23.2 181.8-38.9 207.3-3.6 5.9-11.9-2.1-6.1-6 6.8-4.5 9.6 9.3 1.6 8-7.3-1.3 3.3-44.6 4-51.9 5.2-53 5.4-107.6 28-156.9 3.1-6.9 15.1-10.9 11.4-0.5z"  fill="#fff500" /><path d=""  fill="#c2e1ff" /></svg>