<svg width="1200" height="675" viewBox="-500 -500 1200 675" xmlns="http://www.w3.org/2000/svg"><path d="M-500-500h1200v675h-1200z" fill="#000"/><path d=""  fill="#2C4D5D" /><path d=""  fill="#FFFFFF" /><path d=""  fill="#EF8F88" /><path d=""  fill="#2C4D5D" /><path d=""  fill="#EFF7F5" /><path d=""  fill="#2C4D5D" /><path d=""  fill="#2C4D5D" /><path d=""  fill="#FFFFFF" /><path d="M-391.4-175.9c0 5.4 2.7 31.3-10.4 24.9-8.3-4.1-1.1-16.9 6.7-11.9 6.7 4.3 1.4 15-6 12.2-18-6.6 7.3-49.4 9.7-25.2z"  fill="#F6C8AC" /><path d="M-378 1.8c-5.6 4.2-38.4 25.6-30.9-0.4 7.9-27.2 37.2 17.2 9.2 13.8-23.1-2.8 1.4-28.5 9.8-32.4 12.5-5.9 20.5 10.2 11.9 19z"  fill="#EF8F88" /><path d="M-364.6-308.6c-15.5 45.9-18.6 182.1-27.5 193.6-7.9 10.4-21.9-6.2-10.3-12.3 13.6-7.1 16.3 19.4 1.6 15.2-12.7-3.6 4.7-52 5.4-63 2.5-38.9-4.4-106 16.2-140.1 5.1-8.5 16.2-2.1 14.6 6.6z"  fill="#EFF7F5" /><path d="M-352.1-145c-2.9 14.5-28.6 87.5-50.6 78.2-12.6-5.4-3.1-24.8 8.9-18.1 12 6.7 0.4 25-10.8 17-3.6-2.6-5.2-7.4-3.6-11.7 5.2-14.2 21-27.2 28.8-40.6 4.7-8.3 7.7-28.1 15.6-33.3 6.4-4.2 12.7 2 11.7 8.5z"  fill="#2C4D5D" /><path d="M-339.6-265.9c-12.1 64.9 2.1 126.8-39.8 183.7-4.2 5.7-9.4 16.2-16.9 17.9-15.7 3.7-16.1-23.1-0.3-19.8 13.5 2.7 8.1 23.8-5.1 19.6-20-6.4 29.2-59.3 36.6-83.5 11.5-37.4-2.3-88.6 11.6-121.8 3.4-8.2 14.2-4 13.9 3.9z"  fill="#FFFFFF" /><path d="M-326.2-346c-13.9 35.8-25.4 72.3-29 110.6-4 42.8 1.6 128.2-37.6 157.5-12.4 9.2-22.9-14.1-7.8-17.3 15.1-3.2 14.9 22.4-0.2 19-18.4-4.2 21.1-60.7 25-75.9 17.7-69.3-0.6-119.2 33.9-199.9 4.4-10.2 18.2-4.3 15.7 6z"  fill="#EF8F88" /><path d="M-313.5-121.8c-5.4 17.4-74.8 113.6-93.9 89.1-7.9-10.1 5.8-23.5 15.7-15.3 11.6 9.6-4.5 27-14.9 16.2-13.9-14.3 25.6-37 34.1-44.2 12.4-10.5 24.6-21.6 33.8-35.1 4-5.8 7.1-18.2 13.7-21.4 7.4-3.6 13.4 3.8 11.5 10.7z"  fill="#F6C8AC" /><path d=""  fill="#2C4D5D" /><path d="M-306.6-395.4c-16.4 46.3-37.3 90.8-45.1 139.7-7.4 46.7 1.3 147.8-41.1 178.9-12.5 9.2-22.9-14.4-7.7-17.4 15.2-3.1 14.7 22.7-0.4 19-18.7-4.4 22.1-59.8 26.9-80 6.1-26.1 4.6-53.2 6.1-79.8 3.4-55.8 23-106 42.6-157.7 4.1-10.8 22.9-20.5 18.7-2.7z"  fill="#EFF7F5" /><path d="M-275.1 1.2c-11.8 15.3-50.6 72.9-54.7 77.7-1.8 2.1-4.6 3.2-7.4 2.9-11.4-1.3-8.4-19.1 2.8-16.6 13.1 2.9 3.7 23.1-6.9 14.9-15.9-12.2 40.3-88 54.2-94.3 10.1-4.5 16.9 7.2 12 15.4z"  fill="#F6C8AC" /><path d="M-262.3-61.2c-22.4 42.7-64.3 66.6-95.6 101.4-6.4 7.1-25.4 49.9-37 39.3-7.1-6.6 1.5-18.2 9.8-13.4 9.8 5.7 0 20.6-9.1 13.9-14.8-10.9 19.7-52.1 27.1-60.6 19.1-21.7 42.9-38.5 63.3-58.9 8.5-8.5 19.8-32 30.8-35.4 8.7-2.7 13.9 6.5 10.7 13.7z"  fill="#F6C8AC" /><path d="M-252.4-224.2c31 144.9 24.8 150.3-72.3 260.5-7.4 8.4-25.3 46.8-36 45.6-11.4-1.3-8.4-19.1 2.8-16.6 11.2 2.5 6.3 19.9-4.6 16.2-12.9-4.4 0.2-24.4 3.6-30.7 26.3-49.3 77.6-79.2 100.2-131.4 31-71.7-4.4-96.8-3.9-142.5 0.1-6.3 8.2-6.4 10.2-1.1z"  fill="#F6C8AC" /><path d="M-238.3-306.1c-0.9 56.7 25.3 106.3 30.5 161.8 6.1 64.4-23.6 121.9-52.4 177.2-4.7 9.1-16.3 48.9-27.5 48.3-12.8-0.6-7.3-21.2 4.1-15.2 13.4 7-6.5 24.1-11.4 9.8-2.5-7.2 64.7-144.7 70.8-173.4 13.1-61.5-14.4-113.1-23.6-172.5-6.8-43.6 7.3-52 9.5-36z"  fill="#EFF7F5" /><path d="M-225-361.2c-12.7 98.2 22 131.1 28.5 214.7 4.8 63.1-22.1 122.1-44.4 179.5-3.6 9.3-10.6 48-21.8 48.2-14.4 0.3-5.6-23.1 5.1-13.4 10.6 9.7-11.9 20.6-12.9 6.3-2-27 52.2-139.2 59.1-184.2 10.4-66.7-23.7-124.3-28.7-189.4-1.5-18.8-4.9-46.9 1.6-64.9 2.9-8 13.4-4.4 13.5 3.2z"  fill="#FFFFFF" /><path d=""  fill="#2C4D5D" /><path d="M-201-282.9c6.4 44.5 25.5 86 25.9 131.4 0.5 56.5-20.3 110.7-32.9 165.1-2.7 11.8-4.4 61-14.7 66.3-8.5 4.4-14.7-9.4-5.8-12.8 10.4-4 13.2 14.3 2.1 13.5-13.9-0.9-2.7-37-1.5-44.1 9.3-54.9 29.4-107.6 37.4-162.7 8-55.6-12.5-101.3-21.3-154.9-1.2-7.1 8.8-8.5 10.8-1.8z"  fill="#F6C8AC" /><path d=""  fill="#F6C8AC" /><path d="M-175.2-283.8c4.2 37.3 16.3 73.3 16.6 111.1 0.5 60-23.3 117.2-33.4 175.7-1.9 11-3.1 78.1-13.9 77.1-10.4-0.9-5.2-17.4 3.9-12.2 9 5.2-2.6 18-8.7 9.5-16.3-23.1 27.4-175.3 34-209.2 14-72.6-13.5-115.2-9.8-151.8 0.7-6.9 9.7-6.1 11.3-0.2z"  fill="#6E819E" /><path d="M-162.4 62.3c0.4 3.1 3.5 23.3-7.5 16.2-14.9-9.8 19.4-14 7.4-0.9-8.8 9.6-11.7-11.3-11.2-15.2 0.8-6.9 9.8-6.1 11.3-0.1z"  fill="#6E819E" /><path d="M-170.9-396.3c-23.8 79.6 4.3 137.5 9.3 214.7 2.8 42.3-8.3 83.6-18.5 124.3-2.5 10-5.3 47.3-15.3 51.5-9.3 3.9-14.7-11.1-5-14 11.3-3.4 12.8 16.2 1 14.5-13.3-1.9-2.2-28.6-0.6-35.3 8.8-38.1 20.9-75.9 24.9-114.9 6.3-61.6-20.6-120-19.3-181.6 0.4-18.9-0.1-47.9 9.1-64.9 4.6-8.4 15.6-2.7 14.4 5.7z"  fill="#EFF7F5" /><path d=""  fill="#EF8F88" /><path d="M-121.8-380.6c-31.5 67.7-15 132-20.5 202.9-4.2 54.1-26.1 105.2-36 158.3-4.1 21.9-2.4 84-8.5 88.4-8 5.8-14.5-9.3-4.8-11.1 9.7-1.9 9.3 14.6-0.3 12.1-11-2.7-5.3-40.5-5-48.7 2.6-69.5 32.7-132.6 40.8-201 7.6-64.2-9.4-126 11.5-189.3 9.7-29.4 27.1-26.8 22.8-11.6z"  fill="#FFFFFF" /><path d="M-109-132.6c-24.8 43.8-45.1 90.6-44.6 142 0.2 19.7 14.8 71.9 1.9 69.3-7.2-1.4-4.3-12.6 2.6-10.4 6 1.9 4.2 11-2 10.5-9.9-0.8-11.6-39.9-12.7-47.7-8-56.5 6.1-110.4 32.2-160.4 16.4-31.4 26.7-13.5 22.6-3.3z"  fill="#FFFFFF" /><path d="M-99.8 32.5c1.8 6.6 19.8 42.6 12 45.3-5.5 1.9-8-6.9-2.3-8.2 5.7-1.3 7.2 7.8 1.4 8.4-7 0.8-21.3-38.6-20.2-44.8 0.9-5.2 7.3-4.8 9.1-0.7z"  fill="#EF8F88" /><path d="M-83.5-52.7c-13.8 27.3-13.9 58.2-4.9 86.9 1.7 5.4 21.3 43.1 11.6 43.5-4.8 0.2-5.8-6.9-1.2-8.1 5.4-1.4 7.1 7.2 1.6 8-7 1-10.1-15.2-12-19.5-13.9-31.5-33.5-86.9-10.1-119.2 6.2-8.5 17.4-0.7 15 8.4z"  fill="#F6C8AC" /><path d="M-70.7-208.2c-36.7 58.3-77.5 127.1-84.2 196.9-2 21.1-0.5 42.2 2.9 63.1 0.7 4.2 9.3 29.2-2.8 26.6-6.2-1.3-5.3-10.7 1-10.7 6.3-0.1 7.4 9.3 1.3 10.7-11.2 2.6-20-99-6.6-146.1 9.5-33.7 50.1-128.2 73.7-151.9 8.1-8.1 18.8 2.2 14.7 11.4z"  fill="#EFF7F5" /><path d="M-58-330.6c-13.2 19.7-26.8 39.1-35.9 61.1-4.3 10.3-70.2 235.4-72.2 246.8-4.1 24.5-4.6 49.1-2.5 73.8 0.4 4.8 7.5 31.7-5.1 28.2-7.6-2.2-3.6-14 3.8-11 7.3 3 2 14.3-5 10.5-7.8-4.2-5.7-29.8-6.4-37.5-6.7-78.5 23.3-143.9 45.6-216.9 16.4-53.7 22.6-106.3 54.1-154.4 12.2-18.6 32.8-18.6 23.6-0.6z"  fill="#F6C8AC" /><path d="M-49.8 55.3c1.9 4 12 16.5 7.5 20.7-3.8 3.5-8.9-2.7-4.8-5.8 4.8-3.6 8.9 5.5 3 6.7-14.4 3-13.3-33-5.7-21.6z"  fill="#EF8F88" /><path d="M-32.5-44c-12.8 26.4-10.6 55.4 0.3 81.9 2 5 22.9 38.4 14.1 39.4-5.8 0.7-4.8-9 0.8-7.1 5.6 1.8 0.6 10.2-3.7 6.2-26.7-25-39.6-93-27.4-126.4 3.9-10.5 18.4-4.3 15.9 6z"  fill="#2C4D5D" /><path d="M-21.7-4.6c0 20.3 26.8 74.9 26.2 78.5-1.2 6.9-11.5 0.6-5.9-3.6 4.7-3.6 8.8 5.4 3 6.6-12 2.6-36.9-70.9-35.2-81.8 1.1-7.3 10.6-6 11.9 0.4z"  fill="#2C4D5D" /><path d="M-7.6-172.9c-46.4 42.6-104.1 84-113.3 151.2-3.4 24.5 0.7 48.8 8 72.2 0.8 2.6 14 32.4 1.2 27.3-5.8-2.3-1.7-11.3 3.8-8.4 5.5 2.9 0.4 11.4-4.7 7.9-5-3.4-6.3-15.5-8-20.7-17.6-51.8-20.2-103.1 8.9-151.5 17.5-29 61.6-79.7 91.6-95.8 11.8-6.3 20.3 8.8 12.5 17.8z"  fill="#EFF7F5" /><path d="M5.6-236c-53 60.2-123 115.8-142.3 197.8-6.5 27.5-5.5 55.5 0.4 83 0.7 3.4 13.2 39.8-0.4 33-6.1-3-0.8-12.5 5-8.8 5.8 3.7-0.5 12.5-5.9 8.2-5.2-4.1-5.6-18.1-7.2-24.2-14.7-58.5-9.9-114.1 20.8-166.7 20.4-34.9 83.4-116.2 116.1-138 10.6-7.1 20 6.5 13.5 15.7z"  fill="#EFF7F5" /><path d="M18.7-67c-19 27.7-26.9 58.8-17.4 91.6 2 6.7 25 52 17.1 52.5-6.2 0.5-4.7-9.7 1.1-7.5 5 1.8 1.6 9.5-3.2 7.1-5.4-2.7-9-16.4-11.5-21.6-21.2-43.2-29.9-89.1-2.2-132.1 6.8-10.5 21.1-0.9 16.1 10z"  fill="#EF8F88" /><path d="M31-172.8c-42 47.9-114.7 81.6-126.1 150.1-5 30.1 20.9 94 20.1 97.2-1.8 7.5-12.7-0.3-6.2-4.4 7.6-4.9 8.1 11.5 0.2 7.1-9.5-5.3-17.3-37.7-20.6-48-25.7-79.2 23.3-134 79.8-181.9 13-11 25.3-26.9 39.5-36.1 10.7-7 20.1 6.8 13.3 16z"  fill="#FFFFFF" /><path d="M44.2-58.5c-14.2 28-17.4 57.6-8.8 87.9 1.8 6.4 22 48.6 11.7 48.4-5.9 0-5.3-9.4 0.6-8.6 5 0.6 5 8.1-0.1 8.6-9.1 0.9-20.8-44.1-23.1-51.6-8.2-26.2-13.6-69.7 4.8-93.5 6.5-8.5 17.6-0.2 14.9 8.8z"  fill="#EF8F88" /><path d="M53.2 46.5c1.8 5.5 15.2 28.7 6 31.4-6 1.7-8.2-7.9-2-9 6.1-1 7.3 8.7 1 9.1-14.3 0.9-15.8-53.3-5-31.5z"  fill="#F6C8AC" /><path d="M70.1-399.9c42.2 85.1 12.4 177.1-52.7 241.6-34 33.7-79.4 60.1-101.8 103.8-4.1 8.1-7.6 38.5-16.6 40-9.2 1.6-10.9-13.1-1.6-13.7 10.9-0.7 8.1 17.3-2.1 13.3-11.2-4.4-0.6-32.3 1.8-39.3 25.6-77.1 114.3-110.4 153.7-179.5 17.8-31.2 29.8-67.7 27.6-103.9-1.4-21.8-12-39.3-15.9-59.9-0.9-4.8 5.3-6.1 7.6-2.4z"  fill="#FFFFFF" /><path d="M82.4-156.1c-22 48.9-75.3 90.2-78.3 146.1-1.2 21.6 5.7 42.2 14.5 61.6 0.9 2.1 16.7 28.7 4.8 25.5-5.2-1.4-2.6-9.5 2.5-7.6 5 2 1.5 9.7-3.3 7.3-17.8-9.3-37.3-91.6-25.7-126.8 4.3-13.1 64-111.1 72.4-117.2 7.9-5.7 15.9 3.1 13.1 11.1z"  fill="#FFFFFF" /><path d="M95-156.1c-17.2 51-63.7 96.7-62.9 152.6 0.2 16.9 22.7 71.5 20.8 78.1-2.3 7.8-13.5-0.9-6.4-5 7-4.1 9.2 9.9 1.2 8-7.2-1.7-11.8-24.8-14.1-30.8-28.1-72.7-5.8-109 28.8-172.3 5.9-10.8 10.4-31.7 19.3-39.7 6.8-6.1 15.2 1.4 13.3 9.1z"  fill="#EF8F88" /><path d="M107.6-83.9c-8.3 29.8-16.6 59.3-15.1 90.6 0.5 11.2 11.9 64.4 9.1 69.6-4.9 9.1-16.4-4.6-6.6-7.9 8.3-2.8 9.8 11.7 1.1 10.7-9.7-1.1-11.2-41.5-12.6-49.7-5.8-35.2-8.7-86.7 9.6-119.3 4.7-8.4 15.7-2.5 14.5 6z"  fill="#F6C8AC" /><path d="M145.4-399.9c40.3 63.4 25.5 143.7 68.2 205.5 20.6 29.8 50.1 52.3 69.7 82.7 7.9 12.3 34.8 73.1 13.5 83-12.4 5.7-13.6-18-0.8-13.6 11 3.7 1 20.3-7.3 12.3-5.8-5.5 0.2-20.1 0.4-26.6 0.8-17.8-3.3-35.2-11.5-50.9-22.7-43.5-66.8-71-88.8-115.5-24.3-49.2-18.5-106.2-40.6-156.1-1.9-4.4-11.2-15.6-8.9-20.6 1.3-2.7 4.5-2.3 6.1-0.2z"  fill="#2C4D5D" /><path d="M156.2-400c36.3 62.8 21 141.4 64.6 200.7 24.7 33.5 61.9 56.4 83.5 92.3 6.8 11.3 29.7 64.9 11.4 74-11.9 6-13.9-17.1-1.1-13.3 10.9 3.3 1.7 19.7-6.8 12.2-6.1-5.4-0.3-21.4-0.4-28.3-0.2-17.6-5.3-34.6-14.3-49.7-26.9-45.6-76.8-71.3-100-120.3-19-39.9-17.4-84.5-28.9-126.4-3.1-11.4-15-28.4-14.9-39.5 0-4.1 5-4.6 6.9-1.7z"  fill="#6E819E" /><path d="M145.2-53.2c-3.5 33.1-6.3 65.8-6.2 99 0 6.7 5.2 34.7-6.9 34-8.7-0.5-7.1-14.3 1.5-12.8 8.6 1.5 5.5 14.9-2.8 12.5-14.1-4.1-4.4-121.1 0.9-135.9 2.9-8 13.4-4.4 13.5 3.2z"  fill="#FFFFFF" /><path d="M155.9-337.2c12 40.6 10.6 83.8 24.9 123.8 39.1 109.1 103.2 107 55.4 243.2-3.5 10.1-10 47.9-20.5 51.4-10.1 3.4-14.6-12.9-4.1-15.1 10.4-2.3 13.1 14.4 2.5 15.5-16.2 1.7-4.1-25.2-2.4-30.9 12.8-40.8 34.9-83.2 28.8-127.1-7.7-55.5-55.8-96.3-73.3-148.7-9.9-29.5-20.9-79.9-21.1-110.9 0-6.1 7.9-6.3 9.8-1.2z"  fill="#EFF7F5" /><path d="M174.5-399.8c25 55.6 13.3 120.7 42.8 174.2 32.6 59 110.7 84.1 123.4 155.2 1.9 10.8 6 67-12.3 66.5-9.3-0.2-10.5-14.1-1.3-15.9 9.2-1.8 13.3 11.5 4.7 15.3-22.1 9.6 9.8-58.2-13.5-103.3-27.9-53.8-91.1-77-117.2-133-18-38.5-16.1-81.2-24.6-122.1-2.4-11.6-8.5-23.3-10.2-34.8-0.7-5.1 5.9-6.2 8.2-2.1z"  fill="#6E819E" /><path d="M180.7-151.6c27.3 70 26.6 112.5 11.1 185.1-2.3 10.6-2.6 38.1-10.6 45.5-8.6 7.9-18.3-8.9-7.2-12.5 11.1-3.6 12.9 15.7 1.3 14.3-14.3-1.8 14.8-113.1 16.2-128.9 3.1-35.9-19.9-95.7-19.2-102.4 0.5-4.8 6.4-4.8 8.4-1.1z"  fill="#F6C8AC" /><path d=""  fill="#6E819E" /><path d="M211.2-399.3c7.3 49.8-4.7 103.4 14.5 151.1 33.6 83.8 150.5 101.6 143.2 207.3-0.5 6.8 0.4 23.7-7.7 26.8-11.3 4.4-14.4-15.5-2.3-14.7 14.2 0.9 3.6 23.2-6 12.8-6-6.4 1.9-23.5 2.7-30.8 2.1-18.9 0.2-38-7-55.7-26.4-65.9-107.5-85.5-134.5-151.9-11.9-29.2-18.3-113.3-14.2-145 0.9-6.9 9.9-6 11.3 0.1z"  fill="#2C4D5D" /><path d="M221.7-42.3c-0.7 15.1-19.6 127.3-35 123-9.9-2.7-4.7-18.1 4.8-14.3 9.5 3.8 2.8 18.5-6.3 13.7-11.1-5.9 3.2-38.9 5.5-47.8 4.5-17.2 10.5-66.9 18.5-79.1 4.2-6.3 12.4-2.1 12.5 4.5z"  fill="#6E819E" /><path d="M234-397.8c-2 47.9-17.2 98.2 0 144.9 33.4 90.5 157 97.4 144.9 217.3-0.8 8.2-1.1 32.8-11 36.1-11.9 4-14.1-16.8-1.6-15.4 14.6 1.7 2.5 24.2-7 12.9-5.8-6.9 2.8-22.3 4.3-29.8 4.1-20.3 4.6-41.3-0.9-61.3-21-75.6-113.3-94.2-140.4-166.3-13-34.6-12.6-105.5-1.4-140.9 2.5-7.8 12.7-4.8 13.1 2.5z"  fill="#FFFFFF" /><path d="M247.1-302.7c-9.4 78.5 63.1 107.9 108.3 156.1 44.7 47.7 43.7 107.9 24.7 166.7-3.6 11.2-11.7 56.7-22.9 60.6-13.7 4.7-12.6-20.5 0.7-14.4 13.2 6-5 23.5-10.5 10-2.4-5.9 38.4-118.2 32.1-158.9-12.1-77.8-92.6-97.8-129.5-158.6-9.6-15.9-21.6-44.6-16-63.7 2.3-7.9 12.6-5.1 13.1 2.2z"  fill="#6E819E" /><path d=""  fill="#2C4D5D" /><path d="M265.4-396.5c-15.2 56.5-42.8 114.5-4.5 168.6 37.4 52.7 106 73 124.6 140.3 1.6 5.9 9.1 24.9 0.1 28.1-9.1 3.2-11-12.7-1.5-11.7 9.6 0.9 4.7 16.1-3.6 11.2-6.2-3.6-3.9-18.8-4.9-24.6-2.8-15.5-8.6-30.3-17-43.5-37.4-59-118.1-79.6-129.3-156.2-3.5-23.8 5.9-102.4 22.8-119.9 6.1-6.3 14.5 0.3 13.3 7.7z"  fill="#EFF7F5" /><path d="M280-152.3c65.7 57.6 65.9 110.7 32.8 187.2-4.1 9.6-12.4 43.5-22.7 46.2-10.8 2.8-14.4-14.4-3.3-16 11-1.7 12.7 15.9 1.5 16.3-16.7 0.7-3.1-25.1-0.8-30.8 14.2-35.8 35.4-71.7 35.5-111.3 0.1-21.3-6.8-41.5-18.7-59-7.7-11.2-35.3-40.6-24.3-32.6z"  fill="#6E819E" /><path d="M295.7-92.4c18 40.7 3.8 83.6-12.7 122.1-4.1 9.5-16.7 57-30.2 51.5-8.8-3.6-4.9-17.2 4.5-15.6 11 1.9 7.1 19-3.6 15.9-17.2-4.9 26.9-89.8 31.1-103.4 11.1-35.8-0.6-51.5 2.3-69.8 0.8-4.9 6.8-4.6 8.6-0.7z"  fill="#EFF7F5" /><path d="M311.1-45.3c-0.5 16.5-33.1 133.8-51.6 126.3-10.3-4.2-2.7-20.1 7.1-14.8 9.8 5.3 0.6 20.3-8.6 13.9-11.8-8.2 10.7-45.1 14.7-54.4 5-11.4 22.9-73.1 26.9-76.8 5-4.5 11.4 0 11.5 5.8z"  fill="#6E819E" /><path d="M319.9-114.7c38.2 53.5 13.1 113-9.7 166.6-3.2 7.4-7.2 30.6-18 29.9-15.2-1-3.9-24.9 6.5-13.7 8.9 9.5-9.8 20.5-13.8 8.1-3.8-11.7 32.5-84.1 37.5-102.5 4.6-17.1 6.6-35 3.6-52.6-2-11.1-11.7-23.6-12.3-33.9-0.2-3.7 4.2-4.4 6.2-1.9z"  fill="#FFFFFF" /><path d="M337.5-361.1c-25.7 29.1-56.1 60.7-46.3 103 9.5 40.7 49.1 65.5 76.1 94.1 40.3 42.8 52.8 97.5 40.4 154.4-2.2 9.9-6.3 44.6-17.3 47.9-10.5 3.2-14.5-13.6-3.7-15.6 10.8-2 13 15.1 2 15.9-4.5 0.3-8.6-3.3-8.6-7.9-0.7-35.2 34-67.3 14.3-135.9-20.9-73.1-128.6-109.8-116.9-192.4 3.3-23.1 24.7-71.1 48.6-80.1 10.7-4 17 8.4 11.4 16.6z"  fill="#F6C8AC" /><path d="M344.5-393.3c-23.4 41-71.8 74.2-63.9 127.1 8.5 56.8 72.3 84.1 102.5 127.8 18.2 26.3 39.4 94.1 21.6 124.3-1.7 2.9-5.2 4.3-8.5 3.5-8.5-2.3-6.5-15.2 2.3-14.8 8.8 0.4 9.6 13.5 1 14.9-16.1 2.8-4.6-29.5-4-35.7 2.8-26-0.6-52.5-11.5-76.4-29.4-63.9-125.5-95.6-116.3-176 2.8-24.2 43.4-96.3 64.2-108.1 9.1-5.1 16.5 5.2 12.6 13.4z"  fill="#EFF7F5" /><path d="M357.6-209.7c69.8 97.1 89.6 123.3 52.7 245.5-2.7 8.8-6.8 45-18.3 45.5-8.8 0.4-10.8-12.7-2.3-15 10-2.6 13.3 13.4 3.1 14.9-16.6 2.5-3.8-28.9-2.3-34.3 11.7-42.6 27.7-84.3 24.1-129.3-4.1-50.7-31.8-85.2-61.5-123.9-2.3-3 2-6 4.5-3.4z"  fill="#F6C8AC" /><path d="M372.7-93.3c15.7 42.6 2.4 87.1-12.4 127.8-3.2 8.9-11.2 51.4-24.6 46.7-8.7-3-5.6-16.4 3.6-15.4 10.7 1.3 7.7 18-2.8 15.6-16.4-3.8 21.2-88.8 24.8-102.2 5.6-21.8-0.1-100.2 11.4-72.5z"  fill="#2C4D5D" /><path d=""  fill="#FFFFFF" /><path d="M401.7-301.3c-13.6 16.8-22.8 36.7-20.3 58.6 4.3 37.3 33 68.5 45.8 103.2 22.2 60.1 12.7 118.6-5 178.3-2.5 8.6-5.9 41.9-17 42.4-14.1 0.7-6.1-22.6 4.6-13.4 9.1 7.9-6.9 19.9-11.9 8.9-5-11 25.4-98.6 28.2-119 15.5-112.4-52.6-141.7-57.6-213.5-1.1-16 4.1-51.5 20.6-60 9.7-5 17 6.1 12.6 14.5z"  fill="#2C4D5D" /><path d=""  fill="#FFFFFF" /><path d="M425-79.5c2.5 18.7-14.1 166.7-36.9 160-8.5-2.5-6.2-15.5 2.6-14.9 10.3 0.7 8.3 17-1.8 15.1-15.7-2.8 4.4-48.9 7-57.8 6.1-20.3 12.4-40.6 15.5-61.5 1.8-12.1-2.3-32 2.3-42.7 2.6-6 10.1-3.7 11.3 1.8z"  fill="#EF8F88" /><path d="M438-394c-23.1 49.6-104.5 85.2-91.8 147.2 6.8 33.3 35 58.2 53 85.6 26.9 41.1 35.9 89.8 28.2 138.1-1.2 7.6-1.2 29.1-12.2 29.4-12.4 0.2-8.3-19.9 2.9-14.9 11.3 5-0.8 21.5-8.9 12.3-4.4-5 12.4-67.5 5.1-106-12.6-66.4-96-124.6-79.6-187.7 9.8-37.7 44.4-60 68.8-87.5 7-7.9 13-22.7 21.6-28.5 8.4-5.5 16.2 3.9 12.9 12z"  fill="#6E819E" /><path d="M452.7-280.6c-27.6 55.7 0 115.7 5.4 173.4 4.9 52.8-5 100.8-19.7 151.2-2.4 8.1-4.6 36.8-15.5 37.2-10.3 0.5-10.2-15.8 0.1-15.2 10.3 0.6 8.4 16.8-1.8 15.1-12.5-2.2-2.7-23.9-1-30.3 8.5-32.7 20.1-64.7 24.5-98.3 9.5-72.6-20.9-132.4-17.5-198.1 2.8-52.9 31.7-56.5 25.5-35z"  fill="#6E819E" /><path d="M465.4-334.9c-18.4 29.8-44.8 58-45.3 95-0.6 37.4 19.3 73.5 26.6 109.7 11.4 56 4.8 108.5-11 162.8-2.8 9.6-6.7 44-16.4 47.7-9.6 3.7-14.7-11.8-4.7-14.4 11.7-3.1 12.6 16.9 0.7 14.8-13.2-2.3-1.8-27.7 0-34.3 8.8-32.6 20.1-64.5 23.7-98.2 8.6-79.9-42-169.8-28.5-222.2 5.1-19.7 23.6-63.7 42.3-74.3 9.1-5.2 16.6 5.2 12.6 13.4z"  fill="#F6C8AC" /><path d="M478.2-301.9c-57.2 109.8 12.3 182.4-33.9 339.9-2.6 9-5.6 39-14.8 42.5-9.6 3.7-14.7-11.8-4.7-14.4 11.7-3.1 12.6 16.9 0.6 14.8-14.9-2.6 19.8-105 22.3-120.2 12.3-74.3-19.8-152.8-4.6-221.2 3.5-15.7 9.6-38.9 20.3-51.3 7.2-8.3 18.1 0.8 14.8 9.9z"  fill="#F6C8AC" /><path d="M481.5-395.3c-16.7 54.5-84.5 98.3-79.3 157.7 6 68.3 54.9 98.1 43.8 199.7-0.7 6.3 0 19.2-5.3 23.9-8.9 7.9-18.5-9.4-7.1-12.8 11.4-3.4 12.8 16.3 1.1 14.6-10.3-1.5 0-74.3-1.2-87.2-5.5-55.7-51.6-120.3-43.1-170.7 2.1-12.3 6.9-23.9 13.2-34.7 12.7-21.8 30.4-40.1 44.1-61.2 6.9-10.6 11.5-30.2 20.5-38.2 6.8-6.1 15.1 1.3 13.3 8.9z"  fill="#2C4D5D" /><path d="M502.9-141.9c-14.3 78.9-8.5 108.3-33.9 195.4-2 6.9-2.9 21.2-8.6 25.8-9.5 7.7-18.6-10.5-6.7-13.5 11.9-3 12.4 17.3 0.4 15.1-16.1-3.1 10.4-68 13.6-79 10.6-37.2 14.1-130.2 21.3-147.7 3.4-8.2 14.1-4 13.9 3.9z"  fill="#2C4D5D" /><path d="M510.2-396.7c-11.9 65.1-66.6 117.5-62.3 185.4 2.2 34.7 30.4 185.3 4.9 206.5-9.4 7.8-18.6-10.2-6.9-13.3 11.7-3.1 12.6 17 0.6 15-11.5-2 3.3-73.6 3.2-86.2-0.5-62.2-28.2-129.5-6.8-190.1 9-25.6 24.2-48.5 35.7-73.1 7.3-15.7 10-34.1 17.5-49.3 4.1-8.3 14.9-3.1 14.1 5.1z"  fill="#6E819E" /><path d="M528.2-82.3c-2.4 24.7-20.7 149.9-36.5 162-9.8 7.6-18.6-11.1-6.5-13.8 12.1-2.7 12.2 17.9 0.1 15.2-15.8-3.4 6.8-53.3 9.6-62.8 4.7-15.6 18.6-102.1 20.6-105.1 4.2-6.4 12.5-2.2 12.7 4.5z"  fill="#EFF7F5" /><path d="M541.2-110c-5.1 30.6-18.1 174-38.5 189.5-9.9 7.6-18.6-11.2-6.4-14 12.2-2.7 12.2 18 0 15.4-15.7-3.5 11.3-67.6 14.3-78.8 5.3-19.7 12.6-110.2 17.6-117.3 4.6-6.5 13.1-1.7 13 5.2z"  fill="#F6C8AC" /><path d="M554.4 56c-1.7 6.2-4.9 33.1-17.5 23.8-7.3-5.4-0.5-17.1 7.8-13.4 7 3.1 5.4 13.9-2.2 14.9-15.3 1.9-6.3-27.4-1.4-32.6 5.9-6.3 14.4 0 13.3 7.3z"  fill="#FFFFFF" /><path d="M567.7-398.7c6 116.8-58.2 162.3-70.9 266.5-2.6 20.9-5.1 121.1-17.3 130.8-9.6 7.7-18.6-10.6-6.7-13.5 11.9-3 12.5 17.4 0.4 15.1-14-2.7 1.5-43.6 2.8-52.7 8.3-58.5 5.7-116 28.6-171.8 10.9-26.5 25.5-51.4 36.2-78 17.7-43.9 7.4-61.4 14.7-97.4 1.5-7.4 11.1-5.6 12.2 1z"  fill="#EFF7F5" /><path d="M579.8-314c-19.7 93-67.4 97.7-79.5 240-1.5 17.9-23.3 161-43 154.9-10-3.1-4.3-18.6 5.4-14.4 11.2 4.9-0.6 21.4-8.8 12.2-10.8-12.1 17.8-75.2 21.8-90.6 14.5-56.2 9.7-115.5 27.4-171 4-12.6 58.9-133.4 63.6-138.4 5.8-6.3 14.2 0 13.1 7.3z"  fill="#F6C8AC" /><path d="M590.9-384.6c14.4 114.9-66.9 167.7-81 273.3-3.6 27.2-15.7 155.1-33.8 168.5-10.1 7.5-18.7-11.6-6.3-14.1 12.3-2.6 12.1 18.3-0.2 15.5-15.1-3.5 12.8-73.8 15.4-85.8 10.8-49.7 7.9-101.5 24.3-150.2 12.8-38.1 35.9-70.9 53.3-106.7 22.3-45.8 11.8-88.8 17.1-102 2.4-5.9 9.9-3.9 11.2 1.5z"  fill="#EF8F88" /><path d=""  fill="#EF8F88" /><path d=""  fill="#FFFFFF" /><path d=""  fill="#6E819E" /><path d=""  fill="#EF8F88" /><path d=""  fill="#EFF7F5" /><path d=""  fill="#2C4D5D" /><path d=""  fill="#2C4D5D" /><path d=""  fill="#6E819E" /></svg>