<svg width="1200" height="675" viewBox="-500 -500 1200 675" xmlns="http://www.w3.org/2000/svg"><path d="M-500-500h1200v675h-1200z" fill="#000"/><path d=""  fill="#fff500" /><path d="M-395.3 7c11.4 26.3 34.2 46.6 43 65.5 1.5 3.2-4.7 3.6-3.6 0.2 1.1-3.4 5.9 0.6 2.8 2.3-3.9 2.1-13.5-12.2-15.6-14.7-11.4-13.1-29.7-33.5-33.2-51.1-0.8-4.2 4.6-5.4 6.6-2.2z"  fill="#005bbb" /><path d=""  fill="#fff" /><path d="M-395.4-4.6c9.8 22.6 22.5 43.6 39.3 61.8 2.6 2.8 16.6 13.2 16.1 16.8-0.1 0.4-0.3 0.9-0.7 1.1-10.7 6.8-59.4-66.7-61.4-77.5-0.8-4.3 4.7-5.4 6.7-2.2z"  fill="#005bbb" /><path d="M-395.2-99.4c20.9 51.5 43.8 93.8 91.6 124.7 6.5 4.2 71.5 45.4 66.7 49.7-1.6 1.4-4-0.7-2.8-2.5 1.5-2.1 4.6 0.5 2.9 2.4-2.4 2.6-21.3-17.1-24.4-19.6-35.3-27.2-77-44.5-104.3-81.1-13.7-18.5-33.4-48.4-36.8-71.7-0.7-4.5 5.2-5.5 7.1-1.9z"  fill="#fff500" /><path d="M-395.3 27.6c2.5 5.8 26.9 46.1 24.2 47.8-2.9 1.9-5.7-2.9-2.5-4.5 3.1-1.6 5.3 3.5 2 4.8-6.4 2.4-29.1-39.4-30.3-45.9-0.9-4.2 4.6-5.4 6.6-2.2z"  fill="#fff" /><path d="M-395.2-128.4c23.1 57.6 44.2 107.4 97.6 143 7.5 5 83.9 55.5 77.2 60.7-2.8 2.1-5.3-3.1-1.9-3.9 3.4-0.8 3.5 5 0.1 4.3-6.6-1.4-19.7-20.2-25.7-25-38.1-31.3-84.9-49.9-113.9-91.7-15.5-22.3-36.8-58.3-40.6-85.5-0.6-4.6 5.3-5.5 7.2-1.9z"  fill="#c2e1ff" /><path d=""  fill="#c2e1ff" /><path d="M-395.4-10.4c11 25.6 25.7 48.9 45.7 68.5 3.3 3.2 15.4 11.2 16.2 15.1 0.1 0.5-0.1 1.2-0.6 1.4-11.8 8.1-65.8-71.2-68.1-82.9-0.8-4.3 4.7-5.5 6.8-2.1z"  fill="#005bbb" /><path d="M-393.9-290.1c7.6 60.7 75.8 213.1 119.4 255.7 20.9 20.5 85.2 58.3 95.1 81.7 1.6 3.7-5.4 3.8-4 0.1 1.4-3.7 6.5 0.9 3 2.7-2.8 1.4-36.8-33.6-41.9-37.7-83.8-67.7-99.1-92.4-140.5-191.1-12.8-30.6-27.6-60.8-36.6-92.8-1.6-5.6-3-11.2-4.1-17-1.1-6.3 7.8-7.5 9.6-1.6z"  fill="#005bbb" /><path d="M-383.8-267.2c19.5 70.1 72.4 194 126.2 242.2 22.6 20.2 97.5 69.3 102.7 98 1.1 5.9-9.2 3.8-5.9-1.2 2.8-4.3 8.8 1.8 4.4 4.5-1.9 1.2-36.1-43.1-41.7-48.4-43.6-40.5-93.2-70.2-122.4-124.1-12.1-22.5-74.7-153-71.5-170.6 0.8-4.6 6.5-4.2 8.2-0.4z"  fill="#005bbb" /><path d=""  fill="#fff" /><path d="M-363.1-35.6c31.2 50.9 88.3 67.5 129.3 107.8 2.5 2.5-3.3 5-3.3 1.3 0-3.6 5.8-1.4 3.3 1.3 0 0-107.7-76.9-116.9-86.5-5.5-5.7-14.5-13.8-17.3-21.3-1.2-3.2 2.9-4.8 4.9-2.6z"  fill="#fff500" /><path d="M-357.3-395.8c-36 86.1-13 134.4 21.6 215.3 13.5 31.6 25.3 64.4 42.7 94.2 13.5 23.1 30.8 43.2 50.6 61.1 2 1.8 11.8 8.1 11.5 10.8-0.1 0.5-0.5 1.1-1 1.2-4.8 1.4-22.9-19-26.6-22.5-51.2-48.7-134.2-226.5-130.4-296.6 1.1-21 6-53.2 18.6-70.7 5.4-7.4 15.1-0.6 13 7.2z"  fill="#fff500" /><path d="M-336.2-387c-8.4 26-14.2 52.5-12 80 4.7 56.4 59.1 187.5 91.6 234.7 17.9 26 41.4 46.8 65.6 66.9 1.8 1.5 20.4 14.8 16.6 16.7-0.1 0-0.2 0.1-0.3 0.1-4 1.1-18.9-15.3-22.3-18.1-24.4-20.3-48.4-41-67-67-34-47.5-86.5-175.1-94.3-232.8-3.3-24.7-4-63.7 9.2-86.1 4.4-7.4 14.1-1.9 12.9 5.6z"  fill="#fff" /><path d="M-328.3-220.4c28.7 71.2 53.2 144.5 112 196.9 10.2 9.1 107.5 87 92.4 99.8-4.3 3.7-8.7-4.6-3.2-6.1 5.4-1.5 6 7.8 0.4 6.9-6.1-1-25.3-38.5-31.6-45.2-41.5-44.6-93.7-74.4-124.3-129-6.9-12.4-54.3-118.5-52.7-123.1 1.2-3.5 5.4-3 7-0.2z"  fill="#fff500" /><path d="M-319.9 9.1c8.8 6.8 94.1 56.8 88.9 65.5-1.4 2.3-4.9-0.1-3.3-2.2 1.6-2.1 4.9 0.6 3 2.5-2.3 2.4-24.4-20.2-27.9-22.9-18.9-14.5-39.8-26-59.4-39.4-0.5-0.3-4.7-5.3-1.3-3.5z"  fill="#005bbb" /><path d="M-303-346c-15.3 79.4 34.4 231.5 87.6 291.6 21.8 24.6 93.7 70.2 102.3 97.1 1.5 4.6-6.9 4-4.8-0.3 2.1-4.3 7.7 1.8 3.3 3.5-3.8 1.5-28.9-31-33.5-35.2-24.3-22.6-51.5-41.8-74-66.3-47.5-51.8-79.5-148.6-92.1-217.2-3.9-21.5-9.9-55.7-1.1-76.7 3-7.2 12.5-3.5 12.3 3.5z"  fill="#c2e1ff" /><path d="M-307-396.8c-29.5 107.7 0.9 187.3 46.6 285.7 13.3 28.6 38.1 50.6 47.3 68.8 0.2 0.5-0.8 2.5-1.3 2.6-5.5 1.1-20.4-20.2-23.7-24.2-44.9-54.8-98.5-200.8-94.5-271.6 1.1-19.6 3.2-48.9 12.9-66.4 4.1-7.4 13.7-2.2 12.7 5.1z"  fill="#fff" /><path d="M-282-261.7c7.9 77.8 37.9 168.4 96 222.6 10.7 10 122.5 101.3 101.1 116.1-5.3 3.7-9.3-6.2-3-7.4 6.3-1.1 5.9 9.6-0.3 7.9-6.3-1.7-19.2-37.1-24.7-44.2-42.3-55.1-105.7-84-136-149.7-20.3-43.8-36.9-96-43-143.9-0.8-6.6 8.3-7.4 9.9-1.4z"  fill="#c2e1ff" /><path d="M-274.5-36.3c11.1 11.1 127.4 99.2 114.8 111.8-3.6 3.6-8.1-3.5-3.3-5.2 4.7-1.7 5.9 6.6 0.8 6.2-6.1-0.5-26.3-35.1-32.4-41.1-24.7-24.5-54.2-43.7-80-67.1-1.6-1.5-3.7-7.4 0.1-4.6z"  fill="#fff" /><path d="M-261.1-126.5c27.5 67.7 79.9 100.8 129.2 150.6 5.6 5.6 42.4 44.9 32.9 52.2-4.8 3.7-9.1-5.5-3.1-6.8 5.9-1.3 5.9 8.8 0 7.5-5.1-1.1-6.6-12.2-8.5-16.1-6.3-12.5-14.7-23.8-24.1-34.1-34.2-37.5-79-63.3-108.5-105.4-35.5-50.8-20.5-52.2-17.9-47.9z"  fill="#fff500" /><path d=""  fill="#c2e1ff" /><path d="M-245.5-397c-6 27-16.4 52.8-22.4 79.8-14.2 64.1 5.9 135.5 30.2 195 10.1 24.6 23.9 47.2 42.1 66.7 1.5 1.7 19.9 18 15.2 18.6-6.2 0.8 6.3-1.5 0.2 0-3.6 0.9-12-9.9-14.3-12.1-59-56.8-92.2-159.8-89.4-241.1 0.8-21.4 13.4-98 26.8-113.1 5-5.6 12.4-0.3 11.6 6.2z"  fill="#fff500" /><path d="M-226.5-168.1c9.3 41.3 27 78.7 57 108.9 28.1 28.3 115.3 88.4 111.1 133.1-0.7 7.2-12.1 3.5-8.5-2.7 3.6-6.2 12.4 1.9 6.6 6-8.3 5.8-10.4-16.5-11.5-19.5-5-14.6-12.6-28.3-21.9-40.7-32.5-43.2-83-68.3-112.6-114.2-11.6-18-28.9-47.7-29-69.8 0-5.5 7-5.6 8.8-1.1z"  fill="#005bbb" /><path d="M-214-223c-1.8 63.5 21.5 122.3 68 165.5 20.9 19.3 43.9 36.4 62.3 58.2 6.7 8 49 69.6 33.2 77.2-6.9 3.3-9.8-9-2.1-9.1 7.6-0.1 5.1 12.3-1.9 9.2-4.2-1.9-14.9-46.1-22.9-59.4-33.8-56.4-98.6-84.1-126.8-145.3-11.6-25.2-27.6-69.5-20.9-97.6 1.6-6.7 10.3-4.8 11.1 1.3z"  fill="#c2e1ff" /><path d="M-203.3-195.5c2.7 38.3 15.3 75.8 39.1 106.1 39 49.6 95.8 78.3 116.1 141.9 1.7 5.4 7.4 17.8 4.5 23.1-3.7 6.9-13.5-1.6-7.3-6.2 5.3-4 11.2 4.8 5.5 8.1-9.1 5.4-9.2-15.3-10-18.8-4.1-18.1-11.4-35.3-21.3-51-30.7-48.6-85.3-75.4-113.4-126.1-11-19.8-26.6-53.9-23.4-77.3 0.8-6.2 9-5.3 10.2 0.2z"  fill="#c2e1ff" /><path d="M-196.3-3.1c8.6 7.1 81.5 68 68.8 79.1-4.2 3.7-8.6-4.5-3.3-6.1 5.4-1.6 6 7.7 0.5 6.9-5.8-0.9-14.7-24-18.5-29.2-14-18.6-31.7-33.5-49.3-48.5-1.4-1.2 0.3-3.1 1.8-2.2z"  fill="#c2e1ff" /><path d="M-179.5-255.6c-14.8 59.4-3 121.1 37.7 167.6 22.9 26.2 51.3 47.1 71.8 75.4 7 9.6 48.8 83.5 31.2 90.7-7.5 3-9.7-10.2-1.7-9.9 8.1 0.4 4.5 13.4-2.6 9.7-7.3-3.8-12.3-49.2-16.5-59.3-28.4-67.1-101.5-99.6-126.4-168.9-10.5-29.1-20.3-80.1-6-109.6 3.6-7.3 13.2-2.9 12.5 4.3z"  fill="#005bbb" /><path d=""  fill="#fff" /><path d="M-156.9-362.2c-22 89.6-68.9 162-13.4 252.8 29.1 47.7 81.7 74.6 109.4 123.4 2.1 3.6 15.9 23.3 7.8 26-5.9 1.9-6.8-8.3-0.8-7.6 7.2 0.9 1.1 11.9-3.4 6.3-12.5-15.1-18.8-41.1-34.9-59.6-54.8-63-109.9-90.9-115.4-184.4-2.4-40.8 18.2-126.2 38.1-162 4.1-7.3 13.7-2.2 12.6 5.1z"  fill="#fff" /><path d="M-151.4-37.1c18.1 15.5 100 86.6 89.2 112.1-2.4 5.6-10.9 1.4-8-3.9 3.5-6.2 12.2 1.6 6.5 5.8-7.9 5.7-9.8-13.8-10.8-16.9-5-14.6-12.7-28.2-22-40.5-15.4-20.2-35-36.3-54.4-52.4-1.1-0.9-4.2-6.6-0.5-4.2z"  fill="#fff" /><path d="M-140-60.2c28.4 26.4 103.2 90.5 95.7 134.6-1.3 7.6-13.2 2.8-8.9-3.6 4.4-6.4 13.2 3 6.6 7-9.5 5.6-10-18.8-11-22.6-4.3-16.4-11.3-32.1-20.5-46.4-16.3-25.4-39.4-44.7-61.8-64.6-1.4-1.2-3.9-7.1-0.1-4.4z"  fill="#005bbb" /><path d="M-123.4-374.5c-18 78.8-61.9 163.9-20.8 242.8 28.2 54.1 81.4 87.6 102.9 146.6 1.5 4.2 12.2 25.2 3.2 26.9-7 1.3-6.6-10.5 0.2-8.7 6.9 1.8 1.6 12.3-3.9 7.8-4.6-3.7-20.9-57.9-28.3-69.8-39.2-63.2-101.6-100.9-102.9-182.9-0.5-30.9 23.3-140.4 37.1-167.3 3.8-7.3 13.3-2.6 12.5 4.6z"  fill="#fff500" /><path d="M-112.1-389.4c-19.1 77.5-62.1 170.1-26 248.4 24.8 53.6 75.5 88.8 96.8 145 1.6 4.2 12.5 24.9 3.6 26.8-5.8 1.2-7.2-8.1-1.3-8.7 6.9-0.7 5.5 10.8-1 8.5-4.3-1.5-10.5-36.8-28-66.2-38.2-64.2-97.9-104.4-95.4-186.7 0.9-28.6 26.3-148.2 38.7-171.8 3.8-7.3 13.5-2.5 12.6 4.7z"  fill="#fff" /><path d="M-100.8-370.1c-20.5 70.2-48.4 155.3-16.1 225.8 29.8 65.3 75 99.5 90.1 176.2 1.2 5.9 6.2 19.7 2.9 25.3-4.2 6.9-13.9-2.3-7.3-6.8 6.7-4.6 11.7 7.9 3.7 9.2-6.5 1.1-19.1-69.9-22.9-80-25.5-67.7-87.4-114.5-92-190.5-2.1-35 12-134.8 28.9-164.5 4.2-7.4 13.9-2.1 12.7 5.3z"  fill="#c2e1ff" /><path d="M-115.1-396.8c-17.3 75.1-60.4 163-35.3 240.3 14.5 44.7 56.1 72.6 64.7 94.5 1.8 4.6-7 3.1-3.8-0.6 2.7-3.2 6.1 3.2 2 3.7-4.9 0.5-18.6-20.1-22.2-24-36.7-41.2-62.2-85.6-59.2-142.5 1.5-28.2 29.4-152.4 41.3-175.9 3.7-7.3 13.3-2.7 12.5 4.5z"  fill="#c2e1ff" /><path d="M-104.6-396.5c-20.3 72.7-58.6 165.1-32.4 240.1 11.5 33.1 34.7 58.8 55.9 85.8 1.9 2.4 20.5 22.2 12.7 23.9-10.3 2.2 5.1-12.1 2.1-2-1.8 6.3-7.2-2.6-7.8-3.6-38.8-58.7-86.7-101-82.3-177.5 1.8-31.2 25.1-146.6 39.1-171.9 4.1-7.4 13.8-2.3 12.7 5.2z"  fill="#005bbb" /><path d="M-68-278.8c-6.6 98.4 41.1 188.6 51.9 285 1.6 14.2 12.1 59 2.9 70.6-5.6 7.1-15.2-4.5-7-8.6 8.1-4.1 11.9 10.5 2.8 10.8-8 0.3-10.5-88-12.3-100.3-11.4-79.9-47.4-154.5-50-235.8-0.2-7.3-0.4-14.8 0-22.1 0.5-7.7 11.1-6.8 11.7 0.4z"  fill="#fff" /><path d=""  fill="#c2e1ff" /><path d="M-44.3-386.5c-77.9 109.6-15.2 230 13.4 333.9 3.2 11.6 25.3 107.5 11.1 107.5-7.3 0-6.7-11.4 0.6-10.6 6.2 0.7 6.2 9.9 0 10.6-10.3 1.1-9.6-47.5-10.6-55.5-13.3-96.8-67.3-180.7-61-280.8 2.1-33.4 7.6-90.9 33.6-115.7 7.5-7.1 16.8 2.4 12.9 10.6z"  fill="#fff" /><path d="M-86-396.2c-26.3 66.9-52.9 159.5-31.3 230.5 8.7 28.7 25.7 53.2 42.1 77.9 1.6 2.3 16.5 19.6 8.5 20.9-4 0.7-4.7-5.7-0.7-5.9 4.1-0.2 4.1 6.2 0 6-6-0.3-17.3-25.1-20.7-30.3-35.3-53-53.5-102.6-44.8-167 6.1-45.5 16-94.4 33.1-137.2 3.6-9 15.9-3.9 13.8 5.1z"  fill="#fff" /><path d="M-33.9-392.9c-73.4 87.2-36.4 209.1-5.6 304.4 3.9 12 33.2 115.8 18.6 116.5-7 0.3-6.9-10.7 0.1-10.3 8.2 0.5 4.4 13.6-2.8 9.7-6.7-3.7-9.5-57.9-14.1-77.8-22.3-96.3-64.5-171.1-43.8-274.2 4.9-24.4 14.6-64 35-80.5 8.4-6.8 17.4 3.9 12.6 12.2z"  fill="#fff" /><path d="M-25.9-392.7c-78.1 84.8-36.3 210.4-9 306.3 3.4 11.8 28.5 110.5 14.8 111-7 0.3-6.8-10.8 0.2-10.4 8.2 0.6 4.3 13.7-2.9 9.7-6.8-3.7-9.1-59-13.5-79.3-19.9-92.6-60.6-178.6-38.3-275.5 5.3-23 16.3-60.1 36.5-74.9 8.9-6.5 17.6 4.8 12.2 13.1z"  fill="#005bbb" /><path d="M-0.8-80.8c-2 51.2 1 103.7-3.8 154.7-0.3 3.3-3.1 5.9-6.5 5.5-8-0.9-5.9-13.4 1.9-11.6 7.8 1.7 4.4 13.9-3.2 11.3-9.6-3.3-2.6-48.4-2.5-57.4 0.3-19.6-4.6-91.8 3.3-105.6 3.2-5.6 10.4-2.4 10.8 3.1z"  fill="#fff" /><path d="M10.9-3.1c-1.7 10.8-4.2 83.9-15 82.3-8.2-1.2-5.5-14 2.5-11.9 8 2.1 4 14.5-3.8 11.6-9-3.4-0.9-78.5 5-86.6 4.1-5.7 11.5-1.4 11.3 4.6z"  fill="#fff" /><path d="M-27.5-392.6c-63.4 70.1-47.1 179-21.9 261.3 3.6 11.7 36 109.6 23.8 110.9-6.5 0.7-7.1-9.6-0.6-9.6 7.6 0 5 12.4-2 9.2-8.7-4-12.5-51.5-15.2-61.6-22.5-82.4-52-161.3-32.3-248 5.2-23 15.9-60.1 35.9-75.1 8.8-6.6 17.5 4.6 12.3 12.9z"  fill="#fff500" /><path d="M32.4-204.3c4.9 68-18.5 133-26.1 199.9-1.2 10.9-1.7 85.4-12.8 83.9-9.5-1.3-4-16.2 4-11 8 5.2-3.2 16.4-8.3 8.3-4.9-7.7 5.2-86.7 7-100.7 7.4-59 27.5-116.8 25.7-176.7-0.2-7.6 9-13.1 10.5-3.7z"  fill="#c2e1ff" /><path d="M44.8-131.5c-11 51.8-29.9 100.7-36.4 153.6-1.1 8.7-0.3 59.3-11.9 57.6-8.2-1.3-5.5-14 2.5-11.9 8 2.1 3.9 14.6-3.8 11.5-9.9-3.8-0.4-44.6 0.4-53.2 4.1-40.7 18.6-126.8 36.8-162.2 3.7-7.3 13.3-2.6 12.4 4.6z"  fill="#c2e1ff" /><path d="M55-201.1c3.3 69.4-28.3 130.4-40.9 197.2-2.1 11-6.1 84.8-16.6 83.1-9.6-1.5-3.7-16.5 4.3-11.1 8.1 5.4-3.6 16.5-8.6 8.3-11.1-18.2 21.4-140.7 29.2-165.1 7.5-23.6 15.5-47.2 19.1-71.8 1.8-11.7-1.9-32.8 3.1-42.9 2.7-5.4 9.6-2.9 10.4 2.3z"  fill="#fff500" /><path d="M32.8-391c-70.9 54.3-62.3 126.6-51.7 206 4.6 34.5 6.8 69.2 8.5 104 0.5 10.1 8.3 80.8-2.8 80.4-7.5-0.2-6.5-12 0.9-10.9 8.6 1.2 3.6 14.8-3.7 10.1-0.4-0.3-4.9-75.9-5.5-88.5-3.5-71.1-31.6-187.8-7.5-251.2 7.4-19.5 30.5-62.6 53.6-67.3 10.7-2.2 14.8 10.6 8.2 17.4z"  fill="#c2e1ff" /><path d="M79.1-342.9c-37.8 58.6-12.1 124.4-20.4 188.7-7.3 56.4-34.8 108-44.9 164-1.8 9.8-4.1 71.6-15.2 69.8-9.6-1.6-3.6-16.6 4.5-11.2 8.1 5.5-3.7 16.6-8.7 8.3-12.4-20.7 30.7-159.6 39.9-187.5 25.5-77.2 1-126.9 14.1-195.8 2.7-13.9 7.4-35.5 17.6-46.1 6.9-7.2 16.5 1.6 13.1 9.8z"  fill="#fff500" /><path d=""  fill="#c2e1ff" /><path d=""  fill="#005bbb" /><path d="M111.8-294.3c-20.3 122.4 67.1 184.3 8 329.3-3.8 9.3-12.5 43.8-22.8 46.1-9.9 2.1-12.4-13.7-2.2-14.8 10.1-1 10.8 15 0.6 14.9-15.7-0.1-0.6-25.6 1.7-30.8 14.9-35.4 31.3-71.2 34.5-110 5.3-64.5-24.7-126.3-31.7-189.6-1.5-13.8-5.1-34.7-0.1-48 2.7-7.1 12-3.9 12 2.9z"  fill="#fff500" /><path d="M34.3-390.9c-85.4 65.4-54.8 156.6-47.5 248.4 0.8 10.2 9.4 54.9 1.1 61.2-6.9 5.1-12.7-7.9-4.3-9.6 8.4-1.8 8.2 12.5-0.2 10.5-9.9-2.3-6.7-56.4-7.4-66-5.1-69.3-31.7-148 4.9-212.9 9.1-16.2 25.5-40 42.9-48.3 11-5.2 18 8.9 10.5 16.7z"  fill="#c2e1ff" /><path d="M135-356.8c-67.9 139.8 50.8 240.8 3.1 384.9-4.8 14.4-9.7 38.8-19.7 50.3-7.9 9-19.6-7-8.7-11.9 10.9-4.8 14.8 14.6 2.9 14.4-15.9-0.3-0.1-26.5 2.1-31.9 12.7-31.3 24-63.8 26.1-97.8 4.9-79.3-42.3-152.2-40.4-231.8 0.6-25 5.4-63.9 21.6-84.2 5.9-7.4 15.6 0.1 13 8z"  fill="#fff" /><path d=""  fill="#c2e1ff" /><path d="M153.5-209.5c21.6 49 74.7 72.5 96.1 120.2 16.9 37.9 5.6 81.9-7.7 119.1-3.5 9.8-16.2 55.1-30.4 51.6-9.1-2.3-7.3-16.2 2.2-16 9.4 0.2 10.6 14.3 1.3 16.1-5.5 1.1-10.5-3.9-9.5-9.5 6-31.3 51-80.2 39.9-145.9-7.7-45.7-50.7-68.9-77.9-102.2-6.8-8.3-18-20.5-20.4-31.1-0.9-4.1 4.3-5.4 6.4-2.3z"  fill="#fff" /><path d="M164.1-143.6c41.2 66.5 70.9 104.2 46 186.5-2.7 8.8-8.5 37-19.1 38.5-14.4 2-8.4-22.6 3.4-14.1 10.1 7.2-5.2 21-11.3 10.3-4-7 27-65.8 25-110.9-2.2-49.2-47.8-91.5-49.3-108.4-0.3-3.2 3.5-3.9 5.3-1.9z"  fill="#fff500" /><path d="M174.6-176.5c23.9 30.9 61.7 51.2 77.2 88.4 15.9 38.1 3.9 82.1-9.6 119-3.6 9.9-16.2 53.7-30 50.3-9.1-2.3-7.2-16.2 2.2-16 9.4 0.3 10.6 14.3 1.3 16-5.5 1.1-10.5-4-9.5-9.4 5.9-31 47.3-74.1 41.5-139.5-4.2-47.2-45.3-71.4-74.4-103.5-2.3-2.5-2.6-8.9 1.3-5.3z"  fill="#005bbb" /><path d="M179-396.8c-15.4 58-35.1 122.5-2.8 178.6 34.3 59.5 116.7 78.5 106.4 160.4-0.9 6.9-0.8 23.8-8.7 26.5-10.4 3.5-12.4-14.7-1.5-13.5 12.8 1.4 2.3 21.2-6 11.4-0.2-0.2 6.6-58.1 3.3-70.8-16.4-63.3-99.1-78.8-117.9-155.1-11.3-45.8 0.2-96.8 13.9-141 2.7-8.7 14.4-5 13.3 3.5z"  fill="#fff" /><path d="M197.5-106.5c35.9 48.5 36.1 104.6 15.7 159.8-2.6 7.1-6.3 23.4-13.6 27-11.2 5.5-16.1-14.7-3.7-15 10.7-0.2 10.1 16.7-0.5 15.8-19.3-1.7 17.6-47 20.8-103.5 1-18.3-1.2-36.6-8.1-53.6-3.4-8.5-14.4-20.1-15.4-28.7-0.4-2.9 3.1-3.7 4.8-1.8z"  fill="#fff500" /><path d="M207.5-184.1c84.8 76.7 102.6 86.7 49.2 210.3-4.7 11-18.7 54.7-32.3 55.4-15.3 0.8-6.8-24.4 4.9-14.5 11.7 9.9-11.9 22.4-13.5 7.1-0.1-1.1 55.8-116.6 58.1-151.5 1.7-24.5-6.5-47.1-22.8-65.4-10.5-11.7-40.5-26.1-45.9-39.7-0.6-1.5 1.2-2.5 2.3-1.7z"  fill="#fff500" /><path d="M223.9-399.2c2.6 44.4 15.7 88.9 44.3 123.6 27.4 33.3 65 57.9 78.1 101.2 12.4 41-0.6 81.7-21.1 117.6-5.2 9.2-24 51.5-36.6 47.9-9.2-2.7-6.8-16.8 2.8-16.2 9.6 0.6 10.2 14.9 0.8 16.4-5.7 0.9-10.6-4.4-9.4-10 9.1-39.5 65.7-71.4 56.3-145.2-8.3-64.2-74.1-94.5-102-148.6-11.6-22.4-27.6-61.2-23.6-87 1-6.3 9.2-5.2 10.4 0.3z"  fill="#fff500" /><path d="M235.7 23.1c-2.8 9.8-17.7 66.1-32.8 56.9-9.3-5.7 0.4-19.8 9.1-13.1 8.6 6.6-2.6 19.7-10.5 12.1-5.9-5.6 17-60 23.9-64.1 5.9-3.6 11.4 2.3 10.3 8.2z"  fill="#c2e1ff" /><path d="M243.8-348.4c19.4 55.3 67.1 82.5 98.1 129.1 45.6 68.5 5.5 137.6-34.2 196.7-6.9 10.3-45.9 74.6-49.9 74.8-15.2 1-7-24.2 4.7-14.4 11.7 9.7-11.6 22.3-13.3 7.2-1.4-12.1 18.5-35 24.5-45.2 28.9-48.4 74.9-96.2 77.6-155.4 3.2-72.5-62.8-104-97.8-157.6-5.9-9-15.6-22.3-17.1-33.3-0.6-4.7 5.4-5.6 7.4-1.9z"  fill="#fff" /><path d="M258.4 31.4c-4.3 9.1-22.4 58.8-36.3 49.2-9.2-6.4 1.7-20.4 10.1-13.1 8.5 7.4-3.9 20.1-11.5 11.9-6.7-7.2 19-52.3 26.1-57.6 6.9-5.1 14 2.6 11.6 9.6z"  fill="#fff500" /><path d="M269.6 28.8c-5 9.3-26.3 61.4-40 51.5-9.2-6.7 2.1-20.7 10.6-13 8.4 7.7-4.3 20.3-11.9 11.7-7-7.8 25.5-63.3 35.4-61.9 5.9 0.8 7.9 6.7 5.9 11.7z"  fill="#005bbb" /><path d="M276.4-362.6c25.2 44.8 72.3 68.5 101.2 109.8 48.3 68.9 9.9 147.6-37.4 204.3-7.6 9.1-59 73-59.8 73-18.3 0.4-1.9-28.4 7.1-12.4 7.6 13.6-19.2 17.1-15.4 2 12.9-50.9 111.8-103.2 116.3-198.8 3.7-79.3-69.2-109.1-110-164.5-2-2.7-8.7-21.7-2-13.4z"  fill="#005bbb" /><path d="M301.2-400.1c20.8 45.6 65.7 69.1 98.5 104.5 44.6 48.3 42.6 116.7 15.1 173.3-8.3 17.1-35.4 67.3-56.4 70-17.4 2.3-9.8-27.3 4.3-17 16.7 12.2-17.8 26.7-14.8 6.3 1.9-13.6 29.8-33 38.4-44.3 25.2-33.4 40-77.1 37.1-119.2-4.9-69.7-69.6-97.1-109.9-144.5-6-7.1-16.1-17.5-18.4-26.7-1-4 4.1-5.3 6.1-2.4z"  fill="#fff500" /><path d="M297.7-320.4c36.6 40.4 86 68.4 93.6 127.4 11.1 84.9-58.3 142.1-100.5 206.1-6.6 10.1-30.3 62.5-43.8 58.3-9.3-2.9-6.5-17.2 3.3-16.3 11.3 1 8.8 18.8-2.4 16.5-5.7-1.1-8.6-7.9-5.4-12.7 16.2-24.7 30.6-50.5 47.5-74.8 32.2-46.2 77.9-86.9 88.8-144.6 6.3-33.7-0.6-67.5-21.2-95.1-17-22.8-49.1-38.5-63-62.4-1.2-2.1 1.5-3.7 3.1-2.4z"  fill="#c2e1ff" /><path d="M314.5-47c-22.4 40.9-43.7 88-71.7 125.2-2.9 3.8-8 5.1-12 2.2-9.2-6.7 2.2-20.7 10.6-13 8.4 7.7-4.4 20.3-12 11.7-8.4-9.5 17.7-40 22.7-48.7 15-26.8 28.5-64.5 49.5-86.9 6.8-7.2 16.2 1.4 12.9 9.5z"  fill="#005bbb" /><path d="M319.9-266.3c103.4 98.2 33.6 176.1-26.9 269.9-7.9 12.3-40.5 74.4-49.7 77.6-12.7 4.4-15.3-17.8-1.9-16.4 11.4 1.2 8.6 19.1-2.6 16.7-18.2-3.9 9.3-35.5 13.3-42 29.9-49.6 85.1-115.4 102.6-167.2 10.2-30.2 10-63.7-4.2-92.6-8.1-16.5-45.1-57.1-30.6-46z"  fill="#005bbb" /><path d="M346.7-400.3c22.1 38.3 62.7 60.9 88 96.7 39.9 56.4 22.8 138.4-10.2 194.3-8.5 14.4-51.5 69.3-67.6 70.3-18.1 1.1-8.2-28.9 5.7-17.2 13.9 11.7-13.9 26.6-16 8.5-0.6-5.1 50.8-52.4 59-63.6 24.8-33.7 38.7-78.1 40.7-119.7 3.8-78.2-62.2-108.1-102.5-163.6-2.6-3.6-1-10.3 2.9-5.7z"  fill="#c2e1ff" /><path d="M347.7-113.3c-10.7 53.1-50.3 99.6-76.5 146-5.1 9-25.5 57.7-39 47.8-7.9-5.8-0.5-18.5 8.5-14.5 10.5 4.7 2.2 20.7-7.7 15-13.2-7.7 16.7-43.2 21.5-51.6 21-36.8 44.9-72.1 64.8-109.5 6.5-12.2 9.4-26.3 15.9-38.1 4-7.3 13.5-2.3 12.5 4.9z"  fill="#c2e1ff" /><path d="M372.8-399.9c21.1 35 56.8 58.4 77.6 93.8 33.3 56.9 13.5 136.4-16.1 191.1-9.3 17.1-39.3 66.3-61.3 67.4-18.2 0.9-7.9-29.2 5.9-17.3 13.9 11.9-14.3 26.6-16.2 8.4-0.5-4.9 45.5-48.6 52.9-59.5 23.5-34.6 36.8-79.5 40.1-121 5.8-72.2-47.2-105.4-85.6-157.3-2.6-3.4-1.2-10.2 2.7-5.6z"  fill="#c2e1ff" /><path d="M369.4-9.5c-24.1 16-45.6 34.4-64.2 56.6-6.6 7.9-21.3 35.6-32.2 34.9-13.9-0.9-7.5-23.1 4.7-16.5 12.3 6.6-2.9 24.2-11.2 13-5.9-7.9 58.4-92.9 93.4-106.1 11.8-4.5 17.8 10.7 9.5 18.1z"  fill="#005bbb" /><path d=""  fill="#fff500" /><path d="M391.7-26.4c-25.2 17.2-50.8 33.3-72 55.3-11.2 11.6-30.5 48.9-45.5 53-15.8 4.3-12.5-23.9 1.9-16.2 12.3 6.6-2.8 24.1-11.2 13-7.5-9.9 14.4-29.3 19.7-36.3 26.6-34.3 58.1-63.8 95.6-86 11.7-6.9 21.4 8.6 11.5 17.2z"  fill="#005bbb" /><path d="M403.8-73.4c-34.1 36.2-76.2 62-106.7 102.1-6.2 8.2-38.7 66.5-49.5 49.5-5.4-8.5 6.3-17.8 13.4-10.7 8.3 8.3-5.5 20.6-12.9 11.5-8.9-11.2 30.3-54.3 37.5-64 14-18.9 90-98.2 108.8-103.9 9.9-3 14.9 8.6 9.4 15.5z"  fill="#fff500" /><path d="M409.7-347.3c19 18.9 37.3 39.3 46.8 64.7 23.1 62-4.2 148.3-44.5 197.6-22.3 27.2-51.6 47.1-77.2 70.9-9.3 8.6-43.1 58-54.3 53.9-12.8-4.6-0.7-23.8 9-14.1 11.3 11.2-14.1 22.3-14.6 6.3-0.9-28.8 129.8-117.4 156.9-182.2 17.4-41.6 30.4-94.6 14.1-138.5-4.2-11.4-39.3-55.9-39.3-57.2-0.1-1.8 2-2.4 3.1-1.4z"  fill="#005bbb" /><path d="M426.4-79.9c-33.6 41.1-83.8 64.2-118.4 104.6-7.4 8.6-44.6 69.9-54.9 53.4-5.3-8.6 6.6-17.9 13.6-10.6 8.2 8.5-5.8 20.7-13.1 11.4-8.8-11.3 29.8-51.9 37.2-61.3 12.8-16.3 111.4-106.8 125.7-112.1 9.4-3.5 14.9 7.4 9.9 14.6z"  fill="#fff" /><path d="M437.3-177.6c-4.8 26.6-14.7 52.6-29.5 75.3-30.1 46.5-78.4 77.7-111.2 122.3-7.2 9.8-39.1 70.4-51.9 60.2-10.7-8.4 6.8-22.8 12.9-10.6 6.2 12.1-15.7 17.8-16.2 4.2-0.9-25.2 103.2-132.7 125-154.3 44.8-44.5 49.1-90.6 59.4-102.8 4.7-5.6 12.1-0.6 11.5 5.7z"  fill="#fff500" /><path d=""  fill="#005bbb" /><path d=""  fill="#fff" /><path d="M471.2-178.8c-9.8 32-21.7 64.2-42 91.1-32.6 43.2-83.5 67.1-119 107.8-8.3 9.5-44.3 70.4-56.6 60.3-10.6-8.8 7.3-22.9 13.4-10.5 6 12.4-16.3 17.7-16.5 3.9-0.1-7.8 10.4-17.2 14.6-23 44.8-62.8 76.8-81.3 131.3-130.2 50.2-45 37.3-65.2 62.1-105.3 4.5-7.4 14.2-1.7 12.7 5.9z"  fill="#c2e1ff" /><path d="M487.5-400.1c11.2 29.8 25.6 58.2 26.9 90.6 2.9 72-55.3 215.9-111.2 261.4-9.5 7.8-39.9 37.4-52.5 32.9-17.7-6.3 3.8-30.9 12.3-14.1 8.6 16.7-24 19.8-18.7 1.8 3.1-10.6 51.2-39.2 62.5-49.4 27.2-24.5 43-56.1 55.6-89.9 17.6-47 42.7-100.6 40.7-151.7-1.1-29.2-19.3-52.3-23-79.7-0.6-4.6 5.4-5.6 7.4-1.9z"  fill="#fff500" /><path d="M493.6 35c-2.4 7.8-6.8 47.1-17.4 44.9-8.4-1.7-4.9-14.8 3.2-12.2 8.1 2.6 3.3 15.2-4.5 11.8-9.5-4.3 1.3-45.6 7-51.4 5.4-5.6 12.9 0.2 11.7 6.9z"  fill="#fff" /><path d="M501.7-398.4c10.1 26.8 21.3 53.2 21.8 82.4 0.8 53.8-49.3 185.4-80.6 229.9-15.3 21.7-35.3 38.6-56.7 53.9-10 7.1-40.8 37.2-53 33.7-12.8-3.7-5.9-23.5 6.4-18.5 12.3 5 3.4 24-8.4 17.7-21.9-11.8 43.4-49.7 51.9-55.8 40.6-28.9 64.1-64.3 81.7-110.4 18.8-49.4 48.2-105.9 47.5-159.7-0.4-26-14.9-46.8-18-71.3-0.6-4.7 5.5-5.5 7.4-1.9z"  fill="#fff500" /><path d="M516-48.1c-8 30.3-19.7 59.2-29.9 88.7-2.7 7.9-5.8 35.4-13.8 38.7-9.6 4-12.7-13-2.3-12.5 10.4 0.4 6 17.1-3.2 12.3-11.3-5.7 5.9-43.8 8.8-52.1 5.5-15.8 19.6-72 28.7-81.7 5.2-5.6 12.7 0.1 11.7 6.6z"  fill="#c2e1ff" /><path d="M526.8 3c-2.9 17.7-2.3 70.1-7.4 74.2-6.4 5.2-12.5-7-4.5-9 7.9-2 8.4 11.6 0.3 10.1-11.6-2.2-5.9-71.7 0.2-80.1 4.2-5.7 11.6-1.3 11.4 4.8z"  fill="#005bbb" /><path d=""  fill="#fff" /><path d="M546.6-390.3c32.6 76.9-19.1 136.9-48.2 205.1-30.1 70.8-45.4 119.1-112.6 163.9-9.5 6.3-28.4 25.1-39.9 25.2-15.9 0-10.3-25.8 4.1-19.1 12.4 5.7 2.3 24.7-9.3 17.7-21.2-12.7 40.3-45.3 48.6-51 36.7-25.2 60.4-56.3 77.3-97.3 16.3-39.5 74.1-153.7 79.4-182.5 1.9-10.3-11.4-84.9 0.6-62z"  fill="#fff" /><path d="M560.4-78.3c-5.9 41.7-9.1 87.4-3.4 129.3 0.6 4.6 8.6 24.6 1.1 26.4-5.6 1.3-7.1-7.6-1.4-8.3 5.7-0.7 6.3 8.3 0.5 8.4-20.6 0.3-15-142.5-8.8-158.7 2.7-7.1 12-3.8 12 2.9z"  fill="#005bbb" /><path d=""  fill="#005bbb" /><path d="M580.7 56.8c0.9 3.6 8.7 18.2 2.2 20.2-4.3 1.3-6.9-4.8-3.1-6.9 4.5-2.6 8.2 4.7 3.4 6.8-6.7 2.9-11.5-16.1-10.8-19.7 0.9-4.6 6.7-4.1 8.3-0.4z"  fill="#fff" /><path d="M594-207.1c-21.9 15.9-40.2 35.6-52.4 60-16.9 33.6-22.7 71.5-34.3 107-9 27.3-21.5 52.9-33.5 78.9-3.7 8-12.8 45.3-24.2 41-7.7-2.9-4.6-14.8 3.6-13.6 9.5 1.4 6.5 16.2-2.8 13.8-16.8-4.4 25-80.5 29.8-91.5 27.6-61.8 30.7-137.3 77.6-189.2 6.4-7.1 19.9-25 30.7-24.3 9.8 0.6 11.6 11.9 5.5 17.9z"  fill="#fff500" /><path d="M605.5-293.1c-23.7 38.1-61.9 64.4-84.5 103.9-32.5 56.6-42.2 121.5-95.1 164.9-6.1 5-14.1 13.3-21.9 15.5-15.8 4.4-17.3-22.7-1.1-20.1 16.2 2.6 6.2 27.9-7.4 18.7-17-11.5 41.4-47.8 55.4-67.3 26.7-37.1 36.3-83.3 58.1-123.1 20.4-37.4 51.6-63.3 77.8-96 7-8.7 27.6-12.7 18.7 3.5z"  fill="#fff" /><path d=""  fill="#005bbb" /><path d="M604.7-265.3c-24.1 23.2-50.9 42.8-70.2 70.7-14.2 20.5-82.6 207.8-117.4 183.1-11-7.8 2.3-24.4 12.4-15.5 10.1 8.9-4.9 24-14 14-11-12.2 25-35.3 31.8-43.3 40-47.5 46.4-113.6 84-163.2 15.6-20.7 39.4-48.6 62.4-61.2 10.3-5.6 17.8 7.5 11 15.4z"  fill="#005bbb" /><path d="M605.1-259.7c-28.6 25.4-58.1 47.6-77.9 81.3-59.1 100.4-26.3 120-137.4 201.4-8.5 6.2-29.2 30.2-40.1 27.8-14.7-3.2-4.2-26 7.8-16.8 10.3 7.8-2.9 23.3-12.3 14.5-15.5-14.7 81.5-77.8 93.5-90 54.3-55.1 57-139.6 111.6-195.7 12.2-12.6 28.2-30.5 44-38.5 10.6-5.4 17.9 8.3 10.8 16z"  fill="#c2e1ff" /><path d=""  fill="#fff" /><path d="M604.7-203.2c-25.2 17.5-45.8 39.5-58.3 67.8-3.2 7.2-10.8 49-22.7 40.4-6.4-4.6-0.6-14.8 6.6-11.7 8.5 3.6 2 16.6-6 12.1-10.6-6 6.2-41.1 9.4-49.1 10.6-26.5 33.2-65.3 61-77 11.4-4.8 17.9 9.9 10 17.5z"  fill="#fff500" /><path d="M604.5-232.9c-39.5 27.5-68.1 58.6-85.2 104.2-11.7 31.1-29 106.2-56.6 125-11.5 7.8-20.1-13.6-6.4-15.9 16.1-2.6 10 25-3.5 15.9-11.6-7.9 25.3-55 30.1-66 26.6-61.4 36.9-122.2 92.1-166.5 5.9-4.7 14.5-14.1 22.2-15.1 11.2-1.5 14.5 11.9 7.3 18.4z"  fill="#c2e1ff" /><path d=""  fill="#fff" /><path d=""  fill="#fff" /></svg>