<svg width="1200" height="675" viewBox="-500 -500 1200 675" xmlns="http://www.w3.org/2000/svg"><path d="M-500-500h1200v675h-1200z" fill="#000"/><path d=""  fill="#005bbb" /><path d=""  fill="#fff" /><path d="M-395.3-83.2c18 32.7 63.1 125 39.2 161.1-7.4 11.1-22.8-4.8-11.4-11.9 11.4-7 18.6 13.9 5.4 15.5-15 1.8-2-53.9-6.2-75-6.3-31.3-26.8-57.1-34.3-86.9-1.2-4.7 4.9-6.3 7.3-2.8z"  fill="#c2e1ff" /><path d=""  fill="#005bbb" /><path d=""  fill="#fff" /><path d="M-394.5-169.6c16.3 37.8 35.3 74.8 58 109.1 2.9 4.4 25.5 30.4 19.9 34.1-3.6 2.3-6.9-3.5-3.1-5.4 3.8-1.9 6.5 4.2 2.5 5.7-5.9 2.2-15.2-17.1-17.8-20.7-26.4-37-49.8-77.3-67.5-119.2-2.3-5.3 5.2-8.3 8-3.6z"  fill="#c2e1ff" /><path d="M-394.1-216.3c33.4 96.4 62 131.3 117 212.8 6.4 9.5 46.2 73.8 31.8 81.8-7.6 4.2-11.7-9.5-3.1-10.2 10.1-0.8 4.8 16.1-3 9.7-4.2-3.5-19.1-55.6-25.2-66.6-32-58.4-75.1-101-103-164.8-6.5-14.9-12.6-30-18.4-45.3-1.6-4.2-7.1-12.7-5.1-17.5 1.8-4.4 7.2-3.5 9 0.1z"  fill="#fff" /><path d="M-394.7-152c29 61.1 70.2 113.3 102.5 172.1 4.3 7.9 29.4 52.1 18.4 58.1-7.6 4.2-11.7-9.6-3-10.2 8.7-0.6 6.6 13.7-1.6 10.6-7.2-2.7-16.8-47.4-25.2-63.1-22.6-42.1-90-123.5-98.9-164.8-1.1-5 5.4-6.5 7.8-2.7z"  fill="#c2e1ff" /><path d="M-384.6-323.6c3.7 76.7 46.5 199.5 90.5 262.3 26.7 38.1 51.8 74.1 63.4 119.9 1.2 4.7 6.8 16.7 0.2 20-8 4.1-11.8-10.4-2.8-10.7 10.5-0.4 4.4 16.9-3.5 9.9-4.9-4.3-18.4-63.4-24.7-76.1-13.4-27.3-32.5-50.9-49.5-76-34.3-50.7-50.9-109.2-68.2-167.3-6.9-23.1-21.8-57.9-18-82.4 1.2-7.7 11.2-6.3 12.6 0.4z"  fill="#fff500" /><path d=""  fill="#fff" /><path d="M-360.1-119.9c27.6 55.7 74.1 99.6 99.8 156 3 6.6 19.3 37 10.2 42.1-7.5 4.2-11.7-9.4-3.1-10.1 8.6-0.7 6.6 13.4-1.4 10.5-8.7-3.2-18.6-50.6-23.9-60.7-24.4-46.6-62.2-84.7-87.2-131.3-2.8-5.3 1.3-12.8 5.6-6.5z"  fill="#005bbb" /><path d="M-378.7-396.6c-23.4 85.2 11.1 179.2 42 258.5 8 20.6 17.7 40.3 29.5 59 1.2 1.9 12.9 14.3 5.3 16.1-3.7 0.9-5.5-4.5-2.1-6.2 3.4-1.6 6.4 3.2 3.3 5.6-6.3 4.9-18.9-21.8-21.1-25.5-36.7-59.6-73-171.3-78-241.2-1.5-20.5-3.8-52.9 5.7-71.9 4.5-9 16.3-3.3 15.4 5.6z"  fill="#005bbb" /><path d="M-333-13.9c6.2 10.9 46.9 85.4 29.4 92.8-7.7 3.2-12.1-9.2-4.1-11.5 9.3-2.7 10.5 13.4 0.9 11.9-9.7-1.4-10.3-35.3-12.7-43-5.1-16.2-16.4-31.3-20.6-47.3-1.2-4.6 4.7-6.3 7.1-2.9z"  fill="#c2e1ff" /><path d="M-320.2-55.8c9 12.6 94.7 120.6 71.5 133.7-7.5 4.2-11.7-9.4-3.1-10.1 8.6-0.7 6.6 13.4-1.5 10.5-8.6-3.1-13.7-38.9-17.5-47.6-13.5-30.8-35-55.8-54.4-82.9-2.4-3.3 2.3-6.5 5-3.6z"  fill="#c2e1ff" /><path d="M-303.5-163.1c11.8 69.8 58.1 124.1 76.9 191.3 2.3 8.2 16.1 46.3 6.2 50.8-8.5 3.9-11.8-11.3-2.4-11.2 9.4 0 6 15.2-2.5 11.2-10.1-4.7-12.9-54.6-16.5-66.1-15-49.1-46.7-90.3-63.3-138.5-3.6-10.5-10.2-25.3-9.7-36.7 0.3-7 9.4-6.7 11.3-0.8z"  fill="#005bbb" /><path d="M-288-280.1c-8.9 60.4-7.4 128.4 15.1 185.7 15.3 39 65.6 128.2 58.3 169.1-1.9 10.9-18.3 0.7-9.4-5.8 7.6-5.6 14 8.7 4.7 10.6-10.2 2.1-19.4-68.6-22.6-79.1-28.4-89.8-63-120.2-63.6-223.3-0.1-17.9-3.3-43.8 3-60.7 3.2-8.6 14.5-4.7 14.5 3.5z"  fill="#005bbb" /><path d="M-283.1-396.5c-23.8 92.1-35.4 194-2.3 286.1 10.4 29 50.6 83.8 51.1 111 0.2 9-14.5 3.5-8.4-3.1 6.1-6.6 12.9 7.4 3.9 8-8 0.6-23.2-47.2-27.3-55.1-42.9-84.5-59.5-163.8-51.7-259.2 2.3-28.1 5.6-68.7 19.3-93.8 4.9-8.9 16.6-2.8 15.4 6.1z"  fill="#c2e1ff" /><path d="M-263.5-96.6c8.5 27.6 62.9 150.6 50.5 172.8-4.7 8.3-16.5-2.2-8.8-7.8 7.7-5.6 14 8.9 4.7 10.8-12.1 2.4-12.8-42.9-14.4-50.5-8.6-42.9-27.9-80.9-41.4-122.1-2-6.2 6.7-8.8 9.4-3.2z"  fill="#fff500" /><path d="M-246.4-233.6c-30.8 92.9 1.2 151 23.8 238.8 2.5 9.9 20.4 73.3 6.7 74.3-7 0.5-8.9-9.8-2.2-11.8 7.9-2.4 10.9 10.3 2.9 11.7-11.6 2.2-10.2-28.3-11.1-34.2-10-67.2-45.5-129.7-47.7-197.9-0.8-25-0.9-65.3 12.1-87.6 5.2-9 17.1-2.4 15.5 6.7z"  fill="#005bbb" /><path d="M-239.5-396.2c-22.1 101.8-66.3 156.5-37.7 274.2 7.8 32.2 49.4 101.9 48.6 127.2-0.3 9.5-15.5 2.9-8.7-3.8 6.8-6.7 13.2 8.5 3.7 8.7-8.8 0.2-21.5-50.1-25.3-58.6-31.7-72.1-45.7-137.7-35.3-216.7 4.9-37.1 22.2-104.4 39.5-136.8 4.7-8.9 16.4-3 15.2 5.8z"  fill="#fff" /><path d="M-221.7-30.1c2.6 12.5 24.6 108.6 10 109.4-8.4 0.5-8.4-12.8 0-12.4 8.4 0.5 7 13.6-1.3 12.3-10.8-1.8-8.5-36.8-9.5-44.7-2.1-16.8-14.7-49.3-10.2-65.1 1.8-6 9.3-4.7 11 0.5z"  fill="#c2e1ff" /><path d="M-206.6-64.7c-2.8 36.9 2.2 74.5 4.7 111.3 0.4 6.6 7.5 32.5-4.4 32.9-8.6 0.2-8.2-13.4 0.4-12.7 8.6 0.7 6.7 14.2-1.8 12.5-11.1-2.1-7.5-39.1-8.1-47.3-1.9-28.8-12.7-70.9-4.7-99 2.4-8.3 13.3-5.4 13.9 2.3z"  fill="#fff500" /><path d=""  fill="#005bbb" /><path d="M-188.6-396.6c-13 87.3-74.3 141.1-75.5 240-0.3 25.7 22 104.1 21.4 106.1-2.7 8.5-14.7-1.3-6.9-5.6 7.8-4.3 9.8 11 1.1 8.8-9.8-2.5-17.6-43.8-20.2-53.2-38.3-138.8 37.3-187.6 62.7-290.6 2.4-9.9 18.7-23.7 17.4-5.5z"  fill="#005bbb" /><path d="M-164.4-22.1c-8.3 21.1-13 43.4-15.7 65.8-0.9 7.8 2 30.3-5.2 35.1-9.1 6-15.6-10.8-4.8-12.5 10.8-1.7 9.6 16.4-0.9 13.4-16-4.6 1.5-101.1 12.2-111.1 7.1-6.7 16.2 1.1 14.4 9.3z"  fill="#c2e1ff" /><path d="M-151.1-366.8c-20.9 91.1-97.1 158.2-90.9 257.2 1.9 30.3 42.1 160.6 32.5 177-5.8 9.8-17.9-5.9-7-9 9.4-2.7 10.4 13.4 0.8 11.9-10.9-1.7-12.7-59.6-14.8-70-12.2-60.9-33.8-117.3-20.5-180.2 11.4-53.7 41.9-96.5 65.8-144.8 4.9-9.9 13.3-51.4 25.3-52.6 6.2-0.6 9.6 4.9 8.8 10.5z"  fill="#fff" /><path d="M-136.9-141.6c-28.8 57.1-51.9 104.6-54.6 169.9-0.4 8.9 5.3 48.4-4.9 51.7-9.9 3.2-11.6-14-1.2-12.8 8.9 1.1 6.4 15-2.3 12.9-13-3.1-5.5-57.7-5-68 2.4-50.7 17.6-125.1 52.2-164.4 7.8-8.8 19.4 1 15.8 10.7z"  fill="#c2e1ff" /><path d="M-136.5-397c-15.3 97.9-84.1 161.8-98.4 252.9-3.7 23.5-2.6 47.1 1.4 70.5 1.4 8 9.4 26.8 6.1 34.1-4.2 9.3-16.5-3.5-7.1-7.3 9.4-3.9 9.6 13.9 0.1 10.2-8.9-3.5-10.3-34.6-11.9-43-19-104.2 33.7-161.3 73-249.6 6.9-15.6 16.5-65.8 22.9-74 5.3-6.8 14.3-1.3 13.9 6.2z"  fill="#005bbb" /><path d="M-109.7 21.7c-4.5 10.1-15.7 58.7-26.1 59.7-10.5 1-11.2-15.7-0.7-15.6 12.4 0.1 7.7 20.2-3.4 14.8-13.3-6.4 7.3-62.8 15.9-69.8 7.9-6.4 16.8 2.4 14.3 10.9z"  fill="#fff500" /><path d="M-96.4-393.5c-15.5 48.6-25.8 98.4-46.7 145.1-23.8 53-60.6 102.5-67.5 161.5-4 33.8 1.1 68.1 4.2 101.8 0.4 4.8 7.3 32.8-6.2 28.7-7-2.2-5-13 2.4-12.4 7.3 0.6 7.6 11.6 0.4 12.6-12.8 1.8-10.1-39.2-10.8-46.5-13.6-141.9 17.9-151.7 69.2-272.9 16.9-39.9 24.6-82.2 38.7-122.9 3.7-10.7 18.2-5.7 16.3 5z"  fill="#fff" /><path d=""  fill="#fff500" /><path d="M-69.5-108.6c-8.3 50.8-28.1 95-48.3 141.9-4.9 11.3-7.8 37.9-16.5 45.9-9.1 8.4-19.5-9.3-7.7-13.1 13.8-4.5 12.1 20.7-0.9 14.4-16.6-7.9 12.9-65.7 18-76.8 11.5-25.5 23.2-50.7 31-77.5 3.2-11.1 3.4-32 10.4-41 5.4-6.8 14.4-1.2 14 6.2z"  fill="#fff" /><path d="M-77.6-395.3c-22.9 50.8-29.8 107.1-49.4 159.2-17.7 47.3-47.6 89.2-63.8 137-7 20.5-10.1 41.9-10.8 63.5-0.2 5.2 4.1 33.2-9.3 28.2-10-3.7-0.3-18.5 7.2-11 6.4 6.5-4.4 16-10.1 8.9-4.9-6.1-1.8-21.1-1.7-28.5 0.7-67.3 30.9-118 59.3-176.9 20.8-43 47.1-167.9 62.7-189.2 6.6-9 18.5-0.7 15.9 8.8z"  fill="#005bbb" /><path d="M-41.4-378.7c-41.4 59-31.8 137.5-47.7 204.7-14 59.1-48.4 105.7-70.8 160.9-4.4 10.9-11.9 66-22.5 67.6-11.8 1.8-10.4-18 1-14.6 9.8 2.9 4.4 18.1-4.9 14.2-17.8-7.4 12.1-80.7 17.4-92.9 11.1-24.9 25.9-47.9 38.2-72.3 45.8-91.7 26.6-184.6 65-264.9 11.5-24 32.6-21 24.3-2.7z"  fill="#fff500" /><path d="M-28.6-307.8c-14.8 67.8 6.4 194.6 49 249.8 23.5 30.4 107.1 90 102.7 131.9-1.1 10.3-17 1.9-9.2-4.9 6.7-5.8 13.7 7.2 5.2 9.6-7.6 2.1-22.1-46.5-27.6-54.4-42-62.5-95.1-78-117.4-159.9-13.3-48.8-22-103.5-19.9-154.2 1.2-30 17.8-34.4 17.2-17.9z"  fill="#005bbb" /><path d="M-17.3-152.2c7.9 38.5 21.9 74.4 48.6 103.8 23.9 26.3 98.7 82.3 93.9 122.6-1.1 8.9-15.2 4-10.5-3.7 4.7-7.7 15.5 2.7 8 7.7-9.7 6.4-17.4-39-32.1-59.6-31.9-44.8-81.1-71-104.1-123.2-5.7-13-15-32.1-14.7-46.5 0.1-6.8 8.9-6.8 10.9-1.1z"  fill="#fff" /><path d="M-1-317.9c-22.9 68 7.6 167.8 51.3 221.8 35.9 44.4 80.8 75.5 95.8 133.6 1.9 7.2 13.2 43-1.5 42.6-7.8-0.2-8.7-11.9-1-13.3 7.7-1.4 11.1 9.7 3.9 12.8-13.6 5.8-4.1-37.9-27-83.7-39.9-79.7-97.9-84.5-128-193.8-9.1-33.1-26.5-93.3-9-126 4.8-9 16.7-3 15.5 6z"  fill="#fff500" /><path d=""  fill="#fff500" /><path d="M22.2-151.8c29.6 72.6 106.6 110.5 125.7 188.8 2 8.2 11 36 2.2 42-8.8 6.2-15.7-10.4-5.1-12.2 12.4-2.2 8 19.3-2.5 12.3-1.3-0.8-10.9-66.1-20.7-85.9-21.4-43.3-62.3-70.7-89.4-109.8-5.3-7.6-19.1-24.1-18.6-33.6 0.3-4.8 6.1-5.1 8.4-1.6z"  fill="#005bbb" /><path d="M39-288.7c-5.1 48.9 13 103 35.9 145.5 37.4 69.4 85.7 108.7 90 193.7 0.4 7 3.3 22-1.7 27.8-6.5 7.4-17.6-3.5-10.4-10.2 8.5-7.8 18.1 8.7 7.1 12.3-15.2 4.9-8.3-27.6-8.4-33.4-0.4-23.7-4.3-47.4-12-69.8-22.3-64.3-76.1-111-98.4-176.3-8.3-24.4-23.7-65.9-16.1-91.9 2.4-8.4 13.4-5.5 14 2.3z"  fill="#fff" /><path d="M51.8-266.6c1.6 42.1 15.9 85.3 35.3 122.5 35.6 68.2 77.7 109.4 80.8 191.5 0.3 7.6 3.3 25-2.2 31.2-7.9 8.7-19.1-7.2-8.3-11.8 9.2-3.9 14.6 11 5 13.9-15.3 4.6-8-27.3-8-33.1 0.2-25.6-3.2-51.6-11-76-19.6-61.2-67.9-108-88.8-169.3-6.5-19.1-18.6-48.9-15.4-69.3 1.2-7.7 11.2-6.3 12.6 0.4z"  fill="#005bbb" /><path d="M60.4-31.4c16.6 14.9 83.4 82.9 70.4 107.4-3.7 7.1-14.6 0.6-10.1-6.1 5.2-7.8 16 3.5 7.9 8.4-9.3 5.7-21.2-46.9-25.8-55-4.9-8.6-45.6-52.9-45.6-53.1-0.2-1.9 1.9-2.6 3.2-1.6z"  fill="#fff500" /><path d="M19.4-389.5c-78.5 62.4-58.6 173.8-41 260.5 4.7 23.4 11.7 46.3 23.2 67.2 0.7 1.3 16 20.7 6.6 20-3.6-0.3-3.8-5.7-0.2-6.1 3.6-0.5 4.9 4.7 1.5 6-6.8 2.5-18.4-22.9-20.8-27.4-32.3-59.3-39.1-140.9-39.2-207.4 0-30.3 4.8-60.8 19.5-87.7 7.3-13.3 23.8-41.7 39.8-45.6 12.8-3.1 18.2 12 10.6 20.5z"  fill="#fff500" /><path d="M34.4-389.5c-78.2 60.7-64.6 159.4-39.6 244.8 7.9 26.9 19.8 52.1 38 73.6 1 1.1 18.5 16.6 11.3 17.2-10.2 1 9.7-5.4 0.9-0.3-3.1 1.8-6.2-3.8-8.8-6.3-62.6-61.3-99.3-215.4-59.1-295.7 8.9-17.8 25.7-44.1 44.3-53.2 13.2-6.5 21.9 10.4 13 19.9z"  fill="#fff500" /><path d="M105.6-232.1c15.4 96.1 77.7 156.1 76 260-0.2 11.3 2.8 42.7-5.6 50.9-8.8 8.5-19.5-8.8-8-12.9 9.9-3.5 14.5 12.5 4.3 14.9-16.2 3.8-6.6-28-6-34.1 2.7-29.5 2.9-59.8-2.4-89-9.4-52.7-41.7-96.9-58.6-147.1-4.1-12-11.7-29-11-41.9 0.4-7 9.5-6.7 11.3-0.8z"  fill="#005bbb" /><path d="M116.2-56.8c23.5 30.4 38.2 66.1 42.4 104.3 0.8 7 6.5 30.3-4 32.9-10.9 2.6-11.2-16-0.3-13.8 11 2.2 3.5 19.3-5.6 12.6-8.1-5.9-3-37.8-4.4-47.5-3-21.5-9.4-42.6-19.3-62-2.6-5-16.3-20.3-14.3-25.8 0.9-2.5 3.9-2.5 5.5-0.7z"  fill="#fff500" /><path d="M135.8-353.3c-17.9 36.8-21.6 77-15.5 117.1 18.2 119.5 81.2 142.9 65.8 286.3-0.8 7.5 0.7 30.5-10.4 31.5-12.5 1.1-9.9-19.5 1.9-15.3 11.8 4.2 0.8 21.8-8.2 13-8.3-8.2 6.5-74.3 6-100.6-2-88.4-65.3-159.3-71.1-247.9-1.8-26.9-1.6-70.7 15.6-93.4 6.8-9 18.7-0.4 15.9 9.3z"  fill="#c2e1ff" /><path d="M145.8-210.5c29.6 108 72.8 117.9 52.9 244.9-1.5 9.7-2 42.5-12.4 46.6-10.3 4-15.8-12.6-5-15.5 10.7-2.9 14.3 14.2 3.3 15.9-16.4 2.6-5.7-25.3-4.5-31.1 7.1-36.4 14.3-75.1 10.3-112.3-5.1-47.6-33.3-87.7-49.6-131.8-8.6-23.3 3.5-20 5-16.7z"  fill="#fff" /><path d="M160.2-253.1c9.3 62 53.6 105.2 72.5 162.8 14.8 45.2 0.7 90.2-12.2 133.9-2.5 8.5-5.4 38.8-18.1 38.4-10-0.3-11.1-15.2-1.3-17.1 11.5-2.1 13.9 16.2 2.2 17-17.7 1.3-3.7-27.9-1.8-34.1 11.5-38.6 28.1-80.3 23.5-121.2-5.7-51-44.8-90.9-63.6-137.2-4.1-10-15.6-32.2-12.4-43 1.8-6.1 9.4-4.7 11.2 0.5z"  fill="#fff" /><path d="M174.9-292.2c-2.1 95.6 66.8 123.3 98.7 197.7 18.3 42.7 4.5 85.5-11.8 126.3-4.2 10.5-12.2 47.7-24.1 50.5-16.2 3.8-11.9-24.9 2.5-16.5 14.4 8.4-8.5 26.3-13.1 10.2-4.2-14.4 45.1-107.2 41.6-146.4-5.5-62.7-69.3-102.6-92.7-158.5-7.2-17.2-18.3-45.5-14.4-64.5 1.7-8 12.1-6 13.3 1.2z"  fill="#fff500" /><path d=""  fill="#c2e1ff" /><path d="M189.1-393.8c-39.5 64-44 136.5-12.8 204.9 18.3 40.2 48.4 75.9 55.3 120.7 1.9 12.6 5.1 82.3-14.3 82.8-13.1 0.3-9-21.1 3.1-15.8 12 5.2-0.7 22.9-9.4 13.1-3-3.3 8.8-62.3 8.4-74.9-2.5-75.6-75.4-132.2-78.2-224.9-1-34.8 6.8-91.1 32.1-117.7 8.4-8.8 19.9 1.9 15.8 11.8z"  fill="#fff" /><path d="M211.7-198.9c62.2 93.9 127.3 96.4 71.5 228.4-4.5 10.7-14.1 49.7-25.9 52.4-16.3 3.7-11.8-25 2.6-16.5 14.4 8.5-8.6 26.3-13.3 10.2-3.7-13 45.3-105.3 43.8-141.2-2.3-56-53.2-88.5-83.9-129.5-2.5-3.4 2.4-6.7 5.2-3.8z"  fill="#c2e1ff" /><path d="M225.2-221.9c60.4 91.7 177.3 95.1 108.5 244.2-5.3 11.5-18.8 57.1-31.3 60-16.3 3.7-11.8-24.9 2.6-16.5 14.4 8.5-8.6 26.2-13.2 10.2-5.4-18.7 54.5-105.4 46.7-154.6-10-63.3-74.8-88.4-112.5-132.6-2.3-2.7-7.8-18-0.8-10.7z"  fill="#fff" /><path d="M243.6-43.3c-0.5 16.9-22.7 131.8-41.2 124.6-11-4.2-3.4-21.2 7-15.7 10.5 5.4 1.1 21.4-8.7 14.9-11.1-7.4 5.7-38.7 8.4-47.6 4.9-15.7 15-71.4 21.2-80.9 4.4-6.7 13.1-2.3 13.3 4.7z"  fill="#fff500" /><path d="M175.6-393.3c-39 62.4-46 130.4-21.5 199.9 5.4 15.2 47 97.3 44.3 104.7-3.3 8.9-15.6-2.1-7-6.3 7.2-3.6 10.5 9.4 2.4 9.6-8.6 0.2-16.3-35-19.5-41.9-36.4-78.8-68.5-157.1-32.5-243 29.3-69.7 34.9-25.7 33.8-23z"  fill="#fff500" /><path d="M270.8-346.8c-8.5 76.3 56.3 106.7 103.6 151.2 49.3 46.3 75.4 116.4 53.3 182.3-5 14.9-19 56.8-35.1 62.6-17.8 6.5-16.8-26.4 0.5-18.8 17.4 7.5-6 30.7-13.4 13.3-5.7-13.3 23.6-46 29.2-58.6 11.9-26.7 16.3-55.9 11.2-84.7-18.1-102.7-98-109.6-144.2-180.1-11.2-17-25-48.4-19.1-69.3 2.4-8.4 13.3-5.5 14 2.1z"  fill="#fff" /><path d="M285.3-379.1c-10.2 32.5-7.7 68.6 10.8 97.7 43.8 68.9 168.4 105.1 144.4 243.8-2.4 14-9.6 52.8-24.2 59.2-16.8 7.3-17.8-24.5-0.6-18.3 17.2 6.2-3.9 30-12.1 13.7-5.2-10.4 12.3-31.6 16-41.4 9.6-25.5 12-53.1 6.8-79.9-21.4-111.9-114.1-118.9-150-197.3-8.5-18.5-21-67-5.4-84.9 6-6.9 15.2-0.5 14.3 7.4z"  fill="#c2e1ff" /><path d=""  fill="#c2e1ff" /><path d="M313 69.4c-9 20.9-27.2 6.9-17.7-2.3 14.2-13.6 22.1 21.1 3.5 14.9-26.4-8.7 22.1-42 14.2-12.6z"  fill="#c2e1ff" /><path d="M320.5-127.8c49.9 56 24.7 119.1-2.9 178.3-3.7 7.8-8.8 32.8-20.5 31.7-16.6-1.6-3.3-27.4 7.6-14.8 9.3 10.8-11.4 22-15.4 8.3-4-14 38.1-88.3 43.6-109.4 4.8-18.6 5.4-38.1 0-56.6-3.8-13-12.1-22.5-17.4-34.5-1.4-3.2 2.7-5.2 5-3z"  fill="#fff" /><path d="M336.3-398.3c-6.3 65.9 54.4 95.8 90.7 139.5 44.9 54.1 76.9 139.2 69.3 209.8-1 9.7-1.9 40.1-13.6 43.3-9.8 2.7-15.4-11.4-6.5-16.1 10.5-5.6 18.4 11.5 7.4 15.8-5.7 2.3-12-2-12-8.1 0-7.9 5.4-17.1 7.1-24.9 8.7-36.9 5.2-74.6-6.1-110.4-13.1-41.1-31-84.2-59.4-117.2-24-28-57.3-47.7-76.1-80.2-7.7-13.4-18.4-37.2-14.5-53.1 2-8.2 12.8-5.8 13.7 1.6z"  fill="#fff500" /><path d="M346.5-245.3c85.8 70.3 136.8 173.6 72.7 277.5-6.7 10.9-24.9 50.5-38.7 51.2-18.6 0.9-8.1-29.6 5.9-17.6 14.1 12.1-14.5 27.1-16.4 8.7-1.7-15.9 25.6-43.2 33.8-55.9 20.2-31.3 33.8-65.6 32-103.4-2.2-45.2-24-89.8-53.8-123.2-1.6-1.8-44.9-43.2-35.5-37.3z"  fill="#c2e1ff" /><path d="M361.4-141.8c53.8 60.5 30.3 129.4-4.1 192.1-4.4 8.1-11.5 34-23.6 32.2-17-2.5-2-28.4 8.6-14.9 9.1 11.5-12.9 22.1-16.2 7.9-3.5-14.6 44.7-88.9 50.7-111.9 6-22.5 5.6-46.1-2-68.1-4.4-12.7-13-22.4-18.3-34.3-1.4-3.2 2.7-5.1 4.9-3z"  fill="#005bbb" /><path d="M381-10.8c-4.6 14.4-39.6 100-55 92.3-11.2-5.6-1.5-22.7 9.1-15.9 10.5 6.7-1 22.7-10.8 14.8-7.4-6 31.4-91.3 42.6-101.1 7.4-6.5 16.2 1.6 14.1 9.9z"  fill="#c2e1ff" /><path d="M406.5-400.1c20.3 28.7 55.7 43 81 66.8 28.9 27.2 46.5 63.5 74.2 91.6 9.9 10.1 20.9 19 32.3 27.2 2.1 1.5 6.6 2.7 5.8 5.2 0 0.1-0.3 0.5-0.4 0.5-2.8 2.3-11.2-6.7-13.5-8.4-38.8-27.6-61.1-64.3-90.6-100.4-23.5-28.7-54.8-45.1-82.4-68.8-19.1-16.4-6.9-14.1-6.4-13.7z"  fill="#005bbb" /><path d=""  fill="#c2e1ff" /><path d="M415.4-272.6c73.2 73.4 110 213.3 54.1 305.4-7.8 12.7-26.8 47.8-41.8 51.4-14.3 3.4-18.5-19.4-3.9-21.3 14.6-1.9 16.3 21.3 1.6 21.6-30.9 0.6 24.2-58.6 29.1-65.9 21.5-32.7 31.7-71.3 29.8-110.5-2.7-56.3-29.1-121.2-63-166-0.6-0.8-14.2-22-5.9-14.7z"  fill="#005bbb" /><path d=""  fill="#005bbb" /><path d="M476.9-399.8c40.7 33.7 64 73.8 97 113.9 2.7 3.3 26.6 26.9 25.1 27.9-5.1 3 4.9-3.6 0.1-0.1-12.8 9.4-70-80.6-76.4-89.4-13.5-18.5-55.3-58.4-45.8-52.3z"  fill="#fff" /><path d="M512.7-400.1c29 28.6 45.8 64.1 69.1 96.8 3 4.2 19.6 19.2 18.8 23.7-0.6 3.3-5.7 1.2-3.8-1.5 1.9-2.7 5.6 1.3 2.8 3-10.4 6.1-48.6-60.6-53.1-68.1-1.1-1.9-46.9-64.7-33.8-53.9z"  fill="#005bbb" /><path d="M469-365.1c40.8 29.3 62 72.1 95.8 107.8 8.3 8.8 17.4 16.7 27.2 23.8 2.6 1.9 8.4 3.1 7.4 6.1 0 0.1-0.3 0.4-0.3 0.5-2.6 2.2-6.2-3.1-9.1-5.1-33.7-22.9-55-53.5-79.1-85.6-12.8-17.1-27.3-31.6-43.6-45.3-1.4-1.2 0.2-3.1 1.7-2.2z"  fill="#fff500" /><path d="M484.1-296.8c33.1 39.4 57.7 84.2 92 123.1 4.2 4.7 30.8 31.1 25.1 37.1-3.5 3.6-8.9-2.1-5.1-5.3 3.8-3.2 8.6 3.1 4.5 5.9-5 3.4-31.2-37.5-36-42.9-31.9-36.2-57.9-74.6-85.1-114.3-2.2-3.2 2-6.2 4.6-3.6z"  fill="#005bbb" /><path d="M501.4-104.7c8.9 51.4-2.9 105.3-32.1 148.3-6.9 10.1-27.4 46.7-42.2 39.9-11.5-5.3-5.5-23.3 6.8-20.6 14.5 3.1 8.3 25.7-5.7 21.1-22.8-7.6 36.3-65.9 47.8-92.8 14.1-32.9 9.5-62.1 13.5-95.9 0.9-7.3 10.4-6.4 11.9 0z"  fill="#c2e1ff" /><path d="M517.4-0.9c-4.9 15.9-40.5 96.4-64.1 84.2-13.5-7-1.4-27.7 11.4-19.3 12.7 8.4-1.7 27.7-13.4 17.9-14.3-11.9 15.4-33.9 21.8-42 11.1-13.9 17.6-39.3 30.1-50.5 7.3-6.5 16.1 1.4 14.2 9.7z"  fill="#005bbb" /><path d="M538-400.2c8 9.8 66.6 101.3 62.4 104.4-3 2.2-6.2-2.7-3-4.5 3.2-1.9 5.9 3.4 2.5 4.8-5.3 2.3-14.1-14.2-16.3-17.3-16-22.7-26.8-48.4-41.9-71.6-0.2-0.4-12.5-24.9-3.7-15.8z"  fill="#fff500" /><path d="M544.8 60.9c-3.9 6.4-29.5 41.2-33.7 14.5-1.7-10.8 12.3-17.1 19.3-8.7 8.2 9.8-5 23.6-15.1 15.7-25.8-19.9 47.8-56.2 29.5-21.5z"  fill="#c2e1ff" /><path d="M554.6-128.5c23.4 58.7 14.2 134.1-19.9 186.8-5.2 8.1-15.1 27.7-26.9 26-17.5-2.5-7.3-30 7.6-20.4 17.4 11.2-11.9 32.2-16.9 12-1.1-4.4 36.7-57.8 41.8-71.5 9.4-25.6 13.6-53.5 13-80.7-0.3-15.5-10.4-37.2-8.1-51.5 0.9-5.3 7.4-5 9.4-0.7z"  fill="#005bbb" /><path d="M564.9-228.4c3.5 3.4 35.7 28.7 34.6 30-1.6 2 1.8-1.4-0.2 0.2-2.5 1.9-9.6-5.9-10.7-6.7-8.9-6.6-32.8-29.9-23.7-23.5z"  fill="#005bbb" /><path d=""  fill="#fff" /><path d=""  fill="#005bbb" /><path d="M606.5 17.9c-2.1 12.2-11.5 69.3-30.4 64.8-13-3-7.1-23.2 5.4-18.8 12.5 4.4 4.5 23.8-7.4 18.1-12-5.8 16.8-71.2 21.5-73.2 6.4-2.6 11.4 3 10.9 9.1z"  fill="#005bbb" /><path d=""  fill="#005bbb" /><path d=""  fill="#005bbb" /><path d=""  fill="#fff" /><path d=""  fill="#005bbb" /><path d=""  fill="#fff" /><path d=""  fill="#c2e1ff" /></svg>