<svg width="1200" height="675" viewBox="-500 -500 1200 675" xmlns="http://www.w3.org/2000/svg"><path d="M-500-500h1200v675h-1200z" fill="#000"/><path d=""  fill="#fff" /><path d=""  fill="#fff500" /><path d=""  fill="#fff" /><path d=""  fill="#fff500" /><path d=""  fill="#005bbb" /><path d=""  fill="#fff" /><path d=""  fill="#fff500" /><path d="M-396-42.8c18.4 33.1 32.5 64.9 28.6 103.8-0.5 4.7 0 13.6-3.9 17.1-6.5 5.8-15-4.9-8-9.9 8.3-5.9 14.9 9.6 4.9 11.4-11.9 2.2-3-51.6-4.4-60.9-3.2-22.3-17.3-38.6-22.8-59.2-1-3.6 3.7-5 5.6-2.3z"  fill="#fff500" /><path d="M-395.8-62.7c16.3 33.7 54 101.6 30.7 139.5-5.4 8.8-17.8-3.1-9.2-8.8 8.7-5.7 14.9 10.4 4.6 11.9-12.5 1.9-0.5-52.7-2.8-68.4-4-27-23.5-46.9-29.4-71.9-0.9-3.9 4.1-5.2 6.1-2.3z"  fill="#005bbb" /><path d=""  fill="#c2e1ff" /><path d=""  fill="#c2e1ff" /><path d="M-374.3 57.4c-0.1 4.8 0.7 27.6-10.6 21-6.2-3.6-1.8-13.4 5.1-11.2 8 2.6 3.3 14.9-4.5 11.5-16.7-7.5 9.1-39.8 10-21.3z"  fill="#c2e1ff" /><path d=""  fill="#fff" /><path d="M-388.1-392.4c-13.7 15.3-26.1-4.9-13.7-10.2 18-7.6 13 27.5-2.1 15.1-20.5-16.6 32.4-28.3 15.8-4.9z"  fill="#fff500" /><path d="M-343.5-81.2c15 46 25.1 87.5 10.9 135.3-2.1 7.1-4 18.3-8.9 24-7.5 8.8-19-6.5-8.5-11.3 10.5-4.8 14.5 13.8 3 13.8-14.8 0 10.2-60.8 11.1-79.7 1.4-29.3-13.2-53-15.3-80.6-0.4-4.8 5.9-5.4 7.7-1.5z"  fill="#fff500" /><path d="M-372.3-393.7c-5.1 7.1-20.1 37.1-31.6 27.5-8.8-7.4 3.6-20.7 11.6-12.3 8 8.3-5.8 20.1-12.8 11-6.8-8.8 18-42.1 28.2-39.2 6.1 1.7 7.3 8.1 4.6 13z"  fill="#c2e1ff" /><path d="M-336.1-396.6c-7.4 24.5-54.1 158.1-54.7 169.5-2 35.8-3.6 71.6-4.7 107.4-0.7 23.9-0.8 50.3 0.7 74.5 0.1 1.4 6.9 16.5-0.5 15-4.8-1-1.5-8.5 2.4-5.6 4.2 3.1-2.7 8.3-4.5 4-10.4-24.5-3.8-64.2-4.2-87.9-0.6-37.5-2.3-75-2.6-112.5-0.1-18.9 18-47.9 24-66.3 6.7-20.5 20.6-92.7 32.7-104.9 5.3-5.4 12.5 0.4 11.4 6.8z"  fill="#fff" /><path d="M-307.7-206.4c-12.7 23.6-24.2 48-25.4 75.2-3 68.1 33.1 109.1 8.3 183.4-2.4 7.3-6.5 30.2-17.2 28.7-11.6-1.7-4.7-20 5.1-13.6 9.9 6.4-4.1 20.1-10.4 10.2-5.9-9.3 15.7-48.7 18.3-60.6 12.3-58.1-21-110.6-14.1-168 2.3-19.4 9.4-49 22.8-64 6.3-7.1 15.6 0.9 12.6 8.7z"  fill="#005bbb" /><path d="M-297.9-399c3.4 44.2 11.6 88.5-1.6 131.9-14.9 48.9-52.2 90.1-48.6 143.7 2.8 41.8 44.8 121.9 21.4 160.3-6.3 10.4-19-6.5-7.3-9.7 10-2.7 10.8 14.5 0.6 12.7-10.5-1.8 0.4-47.5-0.1-56.7-2.5-46.4-29.4-87.9-25.2-135.1 4.5-51.6 41.6-91.6 52.3-141.4 8-37.4-6.6-73.9-1.5-106.1 1-6.1 8.9-5 10 0.4z"  fill="#fff" /><path d="M-285.9 48.6c-4 8-13.8 36.2-25.4 32.9-10.5-3-4.9-19.3 5.2-15.2 11.8 4.8-0.2 22.3-8.9 12.9-7.1-7.6 14.3-45.5 25-41.4 4.6 1.8 5.7 6.6 4.1 10.8z"  fill="#c2e1ff" /><path d="M-233.8-399.8c22.1 53.4 33.1 112 12.7 167.7-14 38.1-40.6 70.8-49.9 110.7-2.1 9-2.1 61.8-11 61.1-10.3-0.7-2.5-16.8 4.5-9.2 5.9 6.5-6.7 13.8-9.4 5.4-2.3-7.3-0.1-18.5 0.2-26.1 2.2-66.6 45.2-111.3 60.9-173 16.6-65.6-17.1-116.6-15-135.6 0.4-4 5.4-4 7-1z"  fill="#fff" /><path d=""  fill="#005bbb" /><path d="M-255.9-366.1c37 133.3-33.1 136.3-50 232.6-11.4 64.9 18 113.9-8.5 183.6-2.7 7.2-8.5 31.9-19.4 29.9-11.9-2.2-4-20.6 5.7-13.7 9.8 7-5 20.4-10.9 10-2.1-3.7 26.4-65.1 27.5-102.5 1.4-45-14.5-88.8-1.7-133.3 14.4-50 53.2-88.1 56.3-142.1 1.2-21.9-7.2-42.2-7.4-63.4 0-5.2 6.7-5.4 8.4-1.1z"  fill="#005bbb" /><path d="M-242.6-11.1c-3.7 14.3-31.4 98.6-51.1 92.3-10.6-3.4-4.3-19.8 5.9-15.3 10.2 4.5 2.2 20.2-7.5 14.6-12.3-7.2 9.8-31 13.8-37.8 8.3-14.1 18.6-51.2 27.6-60.4 5.2-5.4 12.4 0.2 11.3 6.6z"  fill="#005bbb" /><path d="M-231.8-262.3c-12.2 58.6-59.7 101.4-60.8 163.4-0.5 28.6 4.1 57 1.3 85.7-1.3 14.1-17.1 98.7-37.6 94.2-12-2.6-3.5-21.1 6.3-13.7 9.8 7.4-5.7 20.6-11.5 9.8-0.8-1.5 24.4-62.2 27.2-73.1 12.4-49.9-4.4-101.2 8.4-150.8 2.2-8.6 52.6-118.5 55.5-121.6 4.9-5.4 12.1-0.1 11.2 6.1z"  fill="#005bbb" /><path d="M-221.1-100.1c-10.2 58.6-15.5 110.5-47.2 162.7-3.7 6.1-9.6 21.9-19.2 18.8-12.4-4.1-1.4-22.7 8.2-13.9 9.5 8.9-8.3 21.2-13.2 9.2-4.6-11.2 23.5-43.8 28.8-54.6 25.4-50.6 18.3-95.9 30.7-125.5 2.9-7 12.1-3.4 11.9 3.4z"  fill="#005bbb" /><path d="M-187.5-399.5c42 130.6-7.3 170.6-33.4 284.9-3.7 16.4-10.7 98.5-19.1 105-8.5 6.5-16-9.6-5.6-11.9 10.4-2.3 10.5 15.4 0 13.1-9.6-2.1 11-104.7 14.1-118.3 9.9-43.1 31.2-82.4 41.4-125.3 7.4-31.7 8.3-64.4 4.4-96.7-1.3-10.9-13.7-42.3-9.4-51.4 1.7-3.6 6.3-2.6 7.6 0.7z"  fill="#fff" /><path d="M-199.6-88.4c-5.4 52.4-14.7 98.8-41.4 145-4 6.9-11.7 28.2-22.4 24.7-12.4-3.9-1.6-22.6 8-13.8 8.2 7.5-4.3 19.8-11.7 11.5-8.3-9.4 19-41.5 23.9-50.7 32.3-60.7 19.1-82.6 32.2-119.3 2.4-6.8 11.3-3.9 11.4 2.6z"  fill="#fff500" /><path d="M-188.1-14.1c-3.7 14.5-32.1 100.4-50.6 95.3-10.5-2.9-5.1-19.1 5-15.1 10.1 4 3 19.5-6.6 14.5-12.4-6.5 7.8-29.6 11.5-36.4 8.2-14.8 20.1-55.3 29.4-64.9 5.2-5.4 12.4 0.2 11.3 6.6z"  fill="#005bbb" /><path d="M-177.4-155.8c-9.4 46-5.9 93.7-17.2 139.2-3.7 14.8-32.7 103.3-51.9 97.6-12.3-3.5-2.2-22.2 7.5-13.8 9.7 8.4-7.4 21-12.6 9.4-0.8-1.9 33.8-67.9 38.2-79.4 18.6-48.3 8.7-123 24-156.8 3.2-7.1 12.4-3.1 12 3.8z"  fill="#005bbb" /><path d="M-167.7-341.4c8.6 85.8-25.5 145.1-42.1 225.2-12.4 59.8-13.7 115.3-45.1 169.9-4.5 7.8-9.7 20.7-16.9 26.3-10.3 8-19.6-11.6-6.8-14.5 12.7-2.9 12.9 18.8 0.1 16-17.6-3.7 8.6-33.8 12.2-39.9 17.4-29.4 29.5-60.6 35-94.4 4.8-29.8 6.7-59.9 14.1-89.3 13.1-51.8 36.3-99.7 39.8-153.8 0.9-14.7-2.7-31.6-0.3-45.9 1-6.1 9-5 10 0.4z"  fill="#fff500" /><path d="M-155 29.3c-4.2 8.8-22.1 58-34.8 50.8-9-5.1-0.1-18.9 8.3-12.8 8.4 6.1-1.9 18.8-9.6 11.9-8.2-7.4 19.9-61.7 30-60.7 5.7 0.5 7.8 6.1 6.1 10.8z"  fill="#fff500" /><path d="M-139.5-398.9c7.3 96-19.6 174.5-23.2 266.3-0.7 17.7 7 150.2-21.1 147.3-11.4-1.2-5.4-19.2 4.5-13.4 9.9 5.9-3.1 19.8-9.7 10.3-4.7-6.9 5.1-21.9 7.2-28.7 5.8-19.2 8.2-39 8.5-59 0.5-30.2-1.6-60.2 1.4-90.3 7.3-72.5 24.2-141.4 22.7-215-0.1-5.3-2.4-14.3-0.2-19.3 2.4-5.2 9-3 9.9 1.8z"  fill="#c2e1ff" /><path d="M-134-241.2c-18.6 133.1 34.4 171.5-30.1 295.4-3.6 6.9-9.6 28.6-19.9 26.6-11.9-2.3-3.9-20.7 5.9-13.7 11.5 8.3-9.3 21.5-11.9 7.6-2.1-11.2 41.5-85.8 46.2-108.1 10.4-49.4-8.7-99.7-7.6-149.5 0.4-18.2-1-44.2 5.7-61.3 2.7-6.9 11.8-3.6 11.7 3z"  fill="#005bbb" /><path d="M-123.1-286.3c-4.5 38.1-11.6 76.2-10.4 114.8 3.1 97.8 37.7 118.9-15.6 218.1-4.1 7.7-12.4 33-21.8 34.2-10.3 1.4-11.5-14.9-1.1-15.2 10.4-0.2 9.8 16.1-0.5 15.2-15.5-1.3 0.3-23.8 3-29 16.3-31 35.8-61.9 40.3-97.3 6.2-49.9-16.1-99.3-15.3-149.6 0.3-17.2 2-83.2 10.5-95.3 3.8-5.5 10.9-1.6 10.9 4.1z"  fill="#fff" /><path d=""  fill="#005bbb" /><path d="M-100.5 27.5c-6 9.3-29.7 56.5-41.2 53.6-10.4-2.6-5.4-18.7 4.7-15 11.7 4.3 0.5 21.8-8.3 13-8.7-8.7 25-58.2 34.1-63.3 7.9-4.4 14.3 4.7 10.7 11.7z"  fill="#fff500" /><path d=""  fill="#c2e1ff" /><path d="M-81.8-398.2c-5.8 73.9-31.3 158.1-7.6 230.6 4.5 13.7 63.4 131.7 34.1 134.8-9.9 1.1-8.1-15.4 1.3-12.2 9.4 3.2 0.9 17.4-6.3 10.5-5.9-5.7 0.1-38.1-2.2-48-11.4-50.6-44.3-90.1-46.6-144-1.3-29.4 7.4-149 16-174.1 2.3-6.8 11.1-4 11.3 2.4z"  fill="#005bbb" /><path d="M-71.2-179.4c34.6 94.2 94.3 124.8 5.7 221.9-7.3 8-28.2 40.1-38.9 39.6-15.7-0.7-4.5-25.5 6.4-14.3 10.9 11.3-14.3 21.6-14.4 6-0.2-13.5 71.3-79 79.3-114.4 11.3-49.9-24.4-90.7-43.5-133.2-2.3-5 1.9-11.9 5.4-5.6z"  fill="#005bbb" /><path d="M-59.5-398c-2.5 70.9-21.1 153.6 10.1 220.1 6.1 13.1 78.3 130.3 48.6 136.3-9.1 1.8-8.8-13.6 0.3-11.5 9 2.2 2.3 16.1-5.1 10.3-6.5-5.1-3.4-39.2-6.3-48.9-16-52.5-56.8-90.9-63.5-147.5-3.4-29.1-2.7-134.6 4.9-160.6 1.9-6.6 10.5-4.3 11 1.8z"  fill="#fff500" /><path d="M-46.9-398.7c1 59.6-5.2 127.3 13.3 184.6 22 68 87.5 123 60.9 200.7-2.5 7.4-10.7 35.5-23.1 26.7-6.6-4.7-2.6-15.4 5.4-14.8 9.4 0.8 9.8 14.9 0.5 16.2-4.6 0.6-8.9-2.8-9.3-7.4-1.2-14.7 31.1-44 18.3-96.3-13.7-55.9-58-97.6-69.1-155-5.4-27.9-13.3-130.4-7.5-155.8 1.5-6.4 9.8-4.7 10.6 1.1z"  fill="#fff500" /><path d="M-36.8-284.5c10.7 140.4 153.9 214.8 28.4 337.2-7.4 7.2-29.2 35.3-40.4 28.9-9.2-5.3-2.8-19.9 7.4-16.7 10.1 3.2 7 18.8-3.6 17.9-6.3-0.6-10.2-7.6-7.4-13.3 19.1-37.8 80.3-47.8 83.7-125.8 2.8-63.7-47.6-110.8-66.6-168-5.6-16.9-14.2-42.5-11.5-60.5 0.9-6.1 8.9-5.1 10 0.3z"  fill="#fff" /><path d=""  fill="#fff500" /><path d="M-13.9-40.9c-3.3 38.2-29.7 67-54.9 93.4-6.2 6.5-25.2 36.9-35.9 27.6-7.5-6.5 0.9-18.6 9.6-13.9 10.2 5.5 0.7 21.1-8.9 14.5-15.1-10.4 30-48.8 37.3-56.6 12.3-13.1 24.3-26.9 32.3-43.1 3.5-7.1 4.6-23.1 10.6-27.8 4.7-3.8 10.2 0.6 9.9 5.9z"  fill="#fff500" /><path d="M-6.6-161.5c45.3 76.5 64.5 140-6.1 209.8-7.7 7.6-30.3 36.3-41.9 34.2-16.7-3.2-0.8-28 9.1-14.3 9.9 13.8-18.7 20.9-16.5 4.1 1.2-9 70.8-66 81.8-102.7 14.1-47-9-88.4-31.4-128.1-1.9-3.4 2.8-5.9 5-3z"  fill="#fff" /><path d="M34-400c27.3 39.1 71.8 58.5 104.1 92.4 45.6 47.9 38.8 109.5 22.9 168.4-3.2 11.8-10.6 65.6-21.9 69.5-11.7 4.1-10.8-17.5 0.5-12.4 11.3 5.1-4.2 20.1-8.9 8.7-4.8-11.7 10.2-43.5 13.6-55.7 11.3-40.8 25.6-84.5 15.6-126.9-15.1-64.6-80.9-86.8-121.7-131.5-1.8-1.9-10.7-19-4.2-12.5z"  fill="#fff500" /><path d="M18.1-56.9c2.7 42.6-21.8 77.5-51 105.7-7.5 7.2-34.4 41.9-45 31-7.2-7.5 2.7-19.4 11.3-13.6 10.1 6.7-1.3 22.1-10.6 14.3-13.8-11.4 53-65.7 61.7-77.2 20.6-27.2 14.3-46 23.5-62.9 2.8-5.3 9.6-2.5 10.1 2.7z"  fill="#fff500" /><path d="M85.3-399.3c37.5 30.4 83.5 51.8 108.4 95.3 24.9 43.4 19.9 95.2 6.7 141.5-2.9 10.2-14.3 63.5-27.1 62.3-8.3-0.7-8.5-13.1-0.3-14.2 8.2-1.1 11.1 11 3.3 13.8-19.7 7.1 3.5-43.4 5.2-48.1 14.4-41.3 26.1-87.4 14.5-130.8-14.1-52.9-60.5-80.9-102.2-110.6-0.7-0.5-13.2-12-8.5-9.2z"  fill="#fff500" /><path d="M37.4-265.5c50.3 96 85.9 207.7 25 308.6-5.4 8.9-21 39.9-33 38.9-11.7-0.9-9.2-19.3 2.3-17.1 9.8 1.9 8.6 16.8-1.4 17.1-24.1 0.7 17.2-45.7 20.8-51.4 21.4-33.9 32.1-73.1 32.9-113 1.2-62.4-20.4-118.9-48.8-173.4-1.5-2.8-3.5-17.9 2.2-9.7z"  fill="#005bbb" /><path d="M52.3 76.9c-9.2 12.9-23.5-4.1-12.1-10.6 16-9 15.1 24.3-0.4 14.4-19.8-12.7 24.9-26.4 12.5-3.8z"  fill="#005bbb" /><path d="M63.2 40.3c-5 8.5-27.4 51.1-40.1 39.7-8.7-7.9 4.4-20.9 12.2-12.2 7.8 8.8-6.7 20.3-13.5 10.8-6.1-8.6 22.8-45.1 30.5-49.6 7.7-4.4 14.1 4.3 10.9 11.3z"  fill="#c2e1ff" /><path d="M70.2-238.5c45.4 84.9 47 201.6-1.9 285.4-4.8 8.3-17.3 35.8-28.5 35.3-15.7-0.7-4.5-25.6 6.4-14.3 10.9 11.3-14.4 21.7-14.5 5.9-0.1-13 23.4-35.3 29.9-47 15-26.9 24.2-56.5 28.3-86.9 5.9-44 3.3-91.1-9.2-133.8-3.5-12-16.9-31.3-16.7-43.2 0.1-3.6 4.4-4 6.2-1.4z"  fill="#c2e1ff" /><path d="M84.1-51.3c-3.1 44.3-52 142.8-72.1 133-10.8-5.2-1.6-21.8 8.6-15.5 10.2 6.4-0.7 21.9-10.2 14.5-12.3-9.7 28.5-48 34.8-57.9 9.8-15.3 17.3-32 22.1-49.6 2-7.3 1.3-24.5 6.9-29.6 4.3-3.9 9.8 0 9.9 5.1z"  fill="#fff500" /><path d="M93-399.4c45.9 35.9 101.1 63.2 117.8 123.8 18.8 67.8-12.9 137.4-36.3 199.8-4 10.6-21.9 79.7-33.4 75.3-7.5-2.8-4.5-14.4 3.4-13.3 7.9 1.1 7.5 13.1-0.5 13.7-16.1 1.2 1.1-34.7 3-40.4 22.8-68.8 63.3-140.4 57.8-214.9-5-67.5-57-101.6-107.1-137.8-2.1-1.5-7-7.6-4.7-6.2z"  fill="#fff500" /><path d="M106.5-16.1c-3.9 14.7-30.7 103.8-51.2 97.4-10.6-3.3-4.5-19.7 5.7-15.2 10.2 4.4 2.3 20-7.3 14.5-12.3-7 9.6-30.9 13.5-37.8 8.5-15.1 18.8-55.9 27.9-65.5 5.2-5.4 12.4 0.2 11.4 6.6z"  fill="#005bbb" /><path d="M116.6-110.7c-2.5 55.5-12.6 111.2-39.3 160.4-4.1 7.6-14.9 35.1-26.5 31.4-12.4-4.1-1.3-22.7 8.2-13.9 9.5 8.9-8.3 21.2-13.2 9.1-4.6-11.4 25.2-47.2 30.5-58.7 10.9-23.9 18.2-49.3 22.7-75.1 2.6-14.8-0.5-44 7-56.4 3.3-5.4 10.3-2.2 10.6 3.2z"  fill="#005bbb" /><path d="M128.3-25.1c-4.8 17.3-28.8 99.4-42.2 105.6-11.2 5.2-15.6-14.7-3.3-14.8 12.3 0 7.9 19.9-3.2 14.8-12.8-5.9 11.6-40.9 15.1-49.3 6.8-16.2 10.5-50.6 22.2-62.9 5.2-5.4 12.4 0.2 11.4 6.6z"  fill="#005bbb" /><path d="M139.4 58.6c-2.2 5.7-8.5 30.7-19.1 20.1-6.1-6.1 2-16.1 9.2-11.4 8.4 5.4-0.8 18.3-8.6 11.9-16.7-13.5 25.1-45.9 18.5-20.6z"  fill="#c2e1ff" /><path d="M150.1-94.2c-10.1 36.3-34.7 150.2-58.7 173.4-8.8 8.5-19.4-8.8-7.9-12.8 13.5-4.7 12.4 20.2-0.6 14.3-12.5-5.6 16.3-53.1 20-63 7.3-19.4 27.9-109.8 35.8-118.3 5.1-5.4 12.3 0 11.4 6.4z"  fill="#005bbb" /><path d=""  fill="#005bbb" /><path d="M172.1-51.6c-7 19.1-36.9 125.6-47.5 131.5-10.3 5.7-15.9-12.9-4.1-13.9 11.7-0.9 9 18.4-2.1 14.4-12.7-4.7 7-36.7 9.8-44.3 10.3-28.5 14.7-68.8 31.4-94 4.8-7.2 14.3-1.2 12.5 6.3z"  fill="#005bbb" /><path d="M182.9-4c-3.6 11.6-22.7 91.7-37.4 84.3-9-4.5-1.1-18.3 7.3-12.8 8.4 5.5-0.9 18.3-8.6 11.9-8.3-6.7 6.2-28.2 8.8-35.5 5.1-14 8.1-44.3 18.5-54.7 5.4-5.4 12.6 0.4 11.4 6.8z"  fill="#fff500" /><path d="M194-95.4c-11.2 29.3-49.4 159.6-62.4 173.9-9.2 10.2-19.8-11.2-6.1-12.3 11.7-0.9 9 18.4-2 14.3-12.6-4.7 12.5-52.6 15.6-62 7.8-23.8 27.4-107.9 43.4-121.9 6-5.2 13.1 1.3 11.5 8z"  fill="#fff500" /><path d="M204.7-29c-5.2 16.8-26.6 103-37.4 108.9-10.4 5.7-15.9-13.2-4.1-13.9 11.8-0.8 8.9 18.6-2.2 14.3-12.5-4.8 6.6-35.5 9.2-42.9 7.7-22 10.2-52 22.1-71.9 4.3-7.2 13.7-1.8 12.4 5.5z"  fill="#005bbb" /><path d="M211.1-335.4c77.7 97.2 12.7 248.7-17.2 352.2-3.1 10.8-14.5 66.5-28.7 64.3-13.7-2.1-1.5-22.9 7-11.9 7.3 9.4-10.5 17.8-13.1 6.2-3-12.9 16.4-44.5 20.5-57.9 16.8-55.2 36.1-110.9 46.4-167.7 8.2-44.5 14.4-93.9 2-138.2-2.6-9.4-27.5-58.5-16.9-47z"  fill="#c2e1ff" /><path d="M226.3 7.4c-2.4 11.8-13 76.3-29.3 73.3-10.1-1.8-6.4-17.6 3.5-14.7 9.9 2.9 4.5 18.2-5.1 14.3-11.8-4.9 3.5-26.1 6.1-32.9 4.6-12.1 5.6-36 13.6-45.5 4.6-5.5 11.8-0.6 11.2 5.5z"  fill="#fff" /><path d="M234.3-304.3c37.3 80.8 7.7 189.1-13.2 270.6-4 15.4-22.4 117.6-41.1 114.5-13.8-2.3-1.2-23.1 7.2-12 7.2 9.5-10.8 17.8-13.4 6.1-2.8-12.8 16.2-43.1 20.1-56.5 12.9-45 24.9-91.1 33.6-137 8.5-45.1 14.7-93.4 10-139.3-1.6-15.4-8.1-29.7-10.2-44.6-0.6-4.4 5.1-5.3 7-1.8z"  fill="#fff500" /><path d="M245.9-286.1c24.4 77.9 5.4 174.9-7.2 253.7-4.1 25.7-10.5 92.8-28.2 110.9-8.4 8.6-19.4-8.1-8.1-12.4 11.3-4.3 14.2 15.5 2.1 14.7-16.5-1.2 5.6-38.5 7.8-45.8 13-42.9 18.2-89.5 23.7-133.9 6.7-53.2 12.9-110.1 5.8-163.4-0.7-5.5-7.2-20.8-3.2-25.4 2.4-2.7 6.1-1.3 7.3 1.6z"  fill="#fff500" /><path d="M258.2-205c0.1 29-4.4 291.5-37.5 285.7-11.8-2.1-4.3-20.5 5.6-13.7 9.9 6.8-4.7 20.4-10.9 10.1-0.3-0.6 16.3-51.8 19.5-77.2 6-48.2 9-97.1 10.9-145.6 0.5-12.7-5.4-53.7 2.9-62.9 3.6-4 9-1 9.5 3.6z"  fill="#fff500" /><path d="M278.9-399.6c69.8 62.9 61.7 152.2 117.7 220.8 26.9 32.9 110 107.1 96.6 155.3-2.2 8-14.4 1.5-9-4.8 5.4-6.3 13.7 4.6 6.2 8.1-10.7 5-10.1-30.2-11.3-35.3-6.2-25.9-20.1-48.7-37.3-68.8-28-32.7-61-59.9-80.7-99-22-43.6-26.9-94-53-135.7-1.3-2.1-37.9-47-29.2-40.6z"  fill="#005bbb" /><path d="M275.8-388.2c54.3 51.2 57.2 120.7 92.7 182 38.9 66.9 118.1 101.6 122.6 187.2 0.3 6.3 3.3 24.5-3.8 28.2-9.9 5.2-11.9-14.2-1.1-11.2 9.2 2.6 1.7 16.6-5.6 10.4-6.6-5.7 12.5-53.7-26-109.2-28.1-40.5-71-67.5-96-110.6-27.8-47.9-32.3-105.5-65.2-150.8-6.2-8.5-25.8-32.5-17.6-26z"  fill="#c2e1ff" /><path d="M289.8-187c5.5 26.8 14.2 53 29 76.1 36.2 56.5 106 85.1 94.7 163.2-1 6.7-1.6 25.2-9.8 27.6-9 2.7-12.5-11.7-3.2-13.4 7.9-1.5 11.3 10 3.9 13.2-18.5 7.8 7.9-54.7-7.8-91.6-18.5-43.7-65.8-67.7-90.1-108.1-10.4-17.3-25.8-45.3-25.5-66.1 0.1-5.4 7.1-5.4 8.8-0.9z"  fill="#005bbb" /><path d="M299.8-146.4c26.7 74.9 123.5 112.1 110.8 200.2-1 6.9-1.3 23.8-9.3 26.3-8.9 2.8-12.5-11.6-3.3-13.3 7.8-1.5 11.4 9.9 4 13.1-17.9 7.7 6.9-54.3-8.2-90.2-16.7-39.4-57.4-62.4-81.3-97-6.9-10-18.1-24.9-19.8-37.2-0.6-4.5 5.2-5.4 7.1-1.9z"  fill="#005bbb" /><path d="M310-122.5c32 62.8 111 93.8 100.6 174.5-0.9 6.7-1.3 25.2-9.4 27.7-8.9 2.8-12.5-11.5-3.4-13.3 7.8-1.5 11.4 9.8 4.1 13.1-18 7.8 7-55.1-9.2-91.4-14.9-33.3-47.4-54.1-70-81.7-5.9-7.2-15.8-17.4-18.4-26.6-1-3.6 3.7-5.1 5.7-2.3z"  fill="#c2e1ff" /><path d=""  fill="#005bbb" /><path d="M335.1 74.4c-2.7 7.8-14.6 5.6-12.3-2.8 4.5-15.7 21.6 9.8 5.3 8-15.6-1.8 4.5-25.4 7.4-7.9z"  fill="#fff" /><path d="M355.6-399.7c24.4 57.9 18.2 123.6 44.6 180.8 28.2 61.1 87 101.9 99.1 171.2 1.4 7.8 8.9 45.9-2.8 48.1-7.9 1.5-9.5-11.1-1.5-11.7 6.8-0.5 8.7 9.6 2.2 11.5-12.7 3.8-6.2-27.7-6.4-32.8-0.8-24.7-7.4-48.8-18.7-70.7-23.3-45.1-63.6-78.7-84.1-125.7-21-48.4-19.7-102-34.2-152.1-1.4-4.9-6.1-12.6-5.4-17.7 0.5-4.1 5.5-4 7.2-0.9z"  fill="#c2e1ff" /><path d="M354.3-238.4c43.8 113.6 175.7 136 127.3 286.8-2.4 7.6-7.4 34.2-18.7 32.5-8.5-1.3-8-14.2 0.6-14.7 8.6-0.6 10.9 12.1 2.6 14.5-20 5.8 3.5-40.3 5.1-45.5 10.2-32 13.2-66.5 2.7-98.8-17.8-54.2-68.3-84.1-101.1-128-28.6-38.3-24-56.4-18.5-46.8z"  fill="#005bbb" /><path d="M379.3-399c11.6 72.4 3.9 146.9 45.6 211.1 17.2 26.5 38.6 50.1 54.2 77.7 5.4 9.6 37.5 78.1 20.7 83.6-7.9 2.6-9.3-11.2-1.1-10.2 8.3 1 3.8 14.1-3.3 9.7-3.3-2-10.6-55.8-17.8-71.7-24.3-53.8-71.6-92.6-88.9-150.4-8.6-29-24.6-145.9-17.3-152.6 3-2.8 7-0.7 7.9 2.8z"  fill="#c2e1ff" /><path d="M373.5-129c60.4 49.8 112.6 83.1 88.9 172.5-2.2 8.4-7 35.6-17 37.4-8.5 1.6-12.2-10.7-4.3-14 9.3-3.9 14.6 11 5 13.9-4.9 1.5-10-2.6-9.5-7.8 3-34.6 34.4-55.3 15.1-113.6-12.8-38.6-46.6-61-77.3-84.5-0.8-0.6-4.4-6-0.9-3.9z"  fill="#fff" /><path d="M388.8-341.3c2.1 39.6 3.6 80.1 18.8 117.4 41 101.1 124.4 128.9 88.8 260.7-2.5 9.1-8.2 41.8-19.2 43.9-13.5 2.6-8.9-20.9 2.6-13.5 11.6 7.4-7.9 21.3-11.2 8-2.8-11.2 12.7-35.1 16-46.5 8.1-27.9 11.2-57.4 6.3-86.3-12.1-71-73.9-115.4-97-181.4-9.9-28.2-21.1-73.1-15.4-103 1.2-6.3 9.3-4.9 10.3 0.7z"  fill="#005bbb" /><path d="M398.9-261c22.7 119.3 138.2 154.8 97.2 300.5-2.5 8.8-8 39.2-18.4 41.2-13.5 2.6-9-20.9 2.5-13.5 11.6 7.4-7.8 21.3-11.1 8-3.2-13 15.7-44 19-58 5.7-23.8 7.4-48.6 3.7-72.8-9.8-63.6-58.9-104.7-86-160-19.7-40.1-12.2-60.2-6.9-45.4z"  fill="#fff" /><path d="M411-304.9c-5.5 138.9 131.6 193.2 87.5 346.3-2.4 8.5-7.4 37.2-17.7 39.2-13.4 2.6-9-20.7 2.5-13.4 11.6 7.3-7.7 21.3-11.1 8-2.7-10.5 11.5-32.4 14.7-42.8 8.5-27.9 12.3-57.2 8.8-86.3-8.6-70.3-64.3-116.9-85.7-181.7-6.4-19.3-15.2-50.4-9.9-70.8 1.7-6.6 10.3-4.5 10.9 1.5z"  fill="#c2e1ff" /><path d="M417.3-121.1c51.9 43.2 75.7 98.6 56.2 165.3-2.4 8.2-7.4 34.8-17.4 36.6-11.6 2.1-10.8-17.5 0.6-14.5 13.4 3.5-0.9 22.9-8.2 11.1-0.7-1.2 24.4-69.8 20.8-104.4-3.6-34.9-22.9-63.7-48.2-86.9-2-1.8-6-8.7-3.8-7.2z"  fill="#005bbb" /><path d="M433.8-359.2c-11.7 39.1-16.5 82-6.5 121.9 27.4 109.3 113.1 136.2 73.8 276.8-2.4 8.5-7.1 37.3-17.3 39.4-13.3 2.7-9.2-20.6 2.4-13.4 9.9 6.1-3.6 19.9-10 10.2-5.2-7.9 8-28.5 10.7-36.3 8.6-26.2 13.5-53.8 12.2-81.4-3.7-81.3-70-135.4-84.7-212.6-5.8-30.3-8.6-81.6 7-109.7 4-7.2 13.4-2.2 12.4 5.1z"  fill="#005bbb" /><path d=""  fill="#c2e1ff" /><path d="M422.4-396.7c-17.4 66.1-22 140.2 12 201.8 11.7 21.2 78 116.2 68.5 135.4-3.2 6.5-12.6-1-6.9-5.6 5.6-4.6 11.1 6.2 4 8-5.9 1.5-19.9-50.7-23.8-58.6-27.4-55.3-69.6-98-76.5-162.1-4.3-39.7-0.5-83.4 9.9-121.9 2.3-8.4 13.8-5.2 12.8 3z"  fill="#005bbb" /><path d="M465-253.5c5.7 114.9 88.4 152.7 42.7 303.5-2.1 7-5.7 31.4-16.3 30.4-8.3-0.9-8.4-13.4-0.1-14.4 9.7-1.1 10.7 14.3 0.9 14.4-16.2 0.1 2.1-33.6 4-39.6 10.2-32.4 15.3-66.3 12.9-100.3-4.3-61.2-37.3-112.4-50.5-171.1-7.3-32.4 5.3-28 6.4-22.9z"  fill="#c2e1ff" /><path d="M475.6-28.7c4.6 22.3-5.8 112.2-24.3 109.5-10-1.5-6.8-17.1 3-14.5 9.8 2.6 4.9 17.7-4.6 14.1-12.5-4.8 7.4-37.6 9.9-45.9 3.7-12.3 4.6-60.9 7.4-65.1 2.6-3.9 7.6-1.9 8.6 1.9z"  fill="#fff" /><path d="M485.6-193.3c24.4 76.8 48.9 145.2 28.9 226.8-2.6 10.5-6.6 40.1-16.1 46-8.3 5.1-15.7-8.4-6.9-12.6 10.3-4.9 14.6 13.5 3.2 13.6-16 0.2 1.1-31.1 3-37 9.4-29.4 14.8-60.1 14.4-91-0.4-34.4-8.3-67.8-19.1-100.3-3-9.1-18.5-37-14.8-45.8 1.5-3.6 6-2.7 7.4 0.3z"  fill="#fff500" /><path d="M448.1-395.4c-29.7 64.9-36.3 139.4-2.4 203.8 6 11.3 70.7 120.1 54.9 122.9-6.9 1.2-6.4-10.3 0.3-8.6 6.8 1.8 1.5 12.1-3.9 7.7-3.5-2.9-15.4-45.5-19.6-54.1-29-59.4-68.3-106.3-65.8-176.2 1.1-29.6 5.3-78.2 23.8-102.8 5.4-7.2 14.9-0.4 12.7 7.3z"  fill="#005bbb" /><path d=""  fill="#005bbb" /><path d="M520.7 4c-1.6 11.7-10.6 77.7-26.2 76.3-9.7-0.9-7.4-16.1 2.1-14.2 9.6 2 5.7 16.8-3.6 13.9-11.9-3.8 2.4-27.8 4.4-34.2 4-12.4 4.6-36.5 12.2-46.6 4.1-5.5 11.3-1.1 11.1 4.8z"  fill="#fff" /><path d="M489.2-395c-33.2 60.3-53.1 124.7-27.7 191.9 5.2 13.8 68.4 151.4 48.7 152.3-6.8 0.3-6.7-10.4 0.1-10 7.9 0.5 4.3 13.2-2.7 9.4-7.6-4.1-10.4-48.3-13.6-58.2-21.6-66.7-64.5-121.3-53.7-195.1 4.4-29.9 15.4-76.1 36.3-99.2 6.4-7.1 15.7 1.1 12.6 8.9z"  fill="#005bbb" /><path d=""  fill="#005bbb" /><path d="M553.4 70.1c-4 23.4-20.6-2.9-6.9-2.7 16.4 0.2-3.8 23.4-6.3 7.2-1.8-12 13.8-16.1 13.2-4.5z"  fill="#c2e1ff" /><path d="M561.7-397.8c-10.8 76-21.1 150.6-19.6 227.5 0.9 44.3 10.9 176.2-10.3 211-6.3 10.3-18.9-6.5-7.2-9.7 10-2.7 10.8 14.4 0.6 12.7-11.8-2-0.6-29.2 0.5-35.7 5.2-29.2 7.5-58.8 7.8-88.4 0.9-110.9-3.4-208.3 16.1-319.1 1.4-8 12.2-6 12.1 1.7z"  fill="#fff" /><path d="M575.2-50.1c-2.3 14.8-12.6 132-24.2 129.6-8.2-1.7-4.8-14.5 3.2-12 8 2.6 3.2 15-4.5 11.5-9.4-4.2 8.2-119.1 13.7-132.3 2.8-7 11.9-3.4 11.8 3.2z"  fill="#fff" /><path d="M585.7 65.4c-0.3 4.5-0.3 17-8.7 12.9-8.3-4 1.1-16 6.9-8.9 5.8 7.1-7.7 14-10 5.1-3.2-12.3 11.2-21.2 11.8-9.1z"  fill="#c2e1ff" /><path d=""  fill="#c2e1ff" /><path d="M605.2-244.4c-21.3 59.4-35.5 117.2-42.2 180.1-1 9.1-1.7 65.1-13.7 62.8-15.5-2.9 7.5-21.6 7.2-5.8-0.2 10.9-12.7 4.2-11.3-6.8 8.2-63 11.8-126.2 30.4-187.4 22.1-72.7 32-53.4 29.6-42.9z"  fill="#005bbb" /><path d="M605.4-238.9c-30.6 81-38.4 160.7-50.2 245.7-1.4 10.2-6.8 76.5-19.7 73-7.2-2-5.5-13 2-12.7 8.8 0.4 7.3 14.2-1.3 12.8-11.9-1.9 4.7-60.2 6.2-70.2 10.1-67.3 12.3-135.8 31.6-201.4 4.8-16.4 9-39.7 18.8-53.8 4.9-7.2 14.4-1 12.6 6.6z"  fill="#005bbb" /><path d="M605.5-196.7c-17.8 37.6-28.1 77.5-34.2 118.5-1.2 7.8-0.9 47.1-12.4 45-8.1-1.4-5.1-14 2.8-11.7 7.9 2.3 3.6 14.5-4.1 11.4-10-4.1 1.5-46.9 2.9-55.9 5.1-33.9 10.5-87.1 32.3-115 5.6-7.2 15.1-0.1 12.7 7.7z"  fill="#c2e1ff" /><path d="M605.3-178c-20.5 41.9-29.2 87.4-35.4 133.3-1 7.5-0.6 48-12.3 45.8-8.1-1.5-5.1-14.1 2.8-11.8 7.9 2.4 3.5 14.6-4.1 11.4-10.3-4.3 2.2-52.4 3.6-61.8 5.1-36.5 9-94.7 32.7-124.7 5.7-7.2 15.2 0 12.7 7.8z"  fill="#fff500" /><path d=""  fill="#fff" /><path d=""  fill="#fff" /><path d="M605.4-142.8c-10 20.8-23 86.7-29 89.4-9 4.1-12.4-12-2.5-12 9.9 0.1 6.2 16.1-2.8 11.9-12-5.7 12.7-90.2 22.8-98.2 6.5-5.1 13.5 2 11.5 8.9z"  fill="#fff500" /><path d="M605.3-157.1c-27.5 55.9-32.2 119.7-40 180.6-1.1 8.5-2.1 58.5-14.4 55.9-13.3-2.8 3.5-20.8 7.2-7.8 2.6 9.1-13.6 10.6-11.3-3.7 10-63.8 12.7-129.8 30.7-192.1 15.3-52.8 33-49.3 27.8-32.9z"  fill="#fff" /><path d="M605.3-140.9c-24.8 51.7-29.8 110.8-36.5 166.9-1 8.4-1.3 55.7-13.3 53.4-8.2-1.6-4.9-14.3 3-11.9 7.9 2.5 3.4 14.8-4.2 11.5-10.1-4.4 3.6-63.1 4.9-73.8 4.7-39.1 9.6-122.7 33.4-153.6 5.6-7.2 15.1-0.2 12.7 7.5z"  fill="#fff" /></svg>