<svg width="1200" height="675" viewBox="-500 -500 1200 675" xmlns="http://www.w3.org/2000/svg"><path d="M-500-500h1200v675h-1200z" fill="#000"/><path d=""  fill="#fff500" /><path d=""  fill="#c2e1ff" /><path d=""  fill="#c2e1ff" /><path d=""  fill="#005bbb" /><path d="M-397.4 28.3c9.4 7.3 43.5 32 42.6 45.3-0.3 4.7-7.8 2.5-5.6-1.6 2.2-4.1 8.1 1 4.4 3.7-5.2 3.8-17.4-19.4-20.6-23.1-6.8-7.8-16.8-14.2-22.8-22.4-1-1.4 0.7-2.7 2-1.9z"  fill="#fff" /><path d="M-397.7 21.6c10.5 8.4 48.9 36.7 47.4 52-0.5 4.9-8.3 2.4-5.8-1.9 2.5-4.3 8.5 1.3 4.4 4.2-5.3 3.6-18.8-22.6-22-26.5-8.2-9.8-28.6-30.9-24-27.8z"  fill="#005bbb" /><path d=""  fill="#c2e1ff" /><path d=""  fill="#fff" /><path d="M-396.7-29.8c8.6 10.9 85.2 94.7 68.8 106.7-5.2 3.8-9.5-6-3.2-7.3 6.3-1.3 6.1 9.4-0.1 7.9-6.8-1.6-15-31.4-18.7-38.1-13.6-24.7-32.5-44.7-50.5-66.2-2-2.4 1.5-5.1 3.7-3z"  fill="#fff500" /><path d=""  fill="#005bbb" /><path d=""  fill="#c2e1ff" /><path d="M-364.5-229.6c-31.5 48.8-45.2 118.3-18.4 171.5 6.2 12.4 81.3 131.8 64 135.7-6.9 1.6-7-10.2 0-8.7 5.9 1.3 3.4 10.5-2.3 8.6-7.8-2.6-16-42.6-20-51.2-48-105.8-61.4-54-63.9-197.8-0.3-15.4 15.3-61.5 28.8-69.8 8.1-5 15.1 4.2 11.8 11.7z"  fill="#fff" /><path d="M-352.9-187.9c-35.6 72.9 4.5 134.2 29.7 201.9 2.9 7.7 24.5 62.7 13.2 64.4-6.5 1-7.5-9.3-0.9-9.6 5.6-0.2 6.8 8 1.4 9.5-8.5 2.3-8.8-17.5-9.8-21.8-14.5-61-55.9-116.6-60.1-179.6-1.4-20.8-0.3-55.2 12.9-72.7 5.8-7.7 16-0.4 13.6 7.9z"  fill="#fff500" /><path d="M-341.4-282c-52.1 60-51.1 72.6-54 164-0.5 14.5-4.2 50.1 1.2 67.5 7.6 24.2 81.6 101.4 73.4 125.2-2.2 6.4-11.8 0.5-7.1-4.3 5.5-5.7 11.2 6.9 3.2 7.2-6.5 0.3-22.6-48.5-27.1-56.5-12.8-22.5-41.3-46-48.4-70.5-6.7-23.1-4.9-161.2-4.9-162.9-0.3-18.6 35.8-77.4 53-84.4 9.6-3.9 15.6 7.2 10.7 14.7z"  fill="#fff500" /><path d=""  fill="#fff500" /><path d="M-321.3 27.7c2.4 6.5 19.9 48.4 9.3 50.1-6.3 1.1-7.5-9-1-9.4 6.4-0.4 6.5 9.8 0 9.5-5.9-0.3-18.2-45.4-16.1-50.5 1.6-3.8 6.2-2.9 7.8 0.3z"  fill="#005bbb" /><path d="M-308.1-78.4c1.2 23.7 26.2 143.2 19 154.5-4.6 7.2-14.7-2.8-7.5-7.4 7.2-4.7 12.2 8.7 3.7 9.8-10.7 1.5-9.8-41.9-10.7-49.4-3.7-29.2-19.9-80.7-15.4-108 1.1-6.6 9.7-5.4 10.9 0.5z"  fill="#005bbb" /><path d="M-294.9-266.8c-43.9 51.5-87.2 102.3-71.1 175.1 6.3 28.7 67.6 149.1 59.2 167.1-3.8 8.1-14.4-3.3-6.1-6.6 7.1-2.8 9 9.7 1.4 9.3-7.2-0.5-22.2-67.9-26.2-77.9-23.8-59.7-56.6-113.2-36.5-179.6 10.3-34.1 37-80.3 66.9-101.3 9.4-6.6 18.2 5.4 12.4 13.9z"  fill="#c2e1ff" /><path d="M-283.1-284.3c-44.4 59.1-102 107.6-85.1 189.9 6.1 29.7 69.5 151.5 60.9 169.8-3.2 6.9-13.2-0.8-7.4-5.7 6.8-5.7 11.7 9 2.8 8.5-7.4-0.4-23-68.9-27.1-79-24.5-59.7-57-112.7-36.8-179.4 7.7-25.5 58.4-107.8 81.8-118.2 9.2-4.1 15.4 6.6 10.9 14.1z"  fill="#005bbb" /><path d="M-272.5-83.6c-4.1 42.3 1.7 85.5 2.3 127.9 0.1 6.4 5.2 35.4-6 34.7-7.9-0.5-6.5-12.9 1.3-11.6 7.8 1.3 5.1 13.5-2.5 11.4-9.8-2.8-4.4-46.3-4.6-55.2-0.6-28.9-10.8-83.4-2.5-109.5 2.3-7.2 11.7-4.5 12 2.3z"  fill="#fff500" /><path d="M-261.2-53.1c0 14.7 8.4 133.4-5.1 132.3-8.1-0.7-6.3-13.4 1.7-11.9 8 1.6 4.8 14-2.9 11.6-10-3.1-3.2-44.1-3.2-52.8 0.1-15.7-6.9-70.8-1.4-81.7 2.9-5.7 10.1-3 10.9 2.5z"  fill="#c2e1ff" /><path d="M-261.7-396.6c-24.7 87.4-126 170.4-129.8 220.7-2.2 29.5-5.6 64-2.6 94.4 1 10.2 14.3 24.4 13.3 33.3-0.8 6.8-10.7-0.8-4.3-3.3 5.5-2.1 5.3 8.1 0 5.8-21.5-8.9-17.3-61.7-17.7-75.4-0.6-19.8-2-39.5-2.4-59.3-0.9-50.4 75.9-120.3 102.2-161 9.8-15.1 19.3-52.6 29.1-62.5 5.7-5.7 13.4 0.4 12.2 7.3z"  fill="#fff" /><path d="M-236.4-227.9c-37.6 55.7-70.1 98.5-64.1 169.4 1.7 19.7 20.6 124.8 14.1 134.8-4.8 7.3-14.9-3-7.5-7.7 8.6-5.4 11.8 12 1.8 10-9.9-2-9.7-64-11-74.3-7.4-59.4-20.1-119.3 7.8-175.6 10.8-21.7 27.4-52.2 45.8-68.4 8.1-7.1 17.6 3.3 13.1 11.8z"  fill="#005bbb" /><path d="M-225.2-351.1c-24.3 98.2-123.3 147.3-120.7 239.3 1.5 53.1 28.6 103.6 40.2 155 0.9 3.8 9.1 26.5-2 24.2-6.6-1.3-3.9-11.6 2.4-9.5 7.5 2.4 1 13.6-4.8 8.3-8.9-8.2-10.2-44.5-13.6-56.8-16.2-58.3-46-116.2-27.6-177.8 15.8-52.9 60.9-85.7 88.8-131.2 8.8-14.4 16.4-48.7 25.2-58.3 5.4-5.8 13.1 0 12.1 6.8z"  fill="#005bbb" /><path d="M-213.1-238.9c-34.9 65.4-74.6 102.5-72.3 182.8 0.6 19.4 13.3 123.3 6.7 132.7-6.1 8.6-16.1-6.9-5.7-8.9 8.8-1.7 8.5 13.2-0.3 11.1-9.9-2.4-6.5-58.9-7.2-69-3.5-52.5-12.3-106.6 6.5-157.4 7.4-20.1 44.1-91.9 60.5-102.4 7.8-5 14.9 3.8 11.8 11.1z"  fill="#fff500" /><path d="M-201.7-293.6c-22.5 76.3-95.6 125.7-97.3 209.4-0.5 25.2 21.2 149.4 13.7 160.7-5.7 8.5-15.8-6.1-5.9-8.4 8.5-2 8.7 12.5 0.1 10.7-9.7-2-8-51.9-8.9-61.1-5.6-53.3-19.3-109.5-2.9-162.1 12.9-41.5 42.8-73.1 65.3-109.3 8-12.9 13.3-37.7 23.8-47.7 5.9-5.6 13.6 0.8 12.1 7.8z"  fill="#fff500" /><path d="M-190.2-295.1c-18.5 79.1-89.3 133.1-93.5 217-1.2 23.7 13.4 144.1 5.9 154.6-6.2 8.6-16.1-6.9-5.7-8.9 8.9-1.7 8.5 13.3-0.3 11.1-9.8-2.5-5.8-49.2-6.3-58.3-2.8-52.1-12.6-106.5 3-157.5 12.6-41.3 40.7-74.2 61.5-111.2 8.2-14.6 12.5-42 23.3-53.6 5.4-5.7 13.1 0 12.1 6.8z"  fill="#005bbb" /><path d="M-178.4-249.5c-23.4 72.4-61.3 119.2-52.6 200.5 1.5 14 21.6 129 7 128.3-6.7-0.3-7.4-10.3-0.8-11.4 7.7-1.3 9.2 11 1.4 11.4-10.4 0.7-6.4-22.9-6.6-28.2-2.4-61.7-22.9-123.3-9.9-184.9 6.6-31 31-96.3 48.2-122.3 5.1-7.7 15.1-1.3 13.3 6.6z"  fill="#c2e1ff" /><path d="M-166.9-206.1c-13.5 47.1-21.4 94.9 8.7 137.7 25 35.4 111 95.3 107.7 142-0.6 8.5-14 2-7.7-3.7 5.4-4.9 11.4 5.6 4.5 7.8-3.7 1.2-28.8-58.9-34.8-67.1-35.3-48.1-93.7-75.3-101.9-140.3-2.9-23.4-1.6-60.7 10.3-81.8 4.3-7.7 14.4-2.3 13.2 5.4z"  fill="#c2e1ff" /><path d=""  fill="#c2e1ff" /><path d="M-144-259c-7.3 53.3-31.8 109.8-2.7 160.9 33.9 59.5 85.8 73.3 107 151.1 1.5 5.4 6.6 17.2 3.8 22.4-3.7 7.1-13.8-1.5-7.5-6.3 6.4-4.8 11.9 7.2 4.2 8.9-6.5 1.4-21.2-59.9-25.7-68.9-26.9-53.7-90.2-82.9-104.4-143.4-7.6-32.3-0.2-97.5 12.7-128.3 3.1-7.4 12.8-3.5 12.6 3.6z"  fill="#c2e1ff" /><path d="M-132.8-288.8c-1 59.4-28.9 125 3 180.4 35.6 61.8 79.6 77.3 97.4 157.6 1.4 6.2 6.9 20.9 3.5 26.7-4.2 7.2-14.4-2.2-7.5-6.9 6.8-4.8 12.1 8 3.9 9.5-6.2 1.1-20.9-70.4-25.4-80.6-24.4-54.9-84.6-88.5-96.4-149.1-3.6-18.5 2.4-127.1 10.3-140.8 3.3-5.7 10.7-2.5 11.2 3.2z"  fill="#fff500" /><path d="M-121-225.6c-2.1 28.7-3.4 58 6.2 85.5 24 68.7 72.5 90.2 88.9 180.9 1.2 6.7 9.7 34.7 0.8 37.9-8.1 3-10-11.3-1.4-10.5 8.6 0.7 4.4 14.5-3.2 10.1-8.6-4.9-10-58.2-13-69.7-16.8-63.6-69.3-104.2-85.9-164.2-5.5-20-10.9-52-4.5-72.3 2.3-7.2 11.6-4.4 12.1 2.3z"  fill="#c2e1ff" /><path d="M-112.9-115.6c36.1 64.3 72.5 84.9 86.4 165.8 1.1 6.2 5.9 20.6 2.3 26.3-3.9 6.2-13.4-0.5-8.8-6.2 5.3-6.7 14.3 4.3 6.7 8.1-10.7 5.4-9.3-20.3-9.8-24-3-22.8-8.3-45.4-16.8-66.8-15.7-39.4-66.8-95.3-65.7-102.1 0.5-3 4-3.2 5.7-1.1z"  fill="#005bbb" /><path d="M-102.3 8.6c6.7 7 50.8 60.1 38.2 68.4-4.8 3.2-9.5-4.7-4.3-7.4 6-3.1 9 7.8 2.2 8.1-7.2 0.3-13.9-28.6-17.2-34.5-6.2-11.6-28.7-43.4-18.9-34.6z"  fill="#c2e1ff" /><path d="M-86.8-360.4c3.4 61.4 2.2 150 18.2 207.2 19.1 68.7 46.9 123.7 53.2 196.9 0.8 8.9 4.2 23 1.6 31.6-3.1 10.1-17.5-1.4-8.2-6.6 7.9-4.5 12.3 9.9 3.3 10.6-10.4 0.9-6.8-23.2-7.1-28.7-1.8-29.5-5.5-59.1-12.3-87.9-11.3-47.7-35.6-91.3-45.7-139.3-12.3-58.1-8.6-120.8-13.6-179.9-0.7-8 8.8-13.3 10.6-3.9z"  fill="#c2e1ff" /><path d="M-75.1-311.4c4 53 0.1 107 13.7 158.9 12.1 46.2 61.9 184.3 48.6 227.4-2.7 8.7-15.8 1.2-9.7-5.5 7.1-7.9 15.3 8.7 4.6 9.5-10.5 0.8-6.7-23.8-7-29.4-1.5-28-4.6-56.1-10.1-83.6-11.6-57.5-39.1-110.5-45.7-169-3.3-29.2-10.3-80.7-5.3-108.9 1.2-6.6 9.8-5.2 10.9 0.6z"  fill="#005bbb" /><path d="M-66.4-14.6c6.9 9.9 47.6 85.1 30.8 92.5-7.4 3.3-10.1-9.9-2-9.8 6.9 0.1 6.2 11-0.7 10.2-8.5-1.1-10.6-36.9-12.9-44.2-4.9-16.3-26-61.8-15.2-48.7z"  fill="#fff" /><path d="M-51.5-335c-0.1 60.4-3.4 121.9 7.9 181.6 6.2 32.9 46.8 210.6 32.2 230.1-5.5 7.4-15.5-4.2-7.4-8.5 8.1-4.4 12.3 10.3 3.2 10.9-8.3 0.5-11.9-101.6-13.8-115.2-18-130.2-39.2-150.5-33.7-298.9 0.3-7.7 10.8-7.3 11.6 0z"  fill="#fff" /><path d="M-39.4-361.5c-6.2 67.2-9.4 138.1 1 205 5.1 32.5 41.1 215.8 27.7 233.5-5.5 7.4-15.5-4.3-7.3-8.7 8.1-4.4 12.3 10.4 3 11-8.9 0.5-10.8-100-12.3-113.4-5.1-43.9-15.8-86.6-22.5-130.2-9.5-61-6.4-123.7-2.9-185.1 0.8-14.7 12.5-30.4 13.3-12.1z"  fill="#c2e1ff" /><path d="M-29-130.8c4.6 28.8 31.2 191.6 19 207.7-5.6 7.4-15.6-4.3-7.3-8.7 8.2-4.3 12.3 10.5 3 11-11.2 0.6-7.1-51.2-7.5-60-1.6-32.9-18.7-130.9-17.2-149.6 0.5-6.1 8.4-5.6 10-0.4z"  fill="#c2e1ff" /><path d="M-16.6-182.1c0.1 44.6 19 231 9.7 257.6-3.6 10.3-18-2.2-8.3-7.2 8.3-4.3 12.3 10.7 2.9 11.2-2.6 0.1-5.1-1.6-5.8-4.1-6.4-19.7-0.7-65.8-1.4-88.5-1.6-53.6-6.9-107-8.4-160.5-0.2-8 9.4-22.5 11.3-8.5z"  fill="#005bbb" /><path d=""  fill="#c2e1ff" /><path d="M0.4-395.6c-42.5 104.9-29.5 216-16.9 324.9 1.4 12.4 14.2 109.3 1.8 109.1-7.7-0.2-6.8-12.3 0.8-11.3 6.5 0.8 6.3 10.7-0.2 11.3-10.9 1-8.6-59-9.3-68.4-7.1-95.9-25.5-187.1-11.7-283.6 3.8-26.1 6.7-66.8 22-89 5.3-7.7 15.5-1 13.5 7z"  fill="#005bbb" /><path d="M19.2 52.1c-1.1 6.3-0.1 30.1-11.2 28-7.4-1.4-6.5-12.6 1-12.9 8.8-0.3 8.5 13.7-0.3 13-11-0.9-5.1-28.2-1.4-33.2 4.4-5.9 12.2-1.3 11.9 5.1z"  fill="#c2e1ff" /><path d="M30.9-153.7c-11.2 56.6-23.1 112.9-27.5 170.5-0.7 9.2 1.7 63.9-10 62.7-15.8-1.7 5.8-22.2 6.7-6.3 0.6 10.7-12.4 5.6-11.8-5.2 3.9-75.6 11.6-150.5 29.3-224.3 2.1-8.7 14-5.9 13.3 2.6z"  fill="#fff500" /><path d=""  fill="#fff" /><path d="M54.9-274.7c-40.9 62-48.7 196.5-53.4 271.5-0.7 10.8 1.3 83.4-9.9 82.4-7-0.7-7.1-11.1-0.1-12 8.1-1 9 11.9 0.8 12-11.2 0.2-5.4-25.1-5.2-31 3-92.7 7.7-203.7 36.1-292.2 4-12.4 8.9-31.5 18.2-41 7.3-7.5 17.2 1.8 13.5 10.3z"  fill="#fff500" /><path d=""  fill="#fff" /><path d="M77.9 64.2c-1.7 4.7-8 26-16.5 13.4-12.5-18.5 29.2-6.9 9 2.5-14.2 6.5-8.8-17.1-5.8-22 4.7-7.7 14.9-1.8 13.3 6.1z"  fill="#005bbb" /><path d="M89.7 54.6c-2.2 5.5-6.8 33.1-18.3 24.3-6.6-5-0.2-15.7 7.3-12.2 7.5 3.5 3.6 15.2-4.5 13.5-11.7-2.6-1.8-29.2 3.2-33.8 6.2-5.7 13.9 1.1 12.3 8.2z"  fill="#c2e1ff" /><path d=""  fill="#c2e1ff" /><path d="M113.2-254.9c-24.3 39.5-30 85.9-44.3 129.3-13.4 40.7-33.8 78.7-45.2 120.1-3.4 12.3-11.2 78.8-15.7 83.5-6.9 7.3-16.3-6.5-7-10.2 10.9-4.4 11 16.1 0.1 11.8-7.1-2.8 1.5-84.3 37.1-168.5 22.8-53.9 30.1-114.6 56.4-166.7 5.8-11.4 25.3-15.5 18.6 0.7z"  fill="#fff500" /><path d="M123.7-152.4c-5.1 74.1-52.2 122.5-77.4 189-3.1 8.2-7.5 43.2-17.8 43.7-10.9 0.6-8-17.3 2.1-13.2 8.7 3.4 2.5 16.8-5.7 12.4-12.8-6.7 10-56.6 14-66.2 15.9-38.1 42.2-70.5 58.2-108.5 6.7-15.8 8-50.3 15.1-61.2 3.8-5.8 11.3-2 11.5 4z"  fill="#fff500" /><path d="M134.9-174c0.6 107-29.1 119.6-70.1 208.2-3.9 8.4-12.4 49.8-24 46.1-10.7-3.4-1.4-19.5 6.9-12 8.3 7.6-7 18.3-11.2 7.9-9.7-23.2 53.9-118.9 66.3-143.1 28.2-55.2 11.2-68.3 20.7-108.4 1.6-6.9 10.6-4.9 11.4 1.3z"  fill="#fff" /><path d="M147.9-305.9c-18.3 21.8-37.2 42.7-50 68.3-8.5 17.1-73.9 216-79 238.4-2.9 12.5-4.3 72.6-14.2 78.1-8.8 4.8-13.4-11.1-3.4-11.8 10-0.7 7.5 15.7-1.9 12.1-14.3-5.5 7.1-87.8 10.5-100.7 8.9-34.9 74.1-228.3 89-251.9 9.3-14.7 22.1-35.9 36.4-46.2 9.3-6.7 18.2 5.2 12.6 13.7z"  fill="#c2e1ff" /><path d="M159.1-247.7c-13 53.3 13 102.2 14.8 154.9 1.6 47.3-20.1 87.5-36.1 130.5-3 8.2-7.4 41.6-17 42.4-9.1 0.7-9.5-13.7-0.4-13.5 9.2 0.3 8 14.7-1.1 13.5-17.7-2.4 36.7-129.9 39.8-145.1 10.8-52.7-13.7-100.3-15.6-152.3-1.4-39 16.8-48.4 15.6-30.4z"  fill="#fff500" /><path d="M141.3-391.8c-62.2 72.6-113.2 48.6-133.5 180-6 38.9-6.9 78.5-8.4 117.8-0.2 5.2 3.3 37.6-9.3 32.1-8.7-3.8 0.6-16.6 6.9-9.5 5.4 6.1-4.6 14.1-9.3 7.4-7.2-10.1 0.3-45.6 0.8-58.1 2.7-67.3 3.4-142.7 43.8-200.1 11.9-16.9 81.9-79.9 99.1-85.5 10.1-3.3 15.4 8.6 9.9 15.9z"  fill="#fff" /><path d="M179.4-186.5c39.1 110.9 64.5 95.4 26.1 222.6-2.5 8.3-5.8 43-16.1 43.9-12.6 1-6-20 3.8-12 8.4 6.8-5.6 17.9-10.4 8.2-6.3-12.9 29.7-110.6 30.7-135.3 1.9-46.7-25-83-41.5-124.4-2-4.9 5-7.3 7.4-3z"  fill="#c2e1ff" /><path d=""  fill="#fff500" /><path d=""  fill="#fff500" /><path d="M271.9-399.8c55.3 58.2 86.7 133.9 130.1 200.9 7.4 11.4 61.7 98.6 46 107.6-7.4 4.3-9.5-10.4-1.2-8.4 7.1 1.7 1.8 12.6-3.9 8-7.5-5.9-10.1-32.4-13.7-41.7-9.6-24.8-22.9-47.9-37.3-70.2-34.7-53.7-72.6-136.7-111.1-180.4-0.9-1.1-15.7-21.5-8.9-15.8z"  fill="#fff" /><path d="M260.1-400.1c35 41.4 147.3 208.6 169.4 255 11.7 24.6 19.3 50.7 24.3 77.5 0.4 2.4 0.8 20.7-7.4 11.3-10.2-11.8 19.6-7.1 6.4 0.9-10.4 6.4-11.9-27.5-12.9-32.1-7.4-34.2-20.6-66.1-39-95.8-17.4-28.1-38-54.2-55.8-82.1-25.5-40-45.8-82-76.8-118.3-1.2-1.4-15.2-22.9-8.2-16.4z"  fill="#c2e1ff" /><path d=""  fill="#c2e1ff" /><path d="M274-400c42.1 43.6 63.1 94.6 93.4 145.9 25.8 43.6 57.4 83.7 75 131.7 4.1 11.3 30.1 88.6 18.4 94.4-8.2 4-9.4-11.8-0.7-9.1 7.4 2.3 1 13.5-4.8 8.3-8.3-7.5-8.2-40.3-10.5-51.5-6.9-33.4-18.2-65-34.9-94.7-16.2-28.9-35.8-55.6-52.7-84-24-40.5-40.2-85.4-71.1-121.7-1.4-1.6-18.9-24.9-12.1-19.3z"  fill="#fff500" /><path d="M260.2-303.6c32 63.7 98.9 95.2 137.6 153.3 34.9 52.3 28.1 110 41.2 168.5 1.6 7.3 22.4 56.5 19.2 58-4 1.9-6.7-4.5-2.6-6.1 4.9-1.8 6 6.8 0.8 6.4-8.2-0.7-18.2-32.3-20.7-39.1-20.3-53.2-9.9-112.5-33-165-27.5-62.7-89.8-93.9-130.4-145.9-5.9-7.6-15.7-18.2-18.3-27.6-1.1-4 4-5.4 6.2-2.5z"  fill="#fff500" /><path d="M285.6-400.1c40.8 40.6 57.4 91 84 140.6 46.1 86.1 76.5 119 95.2 220.3 1.1 6 10 29.5 3.5 33.1-6.4 3.6-9.9-8-2.6-8.6 8.5-0.7 4.1 13.6-2.5 8.2-10.7-8.7-11.4-49.9-14-63.4-6.3-32.3-15.5-63.5-30.3-92.9-16.9-33.8-39.2-64.6-57.4-97.7-21.8-39.7-35.2-84.5-63.9-120.2-1.2-1.5-18.6-24.8-12-19.4z"  fill="#c2e1ff" /><path d="M287.6-7.6c-3.8 12.4-31.6 94.6-45.2 88-9.5-4.6-1.5-19.2 7.4-13.6 9 5.6-0.5 19.2-8.9 12.8-8.8-6.9 26.4-87.2 34.6-95 6-5.6 13.6 0.8 12.1 7.8z"  fill="#c2e1ff" /><path d="M296.2-91.3c17.2 40.7 2.9 83.6-14.1 121.7-4.2 9.4-17.2 52.9-29.5 51.1-12.4-1.8-5.1-21.3 5.5-14.4 10.5 6.8-4.3 21.4-11 10.8-8.1-12.9 27.6-69.1 33.1-83.3 6.2-16 11.2-32.8 12-50 0.5-9.3-7.1-28.7-3.8-36.2 1.6-3.7 6.2-2.8 7.8 0.3z"  fill="#005bbb" /><path d=""  fill="#fff" /><path d="M322.6 8.6c-3.8 11-25.6 80-40.2 71.9-9.6-5.3-0.5-20 8.5-13.6 9 6.3-1.7 19.9-9.9 12.6-7.8-6.8 22-72.4 29.5-79.1 6.2-5.6 13.8 1.2 12.1 8.2z"  fill="#fff" /><path d="M329.5-279.6c33.1 49.5 77 92.2 100.9 147.5 20.9 48.5 19.5 101.4 35.2 151 2.2 7 26.1 55.9 21.2 58-5.1 2.2-6.9-6.9-1.3-6.7 4.8 0.1 4.2 7.6-0.6 7-7.7-1-17.7-32.4-20.6-39.1-22.4-51.4-20.3-108-38.7-160.4-19.8-56.7-62-99.2-96-147.3-1.3-1.9-6.5-17.3-0.1-10z"  fill="#005bbb" /><path d="M341.9-300.6c28.7 57.5 71.4 107.7 96 167.1 19.9 48.3 21.1 100.7 37.2 149.9 2.4 7.5 27 58.2 21.2 60.5-5.5 2.1-7-7.5-1.1-7.1 5.9 0.4 3.2 9.7-2 6.9-23.4-12.6-48.7-166-59.3-197.9-20.7-61.8-64.7-111.6-94.4-168.9-1.7-3.2-3.6-19.6 2.4-10.5z"  fill="#c2e1ff" /><path d=""  fill="#fff" /><path d="M366.4-397.2c13.1 43.2 13.5 89 27.3 132 13 40.8 35.8 77.4 52.5 116.6 17.5 41.2 25.7 84.4 36.7 127.5 2 7.7 22 59.7 15.7 61.8-6 2-7-8.5-0.8-7.8 7.3 0.9 1.2 12.2-3.5 6.5-20.7-24.9-33.2-118.3-44.1-153.5-16-51.5-45.8-96.6-64-147.1-14.2-39.3-16.6-80.6-25.4-121.1-0.9-4-4.7-11.5-2.7-15.7 2-3.9 6.9-2.7 8.3 0.8z"  fill="#fff500" /><path d="M378.1-90.1c5.8 17.9 7.8 169.3-5.9 169.3-7.6 0-6.9-11.9 0.7-11.1 7.5 0.8 5.5 12.6-1.9 10.9-13.1-2.9-3.3-67.3-2.1-78 1.9-18.3 4.3-36.6 4.2-55-0.1-10.5-6-26.4-3.7-36.1 1.2-4.8 7.2-4.1 8.7 0z"  fill="#005bbb" /><path d="M390.9 43.6c0.3 6.4 7.4 30.8 0.6 34.1-6.9 3.4-10-8.9-2.3-9.1 6.6-0.2 6.3 10.2-0.2 9.6-18.5-1.5-3.7-62.1 1.9-34.6z"  fill="#fff500" /><path d="M398.4-398.1c-4.6 141.6 13.4 142.4 59.6 265.3 3.5 9.4 30.8 84 20.2 86-7.2 1.4-6.9-10.7 0.3-8.9 7.1 1.7 1.7 12.6-4 8-4.8-3.9-16.5-59.3-19.9-69.7-19.5-60.1-56.3-114.5-65.7-177.6-4.4-29.9-10.5-75.5-2.3-104.9 2-7 11.1-4.7 11.8 1.8z"  fill="#fff500" /><path d=""  fill="#fff500" /><path d="M423.5-152.5c29.5 55.9 27 118.1 47.3 176.4 3.8 11.1 23.4 39.3 21.3 50-1.1 5.6-9.7 1.8-6.4-2.8 3.9-5.4 10.1 4.4 3.5 5.6-5.2 0.9-8-10.5-9.4-13.3-21.7-44.6-30.4-88.1-39.1-136.6-2.8-15.3-24-72.3-23.8-77.9 0.1-3.9 4.8-4.3 6.6-1.4z"  fill="#fff500" /><path d="M429.7-396.2c-43.2 133.7 22.3 209.7 56.6 332 2.6 9.3 26.2 78.1 19.7 79.9-6.4 1.8-7-9.2-0.4-8.2 6.5 1 2.5 11.3-3 7.6-10.8-7.3-16.3-46.9-19.9-59.4-8.7-30.2-16.7-60.5-27.4-90-19.5-53.5-49.4-104.4-52.9-162.5-1.7-29.6-1.5-78.7 14-105.1 4.5-7.7 14.6-2.1 13.3 5.7z"  fill="#fff" /><path d="M447.2-164.5c23.4 53.7 34.4 110.3 52.3 165.7 3.4 10.6 26.7 67.6 24.5 73.5-2.4 6.5-12.1 0.3-7.2-4.6 4.9-4.9 11.1 4.8 4.6 7.2-7.3 2.7-31.2-77-34.4-87-4.7-14.7-46.6-149.8-47.1-152.7-0.7-4.6 5.2-5.7 7.3-2.1z"  fill="#fff" /><path d="M459.5 14.7c2.1 7.5 26.3 60.1 22.3 61.9-4.3 1.9-6.9-5-2.4-6.4 4.4-1.4 6.3 5.7 1.7 6.6-7.8 1.6-29.6-52.5-30.1-60.5-0.4-5.3 6.5-5.9 8.5-1.6z"  fill="#005bbb" /><path d="M457.2-395.1c-62.1 121.5 0 210.7 36.9 326.2 3.1 9.8 24.7 67.2 23 72.3-2.5 7.4-12.8-1.3-6-5 5.8-3.1 8.8 7.5 2.3 7.8-10.6 0.6-32.9-89.9-37-102-23.9-72.7-67.9-145-58.1-224.1 3-24.6 9-64 25.3-83.8 6.3-7.7 16.4 0.3 13.6 8.6z"  fill="#005bbb" /><path d="M485.6-325.1c-25.2 80 5.6 159.7 44.9 229.5 22 39 81.7 124.5 61.9 171.3-3.9 9.1-17.3-0.4-10-7.1 7.4-6.6 15.5 7.6 6.1 10.6-12.8 4-6.9-22.1-6.9-26.7 0.4-19.3-2.2-38.5-8.4-56.7-27.8-80.4-87.2-129.8-105.6-229.7-5-27-9.3-71.5 4.7-96.6 4.3-7.7 14.4-2.3 13.3 5.4z"  fill="#fff500" /><path d="M494.5-40.2c4.4 15.2 38.7 109 36 115.4-2.8 6.7-12.6-0.2-7.3-5.1 5.3-4.9 11.4 5.5 4.5 7.7-8.8 2.8-13.4-30.1-15.3-35.8-5-15.5-29-69-26.4-81.8 0.9-4.8 6.8-4.2 8.5-0.4z"  fill="#fff500" /><path d="M458.8-395.1c-39.5 76.1-31.9 146.6-1.1 223.6 5.9 14.8 41.5 99.4 38.1 108.8-2.2 6.4-11.8 0.5-7-4.4 5.5-5.7 11.2 6.9 3.2 7.2-8.2 0.3-17-42.2-19.5-49.5-28-81.6-70.3-155.4-46.4-244 4.1-15.2 8.9-38.1 19.1-50.5 6.3-7.6 16.4 0.4 13.6 8.8z"  fill="#005bbb" /><path d="M517.1-64.5c6.6 15.5 61.2 134.8 39.5 142.8-8.1 3-10-11.2-1.4-10.5 8.6 0.7 4.4 14.4-3.1 10.2-7.4-4.2-5.7-32.4-7.3-40.3-6.5-34.3-30.4-71.6-35-100.1-0.8-4.6 5.2-5.7 7.3-2.1z"  fill="#fff" /><path d="M531.4-301.6c-4.9 46.4 5.8 94.9 31.2 134.1 7.8 12 16.9 23 27 33.1 1.1 1.1 13.8 10.1 9.8 12.2-6.2 3.2 3.1-7.4 0.7-0.9-1 2.8-4.3-0.9-4.9-1.4-50.9-44.5-81.5-109.3-76.1-177.9 0.6-8.2 12-7 12.3 0.8z"  fill="#005bbb" /><path d="M539.4-100.6c7.4 11.7 76.1 100.4 61.6 109.3-6 3.7-9.9-7.3-2.9-8.2 7-0.9 5.9 10.8-0.8 8.7-6.6-2.1-10.5-25.6-13.6-31.8-13.3-26.9-33.2-49.7-49.3-74.8-2.1-3.3 2.6-6.1 5-3.2z"  fill="#fff500" /><path d=""  fill="#fff" /><path d=""  fill="#c2e1ff" /><path d="M575.4-14.5c5.3 11.4 31.1 89.9 10.7 94.1-9.7 1.9-9.4-14.4 0.2-12.1 8.2 2 4.4 14.7-3.5 11.9-9.3-3.3-3-38.9-3.8-47.5-1.5-15.5-8.6-29.4-10.9-44.3-0.7-4.6 5.3-5.6 7.3-2.1z"  fill="#005bbb" /><path d=""  fill="#005bbb" /><path d="M599.2-237.4c0.8 2.7 7.2 15-0.7 14.9-4.6-0.1-5.3-7-0.8-7.9 5.3-1.1 6.5 7.4 1.2 7.9-14.5 1.3-5.7-27.3 0.3-14.9z"  fill="#fff500" /><path d=""  fill="#005bbb" /><path d=""  fill="#fff" /><path d="M604.8-305c-0.5 5.5 3.5 27.6-6.1 27.5-6.4 0-7.4-9.6-1.2-10.9 7.3-1.6 9.2 10.1 1.8 10.9-10.2 1.1-8.6-26.1-5.8-30.8 3.4-5.8 10.9-2.5 11.3 3.3z"  fill="#005bbb" /><path d=""  fill="#fff500" /><path d=""  fill="#c2e1ff" /><path d=""  fill="#fff" /><path d=""  fill="#fff500" /><path d=""  fill="#005bbb" /></svg>