<svg width="1200" height="675" viewBox="-500 -500 1200 675" xmlns="http://www.w3.org/2000/svg"><path d="M-500-500h1200v675h-1200z" fill="#000"/><path d=""  fill="#fff500" /><path d=""  fill="#c2e1ff" /><path d=""  fill="#fff" /><path d=""  fill="#005bbb" /><path d=""  fill="#005bbb" /><path d=""  fill="#fff500" /><path d=""  fill="#fff500" /><path d=""  fill="#fff500" /><path d="M-395.1 25c2.6 6.5 27 49 23 51.2-3.7 2-6.5-3.9-2.6-5.5 3.9-1.6 6 4.6 2 5.8-6.6 1.9-28.5-42.6-29.6-49.3-0.8-4.6 5.2-5.8 7.2-2.2z"  fill="#c2e1ff" /><path d="M-387.4-139.8c-10.7 54-8.2 108.5 26.4 153.3 14.5 18.7 32.4 34 50.4 49.1 1.5 1.2 15.9 10.4 11.4 12.6-2 1-3.4-2.2-1.3-3 2.1-0.8 3.1 2.6 1 3.1-3.5 0.9-12.5-10.1-15.1-12.2-56.7-48.2-89-91.4-90.3-168.2-0.7-40.1 18.5-54.9 17.5-34.7z"  fill="#c2e1ff" /><path d="M-365.4-399.1c3.4 15.9-12.9 134.3-36.9 122.1-9.7-4.9-1.1-19.7 7.9-13.8 7.8 5.1 1.5 17.4-7.1 14.1-14.3-5.4 10.3-44.4 13.5-52.9 4.5-11.7 13.2-71.6 13.3-71.8 2.9-4.2 8.3-2 9.3 2.3z"  fill="#fff500" /><path d="M-363.4-215.3c-25.1 63.1-43.8 144.6-5.8 206.5 18 29.3 45.1 49.7 71.3 71.1 2.4 2 12.8 8.1 12.3 11.4-0.4 3.1-5.2 0.4-2.7-1.6 2.1-1.7 4 2.3 1.5 3-7.2 1.8-46.7-37.9-53.7-44.1-40.6-35.8-62.9-81.1-61.6-135.6 0.8-33.9 5.4-89 25.1-117.8 5.3-7.8 15.6-1.1 13.6 7.1z"  fill="#005bbb" /><path d="M-356-50.7c22.4 44.1 68 65 101.7 98.5 3.7 3.6 24.3 22.5 19.9 27.6-3.1 3.6-7.8-2.7-3.4-4.7 4.3-1.9 5.9 5.8 1.1 5.7-5.9-0.1-19.2-24.4-23.7-29.2-24.6-25.9-56.7-43.1-81.3-69-6.5-6.8-17.4-17-20.3-26.3-1.2-3.8 3.8-5.4 6-2.6z"  fill="#fff500" /><path d="M-340-202c-18.4 57.8-17 118.4 25.1 165.6 29.2 32.7 68 55 90.9 93.5 2.1 3.5 13.3 17.1 6.1 20-5.5 2.2-7.1-7.5-1.2-7.2 5.9 0.3 3.3 9.8-1.9 7-3.3-1.8-24.2-41.4-30.8-48.9-40-46.4-96.1-73.8-108.9-139.1-5.3-26.8-6.9-71.9 7.3-96.6 4.5-7.8 14.7-2.2 13.4 5.7z"  fill="#fff" /><path d=""  fill="#c2e1ff" /><path d=""  fill="#005bbb" /><path d="M-310.4-34.4c10 10.8 112.3 96 94.5 110.9-4.6 3.8-9.2-5-3.4-6.6 6.8-1.8 5.3 10.3-0.8 7-9.2-5-19-35.1-26.4-44.6-18.2-23.1-52.3-39.6-67-64.3-1.2-2.1 1.4-3.8 3.1-2.4z"  fill="#fff" /><path d="M-299 67.8c1.4 1.1 6.7 3.8 5.5 6.4-1.1 2.3-4.5-0.3-2.5-2 1.7-1.4 3.8 1.4 2 2.6-5.3 3.4-9.5-10-5-7z"  fill="#c2e1ff" /><path d="M-276.2-398c-0.2 96.7-79.9 175.2-75.1 273.2 1.4 28.4 11.1 55.1 28.3 77.7 2.8 3.7 25.7 25.1 24.3 27.9-1.2 2.4-4.6-0.4-2.5-2 2.4-1.9 4 3.2 0.9 2.9-11.9-1.1-32.7-32.9-38.9-42.1-66.2-99.7 20-207.7 45-304.7 2.6-10.2 1.5-27.7 6.7-36.4 3.5-5.8 11-2.3 11.3 3.5z"  fill="#fff" /><path d="M-275.6 24.9c10 7.9 46.3 34.2 45 48.7-0.4 4.9-8.2 2.4-5.7-1.9 2.5-4.2 8.5 1.3 4.4 4.1-5.4 3.8-17.9-20.9-21-24.7-7.4-8.8-32.4-32.5-22.7-26.2z"  fill="#fff500" /><path d=""  fill="#fff500" /><path d="M-251.4 5.6c11.1 11.5 48.3 50.9 43.1 68.8-1.8 6.2-11.2 1-6.9-3.8 4.2-4.8 10.6 3.7 4.7 6.3-7.4 3.3-17.6-30.7-20.6-35.9-6.7-11.8-30.5-44.3-20.3-35.4z"  fill="#005bbb" /><path d="M-236.4-99c5.2 31.3 62.6 152.8 50.5 175-3.9 7.1-14.1-1.7-7.6-6.5 6.5-4.8 12 7.5 4.1 9.1-10.2 2.1-13.1-46.7-14.8-54.1-9.7-42-32.7-79.4-41.7-121.5-1.4-6.3 7.5-7.8 9.5-2z"  fill="#fff500" /><path d="M-223.9-386.4c9.9 94.9-43.5 210.9-23.6 292.9 3.5 14.4 67.2 152.4 52 154.6-6.6 0.9-7.5-9.5-0.9-9.8 5.7-0.2 6.9 8.3 1.4 9.6-9.3 2.4-14.3-39.9-16.6-46.9-15.9-48.8-47.9-90.9-51.8-143.3-5.5-75.3 27.1-155.2 28.9-232.3 0.2-7.3-2.9-19.9 0.1-26.6 2.4-5.6 9.5-3.3 10.5 1.8z"  fill="#fff" /><path d="M-211.1-185c-13.7 86.8 9.5 123 23.8 203.1 1.4 8.1 13.1 60.4 1.7 60.9-7.3 0.4-7.2-11.1 0.1-10.6 6.2 0.4 6.7 9.6 0.5 10.6-11 1.8-10.5-46.7-11.5-54-7.1-51.1-30-99.1-32-150.9-0.7-18.2-2.3-45.4 4.7-62.6 3.1-7.5 12.9-3.7 12.7 3.5z"  fill="#fff500" /><path d="M-201.7 64.7c5.8 17.8-8.3 10.9-6 6.4 5.3-10.3 13.7 9.8 2.6 6.3-11.7-3.8-1.3-23.3 3.4-12.7z"  fill="#fff500" /><path d="M-188-290.7c-2.2 82.2-25.1 157.8-6.7 240 3.1 13.7 27.6 129.6 11.9 129.9-8.7 0.2-5.9-14 2.1-10.5 8 3.5-0.5 15.2-6.3 8.7-4.7-5.3-5.8-64.6-7.4-76-5.8-42.4-20.1-83.3-21.6-126.3-2-55.2 10.7-111.5 15.8-166.4 0.7-8 11.5-7.1 12.2 0.6z"  fill="#fff" /><path d=""  fill="#c2e1ff" /><path d="M-141.4-400c46.9 100.5 23.6 122.8 43.1 213.4 11.8 55 56.3 103.5 40.9 162.4-1.4 5.2-2.4 13.5-8.7 14.9-12.2 2.7-12.2-18 0-15.4 14.3 3.2 0 24.2-8.2 12.1-4.5-6.7 4.1-19 5.7-25.5 4.2-16.8 3.3-34.1-1.2-50.7-10.4-38.2-33.4-71.1-41-110.5-11.5-60-4.6-117.7-28.1-175.9-2.8-7.1-8.2-15.2-9.6-22.6-0.8-4.5 4.9-5.7 7.1-2.2z"  fill="#005bbb" /><path d="M-154.7-379.3c22.3 66.3 14.7 129.4 19.6 197.5 7.8 106.4 40.1 110.5-2.4 223.8-2.6 7.1-5.8 32.8-15.4 33.3-13 0.6-5.6-20.7 4.2-12.2 8.4 7.2-6.3 18.3-10.9 8.1-3.1-6.9 36.2-109.4 34.4-140-2.3-41.2-18.5-80.3-21.5-121.6-4.3-56.8 3.4-112.1-11.1-168.1-7.1-27.4 0.4-26.7 3.1-20.8z"  fill="#fff" /><path d="M-141.1-265.9c0.1 33.6-3.2 67.1-0.2 100.7 8.3 92.5 27.7 107.4-2.2 204-2.6 8.2-4.8 36.7-12.8 40.4-9.5 4.5-13.4-12.5-2.9-12.6 9-0.1 8.4 14.1-0.6 13.2-11.8-1.2-3.2-24.3-1.8-29.9 8.1-34.5 23.6-67.2 25-103.2 1.9-47.8-16.2-94.4-17.7-142.2-0.7-21.7-4-51 1.5-72 1.8-7 11-4.8 11.7 1.6z"  fill="#005bbb" /><path d="M-89.7-399.8c67.8 98.9 21.8 144.5 60.7 230.6 12.4 27.6 57.9 94.6 45 124.9-3.9 9.3-17.5-0.4-10-7.2 7.5-6.7 15.7 7.8 6.1 10.7-12 3.7-9.3-41.6-11.6-49.7-12.1-43.2-43.3-77.8-53-122.2-7.2-32.9-2.6-66.5-6.7-99.7-7.3-57.9-36.4-84.6-35.5-86.9 0.9-2.3 3.6-2.2 5-0.5z"  fill="#005bbb" /><path d="M-116.1 55.9c-3.4 5.8-11.4 33.2-22.5 23.2-6.6-6 1.3-16.7 9-12.3 7.7 4.4 2.4 16.6-6.2 13.9-12.5-4 1.2-31.4 7.5-35.6 7.7-5.2 15.1 3.4 12.2 10.8z"  fill="#fff" /><path d="M-108.3-363.5c25.3 55.1 17.1 111.2 31.1 168.3 20.9 85.2 95 132.8 23.3 221.9-8.1 10-24.8 37.3-37.1 40.7-12 3.3-16.1-15.9-3.8-17.9 12.3-2 14.3 17.6 1.9 18.2-6.4 0.3-11.2-6.1-9.2-12.1 13.9-40.7 77.8-57 66.5-130.6-6.8-44.5-40.1-80-51.8-123.2-12.9-47.5-5.4-97.6-21.2-144.7-1.8-5.3-7.4-13.8-7-19.4 0.3-4.2 5.5-4.3 7.3-1.2z"  fill="#fff500" /><path d="M-96-109.3c21.8 61.2 5 102.7-24.5 157-4 7.3-9.5 30.4-17.8 32.9-11.3 3.3-12.6-16.1-1-14.4 9.9 1.5 6.8 17-2.9 14.5-18.5-4.8 37.2-95.7 41.3-108.4 12.6-38.7-6.3-62.8-3.3-81 0.8-4.6 6.5-4.3 8.2-0.6z"  fill="#005bbb" /><path d="M-50.5-399.8c57.5 75.5 16.2 120.8 31.9 199.2 11.2 55.7 56.4 99.9 51.6 159.4-0.6 7.3-0.8 26.9-9.9 29.3-11.7 3.2-12.6-16.9-0.7-14.8 14 2.4 1.1 23.4-7.4 12-3.6-4.8 13.9-39.9 0.7-82.4-12.8-41.2-40.5-75.7-47.1-119.1-6.8-45.1 10.8-90.9-1.4-135.5-4.5-16.5-29.3-60.8-17.7-48.1z"  fill="#c2e1ff" /><path d="M-70.5-54.8c2 37.7-18.8 68.6-38.1 99-4.7 7.4-16.4 41.5-27.8 36.5-9.5-4.2-2.1-18.8 6.9-13.7 9 5.2 0.1 18.9-8.4 12.8-13.8-10.1 22-56.8 28.3-66.5 9.3-14.4 18.2-29.2 23.1-45.8 2.1-6.9 0.8-21.4 5.7-26.6 4-4.2 9.8-0.8 10.3 4.3z"  fill="#fff" /><path d="M-59-265.2c0.9 25.5 1.9 50.9 9.8 75.4 29.4 91.4 101.7 136.1 11.8 230-8.3 8.7-32.8 42.7-44.3 42.2-16.8-0.7-4.9-27.5 6.9-15.3 11.7 12.1-15.4 23.3-15.6 6.4-0.2-16.8 76-75.8 83.1-119.5 9.5-58.8-40.6-104.7-55.3-158.1-4.8-17.5-11.4-43.9-7.7-62 1.4-6.8 10.3-5.2 11.3 0.9z"  fill="#c2e1ff" /><path d="M-45.6 4.7c-7 12.2-55.6 83.6-67.5 76.1-9.7-6.1 0.8-20.8 9.8-13.7 8.9 7.2-3.1 20.6-11.3 12.5-11.4-11.3 46-80.8 57.4-87.2 8.4-4.7 15.2 4.8 11.6 12.3z"  fill="#fff" /><path d="M-33.9 0.5c-6.9 13.1-60.3 88.7-72.9 80-9.6-6.6 1.6-21.2 10.5-13.6 8.9 7.6-3.9 20.9-11.9 12.4-7.2-7.7 49.2-82.7 62.6-90.7 8.1-4.9 15.1 4.4 11.7 11.9z"  fill="#005bbb" /><path d="M-26.6-389.6c38.9 60.1 4.2 119.7 13.4 183.9 11.7 81 86.1 135.2 31 221.7-5.9 9.2-19.7 32.7-31.5 34.2-18.2 2.4-10.4-28.6 4.5-17.8 14.9 10.8-12.1 27.9-15.5 9.9-2.2-11.9 23.4-30.2 29.9-39.5 15.8-22.6 23.3-49.5 20-76.9-6-50.2-42.8-90-50-140.1-7-48.6 16.3-97.2 3.5-145.3-2.3-8.6-11-20-11.3-28.4-0.1-3.5 4.2-4.1 6-1.7z"  fill="#fff500" /><path d="M-12.9-78.9c12.3 44.6-7.7 84.4-37.4 116.7-7.5 8.1-37.3 51.3-48.6 42.9-8.2-6.1-0.5-19.3 8.9-15.1 10.9 4.9 2.2 21.7-8.1 15.6-17.8-10.4 55.3-80.3 62.7-92.5 21-34.7 6.8-46.8 13.1-68.1 1.5-5.1 7.9-3.9 9.4 0.5z"  fill="#fff" /><path d="M-0.7-205.8c8.6 97.5 102.1 148.6 3.9 252.5-8 8.5-30.6 38.1-42.5 36.2-17.8-2.8-1.8-29.7 9.1-15.5 10.9 14.3-19.1 22.8-17.2 4.9 1.2-11.6 70.2-66 79.5-110.1 11.5-55-24.4-98.7-39-148.7-7.6-26.2 4.2-26.5 6.2-19.3z"  fill="#fff500" /><path d="M12.5-315.9c-5 36.5-20 71.2-16.4 108.8 9.6 99.7 103.6 150.5 4.2 254.2-8.1 8.4-30.6 37.9-42.5 36.1-17.7-2.7-1.9-29.6 9-15.5 11 14.2-19 22.8-17.2 5 1.3-12.9 72-65.9 80.9-113 12.2-64.8-40.9-115.1-46.2-177.3-1.7-19.9 4.7-88.4 16.3-103.5 4.5-5.9 12.2-1.2 11.9 5.2z"  fill="#fff" /><path d="M21.5-165.4c28.5 86.4 63.9 137.8-10.7 217.3-7.3 7.8-25.7 33.2-37.2 31.2-17.8-3-1.5-29.9 9.3-15.4 10.9 14.4-19.5 22.7-17.4 4.8 0.8-7 63.8-66.5 73.6-99.4 14.7-49.3-9.2-90.7-25.4-135.7-1.9-5.2 5.4-7.5 7.8-2.8z"  fill="#005bbb" /><path d="M36.7-248.3c-47.3 105.8 91.3 179.4-15.2 300.1-6.9 7.8-24.3 33-35.8 31.1-17.8-3-1.5-29.9 9.3-15.4 10.9 14.4-19.4 22.7-17.4 4.8 0.4-4 59.9-65.8 69.3-97.6 19-64.4-26.5-114.3-31.8-175.8-1.3-15.6-1.4-40.8 7.9-54.3 5.4-7.9 15.7-1.1 13.7 7.1z"  fill="#fff" /><path d=""  fill="#fff500" /><path d="M57.5-93.1c16.9 59.3-5.2 113.1-46.6 156-6.1 6.3-18.3 25.1-28.9 19.4-10-5.3-3.7-21 7.2-17.9 12.7 3.6 6 23.3-6.3 18.4-21-8.4 43.5-61.2 57-90.3 19.7-42.3 3.3-65.7 8.5-85.7 1.3-5 7.5-4.1 9.1 0.1z"  fill="#fff500" /><path d=""  fill="#fff500" /><path d="M83.4-12c-3.6 15.8-37.3 103.7-60.2 93.9-11.6-5-2.8-22.9 8.2-16.7 11 6.2 0.3 23-10 15.7-13.5-9.7 16-35.7 21.5-43.6 10.1-14.5 18.7-46.1 28.3-56.3 5.5-5.8 13.3 0.2 12.2 7z"  fill="#005bbb" /><path d="M95.3 4.4c-3.8 13-27 82.4-44.7 77.1-11.3-3.3-5.1-20.9 5.8-16.3 10.9 4.5 2.8 21.3-7.6 15.6-12.3-6.7 4.7-24.8 8.6-31.3 8.4-14.2 14.4-42 25.7-52.9 6-5.7 13.7 0.8 12.2 7.8z"  fill="#fff500" /><path d=""  fill="#fff500" /><path d=""  fill="#005bbb" /><path d="M130.8-315.2c-27.5 36-69.3 67.7-74.9 115.7-10.2 87.8 68.8 130.1 0.9 239.4-6.6 10.6-22.1 39.7-35 42.7-12.5 2.8-15.8-17.1-3.1-18.6 14.9-1.7 12.3 23-1.9 18.3-18.9-6.3 10.2-32.1 14.8-37.9 18.2-23.1 32.6-49.1 38-78.2 13.3-71.4-46.4-137.5-17.4-207.2 7.9-18.9 49.8-80.8 67.6-88.5 9.4-4.1 15.6 6.8 11 14.3z"  fill="#005bbb" /><path d="M142.3-232.1c-18.3 54.3 10.9 101.8 17.8 154.9 5.4 41.5-5.2 80.6-12.2 121.1-1.2 7 0.3 33.4-8.2 35.5-7.9 1.9-10.3-10.7-2.3-11.8 8.1-1.1 9.1 11.8 1 12-15.5 0.3 10-110.7 11-123.6 4.3-54.4-24-101-25.6-154-1.4-46.4 21.6-55 18.5-34.1z"  fill="#005bbb" /><path d="M153.5 47.7c-1 6.5 1.9 31.9-8.4 31.4-7.9-0.4-6.6-12.9 1.2-11.6 6.7 1.1 6.2 11.2-0.6 11.6-11.1 0.6-7.4-30.8-4-35.8 4-5.9 11.8-1.8 11.8 4.4z"  fill="#fff500" /><path d="M164.3-397.1c-10.2 85.1-109.5 126.6-110.9 206.5-1.1 66.3 43.5 112.7 22.8 184.3-2.1 7.2-5 26.1-15.7 24.4-12.7-2-4.9-21.9 5.8-14.7 10.7 7.2-4.8 21.9-11.4 10.9-1.4-2.3 14.6-52.7 15.4-63.5 4.7-59.6-38.8-113.1-26.2-172.5 11.2-52.8 58.9-84.8 86.7-128 6.6-10.3 17.8-50 22.7-53.8 5.2-4.1 11.1 0.7 10.8 6.4z"  fill="#005bbb" /><path d=""  fill="#005bbb" /><path d="M187.1-226.1c8.1 55.6 61.4 89.1 77.6 141.4 16.3 52.3-16.3 96.2-17.3 147.3-0.1 3.1 1.9 21.5-7.8 15.1-5.1-3.4-0.9-11.4 4.8-9.2 4.8 1.9 4.1 9.1-1 10-9.4 1.6-7.6-17.3-7.7-22-0.7-44.3 26.6-84.1 21.8-128.7-5.3-48.7-45.5-80.5-67.7-121.2-16.3-29.9-7.4-45.8-2.7-32.7z"  fill="#c2e1ff" /><path d="M200.2-275.9c-5.5 78.6 61.3 106.6 99.1 163.7 31.1 46.9 15.4 93-1.5 141.5-2.8 8.2-6 47.2-13.1 49.3-10.1 3.1-8.6-15.3 0.9-10.5 9.5 4.7-4.3 17-7.9 7-14.1-38.6 33.7-101.8 28.1-147.8-7.7-63.7-74.7-91.3-103.4-143.3-8.7-15.8-19.1-43.2-14.1-61.6 1.9-7.1 11.2-4.8 11.9 1.7z"  fill="#fff" /><path d="M212.7 11.4c-3.5 15.5-2.9 61.6-7.6 66-5.9 5.5-12.7-6.1-5-8.6 7.7-2.5 8.9 10.9 0.9 9.9-14.1-1.8-5.7-62.8-1.4-71.7 3.7-7.7 13.7-3.1 13.1 4.4z"  fill="#c2e1ff" /><path d=""  fill="#005bbb" /><path d=""  fill="#fff" /><path d="M245.6-340.2c6.9 26.5 14.5 52.8 29.9 75.8 62.2 93 201.3 125.6 122.8 280.4-4.4 8.6-15.6 42-27.3 40-9.3-1.6-8.4-15.7 1.1-16.1 9.4-0.4 11.5 13.5 2.4 15.9-23.8 6.3 15.9-60.6 18.8-66.8 14-30.4 19.6-62.6 9.8-95.3-22.1-73.8-96.6-102.3-137.2-162.2-12.3-18.1-28.7-47.9-29.3-70.4-0.1-5.6 7.1-5.9 9-1.3z"  fill="#fff" /><path d="M258.2-70.5c7.7 42.5-14.5 80.3-18.7 121.6-0.6 5.7 4 26.8-4.9 27.5-7 0.5-7.2-10.5-0.3-10.3 7 0.2 6.1 11.3-0.8 10.3-16.8-2.4-1-64.9 1.7-74.8 4.1-14.8 8.8-29.5 11.2-44.8 1.4-9.1-1.6-22.8 1.7-31 2.2-5.4 9-3.5 10.1 1.5z"  fill="#fff" /><path d="M268-386.5c18.8 38.8 29.5 81.3 52.1 118.2 47.5 77.4 146.2 142.3 112.8 246.7-3.6 11.2-12.1 42-23.8 47.1-14.4 6.3-15.3-21.1-0.5-15.7 14.8 5.3-3.4 25.8-10.4 11.7-5.7-11.3 20.1-46.1 23.9-58.4 7.8-25.2 6.7-51.3-1.4-76.3-21.8-67.3-81.8-108.3-115.7-168.2-14.7-26.1-38.3-74.2-43.9-102.9-0.9-4.4 4.8-5.6 6.9-2.2z"  fill="#fff500" /><path d="M278.2-249.5c66.7 82.9 189.8 117.3 117.4 263.7-3.9 7.9-32.8 65.8-33.9 66.1-12.8 4.2-11.4-19.2 0.9-13.4 12.2 5.8-5 21.7-9.9 9.1-5.9-15.2 60.2-110.5 49.8-167.7-12.5-68.5-73-100.7-118.6-145.4-1.6-1.5-12.4-18.4-5.7-12.4z"  fill="#fff500" /><path d="M325.6-399.2c25.7 110.9 10.5 111.3 78.5 213.3 7.9 11.8 66.2 108.9 44 116.8-8.3 3-10.2-11.5-1.4-10.7 8.8 0.8 4.4 14.7-3.2 10.3-0.6-0.3-7.2-43.2-22.2-74.2-24.9-51.7-67.5-93.6-85.4-148.9-8.8-27.2-20.8-77.7-19.8-105.7 0.2-5.9 7.8-5.8 9.5-0.9z"  fill="#c2e1ff" /><path d="M304-371.3c14.3 39.9 21.6 81.2 43.9 117.9 30.3 50 73.6 90.6 91.6 147.6 5.5 17.2 8.3 35.3 7 53.4-1.2 16-26.6 107-49 101.4-9.6-2.4-7.6-17 2.3-16.7 9.8 0.3 11 14.9 1.4 16.8-24.2 4.6 17.4-59.3 20.4-65.9 13.5-29 16.8-59.4 8.2-90.3-19.7-70.9-81.1-117.5-109-184.1-9.5-22.7-23-54-25-78.5-0.4-5.2 6.3-5.8 8.2-1.6z"  fill="#fff500" /><path d="M314.8-285.6c53.5 109.5 179.5 161.5 101.4 304.6-4.5 8.3-32.5 61.2-35.6 62-13.8 3.4-10.4-21.1 1.9-14.1 12.3 7-6.9 22.4-11.1 8.9-4.7-15.3 64.8-106.1 56.5-164.8-11.2-78.5-80.7-125.6-117.6-190.7-2.6-4.5 0.6-11.6 4.5-5.9z"  fill="#005bbb" /><path d="M329.7-48.5c-0.4 33.7-17.5 62.8-26.6 94.4-1.8 6.2-1.4 37.5-12.8 32.9-6.3-2.5-3.5-12.3 3.2-11.2 7.8 1.3 5.1 13.5-2.6 11.4-18.1-5.1 9.1-70.3 13.2-80.9 5.5-14.3 6.4-38.3 14.2-50.4 3.7-5.8 11.2-2.1 11.4 3.8z"  fill="#005bbb" /><path d="M345.5-398.5c2.2 49.4 0.3 99.4 21.9 145.3 30 63.6 88.6 118.2 88.3 193.2 0 6.4 1.7 29.6-10.6 26.3-7.8-2.1-6-14.1 2.2-13.7 8.1 0.4 8.9 12.5 0.8 13.9-14.4 2.5-4.9-24.1-4.5-29.6 1.4-21-3.5-41.8-10.9-61.4-22.5-58.9-70.5-104.8-87.8-165.8-8.6-30.3-17-77.9-10.6-109.1 1.4-6.8 10.2-5.2 11.2 0.9z"  fill="#c2e1ff" /><path d="M353-55.8c1.6 37.5-17.9 69.3-29.4 103.6-2 6-3.3 36.7-14.8 31.1-6.5-3.1-2.9-13.3 4.1-11.6 8.2 2 4.4 14.7-3.5 11.9-13.3-4.7 3.3-46.4 6.5-54.8 6.6-17.6 15-34.5 20.2-52.6 2.3-7.9 1.1-26.1 6.6-31.9 4-4.2 9.8-0.7 10.3 4.3z"  fill="#c2e1ff" /><path d="M365.9-12.5c-3.8 12.2-32.3 94-40.2 92.5-8.7-1.7-5.3-15.2 3.1-12.6 8.5 2.6 3.7 15.7-4.5 12.2-16.7-7.2 21.1-88 28.2-98.8 5.1-7.7 15.2-1.3 13.4 6.7z"  fill="#fff" /><path d="M376.1-68.3c4.8 36.7-11.1 70.1-25.7 102.6-3.4 7.6-12.5 51.3-23.6 44.8-6.6-3.9-1.9-14.3 5.3-12 8.5 2.8 3.5 15.9-4.7 12.3-17.8-8 22.5-82.2 27.2-94.2 6.4-16.6 5-42.5 11-55.5 2.6-5.5 9.6-3.2 10.5 2z"  fill="#fff" /><path d="M385.6-118.5c30.9 56.7 6.8 109.4-18.4 162.3-3.7 7.8-8.5 33-16.5 36-10.4 4-13.1-14.3-2-13.5 9.5 0.7 7.7 15.6-1.7 13.9-18.2-3.2 34.3-104 37.8-117.1 8.1-30.2-11.1-101 0.8-81.6z"  fill="#c2e1ff" /><path d="M397-136.6c38.4 61.9 18.2 119.4-12.9 178.7-4.2 8-11.2 35.8-19.9 38.5-9.4 3-13.4-12.1-3.6-14.1 11.4-2.3 11 16.9-0.3 14.2-16.3-3.9 41.1-111 44.5-125.9 3.8-16.8 3.9-34.3 0.3-51.1-2.6-11.8-14-27.3-14.3-38.6-0.1-3.6 4.3-4.2 6.2-1.7z"  fill="#005bbb" /><path d="M412.4-295.3c-14.2 76.7 52.5 142 67.7 213.8 9.9 47-9.2 85.3-33.1 124.3-4.9 8.1-18.6 44.7-31 37.8-8.3-4.6-2.8-17.6 6.2-14.9 9.1 2.7 6.5 16.6-2.9 15.9-16.2-1.2-0.8-23.9 2.3-29.5 19.9-36.4 49.3-70.9 49.7-114.4 0.7-66.1-49.2-120.8-66.6-182.2-4.2-14.7-10.5-38.8-5-53.8 2.8-7.5 12.6-4.1 12.7 3z"  fill="#005bbb" /><path d="M422-238.3c28.9 119.3 110.5 151.7 31 282-4.9 8.1-16.6 39.7-27.9 37.6-9.3-1.8-8.2-15.9 1.3-16.3 11.1-0.3 10.7 17.2-0.4 16.4-16.6-1.3-0.1-25.1 3-30.7 20.3-36.5 49.1-71.3 47.7-115.4-1.7-55.2-37.9-104.1-57.4-154-1.9-4.9-7.2-13.8-6.1-19.2 1-4.9 7.1-4.3 8.8-0.4z"  fill="#fff" /><path d="M433.2-215.5c17.6 49.4 50.4 94.5 58.2 147.2 6.1 41.4-11.4 76.2-32.2 110.6-4.7 7.7-19 45.4-31.5 38.4-8.3-4.7-2.7-17.7 6.4-14.9 9.1 2.8 6.4 16.7-3 15.9-16.6-1.3-0.1-25.1 3-30.6 19.4-35 46.7-68.5 46.9-110.5 0.1-53.3-34.3-102.6-54.1-150.3-2.3-5.6 2.7-12.6 6.3-5.8z"  fill="#fff500" /><path d="M448.4-17.1c-5 14.3-47.3 103.9-60 97.8-11.2-5.4 1.6-21.7 9.5-12 6.8 8.2-6.8 18.2-12.6 9.3-6.6-10 12.7-35.8 17.6-44.5 7.6-13.1 23.6-51.3 33.3-59.4 6.6-5.5 14.2 1.7 12.2 8.8z"  fill="#c2e1ff" /><path d="M458.7-256.3c-1.7 121.5 116.9 165 52.9 303.8-3.5 7.7-10.2 35.1-21.1 33.9-9-1-9-14.5 0-15.5 10.5-1.1 11.4 15.6 0.8 15.5-15.5 0-2.3-22.8 0.1-28.3 14.5-32.9 32.4-65 29.3-102.2-4.7-57.2-45.6-106.9-63.7-160.4-4.4-13.1-12.4-33.6-9.7-47.6 1.3-6.9 10.3-5.3 11.4 0.8z"  fill="#fff500" /><path d="M472.1 47.3c-4.3 7.4-15.5 40-27.8 33.1-9.7-5.4-0.3-20.2 8.7-13.8 10.6 7.5-5.4 22-11.8 10.7-4.5-8 12.6-39.6 20.8-42.4 8-2.7 12.9 5.7 10.1 12.4z"  fill="#c2e1ff" /><path d="M479.8-155.6c34.1 72.5 57.7 118.4 17.7 195.7-5 9.7-12.7 35.3-22.3 40.4-9.6 5.2-16.9-10.4-6.9-14.5 11.8-4.8 15.4 16.1 2.7 15.4-14.8-0.7-3.1-19.9-0.4-25.5 14.7-30.1 34.6-59.3 37.5-93.6 2.4-28.4-7.5-55.5-19-81-2.9-6.4-19.4-30.9-15.8-37.1 1.6-2.7 5-2.1 6.5 0.2z"  fill="#c2e1ff" /><path d="M495.1-295.5c-8.2 30-6.4 60.8 2.9 90.3 31.2 99 97.5 136 80.2 252.2-1.1 7.1 0.2 31.1-9.2 32.6-11.8 1.9-7.3-18.3 2.5-11.6 8.4 5.7-3.9 17.3-9.1 8.6-5.1-8.5 9.3-85.2 6.7-104.9-9.5-72.7-69.7-127.5-86.5-198.6-4.8-20.2-10.4-53.6-0.7-73.2 3.8-7.7 13.9-3 13.2 4.6z"  fill="#fff" /><path d="M504.1-210.3c30 104.7 98.5 133.7 88.4 258.7-0.5 6.5 2.2 28.8-6.5 30.8-11 2.6-8.1-16.9 1.7-11.2 8.3 4.9-2.6 16.6-8.1 8.8-1-1.4 2.4-98-2.2-116.8-13.2-53.5-51.6-96.4-73.3-146.4-12.9-29.8-2.6-29.4 0-23.9z"  fill="#fff500" /><path d="M516.3-226.1c10.1 49.4 86.1 159 86.4 180.2 0.1 6.7-10.7 4.4-8-1.7 3.2-7.1 12.7 2.6 5.5 5.6-6.6 2.7-23.3-43.7-27-50.3-23.6-42.3-51.7-81.4-65.1-128.6-1.9-6.8 5.2-13.2 8.2-5.2z"  fill="#fff" /><path d=""  fill="#fff500" /><path d="M541.1-33c1.1 15-18.6 121.9-38.9 113.3-8.1-3.4-4.4-16.1 4.3-14.5 10.2 1.9 6.4 17.7-3.6 14.8-14.3-4.3 5.9-38.3 9-45.8 5.6-13.6 16.7-68.9 19.1-71.6 3.7-4.3 9.5-1.1 10.1 3.8z"  fill="#fff500" /><path d=""  fill="#fff" /><path d="M564.9-286.8c-2.4 46 6 89.9 24.2 132.1 2.4 5.5 15.7 25.2 12.6 30.7-2.8 4.9-9.8-1.4-5.2-4.7 4.6-3.3 8.3 5.4 2.7 6.4-8 1.5-22.6-41.9-25.3-48.7-12.6-31.5-30.5-83.3-20.9-117.6 2-7.1 11.3-4.7 11.9 1.8z"  fill="#fff" /><path d="M573.7-152.6c3.3 6.5 32.4 53.4 26.4 56.3-4.2 2-6.9-4.8-2.5-6.3 4.4-1.5 6.4 5.5 1.8 6.5-5.6 1.3-10.2-13.7-12-17-6.2-11.2-17.2-24.8-20.2-37.1-1-4.1 4.3-5.5 6.5-2.4z"  fill="#fff500" /><path d="M585.2-96.6c2.7 4.6 22.9 33.9 14.8 37-4.8 1.8-7.3-5.9-2.3-7.2 5-1.3 6.6 6.6 1.5 7.4-5.2 0.8-20-30.4-20.1-35.5-0.1-3.6 4.3-4.2 6.1-1.7z"  fill="#fff" /><path d="M597.4-74.5c12.8 24.9-6.2 9.4 0.3 7.6 6.8-1.8 5.3 10.4-0.8 7-10.9-6-4.2-22.1 0.5-14.6z"  fill="#005bbb" /><path d=""  fill="#005bbb" /><path d=""  fill="#fff500" /><path d=""  fill="#c2e1ff" /><path d=""  fill="#c2e1ff" /><path d=""  fill="#fff500" /><path d=""  fill="#fff500" /><path d=""  fill="#005bbb" /><path d=""  fill="#fff500" /></svg>