<svg width="1200" height="675" viewBox="-500 -500 1200 675" xmlns="http://www.w3.org/2000/svg"><path d="M-500-500h1200v675h-1200z" fill="#000"/><path d=""  fill="#c2e1ff" /><path d="M-396.7 49.3c2.3 3.8 15.3 23.2 10.4 26.6-3.2 2.2-6.4-2.9-3-4.8 3.4-1.9 6 3.6 2.5 5.1-8.1 3.4-14.9-34-9.9-26.9z"  fill="#c2e1ff" /><path d=""  fill="#005bbb" /><path d=""  fill="#fff" /><path d=""  fill="#005bbb" /><path d=""  fill="#fff" /><path d="M-398-30.9c18.8 14.1 38.7 26.8 55.8 43 8 7.5 48.6 51.4 38.9 63.4-2.6 3.2-7.3-1.1-4.4-4 2.9-2.9 7.2 1.9 4 4.4-5.6 4.5-8.3-12.8-9.3-15.1-5.6-14.5-13.9-27.8-24.1-39.6-17.2-19.7-39-34.3-60-49.5-0.2-0.1-3.5-4.1-0.9-2.6z"  fill="#005bbb" /><path d=""  fill="#fff" /><path d="M-398-44.3c3 2.3 33 23.5 32.5 24-2.2 2.8-6.2-3.5-9.1-5.5-8.2-5.7-32.1-23.5-23.4-18.5z"  fill="#fff" /><path d=""  fill="#005bbb" /><path d="M-397.8-42.5c22.2 17.1 46.7 31.1 67.2 50.3 8.4 7.9 50.7 54.8 40 67.4-2.7 3.2-7.5-1.3-4.5-4.2 3-2.9 7.3 2.1 4 4.7-5.9 4.5-8.3-13.5-9.2-16-6.1-16.7-15.5-32-27.5-45.2-19-21-43.2-35.7-66-52.1-1.7-1.2-5.9-6-4-4.9z"  fill="#c2e1ff" /><path d="M-397.7-73.4c28.8 28.5 67 45.3 94.6 75.3 8.3 9 47.7 61.4 35.8 73.8-3.6 3.8-8.4-3.4-3.5-5.3 5.7-2.2 5.6 8.3-0.1 6.1-4.7-1.9-5.8-18.7-7.3-23.4-5.5-16.9-13.9-32.7-25.1-46.6-25.1-31.2-61.5-48.4-91.3-74.1 0 0-7.2-8.8-3.1-5.8z"  fill="#fff500" /><path d="M-397.2-97.2c38 53.7 106 71.7 131.6 137.2 2.3 5.8 13.4 30.8 8.3 35.8-3.8 3.8-8.5-3.8-3.5-5.6 5.9-2.1 5.5 8.8-0.3 6.3-4.9-2.2-5.6-20.7-7-25.7-5.1-18.2-13.3-35.4-24.6-50.5-27.4-36.7-70.6-55.3-101.3-88.5-1.2-1.3-7.9-13.7-3.2-9z"  fill="#fff500" /><path d="M-393.2-158.5c1.8 19.8 9.1 38.4 20.9 54.3 27 36.4 69.5 57.5 95.7 94.8 6.1 8.7 43.5 79.7 28.8 86.1-3.7 1.6-6.8-3.6-3.4-6 3.8-2.8 7.9 3.5 3.8 5.8-7.2 4.1-7.3-16.6-7.9-19.5-3.9-20.7-10.6-40.9-21.4-59.1-26.4-44.7-75.8-66.8-104.9-108.8-9.6-13.9-16.2-29.9-18.6-46.6-0.7-4.6 5.9-5.3 7-1z"  fill="#005bbb" /><path d=""  fill="#005bbb" /><path d="M-376.8-187.1c-0.5 26.7 5.7 52.3 20.9 74.6 42.5 62 95 77.5 112.3 161.3 1 5.1 7 23.4 2.7 27.2-3.7 3.2-8.4-2.9-4.4-5.6 4-2.8 8 3.8 3.7 6.1-7.3 3.9-6.7-14.3-7.1-17.2-3.1-20.9-8.3-41.4-17.3-60.6-24.2-51.4-78.1-77.8-104.3-127-8.2-15.3-18.4-41.8-14.3-59.6 1.1-4.7 7.2-3.4 7.8 0.8z"  fill="#fff" /><path d="M-372.5-38.5c35.7 24.5 71.3 48.9 88.7 90.4 1.8 4.3 9.8 19.6 6.2 23.5-2.9 3.2-7.7-1.6-4.4-4.5 3.2-2.9 7.5 2.4 3.9 5-6.1 4.4-7.9-13.3-8.6-15.7-5.4-17-13.8-32.8-25.1-46.6-15.7-19.3-35.9-33.7-56.3-47.6-1.7-1.2-6.3-5.6-4.4-4.5z"  fill="#c2e1ff" /><path d="M-360.4-276.2c-10.1 55.7-21.9 117.3 14.1 166.4 22.7 31 55.1 53.4 76.2 85.7 6.7 10.2 46.5 93.9 29.9 100.6-5.3 2.1-6.9-7.2-1.1-6.9 6.7 0.3 1.8 10.9-2.8 6.1-3.2-3.3-11.8-59.4-16.2-70.7-24.9-63.2-96.4-95-113.9-161.2-7.6-28.9-7.1-95.1 5.1-122.7 2.3-5.1 9-2.3 8.7 2.7z"  fill="#fff500" /><path d="M-352.5-335.3c-10.5 65.3-40.8 150.2-5.8 212.4 35.5 63 93.8 80.8 113.5 161.1 1.9 7.6 9.7 30.1 5.6 37-2.9 4.9-9.8-1.6-5.1-4.8 4.7-3.2 8.3 5.5 2.6 6.5-2 0.3-18.7-69.5-22.7-78.3-27.8-61.3-100.4-92.3-114.3-160.8-4.9-24.2 5.3-159.6 18.1-176.5 3-4 8.3-0.9 8.1 3.4z"  fill="#005bbb" /><path d="M-345.1-203.1c-0.3 24.3 4 48.2 15 70 19.9 39.5 55.5 68 74.7 108.2 5.2 10.9 36.2 96.3 21.5 101.8-6.4 2.4-6.2-9.5 0.2-6.9 5.4 2.3-0.3 10.2-4.2 5.9-3.3-3.7-11.6-70.7-16.2-83.8-18.8-53.6-66.6-87.5-87.8-139.1-6.3-15.2-14.8-40.3-11-56.9 1.1-4.7 7.2-3.4 7.8 0.8z"  fill="#fff500" /><path d=""  fill="#005bbb" /><path d="M-332.6-46.7c35.3 26.7 63.5 57.9 75.2 101.5 1.2 4.5 5.9 15.7 3.7 20.1-2.1 4.1-8.4 0.4-5.9-3.5 3-4.5 9.2 2 4.7 4.8-1.6 1-3.9 0.4-4.8-1.3-10.1-18.6-9.6-45-23.5-67.6-12.6-20.3-29.9-36.5-48.6-51.2-0.2-0.2-3.4-4.3-0.8-2.8z"  fill="#005bbb" /><path d="M-323.2-133.1c36.2 71.9 77.3 86.4 90.1 178.8 0.8 5.6 6.3 26.9 1.6 30.7-3.9 3.1-8.6-3.3-4.3-6 4.2-2.7 8.1 4.2 3.6 6.4-8 3.9-6.6-17.7-6.9-20.9-2.6-26.6-7.7-53-17.6-77.8-15.8-39.6-46.3-68.2-67.7-104.2-1.4-2.4-2.8-12.7 1.2-7z"  fill="#c2e1ff" /><path d="M-315.2 46.9c2.4 4.2 15.6 25.6 10.2 29.1-3.4 2.2-6.6-3.4-3-5.2 3.6-1.8 6.2 4.1 2.4 5.5-9.7 3.5-15.4-37.9-9.6-29.4z"  fill="#005bbb" /><path d=""  fill="#c2e1ff" /><path d="M-296.6-386.6c-22 77.7-70.1 162.5-35.7 244.4 23.1 55 72.8 90.6 90 149.8 1.2 4.2 10.2 27.4 2.9 28.3-6.2 0.8-3.5-9.8 1.6-6 5.1 3.7-4.2 9.5-5.3 3.3-19.1-107.8-116.9-147.8-107.2-263.4 3.6-42.3 16.6-82.1 31.2-121.7 2.8-7.5 8.6-38.3 16.3-40.8 4.1-1.3 6.9 2.4 6.2 6.1z"  fill="#fff" /><path d="M-291.9 7.9c5.5 7 39.7 62.5 27.7 68.6-4.7 2.4-6.9-6.1-1.6-6.2 4.5-0.2 4.4 6.9-0.1 6.6-5.4-0.4-5.7-15.5-6.8-19.3-4.7-17.1-31.3-62.6-19.2-49.7z"  fill="#005bbb" /><path d="M-280.7-267.6c-27 82.8 12.5 129.4 38.1 203.2 14.9 42.9 18.9 88.7 20.9 133.8 0.3 7.3-7.9 10.5-7.5 3.8 0.6-9.9 14.1 3.1 4.2 4.1-5 0.5-10.1-81.5-11.8-91.8-10.5-64.2-53.3-117.9-60.2-182-2.3-21.1-3.9-55.9 7.3-75 3.1-5.3 10-1.4 9 3.9z"  fill="#fff" /><path d=""  fill="#c2e1ff" /><path d="M-279.7-397c-20.9 77-70 146.6-51.1 230.4 8.1 35.9 31.3 63.2 52.3 92.4 1.9 2.6 5 10.7 2.2 9.4-8.6-4 10.3 0.2 0.8 0.2-4.8 0-18.3-24.3-21.5-28.6-37.1-49.4-51.9-98.1-42-159.9 6.4-39.7 22.5-75.8 37.5-112.7 2.9-7.1 8.3-34.9 15.5-37.3 4-1.3 6.9 2.4 6.3 6.1z"  fill="#005bbb" /><path d=""  fill="#fff500" /><path d="M-251.2-91c13.9 32 39.4 132.6 29.9 165.3-2 6.8-11.8-0.8-5.6-4.4 5.2-3.1 8.4 6.5 2.3 7.1-5.7 0.5-8.8-73-10.1-82.5-2.7-19.9-6.5-39.7-12.4-58.8-1.7-5.6-10.8-21.3-9-26.6 0.8-2.4 3.8-2.1 4.9-0.1z"  fill="#fff" /><path d="M-242.9-19.9c4.4 13.2 21.5 86 15.4 95.3-3.3 5-10.2-2.1-5.1-5.2 5.1-3.1 8.3 6.2 2.4 6.9-7.5 0.9-6.6-34.4-7.3-40.1-2.2-18.9-13.1-74.3-5.4-56.9z"  fill="#fff" /><path d="M-245.1-397.3c-21.2 78.7-79.8 139.7-60.3 227 8.7 39 34 70.1 50.9 105.5 1.2 2.4 10.9 17.9 3.7 17.9-13.6 0 13.5-5.9 1.2-0.3-4.2 1.9-5.7-6.8-6.6-8.8-31.1-75.6-75.7-114.7-56-204.3 0.1-0.5 51.5-140.1 60.8-143.1 4.1-1.3 6.9 2.4 6.3 6.1z"  fill="#fff500" /><path d="M-226.5-86.6c6.1 29.6 18.4 135.3 10.2 161.3-1.9 5.9-10.8 0.8-6.6-3.8 4.9-5.4 10.4 6 3.2 6.5-8 0.6-4.7-39.8-4.9-46.2-0.7-32.7-10.1-90.8-8.5-117.4 0.2-4.1 5.5-3.9 6.6-0.4z"  fill="#c2e1ff" /><path d="M-217-369.2c-26.7 76.5-71.7 123.9-46.1 210.9 8.6 29.2 21.9 56.8 29.5 86.4 3.6 13.9 22.8 143.5 10.8 143.2-6.2-0.2-3.7-10.1 1.8-7.4 5.5 2.7-0.9 10.7-4.7 5.9-3.4-4.2-3.9-69-4.9-80-7.5-79.3-54.8-157.3-47.5-227.1 3.8-36.3 31.3-106.4 52-136.6 3.6-5.2 10.5-0.7 9.1 4.7z"  fill="#c2e1ff" /><path d="M-209-348.9c-17.4 43.1-41.9 82.9-42.6 130.8-0.7 43.2 17.2 82.8 25.8 124.4 6 28.9 7.5 58.4 8.5 87.8 0.4 9.5 5.1 83.8-2.4 83.5-6.2-0.2-3.6-10.2 1.9-7.3 5.5 2.8-1 10.8-4.8 5.9-3.7-4.7-2.1-75.9-2.6-87.8-1-27.9-2.4-55.9-7.6-83.4-9.5-49.3-31.3-95.2-25.7-146.6 3.8-34.7 19.2-84.3 40.3-112.6 3.9-5.2 10.8-0.3 9.2 5.3z"  fill="#c2e1ff" /><path d="M-211.9-397.5c-15.8 74.3-72.6 130.7-61.1 211.3 6.7 47 34.3 87.9 42.2 134.7 1.2 7.2-10.8 2.6-5.4-1.9 4.8-3.9 8 6.3 1.9 5.9-5.4-0.4-11.6-37.7-13.6-43.9-17.3-52.1-41.4-98.1-32.6-154.8 5.4-34.3 21.2-64.7 36.6-95.5 4.9-9.8 17.6-58.3 25.7-61.3 3.8-1.5 6.7 2 6.3 5.5z"  fill="#005bbb" /><path d="M-193.6 45.6c-0.9 5.7-0.1 30.3-6.4 31.7-6.5 1.4-6.4-9.6 0-8.2 5.5 1.3 3.1 9.8-2.2 8-13.6-4.7 9-55.8 8.6-31.5z"  fill="#c2e1ff" /><path d="M-185.6-83.2c-6.6 39.8-15.5 78.6-18.7 119-0.5 6.2 1 42.5-6.5 41.9-12.5-0.9 7.2-15.3 4.2-3-2.1 8.9-8-1.4-7.8-5.6 1-51.7 8.4-103.4 19.8-153.9 1.3-5.9 9.3-4.2 9 1.6z"  fill="#005bbb" /><path d="M-178.3-152.2c4 54.5-15 106-22 159.5-1.1 8.6-3.5 70.4-9.8 69.9-6.4-0.5-3.3-10.7 2.3-7.6 5.6 3.1-1.5 11.1-5.2 5.9-6.4-8.8 7.8-97.1 10.7-112.3 5-25.2 11.9-50.1 15-75.7 1.6-13-0.9-27.6 1.5-40.2 0.9-4.5 6.8-3.5 7.5 0.5z"  fill="#fff" /><path d="M-169.3-307.4c-21.7 61.7-4.5 115.7-6.3 178.4-1.3 46.4-17.9 90.7-24.1 136.4-1.2 8.6-3.8 70.4-10 69.9-7.5-0.6-1.7-12.3 3.3-6.7 4.3 4.8-5 10-6.8 3.9-10-32.4 16.7-129.2 24-165.1 11.8-58-7.3-113.3-1-171 1.6-14.8 3.6-37.3 11.7-50.1 3.3-5.3 10.2-1.1 9.2 4.3z"  fill="#fff500" /><path d="M-167.9-397.3c-11.6 72.4-55.1 129.9-44 206.2 2.4 16.2 22.3 179.2 1.3 176.3-6.7-0.9-2.8-11.4 2.8-7.8 5.7 3.6-2.2 11.5-5.8 5.9-3.6-5.7 5.5-76.1 5.4-89.6-0.4-52.2-20.4-102.6-12-154.9 2.1-13.1 39.7-134 44.2-139.8 3.1-4 8.4-0.7 8.1 3.7z"  fill="#c2e1ff" /><path d="M-153.8-126.3c-7.1 53.2-33.7 101.6-42 154.9-1.3 8.1-0.6 44.5-6.7 48.3-5.6 3.4-9.1-6.8-2.7-7.5 6.5-0.8 5.4 10-0.8 7.9-7.5-2.4-0.8-33 0-39.2 4-33.7 30.8-136.6 43.6-166.9 2.1-5.1 8.8-2.4 8.6 2.5z"  fill="#005bbb" /><path d=""  fill="#fff" /><path d="M-143.3-397.9c-8.6 50.7-36.8 96-41.6 147.5-5.8 61.4 13.4 115.1 0 178.4-2 9.2-12.9 77.4-19.7 76.1-6.9-1.3-2.3-12.1 3.5-8 5.7 4.1-3 11.9-6.5 5.8-5-8.9 18.4-96.9 20.5-114.5 6.4-53.1-12.5-105.3-4-158.4 5.2-32.7 19.2-62.7 29.5-93.8 3.7-11.3 4.8-25.2 9.6-35.9 2.4-5.1 9-2.2 8.7 2.8z"  fill="#c2e1ff" /><path d="M-129.6-368.4c-11.3 35.8-29.2 69.4-34.7 107-6.5 44.9 6.8 89.6 2.3 134.6-5.1 50.5-27.7 97.4-35.2 147.6-1.1 7.5-2.9 57.6-9.7 57-6.5-0.6-3.2-10.8 2.4-7.6 5.6 3.2-1.6 11.2-5.4 5.9-14.3-20.3 28.1-152 34.8-180.5 13.8-58.3-6.6-116.3 4.6-174.5 5.5-28.7 16.1-69 31.8-93.8 3.3-5.2 10.2-1.1 9.1 4.3z"  fill="#fff500" /><path d="M-130.6-397.6c-9.4 50.4-37.8 95.5-42.2 147.1-6.5 76 15.3 105.5-8.7 191.4-2.6 9.4-3.8 24.2-8.9 32.4-4 6.4-13-2.4-6.7-6.5 7.4-4.8 10.5 10.3 1.8 8.7-7.2-1.3 18-92.4 19.2-104.8 4.9-49.8-11.2-98.8-1.9-148.5 5.8-31.3 19.5-60.2 29.5-90.2 2.1-6.3 5.5-34 12.6-35.2 3.5-0.5 5.5 2.4 5.3 5.6z"  fill="#fff500" /><path d="M-113.7-278.4c-19.1 51.5-5.7 106.7-18.1 159.4-15.4 65.3-55.1 119-61.7 187.5-0.8 8.1-10.2 11.9-8.8 4.1 2.3-12.9 15.1 9.1 2.8 4.7-11.9-4.2 8.9-74 12.1-84 11-34.4 29.8-65.5 41.6-99.5 16.3-47 8.1-94.7 14.9-142.9 1.2-8.7 2.2-28.2 8.8-34.6 4.1-3.9 9.4 0.5 8.4 5.3z"  fill="#c2e1ff" /><path d="M-106.4-171.7c-5.5 80.7-44.9 121.3-68.4 192.8-3 9.2-7.1 52.5-14 56.2-6 3.3-9.1-7.6-2.3-8.1 6.8-0.4 5.1 10.7-1.3 8.3-13.1-5.1 13.1-75.4 17.2-85.3 10.7-26.1 25.7-50.1 37.7-75.6 8.8-18.9 22.6-89.7 23.3-90.9 2.5-4 7.6-1.5 7.8 2.6z"  fill="#c2e1ff" /><path d="M-98.2-216.4c-5.9 38.1-4.5 76.6-16.5 113.7-13.2 41-39.3 75.9-54.6 116-3.9 10.3-10.1 60.1-17.6 64.1-6 3.2-9.1-7.7-2.3-8.1 6.8-0.4 5 10.8-1.3 8.3-11.4-4.5 9.6-62.9 12.9-71.7 13-35 34.5-65.7 48.7-100.1 18.2-43.8 11.4-97.3 22.1-124.4 2-5.1 8.6-2.6 8.6 2.2z"  fill="#fff500" /><path d="M-99.7-397c-11.7 48.8-41.8 91.3-48.5 141.6-10.7 81.3 13 106.7-21.1 197-3.7 9.8-6.2 25.1-12.3 33.5-5.6 7.5-14.1-6.3-4.9-8 7.9-1.4 7.3 11.8-0.4 9.8-7.4-2 26.9-95.2 29.1-108.2 8.2-49.3-6.1-99.1 4.6-148.3 5.6-25.6 32.1-98.3 44.6-120.9 2.8-5.2 9.6-1.6 8.9 3.5z"  fill="#fff" /><path d="M-82.4-165.5c-8.4 79.9-34.5 116.7-67 186.4-4.4 9.4-15.1 52.4-19 56.1-6 5.8-11.5-7.7-3.1-7.8 7.1 0 4.6 11.5-1.9 8.6-21.3-9.7 49.1-127.2 56.2-142.2 9-19 15.8-38.9 20-59.5 2.4-11.5 0.6-35.1 6.8-44.5 2.7-4 7.9-1.3 8 2.9z"  fill="#fff500" /><path d=""  fill="#fff" /><path d="M-66.6-111.5c-5 52.8-21.1 100.8-39 150.2-2.2 6.2-8.8 40.7-16.2 38.9-7.1-1.7-1.7-12.6 3.9-8 5.7 4.6-3.7 12.2-7 5.6-8.1-16.3 18.9-64.9 24.7-81.1 12.9-35.9 16.8-84.3 25.3-107.6 1.8-5 8.3-2.8 8.3 2z"  fill="#c2e1ff" /><path d="M-65.2-397c-12.1 46.8-45.7 84.3-58 131.1-11.3 42.9-2.5 87.2-9 130.6-6.5 44.1-28.9 84.3-45.4 125.2-3.6 9-15.2-1.9-7.1-6.2 8.4-4.4 10.1 12 0.9 9.5-8.7-2.5 37.2-105.6 40.5-119.6 11.8-49.8-0.6-101.6 13.2-151.2 3.7-13.2 50.5-117.9 56.6-124.2 3.8-3.9 9 0.2 8.3 4.8z"  fill="#fff500" /><path d="M-50.9-151.9c-0.9 21.6 4.7 228.7 0.9 228.9-5.8 0.2-4.1-9.2 1.2-7 5.3 2.2-0.2 10.1-4.1 5.8-8.7-9.5-3.8-50-4.1-62.8-0.6-22.7-7.7-155.9-1.5-167 2.2-3.9 7.3-1.8 7.6 2.1z"  fill="#fff" /><path d="M-47.1-397.1c-11.1 48.7-49.2 84.9-64.1 132.2-14 44.5-5.4 91.6-14.2 136.8-8.8 45.1-33.8 85.2-50.8 127.4-3.6 9-15.2-2-7.2-6.2 8.4-4.4 10.1 12 1 9.4-9.9-2.8 41.2-108.4 45.2-122.3 14.3-50.4 2.8-103.8 18.3-153.9 11.3-36.2 35.4-65.3 51.9-98.9 3.9-7.9 5.9-22.9 11.7-29 3.6-3.9 8.9 0 8.2 4.5z"  fill="#fff" /><path d=""  fill="#c2e1ff" /><path d="M-26.6-196.1c-14.5 63.1 8.4 134.5 49.4 182.9 6.5 7.7 76.1 84.5 67.1 88.7-2.9 1.3-4.7-3.4-1.7-4.4 3-1 4.3 3.9 1.2 4.5-3.7 0.8-5.4-6.7-6.5-8.7-43.2-79.4-103.8-97.1-118.8-200.8-2.6-18.2-7.4-47.7 0.5-65 2.4-5.2 9.1-2.2 8.8 2.8z"  fill="#fff" /><path d="M-9.3-397.9c-4.3 70.9-73.4 113.4-85.1 183.1-4.7 28.1-13.2 149-39.2 161.1-8.1 3.8-11.3-10.8-2.4-10.8 9 0 5.8 14.5-2.3 10.8-8.8-4.1 4.1-20.5 6.4-25.4 9.6-19.9 16.6-40.9 20.4-62.6 7.5-42.7 4.5-86.7 22.9-127 18-39.7 54.7-68.9 67-111.4 1.5-5.3 1.1-17.7 5.2-21.5 3.1-2.8 7.1 0 7.1 3.7z"  fill="#005bbb" /><path d="M-11.5-163.3c4.3 95.7 94.8 128.7 139.8 200.6 2.7 4.3 22.8 36.4 17.5 38.6-3.1 1.3-4.9-3.8-1.6-4.7 2.8-0.8 4.4 3.2 1.8 4.6-2 1.1-30.2-50.4-34.6-56.3-33.2-44.6-85.3-71-111.8-121.2-8.4-16-21.4-43.2-18.5-61.9 0.7-4.5 6.6-3.7 7.4 0.3z"  fill="#fff500" /><path d="M-5.2 8.9c4.3 8.7 34.7 60.3 33.9 64.7-0.8 3.8-6.6 1.2-4.4-1.9 2.3-3.1 6.5 1.7 3.2 3.6-4.6 2.6-11.4-17-13-20.1-7.9-14.8-28.9-60.2-19.7-46.3z"  fill="#fff" /><path d="M10.4-398.8c5.5 80-73.8 124.2-87.5 199.3-11 60.5-14 114.5-44.1 170-2.7 5-6.4 16.5-11.7 18.9-8.3 3.7-11.2-11.1-2.2-10.9 9 0.2 5.6 14.8-2.6 10.8-9.6-4.7 8.1-26.9 11-32.4 14.2-26.5 25.3-54 31-83.7 8.1-42.5 6.3-86.7 25-126.6 17.2-36.7 50.7-63.2 65.6-101.1 6-15.2 4.5-29.7 7.9-45 1-4.6 7-3.4 7.6 0.7z"  fill="#c2e1ff" /><path d=""  fill="#fff" /><path d="M17.8-23c8 10 87.4 88.6 76.7 98.4-2.8 2.6-5.9-2.8-2.3-4 4.2-1.4 3.7 6.3-0.3 4.4-7.5-3.6-17.3-29.3-23-36.8-16.2-21.5-36.4-39.3-53.6-60-1.4-1.6 1-3.5 2.5-2z"  fill="#005bbb" /><path d="M26.2 42.9c2.4 3.7 21.5 30.7 16.7 32.9-2.9 1.3-4.7-3.3-1.7-4.3 3-1 4.3 3.8 1.2 4.5-4 0.9-6.5-8.7-7.8-11.1-3-5.3-11.6-14.8-12.1-20.7-0.2-2.2 2.5-2.8 3.7-1.3z"  fill="#c2e1ff" /><path d="M34.3-122.1c23.4 42.4 65.6 70.3 97 106.2 21.8 24.9 37.8 53.2 53.9 81.9 0.9 1.7 6.2 7.6 2.6 9.3-2.7 1.3-4.5-3-1.8-4 2.4-0.9 4.1 2.5 2 3.9-1.5 1-43.5-69.1-49-76.5-30.5-40.6-74.6-69.2-103.4-111-1.3-1.8-6.1-16-1.3-9.8z"  fill="#fff500" /><path d="M44.1-370.2c10 102.3-99.6 133.5-62.3 264.7 13.9 49.2 45.9 81.5 80.7 116.8 4.1 4.1 19.3 16.2 19.4 22 0.1 3.2-5.1 1.2-2.9-1.1 2.1-2.3 4.5 2.6 1.4 2.8-4.7 0.4-24.4-26.7-28.8-30.9-50.2-50-88-104-85.9-178.3 1.6-59.8 43.2-95.7 63.2-148.2 0.6-1.5 11.2-71.2 15.2-47.8z"  fill="#c2e1ff" /><path d="M52.6-342.6c-5 91.2-97.5 128.4-46 235 30.2 62.4 99.5 91.7 132.6 152.7 2.4 4.4-6.6 4-3.9-0.1 2.3-3.5 6.5 2.5 2.4 3.4-3.3 0.8-26.6-38.2-30.8-43.1-49.5-58-120.8-93.2-123.2-179.3-1.5-51.7 30.7-87.6 50.1-132.3 0.1-0.2 18.4-60.6 18.8-36.3z"  fill="#fff500" /><path d="M61.1-241.4c-40.5 116.4 68.7 180.8 125.5 267.6 6.3 9.6 31.4 36.8 31.3 47.5-0.1 2.9-4.7 1.8-3.5-0.8 1.5-3 5.4 1.3 2.3 2.5-6.4 2.4-50.4-72.6-56.5-81-38-52.4-102.5-98.9-115.8-165.1-4.3-21.3-4.4-55.8 7.6-75 3.3-5.3 10.2-1.1 9.1 4.3z"  fill="#fff" /><path d="M69-278.4c-22 70.1-43.3 110.3 7.7 175.9 22.1 28.4 48.6 53.1 71.3 81 22.9 28.1 40.6 59.4 60.8 89.3 0.3 0.4 5.7 5.7 2.8 7.5-2.2 1.3-4.1-2.2-1.8-3.3 2.3-1.1 3.9 2.6 1.4 3.5-6 2.1-50.9-75.2-57.2-83.7-39.1-52.8-107.1-98.8-117.1-167.7-4.7-32.1 5.5-79.1 23.1-106.8 3.3-5.2 10.2-1.1 9 4.3z"  fill="#005bbb" /><path d="M76.4-324.7c-2.4 78.5-64.9 126.7-13 206.6 22.1 33.9 53.3 60.9 79.2 91.8 23.4 27.8 41.6 58.7 61.3 89.1 1.2 1.9 6.3 6.4 4.2 8.9-1.7 2-4.7-0.9-2.8-2.7 2.2-2.1 4.9 2.3 1.9 3.3-5.7 1.9-44.7-66.9-50.3-74.7-40.5-56.4-116-105.2-122.7-179.5-3.6-40.1 16.7-74.5 27.7-111.7 3.1-10.6 3-22.5 6.3-32.7 1.6-4.9 7.9-2.9 8.2 1.6z"  fill="#fff500" /><path d="M81.1-80.9c48.6 51.5 80.5 90.1 117.9 150.7 0.4 0.7 3.8 8-1 5.6-6.9-3.5 8.4-4.6 2.1-0.2-2.3 1.6-44-67.5-49.2-74.7-20.5-28.6-45.7-52.8-70.1-77.9-1.2-1.2-2.5-5.9 0.3-3.5z"  fill="#fff500" /><path d="M88.8-32.8c16.1 14.2 82.2 86.5 78.3 106.9-0.7 3.7-6.5 1.2-4.3-1.8 2.2-3.1 6.4 1.6 3.1 3.4-2.6 1.5-30.2-51.3-34.3-57.2-12.1-17.8-26.7-33.5-42.6-48.1-0.8-0.7-3-5.2-0.2-3.2z"  fill="#fff" /><path d="M100.3-294.5c-2.9 37.5-19 73.3-17 111.2 2.7 50.9 36.7 93.4 66.5 132.2 25.4 33 49.1 67.3 75 99.7 2.4 3 22.1 25.5 19.8 26.4-0.1 0-0.7 0.1-0.8 0-7.3-1.4-50.6-62.4-57.8-72.3-39.2-53.7-98-109.8-109-177.9-5.1-31.2 3-61.1 9.6-91.3 1.3-5.9 1.8-31 8.3-32.7 3.1-0.8 5.3 1.7 5.4 4.7z"  fill="#fff" /><path d=""  fill="#fff" /><path d="M114 65.9c1 2 6.2 8.3 2.1 10-3.6 1.5-4.7-4.9-0.8-4.7 3.9 0.2 2.3 6.4-1.2 4.6-7.5-3.8-3.3-14.8-0.1-9.9z"  fill="#fff" /><path d="M168.5-399.7c53.6 102.4-3.6 168.2 7.6 264.6 3 25.4 12.2 49.6 25.7 71.3 2 3.2 13.3 15.9 12.3 19.1-1 3-5.2-0.5-2.5-2 2.4-1.3 3.6 3.1 0.9 3.2-5.2 0.3-16.7-21.9-19.2-26.2-47-78.1-9-152.2-8.7-235 0.2-39.2-13-58.7-20.5-93.5-0.6-2.9 3.1-3.7 4.5-1.5z"  fill="#fff500" /><path d="M130.8-141.8c15.8 65.5 65.4 125.4 111.3 172.8 11.8 12.1 35.2 26.8 42.6 41.8 0.3 0.5 0 1.4-0.5 1.7-3.1 1.7-33.3-31.1-37.2-34.9-44-43.3-87.2-95-112.1-152-3.5-8.1-9.9-19.6-10.2-28.5-0.1-3.8 4.8-4 6.1-0.9z"  fill="#fff" /><path d=""  fill="#005bbb" /><path d="M146.3-117c19.7 56 61.2 106 103.2 146.9 4.4 4.3 46.7 43 44.9 44.6-0.4 0.3-1 0.4-1.5 0.2-9.9-5-20-19.7-28.3-27.4-47.3-44-93.9-94-120-154-1.2-2.7-2.7-18.6 1.7-10.3z"  fill="#fff500" /><path d="M156-208.4c-11.5 81.5 21 148.5 77 206.5 21.9 22.7 47.1 41.8 69.7 63.8 2 2 11.3 9 10.6 11.9-0.1 0.4-0.4 0.8-0.8 0.9-2.5 1.3-25.4-24.2-28.7-27.2-55.7-50.5-115.7-102.5-134-179.1-5.2-22-10.8-57.2-2.3-79 2-5 8.5-2.6 8.5 2.2z"  fill="#fff" /><path d="M161-23.1c6.8 8.7 70.5 96.8 68.9 98-2.1 1.5-3.8-2.4-1.3-2.9 2.5-0.5 2.5 3.8-0.1 3.2-8.7-2.1-22.5-28.7-27.7-36-33.7-47.9-49.6-72.2-39.8-62.3z"  fill="#fff500" /><path d="M201.6-398.9c32.6 104.2-23.2 174.2-13.9 266 2.7 26.6 12.7 51.8 27.7 73.9 2.2 3.2 14.8 16.4 14 19.3-0.1 0.5-0.7 1-1.2 1.1-5.2 0.6-18.5-21.9-21.3-26.1-52.8-80.1-9.3-161.6-3.3-247.3 2.1-30-6.8-56.9-7.9-86-0.1-3.7 4.6-3.9 5.9-0.9z"  fill="#fff500" /><path d=""  fill="#c2e1ff" /><path d="M186.6-120.7c13.3 71.1 71.5 109.1 122.9 152.3 6.2 5.2 42.6 34.1 39.6 42.5-0.8 2.3-4.4 0.8-3.4-1.4 1.2-2.6 5 0.3 2.8 2.2-1.4 1.1-29.5-31.8-33.4-35.4-38.2-35.8-83.8-61.2-112.5-106.6-8.7-13.7-22.7-36.2-22.4-53 0.1-4 5.2-4 6.4-0.6z"  fill="#fff" /><path d="M193.4-77.1c27.3 52.9 75.3 83.2 117.9 122.1 5.5 5.1 26.2 20.7 26.4 28.4 0.1 2.7-4.3 1.8-3.2-0.7 1.1-2.5 4.7 0.1 2.7 2-1 0.9-31.4-31.7-35.4-35.3-34.8-31-73-56.5-100.3-95.2-3.3-4.7-6.4-9.4-9.3-14.3-1.3-2.3-2.9-12.6 1.2-7z"  fill="#fff500" /><path d=""  fill="#fff500" /><path d=""  fill="#fff500" /><path d="M225.3-399.2c17.4 100.9-46.2 200-27.3 285 7.5 34 27.7 63.5 52.8 87 6.6 6.1 13.4 11.9 20.5 17.4 1.2 1 4.3 3.5 2.7 3.9-1.5 0.3 1.4 0-0.1 0-9.3 0-30-24.4-36.4-30.8-96-97.1-22.4-199.5-17-312.2 0.7-13.8-6.1-38.7-1.9-50.9 1.3-3.6 5.8-2.5 6.7 0.6z"  fill="#fff" /><path d=""  fill="#005bbb" /><path d="M251.4-398.4c4.1 89.9-51.7 171.1-48.6 259.7 1 27.9 10.5 54.5 26.5 77.2 1.7 2.4 17.2 20.6 14.2 20.7-2.5 0.1 2.2 0.4-0.2 0-5.7-0.9-15.1-16.3-18.5-20.8-60.9-81.7-9.1-177.7 9.9-264.6 5.2-23.9 3.7-49.7 9-73 1.1-4.6 7.1-3.4 7.7 0.8z"  fill="#fff500" /><path d="M243.1-398.8c8 96.5-62.6 205.5-37.7 293.1 11.2 39.5 39.5 69.8 71.3 94.2 16.2 12.4 25.8 20.1 25.1 20.3-1.5 0.3 1.3 0-0.2 0-10.8 0.1-38.1-28.2-46.5-35.4-114.8-98.4-34.6-209-21.2-329.2 1.6-14.1-0.9-29.9 1.7-43.5 0.9-4.5 6.7-3.5 7.5 0.5z"  fill="#c2e1ff" /><path d=""  fill="#fff500" /><path d="M259.9-269.8c-29.5 64.6-59.8 142.8-10.9 206.1 34.7 45 90.6 66.7 124.6 112.9 2.2 3 18.9 24 14.2 26.3-3.2 1.6-4.6-4.1-1.1-4.2 3.5-0.1 2.4 5.7-0.8 4.2-7-3-16.2-25.7-21.2-32.3-47-61.7-137.7-86.8-149.1-172.9-6.4-48.2 13.2-101.8 34.4-144.5 3.2-6.4 11.9-2.1 9.9 4.4z"  fill="#005bbb" /><path d=""  fill="#005bbb" /><path d="M275.8-315.8c-31.2 71-83.9 163.2-38.8 239.1 34.6 58.2 106 80.3 142.2 138 2.4 3.8-5.7 4-3.4 0.1 1.9-3.3 6 1.8 2.3 3-2.7 0.8-29.2-36.3-33.6-40.7-52.4-52.4-129.8-80.9-132.9-166.4-1.4-36.9 45.8-178.3 58.3-180.6 4.6-0.9 7.1 3.6 5.9 7.5z"  fill="#fff500" /><path d="M303.9-398c-5.8 87.2-76.9 158.2-82.9 246.9-1.7 25.4 3.6 50.7 16.4 72.8 1.8 3.2 17.3 21.8 16 23.8-0.3 0.5-1 0.7-1.5 0.7-9.5-1.8-22.3-28.7-26.2-36.6-44.4-91.3 32-190.3 61.2-274 4-11.5 4.6-24.4 8.7-35.5 1.8-4.9 8.3-2.7 8.3 1.9z"  fill="#fff500" /><path d="M287.5 43.2c6.1 5.4 29.9 21.8 30.6 30 0 0.4-0.1 0.9-0.5 1.2-2.6 2.6-10.8-9.5-12.5-11.3-2.8-2.9-20-21.5-17.6-19.9z"  fill="#005bbb" /><path d="M298.1-128.6c7.3 65 87 110.3 118.1 167.3 2.5 4.7 19.8 33 15.2 36.7-3.3 2.6-6.3-3.7-2.2-4.7 4.8-1.1 3.5 7.3-0.8 4.9-9.8-5.7-19.8-41.9-26.4-52.8-25.7-41.8-67.7-69.2-94.2-110-7.9-12.2-13.8-25.8-16.5-40.2-0.8-4.5 5.5-5.3 6.8-1.2z"  fill="#fff500" /><path d="M303.1-27.6c32.9 24.8 64.4 48.7 86.6 84.1 1.8 2.9 11.9 15.4 8.6 18.5-3.1 3-5.9-4-1.6-4 3.7 0 2.4 6-1 4.4-2.6-1.2-27.2-42.7-32.9-49.4-17.1-19.8-37.8-35.4-58.8-51-0.2-0.1-3.5-4.1-0.9-2.6z"  fill="#fff" /><path d="M315.6-228c-29.9 47.5-43.5 104.3-7 152.3 34.1 44.8 80.9 73.6 107.7 124.9 1.9 3.6 15 24.6 9.5 26.6-3.9 1.4-4.8-5.4-0.7-5 4.1 0.3 2.1 6.9-1.5 4.9-2.9-1.7-31.1-58.3-38.2-67.6-36.1-47.3-100.9-79.7-107.2-144.6-3.2-33.6 9.2-69.5 27.4-97.5 4.2-6.5 13-0.7 10 6z"  fill="#005bbb" /><path d="M323.5-257.4c-36.7 49.8-69.7 116.7-31 174.9 32.7 49.3 87.6 76.6 117.2 129.7 2 3.6 16.7 26.7 11.3 28.8-3.8 1.4-4.8-5.2-0.7-5 4 0.3 2.2 6.7-1.4 4.8-3.2-1.7-33.2-59.1-41.2-68.8-39.6-47.9-107.6-79.3-110.8-148.9-2-43.6 20.4-89 46.7-122.7 5-6.4 13.6 0.4 9.9 7.2z"  fill="#fff" /><path d="M333-397.9c-7 89.8-102.2 159.1-100.4 259.9 0.7 36.7 18.8 68.1 45.5 92.4 7.4 6.7 32.2 21 22.3 20-3.2-0.3 3.3 0 0.1 0-3.5 0-12.4-9.2-15.4-11.6-42.6-33.8-67.1-79-58.4-134.3 11.4-72.7 60.2-127.6 87.7-193.6 4.2-10 4.8-27.6 10.7-35.9 2.8-3.9 7.9-1.1 7.9 3.1z"  fill="#fff" /><path d="M335.2 24.2c9.1 8.1 42.2 36.2 40.9 49.4-0.3 3.3-5.6 1.6-3.9-1.2 1.7-2.9 5.7 0.9 3.1 2.7-3.5 2.4-15-19.1-17.4-22.1-1.8-2.5-27.3-32.2-22.7-28.8z"  fill="#fff" /><path d=""  fill="#fff" /><path d="M351.7 62.9c1.5 1.9 10.2 9.6 6.4 12-2.2 1.4-4.2-2.2-1.9-3.3 2.4-1.1 3.9 2.7 1.5 3.5-7.3 2.6-10.4-16.8-6-12.2z"  fill="#c2e1ff" /><path d=""  fill="#c2e1ff" /><path d="M392.4-398.1c-7 88.6-102.1 143.3-122 229.1-6 25.8-4.2 52.7 8.2 76.4 2.2 4.3 18.5 28.9 16.7 28.4-5.5-1.6 5.8 1.1 0.2 0-7.5-1.4-18.6-22.4-22.2-28.6-56-99 54.7-185.4 95.7-264.1 6.6-12.7 7.8-33.6 15.4-44.4 2.8-3.9 8-1.1 8 3.2z"  fill="#c2e1ff" /><path d="M375.9 60.9c1.4 2.1 10.7 12.3 6.4 14.5-2.6 1.4-4.5-2.9-1.8-3.9 2.8-1.1 4.2 3.4 1.3 4.1-7.8 2.1-10.7-20.4-5.9-14.7z"  fill="#005bbb" /><path d="M386.3-398.1c-8 100.1-128 156.1-123.8 262.3 1.6 39.8 26.3 69.6 55.5 94.2 10.3 8.7 21 17 31.2 25.8 5.7 4.9 0.6 3.4 0.5 3-0.3-3.4 4.4 1.3 1.1 1-6.6-0.5-22.7-19.1-28.4-23.6-41.5-34-74.8-73.3-66.5-130.5 11.1-76.5 72.8-125.8 106.9-190.9 6.6-12.7 7.9-33.6 15.6-44.4 2.8-3.9 8-1.1 7.9 3.1z"  fill="#fff" /><path d="M394.3-398.1c-8 100.4-129.1 155.5-125.7 261.3 1.3 39.9 26.2 69.6 55 94.5 10.2 8.8 20.8 17.3 30.8 26.3 5.6 5 0.4 3.6 0.4 3.1-0.2-3.6 4.7 1.4 1 1.1-4.8-0.5-16.1-14.2-20.1-17.7-42.2-35.8-81.8-73.5-74-134 10.1-77.9 74.9-127.3 109.2-193.3 6.6-12.7 7.8-33.7 15.5-44.4 2.8-3.9 8-1.1 7.9 3.1z"  fill="#005bbb" /><path d="M403-289.8c-34.8 55.3-89.7 119.8-61.4 189.3 13.3 32.7 112.6 148.1 104.5 174.8-1.3 4.2-7.6 0.6-4.7-2.6 3.4-3.8 7.4 4.2 2.3 4.6-4.7 0.4-26.1-56.3-30.1-63.5-31.8-57.2-96.1-103.3-86.7-175.7 4.9-37.6 39.4-108.1 67-134.4 5.2-5 11.8 1.7 9.1 7.5z"  fill="#fff" /><path d="M410.7-200.8c-22.7 79.6 13.2 137.6 40.3 210 2.7 7.2 24.6 65.9 18.3 67.4-4.7 1.1-4.7-6.8-0.1-5.9 4.7 1 1.4 8.2-2.4 5.4-6.9-5.1-9.9-31.6-12.6-40.1-17.8-55.9-54.2-109.9-59.8-168.8-1.9-20.3-2.8-53 7.3-71.5 2.9-5.2 9.7-1.7 9 3.5z"  fill="#005bbb" /><path d="M416-43.1c13.8 26.1 49.1 87.7 48.4 116.4-0.1 5.5-8.9 1.8-5-2.2 3.3-3.3 7.5 3.2 3.1 4.9-5 1.9-17.8-44.1-20.1-50.2-3.8-10.1-34.4-61.6-30.5-68.9 0.9-1.8 3.1-1.4 4.1 0z"  fill="#fff" /><path d="M425.5-128.4c2.6 32 59.7 193.6 55.8 202.7-1.9 4.6-8.6-0.2-4.9-3.5 3.6-3.3 7.7 3.8 3 5.3-1.5 0.5-56.1-172.9-59.3-191.3-1-5.6 2.7-24.5 5.4-13.2z"  fill="#fff" /><path d="M434.8-322.5c-31.4 65.6-98.6 137.9-74.3 216.1 10.4 33.3 100.7 157.5 93.3 180.5-1.4 4.3-7.8 0.5-4.8-2.9 3.6-3.9 7.5 4.4 2.3 4.8-5.1 0.3-22.7-53.2-26.1-60.4-29-60.5-87.9-111.9-75.9-184.6 6.2-37.1 68.4-159.8 79.7-161.5 4.7-0.7 7.1 4 5.8 8z"  fill="#005bbb" /><path d=""  fill="#c2e1ff" /><path d=""  fill="#fff500" /><path d=""  fill="#fff500" /><path d="M465.9-216.5c-9.1 76.2 7.9 147.9 22.2 222.1 1.5 7.9 15.8 69.9 9.7 70.8-5.2 0.7-4.5-8 0.5-6.5 5 1.5 0.8 9.1-3.2 5.7-9.9-8.8-10.5-52.6-13-66.1-12.6-66.8-29.9-132.5-26.7-201 0.3-7.1-1.4-21.9 2.6-27.9 2.7-4 7.9-1.3 7.9 2.9z"  fill="#fff500" /><path d="M474.2-279.8c-24.7 91.2-14.1 173.3 5.7 264 2.1 9.7 21.2 91.5 15.2 92.4-5.1 0.8-4.6-7.8 0.4-6.4 5 1.5 0.8 9-3.1 5.7-8.3-7.2-9.2-42.9-11.4-54-15-75.8-36.8-149.5-29.8-227.6 2.1-22.9 2.9-57.2 14.1-77.6 2.8-5.2 9.7-1.7 8.9 3.5z"  fill="#fff500" /><path d="M487.5-397.8c-9.7 86-61.7 161.3-62.6 249.4-0.3 28.1 5.8 55.1 14.3 81.6 1.1 3.3 11.5 25 4.2 24.7-3.3-0.2-3.6-5.1-0.4-5.6 3.8-0.6 4.5 5.4 0.7 5.6-4.9 0.3-6.5-12.6-7.6-15.8-40.6-119.9 3.6-189.8 34.5-302.5 3.4-12.5 3.7-27.7 8.4-39.6 2-5 8.5-2.6 8.5 2.2z"  fill="#005bbb" /><path d="M488.6 53.3c0.8 4 7.3 20.1 2.5 22.7-4.5 2.4-6.8-5.8-1.7-6.1 4.4-0.2 4.4 6.7 0 6.4-12.2-0.6-4.8-34.4-0.8-23z"  fill="#fff500" /><path d="M498-342.8c-31.7 127.1-36.6 187.3-12.3 317.1 2.5 13.1 20.4 94.8 17.4 100.9-2.4 4.7-9.2-0.8-5.1-4.1 4.8-3.9 8 6.5 1.8 6-7.9-0.7-15.2-72-17-81.7-15.5-85.9-31.5-168.4-15.1-255.6 4.9-26 8.9-62.6 21.4-86.1 2.8-5.2 9.6-1.7 8.9 3.5z"  fill="#005bbb" /><path d="M505-72.3c1.4 14.8 17.3 149.1 12.1 149.4-4.8 0.4-4.9-7.2-0.1-7 4.8 0.1 4.1 7.6-0.6 7-6.3-0.9-5.6-23.4-6.2-28.3-4.3-36.9-8-73.9-11.6-110.9-0.4-3.7 3.8-21.9 6.4-10.2z"  fill="#fff" /><path d="M513.1-118.1c0.6 18.7 14.2 194.6 10.4 194.8-4.9 0.3-4.9-7.4 0-7.1 4.2 0.2 4.5 6.4 0.4 7.1-7.6 1.3-7.7-37.6-8.2-43.4-1.9-21.5-15.4-141.5-9.9-153 1.8-3.8 6.8-2.1 7.3 1.6z"  fill="#fff" /><path d="M521.7-270.3c-13.5 86.8-8.8 174-2.1 261.1 0.7 9.5 9.8 86 3.9 86.4-5.7 0.3-4.2-9 1.1-6.9 5.3 2.1 0 9.9-3.9 5.8-4.6-4.8-7.6-73.1-8.5-84.7-6.8-87-12-173.9 0.3-260.7 0.9-6.4 9.4-8.7 9.2-1z"  fill="#fff" /><path d="M527.8-397c-31 117.3-42.3 217.3-28.2 338.2 1.6 13.8 15.5 99.2 12.1 105.2-2.8 4.9-9.7-1.4-5.1-4.6 5.4-3.8 8 7.3 1.5 6.4-8.4-1.2-12.6-81.9-13.9-92.7-16.1-133-9.5-219 22.7-348.8 1.6-6.6 12.4-15 10.9-3.7z"  fill="#fff" /><path d="M537.6-293.2c-16.9 92.4-18.1 184-12.6 277.5 0.6 10.1 8.8 92.3 2.9 92.6-5.8 0.3-4.1-9.2 1.2-7 5.3 2.2-0.1 10.1-4 5.8-4.7-5.1-6.7-75.6-7.4-87.5-5.6-91.9-6.1-182.4 9.3-273.5 0.9-5.4 11.4-21.3 10.6-7.9z"  fill="#fff" /><path d="M545.6-192.2c-12.1 67.3-11.2 135.8-8.7 203.9 0.3 7.9 6.1 65.6-0.4 65.7-5.9 0.1-4-9.5 1.4-7.2 5.4 2.4-0.4 10.3-4.3 5.9-8.1-9.2-3.7-48.3-4.2-60.8-1.9-45.4-9-172.3 7.5-210.1 2.2-5.1 8.9-2.4 8.7 2.6z"  fill="#005bbb" /><path d="M553.1-42.9c-0.5 12.6 1.4 119.9-3.9 119.8-6.1-0.1-3.7-10 1.8-7.3 4.7 2.3 0.7 9.5-3.8 6.7-6.8-4.3-2.8-40.9-2.8-48.9-0.2-17.3-7.5-57.5 1-72.4 2.3-3.9 7.3-1.7 7.7 2.1z"  fill="#fff" /><path d="M535.2-396.8c-29.3 97-41.2 197-33.1 298 0.9 11.7 10.7 81.6 7.6 86.6-3 4.9-9.9-1.7-5.1-4.8 5.6-3.8 8.1 7.7 1.4 6.5-8.1-1.4-9.6-68.8-10.5-78.3-9.2-102.3 0.9-199.5 26.9-298.8 6.6-25.3 14-16.9 12.8-9.2z"  fill="#fff500" /><path d=""  fill="#c2e1ff" /><path d="M577.6-118.7c-14.3 48-15.1 99.2-15.7 148.9-0.1 6.6 3.2 47.3-4.2 46.9-4.6-0.2-5-7-0.5-7.8 5.3-0.9 6.3 7.5 0.9 7.8-6.3 0.4-4.3-10.6-4.3-13.8-0.3-55-1.1-111.6 9.9-165.8 1.1-5.6 1.5-16.6 5.6-20.8 3.7-4 9 0 8.3 4.6z"  fill="#fff500" /><path d=""  fill="#fff500" /><path d="M593.1-9.5c-1.2 10-3.8 87.9-10.8 87.1-5.6-0.6-4.2-9.4 1.3-8.2 5.5 1.2 3.1 9.8-2.2 8-7.6-2.6-0.1-79.7 3.3-88.9 1.8-5 8.3-2.8 8.4 2z"  fill="#c2e1ff" /><path d="M601.5-80.5c-13.2 37.8-15.4 78.5-17.6 118.2-0.3 6.2 1.6 40.9-6.3 40.1-5.6-0.6-4.2-9.3 1.2-8.2 5.5 1.2 3.2 9.7-2.1 8-7.6-2.5-0.9-43.8-0.5-51.2 1.8-31.7-1-83.1 16.2-111 3.2-5.3 10.2-1.2 9.1 4.1z"  fill="#fff500" /><path d="M589.3-395.7c-44.3 73.9-59.5 240-58.5 326.7 0.1 11.6 5.2 81 2 85.7-3.4 5-10.3-2.3-5.1-5.4 6.1-3.6 8 8.6 1.1 6.9-8.6-2-5.6-71.1-5.8-81-1.9-99.9 9.2-206 40.6-301.4 21.5-65.4 27.3-35.2 25.7-31.5z"  fill="#005bbb" /><path d=""  fill="#c2e1ff" /><path d="M603.6-122.6c-23.6 45.4-26.4 98.7-28.4 148.8-0.3 6.8 1.9 51.5-5.9 51-4.7-0.4-4.9-7.4-0.2-8.1 5.5-0.8 6.2 7.9 0.6 8.1-6.6 0.2-4-11.4-3.9-14.8 1.3-50.5 1.3-102.8 14.3-152 2.6-10 6.5-33.4 15.3-39.9 4.9-3.7 10 1.8 8.2 6.9z"  fill="#005bbb" /><path d="M603.6-149.3c-33.5 55.6-34.3 124.3-35.7 187.3-0.1 6.8 3.3 35.1-2.2 38.8-5.3 3.5-9.1-6.3-2.9-7.3 6.3-1 5.6 9.5-0.5 7.8-7.7-2.2-2.2-52.3-2-60.4 1.5-56.2 4.1-115.9 30.7-166.9 4-7.6 17.2-10.3 12.6 0.7z"  fill="#fff500" /><path d="M570.7-396.4c-37.7 74.6-46.9 192.3-47.4 275.3-0.1 14 8.2 56.5 0.6 67.5-3.5 5-10.3-2.4-5-5.5 6.2-3.6 8 8.7 1 7-8.4-2-4.6-63.9-4.5-73.1 0.3-81.9 9.9-169.7 34.7-248 10.2-32.1 25.6-38.6 20.6-23.2z"  fill="#fff500" /><path d="M603.7-194.7c-41.2 64.5-45.1 140.5-45.6 214.9-0.1 8.9 5.3 51.6-1.4 56.3-5.1 3.6-9.1-5.9-3-7 6.1-1.1 5.7 9.2-0.2 7.6-7.9-2-3.4-52.9-3.3-61 0.4-60.8 1.8-124.2 25.3-181.2 4-9.7 10.8-32.1 20.2-37.7 5.6-3.3 10.3 3 8 8.1z"  fill="#fff500" /><path d="M603.5-183.2c-39.9 62-42.5 137.3-43.2 208.7-0.1 10.6 5.3 41.8-0.7 50.1-4.3 5.9-11-4.9-3.9-6.2 6.1-1.1 5.7 9.3-0.3 7.7-7.8-2-3.1-51-3-59.1 0.6-58.5 2-119.6 24.5-174.5 16.1-39.3 33.5-42 26.6-26.7z"  fill="#c2e1ff" /><path d="M603.4-79.5c-13.5 37.6-15.8 78.4-18.1 118-0.3 5.9 1.6 39.6-6.4 38.7-5.6-0.6-4.2-9.3 1.3-8.1 5.5 1.2 3.2 9.7-2.1 7.9-7.5-2.5-0.7-45.6-0.3-53.2 1.9-30.8-0.4-80.6 16.5-107.6 3.3-5.3 10.2-1.1 9.1 4.3z"  fill="#fff" /><path d=""  fill="#fff" /><path d="M603.5-149.7c-33.5 55.6-34.4 124.3-35.7 187.2-0.1 6.9 3.3 35.8-2.3 39.5-5.3 3.5-9.1-6.3-2.8-7.2 6.3-1 5.6 9.5-0.5 7.8-7.9-2.3-2.2-53-2-61.2 1.5-56.2 4.2-115.9 30.6-166.9 4-7.6 17.1-10.3 12.7 0.8z"  fill="#fff" /><path d="M603.6-192.5c-41.2 64.3-44.6 140.8-45.1 215-0.1 8.7 5.2 49.6-1.5 54.3-5.1 3.6-9.1-5.9-2.9-7.1 6.1-1.1 5.7 9.2-0.3 7.7-7.9-2-3.3-54.1-3.2-62.4 0.4-59.6 2-121.9 24.9-177.9 4-9.7 10.8-32.2 20.1-37.7 5.6-3.3 10.3 3 8 8.1z"  fill="#fff500" /><path d="M603.4-196.4c-36.6 57.7-44 124.4-45.4 191.3-0.2 8.3 4.4 46.5-2.1 51-5.2 3.5-9.1-6.1-2.8-7.2 6.2-1 5.7 9.4-0.4 7.7-7.9-2.2-2.7-54.2-2.5-62.5 1.5-62.7 8.4-126.4 40.4-181.6 4.3-7.5 17.8-9.7 12.8 1.3z"  fill="#005bbb" /></svg>