<svg width="1200" height="675" viewBox="-500 -500 1200 675" xmlns="http://www.w3.org/2000/svg"><path d="M-500-500h1200v675h-1200z" fill="#000"/><path d=""  fill="#005bbb" /><path d=""  fill="#005bbb" /><path d=""  fill="#fff500" /><path d=""  fill="#fff500" /><path d=""  fill="#fff" /><path d=""  fill="#fff500" /><path d=""  fill="#fff" /><path d=""  fill="#005bbb" /><path d=""  fill="#fff" /><path d="M-387.5 52.7c-7.2 6.4-26.4 9-21-7 4.4-13.3 25-5.2 19.1 7.5-5.8 12.7-25.4 2.4-18.2-9.5 9.6-16 32.5-4.5 20.1 9z"  fill="#fff500" /><path d="M-375.2-335.5c-3.3 8.9-13 60-26 55.2-9.4-3.5-3.2-18 5.8-13.6 9 4.5 1.2 18.3-7.2 12.9-8.8-5.7 9.2-64.4 20.1-64.6 5.7-0.1 8.5 5.2 7.3 10.1z"  fill="#c2e1ff" /><path d="M-363.5 35.2c-6.8 8.5-27.7 38.4-40.5 29.9-11.6-7.7 1.5-25.3 12.2-16.4 12.5 10.4-8.8 26.9-15.8 12.2-5.4-11.3 31.4-47.2 42.3-39.7 5 3.4 4.9 9.4 1.8 14z"  fill="#005bbb" /><path d="M-352.1-210.7c-3 16.8-23.6 129.8-49.4 121-11.5-3.9-4.4-21.7 6.6-16.6 11 5.1 2 22.1-8.4 15.8-12.8-7.8 13.7-39.9 17.5-49.2 7.3-17.6 12.5-65.2 21.6-76.5 4.7-5.9 12.5-1 12.1 5.5z"  fill="#005bbb" /><path d="M-339.8-365.1c-8.8 21.7-47.4 169-54.8 173.4-10.6 6.4-17.2-13-5-14.4 12.3-1.4 10.2 19-1.5 15.2-13.5-4.4 7.9-46.8 10.4-56 9.5-34.6 17-97 37.3-125.6 5.5-7.8 15.7-0.8 13.6 7.4z"  fill="#fff" /><path d=""  fill="#fff" /><path d="M-316.9-147.8c-9.4 56.5-21.1 116.8-62.2 159.6-4.9 5.1-11.3 14.1-18.9 14.4-14 0.6-13.8-21.5 0.2-20.6 16.4 1 8.9 27.2-5.6 19.4-17.1-9.3 32.6-49.7 43.7-71.4 18-35.3 16.5-74.6 30-105.3 3.3-7.6 13.2-3.4 12.8 3.9z"  fill="#fff500" /><path d="M-318.3-395.9c-13.2 40.9-28.8 80.2-38.2 122.3-4.5 20.4-23.6 121.2-38.4 128.6-11.7 5.8-17-15.2-3.9-15.5 13.1-0.4 9 20.9-3 15.7-12.5-5.3 14.6-58.6 17.5-69.5 16.7-62.8 27.2-125.8 51.8-186.5 3.7-9.2 16.2-4.4 14.2 4.9z"  fill="#c2e1ff" /><path d="M-293.5-62.2c-2.9 22.3-16.7 131.6-32.1 141.7-10.1 6.6-17.2-12.1-5.3-13.8 11.9-1.8 10.6 18.2-1 14.8-13.8-4 6.7-45.4 9-54.1 4.3-16 12.2-85.6 17.6-93.2 4.2-5.9 11.9-1.6 11.8 4.6z"  fill="#fff500" /><path d="M-282.1 37.3c-0.4 7.3 3 43.7-9 42.3-8.4-1-6.1-14.1 2.1-12.3 8.2 1.9 4.5 14.7-3.4 12-8.4-2.9-4.5-39.6-1.1-45.4 3.5-5.8 11-2.4 11.4 3.4z"  fill="#fff" /><path d=""  fill="#005bbb" /><path d="M-258.3-244.3c-5.6 59.3-21.8 116.9-29 176-3.7 31.3-7.5 122-22 145.5-6.9 11.1-20.5-7.2-7.8-10.6 10.8-2.9 11.6 15.7 0.5 13.8-12.6-2.2 7.2-71.8 8.8-83.3 6.4-45.3 25.1-211.5 37.1-244.3 2.7-7.4 12.3-4.1 12.4 2.9z"  fill="#c2e1ff" /><path d="M-247.7 38.4c0.8 6.7 9.8 39.3-0.6 40-7.1 0.5-7.3-10.7-0.2-10.5 7.1 0.3 6.1 11.4-0.9 10.4-16.6-2.4-4.7-65.8 1.7-39.9z"  fill="#fff500" /><path d="M-236.1 11.3c1.2 8.6 15.1 65.7 5.9 66.8-6.7 0.9-7.5-9.7-0.7-9.8 6.7-0.1 6.4 10.4-0.3 9.8-7.6-0.7-17.5-60.3-14.8-67.8 1.9-5.4 8.7-3.8 9.9 1z"  fill="#005bbb" /><path d="M-224.5 24.1c1.3 7.7 14.6 52.5 5.5 53.9-6.4 1-7.5-9.2-1-9.5 6.5-0.3 6.5 9.9 0 9.6-7.8-0.4-16.2-48.1-14.2-54.6 1.6-5.3 8.2-4 9.7 0.6z"  fill="#c2e1ff" /><path d="M-211.7-288.9c-0.2 89.5-43 170.9-39.4 260.1 0.6 14.4 13.8 98.3 10.2 104.6-4 7.2-14.2-1.9-7.5-6.7 7.8-5.6 11.9 10.6 2.3 9.3-9.2-1.2-8.6-34.6-9.5-41.7-14.5-110.1-1.7-140 22.5-243.9 3.8-16.5 5.8-76.5 10.2-84.6 3.1-5.8 10.6-2.7 11.2 2.9z"  fill="#fff" /><path d="M-200.5-365.5c6 52.4 6.6 109.2-5.1 160.8-12.1 53.5-36 102.4-35.9 158.4 0 18.4 17.6 114.8 14 121.9-3.6 7-13.7-1.2-7.5-6.2 7.2-5.7 11.8 9.7 2.6 8.9-9.1-0.8-10-35.4-11.2-42.6-23.3-138.9 2.7-136.7 27.8-259.1 5.4-26.4 3.7-140.7 4.9-143.7 2.3-5.5 9.3-3.5 10.4 1.6z"  fill="#fff500" /><path d="M-189.5 32.9c1.5 6.7 15.3 42.9 7.2 45-5.7 1.5-7.5-7.6-1.7-8.4 5.8-0.8 6.6 8.4 0.8 8.5-7.5 0.3-17-39.3-15.5-45.2 1.3-5.1 7.6-4.2 9.2 0.1z"  fill="#c2e1ff" /><path d="M-177.5 17c1.7 9.8 18.6 51.9 13.6 58.7-3.8 5.3-11-2.8-5.3-6 5.7-3.2 8.8 7.2 2.3 7.7-7.7 0.6-23.6-55.1-19.7-61.9 2.4-4.2 7.7-2.5 9.1 1.5z"  fill="#005bbb" /><path d="M-163.2-158c-27.9 51.5-45.4 97.5-37.3 157.1 2.6 19.4 6.8 38.7 11.7 57.6 0.8 3.2 9.3 21.8-0.4 21-5.1-0.4-5.2-8.1-0.2-8.8 5.1-0.7 6.9 6.7 2.1 8.5-10.2 3.7-22-68.4-23.5-77.5-6-37.1-5.9-74.7 6.6-110.5 6.1-17.5 14.7-43.1 27.4-57.1 6.9-7.6 16.9 1.2 13.6 9.7z"  fill="#c2e1ff" /><path d="M-135.7-399c8.7 66-5.3 149.6-29.8 211.1-11.8 29.6-28.5 57.3-38.2 87.7-5.8 17.9-6.2 72.4-11.1 76.3-6.9 5.4-13.2-7.8-4.6-9.8 8.6-2 8.7 12.6 0.1 10.8-15.5-3.2-1.4-70.2 1.4-80.8 11.7-44.1 38.2-82.3 50.9-126.1 11.5-39.5 16.7-82.2 20.1-123.1 0.8-9.3-4.4-44 2.5-49.7 3.6-3 7.9-0.3 8.7 3.6z"  fill="#fff" /><path d=""  fill="#fff500" /><path d="M-129.9-0.6c0.9 18.5 5.4 36.8 12.1 54.1 1.7 4.4 10.7 17.2 8.3 21.7-2.5 4.7-9.2-1-5-4.2 4.2-3.3 8 4.7 2.8 5.9-12.2 2.8-30.3-67.7-29-77.6 0.9-6.6 9.5-5.6 10.8 0.1z"  fill="#005bbb" /><path d="M-110.9-398.4c1.7 62.7-20.8 155.8-46.1 213.2-14.3 32.5-34.3 62.6-43.8 97-4.7 16.8-6.7 34.2-6.6 51.7 0 4.2 5.2 27.9-5.9 24.7-8.2-2.4-1.4-14.8 5-9.3 5.5 4.8-2.5 13-7.5 7.7-4.6-5-2.9-18.5-3.1-24.9-3-71.6 38.8-122.7 61-187.1 13.6-39.6 21.2-82.1 29.2-123.1 2-10.1 0.7-49.4 8.6-54.8 4.2-2.8 8.7 0.5 9.2 4.9z"  fill="#005bbb" /><path d="M-104.6-281.5c-10.1 28-18.7 56.6-31.1 83.8-24 52.8-61.8 97.8-63.2 158.4-0.4 17.1 18.6 114.5 18.6 114.5-2.7 7.6-13.2-1.7-6-5.4 7.2-3.6 8.4 10.3 0.7 8-9-2.7-13.4-39.6-15.3-47.9-24.4-107.1 4.1-140.8 49.4-232.1 13.5-27.3 21.4-56.2 32.6-84.3 3.7-9.3 16.4-4.3 14.3 5z"  fill="#c2e1ff" /><path d="M-92.7-297c-13.5 31.1-23.4 63.7-37.4 94.7-24.6 54-65 100.1-67 162-0.6 17.7 18.5 114.8 18.4 115.1-2.7 7.5-13.2-1.6-6-5.3 7.1-3.6 8.4 10.2 0.7 8-9-2.7-13.4-39.6-15.3-48-25.3-110.5 7.3-143.1 53.3-236.3 15.4-31.1 24.2-64.8 38.7-96.2 4.4-9.5 17.3-3.5 14.6 6z"  fill="#c2e1ff" /><path d="M-81.2-124.2c-34.7 34.5-59.6 74.5-56 125.1 1.4 19.3 6.1 38.4 13 56.4 0.6 1.4 12.1 21.7 2.4 19.4-4.6-1.1-2.5-8.2 2-6.7 3.8 1.4 2.4 7.2-1.6 6.7-7.3-0.9-13.7-25.3-15.8-31.1-19.7-54.5-15-111.7 20.5-158.6 6.4-8.4 14.3-20.7 23.3-26.3 10.2-6.4 18.7 6.6 12.2 15.1z"  fill="#fff" /><path d="M-71.9-397.4c-6.3 44.1-50.2 165.4-70.1 207.7-12.8 27.1-29.8 52.2-42.1 79.6-17.3 38.6-12.5 79.2-24.3 74.4-8.7-3.5 0.2-16.3 6.6-9.5 5.5 5.9-4.2 14-9 7.6-3.1-4.1-1.2-12.7-1-17.3 2.8-61.3 40.5-107 64-161.1 21-48.3 36.7-100.8 53.6-150.7 3.7-11 4.8-24.2 9.6-34.7 3.4-7.5 13.3-3.3 12.7 4z"  fill="#fff" /><path d="M-57.7-166c-40.9 40.1-86.9 82.9-90.6 143.8-1.6 26.3 3.6 52.9 12.2 77.6 0.7 2 12.6 24.3 2.3 21.6-4.1-1.1-3.1-7.3 1.2-7.2 4.2 0.2 4.6 6.5 0.4 7.2-8.3 1.4-16.8-33.4-18.7-39.5-11.7-39.2-13.8-81.8 2.4-120.1 15.9-37.5 46.2-66.9 74.6-95.2 9.9-9.9 25.5-0.1 16.1 11.8z"  fill="#005bbb" /><path d="M-45.7-81c-25.6 27.9-38.4 63.2-29.5 100.8 2.7 11.5 24.3 48.5 24 53.8-0.3 5.4-8.8 1.4-4.9-2.3 4-3.7 7.3 5.1 2 5-16.7-0.2-51.5-90.2-22-145.6 4.3-8.1 10.1-19.8 17.5-25.3 9.3-6.9 18.4 5 12.9 13.6z"  fill="#005bbb" /><path d="M-42-396.2c-4.9 18.8-78.8 182.3-91.7 207.5-12.1 23.6-27 45.6-39.4 69.1-10.6 20-18.4 41.2-21.2 63.6-0.6 5.2 2.5 32-9.2 27.6-8.6-3.3-0.2-16 6.2-9.5 5.5 5.6-3.8 13.8-8.6 7.6-3.8-4.8-1.5-15-1.3-20.6 2.2-59.8 37.7-103.9 63.7-155 14.2-27.8 78.4-186.7 89.3-197.6 5.7-5.7 13.4 0.4 12.2 7.3z"  fill="#005bbb" /><path d=""  fill="#c2e1ff" /><path d="M-18.4-395.6c-12.4 37.8-39 68.8-58.4 103.1-18.1 31.9-30.7 66.5-47.8 99-16.3 31-38 59.2-52.4 91.1-16.5 36.3-12.5 86.1-16.8 89.6-7.9 6.3-13.1-10.5-2.9-9.7 8.6 0.7 4.4 14.5-3.2 10.2-6.2-3.5-3.9-19.1-4-24.8-1.4-68 38.9-115.5 69-172.6 15.5-29.3 27.2-60.5 42.8-89.7 13.1-24.8 29.6-47.4 43.9-71.4 6-10 9.7-22.5 16.3-31.9 5.4-7.7 15.5-0.9 13.5 7.1z"  fill="#fff500" /><path d="M0.6-246.9c-51.5 39.5-146.9 137.5-158.7 201.8-4.5 24.2-2.5 49.1 2.7 72.9 2.4 11 16.2 36.6 13.7 46.7-2 8.1-12.7-2.6-4.6-4.6 6.9-1.7 5.2 10.5-1 7-12-6.8-17.7-47.1-20.2-59.7-17-83.4 22.3-139.8 75.1-199.4 23.3-26.3 46.5-53 73.5-75.6 11.8-9.9 33.7-3.6 19.5 10.9z"  fill="#fff" /><path d="M11.8-11.1c-1.5 22.8 24.7 80.8 23.7 85.2-1.2 5.7-10 1.7-6.5-3 4.1-5.4 10.2 4.6 3.6 5.8-13 2.2-35-77.8-32.5-89.2 1.6-7 10.8-5.2 11.7 1.2z"  fill="#c2e1ff" /><path d="M15.9-395c-16.2 42.3-52.9 72.4-78.4 108.7-22.2 31.6-37.5 67.3-57.1 100.5-14.4 24.5-31.6 47.3-45.3 72.1-16 28.9-23.6 85.9-25.1 87-8.9 6.1-13.1-12.2-2.4-10.5 9.1 1.4 3.6 15.7-4.1 10.6-5.6-3.7-2.8-16-2.6-21.3 2.6-59.5 38.5-103 67.9-151.9 43.5-72.7 53.2-96.2 108.5-165.1 6.7-8.4 19.6-39.5 30-41.3 6.8-1.2 10.5 5.4 8.6 11.2z"  fill="#005bbb" /><path d="M35.6-306.3c-23.3 16.8-47.2 32.7-67.8 52.9-37.5 36.7-120.9 141.1-134.4 189.6-10.8 39.1 9.3 126 9 126.9-2.5 7.4-12.9-1.4-5.9-5.1 8.1-4.3 7.3 12.4-0.4 7.2-10.1-6.8-13.5-42.7-15.6-54.1-19.4-105.9 55.4-187.9 119.8-263.3 21.4-25.1 53.8-60.3 85.2-72.7 12.1-4.8 18.7 10.8 10.1 18.6z"  fill="#fff" /><path d="M45.8 17.9c1.5 7.8 20.8 57.4 14.5 59.4-5.3 1.7-7.4-6.8-2-7.8 5.4-1.1 6.7 7.5 1.2 8-9 0.8-21-49.5-23-57.4-1.5-6.2 7.2-7.8 9.3-2.2z"  fill="#fff" /><path d="M49-395.2c-18.5 47.5-64.2 75.7-96.2 113.1-31.4 36.7-52.4 81.2-79.6 121-15.5 22.6-32.4 44.7-43.3 70.1-2.5 5.8-7 35.9-18.7 27.9-9.1-6.2 4.2-18.8 9.8-9.3 4.8 8.1-8.3 15.1-12.2 6.4-10.4-22.7 50.1-105.2 63.6-125.7 25.5-38.5 45.9-80.4 76.7-115.1 22.2-24.9 49.5-45.2 70.2-71.4 5.4-6.9 11.2-24.2 19.3-27.7 7.2-3.1 12.6 4.3 10.4 10.7z"  fill="#fff" /><path d=""  fill="#005bbb" /><path d=""  fill="#fff" /><path d="M95.1-49.5c-6.7 26.8-7.5 53.7-3.1 80.9 1.6 10 12.5 34.8 8.9 43.8-3.2 7.8-13.7-2.3-6.1-5.8 6.5-3 9 8.7 1.9 8.6-8.1 0-10.1-25.3-11.4-30.8-7.5-32.5-11.5-66.7-3.9-99.7 2.1-9 14.4-5.8 13.7 3z"  fill="#fff" /><path d="M104.5 68.8c4.2 16.7-14.5 4.2-5.5 0.3 9.2-4.1 6.9 14-1 7.8-7.8-6.1 2.9-16.9 6.5-8.1z"  fill="#fff500" /><path d="M118.6-181.4c-12 51.1-47 128.7-47.5 175.2-0.2 21.2 4.6 42.1 10.3 62.4 0.9 3.3 10.2 22.4 0.2 21.6-5.1-0.4-5.3-8-0.2-8.7 5.9-0.8 6.6 8.5 0.7 8.7-7.3 0.2-9-18.2-10.4-23-27.2-92.9 8.9-151.4 33.2-239.4 2.5-9 14.7-5.6 13.7 3.2z"  fill="#c2e1ff" /><path d="M130.1-66c-4.4 28.9-8.5 57.6-7.3 86.9 0.5 12.5 10.8 43.8 5.8 54.3-3.8 8.1-14.4-3.3-6.1-6.5 7.1-2.8 9.1 9.8 1.5 9.2-21.3-1.3-13.2-131.5-6.6-147.4 3.1-7.5 12.9-3.7 12.7 3.5z"  fill="#fff500" /><path d="M135.3-396.5c-5.8 25.7-18.6 49.2-36.2 68.8-44.4 49.3-107.4 77.1-152.7 126.6-10 10.9-61.9 82-74.3 70.7-11-10 9.1-24.2 14.9-10.5 5.7 13.7-18.5 18.1-17.9 3.3 0.5-14 27.7-36 36.7-46.3 45.2-52.1 92.8-91.2 148.3-131.6 61.2-44.5 52.7-70.8 69-88 5.5-5.8 13.3 0.2 12.2 7z"  fill="#fff" /><path d="M149.9-396.8c-14.4 81-84.9 119.8-144.3 166.4-26.6 20.9-50.9 44.3-74.5 68.6-29.5 30.4-64.6 82.1-71.8 82.9-13.1 1.5-10.8-20.2 1.6-16.1 12.5 4.1 1.4 22.9-8.2 13.9-7.4-7 3.8-20.5 7.4-26.4 50.3-81.4 134-137.6 207.4-195.6 66.4-52.4 54.4-81.1 70.4-99.7 5-5.8 12.7-0.5 12 6z"  fill="#fff" /><path d="M166-313.1c-11 29.5-26.7 57-37.8 86.5-12.9 34.2-20.2 70.2-33.3 104.3-13 34.1-33.9 66.6-38 103.5-2.3 20.7 17.5 90.5 16.6 93.3-2.4 7.4-12.9-1.3-6-5.1 6.9-3.7 8.4 9.8 0.9 7.8-7-1.9-10.8-25.8-12.7-32.1-24.4-77.2 3.3-114.9 29.3-184.8 11.6-31.1 18.5-63.6 29.7-94.8 10-28 24-54.2 35.7-81.6 4.3-10.1 18.9-9.3 15.6 3z"  fill="#fff" /><path d="M177-29.3c-2.4 23.1-6.4 46.1-7.4 69.4-0.3 7.5 4.7 32.4-0.8 37.3-6.2 5.5-12.9-6.5-4.9-8.9 7.9-2.4 8.9 11.3 0.7 10.2-15.9-2.3-4.7-98.3-0.1-111 2.8-7.4 12.4-4 12.5 3z"  fill="#fff" /><path d="M188.9-11c-3 20.1-4.6 84.5-9.1 88.3-6.5 5.4-13-7-4.8-9.2 8.2-2.2 8.8 11.9 0.4 10.4-14.6-2.5-3.8-82.1 0.8-93.1 3.1-7.5 13-3.6 12.7 3.6z"  fill="#005bbb" /><path d="M199.4-80.5c7.2 46.7-10.1 91.2-11.5 137.4-0.1 5 4 21.8-4.9 22.1-7.3 0.2-7.1-11.3 0.2-10.8 7.3 0.6 5.8 12-1.4 10.7-19.2-3.6 5.4-109.8 6.7-124.1 1-10.3-3-27.5 0.7-36.8 2.2-5.4 9.1-3.5 10.2 1.5z"  fill="#fff" /><path d="M208.4-197.7c61 102.4 120.2 83 66.2 228.6-3.1 8.4-8.7 47.4-17.8 48.7-12 1.7-7-18.7 2.8-11.7 8.4 6-4.3 17.5-9.4 8.5-9.1-16 36.5-114.7 33-147.7-5.5-51.9-52.1-83.1-79.8-123-2.2-3.2 2.5-6.1 5-3.4z"  fill="#c2e1ff" /><path d="M223.1-399.3c7.5 58.2 21.9 115.1 69.8 153 23.5 18.6 50.3 32.7 72.9 52.5 9 7.8 70.5 75.4 54.6 86.2-5.6 3.8-9.8-6.7-3.1-7.8 6.7-1.1 6.1 10.2-0.5 8.4-6.9-1.9-9.3-29.6-31.6-59.8-38.6-52.2-107.5-71-141.1-127.3-18.3-30.6-26.9-68.7-31.3-103.8-0.8-6.8 8.5-7.8 10.3-1.4z"  fill="#005bbb" /><path d="M236-30.9c-3.1 24.5-11.6 47.8-16.4 71.9-1.3 6.4 0.1 42.1-11.6 37.7-6.3-2.4-3.7-12.1 3-11.2 7.8 1.2 5.2 13.3-2.4 11.4-16.8-4.5 9.4-101.3 14.7-113.6 3.3-7.5 13-3.5 12.7 3.8z"  fill="#005bbb" /><path d=""  fill="#005bbb" /><path d="M264.8-400c22 70.5 84.8 95.4 132.7 144 35.5 36 56 85.8 73.1 132.6 2 5.6 13.1 26 6.4 30.1-5.2 3.2-9.8-5.2-4.3-7.9 4.7-2.2 8.8 4.4 4.7 7.6-8.7 6.8-13.3-23-14.5-26.4-11.9-35.1-26.6-70.8-45.9-102.6-33.1-54.4-93-77.3-131.9-125.7-10.1-12.6-26.5-33.2-28.4-49.8-0.6-5.1 6-5.9 8.1-1.9z"  fill="#fff" /><path d="M265.9-157.3c70.8 64.1 70.2 109.4 36.7 194.5-3.2 8-8.7 42.6-18.5 43.2-12.7 0.9-6-20.2 3.9-12.1 8.4 6.9-5.7 18.1-10.5 8.3-7-14.4 36.7-107.4 37.2-135.2 0.5-23-7.3-44.6-20.6-63.1-1.2-1.7-39.6-43.8-28.2-35.6z"  fill="#fff500" /><path d=""  fill="#fff500" /><path d="M295.3-7.6c-6.9 22.6-28.3 85.8-30.7 87-9.4 4.5-13.4-12.3-3-12.5 10.4-0.2 7 16.8-2.5 12.6-13.5-6 15.1-86.4 24-94.9 6-5.7 13.7 0.8 12.2 7.8z"  fill="#fff" /><path d="M302.9-397.7c25.7 53.3 83.6 77.2 119.7 121.7 39 48.2 68.7 138.6 91.2 197.7 3.3 8.7 27.2 62.8 18.8 68-7 4.4-9.5-9.8-1.5-8.1 8.1 1.7 0.2 13.7-4.5 6.9-12-17.2-14.8-49-22.3-69-19.1-51.1-40-103-62.9-152.5-29-62.7-85.8-88.5-128.3-138.9-5.3-6.2-14.1-15.2-16.4-23.2-1.1-4 4-5.5 6.2-2.6z"  fill="#c2e1ff" /><path d="M315.1-101.5c22.4 41.2 10 85.5-6.3 126.2-3.6 9-15 58.3-25.8 55.5-7.7-2-6-13.8 2-13.5 9.3 0.4 8 15-1.2 13.7-17.4-2.6 24.9-98.1 28-110.5 3.3-13.3 5-27 3.6-40.6-0.8-7.8-9.3-23.6-7.1-30.4 1.1-3.4 5.3-3.1 6.8-0.4z"  fill="#fff" /><path d="M332.8-400.2c25.2 46.1 76.1 70.9 106.3 113.4 32.5 45.8 60.1 138.5 90.4 196.1 6.7 12.7 34.7 50.7 31.3 64.7-1.4 5.9-10.4 1.5-6.6-3.3 3.7-4.7 10.1 3 4.6 5.8-12.3 6.2-99.7-210.2-109.2-231.3-26.5-58.6-80.9-85.4-117.2-135.2-2.3-3.2-5.7-17.6 0.4-10.2z"  fill="#c2e1ff" /><path d="M342.3-7.8c-3 10.8-32.5 87.9-32.6 88-10.3 4-13.2-14.1-2.2-13.4 11.1 0.7 6 18.4-3.7 13.1-11.6-6.2 17.9-86.8 26.3-95.1 5.8-5.8 13.5 0.5 12.2 7.4z"  fill="#c2e1ff" /><path d="M364.2-400.2c23.1 38.9 63.3 64.3 88 102.4 36.8 56.9 46.8 126.6 83.3 184.6 4.8 7.6 49.5 69 44.7 71.7-3.1 1.7-6.1-2.5-3.5-4.9 2.6-2.3 6.5 1.2 4.5 4-3.6 5-8.2-5.1-8.8-6.2-28.6-44.6-60.9-85.6-81.5-135-12.2-29.2-20-60.1-32.9-89-22.2-49.9-65.1-79.3-96.8-121.8-2.7-3.7-1.1-10.4 3-5.8z"  fill="#fff" /><path d="M364.7-55.9c0.8 17.1-23.7 140.2-40.2 135.7-9.1-2.5-4.4-16.6 4.3-13.2 8.8 3.5 2.6 17-5.7 12.6-11.9-6.2 7.3-47.8 10.4-56.9 16-46.7 15.3-76 21-82.3 3.9-4.3 9.7-0.9 10.2 4.1z"  fill="#fff" /><path d="M376.8-46.5c-0.3 16-22.6 130-36.4 126.7-8.9-2.1-4.9-16 3.8-12.9 8.7 3.1 3.1 16.4-5.1 12.4-11.1-5.3 3.7-41.5 6.2-49.9 4.4-15.2 14.6-71.4 20-80.1 3.6-5.8 11.2-2.1 11.5 3.8z"  fill="#fff" /><path d=""  fill="#c2e1ff" /><path d=""  fill="#fff500" /><path d="M408.4-173.6c46.8 68.4 36.3 123.6 40.5 200.4 0.5 9.1 13.3 43 10 48.6-2.8 4.8-9.6-1.3-5.1-4.6 4.5-3.2 8.2 5.3 2.7 6.4-25.3 4.8-18.4-141.4-20.1-155.7-2.8-22.8-9.4-45-19.1-65.9-2.9-6.2-15.4-21.6-14.4-28.1 0.5-2.9 3.9-3.1 5.5-1.1z"  fill="#fff" /><path d="M420.2-214.6c33.5 50.3 56 112.5 62.8 172.5 2.7 23.6 2.9 47.7 8.5 70.8 1.6 6.5 19.9 47 17.9 47.5-4 1.1-4.3-5.8-0.2-5.1 4.7 0.8 0.5 8-2.6 4.2-37.8-48.7-28.8-108.8-42-165.6-13-55.9-37.9-84.6-49.8-121.8-1.1-3.5 3.4-5.1 5.4-2.5z"  fill="#fff500" /><path d="M432.6-172.6c41 77.8 30.8 116.6 42.8 196.5 1.1 7.1 17.2 52.1 15.7 52.4-3.7 0.8-4.7-5.1-0.9-5.5 3.8-0.4 4.1 5.5 0.3 5.5-12 0.1-23.2-43.1-25.1-52-6.8-32.9-3.6-67-8.6-100.2-5.5-36.5-23.9-63.2-30.8-94.3-0.9-4.2 4.5-5.5 6.6-2.4z"  fill="#fff" /><path d="M447.8-400.2c15.5 35.1 38.1 66.1 51.2 102.5 15.6 43.2 21.6 89.3 45.6 129.3 11 18.4 24.8 34.9 40.2 49.8 1.6 1.6 18.3 14 14.5 16-0.1 0-0.2 0.1-0.3 0.1-3.2 0.9-10.4-8-12.5-9.9-63-56-70.9-111.1-96.7-186.4-12-35.1-32.5-65.1-48.6-98.2-2.1-4.4 4.1-7 6.6-3.2z"  fill="#c2e1ff" /><path d="M457-121.3c17.5 49.3 12.7 98.6 22.1 148.9 1.3 6.7 17.8 47.8 15.6 48.4-3.6 0.9-4.7-5-1-5.4 4.3-0.5 3.7 6.7-0.5 5.3-25.7-8.3-29.5-101.4-31.1-124-1.8-24.3-11.7-47.9-13.4-71.6-0.4-5.2 6.3-5.8 8.3-1.6z"  fill="#fff" /><path d="M468.5-220.4c10.1 26.2 132.5 293.6 122.9 297.5-5.4 2.2-7-7.4-1.2-7.1 5.8 0.3 3.3 9.6-1.8 6.9-8.9-4.7-39.1-95.4-45.4-110.6-25.6-62.1-60.3-120-82.1-183.9-1.7-5.1 5.2-7.4 7.6-2.8z"  fill="#c2e1ff" /><path d="M481.5-60.7c5.7 34.1 3.8 70.1 15.6 103 1.7 4.7 18.8 32.4 13.9 33.7-3.4 0.9-4.6-4.6-1.1-5.1 3-0.5 4.2 3.9 1.4 5-7.9 3-23-34-25.1-39.7-5.9-16.3-19.8-83.1-14.6-97.9 1.9-5.3 8.6-3.8 9.9 1z"  fill="#fff500" /><path d="M493 15.9c2.2 13 6 25.8 11.7 37.8 2 4.1 12.5 16.3 11 20.4-1.4 3.9-7.2 0.3-4.4-2.6 2.9-3 6.7 2.8 2.8 4.2-10.1 3.9-30.9-50.6-30.7-58.8 0.1-5.9 7.8-5.9 9.6-1z"  fill="#005bbb" /><path d=""  fill="#fff" /><path d="M516.1-308.2c13.6 47 18.9 96.5 47.1 138 8 11.8 17.4 22.7 27.6 32.7 1.1 1 12.6 8.5 8.4 10.6-0.1 0-0.2 0.1-0.3 0.1-3.6 1-13-10.6-15.5-12.8-40.4-38.4-56.8-85.6-69.2-138.7-1.8-7.7-8.6-21.9-6.8-29.7 1.1-4.9 7.1-4.2 8.7-0.2z"  fill="#fff500" /><path d="M528.2-284c9.1 40.7 17.4 81.1 42.4 115.5 3.1 4.2 29.7 34.3 28.6 34.8-2 1-3.3-2.2-1.3-2.9 2.1-0.8 3.1 2.6 0.9 3.1-3.8 0.9-13.3-11.1-15.8-13.7-37.1-36.7-52.6-81.9-63.5-131.7-1.5-6.8 5.8-13.4 8.7-5.1z"  fill="#c2e1ff" /><path d="M522.4-399c3 52.4 19.5 149.5 41.5 196.1 5.1 10.7 35.6 46.9 36.4 51.8 0.5 3.4-5.4 2-3.4-0.8 2-2.8 5.3 2.2 1.9 2.9-5.3 1-19.6-19.3-22.9-23.4-43.3-54.3-55-149.5-63.4-217.3-1-7.8 7.1-22.6 9.9-9.3z"  fill="#c2e1ff" /><path d="M549.9 56.4c1.8 3.5 12.3 15.2 8.9 19-2.6 3-7.1-1.4-4.2-4 3.4-3.1 7.3 3.5 2.9 4.9-12.8 4.1-15-29.7-7.6-19.9z"  fill="#fff500" /><path d="M558.9-397.9c-7.1 55.2-2.5 124.3 17.1 176.7 3.4 9 25 41.2 25 45.8 0.1 4.6-7.3 1.8-4.2-1.6 3.1-3.4 6.5 3.7 2 4.1-9.2 0.7-25.9-36.2-29.2-43.5-23.7-52.4-29.7-125.9-23.5-182.7 0.9-8.4 12.5-6.8 12.8 1.2z"  fill="#fff500" /><path d="M572.1-138.4c3 3.4 29.1 27.2 27.6 28.8-4.2 4.4 3.8-4.9 0.1-0.1-2.4 3.2-9.3-5.9-10.8-7.1-4.8-4.2-9.5-8.4-14.1-12.9-0.7-0.7-9-13.8-2.8-8.7z"  fill="#fff500" /><path d="M584.8-191.7c2.7 4.5 17 19.7 16 23.8-0.9 3.5-6.2 0.7-4-2 2.3-2.8 5.9 2 2.7 3.5-4.3 2-19.8-19.6-20.1-23.3-0.3-3.3 3.6-4.1 5.4-2z"  fill="#005bbb" /><path d="M595.8-397c-9.9 45.1-13.2 94.6-5.5 140.2 1.1 6.3 15.5 45.8 8.6 46.2-4.3 0.2-5.3-6.1-1.2-7.3 4.8-1.3 6.5 6.4 1.6 7.2-11 1.7-19.6-48.7-20.9-56.4-5.1-32.1-9.3-104.6 4.4-134.1 3.6-7.6 13.6-3.2 13 4.2z"  fill="#fff" /><path d=""  fill="#c2e1ff" /><path d=""  fill="#c2e1ff" /><path d=""  fill="#005bbb" /><path d=""  fill="#fff" /><path d=""  fill="#c2e1ff" /><path d=""  fill="#005bbb" /><path d=""  fill="#005bbb" /><path d=""  fill="#c2e1ff" /></svg>