<svg width="1200" height="675" viewBox="-500 -500 1200 675" xmlns="http://www.w3.org/2000/svg"><path d="M-500-500h1200v675h-1200z" fill="#000"/><path d=""  fill="#c2e1ff" /><path d="M-396.5 1.5c9.4 7.8 71.9 63.7 56.2 76.8-6.6 5.5-14.7-5.3-7.5-10.1 7.1-4.7 14 6.9 6.4 10.8-11.3 5.9-20.6-28-24.6-34.3-9.6-14.8-44.9-53.3-30.5-43.2z"  fill="#c2e1ff" /><path d="M-396.7 1.6c9.4 7.8 72 63.6 56.3 76.6-6.6 5.5-14.6-5.3-7.5-10 7.1-4.7 14 6.9 6.3 10.8-11.3 5.9-20.6-28-24.6-34.3-9.6-14.8-45-53.2-30.5-43.1z"  fill="#c2e1ff" /><path d="M-395.7-27.2c10.5 11.3 87.8 91.7 66.5 106.2-9.3 6.4-16.3-10.9-5.2-12.8 9.5-1.6 11.2 13.4 1.7 14.1-11.4 0.7-24.2-46.5-30.2-56-10.7-16.9-29-30.5-38.4-47.4-2.1-3.7 2.7-6.5 5.6-4.1z"  fill="#005bbb" /><path d="M-394.6-59.3c9.6 16.1 98.1 124.6 73.3 139.5-8.9 5.3-16.5-9.2-7.1-13.5 9.4-4.3 15.4 10.9 5.6 14.2-13.9 4.6-21.3-42.4-25.3-51.1-13-28.5-46.5-60.2-55.3-84.6-2.1-5.7 5.3-8.5 8.8-4.5z"  fill="#fff500" /><path d="M-394-68.4c8.9 17.7 99.5 134.2 74.2 148.7-9.1 5.3-16.6-9.5-7-13.7 9.6-4.2 15.5 11.2 5.5 14.4-13.8 4.4-23.6-49.7-28.2-59.3-8.9-18.7-54.1-73.2-54.7-87.1-0.3-6.1 7-7.2 10.2-3z"  fill="#fff" /><path d="M-370.7-241.8c-11.8 61.9-27.9 120.9 1.4 180.5 7.1 14.4 79 138.5 52.8 142.6-10.9 1.7-12.6-15.6-1.6-16.2 9.4-0.4 11.6 13.5 2.5 16-14.1 3.8-25.3-61.9-30-72.9-26.2-60.5-66.4-107.7-60.5-177.5 2-23.7 3.6-57.7 13.7-79.5 5.9-12.7 22.5-5.4 21.7 7z"  fill="#005bbb" /><path d="M-351.2-304c-12.9 77.6-40.4 160.3-8.7 236.6 6.5 15.6 72.4 146 46.9 149.3-9.6 1.2-13-12.9-3.8-16.1 9.1-3.3 15.4 9.8 7.2 14.9-13.4 8.4-14.5-16.5-15.7-22.3-14.6-72.3-66.7-133.4-69.5-208.1-0.9-23.5 11.9-148.2 23.6-163.2 7.7-9.9 20.7-1.9 20 8.9z"  fill="#005bbb" /><path d="M-334.4-122.5c4.9 31.8 51.5 183 40.2 201-7.6 12.2-24.7-4.5-12.6-12.4 12-7.9 20.5 14.4 6.3 16.5-17 2.5-18-68-20.6-80.3-6.6-31.9-31.4-95-29.8-123.8 0.6-10.2 13.8-9.7 16.5-1z"  fill="#fff500" /><path d="M-311.4-265.3c-26.2 89.1 6.6 181.4 19.2 270 1.6 11.5 17.7 78.4-2.6 78.3-12.8-0.1-11.6-20.2 1.1-18.8 10.9 1.2 10.8 17.6-0.1 18.7-17.5 1.8-16.6-83.6-18.7-97.8-12.1-82.8-43.4-172-22-255.8 3.9-15.2 24.8-9.4 23.1 5.4z"  fill="#fff500" /><path d="M-294.8-38.2c2.4 15.5 23.3 121.2 2 120.9-12.9-0.2-11.5-20.6 1.3-19 12.8 1.6 9.2 21.7-3.4 18.7-9.3-2.2-19-115.4-16.5-122.3 3.2-9 14.5-6.3 16.6 1.7z"  fill="#005bbb" /><path d="M-273.7-214.1c-4.3 69.6 31.6 153 29.6 238.3-0.3 13.3 3.5 46.2-5.8 56.5-11.4 12.4-27.5-10.4-11.9-17 15.5-6.5 20.5 21 3.7 20.4-17.9-0.7-5-86.1-6-110.3-1.8-43.1-35.5-163.6-29.1-190.1 2.8-11.8 18.1-8.4 19.5 2.2z"  fill="#005bbb" /><path d="M-253.7-225.7c-10.2 88.4 50.5 170.7 57.6 258.1 0.9 10.7 8.2 47.3-7.3 50.8-13.6 3.1-17.3-18.7-3.5-20.2 13.9-1.6 15.2 20.4 1.2 20.4-18.6 0.1-9-42.6-9.2-52.6-2.5-77.5-43.4-144.6-56.1-219.8-9.4-56 15.5-57 17.3-36.7z"  fill="#fff" /><path d=""  fill="#c2e1ff" /><path d="M-214.1-241.3c-5.3 34.2 2.9 69.7 21.5 98.7 46.6 72.8 147.9 80.7 125 189.6-2.2 10.2-4 34.5-16.5 38.2-13.9 4.1-22.2-16-9.5-23 14.9-8.1 26.4 16 10.8 22.5-35.7 14.7 9.4-78-6.8-116.6-22.4-53.5-99.1-74-129.1-134.9-9.9-20-23-55.6-15.9-78.3 3.9-12.3 19.9-7.6 20.5 3.8z"  fill="#005bbb" /><path d="M-192.6-387.3c-40 70.6-82.9 141.6-66.5 225.6 4.2 21.5 58.9 218.5 23.6 214.6-10.1-1.1-12.5-15.3-3.2-19.6 10.9-5 20.1 10.3 10.6 17.6-18.3 13.9-15.8-20-15.6-26.4 3.3-95.4-52.2-189.4-37.1-279.3 5.7-33.8 42.6-123.6 65.5-148.7 11.6-12.7 28.4 2 22.7 16.2z"  fill="#fff500" /><path d=""  fill="#fff500" /><path d=""  fill="#005bbb" /><path d="M-144.9-100.5c50.3 37.4 97.9 66.7 83.6 138-2.4 11.9-5.4 39.1-16.3 46.4-14.4 9.5-28.1-13.9-12.8-21.8 15.3-7.9 26.5 16.9 10.3 23-36.7 14.2 11.1-79.8-2.1-117.6-9.4-26.8-78.3-76.3-62.7-68z"  fill="#005bbb" /><path d="M-123.4-187.6c23.4 32.1 61.6 48.9 88 78.1 41.8 46.3 28.1 101.9 1.9 152.1-6.3 12-17.2 48.2-35.3 44.3-15.8-3.4-13.3-27.4 2.8-27.5 16.1-0.1 18.9 23.9 3.2 27.5-9.4 2.1-18.3-6.2-16.8-15.7 7-43.9 64.5-82.3 50.5-145.7-10.5-47.8-58.9-69.1-91.5-99.7-0.8-0.8-7.9-6.8-9-9-2.2-4.2 3.1-7.1 6.2-4.4z"  fill="#fff" /><path d="M-105.8-126.1c74 46.2 99.8 87.1 62.4 172.3-4.7 10.7-11.5 38.4-25.7 40.6-24.9 3.9-15.2-38.9 5.6-24.6 20.8 14.3-15.7 38.6-20.9 14-3.3-15.6 39.5-82.8 39.1-116.2-0.3-22.3-10.5-42-26.3-57.4-7.4-7.2-44-33.4-34.2-28.7z"  fill="#c2e1ff" /><path d="M-85.9-130.4c70.1 45.9 85.1 94.6 49.2 171-5.5 11.6-14.7 44.6-30.1 46.7-25.3 3.4-14.5-39.7 6.2-24.7 20.7 14.9-16.7 38.8-21.5 13.7-2.6-13.4 41.5-85.6 44.8-113.6 2.6-22.3-3.8-43.4-17.7-60.9-9.2-11.6-44-39.1-30.9-32.2z"  fill="#005bbb" /><path d="M-28.9-400.5c20.9 19.7 45.8 34.3 65 56 50.5 57.3 62.2 148 51.2 221.2-2.7 18-8.2 67-26.9 76.1-17 8.2-28.4-19.3-10.7-25.6 17.8-6.3 26.2 22.3 7.8 26.6-7.6 1.8-15.5-3.3-16.8-11.1-2-11.5 18.9-47.7 22.5-62.4 11.1-44.9 9.9-92.6 0.2-137.7-7.4-34.4-20.3-67.6-43.7-94.3-14.7-16.8-39.6-28-52.3-45.4-1.9-2.5 1.4-5 3.7-3.4z"  fill="#fff500" /><path d="M-45.8-317c71.4 60.9 127.6 163.5 96.7 259.1-10.2 31.6-29.6 58.3-50 84-9.1 11.4-41.9 61.6-54 61.8-27.3 0.5-10.5-44 9.7-25.5 20.2 18.4-22.6 39.2-24.6 11.9-1.3-17.8 25.6-43.4 35.7-56.4 30.1-38.7 64.1-75.8 70.6-126.4 7.1-55.2-15.6-115.4-47.2-160-11.7-16.6-53.5-60.1-36.9-48.5z"  fill="#005bbb" /><path d="M-21.7-80.2c27 47.6-22 172.7-48 167.2-18.4-3.8-10.9-32.5 7-26.7 17.9 5.8 7.3 33.5-9.9 25.8-22.8-10.2 32.9-90.8 39.1-118.4 3.2-14.2-4.1-39.2-0.5-48.1 2.4-6 9.8-4.8 12.3 0.2z"  fill="#fff500" /><path d="M-6.7-335.8c77.6 57 103.3 179.6 72.8 268.1-11.7 34-32.8 62.4-56.1 89.4-9.5 11.1-43.4 58.9-55.8 58.7-28-0.6-9-45.4 10.9-25.7 19.9 19.7-24.7 39.1-25.6 11.1-0.5-16.6 41.1-58.6 52.7-71.9 29.2-33.8 54.5-68.5 62.6-113.4 10-54.7-1-117.4-27.3-166.4-9.6-17.7-51-61-34.2-49.9z"  fill="#c2e1ff" /><path d="M23.7-22.4c-10.1 22.3-53.1 92.1-70.9 106.8-5 4.1-12.2 4.4-17.5 0.8-16.2-11.3 3-35.8 17.8-22.9 14.9 12.9-6.8 35.2-20.2 20.8-14.4-15.6 69.6-123.6 73.8-125.1 12.8-4.7 21.3 8.6 17 19.6z"  fill="#fff500" /><path d="M34.3-390.5c88.4 98.8 87.9 280.4 6.6 382.8-10.1 12.8-35 52-53.5 49.3-29.6-4.2-3.8-49.2 14.8-25.9 18.6 23.4-31.1 38.4-28.5 8.7 1.3-15.1 42.1-50.4 52.9-64 26.4-33.2 41.7-71.9 48.6-113.6 9.7-59.4 4.9-124.6-17.7-180.7-7.7-19.1-21.6-34.3-30-52.4-2.1-4.5 3.7-7.3 6.8-4.2z"  fill="#c2e1ff" /><path d=""  fill="#fff500" /><path d="M79-208.2c20.5 111.2-20.7 174.7-89.6 255.2-9.5 11.1-26.5 46.6-44.5 40.4-22.4-7.7-2-41.2 15.1-24.8 17.1 16.3-15.5 38.2-24.1 16.2-6.6-16.7 83.7-112.9 98-136 45.4-73.2 19.6-128.2 28.5-152.7 3.2-8.9 14.5-6.2 16.6 1.7z"  fill="#c2e1ff" /><path d=""  fill="#fff" /><path d="M121.6 20.8c-12.6 15.2-80.2 91.7-100.4 62.7-13.6-19.5 18.3-39.3 29.8-18.4 11.4 20.9-22.5 37-31.6 15.1-2.2-5.3-1.6-11.5 1.6-16.3 4.2-6.3 83.6-69.4 87.2-69.8 15.6-1.6 21.4 15.7 13.4 26.7z"  fill="#005bbb" /><path d="M140.9-398.4c2.3 95.3-3.7 188.9-33.6 279.9-8.1 24.7-19.8 70.7-41.8 86.9-19.2 14.2-35.3-22-11.9-26.8 23.4-4.8 22.8 34.8-0.4 29.4-8.3-1.9-13.4-10.7-11-18.9 4.1-14.1 18.2-27.7 25-41.1 17-33.4 27.8-70.1 36.7-106.3 19-77.1 10.2-172.3 17.9-205.2 2.7-11.6 17.8-8.4 19.1 2.1z"  fill="#005bbb" /><path d="M161.4-116.7c-26.9 33-47.2 70.8-76 102.3-11.2 12.3-102.3 95.2-112.6 101.5-6 3.6-13.9 2.8-19-2.1-15.5-14.7 9-38 22.8-21.6 13.9 16.3-13 36.8-25 19-16.2-23.8 102.8-109.6 125.2-135.2 16.1-18.4 47.6-78.7 65.9-87.2 15.4-7.2 26.2 10.6 18.7 23.3z"  fill="#fff" /><path d="M180.8-111.3c-35.6 36.9-60.2 82.7-98 117.7-14.8 13.7-87.1 73.8-101.2 81.2-6.4 3.4-14.4 2-19.3-3.2-15.1-16.1 11.5-38.5 24.7-20.9 13.3 17.6-15.6 37.1-26.9 18.1-14.6-24.5 101.2-99.5 122.7-121.6 25.2-25.9 49.2-76.2 77-95.2 16.2-11.1 31 9.6 21 23.9z"  fill="#005bbb" /><path d="M198.6 47.2c-0.3 7.5 4.8 41.8-13.3 35.1-10.5-3.9-6.4-20 4.6-18.5 11 1.5 10.6 18.2-0.5 19.1-15.4 1.2-13.9-32.9-9.7-40.7 5.3-9.7 17.8-4.6 18.9 5z"  fill="#005bbb" /><path d="M217.6-329.4c7.9 68.2-32.8 118.2-65.6 173.5-48.9 82.4-64.3 125.3-138.2 193-10.1 9.3-28.4 37.3-45.2 28.8-22.8-11.5 4-44.3 19.9-24.3 15.8 20-22.2 38.5-28.2 13.7-3.3-13.8 99.7-108.2 116.6-134.3 14.6-22.5 100.7-171 109.7-190.9 6.4-14.3 10.5-60.3 14.3-65 5.8-7.1 15.4-2.3 16.7 5.5z"  fill="#005bbb" /><path d="M240.3-94.6c-24.5 32.3-38.4 70.3-45.6 109.9-2.8 15.7 0.8 53.1-9.4 65.1-12.4 14.6-27.9-14.8-8.9-16.9 16.2-1.8 13.3 25.2-2.2 20-15.7-5.3-4.7-46.4-3.4-57.4 4.4-38 17.5-113.5 47-140.2 13.6-12.3 29.8 5 22.5 19.5z"  fill="#fff500" /><path d="M253.9-365.3c15.4 36.9 23.2 77.2 7 115.2-19.5 45.8-64.1 75.1-94.7 112.8-23.6 28.9-115.8 181.2-146.5 160.3-16.5-11.3-2.4-37.6 16.2-30.2 21.7 8.7 6.1 42.1-14.6 31.1-8.6-4.6-11.6-15.8-6.6-24.1 12.5-20.6 45.9-40.7 62.7-61.7 25.7-32.2 44.6-69.1 70-101.6 22.3-28.5 49.9-51.5 73.6-78.6 20.4-23.4 32.3-50.9 28.9-82.3-1.1-10.6-12.5-31.3-8.7-41.1 2.5-6.2 10.1-5 12.7 0.2z"  fill="#fff500" /><path d="M274.1-29.3c6.7 30.8 27.4 55.6 45.3 80.5 2.9 4.1 21.1 22.4 11.1 27.4-6.7 3.3-11.4-7.4-4.4-10 6-2.2 10.2 6.3 4.9 9.7-9.4 6.1-65.7-90.3-70.7-103-3.5-8.9 9.8-12.9 13.8-4.6z"  fill="#005bbb" /><path d="M295-332.4c9.1 33 4.7 69-12 98.8-25.8 46-75 72-109.7 110.2-26 28.6-129.1 181.4-160.1 158.5-22.4-16.4 12.3-46.8 25.6-22.5 13.4 24.3-30.8 37.3-32.7 9.7-0.7-10 75.2-73.6 95.8-101.6 21.3-29.1 40.7-59.4 65.8-85.5 30.1-31.2 71.1-54.2 95-91 24.9-38.4 8.5-53.5 16.4-77.7 2.8-8.7 13.7-6.4 15.9 1.1z"  fill="#c2e1ff" /><path d="M318.8-215.2c-28.3 52.9-82.1 83.9-120.2 128.6-46.1 54.2-75.4 114.5-133.5 158.7-7.5 5.7-16.1 14.7-25.1 17.9-26.3 9.2-31.7-36.7-4.1-33.9 32.4 3.2 6.4 53.5-14.9 28.9-5.1-5.9-5.7-14.7-1.4-21.2 12.9-19.4 68-52.2 90.4-78.9 22.8-27.4 40.1-58.7 61.4-87.2 25.4-33.7 57.4-59.5 87.8-88.3 13-12.3 25.1-36.3 40.2-45 13.9-8 25.4 7.9 19.4 20.4z"  fill="#005bbb" /><path d="M330.1-63.8c26.6 50.9 92.6 64.3 98.5 129.2 0.5 6.1 1.6 13.1-4.5 16.8-13.8 8.6-22.8-16.9-6.6-18.9 16.2-2 13.6 25-1.9 20-10.6-3.4-7.2-43.7-12.4-56.4-15.4-37.5-55.6-55.4-80.9-85.1-4.1-4.8 3.7-10.1 7.8-5.6z"  fill="#005bbb" /><path d="M356-351.6c-1.3 60.5-10.5 117.5-46 168-35.3 50.2-84.3 87.3-110.1 144.3-6.8 15-32.2 99.5-39.2 101.8-18.3 6.1-21.7-25.7-2.5-23.5 19.1 2.1 8.9 32.4-7.6 22.4-13.8-8.3 0.7-35.6 3.7-46.1 46.6-161.5 75.8-128.3 146.4-238.2 33.7-52.4 28.3-119.8 36.4-134.1 5.5-9.7 18.1-4.3 18.9 5.4z"  fill="#005bbb" /><path d="M367.1-15.9c14.6 11.5 79.6 79.1 52.1 97.7-11.2 7.6-22.1-10.8-10.2-17 12-6.3 20.9 13.1 8.3 18-18.4 7.3-15.5-43.4-20.3-54.2-7.2-16.3-44.8-54.2-29.9-44.5z"  fill="#005bbb" /><path d="M374-396.5c-11.5 52.3-9.4 106.7-27 157.7-17.6 51-52.9 90-80.8 135.2-6.6 10.7-23.5 60.6-29.4 63.4-15.9 7.5-22.4-20.9-4.9-21 17.6-0.2 11.6 28.4-4.4 21.1-32.1-14.4 48.6-128.8 69.4-160.5 44.6-67.8 38.6-125.5 54.6-200.1 3.2-14.8 23.4-10.2 22.5 4.2z"  fill="#fff500" /><path d="M409.8 20.5c6.9 9.2 31 57.6 9.5 62.9-13.4 3.3-17.5-18-3.8-19.9 13.7-1.9 15.4 19.8 1.6 20.2-15.3 0.4-9.4-22.4-10-30.6-0.8-10.2-7.6-20.4-7.7-30.1 0-6.1 7.3-6.8 10.4-2.5z"  fill="#fff" /><path d="M435.5-233.5c-5.3 28.5-6.1 58.5 1.4 86.7 19.4 73.1 76.8 126.3 59.5 207.8-1.8 8.6-3 22.1-13.4 24.7-19.8 4.9-20.7-29-0.7-25.1 20.1 3.9 6.7 35-10 23.1-10.8-7.8 7.8-56.4 7.9-72.7 0.2-68.9-53.9-119.2-65.5-184.9-3.2-18.4-7.4-47.2-0.4-65.1 4.9-12.6 21.4-6.5 21.2 5.5z"  fill="#fff" /><path d="M448.5-31.6c13.9 17.9 45.9 117.4 9.7 117.1-14.3-0.1-16.4-21.4-2.4-24.3 16.3-3.4 20.3 22.6 3.8 24.2-23.9 2.4-4.2-55.1-5.8-69.2-1.2-11.7-15.7-39.1-14.5-46.1 0.8-4.8 6.5-5.1 9.2-1.7z"  fill="#fff500" /><path d="M475.1-219.1c-22.6 98.5 49.5 174.6 33.5 269.6-1.6 9.3-2.9 23.9-9.2 31.5-13.2 15.9-34.3-11.2-15.6-20.1 18.7-8.9 26.4 24.6 5.7 24.7-26.2 0.2 4.1-59.9 1.3-95.9-5.9-74-52.5-136.6-38.1-213.6 2.8-14.8 23.1-10.4 22.4 3.8z"  fill="#fff500" /><path d=""  fill="#005bbb" /><path d="M499.1-386.8c-60.4 58.4-104.8 148.8-85.1 235.3 9.7 42.6 76.3 107.9 72.8 144.6-1.4 14.8-24.3 3-13.1-6.8 11.2-9.7 19.7 14.6 4.9 14-12.2-0.5-19.2-44.7-24.6-54.9-14.1-26.5-34-49.4-47.2-76.5-30.8-63.2-14-150.4 17-210.8 11.9-23.2 32.1-56.7 55-70.6 17.2-10.5 31.2 11.6 20.3 25.7z"  fill="#fff" /><path d=""  fill="#c2e1ff" /><path d="M555-370.9c-40.3 68.6-86.2 151.1-75.9 233.4 5.9 47.3 56 160.7 28 201.8-10.9 16-33-7.4-16.3-17.3 19.5-11.7 25.8 27.3 3.6 22.4-16.5-3.7 0.1-62.8-1.2-79.6-3.5-46.9-25.7-89.5-32.7-135.7-10.7-70.5 17.4-138.2 48.7-199.8 6.6-13.1 12.9-31.3 23.1-42.1 12-12.6 28.7 2.6 22.7 16.9z"  fill="#005bbb" /><path d="M574.5-325.5c-29.2 68.7-81.9 131.3-74.4 210.1 3.9 41 18.9 80.1 20.8 121.4 0.7 15.1 2.2 82.8-23.4 80.2-17.6-1.8-13.3-29.4 4-25.7 17.3 3.7 10 30.7-6.8 25.1-17.2-5.7 6.2-64.3 6.6-82 1.2-49.9-19.7-96.7-21.5-146.2-2.2-60.3 27.4-110.1 54.4-161.6 5.8-11 9.9-25.3 17.6-35 10.1-12.9 27-0.1 22.7 13.7z"  fill="#fff500" /><path d="M528.3-388.5c-50.7 59-90.4 124.1-88 204.9 0.8 27.8 8.8 54 20.3 79.1 1 2.2 19.9 34 3.1 29.6-8-2.1-4-14.5 3.7-11.5 7.7 2.9 2.4 14.8-4.9 11.1-10.7-5.5-20.1-38.5-24.7-49.5-34.5-82.3-12.5-177.4 38.2-248.1 8.8-12.2 18.7-29.5 31-38.5 15.6-11.3 30.7 8.6 21.3 22.9z"  fill="#fff500" /><path d=""  fill="#fff" /><path d=""  fill="#fff500" /><path d="M610.8-316c-25 59.3-80.7 103.5-94.6 167.8-2.7 12.6-0.7 77-2.6 78.7-11.5 10.8-21.5-14.7-5.7-14.6 13.4 0 8.6 21.8-3.6 16.2-9.6-4.5-8.4-28.1-9.3-36.2-8.2-71.3 23.4-122.8 63-178.7 9.9-13.9 19-40.3 32.5-50.1 12.1-8.9 24.5 4.7 20.3 16.9z"  fill="#fff" /><path d=""  fill="#005bbb" /><path d=""  fill="#fff500" /></svg>