<svg width="1200" height="675" viewBox="-500 -500 1200 675" xmlns="http://www.w3.org/2000/svg"><path d="M-500-500h1200v675h-1200z" fill="#000"/><path d=""  fill="#005bbb" /><path d=""  fill="#005bbb" /><path d=""  fill="#005bbb" /><path d=""  fill="#fff" /><path d=""  fill="#fff" /><path d=""  fill="#c2e1ff" /><path d="M-396.3-368.7c57.3 105.9 4.7 216.6 1.3 320.3-1 29.6 6.7 54.5 4.6 54.5-4.5 0.2-3.1-7.2 1-5.4 4.1 1.7-0.2 7.8-3.2 4.5-32.5-35.7 9.1-166.6 11.9-219.5 2.3-43.2 1.8-89.5-11.9-130.9-8.1-24.5-7.3-28.9-3.7-23.5z"  fill="#c2e1ff" /><path d="M-397.2 49.1c2.5 2.8 26.3 24.5 25.7 25.2-1.3 1.4 1.4-1-0.1 0.2-1.9 1.4-6.5-4.2-7.5-5-7-5.7-25.2-26.1-18.1-20.4z"  fill="#005bbb" /><path d=""  fill="#fff500" /><path d="M-393.2-399.8c41.7 69.3 39.6 169.3 26.4 246.8-5.6 32.9-16.4 65.3-17.7 98.8-0.6 15.8 1.1 31.6 6 46.6 0.7 2.2 8.4 15.1 2.1 15.5-3.7 0.2-3.7-5.7 0-5.5 3.7 0.2 3.1 6-0.6 5.5-8.6-1.4-13.8-34.4-14.8-41.5-9.4-62.3 21-132.4 22.1-196.9 0.8-42.3 0.5-86.5-11.4-127.4-1.7-5.8-20.4-53.2-12.1-41.9z"  fill="#fff" /><path d=""  fill="#c2e1ff" /><path d=""  fill="#fff" /><path d=""  fill="#c2e1ff" /><path d="M-383.2 39.9c3.1 3.8 34.7 34.4 34.5 34.6 0 0-0.4 0.3-0.5 0.3-2.2 0.6-6.2-4.5-7.6-5.8-10-8.4-36.3-37.8-26.4-29.1z"  fill="#fff" /><path d="M-370.7-182.4c-6.2 59.2-37 121-15.2 180.1 8.9 24.1 25.4 43.8 43.6 61.4 1.3 1.3 17.5 15 13.4 15.5-2.4 0.3 2.1 0.2-0.2 0-7-0.7-21.6-19.8-26.7-24.9-27.9-28.3-46.1-62.1-46.7-102.4-0.4-26.9 12.9-107.2 22.4-132 2.1-5.6 9.4-3 9.4 2.3z"  fill="#fff500" /><path d="M-362.4-279.2c1.8 34.8 2 70.1-2.1 104.8-6.1 52-30.1 105.5-17.3 158.2 7.1 29.1 25.1 52.6 45.9 73.6 1.6 1.6 18.9 17 14.4 17.4-2.6 0.2 2.3 0.3-0.3 0-6.5-0.8-20-19.1-24.7-24.1-81.5-84.3-30.5-159.6-24.7-258.2 1.3-22.8-4.1-50.2 0.3-72.3 1-5.1 7.7-3.9 8.5 0.6z"  fill="#c2e1ff" /><path d="M-353.8-342.4c7.4 58.8 6.4 123.3-2 181.9-6.3 44.3-23.5 89.3-16 134.5 5.3 32.5 24 58.7 45.9 82.3 1.6 1.7 19.3 18.4 14.2 18.6-6.3 0.3 6.3-1 0.1 0-4.3 0.7-18.9-19-22.1-22.4-86.3-93.2-27.8-184-25.9-294.6 0.3-16.4-5.3-92.7-1.9-101.4 1.6-4.1 6.9-2.7 7.7 1.1z"  fill="#c2e1ff" /><path d="M-344.2-210.7c-3.3 65.6-37.1 141.2-14.9 205.3 8.9 25.6 26.1 46.5 44 66.3 2 2.2 11.5 9.7 10.7 12.9-0.7 3-5.1-0.1-2.5-1.8 2.2-1.4 3.7 2.7 1.1 3-5.5 0.7-24.1-25.6-27.9-30.1-70.5-82.8-26.3-159-20-253.5 0.4-6.7 9-10.5 9.5-2.1z"  fill="#fff500" /><path d="M-335.5-349c0.1 62.3-2 127.7-10.8 189.5-6.3 44.3-22.9 89.5-15 134.6 5.4 30.9 22.9 56.3 43.1 79.6 3.4 3.9 15.6 13.5 16 18.5 0.2 3.1-5 1.5-3-0.9 2-2.4 4.7 2.4 1.5 2.8-5.5 0.7-23.8-25.8-27.7-30.5-63-75.2-33.4-135.7-22.6-221.5 5.5-44 5.9-88.8 8.1-133 0.6-12.4-1.5-28.2 1.6-40.2 1.4-5.3 8.3-3.7 8.8 1.1z"  fill="#fff" /><path d="M-326.3-273.5c-4.3 37.2-5.6 74.8-10.8 111.9-4.7 33.2-14.2 65.9-16.6 99.4-1.1 15.7-0.2 31.6 3.7 46.9 7.4 29 25.3 52.7 44.1 75.3 2 2.4 11.6 10.7 10.7 14-0.8 2.8-5 0.5-3.2-1.8 2.2-2.5 4.9 2.7 1.6 3.1-5.6 0.5-23.5-27-27.3-31.8-55.9-70.7-35.5-126.1-23-206.6 5.4-34.7 6.8-69.7 10.4-104.6 0.7-6.7 10.3-17.8 10.4-5.8z"  fill="#005bbb" /><path d="M-317.3-183.3c-8.3 58.1-33 122.6-12.6 180.6 9.5 27.1 40.5 56.8 46.2 75.5 1.1 3.7-5.5 3.1-3.8-0.3 2-4 6.4 2.8 1.9 2.9-5.5 0.2-19.8-25.4-23.2-30.1-55.5-77-34.7-144-18.4-230 1.2-6.5 10.1-4.8 9.9 1.4z"  fill="#fff" /><path d="M-311 15.8c3.2 6.7 36.6 58.3 34.4 59.6-2.6 1.5-4.8-2.7-2-3.9 3.2-1.4 4.4 4.3 0.8 4.2-4.3-0.1-10.4-13.9-12.5-17.1-8.9-13.2-18-26.3-25.4-40.4-1.6-3.1 2.8-5.2 4.7-2.4z"  fill="#fff500" /><path d="M-299.3-212c-12.9 62.5-39.8 141.2-21.2 204.3 4.6 15.5 44.9 76.6 44.6 81.1-0.3 4.1-6.8 1-3.8-1.7 3-2.8 5.6 3.9 1.5 3.8-6-0.1-20.5-28.7-23.9-34-52.7-80.7-24.7-165.1-7.9-252.8 1.4-7.4 11.4-9.6 10.7-0.7z"  fill="#fff" /><path d="M-290.2-301.2c-18 52.5-53.9 232.9-42.8 282.9 9.2 41.7 42.9 67.1 50.3 91 1.1 3.7-5.6 3.1-3.9-0.3 2-4.1 6.5 2.9 1.9 3-5.9 0.1-21.8-28.4-25.4-33.6-16.7-23.8-30-49.5-33.8-78.8-5.9-45.9 25.8-213.2 40.9-261.2 2.4-7.8 15.4-15.8 12.8-3z"  fill="#005bbb" /><path d="M-303.1-397.3c-13.3 77.1-21.1 153.9-31.6 231.3-5.7 41.8-20.7 84.5-17.2 127 0.2 2 1.8 14.7-5.4 10.2-3.8-2.4-0.8-8.5 3.4-6.9 4.2 1.5 2.6 8.1-1.8 7.5-19.7-2.6 8.2-120.7 10.5-135.3 7.9-50.7 15.9-198.5 32.4-236.7 2.5-5.7 9.9-2.6 9.7 2.9z"  fill="#c2e1ff" /><path d="M-283.8-396.9c-24.9 79.5-33.6 158.5-46.5 240.2-4.8 30.5-13 60.6-15.5 91.3-1.5 18.4-0.5 36.9 4.7 54.8 1.7 5.9 10.4 19.3 9.4 24.8-0.8 4.7-7.9 0.4-4.1-2.5 3.8-2.9 6 5.2 1.3 4.6-4.7-0.5-8.2-13.6-9.8-17.2-20.6-49-6.3-99.6 2.6-149.5 9.9-55.3 22.6-208.5 47.7-251 3.5-5.9 11.2-1.5 10.2 4.5z"  fill="#fff500" /><path d="M-266.1 28.9c2.2 5.6 22.1 45.3 16.8 47.2-3.7 1.4-5.5-4.5-1.7-5.5 3.8-1 5 5.1 1.1 5.7-5 0.7-8.1-13.3-9.4-16.4-3.8-8.7-7.7-17.5-11.3-26.3-1.7-4.1 1.6-10.1 4.5-4.7z"  fill="#c2e1ff" /><path d="M-254.7-193.4c-18.4 57.9-37.9 126.6-24.1 187.3 5 22.3 14.2 43.2 23.5 63.9 1 2.3 11.3 18.4 4.1 18.7-3.3 0.1-4-4.8-0.9-5.6 3.8-1 5 5 1.2 5.6-5 0.7-8.2-13.2-9.6-16.3-19.6-43.6-35.1-85.6-30.8-134.3 3.5-40.6 12.9-83.9 26-122.5 2.4-7 11.9-3.7 10.6 3.2z"  fill="#c2e1ff" /><path d="M-246.1-110.2c-8.2 48-8.4 94.2 3.8 141.5 2.4 9.1 14.9 34.9 11.8 43.4-1.8 4.9-9.2 0.2-5.5-3.5 4.4-4.3 8.6 5.5 2.5 5.6-6.5 0.2-11.7-30.3-13.3-35.9-14.2-50.1-19.2-101.2-9.3-152.7 1.3-6.6 10.2-4.8 10 1.6z"  fill="#005bbb" /><path d="M-238.1-19.3c0.6 10.6 16.1 95.4 12.9 96-4.7 0.9-5.7-6.6-0.9-6.9 4.8-0.4 5 7.1 0.1 7-9.4-0.3-22.1-85.8-20.3-96.5 0.8-5 7.4-4.1 8.2 0.4z"  fill="#c2e1ff" /><path d="M-229.2-11.3c0.6 10 13.2 88 8.9 88.6-4.2 0.7-5.8-5.5-1.9-6.9 4.6-1.8 7 5.6 2.3 6.9-7.2 1.9-7.4-16.7-8.1-20.6-3.8-19.9-12.8-48.3-9.5-68.4 0.9-5 7.4-4.1 8.3 0.4z"  fill="#fff500" /><path d="M-220.3 5.7c0.5 8.5 10.4 71 4.6 71.7-5.1 0.6-5.6-7.4-0.5-7.5 5.1-0.1 4.8 8-0.3 7.5-9.2-0.9-11.7-62.1-12.1-71.1-0.3-5.5 7.3-5.8 8.3-0.6z"  fill="#c2e1ff" /><path d="M-211.1-22c-0.1 10.9 5.7 99.2 1.1 99.5-4.5 0.4-5.8-6.3-1.5-7.6 5.1-1.6 7.1 6.6 1.9 7.6-8.4 1.6-12.9-89.8-10.3-100.6 1.3-5.3 8.2-3.7 8.8 1.1z"  fill="#005bbb" /><path d="M-201.8-149.5c-6.4 56.6-6.8 115.3-5.6 172.2 0.2 7.2 6.2 54-0.7 54.4-4.6 0.3-5.8-6.5-1.3-7.8 5.2-1.5 7.1 6.8 1.8 7.8-9 1.6-8-43.5-8.3-50.1-0.8-20.3 1.1-176.1 5.9-180.6 3.5-3.2 8-0.1 8.2 4.1z"  fill="#005bbb" /><path d=""  fill="#fff500" /><path d="M-236.9-395.2c-51.9 93.1-66.6 183.6-86.7 286.2-3.1 15.6-4.9 63.5-9 66.5-5.4 4-10-6.2-3.4-7.6 6.6-1.4 6.5 9.9-0.1 8.4-13.5-3.2 3.4-74.8 5.5-85.2 18.9-94.8 31.1-168.3 73.9-257 15.2-31.5 23.3-20 19.8-11.3z"  fill="#fff" /><path d="M-174.7-328.4c-29 98.9-77.2 182-75.6 289.3 0.5 30.9 6.9 61 15.2 90.7 1 3.6 11.1 26.3 2.6 25.4-3.9-0.4-4-6.2-0.2-6.6 3.9-0.5 5.2 5.2 1.6 6.5-6.9 2.5-13.4-33.8-14.9-39.2-39.5-147.7 16.8-230.6 58.6-362.8 2.3-7.2 14.9-16.2 12.7-3.3z"  fill="#fff500" /><path d="M-166.9-85.3c1.4 16.8-5.6 164.3-19.5 163-6.2-0.6-4.7-10.3 1.3-9 6.1 1.2 3.6 10.7-2.3 8.8-10.3-3.3 2.5-55.1 4.1-63.9 3.8-21 7.6-42.1 8.5-63.5 0.4-9.7-3.9-28.2-0.1-36.8 1.9-4.2 7.2-2.5 8 1.4z"  fill="#fff" /><path d="M-156.9-377.3c-9.3 27.9-15.1 56.8-24.4 84.6-26.7 79.1-56.1 151.8-59.5 236.8-1.3 32.2 2.4 64 9.2 95.4 0.8 3.5 10 28.3 1.4 27.1-4.1-0.6-3.9-6.7 0.2-7 4.1-0.3 5.2 5.7 1.3 6.9-7.7 2.3-15.1-50.5-16.3-57.4-22.4-134.2 38.5-257.9 75.4-383.1 2.3-7.8 15.1-16 12.7-3.3z"  fill="#c2e1ff" /><path d="M-148.4-342.4c-7.2 52.9-21.2 105.3-26.4 158.4-7.3 76.1 8 121.2-5.6 214.2-1 6.9-1.4 48.5-9.1 47.9-7.1-0.5-3.8-11.8 2.5-8.4 6.2 3.4-1.5 12.3-5.8 6.6-6.6-8.9 10.7-101.3 11.8-119.4 2.9-46-6.3-91.7-3.5-137.6 3.2-53.9 19.2-106.7 25.9-160.2 0.9-7.1 10.2-10 10.2-1.5z"  fill="#005bbb" /><path d="M-139.8-46.7c-0.4 13.9-22.5 126.7-33.2 124.7-6.6-1.3-4-11.6 2.4-9.6 6.4 2 2.7 11.9-3.4 9.3-4.8-2.1-2.5-8.9-1.9-12.6 1.6-10.6 26.5-113.7 28.2-115.4 3.3-3.2 7.7-0.3 7.9 3.6z"  fill="#fff500" /><path d="M-130.7-372.5c-7.6 53.6-5.2 146.7 8.4 199 10.5 40.5 35 78.3 35.2 121.1 0.2 34.6-16.8 63.6-33.5 92.7-3.5 6.1-11.9 31.9-20.2 30.9-6.8-0.8-6.7-11 0.1-11.7 8-0.8 8.6 11.8 0.5 11.8-13.1-0.1 0.7-22.5 2.7-26.4 17.2-34.1 41.8-65.2 41.5-105.3-0.5-54.5-39.6-111.4-43.4-176-2.6-44.4-6.6-92.9-1-137.1 0.8-6.4 9.7-5.1 9.7 1z"  fill="#fff500" /><path d=""  fill="#005bbb" /><path d=""  fill="#005bbb" /><path d=""  fill="#fff500" /><path d="M-97.2-198.1c16.9 44.8 53 83.7 59.6 132.1 5.7 41.2-15.8 74.6-41 105-5.6 6.7-28.9 45.3-37.4 39.9-6.2-4-1.4-13.9 5.6-11.4 6.9 2.5 4.3 13.3-3 12.3-14.6-1.9 4.7-25.2 7.8-29.5 23.5-32.6 57.1-61 59.8-103.8 3.5-52.9-38.4-95.9-57-142.4-1.5-3.7 3.7-5.5 5.6-2.2z"  fill="#fff500" /><path d="M-110.6-397.9c-28.7 136.2 104.5 229 126.8 316.4 1.8 7 10.2 42.8-0.9 44.4-5.7 0.8-7.9-7.5-2.5-9.5 6.3-2.4 9.5 7.7 3 9.4-10.5 2.7-4.7-19.1-4.7-23.3-0.2-18.5-5.4-36.6-13.3-53.2-37.1-78.8-84.2-100.4-111-201.2-6.2-23.3-17.3-62.3-7.2-85.9 2.5-5.8 10-2.7 9.8 2.9z"  fill="#fff500" /><path d="M-77.1-33.9c-2.4 14.6-49.4 118.5-61.9 112.9-7.2-3.2-1.5-14.3 5.3-10.3 6.8 4-0.1 14.4-6.4 9.7-9.8-7.3 15.1-41.8 19.7-49.1 9.1-14.5 18.9-28.8 25.9-44.5 2.6-5.9 4-20.2 9.2-24 4.2-3 8.6 0.9 8.2 5.3z"  fill="#c2e1ff" /><path d="M-71.3-266.2c52 91.1 179.9 168.7 98.6 288.9-7.1 10.5-45.7 56.6-56.5 58-13.7 1.8-7.8-21.5 3.4-13.4 13.2 9.6-14 21.2-11.7 5 1.8-12.6 29.7-30.4 38.5-39.7 27.4-28.8 44.5-64.8 41.4-105.2-5.8-75.8-70-120.2-109.6-178.4-1.4-2.1-9.9-22.7-4.1-15.2z"  fill="#fff500" /><path d="M-62.1-123.2c38.8 71.9 20.2 112.5-27.5 171.9-5 6.2-18.2 32.6-26.6 30.6-9.8-2.3-2.6-17.3 5.3-11.1 9.3 7.2-8.4 17.6-10.1 5.9-2-13 58-79.5 66.1-101.8 6.7-18.5 7.2-38.2 2.4-57.2-3.2-12.7-11.6-24.2-14.5-36.5-0.7-3.1 3.3-4.1 4.9-1.8z"  fill="#005bbb" /><path d="M-53.9-227.2c55.8 78.1 146 155.3 66.8 255.9-9.7 12.4-38 50-53.9 52.3-13.6 2-8.1-21.3 3.2-13.3 13.2 9.3-13.6 21.2-11.6 5.1 1.6-12.6 29.1-30 37.9-38.7 26.2-25.9 45.4-57.5 45.4-95.4-0.2-63.8-47.6-108.4-84.3-154.8-0.8-1-9.1-17-3.5-11.1z"  fill="#fff" /><path d="M-45.3-320.2c31.2 39.2 78.1 61.2 110 99.6 47.7 57.3 44.3 141 22.4 208.2-5 15.3-32.9 81.4-47.4 85.6-14.6 4.1-7.4-22.4 3.1-11.5 8.9 9.3-11.8 17.7-11.9 4.9 0-7 31.1-49.1 36.4-60.6 21.3-46.3 31-100.6 23.9-151.3-11.4-80.8-77.2-109.1-129-161.5-1.6-1.6-13-18.4-7.5-13.4z"  fill="#fff500" /><path d="M-36.7-299.1c30.2 32.4 70.4 54.1 98 89.1 45.9 58.1 43.6 142.3 18.8 208.8-5.5 14.9-36.1 77.9-50.5 81.4-15 3.7-6.8-23 3.6-11.5 8.7 9.7-12.6 17.6-12.3 4.5 0.2-6.9 32.5-46.4 38.3-57.2 23.4-44.1 33.4-96.5 27.7-146.1-8.7-75.9-62.8-109.3-114.8-156.4-1.4-1.3-13.8-16.5-8.8-12.6z"  fill="#c2e1ff" /><path d="M-21.7-399.6c15 56.9 74.5 81.9 112.3 121.1 62.3 64.4 47.3 150.3 23.6 228.3-1.9 6.2-5.7 33.3-15.9 29.1-5.2-2.1-4.3-10.1 1.3-11 6.6-1 9.2 8.6 2.9 11-15.6 6.1 0.9-32.3 2.2-36.3 15.3-49.5 30.8-104.8 17.5-156.5-18.6-72.1-87.8-95.3-130.4-148.8-8.4-10.5-15.1-22.1-19.7-34.8-1.5-4.1 4.5-5.8 6.2-2.1z"  fill="#fff" /><path d="M-31.6-399.3c12.2 55 66.6 81.1 105.5 115 45.1 39.5 62.6 92.6 56 151.6-0.7 6.2-0.3 29.7-8.7 30.4-6 0.5-7.7-8.4-1.9-10.1 5.8-1.8 9.3 6.5 4 9.4-13.2 7.4-2.7-34.5-2.2-38.8 3.5-31.6 1-63.9-12.9-92.9-25.7-53.6-82.1-75.3-120-117.7-41.9-46.9-21.3-50.4-19.8-46.9z"  fill="#fff500" /><path d="M-5.9 66.4c-4.5 4.3-19.5 23.4-25.2 10.2-2.9-6.8 5.3-13.3 11.3-9 7 5.1 0.6 16.3-7.4 12.9-13.2-5.7 7.5-24.9 14-26.7 8-2.3 11.8 7.1 7.3 12.6z"  fill="#fff" /><path d="M-1.6-265.8c23.9 19.4 48.9 37.9 67.1 63.2 46.6 65.1 37.4 160.6 2.2 228.7-5.4 10.6-27.3 55.5-40.9 54.3-8.2-0.7-8.5-12.9-0.4-14 9.5-1.3 10.7 13.8 1.1 14-23.8 0.6 23.5-50.8 27-56.9 24.5-42.2 35.8-92.4 32.8-141-2.7-43.8-19.5-82.8-51-113.5-12.3-12-25.9-22.4-39.2-33.2-1.1-0.9 0.2-2.3 1.3-1.6z"  fill="#fff" /><path d="M8.2-399.9c15.8 43.8 57.3 69.3 88.2 101.4 46.9 48.7 59.2 110.4 44.2 175.3-1.6 7-5.1 36.9-14.3 36.7-6.5-0.2-7.3-9.8-0.9-11 6.4-1.2 9.2 8 3.2 10.6-15 6.5 1.4-38 2.5-42.6 8.7-36.2 11-73.7-1.6-109.3-20.7-58-74.7-85.2-110.4-131.6-5.6-7.3-15.1-18.5-16.6-27.8-0.6-3.6 4-4.4 5.7-1.7z"  fill="#fff" /><path d="M20.5-38.1c-4.6 38.2-30 67-56.8 92.3-6.1 5.7-26.1 32.9-34.8 24.5-6-5.8 1.7-15.6 8.8-11.2 8.3 5.1-0.5 17.7-8.2 11.7-12.1-9.5 28-39.8 34.5-46.1 40.8-39.2 35.2-59.5 47.6-75.2 3.5-4.4 9.3-0.8 8.9 4z"  fill="#005bbb" /><path d="M35.3-399.4c16.6 41.5 54.6 68.6 81.3 103 42.3 54.7 47.5 118.8 27.6 183.5-3 9.7-11.8 52.9-21.8 55.4-10.4 2.6-7.9-15.9 1.4-10.6 9.4 5.3-5.2 17-8.3 6.7-3.6-11.7 14.2-42.8 18-54.8 11.4-35.4 18.3-72.1 10.7-109.2-13.2-64.2-64-98-100-148-4.8-6.6-12.8-16.2-14.3-24.3-0.7-3.4 3.8-4.4 5.4-1.7z"  fill="#c2e1ff" /><path d="M40-399.8c38.8 97.6 150.7 114 110.7 268.4-2.4 9.3-9.4 48.9-19.4 51.5-10.4 2.6-8-15.9 1.4-10.6 9.4 5.2-5.1 17-8.3 6.7-3.4-10.9 12.5-39 15.7-50.4 9.1-32 12.3-65.1 4.5-97.7-14.8-61.7-64.5-95.3-98.2-145.2-3.3-4.9-12.3-15.5-11.9-21.7 0.2-3.2 4-3.4 5.5-1z"  fill="#c2e1ff" /><path d="M42.7-304.7c117.2 85.9 98 193.2 48.2 314.6-5.1 12.3-25.5 69.7-40.2 70.3-12.2 0.5-5.1-19.6 4.1-11.5 9.2 8.1-9.8 17.7-10.9 5.5-0.6-6.4 31-57.5 36-68.9 20.8-48.1 36.6-101.9 40.3-154.4 3.1-43.2-7.8-85-37-117.8-21.8-24.5-44.8-40.3-40.5-37.8z"  fill="#fff" /><path d="M53.3-164.2c40.7 68.2 30.3 155.7-18.6 216.6-5.4 6.7-20 29.7-29.5 28.2-13.4-2.1-1.4-22.5 7-11.7 8.3 10.8-14.5 17.3-13.1 3.8 1.1-10.8 22.8-26.7 29.7-35.4 16.4-20.5 28.7-43.8 35.2-69.3 8.2-32 7.5-66.1-1.9-97.7-2.8-9.5-13.3-23.9-13.5-33.3 0-2.8 3.3-3.2 4.7-1.2z"  fill="#fff500" /><path d="M64-83.4c8.3 56.2-15.3 106.5-53.9 146-4.9 5.1-13.2 17.2-20.4 18.3-11.7 1.6-10.1-17.9 1.2-14.5 9.7 2.9 4.2 17.9-5.1 13.9-15.6-6.7 40.7-53.7 54.5-80.4 18.7-36.2 10.2-69.8 16-84.4 1.6-4.1 6.8-2.7 7.7 1.1z"  fill="#fff" /><path d="M81.3-399.9c14.9 41.7 47.5 74.3 67.5 113.5 32.3 63.5 27.3 126.6 0.2 190.7-4.1 9.7-16.7 54-27 56-10.9 2.2-7.4-16.8 2-10.9 9.4 5.9-6.2 17.3-8.9 6.5-3.3-12.7 17.7-44.3 22.9-56.4 15.3-35.5 28.1-71.6 25.4-110.8-4.8-71-53.4-115.9-83.1-176.2-1.6-3.2-4.1-21.5 1-12.4z"  fill="#fff500" /><path d=""  fill="#fff" /><path d="M98.8-399.8c17.1 52.6 56.8 94.2 72.5 147.9 23.1 79-11.6 140.9-42.9 211.1-2.1 4.8-8.2 27.9-17.2 19-4.2-4.2-0.1-11.5 5.7-10 6.8 1.7 5.4 12-1.6 11.7-14.6-0.4 6.2-34.9 8.7-40.4 21.4-47.1 48.7-92.9 47-146.4-2.4-73.5-51-123.5-77-188.2-1.8-4.4 2-10.2 4.8-4.7z"  fill="#c2e1ff" /><path d="M101 40.2c-2.9 7.3-10.5 39.6-19.4 38.8-9.1-0.7-4.7-15.3 3.2-10.7 6.8 3.8 0.2 14.3-6.1 9.7-6.7-4.8 7.8-39.9 13-44.5 4.9-4.2 10.8 1.2 9.3 6.7z"  fill="#fff500" /><path d=""  fill="#fff500" /><path d=""  fill="#c2e1ff" /><path d="M132.3-399.4c16.5 63.1 56.2 116 64.2 182.1 6.5 53.3-11.9 95.7-38.6 140.5-4.4 7.4-21.5 48.2-31.2 42.6-6.3-3.6-1.9-13.5 5.1-11.3 6.9 2.2 4.8 12.8-2.5 12.2-14.8-1.4 6.5-31 9.3-36 23-40.9 49.7-78.6 50.5-127.3 1.2-73.3-41.1-131.3-62.5-198.3-1.5-4.8 3.1-10.5 5.7-4.5z"  fill="#005bbb" /><path d="M136.7 4.7c-8.6 16.6-22.3 71-27.6 73.4-7.4 3.3-10.1-9.9-2-9.8 8.1 0.1 5 13.2-2.3 9.7-10.8-5.2 14-74.6 22.6-81 5.5-4.1 11.2 2.1 9.3 7.7z"  fill="#c2e1ff" /><path d="M145.6-47.8c-17.4 29.7-31.2 61.4-43.5 93.4-2.4 6.1-8.4 36.7-18.2 32.9-7.2-2.8-2.1-13.8 4.7-10.3 6.8 3.6 0.6 14-5.8 9.7-12.5-8.4 41.4-121.7 52.5-133.3 5.4-5.7 13 1.2 10.3 7.6z"  fill="#fff" /><path d=""  fill="#fff500" /><path d="M160.3-338.2c25.8 56.9 51.8 121.4 37 184.9-10.6 45.3-42.5 82.3-63.4 123.1-15.9 31-29.1 63.4-41.1 96.1-1.2 3.4-7.3 21-13.7 10.3-3.4-5.7 4.6-11.7 9.1-6.8 3.8 4.1-0.3 10.9-5.8 9.4-20.9-6 99.3-215.4 105.4-238.6 15.3-58.8-7.5-120.5-31.5-173.6-1.7-3.7 0.9-9.9 4-4.8z"  fill="#005bbb" /><path d="M172.3 4.8c-10.7 14.1-18.6 30.4-22.6 47.7-1 4.6 0.2 28.6-8.6 25.1-5.6-2.2-1.6-10.8 3.6-8 4.5 2.4 1.7 9.5-3.2 8.1-17.1-4.7 11.9-74 20.6-81.8 6.2-5.5 13.5 2.4 10.2 8.9z"  fill="#fff" /><path d=""  fill="#fff500" /><path d="M189.9-4.1c-14.1 14.4-25.3 31.9-30.8 51.4-1.7 6.1-0.7 26.1-5.5 29.5-5.6 4-10-6.4-3.3-7.7 7.9-1.5 5.2 12.2-1.5 7.8-13.8-8.9 17.5-82.3 31.5-91.9 7.4-5 14.1 4.4 9.6 10.9z"  fill="#fff500" /><path d="M198.7-73.1c-29.8 32.9-57.1 64-73.1 106.1-2.5 6.6-10.5 49.8-19.4 44.5-5.9-3.6 0.3-12.5 5.7-8.3 5.5 4.2-1.6 12.4-6.5 7.7-15.5-14.8 53.8-141 83.9-161 7.4-4.9 14 4.6 9.4 11z"  fill="#fff" /><path d=""  fill="#fff500" /><path d="M214.7-232.7c6.7 30.4 10.3 62.9 1.8 93.3-15 53.1-63.4 91.9-87.4 141.3-4.7 9.7-27.2 78.6-34 76.4-8.1-2.5-1.1-14.8 5.2-9.1 6.3 5.7-5.2 13.9-8.5 6.1-2.7-6.2 3.8-19 5.6-25 26.2-85 59.4-104.2 98.5-172 9.8-17 15.3-35.7 16.4-55.3 1-18.6-5.6-37.1-4.8-55.2 0.2-4.5 6-4.3 7.2-0.5z"  fill="#fff500" /><path d="M223.2-394c15.7 58.2 49.7 114.8 95.7 154.1 52.9 45.1 116.2 76.2 149.8 140.4 3.5 6.7 28.9 64.6 17.3 65.7-4.5 0.5-5.9-6.1-1.6-7.5 4.3-1.4 7.1 4.7 3.2 7-8 4.7-10.1-25.2-11.2-29.2-7.4-27.1-20.5-52.3-38.1-74.2-51.5-64-132-94-178.1-163.7-18.3-27.7-34.2-58.7-43.4-90.6-1.2-4.3 4.8-5.8 6.4-2z"  fill="#fff" /><path d="M231.9-249c14 41.1 32.4 89.5 20.5 133.1-15.1 55-76 80.7-102.6 129.6-7.7 14.1-16.3 60.7-21.1 63.5-6.4 3.7-10.2-8-2.8-8.7 7.4-0.7 5.9 11.6-1.1 9-8.1-2.9-0.8-25.8 0.4-31.5 19.5-86.9 86.1-97.9 114-159.4 25.7-56.8-17.5-110.1-13.5-135.1 0.6-3.5 4.9-3.3 6.2-0.5z"  fill="#c2e1ff" /><path d="M240.8-232c16.9 49.3 36.6 106.8 2.8 153.5-31 42.8-79.7 64.2-98.3 116.9-2.6 7.3-3.9 35.6-9.4 39-6.1 3.8-10.1-7.4-3-8.3 7.1-0.9 6.1 11-0.8 8.8-7.8-2.4-2-22.6-1-28 15.6-86.6 86.7-95.9 114.9-158.1 24.2-53.5-15.1-99.8-11.4-123.3 0.6-3.5 4.9-3.3 6.2-0.5z"  fill="#c2e1ff" /><path d="M248.9-302.2c73.7 141.3 240.9 170.1 221 321.8-1.6 11.9-6.3 47.6-18.1 53.8-10.2 5.3-12.1-14.5-1.1-11.4 11 3.2-1.2 18.9-7 9.1-4.8-8.2 15.2-45.6 16.9-56.9 5.1-32.6-1.6-66.7-16.4-96-34.2-67.7-109.1-99.2-157.2-155-16.5-19.2-30.9-40.6-42.6-63-1.6-3 2.7-5.1 4.5-2.4z"  fill="#fff500" /><path d="M257.7-347.2c44.6 82.4 135.5 114.6 191.3 187 30.1 39.1 49.9 85.9 53.5 135.4 0.5 7.3 4.4 43.9-6.3 44.9-6 0.5-7.7-8.3-2-10.1 5.7-1.8 9.3 6.5 4.1 9.4-11.4 6.5-4.2-41.7-4.5-47.7-2.2-41.2-16.4-81.7-38.8-116.2-47.2-72.7-124.3-100.5-176.8-164.3-8.1-9.9-21.5-24-25-36.5-0.8-2.9 2.9-4.1 4.5-1.9z"  fill="#fff" /><path d=""  fill="#c2e1ff" /><path d="M276.8-153.8c25.7 99.8-54.2 107.6-97.4 173.1-7 10.7-12.2 22.5-14.8 35.1-1 5.1 0.7 19.4-3.5 22.5-5.4 4-10-6.1-3.4-7.5 7.7-1.6 5.4 11.8-1.3 7.8-16.1-9.8 9.8-62.2 16.8-72.6 22.1-32.9 60.1-49.3 83.3-80.8 8.3-11.3 13.7-24.3 15.5-38.2 1.7-13.4-2.6-25.7-2.2-38.7 0.1-4.4 5.8-4.3 7-0.7z"  fill="#005bbb" /><path d=""  fill="#c2e1ff" /><path d="M296.6-47.7c-17.7 34.3-54.8 51.4-74.9 83.5-4 6.5-12.3 45.2-17.9 40.9-3.9-3 0-9.2 4.4-7.2 5.2 2.5 0.9 10.4-4 7.4-3.8-2.3-2.5-9.7-2.4-13.2 0.8-33.6 23.9-58 47.5-79.1 7-6.2 35.5-40.4 39.9-41.7 6-1.9 9.7 4.4 7.4 9.4z"  fill="#005bbb" /><path d="M317.4-399.9c24.7 47.2 75.6 71.3 109.2 110.9 42 49.5 65.7 123.3 81 185.5 1.5 6 12 36.9 5.1 39.9-4.8 2.2-7.8-5.6-2.8-7.2 4.3-1.4 7 4.8 3.1 7-7.8 4.5-12-36.6-13.2-42-11.3-47.6-29.2-96.1-50.8-140-27.9-56.8-79.4-83.6-119.5-129.5-5.3-6.1-14.2-14.8-16.6-22.6-0.9-2.9 2.9-4.1 4.5-2z"  fill="#fff500" /><path d="M314.3-45.7c-13.4 38.2-51 58.7-67.7 94.4-2.6 5.5-4.1 27.3-9.7 28.8-6.8 1.8-7.3-9.8-0.3-8.6 6.9 1.2 2.5 12-3.3 8-10.1-7 4.5-38.9 8.7-46.5 5.7-10.2 63.8-83.5 64.4-83.7 5.2-2.5 9.4 2.8 7.9 7.6z"  fill="#fff500" /><path d="M318.6-327.9c26.4 24.7 58.4 42.4 84.9 67 63.3 58.9 109 157.6 109.4 244.2 0.1 16.8-2.3 70.2-20.8 78.7-10.8 4.9-11.7-15.7-0.6-11.8 11.2 3.9-2.3 19.4-7.7 8.9-3.4-6.6 18.1-49.7 19.6-68 3.6-43.4-7.6-88.7-24.4-128.4-40.5-96.3-76.8-119.2-153.6-181.7-0.7-0.6-11.2-12-6.8-8.9z"  fill="#fff500" /><path d="M327.3-223.8c80.3 65.5 179.5 121.7 158.3 244.8-2.2 13-10.1 52.7-23.7 58.5-11 4.7-11.5-16.1-0.3-11.9 11.2 4.1-2.7 19.6-8 8.8-4.3-8.6 19.2-46 21.8-57.4 7.6-33.5 2.3-69.2-10.6-100.8-24.4-59.8-76.9-94.4-126.8-131.3-1.3-0.9-14.5-13-10.7-10.7z"  fill="#fff500" /><path d="M336.3-181.9c66.8 58.8 142.7 117.8 119.9 218.8-1.9 8.4-7.8 40.8-18 42.5-8.2 1.4-9.6-11.6-1.4-12.1 7.1-0.4 8.8 10 2 12-16.2 4.6 5.4-39.8 6.9-45 8.8-32 6.5-65.9-5.6-96.8-18.7-47.9-58.8-78.6-96.9-110.5-0.6-0.5-11.2-11.8-6.9-8.9z"  fill="#c2e1ff" /><path d="M349.9 24.1c-3.3 8.9-12.1 50.6-19.2 53.9-7.2 3.4-10.1-9.4-2.2-9.5 7.9-0.1 5.2 12.8-2 9.5-10.1-4.6 8.2-52.2 13.2-59.3 4-5.9 11.7-0.8 10.2 5.4z"  fill="#fff500" /><path d="M358.5 64.2c-0.8 3.1-4.1 21.7-11.4 12.6-3.2-4 1-9.8 5.7-8.1 5.6 2.1 3.5 10.7-2.4 9.9-7.5-1-3.8-14.2-1.8-18 3-5.8 10.6-2.1 9.9 3.6z"  fill="#c2e1ff" /><path d="M366.9-30.7c-0.2 12.7-20.8 111.5-32.6 108.9-6.7-1.5-3.8-11.9 2.8-9.7 6.5 2.2 2.5 12.2-3.8 9.3-10-4.7 6.3-41.7 8.9-49 3-8.5 14.8-61.2 16.8-63.1 3.2-3.2 7.7-0.3 7.9 3.6z"  fill="#c2e1ff" /><path d="M372.9-106.2c33.9 46.6 42.7 99.9 28.8 155.5-1.9 7.8-3.2 20.3-7.7 26.9-4.9 7.2-14.8-3.3-7.3-7.7 7.5-4.5 12.1 9.2 3.4 10.1-11.9 1.3-2.2-20.1-1-24.3 6.8-24.2 12-48.8 10.5-74.1-2-33.7-19.2-54.7-30.5-84.5-0.9-2.4 2.2-3.7 3.8-1.9z"  fill="#fff" /><path d="M383.4-55.8c6.4 23 3.6 118.9-13.4 133.4-6.4 5.4-12.9-6.9-4.9-9.1 8-2.2 8.8 11.6 0.6 10.3-10.6-1.7 9.9-62 11.6-71.4 0.7-3.8-1.4-84.1 6.1-63.2z"  fill="#fff" /><path d="M391.6-72.1c17.2 36.9 18.2 77.1 9 116.2-1.5 6.5-4.6 34.6-13.4 34.7-8.7 0.1-5.6-14 2.3-10.4 7.9 3.6-0.8 15.1-6.4 8.5-6.9-8 11.8-54.7 13.2-66.4 2.1-17 1.9-34.2-1.3-51.1-2-10.1-7.4-20-9-30-0.5-3.5 4-4.3 5.6-1.5z"  fill="#fff" /><path d=""  fill="#c2e1ff" /><path d="M407.8-122.1c45.2 45.8 66.3 110.9 46.1 173.4-2.1 6.6-6.4 27.1-14.4 28.4-11.2 1.8-7-17.5 2.5-11.1 8 5.5-3.7 16.5-8.7 8.2-4.2-7 8.6-25.7 11.1-32.9 7.3-21.2 10.1-43.5 7.7-65.7-3.8-34.6-19.2-67-42-93-1.7-1.9-4.2-8.8-2.3-7.3z"  fill="#fff500" /><path d="M416.7-355.1c19.3 20.8 37.3 42.4 49.6 68.1 30.9 64.8 71.3 246.9 51.3 315.1-3.4 11.8-13.8 46.4-27 50.6-8.8 2.8-12.5-11.3-3.4-13.1 9.1-1.8 11.2 12.6 2 13.4-19.6 1.8 17-51 20-61.7 13.2-45.6 3.9-96.8-5.7-142.3-12.3-57.9-22.1-125.4-51.2-177.6-7.2-13-35.6-40.9-38.3-51-0.5-1.7 1.6-2.5 2.7-1.5z"  fill="#c2e1ff" /><path d="M425.9-271.2c56.8 68.3 112.3 218.9 83.2 306.2-3.5 10.5-13.2 40.9-24.7 44.7-8.7 2.9-12.5-11.1-3.5-13 9-1.9 11.2 12.4 2.1 13.3-17.2 1.8 14.1-45.5 16.6-52.6 12.7-35.1 9.6-73.6 2.6-109.6-11.6-59.8-36.8-123.8-70.6-174.5-0.4-0.6-11.5-20.3-5.7-14.5z"  fill="#fff" /><path d="M445.7-399.4c15.7 34.3 38.2 64.6 49.3 101.1 17.8 58.7 19.3 131.3 27.7 192.8 1.1 8.2 11.5 57.9 3 60.8-7.5 2.5-6.7-11.2 0.4-7.9 7.2 3.3-2.8 12.8-5.7 5.4-5.5-13.7-21-180.9-24.6-210-6.2-50.7-28.7-89.4-51.8-133.7-1.4-2.6-3-15.8 1.7-8.5z"  fill="#005bbb" /><path d="M444.3-239.2c46.8 75.2 95.4 190.6 62.5 279.1-3.5 9.5-12.6 36.6-23.1 40.1-8.7 2.9-12.5-11.1-3.6-13 9-1.9 11.2 12.4 2.1 13.3-18.1 1.9 11.1-39.3 13.6-44.8 13.2-30.7 13.6-64.3 9.1-96.9-8.1-58.2-31.3-114.5-59.4-165.9-0.3-0.6-7.1-19.5-1.2-11.9z"  fill="#fff500" /><path d="M456.7 72.8c-10.1 20.4-18.9-9.5-5.5-5.2 15.6 5-10.5 21.2-8.1 5.1 1.7-11.5 17.5-10.5 13.6 0.1z"  fill="#fff" /><path d="M462.4-385.2c14.7 30.4 31.3 59.4 39.4 92.5 10.2 41.9 22 176.1 26.4 225.7 1.9 21.2-0.6 130.1-24.9 131.4-12.1 0.7-5.4-19.4 3.8-11.5 9.3 7.9-9.4 17.8-10.7 5.7-0.7-6.8 18.7-41.3 21.2-53.5 7.5-36.5 2.7-75-1.8-111.5-7.6-61.9-9.5-155.6-28.4-211.6-7.4-21.8-25.1-43.5-30-65.4-0.7-3.2 3.4-4.2 5-1.8z"  fill="#fff500" /><path d=""  fill="#005bbb" /><path d="M480.3-141.2c28.9 59.7 45.4 136.2 14.5 198.2-3.1 6.2-9 23.2-17.2 23.3-10.6 0.1-7-17.2 2.7-12.8 11.4 5.1-4.2 20.2-9 8.6-2.7-6.6 28.2-44.5 30.8-88.2 2.6-44.1-10.2-86.6-26.8-126.7-1.4-3.4 3.2-5.3 5-2.4z"  fill="#fff500" /><path d="M492.1 42.2c-2.5 7.1-14.9 44.9-26.4 36.8-7.3-5.1 1.4-16.2 8.1-10.3 6.7 5.9-3.1 16-9.1 9.4-9.6-10.5 35-64.3 27.4-35.9z"  fill="#fff500" /><path d="M501.1 71.9c-3.1 4.6-10 13.6-15.3 5.3-5.8-9.2 11.2-15.4 12.6-4.6 1.4 10.8-16.7 9.2-13.3-1.2 4-12.7 22.4-11.3 16 0.5z"  fill="#c2e1ff" /><path d="M508.5-207.4c6.1 61.4 21.5 122.4 20.7 184.4-0.2 17.7-16.8 104-37.8 103.2-10.9-0.4-6.4-17.9 3.4-13 11.4 5.8-5.3 20.5-9.6 8.4-2.9-8.1 13.4-24.1 17.3-31.2 10-18.5 15.4-38.8 17.1-59.8 4.6-56.8-23.8-158-19.2-192.2 0.7-4.9 7.1-4.2 8.1 0.2z"  fill="#fff" /><path d="M518.7 26.7c-2.7 9.6-18.7 58.1-32.7 53.1-8.7-3.2-3-16.7 5.4-12.6 8.3 4.1 1.1 16.9-6.7 11.9-5.9-3.8 21-54.4 24.7-58.1 4.4-4.3 10.3 0.5 9.3 5.7z"  fill="#005bbb" /><path d="M526.3-81.4c4.5 41.2 9 133-30.3 160.5-8.9 6.3-15.9-10.5-5.2-12.4 10.8-1.9 10.1 16.2-0.5 13.5-12.1-3.2 21.4-51.2 26-70.7 7.3-30.9-2.3-61 1.9-91.1 0.7-4.9 7.1-4.1 8.1 0.2z"  fill="#005bbb" /><path d=""  fill="#005bbb" /><path d="M541.1-398c-1.7 37.4 4.8 74.7 3.6 112.1-2.1 68.6-11.6 132.1-8.4 201.6 0.6 13.6 8 113.3-10.9 112.9-8.9-0.2-5.4-14.6 2.6-10.6 9.4 4.6-4.1 16.8-7.8 6.9-0.6-1.5 9.2-69.1 8.1-96.6-1.6-40.6-4.5-81.3-1.8-122 2.2-33.6 8.3-66.8 9.3-100.5 0.9-32.5-3.7-64.7-3.8-97.1 0-6.4 8-18.1 9.1-6.7z"  fill="#c2e1ff" /><path d="M553.3-349c0.6 65.2-13.4 127.7-15.8 192.4-1.9 51.2 6.3 103.3 0 154.3-1.8 15.1-16.5 83.9-38.2 82.7-12.9-0.8-3.4-21.2 5.4-11.7 7.6 8.1-8.2 17.5-11.6 6.9-2.8-8.3 14.3-24.5 18.1-31.5 11.6-20.8 17-43.8 18.6-67.4 3.3-49.9-3.5-99.9-0.8-149.9 3.1-56.8 16-111.7 15.5-168.9 0-5.8 7.3-18.3 8.8-6.9z"  fill="#005bbb" /><path d=""  fill="#fff500" /><path d="M571.4-327.5c-4.8 55-21.2 107.8-27 162.5-7.2 67.1 11.2 143-15.7 206.5-3.6 8.5-15.8 39.4-27.1 38.7-13-0.8-3.3-21.2 5.6-11.7 7.5 8.1-8.3 17.5-11.8 6.9-2.6-8 12.9-22.1 16.7-28.6 10.7-18.1 16.8-38.2 19.3-59 6-49.5-0.9-99.9 3.1-149.7 4.1-51.3 19.9-100.6 25.8-151.7 0.5-4.6-0.6-14.5 3.1-17.9 3.4-3.2 7.9-0.1 8 4z"  fill="#fff500" /><path d=""  fill="#005bbb" /><path d="M589.5-31.1c-2.5 14.6-21.8 122.4-47.5 110.9-8.8-3.9-1.9-17.5 6.5-12.7 8.3 4.9-0.1 17.6-7.8 11.9-9.3-6.9 17.1-35.8 20.9-44 7.8-16.9 10.7-59.4 18.8-70.1 3.4-4.5 9.3-0.9 9.1 4z"  fill="#005bbb" /><path d="M598.4-386.1c-6.6 34.2-10.1 68.9-17.9 102.9-10.6 45.9-26.9 90.1-32.1 137.2-5.2 47 8.7 179.1-29.2 209.6-8.2 6.6-16-9.1-5.8-11.6 10.2-2.6 10.7 14.9 0.4 12.9-13.9-2.7 6.1-27.7 8.5-33 9.7-21.8 12.8-45.6 13.7-69.3 1.6-43.4-0.9-86.8 5.2-130 5.9-41.7 20.2-81.4 29.8-122.2 7.2-30.2 10.8-60.9 16.1-91.5 1.2-7.1 12-17.3 11.3-5z"  fill="#fff" /><path d=""  fill="#fff" /><path d="M604.3-162.3c-39.4 62.3-32.8 215.3-75.9 241.8-9.6 5.9-15.8-11.8-4.6-13.2 11.2-1.3 9.4 17.4-1.4 13.9-11.9-3.9 22.7-50.1 27.2-64.8 18.4-59.2 9.4-121.7 40-178.1 4.6-8.6 20.2-12.3 14.7 0.4z"  fill="#c2e1ff" /><path d="M604-286.5c-16.1 49.6-40 95.8-48.1 147.9-8 50.8-0.6 103.6-12.2 153.7-2 8.8-12.7 52.7-26.1 48.6-10.1-3.1-1.5-18.3 6.3-11.3 7.9 7-6.3 17.2-10.5 7.6-2.8-6.5 7.2-16.9 9.9-22.2 7.7-15.2 12.2-31.7 14.6-48.5 8.4-59.6 1.4-118.9 18.2-177.7 8.2-28.8 22-78.3 37.8-103 3.7-5.9 11.4-1.1 10.1 4.9z"  fill="#fff" /><path d="M604.1-259.3c-19.2 44.2-39.6 86.4-46.6 134.7-7 47.9 3.1 170.7-41.2 200.3-9.2 6.2-15.9-10.9-5-12.6 10.9-1.7 9.8 16.6-0.8 13.5-12.1-3.4 21.4-48.5 27-73.8 15.2-70 3.8-139.7 30.1-208.4 7-18.3 14.2-44.3 26.3-59.8 4.5-5.8 12.2-0.1 10.2 6.1z"  fill="#fff500" /><path d="M604.2 68.9c-2.6 4.7-7.3 15.4-14.5 10.1-10-7.4 8.4-18.8 10.6-6.6 1.9 10.5-15.8 9.8-13.1-0.5 3.5-13.3 22.8-15.7 17-2.9z"  fill="#c2e1ff" /><path d="M604-210.7c-22.2 36.5-36.3 75.5-41.6 117.9-5.4 43.3-1.7 146.1-43.7 172.4-9.5 6-15.8-11.6-4.7-13 11.2-1.4 9.5 17.2-1.2 13.8-12-3.8 22.4-48.9 27.6-66.7 18.2-61.6 7-126.7 31.1-187.7 4.6-11.6 12.5-38.7 23.5-45.5 6.1-3.8 11.5 3.1 9 8.8z"  fill="#fff" /><path d="M604 29.1c-3.1 9.3-18.3 56.3-32 51.1-8.8-3.4-2.7-16.9 5.7-12.6 8.3 4.3 0.9 17.1-7 11.9-6.1-4 18.9-53.9 25.2-57.4 4.9-2.7 9.2 2.2 8.1 7z"  fill="#c2e1ff" /><path d="M603.8-32.7c-3.4 14.6-24.1 123.2-48.5 112.8-8.8-3.8-2.1-17.3 6.3-12.7 8.4 4.7 0.2 17.5-7.6 11.9-9.5-6.8 15.8-34.8 19.3-42.5 7.8-16.8 12.7-63.9 21.3-74.1 3.8-4.5 9.7-0.5 9.2 4.6z"  fill="#fff" /><path d=""  fill="#005bbb" /><path d=""  fill="#c2e1ff" /><path d="M604.3-168.1c-42.2 65.9-33.2 220.3-77.2 247.5-9.6 5.9-15.8-11.8-4.6-13.2 11.2-1.3 9.4 17.3-1.3 13.9-11.9-3.9 22.4-48.9 27.7-66.7 18.1-60.9 8.9-124.4 40.8-182.1 4.7-8.6 20.4-12.2 14.6 0.6z"  fill="#fff500" /></svg>