<svg width="1200" height="675" viewBox="-500 -500 1200 675" xmlns="http://www.w3.org/2000/svg"><path d="M-500-500h1200v675h-1200z" fill="#000"/><path d=""  fill="#fff" /><path d=""  fill="#005bbb" /><path d=""  fill="#fff500" /><path d=""  fill="#c2e1ff" /><path d=""  fill="#fff500" /><path d=""  fill="#fff500" /><path d=""  fill="#fff" /><path d=""  fill="#005bbb" /><path d="M-395.4-399.5c12.2 31 12.5 64.6 7.3 97.1-1 6-2.5 33.2-10.4 33.4-7.4 0.2-5.1-11.8 1.6-8.9 6.8 2.9-0.3 12.9-5.2 7.4-5.6-6.2 7.2-43.9 8.3-53.1 3-27-4.2-48.7-6.8-74.7-0.3-3.3 3.9-3.8 5.2-1.2z"  fill="#c2e1ff" /><path d=""  fill="#005bbb" /><path d=""  fill="#fff500" /><path d=""  fill="#c2e1ff" /><path d=""  fill="#fff" /><path d=""  fill="#c2e1ff" /><path d="M-387.8-3.4c-3.7 3.9-13.2 13.8-17 3.8-3.7-9.8 13.5-12.4 12.7-1.9-0.7 10.5-17.4 5.6-12.3-3.6 6.5-11.9 25.1-8.9 16.6 1.7z"  fill="#fff500" /><path d="M-379.8-72.5c-2.7 5.8-13.2 32.6-22.4 25.2-6.3-5 2.1-14.5 7.8-8.8 5.7 5.7-3.7 14.2-8.7 7.9-8.7-10.7 31.9-47.7 23.3-24.3z"  fill="#fff500" /><path d=""  fill="#005bbb" /><path d="M-365-334.4c-2 14.7-27 141.7-34.8 139.7-6-1.6-2.9-10.8 2.8-8.7 6.7 2.6 0.1 12.6-4.9 7.4-0.1-0.1 13.6-65.7 28.4-139.6 1.1-5.6 8.7-4.2 8.5 1.2z"  fill="#005bbb" /><path d="M-356.7-398.8c5.5 56.4-13.5 111.6-25.2 166-2.9 13.5-3.7 56.4-13.9 65.2-5.4 4.7-11.1-5.8-4.2-7.8 6.9-2 7.7 9.9 0.6 8.9-9.4-1.4 18.3-111.2 21.4-124.2 19.5-82.5 15.2-110.4 15.4-110.7 2.4-1.9 5.3-0.1 5.9 2.6z"  fill="#005bbb" /><path d="M-349.6-126.3c-4.3 31.7-13.9 62.8-32.4 89.1-3.6 5.1-11.6 20.6-19.5 16.6-7.7-3.9-0.9-15.6 6.3-10.9 7.2 4.7-0.8 15.6-7.5 10.1-8.3-6.8 11.1-22.6 14.9-28 16.2-23.2 25.2-73 30.5-80.2 2.9-3.9 7.9-0.9 7.7 3.3z"  fill="#c2e1ff" /><path d="M-342-213.6c-6.1 60.9-2.6 124.3-39.4 176.9-3.5 5-9.7 16.5-16.1 17.6-9.9 1.8-9.2-14.9 0.5-12.3 8.3 2.2 4.2 15.1-3.8 12-12.5-4.7 8.3-22.3 11.7-26.9 11.6-15.9 19.9-34 25.3-52.9 10.3-35.8 3.9-87.8 13.7-116.2 1.7-4.8 7.9-2.8 8.1 1.8z"  fill="#005bbb" /><path d="M-334-258.1c-16.1 74.3-0.3 157.5-46.6 223-3.6 5.1-10.4 17.5-17 18.7-10 1.7-9.1-15.1 0.6-12.4 8.3 2.3 4 15.2-4 12-12.5-4.9 9.4-23.4 12.8-27.9 13-17.7 21.8-38 27.2-59.2 13.1-51.1 6.3-104.8 18.1-156 1.3-5.8 9.3-3.9 8.9 1.8z"  fill="#fff500" /><path d="M-325.3-397.9c-3 63.6-30.5 124.1-38.9 187.1-2.1 15.9-12.8 143-35.6 138-8.5-1.9-2.4-15 4.5-9.7 6.9 5.3-4.1 14.6-8.1 6.9-3.3-6.2 8.4-21.9 10.7-28.1 6.8-17.6 10.7-36.1 13.5-54.7 5.3-35.8 7.8-71.8 15.6-107.1 8.8-40.4 23.5-79.8 28.9-121 0.5-3.8-0.5-11.8 2.5-14.6 2.9-2.8 6.7-0.3 6.9 3.2z"  fill="#005bbb" /><path d="M-318.4-313.5c-8.4 26.2-15.9 52.6-19.9 79.9-10 68.4-0.5 141.7-43.7 200.8-3.4 4.7-9.3 15.3-15.4 16.4-8.5 1.4-10.1-12.1-1.4-12.6 10.1-0.6 7.5 16-2 12.2-12.5-4.9 9.7-23.8 13.2-28.4 13.6-18.6 22.5-40.1 27.7-62.5 12.4-52.7 7.2-107.8 18.9-160.8 14.6-66.3 23.8-51.9 22.6-45z"  fill="#c2e1ff" /><path d="M-311-53.2c-6.6 39.3-19.5 77.2-41.2 110.8-3.4 5.3-12.4 24.8-20.6 21.4-8.9-3.5 0-16.6 6.5-9.7 6.6 6.9-7 15.1-10 6.1-2.8-8.3 18.9-30.6 23.3-38.1 11.1-18.9 32.7-92.1 34.1-94 3-3.9 8.1-0.7 7.9 3.5z"  fill="#fff500" /><path d="M-303.3 51.8c-1 5.3-1.5 25.7-8.6 26.2-6.1 0.4-6.2-9.3-0.1-9 7.2 0.3 4.1 11.9-2.3 8.5-11.7-6.1 12.4-47.1 11-25.7z"  fill="#fff500" /><path d="M-295.9-80.7c-1.5 23.9-16.7 148.1-33.4 158.7-6.7 4.3-11.3-8.2-3.4-9.2 7.9-1 6.8 12.2-0.8 9.7-8.9-2.8 8.9-41.7 10.8-48.8 9.7-34.2 10.6-86.6 18.8-111.9 1.5-4.7 7.7-2.9 8 1.5z"  fill="#c2e1ff" /><path d="M-287.8-278.8c-31.6 117.5 8.5 247.7-64.3 355.3-6 8.9-16.2-5.8-6.3-8.5 8.7-2.3 9.4 12.6 0.5 11.1-12.4-2.1 5.7-24.6 8.1-29.1 15.3-28.4 25.7-59 31.9-90.5 13.8-70.1 3.1-141.7 14.9-211.8 5.4-31.7 17.1-41.1 15.2-26.5z"  fill="#fff" /><path d="M-280.6 60.2c-0.2 4 2.2 18-4.9 17.3-5.4-0.5-4.1-9 1.1-7.9 5.3 1.1 3.1 9.4-2 7.7-13.3-4.3 4.7-30.5 5.8-17.1z"  fill="#fff500" /><path d="M-248.4-398.5c3.2 53.7-37.2 140.4-37 237.8 0 13.2 2 129.1-7 128-6.4-0.8-2.9-10.9 2.6-7.5 5.5 3.4-2 11.1-5.5 5.7-3.1-4.6 2.4-77.1 2.4-89 0.2-54.8-1.2-108.5 12.4-162.1 7.9-31.2 20.1-61.9 23.7-94.1 0.5-4.5-1.9-20.1 3.3-22.1 2.6-1 4.8 0.9 5.1 3.3z"  fill="#fff500" /><path d="M-264.1-398.3c-0.1 52.8-27.3 101.8-36.1 153.3-13 76 0.7 153.4-22.2 228.4-2.4 7.8-12.7 47.7-23.1 45.4-8.5-1.8-2.5-14.9 4.5-9.7 6.9 5.2-4 14.6-8.2 6.9-3.6-6.8 11.5-29 14.2-36.2 9.7-26 15.2-53.5 18.2-81 5.7-52.7 0-106.1 8.5-158.6 7.2-44.6 27.1-85.9 34.4-130.2 0.8-4.7-0.6-18.9 3.8-21.8 2.9-1.8 5.8 0.5 6 3.5z"  fill="#c2e1ff" /><path d="M-257.1-263.1c-18.1 85.4-8 177.2-4.9 263.8 0.3 8.8 5.8 76.6-0.9 76.5-5.9-0.1-3.7-9.6 1.7-7 5.3 2.5-0.7 10.3-4.5 5.7-3.9-4.7-3.6-70.5-4-81.7-2.9-82.2-12-168.8 2.1-250.2 1-5.8 11.4-19.8 10.5-7.1z"  fill="#fff" /><path d="M-249.5-253.3c-15.3 82.9-5.5 170.3-0.2 253.8 0.5 8.7 7.7 76.4 1 76.5-5.8 0-3.8-9.4 1.5-7 5.3 2.4-0.5 10.1-4.3 5.7-3.9-4.5-5.2-70.4-5.9-81.5-4.9-79.1-13.8-161.3-2.2-240 0.8-5.6 10.7-20 10.1-7.5z"  fill="#fff500" /><path d="M-242-228.5c-9.7 77.5 0.3 156.5 5.9 233.9 0.6 8.3 7.8 71.8 0.6 71.8-5.9 0-3.7-9.5 1.6-7 5.3 2.5-0.6 10.2-4.4 5.7-3.6-4.3-4.6-63.2-5.3-73.4-5.2-74-14.4-148.9-7.6-223 0.5-5.3 9.2-20.3 9.2-8z"  fill="#fff500" /><path d=""  fill="#fff500" /><path d="M-227.1-141.2c1 29.8 21 203.8 11.3 216.8-3.7 4.9-10.3-2.8-4.8-5.7 5.4-2.9 8.1 6.9 2 7.2-7.2 0.4-5-56.4-5.3-64.3-1.3-37.3-16.7-124.2-10.5-154.5 0.9-4.5 6.7-3.4 7.3 0.5z"  fill="#005bbb" /><path d="M-219.4 31.9c0.2 6.2 4.9 45.4-2.7 45.1-5.2-0.2-4.4-8.3 0.8-7.6 5.1 0.8 3.5 8.8-1.6 7.4-10.5-2.8 0-67 3.5-44.9z"  fill="#005bbb" /><path d="M-211-253.3c-19.1 108.8 8.8 217.3 2.8 326.7-0.4 7.4-11.8 2.2-6.7-2.9 5.2-5.2 10.2 6.5 2.9 6.7-6.4 0.2-3.7-79.9-4.1-90-2.6-78.2-16.6-154.8-5-233 0.8-5.5 10.6-20 10.1-7.5z"  fill="#c2e1ff" /><path d="M-204.1-46.2c1.2 15.9 5.6 114.7-0.7 122.2-4.1 4.9-10.5-3.5-4.7-6.2 5.8-2.7 8.1 7.6 1.7 7.6-4.4 0-3.1-110.2-3.5-123.2-0.1-4.8 6.4-5 7.2-0.4z"  fill="#c2e1ff" /><path d="M-195.6-270.1c-23.3 114.4 7.5 228.5-3.8 343.8-0.7 7.6-12.3 1.7-6.8-3.3 5.6-5.1 10.3 7.2 2.7 7.1-6.4-0.1 0-86.7-0.1-97.6-0.4-65.5-14.2-130-8.8-195.7 1.4-16.9 1.1-41.5 8.3-57.1 2.3-5 8.8-2.1 8.5 2.8z"  fill="#fff500" /><path d="M-188.2-211.7c-6.6 78.8 15.8 155.4 6.4 234.5-1.3 11.2 0 46.1-7.8 53.9-4.9 4.8-10.9-4.8-4.5-7.1 6.4-2.3 7.9 8.9 1.1 8.3-6.3-0.5 7-97.3 7.3-109.5 1.5-58.7-14.2-116.3-11-175.2 0.3-5.8 8-14.7 8.5-4.9z"  fill="#c2e1ff" /><path d=""  fill="#fff500" /><path d="M-172.4-283.9c-33.6 131.5 14.6 210.9-13.7 358.1-1.6 8.1-13.2 0.7-7-4.1 6.4-5 10.3 8.6 2.2 7.8-6.1-0.6 8.9-100.2 9.2-112.7 1.7-63.4-16.4-124.9-10.4-188.7 1.7-18.8 2.3-46.7 11.1-63.7 2.6-5 9.2-1.8 8.6 3.3z"  fill="#005bbb" /><path d="M-127.2-397.7c-7.4 79.6-53.6 122.9-48 227.6 0.7 12.7 17.4 122 10 121.7-4.4-0.1-4.9-6.7-0.5-7.5 5.1-1 6.1 7.1 0.9 7.5-7 0.5-6.1-34.4-6.8-40.1-9.9-76.1-17.1-143.8 6.9-218.5 8.2-25.5 19.3-50.2 25.9-76.2 1.1-4.5 0.8-16.5 5.5-18.9 3.3-1.7 6.2 1.1 6.1 4.4z"  fill="#fff" /><path d="M-157.8-390c4 71-44.6 140.4-30.8 268.1 4.2 38.8 15.5 151.9-0.2 184.9-2.9 6.1-11.7-0.8-6.6-5.1 6.1-5 10.3 8 2.5 7.5-4.5-0.3 4.8-105.8 4.2-118.9-2.5-55.5-14.3-109.5-9.5-165.4 4.4-52.2 24.1-100.5 31.4-151.9 0.7-4.6-1.3-20.7 3.9-22.7 2.6-1 4.8 1 5.1 3.5z"  fill="#fff" /><path d="M-149.5-11.1c-1.9 10.6-19.4 91.9-28 89.1-6.1-2-2.5-11.4 3.4-8.7 5.8 2.6 1.2 11.6-4.3 8.3-5.6-3.3 15.1-85.1 21.1-92.4 3.1-3.8 8.2-0.6 7.8 3.7z"  fill="#fff" /><path d="M-141.3 64.4c-2 3.9-7.3 20.4-14.4 12.7-3.6-3.9 0.4-10.2 5.4-8.7 5.9 1.7 4.3 10.8-1.9 10.4-10.3-0.7-1.1-18.3 2.9-21.2 4.8-3.5 9.7 1.9 8 6.8z"  fill="#c2e1ff" /><path d=""  fill="#fff" /><path d="M-110.3-397.2c-22.2 86.7-64.8 126.5-57.6 227.1 0.9 12.8 20.5 124.8 11.8 124.3-4.5-0.2-4.8-6.9-0.4-7.7 5.2-0.9 6.1 7.4 0.8 7.7-6.9 0.4-5.6-34.3-6.4-40.2-8.5-63.6-21-121.5-5.4-185.4 8.1-33.3 22.2-64.1 35.7-95.4 2.9-6.8 8.6-33.9 15.5-36.3 3.9-1.3 6.6 2.3 6 5.9z"  fill="#005bbb" /><path d="M-119.3-59c1.1 20.6-25.9 127.3-40.7 136.5-6.8 4.2-11.2-8.3-3.3-9.3 7.9-1 6.7 12.2-0.9 9.8-9.8-3.1 10.9-42.4 13.8-49.2 7.6-18.4 15.6-36.8 20-56.3 2.1-9.3-0.1-25.2 4-33.2 1.9-3.7 6.6-1.9 7.1 1.7z"  fill="#005bbb" /><path d="M-111.8-68.3c3.7 30.7-28.4 137-44.3 146.3-7.1 4.1-11.2-8.8-3-9.6 8.1-0.8 6.5 12.7-1.3 10-9.7-3.4 26.5-73.1 30.5-83.2 8-20.5 13.7-85.1 18.1-63.5z"  fill="#c2e1ff" /><path d="M-104.2-69.3c4.8 35.6-32.6 139.3-48.1 147.6-7.3 4-11.1-9.3-2.8-9.8 8.3-0.5 6.2 13.1-1.6 10.1-9.9-3.8 29.9-74.4 34.2-84.6 8.4-20.3 13.7-84.8 18.3-63.3z"  fill="#005bbb" /><path d="M-97.3-174.9c27.7 95.9 79.7 114.2 2.5 214-5.7 7.4-24.6 40.4-33.8 40.2-10.9-0.3-3.5-17.8 4.3-10.1 7.8 7.7-9.7 15.3-10 4.4-0.3-9.6 64.5-82.8 70.5-115.7 8.5-46.5-22.1-84.4-37.1-125.8-1.3-3.6 0.2-14.1 3.6-7z"  fill="#005bbb" /><path d="M-87.9-236.2c-12.2 53.3 22.7 93.7 40.8 140.3 19.8 51 0.6 94.5-32.9 133.8-6.5 7.6-29.7 42.7-39.4 41.9-11.3-1-2.5-18.6 5.1-10.1 7.5 8.5-11 15.2-10.7 3.8 0.4-12.3 70.8-78 77.7-116.7 9.7-55-35.2-97-47.4-147.4-3.2-13.2-7.5-35.1-1.7-48.2 2.2-5 8.7-2.3 8.5 2.6z"  fill="#fff500" /><path d="M-79.9-304c-92.7 103.4 12 165.8 4.3 260.5-2.9 35.3-23.9 64.4-42.8 93.1-3.8 5.8-16.6 34.4-25 28.8-5.4-3.6-0.9-12.3 5.2-9.9 6.1 2.4 3.5 11.8-3 10.8-12.2-1.9 3.7-21.1 6.2-25.2 18.4-29.4 42.7-58.1 49.9-92.8 13.6-65.8-44.4-121.9-39.2-188.6 2-26.2 13.3-69 36-85.7 6.1-4.5 12 3.3 8.4 9z"  fill="#005bbb" /><path d=""  fill="#fff500" /><path d="M-86.7-395.5c-38.7 73-80.1 136.1-72.5 222.8 1.2 13.5 26.1 139.2 13.8 137.7-5.5-0.7-3.9-9.4 1.5-8.1 4.6 1.1 3.7 8.2-1 8.1-7.1-0.1-3.6-34.5-4.3-40.6-7.1-69-28.2-128.5-9.1-198.3 10.1-36.7 36.9-99.9 62.7-128 4.5-4.9 11.1 0.8 8.9 6.4z"  fill="#fff" /><path d="M-57.2-366.9c-37.9 32-68.5 71-79.8 120.2-25.7 110.9 57.1 151.6 1.3 277.2-2.3 5.3-6.7 23.7-14.2 22.6-9.6-1.4-1.2-16 4.8-8.4 5.1 6.5-7.2 12.5-9.1 4.5-1.7-7.1 26.6-64.6 29.8-78.8 17.9-78.5-43.9-143.8-17.4-235.8 11.3-39.3 34.5-73.2 64.1-101 3.8-3.6 9.3-10.9 14.6-12.1 7.2-1.7 10.2 6.9 5.9 11.6z"  fill="#fff" /><path d=""  fill="#fff500" /><path d="M-43.2-81.7c16.1 57.1-20.3 99.8-55.3 140.1-4.4 5-15.2 23.9-23 20.5-10.4-4.5 3.6-18.4 8-8 3.8 8.9-12 11.9-11.7 2.2 0.3-9.4 52.3-63.1 61.2-77.1 8.6-13.7 14.9-28.8 16.7-45 1.1-9.9-4.1-23.9-1.8-32.8 0.9-3.3 4.9-2.7 5.9 0.1z"  fill="#c2e1ff" /><path d="M-34.1 52c-6.2 5.6-33.8 35.7-41.3 25.5-5.4-7.4 6.7-15.3 11.3-7.4 4.6 7.9-8.3 14.5-12 6.2-3.5-7.9 28.6-33.9 36.1-35.7 7.1-1.7 10.2 6.7 5.9 11.4z"  fill="#fff" /><path d="M-27.8-196.7c17.6 91.5 114.6 142.1-3.6 248.8-6.4 5.8-31 33.1-39.8 26.9-6.4-4.6-0.7-14.8 6.6-11.8 7.3 3.1 3.9 14.3-3.9 12.9-19.1-3.5 21.7-32.3 25.7-35.7 26.9-23.3 52.6-50.8 58.5-87.3 8.1-50.8-25.2-89.8-43.3-134-7.8-19-3.3-28.2-0.2-19.8z"  fill="#fff500" /><path d="M-19.6-67.3c6.3 41.3-15.4 76.2-42.4 105.2-6.6 7.1-37.5 46-46.5 41.3-8.9-4.7 1.9-17.4 7.9-9.5 7.2 9.4-12.6 14.9-11.3 3.2 0.9-8.6 50.8-54 59.8-65.5 10-12.7 18.4-26.8 22.7-42.4 2.2-8.1-0.7-28.2 3.5-34.1 2-2.8 5.6-1.2 6.3 1.8z"  fill="#005bbb" /><path d="M-10.6-11.7c-5.7 13.6-75.2 104.3-87.7 89.7-4.9-5.8 2.9-14 8.9-9.5 7.1 5.4-2 16-8.4 10-9.2-8.7 24.2-32 30-37.5 12.8-12 25.5-24.3 36-38.4 3.8-5.2 8.5-19 14.4-21.5 4.8-2 8.2 2.9 6.8 7.2z"  fill="#005bbb" /><path d="M-3.4-385.8c-62.3 53.1-127.4 85-127.3 179.3 0.1 66.6 49.9 124.5 28.7 191.9-1.8 5.9-6.7 28.1-15.2 26.6-8.3-1.5-2.9-14.5 4-9.7 6.9 4.9-3.4 14.4-7.7 7.1-2-3.5 18-56.4 17-75.1-5.1-87-66.5-128.6-14.6-227.6 19.4-37 69.9-85.7 107.9-103.8 7.5-3.5 12.2 6 7.2 11.3z"  fill="#fff500" /><path d="M-8.1-393.4c-63.6 56.1-127.8 90.8-128.1 187.3-0.2 48.9 53.9 155.9 24.6 195.2-5.5 7.3-13.8-6.2-4.7-7.8 7.7-1.3 7.1 11.6-0.5 9.6-5.4-1.4 4.9-49.9 4.3-58.8-6.6-89.7-62.5-131.9-9.4-231.4 19.6-36.6 69-86.6 106.5-105.2 7.3-3.6 12.2 5.8 7.3 11.1z"  fill="#c2e1ff" /><path d=""  fill="#fff500" /><path d="M-42-393.9c-55.6 53-104 108.5-104.9 189.8-0.2 17.5 21.9 110.8 20.7 113.5-2.5 5.3-9.5-2.1-4-4.2 5.4-2.2 5.4 8 0 5.8-5.7-2.3-9.3-31.6-11-37.9-17.5-63.7-18.8-127 13.7-186.4 16.6-30.4 46.9-73.5 77.8-91 7-3.9 12.2 5 7.7 10.4z"  fill="#fff" /><path d="M27.7-250.7c-21.7 65.7 30.2 119.7 33.5 183.8 2.2 42.9-14.5 82.6-42.7 114.4-5.9 6.7-31.2 38.3-40.8 31.6-6.5-4.5-0.9-14.8 6.4-11.8 7.3 3 4 14.2-3.7 12.9-18.4-3.2 20.7-32.9 24.6-37 23.1-23.5 40.8-51.5 46.6-84.4 10.7-61.2-29-107.1-36.6-164.9-1.8-13.7-3.2-35.8 3.9-48.3 2.9-5.1 9.6-1.4 8.8 3.7z"  fill="#fff500" /><path d="M33.7-188.7c19.9 92.3 70.1 144.7-9.8 237.4-6 6.9-26.2 34.1-36.1 31.4-8.8-2.3-4.4-15.9 4.1-12.7 7.2 2.8 4.3 14-3.4 12.9-18.3-2.8 17.9-31.2 21.6-35.1 22.8-23.8 40.1-52.1 46.4-84.8 10.4-54.3-16.2-96.9-28.7-147.7-1-3.9 4.6-5.1 5.9-1.4z"  fill="#005bbb" /><path d="M-1.6-393.6c-61 55.5-126.7 84.1-131.9 178.3-2.3 41.5 13.5 78 25.1 116.9 1 3.2 10.4 29 1.5 26.9-7.2-1.6 2.1-11.3 4-4.1 1.6 5.8-6.1 4.3-7-1.7-12.8-84.6-58-132.4-9.5-221.3 20.5-37.5 72-86.4 110.4-106 7.2-3.7 12.2 5.6 7.4 11z"  fill="#fff500" /><path d="M41-395.2c-45.2 64.9-141.7 88.7-144.5 180.2-1.9 61.9 52.4 108.9 47.5 170.6-0.4 4.5-0.4 23.3-9 20.5-7.2-2.4-0.7-13.2 4.8-8 4.7 4.5-2.7 11.5-6.9 6.5-2.3-2.7 3.9-44.5 0.6-58.1-16.4-68.6-68-112.4-32.7-188.6 21.7-46.9 66.6-69.8 104-102.2 8.9-7.7 18.8-25 28.9-29.8 5.9-2.8 10.1 4 7.3 8.9z"  fill="#fff500" /><path d="M56.6-117.8c20.5 63.6 4.6 126.4-41 174.6-5.3 5.6-20.2 25.4-28.8 23.2-12-3.2 0.9-20.6 7.4-10 5.6 9-11.1 14.8-12.4 4.3-0.4-3.4 47.8-44.8 64.1-82 9.6-22.1 13.8-46.4 12.1-70.5-0.7-11.1-9-29.2-7-39.4 0.6-3.1 4.5-2.8 5.6-0.2z"  fill="#fff500" /><path d="M64.7-188.6c15 92.2 40.4 153.3-22.4 238-5 6.7-20.6 32.2-30.1 30.6-11.7-2-0.9-19.7 6.3-10.1 7.1 9.5-12.9 14.9-11.5 3 1.2-10.5 23.2-27.2 29.7-36 15.7-21.2 27.2-45.2 33.7-70.8 13.6-54.2-3.1-100.6-12.1-153.5-0.7-4.3 5.2-5.1 6.4-1.2z"  fill="#005bbb" /><path d="M74-385.1c-22.3 57.8-94.2 115.3-89.1 178.1 6.4 78.9 84.4 125.8 35.3 213.3-3.5 6.3-13.6 27-22.2 26-9.8-1.1-4.5-16.6 4-11.5 9.9 6-6.2 18.1-9.3 6.9-1.4-5.1 32.1-49.2 34.9-75.6 7.5-69.5-61.2-120.8-49.2-189.8 7.7-44.4 44.2-77 67-114 7.3-11.9 11.7-27.2 19.7-38.3 3.7-5 10.3-0.4 8.9 4.9z"  fill="#fff" /><path d="M81.6-3.2c-5.3 14.6-36.2 79.3-50.1 82.6-9.5 2.3-9.7-13.9-0.2-12 9.5 1.9 3 16.7-4.8 11-8.9-6.5 14.1-28.1 18.1-33.9 8.4-12 20.5-45.9 29-53.3 4.2-3.7 9.2 1 8 5.6z"  fill="#c2e1ff" /><path d="M89.4 39.2c-3 6.6-16 44.3-25.2 38.9-6.4-3.7 0-13.4 5.9-9 5.9 4.4-1.5 13.3-6.9 8.3-5.2-4.8 14.7-46.1 21.8-45.6 3.9 0.3 5.5 4.1 4.4 7.4z"  fill="#c2e1ff" /><path d="M96.3-243.8c-6.2 103.4 25.1 178.3-29.9 278.3-5.6 10.2-20 41.7-31.9 44.7-9.4 2.4-9.9-13.6-0.3-11.8 8.1 1.5 5 14.2-2.9 11.8-13-3.9 11.5-28.5 14.8-33.4 20.7-30.2 34.6-64.3 42.2-100.1 12.4-58.5-8.7-160.6 0.2-190.8 1.4-4.7 7.5-3 7.8 1.3z"  fill="#fff" /><path d="M101.2-397.9c-9.4 59.6-38.8 118.6-39.2 179.1-0.6 87.7 53.2 155.4-4.9 245.4-5.8 8.9-16.1-5.4-6.4-8.2 8.5-2.5 9.6 12.2 0.7 10.9-12.2-1.8 5.9-26.7 8.1-31.5 10.6-24.2 16.3-50.5 16.8-76.9 1.1-55.8-26.9-107.7-21-163.8 3.9-37 17.8-72.5 27-108.5 3.9-15.2 4.4-34.8 10.5-49 2.1-4.9 8.6-2.3 8.4 2.5z"  fill="#fff500" /><path d="M111.9-98.5c-5.8 52.5-21.8 105.2-49.1 150.6-3.7 6.1-14.6 30.3-23.4 27.1-8.8-3.3-0.4-16.4 6.3-9.8 6.6 6.7-6.6 15-9.8 6.2-3.4-9.3 29.7-50.6 34.8-61.4 22.5-47.2 20.7-82.7 33-114.7 1.9-4.8 8.2-2.6 8.2 2z"  fill="#fff500" /><path d="M119.7-103.3c-8.3 53.1-24.7 106.6-51.1 153.5-3.4 6.1-14.3 31.8-23.1 28.9-8.8-2.9-0.9-16.1 5.8-9.7 6.7 6.3-5.9 15-9.4 6.4-3.8-9.4 27.5-49.9 32.4-60.5 20.2-43.3 25.4-94.2 37.1-121 2.1-4.9 8.6-2.3 8.3 2.4z"  fill="#fff500" /><path d="M126.3-398.1c-1.6 89 2.7 180.4-5.2 269.1-1.5 17-19.8 147.5-40.4 144.6-8.2-1.1-3.5-14 3.5-9.5 8.1 5.2-5.5 15-7.9 5.6-2.6-10.3 13.3-36.3 16.6-46.8 10.1-31.9 17.1-64.8 20.3-98.1 7.9-83.3 3-169 5-252.7 0.1-3.9-1.2-10.6 0.7-14.1 2.1-3.8 7-1.8 7.4 1.9z"  fill="#c2e1ff" /><path d="M134.8-398.6c1.8 122.7 12.3 242.8-25.9 361.4-2 6.2-7.1 33.4-15.3 32.7-8-0.7-4-13.4 3-9.4 8.1 4.7-4.7 14.8-7.4 5.8-1.8-6.2 32.9-106.8 37.9-149.3 9-76.5 1.2-155.4 0.2-232.2-0.1-4.1 5.9-20.7 7.5-9z"  fill="#005bbb" /><path d="M142.2-339.1c4.8 143.5 7.3 220.9-51.1 357.1-4.5 10.5-21.8 60.2-34.1 60.9-7.6 0.4-7.7-11.6 0-11.3 7.6 0.4 6.4 12.4-1.2 11.2-12.5-2 14.1-40.5 17.3-46.9 23.6-47.7 40.9-99.8 53.5-151.4 17.7-71.9 10.9-143.9 8.2-217-0.2-5.4 6.3-9.3 7.4-2.6z"  fill="#fff" /><path d="M149.8-293.2c7.4 125.9-10.2 209.5-62.6 324.6-3.6 7.9-19.3 49.8-29.1 47.3-10-2.6 0.6-17.1 6.1-8.3 4.7 7.5-9.1 12.5-10.3 3.6-1.6-12.7 22.3-43.7 27.9-56.2 17.8-39.7 32.3-81.4 44.9-122.9 18.5-60.8 19.9-119.3 16.1-182.2-0.3-4.9 5.3-15 7-5.9z"  fill="#fff500" /><path d="M158.4-136.6c-9.1 31.7-70.6 196.8-88.1 213.8-7.3 7-13.9-9.2-3.9-9.3 8.6-0.1 5.7 13.9-2.1 10.4-8.6-3.9 22.5-59.6 26.2-68.6 14.7-34.6 44-124.9 59.2-150.2 3-5.1 9.7-1.3 8.7 3.9z"  fill="#fff500" /><path d="M166.4 25.4c-4.7 8.7-11.3 48.4-17.2 51.6-5.8 3.1-8.8-7.3-2.2-7.8 6.6-0.4 4.9 10.4-1.2 8-10.1-3.9 6.5-51.5 11.6-57.7 4.2-5.1 10.9 0.3 9 5.9z"  fill="#c2e1ff" /><path d="M175.5-398.5c2.1 36.7 2.5 73.4 5.1 110 6.5 91.6 8.6 129.9-34.1 214.1-3.2 6.2-12.6 34.9-20.7 33.5-8.3-1.4-3.1-14.3 3.8-9.5 8.1 5.5-6.1 15.1-8.1 5.4-0.1-0.4 50.8-110.5 54.4-132.8 9.3-57.6-4.4-156.2-7.6-218-0.3-5.3 6.1-9.3 7.2-2.7z"  fill="#c2e1ff" /><path d="M180.7 73.9c-2.3 10-13-3.2-4.2-4.1 10-1-0.7 14.5-3.3 4.9-1.5-5.5 6.3-7.8 7.6-2.1z"  fill="#005bbb" /><path d="M189.4-112.2c-25.3 46.4-56.9 86.6-77.3 135.9-3.2 7.7-18.2 57.7-26.6 54.1-12-5.1 10-16 6.8-3.4-2.1 8.7-11.1 1.2-8-7.2 22.3-60.9 49.6-115.2 85.5-169.1 3.1-4.7 7.4-16.5 13.1-18.4 5.2-1.7 8.4 3.7 6.5 8.1z"  fill="#fff500" /><path d=""  fill="#c2e1ff" /><path d="M204.3-398.6c-0.7 32.2-3.8 64.3-3.4 96.5 0.5 49.1 14.9 100.4 4 149-8.6 38.6-34.6 68.9-55.1 101.7-4.2 6.7-18.3 40.9-26.2 39.3-9.8-1.8-0.5-16.5 5.3-8.4 5 6.9-8 12.5-9.5 4.2-3.4-17.6 70.7-112.3 78-145.4 10.4-46.8-3.4-96.4-4.2-143.7-0.5-30.4 2.1-60.7 3.2-91.1 0.2-5.7 7.3-9.1 7.9-2.1z"  fill="#005bbb" /><path d="M211.6-189.9c1.2 73.4-55.3 122.3-85.2 184.4-4.8 10-32.2 86.5-39.3 83.5-7.3-3 0.2-13.8 5.6-7.9 6.2 6.8-8.8 12.5-8.6 3.3 0.6-39.9 69.6-146.1 92.9-181.8 9-13.7 16.7-28.1 21.4-43.9 3.2-11.1 0.8-30.1 5.9-39.5 2-3.8 6.9-1.8 7.3 1.9z"  fill="#fff" /><path d="M218-398.2c-3.1 39.9-9.9 79.2-8.2 119.4 4.9 112.8 25.4 122-47 220.5-4.3 5.9-17.6 33.2-25.4 31.1-10.1-2.7 0.8-17.2 6.2-8.3 4.6 7.6-9.3 12.4-10.3 3.5-1-9.1 68.1-95.2 74.5-126.4 10.6-51.2-7.7-105.6-5.8-157.5 0.9-25.2-0.2-60 8-84 1.6-4.8 7.9-2.8 8 1.7z"  fill="#fff500" /><path d="M227.7-78.9c-28.6 34.7-65.2 58-85.2 99.9-10.4 21.7-17 60.4-23.8 56.1-4.4-2.7-1-9.6 3.8-7.9 5.7 2 2 10.8-3.4 8.1-10.3-5 11.3-55.2 15-63.2 10.1-22.2 65.5-94.8 86.8-102.9 6.4-2.4 10.2 5 6.8 9.9z"  fill="#fff" /><path d="M231.2-397.7c-6 41.9-15.9 82.5-13.8 125.1 2.2 44.7 18 91.1 5.9 135.5-10.2 37.5-39.6 63.5-62.3 93.5-4.9 6.4-22 41-29.7 39.2-9.9-2.2 0.1-16.8 5.7-8.4 4.8 7.2-8.6 12.5-9.9 3.9-3.3-20.8 79.6-102.8 88.8-137.1 14.3-52.6-8.9-110-6.1-163.7 1.4-27 2.7-65.2 13.1-90.4 2-4.9 8.5-2.4 8.3 2.4z"  fill="#c2e1ff" /><path d="M242.9-392c-9.3 41.3-21 81-18.5 124 2.5 44.6 20.4 90.7 9.2 135.3-14.1 56-72 90.2-97.7 141-2.5 5-7.6 25.6-15.6 21.8-5.4-2.5-2.5-10.9 3.3-9.6 6.8 1.5 3.8 12.1-2.8 9.8-9.1-3.1 3.3-22.1 5.5-26.7 24.4-51.4 82.2-89.5 98.1-138.9 17.4-54-11.1-114.3-7.6-169.9 1.7-26.8 5.2-65.7 17.6-89.9 2.6-5 9.1-1.8 8.5 3.2z"  fill="#c2e1ff" /><path d="M250.5-131.1c-8.4 58.7-70 86.6-99 133.8-10.4 16.9-18 35.3-23.1 54.4-1.1 4-2.4 25.4-10.7 20.2-5.1-3.2 0.4-11 5.1-7.2 4.7 3.7-1.6 10.9-5.8 6.6-4.2-4.1 1.2-16.6 2.2-21.2 14.6-61.3 53-95.6 94.5-139.3 17.5-18.4 19.9-39.9 29-51 3.1-3.8 8.2-0.5 7.8 3.7z"  fill="#c2e1ff" /><path d=""  fill="#005bbb" /><path d="M266.3 27.7c-8 9.8-15.2 20.6-19.3 32.6-1.3 3.7-2.2 20.7-9.7 16.6-4.3-2.4-1.5-9.1 3.3-7.8 5.5 1.6 2.5 10.1-2.9 8-12-5 12.5-54.5 21.3-58.6 6.1-2.8 10.3 4.2 7.3 9.2z"  fill="#c2e1ff" /><path d="M273.6-289.3c-16.8 82.1 62.9 136.9 92.2 204.5 23.1 53.1 1.2 94.7-15.6 145-1.3 3.9-3.1 22.3-11 17.2-16.7-11 23-2.8 3.3 0.7-9.4 1.7-3.2-14.8-2.3-18.1 10.6-38.9 33.9-72.8 28.2-114.8-9.1-67.4-71.8-111-95.3-172.4-6.5-17-15.3-46.5-7.9-64.5 2-5 8.5-2.4 8.4 2.4z"  fill="#fff500" /><path d="M270.9-396.5c-12.9 36.6-30.7 70.6-33 110.2-4.6 79.7 54.2 157.4-14.6 224.3-5.5 5.4-21.4 24.8-29.7 22.7-12-3 0.7-20.4 7.3-10 6.6 10.4-14.5 14.4-12.1 2.3 2.3-11.6 52.2-44.6 60.2-77.3 14.2-57.6-23.9-117.1-18.2-176.1 3-30.8 13.7-74.6 31.3-100.6 3.4-5.1 10.1-0.7 8.8 4.5z"  fill="#005bbb" /><path d="M287.4-242.8c14.3 58.4 69.3 91.4 105.2 135.3 45.3 55.6 31.3 109.6 5.6 170.1-1.6 3.8-5.6 21.4-13.1 14.8-14-12.4 22.6-5.6 5.1 0.9-14.5 5.4 6.2-37.5 7.9-41.4 13.7-31.3 24.4-64.2 14.8-98.4-16.2-57.6-74-89.4-107.9-135.4-24.5-33.2-22.3-56.8-17.6-45.9z"  fill="#fff" /><path d="M295.2-134.7c6.6 23.4 7.6 48.3-1.8 71.1-16.8 40.6-59.5 57.9-84.2 92-6.9 9.5-12.1 20.2-15 31.6-0.9 3.6-0.5 20.8-8 17.2-4.9-2.4-0.8-9.9 3.8-7 4.7 2.9-0.3 10-4.6 6.6-11.3-8.9 10.5-49.5 16.2-57.8 20.4-30.1 55-46.3 75.7-76.1 8.6-12.3 13.9-26.5 15.1-41.5 1-12.3-3.1-23.5-3.1-35.4 0-3.7 4.8-3.8 5.9-0.7z"  fill="#fff" /><path d="M296.2-396.4c-17.7 38.3-43.2 71.5-45.9 115.2-5.8 92 87 170.3-5.5 248.9-6.8 5.8-30 30.2-38.8 28-11.9-3.1 0.7-20.4 7.2-10 6.6 10.4-14.5 14.3-12.1 2.3 2.8-14 66-47.7 75.7-86.6 16.1-64.8-39.8-126.9-33.9-193.3 3.1-35.3 21.4-82.7 44.4-110.3 4.2-5 10.8 0.3 8.9 5.8z"  fill="#fff500" /><path d="M308.3-395.9c-20.1 39.6-49.9 72.6-52.1 119.1-4.3 92.2 98.6 176 13.8 258.8-6.1 6-26.3 29.7-35.1 27.7-11.9-2.7 0.2-20.2 7-10 6.7 10.2-14 14.5-11.9 2.5 2.3-13.3 58.5-47.7 66.2-85.6 14.4-70.7-52.7-131.9-47.4-204 2.8-37.8 25.1-86.6 50.7-114.8 4.5-4.9 11 0.7 8.8 6.3z"  fill="#fff" /><path d="M316.6-178c56.9 71.2 119.9 111 80.1 212.6-3 7.6-11.3 41.3-18.9 43.5-8.6 2.6-7.3-12.9 0.8-8.9 9.4 4.7-6.7 15-7 4.4-0.8-35.3 39.8-69.7 29-125.7-9.3-48.2-49.9-81.8-80.6-117.1-0.6-0.7-8-13.3-3.4-8.8z"  fill="#fff500" /><path d="M326.8-80.1c3.2 46.7-26.8 76.8-52.6 111.5-4.9 6.5-22.7 47.5-26.2 45.5-5.9-3.3 1.6-11.7 5.6-6.2 3.9 5.5-6.4 9.9-7.7 3.3-6.5-33.7 36.5-69.7 53.4-94.1 11.3-16.4 24.8-80 27.5-60z"  fill="#005bbb" /><path d="M335.6-295.9c-39.4 77.4 65.4 123.9 101.8 175 41.6 58.4 26.7 119.2-5.8 177.3-2.9 5.1-9.9 26.2-18.1 21.4-4.6-2.7-2.7-10 2.7-10.1 6.3-0.1 7.4 9.3 1.2 10.7-16 3.7 9.1-35.6 11.4-39.7 17.1-30.8 31.2-63.6 27.1-99.7-9.2-81.5-91.1-104.1-125.6-168.7-9.9-18.4-17.8-52.7-3.7-71.5 3.9-5.1 10.6-0.3 9 5.3z"  fill="#fff500" /><path d="M339.3-174.9c64.9 63.5 128.7 104.7 85.2 206.4-3.5 8.2-15.4 45.2-24 46.9-9.4 1.9-6.4-14.5 1.7-9.4 8.1 5.1-5.3 14.9-7.7 5.7-2.5-9.4 44.4-85.9 34.5-133.1-10.3-49.2-52.6-79-87.3-111-0.2-0.2-6.3-8.3-2.4-5.5z"  fill="#c2e1ff" /><path d="M351-313.4c-18.9 23.2-25.9 52.3-13.8 80.4 36.3 84.2 181.6 110.6 111.8 258.4-4.4 9.2-21.2 52.1-31.4 53.3-10 1.2-5.5-15.8 2.6-9.7 8.1 6-6.9 15.2-8.6 5.2-0.5-2.6 47.6-87 46.3-126.3-3.1-96.6-101.1-113.3-129.4-189.1-8.7-23.3-7.2-62.9 13.8-80.4 5.6-4.7 11.9 2.5 8.7 8.2z"  fill="#fff500" /><path d="M358.4-280.8c-20.2 59.5 48.6 99 79.3 138.8 50.6 65.8 38 133.8-1.6 200.9-2.5 4.2-11.5 27.2-19.1 18.1-13.2-15.9 25.6-2.3 5.4 1.8-16.3 3.3 10.6-36.8 12.9-40.7 18.4-31.5 33.1-65 29.6-102.3-7.4-80.5-74.9-103.3-107.8-165.4-7.4-13.9-15.5-39.3-7.4-54.6 2.7-5.1 9.4-1.7 8.7 3.4z"  fill="#fff500" /><path d="M362.1-164.7c67.5 56.7 110.6 107.6 69 198.2-3.7 8-15.8 43.7-24.6 45.1-9.6 1.7-6.1-14.9 2-9.5 8.1 5.4-5.8 15-8 5.6-1.5-6.4 43.9-86.7 39-127.8-5.6-46.5-40.3-78.4-74.4-106.7-1.5-1.2-4.6-6-3-4.9z"  fill="#fff500" /><path d="M370.7-217.1c14.7 22.2 36.1 39 53.9 58.6 53.7 58.9 61.4 129.7 22.5 198.8-3.8 6.8-18.5 40.6-27 38.7-6.2-1.5-5-10.9 1.4-10.9 6.4 0.1 7.3 9.6 1 10.9-16.2 3.3 12.4-39.8 14.9-44.2 19.4-33.7 33.3-69.8 26.6-109.2-10-58.8-54.9-90.7-90.6-133.5-1.1-1.3-7.4-14.2-2.7-9.2z"  fill="#fff500" /><path d=""  fill="#fff500" /><path d=""  fill="#005bbb" /><path d=""  fill="#fff500" /><path d="M401.2-111c41 47.8 38.3 101.7 13.2 156.3-3 6.5-10.2 31.3-17 32.9-6.8 1.5-8.5-9.3-1.7-10.1 6.9-0.7 7.4 10.2 0.6 10.2-11.1 0-0.1-18.3 1.5-22 12.1-27.1 26.5-53.8 28.7-84.1 1.5-22.1-4-43.8-15.2-62.9-1.1-1.9-14.8-24.8-10.1-20.3z"  fill="#005bbb" /><path d=""  fill="#fff" /><path d="M410.8-395.6c-28.6 50.9-109.5 85.5-87.6 154.9 15.9 50.5 70.7 74.5 103 112.8 1.4 1.6 7 5.8 5 8.4-1.7 2.2-4.7-1.3-2.2-2.6 2.5-1.3 3.7 3.2 0.9 3.3-4.5 0.2-24-26.8-28.5-31.1-38.1-35.5-96-69.2-88.8-129.8 5.1-42.5 41.4-67.9 68.7-96.7 6.7-7.1 13.8-22.2 21.9-27 5.4-3.2 9.9 2.9 7.6 7.8z"  fill="#005bbb" /><path d="M411.6-395.2c-29.1 51.6-112.1 87.2-86.4 157.9 18.7 51.5 121.6 102.9 125.1 146.7 0.4 4.7-7.5 2.3-4.5-1.4 3-3.7 7 3.5 2.3 4.1-2.6 0.3-25-39.9-29.4-44.9-38.1-44.4-113.4-77.2-105.3-146.6 5-42.6 41.4-68 68.6-96.7 6.7-7.1 13.9-22.2 22-27 5.4-3.2 9.9 3 7.6 7.9z"  fill="#fff500" /><path d=""  fill="#fff" /><path d="M439.9-159c50.3 67.7 48.9 138.9 5.9 209.4-3.5 5.7-13.7 30.4-21.8 28.3-7.3-1.9-3.7-13.2 3.4-10.6 6 2.3 3.6 11.6-2.8 10.7-12.7-1.8 5.6-24.6 8-28.6 18.5-30 36.7-60.7 39.6-96.6 3-38-11.1-75-32.1-106.1-0.6-0.8-4.5-11.3-0.2-6.5z"  fill="#fff500" /><path d="M451 47c-3.8 6.2-16.2 33.9-24.5 31.7-8.6-2.3-1.8-15.4 5.1-9.8 5.8 4.9-2.4 13.7-7.7 8.2-12.1-12.6 39.2-56 27.1-30.1z"  fill="#fff" /><path d=""  fill="#005bbb" /><path d="M464.7-224.6c18.3 107.6 76.2 155.4 2.6 266-4.8 7.2-20.5 37.9-29.2 38-10.7 0.1-4-17.3 3.9-10 7.9 7.3-9 15.3-9.7 4.6-1-15.2 31.6-47.7 39.6-61.4 11-19 19.1-39.5 22.2-61.3 8.6-60.2-20.8-112.7-34.4-169.3-1.1-4.4 2.3-14.6 5-6.6z"  fill="#fff500" /><path d="M472-201.8c28.7 98.6 54.3 159.3-10.1 251.9-4.1 5.9-16.8 31.3-25 28.6-7.5-2.5-3-14 4.2-10.7 6.1 2.8 3 12.3-3.5 10.9-13.1-2.8 7.9-25.7 10.8-30 21.7-30.8 42-62.3 46.9-100.5 6.3-49.6-12.3-97-27.1-143.3-1.1-3.4 0.5-14.3 3.8-6.9z"  fill="#fff" /><path d="M479.5-129.9c23.6 64.2 13.1 121.9-23.7 178.4-4.1 6.2-15 30.3-23 30.6-7.7 0.3-7.5-11.9 0.2-11.3 7.7 0.5 6.2 12.6-1.4 11.2-12.3-2.2 4.6-21.8 7.1-25.6 17-25.8 34.6-51.5 42.4-81.8 11.9-46.2-9.3-85.4-6.9-101 0.5-3 4.1-2.8 5.3-0.5z"  fill="#005bbb" /><path d=""  fill="#fff500" /><path d="M495.2-164.8c23.3 87.1 23.3 144.2-31.4 219.2-3.9 5.4-14.8 27.1-22.8 24.3-6.4-2.3-4.1-12.1 2.6-11.3 7.9 1 5.7 13.3-2 11.5-12.6-2.9 5.8-22.2 8.6-26.1 20.2-27.6 40.5-55.4 48.9-89.2 15.3-62-9.1-83.9-9.8-127.6-0.1-3.7 4.7-3.8 5.9-0.8z"  fill="#c2e1ff" /><path d="M504.6-382.4c-14 43.8-45 87.3-46.2 134.1-2.3 93.2 85.6 151.5 20.3 269-3.8 6.8-15.1 32.5-23.8 32.5-10.9-0.1-3.8-17.6 4.1-10.1 7.8 7.5-9.4 15.3-9.9 4.5-0.4-9.4 16.7-26.9 21.5-35.3 11.5-20 19.6-41.7 22.3-64.6 8.6-75.2-46-136.2-41.9-206.5 1.4-24.7 31.4-106.6 44.9-127.8 3.2-5.1 9.9-1 8.7 4.2z"  fill="#fff500" /><path d="M511.5-261c-2 112.7 61 200.3-20 303.9-5.6 7.1-24.2 37.3-33.5 36.5-11.3-1-2.5-18.6 5.1-10.2 7.5 8.5-11 15.2-10.7 3.9 0-0.3 63.5-80.3 71.3-118.6 14.1-69-16.6-137.8-19.6-206.4-0.2-4.9 6-20.5 7.4-9.1z"  fill="#fff500" /><path d="M519-245.3c7.1 106.8 57.4 194.6-20.8 290-5.7 6.9-24.6 35.7-33.6 34.7-11.4-1.3-2-18.9 5.4-10.1 7.4 8.8-11.6 15.1-10.9 3.6 0-0.6 64.2-77 72.5-116.1 13.8-65.1-12.6-131.6-19.2-196-0.5-4.9 4.8-14.9 6.6-6.1z"  fill="#c2e1ff" /><path d="M527.3-55.5c-3.4 36.6-50.2 128.7-72.2 134.6-9.2 2.5-9.9-13.4-0.5-11.8 9.4 1.6 3.4 16.3-4.5 10.9-8.9-6.1 38.4-59.4 44.3-68.7 13.7-21.9 15.9-44 24.7-67 1.9-4.8 8.2-2.5 8.2 2z"  fill="#fff500" /><path d="M534.6-288.1c-0.6 118.3 88.9 245-7.1 347.5-5 5.3-18.4 24.5-26.6 19.5-6.5-3.9-1.7-14.2 5.4-11.8 7.2 2.4 4.8 13.5-2.8 12.7-18.3-2 19.8-34.4 23.8-38.8 22.1-24.9 36.3-54.4 38.6-87.9 5-71.4-29-141.3-37-211.6-4.3-37.6 4.2-40.2 5.7-29.6z"  fill="#fff500" /><path d="M525.1-397.3c-18 71.4-43.9 133.4-27.4 208 11.5 51.6 27.6 105.2 15.1 158.2-1 4.3-1.6 14.9-7.9 14.6-7.8-0.4-4.4-12.9 2.5-9.3 6.9 3.6-1.4 13.5-6.2 7.4-3.8-4.9 3.7-19 4.9-24.6 3.2-15.1 4.1-30.6 3.3-46-3-62-32.7-121.3-25.8-183.8 3.2-28.9 19.6-103.2 32.9-127.8 2.7-5 9.3-1.7 8.6 3.3z"  fill="#fff500" /><path d="M549.5-268.5c5.6 43.2 49.7 148 50.3 158.6 1.8 31.7 3.2 63.5 4.2 95.3 0.6 19.2 9.2 74.7-13.5 92.8-6.1 4.9-13.3-5.2-6.7-9.4 7.7-4.9 12.9 9.3 3.8 10.6-12.9 1.7 5-31.4 5.2-37.6 1-49.8 1.9-100 2.2-149.8 0.1-13.9-32.2-81-38.4-101.1-5.2-16.9-15.5-41.3-13.8-59.2 0.4-4.1 5.7-3.7 6.7-0.2z"  fill="#fff500" /><path d=""  fill="#c2e1ff" /><path d=""  fill="#005bbb" /><path d=""  fill="#fff500" /><path d="M579.3-214c2.1 5.4 22.8 46.6 20.4 47.8-2.6 1.3-4.4-2.9-1.7-3.9 2.3-0.9 4 2.4 1.9 3.8-3.7 2.4-7.3-8.2-8.3-10.1-10.6-19.4-19.1-49.8-12.3-37.6z"  fill="#fff" /><path d="M588.5-42.9c0.8 36.5-31.2 119.8-58.3 122.9-8.8 1-9.7-12.9-0.9-12.9 10.3-0.1 6.8 16.7-2.6 12.4-11.4-5.1 31-47.1 38.3-60.8 4.5-8.6 8.2-17.8 10.8-27.2 2.8-10.2 0.7-27.6 5.4-36.3 2-3.7 6.9-1.8 7.3 1.9z"  fill="#fff500" /><path d="M595.1-291.8c1.1 4.2 8.1 18.2 5.7 21.6-2.5 3.4-7.1-1.8-3.5-3.9 3.7-2.1 5.7 4.6 1.5 5-11.8 1-8.1-33-3.7-22.7z"  fill="#c2e1ff" /><path d="M595.1-398.1c-0.8 13.5 8.6 75.8 6.4 80.9-2.4 5.2-9.3-1.9-4-4.1 4.5-1.9 5.9 6.2 1 5.9-5.5-0.2-5.9-15.9-6.5-19.6-3.3-18.2-9.9-46.2-4.7-64.3 1.3-4.7 7.5-3.1 7.8 1.2z"  fill="#c2e1ff" /><path d=""  fill="#005bbb" /><path d=""  fill="#c2e1ff" /><path d=""  fill="#fff" /><path d=""  fill="#fff500" /><path d=""  fill="#fff" /><path d=""  fill="#fff" /><path d=""  fill="#005bbb" /><path d=""  fill="#c2e1ff" /><path d=""  fill="#fff500" /><path d=""  fill="#005bbb" /><path d=""  fill="#fff" /><path d=""  fill="#fff500" /></svg>