<svg width="1200" height="675" viewBox="-500 -500 1200 675" xmlns="http://www.w3.org/2000/svg"><path d="M-500-500h1200v675h-1200z" fill="#000"/><path d=""  fill="#fff500" /><path d=""  fill="#fff" /><path d=""  fill="#c2e1ff" /><path d=""  fill="#005bbb" /><path d="M-394.1-350.4c14.4 46.6 3.7 100.4 5.1 148.5 0.3 10.8 6.4 74.3-9.1 75.5-11.1 0.9-8.6-17.4 1.9-13.5 10.4 3.8 0.5 19.4-7.4 11.5-7.4-7.4 3-45.6 3.1-56.4 0.1-16.7-3.1-164-2.8-165.7 1.3-5 7.6-4.1 9.2 0.1z"  fill="#fff" /><path d="M-381.3-399.9c27.9 62.5-0.3 131.1-1.9 195.9-0.3 12.6 2.7 92.2-15.6 92.1-11.9-0.1-7.5-19.3 3.3-14.2 10.7 5.1-1.3 20.6-8.9 11.5-5.8-6.9 3.6-25.5 4.9-33.3 3.2-19.3 3.7-38.9 4.1-58.4 1.1-49.2 16.1-98.1 14.8-147-0.4-15.8-6.6-29.5-8.5-44.7-0.6-4.9 5.8-5.8 7.8-1.9z"  fill="#005bbb" /><path d="M-394.3-354.5c16 47.7 4.2 103.8 5.6 153.2 0.3 10.9 6.1 75.1-9.5 76.2-11.2 0.8-8.5-17.6 2-13.6 10.5 3.9 0.4 19.5-7.5 11.5-7.5-7.6 3.5-50.2 3.4-61.8-0.1-47.5 5.3-97.9 0.3-145-3.3-30.6 3.5-26.3 5.7-20.5z"  fill="#c2e1ff" /><path d=""  fill="#005bbb" /><path d=""  fill="#c2e1ff" /><path d="M-388.2-386.4c25.9 56.4 3.5 122.3 3 181.5-0.1 12.3 4 88.6-13.4 88.9-11.6 0.2-7.8-18.7 2.8-14.1 10.7 4.7-0.8 20.3-8.4 11.6-5.2-5.9 6.8-65.8 6.9-87.2 0.3-46.4 11.5-93.3 9.1-139.4-0.5-10-10.7-33-7.6-41.3 1.4-3.7 5.9-3.1 7.6 0z"  fill="#fff" /><path d=""  fill="#005bbb" /><path d="M-343.3-399c8.3 69.6-30.7 136.1-35.3 205.3-1 14.9 0.1 85.7-18 90.6-10.2 2.7-13.6-13.5-3.2-15.2 12.2-1.9 10.9 18.5-1 15.1-9.7-2.8 6.3-44 9.4-89.3 4.9-71.7 28.8-115.5 36-176.8 0.8-6.5-3.6-33 5.5-34.8 3.5-0.7 6 1.9 6.6 5.1z"  fill="#c2e1ff" /><path d="M-348.8-21.8c-7.4 22.2-13.2 45.5-11.5 69.1 0.3 4.6 9.7 30.8 0.4 30.2-4.9-0.2-5.4-7.6-0.5-8.4 5.7-1 6.7 8.1 0.9 8.4-22.6 1.3-10.1-93.7-3-105.4 4.8-7.9 15.2-2 13.7 6.1z"  fill="#005bbb" /><path d="M-338.8 30.1c0.8 8.9 15.7 39 12.7 44.8-2.4 4.7-9.2-0.8-5-4.1 4.1-3.3 8 4.6 2.8 5.8-8.9 2.2-21.4-39.4-20.9-46 0.5-6.4 8.7-5.9 10.4-0.5z"  fill="#005bbb" /><path d="M-324.5-164.6c-11.9 24.2-49.2 137.3-71 145.5-13.3 4.9-16.5-18.3-2.5-17.2 14.1 1.1 7.3 23.6-5 16.6-14.6-8.2 18.2-47.2 23-56.3 14.6-27.4 23.8-74.7 41.5-97.1 6.2-7.9 16.7 0 14 8.5z"  fill="#005bbb" /><path d="M-312.5-208.6c-23.1 28.4-59.6 161.4-83.2 169.7-13.5 4.7-16.4-18.9-2.1-17.5 14.3 1.4 6.9 24-5.5 16.8-13.9-8.1 16.8-44.6 21.4-54 20.1-40.5 26.9-89.2 54.4-125.8 7.4-9.9 20.7 0.7 15 10.8z"  fill="#fff" /><path d="M-301.8-397.5c-8.1 70.3-61.2 125.7-70.5 196.9-2.3 17.2-8.7 97.4-22.4 105.5-11 6.5-17.6-13.6-4.8-14.9 12.7-1.3 10.2 19.7-1.9 15.6-11.2-3.9 11.2-67.5 12.7-79.6 9.9-79.4 24.2-107.8 57.2-179.1 6.4-13.9 8.8-38.4 17.6-49.7 4.6-6 12.5-1.1 12.1 5.3z"  fill="#fff" /><path d="M-289.9-39.9c-2 33.5 6.7 64.3 24 92.8 2.5 4.2 14.5 17.2 12.6 21.8-1.8 4.4-8.3-0.1-4.8-3.3 3.5-3.2 7.5 3.6 2.9 5-5.9 1.9-16.3-20.8-18.9-24.8-17.1-27.4-27.2-56.1-27.9-88.6-0.2-9.1 11-13.2 12.1-2.9z"  fill="#005bbb" /><path d="M-281.1 43.3c2.3 4.4 21.8 29.5 16.8 32.5-3.3 2-6.3-3.4-2.7-5 3.5-1.7 5.9 4.1 2.2 5.3-5.1 1.8-22.3-26.3-22.6-31-0.2-3.7 4.3-4.4 6.3-1.8z"  fill="#005bbb" /><path d="M-264.8-334.5c-37.8 45.1-81.2 77.1-95.9 137.2-3.2 13-21.3 128.9-42.1 117-9.9-5.7-0.1-20.9 9.1-14.1 9.3 6.8-2.2 20.8-10.6 13-9.1-8.3 12.2-41.6 15.1-51.4 22.8-77.1 17.5-119.5 78-182.1 10.4-10.7 21.4-25.7 33.7-34.1 9.8-6.7 18.8 5.9 12.7 14.5z"  fill="#fff" /><path d="M-257 36.3c2.7 5.3 25.2 37 19.3 40.1-3.9 2-6.8-4.4-2.7-5.9 4.1-1.6 6.3 5.1 2.1 6.2-5.2 1.4-25-33.4-25.2-38.6-0.1-3.8 4.6-4.4 6.5-1.8z"  fill="#fff" /><path d="M-239.5-397.2c-6.3 72.1-91.9 110.3-115.5 176.9-5.2 14.6-27.7 150.7-47.9 139.2-8.5-4.8-2.7-18.2 6.6-15.4 10.9 3.4 4.7 20.3-5.8 15.8-13.3-5.7 10.6-45.7 13.3-55.5 12.4-44.5 13.8-90.8 37.8-131.5 22.8-38.6 60.6-64.5 84.8-101.7 6.4-9.8 7.8-24.8 14.6-33.3 4.7-5.9 12.5-1 12.1 5.5z"  fill="#fff500" /><path d=""  fill="#fff" /><path d=""  fill="#005bbb" /><path d=""  fill="#005bbb" /><path d=""  fill="#fff" /><path d="M-180.6-321.9c-30.1 67.2-113 85.2-145.9 151.4-7.5 15-56.6 157.2-77.3 142.1-8.4-6.2-0.6-19.7 8.9-15.5 11.2 4.9 2.4 22.1-8.1 16-14.2-8.2 15.5-42 20.3-51 24.4-45.1 33.3-98.5 65.3-139.5 24.6-31.6 60.1-49.4 90.1-74.8 8.9-7.6 29.6-38.3 36.4-40.8 7.8-2.8 13 5.3 10.3 12.1z"  fill="#c2e1ff" /><path d="M-169.3-354.7c-8.8 89.1-113.9 110.2-152.3 180.9-8.4 15.5-61.7 165.5-82.3 150.6-9.9-7.1 2.2-22 11.2-13.9 7.7 7-1.4 19.6-10.4 14.4-13.7-7.8 26.8-62.9 32.2-74.6 20-43.4 30.5-91.5 63.3-127.9 30.8-34.3 76-52.4 104.3-89.1 10.5-13.6 12.2-33.7 21.9-45.9 4.7-5.9 12.5-1 12.1 5.5z"  fill="#fff500" /><path d="M-143.3-399.8c20.4 36.9 26.5 79 22.6 120.6-7.1 73.5-56.1 130.4-70.9 201.3-4.3 20.5-5.2 41.6-2.5 62.4 0.5 4.1 9.2 27.9-1.5 26.4-7.4-1-3.2-12.7 3.2-8.6 5.4 3.4-0.5 11.7-5.5 7.6-7.4-5.9-7.7-30.2-8.6-38.9-9-85.3 47.9-147.6 67.6-225.9 8.5-33.7 10.3-70.2 2.5-104.2-2.6-11.4-13.9-28.1-13.6-39.2 0.1-3.9 4.9-4.4 6.7-1.5z"  fill="#fff" /><path d="M-144.5-144.1c-24.8 46.7-41.9 94.6-31.8 148.1 3.6 19.4 10.2 37.9 16.3 56.6 1 3.1 8.3 18.5-1.4 17.4-5.4-0.6-5.3-8.6 0-9.2 5.4-0.6 7.1 7.3 2 9-9 3-16.1-36.1-18.1-42.2-14.6-45-19.1-89.9-4.5-135.5 5.2-16.4 12.1-40.6 23.6-53.7 6.8-7.8 17.1 0.9 13.9 9.5z"  fill="#fff500" /><path d=""  fill="#fff" /><path d="M-123.6 31.7c1.8 6.8 18.4 44.1 9.3 46.3-6 1.4-7.7-8.2-1.6-8.9 6.1-0.8 6.8 9 0.6 9-6.7 0.1-18.5-40-17.2-46 1-5 7.2-4.4 8.9-0.4z"  fill="#005bbb" /><path d="M-108.4-74.1c-18.5 31.4-21.9 67.4-13.4 102.5 2.5 10.1 16.8 37.2 13.4 46.4-2.9 7.9-13.7-1.9-6.2-5.7 6.4-3.1 9.2 8.4 2 8.6-8.3 0.2-14.4-34.3-16.4-41-12-39-13-78 4.2-115.7 5.1-11.3 21-7.5 16.4 4.9z"  fill="#fff" /><path d="M-97.8-271.6c-1.4 85.1-71.2 145.5-78.3 228.4-2.8 32.2 5 63 14.9 93.3 1.3 3.9 13.6 29.1 2 27.8-5.4-0.6-5.3-8.7 0-9.3 6.3-0.7 6.8 9.3 0.5 9.3-8.1 0-11.9-28.6-13.9-34.7-36.9-113.1 0.9-149.1 44.7-247.5 10.2-23 10.8-46.3 17.9-69.6 2.3-7.3 11.8-4.5 12.2 2.3z"  fill="#005bbb" /><path d="M-84.5-84.6c-23.6 29.7-33.4 66.2-26.2 103.5 1.5 7.8 21.3 59.6 12.5 59.1-5.9-0.3-4.9-9.5 0.9-8.6 6.8 1.1 2.6 11.7-3.1 7.9-5-3.4-6.6-16.4-8.5-21.7-18.4-50.8-25-104.6 9.4-151 7.3-9.9 20.7 0.5 15 10.8z"  fill="#005bbb" /><path d="M-73.2-26.1c-8.5 37.4 23.4 92.9 21.7 100.4-1.3 5.9-10.3 1.7-6.7-3.2 4.3-5.6 10.6 4.9 3.6 6.1-6.9 1.1-12.5-20.3-14.6-24.7-11.7-25.2-21-52.2-17.6-80.4 1.1-9 13.6-6.7 13.6 1.8z"  fill="#fff" /><path d=""  fill="#fff" /><path d="M-48.5-45.2c-12.8 26.7-10.7 56 0 83 1.9 4.8 21.9 38.2 13.1 39-5.7 0.5-4.5-9 0.9-7 5.4 2 0.3 10-3.8 5.9-25-24.9-37.3-93.9-25.2-126.5 3.7-9.9 17.3-4 15 5.6z"  fill="#c2e1ff" /><path d="M-37-145.6c-39.5 37.4-83.2 75.4-85 134.1-0.5 17.2 20.3 81.1 18.4 86.4-2.8 7.8-13.6-1.8-6.2-5.5 7.4-3.7 8.6 10.6 0.7 8.2-7.6-2.3-12.9-32.8-15.1-40-24.5-77.4 7.3-136 63.2-188.7 16.3-15.4 39.2-12.7 24 5.5z"  fill="#fff" /><path d=""  fill="#005bbb" /><path d=""  fill="#005bbb" /><path d="M4-400.1c38.5 65.8 1 157.6-39.9 213.3-26.5 36.2-62.3 65.6-84.5 104.9-9.3 16.4-15.7 34.4-18.1 53.1-0.6 5.1 2.9 30.7-8.4 26.9-7.3-2.4-2.8-13.7 4.2-10.5 7 3.2 1.3 14-5.3 10-9.3-5.6-2.6-37.8-1-46.5 14.6-80 92.1-125.4 127.5-194.8 17-33.2 30.1-72.6 28.9-110.4-0.5-14.8-10.6-31.2-10.2-44.6 0.1-3.9 4.9-4.3 6.8-1.4z"  fill="#c2e1ff" /><path d="M7.7 37.4c2.2 5.8 20.7 36.4 13.7 39.3-4.7 1.9-7.3-5.6-2.5-7 4.8-1.4 6.6 6.4 1.7 7.2-6.2 1.1-21-32.9-20.6-38.2 0.4-4.4 5.7-4.5 7.7-1.3z"  fill="#c2e1ff" /><path d="M23.2-294.7c-35.4 121-128.4 162.3-154 243.1-9.7 30.6-6.7 62 2.1 92.4 1 3.4 16.7 43.1 3.4 37-4.9-2.2-2.3-9.9 2.9-8.7 5.2 1.1 4.4 9.1-0.9 9.1-8.3 0-13.7-34-15.7-40.7-38.1-127 49.8-167.2 110.5-258.3 10.5-15.7 33.4-75.8 39.2-81.6 6-5.9 13.9 0.6 12.5 7.7z"  fill="#c2e1ff" /><path d="M34.5-21.5c-4.4 26.8 20.1 94.5 19.5 96.3-1.9 6.3-11.5 1-7.1-3.9 5.1-5.8 11.2 6.2 3.5 6.9-7 0.6-32.2-52.7-28.9-100.3 0.6-8.6 12.7-7.1 13 1z"  fill="#c2e1ff" /><path d="M45.4 2.3c0.6 10.1 21 74.1 15.6 75.6-5.7 1.6-7.7-7.6-1.8-8.5 5.8-0.9 6.8 8.3 0.9 8.6-9.5 0.5-26.7-65.6-25.5-75.6 0.8-6.6 9.4-5.8 10.8-0.1z"  fill="#c2e1ff" /><path d="M71.3-398.6c3.6 69.4-48.3 165.2-91.8 217.4-22.3 26.8-49 49.5-71.4 76.1-6.7 8-27.1 51.1-38.1 45.8-11.4-5.5 1.5-22.1 9.7-12.2 9.5 11.5-15.2 19.4-14.2 4.5 3.3-48.2 99.6-121.2 127.6-163.7 24.7-37.5 46.1-81.2 58.9-124.4 3.9-13.3 1.9-34.9 8.1-46.4 3.1-5.8 10.6-2.8 11.2 2.9z"  fill="#005bbb" /><path d="M71.5-153.5c-30.9 43.6-89.6 86.5-92.6 143.6-1.3 24.9 8.5 48 19.6 69.8 0.5 1 12.1 19.3 2.1 16.9-4.7-1.1-2.6-8.5 2-6.8 4.6 1.6 1.6 8.7-2.7 6.6-5.2-2.5-8.6-15.3-11.1-20.1-18.1-35.3-29.7-72.3-14.2-111 7.2-18.1 71.3-105.9 85.3-112.8 9.2-4.5 15.8 6.1 11.6 13.8z"  fill="#005bbb" /><path d="M83.5-151.8c-28.6 42.3-79.8 86.2-83.7 140-1.6 23 6.1 44.8 15.7 65.4 0.7 1.5 15.5 26.2 4.3 23.3-5.7-1.5-1.2-10.2 3.4-6.5 3.9 3.2-1.5 9.1-5.1 5.5-25.5-26.4-36-95.2-23.5-128.9 6.6-18 63.6-105 77.2-112.1 8.9-4.7 15.8 5.6 11.7 13.3z"  fill="#fff500" /><path d=""  fill="#fff500" /><path d=""  fill="#fff500" /><path d="M119.5-275.7c-29.4 41.4-54 86.7-88.2 124.4-34.1 37.6-86.9 67.7-102 118.8-13.1 44.5 22.6 95.4 20.1 106.7-1.5 6.9-11.6 0-5.8-4 6.8-4.6 7.7 10.3 0.3 6.5-5.3-2.8-8.6-16.6-11-21.8-18.3-38.9-27.5-79.7-7.7-120.1 23.6-48 73.7-76.9 107.4-117.2 23.9-28.6 48.4-83.7 73.4-105.5 8.4-7.4 18.2 3.4 13.5 12.2z"  fill="#fff" /><path d="M130.4-396c-19.8 64.8-89.3 174.2-135.5 224.2-25.9 28-57.1 50.9-81.4 80.4-10.8 13.1-19.9 27.8-25.5 43.8-2.4 6.8-2.3 23.7-9 27.2-9.2 4.8-13.7-11.8-3.4-12.3 12.2-0.6 5.3 19.4-3.9 11.5-17.1-14.7 20.5-73.4 30-85.7 31.9-41.3 76.3-70.7 107.9-112.4 32.7-43.2 63-92.5 88.3-140.5 7.1-13.4 10.8-30.2 18.8-42.8 5-7.9 15.4-1.5 13.7 6.6z"  fill="#005bbb" /><path d="M127.3-395.9c-24.2 83.4-106.9 201.1-170.8 260-8.5 7.8-40.2 44-47.7 46-14.5 3.7-15.3-21.2-0.6-18.4 14.7 2.7 5 25.6-7.2 16.9-13.6-9.6 12.3-30.8 18.5-37.2 30.6-31.6 64.9-58.6 91.2-94.3 29.3-39.7 55.6-84 79.5-127.2 5.4-9.7 18.3-55.2 29.5-55.7 5.7-0.3 8.5 4.9 7.6 9.9z"  fill="#c2e1ff" /><path d=""  fill="#fff500" /><path d="M166.4 0.4c-1.1 10.7 4.1 79.3-6.2 79-8-0.2-6.9-12.8 1-11.7 7.9 1.1 5.5 13.5-2.3 11.5-8.9-2.2-9.8-73.8-4.4-82.6 3.7-6 11.5-2.3 11.9 3.8z"  fill="#005bbb" /><path d="M179.5-299.6c-31.6 56.7-69.5 113-107.3 165.7-23.6 33-57.4 65.2-67.8 105.5-10.6 41.2 23.9 93 21.9 102.8-1.5 6.8-11.5 0.1-5.8-3.9 6.8-4.6 7.7 10.2 0.4 6.4-8.2-4.3-15.5-30.7-19.1-39.1-34.6-82.3 23.5-136.2 67.5-199.3 33.3-47.8 63-98.2 95.2-146.9 6.3-9.6 19.4-1.4 15 8.8z"  fill="#fff" /><path d=""  fill="#fff500" /><path d="M201.8 12.7c0.2 9.1 10.3 65.3 0.4 66.1-7.2 0.5-7.5-10.9-0.2-10.7 7.3 0.3 6.2 11.7-0.9 10.6-8.9-1.3-14-60.5-10.4-68.2 2.7-5.8 10.1-3.3 11.1 2.2z"  fill="#005bbb" /><path d="M214.9-134.2c-39 33-72.2 74.9-78.9 127-3 24 6.8 62 1 82.3-0.9 3.1-4.3 4.9-7.4 3.9-7.4-2.5-2.8-14 4.3-10.6 8.3 3.9-1 15.9-6.8 8.9-5-5.9-2.4-22.8-2.9-30.1-3.4-51.6-0.1-98.8 29.3-143.2 11.8-17.9 30.3-45 49.7-55.2 11.3-5.9 19.2 8.6 11.7 17z"  fill="#fff" /><path d="M226.6-160.7c-47.8 37.4-95.8 83.8-105 146.9-2.3 15.6 5.6 84.7 2.1 90.2-5.6 8.8-16.1-5.9-6.1-8.4 10.1-2.5 7.7 15.4-1.4 10.2-7.8-4.4-5.7-34.9-6.5-43.1-7.9-83.5 26.6-147.8 89.8-201.1 24.5-20.7 40.9-8.6 27.1 5.3z"  fill="#fff500" /><path d="M238.6-176.7c-51.3 41.6-108 86.6-121 155.6-3.4 18.1 5.9 90.8 1.9 97.1-5.4 8.7-16-5.6-6.1-8.2 9.9-2.6 7.8 15.1-1.2 10.1-8.2-4.5-6.4-36.6-7.3-45-8.3-79 23.7-142.1 81.9-194.5 11.9-10.7 26.2-26.4 40.8-33 11.8-5.4 19.1 9.7 11 17.9z"  fill="#c2e1ff" /><path d="M251.1-72.3c-12.1 38.9-2.9 78.3 13.2 114.6 2.6 5.8 17.3 27.2 14.3 32.7-2.6 4.9-9.7-1.1-5.2-4.5 4.5-3.3 8.3 5.1 2.9 6.2-8.5 1.8-50.9-87.7-41-144.1 2-11.3 17.7-20.6 15.8-4.9z"  fill="#fff" /><path d="M263.4-233.5c-46.2 71.1-128.6 96.1-158.8 193.3-7.3 23.6-7.6 47.9-4.4 72.2 1.3 9.8 10.7 35.1 5.9 43.8-4.7 8.6-15.5-4.6-6.2-7.5 9.3-3 8.1 14-0.7 9.7-9.9-4.8-11-54.1-12-64.9-4.6-47.6 10.6-90.1 37.3-128.9 13.3-19.3 113.9-124.9 127.5-131.5 9.2-4.4 15.7 6.1 11.4 13.8z"  fill="#c2e1ff" /><path d="M275-189.7c-50.2 52.3-118.5 85.1-138.9 160.5-6.2 23.1-0.1 100.7-3.4 105.6-5.9 8.8-16.3-6.4-6-8.8 10.4-2.3 7.4 15.9-1.6 10.5-8.2-4.9-5.2-39.9-5.8-48.9-5.4-89.7 39.7-150.6 107.2-204.5 11.8-9.4 23.5-22.9 36.4-30.4 10.7-6.2 19 7.5 12.1 16z"  fill="#005bbb" /><path d="M287.3-167.5c-39.4 46.1-88.7 84.2-101.2 147-5.2 26.1-3.9 52.9-2.6 79.3 0.2 4.2 3.9 23.4-6.8 19.7-6.3-2.2-4.1-11.9 2.5-11.1 7.8 0.9 5.7 13-1.9 11.3-10.1-2.3-6.3-39.8-6.6-47.7-1.8-47.5 5.5-91.8 32.3-132 17.8-26.7 45-62.8 71.5-81 9.8-6.7 18.8 5.8 12.8 14.5z"  fill="#c2e1ff" /><path d="M298.4-367.6c-5.6 47.8 9.9 94-17.1 138-37.2 60.6-110.3 88.9-148.9 156.4-10.3 17.9-17.7 37.4-20.6 57.9-1.3 9.4 2.9 30.3-2.1 38-5.7 8.7-16.2-6.1-6-8.6 10.2-2.4 7.5 15.6-1.5 10.3-8.1-4.7-4-31.9-3.5-39.7 8.5-123.7 114.6-150 168.6-225.9 37.4-52.6 5.9-88.9 18.6-128.7 2.4-7.5 12.1-4.6 12.5 2.3z"  fill="#fff500" /><path d="M310.8-390.9c-11.6 50.2 15.8 100.5-1.1 150.3-23.1 68-100.6 97.8-141.7 153-13.4 17.9-24 38-29.7 59.6-1.5 5.8-1.5 36.5-13.7 30.6-6.6-3.2-2.9-13.6 4.3-11.9 8.4 2 4.5 15.1-3.6 12.2-8-2.9-3.3-18.9-2.6-24.4 16-114.7 110.5-129.9 163.3-209 34.6-51.9 2.1-106.6 11.2-162.6 1.5-9.1 14-6.4 13.6 2.2z"  fill="#fff500" /><path d="M320.5-91.3c11.1 61.3 85.1 76.6 92.1 146.5 0.6 5.6 4 19.7-2 23.6-8.1 5.3-13.8-9.8-4.2-11.2 11.3-1.6 6.6 17.6-2.6 11.1-7.7-5.5-4.7-47.3-9-58.8-13.5-36-49.3-53.3-70.6-83.5-20.5-29.2-7.9-37.6-3.7-27.7z"  fill="#fff" /><path d="M335.2-163.9c-10.6 32.4-15.6 66.9 4.5 97 27.9 41.8 73.9 59.6 79.1 115.3 0.7 7.6 2.8 20.3-0.1 27.5-3.8 9.3-17.5-0.1-10.2-7 7.3-6.9 15.8 7.4 6.3 10.6-15 5-2.7-45.5-17.7-75.4-22.2-44-75.5-61.8-82.6-115.1-2.2-16.8-1.8-43.7 7-58.8 4.7-7.9 15.1-2.1 13.7 5.9z"  fill="#fff" /><path d="M346.7-158.1c-4.4 23.1-3.6 46.9 7.9 67.9 30.8 56 83.4 64.5 79.8 141.2-0.3 6.6 1.3 24.7-6 28.2-8.2 4-13.9-9.3-5.3-12.4 8.6-3.1 12.8 10.7 3.9 12.9-14.9 3.6-1.3-55.3-9.1-80.2-14.1-44.6-62.9-63.9-79.4-106.9-5.5-14.5-10.7-39-4.8-54.1 3-7.7 13.1-3.9 13 3.4z"  fill="#c2e1ff" /><path d="M358.7-178c-4.4 24.8-6.2 50.4 4.7 73.9 29.3 63 86.3 65.5 78.3 152.8-0.7 7.3 0.3 27.3-7.6 30.8-8.6 3.8-13.9-10-5-12.9 9-2.9 12.7 11.5 3.6 13.3-16.2 3.3 1.4-57-5.2-84.1-11.6-47.6-62-68.9-78.3-113.8-5.3-14.7-12.9-51-2.7-65 4.4-6.1 12.4-1.5 12.2 5z"  fill="#fff500" /><path d="M367.9-123.5c20.4 72 91.5 74 79.1 171.2-1 7.7-0.6 28.5-8.8 31.9-12.1 5-12.4-17.7-0.2-13 12.2 4.7-3.2 21.4-8.8 9.6-2.6-5.3 9.4-66.9 4.6-87-8.9-37.9-41.5-59-62.5-89.5-16.3-23.5-8.3-32.7-3.4-23.2z"  fill="#fff500" /><path d="M387.8-400c18 36.8 61.2 52.8 89.4 80.2 31.2 30.2 49.4 70.9 82.7 99.1 11 9.3 22.9 17.3 34.8 25.4 1.8 1.2 6 3.3 4.4 4.7-2.6 2.1-10-6.1-12.2-7.6-43.1-29.7-68.5-64.1-100.4-104.6-26.2-33.1-64.1-49.9-92.8-79.7-18.6-19.3-9.1-21.5-5.9-17.5z"  fill="#fff" /><path d="M389.4-69.4c35.3 36.3 57.8 68.5 52.1 121.4-0.8 7.1-0.1 21.8-5.5 26.7-6.9 6.4-16.4-5.1-8.8-10.7 8.9-6.5 16.3 10.2 5.5 12.4-16.2 3.3 1.3-57.2-4.7-83.6-7.1-30.7-37.5-49.8-41.9-64.2-0.6-2.1 1.8-3.2 3.3-2z"  fill="#c2e1ff" /><path d="M417.4-400c21.8 25.3 53.9 39.5 77.6 63.1 25.7 25.6 41.6 58.7 65.6 85.6 3.6 4.1 39.3 36.4 38.9 36.9-3.6 4.1 3.2-4.5 0-0.1-1.4 2.1-5.4-2.4-5.5-2.5-38.9-30.6-62.2-66.9-92.2-105.3-23.8-30.4-56.7-47.5-84.9-72.7-2.4-2.1-3.4-8 0.5-5z"  fill="#fff500" /><path d="M415.2-135.7c33.4 73.8 81.8 82 56.1 177.2-2.3 8.4-5.4 36.2-15 39.2-9.7 3.1-13.7-12.4-3.8-14.4 9.9-2 12.3 13.8 2.2 14.8-16.3 1.5-2.2-28.6-0.5-34 7.9-26.3 16.1-54 11.1-81.7-6.4-36.1-34-60.5-52.2-90.5-2.5-4.1-3.9-19.2 2.1-10.6z"  fill="#c2e1ff" /><path d="M427.6-255.5c14.7 31.6 20.2 66.6 38.1 96.8 46.4 78.1 101.7 96.9 58 199.7-3.7 8.6-10.9 38-20.7 40.3-14.2 3.4-10.5-21.7 2.1-14.4 12.6 7.3-7.3 23-11.4 9-4.4-14.7 40.5-86 32.3-127.8-9.7-49.2-55.4-80.4-77.3-123.7-11.2-22.3-24.7-53.1-28.6-77.8-0.7-4.7 5.4-5.8 7.5-2.1z"  fill="#fff500" /><path d="M439.8-22.4c8.3 17.8 13.6 101.7-3.5 102.8-9.6 0.6-9.8-14.5-0.1-14 9.6 0.4 8.1 15.4-1.4 14-13.2-2 1.3-47.1 2-56.4 1-14.7-6.7-32.2-4.9-45.6 0.6-4.5 6.1-4.3 7.9-0.8z"  fill="#fff" /><path d=""  fill="#005bbb" /><path d="M463-174.7c42.6 85.3 117.8 101.6 71.4 214.8-3.6 8.8-10.8 38.7-20.6 41.2-14.1 3.5-10.7-21.5 2-14.4 12.6 7.1-7 22.9-11.3 9.1-3.3-10.8 36-85.8 31.8-119.9-5.7-46.2-43.9-76-69.2-111.7-2.9-4.1-10.4-12-10.5-17.3-0.1-3.8 4.5-4.4 6.4-1.8z"  fill="#fff" /><path d="M479.3 52.6c-2.5 7-6.2 32.9-18.2 28.1-9.7-3.8-2.9-18.7 6.3-13.9 7.9 4.1 3 16.5-5.5 14.2-12.2-3.3-0.5-31.7 4.8-36.7 6.3-5.8 14.2 1 12.6 8.3z"  fill="#c2e1ff" /><path d="M487.8-62.4c16.2 34.5 8.9 70.9-3.1 105.3-2.8 8-8.8 42.6-21.8 37.4-8.3-3.3-4.7-16.1 4-14.6 10.3 1.7 6.8 17.7-3.2 14.9-14.6-4 15.9-69.8 18.5-81.7 4.8-21.1-4.4-80.7 5.6-61.3z"  fill="#fff" /><path d="M503.4 57.1c-2.6 6.1-9 32.6-20.5 22.1-6.7-6.1 1.3-17.1 9.2-12.6 7.9 4.5 2.4 17-6.3 14.3-11.7-3.7-0.5-28.5 5.1-33.1 6.9-5.7 14.7 1.9 12.5 9.3z"  fill="#fff" /><path d="M509.4-148.4c57.1 59.4 100.2 95.1 82.1 185.2-1.8 8.8-3.8 39.4-12.9 43.1-12.1 5-12.4-17.8-0.1-13.1 12.2 4.7-3.3 21.5-8.9 9.6-1.3-2.7 17.2-90.7 11.6-117.4-8.9-41.9-39.2-70.2-68.7-98.8-0.3-0.3-9.3-13.4-3.1-8.6z"  fill="#fff" /><path d="M527.4 32.1c-3.7 9.4-14.8 50-26.7 48.9-10.6-1-8.2-17.6 2.3-15.5 12.2 2.5 3.8 21.4-6.2 14-9.9-7.3 13-61.7 25.4-58.2 5 1.4 6.5 6.3 5.2 10.8z"  fill="#fff500" /><path d="M581.1-400c3.6 7.3 28.7 60.8 18.7 63.4-5.7 1.5-7.7-7.6-1.8-8.5 5.9-0.9 6.8 8.4 0.9 8.7-7.3 0.3-9.3-18.3-10.8-22.7-4-12.4-11.8-25.9-14.1-38.7-0.8-4.5 5-5.7 7.1-2.2z"  fill="#fff500" /><path d="M551.2 17.3c-3 10.7-18.8 69.1-32.4 63.5-9.7-4-2.6-18.9 6.6-13.9 9.2 5 0.5 19.1-8.1 13.1-9-6.3 15-69.4 24.5-72.2 6.3-1.9 10.5 4 9.4 9.5z"  fill="#fff500" /><path d="M557.1-126.2c9.7 8.1 46 34.9 44.6 49.2-0.5 5-8.4 2.5-6-1.9 2.5-4.4 8.7 1.3 4.6 4.2-5.5 3.8-17.6-20.5-20.7-24.2-7.3-8.8-18.5-16-24.9-25.2-1.1-1.6 0.9-3.1 2.4-2.1z"  fill="#c2e1ff" /><path d=""  fill="#005bbb" /><path d="M581.7-258.5c2.5 3 20.8 19.1 17.9 21.7-1.8 1.7-4.4-1.3-2.4-2.8 2-1.5 4.2 1.8 2.1 3.1-3.1 1.8-20.6-16.4-21.5-19.9-0.6-2.4 2.2-3.5 3.9-2.1z"  fill="#fff" /><path d=""  fill="#fff500" /><path d=""  fill="#005bbb" /><path d=""  fill="#c2e1ff" /><path d=""  fill="#fff" /><path d=""  fill="#fff" /><path d=""  fill="#005bbb" /><path d=""  fill="#fff500" /><path d=""  fill="#c2e1ff" /><path d=""  fill="#005bbb" /></svg>