<svg width="1200" height="675" viewBox="-500 -500 1200 675" xmlns="http://www.w3.org/2000/svg"><path d="M-500-500h1200v675h-1200z" fill="#000"/><path d=""  fill="#fff500" /><path d=""  fill="#fff" /><path d=""  fill="#005bbb" /><path d=""  fill="#005bbb" /><path d=""  fill="#005bbb" /><path d=""  fill="#c2e1ff" /><path d=""  fill="#005bbb" /><path d=""  fill="#c2e1ff" /><path d=""  fill="#fff500" /><path d=""  fill="#fff" /><path d="M-395.7-398.8c13.5 56 45.2 109.7 48.5 167.5 3.1 53.8-21.1 100.9-34.2 151.6-1.6 6.3-4.7 44.7-9.7 44.6-6.9-0.2-2.1-11.3 2.8-6.4 4.2 4.2-4.1 9.5-6.2 3.9-11.7-32.1 38.2-138.2 39.8-183.4 2.1-60.1-31.1-114.1-45.6-171-1-3.8 1.6-14.6 4.6-6.8z"  fill="#fff500" /><path d=""  fill="#c2e1ff" /><path d=""  fill="#c2e1ff" /><path d=""  fill="#fff500" /><path d="M-390.1 4c9.3 22.5 26 40.7 44 56.6 2.9 2.5 13.8 9.3 14.6 12.7 0.1 0.3-0.1 0.8-0.4 1-1.9 1.3-13.5-10.4-15.5-12.2-14.6-12.6-28.6-26.1-39.2-42.2-12.5-19.1-4.6-17.7-3.5-15.9z"  fill="#fff500" /><path d="M-327.1-399.5c29.9 48.1 73.5 89.5 91.6 144.3 17.5 53.1 4 105-5.3 158.2-0.8 4.7-0.1 23.3-7.7 22-4.8-0.9-4.4-8.2 0.5-8.4 4.9-0.2 6 7.1 1.3 8.3-10.5 2.8-1.8-29-1-33.4 8.1-45 19.6-89.6 9.2-135.3-13-57-55.7-98.8-87-146-0.7-1.1-6.4-15.6-1.6-9.7z"  fill="#fff500" /><path d="M-376.1 49.1c2.6 2.6 28 24.5 27.6 25-1.8 2-4.7-2.7-6.9-4.4-1.8-1.4-27.8-25.8-20.7-20.6z"  fill="#c2e1ff" /><path d="M-367-349c22.6 50.8 49.2 96.1 44.1 153.9-5 56.3-35.4 110.6-26.4 168 4.9 31.5 22.4 57.6 42.6 81.5 3.3 3.9 15.8 14.3 16.1 19.2 0 0.7-0.7 1.5-1.4 1.6-5.4 0.6-24.1-27.2-27.8-31.8-77.3-95.8-8.2-164.1-10-265.8-0.8-43.9-21.1-80.9-39.3-119.6-1.2-2.5-1.8-13.3 2.1-7z"  fill="#c2e1ff" /><path d="M-360.3 32c8.7 11.2 18.8 21.2 29.3 30.8 1.5 1.4 12.8 9.6 10.9 11.4 0 0-0.4 0.3-0.5 0.3-2.4 0.6-7.7-6.3-9.4-7.9-11.4-10.3-41.4-45.2-30.3-34.6z"  fill="#fff" /><path d="M-350.8-262.6c21.4 91.2-45.7 159.3-33.3 239.7 4.8 31.5 24.1 57.1 46.4 78.6 2.1 2.1 19.9 18.4 17.6 18.7-2 0.3 1.8 0.2-0.2 0-7.3-0.7-23.4-21.1-28.7-26.4-83-83.6-21.7-151.4-7-244.7 3.4-21.8-1.7-86.9 5.2-65.9z"  fill="#fff" /><path d="M-344.4-377.1c25.6 44.5 62.8 83.6 74.1 135.1 15.8 71.9-25.6 139-19 210.5 3.3 36 24.4 60.4 28.4 83.2 0.7 4.1-6.3 2.6-4.1-0.8 2.3-3.4 6.3 2.5 2.4 3.4-4.4 1-10.8-16.9-12.5-20.2-50.5-102 7.7-161 0.6-258.4-4.1-56-40.3-97.3-68.8-143-0.8-1.3-5.9-16.1-1.1-9.8z"  fill="#fff500" /><path d="M-333.9-123.8c-12.2 46.2-20.7 93.2 2.5 137.6 9.3 17.9 22.2 33.6 35.1 49 1.3 1.6 11.9 10.8 7.4 12.2-0.1 0-0.8 0.1-0.9 0-6.2-1.5-17.6-20.7-21.8-25.9-24.3-30-42.1-62.8-42.8-102.3-0.3-21.5 1.3-54.8 11.8-74 2.7-5 9.3-1.6 8.7 3.4z"  fill="#005bbb" /><path d="M-327.1-46.2c0.7 35.1 15 65.7 34.8 94.1 3.7 5.3 18.1 19.4 17.9 25.6-0.1 3.4-5.5 1-3.1-1.3 2-2 4.6 2 1.9 3-3.8 1.4-19.1-24.3-21.6-28-19.6-27.8-35.5-58.3-37.3-93-0.2-4.9 6.6-5 7.4-0.4z"  fill="#005bbb" /><path d=""  fill="#005bbb" /><path d="M-261.9-399.3c80.2 117.5 99.6 152.5 72.8 295.3-1.3 7.1-2.9 49-8.7 50.4-7.1 1.7-5.3-10.8 1-7.2 6.4 3.6-3.6 11.5-5.7 4.5-9.8-32.2 25.7-126.7 17.9-178.1-9-59.8-43.9-109.6-77.3-158.3-0.8-1.2-4.3-11.5 0-6.6z"  fill="#c2e1ff" /><path d="M-303.4-88.3c-7.3 41.2-3 80.6 16.6 117.9 4.8 9.2 26.6 34.4 25.7 43.9-0.3 3.2-5.4 1.5-3.8-1.2 1.9-3.3 5.9 1.9 2.3 3-3.4 1-56.5-62.4-51.9-142.3 1.4-23.4 11.6-33.9 11.1-21.3z"  fill="#005bbb" /><path d="M-296.5-34.4c2.3 28.8 13.1 55.3 26.9 80.4 1.9 3.5 18 27.2 14.1 29.2-2.6 1.3-4.4-2.9-1.7-4 2.3-0.9 4 2.5 1.9 3.9-3.2 2-5.5-5.1-6.3-6.5-14-24.6-28.9-49-36.7-76.5-6.7-23.4-0.7-36.7 1.8-26.5z"  fill="#c2e1ff" /><path d="M-288.7-40.3c1.3 33.6 13.9 64.1 29.5 93.4 2 3.7 12.4 17.9 10.5 21.6-1.6 3.1-6.1-0.7-3.3-2.8 2.8-2.1 5.3 3.2 1.8 3.9-4.7 1.1-18.4-30.9-20.8-35.6-10.9-21.3-29.2-56-24.9-80.8 0.8-4.4 6.5-3.5 7.2 0.3z"  fill="#c2e1ff" /><path d="M-280.7-205.9c-0.3 64.7-35.4 125.8-21.1 191.1 5.5 25.3 17.8 47.9 31 69.9 1.4 2.2 14.4 19.3 9.1 20.2-2.8 0.5-3.2-3.9-0.5-4.1 2.8-0.2 2.8 4.2 0.1 4.1-4.1-0.2-10.1-14.9-12.1-18.1-68.4-111.6-24.2-142.6-14.9-254.5 0.3-3.6 7.3-20.9 8.4-8.6z"  fill="#fff" /><path d="M-275.6-342c35.2 46.2 62 94.7 59.9 154.4-1.9 52.8-21.8 103.4-18.2 156.7 2.4 35.5 27.6 86.2 28.4 104.2 0.2 4.9-7.8 2.1-4.6-1.6 3.2-3.7 7.1 3.9 2.2 4.3-5.1 0.5-9.9-20.3-11.4-24.2-48.1-126 0.8-153.1-4.2-263-2.1-45.8-22.7-85.4-49.4-121.6-0.4-0.5-7.5-14.2-2.7-9.2z"  fill="#005bbb" /><path d="M-264.8-141c-10.7 50.4-22.5 99.1-6.1 149.8 2.6 8 27.5 66.8 26.6 66.8-3.1 0.3-3.3-4.7-0.1-4.6 2.7 0.1 3 4.1 0.4 4.6-4.5 0.9-8.1-12.4-9.7-15.6-19.4-38.3-35-76.6-33.6-120.3 0.8-24.7 3-61.3 14-83.7 2.5-5 9-1.9 8.5 3z"  fill="#c2e1ff" /><path d="M-259.6 54.9c1.5 2.8 12.8 18.2 8.4 20.3-2.7 1.3-4.5-3.1-1.7-4.1 2.8-1 4.1 3.6 1.2 4.2-8.5 2-12.9-27.3-7.9-20.4z"  fill="#c2e1ff" /><path d="M-251.2 16.1c2.1 6.7 24.6 58.2 21.3 59.4-3.1 1.2-4.8-3.9-1.5-4.7 2.8-0.7 4.3 3.3 1.8 4.6-4.8 2.4-8.2-12.1-9.3-14.7-4.6-10.3-9.1-20.7-13.3-31.2-1-2.5-3.5-22.7 1-13.4z"  fill="#fff" /><path d="M-242-77.6c-5.2 41.4 1.1 80.8 15.8 119.7 2.5 6.7 14 25.7 12.1 32.3-1.1 4-7.1 0.8-4.5-2.4 3.1-3.7 7 3.7 2.3 4.2-5.2 0.6-14.2-30.4-16.1-35.3-14.5-38-23.3-78.5-17.9-119.3 0.7-5.5 8.3-4.4 8.3 0.8z"  fill="#fff500" /><path d="M-235.6 8.2c1.9 7.6 24.1 67 21.3 68-3.3 1.1-4.8-4.2-1.4-5 3.4-0.8 4.3 4.7 0.8 5.1-5 0.5-8.4-15.9-9.9-19.6-5.5-13.8-16.3-32.6-16.6-47.6-0.1-3.6 4.6-3.9 5.8-0.9z"  fill="#005bbb" /><path d="M-226.8-192.8c-1.1 62.8-27.7 121.8-16 185.2 4.1 22 11.7 43.1 20 63.8 1 2.5 10.8 19.6 4.2 19.6-12.5 0.1 12.4-5.5 1-0.2-5.1 2.4-13.5-26-15-30.1-35.8-91-11.8-136.8-3-226.5 0.3-2.7 7.7-25.8 8.8-11.8z"  fill="#fff" /><path d="M-218.7-121.2c-9.4 48.9-13.2 95.4 1.3 143.8 3.2 10.8 20.8 41.5 17.9 51.6-1.4 4.7-8.1-0.6-3.9-3 3.6-2.1 5.8 4.5 1.6 4.9-5.4 0.5-13.7-30.6-15.6-35.7-19-52.7-21.3-102.9-11.1-157.8 1.1-6.2 10.5-14.1 9.8-3.8z"  fill="#c2e1ff" /><path d="M-213.5-343.1c27.8 47.6 48.7 101.3 44.4 157.4-3.9 51.6-23.9 100.5-20 152.8 3.1 41.4 30.1 85.7 32.1 106.3 0.4 4.6-7.2 2.3-4.4-1.2 2.8-3.6 6.8 3.3 2.3 3.9-4.9 0.7-12-22.6-13.7-26.6-51.2-119.9-2.6-150.8-3.4-259.1-0.3-45.9-17.9-89.8-39.9-129.3-1.5-2.6-0.3-7.9 2.6-4.2z"  fill="#c2e1ff" /><path d="M-190-399.3c23.1 60.5 47.8 135 43.7 200.3-3.2 50.6-25.5 98-25.5 149 0 11.1 10.9 56.6 9.5 61-1.4 4.2-7.7 0.4-4.7-2.8 3.6-3.7 7.3 4.4 2.2 4.7-6.5 0.3-10.7-30.3-11.7-35.4-12-68.3 23.2-129.6 22.9-197-0.2-56.5-20.5-116.5-38.5-169.6-0.6-1.7-2.3-18.9 2.1-10.2z"  fill="#fff500" /><path d="M-196.8-232.5c14 71.8-22.5 141.2-13.6 213.2 3.2 25.6 11.1 50.1 20.2 74.1 1.1 2.9 11.1 21.1 4.2 21-3.1 0-3.5-4.6-0.5-5.2 3.5-0.7 4.3 4.8 0.8 5.2-5.1 0.5-10.3-21.3-11.9-25.5-30.8-81.6-18.1-134.2-6.2-216.8 3.1-21.9 0.9-87.3 7-66z"  fill="#fff500" /><path d="M-188.1-172.5c-6 58.2-25.3 112.3-13 171.3 4.4 20.8 11.5 40.8 19.3 60.7 0.9 2.2 9.2 16.6 2.7 16.5-3 0-3.5-4.5-0.5-5.1 3.5-0.8 4.3 4.8 0.8 5.1-5.1 0.5-11.2-23.1-12.8-27.3-30.6-79.9-18.6-132.5-6.1-213.4 0.7-4.4 9.7-20.5 9.6-7.8z"  fill="#c2e1ff" /><path d="M-181.9-384.8c18.2 57.7 40.4 123.6 36.7 184.6-3.1 51.8-26.4 100.1-25.8 152.3 0.3 29.1 7.8 57.2 19.8 83.6 1.4 3.1 14.6 24.7 9.3 25.3-3 0.3-3.3-4.4-0.2-4.4 3 0 2.8 4.7-0.3 4.4-3.8-0.4-7.1-11.2-8.6-14.2-58.1-113.6-2.6-157.4-1.5-264.1 0.5-53.8-18.2-109.5-33.3-160.6-0.9-3.2 0.6-14.4 3.9-6.9z"  fill="#fff" /><path d="M-169.7-398.9c13.2 62 33.8 132.7 29.9 196.3-3.3 52.9-28.1 102-27.3 155.4 0.3 21.1 4.5 41.9 11.7 61.7 0.9 2.4 10.1 18.4 4.1 18.7-11.7 0.6 11.4-5.7 1-0.3-13.3 6.9-24.7-94.1-24-103.9 3.4-49.5 25.6-95.7 27.1-145.5 1.7-57.9-16.9-119.1-27.7-175.7-0.7-3.9 2.5-14.8 5.2-6.7z"  fill="#005bbb" /><path d="M-166.4-306.8c41.9 142.4-17 165.9-6.7 275.2 2.7 29 12.6 56.4 25.4 82.3 1.5 3 15.2 24.6 9.7 25.2-3 0.3-3.3-4.4-0.2-4.4 3 0 2.8 4.7-0.3 4.4-4.1-0.4-8.5-13.8-10.2-17.1-63.8-122.1-15.4-148.5-8.2-263.3 1-15.3-15.1-102.4-15-102.8 1.2-2.6 4.5-1.8 5.5 0.5z"  fill="#c2e1ff" /><path d="M-158.2-350.5c7.7 50.6 23.9 101.8 19.2 153.3-5.1 56-32 107.8-26.3 165.1 2.9 29 13.3 56.2 27.1 81.7 1.7 3.2 16.5 24.9 11.5 25.7-2.8 0.4-3.2-4-0.5-4.1 2.8-0.1 2.8 4.3 0 4.2-4-0.2-9.6-14.3-11.5-17.8-69.5-120.7-14.2-154.2-7.5-268.8 1.7-29.7-23.2-126-18.5-139.9 1.2-3.5 5.6-2.5 6.5 0.6z"  fill="#fff500" /><path d="M-150.5-31.5c3.7 30.9 16.9 59.1 34 84.7 2.2 3.4 15 17.2 13.7 20.8-0.9 2.6-4.9 0.2-2.9-1.9 2-2 4.5 1.9 1.8 2.9-4.3 1.6-20.7-27.1-23.2-31-12.2-19.2-32.2-51.4-30.1-75.3 0.4-4.1 5.7-3.7 6.7-0.2z"  fill="#c2e1ff" /><path d="M-137.4-398.4c-5.6 62.4 10.2 121.8 8.1 183.7-1.6 44.6-20 85.4-27.5 128.9-1.1 6.5-1.4 47.1-6.6 47.1-6.7 0-2.5-10.9 2.5-6.2 4.2 3.9-3.7 9.3-5.8 4-14.6-36.1 22-118.4 27.6-157.8 7.6-52.7-8.7-104.8-8.7-157.4 0-13.1-1.9-31.4 2.4-43.9 1.6-4.8 7.9-2.8 8 1.6z"  fill="#c2e1ff" /><path d="M-134.6-54.1c-0.6 35.8 13.1 68.9 34.3 97.2 2.8 3.7 26 31.4 24.5 32-5.4 2 5.3-2.6 0.2-0.1-3.1 1.5-18.4-19.1-20.8-22-22.2-26.3-39.8-56.3-44.5-91-2.2-16 4.7-27.2 6.3-16.1z"  fill="#005bbb" /><path d="M-129 69.9c0.7 1.2 3.2 6.2-0.8 5.5-10-1.8 10.8-2.6 0.9 0-5.9 1.5-3.8-10.4-0.1-5.5z"  fill="#fff500" /><path d=""  fill="#005bbb" /><path d="M-121.2-397.1c-15.6 63.6 1.2 122.5-3 186.1-3.5 50.9-28.3 97.2-31.7 148.1-1.2 18.7 0.5 37.6 5.3 55.7 0.7 2.8 9.1 19.9 2.8 19.9-3 0-3.5-4.5-0.5-5.2 3.5-0.7 4.3 4.8 0.8 5.2-16.5 1.6-16.3-82.7-15.1-93.2 4.6-39.4 21-75.9 27.9-114.8 9.2-52.7-6.6-105-2.7-157.8 1-13.9 1.2-34.5 7.6-47.1 2.6-5 9.1-1.8 8.6 3.1z"  fill="#fff500" /><path d=""  fill="#005bbb" /><path d="M-96.2-54.1c-0.7 37.9 19.3 69.7 45.4 95.6 9.2 9.2 27.8 20.1 33.5 31.6 0.3 0.5 0 1.3-0.4 1.6-2.4 1.4-24.8-22.1-27.9-25-25.1-23.4-48.3-49.6-55.7-84.2-3.8-17.7 3-33.1 5.1-19.6z"  fill="#fff500" /><path d="M-87.5-147.8c-22.5 48.5-40.7 98.9-15.7 150.5 11.3 23.3 29.2 42.2 47.6 60.1 1.8 1.8 10.9 8.4 10.4 10.8-0.1 0.5-0.5 0.9-1 1-6.3 1.2-32.5-31.4-37.1-36.7-27.3-30.6-43.6-68.4-39.7-109.9 1.5-16.2 14.9-72.6 27.5-82.2 4.6-3.5 9.6 1.6 8 6.4z"  fill="#c2e1ff" /><path d="M-80.7-259.9c-2 88.1-60.1 161.9-46.4 233.6 5.9 31.1 23 57.7 43.7 81.1 1.8 2 19 19.8 15.4 20-5.5 0.3 5.6-0.9 0.2-0.1-5.1 0.8-23.1-24.1-26.7-28.2-90.1-105.9-12.1-164.8 3.3-271.2 1.4-9.8-1.5-28.9 3.2-37.2 2.1-3.8 7-1.7 7.3 2z"  fill="#fff500" /><path d=""  fill="#005bbb" /><path d="M-65.1-232.5c-6.2 72-66.6 133.2-50 207.7 7.2 32.2 27.2 58.2 50 81.2 1.9 1.9 19 17.8 15.5 18.2-6 0.5 5.8-3.1 0.5-0.2-2.1 1.2-4-2.7-5.7-4.4-39-38.8-74.5-79.2-70.6-138 3.1-46.4 29.7-84.8 43.8-127.9 4-12.4 4.1-26.6 8.4-38.6 1.8-4.8 8.1-2.6 8.1 2z"  fill="#c2e1ff" /><path d=""  fill="#fff500" /><path d=""  fill="#fff" /><path d="M-41.7-330c-11.3 43.7-0.9 89.5-13.1 133.1-15.8 56.6-61 104.3-48.8 166.8 6.8 34.9 29.7 61.7 54.9 85.5 2.2 2.1 20.8 19.3 17.8 19.5-2.3 0.2 2 0.3-0.2 0-7.3-0.9-23.4-21.8-29-27.1-105.8-102.3-30.5-151.6-2-253.7 10.4-37.3 3.6-75.9 9.2-113.7 0.6-4.1 0.7-9.7 2.6-13.5 2.5-5 9.1-1.9 8.6 3.1z"  fill="#fff500" /><path d="M-33.6-378.3c-35.8 60.8-20.2 113.9-36 177.4-13.2 53-50.8 98.6-47.8 155.4 1.3 25.6 10.9 49.8 25.7 70.5 3.6 5 17.6 16.8 18.2 22.4 0.1 0.7-0.8 1.6-1.5 1.5-9.2-1.5-24.4-28.2-29.2-35.8-50.8-81.6 9.9-147.1 28-226 12.7-55.6 1.6-109.8 28.6-162.8 3.6-7.1 19.3-15.7 14-2.6z"  fill="#fff" /><path d="M-26-360.2c-21.8 51.8-6.7 105-19.4 158-13.8 57.3-62.1 103.9-52.8 166.4 4.3 29.1 20.6 53.8 40.7 74.5 4.1 4.2 19.7 14.8 20.7 20.1 0.1 0.6-0.6 1.4-1.2 1.3-10.8-1-32.9-31.4-39.5-39.7-71.8-89.9 6.8-148.8 25.4-234.5 9.9-45.7-1.8-92.4 12.5-137.9 1.2-3.9 2.4-12.4 6.5-14.5 4.5-2.3 8.2 2.2 7.1 6.3z"  fill="#c2e1ff" /><path d="M-18.3-107.8c-19.5 39.5-19.6 79.5 6.3 116.2 12.1 17.2 48.6 46.9 54 64.5 1 3.2-4.8 2.7-3.3-0.3 1.5-3 5.4 1.3 2.2 2.5-5.8 2.1-82.1-86.5-81.8-134.7 0.1-15.8 3.4-40.9 13.7-53.7 4-5.1 10.7 0.1 8.9 5.5z"  fill="#fff500" /><path d="M-12-287.5c4.4 37.8 13.3 73.6 0.2 110.9-17.1 48.7-59.8 89.5-47.2 145.2 8.7 38.3 39.5 63.9 65.9 90.5 2.4 2.4 14.1 11.9 13.3 15-0.1 0.5-0.7 1-1.3 1.1-5.8 0.7-34.7-35-40.2-40.4-109.8-109.7-4.3-146.8 8.4-246.3 3.3-25.7-8.6-51.3-5.9-75.9 0.5-4.2 5.9-3.7 6.8-0.1z"  fill="#fff500" /><path d="M-3.9-320.2c0.2 45.2 23.4 87.6 14.4 133.3-10.8 54.4-62 97.3-47.5 156.4 9.3 37.9 40.6 63.5 65 91.8 1.9 2.2 10.2 9.5 9.2 12.5-1 3-5.3-0.6-2.4-2.1 2.4-1.3 3.6 3.1 0.9 3.3-5.8 0.3-31.9-36-37.2-41.7-108.9-117.5 4.1-145.1 6.5-248 0.8-32.8-12.5-63.8-15.7-96.1-0.5-5.1 5-20.3 6.8-9.3z"  fill="#fff" /><path d="M3.1-295.7c7.5 40.6 25 78 14.2 119.9-12.6 49.2-55.7 89.6-43.3 143.9 9 39.1 41.4 65.7 65.1 96 0 0 10 13.6 3.7 10.8-8.2-3.7 9.8 0.1 0.8 0.2-5.8 0.1-30.2-36.6-35.3-42.5-102.8-117.2-0.1-137.6 5-239.7 1.5-30.3-10.7-58.1-16.4-87.2-0.8-4.1 5-5.1 6.2-1.4z"  fill="#c2e1ff" /><path d="M12.3-378.6c-23.4 72 21.9 119.3 16.2 186.5-4.5 54-52.8 96.4-45 152.3 3.9 28.1 20.9 51.2 38.4 72.5 2.5 3.1 11.7 11.1 11.8 14.9 0 0.7-0.7 1.6-1.5 1.6-5.5 0.5-24-28.2-27.6-33-71.3-93.7 6.3-126.5 15.9-212.5 5.3-46.7-22.9-88.8-24.2-135-0.4-14.7-0.5-38 7.2-51.1 3-5.1 9.6-1.4 8.8 3.8z"  fill="#c2e1ff" /><path d=""  fill="#005bbb" /><path d="M27.1-200.7c-0.8 62-61.9 110-43.4 174 11.2 38.7 61.4 75.5 67.6 99.8 0.9 3.5-5.4 2.7-3.7-0.5 2.1-3.8 6 3 1.7 3-5.4-0.1-78.3-91.6-76.9-137.7 1.2-38.9 25.4-69.7 38.7-104.8 4.4-11.6 4.5-23.8 8.2-35.3 1.5-4.7 7.6-2.9 7.8 1.5z"  fill="#fff500" /><path d=""  fill="#005bbb" /><path d="M42.7-386.5c-11.9 79.8 54.4 108.7 66.7 176.6 10.9 60.3-39.6 109.7-38.6 169.3 0.3 16.2 22.6 78.1 21 83.2-1.2 4.1-7.4 0.6-4.5-2.6 3.3-3.7 7.2 4 2.2 4.5-5.1 0.4-9.9-20.9-11.4-25-42.8-116.3 22.2-126.1 25-215.4 1.7-54.6-48.2-89-63.8-138-4.7-14.8-10.5-39.4-4.8-54.6 1.8-4.9 8.2-2.7 8.2 2z"  fill="#fff" /><path d="M48.3-258c53.8 107.4-26.2 135.6-12 223.7 5.7 35.7 46.4 81.6 47.9 107.4 0.3 4.8-7.6 2.2-4.5-1.5 3.1-3.7 7.1 3.7 2.3 4.2-4.5 0.5-15.8-30.1-18.4-34.7-20.5-38-42-74.4-34.7-119.3 6-36.6 28.1-68.7 31.7-105.9 1.7-17.6-1.4-35-7.6-51.5-1.5-4.1-11-18.7-8.9-22.5 1-1.8 3.2-1.4 4.2 0.1z"  fill="#fff" /><path d="M42.6-397.5c-21 92.2 46.7 112.8 61.7 187 10.5 51.9-25.8 94.8-34.5 143.7-1.2 6.6 0.3 50.2-2.4 50.6-5 0.7-4.4-7.6 0.4-6.2 4.1 1.2 1.8 7.6-2.1 6-6-2.6-5.4-25.3-5.6-30.9-1.3-52.6 36-94.6 38.3-145.9 2.5-56.9-50.7-93.1-63.8-145.4-4.3-17-8.2-45.1-0.5-61.7 2.3-5 8.9-2.1 8.5 2.8z"  fill="#c2e1ff" /><path d="M63.3-266.1c66.9 108.3-16.1 135.1-5.5 231.6 3.7 33.7 38.4 83.3 38.2 108-0.1 5.2-8.5 1.8-4.9-2 3.6-3.8 7.4 4.5 2.2 4.8-5.1 0.2-12.4-28.4-14.5-33.2-16.8-39.6-35.2-77.4-27.1-121.7 6.6-36.4 28.4-68.7 31.9-105.8 3.2-33.1-14.9-51.1-24-80-0.7-2.4 2.3-3.4 3.7-1.7z"  fill="#c2e1ff" /><path d="M72.1-364.8c12.5 52.6 66.4 83.2 74.7 137.3 10.7 69.5-54.7 120.5-58.7 187.7-1.1 18.8 20.4 92.2 18.3 97.7-1.8 4.4-8.2 0-4.8-3.3 4-3.8 7.5 5.2 2 5.1-5.5 0-9.2-24.6-10.6-29.2-12.8-43.6-18.2-84.7-0.4-127.9 15.8-38.4 45-73.3 47.4-116.3 2.9-52.4-40.8-83.2-63.4-125.3-3.7-6.8-10-17-10.3-24.9-0.1-3.6 4.5-3.9 5.8-0.9z"  fill="#fff500" /><path d="M79.1 40c2.1 4.5 17.9 34.4 11.9 36.1-3.6 1-4.9-4.7-1.2-5.4 3.7-0.6 4.4 5.2 0.6 5.5-4.8 0.3-5.8-10.5-7-13.6-2.6-6.7-7.6-14.1-8.9-21.1-0.6-2.9 3.2-3.7 4.6-1.5z"  fill="#fff" /><path d="M88.5-398.8c5.6 59.5 60.8 92 74.7 147.4 17.1 68-39.4 117.5-61.1 176.1-2.9 7.9-10.6 66.2-11.3 66.2-4.7 0.3-4.7-7.1 0-6.9 5.5 0.3 3.1 9.1-1.8 6.5-6.9-3.6-3.3-31.8-2.7-38.4 6.4-65.8 66.3-110.9 71.9-176.2 4.7-55.2-40.2-87.8-63.2-132.4-6.6-12.9-11.4-26.9-13.4-41.3-0.6-4.5 5.7-5.1 6.9-1z"  fill="#005bbb" /><path d=""  fill="#fff" /><path d=""  fill="#c2e1ff" /><path d="M112.3-55.7c-10.5 32.2-5.5 65.2 1.3 97.6 1 4.9 10.3 34 3.5 34.8-3.8 0.5-5.1-5.1-1.5-6.3 4.2-1.5 6.2 5.3 1.8 6.3-12.8 3-19-113.1-16.4-126 1.4-7.2 13.2-18.8 11.3-6.4z"  fill="#fff500" /><path d="M118.1-231.8c26.1 69.8-41.9 128-40 196.9 0.5 19.2 30.1 104.6 27.9 109.8-1.9 4.4-8.4-0.2-4.8-3.4 4.2-3.8 7.6 5.4 2 5.2-5.4-0.1-9.9-26.9-11.5-31.7-43-130.9-13.9-105.2 19.7-217.9 5.6-19-1.4-77 6.7-58.9z"  fill="#005bbb" /><path d="M127.9-75.5c-21.2 37.4-18.9 77.2-11.1 118 1.1 5.8 9 29.2 4.6 33.4-3.8 3.6-8.3-3.9-3.3-5.5 5-1.7 5.9 7 0.7 6.4-6-0.7-8-31.5-9.1-37-6.9-36.6-11-73.3 3.3-108.8 7-17.3 19.2-18 14.9-6.5z"  fill="#fff500" /><path d="M135.6-87.9c-24.2 35.3-28.4 74.1-21.5 115.6 1.6 9.7 12.4 38.6 7.9 47.1-2.5 4.7-9.1-1-5-4.2 4.9-3.7 7.8 6.6 1.7 5.9-6.1-0.7-9.4-38.7-10.6-45-7.2-39.6-7.9-78.2 11.5-114.7 9.1-17.1 21.3-15.7 16-4.7z"  fill="#fff500" /><path d=""  fill="#c2e1ff" /><path d="M151-141.6c-28.7 41.3-55.9 81.5-51.1 134.1 2.1 22.3 8.3 44 13.3 65.8 0.6 2.8 7.1 19.6-0.5 18.2-4.3-0.8-2.7-7.5 1.5-6.3 4.9 1.5 0.8 8.9-3.1 5.5-4-3.5-4.2-17.4-5.4-22.6-10.3-44.3-21.5-87.2-5.1-131.6 8.2-22.2 23.6-55 41.7-70.9 5.4-4.7 11.6 2.1 8.7 7.8z"  fill="#c2e1ff" /><path d="M161.3-399.3c24.5 45.7 68.6 80.9 68.9 136.8 0.5 77.1-72.1 120.7-106 182-8.4 15.3-14.3 31.8-16.5 49.1-0.7 5.3 1.6 22.3-2.5 25.3-4.7 3.5-8.7-5.3-2.9-6.6 5.7-1.2 5.6 8.5-0.1 7.2-7.7-1.8-2.5-31.3-1.6-37.1 12.5-82.1 100.1-122.2 118.9-200.8 14.2-59.7-27.9-99.9-57.3-146-1-1.7-5.7-16.2-0.9-9.9z"  fill="#fff500" /><path d="M171.5-399.4c29.9 49.8 78.3 89.2 68.3 153.5-10.5 67.4-72.6 105.2-107.4 158.8-10.1 15.5-17.7 32.6-21.1 50.9-0.8 4.4 0.7 21.8-6.3 21.2-5.3-0.5-4.1-8.8 1.1-7.8 6.1 1.2 2 10.7-3.1 7-7.3-5.3 2-35.2 4.1-42.3 21.7-73.2 102.2-109.6 122.4-183.1 16.7-60.7-24.5-102.7-56.3-148.6-0.9-1.3-6.4-15.5-1.7-9.6z"  fill="#fff" /><path d="M173.5 41.6c-1.1 6.4 0.4 31.6-4.7 35-5.2 3.4-8.8-6.3-2.7-7.2 6.2-0.8 5.3 9.5-0.6 7.6-6.3-1.9-2.9-34.2 0.2-38.5 2.8-3.9 7.9-1 7.8 3.1z"  fill="#c2e1ff" /><path d="M180-266.6c23.3 86.2-66.5 141.4-80.6 219.2-6 33.4 3 66.1 11 98.4 0.9 3.5 9.5 26.9 1.3 25.4-3.7-0.7-3.3-6.2 0.5-6.3 3.7-0.1 4.5 5.3 0.9 6.2-6.3 1.6-6.9-16.5-7.7-20-10.3-44-23.2-86.8-8.5-131.5 13.9-42.3 45.8-74.9 64.8-114.7 7-14.7 12.2-30.4 13.7-46.7 0.8-8.9-3.7-22.3-1.5-30.2 0.9-3.3 5.1-2.6 6.1 0.2z"  fill="#005bbb" /><path d="M195.1-399.5c47.2 62.3 101.2 113.8 58.2 197.8-23.3 45.6-68.3 71.7-100.9 109.5-11.3 13.1-21 27.8-27.2 44.1-1.8 4.8-3.2 23.3-10.7 21.4-6.8-1.7-1.6-12.2 3.9-7.8 5.5 4.4-3.6 11.8-6.8 5.4-2.7-5.4 2.6-17 4.3-22.3 24.7-76.9 115.7-105.1 139.3-182.3 10.5-34.4 4.5-70.5-13.7-101.1-13.7-22.9-32.7-41.7-49-62.6-1.4-1.7 1.1-3.5 2.6-2.1z"  fill="#fff" /><path d=""  fill="#fff" /><path d="M202.1-315c57.9 106.7-64.2 168.8-92.2 258.6-10.5 33.7-4.3 67.7 3.1 101.3 0.9 4 10.2 33.1 2 31.5-3.7-0.7-3.2-6.4 0.6-6.5 3.8-0.1 4.5 5.5 0.8 6.5-6.4 1.5-6.6-16.6-7.4-20.3-10.4-49.7-20.9-96.6 2.8-144.4 22.5-45.6 63.7-78.7 85.3-124.9 9.3-19.7 14.3-41.4 11.8-63.1-1.5-13-14-49.7-6.8-38.7z"  fill="#fff500" /><path d="M211-275.4c17 92.3-82.9 143.5-103.7 224.2-8.5 32.9-1.6 65.9 5.6 98.3 0.9 4 9.9 31.1 1.7 29.4-3.7-0.7-3.2-6.4 0.5-6.4 3.8-0.1 4.5 5.5 0.9 6.4-6.5 1.6-6.8-17.1-7.6-20.8-33.9-159.1 12.6-136.4 78.5-255.8 7.3-13.3 13.2-27.5 16.1-42.5 1.9-9.9-1.7-24.8 1.5-33.6 1.3-3.5 5.7-2.4 6.5 0.8z"  fill="#c2e1ff" /><path d="M219.8-46.1c-23.9 21-42.4 45.4-49.3 76.9-1.4 6.4-2.9 49-9.8 46.2-4.9-2-1.3-9.5 3.4-7 4 2.2 1.4 8.4-3 7.2-7.1-2.1-1.9-28.9-1.3-34.4 3.9-37.4 19.9-69 47.1-94.9 7.1-6.7 21.5-3.9 12.9 6z"  fill="#fff" /><path d="M227.3-70.6c-31.5 24.3-59.5 50.1-68.1 90.7-2 9.3 0.6 52.3-5.4 56.5-4.9 3.5-8.8-5.8-2.9-6.8 6.9-1.2 4.5 10.8-1.4 6.9-5.1-3.3-1.9-22.1-1.7-27.4 1.3-51.5 21.4-90.7 61.3-123 4.5-3.6 14.5-14.6 19.9-5.8 1.9 3.2 0.8 6.5-1.7 8.9z"  fill="#fff500" /><path d="M232-365c52 60.8 60.8 139.5 5.4 202-32.4 36.5-78.5 60.5-102.2 104.6-10.4 19.4-14.9 40.9-14.8 62.8 0 3.9 4.7 27-3.2 24.8-3.9-1.1-2.9-7.1 1.2-6.8 4 0.2 4.4 6.3 0.3 6.9-7.6 1.2-5.8-23.8-5.9-28.2-0.7-29.6 6.7-58 23.3-82.7 33.8-50.5 95.7-75.8 121.3-132.6 15.1-33.3 15.1-71.6 0.4-105-7.1-16-38.6-57.9-25.8-45.8z"  fill="#005bbb" /><path d="M243.2-213.7c-29.5 68.1-110.6 101.5-127.6 176.5-5.8 25.6 9.7 107.9 7.5 112.2-2.9 5.5-9.9-2.8-4-4.7 5.9-1.9 5.2 8.8-0.4 6.2-6.5-3-8.2-38.8-9.5-46.2-21.3-125.3 50.2-141.3 111.2-226.7 3.7-5.2 11.2-25.5 18.5-24.9 4 0.3 5.5 4.2 4.3 7.6z"  fill="#fff500" /><path d="M249.2-294.7c30.3 110.7-98.3 154.5-129.7 243.1-11.8 33.3 3.7 126 3.4 126.6-2.9 5.5-9.9-2.8-4-4.7 5.9-1.9 5.2 8.8-0.3 6.1-6.7-3.2-8.7-41.1-10-48.8-21.4-128.9 59.5-142.5 116.3-231.8 10.5-16.5 17.9-34.9 20-54.4 1.2-10.8-4.3-26.5-1.7-36.2 0.9-3.3 5-2.6 6 0.1z"  fill="#fff500" /><path d="M257.7-266.9c3.2 99-107.5 133.6-136.9 217.1-11.4 32.2 3 124.4 2.8 124.6-3 5.5-9.9-2.8-4-4.8 5.9-1.9 5.2 8.9-0.3 6.2-6.5-3.1-8.1-38.8-9.3-46.2-20.9-128 55.1-141.2 115.6-227.9 21.3-30.6 17.3-57 24.9-71 2-3.7 6.9-1.7 7.2 2z"  fill="#c2e1ff" /><path d="M266.1-118.6c-36 39.9-92.3 60.2-110.8 114.5-5.3 15.5-3.9 74.1-7.6 79.5-3.9 5.7-10.5-4.4-3.8-5.8 6.8-1.4 4.7 10.4-1.2 6.8-6.7-4.1-2.6-37.6-2.3-45 1.4-30.8 10.1-60.1 29.8-84.3 17.8-21.8 64-60.3 88-75.5 6.6-4.1 12.1 4.3 7.9 9.8z"  fill="#fff500" /><path d="M274-160.7c-35.1 54.4-108.9 74.3-131.6 137.9-6.7 18.8-4.6 97.1-5.2 97.9-3.5 5.6-10.3-3.7-3.9-5.4 6.4-1.6 4.9 9.8-0.9 6.6-7.1-4-5-42-5.2-50-2.4-95.1 56.8-114 116.1-169.6 7.2-6.8 14.9-21.6 23.3-25.9 5.7-3 10.1 3.6 7.4 8.5z"  fill="#fff" /><path d="M281.7-132.5c-33.1 48.9-98.1 69.3-121 125.6-6 14.8-9.9 81.4-10.5 82.2-4 5.7-10.6-4.5-3.7-5.8 6.8-1.3 4.6 10.6-1.3 6.8-6.4-4-2.2-34.7-1.9-41.7 4.3-85.5 59.1-102.8 112-154.8 4.8-4.7 15.6-23.6 23.2-21.5 4.3 1.2 5.1 5.7 3.2 9.2z"  fill="#005bbb" /><path d="M285.9-364c60.6 73.3 54.1 195.5 6.9 274.3-18.8 31.3-46.5 55-67.9 84.2-5.3 7.2-27.2 58.1-30.3 57.4-8.1-2.1 0.5-13.8 4.9-6.7 3.8 6-7.3 10-8.2 2.9-6-47.1 98.1-127.2 119.2-207.1 12.8-48.3 15.9-103.2 0.2-151.2-2.6-8.1-27.8-52.3-27.7-52.9 0.1-1.6 1.9-1.9 2.9-0.9z"  fill="#fff500" /><path d="M293.9-352c51.2 72.2 42.5 187.1-3.1 260-21.6 34.7-55.3 59.2-77.6 93.1-5 7.6-24 62.8-26.2 62.5-6.6-1.1-2.4-11.4 3.1-7.6 5.5 3.8-2.6 11.4-6.1 5.6-2.8-4.7 1.1-15.9 2.2-21 15.6-77.6 96.5-116.9 120.3-192.2 14.7-46.6 18.8-100.2 6.4-147.8-4.7-18.1-31.1-66.8-19-52.6z"  fill="#c2e1ff" /><path d="M351.8-399.3c35 79.3 21.9 171.3 47.2 253.7 3.3 10.7 39.6 104.2 35.4 105.4-3.1 0.9-4.9-3.6-2.1-5.1 3.3-1.8 5.8 3.6 2.4 5-4.2 1.7-5.3-6.5-6-8.5-40.2-117.2-47.9-132.6-61.7-258.5-1.6-14.3-20.2-89.8-20-91.2 0.3-2.8 3.7-2.8 4.8-0.8z"  fill="#c2e1ff" /><path d="M312.4-102.2c-16.6 46-50.8 81.2-70 125.5-5.2 12-8.8 24.7-10.4 37.7-0.4 3.3 1.3 18.9-6.2 15.7-4.9-2-1.3-9.5 3.3-6.9 3.9 2.2 1.4 8.4-2.9 7.1-7.2-2.1-1.6-25.3-0.7-30.6 9.8-56.5 55.5-98 76.6-150 2.7-6.6 12.4-6.8 10.3 1.5z"  fill="#005bbb" /><path d="M360.6-399.1c28.2 81.9 16.4 171.6 42.9 254.4 3.4 10.6 40.1 103.4 35.3 104.8-14.3 3.9 12.4-10.1 1-0.6-4.3 3.6-5.9-5.7-6.5-7.5-38.9-116.2-50.9-135-62.6-261.6-2-21.1-4.4-42.3-8.9-63-1.1-5-9.1-23.3-6.1-27.3 1.5-1.9 4-1.1 4.9 0.8z"  fill="#fff" /><path d="M327.4-154.2c-11.8 69.6-47.7 110.5-76 171.4-6 12.8-10.3 26.4-12.2 40.5-0.5 3.7 1.5 22.2-6.4 19.1-5.6-2.2 0-10.6 4.2-6.2 3.6 3.8-2.7 9.1-5.8 4.9-18.7-24.7 43.2-118.2 56.1-141.9 9.1-16.8 30.2-88.7 32.3-91.3 3-3.9 8.1-0.7 7.8 3.5z"  fill="#005bbb" /><path d="M334.6 27c-0.1 7.9 7.3 44 3 48.4-3.4 3.6-8-3.3-3.4-5.1 4.6-1.8 5.9 6.3 1 6.1-7.5-0.5-9.7-44-8.2-50.3 1.1-4.6 7-3.3 7.6 0.9z"  fill="#005bbb" /><path d="M341.9-267.4c11.7 89.7 0.1 182.5-3.5 272.5-0.6 15.5-0.8 31.2 0.8 46.6 0.5 4.6 5.5 20.3 2.4 23.6-3.4 3.6-8-3.2-3.4-5 4.6-1.8 5.9 6.3 1 6-18.8-1-4.6-149-3.8-165.9 2.5-56.8 5.8-114.9 0.2-171.6-0.4-4.3 4.2-15.1 6.3-6.2z"  fill="#005bbb" /><path d="M349.5 50.5c0.6 4.4 6.8 23.3 2.5 25.7-3.6 2-6.5-3.8-2.7-5.5 4.4-1.9 5.9 6 1.1 5.9-10.7-0.4-6.4-46-0.9-26.1z"  fill="#005bbb" /><path d="M357.5-212.2c5.4 78.9 20.8 154 39.8 230.6 3 12.1 19.4 45 16.4 56-1.3 4.6-7.9-0.4-3.8-2.9 3.5-2.1 5.7 4.3 1.6 4.7-9.4 1.1-23.6-70.3-25.7-79.3-16.1-66.3-30-131.5-34.9-199.7-0.3-3.8 4.4-20.7 6.6-9.4z"  fill="#fff500" /><path d="M365.1-234.3c8.3 87.7 35.2 166.2 61.1 249.7 2.6 8.5 22.9 54.9 22.4 58.6-0.6 4-6.6 0.5-3.5-2 2.7-2.1 5.2 3 1.9 3.8-10.2 2.4-30.4-72.1-33.2-81.2-22.4-73.3-47.2-142.4-54.9-219.3-0.4-3.7 3.7-20.6 6.2-9.6z"  fill="#005bbb" /><path d="M372.6-191.5c10.3 74.9 39.7 146.9 63.5 218.3 3.5 10.6 20.6 36.8 19.4 46.7-0.4 3.3-5.6 1.5-3.9-1.4 2-3.3 6 2.1 2.3 3.1-10.7 2.8-32.5-75.8-35.4-85.2-18.1-58.3-42.2-114.4-51.8-175.1-0.7-4.5 3.5-14.9 5.9-6.4z"  fill="#fff" /><path d="M380.5-326.3c5.5 61.3 7.5 122.1 26.8 181.2 14.7 45 33.9 88.2 47 133.8 6.5 22.5 12.7 45.3 23.4 66.2 1.3 2.5 13.4 19.4 9.4 20.3-2.7 0.7-2.8-4 0-3.4 2.4 0.5 1.4 4.2-0.9 3.4-15-4.7-38.9-90.4-44.1-107.6-37.1-122.5-57.3-139.9-67.5-277.7-0.3-4.6-2.8-13-1-17.3 1.5-3.6 6.1-2.3 6.9 1.1z"  fill="#fff500" /><path d="M388.3-329.1c6.1 160.7 34.2 184.7 74.5 328.2 5.7 20.4 12 40.7 22.2 59.3 1.1 2 12 15.6 7.8 16.7-2.3 0.6-3-3.1-0.7-3.4 2.4-0.3 2.7 3.4 0.3 3.5-10.5 0.3-32.4-65.4-44.3-107-32.9-114.5-61.7-153.6-66.6-281.4-0.2-5.1-1.6-11.6-0.5-16.6 0.9-4.5 6.7-3.4 7.3 0.7z"  fill="#005bbb" /><path d="M395.1-148.8c17.4 60.4 40.7 121.4 62.1 180.5 1.9 5.3 19.3 43.3 18.5 43.5-2.5 0.5-3.1-3.4-0.6-3.7 2.2-0.2 2.8 2.9 0.8 3.7-12.6 4.2-37.3-83-40.4-93.1-9.6-31.1-44.7-103.8-46.1-130-0.2-3.5 4.4-3.9 5.7-0.9z"  fill="#fff500" /><path d="M403.8-285c0 102 43.7 198.2 71.2 295 4.9 17.1 10.8 34 19.7 49.5 1.2 2.1 11.7 14.3 7.2 15.4-2.3 0.6-3-3-0.7-3.3 2.7-0.4 2.4 4.1-0.2 3.3-16.9-5-39-91-43.7-109-19.2-73.4-53.3-141.6-59.6-218.1-0.7-8.5-5-26.9-1.1-34.5 1.9-3.8 6.7-1.9 7.2 1.7z"  fill="#005bbb" /><path d="M410.3-48.9c11.6 33.5 20 68.4 33.7 101.1 1.6 3.9 11.4 19 9.9 22.2-1.4 3-5.8-0.4-3.2-2.5 2.6-2.1 5.1 2.8 1.8 3.7-6.2 1.6-18.8-35-20.7-40.3-8.5-23.3-15-47.2-22.8-70.7-0.6-1.7-3.3-23 1.3-13.5z"  fill="#fff500" /><path d="M418.1-19.9c8.4 26.2 15.3 53.2 26.6 78.5 1.4 3.2 8.3 12.5 6.8 15.6-1.5 3-5.9-0.5-3.3-2.6 2.6-2.1 5.1 2.9 1.9 3.7-9.5 2.3-36.9-83.7-37.5-94.1-0.2-3.5 4.3-3.8 5.5-1.1z"  fill="#c2e1ff" /><path d=""  fill="#005bbb" /><path d="M432.9 70c0.7 1.5 2.7 6.8-1.5 5.7-10.9-2.8 12.1-2 1 0-6.6 1.2-3.2-11.6 0.5-5.7z"  fill="#fff500" /><path d="M441.1-64.9c12.9 36.5 19.8 75.6 35.7 111 1.6 3.6 16.5 27.7 14.4 29-2 1.3-3.9-2-1.7-3 2.1-1.1 3.6 2.4 1.4 3.2-5.4 2-19.3-29-21.3-33.4-9.3-20.7-14.9-42.7-21.1-64.4-4.6-16-14.5-56.9-7.4-42.4z"  fill="#005bbb" /><path d="M449.8-232.2c2.7 57.8 31.9 183.6 46.9 243.2 4.4 17.2 10.4 34 19.6 49.3 1.1 1.9 11.4 13.6 7 14.8-6.6 1.8 6.6-2.5 0.2-0.1-3.3 1.3-7.4-7.8-8.7-9.7-23.5-34.5-29.3-75.7-36.8-115.8-11.3-60-32.8-119.9-35.5-181.3-0.2-4.8 6.4-5 7.3-0.4z"  fill="#005bbb" /><path d="M457-178.6c10.7 59.7 25.8 138.9 42 196.6 4.2 15 9.9 29.5 17.9 42.8 1 1.7 11 13.1 6.7 14.2-6.6 1.8 6.6-2.5 0.2 0-3.2 1.2-7.1-7.4-8.3-9.3-23.6-34.4-29.5-75.6-37-115.7-6.2-33.3-29.6-98.3-27.9-128.2 0.2-4 5.4-3.8 6.4-0.4z"  fill="#c2e1ff" /><path d="M465.6-261.8c-5.2 69.9 20.8 200.8 37.4 271.3 4.1 17.3 10 34.1 18.9 49.6 1.3 2.3 12.2 14.8 7.7 16-6.7 1.8 6.7-2.5 0.1-0.1-11.4 4.3-35.8-73.8-41.2-107.3-11.7-72.8-33.1-146.7-31.3-220.9 0.1-5.2 7.6-20.4 8.4-8.6z"  fill="#c2e1ff" /><path d="M471.1 60.9c1.5 2.8 8.2 10.3 7 13.2-1.1 2.7-5.1 0-3-2 2.1-2 4.6 2.2 1.9 3.1-8.7 2.9-10.8-20.7-5.9-14.3z"  fill="#fff" /><path d="M481.3-299.2c-17.3 82.4 7.5 221.4 25.5 305 6.4 29.6 21.5 45.1 28.5 67.3 0.2 0.6-1 2.2-1.6 2.3-11.5 0.4-36-79.8-39.7-105-12.8-85.7-36.5-175.5-23-262.3 0.9-5.9 11.2-19.8 10.3-7.3z"  fill="#fff" /><path d="M488-153.4c6.9 57.3 10.9 119.5 26.6 175.1 0.8 2.9 24.9 53 23 53.5-2.3 0.6-3-3.1-0.7-3.5 2-0.3 2.8 2.7 0.9 3.4-3.6 1.3-10.1-12.2-11.6-14.5-19.5-31.6-25.2-67.8-29.9-104-4.7-36.4-11.6-72.7-15.1-109.2-0.4-4.5 5.8-5.1 6.8-0.8z"  fill="#fff" /><path d="M449.2-396.5c-36.9 78.1-33.6 165.2-9.5 246.4 3.9 13.1 31.5 90.8 28.7 97.6-2.2 5.2-9.2-1.7-4-4 4.4-1.9 6 5.9 1.1 5.8-5.7-0.1-14.1-42.9-16.1-49.4-22.2-71.5-43.2-140.4-33.2-216.2 3.3-25.1 8-65 24.1-85.6 4-5.1 10.6-0.1 8.9 5.4z"  fill="#c2e1ff" /><path d="M502.8 19.1c4.7 16.8 11.6 32.9 21.1 47.5 1 1.6 5.8 5.7 4 8-1.7 2.1-4.6-1.3-2.1-2.6 2.1-1.1 3.6 2.3 1.4 3.1-3.4 1.3-8.8-9.9-10.2-12.1-7.4-11.3-19.1-29-19.9-42.8-0.2-3.5 4.4-3.9 5.7-1.1z"  fill="#005bbb" /><path d="M486.8-395.6c-52.3 89.5-45.3 178.9-20.7 275.8 4 15.7 28.7 106.3 24.5 115.4-2.5 5.3-9.4-2.1-4-4.3 4.6-1.8 5.9 6.4 1 6.1-7-0.4-12.7-52.3-14.3-59.9-16.7-80.8-46.6-160.1-31.6-243.9 5.9-32.9 17.8-66.3 35.5-94.7 3.9-6.3 12.4-1 9.6 5.5z"  fill="#005bbb" /><path d="M519.1-170.2c2.7 60.8 3 126.9 16.6 186.3 1.6 7 22.8 58.9 22.3 59.1-2.6 0.5-3.2-3.6-0.6-3.9 2.6-0.2 2.8 3.9 0.1 3.9-5.6-0.1-15.1-23.9-17.3-28.6-27.2-59-25.1-149.2-28.4-214.1-0.3-5.4 6.1-9.3 7.3-2.7z"  fill="#fff500" /><path d=""  fill="#c2e1ff" /><path d="M534.4-84.3c3 39.3 2.6 80.5 15 118.3 1.7 5.3 18.2 41.3 16.4 41.5-2.7 0.5-3.2-3.9-0.4-4 2.8-0.2 2.8 4.2 0 4.1-3.9-0.2-8.1-11.7-9.8-15-12.1-22.4-37.3-124.8-28.1-146 1.6-3.7 6.2-2.2 6.9 1.1z"  fill="#fff500" /><path d=""  fill="#005bbb" /><path d=""  fill="#fff" /><path d="M558.3-343.1c-21.6 99.2 16 203.7 32.4 300.8 1.4 8.1 13.8 72.7 8.4 73.5-5 0.7-4.4-7.7 0.5-6.2 4.8 1.4 0.8 8.8-3.1 5.4-5-4.4-12.1-70.1-14-81.6-14.6-84.1-40.3-167.8-37.4-254 0.4-12-0.4-29.7 4.7-40.7 2.3-5 8.9-2.1 8.5 2.8z"  fill="#fff500" /><path d="M565.1-276.3c3.2 41.7 12.4 83.7 26.1 123.2 1.7 4.8 12.3 24.6 9.7 28.6-2.2 3.4-6.9-1.4-3.5-3.5 3.4-2.1 5.7 4.2 1.7 4.7-9 1.1-31.6-62.4-40.8-150.1-0.5-5.2 5.4-9.3 6.8-2.9z"  fill="#c2e1ff" /><path d="M572.5-80.5c6.5 40.5 8.8 82 19.7 121.6 1.4 5.1 11.2 25.8 8.6 29.7-2.4 3.4-7.1-1.7-3.5-3.8 3.6-2.1 5.7 4.5 1.6 4.9-17.3 1.6-29.7-130.6-32.1-146-0.6-4.2 3.3-15 5.7-6.4z"  fill="#c2e1ff" /><path d="M563-396.4c-32.2 87.2-26.5 172-18.2 263.2 0.9 9.6 11.1 87.6 4.1 87.7-5.7 0.1-3.9-9.1 1.3-6.8 5.2 2.3-0.3 9.9-4.1 5.6-7.1-8-4.1-41.4-5.1-52.3-7-74.8-19.8-155.1-7.7-229.9 3.5-21.6 8.4-53.6 20.9-72 3.4-5.1 10.1-0.8 8.8 4.5z"  fill="#fff" /><path d="M589.2-374.8c-12.5 44.6-12.7 88.5-1.4 133.5 1.4 5.4 15.1 44.6 11 44.7-2.9 0-3.5-4.3-0.6-5 3.4-0.8 4.3 4.6 0.9 4.9-4.8 0.6-7.7-14.1-8.9-17.2-13.1-36.1-21-75.4-18.6-113.9 0.9-14.9 1.6-37.2 8.9-50.5 2.8-5.1 9.4-1.6 8.7 3.5z"  fill="#fff500" /><path d="M596.4-329.8c-1.1 12 7 61.2 5.1 65.8-2.2 5.1-9.1-1.7-4-3.9 4.4-1.9 5.9 5.8 1.2 5.8-10.6-0.2-11-59.8-10.5-68.1 0.4-5.4 7.8-4.6 8.2 0.4z"  fill="#005bbb" /><path d=""  fill="#005bbb" /><path d=""  fill="#fff" /><path d=""  fill="#005bbb" /><path d="M602.9-334.1c-0.7 6.3 2.5 31.2-1.9 34.8-4.4 3.5-8.6-4.8-3.1-6.2 5.5-1.4 5.7 8 0.2 6.9-6.5-1.2-5.6-33.6-2.9-38 2.4-3.9 7.4-1.4 7.7 2.5z"  fill="#005bbb" /><path d=""  fill="#c2e1ff" /><path d=""  fill="#c2e1ff" /><path d=""  fill="#fff" /><path d=""  fill="#c2e1ff" /><path d=""  fill="#fff500" /><path d=""  fill="#fff500" /><path d=""  fill="#fff500" /><path d=""  fill="#fff" /><path d=""  fill="#fff" /></svg>