<svg width="1200" height="675" viewBox="-500 -500 1200 675" xmlns="http://www.w3.org/2000/svg"><path d="M-500-500h1200v675h-1200z" fill="#000"/><path d=""  fill="#c2e1ff" /><path d=""  fill="#c2e1ff" /><path d=""  fill="#c2e1ff" /><path d="M-391.4-18.1c2.4 10.4 11.7 52-6.2 53.8-13.4 1.4-14.4-19.8-1-19.7 13.4 0.1 12.2 21.3-1.2 19.7-12.2-1.4-8.5-48.2-5.9-55.3 2.7-7.7 12.5-5.4 14.3 1.5z"  fill="#fff" /><path d="M-393.8-90.1c17 34.5 68.2 132.2 44.3 169.4-9 14-28.4-5.6-14.4-14.5 14-8.9 23.4 17 6.9 19.2-19.9 2.6-3.6-51.8-9.4-77.9-7.3-32.7-30.6-62.6-37.2-92.8-1.4-6.2 6.7-8.1 9.8-3.4z"  fill="#fff500" /><path d="M-393.9-104.9c17.3 36.5 81.5 143.3 63.1 182.2-6.4 13.6-26.2-1.7-14.7-11.3 11.6-9.7 23.1 12.5 8.6 16.4-17.7 4.8-9.2-51.8-18.3-79.1-11-33.1-42.1-74.7-48.6-104.8-1.3-6.3 6.8-8.2 9.9-3.4z"  fill="#c2e1ff" /><path d="M-392.5-101.3c17.2 35.8 79.4 140.2 61.1 178.7-6.5 13.7-26.3-1.8-14.7-11.5 11.6-9.7 23.1 12.7 8.5 16.6-17.6 4.7-9.9-52.8-16.8-75.4-10.5-34.1-41.1-74.2-47.8-105-1.4-6.2 6.7-8.2 9.7-3.4z"  fill="#005bbb" /><path d="M-372.6-268.1c11.6 78.6 22.1 151.1 70.9 216.3 26.1 34.9 51.2 67.7 61.3 111 1.3 5.8 6.1 17.1-1.7 20.7-10.8 4.9-14.9-14.4-3-14.3 11.9 0.1 7.5 19.3-3.3 14.3-2.7-1.3-16.2-57.1-20.7-67.3-26.1-57.5-75.3-98.8-95.4-160.2-6.8-20.8-28.8-103.9-22.6-121.8 2.7-7.8 12.5-5.6 14.5 1.3z"  fill="#c2e1ff" /><path d="M-353.9 43.8c0.2 9.9 0.1 47.2-18.8 39.8-13.9-5.4-4.2-26.8 9-19.9 13.2 6.9 1.3 27.1-11.2 18.8-19.7-13.1 19.8-73.3 21-38.7z"  fill="#fff" /><path d="M-339.3 15.4c3.7 11.1 19.4 64.4-0.6 67.2-12.9 1.9-14.7-18.6-1.7-19 13-0.4 12.6 20.1-0.4 19.1-12.1-0.9-9.7-68.5-9.6-68.7 3-5.8 10.3-3.9 12.3 1.4z"  fill="#fff500" /><path d=""  fill="#c2e1ff" /><path d="M-304.4-164.4c12 71.8 62.3 126.2 77.1 196.5 1.9 9.1 13.1 44.3 0.4 48.9-12 4.3-14.7-16.7-2-15.6 12.7 1.1 6.4 21.3-4.7 15-11.4-6.6-9.2-54.6-12.3-67.6-12.3-49.8-45.5-89.9-62.5-137.7-19.3-54.7 0.5-49.9 4-39.5z"  fill="#fff500" /><path d="M-289-354.2c16.3 41.3 37.6 79.9 43.7 124.5 6.2 45.5-2.3 91.4 5.5 136.7 6.9 39.8 37.9 131.7 26.3 168.7-4 12.8-23.3 1.7-14.3-8.2 10.5-11.6 22.5 12.9 6.9 14.1-16 1.2-11.9-70.6-13.5-83.1-4.9-36.1-17-70.5-22.8-106.4-5.7-35.7-1.9-71.2-3-107.1-0.7-24.2-4.8-47.9-12.5-70.8-4.8-14.2-28.2-55.1-27.2-66.7 0.5-6.3 8.2-6.4 10.9-1.7z"  fill="#fff500" /><path d="M-276.8-399.8c8.5 51.2 39.6 95.3 48.1 146.7 8.4 50.2-4.9 99.7-2.1 149.9 0.5 9.1 13.7 54-0.1 55.8-11.4 1.4-9.7-17.6 1.3-14.1 11 3.5 1.4 20-7.1 12.2-20.6-18.9-5-154.2-6-185.5-1.9-58.8-48.4-133.1-47.9-163.5 0.1-8.6 11.2-8.6 13.8-1.5z"  fill="#005bbb" /><path d="M-255.6-20.3c7.3 12.4 45.3 93 24.4 101.2-9.9 3.9-15.2-12.1-4.9-14.9 10.3-2.8 13.8 13.7 3.3 15.3-14.7 2.3-12.7-38.1-14.3-45.9-3.3-16.1-18-38.1-17.9-53.4 0-5.5 6.7-6.2 9.4-2.3z"  fill="#c2e1ff" /><path d=""  fill="#c2e1ff" /><path d="M-216.2-147.8c-9.3 60.6 4.1 119.2 5.9 179.8 0.3 8.8 7.8 50.7-8.7 49.7-11.6-0.7-9.6-19 1.9-17 11.5 1.9 7.5 19.9-3.7 16.7-14.8-4.1-6.6-65.7-7.2-78.4-2.1-41.8-21.5-116.8-6.6-155.4 4.2-10.9 18.4-5.7 18.4 4.6z"  fill="#fff500" /><path d="M-201.6-315.4c20.9 88.2-16 170.4-11.3 258.4 0.9 16.7 15 140.4-5 139.1-11.7-0.8-9.5-19.2 2-17.2 9.9 1.7 8.9 16.7-1.1 17.2-17.3 0.8-8.8-77.5-9.3-90.4-1.4-38.2-6.7-76.4-3.2-114.7 4.6-50.5 20.5-99 18.5-150.2-0.4-9.1-10.7-40.9-1.3-46.8 4.5-2.8 9.2 0.1 10.7 4.6z"  fill="#005bbb" /><path d="M-181.7-204.2c-15 90-24 110.8-24.2 206.9 0 11.7 7 80.7-10.7 79.3-11.8-0.9-9.4-19.5 2.3-17.3 11.7 2.2 7.2 20.4-4.2 16.9-15.9-4.8-4.5-85.6-4.5-100.6-0.1-34.7 5-169.4 23.8-193.1 6.8-8.6 18.1-1.5 17.5 7.9z"  fill="#005bbb" /><path d="M-164-88.7c-10.6 33.8-21.7 67.3-28.3 102.2-2.9 15.2-0.7 54.7-10.4 65.7-11.2 12.7-24.5-13.6-7.7-15.1 14.4-1.3 11.3 22.5-2.2 17.7-24-8.6 17.6-160.6 29.1-179.5 6.9-11.3 21.8-2.6 19.5 9z"  fill="#fff" /><path d="M-182.7-397.5c-7.8 45.4 6.8 92.6 5.3 138.5-1.9 55.6-20.5 107.8-27 162.7-1.2 9.8 4.4 56.7-11.3 56-13.5-0.6-7.6-22.3 4.4-16.1 12 6.2-2.4 23.5-10.7 12.8-15.6-20.3 14.3-137.4 19.5-164.6 15.8-83-4.8-124.3 1.2-191 1.1-12.4 18.3-10 18.6 1.7z"  fill="#005bbb" /><path d="M-130.1-111.7c-8 44.3-33.7 80.8-49.2 122.3-7.7 20.7-7.4 47.5-16.5 66.7-2.3 4.8-8.3 6.8-13.1 4.3-9.6-5.2-3.4-20.4 7.2-17.4 12.3 3.6 5.6 22.6-6.2 17.8-15.5-6.4 0.8-52.7 3.6-63.7 3.9-14.9 50.9-132.4 56.6-139 7.4-8.5 18.7-0.7 17.6 9z"  fill="#005bbb" /><path d="M-112.6-12.5c-16.1 19.4-36.5 34.8-50.3 56.1-6.4 9.9-10 31.3-19 38.2-3.7 2.8-9 2.9-12.7 0.1-11.4-8.6 3.1-25.8 13.5-16 10.4 9.8-5.9 25.3-15.2 14.4-15.3-17.9 48.3-108.3 68.8-115.5 14.6-5.2 22.8 11.8 14.9 22.7z"  fill="#005bbb" /><path d=""  fill="#c2e1ff" /><path d="M-78.2-319.9c-39 112.1 0.7 183.9-16 254.9-10.1 42.9-46.9 66.1-69.5 101.3-6.4 10-14.9 51.5-30.5 46.8-15.6-4.7-2.4-28.4 9.8-17.5 14.3 12.7-15.5 27.6-17.1 8.5-4.7-55.5 68.4-100.2 86.6-145.4 13.8-34.5-8.2-154.3 11.6-237.9 9.5-40 25.9-15.1 25.1-10.7z"  fill="#005bbb" /><path d="M-66-138.2c30.2 79.8 56.6 133.6-25.6 193-10.8 7.8-32.8 33.7-46.1 32.4-18.4-1.7-14.1-30.5 4-26.8 18.1 3.7 10.7 31.8-6.8 26.2-44.3-14.2 72.7-79.7 84.2-112.8 15.5-44.4-15.5-70.1-20.9-109-1-7 8.1-8.5 11.2-3z"  fill="#fff" /><path d="M-43.8-4.5c-8.2 24-91.1 101.1-106 88.2-13.7-11.9 6.3-32.5 18.6-19.2 12.3 13.4-9.8 31.6-20.5 17-18-24.4 57.6-66.1 71.2-78.5 7.1-6.5 11.7-17.5 19.5-22.8 10.8-7.5 21.3 4.7 17.2 15.3z"  fill="#c2e1ff" /><path d="M-73.6-391c-64.3 85.6-54.1 208.6-86.5 307.1-3.8 11.5-12.8 63.8-31.3 57-13.7-5.1-4.5-26.3 8.6-19.8 13.1 6.6 1.6 26.7-10.7 18.7-11.3-7.3 23.1-93.6 28.6-116.1 20.2-83.4 17.3-190 69.8-261.6 10.2-13.9 29.1 0.1 21.5 14.7z"  fill="#fff500" /><path d="M-18.1-141c64.6 69.6 125.4 72 146.1 180.3 1.6 8.3 10.4 32.7 2.6 39.6-7.8 6.9-18-6-9.5-12 8.5-6 17.2 7.9 8.1 12.9-15.1 8.3-14.2-28.6-15-34-4.7-30.9-11.9-62-29-88.6-26.3-40.9-72.2-62-107.1-94.2-2.7-2.5 1.1-6 3.8-4z"  fill="#c2e1ff" /><path d=""  fill="#005bbb" /><path d="M23.7-363.1c-14.5 76.9 50.8 118.3 82 178.9 31.9 61.9 43.5 138.9 49.6 207.5 0.8 8.9 9.4 40.1-2.4 44.4-14 5.1-13.2-20.9 0.5-14.9 11.7 5.1-0.8 22.2-9.2 12.7-6.5-7.4-13.4-117.6-17.6-138.2-9.1-44.3-19.5-92.5-43.2-131.5-22.6-37.1-57.3-65.5-71.6-107.7-5-14.9-11.8-39.6-6.4-55.2 3.8-10.9 18-6.2 18.3 4z"  fill="#fff500" /><path d="M33.2-188.9c76 74.5 105 115.9 117 224.3 1 9 10.3 41.2-1.4 45.7-13.8 5.2-13.3-20.4 0.3-14.7 11.6 4.9-0.5 21.9-8.9 12.6-5.9-6.4-14.5-114.2-24.5-143.5-16.4-48.3-46.6-84.2-83.5-118.3-2.7-2.5-4-9.8 1-6.1z"  fill="#c2e1ff" /><path d="M56.8-377.6c-2.3 65.1 60.8 95.6 82.5 150.4 15.1 38.1 14.8 161 18.6 210.2 0.9 12.3 12.4 72.2-1.1 76.8-12.2 4.2-14.6-17.1-1.8-15.7 15 1.6 2.9 24.9-7 13.3-10.4-12.1-4.9-54.8-6-70.5-4.2-61.3-4.7-123.7-10.2-184.8-5.6-61.7-56-89-80.7-140.7-21.1-44.3 1.4-60.5 5.7-39z"  fill="#c2e1ff" /><path d="M72.6 26.6c2.5 9 16 55.8-2.2 55.3-11.4-0.3-9.9-18.2 1.4-16.7 11.3 1.5 7.9 19.2-3.2 16.5-10.4-2.6-13-50.3-8.9-57.2 3.4-5.9 11-3.5 12.9 2.1z"  fill="#005bbb" /><path d="M90.2 46.9c1.2 6.3 10.3 39.4-6.7 34.2-8.9-2.7-6.3-16.3 2.9-15.6 10.8 0.8 8.5 17.8-2.1 15.8-22.4-4.2-1.9-62.7 5.9-34.4z"  fill="#fff" /><path d="M107.5-400.3c7.6 57.4 61.2 93.7 75.6 148.9 16.5 62.9-14.5 128.7-16.5 192.1-0.4 13.3 1.1 95.4-2.8 98.2-10.7 7.8-19.5-12.4-6.5-14.9 11.1-2.2 13.6 15.5 2.3 16.4-16 1.4-9.9-37.5-10-45.7-0.8-40.8-1.7-81.9 4.6-122.3 5.2-33 16.3-65.5 16.5-99.2 0.4-61-44.2-96-68.3-147-16.4-34.8 0.5-39.1 5.1-26.5z"  fill="#c2e1ff" /><path d="M123.9 19.5c2.5 9.4 19 60.5 2.5 61.7-10.4 0.7-10.7-15.7-0.2-15.3 10.4 0.4 8.9 16.7-1.4 15.3-10.9-1.6-16.6-53.6-14.3-62 2-7.4 11.2-5.9 13.4 0.3z"  fill="#fff" /><path d="M141.1-52.5c3.7 15.4 27.4 133.5 8.6 134-10.8 0.3-10.4-16.8 0.5-15.9 10.8 0.9 8.5 17.8-2.2 15.8-12.9-2.5-9-38.4-9.7-47.4-1.6-18.6-14.7-72.6-10.7-86.9 2.1-7.4 11.4-5.9 13.5 0.4z"  fill="#fff500" /><path d="M159.5-24.5c0.9 13.8 13.4 106.3-2.7 106.4-11.1 0.1-10.2-17.4 0.8-16.3 11 1.1 8.3 18.4-2.6 16.1-12.4-2.7-8-34-8.4-42.4-0.9-16.9-9.6-51.2-2.6-66.7 3.7-8.2 14.1-4.8 15.5 2.9z"  fill="#005bbb" /><path d="M177.2 73.5c-2 13.9-21.5 8.4-16.5-3.3 7.5-17.2 27.2 10.6 8.5 12-22.4 1.7 2.5-34.3 7.9-10.1z"  fill="#005bbb" /><path d="M194.6 54.4c-0.3 5.2-0.2 39.8-15.6 25.7-6.5-5.9-0.9-16.9 7.6-15.2 8.6 1.7 9.5 14 1.3 17-15.8 5.7-12.8-23.6-10.7-30.4 3.1-10.5 16.8-6.7 17.4 2.9z"  fill="#c2e1ff" /><path d="M211.9-387.5c-7 50.8 15.9 101.6 16.1 152.5 0.2 72.7-34.7 138.3-43.4 209.6-1.7 13.6 1.6 95.7-13.6 94.9-13.5-0.7-7.6-22.4 4.4-16 12 6.3-2.5 23.5-10.8 12.7-8.3-10.8-1.7-42.5-1.1-55.4 2.8-71.7 26.5-133.8 41.1-202.9 16.3-76.8-13.9-126.7-10.8-196.4 0.5-12 17.3-10.4 18.1 1z"  fill="#fff" /><path d="M230.1-112.4c-10.9 43.8-24.2 86.6-29.6 131.7-1.5 12.2 2.7 54.7-8.5 61.5-12 7.4-19.7-14.7-5.7-16.3 14-1.7 11.7 21.6-1.7 17.2-14.1-4.6-4.4-45.1-3.5-55.6 3.3-40.5 10.6-110.8 29.7-146.1 6.1-11.2 20.8-3.6 19.3 7.6z"  fill="#005bbb" /><path d="M245.6-340.2c-0.9 44.4 8.5 88.3 7 132.8-2.3 68-19.4 132.4-31.6 198.8-2.5 13.8-4.9 93.2-21.1 91-14.5-2-6-24.7 6.2-16.8 12.3 7.9-4.9 25-12.7 12.6-12.9-20.3 24.1-165.9 30.1-196.7 8.7-45.3 13.7-91.9 11.9-138.1-1-25.8-12-60.1-6.5-85.2 2.2-10.1 15.3-7.5 16.7 1.6z"  fill="#fff500" /><path d="M262.8-210.1c1.3 68.1-1.9 136.4-4.9 204.5-0.6 14.2-0.9 78.4-9.1 86.3-11.1 10.7-24.5-11.1-10-16.1 14.6-5.1 17.6 20.4 2.2 18.8-4.3-0.4-7.9-3.8-8.6-8-3.1-18 7-67.3 8.1-89.3 3.1-65.3 2.4-130.8 5.3-196 0.5-11.2 15.6-10.8 17-0.2z"  fill="#005bbb" /><path d="M278.8-299.1c6.6 50.1 14 106.8 36.6 152.5 38.1 77 134.9 89.4 118.6 193.5-1.5 9.8-2.1 33.2-13.5 36.9-16.1 5.3-18.9-22.6-2.1-20.7 19.7 2.3 3.3 32.6-9.4 17.4-3.1-3.7 12.5-77.7 6.2-99.2-16.4-55.9-90.3-82-117.7-141.1-12.7-27.5-36.2-110-33.5-138.9 0.8-9.1 12.7-8.3 14.8-0.4z"  fill="#fff500" /><path d="M294.5-131c16 57 112.6 158.5 89.9 208.2-6.2 13.6-26-1.3-14.7-11.1 11.3-9.7 23 12.1 8.7 16.2-17.9 5-9.5-55.6-17.9-77.1-18.7-48.2-61.2-82.1-77.9-132.2-2.6-7.9 8.5-11.1 11.9-4z"  fill="#005bbb" /><path d="M311.6-307c35.5 120.2 114.6 146.9 149.9 225.5 21.5 47.9 5.7 170.3-24.5 166.4-13.3-1.7-12.9-21.7 0.5-22.9 13.3-1.2 17.2 18.4 4.4 22.5-7.6 2.4-15.5-3.9-14.9-11.9 3-40.6 47.7-71.5 24.3-147.4-18.9-61.6-80.9-99.3-114.1-152.7-12.8-20.6-35.3-52.2-37.6-76.9-0.7-7.5 9.1-8.6 12-2.6z"  fill="#005bbb" /><path d="M246.8-395c-19.5 43.7-4.9 94.1-2.2 139.7 2.7 46.2-3.2 92.3-14.4 137.1-2.8 11.1-5.6 45.2-18.2 49.6-13.5 4.6-19.7-17.1-5.7-20.3 16.3-3.7 16.4 24.1 0.1 20.6-19-4.1 13.8-97.5 16.4-114 10.9-69.7-12.8-170.1 2.9-219.5 4.5-14 23.7-6.7 21.1 6.8z"  fill="#fff" /><path d="M345 0.8c5.9 11.5 32.5 76.6 10.1 81.3-14.2 3-13.9-21 0.2-17.8 12.1 2.8 6.6 21.5-5 17.5-11.9-4.2-4.8-29.8-5.7-38.8-1.3-12.6-10.9-28.5-10.1-40.4 0.5-6 7.9-6.3 10.5-1.8z"  fill="#fff500" /><path d="M360.6-244.4c60.2 90.5 146.7 156.1 108.2 277.2-3.8 12.1-11.7 49.2-26.4 51.9-13.2 2.5-19.1-16.8-6.6-22 14.5-6.2 23 17.2 7.9 21.7-7.7 2.3-15.6-4-14.9-12 3.4-39.5 47-68.9 28.8-148.9-17.2-75.6-86.9-117.8-104.3-164-1.8-4.8 4.3-7.2 7.3-3.9z"  fill="#fff" /><path d="M382.8 56.1c0.5 6.2-1.1 39.6-16.1 23.9-7.5-7.8 2.9-20.3 11.9-14.3 7.7 5.1 3.6 17.6-5.6 17.2-27.6-1.3 6.4-58.6 9.8-26.8z"  fill="#005bbb" /><path d="M397-401c21.4 39.6 71.7 53.8 99 88.9 52.6 67.5 23.3 152.1 12.2 227.9-2.5 17-4.4 88.3-24.1 94-16.6 4.9-18.5-23.8-1.5-21.2 20 3 2.3 33.4-10.2 17.5-9-11.5 9.6-50.6 12-64 10.3-57 30.3-131.1 24.7-188.3-8.6-86.9-61.9-90.1-111.7-142.1-5-5.2-8.3-21.1-0.4-12.7z"  fill="#fff" /><path d="M410.1-314.7c21 17.6 40.7 36.4 52.9 61.3 33.3 67.5 38.8 217 12.1 287.6-4.5 11.9-13.6 48.6-28.3 50.9-18.5 3-16.7-28 1.3-23 21.1 5.9-2.1 36.2-13.3 17.4-4.9-8.2 26.5-71.1 30.9-86.1 8.7-30.2 10.6-61.5 8.9-92.7-2.8-52.3-4-117.1-28.4-164.5-2.2-4.3-49-59.7-36.1-50.9z"  fill="#fff500" /><path d="M426.7-373.4c31.8 25.1 66.1 42.9 85.6 80.4 38 73.3 4.3 176.7-10.2 253.5-3.3 17.5-12.8 86.5-34.6 90.1-21.7 3.5-13.4-33.8 4.8-21.4 15.5 10.6-7.2 31.9-16.8 15.8-4.4-7.4 20.9-64.1 24.2-77.6 12-47.6 31.1-140.3 33.2-187.9 1.7-38.2-8.4-77.1-33.8-106.4-10.7-12.4-50.3-34.8-54.9-44.3-0.8-1.7 1.1-2.9 2.5-2.2z"  fill="#005bbb" /><path d=""  fill="#fff" /><path d="M497.1-400.7c51.9 57.6 92.8 153.7 76.5 232.2-6.4 30.8-22.5 58.2-35.5 86.5-6.9 15.1-14.5 56.2-28.4 64.9-15.2 9.4-25.1-18.6-7.4-20.7 15.2-1.9 16.8 22.2 1.6 22.4-7.8 0.1-13.5-8-10.7-15.3 20.4-53 67.6-134.1 66.3-188-1.3-53.5-22.4-113.1-52.2-157.2-13-19.2-18.4-32.3-10.2-24.8z"  fill="#005bbb" /><path d="M484.8-148.9c8.6 68.8 11.9 133.9-16.2 198.9-4.3 10.1-10.5 37.4-25.6 34.8-15.8-2.6-10.3-27.3 5.1-22.9 18 5.1 3.4 32.5-10.8 20.3-14.2-12.1 19-61.2 24-75.5 27.7-79.1 2.5-109 8.2-155.6 1.1-9.3 13.3-8.1 15.3 0z"  fill="#005bbb" /><path d=""  fill="#fff" /><path d="M522.1 38.7c-7.7 10.9-31.9 59.3-49.8 45.1-13.9-11.1 4.7-32.1 17.3-19.6 12.7 12.5-8.1 31.4-19.4 17.6-9.6-11.8 32.5-76.7 50.2-60.5 5.3 4.9 4.9 11.6 1.7 17.4z"  fill="#fff" /><path d="M539.2-95.5c-13.8 30.8-54.4 168.2-79.9 179.9-17.5 8.1-24.4-23.2-5.1-23.2 19.3 0 12.4 31.3-5.1 23.2-20.9-9.7 17.1-58.7 23-70.9 15.9-32.6 28.1-95 47.2-120.4 8.5-11.3 23.4-0.6 19.9 11.4z"  fill="#c2e1ff" /><path d="M551.2-328.1c18 43.8 35.4 95.1 31.9 143.1-3.7 52.5-51.4 130.4-73.1 181.7-6.9 16.3-34.5 93.6-55.8 88.5-22.2-5.3 0.6-37.8 13.1-18.6 10.7 16.3-19.6 27.8-22.4 8.4-1.8-12.5 29.1-57 35.9-70.8 13.9-28.3 24.5-58 37.7-86.7 12-26.1 27.5-50.8 37.9-77.6 29.2-74.7-9.8-110.3-16.5-165.2-0.9-7.1 8.3-8.4 11.3-2.8z"  fill="#fff500" /><path d="M573.5 19.7c-9.3 13.4-50.1 82.6-69.6 63.8-13.5-13 8-33.2 20.1-18.8 12.1 14.3-11.6 32.1-22 16.5-8.4-12.5 49.2-78 55-80.9 13-6.5 22.6 8.4 16.5 19.4z"  fill="#005bbb" /><path d="M589.6-175.2c-4 46-58.7 136-80.5 182.3-6.6 14.1-35.9 89.9-56.7 76.6-12.1-7.7-2.5-27 10.9-22 15.8 5.8 5.3 30.1-9.7 22.6-21.5-10.7 25.9-71.4 32.6-84.6 23.9-47.3 48-95 71.2-142.7 5.7-11.6 7.2-30.2 14.9-40 6.6-8.5 17.8-1.5 17.3 7.8z"  fill="#fff" /><path d="M607.9-56.5c-11.5 19.7-95.4 161-118.5 140.2-13.7-12.3 6.9-32.8 19.1-19.1 12.3 13.7-10.4 31.9-21.1 16.9-12-16.7 29.4-51.7 38.8-63.7 20.6-26.5 39.4-67.2 62.1-89.7 10.9-10.8 25.2 3 19.6 15.4z"  fill="#005bbb" /><path d=""  fill="#fff500" /><path d=""  fill="#fff500" /><path d=""  fill="#fff" /><path d=""  fill="#c2e1ff" /><path d=""  fill="#fff" /></svg>