<svg width="1200" height="675" viewBox="-500 -500 1200 675" xmlns="http://www.w3.org/2000/svg"><path d="M-500-500h1200v675h-1200z" fill="#000"/><path d=""  fill="#005bbb" /><path d=""  fill="#005bbb" /><path d=""  fill="#fff500" /><path d=""  fill="#c2e1ff" /><path d=""  fill="#fff" /><path d=""  fill="#c2e1ff" /><path d=""  fill="#fff500" /><path d="M-395.5 19.5c2.9 7.8 16.6 55.8 3.7 58.3-6.4 1.2-7.8-9-1.3-9.5 6.5-0.5 6.8 9.8 0.3 9.6-8.9-0.2-3.7-21.4-3.9-26.6-0.4-9.2-6.6-22.9-5.1-31.4 0.6-3.5 5-3.2 6.3-0.4z"  fill="#fff" /><path d=""  fill="#c2e1ff" /><path d=""  fill="#fff500" /><path d=""  fill="#fff" /><path d=""  fill="#fff500" /><path d="M-387-188.7c-15 35.1-11.3 79.3-8.2 117.2 3.1 38.1 45 57.7 34.9 128.1-0.8 5.6-0.6 22.1-8.8 22.3-8.7 0.2-5.9-14 2.1-10.5 7.9 3.5-0.6 15.1-6.3 8.6-5.7-6.5 5.8-44.1 5.4-54.5-1.6-37.4-32.3-67.3-33.2-99.1-1-34-2.2-68.6-2.5-102.6-0.2-15 20.4-23.1 16.6-9.5z"  fill="#fff500" /><path d="M-379.7 32.5c1.3 7.2 6.9 44.5-3.8 45.9-6.8 0.9-7.6-9.9-0.7-10.1 6.9-0.1 6.5 10.7-0.4 10.1-6.6-0.6-4.8-41.2-2.7-46.8 1.5-4.1 6.7-2.7 7.6 0.9z"  fill="#fff500" /><path d="M-371.1 11.3c2.5 9.3 11 66.7-3.9 67.6-7.2 0.5-7.3-10.9-0.1-10.6 7.2 0.3 6.1 11.6-1.1 10.5-9.6-1.5-1.2-22.5-0.6-28.1 1-9.4-5.1-33.3-1-40.5 1.8-3.1 5.7-1.9 6.7 1.1z"  fill="#005bbb" /><path d="M-360.9-320.6c-2.4 35.4-31.5 107-31.6 109.1-3.2 88.8-3.1 113.4-2.8 187.4 0 6.9 9.2 98.6 6.8 101.1-5.2 5.7-12.6-4.7-5.4-7.7 7.1-3 9.4 9.6 1.7 9.3-6.9-0.2-9.4-98-9.5-102.7-0.1-64.4-2-128.7-2-193.2 0-1.6 28.5-70.8 31.4-89.5 0.7-4.6-0.3-14.3 3.3-17.7 3.4-3.2 8-0.1 8.1 3.9z"  fill="#005bbb" /><path d="M-351.4-232.4c-10.6 37.6-27.7 75.1-21.6 115 9.2 61.4 48.2 97.9 32.6 165.8-1.9 8.2-3.6 21.9-9 28.6-5.9 7.2-15.5-4.9-7.2-9 8.4-4.1 12 10.9 2.7 11.1-12.5 0.3-0.7-21.5 0.7-25.8 5.5-17.5 8.6-35.7 7.9-54.1-2.4-55.4-43.2-99.9-37.2-156.9 1.6-14.7 12.4-70.6 21.8-80.2 4.3-4.4 10.2 0.2 9.3 5.5z"  fill="#fff500" /><path d="M-343.3-347.1c2.3 94-51.7 184-41.6 239.2 11.1 59.8 50.7 93.5 36.9 160.6-1.3 6.3-2.8 26.9-11.7 26.4-9.1-0.5-5.1-15 3-10.8 8.1 4.2-1.7 15.8-7.2 8.6-2.8-3.7 11.8-61.5 9.1-81-6.6-47.8-42.2-85.9-40.8-135.6 1.5-52.8 32.3-100.6 40.1-152.6 2.7-17.9-0.6-38.5 3.4-55.7 1.2-5.3 8.1-3.8 8.8 0.9z"  fill="#c2e1ff" /><path d="M-333.3 67.4c-1.4 3.3-13.8 22.2-15.5 6.9-2.5-23 25.3 13.6 3.9 5-18.8-7.5 17.8-32 11.6-11.9z"  fill="#005bbb" /><path d="M-325.7-147.3c3.4 74.2 36.8 123.5 6.2 199.8-2.6 6.6-6.9 23.2-13.6 26.4-9 4.4-12.9-11.8-2.8-11.9 8.5-0.2 8.1 13.3-0.5 12.5-13.5-1.2 2.1-23.3 4.2-28 9.8-21.6 16.6-44.4 18.1-68.2 2.6-41.1-13.1-78.8-18.7-118.9-0.5-3.5-2.4-9.6-0.9-13.1 1.8-4.3 7.3-2.6 8 1.4z"  fill="#005bbb" /><path d="M-316.3-281.9c-0.6 45.3-13.7 90.1-11.5 135.5 3.7 74.8 37.9 123.6 6.6 200.8-2.5 6.2-6.2 21.4-12.6 24.5-8.9 4.4-12.9-11.7-2.9-11.9 8.5-0.2 8.1 13.3-0.4 12.5-14-1.2 4.3-28.5 6.4-33.4 9.7-23.1 15.6-47.6 15.5-72.7-0.2-46.4-21.5-89.3-21.8-135.8-0.1-14.6 7.6-113.9 12.1-121.8 2.5-4.4 8.2-2 8.6 2.3z"  fill="#005bbb" /><path d="M-306.3 65.3c-2.1 3.7-14.1 24.9-18.9 10.3-7.7-23.6 29.6 8.8 5.2 4.5-12-2.1-0.4-18.7 3.4-22.6 5.6-5.7 13.1 1.4 10.3 7.8z"  fill="#c2e1ff" /><path d="M-297.5 32.2c-3 7.9-19.1 54.3-30.7 46.7-7.4-4.9 0.9-16.1 7.7-10.5 6.8 5.6-2.6 15.9-8.8 9.6-5.3-5.4 16.8-47.7 22.5-52.5 5-4.2 10.8 1.3 9.3 6.7z"  fill="#fff500" /><path d="M-290.1-125.6c8.9 63.5 13.4 120.4-15.9 179.8-3.2 6.5-8.5 22.7-15.5 25.5-9.6 3.9-12.6-13-2.1-12.5 8.9 0.4 7.5 14.3-1.3 13-13.7-2.1 3.3-23.4 5.8-28.1 11.2-20.9 20.1-43.1 24.7-66.5 9.2-47-6.6-78.7-3.5-111 0.5-4.8 6.7-4.3 7.8-0.2z"  fill="#c2e1ff" /><path d="M-280.5-44.8c-0.5 34.4-9.5 67.8-24.6 98.5-3.2 6.4-10.5 28.9-20 26.4-8.6-2.3-4.2-15.6 4.1-12.4 8.3 3.2 2.5 16-5.4 11.8-10.6-5.5 13.6-38.2 17-45.7 8.8-19.4 16.7-75 20.3-81.1 2.6-4.4 8.3-1.9 8.6 2.5z"  fill="#fff500" /><path d="M-271.5-55.8c-0.6 37-10.2 73.3-26.9 106.3-3.4 6.7-12.3 31.9-22.1 29-10.1-2.9-1.8-18.2 6.2-11.3 6.8 5.9-3.1 16.1-9.2 9.5-6.9-7.4 13.8-32.7 17.5-40.1 12.4-24.7 24.6-93.8 25.9-95.9 2.6-4.4 8.3-1.9 8.6 2.5z"  fill="#c2e1ff" /><path d="M-263.3-177.6c11.1 75.2 15.4 145.3-19 215.6-4.7 9.7-15.2 38-25.8 41.8-8.6 3-12.7-10.8-3.8-12.9 10.4-2.4 10.6 15.3 0.2 13.1-14.6-3 7.6-28.7 10.5-33.7 15.4-26.3 26.9-54.7 33.2-84.6 6.7-31.5 6.5-63.4 2.9-95.3-1.1-9.2-10.2-38-5.3-45.5 2.1-3.2 6.3-1.6 7.1 1.5z"  fill="#fff" /><path d="M-254.4-166.6c12.2 72.2 8.5 140.7-25.4 206.9-4.7 9.2-15.2 36.2-25.4 39.6-8.7 3-12.6-11-3.7-13 10.5-2.4 10.5 15.5 0.1 13.2-14.8-3.2 8.6-30 11.9-35.4 15.5-26.2 27.3-54.6 34.2-84.3 6.7-28.6 8.4-57.8 5.8-87-0.7-7.4-9.2-37.1-4-42.2 2.4-2.3 5.7-0.6 6.5 2.2z"  fill="#fff" /><path d="M-245.9-205.9c23.3 86.3 18.4 165.3-24.6 245-4.5 8.4-18.6 41.4-29.4 41.2-9.3-0.1-8.3-14.7 0.9-13.6 9.2 1.1 6.6 15.6-2.4 13.4-15-3.5 10.2-31.6 13.6-37 20-32.7 35.2-68.9 43.4-106.4 11.6-52.7-9.1-138.8-8.2-142.5 0.9-3.7 5.5-3.2 6.7-0.1z"  fill="#c2e1ff" /><path d="M-219.3-399.8c20 33.5 34.5 69.6 49.1 105.6 36 89.2 53.7 154.7 4.2 243.6-5.1 9.1-21.6 47.9-32.6 48.4-12.3 0.4-5.1-19.8 4.1-11.7 9.3 8.2-9.9 17.9-11 5.6-1.2-13.1 23.6-40.4 30.2-52.1 19.6-34.6 34.1-71.8 32.4-112.2-2.7-67.9-44.3-159.7-77.3-218.8-0.8-1.5-4.2-15.2 0.9-8.4z"  fill="#fff500" /><path d="M-225.8-29.8c-6.9 17.8-46.4 105.4-61.5 110-10.5 3.2-11.9-15-1.1-13.4 10.8 1.5 4.5 18.6-4.7 12.6-10.6-6.9 16.5-36.3 20.8-43.3 9.4-15.4 26.5-63.7 37.1-72.6 5-4.2 10.8 1.3 9.4 6.7z"  fill="#fff" /><path d="M-220-328.2c27 53 65.8 105.9 70 167.1 4.3 63.1-31.8 119.3-63.1 171.1-7.3 12.1-35 71-49.7 70.5-12.8-0.4-3.9-20.9 5.1-11.7 9 9.1-11.6 17.8-11.8 5-0.1-7.2 30.9-47.5 36.7-56.9 28.6-46 63.2-95.8 72.1-150.2 11.1-67.7-28.9-125.8-59-182.7-0.8-1.5-6-20.5-0.3-12.2z"  fill="#c2e1ff" /><path d="M-211.1-322.2c26.7 51.9 62.6 104.6 64.7 164.8 2.2 62.9-34.8 118.6-66.3 170.1-7.1 11.7-33.8 68-48.1 67.6-12.8-0.4-3.9-20.9 5.2-11.8 9 9.1-11.5 17.8-11.8 5-0.3-13.8 27.4-42 34.9-54 28.9-45.9 63.8-95.3 74.3-149.5 12.8-66.1-22.9-124-52.5-180.1-0.8-1.5-6.1-20.5-0.4-12.1z"  fill="#fff" /><path d="M-199.5-107.3c-5.4 50.6-29.4 100.5-54.6 144-4.7 8.1-23 47.3-34.3 43-10.3-3.8-0.4-19.1 7.3-11.3 7.7 7.8-7.7 17.5-11.4 7.2-3.9-11 31-51.7 37.1-62.8 15.9-29.1 30-59.8 39.3-91.7 2.9-9.8 3.2-21.6 7-31 2.3-5.6 9.7-2.8 9.6 2.6z"  fill="#c2e1ff" /><path d="M-190.4-98.8c-5.4 27.7-65.3 172-88.5 178.8-10.5 3.1-11.8-15.1-1-13.4 10.9 1.6 4.4 18.7-4.8 12.6-10.5-6.9 21-42.8 25.7-50.6 18.6-30.7 35.3-63.2 48-96.8 4.1-10.8 5.6-24 10.7-34.2 2.9-5.8 10.5-2.2 9.9 3.6z"  fill="#fff" /><path d="M-180.9 64.3c-2.1 3.6-13.5 25.6-18.8 11.2-8.3-22.9 29.3 7.5 5.2 4.2-12-1.7-0.4-19.4 3.2-23.2 5.5-5.7 13.1 1.3 10.4 7.8z"  fill="#c2e1ff" /><path d="M-175.2-263.2c55.1 110.9 26 175.4-34.7 274.2-6.7 10.9-38.3 66.3-46.9 69-10.5 3.2-11.9-14.9-1.1-13.4 9.3 1.3 6.4 15.8-2.6 13.5-15.4-3.9 13.8-36 17.7-42 30.7-46.6 66.2-96.8 82.8-150.6 9.9-32 9.5-65.1 0.2-97.2-0.5-1.6-26.3-70.4-15.4-53.5z"  fill="#005bbb" /><path d=""  fill="#005bbb" /><path d="M-155.5-162.2c6.1 63.7-30.7 121.9-61.9 174.4-6.2 10.5-37.6 72.8-50.4 67.9-12-4.5 3-21.1 8.6-9.5 4.8 9.9-12.9 14.1-13.1 3.1-0.2-8.8 62.6-100.1 71.9-117.1 13.3-24.3 26-49.4 32.3-76.6 2.9-12.5-0.5-32.9 4.6-43.8 2-4.2 7.4-2.4 8 1.6z"  fill="#005bbb" /><path d="M-147.6-240c37.5 114.3-11 182.8-70.9 275.8-5.2 8.1-24.9 48-35.8 44.1-12-4.4 2.8-20.9 8.5-9.5 4.9 9.7-12.7 14.2-13 3.3-0.4-12.5 24.3-37.7 31.2-48.5 24.5-37.9 51.3-76 69.5-117.5 12.8-29.2 18.8-60.3 15.7-92.2-1.5-15.3-14.2-41-11.6-55.1 0.7-3.6 5.1-3.3 6.4-0.4z"  fill="#fff" /><path d="M-137.3-161c0.7 23.3-3.7 46.3-11.8 68.2-11.3 30.7-78.4 154.8-101.9 171.7-8.9 6.4-16-10.3-5.3-12.4 12.6-2.4 8.4 19.4-2.4 12.6-10.5-6.7 11.2-28.3 15.3-34.4 21.7-32.3 42.6-65.4 61.9-99.2 11.8-20.6 22.6-42 29.1-64.9 3.4-12.3 1.1-33.2 6.7-43.7 2.3-4.3 7.9-2.1 8.4 2.1z"  fill="#c2e1ff" /><path d="M-128.1-328.7c-4.4 63.3 16.9 126 8.7 188.9-8.2 63.3-49.2 115.7-83 167.6-5.7 8.8-29.6 55.9-40.6 52.1-7.5-2.6-4.8-14.1 3-13.2 9.2 1.1 6.7 15.4-2.3 13.4-15.5-3.5 13.6-36.7 17.6-42.7 31.6-48.1 70.7-96.8 88.7-152 20.7-63.4-1.5-127-2.1-191.3-0.1-7.4-1.4-17.4 0.8-24.5 1.7-5.5 8.9-3.4 9.2 1.7z"  fill="#fff500" /><path d=""  fill="#c2e1ff" /><path d="M-110.4-389.8c0.3 34.7-11.5 68.4-12.2 103.1-1.1 50.2 12.6 100 5.1 150.2-8.2 55.2-41.2 101.1-71.2 146.6-4.6 7-19.3 39.1-29.4 35.9-7.4-2.4-5.1-13.8 2.7-13.1 9.1 0.8 7 15.1-2 13.3-15.2-3.1 9.7-31.7 13-36.7 28.1-42.8 61.3-85.7 74.2-136.2 15-58.5-4.3-117.5-1.1-176.6 1.5-27.5 4.3-61.6 12-88 1.5-5.4 8.5-3.5 8.9 1.5z"  fill="#fff" /><path d=""  fill="#fff500" /><path d="M-91.6-361.2c-41.4 133.5-5.1 139.5-23.6 233.7-11.5 58.3-49.5 106.6-81.4 155.1-4.9 7.4-21.3 42.6-31.6 39.3-11.9-3.9 2-20.6 7.9-9.6 5.1 9.4-11.9 14.3-12.6 3.6-0.4-5.7 88.8-137.9 99-164.3 24.9-64.2 3.2-129.7 13-195.5 3-20.4 8-49.4 19.1-67.1 3.7-5.9 11.4-1.3 10.2 4.8z"  fill="#fff" /><path d="M-83.3-189.6c-8.5 97-28.1 137.1-79.8 218.1-7.1 11.1-20.5 45.9-32.3 50.8-9.5 4-12.6-12.9-2.3-12.4 10.3 0.4 6 17-3.2 12.2-11-5.6 10.2-31 13.8-36.9 21.5-35.6 46.6-69.3 65.2-106.5 31-62 17.2-91 29.3-127.2 1.9-5.6 9.1-3.3 9.3 1.9z"  fill="#c2e1ff" /><path d="M-74.2-137.5c-6.4 66.3-33.7 120.5-65 178.1-5.9 10.8-11.1 28.6-19.8 37.2-8.2 8.2-16.2-10.4-4.6-10.7 9.9-0.2 6.8 15.9-2.3 12-11.7-5.1 45.3-99.2 51.6-112.1 10.9-22.7 19.6-46.5 24.8-71.2 2.1-9.6 0.9-28.6 6.3-36.5 3-4.5 8.9-1.4 9 3.2z"  fill="#fff500" /><path d=""  fill="#c2e1ff" /><path d="M-55.6-333.4c-60.1 94.4-27.8 124-50.9 217.6-14.5 58.8-54.2 107.1-86.5 156.9-4.9 7.5-20.8 42.1-30.8 39-11.9-3.7 1.7-20.5 7.8-9.6 5.2 9.2-11.6 14.4-12.4 3.8-1.2-15.6 82.6-127 95.4-152.5 32.7-65.2 14.2-134 34.6-201.1 6-19.7 17.3-48.1 32.6-62.6 5.9-5.6 13.4 2 10.2 8.5z"  fill="#fff500" /><path d="M-47.8 43.9c0.1 5.9 4.6 35.3-5 34.4-6.3-0.6-4.8-10.4 1.3-9.1 6.2 1.3 3.7 10.9-2.3 8.9-11.8-3.8 2.6-59.3 6-34.2z"  fill="#005bbb" /><path d="M-37.9-210.5c-21.3 65.8-7.6 151.2 4.9 217.8 1.5 8.2 17.6 69 10.1 69.8-4.4 0.5-5.9-6-1.7-7.4 4.9-1.7 7.2 6.2 2.1 7.4-7.7 1.7-8.4-23.9-9.5-28.7-15.7-74.7-29.7-153.7-22.2-230.4 3.5-35.4 18.7-44.6 16.3-28.5z"  fill="#fff500" /><path d=""  fill="#fff" /><path d=""  fill="#005bbb" /><path d="M-12-170.2c-0.3 28.7 8.5 57.4 23.2 82 30.5 50.6 86.5 77.6 111.8 132.5 2.2 4.7 14.9 28.2 9.1 31.8-5.3 3.3-7.3-7.4-1.1-6.2 5.3 1.1 1.7 9.2-2.7 6-3.1-2.3-18.1-45.9-23.2-54.2-29.1-48-82.4-74.4-108.1-125.3-8.8-17.4-21.9-47.3-17.7-67.3 1.1-5.3 7.9-4 8.7 0.7z"  fill="#c2e1ff" /><path d=""  fill="#c2e1ff" /><path d=""  fill="#fff500" /><path d="M12-38.2c8.7 11.9 101.8 102.8 89 113.9-3.4 2.9-6.9-3.6-2.6-4.8 4.3-1.2 4.7 6.1 0.3 5.4-5.6-0.9-20.8-34.9-25.3-41-18.8-24.9-43.1-44.8-62.8-69-1.8-2.2-1.9-7.9 1.4-4.5z"  fill="#fff500" /><path d="M24.6-211.9c-7.4 28-4.7 56.9 8.1 83 32.4 66.2 93.9 89.2 114.8 169.5 1.5 5.7 11.3 33.6 4.6 36.7-5.6 2.6-7.8-7.5-1.6-7.5 7.2 0 2.5 11.7-2.7 6.7-3.5-3.3-13.4-57.8-17.7-68.5-24.2-60.6-87.9-92.5-110.7-153.3-7-18.7-14.1-50.9-4.8-70 2.9-5.9 10.6-2.3 10 3.4z"  fill="#005bbb" /><path d="M29.9-93.2c38.1 52.3 91 80.9 110.5 146.6 1.4 4.8 6.9 16.5 4.7 21.3-2.4 5.3-10.1-0.6-5.6-4.3 3.8-3.2 8.5 3 4.4 5.8-7 4.8-8.4-14.6-9-17-5.6-22-13.7-43.3-26.2-62.3-21.7-33.1-55.1-55.4-80.1-85.6-1.8-2.2-2-7.8 1.3-4.5z"  fill="#fff" /><path d=""  fill="#fff" /><path d="M49.5-390.9c34.2 108.4-59.8 168.9-22.3 256.9 22.1 51.9 75.1 80.9 101.6 130 1.8 3.4 14.8 23.6 7.9 25.7-4.8 1.5-5.4-6.8-0.5-6.1 4.9 0.7 2.1 8.4-2.1 5.7-7.7-4.9-14.3-31.7-19.7-40.3-35.1-55.3-100.8-88.7-105.4-160.7-3.5-56 37.3-100.9 40.5-155.7 0.7-11.9-8.4-75.6 0-55.5z"  fill="#005bbb" /><path d=""  fill="#fff" /><path d="M66 51.8c2.1 3 17.1 21 11.6 23.7-3.2 1.5-5.3-3.6-2-4.8 3.3-1.2 4.8 4.1 1.5 5-8.1 1.9-16.5-30.2-11.1-23.9z"  fill="#005bbb" /><path d="M77.7-205c-4.2 79.7 76.3 134 88.1 237.7 0.8 6.8 8 42.1 0.5 44.6-6.4 2.2-7.7-9-0.9-8.2 7.9 0.8 1.4 13-3.7 7-3.9-4.6-8.2-76.1-11.6-89.9-13.4-54.1-54.3-92.3-73.1-143.5-4.8-13.2-11.9-34.6-8.3-48.8 1.4-5.4 8.4-3.7 9 1.1z"  fill="#005bbb" /><path d="M83.8 35.8c3.2 4.2 27.9 37.8 20.6 40.6-3.1 1.2-5.4-3.2-2.6-5.1 3.2-2.2 6.4 3.1 2.9 5-5.1 2.7-9.1-12.6-10.4-15.1-4.2-8.1-16.8-32.1-10.5-25.4z"  fill="#fff" /><path d="M117.7-399.5c39.1 56.4 39.4 119.8 63.1 181.6 17.7 46 56.9 79.4 74 125.3 4.6 12.4 17.5 73.3-0.7 79.8-9.6 3.4-9-14.2 0.4-10.1 9.3 4.1-3.3 16.5-7.3 7.1-3.2-7.7 11.9-56.3-5.8-93.1-19.5-40.5-52.9-71.8-69.2-114.4-19.3-50.7-20-105.7-46.4-154.1-3.5-6.5-9.6-13.3-12-20.2-0.9-2.5 2.4-3.8 3.9-1.9z"  fill="#fff" /><path d="M140.3-399.6c37.9 64.3 32.8 145.2 78.4 205.2 23.1 30.5 105 94.8 91.6 138.2-2.1 6.7-12.2 1-7.5-4.3 4.7-5.2 11.5 4.3 5 7-9.1 3.9-7-20-7.7-23.8-3.3-18.4-12.2-35-23.6-49.6-27.8-35.6-64.9-61.4-85.2-103-22.5-46.4-24.2-99.6-45.1-146.7-3-6.8-8.5-14-10.4-21.1-0.8-2.9 3-4.1 4.5-1.9z"  fill="#005bbb" /><path d="M110.9 14.8c7.1 10.6 31 46.9 25.8 60-2 5.1-9.6 0-5.6-3.8 4-3.8 8.7 4 3.5 5.8-6.7 2.2-10.9-24-12.6-28.2-4.2-11.1-18.5-43-11.1-33.8z"  fill="#fff500" /><path d=""  fill="#005bbb" /><path d="M157.9-399.7c28.5 64.3 25.8 142.6 72.5 198.1 35.5 42.2 92.9 68.4 105.3 126.7 1 4.6 4.2 13.6 1.3 17.7-3.9 5.7-11.7-2.7-5.8-6.2 5.1-3 9.4 5.3 4 7.7-9 4.1-7-18-7.7-21.7-3.2-18.3-11.8-35.1-23.3-49.6-32.6-40.7-80.1-64.5-104.2-112.8-23.6-47.3-25.5-102.3-44.9-151.3-1-2.5-1.8-16.7 2.8-8.6z"  fill="#fff" /><path d=""  fill="#fff500" /><path d="M148-188c31.7 112.1 59.9 87.9 45.2 226.1-0.7 6.8 0.5 38.8-7.4 40.3-7.5 1.4-7.1-11.2 0.3-9.3 8.6 2.2-0.4 14.7-5.2 7.2-5.3-8.3 9.3-106.4 7.6-127.1-2.4-30.9-47.9-131.9-47-136.8 0.7-3.6 5.2-3.3 6.5-0.4z"  fill="#c2e1ff" /><path d="M157.3-237.8c10.8 55.7 47.9 98 62.9 151.5 11.8 42.4-0.1 84.2-9.4 125.8-1.5 6.8-3.3 38.1-11.5 38.8-8.1 0.8-6.5-12.6 1.1-9.9 9 3.1-1.8 15.7-6.2 7.2-6-11.6 23.8-113.6 21.9-140.6-3.5-49.5-37.4-88.2-54.7-133.1-4.3-11.1-11.7-27-11.4-39 0.1-4.5 6-4.4 7.3-0.7z"  fill="#005bbb" /><path d="M165.4-102.1c16.4 37.6 30.3 144 17.6 177-3.1 8-14.1-2.1-6.3-5.9 6.6-3.2 9.4 8.7 2.1 8.9-8.3 0.1-1.5-86.1-1.9-97.4-0.9-29.2-13-53.3-17.1-81.1-0.5-3.6 4.1-4.4 5.6-1.5z"  fill="#005bbb" /><path d="M174.9-388.9c16.3 56.4 17.9 121.9 54 170.4 34 45.7 94.3 67.8 117.2 122.2 9 21.4 13.3 110.4-8.9 108.8-6.7-0.5-7.1-10.5-0.5-11.5 6.7-1 9.2 8.7 2.9 11.2-15.4 5.9 1.6-36.3 2.6-40.7 6.1-27.1 4.8-55.1-8.1-80.1-29.7-57.6-99-79.5-128.3-138.6-12.4-25-36.8-113.5-37.6-140.7-0.1-4.2 5.3-4.4 6.7-1z"  fill="#fff500" /><path d="M186.7-399.2c7.5 49.6 11.6 105.9 34.5 151.2 39.9 79 153.3 99.1 148.4 202.7-0.3 6.1 0.7 25.6-6.2 28.4-9.1 3.7-9.3-13.4-0.1-9.9 9.2 3.5-2.4 16.1-6.7 7.2-2.9-6.1 8.9-58.2-7.8-91.3-31.3-61.9-107.7-81.6-137.8-145.6-7.2-15.3-36.7-135.9-31.4-144.2 2.1-3.2 6.2-1.7 7.1 1.5z"  fill="#fff" /><path d="M191.9-398.5c6.4 65.1 12.5 141.1 61.7 189.3 27.1 26.5 61.9 44 87.4 72.2 5.5 6.1 40.4 53.4 28.1 59.8-5.2 2.7-7.8-6.8-1.9-7 5.9-0.3 4.2 9.4-1.2 7.2-4.9-2-5-15.1-6.5-19.7-3.8-11.3-9.4-21.9-16.3-31.6-37-51.5-102.6-71.2-130.4-131.3-19.2-41.5-25.2-92.9-29-138.1-0.5-5.4 6.9-5.9 8.1-0.8z"  fill="#005bbb" /><path d="M203.3-10.5c-0.9 10.5-7.4 90.1-16 88.7-6.5-1-4.3-11.2 2-9.5 6.4 1.7 3.1 11.7-3 9.2-8.4-3.3 4.1-80.7 7.6-90.5 2-5.6 9.3-3.1 9.4 2.1z"  fill="#fff" /><path d="M210.1-253.2c23 55.6 76 78.5 114.1 121.1 52.7 58.7 26.8 129.6-0.5 193.3-1.9 4.5-7.8 25.4-16.5 16.5-16-16.6 28.2-4.7 6.1 1.6-16.8 4.8 2.6-30.6 4-34 17.5-41.1 38.5-87.9 26.2-133.3-15.7-57.7-75.1-81.5-112.2-122.9-10.7-11.9-19.7-25.4-26.4-39.9-1.6-3.4 3.3-5.4 5.2-2.4z"  fill="#fff500" /><path d="M219.4-276.1c20.4 61.5 75 83.9 119 125.2 48.3 45.3 50.5 103.3 34.1 163.8-2.9 10.7-10.3 61.8-20.4 65.4-9.6 3.4-8.9-14.3 0.4-10.2 9.3 4.2-3.4 16.5-7.3 7.1-4.6-11.1 10.1-42 13.4-53.6 10.7-37.9 22.2-77.6 10.6-116.6-19-64.2-85.5-85-126.6-131-27.7-31-29.9-63-23.2-50.1z"  fill="#c2e1ff" /><path d="M230.8 51.8c-1.9 5.7-4.9 30-14.4 26.7-7.1-2.5-2.6-13.5 4.2-10.3 6.8 3.2 1.2 13.7-5.2 9.8-15.3-9.4 20.3-50.9 15.4-26.2z"  fill="#005bbb" /><path d="M203.7-398.3c-1.5 62.1 7.4 136.4 53.5 182.2 17.5 17.4 117.2 85.5 113 106.3-0.9 4.3-7.5 1.4-5-2.2 2.6-3.6 7.4 1.9 3.6 4.1-2.1 1.2-26.7-36.2-31.1-40.8-41.5-42.7-98.3-63.5-122.3-122.1-15.8-38.6-21.5-85.9-20.7-127.5 0.1-6 8.3-5.6 9 0z"  fill="#fff500" /><path d="M246.8-309.8c13.3 71.3 78.3 93 123.9 139.7 52.8 54.1 50.7 118 42.3 187.9-1 8 1.4 57.4-3.5 59.4-6.8 2.9-7-9.9-0.2-7.3 8 3-4.1 12.8-5.3 4.2-8.9-61.6 18.7-123.3-1.4-183.9-23.7-71.2-92-91-136.1-144.4-10.9-13.3-27.1-36.8-26.9-54.8 0.1-4.5 5.8-4.5 7.2-0.8z"  fill="#fff500" /><path d="M256.8-51.8c0.1 15.1-27.5 134.8-40.7 130.2-7.1-2.4-2.7-13.4 4.1-10.2 6.8 3.2 1.2 13.7-5.2 9.7-9-5.5 10.1-46.4 12.9-54.6 4.9-14.1 16.8-71.7 20.4-77.6 2.6-4.4 8.2-1.8 8.5 2.5z"  fill="#005bbb" /><path d="M266.7 12.2c-3.5 9.2-23.6 70.6-33.3 66.4-7.3-3.2-1.7-14.4 5.2-10.5 6.9 3.9 0.1 14.5-6.3 9.8-7.3-5.3 18.1-66.4 25-72.4 5-4.3 10.8 1.2 9.4 6.7z"  fill="#fff500" /><path d="M275.6-5.1c-3.5 10.9-30 88.1-40.1 83.6-7.3-3.2-1.6-14.5 5.4-10.4 6.9 4 0 14.5-6.5 9.8-8-5.9 24.7-78.5 30.9-88 3.8-5.9 11.5-1.1 10.3 5z"  fill="#fff500" /><path d=""  fill="#c2e1ff" /><path d="M291.7-76.6c9.7 39.8-7 79-22.9 114.6-3.2 7.2-14.8 45.9-24.8 41.1-6.3-3-2.8-12.8 3.9-11.2 7.9 1.9 4.3 14.2-3.3 11.5-11.1-3.9 26.2-76 30.2-86.9 8.2-22.3 10-91.8 16.9-69.1z"  fill="#fff500" /><path d=""  fill="#005bbb" /><path d=""  fill="#fff500" /><path d="M287.1-396.8c-55.2 135.1 104.8 156.4 147.4 282 3.3 9.8 15.7 40.4 9.7 49.9-3.5 5.6-11.3-2.1-5.8-5.7 4.7-3.1 9.2 4.6 4.2 7.2-8.6 4.4-7.7-19-8.2-22.2-3.1-19.7-9.2-38.9-17.6-57.1-34.8-75.2-115.1-101.1-140.1-164.9-9.7-24.8-15.8-70.4 0-94.4 3.9-6 11.8-1 10.4 5.2z"  fill="#fff500" /><path d="M278.3-396.6c-14.4 33-15.4 72.7-0.3 105.7 30 65.6 110.1 83 144.7 166 2.1 5.1 14.7 31 8 34.5-5.1 2.7-7.7-6.6-1.9-6.9 5.8-0.3 4.3 9.2-1.1 7-5.3-2.1-6.4-19.9-8.1-24.9-6.2-19-15.3-37.1-26.7-53.4-38.9-55.7-115.1-79.7-131.3-151-5.1-22.6-7.8-62.1 6.3-82.4 4.1-6 12-0.8 10.4 5.4z"  fill="#005bbb" /><path d="M337-398.7c-2.8 72.9 74.3 101.6 106.7 156.8 12 20.4 96.4 236.7 86.3 239.3-4.4 1.1-5.7-5.9-1.2-6.6 3.8-0.5 5.2 5.1 1.5 6.5-7 2.6-13.1-32-14.5-37-11.4-38.9-26.6-76.2-41.4-113.9-15-38.3-26.5-79.9-52.6-112.6-25.4-31.8-63.7-52.1-82.4-89.2-5.8-11.4-14-31-11.2-44.1 1.2-5.3 8.1-3.9 8.8 0.8z"  fill="#c2e1ff" /><path d="M343-142.1c51.8 54.1 36.2 120.3 17.1 184.8-2.1 6.9-6 36.3-14.9 36.2-10.4-0.2-3.4-16.8 4-9.6 6.3 6.2-6 14.3-9.2 6-3.9-10.1 28.2-99.6 30.2-121.1 2.3-25-1.9-50.2-14.2-72.2-1.4-2.5-17.8-28.4-13-24.1z"  fill="#fff500" /><path d="M351.7-287c66.6 66.7 95.1 97.3 120.4 192.1 11.1 41.8 7.7 86.3 20.1 127.6 3.4 11.4 8.4 22.3 15 32.2 0.8 1.2 8.9 9 4.4 10.4-2.4 0.7-3.3-3.1-0.8-3.6 2.1-0.4 3 2.7 1 3.5-5.4 2.3-18.9-24.9-20.9-29-22.6-47-17.4-124.8-40-185.4-21.7-58-50.9-99.4-96.1-141.1 0 0-7.8-10.2-3.1-6.7z"  fill="#fff" /><path d="M362.2-110.2c22.5 42 13.4 88.4 0.1 131.8-2.7 8.8-12.4 57.7-22.5 57.2-10.6-0.5-3-17.2 4.3-9.6 6.3 6.5-6.5 14.4-9.5 5.8-3-8.6 25.2-83.2 28.6-99.1 3.8-17.9 5.5-36.4 2.6-54.6-1.4-9.1-9.3-21.8-8.8-30.4 0.1-3 3.8-3.2 5.2-1.1z"  fill="#fff" /><path d="M371.9-399.9c16.1 48.9 73.1 65.4 102.4 104.4 36.6 48.7 38.5 114.8 74 165.4 13.2 18.8 28.8 35.5 44.7 52 1.5 1.6 8.3 5.8 6.7 8.5 0 0.1-0.5 0.5-0.6 0.5-3.1 1.7-14.5-13.4-16.7-15.7-80.3-83.3-59.6-102.9-101.8-190.9-20.7-43.1-61.9-60-93.8-92.4-8.5-8.7-15.4-18.4-20.5-29.5-1.7-3.6 3.7-5.7 5.6-2.3z"  fill="#fff500" /><path d="M378.5-299.9c17.8 16.3 36.2 31.7 50.4 51.3 35.9 49.6 62.3 132.4 78 191.7 7.6 28.5 11.7 58.1 22.8 85.5 5 12.4 11.5 24 19.2 34.9 0.8 1.1 10.4 10.3 6 11.8-2 0.6-3.3-2.2-1.5-3.3 2.1-1.2 3.9 2.2 1.7 3.2-5.8 2.6-24.6-32.1-27.1-36.9-16.3-31.4-42.5-144-63-196.6-15-38.7-28.6-78.7-56.9-109.9-9.7-10.7-41.4-40-29.6-31.7z"  fill="#fff500" /><path d="M387.4-338.9c24.6 23.2 53.5 40.5 72.1 69.5 22 34.2 29.4 75.8 45.3 112.8 15 34.8 34.9 66.7 54 99.3 6.5 11.1 44.4 76.6 42.7 84.7-0.9 4.3-7.7 1.3-5-2.3 2.7-3.5 7.5 2.1 3.5 4.2-4.6 2.5-26.6-49.5-29.9-55.8-21.1-40.8-47.5-78.7-67.1-120.4-14.5-30.7-23.2-63.3-35.7-94.8-15.9-40.4-44.2-63.7-76.3-90.9-1.9-1.6-5.6-7.7-3.6-6.3z"  fill="#c2e1ff" /><path d="M396.8-238.1c44.7 47.6 71.4 119.8 79.5 183.9 3.5 27.8 2.5 56.5 9.4 83.8 2.9 11.5 7.3 22.6 13.5 32.9 0.9 1.5 10.3 11.5 5.6 12.8-2.5 0.7-3.4-3.3-0.9-3.7 2.6-0.4 3 3.6 0.5 3.8-7.1 0.4-18.6-26.7-20.9-32.2-19.9-47.1-11.8-102.3-25.8-151.5-11.8-41.6-29.7-85-56.5-119.2 0 0-9.9-15.4-4.4-10.6z"  fill="#005bbb" /><path d=""  fill="#fff" /><path d="M414.2-305.9c62.1 52.2 74.8 138.4 110 208.3 7.5 14.8 79 160.7 75.4 162.5-3 1.5-5.1-3.3-2-4.5 3.1-1.2 4.7 3.8 1.5 4.7-4.2 1.1-6.7-8-8.1-10.4-31.8-56.6-98.4-200.9-119.4-261.9-10.6-30.7-22.4-60.1-45.2-83.8-1.3-1.3-16.4-17.7-12.2-14.9z"  fill="#005bbb" /><path d="M424.6-189.2c44.2 76.1 39.6 124.2 50.5 205.9 2.1 15.7 6.3 31.1 13.9 45.1 0.9 1.7 10.4 12.5 5.4 13.7-2.7 0.7-3.5-3.6-0.8-3.9 2.7-0.4 3.1 3.9 0.3 4-11.9 0.4-23.9-44.9-25.7-53.6-7-34.4-3.8-70-10.1-104.7-8.1-44.3-29.1-70.9-38.1-104.6-0.8-3 3-4.1 4.6-1.9z"  fill="#c2e1ff" /><path d="M434.9 58.2c0.7 3.7 6.2 15.1 2.2 17.8-4.2 2.8-7.3-5-2.3-5.9 4.3-0.7 5 6.2 0.6 6.4-13.9 0.7-5-30.7-0.5-18.3z"  fill="#005bbb" /><path d="M442.8-215.2c36.8 72.6 51.5 148.8 72.4 226.3 4.9 18 12.3 35.1 22.9 50.5 1.3 1.8 12.3 12.3 7.6 13.8-2.3 0.8-3.3-2.9-0.9-3.4 2.3-0.5 2.9 3.2 0.6 3.5-3.9 0.4-10.8-11.9-13-14.8-30.5-41.8-31.8-94.2-45.3-142.5-12.3-43.7-29.1-87.3-48.1-128.5-1.6-3.5 0.6-9.8 3.8-4.9z"  fill="#c2e1ff" /><path d=""  fill="#c2e1ff" /><path d="M460.8 64.8c0.9 2.2 6.1 9 2 10.8-3.7 1.7-5.2-5-1-4.9 4.1 0 2.6 6.7-1.2 4.9-9.3-4.4-3.5-16.6 0.2-10.8z"  fill="#fff" /><path d="M468.3-317.1c45.3 44.5 44.6 114.4 77.7 166.5 12.3 19.3 27.5 36.4 44.1 52.2 1.8 1.7 10 7.3 9.6 9.8-0.1 0.4-0.3 0.7-0.6 0.9-2.7 1.7-14.7-12.3-16.8-14.3-49.4-47.5-64.9-100.1-87.2-162.4-5.7-16-26.7-41-29.4-51.2-0.4-1.7 1.5-2.4 2.6-1.5z"  fill="#fff500" /><path d="M480.1-55.5c4.7 32.5 3.3 66.7 15.2 97.7 1.7 4.3 18.2 32.6 16.3 33.2-2.4 0.7-3.3-3.1-0.9-3.6 2.5-0.5 3 3.4 0.5 3.7-20.5 1.6-35.6-89.5-39-130-0.4-5.2 6.6-5.9 7.9-1z"  fill="#c2e1ff" /><path d=""  fill="#c2e1ff" /><path d="M497.2-87c13.1 40.3 16.7 84.5 34.4 123.1 2.3 4.9 23.2 38.9 22.1 39.3-2.3 0.8-3.3-3-0.9-3.5 2.4-0.5 3 3.3 0.5 3.6-4.1 0.4-11.6-13.1-13.7-16-29.9-41.8-35.5-96-48.7-144.5-1.1-4.2 4.6-5.8 6.3-2z"  fill="#fff500" /><path d="M505.3 47.7c1.8 3.7 17.3 25.8 15.2 27.4-2 1.4-4.1-1.8-1.9-3 2.1-1.2 3.9 2.2 1.6 3.2-3.8 1.7-19.8-22.1-19.8-26.3 0-2.9 3.5-3.3 4.9-1.3z"  fill="#c2e1ff" /><path d="M514.1 49.7c1.7 3.3 17.1 23.6 14.8 25.3-1.9 1.4-4-1.7-2-2.9 2.1-1.2 3.8 2.1 1.7 3.1-3.7 1.7-18.9-20.4-19.1-24.1-0.1-2.7 3.2-3.3 4.6-1.4z"  fill="#fff500" /><path d="M524.2-2c5.8 21.6 14 42.3 26.5 61 1.7 2.5 11.9 12.7 9.8 15.6-1.4 2-4.5-0.4-2.8-2.3 1.9-2.2 4.8 1.7 2.1 2.9-3.7 1.6-10.9-11.4-12.6-13.8-13.5-18.5-23.5-39.4-29.6-61.4-1.2-4.4 4.9-5.8 6.6-2z"  fill="#fff500" /><path d=""  fill="#fff" /><path d="M542.2-285.9c9.3 34.7 15.2 70 34.2 101.1 2.5 4 23.6 32.1 22.6 32.5-0.1 0-0.2 0.1-0.4 0.1-3.5 0.6-11.5-11.2-13.6-13.8-13.3-15.7-58.4-103-49.3-120.6 1.6-3.1 5.4-2 6.5 0.7z"  fill="#fff" /><path d="M549.5-95.2c7 10.1 52.3 69.7 51.5 76.3-0.5 3.9-6.6 1.7-4.6-1.6 2.1-3.3 6.7 1.2 3.5 3.4-1.8 1.2-47-66-52.3-73.5-1.7-2.5-1.4-8.4 1.9-4.6z"  fill="#c2e1ff" /><path d="M560.4-320.7c6.9 35 9.8 71.3 23.8 104.5 1.8 4.3 18.2 32.2 14.8 33-2.4 0.6-3.6-2.9-1.4-4 2.6-1.2 4.3 3 1.6 3.9-4.2 1.5-8.8-9.9-10.4-12.5-11.1-17.9-42-119.5-34.7-126.8 2.3-2.3 5.5-0.8 6.3 1.9z"  fill="#fff500" /><path d="M569.4-398.4c2.3 48.3 5.6 99.7 16.3 147 1.4 6.2 16.2 47.1 13.3 47.4-3.5 0.4-3.8-5.2-0.3-5.2 3.5 0 3.2 5.6-0.3 5.2-4.9-0.6-8.6-14.5-10.3-18.5-9.2-21.7-34.5-160.3-26.8-177.4 1.9-4.3 7.4-2.5 8.1 1.5z"  fill="#005bbb" /><path d="M577.1 28.8c2.5 5.3 25.6 44.6 22.8 46.1-2.7 1.5-4.9-2.9-2.1-4.1 2.9-1.2 4.6 3.4 1.6 4.3-4.4 1.3-8.4-10.2-10.1-12.8-21.4-35-17.1-40.9-12.2-33.5z"  fill="#c2e1ff" /><path d="M588.2-383.8c-2 41.8-1.7 85.9 6.4 127 1.1 5.4 9.6 24.8 6.5 29-2.9 4-8.4-2.2-4-4.6 4.3-2.4 6.7 5.5 1.7 5.9-18.5 1.4-24.3-142.6-19.7-158.8 1.5-5.4 8.6-3.6 9.1 1.5z"  fill="#fff500" /><path d="M594.6-398.1c-4.7 42.9-5 88.4 1.5 131.1 0.8 5.6 8.6 26 5.1 30.1-3.3 4.1-8.8-2.8-4-5.1 4.8-2.3 6.8 6.2 1.5 6.3-18.8 0.4-19.2-148.1-13.5-164.5 1.9-5.6 9.3-3.2 9.4 2.1z"  fill="#c2e1ff" /><path d=""  fill="#005bbb" /><path d=""  fill="#c2e1ff" /><path d=""  fill="#005bbb" /><path d=""  fill="#c2e1ff" /><path d=""  fill="#005bbb" /><path d=""  fill="#005bbb" /><path d=""  fill="#005bbb" /><path d=""  fill="#c2e1ff" /><path d=""  fill="#005bbb" /><path d=""  fill="#005bbb" /><path d=""  fill="#fff" /></svg>