<svg width="1200" height="675" viewBox="-500 -500 1200 675" xmlns="http://www.w3.org/2000/svg"><path d="M-500-500h1200v675h-1200z" fill="#000"/><path d=""  fill="#c2e1ff" /><path d=""  fill="#c2e1ff" /><path d=""  fill="#fff500" /><path d=""  fill="#005bbb" /><path d=""  fill="#fff500" /><path d=""  fill="#c2e1ff" /><path d=""  fill="#fff" /><path d=""  fill="#fff500" /><path d=""  fill="#c2e1ff" /><path d=""  fill="#fff" /><path d=""  fill="#fff500" /><path d=""  fill="#fff" /><path d=""  fill="#c2e1ff" /><path d="M-392.7-337c-3.6 78.6 28.6 106.9 8.3 214.6-1.4 7.5-5.6 45.7-14.3 45.9-7.7 0.1-5.1-12.4 1.9-9.3 8.2 3.7-3 14.6-6.4 6.3-2.3-5.6 16.2-83.3 17.4-98.2 4.4-54.2-13.8-103.7-14.9-157-0.1-6 7.2-9.3 8-2.3z"  fill="#fff500" /><path d="M-383.9-64.3c-2.2 6.2-7.1 31.3-15.1 30.7-7-0.5-5.6-11.5 1.4-10.2 8 1.5 2.7 14-4 9.3-12.4-8.8 23.3-54.8 17.7-29.8z"  fill="#fff" /><path d=""  fill="#fff500" /><path d="M-369.4-342.6c4.6 38 24.1 72.3 29.5 110.3 9.5 67.2-9.9 131.3-38 191.6-3.2 6.8-13.3 39.6-21.5 38.6-8.4-1.1-3.7-14.3 3.5-9.8 8.4 5.2-5.5 15.4-8 5.8-3-11.7 17-41.1 22.1-52 15.4-33.5 28-67.7 33.2-104.3 11.6-81.4-16.5-107.9-27.7-179-0.7-4.5 5.6-5.3 6.9-1.1z"  fill="#005bbb" /><path d="M-362-277.8c23.2 77 10.6 152.6-19.1 225.9-2.6 6.3-9.8 35.2-18 34.3-8.3-0.9-3.9-14 3.2-9.7 8.4 5-5.1 15.3-7.7 5.9-1.9-6.8 37.4-103.8 41-123.4 8.5-44.9 5.7-87.3-5.2-131.4-1-3.9 4.3-5.1 5.8-1.6z"  fill="#fff500" /><path d="M-353.9-348.8c7.9 36.4 29.2 68.1 35.5 105.1 13.5 78.5-15.1 151-53.1 217.9-4.1 7.3-19.8 46.8-27.8 45.6-8.5-1.2-3.4-14.5 3.8-9.9 8.4 5.5-5.9 15.5-8.2 5.8-2.3-9.5 32.7-65.3 39.2-77 17.4-31.2 30.3-63.9 36.6-99.2 14.8-84.3-9.7-109.7-31.4-184.5-1.3-4.5 3.3-9.3 5.4-3.8z"  fill="#fff" /><path d="M-358.6-397.8c-13.8 66.2 33.8 123 35.6 188.6 1.6 58.2-15.4 112.8-42.4 163.7-3.6 6.9-18.9 45.2-27.6 40.3-5.6-3.1-1.8-12 4.3-10.1 6.1 1.9 4.4 11.3-2.1 10.8-13.4-1 8.3-33.1 11-38 21.2-39.7 39.3-79.2 45.8-124.2 14.6-100.4-26.7-117.8-34.8-195.8-1.1-10.8-3-27.6 1.5-37.9 2.2-5.1 9-2.4 8.7 2.6z"  fill="#fff" /><path d="M-337.8-377.7c6.6 41.4 35.7 74.8 44 115.9 18.2 89.9-21.6 174.2-70.3 246.3-5.3 7.8-27.8 55.2-35.2 54.1-9.9-1.5-1.1-16.6 5.1-8.6 6.2 7.9-10.6 12.8-9.7 2.8 2.8-28.4 35.6-63.2 51.2-86.1 23.4-34.5 39.4-71.1 47.6-112.1 23.6-118.6-9.9-109.9-36.9-202.1-1.3-4.5 0.9-19.8 4.2-10.2z"  fill="#fff" /><path d="M-328.7-163.4c-3.9 31.7-50.3 162.9-67.2 172.4-7.4 4.2-11.5-9.4-3-10.1 8.5-0.7 6.5 13.3-1.5 10.4-11.1-4.1 21.1-56.9 25.2-64.9 11.2-21.7 21.5-43.8 28.5-67.3 3.4-11.5 3.3-34.4 10-43.7 2.9-4 8.1-1 8 3.2z"  fill="#fff500" /><path d=""  fill="#fff" /><path d="M-313.5-399.5c7.8 38.8 35.6 69.8 45.9 107.9 18.3 67.8-5.2 162.5-40.8 221.6-5.5 9.1-27 48.4-38.5 47.4-11.7-1.1-2.4-19.3 5.3-10.5 7.8 8.8-11.5 15.7-11.1 4 0.2-6.5 36.9-50.4 43-61.8 19.9-36.9 29.4-79.7 36-120.8 15.3-96.5-22.4-105.2-45.3-184-1.3-4.6 3.4-9.3 5.5-3.8z"  fill="#fff500" /><path d="M-307.2-345.1c11.6 22.1 23.7 43.7 29.3 68.3 14.6 63.6-4.5 146.4-36.1 202.4-14.5 25.7-33.9 48-51.1 71.9-5.4 7.5-27.1 53.1-34.4 52-9.9-1.4-1.2-16.5 5-8.6 6.2 7.9-10.5 12.8-9.6 2.8 2.3-24.9 89.4-123.2 107.8-191 12.1-44.8 21.6-95.5 9-141.1-2.6-9.4-29-69.6-19.9-56.7z"  fill="#005bbb" /><path d="M-296.5-44.9c-27.9 34.6-64.3 60.6-86.4 100-2.8 5-9.1 27.2-17.3 23.2-6.5-3.1-1-13.1 5.1-9.2 6.1 3.8-0.4 13.1-6.1 8.6-18.3-14.3 79.8-125.5 97.5-132.6 6.5-2.6 10.6 4.9 7.2 10z"  fill="#fff" /><path d="M-288.9-172.2c-11.6 67.1-43.6 114.2-80.5 169.5-4.6 6.9-24.1 49.6-31.7 45.6-7.6-3.9 1.4-14.9 6.7-8.1 6.2 7.9-10.5 12.8-9.7 2.8 2.9-30.8 51.3-82.7 68.4-109.9 13.9-22.2 38.3-102.9 38.7-103.5 3.1-4 8.4-0.7 8.1 3.6z"  fill="#005bbb" /><path d="M-280.7-143.7c-15.9 60.9-51.9 101-87.4 150.9-5 7-26 50.6-33 47-8.9-4.5 4.1-16 7.4-6.6 2.9 8-11.1 9.8-10.4 1.4 2.8-31.3 52.1-81.7 71.1-107.1 13.9-18.6 44-90.3 44-90.2 3.7-3.9 9 0 8.3 4.6z"  fill="#fff500" /><path d="M-272.9-10c-23.9 23-53.3 39.6-76.4 63.6-4.5 4.7-21.5 33.3-28.6 23.3-4-5.6 3.8-12.4 8.9-7.7 5.9 5.4-3.1 14.3-8.5 8.2-12.8-14.5 82.4-94.9 98.3-99 7.3-1.9 10.5 6.7 6.3 11.6z"  fill="#005bbb" /><path d="M-264.8-130.5c-21.5 72.4-68.1 102.5-108.2 160.9-5 7.2-16.8 38.8-24.5 40.4-8.3 1.7-8-12.4 0.2-10.4 8.2 2 2.1 14.6-4.5 9.3-10-7.9 22.7-52 28.3-59.6 17.6-23.6 39.4-43.3 58.1-65.9 22.4-27.1 25.4-52.1 41.6-78.8 3.2-5.2 10-1.3 9 4.1z"  fill="#c2e1ff" /><path d="M-259.4-386.1c13.3 27.7 26.5 55 30.5 86 7.4 57.8-23.8 176.8-52.8 227.5-13.8 24.1-33 43.8-52.4 63.4-6.4 6.4-32.5 42.6-40.5 39.5-6.6-2.5-4-12.8 3.1-11.7 8.2 1.2 5.6 14.1-2.5 11.9-16.1-4.2 34-52.7 40-58.6 39.2-39.6 59.8-80.3 74.2-133.8 13.7-50.8 31.8-104 20.8-157.1-4.8-23.1-20.2-43.3-25-65.5-0.6-2.9 3.1-3.8 4.6-1.6z"  fill="#005bbb" /><path d="M-251-328.9c27.6 72.4-4.5 205.3-47.2 268.2-27.8 41-68 71.1-90.5 116-1.9 3.9-6.5 19.4-13.6 12.3-4.4-4.3 1.4-11.6 6.6-8.3 5.2 3.3 1.2 11.6-4.6 9.6-10.1-3.7 6.4-28 9.3-33.2 31.3-56.6 87.2-92.9 110-155 17.6-47.8 34.1-105 33.5-156.2 0-2.4-11.5-69.9-3.5-53.4z"  fill="#fff" /><path d="M-241 35.7c-7 7.3-49 52.4-57.3 41.9-5.8-7.3 6.2-15.8 11.2-7.9 5 7.9-7.9 15-12 6.6-3.7-7.6 44.5-51.4 53-51.9 6.5-0.4 8.6 6.9 5.1 11.3z"  fill="#005bbb" /><path d="M-233 44.3c-5.7 6.6-34.4 43.5-42.9 33.8-6-6.8 5.3-15.7 10.5-8.2 5.2 7.4-6.9 15-11.3 7-4.1-7.5 29.4-40.3 36.7-43 6.7-2.5 10.6 5.4 7 10.4z"  fill="#005bbb" /><path d="M-225.3-248.2c-8.7 56.6-27.9 138.9-59.3 186.7-23 35.1-58.1 59.7-83.2 93.1-5.1 6.8-25.6 49.6-32.4 46.4-7.6-3.6 1-14.6 6.4-8.2 6.3 7.6-10 12.8-9.3 3 3.2-46.6 90.1-110 115.3-151.4 23.8-39 44-159.7 54.4-173.2 3.1-4 8.3-0.8 8.1 3.6z"  fill="#005bbb" /><path d="M-192.7-399.6c37.7 98.3-3.4 162.8-22.7 257.3-3.7 18.2-17.6 100.3-34.1 106.2-7.6 2.7-11.3-9.6-3.4-11.4 9.2-2.2 9.5 13.5 0.2 11.6-10.3-2.1 13.9-44.1 16.3-52.5 8.2-28 11.4-57.3 18.5-85.7 7.4-29.5 18.2-57.9 26-87.3 8.8-33.3 11.8-67.7 4.4-101.6-2.5-11.6-9.2-23.8-10.5-35.4-0.4-3.3 4-3.9 5.3-1.2z"  fill="#fff" /><path d="M-211-355.8c7.2 23.8 9.9 48.7 8 73.5-3.9 49.3-40.4 184.1-66.3 224.9-18 28.4-44.6 48.5-68.9 71-6.7 6.2-32.9 42.4-40.2 40-9-3-0.9-16.5 6-10 8.1 7.6-9.5 15.8-10.1 4.6-0.9-16.7 102.3-96.2 122.5-149.3 19.2-50.5 50.6-155.2 49.6-207.7-0.3-13.3-9.1-34.8-6.5-46.9 0.7-3.3 4.8-2.8 5.9-0.1z"  fill="#c2e1ff" /><path d="M-168.6-399.4c38.1 96.8-11.7 161.1-21.7 254.3-1.4 13.3-0.9 87.3-5.9 92.2-5.1 5-11.4-5-4.7-7.4 6.7-2.4 8.2 9.3 1.1 8.7-8.2-0.7 2.6-111.8 5.1-124.9 6.9-36.6 21.3-71.1 29-107.4 5.3-24.9 6.8-50.4 2.4-75.6-1.9-10.9-12-29-10.6-39.3 0.4-3 4.1-2.9 5.3-0.6z"  fill="#005bbb" /><path d="M-194.5-337.5c9.1 55.6-39.9 248.6-72.7 293.8-28 38.5-72.3 60.8-100.5 99.1-2.4 3.2-12.9 20-16.8 7.7-2.1-6.5 7.2-10.6 10.7-4.7 2.9 5-2.8 10.9-7.9 8.1-9.7-5.4 8.3-24.1 11.9-28.8 36.2-46.1 92.3-71 115-127.8 15.5-38.8 52-170.8 54.4-210.5 0.7-12-2.4-25-1.1-36.8 0.5-4.2 6-3.7 7-0.1z"  fill="#c2e1ff" /><path d="M-160.8-399.6c40.5 99.7-18.1 168-18.5 264.6-0.1 27.6 14.9 97 1.9 119.3-3.8 6.4-12.9-2-6.7-6.3 7.2-5 10.6 9.8 1.9 8.5-7.9-1.2 0.1-33.9 0.3-40.6 0.4-37.4-7.8-74.1-4.1-111.7 4.4-42.9 21.8-82.7 29.7-124.8 4.3-22.8 5.2-46.1 1.2-69.1-1.9-10.9-12.1-28.9-10.9-39.2 0.3-3 4-2.9 5.2-0.7z"  fill="#005bbb" /><path d="M-177.4-253.7c-7.5 27.8-17.8 54.8-24.7 82.8-11.4 45.8-9.9 96.8-34.2 138.5-20.2 34.7-54.5 54.7-85.2 78.9-7 5.5-32.5 35.9-39.7 32.8-10.7-4.5 3.5-18.9 8.1-8.2 4.6 10.6-15.5 11.3-11.6 0.3 13.2-36.4 96.1-72.1 121.4-114.9 28.1-47.4 24.8-109.8 40.6-161.9 4.9-16 8.1-37.6 16.3-52 3-5.2 9.8-1.5 9 3.7z"  fill="#fff" /><path d="M-170.3-326c2.2 51.7-18.7 98.8-32 147.6-12.1 44.4-11.6 93.7-32.6 135.3-19.4 38.4-55.4 59.8-88.1 85.5-6.8 5.4-31.5 35.1-38.9 31.9-10.7-4.7 3.7-19 8.2-8.3 4.6 10.7-15.7 11.2-11.6 0.3 15.5-41.6 101-70.7 125.9-125.7 16.6-36.7 17.2-78.8 26.8-117.5 10.9-44.4 30.5-86.9 33.9-133 0.4-4.6-1.6-15 1.6-18.6 2.5-2.9 6.4-0.8 6.8 2.5z"  fill="#fff500" /><path d="M-161.5 10.3c-2.3 9.1-22.2 73.1-32.8 68-6.5-3.2-1-13.1 5.2-9.3 6.1 3.9-0.5 13.2-6.2 8.7-6.7-5.3 6.3-24.5 8.9-30.3 4.9-10.9 8.7-33.4 16.6-41.8 3.7-3.9 9 0.1 8.3 4.7z"  fill="#005bbb" /><path d="M-154.3-33c0.8 19.4-14.6 101-31 110.8-7.2 4.3-11.6-8.9-3.3-9.7 8.3-0.9 6.8 12.9-1.1 10.2-10-3.4 7.6-32.6 10-38.6 10.5-24.9 11.4-48.3 17.6-73.6 1.1-4.7 7.2-3.3 7.8 0.9z"  fill="#fff" /><path d="M-145.5 56.6c-1.6 4.7-4.2 24.5-12.3 21.7-6.3-2.2-2.3-11.9 3.7-9.1 6 2.9 1 12.1-4.7 8.7-15-9.2 16.8-38.7 13.3-21.3z"  fill="#005bbb" /><path d="M-138.1-308.6c-3.2 48.2-24.9 92.7-29.4 140.6-8.3 88.4 36.4 127-3.1 223.3-2.2 5.3-5.9 23.7-13.3 23.1-9.6-0.9-2-15.9 4.4-8.6 5.4 6.2-6.6 12.8-8.9 4.9-2.2-7.4 27.3-76.4 28.7-95.5 3.7-51-19.9-99.3-16.1-150.6 1.1-14.2 26.2-136.7 30.5-140.7 3.1-2.9 7.1-0.1 7.2 3.5z"  fill="#fff" /><path d="M-79.8-399.7c66.8 87.9 23.8 151.5 67 221.5 17 27.6 76.9 80.1 78.7 110.5 0.3 5-8 2.3-4.8-1.6 2.7-3.3 7.1 2.4 3.2 4.2-3.6 1.7-18.8-32.2-21.8-36.8-23.7-35.7-59.1-63.5-74.5-104.5-14.5-38.7-6.3-80.6-16-120.1-6.7-27.5-24.6-46.4-34.9-71.5-0.8-2 1.8-3.2 3.1-1.7z"  fill="#fff500" /><path d="M-122-283.2c-6.7 43.5-23 86.1-13.2 130.5 8.9 40.4 38.7 70.6 51.9 109.1 14.2 41.2-0.6 79.9-15.6 118.4-3.5 8.9-15.1-1.7-7.1-6 7-3.8 10.7 9 2.7 9.4-11.3 0.7-0.5-20.1 0.9-23.8 9.2-24.7 19.3-49.3 17.1-76.3-4.5-56.2-54.5-95.7-60.3-152.4-3.3-32.5 1.7-81.2 15-111.5 2.2-5.1 8.9-2.3 8.6 2.6z"  fill="#c2e1ff" /><path d="M-116.4-137.1c32.6 69 88.7 96.1 53 182.5-2.7 6.6-9.6 31.7-16.7 33.3-9.5 2.1-6.8-14.6 1.5-9.6 8.4 5-5.1 15.3-7.7 5.9-1.6-5.7 29-71.4 26.5-97.4-4-43.1-38-72-58.2-107.7-1.4-2.6-2.5-12.9 1.6-7z"  fill="#fff" /><path d="M-108.9-115.1c39.2 63.4 67.2 93 34.7 169.7-2.4 5.6-6.5 24.8-13.9 24.2-6-0.5-6.2-9.5-0.3-10.3 7-0.9 7.8 10.1 0.8 10.3-11.2 0.2-0.7-18.3 0.9-22.1 10.5-25.3 22.2-50.5 19.7-78.7-3.1-35.7-26.9-62.1-45.3-90.9-1.5-2.3 1.8-4.2 3.4-2.2z"  fill="#c2e1ff" /><path d="M-97.8 47.7c-2.1 6-7 30.9-14.4 30.7-7.9-0.2-4.7-12.9 2.3-9.4 6.1 3 0.8 12.3-4.9 8.6-13.5-8.6 22.7-55.1 17-29.9z"  fill="#fff" /><path d="M-90 23.3c-1.9 7.8-14.4 57.9-23.5 54.6-6.3-2.3-2.1-12.1 4-9.1 6.1 3 0.8 12.3-4.9 8.6-5.8-3.7 11.3-55.7 17-59.5 4-2.6 7.9 1.2 7.4 5.4z"  fill="#005bbb" /><path d="M-81.8 64c-1.6 3.8-5.3 19.8-12.7 13.2-4.5-4 0.7-11.3 5.9-8.3 4.4 2.5 2.7 9.5-2.4 9.6-10 0.3-2.6-16.1-0.1-19.6 3.8-5.3 10.7-0.5 9.3 5.1z"  fill="#c2e1ff" /><path d="M-77.7-127c48.3 55.4 96.2 92.4 60.2 173-3 6.7-11.3 32.1-19.3 33.2-6.4 0.9-8.7-8.5-2.6-10.7 7.1-2.6 10.5 8.8 3.2 10.5-15.9 3.9 5.6-31.3 7.3-34.7 11.6-23.5 19.4-48.9 14.4-75.2-7.3-38.9-38.1-64.9-63.8-92.4-1.4-1.5-2.3-6.2 0.6-3.7z"  fill="#fff500" /><path d="M-22.1-399.3c22.5 20.4 43.8 43.7 54.4 72.5 21.5 58.2-2.5 108.9 28.7 174.3 5.9 12.3 57.5 112.5 40.8 119.7-6 2.6-6.3-8.8-0.2-6.5 6.1 2.2-1.4 10.7-4.4 4.9-8-16-7.7-40.3-14.1-57.9-13.5-37.1-37-70.4-46.1-109-8.1-34.5-0.9-69.6-5.8-104.3-5-35.1-25.4-63.6-50.4-87.8-1.6-1.5-4.7-7.3-2.9-5.9z"  fill="#c2e1ff" /><path d="M-58.9-278c0 37.3-0.3 72.6 21.7 104.7 29.1 42.3 74.9 69.4 93 119.6 11.5 32.1 9.8 66.4-0.2 98.6-2 6.6-8.2 34.9-17 33.8-6.1-0.8-6-10 0.2-10.6 6.2-0.6 8 8.5 2.1 10.4-14.7 4.7 3.6-32.6 5.1-36.7 9.6-28.2 13.4-58.1 6-87.3-16.3-65.1-82.1-93.6-107.9-152.2-11-25-12.2-53.4-11-80.3 0.2-5.3 7.4-4.9 8 0z"  fill="#fff500" /><path d="M70.9-399.2c21.4 19 37.3 43.3 44.2 71.3 12.7 51.8-7.7 102.9-5.7 154.9 0.3 8.1 10.2 67.6 5.6 68.1-5.3 0.7-4.5-8.1 0.6-6.5 4.3 1.4 1.8 8.1-2.3 6.2-4.3-1.9-3.9-13-4.6-16.9-13.7-76.6 4.6-110.1 2.9-178.2-0.7-26.6-7.9-52.7-23.1-74.8-2.8-4-24.1-29-17.6-24.1z"  fill="#c2e1ff" /><path d="M13-399.4c98.8 79.3 40 140.5 68.2 238.5 5.1 17.7 39.1 109.5 33 120.5-2.7 4.9-9.6-1.2-5.2-4.5 4.5-3.3 8.2 5.2 2.8 6.3-1.5 0.3-43.4-144.9-45.4-160.7-4.6-35.9 4.7-71.8 0.4-107.6-3.8-31.8-19.9-58.4-42.8-80.2-1.3-1.2-14.4-14.5-11-12.3z"  fill="#fff500" /><path d="M81.7-399.3c20.8 19.7 35.6 44.8 41.7 72.8 11.6 53.1-9.9 105-8.7 158.2 0.2 8.3 9.4 69.8 4.6 70.3-4.6 0.5-5-6.8-0.4-6.8 5.4 0 3.5 8.8-1.4 6.5-4.5-2.1-4-15-4.6-19.1-11.8-74.8 5.6-110.2 6.2-178.2 0.3-27.7-6.1-55.2-20.9-78.7-5.7-9.1-19.7-27.6-16.5-25z"  fill="#005bbb" /><path d="M-30-157c55.3 63.1 111.6 102.7 83.3 197.5-2.2 7.4-8.5 36.6-17.1 38.2-6.1 1.2-8.9-7.8-3.1-10.2 6.7-2.9 10.7 7.9 3.6 10-14.8 4.5 4.5-33.9 5.9-37.9 9.8-28.1 13.4-58.1 5.7-87.2-11.8-44.1-46-72.3-76.2-103.9-0.2-0.3-6.6-10.3-2.1-6.5z"  fill="#fff" /><path d="M-20.2-322.8c12 39.8 3.1 82.4 17 121.8 33.3 94.3 113.6 109.6 86 241.2-1.5 7.2-4.8 35.7-12.4 38.1-8.9 2.7-7.6-13.3 0.7-9.3 8.3 4.1-3.6 14.9-6.9 6.2-3.5-9.5 9.2-35.7 11.3-46.1 5.4-27.1 5.8-55-0.8-82-14.8-60-67.3-97.8-86.3-155.2-8.4-25.2-7.9-51.3-9.5-77.5-0.7-12-5-24.5-5.1-36.4 0-3.8 4.8-3.9 6-0.8z"  fill="#c2e1ff" /><path d="M-13.5-181.1c47.9 82.3 114 106.4 86.9 220.6-1.8 7.4-6.1 36.9-14.3 39.1-9.2 2.5-7.2-14 1.1-9.4 8.4 4.6-4.4 15.1-7.3 6-1.7-5.3 14.4-50.7 16.1-61.3 3.2-20.7 2.7-41.8-2.2-62.2-12-50.5-50-82.5-78.7-123.1-1.1-1.6-6.4-15.7-1.6-9.7z"  fill="#c2e1ff" /><path d="M-6.1-154c53.7 62.4 96 108.3 71.8 196.9-1.9 7-6.5 33.6-14.5 35.5-9.4 2.2-7-14.5 1.5-9.6 8.4 4.9-4.9 15.3-7.7 6 0-0.1 24-80.4 16.9-115.9-8.6-43.5-37.5-74.5-66.2-106.3-0.2-0.2-6.4-10.6-1.8-6.6z"  fill="#005bbb" /><path d="M2.9-57c20 37.8 12.9 78.8-5.4 115.5-2.6 5.2-6.2 17.3-11.5 19.8-8 3.8-11.4-10.5-2.4-10.6 7.6-0.1 7.1 11.9-0.5 11.1-12.5-1.2 17.1-43.9 22.5-73.5 3.7-20.4-13.7-80-2.7-62.3z"  fill="#fff500" /><path d="M12.5-269.1c0.6 25.5 0.7 50.7 9.1 75.1 33.6 97.8 97 111.1 69.4 244.4-1.2 5.7-2.6 27.8-10.2 27.9-5.6 0.1-6.7-8.2-1.3-9.5 6.4-1.6 8.3 8.6 1.8 9.5-11.2 1.5-0.5-25.4 0.5-29.9 7-31.5 9.7-63.5 3.6-95.4-11.3-59.6-56.8-101.3-73.5-158.1-4.4-14.8-14.1-51.1-6.8-65.6 1.9-3.9 6.9-2 7.4 1.6z"  fill="#c2e1ff" /><path d=""  fill="#fff" /><path d="M28-300.4c5.7 36.3-1.8 73 9.1 108.8 32.2 105.7 88.5 111.1 57.7 258-0.6 3-3.8 17.7-10 9.7-10.7-14.1 22-1.1 4.5 1.8-11.1 1.8-0.7-27.8 0.2-32.4 6-31.8 7.6-63.9 1.4-95.8-10.9-56.6-50.8-100.2-64-155.4-6.7-27.8-9.5-66.4-5.9-94.7 0.5-4.3 6.1-3.7 7 0z"  fill="#fff" /><path d="M35.3-195.9c27.3 100 87 112.1 62.2 247.3-1 5.4-1.7 26.4-9.1 26.8-5.5 0.3-6.8-7.8-1.5-9.3 6.2-1.7 8.3 8.1 2 9.2-11 1.8-1.2-24.9-0.4-29.1 6.2-31.7 8.5-63.8 2.9-95.8-9.3-52.7-42.5-92.8-60-142.1-1.4-3.9 0.6-14.3 3.9-7z"  fill="#fff500" /><path d=""  fill="#c2e1ff" /><path d="M51.8-304.4c6.2 36.3-3.1 73.2 4.2 109.5 19.9 100.1 69.8 115.9 51.2 245.3-0.8 5.4-0.7 26.9-7.9 27.7-7.2 0.7-5.8-11.2 1-8.8 8 2.8-1.6 13.9-5.5 6.4-4.1-7.8 4.2-30.4 5.3-39.2 3.5-26.5 4-53.2 0.1-79.6-8.5-57.7-43.9-106.3-53.1-163.2-4.8-29.6-5.7-68.3-2.2-98.1 0.5-4.3 6-3.7 6.9 0z"  fill="#005bbb" /><path d="M58-357.1c35.9 52.9 11.1 112.8 20.1 171 7.7 50.2 31 96.4 38.1 147 1.9 13.6 10.4 114.5-5.6 116.9-6.9 1-6.1-10.5 0.5-8.5 7.8 2.3-0.9 13.5-5 6.4-3.8-6.5 18.5-52.6-3-149.5-9.5-42.9-29.5-83.6-34-127.5-3.9-38 6.9-76.3 0.1-114-0.5-3-19.4-52.2-11.2-41.8z"  fill="#fff500" /><path d="M68.1-218.2c0.9 83.9 54.8 143.1 47.6 246.6-0.5 7.5-0.8 48.4-9 49.5-7 0.9-6-10.7 0.7-8.7 7.9 2.4-1.1 13.6-5.2 6.4-2.6-4.7 6.6-88.8 5.1-105.1-5.5-58.3-34.9-108.8-44.5-165.6-3.2-19.1 2.9-37.6 5.3-23.1z"  fill="#c2e1ff" /><path d="M76.9 46.2c-1.4 5.8-5.7 35.5-15 32-6.4-2.5-2-12.3 4.1-9.2 6.1 3.1 0.6 12.5-5.1 8.7-11-7.3 19.5-56.7 16-31.5z"  fill="#005bbb" /><path d="M97.1-399.3c74.7 79.7 16.9 181.4 26.9 275.5 3.4 31.5 23.4 122.8 15.2 148.3-1.9 5.9-10.8 0.8-6.6-3.8 4.9-5.4 10.4 6 3.2 6.5-7.4 0.5-5.5-39.5-6-45.8-3.9-50.5-16.3-100.6-15.9-151.4 0.3-38.7 12.4-75.4 15.5-113.7 2.4-29.8-1.9-60-16-86.6-4.5-8.5-21.4-33.6-16.3-29z"  fill="#005bbb" /><path d="M92.7 59c-0.9 4-2.3 24-10.8 18-5.3-3.7 1-11.8 5.9-7.5 4.2 3.6-0.6 10.4-5.5 7.8-14.4-7.9 11.9-34 10.4-18.3z"  fill="#005bbb" /><path d=""  fill="#005bbb" /><path d="M107.6-167.3c5.5 75 27.1 144.7 23.6 220.9-0.2 5.3 1.6 18.3-1.9 22.5-4.2 5-10.9-3.6-5-6.4 5.9-2.8 8.3 7.8 1.8 7.9-5.7 0-2.3-84.6-3-95.4-1.6-22.7-26.2-141.5-22.5-150.6 1.5-3.8 6.3-2.4 7 1.1z"  fill="#c2e1ff" /><path d="M115.1-81.7c7.2 33.3 20.3 126.4 7.2 156.8-2.7 6.2-11.8-0.4-6.7-4.9 5.9-5.3 10.6 7.6 2.7 7.4-7.4-0.2-0.2-63.2-0.2-72 0-28.7-10.5-58.8-9.4-86.7 0.2-4 5.3-3.9 6.4-0.6z"  fill="#fff500" /><path d="M175.3-399.6c65.3 108.6-5.5 160.3-21.8 261.9-2.4 14.8 1.8 87.3-1.1 92-3.6 5.8-10.6-3.8-4.1-5.5 5.6-1.5 6 8.2 0.3 7.2-14.3-2.6-4-96.3-1.7-108.6 8.7-45.7 34.9-85.3 44.4-130.7 5.9-28.3 3.8-57.2-6-84.3-3.8-10.5-16.6-40.9-10-32z"  fill="#fff500" /><path d="M186.1-399.3c64 108.1-6.7 158-27.7 257.4-3.2 14.9-1 83.4-4.2 88.3-3.7 5.8-10.7-3.9-4-5.6 5.7-1.4 5.9 8.3 0.1 7.2-14.3-2.8-1.6-90.3 1.1-101.9 10.4-45.3 38-84.1 48.7-129.1 6.7-28.1 5.3-57-4.3-84.3-3.7-10.5-16.3-41.1-9.7-32z"  fill="#005bbb" /><path d=""  fill="#005bbb" /><path d="M147.7-104c-0.2 17.7 16.2 181 10.5 181.2-4.9 0.2-4.9-7.6 0-7.2 4.2 0.3 4.5 6.6 0.4 7.2-7.7 1.2-7-35.2-7.5-40.8-3.7-46.4-12.2-93.7-11.4-140.4 0.1-5.3 7.3-5 8 0z"  fill="#fff" /><path d="M155.4 53.8c0.3 4.4 4.4 21.3-1.2 23.2-4.7 1.7-7-5.9-2.1-7.1 5.7-1.4 5.9 8.4 0.2 7.3-13.5-2.7 0.7-36.9 3.1-23.4z"  fill="#fff" /><path d="M190.8-399.4c66.1 111.8-19.7 171-34 275.7-2.5 18.2 6 109.7 2.8 114.8-3.5 5.7-10.5-3.5-4-5.3 5.5-1.5 6 8 0.4 7-6.4-1.1-5.5-26.5-6.1-31.9-15.3-153.3 28.7-134.8 54.8-247.1 6.5-28.1 4.6-57.1-5.4-84.2-3.3-9.1-10-18.1-12.5-27.3-0.7-2.6 2.6-3.6 4-1.7z"  fill="#005bbb" /><path d="M171.5-72c-0.7 37.7 6.1 75.7 13 112.7 1 5.2 10 34.9 4 35.9-4.3 0.8-5.1-6-0.7-6.3 4.3-0.3 4.4 6.5 0 6.3-6.1-0.3-7.8-24.1-8.7-28.7-7.8-38.9-16.2-80-15.5-119.9 0.1-5.3 7.3-5 7.9 0z"  fill="#fff500" /><path d="M179.7-79.8c-3.2 39.7 4.7 80.2 13.2 118.9 1.1 5.1 11.6 36.3 6 37.5-4 0.9-5.1-5.5-1-6 3.5-0.4 4.6 4.8 1.3 5.9-4.9 1.7-5.6-8-6.2-10.4-11.7-43.2-21.6-89-21.9-133.8-0.1-19.6 8.4-15.1 8.6-12.1z"  fill="#fff" /><path d="M186.8-11.6c1.5 9.4 19.8 86.9 16.7 87.6-3.9 0.9-5.1-5.3-1.1-5.8 4-0.5 4.5 5.9 0.4 5.9-5.7 0.1-8-19.8-9.1-24.1-4.9-18.4-15.1-44.1-13.7-63.3 0.3-4.2 5.7-3.9 6.8-0.3z"  fill="#fff" /><path d="M196.4-165.2c-34.3 57.9-26.5 123.6-15.9 187 1.4 8.3 14 48.2 8.9 53.5-3.5 3.7-8.2-3.2-3.5-5.1 4.7-1.9 6.1 6.4 1.1 6.2-7.4-0.3-12.6-50-13.9-57.5-8.8-52.1-17.5-107.8-0.2-159.1 12.2-36.1 30-41.1 23.5-25z"  fill="#005bbb" /><path d="M204.3-234.6c-39.5 83.4-53.4 118.7-43.2 212.9 1.4 13 14.1 91.2 11 97.1-2.6 4.8-9.5-1.2-5.1-4.5 5.2-3.8 8 7 1.6 6.2-7.8-1-9.8-55.6-10.7-63.8-6.7-58.2-16.6-118.8 1.4-175.9 4.7-15 25.5-70.5 36.8-78.8 4.9-3.6 9.9 1.9 8.2 6.8z"  fill="#c2e1ff" /><path d="M257.6-399.7c53.1 96.1-40.4 169-75.2 249.4-10.6 24.4-15 50.6-15.2 77.1 0 4 4.2 29.7-4.1 27-4.8-1.5-2-9 2.7-6.9 4 1.8 2 7.9-2.3 7-6.3-1.3-3.9-18.3-4.1-22.9-3-102.6 55.4-135 92-218 11-24.9 16.5-52.6 11.8-79.8-1.9-11-11.8-42.3-5.6-32.9z"  fill="#fff" /><path d=""  fill="#005bbb" /><path d="M225.9 28.1c1.9 5.6 19.5 46.5 15.6 47.9-3.3 1.2-4.9-4-1.6-4.8 3.4-0.9 4.4 4.5 1 5-4.6 0.7-7.3-12-8.5-15.1-3.5-8.4-6.8-16.8-9.8-25.3-1.1-3.1-0.4-15.4 3.3-7.7z"  fill="#005bbb" /><path d="M236.1-141.2c-37.1 45.3-34.4 102.3-19.2 155.7 2.1 7.2 20.8 61.7 18 61.8-4.1 0.1-2.8-6.7 1-5 4.4 2-1.6 7.9-3.5 3.4-22.4-53.2-44.9-116.3-30-174.4 4-15.4 11.9-39.7 24.8-50.1 5.9-4.8 12.3 2.8 8.9 8.6z"  fill="#fff" /><path d="M243.8-287.5c-23.3 85.7-84.4 121.1-81 222.1 1.3 38 7.1 76 12.7 113.6 0.6 3.9 8 29.9 0 28.3-3.8-0.8-3.3-6.6 0.6-6.7 3.9-0.1 4.6 5.7 0.8 6.7-7.1 1.7-10.3-40.7-11.1-46.7-8.1-57.5-19.3-119-2.9-175.9 11.8-40.8 38.1-74.2 57.4-111.5 4.8-9.3 8.2-27.8 15.3-34.9 3.9-3.9 9.1 0.3 8.2 5z"  fill="#fff" /><path d="M252-112.2c-26.8 43.4-16.1 94.1 2.1 138.5 2.3 5.7 22.9 49.3 19.5 49.7-3.7 0.4-3-5.8 0.5-4.6 4.1 1.5-0.9 7.2-2.8 3.3-23.4-45.4-49.3-97.7-42.7-150.3 1.6-12.9 5.1-33.4 14.2-43.3 4.8-5.2 11.6 0.9 9.2 6.7z"  fill="#fff" /><path d="M259.6-208.1c-51.7 48.6-82.3 99.7-75.3 172.6 1.6 16.6 24.4 104 22.2 110.1-1.9 5.2-9-1.3-4.1-3.7 5-2.4 5.7 7.1 0.4 5.5-6.5-2-10.3-31.5-11.8-37.8-14.2-57.5-26.7-122.1-1.4-178.4 11.7-26.1 36.4-64.5 62-79.1 7.2-4.1 12.7 5.1 8 10.8z"  fill="#fff" /><path d="M265.8-376.8c34 104.9-80.4 173.3-96 268.5-7.1 42.9 0 87.2 6.5 129.7 0.7 4.6 8.9 36.6 1.1 35-3.8-0.8-3.3-6.6 0.6-6.7 3.9-0.1 4.6 5.7 0.8 6.7-7 1.6-7.5-22.4-8.2-26.6-9.6-59.7-21-124.1 1-182.4 17.6-46.9 54.2-82.9 75.7-127.7 9-18.7 15.1-38.9 16.2-59.6 0.5-11-5.7-26.9-3.5-36.8 0.7-3.3 4.8-2.8 5.8-0.1z"  fill="#fff" /><path d="M274.8-346c4 98.2-97.7 157.4-106.3 253.2-4 44.3 4.1 89.7 11.5 133.2 0.8 4.8 9.7 37.4 2.2 36.1-3.7-0.6-3.4-6.3 0.4-6.4 3.8-0.2 4.6 5.4 1 6.4-6.9 1.8-9.3-29.3-10.2-34.3-11-63.5-24.6-133.6-0.5-195.7 18.9-48.7 58.2-85.6 79.6-132.9 1.5-3.2 19.5-83.7 22.3-59.6z"  fill="#fff" /><path d="M283.2-68.5c-6.7 40.9 13.3 80.9 31.5 116.1 2.3 4.4 15.4 22.9 13.2 27-1.7 3.2-6.3-0.7-3.4-2.9 2.9-2.2 5.4 3.2 1.9 4.1-8.6 1.9-50.3-90.1-52.3-129.1-1-19.6 8.9-26.9 9.1-15.2z"  fill="#fff500" /><path d="M289.8-388.7c33.3 108.3-88.4 175.7-113 268.8-10.5 40-5.7 82.1 0.4 122.4 0.7 4.6 9 36.6 1.1 35-3.8-0.8-3.3-6.6 0.6-6.7 3.9-0.1 4.6 5.8 0.8 6.7-6.9 1.6-7.5-22.4-8.2-26.6-9.3-57.4-16.4-117.4 9.4-171.7 21.8-46 60.8-81 84.6-125.9 10.7-20.2 18.5-42.3 20.5-65.2 1-11-4.7-26.9-2.2-36.8 0.8-3.3 5-2.8 6 0z"  fill="#005bbb" /><path d="M299.3-234.9c-54.3 48.7-111.9 93.1-113 172.6-0.6 46.5 25.2 115.9 24.9 136-0.1 6.4-9.9 0.3-4.2-2.6 4.8-2.5 5.7 6.9 0.5 5.4-10.3-3-18.2-60.7-20.4-71.2-11.1-53.1-15-109 13.6-157.5 16.8-28.4 61.5-78.5 90.8-93.9 7.4-3.9 12.7 5.6 7.8 11.2z"  fill="#fff500" /><path d="M306.9-357.5c-7.3 104.8-117.9 158.5-132.4 259.5-8.3 57.4 17.7 131.9 14.7 158.1-0.7 6-9.9 1-5.3-2.8 5.4-4.6 7.5 8.1 0.9 5.5-8.4-3.4-11.3-50.3-12.7-59.4-9.2-56.7-14.1-115.2 13.5-167.9 26.1-50 71.1-87 95.6-138.1 8.9-18.6 10.5-38.1 17.4-56.9 1.8-5 8.3-2.7 8.3 2z"  fill="#c2e1ff" /><path d="M312.9 10c3 7 33.4 64.4 30.4 65.7-2.9 1.3-4.7-3.3-1.7-4.3 3.5-1.2 4.1 4.9 0.5 4.5-8.2-0.9-40.6-84.8-29.2-65.9z"  fill="#005bbb" /><path d="M323.1-148.8c-39.3 33.6-63.3 74.3-50.6 127.2 7.2 29.9 38.1 75.2 41.5 95 0.9 4.9-7.6 1.6-3.6-1.5 3.3-2.6 5.4 4.5 1.2 4.1-5.6-0.6-15-25.9-17.6-30.9-24.4-47.5-47.6-102.6-21.3-154.4 8.6-16.9 25.3-41.8 42.7-50.8 7.5-3.9 12.7 5.7 7.7 11.3z"  fill="#c2e1ff" /><path d=""  fill="#fff500" /><path d="M339.4-99.8c-21.5 42-8.3 85.4 11.4 125.2 4.8 9.7 26.1 38.1 24 48.3-0.8 3.8-6.6 1.2-4.4-1.9 2.7-3.7 6.9 3 2.5 3.9-5 0.9-22.2-40-25.2-45.7-18.2-35.7-34.7-74.8-24.6-115.5 4.6-18.6 21.9-32.1 16.3-14.3z"  fill="#005bbb" /><path d="M346.1-48.4c1.6 34.7 19.4 65.9 34.7 96.2 1.8 3.6 15.8 26.2 10.7 28.2-3.2 1.3-4.9-3.9-1.6-4.8 2.8-0.8 4.4 3.3 1.9 4.6-4 2.1-5.9-6.5-6.8-8.3-13.8-29.6-31.4-57.9-40.9-89.3-6.3-20.8-0.9-39.6 2-26.6z"  fill="#005bbb" /><path d="M352.4 29.9c2.6 5.1 25.1 44.1 20.6 46.1-3.1 1.3-4.8-3.6-1.6-4.6 3.2-0.9 4.4 4.1 1.1 4.7-1.8 0.3-30.3-61.4-20.1-46.2z"  fill="#c2e1ff" /><path d="M363-394.5c-34.5 126.9-142.3 179.6-175.2 268-10.5 28.1-11.9 58.3-9.3 88 0.8 9.3 9.2 35.4 5.2 43.2-2.9 5.6-10.1-2.7-4.1-4.8 6-2.1 5.4 8.9-0.3 6.3-7.2-3.3-7.5-39.1-8.3-46.7-12.8-131 77.4-171.4 138.8-268 18.1-28.5 27.2-61.7 44.2-90.1 3.1-5.2 9.9-1.3 9 4.1z"  fill="#c2e1ff" /><path d="M370.8-265.9c-59.7 53.9-157.7 97.9-170.9 185.6-6.3 41.7 4.6 84.9 17.2 124.3 1.1 3.4 13.7 34.5 6.4 32-3.5-1.2-1.3-6.6 2.1-5 2.8 1.4 1.3 5.8-1.8 5.1-6.4-1.5-12.4-30.6-14.3-36.7-18.9-59.4-32.1-127 3-183.2 15-24.1 126.2-120.3 150.5-133.2 7.4-3.9 12.7 5.6 7.8 11.1z"  fill="#c2e1ff" /><path d="M379.1-105c-20.2 44.7-8.6 86.8 11.9 128.8 4.9 10 26.1 39.7 23.5 50.3-1.2 4.7-8-0.2-3.9-2.8 3.5-2.2 5.8 4.2 1.7 4.8-4.9 0.7-17.4-33.5-19.9-38.6-19.3-39.1-39.7-79.4-30-124.4 5.5-25.5 20.8-33 16.7-18.1z"  fill="#005bbb" /><path d="M386.9-200.5c-41.5 45.7-111.9 81.1-109.8 151.5 1.1 35.6 18.2 69.2 34.4 100.1 1.2 2.3 15.7 26.1 8.8 24.6-2.6-0.6-2.2-4.5 0.4-4.5 3.1 0 2.9 4.9-0.2 4.5-5.5-0.6-15-25.9-17.5-30.8-23.4-45.2-46.8-97.4-24.7-147.9 12.2-27.8 74.2-90.7 100.3-107.5 6.7-4.3 12.5 4.2 8.3 10z"  fill="#c2e1ff" /><path d="M394.7-257.2c-55.2 55-162.5 99.7-175.7 182-7.9 49.2 12 100.3 31.9 144.4 2.2 4.9-1.5 9.9-3 5.3-3.5-10.5 11 6.6 1.2 1.4-7.7-4.1-14.2-30.9-17.4-38.9-20.8-53.2-34.9-114.1-3.8-166.4 27.2-45.8 77.6-70.2 118-102.3 8.4-6.7 35.3-38.8 45.4-36.9 5.7 1.1 6.6 7.4 3.4 11.4z"  fill="#005bbb" /><path d=""  fill="#005bbb" /><path d="M410.6-97c-11.4 45.7 3.4 85.9 22.3 127.1 2.4 5.2 22.2 43.7 16.8 45.6-3.5 1.2-5-4.4-1.4-5.2 3.6-0.8 4.5 4.9 0.8 5.3-4.7 0.5-6.2-10.3-7.4-13.4-15.9-38.3-38.9-75.8-43-117.7-1.2-12.8-2.8-32.8 3-44.8 2.5-5.2 9.3-2.1 8.9 3.1z"  fill="#c2e1ff" /><path d="M418.9-179.4c-25.5 50.3-64.5 94.6-49 154.8 7.3 28.2 22.3 53.8 34.8 79.9 1.3 2.7 12.5 20.5 5.5 20.7-4.8 0.1-1.9-7.7 1.7-4.5 3.1 2.7-2.5 6.7-4.2 3-22-51.5-60.2-103.1-46.9-162.1 6-26.9 30.6-77.4 48.9-98.1 4.5-5.1 11.3 0.6 9.2 6.3z"  fill="#fff" /><path d=""  fill="#fff" /><path d=""  fill="#fff" /><path d="M442.4-303.2c-31.7 30.5-60.7 63.7-95.5 90.9-44.7 34.9-104 62.6-122.1 120.7-14.1 45 0.6 93.3 17.6 135.4 3.3 8.3-3.7 7.7-3.6 4.4 0.4-9.9 9.8 7.3 1.3 2.4-5.4-3.2-9.1-21.1-11.3-27-19.6-53.6-27.9-113.1 7.4-162.3 31.9-44.4 84.7-68.5 125.3-103.7 15.7-13.7 59-67.5 74.3-72 7.1-2.1 10.6 6.2 6.6 11.2z"  fill="#005bbb" /><path d="M432.3-393.7c-46.4 43.3-84.5 91.6-127.7 137.7-31.8 34-70.3 63.1-96.1 102.2-13.3 20.1-21.9 42.8-25.1 66.8-0.5 3.9 0.6 35.8-8 28.6-3.5-2.9 0.3-8.6 4.3-6.5 4.7 2.4 0.5 9.7-4 6.8-5.5-3.7-1.5-24-0.9-29.9 7.3-77.6 67.7-122.6 118-174.6 44.6-46.2 80.6-99.7 130.3-141.1 6.9-5.7 14.8 3.4 9.2 10z"  fill="#fff" /><path d="M422.7-393.9c-41.7 42.8-77 90-117 134.1-31.3 34.6-69.5 63.9-96 102.7-10.5 15.3-18.5 32.2-23.2 50.2-1.4 5.5-1.4 23.8-6.3 26.5-6 3.3-9.1-7.6-2.4-8.1 7.9-0.5 3.7 12.6-2.4 7.6-4.5-3.7-0.2-16.7 0.6-21.4 11.6-67.9 65.8-109.9 110.9-156.5 44.5-46 79-100.9 126.3-144.4 6.4-5.9 14.6 2.7 9.5 9.3z"  fill="#c2e1ff" /><path d="M465.4-122.2c1.7 53.5 19.7 101.9 37.4 151.8 2 5.5 18.4 44.8 12.8 46.3-3.2 0.9-5.1-3.8-2.1-5.3 3.5-1.8 6 3.8 2.4 5.2-5.4 2.1-15.4-35.9-17.3-41.1-14.2-40.4-31-80.6-37.5-123.1-1.4-9-2.4-18.1-3-27.2-0.3-5.2 5.6-16.4 7.3-6.6z"  fill="#005bbb" /><path d=""  fill="#005bbb" /><path d="M481.8-378.4c-25.3 20-52.8 36.9-77.9 57-31.8 25.5-159.5 137.9-180.9 164.7-16.4 20.6-27.7 44.4-31.8 70.5-0.7 4.4-0.2 40.4-8.3 33.8-4.1-3.3 1.4-9.5 5.2-5.7 3.2 3.2-1 8.4-4.9 6-6.2-3.9-1.5-28.4-0.8-34.7 8.6-76.5 71.2-118.9 124.9-165.2 62.1-53.6 89.8-80.8 158.2-131.8 8.8-6.6 30.4-8.6 16.3 5.4z"  fill="#005bbb" /><path d="M490.2-278.5c-31.7 91.4 9.1 183.4 41.3 267.7 3.4 8.8 31.3 86 24.2 87.5-4.8 1-4.7-7.1 0.1-6 4.8 1.1 1.3 8.4-2.6 5.4-8.3-6.4-11.9-40.2-15.1-50.6-24-76.7-61.3-144.5-65.7-226.5-1.2-23.2-3.8-60.9 8.7-81.6 3.2-5.3 10.1-1.3 9.1 4.1z"  fill="#fff500" /><path d=""  fill="#005bbb" /><path d="M503.9-51c9.8 25.9 43.7 100.4 42.6 124.3-0.3 5.6-9.2 1.6-5.1-2.3 3.5-3.3 7.6 3.5 3.1 5.1-5.5 1.9-15.4-40.5-17.3-46.4-7.9-24.8-25.5-53.8-28.6-79.4-0.4-3.3 3.9-3.9 5.3-1.3z"  fill="#fff" /><path d="M511.7-73c8.7 20.8 58.6 132.6 52.3 147.6-1.9 4.6-8.6-0.2-5-3.5 3.6-3.3 7.7 3.8 3 5.2-5.2 1.7-18.2-53.3-20.4-60.2-6.5-20.3-14.3-40.1-22.8-59.7-2.5-5.8-14-23.4-12-29.2 0.8-2.4 3.8-2.1 4.9-0.2z"  fill="#fff" /><path d="M519.9 25.1c2 5.9 19.1 49.9 13.3 51.3-3.9 1-5.1-5.3-1.1-5.8 4-0.5 4.5 5.8 0.4 5.9-6.4 0.2-23.1-73.6-12.6-51.4z"  fill="#fff" /><path d="M509-393.3c-33.5 28.4-70.1 52.1-104.2 79.7-30.6 24.8-58 53.2-88.2 78.4-24.8 20.7-51.5 39.6-74.6 62.4-23.1 22.8-40.6 66.7-46.1 68.4-8.9 2.7-7.5-13.4 0.7-9.2 7.1 3.5-1.2 13.7-6.1 7.5-3.5-4.4 2.1-14.1 3.8-18.3 21.7-55.8 74.5-89.1 118.5-125.8 49.7-41.4 96.3-84.1 148.4-122.7 9.4-6.9 32.1-32.9 43.5-32.7 6.8 0.2 8.3 7.9 4.3 12.3z"  fill="#c2e1ff" /><path d="M535.1-92.1c26.5 49 49 94.7 60 149.8 0.8 4.2 4.5 13.4 2.6 17.2-2.4 4.7-9.2-0.8-5.1-4.1 4.2-3.3 8 4.6 2.9 5.9-4.1 1-19.3-70.7-22.2-79.5-5.5-16.3-42.3-80.9-42.5-88.2 0-2.5 3-2.9 4.3-1.1z"  fill="#fff" /><path d="M543.9 64.2c0.8 2.5 5.4 11 0.3 12.2-4.7 1.1-4.7-6.9-0.1-5.9 4.7 1 1.4 8.2-2.4 5.3-8.5-6.4-0.6-18.3 2.2-11.6z"  fill="#fff" /><path d="M553.7-387.2c-68.7 65-90.5 132.6-117.3 219.8-8.8 28.6-20.8 56.8-24.5 86.7-3.7 29.1 3 57 14 83.8 0.9 2.1 12.8 24.7 5.1 22.4-10.9-3.2 11.9-5.3 1.9-0.1-4 2.1-5.9-6.6-6.7-8.5-12.1-27.2-23-55.2-23.3-85.4-0.5-50.9 52.5-207.7 80.5-251.7 15.2-23.9 37.3-62.9 62.2-77.6 7.1-4.2 12.7 4.9 8.1 10.6z"  fill="#fff500" /><path d="M559.3-29c6.3 13.8 35.7 93.3 30.6 103.8-2.3 4.7-9.1-0.6-5-3.9 4-3.3 8 4.4 2.9 5.7-6.1 1.6-12.4-40.9-14-47-0.2-0.7-24.4-75.3-14.5-58.6z"  fill="#fff500" /><path d="M547.9-393.6c-61.8 55.2-104.8 124.9-160.4 185.2-39.7 43-99.6 71.6-117.9 130.5-3.1 10.1-15.2-3.1-5.8-5.6 10-2.7 4.8 15.3-2.2 7.7-3.7-4 1-13.7 2.3-17.7 17.4-53.6 72.2-81.8 109.8-119.6 57.4-57.7 98.9-128.7 163.3-189 7.1-6.6 17.8 0.4 10.9 8.5z"  fill="#fff" /><path d="M577.8-331c-22.4 49.1-13.2 109 3.5 158.4 2.1 6.1 20.8 51 17.4 51.2-3.9 0.2-2.9-6.2 0.8-4.8 4.3 1.7-1.2 7.5-3.2 3.3-25.6-54.5-46-115.3-37.6-176.3 6-43.6 22.5-44.2 19.1-31.8z"  fill="#c2e1ff" /><path d="M548.3-393.7c-61.9 55.2-104.6 125-159.9 185.6-20.7 22.7-44.9 41.3-68.1 61.4-13.1 11.4-25.7 23.6-35.2 38.3-2.6 4-8.9 23-16.3 15.6-6-6 5.8-13.5 8.8-5.7 2.5 6.8-8.4 10.1-10.2 3.2-6.3-25.2 88.3-98.2 107.3-117.4 57.3-58.1 97.6-128.5 162.7-189.5 7.1-6.6 17.8 0.4 10.9 8.5z"  fill="#fff" /><path d="M593.1-274.5c-3.4 25-2.9 50.9 0.7 75.8 1.2 8.5 10.6 30.8 7.7 38.3-2 5.2-9.1-1.4-4-3.8 4.3-2 6.1 5.6 1.3 5.7-15.3 0.2-18.8-105.4-14.2-118 1.8-5 8.4-2.8 8.5 2z"  fill="#005bbb" /><path d="M601.7-357.3c-37.4 46.8-34.8 111.6-20.9 166.8 1.9 7.4 20.1 61.5 18 61.5-4.1 0.1-2.8-6.5 0.9-4.9 3.2 1.4 0.8 6.3-2.2 4.6-4.1-2.3-6.7-14.2-8.5-18.5-20.9-51.4-34-112.4-20.2-167.4 3.9-15.4 11.2-39.9 23.9-50.5 5.8-4.8 12.2 2.6 9 8.4z"  fill="#fff" /><path d="M549.8-393.4c-81.2 72.7-130.4 171-210.2 244.7-7.7 7.1-33.2 43-41.5 43.3-9.3 0.3-6.5-14.8 2.1-11.2 8.6 3.6-0.3 16.2-6.6 9.3-12.9-14.2 79-90.7 89.9-103 51.4-58.4 83.9-119.7 143.2-179.6 4.3-4.4 10.6-13.4 16.7-15 7.3-1.9 10.6 6.6 6.4 11.5z"  fill="#005bbb" /><path d=""  fill="#c2e1ff" /><path d=""  fill="#fff500" /><path d=""  fill="#fff" /><path d=""  fill="#c2e1ff" /><path d=""  fill="#fff" /><path d=""  fill="#c2e1ff" /><path d=""  fill="#005bbb" /><path d=""  fill="#fff500" /><path d="M586.9-393.5c-51.9 44.7-79.5 110.7-63.6 178.7 7.1 30.5 20.1 59.3 35.6 86.4 1.9 3.3 11.1 14.8 9.5 18.1-1.4 3.1-5.9-0.3-3.3-2.5 3-2.6 5.2 3.9 1.3 3.7-5.6-0.3-17.2-27.4-20-32.5-32.1-59.3-49.2-126.4-20.8-190.7 10.3-23.3 30-59.8 53.4-72.3 7.4-4 12.7 5.5 7.9 11.1z"  fill="#fff500" /><path d=""  fill="#005bbb" /><path d=""  fill="#005bbb" /></svg>