<svg width="1200" height="675" viewBox="-500 -500 1200 675" xmlns="http://www.w3.org/2000/svg"><path d="M-500-500h1200v675h-1200z" fill="#000"/><path d=""  fill="#c2e1ff" /><path d=""  fill="#fff500" /><path d="M-394.2-67c7.4 20.4 35.8 108.3 16.9 123.6-9.8 8-19.3-10.8-7-14 10.5-2.7 13.9 14.1 3.1 15.7-16.4 2.3-3.9-41.1-4.4-49.4-1-17.8-19.1-65.3-17.6-75.1 0.7-5.1 7-4.9 9-0.8z"  fill="#c2e1ff" /><path d=""  fill="#fff" /><path d="M-394.5-100.9c14.3 37.5 69.8 140.5 49.7 177.9-5.7 10.6-20.9-2.5-11.2-9.7 9.7-7.2 18 11 6.1 13.5-13.4 2.9-6.2-54.4-11.8-75.2-9-33.3-37-72.5-41.3-104.2-0.7-5.4 6.3-6.5 8.5-2.3z"  fill="#005bbb" /><path d="M-394.3-109.8c14.5 39.4 77.6 147.8 60.7 186.3-4.6 10.4-19.8-0.7-11.3-8.2 8.5-7.5 17.6 9 6.8 12.2-12.5 3.7-10.3-54-14.9-69.7-12.2-40.8-35.1-77.4-49.7-117.3-2.1-5.6 5.8-8.3 8.4-3.3z"  fill="#c2e1ff" /><path d="M-394.3-110.7c14.5 39.5 78.2 148.2 61.8 186.6-4.4 10.3-19.6-0.5-11.2-8 8.3-7.5 17.6 8.7 6.8 12-12.3 3.8-10.8-54-15.7-70.1-12.6-40.7-35.5-77.3-50.1-117.2-2.1-5.6 5.8-8.3 8.4-3.3z"  fill="#fff500" /><path d="M-394.4-75.7c2.2 5.9 20.2 40.3 10.2 43.1-6.3 1.7-8.4-8.3-2-9.3 6.4-1 7.5 9.2 1 9.5-7.3 0.4-18.7-36.5-18-42.2 0.6-5 6.8-4.9 8.8-1.1z"  fill="#fff" /><path d="M-386.4-298.1c-12.3 30.7-5.4 41.9-7.1 92.6-2.1 64.1 7.8 98.6 37.9 153.2 14.9 27.1 61.9 96.8 56.1 127-2 10.7-18 0.5-9.2-5.9 7.5-5.4 13.7 8.7 4.5 10.6-9.8 1.9-15.9-45.9-19.3-54.4-22-55.4-62-102.4-78.1-160.5-8.6-30.9-3.6-145.1-3.6-160.3 0-16 22.2-17.7 18.8-2.3z"  fill="#fff500" /><path d="M-394.4-83.9c2 5.3 17.4 32 8.5 34.9-5.8 1.9-8.3-7.5-2.3-8.7 6-1.2 7.5 8.3 1.3 8.9-7.1 0.7-16.8-28.7-16.2-33.9 0.6-4.9 6.6-4.9 8.7-1.2z"  fill="#005bbb" /><path d="M-362.9-138.2c11.3 70 72.8 114.1 100.5 176.3 2.8 6.3 18.3 35.4 9.2 40.3-7.5 4-11.4-9.6-2.9-10.1 8.5-0.5 6.3 13.4-1.6 10.4-8.2-3.2-13.8-40.4-17.9-49.5-21.2-46.2-60.1-81-83-126.1-5.5-10.9-15.1-27.6-14.9-40.2 0.1-6.6 8.7-6.6 10.6-1.1z"  fill="#c2e1ff" /><path d=""  fill="#fff" /><path d="M-336 39.3c1.3 7.1 9.2 43.8-6.1 41.5-9.7-1.5-6.5-16.5 2.9-14.1 9.4 2.5 4.7 17.1-4.4 13.7-13.3-5.1 0.5-69.9 7.6-41.1z"  fill="#fff" /><path d="M-394.5-103.7c1.5 4.1 11 18.1 3.3 20.8-4.8 1.7-8.1-5.1-3.7-7.8 5-3.1 9.5 5.1 4.1 7.6-7.2 3.5-12.9-15.2-12.4-19.4 0.5-4.9 6.6-4.9 8.7-1.2z"  fill="#fff" /><path d="M-307.8-267.4c-55.5 46.5-75.5 106-42.9 173.7 24.4 50.7 68.8 88.8 89.5 141.5 1.9 4.8 14.4 28.6 3.6 30.6-8.3 1.5-7.8-12.5 0.4-10.4 8.2 2.1 1.8 14.6-4.7 9.3-4.2-3.5-18.7-52.9-24.8-63.7-37.7-65.9-104.5-120.7-92.9-204.7 3.6-25.7 33.6-89.3 61.5-96 12.3-3 17.5 11.6 10.3 19.7z"  fill="#fff" /><path d="M-295-251.6c-53.1 38.6-76.7 92-47.4 154.5 24.7 52.8 72.2 90.5 91.7 146.5 1.9 5.3 13 27.9 2.1 29.5-8.6 1.3-7.6-13.1 0.7-10.6 8.3 2.4 1.4 15.1-5.1 9.4-4.6-4.1-17.8-55.5-24.4-67.4-34.8-62.7-103.4-114-90.3-194.2 4.1-24.9 35.9-84 63.5-88.7 12.9-2.2 17.3 13.1 9.2 21z"  fill="#c2e1ff" /><path d="M-285.5-89.8c12.9 27.3 31.2 51.5 43 79.4 4.7 11.1 31.7 83.6 16 89.4-9.2 3.4-11.4-12.7-1.6-12 9.8 0.8 5 16.3-3.6 11.5-9.1-5.2-8.7-49.5-11.4-60.3-10-40.3-43.9-81.3-49.7-105.3-1.1-4.7 4.9-6.2 7.3-2.7z"  fill="#c2e1ff" /><path d=""  fill="#fff500" /><path d="M-257.9 58.6c1.3 3.7 9.3 22-1.9 20.4-6.1-0.9-5.7-10.1 0.5-10.6 7.2-0.5 7.4 10.9 0.1 10.6-16.6-0.7-5-35.1 1.3-20.4z"  fill="#fff" /><path d="M-245.2-63.6c8.2 21.2 40 124 27.8 141-6 8.3-17.3-4.3-8.4-9.3 8.9-5 13.9 11.2 3.7 12-12.4 1-8.8-41.3-9.6-49.3-3.5-32.8-19-65.4-22.3-92.3-0.7-5.5 6.5-6.5 8.8-2.1z"  fill="#c2e1ff" /><path d=""  fill="#fff" /><path d="M-215-320.7c-43.4 63.6-150.7 87.2-139.6 180.4 7.7 64.4 62.7 105.6 91.5 159.9 1.7 3.3 16.9 26.9 5.1 26.7-6.3-0.1-5.5-10 0.7-9.2 6.2 0.8 4.4 10.5-1.7 9.1-8-1.9-20.2-40.5-25.3-48.6-38.3-60.1-104.4-117.8-78.7-197.2 17.4-53.8 70-77.1 109.9-111.3 8.1-7 16.2-21.1 25.8-25.4 10.3-4.7 17.4 7.2 12.3 15.6z"  fill="#005bbb" /><path d=""  fill="#005bbb" /><path d="M-189.1-138.5c-12.7 54.5-12.6 113.3-15.5 169-0.4 8.4 3.8 51-9.7 49.5-9.4-1-6.9-15.7 2.3-13.6 9.2 2.1 5.2 16.3-3.7 13.3-11.9-4-2.1-60.6-1.5-71.5 1.9-34.1 0.5-124 13.5-151.5 4-8.6 15.3-3.6 14.6 4.8z"  fill="#c2e1ff" /><path d=""  fill="#fff" /><path d="M-162.1-249c-32.7 55.4-68.2 99.7-60.3 167.7 2 17 22.4 162.5 4.4 161.3-7.8-0.6-8.2-12.2-0.5-13.4 9-1.3 10.3 13 1.2 13.4-12.4 0.5-7.9-74.8-8.6-86.4-3.8-58.3-23-118.1 1.3-174.3 10.8-25 28-60.8 47.5-80.2 8.4-8.3 19.4 2.3 15 11.9z"  fill="#005bbb" /><path d="M-149.3-198.9c-10.4 35.7-14.3 72.7-22.1 108.9-7.5 35.1-18.1 69.4-24.1 104.8-1.7 10.1-2.3 67.4-15.3 65.4-18.4-2.8 8-25.7 8.2-7.1 0.2 12.5-14.9 6-13.6-6.5 4.9-51 37-222.2 51.2-269.7 3.1-10.3 17.1-5.9 15.7 4.2z"  fill="#fff" /><path d="M-136.5-106.5c-6.8 48-37.1 87.5-50.5 133.4-2.4 8.3-6.9 61.6-21.2 53.1-7.5-4.4-2.1-16.2 6.1-13.5 9.6 3.1 3.8 18.1-5.4 13.9-13.5-6.1 5.9-62.3 9.2-73.1 4.9-15.8 49-120.7 49.7-121.4 5.9-4.5 12.6 1 12.1 7.6z"  fill="#c2e1ff" /><path d="M-122.6-33c-17.2 26.1-40.4 47-53.5 75.8-3.2 7-10 47.2-23.9 37-8.8-6.5 2.2-19.8 10.2-12.4 8 7.4-4.3 19.4-11.5 11.2-11.6-13.3 47.3-117.4 66.1-126.7 10-4.9 17.3 6.6 12.6 15.1z"  fill="#005bbb" /><path d="M-110-242.6c-11.5 52.8 3.2 106.5-7.9 158.6-9.4 43.8-43.8 74.5-60.7 114.9-3.8 9-9.9 53.8-22.9 50.3-11.9-3.2-2.5-21.4 7-13.5 9.5 7.9-6.7 20.4-12 9.3-14-29.5 57.1-126.3 68.8-153.8 22.6-52.7 0.4-113.5 12.6-168.6 2.2-9.9 15.8-6.8 15.1 2.8z"  fill="#fff" /><path d=""  fill="#fff" /><path d="M-84.5-236.9c-5.4 100.6 118.9 207.9 16.8 290.4-10.9 8.8-36.4 32.6-50.9 32.1-22.2-0.7-6.8-36.2 8.9-20.4 18.5 18.6-27.7 29.9-19.9 4.9 7.3-23.4 76.1-39.2 88.3-88.5 14.3-57.1-35.2-113.7-49.5-166.3-4.1-15-10.9-38.4-6.9-54 2-7.9 12.4-5.5 13.2 1.8z"  fill="#005bbb" /><path d="M-88.3-395.7c-12.6 31.1-19.6 64.1-30.3 95.9-22.1 65.5-49.7 125-61.5 193.7-2.4 13.9-12.7 111.4-25.5 109.1-9.8-1.8-6.1-17.1 3.5-14.3 8.2 2.5 5.8 15-2.7 14.4-15.5-1.2 3.4-73.6 5.3-85.1 20.4-119.1 35.6-133.3 70-238.5 4.4-13.6 20.3-81.2 29-85.9 7.5-4 13.9 3.5 12.2 10.7z"  fill="#fff500" /><path d="M-63.1-396.4c-13.7 55.2-32.4 150-23.8 205.2 8.8 55.9 53.3 113.5 34.3 171.4-3.8 11.5-30.8 62.7-46.7 41.6-6.9-9.1 3-22 13.5-17.7 12.5 5 7 24.4-6.2 22.1-31.5-5.3 32.6-43 30.5-90.5-2.6-59.2-41.4-109.6-40.8-170.5 0.2-26.7 14.3-146.5 24.5-166.9 4.3-8.6 15.6-3.3 14.7 5.3z"  fill="#fff" /><path d="M-47.8-397.5c-10.4 76.7-20.7 185.4 35.5 245.8 26.7 28.7 126.1 80.3 137.2 104.4 1.8 4-5.8 4.4-4.4 0.2 1.4-4.1 7.2 0.8 3.3 2.9-3.1 1.6-31.7-27.1-36.5-30.7-58.3-43.1-130.1-74.6-148.9-151.8-7.3-30.2-10.4-146.3-0.2-174.1 3.1-8.3 13.9-4.6 14 3.3z"  fill="#005bbb" /><path d="M-32.8-398.8c-1 82.9 10.7 179.6 74 238.5 35.6 33.2 79.9 56.3 113.8 91.2 2.8 2.8 20.9 18.5 13.8 22.6-4 2.3-7.3-4.2-3-6 3.6-1.6 6.5 3.5 3.3 5.8-5.4 3.9-20-21.9-23.4-25.5-57.7-61.2-143.7-90-170.5-177.3-14-45.8-21.3-101.2-21-149.1 0-8.7 11.9-8.4 13-0.2z"  fill="#005bbb" /><path d="M-16.4-399.7c12.1 88.9 62.6 191.1 127 253.4 19.8 19.2 87.2 65.9 90 92.5 0.8 7.8-12.3 4.1-7.6-2.2 4.1-5.3 11.2 3.2 5.3 6.4-4 2.1-31.2-41.4-37.5-47.7-67.8-66.3-103.4-88-145.6-179.1-17.7-38.3-35.9-79.4-42.8-121.3-1.2-7.4 9.1-8.8 11.2-2z"  fill="#fff500" /><path d=""  fill="#c2e1ff" /><path d="M5.4-304.6c14.1 39.9 30.9 78.7 56.1 113 71.4 97.5 143.8 83.6 149.9 226.2 0.3 7.6 8.7 39.7 1.4 43.6-8.7 4.7-10.6-12.4-1.1-9.8 9.5 2.6-0.8 16.3-6 7.9-17.7-29.1-1.8-93.8-20.9-132.8-25-51.1-103-93.9-140.8-149.1-17.5-25.5-44.1-65.4-47.5-96.9-0.6-5.6 6.7-6.6 8.9-2.1z"  fill="#fff500" /><path d="M15.1-106.1c63.6 49.8 109.4 72.2 133.6 155.1 1.7 5.7 11.5 23.8 5.4 28.1-7 5-10.5-9.6-2.1-8.3 7.3 1 3 12.4-3.1 8.4-7.1-4.6-28.1-82.6-39.3-98.9-23.6-34.3-60.7-56.2-93.6-80.4-1.1-0.8-4.6-6.2-0.9-4z"  fill="#fff" /><path d="M29.9-350.8c20.1 29.3 47.1 52.9 68.1 81.4 21.3 28.9 36 62.2 59.3 89.8 54.7 64.8 112.3 77.4 92.7 178-1.5 7.9-1.9 31.7-10.2 35.6-9.2 4.3-15.2-10.5-5.6-13.8 8.2-2.8 13.7 8.9 6.3 13.4-4.4 2.7-10.4 0-11.2-5.1-6.9-40.9 33.9-77-2.8-133.3-20.6-31.6-55.8-51.1-80.1-79.7-22.3-26.3-36.7-57.7-56.5-85.7-17.7-25.1-40.3-46-59.3-69.9-1.7-2.2-7.7-18.2-0.7-10.7z"  fill="#c2e1ff" /><path d="M43.8-275.8c21.9 38.1 41.8 78.4 70.7 111.9 74.8 86.8 109.6 67.7 107.5 200.1-0.1 7.8 6.6 38.8-0.9 42.4-9.2 4.5-10.6-13.3-0.7-10.2 9.8 3.1-1.5 16.9-6.5 7.9-18-32.4 5.4-99.5-14.1-142.2-22.4-49.2-78.1-77-109.9-119.9-15.7-21.3-45.6-62.4-52.7-87.2-1.2-4.3 4.3-6 6.6-2.8z"  fill="#c2e1ff" /><path d="M56.5-204.8c78.8 121.3 148.9 78.2 156.4 244.3 0.3 7.1 8.2 35.1 0.9 38.9-8.7 4.6-10.6-12.5-1-9.8 9.5 2.6-0.9 16.4-6 7.9-17.6-29.3-1.2-94.5-20-133.6-21.8-45.6-72.2-71.6-105.9-107.5-34.7-37-29.6-46.1-24.4-40.2z"  fill="#fff" /><path d="M70.1-247.8c17.9 30.3 34.2 61.5 58 87.9 71.5 79.5 103.3 72.6 97.7 193.1-0.4 7.9 5.8 41.5-1.9 45-9.5 4.4-10.5-13.7-0.6-10.4 9.9 3.3-1.8 17.2-6.7 8-18-33.7 8.4-101-11.1-145.1-19.9-44.9-68.9-70.3-98.9-107.9-14.7-18.4-36.4-45-43-67.8-1.2-4.2 4.2-5.9 6.5-2.8z"  fill="#005bbb" /><path d="M83.1-209.8c36.3 60.7 95.1 90.7 124 139.3 19.9 33.6 15.9 70.5 15.3 107.7-0.1 7.5 6.5 37.5-1 41.1-9.3 4.5-10.5-13.4-0.7-10.3 9.8 3.1-1.6 17-6.6 8-19.5-35.4 5.6-98.4-13-141.1-19.7-45-68.6-70.5-99.4-107.3-8-9.5-20.9-22.6-24.8-34.5-1.3-4 3.8-5.8 6.2-2.9z"  fill="#c2e1ff" /><path d="M157.9-400.2c37.6 40 58.3 88.3 90 132.2 34.3 47.7 91.1 80.4 89.5 146.2-0.2 8.7-0.2 23.8-5.4 31.2-6.4 9.2-20.3-1.7-12.9-10.2 8.6-9.9 21.5 7.6 9.5 13-4.3 1.9-9.4-0.2-11-4.6-6.8-17.6 22.6-52-13.2-103.7-19.5-28.2-47.6-49.2-67.7-77.1-27.5-38-45.4-81.4-76.4-117.1-0.1-0.1-9.6-16.1-2.4-9.9z"  fill="#c2e1ff" /><path d="M107.6-325.2c41.1 31.3 61.6 76.8 96.2 113.6 27.1 28.7 66.7 47.5 84.9 83.8 21.6 43 1.9 88.5-14.8 129.4-3.9 9.5-14.1 61.4-25.1 59.4-8.3-1.5-7.4-14.1 1-14.4 8.4-0.3 10.3 12.1 2.1 14.3-9.9 2.6-9-9.1-8.3-14.7 7.3-58.2 61.6-118.7 33.9-178.3-17.1-36.7-57.5-55.8-84.4-84.2-27.3-28.8-44.5-65.5-72.9-93.4-1-1-18.5-19.2-12.6-15.5z"  fill="#fff500" /><path d="M122.8-225.8c36.2 62.2 96.7 96.2 118.2 137.1 19.3 36.7 8.8 76 2.2 114.3-1.6 8.9 0.6 50.3-7.1 53.3-10.4 4-10.2-15.3 0.1-11.1 10.3 4.2-3.1 18.1-7.7 8-18.1-39.9 20.2-106.4 7.4-153-12.8-46.9-62.6-71.1-92.2-106.4-9-10.7-23.2-25.9-27.3-39.4-1.3-4.1 4.1-5.9 6.4-2.8z"  fill="#fff" /><path d=""  fill="#c2e1ff" /><path d="M147.7-159.6c79.7 85.6 95.7 67.9 85.1 195.6-0.7 7.9 4.4 39-3.4 42.5-9.9 4.3-10.4-14.4-0.3-10.8 10.1 3.7-2.4 17.6-7.1 8-16.7-33.6 9.5-97.5 0.1-137.2-9.8-41.3-46.4-65.2-75.3-92.8-2.3-2.2-3.3-8.5 0.9-5.3z"  fill="#fff" /><path d="M161.3-316.7c25.1 27.5 41.2 61.8 66.7 89.1 31 33.1 75.4 56.7 85.4 104.6 9.7 47.3-17.5 90.4-36.2 131.7-7.2 15.9-13.5 32.3-16.3 49.6-0.9 5.5 1.1 19.4-6.4 21.5-11.8 3.2-9.4-18 1.4-12.2 9.2 5-2.2 18.1-8.4 9.8-20.9-28.1 64.3-156.2 52.7-210-10.8-50-63.4-75.2-93.7-112.1-33.3-40.5-51.2-65.5-49.7-71 0.6-2.2 3-2.3 4.5-1z"  fill="#fff" /><path d="M205.5-399.9c16.3 36.7 32.3 75.1 53.7 109.2 38.8 62 107.6 102.8 86.1 186.5-2.6 10.2-7.9 35.8-18.4 40.8-15.7 7.4-17.6-22.7-1.1-17.3 16.5 5.4-2.8 28.6-11.1 13.3-7.1-13.2 33.6-61.4 16.2-114.3-16.1-48.7-63.6-80.2-88.9-123.9-13.2-22.8-39.8-66.8-44.5-91.8-0.9-5 5.6-6.4 8-2.5z"  fill="#c2e1ff" /><path d=""  fill="#005bbb" /><path d="M201.9-75.8c8.1 11.5 13.7 24.8 16.9 38.5 3 12.9 9.5 114.8 0.2 116-8.7 1.1-7.4-13.4 1-10.7 8.4 2.6 1.1 15.3-5.4 9.4-14.7-13.4-5.5-66.6-5.3-84.7 0.2-23-21.2-86.8-7.4-68.5z"  fill="#c2e1ff" /><path d=""  fill="#fff" /><path d="M228.2-96.8c26.8 36.5 18.5 79.6 12 121.1-1.4 8.9 1 54.6-8.2 55.1-9.4 0.6-6.9-14.8 1.8-11.4 8.7 3.4 0.1 16.3-6.4 9.6-11.7-12.2 2.9-82.7 5.1-100.5 3.7-29.1-15.2-87.9-4.3-73.8z"  fill="#fff500" /><path d="M245.8-9.9c-6.6 51.3-7.7 85.6-10.2 87.8-7.1 6.1-14.5-7.6-5.5-10.1 9-2.6 10 13 0.7 11.5-15.2-2.4-5.7-84.6 1.7-94.7 4.8-6.6 13.5-1.6 13.3 5.5z"  fill="#005bbb" /><path d="M255.4-334.8c25.7 58.8 88.6 99.4 101.6 163.2 15.5 76.2-44.2 130.8-75 193.3-4.5 9.1-13.3 56.7-23.2 55.4-8-1-7.8-13.1 0.3-13.8 9.4-0.8 9.9 14.1 0.5 13.9-13.1-0.3-5.1-26.4-3.8-32.7 15.3-71.9 86.9-121.7 90.4-197 3.1-67-55.2-104.3-86.3-156.3-19.1-32-5.9-28.1-4.5-26z"  fill="#fff" /><path d="M271.5-399.2c5.9 71.2 58.3 109.8 90.5 167.9 33.8 61.3 12.6 125-25.3 178.3-6.7 9.4-26.6 48.1-40.3 43.3-11-3.8-7.1-20.8 4.5-19.4 11.5 1.4 11.4 18.7-0.2 19.9-6.9 0.7-12.5-6-10.6-12.7 12.2-42.4 79.2-74.3 76.2-158.1-2.4-66.9-62-105.8-88.9-162.2-7.2-15.1-19.3-39.6-17.5-56.8 0.7-7.1 10-6.4 11.6-0.2z"  fill="#005bbb" /><path d=""  fill="#005bbb" /><path d="M294.2-320.8c24.6 44 67.8 75.9 79.9 126.7 19.9 83.2-44.5 140.6-82.9 205.5-21.2 35.8-20.9 70.1-30.2 69-10.9-1.3-4.9-18.5 4.4-12.8 10.9 6.7-6.9 20.1-10.3 7.7-16.3-60.8 95.9-160.2 107.6-227.6 12.3-71.2-40.5-110.9-74.5-164.9-2.5-3.9 3.2-7.1 6-3.6z"  fill="#c2e1ff" /><path d="M306.6-286.7c38.6 49.9 77.7 94.1 61.3 162-12.8 53.3-53.5 92.6-79.7 139.2-5.5 9.8-19.9 66.7-27.9 65.8-10.8-1.2-5-18.4 4.3-12.8 9.3 5.7-3.2 18.8-9.2 9.7-22.7-33.8 89.3-172.9 99.7-216.7 7.3-30.5 2.9-62.1-12.2-89.5-10.8-19.6-31.9-35.2-41-54.8-1.4-3.1 2.5-5 4.7-2.9z"  fill="#005bbb" /><path d="M299.2-399.1c3.4 72.3 69.8 112.5 91.1 177.1 13.3 40.2 7.5 83.6-12.1 120.6-5.2 9.9-21.6 46.5-36.4 40.4-11.1-4.6-6.1-21.8 5.7-19.7 11.8 2.1 10.7 20-1.4 20.5-7.2 0.3-12.6-6.9-10.2-13.8 12.1-34.8 57.2-53.4 47.4-130.5-7.5-59.7-57.7-96.1-82.1-147.9-5.9-12.5-15.7-32.5-13.9-46.7 0.9-7.3 10.4-6.3 11.9 0z"  fill="#fff500" /><path d="M336.9-140.4c9.1 58.7-33.6 107.9-57.3 157.4-4.7 9.7-16.1 67-25.7 62.9-9.8-4.2 0.6-18.6 7.7-10.7 6.1 6.8-5.2 15.8-10.5 8.4-16.8-23.5 34.4-110.8 47-133.4 24.6-44.4 20.7-72.4 27.1-86.7 2.8-6.2 10.6-3.6 11.7 2.1z"  fill="#005bbb" /><path d="M346.7-330.8c42.8 68.3 90.4 120.1 55.5 206.6-20.5 50.7-65.2 84.9-96.8 128-10.2 13.9-19.3 28.9-25.2 45.1-2.3 6.3-3 28.4-14.1 26.3-11.4-2.2-3.8-19.9 5.7-13.2 11 8-8.9 20.7-11.5 7.3-12.4-65.3 114.8-156.9 134.4-223.9 9.9-33.7 6.4-70.1-7.9-102.1-11.3-25.1-36.9-46.1-46-71.2-1.4-3.8 3.5-5.7 5.9-2.9z"  fill="#005bbb" /><path d="M361.4-399c3.6 64.4 70.6 118.1 78.9 195.1 7.6 70.6-27.1 120.4-77.4 165.5-7.4 6.6-21.5 26.2-33 19.4-11.1-6.7-3.1-24.3 9.2-20.2 12.3 4.1 8.2 23.1-4.7 21.7-7.7-0.8-12.3-9.4-8.7-16.3 20.9-39.8 93.3-53.4 101.8-145.1 7.7-83.3-43.6-124-70.7-193.9-10.1-26-0.2-43.5 4.6-26.2z"  fill="#c2e1ff" /><path d="M377.6-22.9c-21.5 17.1-43.6 34.3-60.2 56.5-7 9.4-16.1 43.2-25.2 46.8-13.4 5.3-13.4-19.8 0-14.4 11.5 4.6 0 21.5-8.5 12.5-16.8-17.8 59.9-117.2 84.4-122 12.7-2.5 17.3 12.6 9.5 20.6z"  fill="#fff" /><path d="M391.8 34.3c-5.6 7.9-21.6 54.8-33.8 45.6-8.7-6.6 2.4-19.8 10.4-12.3 6.8 6.4-1.6 17.6-9.7 12.8-13.2-7.9 12.2-68.5 29.1-60.3 5.7 2.8 6.5 9 4 14.2z"  fill="#c2e1ff" /><path d="M404.4 59.7c-1.3 4.4-4.6 30.2-15.6 18.5-15.3-16.3 27.8-11.4 9.3 1-14.2 9.5-10.9-19.8-8.5-24.7 4.2-8.7 15.6-3.4 14.8 5.2z"  fill="#fff500" /><path d="M413.3-338.8c37 71.5 76.9 160.1 41.8 240.6-19.2 44.2-58.7 71.2-94.2 101.4-13.1 11.1-51 57.6-55.3 56.8-16.7-3.1-0.9-28.1 9.1-14.3 10 13.8-18.7 21-16.5 4.1 7.7-58 126.8-106.6 149.5-177.4 21.2-66.2-6-141.3-37-199.7-1.8-3.5-4.3-21.4 2.6-11.5z"  fill="#005bbb" /><path d="M431.3-104c-29.6 57-94.3 83.7-128.5 137.3-5.5 8.6-14.2 46.2-23.6 47.2-11.8 1.3-9.7-18.2 1.5-14.5 11.2 3.8 1.1 20.6-7.5 12.5-5.6-5.3-0.5-18.2 1-24.1 16.1-63.3 73.9-96.6 117.1-139.8 7.9-7.9 18.4-29.6 29-32.8 9-2.8 14.4 6.7 11 14.2z"  fill="#005bbb" /><path d="M441-372.5c21.1 81.3 66.3 155.8 79.5 239.7 9.1 58.2-15.6 114.6-7 172.4 0.9 6.3 11.2 29.7 5.1 33.9-5.2 3.6-10.4-4.8-4.9-7.9 6.5-3.5 9.9 8.2 2.6 8.7-9 0.6-12.2-26-13.6-32.1-13.2-59.6 13.3-118.2 5.7-178-10.4-81.7-53.2-155.9-76.9-233.7-1.9-6.3 7-8.6 9.5-3z"  fill="#c2e1ff" /><path d="M453.5-298.6c27.7 65.1 53.7 146.8 35.1 217.3-11.8 45.1-43.7 83.5-51.4 129.6-1.1 6.6 3.4 30.3-6.5 31.1-7.9 0.6-8.1-11.9-0.2-11.6 7.9 0.3 6.8 12.7-1.1 11.5-9.9-1.4-6.9-25.9-6.5-31.9 3.6-61 51.5-108.9 57.8-169.9 6.2-60.1-36.8-162.6-35.6-174.9 0.5-4.8 6.4-4.9 8.4-1.2z"  fill="#fff500" /><path d="M466.9-299.6c23.2 59.5 51.6 127.4 53.7 191.8 1.5 46.6-16.1 91.7-12.4 138.2 0.7 8.7 12.7 39.6 8.6 45.5-4.1 5.9-12.1-2.9-6-6.4 6.2-3.6 9.8 7.7 2.7 8.3-8.9 0.8-13.1-27.3-14.5-33-13.6-57.9 12.3-114.1 7.9-172.1-2.8-36.8-50.2-159.6-48.8-171.2 0.6-5 6.7-4.9 8.8-1.1z"  fill="#fff" /><path d=""  fill="#fff" /><path d="M493.3-269.6c18 49.7 46.4 98.9 54.3 151.6 7.1 47.5-5.9 94.8-2.8 142.4 0.5 7.9 12.5 52.5 4.2 54.2-9.1 2-6.5-14 1.5-9.2 6.8 4.1-2.3 13.7-6.7 7.2-26.7-39.2-4.2-142.3-7.7-189.9-4-54.6-34.3-102.2-51.4-153.1-1.9-5.8 6-8.3 8.6-3.2z"  fill="#fff500" /><path d="M506.3-233.7c16.3 41.7 37.9 82.2 41.9 127.6 3.9 43.8-7.2 87.3-4.1 131.2 0.5 7.7 12.6 51.1 4.1 53-7.8 1.7-7.8-11.5 0-9.8 9.1 2 0 15.5-5.2 7.7-25.6-37.7-5.4-137.3-7.3-182.6-2.3-55.9-32.8-88.2-37.9-124.8-0.8-5.4 6.2-6.5 8.5-2.3z"  fill="#fff" /><path d="M519.3-255.7c18.1 42.7 47.4 81.6 55.2 128 8.5 50.4-7.9 100.7-7 151.3 0.1 8.4 9.7 53.6 0.4 54.9-8.6 1.2-7.5-13.1 0.8-10.6 8.3 2.5 1.3 15-5.1 9.3-22.7-20 1.3-159.2 0-192.9-2-51.6-32.5-90.9-52.1-136.6-2.2-5.2 5-8 7.8-3.4z"  fill="#fff500" /><path d="M532.1-218.8c62.1 124.2 27.6 125.3 32.2 246.4 0.3 8.1 10.3 49.5 0.9 51-8.5 1.3-7.6-12.9 0.6-10.5 8.2 2.4 1.5 14.9-5 9.2-22.1-19.1-1.4-151.9-1.6-183.7-0.4-61.6-25.3-70.5-34.5-109.7-1.1-4.7 5-6.2 7.4-2.7z"  fill="#fff500" /><path d="M545.3-262.8c19.3 40.6 49.6 76.1 55.8 122 7.3 54.1-14.8 107.5-16.6 161.3-0.3 8.8 7.5 57.6-2.3 58.6-9.1 0.8-7.2-14.2 1.4-11.1 8.6 3 0.6 15.9-5.9 9.5-22.2-21.7 11.1-170.3 11.6-205.4 0.7-51.4-29.2-87.7-51.1-131.3-2.3-4.7 4.3-7.7 7.1-3.6z"  fill="#fff" /><path d="M561.3 21.7c0.2 10 10.7 49 4.6 55.4-5.8 6.2-13.7-5.5-5.9-8.6 7.9-3.2 10.2 10.7 1.7 10.3-10-0.5-15.9-52-12.5-59.4 2.9-6.4 11-3.7 12.1 2.3z"  fill="#fff" /><path d="M573.7 64c0.4 2.9 1.2 23.7-8.1 13.3-9.6-10.6 17.3-11.4 8.4-0.2-7.3 9.1-11.8-8.2-11.5-12.5 0.5-6.9 9.4-6.5 11.2-0.6z"  fill="#c2e1ff" /><path d="M587.6 40.6c0.2 7.4 7.3 34.4-0.9 38-7.2 3.1-11.5-8.5-4-10.9 8.8-2.7 10.1 12.5 1 11.3-20.7-2.8-1.5-69 3.9-38.4z"  fill="#005bbb" /><path d="M599-180.5c26.1 64.9-7.9 135.9-10.5 201.8-0.4 10.3 7.6 50.2 0.5 56.5-6.9 6.2-14.4-7.2-5.5-9.9 8.8-2.7 10.1 12.5 0.9 11.3-16.3-2.2-8.5-82.8-7-95.4 3.1-26.6 13-53.7 13.6-80.3 0.4-18.2-3.3-78.6-0.8-84.4 1.8-4.2 7.1-3.2 8.8 0.4z"  fill="#c2e1ff" /><path d="M606.2-21.2c-7.8 40.2-0.2 94.6-6.1 99.5-7.3 6.1-14.6-7.8-5.4-10.3 9.2-2.5 10 13.2 0.6 11.6-15.5-2.6-8.7-92.8-3.5-105 3.6-8.5 14.8-4 14.4 4.2z"  fill="#fff500" /><path d="M606.3-30.4c-5 23.6-7.7 47.6-7.5 71.7 0.1 8.5 5.3 28.2 1 35.4-5.7 9.5-17.4-5.8-6.7-8.8 9.1-2.5 10 13.1 0.6 11.6-16.9-2.8-8-101.5-2-114.5 3.9-8.5 15.1-3.7 14.6 4.6z"  fill="#fff500" /><path d=""  fill="#fff" /><path d=""  fill="#fff500" /><path d=""  fill="#c2e1ff" /><path d=""  fill="#c2e1ff" /><path d=""  fill="#fff500" /></svg>