<svg width="1200" height="675" viewBox="-500 -500 1200 675" xmlns="http://www.w3.org/2000/svg"><path d="M-500-500h1200v675h-1200z" fill="#000"/><path d="M-397.2-94.2c32.7 37.4 57.2 81 49.9 132.4-0.7 5-0.5 17.4-6.1 19.4-8.2 2.9-7.6-12.2 0.3-8.7 6.8 3-0.5 12.9-5.4 7.3-4-4.5 2.3-17.3 3.2-22.6 2.7-16.2 2.4-32.8-1.3-48.9-6.3-27.4-21.6-51.4-39.3-72.8-0.3-0.4-5.5-10-1.3-6.1z"  fill="#005bbb" /><path d="M-397.1-35.3c18.1 21.6 43 95.5 22.8 112.3-4.8 4-10.7-3.9-5.4-7.4 6.1-4 10.4 7.2 3.2 8.4-9.1 1.4 3.3-31.5-1.5-61.3-2.9-18.2-32-65.2-19.1-52z"  fill="#fff500" /><path d=""  fill="#005bbb" /><path d="M-396.4-156c6.2 14.5 81.3 138.8 61.6 146.7-5.2 2-6.6-7.1-1.1-6.8 5.5 0.3 3.1 9.2-1.8 6.6-5.3-2.8-10.3-42.1-13.5-50-7.8-19.4-50.7-80.9-49.9-95.6 0.1-2.7 3.4-2.9 4.7-0.9z"  fill="#005bbb" /><path d=""  fill="#fff500" /><path d="M-397.7-89.6c36.2 40.3 58.8 87.9 46.2 142.9-1.3 5.7-3.2 23.1-9.7 24.8-8.9 2.3-6.9-13.6 1.1-9.1 6.9 3.8-1.7 13.6-6.3 7.3-3.8-5.2 4.4-19.5 5.9-25.2 4.8-18 6.7-36.7 4-55.2-4.5-30.1-20.4-56.5-39.8-79.4-0.2-0.3-5.6-9.9-1.4-6.1z"  fill="#c2e1ff" /><path d="M-396.6-140.4c16.6 30.3 38 58 50.9 90.4 5.8 14.6 19.5 93.1 3.5 98.6-8.3 2.8-7.5-12.4 0.4-8.8 6.8 3.1-0.7 13.1-5.6 7.4-4.1-4.8 3.3-21.4 4.2-27.2 2.5-17.4 1.6-35.1-2.6-52.3-9.3-37.5-32.5-68.5-51.8-101.2-1.1-1.9-3.1-12.4 1-6.9z"  fill="#c2e1ff" /><path d=""  fill="#fff" /><path d=""  fill="#005bbb" /><path d=""  fill="#fff500" /><path d="M-397.4-93.7c36.4 41.6 60.3 89.7 47.3 146-1.3 5.7-3.6 24.4-10.3 26.1-7.7 1.9-8.1-11.2-0.3-9.7 9.1 1.7 0.5 15.3-4.9 7.8-3.9-5.3 5-20.8 6.5-26.4 4.9-18 6.8-36.7 4.1-55.2-4.5-31.2-21.2-58.6-41.1-82.4-0.3-0.4-5.5-10-1.3-6.2z"  fill="#005bbb" /><path d="M-396.3-157.7c28.9 69.5 82.1 125 58.5 205.6-1.9 6.5-6.4 29.2-13.9 30.7-9.5 1.8-6.2-14.7 1.9-9.5 8.1 5.2-5.6 14.9-7.9 5.6 0-0.1 21.6-68.5 17.2-97.6-7.3-47.5-38.1-85.4-58-127.8-1.3-2.7-1.6-13.3 2.2-7z"  fill="#fff" /><path d="M-396.2-166.9c26.1 74.3 84.8 131.4 58.9 215.9-1.9 6.2-6.3 27.9-13.6 29.3-9.5 1.7-6.2-14.8 1.9-9.5 8.1 5.3-5.7 15-7.9 5.6-1.9-8.2 9.9-26.3 12.4-34.6 6.1-20 8.3-40.9 5.5-61.7-6.9-51.1-41.1-91.5-60.1-138-1.3-3.1-0.6-13.8 2.9-7z"  fill="#005bbb" /><path d="M-396.5-154.7c29.8 67.8 81.3 122.8 58.5 202.2-1.9 6.6-6.5 29.9-14.1 31.3-9.5 1.8-6.2-14.7 1.9-9.4 8.1 5.2-5.6 14.9-7.9 5.5-1.9-7.8 9.4-25.4 11.9-33.3 6.1-20 8.4-40.9 5.5-61.7-6.5-47.7-37.2-85.6-57.8-127.6-1.2-2.5-1.9-13.2 2-7z"  fill="#fff500" /><path d="M-390.2-178.8c20.2 79.6 83.3 140.1 55.3 227.6-2 6.3-6.9 28.5-14.3 29.7-9.6 1.6-6-15 2-9.5 8.1 5.4-5.9 15-8 5.5-1.7-7.7 9.5-24.2 12.1-32 7-20.8 10.1-42.7 7.7-64.6-6.1-54.6-42.7-98.4-58.8-149.8-1.2-3.7 0.9-14.3 4-6.9z"  fill="#005bbb" /><path d="M-381.7-219.2c2.4 95.7 84.4 171.2 49.5 269.7-2.2 6.1-7.1 27-14.5 28.1-9.8 1.5-5.8-15.2 2.3-9.6 8.1 5.6-6.2 15.1-8.3 5.4-1.7-8.2 10.6-25.5 13.4-33.6 7.3-20.8 10.8-42.6 8.9-64.5-4.6-53.4-37.5-98.2-51.2-149.1-3.6-13.2-10-33.2-7.4-46.9 0.9-4.4 6.6-3.4 7.3 0.5z"  fill="#fff" /><path d="M-373.6-329.5c-4.5 45.4-16.3 89.4-9.4 135.3 12.8 86 81.7 152.3 50.3 243.7-2.2 6.3-7.4 28.3-14.8 29.5-9.7 1.5-5.9-15.2 2.2-9.6 8.1 5.6-6.2 15.1-8.2 5.4-1.6-7.8 9.9-24.1 12.6-31.8 7.4-20.7 11.1-42.5 9.4-64.5-5.4-67.1-53.6-121.4-60.4-188.7-3.2-32.1-1-91.1 10.3-121.3 1.8-4.8 8-2.6 8 2z"  fill="#005bbb" /><path d=""  fill="#fff" /><path d=""  fill="#fff" /><path d="M-340.6-398.4c0.1 80.3-38 153.8-17.8 234.9 3.2 12.8 46.2 129.8 37.2 130.5-5.3 0.5-4.2-8.4 0.9-6.5 5 1.8 0.3 9.3-3.5 5.5-6.1-6.1-7.2-32.9-10.1-42-15.9-50.4-39-96.2-39.2-150.3-0.2-55.7 21.2-108.1 24.4-163.4 0.2-3.7 6.9-20.8 8.1-8.7z"  fill="#005bbb" /><path d="M-342.8-398.1c1 82.9-38.5 157.9-15.1 241.4 10.4 36.9 28.7 71.2 37 108.8 2.3 10.3 11.3 83.5-6 83.3-7.6-0.1-4.8-12.3 2.1-9.1 8 3.8-3.3 14.3-6.5 6.1-2.6-6.6 4.8-22.5 5.8-29.8 2.3-17.5 1.2-35.2-2.3-52.5-12.1-59.3-45.4-110.4-46.6-172.5-1.1-58 21.9-112.6 23.8-170.3 0.2-4.9 6.8-15 7.8-5.4z"  fill="#c2e1ff" /><path d="M-336.7-145.8c18.4 68.1 43.9 128.7 13.8 198.1-2.6 6.1-8.7 26-16 26.6-7.4 0.7-7.9-11-0.5-10.9 7.4 0.1 6.7 11.8-0.7 10.9-12.4-1.5 5.4-26 7.6-30.9 10.2-22 16.8-45.4 17.4-69.7 0.7-29-29-115.8-27.3-123.9 0.7-3.2 4.6-2.8 5.7-0.2z"  fill="#fff500" /><path d="M-327.7-388.5c-6 65.8-33.8 127.4-27 194.3 7 69.8 52.2 132.5 40.9 204.5-1.2 7.4-10.4 55.7-21.6 49.9-5.4-2.8-2.1-11.3 3.8-9.7 5.9 1.6 4.5 10.6-1.6 10.2-11.8-0.5 4.1-27.8 5.7-32.9 7.6-23.1 9.7-47.4 6.4-71.5-8.9-65.9-44.6-122.4-42.3-190.7 1.1-34.2 9.6-67.2 17.3-100.3 4.1-17.5 4.2-39 10.3-55.7 1.7-4.8 8-2.6 8.1 1.9z"  fill="#005bbb" /><path d="M-320-268.5c-15.1 108.4 58.6 214 8.1 318.3-3.1 6.4-11.1 28.6-18.9 29-10.4 0.5-4.6-16.7 3.4-9.9 7.9 6.8-8.2 15.3-9.3 4.9-0.9-8.7 14.2-26.4 18.2-34.7 10.5-21.8 17.1-45.2 18.3-69.5 3.2-62.2-25.6-120.7-29.6-182.3-1.1-16.7-4.4-41.9 1.6-57.8 1.8-4.8 8.2-2.6 8.2 2z"  fill="#c2e1ff" /><path d="M-311.8 46.3c-2.8 6.1-14.7 38.3-24 32-6.3-4.3 0.9-13.8 6.8-8.9 5.8 4.9-2.4 13.7-7.7 8.1-9.5-10 33.7-57 24.9-31.2z"  fill="#fff500" /><path d="M-304.5 11.1c-2.2 10.2-19.1 70.9-32.5 67.4-7.3-1.9-3.7-13.2 3.3-10.5 7 2.6 2.3 13.5-4.4 10.1-8.9-4.5 5.8-22.1 8.4-27.3 6-11.8 9.1-34.5 17.4-43.8 3.4-3.8 8.4-0.2 7.8 4.1z"  fill="#fff" /><path d="M-300-397.5c-12.7 96.1-45.3 155.6-19.9 256.5 30 119.1 22.2 167.3 9.9 166.9-9-0.3-2.7-14.6 3.6-8.2 5.4 5.5-5.4 12.3-8 5-2.3-6.3 5.1-20.9 6.2-27.7 3.1-17.4 3.2-35.2 1.2-52.7-7.8-67.3-36.4-127.3-30.6-196.6 1.3-15.7 25.6-142.9 30.6-147.1 3.2-2.7 7.1 0.3 7 3.9z"  fill="#fff" /><path d="M-293.6-397.6c-12.2 87.3-41.5 152.9-21.7 243.5 4.4 19.9 31.9 120.9 21.3 133.2-4.2 4.9-10.6-3.7-4.8-6.4 5.9-2.7 8.1 7.8 1.7 7.8-3.9 0-7.4-62.2-9.2-70.9-10.3-50.3-26.2-98.1-24.9-150.2 1.3-52.5 19.5-101.7 28.2-153 1-5.7 9.7-14.3 9.4-4z"  fill="#fff" /><path d="M-282.9-193.6c16.1 84.2 39 165-7.7 244.5-3.7 6.3-13.9 28.9-22.3 28.6-11-0.4-3.3-17.8 4.4-10.1 7.7 7.8-9.8 15.2-10.1 4.3-0.2-9.9 18.3-28.2 23.4-37.1 12-21.1 20-44.1 23.7-68.1 8.5-55.8-7.9-106.7-17.6-160.9-0.7-4.1 5-5 6.2-1.2z"  fill="#fff500" /><path d="M-274.5-278c-3.4 116.9 69.3 204.3 0 324.2-4.1 7-17 34-26.2 33.4-9.5-0.6-5.1-15.8 3.2-11.2 9.8 5.3-5.1 17.7-8.5 7.1-2.8-8.5 20.7-32.8 25.3-40.7 15-25.9 23.3-54.8 26.6-84.4 8.5-76.3-25.9-144.4-28-219.4-0.1-4.9 6.3-20.4 7.6-9z"  fill="#c2e1ff" /><path d="M-267.4-236.5c14.6 102.2 55.7 183.4-3.4 284-4.1 6.9-16.7 32.8-25.7 32.2-9.5-0.7-5.1-15.9 3.3-11.3 9.8 5.4-5.2 17.8-8.6 7.1-2.6-8.3 20.3-31.7 24.7-39.4 15.1-25.8 23.7-54.6 27.4-84.3 8-64.1-12.2-119.9-23.3-181.8-0.8-4.4 3.2-14.8 5.6-6.5z"  fill="#fff" /><path d="M-258.4 9.7c-3.7 10.8-30 74.9-44.4 69.1-7.5-3.1-2.1-14.7 5-10.8 7.2 3.9 0.5 14.8-6.2 10.2-8.9-6.1 10.2-23.9 13.9-29.3 8-11.8 13.8-35.7 23.7-44.6 4.1-3.7 9.1 0.8 8 5.4z"  fill="#c2e1ff" /><path d="M-251.8-279.3c5.2 105 70.8 187.8 3.2 321-3.9 7.7-17.5 38.4-27.6 37.8-11.1-0.7-2.8-18.2 4.8-10.1 7.6 8.2-10.5 15.2-10.4 4 0.1-11.6 22.6-34.1 28.1-45.5 14-28.9 20.7-61 24.2-92.7 8.8-79.7-20.5-130.4-28.7-204.9-0.5-4.4 4.2-20.4 6.4-9.6z"  fill="#fff" /><path d="M-243 26.1c-3.7 9-24.8 58-37 53-7.5-3.1-2-14.7 5.1-10.9 7.2 3.9 0.4 14.9-6.3 10.3-5.1-3.5 23.9-53.5 30.2-58.5 4.5-3.5 9.4 1.4 8 6.1z"  fill="#005bbb" /><path d="M-236.8-275.5c3.9 34.5 16.7 66.5 24.6 100.1 15.9 67.4 6 151.3-21.4 214.7-3.5 8-15.4 39.9-25.5 39.8-10.8-0.1-3.7-17.6 4.2-10 7.8 7.5-9.4 15.3-9.9 4.4-0.5-11.5 20.8-35.7 25.7-47.5 13.5-32.8 19.5-68.7 23.4-103.8 8.5-75.3-14.2-117.5-26.4-187.8-0.7-4 2.6-20.2 5.3-9.9z"  fill="#fff" /><path d="M-228.1-26.1c-2.7 14.3-30.3 114.1-52 105.1-7.5-3.1-2-14.7 5.1-10.8 7.2 3.9 0.4 14.9-6.3 10.2-8.7-6 16.1-32.7 19.9-39.4 9-15.6 19-61 25.5-68.8 3.1-3.8 8.2-0.5 7.8 3.7z"  fill="#fff" /><path d="M-221.1-317.1c0.8 52.6 23.1 99 30 150.3 9 66.9-6.3 151.9-30.4 214.6-2.4 6.3-10.2 33.4-19.2 31.3-6.2-1.4-5.1-10.9 1.3-10.8 7.4 0.1 6.7 11.8-0.8 10.9-11.4-1.4 11.5-40.7 14-47.6 15.8-44.6 22.8-94.2 27.6-141.1 7.2-70.3-24.9-129.7-29.5-198.4-0.3-4.6 5.2-20.5 7-9.2z"  fill="#fff500" /><path d="M-212.7-1.9c-3.9 17.1-15 73.7-33.5 80.8-8.4 3.2-10.6-11.5-1.7-11 9 0.6 4.8 14.9-3 10.7-8.9-4.8 10.8-30.5 13.6-36.7 5.8-12.6 8-38.1 16.7-47.9 3.4-3.8 8.4-0.2 7.9 4.1z"  fill="#fff" /><path d="M-206.2-292.5c5 42.3 22.9 81.9 26.5 124.4 5.1 60.1-11.1 126.4-24.2 184.7-2.4 10.5-10.7 59.9-22.6 62.2-6.9 1.3-8.4-9.7-1.3-10.3 7-0.5 7.3 10.6 0.2 10.4-11.4-0.4 7.7-38.7 9.6-45 14.7-48.6 22.3-101.4 28.7-151.8 8-62.6-16.3-113.2-23.6-173.6-0.5-4.5 5.6-5 6.7-1z"  fill="#c2e1ff" /><path d="M-197.6-45.3c-4.8 28.6-14.6 102.6-35.4 122.5-7.3 7-13.9-9.3-3.7-9.3 8.6-0.1 5.6 13.9-2.2 10.3-8.6-3.9 11.5-37.7 13.9-44.7 6.2-17.6 11.2-71.2 19.6-82.2 2.9-3.8 8-0.8 7.8 3.4z"  fill="#005bbb" /><path d="M-191.4-248.8c7.2 28.3 15.7 56.1 16.8 85.6 0.9 24.9-24.5 244.1-48.4 241.7-9.3-0.9-1.8-15.4 4.3-8.3 5.2 6.1-6.5 12.4-8.6 4.7-3.1-10.8 13.1-40.7 15.9-52.5 10-41.3 16.3-83.9 23.3-125.8 8.6-51.5 2.7-93.7-9.1-143.8-0.9-3.9 4.4-5 5.8-1.6z"  fill="#005bbb" /><path d="M-182.8-326c-0.4 52 19.2 100.9 19.9 152.4 0.8 61.9-19.5 126.2-29.8 187.1-1.5 9-7.7 64.3-17.8 64.4-8.7 0-3.2-14.1 3.2-8.1 6.4 6-7.4 12.4-7.9 3.7-0.8-13.4 36.4-179.7 41.3-210.7 9.9-63.3-14.6-120.7-16.4-183.3-0.1-5.4 6.3-14.9 7.5-5.5z"  fill="#005bbb" /><path d="M-175.6-284.4c3.8 34.4 14.3 67.9 15.4 102.6 1.4 40.9-30.9 212.2-43.1 256.1-2.3 8.4-14.1-0.5-7-5 7.2-4.6 10.1 10 1.6 8.4-2.6-0.5-4.2-3.1-3.6-5.7 16.8-67.9 28.1-138.6 40.2-207.5 11.5-65.9-14.1-115.1-10.3-148.9 0.5-4.2 5.9-3.6 6.8 0z"  fill="#fff500" /><path d="M-167-40.2c-2.4 12.3-10.5 117.3-13.6 117.2-6-0.2-3.4-9.8 1.9-7.1 4.6 2.3 0.5 9.3-3.8 6.5-10.2-6.7-0.4-109.8 7.7-120.1 3-3.9 8.1-0.7 7.8 3.5z"  fill="#c2e1ff" /><path d="M-159.7-168.8c-1.3 47.9-16.7 95.1-24.7 142.1-4.2 24.9-6.6 82.5-19.2 102.4-3.9 6.2-12.5-2.4-6.4-6.3 7.2-4.7 10.1 10 1.7 8.4-6.7-1.2 11-78.8 12.6-89.2 4.7-29.6 21.4-136.2 28.2-158.7 1.4-4.6 7.5-2.9 7.8 1.3z"  fill="#005bbb" /><path d="M-152.1-4.9c-0.9 16.5 9.4 74.1 7.5 79-1.6 4.2-7.9 0.1-4.6-3 3.8-3.7 7.3 4.8 2 4.9-5.4 0.1-6.2-14-7-17.8-4-17.9-10.7-46.3-5.7-64.3 1.3-4.7 7.4-3.1 7.8 1.2z"  fill="#fff500" /><path d=""  fill="#005bbb" /><path d="M-136.1-390.5c-29.1 83-6.5 134.9-12.4 214.9-3 40.6-16.6 79.6-24.9 119.3-6.9 33-10.6 66.4-15.3 99.8-0.6 4.2 0.2 19.7-7.3 18.1-5.7-1.2-3.4-10.1 2.2-8.3 4.8 1.5 3.3 8.9-1.7 8.4-13.7-1.3 28.6-182.9 32.8-201.9 14.5-65.2-5-129.2 3.8-194.6 2.4-17.6 4.4-44.5 14-59.8 3.2-5.1 9.8-1.1 8.8 4.1z"  fill="#005bbb" /><path d="M-129-214.6c-5.8 70.8-36.9 135.7-45.7 206.1-1.2 9.8-4.9 86.5-11 86-6.2-0.5-3.1-10.4 2.3-7.3 5.4 3.1-1.5 10.7-5.1 5.6-8-11.2 2.4-54.7 3.7-68.4 6.8-72.7 37.5-138.8 46.3-210.6 1.1-8.9 9.1-27.3 9.5-11.4z"  fill="#005bbb" /><path d="M-120.7-67.1c-14.5 33.2-17.1 70.3-9.2 105.5 1.1 4.9 13 36.9 9.5 37.1-3.7 0.2-2.8-5.9 0.6-4.5 4 1.6-1.1 7.1-2.9 3.2-21.5-44.7-25.6-96.1-8.3-142.9 2.6-7 12.4-6.5 10.3 1.6z"  fill="#fff500" /><path d="M-113.1-349.1c-23.7 57.3-16.3 114-25.2 173.6-7.9 53.4-29.3 103.8-37.1 157.5-1.6 10.6-7.5 96-13.9 95.2-6.3-0.8-2.9-10.8 2.6-7.4 5.4 3.4-1.9 11-5.5 5.6-11.4-17.2 26.5-179.4 34.4-206.8 16.9-58.7 9.5-117.7 21.7-176.7 2.8-13.7 5.9-34.3 14.1-45.8 3.6-5.1 10.2-0.5 8.9 4.8z"  fill="#fff500" /><path d="M-105.6-262.7c-9.1 29.8-12.4 60.9-20.4 91-15.1 56.8-39 109.2-45.2 168.3-1.2 11.6-0.7 74.3-4 79.1-4 5.6-10.5-4.4-3.8-5.7 5.8-1.2 5.6 8.6-0.1 7.2-10-2.4-1-74.6 0-84.8 5.8-59.8 29.3-112.6 44.9-169.8 7.7-28.2 11.4-57.3 18.9-85.6 1.8-6.7 10.9-7.6 9.7 0.3z"  fill="#005bbb" /><path d="M-117-396.6c-36.7 83.5-20.5 128.8-26.5 212.6-3 41.9-17.6 81.7-26.6 122.4-1.9 8.7-9.8 72.1-16.3 71-6.6-1.2-2.3-11.5 3.2-7.6 5.5 3.8-2.7 11.4-6.1 5.5-8.4-14.4 25.6-130.1 30.9-152.6 14.8-63.5-1.7-127.8 11.6-191.3 4-19.3 8.9-48.9 20.9-65 3.8-5 10.4-0.3 8.9 5z"  fill="#fff500" /><path d="M-90.1-158.9c-32.5 49.4-60.4 100.3-62 160.9-0.3 12.8 10 66.7 7.9 72.1-1.9 4.9-8.7-1.2-3.9-3.5 4.7-2.3 5.4 6.8 0.4 5.2-6.2-2-8.2-27.3-9.1-33-11.6-75.6 13.8-140.7 54.1-203.3 4.5-6.9 17.9-9.2 12.6 1.6z"  fill="#fff" /><path d="M-85.5 64.9c1.1 2 6.4 7.5 4.2 9.9-1.8 2-4.8-1-2.7-2.8 2.3-2.1 4.9 2.5 1.8 3.4-7.8 2.3-7.8-16.3-3.3-10.5z"  fill="#005bbb" /><path d="M-74.8-381.6c-61.6 123.3-34.1 99.7-60.2 216.3-10.3 46.1-28.6 89.7-36.3 136.6-2 12.4-5.6 82.6-9.4 87-4.8 5.7-10.9-5.8-3.5-6.5 6.3-0.7 5.2 9.8-0.8 7.7-10.2-3.5 4.9-108.5 25.9-175.4 23-73.4 22.1-152.5 42.2-204.6 8-20.6 18.6-50.2 33.2-67 4.3-5 10.8 0.5 8.9 5.9z"  fill="#c2e1ff" /><path d="M-81.4-396c-15.3 31.7-32.8 62.7-41.4 97-9.9 39.4-6.5 80.4-12.7 120.4-6.6 42.4-23.1 82.4-32.3 124.2-1.9 8.4-8.5 68.7-14.7 67.7-6.5-1-2.5-11.2 2.9-7.5 5.5 3.7-2.4 11.2-5.8 5.6-9.1-14.9 23.8-124.7 30.1-146.1 17.8-60.2 10.1-123.5 28-183.1 7.7-25.7 19.8-63.2 37.1-84 4.2-5 10.7 0.3 8.8 5.8z"  fill="#fff500" /><path d="M-59.6-192.2c-42.2 52.1-84.1 112.2-89.4 180.9-1.1 13.7 8.8 85.4 8.7 85.8-1.7 4.8-8.4-0.9-3.9-3.3 4.5-2.4 5.4 6.5 0.6 5-8.3-2.3-11.1-39.4-12-46.9-5.7-49.9 4.2-98.6 28.1-142.7 14.5-26.6 35.2-68.7 59.5-87.4 5.8-4.5 11.8 2.9 8.4 8.6z"  fill="#005bbb" /><path d="M-52.1-174.7c-42.6 45-83.8 96.8-88.8 161-1.8 23.1 0.5 46.7 6.7 69 0.7 2.3 10 23.1 2.8 20.8-3.2-1-1.3-6 1.8-4.7 2.7 1.2 1.3 5.3-1.5 4.7-3.9-0.8-5.2-9.7-6.4-12.7-19.4-53.4-14.1-113.6 13-163.4 9.1-16.7 49.4-79.2 65.7-84.9 6.6-2.3 10.2 5.4 6.7 10.2z"  fill="#005bbb" /><path d="M-45.7 1.5c1.5 16.8 28.9 71 28.8 72.2-0.3 3.1-5.2 1.6-3.7-1.2 1.8-3.2 5.8 1.8 2.3 2.9-3.9 1.2-8.8-11.3-10.4-13.9-10.9-18.2-20.5-37.8-23.7-59-0.7-4.5 5.6-5.1 6.7-1z"  fill="#c2e1ff" /><path d="M-38-396.5c-13.2 42.2-44.2 74.7-60.9 115.2-14.9 36.4-17.8 76.3-28.3 114-9 32.5-22.3 63.7-31.3 96.2-4.1 14.8-12.6 97.8-16 101.9-4.8 5.7-10.9-5.7-3.5-6.6 6.3-0.7 5.2 9.7-0.8 7.8-6.3-2.1-1.8-20.1-1.5-24.8 3.7-51.9 17.7-99.5 34.7-148.4 16.7-48 20-99.9 38.6-147 15.3-38.9 44.3-70.2 58.9-109.4 2.4-6.5 11.8-7.1 10.1 1.1z"  fill="#fff" /><path d="M-29.4-115.1c-35.4 30.8-66.7 68-62.3 118 1.7 19.9 8.6 39 18.2 56.3 0.9 1.6 12.1 16.8 5.9 16-2.6-0.3-1.8-4.3 0.7-3.7 2.2 0.5 1.7 3.8-0.5 3.8-4.7-0.1-12.7-18.9-14.8-22.9-24.3-46.4-22.9-98.5 9.2-140.9 9.1-12.1 22.6-30.2 36.2-37.3 7.1-3.8 12.2 5.4 7.4 10.7z"  fill="#c2e1ff" /><path d="M-43.9-396.9c-14 40.4-43.1 72.8-58.5 112.6-16.2 41.9-17.5 88.1-30.4 131-3.1 10.4-26.4 90.5-33.2 88.4-7-2.2-0.9-12.8 4.5-7.9 5.4 5-4.6 12-7.4 5.2-3.5-8.3 22.8-75.4 26.9-88.5 13.9-44.2 15.4-91.5 31.5-134.9 13.4-36.2 38.7-66 53.9-101.3 2.2-5.1 16-18.3 12.7-4.6z"  fill="#c2e1ff" /><path d="M-13.9-372.4c-12.1 41.7-46.1 71.2-66.5 108.5-18.6 34.1-60.5 151.1-72.6 191.4-9.4 31-13.8 63-14.8 95.3-0.1 4.3 3.1 31.3-5.3 28.2-4.8-1.8-1.6-9.1 3-6.9 3.9 1.9 1.6 8-2.6 7-6.7-1.7-3-26-2.9-31.2 1.7-72.4 28.2-132.1 52.2-199 11.1-30.9 19.4-63 34.8-92.3 12.2-23.3 29-43.2 44.1-64.5 9.1-12.9 13.7-27.8 21.9-40.7 3.2-5 9.8-1 8.7 4.2z"  fill="#fff500" /><path d="M-6.3-216.6c-51.5 53.5-115.8 106.3-130.5 183.2-5.4 28.1-3.9 57.7 3.6 85.3 0.7 2.8 10.9 26 4 24-2.7-0.8-1.9-5 0.9-4.8 3.3 0.3 2.6 5.5-0.6 4.8-8.9-1.7-14.8-41.3-16-49.1-7.6-47.5 2.3-94.8 27.5-135.6 19.2-31.2 72.8-98.7 103.2-117.6 6.6-4.1 12.1 4.4 7.9 9.8z"  fill="#fff" /><path d="M1.6-72.6c-21.4 28.7-30.5 61.7-19.7 96.6 3.7 11.9 24.7 39.3 23.3 50-0.5 3.9-6.5 0.6-3.4-1.9 3-2.5 5.1 4 1.2 3.7-13.1-1-50.7-87.9-17.8-144.5 8.3-14.3 23.9-18.1 16.4-3.9z"  fill="#fff" /><path d="M9.2-398.1c2.1 64.4-44.9 101.2-76.9 150.7-24.7 38.3-40.9 82.5-60 123.8-14 30.3-25.8 61.5-31.2 94.6-0.8 4.8-0.6 34.9-8.9 31-4.9-2.3-0.8-9.9 3.8-7.1 4.7 2.9-0.2 9.9-4.5 6.6-6-4.7 1-31.8 2.1-38.6 15-92.4 79.5-205.4 136-278.6 11.3-14.6 21.3-30.3 26.8-48.1 3.2-10.3 0.9-27.2 5.6-36.1 2-3.7 6.7-1.8 7.2 1.8z"  fill="#fff" /><path d="M15.4 5.5c1 8.3 22.3 70.4 22 70.5-3.6 1.4-4.6-4.9-0.8-4.7 3.3 0.2 2.7 5.3-0.5 4.8-4.3-0.7-8.2-15.2-9.9-19-7.3-16.2-14.4-32.9-17.4-50.6-0.7-4.3 5.4-5.1 6.6-1z"  fill="#c2e1ff" /><path d="M24.6-73.9c-20 29.8-29.3 62.3-19.2 97.5 1.9 6.4 21.4 52.1 19.3 52.3-3.6 0.3-2.8-5.7 0.5-4.5 4 1.5-0.9 7-2.8 3.2-21.8-43.5-40.5-86.8-18.6-134.5 16.9-36.8 21.9-16.5 20.8-14z"  fill="#fff" /><path d="M32.2-262.8c-48.8 76.7-139.4 123.1-165.3 215.2-8.3 29.8-8.4 61.6-1.6 91.6 1.2 5.3 11.2 26.7 8.7 30.6-2.5 3.9-7.1-2.6-2.6-3.7 4.4-1.1 3.4 6.8-0.7 4.6-11.4-6.4-15.1-45.3-16.4-57-15.7-128.9 96.8-190.4 163.2-280.5 4.1-5.6 21.5-14.3 14.7-0.8z"  fill="#005bbb" /><path d="M39.7-316.3c-26.6 80.7-137.5 149.2-174.5 248.8-13.1 35.4-15.9 73.8-9.7 110.9 0.6 3.8 10 34.7 3.5 32.3-12.5-4.8 14.5-0.7 1.2 0.1-6.1 0.4-9.9-25.8-10.9-30.6-29.2-144.9 80.1-221.8 156.8-323 9-11.8 15.3-34.8 25.6-43.9 4.1-3.6 9.1 0.8 8 5.4z"  fill="#005bbb" /><path d=""  fill="#fff" /><path d="M55.1-105.8c-22.9 34.5-48.8 68.6-42.9 112.5 1.7 12.7 24.5 62.7 23.5 67.1-0.9 4.3-7.3 0-3.6-2.4 3.7-2.5 5.4 5 0.9 4.3-13.2-2.1-43.4-90.2-14.2-145.7 27-51.3 42.5-47.9 36.3-35.8z"  fill="#fff500" /><path d="M62.7-158.9c-29.6 48.1-92.4 86.3-95.5 147.1-1.4 27.8 28.8 82.2 28.4 85.3-0.4 3.8-6.3 0.7-3.3-1.8 3.4-2.9 4.7 5.1 0.5 3.4-3.9-1.6-7.8-12.3-9.8-15.8-20-34.9-31.7-73.6-15.4-112.5 9.5-22.7 67.6-95.2 86.5-112.9 5.1-4.8 11.4 1.7 8.6 7.2z"  fill="#005bbb" /><path d="M68.7 23.3c1.2 6.5 15.5 51.9 11 53-3.8 0.9-4.9-5.2-1-5.7 3.9-0.5 4.3 5.7 0.4 5.8-5.5 0.1-16.8-46.1-16.7-52.5 0.1-3.9 5.1-3.8 6.3-0.6z"  fill="#c2e1ff" /><path d="M78-137.5c-21.7 44.3-62.7 84-59.6 136.7 0.9 15.6 24.6 69.3 23.4 74.6-1 4.4-7.5-0.1-3.7-2.6 3.8-2.5 5.4 5.2 0.9 4.5-6.4-1.1-15.7-33.1-18.1-39.3-10.8-28.9-13.9-58.9-3.4-88.4 9.1-25.5 34-71.2 51.7-91.5 4.3-4.9 10.8 0.5 8.8 6z"  fill="#fff" /><path d=""  fill="#c2e1ff" /><path d=""  fill="#c2e1ff" /><path d="M100.6-259.1c-9 45.9-26.7 89.7-55.9 126.6-26 32.8-64 61.7-74.2 104.1-6.1 25-0.2 50.3 10.7 73.1 2.2 4.7 17.1 25.4 15.1 29.4-1.6 3.5-6.2-1.4-2.6-2.7 3.5-1.4 3.5 5.2 0 3.8-9.3-3.7-20.2-34.9-23.8-44-38.3-94.2 59.2-144.8 96.3-218 12.1-23.9 14.6-51.8 25.9-75.2 2.4-4.9 8.9-2 8.5 2.9z"  fill="#fff" /><path d="M108.3-93.8c-10.7 41.6-20.7 80.1-14.1 123.4 1.5 9.7 12.3 37 8.3 45.3-2.1 4.5-8.6-0.5-4.8-3.7 4.5-3.7 7.6 5.9 1.8 5.5-5.7-0.3-7-21.7-7.9-26.1-10.6-50.9-7.7-97.2 7.7-146.8 1.8-5.9 9.8-3.4 9 2.4z"  fill="#fff" /><path d="M115.6-33.5c-3.5 27.4-2.5 54.7 1 82 0.6 4.5 7.2 27.7 0.5 28.3-4.5 0.4-4.8-6.7-0.3-6.6 4.5 0.1 4 7.2-0.4 6.6-12.2-1.5-13.2-100.4-8.9-112.3 1.8-4.8 8.1-2.6 8.1 2z"  fill="#005bbb" /><path d="M123.4-49.4c-4.7 30.7-5.7 61.1-2.7 92.1 0.5 5 7.3 33.8 0.6 34.3-4.6 0.4-4.8-6.9-0.1-6.7 4.6 0.1 4 7.4-0.6 6.7-14.5-2-10.9-115.3-5.5-128.6 2-4.9 8.3-2.4 8.3 2.2z"  fill="#c2e1ff" /><path d="M130.5-291.1c2.7 58.8 1.7 123.2-6.3 181.5-4.7 34.4-14.5 68-15.5 102.9-0.4 12.4 9.5 77.7 7.3 81.7-2.9 5.4-9.7-2.7-3.9-4.6 4.9-1.7 5.9 6.9 0.7 6.4-11.4-1.2-12.1-83-11.6-93.9 1.6-36.2 12.1-71.1 16.3-106.9 5.6-47.5-2.9-128.6 5.6-167.8 1-4.4 6.7-3.3 7.4 0.7z"  fill="#fff" /><path d="M138.5-26.6c-1.1 11.1-1.4 103.5-3.7 103.6-4.8 0.1-4.6-7.5 0.1-7.1 4.8 0.4 3.8 7.9-0.9 7-10.4-2-7.3-94.3-3.5-105.3 1.7-4.8 7.9-2.7 8 1.8z"  fill="#c2e1ff" /><path d="M146.1-16.6c-1 10.3-1.4 93.6-5.1 93.6-4.2 0-4.9-6.2-0.8-7.2 4.8-1.1 6.1 6.6 1.2 7.1-7.8 0.9-6.7-85.3-3.3-95.2 1.6-4.8 7.8-2.8 8 1.7z"  fill="#fff500" /><path d="M153.1-133.4c2.6 19.9-0.7 210.2-8 210.2-5.8-0.1-3.7-9.5 1.6-7 5.3 2.5-0.7 10.1-4.4 5.6-6.6-7.9 0.6-87.9 2.1-102.3 2.5-24.5 5.1-48.9 4.4-73.5-0.2-6.3-5.9-31.1-1.4-35.2 2.2-2 5-0.4 5.7 2.2z"  fill="#c2e1ff" /><path d="M160.5-295.6c7.6 37.3 11.6 74 29.2 108.4 19.5 38 51.2 70.9 58.6 114.2 7.8 45.2-13.6 87-25.2 129.4-1.3 4.7-2 23.3-9.6 21.4-5-1.2-4-8.9 1.1-8.7 5.1 0.1 5.8 7.8 0.8 8.7-10.3 2-2.1-20.2-1.3-23.7 10.6-42.5 33.5-84.3 27.1-129.4-7.6-52.9-51.7-91.8-69.5-140.9-8.1-22.3-18.8-55-17.6-79 0.2-3.9 5.3-3.7 6.4-0.4z"  fill="#005bbb" /><path d="M169.1 28.4c-0.8 6.8-0.6 49-7.2 48.6-5.2-0.4-4.2-8.6 1-7.7 5.2 0.9 3.2 9-1.8 7.5-6.1-1.8-3.1-45.8 0.4-51.1 2.5-3.8 7.5-1.3 7.6 2.7z"  fill="#fff500" /><path d="M175.5-245.8c14.9 60.5 64.7 97.7 85.4 154.2 19.1 52-7.7 100-23.2 148.7-1.5 4.6-2.8 22.6-10.5 20.4-5.1-1.5-3.7-9.3 1.6-8.9 5.3 0.3 5.6 8.3 0.4 9-10.5 1.6-1.6-19.8-0.6-23.3 12.2-41.8 37-83.1 30.6-128.1-7.1-50-49.9-84.2-72.5-127.1-6.3-12-16.8-30.2-17.1-44-0.1-3.6 4.6-3.8 5.9-0.9z"  fill="#c2e1ff" /><path d="M182.8-232.9c17.8 53.8 65.7 87.1 86.7 138.3 21.8 53-6.3 102-23.2 151.6-1.6 4.8-3.4 23.3-11.2 20.9-5.1-1.6-3.6-9.5 1.8-9 5.3 0.5 5.5 8.5 0.2 9.1-11.5 1.5 0.7-26.4 2.1-30.5 13.3-39.1 36.1-78.3 30-121.1-7.6-53.5-56.9-87.9-80.9-133.6-3.6-6.9-9.9-16.6-10.7-24.5-0.3-3.3 3.9-3.8 5.2-1.2z"  fill="#fff500" /><path d="M190.1-143c30.5 67.6 24 107.9 8.7 177.9-1.6 7.4-2.7 39.2-8.9 42.5-5.8 3.1-8.8-7.4-2.2-7.8 5.6-0.3 5.7 8.6 0 8.3-9.2-0.5 17.2-113.5 18.2-127 2.4-35.1-21.1-83-20.4-93.1 0.2-2.7 3.5-2.8 4.6-0.8z"  fill="#c2e1ff" /><path d="M197.3-180.1c58.8 100.4 76.9 100.4 36.8 219.3-2.1 6.3-7.2 38.1-14.1 38.6-7.1 0.5-5.3-11.2 1.3-8.7 7.8 3-2.1 13.6-5.7 6.1-5.4-11.3 34.4-110.3 33.4-138.5-1.6-43.1-30.3-75.4-52.3-110-1.1-1.7-3.6-12 0.6-6.8z"  fill="#fff500" /><path d="M261.2-399.2c104.4 83.1 162 105.2 187.9 249.4 1.5 8.2 11.8 47.6 4.9 52.9-4.6 3.5-8.7-5.2-3-6.5 6.6-1.5 4.7 10.2-1.1 6.7-4.9-2.9-3.2-23.1-3.8-28.7-5.7-48.2-16.8-98.1-41.7-140.3-33.3-56.5-86-88.7-137.1-126.8-0.4-0.3-9.4-8.7-6.1-6.7z"  fill="#005bbb" /><path d="M220-399.1c46.2 40.9 103.9 66.5 149.2 108.2 57.4 52.9 84.2 135.7 83.8 212.6 0 5 2.1 32.6-6.9 30.9-18.8-3.7 19.3-10.9 3.1-0.6-9.1 5.8-3.9-41.2-4-47-1.9-52-15.6-108.6-43.7-152.8-40.9-64.5-113-93.4-170.7-139.7-1.5-1.2-14.3-13.9-10.8-11.6z"  fill="#c2e1ff" /><path d="M222.4-50.8c-0.2 13.6-20.9 129.8-29.1 128.3-6.6-1.2-2.3-11.5 3.2-7.6 4.7 3.3-0.9 10.4-5.2 6.6-1.4-1.2 13.8-96.7 23.4-128.6 1.4-4.6 7.4-2.9 7.7 1.3z"  fill="#fff" /><path d="M227.6-289c35.4 51.6 90.4 72.2 134.7 113.4 67.2 62.5 57 141 19.7 216.1-3.2 6.4-15.2 41.5-23.4 37.6-5.3-2.6-2.4-10.9 3.4-9.6 4.9 1.1 5.2 8.3 0.4 9.8-14.3 4.6 14.6-51.7 17.5-57.6 21.3-43.4 35.5-88.7 18.5-136.3-25.6-71.8-98.2-92-148.2-141.2-9.4-9.2-31.4-42-22.6-32.2z"  fill="#005bbb" /><path d="M276.7-399.1c109.4 87.7 158 124.6 177 272.3 1.3 10 10.3 59.5 0.4 65.1-5.7 3.2-8.9-7.1-2.3-7.6 7.6-0.6 3.7 12.1-2.3 7.3-5-4-0.3-27.5-0.5-33.9-1.4-53.1-12.3-111.2-35.6-159.2-29.1-59.9-79.1-97.9-130.7-137.2-0.4-0.3-9.4-8.9-6-6.8z"  fill="#fff" /><path d="M305.3-399.4c38.2 35.2 75.8 69.5 102.8 114.5 27.6 46.1 39.2 98.9 46.2 151.7 0.8 5.9 7.8 43.2-0.4 43-4.3-0.1-4.9-6.6-0.6-7.4 4.3-0.8 6.2 5.4 2.2 7.1-7.9 3.4-7-33.3-7.6-38.5-5-45-13.5-91.6-32.7-132.9-23.4-50.6-61.4-90.6-102.2-127.6-0.8-0.7-11.6-12.7-7.7-9.9z"  fill="#fff" /><path d=""  fill="#005bbb" /><path d="M261-35.3c-1.6 12.6-30.1 115-38.3 112.8-5.9-1.6-2.8-10.8 2.9-8.6 5.7 2.3 1.6 11.1-3.8 8.2-7.9-4.2 5.7-35.3 7.9-41.7 4.1-12.2 18.8-67.8 23.5-74 2.9-3.8 7.9-0.8 7.8 3.3z"  fill="#c2e1ff" /><path d="M264.9-176.7c76.4 63 105.9 106.5 60.4 203.7-4 8.5-16.8 49.1-25.1 51.1-9 2.2-6.8-13.7 1.3-9.1 8 4.6-4.5 14.6-7.2 5.8-1.9-6.2 48.9-105.2 45.9-143.4-3.7-46.2-38.5-76-72.2-103.2-1.5-1.2-4.7-5.9-3.1-4.9z"  fill="#005bbb" /><path d="M274.6-90.8c17.8 46.6-3.5 91.4-20.2 134.6-3.7 9.5-5.5 23.7-10.9 32-4.7 7.2-13.4-5.1-5-7.1 7.2-1.7 7.4 10.5 0.1 9.1-10.6-2.2 26.6-89.1 29.8-100.3 3.8-13.6 6.1-27.8 5.4-42-0.5-8.7-3.9-16.9-4.6-25.3-0.2-3.4 4.1-3.7 5.4-1z"  fill="#fff500" /><path d="M280.1-265.6c34.8 26.5 75.1 44.5 104.5 77.8 67.9 76.8 48.7 155.4 8.8 238.7-2.5 5.3-9.6 30.8-17.9 26.9-5.3-2.5-2.4-10.9 3.3-9.6 4.9 1.1 5.2 8.2 0.5 9.8-14.4 4.7 13.6-50.3 16.3-55.9 21.7-44.9 34.9-90.6 21.5-140.3-18.2-67.6-70.1-101-125-137.3-1.7-1.1-14.6-11.6-12-10.1z"  fill="#c2e1ff" /><path d="M319.4-399.6c90.5 96.2 135.5 172.3 139 308.3 0.3 10.5 2.8 60.8-8.8 65.1-8 3-7.7-11.9 0.2-8.6 6.8 2.9-0.3 12.8-5.2 7.3-4.8-5.3 4.6-33 5.2-40.5 4.8-53-5.3-111.3-20.5-162-19.1-63.5-60.6-114.1-105.6-161.2-0.4-0.4-8.6-11.9-4.3-8.4z"  fill="#fff" /><path d="M295.2-265.5c25.9 17.4 53.5 32.2 76.6 53.4 64.1 58.9 77.6 148.1 43.3 226.2-4.6 10.4-21.9 62.4-32.1 64.6-9.2 2-6.5-14.2 1.5-9.3 8.1 4.9-5.1 14.8-7.5 5.7-2.2-7.9 26.4-60.2 31.3-71.4 16.7-38.1 23.8-78 14.5-119-14.4-64.3-58.3-105.3-112.1-139-2.7-1.7-16.2-11.6-15.5-11.2z"  fill="#fff500" /><path d=""  fill="#005bbb" /><path d="M335.1-399.5c60.2 79.6 101 137.6 116.8 238.7 5.1 32.4 9 65.5 6.3 98.4-0.7 8.7-2.3 47.2-12 50.3-8.5 2.6-7.3-12.8 0.7-8.9 6.8 3.4-1.1 13.3-5.9 7.3-4.8-5.9 7-34.9 8.1-42.9 7.4-52.1-2.1-108.4-14.2-159.3-15.7-66-53.5-119.3-94.8-171.8-0.8-1-9.8-16.8-5-11.8z"  fill="#fff500" /><path d="M345.6-399.5c71.7 114.3 119 181.2 113.7 325-0.3 8.4 0.1 45.3-8.8 48.7-6.9 2.6-8.6-9.5-1.3-9 8.6 0.7 2 14.1-3.7 7.8-4.7-5.2 4.3-30.7 5-37.9 5.3-50.2-3.7-103.9-14.9-152.8-14.7-64-50.3-115.8-86.4-169.4-0.9-1.3-8.6-18.5-3.6-12.4z"  fill="#fff500" /><path d="M326-165.7c68.6 53.7 68.7 124.4 32.7 197.7-4 8-15.9 44.7-24.1 46.5-6.7 1.5-8.4-9.3-1.6-10 6.8-0.7 7.4 10.1 0.5 10.1-12.2 0 3.3-25.9 5.3-30 16.7-35.6 38.8-71.1 39.1-111.7 0.3-29.1-11.2-56.6-29.8-78.6-7-8.3-31.2-29.8-22.1-24z"  fill="#005bbb" /><path d="M350.9-399.3c52.9 93.5 87.6 134.2 103.1 245.9 4.9 34.8 8.3 70.3 3.2 105.3-1.3 8.6-5.1 45.8-14.6 48.3-7.6 2-8.1-11-0.4-9.6 9.1 1.6 0.6 15.2-4.8 7.8-4.5-6.2 9-36.3 10.6-44.6 9.6-50.2 1.3-103.2-8-152.8-13.3-71.3-48.7-127.1-86.3-187.6-0.9-1.5-7.9-19.4-2.8-12.7z"  fill="#fff500" /><path d="M341.1-238.5c90.5 61 115.5 165.5 70.2 262.9-4.2 9-18.4 52.2-27.3 54.1-9.2 2-6.5-14.2 1.6-9.3 8.1 4.9-5.1 14.8-7.6 5.7-3.9-14.2 21.9-50.7 28-64.1 15.3-33.5 25-68.4 21.2-105.4-4.8-46.6-27-90.9-61.5-122.6-8-7.3-34.2-26.4-24.6-21.3z"  fill="#fff" /><path d="M350.9-96.9c22.1 52.4-5.1 102.3-27.1 149.3-2.8 6.1-6.5 22.1-12 25.5-6.7 4.2-11.1-8.2-3.3-9.2 7.9-1 6.7 12.1-0.9 9.8-9.4-3 33.8-88.9 37.6-100.8 4.6-14.5 7.1-29.7 6.2-45-0.6-9.9-4.7-18.9-5.6-28.4-0.3-3.2 3.8-3.7 5.1-1.2z"  fill="#c2e1ff" /><path d="M357-157.9c58.2 57.5 46.5 127.9 13.2 194.7-3.7 7.4-14.3 40-21.9 41.6-6.8 1.4-8.4-9.4-1.5-10 6.9-0.7 7.4 10.2 0.4 10.1-12.1-0.1 2.6-24 4.5-28.1 15.8-33.8 36.4-66.9 40.1-105 2.7-27.6-4.3-55.2-19-78.7-5.2-8.2-20-28.2-15.8-24.6z"  fill="#fff500" /><path d=""  fill="#c2e1ff" /><path d=""  fill="#fff" /><path d="M380-208.9c67.4 68.4 66.6 161 27.5 242.9-3.7 7.8-14.7 42.6-22.7 44.3-6.7 1.4-8.4-9.3-1.5-10 6.9-0.7 7.4 10.2 0.4 10.1-12.5-0.1 4.8-29.1 7-33.7 18.4-39.4 38.3-77.8 38.2-122.4-0.1-39.7-13.7-79.9-36.8-112.1-1.5-2.1-16.1-22.4-12.1-19.1z"  fill="#c2e1ff" /><path d="M389.8-394.6c10.1 61.6 47.1 115.9 58.1 178.2 13.5 76.1 23.2 154.8-5.6 228.4-2.5 6.4-13 42.4-21.9 38-5.4-2.6-2.3-11 3.5-9.6 5.8 1.4 4.6 10.3-1.3 10.1-12.3-0.3 9.2-39.5 11.5-45.3 17.3-43.5 22.1-87.2 18.2-133.7-4.8-57.8-12.5-116.3-33.7-170.7-10.7-27.3-23.9-53.8-32-82-1.1-3.9-0.3-23.9 3.2-13.4z"  fill="#c2e1ff" /><path d="M395.6-269c69.2 89 71.3 210.3 26.8 309.3-2.9 6.5-12.4 38.8-20.1 38.2-6.8-0.6-5.2-11.2 1.5-9.9 5.7 1.1 4.9 9.8-0.9 9.9-12.6 0.2 6.4-34.4 8.6-39.3 19.3-43.5 36.1-85.3 34.7-133.8-1.6-49.9-13.6-104-37.8-148-4.7-8.6-19.5-33.6-12.8-26.4z"  fill="#c2e1ff" /><path d="M403.9-326c57.2 110.6 77.1 247.1 26.9 363.1-3 6.8-13.1 42.1-20.9 41.5-6.7-0.5-5.3-11 1.3-9.8 5.7 1.1 5 9.6-0.7 9.8-12.6 0.4 7.2-37.2 9.5-42.5 19.9-46.2 34.7-90.1 32.6-141.2-2.7-69.8-15.2-141.8-45.7-204.8-0.7-1.5-8.2-23.8-3-16.1z"  fill="#fff500" /><path d="M412.7-95.6c12.2 53.1-10.9 99.7-33.6 146.1-3.1 6.4-7.5 23.6-13.5 27.1-7 4.1-11.1-8.7-3-9.4 8.1-0.8 6.4 12.6-1.2 9.8-9.5-3.3 33.5-84.6 37.5-95.9 5.1-14.4 8.6-29.5 9.5-44.8 0.5-9.4-4.4-24.7-1.9-33.2 1-3.4 5.2-2.5 6.2 0.3z"  fill="#fff500" /><path d="M419.4-178c36.8 76.2 25.4 148.2-9.2 222.1-2.9 6.2-11.3 35-19 34.2-9.3-1-1.7-15.4 4.3-8.3 5.2 6.1-6.5 12.4-8.7 4.6-2.4-8.5 43.2-102.3 47-125.2 6.6-40.4-0.8-82.9-16.6-120.4-0.9-2.1-1.7-13.5 2.2-7z"  fill="#c2e1ff" /><path d="M429.5-3.2c-3.7 10.1-33.1 85-41.4 81.2-6.2-2.9-1.2-12.5 4.7-8.9 5.9 3.5-0.2 12.5-5.6 8.3-6.1-4.6 26.9-79.6 34.3-86.2 4.2-3.7 9.2 0.9 8 5.6z"  fill="#fff500" /><path d="M435.5-127.7c15.3 60 1 113.1-24.8 167.7-3.9 8.4-10.3 33.1-17.9 37.7-6.9 4.1-11.1-8.5-3.1-9.4 8-0.9 6.5 12.4-1.1 9.8-7.7-2.6 36.5-97.4 40-110.5 5.7-21.4 7.5-43.5 5.4-65.5-0.5-5.7-7.5-27.2-3.8-31.2 1.8-1.9 4.4-0.8 5.3 1.4z"  fill="#fff" /><path d="M410.8-398.2c-3.8 43.8 19.4 87.1 30.2 128.6 16.8 64.7 27 142.2 20.6 208.9-0.7 7.5-1.5 38.1-9.6 40.9-6 2.1-8.8-7.6-2.6-9 6.2-1.4 7.9 8.5 1.6 9.3-10.7 1.3 0.1-27.4 0.9-32.2 5.5-33.1 3.1-66.7-0.1-100-3.9-40-7.6-80.5-17.4-119.6-9.6-38.1-27.6-75-31.1-114.5-0.4-5 6-29.4 7.5-12.4z"  fill="#c2e1ff" /><path d="M451-280.5c11.2 68.4 22.5 174.9 9.8 242.3-5.6 29.2-17 56.5-28.5 83.8-2.6 6.1-9.2 33.5-16.7 33-7.8-0.5-4.2-12.9 2.7-9.3 8 4.4-4.2 14.5-7 5.9-0.5-1.6 41.7-111.3 44.9-141.4 7-65.6-1.5-139.3-10.4-204.5-0.4-2.9 2.3-20.4 5.2-9.8z"  fill="#c2e1ff" /><path d=""  fill="#fff" /><path d="M467.1-76.7c-1.1 23.6-29.6 143.4-46 154.4-6.5 4.3-11.2-7.7-3.5-8.9 7.7-1.2 6.9 11.7-0.6 9.5-10.1-2.9 8.9-38.7 11.5-44.9 10.6-25.7 21.2-51.4 26.5-78.8 2-10.4 1.1-22.8 4.2-32.8 1.5-4.7 7.6-2.9 7.9 1.5z"  fill="#fff500" /><path d="M474.7-186.7c-6.6 88.4 3.3 138.5-31.3 225.4-2.8 7.1-9.7 37.3-16.8 39.4-6.3 1.8-8.7-8.3-2.2-9.4 7.6-1.3 7 11.4-0.4 9.4-7.5-2 31.6-102.5 34.6-115.8 4.3-19.5 8.7-151.7 9.3-152.2 2.8-2.8 6.7-0.3 6.8 3.2z"  fill="#c2e1ff" /><path d="M418.7-398.1c-7.1 43.6 15.4 88.3 25.1 130 11.7 50.1 15.9 103.2 18.8 154.6 0.5 8.4 5.3 60.7-4.7 62.1-7.8 1.1-4.6-12.3 1.8-7.7 5.5 3.9-2.8 11.5-6.1 5.6-0.7-1.2-0.4-90.8-1.7-103.9-3.8-40.1-7.1-80.5-16.6-119.8-7.7-31.7-20.2-62.7-24.2-95.2-0.9-6.9-4.1-22.3-0.1-28.4 2.6-3.9 7.6-1.3 7.7 2.7z"  fill="#c2e1ff" /><path d=""  fill="#c2e1ff" /><path d="M498.1-2c-2 9.4-15.4 80.7-21.4 79.7-5.6-1-3.6-9.8 2-8.2 5.5 1.6 2.5 10.1-2.8 8-6.6-2.7-0.2-21.5 0.7-26.6 1.8-9.5 6.3-54.5 15.3-58.1 3.6-1.5 6.5 1.8 6.2 5.2z"  fill="#005bbb" /><path d=""  fill="#c2e1ff" /><path d="M513.4-351.9c-15.8 58.7-31.1 122.7-35.5 183.5-3.4 45.1 0.7 90.6-8.5 135.2-7.3 35.7-23 68.4-34.5 102.7-1.4 4.3-12.2 15.1-11.2 3.7 1.3-15 18.1 8.8 3.6 5.1-9.4-2.4 3.1-25.9 5.1-31.2 12.4-33.6 26.4-66.2 31.9-101.8 6.4-41.2 2.8-83 6.2-124.4 4.5-54.7 19.2-109.4 31.1-162.9 4.6-20.6 12.2-12.6 11.8-9.9z"  fill="#c2e1ff" /><path d="M521.3-391.8c-24.8 50.7-42.1 166.9-45.3 224.6-2.8 48.7 1.7 97.4-10.3 145.3-2.6 10.5-20 79-31.3 78-7.9-0.7-3.9-13.3 3-9.3 8.1 4.6-4.6 14.7-7.3 5.8-1.8-6.1 29.5-86 32.4-102.8 7.1-41.1 3.5-82.8 5.9-124.2 3.4-59.7 15.9-122.3 29.7-180.5 3-12.7 6.2-32 14.3-42.4 4-5 10.6 0 8.9 5.5z"  fill="#c2e1ff" /><path d="M481.8-396.2c-29 54.1-11.5 238.9-13 309.1-0.2 9.6-1.4 70.3-13.5 70.4-7.5 0-4.9-12.1 2-9 6.8 3.1-0.7 13-5.6 7.4-3.9-4.6 2.7-18.3 3.8-23.5 3.6-17.4 5.3-35.1 5.6-52.9 1.5-77.7-10-194.3-0.1-267.1 1.6-11.9 4-30.5 11.8-40 4.1-5 10.8 0.2 9 5.6z"  fill="#005bbb" /><path d="M535.9 14.3c-0.7 9.1 0.5 56.9-1.9 60.8-2.9 4.7-9.5-1.6-4.9-4.7 5.4-3.6 7.7 7.4 1.4 6.3-8.6-1.5-5-56.6-2.5-64 1.6-4.7 7.8-2.8 7.9 1.6z"  fill="#005bbb" /><path d=""  fill="#c2e1ff" /><path d="M551 31c-0.1 7.4 6 40.5 1.4 44.7-3.8 3.6-8.2-3.8-3.3-5.4 4.9-1.7 5.8 6.9 0.7 6.3-6.3-0.7-9.5-43.6-5.5-48.1 2.5-2.8 6.3-0.7 6.7 2.5z"  fill="#005bbb" /><path d="M559.4-312.3c-16 47.5-45.8 89.3-58.5 138.1-13.4 51.4-8.7 105.3-21.1 157-2.6 11-25.8 97.2-33.6 94.8-7-2.2-1-12.7 4.4-7.9 5.4 4.9-4.4 12-7.3 5.3-3.4-7.9 25.5-85.8 29.1-100.9 14-58.4 7.4-119.7 27.2-176.9 11.1-32.1 28.6-61.3 42.3-92.3 2.7-6.1 4.7-18 9.5-22.5 4-3.7 9 0.7 8 5.3z"  fill="#fff500" /><path d=""  fill="#fff500" /><path d="M573.6-51.3c1.1 12.6 13.7 127.5 10.6 128-4.1 0.7-4.9-5.8-0.8-6 4.1-0.3 4.2 6.3 0.1 6.1-5.9-0.2-6.6-19.9-7.3-24.3-4.3-27-13.6-78-9.6-104 0.6-4.3 6.2-3.5 7 0.2z"  fill="#005bbb" /><path d="M581 55.5c0.6 4.1 5.9 18.1 1.5 20.4-3.7 2-6.5-4-2.6-5.5 4.5-1.8 5.9 6.1 1 5.9-13.2-0.6-3.3-32.5 0.1-20.8z"  fill="#c2e1ff" /><path d="M590.1-191.2c-29 71.1-15.4 146-8.8 220.1 0.7 7.4 9.8 42.3 5.5 46.9-3.3 3.6-7.9-3-3.4-4.9 4.5-1.9 5.9 6 1.1 5.9-8.7-0.3-10.8-53-11.4-60.7-4.6-55.5-15.8-114-4.8-169.3 1.7-8.2 6.4-42.4 15.9-44.7 4.2-1 6.8 3 5.9 6.7z"  fill="#fff" /><path d=""  fill="#005bbb" /><path d=""  fill="#fff500" /><path d=""  fill="#005bbb" /><path d="M599.7-398c-4.5 37.5-6.1 73.8-21.6 108.9-21.3 48.4-55.3 89.4-67.3 141.9-2.8 12.2-12 113.1-19.1 111.5-6.8-1.5-1.9-11.9 3.6-7.7 5.5 4.2-3.2 11.6-6.5 5.5-4.8-9.1 4.5-39.7 5.5-50.5 10-105.9 35.3-119.4 75.7-208 18.4-40.5 11.3-75.3 21.6-103.5 1.8-4.8 8-2.7 8.1 1.9z"  fill="#fff500" /><path d="M603.3-238.8c-36.1 70.2-48.3 117.6-47 196.7 0.2 10.4 3.1 69.3-0.6 74.4-4.1 5.6-10.6-4.7-3.7-6 5.9-1.1 5.5 8.9-0.3 7.4-7.6-2-2.8-54-2.8-62.2-0.4-60.8-1.4-117.2 24.2-173.8 5.6-12.4 11.9-24.5 18.1-36.6 3.5-6.8 16.1-10.8 12.1 0.1z"  fill="#fff" /><path d=""  fill="#fff500" /><path d=""  fill="#fff500" /><path d=""  fill="#fff500" /><path d=""  fill="#c2e1ff" /><path d=""  fill="#fff500" /><path d=""  fill="#fff500" /><path d=""  fill="#005bbb" /><path d=""  fill="#005bbb" /><path d=""  fill="#fff500" /></svg>