<svg width="1200" height="675" viewBox="-500 -500 1200 675" xmlns="http://www.w3.org/2000/svg"><path d="M-500-500h1200v675h-1200z" fill="#000"/><path d=""  fill="#fff" /><path d=""  fill="#fff" /><path d="M-394.3 55.5c2.5 10.7-14 3.1-6-1.9 9.1-5.7 6.1 14.3-0.9 6.2-4-4.6 1-11.3 5.8-6.8z"  fill="#005bbb" /><path d="M-394.8-39.1c14 34.6 33.6 64.4 60.8 89.9 4.9 4.6 23.3 16 24.6 22.5 0.5 2.7-4.1 2.6-3.4-0.1 0.8-3.1 5.4 0.1 2.7 1.9-3.8 2.4-30.4-25.3-34.3-28.9-21.2-19.9-53.2-52.8-58.2-83.1-0.8-4.9 5.6-6.1 7.8-2.2z"  fill="#fff" /><path d=""  fill="#005bbb" /><path d="M-394.7-78.6c16.9 46.4 40.4 83.8 79.8 114.3 4.8 3.7 49.1 35.6 45.4 39.1-2.3 2.1-5-2.4-2-3.4 2.6-0.8 3.7 3.3 1 3.8-4.3 0.9-17-14.7-20.4-17.6-29.6-24.4-61.7-44.5-83.6-76.9-10.3-15.2-26.1-38.7-28.5-57.2-0.7-5.2 6.1-6.2 8.3-2.1z"  fill="#fff500" /><path d="M-394.8-56.8c12.7 32.8 29.5 62.8 55.1 87.3 3.3 3.1 31.1 26.7 29.3 27.7-5.1 2.9 4.9-3.5 0.2-0.1-3.6 2.6-32.1-25.1-36-28.6-21.4-19.7-52.1-54-56.6-84.1-0.8-5.1 5.8-6.2 8-2.2z"  fill="#fff500" /><path d="M-394.9-47.1c4.2 10.5 31.7 55.2 31.7 60.3 0 5-8 1.8-4.6-1.8 2.9-3.1 6.9 2.7 3 4.3-8.7 3.5-36.7-52.3-38-60.6-0.8-5 5.7-6.1 7.9-2.2z"  fill="#c2e1ff" /><path d="M-395 9.4c3.2 7.7 36.4 64.9 34.4 66.2-2.8 1.8-5.9-2.1-3.6-4.4 2.8-2.8 6.9 1.8 3.9 4.3-4.8 3.9-11.7-11-13.2-13.1-9.7-13.8-26-33.6-29.1-50.6-0.9-4.8 5.3-6.1 7.6-2.4z"  fill="#fff" /><path d="M-382.7-156.2c13.3 55.4 32.9 108 77.1 146 14.1 12.1 84.1 67.1 82 83.8-0.7 5.4-9.2 2.4-6.3-2.2 2.9-4.6 9.4 1.7 4.8 4.7-3.7 2.4-32.2-39.9-37.5-45.4-38-38.8-82.2-63.4-105.9-114.7-9-19.6-23.7-49.1-23.9-71-0.1-6 7.8-6.2 9.7-1.2z"  fill="#fff" /><path d=""  fill="#005bbb" /><path d=""  fill="#c2e1ff" /><path d="M-348.3-8.6c20.6 24.5 84.3 57 94.6 81.3 1.5 3.5-4.7 4.6-4.6 0.9 0.1-4.4 7.2-1.3 4.1 1.8-3.2 3.2-24.2-21.4-27.9-24.6-20.7-17.5-44.2-31.5-63.7-50.4-1.3-1.3-8.9-14.3-2.5-9z"  fill="#c2e1ff" /><path d="M-330.3-370.4c-29.7 145.3-7.1 183.7 66.4 308.8 6.6 11.2 64.7 112.1 54 115.7-4.6 1.6-7.7-5.1-3.5-7.6 4.9-3 9.2 5 3.9 7.4-7.8 3.6-21.6-39.5-24.6-45.8-41.6-86.3-109.9-167-122.5-264.6-3-23.4-1.6-102.3 13.4-120.2 5.2-6.3 13.5-0.7 12.9 6.3z"  fill="#fff" /><path d="M-295.7-397.5c-3.2 57.6-19.7 109.1 10 163.3 16.5 30.2 42.4 54.5 56.7 86 5.1 11.2 26.5 84.7 10 90.1-9 3-10.6-12.7-1.2-11.6 9.4 1.1 4.3 16-3.8 11.1-10.1-6.2-5.7-58.6-8.5-71.4-13.3-59.4-69.8-96.2-81.8-157.1-4.2-21.5-5.2-96.7 6.3-114.7 4-6.2 12.1-2.2 12.3 4.3z"  fill="#fff500" /><path d="M-309.1-145.7c15.4 31.6 117.7 200.3 111.1 220.7-2.2 6.7-12.3 0.8-7.5-4.4 4.8-5.2 11.5 4.4 5 7.2-6.2 2.6-33.8-71-38.4-80.4-10.7-21.6-77.5-128.8-77.4-141.5 0.1-4.2 5.1-4.6 7.2-1.6z"  fill="#fff" /><path d="M-295.3-282.3c11.1 54.9 60.8 87 77.9 138.5 12.7 38.2 4.2 79.6 8.1 118.9 3 30.2 11.3 59.6 19.3 88.8 0.8 2.8 5.3 18.4-4.4 13.9-19.9-9.2 24.3-6.8 3.6 0.2-10.6 3.6-27.3-85.8-29-96.8-5.7-37.5 0.7-75.5-5-112.9-7.4-48.1-47.1-78.3-68.5-119.6-15-29-7.3-44.2-2-31z"  fill="#005bbb" /><path d="M-284.4-137.7c18.3 32.3 90 180.9 89.7 211.1-0.1 7.2-11.8 4.6-8.7-2 3.6-7.7 13.7 3.1 5.8 6.2-7.3 2.8-32.8-76.6-36.8-86.7-6-15-56.5-124.1-56.6-126.8-0.1-3.9 4.6-4.5 6.6-1.8z"  fill="#c2e1ff" /><path d="M-243.6-399c2.8 32.8 0.4 65.9 10.9 97.7 12.7 38.2 43 66.8 56.7 104.3 14.1 38.9 1.2 76-10.8 113.4-2.6 8.2-4.9 37.6-14.9 38.7-13.1 1.4-6.9-20.7 3.6-12.7 9 6.8-5.3 18.9-10.6 9-7.7-14.6 29-101.2 26.3-130.4-4.6-50.9-49.8-86.9-63.9-135.1-4.6-15.6-14.8-72.9-8.5-86.9 2.7-5.9 10.2-3.5 11.2 2z"  fill="#005bbb" /><path d=""  fill="#fff" /><path d="M-248.1 27.4c5.2 5.6 37.5 41.8 30.2 48.5-3.7 3.4-8.8-2.7-4.7-5.7 4.1-3 8.5 3.6 4.1 6.2-6.8 4-13.9-18-16.3-21.8-5.1-8.3-13.2-16-17.4-24.5-1.3-2.7 2.1-4.4 4.1-2.7z"  fill="#005bbb" /><path d="M-232.6-94.1c13.9 55.7 26.9 111 41.9 166.4 0.7 2.6-0.8 5.3-3.5 6-5.3 1.3-8.1-6.4-3.1-8.8 5.7-2.8 9.6 6.5 3.6 8.6-9.3 3.3-12.8-25.4-14.4-30.7-10.1-32.9-20.2-65.7-26.7-99.5-2.1-10.8-10.4-31.6-7.6-42.2 1.5-5.4 8.2-4.3 9.8 0.2z"  fill="#c2e1ff" /><path d="M-219.2-80.5c3.5 40.7 9.2 79.3 20.3 118.6 1.7 5.8 16 38 6.3 40.2-6.3 1.4-8-8.6-1.6-9.4 6.4-0.7 7 9.4 0.6 9.5-9.3 0.1-15.3-40.7-17.4-48.1-9.1-32.2-25.2-77.4-19.7-111.2 1.1-7 10.2-5.7 11.5 0.4z"  fill="#c2e1ff" /><path d="M-206.5-34.3c0.4 27.7 6.4 54.8 13.3 81.5 1.3 5.1 12.4 29.2 2.9 31.2-5.5 1.2-8.1-6.8-3-9.1 6-2.7 9.7 6.9 3.5 9-10.4 3.4-31.2-100.4-28.6-113.4 1.4-7.2 10.8-5.6 11.9 0.8z"  fill="#005bbb" /><path d="M-193.5-20.7c-1.5 15.7 11.5 95.4 11.1 96.3-3.7 8.5-15-3-6.4-6.6 7.3-3.1 9.7 9.8 1.7 9.6-13-0.5-22.6-89.5-19.2-101.4 2.2-7.7 12.2-5 12.8 2.1z"  fill="#fff500" /><path d="M-182.6-343.2c10.8 50.1 43.1 96.9 43.2 148.8 0.1 65-52.5 114.2-55.4 178.8-0.7 17 15.1 83.8 12 90.9-3.2 7.2-13.7-0.5-7.8-5.7 6.9-6.1 12.4 9 3.1 8.7-8.4-0.3-9.3-23.3-10.6-28.7-32.3-145 32.1-138.3 45.1-239.4 6.3-49.1-22.7-92.3-35.8-137.7-6.6-22.9 5-18.8 6.2-15.7z"  fill="#fff500" /><path d="M-167.4-16.7c-10.1 25.2-1.6 87.5-4 92.3-3.8 7.5-14.5-1.4-8-6.6 7.7-6.1 12.5 10.3 2.8 9.4-17-1.6-12.3-89.7-5.2-101.5 5-8.4 16-2.1 14.4 6.4z"  fill="#c2e1ff" /><path d="M-155.4-158.5c-7.5 52.9-42.4 95.9-41.1 151.2 0.6 23.1 5.4 45.9 10.6 68.3 0.8 3.5 7 19-2.7 17.6-6.7-0.9-4.6-11.3 1.9-9.7 5.6 1.4 4.4 9.9-1.3 9.8-8-0.2-8.7-20.1-9.9-25.3-16.9-72.3-10-114.1 17.4-182 4.5-11 6.4-24 11.5-34.5 3.8-8 14.3-3.2 13.6 4.6z"  fill="#fff500" /><path d="M-142.1-15.8c-11.7 18.4-16.5 40-16.8 61.6-0.1 5.4 6.7 35.8-5.4 32.8-6.2-1.6-4.9-11 1.6-10.9 7.5 0.2 6.5 12-1 11-20.5-2.8-3.4-92.9 7-104.6 7.3-8.2 18.1 1 14.6 10.1z"  fill="#fff500" /><path d="M-133.4-376.5c17.9 47.9 38.9 99.5 34.4 151.6-6.3 73-68.5 117.1-87.5 184.3-6.7 23.7-6.1 48.3-2.5 72.4 0.6 4.1 9.1 28.3-2.3 26.4-6.9-1.2-4.4-12 2.3-10 5.7 1.7 4.2 10.5-1.8 10-8.7-0.6-8.8-24.4-9.7-30-19.5-118.5 58.8-143.6 84.5-239.6 10.2-38.1 2.6-76.7-8.8-113.6-3.3-10.5-20.6-41.7-16.7-51.6 1.5-4 6.4-3.2 8.1 0.1z"  fill="#fff500" /><path d="M-117.3-174.8c-20.2 56.2-70 98.3-74.6 160.3-1.3 17.5 13.7 82.8 10.4 90.3-3.8 8.5-15.1-3.1-6.5-6.7 8.6-3.6 8.8 12.6 0.1 9.3-7.9-3-9.2-30.4-10.7-37.8-19.5-99.3 24.3-139.8 65.9-221.8 4.9-9.7 18.2-3.8 15.4 6.4z"  fill="#c2e1ff" /><path d="M-105.7-90.1c-34.9 26-66.4 55.2-70.8 100.9-1.1 11.9 9.5 59.4 2.7 66.2-5.9 5.9-13.3-5.8-5.5-8.6 9.2-3.3 8.6 13.6-0.3 9.7-8-3.5-7.6-30-8.4-37.5-7-63.2 17.2-108.2 66.3-146.6 12.4-9.7 28.1 4.1 16 15.9z"  fill="#fff500" /><path d="M-95-296c31.9 132.8-61.1 155.9-90.5 255.7-8.5 28.9-5.8 58.9-0.3 88.1 0.8 4.3 11.3 32.6-0.5 30.8-6.7-1-4.6-11.5 2-9.8 5.6 1.5 4.3 10.1-1.4 9.9-9-0.4-10.2-28.1-11.4-34.3-25.5-129.1 37.6-139.9 81.8-239 21.9-49 5-83.3 10.4-101.8 1.6-5.4 8.4-4.2 9.9 0.4z"  fill="#fff500" /><path d="M-82.1-290.8c24.2 128.8-78.9 158.2-104.2 256.9-6.2 24.4 5.8 108.5 5.6 109.2-3.8 8.5-15.1-3.2-6.5-6.7 8.7-3.5 8.8 12.7 0.1 9.3-8.4-3.3-9.9-34.7-11.4-42.7-21.2-121.3 49.7-142.2 92.4-235.6 17.9-39.3 8-76.2 13.5-91.4 2-5.7 9.2-3.9 10.5 1z"  fill="#005bbb" /><path d="M-72-381.7c44.1 71.8 36.9 154.9-14.1 221.5-28.7 37.6-69.8 67.2-90.1 110.8-8 17.2-11.7 35.8-11.8 54.7 0 4.7 5.6 29.4-6 26.3-7.4-2-3.6-13.4 3.5-10.7 7.1 2.8 2.1 13.7-4.6 10.2-7.3-3.8-5.1-24.5-5.3-31-2.4-98.2 92.5-140 129.5-220.3 14.5-31.4 20.3-67.2 14.4-101.4-3.7-21.2-16-37.6-21.8-57.5-1.2-4 4-5.6 6.3-2.6z"  fill="#005bbb" /><path d="M-55.4-116.9c-37.2 34.4-92.5 58.8-109.9 109.8-6.7 19.7-7.1 41-5.1 61.6 0.3 3 6.7 31-5.7 23.7-5.3-3.2-1.5-11.6 4.4-9.6 5.9 1.9 3.9 11-2.2 10.3-9.6-1-8.7-30.3-9.2-36.9-2.8-33.8 2.2-67.3 22.2-95.4 11.1-15.6 79.5-78.2 95.9-82.1 11.6-2.8 16.5 11 9.6 18.6z"  fill="#fff" /><path d="M-42.6-103.8c-32.9 35.7-80.7 64.4-98.9 111.3-7.2 18.6-2.7 79.4-15.9 70.7-6.3-4.2 0.8-13.8 6.7-9 5 4.1-0.4 12.2-6.1 9.3-7.1-3.6-5-21.9-5.2-28.4-2-61.6 32.5-101.4 75.5-140.7 9.9-9 19.7-22.1 31-29.2 10.7-6.7 19.7 7 12.9 16z"  fill="#fff" /><path d="M-34.7-390.7c48.8 73.5 17.5 172.6-36.4 234.6-29.1 33.4-67.9 58.3-93 95.2-15.4 22.7-13.5 44.1-21.7 68.2-1.1 3.3-5 5.1-8.2 3.8-7.9-3.2-2.2-15.3 5.3-11.3 7.5 4 0.5 15.5-6.5 10.6-8.4-5.8-1.6-32.2 0-40.2 16.6-82.6 107.4-119.3 145.4-190.2 19.2-35.8 31.6-79.7 26-120.5-2.5-17.8-11.8-31.1-16.9-47.5-1.2-3.9 3.8-5.5 6-2.7z"  fill="#c2e1ff" /><path d="M-23.5 58.5c2.1 2.3 16.5 13.3 14 15.9-1.5 1.6-3.8-0.9-2.2-2.3 1.7-1.4 3.7 1.3 1.9 2.5-8 5.4-20.5-21.4-13.7-16.1z"  fill="#fff500" /><path d=""  fill="#fff500" /><path d="M1.8 6.4c20.6 27.8 55 40.8 78.6 65.6 3.1 3.3-4.6 6.3-4.4 1.5 0.2-4.6 7.5-1.3 4.2 1.9-3.6 3.5-20.5-17.9-24.1-20.9-16.8-13.7-36.3-24.1-52-39-2.1-2-8.5-14.6-2.3-9.1z"  fill="#fff500" /><path d="M51-399.2c19.6 94.9-73.8 238.7-146 294.1-9.6 7.4-21.1 20.1-32.4 24.6-16.1 6.3-20.7-22-3.3-21.1 17.3 1 9.5 28.7-5.8 20.5-5.4-2.9-7.4-10-4.2-15.3 13.6-22.4 85.8-59.6 123.5-125.1 23.1-40.2 45.4-86.1 54.8-131.7 2.9-14.1-1.8-34.6 2.9-47.2 2.1-5.6 9.2-3.9 10.5 1.2z"  fill="#005bbb" /><path d="M30.8-83.6c0.5 64.5 66.8 84.6 96 133.1 3 5 16 23.4 8.3 28.2-6.5 4-10.6-8-3.1-8.9 7.6-0.9 6.3 11.7-0.9 9.4-6.8-2.2-10.2-24.8-13.7-31-20.5-37.2-62.5-54.6-84.6-90.4-21.5-34.9-6-58.6-2-40.4z"  fill="#fff500" /><path d=""  fill="#fff500" /><path d="M57.6-398.8c11.6 74.8-53.9 199.5-103.9 253.2-26.1 28-58.8 47.9-87.3 73.1-8.8 7.8-34.7 50-44.9 44.6-12-6.3 2.5-23.4 10.7-12.7 9.6 12.6-16.9 20-15.2 4.3 4.2-40.2 122.8-116.8 154.4-163.4 29.7-43.9 55.6-97.4 69.3-148.6 4.2-15.6 0.2-38.5 6-52.2 2.4-5.8 9.8-3.6 10.9 1.7z"  fill="#fff500" /><path d="M70-346.5c-19.4 66.7-66.9 158.2-114.9 208.3-32.1 33.5-75.9 54.5-105.6 90.3-25.5 30.6-24 71.3-28.3 74.2-9.7 6.5-13.9-13.4-2.4-11.4 9.8 1.7 3.5 17-4.6 11.3-6.3-4.4-2.6-20.3-2-26.1 8.7-87.8 103.3-117.5 151.9-179.5 25.2-32.1 88.4-170.9 92.9-175.3 6.3-6.1 14.5 0.8 13 8.2z"  fill="#c2e1ff" /><path d="M82.8-320.7c-34.4 64.5-69.5 138.2-118.8 192.6-32.5 35.8-78.4 58.3-108 96.5-10.9 14.1-17.9 30.3-20.9 47.8-1.2 7.3 1.8 27.6-4.2 32.1-7.7 5.7-14.1-8.9-4.8-10.7 11-2.2 7.5 16.9-2 11-7.2-4.5-3.3-24.7-2.9-31.3 6.1-86 92.5-116.5 141.7-175 39.4-46.9 76-141.5 105.5-173.4 7.4-8 18 1.4 14.4 10.4z"  fill="#005bbb" /><path d="M89.2 52.5c3.4 3.2 20.4 18 15.3 23.3-3.2 3.4-8.3-2-4.7-5 3.6-3 8 2.9 4.1 5.5-8.4 5.6-21.4-29.6-14.7-23.8z"  fill="#fff" /><path d=""  fill="#c2e1ff" /><path d=""  fill="#fff" /><path d="M126.9-37.6c14.9 17.6 68.7 91.5 50.8 114.6-5.3 6.8-15.5-2.1-9.5-8.3 7-7.2 16.2 6.7 6.8 10.3-11 4.3-13-48.6-16.3-57.4-7.9-21-48.1-74.6-31.8-59.2z"  fill="#fff500" /><path d="M140.7 30.4c4.1 6.6 24.5 43.1 12.5 48.2-7 3-11.1-8.2-3.9-10.4 7.2-2.2 10.1 9.4 2.7 10.8-8.5 1.6-22-64.2-11.3-48.6z"  fill="#c2e1ff" /><path d="M157.6-254.4c-15.9 41.8-16.4 83.8 1.6 125 25.8 59.2 65.3 110.3 64 178.1-0.1 8.1 0.8 21.3-3.3 28.5-5.7 10.1-20-2.8-10.6-9.5 9.4-6.8 17 11 5.6 13.1-14 2.7-0.4-52.1-9.9-90.5-17-68.6-74.6-124.1-72.4-197.6 0.5-15.8 1.9-40.3 10.6-54 5.3-8.3 16.2-1.6 14.4 6.9z"  fill="#c2e1ff" /><path d="M167.3-176.2c15.6 77.6 68.5 134.8 66.3 219.8-0.2 9.4 0.7 25-4.3 33.3-6.1 10.1-20.3-3.3-10.6-9.9 9.7-6.6 17 11.5 5.5 13.4-15.4 2.6-4.8-26.7-4.2-32.3 2.6-22.7 0.5-45.7-4.3-68-10.6-50-37.5-92.7-53.9-140.6-1.5-4.2-4.2-9.9-4.3-14.5-0.1-6.1 7.8-6.3 9.8-1.2z"  fill="#fff500" /><path d="M178.8-140.6c25.6 63.9 60.5 124 54.3 195.7-0.5 6.3 0.1 19.4-5.3 24-7.7 6.6-17.4-6.1-9-11.9 9.8-6.6 17 11.6 5.4 13.5-15.4 2.5-4.8-26.7-4.1-32.4 2.7-22.7 0.6-45.7-4.1-67.9-8.8-42-28.7-78.5-44.8-117.8-2.1-5.1 5-7.7 7.6-3.2z"  fill="#005bbb" /><path d=""  fill="#c2e1ff" /><path d="M207.6-283.7c-9.2 25.7-12.2 53.3-8.7 80.4 8.4 64.4 37.9 123.9 45.4 189 1.6 13.3 10.4 94.6-9.6 95.1-12 0.3-8.3-19.3 2.8-14.5 11.1 4.7-0.6 21-8.6 12-6.1-6.8 6.2-56.2 5.2-76.2-3.9-80.3-43.6-150.5-48.7-226.5-1.3-18.7-2.2-48.8 7.8-65.6 5-8.3 15.8-2.1 14.4 6.3z"  fill="#fff500" /><path d="M218.2 25.5c1.3 9.6 7.2 54.1-7.2 55.4-9.8 0.9-10.4-14.7-0.5-14.4 9.9 0.2 8.7 15.7-1.1 14.4-9.6-1.2-5.8-52.6-1.5-58.3 3.4-4.5 9.3-1.8 10.3 2.9z"  fill="#c2e1ff" /><path d="M232.6-379.1c-52.5 54.2-108.2 145.6-88.9 224 14.3 58.2 58.6 103.6 71.8 162.8 1.1 5.1 8.7 26.4-2.2 26.7-7.9 0.3-7.6-12.2 0.3-11.6 9.2 0.7 4.8 15.4-3.3 10.9-6.7-3.8-10.3-48.9-16.5-65.3-27.7-72.3-82.5-127-60.7-210.2 10.6-40.6 50.7-129.1 86.2-152.8 10.5-7 19.7 6.4 13.3 15.5z"  fill="#c2e1ff" /><path d="M243.9-240.8c-2.1 32.6 35.3 321.9-0.1 322.1-12.2 0.1-8-19.7 3.1-14.7 11.1 5-1 21.3-9 12.1-6.3-7.3 7.8-58.8 8-79.8 0.6-79.4-14.7-157.9-14.8-237 0-9.4 11.8-13.5 12.8-2.7z"  fill="#005bbb" /><path d=""  fill="#c2e1ff" /><path d="M226.5-391.7c-51 52.9-120.6 157.4-118.2 233.1 0.9 26.6 10.1 51.6 23.9 74.2 4.8 7.9 24.3 27.3 23.9 36.1-0.3 6.6-10.2 0-4.2-2.8 5-2.4 5.7 7.3 0.3 5.5-7.6-2.5-17.9-24.3-22.4-30.9-34.5-50.8-42.7-105.9-20.7-163.8 21.7-57 59.1-121.9 102.3-165.3 9.6-9.6 22.7 3.4 15.1 13.9z"  fill="#fff" /><path d="M282.9-328.3c-16.8 26-26.9 55-29.7 85.8-3 33 23.8 323.2-8 323.4-12.2 0.1-8-19.7 3.2-14.7 11.1 5-1 21.3-9 12-7.3-8.4 7-51 7.6-63.1 4.8-91.2-17.5-193-4.8-281.4 3.2-22 10.1-56.6 26.3-73.1 7.8-8 18.4 2 14.4 11.1z"  fill="#fff" /><path d="M295-115.6c-12.6 37-25.5 181.8-33.4 193.3-7.1 10.2-21-4.9-10.4-11.2 12.5-7.3 16.3 17.6 2.2 14.4-13.3-3.1 3.2-48.5 4.5-58.6 4.8-38.9 2.8-111.3 22.8-144.4 5-8.3 15.9-2 14.3 6.5z"  fill="#005bbb" /><path d="M307.6-282.4c-26.8 73.1-34.5 157.4-38.8 234.6-1.6 28.6 2.7 103.5-12.5 125.8-6.9 10.2-20.9-4.7-10.3-11 12.4-7.4 16.3 17.4 2.2 14.2-12.1-2.7 4.4-64.2 5.2-75.7 5.7-93.6 8.7-189 34.9-279.8 5.5-19 23.2-26.6 19.3-8.1z"  fill="#005bbb" /><path d="M320.1 10.7c-4.2 10.9-15.9 75.7-30.4 69.9-10.1-4-2.9-19.6 6.7-14.5 9.6 5.1 0.8 19.8-8.3 13.7-8.9-6 11.4-70.8 18.9-77.7 6.5-6.1 14.8 1 13.1 8.6z"  fill="#fff500" /><path d="M332.9-10c-14.5 25.2-27.8 96-41 90.7-10.1-4-2.9-19.6 6.7-14.5 9.6 5.1 0.8 19.8-8.2 13.7-10.8-7.3 18.9-93.6 29.5-101.1 8-5.7 15.9 3.2 13 11.2z"  fill="#c2e1ff" /><path d="M345.1-318.3c-34.2 97.1-67 195.2-74 298.5-1.1 16.2-3.5 91.2-14 99.1-9.9 7.4-18.3-11.2-6.3-13.8 12.1-2.6 11.9 17.9-0.1 15.2-12.9-2.9 3.5-53.2 4.6-63.8 12.9-133.6 24.2-194.6 68.3-322.5 2.1-6.1 3.7-18.9 10-22.4 6.9-3.9 13 3 11.5 9.7z"  fill="#fff" /><path d="M357.5-346.6c-32.8 103-75.4 204.4-84.7 313.1-1.6 18-4.1 104.7-15.4 113.1-9.9 7.4-18.3-11.3-6.3-13.8 12.1-2.6 11.9 17.9-0.1 15.1-12.3-2.8-1.7-23.7-0.3-30.4 5.2-24.4 6.3-49.5 8-74.3 6.5-95.5 35.7-183.5 65.8-273.8 5.7-17.1 9.3-40.4 18.8-55.6 5.1-8.2 15.9-1.8 14.2 6.6z"  fill="#c2e1ff" /><path d="M370.3-223.3c-30.2 70-74.3 109.3-88.1 190.1-2.4 14.2-9.2 120.2-26.8 114-27.7-9.9 29.6-21.5 8-1.6-14.1 12.9-11-13.6-9.7-18.5 16.4-60 12.3-122.4 37.4-180.6 7.6-17.7 54.3-105 66.3-114 7.6-5.7 15.5 2.8 12.9 10.6z"  fill="#fff500" /><path d=""  fill="#005bbb" /><path d=""  fill="#fff500" /><path d="M407.6-172.8c-39.5 55-91.5 75.8-111.8 147-4.8 16.8-15.5 99.5-24.5 105.9-12 8.5-18-16.3-3.5-14.2 12.4 1.8 5.1 21.3-5.4 14.4-9.8-6.3 4.3-35.8 6.1-44.5 17.5-86 28.4-131.6 95.8-192.8 9.3-8.4 20.6-26.2 31.8-31 9.9-4.3 16.5 7.2 11.5 15.2z"  fill="#fff" /><path d=""  fill="#005bbb" /><path d="M432-245.7c-10.7 88.3-103.2 122.3-132 201.6-7.1 19.5-20.8 117.9-29.6 124.2-10.2 7.3-18.4-11.9-6-14.2 14.4-2.7 9.5 22.3-2.9 14.4-9.9-6.4 4.7-37.8 6.6-47.1 12.5-64.7 22.6-122.1 70.8-171.1 16.1-16.3 34.1-30.9 48.9-48.4 18.8-22.3 23.2-54.4 31.6-65.1 4.8-6.2 13-1.1 12.6 5.7z"  fill="#c2e1ff" /><path d="M445.2-59.7c-23.4 29.7-51.6 55.5-66 91.3-3.3 8.2-9.4 55.8-22.7 47.6-7.1-4.4-1.7-15.7 6.3-12.9 9.2 3.3 3.3 17.5-5.6 13.3-10.8-5.2 1.2-34.7 3.5-42.8 10.5-38.2 38.5-86.6 70.9-110.7 9.7-7.3 19.4 5.2 13.6 14.2z"  fill="#c2e1ff" /><path d=""  fill="#005bbb" /><path d=""  fill="#c2e1ff" /><path d="M491.6-400c73.3 108.3 31.2 249.9 2.9 367.4-2.2 9.1-5 59.5-14.4 59.1-11.5-0.5-3.2-18.7 4.7-10.5 7.9 8.2-10.3 15.9-10.6 4.4-1.2-51.9 34.3-176.1 41.9-246.3 4.5-41.8 7.9-85.4-6.7-125.6-5.8-16.1-18-30-23.4-45.8-1.3-3.6 3.4-5.3 5.6-2.7z"  fill="#005bbb" /><path d=""  fill="#fff500" /><path d="M567-399.9c19.1 24.6 30.3 54.4 29.7 85.7-1.3 61.3-36.5 126.9-47.2 188.9-1.9 11.2-6 83.2-17.7 81.6-10.5-1.5-4.4-18 4.6-12.3 8.9 5.8-3.6 18.2-9.3 9.2-6.6-10.5 2.8-42.1 4.4-54 8.6-64 29.3-121.8 46.1-183.7 6.4-23.4 9.1-47.7 3.1-71.4-3.9-15.4-13.4-27-18.8-41.3-1.3-3.3 3-5.1 5.1-2.7z"  fill="#fff" /><path d="M543.9-400c19 24.6 31.1 53.5 32.2 84.7 1.7 48.6-32.4 168.4-40.7 229.1-1.6 11.9-5.2 94-13.8 93.7-9.7-0.3-5.8-15.8 2.9-11.5 10.1 5-4.5 18.2-8.5 7.5-15.3-41.6 30.6-226.6 41.7-277.4 5.9-27.2 8.9-55.2 1-82.4-4.4-15.2-14.4-26.8-19.9-41-1.3-3.3 3-5.1 5.1-2.7z"  fill="#c2e1ff" /><path d="M531.6-35.6c-3 35 9.4 106.2 7.3 110.9-3.3 7.3-14-0.7-7.9-6 7.1-6.1 12.4 9.3 3.1 8.9-17.8-0.9-17-100.7-15.7-114.6 0.8-8.7 12.8-7.5 13.2 0.8z"  fill="#fff" /><path d="M544.5-226.9c-11.5 74.3-30.8 151.1-33.6 226.2-0.7 19.4 1.2 38.7 5.4 57.6 0.8 3.6 9 22.4-1.1 21.3-5.5-0.6-5.5-8.8-0.1-9.4 5.5-0.6 7.3 7.4 2.1 9.2-9.5 3.3-12-24.6-13.1-29.5-14.4-64.7 3.7-130.6 13.5-194.7 2.6-16.9 5.8-74.7 14.2-86 4.7-6.3 12.9-1.4 12.7 5.3z"  fill="#fff500" /><path d="M556.2-6.1c-0.1 11 9.6 84.1 1.1 84.9-7.4 0.6-7.8-11.2-0.3-11 7.5 0.2 6.6 11.9-0.9 10.9-11.1-1.5-14.6-75.6-12.1-86.1 1.7-7.4 11.3-5.4 12.2 1.3z"  fill="#fff" /><path d="M569.6-271.6c-15.3 87.3-41 172.9-43.3 262.3-0.5 21.3 1.3 42.4 5.3 63.3 0.8 4.2 9.5 25.8-1.7 24.2-5.7-0.8-5.4-9.5 0.4-9.9 5.8-0.4 7.3 8.1 1.8 9.7-10.5 3.1-12.7-32-13.8-38.1-10-57.3 13.9-265.1 37.6-316 3.8-8.1 14.3-3.4 13.7 4.5z"  fill="#fff" /><path d="M583.1-400.1c64.2 83-16.8 196.8-32.6 301.4-4.5 29.9-7.9 60.1-7.9 90.4 0 10.3 6.4 35.3 1.2 43.8-5.3 9-16.4-5.4-6.3-8.3 8.6-2.4 9.5 12.3 0.6 11-9.1-1.4-6.9-25.3-7.2-31.3-4.2-65.9 5.8-136.8 25.3-199.9 9.3-30 28.6-60.2 34.1-90.9 4.4-24.3 2.8-59.5 3.1-82.1 0.2-11-11.8-21.7-15.5-31.4-1.3-3.4 3.1-5.1 5.2-2.7z"  fill="#005bbb" /><path d="M592.5-349c14.3 52.1-12.1 103.6-26.6 152.5-14.2 47.8-22 97.6-26.6 147.2-2.6 28.3-3.2 56.6 0.3 84.9 1.1 9.2 9.6 31.9 5.6 40-3.6 7.4-14.3-1-7.9-6.2 7.4-6.1 12.5 9.8 2.9 9.1-8.7-0.6-8.7-24.3-9.7-30-18.1-104 7.6-212.1 40.1-310.6 12.2-36.9 10-81 12-87.4 1.6-5.4 8.4-4.1 9.9 0.5z"  fill="#005bbb" /><path d="M606.4-248.2c-35.7 77-58.5 152.4-59.2 238.2-0.2 23.1 1.9 46.2 5.3 69.1 0.6 3.9 6.4 22.1-4.2 19.8-6.1-1.3-5.1-10.5 1.1-10.5 6.2 0 7.3 9.2 1.2 10.5-11.9 2.7-13.7-53.4-14.4-61.5-6.7-78.3 5.7-164 37.2-236.1 5.4-12.4 10.9-25.1 17.4-36.9 5.4-10 19-2.9 15.6 7.4z"  fill="#fff" /><path d="M605.2 43.8c-0.4 7.3 3.4 33.3-6.1 35.6-9.9 2.4-10.3-14.5-0.3-12.5 8.6 1.7 5.2 15-3.2 12.4-19.3-6.1 7.4-65.2 9.6-35.5z"  fill="#005bbb" /><path d="M606.4-158.7c-35.7 55.5-40.8 128.2-37.2 192.4 0.4 8 8.3 41.8-0.5 45.2-8.5 3.3-10.8-11.6-1.7-11 7.7 0.5 6.3 12.6-1.3 11.3-11-1.9-8.9-52.3-9.3-61.7-2.6-57.7 2.4-120 27.7-172.8 9.8-20.5 30.4-22.1 22.3-3.4z"  fill="#fff" /><path d="M606.5-175.3c-18.1 27.4-28.7 58.6-34.9 90.7-2.1 11.1-0.7 40.5-7.8 48.5-7 7.9-17.3-6.3-7.6-10.5 11.4-4.9 12 16.6 0.4 12.3-8.5-3.1-3.3-20.6-2.7-26.3 4.4-42.2 13.5-87.9 36.8-124.2 6.6-10.3 20.5-1 15.8 9.5z"  fill="#c2e1ff" /><path d=""  fill="#fff" /><path d="M606.6-155.6c-35.6 55.6-40.1 128.4-36.3 192.5 0.6 11.1 5.3 27 2.7 37.8-2.4 10.4-17.6-0.2-8.7-6 8.9-5.9 12.7 12.3 2.1 10.4-11-1.9-8.5-49.4-8.9-58.4-2.8-57.7 1.8-119.9 26.9-172.9 9.7-20.5 30.2-22.2 22.2-3.4z"  fill="#c2e1ff" /><path d=""  fill="#fff500" /><path d="M606.6-169.8c-37.2 56.5-44 130.9-40.6 197 0.5 9.3 9.2 44.7 1.9 50.8-6.8 5.8-13.8-7.3-5.2-9.7 8.7-2.4 9.5 12.5 0.6 11-11.3-1.8-9.4-53.6-9.8-63-3-59.4 2.5-123.7 28.1-178.1 13.5-28.7 32.5-25 25-8z"  fill="#c2e1ff" /></svg>