<svg width="1200" height="675" viewBox="-500 -500 1200 675" xmlns="http://www.w3.org/2000/svg"><path d="M-500-500h1200v675h-1200z" fill="#000"/><path d=""  fill="#005bbb" /><path d="M-397.8-10.9c8.6 8.2 41.6 33.2 41.2 45.7-0.1 3.2-5.3 1.9-3.9-1 1.5-2.9 5.6 0.5 3.1 2.5-0.2 0.2-47.7-52.7-40.4-47.2z"  fill="#005bbb" /><path d=""  fill="#c2e1ff" /><path d="M-397.6 9.5c6.3 5.3 62 56.7 52.1 65.7-3 2.7-6.4-3.2-2.5-4.4 3.9-1.2 4.5 5.6 0.5 5-4.9-0.6-12.5-20.7-15.4-25-4.9-7.2-40.8-45.4-34.7-41.3z"  fill="#fff" /><path d=""  fill="#c2e1ff" /><path d="M-397.6-19.5c6.1 6.2 29.2 23.6 29.6 32.1 0.1 2.8-4.4 2-3.4-0.6 1.1-2.6 4.8 0.1 2.8 2-3 2.8-9.3-8.3-10.6-9.8-6.8-7.7-23.8-28-18.4-23.7z"  fill="#fff500" /><path d="M-397.4-38.8c7.7 9.7 87.7 103.4 70.2 114.9-4.2 2.7-7.1-5-2.2-5.8 4.9-0.7 4.4 7.5-0.4 6.2-6.1-1.8-17-40.1-21.1-47.4-13.1-23.5-38.2-42.5-49.4-66-0.9-1.9 1.6-3.2 2.9-1.9z"  fill="#005bbb" /><path d=""  fill="#005bbb" /><path d="M-396.7-58.2c7.4 11.9 92.8 123.3 73.8 134.7-4.5 2.7-7.2-5.5-2-6.1 5.2-0.6 4.2 8-0.7 6.4-6.5-2.2-16.2-42.9-20.1-50.8-13.5-27.1-45.7-56.4-54.8-82.3-0.9-2.5 2.3-3.7 3.8-1.9z"  fill="#c2e1ff" /><path d="M-396.3-72.1c7 13.9 94.9 137.2 75.6 148.3-4.6 2.7-7.3-5.7-1.9-6.2 6.2-0.6 3.1 9.8-1.8 6-2.9-2.3-16.4-47.4-20.4-55.6-9-18.4-56-77.2-56.2-91.2 0-2.7 3.3-3.1 4.7-1.3z"  fill="#c2e1ff" /><path d="M-395-157.3c4.1 34.6 11.9 67.3 27.4 98.7 9.3 18.9 62.9 116.8 54.7 133.7-2.4 5.1-9.8-0.7-5.4-4.3 4.3-3.6 8.6 4.7 3.1 6.2-4.7 1.2-18.2-53.6-21.1-60.9-17.4-43.7-45.8-82.2-58-128.1-3.5-13.1-9.8-31.7-8.2-45.3 0.5-4.6 6.5-4 7.5 0z"  fill="#fff500" /><path d=""  fill="#fff" /><path d="M-394-300.4c7.2 84.9 37 208.6 66.4 289.2 4.4 12 26.2 77.8 21.6 86.2-2.8 5.2-10.2-1.3-5.5-4.7 4.8-3.5 8.7 5.4 3 6.6-3.6 0.7-21.2-75.9-24.6-85.4-35.3-101-53.7-178.1-67.8-285-0.7-5.4 4.7-16.6 6.9-6.9z"  fill="#fff500" /><path d="M-385.9-246.7c10.4 50.5 14.5 102.8 28 152.6 8.8 32.6 23.2 63.2 34.1 95.1 4.7 13.7 25 60.4 17.5 74-2.8 5.2-10.2-1.2-5.4-4.8 4.7-3.5 8.7 5.4 2.9 6.7-3.7 0.8-20.6-73.5-23.9-82.9-10.8-31.1-24.7-61.1-33.3-92.9-12.2-44.8-15.7-91.5-24.9-137-0.7-3.3 1.3-21.9 5-10.8z"  fill="#fff" /><path d=""  fill="#c2e1ff" /><path d="M-368.9-263.7c11.9 57.4 19.5 115.5 31.6 172.7 11.6 54.9 32.3 107.7 37.3 163.9 0.6 7.2-11.2 3.7-7-1.9 4.4-5.7 10.8 5 3.7 6.2-3.8 0.6-19.1-85.5-21.9-96.1-20.6-76.1-30.8-153.1-47.7-230-5-23 2-20.5 4-14.8z"  fill="#fff500" /><path d="M-359.4-333.8c-5.7 66.8 53.4 310.6 62.2 397.8 0.3 2.8 3.3 15.7-4.3 13.4-4.4-1.3-3.1-8.1 1.5-7.7 4.6 0.4 4.8 7.2 0.2 7.9-4.3 0.6-16.9-90.5-19.2-101.7-11.2-51.9-48-252.4-49.3-296.9-0.1-4.1-1.5-11.6 0.6-15.3 2.5-4.3 8-1.8 8.3 2.5z"  fill="#c2e1ff" /><path d="M-350.6-347.4c-8.6 49.9 7.5 100.9 15.5 149.9 6.3 38.7 9.3 77.7 15.4 116.4 7.6 48.2 19.3 95.4 23.8 144.1 0.3 3.4 3.5 14.1-3.1 14.3-5.4 0.1-5.1-8.4 0.3-8 4.6 0.4 4.8 7.3 0.2 7.9-4.7 0.6-15.6-90.2-17.8-101.3-10.3-53.2-46.6-264.6-45.1-307.9 0.2-5.6 0.5-11.2 1.3-16.6 0.9-6.3 9.6-4.7 9.5 1.2z"  fill="#fff" /><path d=""  fill="#005bbb" /><path d="M-334.6-164.5c6.5 47.4 13.3 94.2 23.4 141 2.9 13.7 19.5 90.8 14.4 98.7-3.4 5.3-10.8-2.1-5.5-5.5 5.3-3.4 8.9 6.4 2.7 7.3-6.2 0.9-12.1-66.4-13.8-75.3-7.7-41.9-32.9-127.2-28.6-166.1 0.5-4.6 6.4-4 7.4-0.1z"  fill="#c2e1ff" /><path d="M-326-142.4c3.2 27.8 36.6 209.3 30.8 218.2-3.5 5.3-10.9-2.2-5.5-5.5 5.4-3.4 8.9 6.6 2.6 7.3-7.1 0.9-9.4-53.8-10.5-61.6-5.7-39.6-29.6-123.1-25-158.5 0.6-4.7 6.7-4 7.6 0.1z"  fill="#fff" /><path d="M-318-31.8c3.8 14.9 24.7 97.9 19.1 107-3.3 5.3-10.7-1.9-5.5-5.3 5.2-3.4 8.9 6.2 2.8 7.1-7.9 1.2-6.9-25.9-7.6-30.6-3.3-24.7-15.4-52.8-15.4-77.4 0-4.1 5.3-4.2 6.6-0.8z"  fill="#c2e1ff" /><path d="M-308.7-147.2c2.3 35.8 24.4 202.4 18.6 221.9-2.2 7.3-12.6-0.9-6-4.7 5.6-3.3 9 7 2.5 7.6-7.7 0.7-7.4-53.7-8.1-61.4-3.7-40.5-21.5-128.1-15-163.9 0.9-4.8 7.2-3.8 8 0.5z"  fill="#fff500" /><path d=""  fill="#005bbb" /><path d="M-291.5-193c-0.3 69.4 1.2 138.4 4.4 207.8 0.4 7.9 5.9 63.3-2.7 62.9-6.7-0.3-3.8-11 2.1-7.9 5.9 3.1-1.1 11.6-5.2 6.3-3.4-4.4-2.4-62.8-2.9-73.1-1.9-40.3-12.2-164.5-4.1-197 1.3-5.1 7.9-3.6 8.4 1z"  fill="#fff" /><path d=""  fill="#fff" /><path d="M-264.1-397.7c-3.9 31-16.2 60.2-22.7 90.6-12.2 56.5-7.8 115.3-7.3 172.7 0.1 10.9 4.8 98.3-1.4 98.3-6.4 0-4.2-10.4 1.6-7.7 5.8 2.7-0.6 11.2-4.7 6.3-4.9-5.7-3.7-71.6-3.8-83.4-0.7-63.1-6.2-128.6 6.3-190.9 5.8-28.7 16.6-56.1 22-84.8 1.2-6.7 10.3-9.7 10-1.1z"  fill="#c2e1ff" /><path d=""  fill="#005bbb" /><path d="M-256.7-225.8c-18.8 74.2-20.3 155.2-21.7 231.3-0.2 8.8 2.6 72.9-5.9 72.2-6.9-0.5-3.6-11.5 2.4-8.1 5.1 2.9 0.2 10.7-4.6 7.4-8.3-5.9-0.8-59.3-0.6-70.3 0.8-47 2.2-199.4 20.8-236 2.8-5.6 10.1-2 9.6 3.5z"  fill="#fff" /><path d="M-244.9-397.9c-3.2 42.5-25.4 81.1-33.9 122.6-11 53.7-8.8 110.1-9.5 164.7-0.2 12.5 4 116.7-2 116.6-6.5-0.1-4-10.7 1.9-7.9 5.9 2.8-0.8 11.4-5 6.4-4.8-5.9-3.6-83.3-3.6-96.3 0-68.9-3.7-142.3 13.8-209.5 7.4-28.2 20-54.8 26.5-83.3 1-4.4 0.3-15.5 5-17.9 3.5-1.9 6.8 1.1 6.8 4.6z"  fill="#c2e1ff" /><path d="M-239.6-0.7c-2.7 9.7-13.9 80.2-20.9 78.8-6.4-1.3-3.8-11.2 2.3-9.2 6.2 1.9 2.6 11.5-3.3 8.9-8.9-3.9 7-72.8 12.2-82.3 3.1-5.6 10.4-1.8 9.7 3.8z"  fill="#fff500" /><path d="M-231-177.3c-21.1 61.8-31.9 127.1-37.5 192-0.7 8.3-1 64.1-9.2 63.2-5.2-0.6-5.1-8.4 0.1-8.9 6-0.6 6.5 9 0.4 8.9-9.3-0.1-1.6-47.8-1.1-55.2 2.1-27.2 24.2-197.5 39.4-206.4 4.6-2.7 8.8 1.8 7.9 6.4z"  fill="#fff" /><path d="M-222.4-146.9c-21.8 53.2-34.2 109.1-41 166.1-1 8-2.2 60-10.5 58.9-5.2-0.7-5-8.6 0.2-9.1 6.2-0.5 6.4 9.2 0.3 9.1-7.7-0.2-3.7-14.3-3.4-18.2 6-71.3 17.1-141.4 42.9-208.4 2.9-7.6 13.9-7.6 11.5 1.6z"  fill="#005bbb" /><path d="M-213.8-38.4c-24.9 48.8-26.1 106.2-35.6 115.1-6.6 6.2-12.3-8.4-3.3-8.3 7.7 0 4.9 12.5-2.1 9.2-13.6-6.3 21.6-110.8 31.1-122.4 4.6-5.6 12 0.2 9.9 6.4z"  fill="#c2e1ff" /><path d="M-205.3-17.3c-9.5 18-28.7 91.2-32.4 94.5-5.9 5.2-12.3-6.3-4.7-8.5 8.9-2.6 7.4 13.4-0.9 9.2-13.5-6.9 21.3-89.3 27.3-100.6 3.7-7 13.2-1.7 10.7 5.4z"  fill="#c2e1ff" /><path d="M-196.8-142.6c-34.4 52.8-51.7 113.2-61 175-1.2 8-0.9 41.8-7.8 45.4-6.5 3.5-9.8-8.3-2.4-8.7 7.4-0.4 5.4 11.7-1.5 8.9-8.5-3.4 2.1-46.5 3.3-54.4 9.1-60 25.5-118.4 57.3-170.6 4.7-7.8 16.5-5 12.1 4.4z"  fill="#005bbb" /><path d="M-188.3-256c-45.4 79.7-68.2 165.9-77.7 256.9-1.1 10.8-3.1 71.1-7.1 75.6-4.7 5.4-11.7-4.1-5.2-7 7.6-3.4 8.3 11.1 0.4 8.3-8.8-3.1 1.2-62.3 2.1-71.8 6.8-71.8 19.9-145.3 48.2-212.1 7.5-17.6 16.3-43.3 29.5-57.1 5.2-5.5 12.4 1.1 9.8 7.2z"  fill="#005bbb" /><path d=""  fill="#c2e1ff" /><path d="M-166.2-398.8c14.6 70.2-27.9 119.2-54.9 179.3-14.2 31.8-22.8 65.7-30.1 99.6-3.8 17.6-15.5 128.7-19.7 133.4-4.8 5.4-11.8-4.3-5.2-7.1 7.7-3.4 8.2 11.3 0.3 8.4-8.2-3 0.1-41 0.9-48.3 14.4-136.1 30.3-157.8 86.8-273.8 8-16.5 14.1-33.9 16-52.1 1.2-11.5-4.4-29.7-1.1-39.9 1.2-3.8 6-2.8 7 0.5z"  fill="#fff500" /><path d="M-162.8-208.4c-44.1 66.2-77.8 129-92.1 208.2-2 10.9-7.5 73-11.2 77.1-5.8 6.3-12.2-7.2-3.7-7.8 7.3-0.5 5.5 11.5-1.4 8.9-7.9-3.1 0.5-36.6 1.4-43.6 11.3-89.4 39-166.8 90.2-241 2.6-3.8 5.8-11.8 11.5-11.8 5.5-0.1 7.6 5.7 5.3 10z"  fill="#fff" /><path d="M-154.6-65.6c-27.9 24-47.2 55.5-59.9 89.8-4.3 11.7-7.3 45.6-16.1 53.1-6.1 5.2-12.3-6.5-4.6-8.6 9-2.5 7.3 13.7-1 9.3-7.8-4.1 3.8-32.7 5.6-39.2 11.7-41.1 30.7-80.8 61.6-110.9 7.8-7.6 23.8-4.5 14.4 6.5z"  fill="#005bbb" /><path d="M-134.8-399.4c15.5 38.5 23.6 79.3 15.1 120.5-14.3 69.4-74 117.9-102.7 181.2-4.8 10.6-28.8 91.2-33.9 89.8-7.7-2.1-1.6-13.8 4.5-8.7 5.2 4.4-2.1 12.2-6.9 7.3-6-6.2 5.5-34 7.6-41.5 28.6-102.2 75-123.5 111.2-201.4 13.3-28.7 17.9-60.9 13.8-92.3-0.4-3.1-18.6-73.6-8.7-54.9z"  fill="#005bbb" /><path d="M-137.8 55.7c-0.8 4.7 0.4 24.1-8 22.6-6.3-1.1-4-10.8 2.1-9 6.1 1.7 2.8 11.2-3 8.8-14.3-5.8 9.4-42.7 8.9-22.4z"  fill="#fff" /><path d="M-129.5 63.4c-0.3 3.5 0.4 17.6-7.3 13.8-4.7-2.3-2.1-9.7 3-8.5 6 1.4 3.2 10.7-2.6 8.7-13.7-4.9 6.4-28.6 6.9-14z"  fill="#fff500" /><path d="M-120.2-18.4c-12.8 17.9-22.3 37.9-28.3 59-2.3 8.2-3 30.9-8.8 36.4-6.6 6.2-12.3-8.4-3.3-8.4 7.7 0 4.9 12.5-2.1 9.2-17.3-8.1 24.1-92.5 31.8-103.4 4.9-7 14.4-0.1 10.7 7.2z"  fill="#fff" /><path d="M-112.6-138.6c-52 36.3-92.3 71.9-114.6 133.2-7.8 21.3-13.3 43.4-17.7 65.6-0.8 3.9-1.2 23-9.9 17.7-4.8-2.9-1.3-10.6 4-8.8 5.3 1.8 3.5 10.1-2.1 9.5-10.4-1.2 2.9-43.4 4.7-50.9 12.1-50.4 32.9-99.4 70.6-136.1 15.3-14.9 37.7-36.3 57.8-43.9 8.9-3.4 13.5 8.1 7.2 13.7z"  fill="#c2e1ff" /><path d="M-103.4-48c-22.3 22-40.8 47.1-52.2 76.5-4.2 10.9-6.3 41.4-14.4 48.6-5.9 5.2-12.3-6.2-4.7-8.5 8.9-2.6 7.4 13.4-0.8 9.2-7.4-3.7 1.8-26.2 3.2-32 9.7-37.6 27.9-71 54.4-99.3 7.2-7.6 23.1-5.9 14.5 5.5z"  fill="#c2e1ff" /><path d="M-94.7-232.6c-28.4 69.4-101.9 99.6-135.7 188.8-11.4 30-18.5 61.5-23.7 93.1-0.7 4.6-0.8 33.4-10.6 27.9-4.8-2.7-1.6-10.2 3.7-8.6 5.3 1.6 3.8 9.7-1.7 9.2-9.9-0.8-0.5-32.9 0.5-38.7 9.7-58.8 26.8-117.3 63-165.6 25.5-34 61.8-59 85-94.9 3-4.7 7.9-21.7 16-19.1 3.6 1.1 4.5 4.7 3.5 7.9z"  fill="#c2e1ff" /><path d="M-41.2-399.8c73.6 99.8 5.5 213.7-85.4 274.4-11.6 7.8-35.6 34.3-48.4 35.8-11.3 1.4-9.5-17.4 1.3-13.9 9.3 3 3.8 17.3-5.1 13.4-15.5-6.9 16.7-28.8 21.7-32.7 43.9-34.1 90.4-57.6 115.7-110.2 17.2-35.7 27.3-79.7 18-118.9-3.4-14.5-25.6-56.6-17.8-47.9z"  fill="#005bbb" /><path d="M-41.2-399.5c50.2 68.2 30.5 165.3-24.4 225.4-21.5 23.6-48.6 39.7-74.5 57.8-8.4 5.9-42 41.7-50.1 37.8-9.8-4.7 1.3-18.9 8.3-10.5 8.1 9.8-13 16.6-12.2 3.9 1.3-19.4 119.7-85.8 149-140.6 19.2-36 30.7-81.4 22.5-122.1-1.3-6.3-26-60.1-18.6-51.7z"  fill="#fff500" /><path d="M-69.5-77.8c-31.2 29.8-62.5 58.8-79.5 99.4-3.2 7.7-14.8 60.8-22.5 55.9-5.7-3.6 0.5-12.2 5.7-8 4.5 3.6-0.1 10.8-5.2 8.2-9.4-4.6 7.7-49.7 10.6-57.7 13.7-37.8 46.3-88.8 82.4-109.3 7.7-4.4 13.5 5.5 8.5 11.5z"  fill="#fff500" /><path d="M-60.6-60.2c-19.9 27.5-36.5 57.2-39.4 91.6-0.5 6.4 3.7 48-4 45.8-5.1-1.5-2.3-9.4 2.6-7.4 4.2 1.8 2.3 8.3-2.2 7.5-7.1-1.3-5.2-26.9-5.3-32.6-1.3-39.7 12-74.9 34.1-107.4 5.4-7.9 20.6-9.5 14.2 2.5z"  fill="#fff500" /><path d="M-52.1-65.5c-19 27.9-35.2 58.3-35.9 92.9-0.1 6.8 7.3 50.5 1.2 49.4-4.7-0.9-3-8.2 1.6-6.9 3.9 1.2 2.8 7.2-1.2 6.9-6.8-0.5-7.8-26.7-8.6-32.2-5.3-39.6 6.1-75.5 27-108.9 6-9.6 23.8-17 15.9-1.2z"  fill="#005bbb" /><path d="M-38-399.7c52.5 72 25.4 177-35.9 235.7-32.8 31.4-75.8 49.6-106.7 83.3-6.2 6.8-29.4 47.3-37.1 42.6-6-3.6-1.6-13.1 5.1-10.9 7.8 2.7 2.9 14.7-4.6 11.2-10.5-4.9 7.8-27 11.2-32 41.7-62.4 120.3-83.9 158.4-149 21.8-37.2 35.4-85.8 27.5-128.9-1.2-6.6-25.4-60.6-17.9-52z"  fill="#fff500" /><path d="M-35.3-149.2c-47 53.2-118.9 74.4-156.3 137.5-10.3 17.4-29.8 85.6-34.1 89.1-7.2 6.1-12.3-9.5-2.9-8.9 9.4 0.6 2.4 15.4-4 8.5-5.7-6 5.2-31.1 7.3-38.1 25.7-86.5 72.2-116.1 141.8-165.2 13.9-9.8 25.3-24.5 39.3-33.5 7.1-4.7 13.4 4.5 8.9 10.6z"  fill="#fff" /><path d="M19.7-399.1c36.9 92.6-48.2 229.4-124.5 277.9-8.4 5.3-35.1 28.6-44.7 25-9.8-3.6-3.3-18.8 6.2-14.2 9.4 4.7 1.2 19.1-7.7 13.4-16-10.3 33.1-34.8 39.5-38.7 36.6-23 66.2-50.5 87.2-88.7 21-38 40.2-83.7 43.5-127.3 1.2-15.7-6.3-61.6 0.5-47.4z"  fill="#c2e1ff" /><path d="M27.8-399c30.3 89.8-52.7 228.4-126.3 276.1-8.4 5.4-34.9 28.2-44.6 24.4-9.9-3.9-2.8-19.1 6.5-14.1 9.4 5 0.7 19.3-8 13.3-15.6-10.6 33.2-34.2 39.8-38.3 35.2-22.5 63-50.4 83.3-87.2 21.1-38.2 40.8-83.3 46-126.9 1.8-14.7-5.7-34-2.9-47.1 0.7-3.5 5-3 6.2-0.2z"  fill="#fff500" /><path d="M-9.6-98.6c-17.5 37.7-30.8 80.7-4.2 117.7 14.3 19.8 35.4 32.8 54.6 47.3 1.9 1.4 8.5 4.6 8.2 7.1 0 0.4-0.4 0.8-0.7 0.9-5 1.5-36.3-27-41.6-31.2-26.9-21.1-46-48.6-44.4-84 0.8-18.8 6.3-48.5 18.2-63.8 4.4-5.6 11.7-0.1 9.9 6z"  fill="#fff" /><path d="M-4.4-9.2c16.7 32.6 53.1 48 80 70.6 2.3 1.9 13.4 9.5 12.8 12.6 0 0.1-0.3 0.6-0.4 0.7-1.5 1.7-21.7-18.3-24.7-20.7-19.4-15.4-41.8-27.2-59.2-45.1-4.1-4.2-10.9-10.5-12.7-16.2-0.9-2.7 2.6-3.9 4.2-1.9z"  fill="#fff500" /><path d="M3 23.1c8.1 8.1 63.7 46.4 64.4 50.1 0.1 0.3 0 0.7-0.2 0.9-1.6 2-16.7-12.6-19.2-14.3-13.6-10.4-37.4-20.6-46.9-35.1-0.9-1.3 0.8-2.5 1.9-1.6z"  fill="#fff500" /><path d="M16-179c-34.3 60.8-99.7 124.5-123.1 177.1-8.1 18.1-12.2 37.4-13.8 57.1-0.3 4.1 2.2 26.5-7.2 22.4-5.5-2.4-1.2-10.8 4-7.8 4.4 2.5 1.3 9.5-3.5 8-8.4-2.7-0.8-41.3 0.4-48.6 9.8-60.7 53.4-101.6 89.3-148.2 15.7-20.4 26.7-48.9 44.1-67.2 5.2-5.4 12.4 1.1 9.8 7.2z"  fill="#c2e1ff" /><path d=""  fill="#005bbb" /><path d=""  fill="#005bbb" /><path d="M40.6-365.8c-0.4 70.8-54.5 178.2-108.5 223.4-41.4 34.6-92.1 53.6-124.2 99.1-5.3 7.5-17.5 40-25.7 41.5-9 1.7-8.5-13.4 0.3-11.2 8.8 2.2 2.1 15.8-5 10.1-7.8-6.3 10-31.4 13.6-37.6 40-68.8 119-88.1 166.6-148.5 33.1-42 58-99.1 70.1-151.1 2-8.7 1.6-18.7 4.2-27.2 1.6-5.1 8.3-3.3 8.6 1.5z"  fill="#fff" /><path d="M45.5-8.9c8.9 8.6 97.2 72.1 88.4 83.5-1.9 2.4-5.1-1.5-2.4-2.9 3.2-1.6 3.8 4.6 0.4 3.5-8.5-2.4-23.3-28.3-30.5-35.2-17.2-16.7-37.3-29.8-55.5-45.3-1-0.9-3.5-5.7-0.4-3.6z"  fill="#fff500" /><path d=""  fill="#fff500" /><path d="M67-303.7c-35.2 56-62.4 121.1-108.9 169-38.6 39.7-92.4 60.7-127.6 104-14.1 17.4-25 37.2-33.2 58-1.8 4.5-6.2 29.1-15.2 21.8-5.6-4.6 2-13.1 7.1-7.9 5.1 5.1-3.4 12.8-7.9 7.1-5-6.2 6.1-26.3 8.6-32.7 36.5-91.6 102.4-102.5 163.7-166 44.6-46.1 66.8-107.8 102.8-159.9 4.7-6.9 14.1-0.5 10.6 6.7z"  fill="#c2e1ff" /><path d="M75.5-333.2c-30.7 60.9-73.9 148.6-122.2 196.1-42.6 41.7-101.1 62.1-136.2 112.1-5.4 7.7-18.3 41.9-26.3 43.5-8.9 1.8-8.6-13.2 0.2-11.1 8.8 2.1 2.3 15.6-4.8 10-7.8-6.2 9.6-31.5 13.1-37.7 36.7-65.1 106.1-86.3 155.2-138.3 48-50.8 75.2-120.6 110.4-180.2 4-6.8 13.3-1.5 10.6 5.6z"  fill="#c2e1ff" /><path d=""  fill="#005bbb" /><path d="M90.6-397.9c-7 60.4-89 206.3-131.4 251.3-23.5 25-52.4 42.1-81 60.7-7.5 4.9-32.4 29.8-40.8 24.5-11.5-7.3 7.7-21.1 11-7.9 3.3 13.2-20.1 10-13.4-1.8 11.2-19.9 105-69.1 137.1-112.2 33.2-44.7 83.4-134.3 101.5-186.7 3.4-9.7 4-21.2 7.9-30.5 2.2-5.4 9.3-2.6 9.1 2.6z"  fill="#fff" /><path d="M96.8 64c1.7 1.7 10.9 8.2 7.7 10.7-1.7 1.4-3.8-1.5-1.9-2.6 1.9-1.2 3.6 1.9 1.6 2.8-5.9 2.9-11.7-14.5-7.4-10.9z"  fill="#fff" /><path d="M108.7-173.8c-8.3 100.4 101.4 139.1 160.8 198.3 5 5 41.7 44.4 34.1 50.8-3.9 3.3-6.6-5.1-1.6-4.8 4.3 0.3 2.4 7.1-1.4 5.1-2.4-1.3-22.3-36.8-27.8-43.1-44.6-51.2-116-77.2-153.1-134.8-11.6-18-26-50.9-19.7-72.9 1.5-5.2 8.3-3.4 8.7 1.4z"  fill="#fff500" /><path d="M118.1-262.4c-37.9 55.1-72.2 135.5-29.4 197.6 31.6 46 85.3 75.3 121.1 118.7 1.7 2.1 18.6 20.1 13.5 21.5-9 2.4 7.9-6.3 0.7-0.4-2.4 2-27.8-31.9-31.2-35.9-46.3-53.1-126.8-89.3-131.8-167.4-2.4-38 9.7-76.1 27.3-109.4 28.8-54.4 30.9-26.8 29.8-24.7z"  fill="#c2e1ff" /><path d="M125.6-180c-1.5 29.1 8 57.1 25.4 80.2 42.4 56.1 114.6 81.4 153.3 141.4 2.9 4.4 19.9 30.1 14 34.1-4.1 2.8-7.1-4.8-2.3-5.6 5.7-0.9 3.5 8.9-1.2 5.6-3.4-2.3-20.2-41.7-26.7-50-42.1-54.1-112.9-79.8-150.4-137.6-11.1-17.1-25.8-48-20.6-69.1 1.3-5.1 8-3.6 8.5 1z"  fill="#005bbb" /><path d="M121.2-396.8c-16.4 56.3-55.5 101.7-84.6 151.6-22 37.6-75.4 137.4-118.6 151.1-11.6 3.7-13.5-16.5-1.3-14.9 12.1 1.5 5.3 20.6-5.1 14.1-14.2-8.9 18-26.6 23.4-31.2 24.3-20.7 43.7-45.8 60.5-72.9 29.4-47.8 96.7-147.7 113.3-194.6 2.3-6.6 14.9-15.9 12.4-3.2z"  fill="#c2e1ff" /><path d="M143.6-380.3c-22.7 47.2-57.9 85.4-86.4 128.8-48.6 74.2-70.8 123.1-131.5 192.5-6.7 7.6-40.3 60-47.1 56.1-8.2-4.7 2.3-16.3 7.8-8.6 5.5 7.7-8.9 13.8-10.7 4.6-3.4-17.9 88.2-116.5 102.7-137.5 26-37.6 45.5-79.1 70.3-117.4 27.3-42.2 59.3-80.1 84.3-123.9 3.9-6.8 13.1-1.7 10.6 5.4z"  fill="#005bbb" /><path d="M138.2-396.6c-19.7 52.5-56.2 93.9-86 140.5-27.6 43-49.1 90-82.2 129.5-9.5 11.3-64.9 74.8-78.3 65.8-11.4-7.6 8.2-21.2 11.3-7.8 2.6 11.4-16.9 11.6-14.4 0.1 2.4-11.4 28.4-26 37.1-33.6 23-20.2 43.3-42.7 60.4-68.1 20.7-30.8 37.3-64.1 57.2-95.5 26.5-41.9 60-79.4 80.3-125.1 1.9-4.3 3.9-15.2 10.9-13.3 3.5 0.9 4.6 4.3 3.7 7.5z"  fill="#005bbb" /><path d="M156-9.8c12 9.9 79.9 72.2 79.8 83.1 0 3-4.9 1.9-3.6-0.8 1.3-2.7 5.3 0.3 3 2.3-2.3 1.9-29.3-33.1-33-37.1-14.2-15.7-29.4-30.4-45.5-44.1-0.4-0.4-3.8-5.4-0.7-3.4z"  fill="#fff" /><path d="M169.1-272.5c-30.1 61.6-39 123.8 9.9 178.8 34.2 38.5 80.3 64.1 113.9 103.3 5.7 6.7 45 59.8 33.4 66.6-4.6 2.7-7.3-5.7-2-6.2 6.2-0.6 3.2 9.8-1.8 5.9-5.2-4-7.1-21.6-9.9-27.9-7.1-15.9-17-30.3-28.4-43.4-49.4-56.5-134.6-91.6-148.4-172.7-6.3-37.4 5.4-76.4 22.7-109.4 3.6-6.9 13-2 10.6 5z"  fill="#fff" /><path d=""  fill="#fff500" /><path d="M181.4-20.7c10.6 8.1 107.4 83.8 96.6 95.7-2.4 2.6-5.8-2.2-2.5-3.6 3.8-1.6 4 5.6 0.1 4.1-9.4-3.5-24.9-32.8-33-41-17.8-18.1-37.4-34.5-57.4-50-1.7-1.3-5.6-6.3-3.8-5.2z"  fill="#fff500" /><path d="M193.1-174.6c11.5 100.7 124.5 146.3 144.9 243.9 1.5 6.9-6.2 10.2-6.6 4-0.5-8 12.4-1.3 5.5 2.9-7.3 4.5-8-15.8-8.7-18.5-4.2-16.8-11.2-32.7-20.2-47.5-29.4-48.3-77.3-82.6-104.4-132.4-7.4-13.7-19.4-36-18-52.1 0.4-4.6 6.3-4.2 7.5-0.3z"  fill="#005bbb" /><path d="M203.2-327.6c-30.9 69.5-72.6 142.4-24 214.5 37 54.9 100.8 85.4 135 142.9 2.2 3.7 16.6 25.6 9.7 27.7-3.3 1-5.4-3.7-2.3-5.5 3-1.7 6.1 2.5 3.5 4.9-5.4 4.9-9.6-13.7-10.6-15.9-8.9-19.5-21.9-36.8-36.6-52.4-49.4-52.8-124.6-93.1-130.5-173.1-2.8-37 23.6-120.3 45.9-149.1 4.3-5.6 11.7-0.1 9.9 6z"  fill="#fff" /><path d="M210.6-187.1c-0.4 26.3 6.1 52 18.2 75.3 28.7 55.2 81.9 94.2 103.8 153.6 2 5.3 13 31.9 6.1 35-5.4 2.4-7.4-7.2-1.5-7.2 6.9 0.1 2.3 11.2-2.6 6.4-3.2-3.1-14.1-49.7-19.4-59.8-27.1-52-76.1-89.3-99.6-143.4-7-16.1-17.3-42.8-13.3-60.7 1.1-5 7.7-3.7 8.3 0.8z"  fill="#fff500" /><path d="M215.7 13.1c16 14 50 38.6 55.7 60 0.9 3.3-4.7 3.5-4.1 0.2 0.7-3.9 6.5-0.3 3.4 2-2.9 2.1-20.9-24.6-24.1-28-10.2-11.5-43.5-43-30.9-34.2z"  fill="#005bbb" /><path d="M224.3 25.1c9 8.4 43.5 35.8 42.9 48.6-0.2 3.3-5.5 1.9-3.9-1 1.5-2.9 5.7 0.6 3.1 2.6-3.5 2.7-15.7-17.9-18.1-20.8-1.1-1.3-31-34.8-24-29.4z"  fill="#c2e1ff" /><path d="M233.1 46c3.9 4.2 24.4 23.1 22.4 28.3-0.9 2.5-4.8 0.9-3.6-1.5 1.4-2.8 5.5 0.4 3 2.4-3.5 2.8-9-8.8-10.3-10.5-1.2-1.6-16.5-23.1-11.5-18.7z"  fill="#c2e1ff" /><path d="M187.6-395.7c-44 77.1-109 143.6-140.5 227-7 18.5-13 37.7-16.2 57.4-1 6.1 1 27.8-3.4 31.2-5.9 4.5-9.4-7.9-2.1-7.1 6.3 0.6 3 10.6-2.4 7.4-6.4-3.8-2.2-26.1-1.5-32.2 10.3-90.1 68.2-155.1 117.2-226.5 13.4-19.5 23.1-47.5 39.1-64.4 5.2-5.5 12.4 1.1 9.8 7.2z"  fill="#c2e1ff" /><path d="M180.9-395.3c-41.1 74.6-101.9 136.3-137.3 214-8.5 18.6-23.9 74.7-30.6 77-7.7 2.8-9.5-10.6-1.3-9.9 8.1 0.7 4.1 13.6-3 9.6-9.8-5.6 12.9-54 16.4-62.7 28.2-70.1 75.1-121.9 115.8-184.1 10.2-15.5 17.7-37.5 30.2-51 5.1-5.5 12.3 0.9 9.8 7.1z"  fill="#fff500" /><path d="M262.5-245.5c-16.8 58-29.8 105.9 1.3 162.2 19.6 35.4 88.8 115.4 80.3 157.3-1.2 5.9-10.4 1.9-6.9-3 4.2-5.7 10.8 4.8 3.8 6-4.8 0.9-14.5-47.3-17.5-54.3-24.8-59.2-80-104.2-88.2-170.4-3.7-30.1 1.8-75.5 17.6-102 3.3-5.6 10.7-1.4 9.6 4.2z"  fill="#005bbb" /><path d="M267.2-50.1c21.4 24.2 78 88.8 72.2 124.1-0.9 5.8-10 2.2-6.7-2.6 3.3-4.8 10 2.2 5 5.2-7.3 4.4-7.8-15.3-8.4-18-3.4-14.2-8.7-27.9-15.6-40.8-13-24.3-31.1-44.8-49-65.7-1.4-1.6 0.9-3.5 2.5-2.2z"  fill="#c2e1ff" /><path d="M277.7-100.9c3.9 17.5 88.8 170.1 67.5 178.2-6.9 2.6-6.6-10.1 0.1-7.3 5.8 2.4-0.2 10.9-4.4 6.3-7.1-7.8-7.1-39.9-11.1-51.3-13.3-38.2-38.6-70.7-53.3-108.4-9.3-24 0.6-18.8 1.2-17.5z"  fill="#c2e1ff" /><path d="M284.7 56.9c1.9 2.7 14.1 16.6 8.7 19-3.1 1.4-5.1-3.6-1.9-4.7 3.2-1.1 4.7 4.1 1.4 4.9-7.9 1.7-13.3-25.2-8.2-19.2z"  fill="#fff" /><path d=""  fill="#fff500" /><path d="M305.3-223c-25.9 48.1-47.6 86.9-25.1 141.8 15 36.6 75.8 115.5 66.7 155.2-1.4 6.1-10.7 1.6-6.9-3.3 4.4-5.8 10.9 5.1 3.7 6.3-2.6 0.4-18.6-62-22.4-70.4-23.4-50.7-66.1-97.5-59.6-157.1 1.9-17.7 20.1-71 35-80.6 5.7-3.7 10.9 2.7 8.6 8.1z"  fill="#fff" /><path d="M312.2-314.5c13.5 90.3-65.9 132.6-40.3 216.1 16.1 52.7 57.1 93.8 70.5 147.8 1.1 4.3 8.9 27.4 0.5 27.8-6.2 0.3-4.5-9.8 1.3-7.5 5.7 2.3-0.1 10.8-4.3 6.3-7-7.5-6.8-37.2-10.6-48-19.2-55.6-67.3-100.8-71.2-161.7-3.3-50.6 32.4-84.3 44.6-130.3 4.6-17.4 0.1-33.4 2.1-50.4 0.5-4.6 6.5-4 7.4-0.1z"  fill="#fff500" /><path d="M320.4-330.8c6.9 30 13.4 59.2 2 89.2-18.8 49.5-59.6 82.3-46.1 140.3 12.5 53.9 53.8 95.9 66.9 150 1.1 4.5 8.9 28.2 0.5 28.5-5.3 0.2-5.2-8.2 0.1-7.9 6.2 0.4 3.3 10.4-2.1 7.4-6.2-3.4-11.2-49.6-14.9-58.9-21.4-54.5-69-103.3-61.2-165.8 5.7-46 45.7-76.5 53.6-121.1 3.8-21.8-5.8-40.1-5.6-60.9 0.1-4.2 5.5-4.2 6.8-0.8z"  fill="#fff" /><path d="M328.9-50.8c2.4 12.9 41.4 123.4 24.5 128.4-6.4 1.9-7.2-9.2-0.6-8.2 6.6 1 2.7 11.4-2.9 7.7-5.6-3.7-3.2-29.5-4.2-36.4-4-27.6-24.3-65.4-23.7-90.8 0.1-4.3 5.6-4.3 6.9-0.7z"  fill="#c2e1ff" /><path d=""  fill="#fff500" /><path d="M277.4-396.3c-16.5 34.2-52.1 207.6-47.5 244 2.9 22.5 11.4 43.7 22.9 63.2 0.9 1.5 14 18.5 7.4 17.8-9.9-1.1 10.3-3.3 0.8-0.1-3.5 1.2-6.4-6.7-7.6-8.5-50.8-76.6-27.9-128.6-11.7-210.7 7.1-36.3 9.8-73.3 24-107.8 3.2-7.8 14.5-7 11.7 2.1z"  fill="#fff" /><path d="M354.9 50.6c0.6 4.9 6 27.2-2.7 26.8-5.7-0.2-4.9-9.2 0.8-8.3 5.7 0.8 3.9 9.7-1.7 8.2-13.2-3.4 0.6-40.2 3.6-26.7z"  fill="#005bbb" /><path d="M364.5-149.5c-36.4 30.5-46.1 67.4-33.6 112.8 2.6 9.5 36.1 115.1 20.8 114.6-5.7-0.2-4.9-9.2 0.7-8.4 4.8 0.7 4.6 8-0.3 8.4-7.4 0.5-7-38.3-8.2-44.9-8.7-47.3-38.9-96-23.2-144.9 4.7-14.5 20.6-46.2 37.1-50.3 7.9-2 11.3 7.4 6.7 12.7z"  fill="#c2e1ff" /><path d="M370.1-313.2c69.1 114.3-69.5 121.8-68.4 215.7 0.6 52.3 37.6 97.2 47 148.1 0.9 4.7 7.3 26.6-1.2 26.6-6.4 0-4.2-10.4 1.7-7.7 5.9 2.7-0.6 11.2-4.8 6.3-7.2-8.4-5.9-41.2-9.5-53.2-15.4-51.4-55.6-102.9-36.8-159 14.4-43.1 61.1-61.1 78.2-101.6 5.5-13 6.4-27.3 3.1-41.1-2.7-11.5-16.4-43.5-9.3-34.1z"  fill="#fff" /><path d="M379.4-290c35.8 85.9-81.5 113.1-79.4 192.3 1.4 52.3 38.5 96.9 48.2 147.7 0.9 4.8 7.6 27.2-1 27.3-5.5 0-5.1-8.6 0.4-8.1 6.4 0.6 3.1 10.8-2.5 7.5-6.2-3.6-8.4-46.8-11.2-55.8-15.7-50.3-54.7-100.1-38.6-155.4 12.4-43 55.1-61.4 74.9-99 8.1-15.4 2.9-69.5 9.2-56.5z"  fill="#005bbb" /><path d="M390-243.8c-9.6 63.9-93.2 81.7-87.5 153.6 4.6 57.4 46.1 104.7 49.1 163.3 0.5 8.9-13.7 1.4-6.1-3.2 6.5-3.9 8.6 9 1.2 7.5-5.7-1.2-8.9-45.1-11-52.6-14.6-50.8-54-100.9-38.4-156.3 10.7-37.9 43.9-57.1 67.4-85.9 6.2-7.6 10.5-26.8 17.5-31.7 4.1-2.8 8.3 1.1 7.8 5.3z"  fill="#fff" /><path d="M398.5-6.1c-2.1 10.3-11 87.1-21 84.3-6.6-1.9-3.1-12.2 3.3-9.6 6.4 2.6 1.8 12.4-4.3 9.2-6.6-3.5 8.5-77.9 12.6-86.9 2.5-5.5 9.8-2.4 9.4 3z"  fill="#005bbb" /><path d="M407.1 10.3c-2.4 9.2-13.3 71.9-23.5 68.4-6.8-2.3-2.5-12.8 4-9.8 6.5 3.1 1.1 13-5 9.3-5.9-3.6 10.1-66.4 15.7-72.7 3.8-4.3 9.5-0.2 8.8 4.8z"  fill="#c2e1ff" /><path d="M415.9-106.8c-33.5 40.9-38.5 79.7-39.5 131.1-0.1 7 1.5 55.4-8.7 53.5-5.4-1-4.8-9.2 0.7-9.4 6.4-0.2 6.2 10-0.2 9.5-8.6-0.7-0.7-44.2-0.5-51.7 1.4-45.9 0.1-88.8 27.7-128.1 3.2-4.5 8.1-14.7 14.1-15.7 6.5-1.1 9.4 6 6.4 10.8z"  fill="#005bbb" /><path d="M424.3-161.6c-29.7 37.7-73.1 58.9-73.6 112.8-0.2 19.5 19.8 114.3 11.2 124.8-4.5 5.4-11.6-3.8-5.3-6.8 7.4-3.6 8.4 10.7 0.6 8.2-6.4-2-4.2-49.8-5.3-58-5.2-39.5-18.1-80.8-0.2-119.1 8-17.1 48.4-66 64.9-72.6 7-2.8 11.3 5.4 7.7 10.7z"  fill="#fff" /><path d="M478.6-399.4c49.9 39.8 85.7 87 121.5 139.5 2.1 3.1-4.3 4.6-3.7 0.8 0.6-3.8 6.3-0.4 3.2 2-2.6 2-52.3-70.2-58-77.7-18-23.5-38.9-43.1-62.1-61.4-0.3-0.2-3.9-5-0.9-3.2z"  fill="#005bbb" /><path d="M498.4-399.3c41.3 33.6 72.3 74.5 101.7 118.6 2.1 3.2-4.3 4.6-3.7 0.9 0.6-3.8 6.3-0.4 3.2 1.9-2.5 1.9-43.1-57.7-48-64.1-15.5-20-33-37.8-52.5-54-0.4-0.3-3.8-5.3-0.7-3.3z"  fill="#c2e1ff" /><path d="M450-2.7c-4.5 10.5-34.2 86.9-44.7 81.1-7-3.9-0.3-14.6 6.2-10 6.6 4.6-1.3 14.6-7.3 9.3-6.9-6 29.1-77.4 35.9-86.2 4.3-5.6 11.6-0.2 9.9 5.8z"  fill="#c2e1ff" /><path d="M492.4-399.1c44.1 35.6 76.3 78.9 107.9 125.7 2.1 3.2-4.3 4.6-3.7 0.8 0.6-3.8 6.3-0.4 3.3 1.9-2.5 1.9-46-61.7-51.2-68.5-15.5-20.3-33.1-38.3-52.8-54.5-1.7-1.4-5.3-6.6-3.5-5.4z"  fill="#fff500" /><path d="M464.6 76.2c-8.4 7.6-9.7-11.2-1.2-6.4 9.6 5.5-9.9 12.6-6.1 2.3 2.2-5.9 10.7-2.9 8.1 3z"  fill="#005bbb" /><path d=""  fill="#c2e1ff" /><path d="M479.3-397.8c42.3 33.5 72.5 71.5 103.6 115.2 3.5 4.9 16.2 17.3 16.5 23.1 2.1 48.8 3.1 97.6 4.1 146.5 0.1 5.8 0.1 69.3 0 88.6 0 4.7 2.9 26.7-4.4 29.7-8.7 3.5-8.8-12.8-0.1-9.4 8.8 3.4-2.4 15.4-6.4 6.8-4.9-10.5 0.8-46.3 0.8-53.8 0-20.6-0.3-41.3 0-61.9 0.6-48.1 2.6-96.1 2.7-144.1 0-14.9-90.6-117.1-107.3-130.6-0.9-0.7-13.2-12.3-9.5-10.1z"  fill="#fff500" /><path d="M559.6-399.5c8.3 7.2 39.6 29.2 40.5 40.2 0.2 2.5-4 1.9-3.1-0.4 0.9-2.4 4.4-0.1 2.6 1.7-2.7 2.7-15.1-14.1-17.2-16.3-0.8-0.9-29.8-30.1-22.8-25.2z"  fill="#c2e1ff" /><path d="M497.1-297.1c33 38.9 86.1 96.8 97.8 146.8 11.9 51-6.2 108.8-18.7 158.1-3 11.9-13.7 69-27.4 71.2-10.8 1.7-6.6-16.9 2.5-10.7 9 6.2-6.8 16.8-9.1 6.1-2.6-12.1 16.3-42.2 20-55 14-47.7 30.4-103.2 27.4-153.3-3.5-60.2-55.6-111.3-91.4-156.2-0.4-0.6-5.9-11.5-1.1-7z"  fill="#c2e1ff" /><path d="M509.2-52.9c-5 24.6-40.6 125.8-64.7 132.9-10 3-11.2-14.3-0.9-12.8 10.3 1.5 4.2 17.7-4.5 12-10.2-6.7 22.2-43.1 26.9-50.9 10-16.5 31.5-82.2 34.4-85.6 3.6-4.2 9.2-0.4 8.8 4.4z"  fill="#fff500" /><path d="M513.5-395.8c14.8 12.4 88 88 87.2 103.5-0.2 3.3-5.4 1.8-3.9-1 1.5-2.9 5.7 0.6 3.1 2.6-2.7 2.1-35.8-47-39.9-52.5-13.7-17.9-29-34.3-45.9-49.2-0.5-0.5-3.7-5.5-0.6-3.4z"  fill="#005bbb" /><path d=""  fill="#005bbb" /><path d=""  fill="#005bbb" /><path d=""  fill="#fff" /><path d="M548.2-346.1c70.6 86 52.3 76.8 55.4 234.4 1.3 65 1.7 120-13.3 181.4-1.4 5.5-11.8 14.7-11.5 3.6 0.5-13.5 19.2 3.6 5.8 5.3-11.7 1.5 4.5-50.1 6.1-57.3 8.9-42.3 2.5-91 2.9-132.9 0.5-54 2.1-107.9 2-161.9 0-7.9-18.5-26.5-23.1-33.2-1.4-2.1-32.4-47.5-24.3-39.4z"  fill="#005bbb" /><path d="M560.5 48c-2.2 6.1-9.9 36.2-20.1 30.4-7-4-0.1-14.8 6.5-10.1 6.6 4.8-1.5 14.7-7.5 9.3-11.5-10.4 27.7-55.4 21.1-29.6z"  fill="#005bbb" /><path d="M565.3-267.1c7.6 10 33.4 33.3 34.1 45.7 5.6 98.9 12.7 202.2-24.8 296.6-3.8 9.6-16.4-2-7.7-6.6 7.7-4 11.5 9.8 2.8 10.3-12.6 0.7 5.3-42.3 7-48.6 14.5-56.3 15.4-84.4 16.6-146.1 0.7-34.1 2.7-68.2 3-102.3 0.1-7.6-16.1-23.6-20.7-29.5-4.5-5.8-15.5-24.8-10.3-19.5z"  fill="#005bbb" /><path d="M577.3-10.8c-3.3 14.1-20.6 84.3-31.4 89.6-8.5 4.2-12.2-11.1-2.7-11.4 9.5-0.2 6.4 15.2-2.3 11.5-10.1-4.4 7-29.3 9.5-35.7 5.9-15.1 7.9-46.9 18.1-58.6 3.7-4.3 9.4-0.3 8.8 4.6z"  fill="#005bbb" /><path d="M585.9 68.4c-6.8 25.5-16.1-5-4.6 0.3 10.5 4.9-6.9 16.6-7.5 5.1-0.6-11.1 13.7-16.1 12.1-5.4z"  fill="#fff500" /><path d="M592.7-153.7c14.7 53.4-5.3 116.5-19 168.2-2.6 9.8-15.1 66.7-27.8 64.5-9.2-1.6-3.3-16 4.4-10.6 7.7 5.4-3.7 15.9-8.5 7.8-1.5-2.6 14.8-32.1 29.7-95.6 7.8-33.4 16.9-68.1 17.3-102.6 0.1-9.1-5-23.6-2.7-31.9 1-3.6 5.5-2.9 6.6 0.2z"  fill="#c2e1ff" /><path d="M601.2-162c3.6 69.7-6.4 120.9-24.2 187-2.4 8.7-11.9 55.3-22.9 53.9-9-1.2-3.8-15.4 3.8-10.5 7.7 4.9-3 15.6-7.9 7.9-0.3-0.5 19.4-61.5 26.8-93.1 5.8-24.6 13.1-49.7 16.5-74.8 3.2-23.5-4.1-47.8 1.3-71.2 0.9-4 6.1-2.9 6.6 0.8z"  fill="#fff500" /><path d="M603.2 71.1c7.6 10.6-14 9.7-7.5 0.6 7.5-10.4 13.2 12.9 1.8 7.3-6.5-3.2-3.5-12.8 3.7-9.9z"  fill="#fff500" /><path d=""  fill="#005bbb" /><path d="M603.6-24.5c-3.6 14.6-18.9 96.6-26.5 102-6.9 4.9-12.5-8.1-4.1-9.7 8.4-1.6 7.9 12.6-0.4 10.5-9.8-2.5 2.4-27.4 3.9-32.9 6-22.4 6.9-53 17.5-73.5 2.9-5.6 10.2-2 9.6 3.6z"  fill="#fff" /><path d="M603.7-10c-2.5 10.8-16.4 92.1-26.9 88.5-6.8-2.3-2.5-12.8 4-9.7 6.5 3.1 1.1 13-5 9.2-6.5-4 13.7-82.1 18.4-91.5 2.8-5.6 10.1-2.1 9.5 3.5z"  fill="#fff" /><path d=""  fill="#fff500" /><path d=""  fill="#005bbb" /><path d=""  fill="#c2e1ff" /><path d=""  fill="#fff" /><path d=""  fill="#fff500" /><path d=""  fill="#005bbb" /><path d=""  fill="#005bbb" /></svg>