<svg width="1200" height="675" viewBox="-500 -500 1200 675" xmlns="http://www.w3.org/2000/svg"><path d="M-500-500h1200v675h-1200z" fill="#000"/><path d=""  fill="#c2e1ff" /><path d=""  fill="#fff" /><path d=""  fill="#fff500" /><path d=""  fill="#fff" /><path d=""  fill="#fff" /><path d=""  fill="#c2e1ff" /><path d=""  fill="#fff" /><path d="M-396.1-266.9c39.3 71.1 49.7 136.5 19.6 213.4-3.3 8.5-10.9 40.6-20.6 42.8-9 2-11.4-12.4-2.2-13.4 9.2-1 10 13.6 0.7 13.5-14.8 0 0.3-25.7 2.3-30.5 13.5-32.8 27.3-65.9 29.1-101.8 3.4-69.2-22.7-78.2-34.3-121.8-0.9-3.4 3.5-4.7 5.4-2.2z"  fill="#c2e1ff" /><path d=""  fill="#fff" /><path d="M-394.5-163c2.3 10.4 11.9 75.2-3.5 77.1-7.9 0.9-8.6-11.5-0.7-11.6 7.9-0.1 7.3 12.4-0.6 11.6-10.9-1.1-2.1-29.4-1.7-36 0.6-11.8-5.2-31.1-1.8-41.6 1.5-4.5 7.2-3.4 8.3 0.6z"  fill="#fff500" /><path d=""  fill="#fff" /><path d="M-380.7 47.7c-3.6 5.8-10.7 30-20.9 24.7-7.2-3.7-2.9-14.9 4.9-12.9 9.1 2.4 4.6 16.6-4.3 13.2-11.2-4.3 3.8-31.2 9.8-35 6.9-4.4 13.2 3.4 10.5 10z"  fill="#fff" /><path d="M-373.3-340.2c10.7 39.3 35 73.3 45.5 112.9 21.1 79-0.7 141-41.3 208.6-5 8.3-20.4 48-30.5 46.4-8-1.3-7.4-13.4 0.7-13.9 9.5-0.6 9.6 14.4 0.1 14-8.7-0.4-6.4-9.1-4.2-14.1 25-55.1 67.9-101.5 73.4-164.1 6.7-75.2-29-120.9-50.9-187.4-1.6-4.8 5.2-6.7 7.2-2.4z"  fill="#005bbb" /><path d=""  fill="#fff" /><path d=""  fill="#c2e1ff" /><path d="M-340.1 78.2c-12 11-22.9-8.6-10.3-12.9 17.9-6.2 10.8 27.4-3.1 14.4-17.8-16.5 30.2-22.2 13.4-1.5z"  fill="#005bbb" /><path d="M-329.8-9.9c-17 16.6-33.7 33.6-46.9 53.5-4.5 6.9-12.2 30.3-20.5 31.8-10.8 2-10.2-16.3 0.5-13.5 10.7 2.8 2.4 19.1-6.2 12.1-16.3-13.4 49.3-89.4 62.6-97.4 9-5.4 16.3 6.2 10.5 13.5z"  fill="#c2e1ff" /><path d="M-322.3-328.2c28.9 77.1 47.2 175.2 8 252.2-14.2 27.8-34.9 51.4-52.7 76.8-5.6 8-22.9 48.5-32.8 46.9-11-1.8-4.2-18.9 5-12.7 10.8 7.3-7.9 20.1-10.8 7.3-3.2-14.4 86-129.1 96-169.1 15.8-63.6 3.9-136-18.4-196.4-1.8-4.8 2.5-11.1 5.7-5z"  fill="#fff" /><path d="M-309.1-95.4c-14.1 38.7-42.6 69.2-64.6 103.3-4.6 7.1-17.5 42-28.3 36.4-8.4-4.4-0.7-17.3 7.2-12 7.9 5.3-1.2 17.3-8.4 11.2-10.1-8.6 17.5-45.3 22.9-53.6 5.9-9.1 59.7-92.5 60.6-93.1 5.8-4.8 12.4 1.6 10.6 7.8z"  fill="#fff" /><path d="M-300.1-180.1c2.5 70.8-28.3 118.4-66.6 174.7-7.2 10.7-17.9 41.2-28.6 47-9.8 5.2-14.8-12.6-3.6-13.2 11.1-0.6 8.2 17.6-2.2 13.5-17.6-7 61.7-113.4 68.7-126.4 19-35.3 18-88.6 22.8-97.8 2.5-5 8.9-2.5 9.5 2.3z"  fill="#fff" /><path d="M-289.3-149.3c-5.4 62.1-40 102.6-75.2 150.8-5.8 8-27.3 54.5-37.4 49.2-9.8-5.2 2.1-19.3 8.8-10.5 6.8 8.8-10 16.6-12.4 5.8-4-18 56.3-90 68.1-106.3 25.4-34.9 32.9-85.6 37.9-92.9 3.5-5.1 10.2-1.5 10.2 3.9z"  fill="#c2e1ff" /><path d="M-280.2-311.6c11.3 69.6 14.7 177.8-20.5 240.9-15.9 28.6-39.6 51.4-59.8 76.8-7.5 9.4-26.8 52.4-36.9 54.2-9.4 1.6-11.1-13.3-1.6-13.9 11.1-0.7 8.2 17.5-2.1 13.5-11.5-4.5 3.7-25.5 6.7-31.1 27.9-50.6 78.8-86.3 97.3-142.2 16.6-50.3 14.1-110 11.3-162.2-0.6-11.3-4.4-24.7-3.3-35.9 0.6-5.5 7.6-4.9 8.9-0.1z"  fill="#fff500" /><path d="M-266.8-398.9c12.1 107.1 23.2 283.9-52.7 368.9-6.5 7.3-24 33.7-34.9 32.1-15.4-2.2-2-25.6 7.7-13.5 9.7 12.2-16.2 20-14.8 4.5 1.2-13.5 28.7-33.2 37.5-43.2 20.4-23.2 35-49.2 41.7-79.6 18-82.1 17.3-182.4 6.7-265.4-0.8-6.6 6.8-11.8 8.8-3.8z"  fill="#005bbb" /><path d="M-257.1-398.7c8.4 89.4 10.5 280.8-45.7 353-5.3 6.8-17.5 26.9-27.4 25.3-13.3-2.2-4.9-23 6.2-15.4 13 8.9-9.8 24.2-13.1 8.8-2.3-10.7 21.6-28.5 27.7-36.5 17.9-23.3 28-50.1 32.7-79 13.1-82 18.8-169.9 10.5-252.6-0.7-6.8 7.3-11.7 9.1-3.6z"  fill="#fff" /><path d="M-248.6-317.8c-1.2 60.6-7.3 187.1-32.4 239.9-18.7 39.3-53.6 65.4-80.8 98.3-6.8 8.2-29.2 53.6-37.9 52.3-9.3-1.4-6.4-15.9 2.7-13.5 9.1 2.4 4.6 16.5-4.2 13.2-11.6-4.4 3.8-26.1 6.9-31.8 28.5-51.9 84.1-84.1 107.1-139 21.2-50.7 18.6-112.2 24-166.1 1.4-14.4-2.2-43.8 4.8-56.1 2.9-5.1 9.4-2.2 9.8 2.8z"  fill="#fff" /><path d="M-237.9-124.2c-11.6 98.4-63.4 105.4-121.1 169.1-5.9 6.5-23.1 40.7-33.2 34.6-9.9-6 3.4-19.9 9.8-10.3 6.4 9.6-11.5 16.6-13.2 5.2-4.5-28.6 86.2-94.1 105.5-113.5 38-38.1 29.6-72.2 41.9-89.2 3.7-5.1 10.4-1.3 10.3 4.1z"  fill="#fff500" /><path d="M-227-17.8c-7.6 13.2-17.9 24.9-29.2 34.9-11.7 10.4-90.1 71.7-98.6 62.1-7.7-8.8 6.8-20.2 13.5-10.6 6.7 9.6-9 19.3-14.6 9.1-8.1-14.8 38.8-40.7 48.5-47 16.6-10.8 33.7-21.2 48.3-34.7 6.6-6.1 15.3-23 23.8-25.4 7.2-1.9 11.2 5.8 8.3 11.6z"  fill="#fff500" /><path d="M-217.1-64.4c-11.2 53.5-52.3 82-95 110.3-9 6-44.2 42.4-53 33.7-9.4-9.2 9-21.1 13.6-8.8 4.6 12.3-17 15.4-16.1 2.3 1.4-18.8 71.8-59.7 87.6-71.5 44.4-32.9 37.3-55.4 52.4-71.8 4.6-5.1 11.4-0.1 10.5 5.8z"  fill="#005bbb" /><path d=""  fill="#fff500" /><path d="M-196.6-317.6c-9.9 43.3-25.3 85.2-31.9 129.3-7 46-4.2 95.6-28.2 137.2-29.3 51-89.3 72.6-120.3 122.4-6.8 10.9-23.8 9.3-16.1-1.8 11-15.6 20 19.1 2.8 10.8-10.5-5.1 2.4-20.4 5.9-25.7 32.3-50 94.6-72.6 121.9-125.7 24.9-48.2 18.2-108.4 30.1-160.5 3.9-17.2 15.5-80.4 25.2-91.5 4.5-5.1 11.3-0.3 10.6 5.5z"  fill="#c2e1ff" /><path d="M-186.2-16.1c-5.4 21.7-57.4 108.2-75.1 97.1-10.1-6.4 0.8-21.8 10.1-14.4 9.4 7.4-3.1 21.6-11.6 13.2-11.1-10.9 24.3-35.6 30.9-43.2 9.1-10.4 31.2-56.9 36.3-60.1 5.4-3.3 10.4 2 9.4 7.4z"  fill="#c2e1ff" /><path d=""  fill="#fff" /><path d="M-166.3-26.4c-1.4 23.4-34.1 113.6-51.4 107.3-11.7-4.3-0.6-21.8 8.2-13 7.6 7.5-5 18.9-11.7 10.5-7.5-9.3 19.4-38.9 24.1-47.6 5.7-10.6 17.9-58.6 21.6-61.9 4.1-3.7 9.2 0 9.2 4.7z"  fill="#fff" /><path d="M-157.7-84c13.8 47.7 13.3 91.4-6.5 137.3-3.2 7.4-6.7 19.7-12.7 25.3-8.4 8-18.3-8.6-7.3-12.2 11-3.7 13 15.5 1.5 14.2-15.5-1.7 18.6-61.7 22.7-83.1 5.2-26.9-7.6-71.3-5.4-81.3 0.9-4.3 6.2-3.7 7.7-0.2z"  fill="#005bbb" /><path d="M-145.3-262.5c-8.6 33.5-15.9 67.9-9.5 102.5 14.6 80.2 74.2 119.3 41.4 208.6-2.8 7.6-8.5 31-17.8 32.2-13.3 1.7-7.5-20.8 3.3-13 10.8 7.9-8.9 20.3-11.3 7.2-1.1-5.9 26.3-67.3 26.4-89.9 0.3-59.5-47.7-105.9-53.8-164.6-2.6-25-2.2-64.6 9.8-87.4 3.5-6.7 12.4-2.3 11.5 4.4z"  fill="#c2e1ff" /><path d="M-137.6-159.2c25.4 85.2 102 115 54.2 215.9-3.2 6.8-9.1 26.7-19.2 24.1-8.4-2.2-6.5-15 2.2-14.7 8.7 0.3 9.6 13.3 1 14.8-5.1 0.9-9.7-3.8-8.6-8.9 6.9-33.6 37.8-47.5 29.3-101.6-6.6-42-39.4-72.7-58-109.4-11-21.8-4.3-27.2-0.9-20.2z"  fill="#fff" /><path d="M-128.2-106.4c29.4 54.4 48.7 99.3 23.6 160.2-2.8 6.7-7.7 25.9-16.3 26.8-11.5 1.3-9.5-17.8 1.5-14.1 12.8 4.3-2.3 22.3-8.7 10.3-4.6-8.6 24.7-60.6 26.3-83.8 1.7-23.3-4.9-45.5-15.1-66.3-3.2-6.6-18.3-25.3-16.7-32.3 0.6-2.8 3.9-2.8 5.4-0.8z"  fill="#c2e1ff" /><path d=""  fill="#005bbb" /><path d="M-119.2-395.6c-23.9 51.2-62.4 201.7-53.1 256.4 5.9 34.1 20.1 66.4 23.7 100.9 1 9.3 4.5 59.1-9.8 59.3-10 0.1-6.6-16.1 2.5-12 9.1 4.1-0.8 17.4-7.4 9.8-5.9-6.8 5.4-42 5.3-52.4-1.4-62.9-34.9-117-24.7-181.7 6.7-42.3 33.7-147.6 50.7-185.7 3.7-8.4 15.1-3 12.8 5.4z"  fill="#c2e1ff" /><path d="M-93.6 73.7c-8.1 14.6-22 0.3-12.7-6.3 13.3-9.4 15.5 20.1 0.9 12.8-19.5-9.8 21-28.3 11.8-6.5z"  fill="#005bbb" /><path d=""  fill="#c2e1ff" /><path d="M-74.9-251.6c6.9 85 95.9 116 130 186.8 16.2 33.5 17.5 70.5 7.6 106-2.2 7.9-8.4 40.5-19.6 39-7.9-1-7.7-13 0.3-13.7 8-0.7 10.3 11 2.7 13.4-18.7 5.9 2.4-36.6 3.9-41.1 9.5-29.2 12.4-60.1 3.1-89.8-20.1-64.4-83.5-92.2-117.7-146.3-8.7-13.7-21.3-37.3-19.5-54.2 0.6-5.6 7.9-4.9 9.2-0.1z"  fill="#005bbb" /><path d="M-130.7-396.2c-18.8 46.2-60 195.9-58.6 243.1 0.4 14.4 13.3 90.7 8.6 97-4.8 6.5-13.7-3.7-6.5-7.5 8.4-4.5 10.3 11.9 1.1 9.4-8-2.1-5-31.6-5.9-38.5-10.8-91.4-4.8-121 21.3-208.6 8.4-28.1 14.2-56.9 22.6-85 7.9-26.2 19.1-17.3 17.4-9.9z"  fill="#fff500" /><path d=""  fill="#fff500" /><path d="M-47.7-119.1c47.7 43.6 83.1 92.9 57.6 159.6-3.7 9.6-12 36.2-22.4 40.2-9.6 3.7-14.6-11.8-4.6-14.5 10-2.6 13.3 13.3 3 14.9-5.2 0.8-9.7-4.1-8.5-9.3 7.8-33.5 37.5-44.9 30.6-99.1-4.5-35-27.8-61.7-52.7-84.9-1.8-1.7-5.1-8.3-3-6.9z"  fill="#fff500" /><path d="M-37.5-145.1c56.9 52.2 108.2 104.2 80.7 187.4-2.7 8.3-9.7 36.8-20 38.2-8.3 1.1-11.2-11.1-3.3-14 9.2-3.3 13.6 11.5 4.1 13.8-4.9 1.2-9.5-3.1-8.8-8 5-34.7 38.5-53.3 22.1-115.8-10.6-40.4-41.4-68.3-71.6-94.9-1.9-1.6-5.3-8.1-3.2-6.7z"  fill="#fff" /><path d=""  fill="#005bbb" /><path d="M-17-120.1c48.3 42.8 76.1 96.7 54.4 161.3-3.1 9.3-9.8 34.9-19.1 39.1-9 4.1-14.8-10.4-5.4-13.5 9.4-3.2 13.6 11.9 3.9 14-5 1.1-9.6-3.3-8.8-8.3 5.5-33.4 34.3-47.1 26.1-103.1-4.8-32.9-24.5-60.2-48-82.6-1.8-1.7-5.1-8.3-3.1-6.9z"  fill="#005bbb" /><path d="M-5.7-199.4c53.6 79.7 124.8 127.1 110 235.1-1.2 8.5-2.1 39.4-10.5 42.9-10.2 4.4-10.7-15-0.3-11 10.4 3.9-2.5 18.2-7.4 8.2-4.7-9.6 5.9-35.7 7.4-46.4 4.1-27.5 3.7-55.2-4.9-81.9-18-56.2-62-96.1-96.6-141.9-2.2-2.9-1.3-8.9 2.3-5z"  fill="#c2e1ff" /><path d="M9-362.1c-107 126.5 96.1 232.6 104.5 357.4 0.8 11.3 4.4 45.4-4.3 53.9-6.5 6.4-14.6-6.5-6-9.5 7.4-2.6 10.9 9.2 3.3 11-13 3.1-4.1-28.4-3.7-33.3 2.3-27.9-1-55.4-11.5-81.4-31.9-79.3-123.1-134.4-122.2-225.7 0.2-25 7.5-66.6 28.4-83.5 7.6-6.2 15.9 3.6 11.5 11.1z"  fill="#fff" /><path d="M14-130.2c48.9 48.1 74.4 107.5 55.6 175.6-2.1 7.8-6.1 32.5-14.9 34.6-12.2 2.9-9-18.7 1.9-12.4 9.3 5.4-2.8 18.5-8.9 9.7-2.7-3.9 23.8-60 17.4-106.9-4.9-35.8-24.6-67.2-48.8-93.2 0 0-7.7-11.7-2.3-7.4z"  fill="#fff500" /><path d="M-72.6-394.2c-35.4 46.6-56.2 160.5-34.1 215.3 10 24.9 28.3 44.6 47.3 63 0.9 0.9 16 13 10.1 13.5-6.6 0.6 6.6-1.3 0.1 0-3.5 0.7-10.5-9.3-12.9-11.7-46.7-45.2-69.9-89.6-61.8-155.7 5-41.2 12.3-86.5 32.5-123.3 8.1-14.7 26.9-16.8 18.8-1.1z"  fill="#fff500" /><path d=""  fill="#fff500" /><path d="M49.3 9.9c-1.2 11.5-13.7 74.1-30 70.8-9.6-2-5.7-17 3.7-14 9.3 3 3.8 17.5-5.2 13.5-11.6-5.2 5.7-28.2 8.5-34.7 4.7-11.1 5.8-30.8 12.7-40 3.8-5.1 10.6-1.1 10.3 4.4z"  fill="#fff500" /><path d="M55.9-161.4c48.4 71 82.5 119.9 76.3 209.1-0.5 6.5 2.3 28.9-5.7 30.8-9.5 2.3-7.1-14.5 1.4-9.7 7.2 4.1-2.1 14.4-6.9 7.6-3.5-5 3.2-89.5-3.1-114.5-10.7-42.5-37.8-79.2-62.2-114.8-1.2-1.7-5.3-14.8 0.2-8.5z"  fill="#fff" /><path d=""  fill="#005bbb" /><path d=""  fill="#005bbb" /><path d="M90.6-312.8c-9.6 36.7-4.4 76.3 8.9 111.5 43.5 115 105.8 95.3 102.1 245.1-0.2 6.3 4.3 31.2-2.5 33.9-7 2.6-8.8-9.6-1.4-9.1 8.7 0.6 2.1 14.3-3.8 7.8-7.1-7.8-1-93.4-4.7-112.4-13.7-68.8-84.8-116.5-105.7-189.9-6.9-24.3-16-66.5-4.4-90.7 3.2-6.7 12-2.7 11.5 3.8z"  fill="#c2e1ff" /><path d="M101.3-360.1c-89.6 138.9 51.7 224.1 81.7 321.1 3.7 11.9 16.2 102 2.5 101.8-5.7-0.1-6.5-8.6-0.9-9.8 6.6-1.3 8.1 9.1 1.4 9.8-7.9 0.7-7.4-85.4-10-97.1-18.3-81.1-98.8-126.4-110.7-226.1-3.8-32.1-0.4-84.2 24.2-108.9 6.5-6.5 15.2 1.7 11.8 9.2z"  fill="#005bbb" /><path d="M107.8-79.4c23.3 43.1 26.2 86.6 22.6 134.6-0.4 5.5 1.2 17.2-2.4 21.6-5.3 6.5-13.9-4.4-6.3-8.1 7.5-3.6 10.8 9.9 2.4 10.1-9.7 0.2-1.6-75.9-2.5-86.9-0.9-12.7-25.2-88.4-13.8-71.3z"  fill="#fff" /><path d="M117.9-174.4c53 98.7 95.5 86.5 89.7 215.8-0.3 6.4 3.8 33.9-3.1 36.5-8.3 3-7.9-12.3 0.3-8.9 8.1 3.5-2.7 14.3-6.3 6.3-11.5-26.7 5.5-88.4-4.8-124.7-13.6-48-56.5-80-80.8-122.2-1.9-3.3 2.8-5.7 5-2.8z"  fill="#fff" /><path d="M122.1-393.6c-51 69.3-68.6 124.2-31.1 206.5 20.5 44.9 107.6 138.4 94.7 187.5-2 7.5-13.4 1.6-8.5-4.3 5.8-7 13.3 6.8 4.4 7.9-5.6 0.7-14.7-55.7-18.6-64.5-37-84-112.3-132.8-102-237.8 2.4-25 27.6-95.6 51.3-107.2 7.9-3.8 13.6 5.2 9.8 11.9z"  fill="#fff" /><path d="M141.1 61.1c-0.1 4 2 20.3-7.1 16.8-4.7-1.8-4-8.8 1-9.7 5.8-1 8.2 7.4 2.8 9.6-9.2 3.8-7.9-14.2-7-18.1 1.6-6.2 9.7-4.2 10.3 1.4z"  fill="#fff" /><path d="M152.6-385.9c-34.3 70.6-45.8 148.6 5.2 215.2 27 35.1 70.1 59.2 83 103.8 3.3 11.5 7.3 99.1-10.7 94.8-6.7-1.6-5.4-11.8 1.5-11.7 6.9 0.1 7.8 10.4 1.1 11.7-12.9 2.6-4-22.7-3.2-27.2 4.2-22.4 7.8-45.6 2.8-68.2-15.4-69.5-102.6-92-118.2-188.9-5.8-36.1-0.9-72.4 12.5-106.2 3.6-9.2 7.8-18.1 12-27 4.4-9.1 17.6-7 14 3.7z"  fill="#fff" /><path d="M158.3-395.2c-33.9 72.5-53.1 149.7-1.1 220 28.1 38 75.7 62.6 87.2 111.3 2.4 10 8.5 69.6-6.8 70.9-6.9 0.6-8.9-9.6-2.3-11.6 7.7-2.4 10.8 10 2.9 11.5-12.5 2.4-4.4-20.7-3.7-25.1 3.1-19.5 4-39.5-1.8-58.6-22.2-71.6-105.1-83.6-117.8-187.7-5.8-47.9 8.1-94.7 30.6-136.7 4.4-8.2 15.6-2.4 12.8 6z"  fill="#005bbb" /><path d="M170.4-260.1c13.9 58.5 66.6 77.1 100.7 120 38.6 48.6 11.9 104.9-6.9 155.4-3.4 9-12.5 61.7-19.3 63.2-8.4 1.7-8.2-12.6 0.2-10.6 9.8 2.3-0.3 16.6-5.8 8.2-13-20 45.9-138.1 41.4-177.1-6.5-55-64.2-75.3-95.1-114.3-10-12.7-17.8-27.1-22.7-42.6-1.5-4.9 5.5-6.7 7.5-2.2z"  fill="#fff" /><path d="M182.9-347.6c-13.2 52-8.2 104.3 31.2 143.7 26.3 26.3 62.3 44.4 77.1 80.5 22.9 56-17.6 111.5-33.3 163.5-1.4 4.6-3.3 26.6-13.2 20.2-5.8-3.7-1.2-12.9 5.2-10.6 5.5 2 4.8 10.3-0.9 11.4-11.6 2.2-5.1-16.7-4.1-21.1 11.6-48.1 47.4-94.7 42.3-145.8-6.6-66.8-88.5-88.1-112.2-147.4-10.5-26.2-16.9-72-3.6-98.6 3.4-6.7 12.2-2.5 11.5 4.2z"  fill="#c2e1ff" /><path d="M188.7-108.3c41.2 46.2 37.8 93.1 32.5 151-0.7 8.1 2.4 27.3-2 33.8-4.4 6.4-13.2-3-6.5-6.9 6.7-4 10.7 8.2 3 9-11.7 1.2 0.7-103.7-0.3-115.9-1.3-15.3-5.5-30.1-12.7-43.6-4.8-9-21.4-34.4-14-27.4z"  fill="#c2e1ff" /><path d="M201.1-50.1c5.2 14.5 15.2 127.6 1.7 128-6.4 0.2-6.2-10 0.2-9.4 6.4 0.5 5 10.6-1.2 9.3-12.5-2.4-2.8-83.9-3.4-95.8-0.6-10.4-4.3-20.7-4.8-30.8-0.2-4.7 5.9-5 7.5-1.3z"  fill="#005bbb" /><path d="M213.6-376.6c-11.7 52.9-23.9 105 13.2 151.1 28.8 35.9 74.4 58.4 82.9 107.5 7.1 41-13.7 79.6-30.5 115.5-3.4 7.3-13 43.5-23.7 39.1-7.1-2.9-3.9-13.9 3.6-12.6 7.5 1.3 6.8 12.7-0.9 13.1-14.7 0.7-0.5-25.5 1.7-30.5 16-38.4 42.8-77.5 40.8-120.8-3.2-69.3-85.6-93.7-104.8-156.8-9.3-30.7-8.3-80.5 6.3-109.7 3.4-6.7 12.1-2.5 11.4 4.1z"  fill="#c2e1ff" /><path d="M219.2-213.2c24.8 26.9 59.8 44.9 75.9 79.2 24.6 52.3-8.8 105.4-28 153.3-3.5 8.8-12.5 58.3-19.2 59.6-8.5 1.6-8.1-12.8 0.3-10.7 9.9 2.5-0.5 16.8-5.9 8.2-13.4-21.1 51.9-142.9 51.3-180.6-0.8-49.5-42.7-74.4-74.9-104.7-1.8-1.7-3-7 0.5-4.3z"  fill="#fff500" /><path d="M234-391c-7.1 49.3-27.8 97.9-1.6 145.3 24.7 44.6 77.1 69.3 84.7 123.7 5.5 39.6-13.9 76.4-31 110.6-3.7 7.5-14.8 44.1-25.8 39-7.2-3.3-3.3-14.5 4.3-12.8 7.7 1.7 6.4 13.5-1.5 13.4-15.2-0.1 1.1-27 3.4-31.9 17-36.5 42.5-74.2 41.2-116.1-2.1-67.7-79.3-95.4-95.4-157.9-8.6-33.5-3.2-84.9 10.6-116.6 2.8-6.6 11.4-3 11.1 3.3z"  fill="#fff" /><path d="M239.6-142.1c55.3 49.2 31.7 109 13.9 169.8-3.4 11.5-3.2 40.9-10.3 49.3-5.4 6.5-13.9-4.6-6.3-8.1 7.6-3.6 10.7 10 2.3 10-16.6 0.1 24.6-128.9 26-142.5 1.8-18.1-0.8-36.4-9.6-52.5-4.9-8.9-24.1-32.2-16-26z"  fill="#c2e1ff" /><path d="M254.7-336.7c-26.1 106 53 115 70.4 197.6 14.4 68.2-42.4 124.4-61.7 185.2-2 6.4-3.3 34.2-12.8 32.6-6.4-1-5.9-10.7 0.6-11 7.6-0.4 7.6 11.5 0 11.1-10.9-0.6-2.9-24-1.7-29.5 13.1-58.1 60.5-104.9 67-164.5 7.2-66.6-58.5-100.1-74.2-158.9-4.9-18.4-7.9-48.8 0.9-66.6 3.3-6.7 12.1-2.6 11.5 4z"  fill="#fff500" /><path d="M265-356.4c-10 38.9-18.6 75.9 1.3 113.4 19.5 36.7 54 64.1 61.1 107 10.7 65.3-41.4 118.8-61.9 176.5-2.1 6-3.9 30-13.6 27.7-6.7-1.6-5.4-11.7 1.4-11.6 8 0.1 7.1 12.7-0.8 11.8-11.1-1.4-1.3-25.2 0.3-30.6 16-53.7 60-99.1 65.2-155.9 6.1-65.8-59.2-100.3-72.2-159.9-5.2-23.7-4.2-61.1 7.7-83 3.6-6.7 12.4-2.2 11.5 4.6z"  fill="#c2e1ff" /><path d="M272.7-105.1c17.5 41.2-2.6 85.6-15.3 125-2.7 8.4-10.1 59.5-17.7 58.6-8.4-0.9-3.9-14.2 3.3-9.8 7.3 4.4-2.4 14.6-7.1 7.5-9.1-13.4 18.8-88.7 23.9-105 9.4-30 4.7-94.2 12.9-76.3z"  fill="#005bbb" /><path d="M298.8-398c-2.3 41.2-27.6 78.2-24 120.1 7.6 85.9 94 103.8 45.8 212.5-3.4 7.7-11.3 32.7-21 33.6-13.7 1.2-6.8-21.7 4-13.2 10.7 8.5-10 20.4-11.9 6.9-0.6-4.5 32.7-67.9 32.8-95.1 0.2-58-54.4-95.4-59.7-151.9-1.7-17.5 15.7-104.5 23.9-116.7 3.5-5.1 10.1-1.6 10.1 3.8z"  fill="#fff500" /><path d="M292.1-152.4c42.6 62-9.2 128.7-29.7 188-2.5 7.1-6.4 44.7-15.3 43.4-8.6-1.2-3.5-14.8 3.8-10 7.3 4.7-3 14.9-7.7 7.5-12-19 38.4-117.8 46.5-140.3 6.5-18.4 10.6-38 7.5-57.5-1.7-10.6-7.1-19-10.1-28.9-0.9-3.2 3.2-4.5 5-2.2z"  fill="#c2e1ff" /><path d="M306.3-58.5c-12.6 35.3-33.7 66.9-45 102.8-1.8 5.6-4.1 39.5-14.5 34.1-5.7-2.9-2.3-11.9 3.9-10.3 7.2 1.9 3.6 13.2-3.4 10.5-19.2-7.4 36.2-134.3 48.3-144.7 5.6-4.9 12.3 1.3 10.7 7.6z"  fill="#fff500" /><path d="M316.1-385.7c-6.1 37.7-29.9 71.3-27.4 110.5 2.6 41.9 33.6 73.6 45.2 112.7 17.4 58.5-17 108.7-44.4 157.4-4.7 8.3-19.1 50.6-28.5 50-12.2-0.8-3.1-20 5.2-11.1 8.3 9-11.5 16.6-11.4 4.4 0.4-38.9 61.9-106.4 71.5-153.8 13.1-64.7-44.5-107.2-47.8-168.5-1.8-32.8 12.1-76.4 26.4-105.5 3.2-6.6 11.9-2.6 11.2 3.9z"  fill="#c2e1ff" /><path d="M323.4-191.3c43.3 86.6-21 147.7-52.6 224-3.2 7.7-9.9 48-18.4 46.5-8.8-1.5-3.2-15.2 4.2-10.1 7.3 5-3.5 15.1-8 7.5-14.5-24.5 58.7-138.4 69.9-165.6 8.1-19.5 12.6-40.5 10.1-61.7-1.6-13.8-8.8-25.5-11.2-38.7-0.7-3.8 4.2-4.9 6-1.9z"  fill="#fff500" /><path d="M337.3 68.5c-2.3 3.7-16.4 21.9-17.9 5.5-1.7-18.4 26.7 1.6 8.8 6.2-13.6 3.5-7-15.7-2.9-20.2 6.1-6.7 14.9 1 12 8.5z"  fill="#c2e1ff" /><path d="M346.4-132.5c-1.5 63.1-52 111.4-75.1 167-3.2 7.6-8.5 43.5-16.1 44.6-8.8 1.3-7.8-13.5 0.8-10.9 7.3 2.1 3.3 13.5-3.8 10.6-26.3-10.9 48.9-128.4 56.8-142 11.3-19.6 24.6-68.4 27.4-72.7 3.3-5.1 9.8-1.8 10 3.4z"  fill="#c2e1ff" /><path d="M355.6-218.7c20.6 129.4-16.7 131.8-72.7 235.9-7.7 14.4-17.4 58.4-23.7 61.6-8.1 4-11.7-10.5-2.7-10.8 9-0.3 6.2 14.4-2 10.9-30.7-13.1 79.4-168.8 87.1-186.6 25.3-57.9 2.3-68.6 5.3-110.6 0.4-5.4 7.3-5 8.7-0.4z"  fill="#005bbb" /><path d="M367.8-112.3c-18.8 50.1-59.9 87.7-84.9 134.3-4.5 8.3-19.5 60.9-27.3 56.4-6.7-3.9-0.1-14.2 6.3-9.6 6.3 4.6-1.5 14.1-7.3 8.9-8-7.3 5.1-37.5 8.3-45.6 21.2-55.2 65.5-97.6 92.3-149.8 4.1-8 15-3 12.6 5.4z"  fill="#fff500" /><path d=""  fill="#c2e1ff" /><path d=""  fill="#fff500" /><path d="M398.8 74.8c-7.8 12.9-21.4-1-12.1-7.6 13.3-9.3 15.4 20.1 0.9 12.7-18.9-9.7 20.4-26.6 11.2-5.1z"  fill="#fff500" /><path d="M408.5-163.6c-14.8 72.8-72.4 115-111.8 173.7-10.1 15.1-18.8 31.3-24.3 48.7-1.5 4.7-2.8 25.5-12.7 19.6-6.8-4.1 0.3-14.4 6.5-9.6 7.3 5.6-4.4 15.5-8.6 7.3-16.8-31.8 72.9-133.2 92.3-156.5 32.4-38.7 27.7-49.6 47.2-87.4 3.4-6.7 12.1-2.4 11.4 4.2z"  fill="#c2e1ff" /><path d="M418.4-396.2c-3.8 49.5-42.6 85.8-51.9 133.4-7.6 38.4 6.8 76.8 3.2 115.4-4.3 47.6-33.1 85.6-59.5 123.6-6.2 8.9-27.7 50-33.9 53.2-10 5.1-14.7-12.9-3.5-13.4 11.2-0.5 8 17.9-2.5 13.6-12.3-5.1 6.5-29.7 10.1-35.8 23.7-40.2 58.1-75.6 72.8-120.5 16.3-49.8-7.1-99.7 3.9-149.8 6.4-29.2 23.4-53.7 36.2-80.2 6-12.4 7.4-33.2 14.9-43.6 3.7-5.1 10.3-1.3 10.2 4.1z"  fill="#c2e1ff" /><path d=""  fill="#fff" /><path d="M439.7-305c-33.5 70.7-22.6 127.9-49.6 187-26.3 57.5-80.5 95.8-108.5 152.3-3.8 7.7-11.4 44.1-18.9 45-9.1 1-7.5-14.2 1.2-11.3 7.5 2.5 2.9 14.1-4.3 10.8-15.1-6.9 15.1-63.1 20.4-72.2 25.8-44.1 66-77.3 91.9-121.2 28.5-48.2 22.1-103.1 38.3-154.8 18.8-60.2 33.4-47.5 29.5-35.6z"  fill="#005bbb" /><path d="M449.1-397.8c-2.5 51.1-37.5 90.4-50.8 138.2-10.4 37.7-3.4 77.2-11.6 115.2-9.8 45.1-39 80-66.6 115.5-5.6 7.2-20.9 37.4-31.4 34-13.6-4.3 2.1-23.5 9.1-11 5.9 10.6-13.5 16.4-14.4 4.3-0.6-8 76.4-105.3 86.1-130.4 17.1-43.9 6.7-91.2 18.1-136.1 10.3-40.5 37.3-74.2 47.4-114.8 1.2-4.9 0.4-21 8.5-21.1 3.6 0 5.5 2.9 5.6 6.2z"  fill="#c2e1ff" /><path d="M461-398.3c-1.6 50.9-33.9 91.5-48.4 138.7-11.5 37.3-7.7 76.9-17.4 114.5-11 42.8-38.7 76.2-66.3 109.5-5.6 6.8-19.8 33.1-30.3 29.2-11.7-4.5-0.3-21.9 8.5-12.9 10.3 10.5-13.3 20.4-13.6 5.6-0.1-6 76.5-100 86.2-125.6 15.5-40.9 9.9-85.4 21.6-127.2 11.7-41.9 38.9-77.9 47.1-120.9 0.8-4.3-0.1-13.4 4.5-16.1 4.1-2.3 8 1.1 8.1 5.2z"  fill="#005bbb" /><path d=""  fill="#c2e1ff" /><path d=""  fill="#c2e1ff" /><path d="M491-275.8c-27.8 56.3-41 121.7-76.2 173.9-31.8 47.2-82.4 77.1-114.8 123.8-9.2 13.2-25.4 62-33.4 56.8-6.8-4.4 0.8-14.8 7-9.6 7.3 6-5 15.7-9.2 7.2-3-6.1 2.6-18.3 4.5-24.2 22-69 87-103.5 129.2-157.8 37-47.5 47.7-108.8 73.2-162.3 15.2-31.9 23.2-17.7 19.7-7.8z"  fill="#c2e1ff" /><path d="M500.7-360.8c-6.2 40.8-28.2 76.6-42.9 114.6-17.1 44.1-23.2 91.9-47 133.3-23.9 41.5-62.2 70.5-93.2 106.1-6.6 7.6-30.2 50.4-39.9 44.7-9.9-5.8 3.1-19.7 9.6-10.3 6.5 9.4-11.1 16.6-13 5.4-4.3-24.9 109.2-129 126.9-159.2 23.2-39.5 29.4-85.5 45.2-128 10.1-27.2 23.9-52.8 34-79.9 3.6-9.7 4.8-21.2 9.1-30.4 3.1-6.6 11.7-2.8 11.2 3.7z"  fill="#c2e1ff" /><path d="M510.7-367.3c-3.5 45.7-29 85.2-45.9 126.6-55.5 136.1-25 111.5-133.8 222.6-8.5 8.6-31.8 48-42.6 48.6-10.2 0.5-10.2-15.5 0-14.9 11.9 0.7 6.6 19.7-3.9 14.1-11.5-6.1 5.8-24.6 9.9-30.3 34.2-47.3 86-79 115-130.3 21-37.2 28.9-79.8 44.6-119.2 14.7-36.9 37.1-71.8 44.3-111.3 1.2-6.8 12.5-20 12.4-5.9z"  fill="#c2e1ff" /><path d="M521.8-269.1c-33.1 55.8-60.3 131.2-96.7 179.5-32.4 43-81.2 69-114.6 111-11.3 14.2-29.8 62.7-37.5 57.3-7.9-5.6 3.9-16.5 8.8-8.1 4.2 7.2-7.5 13.1-10.9 5.6-2.6-5.9 2.6-16.5 4.5-22.1 23.1-67.3 88.7-97.7 132.8-148.6 38.2-44.1 54-102 82.6-152 5.8-10.2 11.6-20.6 18.2-30.4 5.5-8.2 16.7-0.9 12.8 7.8z"  fill="#fff500" /><path d="M531.8-322.9c-10.4 35.3-32.5 66.1-48.6 98.9-20.8 42.4-33.7 88.7-61.3 127.5-26 36.5-63.2 61.3-94.4 92.8-22.8 23-40 60.5-46 61.8-10.6 2.2-10.4-15.7 0.1-13.3 10.5 2.4 2.9 18.6-5.7 12-27.8-21.5 126.1-152.4 138.6-170.1 36.8-52 55.4-117.8 86-173.8 5.3-9.6 12.7-38.4 21.9-43.6 5.6-3.2 10.6 2.4 9.4 7.8z"  fill="#c2e1ff" /><path d="M542-326.1c-9.3 37-33.5 68.5-51.1 101.7-23.6 44.5-37.9 93.9-68.6 134.4-27.9 36.8-67.4 61.2-99 94.4-7.1 7.4-32.7 51.7-41.6 46.8-9.8-5.4 2.4-19.4 9.1-10.4 6.7 9-10.3 16.6-12.6 5.7-6.3-30.6 118.2-127.6 139.3-156.8 23-31.7 103.1-211.4 113.9-222.2 5-5 11.7 0.4 10.6 6.4z"  fill="#fff500" /><path d="M552.5-234c-42.2 53.7-64.9 117.5-105 171.9-27.4 37.3-66.2 61-98.6 93.1-7.5 7.4-31.9 50-39.6 49-10.7-1.3-4.8-18.3 4.5-12.6 7.9 4.9-0.5 16.9-7.8 11.2-12.2-9.5 12.1-43.7 93.3-113.9 61.6-53.2 82.9-132.6 130.9-196.2 19.1-25.3 25.6-8 22.3-2.5z"  fill="#fff" /><path d="M562.3-331.7c-6.9 43.5-38.6 78.7-60.4 115.5-25.1 42.2-40.7 89.9-70.4 129.4-26.9 35.8-64.6 59.1-96.8 89.3-7.3 6.9-32 44.5-41.6 37.8-9.8-6.9 4.9-20.4 11-10 7 12.2-17.2 15.7-13.9 2 11.1-46.2 106.8-97.9 136.9-139.9 5-6.9 118.7-211.8 120-215.4 1.6-4.6 2-15.1 8.5-16 4.5-0.6 7.1 3.3 6.7 7.3z"  fill="#fff" /><path d="M571.8-93.1c-0.3 18.1 25 170.6 0.7 172.6-8.1 0.7-8.5-12.2-0.3-11.9 9.5 0.3 5.7 15.6-2.8 11.3-8.4-4.2 1.1-33.1 1.6-40.9 2.6-36.7-15.6-104.9-9.3-132.1 1.4-6.1 9.3-4.4 10.1 1z"  fill="#fff" /><path d=""  fill="#005bbb" /><path d="M592.4 38.2c-0.1 6.9 2 43.8-10 41.1-7.8-1.8-4.4-13.9 3.1-11.3 7.6 2.6 2.8 14.3-4.4 10.9-6.9-3.2-1.6-38.2 1.5-43.5 2.9-5 9.4-2.2 9.8 2.8z"  fill="#005bbb" /><path d="M602.2-112.4c0.1 3.5 4.1 19.1-4.6 16.9-5.1-1.3-4-9 1.3-8.9 5.2 0.2 5.9 8 0.7 8.9-7.2 1.4-8.2-14.5-6.6-18.4 2.1-4.9 8.3-3 9.2 1.5z"  fill="#005bbb" /><path d="M604.9-249.4c-41 63.8-73.4 99.4-93.9 175.7-3.2 12-20.9 99.7-33.9 94.6-7.1-2.8-4.1-13.7 3.4-12.6 6.4 1 7.4 10.1 1.4 12.5-13.1 5.3-6.7-14.1-5.4-18.1 19.2-59.3 28.2-122.7 58.5-177.9 9.7-17.7 44.5-77 59.9-85.3 7.5-4 13.4 4.5 10 11.1z"  fill="#fff" /><path d="M604.8-230.4c-49 74.4-67.6 112.5-73.7 203-0.8 11.5-6.3 112.2-22.1 106.8-8.2-2.8-3.1-15.4 4.7-11.8 6.7 3.1 3.2 13.5-4 12-10.5-2.3-1-21.3 0.2-27 15.4-67.1 6.2-138.1 31-203.3 10.8-28.4 29.5-69 52.3-89.7 7-6.4 15.4 2.5 11.6 10z"  fill="#fff" /><path d=""  fill="#c2e1ff" /><path d=""  fill="#fff500" /><path d="M604.8-178.9c-17.8 42.8-17 84.7-7.3 129.4 1.2 5.4 9.5 25.6 3.1 28.9-5.1 2.6-8.8-5.7-3.4-7.7 6.3-2.4 7.9 8.6 1.2 8.1-7.5-0.5-8.6-25.4-9.8-30.8-9.4-42.6-13.3-84 1.3-126.1 3.3-9.5 18.4-15.7 14.9-1.8z"  fill="#fff" /><path d=""  fill="#fff500" /><path d=""  fill="#fff500" /><path d=""  fill="#fff500" /><path d=""  fill="#fff500" /></svg>