<svg width="1200" height="675" viewBox="-500 -500 1200 675" xmlns="http://www.w3.org/2000/svg"><path d="M-500-500h1200v675h-1200z" fill="#000"/><path d=""  fill="#c2e1ff" /><path d=""  fill="#fff" /><path d=""  fill="#005bbb" /><path d=""  fill="#fff" /><path d=""  fill="#005bbb" /><path d="M-396.9 57.4c2.2 2.3 19.1 13.9 15.9 17.5-1.8 2-4.8-1-2.7-2.8 2-1.8 4.6 1.5 2.4 3-9.4 6.7-24-23.8-15.6-17.7z"  fill="#fff500" /><path d="M-396.3 43.9c3.2 3.9 30.9 28.6 28.9 30.8-1.8 2-4.7-1-2.7-2.8 1.7-1.5 4.2 0.7 2.9 2.6-2.9 4.1-31.9-23-34.1-27-1.9-3.3 2.4-5.8 5-3.6z"  fill="#c2e1ff" /><path d="M-378.2 19.6c4 7.2 47 55.1 46.5 55.7-8.2 8.1 4.6-11.6 0.5-0.9-1.5 3.9-51.2-42.1-54.5-50.9-1.8-4.8 4.4-7.3 7.5-3.9z"  fill="#fff500" /><path d="M-358-392.1c-7.1 11.9-26.2 58.1-44 52.8-16.3-4.8-7.4-30 8.3-23.5 18.3 7.6-0.5 34.6-14 20-11.3-12.2 21.7-60 32.7-66.5 11.8-7 21.9 6.4 17 17.2z"  fill="#fff" /><path d="M-342.9-0.3c3.6 10.2 49.2 75.2 47.5 76.5-3.8 2.8-7.8-3.4-3.8-5.8 3.5-2 7 2.8 4.1 5.5-6 5.6-56.2-62.4-58.2-72.9-1.3-6.6 7.2-8.4 10.4-3.3z"  fill="#fff" /><path d="M-324.7-395.7c-8.3 31.2-42.8 175-69.1 185.9-18.1 7.5-23.7-24.5-4.2-23.7 19.5 0.8 11.2 32.2-6.2 23.2-19.3-9.9 16.7-57 22.1-69.5 8.7-20 34.3-119.3 39.8-125.4 7.7-8.4 18.9-0.2 17.6 9.5z"  fill="#fff" /><path d="M-311.2 44.7c3.4 4.5 27 26.8 20.2 31.6-4 2.8-8.1-3.7-3.8-6.1 4.3-2.4 7.7 4.6 3.1 6.5-5.7 2.4-25.1-24-26-29-0.7-4 4-5.4 6.5-3z"  fill="#005bbb" /><path d=""  fill="#fff" /><path d="M-272.6-372.7c13.5 132-48.7 218.2-43.3 332.8 1 21.6 6.6 42.4 16.2 61.7 5.2 10.6 27.7 35 26.8 46.1-0.6 7.9-13 1.9-7.1-3.5 5.9-5.4 10.7 7.6 2.8 7.5-8.5-0.2-21.1-28.8-25.1-35.5-62.5-101.4-8-211.9 11.6-317.6 3.6-19.3 0.5-86.9 3.2-93.7 3.3-7.9 13.3-5 14.9 2.2z"  fill="#fff500" /><path d="M-254-234.7c-9.7 72.6-28.2 156.1-13.4 228.9 4.4 21.5 12.8 41.8 21.9 61.7 1.5 3.3 14.1 22.2 2.4 22.8-6.2 0.3-7.7-8.9-1.7-10.5 6-1.6 9.4 7 3.9 9.9-16.5 8.6-45.5-107.5-46.6-121.4-2.9-36.6 2.9-164.8 15.4-196.2 4.3-10.7 18.3-5.5 18.1 4.8z"  fill="#005bbb" /><path d="M-237.9-140.8c-1.1 55.8-9.3 112.4 6.2 167 2.7 9.5 20.6 42.7 14.8 50.9-5.4 7.6-15.8-3.9-7.7-8.5 8.1-4.6 12.7 10.2 3.4 11-11.5 1-22-47.9-24.8-57-11.4-37.4-19-128.8-8.8-165.9 2.8-10.2 16.1-6.8 16.9 2.5z"  fill="#c2e1ff" /><path d="M-221.2-220.1c0.7 61-7.8 177.6 1.3 229.3 2.1 12.1 22.9 58.9 16.1 67.8-5.9 7.7-16.2-4.6-7.7-9.1 8.5-4.5 12.8 11 3.2 11.5-12 0.6-19.9-46.4-22.3-55.4-14.8-55.3-9-181.7-7.3-243.9 0.3-11 15.3-10.7 16.7-0.2z"  fill="#c2e1ff" /><path d=""  fill="#005bbb" /><path d="M-186.5-398.6c1.4 70.9 17.6 140.6 19.5 211.4 1.3 47.4-10.4 92.7-15.8 139.5-1.1 9.5 4.5 51.6-9.2 51.9-12.4 0.4-8.5-19.9 2.9-15 11.4 4.9-0.6 21.6-8.9 12.4-15.4-17.2 10.8-138.5 13.1-165.7 6.5-78.4-17.8-155.7-18-233.9 0-10.9 14.8-10.8 16.4-0.6z"  fill="#fff" /><path d=""  fill="#fff" /><path d="M-153.8-209.2c4.5 70.4-27.3 136.4-23.7 206.3 1.8 35.6 23 83.3 8.4 82.2-8.4-0.6-6.7-13.8 1.6-12.2 7.1 1.3 6.3 12-0.9 12.3-19.4 0.7-26.3-94.7-26.2-109 0.4-60.4 21.7-118.7 24.4-179.2 0.5-10.8 14.9-10.7 16.4-0.4z"  fill="#fff500" /><path d="M-136.6-309c-1.4 46 8 91.4 0.9 137.2-8 51.5-31 100-33.2 152.6-1 24.2 2.8 48 9.1 71.3 1.2 4.4 12.9 28.5-0.4 27.7-8.3-0.5-6.8-13.5 1.4-12.2 9.6 1.6 3.5 16.6-4.5 11.1-8.9-6.1-11.9-33-14.4-43-18.5-73.7 6.3-135.4 21.8-206.4 10.5-47.9-4-113.3 2.6-140.3 2.4-10.1 15.6-7.2 16.7 2z"  fill="#fff500" /><path d=""  fill="#fff500" /><path d="M-101.8-316.6c-9.4 45.2-0.7 91.7-11.5 136.9-12.7 53-41.9 101-46.3 156.1-1.9 24 1.2 47.9 7.3 71.2 1.1 4.4 14.9 32.7 1.2 32-8.2-0.4-6.9-13.2 1.2-11.9 8.1 1.3 5.4 13.9-2.5 11.7-9.4-2.5-12.8-29.7-15-37.6-23-83 9.5-146.8 33.3-224.3 12.7-41.5 3.2-113 13.9-139.1 4.4-10.9 18.7-5.4 18.4 5z"  fill="#c2e1ff" /><path d=""  fill="#005bbb" /><path d="M-66.7-58.4c-19.6 29.8-20.5 65.7-8.2 98.4 3.1 8.4 16.5 25.4 15.3 34-1.2 8.7-14.4 1.2-7.6-4.3 6.8-5.5 11.3 9.1 2.5 8.3-19.8-1.6-48-100.3-23.5-147.6 7.4-14.2 26.8-3 21.5 11.2z"  fill="#fff" /><path d="M-50.1-188.9c-24 61.5-81.4 101.1-87.3 171.2-2 23.9 2.1 47.7 9.3 70.5 0.7 2.2 14.2 30.9-0.4 26.1-6.2-2.1-4.2-11.6 2.4-11 6.5 0.7 6.6 10.5 0 11.2-11.1 1.3-18.2-35.8-20.3-43.4-12.1-41.9-10.6-84.6 6.3-124.9 7.5-17.9 60.1-104.9 72.7-114.2 10.4-7.6 21 4 17.3 14.5z"  fill="#005bbb" /><path d="M-34.7-241.1c-1.9 82.7-81.9 128.1-98.3 205.9-5.4 25.8-3.3 52 3.6 77.2 1 3.7 18.7 41.9 3 36.8-6.2-2-4.2-11.6 2.3-10.9 7.6 0.8 5.8 12.6-1.7 11.1-10.9-2.3-17.9-40-20.4-49.3-29.8-112.7 36-145.3 80.4-230 6.5-12.4 6.6-39.6 16-48.3 6.5-6.1 15-0.2 15.1 7.5z"  fill="#005bbb" /><path d="M-16.5-196.9c-17.6 66.2-92.1 97.7-105.6 168-5 25.8-1.4 52.1 6.7 76.9 0.7 2.1 17.4 35 2.6 30.7-6-1.7-4.4-10.9 1.8-10.5 6.2 0.4 6.6 9.7 0.5 10.7-10.8 1.6-19.4-35.7-21.8-43.2-12.4-39.4-11.8-80.7 5.3-118.6 18.1-39.8 51.4-66.1 76.9-100.4 5.6-7.6 9.1-19.9 16.2-26.1 9.2-7.9 20.1 2.2 17.4 12.5z"  fill="#005bbb" /><path d="M0.2-136.4c-34 40.3-85.7 67.2-89.9 125.7-1.9 26.6 23.6 80.5 23 85.1-1.5 10.3-16.1-1.7-6.4-5.2 8.3-3 7.8 12.4-0.3 8.8-10.5-4.6-19.9-35.6-23.7-45.8-30.2-81 20.5-133.1 74.6-185.4 13.7-13.2 35.1-0.1 22.7 16.8z"  fill="#fff" /><path d="M15.3-228c9.8 88-90 116.1-114.1 189.7-8.9 27.2-6.1 55.9 3.4 82.5 1.1 3.1 20.8 37.7 6.3 34.4-5.6-1.3-4.6-9.9 1.2-9.9 5.8 0.1 6.6 8.7 0.9 9.9-10.3 2.1-21.3-35.2-23.9-42.4-13.5-36.9-13.9-76.5 3.3-112.3 20.5-42.5 61.1-65.4 88.5-102.1 15.1-20.3 10.2-37.1 18.8-53.6 4.2-8.1 14.6-4 15.6 3.8z"  fill="#005bbb" /><path d="M34-388.4c-27.8 86.9 35.5 126.2 32 202.2-3 67.1-67.8 95.1-89.3 152.6-5.2 14-0.7 64.9-1.4 65.9-5.5 7.5-15.7-4-7.6-8.5 9.5-5.3 12 13.5 1.4 10.8-7.6-1.9-9.6-18.5-11.1-24.4-24-94.1 71.3-119.9 88.8-195.4 14.2-61.5-40.3-114.7-37.4-176.6 2.2-47.2 27.4-48.4 24.6-26.6z"  fill="#c2e1ff" /><path d="M50.9-173.5c-13.2 64.7-91.6 89.7-103.4 154.7-7.1 39.1 26.4 81.3 25 93.1-1 8.5-14.1 1.4-7.5-4.1 7.7-6.4 10.5 11.6 1.1 7.8-10.3-4.3-21.1-34.8-25.3-44.7-36.4-84.3 19.4-124.1 68.8-180.8 9.4-10.8 14.1-27.9 23.9-37.2 8.6-8.1 19.5 1.2 17.4 11.2z"  fill="#fff" /><path d=""  fill="#c2e1ff" /><path d="M83.1-16.1c-2.2 40 20.1 95.1 6.1 96.6-9.9 1-10.7-14.6-0.7-14.6 9.9 0 9.1 15.7-0.8 14.6-12.2-1.4-26.3-89.1-20.6-100.3 4.2-8.3 14.9-4.3 16 3.7z"  fill="#c2e1ff" /><path d="M101.1-81.3c-6.8 37.3-11.1 72.7-4.7 110.5 1.5 8.7 16.4 51.1 0.4 52-10.4 0.6-10.5-15.9-0.1-15.3 10.4 0.5 8.7 16.9-1.6 15.2-11.5-1.8-9.5-31.1-10.9-38.8-7.7-42.7-11.9-84.1-2.2-127 2.8-12.5 19.8-8.9 19.1 3.4z"  fill="#005bbb" /><path d="M116.2-153.6c5.4 45.9 0.2 92.4 3 138.5 1.3 21.6 13.9 72.9 7.2 91.4-5.5 15.1-26.4-3.5-12-10.6 12.3-6.2 17.9 15.9 4.2 16.3-15.5 0.5-10.9-57.6-12.2-68.8-2.8-24-11.3-154.6-5.1-169.2 3.4-7.9 13.4-4.9 14.9 2.4z"  fill="#fff500" /><path d="M129.6-349.3c22.7 45 49 95.6 83.3 132.8 30 32.6 75.6 54.1 88.9 99.4 12.5 42.4-7.8 84.8-24.9 122.8-4.8 10.8-13.5 48.4-29.6 45.9-13.2-2-12.4-21.9 0.9-22.8 13.3-0.9 16.8 18.7 4 22.5-7.7 2.3-15.4-4.1-14.7-12.1 4.2-44.2 70-105.9 46.4-171.1-17.3-47.8-74-72.8-103.2-113.2-15-20.7-54.1-78.3-60.1-100.7-1.5-5.8 5.9-7.9 9-3.5z"  fill="#fff500" /><path d=""  fill="#fff" /><path d=""  fill="#fff500" /><path d="M182.8-398.3c-4.2 58.9 11.1 128.1 49.3 174.2 27.1 32.7 67.9 55.3 79.7 98.7 6.4 23.5-10 129.4-37.6 124.4-13.4-2.4-12-22.7 1.6-23.2 13.6-0.5 16.6 19.6 3.5 23-7.9 2.1-15.6-4.7-14.6-12.7 4.8-38.9 45.7-64.4 30.9-121.1-13.7-52.4-85.3-86.6-110-151.8-11.3-29.8-28.4-81.9-19.8-113.9 2.8-10.3 16.1-6.9 17 2.4z"  fill="#fff500" /><path d="M196.3-247.3c25.4 40.1 69.3 61.7 95.4 100.2 35.6 52.6 5.1 111.6-18 162.2-6.3 13.9-20.8 67.5-37.6 70-21.6 3.2-12.8-33.8 5.1-21.2 17.9 12.6-13.9 33.3-18.3 11.9-2.6-13.1 14.1-35.2 19.3-46.8 18.9-42.2 50.8-90.8 49.3-138.4-1.6-54-54.1-79.2-86.5-114.6-25.5-27.8-10.1-24.9-8.7-23.3z"  fill="#005bbb" /><path d="M202.8-396.4c-12.1 44.1-7.8 95.1 11.4 136.6 31.7 68.8 119.7 98.8 99.1 187.4-2.7 11.6-7.8 39.5-19.3 45.7-13.9 7.4-24.4-15.1-9.8-21 14.6-5.9 22.6 17.6 7.5 21.9-32.7 9.2 14-70 6.3-106.8-12-57.6-87.5-90.3-108.7-160.4-8.9-29.2-19.3-80.7-5.3-109.8 5.3-11.1 19.8-4.5 18.8 6.4z"  fill="#fff" /><path d="M228-188.5c90.2 74.5 84 106.8 39.6 210.1-6.2 14.5-15.8 55.1-30.3 62.5-14.2 7.3-24.4-15.7-9.5-21.3 17.4-6.6 21.9 23.9 3.3 22.6-22.4-1.5-2.4-32 1.3-40.1 18.8-41.6 46-88.8 49.9-135 1.8-21.3-4.1-41.8-17-58.9-6-7.9-49.9-47.8-37.3-39.9z"  fill="#c2e1ff" /><path d="M254.3-349c-80.9 84.7 49.7 146.9 66.2 219 11.6 50.7-18.6 98.1-40.3 141.5-5.5 11-19.5 61.1-37.9 51.3-11.9-6.4-4.4-25.1 8.6-21.5 13 3.7 9.7 23.6-3.8 22.8-22.3-1.3-2.8-31.6 0.9-39.6 19.9-42.6 52-87.3 57.4-134.8 8.5-74.6-78.4-107.7-89.8-177.1-3.5-21-1.2-70.5 22.3-81.6 13.3-6.3 22.7 9 16.4 20z"  fill="#c2e1ff" /><path d="M271.4-308.7c-45.5 63.3 50.3 121.1 57.8 181.4 6.7 53.4-27.9 101.4-50.9 146.6-6.2 12.2-25.6 75.2-44.9 64.5-11.9-6.7-3.9-25.5 9.2-21.6 13.1 4 9.3 24.1-4.3 23-23.4-1.8-0.8-35.2 3.1-43.3 22.8-48.3 60.2-98.7 69.9-151.6 12.8-69.6-58.4-102.5-67.4-165.4-8.7-60.7 36.7-60.3 27.5-33.6z"  fill="#fff500" /><path d="M287.3-334.2c-20.3 15.3-34.6 36.5-33.2 62.8 2.4 46.9 47.3 75.3 65.2 115.6 27.5 61.9-14.1 121.2-41.2 174.8-6 11.8-19.3 59.7-36.7 56.7-13.4-2.4-12-22.6 1.5-23.2 15.9-0.7 15.6 24.4-0.3 23.3-21.3-1.4-4.1-28.5-0.3-36.6 21.3-45.2 53.1-90.4 65.6-139 20.9-81.2-72.4-116.2-70.6-191.8 0.5-20.3 13.3-61.6 36.5-67.6 15.7-4.1 22.7 14.4 13.5 25z"  fill="#005bbb" /><path d="M305 41.9c-6.9 9.8-21.7 52-38.8 42-13.9-8.2 0.1-29.4 13.1-19.8 11.1 8.2 0.7 26-12 20.4-18.6-8.3 10.3-54.5 20.8-60.5 12.2-6.9 22.2 7 16.9 17.9z"  fill="#fff500" /><path d="M317-150.8c25.6 54.5-9.8 111.2-34.1 158.7-6.7 13.1-30.9 86.9-50.4 76-11.9-6.7-4-25.5 9.1-21.6 15.3 4.6 6.7 28.3-8 22.1-20.6-8.7 34.5-95.4 58.9-148 26.4-57.1 8-58.6 12.9-86.4 1.1-6.5 9.2-6 11.6-0.8z"  fill="#005bbb" /><path d="M321.4-388.4c-32 36.4-87.5 52.2-82.5 110.7 7.3 85.9 112.9 104.2 78.9 210.1-4.1 12.6-9.8 33.9-19.4 43.3-13.4 13.2-30-13.3-12.3-19.6 17.7-6.4 21.7 24.7 2.9 23-28.7-2.6 28.1-73.1 16.5-122.5-16.5-69.9-108.5-104.1-77.9-188 9.1-24.9 54.4-73.8 80.3-81 15.1-4.2 22.3 13.6 13.5 24z"  fill="#fff500" /><path d="M355.5-63c-23.5 31.9-49.9 61.2-70.1 95.5-6.9 11.8-19 50.9-33.6 52.9-18.6 2.4-15.9-28.7 2-23.1 17.9 5.6 2.4 32.7-11.5 20.1-12.1-11 56.8-133.4 94.5-163.7 12.6-10.1 25.9 6 18.7 18.3z"  fill="#c2e1ff" /><path d="M370.8-393.3c-16.4 53.2-96.9 69-96 128.4 0.5 36.1 30.4 63.3 45.8 93.6 24.9 48.8 9.3 97-15 142.3-5.1 9.5-13.7 37.6-28.7 34.2-18.6-4.2-5.1-32.9 10-21.3 15.1 11.7-9.2 32-18 15.1-4.6-8.8 36.8-79.2 42.3-96.2 27.5-85.1-64.8-121.8-52-196.3 7.5-43.7 47.6-61.8 75.9-90.3 6.6-6.7 12.1-21.3 20.9-25 10.4-4.4 17.9 6.3 14.8 15.5z"  fill="#fff500" /><path d="M392.2-396.2c-4.8 59.8-79.4 83-81.6 140.2-1.2 30.7 18.9 57.8 28.2 85.9 14.2 43.4 2.7 84.7-18.6 123.5-4.9 8.9-11.3 28.7-24.9 25-18.9-5.1-3.9-33.9 11.1-21.4 15 12.6-10.7 32.4-19.1 14.7-4.2-8.9 31.2-66 36-81.7 21-68.5-42.3-114.8-27.2-176.9 8.9-36.5 41.4-56.3 62.5-85 7.2-9.8 9.1-24 16.5-32.8 7-8.3 18-0.8 17.1 8.5z"  fill="#005bbb" /><path d="M410.5-398.4c5.9 58.3-45 89.9-56.7 141.7-7.5 32.9 7.3 65.4 9.6 98 3.3 46.9-18.4 86.8-43.4 124.7-6.4 9.7-18.1 39.4-33.5 34.8-19-5.6-3.1-34.4 11.8-21.3 14.9 13.1-11.6 32.6-19.6 14.4-3.4-7.6 55.7-97.3 62.5-119.4 16.2-52.5-17.1-103.3-2.2-155.2 8.6-30.2 31.2-52.6 44.5-80.5 5.5-11.4 4.5-34.5 12.4-43.1 5.6-6.1 13.9-1.3 14.6 5.9z"  fill="#005bbb" /><path d=""  fill="#005bbb" /><path d="M439.3-251c-9.5 42.6-11 87.2-28.9 127.5-24.4 55.3-73.9 92-108.3 140.4-8.7 12.2-34.7 77.2-52.7 66.9-16.3-9.4 4.8-32.5 15.7-17.1 10.8 15.4-18 27.5-21.4 9-6.2-34.3 105-151.7 127.6-181.6 50.8-67.2 29.2-108.6 49.3-151.3 5.2-11 19.5-4.6 18.7 6.2z"  fill="#005bbb" /><path d="M456.8-160.1c-24.9 73.9-80.3 113.3-130.6 168.4-18.7 20.5-35.3 59.2-50.4 73.9-4.8 4.7-12.8 4.4-17.2-0.7-10.6-12.2 9.5-27.9 18.7-14.6 7.9 11.3-7.7 24.9-17.8 15.5-16.4-15.2 31.1-73 40.8-85.4 29.3-37.2 68.7-64.4 98.7-101 13.3-16.3 29.8-59.1 40.2-68.3 9.1-8.1 20.1 1.9 17.6 12.2z"  fill="#005bbb" /><path d="M473.9-86.4c-18.5 36.8-42.6 70-62.8 105.8-5.9 10.4-21.5 71.9-37 62.5-9.5-5.8-2.4-21 8.2-17.3 12.4 4.3 4.6 23.4-7.2 17.8-31-14.6 64.1-165.3 79.4-182.4 9.7-10.9 24.1 1.5 19.4 13.6z"  fill="#c2e1ff" /><path d="M490.6-186.1c-43.8 119.9-72.4 123.7-151.3 210.4-8.9 9.7-40.1 59.7-46.9 60.6-18.6 2.4-15.9-28.6 2-23 17.9 5.6 2.4 32.7-11.5 20-11.4-10.4 6.4-32.1 11.8-41.2 33.3-56 89.6-90.2 127.9-141.8 23.6-31.8 31.2-69.6 48.6-95.1 7.6-11.1 22.3-1.6 19.4 10.1z"  fill="#005bbb" /><path d="M506.5-306.6c-6.6 66.6-44.7 177.3-86.1 229.7-30.9 39.1-73.3 66.7-104.3 105.6-9 11.3-31.5 65.2-48.7 55.1-16.3-9.5 5-32.5 15.7-17.1 10.8 15.5-18.2 27.4-21.4 8.9-1.3-7.6 5.4-15.9 8.6-22.1 37-69.5 97.8-103.6 142.7-164.1 32-43.1 45.8-95.9 61.2-146.5 4.7-15.4 6-43.9 15.4-56.5 6.2-8.4 17.3-2 16.9 7z"  fill="#c2e1ff" /><path d="M521.5-368.9c14.7 73.9-42.8 226.6-86.4 287.3-22.2 30.9-50.9 55-78.6 80.7-9.7 9-31.5 43.6-47.2 37.1-19.4-8 0.5-36.7 14.8-21.2 16.7 18.1-23.3 33.4-22.9 8.8 0.2-14.6 114.3-117.9 135-153.7 29.4-50.5 56.7-126.8 67.8-184.3 3.2-16.8-2.5-41.4 3.1-56.4 2.9-7.7 12.6-5.2 14.4 1.7z"  fill="#c2e1ff" /><path d="M541.1-295.9c-16 61.2-64 177.1-100.7 228-27.7 38.5-65.3 67.6-95 104.3-8.3 10.3-27 56.5-43.5 47.5-16.2-8.8 3.8-32 14.9-17.1 11 14.8-16.9 27.4-20.7 9.3-7.5-35.3 106-136.3 128.8-167 39.7-53.3 60-119.7 84.7-180.8 4.2-10.3 6.6-23.2 12.3-32.7 6.6-11.1 21.1-2.8 19.2 8.5z"  fill="#fff" /><path d="M557.4-344.4c-9 67.2-70.1 212.5-107.8 269.9-19.4 29.5-43.6 54.8-67.8 80.3-9.6 10.1-36.2 49.7-45.7 53.5-18.3 7.2-23.4-25.1-3.8-23.9 19.6 1.2 10.7 32.6-6.6 23.3-17.9-9.6 7.1-36.5 13.4-45 34.5-46 79.4-81.7 108.3-132.3 30.2-52.8 52.2-113.7 74.2-170.4 5.9-15.1 10.6-52.3 18.6-62.8 6.5-8.5 17.6-1.7 17.2 7.4z"  fill="#005bbb" /><path d="M571.8-22.3c2.3 12.9 24.4 102.6 6.6 103.3-10.6 0.4-10.3-16.4 0.3-15.6 10.6 0.8 8.5 17.4-2 15.5-11.9-2.2-8.6-31.6-9.5-39.5-2.2-19.7-10.7-43.3-9.5-62.8 0.5-8.7 11.9-8.2 14.1-0.9z"  fill="#fff" /><path d="M591.8-168.1c-22.7 65.7-0.1 126.8 7.9 192.4 1.2 9.6 11.9 57.6-4.8 57.3-11.1-0.2-9.9-17.7 1.2-16.3 11 1.4 7.9 18.7-2.9 16.1-13.9-3.3-9-58.8-10.4-70.7-7.3-58.9-27.1-114.5-13.7-174.3 4.5-20.1 26-25 22.7-4.5z"  fill="#fff500" /><path d="M583.4-396.2c-8.5 30.4-14.1 61.6-23.7 91.8-18.4 57.7-56 139.2-83 194.5-6.9 14.1-31.6 75.4-52.7 67.4-19.4-7.3-0.6-36.2 13.9-21.3 14.5 14.8-14.7 33.1-21.6 13.5-2.5-7.1 41.3-73.9 48-88.1 27-56.9 55.5-117.3 76.2-176.7 9.5-27.2 10.4-63.6 23.9-88.6 6-11.1 20.6-3.6 19 7.5z"  fill="#005bbb" /><path d=""  fill="#c2e1ff" /><path d="M609.1-229.2c-36.8 65.5-53.3 127.9-40.8 203 2.7 16.1 20.4 93.5 13.9 104-7.6 12.3-22.5-7.9-8.5-11.6 11.9-3.2 12.8 17.3 0.6 15.1-13.1-2.3-10.4-44.9-11.7-54.6-13.2-95-29.4-162 17.2-252.4 14.5-28.1 38.8-27.1 29.3-3.5z"  fill="#fff" /><path d=""  fill="#005bbb" /><path d="M609.1-328.8c-34.8 60.5-70.1 123.3-95.8 188.2-6.9 17.3-46.7 127.5-53.1 132.2-15.8 11.5-24.3-21.5-4.9-18.9 16.6 2.1 7.2 28.3-6.9 19.3-19-12 30-104.7 36.5-121.3 21.7-55 46.7-105.8 74.9-157.6 8.2-15 17.5-48.1 31.9-57.8 11.1-7.4 21.6 5.1 17.4 15.9z"  fill="#c2e1ff" /><path d="M609.4-340.8c-42.2 72.6-79.1 150-110.8 227.7-5.5 13.4-25.6 84.4-45.3 74.5-13.9-7-1.7-28.2 11.3-19.9 13 8.4-1.3 28.3-13.4 18.5-10.5-8.5 31.6-94.1 39.7-114.2 19.2-48 43.2-92.3 67.1-138 8.6-16.5 18.4-53.9 34-64.4 11.1-7.5 21.6 5 17.4 15.8z"  fill="#005bbb" /></svg>