<svg width="1200" height="675" viewBox="-500 -500 1200 675" xmlns="http://www.w3.org/2000/svg"><path d="M-500-500h1200v675h-1200z" fill="#000"/><path d="M-397.5 11.4c7.6 6.1 64.2 55 54.8 64.6-3.7 3.7-8.4-3.5-3.5-5.4 4.9-1.9 6.1 6.7 0.9 6.4-5.8-0.4-12.5-18.1-15.5-22.3-7.9-11.1-35.3-32.4-39-41.6-0.6-1.5 1.1-2.4 2.3-1.7z"  fill="#fff" /><path d=""  fill="#fff500" /><path d="M-397.8 27.2c9.8 7.5 45.8 32.8 45.2 46.4-0.2 4.6-7.6 2.6-5.5-1.5 2.1-4.1 8 0.8 4.4 3.6-4.9 3.8-17.7-19-20.5-22.2-7.8-8.8-33.5-32.6-23.6-26.3z"  fill="#c2e1ff" /><path d="M-395.1-110.2c17.3 39.4 89.1 146.7 87.2 183.8-0.4 8.5-13.8 2.3-7.7-3.5 5.2-5 11.5 5.3 4.6 7.6-7.4 2.5-22.4-52.3-25.8-60.2-15.3-34.9-59.1-92.3-65.4-125.4-0.9-4.5 5-5.8 7.1-2.3z"  fill="#fff500" /><path d="M-395.3-94.9c2.3 4.7 19.7 29.2 13.6 32.3-3.9 2-6.7-4.3-2.6-5.9 4.1-1.6 6.2 5.1 1.9 6.1-5.6 1.5-19.6-26.3-19.6-30.9 0-3.9 4.7-4.4 6.7-1.6z"  fill="#fff500" /><path d="M-397.1-16.8c8.8 8.5 81.9 81.6 67.7 93.3-4.6 3.9-9.3-5.1-3.4-6.6 5.8-1.6 6.3 8.5 0.4 7.5-6.7-1.2-16.6-30-20.6-36.3-9.1-14.4-43.5-44.6-47.2-56-0.6-2 1.7-3 3.1-1.9z"  fill="#fff" /><path d=""  fill="#c2e1ff" /><path d=""  fill="#fff500" /><path d="M-395.2-116.6c17.1 40.7 90 152.7 87.9 190.2-0.4 7.3-12 4-8.6-2.4 4-7.5 13.6 3.8 5.5 6.5-7.6 2.6-22.6-53.7-26-61.7-15.6-35.9-60.2-96-66.1-130.4-0.8-4.7 5.2-5.8 7.3-2.2z"  fill="#fff" /><path d="M-392.1 28.9c9.1 7.3 42.2 31.6 41.4 44.5-0.3 4.7-7.8 2.6-5.5-1.6 2.2-4.1 8.1 0.9 4.3 3.8-5.3 4-15.1-16.3-17.7-19.5-7.5-9.1-28-30.9-22.5-27.2z"  fill="#fff500" /><path d="M-379.8 62.6c1.8 1.7 12.9 9.3 8.8 12.6-2.5 1.9-5.3-2.1-2.7-3.8 2.7-1.7 5 2.7 2.3 4.1-7.5 3.6-14-17.3-8.4-12.9z"  fill="#fff" /><path d="M-362-315.3c-37.5 91.9 26.2 231.3 51.9 323.5 2.3 8.3 21.9 69.1 11 70.4-6.8 0.9-7.6-9.9-0.8-10 5.8-0.1 6.9 8.5 1.3 9.9-9.8 2.4-15.1-47.4-17-54.9-22.4-89.5-65.4-180.4-71-273.2-1.3-21-1.4-54.4 10.8-72.7 5.3-7.9 15.7-1.2 13.8 7z"  fill="#fff500" /><path d="M-354.9-6.6c7.6 11.2 43.8 70.9 40.1 81.5-2.2 6.5-11.9 0.6-7.2-4.4 4.7-5 11.1 4.5 4.7 7-8.2 3.2-15.9-30.8-18.3-36.1-6.8-15.3-19.3-29.9-24.6-45.4-1.2-3.4 3.2-5.1 5.3-2.6z"  fill="#c2e1ff" /><path d="M-341.5-71.4c6.6 19.5 49.6 134.4 43.6 146.9-3.4 7-13.6-1-7.6-6 6-5 11.9 6.6 4.4 8.6-2.7 0.7-5.5-1.1-6.1-3.8-9.8-49.3-27.6-95.2-42.4-142.9-1.7-5.4 5.8-7.6 8.1-2.8z"  fill="#c2e1ff" /><path d="M-329.2-145.2c9.3 35.5 47.4 192 42.1 219.6-1.9 9.6-16.2 0.4-8.2-5.3 6.8-4.9 12.3 7.9 4 9.5-10 1.9-14.8-61.5-16.5-70.8-5.6-31.6-30.3-129-30.5-151.8-0.1-5.7 7.3-5.9 9.1-1.2z"  fill="#005bbb" /><path d="M-324.9-395.8c-34.2 103.3-66.8 107.6-35.3 227.4 5.2 19.9 46.5 145.3 43.2 153.7-3 7.8-13.7-2.1-6.1-5.6 6.5-3.1 9.1 8.5 2 8.5-9.6 0.1-22.9-66.4-25.8-76.3-18-62.3-46.6-132.4-36.8-198.2 3-20 33.6-106.5 46.4-118 6.3-5.7 14.1 1.3 12.4 8.5z"  fill="#fff" /><path d="M-302.6-317.4c-28.8 71.6 3.9 133.7 17 204.2 6.8 36.6 7 73.9 8.5 110.9 0.5 11.6 6.9 72.8 2.9 78.8-5 7.4-15.3-3.4-7.6-8 7.7-4.6 12.5 9.5 3.5 10.4-11.6 1.3-11-98.9-11.5-111.7-1.2-32.1-2.4-64.2-8.9-95.7-9.2-44.4-28.5-86.9-28.9-132.8-0.2-18.3 0.8-47.2 11.2-63 5.2-7.9 15.6-1.3 13.8 6.9z"  fill="#fff500" /><path d="M-298.8-395.3c-37 97.5-68.5 113.7-39.6 226.2 6.3 24.6 47.1 174.5 40.3 187.8-3.6 7.1-13.8-1.2-7.6-6.1 7.3-5.8 12 9.7 2.7 8.9-10.7-1-20.5-86.8-23.1-99.2-14.5-70.3-48.8-146.6-31.9-219.1 5-21.4 31.6-95 46.8-107.7 6.7-5.6 14.4 1.8 12.4 9.2z"  fill="#005bbb" /><path d="M-281.8-159.2c18.9 62.1 14.3 124.3 14.7 188.3 0.1 13.3 4.4 33.6 0.5 46.2-2.8 8.8-16.1 1.2-9.9-5.7 7.3-8 15.6 8.9 4.8 9.7-12.5 1-6.9-108.7-6.8-122.4 0.3-23.1 0.3-46.3-2.6-69.2-1.6-12.7-11.9-34.6-9.4-46.6 1-4.9 7.1-4.3 8.7-0.3z"  fill="#005bbb" /><path d="M-276-395.4c-33.1 88.3-66.1 114.8-38.8 215.9 5.4 19.9 45.4 198.7 25.9 199.4-6.4 0.2-7.7-9.2-1.5-10.8 7.2-1.9 9.5 9.7 2.1 10.7-11.5 1.7-9.9-46.7-10.5-54.5-2.5-30.3-5.1-60.5-11.4-90.3-11-52.2-33.5-103.1-26.5-157.6 2.9-22 33.2-109.3 48.3-121.9 6.7-5.6 14.4 1.8 12.4 9.1z"  fill="#005bbb" /><path d="M-256.2 3.3c-0.5 10.4 2.6 76.6-8.4 75.8-8.1-0.5-6.6-13.3 1.4-11.8 8 1.4 5.1 13.9-2.7 11.6-8.8-2.6-7.3-73.7-0.9-80.2 4.2-4.4 10.2-0.7 10.6 4.6z"  fill="#c2e1ff" /><path d="M-244.5-80.9c0 34.1-4.5 68.1-6.5 102.1-0.5 8.6 3.1 59.1-8.8 58.2-7-0.6-7.3-11.1-0.3-12.1 8.2-1.1 9.2 11.9 1 12.1-12.7 0.3-5.1-42.4-4.8-50.1 0.8-17.5 2.4-103 8.1-113.2 3.2-5.8 10.7-2.7 11.3 3z"  fill="#fff500" /><path d=""  fill="#005bbb" /><path d="M-220.5-289.8c-4.1 49.2 16.7 95.1 20 143.6 3.6 52.7-9.8 105.1-15.5 157.2-1.3 11.6 1.6 62-8.3 67.8-8.6 5-13.7-10.7-3.7-11.7 8.5-0.8 9.1 12.6 0.5 12.5-15.7-0.2 11.8-165.6 13.7-183.6 6.2-59-15-110.3-18.7-168.1-0.4-5.5-4.3-23.3 5.3-24.1 4-0.3 6.4 2.8 6.7 6.4z"  fill="#fff" /><path d=""  fill="#fff" /><path d="M-197.8-244.8c18.2 138.2 4.8 124.5-8.7 254.5-1 9.9 0.2 71.3-11.5 70-9.8-1.1-4.6-16.6 3.8-11.5 8.5 5.1-2.8 17-8.3 8.9-10.7-15.8 15.6-154.9 19.4-180.4 10.5-68.7-7.8-112.4-5.1-141.2 0.6-6.3 8.8-5.7 10.4-0.3z"  fill="#fff500" /><path d="M-160.8-398.9c8.7 45.1 13.7 169.2 9.3 215.2-2.7 28.2-9.8 55.6-16.7 82.9-3.4 13.4-5.3 51.3-15.2 60.4-8 7.3-17.1-8.3-6.7-11.6 10.4-3.3 12 14.7 1.2 13.3-13-1.6-1.5-31.1 0-37.9 9.2-41 22.7-81.4 26-123.6 2.4-31.4-11.2-189.1-7.7-199.5 1.8-5.3 8.5-3.9 9.8 0.8z"  fill="#005bbb" /><path d="M-150-399.6c8.2 32.1 9.5 65.1 11.6 98 6.1 96.3-1.7 125.8-27.4 217.4-3.1 10.9-6.5 56-16.2 60.7-8.2 3.9-13.7-9.3-5.1-12.3 10-3.5 12.2 13.9 1.6 12.9-13.2-1.2-1.6-34.3-0.1-41.2 10.4-48.5 31.1-94.8 37.4-144.1 4.8-37.8-12.8-184.8-11-191.6 1.4-5.1 7.8-4.1 9.2 0.2z"  fill="#005bbb" /><path d="M-162.2-395.7c5.9 34.6 3.7 69.6 4.8 104.4 1 32.1 5.5 64.1 4.2 96.3-2.6 61.7-26.3 120.2-34.1 181.3-1.3 10.4-0.4 77-10.4 76.4-11.1-0.7-2.9-18.1 4.7-10 6.5 6.9-7 14.9-10 5.9-14.9-44.9 28-184.8 35.2-235.9 8.3-59-0.5-122.8-2.1-182.4-0.3-11.5-3.7-24.6-2.6-35.8 0.7-6.3 8.9-5.6 10.3-0.2z"  fill="#fff500" /><path d="M-148.2-115.4c-19.1 51.5-30 103.5-28.2 158.6 0.2 6.7 6.4 32.6-2.1 35.7-7.1 2.5-10.5-8.9-3.1-10.7 8.6-2 8.9 12.7 0.2 10.9-10.7-2.2-7.1-50.7-7.1-60-0.1-37.4 5.7-109.9 26.6-141.4 5.2-7.9 15.5-1.3 13.7 6.9z"  fill="#005bbb" /><path d="M-136.4-160.7c-18.3 61.1-41.4 117.9-42.9 182.6-0.2 10 6.9 50.2-0.9 56.2-7.1 5.4-13.4-8.1-4.6-10 8.8-1.9 8.8 13 0 11-11.2-2.5-6.5-58.9-6.3-68.9 1.2-46 17.3-138.2 41.1-177.1 4.8-7.8 15-1.8 13.6 6.2z"  fill="#c2e1ff" /><path d="M-124.7-400c21.1 59.2 32 139.9 16.4 201.3-11.8 46.5-38 88-51.1 134.2-8.9 31.4-7.7 95.7-12.5 102.8-5.1 7.4-15.3-3.5-7.6-8.1 9.1-5.4 11.9 12.8 1.6 10.4-10.5-2.4-5.2-39.8-4.7-47.6 4.3-83.1 49.4-138 64.8-213.9 9.3-45.8 1.6-97.3-6.8-142.7-2.1-11.3-7.7-23.5-8.5-34.8-0.4-5.3 6.4-5.9 8.4-1.6z"  fill="#fff" /><path d=""  fill="#fff" /><path d="M-102.7-336.7c6.8 46.1 13 94.7-0.3 140.2-17.1 58.4-52.8 108.1-62.4 169.4-3.2 20.8 2.1 99-0.3 103.2-4.3 7.3-14.6-2.3-7.7-7.1 8.2-5.6 12 11.2 2.3 9.7-8.7-1.3-6.8-24-7.4-30.1-12.1-125.4 29.8-149.7 62.9-255.2 13-41.2-0.5-122.4 2.8-131.2 2-5.4 8.8-3.8 10.1 1.1z"  fill="#c2e1ff" /><path d="M-89.1-216.2c-14.2 68.9-64.2 123.1-73.8 194.6-3.3 24.6-2.8 49.4-0.2 74 0.4 4.2 7.7 29-3.8 26.3-6.9-1.7-3.7-12.4 3-10 5.7 2.1 3.6 10.9-2.5 10.1-8.4-1.1-7.1-22.8-7.7-28.5-17.2-143.9 36.8-155.9 70.2-267.1 2.9-9.6 16.4-11.3 14.8 0.6z"  fill="#c2e1ff" /><path d="M-76.9-132.6c-35.2 38.9-61.8 82.3-60.5 136.5 0.4 17.3 14.7 68.8 12.5 71.8-4.7 6.3-11.9-5.4-4.1-6.8 6.6-1.1 6.1 10-0.4 8.3-7.5-2.1-11.1-28-12.8-34.6-16.7-65.2-0.4-126.7 42.2-178 13.4-16.1 35.8-15.7 23.1 2.8z"  fill="#fff" /><path d="M-64.9-183.5c-32.4 58.3-79.3 101.3-85 171.7-1.5 18.9 10.5 82.5 8.3 87.4-3.4 8-14.2-2.7-6.1-6.2 8-3.4 8.4 11.7 0.2 8.7-7.7-2.8-9.3-30.5-10.6-37.7-13.5-76 11.1-139.5 55.6-200.2 7.9-10.7 14.8-25 24.1-34.3 7.5-7.5 17.4 2 13.5 10.6z"  fill="#c2e1ff" /><path d="M-54.5-10.2c-1.7 29.6 28.3 78.5 27.8 84.2-0.4 4.8-8.1 2.4-5.6-1.8 2.8-4.9 8.9 2.8 3.5 4.5-15.8 4.8-36.9-75.5-37.5-86.5-0.4-7.8 10.7-7.7 11.8-0.4z"  fill="#c2e1ff" /><path d="M-42-22.3c-8.6 42.8 27.6 82.7 26.4 96.1-0.5 4.9-8.2 2.4-5.7-1.8 2.9-5 9 2.9 3.5 4.5-5.9 1.7-13.9-18.2-16.1-22.1-13.4-23.8-23.5-50.3-21.2-78.1 0.7-8.7 13-6.9 13.1 1.4z"  fill="#fff500" /><path d=""  fill="#005bbb" /><path d="M-17.7-97.8c-29.5 27.8-54.7 60.9-49.9 103.7 2.2 19.3 9.7 37.4 19 54.3 0.4 0.7 13 17.9 4.1 16.6-3.5-0.5-3.3-5.8 0.2-6.1 4.1-0.3 4.3 6.2 0.1 6.1-6.7-0.2-16-23.7-18.7-28.9-27.5-53.3-18.7-106.9 21.9-150.5 15.6-16.8 36.6-11.9 23.3 4.8z"  fill="#fff500" /><path d="M-6-125.5c-35.4 33.1-77.6 65.1-78.7 118.1-0.5 24 25.5 78.2 25.2 81-0.6 5.8-9.6 1.1-5.1-2.7 5.3-4.5 7.3 7.9 0.8 5.3-8.8-3.5-17.6-29.7-21-38-28.9-68.7 4.1-123.8 55-169.6 18-16.2 38-10.6 23.8 5.9z"  fill="#c2e1ff" /><path d="M5.9-125.7c-34.1 33.6-78.1 64.7-79.7 117.3-0.8 26.4 27 78.5 26.6 82.4-0.6 6.7-10.4-0.5-4.2-3.1 5.3-2.2 5.4 7.7 0.1 5.7-8.9-3.4-18.4-29.9-22.1-38.2-26.4-59.7-4.2-112.9 40.7-155.6 8.1-7.8 17-18.9 26.7-24.5 10.7-6.1 18.9 7.6 11.9 16z"  fill="#fff500" /><path d="M18.3-297.7c-19 38.9-26 81.7-51 117.9-33 48-83.2 81.8-97.7 141.2-6.7 27.3-5.4 55.7 1.1 82.8 0.9 3.7 14.9 37.6 3 33.2-4.5-1.7-2.7-8.7 2.1-8 4.8 0.7 4.5 7.9-0.3 8.3-7.9 0.6-12.1-25.6-13.7-31.1-39.6-139.3 48.6-162 104.3-257.5 15.9-27.3 20.8-72.3 38.4-95.1 6.1-7.9 16.4-0.2 13.8 8.3z"  fill="#fff" /><path d="M30.3-289.1c-20.6 36.1-29.4 77-54 111.1-33.8 47.1-85.9 79.5-101.4 138.4-7.1 27.2-5.7 55.6 1.3 82.6 0.8 3.3 15.7 38 4.5 34.2-4.4-1.5-2.9-8.3 1.7-7.7 4.6 0.5 4.6 7.5 0 7.9-7.9 0.8-13.1-26.2-14.8-31.9-42.1-137.5 51.5-161.9 108.3-255.3 15.9-26.1 20.7-66.1 40.5-88.7 6.8-7.8 17 0.8 13.9 9.4z"  fill="#c2e1ff" /><path d="M24.1-394.5c-36.2 61.1-34.2 125.3-61.4 187.2-21.4 48.6-64.9 82.2-88.2 129.6-7.3 14.9-16.6 70.1-26.6 65.2-9-4.5 1.5-17.5 7.8-9.7 6.3 7.9-8.7 15.2-11.1 5.5-14.1-57.5 70.1-142.4 96-184.6 30.3-49.6 29.1-110.2 50.3-163.4 4.4-10.9 10.9-34.5 21.1-41.2 8-5.2 15.3 3.8 12.1 11.4z"  fill="#c2e1ff" /><path d="M54-279.1c-25.1 35.1-36.8 77.5-64.3 111.3-36.1 44.4-90.5 75.2-104.4 134.6-9.6 41.3 16.5 102.7 15.6 107.1-1.5 6.7-11.4 0-5.7-3.8 6.7-4.6 7.5 10.1 0.3 6.3-10.8-5.7-18.1-41.8-20.7-53-26.4-110.5 58.9-145.4 113.3-219.6 18.9-25.7 31.1-74.3 52.3-94.3 8-7.5 17.9 2.7 13.6 11.4z"  fill="#c2e1ff" /><path d="M64-5.4c0.2 10.9 18.7 81.9 13.2 83-6.1 1.3-7.7-8.4-1.4-9.1 6.2-0.6 6.7 9.2 0.4 9.2-9.7-0.1-25.1-73.1-23.3-83.6 1.1-6.8 10-5.5 11.1 0.5z"  fill="#fff500" /><path d=""  fill="#c2e1ff" /><path d="M88.4-361.1c-76.7 52.1-67.7 105.1-111.7 174-26.5 41.6-69 70.5-92 114.5-10.4 19.9-16.4 41.9-17.3 64.3-0.1 3.3 4.1 34.5-7.8 26.4-5.1-3.5-0.8-11.7 4.9-9.4 6.8 2.7 2 13.1-4.4 9.7-7.4-3.9-4.7-25.8-4.7-32.4 1.3-88.1 72.5-126.7 113.9-194.4 37.2-60.8 37.4-119 99.9-165.5 12.8-9.5 34.7-1.2 19.2 12.8z"  fill="#005bbb" /><path d="M83.8-390.3c-22.6 17.7-44.4 36.3-59.9 60.9-23.9 37.8-28.3 83.4-47.5 123.2-23.1 48-67.9 79.7-93.5 126-4.7 8.5-17.4 59.9-28 53.4-9.2-5.5 3.1-18.4 9.1-9.5 5.1 7.6-7.3 15-11.6 6.9-2.7-5.2 0.8-14.2 2-19.3 12.2-55.2 51.2-90.8 85.2-133 41.8-51.8 42.5-120.5 80.4-174 12.5-17.6 32.7-43.2 52.8-52.4 11.7-5.4 19 9.7 11 17.8z"  fill="#fff500" /><path d="M48.6-392.2c-49.9 55.2-50 110.5-75.6 175.2-14.5 36.6-40.5 64.3-65 94.2-6.6 8-25.6 46.5-37.5 39.2-11.4-7.1 4.2-23.1 11.6-11.9 7.4 11.2-13.5 19.2-15.5 5.9-2.7-17.9 61.2-84.9 73.5-102.4 36-51 35-115.4 64.2-169.5 7.6-14.1 18.2-35.3 31.4-44.8 9.5-6.8 18.6 5.4 12.9 14.1z"  fill="#c2e1ff" /><path d="M122.3-30.2c2.9 12.6 39.7 104.1 23.3 109.1-7.6 2.3-10.6-9.9-2.8-11.3 7.8-1.5 9.5 11 1.5 11.6-10.6 0.8-8.6-33.1-10.1-39.8-5-21.5-20.7-46.4-21-68.3-0.1-5.7 7.3-6 9.1-1.3z"  fill="#005bbb" /><path d="M136.6-315.5c-67 60.7-65.9 99.2-114.4 159-31.3 38.6-80.7 64.9-100.3 112.3-19.9 48.2 9.1 82.6 6.2 97.2-1.6 7.7-12.1-1.9-4.5-4.2 6.4-1.9 5.4 9.7-0.6 6.7-9.1-4.6-14.8-32.3-17-41.5-22.3-93 64.3-133.1 111.9-195.3 34.2-44.7 50.2-97.2 91.8-137.1 21.7-20.7 41.6-14.3 26.9 2.9z"  fill="#c2e1ff" /><path d=""  fill="#005bbb" /><path d="M156.4-74.7c23.6 48.5 77 72.5 100.8 120.3 3 6.1 13.8 26.8 6.5 32.5-7 5.6-13.5-7.8-4.8-9.9 10.2-2.5 7.6 15.6-1.5 10.4-6.2-3.6-8.7-35.9-16.3-48-19.6-30.9-51.8-51.2-74.8-79.3-4.4-5.4-16-16.9-16.2-24.2-0.1-3.8 4.5-4.4 6.3-1.8z"  fill="#c2e1ff" /><path d="M172-224c-30.5 152.1 112.5 162.1 147.9 270.8 1.9 5.7 11.6 32.8-1.2 32.3-6.9-0.3-7.6-10.5-0.8-11.7 6.8-1.2 9.7 8.6 3.3 11.2-10.6 4.4-9.3-39.1-24.8-64.2-34.4-55.8-100.2-83.9-126.2-146.1-10.4-24.9-22-69.4-11.1-95.9 3.2-7.7 13.2-3.7 12.9 3.6z"  fill="#c2e1ff" /><path d="M184.3-244.2c-48.6 160.8 102.7 177.2 138.8 289 1.8 5.6 12 35-1.1 34.4-6.9-0.3-7.6-10.7-0.7-11.8 6.8-1.2 9.7 8.8 3.2 11.4-10.2 4.1-11.1-42.6-23-63.6-35.1-61.5-105.9-92.9-128.5-163.1-8.7-27.2-16.5-74.8-2.2-101.5 4.2-7.8 14.5-2.6 13.5 5.2z"  fill="#fff" /><path d=""  fill="#005bbb" /><path d="M188.1-393.8c-27.6 47.8-80.2 69.7-115.2 110.4-49.5 57.4-42.8 95-116.2 161.6-6.3 5.7-27.5 32.7-35.3 15-4.6-10.5 10.3-19.1 17-9.8 6.8 9.3-5.9 20.9-14.5 13.2-15.2-13.4 45.5-57.5 54.4-66.6 38.5-39.8 52.3-94.7 88.6-135.7 22.6-25.4 51.8-43.1 77.1-65.5 11.5-10.3 19.7-23.8 30.7-34 8-7.3 17.7 2.8 13.4 11.4z"  fill="#fff" /><path d="M218.3-170.6c4.6 86.4 138.2 192.5 118.4 246.2-3.4 9.2-17 0.4-10.1-6.5 6.9-6.9 15.6 6.8 6.4 10.1-10.5 3.8-9.9-44.8-21.1-67.3-24.3-49.4-70-84.9-92-135.8-5.5-12.6-14.3-32.8-12.4-46.8 0.9-6.6 9.5-5.6 10.8 0.1z"  fill="#fff500" /><path d="M227-96.6c24.9 36.7 60.2 65 84.2 102.4 6.7 10.4 35.3 62.2 19.8 72.4-9.4 6.2-13.4-13-2.3-11.1 9.5 1.7 3.4 16.5-4.5 11-5.6-3.9-2.3-16-2.8-21.5-1.5-15.7-6.7-30.7-14.1-44.6-20.9-39.1-56-68.2-82.9-102.9-2.5-3.3-1.6-10.1 2.6-5.7z"  fill="#005bbb" /><path d="M243.9-237.5c-22.4 59.1-13.8 115.1 21.6 166.7 17.5 25.5 38 49 53.3 76.1 5.1 9.1 33.5 69.6 15.1 74-9.5 2.3-9.8-14-0.2-12 9.6 1.9 3.1 16.8-4.8 11-7.1-5.2-3.7-34.9-6.2-44-18.7-68.2-85.8-111.1-100.7-181.7-5.7-26.9-7.4-72.4 8.2-96.7 5-7.9 15.4-1.6 13.7 6.6z"  fill="#fff" /><path d="M255.2-172.1c-18.3 90.7 106.9 193.7 85.8 247.7-3.6 9.2-17.3 0.1-10.1-6.7 7.1-6.9 15.7 7.1 6.3 10.3-10.5 3.6-10.5-47.7-18.7-66.9-21.9-51.3-66.3-91.5-75.7-148.1-1.7-9.9-6-32.2 0.2-41.1 4.3-6.1 12.2-1.6 12.2 4.8z"  fill="#fff" /><path d="M267.9-233.3c-29.2 53.6-27.1 108.9 4.1 161 16.7 27.9 37.7 53.2 52.4 82.3 4.6 9.1 28.4 65.6 11.4 69.5-9.6 2.2-9.8-14.2-0.2-12.2 9.7 2 2.9 17-4.9 11.1-5.9-4.4-4.6-43.6-10.3-58.5-24.7-65.2-87-111.3-86.3-186.1 0.2-22.3 4.9-58.4 19.9-76.2 6.6-7.8 16.9 0.6 13.9 9.1z"  fill="#fff500" /><path d="M277.7 70.5c2.9 18.7-19.9 1.1-6.6-2.2 14.1-3.6 2.1 21.1-3.7 7.6-3.8-8.7 8.3-14.9 10.3-5.4z"  fill="#005bbb" /><path d="M291-380.4c-16 87.7-91.8 157.8-59.9 252.9 20.1 59.9 77.2 98.2 98.1 157.3 2.6 7.5-11.2 6.9-7.9-0.3 3.8-8.5 13.5 5.4 4.1 6-6.5 0.4-18.8-35.8-22.7-42.1-40.1-64.2-97.6-112.6-90.6-195.3 4.5-52.6 31.4-97.3 52-144.6 5.4-12.3 7.8-27 13.8-38.7 3.9-7.7 14-2.8 13.1 4.8z"  fill="#fff" /><path d="M303.5-319.6c-35.6 62.2-83 125.7-58 201.3 11.3 34.2 113.9 169.6 92.7 195.4-6.2 7.6-16.3-5.2-7.4-9.5 8.8-4.3 12.6 11.6 2.8 11.7-12.4 0.2 1.2-25.4-17.6-66.9-32.6-72-100.4-121.1-87.7-208.3 5.6-38.4 34.2-106.3 61.6-134.2 7.4-7.6 17.4 1.9 13.6 10.5z"  fill="#fff" /><path d="M315.1-226.1c-116.5 112.8 16.9 176.1 27.8 284.5 0.5 4.8 3.5 26.2-8.3 20.7-6.6-3.1-3.1-13.4 4-11.8 7.1 1.6 5.9 12.4-1.3 12.4-8.9 0-9.9-51.3-13.2-60.8-22.7-64.8-83.3-117.4-63-192.1 5.2-19.1 22.8-62.3 43.7-69.2 10.4-3.5 16 8.7 10.3 16.3z"  fill="#fff" /><path d="M327.1-164.7c-74.3 75.2 29.5 156.4 21.4 238.9-1.2 11.9-19.4 2.6-10.7-5.2 8.9-8 16 11.5 4.1 11.1-10.4-0.3-5.2-18-5.2-23.4-0.1-17.6-4.2-34.8-10.2-51.2-17.6-47.9-51.8-95.4-33.5-148.7 16.3-47.6 48.7-43.4 34.1-21.5z"  fill="#005bbb" /><path d="M335.5-2.4c4.2 10.6 28.3 78.9 9.7 82.3-8.6 1.6-10.4-12.1-1.7-12.8 8.7-0.6 9 13.2 0.3 12.9-11.4-0.4-5-29.3-5.6-35.9-1.2-13.5-12.2-33.2-10.6-45.6 0.6-4.5 6.2-4.4 7.9-0.9z"  fill="#fff500" /><path d="M350.8-363.9c-29.4 82.2-122.6 138.7-101.8 236.4 10 47.1 88.7 133.5 86.4 166-0.6 8.7-14.2 2.1-7.8-3.8 6.4-5.9 11.8 8.3 3.1 8.2-2.1 0-11.6-34.2-40-76.4-34-50.5-66.7-100.3-52.6-164.1 11.1-50.2 44.3-88.7 73-129.6 6.1-8.7 21.6-48.1 32.7-47.7 5.9 0.2 8.4 5.9 7 11z"  fill="#fff500" /><path d="M362.2-157c-60.4 46.8-40.4 100.2-19.9 162.8 5.8 17.7 18 52.1 9.7 70.3-5 11-19.5-4.1-8.4-8.7 9.5-3.9 12.5 12.9 2.2 12.5-8.4-0.4-8.4-58.6-11.3-69-12.8-46.3-40.9-93.1-19.3-141.5 5.9-13.4 22.3-41.2 38-44.6 11.3-2.5 15.8 10.9 9 18.2z"  fill="#c2e1ff" /><path d="M374.2-53.8c-5.8 22.8 3.7 122.7-7.1 132.4-8.2 7.4-17.2-8.5-6.7-11.7 10.5-3.3 12 14.9 1.1 13.4-12.4-1.7-1.6-38.5-1.3-46.9 0.7-26.2-10.2-66.7 0.8-91.2 3.5-7.8 13.6-3.5 13.2 4z"  fill="#005bbb" /><path d="M386.5-60.7c-10.2 25.1-5.8 130.6-16.1 139.5-8.4 7.3-17.3-9-6.6-12 10.7-3.1 11.9 15.4 0.9 13.7-12.6-1.9-0.8-38.7-0.3-47.2 2-32.6-2.6-67 7.5-98.6 3.1-9.6 16.3-4.7 14.6 4.6z"  fill="#fff500" /><path d="M397.8-147.1c-32.2 27.4-59.3 53.1-55.6 98.9 1 12.1 29.9 132.1 8.7 128.2-7.6-1.4-6.7-12.9 1-13.2 9-0.3 8.7 13.9-0.3 13.3-11.7-0.9-3.9-30.3-4-37.1-1.5-51.7-32.4-104.3-8-154.9 7.7-16 30.5-49 49.2-53.2 11.2-2.5 15.7 10.8 9 18z"  fill="#fff" /><path d="M410.3 68c-2.3 5.9-7.8 20-16.5 11.4-9-8.9 8.6-20.4 13-8.5 4.5 11.8-16.3 14.9-15.4 2.3 1.2-16.4 23.2-20.7 18.9-5.2z"  fill="#fff500" /><path d="M422 3.3c-3.7 10.8-19.5 83.5-33.8 77.3-9.7-4.2-2.3-19.1 6.9-13.8 9.2 5.2 0.2 19.2-8.4 13-8.3-6 15.4-76.9 22.9-84.2 6-5.8 13.9 0.7 12.4 7.7z"  fill="#fff" /><path d="M434.7-397.6c-6.3 119.9-133.7 147.3-160.2 238.4-16.8 57.9 29.1 104.7 27.3 120-0.9 7.1-11-0.9-4.4-3.4 5.6-2.2 5.5 8.3-0.1 6-12.1-5-25.3-44.7-29.7-56.5-43-115.9 69.7-155.4 122.9-232.8 16.5-24 26.8-68.2 32.4-76.2 4.1-5.9 11.8-1.7 11.8 4.5z"  fill="#fff" /><path d=""  fill="#fff" /><path d="M457.9-134.2c-21.2 46.2-53.6 80.5-62.3 132.5-1.8 10.7-6.5 87.3-22.3 82.1-9.4-3.1-3.8-17.7 5.3-13.6 10.6 4.8-1 20.2-8.6 11.4-6.7-7.8 5.6-36.6 7.1-45.9 10.1-63.2 23.6-125.4 67.1-175.7 6.6-7.7 16.8 0.8 13.7 9.2z"  fill="#fff500" /><path d=""  fill="#c2e1ff" /><path d="M480.8-175.2c-5.8 63.5-46.3 114-64.7 173.6-3.4 10.9-17.3 87.9-32 82-8.2-3.3-4.6-16.1 4.1-14.6 10.2 1.7 6.7 17.7-3.3 14.9-13.7-3.9 5-42.1 7.2-50.5 19.6-72.3 40.7-100.6 64.6-163.9 4.8-12.8 4.8-35.5 12.2-46.1 4.2-5.9 11.9-1.6 11.9 4.6z"  fill="#c2e1ff" /><path d="M493-328.6c-12.5 57.9-6.4 119.1-21.7 176-12.5 46.4-45.5 83.2-60.2 128.7-5.1 15.8-17.8 97.5-26.1 103.5-9.6 7-17.4-11.1-5.8-13.3 11.6-2.3 11.2 17.4-0.4 14.5-12.8-3.1 17.9-110.5 23.4-125.6 13.1-36.9 38.1-67.7 52-104.1 21.1-55.2 3.5-138.3 25.6-184.1 3.7-7.7 13.8-3.1 13.2 4.4z"  fill="#c2e1ff" /><path d="M503.6-157.3c5.4 64.3-12.8 127.1-40.2 184.7-4.9 10.2-22.3 58-36.2 54.6-13.2-3.3-3.1-23.5 7.5-15 10.6 8.6-7 22.7-13.1 10.5-0.5-1 39.4-83.6 44.9-97.3 13.7-34.3 23.7-70.5 25.8-107.6 0.6-9.8-1.6-21.1 0.2-30.6 1.3-6.8 10.1-5.3 11.1 0.7z"  fill="#c2e1ff" /><path d="M516.4-84.2c-2.5 28.7-34.7 155.6-60.9 165.9-12.9 5.1-16.5-17.6-2.7-16.8 13.8 0.8 7.6 22.9-4.6 16.4-14.1-7.5 19.9-53.1 24.6-63.2 8.8-18.9 30.4-104.8 31.7-106.8 4.1-5.9 11.8-1.8 11.9 4.5z"  fill="#fff500" /><path d=""  fill="#fff" /><path d="M540.5-14.5c-2.9 13.9-17.3 97.1-34.1 95.5-10.6-1-8.1-17.6 2.4-15.4 10.4 2.2 6.1 18.4-4 15.1-12.6-4.1 1.5-27.2 3.8-33.9 7.1-20.6 9.2-46.7 18.8-65.9 3.8-7.7 13.9-2.9 13.1 4.6z"  fill="#fff" /><path d="M552.4 6.4c-2.2 10.7-9.9 78-23.8 74-9.3-2.7-4.3-17 4.7-13.4 8.9 3.7 2.4 17.4-6.1 12.8-8.1-4.4 6.5-74.7 14.2-80.4 5.5-4.1 11.5 1.1 11 7z"  fill="#c2e1ff" /><path d=""  fill="#c2e1ff" /><path d="M574.7-122.5c3.3 23.4-16.5 205.8-32.6 202.6-8.9-1.8-5.3-15.7 3.4-12.9 8.6 2.8 3.6 16.1-4.7 12.5-11.4-5.1 3.9-56.2 5.7-66.5 5.7-31.6 13-63.2 16.4-95.1 1.2-11.7-2.9-31.7 1.4-42.2 2.3-5.5 9.3-3.5 10.4 1.6z"  fill="#c2e1ff" /><path d="M584.5-393.6c2.4 5.2 21.9 36.7 15.7 39.7-4.2 2-6.9-4.8-2.6-6.3 4.4-1.5 6.4 5.5 1.9 6.5-6 1.4-22.3-33-22-38.5 0.2-4.1 5.2-4.4 7-1.4z"  fill="#005bbb" /><path d=""  fill="#fff" /><path d=""  fill="#c2e1ff" /><path d=""  fill="#c2e1ff" /><path d=""  fill="#c2e1ff" /><path d=""  fill="#fff" /><path d=""  fill="#fff500" /><path d=""  fill="#fff500" /><path d=""  fill="#005bbb" /><path d=""  fill="#c2e1ff" /></svg>