<svg width="1200" height="675" viewBox="-500 -500 1200 675" xmlns="http://www.w3.org/2000/svg"><path d="M-500-500h1200v675h-1200z" fill="#000"/><path d="M-397.3 70.5c6.4 5.4-1.7 5.3-1.1 2.7 1-4 6.3 1.3 2.3 2.3-5 1.2-5.1-7.7-1.2-5z"  fill="#005bbb" /><path d=""  fill="#c2e1ff" /><path d=""  fill="#c2e1ff" /><path d=""  fill="#c2e1ff" /><path d=""  fill="#005bbb" /><path d=""  fill="#005bbb" /><path d="M-397.3 27.9c9.7 7.5 44.8 32.3 44.1 46-0.3 5.1-8.5 2.9-6.1-1.7 2.4-4.6 8.9 1 4.9 4.1-5.5 4.2-16.8-17.9-19.5-21-7.8-9.2-33.5-33.9-23.4-27.4z"  fill="#fff500" /><path d="M-397.4 2.8c8.1 7.2 69.9 62.9 58.5 73.5-4.5 4.2-9.7-4.5-3.9-6.4 5-1.7 7.2 6.3 2.1 7.4-6.6 1.4-12.3-16.9-14.8-20.9-2.6-4.1-55.9-63.4-41.9-53.6z"  fill="#fff" /><path d="M-391.6-46.9c8 13.9 88.3 112.1 71.2 124.3-6 4.3-10.8-7-3.6-8.4 7.3-1.3 6.9 10.9-0.3 9.1-7.6-1.9-14.1-30.9-17.5-37.9-14.9-30.5-36.9-55.4-55.6-83.3-2.5-3.8 3-7 5.8-3.8z"  fill="#fff" /><path d="M-376.6-84.5c7.1 29.8 75.6 140.1 68 159.6-3 7.5-14 0-8.2-5.6 5.8-5.5 12.7 5.9 5.1 8.5-9.5 3.2-17.1-37.8-19.7-44.6-15.1-39.7-41.7-74.6-54.7-114.9-2-6.3 7-8.6 9.5-3z"  fill="#005bbb" /><path d="M-366.2 43.3c3.9 4.2 26.6 26.9 21 32.7-3.4 3.5-8.7-2.1-4.9-5.2 3.8-3.1 8.4 3 4.3 5.7-5.8 3.8-11.2-11.5-12.8-14.1-0.2-0.4-15.8-26.8-7.6-19.1z"  fill="#fff500" /><path d="M-349.2-113.9c3.6 32.1 58.5 174.4 51.1 189.7-3.8 7.8-15.1-1.1-8.4-6.6 6.7-5.5 13.3 7.4 4.8 9.5-10.1 2.6-18.2-54-20.7-62.7-9.7-33.8-41.4-96.5-38.3-129.5 0.7-7.1 9.8-6.4 11.5-0.4z"  fill="#fff500" /><path d="M-336.7-82.3c5.4 23.6 47.5 145.1 40.9 158.3-4 7.9-15.3-1.4-8.5-6.8 6.9-5.5 13.3 7.7 4.8 9.8-10.7 2.6-15.9-48.5-18-56.7-4.9-19.5-32.9-89.9-29.3-104.5 1.4-5.6 8.4-4.7 10.1-0.1z"  fill="#fff500" /><path d="M-322.6-135.7c2.8 29.6 40.7 200.5 34.3 211.8-4.5 8.1-16-2.2-8.4-7.6 7.5-5.4 13.6 8.7 4.5 10.5-11.2 2.2-14.8-56.6-16.5-65.9-8.8-48.9-21.8-97.9-25.8-147.4-0.6-7.9 10.2-8.6 11.9-1.4z"  fill="#fff500" /><path d="M-310.4-7.3c2.7 10.3 24.9 84.6 12.7 86.1-7.6 0.9-8.3-11.2-0.7-11.3 7.7 0 7.1 12.1-0.6 11.3-8-0.8-21.5-74.6-21.6-84.8 0-6.3 8.2-6.5 10.2-1.3z"  fill="#005bbb" /><path d="M-296.3-121.7c7.9 64.3 16.4 129.6 19.6 194.3 0.2 3.5-2.4 6.5-5.9 6.6-8.3 0.2-8-12.9 0.3-12.2 7.1 0.6 7.4 11.3 0.3 12.2-11.9 1.6-8.8-28.4-9.4-35-1.7-19.9-19.3-163.4-15.7-168.6 3.3-4.8 9.5-2.2 10.8 2.7z"  fill="#005bbb" /><path d="M-281-290.4c-27.3 74.2 2.1 218.3 7.6 302.6 0.6 9.5 9.9 67.2-2.7 67.2-8.6 0-7.8-13.5 0.7-12.6 7.3 0.8 7.2 11.8-0.1 12.6-12.8 1.3-10.2-64.4-10.8-74.5-4.5-69.8-23.7-180.8-20.9-242.8 0.8-17.4 1.6-44.3 11-59.5 5.4-8.8 16.9-1.9 15.2 7z"  fill="#c2e1ff" /><path d="M-267.7-313.7c-39.6 91.6-5.1 213.4 0.4 320.1 0.5 10.2 9 73.6-3.8 73.3-7.4-0.2-8.4-11.3-1.1-12.7 8.5-1.7 10.5 11.9 1.8 12.7-12.8 1.1-9-62.6-9.5-72.7-3.2-67-25.6-208.6-21.1-259.1 1.9-20.7 5.5-52.6 18-70 6.3-8.7 17.8-0.8 15.3 8.4z"  fill="#fff" /><path d=""  fill="#fff" /><path d="M-241.4-372.9c-15.6 43.9-40.1 83.5-44.7 130.9-6.5 67.4 14.4 138.4 18.6 205.9 0.8 13.4 11.2 113.5-1.9 113.2-8.7-0.2-7.6-14 1.1-12.9 7.4 1 7.1 12.2-0.4 12.8-13.1 1.1-8.6-59.7-9-69.3-3-68.1-27.2-219.7-20.6-270.1 2.8-21 28.8-107.5 43.2-120.1 7.2-6.3 15.8 1.6 13.7 9.6z"  fill="#fff500" /><path d="M-231.3-221.3c16.7 73.3 55.7 139 111.2 189.1 27.7 25 51.6 50.9 66.3 85.7 1.9 4.5 11.4 19.7 5 23.9-6.3 4.2-10.9-7.5-3.4-8.7 7.5-1.2 6.8 11.4-0.5 9.3-4.6-1.3-22.8-52.9-33.7-68.1-34-47.7-84.3-77.5-113.6-129.9-17.2-30.7-32.5-64.6-41.3-98.7-1.7-6.6 7.6-8.7 10-2.6z"  fill="#fff500" /><path d="M-216.1-301.6c-4.5 44.3 8.6 86.8 28.5 125.9 38.8 76.4 120.2 123.1 147.8 204.8 2.6 7.6 17.6 44.7 8.4 49.4-7.7 3.9-11.4-10-2.7-10.3 8.7-0.3 6.1 13.9-1.9 10.5-5.3-2.2-17.2-63.1-26.8-82.5-36.8-74.5-108-105.6-148.7-204.1-10.6-25.5-26.8-68.2-18.2-96.1 2.5-8.2 13.1-5.1 13.6 2.4z"  fill="#005bbb" /><path d="M-202.9-319.6c-3.9 41.1 4.2 80.1 21.5 117.4 39.1 84.3 124 139.2 148.7 230.3 2.2 8 15.5 46.2 6.1 50.6-8.1 3.8-11.4-10.8-2.5-10.8 10.5 0 3.8 17-3.8 9.8-5.5-5.2-18.1-77.6-25.3-93.4-34.7-76.3-107.4-121.9-142.3-209.2-10.4-26.1-25-69-16.1-97.2 2.6-8.2 13.2-5 13.7 2.5z"  fill="#fff500" /><path d=""  fill="#fff500" /><path d="M-180.1-189.8c42.2 85 127.7 137.8 149.8 233.3 1.6 7.1 10 28.6 4.2 34.2-5.5 5.3-13.4-3.8-7.4-8.5 6-4.7 12.9 5.2 6.4 9.2-10.6 6.5-11-18.2-11.7-22.1-5.5-29.7-13.4-58.7-28.6-85.1-26.1-45.3-68.4-78.8-97.8-121.8-7.1-10.3-19-24.2-22.1-36.5-1.1-4.6 4.8-6.2 7.2-2.7z"  fill="#c2e1ff" /><path d="M-165.5-288.4c27.5 109 118 190 140.8 300.5 2 9.7 15.7 62.2 5.1 66.6-10.3 4.1-10.4-15.1-0.1-11.1 8.8 3.5 0 16.5-6.5 9.7-1.3-1.3-10.7-84.9-26.3-124.5-29-73.7-81.8-135.8-112.1-209.3-2.8-6.8-5.4-13.6-7.8-20.5-2.2-6.6 1.6-23.8 6.9-11.4z"  fill="#fff500" /><path d=""  fill="#fff" /><path d="M-140.6-394.8c30 58 84.1 97.6 113.6 154.9 31 60.1 22.9 133.5 22.9 198.8 0 10.6 6.6 66.5-4.8 69.6-11.8 3.3-9.5-17.9 1.3-12.2 9.2 4.9-2 18.1-8.3 9.9-8.5-11.2-1.3-51.7-1.4-66 0-53.4 5.1-110.3-6.2-162.8-14.8-68-71.5-106.8-108-162.2-5.2-7.9-13.8-18.1-16.1-27.2-1.2-4.5 4.6-6.1 7-2.8z"  fill="#fff500" /><path d=""  fill="#005bbb" /><path d=""  fill="#005bbb" /><path d="M-102.9-384.5c43.5 44.9 106.3 71.1 133.8 130.2 37.3 79.9-7.7 165.3-19.9 245.7-0.9 5.7-0.3 32.1-13.2 25.2-6.3-3.4-4.1-13.2 3-13.5 8.4-0.4 10.4 12 2.3 14.1-12 3.3-8.5-13.6-7.8-19.1 8.9-74.3 50.5-154.6 33.4-229.6-15.5-68.2-75.3-98-123.9-140.3-1.2-1.1-14.7-17.9-7.7-12.7z"  fill="#c2e1ff" /><path d="M-88.8 26.2c4.8 6.1 33.8 43.7 25.6 50.4-4.5 3.7-9.9-3.8-5-7 4.9-3.2 9.5 4.9 4.2 7.5-7.6 3.8-12.6-17.6-14.5-21.4-4.4-9-11.9-17.5-15.5-26.6-1.4-3.4 3-5.3 5.2-2.8z"  fill="#fff500" /><path d="M-76.6-324.5c114.6 111.8 86 156.9 77.9 302.4-0.8 14.8 1.1 92.1-4.1 99.1-6.1 8.3-17.4-4.6-8.3-9.6 9.1-5 13.9 11.5 3.5 12.2-13.8 0.9-6.8-46.9-6.6-55.1 1.8-69.7 16.3-141.9 11.2-211.4-3.9-53.8-32.4-92.3-70-128.4-0.2-0.2-10.2-14.1-3.6-9.2z"  fill="#005bbb" /><path d="M17.7-399.8c77.5 73.5 99 184.8 55.5 281.7-4.8 10.7-16.6 50.4-29.2 52.6-16.6 2.8-10.4-25.8 3.5-16.4 13.9 9.4-10.2 25.8-13.8 9.4-3.3-14.9 20.2-46.6 26.4-60.3 14.7-32.2 24.7-65.7 23.6-101.4-1.3-44.3-15.4-89.7-39.9-126.7-8.5-12.8-21.8-23.4-29.5-36.3-1.3-2.2 1.5-4 3.4-2.6z"  fill="#c2e1ff" /><path d="M-47.8-42.7c8.4 17 37.5 104.1 29 118.9-4.7 8.1-16.1-2.3-8.5-7.7 7.6-5.4 13.6 8.9 4.4 10.6-11.8 2.2-11-36.3-12-43.5-2.6-16.6-21.5-67.3-20.9-76.9 0.3-4.6 5.9-4.8 8-1.4z"  fill="#fff" /><path d="M-33.1-151.1c6.2 29.1 35.3 211.8 24.5 227.7-5.6 8.3-17-3.8-8.4-8.9 8.5-5.1 13.8 10.5 3.9 11.6-13.1 1.4-9.2-55.9-9.7-65-1.9-37.1-21.8-147.3-21.1-164.5 0.3-6.7 8.9-6.5 10.8-0.9z"  fill="#c2e1ff" /><path d="M29.9-400.1c81.3 90.9 86 199.6 33.9 305.4-5.5 11.2-19.1 56.2-31.2 58.9-11.5 2.6-14.6-15.8-2.8-17.1 11.7-1.3 12.8 17.3 1 17.3-6.1 0-10.3-6.3-8.2-11.9 23.1-60.3 63.5-115.1 64-182 0.3-44.5-12.4-90.6-34.3-129.2-6.3-11.1-24.3-27.3-26.9-39.1-0.6-2.8 2.7-3.9 4.5-2.3z"  fill="#fff" /><path d="M-11.2-333.2c126.3 94.1 53.1 200.7 28.2 318.8-5 23.8-5.7 88.5-14.2 93.8-7.8 4.9-14.8-7.8-6.6-11.8 9.7-4.7 13.9 12.7 3.1 12.8-13.7 0.3-5.4-36.6-4.7-43.6 7.7-85.2 46.4-154.8 52.9-225.2 3.6-38.4-6-77.7-28.6-109.1-1.6-2.3-38.2-40.7-30.1-35.7z"  fill="#c2e1ff" /><path d="M2.1-383.2c69.9 53 103.3 143.9 78.7 229.2-11 38.3-31.1 73.1-45.1 110.3-8.2 21.6-16.1 81.5-25.3 85.9-9.1 4.4-15.2-10.3-5.7-13.6 11.1-3.9 13.5 15.4 1.8 14.3-14.2-1.3-2.6-34.2-1.1-41.4 15.4-74 67.3-140.2 70.3-216.4 1.7-45.2-12.7-92.5-39.7-128.8-10.4-13.9-48.6-48.7-33.9-39.5z"  fill="#c2e1ff" /><path d="M15.6-371.4c62.2 53 87.6 141.1 64.4 219.4-12.3 41.5-34.6 79.2-48.7 120.1-7.9 22.8-14.4 87.3-23 91.9-8.6 4.6-15.1-9.4-6.1-13 10.6-4.2 13.7 14.5 2.3 13.8-13.9-0.7-3.7-33.9-2.5-41.1 12.9-78.4 63.9-146.4 72.4-221 4.9-43.6-6.1-90-28.9-127.5-1.4-2.3-40.4-50.2-29.9-42.6z"  fill="#fff" /><path d="M30.1-296.8c22.3 28.8 33.5 65.9 33.5 102.1 0.1 67-36.6 129-48.7 194.2-2.1 11.2-4.7 81.5-16 80.4-10.7-1-5.3-18 4-12.7 9.3 5.4-2.8 18.6-8.9 9.8-4.2-6-0.7-19.2-0.2-25.8 5.1-75.3 34-139.9 51-212.2 6.8-28.7 7.7-58.4 0-87-4.5-16.8-14.5-30.1-20.3-45.9-1.3-3.6 3.3-5.4 5.6-2.9z"  fill="#c2e1ff" /><path d="M48.9-4.4c-12.1 25.2-25 82.8-28.5 84.5-10.5 5.1-15.1-13.8-3.3-14 11.7-0.2 7.9 18.9-2.9 14.1-14.3-6.3 10.3-86.9 20.9-95.2 7.8-6.2 16.3 2.4 13.8 10.6z"  fill="#005bbb" /><path d="M78.9-400c53.3 144.7 45.3 200.5-23.1 333.4-5.2 10.1-18 55.2-30.4 54.3-13.4-0.9-7.2-22.4 4.7-15.9 13.9 7.6-7.3 25.1-12.2 10.1-4.2-13 70.8-150.4 77.5-183 10.9-53.1 0.1-110.4-14.5-161.8-3.1-11.1-9.9-23.8-11.1-35.1-0.6-5.7 6.8-6.5 9.1-2z"  fill="#fff500" /><path d="M75.3-106.7c-19 36.8-38.8 72.8-49.9 113-3.4 12.2-9.1 66.1-14 71.6-8.7 9.7-18.8-10.6-5.8-11.7 11.1-0.9 8.6 17.4-1.9 13.6-20.4-7.5 20.4-156.4 56.4-197 7.5-8.5 18.8 1 15.2 10.5z"  fill="#c2e1ff" /><path d=""  fill="#fff" /><path d="M100.9-188.4c-11.3 72.5-62.1 132.1-79.1 203.4-2.8 11.6-3.6 58.8-12.9 64.2-9.6 5.5-15.2-12.1-4.1-13 11.1-1 8.7 17.3-1.8 13.5-11.8-4.3-1.1-42.4 0.4-51.2 13.4-80.6 62.8-140.7 81.7-217 2.6-10.4 16.9-12.5 15.8 0.1z"  fill="#c2e1ff" /><path d=""  fill="#fff500" /><path d="M126-332.4c4 56 7.7 113.3-11.9 167-19.6 53.7-56.9 98.5-77.5 151.8-8.5 22.1-16.9 88.9-24.6 93.1-9.9 5.4-15.2-12.6-3.9-13.3 11.3-0.8 8.5 17.8-2.1 13.7-18.1-6.9 12.2-93.7 17.3-107.3 19.6-52.1 55.2-95.9 75.8-147.3 30.9-77.3 6.5-112.4 14.6-158.4 1.3-7.5 11.1-6 12.3 0.7z"  fill="#fff" /><path d="M140.8-206.8c-18.3 76.2-76.8 132.2-104.2 204.3-6.9 18.1-16.5 88.8-29.1 82.1-23.9-12.6 29.8-15.6 7.4-0.4-13.9 9.4-10.2-16.6-9.6-20.9 13-99.5 67-149 106.4-233.8 5.5-11.8 7.9-26.3 14.2-37.5 4.9-8.6 16.2-2.5 14.9 6.2z"  fill="#c2e1ff" /><path d=""  fill="#fff" /><path d="M167.7-398.7c10.4 162.9-10.7 203.3-96 335.9-5.9 9.2-35.3 66-38.5 66.8-11.4 2.7-14.7-15.5-3.1-17 13.6-1.7 11.5 21-1.5 16.8-14.5-4.6 2.2-30.8 5.5-38.1 27.3-58.9 74.4-106.4 98.6-166.9 14.3-35.9 20.4-74.5 22.5-113 0.7-11.9 2.2-89 2.4-89.1 4.3-3.3 9.3-0.1 10.1 4.6z"  fill="#c2e1ff" /><path d=""  fill="#fff500" /><path d="M193.9-0.5c-16.3 18.9-44.7 81.1-46.4 81.6-12.6 3.8-14.3-18-1.2-16.2 13 1.8 5.4 22.3-5.7 15.2-16.7-10.8 27-86.2 38.7-95.3 10.1-7.8 20.5 5 14.6 14.7z"  fill="#c2e1ff" /><path d="M206-111.4c-48.1 36.1-97.2 70.2-128.8 122.8-7.9 13.1-27.6 77.3-39.9 68.3-8.8-6.4 2.1-19.7 10.1-12.3 8 7.3-4.2 19.3-11.4 11.2-4.8-5.5 0.5-16.3 2.1-21.9 20.3-69.9 67.7-122.8 124.8-165.9 9.6-7.2 20.4-18.1 31.4-22.8 13.4-5.6 21 11.7 11.7 20.6z"  fill="#fff" /><path d="M220.3-196.7c-41.1 69.6-113.8 114.1-155.5 183.8-12.1 20.2-21.6 41.9-28.1 64.5-1.8 6.1-3.8 36.1-17 28-7.5-4.7-1.8-16.5 6.6-13.6 9.7 3.4 3.5 18.4-5.8 13.9-15.3-7.4 22.9-97.6 43.4-127.8 39.9-58.7 96.9-103.2 140-159.4 7.8-10.2 21.9-0.5 16.4 10.6z"  fill="#c2e1ff" /><path d="M232.4-108.5c-47.1 37-99.2 64.9-134.2 115.3-13 18.7-34.3 82.6-46.6 72.9-8.8-6.9 2.9-20.1 10.9-12.3 8 7.8-5.1 19.7-12.1 11.1-6.7-8.3 5.5-29.8 8.6-37.7 25.6-64.5 74.2-109.4 130.1-147.9 9.9-6.8 20.5-17.1 31.6-21.8 13.3-5.6 21 11.5 11.7 20.4z"  fill="#005bbb" /><path d="M242.2-398.7c32.1 68.9 55.4 146.3 10.9 215.8-28.7 44.8-76.5 73.6-115.7 108.4-11 9.8-51.6 64.5-64.1 60-17.6-6.3 4-30.7 12.4-14 8.4 16.7-24 19.6-18.6 1.6 15.8-52.7 145.4-123.2 179.1-182.1 19.6-34.2 22.9-74.6 14.9-112.8-5.4-25.7-21.9-49.4-26.7-74.4-1-5 5.5-6.3 7.8-2.5z"  fill="#005bbb" /><path d="M259.7 44.9c-3.2 8.3-7.5 41-21 36.3-9-3.2-5.7-17 3.7-15.9 11.1 1.4 8 18.7-2.9 16.1-14-3.3 0.1-40.1 6.3-45.7 7-6.4 15.7 1.2 13.9 9.2z"  fill="#fff" /><path d="M268.7-374.7c35.9 76.3 38.4 169.9-24.4 233.2-29.7 29.9-66.9 51.1-99.2 77.9-9.6 8-65.8 67-66.6 67-15.7 0.2-10.4-25.3 3.9-18.9 12.2 5.5 2.5 24.3-9 17.6-14.4-8.5 8.1-30.8 13.5-37.9 47.9-61.3 132.8-93.3 172-157.5 20.4-33.4 25.8-74 20.8-112.4-3.1-23.4-15.1-44.1-19-66.6-0.9-5.1 5.7-6.4 8-2.4z"  fill="#005bbb" /><path d="M283.4-400.1c41.7 81 51.3 197.8-7.3 273.5-22.9 29.5-55 49-84.9 70.5-11.1 8-47.8 49.1-60.7 42.3-11.2-5.8-4.3-23.3 7.8-20 14.2 3.8 7 25.9-6.7 20.5-7.1-2.8-9-11.9-4-17.4 50-54.8 131.1-82.4 160.2-154.6 19.8-49 19.9-107.2 7.4-158-3.8-15.6-20-40.1-19.4-55.2 0.2-4.4 5.6-4.8 7.6-1.6z"  fill="#fff" /><path d="M296.4-328.2c50.6 189.4-95.6 214.8-179.3 306.3-9.2 10-42.5 71.8-54 65.8-12.7-6.6 2.6-24.8 11.3-13.5 8.7 11.3-12.8 21.4-15.9 7.5-2.9-12.7 15.7-36.2 22.2-46.3 48.2-74.4 121.7-94.9 173.1-155.5 22.7-26.8 34-60.9 36.7-95.6 1.3-16.6-7.1-58.9-4.4-68.9 1.5-5.6 8.6-4.6 10.3 0.2z"  fill="#005bbb" /><path d="M326.5-399.5c24.3 104.6 24.2 238.1-18.1 338.1-5.5 13-16.6 49.7-30.1 55.9-11.6 5.3-19-13.4-6.9-17.4 14.1-4.7 16.7 19.8 1.9 18.2-5.3-0.6-9.1-5.6-8.2-10.8 3-18 46.2-81.6 56.2-159.7 7.1-56.4 7.4-114.5 2-171-1.6-16.7-8.1-35.8-7.5-52.4 0.2-6.6 8.8-6.5 10.7-0.9z"  fill="#005bbb" /><path d="M325.1-182.5c-19.2 115.7-81.7 123.1-133 206.8-6.6 10.9-16.9 53.8-28 57.2-12.6 3.9-14.3-17.9-1.3-16.1 13 1.8 5.5 22.2-5.6 15.2-10.2-6.5 2.9-29.7 5.8-37.5 24.5-65.3 82.9-98.7 118.8-155.4 12-18.9 22.9-67.9 29.8-76.5 5.3-6.6 14-1 13.5 6.3z"  fill="#fff" /><path d="M337.9-167.2c-6.1 66.8-28.6 124.5-53 186.2-4.1 10.3-15.7 66.5-29 62.2-10.4-3.3-4.3-19.4 5.8-15 10 4.4 2.1 19.8-7.4 14.3-16.1-9.4 22.7-89.1 28.6-103.1 11.7-27.8 22.9-55.7 30.2-85.1 4.2-17 2.4-50.4 11.7-64.3 4.4-6.6 13-2.1 13.1 4.8z"  fill="#c2e1ff" /><path d="M350.5-275c0 76.8 1 153.7-0.3 230.5-0.4 25.5-0.2 100.5-9.7 121.1-5.6 12.2-21.7-4.8-9.2-9.8 10.6-4.2 13.7 14.5 2.2 13.9-13.5-0.8 1.7-90.7 2.4-104.1 2.5-48.8-5.5-224 1.7-253.2 1.9-7.8 12.1-5.5 12.9 1.6z"  fill="#fff" /><path d="M363.3-200.4c4.4 76.4 36.5 152.4 29.9 228.8-0.8 9.5-0.6 51.4-13.4 52.6-11.9 1.2-9.6-18.6 1.8-14.6 11.3 3.9 0.9 20.9-7.8 12.6-1.4-1.4 7.2-75 7.2-86.8-0.6-52.6-20-103.7-26.5-155.7-1.4-11-2.4-21.9-3.3-33-0.7-9 10.1-14.3 12.1-3.9z"  fill="#fff500" /><path d=""  fill="#fff500" /><path d="M390.6-281.4c-4.2 34.4-1.4 69.8 6.1 103.6 17.9 81.7 55.9 136 32.8 223.3-2.2 8.3-4.5 32.8-13.9 35.9-10.5 3.5-15.1-13.4-4.2-15.7 10.8-2.3 13.6 14.9 2.5 16.1-17.5 1.8-3-30-1.3-36.1 7.9-27.5 14.5-55.5 12.3-84.3-4.7-61.8-38.8-118-46.7-179.9-2.4-18.8-7.7-47.5-1.4-65.8 2.8-8.3 13.6-4.8 13.8 2.9z"  fill="#fff500" /><path d="M401.4-143.5c21.6 72.9 44.5 117.8 23.6 195.8-2.1 7.7-3.2 29.2-14.2 29.2-12.9 0-8.3-20.9 3.3-15.5 11.7 5.4-1.2 22.4-9.5 12.7-1.8-2.2 16.2-78.8 17-92.4 3.4-57-27.3-89.6-29.8-128-0.4-6 7.4-6.6 9.6-1.8z"  fill="#fff500" /><path d=""  fill="#fff500" /><path d="M428-161.3c20.3 79.2 38.3 131.4 12 213-2.4 7.5-5.1 30.4-16.1 29.9-13.2-0.5-7.7-21.8 4.1-15.7 11.8 6-2.2 23-10.4 12.5-1.5-1.8 21.5-84 23.3-98.2 7.8-65-22.1-99.5-23-140.1-0.1-6.3 8-6.6 10.1-1.4z"  fill="#005bbb" /><path d="M444.3 61.8c-1.9 5.3-10.8 32.2-20.4 16.2-13.5-22.6 34.8-6.2 10.4 3.5-17.5 6.9-8.7-21.7-5.2-27.2 5.7-8.7 17.2-1.5 15.2 7.5z"  fill="#c2e1ff" /><path d="M454.9-114c11.4 55.9 10.2 106.8-8 161.1-2.7 8.1-6.6 35.5-18.5 34.9-13.3-0.7-7.5-22 4.4-15.8 11.8 6.2-2.5 23.1-10.6 12.5-8.8-11.5 16.9-61.1 20.5-74.9 9.9-38.3 1.1-117.2 1.5-118.4 1.8-5.8 9.1-4.4 10.7 0.6z"  fill="#fff" /><path d="M468.7-115.6c6 60.3 0.8 113.9-19.8 171.1-2.4 6.8-4.4 20.7-10.8 24.9-11.2 7.5-19.3-13.3-6-15.4 13.3-2.1 11.9 20.2-1 16.5-16.4-4.7 11.5-59.2 14.8-69.6 21.2-68.5 4.5-86.4 10.7-127.8 1.1-7.3 10.7-6.1 12.1 0.3z"  fill="#005bbb" /><path d="M482.6-220.8c-2.7 58.8 1.9 118.3-4.2 176.9-2.9 28-30.7 126.6-41.9 125.8-13.5-0.9-7.1-22.5 4.7-16 11.8 6.5-3 23.4-11 12.5-1.8-2.5 26.5-86.8 29.7-101.3 14.2-65 4.5-132.4 9.1-198.3 0.6-9 12.9-8.1 13.6 0.4z"  fill="#c2e1ff" /><path d="M495.9-222.6c-5.2 83.1-3.7 172-30.9 251.4-4.1 11.9-10.4 44.8-21 51.6-11.4 7.4-19.3-13.7-5.9-15.6 13.4-1.9 11.7 20.5-1.2 16.6-13.5-4.1-0.1-26.1 2.5-33.2 10.7-28.2 21.1-56.3 26.8-86 9-47.3 6-154.8 16.2-187.3 2.5-8.1 13.1-5 13.5 2.5z"  fill="#fff" /><path d="M510.2-49.2c-5.8 16.4-43.4 137.8-60.1 130.3-10.7-4.8-2.2-21.4 8-15.4 10.2 6-0.1 21.5-9.6 14.5-11.3-8.4 9.9-41.9 13.9-51.4 11-26.2 17.3-62 32.7-85.5 5.7-8.7 17.1-1.5 15.1 7.5z"  fill="#005bbb" /><path d="M501.4-392c-49 66.3-82.7 104.5-69.8 192.7 6.6 44.9 47 156.4 25.9 195.7-5.7 10.6-20.8-2.4-11.3-9.6 11.2-8.5 17.7 15.2 3.7 13.6-12.1-1.4-2.6-60.6-3.6-71.8-8.4-83.5-50.8-164-18.1-247.8 11.3-28.9 33.9-67.7 58.7-87.3 9.9-7.8 20.3 4.8 14.5 14.5z"  fill="#fff" /><path d="M536.6-369.3c-29.7 88.9-33.1 182.8-43.9 275.5-3.3 28.4-25.8 160.5-46.6 174-11.5 7.3-19.3-13.8-5.8-15.7 13.5-1.9 11.7 20.7-1.3 16.6-13.8-4.2 0.7-28.1 3.4-35.1 10.9-28.2 21.3-56.3 27.5-86 20.2-96.8 14.9-222 42.7-310.7 2.3-7.5 4.3-24.3 11.8-28.6 7.2-4.1 13.6 3 12.2 10z"  fill="#c2e1ff" /><path d="M548.1-241.2c4.2 65.7-22.8 121.9-41.4 183.3-9.6 31.6-30.5 113.4-49.7 136.7-10.2 12.4-23.7-12.1-7.7-14.1 13.6-1.7 11.5 21-1.6 16.9-4.7-1.5-7.1-6.7-5.5-11.4 17-45.2 35.5-89.2 49.5-135.5 12.1-40.2 29.8-79.6 39-120.6 3.7-16.4-1.4-43.7 5.3-57.8 3-6.3 11.1-3.5 12.1 2.5z"  fill="#005bbb" /><path d="M563 40.8c-3.1 8-7.3 43.9-20.3 40.4-8.7-2.4-6.6-15.7 2.4-15.3 10.5 0.5 8.8 17.1-1.6 15.4-14.5-2.3-0.7-43.7 5.6-49.5 6.9-6.4 15.6 1.1 13.9 9z"  fill="#c2e1ff" /><path d="M575.4 71.9c-2.3 14.6-19.7 7.3-13.8-2.1 8.5-13.5 21.5 12.3 5.6 11.1-20.8-1.6 8.3-32 8.2-9z"  fill="#fff" /><path d="M587.1-349.8c2.3 21.7 13.9 44.4 15 65.4 1 19.4 16.4 205.4 3.8 251.6-5.5 20.4-20.6 39.8-28.7 59.5-4.3 10.4-9.2 49.1-19.1 53.5-11 4.9-15-14.6-2.9-14.4 10.3 0.1 9.2 16.3-1.1 15-10.3-1.3-5.6-15-4.3-21 7.7-38.2 38.3-79.4 38.8-115.1 1.1-75.3 3.5-150.5 4.9-225.9 0.3-17-13.5-40.4-16.6-58.1-1.4-8.3 6.5-24.7 10.2-10.5z"  fill="#fff500" /><path d="M599.3-237.4c33.7 110.1-25.1 156.2-71.2 241.9-6.7 12.5-29.9 71.6-37.6 76.3-11.7 7.2-19.2-14.4-5.6-16 13.7-1.6 11.4 21.1-1.6 16.9-26-8.5 89.8-185.1 99.8-205.9 15.5-32.1 4.8-105 6.5-112.8 1.1-5.4 7.9-4.7 9.7-0.4z"  fill="#c2e1ff" /><path d=""  fill="#c2e1ff" /><path d=""  fill="#005bbb" /><path d=""  fill="#c2e1ff" /><path d=""  fill="#005bbb" /><path d=""  fill="#fff500" /><path d=""  fill="#c2e1ff" /><path d=""  fill="#fff" /></svg>