<svg width="1200" height="675" viewBox="-500 -500 1200 675" xmlns="http://www.w3.org/2000/svg"><path d="M-500-500h1200v675h-1200z" fill="#000"/><path d=""  fill="#c2e1ff" /><path d=""  fill="#fff" /><path d=""  fill="#fff500" /><path d=""  fill="#fff500" /><path d=""  fill="#005bbb" /><path d="M-393.9 60.6c1.5 3.3 10.5 16.7 0.8 17.7-5.9 0.5-7.6-8.1-2.1-9.9 5.6-1.8 9.2 6.2 4.1 9.2-6.8 3.9-11.9-9.4-12.8-13.6-1.4-6.3 6.8-8.3 10-3.4z"  fill="#c2e1ff" /><path d=""  fill="#fff" /><path d="M-369.4-61.8c-12.8 29.3-21.2 60-16.7 92.1 1 7.1 18.7 48.4 6.2 48.6-6.6 0.1-7.8-9.6-1.4-11.1 7.5-1.8 9.6 10.2 2 11.1-11.9 1.5-19.5-40-21.3-48-6.6-29.7-7.4-77.3 11.3-103.5 8.1-11.4 23-1.1 19.9 10.8z"  fill="#fff500" /><path d="M-352.3-9.5c-8.3 18.6-11.1 39.1-8.8 59.3 0.6 5.3 10.8 31.1-2.7 29.8-7.5-0.7-7.6-11.9-0.2-12.8 8.7-1 9.6 12.8 0.9 12.8-21.2 0.2-19.3-89.2-7.4-100.6 8.9-8.5 20.4 1.2 18.2 11.5z"  fill="#fff500" /><path d=""  fill="#fff500" /><path d="M-317.9-76.2c-20.2 34.1-46.4 64.7-47.3 106.4-0.2 10.1 10.4 39.9 4.6 47.1-7.4 9.2-17.5-8.6-5.8-10.3 10-1.4 8.6 15.3-1 12.4-6.2-1.9-7.2-13.2-8.5-18-14.1-50.5-0.6-115.9 38.5-153.5 11.2-10.7 25.4 3.5 19.5 15.9z"  fill="#fff" /><path d="M-300.8-25.8c-14.5 17.7-28.1 36.9-33.5 59.5-2.5 10.3 3 38.6-4.4 45.3-8.7 8-18.5-8.9-7.3-12.5 13.1-4.2 11.5 19.7-0.9 13.7-24.7-11.8 8.2-109.6 27.1-124.7 12.8-10.3 26.5 6.1 19 18.7z"  fill="#fff" /><path d="M-283.7-58.9c-23.2 31.8-53.8 60.5-57.9 101.9-0.8 7.9 6.8 36-5.4 37.6-11.4 1.4-9.6-17.5 1.3-14.1 9.3 3 3.8 17.4-5.1 13.5-5.2-2.3-5.3-10.6-6.1-14.8-8.7-49 11-88.6 40.7-126.1 4.5-5.6 9.4-15 16.3-18.2 13.4-6.2 22.7 9.3 16.2 20.2z"  fill="#fff500" /><path d="M-270.2-243.4c11.2 53.6 17.4 106.9-9.7 157.1-19.3 35.6-53 63.5-65 102.9-3.2 10.4 1.8 65.8-9.9 63.9-10.8-1.7-4.1-18.7 5-12.6 7.8 5.2-1.1 17.1-8.3 11-5.7-4.8-5.7-18.4-6.7-25-11.3-77.3 50.5-115 77.1-178.9 22.5-54.1 1.4-72.4 3.4-117.3 0.4-8.7 11.7-8.4 14.1-1.1z"  fill="#fff500" /><path d="M-249.2 44.2c-4.7 8-13 48.4-29 37.3-9.7-6.8-1.3-22.3 9.7-17.8 11 4.5 6 21.5-5.7 19.5-18.8-3.3-1.6-47.5 7.1-53.9 10.7-7.9 21.7 4 17.9 14.9z"  fill="#c2e1ff" /><path d="M-232.8-385.6c-24.4 96.2 5.7 167.1-11.4 247.8-11.6 54.8-50.4 88.5-78.7 133.9-6 9.7-14 54.5-27.1 52.8-12.2-1.6-8.7-20.7 3.3-17.8 12 2.9 6.4 21.5-5.2 17.3-11.5-4.1-4.7-27-3.1-34.5 13.1-59.8 70.6-95.7 89.5-153.2 24.5-74.8-6-157.1 9-234.2 1.4-7.2 1.5-20.8 9.9-24.1 8.3-3.2 14.6 4.2 13.8 12z"  fill="#fff500" /><path d="M-215.2-1.3c-35.5 40.6-28 46.9-48.3 80.1-3 4.9-9.7 6.3-14.5 3.1-11.4-7.9 2-25.1 12.5-16.1 10.5 9.1-4.7 24.8-14.1 14.6-16.7-18 30.2-95.4 48.6-103 14-5.8 22.9 10.4 15.8 21.3z"  fill="#c2e1ff" /><path d="M-198-90.8c-32.9 43-85.1 85.4-103.4 137.2-2.9 8.1-1.8 36.8-15.3 35.6-11.8-1-9.2-19.6 2.4-17.3 13.6 2.7 4.4 23.8-6.8 15.7-6-4.4-3.7-15.7-3.2-21.6 4.2-55.9 46.1-94.2 79.9-134.6 8.8-10.5 16.8-25.2 27.5-33.7 12.9-10.2 26.4 6.2 18.9 18.7z"  fill="#005bbb" /><path d="M-180.8-165.1c-39.5 91.4-108.1 148-129.3 196.4-4.3 9.9-4.3 46.5-14.5 49.8-12.5 4-14.4-17.7-1.5-16.1 13 1.7 5.7 22.1-5.4 15.2-6.7-4.2-4.5-16.9-4.4-23.1 1.3-66.9 57.7-108.8 92.9-159.6 10.5-15.1 34.8-69.4 44.4-76.8 10.3-7.9 21.2 3.5 17.8 14.2z"  fill="#fff" /><path d="M-164.7-268.5c-11.5 77.7-37.2 151.9-85.8 214.4-17.6 22.6-38.6 43-53.8 67.4-7.4 11.9-18.5 65.1-20.5 66.6-10.3 7.8-19.2-11.6-6.7-14.4 14.7-3.2 10.5 22.7-2.4 14.9-6-3.6-4.6-14.4-4.8-19.9-1.6-76.8 69.7-124.1 104.7-185.5 20.2-35.5 35.3-74.4 44-114.3 2.4-10.8 2.4-24.3 6.8-34.5 4.6-11 19-5.2 18.5 5.3z"  fill="#fff" /><path d="M-146.4 23.8c-5.9 11.4-15.4 64.3-32.1 59.3-13.4-4-5.9-24.8 7-19.3 12.9 5.4 3.2 25.3-9 18.5-14.7-8.2 6.8-80.8 26.9-74.5 7.2 2.3 9.3 9.5 7.2 16z"  fill="#005bbb" /><path d="M-129.3-193.7c-39.8 76.8-123.9 151.8-163.4 216.7-6.4 10.6-18.3 57.6-23 58.8-13.3 3.4-14.1-19.4-0.6-16.9 13.5 2.5 4.6 23.5-6.6 15.6-25.8-18.2 30.8-104.4 45-121 18.1-21.2 126.3-166.9 131.3-170 11.6-7.3 22 5.9 17.3 16.8z"  fill="#fff500" /><path d="M-112.7-40.6c-25.4 22.9-46.7 50.7-62 81.2-4.2 8.5-14.1 54.6-31.3 41.2-11.4-8.9 3.7-26.1 14-16 10.4 10.1-6.5 25.6-15.7 14.4-14.3-17.4 56.4-131.3 77.5-143.7 15.3-9 27.3 10.6 17.5 22.9z"  fill="#c2e1ff" /><path d="M-96.2-267.4c-10.1 99.8-127 199.6-185.2 278.1-36.2 48.8-17.9 67.4-32.4 71-13.5 3.3-14-19.8-0.3-17.2 13.6 2.7 4.4 23.9-6.9 15.7-18.6-13.6 9.4-70 17.9-83.5 27.3-43.8 88.9-111.4 123.9-154.6 18-22.1 36.9-43.9 49.6-69.7 6.7-13.6 7.4-35.8 16.2-47.3 6.5-8.5 17.7-1.8 17.2 7.5z"  fill="#005bbb" /><path d="M-80-294.8c3.5 78.8-45.3 127.5-93.2 182.5-33.7 38.8-68.1 78.1-99.9 118.4-10.4 13.2-19.7 27.3-25.3 43.3-2.6 7.6-1.8 26.6-9.6 31.3-12.1 7.3-19.6-14.9-5.5-16.4 16.5-1.8 8.8 25.9-4.5 15.9-19.6-14.9 12.6-73.6 22-87.5 43-63.7 100.8-120.3 151.3-178.1 54.7-62.6 35.3-89.5 48.6-113.7 4.6-8.3 15.3-3.9 16.1 4.3z"  fill="#fff500" /><path d="M9.7-400.2c101.5 84.3 72.2 147.8 58.8 261.9-1.1 9.4 5.6 54.3-5.2 56.1-12.6 2.1-7.9-19.6 2.7-12.4 9.1 6.1-4 18.6-9.7 9.2-25.9-42.5 14.4-147.1 12.1-198-1.3-29-10.6-56.3-28.3-79.4-9.8-12.7-43.8-46.3-30.4-37.4z"  fill="#fff" /><path d=""  fill="#005bbb" /><path d="M-33.6 38.6c5.1 9.1 25.6 25.5 26.7 34.4 0.6 4.5-6.9 3.8-5.5-0.5 1.6-5 8.7 0.8 4.1 3.3-5.6 3.1-32.4-28.6-33.1-34.3-0.6-4.7 5.1-6 7.8-2.9z"  fill="#c2e1ff" /><path d="M-8.5-400.5c53.5 50.6 84.1 102.2 69.7 178-8.9 46.7-32.5 90.8-36.2 138.5-1.9 24.1 4.5 46.4 20 65.1 1.5 1.8 24.6 21.4 17.8 22.4-10.5 1.7 9.7-6.3 0.9-0.3-3.9 2.6-12.1-8.1-13.9-9.7-90.4-79.2 0.8-180.2-1.6-275.8-0.7-26.4-8.7-51.7-23.6-73.5-10.5-15.3-47.8-55.8-33.1-44.7z"  fill="#c2e1ff" /><path d="M7.9-140.9c-24.6 45.9-66.9 90.1-74.8 143-5 33.8 21.6 81 5.7 76.5-7.1-2-3.3-13 3.5-10.2 6.8 2.8 1.9 13.2-4.6 9.8-6.3-3.4-9.1-17-11.5-23.2-26.4-65.6 4.4-119.1 39.3-173.9 6.8-10.7 14.1-31.5 25-38.4 11.4-7.4 21.9 5.5 17.4 16.4z"  fill="#c2e1ff" /><path d="M16.7-6.2c12.7 17.7 89.9 67 90.5 79.7 0.2 5.5-8.8 4-6.7-1.2 2.1-5.1 9.7 0.1 5.6 3.9-5.6 5.2-24.4-22.3-28.2-25.9-20.6-19.2-45.5-32.8-66-52.1-3.1-3 1.7-7.2 4.8-4.4z"  fill="#005bbb" /><path d="M40.2-101c-8.7 86.5 91.4 117.7 101.6 173.8 1.4 7.6-11.4 7.1-9.5-0.4 2.3-8.7 14.9 0.5 7.3 5.4-8.4 5.3-31.5-43.9-36.4-50.7-27.1-36.9-70.2-62.2-78.7-110.2-4.4-25 13.4-37.4 15.7-17.9z"  fill="#005bbb" /><path d="M114.9-400.9c49.6 56.7 43.3 138.1 49.2 208.2 2.8 33.7 11.4 130.5 0.9 159.2-4.8 13.1-24.2 0.6-14.4-9.2 11.5-11.5 22.7 14.5 6.4 15-18.3 0.5-7.1-54.4-6.5-64.3 2.8-54.4-3.6-107.9-6.9-162.1-2.1-36.1-3.4-73.1-16.3-107.4-4.3-11.4-17.3-25.3-19.1-36.6-0.6-4.1 4.2-5.4 6.7-2.8z"  fill="#fff" /><path d=""  fill="#005bbb" /><path d="M86.5-359.3c60.6 79 11.6 193.6 34 283.9 5.1 20.5 47.1 141.3 44.4 150.3-2.7 9-16.2 1.5-10.1-5.6 7.2-8.2 15.8 8.7 5 9.7-12.7 1.2-21-48.4-23.6-57.3-44-155.4-39.7-122.8-37-283.3 0.9-54.4-19.3-78.9-20.6-95.1-0.4-4.7 5.3-5.8 7.9-2.6z"  fill="#fff500" /><path d="M109-179.5c-5.9 80.3 23.3 148.8 46.2 224.1 2.6 8.5 8.7 19.4 9.1 28.3 0.5 10.9-17.4 4.6-10.3-3.6 7.1-8.2 15.8 8.6 5 9.6-13.7 1.3-28.3-71.7-32-83.4-15.1-47.8-50.9-127.5-35.6-178.1 3.2-10.5 16.9-6.7 17.6 3.1z"  fill="#005bbb" /><path d="M125.9-206.7c-3.1 84 12.2 161.9 31.8 243.2 1.8 7.6 15.5 36.3 7.6 41.9-6.6 4.7-13.5-6.1-6.3-10.1 8.3-4.6 12.8 10.5 3.3 11.2-15.3 1.2-26.2-75.3-28.8-87.2-11.3-50.4-38.6-152.3-24.8-201.7 2.9-10.4 16.4-6.9 17.2 2.7z"  fill="#fff" /><path d="M142.4-138.5c2.8 50.4 7.7 100.6 15.3 150.5 1.6 10.6 14.7 57.3 12.7 63.3-3.1 9.2-16.9 0.9-10.3-6.2 7.8-8.3 16.2 9.7 4.9 10.3-23.2 1.3-42.8-195.9-38.7-218.9 1.8-9.8 14.5-7.7 16.1 1z"  fill="#c2e1ff" /><path d="M158.5-331.3c11.6 51.2 21.5 166.9 19.6 219.7-1.3 36.3-8.3 72.2-9.3 108.5-1.1 40.9 10 75.9 6.3 80.5-6.4 7.9-16.8-5.3-7.7-9.8 9.1-4.4 13.1 11.9 2.9 12.1-17.7 0.4-18.7-72.3-18.8-84.3-0.4-41.1 8-81.5 9.4-122.4 2.1-59.5-19.6-156.6-16.6-203.4 0.5-8.8 11.9-8.3 14.2-0.9z"  fill="#fff500" /><path d="M176.4-173.7c7.7 68.6-11.5 135.1-6.7 203.4 0.6 8.3 13.2 47.1 2.1 49.7-8.4 2-10.9-11.4-2.3-12.5 8.6-1.1 9.6 12.5 0.9 12.7-17.3 0.3-18.4-70.4-18.5-82.3-0.4-38.7 7.1-76.7 9.6-115.2 1.2-18.2-3.4-38.6-0.7-56.3 1.4-9.5 13.8-7.9 15.6 0.5z"  fill="#fff500" /><path d="M193.2-261c5.3 46.2 22 92.2 18.7 139.1-3.1 43.3-24.4 82.4-31.4 124.9-5.5 33.8 5.4 68.4 0 74.6-6.9 7.9-17.3-6.1-7.7-10.4 9.6-4.3 13.1 12.8 2.7 12.7-21.5-0.3-13.7-83.1-11.5-96 5.2-30.7 17.4-59.2 25.2-89.2 13.1-50.2-14.2-147.2-10.6-157.3 2.9-7.9 12.8-5.5 14.6 1.6z"  fill="#c2e1ff" /><path d="M213.4-71.7c-13.3 34.6-30.1 67.3-31.8 105.1-0.3 7.2 9.6 48.5-4.6 46.6-7.8-1.1-7.4-12.8 0.4-13.4 9.1-0.7 9.5 13.7 0.4 13.4-8.2-0.2-8.8-14-9.9-19.2-6.5-31.2 2.3-124.1 27.6-145.5 9.6-8.1 20.8 2.5 17.9 13z"  fill="#005bbb" /><path d="M230-384.8c-30.6 103.7 26.5 157.4 30 243.4 2.3 57.4-39.7 93.9-60.2 143.4-4.1 10-6.1 54.6-19 54.1-13.3-0.5-7.7-21.9 4.2-15.9 13.9 7.1-6.5 25-11.8 10.3-19.8-56.1 56.1-127.3 67.3-179.2 13.3-61.6-30.2-125.6-34.4-187.3-1.4-21.4-5.1-55.7 4.7-75.6 5.6-11.3 20.3-4.3 19.2 6.8z"  fill="#005bbb" /><path d="M248 28.3c-9.8 11.4-19.5 57.8-31.2 53-9.2-3.8-5.1-18 4.6-16.3 8.3 1.4 9.5 13.3 1.7 16.3-22.6 8.8-6.9-63.8 7.8-71.8 12.7-6.9 22.8 7.6 17.1 18.8z"  fill="#005bbb" /><path d=""  fill="#fff" /><path d="M276.3-241.3c25 55.5 52.1 110.1 15.5 167.9-21.9 34.6-59.1 57.3-77.9 94-6.8 13.3-8.4 63-19.9 60.1-9.9-2.5-5.1-17.9 4.5-14.3 11.2 4.2 0.5 20.8-8 12.4-5.1-5.1-4.2-18-4.4-24.3-2.7-79.2 74.3-106 100.6-170.4 25-61.2-21.9-96.8-20.6-123.4 0.3-5.9 7.5-6.4 10.2-2z"  fill="#fff" /><path d="M298.4 20.2c-13.9 10.9-27.4 23.6-35.5 39.5-3.5 7-3.9 22.3-14.1 23.5-15.2 1.8-12.6-23.5 1.9-18.7 14.5 4.8 1.6 26.6-9.6 16.2-19.7-18.4 24.5-76.6 40.6-85 16.2-8.4 27.5 12.4 16.7 24.5z"  fill="#c2e1ff" /><path d="M309.7-259.4c39 67.9 76.6 139.7 14.6 208.6-30.9 34.3-83.1 55.8-98.8 101.9-2.3 6.8-0.8 35.2-15.2 29.9-9-3.3-5.6-17.2 4-15.9 11.1 1.5 7.8 18.9-3.1 16.2-8.5-2.1-6.9-14.7-6.8-20.9 1.6-87 104.6-104 131.1-176.6 8.3-22.6 7.3-47.3 0.7-70.1-7.4-25.2-27.5-45.2-34.9-69.3-1.7-5.4 5.3-7.7 8.4-3.8z"  fill="#005bbb" /><path d="M323.2-397c-20.9 84 67.9 132.3 90.5 204.6 15.1 48.3 12.6 99.4-10.1 144.8-6 12.1-22.8 52.7-41.3 45.4-14.4-5.8-8.2-28.2 7.2-25.7 15.3 2.5 14.1 25.7-1.5 26.6-9.3 0.5-16.4-8.8-13.4-17.6 12.3-36.3 57.2-53.2 51.3-137.8-6.7-94.7-71.6-115.1-96.4-189.6-5-15-11.3-40.3-5.1-55.7 4.5-11.1 18.9-5.6 18.8 5z"  fill="#fff500" /><path d="M350.8 45.1c-5.2 8.1-16.7 49.4-32.6 36.7-9.7-7.7 0.1-23.3 11.2-17.9 11.1 5.4 4.9 22.8-7.1 19.9-19.3-4.7 1.4-49.1 10.9-55.2 11.5-7.5 22.1 5.5 17.6 16.5z"  fill="#c2e1ff" /><path d="M364.8-159.7c21.5 109.6-76.9 125.4-124.2 192.9-6.7 9.6-15.1 46.5-20.8 48.1-12.9 3.6-14.2-18.7-0.9-16.6 13.3 2.1 5 22.9-6.1 15.4-7-4.7-4.2-19.8-3.5-26.1 7.3-67.2 75.7-90.1 114.4-135.7 34.1-40.1 16.2-55.5 26.3-80.2 3.2-7.9 13.2-5 14.8 2.2z"  fill="#c2e1ff" /><path d="M384.9-58c-22 40.3-61.2 62.6-93.2 93.5-13.1 12.6-21 38-29.2 45.2-4.2 3.7-10.9 3.1-14.4-1.4-7.1-9.1 5.2-21.2 14.1-13.8 10.4 8.6-4 24.3-13.4 14.6-4.5-4.6-2.4-11.5-1.3-16.9 10-49.8 57.2-74.6 91.1-106.7 9.6-9.1 18.2-26.4 29.5-32.6 12.3-6.8 22.2 7.2 16.8 18.1z"  fill="#fff500" /><path d="M394.2-270.2c46.6 52.7 62.5 131.3 48.8 199.4-7.8 38.9-27.2 77.7-24.4 118.1 0.4 5.9 10.2 28.4 1.3 31.5-7.2 2.5-10.6-9.1-3.1-10.8 7.5-1.7 9.5 10.2 1.9 11.1-10 1.2-13.7-23.8-14.9-29.7-13-61.9 27.4-121.1 26.8-183-0.3-35.5-8.4-72.9-24.6-104.6-4.4-8.6-16.4-20-18.1-29.1-0.7-3.9 3.9-5.3 6.3-2.9z"  fill="#005bbb" /><path d="M419.1-49.5c-11.6 30.3-29.2 57.8-42.2 87.4-3.7 8.4-9.5 52.6-25.8 43.6-11.2-6.3-0.3-23.5 10.1-16 10.5 7.5-2.2 23.4-11.8 14.8-10.9-9.7 38.2-132 51.9-143.2 9.8-8 20.9 2.9 17.8 13.4z"  fill="#c2e1ff" /><path d="M432.1-194.7c29.4 93.1-7.2 137.7-24 223.6-1.7 8.9 4.2 53.2-8.6 51.4-10.6-1.5-4.4-18.2 4.6-12.4 9 5.8-3.7 18.3-9.4 9.3-25.5-40.6 16.7-123.9 26.4-165.7 10.2-44.2-1.4-64.4-2-104.4-0.1-8.1 10.4-8.4 13-1.8z"  fill="#c2e1ff" /><path d="M447.2 57.6c1.4 3.4 11.7 15.4 5.9 19-4.6 2.9-8.8-4.7-3.9-7 4.2-2 7.9 3.9 4.2 6.8-6 4.7-15.5-12.4-15.6-16.3-0.1-5.5 6.6-6.4 9.4-2.5z"  fill="#005bbb" /><path d="M467.3-149.1c10.9 57.1-11 117.5 4.6 173 3.8 13.4 28.1 46.8 27.1 50.6-1.6 5.9-10.1-0.4-4.9-3.7 4.4-2.7 7.3 5.4 2.1 6.1-6.9 0.8-18.4-19.4-21.9-24.5-32.9-47.2-21.3-99.1-19.5-152.6 0.5-15.9-3.7-33-2.2-48.5 0.9-9 12.6-8.2 14.7-0.4z"  fill="#005bbb" /><path d="M479.8 66.7c0.8 1.1 8.7 10.3 1.2 10.2-3.8 0-4.4-5.7-0.6-6.5 4.4-0.9 5.5 6 1 6.5-10.5 1.1-8.3-16.5-1.6-10.2z"  fill="#c2e1ff" /><path d="M502.3-36.6c0.9 25.2 5.6 50 16.5 72.8 4.3 9.1 21.7 27.9 21.2 37.4-0.3 6.6-10.8 3.7-7.8-2.1 3.6-6.8 12.3 3.3 5 5.8-8.2 2.8-20.8-25.3-23.8-30.5-13-21.8-31.4-57.6-27.1-84.1 1.6-9.7 14.2-7.9 16 0.7z"  fill="#005bbb" /><path d="M518.7-124.2c10 48.2 2.5 98.7 17.7 146.1 2.3 7.3 29.1 55.2 18.6 56.6-5.6 0.7-7.5-7.4-2.2-9.4 6.2-2.2 9.1 7.7 2.7 9.3-10.9 2.6-28.2-46.4-31.4-55.1-8.1-21.2-25.5-131-19.6-148.6 2.6-7.7 12.2-5.6 14.2 1.1z"  fill="#fff" /><path d="M535.1-145.6c17.4 56.7 4.1 116.8 20.2 173.5 2.6 9.1 20.6 40.8 16.2 48.3-4.4 7.3-14.6-2.4-7.6-7.2 7-4.8 12.3 8.3 3.9 9.7-10.5 1.7-19.6-33.9-22.4-41.1-17.3-46.2-14.2-92.5-17.6-140.8-1-13.4-5.8-27.5-5.9-40.8 0-8.2 10.6-8.4 13.2-1.6z"  fill="#c2e1ff" /><path d="M552.9 0.7c1.9 14.6 23.3 67 21.7 74.1-2 8.4-14.9 2.3-9.6-4.5 6.2-8 15.1 7.2 5.1 8.7-11.5 1.8-34.7-68.5-31.4-79.2 2.4-7.7 12.1-5.8 14.2 0.9z"  fill="#005bbb" /><path d="M571.8-67.5c-1.7 30.2-4.3 60.3 0.8 90.4 2.1 12.6 16.8 40.7 13.3 52.1-2.8 9-16.4 1.4-10.1-5.7 7.4-8.3 16 9 4.9 9.9-9.5 0.8-12.2-20.4-14.2-26.2-13.1-39.1-17.1-80.5-12.6-121.5 1.3-11.8 17.3-10.3 17.9 1z"  fill="#fff500" /><path d="M589.4-72.8c-3.4 27.6-8.1 55.1-6.7 83 0.5 9.7 11.3 65.9 10.4 67-6.2 7.9-16.7-5-7.8-9.6 8.9-4.5 13.1 11.6 3.1 12-10.4 0.4-12.7-25.2-14.5-31.9-10.5-40.1-10.7-82.2-3.3-122.9 2.2-12.3 18.9-9.6 18.8 2.4z"  fill="#005bbb" /><path d=""  fill="#fff" /><path d=""  fill="#c2e1ff" /><path d=""  fill="#fff500" /><path d=""  fill="#fff500" /><path d=""  fill="#fff" /><path d=""  fill="#fff" /></svg>