<svg width="1200" height="675" viewBox="-500 -500 1200 675" xmlns="http://www.w3.org/2000/svg"><path d="M-500-500h1200v675h-1200z" fill="#000"/><path d=""  fill="#fff" /><path d=""  fill="#fff" /><path d="M-392.9-226.3c19.3 73.4-8.1 150.1-0.5 224.5 1.9 18.6 18.1 37.3 30.3 50.5 0.4 0.5 15.1 12.4 8 13.1-2.9 0.3-3.2-4.3-0.2-4.3 2.5 0 2.9 3.7 0.5 4.3-4.9 1.1-15.5-13.5-18.5-16.6-33.4-35.1-28.7-48.6-30.2-97.2-1.7-55.4-0.5-70.9 2.8-115.6 1.4-19.6-4.3-38.5-3.8-57.6 0.2-7.1 9.5-7.1 11.6-1.1z"  fill="#005bbb" /><path d="M-396-317.8c38.9 45.4 62.5 103.2 57 163.5-3.7 41.5-19.2 82.4-14.1 124.5 4.5 37.7 29.8 68.5 24.2 69.9-3.7 0.9-5.7-4.4-2.3-6.1 4-2 6.8 4.4 2.6 6-5.7 2.2-12.4-13-14.4-16.1-47.9-73-5.3-142.9-9.8-220.8-3.7-63.2-27.2-71.3-48.4-117.7-1.5-3.4 2.8-5.4 5.2-3.2z"  fill="#c2e1ff" /><path d="M-397.2 59.7c2.5 2.5 16.7 11.4 13.5 14.9-1.6 1.8-4.3-1-2.5-2.6 1.8-1.6 4.1 1.4 2.2 2.8-9 6.2-20.1-20.2-13.2-15.1z"  fill="#fff" /><path d="M-396.7 48.1c2.9 3.4 27.1 24.6 25.2 26.7-4.7 5.1 4.2-5.7 0.1-0.2-2.5 3.4-27.4-19.9-29.4-23.5-1.6-2.7 1.9-4.8 4.1-3z"  fill="#c2e1ff" /><path d="M-396.5 41.4c3.2 4 32.4 31.6 30.9 33.2-5.2 5.7 4.7-6.3 0.1-0.2-2.3 3.1-9.8-5.6-10.2-6-7.7-6.4-20.7-14.9-25.4-23.9-1.6-3.1 2.3-5.2 4.6-3.1z"  fill="#fff" /><path d=""  fill="#c2e1ff" /><path d="M-376.2-90.7c-7.5 40.6-7.2 80.6 16.1 116.2 4.1 6.4 41.1 49.4 39.5 50-2.5 1.1-4.5-2.5-2.3-4 2.6-1.9 5.3 2.4 2.6 3.9-4.5 2.5-14-11.5-16.6-14.1-43.2-43.4-67.2-92.2-55.6-154.6 2-10.7 16.7-7.8 16.3 2.6z"  fill="#005bbb" /><path d="M-365.3-249.7c40.1 92.4-15.7 156.5 5.3 237 6.2 23.9 55.1 85.8 55.1 85.9 0.4 5-7.9 2.4-4.8-1.5 3.1-3.9 7.4 3.7 2.5 4.4-6.3 0.9-22.5-23.3-26.7-28-70.3-81.5-31.4-135.4-29.3-227.4 0.6-24.5-8.8-44.7-11.6-68.1-0.7-6 7-7 9.5-2.3z"  fill="#fff" /><path d="M-353.4-341.8c111.1 116.8 28.4 191.7 35.3 305 1.9 32.4 15.6 60.8 32.6 87.8 1.8 2.9 20.3 24.1 10.7 26-4.2 0.8-6.1-5.4-2.2-7.1 4-1.7 7.1 3.9 3.6 6.4-6.8 4.9-19.1-22.5-21.6-26.4-20.6-32.1-36.8-65.5-37.7-104.3-1.4-56.9 25.2-110.3 23-167.5-1.2-31.9-11.7-62.1-28.3-89.1-5.8-9.4-15-18-19.9-27.8-1.5-3 2.3-5 4.5-3z"  fill="#fff500" /><path d=""  fill="#fff" /><path d=""  fill="#c2e1ff" /><path d="M-305.4-217.5c9.1 69.9-32.9 137.4-15.3 206.7 4.9 19.3 44.5 82.4 44.4 84.3-0.4 6.6-10.8 1.7-6-2.8 4.8-4.5 9 6.2 2.4 6.2-7.7 0-21.6-29-25.5-35.1-58.2-88.8-18.3-144.3-13.4-237.2 0.3-6.5-3.5-22 2.6-26.8 4.5-3.6 9.9-0.2 10.8 4.7z"  fill="#fff" /><path d="M-293.4-382.9c25.6 54.4 44 110.2 35.6 170.9-7.4 53.8-32.6 104.4-36 158.8-1.9 29.9 4.9 58.6 17.1 85.7 1.9 4.2 19.3 29 8.4 30.1-4.9 0.5-6.4-6.7-1.7-8.3 5.5-1.8 7.8 7 2.2 8.2-7.9 1.7-14.5-21-17-26.2-51.1-104.2 4.5-171.8 14-274.2 3.2-34-2.6-66.8-13.8-98.8-2.9-8.3-21.4-39.1-16.9-46.7 2-3.4 6.3-2.5 8.1 0.5z"  fill="#c2e1ff" /><path d="M-278.3-313.6c41.9 108.8-25.3 178.3-20 278.8 1.6 30.1 12.7 57.7 26.6 84.1 1.9 3.6 19.7 27.2 9 28.5-5.6 0.7-6.2-8.2-0.5-8.3 4.8 0 5.7 7.1 0.9 8.2-7.8 1.8-16.8-24.6-19.6-29.8-57.6-107.1-14.5-155.6 1.1-261.6 5.2-35.5-8.1-94.7-7.4-99.1 0.9-5.6 7.8-5.3 9.9-0.8z"  fill="#fff" /><path d="M-255-399.5c8.1 45.5 22.2 90.3 20.7 136.9-2.2 68.5-37 128.2-47.7 194.7-5.5 34.4 5.2 75.7-3.9 74.6-7.5-0.9-5.5-12.7 1.9-11 8.6 2 2.3 15.3-4.7 9.9-5.7-4.4-6.2-18.8-7.3-25.2-13.8-77.1 30.6-146.6 43.5-220.4 13.3-76.1-16.8-117.6-14.6-158.7 0.4-7.4 10-7.1 12.1-0.8z"  fill="#fff" /><path d="M-247.8-292.7c14.9 93.5-48.4 174.1-40.9 265.4 1.9 23.8 9.6 46.4 19.5 68 3.5 7.5 17 25.2 15.4 33.4-1.5 7.9-13.4 0.4-6.8-4.3 6.6-4.7 10 8.9 1.9 7.8-8.5-1.1-18-31.6-21.3-38.6-46.6-98.2-5.4-160.4 14.5-256.5 3.5-16.9 2.3-69.3 5.3-76.8 2.6-6.7 11-4.4 12.4 1.6z"  fill="#c2e1ff" /><path d="M-231.9-20.3c-2.9 19.5 10.6 92.7 9.4 95.7-3.6 9.5-16.6-2.5-7.5-6.9 7.8-3.7 11.1 10.2 2.4 10.4-16.1 0.2-23.9-89.8-19.6-102.4 3.1-9.1 15-5.3 15.3 3.2z"  fill="#fff" /><path d="M-217.1-248.4c-11.7 75.9-63.4 145-58.8 223.3 1.3 22.4 30.3 95.3 29.4 99.3-2 8.4-14.2-0.2-7-4.9 7.2-4.7 10.2 9.9 1.7 8.4-8.2-1.5-15.2-29.2-18.1-36-37.4-89.2-12.6-147.9 18.5-233 7.2-19.7 9.8-43.4 18.5-62.2 4.3-9.3 16.4-4 15.8 5.1z"  fill="#fff" /><path d="M-202.2-232.4c-19.1 71.8-70.7 136.3-65.6 213.5 1.4 21.6 27.4 88.1 25.9 93.7-2.2 8.6-14.7-0.6-7.2-5.3 7.5-4.7 10.3 10.5 1.6 8.8-8.9-1.8-16.3-34.1-19.2-41.8-40.1-108.5 13.5-172.5 46.1-270.8 4-12 20.9-12.5 18.4 1.9z"  fill="#005bbb" /><path d=""  fill="#fff500" /><path d="M-176.9-398.2c-3 48-2.3 96.7-12.5 143.9-13.5 62.2-51.1 114.5-68.4 175.3-4.7 16.5-4.4 73.4-15.3 70.2-10-2.9-1.8-18.1 6.1-11.3 7.9 6.8-5.9 17.2-10.3 7.7-24.8-54.5 45.9-170.1 64.2-223.3 21-61.3 11.1-132.1 21.4-165.2 2.7-8.9 14.3-5.5 14.8 2.7z"  fill="#fff500" /><path d="M-159.2-293.4c-18.5 102.7-90.3 175.5-97.6 256-2.3 25.6 1.7 51.1 9 75.6 2.5 8.5 14 28.2 11.6 36.6-2.6 8.9-15.3-1.1-7.3-5.7 8-4.6 10.3 11.3 1.4 9.1-9.1-2.2-15.1-34.7-17.7-42.7-36-113.2 24-169.8 64.6-266.3 9-21.5 10.5-47.2 20.1-67.8 4.4-9.3 16.6-3.9 15.9 5.2z"  fill="#fff" /><path d="M-144.4-51.2c-23.4 20.2-39.4 47-44.5 77.6-1.7 10.3 4.1 45.7-2.8 52-8.7 7.9-15.9-11.3-4.1-11 10 0.2 6.1 16.4-2.9 12-23.8-11.7 4.8-129.5 39.5-150 12.9-7.6 23.1 9 14.8 19.4z"  fill="#fff500" /><path d="M-129.5-206.3c-35.7 61.4-99.2 103.4-109.6 178.2-3.5 25.5-0.5 51.1 5.6 75.9 0.8 3.1 13.9 36.7-0.3 30.7-5.7-2.4-3.1-11.2 3-10.1 6.1 1.1 5.4 10.3-0.7 10.5-10.5 0.4-15.6-38.6-17.4-46.2-10.6-46.3-6.9-93 15.1-135.6 8.3-16 78.1-111.6 89.9-118.4 10.2-5.9 18.7 5.8 14.4 15z"  fill="#005bbb" /><path d="M-116.8 47.9c-0.5 6.9 6.1 30.3-4.4 31.6-7 0.9-9.4-9.4-2.8-11.7 7.8-2.8 11.4 9.7 3.5 11.6-11.6 2.8-12.9-29.3-10.1-34.7 3.7-7.2 12.9-3.6 13.8 3.2z"  fill="#c2e1ff" /><path d=""  fill="#005bbb" /><path d="M-87.6-134.3c-45.8 34.2-101.1 57.2-119.7 116.3-6.7 21.3-7.7 43.8-5.4 65.9 0.4 3.5 9.5 38-4.8 30.4-7-3.7-0.5-14.5 6-10 6.6 4.5-1 14.5-7.1 9.3-9.1-7.8-8.5-38.4-9.2-49.5-4.8-72.3 33.6-124.5 92-162.3 11.2-7.3 23.4-18.2 35.9-23 15-5.8 22.9 13.4 12.3 22.9z"  fill="#c2e1ff" /><path d="M-77.5-396c-13.4 58.4-44.7 147.7-75 199-23.5 39.7-57.3 72.4-76.7 114.6-13.1 28.4-13.9 84.4-25.4 80.3-10.4-3.7-0.7-19.2 7.2-11.5 7.9 7.7-7.4 17.8-11.4 7.4-3.6-9.4-1.1-24.5-0.1-34.3 7.2-74.8 62.6-121.1 97.3-182.8 29.7-52.7 46.5-140 67.9-179.1 5.2-9.4 17.5-3 16.2 6.4z"  fill="#fff" /><path d="M-58.3-133.1c-44 38-106.9 57.1-132.9 113.1-9.5 20.5-12.9 43.1-12.1 65.5 0.1 3.5 8 41.3-6.5 33-7.2-4.2 0-15.1 6.7-10.2 6.7 4.9-1.6 15-7.7 9.4-8.4-7.7-6.7-36.2-7-46.7-1.6-79.8 49.6-123.1 111.8-162 11.3-7.1 22.4-18 34.4-23.6 14.1-6.5 23 11.6 13.3 21.5z"  fill="#c2e1ff" /><path d="M-43-218.1c-19 20.7-36.9 42.2-58 60.9-41.6 36.9-93.6 63.3-114.2 118.4-10 26.8-10.9 55.5-6.7 83.5 0.5 3.2 12 40.7-2.5 33.7-6.9-3.3-1-13.9 5.5-9.9 6.5 4.1-0.5 14-6.5 9.2-5.6-4.4-6-18.6-7.3-24.8-10.4-48.6-7.5-98.4 19.9-141.1 25.3-39.2 65.2-62.2 99.9-91.9 19-16.2 34.2-41.9 54.5-55.7 11.9-8.1 22.8 7.2 15.4 17.7z"  fill="#005bbb" /><path d="M-34.7-395.2c-9.4 30.8-78.7 165.1-97.6 195.2-14.3 22.8-32.4 42.5-49.8 62.9-8.5 9.9-36.2 60.8-49.9 52.5-13.9-8.4 4.7-28 13.8-14.5 9.1 13.5-16 23.4-18.6 7.4-3.5-21.9 67.9-94.6 83-115.5 24.3-33.5 90.9-186.2 104.1-198.2 7.6-6.9 17.1 1.4 15 10.2z"  fill="#c2e1ff" /><path d="M-14.3-217.3c-23.2 22-44 46.4-68.6 67-44.1 36.8-101.8 60.1-124.9 116.7-14.5 35.6-3.2 106.5-4.6 109.5-4.4 9.8-17.4-3.6-7.5-7.7 11.7-4.9 8.3 17.8-1.4 9.8-10.3-8.5-10.1-44.4-10.8-56.8-6.4-107.3 66.6-137.8 137.7-195.1 22.9-18.4 41.2-41.3 63-60.8 12-10.8 26.7 5.3 17.1 17.4z"  fill="#005bbb" /><path d=""  fill="#c2e1ff" /><path d=""  fill="#fff500" /><path d="M28-288.2c-50.7 34.8-84.1 80.8-127.8 122.8-38.5 37-88.6 62.8-112.4 113-17.1 36.2-8.7 103.7-10.4 107.4-5.7 11.8-18.7-8.1-5.6-8.6 11.1-0.4 4.6 17.8-3.7 10.5-8.7-7.7-7.9-38.2-8.4-49.1-4.4-103.7 67.9-137.5 132.3-199.2 40.6-38.9 71.7-83.4 118.1-116.4 15.1-10.8 32.6 6.5 17.9 19.6z"  fill="#fff500" /><path d="M43.6-138.7c-37.2 117.1 60.1 122.4 93.8 210.1 3.3 8.6-12.4 8.4-9.1 0 3.4-8.5 14.9 2.4 6.7 6.3-6.8 3.1-28.7-45.5-34.4-52.5-30.3-37.7-75.1-61.5-79.7-114.5-1.4-16-1.8-41.5 6.2-56 5.2-9.6 17.8-3 16.5 6.6z"  fill="#005bbb" /><path d="M50.4 6.7c8.5 6.9 79.2 57.4 67 69.6-4.6 4.6-10.4-4.5-4.3-6.7 5.2-1.9 7.8 6.5 2.4 7.8-6.7 1.7-13.3-17-16-20.9-14.1-19.5-37.1-29.5-51.4-47.5-1.2-1.5 0.8-3.2 2.3-2.3z"  fill="#c2e1ff" /><path d="M72.1-330.8c-26.8 26.6-60.8 44.3-89.2 69-32.2 28-55.4 64.1-85.6 94-26.1 25.9-57.8 45.7-82.7 72.8-40.9 44.5-37 108.7-54 91.7-7.4-7.4 4.8-18.4 11.4-10.3 5.6 6.9-3.8 16.4-10.7 10.8-7.6-6.1-1.2-25.6 0.2-33.1 14.3-72 72.9-106.1 122.2-152.8 28.1-26.6 49.6-59 77-86.1 28-27.7 62-47.2 92.2-72.2 13.1-10.9 31.7 1.9 19.2 16.2z"  fill="#fff" /><path d=""  fill="#fff500" /><path d=""  fill="#005bbb" /><path d="M115.6-198.3c-22.8 85.5 36 164.8 52 246.5 1.5 7.6 5.7 19 4.4 26.6-1.7 9.8-17 3.6-11.4-4.6 6.6-9.6 17.9 7.3 6.5 9.7-11.8 2.5-17.7-60.8-20.1-70.7-15.3-61.4-53.1-117.1-51.3-182.2 1.2-41.4 21.4-43.3 19.9-25.3z"  fill="#fff500" /><path d="M125.2-17c8.1 13.4 41.4 80.2 35.6 93-3.9 8.5-16.2-0.8-9.2-6.9 7.1-6.1 14.4 7.6 5.4 10.1-11 3.1-12.9-27.9-14.6-33.8-4.3-14.8-24.3-48.6-24.7-60.3-0.1-4.4 5.2-5.2 7.5-2.1z"  fill="#fff500" /><path d="M145.1-340.3c-21 48.7-68.1 80.4-105.4 115.7-34.1 32.2-61.9 70.8-97.9 101-25.2 21.2-54.5 36.1-80.9 55.5-10.4 7.7-45.9 49.1-51.9 47.8-13.6-3.2-7.5-24.3 5.7-19.7 15.4 5.4 1.2 28.4-10.5 17-11.5-11.2 13-37.1 19.7-44.8 35.9-41.2 89.8-60.8 128.6-99.2 23.1-22.8 43.3-48.4 66.3-71.4 24.3-24.3 51.4-45.4 75.6-69.7 12.3-12.4 22.4-35.9 36-45.2 9.2-6.3 18.1 4 14.7 13z"  fill="#c2e1ff" /><path d="M155.8-77.6c6.9 21.7 34.3 139 24.8 154.6-5.4 8.9-18-3.1-9.3-8.9 8.7-5.8 15 10.3 4.7 12-3.7 0.6-7.2-2.1-7.6-5.8-3.6-34.8-6-70-12.2-104.5-2.3-12.6-13.2-34.7-10.9-46.8 1.1-5.8 8.4-5.3 10.5-0.6z"  fill="#c2e1ff" /><path d="M208.7-400.6c30.5 67.7 50.8 132 109.9 180.9 11.2 9.3 108 88.6 89.1 104.1-5.7 4.7-11.3-6.3-4.2-8.1 8.4-2.2 6.5 12.8-1.1 8.6-4.3-2.4-25.5-44.2-32.8-52.8-37.1-43.7-90.2-70.1-120.4-120.1-13.6-22.5-44.7-85.3-49.2-109.9-1-5.5 6.1-7 8.7-2.7z"  fill="#fff" /><path d="M183.6-149.9c34.7 74.9 34.2 102.4 24.5 182.8-1.1 9.5 2.2 41.2-6.1 46.8-9.6 6.4-16.5-11.4-5.1-13.2 9.7-1.5 11.3 13.9 1.4 14.4-18.4 0.9 3.2-117.5 3.3-133.1 0.3-46.5-19.6-60.2-26.5-94.9-1.1-5.4 5.9-7 8.5-2.8z"  fill="#fff500" /><path d=""  fill="#fff" /><path d="M215.3-57.3c1.6 15.8-5 138.6-17.8 137.9-9.8-0.6-8.1-16 1.7-14.4 9.7 1.7 6.3 16.8-3.2 14.1-12.4-3.5-4.3-41.2-3.5-50.1 1.4-14.9 5.3-80.9 9.7-90.2 3.3-6.9 12-3.8 13.1 2.7z"  fill="#005bbb" /><path d="M227-258c18.7 48.3 66.8 71 103.8 102.8 53.3 45.7 60.5 106.6 40.9 171.2-3.7 12.1-11.7 60.7-23.2 65.3-14.8 5.9-14.7-21.9 0.1-15.9 14.8 5.9-4.3 26-11 11.5-4.9-10.8 40.1-119.6 27.1-169.3-16.5-63.1-80.2-85.8-121.8-128.6-39.8-41.1-17.4-39.1-15.9-37z"  fill="#fff500" /><path d=""  fill="#c2e1ff" /><path d=""  fill="#c2e1ff" /><path d="M275 5.1c-3 9-24 75-25.1 75.5-11.5 5.6-16.5-15.1-3.7-15.3 12.8-0.2 8.7 20.7-3.1 15.5-14.8-6.5 7.7-77 16.8-85.6 7.5-7 17 1.2 15.1 9.9z"  fill="#fff" /><path d="M281.6-186.2c83.4 63.2 115.5 107.5 79 213.8-3.7 10.8-10 49.9-20.5 53.9-11 4.2-16.6-13.4-5.3-16.4 11.3-3 15.1 15.1 3.5 16.9-17.5 2.6-5.9-26.5-4.2-32.5 12.3-42.7 33.9-84.7 26.5-130.5-7-43.5-39.4-72.2-73-97.1-2.7-2-8.9-9.7-6-8.1z"  fill="#005bbb" /><path d="M297.4-378.8c32.5 36.1 48 82.6 71.9 124 61.8 107.1 88 126.3 109.2 255.2 1.2 7.4 11.4 33.8 3.4 38.3-8 4.4-12.3-10.1-3.2-10.8 10.6-0.8 5.1 16.9-3.2 10.2-16.6-13.5-13.1-107.4-41.2-169.6-20.9-46.2-52.7-86.2-77.9-129.9-20.1-34.8-33.7-73.8-57.7-106.2-0.3-0.4-9.4-19-1.3-11.2z"  fill="#fff" /><path d="M312.7-353c19.2 27.6 31.9 59.2 48.5 88.4 31.2 54.8 73.2 103.4 94.6 163.5 17.7 50 17.8 103.8 31.9 154.7 0.8 2.8 5.6 19.2-4.9 14.7-4.9-2.1-3.9-9.5 1.4-10.3 6.2-0.8 8.4 8.2 2.5 10.4-11 4-14.6-29.5-16-35.5-12.4-50.9-13.1-104.1-32.9-153.2-20.5-50.9-55.5-93.6-83.4-140.3-15.6-26.1-27.7-54-43-80.3-1.2-2-6.7-21.8 1.3-12.1z"  fill="#fff" /><path d="M327.1-285c35 53.7 82.1 99.5 109.3 158.2 22.3 47.9 22.9 98.3 29 149.7 1.1 9 13.9 50.9 6 55.3-6.8 3.8-12.2-7.2-5.1-10.2 7.1-3.1 11.3 8.5 3.9 10.7-11.5 3.5-13.2-29.7-14.4-35.9-9.8-51.3-6.4-104.9-23.8-154.7-21.7-61.9-68.5-108.4-105.4-161.2-1.9-2.7-7.3-20.8 0.5-11.9z"  fill="#005bbb" /><path d="M351.6-400.4c23 46.8 24.1 100.7 43.5 149 13.6 33.8 33.1 64.6 50.5 96.4 27.9 51.2 43.4 105.4 57.5 161.7 2.5 10-14.5 7.8-10.1-0.9 4.6-9 16.2 4.2 6.7 7.6-10.2 3.6-12.7-23-14.1-28.2-9.4-35-17.4-70.2-31.8-103.6-20.9-48.5-52.5-91.6-72.2-140.7-16-39.8-19.8-82.6-33.2-123.1-1.4-4.3-8-14-4.9-18.8 2.1-3.4 6.4-2.4 8.1 0.6z"  fill="#c2e1ff" /><path d="M357.8-389.7c17.2 42.5 19.3 89.3 35.4 132.2 37.5 100 70.5 113.9 105.1 245.2 2.1 7.9 20.4 52.3 11.4 55-7.7 2.3-8.7-11-0.8-9.8 7.9 1.1 3.3 13.6-3.4 9.2-10.7-6.9-36.6-123-44.8-144.3-20.2-53.3-54.6-99.4-76.5-151.7-17.5-41.6-21.5-86.3-34.9-129.1-2.1-6.7 4.2-15.3 8.5-6.7z"  fill="#005bbb" /><path d="M373.3-333.2c19.5 94.3 56.1 136.1 92.8 219.1 16.6 37.5 25 77.2 36.1 116.5 2.6 9.4 28.6 72.9 21.8 75.4-6.9 2.6-8.7-9.6-1.3-9 7.4 0.6 3.8 12.3-2.6 8.7-16.4-9.2-44.6-135-52.5-159.7-21.8-68.1-68-124.4-91.2-191.7-5.8-16.8-15.5-40.4-14.9-58.3 0.3-7.3 9.7-7.1 11.8-1z"  fill="#c2e1ff" /><path d=""  fill="#005bbb" /><path d=""  fill="#c2e1ff" /><path d=""  fill="#fff" /><path d="M434-380.4c-46.5 139.7 36.9 218.5 87.9 339 4.2 9.9 39.4 83.7 31.6 86.7-6.8 2.6-8.6-9.4-1.3-8.9 7.3 0.5 3.9 12.2-2.5 8.7-7.3-4-35.7-80.7-41.3-93.9-33.6-79.5-99.4-158.3-103.6-246.8-1.2-26.1-1-68.6 12.7-92 5.6-9.6 18.1-2.6 16.5 7.2z"  fill="#005bbb" /><path d="M448.7-371.7c-52.9 127.5 26.8 210.1 80.2 318.6 5.4 10.9 50.2 99.2 41.5 102.5-6.9 2.6-8.7-9.4-1.4-8.9 7.3 0.5 3.9 12.2-2.5 8.7-6.3-3.4-34.7-75.4-40.4-87.5-36.2-76.9-107.7-164.2-110.8-250.3-0.9-26.2 1.2-69.2 16.6-91.7 6.5-9.6 19.1-1.4 16.8 8.6z"  fill="#c2e1ff" /><path d="M459.1-225.7c22.8 76.8 86.8 134.9 122.1 205.7 5.3 10.7 25.5 41.6 22.1 53.4-2.1 7.5-13.5 1.4-8.5-4.5 5.1-5.9 12.9 4.4 5.8 7.6-8.2 3.8-31-60.2-35.4-68.8-31.6-61.5-81.1-112.1-109.7-175.2-11.3-25 0.5-24.5 3.6-18.2z"  fill="#fff" /><path d="M477.7-369.8c-52.3 104-16 171.6 45.2 259.5 9.5 13.6 94.9 146.2 77.4 152.1-7.4 2.5-8.7-10.4-1-9.6 7.7 0.9 3.5 13.1-3.1 9.1-5.3-3.2-33.1-74.3-39.9-86.5-41.3-74.2-115.8-142.4-119.5-232-1.2-29.9 4.5-78.7 24.1-103.1 7.7-9.5 20.2 0.2 16.8 10.5z"  fill="#fff" /><path d="M490.3-393.7c-38.6 72.4-53.1 139.8-11.7 214.8 22 39.8 110.7 150.8 113.5 187.1 0.7 8.8-14 4.2-8.4-2.7 5.6-6.9 13 6.5 4.3 7.7-8.6 1.1-28.2-52.8-33-61.2-43.7-77.3-123.1-149.6-118-245.1 1.8-33.7 13.4-85.9 36.6-112.1 8.3-9.4 20.7 1.2 16.7 11.5z"  fill="#c2e1ff" /><path d=""  fill="#fff" /><path d="M517-252.7c9 34.4 32.3 62.3 56.9 87 3.4 3.4 30.5 26 26.1 29.7-3 2.6-6.2-3.2-2.3-4.4 3.8-1.1 4.2 5.5 0.3 4.9-17.5-2.8-83.6-94-90.9-113.8-2.4-6.6 7.1-9.4 9.9-3.4z"  fill="#c2e1ff" /><path d="M530.8-30.9c5.1 11.6 50 105.5 42.9 108.4-4.8 2-8.5-4.9-4.2-7.8 5-3.5 10 4.7 4.7 7.6-5.3 2.9-53.2-94-52.4-106.6 0.4-5.2 6.7-5.4 9-1.6z"  fill="#c2e1ff" /><path d="M544.8-39.9c6.2 11.9 57.5 114 48.2 117.5-5.9 2.2-8.9-7.3-2.8-8.8 6.1-1.6 8.1 8.2 1.8 9.1-9.3 1.3-20.2-37.7-23.2-44.7-6.1-14-32.4-59.4-32.2-71.3 0.1-4.8 5.9-5.3 8.2-1.8z"  fill="#005bbb" /><path d="M563.2-346.4c-4.1 35.1 1.4 68.8 18.4 99.8 2.4 4.3 25.2 33.1 17.8 35.1-4.2 1.1-5.7-5.6-1.3-6.3 5.1-0.8 4.5 7.7-0.4 6.3-24.2-6.9-58.4-111.1-49.6-137.9 2.9-9 14.7-5.4 15 3z"  fill="#fff" /><path d="M573.6-35.9c4.4 8 37.4 67 26.5 70.6-6.3 2.1-9.1-8.1-2.6-9.5 6.5-1.4 8.2 9 1.5 9.7-8.2 0.8-11.9-20.3-13.9-25.4-5.6-13.6-15.8-28.4-19.3-42.5-1.2-5 5.2-6.7 7.8-2.9z"  fill="#fff" /><path d="M588.7 30.2c2.4 5.7 21 37.3 11.5 40.6-6.1 2.2-9-7.7-2.7-9.2 6.3-1.5 8.1 8.6 1.6 9.4-7.9 1-20.1-33.7-19.5-39.4 0.5-5.2 6.9-5.4 9.1-1.4z"  fill="#fff500" /><path d=""  fill="#c2e1ff" /><path d=""  fill="#c2e1ff" /><path d=""  fill="#fff" /><path d=""  fill="#fff500" /><path d=""  fill="#fff" /><path d=""  fill="#005bbb" /><path d=""  fill="#005bbb" /></svg>