<svg width="1200" height="675" viewBox="-500 -500 1200 675" xmlns="http://www.w3.org/2000/svg"><path d="M-500-500h1200v675h-1200z" fill="#000"/><path d=""  fill="#005bbb" /><path d=""  fill="#fff500" /><path d=""  fill="#fff500" /><path d=""  fill="#c2e1ff" /><path d="M-393.3-96.7c6.9 17.5 48.6 108.9 42.7 120.3-5.5 10.5-20.6-2.1-11.2-9.4 9.4-7.3 17.8 10.6 6.2 13.3-13.4 3-14.6-33.5-17-40.9-5.6-17.4-33.3-67.4-31.9-81.6 0.6-6.4 8.5-6.5 11.2-1.7z"  fill="#fff" /><path d=""  fill="#c2e1ff" /><path d=""  fill="#fff500" /><path d="M-373.4-85.3c8.4 18.2 91.5 156.1 62.8 166.5-10.4 3.8-15.5-12.9-4.7-15.6 10.7-2.7 14 14.5 3 16-14.2 1.9-11.6-31.8-13.4-39.3-10.3-44.7-50.6-90.5-57.8-124.2-1.4-6.4 6.9-8.3 10.1-3.4z"  fill="#005bbb" /><path d=""  fill="#fff500" /><path d=""  fill="#c2e1ff" /><path d="M-315.6-327.8c-25.2 72.9-32.7 166.4 6.1 235.7 21.6 38.5 98.8 122.3 91.8 166.5-2.2 13.7-23 1.4-12-7.1 9.4-7.2 17.8 10.6 6.2 13.2-10.5 2.4-18.2-51.9-30.9-76.3-35.1-67.3-90.8-112.7-97.4-193.2-2.9-36-2.2-116.5 16.3-147.6 6.9-11.5 22-2.9 19.9 8.8z"  fill="#fff500" /><path d="M-301.8-146.6c11.6 71 72.7 120.5 90.1 189.9 1.9 7.7 12 32.9 0.4 37.4-11.7 4.6-15-16.1-2.4-15.3 12.6 0.7 6.9 20.9-4.2 14.9-10.3-5.5-9.9-46.1-13.4-57.5-15.1-50.7-52.4-88.9-73.7-136.5-21.9-48.8 1-38.9 3.2-32.9z"  fill="#005bbb" /><path d="M-280.7-362.3c-28 78.1-54.3 178.2-17.7 257.6 23.2 50.2 64.3 88.9 80.8 142.7 2 6.4 12.1 28.4-0.9 30.1-10 1.2-11.1-14.6-1-14.8 11.8-0.2 7.8 19-3 14.2-3.9-1.8-15.5-51.4-19.5-60.8-35.7-83.4-93.4-115.1-90.6-217.6 1.2-42 8.9-126 31.9-161.2 7.5-11.5 22.6-2.1 20 9.8z"  fill="#005bbb" /><path d="M-269.9 10.6c5.8 8.8 39.1 60.3 24.7 68.5-8.1 4.6-14.7-8.6-6.1-12.3 8.6-3.7 13.7 10.1 4.8 12.9-11.9 3.7-13.1-22.1-15.1-28.1-3.8-11.2-16.4-27-16.9-38.4-0.3-5.1 5.9-6.1 8.6-2.6z"  fill="#005bbb" /><path d="M-247.2-233.2c-4.2 42-5.2 84.9 7.1 125.6 9.7 31.9 67.3 160.5 47.5 186.5-8.4 11-23.2-6.5-11-13 12.2-6.5 18.4 15.6 4.5 16.4-12.9 0.7-11.7-68-17.9-92.1-17.1-66.4-51.5-120.3-50.4-191.3 0.2-10.9-1.5-25.4 2-35.9 3.6-10.8 17.7-6.4 18.2 3.8z"  fill="#fff500" /><path d="M-233.6-89.2c44 118.2 51.3 166.9 36.4 171-11.4 3.2-15.4-15-3.7-17 11.7-1.9 13.7 16.6 1.9 17.3-16.2 0.9-11-55.4-12.7-66.3-3-19.9-33.9-98.2-33.3-103.4 0.7-6.5 8.7-6.5 11.4-1.6z"  fill="#fff" /><path d="M-210.5-396.8c-10.8 86.7-43.4 167.5-30.7 256.7 4.2 29.2 14.9 56.5 25.5 83.8 1.5 3.9 14.1 26.6 0.6 25.9-7.2-0.3-7.9-11.1-0.8-12.3 8.3-1.4 9.9 11.8 1.4 12.3-10.5 0.7-15.5-30-18.1-36.8-45.1-116.1-25.6-215.4 2.6-332.8 3-12.6 20-9.3 19.5 3.2z"  fill="#c2e1ff" /><path d="M-195.6-244c-2.1 91.5 36.1 177.7 28.8 269.1-0.9 11.3 1.6 56.2-14 58.3-15.4 2-13.1-23.6 1.7-19 14.8 4.6 2 27-9.5 16.5-5.1-4.6 5.3-79.6 5.6-93.7 1.7-67.1-23.5-130.9-28.6-197.5-0.9-11.1-1.8-22.5-1.5-33.7 0.3-11.5 16.1-10.9 17.5 0z"  fill="#005bbb" /><path d="M-178.3-397.8c-0.8 28.4-7.3 56.3-11.4 84.3-9.8 65.8-6.6 131.3 7.6 196.2 6.1 27.8 30.5 143.5 11.2 163.7-10.4 11-24.5-9.9-10.4-15.4 14.1-5.6 18.1 19.2 3 18.4-17-1-4.3-76.7-5.3-90.8-3.8-54.4-22.4-106.6-27.4-161-5.6-61 3.6-118.8 12.2-179 1-6.8-0.6-20.8 6.7-25.1 6.9-4 13.5 1.7 13.8 8.7z"  fill="#005bbb" /><path d="M-160.8-18.8c0.2 14.4-0.2 106.5-21.2 102-13.1-2.9-7.5-23.3 5.2-19.1 12.8 4.3 5 24-7.2 18.4-12.3-5.7-2.3-31.1-1-40.2 2.6-17.6-0.7-50.4 7.7-65.6 4.7-8.5 15.7-3.9 16.5 4.5z"  fill="#c2e1ff" /><path d="M-145.7-192.8c26.5 111.4 65.4 121.5 12.7 240.5-4.2 9.5-9.7 38.5-24.3 37.1-18-1.7-8.9-30.3 6.8-21.2 15.7 9.1-4.7 31.2-15.1 16.4-5.8-8.3 38.3-102.1 41.7-124.4 9.7-62.6-33.7-102.3-35-146.4-0.3-8.2 10.4-8.7 13.2-2z"  fill="#fff500" /><path d="M-125.3-355.9c-4.6 44.8-10.8 89.2-2.7 133.9 19.2 104.9 96.8 151.1 26 260.4-7 10.8-20.8 45.2-35.3 46.5-16.9 1.5-17.8-25.2-0.8-24.9 16.9 0.3 15 27-1.9 24.9-37.9-4.9 50.4-93.7 52.5-143.9 2.5-59.8-51.8-124.8-59.8-190.1-4-32.2-7.8-80.2 3.6-111.2 4-10.9 18.3-6 18.4 4.4z"  fill="#005bbb" /><path d="M-107.1-398.1c3.3 57.4-14.8 113.2-4.5 170.7 13.4 74.5 89 141.4 57.3 220.4-4 10-10.1 26.1-19.2 32.7-14.6 10.7-30.2-13.3-14.5-22.3 18.3-10.6 28.9 22.9 7.9 24.8-38.3 3.4 22.5-58.6 15.5-105.2-9.2-61.2-58.1-109-66.2-176.9-4.5-37.8-2.4-109.5 6.7-146.3 2.5-10.2 15.8-7.2 17 2.1z"  fill="#c2e1ff" /><path d="M-89.8-25.2c-3 17.9-42.3 120.8-63.8 109.4-14.3-7.6-1.1-29.5 12.2-20.4 13.4 9.1-2 29.4-14.4 19-3-2.5-4.6-6.5-4.1-10.4 0.6-5.2 48.3-103.4 52.2-107.6 7.9-8.5 19.3 0 17.9 10z"  fill="#c2e1ff" /><path d="M-75.5-237.5c17.4 121.4 146.6 168.1 20.1 292.7-9.4 9.3-30.4 39.5-46.4 30.9-14.7-8-5.2-31.1 10.9-26.5 16.1 4.6 11.8 29.3-4.9 28.2-10-0.6-16.4-11.5-12.1-20.5 19.4-40.9 84.5-56.6 89.4-124 4.7-65.3-58-115.9-71.2-177.8-2-9.4 11.3-11.6 14.2-3z"  fill="#005bbb" /><path d="M-57.8-249.3c7.6 71.4 70.8 120.7 77 191.2 5.5 62.9-80.1 159.3-104 144.3-14.7-9.2-3.4-32.5 12.9-26.7 16.3 5.8 10.3 31-6.9 28.8-10.3-1.3-16.2-12.9-11.1-22 21.8-39.4 85.9-51 91.7-121.5 5.4-64.9-54-114.9-70.5-174.5-6-21.8 5-39.4 10.9-19.6z"  fill="#005bbb" /><path d="M-43.2-186.4c41 88.5 103.9 142 14.3 233-11 11.2-33.6 40.3-50 41.9-20 2-21.5-29.7-1.3-29.6 20.1 0.2 18.1 31.9-1.9 29.6-10.2-1.2-16.2-12.7-11.3-21.8 20.6-38 82.5-50.8 91.4-117.6 6.7-50.1-28.9-89.4-50.4-130.7-3.2-6.1 5.5-10.1 9.2-4.8z"  fill="#fff500" /><path d="M-25.5-200.3c36.1 87.4 108.5 150.7 25.9 242.7-11.5 12.8-37.6 45.6-55.9 46.5-20.6 1-20.5-31.6 0.1-30.4 20.6 1.2 16.9 33.6-3.4 30.2-10.4-1.8-15.9-13.9-10.5-22.9 21.9-36 81.5-46.1 89.6-117.1 6.2-55.2-33.4-97.9-55.7-144.4-3.1-6.5 6.2-10.5 9.9-4.6z"  fill="#005bbb" /><path d="M-6.9-353.9c33.3 115.3 153.7 271.9 118.9 388.3-3.8 12.7-11 44-24.1 50-15.2 7.1-25-17.6-9.2-22.9 15.9-5.4 23 20.2 6.6 23.8-8.4 1.8-16.2-5.6-14.8-14.1 6.2-38 47.8-61.5 27-144.7-17.2-68.9-113.8-229.5-117-278.1-0.5-7.9 9.7-8.7 12.6-2.3z"  fill="#fff" /><path d=""  fill="#c2e1ff" /><path d="M26.1-155.4c40.2 71.9 53.1 145.4-6.1 211.3-9 10-28.1 36.5-43.9 32.2-19.8-5.4-9.7-36.2 9.5-28.7 16.4 6.4 9.5 31.8-7.9 29-10.4-1.6-16-13.6-10.7-22.6 19.5-32.9 62.3-39 76-102 12.9-59.8-26-93.3-26.3-116.8 0-5.5 6.7-6.3 9.4-2.4z"  fill="#c2e1ff" /><path d="M42.5-305.4c34.1 48.6 56.8 100.4 86.5 151.3 39 66.8 84.3 105.9 70 190.7-2.1 12.7-4.5 34.6-13.2 44.7-10.3 12-28.3-5.3-16.8-16.1 13.5-12.6 29.1 13.8 11.6 19.5-7.7 2.5-15.7-3.7-15.3-11.7 2.1-34.2 38.7-70.1 7.5-141.4-14.9-33.9-40.9-61.9-59.5-93.7-25-42.9-42.3-88.8-71.1-129.6-11.9-16.9-0.2-14.3 0.3-13.7z"  fill="#fff" /><path d="M67.4 75.3c-11.8 18.6-38.2 5.9-24.7-10.2 22.1-26.2 32.7 37.4 3.3 19.8-32.7-19.6 40.3-46.9 21.4-9.6z"  fill="#c2e1ff" /><path d="M82.5-49c3.2 35.1-39.5 152.5-72.7 135.2-17.3-9-1.7-35.4 14.5-24.6 16.2 10.8-2.2 35.4-17.1 22.9-16.5-13.7 37.3-65 47.1-87.1 5.3-12 7.2-45.4 13.2-52.1 5.6-6.3 14.1-1.5 15 5.7z"  fill="#c2e1ff" /><path d="M102.1 60.1c-8.7 20.5-31.1 41.9-32.5 14.2-0.6-12.2 15.8-17.7 22.6-7.5 6.8 10.2-4.4 23.3-15.5 18.1-34.7-16.2 39.5-66.9 25.4-24.8z"  fill="#fff500" /><path d="M110-326.6c40.5 30.1 58.7 74.9 91 111.9 28.6 32.8 74 52.5 91.5 94.1 22.1 52.3-34.5 187.6-52.5 184.8-13.6-2-12.8-22.6 0.9-23.5 13.7-0.9 17.3 19.3 4.1 23.2-7.9 2.3-15.9-4.3-15.1-12.5 4.2-44.2 71.9-113.4 47.4-178.3-15-39.8-58.3-59.5-86-89.1-27.1-29-42.8-66.5-70.6-95-2.7-2.7-22.7-23.2-10.7-15.6z"  fill="#fff" /><path d="M128.1-313.9c32.9 29 49 71.1 78.4 102.9 27.9 30.1 69.7 49.3 86.8 88.6 21.3 49.3-6.8 102.1-26.2 147-5.4 12.4-17.2 61.4-35.7 58.2-13.8-2.4-12.4-23.3 1.6-23.9 14-0.6 17.1 20.1 3.6 23.7-8.1 2.1-16-4.8-15-13.1 5-41.8 77.2-126.5 58.7-191.4-13.6-47.8-68.7-70.5-98.2-107.2-6.6-8.2-57.3-77.6-58.7-82.1-0.9-2.9 2.5-4.4 4.7-2.7z"  fill="#fff" /><path d="M146.9-275.3c19.7 26.8 34.7 56.3 58.9 79.6 29.5 28.5 70.5 48.1 83.5 89.9 14 45.3-9.6 92.9-26.6 134.1-5.3 12.8-16.5 60.5-34.8 57.2-13.8-2.4-12.4-23.3 1.6-23.9 14-0.6 17.1 20.1 3.6 23.7-8.1 2.1-16-4.8-15-13.1 4.8-39 70.9-120.6 55.7-183.4-11.3-47-62.8-68.4-92.8-101.8-14.2-15.8-33.8-38.4-41.4-58.5-1.8-4.8 4.4-7.2 7.3-3.8z"  fill="#fff500" /><path d="M164.5-98.4c29.3 41.8 41.4 87.7 32.2 138.4-2 11.1-5.4 47.2-22.7 45.2-13.4-1.6-13.3-21.7 0.2-23.1 15.7-1.6 16.9 23.3 1.1 23.2-23.7-0.2 8.5-66.4 7.2-101.8-1.3-35.9-24.8-66.3-26-79.1-0.4-4.8 5.3-6 8-2.8z"  fill="#005bbb" /><path d="M182.2-373.3c26.4 38 30.3 85.6 53.3 125.1 19.9 34.2 54.6 56.5 73.9 90.8 27.4 48.6 6.4 99.3-16.6 144.7-6.4 12.6-19.2 55.8-34.5 58.3-22 3.5-13.5-34.3 4.9-21.7 18.4 12.6-13.8 34.2-18.5 12.4-5.1-23.7 64.9-113.7 60.4-165-4.8-56.4-63.9-86.8-88.6-133.7-5.4-10.1-42.4-101.9-42.8-108.3-0.3-5 5.8-6 8.5-2.6z"  fill="#fff500" /><path d="M201.7-54.8c10.1 24.4 12.4 143.7-18.1 139.9-15.7-1.9-11.3-26.6 4.1-22.9 15.4 3.6 8.4 27.7-6.6 22.3-18.7-6.6 7.6-56.2 9.9-69.2 2.3-13.4-2.3-68.4-1.1-71 2.6-5.7 9.7-4.1 11.8 0.9z"  fill="#005bbb" /><path d="M217.3-262.4c20.6 42.3 61.5 65.7 86.1 104.4 36.4 57.4 1.2 117.9-24.8 171.2-7.1 14.5-22.4 69.4-39.8 72-22.3 3.2-13.1-34.8 5.2-21.9 18.4 13-14.5 34.3-18.8 12.3-4.2-21.2 72.8-141.4 76.5-185.2 5.2-60.7-51.8-90-83-132.9-3.5-4.8-6.9-9.9-9.9-15.1-3.3-5.6 4.9-9.8 8.5-4.8z"  fill="#fff" /><path d="M231.7-167.5c24.4 18.6 48 39.3 55.5 70.3 12.7 51.8-43.4 185.2-60.1 182.3-13.8-2.4-12.4-23.3 1.5-23.9 16.3-0.7 16 25.1-0.2 24-31.8-2.1 33.7-91.2 43.1-158.9 3.1-22.2-1.1-43.9-14.2-62.3-7.8-11.1-37.2-38.7-25.6-31.5z"  fill="#c2e1ff" /><path d=""  fill="#fff500" /><path d="M273.4-73.4c5.5 31.9-33 161.5-51.8 158.4-16.1-2.7-10.4-27.8 5.2-23.4 15.7 4.4 7.4 28.7-7.7 22.7-19.9-8 11.5-57.1 15.9-69.2 5.8-15.5 22.7-91.9 23.9-93.2 5-6.2 13.4-2.1 14.5 4.7z"  fill="#fff500" /><path d="M287-139.3c31.4 44 9.3 98.5-9.8 142.3-6.5 14.9-26.8 85.7-46.4 82.2-18.9-3.4-6.6-32.8 9-21.7 15.7 11-7.8 32.5-17.3 15.9-4.5-7.7 35.3-90.6 41.7-105.5 9.5-22 19.5-45 21-69.2 0.8-13-10.1-32-7.4-42.9 1.2-4.7 6.8-4.5 9.2-1.1z"  fill="#005bbb" /><path d="M310.8-46.9c-8.8 20.2-53 117.8-63.8 128.8-3.8 3.8-9.8 4.7-14.6 2-14.4-8-0.5-30 13-20.4 13.4 9.5-2.8 29.8-15.1 18.9-13.1-11.7 12-45.3 17.4-56.7 8.7-18.6 30.6-76.3 45.1-87.2 10.5-7.9 21.6 3.8 18 14.6z"  fill="#fff500" /><path d="M322.1-197.3c48 87-8.3 153.6-47.4 230.3-6 11.8-18 55.8-35.5 52.4-22.2-4.2-1.1-37.3 12.1-19 11.3 15.6-18.1 28.3-21.8 9.4-4.5-23.2 67.9-131.5 81.3-159.7 9.6-20.2 16.1-42 14.5-64.6-1.1-15.4-13.5-32.5-13.1-46.7 0.2-5.8 7.2-6.3 9.9-2.1z"  fill="#005bbb" /><path d="M362.9-397c-1.3 46.3-38.8 81.9-41.2 127.8-4.2 80.1 61.5 104.2 12.4 203.2-5.5 11.2-12.4 29.2-22 37.2-15.7 13-31.2-17.1-11.5-22.3 19.7-5.2 21.1 28.6 1.1 25-27.8-4.9 26.1-74 31.6-105.2 11-62.5-41.4-114.3-25-177.6 3.1-11.9 32-87.8 37.3-95.2 6.3-8.6 17.5-2.1 17.3 7.1z"  fill="#005bbb" /><path d="M362 2.7c-42.8 33.7-49.5 61-69.6 80-5.1 4.8-13.4 4.3-17.9-1.1-10.8-12.8 10.3-28.8 19.7-14.8 8 11.9-8.4 25.7-18.8 15.8-20.7-19.8 52.5-96.8 70.1-105.3 16.8-8.2 27.8 13.4 16.5 25.4z"  fill="#005bbb" /><path d="M380.6 74.3c-14 22.8-36.7-0.1-21.3-11.1 22.2-15.9 26.1 33.5 1.7 21.2-32.6-16.3 35.1-47.2 19.6-10.1z"  fill="#fff" /><path d="M401.1-397.4c-1.1 49.4-41.7 85-49.7 132.2-6.1 36.7 10.6 71.6 12.8 107.8 2.8 45.4-17.8 84.4-42.2 121.1-6.5 9.8-18.2 39-33.8 34.4-19.6-6-3-35.6 12.4-22 15.3 13.6-12.3 33.6-20.4 14.7-3.5-8 53.7-93.7 60.5-114.7 18.3-56.2-17.5-109.4-5-165.6 1.2-5.4 46.9-113.1 48.1-114.8 6.2-8.6 17.4-2.2 17.3 6.9z"  fill="#005bbb" /><path d="M415.2 32c-8.1 10.8-32.8 62.6-50.2 51.9-14.3-8.8 0.8-30.6 14.1-20.3 13.3 10.3-4.1 30.4-16.2 18.7-14.1-13.6 28.6-81.1 48.1-70 7.6 4.3 8.1 12.9 4.2 19.7z"  fill="#c2e1ff" /><path d="M432.5-347.2c-13.5 35.2-37.6 65.7-43.5 103.8-6.6 43.4 4.1 86.1-11.2 128.7-15.7 43.8-48.7 77.9-74.7 115.6-8.6 12.4-34.1 66.1-43.2 70.5-17.3 8.5-25-22.6-5.6-23 19.3-0.4 13.1 31-4.6 23.3-31.3-13.6 91.8-166.1 103.2-188.4 32.2-62.5 5.6-133.8 36.6-197.7 6.2-12.8 13.7-37.8 24.9-46.8 10.2-8.1 21.3 3.2 18.1 14z"  fill="#fff" /><path d="M449.9-66c-27.8 42-69.8 67.6-104.9 102.2-9.5 9.3-38.8 64-54.3 45.3-9.2-11.1 5.9-26.6 17.2-17.7 13.3 10.4-4.3 30.4-16.3 18.6-14.9-14.6 21.2-52.9 30.2-63.3 23.9-27.5 54.4-47.5 80.7-72.4 9.5-9.1 19.1-27 30.8-32.7 13.3-6.4 22.9 8.9 16.6 20z"  fill="#005bbb" /><path d="M467.3-113.7c-28.4 67.5-89.4 97.7-137.1 148.3-9 9.5-37 65.9-53 46.8-9.2-11 5.6-26.5 17-17.7 13.3 10.2-4 30.3-16.1 18.7-28.1-27 97.1-122.3 128.2-153.4 11.2-11.2 36.1-55.2 45.7-59.1 10.9-4.5 18.7 6.8 15.3 16.4z"  fill="#005bbb" /><path d="M484-13.8c-8.5 34.6-10.8 92.2-12.6 93.5-10.4 8-19.6-11.8-6.8-14.6 12.8-2.8 12.8 18.9 0 16.1-17.1-3.7-8-92.6 1.4-103.8 7.3-8.8 18.9-1.1 18 8.8z"  fill="#fff" /><path d="M501.4-288.9c-14.8 64.8-11 134-44.1 193.6-30.5 55.1-83.1 83-125.5 126.7-10.1 10.4-36 63.1-52.8 52.9-16.8-10.2 5.7-33.7 16.6-17.4 10.9 16.3-19.4 28.2-22.4 8.8-6.7-42 127.1-136.3 153.9-172 59.6-79.6 31-149.4 55-199.2 5.5-11.3 20.3-4.5 19.3 6.6z"  fill="#fff" /><path d="M517.7-209.6c-2.7 79.2-25.1 139.9-44.3 215.2-3.4 13.5-7.3 67-13 73.9-9.1 11-23.7-7.7-10.8-13.9 15.1-7.2 17 21.9 1 16.7-16.9-5.5-1.5-62.2 1-74.1 17.1-85.6 39.6-122.8 48.1-218.6 1.1-11.8 17-10.6 18 0.8z"  fill="#c2e1ff" /><path d="M535-259.7c-2 37.3-4.6 225.9 0.4 253.8 3.8 21.5 11.2 42.2 20.1 62.1 1.5 3.4 14.1 21.7 2.6 22.6-6.1 0.5-7.8-8.6-1.9-10.3 5.9-1.8 9.5 6.7 4.1 9.6-16.1 9-42.8-98.7-44.2-112-2.2-20.8-0.6-200.3 1-226.4 0.8-11.8 16.9-10.7 17.9 0.6z"  fill="#fff500" /><path d=""  fill="#fff" /><path d=""  fill="#fff500" /><path d="M584.6-16.9c2.6 9.6 27.1 65.1 15.8 68.5-7.9 2.4-11-10.3-2.9-11.8 8.2-1.5 9.8 11.5 1.6 12.1-10.1 0.8-29.1-59.2-27.3-68.2 1.4-7.1 10.3-6.4 12.8-0.6z"  fill="#c2e1ff" /><path d="M602.2-269.7c0.9 3.9 6.7 24.6-6.2 18.8-18.7-8.4 19.5-19.4 8.1-2.4-8 12.1-15.2-9.7-15.3-14.6-0.1-8.3 10.7-8.7 13.4-1.8z"  fill="#005bbb" /><path d=""  fill="#fff500" /><path d=""  fill="#005bbb" /><path d=""  fill="#005bbb" /><path d=""  fill="#fff" /><path d=""  fill="#c2e1ff" /></svg>