<svg width="1200" height="675" viewBox="-500 -500 1200 675" xmlns="http://www.w3.org/2000/svg"><path d="M-500-500h1200v675h-1200z" fill="#000"/><path d=""  fill="#005bbb" /><path d=""  fill="#fff" /><path d=""  fill="#c2e1ff" /><path d=""  fill="#fff" /><path d=""  fill="#fff" /><path d="M-397.4-310.8c47.6 63.2 112.1 149.2 45.5 222.5-8.4 9.2-33.6 38.1-46.6 38.2-13.1 0.1-0.9-20.4 5.3-8.9 5.3 9.8-14 12-11.1 1.3 5-18.3 72-39 75.5-103.9 2.8-52.4-38.8-102.7-67.8-142.9-0.3-0.5-4.7-10.4-0.8-6.3z"  fill="#fff" /><path d=""  fill="#fff" /><path d=""  fill="#005bbb" /><path d=""  fill="#fff" /><path d=""  fill="#fff" /><path d=""  fill="#c2e1ff" /><path d="M-366.8-399.2c93.3 73.8 146.5 175 123.8 294.3-1.7 8.7-7.5 48.7-17.7 50.5-5.2 0.9-7.5-6.7-2.6-8.7 5.7-2.4 9 6.9 3 8.6-11.5 3.4 6-37.4 7.4-42.8 11.6-46.1 14.1-99.3-0.3-145.1-16.9-53.8-61.8-106.5-102.3-144.7-1.5-1.4-13.7-13.6-11.3-12.1z"  fill="#fff500" /><path d=""  fill="#005bbb" /><path d="M-396.5-265c16.4 42.6 29.7 90.3 8.1 133.6-2 3.9-4.9 13-10.2 13.1-9.3 0.2-3.7-15 3.3-8.7 5.9 5.3-4.8 13-8 5.7-1.9-4.5 18.5-42.3 19.6-57.6 1.1-16.2-18.3-82.9-17.1-86.1 0.8-2.1 3.4-1.7 4.3 0z"  fill="#005bbb" /><path d=""  fill="#c2e1ff" /><path d="M-396.7-276c21.8 47.5 43.5 103.3 15.5 152.8-3.1 5.4-9.7 19.7-16.1 21.2-7 1.7-9.1-9.5-2-10.5 7.2-0.9 8 10.5 0.8 10.7-16.4 0.3 23.7-39.7 24.4-77.2 0.6-33.5-14-65-26.4-95.3-1.1-2.6 2.5-4 3.8-1.7z"  fill="#fff" /><path d="M-391.9-329.8c70 71.7 158.7 172.7 59.5 263.9-8.6 7.9-57.6 47-65.9 46.9-13.2-0.2-0.6-20.5 5.4-8.8 5.1 10-14.3 11.8-11.1 1.1 3.3-11.2 33.2-24.8 42.5-31.3 34.3-24.2 62.9-55.7 66.1-99.5 4.8-66.3-50.9-119.8-92.5-164.7-0.3-0.4-7.8-10.7-4-7.6z"  fill="#c2e1ff" /><path d="M-382-99.4c-3.2 3.9-16.9 23.2-21.7 11.9-2.6-6 6-10.8 9.7-5.5 4.4 6.2-5.7 12.7-9.4 6-8.4-15 31.7-27.2 21.4-12.4z"  fill="#fff500" /><path d="M-375.8-11.1c-5.4 3.8-21.4 21.5-27.4 13.5-5.6-7.4 8.4-13.8 10.4-4.8 1.7 7.7-10.6 9.8-11.5 1.9-1.9-17.9 46.4-27 28.5-10.6z"  fill="#005bbb" /><path d="M-370.5-229.8c17.7 43.6 19.9 87.5-10.4 126-3.6 4.5-12 18.2-18.6 17.1-10.2-1.8-0.7-17.2 5.5-8.9 6.2 8.4-11.3 12.9-10.1 2.7 0.6-4.7 32.1-40.1 37.1-56.7 10.5-35-11.3-70.6-7.8-80.2 0.8-2.1 3.3-1.7 4.3 0z"  fill="#fff" /><path d="M-364.6-265.9c43.4 63.9 67.7 132.5 1.4 191.6-6.3 5.6-29 29-37.5 26.2-6.6-2.2-4.4-12.4 2.6-11.7 8.1 0.9 6 13.6-1.9 11.8-16.9-3.7 21.7-29 25.1-31.7 22.7-18.5 42.4-41.5 47.3-71.3 7-41.6-16.3-78.2-38.4-111.1-1.2-1.8-1.2-6.8 1.4-3.8z"  fill="#005bbb" /><path d="M-355.5-66.4c-6.5 5.4-41.7 37-47.9 27.6-4.5-6.9 6.7-13.4 10.5-6.1 3.7 7.3-8.1 12.6-11.1 4.9-2.8-7.5 36.5-35.4 43.6-36.8 6.4-1.3 8.8 6.4 4.9 10.4z"  fill="#fff500" /><path d=""  fill="#fff500" /><path d="M-319.4-399.2c82.7 120 107.5 179.3 85.7 326.9-1.6 10.8-6.9 64.6-18.6 67.5-6.7 1.7-7.1-9.8-0.3-8.5 8 1.5 0.4 13.4-4.3 6.9-4.1-5.6 7.6-28.9 9.3-35.7 14.1-55.5 18.8-119.5 12.3-176.4-7.2-63.2-45.9-115.4-79.4-167.5-0.9-1.4-9.3-18.4-4.7-13.2z"  fill="#c2e1ff" /><path d="M-338.3-325.8c23.8 24.3 48.6 49.7 64.6 80.1 44.3 84.2 10.5 177-61.7 231-15.2 11.4-57.9 52.3-63.5 51.8-9.8-0.9-2.1-16.2 4.5-8.8 7.7 8.7-13 12.5-9 1.7 8.1-21.7 42.5-40.8 60.3-54 38.4-28.4 68.7-60.7 78.3-109 8.7-43.7 2-89.9-21.9-127.8-13.7-21.8-31.7-40.9-49.4-59.5-1.4-1.4-3.7-6.8-2.2-5.5z"  fill="#fff" /><path d="M-328.2 60.3c-2.4 4.2-6.6 20.3-13.5 16.9-5.5-2.7-0.8-11.1 4.3-7.8 4.4 2.8 1 9.8-3.9 8-7.4-2.7 2.5-20.9 6.2-23.4 4.4-3 8.6 2 6.9 6.3z"  fill="#c2e1ff" /><path d=""  fill="#fff500" /><path d="M-315.1-59.8c-9.4 9.2-81.5 67.5-88.1 58.5-4.7-6.4 5.8-13.3 9.8-6.4 4 6.9-7.2 12.6-10.4 5.3-4-9 23.3-23.6 29.4-27.8 12.2-8.3 42.6-36.3 53.9-39.3 6.1-1.7 8.9 5.5 5.4 9.7z"  fill="#fff" /><path d="M-308.1-101.4c-7.2 12.4-85 91.9-95.6 76-3.9-5.9 4.2-12.5 9.3-7.7 5.9 5.7-3.7 14.5-8.9 8.2-7.5-9.1 27-26.9 33.1-31.2 44.9-31.1 53.5-51.8 56.5-52.6 4.7-1.3 7.3 3.6 5.6 7.3z"  fill="#c2e1ff" /><path d="M-301.5 18.5c-10.4 12.2-39 59-42.3 59.6-7 1.4-6.7-10.4 0.1-8.7 6.9 1.7 1.8 12.3-3.8 7.8-10-7.9 30.7-60.8 38.8-66.5 5.3-3.9 10.5 2.9 7.2 7.8z"  fill="#fff500" /><path d="M-295.5-161.9c1.2 55.8-38.3 92.5-80.7 121.7-5.5 3.8-19.2 18-25.9 12.9-7.5-5.9 4.8-16 9.2-7.5 5.1 10-14.4 11.8-11.2 1 2.3-7.8 58.9-43.8 69.1-54.4 11.3-11.7 20.5-25.3 26.2-40.6 3.8-10.1 2.1-26.2 7-34.8 1.8-3.3 6-1.5 6.3 1.7z"  fill="#fff" /><path d="M-289.1-399.4c20.4 48.8 51.2 94.6 63.3 146.6 12.2 52.4 8.4 230.1 7.5 293.5-0.1 6.2-9.8 2.3-5.7-2.2 4.1-4.5 8.8 5.1 2.6 5.5-7.2 0.5-3.5-237.7-5.2-261.3-4.5-63.3-37.6-113.7-62.2-170.2-0.7-1.7-4.5-19.2-0.3-11.9z"  fill="#fff500" /><path d="M-281.4-23.7c-22.5 29.3-53.6 51.3-73 83.1-2.6 4.3-7.5 21.7-14.4 18.3-5.5-2.6-0.8-11 4.3-7.8 5.1 3.2-0.4 11.1-5.1 7.3-14-11.1 69.3-103.5 82-109.1 5.4-2.3 8.9 3.9 6.2 8.2z"  fill="#c2e1ff" /><path d="M-269.2-399c13.9 48.6 40.4 93 50.4 142.8 13.6 68.2-0.2 138.6 12.6 207.1 1.6 8.5 19.6 64 18.7 67.1-1.2 4.1-7.1-0.5-3.4-2.7 3.2-1.8 5 4 1.4 4.3-11.6 1.1-25.4-84.5-26.7-95.1-6.6-52.9-0.2-106.2-5.4-159.1-5.6-57.5-35.2-106.4-51.8-160.7-1.1-3.5 2.1-8.4 4.2-3.7z"  fill="#c2e1ff" /><path d="M-270.6-288.9c45.8 70.1 45.9 176.2 5.4 249.2-14.7 26.6-36.5 47.4-56.3 70-5.5 6.3-29.9 48.3-34.9 47.6-8.3-1.1-1.2-13.7 4.1-7.3 6.1 7.6-11.4 10.2-7.6 1.1 26-63.3 89.1-97.8 106.9-166.8 11.9-46 14.6-99.3 0.9-145.2-4.9-16.6-29.4-62.1-18.5-48.6z"  fill="#fff" /><path d="M-263-388.7c14.5 49.6 40.8 94.8 47.9 146.5 8.9 65.5-2.8 131.6 12.2 196.7 6.2 26.7 35.4 81.6 37.5 96.6 0.5 3.7-5.8 2.2-3.6-0.9 2.2-3.1 5.7 2.4 2 3.2-4.1 0.8-11.5-20-13.1-23.4-48.5-101.8-30-163.5-40.5-267.5-5.2-51.7-29.9-95.9-45.5-144.5-0.9-2.8 0.1-13.6 3.1-6.7z"  fill="#fff500" /><path d="M-254.5-61.3c-17.9 45.8-56 74.1-82.9 113.7-3.1 4.6-12 28.3-18.8 24.9-5.5-2.7-0.8-11.1 4.4-7.8 5.1 3.3-0.4 11.1-5.2 7.3-15.4-12.3 66.1-95.1 73.9-106 8.2-11.3 12.7-25.5 20.9-36.5 3.3-4.4 9-0.3 7.7 4.4z"  fill="#c2e1ff" /><path d="M-248.1 64.7c-0.6 3-1 15.8-7.5 11.9-4.4-2.7 0.2-9.5 4.3-6.3 3.5 2.7 0.1 8.4-3.9 6.5-11.6-5.4 7.9-24.7 7.1-12.1z"  fill="#fff500" /><path d=""  fill="#fff500" /><path d="M-234.8-72.4c-2.7 16.8-44.5 155.5-58.9 149.8-6.3-2.5 0-11.8 4.6-6.9 4.7 4.9-4.9 10.7-7.1 4.4-4.9-14.2 20.9-51.8 27-64.9 7-14.9 24.6-81.5 27.6-85.3 2.6-3.4 7-0.7 6.8 2.9z"  fill="#fff" /><path d="M-228.2 10.3c-0.7 7.8-4.1 67.1-10.4 66.4-4.8-0.6-3.4-8.1 1.3-7 4.7 1.1 2.5 8.5-2 6.8-5.6-2-1.1-19.3-0.6-23.7 1.3-13.4 0.2-31.3 4.6-44 1.5-4.2 6.9-2.4 7.1 1.5z"  fill="#005bbb" /><path d="M-222.3-380.5c6.7 45 22.2 88 25.1 133.7 3.7 59.4-8.5 122.4 19.6 177.7 21.2 41.9 62.7 66.7 89.1 104.5 0.5 0.7 0 2.2-0.7 2.5-2.2 0.8-25.9-30.3-29.5-34.1-27.5-28.2-57-53.1-71.6-91-21.5-56.1-9-117-14.4-175.3-3.1-33.5-12.7-65.5-19.7-98.2-1.2-5.5-2.2-11-3.2-16.5-0.7-4.2 3.7-8.7 5.3-3.3z"  fill="#c2e1ff" /><path d="M-209.8-398.6c2.8 45.8 16.8 89.9 20 135.7 3.3 46.4-4.7 93.7 4.5 139.6 3.9 19.6 11.3 38.4 22.6 55 2.2 3.2 10.6 10.8 10.8 14.4 0 0.6-0.5 1.3-1.1 1.4-10.4 1.3-38.4-68.1-41-88.5-5.4-41 0.3-82.4-2.2-123.5-1.6-25.3-26.9-118.2-19.7-135.1 1.4-3.2 5.5-1.9 6.1 1z"  fill="#fff500" /><path d="M-207.5-398.5c2.7 47.4 17 93.1 19.5 140.6 2.9 54.2-8.8 111.8 13.1 163.3 12.7 29.9 36 51 59.4 72.5 1.8 1.6 13.5 10.7 12.3 12.9-0.2 0.3-0.5 0.5-0.7 0.5-4.3 0.8-25.8-23.7-29.9-27.5-74.5-68.8-56.7-133.5-60.7-224.1-1.9-41.1-13-80.6-17.7-121.3-1.3-11.3 1.9-31.4 4.7-16.9z"  fill="#005bbb" /><path d=""  fill="#005bbb" /><path d="M-195-236.1c1.9 65.6-8.6 134 35.2 189.4 20.9 26.4 48.7 46.2 69.3 72.9 3.6 4.7 32.1 47.1 26.3 49.4-3.1 1.2-4-4.2-0.6-4.1 3.3 0.2 1.9 5.5-1.1 4-8.5-4.5-18.1-34.5-24-43.1-33.1-48.4-86.4-76.6-103.6-135.9-5.6-19.4-15.5-118.6-7.8-134 1.6-3.2 5.8-1.7 6.3 1.4z"  fill="#fff500" /><path d="M-189.5 2.2c2.8 7.5 32.8 72.4 30.9 73.3-2.1 0.9-3.9-2.1-2-3.5 2.2-1.6 4.5 2 2.1 3.4-3.9 2.2-7.4-9.9-8.4-12.2-8.5-17.4-24.4-40.6-27-59.9-0.4-2.8 3.2-3.3 4.4-1.1z"  fill="#fff500" /><path d="M-182.9-82.9c20.5 51.8 71.3 79.7 100.8 125.3 2.6 3.9 19.9 29.3 16.2 32.6-2.5 2.2-5.1-2.6-2-3.6 3.7-1.1 3.1 5.6-0.3 3.9-9.2-4.7-20.2-36.8-26.9-46.1-22.1-30.1-53.5-51.7-75.4-81.8-5.6-7.8-15-19.4-16.6-29-0.5-2.7 3-3.3 4.2-1.3z"  fill="#005bbb" /><path d="M-175.3-148.5c3 22.6 10.4 44.3 23.4 63.2 22.7 33 58.1 54.6 80.7 87.8 5.1 7.4 38.9 67 29.7 72.8-3.4 2.1-5.6-4.1-1.7-4.7 4.7-0.6 2.6 7.3-1.1 4.6-3.3-2.4-19.9-54.2-25.2-63.4-24.5-43-70.4-67.4-94.7-110.2-8.6-15.1-14.3-32-16.9-49.1-0.6-3.8 4.8-4.4 5.8-1z"  fill="#fff500" /><path d="M-169.6 58.1c1.2 2.8 9.8 15.8 5.6 17.6-2.6 1.1-4.1-3.2-1.3-4 2.7-0.8 3.7 3.6 0.9 4.1-8.7 1.5-9.3-24.6-5.2-17.7z"  fill="#fff500" /><path d="M-163.6-16.9c9.9 13.3 71.9 80.4 71 90.6-0.2 2.7-4.6 1.4-3.2-1 1.4-2.4 4.8 0.7 2.5 2.2-2.1 1.5-22.7-30.4-25.6-34.1-14.9-19.3-32.1-36.6-47.1-55.9-1.2-1.5 1-3.1 2.4-1.8z"  fill="#fff500" /><path d="M-156.4 62.1c1.3 2.5 7.2 9.8 5.8 12.4-1.4 2.7-5.2-0.5-2.9-2.3 2.4-1.9 4.5 2.7 1.6 3.3-7.7 1.8-8.7-19.4-4.5-13.4z"  fill="#005bbb" /><path d="M-150.5-45.8c18.8 20.8 41.4 37.7 59.3 59.3 5.1 6.1 41.2 55.6 33.8 61.5-3.2 2.6-5.3-4.3-1.2-3.9 3.5 0.3 1.7 5.9-1.3 4.1-3-1.7-23.9-46.9-29.4-54.6-16.8-23.1-39.2-40.6-59.1-60.8-0.2-0.2-5.8-8.7-2.1-5.6z"  fill="#fff" /><path d="M-132-398.8c9.2 37.9 22.8 74.5 25.8 113.8 3.8 50.9-5 101 15.8 149.5 4.9 11.4 66 125.2 55.4 127.5-3.5 0.7-4.3-4.8-0.8-5.2 3-0.3 3.9 4.1 1.1 5.1-5.3 1.7-7.3-15.9-8.2-19-15.2-47.7-48.6-87.3-62.1-135.4-12.9-45.8-3.4-93.4-9.1-140.1-7.3-60.1-25.9-90.6-22.8-96.7 1.2-2.3 4.1-1.5 4.9 0.5z"  fill="#c2e1ff" /><path d="M-116.6-399.2c12.3 36.2 28.2 70.8 32.1 109.3 5.1 50.5-3.2 99.9 13.5 149.1 3.7 10.9 46.4 113.4 38.6 114.9-3.6 0.7-4.3-5-0.7-5.3 3.6-0.3 3.7 5.5 0.1 5.3-4.2-0.1-4.4-9.7-5-12.3-11.7-44.6-35.7-84.9-46.1-129.7-9-39-3.8-78.5-6.3-118.1-2.6-39.8-18.4-74.3-30.7-111.6-1-3 3.2-4.3 4.5-1.6z"  fill="#005bbb" /><path d="M-128.4-315.4c10.2 65-10.3 133.7 23 194.1 44.4 80.6 70.9 94.1 83.3 194.5 0.7 5.4-8.2 3.1-5.2-1.2 3.1-4.4 8.3 3.4 2.9 4.5-1.2 0.3-21.3-87.7-24.5-96.3-20.1-52-65.6-90.9-78.6-145.7-11.1-47.1-0.1-96-6-143.7-0.4-3.4 3-14.3 5.1-6.2z"  fill="#fff" /><path d="M-122.7-131.9c29.4 65.6 74.1 86.7 91.7 168.6 1.2 5.4 10.1 37.1 5.1 39.5-4.8 2.3-5.4-6.9-0.3-5.3 4.3 1.4 0.5 7.9-2.9 4.8-3.4-3.1-18-79-23.3-91.6-17.4-41.1-50.9-70.4-71.5-109.3-1.1-2-2.4-12.3 1.2-6.7z"  fill="#005bbb" /><path d="M-116-133.9c17.7 39.9 50.8 70.6 68.6 110.7 4.7 10.5 34.4 94 22.9 99.4-4.2 1.9-5.8-5.5-1.2-5.5 5.4 0 1.9 8.7-2 5-3.2-3.1-16.6-78.8-21.2-90.9-16.1-42-47.9-72.7-68.3-112-1-2-2.4-12.3 1.2-6.7z"  fill="#fff" /><path d="M-109.8-110.9c16.1 25.2 36.8 46.9 51.7 72.9 16 27.8 24.7 58.4 30.4 89.7 0.8 4.2 6.5 22.1 2.1 24.2-4.1 1.9-5.8-5.4-1.3-5.4 5.3 0 2 8.6-1.9 5-3.3-3.1-16.8-76.1-21.6-88-13.9-34.9-37.9-61.7-59-92-0.7-1-4.2-10.9-0.4-6.4z"  fill="#c2e1ff" /><path d="M-102.4-143.9c15.8 41.7 46.1 75.9 61.6 118 4 10.9 30.4 97.4 19.2 102.3-5 2.2-5.3-7.3-0.2-5.5 4.4 1.6 0.2 8.2-3.1 4.9-2.9-2.9-14.5-81.6-18.1-93.2-13.8-43.9-42.9-78.3-61.3-119.7-1-2.3-1.5-12.9 1.9-6.8z"  fill="#fff500" /><path d="M-95.6-358.8c34.8 88.4 5 154.6 42.2 251.5 16 41.5 46.2 175.9 37.5 183.1-3.2 2.7-7.1-2.6-3.6-4.9 4-2.7 7 4.8 2.1 5.6-6.4 1-5.9-28.2-6.3-32.8-3-33.9-7.7-67.6-17.1-100.4-12.5-43.4-34.3-83.9-40.4-129.1-6.7-49.6 3.5-99.6-10.9-148.4-2.2-7.5-7-15.9-7.9-23.5-0.3-2.8 3.3-3.3 4.4-1.1z"  fill="#005bbb" /><path d="M-88.8-148.8c13.6 40.3 38.6 75.4 51.8 116 3.8 11.7 29 104.1 17.5 108.8-4.4 1.8-5.8-6-1-5.8 5.6 0.2 1.6 9.1-2.3 5.1-2.7-2.8-12.5-83.1-15.5-94.4-11.6-44.1-36.6-81-53-122.9-1-2.6-0.8-13.2 2.5-6.8z"  fill="#c2e1ff" /><path d="M-83.3-16.9c17.6 20.5 45.6 61.7 44.3 90.3-0.2 4-6.7 2.3-4.8-1.2 2.2-4.2 7.6 2 3.1 3.5-3.8 1.3-16.2-41.8-18.3-46.6-6.8-15.9-36.8-57.9-24.3-46z"  fill="#fff" /><path d="M-76.5-38.9c12.5 15.8 54.9 95.5 46.5 113.5-1.8 3.9-7.6-0.5-4.2-3.2 3.3-2.8 6.7 3.6 2.5 4.7-3.7 1-16.2-53.7-18.4-59.6-7.1-19.8-20.9-35.3-28.9-53.9-0.7-1.6 1.4-2.6 2.5-1.5z"  fill="#fff500" /><path d="M-69.5 4.1c8.1 12.2 35.1 55.1 29.4 70.1-1.4 3.8-7 0.1-4.2-2.7 2.9-2.8 6.4 2.8 2.6 4.2-4.7 1.7-11.5-28.3-12.9-32.2-0.7-1.8-21.7-47.9-14.9-39.4z"  fill="#c2e1ff" /><path d="M-62.7-58.9c11.5 18.9 50.6 115.4 40.6 133.8-2.2 4.1-8-1-4.3-3.8 3.7-2.8 6.9 4.2 2.4 5.2-4.2 0.9-13.5-60.9-15.2-67.7-3.8-15-26.5-58.4-26.9-66.5-0.1-2 2.3-2.4 3.4-1z"  fill="#fff500" /><path d="M-54.4-185.3c2.9 44.6 18.9 86.9 27.8 130.4 8.3 40.9 10.7 82.2 13.8 123.7 0.1 1.5-0.7 12.9-5.2 6.6-6.8-9.5 14.5-0.4 2.9 1.2-4.6 0.6-10.3-87.1-11.6-97.3-7.2-53.7-27.8-104.9-33.4-158.6-0.4-4.2 4-14.2 5.7-6z"  fill="#fff" /><path d="M-49.2-378.9c35.3 61.5 13.3 121.5 11.8 187.4-0.8 32.9 5.4 65 11 97.1 3.9 22.6 23.7 155.1 15.2 167.9-2.8 4.2-8.5-1.8-4.3-4.4 4.3-2.6 7 5.2 2 5.8-4.8 0.6-8.7-91.7-9.7-102.3-10.9-112.1-25.9-127.8-12.6-248.5 2.8-25.4 2.9-51-5.4-75.4-3-9.1-13.6-35.4-8-27.6z"  fill="#c2e1ff" /><path d="M-41.8 30.3c1.7 5.2 14.7 44.9 8.8 45.9-3.6 0.6-4.3-5.2-0.6-5.4 3.7-0.2 3.7 5.6 0.1 5.4-6-0.3-15.3-61.9-8.3-45.9z"  fill="#c2e1ff" /><path d="M-34.8 38.4c1.2 4.8 10.6 36.9 5 37.7-3.8 0.5-4.3-5.4-0.5-5.5 3.8-0.1 3.7 5.9-0.1 5.5-7.6-0.6-11-55.7-4.4-37.7z"  fill="#fff" /><path d="M-27.6-150.3c4 57.6 13.6 114.5 15.9 172.4 0.4 10.9 7.3 44.3 1.6 52.9-2.8 4.2-8.6-1.8-4.3-4.4 4.3-2.6 7 5.3 2 5.8-5.9 0.7-6.6-74.6-7.1-83.7-1.8-31.7-18.1-120.1-14.3-143.2 0.6-3.8 5.5-3.1 6.2 0.3z"  fill="#fff" /><path d="M-21.5-349.6c14.3 49-4.4 99.1-8.6 148.2-3.7 43.4 4.7 86 10 128.9 1.8 14.3 14.8 149.3 7.1 149.4-5 0.1-3.3-8.1 1.2-6 5.4 2.4-2 9.5-4.2 4-6.8-16.5-5.7-107.2-8.5-133.3-5-45.7-15.3-91.3-13.1-137.5 2-42.9 16.7-85.1 14.5-128.1-0.4-7.1-5.1-19-3.5-25.6 0.7-2.8 4.2-2.3 5.1 0z"  fill="#005bbb" /><path d=""  fill="#fff" /><path d="M11.4-399.4c32.8 73-28.4 173.4-27.5 255.6 0.2 15.3 9.5 158.5 3.1 158.3-3.8-0.1-4.3-5.8-0.5-6.5 4.4-0.8 5.3 6.2 0.9 6.5-5.3 0.4-3.7-9-3.8-11.8-3.6-154.5-18.9-148.6 23.6-304.9 6.3-23.3 10.6-47.7 6.7-71.9-1.4-8.2-5.6-16.2-6.8-24.2-0.4-2.7 3.1-3.2 4.3-1.1z"  fill="#fff" /><path d=""  fill="#005bbb" /><path d="M6.5-25.5c-1.5 10.8-7.7 102.6-11.1 102.4-5.3-0.3-3-8.7 1.8-6.3 4 2.1 0.3 8.2-3.5 5.7-8.3-5.6-0.4-95.5 6-104.5 2.4-3.4 6.8-0.9 6.8 2.7z"  fill="#fff500" /><path d="M13.3 39.6c-1 5.8-1.8 37.9-8.1 37.1-4.8-0.6-3.4-8 1.2-6.9 4.7 1.1 2.6 8.4-2 6.7-5.3-1.9-1.1-35.6 2-39.8 2.5-3.4 6.9-0.8 6.9 2.9z"  fill="#fff500" /><path d=""  fill="#fff" /><path d="M27-13.7c-4.6 13.9-14.3 85.3-18.3 89.7-3.7 4.2-9.2-3.3-4.1-5.6 6-2.7 6.5 8.8 0.3 6.6-10.1-3.6 8.8-85 14.4-94.2 2.7-4.4 8.5-1.1 7.7 3.5z"  fill="#fff" /><path d="M55.3-398.6c9 77.4-57.5 161.7-62.8 247-1.1 17.8 3.9 123.4-1 129.8-3.2 4.2-8.9-2.4-4.2-4.9 5.5-2.9 6.7 7.8 0.7 6.1-6.2-1.7-2.7-40.4-2.8-46.8-0.9-124.3 7-141 49.9-255.1 5.8-15.5 10.8-31.4 13-47.8 1.1-8.1-1.9-22.1 1.2-29.3 1.3-3.1 5.3-1.9 6 1z"  fill="#fff500" /><path d="M40.4-171.7c-21.6 63.2-34.1 131.6-39.2 198.2-0.6 7.9 1.9 45.8-3.6 49.5-4.4 3-7.7-5.2-2.4-6.1 5.2-0.9 4.8 7.9-0.4 6.5-7.8-2.2-0.3-56.6 0.4-64.6 3.2-38 19.2-157.8 37.5-187.1 2.8-4.4 8.6-1 7.7 3.6z"  fill="#c2e1ff" /><path d="M47 66.1c-0.9 3.1-2.3 15.1-8.5 10.7-4.5-3.2 0.9-9.9 5-6.3 3.5 3.1-0.5 8.8-4.6 6.5-11.4-6.3 10-24.1 8.1-10.9z"  fill="#005bbb" /><path d="M53.9-68.8c-19.5 37.2-33.5 76.2-40 117.8-0.8 5.1-0.3 27.1-5.9 28.2-5.5 1.1-5.3-8.3 0.2-7 4.7 1.1 2.5 8.5-2.1 6.9-7.7-2.8 3-45.7 4.4-52.8 6-29.4 15.3-75.2 35.7-98.4 3.8-4.4 9.6 0.5 7.7 5.3z"  fill="#fff500" /><path d="M60.6-6.7c-10.1 17.8-18.2 36.7-24 56.2-1.6 5.4-3.3 25-8.3 27.2-5.6 2.5-7.6-7.6-1.5-7.4 6.1 0.1 3.7 10.1-1.8 7.3-11.3-5.5 20.4-80.7 27.9-88.8 4-4.3 9.7 0.7 7.7 5.5z"  fill="#fff500" /><path d="M66.9-398.5c2.6 80.4-70.6 157-73.3 274.7-0.7 28.4 5.1 142.3-0.9 160.1-2 5.9-10.2-1.1-4.8-4 5.5-2.9 6.7 7.8 0.7 6.2-6.7-1.9-2.4-52.7-2.4-60.5 0.1-59.7-4.7-122.6 8.6-181.2 11.2-49.2 37.5-92 54.3-139.1 0.8-2.3 15.3-77.3 17.8-56.2z"  fill="#fff500" /><path d="M74.1 6.4c-6.8 11.4-25.4 66.2-29.9 69.9-5 4-9.7-5.5-3.5-7 7.3-1.8 5.6 11.1-1 7.4-10.9-6.1 20.7-66.7 25.9-75.1 3.4-5.5 10.8-0.8 8.5 4.8z"  fill="#005bbb" /><path d="M80.7-105.5c-26.3 43.5-50.4 87.2-61.4 137.3-1.6 7.4-2.9 41.7-8.6 44.9-5 2.8-7.7-6.3-2-6.7 5.7-0.4 4.4 8.9-1 6.9-6.3-2.3 0.3-26.8 1.1-31.9 9.2-56.2 33.1-105.2 62.3-153.5 3.6-6 13-4.5 9.6 3z"  fill="#c2e1ff" /><path d="M87.4-332.5c-75.8 129.4-83.8 150.2-90.4 300.4-0.6 14.4 1.2 101.9-2.7 107.5-3.5 4.9-9.2-3.9-3.3-5.1 5.1-1 4.9 7.6-0.1 6.3-7.7-1.9-2.4-60.7-2.2-69.2 2-75.7 0-159.3 27.2-230.9 12.3-32.4 39.6-90.5 63.9-114.9 4.2-4.3 9.8 1.1 7.6 5.9z"  fill="#005bbb" /><path d="M94.1-271.9c-57.8 75.7-79.4 172.4-90 265.6-1.3 11.3-2.7 77.5-5.8 81.6-3.2 4.2-8.9-2.5-4.3-5 5.5-2.9 6.7 7.8 0.7 6.2-7.3-2-0.9-49.2-0.3-56.6 5.8-77.9 19.6-163.7 52.9-234.9 9.2-19.7 22.2-50 39.3-64 4.9-4 10.3 2.3 7.5 7.1z"  fill="#fff500" /><path d="M100.8-9.9c-11.8 15.3-21.8 31.9-29.8 49.4-3.8 8.2-7.5 31.7-14.2 36.8-5.1 4-9.8-5.8-3.4-7.2 7.4-1.7 5.4 11.4-1.1 7.5-12.7-7.5 31.6-85.8 41-93.6 4.9-4.1 10.3 2.2 7.5 7.1z"  fill="#fff" /><path d="M107.4-381.6c-36.7 113.7-95.5 114.7-106.6 275-2 28.6-0.4 139-6.4 156.4-2 5.9-10.3-1.2-4.8-4 5.5-2.9 6.7 7.9 0.7 6.2-8-2.3-0.9-76.1-0.5-86.2 2.5-62.5 2.5-128.6 24.3-187.9 18.9-51.3 53.9-93.5 77-142.6 2.4-5.1 5.1-19.3 10.2-22.1 3.7-2.1 6.9 1.6 6.1 5.2z"  fill="#fff" /><path d=""  fill="#005bbb" /><path d="M120.8-105.4c-34.6 39.2-67.1 80.1-84.7 130-2.4 6.9-13 55.2-18.2 52.1-4.4-2.6 0-9.3 4.1-6.3 3.5 2.6 0.2 8.3-3.8 6.5-6.6-3 2.6-29.8 4-35.4 15.1-59 49.3-107.1 88.9-152.3 5.1-5.8 14.7-1.9 9.7 5.4z"  fill="#fff" /><path d=""  fill="#005bbb" /><path d="M126.7-397.3c-24.2 89.1-99.1 140.6-116.7 242.9-5.1 29.8-5.6 121.8-12.8 140.3-2.4 6-10.6-1.7-4.8-4.4 5.9-2.8 6.6 8.5 0.4 6.4-6.3-2.1-0.6-36.3-0.2-42.4 3.9-58.4 7-118.8 30-173.5 20.4-48.6 55.2-87.9 80-133.9 6.6-12.2 9.6-27.1 16.5-38.8 2.6-4.4 8.3-1.1 7.6 3.4z"  fill="#fff500" /><path d="M141.1 22.2c-6.4 11.6-15.8 52.6-18.7 54.2-5 2.8-7.7-6.3-2-6.8 5.7-0.4 4.3 8.9-1 7-10-3.8 8.6-53.6 13.9-59.7 3.8-4.4 9.6 0.5 7.8 5.3z"  fill="#fff" /><path d="M147.4-100.7c-39.3 34.9-75.4 73.5-97 122.1-5.8 13.1-10.6 26.8-14.3 40.7-0.8 3.2-1.8 19.2-8.8 14.7-4.4-2.9 0.5-9.6 4.6-6.3 3.5 2.9-0.2 8.6-4.2 6.5-7.3-3.7 6.3-37.5 8.5-43.8 19.5-55.6 58.3-105.1 103.5-142.5 5.9-4.9 12.5 3.1 7.7 8.6z"  fill="#fff500" /><path d=""  fill="#005bbb" /><path d="M160.6-397.6c-24.5 94.5-108.6 134.8-137 259.4-6.1 26.8-19.9 147.3-23.7 156.4-2.5 6.1-10.7-1.9-4.7-4.6 6-2.7 6.5 8.8 0.3 6.6-6.6-2.3 0.6-39.4 1.2-46 7.5-68.6 18.3-143.1 50.3-205 23.1-44.7 59.5-79.6 85.2-122.4 7.8-13 11.7-38.2 21.4-48.3 3.1-3.3 7.6 0.1 7 3.9z"  fill="#005bbb" /><path d="M167.9-232.5c-42.2 72.9-99.8 142-131.5 220.1-8.8 21.6-15 44.2-19 67.2-0.7 3.9-0.3 25.8-7.9 21.8-5.1-2.7 1-10 4.5-5.4 3.5 4.6-5.1 8.6-6.4 3-1.7-7.6 2.1-19.7 3.4-27.4 11.5-65.7 44.4-119.3 80.4-174.1 18.4-28.1 48.5-90.2 68.8-111.1 4.1-4.3 9.8 1 7.7 5.9z"  fill="#005bbb" /><path d="M174.3-385.9c-14.5 57.7-56.2 96.9-87.7 145.1-25.8 39.4-41.1 83.3-54.1 128.2-6.3 21.5-29.1 141.8-29.3 142.2-2.7 6.1-10.9-2.2-4.7-4.8 6.2-2.6 6.4 9.1 0.1 6.7-6.4-2.4 1.1-35.2 2-41.3 10.5-73.7 31.3-154.6 67.8-219.9 21.8-38.9 53.6-70.6 76.5-108.7 8.3-13.8 12.3-40.5 22.5-51.4 3.1-3.3 7.5 0 6.9 3.9z"  fill="#005bbb" /><path d="M180.9-124.5c-47.3 40-95.2 80.2-123.7 136.5-8 15.8-14.4 32.4-19 49.5-0.9 3.1-2.1 19.8-9.1 15.3-3.8-2.5-0.7-8.6 3.5-7 4.3 1.6 2.5 8.2-2 7.6-19.2-2.9 44.5-113.9 52.5-124 25.5-32.3 57-59 88.4-85.4 6.4-5.4 15.8 0.5 9.4 7.5z"  fill="#fff" /><path d="M187.5-53.2c-32.2 24.2-60.9 53.1-78.4 89.8-2.7 5.8-13.1 44.2-19.1 40.3-3.8-2.5-0.7-8.6 3.6-6.9 5 1.9 1.5 9.6-3.2 7.1-8.7-4.5 10.1-43.9 13.3-50.5 14.6-30.5 45.4-75.8 77.7-90.1 6.7-3 10.7 5.7 6.1 10.3z"  fill="#fff" /><path d="M194.5-298.6c-30.5 97.5-108.6 175.6-151.5 267.3-12.3 26.2-20.9 53.9-25.9 82.4-0.7 3.9-0.9 29.7-8.4 25.8-4.4-2.2-0.5-8.9 3.6-6.2 4.8 3.2-2 9.8-5 4.9-3.2-5.2 1.5-20.5 2.4-26.5 13.2-81.6 60-145.3 101.9-214.1 19.8-32.5 40.2-65 58.1-98.6 6.4-12.1 9.9-27.3 17.2-38.7 2.8-4.4 8.6-0.9 7.6 3.7z"  fill="#fff500" /><path d="M191.9-398c-11.8 89.3-76 150-112.4 229.3-4.8 10.4-37.6 94.5-44.3 91.3-6.4-3 0.8-12.3 5.3-6.9 4.5 5.4-5.9 10.9-7.7 4-3-11 15.7-40.1 20.3-50.7 25-58.5 54.6-110 90.1-162.6 14.9-22.1 27.2-45.5 34.2-71.3 1.8-6.5 3.2-34 9.1-37 2.9-1.4 5.4 1.1 5.4 3.9z"  fill="#005bbb" /><path d="M206.6-398.3c-1.8 36.5-5 73.1-18.2 107.5-30 78.1-85.4 148.8-127.2 220.9-4.8 8.3-32.7 71.8-37.2 70-6.3-2.5 0-11.8 4.7-6.9 4.7 4.9-5 10.7-7.1 4.3-5.5-16.2 115.3-212.8 133.3-243.2 29.4-49.7 39.7-96.1 44.7-153 0.4-4.6 6.7-4 7 0.4z"  fill="#005bbb" /><path d="M214.8-1.1c-10.5 14.3-19.1 30.5-22 48.2-0.9 5.4 2.2 25.1-0.9 28.2-3.1 3.1-7-3.1-2.9-4.6 4.9-1.8 4.6 7.2-0.2 5.1-15.2-6.6 9.1-71 17.6-82.7 4-5.5 11.4 0.1 8.4 5.8z"  fill="#fff500" /><path d="M221.5 21.6c-5.1 11.5-8.3 23.9-8.3 36.6 0 3.1 4.6 18.9-1.6 18-3.6-0.6-2.4-6.2 1.2-5.3 3 0.8 2.3 5.4-0.9 5.3-12-0.6-2.8-52.4 1.8-58.8 3.2-4.5 9-0.5 7.8 4.2z"  fill="#005bbb" /><path d="M227.7-125.3c-51.9 42-109.3 73.7-145.9 131.8-10.6 16.8-19.3 34.9-25.6 53.7-1.2 3.5-3.5 22-10.7 16.7-3.8-2.8-0.3-8.9 4-7 4.3 1.9 2.2 8.6-2.4 7.7-8.7-1.7 4.7-31.1 6.7-36.2 20.2-52 56.8-94 100.5-127.9 12.8-9.9 55.9-47 68.6-49.3 6.5-1.2 8.8 6.5 4.8 10.5z"  fill="#c2e1ff" /><path d="M234.5-130.5c-52.8 45.5-114 76.2-152.4 137-7.3 11.5-26.8 66.6-31.4 70.4-5.9 4.7-9.7-7.9-2.2-7.3 7.5 0.7 1.6 12.4-3.4 6.8-5.3-6 7.8-32.2 10.5-38.8 27.7-67.9 81.5-112.3 139.7-153.4 10.5-7.4 21.3-18.9 32.9-24.5 6.4-3.1 10.7 5.2 6.3 9.8z"  fill="#005bbb" /><path d="M241.4-236.7c-24.7 86-122.1 136.7-170.3 208.5-16.1 23.9-28.5 50.1-36.5 77.8-1.3 4.4-4.1 31.7-11.6 27-4.4-2.8 0.3-9.5 4.4-6.3 4.1 3.2-1.3 9.4-5.1 5.8-5-4.9 4.1-28 5.8-34 25-86.9 91.6-141.9 152-204.3 13.8-14.2 27.2-29.2 38-45.9 5.7-8.9 9.3-26 16.4-32.9 3.4-3.3 7.8 0.4 6.9 4.3z"  fill="#fff" /><path d="M247.1-296.3c15.4 115.5-104.8 175.1-165.3 254.9-20.1 26.5-35.8 56.1-45.5 88-1.4 4.7-5.3 34.8-12.7 30.1-3.8-2.4-0.9-8.4 3.3-6.8 4.9 1.8 1.7 9.4-2.9 7.1-6-2.9 1.5-22 2.7-26.8 26.4-101.6 108.3-156 173.6-230.8 17.9-20.6 33.5-43.8 39.2-70.9 3.2-15.2-0.3-30.1 1.6-44.9 0.5-3.7 5.2-3.1 6 0.1z"  fill="#fff500" /><path d="M255-15.1c-14.1 19.7-27.5 41.4-29.4 66.2-0.4 4.8 3.3 21.4 0.7 24.3-2.9 3.1-6.9-2.7-2.9-4.3 4.6-1.9 4.7 6.7 0 5-18.9-7.3 11.8-81.8 23.2-97 4.1-5.4 11.4 0.2 8.4 5.8z"  fill="#005bbb" /><path d="M260.9 52.9c-0.2 4.6 3.7 19.8 0.9 22.7-2.9 3.1-6.9-2.8-2.9-4.4 4-1.6 5.1 5.4 0.8 5.2-13.9-0.8-0.7-36.6 1.2-23.5z"  fill="#005bbb" /><path d=""  fill="#fff" /><path d=""  fill="#fff" /><path d="M281.9-27.6c-13.5 23.4-28.9 47.4-31.9 74.9-0.6 5.3 3.5 25 0.6 28.2-3.4 3.6-7.1-4.2-2.2-4.5 4.2-0.3 3.1 6.7-0.8 5.2-14.8-5.8 9-91.3 26.5-109.6 4.1-4.3 9.8 0.9 7.8 5.8z"  fill="#fff500" /><path d=""  fill="#fff" /><path d="M295.2-146.8c-32.8 66.9-108.3 92.5-151.3 150.9-10.4 14.1-18.9 29.6-24.5 46.2-1.7 5.2-3.2 24-7.8 26.3-6.2 3.1-7.2-9-0.5-6.9 5.7 1.8 0.8 10.3-3.6 6.3-4.7-4.2 2.2-22.3 3.7-27.6 20.7-71.4 83.6-104.7 135.7-150.4 8.4-7.4 39.3-50.2 42.5-51.4 4.3-1.6 7.3 2.9 5.8 6.6z"  fill="#fff" /><path d="M301.9-41.2c-11.2 26.8-26.4 53.3-30.6 82.3-0.8 5.2 1.6 35.7-2.6 35-3.1-0.5-2.8-5.3 0.4-5.4 3.7-0.2 3.6 5.7-0.1 5.4-6.9-0.5-5.5-28.3-5.2-33.1 1.7-26.6 14.1-67.2 30.4-88.7 3.3-4.4 9.1-0.2 7.7 4.5z"  fill="#c2e1ff" /><path d="M319.9-399.5c23.9 43.7 70.3 68.2 99.6 107.5 32.5 43.6 41.4 99.7 68.4 146.5 3.4 5.9 36.6 56.9 34.6 58.1-2.3 1.3-3.7-2.9-1-3.2 2.7-0.2 2.1 4.2-0.4 3.3-5.8-2.1-13.9-20.6-17.4-25.9-34.8-53.5-46.1-102.1-73.9-155.8-25.7-49.4-75.4-75.2-107-119.4-1.4-1.9-7.2-16.7-2.9-11.1z"  fill="#fff500" /><path d="M315.2-96.6c-14.7 45.1-47.4 83.3-59.6 128.8-2.1 7.7 1 39.3-2.4 42.9-3.4 3.6-7.1-4.3-2.1-4.6 4.3-0.2 3.1 6.8-0.8 5.2-6.1-2.4-4.7-24.9-4.5-30.1 1.2-22 50.1-127.9 61.8-145.9 2.9-4.4 8.6-0.8 7.6 3.7z"  fill="#fff500" /><path d=""  fill="#fff" /><path d="M343-399.6c23.8 39.7 66 63.9 92.3 101.9 35.3 51.1 44.8 115.5 78.4 168.3 4.1 6.5 44.1 65.1 41.8 66.4-2.3 1.3-3.7-2.9-1-3.1 2.7-0.2 2.1 4.2-0.5 3.3-8.6-3.1-21.8-32.4-27.1-40.5-50.2-75-48.1-100.7-82.6-171.6-23.4-48.1-68.5-74.3-99.4-116-1-1.4-6.1-13.7-1.9-8.7z"  fill="#c2e1ff" /><path d="M350.1-399.6c23.1 37.9 62.9 62 88.1 98.5 34.9 50.4 43.5 114.1 76.2 166.4 4 6.4 42.8 63.4 40.7 64.6-2.3 1.3-3.7-2.9-1-3.1 2.7-0.2 2.1 4.1-0.4 3.3-6.6-2.3-55.5-84.3-61.8-96.3-19.1-36.1-27.1-76.3-45-112.7-22.5-46-64.9-72.2-94.8-112-1-1.3-6.2-13.6-2-8.7z"  fill="#fff500" /><path d=""  fill="#c2e1ff" /><path d="M348-95c0.1 16.4 3.2 171.8-1.6 171.9-5 0.1-3.3-8.1 1.2-6.1 4.6 2-0.4 8.7-3.6 5-7.3-8.4-2.3-43.4-2.2-54.5 0.1-38.7-1.3-77.6-0.4-116.3 0.1-4.4 6.1-4.2 6.6 0z"  fill="#fff" /><path d="M354.7-5.1c0.3 8.9 4.2 81.6-1.3 81.6-3.7 0-4.3-5.6-0.6-6.4 4.3-0.9 5.3 5.9 1 6.4-6.7 0.7-4.4-22.8-4.5-27.3-0.4-17.3-0.6-34.5-1.1-51.8-0.1-4.7 5.5-8.6 6.5-2.5z"  fill="#c2e1ff" /><path d="M377.4-399.6c21.7 35 55.9 60.1 77.3 95.6 33.7 56.2 39.4 116.9 79.5 178.7 4.3 6.7 46.3 67.8 43.6 69.3-2.4 1.3-3.7-3.1-0.9-3.3 2.4-0.2 2.4 3.6 0 3.5-3.2-0.1-7.3-10.2-8.8-12.6-27.3-42.4-58.8-82.7-77.6-129.9-10.8-27.2-17.2-55.9-28.7-82.8-18.9-44.2-54.3-72.3-82.3-109.8-0.9-1.3-6.2-13.5-2.1-8.7z"  fill="#fff" /><path d="M377.8-399.5c20.8 33.4 53.2 57.7 74.3 91.1 30.4 48 36.9 106.5 65.4 155.8 3.6 6.2 39.4 60.7 37.7 61.6-2.2 1.3-3.6-2.8-1-3 2.6-0.3 2.1 4-0.4 3.2-4.1-1.4-9.9-14.1-12.4-17.9-49.9-74.4-48.1-101.6-80.7-175.3-18.9-42.7-53.6-70.4-80.8-106.8-0.9-1.2-6.2-13.5-2.1-8.7z"  fill="#c2e1ff" /><path d="M374.2-192.6c17.3 79 55.1 146 69.1 215.8 1.4 6.9 10.7 51 2.7 53.3-5.1 1.4-5.6-7.4-0.4-6.6 6.2 1 0.6 10.3-3.2 5.4-2.7-3.6-8.2-68.8-11.9-81.6-17.7-60.2-46.7-115.1-59.9-177-0.5-2.4 0.5-18.1 3.6-9.3z"  fill="#fff" /><path d="M380.6-214.7c9.4 30.1 16.1 60.8 28.1 90.1 19.1 46.8 45.7 90.3 58.4 139.6 1.9 7.4 15.3 58.5 7.5 61.3-4.7 1.7-5.8-6.5-0.8-6 5.8 0.5 1.3 9.6-2.6 5.2-3-3.3-13.6-76.7-18.3-90.1-22.4-64.3-55.8-122-74.1-188.2-0.5-1.7-2-20.7 1.8-11.9z"  fill="#fff" /><path d="M387.8-399.6c20.5 33.6 51.9 58.8 71.7 93.1 37.3 64.5 32.7 111.4 88.9 195.6 12.4 18.6 49.7 63.8 52.3 84.2 0.5 3.8-6 2.1-3.7-0.9 1.9-2.6 5.5 1.4 2.7 3-2.8 1.6-19-30.7-21.5-34.9-27.3-44.5-60.9-85.6-81.1-134.1-11.8-28.3-18.2-58.4-29.6-86.8-17.5-44-50.6-73.2-77.8-110.5-0.9-1.3-6.1-13.7-1.9-8.7z"  fill="#c2e1ff" /><path d="M394-164.7c19.6 66.9 61 125.1 75.3 193.7 1.3 6.2 10.7 45.1 4.1 47.5-4.7 1.7-5.8-6.5-0.8-6.1 5.8 0.5 1.2 9.6-2.6 5.2-2.7-3-12.6-73.7-16.8-86.3-17.3-51.8-46.9-98.2-63.3-150.3-1.1-3.5 2-8.4 4.1-3.7z"  fill="#005bbb" /><path d="M400.5-142.8c16.4 46.9 42.9 89.5 58.6 136.7 3 9.2 23.9 78.6 13.4 82.3-4.7 1.7-5.8-6.6-0.8-6.1 5.8 0.5 1.2 9.6-2.6 5.2-2.8-3.2-12-71.9-16.1-84.4-14.4-44-38.6-83.8-55-126.9-0.9-2.4-0.8-13.2 2.5-6.8z"  fill="#005bbb" /><path d="M406.7-257.9c19.9 35.4 29 75.7 47.7 111.8 35.4 68.2 76.6 128.9 102.2 202.2 1.2 3.5 7.6 15.6 5.4 18.6-2.2 3-6.4-1.7-3-3.5 2.8-1.6 5 3 2 4.2-0.4 0.2-41.9-101.2-47.4-111.7-20.6-40.1-47.1-76.8-67.3-117-14.6-28.9-23.3-59.9-36.5-89.4-0.5-1-7.8-22-3.1-15.2z"  fill="#fff500" /><path d="M412.6-360.8c72.8 79.8 67.8 149.7 123.1 234.8 8.7 13.4 66.7 96.6 65 104.9-0.7 3.3-5.7 1-3.7-1.7 2-2.7 5.6 1.5 2.7 3.1-2.7 1.5-20.2-33.5-23-38-27.7-45.2-62.1-87-82.5-136.3-11-26.4-17.3-54.4-27.8-81.1-11.8-30.4-30.2-56-51.9-80-0.1-0.1-5.7-9-1.9-5.7z"  fill="#c2e1ff" /><path d="M420.8-16.7c4.4 13.6 21.6 82.8 13.9 92.5-3.4 4.3-9.1-2.7-4.2-5.2 4.9-2.4 7.1 6.3 1.6 6.5-6.9 0.2-3.5-21.5-3.7-26-1.2-22.8-6.4-44.4-12.3-66.4-0.9-3.2 3.5-4.3 4.7-1.4z"  fill="#c2e1ff" /><path d="M427.1-249.9c15.1 31.8 24.1 65.9 40.5 97.2 37.3 71 84.3 133 111.9 209.3 1.2 3.4 7.8 15.5 5.5 18.5-2.2 3-6.3-1.7-3.1-3.4 2.8-1.6 5 3 2.1 4.2-0.1 0.1-41.9-96.5-47.4-106.6-23-42.9-52.4-82-75-125-14.4-27.3-23.4-56.5-35.1-84.9-0.4-1-3.6-16.2 0.6-9.3z"  fill="#005bbb" /><path d="M434.6 20.5c2.2 10.7 11.5 45.8 4.4 55-3.3 4.3-9-2.7-4.3-5.2 4.8-2.5 7.1 6.2 1.7 6.5-6.8 0.3-3.6-20-3.7-24-1.6-31-0.9-41.4 1.9-32.3z"  fill="#005bbb" /><path d="M441.1 2.3c3.9 13.8 19.1 60.9 9.7 73.4-3.2 4.2-8.9-2.4-4.2-4.9 4.7-2.5 7.1 5.9 1.8 6.2-6.5 0.4-4.4-27.4-5-32.4-1.2-12.2-7.9-56-2.3-42.3z"  fill="#fff" /><path d="M446.5-330.9c43.4 58.9 49 136.1 95.7 207.5 7.8 11.9 59.8 86.6 58.4 93.8-0.6 3.2-5.5 1.1-3.6-1.5 1.9-2.6 5.5 1.4 2.6 2.9-0.8 0.4-43-67.5-47.9-74.8-22.2-33.1-44.1-66.3-57.8-103.9-12.8-35-19.9-71.8-38.7-104.5-1-1.7-13.1-24.3-8.7-19.5z"  fill="#fff" /><path d=""  fill="#fff500" /><path d=""  fill="#fff500" /><path d="M467.2-56.9c9.3 18.1 50.7 116.5 43.2 131.8-1.9 4-7.7-0.6-4.3-3.4 3.4-2.8 6.7 3.8 2.5 4.9-4.1 1.1-15.2-54.6-17.2-61.6-4.7-16.3-10.6-32.3-17.4-47.9-2.1-4.7-11.8-18.7-10.6-23.4 0.5-1.9 2.8-1.8 3.8-0.4z"  fill="#fff" /><path d="M473.6-127.9c38.3 65 74.6 125.9 100.3 197.3 0.4 1.2 1.8 9.2-2.6 5.6-6.9-5.6 10.6-3.1 2.4 0.3-2 0.8-33.9-80.6-38.1-89.4-18.3-38.4-41.9-73.7-63.9-110-1.3-2.2-0.7-7.2 1.9-3.8z"  fill="#c2e1ff" /><path d="M481.1-396.8c8.5 27.6 20.5 54 28.7 81.8 15.8 53.8 20.9 108.2 47.6 158.6 10.1 19 39.4 54.8 43.1 73.7 0.7 3.4-5.2 2.3-3.4-0.6 1.8-2.9 5.4 1.9 2.1 2.8-3.8 1-16.5-25.4-18.8-29.2-42.6-70.4-52.5-109.9-71.5-188.3-4.6-19-34.8-85.5-32.6-98.4 0.5-2.7 3.8-2.5 4.8-0.4z"  fill="#fff" /><path d="M487.1-71.9c11.3 19.6 66.6 129.2 60.7 145.9-1.3 3.7-6.8 0.3-4.1-2.5 2.7-2.8 6.3 2.6 2.7 4-3.6 1.4-22.6-60.6-25.4-67.8-10.2-27.1-23.4-52.3-37.1-77.8-1.2-2.2 1.8-3.7 3.2-1.8z"  fill="#c2e1ff" /><path d="M494.3-356.8c25.3 65.5 29.1 137.2 62.2 199.7 4 7.6 45 75.8 42.9 76.8-2.6 1.3-3.8-3.4-0.9-3.5 2.9-0.1 2.1 4.7-0.7 3.6-9.8-4.2-23.7-39-29.5-48.7-46.3-77.4-44.6-131.7-72.6-211-0.7-2.1-5.7-25.2-1.4-16.9z"  fill="#fff500" /><path d="M501.3-225.7c16 54.2 47.2 98.6 77.5 145.5 2.6 4.1 24.7 36.7 20.7 38.5-2.1 1-3.8-2-2-3.4 2.1-1.6 4.5 1.9 2.2 3.3-2.3 1.4-23-35.5-26-40-28-43.3-58.4-85-74.7-134.6-0.7-2.2-1.3-17.3 2.3-9.3z"  fill="#c2e1ff" /><path d="M508.1-239.7c13.3 51.3 37.7 94 66.2 138.1 2.9 4.6 28.7 42.7 25.1 44.5-2.7 1.3-3.9-3.5-0.9-3.6 3-0.1 2 4.8-0.7 3.6-7.4-3.2-17.7-29.1-22.3-36.4-28.6-44.7-56.8-87.8-71-139.5-0.8-2.9 0.7-13.8 3.6-6.7z"  fill="#c2e1ff" /><path d="M515.8-398.6c5.4 56.9 26.2 179.7 48.5 229.1 9.3 20.7 32.1 46.4 36.1 68.3 0.6 3.5-5.4 2.3-3.5-0.7 1.9-3 5.5 2 2 2.9-4.9 1.2-26.1-44.1-29.1-49.9-35.6-68.1-49.3-167-59.4-243.6-0.5-4 3.4-14.2 5.4-6.1z"  fill="#c2e1ff" /><path d=""  fill="#fff500" /><path d="M528.4-249.6c8.9 45.1 26.2 84.7 49.4 124.2 2.5 4.3 24.7 38.6 21.5 40.2-2.6 1.3-3.8-3.4-0.9-3.5 2.9-0.1 2.1 4.7-0.7 3.5-5.7-2.4-12.8-21.3-16.1-26.8-24.9-41.8-47.2-83.1-57.5-131.1-0.7-3.3 1.8-14 4.3-6.5z"  fill="#c2e1ff" /><path d="M534.5 11.2c2.6 6.6 24.5 63 20 64.3-3.1 0.9-4.3-4.1-1.1-4.7 3.2-0.5 3.8 4.6 0.6 4.7-4.6 0.3-8.8-20.5-10.2-24.4-0.7-2.1-16.8-54.1-9.3-39.9z"  fill="#c2e1ff" /><path d="M534.2-398.8c-0.7 61.7 11 164.7 33.6 221.2 3.7 9.3 33.2 64.1 32.7 67.5-0.5 3-5.2 1.2-3.5-1.4 2-3 5.5 2.2 2 3-4.6 1-20.9-36.5-23.4-41.5-36.1-72.7-45.6-162.7-47.9-243.2-0.1-4.6 5.4-14.2 6.5-5.6z"  fill="#c2e1ff" /><path d="M544.1-398.5c-4 64.1 4 158 26.3 217.9 3.3 8.9 30.5 61.9 30 65-0.6 3.6-6 0.3-3.1-1.9 2.5-1.9 4.6 2.8 1.6 3.5-4.7 1-19.6-35.1-21.9-40.1-33.5-70.8-39.9-155.9-40.1-233.6 0-4.1 6.3-22.3 7.2-10.8z"  fill="#c2e1ff" /><path d=""  fill="#fff500" /><path d="M562.5-397.9c-9.3 64.7-7.3 145.5 12.1 208 2.7 8.6 26.6 60.8 26 63.8-0.7 3.7-6.3 0.1-3.2-2.1 2.6-1.9 4.7 3.1 1.6 3.7-4.8 0.9-16.4-31.3-18.4-36-29.7-69.6-32.7-152.5-26.6-227.2 0.4-4.5 8.5-22.2 8.5-10.2z"  fill="#c2e1ff" /><path d="M566.2-397.9c-9.9 63.1-9.1 141.3 8.4 202.9 5.3 18.5 12.5 36.4 20.5 53.8 1 2.1 9 14 3.6 14.4-2.8 0.2-2.9-4.2 0-4.1 2.8 0.1 2.4 4.5-0.4 4.1-5.5-0.8-14.2-28.4-16.4-33.6-30.2-71.8-32.9-159.5-23.4-236.2 0.7-5.5 7.8-8 7.7-1.3z"  fill="#fff" /><path d="M576.2-358.7c-5.2 54.9-8.4 113.8 6.1 167.6 2.9 10.9 20.9 42.2 18.5 52.3-0.8 3.3-5.9 0.8-3.8-1.9 2.5-3.1 6 2.9 2 3.5-4.5 0.6-12-24.5-13.6-28.7-21.8-58-21.4-118.7-17.4-179.7 0.3-4.5-0.2-10.3 1.2-14.6 1.4-4.2 6.9-2.4 7 1.5z"  fill="#c2e1ff" /><path d="M581.4-397.7c-12.1 61-15.8 134.1-2.1 194.9 1.5 6.8 19.6 65.6 19.3 65.6-2.9 0.1-2.8-4.5 0.1-4.3 2.9 0.2 2.3 4.8-0.5 4.3-5.2-1-11.8-25.6-13.6-30.6-26.3-71-23.8-155.1-11.2-229 1-5.6 8.5-7.8 8-0.9z"  fill="#fff500" /><path d="M588.1 13.2c1.9 4.5 16.5 37.5 11.2 38.8-3.3 0.8-4.3-4.4-0.9-4.9 3.3-0.5 3.8 4.8 0.4 5-6 0.2-18.3-52.7-10.7-38.9z"  fill="#c2e1ff" /><path d=""  fill="#c2e1ff" /><path d=""  fill="#005bbb" /><path d="M602.6-389.3c-11.1 55.3-20.8 115.8-14.4 172.1 0.8 7.2 11.8 59.7 10.3 59.6-3.3-0.2-2.7-5.3 0.5-4.8 3.2 0.5 2.1 5.6-1 4.7-5.1-1.4-8.5-23.3-9.7-28-16.7-65-7.9-140.2 6.6-205.1 1.1-5 8-3.4 7.7 1.5z"  fill="#fff500" /><path d=""  fill="#fff500" /><path d=""  fill="#fff" /><path d=""  fill="#c2e1ff" /><path d=""  fill="#fff" /><path d=""  fill="#c2e1ff" /><path d=""  fill="#fff" /><path d=""  fill="#fff" /><path d=""  fill="#c2e1ff" /><path d=""  fill="#005bbb" /><path d=""  fill="#fff" /><path d=""  fill="#c2e1ff" /><path d=""  fill="#005bbb" /><path d=""  fill="#fff500" /></svg>