<svg width="1200" height="675" viewBox="-500 -500 1200 675" xmlns="http://www.w3.org/2000/svg"><path d="M-500-500h1200v675h-1200z" fill="#000"/><path d=""  fill="#005bbb" /><path d=""  fill="#fff500" /><path d=""  fill="#fff" /><path d=""  fill="#c2e1ff" /><path d=""  fill="#c2e1ff" /><path d=""  fill="#fff500" /><path d=""  fill="#fff" /><path d=""  fill="#005bbb" /><path d=""  fill="#c2e1ff" /><path d=""  fill="#fff" /><path d=""  fill="#c2e1ff" /><path d="M-395.9-177.2c1.9 7.9 10.7 59.9-2.7 60.4-5.9 0.2-5.8-9.1 0.2-8.6 5.9 0.4 4.7 9.6-1.1 8.6-7.7-1.4 0-22.7 0.3-27.6 0.7-11-2.8-21.7-2.4-32.3 0.1-3.6 4.8-3.5 5.7-0.5z"  fill="#005bbb" /><path d=""  fill="#fff" /><path d=""  fill="#005bbb" /><path d=""  fill="#c2e1ff" /><path d=""  fill="#005bbb" /><path d="M-380.6 69.6c-1.3 3-5.9 14.1-10.4 6.4-2.7-4.6 3.7-9.3 7.3-5.4 3.6 3.9-1.6 9.9-6 6.9-11.1-7.7 12.4-21.7 9.1-7.9z"  fill="#c2e1ff" /><path d="M-375.6-240.9c23.1 56.2 38.5 104.6-1.3 157.7-4 5.3-14.6 23.9-22.2 23.1-9.1-1-4.2-15.5 3.6-10.7 9.2 5.6-5.8 16.8-8.5 6.4-1.6-6.1 40-54.7 44.7-77 9.2-43.6-22.6-80-20.9-98.8 0.2-2.6 3.4-2.7 4.6-0.7z"  fill="#c2e1ff" /><path d="M-371.1-395.8c-58.7 105.1 27.2 151.4 26.7 242.2-0.2 29-14 54.1-32 75.9-4.2 5.1-16.9 25.6-24.9 21.7-6.1-3.1-2.5-12.6 4.1-10.9 6.6 1.7 5.2 11.8-1.6 11.5-16.7-0.5 11.4-27.2 14-30.1 16.2-19 30.2-40.3 32.7-65.8 6.1-60.9-44-113.4-46-174.4-0.7-22.3 3-58.3 18.6-75.9 4.1-4.7 10.3 0.6 8.4 5.8z"  fill="#fff" /><path d="M-359.3-68.5c-6 5.8-36.9 39.8-44.1 30.9-5.3-6.5 5.3-14.3 9.9-7.2 4.6 7-6.8 13.6-10.6 6.1-3.8-7.5 31.5-38.1 39-40.2 6.5-1.8 9.5 5.9 5.8 10.4z"  fill="#005bbb" /><path d="M-353.9-280.9c32.8 94 87 147.8-11.2 228.4-6.2 5.1-29.2 29.8-36.9 24.7-6-4-1.1-13.6 5.6-11 6.7 2.6 4 13-3.1 11.9-18.3-2.7 20.2-30.4 23.8-33.3 26-21 52.7-44.1 59.4-78.6 9.4-48.6-23.3-92.3-40.3-135.2-1.1-2.8-0.7-13.5 2.7-6.9z"  fill="#fff500" /><path d="M-344.7-89.4c-6.1 8-50.3 58.9-58.7 48.9-5.3-6.4 5.1-14.2 9.8-7.3 4.6 6.9-6.7 13.6-10.5 6.2-3.1-6 46.2-55.8 54.1-57 5.5-0.9 7.9 5.1 5.3 9.2z"  fill="#fff" /><path d="M-342.7-396.5c-48.8 110.8 46.1 155.9 43.5 251.2-1.1 39.6-26 69.5-55.6 93.1-7.1 5.6-39 36.8-47 31.4-6-4.1-1-13.7 5.8-11 6.8 2.7 3.9 13.1-3.3 12-18.6-3 22.3-31.4 26-34.2 28.3-21.6 57.8-45.2 65.2-82.1 13.3-66.7-47.4-123.2-55.3-187.4-2.7-22.3-1.7-58.6 12.3-77.7 3.5-4.8 9.8-0.3 8.4 4.7z"  fill="#005bbb" /><path d="M-332.7-247c38.6 80.5 53.6 134.9-25.4 197.1-7.3 5.8-33.3 32.1-42 29.7-11.2-3.1 1-19.2 7-9.3 6 9.9-13.9 13.3-11.5 2 2.5-11.4 79.4-59.4 92.5-96 14.6-40.7-4.6-80.5-22.2-116.6-0.9-1.9-2.3-12.8 1.6-6.9z"  fill="#c2e1ff" /><path d="M-324.5-322.5c7.8 55.1 46.7 98.7 59.7 152.1 21.9 89.8-46.9 132.3-105.2 183.6-5.6 4.9-25.3 32-32.1 26.3-5-4.1 0.3-12.1 6-9.2 5.7 2.9 2.3 11.9-3.9 10.3-12.2-3.2 6.4-20.9 9.5-24.3 40.5-44.7 105.2-69.1 119.9-133.3 14.8-65-31.7-118.3-52.2-175.9-3-8.3-8.5-20.3-7.8-29.3 0.3-3.8 5.1-3.5 6.1-0.3z"  fill="#fff500" /><path d="M-316.8-344.1c-0.2 61.2 41.9 109 58.9 165.3 30 99.7-35.1 140.4-96 202.2-5.3 5.4-25.7 37.4-32 33.4-5-3.2-1.1-11.2 4.5-9.2 5.6 2 3.5 10.7-2.5 9.9-11.6-1.6 3.6-20.2 6-23.5 36.6-51.8 102.7-79.2 117.2-146 15.7-72.9-39.2-129.7-57.4-195.8-2.8-10.4-8-26.2-5.7-36.9 0.9-4.2 6.4-3.2 7 0.6z"  fill="#c2e1ff" /><path d="M-308.7 27.2c-6.1 8.2-21.8 48.4-28.9 50.5-6.8 2.1-7.8-9.7-0.7-8.7 7.1 1 3 12.1-3 8.2-8.6-5.5 18.3-58.9 28.2-58.7 4.8 0.1 6.4 5.1 4.4 8.7z"  fill="#fff500" /><path d=""  fill="#c2e1ff" /><path d=""  fill="#005bbb" /><path d="M-310.9-397.4c-32.7 105.8 47.3 155.5 55.9 250.7 2.8 30.6-5.1 60.7-22.2 86.2-3.5 5.2-13.9 24.4-22 20.2-6.1-3.1-2.5-12.7 4.2-10.9 6.6 1.7 5.1 11.9-1.8 11.6-15.9-0.6 13.4-31.1 16.1-35.3 13.5-21.3 20.1-46.1 19-71.3-3-65.6-53.8-116-63.9-179.9-3.3-21.2-4.7-55.4 6.5-74.8 2.7-4.7 9-1.3 8.2 3.5z"  fill="#c2e1ff" /><path d="M-280.5-370.6c-8.7 69.6 31.5 123.6 51.9 186.8 23.7 73.6 6.4 133.5-28.6 199.3-3.7 7-18.6 49.8-24.8 49.7-8.3-0.1-2.7-13.4 3.2-7.6 5.9 5.8-7.2 11.6-7.6 3.4-1.2-31.1 59.7-109.3 62.8-167.7 4-76.1-43.4-133.8-60.5-204.5-4.1-16.9-10.1-44.1-4-61.1 1.6-4.5 7.5-2.6 7.6 1.7z"  fill="#c2e1ff" /><path d="M-272.8-7.7c-13.4 18.6-28 36.5-38.7 56.8-3 5.6-8.1 26.9-13.7 28.7-6.7 2.2-7.8-9.4-0.8-8.6 7 0.8 3.2 11.9-2.9 8.2-14.2-8.7 38.4-84.6 48.1-92.6 5.2-4.4 11 2.3 8 7.5z"  fill="#c2e1ff" /><path d="M-266.1-378.5c-11 74.7 29.7 132.3 50.3 200.7 21.1 70.2 10.3 129.4-17.6 195.5-2.8 6.7-12.7 44.9-19.1 45-6.9 0.1-4.7-11.1 1.7-8.3 7.4 3.2-2.6 13.1-5.8 5.7-0.7-1.7 45.8-125.7 46.4-160.6 1.3-79.2-46.5-140.6-61.8-215.3-3.7-18.1-8.7-46.9-1.8-64.6 1.8-4.6 7.7-2.4 7.7 1.9z"  fill="#c2e1ff" /><path d="M-260-311.6c10 51.5 39.2 97.4 52.4 148.1 17.8 68.7 4.6 124.6-20.3 189.1-2.7 7.1-12.1 50.9-17.8 51.6-7.6 0.8-4-12 2-7.4 7.1 5.4-8 11.4-6.5 2.6 9.6-59.4 45.4-110.2 45.2-171.8-0.2-73.9-39.7-133.3-58.5-202.2-0.9-3.2 0.3-19.2 3.5-10z"  fill="#005bbb" /><path d="M-251.6-396.3c-17.2 90.2 24.6 145.2 47.6 227.7 18 64.4 13.3 121.4-9.9 183.6-2.2 5.8-7.9 32.8-14.9 32.7-6.1-0.2-5.3-9.8 0.8-9 5.2 0.7 5 8.5-0.3 9-11.3 0.9 2.8-28.5 4.4-32.8 13.6-37 26.3-72.8 25.3-112.8-2.1-81.7-51.8-147.5-63.6-226-3.2-21.1-6.3-54.6 2.7-74.8 2.1-4.6 8.1-2.1 7.9 2.4z"  fill="#c2e1ff" /><path d="M-257.8-397.8c-6.2 31.5-8.2 63-0.6 94.4 21.5 89.2 76.7 156.4 55.8 254.7-1.3 6.3-4.1 29.3-11.1 31.2-6.1 1.6-8.1-8.1-1.9-9 6.2-1 7.2 8.9 1 9.2-10.8 0.5 1.7-25.5 2.8-30.1 7-26.9 8.1-54.8 4.5-82.3-9.1-70.3-53.1-129.7-61.9-199.2-2.6-20.3-5.1-52.2 3.5-71.3 2.1-4.6 8.2-2 7.9 2.4z"  fill="#005bbb" /><path d="M-237.7-350c-1.8 58.6 27.2 111.8 44.6 166.4 25.8 81.3 27.7 135.2-0.2 216-2.3 6.7-9.6 44.9-15.9 45.3-7.7 0.6-3.8-12.2 2.3-7.4 5.1 4.1-3.4 11-6.4 5.1-2.2-4.5 36.9-121.1 35.2-159.2-3.7-81.7-48.9-151.2-63.5-229.9-2.2-11.9-3.6-24.2-3.3-36.3 0.1-4.8 6.7-4.5 7.2 0z"  fill="#c2e1ff" /><path d="M-231.6-188.8c30.8 89.7 2.9 140.5-36.8 218.9-7 13.9-9.5 32.5-17.2 45.4-4.1 6.8-12.4-4.2-4.8-6.2 6.5-1.8 7.1 9.4 0.5 8.2-8.6-1.4 0.7-22 2.1-26.3 14.2-42.8 44.3-78.2 56.4-121.9 10.9-39.4 5.6-77.9-5.2-116.5-0.9-3.3 3.6-4.6 5-1.6z"  fill="#005bbb" /><path d="M-222.8 66.8c-0.5 2.4-2.8 16.1-8.6 9.1-3.1-3.7 1.9-8.8 5.6-5.8 4.4 3.4-1.3 10.1-5.3 6.2-8.9-8.5 9.1-20.7 8.3-9.5z"  fill="#fff" /><path d="M-220.1-397.8c-6.3 30.2-8.7 60.8-3.2 91.3 19 104.2 89.1 199.3 54 308.7-1.7 5.3-5.4 26.6-12.7 25.9-6.3-0.5-5-10.4 1.2-9.2 5.3 1 4.7 9.1-0.7 9.3-11 0.3 2.2-24.8 3.5-28.9 10.1-29.8 14.6-59.9 10.8-91.2-9.7-79.9-54.5-151.1-64.8-230.3-2.9-22.1-5.7-57.2 3.9-78.1 2.2-4.7 8.3-2 8 2.5z"  fill="#c2e1ff" /><path d="M-209.7-298.6c26.5 133.1 97.6 192.7 41.5 335.7-2.5 6.4-10.3 40.7-17.1 40.9-8.1 0.2-3.2-13 2.9-7.5 5.1 4.6-4.2 11.3-7 4.9-6.9-16.4 40.4-89 37.3-147.3-4-73.3-41.7-143.2-60.4-213.4-0.8-2.9-0.8-23.5 2.8-13.3z"  fill="#fff500" /><path d="M-201.1-32.8c-6.8 25.8-18.2 50.1-26.4 75.4-2.4 7.5-3.9 28.6-9.3 33.6-5.5 5.2-10.4-7.1-2.7-7 6.5 0 4.1 10.5-1.8 7.7-9.5-4.4 24.2-105.1 32.7-114 3.4-3.5 8.1 0.1 7.5 4.3z"  fill="#c2e1ff" /><path d=""  fill="#fff500" /><path d="M-186.9-397.3c-34.2 124.3 48.3 212.6 60.6 327.6 3.3 30.5-4.1 59.4-16.1 87.3-2.4 5.5-8.9 29.1-16.4 28-6.6-1-4.5-11.2 1.9-9.6 5.5 1.4 4.2 9.8-1.4 9.6-11.5-0.4 3.8-24.8 5.6-28.8 13.2-29.6 22.7-59.6 19.1-92.5-9.1-82.5-58.3-156.8-67.9-239.9-3.2-27.7-1.5-56.9 6.1-83.8 1.6-5.6 9.2-3.3 8.5 2.1z"  fill="#005bbb" /><path d="M-179.4 33.6c-2.7 7.4-8.7 41.1-15.4 43.7-6.3 2.5-8.1-8.6-1.3-8.2 6.7 0.4 3.7 11.2-2.3 8-6.7-3.6 6.5-44 11.4-48.5 3.8-3.5 8.5 0.7 7.6 5z"  fill="#fff" /><path d="M-173.2-318.2c2.8 97.6 66.5 181 71.2 257.9 2.9 47-24.5 83.8-43.5 124.3-1.7 3.5-5.7 19.5-12.6 13.1-15.7-14.7 24.8 1.1 3.2 1.2-12 0.1 4.2-26.7 6.3-30.8 18.3-36.6 42.2-71.2 39.4-114-3.8-57.8-53.6-146.2-66.4-215.3-8-43.5 1.6-41 2.4-36.4z"  fill="#fff" /><path d="M-166.8-247.7c16.2 61.6 59.5 133.4 58.9 196.1-0.4 42.6-24.6 77.2-41.5 114.7-1.6 3.5-5.6 20.2-12.5 13.9-15.8-14.3 24.5 0.7 3.2 1.2-11.5 0.3 2.9-24.8 4.6-28.4 16.8-36.1 39.9-70 39-111.4-1.3-59.9-38.3-119.1-54.6-176-0.7-2.4-0.7-19.1 2.9-10.1z"  fill="#c2e1ff" /><path d="M-159.7-142.8c23.1 74.5 18 115.7-9.8 187.5-2.3 5.8-7.8 33.2-14.3 33.3-5.9 0.1-5.6-9.3 0.4-8.7 5.9 0.5 4.5 9.8-1.3 8.6-7.7-1.6 30.6-102.4 32.7-115.5 5.6-34.8-14.6-96-12.9-104.9 0.6-2.9 4.2-2.6 5.2-0.3z"  fill="#005bbb" /><path d="M-151.4-55.8c-0.2 14.8-28.4 137.2-40.8 133.5-5.6-1.7-2.5-10.3 2.9-8.1 4.6 1.9 2.5 9.1-2.4 8.2-10.1-1.8 8.9-45.5 11.3-51.9 6.6-17.7 13.6-35.3 17.7-53.8 1.8-8.1 0.4-23.1 4.4-30 2.1-3.5 6.6-1.5 6.9 2.1z"  fill="#fff500" /><path d="M-144.2-316.9c-8.5 156.2 131.7 215.8 39.3 351.5-5.1 7.4-21.9 42.6-29.8 43.6-10.9 1.4-2.8-16.9 3.5-7.9 5.4 7.7-10.5 11.4-9.1 2.2 5.5-36.9 62-70.9 62.6-130.3 0.6-57.2-51.4-126.5-65.5-186.1-5.6-23.7-9.5-48.8-8.4-73.2 0.2-4.9 7-4.4 7.4 0.2z"  fill="#fff500" /><path d="M-171.1-397c-48.1 144.3 75.2 257.4 58.2 364.5-1.3 7.9-10.8 7.8-8.8 1.1 2.8-8.8 13.9 3.8 4.8 5.5-9.1 1.7-2.6-17.6-2.2-21 1.8-17.6-0.7-35.3-5.3-52.3-20.4-75.1-60.3-144.4-64.8-223.6-1.3-22.2-2-58 9.9-77.9 2.9-4.8 9.1-1.2 8.2 3.7z"  fill="#fff500" /><path d="M-179.9-397c-27.7 92.7 15.1 184.5 45.4 271 4.5 12.8 23.4 56.1 14.7 68.4-3.2 4.6-9.5-2.3-4.7-5.1 4.9-2.8 7.6 6.1 2.1 6.6-2.7 0.2-13.3-57.3-15.9-65.1-22.4-67.4-55.3-136.1-58.4-208.1-0.9-20.3-1.6-52.8 8.6-71.1 2.7-4.7 8.9-1.4 8.2 3.4z"  fill="#005bbb" /><path d="M-123.7-229.7c26.7 103.4 109.7 157.1 30.5 263.6-5.6 7.5-25 43.8-33.4 44.5-9.6 0.8-4.7-15.2 2.8-9.2 8.8 7.1-10.5 14.2-8.3 3.1 7.1-36.7 65.1-67.9 67.7-126.8 2.4-53.5-38.7-100.9-56.5-149-8.4-22.6-7.4-37.4-2.8-26.2z"  fill="#005bbb" /><path d="M-116.2-82.5c10.5 50.8-11.6 91.3-32.4 135.8-2.7 5.7-5.9 20.7-11.1 24.1-6.1 4-10.5-7.4-3.2-8.4 7.3-1.1 6.4 11.1-0.6 9-10.3-3 30.4-79.3 34.2-89.6 8.4-22.5 6.2-94 13.1-70.9z"  fill="#fff500" /><path d="M-107.5 8.3c-4.4 8.8-36.5 72.9-43.1 69.7-5.9-2.9-0.8-11.9 4.7-8.4 5.5 3.5-0.5 11.9-5.6 7.8-6-4.8 5.1-20.2 7.5-24.8 6.6-12.8 17.4-42.6 29.1-50.8 4.6-3.2 9.1 2 7.4 6.5z"  fill="#c2e1ff" /><path d="M-100.4-341.7c-56.6 165.3 153 237.6 28.2 379.6-6 6.9-27 39-35.5 38.8-12-0.3-0.3-18.7 5-7.9 4.6 9.2-13.2 10.6-10.1 0.8 11.6-38.1 71.5-59.4 76.1-121.7 4.6-63.3-63.7-131.1-76.1-198.7-5.2-28.1-5.2-57.5 1.5-85.4 1.6-6.5 13-17.3 10.9-5.5z"  fill="#fff500" /><path d="M-94.6-250.6c17.4 110.9 141.7 174.9 37.9 286.8-6.8 7.4-33.1 43.5-42.2 42.9-12.3-0.8 0.4-19.1 5.5-7.9 4.3 9.5-13.9 10.3-10.4 0.5 13.3-38.1 78.1-57.8 82.1-124.9 3.4-56-42.7-100.5-63.9-148.6-5.8-13.3-15.9-33.5-15.1-48.4 0.2-3.7 5.1-3.5 6.1-0.4z"  fill="#fff500" /><path d="M-86.1-337.6c-45.5 130.6 64 178.4 73.4 275.1 3.9 40.6-18.2 73.7-44.9 101.9-5.8 6.2-31.6 40.1-39.5 36.6-6.1-2.7-3.1-12.1 3.4-10.8 6.5 1.3 5.6 11.1-1 11.3-16.2 0.3 7.8-23.7 10.2-26.3 27.9-30.1 62.1-59.1 64.9-103.1 4.3-68.3-66.6-128.3-79.5-197.3-5-27-4.6-55.2 2.1-82 1.6-6.5 13.1-17.2 10.9-5.4z"  fill="#fff" /><path d="M-136.4-396c-42.1 81.2-8.3 178.1 27 255.1 4.6 10 42.5 95.9 23 99.5-6.1 1.1-5.7-9.2 0.3-7.6 6 1.5 1.4 10.7-3.5 6.8-4.5-3.7-2.2-36.5-4-44.3-19.5-81.4-65.8-128.6-69.1-225.1-0.9-27.7 3.3-55.3 13.9-81 2.8-6.9 16.5-15.4 12.4-3.4z"  fill="#fff" /><path d="M-113.6-395.8c-83.1 123.5 38.2 245.8 47.4 331.8 0.7 7 2.7 45.7-8.5 45.3-6.2-0.3-5.3-10 0.9-9.2 5.3 0.8 4.9 8.8-0.4 9.2-9.9 0.7-0.9-18.8-0.1-22.7 2.8-15.1 1.6-30.6-2.3-45.4-21.9-83.6-71.8-121.5-70.7-224.1 0.3-28.9 6.6-57.7 20.4-83.2 3.9-7.1 18.9-13.6 13.3-1.7z"  fill="#c2e1ff" /><path d="M-66.2-88.7c17.9 55.8-11.9 97.2-42.9 140.6-4.4 6.1-11.6 23.6-18.1 26.5-7.4 3.3-10.1-9.9-2-9.8 8.1 0.1 5 13.3-2.3 9.8-9.7-4.7 48.5-82.2 53.8-93.7 6.4-13.7 10.2-28.6 10.2-43.8 0-8.6-5.7-21.6-4-29.5 0.6-2.9 4.3-2.6 5.3-0.1z"  fill="#fff" /><path d="M-57.4-334.7c-41.8 126.7 71.5 169 80 272.9 3.3 40.2-16.5 74.8-44.2 102.4-6.2 6.2-34.3 38.9-42.8 33.9-6.1-3.6-1.7-13.2 5-11 6.7 2.2 4.5 12.5-2.5 11.8-18-1.8 23.1-35.1 27-38.8 26.3-24.6 49.1-53.9 50.5-91.4 2.8-74.4-68.9-125.2-84.5-194.9-5.8-25.8-5.5-52.9 0.6-78.7 1.5-6.3 13-18.5 10.9-6.2z"  fill="#c2e1ff" /><path d="M-52-91.8c20.9 58.6-11.7 101.3-46.4 145.2-4.1 5.2-15.3 27.3-22.5 25.2-9.4-2.8 1.1-16.2 6.1-7.8 4.2 7.2-9 11.5-9.9 3.2-1-10.4 52.2-70.5 60.6-86.5 7.6-14.4 12.1-30.2 12.1-46.5 0-9.7-6.7-23.7-5.1-32.5 0.5-2.8 4-2.6 5.1-0.3z"  fill="#fff" /><path d="M-45.4-206c22.5 46.3 62.5 84.2 69.9 137.1 7.8 55.5-26.9 95.8-65.4 130.5-4.8 4.3-17.6 21.3-24.8 17.1-6.1-3.5-1.8-13.1 4.9-11 6.7 2.1 4.6 12.4-2.4 11.7-18.2-1.7 22.8-34.9 26.5-38.3 27.4-25.1 52.3-54.2 54.9-92.9 3.8-56.3-37.2-98.7-63.1-144.3-0.9-1.6-5-16.5-0.5-9.9z"  fill="#005bbb" /><path d="M-36.3-48.7c-1.3 38-25.7 67.3-49.2 94.9-4.8 5.6-24.1 36.8-31.4 31.4-5.9-4.4 1.5-13.2 6.9-8.3 4.6 4.3-1 11.8-6.4 8.6-10.8-6.4 42.9-63.6 49.1-72.2 12.3-16.8 30.3-75.2 31-54.4z"  fill="#fff500" /><path d="M-30.3-254.8c26.4 101 145.2 168.4 58.2 285.7-8.5 11.4-34.1 47.5-49.1 48.9-11.4 1-5.7-18 3.3-11 10.6 8.3-12.3 17-9.9 3.7 2-11.1 28-27.5 36-36 24-25.8 40.7-57.4 41.7-93.2 2-73.6-56.8-120.8-81.4-184.7-1.2-3.1-2.8-22.4 1.2-13.4z"  fill="#c2e1ff" /><path d="M-21.2-381.4c-89.8 151.9 52.8 195 63.3 317.4 2.6 29.5-5.8 58.3-22.4 82.7-3.7 5.4-14.8 25.4-23 21.2-6.1-3.2-2.4-12.8 4.3-11 6.6 1.8 5.1 11.9-1.8 11.7-16.1-0.7 12.6-29.6 15.3-33.6 14.7-21.8 22.4-47.5 20.7-73.8-5.1-79.2-81.2-129.5-90-208.2-3.3-29.8 1.6-60.2 13-87.9 10.6-25.8 27-34.2 20.6-18.5z"  fill="#005bbb" /><path d="M-17.1-152c48.9 73.6 54.6 134.9-12.9 199.1-6.5 6.2-29.4 33.9-38.2 32.1-11-2.1-0.5-18.5 5.9-9.4 6.5 9-12.3 13.8-10.8 2.8 0.8-6 72.6-67.1 83.1-102.8 8.9-30.2 1.9-61.5-11.9-89-3.9-7.7-21.6-40.4-15.2-32.8z"  fill="#005bbb" /><path d=""  fill="#fff" /><path d="M0.3-387.9c-69.3 140.8 55.4 187.9 71.6 309.6 4.5 33.5-1.9 67.4-17.9 97.2-2.8 5.2-10 23.6-17.9 20.7-6-2.2-3.7-11.5 2.6-10.6 6.4 0.8 6.1 10.4-0.2 11-15.1 1.3 9.1-30.6 11.2-34.7 12.4-24.6 18-52.1 16-79.6-6.2-83.6-81.8-137.1-91.9-218.4-3.7-29.9 1.3-60.1 12.5-87.9 1.5-3.8 3.1-10.8 6.5-13.3 4.4-3.3 9 1.5 7.5 6z"  fill="#fff500" /><path d="M5.1-256c40.4 95 129.5 164.4 53.4 292.2-4.9 8.3-24.3 44-34.8 42.9-7.8-0.8-5.8-13.1 1.8-11.4 6.6 1.4 5.5 11.4-1.2 11.4-15.6 0 19.8-40.1 23.4-45.6 21.2-32.4 33-70.2 30.9-109.1-3.5-67-44.6-113.5-73.7-170.3-1-1.9-4.1-17.1 0.2-10.1z"  fill="#fff500" /><path d=""  fill="#fff" /><path d="M20.8-342.3c1.9 55.9 42.5 95.8 66.7 143 35.9 69.9 36 149.2 8.1 221.8-3.7 9.5-17.4 54.5-28.1 55.7-9.3 1.2-5.2-14.7 2.4-9 7.6 5.6-6.3 14.2-8 4.9-2.2-12.3 19.9-42.9 24.9-55.1 14.9-37.1 24-76.6 22-116.7-4.8-99.2-55.6-125.4-85.8-205.1-4.7-12.4-8-25.7-9-38.9-0.3-4.5 6-4.7 6.8-0.6z"  fill="#005bbb" /><path d="M26.5-272c12.4 26.1 30.3 49 44.4 74.2 39.8 70.7 45.3 152.3 12.3 226.7-4 8.9-19.3 49.4-29.8 49.9-9.9 0.4-4.2-15.8 3.3-9.3 7.4 6.5-7.8 14.3-8.8 4.5-1.2-12.1 22.3-40.2 27.7-52.2 15.6-34.3 24.5-71.6 22.7-109.4-3.3-70.1-41.2-118.5-73.1-177.6-1.1-2.1-2.5-12.5 1.3-6.8z"  fill="#fff500" /><path d="M33.7-130.9c33.7 65.9 22 133.1-30 185.1-5.6 5.6-22.9 27.4-31.3 25.4-11.1-2.7 0.4-19 6.6-9.4 6.2 9.6-13.3 13.5-11.2 2.3 0.4-2 61.4-61.1 71.9-90.7 9.3-26.1 9-54.3 1.5-80.8-3-10.5-13.4-41.2-7.5-31.9z"  fill="#fff500" /><path d="M43.4 39.3c-4.7 6.7-32.9 47.9-41.6 38.5-5.5-6 4.4-14.1 9.3-7.6 4.8 6.5-5.9 13.6-10 6.5-3.3-5.6 31.5-46.4 38-46.2 4.8 0.1 6.3 5.1 4.3 8.8z"  fill="#fff" /><path d="M48.3-323.9c17.1 45.1 55.5 78.3 73.6 123.3 33.5 83.4 12.2 167.8-16.8 248.7-2 5.5-7.7 33.2-15.9 29.9-5-2-2.7-9.8 2.6-8.9 5.3 0.9 4.8 8.9-0.6 9.2-11.2 0.5 7.6-40.3 9.6-46 18.7-52.6 35.1-106.3 31-162.8-7-94.5-50.6-112.6-85.6-186.5-1.3-2.7-1.5-13.1 2.1-6.9z"  fill="#fff500" /><path d="M56.1-398c-8.1 70.8 48.6 110 77.7 167.2 37.7 74.2 25.6 152.8 0.9 228.7-1.7 5.1-5 27.7-13.1 24.4-5-1.9-2.9-9.6 2.4-8.8 5.3 0.8 4.9 8.8-0.4 9.1-11.1 0.7 4.9-35 6.6-40.4 14-43.7 24.8-87.9 20.4-134.1-9.4-98.6-60.5-112.7-92.5-187.1-6.9-15.9-15.2-43.2-9.5-60.5 1.5-4.5 7.4-2.7 7.5 1.5z"  fill="#c2e1ff" /><path d="M64-60c1.5 40.9-15.5 78.5-42 108.9-5.3 6.1-27.2 35.2-36 29.9-8.3-5 2.8-16.7 8.2-8.7 5.4 8-9.6 14-11.1 4.4-1.7-10.4 41-45.3 48.3-55.9 8.6-12.6 15.5-26.3 19.9-40.9 3.4-11.2 1-29.8 6-39.4 1.8-3.5 6.3-1.7 6.7 1.7z"  fill="#fff500" /><path d="M70.6-92.5c12.3 57.7-7.9 111.7-46.3 154.8-4 4.5-11.5 16.1-17.7 17-8.1 1.2-9.2-11.6-1.1-11.9 9.5-0.4 6.7 15.2-2.1 11.5-12.2-5.1 10.9-23.1 14.5-27 15.4-17.1 29-35.9 37.8-57.2 7.1-17.2 11.1-35.7 11.5-54.3 0.2-10.8-3.2-22.1-2.5-32.6 0.2-3.7 5-3.5 5.9-0.3z"  fill="#005bbb" /><path d="M79.1-15.8c-4.6 17.9-38.1 91.4-56 95.2-9 1.9-8.9-13.4 0.1-11.4 9 2.1 2.4 15.9-4.9 10.3-8.2-6.4 21-34.9 25.5-41.5 5.8-8.3 26.1-55.9 28.7-57.5 3.7-2.3 7.2 1.2 6.6 4.9z"  fill="#c2e1ff" /><path d="M83.8-343c20.9 41.1 56.7 71.6 75.3 114.6 36.3 84.6 10.9 158.8-17.3 240.6-3 8.6-15.3 65.1-22.3 65.5-7.9 0.4-3.5-12.6 2.5-7.5 6 5.1-6.1 11.6-6.9 3.7-4.1-37.6 59.7-150.3 56.6-222.7-3.4-79.7-43.8-119.7-84.9-181.6-1.3-2-7.6-19.1-3-12.6z"  fill="#c2e1ff" /><path d="M93.3-31.2c-3.4 19.7-33.1 104.2-51.9 109.9-8.4 2.5-9.5-12-0.9-10.8 8.7 1.2 3.6 14.9-3.7 10.1-8.5-5.5 17.3-35.1 21-41.4 9-15.2 23.5-65.3 28.2-71.2 2.9-3.6 7.6-0.5 7.3 3.4z"  fill="#fff" /><path d="M98.8-166.8c25.1 69.4 17.1 141.7-12.7 208.2-3.2 7.1-12.8 36.4-21.1 37.3-6.9 0.8-7.5-10.2-0.5-10.2 6.9 0 6.3 10.9-0.6 10.2-11.8-1.3 5.3-25.1 7.4-29.3 14.8-29.8 26.9-61.2 32.6-94.1 6.6-38.4 3.4-78.2-8.3-115.3-0.8-2.5-0.2-13.9 3.2-6.8z"  fill="#fff500" /><path d="M106.4-140.6c14.3 57.4 7.1 115.3-15.2 169.5-3.2 7.8-18.6 51.8-28.1 49.7-9.3-2.1 0-15.7 5.3-7.8 4.5 6.7-8 11.7-9.3 3.7-1.3-8.3 30.5-59.9 40.4-99.6 15.3-61.6 0.4-68.6 1.2-115 0.1-3.5 4.6-3.5 5.7-0.5z"  fill="#fff" /><path d=""  fill="#005bbb" /><path d="M121-140.5c10.8 56.8 1.2 112.7-18.6 166.3-2.9 7.9-16.5 53.5-25.4 52.3-7.6-1.1-3.2-13.1 3.3-8.9 7.6 4.9-5.2 14-7.3 5.2-1.4-5.9 32.2-84.6 36-99.5 6.4-24.7 10-50.1 9.6-75.7-0.2-10.7-6.7-30.4-3.5-40.1 1-3.2 5.1-2.4 5.9 0.4z"  fill="#005bbb" /><path d="M129.4-29.9c-3 12.1-31.1 111.5-40.6 107.6-5-2.1-2.7-9.8 2.5-8.9 6.2 1.1 3.9 10.8-2.1 9-9-2.6 6.3-32.1 8.3-37.6 5.3-14.7 16.3-65.2 24.4-74.1 3.2-3.6 8-0.1 7.5 4z"  fill="#c2e1ff" /><path d="M141-399.1c23.3 105.4 121.5 208.8 71.7 321.5-3.1 7.1-13.2 36.3-21.5 37.1-9.5 0.9-4.9-15 2.6-9.2 7.5 5.9-6.8 14.3-8.2 4.8-1.6-10.2 16.6-33 20.9-42.8 11.2-25.6 15.6-52.4 11.8-80.2-11.1-80.6-59.7-147.8-81.4-224.5-1-3.7 1.3-14.1 4.1-6.7z"  fill="#005bbb" /><path d="M146.3-399c18.1 87.1 80.7 164 82.7 255.4 1.1 48.8-26.9 88.2-48.3 129.8-2.5 4.8-8.9 27.2-16.8 23.3-5-2.6-2.1-10.5 3.5-9.1 5.5 1.4 4.3 9.8-1.4 9.6-12.2-0.4 6.6-30.2 8.8-34.4 21.9-42.4 50.2-82.3 46.7-132.4-5.7-81.2-54.6-152.7-77.6-228.9-0.9-3.1-1.2-23.2 2.4-13.3z"  fill="#fff500" /><path d="M148.2-302c37.6 56 67.1 130.4 52.4 198.6-11.9 55-44.4 103.5-58.8 158-1.2 4.4-2.2 24.4-9.5 22.6-5.5-1.4-2.9-9.9 2.4-8 4.5 1.7 2.8 8.7-2 8.1-9.1-1.2 2.7-32.7 4.2-38 16.6-58.3 55.9-112.6 60-173.9 3.6-53.5-17.8-109.9-45.2-155-0.4-0.7-8.4-18.2-3.5-12.4z"  fill="#c2e1ff" /><path d="M159.6-399.2c15.6 104.1 109 215.7 59.2 321.7-3 6.4-11.8 30.8-19.5 31.3-9.7 0.7-4.6-15.4 2.9-9.2 7.5 6.1-7.2 14.3-8.5 4.7-0.5-4.3 37.7-66.4 31.9-113.6-9.4-76.9-52.1-146.7-69.5-221.7-0.8-3.3 0.4-23.7 3.5-13.2z"  fill="#fff500" /><path d="M165.3 55.1c-1.4 4.8-2.3 22.2-8.4 22.8-6.6 0.5-5.1-10.3 1-8.1 6.2 2.3 0.3 11.5-4.3 6.9-11.1-11.1 13.7-35.4 11.7-21.6z"  fill="#c2e1ff" /><path d="M171-369.7c17.8 73.7 69 161.1 64.9 236.5-2.8 50.1-36.8 89.9-58.3 133.3-4.1 8.2-20.7 63.2-26.5 63.4-8 0.3-3.3-12.8 2.7-7.6 6 5.3-6.4 11.6-7.1 3.6-4.2-47.8 77.1-135.7 81.8-196.5 5.5-70.4-42.8-157.8-61.5-226-0.9-3.4 1.1-14.2 4-6.7z"  fill="#005bbb" /><path d="M177.3-398.4c5.8 134.2 110.3 218.7 30.2 350.6-4.5 7.4-19.2 41.5-27.4 42.4-9.4 1-5-14.9 2.6-9.1 7.5 5.7-6.6 14.2-8.1 4.8-0.8-4.9 57.5-93.9 58.2-134.8 1.2-67.3-44.3-152-57.8-220.8-1.9-9.7-6.2-23.6-4.5-33.5 0.7-4.1 6.1-3.3 6.8 0.4z"  fill="#c2e1ff" /><path d="M186.5-120.6c-1.6 20.2-56.4 200.3-63.7 198.4-6.5-1.7-1.4-11.6 3.8-7.3 5.2 4.3-3.6 11.1-6.5 5-4.3-8.9 21.1-76.9 25.8-89.7 9.4-25.1 19.9-49.9 26.9-75.8 1.7-6.4 2.5-31.4 8-34.4 2.9-1.6 5.7 0.9 5.7 3.8z"  fill="#005bbb" /><path d="M193.9-105.1c-8.3 45.1-31.8 86.2-46.6 129.3-2.5 7.2-12.7 54.8-19 53.3-5.5-1.4-2.8-9.9 2.5-8 5.3 2 1.8 10.2-3.3 7.7-7.2-3.6 4.3-33.4 6.1-39.6 6.7-23.1 43.2-126.4 52.4-145.4 2.3-4.6 8.3-1.8 7.9 2.7z"  fill="#fff500" /><path d=""  fill="#005bbb" /><path d="M207.3-171.4c11.5 67.4-23.4 120.2-47.4 180.1-3.3 8.4-20 69.9-24.8 68.8-7.5-1.8 0.3-12.8 4.4-6.3 3.6 5.5-6.7 9.4-7.6 2.8-4.6-32.1 41.2-116.9 54.8-149 8.1-19.3 14.4-39.3 15.8-60.3 0.8-11.9-2.6-24.4-1.4-36 0.4-3.8 5.3-3.4 6.2-0.1z"  fill="#005bbb" /><path d="M206.8-398c-18.3 96.6 39.7 165.2 43.5 251.9 2.3 53.4-33.6 92.6-59 135.8-2.2 3.7-8.5 20.7-15.2 12.9-3.8-4.5 2.2-10.9 7-7.3 4 3 1.4 9.6-3.6 9.1-12.1-1.3 5.7-25 7.9-28.8 21.3-35.5 51.3-68.9 55.3-111.8 5.7-62-35.7-132.9-43.9-196-2.5-19.2-7.6-49.7 0.2-68.1 2-4.6 8-2.2 7.8 2.3z"  fill="#005bbb" /><path d="M222.7-370.3c-18.5 90.4 36.4 149.4 36.8 229.1 0.4 64.8-56.6 109.9-81.7 165.6-2.6 5.8-10.3 37.6-17.4 35.1-5.7-1.9-2.2-10.7 3.2-8.2 4.7 2.1 2.2 9.4-2.8 8.3-8.9-2 2.6-24.9 4.3-29.5 20.5-55.1 73.3-97.5 85-155.3 12.3-60.8-29.1-123-36.4-182.7-2.2-18.2-6.6-47.3 1.1-64.8 2-4.7 8.1-2.1 7.9 2.4z"  fill="#fff" /><path d=""  fill="#fff500" /><path d="M237.4 54.1c-3.6 4.8-13.1 28-20.5 23.8-5.9-3.4-0.1-12.4 5.5-8.4 5.5 4-1.2 12.3-6.3 7.8-13.8-12.5 33.6-46.2 21.3-23.2z"  fill="#fff" /><path d="M244.4-14.7c-19.6 18.7-36.8 39.9-48.1 64.7-2 4.5-8.3 32.7-16 26.9-4.1-3.1-0.1-9.7 4.6-7.5 5.4 2.5 1 10.9-4.2 7.8-12.7-7.6 23.8-71.9 55.2-100.5 5.9-5.4 13.3 2.7 8.5 8.6z"  fill="#c2e1ff" /><path d="M251.7 47.8c-4.8 5.3-19.2 32.2-26.1 30.5-6.8-1.6-3.6-12.2 3-9.9 7.7 2.8 0.5 14.2-5.4 8.5-6.3-6.2 15.4-35.7 21.9-38.3 5.9-2.4 9.6 4.5 6.6 9.2z"  fill="#fff500" /><path d=""  fill="#c2e1ff" /><path d="M266-111.7c-13.6 52-60.9 88.4-83.6 136.4-4 8.4-12.6 49.5-19.1 52.3-6.2 2.6-8.1-8.3-1.5-8 6.7 0.3 3.9 11-2.1 7.9-8.8-4.5 9.2-45.4 12.2-52.4 15.7-37.3 41.9-66.7 64.8-99.5 7.9-11.3 12.8-32.2 21.8-41.2 3.5-3.5 8.2 0.3 7.5 4.5z"  fill="#fff" /><path d="M271.6-253.7c12.1 49.3 43.3 95.5 25.3 147.6-17.5 51-68.7 81.1-96.1 126.1-4.4 7.3-23.6 58.8-28.1 57.5-6.5-1.9-1.1-11.9 4.1-7.4 4.4 3.9-2.1 10.4-6.1 6.2-5.8-6.4 7.5-33.1 10.4-39.9 24.2-57.4 83.9-89.4 107-145.7 20.6-50.2-9.5-95.4-21.9-143-0.9-3.6 4.1-4.7 5.4-1.4z"  fill="#c2e1ff" /><path d="M280.2 37.6c-7.6 6.7-31.5 41.2-39.5 41.3-8.5 0.1-5.7-13.7 2.1-10.3 7.8 3.4-0.6 14.8-6.2 8.5-6.9-7.8 30.1-50.1 39.4-50.3 6.1-0.1 7.7 6.8 4.2 10.8z"  fill="#fff" /><path d="M286.6-396.4c-21.6 45.1-36.5 88.7-25.2 139 9.4 41.7 34.3 80.7 31.2 124.7-3.4 47.5-39.1 78.9-68 112.8-5.2 6.1-25.3 40.4-32.3 38.5-9.4-2.5 0.7-16 5.8-7.7 4.3 7-8.6 11.6-9.6 3.3-2.2-18.1 82.8-99 92.8-131.8 19.6-63.9-33.5-125-31.5-189.5 0.9-28.5 9.8-71.9 28.4-94.6 3.8-4.7 10 0.2 8.4 5.3z"  fill="#fff500" /><path d="M294.9-394.1c-19.3 44.6-35.5 87.1-24.5 136.4 9.6 42.9 36 82.6 31.5 128-4.7 47.3-41.4 77.8-71.4 110.7-5.6 6.1-27.8 41.8-34.8 39.9-8-2.3-1.5-14.5 4.9-9.1 7.4 6.3-7.6 14.3-8.7 4.6-2.1-19.4 88.4-99.3 99.1-134.5 19.3-63.3-33.6-122.4-31.8-186 0.8-28.4 9.6-71.6 27.4-94.8 3.6-4.7 9.8-0.2 8.3 4.8z"  fill="#fff" /><path d="M301.8-345.9c-25.4 94.7 36.1 135.9 29.6 214.8-6 71.4-79.4 101.6-116.8 154.3-4 5.7-17.9 38.2-24.7 34.9-5.9-2.8-0.9-11.8 4.6-8.4 4.7 2.9 1.1 10.4-4.1 8.6-9.3-3.3 5.5-24.8 8-29.4 30.5-54.7 99.3-82.5 120.4-142.1 21.2-59.8-24.5-113.3-30.8-171.2-2-18.4-3.2-47.7 5.7-64.6 2.5-4.7 8.7-1.6 8.1 3.1z"  fill="#c2e1ff" /><path d="M309-56.8c-29.6 31.2-67.8 52.8-92.5 88.8-4.4 6.5-22.7 49.3-28.3 44.8-4.1-3.3 0.2-9.9 4.9-7.6 5.5 2.8 0.6 11.2-4.6 7.9-24.1-15.8 96-138 114.5-143.8 6.3-2 9.6 5.5 6 9.9z"  fill="#c2e1ff" /><path d="M315-165.5c17.2 84.8-60.4 121.5-102.7 180.4-16.2 22.5-27.7 61.2-31.2 62.4-6.5 2.3-7.9-9.1-1.1-8.4 6.9 0.7 3.4 11.6-2.6 8.1-12.2-7.1 22.3-63.2 27.9-71.2 23.4-33.5 58-56.5 82.5-89 10.4-13.8 18.2-29.5 21.1-46.6 2.1-12.1-1-23.6 0-35.4 0.3-3.7 5.1-3.4 6.1-0.3z"  fill="#fff500" /><path d="M306.4-396.9c-12.3 33.9-27.6 67.6-27.5 104.4 0.2 90.5 79.4 148.6 0.5 234.9-5.8 6.3-25.8 32.5-34.8 30.6-11-2.3-0.2-18.7 6.3-9.4 6.4 9.3-12.7 13.7-11 2.6 1.3-8.4 58.6-54.9 66.4-92.6 12.7-61-36-115.3-34.5-176.3 0.7-29.3 9.6-73.7 26.4-98.5 3.2-4.7 9.4-0.7 8.2 4.3z"  fill="#fff500" /><path d="M330.3-363.5c-16 117.1 40.2 153.7 34.2 232.6-5.2 69.2-66.3 98.9-112.1 140.2-5.4 4.8-24.4 31.4-31.4 25.5-4.9-4.2 0.5-12.2 6.3-9.2 5.7 3.1 2.1 12.1-4.2 10.3-11.9-3.3 5.8-19.9 8.8-23.2 39.2-43.6 104.3-67.9 121.6-128.4 17.8-62.5-26.4-118.2-33.6-178.5-2.4-20.4-4.9-51.7 2.7-71.3 1.8-4.6 7.7-2.4 7.7 2z"  fill="#fff" /><path d="M337.4-373.7c-2.5 28.4-5.3 57.1-1.1 85.5 17.9 119.8 95.7 170.9-40.1 271.5-14.5 10.8-49.9 45.8-57.4 44.6-12.8-2.1 2.4-20 6.5-7.7 3.5 10.4-15.5 9.4-10.9-0.6 18.3-39.9 105.5-60.4 127.3-131.9 20-65.5-26.3-125-33.4-188.5-2.7-24.2-1.6-49.4 1.4-73.5 0.6-5.1 7.5-4.2 7.7 0.6z"  fill="#005bbb" /><path d="M343.7-169.5c20.5 94.9-65.1 128.1-116 188.5-9.9 11.7-18.2 24.6-24.7 38.5-2.3 4.9-4.6 19-10 20.5-6.9 2-7.7-9.9-0.6-8.8 7.1 1.1 2.9 12.2-3.1 8.2-6.8-4.5 5.2-25 7.7-30.2 25.9-55.6 80.3-79.9 117.4-125.4 12.3-15.1 21.1-32.8 24.1-52.2 2-13.3-1.6-25.9-0.8-38.8 0.2-3.7 5-3.5 6-0.3z"  fill="#fff" /><path d="M352.9-398.5c2 37.5 3.9 75.4 12.7 112.1 20.3 84.9 64.6 170.1-4.6 246.3-8 8.8-31 36.2-43.6 36.1-12-0.1-4.1-19.5 4.5-11.2 8.7 8.3-10.4 17-10.9 5-0.5-10.2 38.1-34.2 45.8-42.8 19.9-22.1 32.4-49.3 35.4-78.9 7-68.7-32.7-132.7-40.9-199.9-2.7-21.9-4.7-44.3-5.2-66.3-0.1-4.5 6.1-4.6 6.8-0.4z"  fill="#fff500" /><path d="M359.6 69.2c-2.3 3.1-12.5 17.3-15.4 5.8-4.1-16.7 23 2.8 5.8 4.2-11.9 0.9-1.9-14.5 1.5-17.4 5.1-4.4 10.9 2.2 8.1 7.4z"  fill="#fff" /><path d="M364.8-200.8c45.2 139-48.7 151.4-122.3 230.5-5.9 6.4-32 50.1-36.6 47.9-6.9-3.3 1-13.3 5.8-7.3 4.8 5.9-6.5 11.6-8.4 4.2-1.4-5.3 4.7-13.5 7.1-18.1 30.4-59.5 95.5-80.6 134.2-131.8 15.9-21 24.2-46.4 23.9-72.7 0-1.9-10.8-68.7-3.7-52.7z"  fill="#c2e1ff" /><path d="M373.9-69.1c-27 45.5-77 67.5-114.2 102.9-10.3 9.8-35.3 49.5-41 42.9-5.2-6.1 6.5-12.4 8.7-4.6 2.2 7.7-11.1 8.5-9.8 0.5 5.8-36.8 59.1-70.2 86.3-90 14.3-10.4 28.5-20.9 41.1-33.3 6.9-6.8 13.9-21.4 21.8-25.9 5.1-2.9 9.3 2.9 7.1 7.5z"  fill="#005bbb" /><path d="M380.7-119.2c-11.5 74.7-83 100.9-130.8 148.7-10.5 10.6-30.9 47.8-36.3 48.8-7.7 1.3-7-11.6 0.5-9.5 7.5 2 1.5 13.4-4.4 8.4-11-9.2 29.3-53.7 36-60.5 25.6-25.6 57.6-43.2 84.4-67.4 35.6-32.3 31.5-57.2 43.3-71.9 2.9-3.6 7.6-0.5 7.3 3.4z"  fill="#fff" /><path d=""  fill="#fff" /><path d="M395.5-41c-9.8 15.4-116.2 127-125 118.8-5.7-5.3 3.2-13.8 8.3-7.9 5.1 5.9-4.7 13.4-9.1 7-9.2-13.5 74.2-77.1 85.2-87.6 11.8-11.3 20.7-26.6 32.5-37.3 4.9-4.4 10.8 1.8 8.1 7z"  fill="#fff" /><path d="M400.3-356.9c56.2 123.2 71.6 260.4-7 378.4-6 9.1-29.6 53.4-40.4 53-10.3-0.3-3.2-16.7 4-9.4 7.3 7.3-9.2 14.3-9.4 4-0.2-7.2 39.3-57.2 46-67.6 23.5-36.8 38.8-77.1 44.5-120.5 10.1-77-3.5-151.5-35.3-221.8-0.8-1.7-7.3-24.1-2.4-16.1z"  fill="#005bbb" /><path d="M409.9-51.7c-8.3 17-109 141.2-121.3 129.1-5.6-5.5 3.6-13.9 8.5-7.8 5 6.1-5.1 13.5-9.3 6.8-6.2-9.5 31.7-39.6 38.3-45.9 18.4-17.7 37.5-35 53.6-55 7.1-8.8 14-27.6 22.8-33.7 4.6-3.2 9.1 2 7.4 6.5z"  fill="#005bbb" /><path d="M417-58c-9.4 22.5-94.1 133.5-112.6 137.2-9.1 1.8-8.8-13.5 0.3-11.4 9 2.2 2.3 16-5 10.2-9.3-7.4 23.4-34.6 28.8-40.1 21.7-22.2 44.6-43.8 62.3-69.4 6.7-9.8 10.8-22.4 17.9-31.5 3.7-4.7 9.9 0 8.3 5z"  fill="#fff500" /><path d="M422.6-238.7c31 126.5 1.6 195.9-87.3 285.3-5.8 5.9-28.5 36.1-36.3 32.3-6.1-3-2.7-12.5 3.9-10.9 7.7 1.8 4.1 13.8-3.4 11.1-13.3-4.8 16-29.4 20.2-33.7 33.9-35 71.3-67.8 90.5-113.6 21.2-50.5 19.6-107.6 8.7-160.4-0.4-2.1 0.2-19.6 3.7-10z"  fill="#005bbb" /><path d="M428.9-326c56.5 113.4 30.1 258.1-24.8 366.6-3.4 6.7-15.6 39.7-23.7 37.9-5.8-1.2-4.9-10 1-10.1 6.9 0 6.4 10.9-0.5 10.2-12-1.3 12.7-39.7 15.8-45.6 24.5-48.3 43.3-97.4 50.2-151.4 7.2-57 9.1-120.8-9.6-175.8-3.4-9.9-10.4-20.3-12.5-30.4-0.5-2.6 2.8-3.4 4.1-1.4z"  fill="#fff500" /><path d="M438.2-109.3c-9.3 63.8-43.9 111.9-84.8 159.6-7 8.2-15.3 22.7-24.4 28.3-9.1 5.6-12.3-12.7-1.8-10.5 8.9 1.9 2.7 15.6-4.6 10.2-7.6-5.7 62.3-84 70.1-95.5 26.6-39.4 22.4-58.7 37.7-94.4 2-4.6 8-2.1 7.8 2.3z"  fill="#fff500" /><path d="M444.6-206.3c9.3 95.4-14.8 174.6-71.4 251.1-4.6 6.3-21.9 36.9-30.2 33.7-8.2-3.2-0.1-15.4 6-9.1 7.2 7.5-9.5 14.3-9.6 3.9-0.1-10.6 61.6-79.7 80.1-125.9 19.8-49.5 20.9-100.7 18.5-153.1-0.2-4.4 5.8-4.7 6.6-0.6z"  fill="#c2e1ff" /><path d="M452.4 49.4c-0.5 5.2 0.8 26.5-5.4 27.6-5.2 1-6.2-7.3-1-7.7 6.1-0.5 4.7 9.6-1.1 7.5-11.1-4.2 6.9-48.6 7.5-27.4z"  fill="#fff" /><path d=""  fill="#c2e1ff" /><path d="M464.3-352c15.3 21.2 25.8 45.1 28.9 71.2 8.1 68.9-30.1 250.6-33 339.4-0.1 4.1 2.3 16.7-3.2 18.1-4.8 1.2-6.3-6.5-1.4-7.2 4.9-0.7 5.6 7.2 0.6 7.3-10.3 0.3 22.1-261.2 25.7-287.2 4.7-33.9 9.2-68.9-1.6-102.1-0.8-2.4-22.8-47.3-16-39.5z"  fill="#fff500" /><path d="M474-108.5c-15.8 130.9-24.2 185.9-27 185.5-5.2-0.7-3.6-8.8 1.4-7.6 4.3 1.1 3.4 7.7-1 7.6-8-0.2-1.2-34.6-0.6-40.4 1.6-15.9 17.7-146 20.6-148.6 2.9-2.6 6.6 0.1 6.6 3.5z"  fill="#005bbb" /><path d="M481.2-158.5c-3.1 26-23.8 227.2-26.5 233.6-0.6 1.6-2.2 2.5-3.9 2.4-5.9-0.7-2.8-10.1 2.4-7 5.1 3.1-1.7 10.3-5.1 5.3-3.9-5.8 4.3-68.1 5.6-79 5.8-49.2 12.8-98.1 18.6-147.4 0.5-4.4 8.8-20 8.9-7.9z"  fill="#fff" /><path d="M523.4-399.3c15.1 27.9 25.1 58.7 24 90.6-2.2 63-40.3 132-48.8 199.6-1.3 10.1-4 92.9-6.5 93-6.3 0.1-2.4-10.1 2.2-5.8 4.6 4.2-5.2 9-5.6 2.7-8.9-121.2 22.9-158.2 47-263.9 6.5-28.4 5.7-57-3.5-84.6-2.8-8.4-12.9-22.3-12.8-30.7 0-2.3 2.8-2.6 4-0.9z"  fill="#fff500" /><path d="M495.7-203.3c-12.3 68.8-21.8 139.4-24.2 209.4-0.3 8.2 3.1 70.6-2 70.6-5.4 0-3.5-8.8 1.4-6.6 4.9 2.3-0.5 9.4-4 5.4-8.7-10.1-3-52.9-2.8-66.2 1.3-70.4 8.7-145 23.4-214 1.1-5.3 8.4-3.8 8.2 1.4z"  fill="#005bbb" /><path d=""  fill="#fff500" /><path d="M529-399.2c50.8 104.4-16.5 186.7-29.5 290.5-2.1 16.8-0.5 113.3-0.9 113.9-2.8 5.1-9.2-2.7-3.7-4.5 4.7-1.5 5.5 6.7 0.6 6.1-5.9-0.7-5.1-20.4-5.5-24.8-4.2-45.1-0.4-91.1 8.4-135.3 9.1-45.5 29.7-87.3 40.2-132.3 6.6-28.4 5.7-56.9-3.1-84.8-8.3-26.3-9.9-34.4-6.5-28.8z"  fill="#fff" /><path d="M517.4-164.9c-16.3 57-20.2 119.3-7.3 177.5 2.9 13 21.5 50.1 17.5 61.5-1.4 3.9-7.3 0.3-4.4-2.7 3.4-3.5 6.9 4.3 2 4.4-5.6 0.2-13.8-36.7-15.5-42.2-18-61.5-18.2-126.3-3.8-188.7 4.7-20.4 11.8-11.4 11.5-9.8z"  fill="#005bbb" /><path d="M524.4-265.2c-15.4 94.4-41.5 150.7-38.2 254 0.4 11.9 12.3 82.8 10.7 86.1-2.5 5-9-2.2-3.7-4.1 4.5-1.7 5.6 6.2 0.8 5.8-7.9-0.6-12.4-59-13.2-67.2-9.1-94 15.7-180.2 34.4-270.8 1.1-5.4 9.8-13.9 9.2-3.8z"  fill="#005bbb" /><path d="M532-223.3c-27.2 70.2-41.2 146.6-30.5 221.7 2.7 18.6 19.9 78.1 15.1 77.6-13.7-1.3 14.1-4.7 1.1-0.1-5.4 1.9-12.3-31.9-13.6-36.7-18.2-67.2-16.6-138-0.3-205.5 4.5-18.5 8.9-45.7 19.9-61.4 3.3-4.7 9.5-0.6 8.3 4.4z"  fill="#fff" /><path d="M538.5-88.8c-3.3 42.6 7.9 83.1 23.3 122.4 1.9 4.9 18.6 40.6 13.6 42.1-3.3 1-4.6-4.2-1.2-4.9 3.4-0.6 4.1 4.7 0.7 5-4.5 0.4-6.5-12.3-7.7-15.3-14.3-37-30.4-73.4-35-113.3-4.4-37.8 5.3-50.8 6.3-36z"  fill="#fff500" /><path d="M546.2-128.9c-14.7 51.3-6.3 103 12.1 152 3.9 10.2 22.5 41.1 19.4 51.1-1.4 4.5-7.7-0.6-3.7-2.9 3.5-2 5.4 4.4 1.5 4.7-4.9 0.4-14.8-33.4-16.9-38.5-17.8-44.8-31.5-90.5-26.2-139.3 2.9-27 15.9-43.2 13.8-27.1z"  fill="#fff500" /><path d=""  fill="#005bbb" /><path d="M560.6-399c28.4 131.3-45.7 182.1-57.1 305.8-3.2 34.4-2.1 69.3 4.9 103.1 0.8 4 10.2 31.2 3.9 30.7-3.7-0.4-2.8-6.1 0.8-5.4 3.6 0.8 2.1 6.4-1.4 5.2-4.7-1.5-6.4-18.3-7.5-22.6-18.4-74.8-10-156.2 17.8-227.7 10.9-28.1 25.1-55.1 33.5-84.1 6.5-22.4 8.3-45.4 5.6-68.6-0.9-7.7-9.5-30.9-6-37.2 1.4-2.5 4.6-1.5 5.5 0.8z"  fill="#c2e1ff" /><path d="M565.7 44.1c1.6 4.1 14.6 30.1 9.5 31.6-3.3 1-4.6-4.2-1.2-4.8 3.4-0.6 4.1 4.7 0.6 4.9-11 0.9-14.2-41.4-8.9-31.7z"  fill="#c2e1ff" /><path d="M574.9-117.9c-14.1 46.8-3.4 94 12.6 138.7 2.2 6.1 16.8 34.9 13.2 39.7-2.4 3.3-6.8-1.8-3.2-3.8 3.6-1.9 5.4 4.5 1.4 4.8-5.2 0.3-13.3-31.4-15.2-36.4-14.1-38.5-26.1-78.4-21.8-119.9 2.5-24.1 15.2-38.4 13-23.1z"  fill="#c2e1ff" /><path d=""  fill="#fff" /><path d="M589.5-201.5c-42.4 51.7-56.9 117.1-41 182.1 6.4 26.2 17 51 26.7 76 0.9 2.3 10.1 19.3 3.6 19.1-12.2-0.4 12.3-5 1-0.2-3.8 1.6-4.9-5.8-5.6-7.6-24-65.3-51.4-126.9-33.2-197.9 6.3-24.6 19.6-63.2 40.5-79.5 5.5-4.3 11.1 2.7 8 8z"  fill="#fff" /><path d="M595-21.7c0.9 4.2 9.5 26.1 4.3 27.4-3.6 0.9-4.6-4.8-0.9-5.3 3.6-0.5 4 5.3 0.3 5.4-4.4 0.1-10.3-23.7-9.3-27.5 0.8-3.1 4.6-2.5 5.6 0z"  fill="#c2e1ff" /><path d=""  fill="#fff500" /><path d="M603-164.1c-30.5 42.4-36.2 93.7-24 143.6 2 8.2 21.8 71 19.6 71-4-0.1-2.4-6.6 1.3-4.8 4.2 2.1-2 7.6-3.6 3.1-18.8-52.9-39.8-106.8-26.4-163.8 4-17 11.5-44 25-56.2 4.9-4.5 10.9 1.8 8.1 7.1z"  fill="#fff" /><path d="M603-288.8c-28.4 61.1-71.7 107.4-82.6 176.6-3.6 23-4.4 46.5-2.2 69.7 0.3 3.2 6.1 24.7-1.1 23.2-3.5-0.7-3-6 0.6-6 3.5 0 4.2 5.2 0.8 6-6.6 1.6-6.7-22.1-7.2-25.9-11.4-109 35.2-157.4 81.7-246 3.3-6.2 12.9-5.6 10 2.4z"  fill="#fff" /><path d="M601.8-398.5c7.9 134.8-45 136.6-77 245.9-4.2 14.4-9.4 83.2-13.1 88.1-3.4 4.5-9.5-2.6-4.5-5.3 5.8-3.1 7.1 8.3 0.7 6.6-17.9-4.9 13.6-110.2 18.7-123.1 15-37.9 39.5-70.7 56.1-107.7 16.3-36.3 5.1-88.8 12.6-105.7 1.5-3.4 5.9-2 6.5 1.2z"  fill="#c2e1ff" /><path d=""  fill="#fff" /><path d="M603.1-141.8c-19.8 36.3-22.1 77.6-13.5 117.5 1.2 5.6 13.5 44.8 9 44.5-12.6-0.8 12.8-4.8 1.1-0.1-5.6 2.2-12.2-29.5-13.4-33.9-10.2-37.9-13-77.7 0.4-115.2 8.4-23.6 19.3-20.8 16.4-12.8z"  fill="#fff" /><path d=""  fill="#005bbb" /><path d=""  fill="#c2e1ff" /><path d="M603.1-226c-48.8 54.2-75.4 119.3-62.2 192.8 5.3 29.9 16.8 57.9 27.9 86 1.1 2.9 12 23.6 5.4 23.4-12.2-0.3 12.3-5 1-0.2-4.1 1.8-5.4-7-6.1-8.9-26.2-69.9-52.9-136-28.8-211.2 9.2-28.9 29.1-72.7 55.1-90.6 5.9-4.1 11.3 3.5 7.7 8.7z"  fill="#c2e1ff" /><path d="M602.9-189.9c-32.2 36.9-48.9 83.2-45.2 132.3 0.7 9.3 12.9 54.8 11.7 58.3-1.6 4.6-8-0.9-3.7-3.2 4.3-2.2 5.1 6.2 0.5 4.8-5.4-1.5-8.5-23.9-9.7-29-12.7-52.3-6.1-106.8 23.8-152.1 17.3-26.1 31.3-24.6 22.6-11.1z"  fill="#fff" /><path d="M602.8-210.9c-47.1 51.2-67.7 116-52.6 184.8 6 27.4 16.9 53.4 27 79.4 1.1 2.7 11.6 23.1 4.9 22.8-12.3-0.4 12.4-5 1.1-0.2-4 1.7-5.1-6.4-5.8-8.3-24.6-67.5-53.2-131.6-31.1-204.4 8-26.2 25.2-66.6 48.8-82.8 5.9-4 11.3 3.5 7.7 8.7z"  fill="#fff500" /><path d=""  fill="#fff500" /><path d=""  fill="#005bbb" /><path d="M603-162.5c-29.4 41.6-35 91.8-23.4 140.6 1.9 8.1 21 69.8 18.9 69.8-4-0.1-2.4-6.6 1.3-4.8 4.2 2.1-2 7.6-3.6 3.1-19.1-53.7-39.6-108.6-24.2-166 4-15.1 10.9-38.8 22.8-49.7 4.9-4.5 10.8 1.7 8.2 7z"  fill="#005bbb" /></svg>