<svg width="1200" height="675" viewBox="-500 -500 1200 675" xmlns="http://www.w3.org/2000/svg"><path d="M-500-500h1200v675h-1200z" fill="#000"/><path d=""  fill="#c2e1ff" /><path d=""  fill="#c2e1ff" /><path d=""  fill="#fff500" /><path d=""  fill="#fff" /><path d=""  fill="#fff" /><path d=""  fill="#005bbb" /><path d=""  fill="#fff500" /><path d=""  fill="#005bbb" /><path d="M-397.7 65.8c1.3 1.2 10.1 6.6 8.2 8.7-1.4 1.6 1.5-1.1-0.2 0.2-4.9 3.5-12.4-11.8-8-8.9z"  fill="#fff" /><path d=""  fill="#c2e1ff" /><path d=""  fill="#c2e1ff" /><path d="M-385.6-399c1.9 13.6 10.2 110.4-13.4 108.6-8.5-0.7-6.7-14 1.6-12.5 8.4 1.6 5.1 14.6-3 12.2-10.6-3.2 4.3-34 5.7-41.2 3.2-16.5-2.3-59.3 0.9-68 1.6-4.4 7.2-3 8.2 0.9z"  fill="#c2e1ff" /><path d=""  fill="#c2e1ff" /><path d="M-369.3-149.7c-20.6 49-35.6 109.6-10.7 159.8 10.2 20.5 25.9 37.4 42.6 52.7 1.2 1.1 15.1 11.3 10.2 12-6.2 0.9 5.8-3.6 0.5-0.2-2.2 1.4-4.5-2.7-6.5-4.5-39.7-35-70.5-73.8-69.3-129.4 0.6-27.6 5.6-73.2 22.1-96.4 4.5-6.4 12.9-0.7 11.1 6z"  fill="#c2e1ff" /><path d="M-362-18c6.5 28.7 23.8 52.5 43.4 73.8 2.3 2.5 18.4 16.5 15.6 18.9-1.7 1.5-3.9-1.4-2.1-2.6 1.9-1.3 3.7 1.8 1.8 2.8-9.3 4.9-65.7-84.9-66-91.8-0.2-4.5 5.7-4.9 7.3-1.1z"  fill="#c2e1ff" /><path d=""  fill="#fff500" /><path d="M-341.2-73.6c-4.5 39.1 3.6 75.4 25.8 108 5.8 8.5 29.8 29.8 30.1 39.3 0.1 3.8-6 1.5-3.5-1.3 2.2-2.4 5.3 2 2.3 3.2-4.2 1.8-22.2-25.1-25.2-28.9-24.5-31.3-40.5-65.4-40.5-105.8 0-5-0.8-11.7 0.9-16.6 2-6 9.9-3.5 10.1 2.1z"  fill="#c2e1ff" /><path d="M-330.8-322.6c-6.8 12.9-60.9 106.1-71.8 98.3-7.9-5.6 1.6-17.5 8.8-11.1 7.2 6.4-3.4 17.3-9.9 10.1-7.7-8.4 15.3-33.7 20.1-40.9 8.8-13.3 32.1-58.4 43-65.6 6.4-4.1 12.3 3 9.8 9.2z"  fill="#c2e1ff" /><path d="M-321.3-140.9c-18.4 46.1-26.4 102.8-5.5 149.3 5 11.2 43.9 61.9 43.9 65.2 0 3.9-6.2 1.4-3.6-1.4 2.6-2.8 5.5 3.2 1.6 3.5-4.8 0.3-16.9-20.1-20-24-40.5-52-51.6-106-36-170.2 1.9-7.7 3.5-23.6 9.5-29.1 5.1-4.7 11.5 0.9 10.1 6.7z"  fill="#005bbb" /><path d="M-312.7-62.9c-2.2 38 8 72.2 27.3 104.8 3.9 6.7 19.8 24.3 19 31.9-0.5 4.7-7.8 0.9-4.1-2.2 3.1-2.6 6.2 3.3 2.3 4.3-5.6 1.6-24.8-36.5-27.9-41.9-14.6-25.4-34.6-68-26.3-98.3 1.6-5.8 9.2-3.9 9.7 1.4z"  fill="#fff500" /><path d="M-305.8 26.7c3.1 5.5 32.8 46.6 29.7 48.4-2.7 1.6-5-2.7-2.2-4 2.4-1.2 4.5 2.2 2.5 3.9-4 3.1-10.7-11-12.1-13-32.5-45.7-18.5-36.1-17.9-35.3z"  fill="#fff" /><path d="M-293.4-67.7c-3.2 39.2 5.1 75.3 22.3 110.4 2.6 5.3 17.6 27 14.8 32.1-2.2 4-7.9-1-4.2-3.8 3.7-2.7 6.7 4.3 2.2 5.2-6.2 1.2-22.4-39.6-25.1-45.6-12.3-26.6-28.8-70.3-19.8-100.1 1.8-5.9 9.5-3.7 9.8 1.8z"  fill="#005bbb" /><path d="M-283.5-229.3c-59.6 44.6-98 134-82.7 208.4 5.7 27.9 21.4 51.4 40.3 72.1 3.1 3.5 21.7 18.7 20.8 22.8-0.6 2.9-5 0.1-2.5-1.7 2.5-1.7 3.7 3.4 0.7 2.9-8.1-1.2-24.2-24.4-29.8-30.6-48.2-54.3-48.7-119.6-26.3-185.9 11.4-34 35.5-86.5 70.7-102.5 9.5-4.3 15.4 7.9 8.8 14.5z"  fill="#fff" /><path d="M-273.3-332.7c-20.5 30.5-116.9 114.9-118.4 145.5-5.4 107.4-5.5 111.7-4.8 195.1 0.1 8.2-1.9 30.9 1.2 41.3 0.8 2.6 3.9 8.8 1.2 8.1-0.3-0.1-0.5-0.2-0.7-0.4-8.9-11.2-4.9-37.5-5-48.9-0.1-19.7 0.1-39.4-0.2-59.1-0.9-47.6-3.1-95.1-3.7-142.6-0.2-16.9 30.2-49.4 40.4-62.2 11.2-14.1 69-81.8 80.9-87.7 7.3-3.6 12.6 4.8 9.1 10.9z"  fill="#fff500" /><path d="M-264.2-297.7c-43.6 39.6-87.2 68.9-115 122.9-3.5 6.7-11.3 17.7-11.8 25.2-2.1 33.5-3.9 67.1-5.1 100.7-0.4 11.9-6.5 61.9 3.3 77.8 9.7 15.7 24.8 28.8 38.9 40.4 1.6 1.3 5.3 5.5 3.2 5.2-5.2-0.7 5.5-1.6 0.5 0-2.4 0.8-9.1-6.6-10.9-8.1-48.2-39.4-38-47.2-39.8-115.3-2-76-14.6-78 4.5-120.8 15.9-35.6 37.3-68.3 65.8-94.9 16.3-15.3 37.3-36.6 57.2-46.8 9.1-4.6 15.3 7 9.2 13.7z"  fill="#fff500" /><path d="M-255-252.8c-74.5 51.9-127.5 123.6-116.7 220.3 3.5 31.1 18.9 57.7 39.5 80.6 4.7 5.2 22.9 18.4 23.8 25 0.1 0.8-0.9 1.9-1.8 1.7-9.6-1.3-29.1-29-35.4-36.5-58.1-68.7-39.1-174 10.5-242.9 16.3-22.7 45.1-53.4 72-63.6 10-3.8 15.2 9.1 8.1 15.4z"  fill="#fff500" /><path d="M-244.5-143c-18.6 48.8-25.2 108.3-14.2 159.6 1.6 7.5 19.2 60.4 13.6 60.1-4.6-0.2-3.9-7.5 0.6-6.8 3.9 0.6 3.7 6.5-0.2 6.8-9.2 0.6-22.4-61.6-24.2-70.4-7.2-36.4-7.3-122.8 13.3-154.7 4.1-6.4 12.5-1.2 11.1 5.4z"  fill="#fff500" /><path d="M-236.3-397.4c-15 78.5-84.1 114.1-127.9 174.3-6.4 8.8-23.7 48.5-33.4 49.8-10.6 1.3-9-16.3 1.2-13.1 10.2 3.2 1.3 18.6-6.6 11.4-13.2-12.1 43.2-78.8 52.4-89.1 18.9-21.3 41-39.1 60.7-59.7 28.6-29.8 35.7-69.2 43.7-78.6 4.1-4.8 10.4-0.4 9.9 5z"  fill="#fff" /><path d="M-225.3-153.8c-21.1 51.2-31.6 116.2-23.8 171.2 1.1 7.5 15.3 60.4 9.1 59.8-4.9-0.5-3.7-8.2 1.1-7.2 4.1 0.9 3.5 7.1-0.7 7.2-7 0.1-11-29-12.4-34.5-16.1-63.5-9.8-140 14.9-200.9 3.2-7.8 13.7-3.2 11.8 4.4z"  fill="#fff" /><path d="M-216.1 3.1c-3.1 13.4-0.8 67.3-3.9 72.4-4.2 6.9-12.7-4.3-4.9-6.5 6.7-1.8 7.3 9.7 0.5 8.5-11.6-2-6.4-68.9-2.3-77.9 2.9-6.3 11.1-2.7 10.6 3.5z"  fill="#fff500" /><path d="M-206.3-85.5c-10.7 41.1-24.6 81-22.3 124.1 0.4 6.9 7.3 33.5 2.7 37.9-4.7 4.5-10.4-4.8-4.2-6.9 6.2-2.1 7.4 8.7 0.9 8-8.5-0.9-8.6-39.6-9-46.6-1.9-35.8 3.4-88.8 21.1-120.8 3.5-6.3 11.7-2 10.8 4.3z"  fill="#fff" /><path d="M-196.4-21.5c-9.1 20.1-15.8 41-18 63-0.7 6.9 3 31.4-2.3 35.5-5.8 4.4-10.8-6.5-3.7-8.1 7.1-1.6 7.1 10.5 0 8.9-19.5-4.3 6.7-92.7 12-104.3 3.6-7.8 14.2-2.8 12 5z"  fill="#c2e1ff" /><path d=""  fill="#fff" /><path d="M-177.2-44.9c-13.8 26.8-28.4 52.9-33.2 83.1-0.9 6 1.1 43.3-8.4 39.8-6-2.2-2-11.4 3.7-8.5 5.7 2.8 0.8 11.5-4.6 8.1-13.9-8.8 17.1-113.9 31.4-130.1 5.5-6.2 13.7 0.7 11.1 7.6z"  fill="#fff" /><path d="M-168-165.7c-6.4 26-10.5 52.4-18.1 78.1-10.2 34.6-27 67.3-32.7 103.3-2.3 14.4-2.7 28.9-1.8 43.4 0.2 3.6 4.6 21-4.4 18.5-4.9-1.4-3.6-8.8 1.4-8.6 5.1 0.3 5.4 7.8 0.5 8.7-8.3 1.3-6.5-17.7-6.8-22.1-4.1-57.6 20.5-104.4 35.7-158.1 4.8-17.1 4.9-55.2 16.2-68.3 4.2-4.8 10.6-0.4 10 5.1z"  fill="#c2e1ff" /><path d="M-158 52.5c-4.8 5.6-15 31.4-24.2 26.7-6.7-3.5-2.6-14 4.6-12.1 8.5 2.3 4.2 15.5-4 12.4-12-4.6 7.6-35.1 14.4-38.3 7.5-3.6 12.8 5.1 9.2 11.3z"  fill="#fff500" /><path d="M-148.6 37.6c-7 6.5-30.2 47.6-37.9 40.2-6.2-6 3.8-15.3 9.4-8.7 4.7 5.7-3 13.7-8.9 9.1-10.5-8.2 19.4-50.7 29.1-53.8 8.4-2.8 12.9 7.1 8.3 13.2z"  fill="#fff500" /><path d="M-139.4-190.2c-5.9 35.9-5.1 73-16.8 107.8-11.6 34.7-35 63.8-46.6 98.5-4.9 14.7-5.8 58-10.5 61.2-6.1 4.3-10.9-7.2-3.6-8.5 7.4-1.3 6.9 11.1-0.3 9.2-12.2-3.2 0.5-56.9 2.9-65.5 9.7-34.3 31.5-62.8 44.9-95.5 14.8-36.1 8.1-81.8 19.6-110 2.5-6.1 10.5-3.1 10.4 2.8z"  fill="#fff500" /><path d="M-129.5-86.3c-10.9 44.3-47.8 73.9-64.5 115.4-2.9 7.3-9.2 53-17.3 49-6.2-3-1-12.5 4.8-8.8 5.8 3.6-0.4 12.5-5.8 8.2-4-3.1-1.5-11.9-1.1-15.8 4.9-50.7 35.7-82.4 60.2-124.2 5.3-9 7.7-19.7 12.9-28.5 3.7-6.3 11.9-1.6 10.8 4.7z"  fill="#fff" /><path d=""  fill="#fff500" /><path d=""  fill="#005bbb" /><path d="M-101.1-275.2c-3.6 26.1-8.7 52-8.7 78.4 0 41.9 14.7 85.1 3.5 126.6-11.6 43-50.5 66.3-72.5 102.8-4.5 7.4-15.3 48-22.6 46.2-8.5-2-2.2-15.1 4.7-9.7 6.9 5.4-4.3 14.6-8.3 6.9-2.2-4.4 0.9-12 1.9-16.3 12.7-55.9 65.7-81.4 84.7-132.3 16.7-44.6-2.3-94.6-0.9-140.5 0.6-19.3 0.5-46.8 7.9-64.9 2.5-6.1 10.5-3 10.3 2.8z"  fill="#fff500" /><path d="M-93.4-391.1c34.9 111.4-2.5 173.2 45.2 253.9 9.2 15.6 123.4 159.5 94.8 171.1-6.5 2.6-8.3-8.8-1.4-8.5 6.9 0.4 3.9 11.5-2.3 8.3-5.1-2.7-4-17.2-5-22.1-3.3-15.6-9.4-30.4-17.2-44.3-30.6-54.6-81.4-95.6-98.9-157.7-16.2-57.8 0.8-118-15.4-176.5-4.5-16.3-6.4-38.8 0.2-24.2z"  fill="#005bbb" /><path d="M-82.6-92.1c5.4 69.6-53.1 90.2-86.8 139.1-4.3 6.2-13 35.6-22.1 32.2-7.7-2.9-2.5-14.7 4.9-11 7.3 3.7 0.9 14.9-6.1 10.4-11.7-7.6 14.3-44.8 19.7-51.7 17.6-23.2 43.2-38.5 61.4-61.1 21.3-26.3 11.5-42.3 20.2-59.9 2.3-4.6 8.2-2.4 8.8 2z"  fill="#fff" /><path d="M-72.3 75.7c-5.4 4.3-20.1 11.7-19.6-2.4 0.4-11.6 18.6-10 16.9 1.5-1.9 13.4-22.9 5.5-15.6-5.8 9-13.8 29.8-5 18.3 6.7z"  fill="#005bbb" /><path d="M-62.6 37.2c-8.7 8.4-55.1 50.5-65.9 43.2-11-7.4 4.9-22.5 11.8-11.3 5.9 9.7-9.8 18.1-14.7 7.9-4.9-10.4 54.7-56.7 65.4-54 6.9 1.7 7.6 9.5 3.4 14.2z"  fill="#005bbb" /><path d="M-54.8-203c5.9 25.7 19.3 48.9 36.9 68.4 60.7 67.2 142.9 83.6 161.3 185 1 5.3 7.6 24.2 1.2 27-4.4 2-8.1-4.3-4.2-7.2 4.6-3.4 9.5 4.1 4.6 7-9 5.2-9-21.5-9.6-25.4-4.3-26.4-11.5-51.9-27.2-74-36.3-51.3-99.6-74.3-139.5-122.3-11.7-14.1-30.2-38.2-30.8-57.4-0.2-4.5 5.7-4.9 7.3-1.1z"  fill="#fff500" /><path d="M-44.2-287.2c2.6 43 0 84.4 25.5 121.7 37.4 54.7 106.1 74 149.5 122.4 22.9 25.5 32.6 56.6 37 90 0.7 5.3 7.7 30.1-0.8 30.8-4.9 0.4-6.3-6.9-1.6-8.4 4.8-1.4 7.6 5.4 3.3 7.9-9.2 5.1-8.5-21.4-8.9-25.2-3.3-27.7-7.8-55.4-22.8-79.6-40.6-65.8-128.4-82.3-168.6-148.9-17.5-29.1-28.6-77.4-21.7-111.4 1.1-5.5 8.3-4.2 9.1 0.7z"  fill="#005bbb" /><path d="M-34.6-280.2c2 40.2 1.8 78.9 26.3 113.2 37.6 52.6 104.5 71.9 146.9 119.6 22.8 25.6 32.1 57 35.9 90.4 0.7 5.7 7.6 34.3-0.9 34.8-5 0.3-6.3-7.1-1.4-8.4 4.8-1.4 7.6 5.6 3.2 7.9-9.4 5.1-8.3-21.5-8.7-25.3-2.9-29.1-6.5-58.3-22-83.9-39.3-65-125.3-81.6-165.9-146-19.2-30.5-22.8-66.7-22.6-101.9 0-6.1 8.3-6.1 9.2-0.4z"  fill="#005bbb" /><path d="M-26.8-346.2c30 62.3 3.4 134.2 53.2 189.1 52.2 57.5 138.7 80.1 155.3 165 1.1 5.4 6.8 23.3 1.6 27.4-4.7 3.8-10.3-3.9-5.2-7.2 5.1-3.3 9.8 5 4.4 7.8-9.4 4.7-8.3-22.7-8.9-26.6-3.4-22.4-11.1-43.6-24.9-61.7-41.2-54.3-115.4-73.8-149.7-134.9-21.8-38.8-14.2-81.4-21.6-123.4-2.1-11.6-8.1-22.5-10-33.8-0.6-3.7 4.2-4.6 5.8-1.7z"  fill="#005bbb" /><path d="M-16-309.7c9.6 44.6-0.6 90.6 24.5 131.5 34.9 56.6 104.4 76.5 145.4 127.1 21.6 26.7 28.6 58.8 31.2 92.3 0.4 5.2 6.3 31.9-2.3 32.2-5.2 0.2-6.2-7.5-1.3-8.7 5-1.3 7.7 6 3.1 8.2-9.4 4.7-7.7-19.7-7.9-23-2.1-30.4-4.2-61.3-19.8-88.3-37.1-64.6-121.6-82.6-159-147.7-9.3-16.1-28.8-117.9-20.7-125.8 2.5-2.4 5.9-0.7 6.8 2.2z"  fill="#c2e1ff" /><path d="M103.4-399.7c56.7 61.4 26.8 132.1 61.5 196.6 13 24.1 34.6 40.5 55.2 57.6 1.6 1.3 17.1 12.1 12.7 14.1-6.9 3 5.5-6 0.5-0.4-2.3 2.6-15.6-12.5-17.9-14.4-95.3-81.2-58-89.1-84.9-192.4-5.3-20.5-28-49-30.4-59.5-0.4-2 1.9-2.8 3.3-1.6z"  fill="#fff" /><path d=""  fill="#005bbb" /><path d="M29.2-399.5c35.4 28 60.7 62.7 64.8 108.8 3.8 43.1-6.7 85.6 18.6 124.2 27.6 42.3 79.3 63.8 98.6 112.3 2 5 11.1 23.8 4 27-6.1 2.8-8.4-8.1-1.7-8 6.7 0.1 4.2 10.8-1.8 8-5.9-2.8-13.2-41.3-18.5-49.7-27.8-44-81.1-65.4-100.5-115.9-15.4-40.2-2.1-83.4-11.3-124.6-6.9-30.5-25.1-55.7-48.4-75.9-1.8-1.6-5.8-7.5-3.8-6.2z"  fill="#c2e1ff" /><path d=""  fill="#fff500" /><path d="M28.7-133.8c66.8 54.4 135.8 73.5 147.5 171.1 0.8 7 7.6 34.4 2 39.2-6.1 5.2-10.6-8-2.6-7.7 8 0.4 2.2 13.1-3.3 7.3-0.6-0.6-12-89.4-27.4-113.1-25.9-39.9-71.3-61.5-108.7-88.6-0.7-0.5-11.6-10.7-7.5-8.2z"  fill="#fff500" /><path d=""  fill="#fff" /><path d="M52 47.1c0.2 5.6 3.1 33.4-7.6 31.4-7.1-1.3-4.5-12.4 2.5-10.4 7 2.1 3.1 12.8-3.6 10.1-11.9-5 6.1-54.8 8.7-31.1z"  fill="#fff" /><path d="M88.4-399.5c71.6 68.3 27.1 145.1 71.3 212.9 22.4 34.4 62.7 52.3 83.7 87.8 6 10.1 25.5 60.6 10 68.8-8.7 4.6-10.5-12.4-1-9.8 8.1 2.3 1.5 14.6-4.9 9.1-4.8-4.1 1.7-54.6-19.4-82.3-26.6-35-68.8-53.9-86.6-96.1-19.6-46.6-6.9-99.6-27.3-146.3-6.8-15.6-39-54.9-25.8-44.1z"  fill="#c2e1ff" /><path d=""  fill="#c2e1ff" /><path d="M77.3-37.2c23.2 23.8 38.4 52.4 45.2 85 1.1 5.3 8.4 26.9 1.8 29.7-7.2 3.1-7.6-10.5-0.3-7.8 6.3 2.3 0.4 11.7-4.4 7-8.2-8.1-7.7-42.4-11.5-54.4-6.2-19.3-31.3-48.6-33.8-57.9-0.5-1.8 1.7-2.7 3-1.6z"  fill="#fff500" /><path d="M90.1 66.7c0.3 2.9-1.4 18.8-7.8 9.6-3-4.4 3-9.5 6.9-5.9 3.9 3.6-0.9 10-5.5 7.3-10.5-6.2 4.1-22.5 6.4-11z"  fill="#fff500" /><path d=""  fill="#005bbb" /><path d="M119.5-399.6c43.3 55.7 23.7 124.2 53 183.5 25.7 52 95.3 69.5 104.9 131.2 1.7 11 0.8 77.9-16.1 77.1-7.1-0.3-7.8-10.9-0.8-12.1 7-1.2 9.9 9 3.4 11.7-16.1 6.5 1.5-39.9 2.4-44.9 4.6-23.2 3.3-47-8.8-67.7-23.6-40.4-72.5-57-93.8-100-24.3-49.1-11.7-107.3-36.2-156.7-0.8-1.5-14.4-29.2-8-22.1z"  fill="#c2e1ff" /><path d="M118.1-209c11.7 57 67.5 78.9 97.1 123.9 30 45.7 12.9 98.1 9.4 148.2-0.2 2.6 0.1 21.4-8.4 14-13.7-11.9 21.8-5.7 4.9 0.8-9.8 3.8-6.4-16-6.3-19.5 2-39.2 15.4-80.1 4.8-119-13.4-49.3-63.2-71.2-91.2-110.4-6.8-9.4-17.5-24.9-17.8-36.9-0.1-4.6 5.9-4.9 7.5-1.1z"  fill="#c2e1ff" /><path d="M126.9 4.8c3.7 7.7 25.4 71.6 13.7 72.7-4.8 0.5-6.3-6.7-1.7-8.1 5.4-1.7 7.7 6.9 2.2 8.1-8.5 1.7-8.7-27.7-9.7-33.1-2.4-12.8-8.5-25.3-10.5-37.9-0.6-3.8 4.3-4.6 6-1.7z"  fill="#fff" /><path d="M134.4-122.9c61.4 52.3 79.5 82.1 76.2 164.2-0.3 6.3 3.2 34.2-3.8 36.5-8.2 2.6-7.1-12.4 0.6-8.6 7.8 3.8-3.3 13.9-6.3 5.8-10.2-27 5.8-81.2-5-117-10-33.2-35.5-55.8-61.2-77.3-0.9-0.7-3.7-5.7-0.5-3.6z"  fill="#c2e1ff" /><path d=""  fill="#005bbb" /><path d=""  fill="#c2e1ff" /><path d=""  fill="#fff500" /><path d="M176.4-334.4c4.4 42 3.2 85.6 31.3 120.3 27.4 33.9 72.4 51.8 86.6 95.9 15.5 48-13 95.1-29.7 138.5-3.2 8.4-11.7 55.9-18.8 57-8.3 1.3-7.4-12.6 0.7-10.2 9.4 2.7-1 16.2-6 7.7-12.1-20.6 51.4-139.5 48.2-179.6-5-63.2-76.6-82.6-102.7-133.9-12.8-25.1-22.6-67.6-18.4-96 0.8-5.3 7.7-4.4 8.8 0.3z"  fill="#c2e1ff" /><path d="M186.2-339.2c2.5 42.2 1.3 85.5 29.3 120.3 26.4 32.9 68.9 51.5 83.4 93.6 17 49.4-13 97.7-31.1 142-3.4 8.4-13 55.7-20.4 56.7-9.9 1.2-5.5-15.6 2.6-9.7 6.9 5.1-3.8 14.4-7.9 6.9-11.2-20.5 54.3-138.5 52-178.5-3.6-64.9-77.2-85.6-102.1-139.4-11.3-24.4-20.1-65.6-14.9-92.6 1.1-5.5 8.2-4.3 9.1 0.7z"  fill="#005bbb" /><path d="M205.3-398.8c2.7 45.6-9.5 94.4 4.8 138.7 22.6 70.3 114.4 92.2 99.2 178.4-1.1 6.4-2.6 25.4-10.4 27.4-11.2 2.9-8.7-17.1 1.4-11.5 10.1 5.6-5.4 18.4-8.9 7.3-2.9-9.2 13.9-50.3 6.9-75.2-15.4-55.3-79.5-76.9-97.3-132-9.2-28.4-10.9-104.4-4.8-133.8 1.1-5.5 8.3-4.2 9.1 0.7z"  fill="#fff" /><path d="M205.6 55c0 4.6 3.7 22.9-4.4 22.8-5.3 0-6.1-8-0.9-9.1 6.1-1.3 7.6 8.4 1.4 9.1-8.2 0.8-7.2-21.1-5.2-25 2.4-4.7 8.5-2.4 9.1 2.2z"  fill="#fff" /><path d="M215.6-336.4c-15.6 128.1 54.4 107.3 91.2 192.3 24.3 56.1-13.4 110.4-35.3 160.2-3.9 8.8-15.9 61.7-22.4 62.7-9.7 1.4-5.8-15.2 2.3-9.6 6.9 4.8-3.4 14.3-7.6 7-12.9-22.3 60.2-147.6 61.3-187.4 1.7-67.5-71.2-92.9-93.1-149.7-8-20.8-14.3-56.1-6.5-77.9 2.2-6 10.1-3.4 10.1 2.4z"  fill="#c2e1ff" /><path d="M224.9-303c-3.5 67.3 52.2 92.7 81 144.8 32.8 59.4-7.3 117.6-31.9 171.2-4.1 9-17.7 64.7-24.1 65.6-9.8 1.4-5.7-15.3 2.3-9.6 6.9 4.9-3.5 14.3-7.7 7-13-22.8 62.9-149.5 64.4-189.9 2.3-61.7-57.3-88.5-81.8-137.8-6.8-13.6-15.6-37-11.8-52.5 1.4-5.8 9-4.1 9.6 1.2z"  fill="#c2e1ff" /><path d=""  fill="#fff" /><path d="M239.9-176.9c84.9 67.1 50.8 119.3 20.9 204.4-2.8 7.9-8.8 49.8-16 51-7 1.1-8.2-10-1.1-10.4 7.1-0.4 7.1 10.8 0 10.4-15.5-0.8 40.1-147.4 41.5-164.6 1.8-22.6-4.7-44.1-18.7-61.9-8.1-10.3-37.7-35.8-26.6-28.9z"  fill="#c2e1ff" /><path d="M249.7-159c65.1 55.1 31.1 120.8 8.7 187.8-2.9 8.8-6.3 45.4-13.4 49.3-7.3 3.9-11-9.3-2.8-9.8 7-0.4 7.1 10.7 0.1 10.4-16.3-0.8 34.6-136.7 36.9-152.4 2.7-19.4 0.2-39.1-9.5-56.4-1.5-2.8-28-34.6-20-28.9z"  fill="#c2e1ff" /><path d="M260.4-236.3c21.7 36.2 57.5 62.7 63.5 107.1 7.9 58.9-35.5 108.8-56.2 160.4-3 7.4-10.4 48.7-18.4 47.2-7.1-1.4-4.3-12.5 2.6-10.4 5.9 1.8 4.2 10.9-2 10.4-10.8-0.9-1.5-26.5-0.1-31.8 14.3-55.5 58.7-102 64.7-159.6 5.1-48.6-28.2-78.9-54.1-115-1.5-2.1-5.1-14.5 0-8.3z"  fill="#fff" /><path d="M265-396.7c-12.4 39.5-34.4 78.5-27.6 121.3 14.7 93.3 124.6 98.8 69.8 223.5-3.7 8.3-14 40.1-23.8 41.2-12.5 1.5-6.9-19.7 3.3-12.1 10.1 7.5-8.5 19-10.7 6.6-1.3-7.4 36.4-76.5 36.4-104.6 0.2-68.4-77.1-99.4-85-165.5-4.1-34.4 7.9-86.1 26.6-115.6 4-6.3 12.3-1.3 11 5.2z"  fill="#fff" /><path d="M283.5-308.1c-27.4 67.7 46.7 113.8 50 178.2 3.4 67.1-52 119.4-70.9 180.5-1.8 5.7-2.9 29.7-11.9 27.8-6.1-1.2-5.3-10.5 1-10.6 7.3-0.1 6.9 11.3-0.4 10.7-10.7-1-1.4-26-0.1-31.2 14.8-56.3 58.9-100.9 70.5-157.9 12.5-61.6-38.1-97.1-51.4-151.9-3.4-14-6-37.7 2.1-50.7 4-6.4 12.4-1.4 11.1 5.1z"  fill="#005bbb" /><path d="M293.2-385.8c-17.7 34.2-42.7 67.5-39.3 108.1 3.7 43.6 39.7 71.2 59.4 107.5 29.5 54.6 3.2 107.3-23.3 156.7-4.2 7.9-17.8 47.2-27.3 46.2-10-1.1-4.7-17 3.9-11.7 10.1 6.1-6.3 18.5-9.4 7.1-4-14.5 54.6-108.8 59.1-138.6 10.9-73.4-69.2-109.5-72.1-178.7-1-23.3 19.3-92 39.2-105.5 6.3-4.2 12.2 2.8 9.8 8.9z"  fill="#fff" /><path d="M302.6-292.5c-19.4 55.2 33.8 101.2 37.1 154.7 3.9 62.3-43.2 111.5-67 165-3.5 7.9-13.7 53.2-21.1 51.8-6.1-1.2-5.3-10.5 1-10.7 7.3-0.1 6.9 11.4-0.4 10.7-10.4-0.9-2-23.3-0.7-28.5 14.6-58.4 60.2-102.8 75-160.6 14.8-57.7-26.3-95.3-36.2-148.4-10.4-56 12.6-36.9 12.3-34z"  fill="#c2e1ff" /><path d="M309.9-136.9c18.1 51.9-15.2 102.2-35.9 147.6-4.1 8.9-20.5 69.2-26.5 68.1-8.3-1.5-2.9-14.4 4-9.6 8 5.7-6.3 15-8.3 5.4-6.6-32.7 33.1-97.5 46.5-127.7 7.4-16.6 13.7-34 15.3-52.2 0.8-9.7-4.1-22.7-2.2-31.5 0.9-3.9 5.8-3.4 7.1-0.1z"  fill="#fff500" /><path d="M307.5-395.5c-18.8 38.1-51.6 72-48.8 117.4 3.2 52.1 53.3 83.3 66.2 131.9 8.9 33.6-1 67-15.8 97.3-3.3 6.7-13 36.1-23.7 29.6-6.8-4.2-1.7-14.9 5.8-12.3 7.5 2.6 4.8 14.2-3 13.2-14.6-1.7 2.6-24.4 5.2-29.4 12.1-22.9 23.6-47.2 25.2-73.5 4.1-68.4-71.3-105.3-69.6-172.9 0.9-35.4 23.8-82.7 47.5-109 5.5-6.2 13.7 0.9 11 7.7z"  fill="#005bbb" /><path d=""  fill="#fff500" /><path d="M340.7-13.8c-20.5 17.4-39.1 37.7-51.3 61.9-2.9 5.8-9.5 37.3-19.3 30.3-5.4-3.9-0.6-12.6 5.6-10 7.2 3.1 1.8 14.1-5.1 10.3-22.2-12.4 46.3-98.5 60.7-106.1 9-4.7 15.4 6.8 9.4 13.6z"  fill="#fff500" /><path d=""  fill="#005bbb" /><path d=""  fill="#fff500" /><path d="M352.3-394.4c-22.8 37.9-66.6 66.5-70.2 114-3.8 49.5 40.2 85 50.3 131 7.4 33.9-3 66.9-18.3 97-3.1 6.2-11.4 31-21.7 24.4-6.8-4.3-1.4-15.1 6.1-12.3 7.6 2.8 4.6 14.5-3.3 13.4-14.3-2 2.3-23.4 5-28.3 11.2-20.5 21.5-42.2 24.3-65.6 8.2-66.2-61.3-110-51-175.6 5.4-34.2 42.6-83.7 68-107.2 6.4-5.9 14.3 2.3 10.8 9.2z"  fill="#fff" /><path d="M368.3-394.5c-23.1 38-68.9 64.2-76.8 110.7-7.3 42.5 24 76 37.9 113.2 18 47.9 0.7 92.8-23.2 134.8-3.9 6.9-13.2 32.4-23 30.1-10.6-2.6-2.6-18.9 5.9-12.1 10 8-9.4 19.1-11.1 6.3-1.4-10.2 40.9-76.1 46-96.1 18.5-71.5-55.4-120.1-41.4-188.9 4.4-21.8 58.6-98.8 76.3-108.3 7-3.8 12.5 4.2 9.4 10.3z"  fill="#fff" /><path d=""  fill="#fff" /><path d="M398.4-245.7c-11.7 42.1-2.2 86.1-18.9 127.5-21 52.1-65.9 89.3-93.4 137.5-4.8 8.5-19.8 58.9-26.3 59.5-8.7 0.8-6.9-13.6 1.3-10.7 7 2.5 2.5 13.4-4.2 10.2-13.6-6.5 14.3-60.4 19.2-69.3 23.5-42.8 60.3-76.2 84.3-118.4 25.6-45.1 15.7-90.8 26.8-138.9 1.7-7.4 12-4.7 11.2 2.6z"  fill="#fff" /><path d="M407.3-13.7c-26.8 18.7-56.2 34.4-77.6 59.7-4.9 5.8-20.2 40.9-29.2 32.3-6.2-6 3.8-15.3 9.3-8.7 4.7 5.7-2.9 13.6-8.8 9.1-7-5.4 3-19.5 5.8-24.7 19.6-36.3 55.9-61.7 90.7-82.3 10-5.9 18.3 7.3 9.8 14.6z"  fill="#fff" /><path d="M417.9-96.7c-32 48.3-87.9 74.3-120.4 122.8-6.2 9.3-17.5 49.5-25.6 52.6-8.4 3.3-10.7-11.5-1.7-11 10.6 0.7 2.7 17.3-4.5 9.6-5.4-5.8 3-22.7 5.2-28.7 20.3-55.5 67.5-88.2 109.4-126.3 9.6-8.8 17.2-20.7 27-28.9 6.9-5.8 14.6 3 10.6 9.9z"  fill="#fff500" /><path d="M427.1-54c-34.8 35-83.4 52.2-113.9 92.1-5.3 6.9-18.4 41.5-26.1 41.2-9.6-0.4-5.6-15.8 3-11.4 8.5 4.3-1.6 16.6-7.5 9.1-3.6-4.6 1.3-13.2 2.9-17.4 19.9-52.3 66.7-78.8 110-109.4 7-4.9 15.9-15.9 24-18.1 8.7-2.3 12.7 7.9 7.6 13.9z"  fill="#005bbb" /><path d="M437.2-379c-24 39.4-72 63.6-87.9 107.8-14.7 41.3 9.7 83.4 8.7 125.3-1.2 51.4-33.4 92.5-59.8 134-4.5 7.1-17.1 39.1-26.6 37.3-8.9-1.6-5.6-15.5 3.1-12.9 8.7 2.6 3.8 16-4.5 12.5-13.2-5.6 60.7-114.6 67.2-130.2 27.3-65.4-21.6-127.6 6.9-187.1 10.1-21 63.3-79 82.1-96 6.5-5.9 14.3 2.4 10.8 9.3z"  fill="#fff500" /><path d="M439.8-395c-24.2 51.4-93.9 79.9-100.5 139.2-6.6 58.8 31.4 95.9 5.7 161.6-2.1 5.4-4.8 16.7-10.4 19.3-9.7 4.6-13.8-12.7-3-12.8 10.8-0.1 7.1 17.4-2.7 12.9-7.9-3.5 15.4-58.4 16.4-69.8 3.9-48.1-27.8-93.9-10.5-141.5 12.1-33.3 41.8-54.6 65.5-79.3 9.9-10.2 18.7-31 29.8-38.5 6.2-4.2 12.1 2.8 9.7 8.9z"  fill="#005bbb" /><path d="M456.3 8.7c-17.2 22.2-53.5 71.5-59.7 71.9-11.1 0.7-8.2-17.5 2.1-13.4 10.3 4 0.1 19.3-7.6 11.3-9.6-10 44.7-76.4 56.3-81.4 7.7-3.3 12.7 5.5 8.9 11.7z"  fill="#fff" /><path d="M465.2-174.4c-2.9 31.5-8.7 63.5-26.3 90.4-30.2 46.3-86.1 65.6-122.1 106.3-12.9 14.6-32.3 61.2-39.6 55.5-7.4-5.7 4.5-15.7 8.8-7.4 3.7 7.1-7.8 12.4-10.7 4.9-2.3-6 3.4-16.2 5.5-21.7 25.1-63.9 86.9-85.9 132.6-130.7 43.5-42.6 29.2-81.2 42.3-100.8 3.2-4.8 9.5-1.5 9.5 3.5z"  fill="#c2e1ff" /><path d="M475.6-310.9c-42.5 82.4-30.1 144.4-60 199.3-30.7 56.4-92.5 86.9-125.1 142.3-5.1 8.6-14 45.2-21.5 48.1-8.3 3.4-10.8-11.3-1.9-10.8 8.9 0.4 5.1 14.7-2.8 10.6-8.9-4.6 3-29.4 5.4-35.6 26.5-68.2 93.5-99.6 131.7-158.3 30.3-46.5 23.1-103.4 40.8-154.1 5.2-15 11.8-36.9 22.3-49 5.4-6.2 13.6 0.6 11.1 7.5z"  fill="#005bbb" /><path d="M485.1-298.5c-28.2 66-19.8 145-50.2 198.8-31.8 56.4-99.2 79.1-135 132.6-5.6 8.3-15.4 43.1-23.2 45.9-8.6 3.1-10.6-12-1.5-11.2 9.2 0.8 4.6 15.3-3.3 10.8-8.8-5 3.9-28.9 6.6-35 30.2-68.6 104.9-90.4 144-149.8 30.3-46.1 22.6-104.1 36.3-155.5 3-11.2 7.1-36.5 16.3-44 5.5-4.5 11.7 1.5 10 7.4z"  fill="#fff" /><path d="M494 69.5c-1.7 13.5-13.9 7.9-10.1 1.6 5.8-9.7 15.5 8.3 4.2 7.8-16.1-0.8 5.6-26.7 5.9-9.4z"  fill="#005bbb" /><path d="M503.9-31.8c-2.3 13.2-33 114.1-43.4 110.9-7.5-2.3-3.3-13.9 3.9-10.8 7.2 3.1 1.8 14.2-5 10.3-9.3-5.2 5.6-35.4 8.3-42.4 4.5-11.8 21.5-66.9 26.4-72.8 4-4.8 10.3-0.6 9.8 4.8z"  fill="#005bbb" /><path d="M513.4-262.1c-19.8 103.1 31.9 181.6 37.7 280.1 0.4 7.7 6.8 58.5 0.4 59.2-6.4 0.7-5.3-9.9 0.8-7.9 6.1 2 0.7 11.3-4 6.8-6.5-6.1-6.9-72.4-8.4-85.6-7.2-64.9-37.3-123.9-40.7-190-1-19-4-47.9 3.7-65.7 2.7-6.2 10.8-2.9 10.5 3.1z"  fill="#c2e1ff" /><path d="M522.8-368.3c-3.9 45.6-26.4 87.1-32.9 132.2-16.5 113.9 20.3 170.3-89.4 250-8.1 5.9-31.3 30.4-41.3 28-10.8-2.6-5.8-19.5 4.7-15.7 10.5 3.8 3.7 20-6.4 15.1-5.2-2.5-6.1-9.6-1.9-13.4 39.1-36.3 93.1-59.2 111.1-113.3 18.7-56.3 4.8-118.7 16.5-176.5 2.4-12 26.6-105.2 30.1-110.1 3.3-4.8 9.6-1.4 9.5 3.7z"  fill="#fff500" /><path d=""  fill="#fff500" /><path d="M540.8-392.7c16.6 79.1-26.4 155.9-0.4 234.8 9.4 28.3 26.5 52.2 46.2 74.2 2.3 2.6 14.3 12.3 13.5 15.9-0.7 3.1-5.3-0.1-2.6-1.9 2.3-1.5 3.9 2.8 1.2 3.2-6.1 0.9-26.6-28.2-30.8-33.2-79.3-95.6-32.6-155.1-32.1-257.2 0-11.6-3.7-24-3-35.4 0.3-4.9 6.7-4.6 8-0.4z"  fill="#005bbb" /><path d=""  fill="#fff" /><path d="M558.8-50.2c5.5 12.2 41.9 125.2 28.9 127.6-5.1 1-6.1-7.1-1-7.5 5.1-0.4 5.3 7.7 0.2 7.5-8.4-0.3-11.4-42.2-12.6-49.3-1-5.9-26.9-97.9-15.5-78.3z"  fill="#fff500" /><path d="M569.9 34.5c0.8 7.2 9.3 36.9 4.6 41.8-4.2 4.5-10-3.9-4.2-6.2 5.7-2.3 7.4 7.8 1.2 7.4-7-0.4-12-38.6-9.9-44 1.7-4.5 7.3-3 8.3 1z"  fill="#005bbb" /><path d="M576.9-134.3c2.3 3.3 23.9 26.5 22.4 27.8-4.3 4 3.9-4.5 0.2-0.1-7.8 9-31-36.1-22.6-27.7z"  fill="#005bbb" /><path d=""  fill="#fff" /><path d=""  fill="#fff500" /><path d=""  fill="#c2e1ff" /><path d=""  fill="#c2e1ff" /><path d=""  fill="#005bbb" /><path d=""  fill="#005bbb" /><path d=""  fill="#c2e1ff" /><path d=""  fill="#fff500" /><path d=""  fill="#fff" /><path d=""  fill="#005bbb" /><path d=""  fill="#fff" /><path d=""  fill="#c2e1ff" /></svg>