<svg width="1200" height="675" viewBox="-500 -500 1200 675" xmlns="http://www.w3.org/2000/svg"><path d="M-500-500h1200v675h-1200z" fill="#000"/><path d=""  fill="#c2e1ff" /><path d=""  fill="#c2e1ff" /><path d=""  fill="#c2e1ff" /><path d=""  fill="#c2e1ff" /><path d=""  fill="#c2e1ff" /><path d=""  fill="#fff500" /><path d=""  fill="#c2e1ff" /><path d=""  fill="#c2e1ff" /><path d="M-397.6-20.1c2.3 2 24.1 19 23 20.1-1.2 1.3 1.3-0.9-0.1 0.1-3.6 2.6-25.7-22.1-22.9-20.2z"  fill="#005bbb" /><path d="M-396 69.1c0.7 1.8 2.8 8.6-2.4 6.8-3.1-1.1-1.9-5.9 1.3-5.4 3.3 0.4 3.2 5.3-0.1 5.6-7.9 0.7-2.6-14.1 1.2-7z"  fill="#fff500" /><path d="M-397.9-31.9c3.6 3.3 39.9 31.5 39.4 32.1 0 0-0.4 0.3-0.4 0.2-2.2 0.7-9.5-7-11.4-8.3-9.7-7.4-37.8-30.8-27.6-24z"  fill="#fff" /><path d="M-397.7-53.1c28.8 30.7 119.4 78.2 118.4 126.7-0.1 4.8-7.8 2.9-5.7-1.3 2.1-4.3 8.3 0.6 4.6 3.6-5.6 4.6-9.1-14.6-10.1-16.9-6.6-16.5-16.3-31.7-28.2-44.9-23.1-25.4-53.9-40.9-79.1-63.8-1.3-1.2-2.7-5.6 0.1-3.4z"  fill="#005bbb" /><path d="M-396.5-101.2c24.4 57.9 100.8 76.4 130.2 142.4 2.5 5.6 14.5 29.6 10 34.5-3 3.2-7.8-1.7-4.6-4.6 3.3-2.9 7.6 2.6 4 5-6.4 4.5-8.1-14.4-8.9-17.2-5.7-19.2-14.4-37.4-26.5-53.3-24.9-33-62.7-50.5-90.8-80-7-7.4-13-15.6-17.8-24.6-1.5-2.9 2.7-4.8 4.4-2.2z"  fill="#fff500" /><path d="M-390.6-226.8c-7.1 27.1-4.6 39.4-5.5 77.5-0.7 29.2-3.5 50.1 15.1 72.2 38.4 45.6 93.6 64.7 117.3 123.8 1.8 4.4 12.4 26.4 6.8 29.5-4.5 2.5-6.9-5.7-1.8-6.1 6-0.4 2.8 9.6-1.8 5.7-3.6-2.9-20.1-54.9-30.3-68.8-24.7-33.6-99-69.2-108.9-105.6-6.5-23.9-5-111.7-0.9-128.3 1.7-6.9 11.1-8 10 0.1z"  fill="#005bbb" /><path d="M-382.5-232.7c-13.9 49.2-26.3 108.8 9.5 151.2 25.5 30.2 62.3 48.3 87.4 79.3 6.3 7.8 46.5 71.4 33.4 78.4-4.6 2.4-6.9-5.9-1.7-6.2 6.1-0.3 2.7 9.8-2 5.8-3.6-3.1-20.4-58.8-31-73.6-31.6-44.2-107.6-71.5-114.7-130.6-4.4-35.8-1-72.4 9.6-106.9 1.9-6.3 10.5-3.6 9.5 2.6z"  fill="#fff500" /><path d="M-364.6-398.7c2.1 56.3-27.3 102.6-28.8 142.4-3.5 90.5-3.8 85.4-3.2 153.4 0.1 9.6-3.1 29.8 4.6 38.7 8.7 10.2 19.7 18.4 30.6 26.1 0.9 0.6 2.1 3.7 1.5 2.8-1.3-2.3 3.3 0.3 0.7 0.4-3.5 0.1-12.7-8.8-15.7-11.1-38.4-28.9-24.2-51-25.2-102.9-3.5-177.9 3.1-91.8 24.2-214 1.8-10.1-0.7-28.9 3.8-37.6 2-3.9 7-2 7.5 1.8z"  fill="#c2e1ff" /><path d="M-369.2-108.1c29.5 57.2 91.4 76.8 116.5 146.2 2.2 6.1 13.6 32.8 8.6 37.8-3.3 3.3-8.1-2.2-4.5-5 3.6-2.9 7.8 3 3.9 5.5-6.8 4.3-7.5-14.3-8.2-17.1-5-21.6-13-42.6-24.9-61.5-22.7-36-59.4-57.6-85.7-90.1-2.7-3.4-9.7-10.2-9.9-14.6-0.1-2.5 2.9-2.9 4.2-1.2z"  fill="#c2e1ff" /><path d=""  fill="#005bbb" /><path d="M-350-312.7c-27.5 59.1-67.7 153.3-30.7 215.7 36.1 60.9 100.1 68 126.4 150.8 1.5 4.7 7 16.6 4.9 21.1-2.2 4.8-9.2-0.6-5.2-4 4-3.4 8.1 4.4 3 5.8-6.5 1.8-8.2-20.1-9.4-24.3-6.4-21.3-16.4-41.4-30.3-58.9-41.1-51.8-110.5-74.5-111.2-150.5-0.5-53.1 18.6-113.2 42.4-160.3 3.3-6.5 12.1-2 10.1 4.6z"  fill="#fff" /><path d=""  fill="#fff" /><path d="M-337.1-107.1c38.8 68.4 89.9 89.5 101.4 179.7 0.8 6.5-9.8 3.8-6.3-1.4 3.1-4.6 9.4 2.1 4.7 4.9-7.1 4.2-7.5-16-8.1-18.7-4.4-21.8-11.1-43.2-21.1-63-18.1-35.7-48.6-61.3-70.8-94.1-1.2-1.8-4.3-13 0.2-7.4z"  fill="#005bbb" /><path d="M-337.3-397.3c-22.8 110.1-55.1 113-58.9 248.1-0.5 17.6-4.8 45.3 5.7 62 7.1 11.2 16.4 20.2 26.4 28.9 1.1 1-0.8 2.5-1.4 1.1-1.5-3.2 4.3 0.6 0.8 0.5-9.9-0.3-32.4-29.6-34.9-38.3-2-7.1-1.2-17.2-1.3-24-0.1-10.1 0-20.1-0.1-30.2-0.4-24.7-1.4-49.3-1.6-74-0.4-38.2 42.7-124.1 53.7-166.9 1.3-5 13-21.2 11.6-7.2z"  fill="#fff" /><path d="M-320-128.9c16.5 58.7 66 99 82.9 168.3 1.3 5.5 10.7 34.2 4.3 37-6 2.7-6.4-8.8-0.2-6.5 5.3 1.9 0.3 9.8-3.7 5.8-3.3-3.2-14.7-65-19.1-76.4-15.5-40.5-45-72.2-63.5-111-9.4-19.7-3-22.1-0.7-17.2z"  fill="#fff" /><path d="M-320-396.5c-30 87.4-92 178.5-74.8 275.6 6.9 38.7 43.8 61.7 72 84.3 1.2 0.9 16.1 12.2 12.2 12.7-5.5 0.7 5.2-3.1 0.5-0.1-2 1.3-20.1-16.1-22.8-18.3-66.3-52.2-68.8-57.2-70.1-147.6-0.4-30.8 56-184.1 73.8-211.2 3.5-5.3 10.5-0.9 9.2 4.6z"  fill="#fff500" /><path d="M-301.7-395.6c-35.5 75.9-109.7 187.9-83 275.1 14.9 48.7 66.5 71.5 97.7 108.3 0.2 0.3 10.9 13.9 4.5 11.2-8.4-3.5 9.9-0.2 0.8 0.1-4.6 0.2-23.7-27.1-28.3-31.4-46.1-43.8-93-73-86.7-144.5 5.9-67.8 36.8-128.4 67.4-187.8 5.8-11.3 10.3-27.1 18.3-36.9 4.3-5.3 11.2 0.2 9.3 5.9z"  fill="#005bbb" /><path d=""  fill="#c2e1ff" /><path d="M-287.7-114.9c14.4 52.3 44.5 97.6 55.7 151.5 1.2 6 10.1 37.1 3.9 39.8-5.3 2.2-7-7.1-1.3-6.9 6.7 0.2 2 10.9-2.7 6.1-2.9-3-11.3-60.4-14.1-70.3-6.3-22.6-50.1-105.5-47.4-119.8 0.6-3.3 4.7-3 5.9-0.4z"  fill="#c2e1ff" /><path d="M-277.5-344.9c-38.2 63-97.6 146.1-66.1 223.5 23.6 58.1 78.5 88.9 99.1 155.7 1.2 4.1 10.5 26.5 3.4 27.6-5.2 0.8-4.6-8 0.4-6.5 5.1 1.5 0.9 9.2-3.1 5.7-3.7-3.2-19.9-62.5-26.6-74.4-34.3-61.4-97.8-98.2-88.1-177.1 7.1-58.2 38.5-112.9 70.9-160.7 4.4-6.5 13.2-0.6 10.1 6.2z"  fill="#005bbb" /><path d="M-269.5-277.8c-26.4 57.9-48.6 119-21 180.6 12 26.8 28 51.5 39.2 78.6 3.9 9.4 31.7 95 20.5 95.9-5.7 0.4-4.4-8.9 1-6.9 5.3 2 0.2 9.9-3.8 5.9-3.2-3.2-12.7-63.2-16.1-73.9-19.4-61.3-68.5-113.3-62-181 2.9-30.7 13.4-79.9 32.9-104.8 4.1-5.3 11.1-0.1 9.3 5.6z"  fill="#fff500" /><path d=""  fill="#c2e1ff" /><path d="M-263.8-395.4c-45 72.2-119.8 166.4-100.2 257.7 9.8 45.6 50.1 72.5 78.3 106.4 0.9 1.1 13.9 15.2 7.3 14.6-9.2-0.8 9.5-3.2 0.8-0.1-3.4 1.2-12.8-15-15-17.6-47.2-56.7-93.9-83.2-78.9-167.1 10.7-59.7 42.1-109.4 73.3-160.1 5.5-9 17.5-39.5 27.6-42.6 5.6-1.7 8.9 4.2 6.8 8.8z"  fill="#fff500" /><path d="M-245.4-292.1c-25.1 65.5-50.6 132.8-26.2 202.3 5.1 14.6 60.7 165.6 43.8 166.7-5.7 0.4-4.3-9 1-7 5.4 2.1 0.1 10-3.8 5.9-6.6-6.8-5.7-35.9-7.7-45.6-12.8-65.5-55.9-127.5-52.3-195.4 1.8-33.1 17.2-104.7 35.9-131.8 3.7-5.3 10.7-0.7 9.3 4.9z"  fill="#fff" /><path d="M-237.3-319c-27.1 67.6-64.3 143.7-40.9 217.3 4.9 15.4 68.1 177.6 49.9 178.8-5.7 0.4-4.3-9 1.1-7 5.4 2.1 0.1 10-3.9 5.9-7-7.2-6.3-38.5-8.4-48.9-13.8-66.5-59.7-128.7-54.3-198.1 2.7-34.3 27.5-125.7 47.2-153.1 3.8-5.3 10.8-0.5 9.3 5.1z"  fill="#fff500" /><path d="M-229.4-296.5c-24.9 80.5-43.9 155-20.3 238 3.7 13 36.1 134.9 24.6 135.6-4.2 0.2-5.3-6-1.1-7.2 4.8-1.3 6.5 6.3 1.5 7.2-6.7 1.1-9.4-42.4-10.5-49-11.1-64.1-41.4-126.5-35.2-192.6 2.8-30.5 16.9-111.1 31.8-136.1 3.2-5.3 10.1-1.3 9.2 4.1z"  fill="#005bbb" /><path d="M-221.5-120c-11.2 49.8-3.9 99.2 1.7 149.1 0.7 6.3 8.5 48 1 48.3-5.1 0.2-4.9-7.8 0.1-7.4 5 0.4 4 8.3-0.9 7.3-6.5-1.2-5.1-25.4-5.6-30.6-4.5-44.7-13.2-90.1-10.2-135.2 2.3-34.1 15.1-47.3 13.9-31.5z"  fill="#fff500" /><path d="M-213.4-304.8c-20.6 81.9-41.1 170.1-25.7 254.2 2.3 12.8 25.7 127.6 16.7 128-5.8 0.3-4.2-9.3 1.2-7.1 5.4 2.2-0.1 10.2-4.1 5.9-7.3-7.8-5.5-41.6-7.2-52.6-23.3-153.8-29.4-157.7 5.9-314.7 1.2-5.3 1.6-12.3 4.2-17.2 2.8-5.3 9.7-1.8 9 3.5z"  fill="#005bbb" /><path d="M-205.2-137.4c-18.1 53.1-18.7 101.9-13.4 157.3 0.7 7.2 8.5 56.8 1.3 57-4.3 0.1-5.2-6.3-1-7.3 4.9-1.2 6.5 6.6 1.4 7.3-6.7 0.9-5-12.5-5.3-16-4.3-50.2-13.8-102.2-5.7-152.4 2.4-15 5.2-37.2 13.5-50.3 3.4-5.3 10.4-1.1 9.2 4.4z"  fill="#fff500" /><path d=""  fill="#fff" /><path d="M-194.4-395.4c-38.3 59.6-88.7 209-77.1 278.9 6 36.5 45 113.9 41 144.1-0.8 6.2-10.3 0.9-5.4-3 4.9-3.9 8.1 6.4 1.8 5.9-6-0.5-12.9-45.2-14.9-52-19-64.6-41.3-117.3-25.6-185.8 13.9-60.3 33.8-124.5 62-179.6 2.5-4.9 5-11.8 8.9-15.8 5.1-5.1 11.9 1.4 9.3 7.3z"  fill="#fff" /><path d="M-225.6-395.3c-37.9 59.3-104.4 168.9-100.7 239.7 1.8 33.2 18.7 60.8 37 87.5 1.1 1.6 15.9 20.6 9.4 19.8-9.8-1.2 10.3-3.1 0.9-0.1-3.6 1.2-8.2-9.7-9.7-11.9-34.9-51.7-56-96.6-37.8-159.7 17-58.8 56.5-130.6 90.7-181.6 4.4-6.5 13.3-0.5 10.2 6.3z"  fill="#c2e1ff" /><path d="M-173.6-265.8c-1.7 28.3-1.8 56.6-8.7 84.2-13 52.5-38.6 95.8-37.9 151.6 0.2 14.7 10.5 99.9 6.9 105.5-3.2 5-10.2-2-5.1-5.1 5.9-3.7 8.2 8.2 1.3 6.8-6.7-1.3-5.5-33.3-6.1-39.5-4.8-55.2-9.8-108.9 9.5-162.1 7.6-21 17-41.3 22.7-62.9 6.8-25.7 1.6-55.3 9.1-79.9 1.5-4.9 7.9-3.1 8.3 1.4z"  fill="#c2e1ff" /><path d="M-165.4 47.4c-0.7 5.3 1.3 28-4.6 29.7-6.1 1.7-6.7-8.8-0.5-7.8 5.4 0.9 3.6 9.2-1.6 7.8-13.5-3.7 6.2-54.1 6.7-29.7z"  fill="#fff" /><path d="M-248.6-395.3c-41 63.9-93.2 133.8-103.5 211-4 29.9 13.7 74.8 13.4 77.5-0.6 4.7-7.4-0.6-2.9-2.3 3.8-1.4 3.7 5.6-0.1 4-8.9-3.7-15-30.4-16.9-38.8-18.7-83.6 54.3-191.7 99.9-257.8 4.5-6.5 13.3-0.4 10.1 6.4z"  fill="#005bbb" /><path d="M-149.2 39.7c-1.2 6.6 0.4 33.4-4.4 36.8-5.1 3.6-9.1-5.9-3-7.1 6.1-1.1 5.8 9.2-0.3 7.7-6.7-1.7-5-41 2.2-42.6 3.4-0.7 5.6 2.1 5.5 5.2z"  fill="#fff500" /><path d="M-140.7-190.1c-20.5 59.5-67.3 100.1-71.5 166.1-1.7 26.8 0.2 53.7 2 80.4 0.2 3.3 4.6 23.2-3.8 20.6-4.2-1.3-2.9-7.8 1.5-7.4 4.4 0.4 4.5 7 0.1 7.5-7.8 1-5.7-24.7-6-29.6-2.8-43.9-6.6-90.1 8.6-132.3 4-11.1 55.4-106.4 60.7-111.1 4.3-3.8 9.6 0.9 8.4 5.8z"  fill="#fff" /><path d=""  fill="#fff500" /><path d=""  fill="#fff" /><path d=""  fill="#c2e1ff" /><path d="M-108.7-390c-61.1 53.6-41.3 131.2-58.8 201.3-12.3 49.4-44.4 90.1-48.8 142.1-2 23.3-0.6 46.9 1.1 70.2 0.2 3.2 4.2 20.3-3.8 17.8-4.2-1.3-2.9-7.7 1.4-7.3 4.4 0.4 4.5 6.9 0.2 7.4-6.9 0.9-5.1-14.5-5.4-18.1-11.1-149.5 24-117.9 48.4-224.9 13-57 1.3-116.8 32.9-169.2 5.8-9.7 14.6-24.5 24.7-30.3 7.3-4.2 12.9 5.2 8.1 11z"  fill="#c2e1ff" /><path d="M-100.3-325.8c-29.5 42.3-24 96.7-42.5 143.2-21.1 53-62.8 91.3-68.6 150.7-2.8 28.9-0.7 58.2 1.2 87 0.2 3.6 4.8 24.6-3.8 21.9-4.2-1.3-2.9-7.8 1.5-7.4 5.1 0.5 3.9 8.5-1.1 7.5-6.6-1.4-4.6-26.8-4.9-32.3-9.8-155.5 12.5-115.3 64.6-229.2 18-39.4 16.4-83.6 31.7-123.7 11.4-29.8 28.8-32.1 21.9-17.7z"  fill="#c2e1ff" /><path d="M-92.9-74.4c-33.1 26.3-62.9 53.7-74 96-2.4 9.1-2.1 50.9-7.9 54.9-6.2 4.2-9-8.4-1.6-7.3 6.3 1 2.4 10.8-2.9 7.3-18.4-12.4 19.1-135.2 79-163 7.9-3.7 12.9 6.5 7.4 12.1z"  fill="#fff" /><path d="M-86.3 57.1c0.8 3.3 7.3 15.5 4.1 18.1-3.2 2.6-6.2-3.5-2.2-4.5 3.4-0.9 4.5 4.6 1 5.1-12.1 1.7-7.5-29.3-2.9-18.7z"  fill="#005bbb" /><path d="M-76.2-225.3c-38.2 72.2-110.9 130.5-124.8 184.1-7.8 30.1-6.9 62-5.6 92.8 0.2 3.9 4.8 28.1-3.9 25.1-4.2-1.4-2.8-7.9 1.6-7.4 4.4 0.5 4.4 7.1 0 7.6-7.4 0.8-5-17.7-5.2-21.6-2.4-48.8-4.2-100.6 21.3-144.3 27.4-46.7 72.3-79.3 98.8-127.3 2.5-4.6 5.4-15.1 10.8-17 5.3-2 8.8 3.5 7 8z"  fill="#fff" /><path d="M-173.2-395.4c-44.4 64.3-53.8 177.2-64.5 253.9-1.2 8.7 1.4 49.2-4.3 53.5-4.9 3.7-9.1-5.6-3.1-6.8 6-1.3 5.9 8.9-0.1 7.5-12.2-2.8 1.1-72.8 2.8-82.9 12.5-72.5 17.1-155 52.7-220.8 8.2-15.1 23.4-18.7 16.5-4.4z"  fill="#fff" /><path d="M-60.5-133.7c-42.6 38.3-102.5 60.9-122.7 118.8-4.9 14.2-10.7 90.6-10.7 90.8-4.3 5.9-11.1-4.8-4-6.1 7.2-1.4 4.8 11.1-1.3 7.2-7.6-4.9-1.7-44.3-1-52.8 2.9-35.4 13.2-69.1 37.5-95.8 18.6-20.5 70-61.1 94.4-73.6 7.6-3.9 12.8 5.9 7.8 11.5z"  fill="#005bbb" /><path d=""  fill="#c2e1ff" /><path d="M-44.1-167.6c-42.6 49.3-117.1 75.1-141.9 138.3-7.3 18.7-11.3 103.9-12.2 105.1-4.2 5.9-11.1-4.6-3.9-6.1 7.1-1.4 4.8 11-1.3 7.2-7.5-4.7-2.4-44.1-2-52.7 1.7-35.1 9.4-69.8 31.6-97.9 22-28 53.5-46 81.3-67.5 13.9-10.7 25.6-26.6 39.8-36.2 6.6-4.5 12.6 4 8.6 9.8z"  fill="#c2e1ff" /><path d="M-39.3 43.9c5.2 8.4 11.6 16 18.6 22.9 1.3 1.3 8.4 5.3 6.3 7.4-1.4 1.4 1.5-1-0.2 0.2-2.3 1.5-6.3-4.5-7.8-5.9-26.2-24.2-18.1-26-16.9-24.6z"  fill="#c2e1ff" /><path d=""  fill="#fff" /><path d=""  fill="#fff" /><path d=""  fill="#c2e1ff" /><path d="M-4.1-313.8c-52.4 46.6-65.8 91.7-105 145.1-30 41-75 71.7-90.2 122.1-7.7 25.7-3 113-7 118.8-4 5.9-11-4.3-4-5.8 7-1.5 5 10.7-1.1 7-6.6-4-3.5-36.7-3.7-44.2-3.1-125.7 41.7-127 103.8-216.1 32-46 50.8-94.6 93.3-133.1 7.4-6.7 23.3-4.5 13.9 6.2z"  fill="#c2e1ff" /><path d="M4-88.1c-8.2 34.9-1.3 67.5 25.4 92.3 19.3 17.9 69.6 40.2 75 68.7 0.7 3.6-5.4 3.4-4.5-0.2 1-4.1 7.1 0.2 3.5 2.5-1.2 0.7-26.2-31-30.5-34.8-28-24.7-64.9-41.3-76.7-79.6-4.3-14.1-7.7-37.8-1.2-51.8 2.4-5.2 9.3-2.2 9 2.9z"  fill="#fff500" /><path d="M-37.1-392.2c-109.5 69.1-75.8 91.7-107.1 197.3-10.5 35.5-33.3 63.9-49.8 96.4-6.4 12.7-8.1 29.4-15.1 41.2-4.5 7.6-13.8-4.5-5.4-6.9 8.4-2.4 6.9 12.8-0.8 8.7-18.8-9.8 42.8-101.8 49.4-114.7 30.7-59 15.6-132.4 58.9-185.9 14.7-18.1 40.8-42.2 63.5-49.6 8.7-2.9 12.7 8.4 6.4 13.5z"  fill="#005bbb" /><path d="M20.1-391.1c-30.9 32.1-75.8 48-102.7 84-26 34.8-28.2 79.9-45.1 118.9-15.4 35.8-42.9 63.3-61.8 96.9-7.6 13.6-20.4 72.9-21.6 74.3-5.2 6-11.5-6.2-3.7-7 7.8-0.8 4 12.4-2.1 7.5-4.1-3.2-1-13.7-0.6-17.8 5.3-51.6 34.1-86.4 62-127.7 33.4-49.4 32.3-114.1 69.1-160.8 9-11.5 88.9-76.5 99.9-79.7 7.2-2.1 10.7 6.3 6.6 11.4z"  fill="#005bbb" /><path d="M-41.2-392.1c-131.7 82.1-65.2 146.7-132.6 257.8-4.5 7.3-26.1 53.7-33.2 50.3-7.7-3.6 0.9-14.7 6.3-8.2 5.5 6.5-7 13-9.2 4.8-4.6-16.9 27.8-55.5 36-69.7 34.3-59.2 20.5-132.4 57.4-189.3 14.4-22.2 43.1-50.9 69-59.3 8.8-2.8 12.7 8.5 6.3 13.6z"  fill="#c2e1ff" /><path d="M32 23.4c6.4 4.9 65.7 43.5 59.3 51.5-1.6 2-4.7-0.7-2.9-2.6 1.8-1.8 4.6 1.2 2.6 2.9-2.5 2-17.2-17.9-19.9-20.5-8.7-8.1-40.6-32.2-39.1-31.3z"  fill="#005bbb" /><path d="M40 41.4c7.7 5.3 38.3 21.9 38.9 31.9 0 0.4-0.2 0.9-0.4 1.3-2.4 2.4-13.3-11.9-15.6-14-7.4-6.6-31.7-23.8-22.9-19.2z"  fill="#fff" /><path d="M6.7-393c-44 39.2-97.8 56.3-117.2 117.7-8.8 28.1-11.9 57.6-22.5 85.2-4.9 12.7-56.7 107.4-67.1 101.5-7.7-4.5 2.3-15.4 7.4-8.2 5.2 7.3-8.5 13-10.1 4.3-3.3-18 34.4-56.6 43.8-71.5 32.4-51.5 27.1-117.9 63.7-166.5 19.2-25.5 65.6-60.1 94.4-74.2 7.7-3.8 12.8 6.1 7.6 11.7z"  fill="#c2e1ff" /><path d="M60.4-177c-10 45.5-19.2 92.2 6.3 134.5 16.7 27.7 71.1 82.8 67.3 116.2-0.6 5.2-8.9 2.4-6.2-2.1 3.2-5.3 9.7 3.3 3.8 4.9-2.8 0.8-19.7-47.3-23.4-53.7-23.3-40.8-61.5-71.4-66.1-120.9-2.2-23.3-1.2-60.5 9.3-82 2.6-5.2 9.4-2 9 3.1z"  fill="#fff500" /><path d="M68-129.8c-6.2 81.8 76.6 163.4 70.2 203.8-1 6.4-10.7 0.6-5.6-3.3 4.4-3.4 8.3 4.9 2.9 6.1-4.5 1-15.1-44-17.8-50.4-17.7-41.6-49.6-76.9-56.6-122.8-5.5-36.3 5.7-49 6.9-33.4z"  fill="#005bbb" /><path d="M76.7-341.1c-26.5 70.9-61.1 152-111.7 209-33.6 37.8-81.6 60.6-112.9 100.2-10.1 12.8-17.5 27.3-22.2 42.9-1.2 4-2.8 24.7-11.1 19.5-5.3-3.3 0.4-11.5 5.3-7.6 4.9 3.9-1.6 11.4-6.1 7-6.1-6 5.1-31.5 7.6-38.3 25.5-66.6 99.6-94.4 142.6-147.5 32.3-40 52.6-88.2 74.4-134.3 6.8-14.3 14.2-46.7 25.7-56.8 4.4-3.8 9.7 1 8.4 5.9z"  fill="#c2e1ff" /><path d="M79.4-396.9c-16.8 51.3-123 195.9-162.5 237.3-24.8 26.1-55.3 46.1-79.9 72.3-9.8 10.4-15.3 25.1-24.8 35-7.1 7.4-14.5-8.9-4.2-9.4 10.3-0.5 4.4 16.4-3.4 9.7-7.5-6.5 9.9-27.7 14-33.2 32.5-44.6 83.1-72.2 116.9-116.2 33.4-43.4 100-126.6 122.6-172 3.1-6.2 8.1-28.3 15-30.2 4.3-1.2 7.1 2.9 6.3 6.7z"  fill="#fff500" /><path d="M89.3 65c1.3 1.5 9 8.2 5.2 10.4-2.4 1.4-4.4-2.5-1.9-3.6 2.5-1.1 4.1 2.9 1.5 3.8-6.6 2.2-9.1-15-4.8-10.6z"  fill="#fff500" /><path d="M97.5 59.9c1.8 2.2 12.4 13.4 7.3 15.8-2.9 1.4-4.8-3.3-1.7-4.3 3-1 4.4 3.8 1.2 4.5-7.4 1.7-11.4-21.1-6.8-16z"  fill="#fff" /><path d="M106.1 69.9c0.9 1.5 3.1 6.8-1.3 5.8-11.4-2.5 12.4-2.5 1 0-6.5 1.4-3.6-11.4 0.3-5.8z"  fill="#005bbb" /><path d="M114.2 7.9c6.5 12.1 30.8 53.7 23.6 67.4-2.6 4.9-9.6-1-5.2-4.4 4.4-3.4 8.3 5 2.9 6.2-6.4 1.4-8.9-25.6-10.4-30.5-1.2-3.8-19.3-51.2-10.9-38.7z"  fill="#fff500" /><path d=""  fill="#fff500" /><path d="M132.4-204.7c-3.2 63.8-20.6 122-6.3 186 2.2 10 25.4 95.8 15.9 96-4.3 0.1-5.3-6.3-1.1-7.3 4.9-1.3 6.5 6.6 1.5 7.3-6.5 0.9-8.7-36-10-42.1-28.9-137.6-18.6-105.5-8.6-238.1 0.5-6 8.2-9.2 8.6-1.8z"  fill="#fff" /><path d="M140.5-199.7c-3.6 62.6-23.5 119.3-11.5 182.5 1.9 10 22.8 94.1 13.7 94.4-4.4 0.1-5.3-6.4-1.1-7.4 5-1.2 6.5 6.7 1.5 7.4-6.8 0.9-8.1-34.5-9.3-40.3-26.8-140.1-13.5-104.4-2-234.9 0.5-6.1 8.4-9.2 8.7-1.7z"  fill="#fff" /><path d=""  fill="#c2e1ff" /><path d="M155.9-309.4c5.7 45.7 12 92.7 4.7 138.5-7.5 46.7-27.8 89.7-26.1 137.8 0.4 11.9 16.6 110.2 9.9 110.2-6.1 0.1-4-9.8 1.5-7.3 6.5 2.9-2.4 11.5-5.1 4.9-4.8-11.7-3.1-30.8-5.1-43.5-17.9-111.5 0.7-110.1 16.9-210.2 2.9-18-3.5-131.6-3.2-132 2-2.9 5.8-1.4 6.5 1.6z"  fill="#fff" /><path d="M164.7 48.4c-0.6 5.7 1.1 28.1-5.6 29.4-6.7 1.3-6.4-10.1 0.2-8.4 5.7 1.4 3 10.3-2.5 8.2-12.5-4.6 7.4-52 7.9-29.2z"  fill="#fff" /><path d="M173.3 10.5c-3.1 8.7-9.9 68.1-15.2 67.4-5.8-0.8-4-9.9 1.6-8.5 5.7 1.5 2.9 10.3-2.5 8.2-7.8-2.9 1.4-65.9 7.6-72.2 4-4 9.4 0.3 8.5 5.1z"  fill="#fff" /><path d="M181.6-25c-15.4 23.5-21.7 100-22.6 101-5.1 6-11.5-6.1-3.7-6.9 6.7-0.7 5.4 10.4-0.9 8.2-6.6-2.3-1.9-23.7-1.6-29 1.4-27 4.3-55.5 18.6-79.3 4-6.7 13.1-0.8 10.2 6z"  fill="#fff" /><path d="M189.5 55.7c-1.8 4.9-4.3 25-12.4 22.3-6.4-2.1-2.5-12 3.6-9.1 5.2 2.4 2.5 10.5-3.1 9.3-8.6-1.8-0.2-24.6 3.4-28 4.2-3.9 9.5 0.6 8.5 5.5z"  fill="#fff500" /><path d="M196.1-260.5c5.9 40.5 10.8 82.3-2.6 121.9-13.8 40.5-41 74-45.5 117.8-1.5 14.7 6.2 92.1 2.9 96.7-4.3 6-11.2-4.8-3.9-6.2 6.2-1.2 5.9 9.2-0.3 7.7-6.5-1.6-4.2-28.6-4.6-34.3-10.5-130.2 16.4-98.7 45.7-197.7 12.9-43.7-2.4-69.5 1.3-105.8 0.4-4.3 6-3.8 7-0.1z"  fill="#fff" /><path d="M205.6-69.7c-26 29.4-43.4 57.6-46.5 97.6-0.6 8.2 3.2 44.8-3.4 48.9-5.6 3.5-9.3-6.8-2.7-7.6 6.5-0.8 5.6 10.1-0.7 8.1-6.9-2.2-2.2-33.4-2.1-39.7 1.2-41.7 11.8-76.5 39.2-108.6 7.2-8.5 26.5-13.7 16.2 1.3z"  fill="#fff" /><path d="M212.1-280.6c7.5 44.3 21.7 93.4 11.5 138.3-11.7 51.5-59.3 84.1-67.5 137.5-1.9 12.4 1 76.4-2.2 80.6-3.9 5.1-10.8-3.1-5.1-6 6.7-3.5 8 9.5 0.8 7.5-6.5-1.8-3.1-23.4-3.2-28.6-0.9-36.1-1.1-71.6 15.5-104.7 15.5-30.8 42.4-55 52.2-88.7 13.2-45.3-14.9-126.6-8.3-137.1 1.8-2.9 5.5-1.6 6.3 1.2z"  fill="#005bbb" /><path d=""  fill="#fff" /><path d="M233.7-399.4c28.5 49.6 20.4 106.9 38.3 159.6 26.3 77.5 96.8 127.7 106.5 212.6 0.7 6.3 6.8 39.5-0.3 41.6-7 2.2-6-10.5 0.5-7.2 5.6 2.7-0.8 10.8-4.7 6-5.4-6.6-2-30.9-2.9-39.7-2.2-24.4-7.8-48.2-18.4-70.3-23.6-48.9-64.7-86.9-84.8-137.9-18-45.7-12.4-95.9-29-141.7-8.5-23.5-8.2-27.2-5.2-23z"  fill="#005bbb" /><path d="M236-346.7c10 39.1 11.2 79.6 23.8 118.2 16 48.9 52.7 99.7 39.5 153.3-10.1 40.9-45.7 61.5-74.1 88.7-6.8 6.5-32.6 52.1-37.9 51.6-9.7-0.9-2.1-16 4.4-8.7 5.5 6.3-6.6 13-8.9 5-10.4-35 103.3-101.2 110.4-154.9 7.3-54.8-33.5-107.9-46.8-159.3-6.2-24.1-9-48.8-13-73.3-0.9-5.5-5-15.4-3.6-20.7 0.9-3.4 5.2-2.8 6.2 0.1z"  fill="#005bbb" /><path d="M244-356.8c12.2 43.3 10.4 88.6 26.8 131.1 39.1 100.7 109 145.3 40 258-4.6 7.5-18.6 39.8-27.2 40.7-10.6 1.1-5.6-16.7 2.9-10.3 8.4 6.5-7.4 15.9-9.1 5.5-2-12.2 20.5-37.6 26.8-47.9 18.4-30.1 33-62.3 28.8-98.4-7.2-61.7-57.1-109.6-75.3-168-3.8-12.2-22.6-105.4-19.6-111.4 1.4-2.7 4.9-1.8 5.9 0.7z"  fill="#fff500" /><path d="M251.9-210.9c10.1 34.5 23.7 71.5 13.1 107.6-14.3 48.7-68 67.6-87.3 113.2-4.6 10.9-7.8 63.3-15.2 67.2-6.1 3.3-9.3-7.8-2.3-8.2 7-0.4 5.1 11-1.4 8.4-6.4-2.5-1.3-18.4-0.8-23.2 11.8-106.4 66.3-89.9 95.7-157.1 14.7-33.6-10.2-102.5-7.5-108.3 1.3-2.7 4.6-1.9 5.7 0.4z"  fill="#fff500" /><path d=""  fill="#c2e1ff" /><path d="M270.1 44.9c-5 6.1-20.8 35.9-28.4 34-8.9-2.2-2.1-15.9 5-10.1 6.1 4.9-2.2 14.2-7.7 8.6-6.5-6.5 16.6-39.1 23.5-42.2 6.4-2.9 10.7 4.5 7.6 9.7z"  fill="#fff" /><path d="M278-93.4c-12.7 48.3-64.2 65.2-88.4 105.6-8.8 14.7-13.5 31.2-16.6 47.8-0.7 3.8-0.9 22.6-9.3 17.6-4.6-2.7-1.3-9.9 3.8-8.3 5.9 2 2.3 11.1-3.4 8.5-7.1-3.2 1-26.7 2.2-32.2 12.8-60.2 49.1-72.8 85.3-114.5 7.3-8.4 10.6-22.7 18-29.8 4.1-3.9 9.3 0.6 8.4 5.3z"  fill="#fff500" /><path d="M285.1-303.2c0.7 31.2 7.5 61.3 24.5 87.8 27.7 43.2 74.5 68.1 106.6 107.4 32.8 40.2 49.7 90.8 79.6 133.1 3.3 4.7 35 43.7 33.7 44.7-0.6 0.4-1.6 0.3-2.2-0.2-33.5-38.3-59.2-78.9-82.5-123.9-45.2-87-110.6-107-147.5-173.4-12.7-22.8-19.4-49.1-20-75.1-0.1-5.2 7-5.2 7.8-0.4z"  fill="#005bbb" /><path d="M294.2 2.2c-45.5 55.3-63.9 76.8-65.3 76.9-9.1 0.9-7.2-14.1 1.4-11.1 8.6 3 0.6 15.9-5.9 9.5-11.7-11.3 50.4-77.2 61.1-84.8 6.4-4.6 12.5 3.6 8.7 9.5z"  fill="#fff500" /><path d="M302.8-399.1c22.8 70.9-28.7 123.6 32.2 194.9 27.2 31.8 64.7 52.6 91.3 84.9 7.4 8.9 64.2 102.4 57.6 105.6-3.2 1.6-4.6-4.2-1.1-4.3 4.2-0.1 1.6 6.8-1.4 4-16.3-14.8-31.2-62.3-44.1-83.3-35.7-58-108.1-85.7-133.8-150.2-17-42.7-3-84-4-127.8-0.2-6.8-4.2-17.4-2.7-23.7 0.8-3.3 5-2.8 6-0.1z"  fill="#c2e1ff" /><path d="M326.7-399c8.9 69-39.9 119.1 11.5 185.9 39.7 51.6 89 71.2 121.4 134.5 2 3.9 16.5 27.9 11.8 29.9-3.6 1.5-4.8-4.9-0.9-4.7 3.9 0.2 2.3 6.5-1.2 4.7-10.9-5.6-22.7-45.1-29.7-56.5-35-56.5-107.8-84.4-129-149.8-13.8-42.7 3.2-82.1 8-124.3 2-17.7 5.9-31.6 8.1-19.7z"  fill="#c2e1ff" /><path d="M318.5-2c-5.8 10.5-53.9 85.3-61.5 80.6-6.6-4.1 0.5-14.2 6.6-9.4 6.1 4.8-2 14.1-7.6 8.6-7.5-7.4 44.4-81.7 54.4-87.8 5.5-3.4 10.4 2.8 8.1 8z"  fill="#c2e1ff" /><path d="M323.6-129.1c33.8 64.1 17.9 118.1-15.8 177.8-3.4 5.9-12.3 31.4-20.2 30-8.7-1.5-3.2-15 4-10 8.5 5.8-6.4 15.8-8.5 5.7-2.1-9.7 44.5-85.5 49.6-106.1 5-20.3 4.9-41.3-0.4-61.6-3.1-11.7-10.6-22.7-13.2-34.2-0.6-2.9 3.1-3.8 4.5-1.6z"  fill="#fff500" /><path d="M334.5 28c-3 7.5-17.6 53.9-26.1 50.4-6.5-2.7-1.7-12.8 4.5-9.4 6.2 3.4 0.3 12.9-5.5 8.8-6.6-4.6 12.9-51.1 18.7-55.9 4.5-3.8 9.8 1.2 8.4 6.1z"  fill="#fff" /><path d="M340.6-254.9c11.8 54 68.4 81.9 99.2 123.7 34.2 46.3 48.7 103.8 81.5 151.3 3.9 5.6 41.9 53.8 40.6 54.7-1.8 1.3-3.7-1.6-1.8-2.7 1.9-1.1 3.5 2 1.5 2.9-2.4 1.1-5.2-4.4-6.1-5.5-42.8-51.4-69.8-104.7-99.1-164.3-27.6-56.2-77.4-81.8-109.2-131.4-4.7-7.3-12.4-18.8-12.7-27.7-0.1-3.8 4.8-4.1 6.1-1z"  fill="#fff500" /><path d="M350.7-315.9c-40.6 86.1 51.3 129 92.7 188.4 30.3 43.5 44.3 96 73.4 140.4 9.9 15 20.8 29.2 32.2 43.1 1.2 1.5 11.3 10.4 6.8 11.8-6.2 2 6.1-2.7 0.2 0-3.3 1.5-13.5-14.5-15.5-17-34.3-42.3-56.6-88.1-79.4-137.2-33.5-72-114-118.3-126.4-172.8-3.9-17.3-4.7-46.8 6.6-62 3.9-5.3 11-0.4 9.4 5.3z"  fill="#c2e1ff" /><path d=""  fill="#c2e1ff" /><path d="M362.4-162.8c79.1 66.4 79.1 102.6 132 180.5 4 5.8 43.8 56.4 43.1 56.9-0.3 0.3-0.8 0.4-1.2 0.3-21.9-4.5-89-133.4-103.5-157.7-17.5-29.6-40.8-52.6-66.9-74.5-1.7-1.4-5.3-6.7-3.5-5.5z"  fill="#fff500" /><path d="M372.6-243.9c10.9 42.2 52.2 70.2 75.3 105.4 32.1 49.1 45.4 107.6 78.4 156.6 3.9 5.8 42.7 55.8 41.4 56.7-1.8 1.3-3.8-1.7-1.8-2.7 2-1.1 3.6 2.1 1.5 2.9-3 1.3-6-5.5-7.4-7.1-43.2-53-69.7-107.1-97.4-169.1-21.1-47.2-58.9-77.5-85.5-120.3-13.6-21.9-6.9-27.8-4.5-22.4z"  fill="#fff500" /><path d="M379.4-103.1c28.9 39.5 40.6 87.1 62.4 130.4 2.7 5.3 27.9 46.5 26 47.7-2.7 1.6-4.3-3.3-1.2-3.7 3.1-0.3 2.5 4.8-0.4 3.8-12.9-4.3-48.1-88.6-54.5-104.5-9.8-24.8-26.3-47.6-35.6-71.9-0.8-2.2 2-3.3 3.3-1.8z"  fill="#c2e1ff" /><path d="M389.5 43.6c0.5 4.8 7.7 32.3 1.3 33.1-4.6 0.6-5.1-6.6-0.5-6.7 4.6-0.1 4.4 7.2-0.2 6.7-5.6-0.5-9.1-29.8-7.6-34 1.4-3.7 6.1-2.5 7 0.9z"  fill="#005bbb" /><path d="M388.7-395.3c-28.6 51.4-75.3 104.6-41.7 165.6 19.7 35.8 56.5 57.6 82.6 88 26.9 31.3 41 69.7 58.8 106.4 0.5 1.1 5 7.8 0.3 8.1-3.3 0.3-3.4-4.9-0.1-4.8 2.8 0.1 3.2 4.2 0.4 4.8-5.9 1.1-45-88.9-51.9-99-35.3-51.8-108.6-83.7-110.1-153.9-0.7-35.4 27.9-96.6 52.5-122.2 4.9-5.1 11.7 1.1 9.2 7z"  fill="#c2e1ff" /><path d=""  fill="#fff" /><path d="M411-167.9c51.2 49.8 66.6 117.2 103.9 175.9 4.3 6.8 48.9 66.2 48.3 66.6-2.1 1.5-3.8-2.4-1.3-2.9 2.2-0.4 2.7 3 0.5 3.2-4 0.4-13.8-15.6-16.3-18.6-17.9-21.9-34.8-44.5-48.7-69.2-13.8-24.6-24.3-50.8-36.1-76.4-12.3-26.6-27.4-51.1-47.8-72.3-1.6-1.6-4.3-7.7-2.5-6.3z"  fill="#fff" /><path d="M419.2-133c40.5 42.8 56.6 101.9 89.5 150 4 5.9 44.3 56.9 43.4 57.6-0.3 0.3-0.9 0.4-1.3 0.3-20-4.3-79.6-113.4-90.2-135.2-11.9-24.4-24.4-48.2-42.1-68.9-1.2-1.4-2.3-6.4 0.7-3.8z"  fill="#005bbb" /><path d="M427.6-115.1c33.7 42.1 50.1 95.3 81.4 139.2 3.7 5.2 39.7 49.4 38.5 50.4-0.1 0.1-0.7 0.3-0.7 0.3-3 0.4-7.1-7.1-8.8-9.1-29.1-33.8-53.8-69.2-73.9-109-12.1-24-24.1-47.5-39.3-69.6-1.3-1.9 1.3-3.7 2.8-2.2z"  fill="#c2e1ff" /><path d="M436.4-200.1c11.3 23.2 24.6 45.2 34.5 69.2 19.8 48 32.1 97.9 60.1 142.2 12.1 19.2 37.7 40.8 45.1 61.7 1.1 3-4.5 2.8-3.1-0.1 1.3-2.9 5.2 1 2.2 2.3-3.5 1.5-17.4-20.1-19.8-23.3-39.7-51.2-61.7-104.7-83.6-165.1-7.2-20-15.7-39.5-25.6-58.3-2.9-5.5-15.8-22.2-14.3-28.1 0.6-2.3 3.3-2.2 4.5-0.5z"  fill="#fff500" /><path d="M410.4-394.5c-36.5 44-89.2 96.1-61.1 158.3 23.4 51.8 85.2 82.4 116.3 147.1 1.8 3.7 8.1 12.7 7.2 16.9-1.1 4.7-7.9-0.1-3.9-2.7 3.4-2.2 5.8 4.1 1.8 4.6-4.1 0.6-29.6-54.3-34.4-61-35-50.3-107.2-84-102.8-154.1 2.8-45.4 37.4-85.5 67.1-117.4 5.8-6.2 14.3 1.5 9.8 8.3z"  fill="#c2e1ff" /><path d="M454.7-332.3c-98.9 76.2-40.4 111.5 3.7 193.5 20.3 37.8 31 79.7 50.2 117.9 10.5 21.1 23.3 40.8 37.3 59.7 1.6 2.1 15 16.2 10.6 17.6-6.6 2 6.5-2.7 0.1-0.1-8.7 3.6-48.7-68.1-53.2-76.8-19.1-37.1-29.9-77.7-48.6-115-19.8-39.5-62.6-76.3-63.8-122.7-0.6-25.6 30.6-81.9 58.1-86.9 7.8-1.4 10.6 7.9 5.6 12.8z"  fill="#005bbb" /><path d="M460.7-156.1c28.1 57.8 39.9 121.1 75.8 175.3 4.8 7.2 40 51.2 40.1 54.4 0.1 3.2-5.1 1.2-3-1.2 1.8-2 4.5 1.7 2 2.8-4.6 1.9-32.7-40.2-36.5-45.5-38.1-53.1-52.6-112.7-77.7-171.8-0.5-1.2-6-22.5-0.7-14z"  fill="#fff500" /><path d=""  fill="#c2e1ff" /><path d="M479.4-260.3c-22.4 56.3 25 209.9 55 262.3 11.7 20.5 25.6 39.6 39.7 58.3 1.4 1.8 13.2 13.6 8.3 15-2.3 0.6-3.1-3.1-0.7-3.4 2.4-0.4 2.8 3.4 0.4 3.5-4.1 0.2-14.7-18-17.4-21.6-47.4-63.2-68.7-127.6-86.9-203.5-6.3-26.3-14.3-53.3-13.8-80.7 0.2-8.8 0-28.9 6.9-35.4 4.2-4 9.5 0.6 8.5 5.5z"  fill="#fff500" /><path d="M485.4-108.9c15.9 51.1 32.9 98.7 64.2 142.6 5.8 8.1 29.4 30.3 29.6 39.7 0 3.2-5.2 1.2-3.1-1.2 1.9-2 4.5 1.7 2 2.8-4 1.6-24.4-29.5-27.5-33.6-32.6-43.9-53.2-90.5-69.1-142.6-1-3.2 0.3-15.8 3.9-7.7z"  fill="#005bbb" /><path d=""  fill="#fff500" /><path d="M503.6-327.8c-19.6 23.2-43.6 47.3-49.6 78.2-7 35.9 44.4 184.5 61.6 222.8 13 28.7 30.5 54.7 49.5 79.7 1.9 2.5 18.3 21.2 14.2 22.4-2.3 0.7-3.1-3-0.8-3.4 2.3-0.4 2.8 3.3 0.4 3.5-4.1 0.3-14.8-17.9-17.5-21.4-46.4-60.8-66.8-123.4-89.8-195.3-10.8-33.8-29.3-69.1-26.9-105.4 2-30.4 25.2-72.4 50.2-90.5 6.4-4.6 12.6 3.5 8.7 9.4z"  fill="#005bbb" /><path d="M510.6-140.1c1.3 59 16.6 114.2 48.3 164.1 6.5 10.3 34.3 38.3 34.1 49.6-0.1 3.4-5.6 1.1-3.2-1.3 2.1-2.1 4.7 2 2 3-4.1 1.5-22.1-28.2-24.9-32.3-30.4-43.6-52.6-89.6-60.4-142.7-1.7-12-6.1-29.1-3.6-41.1 1-4.7 7.1-3.5 7.7 0.7z"  fill="#fff" /><path d="M519.1-162.6c-7.5 61 5.7 123.1 36.7 176.1 4.8 8.3 40.1 56.6 40 60.2-0.1 3-4.8 1.8-3.6-0.9 1.5-3.1 5.6 1.4 2.4 2.6-4.4 1.6-24.7-32.4-27.8-37-32.6-48.2-53.8-99.4-57.1-157.9-0.7-13.1-3.5-32.4 0.9-45 1.8-5.1 8.4-2.9 8.5 1.9z"  fill="#c2e1ff" /><path d="M527.4-171.1c-14.1 63.4-0.6 130 31.8 185.7 4 6.8 37.5 60.4 37.1 60.5-2.1 0.5-3.2-2.5-1.3-3.5 2.3-1.1 3.9 2.6 1.5 3.4-3.6 1.3-7.6-8.2-9.1-10.4-40.5-57-72-115.2-73.2-186.8-0.2-15-2.1-37.9 4.3-51.8 2.4-5.2 9.3-2.2 8.9 2.9z"  fill="#005bbb" /><path d="M535.7-380.6c-38.5 42.1-116 94.4-99.6 159.4 1.1 4.4 72.5 187.3 77.2 197.4 3.8 8.1 20.6 28.8 20 36.9-0.3 3.8-6.2 0.9-3.4-1.7 2.8-2.5 5.1 3.7 1.3 3.6-11-0.3-30.4-48.1-50.4-109.3-15.3-46.9-64.6-128.2-52.9-174.1 6.5-25.6 76.7-107 99.3-122.1 6.7-4.5 12.7 4.1 8.5 9.9z"  fill="#fff500" /><path d="M544-252.5c-37.7 73.3-38.9 162-4.6 237.2 11.6 25.5 27.2 48.9 43.4 71.8 1.6 2.3 15.2 17.4 10.2 18.6-2.4 0.6-3.2-3.3-0.7-3.6 2.5-0.4 2.8 3.6 0.3 3.7-3.8 0.1-10.7-13.4-12.9-16.5-49.8-69.6-80.7-144.2-71.6-231.6 2.7-25.6 9.2-65.4 26.5-85.7 4.5-5.3 11.4 0.4 9.4 6.1z"  fill="#fff500" /><path d="M471.5-392.8c-43.4 35.4-122.4 72.2-110.1 140.4 9.7 53.7 80.3 87.3 88.6 123.2 1.1 4.5-7 1.9-3.5-1.1 3-2.6 5.3 3.9 1.3 3.7-4.8-0.2-19.8-27.3-23.7-31.9-33.5-40-85.9-77.8-68.5-137.4 10.7-36.6 74-93.1 108.5-109 7.9-3.6 12.8 6.5 7.4 12.1z"  fill="#c2e1ff" /><path d="M556.3 64c1.4 1.7 9.7 8.4 6.6 10.6-1.8 1.3-3.7-1.6-1.8-2.7 1.9-1.1 3.5 2 1.5 2.9-6.7 3-10.7-15.1-6.3-10.8z"  fill="#fff" /><path d="M568.2-204c-34.7 54.9-39.3 123.4-15.8 183.6 9.4 24 22.5 46.3 36.6 67.8 1.4 2.2 14.9 18.6 9.9 19.7-2.6 0.6-3.3-3.5-0.6-3.8 2.3-0.3 3 3.1 0.8 3.7-3.3 1.1-6.7-7.2-7.8-8.9-38.3-56.5-68.1-117-60.4-187.2 2.7-24.4 9.8-63.7 28-82.1 5.1-5.1 11.9 1.3 9.3 7.2z"  fill="#005bbb" /><path d="M576.1-147.1c-18.9 44.3-16.7 93.6 0.8 138 2.4 6.1 23.8 50.2 21.9 50.5-3.4 0.5-3.1-5.2 0.3-4.3 3.9 1.1-0.4 6.7-2.5 3.2-26.9-45.4-47.2-95-40.8-148.7 5.4-45.4 24.5-55.1 20.3-38.7z"  fill="#fff500" /><path d="M584.2-266.6c-47.7 70.9-73.7 145.6-45.5 230.4 11.3 34.1 30.7 64.7 50.9 94.1 2 2.9 11.8 13.3 10.6 16.5-1.2 3.3-5.8-0.8-2.6-2.4 2.7-1.3 3.9 3.5 0.9 3.6-5.9 0.1-21.8-29.8-25.4-35.1-40.6-61-64.2-129.3-50.6-203.2 6.4-35 25.4-87.1 52.6-111.8 5.5-5 12.1 2 9.1 7.9z"  fill="#c2e1ff" /><path d=""  fill="#c2e1ff" /><path d="M517.5-393.3c-37.9 35.4-129.8 83.6-127.4 140.1 1.8 44.7 44.8 78.7 65.6 115.3 0.5 0.9 9.4 14.5 2.4 12.9-10.5-2.5 11.1-5.6 1.8-0.3-3.5 2-5.4-5.2-6.3-6.8-25.1-48.5-90.3-97.2-66.3-157.9 9.5-24 100.4-102.3 122.2-114.4 7.4-4.1 12.8 5.4 8 11.1z"  fill="#c2e1ff" /><path d=""  fill="#fff500" /><path d="M603.8-166.3c-25.9 38.6-33.8 86.6-23.2 131.6 2.1 9 21.1 52.2 20.5 55.7-0.8 4.4-7.4 0.3-3.8-2.4 3.6-2.6 5.5 4.9 1.1 4.4-4.4-0.6-8.4-14.6-10.1-18.3-23.1-51.2-28.3-108.2-3.9-160.1 2.4-5.2 6.5-18 12.6-19.9 5.6-1.7 8.9 4.3 6.8 9z"  fill="#c2e1ff" /><path d=""  fill="#005bbb" /><path d=""  fill="#fff500" /><path d="M603.7-278.7c-50.8 70.7-89.3 138.9-66.3 228.9 9.4 37.1 29 70.2 50.1 101.6 2.2 3.2 13.7 15.9 12.4 19.4-1.1 2.8-5.3 0.1-3.2-2 2.5-2.5 4.9 3.2 1.4 3.2-6 0.1-21.6-30-25.1-35.3-39.9-61.3-62.2-131.1-44.5-204.2 10.6-43.8 37.3-84 65.2-118.8 5.1-6.4 13.8 0.4 10 7.2z"  fill="#fff" /><path d=""  fill="#005bbb" /><path d=""  fill="#fff500" /><path d=""  fill="#fff" /><path d=""  fill="#fff" /><path d="M603.4-178.7c-31.5 41.9-41.4 95.5-28.3 146.1 2.7 10.5 26.5 59.6 25.8 63.6-0.6 4.2-7 0.5-3.6-2.1 3.3-2.6 5.4 4.5 1.2 4-5.5-0.5-14-24.5-16.3-29.4-24.4-53.2-29-112.9-2.4-166.4 14.3-28.7 31.2-29.9 23.6-15.8z"  fill="#fff500" /><path d="M603.4-250.5c-44.1 52.4-73.3 109.6-64 180.1 3.8 29 30.7 80.5 29.9 86.4-0.6 4.1-6.9 0.5-3.6-2.1 3.3-2.6 5.4 4.4 1.2 4-5.2-0.4-12.6-21.2-14.6-25.6-27.1-57.3-31.2-124.9-4.3-183.1 10-21.7 26.9-54.4 46.6-69 6.3-4.7 12.5 3.4 8.8 9.3z"  fill="#005bbb" /><path d="M603.6-329.7c-32.6 57.1-75.1 113-81.8 180.3-1.4 14.2 6.2 76.7 3.5 82.1-2.7 5.6-9.9-2.3-4.1-4.5 5.7-2.2 5.6 8.5-0.1 6.2-6.6-2.7-6.7-30.3-7.3-36.7-8.2-88.6 33.7-160.9 79.6-233.2 4.1-6.5 13-1 10.2 5.8z"  fill="#c2e1ff" /></svg>