<svg width="1200" height="675" viewBox="-500 -500 1200 675" xmlns="http://www.w3.org/2000/svg"><path d="M-500-500h1200v675h-1200z" fill="#000"/><path d=""  fill="#005bbb" /><path d=""  fill="#c2e1ff" /><path d=""  fill="#fff" /><path d=""  fill="#fff" /><path d=""  fill="#c2e1ff" /><path d=""  fill="#fff" /><path d=""  fill="#005bbb" /><path d=""  fill="#fff" /><path d=""  fill="#fff" /><path d=""  fill="#fff" /><path d=""  fill="#fff500" /><path d=""  fill="#fff" /><path d=""  fill="#005bbb" /><path d=""  fill="#c2e1ff" /><path d="M-389.5 70c0.7 1.5 2.8 6.7-1.5 5.7-10.9-2.7 12-2.1 1 0-6.5 1.3-3.3-11.5 0.5-5.7z"  fill="#c2e1ff" /><path d="M-381-269.8c11.5 42.5 22.6 86.1 13.6 130.3-4.6 22.4-24.8 53.7-25.9 73.7-2 36.4-4.5 75-2.2 111.8 0.3 4.3 12.5 29.2 7.7 29.5-3.7 0.3-2.8-5.9 0.7-4.6 3.5 1.3 0.1 6.5-2.6 3.9-21-21.4-13-136.8-13-144-0.1-17.2 25.1-61.5 28.9-85.2 5.7-34.7-14.6-107.9-13-115.3 0.7-3.2 4.7-2.8 5.8-0.1z"  fill="#fff500" /><path d="M-372.6-202.3c6.8 64.7-18.6 86.1-20.1 115.7-1.4 27.6-2.5 55.2-3.3 82.8-0.5 18.7-0.4 38.4 0.6 57.3 0.2 4.9 8.6 17.4 6.7 20.9-2.1 3.8-6.8-2-2.7-3.3 3.5-1.1 4 5 0.4 4.5-11.7-1.5-9.8-40.1-9.8-44.2-1.1-155.7-4.5-86.4 16.8-175.2 0.4-1.7 6.5-82.9 11.4-58.5z"  fill="#fff" /><path d="M-363.6-30c-11 24-14.5 50.1-9.8 76.1 0.7 4 10.2 30.1 4.2 29.9-4.4-0.2-2.5-7.2 1.4-5.2 3.9 2-0.8 7.6-3.5 4.1-17.5-22.6-18.2-87.1-1.3-110 3.8-5.1 10.5-0.4 9 5.1z"  fill="#fff" /><path d="M-355.9-111.2c-15.5 43-42.2 79.9-38.1 127.9 0.8 9.6 18.3 53.2 15.1 58.4-2.5 3.9-7.2-2.6-2.7-3.8 3.8-1 4 5.6 0.1 4.9-5.1-0.9-9.6-20.2-11.2-24.7-21.4-61.8 3.1-108 26.4-164.2 2.7-6.6 12.5-6.8 10.4 1.5z"  fill="#fff" /><path d="M-348.1-6.2c-8.3 19-11 39.6-8.5 60.2 0.4 3.6 7.4 23.4 0.1 22.5-4.1-0.5-2.9-6.9 1.1-6 3.4 0.8 2.7 6.1-0.8 6-16.2-0.4-7.5-78-0.9-87.4 3.6-5.2 10.4-0.6 9 4.7z"  fill="#fff" /><path d="M-342.2-366.8c9.3 42.3 43 76.1 67.7 110.2 56.1 77.5 112.1 173.4 74.7 270.2-2.5 6.4-10.3 35.9-18.5 34.9-6-0.7-5.9-9.7 0.1-10.3 6-0.6 7.8 8.2 2.1 10.1-14.2 4.6 8.7-43.1 10.6-48.4 13.5-36.3 15.1-72.7 3.9-109.8-33.6-111.6-103.1-157.4-139.7-237.1-8.8-19.2-4-27.4-0.9-19.8z"  fill="#005bbb" /><path d="M-332.6-91.6c-17.6 37-44.2 68.3-44.6 111.4-0.1 10.8 11.1 50.3 9.7 54.7-1.5 4.8-8.3-0.7-3.9-3.2 4.4-2.4 5.5 6.3 0.7 5-8.7-2.2-12.8-41-13.6-48.8-4-41.2 15.6-93.6 42.8-125 4.3-5 10.9 0.5 8.9 5.9z"  fill="#c2e1ff" /><path d="M-325.4-136.3c-6 52.1-49.6 89.9-54.7 142.4-1.4 13.9 10.6 67.1 10.3 68.2-1.4 4.8-8.2-0.6-3.9-3.1 4.3-2.5 5.5 6.1 0.7 4.9-5.2-1.3-8.6-20.8-9.8-25.4-16.5-61.1 13.5-102.1 37.9-154.8 4.6-9.9 5.6-27.4 11.7-35.5 2.9-3.9 8-0.8 7.8 3.3z"  fill="#c2e1ff" /><path d="M-317.1 15.1c-6.7 13.5-10.5 28.2-11.3 43.3-0.2 3.5 3.2 21-4.4 18.6-4-1.2-2.8-7.3 1.3-7 4.8 0.4 3.8 8-1 7.1-12.4-2.4 0.8-60 6.4-67.3 3.9-5.1 10.7-0.2 9 5.3z"  fill="#fff500" /><path d="M-312.6-340.1c17.9 28.1 40.9 52.7 60.6 79.6 52.5 71.7 135.6 199.2 112.4 289.7-1.9 7.6-7.4 38.1-15.7 40-5.8 1.3-8.7-7.1-3.3-9.6 6.3-3 10.4 7.2 3.8 9.5-12.7 4.4 7-45.6 8.6-52 9-37.9 3-74.2-12.9-109.4-37.6-83.5-89.9-158-145.4-230.1-3.6-4.6-9.5-10.4-11.5-15.9-0.8-2.2 2-3.3 3.4-1.8z"  fill="#fff500" /><path d="M-303.6-183.8c28.3 90-27.6 109.3-52.6 181.1-6.5 18.7-7.7 38.5-4.5 58 0.5 3.2 7.6 21.8 0.6 21-3.4-0.4-3.4-5.5 0-5.8 4-0.4 4.3 5.9 0.3 5.9-5.5 0-6.6-16.2-7.3-20-15-74.3 33.2-101.9 56.4-162.6 5-13.2 7.4-27.2 7-41.3-0.3-10.4-7.6-26.6-5.6-36.1 0.7-3.2 4.6-2.8 5.7-0.2z"  fill="#fff500" /><path d="M-293.9-66.9c-19 32.1-47.4 58-53.4 96.5-1.3 8 4.4 41.7 0.4 45.8-3.6 3.6-8.1-3.4-3.4-5.3 5.6-2.1 5.4 8.2-0.1 6-4.1-1.7-3.8-12.2-4.4-15.7-6.7-46.5 13.6-81.6 40.1-117.6 3.6-5 7.7-14.7 13.1-17.8 5.5-3.2 10 3.1 7.7 8.1z"  fill="#005bbb" /><path d="M-286.4-107.8c-9.9 47-53.3 77-64.7 123.4-3.4 14 3.2 52.6 0.3 59-2.3 5.2-9.3-1.9-4-4.1 5.3-2.2 5.4 7.8 0.1 5.8-8.7-3.3-7.4-40.2-7-48 2.6-45.6 33.6-74.8 54.9-112.2 4.4-7.8 6.6-22 12.4-28.3 3.5-3.8 8.6 0 8 4.4z"  fill="#fff500" /><path d="M-281.9-293c49.3 62.1 126.1 174.9 137.2 253.5 4.1 28.9-1 57.4-9.9 84.9-2 6.3-7.8 34-16.1 33.1-5.9-0.6-6-9.5 0-10.2 5.9-0.7 7.9 8 2.2 9.9-13.4 4.6 6.9-43.1 8.6-48.6 11.2-37 11.5-73.6-1.5-110.2-24.8-69.8-68.5-139.5-113.5-198-1-1.3-12-19.4-7-14.4z"  fill="#c2e1ff" /><path d="M-274-258c35.7 48.9 69.7 104.5 85.3 163.5 12.2 45.9 2.4 87.5-15.2 130.5-2.7 6.7-13.4 45.4-21.5 42.2-5.3-2.1-3.1-10.3 2.6-9.4 5.6 0.9 5.3 9.4-0.5 9.8-12.4 0.8 4.1-32.2 6.1-37.1 16.2-40.9 32.3-79.8 24.5-124.7-10.1-58.2-43.8-114.8-77.1-162.7-0.6-0.9-9.3-17.7-4.2-12.1z"  fill="#c2e1ff" /><path d="M-262.9-5.6c-12.3 17.7-24.7 35.5-31.3 56.2-1.5 4.6-3 30.8-11 26.7-4.3-2.2-1.7-8.9 3-7.7 5.5 1.4 2.7 9.9-2.6 7.9-19-7.2 25.3-80.7 32.2-89.9 4.7-6.2 13.2 0.1 9.7 6.8z"  fill="#fff500" /><path d=""  fill="#c2e1ff" /><path d="M-250.4-207.1c59.7 100.3 60.3 142.6 9.6 245.1-3.2 6.4-12.3 40-18.9 40.1-7.5 0.1-5-12.1 1.9-9 8 3.6-2.9 14.2-6.3 6.1-3.7-9.1 50.8-113.7 52.9-143.1 3.5-47.5-18.9-94.7-41.7-135-1.5-2.6-0.3-7.9 2.5-4.2z"  fill="#c2e1ff" /><path d="M-208.7-399.7c36 78.2 39.4 169.2 92.5 239.6 7.3 9.7 88.1 97.8 83.8 99.9-9.1 4.8 6.9-8.7 0.7-0.5-0.3 0.4-32.1-37.8-36.7-42.7-103.7-108.4-89.5-143.3-136.6-273.6-2.1-5.7-8.8-15.9-8.5-21.9 0.2-2.7 3.5-2.9 4.8-0.8z"  fill="#005bbb" /><path d="M-232-50.1c-11.5 33-37 58.2-51.2 89.7-2.6 5.7-9.4 41.1-16.3 37.3-5.1-2.8-0.2-10.5 4.5-7.2 4.7 3.3-0.9 10.5-5.3 6.7-8.2-7.2 7.6-41.9 11.4-49.8 5.5-11.6 41.9-76.6 48.8-82.5 4.3-3.7 9.3 1.1 8.1 5.8z"  fill="#005bbb" /><path d="M-209.9-399.7c38 81.2 41.5 175.5 99.4 247.3 8.8 11 109 111.4 90.3 122.1-4.3 2.4-6.7-5.3-1.8-5.8 4.9-0.4 3.8 7.6-0.8 6-4.3-1.6-5.6-15.4-7.3-19.5-5.5-13.4-13.8-25.4-23.1-36.5-31.4-37.6-68.9-68-92.2-111.9-29.2-54.9-38.5-117.8-59.5-175.9-2.8-7.7-8.2-16.4-9.7-24.4-0.5-3 3.3-3.7 4.7-1.4z"  fill="#fff" /><path d="M-216.6 68.6c-7 19.5-14.4 1.1-7.7 0 10.6-1.8 3.5 16.4-3 7.8-8.1-10.5 13.4-20.4 10.7-7.8z"  fill="#c2e1ff" /><path d="M-211.7-269.1c22.4 37.2 40 77.1 64.5 113.1 42.1 61.7 104.7 115.7 72.4 197.2-3.4 8.5-11.2 33.7-20.1 37.2-9.7 4-9.9-14.3-0.1-10.5 9.8 3.8-2.7 17.2-7.2 7.7-3.8-7.9 18.1-38.5 21.5-47.5 9.3-24.9 11.1-51.3 1.9-76.5-17.2-46.9-58.2-83.3-84.6-125.2-17.5-27.6-31.4-57.2-47.5-85.6-0.5-0.9-5.8-16.3-0.8-9.9z"  fill="#005bbb" /><path d="M-196.2-399.4c30.5 80.9 29.4 170.7 84.6 241.6 17.6 22.7 119.1 119.3 99.8 146.8-3 4.2-9.3-0.8-5.9-4.7 4-4.5 9.9 3.5 4.3 6-7.9 3.5-6.8-21-7.7-25.2-4.1-17.3-13.1-32.9-24.2-46.7-31.1-39.2-71.1-68.9-95.5-113.6-30.5-55.9-37.2-120.5-53.9-181.1-1.6-5.9-7.6-16.6-6.7-22.6 0.4-3 4.1-2.8 5.2-0.5z"  fill="#005bbb" /><path d="M-193.7-41.3c-1.7 13.8-38 123.2-48.6 119.4-6.2-2.2-2.1-11.8 3.8-8.8 5.9 2.9 0.8 11.9-4.7 8.4-8.2-5.2 10.2-39.4 13.2-46.4 5.3-11.8 25.4-72 28.4-75.9 2.9-3.9 8-0.8 7.9 3.3z"  fill="#fff500" /><path d="M-188.1-268c17.6 38.5 33.5 77.4 58.8 111.8 45.3 61.6 118 112.8 81.1 198.2-3.7 8.5-12.5 33.4-21.6 36.7-11.9 4.3-7.5-18.3 1.9-9.8 8 7.3-8.9 15.5-9.7 4.8-1.3-17.8 48.8-56.3 27.5-118-19.7-56.8-81.8-100.7-111.4-155.4-10.4-19.3-27.2-45.2-31.2-66.9-0.5-3 3.3-3.7 4.6-1.4z"  fill="#c2e1ff" /><path d="M-178 4.3c-2.4 9.5-22 77.8-31.1 74-6.3-2.6-1.7-12.2 4.2-8.9 5.9 3.2 0.4 12.3-5.1 8.4-6.6-4.6 4.7-24.2 6.7-29.8 3.7-10 9.6-43.5 18.1-49 3.9-2.5 7.8 1.3 7.2 5.3z"  fill="#fff" /><path d="M-171.6-323.6c8.5 46.5 18.2 94.6 41.8 136.1 42.1 73.9 151.2 124.2 112.5 223.7-3.8 9.8-14 39.3-24.5 43-12.1 4.2-7.3-18.5 2-9.8 7.9 7.4-9.1 15.5-9.7 4.6-1.2-19.2 47-55.5 29.1-114.6-18.7-62.1-92.9-102.2-122.9-162.7-7.1-14.3-39.9-112.1-34.3-121.4 1.6-2.7 5.2-1.6 6 1.1z"  fill="#fff" /><path d="M-163.4-351.2c2.8 51.5 8.6 105.1 31.6 151.9 36.3 74.1 148.1 123.4 125.4 218.1-2.1 8.9-7.8 35-16.9 39.2-9.4 4.3-10.2-13.6-0.5-10.3 11.5 4-5.4 18.1-7.2 6.1-2.4-15.2 31.5-49.7 14.8-98.2-21.9-63.8-99.4-101.7-128.5-171.3-7.2-17.2-34.2-126.4-25.3-137.6 2.2-2.8 6-1 6.6 2.1z"  fill="#005bbb" /><path d="M-157.6-127.1c35.1 56.6 59.6 109.1 35.7 175.7-2.3 6.4-7.7 28.9-15.1 30-9.8 1.6-6-15.3 2.2-9.6 8.2 5.6-6.1 15.2-8.3 5.5-0.1-0.3 25.1-71.8 24.5-93.4-1.2-37.3-20.6-70.3-39.6-101.4-0.9-1.5-3.7-12.1 0.6-6.8z"  fill="#fff" /><path d="M-148.8-64.8c11 35.8 8.3 71.8-2.8 107.3-2.1 6.5-8.4 36.7-17 35.7-8.1-0.9-3.8-13.7 3.2-9.5 7 4.2-2.3 14-6.9 7.3-5.4-7.9 16.1-51.3 18.7-62 6.5-28.1-0.2-50.4-1-77.9-0.1-3.6 4.6-3.8 5.8-0.9z"  fill="#fff" /><path d="M-139.5-345.2c-14.1 69.4 1.3 141.6 48.4 195.3 30.1 34.3 72.5 61.2 89.7 105.1 10.4 26.7 8.6 55.5-1.5 81.9-2.3 5.9-8.4 27.9-17 25.7-6.3-1.5-5.1-11.1 1.5-11 6.5 0.1 7.3 9.8 0.9 11.1-15.1 3 5.8-31.4 7.5-35.8 9-23.6 11-49.2 2.4-73.2-24.2-67.9-104.9-99.9-131.9-176.8-10.9-31.2-14.5-65-12-97.9 2.1-29 12.9-37.8 12-24.4z"  fill="#fff500" /><path d="M-134.6-166.1c43 62.8 124.8 114.6 91.6 201.4-3.8 9.9-14 39.9-24.6 43.6-12 4.3-7.4-18.3 1.9-9.7 8 7.3-8.9 15.5-9.7 4.7-1-14 41.4-55.4 31.2-105.8-10.3-50.5-58.4-85.5-88.1-124.8-0.8-1-7.2-14.7-2.3-9.4z"  fill="#fff500" /><path d="M-126.5-88.1c27.4 46.8 32.1 93.2 11.5 143.7-2.3 5.7-6 20.1-11.6 22.9-6.6 3.3-11.2-7.4-4.3-9.9 8-3 10 11.1 1.4 10.5-11.7-0.9 1.7-20.3 3.6-24.5 8.9-19.9 16.1-41.1 17.1-63 1.7-35.2-21.4-64.7-21.7-78.5-0.1-2.4 2.8-2.8 4-1.2z"  fill="#005bbb" /><path d="M-118.6-76c23 43.2 23.4 86.8 5 131.7-2.3 5.7-6 20.1-11.7 22.9-7.7 3.8-11.1-10-2.6-10.3 7.4-0.2 7 11.4-0.3 10.8-11.7-1 1.7-20.3 3.6-24.4 8.1-17.9 14.7-36.8 16.8-56.5 2.1-20.1-15.3-72.7-15.1-73.8 0.6-2.2 3.2-2.1 4.3-0.4z"  fill="#005bbb" /><path d="M-108.7 1.5c-0.8 10.9-13 79.8-27.9 77.2-7.2-1.2-4.6-12.4 2.4-10.4 7 2 3.2 12.8-3.5 10.1-9.2-3.8 7.7-30.6 10.1-37 4.4-11.7 4.7-33 11.2-42.8 2.6-3.8 7.6-1.2 7.7 2.9z"  fill="#fff" /><path d="M-103.5-183.1c43.1 72.7 148.4 112.5 116.2 213.8-3.4 10.7-13.4 43.9-24.7 48.3-9.9 3.8-9.7-14.7 0.1-10.6 11.6 4.8-6.7 18.3-7.8 5.8-1.8-18.3 44.3-58.2 26.4-117-16.7-54.9-73.8-83.9-106.5-127.9-1.3-1.8-8.7-18.4-3.7-12.4z"  fill="#fff500" /><path d="M-94.3-33.6c16.8 70.5-25.5 112.9-27.3 112.6-8.5-1.8-2.6-14.9 4.4-9.8 7 5.2-4 14.6-8.1 7-4-7.3 13.8-33.7 16.7-41.7 8-21.8 7.4-90.3 14.3-68.1z"  fill="#005bbb" /><path d="M-107.6-395.8c-38.6 70.9-45.3 156.4 2.9 224.9 27.9 39.8 72.1 65.8 97.4 107.4 1.9 3.2 14.6 22 8 23.8-3.7 1-5-4.8-1.2-5.4 4.4-0.7 4 6.6-0.3 5.5-4.6-1.2-15.1-30.3-19.1-35.9-53.5-74.8-120.2-93.8-126.8-201.1-2-32.3 3.3-64.4 15.4-94.4 13.7-34.3 29.4-39.6 23.7-24.8z"  fill="#c2e1ff" /><path d="M-77.1-308.3c-93.9 112 79 182.9 106.8 264.2 10.4 30.4 6.5 62.5-5.4 91.8-2.6 6.3-11 33.2-19.9 30.9-6.3-1.6-5-11.2 1.4-11 6.5 0.2 7.3 9.8 1 11.1-15.4 3 5.2-29 6.8-32.7 10.9-23.8 17.3-49.9 13.2-76.2-12.7-81.3-109.5-109.3-131.7-186.7-7.5-26-5.6-54.2 6-78.7 11.7-24.8 30-26.8 21.8-12.7z"  fill="#fff" /><path d=""  fill="#fff" /><path d="M-62.1 8.8c-1.5 10.7-18.8 74.3-33.4 70.3-7.4-2.1-3.5-13.6 3.7-10.8 7.2 2.9 2.1 13.9-4.8 10.3-9.1-4.8 8.5-26.4 11.4-32 5.7-11.4 7.9-32 15.3-41.4 3.1-3.8 8.2-0.6 7.8 3.6z"  fill="#005bbb" /><path d=""  fill="#c2e1ff" /><path d="M-46.9-359.3c-68.6 47.8-88.4 127.3-34.1 195.8 30.7 38.7 77.8 64.4 98.6 110.7 4.1 9 20.9 75.7 2.4 76.3-5.4 0.2-6.6-7.9-1.3-9.2 6.2-1.6 8.1 8.3 1.8 9.2-10.2 1.4-1.1-27.3-0.9-32.6 1-23.3-6.2-45.9-18.9-65.2-44.1-66.8-130.5-100.9-121.4-194.9 3.1-32.2 18.9-60.8 42.4-82.7 28.6-26.7 43.2-18.2 31.4-7.4z"  fill="#c2e1ff" /><path d="M-40.8-47.9c14.6 32.7 7.6 102.2-22.6 125.9-7.3 5.7-13.9-8.1-5-10.2 9-2.1 9.2 13.2 0.2 11.3-12.1-2.5 20-47.5 25.2-68 6-23.5-4.4-71.5 2.2-59z"  fill="#005bbb" /><path d="M-31.4-378.2c-60.5 42.2-107.4 98.7-75.2 176.3 28.5 68.6 114.9 98.5 129.6 173.9 0.9 4.8 4.3 16.7 1.2 20.9-3.8 4.9-10.4-2.9-4.9-5.8 5.5-2.9 8.2 7 2 7.3-0.4 0-15.8-56.7-20.5-64.4-45.2-73.8-138.3-101.9-124.3-207.5 4.4-33.3 21.8-62.1 46.7-84.1 9.2-8.2 27.9-27.8 40.4-29.4 7.8-1 10 8.3 5 12.8z"  fill="#fff500" /><path d="M-25.6-55c23.3 43.8 1.2 126.5-21.2 134.2-7.5 2.6-10.9-9.4-3.2-11.2 9-2.1 9.2 13.3 0.1 11.4-12-2.5 20.2-42.7 26.4-72.3 2.5-11.7 3-23.7 1.1-35.4-1.3-7.7-8.1-18.5-7.7-25.8 0.1-2.6 3.3-2.8 4.5-0.9z"  fill="#fff" /><path d="M-63.7-393.7c-59 52.3-85.5 128.3-47 202 21.8 41.9 60.5 68.2 91.5 102.3 1.6 1.7 17.1 17.3 11.7 18.6-8.8 2.1 7.9-5.9 0.7-0.3-2.7 2.1-16.6-18.6-19.1-21.3-53.8-59.1-117-103.4-110.3-193.1 2.5-34.1 16-65.7 38-91.9 28.7-34.1 46.2-29.8 34.5-16.3z"  fill="#005bbb" /><path d="M-7.6-295.6c-24.3 24.9-43.2 55.6-33.7 91.6 23.5 89.5 143.6 108.9 110.1 242.6-1.9 7.6-7.7 38.2-16.4 39.9-9.5 1.9-6.4-14.7 1.8-9.5 8.2 5.2-5.4 15.1-7.9 5.7-0.6-2.2 20.4-68.9 19.6-87.9-4.5-96-103.2-125.2-116.3-203.4-5.3-31.7 9.1-60.5 29.8-83.7 6.3-7.1 20.6-5.7 13 4.7z"  fill="#fff" /><path d="M-3.5-144.9c50.9 54.5 93.3 111.2 70.9 189.8-2 6.9-7 32.4-14.8 33.9-9.5 1.9-6.4-14.7 1.8-9.5 8.2 5.2-5.4 15.1-7.8 5.7 0-0.1 24.1-71.9 17.3-107.5-8.1-41.7-34.6-74.3-63.2-104.1-0.4-0.4-8.6-12-4.2-8.3z"  fill="#c2e1ff" /><path d=""  fill="#005bbb" /><path d=""  fill="#005bbb" /><path d="M23.2-377.4c-47.9 49.7-136.9 80.2-112.9 166.5 16.1 58 73.9 85.2 106.9 131.5 4 5.7 33.4 61.3 20.1 62-4.8 0.2-4.8-7.4 0.1-7.1 4.1 0.2 4.4 6.4 0.3 7-6.6 1.1-6.2-19-7.3-23-4.4-17.2-12.9-33.1-23.6-47.1-42.4-54.9-122-94-106-176.2 9.5-49 51.4-74.7 88.5-102.1 8.8-6.5 16.9-16.2 26.1-21.7 6.8-4 12.2 4.7 7.8 10.2z"  fill="#fff" /><path d=""  fill="#fff" /><path d="M38.9-351c-35.5 44.4-107.5 82.1-86.8 149.6 15.7 51 69.1 79.8 95.5 124.6 15.3 26 23.2 55.6 20.8 85.8-0.4 5.3 0 25-7.6 25.4-7.4 0.3-5.2-11.8 1.6-9 6.8 2.8-0.2 12.9-5.2 7.5-4.5-4.9 3.3-27 3.7-33.8 1.2-21-2.8-41.8-11-61.1-27-63.2-119.6-104.9-108.2-182 5.4-36.6 59.1-94.3 88.9-116 6.1-4.4 12 3.4 8.3 9z"  fill="#c2e1ff" /><path d="M46.2-235.5c-16 97.6 124 198.4 122.8 303.8 0 2.7-3.6 15.7-7.9 7-5.9-11.6 17.3-1.8 4.9 2.1-9 2.8-4.7-19-5-23-1.3-18.8-7.5-36.9-15-54.1-28-63.7-76.3-118.5-100.7-183.4-5.5-14.5-13.1-38.9-7.4-54.4 1.8-4.9 8.2-2.7 8.3 2z"  fill="#fff" /><path d="M54.1-246.1c-26.4 110.8 121.8 205.7 128.2 313.9 0.1 2.4-2.2 15.5-7.1 7.4-6.3-10.6 16.2-2.8 4.8 1.6-8.2 3.2-5.5-15.8-5.8-19.1-1.8-16.5-7.6-32.3-14.7-47.3-31.9-67.3-86.8-126.7-110.1-197.7-5.5-16.7-11.7-44.7-3.9-61.6 2.3-5 8.9-2.1 8.6 2.8z"  fill="#c2e1ff" /><path d="M61.3-6.9c0.3 10.3-12.5 93-27.8 84.8-5.5-2.9-2-11.5 4-9.8 7 2 3.3 12.8-3.5 10.1-9.1-3.7 7.8-31.4 10-37.6 5-14.1 3.4-37.3 10-49.5 2.1-3.8 6.9-1.8 7.3 2z"  fill="#c2e1ff" /><path d="M45.4-395c-39.1 59.5-143.5 88.5-130.5 174.3 7.7 51.2 52.5 81.3 86.2 115.6 1.2 1.2 16.7 16.2 10.9 16.1-7.9-0.2 7.9-3.3 0.7-0.1-2.9 1.3-13.2-13.7-15.4-16.1-42.5-44.8-105.9-87.6-88.3-159 12.7-51.4 61.6-74.7 98.4-106.8 9.6-8.4 19.9-27.2 30.5-32.6 5.8-3 10.2 3.7 7.5 8.6z"  fill="#fff" /><path d="M75.5-178.9c29.3 93.9 135.9 181.8 154.2 246.9 0.5 1.6 1.2 13.2-4.2 7.3-6.8-7.3 12.4-5.1 4.1 0.5-6.2 4.2-7.5-13.3-8.4-15.8-5.1-15.9-14-30.3-23.8-43.7-44.7-60.6-97.8-116.7-125.2-188.2-1.3-3.4-0.1-14 3.3-7z"  fill="#005bbb" /><path d="M85.3-294.7c-32.6 112.7 3.5 165.3 72.1 254.3 17.7 22.9 79.2 85.2 76.3 113.9-0.6 5.9-9.7 1.1-5.2-2.8 3.8-3.3 7.8 4.1 2.9 5.5-2.1 0.6-20.2-42.9-24-48.7-50-74.9-136.2-145.8-144.5-241.8-2.1-24.4 1.1-62.4 13.6-84.1 2.9-5.1 9.6-1.4 8.8 3.7z"  fill="#fff" /><path d="M92.9-301.9c-28.1 115-6.9 164.6 68.9 255.3 20.8 24.9 94.6 88.2 93.4 120.1-0.2 4.7-7.7 2.7-5.5-1.4 2.5-4.9 8.8 2.3 3.6 4.1-1.6 0.6-23.5-43.3-27.7-48.8-56.6-74-143.7-138-154.5-238.3-2.9-27.2 0.1-69.6 13.1-94.3 2.7-5.1 9.3-1.7 8.7 3.3z"  fill="#005bbb" /><path d="M97.9-111.1c16.8 27.9 109.5 167.8 96.8 186.6-3.3 4.9-10.1-2.2-5-5.3 4.3-2.6 8.1 4.5 3.5 6.5-7.7 3.5-6.4-16.7-7-19.9-3.2-17.5-10.9-33.8-19.6-49.1-22-39.1-47.7-76.3-71-114.6-1.5-2.5-0.5-7.7 2.3-4.2z"  fill="#c2e1ff" /><path d=""  fill="#c2e1ff" /><path d="M115.8-304.5c-10.4 98.4-6.7 167.7 68.1 241.4 29.7 29.3 66.4 50.8 93.9 82.3 5 5.7 39.3 50.5 29.9 56.6-4.5 2.9-6.3-6.3-1-5.3 4.5 0.9 1.5 7.9-2.3 5.3-4.5-3.2-6.8-18.4-9.3-23.7-7.6-16.2-18.4-30.6-30.8-43.4-65.9-68-139.7-98.6-159.6-203.4-6-31.5-8.2-81.1 2.9-111.7 1.8-4.9 8.1-2.7 8.2 1.9z"  fill="#fff500" /><path d=""  fill="#005bbb" /><path d="M131.1-369.8c-4.1 94.2-22.5 193.1 39.9 273.1 35.1 45.1 88.7 71.2 122.9 116.8 2 2.6-3.6 4.1-3.2 0.8 0.5-3.8 6 0.5 2.4 1.9-2.4 0.9-27.9-30.2-31.9-33.9-60.8-56.3-126.8-99.2-140.9-187.7-4.8-29.8-5-145.2 2.9-172.3 1.4-4.7 7.5-3 7.9 1.3z"  fill="#fff" /><path d="M137.1-16c4.5 9.9 35.2 90.6 16 93.5-5.8 0.9-6.7-8.4-0.8-8.6 6.9-0.3 4.8 10.9-1.5 8.3-6-2.5-1.1-22.9-1.4-28.4-1.1-21.9-23.4-83.7-12.3-64.8z"  fill="#fff" /><path d="M146.4-306c0.1 81.6-2.6 158.1 56.4 222.1 29.8 32.3 67.2 56.9 94.4 91.7 5.4 6.9 42.3 62.1 30.8 68.4-4.4 2.4-6.7-5.5-1.7-5.9 5.8-0.4 2.7 9.2-1.8 5.6-3.3-2.7-17.9-48-24.3-57.8-42.6-65.1-118.7-97.8-147.3-173.9-8.6-22.8-23.8-132.7-13.7-152 2-3.8 6.8-1.9 7.2 1.8z"  fill="#c2e1ff" /><path d="M152.5-142c38 85.3 142.3 117.7 170.7 208 0.7 2.1 4.4 11-1.4 10.2-13.6-1.8 13.3-8.6 2.1-0.6-6 4.3-8.4-15-9.2-17.5-6.5-19-16.8-36.4-29.6-51.8-33.2-40-79.9-66-112.2-107-9.6-12.1-18.1-25.3-24.7-39.3-1.4-2.9 2.7-4.6 4.3-2z"  fill="#fff500" /><path d="M159.2-56c16.5 19.8 113.8 111.7 107.1 130.7-1.3 3.7-7 1.3-5.3-2.2 2-4.1 7.9 0.6 4.4 3.4-5.3 4.3-8.2-12.2-9-14.2-5.5-13.4-13.5-25.6-22.7-36.7-22.2-26.9-50.1-48.7-73.2-74.9-0.6-0.7-5.5-10-1.3-6.1z"  fill="#fff500" /><path d="M167-91c22.8 28.5 160.1 134.4 148.2 165.2-1.4 3.7-7.2 1.2-5.3-2.4 2.1-4.2 8.1 0.8 4.4 3.7-5.7 4.5-9.1-15.6-10.2-18.3-7-17.6-17.6-33.5-30.3-47.6-31-34.3-72.2-57.5-103.3-91.8-0.7-0.8-8.1-13.1-3.5-8.8z"  fill="#c2e1ff" /><path d="M174.5-36.9c14.9 16.1 95.4 92.2 88.8 111-1.5 4.3-8 0.3-4.8-3 2.7-2.8 6.9 1.7 3.9 4.3-5.3 4.3-8.2-12.1-9.1-14.3-5.1-12.3-12.3-23.7-20.6-34.1-17.5-21.9-39.1-40.2-58.5-60.4-1.2-1.2-2.5-5.9 0.3-3.5z"  fill="#fff500" /><path d="M182.2-72.9c45.5 47.3 113.4 78 132.7 145.7 1.5 5.3-8 4.3-5.4-0.5 2.2-4.2 8.2 0.8 4.4 3.7-5.7 4.5-9.1-15.7-10.1-18.4-7-17.6-17.6-33.6-30.3-47.5-26.5-29.3-60.8-50-89.2-77.4-0.3-0.3-6.1-8.8-2.1-5.6z"  fill="#fff" /><path d="M176.9-397.5c-11.2 67.4-16.2 202.4 12.5 264 13.8 29.7 35.9 53.9 58.9 76.8 1.9 1.9 14.3 11.9 13 14.2-0.2 0.3-0.5 0.6-0.9 0.7-5.5 1.1-28.5-27.7-32.9-32.4-57.8-60.9-64.3-126.8-64.3-207.2 0-36.1-0.6-72.5 3.8-108.4 0.7-5.6 10.2-20.1 9.9-7.7z"  fill="#fff" /><path d="M200.2-178.5c2.6 25.2 10.6 49.2 23.5 71 31.1 52.6 83.2 89.9 106.2 147.7 2 5.1 14.2 33.1 7.8 36.3-4.7 2.3-6.7-6.1-1.5-6.3 6.1-0.1 2.4 9.8-2.2 5.7-3.4-3.1-17-53.3-23.1-64-28.1-49.1-75.4-84.3-100.8-135.1-7.3-14.6-18.7-38.3-16.8-55.2 0.5-4.2 5.9-3.7 6.9-0.1z"  fill="#005bbb" /><path d=""  fill="#fff" /><path d="M216.7-296.2c-13.3 68.6-20.8 141 19.7 202.1 23.1 34.8 54 63.5 76.4 98.7 6 9.4 36.7 60.9 26.5 70.9-3.2 3.1-7.9-2.2-4.3-4.9 4.1-3.2 7.9 4.6 2.8 5.8-2.2 0.5-19.8-53.8-23.6-60.9-33-61.9-96.5-104.2-111.9-175.6-9.5-43.8-3.6-94.3 5.6-137.7 1.2-5.8 9.1-4 8.8 1.6z"  fill="#005bbb" /><path d="M221.5 28c4 5.3 30.5 43.3 22 48.2-4.2 2.4-6.6-5.2-1.9-5.7 4.1-0.4 4.4 6.1 0.3 6.1-5-0.1-7.5-17.6-9.2-21.5-3.9-9-17.8-34.4-11.2-27.1z"  fill="#fff" /><path d="M200.6-397c-21.5 61-27 203.8-1.2 263.3 13.1 30 34.7 54.6 56.9 78.2 2.2 2.4 13.8 12 13.1 14.9-0.1 0.5-0.6 1-1.1 1-5.6 0.9-28.5-29.5-32.9-34.4-53.3-59.4-60.7-121.9-58.6-198.9 0.9-31.6 1.3-63.6 6.7-94.8 1.5-8.6 2.5-27.9 8.9-34.3 3.9-3.8 9 0.4 8.2 5z"  fill="#fff500" /><path d=""  fill="#c2e1ff" /><path d="M210-396.4c-26 58.7-32.6 202.9-7.7 262.2 12.7 30.2 34.1 55 56 78.8 2.1 2.3 13.3 11.6 12.6 14.5-0.1 0.5-0.7 1-1.2 1.1-5.3 0.8-25.8-27.2-29.8-31.7-69.3-78-64.6-161.6-54.9-259.7 2-20.4 3.6-53 16-70.2 3.7-5.1 10.5-0.4 9 5z"  fill="#fff" /><path d="M252.6 40c3.1 4.4 22.1 31.9 15.9 36-3.2 2.1-6.3-3.1-2.9-4.9 3.4-1.8 6 3.8 2.4 5.2-5.2 2-7.2-12-8.3-14.7-0.7-1.8-12.3-27.9-7.1-21.6z"  fill="#fff" /><path d="M260.8-93.1c22.4 47.8 61 86.1 77.3 137.2 1.6 5.1 11.1 30 5 32.7-5.7 2.6-6.2-8.4-0.3-6.3 5.1 1.8 0.4 9.4-3.4 5.7-2.6-2.5-14-52-18.6-61.6-17.6-37.5-45.8-68.6-64.2-105.5-1.4-2.8 2.6-4.6 4.2-2.2z"  fill="#fff500" /><path d="M271.3-243.5c-28.4 53.4-34.9 107.9-5.1 162.1 13.5 24.6 90.7 133 78.3 156.1-2.5 4.7-9.3-1.1-5-4.3 4.3-3.2 8 4.9 2.7 6-0.4 0.1-24.3-67.8-28.8-76-29.9-54.2-78.5-101.4-75.7-167.8 1-24.2 8.1-63.1 24.6-82.2 4.4-5 11 0.5 9 6.1z"  fill="#005bbb" /><path d="M278-124.1c-1.2 60 47.2 108.7 63.9 164 1.6 5.3 11.8 34.1 5.1 36.8-5.1 2.1-6.7-6.8-1.2-6.6 6.4 0.2 1.9 10.5-2.6 5.9-6.5-6.6-6.9-34.9-10-44.7-13.5-42.1-41.7-77.3-55.7-119.1-3.4-10.1-9.3-26.1-7-37 1-4.6 6.9-3.4 7.5 0.7z"  fill="#005bbb" /><path d=""  fill="#c2e1ff" /><path d="M240.7-394.8c-42.8 55.7-55.2 194.6-30.5 259.7 10.8 28.4 29.5 52.5 49.2 75.3 1.7 2 11.4 10.3 9.8 12.8-0.2 0.3-0.6 0.6-1.1 0.7-5.2 0.6-23.1-25.7-26.7-30.1-59.6-72.9-56.1-160.9-40-249.4 4.2-23 11.7-60.7 30.5-77 5.5-4.8 11.8 2.3 8.8 8z"  fill="#c2e1ff" /><path d="M302.3-198.4c-32.5 41.3-34 87.5-11.9 134.1 15.3 32.2 65 102.7 58.1 138.3-1 5.4-9.4 1.8-6.1-2.7 3.7-5.2 9.7 4.2 3.4 5.4-2.4 0.5-18.6-60.2-22.1-68-21.7-48.8-61.8-94.5-56.6-151.1 1.8-19.8 10.4-50.8 26.5-64.2 5.7-4.7 11.9 2.5 8.7 8.2z"  fill="#fff" /><path d="M307.7 65.1c0.9 2.4 5.6 10.2 0.7 11.4-3.9 0.9-5-5.2-1.1-5.7 3.9-0.5 4.4 5.7 0.4 5.8-9.9 0.2-3.9-19.5 0-11.5z"  fill="#c2e1ff" /><path d="M317.5-113.8c-21.1 63.2 48.6 142.1 37.7 188.2-1.3 5.5-9.8 1.4-6.2-3 4.1-5.2 9.9 4.8 3.3 5.7-5.6 0.8-10.2-43.1-11.9-49.6-10.3-39-33.1-76-34.7-117-1.5-39.1 12.2-27.4 11.8-24.3z"  fill="#fff" /><path d="M323.2-37.9c6 17.2 39.6 100.7 31.6 113.5-3 4.8-9.7-1.8-5-4.9 4.8-3.1 8.1 5.7 2.5 6.5-5.7 0.8-9.8-41.3-11.4-47.7-5.5-21.4-20.7-44.7-23-66.2-0.4-3.3 3.9-3.9 5.3-1.2z"  fill="#fff" /><path d="M331.2-33.8c4.8 16.6 33.4 98 26 109.4-3.1 4.8-9.9-1.9-5-5 4.9-3.1 8.1 5.9 2.4 6.6-6.5 0.9-8.1-36.9-9.3-42.8-4.5-21.6-18.6-45.7-19.8-67.2-0.2-3.5 4.4-3.9 5.7-1z"  fill="#c2e1ff" /><path d="M338.7-2.9c5.2 14.8 26.4 64 17.3 78.4-3.1 4.8-9.8-1.9-5-5 4.8-3.1 8.1 5.8 2.5 6.6-6.8 1-7.1-29-8.1-34.1-1.3-6.9-15-63-6.7-45.9z"  fill="#c2e1ff" /><path d="M348.7-252.4c-36.3 51.5-89.7 88.5-69.2 159.5 14.4 50.1 50.8 90.3 64.1 141.1 1.1 4.3 9.4 27.9 1.9 28.6-5.5 0.4-4.2-8.6 0.9-6.7 5.1 1.9 0.2 9.5-3.7 5.7-2.7-2.7-12.2-50.9-16-60.3-22.8-55.4-71.4-107-57.2-171.3 8.2-37.1 41.4-80.9 70.6-104.8 5.7-4.6 11.8 2.6 8.6 8.2z"  fill="#fff500" /><path d="M356.1-208.1c-40.3 37.6-76 72.3-59.1 132.1 3.8 13.6 66.1 151.7 51 152.6-5.5 0.4-4.1-8.7 1.1-6.7 5.2 2 0.1 9.7-3.8 5.6-2.7-2.8-10.2-48.2-13.4-56.9-18.2-50.9-59.2-101.3-44.1-158.3 5.5-20.8 40.5-74 62.1-79.7 7.1-1.9 10.3 6.5 6.2 11.3z"  fill="#005bbb" /><path d="M363.9-360.7c-28.1 106.3-114.8 158.9-101.1 240.9 8.4 50.5 81.3 131 78.8 169.1-0.4 5.6-9.2 1.4-5-2.4 4.1-3.8 7.7 5.3 2 5.2-4.5-0.1-15.2-38.3-18-44-27.5-57.6-78.8-109.5-64.5-178.6 11.1-53.7 55.6-89.8 78.8-137.6 7.2-14.9 10.3-45.8 21-57.1 3.6-3.8 8.7 0 8 4.5z"  fill="#005bbb" /><path d="M340.8-395.6c-40.5 73-104.6 141.4-105.2 230-0.2 29.2 9.3 56.7 23.9 81.6 1.2 2.1 15.4 21.5 9.7 21-9-1 9.4-3 0.8-0.1-3.7 1.2-8.8-10.6-10.4-13-35.7-55.3-38.5-112.4-15.3-173.4 12.3-32.3 81.2-153.6 91.2-154.4 4.8-0.4 7 4.5 5.3 8.3z"  fill="#005bbb" /><path d="M379.1-361.4c-4.4 35.1-10.8 70-30.3 100.3-30.5 47.4-82.7 81.7-75.8 144.9 5.9 54.1 46.9 96.8 64.8 146.9 1 2.8 10.1 22.3 2.1 21.2-3.5-0.5-3.4-5.8 0.1-6.1 3.5-0.3 4.6 4.9 1.2 6-3.6 1.1-18.3-44.2-21.3-50.3-28.7-59.3-76.2-116.6-43.9-185.2 22.2-47.3 68.7-76.5 84.4-127.8 5.1-16.5 4.2-36.4 10.4-52.1 1.9-4.9 8.3-2.5 8.3 2.2z"  fill="#005bbb" /><path d="M387.1-205.4c-36.5 38.4-88.4 62.2-80.4 124.3 5.2 40.8 54.9 120.7 47 155.5-1.5 6.4-10.9-0.1-5.4-3.8 5.5-3.7 7.9 7.6 1.4 6.5-4.1-0.7-15.1-62-18.2-70.4-16.5-45-46.1-92.5-27.1-141.7 11.9-30.7 46.7-63.9 74.9-80.6 6.8-4 12.2 4.7 7.8 10.2z"  fill="#c2e1ff" /><path d="M394.6-300.3c-10.9 83.7-114.2 112.2-107.2 195.7 4.3 51.2 71.7 136.2 63 178.6-1.3 6.3-10.7 0.2-5.4-3.5 5.3-3.7 7.9 7.2 1.5 6.3-5-0.7-12-47.6-14.6-54.8-19-54-65-106.2-49.3-167 12.7-49.3 60.2-71.7 86.2-112 9.5-14.7 10.8-30.3 17.5-45.7 2.1-4.9 8.6-2.3 8.3 2.4z"  fill="#005bbb" /><path d="M402.5-167c-34.5 32-73.3 55.7-69.1 108.9 1.8 22.2 34 121.7 26.1 133.6-3.2 4.9-10-2.1-5-5.1 5.8-3.6 7.8 8.1 1.2 6.7-5.9-1.2-6.1-35.3-7.3-41.6-9.4-52.5-40.7-109.5-8.5-160.2 11.9-18.8 35.1-42.7 55.1-53.2 7.2-3.8 12.3 5.5 7.5 10.9z"  fill="#c2e1ff" /><path d="M410.7-80c-23.2 35.8-25.8 75.5-27.9 116.9-0.3 5.9 1.5 41.9-6.8 40.8-4.8-0.6-4.6-7.8 0.2-8.2 5.6-0.5 5.9 8.4 0.2 8.2-8.1-0.2-1.6-42-1.3-48.6 1.7-35.6 3.3-71.5 19.7-104 9-17.9 20.2-14.8 15.9-5.1z"  fill="#c2e1ff" /><path d="M417.4-302c2.3 109.8-115 118.1-114.6 204.9 0.2 50.5 59.5 130.2 50.3 171.3-1.4 6.4-10.9 0-5.4-3.7 5.4-3.7 7.9 7.5 1.4 6.4-4.4-0.7-13.5-56.1-16.3-64-19.4-54.9-59.1-112.9-21.8-169.8 24-36.7 69-54.3 88.1-94.9 5.2-11 15.8-73.5 18.3-50.2z"  fill="#fff" /><path d="M425.2-399c17 57.7 41.7 116.6 33.2 178.1-10.3 74.7-75.8 92.2-93.8 153-5.7 19.2 4 81.3-0.1 88.2-3.3 5.6-10.2-3.4-4-5.1 5.3-1.5 5.9 7.7 0.4 6.8-6.1-1-5.2-22.3-5.7-27-15.3-130 71.2-116.4 93.1-210.8 14.1-60.6-10.4-122.1-27.9-179.3-1.3-4.1 2.6-9.1 4.8-3.9z"  fill="#005bbb" /><path d="M433.9-25.8c-11.6 24.9-20.3 51-27.2 77.6-1.3 5-3 28.4-11.2 26.1-6-1.7-2.8-11 3-8.7 5.8 2.3 1.6 11.3-3.9 8.3-11.1-5.9 22.3-98.6 30.3-108.8 4-5.1 10.7 0 9 5.5z"  fill="#fff" /><path d="M441.6-54.5c-15.9 30.6-27.8 62-35.9 95.4-1.5 6-4.7 38.9-13 36.7-7-1.8-1.5-12.5 4-7.8 4.8 3.9-1.8 11.1-6.1 6.6-6.1-6.2 6.4-39.6 8.4-47.6 6.7-27 15-67.8 33.7-89.4 4.4-5 11 0.5 8.9 6.1z"  fill="#fff" /><path d="M457.5-399.6c16.8 34 96.9 219.3 104.3 248.2 10.7 41.5 6.1 85.1-8.3 125.1-2.5 6.9-11.5 39.2-20.9 37.3-6.2-1.3-5.3-10.7 1-10.8 6.3-0.1 7.5 9.3 1.3 10.7-14.4 3.4 9.4-41.5 11.4-47 13.5-37.4 18.1-78.2 8.8-117.1-6.1-25.5-82.6-205.2-97.8-236.3-0.7-1.4-4.5-17.4 0.2-10.1z"  fill="#fff" /><path d="M457.1 11.7c-4.8 8.6-31.4 69.5-38.2 66.3-6.3-2.9-1.2-12.6 4.8-9.1 7 4.2-2.3 14-6.9 7.3-5.4-8 24.2-66.4 32.4-71.8 5.1-3.4 9.9 2.4 7.9 7.3z"  fill="#fff500" /><path d="M464.8-19.4c-5.8 11.1-46.5 99.4-51.5 97.2-6.3-2.6-1.6-12.3 4.4-9 5.9 3.3 0.2 12.4-5.3 8.5-10.3-7.3 34.9-93.2 43.5-102.9 4.4-5 11.1 0.6 8.9 6.2z"  fill="#005bbb" /><path d="M472.6-5.3c-5.6 10.1-43.4 86.3-49.7 83.2-6.3-3.1-0.9-12.8 5-9 6 3.8-0.5 12.9-6 8.4-9-7.2 33.7-80.5 41.8-89.1 4.7-5 11.2 0.9 8.9 6.5z"  fill="#fff" /><path d="M480.3-18.4c-5.8 11.2-50.7 99.5-57 96.3-6.3-3.1-0.8-12.9 5.1-9.1 6 3.8-0.5 12.9-6 8.5-9.5-7.6 40.4-92.2 49-102 4.5-5 11.1 0.7 8.9 6.3z"  fill="#005bbb" /><path d="M487-193.1c2.5 75.1-35.5 130.8-61.8 197.8-3.6 9.1-20.9 75.5-27.5 73.5-8.3-2.5 1.1-14.3 5.3-6.8 3.7 6.4-8 10.1-8.6 2.7-3.3-37.3 44.9-123.3 61.1-159 10.5-23.2 18.3-47.5 21.8-72.7 0.9-6.9-1.6-34.7 3.7-38.5 2.7-1.9 5.6 0.2 6 3z"  fill="#005bbb" /><path d=""  fill="#005bbb" /><path d="M502.1-181.4c11.9 88-15.8 140.2-55.4 215.1-4.1 7.8-15.5 42.9-23.4 44.5-6.8 1.5-8.5-9.5-1.6-10.1 8.1-0.8 6.6 12.7-1.2 10-10.6-3.7 57.9-126.4 63.6-141.9 9.1-25 13.3-51.4 13.4-78 0.1-8.6-6.2-34.6-1.6-41.2 1.9-2.8 5.6-1.3 6.2 1.6z"  fill="#fff" /><path d="M508.9-285c50.8 129.2 102.3 172 23.3 313.2-5.1 9.1-23.9 50.8-34.5 51.1-10.7 0.3-4.2-17.3 3.7-10.1 8 7.2-8.8 15.4-9.6 4.7-1.1-13.7 27-44.5 34-57 19.4-34.7 34.5-72.4 37.9-112.3 6-67.4-31.6-119.9-56.3-179.3-0.8-2-3-18.4 1.5-10.3z"  fill="#005bbb" /><path d="M516.7-332.9c20.4 55.7 63.5 111.8 77.5 163.5 16.7 61.7-7 129.5-32.5 185.4-4.8 10.6-23.3 62.1-35.4 63.1-10.3 0.9-5.1-16.4 3-9.9 8.1 6.5-7.6 15.4-9 5.1-0.9-6.4 27.1-52.9 31.7-62.8 20.5-43.7 38-91.4 39.6-140.1 2.3-71.3-51-127.3-75.6-190.9-0.8-2-4-22.6 0.7-13.4z"  fill="#c2e1ff" /><path d="M526.8 13.7c-4.9 9-38.5 71.6-48 64.7-6.3-4.6 1.5-14.2 7.4-8.9 5.8 5.3-3 14-8.3 8.1-5.6-6.4 33.1-63.1 40-70.4 4.7-5 11.2 1 8.9 6.5z"  fill="#fff" /><path d=""  fill="#c2e1ff" /><path d="M542.3 9.5c-4.7 9.4-38 76-48 68.8-6.4-4.6 1.4-14.2 7.2-9 5.8 5.3-3 14-8.2 8.2-5.3-5.9 33.3-66.4 40-74.1 4.4-5 11 0.5 9 6.1z"  fill="#c2e1ff" /><path d="M550-7.8c-4.7 11-45 94.2-56.2 86.1-6.4-4.6 1.4-14.2 7.3-8.9 5.8 5.3-3 14-8.2 8.1-6.2-6.9 13.7-29.1 17.5-35.2 7.3-11.7 23-49.8 31.5-56.4 4.6-3.6 9.5 1.5 8.1 6.3z"  fill="#fff500" /><path d="M556.8-380c-1.1 63 42.7 122.8 43.1 133.5 6.3 139.6 19.3 190.2-35.1 298.6-4.5 8.9-15.5-3.3-6.9-6.9 7.7-3.3 10.2 10.3 1.9 10-11.8-0.4 13.6-50.3 16.5-57.4 19.9-48.9 16.2-68.7 17.2-128.1 0.6-38 2.3-76 2.7-114.1 0.1-12.8-21.9-38.3-27.5-50.6-10.4-22.9-17.1-47.4-19-72.5-0.3-4.2 5.1-27.4 7.1-12.5z"  fill="#fff" /><path d="M543.5-398.6c1.3 44.6 12.3 87.6 33.7 126.7 4.6 8.4 24.9 32.6 23.5 41.6-0.5 3.5-6 1.4-4.1-1.6 2.3-3.5 6.4 2.5 2.4 3.4-4.2 1-16.4-25.5-18.8-29.5-24.8-42-40.6-85.7-43.9-134.8-0.3-5.2 5.6-15 7.2-5.8z"  fill="#c2e1ff" /><path d=""  fill="#fff" /><path d="M580.9-7.1c-4.2 10.5-35.1 90.8-45.2 85-6.4-3.7 0-13.5 5.9-9.1 6 4.4-1.4 13.4-6.8 8.4-5.6-5.1 30.8-80.5 37.2-89.2 3.7-5.1 10.4-0.4 8.9 4.9z"  fill="#fff" /><path d="M588.6 29.8c-2.8 7.3-14.9 52.1-23.5 48.4-6.3-2.7-1.6-12.3 4.4-9 6 3.3 0.2 12.4-5.3 8.5-5.4-3.9 11.6-52.9 18.4-54.6 4.3-1.1 6.9 3 6 6.7z"  fill="#c2e1ff" /><path d=""  fill="#c2e1ff" /><path d="M603.3-16.3c-4.4 11.1-34.5 98.2-42.6 94.5-6.3-2.8-1.3-12.5 4.6-9 6 3.5 0 12.6-5.5 8.5-7.3-5.4 27.8-89.4 34.6-98.9 3.7-5.1 10.4-0.5 8.9 4.9z"  fill="#c2e1ff" /><path d="M603.3-58.6c-5.9 18.8-46 130.8-57.4 136.7-7.6 3.9-11.2-9.8-2.6-10.2 8.5-0.3 6 13.6-1.9 10.3-9.6-4 12.9-40.5 16-47.3 6.6-14.8 31.5-88.3 37.9-94.5 3.9-3.8 9 0.4 8 5z"  fill="#c2e1ff" /><path d="M603.4-53.6c-5.9 17.9-44.9 126.1-55.4 131.6-7.5 3.9-11.2-9.7-2.7-10.1 8.5-0.4 6.1 13.5-1.8 10.3-9.5-3.9 11.8-38.8 14.8-45.6 6.3-14.3 30.6-85.3 37-91.4 4-3.8 9.1 0.6 8.1 5.2z"  fill="#c2e1ff" /><path d="M603.4-11.1c-3 7.6-17.5 56.2-26.2 52.4-6.3-2.8-1.4-12.5 4.6-9 6 3.5 0 12.6-5.5 8.4-6-4.4 13.4-52.8 19-57.6 4.3-3.7 9.4 1.1 8.1 5.8z"  fill="#c2e1ff" /><path d="M603.5-12.1c-4.3 10.7-32.4 93.8-40.4 90.3-6.3-2.7-1.5-12.4 4.5-9 6 3.4 0.1 12.5-5.4 8.5-7.5-5.4 25.8-85.5 32.3-94.7 3.7-5.1 10.4-0.5 9 4.9z"  fill="#fff" /><path d=""  fill="#fff" /><path d=""  fill="#c2e1ff" /><path d="M603.3 3.9c-3.7 9.3-24.5 76.9-32.1 73.9-6.2-2.5-1.8-12.1 4.1-9 5.9 3.1 0.5 12.2-5 8.5-7.3-4.9 18.5-70.1 24.1-78.2 3.6-5.1 10.3-0.6 8.9 4.8z"  fill="#c2e1ff" /><path d=""  fill="#fff" /><path d=""  fill="#005bbb" /><path d="M603.4 24.3c-2.7 7.5-14.6 56.4-22.7 53.6-6.2-2.2-2.2-11.7 3.7-8.9 5.9 2.8 1 11.9-4.6 8.5-7-4.4 10.4-51.1 14.7-57.6 3.4-5.1 10.1-0.9 8.9 4.4z"  fill="#005bbb" /><path d="M603.4 30.5c-2.1 5.9-5.9 29.7-13.4 29.5-7.7-0.2-4.6-12.6 2.3-9.2 5.9 2.9 0.8 12-4.8 8.5-13-8.3 21-53.1 15.9-28.8z"  fill="#c2e1ff" /><path d=""  fill="#fff500" /></svg>