<svg width="1200" height="675" viewBox="-500 -500 1200 675" xmlns="http://www.w3.org/2000/svg"><path d="M-500-500h1200v675h-1200z" fill="#000"/><path d=""  fill="#fff" /><path d="M-396.6 33.4c1.6 2.2 9.7 8.8 7.7 12-1.5 2.4-5.2-0.2-3.4-2.4 2.1-2.6 5.5 1.7 2.6 3.1-9.1 4.6-13.4-18.9-6.9-12.7z"  fill="#c2e1ff" /><path d=""  fill="#fff" /><path d=""  fill="#c2e1ff" /><path d="M-395.9 15.7c10.3 19 25.2 34.6 41.6 48.5 1.8 1.5 11 6.9 10.8 9.5 0 0.4-0.2 0.7-0.5 1-2.6 1.9-13.7-9.7-15.7-11.4-15.7-13-30.2-27.3-41.4-44.4-2.2-3.4 2.8-6.3 5.2-3.2z"  fill="#fff500" /><path d="M-394.4-18.6c7.2 27.9 22.6 51.4 43 71.2 4.5 4.3 21.2 14.8 22.5 20.4 0.1 0.5-0.2 1.2-0.6 1.6-3.1 2.1-19.5-15.3-22.2-17.7-22.6-20.3-41.5-43.7-51-72.9-1.8-5.4 6-7.5 8.3-2.6z"  fill="#c2e1ff" /><path d=""  fill="#005bbb" /><path d="M-393.5-56.1c3 38.1 14.9 72.4 41.2 100.8 3.3 3.5 30.7 29.2 28.9 30.1-0.1 0-0.7 0.2-0.8 0.2-4.1-0.3-11.4-9.6-14.5-12.4-35.9-32-60.7-68.5-65.2-117.6-0.7-6.9 9-7.6 10.4-1.1z"  fill="#c2e1ff" /><path d="M-394.9-7.3c1.5 4.4 12.6 20.4 6.6 23.3-3.4 1.6-6.3-3.1-3.4-5.4 3.4-2.7 7.4 2.9 3.8 5.3-6 3.8-14.8-18.6-14.5-22.1 0.4-4.3 5.7-4.4 7.5-1.1z"  fill="#005bbb" /><path d="M-391.3-213.9c12 64.4-0.9 162.5 20.4 214.5 9.7 23.8 26.7 42.9 45.1 60.4 2.6 2.5 13.2 9.6 12.6 12.9-0.4 2.7-4.7 1-3.1-1.2 1.8-2.7 4.9 1.9 1.8 2.7-4.9 1.1-22.3-19.9-26-23.6-74.1-73-44.4-150.7-57-241.9-0.9-6.6-5.4-18-3.3-24.4 1.6-5.1 8.1-3.8 9.5 0.6z"  fill="#fff" /><path d=""  fill="#005bbb" /><path d="M-365.8-393.3c-39.4 69.9-12.4 144.1-6.8 218.5 3.6 47.9-6.9 96.8 0.7 144.3 3.4 21.7 11.7 41.9 24.5 59.6 1.1 1.6 15.9 16.3 8.8 16.5-6.6 0.2 2.9-8.4 2.1-1.9-0.6 4.5-5-0.3-5.9-1.2-59.6-65.7-36.1-142.6-41.4-222.6-4.1-61.1-26-124.2-10.1-185.1 12-46 35.2-47.3 28.1-28.1z"  fill="#fff500" /><path d="M-355.9-277.2c1 34.3 4.4 68.6 4.2 103-0.3 54.1-18.4 112.5-1.8 165.3 13.1 41.7 46.1 57.5 56.9 81.7 1.9 4.1-6.3 3.2-3.5-0.4 2.4-3 5.8 2.7 2 3.3-5.6 0.9-23.5-23.8-27.5-28.3-60.8-67.8-42.9-125.8-38.4-207.8 2-36.1-1.1-72.1-2.8-108.1-0.4-7.6 8.6-22.5 10.9-8.7z"  fill="#fff" /><path d="M-381.8-394.2c-21.9 35-10.5 45.1-12 107.3-1.1 47.9 6.5 90.2 9.6 137.1 2.8 41.2-3.7 83.7 4.7 124.4 0.4 2 2.1 18.2-5.9 10.6-14.2-13.6 22.7 1.3 3 1.2-16.7-0.1-12.6-87.4-12.4-99.5 0.4-35-5.3-68-8.3-102.6-4.6-55.2-1.9-116.1-1.4-170.3 0.2-21.2 29.8-25.4 22.7-8.2z"  fill="#005bbb" /><path d="M-331.4-375.7c-24.1 66-12.9 135.1-15 203.7-1.4 47.8-15.5 97-7.8 144.7 4.3 26.4 16.8 49.4 33.6 69.9 1.5 1.8 19.7 19.3 12.6 19.6-9.3 0.3 8-7.3 1.4-0.6-2.8 2.8-7.6-5-8.4-6-74.8-82.1-44.9-144.3-42.8-242.8 1.3-63.8-7.8-128.2 11.4-190.2 3.2-10.2 17.4-10 15 1.8z"  fill="#c2e1ff" /><path d="M-360.3-394.7c-37.2 67.4-15.6 137.3-9.4 209.2 2.7 31.8 0.8 63.3-1.1 95.1-0.6 10.3 5.1 53.4-1.1 59.1-5.9 5.4-12.5-6-4.9-8.5 7.6-2.4 8.8 10.7 0.9 9.8-16.6-2.1-4.4-100.2-4-114.1 2.2-69.1-23.8-139.6-11.7-208.1 2.7-15.5 7.3-39.2 17.9-51.5 6.5-7.5 16.5 0.7 13.4 9z"  fill="#fff500" /><path d=""  fill="#005bbb" /><path d="M-297.2-210.7c-12.4 59.2-38.2 146.7-20 205 5 15.9 46.6 74.3 46.5 79.3-0.1 5-8.1 1.6-4.6-2 3.5-3.5 7 4.5 2 4.6-7.2 0.2-26.4-34.2-30.6-40.5-20.4-30.3-32.1-63.3-31-100.2 0.8-26.3 15-129.1 24.9-150.4 3.5-7.5 13.3-3.1 12.8 4.2z"  fill="#fff500" /><path d=""  fill="#005bbb" /><path d="M-274.2-97.8c-8.6 43.1-7.5 84.6 10.5 125.2 4.5 10.2 25 36.5 23.2 46.9-1.1 6.2-10.4 0.5-5.4-3.3 4.3-3.2 8 4.9 2.8 6.1-6.7 1.4-18-28.7-20.7-33.9-21.7-41.6-31.7-83.5-25.5-130.3 0.7-5.5 0.1-19 8.9-18.6 4.3 0.2 6.4 3.9 6.2 7.9z"  fill="#fff" /><path d="M-262.1-313.8c-29.1 63.8-71 223.2-59.2 290.9 5.1 29.4 20.5 54.3 37.8 78 1.3 1.7 18.8 21.7 9.9 21-13.4-1.1 13.7-4.8 1.2-0.1-5 1.8-13.8-15.7-16.1-18.9-54.7-74.4-49.5-121.9-33.1-208.5 6.2-32.7 10.8-65.7 19.4-97.9 5.9-21.9 12.6-54.4 26.8-72.5 5.9-7.6 15.9-0.1 13.3 8z"  fill="#c2e1ff" /><path d=""  fill="#005bbb" /><path d=""  fill="#fff500" /><path d="M-227.4-274.4c-33.8 67.1-72.3 175.5-61.5 251.1 4.5 31.3 42.2 89 41 97.5-0.8 6-9.9 0.8-5.2-3 4.7-3.8 7.7 6.2 1.7 5.7-7.2-0.6-19.7-31.6-23.2-37.9-51.2-93.1-16.1-217.7 27.1-308.8 7.4-15.7 27-24.2 20.1-4.6z"  fill="#c2e1ff" /><path d="M-215.9-319.6c-38.3 83.9-91.7 193.7-82.1 288.9 3 29.5 44.4 104.1 44.4 104.8-0.6 5.7-9.5 1-5.1-2.7 4.4-3.7 7.6 5.8 1.8 5.4-8.7-0.5-28.5-44.6-32.7-52.7-12-23.2-19.5-48-20.5-74.2-2.4-62.6 41.3-229.7 80.9-278 6.2-7.5 16.1 0.3 13.3 8.5z"  fill="#c2e1ff" /><path d="M-207.5 20.7c2.1 7.2 23.2 54.2 16 56.4-5.2 1.6-7.3-6.7-2-7.7 5.3-1.1 6.5 7.4 1.2 7.9-7.2 0.6-22.9-47.8-23.5-55-0.4-5.2 6.3-5.8 8.3-1.6z"  fill="#c2e1ff" /><path d="M-192.9-326.1c-35.4 93.3-92.4 182.9-88.3 287.2 1 26.5 9 51.5 20.5 75.2 3.9 8 20.5 29.4 19.2 37.7-1 6.2-10.4 0.5-5.4-3.2 5-3.8 7.9 6.7 1.7 6-7.8-0.9-22.3-38.6-25.9-45.9-57.8-118.4 15.5-251.3 62.8-360 4.3-9.9 18.8-9.1 15.4 3z"  fill="#fff500" /><path d="M-181.5-161.9c-17 53.5-30 108.7-17.4 164.7 4.5 19.8 11.6 38.8 19.1 57.8 1 2.6 9.3 16.6 0.7 16.5-4.6 0-5.3-6.9-0.7-7.8 4.5-0.9 6.6 5.6 2.4 7.4-7.8 3.5-18.5-36-20.7-41.7-21.4-58.3-20.9-115.2-4.9-174.8 2.4-8.8 4.6-17.7 7.6-26.3 3.2-9.1 15.5-4.7 13.9 4.2z"  fill="#fff500" /><path d="M-168.8-398.9c14.4 65.6-35.4 134.1-57.4 193-13.1 34.9-23 71.4-30.2 108-5.2 26.5-7.9 53.6-3.9 80.5 1.6 10.4 13.8 34.6 11.2 43.8-2 7-12-0.7-5.7-4.4 6.2-3.7 8.2 8.7 1.1 7.1-7.5-1.7-12-27.7-13.6-34-27.7-104.8 32.3-217.5 71.5-311.4 15.8-37.7 14.1-74.4 17.4-83.6 1.9-5.2 8.4-3.6 9.6 1z"  fill="#fff500" /><path d="M-162 58.5c1.7 3.9 9.6 14.2 4.9 18-3.9 3.2-8.6-3.2-4.3-6 5-3.2 8.4 6 2.5 6.8-14.2 2-9.6-29.8-3.1-18.8z"  fill="#fff500" /><path d="M-150 3.6c2.7 8.5 35.1 71.4 34 72.1-3.3 2-6.1-3.3-2.6-4.9 3.5-1.6 5.7 4 2 5.2-5 1.7-11.1-12.8-12.9-15.6-9.6-14.8-26.5-37-28.4-55-0.5-5 5.9-5.8 7.9-1.8z"  fill="#fff500" /><path d=""  fill="#fff500" /><path d="M-123.8-105c-14.8 44.1-12 90.3 12 130.6 4.9 8.3 37.5 44.4 38 47.9 0.5 3.4-5.4 2-3.4-0.9 2-2.8 5.3 2.3 1.9 3-4.8 0.9-17.3-16.5-20.4-20-38-42.4-57.4-94.9-45.2-151.7 3.1-14.6 20.5-29.7 17.1-8.9z"  fill="#fff" /><path d="M-88.2-398.8c4.3 46-63 214-80 270.8-7.5 25.3-13.2 51.3-13.5 77.8-0.1 4.9 5.8 31.4-5.4 28.4-7.9-2.1-1.7-14.2 4.6-9 6.3 5.2-4.4 13.6-8 6.2-21.5-45 22.6-150.1 36.8-195.5 16-51.2 41-102.8 51.7-155.3 1.2-5.8-1.2-27.7 7.5-28.8 3.6-0.5 5.9 2.2 6.3 5.4z"  fill="#005bbb" /><path d="M-100.5-181.8c-24.8 55.7-52.8 114.4-33.7 176.3 7.4 24 20.8 45.7 36.5 65.1 1.2 1.4 16.4 16 9.3 16.2-2.5 0.1-3-3.6-0.6-4.2 2.8-0.7 3.7 3.7 0.8 4.2-4.2 0.6-11.6-11.5-13.9-14.3-35.4-41.6-56.4-91.5-48.4-146.7 4.6-31.3 16.9-79.1 36.6-104.6 5.9-7.6 15.8-0.2 13.4 8z"  fill="#fff" /><path d="M-89-261.8c-29 61.4-74.9 168.1-65.9 235.2 3.8 28.7 15.5 55.4 30.5 79.9 1 1.7 18.1 23.5 9.5 22.7-3.7-0.3-2.8-6.1 0.8-5.4 3.1 0.6 2.7 5.4-0.5 5.4-6 0.1-16.6-22.1-19.6-27-28.9-46.8-40.5-98.5-28.6-152.8 11.9-54.4 35-114.5 59.5-164.4 4.6-9.4 17.3-3 14.3 6.4z"  fill="#005bbb" /><path d="M-77.5-98.5c-17.2 42-10.8 85.5 17.9 120.7 11.9 14.6 26.2 27 40.3 39.4 1.6 1.4 16.4 11.1 11.6 13.4-6 2.9 5.8-3.6 0.2-0.1-2.9 1.8-7.9-5.6-9.3-6.9-42.3-38.1-87.5-76.8-81.8-139.6 0.8-9 1.7-28.2 8.9-34.9 6.1-5.7 13.7 1 12.2 8z"  fill="#005bbb" /><path d="M-71.1 17.4c11.7 16.2 26.7 29.8 41.7 42.9 1.8 1.6 16.5 11.4 13.7 14.1-0.1 0.1-0.6 0.4-0.8 0.4-3.1 0.8-9.4-7.4-11.4-9.1-16.4-14.3-33.1-28.4-47.1-45.1-2.1-2.5 1.6-5.3 3.9-3.2z"  fill="#fff500" /><path d="M-60.3 46.7c3.1 3.1 30.4 26.1 28.6 27.9-4.2 4.4 3.8-4.9 0.1-0.1-2.5 3.2-9.3-5.9-10.7-7.2-21.1-18.2-22.2-23.7-18-20.6z"  fill="#005bbb" /><path d="M-42.9-313.3c-46.2 55.8-111.5 200.8-107.3 273.3 2.5 42.5 22.7 78 47.2 111.7 2.3 3.2-3.5 5.9-4.4 2.1-2.1-9.1 10.8 4.3 1.8 1.8-8-2.1-19.2-24.8-23.5-31.6-34.1-53.1-40.3-111.7-21.1-171.4 18.9-58.7 42.5-123.3 76.7-174.8 5-7.6 10.6-18.4 17.9-24 8.8-6.8 17.9 4.5 12.7 12.9z"  fill="#fff" /><path d=""  fill="#fff500" /><path d="M-25.7 39.7c3.8 3.7 37.4 32.4 34.5 35-1.6 1.5-4.1-0.7-2.8-2.5 1.5-2.1 4.7 0.5 3 2.4-3.1 3.5-11.8-9-13.7-10.7-7.7-7.4-29.7-30.5-21-24.2z"  fill="#fff" /><path d="M-14.3 59.8c2 1.8 16.7 11.8 13.6 14.8-1.7 1.6-4.2-1.2-2.3-2.7 1.9-1.4 4 1.7 2 2.9-6 3.6-18.6-18.7-13.3-15z"  fill="#005bbb" /><path d="M3-395.8c-13.8 41.4-47.9 72-70.8 108.1-23.9 37.7-38.3 80.4-54.6 121.7-8.8 22.3-23.3 80.5-29.1 92.6-1.6 3.2-5.6 4.5-8.8 2.9-7.6-4.2-0.4-15.7 6.7-10.8 6 4.2 0.7 13.9-6.1 11-15.2-6.3 11.8-71.9 16.1-83 43.6-115.1 47-119.3 115.9-219 6.1-8.9 10.8-25.4 18.8-32.2 6.4-5.4 13.8 1.7 11.9 8.7z"  fill="#fff500" /><path d="M9.2 39.6c6 6.4 29.5 25 29.6 33.8 0 4-6.5 2.6-4.9-1 1.6-3.7 7 0.3 4 2.9-4.3 3.8-11.6-10.5-13.5-12.8-12.4-14.6-24.8-30.9-15.2-22.9z"  fill="#fff" /><path d="M26.4-371.9c-21.7 34.2-55.9 58.3-80.4 90.4-37.2 48.7-74.1 134.4-87.1 194.3-11 50.8 14.9 108.8 14.2 112.8-1.2 7.2-11.2-1.3-4.3-3.7 5.8-2 5.3 8.7-0.3 6.2-9.2-4.2-16-32.1-18.6-41.2-22.8-77.8 33.5-206 76.6-271.5 9.7-14.7 77.3-94.4 88.8-100.2 8.6-4.4 15.1 5.5 11.1 12.9z"  fill="#005bbb" /><path d="M37.7-196.6c-40.6 43-98.2 106.5-79.8 170.9 10.3 36.1 40.5 60.8 65.2 87.3 0.6 0.6 15.4 14.5 7.5 14.4-11.5-0.2 11.6-4.9 1-0.2-3.5 1.5-7.3-6.2-8.6-7.8-38.6-45.6-92.1-84.3-77.4-152 6-27.6 55.2-118.3 82-127.9 9.9-3.5 15.4 8 10.1 15.3z"  fill="#fff" /><path d="M39.6-394.9c-22.5 56.7-92.2 88-140.8 201.7-13 30.5-27.5 61.2-36.5 93.2-1.6 5.8-2.9 37.4-14.9 30.8-6.5-3.5-2.3-13.7 4.8-11.6 7.1 2.1 5.2 12.9-2.1 12.4-12.3-0.8-2.8-28.6-1.5-34.4 14.2-61.5 50.4-145.8 88.6-196 24.7-32.6 59.8-56.9 81.7-91.6 3.3-5.1 6.2-16.4 14.2-15.8 5.9 0.5 8.1 6.2 6.5 11.3z"  fill="#fff500" /><path d="M56.5 24.4c5.7 9.8 29.5 38.8 26.5 50.2-1.6 5.9-10.6 1.3-6.7-3.5 3.9-4.7 10.2 3.3 4.6 6-6.6 3.2-10.5-14.5-12-17.7-5.1-10.5-14.7-21.5-18-32.5-1.1-3.7 3.6-5.2 5.6-2.5z"  fill="#c2e1ff" /><path d="M69.1-6.4c4.3 12.4 35.3 74.7 32.5 81.7-2.6 6.6-12.4 0-7.2-4.9 5.2-4.9 11.2 5.2 4.5 7.5-3.4 1.2-36.3-72.9-37.5-82.4-0.6-4.8 5.6-5.8 7.7-1.9z"  fill="#c2e1ff" /><path d="M82.3-395.4c-19.2 52.8-71.6 77.8-110.1 114.2-33.9 32.1-54.1 73.8-73.4 115.6-15.1 32.7-30.9 66.4-34 102.7-0.5 5.6 5.6 50.1-4.9 44.6-4.8-2.5-1.8-10.1 3.5-8.7 6.1 1.7 2.9 11.2-3 8.9-9.6-3.8-7.8-37.2-7.6-45.4 1.6-70.7 58.3-183.8 107.8-233.5 25.5-25.6 57.3-43.8 82.5-69.6 10.2-10.4 16.6-29.6 27.3-38.1 6.7-5.3 14.1 2.2 11.9 9.3z"  fill="#fff" /><path d="M95-319.5c-24.1 22.7-53.9 38.1-80.9 56.9-56.8 39.4-102.7 105.6-122.2 172.2-8.3 28.5-8.2 58.7 3.2 86.4 4.2 10.1 22.9 29.5 23.4 39 0.3 4.9-7.6 0.7-3.4-1.8 4.2-2.5 4.2 6.4 0 3.9-10.5-6.3-19.8-25-25.3-35.6-38.9-74.6 6.6-158.9 51.2-220 26.6-36.5 103-97 142.9-117.4 10.9-5.5 18.3 8.4 11.1 16.4z"  fill="#fff" /><path d="M104-2.3c4.9 15.4 30.1 63.5 21.6 78.4-4.1 7.1-14.2-2-7.5-6.8 6.7-4.7 12 7.8 3.9 9.3-9.7 1.8-9.2-24.6-10.5-30.2-3.9-15.7-14.3-33.2-15.7-49.1-0.4-5.1 6.2-5.8 8.2-1.6z"  fill="#005bbb" /><path d="M115.6 30.7c2.5 7.2 17.4 43.3 7.7 47.4-6.5 2.7-10.2-7.7-3.5-9.7 6.7-2 9.3 8.7 2.5 10-7.5 1.4-16-41.1-14.9-47.1 0.8-4.6 6.5-4.2 8.2-0.6z"  fill="#fff" /><path d="M127.3-31.2c3.6 13.2 37.7 105.4 20.7 110.4-7.5 2.2-10.3-9.8-2.6-11.2 7.7-1.4 9.2 10.8 1.4 11.4-10.5 0.7-8-34.3-9.4-41.4-2.8-14.5-20.9-58.1-18.6-68.9 1-4.8 6.9-4.2 8.5-0.3z"  fill="#fff" /><path d="M141.4-221.3c-8.3 28.5-9.3 58.2-5.4 87.5 7.8 59.9 37.3 113.9 46 173.4 1.1 7.4 7.9 37.9-3 40.1-9.5 2-9.3-14.2 0.2-12 9.5 2.2 2.5 16.8-5.2 10.9-7-5.4-2.3-39.3-3.7-48.9-10.1-66-43.9-125.1-47.7-192.8-1-18.1-2.9-46.6 5.8-63.2 4-7.6 14-2.6 13 5z"  fill="#005bbb" /><path d="M150.4 4.8c3 10 22.6 70.9 7.8 74.7-7.8 2-10.2-10.4-2.3-11.6 7.9-1.1 9.1 11.5 1.1 11.7-10.7 0.4-6.2-26-6.8-31.9-1.2-11.7-10.6-31.6-8.3-42.6 1-4.7 6.9-4.2 8.5-0.3z"  fill="#fff" /><path d="M162.1 11.9c2.7 9.5 18.5 64.4 4.4 67.7-8 1.9-10.2-10.8-2.1-11.8 8.1-1 9 11.9 0.8 11.9-3.4 0-6.3-2.9-6-6.2 1.1-20.9-5.9-40.3-6-60.5 0-5.5 7.1-5.7 8.9-1.1z"  fill="#c2e1ff" /><path d="M176.3-311.3c-34.1 97.1-62.6 122.9-34.7 232.9 8.7 34.1 48 122.3 35.6 153.7-3.5 8.9-16.8 0-9.8-6.6 8.2-7.8 15.5 10.4 4.2 10.4-8.2 0-9.9-60.1-12.6-70.7-17.4-68.3-47.1-132.4-38.8-204.8 4-34.8 22.7-93.1 42.8-121.9 5.3-7.6 15.2-0.9 13.3 7z"  fill="#fff500" /><path d="M184.6-132.4c22.3 63.1 47.9 124 46.6 192.3-0.1 5.4 2 18.5-5.8 19.9-9.8 1.7-9.1-14.8 0.5-12.2 9.6 2.5 2.1 17.2-5.6 10.9-5.8-4.8-1-55.6-3.5-74.6-6.5-47-24.7-89.1-39.8-133.5-1.7-5.1 5.3-7.3 7.6-2.8z"  fill="#005bbb" /><path d="M244.4-399.7c25.8 53.5 11.6 111.8 10.4 168.4-0.7 33 1.4 66 2.7 98.9 0.5 13.5 6.1 89.3 1.3 95.8-5.4 7.3-15.3-4-7.4-8.3 7.9-4.4 12.2 10.1 3.2 10.6-2.5 0.2-4.9-1.4-5.8-3.7-5.8-16.3-4.5-140.4-5.3-167.6-1.4-49.3 8.8-99.4 4.3-148.4-1.4-15.4-8.2-28.9-10.5-43.7-0.7-4.5 5.1-5.5 7.1-2z"  fill="#fff" /><path d="M210.2-309.1c-4.4 33.8-11.3 66.9-7 101.2 9.9 80.4 41.2 141.8 44.7 232 0.4 9.1 5.5 53.4-5.9 55.4-9.8 1.7-9.1-14.8 0.5-12.2 9.6 2.6 2 17.2-5.6 10.8-6.1-5.1-0.1-65.3-1.9-87-6.3-77.7-42.4-154-44.7-227.1-0.7-22.5-0.9-55.2 7.6-76.4 3-7.3 12.5-3.7 12.3 3.3z"  fill="#c2e1ff" /><path d="M220.5-367.6c8.7 54.4-9 108.8-1.3 163.5 7.4 53.2 50.8 236.9 31.5 279.8-4.1 9.1-17.4-0.8-9.8-7.3 8.8-7.6 15.5 11.5 3.8 11-11.7-0.5-4-30.2-3.8-37.2 1.1-35.9-1.3-72-5.7-107.6-6.9-56.3-25.8-111.2-29.6-167.8-2.9-43.6 8.3-86.6 4.9-130.1-0.6-7.2 7.8-13.4 10-4.3z"  fill="#fff500" /><path d="M231.5-377c15.3 57.6-1.2 119.3 5.3 178.2 5.6 50.2 34.7 236.5 17.5 274.6-4.1 9.1-17.4-0.8-9.9-7.3 8.8-7.6 15.5 11.6 3.9 11-11.8-0.5-3.7-36.1-3.5-43.3 1.2-40.7-1-81.6-4.5-122.1-4.5-51.8-15.7-103.3-17.5-155.3-1.4-40.2 6.7-80.6 1.7-120.6-0.5-4.2-4-12.3-1.6-16.5 2.2-4 7.3-2.4 8.6 1.3z"  fill="#fff" /><path d="M244.1 34.9c0.3 7.5 5 46.7-8 44.7-8.4-1.3-5.7-14.4 2.6-12.2 8.2 2.2 4.1 15-3.9 11.9-7.4-2.8-4.4-40.9-1.4-46.9 2.9-5.6 10-2.9 10.7 2.5z"  fill="#005bbb" /><path d="M255.5-115.3c1.4 24.9 9.7 182.4 0.1 192.8-6.8 7.3-16.2-6.3-7-10.1 9.2-3.8 12 12.6 2.1 12.1-2.8-0.1-5.2-2.2-5.9-4.9-4.1-17.9 2.9-44.5 3-63.3 0.2-42.1-2.7-84-3.3-126-0.1-7.3 9.8-7.4 11-0.6z"  fill="#005bbb" /><path d=""  fill="#005bbb" /><path d="M279.5-266c-12.5 75.1-13.8 152.8-15.3 228.8-0.5 26.4 5.8 90.9-4.2 112.9-4.1 9.1-17.4-0.9-9.8-7.3 8.9-7.6 15.5 11.6 3.8 11-11.2-0.5-2.4-64-2.2-74.3 1.8-86.5 1.3-174.3 12.9-260.2 3.6-26.6 14.9-13 14.8-10.9z"  fill="#c2e1ff" /><path d="M291.3-282.5c-17.5 77.4-22.8 157.8-25.5 236.9-0.9 24.9 3.4 103.1-5 121.6-4.9 10.7-18.9-4-8.1-8.5 9.3-3.7 12 12.6 2 12.2-17.5-0.9 13.2-315 19.6-347.7 1.2-5.9 0.9-21.5 9.3-22.8 5.1-0.8 8.1 3.7 7.7 8.3z"  fill="#005bbb" /><path d="M303-231c-23 76.2-32.4 155.7-35.5 234.9-0.4 10.2 2 78-11.1 75.9-8.5-1.4-5.6-14.6 2.6-12.3 7.1 1.9 5.3 12.7-2 12.3-12.1-0.6-2.6-49-2.2-57.5 3.9-86.3 11-170.6 33.7-254.3 2.7-10 16.4-10.7 14.5 1z"  fill="#c2e1ff" /><path d="M314.7 0.4c-4.9 12.8-13.2 72.4-18 77.3-8.3 8.5-16.7-10.5-4.8-10.9 10.1-0.4 7.1 16.2-2.2 12.3-10.9-4.6 4.7-78.7 12.9-86.5 5.9-5.7 13.6 0.8 12.1 7.8z"  fill="#fff500" /><path d="M326.4-259.7c-37.4 77.7-52.4 167.6-57 252.9-0.6 11.2 0.9 88.6-12 86.6-7.2-1.2-6.7-12.1 0.7-12.5 8.5-0.5 8.6 13 0 12.6-11.3-0.6-4.2-24.7-3.7-30.8 6.2-85 10.2-166.3 34-248.7 5.9-20.4 11.3-51.3 24.6-68.3 6-7.6 16 0 13.4 8.2z"  fill="#005bbb" /><path d="M337.9-111c-30.8 33.9-45.5 75.9-52.3 120.5-2.2 14.8 0.9 57.9-9.1 68.4-8.1 8.5-16.7-10.1-4.9-10.7 10-0.5 7.3 16-2 12.2-9.2-3.7-1.5-28.8-0.8-35.9 5.8-56.3 13.9-113.7 49.6-159.9 8.6-11.1 29.7-10.3 19.5 5.4z"  fill="#005bbb" /><path d="M349 60.4c-1 3.9-4.7 29.1-14.6 17.4-15.9-18.9 30.6-3 6.5 2.2-12.4 2.7-7.1-19.2-4.8-24 3.7-7.6 13.6-3 12.9 4.4z"  fill="#005bbb" /><path d=""  fill="#fff" /><path d=""  fill="#c2e1ff" /><path d="M379.5-395c-10.6 26-25.7 50.1-38.9 74.8-30.4 57.3-47.1 117.7-58.7 181.3-4.1 22.6-6 83.1-14.1 87.7-8.5 4.8-13.3-10.6-3.5-11.5 9.7-0.8 7.6 15.2-1.6 11.9-10.6-3.8-0.6-44.2 0.5-52.8 15.3-122.1 42.2-179.2 96.5-286.3 12.4-24.5 21.1-9.2 19.8-5.1z"  fill="#005bbb" /><path d="M395.4-27.3c-20.6 20.1-37.3 43.1-46.7 70.5-2.2 6.5-5.4 43.5-17.7 36.2-7.6-4.6 0.2-16.2 7.3-10.9 6.1 4.6 0.2 14.3-6.7 11.2-10.2-4.7 1.4-34 3.5-41.5 7.5-25.9 24.2-65.3 48.3-80.4 10-6.2 18.3 6.5 12 14.9z"  fill="#fff500" /><path d="M406.2-104.7c-39.5 30.5-77.6 55.9-95 105.3-7.4 21.1-11.8 85.7-24.7 78.5-6.5-3.6-2.2-13.8 4.9-11.7 8.3 2.5 3.7 15.4-4.3 12-8.9-3.7-1.6-24.9-0.6-31.4 10.2-71.2 38.9-119.4 96.9-161.7 17.4-12.7 41-8.5 22.8 9z"  fill="#c2e1ff" /><path d="M418.4-36.2c-22.6 22.5-43.9 46-56 75.9-2.7 6.7-7.9 46.8-20 39.4-6.5-4-1.6-14.4 5.6-11.8 8.5 3 3.1 16.1-5 12.1-10.8-5.1 2.9-37.9 5.6-45.5 9.7-28.3 31.4-68.9 57.9-85.1 10.1-6.2 18.3 6.7 11.9 15z"  fill="#005bbb" /><path d="M424.8-391.9c-88.2 90.8-123.8 162-145.4 286.9-5.3 30.8-8.2 62-10 93.2-0.3 5.1 2.4 30.6-9.4 25.2-7.4-3.4-1.5-14.8 5.5-10.6 6 3.5 1.7 13-4.9 10.9-10.2-3.4-2.2-45.1-1.6-53.9 7.7-110.7 34.5-230.5 107.2-317.4 13-15.6 29.3-38.6 46.7-49.3 10-6.2 18.3 6.7 11.9 15z"  fill="#005bbb" /><path d="M441.3-93.9c-37.7 37.5-85.9 62.6-107.2 114-4.3 10.5-8.8 54.9-17.7 59.3-10.8 5.3-12.4-15.6-0.9-12 9.8 3.1 1.3 17.9-6.3 11-6.4-5.8 0.8-24.9 2.3-32 12.1-59.3 45.9-96.5 91.6-133.4 8.6-7 17.1-17.1 26.7-22.5 10.4-5.9 18.3 7.5 11.5 15.6z"  fill="#fff" /><path d="M453.4 9.1c-10.4 17.8-26.6 68.2-35.8 71-11 3.4-12.5-15.7-1.1-14.1 11.4 1.6 4.8 19.5-4.9 13.3-12-7.7 20-74.8 30-81.3 7.8-5 14.8 3.8 11.8 11.1z"  fill="#c2e1ff" /><path d="M455.5-390.7c-107.6 92.7-132.9 115.7-167.9 258.1-7.8 31.8-12.8 64.2-15.5 96.9-0.4 5.1 1.8 33.4-10.3 27.7-7.5-3.5-1.3-14.9 5.7-10.6 7 4.3-0.3 15-6.8 9.9-8.4-6.5 0.4-44.1 1.4-53.7 9.3-88.9 34.5-188.4 89.9-260.3 22.8-29.5 58.5-68.5 92.6-84.9 11.1-5.4 18.4 8.9 10.9 16.9z"  fill="#c2e1ff" /><path d="M455-390.9c-103.8 89.6-129.7 112.3-165.2 249.4-7.8 30.2-13.3 60.9-16.5 91.9-0.5 5.2 1.2 30.7-10.6 24.9-6.4-3.1-2.8-13.1 4.2-11.4 8.1 2 4.3 14.5-3.5 11.7-10.3-3.7-1.2-39.4-0.3-47.4 10.5-89 36.9-188.1 94.6-258.5 21.8-26.6 55-62.3 86.4-77.4 11.1-5.4 18.4 8.9 10.9 16.8z"  fill="#fff500" /><path d="M488-207.2c-54.4 105.8-129.3 115.4-166 183.5-11.9 22-18 46.5-22.1 71-1.2 7.1-0.1 28.2-7.3 31.9-10.6 5.4-12.5-15.2-1.1-11.8 9.7 2.9 1.6 17.6-6 10.9-7.3-6.4 1.6-34.2 3-42.5 19.9-119.7 73.3-115.4 143.7-190 17.6-18.6 26.1-43.7 42.5-62.2 6.6-7.5 16.5 1 13.3 9.2z"  fill="#005bbb" /><path d="M499.5 41.8c-4.3 8.4-16.2 42.6-28.2 39.9-12.7-2.9-3.5-22.5 6.8-14.6 8.8 6.8-2.6 20.2-10.7 12.5-8.3-8 16.1-53.7 27.8-49.2 4.9 1.9 6 7 4.3 11.4z"  fill="#c2e1ff" /><path d="M511.1-201.3c-68.7 135.4-108.7 113.3-162.6 190-13 18.5-21.1 39.7-26.2 61.6-1.3 5.8-1.9 35.6-14.1 28.6-8.9-5.1 2.6-17.7 8.5-9.3 5.1 7.2-6.7 14.5-10.9 6.8-4.6-8.3 3.2-29.7 5.2-38.4 17.1-74.5 71.3-104.4 122.3-154 17.9-17.5 63.6-94 65.9-95.6 7.3-5.2 14.6 3 11.9 10.3z"  fill="#c2e1ff" /><path d="M522.6-195.4c-26.6 52.3-53.2 100.3-96.1 141.3-19.2 18.3-39.6 35.6-54.9 57.4-30.3 43-23.6 85-38.5 76-7.6-4.6 0.3-16.2 7.4-10.8 8.3 6.3-4.9 17.5-9.8 8.3-3.4-6.5 1.8-19.1 3.3-25.8 15.2-66 64-100.1 107.1-147.3 33.4-36.6 48.2-84.7 68.1-108 6.4-7.5 16.3 0.7 13.4 8.9z"  fill="#fff500" /><path d="M534.1-326.3c-21.7 34.6-87.3 143.4-107.5 166.8-31.4 36.2-76.9 58.2-104 98.4-15.3 22.7-23.8 48.9-28.9 75.5-1.2 6-1.4 39.9-14 32.9-7.6-4.2-0.3-15.8 6.8-10.8 6.1 4.3 0.7 14-6.2 11.2-9-3.8-1.4-25.5-0.3-32.3 19.8-122.3 70.4-116 138.7-194.3 38.3-44 62.1-120.9 102.4-158.4 7.7-7.2 17.2 2.6 13 11z"  fill="#fff500" /><path d="M540.1-394.8c-19.2 46.2-60.4 76.5-93.2 112.6-40.6 44.7-76.7 96.1-113.1 144.3-16.9 22.4-30.7 46.6-39.5 73.4-1.8 5.6-5.1 36.3-17.1 28.1-7.7-5.2 1.2-16.9 8.2-10.8 8.3 7-6.1 17.9-10.6 8-2.8-6.1 2.3-17.1 3.9-23 15.8-59.9 54.6-102.7 91.4-150.5 22.3-28.9 42.5-59.4 66.9-86.6 23.8-26.7 52.3-49.3 73.7-78.2 4.9-6.6 12.7-29.6 22.9-28.6 5.9 0.5 8.2 6.3 6.5 11.3z"  fill="#005bbb" /><path d="M556.2-50.5c-2.3 34.1-34.4 139.5-56.3 132.1-11.2-3.8-4.3-21.2 6.5-16.2 12.6 5.9-1.4 24.2-10.4 13.6-8.6-10.1 23.9-48.3 28.9-58.7 6.3-12.9 17.2-72.3 20.9-75.8 4.4-4.2 10.2-0.2 10.4 5z"  fill="#c2e1ff" /><path d="M568.7 50.2c-4.5 8.6-17.2 37.4-29.9 31.9-13.3-5.7 0.7-25.3 10.4-14.5 8.3 9.2-7 21.5-14.3 11.5-6.2-8.6 16.1-38.4 24.1-41 7.8-2.5 12.6 5.7 9.7 12.1z"  fill="#005bbb" /><path d="M578.9-37.9c0.5 28.6-24.7 130.6-50.1 119.9-11.4-4.8-2.9-22.3 7.9-16.4 10.8 6 0.5 22.5-9.7 15.4-12.9-9.1 19.3-42.1 24.2-51.5 8.2-16 14.1-67.7 17.6-71.4 3.8-4.2 9.5-0.9 10.1 4z"  fill="#fff" /><path d="M591-397c-6.1 57.2-99.7 231-138.7 275.2-25.1 28.4-57.3 47.6-85.4 72.5-7.3 6.4-26.1 37-37 28.5-11-8.5 6.7-23.2 13-10.9 6.4 12.3-15.8 18.3-16.4 4.4-0.9-19.5 114.1-104.9 136.7-138.1 25.3-37.2 93.3-160 106.8-200.3 2.4-7.3 4.2-39 14.8-38.7 4.2 0.1 6.3 3.6 6.2 7.4z"  fill="#fff500" /><path d="M601.1-57.8c7.5 43.3 8.6 86.9-14 125.5-2.7 4.6-6.2 12.8-11.9 14.4-11.7 3.4-16.1-15.2-4.1-17.4 14-2.5 13.1 21.1-0.7 17.5-16.6-4.3 19.2-54.3 21.1-66.3 3.8-24-2.2-49.7-0.3-73.3 0.5-6.1 8.4-5.6 9.9-0.4z"  fill="#fff" /><path d="M605.7-278.7c-20.8 38.2-45.7 73.8-62.9 113.9-23.8 55.4-38.6 113.5-66.2 167.4-5.7 11.1-34.3 82.2-45 77.5-10.9-4.8 0.7-20.8 8.6-11.8 7.9 8.9-9.4 18.6-12.8 7.1-4-13.1 37.5-85.1 45.4-101.1 29.4-59.6 43.3-125.3 73.8-184.4 12.6-24.3 27.1-58.3 45.8-78.3 6.9-7.4 16.7 1.4 13.3 9.7z"  fill="#fff" /><path d="M605.6-321c-21.1 50.7-54.4 95.1-78.3 144.4-27 55.7-54.1 106.6-93.3 154.9-7.4 9.1-19.4 33.5-30.1 37.4-12.8 4.7-15.8-17.7-2.3-16.5 13.6 1.1 6.9 22.7-4.9 16-16.8-9.5 51.9-84.1 60.5-96.2 29.1-41.1 47.4-87.9 70.5-132.4 13.8-26.6 30.3-51.7 45.1-77.8 6.7-11.7 11.4-27.2 19.5-37.8 5.9-7.5 15.8-0.1 13.3 8z"  fill="#fff" /><path d=""  fill="#fff500" /><path d="M605.7-291.2c-19.2 37.4-43.8 71.7-62.1 109.6-21.6 44.7-34.8 93.8-59.4 136.9-2.3 4-7.4 5.6-11.5 3.2-8.2-4.9-2.2-17.8 6.8-14.8 10.6 3.5 4.1 19.9-6 15.2-13.5-6.2 10-38.5 13.8-46.9 23.6-52.5 69-172.4 105.1-212.5 6.7-7.4 16.5 1 13.3 9.3z"  fill="#fff" /><path d="M605.8-277.4c-27.9 51.1-58.5 97.8-77.6 153.3-3.4 9.9-15.5 66.3-28.9 60.6-11-4.6 0.5-20.8 8.5-12 6.8 7.5-5.6 17.7-11.7 9.5-3.4-4.7 62.3-184.8 96.5-221.1 6.9-7.4 16.7 1.4 13.2 9.7z"  fill="#c2e1ff" /><path d="M605.7-205.2c-14.4 30.9-23.6 63.3-23.9 97.5-0.6 57.8 14.4 112.3-17.3 165.4-4.2 7-9.8 18.7-16.8 23.2-12.2 7.8-20.6-14.7-6.2-16.7 14.4-2 12.5 22-1.4 17.8-17.3-5.2 25.5-53.4 31.7-84.3 14.4-71.4-15.4-124.1 16.3-201.5 4.4-10.7 22.5-17.6 17.6-1.4z"  fill="#005bbb" /><path d=""  fill="#fff500" /><path d=""  fill="#fff" /></svg>