<svg width="1200" height="675" viewBox="-500 -500 1200 675" xmlns="http://www.w3.org/2000/svg"><path d="M-500-500h1200v675h-1200z" fill="#000"/><path d=""  fill="#fff" /><path d=""  fill="#fff500" /><path d=""  fill="#fff500" /><path d=""  fill="#fff500" /><path d=""  fill="#fff500" /><path d="M-355.3-399c13.8 57.1-26.9 131.8-28.5 194-0.3 13.4 4.7 81.4-14.6 82-12.5 0.3-12-19.4 0.5-18.5 12.5 1 9.8 20.6-2.5 18.3-15.5-3 0.2-53.2 0.7-64.6 4-95.2 15.4-94 29.5-174.3 2-11.5-1.7-27.8 2.2-38.3 2.5-6.8 11.1-4.7 12.7 1.4z"  fill="#c2e1ff" /><path d=""  fill="#fff500" /><path d=""  fill="#005bbb" /><path d="M-344.6-398.4c7.2 58.3-35.1 131.3-37.4 199.1-0.4 13.5 3.1 82-16.8 81.8-12.8-0.1-11.6-20.3 1.2-18.8 12.8 1.5 9.3 21.5-3.2 18.6-15.2-3.5 2.2-59.1 2.8-71.4 4.1-83.8 16.6-98.2 34.4-173.7 2.7-11.3 0.3-28.5 5.2-38.5 3.5-7.2 12.7-3.9 13.8 2.9z"  fill="#005bbb" /><path d="M-350.6-398.7c11.5 61-30.4 129.6-32.3 193.3-0.4 13.8 4.1 84.3-15.6 84.6-12.7 0.2-11.8-19.8 0.8-18.6 12.6 1.2 9.6 21-2.8 18.4-15.7-3.3 0.5-50 1.2-60.6 2.2-36 1.4-71.2 10.6-106.5 6.5-24.9 16.3-49 21.4-74.2 2.3-11.4-0.8-28.1 3.6-38.5 2.9-7 11.8-4.4 13.1 2.1z"  fill="#fff" /><path d=""  fill="#c2e1ff" /><path d=""  fill="#c2e1ff" /><path d="M-308.2-324.6c-22.7 33.5-44.1 67.1-52.4 107.2-6.4 31.1-7.9 106.3-30.4 128.6-12 11.9-27.1-11.9-11.2-17.6 18.7-6.7 17.6 27.8-0.6 19.8-16.1-7 12.3-57.2 15.1-70 14.9-68.7 16.1-121.3 60.5-180.8 9-12.1 25.6-0.1 19 12.8z"  fill="#fff" /><path d="M-294.3-45.3c-4.1 29.3-1.5 58.9 10.4 86.2 2.1 4.8 23.3 34.8 13.3 36.5-4.6 0.8-6.5-5.9-2.1-7.7 5.1-2 7.9 6.1 2.6 7.6-5 1.4-52.8-89.1-40.2-126 3.3-9.5 15.7-5.5 16 3.4z"  fill="#fff500" /><path d="M-279.4-44.7c-2.7 27.3 1.5 54.6 11.7 80.1 3.6 8.9 19.4 29.8 17.9 38.8-1.2 7-12.1 2.6-8.1-3.3 4.7-6.8 12.7 5.2 4.6 6.9-7 1.5-44.6-63.1-42-123.1 0.5-10.5 15-9.3 15.9 0.6z"  fill="#fff" /><path d="M-262.7-162.7c-24.7 51.1-47.9 116.7-38.4 174.1 4.6 27.6 24.8 62.9 24.6 63.4-2.9 6.7-11.8-2.4-5.1-5.2 5.7-2.4 7.6 7.7 1.4 7.5-7.4-0.3-16-22.6-19-28.1-30.8-58.2-17.6-122.9 2.8-182.2 4.2-12.3 8-29.8 16.1-40.2 7.8-10 21-0.1 17.6 10.7z"  fill="#fff" /><path d="M-247.8-98.2c-13.4 38.4-16.3 79.2-5.6 118.6 2.1 7.6 25.8 58.2 14.2 58.3-8.1 0.1-5.3-13.1 2.1-9.8 7.4 3.3-0.7 14.1-5.9 8-26.6-30.9-43.4-146.9-22.2-182.8 6-10.1 19.2-2.6 17.4 7.7z"  fill="#005bbb" /><path d="M-236.5 43.3c2 6.4 14.9 29.2 7.4 34.3-6.1 4.2-12.2-5.8-5.7-9.3 7.6-4.1 11.5 9.8 2.9 10.3-17.7 1-16.5-60.4-4.6-35.3z"  fill="#fff500" /><path d="M-217.1-353.6c-27.8 51.7-73.4 92.1-97.3 145.9-19.5 43.6-40.1 151.6-77.4 179.7-17.1 12.9-27-23-5.6-20.6 18.2 2 8.4 30.7-7.3 21.3-17.7-10.7 25.7-62.7 31.8-75.3 20.3-42.6 27.7-89.9 48.1-132.3 22.6-46.9 60-86.3 88.7-129.5 8-12 24.4-1.9 19 10.8z"  fill="#fff" /><path d="M-201.9-284.4c-54 96.1-104.7 150.4-118.6 269.8-4.6 39.4 18.9 85.2 16.8 89.8-3.2 6.8-12.2-2.7-5.2-5.5 7-2.8 7 10.3 0 7.5-10.9-4.4-19.5-34.7-22.5-44.9-20.1-69 20.7-177.6 53.7-238.8 16.2-30.1 37-57.2 55-86.2 8.1-13.1 27.8-7.4 20.8 8.3z"  fill="#005bbb" /><path d="M-197.5-393.5c-39 79.8-106.6 142.1-132.8 227.7-5.4 17.7-48.4 156.9-75.2 136.4-12.4-9.5 3.6-28.3 14.9-17.5 9.7 9.2-2.5 25.1-13.9 18.2-17.4-10.5 26.5-64.1 32.5-77.1 20.8-44.7 27.9-94.5 51-138.2 18.1-34.1 44.6-62.1 66.8-93.5 14.7-20.8 25.3-43.3 37.7-65.4 6.9-12.2 23.4-3.2 19 9.4z"  fill="#fff" /><path d="M-171.6-371.7c-35.6 78.7-67 109.8-103.7 176.6-24.2 44.1-38.5 93.8-54.7 141.2-17.7 51.5-16.2 92.5-22.8 97.8-8.8 6.9-16.9-9.8-6-12.4 12.8-3.1 9.5 19.6-1.9 13-16.3-9.4 0.7-66.2 4.5-79.8 18.7-66 41-138.5 77.2-197.1 15.8-25.6 34.8-49 50.7-74.5 14.5-23.1 22.5-54.5 39.1-75.5 7.8-10 21 0 17.6 10.7z"  fill="#005bbb" /><path d="M-156.5-76.1c-25.5 28.3-44.1 60.2-47.5 98.9-0.7 8.3 7.8 61.3-7 57.2-7.7-2.1-5.8-13.9 2.2-13.5 9.3 0.5 7.8 15.2-1.5 13.6-13.5-2.2-9.7-53.7-9.2-63.8 1.6-35.2 16.1-88.2 46.5-110.2 12.1-8.8 23.8 6.7 16.5 17.8z"  fill="#c2e1ff" /><path d="M-141.5-28.3c-19.2 18.3-34.3 39.9-40.8 65.9-1.8 7.3-0.3 49.7-15.9 42.8-9.7-4.4-2-19.3 7.1-14 7.9 4.6 2.3 17-6.3 14.3-12.4-4 2.2-104.2 40-128.3 13-8.3 24.1 8.4 15.9 19.3z"  fill="#c2e1ff" /><path d="M-125.8 53.3c-5.4 7.4-18.7 42.2-32.5 27.1-8.2-9 3.9-22.7 13.9-15.6 10 7.1 1.1 23-10.2 18.2-16.1-6.8 4.4-40.9 13.6-46 11.1-6.2 20 6.4 15.1 16.3z"  fill="#c2e1ff" /><path d="M-110.8-237c-10.4 23.8-19.8 48-32.7 70.7-27.7 48.4-68.8 88.4-77.2 145.9-5.9 40.6 11.6 92 5.8 98.1-6.8 7.1-15.9-6.4-6.8-10.1 10.7-4.2 10.7 15.8-0.1 11.5-9-3.6-9.9-32.7-11.4-40.9-17.3-95.4 23.3-140.6 70.5-216 13.4-21.5 22.1-44.6 33-67.2 5.9-12.2 22.4-4.4 18.9 8z"  fill="#005bbb" /><path d=""  fill="#fff500" /><path d="M-80.4-148.3c-25.8 58.4-88.8 90.8-109.6 151.2-6.7 19.6-2.5 70.8-9.9 76.5-9.1 7-17.1-10.2-6-12.7 13.1-2.9 9.4 20.1-2.1 13.2-8.1-4.8-4.7-25.3-4.9-33.1-1.4-74.5 40.5-113.2 86.1-165 9.2-10.5 20.5-39.6 33-44.6 9.6-3.8 16.4 6.1 13.4 14.5z"  fill="#fff" /><path d=""  fill="#005bbb" /><path d="M-51.1-382.5c-66.9 52.4-83.3 110-120.6 181.8-21.7 41.8-50.7 80.1-64.4 125.6-7.9 26.3-4.4 83.6-8.2 87.1-7.5 7.1-16.3-7.5-6.5-10.8 11.4-3.9 10.3 17.1-0.7 12-16.6-7.7-1.8-98.8 3.9-115.3 15.4-44.7 43.9-82.7 65.1-124.6 25-49.3 41.7-102.6 79.6-144.3 9.4-10.4 26.3-32.3 40.8-35.2 14.6-2.9 20 14.4 11 23.7z"  fill="#005bbb" /><path d="M-35.1-60.6c-5.5 17.5-84.4 156.4-103.9 143.1-12.5-8.5 2-27.5 13.5-17.7 11.5 9.8-5 27.1-15.3 16.1-14.2-15.2 32.4-62.3 41.5-73.7 10.6-13.4 46.3-76.5 48.4-78.5 8.1-7.3 18 1.5 15.8 10.7z"  fill="#fff500" /><path d="M-20.6-105.6c-8.6 62.3-34.9 111.8-70.4 162.7-5.3 7.6-12 23.7-21.1 26.9-17.1 6-20.7-23.8-2.7-22 18 1.7 8.8 30.3-6.9 21.1-19.7-11.5 35.5-73.3 43.4-85.4 14.1-22 25.4-45.4 32.6-70.6 2.9-10 2.8-34 11.1-40.8 6.6-5.3 14.3 0.7 14 8.1z"  fill="#005bbb" /><path d="M-6.1 8.3c-0.3 11.2 4.5 75.8-12.3 73.2-11.1-1.7-7.5-19 3.3-16.1 10.8 2.8 5.4 19.7-5 15.7-10-3.8-5.7-68-0.6-76.9 4.3-7.5 13.9-3.3 14.6 4.1z"  fill="#fff" /><path d="M8.2 41.4c0.7 7.9 8.5 35.5-2.2 39.1-9.4 3.1-13.5-11.9-3.9-14 11.3-2.5 11.2 16.7 0 14.2-20.4-4.5-0.6-71 6.1-39.3z"  fill="#fff500" /><path d="M11.8-388.8c-32.9 32.4-77 50.2-105.4 87.8-24.6 32.5-36.3 72.1-54.2 108.2-12.1 24.6-27.5 47.1-42.3 70.1-22.6 35.3-36.2 94.2-49.3 86.1-10-6.2 0.6-21.5 10-14.2 8 6.2 0 19.1-9.1 14.7-25.4-12.2 31.9-102.7 41.1-116.9 40.6-62.4 64.3-150.9 117.4-199.6 14.7-13.5 62.7-54.5 80.1-58.7 14-3.4 20 13.2 11.7 22.5z"  fill="#c2e1ff" /><path d="M41.2-278c-45.5 83.1-41.1 176.5-18.2 266.3 3.2 12.5 27.2 80 24.1 87.3-3.7 8.7-16.5-0.4-9.5-6.8 8.2-7.5 15 10.6 3.9 10.4-10.4-0.2-14.5-36.5-16.9-44.3-27.3-89-52.4-194.5-19.3-285.4 4.1-11.3 9.9-34.2 20.2-41.4 9.8-6.8 19.3 4.2 15.7 13.9z"  fill="#005bbb" /><path d="M53.6-174.9c2.2 29.6 12.4 58.4 28.3 83.4 25.5 39.8 66.8 66.6 90.9 107.3 6.3 10.6 28 55.9 11.6 65.1-11.4 6.4-17.7-14.3-4.7-15.4 15.2-1.2 7.4 24.2-4.5 14.6-3.6-2.9-4.1-44.9-8.6-56-21.5-53.6-78.1-84.3-105.5-134.8-9.1-16.7-23.2-44.4-21-64 0.9-8.3 11.6-7.3 13.5-0.2z"  fill="#005bbb" /><path d="M71.2-284c-25.6 75-28.4 149.2 23.8 214 32.4 40.3 82.2 73.3 89.5 128.4 0.7 4.9 0.7 34.4-12.9 21-5.7-5.6-0.2-15.6 7.5-13.7 7.8 1.9 8.2 13.2 0.6 15.6-15.2 4.8-6.8-46.8-28.5-79.1-48.3-72.1-110.8-96.6-114.7-196.7-1.1-28.5 1.7-72.7 17.3-97.6 6.3-10 19.5-2.2 17.4 8.1z"  fill="#fff" /><path d="M86.4-380.9c-36.9 121.8-89.4 122.9-87.6 275.7 0.2 21.6 10.7 154.2 4.9 162.5-6.5 9.5-19.6-4.4-9.7-10.3 11.6-6.9 15.3 16.3 2.2 13.3-13.8-3.1-9.6-77.6-10.3-90.9-2.8-65.9-10.3-138.4 8.5-202.5 4.6-15.6 66.2-143 74.7-156.1 6.4-10 19.5-1.9 17.3 8.3z"  fill="#c2e1ff" /><path d="M95.3-12c7.6 10.2 59.7 83.1 38.3 91.9-8.6 3.6-13.5-10.3-4.6-12.9 8.9-2.6 12.3 11.7 3.1 13.3-12.3 2.2-12.4-32.2-15.1-39.7-5.7-15.6-25.9-35-28.1-50.1-0.5-3.8 4.1-5 6.4-2.5z"  fill="#005bbb" /><path d="M114.3-220.9c2.4 29.6 12 58.4 30.5 81.8 54.7 69.5 150.5 82.2 154.2 190.1 0.3 7.9 2.7 26.8-6.8 30.8-11.2 4.7-17.7-13.4-6-16.9 10-3 16 11.4 6.9 16.4-22.1 12.2 0.2-55-26.6-103.3-32.3-58.3-102.2-76.5-139.6-129.9-11.9-17-28.4-47.1-26.1-68.8 0.9-8.3 11.6-7.3 13.5-0.2z"  fill="#005bbb" /><path d="M126.4-160.2c42.2 87 162.7 93.7 169.2 209.3 0.5 8.3 3.3 28.8-6.7 32.9-11.3 4.7-17.7-13.5-5.9-16.9 10-2.9 16 11.5 6.8 16.5-4.4 2.4-10.2 0.6-12.4-4-5.9-12.2 13.5-57.1-20-106.7-28.3-42.1-76.4-61.3-112.3-95.4-8.5-8.1-22.9-20.7-26.4-32.3-1.5-5 4.9-7 7.7-3.4z"  fill="#fff" /><path d="M140.6-7c8 9.6 54.7 81.9 28.1 88.4-10.4 2.5-13.5-14.1-2.9-15.5 9.1-1.2 12.3 12.2 3.7 15.2-15.6 5.6-11.8-38.4-14.2-46.3-4.5-14.5-14.6-25-20.4-38.5-1.6-3.7 3.2-5.9 5.7-3.3z"  fill="#fff500" /><path d="M155.2-141.9c54.4 66 135.9 75.7 149.1 176.2 1.4 10.7 5.7 38.2-3.4 46.2-9.2 8-21.1-7.2-11-14.1 10-7 20.2 9.4 9.4 15.2-4.5 2.4-10.2 0.6-12.4-4-4.5-9.4 11.3-63.1-17.8-111.8-25.4-42.4-70-62.1-106.3-93.1-16.5-14.1-9-15.7-7.6-14.6z"  fill="#005bbb" /><path d="M169.3-68.2c40.2 30.2 84.6 63.8 90.7 117.7 0.9 7.8 2.8 20.9-1.2 28.1-5.9 10.5-22 0.3-15-9.6 8.2-11.5 23.9 5.9 11.6 12.9-20.1 11.4-5.6-47.6-22-78.6-14.5-27.5-38.9-47.5-63.2-66-1.1-0.8-5.2-7.1-0.9-4.5z"  fill="#c2e1ff" /><path d="M189.7-268.3c11 67.4 58.5 102 96.2 153.7 31.7 43.4 45.7 98.9 46.1 152.2 0.1 9.9 3 39.6-8.5 44.2-15.6 6.3-15.7-23-0.1-16.7 13.3 5.3 0 25-9.8 14.6-7.8-8.2 2.8-35.9 3.1-46.3 1-28.4-3.2-57.4-10.8-84.8-19.3-69.1-77.2-104.2-109.9-164.3-7.5-13.7-19.2-35.4-18.8-51.5 0.2-7.7 10.2-7.6 12.5-1.1z"  fill="#005bbb" /><path d="M199.8-131.3c60 49 108.5 79 116.4 163.9 1 10.9 5.2 39.1-4.2 47.4-9.2 8-21.1-7.2-11-14.2 10-7 20.2 9.4 9.4 15.3-4.5 2.4-10.2 0.6-12.4-4.1-1-2.2 8.7-72.4-15.3-120.4-18.3-36.7-50.1-59.5-82.2-83.2-1.5-1.1-5-7.2-0.7-4.7z"  fill="#005bbb" /><path d="M217.5-211.1c49.2 94.1 114.7 95.5 115.8 247.3 0.1 10.1 3.1 40.9-8.6 45.5-13.3 5.4-17.2-18.1-2.9-17.4 16.8 0.9 4.6 27.4-7 15.3-3.3-3.5 15.2-46.8-6.9-132-16.3-62.8-61.2-99.7-95.6-151.6-3.5-5.3 0.2-13.5 5.2-7.1z"  fill="#005bbb" /><path d="M233 5c6.6 10.2 33.2 75.2 8.1 77.3-12 1-12.6-18-0.5-17.7 12.1 0.3 10.6 19.3-1.4 17.7-14.4-1.9-4.1-30.8-4.7-39.2-0.7-10.3-11.9-28.3-9.6-37.2 1.1-4.1 6-4 8.1-0.9z"  fill="#005bbb" /><path d="M248.3 3c6.5 10.6 32.7 77.5 7.5 79.5-12.1 0.9-12.6-18.2-0.5-17.8 12.1 0.4 10.5 19.5-1.5 17.8-14.2-2-4.2-26.9-4.2-35-0.1-12.2-12.4-33.6-9.6-43.7 1.2-4.2 6.2-4 8.3-0.8z"  fill="#fff" /><path d="M262.1-167c45.5 58.8 71.1 121.1 73.1 196.1 0.3 11.7 3.5 42.7-6.2 51-10.9 9.3-22.1-11.7-8.3-15.6 11.8-3.3 16 15.6 3.9 17.6-19.1 3.2-5.5-36.7-5-44.4 2-30.6-1.8-62-8.8-91.9-6-25.9-15.6-50.7-29.3-73.5-4.8-8-25.9-28.8-25.3-37.5 0.2-3.3 4-3.8 5.9-1.8z"  fill="#c2e1ff" /><path d="M277.4-133c40.9 50.6 59 119.2 55.5 183.7-0.4 7.8 0.2 20.2-3.9 27.2-7.3 12.3-24.7-4-12.8-12.1 11.8-8.1 20.7 14 6.6 16.3-17.7 3-0.6-59-9.9-110.7-4.3-23.8-11.1-47.3-21.9-69-3.8-7.7-20.4-25.7-19.7-33.7 0.3-3.3 4.1-3.8 6.1-1.7z"  fill="#fff500" /><path d="M258.8-394c-32.1 60.1-39.2 128.9-6.1 190.1 7.2 13.4 93.5 149.6 68.5 153.8-9.7 1.6-8.8-14.7 0.6-12.1 8.1 2.2 3.9 14.8-3.9 11.8-9.8-3.9-16.6-51-21.2-61.9-30-70.5-86.2-120.4-81.1-203 1.7-26.7 7.6-69.1 25.6-90.3 8.4-10 21.5 0.7 17.6 11.6z"  fill="#005bbb" /><path d="M310.8-196.5c47.1 187.5 41.6 278 20.7 279.1-14.4 0.7-10.4-22.9 3-17.5 13.4 5.4-0.1 25.1-10.1 14.6-0.5-0.5 4.8-74.7 4.5-86.3-1.3-44.5-6.1-89.1-15.8-132.6-2.3-10.5-19.9-51.2-12.5-59.7 3.4-3.9 8.6-1.8 10.2 2.4z"  fill="#fff" /><path d="M327.2-223.7c2.7 31.3 44.7 304.1 6.9 306-14.4 0.7-10.4-22.9 3-17.5 13.4 5.4-0.1 25.1-10.1 14.6-1.5-1.5 5.2-70.5 5.2-81.8-0.2-74.3-13.4-146.2-18.9-219.9-0.7-9.2 11.9-9.9 13.9-1.4z"  fill="#fff" /><path d="M343.1-269c-0.4 34.7 24 349.9-7 351.4-14.4 0.7-10.4-22.9 3-17.5 13.4 5.4-0.2 25.2-10.1 14.6-3.4-3.6 5.2-60.9 5.5-71.8 1.7-64.6-1.6-129.4-4.3-193.9-0.6-12.9-6.2-81.4-0.5-87.9 5-5.6 12.5-1.4 13.4 5.1z"  fill="#c2e1ff" /><path d="M358.1-300.2c2.2 75.3-2.6 150.6-4.2 225.9-0.4 19.4 7.2 155.7-15.7 156.8-14.4 0.7-10.4-22.9 3-17.5 13.4 5.4-0.2 25.2-10.1 14.6-2.1-2.3 5.9-69.4 6.2-80.7 2-71.8 3.4-143.5 5.4-215.2 0.5-17.6-5.1-74.2 1.3-87 3.7-7.4 13.1-3.9 14.1 3.1z"  fill="#fff" /><path d="M374.5-112.5c-4.8 24.9-17.4 187-24.7 193.1-11.1 9.2-22.2-12.1-8.2-15.8 14-3.7 15 20.3 0.8 17.7-4-0.7-7.1-4.1-7.5-8.1-0.4-4 21.3-188.4 22.9-192 4.4-9.8 17.2-4.4 16.7 5.1z"  fill="#fff" /><path d="M390-56.8c-9.6 34.7-13.3 70.3-18.7 105.7-1.3 8.5-1 37.5-16.2 33.1-11.9-3.5-5.4-22 6.1-17.2 11.5 4.8 2.9 22.4-7.9 16.4-11.6-6.4 1.3-37 2.7-46.2 4.5-29.3 2.8-71.8 16.9-98.3 5.3-10 18.4-3.4 17.1 6.5z"  fill="#fff" /><path d=""  fill="#005bbb" /><path d="M420.4-27.5c-4.4 14.5-17.9 114.8-34.4 109.8-11.9-3.6-5.2-22.1 6.3-17.3 11.5 4.9 2.8 22.6-8.1 16.5-11.6-6.5 1.3-34.6 3.1-43.9 3.7-18.5 4.1-60.1 17.2-74 7.1-7.6 17.2 0 15.9 8.9z"  fill="#c2e1ff" /><path d="M436.1-79.8c-18.9 39-28.1 81-36.2 123.4-1.7 9-2.2 43.4-18.1 38.6-11.9-3.6-5.2-22.1 6.3-17.3 11.5 4.9 2.8 22.5-8.1 16.5-11.8-6.6 1.8-37.3 3.6-46.5 8-41.3 15-84.9 33.5-123.1 6-12.4 22.8-4 19 8.4z"  fill="#005bbb" /><path d="M450.3 49.3c-1 7-2.1 42-18.1 31.4-8.7-5.8-1.5-19.6 8.3-15.8 11.4 4.4 3.4 22-7.4 16.3-21.4-11.1 18.5-66.6 17.2-31.9z"  fill="#c2e1ff" /><path d="M466-229.3c-17.6 72.8-63.9 134.7-79.6 208.9-2.9 13.8-9.9 108-27.8 102.6-11.9-3.5-5.3-22 6.2-17.2 11.5 4.8 2.9 22.5-8 16.5-12-6.7 2.2-41.2 3.8-51.6 18.8-121.2 45.5-156.3 87.4-264.6 4.5-11.5 20-6.4 18 5.4z"  fill="#005bbb" /><path d="M480.1-271.4c0.9 76.4-66.1 157-86.2 231.7-10.6 39.6-15.7 126.9-33.1 121.8-10.2-3-7.3-18.7 3.2-17.9 12.4 0.9 9.9 20.4-2.3 18.1-16.7-3.1 1.7-56.5 3.4-67.3 19.7-128 55.4-148.8 91.1-253.2 3.8-11 3.3-28.5 9.2-38 4.7-7.5 14.3-2.8 14.7 4.8z"  fill="#fff" /><path d="M496.9-104.4c-30.9 40.1-40.3 87.2-46.9 136.2-1.3 9.8-1.1 55.3-18.1 50.6-11.8-3.2-5.7-21.6 5.7-17 9.7 3.8 5.6 18.9-4.8 17.2-16.3-2.6-0.8-44.5 0.5-53.7 7.3-51 14.4-99.2 42.6-143.6 9-14 29.1-5.2 21 10.3z"  fill="#fff" /><path d=""  fill="#005bbb" /><path d="M527.1-108.1c-28.1 29.5-42.1 66.8-45.4 107-1.4 17.2 5.6 68.4-7.2 80.9-11.5 11.2-22.1-14.5-6.1-14.8 13.6-0.2 9.1 22-3.4 16.4-12.3-5.5-0.5-53.9-0.1-65.1 1.8-50 8.8-101.2 43.5-140.2 10.8-12.2 27.2 2.9 18.7 15.8z"  fill="#fff" /><path d="M541.1-310.9c-2.5 73.1-104.6 184.6-131.7 268.5-6 18.4-21.2 116.5-29 122.8-11.3 9.2-22.2-12.4-8-16 16.5-4.2 12.7 25.2-2.3 16.9-11.9-6.6 2-38.8 3.8-48.4 21.2-116.1 53.8-169.2 115.5-266.9 13.6-21.5 36-81.7 36.7-82.8 5.3-7.5 15.1-2.1 15 5.9z"  fill="#fff500" /><path d=""  fill="#fff" /><path d="M570.1 20.2c0.8 8.7 14.3 58.9 0.5 59.8-9.2 0.6-9.4-14-0.2-13.6 9.2 0.4 7.9 14.9-1.3 13.5-10.1-1.5-15.3-53.5-12.2-61.4 2.7-7.1 11.7-4.7 13.2 1.7z"  fill="#fff500" /><path d="M586.5-194.9c-60.2 45.2-114 87.1-136.2 162.7-7.1 24.1-14 128.3-35.4 113.4-10.2-7.1 1.8-22.5 11.1-14.3 8 6.9-1 19.9-10.3 14.8-12.3-6.7 2.5-43 4.2-53 17.6-102.4 44.7-170 131.8-232.5 8-5.7 20.2-19.1 31.4-15.1 11.2 4 11.1 17 3.4 24z"  fill="#fff" /><path d="M602.7-329.4c-21.9 93.4-131.8 164.3-174.2 267.1-6.8 16.6-35.2 133.3-36 133.9-11 9.3-22.1-11.8-8.2-15.6 16.2-4.4 13 24.6-1.9 16.7-11.4-6.1 0.4-33.2 2.2-41.9 29.3-153.1 72.6-186 165-300.9 13.8-17.1 30.6-61.3 37.3-68.4 7.2-7.5 17.2 0.3 15.8 9.1z"  fill="#fff" /><path d=""  fill="#fff" /><path d="M608-256.4c-56.9 79.4-125.2 86.2-170.9 205.2-10.7 27.9-22.9 114.9-31.9 129.3-2.8 4.4-8.8 5.6-13.1 2.5-10.2-7.2 2.1-22.6 11.4-14.3 8 7.1-1.2 20.1-10.5 14.9-12.2-6.8 2.5-41 4.5-51.2 23.2-119.5 63.7-189.3 156.9-267.8 12.9-10.9 23.8-25.5 37.1-35.6 11.6-8.8 23.4 6.1 16.5 17.1z"  fill="#fff" /><path d=""  fill="#005bbb" /><path d="M606.7-181.7c-54.4 43.7-112.3 74-131.5 146.7-7.1 26.9-5.3 129.7-27.7 115.7-8.7-5.5-1.9-19.2 7.7-15.8 11.3 4.1 3.9 21.5-6.8 16.2-11.4-5.6-0.7-33.1 0.3-42 9.6-84.9 16.1-145.6 87-203.4 16.7-13.6 37.6-32.4 57.5-40.9 15.3-6.5 24.1 13.2 13.5 23.5z"  fill="#fff" /><path d="M606.6-197.8c-55.1 47.1-115.1 76.3-141.3 149.2-9.4 26.2-13.9 119.2-32.9 107.6-8.6-5.2-2.3-18.9 7.3-15.7 11.2 3.8 4.2 21.1-6.4 16.1-12.2-5.7-0.2-39.7 1.1-49.6 14.1-102.2 52.7-157.3 136.9-215.3 8-5.5 20-19.1 31-15.7 11.1 3.4 11.5 16.2 4.3 23.4z"  fill="#005bbb" /><path d=""  fill="#fff500" /></svg>