<svg width="1200" height="675" viewBox="-500 -500 1200 675" xmlns="http://www.w3.org/2000/svg"><path d="M-500-500h1200v675h-1200z" fill="#000"/><path d=""  fill="#005bbb" /><path d="M-396.2-76.5c17.1 44.7 37.7 93.5 22.5 141.7-1.3 4-2.5 12.4-7.6 13.3-8 1.5-7.5-12 0.3-9.9 9.2 2.4-0.5 15.7-5.6 7.6-3-4.8 11-41 10.8-55.6-0.3-15.9-25.7-95.9-25.2-97.1 0.9-2.4 3.8-1.9 4.8 0z"  fill="#fff" /><path d=""  fill="#fff" /><path d=""  fill="#fff" /><path d=""  fill="#c2e1ff" /><path d="M-396.2-78.5c4.2 11 40.8 99.4 26.6 104-5.5 1.8-6.4-7.7-0.7-7 5.7 0.7 2.6 9.7-2.3 6.7-4.7-2.9-3.6-24-4.8-29.7-4.9-24.4-20.7-48.7-23.8-72.7-0.4-3.1 3.6-3.7 5-1.3z"  fill="#fff" /><path d="M-396.3-88.9c1.8 4.6 17.2 36.1 12.4 37.7-3.2 1.1-4.7-4.1-1.4-4.9 3.3-0.7 4.2 4.6 0.8 5-4.2 0.5-5.8-9.4-6.8-12-13.1-32.4-8.8-32.8-5-25.8z"  fill="#005bbb" /><path d="M-396.3-130.3c7.2 18.6 94.5 179.8 80.2 186.4-5.5 2.5-6.1-8-0.3-6 4.9 1.7 0.5 9-3.3 5.4-2.2-2.1-13.6-46.7-17.4-54.9-19.4-42-44.4-80.9-61.9-124-1.1-2.7-1-13.6 2.7-6.9z"  fill="#005bbb" /><path d="M-396.2-156.2c23.6 68.6 67.6 119.4 96.1 183.8 2.7 6.1 19.9 45.5 11.9 49.1-4.8 2.1-6.5-6.4-1.3-6.3 6.1 0.1 2.1 9.9-2.3 5.6-3-2.9-14.7-51.7-19.7-61.7-27.4-55-65.1-101.9-86.7-160.3-0.8-2.2-2.2-18.6 2-10.2z"  fill="#005bbb" /><path d=""  fill="#005bbb" /><path d=""  fill="#fff" /><path d=""  fill="#c2e1ff" /><path d="M-395.8-207.7c7.6 33.4 17 66.6 31.8 97.6 8.8 18.4 123.4 175.7 101.6 186.6-5.2 2.6-6.1-7.5-0.5-5.8 4.8 1.5 0.7 8.7-3 5.3-3-2.7-18.1-55.3-24.1-65.8-30.5-53.7-72.7-96.5-94.1-155.8-6.4-17.6-17.8-42.5-17.6-61.4 0-3.7 4.8-3.7 5.9-0.7z"  fill="#fff500" /><path d="M-391.7-398.5c-3.1 98.6-14.2 187.9 25.4 278.4 11.7 26.8 27.4 51.3 44.9 74.7 1.8 2.4 17.7 20.8 13.6 21.9-2.6 0.7-2.8-3.8-0.1-3.3 2.3 0.4 1.4 3.9-0.8 3.3-6.1-1.8-16.3-21-20.2-26.4-75.6-101.9-83.7-213.8-71.3-340.2 0.4-3.7 7.7-20.7 8.5-8.4z"  fill="#fff" /><path d="M-392.1-32.7c2.7 10.9 15 95.8-7.1 93.1-6.8-0.8-4.9-11.5 1.8-9.9 6.7 1.6 3.6 12-2.9 9.7-8.4-3 2.8-21.8 4.1-27.4 5-21.3-3.3-86.1 4.1-65.5z"  fill="#fff" /><path d="M-384.3-212.5c5.2 33.8 13.8 67.3 28.4 98.2 26.2 55.3 76.1 95.9 97.2 153.8 1.9 5.1 13.6 33.9 7.4 36.9-4.6 2.2-6.5-6-1.5-6.1 5.9-0.1 2.3 9.5-2.1 5.6-3.2-2.9-16.3-54.6-22-65.3-29-54.4-75.1-95-96.5-154.1-7-19.2-18.9-48-17.3-68.7 0.3-3.9 5.4-3.6 6.4-0.3z"  fill="#c2e1ff" /><path d="M-377.4-157.8c23.4 77.1 78.3 118.8 109.1 187.2 2.6 5.9 19.3 43.3 12.1 46.9-4.5 2.2-6.5-5.9-1.5-6 5.9-0.2 2.3 9.4-2.1 5.5-2.9-2.6-16.3-52.6-21.6-62.5-24-44.8-61.6-80.4-84-126.4-6-12.3-16.4-29.9-17.4-43.7-0.2-3.4 4.1-3.8 5.4-1z"  fill="#005bbb" /><path d=""  fill="#fff500" /><path d="M-361-391.6c-2 29-10.1 57-14.9 85.5-11 65.5-1.7 139.2 29 198.5 21.4 41.3 55.8 73.3 78.5 113.7 1.9 3.3 15.1 24 9.4 25.9-3.9 1.3-4.6-5.4-0.6-4.9 4 0.5 1.9 6.8-1.6 4.7-7.6-4.6-15.6-32.4-21.1-41-51.9-80.6-91.6-109.6-102.9-213.1-4.7-43.1 2.4-130.4 16.4-171 1.6-4.6 7.7-2.7 7.8 1.7z"  fill="#fff" /><path d="M-355.6-104c26.1 50.9 71.4 90.1 91.9 143.9 1.9 5 13.8 33.1 7.7 36.1-4.5 2.2-6.5-5.9-1.5-5.9 5.9-0.2 2.3 9.4-2 5.5-3.2-2.9-16.9-53.9-22.7-64.3-21.1-38.6-53-70-74.6-108.5-1.1-2-2.8-12.5 1.2-6.8z"  fill="#fff500" /><path d="M-346.8-398.1c-7.7 106.5-54.6 160.6-0.9 278.2 14 30.5 80.7 106.4 83.7 125.2 0.7 4-6.3 2.5-4-0.9 2.3-3.4 6.3 2.5 2.3 3.4-3.1 0.7-28.8-42.2-32.8-47.5-61.6-79.6-94.2-155.3-77.2-258.2 5-29.9 14.7-58.9 19.3-88.9 1.7-11.3 9.3-26.3 9.6-11.3z"  fill="#fff500" /><path d="M-339.4-397.7c-10.7 106.2-58.2 163.2-5.8 277.6 15.3 33.4 84.8 107.8 87.5 133.3 0.5 4.4-7 2.3-4.3-1.2 2.7-3.5 6.6 3.1 2.3 3.8-3.1 0.5-27.9-44.9-32.1-50.4-64.3-85.8-100.2-152.3-78.9-263.7 5.7-29.8 15.9-58.5 21.3-88.4 1.6-9 10.1-26.5 10-11z"  fill="#005bbb" /><path d=""  fill="#fff500" /><path d="M-322.9-352.3c-28.8 79.8-49.7 160.2-8.4 240.4 25.5 49.5 69.2 86.5 86.6 140.5 2.1 6.4 13.1 35.6 7.7 40.7-3.3 3-7.8-2.4-4.1-5.1 4.2-3.1 7.7 4.8 2.6 5.9-2.4 0.5-18.4-60.2-22-67.9-42.6-92.7-106.6-111.8-102.3-233.9 1.2-34.1 12-96.4 31.3-125 3.3-4.9 9.8-0.7 8.6 4.4z"  fill="#fff500" /><path d="M-316.2-192c-2.4 83.8 70.8 142.1 86 222 1.2 6.5 9.9 44.1 3 46.6-5.3 1.9-6.4-7.3-0.8-6.9 6.5 0.6 1.4 10.8-3 5.9-2.8-3.2-9.5-65.4-13-77-15.6-51.4-54.8-90.5-71.5-141.1-12.7-38.7-2.9-66.8-0.7-49.5z"  fill="#005bbb" /><path d="M-311.2-66c70.8 93.7 79.8 137.8 69.8 142.3-4.8 2.1-6.5-6.4-1.3-6.3 6.1 0.1 2 9.9-2.4 5.6-3-2.9-12.9-52.7-17.2-62.6-12.3-27.9-31.5-51.3-50.1-75.2-1.4-1.8-1.7-6.7 1.2-3.8z"  fill="#fff" /><path d="M-300.3-269.8c-64.5 130.8 44.8 183.9 68.6 297.1 1.4 6.7 11.1 46.7 3.9 49.2-4.5 1.6-6.7-5.6-2-6.7 4.6-1.1 6 6.3 1.3 6.9-3.6 0.5-13-65.6-15.6-74.1-19.2-64.4-74.9-111.6-82.1-180.4-3.1-29.8 1.8-60.2 12.9-88 2.8-7 17.1-16.9 13-4z"  fill="#c2e1ff" /><path d="M-295.7-102c30.3 53.2 61.4 96.5 68.5 159.2 0.5 4.3 4.7 17.6-0.8 19.6-5.2 1.9-6.4-7.3-0.8-6.8 6.5 0.6 1.4 10.7-3 5.9-2.9-3.3-10.6-67.8-14.7-80-11.6-34.5-32.9-63.1-51.5-93.9-1.5-2.5-0.5-7.7 2.3-4z"  fill="#c2e1ff" /><path d=""  fill="#fff" /><path d="M-280.9-6c5.6 8.4 43.6 76.3 30.5 82.5-4.6 2.2-6.5-6-1.4-6.1 5.1-0.1 3.4 8.2-1.3 6.2-4.8-2.1-5.7-21.8-7.1-27-5.3-19.1-33.3-70.9-20.7-55.6z"  fill="#fff500" /><path d="M-271.1-180.9c-3.8 60.4 44.5 137.3 50.8 210.3 0.6 6.7 6.7 45.3-0.3 47.4-5.6 1.7-6.3-7.9-0.6-7.1 6.8 0.9 0.9 11.2-3.4 5.9-3.1-3.9-4.7-67.6-6.4-78.9-7.7-49.7-33.2-92.8-44-141.4-2.3-10.5-6.6-26.7-3.7-37.3 1.2-4.6 7.2-3.1 7.6 1.1z"  fill="#005bbb" /><path d=""  fill="#fff" /><path d="M-255.4-319.4c-43.1 54.5-72.9 118-47.1 187.8 26.3 71 67.8 102 76.8 186.1 0.5 4.6 4.3 18.7 0.3 21.8-3.8 3-8.1-3.3-4.1-5.8 4.8-3 7.9 5.8 2.3 6.5-1.3 0.2-16.7-83.4-20.4-93.5-25.9-71.3-83.7-122.3-69.7-204.6 6.6-39.2 27-75.6 52.7-105.5 5.1-5.9 13.1 0.9 9.2 7.2z"  fill="#fff" /><path d="M-247.9-336.4c-46.3 60.7-86.7 125.9-57.5 204.6 16.1 43.5 48.7 78.4 64.6 122.1 3.2 8.7 23.7 86.8 12.7 87-5.6 0.1-3.8-9 1.4-6.8 5.1 2.3-0.4 9.8-4.1 5.6-3.4-3.8-11.3-73.4-16.1-87.2-26.3-75.1-88.7-126.9-73.2-213.5 8-45 33.9-84.5 63-119 5-5.9 13.1 0.8 9.2 7.2z"  fill="#005bbb" /><path d="M-240.3-243.4c-40.4 69.3-6.7 130.4 10.9 200.1 9.5 37.7 13 77.5 12.6 116.4-0.1 6.9-11 2.5-6.4-2.5 4.6-5.1 9.8 5.7 3 6.2-5 0.4-7.6-76.1-9-85.8-8.5-61.9-46.4-121.3-38.3-184.8 2.1-16.6 6.9-43 18.5-55.8 4.4-4.9 10.9 0.8 8.7 6.2z"  fill="#c2e1ff" /><path d="M-232.9-303.2c-42.3 50.4-71.4 106.7-48.8 173.4 12.7 37.4 35.4 70.4 47 108.4 3 9.8 21.7 98.3 10.5 98.2-5.7-0.1-3.6-9.3 1.6-6.8 5.2 2.5-0.7 10-4.3 5.5-3.1-3.8-8.2-75.7-11.5-88.8-18.1-71-73.1-128.7-55.1-206.3 7-30 26.7-73.4 52.5-92.2 5.9-4.3 11.7 3.2 8.1 8.6z"  fill="#c2e1ff" /><path d="M-226.8 28.5c1 6.2 8.7 48.4 1 48.4-4.9 0-4.5-7.6 0.3-7.1 4.8 0.5 3.6 8.1-1.1 7-8.4-1.8-6.6-72.5-0.2-48.3z"  fill="#fff500" /><path d=""  fill="#fff500" /><path d="M-211.3-6c0.1 9.4 2.3 84-5 83.4-5.1-0.4-4.1-8.4 0.9-7.5 5.1 0.9 3.2 8.8-1.7 7.4-6.5-1.9-2.3-25.4-2.3-30.6 0.4-16.5-3.1-37.7 0.8-53.6 1.1-4.4 6.8-3.2 7.3 0.9z"  fill="#005bbb" /><path d="M-202.9-336.5c-44.4 60.3-101.1 112.8-80 195.1 17.6 68.8 54 105.5 60.9 185.4 0.5 5.2 5.7 33.5-1.8 33.3-5.7-0.1-3.6-9.4 1.6-6.8 5.2 2.5-0.7 10-4.4 5.5-3-3.6-8.1-77.6-11.4-90.9-18.2-72.4-73.3-131.4-51.3-210.3 9.4-33.7 50.9-97.1 78.1-119.3 5.5-4.5 11.5 2.5 8.3 8z"  fill="#fff" /><path d="M-195.8-19.3c-1.9 10.6-10.6 96.9-15.6 96.3-4.5-0.5-4.5-7.3 0.1-7.8 5.3-0.6 5.7 7.9 0.4 7.9-7.8 0 2.6-88.8 7-98.8 2.1-4.8 8.4-2.2 8.1 2.4z"  fill="#005bbb" /><path d="M-261.6-395.8c-36.1 65.4-81.3 130.3-76.4 208.5 1.7 27.8 9.9 54.7 23.2 79.1 1.3 2.3 15.1 22.3 9.6 21.7-2.5-0.3-1.8-4.2 0.6-3.7 2.1 0.5 1.7 3.7-0.4 3.7-3.6 0-8.2-10.9-10-13.8-33.9-55.1-39.2-120.5-17.7-181.2 9.9-28 43.3-99.6 62.4-120.5 4.4-4.8 10.8 0.8 8.7 6.2z"  fill="#fff500" /><path d="M-180.4-20.4c-7.6 20.5-13.6 41.5-17.5 63.1-1.4 7.4-0.5 28-5.5 33.3-4.4 4.7-10.5-4.1-4.5-6.5 7-2.9 7.1 10.2 0.1 7.5-11.7-4.5 12.1-91.7 18.7-101.7 3.3-5 9.8-0.8 8.7 4.3z"  fill="#fff" /><path d="M-172.8-332.9c-40.3 61.8-97.3 112.8-82.7 193.6 7.2 39.9 24.7 77.2 31.8 117.2 1.8 10.3 13 99.3 3.4 98.9-5.9-0.2-3.4-9.7 1.8-7 5.2 2.7-1 10.2-4.6 5.6-3.2-4.1-4-74.3-5.5-86.5-9.3-70.1-52.7-137.5-29.8-209.1 9-27.9 55.5-100.2 77.1-119.9 5.1-4.7 11.2 1.8 8.5 7.2z"  fill="#c2e1ff" /><path d=""  fill="#fff" /><path d="M-157.7 65.8c-2.4 3.6-7.9 18.4-14.4 11.4-4.1-4.4 1.9-11.2 6.8-7.8 4.9 3.5 0.6 11.3-5 9-7.4-3.1 0.8-17.6 4.9-20.1 5.2-3.2 9.8 2.7 7.7 7.5z"  fill="#005bbb" /><path d="M-150.4-70.2c-14.4 40-36.6 75.2-45.4 117.5-1.1 5.5-1.5 29.4-7.8 30.3-6.4 1-5.8-9.8 0.5-8 5.4 1.5 2.5 9.9-2.7 7.8-20.4-8.3 36.7-137.9 46.8-152.2 3.5-4.9 9.9-0.6 8.6 4.6z"  fill="#c2e1ff" /><path d=""  fill="#005bbb" /><path d="M-136.1-127.8c-1.7 59.1-38.6 103.1-54.3 158-2.3 7.9-4.8 43.4-11.2 46.6-5.8 3-8.6-7.6-2-7.8 6.6-0.3 4.6 10.5-1.4 8-9.6-4-2.3-39.9 44.2-139.8 10.3-22.1 10.3-43.9 17.1-66.3 1.4-4.6 7.3-2.9 7.6 1.3z"  fill="#c2e1ff" /><path d=""  fill="#fff500" /><path d=""  fill="#005bbb" /><path d="M-112.8-365c-29.9 45.4-74.3 123.3-85 175.9-10.4 51.3-3.3 105.7-6.2 157.7-0.8 13.2-2.4 96-6.6 101.2-4.6 5.6-10.6-5.4-3.5-6.3 6.1-0.8 5.2 9.4-0.7 7.5-8.8-2.8 1.4-78.7 2.1-89.4 4.4-69.4-7.7-146.1 17.3-212.2 9-23.8 58.8-126.8 74-141.4 4.9-4.7 11.2 1.5 8.6 7z"  fill="#005bbb" /><path d="M-105.9 16.3c-16 12.8-33.2 24.2-46.1 40.2-3.4 4.2-13.7 28.3-20.9 20.5-4.8-5.1 3.7-12.2 7.9-6.5 4.2 5.6-5 11.7-8.6 5.6-9.3-15.9 47.9-69.1 62.4-71.7 7.2-1.3 9.8 7.3 5.3 11.9z"  fill="#fff500" /><path d="M-179.6-395.1c-39.8 52.3-112.5 131.3-120.1 195.6-3.4 28.9 2.2 57.4 14.1 83.8 1.2 2.6 14.3 24.7 7.8 23.3-10.2-2.1 11-2.3 0.9 0-6.1 1.4-20.2-37.9-22.2-43.4-14.3-40.9-11-85.4 7.6-124.5 8.9-18.7 89.7-131.3 103.6-142.7 5.5-4.5 11.5 2.5 8.3 7.9z"  fill="#fff500" /><path d="M-90.3-344.7c-27.3 54-43.7 115-42 175.5 0.7 25 2.6 50.3-2.2 75-8.4 42.7-37.6 76.8-51.7 117.5-2.6 7.4-11.2 55.4-17 54.3-7.6-1.4-0.4-12.8 4.2-6.5 3.9 5.4-6.2 9.7-7.5 3.2-8.5-43.4 45.5-117 59.6-157.8 19-55.4 1.2-116.6 14.9-173.7 7.5-31 17.6-63.7 32.3-92.1 3.2-6.1 11.5-1.7 9.4 4.6z"  fill="#fff500" /><path d="M-83.3 23.1c-15.7 13.6-34.1 23.8-49.2 38.2-4 3.8-16.4 24.6-22.8 15.2-4.3-6.4 6.1-12.6 9.7-5.8 3.6 6.8-7.4 11.8-10.2 4.7-5.7-14.6 54-61.2 67-63.9 7.1-1.4 9.8 7 5.5 11.6z"  fill="#fff500" /><path d="M-77.5-139.9c36.4 103.3 29.3 116.7-52.6 184.4-6.2 5.1-27.7 35.6-33.6 34.2-7.1-1.7-3.8-12.6 3-10.2 6.8 2.4 2.4 13-4.1 9.8-8-3.9 2.5-16.2 5.1-20 23.9-35.1 71.1-49.3 88.8-89 21.7-48.9-15-85.9-11.7-108.7 0.4-2.9 4-2.8 5.1-0.5z"  fill="#c2e1ff" /><path d=""  fill="#005bbb" /><path d="M-171.3-394.8c-34.3 44.4-108.3 130.8-120 181.7-5.2 22.6-5 46.1 0.7 68.6 0.6 2.6 9.8 24.1 2.5 21.5-9-3.2 9.6-7 2.5-0.5-3.8 3.5-5.9-5.4-6.3-6.5-15.9-41.7-13.3-87.5 6.2-127.6 7.1-14.6 96.2-137.2 106-145.2 5.5-4.5 11.5 2.5 8.4 8z"  fill="#005bbb" /><path d="M-55.6-181c47.6 94.1 162.4 116.6 194.5 226 1.5 5.3 9.7 26.6 5.2 30.7-4.5 4.1-8.3-5.8-2.2-5.7 6.1 0.1 2.1 9.9-2.3 5.7-5.4-5.2-5.8-27.7-8.1-35.6-6.6-22.5-17.2-43.6-31.2-62.4-38.1-51.2-99-77.7-139.3-126.8-6.7-8.2-17.9-20-20.6-30.3-0.7-2.6 2.6-3.5 4-1.6z"  fill="#c2e1ff" /><path d="M-45.3-356.8c-35.5 71.6-27.6 156.5 30.6 213.1 45.7 44.4 104.9 69.5 143.5 122.1 2.4 3.3 20.9 27.5 16.2 29.7-3.1 1.5-4.4-4.1-0.9-4.1 3.4 0 2.3 5.5-0.9 4.1-9.1-4.1-22.1-34.9-29.4-43.7-57.8-70.5-161.9-97.8-184.2-195.6-7.9-34.6-4.1-71.6 6.4-105.3 9-28.9 23.4-34.7 18.7-20.3z"  fill="#fff500" /><path d="M-37.9 35.6c-5.4 7.6-42.1 51.8-50.6 42.2-5.7-6.4 4.9-14.8 9.8-7.8 4.9 7-6.5 14.2-10.6 6.7-3.4-6.1 38-49 45.8-50.5 5.7-1 8.2 5.1 5.6 9.4z"  fill="#c2e1ff" /><path d="M-31.4-290.2c1 29.8 10.9 58.3 28.8 82 21.7 28.8 52.1 49.5 78.5 73.6 47.5 43.2 86.5 95.6 120.7 149.6 4.2 6.6 37 55.5 30.9 60.4-3.6 2.9-5.9-4.8-1.4-4.4 4.6 0.4 1 7.6-2 4.1-7.8-8.8-40-73.1-52.9-91.9-27.2-39.8-57-78.2-91.8-111.6-30.7-29.4-68.3-53.2-92.7-88.7-13-19-21.3-40.8-24.3-63.6-0.6-4.8 4.2-20.1 6.2-9.5z"  fill="#fff500" /><path d="M-23.5-320.7c-3.6 32.7 2.8 66.1 20.1 94.3 24.7 40.1 66.3 67.3 98.2 101.3 33 35.4 61.9 74.6 89.4 114.5 4.4 6.4 41.6 55.7 37 60.3-2 2-5-1.3-2.8-3.1 2.2-1.8 4.8 1.9 2.4 3.4-1.4 0.9-47.7-70.4-53.1-78-23.9-33.9-49-67.2-77.2-97.7-34-36.8-79.6-65.8-104.2-110.4-12.3-22.2-18.2-47.4-18.2-72.7 0-3.8-1.1-11 1-14.3 2.4-3.8 7.3-1.4 7.4 2.4z"  fill="#fff" /><path d="M-19.1-150.9c37.4 38.8 88.1 61.1 125.8 99.7 28.6 29.2 50.4 64.9 62.9 103.8 1.2 3.6 9.7 22.8 3.1 23.9-3.5 0.6-4.9-4.5-1.7-5.8 3.3-1.3 5.8 3.4 2.9 5.4-5.8 4-11.3-27.2-12.7-31.4-10.4-30.7-26.6-59.3-47.4-84-35.5-42.2-84.7-65.6-125.6-101.4-1.1-1-11.5-13.3-7.3-10.2z"  fill="#fff" /><path d="M-9.3-294.6c8.9 62 59.1 98.8 97.1 143.5 39.3 46.2 73.2 97.3 108.3 146.7 7.1 10 51.7 71.4 50.4 78.4-0.7 3.6-6.3 1.2-4.1-1.8 2.1-3 6.2 1.6 2.9 3.3 0 0-57.5-85.5-63.8-94.4-30-42-59.2-84.9-91.7-125.1-28.2-34.8-65.4-63.5-87.9-102.5-18.5-32.2-15.7-62.6-11.2-48.1z"  fill="#fff" /><path d="M-3.8-79c33.1 40 62 81.4 62.3 135.4 0 4.8 1.7 16.3-1.7 20-3.7 4.1-9.8-2.1-5.7-5.7 4.8-4.3 10 5 3.9 6.8-9 2.7-4.1-20.9-4.1-24.5 0.2-18.8-2.7-37.5-9.2-55.1-10.1-27.4-28-50.7-46.4-73.1-1.3-1.5-2-6.5 0.9-3.8z"  fill="#fff" /><path d=""  fill="#005bbb" /><path d="M10.5-117.6c64 49.1 126 88.7 150.1 170.8 1.2 3.9 8.3 20.6 3.2 23.1-3.3 1.6-6.2-2.9-3.3-5.3 3.3-2.7 7.3 2.8 3.6 5.1-6.3 4.1-9.8-24.1-10.8-27.8-8.2-27.8-21.7-54-39.5-76.9-27.4-35.4-64.2-58.5-99.8-84.5-1.5-1.1-5.1-5.4-3.5-4.5z"  fill="#005bbb" /><path d="M21.8 44.9c-1 5.8-4.9 36.7-14.4 32.8-6.1-2.5-1.6-11.9 4.1-8.8 5.8 3.1 0.3 12-5 8.3-8.8-6.1 17.3-56.3 15.3-32.3z"  fill="#c2e1ff" /><path d="M26.6-256c17.9 29.5 43.4 53.5 63.5 81.4 27 37.4 49.3 78 75.5 116 26.1 38 56 73.4 81.7 111.7 2.4 3.6 14.1 17.8 12 21.6-1.6 3.1-6-0.7-3.2-2.8 2.4-1.8 5 2.1 2.4 3.7-0.2 0.1-76.5-104.7-84.2-115.6-30.8-43.1-56.7-89.3-87-132.6-16.8-24-37.1-45.1-54.8-68.4-1.5-2-10.9-21-5.9-15z"  fill="#c2e1ff" /><path d="M-2-395.7c-35.4 60.9-43.5 136.4 3.8 193.7 30.7 37.2 72.9 63.7 105.8 99 1.8 2 18.6 18.7 14.9 19.9-5.7 1.9 5.6-2.6 0.2 0-3.1 1.4-29.5-31.3-33.3-35.2-49.1-49.7-116.7-85.7-127.2-161.4-4.2-30.8 0.5-62.6 12-91.4 13.9-34.8 29.6-38.7 23.8-24.6z"  fill="#fff" /><path d="M43.4-363.4c3.5 57.4 54.2 88.7 78.3 136.4 32 63.4 23.2 109.5 72.8 180 15.5 22.1 33.4 42.2 52.1 61.6 1.7 1.8 14.8 12.9 12.4 14.9-1.8 1.6 1.9-1-0.2 0.1-2.7 1.4-18.6-17.9-21.1-20.5-42.4-44.1-79-94.3-96.5-153.6-6.7-22.6-10.5-46-18.6-68.1-15.9-43.6-54.1-71-74.4-111.7-6-12-10.1-25-11.6-38.3-0.5-4.5 5.9-5 6.8-0.8z"  fill="#fff500" /><path d="M48.3-53.8c32.4 30.9 56.2 67.9 63.7 112.6 0.6 3.9 3.6 12.7 1.3 16.2-2.5 4-8.6-0.3-5.6-3.9 3.4-4.3 9.2 2.7 4.3 5.2-7.1 3.6-6.1-13.9-6.5-16.5-2.4-17.6-7-34.8-14.4-51-10.3-22.4-25.5-41.9-42.8-59.3-0.8-0.9-2.8-5.5 0-3.3z"  fill="#fff" /><path d=""  fill="#fff" /><path d="M65.8 37.6c0.9 5.4 6.9 40.8-2.2 40-5.3-0.5-4-8.8 1.1-7.7 5.2 1.1 3.1 9.1-2 7.5-5.3-1.7-2.3-13.3-2.3-17 0-4.6-4.2-22.9 0.5-25.3 2.2-1.2 4.3 0.4 4.9 2.5z"  fill="#c2e1ff" /><path d="M71.1-180.9c41.7 47.1 142.5 188.3 174.7 243.1 1.4 2.4 8.1 9.9 5.1 12.6-2.2 2.1-5.3-1.6-2.9-3.4 2.5-1.8 5.1 2.2 2.5 3.7-3.8 2.2-14.7-21.8-16.9-25.2-16.9-26.5-36.3-51.4-54.7-77-34-47.3-65-97.5-102.1-142.6-0.6-0.7-10.4-15.5-5.7-11.2z"  fill="#fff" /><path d="M81.2-398.8c4 60.3 59.9 90.6 79.6 143.7 20.8 55.8 2.5 115.8 29.5 171.2 10.3 21.1 24.1 40.4 39.9 57.7 1.5 1.7 14.8 13.6 12.2 14.7-0.1 0-0.5 0.1-0.6 0.1-4.4-0.5-12.8-12.3-15.9-15.5-87.5-93.4-44.6-128.4-68.4-220-11.8-45.4-51.6-72.1-71.7-112.7-13.5-27.3-7.9-53-4.6-39.2z"  fill="#c2e1ff" /><path d=""  fill="#005bbb" /><path d="M93.7-140c52.8 62.3 107.7 133.2 146.4 205.3 1 1.9 6.5 8.6 2.5 10.3-2.5 1-4.4-2.5-2.3-4.1 2.6-1.8 5.2 2.4 2.5 4-0.2 0.1-51.9-78.8-57.8-87.2-29.2-41.3-58.2-82.9-90.2-122.1-0.4-0.4-5.3-10.1-1.1-6.2z"  fill="#005bbb" /><path d="M100.8-84.8c37.7 34.8 68.5 78.2 90.3 124.5 2.2 4.8 17.1 32.5 12.1 35.8-3.7 2.4-6.3-4.4-1.9-5 5.1-0.8 3 7.9-1.2 5-3.1-2.1-29-65.1-35.2-75.3-17.3-28.8-37.8-55.9-61.8-79.6-1.4-1.4-4-6.6-2.3-5.4z"  fill="#005bbb" /><path d="M108.5-49.9c26.5 27.4 47 60.6 59.6 96.7 1.5 4.4 11.4 26.5 6 29.3-4.3 2.3-6.5-5.5-1.6-5.7 5.7-0.3 2.6 9-1.8 5.4-2.8-2.3-16-49.8-20-58.4-11-23.2-25.4-44.6-42.6-63.8-1-1.1-2.4-5.9 0.4-3.5z"  fill="#c2e1ff" /><path d=""  fill="#005bbb" /><path d="M128.3-398.9c12 49.4 49.5 87.8 58.3 138.6 10.4 59.8-13 117.8 14.1 175.5 12.9 27.5 32.7 50.8 55.4 70.7 3.2 2.8 15.2 9.9 16.2 13.7 0.1 0.4-0.2 0.9-0.6 1.1-5.1 1.6-27.9-23-31.9-26.9-97.6-93.7-41.4-141.8-61.3-242.9-8.2-41.6-35.4-74.4-50.6-113.2-8.5-21.6-0.4-18.7 0.4-16.6z"  fill="#fff500" /><path d="M131.5-105c38.7 58.2 87.2 112.4 121.4 173.3 0.6 1 4.8 6.8 0.5 7.2-10.7 1.1 10.1-5.8 0.9-0.3-1.3 0.8-36.1-52.1-40.5-58-28.2-38-55.9-76.3-82.3-115.6-0.8-1.2-4.2-11.5 0-6.6z"  fill="#fff" /><path d="M140.4-178.7c16.5 71.3 46.7 129.4 97.4 182.8 16.3 17.1 54.7 44.7 59.6 68.8 0.8 3.8-5.9 2.6-3.8-0.6 1.8-2.8 5.7 1 2.9 2.8-1.2 0.8-28.5-35.9-32.4-40.1-42.7-46.2-85.9-89.1-110.6-148.4-8.5-20.5-14.6-42.2-18.9-63.9-0.8-3.9 4.6-4.9 5.8-1.4z"  fill="#fff500" /><path d="M148-213.6c21.7 90.7 11.3 123.6 81.6 199.6 7.3 7.8 86 85.5 78.8 89.1-2.2 1.1-4.2-2-2.3-3.5 2.2-1.8 4.9 1.9 2.4 3.4-1.3 0.8-26.4-33.5-30.2-37.5-42.6-45.2-88.3-83.1-113.1-142-5.8-13.7-28.4-100.4-22.9-110 1.5-2.6 4.8-1.6 5.7 0.9z"  fill="#fff" /><path d="M155.8-165.5c9.1 68.6 44.7 124.2 93.8 171.6 16.7 16.1 55.4 42.6 60.1 66.7 0.6 3.3-4.9 3.2-4.1-0.1 0.9-3.8 6.5 0.2 3.2 2.2-1.5 1-25.6-32.6-29.4-36.5-41.6-44.5-86.8-81.3-112.1-138.6-9-20.3-15.3-42.3-18.1-64.3-0.5-4.3 5.4-4.9 6.6-1z"  fill="#fff" /><path d="M161.5-399c6.9 47.9 32.1 90.8 35.7 139.5 3.7 49.2-14.3 98.3-1.8 147.1 5.5 21.6 15.9 41.7 29.3 59.3 2 2.6 12.8 12.9 12.2 15.5-0.1 0.5-0.6 0.9-1.1 1-4.5 0.7-17.2-19-19.9-22.6-52.5-72.3-19.2-131.5-26.5-209.8-4.1-44-25.5-83.5-33.8-126.6-0.9-4.7 4.2-9.2 5.9-3.4z"  fill="#fff500" /><path d="M171.8-398.6c3.9 47 25.5 90.4 28.2 137.7 3.4 59.9-20.3 117.6 6.3 175.2 14.2 30.8 37.7 55.3 63.9 76.4 3.5 2.8 16.6 10.1 17.7 14 0.1 0.4-0.2 0.9-0.5 1-5.2 1.7-31.8-24.7-36.5-28.8-107.7-94.7-40.1-165.4-62.8-277.1-5.6-27.6-15.6-54.2-20.8-81.9-2.2-12.1 1.3-29.7 4.5-16.5z"  fill="#c2e1ff" /><path d="M178.4-238.3c11.7 87.9-17.3 128.8 52.9 206.2 28.7 31.7 67.6 53.5 92.9 88.3 1.9 2.6 14.1 16.9 9.1 19.2-3.3 1.5-4.5-4.3-0.9-4.3 3.6 0 2.2 5.8-1 4.3-7.5-3.6-17.9-28.2-24.6-35.5-44.3-48.9-100.9-78.8-124.8-144.3-7.5-20.5-17.4-116.9-10.2-134.9 1.4-3.5 5.8-2.2 6.6 1z"  fill="#005bbb" /><path d=""  fill="#005bbb" /><path d=""  fill="#005bbb" /><path d=""  fill="#fff500" /><path d="M191.7-397.9c-3 47.1 13.7 92.5 13.7 139.5 0 49-18.2 97.9-5.9 146.6 5.7 22.7 17 43.6 31.7 61.8 2.1 2.6 13.6 13 13.2 15.4-0.1 0.4-0.5 0.9-1 1-4.4 0.8-18.2-18.8-21-22.4-55.6-71.7-23.5-132.9-24.6-212.5-0.5-39.6-12.8-77.7-13.9-117.2-0.2-8.1 6.7-24.8 7.8-12.2z"  fill="#fff" /><path d="M213.7-22c8 9.8 89 89.3 81.7 96.8-2.7 2.8-5.4-3.4-1.6-3.5 3.3-0.1 2.3 5.3-0.7 4-6.9-2.9-17.3-25.4-22.8-31.9-18.3-21.3-39.1-40.4-57.4-61.7-1.3-1.5-2-6.3 0.8-3.7z"  fill="#fff500" /><path d="M222.1-397c-14.3 46.3-4.8 94.9-8.7 142.3-4.6 56.8-26 112.5-1 167.7 14.6 32.1 39.8 56.4 67.4 77.5 2.7 2 21.8 17.5 21.1 17.7-3.3 0.7 3.3-1 0.1 0-2.1 0.7-9.6-7-11.3-8.3-48.9-37.1-93.8-78.9-97.3-144.4-2.2-40.6 11-80.5 13.8-120.9 3-41.7-4.3-84.1 4.8-125.3 1.4-6.5 13-18.9 11.1-6.3z"  fill="#005bbb" /><path d="M228.6 7.1c18.2 21 38.7 41.2 52.5 65.4 1.9 3.4-4.8 4.3-3.8 0.5 0.9-3.8 6.4 0.1 3.1 2.3-3.1 2-17.3-22.9-19.7-26.2-10.7-14-45.2-53.8-32.1-42z"  fill="#c2e1ff" /><path d="M236.4 38c4.9 6.7 24.2 27.7 22.9 36-0.6 3.4-5.9 1.3-4-1.5 2-2.9 5.9 1.3 2.9 3.1-4.2 2.5-9-11.7-10.4-14.2-4.5-7.4-17.3-29.8-11.4-23.4z"  fill="#c2e1ff" /><path d="M246.9-292.9c-18 72.8-56.8 157.9-8.2 226.7 33.6 47.6 93.2 67.9 124.3 117.9 1.9 3 15.2 22.4 9.5 24.4-3.8 1.3-4.6-5.3-0.6-4.9 4 0.4 1.9 6.7-1.5 4.7-6.6-3.9-13-26.3-17.9-33.4-45.2-65.3-134.9-85.9-144.9-175.8-2.1-19.2 21.9-157.3 32.3-164.4 3.7-2.5 7.4 1 7 4.8z"  fill="#c2e1ff" /><path d="M251.6 56c1.7 2.5 13.6 17 9 19.2-2.7 1.3-4.4-3-1.6-4 2.8-1 4.1 3.5 1.2 4.1-7.1 1.6-13.2-24.9-8.6-19.3z"  fill="#005bbb" /><path d="M262-313.6c-22.9 72.2-68.6 167.9-23.7 239.5 32.3 51.6 95.6 71.7 128 123.3 2 3.2 15.9 23.6 10.1 25.7-3.2 1.1-4.7-4.1-1.4-4.9 3.9-0.9 4 5.7 0.1 4.9-4.8-1-15.7-29.6-19.4-34.8-45.3-65-136-85.8-143.8-176.2-2.1-24.3 28-167.9 42.3-182.2 3.7-3.7 8.7 0.3 7.8 4.7z"  fill="#005bbb" /><path d="M268.8-147c-1.4 24.1 5.6 47.5 19.4 67.3 32.7 46.8 86.2 71.7 114 123.5 2.3 4.2 16.8 28.6 12.4 31.9-3.2 2.4-6-3.7-2.1-4.6 4.7-1 3.3 7.2-0.8 4.7-9.3-5.7-18.3-39.8-25-50.3-29.7-45.9-83.5-70.2-110.8-117.4-8.2-14.1-19-39.2-14.6-56.1 1.2-4.5 7.1-3.1 7.5 1z"  fill="#fff" /><path d="M277.1-339.3c-26.3 70.7-79.2 187-39.7 258.3 27.6 49.7 84 70 119.3 112.6 1.5 1.8 15.2 16.6 9.5 17.6-9.4 1.7 8.6-5.8 0.8-0.3-1.5 1.1-24.7-29.3-28.3-32.9-49.8-49.2-120.1-76.7-124.1-156.9-1.7-33 36-176.2 53.8-202.8 3.3-5 9.8-0.8 8.7 4.4z"  fill="#fff500" /><path d=""  fill="#fff" /><path d="M242.9-396.3c-20 44.6-17 92.7-23 140.1-5.2 40.6-19.4 81.4-16.1 122.6 1.7 21 8.2 41.3 18.8 59.5 0.9 1.5 12.7 16.8 7.6 16.5-7.4-0.4 6.8-5.1 1.1-0.4-2.5 2.1-5.7-4.6-6.3-5.6-46.2-63.4-21.4-130.1-12.5-200.4 5.6-43.9 2.9-89.1 19.1-131 2.7-7 14.3-11.8 11.3-1.3z"  fill="#fff" /><path d="M295.4-16.6c16.4 12.1 88.1 69.1 82.1 90.9-0.9 3.3-6.1 1.6-4.8-1.6 1.5-3.7 7 0 4.1 2.8-1 1-25.4-40.1-29.9-45.5-14.4-17.3-32.4-30.8-50.4-44-0.7-0.5-1.8-3-1.1-2.6z"  fill="#fff500" /><path d="M303.1 16.3c6.3 5.2 55.7 50.6 46.4 58.7-2.8 2.4-5.8-3-2.2-4.1 3.6-1 4 5.2 0.3 4.6-4.3-0.7-11.8-20.3-14.6-24.4-8.8-12.7-19.7-23.2-31.1-33.4-0.9-0.8 0.2-2.1 1.2-1.4z"  fill="#005bbb" /><path d="M309.7-396.7c-23.7 69.7-93.6 215.4-77.9 283.4 8.9 38.4 36.7 65.6 67.2 88.3 7.1 5.3 29.4 17 20.5 17-4.7 0-17.3-12.7-21.4-15.8-45.8-33.9-81.3-75.7-76.3-136.1 5.8-68.8 54-169.8 78-237.8 2.3-6.5 11.6-7 9.9 1z"  fill="#c2e1ff" /><path d=""  fill="#c2e1ff" /><path d="M325.5-5.7c8.5 6.6 76.4 70.3 61.5 81.4-3.3 2.4-6.1-3.7-2.1-4.6 4-0.8 3.9 5.9 0 5.1-5.1-1.2-16.1-32-19.9-37.7-10.6-15.9-24-29.3-38.7-41.4-0.2-0.2-3.4-4.4-0.8-2.8z"  fill="#c2e1ff" /><path d="M337-268.6c-17.8 60.2-63.7 119.1-25.6 181.6 30.2 49.7 80.9 80.2 107.2 133.8 1.8 3.7 15.3 27.2 10.3 29.1-3.7 1.3-4.5-5.1-0.7-4.8 3.9 0.3 1.9 6.6-1.4 4.6-3.1-1.8-29.1-58.3-35.5-67.6-34.8-49.7-100.5-84.3-102.8-151.3-1-31.7 23.1-101.9 40-129.3 3-4.9 9.5-1.1 8.5 3.9z"  fill="#005bbb" /><path d="M344-336.7c-5.1 83.6-75 170-45 237 22 49.3 120.5 113.1 124.7 164.2 0.4 4.5-7.2 2.2-4.3-1.4 2.8-3.5 6.7 3.3 2.2 4-3.5 0.5-28.7-52-33.3-58.4-36.1-50.3-103.9-84.1-105.5-153.1-1.2-51.9 32.7-96.1 45.5-144.8 4.1-15.7 3-33.9 7.9-49 1.5-4.6 7.5-2.8 7.8 1.5z"  fill="#fff" /><path d=""  fill="#fff" /><path d="M359.4-181.9c-23 84.9 42.3 139.9 78.1 209.6 2.6 5.1 25.3 46.3 21.7 47.9-3.1 1.5-4.3-4.1-0.9-4.1 3.4 0 2.2 5.5-0.9 4.1-11.6-5.3-24-46.3-30.1-57.9-25.4-48.3-72.7-92.5-80.5-148-2.2-15.5-3.4-40.4 4.2-54.8 2.6-4.9 9-1.7 8.4 3.2z"  fill="#005bbb" /><path d="M364.5 61c1.3 2.4 9.3 13.2 4.2 15-3.2 1.1-4.7-4-1.4-4.8 3.3-0.8 4.3 4.5 0.9 4.9-8.6 1.1-8.1-21.8-3.7-15.1z"  fill="#fff500" /><path d="M373.2-342.5c19.3 108.6-46.9 176.5-14.3 249 13.8 30.7 37.2 56.2 55.2 84.4 16.6 26 29.9 53.9 43.4 81.5 2.1 4.3-6.4 3.6-3.7-0.2 2.3-3.4 6.2 2.5 2.3 3.4-5.7 1.2-29.7-55.3-33.5-62.3-26.6-48.9-76.7-93-81.2-151.1-4.2-54.6 29.8-103.7 29.8-158.4 0-15-5.5-31.4-4.4-46 0.3-3.9 5.4-3.6 6.4-0.3z"  fill="#fff" /><path d="M381.7-259.3c-8.2 63.8-43.6 116.6-9.2 179.6 18.9 34.7 83.4 119.2 89.3 152.9 0.7 3.9-6.1 2.5-3.9-0.8 2.2-3.3 6.1 2.3 2.3 3.3-6.1 1.4-34.3-63.2-38.6-71-26.8-48.3-73.1-92.4-73.4-151-0.2-29.9 10.9-58 18.8-86.3 1.6-5.7 3.2-30.1 9.6-31.5 3.1-0.7 5.1 2 5.1 4.8z"  fill="#fff" /><path d="M386.7-65c7.6 12.4 85.4 136.8 77.7 140.5-3 1.5-4.3-3.9-0.9-3.9 3.3-0.1 2.3 5.3-0.8 4-11.9-5.1-25.1-47.1-31.1-58.9-14.3-27.7-32-53-48.3-79.7-1.4-2.2 1.8-4 3.4-2z"  fill="#c2e1ff" /><path d=""  fill="#c2e1ff" /><path d="M402.7-322.8c26.8 85.4-18.1 170.3 18.5 254 16.5 37.8 34.8 75.9 54.7 112 2.1 3.8 19.9 31.4 17.4 32-2.2 0.6-3-3-0.7-3.3 2.3-0.3 2.6 3.3 0.3 3.4-6.1 0.2-19.5-27.9-22.3-33-29.5-52.4-68.2-117.2-74-177.8-4.4-46.3 11.9-91.4 9.2-137.8-0.2-3-11.3-68.7-3.1-49.5z"  fill="#c2e1ff" /><path d="M411.6-194.5c-10.9 84.6 18.3 137.5 54.3 211.3 7.4 15.1 15.1 30 24.4 44 1.1 1.6 11.4 12.9 7 14.1-2.2 0.6-2.9-2.9-0.7-3.3 2.2-0.3 2.6 3.2 0.3 3.3-6.5 0.3-21-29.7-24-35.1-28.2-50.1-62.6-110.9-70.8-168.3-2.8-19.4-5.6-49.3 1.5-68 1.8-4.7 8-2.5 8 2z"  fill="#c2e1ff" /><path d="M419-188.7c-6.3 76 22.7 138.8 55.5 205.6 7.4 15.1 15.5 29.8 25 43.6 1.3 1.9 12.5 13.4 8.4 14.7-0.1 0-0.2 0.1-0.4 0-6 0.5-21-27.5-24-32.5-30.2-50-62.2-113.7-71.2-171.8-2.7-17.5-6.7-44-1.1-61.1 1.5-4.6 7.6-2.8 7.8 1.5z"  fill="#fff500" /><path d="M424.3 0c4.2 7.2 40.4 73.7 36.8 75.4-2.6 1.2-4.3-3-1.6-4 3.2-1.1 3.9 4.4 0.5 4.2-3.9-0.4-7.4-11.5-9-14.7-10.2-19.6-20.1-39.3-30.3-58.9-1.3-2.4 2.1-4.2 3.6-2z"  fill="#fff500" /><path d="M431.1-391c49.4 57.8 73.5 127.7 106.4 161.8 14.9 15.4 32.9 27 50.8 38.6 9.6 6.2 10.9 7.7 10.6 7.9-1.2 1-17.5-11.1-19.7-12.5-68.8-44.5-73.1-83.3-113.9-147-8.3-13-33.5-33.3-36.7-47.5-0.4-1.6 1.5-2.2 2.5-1.3z"  fill="#c2e1ff" /><path d="M441-186.3c4.9 71 34.3 142.4 68.2 204.4 8.6 15.7 18.8 30.5 30.2 44.3 1 1.3 11.8 11.1 8 12.4-2.5 0.9 2.4-0.3-0.3 0.1-5.8 0.7-23.3-27.1-26.8-31.9-40.3-56.1-77.4-147.7-85.1-216.4-0.4-3.6 3.4-24.9 5.8-12.9z"  fill="#fff500" /><path d="M447 22c2.8 5.6 28.3 52 26 53.3-2.4 1.3-4.2-2.5-1.6-3.6 2.5-1 3.9 3 1.2 3.7-4 1.1-9.9-13.7-11.4-16.4-3-5.4-22.4-49.4-14.2-37z"  fill="#fff500" /><path d="M453.8-399.4c47.2 46.2 58.4 100.2 97.9 147.2 11.6 13.8 25.3 25.3 39.6 36.3 2.8 2.2 10.8 5.1 7.9 7.3-8.7 6.6-61.1-55.4-66.3-63.2-16.2-24.4-26.5-52.2-41.6-77.3-10.4-17.3-23.3-32.6-37.5-46.9-0.9-0.9-2.7-5.5 0-3.4z"  fill="#fff500" /><path d="M461.9 54c1.6 3 13.1 19 9.4 21-2.4 1.3-4.2-2.6-1.7-3.7 2.5-1 3.9 3 1.3 3.8-8.7 2.4-13.9-28-9-21.1z"  fill="#005bbb" /><path d="M469.7-22c11.5 26.3 23.4 52.6 40 76.1 3 4.2 14.4 14.4 14.7 19.3 0 0.5-0.3 1.2-0.8 1.4-3.5 1.6-16.5-18.5-18.6-21.4-16.3-22.4-29.1-47.8-39.7-73.4-1.2-3 2.9-4.6 4.4-2z"  fill="#005bbb" /><path d="M477.1-302c18.9 40.1 34.8 78.7 71.7 105.9 13.6 10 28.3 18.3 42.6 27.3 6.1 3.9 7.3 5.7 7.2 5.8-1.2 1-19.7-12.4-22.1-13.9-28.4-17.5-55.1-35.3-73.7-63.7-10.8-16.4-26.4-40.5-30.1-60-0.5-2.8 3.1-3.6 4.4-1.4z"  fill="#005bbb" /><path d="M484-356c26.6 37.3 39 82.9 71.6 116.1 11 11.2 23.6 20.8 36.2 30 4.8 3.5 7.5 5.8 7 6.3-1.7 1.4-21.5-15.2-24.1-17.2-44.4-34-60.6-79.8-88.9-125.7-0.2-0.3-6.7-15.1-1.8-9.5z"  fill="#fff" /><path d="M492-245c16.7 34.5 42.2 57.9 74.3 78 3.2 2 33.9 21.1 32.7 22.5-2.4 2.9 1.1-3.9 0.2-0.3-0.3 1.2-17.1-10.9-19.2-12.3-26.6-17.4-54.3-32.8-74.3-58.2-6-7.6-15.6-18.7-17.9-28.2-0.6-2.7 2.8-3.6 4.2-1.5z"  fill="#fff" /><path d="M541.3-399.1c14.7 37.3 17.9 78.2 36.7 113.9 2.3 4.4 21.9 34.7 21.2 35-5.7 1.9 5.6-2.5 0.1-0.1-3.8 1.7-17.6-20.8-19.7-24.1-23.4-36-28-77.9-41.4-117.8-0.8-2.5-0.5-14 3.1-6.9z"  fill="#c2e1ff" /><path d="M535.8-399.5c17 37.6 20.7 79.8 40.6 116.3 2.4 4.3 23.1 35.4 22.6 35.5-5.5 1.9 5.4-2.5 0.2 0-4.1 1.9-20.5-24.1-22.8-27.7-23.2-35.9-28-78-43.1-117.2-0.8-2.2-1.3-13.6 2.5-6.9z"  fill="#fff500" /><path d="M514.6-29c12.9 27.1 27.1 53.1 44.9 77.3 2.2 3 20.7 24.6 17.8 26.5-2.2 1.5-3.8-2.7-1.2-3.1 2.6-0.4 2.4 4-0.2 3.3-5.4-1.5-13.6-17.4-17.1-22-10.3-13.7-49.2-65.7-48.6-81.1 0.1-2.6 3.2-2.8 4.4-0.9z"  fill="#fff" /><path d="M556.6-398.8c8.7 35.5 10.5 72.6 25.5 106.3 1.9 4.3 18.7 33.2 17 33.7-2.2 0.6-2.9-3-0.6-3.4 2.3-0.3 2.6 3.3 0.3 3.4-3.6 0.1-8.9-11-10.7-13.9-19.3-29.8-38.1-89.8-37.5-125.5 0.1-3.7 4.8-3.7 6-0.6z"  fill="#005bbb" /><path d="M528.2-147.8c7.5 7 78.3 63.6 71.7 71.8-1.5 1.9-4.3-0.7-2.7-2.4 1.7-1.7 4.2 1.2 2.4 2.7-2.2 1.7-20.7-23.2-23.6-26.2-14.8-15.4-31.6-28.6-47.5-42.8-0.8-0.7-3-5.1-0.3-3.1z"  fill="#005bbb" /><path d="M536.5 30c3.1 4.8 33.1 43.7 31.7 44.7-0.1 0.1-0.2 0.1-0.3 0.2-3.1 1.3-11-11.8-12.8-14-2.5-3.1-27-40.6-18.6-30.9z"  fill="#c2e1ff" /><path d="M543.1-216.7c13.2 11.7 28.2 21 43 30.3 1.6 1 14 8 13.1 9.3-0.1 0.1-0.3 0.2-0.5 0.2-3.3 0.2-12.9-8.4-16-10.4-13.9-8.9-28-17.6-40.8-28-1-0.8 0.2-2.1 1.2-1.4z"  fill="#c2e1ff" /><path d="M551.9-34c4.8 8.8 50.4 89.7 47.7 90.9-3.1 1.5-4.4-4.1-0.9-4.1 2.9 0 2.7 4.6-0.2 4.3-4.2-0.4-9.7-15.8-11.7-19.2-4.6-8.2-39.6-68.3-38.9-71.4 0.5-2 2.9-2 4-0.5z"  fill="#005bbb" /><path d="M558.4-244.9c8.9 9.5 19 18 29.3 26 1.4 1.1 12.5 8.2 11.2 9.7-0.1 0.2-0.4 0.3-0.6 0.3-2.2 0-7.1-5.3-8.9-6.6-11.3-8.6-42.1-38.2-31-29.4z"  fill="#c2e1ff" /><path d="M568-339.6c4.5 22.6 11.4 44.6 23.2 64.4 1.7 2.9 9.9 12 8.9 14.9-0.9 2.5-4.7 0.2-2.8-1.8 1.9-1.9 4.3 1.8 1.8 2.8-3.7 1.4-9.6-11.2-11.2-13.8-12.7-19.8-21.3-42.2-25.9-65.3-0.8-4 4.8-5 6-1.2z"  fill="#fff500" /><path d=""  fill="#005bbb" /><path d="M580.7-119.7c3.1 2.6 20.1 14.8 19 18.9 0 0.1-0.3 0.6-0.3 0.6-2.9 2.9-21.5-21.5-18.7-19.5z"  fill="#c2e1ff" /><path d="M587.8-193.5c1.5 1 12.4 7.1 11.4 8.4-2.9 3.7-15.6-10.5-11.4-8.4z"  fill="#005bbb" /><path d="M597.7-307.8c0.9 3.3 5.9 11.3 2.3 13.8-3.4 2.4-6.1-3.9-1.9-4.7 3.5-0.6 4.2 4.9 0.6 5.2-11.5 0.9-5-23.5-1-14.3z"  fill="#fff" /><path d=""  fill="#fff" /><path d=""  fill="#fff500" /><path d=""  fill="#fff" /><path d=""  fill="#fff500" /><path d=""  fill="#fff" /><path d=""  fill="#fff" /><path d=""  fill="#005bbb" /><path d=""  fill="#c2e1ff" /><path d=""  fill="#c2e1ff" /><path d=""  fill="#005bbb" /><path d=""  fill="#c2e1ff" /><path d=""  fill="#fff500" /><path d=""  fill="#005bbb" /></svg>