<svg width="1200" height="675" viewBox="-500 -500 1200 675" xmlns="http://www.w3.org/2000/svg"><path d="M-500-500h1200v675h-1200z" fill="#000"/><path d=""  fill="#fff500" /><path d=""  fill="#fff" /><path d=""  fill="#fff" /><path d=""  fill="#005bbb" /><path d="M-392.9-146.2c20.6 60.3 59.7 109.9 90.7 164.7 4.8 8.5 32.9 52.9 20.2 60.5-9.2 5.5-14.8-11.5-4.1-12.5 10.7-1.1 8.6 16.6-1.5 13.1-9.6-3.3-13.3-34.4-17.2-43.1-25-56.7-66.5-104.6-92.1-161.2-2.5-5.5-6.9-12.5-7.6-18.6-0.9-7.3 8.5-8.7 11.6-2.9z"  fill="#005bbb" /><path d="M-394-94.5c17.1 34.8 71.6 133.9 54.9 171.6-6.1 13.7-26.1-1-14.9-10.9 11.3-9.9 23.3 11.9 8.9 16.1-19 5.6-11.5-50.1-13.5-60.2-8.3-42.2-38.2-81.3-45.2-113.2-1.4-6.3 6.7-8.3 9.8-3.4z"  fill="#fff500" /><path d="M-388.8-244.6c20.4 84.2 35.8 140 91.5 208.9 9.8 12.1 82.8 102 60.4 114.8-9.5 5.4-14.9-11.9-4-12.8 10.9-0.9 8.5 17-1.7 13.3-1.9-0.7-21.3-53.8-26.4-62.7-30.9-54.5-79.1-95.6-104.2-154-12.7-29.5-29.9-73.4-29.4-106 0.1-8.5 11.2-8.6 13.8-1.5z"  fill="#fff500" /><path d="M-371.7-188.7c7 29.6 16.8 58.4 31.7 85 11.1 19.7 135.8 167.4 107.6 183-9.7 5.4-15-12.4-3.9-13.1 11.1-0.8 8.4 17.5-2 13.5-10-3.8-14.9-42-19.6-52.1-26.5-56.4-77.1-96.9-104.9-152.9-8.4-17-22.1-42.3-22.3-61.6-0.1-8.3 10.7-8.7 13.4-1.8z"  fill="#c2e1ff" /><path d="M-354.6-188.9c28.1 103 92.1 135.1 126.8 219.6 3.5 8.5 20.7 44 8.2 49.8-10.8 5-15.1-14.3-3.2-14.3 11.9 0 7.7 19.3-3.1 14.3-3-1.4-16.7-55.9-21.2-65.8-24.7-54.6-72.9-93.8-99.7-147.3-7.6-15.1-19.9-37-20.6-54.1-0.4-8 10.1-8.7 12.8-2.2z"  fill="#fff500" /><path d="M-339.9-58.4c9.8 15.1 96 124.3 75.8 137.1-7.5 4.8-14.4-7.5-6.4-11.4 9.3-4.6 13.4 12.2 3 12.4-10.6 0.2-14.7-30.2-17.9-37.3-14.6-32.7-52.2-69.8-62.1-96.9-1.8-4.9 4.5-7.4 7.6-3.9z"  fill="#fff500" /><path d="M-322.9-40.4c9.4 13.1 84.8 106.8 65.1 119.3-7.5 4.8-14.4-7.5-6.4-11.5 8-3.9 13.5 9.1 5.1 12.1-11.9 4.3-17.5-31.5-20.4-38.1-12.8-28.2-32-51.9-49.8-77-3-4.3 3-8.3 6.4-4.8z"  fill="#fff" /><path d="M-305.6-85.4c21 29.4 46.2 55.5 64.5 86.8 5.8 10 39.4 71.2 22.3 79.1-10.9 5-15.1-14.4-3.2-14.4 12 0 7.7 19.4-3.2 14.4-4-1.9-14.8-51.6-18.7-61.1-15.8-38.1-43.6-67.5-67.9-100-3.1-4.2 2.8-8.2 6.2-4.8z"  fill="#fff500" /><path d="M-264.1-400.5c18.2 39.1 43.9 74.6 64.9 112.2 20.5 36.8 37.4 75.4 57.1 112.6 12.5 23.6 54.2 89 47.5 115-3.3 12.7-22.6 2.8-14.4-7.3 8.3-10.1 21.7 6.9 10 12.6-15.9 7.7-13.9-29.4-15.5-35.7-6.5-26.1-20.1-49.9-32.9-73.4-23.6-43.5-43.6-88.8-67.6-132-18.6-33.5-41.1-65.1-58.4-99.3-3.1-6.2 5.6-10.2 9.3-4.7z"  fill="#005bbb" /><path d="M-271-297.3c49.9 62.1 115.4 156.7 126.7 236.8 4.1 28.9-0.1 57.7-6.2 85.9-2.7 12.2-5.1 52.8-18.1 57.9-13.1 5.1-20.1-16-6.4-19.7 13.6-3.7 18.2 18.1 4.3 20.3-5.8 0.9-11.3-3.4-12-9.3-4.1-41.5 38.8-93.7 15.7-172.5-20.2-68.6-64.2-136.1-107.7-192.1-3.2-4.2-1.8-12.8 3.7-7.3z"  fill="#c2e1ff" /><path d="M-232.8-400.6c29 71.1 64.1 142.9 99.2 211.2 15.8 30.8 35.6 60 47.9 92.4 4.9 12.8 21.5 62.1 3.2 70.3-17.2 7.6-18.4-25-0.8-18.8 15.1 5.4 1 28-10.4 16.7-7.6-7.4 0.5-26.4 0.4-35.2-0.2-16.9-4.9-33.3-11.4-48.8-13.4-31.9-32.8-61-48.2-91.8-29.8-59.6-57.5-121-85.6-181.5-9.7-20.8 3.4-18.5 5.7-14.5z"  fill="#fff" /><path d=""  fill="#fff" /><path d="M-216.3-26.1c6.3 13.9 38 101 16.3 107.7-11 3.4-15.5-14.3-4.1-16.5 11.4-2.2 13.8 15.9 2.3 16.8-15.5 1.3-10.3-35.8-11.3-44.2-1.9-16.2-15.8-49.6-14.4-62.3 0.7-6.4 8.6-6.4 11.2-1.5z"  fill="#005bbb" /><path d="M-196.2 61.5c0.7 6.6 2.6 24.5-10.4 19.9-12.6-4.5-0.9-23.4 8.8-14 9.6 9.4-9 21.6-13.8 9.1-6.2-16.3 12.3-32 15.4-15z"  fill="#005bbb" /><path d="M-182.5-185.4c42.6 78.7 64.9 128.1 38.5 217.5-3.6 12.1-6.7 42.2-16.8 50-11.6 8.8-24.5-10.1-12.1-17.7 14.5-8.8 23.6 17.9 6.7 19.8-30.8 3.4 20.7-82.7 18.3-146.5-1.7-42.9-43.9-107.9-44.1-120.7 0-5.5 6.7-6.3 9.5-2.4z"  fill="#fff" /><path d="M-164.2-120.2c25.4 55.7 21.2 108.2 8 166.5-2.2 9.6-2.8 24.1-7.9 32.5-1.8 2.9-4.9 4.8-8.3 5-16.4 0.8-11.9-26 3.3-19.9 15.2 6.1-0.1 28.6-11.3 16.6-11.6-12.3 10.2-65.2 13.2-80.5 13.1-66.3-9.7-102.4-8.1-118.6 0.6-6.3 8.4-6.4 11.1-1.6z"  fill="#fff" /><path d=""  fill="#005bbb" /><path d="M-104.4-400.6c13.5 41 27.5 80.5 54.6 114.9 50.2 63.6 111 91 135.9 175 2.8 9.4 12.8 32.5 7.6 41.7-5.1 9.1-19.1 0.3-12.9-8.2 7.1-9.9 20.7 5.1 10 11.1-14.9 8.5-14.9-28.4-16.1-34-5.7-25.9-14.4-51.5-28.1-74.3-32.2-53.5-90.3-84.5-124.7-136.8-15.2-23-36.5-58.8-38.6-86.9-0.6-7.7 9.4-8.7 12.3-2.5z"  fill="#c2e1ff" /><path d=""  fill="#c2e1ff" /><path d="M-95.5-131.3c41.4 74.3 28.3 117.8-16.1 185.4-6.2 9.4-14.9 35.1-29.8 31.6-19.2-4.7-4.8-34.2 10.7-21.9 18.2 14.4-16.8 34.5-20.1 11.5-2.6-18 47.7-78.6 56.7-100.8 23.5-57.9-11.2-77.8-11-103.5 0.1-5.6 6.9-6.3 9.6-2.3z"  fill="#fff" /><path d="M-71.8 20.6c-8.2 12.8-44.7 76.9-63.2 63.1-14.2-10.7 3.8-32.1 16.8-20 13 12.1-7.3 31.5-18.8 18.1-9.9-11.5 37.7-75 48.4-80.5 13-6.7 22.8 8.2 16.8 19.3z"  fill="#005bbb" /><path d="M-61.6-154.4c52.8 78.9 62.4 133-6.2 206.2-8.8 9.4-26.5 37.3-41.2 35.6-25.8-2.9-4.5-42.8 12.3-22.8 16.7 19.9-26.2 34.1-24.6 8.1 1.3-21.6 68-73.3 80.1-103.5 7.3-18.4 7.9-38.2 2.8-57.2-6.2-23.4-23.3-40.7-30.9-62.6-1.8-5 4.7-7.4 7.7-3.8z"  fill="#fff" /><path d="M-45.3-255.2c22.7 27.9 50.9 50.7 73.7 78.5 45.9 56.3 67.1 138.5 31.1 205.2-8.5 15.7-31.3 56.9-51 59.5-26.9 3.6-15.5-42.2 6.6-26.3 22 15.9-17.8 41.2-22.9 14.6-3.2-16.6 29.7-39.2 38.9-51.5 19.5-26.2 30.7-56.5 29.4-89.4-3-80.4-58.1-128.8-108.5-183.6-3.4-3.7-2.6-11.8 2.7-7z"  fill="#fff500" /><path d="M-23-400.7c26 70.3 101.5 92.6 139.5 153.2 30.2 48.1 32.1 154.2 52.9 218.2 1.4 4.2 10.7 22.6-1.4 22.1-7.2-0.3-7.9-11-0.8-12.3 7.1-1.2 10.1 9.1 3.4 11.8-21.6 8.9-49.8-201.9-57.4-222.4-21.9-58.9-80.9-82.5-120.4-126.7-7.7-8.6-27.3-29.3-26.6-41.9 0.4-6.2 8-6.6 10.8-2z"  fill="#fff500" /><path d=""  fill="#fff500" /><path d="M7.7-156.3c52.8 68.3 55.4 150.7-7.3 213.2-9.7 9.6-30.2 35.9-45.9 31.3-17-5-12.4-31.1 5.3-29.9 20.7 1.4 16.7 33.9-3.7 30.3-10.5-1.9-15.9-14.1-10.3-23.1 20.6-33.2 69.4-40.4 83.7-104.7 5.3-23.7 1.7-48.3-6.7-70.9-5.6-15.1-16.6-27.8-22.2-42.4-1.8-4.6 4.2-7.1 7.1-3.8z"  fill="#005bbb" /><path d="M24.1-199.1c62.2 63.5 86.8 167.9 39.4 246.4-7 11.6-17 31-28.7 38.2-16.2 9.9-30.3-16.5-13.1-24.5 20-9.4 28.1 26.4 6 26.5-9.7 0.1-16.6-10-13.1-19 14.5-37 58.4-48.1 56.9-127.5-0.7-35.6-11.5-72.4-29.1-103.3-6.6-11.7-17.4-21.6-23.5-33.2-1.8-3.5 2.6-5.9 5.2-3.6z"  fill="#fff500" /><path d="M48-52.6c3.5 53.5-71.5 158.7-100 138.8-17-11.9 3.2-37.7 18.7-24.1 15.6 13.7-7.2 37.1-21.2 21.9-18.2-19.7 41.8-56.1 52.8-68.4 24.9-28 28.5-71.2 36.1-76.1 6.5-4.1 13 1.2 13.6 7.9z"  fill="#fff500" /><path d="M61.1-391.4c21 48.9 67.8 81.2 88.2 130.7 27 65.5 7 139.4 33.4 206.3 5.3 13.4 43.5 71.9 43.4 77.5-0.2 7.5-12.2 2.4-6.9-2.9 4.5-4.5 10.2 4.4 4.3 6.6-7.6 2.8-18.8-21.1-21.9-25.7-79.2-116.5-36.7-147.5-61.7-249.5-12.8-52.4-55-85.4-82.5-129.2-7.8-12.4-4-25 3.7-13.8z"  fill="#c2e1ff" /><path d="M83.5-29.6c-1.3 23.4-42.5 131.1-72.2 116-17.3-8.8-1.9-35.3 14.3-24.7 16.2 10.6-1.9 35.3-16.9 23-18-14.8 18.5-42.6 26.5-53.4 9.7-13.2 30.5-68 32.5-69.7 7.3-6.1 16 0.6 15.8 8.8z"  fill="#fff500" /><path d="M93.8-273.1c16.2 16.1 28.6 35.9 36.1 57.5 11.3 32.5 11.9 67.5 17.3 101.1 5.9 36.4 16.2 71.7 28 106.6 3.7 10.9 35.6 83.6 24.3 87.1-10.8 3.3-9.2-16.3 0.9-11.3 8.6 4.3-1.4 16.8-7.4 9.3-7.8-9.8-10.7-28.5-15-40.3-25.9-71.7-44.7-140.9-54.8-216.5-2.8-21.4-7-42.6-16.7-62.1-4.4-8.9-16.2-19.4-18.4-28.6-0.8-3.5 3.3-4.9 5.7-2.8z"  fill="#c2e1ff" /><path d=""  fill="#fff" /><path d="M135.3 24.8c-0.6 11.5 1.7 55.8-13.2 58.2-14.9 2.4-13.5-22.5 1-18.5 12.4 3.4 5.9 22.7-6.1 17.9-12.4-5-6.3-67.1 8.7-67.7 6-0.2 9.4 4.6 9.6 10.1z"  fill="#005bbb" /><path d="M151.6-159.7c4.4 63.6 21.3 121.3 50.2 178.1 3.9 7.7 35.3 55.6 24.4 60.1-18.8 7.7 5.3-24.7 3.3-4.4-1.3 13-11.9-1.7-13.3-4.8-27-56.8-59-109.7-72.7-171.9-3.7-16.8-10.8-40.5-8-57.7 1.6-9.8 14.3-8 16.1 0.6z"  fill="#fff" /><path d="M167.9-395.5c7.8 46.9 32.1 89.5 34.7 137.4 3.5 63.3-22.9 123.6 4.1 185.1 22.5 51.3 68.6 70.8 80.8 92.4 2.6 4.6-7 4.4-4.1-0.1 2.4-3.8 7 2.6 2.6 3.7-6.3 1.6-32.4-26.5-37.8-31.4-114.2-100.1-54.6-154.7-63.3-267.4-2.9-37.7-32.1-87-31.2-118.4 0.3-8.8 11.7-8.7 14.2-1.3z"  fill="#fff" /><path d="M185.9-125.1c8.4 114.7 94.6 123.5 129 196 4.3 9-12.7 10.1-9.9 0.8 2.9-9.5 16.3 1.3 7.7 6.2-8.5 4.8-25.1-32.3-30-38.1-24.4-28.3-55.4-50-77.6-80.5-12.8-17.7-22.7-37.3-29-58.3-9.4-31.4 5.1-43.8 9.8-26.1z"  fill="#c2e1ff" /><path d="M204.9-160.4c-6.6 53.7 13.1 102 52.9 138.1 10.2 9.2 111.8 84.9 87.9 101-7.2 4.8-14.2-6.9-6.6-10.9 7.7-4 13.3 8.4 5.3 11.5-10.7 4.2-15-23.1-17.8-28.3-29.5-55.1-96.8-75.6-124.8-133.6-10.2-21-22.4-57.6-15-81.2 3.4-10.8 17.5-6.7 18.1 3.4z"  fill="#fff" /><path d="M222.1-399c2.9 47.4 25.3 91.5 22.2 139.5-3.7 57.4-36.6 110.6-14.4 168.4 11.6 30.2 34.9 52.5 60.1 71.6 1.2 0.9 24.5 15.3 17.7 16.8-2.5 0.5-3.1-3.4-0.6-3.7 2.5-0.3 2.7 3.7 0.2 3.7-7.2 0-23.7-17.3-29.7-21.7-127.4-95.8-50-156.9-50.4-261.2-0.1-35.9-25-81.3-20.9-113.5 1.2-9.6 13.7-8.3 15.8 0.1z"  fill="#fff500" /><path d=""  fill="#fff500" /><path d="M254.7-369.6c7.7 39.7 24.5 76.6 19.6 117.9-6.4 55.2-42.5 105.4-16.3 161.2 19.1 40.8 111.6 93.2 115.4 122.5 1.3 9.9-15.6 5.6-9.7-2.4 5.9-8.1 15.2 6.6 5.4 8.4-7.8 1.4-10.6-13.6-13.2-17.9-7.4-12.6-17.4-23.4-28.4-33-49.3-43.4-103.2-77.2-96.1-151.8 4.1-43.4 28.8-82.4 26.2-126.8-1.5-25.6-17.1-51.7-16.8-76.6 0.1-8.6 11.2-8.7 13.9-1.5z"  fill="#fff500" /><path d="M274.7-257.6c-3.7 62.1-48.3 116.8-11 177.9 32.2 52.9 100.5 71.2 119.4 134.3 1.9 6.3 8.7 22.1-0.9 26-11.6 4.7-15.1-15.7-2.6-15.1 12.5 0.6 7.1 20.6-4 14.8-2.8-1.5-14.1-50.9-20.6-61.5-35.1-57.6-110.6-75.2-122.7-149.2-3.9-23.7 12.4-116.7 25.1-134.2 6.2-8.6 17.5-2.2 17.3 7z"  fill="#005bbb" /><path d="M284.5-58c36.4 39 87.2 59.9 101.5 116 1.5 5.9 6 16.4 0.2 21.3-9.6 8.2-19.4-10.3-7.3-13.7 14.2-3.9 11.4 21.6-1.6 14.7-4.7-2.5-11.2-44.9-16.2-54.9-14.1-28.5-78-71.6-81.1-80.5-1-2.8 2.4-4.4 4.5-2.9z"  fill="#005bbb" /><path d="M306.1-369c11 41.3 36.8 77 36.2 121.2-0.6 51.3-35.7 98.3-13.9 149.5 17.5 41.1 97.4 106.8 84.9 155-3.3 12.6-22.6 2.8-14.3-7.2 9.7-11.8 22.5 11.4 7.4 13.3-13.7 1.7-16-52.2-20.5-62.7-20.2-47.5-69.8-76.6-80.3-129.1-10-49.9 22.6-93.9 19-143.2-2.4-34.1-28.6-64.3-31-94.3-0.6-7.8 9.5-8.8 12.5-2.5z"  fill="#c2e1ff" /><path d="M311.1-399.4c1.1 50.6 39.4 91.1 44.4 141 5 49-27 94.7-16.3 143.4 5.3 24 19.8 43.9 34.3 63.1 1.6 2.1 17 17.2 7.2 19.4-4.8 1.1-7.2-5.8-2.8-7.8 5.2-2.4 8.6 5.9 3.2 7.7-7.5 2.6-18.6-20.9-22-25.4-77.1-102.6-17.2-110.3-20.4-205.9-1.6-48.2-36.2-86.6-43.3-133.5-1.6-10.4 13.3-11.6 15.7-2z"  fill="#005bbb" /><path d="M337.4 21.8c7 6.9 41.3 49.4 25.5 58-9.9 5.4-15-12.6-3.8-13.3 9.6-0.6 9.7 14.6 0.1 14.2-9.9-0.5-9.6-20.2-11.8-26.4-3.5-9.8-14-20-16-29.6-0.8-3.7 3.6-5.1 6-2.9z"  fill="#fff" /><path d=""  fill="#fff500" /><path d="M377.6-133.9c0.2 60.7 52.9 109.8 55 180.7 0.3 8.5 4.7 33.4-7.9 36-14.4 2.9-14-21.5 0.3-18.1 14.3 3.4 3.7 25.4-7.9 16.2-10.3-8.1-1.5-47.4-2.6-60-4.7-56.1-45.9-98.4-52.9-153-1.4-10.6 13.8-11.5 16-1.8z"  fill="#c2e1ff" /><path d="M396.2-157.4c-9.3 69.8 41.5 128.6 42.8 198.1 0.2 9.1 5 39.4-8.7 42-12.5 2.3-15.1-17.5-2.4-18.5 10.8-0.8 13.8 15.1 3.4 18.3-20 6-9.8-66.6-11.1-77.6-6.6-56.6-46.4-105.2-42.5-163.5 0.8-12.3 17.8-10.4 18.5 1.2z"  fill="#005bbb" /><path d="M409.5-360.3c13.2 33.6 32.7 63.6 41.3 99.1 13.7 56.9 4.3 117.2 12.8 175.1 7.2 49 10.8 166.2-5.9 168.9-14.9 2.5-13.6-22.5 1-18.5 14.5 4 2.9 26.1-8.6 16.4-5.9-5 8.1-91.4 0-153.3-3.2-24.8-7.6-49.4-9.2-74.4-2.8-46.4 3.2-92.8-10.6-138-7.3-23.9-27.2-48-31.5-72-1.2-6.8 7.6-8.5 10.7-3.3z"  fill="#fff500" /><path d="M429.9-240.4c5 42.3-8 84.3-2.4 126.6 4.1 30.8 43.3 168.8 19.7 193.9-10.3 11-24.4-9.7-10.4-15.3 14-5.6 18.1 19 3.1 18.3-17.4-0.9-4.4-75-5.3-88.7-2.7-41.7-19.1-80.4-24.4-121.7-4.6-36.5 3.2-72.4 3.3-108.8 0-11.3 14.1-17.9 16.4-4.3z"  fill="#fff" /><path d="M447.2-237.6c5.4 42.4-2.8 85.2 2.6 127.7 4 32.1 28.2 168.1 7.6 189.8-10.4 11-24.4-9.8-10.5-15.3 14-5.6 18.1 19.1 3.1 18.3-15.6-0.8-1.7-79.8-3.5-109-2.2-37.2-12.4-73.3-15.4-110.4-2.7-32.1 1.1-64.2 0.1-96.4-0.4-11.2 13.4-18 16-4.7z"  fill="#c2e1ff" /><path d="M462.6-358c46.4 158 79.3 210.9 61.9 383.2-1 10.2 4.1 51.6-7 55.7-10.2 3.8-15.3-12.6-4.8-15.3 10.5-2.7 13.9 14.2 3.1 15.7-15.7 2.2-10.9-35-10.6-42.6 1.3-51.7 13.7-101.8 7.5-153.8-6.5-55.4-21.4-112-37.3-165.3-3.4-11.2-27.3-72.3-24.7-78.2 2.5-5.8 9.6-4.4 11.9 0.6z"  fill="#fff" /><path d="M464.4-399.2c0.8 65.7 70.4 216 79.9 304.7 1.3 12.2 9.6 65.4-7.5 68.4-14.7 2.6-13.7-22.2 0.7-18.4 14.5 3.8 3.1 25.9-8.4 16.3-1-0.8-2.2-82.1-4.4-95.7-14-85.6-50.4-165.8-71.7-249.5-11.1-43.7 8.7-37.6 11.4-25.8z"  fill="#c2e1ff" /><path d="M500.2-42.7c-0.1 16.1-2.3 127-20.2 125-12.3-1.4-9.1-20.6 3-17.9 12.1 2.7 6.8 21.5-4.9 17.5-3.8-1.3-6.4-5.1-6.1-9.1 1.6-31.4 2.6-89.4 10.7-118.2 3-10.5 16.7-6.9 17.5 2.7z"  fill="#c2e1ff" /><path d="M518-32.2c-0.9 12.8-12.7 111.9-13.4 112.4-11.1 7.8-19.8-13-6.4-15.4 13.4-2.4 12.5 20.1-0.7 16.7-16-4.2-4.8-107 3.4-119.6 5.6-8.7 16.9-3 17.1 5.9z"  fill="#005bbb" /><path d="M529.4-398.2c-4.3 52.8 14.6 110.6 42.2 155.1 3.4 5.5 35.4 43.6 27.9 46-5.4 1.7-6.3-7.7-0.6-7 4.8 0.6 3.4 8.2-1.3 7-5.2-1.3-9.4-10.3-12.6-14.2-31.2-38.6-86.5-138.2-73.1-189.3 2.7-10.5 16.5-7.2 17.5 2.4z"  fill="#fff500" /><path d="M548.2-221.4c65.4 137.7 54 91 53.7 240.9 0 8.4 9.8 42.6-1.9 44.9-10.7 2-10.1-16 0.4-13.3 10.5 2.6 2.5 18.8-6 11.9-18.8-15.2-4.2-126.9-7-154.6-6.1-61.1-41-90.2-49.1-126.2-1.4-6.3 6.7-8.3 9.9-3.6z"  fill="#c2e1ff" /><path d="M567.6 60.3c0.6 3.6 6.8 24.8-6 19.3-18.3-7.8 18.5-19.3 7.9-2.5-7.8 12.3-15.6-10.5-15.6-15.1-0.1-8.5 11-8.8 13.7-1.7z"  fill="#fff500" /><path d="M581.4-222.4c3.1 4.4 25.9 26.9 19.2 31.7-4.1 2.9-8.4-3.9-3.9-6.4 4.4-2.4 7.9 4.8 3.2 6.7-6.2 2.6-24.7-24.1-25.5-29-0.7-4.3 4.5-5.7 7-3z"  fill="#c2e1ff" /><path d=""  fill="#fff" /><path d=""  fill="#c2e1ff" /><path d=""  fill="#c2e1ff" /><path d=""  fill="#c2e1ff" /><path d=""  fill="#fff500" /><path d=""  fill="#c2e1ff" /></svg>