<svg width="1200" height="675" viewBox="-500 -500 1200 675" xmlns="http://www.w3.org/2000/svg"><path d="M-500-500h1200v675h-1200z" fill="#000"/><path d=""  fill="#fff500" /><path d="M-396.6-341.7c34 61.6 30.8 147.2 10.3 212.5-1.9 6-4.1 21.3-9.6 24.8-6.6 4.4-11.3-8-3.4-9.1 6.7-1 7.7 9.7 0.9 10-11.6 0.4 1.3-24.5 2.7-28.7 9.4-28.6 15.1-57.9 15.7-88.1 0.8-35.1-2.1-72-14.6-105.1-0.3-0.8-7.5-24.4-2-16.3z"  fill="#005bbb" /><path d=""  fill="#c2e1ff" /><path d=""  fill="#005bbb" /><path d=""  fill="#005bbb" /><path d=""  fill="#fff500" /><path d="M-390.3-399.2c55.2 52.7 85.7 150.6 72.4 225.6-5.5 30.8-19.2 58.6-34.4 85.6-3.7 6.6-16.9 40-24.9 38.7-7.1-1.2-4.7-12.3 2.2-10.4 5.9 1.7 4.4 10.7-1.7 10.4-13.5-0.8 10.2-36.3 13-41.3 23.9-42.5 43.2-84.2 40.7-134.1-2.5-50.3-20.3-106.1-48.7-147.7-0.8-1.1-26.3-32.9-18.6-26.8z"  fill="#fff" /><path d=""  fill="#fff" /><path d="M-397-370.6c64.1 77.5 54.5 192.2 17 278.1-2.8 6.4-11.4 38.2-19 37.8-7.8-0.4-4.3-13 2.6-9.3 8.1 4.3-4.1 14.6-7 5.9-3.8-11.4 14.5-40.3 19.2-51 14.3-32.9 25.3-66 26.3-102.1 1.4-45.4-6.5-95.6-28-135.9-1.5-2.9-16-28.5-11.1-23.5z"  fill="#005bbb" /><path d=""  fill="#fff" /><path d=""  fill="#c2e1ff" /><path d="M-395.1-267.7c0.6 7.6 5.1 63.4-4.1 62.3-5.5-0.6-4-9.3 1.4-8.1 5.4 1.2 3 9.6-2.2 7.9-7-2.4 0.1-87.5 4.9-62.1z"  fill="#005bbb" /><path d="M-346.4-399.4c64.5 88.4 100.5 202.3 38.2 300.7-5.2 8.2-24 44.8-33.9 44.8-10.9 0-3.9-17.6 4-10.1 7.9 7.5-9.3 15.4-9.9 4.5-0.7-13.8 27.9-41.8 35.4-53.8 19.1-31 31.4-65.9 31.8-102.6 0.7-59.1-31.3-122-61.9-171.1-0.4-0.6-8.9-18.2-3.7-12.4z"  fill="#fff" /><path d="M-333.6-399.3c62.4 96.3 103.6 198.8 35.2 303.9-4.2 6.4-18.9 34.7-27.8 31.3-6.5-2.5-3.8-12.6 3.1-11.5 6.9 1.1 6.4 11.5-0.6 11.9-16.9 1.1 17.6-41.2 21-46.4 21.8-34.4 35-74.5 33.8-115.4-1.8-58-36-118.3-65.3-167-0.8-1.3-3.7-12.1 0.6-6.8z"  fill="#c2e1ff" /><path d="M-386.9-56.3c-11.6 29.5-14.8 66.3-6.4 96.9 1.2 4.5 14.2 35 9.5 35.2-3.9 0.2-2.8-6.2 0.8-4.7 3.1 1.3 0.8 6-2.1 4.4-23.2-12.6-21.4-120.4-10.7-136.3 3.4-5.1 10.2-0.8 8.9 4.5z"  fill="#fff" /><path d=""  fill="#c2e1ff" /><path d="M-374.3-357c39 61.8 51.2 151 26.7 219.9-12.6 35.5-43.4 73.1-46.2 111.3-1.8 24.2-3.7 47.1 3 70.3 1.2 4 13.4 31.3 8.2 31.5-2.9 0.1-3.5-4.1-0.8-4.9 3.3-0.8 4.3 4.4 1 4.8-4.9 0.7-9.4-17.3-10.7-20.7-36.2-96.7 38.5-157.2 48.8-246.9 5.8-50.4-5.5-107.1-27.9-152.5-0.2-0.5-7.5-19.8-2.1-12.8z"  fill="#fff500" /><path d="M-363.7-141.5c-25.3 82.4-32.7 50.8-32 170 0 7.9-0.9 17.7 1.8 25.4 1.7 4.7 9 15.1 8.1 19.8-0.9 4.3-7.3 0.1-3.7-2.4 3.6-2.5 5.4 5 1 4.3-11.9-1.8-12.5-41.1-12.5-47.1-0.2-33-1.3-66-1.4-99 0-4 28.1-73.6 30.6-76 3.9-3.8 9 0.5 8.1 5z"  fill="#fff500" /><path d="M-356.7-208.8c-1 57.5-35.9 114.8-36.9 136-1.1 23.8-1.8 47.6-2.3 71.4-0.3 15.5-2.4 38.6 0.9 55.1 0.9 4.5 10 16.7 7.8 20.6-2.2 3.8-6.9-2.2-2.7-3.4 3.6-1.1 4 5.1 0.3 4.6-11.9-1.7-11.4-40.4-11.4-45.7-1.3-159.8-1.9-81.1 27.6-184.6 4.4-15.4 1.9-43.3 9.3-56.2 2.2-3.8 7.1-1.7 7.4 2.2z"  fill="#fff" /><path d="M-349.6-268.5c8.8 47.5 7.4 95.1-9.9 140.5-9.2 24.1-32.2 54.7-33.9 80.5-1.6 25.3-6.5 61.1-1.6 88 1.6 8.6 13.7 25.5 12 33.4-1 4.4-7.5 0-3.7-2.6 3.7-2.5 5.4 5.1 0.9 4.4-8.1-1.4-15.4-35.9-15.5-42.6-3.9-154.8 17-90.4 43.6-199.4 5.5-22.6 6.9-46 5.3-69.1-0.4-6.2-7.1-30.8-2.8-35 2-2 4.8-0.6 5.6 1.9z"  fill="#005bbb" /><path d="M-340.3-94.1c-21 35.9-44.5 71.2-42.9 114.5 0.4 10.2 12.7 49.7 11.5 53.8-1.4 4.7-8.1-0.6-3.8-3 4.3-2.5 5.5 6 0.7 4.8-4-1-5.7-11.7-6.8-14.9-15.3-45.3-9.4-88.2 13.3-129.8 5.4-10 11.1-24.1 19.1-32.3 4.8-4.9 11.3 1.2 8.9 6.9z"  fill="#c2e1ff" /><path d="M-333.6-219.1c4.1 91-56.4 136.2-60.6 200.9-1.3 20-2.1 38.7 2.8 58.1 2 7.7 13.2 27.1 11.6 34.1-1.1 4.5-7.6-0.1-3.8-2.7 3.9-2.5 5.4 5.4 0.9 4.6-5.5-1-10.9-23.6-12.6-28.6-25.6-78 20.9-129.9 43.9-199 7.6-22.8 5.3-45.5 10.3-68.1 1-4.5 6.9-3.3 7.5 0.7z"  fill="#fff" /><path d="M-325.9-217.1c3.7 85.9-54.7 130.7-65.3 206.1-3.1 21.9 13.8 84.9 13.7 85.3-1.2 4.6-7.8-0.2-3.8-2.8 4-2.5 5.5 5.5 0.9 4.6-5.4-1.1-10-22.1-11.6-26.7-25.1-77.8 23.2-130.1 47.5-199.4 8-22.7 6-45.3 11.1-67.8 1-4.5 6.9-3.3 7.5 0.7z"  fill="#c2e1ff" /><path d=""  fill="#005bbb" /><path d="M-309.8-175.1c-10.8 63.1-63.4 108.9-72.9 171.4-3 20.1 11.3 75.2 10.5 77.9-1.4 4.7-8.1-0.5-3.9-3 4.2-2.5 5.5 6 0.8 4.8-5.6-1.3-9.7-23.6-11-28.6-19.2-71.8 24.6-120.3 53-181.2 5.7-12.2 7.7-35.3 15.6-45 3.1-3.9 8.3-0.6 7.9 3.7z"  fill="#005bbb" /><path d="M-301.6-107c-23 39.2-59.2 73.4-65.6 120.4-1.9 14.1-1.1 28.5 1.7 42.4 0.8 3.9 6.2 16 3.6 19.3-2.9 3.5-7.6-2.4-3.5-4.4 4.8-2.4 5.5 6.9 0.4 5.3-5.3-1.6-7.2-20.8-8.1-25.6-12.8-64.8 27.2-113.4 61.8-163.4 4.3-6.2 12.7-0.6 9.7 6z"  fill="#fff500" /><path d="M-293.8 9.8c-9 14.7-15.8 30.7-18.5 47.8-0.6 3.5 1 22.9-6.8 19.7-4.2-1.7-2.3-8.2 2.2-7.4 5.2 0.9 3.3 9-1.8 7.5-14.2-4.1 8.9-66.9 15.9-74.3 4.7-5 11.3 1 9 6.7z"  fill="#fff" /><path d="M-286.5-175c-12.4 66.1-70.1 109.6-84.3 173.7-4.2 18.7 5.8 75.1 5.6 75.5-1.7 4.9-8.5-1-4-3.4 4.6-2.4 5.5 6.6 0.6 5.2-5.3-1.5-8-21.7-9.1-26.6-16.1-72.5 32.8-118.6 63.9-177.7 8.4-15.9 11-34.1 18.7-49.7 2.5-5 9-1.9 8.6 3z"  fill="#fff" /><path d=""  fill="#c2e1ff" /><path d=""  fill="#fff" /><path d="M-245.8-399.5c16.7 43.9 44.2 83.7 53.5 130.2 11.5 57.1-9.4 114.3-4.2 171.7 0.9 9.8 14.1 53.1 13 57.1-1.3 4.6-8-0.4-3.8-2.9 3.5-2.1 5.7 4.3 1.6 4.7-6.3 0.7-12.3-29.6-13.5-34.5-14.6-61.2 7.4-120.5 2.1-181.7-4.4-50.2-32.6-92.2-51.5-137.6-1.2-2.9-0.9-13.8 2.8-7z"  fill="#005bbb" /><path d="M-255.2-81.5c-19.2 39.6-56.5 70.1-69.3 112.6-2.4 8-1 41.1-5.7 44.9-5.2 4.2-8.6-6.9-1.9-6.4 5.7 0.5 2.9 9.5-2.1 6.7-14.6-8.2 4.8-62.9 10-73.4 15.7-31.9 41.2-58.7 59.4-89.4 3.7-6.2 12.1-1.5 9.6 5z"  fill="#fff500" /><path d=""  fill="#005bbb" /><path d="M-242.3-384c20.2 46.6 48.3 89.7 51.2 141.8 3.5 63.4-17.7 123.8-3.1 187.4 7.2 31.2 42.6 92.8 44.7 106.7 0.6 4.2-6.6 2.5-4.2-1 2.4-3.5 6.5 2.7 2.4 3.6-4.6 0.9-14.9-25.1-17.1-29.2-72.6-140.5-21.8-156.3-30.7-277.1-3.4-45.7-26.7-84.5-45.4-125.2-1.2-2.6-1.6-13.4 2.2-7z"  fill="#005bbb" /><path d="M-234.7-357c16.6 33.2 34 66.3 38.6 103.7 8 66.3-17.1 139.5-6 231.9 1.3 10.4 15.4 97.6 9.2 98-9 0.6 1.1-13 3.2-4.2 1.5 6.2-6.5 3.8-7.3-2.6-7.9-63.6-20.7-127.7-16.9-192.1 2-33.7 9-66.9 10.9-100.5 2.7-46.5-12.9-86.4-33.4-127.3-1.1-2.1-2.3-13.1 1.7-6.9z"  fill="#005bbb" /><path d="M-226.9-329c12.5 25.2 23 51.5 26 79.6 7.1 65.7-27.2 244.6-42 314.8-0.7 3.2-1.4 16.3-8.5 12-4.4-2.7-1.1-9.7 3.8-8 4.9 1.7 3.1 9.2-2 8.6-9.9-1.2 8.4-58.9 10.4-67.1 15.4-63 17.3-129.2 26.7-193.3 5.4-36.7 7.7-72.7-3.9-108.5-4.1-12.5-17.7-49.2-10.5-38.1z"  fill="#c2e1ff" /><path d="M-217.5-233.1c3.2 62.1-17.3 136.2-51 188.3-15 23.2-34.4 44-45.2 69.7-3 7.2-10.2 53-13.7 51.8-4.8-1.7-1.7-9 2.8-6.8 4.5 2.2 0.7 9.2-3.5 6.5-6.4-4-1.4-28.6-0.4-34.8 8.8-52.2 54-88.5 73.9-136.2 12.8-30.6 20.8-63.8 26-96.5 1.9-11.7-1.2-33.5 3.9-43.6 1.9-3.7 6.6-2 7.2 1.6z"  fill="#fff500" /><path d="M-211.3-323c44.8 98.2-7.9 182.1 24.5 277.5 10.7 31.5 63 100 65.6 118.6 0.6 4.3-6.8 2.5-4.2-1 2.5-3.6 6.6 2.8 2.3 3.7-4 0.8-19.8-32-22.7-36.6-94.4-147-48.5-139.6-51.2-280.9-0.4-18.9-3.7-37.4-9.6-55.4-1.5-4.7-11.6-22.1-9.1-26.2 1.1-1.8 3.4-1.3 4.4 0.3z"  fill="#005bbb" /><path d="M-201.8-219.8c-2.8 75.1-22.2 184.2-46.6 255-2.2 6.5-9.6 44.7-16.8 42.9-6.9-1.7-1.7-12.3 3.9-7.8 5.5 4.5-3.7 11.9-6.9 5.4-4.5-9 28.2-96.5 32-114.1 10.4-48.2 14.7-144.8 26.5-182.8 1.5-4.7 7.6-2.9 7.9 1.4z"  fill="#fff" /><path d="M-194.6 46.6c0.6 4.7 6.8 29.7-0.3 30.1-4.8 0.3-4.8-7.2 0-7 4.8 0.2 4 7.7-0.7 6.9-9.6-1.6-4.3-52 1-30z"  fill="#fff500" /><path d="M-187.7-31.9c3.7 11.2 48.4 107.2 47.3 107.6-3.7 1.4-4.7-5-0.7-4.8 3.3 0.2 2.7 5.5-0.6 4.9-4.4-0.8-9.3-17.3-11.3-21.3-14-27.8-30.1-54.9-39.9-84.6-1.2-3.5 3.7-5 5.2-1.8z"  fill="#fff" /><path d="M-164.8-399.5c17.2 43.7 45.5 82 62.8 125.8 15 37.9 19.8 78.5 31.4 117.4 9.7 32.4 24 63.1 34.1 95.3 1.1 3.5 7.1 15 2.8 17.6-3.5 2.1-6.5-3.6-2.8-5.4 3.7-1.7 6.1 4.3 2.2 5.6-10.9 3.6-58.6-181.3-63.6-199.9-14.8-55.1-48.3-100.5-70.7-152.3-1.5-3.5 1.3-8.7 3.8-4.1z"  fill="#fff" /><path d="M-172.6-371c16.5 36.9 36 72.5 43.5 112.6 9.5 50.4 2.5 100.3 30.1 146.1 14 23.2 31.3 44.1 44.2 68.1 5.7 10.6 42.4 96 28 102-5.1 2.1-6.7-6.9-1.2-6.7 6.4 0.2 1.9 10.5-2.6 5.9-5.4-5.5-4.8-28.2-6.6-36.1-4.9-22.9-12.4-45.2-23.2-66-19.2-37.1-50.3-67.6-62.5-108.2-22.4-74-0.1-100.6-43.2-192.3-3.3-7.1-6.7-14.2-10-21.3-1.5-3.3 0.8-8.5 3.5-4.1z"  fill="#005bbb" /><path d="M-165.5-25.1c6.8 10.7 79.3 93.1 70.5 100.7-3.5 3-6-4.5-1.4-4.3 3.9 0.2 2.2 6.4-1.3 4.6-6.2-3.3-13.2-24.2-17.6-30.7-14.9-21.8-44.6-43.9-53.6-68.5-0.8-2.2 2-3.3 3.4-1.8z"  fill="#c2e1ff" /><path d=""  fill="#fff500" /><path d="M-149.6-360.1c17 32.8 35.9 64.6 46.9 100.1 14.1 45.3 17.7 92.3 36.1 136.5 23.7 56.8 43.2 110.1 48.6 172 0.4 5.1 5.1 26.7-1 28.7-6.7 2.1-5.8-10 0.5-7 5.4 2.6-0.8 10.4-4.6 5.8-8.2-10-2.3-79.7-26.1-144.7-11.3-30.7-26.7-59.7-36.4-91-20.8-66.7-22.5-113.4-57.4-178.4-3.2-5.9-6.4-11.8-9.5-17.8-1.5-2.9 0.2-8.2 2.9-4.2z"  fill="#c2e1ff" /><path d="M-141.7 67c0.9 1.9 5 7.4 1.3 8.8-3.7 1.4-4.7-5-0.8-4.7 3.9 0.2 2.1 6.5-1.3 4.6-6.7-3.6-2.2-13.7 0.8-8.7z"  fill="#005bbb" /><path d="M-134.9 20c10.7 13.2 34.2 35.8 36.4 53.3 0.5 3.8-5.8 3.2-4.7-0.5 1.4-4.3 7.4 0.7 3.5 2.9-4.2 2.3-12.6-18.9-14.6-22.1-0.7-1.2-28.7-41.6-20.6-33.6z"  fill="#fff" /><path d="M-124.8-187.3c6.4 84.1 77.7 131.6 95.5 218.3 1.3 6.4 10.8 43.4 3.7 46-5.4 2-6.7-7.5-0.9-7 6.7 0.6 1.5 11.1-3 6-3.2-3.6-11.8-70.1-15.9-82.5-16.7-50.4-57-86-76.1-134.6-5-12.7-12.4-32.6-10.4-46.4 0.6-4.3 6.2-3.6 7.1 0.2z"  fill="#fff500" /><path d="M-117.4-175.6c10.5 73.2 74.1 121.6 90.1 207.5 1.2 6.3 10 42.2 2.9 44.7-6.4 2.3-5.9-9.5 0.3-6.8 5.3 2.4-0.4 10.1-4.2 5.8-3.4-3.9-12-74.5-16.4-88-15-46-48.2-80.4-67.6-123.9-4.8-10.7-12.5-27-11.7-38.9 0.3-4.1 5.6-3.8 6.6-0.4z"  fill="#fff" /><path d=""  fill="#fff" /><path d="M-103.2-296c31.1 57.9 73.3 217.1 82.9 284.1 1.5 10.4 14 85.8 4.1 88.7-5.8 1.7-6.5-8.3-0.5-7.5 7 1 0.8 11.7-3.5 6.2-6.3-8-2.2-39.1-3.1-49.8-2.6-33.5-7.5-66.7-15.7-99.3-16.2-64.3-33.8-146.9-61.3-206.3-0.6-1.3-8.2-23.9-2.9-16.1z"  fill="#c2e1ff" /><path d=""  fill="#005bbb" /><path d="M-88.6-17c7.8 8.5 60.9 84.5 44.2 93.1-5.4 2.7-6.3-7.7-0.6-6 4.9 1.5 0.8 8.9-3 5.5-6.5-5.7-8.6-31.7-12.2-40.6-6-14.9-28.2-39.2-30.9-50.7-0.4-1.6 1.5-2.2 2.5-1.3z"  fill="#fff" /><path d="M-51.6-399.4c23.8 18.4 50.2 33.2 71.8 54.2 67 65 65.8 157.2 32.7 238.2-4.4 10.9-19.4 67.1-29.2 70-8.7 2.6-7.3-13.2 0.9-9 9.5 4.9-7 15.2-7.2 4.4-0.6-42.9 64-108.5 49.5-201.2-10.6-67.8-52.8-108.8-106.7-146.2-1.6-1.1-14.5-11.9-11.8-10.4z"  fill="#005bbb" /><path d="M-71.4-159.8c11.4 39.7 29.7 77 40.2 117 3.4 13 26.8 115.6 13.3 119.8-6.7 2.1-5.7-10.1 0.5-7 5.4 2.7-0.9 10.4-4.6 5.7-3.3-4-7.6-81-10.1-94.1-9.2-48.8-31.4-92.4-44.9-139.8-1.1-3.7 4.1-5 5.6-1.6z"  fill="#fff" /><path d="M-65.9-381.7c36.2 28.8 77.9 49.1 103.1 89.7 48.9 78.7 13.9 156.4-10.9 235.7-3 9.6-13.9 75.6-20.5 76.4-8 1-4.5-12.6 2-7.9 6.5 4.8-5.4 12.2-6.9 4.3-8.9-49 63.1-164 53.3-243.6-8.6-69.2-54.9-106.6-108.4-144-1.6-1.1-14.6-12.3-11.7-10.6z"  fill="#005bbb" /><path d=""  fill="#c2e1ff" /><path d="M-48.5-95.9c12.7 33.4 43.1 137.5 33.1 170.3-2.1 6.7-11.6-0.9-5.5-4.4 5.2-3 8.2 6.6 2.2 7-5.2 0.4-9.5-72.3-11-81.6-3.5-22.2-25.2-87.6-23.8-91.4 0.9-2.5 4-2 5 0.1z"  fill="#fff500" /><path d="M-40.2-133.7c6.8 28.9 40.7 191.5 27.4 209.2-3.7 4.9-10.3-2.8-4.9-5.6 5.4-2.9 8.2 6.8 2.1 7.2-5.5 0.3-7.9-81.3-9-91.5-2-19.1-23.8-110.9-21.6-119.4 0.9-3.3 5-2.7 6 0.1z"  fill="#fff500" /><path d="M33.4-399.4c68.6 84.5 80.4 192.9 33.5 290-3.1 6.5-13.5 37.6-22 36.1-6.1-1.1-5.5-10.3 0.7-10.6 7.3-0.3 7.1 11.2-0.1 10.7-12.9-0.9 7.9-33 10.2-37.9 19.8-40.3 35.5-81 33.7-126.7-2.1-53.1-20.3-106.6-51.3-149.8-0.5-0.6-9.8-16.9-4.7-11.8z"  fill="#fff" /><path d="M-27-310.8c85.8 75.8 57.7 157.3 39.5 254.6-7.5 39.7-10.9 79.8-13.1 120.2-0.2 3.5 1.4 14.5-5 13.7-5.5-0.6-4.1-9.2 1.3-8 4.6 1 3.8 8-0.9 8-17.1 0 29.8-234.4 30.8-257.6 1.6-35.7-7.2-70.9-28.1-100.2-7.6-10.6-35.2-38.3-24.5-30.7z"  fill="#005bbb" /><path d="M-16.4-74.3c2.8 29.3 14.9 125.7 6.7 149.2-2 5.9-10.8 0.5-6.5-4 5-5.2 10.2 6.3 3 6.6-7.6 0.4-4.4-41.7-4.5-48.1-0.8-30.4-10.1-75.3-5.8-103.9 0.7-4.3 6.3-3.6 7.1 0.2z"  fill="#fff500" /><path d="M-8.4-48.1c0.2 13 4 126-3.4 125.5-5.3-0.4-4.3-8.8 1-7.8 4.5 0.8 4 7.6-0.6 7.8-7.5 0.3-3.9-17.9-3.8-22 0.2-29.8-7.1-76.6-0.8-104.3 1-4.5 7-3.3 7.6 0.8z"  fill="#c2e1ff" /><path d=""  fill="#fff" /><path d="M45.5-399.7c77.4 115 65.9 204.2 8.3 320.1-3.7 7.4-17.7 48.9-25.4 48.2-8-0.7-4-13.5 3-9.4 8.2 4.7-4.7 14.9-7.4 5.8 0-0.1 64.7-139.4 68.1-179.7 4.9-58.9-13.3-122.1-43.3-172.5-0.4-0.7-8.4-18.8-3.3-12.5z"  fill="#fff" /><path d="M11.8-333.9c116.1 106.5 17.8 231.3-1.3 351.9-1.9 12.3 0.4 49.7-7.4 58.3-4.4 4.9-10.8-4-4.7-6.6 6.1-2.6 8.1 8.2 1.5 8-8.6-0.3-1-37.9-0.2-44.2 9.4-81.1 49.4-144.9 59.2-217.5 5.2-38.3-2-78.3-21.1-112-7.5-13.3-38.2-47.1-26-37.9z"  fill="#005bbb" /><path d="M23-139.4c-7.3 54.3-19.1 107.3-22.7 162.2-0.5 7.2 0.6 55.6-7 54.8-5.5-0.6-4.1-9.1 1.3-7.9 4.6 1 3.9 8-0.9 7.9-8.2 0-2.3-42.1-1.9-48.6 1.5-26.9 11.4-155.1 23.4-171.6 2.8-3.9 7.9-1 7.8 3.2z"  fill="#c2e1ff" /><path d="M31.2-23.4c-8.7 23.7-14.5 48.3-18.3 73.2-0.8 5-0.1 28.9-8 27.5-5.7-1-3.7-9.9 1.8-8.2 5.6 1.6 2.6 10.2-2.7 8-11.3-4.6 11.6-94.5 18.3-104.8 3.3-5.1 10.1-0.9 8.9 4.3z"  fill="#fff" /><path d="M35.4-346c108.3 127.3 4.5 232.4-20.7 360.1-2 9.9-2.7 58.7-10.4 62.9-5 2.7-8.9-5.4-3.6-7.6 6.2-2.5 8.1 8.4 1.4 8.1-8.8-0.4-0.7-35.7 0.1-41.5 11.5-85.9 56.8-145.4 70.4-221.1 8.2-45.6-1.1-94.5-23.6-134.8-4.8-8.5-20.5-32.9-13.6-26.1z"  fill="#c2e1ff" /><path d="M46.7-104.2c-18.3 48.2-33.6 95.7-39.4 147.2-0.7 5.9 0.4 33.1-6.4 34.3-5.6 1-6.7-7.8-1.1-8.2 6.6-0.5 5 10.3-1.1 8.1-3.1-1.2-13.3-64.6 38.5-185 2.7-6.2 11-2.6 9.5 3.6z"  fill="#c2e1ff" /><path d="M78.5-399.3c46.4 133.9 44.6 197.2-21.1 321.7-3.8 7.2-17.5 45.5-25.3 44.6-9.5-1.1-1.5-15.8 4.6-8.4 5.2 6.3-6.9 12.5-9 4.6-3.3-12.5 18.7-43.7 24.7-54.8 19.8-37.3 41.1-74 47.7-116.5 9.3-59.7-5.8-124.2-24.1-180.9-0.6-2-1.8-19.2 2.5-10.3z"  fill="#fff" /><path d="M62.3-4.3c-7.5 13.1-26.8 77-31.4 80.9-5.5 4.7-11.2-5.9-4.2-7.9 8.2-2.3 6.6 12.4-0.9 8.5-12.6-6.6 21-77.1 26.7-86.9 3.7-6.3 12.3-1.2 9.8 5.4z"  fill="#005bbb" /><path d="M91.1-399.3c29.8 124 37.8 195.9-25.7 310.5-3.7 6.7-16.5 40.4-24.7 39-8.4-1.5-3-14.5 4-9.7 8.2 5.7-6.3 15.2-8.3 5.5-2.4-11.7 18.5-38.7 24.2-49 18.3-33 36.3-66.3 43-103.9 11-61.9-4-128.5-18-188.7-1-4.4 3.4-9.3 5.5-3.7z"  fill="#c2e1ff" /><path d="M76.6-223.2c6.5 75.1-39.3 139.5-57.3 209.8-2.7 10.4-13.7 91.5-18.5 90.9-6.6-1-2.6-11.3 2.9-7.7 5.5 3.6-2.3 11.3-5.9 5.7-2.8-4.5 0.6-15.5 1.1-20.6 6.3-62.7 25.4-118 48.8-175.9 8.3-20.5 15.7-41.5 19.3-63.4 1.8-11.1-1.8-30.5 2.6-40.1 1.7-3.7 6.4-2.1 7 1.3z"  fill="#c2e1ff" /><path d="M85.2-167.7c-15.9 63.1-54.7 117.1-68.5 181.3-2.2 10-3.5 59.2-11.2 63.4-5.9 3.2-8.9-7.5-2.3-8 6.7-0.4 4.9 10.6-1.3 8.2-8.7-3.4 4.2-56.9 5.9-65.5 6.4-32.4 53.2-155.6 68.7-183 2.9-5.1 9.5-1.5 8.7 3.6z"  fill="#c2e1ff" /><path d="M93.2 47.9c-2.5 5.8-7.1 30.3-14 30.3-7.5 0-4.9-12.2 1.9-9 5.9 2.7 1.2 11.7-4.3 8.4-14.4-8.5 23.2-55.5 16.4-29.7z"  fill="#fff500" /><path d="M101-105.5c-31.3 43.3-60.7 86.6-74.7 139-2 7.6-4.3 40.6-10.9 43.6-6.3 3-8.9-8.3-1.9-8.3 7-0.1 4.6 11.2-1.7 8.3-8.8-4 6.6-51.3 8.9-59.2 10.9-37.6 41.4-105.9 71.6-131.4 5.6-4.7 11.8 2.4 8.7 8z"  fill="#fff500" /><path d="M108.8 13c-9.4 14.3-26.6 63.3-31.2 64.9-7.1 2.4-8.5-10-1.1-9.2 7.5 0.8 3.5 12.7-2.9 8.8-9.6-5.7 18.7-67.3 27.4-72.4 5.5-3.2 10.1 3 7.8 7.9z"  fill="#fff" /><path d="M116.4 41c-3 6.7-8 34.5-14.2 36.9-6.8 2.6-8.7-9.3-1.4-8.8 7.3 0.5 3.9 12.1-2.5 8.6-6.9-3.8 5.3-44.2 13.5-43.9 3.9 0.1 5.6 3.8 4.6 7.2z"  fill="#fff500" /><path d="M124.2 13.1c-12.3 18.5-29.2 64.5-30.4 64.9-6.9 2.6-8.6-9.6-1.2-9 7.4 0.6 3.8 12.3-2.7 8.7-10-5.7 17.7-67.6 26.6-72.7 5.5-3.2 10.1 3.1 7.7 8.1z"  fill="#fff500" /><path d="M131-354c-0.4 60.8 7.3 122.5-14 181-22 60.5-66.1 109.7-87 170.9-3.2 9.5-17.1 80.5-22 79.6-5.8-1.1-3.6-10.1 2.1-8.4 6.5 2 1 11.9-4.1 7.4-5.1-4.6 1.7-25.8 2.7-31.9 15-87.5 67.9-142.5 98.8-221.2 30.5-77.4 5.2-135.5 15.8-178.3 1.1-4.6 7.1-3.2 7.7 0.9z"  fill="#fff500" /><path d=""  fill="#005bbb" /><path d="M146.6-291.8c-6 147.6-64.1 163.2-110.9 281.4-5.2 13.2-18.5 83-22.4 86.8-5.7 5.7-11.2-7.2-3.1-7.4 6.9-0.2 4.7 11-1.6 8.3-16.1-7 22.3-104 28.3-116.6 20.2-42.9 50.3-80 71.7-122.2 13.6-26.8 22.4-55.3 26.3-85.1 1.3-9.8-1.8-41.5 4.8-48.2 2.7-2.8 6.6-0.4 6.9 3z"  fill="#005bbb" /><path d="M154.8-228.9c-19.1 84.9-85.2 143.4-117.2 222.1-5.2 12.7-18.6 79.6-22.5 83.4-5 4.8-11-4.9-4.4-7.2 7.6-2.7 7.1 11.4-0.4 8.1-17.5-7.8 26.5-109.3 33.3-122.4 17.3-33.1 40.2-62.7 60.4-94 11.1-17.2 42.7-94 42.8-94.2 3.4-3.9 8.5-0.2 8 4.2z"  fill="#005bbb" /><path d="M162.3-269.4c-14.3 116.1-79.6 159-121.9 256.2-6 13.8-21.1 85.5-25.1 89.4-5 4.8-11-4.9-4.5-7.2 7.7-2.7 7.1 11.4-0.3 8.1-17.6-7.8 26.6-109.3 33.4-122.3 20.5-39 48.8-73 71.1-110.9 35-59.5 23.7-76.4 39.1-115.5 1.9-4.9 8.3-2.5 8.2 2.2z"  fill="#005bbb" /><path d="M170.6-7.1c-15 17.1-26.9 36.9-34.1 58.6-1.5 4.5-4 30.8-12.3 25.9-4.4-2.6-1.2-9.5 3.7-8 5.6 1.9 2.2 10.6-3.2 8.2-18.1-8.4 28.4-83.4 36.3-92.5 5.4-6.2 13.8 1.3 9.6 7.8z"  fill="#c2e1ff" /><path d="M177.7 69.4c-0.3 2.9-2.1 12.6-7.5 7.2-3.4-3.4 1.1-8.9 5.2-6.3 4 2.6 0.8 9-3.7 7.3-11.1-4.1 5.7-20.5 6-8.2z"  fill="#005bbb" /><path d=""  fill="#fff" /><path d="M193.6-252.7c-23.6 93.4-100.2 151.8-143 234.4-12.2 23.7-21 48.9-26.5 74.9-0.9 4-1.6 25.8-10.1 20.6-6-3.6 2.1-12.1 6-6.2 3.3 5-4.8 9.8-7.6 4.5-3.1-5.9 2.8-21.1 4.2-27.4 16.8-78.4 65.7-133.6 112.1-195.9 18.5-24.8 35.1-51.3 46.6-80.2 3.5-8.8 5-20.1 9.6-28.3 2.8-5.1 9.5-1.5 8.7 3.6z"  fill="#c2e1ff" /><path d="M201.3-336c-13.1 56-17.6 110.3-46.4 161.6-47.8 85.3-115.2 138.8-133.9 240.7-0.5 2.7-2.8 17.3-9 9.9-3.3-3.9 2-9.5 6-6.4 4.1 3.1 0.1 9.7-4.5 7.5-16.9-7.8 26.8-103.6 33.6-116 27.6-50.6 69-91.7 98-141.3 16.3-27.8 27.9-57.8 34.7-89.4 3-13.7 3.2-63.3 14.3-71.3 3.6-2.7 7.6 0.8 7.2 4.7z"  fill="#fff500" /><path d="M208.6-68.3c-37.6 26.7-73.4 55.8-95.8 97-3.7 6.9-18.8 53.1-25.3 48.4-5.1-3.7 1.2-11.5 5.8-7.3 4 3.7-0.7 10.2-5.4 7.5-9.9-5.6 13-49.3 16.8-56.7 17.1-32.7 62.1-87.2 97.2-101.1 8-3.2 12.3 7.1 6.7 12.2z"  fill="#005bbb" /><path d="M217.1-193.7c-44.1 67.7-116.1 111.8-156.8 182.6-12.1 21.1-21.3 43.8-27.5 67.3-1.1 4.2-2.6 26.5-11.1 20.9-4.4-2.9-0.8-9.9 4-8.1 4.9 1.9 2.9 9.5-2.2 8.8-9.3-1.4 1.2-28 2.6-33.2 27.5-100.8 110.1-154.4 171.7-232.1 3.3-4.1 7.5-13.9 13-15.2 5.6-1.4 8.5 4.6 6.3 9z"  fill="#fff500" /><path d="M224.4-322.2c-9.1 49.2-16.8 94.7-43.7 137.9-36.3 58.3-90.4 103.3-124.2 163.4-11.4 20.3-20.3 41.8-26.4 64.2-2.1 7.6-2.9 28.5-8.4 33.6-6.1 5.6-11.2-7.9-2.9-7.8 7.1 0.1 4.4 11.5-2 8.5-7.1-3.4 15.9-82.3 40.3-121.7 31.6-50.9 76.7-91.4 110.2-140.8 19.4-28.6 33.3-59.6 40.4-93.6 1.8-8.4 2.7-45 10.4-48.6 3.5-1.6 6.4 1.4 6.3 4.9z"  fill="#fff" /><path d="M231.3-396c-31.7 55.5-27.7 121.6-51.1 180-26.1 65.2-77.5 113-114.7 171.3-4.8 7.5-26.6 56.8-33.3 53.7-7.4-3.4 0.7-14.1 6-7.9 6.2 7.2-9.4 12.6-9 3.1 2.2-45 95.8-143.2 121.9-186.5 37.1-61.5 34.8-129.7 59.6-194.9 10.4-27.3 26.7-34.7 20.6-18.8z"  fill="#fff500" /><path d="M239.7-91.5c-44.4 35.3-93.3 62.8-123.3 112.9-5.4 9.1-17.9 53.7-25.2 56.4-8.2 3-7.7-12.2 0.2-8.7 6.8 3-0.4 13-5.3 7.4-4.8-5.4 4.3-23.4 6.3-29.2 24.4-67.6 81.5-110.7 138.9-149.8 7.5-5.1 14.6 4.8 8.4 11z"  fill="#c2e1ff" /><path d="M247.5-283.4c-12.7 112.6-114.2 165-173.8 250.9-17.7 25.5-31.2 53.6-39.5 83.4-1.3 4.5-3.9 31.7-12.6 26.1-5.1-3.4 0.6-11.2 5.4-7.3 4.8 3.9-1.8 11.1-6.1 6.6-5.6-5.7 4.9-31.1 6.8-37.8 27.6-93.4 103.2-147 163.3-218 14.9-17.6 28-36.7 36.4-58.2 6.1-15.4 6-32.9 11.8-47.9 1.9-4.9 8.3-2.5 8.3 2.2z"  fill="#fff" /><path d="M255.8-21.3c-15.8 20.5-30.8 42-38.3 67.1-1.6 5.3-3.3 35.4-11.2 31.5-5-2.4-0.7-10.1 4-7.1 4.7 3-0.4 10.1-4.7 6.7-11.4-9 26.9-94.7 41.6-106.6 5.7-4.6 11.9 2.7 8.6 8.4z"  fill="#fff500" /><path d="M263.6 0.6c-27.8 49.2-25.6 75.5-27 76.3-5.8 3.2-8.9-7.3-2.3-7.8 6.6-0.5 5 10.3-1.2 8-13.7-5.2 14.1-74.8 21.5-82.8 4.6-5 11.2 0.8 9 6.3z"  fill="#005bbb" /><path d="M271.3-21.9c-14.2 21.8-28.3 44-35.2 69.4-1.3 4.8-2.7 33.7-10.8 29.7-5-2.5-0.6-10.2 4.1-7.2 4.7 3-0.5 10.2-4.8 6.7-9.4-7.6 24.9-93.6 37.9-105.9 5.2-4.8 11.6 1.7 8.8 7.3z"  fill="#c2e1ff" /><path d="M279-200.9c-31.2 81.1-128.2 113.3-181.1 178.1-18.1 22.2-32.7 47.3-42.6 74.1-1.7 4.7-6.2 32.1-14.8 25.8-5.2-3.8 1.3-11.6 6-7.2 5.5 5.1-4.7 12.2-7.5 5.3-4.4-10.6 11-39.1 15.4-49 33.8-76.2 99.3-116.9 161.8-166.9 25.7-20.5 49.8-62.4 54.7-66.3 4.5-3.6 9.4 1.3 8.1 6.1z"  fill="#005bbb" /><path d="M272.1-396c-28 56.7-13.6 122.7-40.6 179.6-33.1 69.7-104.1 113.4-149.8 174-2.4 3.2-13.7 19.8-17.1 7.1-1.8-6.6 7.7-10.3 10.9-4.2 2.7 5.2-3.3 10.7-8.3 7.7-10-6.1 13.6-29.4 17.8-34.6 39.5-48.4 92.5-86.1 127.1-138.5 32.9-49.7 25.6-105.3 38.7-160.6 2.2-9.3 5.3-30.7 13.2-36.9 4.6-3.6 9.6 1.6 8.1 6.4z"  fill="#c2e1ff" /><path d="M284.4-396.5c-25.8 59.3-2.7 126-28.9 185.1-31.3 70.6-109.7 108.8-158.7 165.7-3.3 3.9-13.2 20.5-19.2 10.5-3.6-6.1 4.8-12.3 9.7-7.2 4.8 5.1-2.1 13.1-7.9 9.1-9.9-6.8 15-28.8 19.6-33.8 42.5-46.6 102-79.7 137.3-132.6 34.2-51.2 19.7-108.1 29-165 8.8-54.4 19.6-33.4 19.1-31.8z"  fill="#c2e1ff" /><path d="M302.2-24.2c-8.2 21.5-16.8 42.9-22 65.3-1.9 8-0.9 29.2-6.1 35-4.3 4.9-10.7-3.9-4.7-6.5 7-3.1 7.4 10.2 0.2 7.6-14.3-5.1 16.4-95.7 23.6-106.1 3.5-5.1 10.3-0.6 9 4.7z"  fill="#005bbb" /><path d="M308.2-294.7c16.5 72.1 10.5 146-43 201.9-38.7 40.4-90.4 66-118.7 116.2-5 8.9-14.2 51.1-20.8 54.1-6.4 2.9-8.8-8.5-1.8-8.5 7 0 4.4 11.4-1.9 8.4-7.8-3.7 3.3-31 5.3-36.8 27.8-80.9 112.7-106.9 155.3-175.4 18.5-29.7 27.9-65.4 27.5-100.3-0.2-19.7-8.5-39.9-8.1-59 0.1-3.8 5.1-3.8 6.2-0.6z"  fill="#fff" /><path d="M316.9 40.1c-0.4 6.5 3.3 32.9-1.5 36.6-4.7 3.5-8.7-5.3-3-6.6 5.7-1.2 5.7 8.5 0 7.2-5.9-1.3-5.6-34.7-3-39.3 2.2-3.8 7.2-1.7 7.5 2.1z"  fill="#c2e1ff" /><path d=""  fill="#005bbb" /><path d="M325.5-397.8c-7.9 61 39.9 106.2 62.7 158.1 23.4 53.2 32.7 112.7 52.7 167.4 2.7 7.5 29.4 69.7 27 70.7-3.5 1.4-4.6-4.7-0.9-4.6 4.4 0.2 1.3 7.2-1.8 4.1-17.2-17.6-33.7-79.3-41.9-104.1-15.6-46.5-23.5-96.7-44-141.3-17.4-37.9-46.8-70.2-58-110.9-3.1-11.3-7.8-29.5-3.9-41.1 1.6-4.9 7.9-2.9 8.1 1.7z"  fill="#005bbb" /><path d="M339.8 23.7c0.4 6.6 8.5 52.1 3.8 52.8-4.3 0.7-4.9-6.1-0.6-6.3 4.3-0.2 4.2 6.6 0 6.4-6.9-0.4-11.5-46.7-10.5-53.2 0.7-4.4 6.5-3.5 7.3 0.3z"  fill="#005bbb" /><path d=""  fill="#fff" /><path d="M353.3-309.1c76.7 121.6 59.1 162.7 110 283.8 4.2 10.1 49.5 100.3 48.8 100.7-3.1 1.5-4.5-4.1-1-4.2 3-0.1 2.8 4.6-0.2 4.4-3.9-0.3-7.5-11.4-9.2-14.5-48.1-85.9-74.2-173.8-100.9-268-10-35.4-27.8-65-47.8-95.4-1-1.5-3.9-11.8 0.3-6.8z"  fill="#fff" /><path d="M362.8-101.5c6.1 47.4 16 94.3 38 137 4.2 8.1 22.6 29.8 22 38.2-0.3 3.6-5.9 0.9-3.3-1.6 2.3-2.1 4.9 2.4 1.9 3.3-4.2 1.3-15.8-22.2-17.9-25.9-25.7-43.7-38.9-91.3-46.3-141.2-0.5-3.6 2.8-20.4 5.6-9.8z"  fill="#005bbb" /><path d="M370.3-187.6c13.1 72.3 33.9 140.1 72.5 203.2 4.6 7.6 37.7 54.3 37.5 58.1-0.2 3.6-5.9 0.9-3.3-1.6 2.3-2.1 4.8 2.3 2 3.3-4.7 1.5-28.8-40.8-32.4-46.3-41.1-63.6-67.7-132.3-81.1-206.7-0.6-3.1 1.7-20.3 4.8-10z"  fill="#c2e1ff" /><path d="M377.6-3.9c6.4 21 15.2 41.2 25.8 60.4 1.6 2.8 12.5 16.9 8.6 19-2.4 1.3-4.3-2.6-1.8-3.7 2.2-0.9 3.9 2.2 2 3.6-4 2.8-11-14.1-12.6-16.7-11-19.2-20.9-39.5-27.5-60.8-1.1-3.6 3.9-5 5.5-1.8z"  fill="#fff500" /><path d="M397.1-399.5c24.9 38.1 76.1 49.5 95.9 92.2 24.9 53.7-15 114.9-19.9 169.3-1.1 12.4 5.1 73.4 2.9 77.6-2.4 4.6-9-0.9-4.9-4.1 4.1-3.2 7.8 4.6 2.7 5.8-7.3 1.7-7.7-27.4-8.1-32.1-7.5-79.1 32.5-143.6 26.9-195.6-5.9-54.2-60.2-69-92.5-104-1.5-1.7-7.6-13.9-3-9.1z"  fill="#005bbb" /><path d="M391.7-283c51.2 65.9 48.8 172.4 77.6 252 3.9 10.7 47.8 106.2 47.8 106.3-2.7 1.3-4.5-3.2-1.7-4.2 2.9-1 4.2 3.6 1.2 4.3-4 0.9-7.5-10.5-8.7-12.8-44.9-83.2-67.3-166.6-84.3-259.2-5.3-29-14.3-55.8-31.5-79.9-0.5-0.7-4.8-11.1-0.4-6.5z"  fill="#fff500" /><path d="M400.1-252c30.9 57.4 41.5 163.3 70.8 234.3 3.9 9.4 45.3 92.6 44.1 93.2-2.7 1.3-4.5-3.1-1.7-4.1 2.8-1 4.2 3.6 1.3 4.3-3.6 0.8-6.1-7.8-7.2-9.9-41.4-75.6-69.6-152.7-87.9-236.9-2.7-12.6-23.8-76-23.7-79.9 0-2.5 3.1-2.8 4.3-1z"  fill="#c2e1ff" /><path d="M408.2-63c15.2 37.1 35.1 71.7 56.9 105.3 2.5 3.8 22.6 31.2 19.2 33.1-2.3 1.3-4.2-2.4-1.7-3.5 2.9-1.2 3.9 3.8 0.7 3.8-5.1-0.1-18.3-26.5-21.4-31.2-17.2-26.3-53.7-75.6-58.6-106.1-0.5-3.1 3.5-3.8 4.9-1.4z"  fill="#fff" /><path d="M416.2-130.9c16.9 53.1 37.6 105 64.3 154 3 5.6 30.2 50.5 27 52.1-3 1.5-4.4-4-1.1-4 3.4-0.1 2.4 5.5-0.7 4.1-9.6-4.1-22.2-37.6-27.5-47.1-26.9-48.5-48.2-99.5-65.6-152.1-1.1-3.3 0.3-14.3 3.6-7z"  fill="#c2e1ff" /><path d="M423.3-22.1c4.9 9.7 58 97.1 57.6 97.4-2.7 1.5-4.2-3.3-1.2-3.6 3.1-0.3 2.4 4.8-0.4 3.8-5-1.8-11.6-16.9-14.7-21.5-5.9-8.9-46.7-71-45.5-75.5 0.5-2.2 3.1-2.1 4.2-0.6z"  fill="#c2e1ff" /><path d="M432.2-214.6c17 75.1 21.9 148.9 53.5 220.5 4 9.1 34.4 64.2 33.8 68-0.6 3.5-6.1 1.3-4-1.7 2.3-3.5 6.4 2.5 2.3 3.5-6.1 1.3-29-51.8-32.3-58.6-34.5-72.3-44.5-147.3-58.6-225.1-0.7-3.7 2.5-14.9 5.3-6.6z"  fill="#fff500" /><path d="M438.8-21.1c4.9 9.5 55.8 95.5 54.6 96.2-2.4 1.3-4.3-2.6-1.8-3.7 3-1.2 3.9 4 0.7 3.9-4.1-0.2-11.1-16.2-13.3-19.6-5.6-8.9-45.4-72.2-44.4-76.2 0.5-2.2 3.1-2.1 4.2-0.6z"  fill="#fff" /><path d="M448.2-180.2c4.3 68.1 16.7 134.8 45.1 197.2 5.3 11.7 30.1 44.8 28.1 56.6-0.7 4.2-7 0.4-3.6-2.2 2.9-2.2 5.4 3.3 1.8 4-5.4 1.2-23.5-41.5-26.3-47.2-30.6-62.6-46.7-129.7-51.8-199-0.3-4 4.6-20.7 6.7-9.4z"  fill="#c2e1ff" /><path d="M453.4-311c50.5 53.4 0.4 153.1 20.5 252.2 7.9 38.6 22.6 74.9 40.2 109.9 2 4 13.1 19.8 11 23.6-1.8 3.2-6.3-0.8-3.4-2.9 2.9-2.2 5.4 3.4 1.8 4.1-4.8 1-15.9-27.4-18.1-31.8-33.2-66.6-52.2-138.7-44.8-213.5 2.4-24.5 8.5-48.7 10-73.2 0.9-15.2-0.4-30.7-6.4-44.9-1.1-2.7-14.8-27.1-10.8-23.5z"  fill="#fff" /><path d="M462.9-263.7c14.8 48.4-11.8 139.2 16.2 232.7 7.9 26.3 42.7 87.9 45.1 104 0.6 4.2-6.6 2.5-4.1-1 2.4-3.5 6.5 2.7 2.3 3.6-4.7 1-14.8-25.1-16.9-29.3-50.4-99.6-50.1-165.1-45.9-273.1 0.4-10.7-5-27.3-2.5-36.9 0.8-3.2 4.9-2.7 5.8 0z"  fill="#005bbb" /><path d="M469.4 39.9c2.6 4 23.4 33.3 20 35.3-2.4 1.3-4.3-2.5-1.7-3.6 2.5-1.1 4 3 1.3 3.7-3.9 1.2-7.4-9-9-11.5-4.7-7.3-16.1-30.6-10.6-23.9z"  fill="#005bbb" /><path d="M478.2-29.9c8.5 27.5 20.2 53.8 33.2 79.4 1.8 3.5 15 23.8 10.7 25.7-3.3 1.5-4.5-4.4-1-4.3 3.1 0 2.8 4.9-0.3 4.5-4.4-0.5-10-17-11.9-20.8-13.8-26.6-27.3-54-36.1-82.7-1.1-3.6 3.9-5 5.4-1.8z"  fill="#005bbb" /><path d="M484.1-350.9c74.6 69.7-18.4 159.4-8.6 269.4 3.8 42.5 17.3 83 35.5 121.4 2 4.2 19.2 35.4 14.3 35.8-3.1 0.3-3.3-4.7-0.2-4.6 3.2 0.1 2.8 5-0.3 4.6-4.9-0.6-12.7-23-15.1-27.6-31.3-63.4-51.5-132.9-39.6-204 6.5-39.2 27.2-73.9 34.7-112.7 4-20.4 2.5-41.6-7.5-60.1-1.6-2.9-16.4-24.7-13.2-22.2z"  fill="#fff" /><path d=""  fill="#fff" /><path d=""  fill="#fff500" /><path d="M511.3-129.7c-24.4 46.9-16.7 102.7 1.1 150.4 2.4 6.5 23.7 54.8 20.7 55-3.8 0.2-2.8-6 0.7-4.7 4.2 1.6-1.1 7.3-3 3.3-24.7-52.2-49.1-107-41.2-166.3 1.7-12.8 4.3-33 12.7-43.4 4.1-5.1 10.9 0.1 9 5.7z"  fill="#fff" /><path d=""  fill="#005bbb" /><path d="M525.4-308.4c11.4 66.4-61.5 134.7-46.7 243.4 5.3 39 18.9 75.8 35.9 111 1.7 3.6 16.8 29.3 11.2 29.8-11.2 1 10.7-5.9 1-0.3-4.4 2.5-15.7-25.9-17.7-29.8-35.5-72.8-55.2-155.4-27.2-234.4 9.3-26.4 23.7-50.8 31.6-77.6 3.9-13.1 0.6-31.3 5.2-43 1.4-3.6 5.9-2.3 6.7 0.9z"  fill="#fff500" /><path d=""  fill="#fff500" /><path d="M538.7-397c90.7 112.8-37.1 170.6-54.1 275.3-6.2 38.4-1 78 10.8 114.9 1.4 4.5 15 35.8 9.9 36-3.4 0.1-3.3-5.3 0.2-5 3.4 0.3 2.7 5.6-0.7 4.9-5-0.9-9.6-20.1-11.3-24.5-22.3-59.8-28.6-128.2 0.3-187 18.6-38.1 51.1-68.6 64.6-109.3 7.3-22 7.1-45.2-1.2-66.9-1-2.5-25.3-45.4-18.5-38.4z"  fill="#fff500" /><path d="M549.4-300.5c-6.7 88.5-84.5 116.2-68 239.8 5.4 40.2 20 77.8 37.7 114 1.8 3.7 11.5 17.7 9.5 21.3-1.8 3.2-6.4-0.9-3.4-3 3.5-2.5 5.4 4.8 1.1 4.2-8-1.1-23.5-45.7-26.9-53.6-27-62.4-39.3-134.6-14.7-199.9 14.6-38.7 43.3-71.2 53.7-111.5 2.7-10.5 11-24.4 11-11.3z"  fill="#c2e1ff" /><path d="M558.4-399.6c91.1 125.2-45.8 168.7-69.3 276.5-7.8 35.8-4.3 73.3 5.5 108.4 1.4 5 11.1 25.1 8.4 29-2.8 4-7.5-3.1-2.7-4.1 4.1-0.8 4 6.1 0 5.2-7.5-1.8-14-37.8-15.8-44.9-13.2-54.1-9.5-111.8 21-159.6 22-34.6 55-62.3 69.7-101.4 8.6-22.8 8.6-47.1 0.2-70-0.6-1.7-25.2-48.2-17-39.1z"  fill="#005bbb" /><path d="M565.3-216.6c-52.7 56.6-86.1 96.8-72.4 179.3 5.9 35.9 38.1 94.5 40 110.5 0.6 5.2-8 1.3-3.7-1.7 3.6-2.5 5.4 4.9 1 4.3-9.8-1.5-27.2-56.5-30.8-66-18.5-50.1-25.6-107.5-3.5-157.8 7.8-17.8 44.5-72.9 62.7-79 6.7-2.3 10.3 5.5 6.7 10.4z"  fill="#c2e1ff" /><path d="M570.6-370c53.2 103.3-76.3 165.6-85.9 266-4 42.3 5.4 84.6 21.2 123.7 2.2 5.4 16.7 29.5 14.1 34-1.9 3.3-6.5-1-3.4-3.2 3.6-2.5 5.4 4.9 1 4.3-8.2-1.2-21-44.3-23.9-52.1-21.4-59.1-26.5-126.6 4.1-183.5 19.6-36.5 52.1-64.8 68.8-103.1 7.4-16.9 10.9-35.3 8.5-53.7-1.4-10.8-10.3-41.7-4.5-32.4z"  fill="#c2e1ff" /><path d=""  fill="#fff500" /><path d="M588.5-217.6c-51.3 56.6-100.4 84.2-92.7 170.8 3.1 35.8 15.9 69.5 30.9 101.9 1.7 3.7 10.2 16.3 8.1 19.7-2.3 3.8-7-2.3-2.7-3.5 3.7-1.1 4.1 5.3 0.3 4.7-9.6-1.5-26.3-55.6-29.7-65.1-17.3-48.3-23.3-103.6 0.1-151.1 15.2-30.7 48.6-68.5 77.6-87.2 6.6-4.2 12.2 4.2 8.1 9.8z"  fill="#c2e1ff" /><path d=""  fill="#005bbb" /><path d="M603.4-243.5c-44.8 67.7-112.7 88.8-109.7 183.7 1.2 38.1 13.8 74.5 29.6 108.9 1.3 2.9 15.5 28.9 8.3 26.9-11.2-3 12.4-2 1 0.1-4.8 0.8-13-23.3-14.9-27.4-26.1-56.3-44.9-121.9-20.5-182.3 14.6-36.2 96.6-120.6 102.9-119 4.3 1.1 5.2 5.6 3.3 9.1z"  fill="#c2e1ff" /><path d="M603.5-263.7c-36.9 74.4-112.5 95.9-112.8 192.3-0.1 38.1 11.1 75 26.3 109.6 1.1 2.6 14.7 27.6 7.6 25.7-11.2-2.9 12.4-2 1 0.1-4.6 0.8-9.9-16.8-11.5-20.1-26.4-57.4-44.1-124.5-19.1-185.8 16.5-40.4 50.7-66.1 78.2-98.3 7-8.1 13.9-25.1 22.4-30.7 5.1-3.4 9.8 2.3 7.9 7.2z"  fill="#c2e1ff" /><path d=""  fill="#005bbb" /><path d="M603.2-91.4c-25 31.6-40.6 66.3-36.6 107.3 0.7 7.5 13 60.4 9.9 60.1-3.9-0.3-3.1-6.4 0.8-5.7 4.5 0.9 1.5 7.8-2.3 5.2-18.1-13-17.6-103.4-8.6-127.4 5.6-14.9 15.4-37.6 28.2-47.9 5.8-4.6 11.9 2.7 8.6 8.4z"  fill="#005bbb" /><path d="M603.1-223.2c-47.7 59-108.1 81.3-105.4 169.5 1.2 37 13.6 72.2 28.8 105.6 1.1 2.5 14.3 26 6.8 24-2.7-0.7-2-4.9 0.7-4.8 3.3 0.2 2.7 5.3-0.5 4.8-5.3-0.8-13.1-25.6-15.4-30.6-24.1-53.6-40.6-116.2-16.1-172.8 8.7-20 75.9-98.2 94.1-105.5 6.4-2.5 10.3 4.8 7 9.8z"  fill="#c2e1ff" /><path d="M603-192.6c-45.8 46.6-98.7 77-96.5 150.6 1 33.6 12.2 65.6 25.6 96.1 0.8 1.9 12.7 23.8 5.3 21.7-2.7-0.8-2-5 0.8-4.8 3.3 0.2 2.7 5.4-0.5 4.9-5.4-0.9-13-26.3-15.3-31.6-21-49.1-34.7-105.8-11.5-156.7 13.7-30 55.5-73.6 84.2-90.4 6.9-4 12.3 4.8 7.9 10.2z"  fill="#fff" /><path d="M603-177.1c-44.4 42.6-92.7 73.9-90.5 142.6 1 31.3 11.3 61.3 23.5 89.8 0.9 2 12.2 22.8 4.5 20.5-2.8-0.8-2-5.1 0.9-4.9 3.4 0.2 2.7 5.5-0.6 5-5.1-0.9-11.4-23.2-13.4-28-20.3-48.3-33.7-103.8-9.5-153.4 14.5-29.7 48.3-66 77.4-82.2 7.1-3.9 12.3 5.1 7.7 10.6z"  fill="#fff" /><path d=""  fill="#fff500" /><path d="M603.1-130.1c-36.1 35.5-67.9 70.9-64.1 125 1 14.2 22.2 74.7 20.8 79.3-1.4 4.7-8.2-0.6-3.9-3 4.3-2.5 5.5 6 0.8 4.9-5.2-1.2-9.8-22.7-11.5-27.5-17.4-49.4-21.5-101.1 10.3-145.8 9.9-13.9 24.8-34.3 39.7-43.1 6.9-4.1 12.3 4.7 7.9 10.2z"  fill="#c2e1ff" /><path d=""  fill="#fff" /><path d=""  fill="#fff500" /><path d="M603.6-88.2c-23.7 31.1-38.3 65.1-34.6 104.8 0.7 7.4 12.7 59.9 9.4 59.6-4.6-0.4-2.3-7.7 1.7-5.4 3.4 2 0 7.2-3.2 4.9-18.1-13.1-16.7-103.5-7.9-126.9 5.2-14 14.1-35.4 25.9-45.2 5.6-4.7 11.9 2.5 8.7 8.2z"  fill="#005bbb" /><path d="M603.5-60.3c-16.9 30.5-22.1 63.4-16.9 97.9 0.8 5.2 10.5 39.8 4.1 38.9-4.1-0.5-2.9-6.9 1.2-5.9 3.4 0.8 2.7 6.1-0.8 6-6.1-0.1-8.9-27-9.9-31.9-6.9-34.6-6.1-69.2 8.6-101.8 3.3-7.4 18.5-16.2 13.7-3.2z"  fill="#fff" /></svg>