<svg width="1200" height="675" viewBox="-500 -500 1200 675" xmlns="http://www.w3.org/2000/svg"><path d="M-500-500h1200v675h-1200z" fill="#000"/><path d=""  fill="#c2e1ff" /><path d=""  fill="#fff" /><path d=""  fill="#fff" /><path d=""  fill="#fff500" /><path d=""  fill="#fff500" /><path d=""  fill="#fff" /><path d=""  fill="#fff" /><path d=""  fill="#005bbb" /><path d="M-393.5-306.7c13.2 71.2 32.5 142.4 9.8 214.1-2.1 6.5-4.2 19.8-10.7 23.5-10 5.7-18.2-10.6-7.6-15.2 12.4-5.4 16.7 16.6 3.2 16.3-17.5-0.4 12.2-60.2 13.3-101.5 1.2-44.8-19.8-109.4-18.5-136.4 0.3-6.4 8.7-6.2 10.5-0.8z"  fill="#fff500" /><path d="M-376.8-399.4c4.1 39 17.9 74.3 29.5 111.4 25.3 81 17.3 165-19.1 241.1-5 10.4-17.2 49.3-29.6 51.1-11.7 1.8-13.5-16.8-1.7-17.3 11.8-0.5 11.6 18.1-0.2 17.4-6.1-0.4-9.9-6.9-7.3-12.4 25.5-54.7 54.5-105.3 59.3-166.9 6.4-82.3-29.9-142.2-41.6-219.8-1.2-8.2 8.3-14 10.7-4.6z"  fill="#005bbb" /><path d="M-352.3-400c10.7 45.1 37 84.1 49.2 128.7 16.9 61.7 12.8 127.7 2.1 190-1.4 8.4-1.2 38.8-11.7 40.3-11.1 1.5-9.6-16.9 1.1-13.7 12.5 3.8-1.7 21.6-8.2 10.2-0.3-0.5 16.3-135 14.7-166.5-3.8-71.2-35.8-118.2-55.7-183.4-2.1-7 5.2-13.7 8.5-5.6z"  fill="#fff" /><path d="M-353.3-87c-4.5 12.6-33.8 91.7-49.8 82.4-10.4-6.1 0.1-22 9.8-14.8 9.7 7.2-2.4 21.9-11.3 13.7-9.2-8.5 7.4-28.5 11.4-36.2 7.5-14.3 14.8-44.1 26.7-54.4 6.9-6 15.1 1.6 13.2 9.3z"  fill="#fff" /><path d="M-344.5-361.6c29.4 77 51.3 122.3 45.9 208.1-3.4 54.5-28.1 109.5-23.8 164.1 1.2 15.6 5.8 30.7 13.3 44.5 2.1 3.8 12.6 14.8 11.2 19-1.6 4.8-8.4-0.9-3.9-3.2 3.8-2.1 5.8 4.9 1.5 5.1-13.6 0.8-34.4-67-35-80.9-2.4-64.4 25.6-126.9 24.8-192.1-0.4-35.5-5.2-70.8-17.5-104.2-5.5-15-26.2-43.7-24.6-59.2 0.5-4.7 6.2-4.7 8.1-1.2z"  fill="#fff500" /><path d="M-331.2-282.3c22.6 71.3 15.5 149.5-10.2 218.8-10.5 28.2-23.8 55.7-30.3 85.2-1.9 8.6 0 58.4-7.6 57.1-6.8-1.1-4.5-11.8 2.2-10 7.8 2.2 1.5 14.1-4.7 8.8-29.1-24.8 36-171.5 43.9-207.5 7.6-34.5 9.2-70.3 5.6-105.3-0.9-9-12.6-42.4-7.2-48.9 2.6-3.2 6.9-1.6 8.3 1.8z"  fill="#fff500" /><path d="M-320.3 62.2c1.7 3.2 8.8 9.5 5.7 13.3-2.6 3.1-7.3-1.2-4.4-4 3.4-3.3 7.5 3.4 3.1 4.9-11.7 4.1-11.7-23.4-4.4-14.2z"  fill="#005bbb" /><path d="M-307-326.7c57.9 118.5 18.1 191.4 36.3 301.1 4.7 28.6 18.1 53 34.6 76.5 1.8 2.6 21.1 24 12.6 25.8-3.6 0.8-5.3-4.4-1.9-6 3.3-1.5 6.1 3.2 3.2 5.4-12.6 9.4-58.7-97.9-60.9-110.6-9.7-58.3 1-119.3-3.8-178.2-2.3-28.3-6.8-56.4-16.1-83.3-3.2-9.1-9.5-18.9-11.4-28.2-0.9-4.7 5.2-6 7.4-2.5z"  fill="#005bbb" /><path d="M-292.7-256c20.9 95.8-12.9 185.4 0.3 255.4 3.4 17.9 38.3 73.4 38.3 74.1 0 5.1-8.2 1.9-4.8-1.9 3.5-3.7 7.3 4.3 2.2 4.6-6.1 0.4-17.5-20.7-20.7-25.2-46.7-65.5-22.7-138-20.1-211.9 1.1-31.3-7.4-63.9-5.7-94.4 0.4-6.4 8.7-6.1 10.5-0.7z"  fill="#fff500" /><path d="M-279.5-34.6c4 65.5 38.8 76.4 47.9 107.4 1.6 5.3-8.1 4.5-5.5-0.5 2.5-5 8.9 2.3 3.7 4.1-5.7 2-16-18.7-18.7-22.3-19.1-26.5-35.2-54.4-38.9-87.5-0.8-7.6 9.8-8.3 11.5-1.2z"  fill="#fff500" /><path d="M-266.4-87.2c0.5 43 7.1 81.9 30.4 118.8 5.6 8.8 28.4 32.2 27.4 42.3-0.6 6.2-10.2 1.2-5.5-2.8 4-3.5 8.2 4.2 3.1 5.7-6.4 1.9-29.4-40.2-33.4-46.3-20.1-30.7-42.7-80.7-34.3-118.8 1.6-7.4 11.3-5.5 12.3 1.1z"  fill="#fff" /><path d="M-255.1-268.1c20.6 78.8 13.1 164.2 52.4 237.7 5.9 11.1 69.1 104.4 57.9 108.1-4.8 1.6-7.9-5.3-3.5-7.8 5.1-3 9.3 5.2 3.9 7.6-7.4 3.4-20.4-34.9-23.7-40.6-21.9-38-49.3-71.4-63.4-113.7-18.9-56.8-19.4-117.4-30.6-175.8-0.8-4.2-4.6-12.5-2.3-16.8 2.3-4.4 7.9-2.8 9.3 1.3z"  fill="#fff500" /><path d="M-242.8-291.3c26.4 82.5 24.4 167.8 71.1 243.7 16.7 27.1 67.2 89.8 65.2 121.2-0.6 9.1-15 2.3-8.2-4 5.7-5.3 12.3 5.9 4.9 8.3-5.3 1.7-29.7-63.4-35.1-72.3-24.3-40.8-53-77.5-69-122.8-18.2-51.3-21.4-105.9-34.5-158.4-1-4.1-5.3-12.1-3.3-16.4 2-4.2 7.2-3 8.9 0.7z"  fill="#005bbb" /><path d=""  fill="#fff500" /><path d="M-216.9-190c8.5 47 22.5 91.5 47.3 132.7 17.8 29.5 71.9 97.2 68.9 131.3-0.7 8-13.4 4-9.4-2.9 4.7-8.2 14.8 4.6 5.8 7.3-7 2.1-23.8-55.4-28.2-63.7-34.5-66.5-75.4-112.9-92-189.2-5.2-23.6 6.8-18.1 7.6-15.5z"  fill="#005bbb" /><path d="M-203.5-399.2c5.1 92.5 36.8 225.1 79.6 307.3 14.3 27.5 53 95.7 49 126-1.3 9.7-16.2 1.4-8.5-4.8 6.5-5.3 12.8 7.2 4.6 9.3-6.2 1.6-28-77.7-32.8-88.4-15.5-34.6-35.2-67.1-50.1-101.9-30.5-71.2-41.6-156.3-51.9-232.7-0.6-4.5-3.1-12.1-1.2-16.5 2.5-6 10.1-3.7 11.3 1.7z"  fill="#c2e1ff" /><path d=""  fill="#fff" /><path d="M-180.7-108.7c8.9 19.7 112.6 174.6 87.9 186.9-7.5 3.8-10.9-9.8-2.5-10 8.4-0.3 5.8 13.5-2 10.2-6.8-2.9-14.3-48.3-21.5-64.5-18.8-42.1-49.1-77.7-68.9-119.2-2.2-4.7 4.4-7.5 7-3.4z"  fill="#fff" /><path d=""  fill="#c2e1ff" /><path d="M-154.1-206.2c18.6 80.5 68.5 149 83.5 231 1.6 8.5 12.8 50.3 2.1 54-9 3.1-10.8-12.6-1.4-11.7 9.5 1 4.5 16-3.7 11.2-5.8-3.4-11.3-74.9-17.9-98.6-16.3-57.4-48.4-108.4-66.8-165-2-6.1-4-12.3-5.5-18.5-1.6-6.4 7.4-8.3 9.7-2.4z"  fill="#005bbb" /><path d="M-142.5-154.6c17 42.8 40.6 82.7 55.9 126.3 4.5 12.9 33.2 101.7 17 107.4-8.9 3.1-10.8-12.5-1.4-11.6 9.4 0.9 4.6 15.9-3.6 11.1-7.3-4.2-9.4-62.4-14.8-83.5-15.2-59.7-65.5-136-60.9-149.4 1.3-3.9 6.1-3.4 7.8-0.3z"  fill="#c2e1ff" /><path d="M-130.8-7.7c7.5 12.1 39.5 72 34.3 83.5-3.4 7.4-14.3-0.8-8-6.1 6.2-5.3 12.6 6.7 4.7 8.9-9.8 2.7-13.2-30.6-15.4-36.9-5.6-16-17.1-30.9-21.7-46.7-1.2-4 4-5.6 6.1-2.7z"  fill="#c2e1ff" /><path d="M-113-351.4c-72.2 105.8 23.1 240.1 43.5 346.4 2.3 12.1 13.4 74.5 8.1 82.1-5.6 8-16.5-4-8.1-8.8 8.4-4.9 13.3 10.6 3.6 11.4-10.6 1-7.2-21-7.6-26.4-1.8-28.4-5.7-56.8-12.2-84.5-20.6-88.5-72.6-168.4-62.8-262.4 2.1-20.1 6-53.4 20.8-68.8 7.8-8.2 18.6 1.8 14.7 11z"  fill="#005bbb" /><path d="M-101.7-238.6c-7.8 64.6 35 177.6 42.1 252 1.3 13.3 10.4 52.5 2.2 63.4-5.9 8-16.8-4.5-8-9.2 8.7-4.8 13.3 11.1 3.4 11.7-10.7 0.7-10.6-80.4-12-92.2-8.4-72.7-41.7-145-41.3-218.1 0.1-10.4 12.7-22.7 13.6-7.6z"  fill="#fff500" /><path d="M-91.5-86.5c8.2 23.3 42.3 146.7 30.3 163.7-5.6 8-16.5-4-8.1-8.9 8.5-4.9 13.3 10.6 3.6 11.5-12 1.1-8.4-38-9.1-45.8-4-40.6-13.8-78.6-25.3-117.5-1.7-5.7 6.1-8.1 8.6-3z"  fill="#c2e1ff" /><path d="M-76-229.9c-12.6 57.5 16.4 172.6 20.3 238.1 0.8 14.4 9.7 57.3 0.9 68.8-6.1 8-16.9-4.8-8-9.5 8.9-4.7 13.3 11.5 3.2 12-11.2 0.6-9-85.8-9.9-98.1-4.9-67-27.7-138-21.7-205 1-11.2 15.6-21.9 15.2-6.3z"  fill="#fff500" /><path d="M-64.2-183.1c-0.9 49.2 23.4 226.3 12 258.3-3.4 9.6-17.7 0.7-10.6-6.6 8.3-8.5 16.7 10.4 4.8 10.9-3.6 0.1-6.7-2.9-6.6-6.5 0.8-42.9-0.7-86-3.2-128.9-2.3-41.3-7.5-82.6-8.9-123.9-0.3-9.2 11.1-13.7 12.5-3.3z"  fill="#005bbb" /><path d="M-51.7-56.1c0.3 15.5 6.6 137.1-5.9 136.1-8.7-0.7-6.9-14.4 1.7-12.7 8.6 1.6 5.3 15.1-3 12.5-10.5-3.2-4.1-42.8-4.2-51.9-0.1-16.8-6.4-74.5-0.3-86.7 3.1-6.1 10.9-3.2 11.7 2.7z"  fill="#005bbb" /><path d=""  fill="#c2e1ff" /><path d="M-25.6-317.3c-106.4 82.2-41.7 197.4-32.1 318.3 0.8 10.4 10 79.5-3.3 78.8-8.6-0.5-7.1-14 1.4-12.6 9.9 1.6 3.7 17.1-4.6 11.5-0.3-0.2-5.2-77.4-6.2-89.5-6-74.2-44.2-185.4-21.3-254.1 7.3-21.7 31.8-67 56.9-72.1 12.1-2.4 16.7 11.9 9.2 19.7z"  fill="#fff" /><path d="M-13.5-369.4c-64.7 45.3-108.3 75.4-97.8 163.5 6.4 53.1 61.5 195.2 51.2 237-2.6 10.6-18.1-0.4-8.8-6.4 9.2-5.9 12.8 12.7 2 10.7-10-1.9-12.2-68.3-14.3-79.4-16.4-86.1-73-185.7-26.2-271.1 11.9-21.8 61-72.7 86.1-75.4 12.8-1.4 16.1 13.9 7.8 21.1z"  fill="#fff" /><path d="M0.3-129.3c-14.7 41.3-28.7 82.4-35.4 125.9-1.9 12.4-4.6 76-9.2 81.2-7.1 8-17.5-6.3-7.8-10.6 11.4-5 12.2 16.7 0.5 12.5-11.4-4.1-1-53.3 0-63.4 3.8-38.5 16.6-121.1 37.4-152.8 5.5-8.3 16.5-1.4 14.5 7.2z"  fill="#fff500" /><path d="M13.2-16.6c-14.3 19-24.2 40.7-30.6 63.5-2.3 8-2.7 30-11 33.5-10.7 4.6-14.3-14.4-2.7-14 11.6 0.3 7 19.1-3.4 13.9-18.4-9.1 21.8-99 33.3-109.4 8.7-7.9 19.2 3.3 14.4 12.5z"  fill="#fff" /><path d="M25.7-12.6c-15.8 17.6-27.6 38.1-35.5 60.3-2.8 7.9-4.2 29.8-12.6 33-11.2 4.3-14.2-15.3-2.2-14.5 11.9 0.8 6.4 19.9-4.1 14.1-19.6-10.7 27.7-97.7 40.5-107.4 9.9-7.4 19.7 5.2 13.9 14.5z"  fill="#c2e1ff" /><path d=""  fill="#c2e1ff" /><path d="M50.6-19.2c-21.4 19.4-39.8 41.2-51.3 68-2.9 6.8-8.6 41.1-21.8 31.1-8.4-6.4 2.4-19.1 10.1-11.9 6.6 6.2-1.6 17-9.4 12.3-11.5-6.9 30.1-99.8 59.6-116.6 11.4-6.5 20.1 8.1 12.8 17.1z"  fill="#fff500" /><path d="M63.4 23c-7 7.2-45.3 59.1-45.6 59.2-13.5 2.3-12.3-20.4 0.9-16.8 13.2 3.6 2.6 23.7-7.9 14.9-13.2-11.2 28.7-69.5 41.5-74.1 10.8-3.9 16.9 8.7 11.1 16.8z"  fill="#005bbb" /><path d="M76.3 46.8c-6.1 7.9-20.7 42-33.3 34.2-8.9-5.4-2.3-19.5 7.6-16.1 11.5 4 4.3 21.8-6.8 16.6-15.1-7.1 11.8-45.1 20.3-49.3 9.7-4.8 16.8 6.4 12.2 14.6z"  fill="#005bbb" /><path d=""  fill="#fff" /><path d="M100.4-255.5c-10.8 153.9-73.9 144.8-115.6 255.2-7.7 20.2-12.8 75.7-21.1 79.9-10.1 5-14.5-13.1-3.3-13.4 11.2-0.3 7.7 18-2.6 13.5-20.1-8.7 19.4-107.2 26.8-121.5 19.3-37 49.7-66.2 70.8-101.9 32-54.2 18.3-73.5 31.9-114.4 2.6-7.8 12.8-4.6 13.1 2.6z"  fill="#fff500" /><path d="M113.5-198.5c-15.6 92.8-80.8 120.8-118.4 195.3-11.5 22.7-21.5 90.2-34.1 82.6-9.8-5.9 3.3-19.7 9.7-10.2 5.5 8.1-7.8 16-12.3 7.4-3.7-7 1.9-20.7 3.3-28 13.1-67.6 50.2-108.3 92.4-159.5 25.4-30.8 42-88.3 46.5-93.8 5.2-6.3 13.5-0.8 12.9 6.2z"  fill="#005bbb" /><path d="M125.1-358.2c1.8 75.7 12.8 153.9-22.1 224.3-24.6 49.7-71.7 80.4-100 127.1-6.2 10.2-23.4 70.5-33.8 67.6-11.5-3.2-2.1-20.7 7-12.9 9 7.7-6.7 19.6-11.7 8.8-3.1-6.7 2.7-19 4.4-25.4 22.3-81.6 91.9-115.5 125.3-187.3 30.2-65 17.9-133 18.6-201.8 0.1-8.2 11.2-8 12.3-0.4z"  fill="#fff500" /><path d="M148.7-399.6c22.7 122.6 42.3 182.7-27.5 299.1-6.6 11.1-27.1 49.7-42.8 47-16.5-3-5.8-28.6 7.9-19 16 11.3-12.5 29.9-16.3 10.7-1.4-6.7 34.7-47 40.9-57.4 17.1-28.6 29.5-60.4 38.5-92.5 9.6-34.4 12.5-68.7 6.4-103.9-2-12-20-80.4-16.8-85.7 2.6-4.5 8.3-2.6 9.7 1.7z"  fill="#005bbb" /><path d="M151.6 29.8c-2.4 9.5-6 50.3-17.7 51-11.9 0.6-8.7-18.9 2.3-14.4 9.5 3.8 2.7 18.4-6.3 13.5-9.7-5.2 2.7-61 15.2-59.5 4.9 0.6 7 5 6.5 9.4z"  fill="#c2e1ff" /><path d="M171.3-399.6c12.9 38.6 32.8 76.9 33.5 118.4 0.9 57.5-53 171.2-86.7 218.5-8.6 12.1-39.6 57.5-56.5 53.5-16.7-3.9-4.4-29.6 9.1-19.1 15.8 12.4-14.4 30-17.4 10.1-0.6-3.9 53-60.8 61.1-73.2 25.9-39.8 44.1-86.1 61.6-130.1 11-27.6 18.9-55.9 14.9-85.8-4.1-31.1-25.5-60.1-28.3-90.4-0.5-5.5 6.6-6.3 8.7-1.9z"  fill="#c2e1ff" /><path d="M177.2-197.1c-21.7 59.5-47.2 119.6-93.4 164.4-17.7 17.2-37.3 32.5-53.3 51.4-10.3 12.2-27.2 55.8-34.9 61-10.5 7.2-18.5-12.5-5.8-14.5 14.7-2.5 9.2 22.9-3.2 14.6-10.2-6.9 4.8-31.8 8.1-39.2 27.1-59.2 87.4-90 121.1-144.4 12-19.5 38.1-93.4 48.2-102.4 6.8-6.1 15.1 1.4 13.2 9.1z"  fill="#005bbb" /><path d="M188.7-25.7c-2 25.7-0.6 51.6 2.6 77.2 0.7 5.3 8.1 26.3-1.9 27.4-7.4 0.8-8-10.9-0.5-10.9 7.4 0 6.7 11.7-0.6 10.9-13.6-1.5-16.2-94.4-12.5-106.8 2.3-7.8 12.4-4.9 12.9 2.2z"  fill="#005bbb" /><path d="M202.7-192.5c-27.5 47.8-45.7 100.9-75.5 147.2-21.8 33.9-52.7 59.2-77.4 90.6-6.2 7.9-20 42.5-32.4 35.7-12.1-6.7 3-24 11.2-12.8 8.2 11.1-12.8 20.5-15.6 6.9-5-24.4 69.1-94.1 85.8-114.3 36.9-45.1 60.6-133.5 89.3-164.1 7.6-8.1 18.4 1.6 14.6 10.8z"  fill="#c2e1ff" /><path d=""  fill="#fff" /><path d="M226.3-291.9c3 44.1-22.8 83.4-41.7 121.2-25.3 50.6-44.7 104.8-82.6 147.9-17.7 20.1-38.5 37.3-55.9 57.8-7 8.3-26.7 52.2-38.5 46.2-12.1-6.1 2.1-23.5 10.5-12.9 9.9 12.4-16.6 20.4-15.2 4.5 4.4-49.5 90.9-109.8 117.8-153.9 22.4-36.7 76.3-143.4 88-182.6 2.8-9.2 1.3-23.3 5.8-31.3 3.3-6.1 11.2-2.9 11.8 3.1z"  fill="#fff500" /><path d="M238.5-44.5c0.7 27.7 10.1 54.5 21.7 79.4 4 8.6 20.7 30 19.4 39-0.9 6.5-10.8 0.9-5.7-3.3 4.4-3.5 8.5 4.8 3.1 6.2-7 1.7-16.7-24.7-19.2-29.5-14.6-28.2-28.1-58.8-31.1-90.8-0.7-7.8 10.3-8.3 11.8-1z"  fill="#fff500" /><path d="M251.1-44.6c1.2 31.8 44.3 118.4 44.3 118.6-0.7 5.4-9.2 2.4-6.4-2.2 3.4-5.4 10 3.5 3.8 5.1-6.6 1.8-15.2-21.1-17.6-25.5-16.2-29.3-32-61.1-35.7-94.8-0.9-7.7 10-8.3 11.6-1.2z"  fill="#fff" /><path d="M265.9-101.3c-23.6 41.5-11.2 89.6 8 130.1 2.7 5.7 27.9 47 20.6 48.1-5.4 0.8-4.8-8.2 0.4-6.7 4.5 1.3 2 8.2-2.2 6.5-5.5-2.3-10.3-16.2-13.1-21.2-24.7-43.9-48.9-94.9-35.8-146.4 7.1-28 27.9-28.8 22.1-10.4z"  fill="#005bbb" /><path d="M278.3-127.4c-35.5 37.1-38.2 86.2-21.5 132.6 6.6 18.5 15.5 36.1 24.9 53.3 1.2 2.2 13.2 17.3 5 18.4-4.6 0.7-5.3-6.7-0.6-6.8 5.5-0.2 3.9 8.8-1.2 6.6-8.1-3.4-17-28.4-21.1-36.2-25.9-49.9-43.9-108.7-14.5-161.4 3.9-7 10.6-21.9 19.7-23.2 9.9-1.5 14 9.4 9.3 16.7z"  fill="#005bbb" /><path d=""  fill="#c2e1ff" /><path d="M303.7-92c-21.3 43.3-2.1 90.1 18 129.8 3.2 6.3 21.1 31 17.9 37.2-2.7 5.1-10-1-5.4-4.5 4.6-3.5 8.7 5.2 3 6.4-11.1 2.5-51.2-101.2-54-118.1-2.6-16-2.3-32.8 2.2-48.6 3.7-13.1 22.4-18.8 18.3-2.2z"  fill="#fff500" /><path d="M316.4-114.4c-30.2 37.5-27.4 81.6-9.6 123.9 7.6 18.2 17 35.6 26.3 52.9 1.1 2.1 10 13.8 2.3 14.7-4.9 0.6-5.4-7.2-0.5-7.3 4.9 0 4.6 7.7-0.3 7.3-7-0.7-16-26.2-19.1-32.1-24.2-45.7-48.7-98.1-26.5-149.7 3.1-7.2 8.4-22.7 17.2-24.8 9.3-2.2 14.1 7.7 10.2 15.1z"  fill="#005bbb" /><path d="M326.1-394c12.6 55.1 15.4 114.7-20.6 161.7-34.1 44.5-82.7 71.1-106.4 124.3-7.7 17.4-29.6 123.8-29.8 124.1-7.5 8-17.7-7-7.6-11.1 11.8-4.8 12 17.4 0.1 12.8-10.4-4.1-1.5-32.4-0.5-40.1 7.7-55.1 22.1-110.5 58.6-154 26.5-31.5 64-53.7 85.2-89.5 31.5-53.1 8.8-78.3 10.8-127.4 0.3-6.3 8.5-6.2 10.2-0.8z"  fill="#fff" /><path d="M343.2-398.7c4 56.3 7.7 116.7-27.9 164.4-31.1 41.8-79.4 65.9-105.1 112.6-11.5 20.8-22.9 86.7-30.6 90.4-10 5-14.5-13.1-3.3-13.4 11.2-0.3 7.7 17.9-2.6 13.5-9.4-4.1-1.8-24.3-0.5-31 25-135.1 90.8-120.3 140.5-203.9 30.8-51.8 9.2-114.6 18.1-134.6 2.7-6 10.3-3.6 11.4 2z"  fill="#c2e1ff" /><path d="M352.5-398.1c-1 44.5 2.3 92.1-15.8 133.9-27.8 64.6-101.2 91.1-130.7 155.2-11 23.9-17 49.8-20.2 75.7-0.7 5.9 1.7 35.2-11.4 29.3-6.9-3.1-3.4-14 4.1-12.3 8.7 1.9 5 15.4-3.4 12.6-9.6-3.2-3.4-26.5-2.8-33.1 5.1-52.6 21.8-103.4 58.6-142.4 26.9-28.6 62.6-49.2 84.2-82.7 36-55.5 12.5-92.4 24.7-137.9 2-7.6 11.9-5.1 12.7 1.7z"  fill="#fff" /><path d="M366.3-308.2c-24.7 117.4-131.4 123.9-161.3 225.4-12 40.7-10.2 84.2-1.9 125.3 0.7 3.3 13.4 41.8 0.1 35.5-5.1-2.5-2.3-10.5 3.3-9.2 5.6 1.3 4.5 9.8-1.2 9.7-9.7-0.1-13-36.8-14.4-43.8-13.6-67.1-9.3-141.8 36-196.7 26.5-32.1 64.2-51.8 91.4-83.1 18.5-21.3 21.6-44.7 33.9-68.4 4.3-8.2 15-2.9 14.1 5.3z"  fill="#fff" /><path d="M379-356.2c-12.2 46.7-16.8 93.4-49.4 131.6-39.7 46.5-97.6 70-119.9 130.9-10.2 27.9-13.1 58.2-11.2 87.7 0.6 10.4 9.3 35.6 5 44.6-4.1 8.7-15.5-3.6-6.5-7.1 9-3.5 8.8 13.3-0.1 9.6-9.9-4-9.9-42.5-10.6-51.6-4.9-60.8 10.6-121.5 54.7-165.3 28.7-28.5 65.9-48.3 89.3-82.1 18.1-26.2 27.3-95.6 35.5-105.1 5.5-6.3 14-0.5 13.2 6.8z"  fill="#fff500" /><path d="M391.9-184.7c-34.6 45.7-93.2 80.4-86.5 145.4 2.3 21.9 44.4 111.7 44.2 113.2-1.2 6.9-11.5 0.5-5.9-3.7 5.6-4.1 8.7 7.6 1.7 6.8-11-1.4-31.3-58.2-35.8-68.7-16.8-38.6-24.9-80.4-5.2-119.7 9.3-18.5 57.7-81 75.9-88.8 10.1-4.3 16.7 7.4 11.6 15.5z"  fill="#fff" /><path d="M404.7-167.5c-29.7 44-66.7 82.4-56.1 139.8 5.2 28 17.3 54.5 27.9 80.9 1.2 3.1 13.8 24.7 3.3 24.5-5.9-0.1-5.3-9.3 0.6-8.6 6.8 0.8 3.1 11.6-2.8 8-7.7-4.7-12.7-29.9-16-38.3-20.6-51.2-40.5-102.7-13.9-155.9 10-20.1 25.8-48.3 42.8-63.1 8.9-7.7 19.1 3.6 14.2 12.7z"  fill="#c2e1ff" /><path d=""  fill="#fff" /><path d="M427.6 7.2c1.3 9.4 16 71 4.3 71.9-7.6 0.6-7.9-11.5-0.2-11.2 7.6 0.2 6.6 12.2-1 11.1-8.1-1.2-16.6-64.9-13.8-72.8 2-5.8 9.3-4.1 10.7 1z"  fill="#c2e1ff" /><path d="M442.5-138c-16.1 39.2-23.7 78.3-19.4 120.7 1.5 14.2 16.5 85.9 12.3 93.4-5.1 9-16.4-5.1-6.5-8.1 8.5-2.6 9.7 12.1 0.9 10.9-10.1-1.4-10.2-43.6-11.5-52-8.4-54.2-14.2-104.8 3.9-157.9 6.4-18.7 25.1-25.8 20.3-7z"  fill="#fff500" /><path d=""  fill="#005bbb" /><path d="M402.3-394.5c-25.6 43.7-25.1 96.6-48.7 141.1-24.3 45.6-69.5 67.9-104.7 103.2-8.4 8.4-30.2 51.4-40.6 50-13.3-1.8-5.7-22.7 5.7-15.6 9.7 6.2-0.8 20.9-9.8 13.8-8.7-7 3.4-23.9 6.9-30.4 28-51.5 83.3-73.4 118.2-118.2 34.1-43.8 29.1-120.7 58.3-153.9 7.3-8.3 18.1 1 14.7 10z"  fill="#fff500" /><path d="M479.5-77.3c-5 40.1-5.8 80.8-8.3 121.1-0.4 6.8 3.2 37.4-8.9 36.3-7.6-0.7-7.7-12.1-0.2-13 8.8-1.1 9.7 12.9 0.9 13-13.7 0.2-4.6-45.3-4.1-53.3 1.9-29.1-2.2-81.1 7.2-107.2 2.9-8 13.3-4.4 13.4 3.1z"  fill="#fff" /><path d="M493.1-297.5c-14.9 31.9-25.7 65.4-39.5 97.7-14.8 34.3-34.7 66.8-46.4 102.3-4.8 14.8-7.7 30.1-8.1 45.6-0.7 35.6 10.5 70.5 18.4 105 0.9 3.8 9.8 27.2-1.8 25.2-7-1.2-4.5-12.1 2.3-10.1 6.8 2 3.1 12.5-3.4 9.8-8.9-3.6-11-40.1-13.2-48.9-28.8-121.2-5.4-138.5 40.8-245.6 11.6-27 18.3-66.7 36.3-89.8 6.5-8.3 17.4-0.1 14.6 8.8z"  fill="#fff500" /><path d="M505.6-150.3c-21.8 56.3-20.9 118.1-26.6 177.3-0.8 8.5 1 54.4-11.8 52.9-9-1.1-6.5-15.2 2.3-13.2 8.8 2.1 4.8 15.8-3.7 12.8-12.7-4.5 1.6-74.4 2.7-86.7 3.4-39 1.4-117.9 22.5-150.3 5.5-8.4 16.5-1.5 14.6 7.2z"  fill="#005bbb" /><path d="M518.3-149.1c-22.9 55.5-20.9 118.5-29.4 177.1-1.3 8.6-1.5 54.5-14.5 52.4-9.2-1.5-6.1-16 3-13.4 9 2.5 4.3 16.5-4.4 13-12.8-5.1 4.1-69.4 5.7-81.3 5.4-40 3.1-122.8 25-155.3 5.7-8.4 16.7-1.3 14.6 7.5z"  fill="#fff" /><path d=""  fill="#fff" /><path d="M542.7-57.2c-1.8 16.4-19.6 144-38.9 137.9-9.9-3.1-4.2-18.5 5.4-14.3 9.5 4.2 2.1 18.8-6.9 13.7-11.7-6.7 7.5-47.9 10.5-57.9 4.4-15 12.6-77.1 17.3-84.1 4.3-6.3 12.5-2 12.6 4.7z"  fill="#fff500" /><path d="M556.1-320c-31.5 91.8-91.4 166.9-97.7 267.4-1.2 19.3 4.8 121.7-1.3 130-5.8 8-16.7-4.3-8-9.1 10.1-5.6 12.6 14.3 1.4 11.4-10.9-2.8-5.2-47.1-5.3-56.3-1.4-123.1 12.8-183.4 68.7-293.4 9.2-18.1 16.3-41.2 27.7-57.7 5.8-8.3 16.7-1 14.5 7.7z"  fill="#c2e1ff" /><path d="M568.7-317.2c-30.3 95.7-88.7 131.9-99.7 255.3-1.8 20.7 0.9 130.5-6.2 139.5-6.2 8-17-5-7.9-9.6 10.6-5.4 12.5 15.1 1.1 11.8-11.7-3.4-3.3-60.9-3-71.6 3.2-118 19.8-182.3 77.7-285.6 8.4-14.9 14.1-33.3 23.6-47.2 5.6-8.3 16.5-1.2 14.4 7.4z"  fill="#fff" /><path d="M581.4 60.7c-1.7 5-10.9 32.7-20.3 16.6-4-7 4-15.2 11.1-11.2 7.1 3.9 4.4 15-3.7 15.3-14.9 0.5-5.4-22.2-1.6-27.9 5.5-8.3 16.4-1.4 14.5 7.2z"  fill="#fff" /><path d="M593-46.5c-1.5 22.7-11.5 115-29.9 126.8-11 7-18.5-13.2-5.6-15 12.9-1.8 11.2 19.8-1.2 16-15.1-4.6 7-44.1 9.9-53.3 5.2-16.1 9.6-70.7 14.4-78.5 3.9-6.3 12.1-2.4 12.4 4z"  fill="#fff500" /><path d="M606.1 62.3c-1.3 5.2-8.2 29.5-17.7 15.3-13.6-20.3 32-7.3 9.8 2.8-15.5 7-9.4-18.5-6.4-23.9 4.6-8.3 15.5-2.5 14.3 5.8z"  fill="#fff" /><path d="M605.8 75.4c-5.3 11.6-20.8 1.8-13.4-7 11-13 20.9 16.2 4.3 12.6-19.2-4.1 9.2-30.2 9.9-8.2z"  fill="#005bbb" /><path d=""  fill="#fff500" /><path d=""  fill="#005bbb" /><path d=""  fill="#005bbb" /><path d="M606.6-162.3c-49.4 56.3-36.1 137.8-59.3 205.1-2.7 7.9-8.9 43.6-22.3 38.4-10.2-4-3.1-19.6 6.6-14.6 9.7 5 0.9 19.8-8.2 13.8-12.1-8.1 18.1-70.9 21.4-84 13.3-53.6 6.9-111 37.8-159.4 13.8-21.6 34.2-16.2 24 0.7z"  fill="#c2e1ff" /><path d="M606.6-132.2c-23.3 41.1-24.4 194.4-52.8 212.7-10.9 7.1-18.5-13.2-5.6-15 12.9-1.8 11.2 19.7-1.2 16-15.3-4.6 13.6-62.9 16.5-74.1 12.6-48 4.5-102 27.1-147.3 5.2-10.5 19.5-2.8 16 7.7z"  fill="#c2e1ff" /><path d=""  fill="#c2e1ff" /></svg>