<svg width="1200" height="675" viewBox="-500 -500 1200 675" xmlns="http://www.w3.org/2000/svg"><path d="M-500-500h1200v675h-1200z" fill="#000"/><path d=""  fill="#c2e1ff" /><path d=""  fill="#fff" /><path d=""  fill="#fff500" /><path d=""  fill="#c2e1ff" /><path d=""  fill="#005bbb" /><path d=""  fill="#fff" /><path d="M-380.4-397.4c-1.5 14.1 3.4 96-21 90.1-15.1-3.6-8.1-27.1 6.6-21.8 14.6 5.3 5.1 27.8-8.9 21-9.7-4.8 1.4-92 3.8-95.8 6.2-9.9 19-3.6 19.5 6.5z"  fill="#fff" /><path d="M-357.9-396.6c-3.7 23.3-17.9 142.5-37.7 147.2-20 4.7-20.5-29.4-0.3-25.3 17.2 3.5 10.2 30.4-6.6 25-21.9-7.1 7.3-60.9 10.6-74.7 5.7-24.3 3.6-55.2 12.8-77.9 5.1-12.6 21.5-6.3 21.2 5.7z"  fill="#fff" /><path d="M-331.6-396.3c-3.8 25.8-39.7 226-71.1 215.1-15.6-5.4-5.7-29.6 9.2-22.5 14.9 7.1 2.5 30-11.6 21.4-18.8-11.6 14.9-74.4 20.3-89.6 6.4-18.3 31.6-130.4 33.2-132.7 7.3-9.9 20.3-2.3 20 8.3z"  fill="#fff" /><path d="M-315.1-397.1c-9.1 87.8-60.5 192.8-58.7 267.8 0.5 23.7 20.2 171.1-25.4 159.8-18.8-4.6-9.9-33.8 8.4-27.2 18.2 6.7 6.1 34.7-11.2 26.2-20.4-10.1 9.9-50.8 12.7-65.4 9.9-51.9-9.9-104.3-0.4-157 8.2-45.3 26.7-88.2 38.3-132.6 6.4-24.3 6.4-53.8 15.4-76.9 4.8-12.4 21-6.5 20.9 5.3z"  fill="#fff500" /><path d="M-291.1 40.5c-6.8 14-38.4 68.4-58.7 43.6-14.6-17.7 14.6-39.2 27.2-20 12.6 19.2-18.8 37.4-29.2 16.9-7.4-14.5 41.5-71.9 57.4-59.2 6.1 4.9 6.3 12.2 3.3 18.7z"  fill="#fff500" /><path d="M-273.1-26.9c-0.4 24.6-35.3 136.8-71.2 114.6-19.5-12.1 1.2-41.7 19.2-27.6 18.1 14.1-5.7 41.3-22.1 25.3-17.6-17.1 31.2-55 40-72.1 6.6-12.9 6.4-39.8 16.5-49.1 7.6-7 17.5-0.1 17.6 8.9z"  fill="#c2e1ff" /><path d="M-253.4-355c-2.9 58.3-22.4 114.5-24.4 172.9-2.8 84.7 42.9 168.6-8.9 247.3-6.3 9.5-15.1 26.2-28.8 24.1-29.8-4.5-3.3-49.7 15.2-26 15.8 20.3-22.7 38.7-28.5 13.6-1.9-8.1 40.4-61 45.8-89 12.7-65.2-18-130.6-14-196.5 1.4-22.5 15.1-139.1 24.2-153.1 6.3-9.8 19-3.4 19.4 6.7z"  fill="#fff" /><path d="M-233.6-261.8c-6.1 49.8-7.3 98.7 5 147.6 7.3 28.9 58.4 175.5 46.8 192.6-8.5 12.4-25.5-5.8-12.7-13.4 12.9-7.7 20.8 16 5.9 17.5-13.4 1.4-12.5-53.8-29-109.3-18-60.8-59.1-178.4-36.8-239.9 4.5-12.4 20.7-6.8 20.8 4.9z"  fill="#fff" /><path d="M-213.9 52.4c-0.4 7.5-7.2 50.7-24 28.3-7-9.3 3-22.3 13.8-18 12.7 5.1 7.1 24.8-6.4 22.5-34.7-5.9 17-73.5 16.6-32.8z"  fill="#005bbb" /><path d="M-194.6-266.4c-4.4 62.1 1 120.3 28.6 176.8 25.8 52.9 69.1 102.2 77.1 162.2 2.2 16.2-25.7 9.2-15.9-4.1 9.7-13.3 24.9 11 8.7 13.9-12.7 2.3-19-51-24-63.4-44.3-110.2-107.6-150.6-95.1-286.6 1.2-13.6 19.7-11.9 20.6 1.2z"  fill="#c2e1ff" /><path d="M-167-399.6c18.6 91.4-21.5 174.2 15.2 269.7 7.8 20.3 65.3 121.3 62 132-3.3 10.5-19.1 1.5-11.8-6.7 8.6-9.6 18.5 10.5 5.7 11.5-11.8 0.9-26.1-50.3-31-59.9-25.6-49.2-52.6-96.4-59.9-152.4-2.4-18.5-0.5-186 3.2-196 3.3-8.9 14.6-6.1 16.6 1.8z"  fill="#c2e1ff" /><path d="M-160.1-108.7c9.4 21.1 108.1 178.6 74.7 191-11.7 4.3-17.5-14.5-5.4-17.5 12.1-3.1 15.9 16.3 3.5 18-16.1 2.2-13.6-36.9-15.6-45.3-12.5-50.9-61.9-110.8-68.6-142.2-1.5-7.3 7.8-9.5 11.4-4z"  fill="#005bbb" /><path d="M-126.5-398.6c6.2 86.4-23.2 167.2 3.4 253 6 19.4 49.8 116.8 45.5 127.7-5.2 13.1-22.9-3.7-10.2-9.6 10.9-5.1 15.2 14.4 3.2 14.4-12.8 0-19-43.8-22.7-53.5-19.6-51.6-43-100.9-47.8-156.7-5-57.5 8.4-113.7 9.4-171 0.2-13.3 17-19.9 19.2-4.3z"  fill="#fff" /><path d="M-115.4-321.6c-7.5 57.4-11.4 113.4 3.6 170 19.2 72.3 60.5 148.1 53.9 225.2-1.6 19.1-29.8 5.4-17.2-7.3 13.2-13.3 26.2 16.6 7.5 17.1-14.8 0.5-13.2-73.9-18.6-100.5-24.9-123.9-68-163.6-51.3-303.4 1.8-15.4 22.1-18.3 22.1-1.1z"  fill="#fff" /><path d="M-96.3-398.1c-1 103.3-27.7 167.2 2.3 273.7 4.7 16.8 47.9 145.7 25.4 147.2-10.2 0.7-12.9-14.4-3.1-17.3 11.5-3.4 15.8 15.1 4 17.2-16.6 2.9-14.6-39.8-16.2-48.9-13.2-72.5-44.9-140.3-46.4-215-0.4-20.4 8.3-150.7 15.1-162.4 5.6-9.7 18.1-4.2 18.9 5.5z"  fill="#c2e1ff" /><path d="M-76.4-286.2c-6 66.5 1.1 129.8 11.4 195.4 3.8 24.3 22.9 157.8 11.3 171.3-10.8 12.5-27.2-9.4-12.2-16.3 15-6.8 20.7 19.9 4.3 19.9-15.9-0.1-10.1-78.1-12.7-108.4-7.6-87.6-33.1-174.9-23-263.5 1.6-13.8 20.3-11.6 20.9 1.6z"  fill="#fff500" /><path d="M-58.2 20.2c1.3 11.1 13.4 65.6-7.9 63.5-13.8-1.3-10.6-23 3-20.1 13.6 2.8 8 24-5.1 19.7-10.6-3.4-9.4-67.2-3-70.4 6.1-3 11.7 1.4 13 7.3z"  fill="#fff" /><path d="M-37-68.1c-4.3 47.2-2.1 95.4-7.6 142.3-0.7 6-6.1 10.5-12.2 9.5-14.3-2.2-9.7-24.6 4.3-20.8 14 3.7 7 25.5-6.6 20.3-14.3-5.5-4.4-40.4-4-51.3 1.1-31.5-4.5-74.4 5.6-104.3 4.1-12.2 20.1-7.2 20.5 4.3z"  fill="#c2e1ff" /><path d=""  fill="#005bbb" /><path d="M3.3-151.1c-8 38-22.2 74.3-30.2 112.3-7.9 37.7-8.2 75.7-13.5 113.5-0.9 6.1-6.5 10.5-12.7 9.5-14.6-2.6-9.3-25.3 4.9-21.2 14.2 4.1 6.5 26.1-7.2 20.5-15.6-6.4-2.4-55.9-1.3-68.7 3.8-44.7 17.6-135.6 38-174.3 6.8-12.8 23.5-4.4 22 8.4z"  fill="#c2e1ff" /><path d="M17-318.6c23.6 51.2 53.2 100.6 38.4 159.1-12.9 50.9-51 90.8-69.1 139.7-6.4 17.3-16.1 94.1-23.3 101.1-12.8 12.3-28.2-12.9-11.4-18.7 16.8-5.8 20.1 23.5 2.5 21.7-17.6-1.8-7-31.4-5.8-40.6 18.2-131.5 63.2-137.9 87.1-221.7 20.2-71-30.9-112.9-30-138.2 0.2-6.7 8.4-7.3 11.6-2.4z"  fill="#fff" /><path d=""  fill="#fff500" /><path d=""  fill="#fff500" /><path d="M124.1-400.1c114.1 88.8 86.4 170.2 32.5 286.1-7.6 16.4-26.8 71.5-49.4 70.1-28.6-1.7-7.4-46.9 12.2-25.9 16.7 17.9-18.2 38.6-25.9 15.3-5.5-16.8 26.2-47.7 33.7-61.9 22-41.7 44.9-88.8 55-135.1 7.3-33.1 3-66.5-14.7-95.6-6-9.9-58.4-62.4-43.4-53z"  fill="#005bbb" /><path d=""  fill="#c2e1ff" /><path d=""  fill="#c2e1ff" /><path d=""  fill="#fff500" /><path d="M160.3-197.9c-15.2 135.2-105.5 149-151.8 233.4-6 10.9-13.6 56.7-32.9 49.7-15.7-5.8-5.3-30.1 9.7-22.6 15 7.4 2 30.5-12.1 21.4-19.3-12.3 15-71 23.2-84.4 27.5-44.7 74.9-71.3 104.1-114.6 15.9-23.5 33.7-84.4 39.8-92 7.8-9.8 20.7-1.6 20 9.1z"  fill="#fff" /><path d="M180.4-54.1c-8.8 32.2-17.1 66.3-19.4 99.7-0.5 7.1 6.7 38.9-9.2 35.8-10.9-2.1-6.6-19.1 4-15.8 10.6 3.3 4.5 19.7-5.7 15.3-14.5-6.3-2.7-131.8 9.8-145.8 8.8-9.9 21.9-0.5 20.5 10.8z"  fill="#c2e1ff" /><path d=""  fill="#c2e1ff" /><path d="M234.4-400.1c8.7 39 8.2 81.1 0.2 120.2-13.1 63.7-49 122.9-76.4 181.3-7.7 16.3-33 85.3-58.5 74.5-16.6-7.1-8.8-32.9 9-29.6 20.8 3.9 12.9 36.3-7.4 30.1-8.4-2.5-13.1-11.9-10.1-20.2 6.8-18.8 26.7-36.7 36.4-54.9 25.1-47.2 48.7-97.2 69.7-146.4 14.5-33.9 22.8-69.5 23.4-106.3 0.2-14.2-6.9-36.8-2.5-49.9 2.9-8.8 13.9-6.4 16.2 1.2z"  fill="#005bbb" /><path d="M240.1-98.4c-19.7 38.5-14.2 84.8 0.8 123.8 2.7 7.1 30.9 52.4 16.5 53.7-9.3 0.9-7.3-14.5 1.4-11.3 7.5 2.7 2.7 14.3-4.5 10.8-6.7-3.2-10.3-17.6-13.4-23.6-25-49.1-45.4-107.9-25.3-162.6 6-16.3 28.4-6.7 24.5 9.2z"  fill="#c2e1ff" /><path d="M258.7-337.8c-10.5 67.8-93.4 246-132.6 304-15.7 23.2-35.3 42.8-54.5 63.1-9.6 10.1-24.6 39.7-39.3 40.4-22.9 1.1-16.5-36.4 4.7-27.8 18.2 7.4 5 35.4-12.2 26.1-31.9-17.2 74.5-107.3 102.7-160.2 30-56.4 60.4-116 85.4-174.8 7.2-16.9 17.9-70.3 25.7-80.1 7.8-9.8 20.8-1.6 20.1 9.3z"  fill="#005bbb" /><path d="M279.6-117.9c-33 35.7-32.6 83.3-16.5 126.7 3.2 8.6 38.4 70.4 23 71.1-10 0.4-7.1-15.9 2.1-12.1 9.2 3.8-0.2 17.4-7 10.1-6.8-7.4-10.5-22.3-14.9-31.4-27.6-56.6-53.9-125.4-11.5-182.6 12.1-16.4 34.3 1.5 24.8 18.2z"  fill="#fff500" /><path d="M293.6-13.3c3.4 12.4 43.8 89.1 30.2 93.1-9.1 2.7-12.6-11.9-3.2-13.5 9.3-1.7 11.2 13.2 1.7 13.8-11.5 0.8-17.7-32.8-21.1-40.4-5.6-12.7-23.5-37.7-21.4-51.8 1.2-7.8 10.8-7.4 13.8-1.2z"  fill="#c2e1ff" /><path d="M318.7-349.5c-27.4 72.6-85.3 130.8-122.9 197.9-20.6 36.8-83 190.6-119.1 200.7-23.4 6.5-25.6-33.8-1.7-29.9 24 3.9 9.1 41.4-11 27.8-21.9-14.8 43.5-82 54.2-100.4 24.9-42.6 39.9-90 64.6-132.7 34.6-59.8 77.7-114 111.6-174.4 8.5-15.2 29.3-5.3 24.3 11z"  fill="#fff" /><path d="M337.3-149.7c-38.5 30.9-72.5 65.6-64.7 119 3 20.5 41.8 97.6 39.5 105.8-3.3 11.9-20.5-1.1-9.9-7.5 10.6-6.4 14.1 14.9 2 12.2-10-2.2-16.6-32.4-20.5-40.7-30.7-65.2-49.9-131.2 4.6-190.3 8.4-9.1 21.4-26 34.3-28.7 18.7-4 26 18.1 14.7 30.2z"  fill="#005bbb" /><path d="M353.2-18.1c3.7 16.4 31.7 84.6 26.2 95.3-6.1 11.9-23.2-2.3-12.6-10.5 10.5-8.2 20.1 11.8 7 14.8-3.6 0.8-7.5-0.9-9.2-4.1-2.2-4-26.1-88.7-26.3-93.1-0.3-9.3 11.7-9.9 14.9-2.4z"  fill="#fff500" /><path d=""  fill="#fff" /><path d="M397.3-171.1c-31.5 41.5-80.7 76-74.7 134.2 3.4 32.7 20 62.3 30.8 92.9 1.8 5.2 11.6 27.1-3.4 25.2-12.2-1.5-5.4-20.7 5.1-14.2 8.9 5.6-0.6 19.1-8.9 12.7-10.4-8.1-14.2-42.3-19.3-55-29.1-72.3-37.4-119.4 17-182.6 9.8-11.3 20-26.6 32-35.6 15.3-11.4 30.4 8.1 21.4 22.4z"  fill="#fff" /><path d="M417.2-207.1c-29.8 53.1-103.4 92.3-104.2 158.3-0.3 27.8 42 114 37.6 125.2-5.1 13-22.9-3.6-10.3-9.5 12.7-6 14.2 18.3 0.9 13.9-11.1-3.7-18.9-46.8-23.4-57.5-39-92.6-27.4-133.3 40.7-205.1 12.9-13.6 23-31.1 36.4-43.8 12.9-12.2 29.1 4.2 22.3 18.5z"  fill="#fff500" /><path d="M435.1 58c-0.9 16.3-12.5 41.8-22.3 19.5-4.3-9.9 7.5-19.6 16.4-13.3 8.8 6.3 3.7 20.7-7.2 19.8-33.2-2.5 12.2-64.9 13.1-26z"  fill="#fff" /><path d="M454.9-170c-3.6 41.4-10.2 82.4-10 124.1 0.1 22 6.4 114.5-7.6 127.5-13.3 12.2-28.3-13.7-11.1-19.2 17.2-5.5 19.9 24.4 2 22.1-5-0.6-9.1-4.6-9.8-9.7-3.1-20.9 7.8-56.3 7.8-79.9 0.2-46.8-7.3-126.1 8-169.4 4.3-12.3 20.4-7 20.7 4.5z"  fill="#fff" /><path d="M473.3-55.4c1.7 22.5-3.1 141.7-27.9 141-16.8-0.5-14.6-27 2-24.7 16.7 2.3 11.6 28.4-4.7 24.3-21.1-5.3 1.5-49.6 4.2-61.1 4.5-19.2 3.2-71.8 8.5-83.1 4.4-9.4 16.5-5.3 17.9 3.6z"  fill="#c2e1ff" /><path d="M490-142.4c23.1 66.9 55 120.2 20 190-5.4 10.8-13.6 34.4-25.8 39.3-18.1 7.4-28.1-21.7-9.3-27.1 21.9-6.3 24.2 31.5 1.7 28-32.4-5.1 26.9-78.6 30.8-112.3 5.9-52-25.8-75.8-30.6-114.7-1-8.3 9.7-9.8 13.2-3.2z"  fill="#fff500" /><path d="M510-267.4c7.5 34.6 34.4 58 62.5 76.8 4.2 2.8 27.9 14.5 27.7 19.5-0.1 3.1-5 1.8-3.7-1 1.4-2.7 5.3 0.5 2.9 2.4-3.6 2.9-27.5-17.7-31.4-20.3-29.2-19.2-57.1-39.4-71.4-72.6-3.7-8.6 9.3-12.8 13.4-4.8z"  fill="#c2e1ff" /><path d="M525.4-396.9c-7 51-25.3 109.4 6.9 155.6 17.6 25.3 56 40.3 67.6 56.8 2.1 2.9-4 4.4-3.5 0.9 0.6-4.2 6.5 0.7 2.6 2.1-5.7 2-32.6-22-38.1-25.8-71.3-49.9-71.9-100.9-59.3-180.8 3.5-22.4 24.4-32.1 23.8-8.8z"  fill="#fff500" /><path d="M550.6-314.8c4.4 42.7 49.5 77.7 50.8 85.9 0.9 5.4-8.3 3.4-5.3-1.2 2.6-3.9 7.9 1.7 3.9 4.1-4.2 2.5-66.2-52.5-65.5-87.1 0.2-10 13.1-10 16.1-1.7z"  fill="#fff" /><path d="M564.2-238.1c4 4.1 38.4 30.2 35.8 33.1-2 2.3-5.5-1.1-3.2-3.1 1.9-1.8 4.9 0.8 3.3 3-2.4 3.4-7.8-3.2-11-5.8-8.7-6.9-23-14.4-29.2-23.5-2-2.9 1.7-5.5 4.3-3.7z"  fill="#fff" /><path d="M591.6-17.9c3.1 23.1-23.5 121.7-56.4 106-19.5-9.3-3.2-39.3 15.2-27.9 18.4 11.4-1.1 39.4-18.2 26.1-20.6-16.1 23.9-53.9 30.9-68.9 5.3-11.5 3.7-32.9 11.7-41.8 6.3-7.1 15.9-1.6 16.8 6.5z"  fill="#c2e1ff" /><path d=""  fill="#fff" /><path d=""  fill="#fff" /><path d=""  fill="#005bbb" /><path d=""  fill="#005bbb" /><path d=""  fill="#fff500" /></svg>