<svg width="1200" height="675" viewBox="-500 -500 1200 675" xmlns="http://www.w3.org/2000/svg"><path d="M-500-500h1200v675h-1200z" fill="#000"/><path d=""  fill="#fff" /><path d=""  fill="#fff" /><path d=""  fill="#c2e1ff" /><path d=""  fill="#c2e1ff" /><path d=""  fill="#005bbb" /><path d=""  fill="#005bbb" /><path d=""  fill="#fff500" /><path d="M-378.5-298.2c-2 8.7-10.3 51.9-27.4 36.2-9-8.3 1.9-23 12.5-16.8 12.3 7.2-0.1 26-11.6 17.5-10.7-7.9 4.2-51.9 18.6-49.4 6.3 1 8.8 6.8 7.9 12.5z"  fill="#005bbb" /><path d="M-362-112c-5.4 11.5-25.2 64.1-44 49.3-13.1-10.3 4.3-30 16.1-18.4 11.9 11.6-7.5 29.4-18 16.5-6.9-8.4 22.3-56.4 29.4-61.5 10-7.2 20.1 4.1 16.5 14.1z"  fill="#fff" /><path d="M-346.1-118.5c-6.2 14-38.8 96.6-60.3 79.2-13-10.5 4.7-30.1 16.5-18.2 11.8 11.9-7.9 29.4-18.4 16.3-9.4-11.7 9.6-28.5 15.5-37.3 9.4-14.2 17.1-43.1 30.1-53.1 9.5-7.4 19.8 3.2 16.6 13.1z"  fill="#fff" /><path d="M-330.3-262.2c-18.8 19.5-34.7 41.3-46.5 65.7-4.2 8.8-8.5 32.3-19.5 34.9-16.3 3.8-16.6-24-0.3-20.5 16.4 3.4 5 28.7-8.4 18.7-20.9-15.5 41.9-107.8 57.7-118.4 13.2-9 25.2 8 17 19.6z"  fill="#005bbb" /><path d="M-305.8-398.4c4.5 55.9-27.3 97.8-56 142.2-6.8 10.6-25.4 62.8-41.3 55.3-13.1-6.2-2.3-26.2 10.1-18.7 12.3 7.5-0.6 26.3-12 17.5-22.8-17.6 63-125.3 72.3-146.4 7.3-16.4 4.5-38.9 12.1-53.5 4-7.7 13.9-3.9 14.8 3.6z"  fill="#fff" /><path d="M-297.1-398.1c0.5 58.5-34 99.5-64.4 145.9-7 10.6-25.6 63.2-41.5 55.8-13.1-6.1-2.4-26.1 10-18.6 12.3 7.4-0.5 26.2-11.9 17.4-24.5-18.7 67.9-130.6 78.1-151.8 7.7-16 6-39.3 14.4-53.4 4.7-7.9 14.9-3.2 15.3 4.7z"  fill="#005bbb" /><path d="M-282.5-371.1c-12.7 54.6-56.4 91.4-84.9 137.4-5.9 9.5-22.2 61.9-38.5 46.7-9-8.3 2-23 12.5-16.8 12.3 7.3-0.2 26.1-11.6 17.5-16.8-12.5 22.5-68.4 30.3-80.2 16.3-24.4 36.3-46 52.8-70.2 7.6-11.2 13.7-39.1 24.7-45.8 8.3-5.1 16.2 3.1 14.7 11.4z"  fill="#c2e1ff" /><path d="M-267.7-244.9c-85.3 57.3-70.3 92.8-120.9 164.8-3.9 5.6-11.6 7.2-17.1 3-13.1-9.7 3.3-29.6 15.2-18.5 12 11.1-6.5 29.1-17.2 16.8-2.6-3-3.6-7.1-2.5-11 2-7.6 55.1-106 62-116.7 14.8-22.7 40.7-54.2 67-64.2 16.8-6.4 25.4 15.2 13.5 25.8z"  fill="#fff" /><path d="M-253.1-36.1c2.9 30.2 15.3 57.2 30.8 82.8 2.8 4.7 21.8 26.4 12.5 30.8-4.9 2.3-9.1-4.6-4.8-7.9 5-3.8 10.6 4.4 5.2 7.7-13 7.9-55.3-97.9-57.5-111.2-1.5-9.1 11.4-10.7 13.8-2.2z"  fill="#fff500" /><path d="M-238.1-18.7c5.6 25.1 17.9 47.8 30.6 69.9 2.6 4.6 18.3 22.8 8.7 26.8-6.2 2.6-9.7-7.3-3.3-9.2 5.5-1.6 8.8 6.2 3.8 9-9.8 5.4-48.2-81.8-51.6-93.1-2.4-7.8 8.8-10.5 11.8-3.4z"  fill="#c2e1ff" /><path d="M-219.8-82.9c-2.4 41.7 7.5 80.5 26.2 117.5 3.1 6.2 26.9 39.8 15.7 43.9-6.7 2.4-10-8.4-3.1-10.1 7-1.7 9 9.4 2 10.4-9 1.2-16.7-27.7-19.9-33.9-21-40.4-38.4-81.5-37.3-128 0.3-10.8 15.2-10 16.4 0.2z"  fill="#005bbb" /><path d="M-203.4-97.3c-4.6 36-0.5 72.7 12.7 106.4 5.4 13.9 33.3 51.8 29.7 65.4-2.5 9.6-16.4-0.7-7.9-5.9 7.2-4.5 11.9 8.8 3.4 9.9-9.2 1.1-19.5-33.8-22.9-40.7-21.6-42.6-36.7-87.9-32.2-136.5 1.1-11.4 16.7-9.5 17.2 1.4z"  fill="#005bbb" /><path d="M-186.2-281.1c-42 60.6-103.4 74.6-136.3 150.6-8.7 20.2-62.1 143.2-74.5 145.1-17.2 2.8-15.6-26.1 1.2-21.4 16.8 4.7 3.1 30.2-10.1 18.9-14.7-12.5 21.5-60.3 28.1-72.6 55.4-103.2 40.4-126.2 139.9-206.2 11.5-9.2 23.8-28.1 36.9-33.8 12.8-5.5 21.1 9.3 14.8 19.4z"  fill="#fff" /><path d=""  fill="#c2e1ff" /><path d="M-159.7 30.8c3.2 6.7 28.4 43.5 17.6 47.6-6.6 2.5-10-8.2-3.1-9.9 6.9-1.7 9 9.2 2 10.2-7.3 1-25.7-39.3-25.6-45.8 0.1-5.3 6.6-5.9 9.1-2.1z"  fill="#005bbb" /><path d="M-138.7-305.7c-16.3 96.3-100.5 129-96.4 246.5 1.1 31.2 9.3 60.3 23.4 88.1 4.9 9.6 25.4 35 23.1 45.5-2 9.2-15.6 0-7.8-5.3 7.8-5.3 11.3 10.7 2 9.2-8.3-1.4-28.7-49.6-37-67.7-22.4-48.6-25.6-105.5-11.6-157.1 12.1-44.4 41.6-77.8 64.8-116.4 8.8-14.6 12.4-39.4 23.1-51.4 7-7.9 17.5-0.5 16.4 8.6z"  fill="#c2e1ff" /><path d="M-127.7 10.8c3.8 8.5 41.5 63.2 37 66-4.5 2.7-8.4-4.5-3.7-6.7 4.7-2.2 7.9 5.4 2.9 7.1-6.7 2.3-14-15.1-16.7-19-8.9-12.4-24.9-29.1-28.5-44.1-1.4-5.7 6.1-7.7 9-3.3z"  fill="#fff" /><path d="M-112.1 67.8c9.2 15.5-12.1 8.2-4.7 2.2 7.7-6.2 10.1 11.6 1 7.7-9.2-4-1.9-17.4 3.7-9.9z"  fill="#fff" /><path d="M-90.2-204.1c-22.7 62.8-63.7 120.9-44.8 190.9 5.8 21.4 16.5 40.8 29 59 4.2 6.2 19.4 20.4 19.1 27.9-0.2 7-11.5 2.1-6.4-2.8 5-4.9 9.8 6.4 2.7 6.5-8.3 0.2-24.9-31.8-29.4-38.4-46.9-68.6-40.5-138.2-7.6-211.2 5.9-13.1 10.6-30.3 19-41.9 7.5-10.5 21.3-1 18.4 10z"  fill="#fff" /><path d=""  fill="#c2e1ff" /><path d=""  fill="#fff" /><path d="M-46.3-29.9c6.6 32.1 31 56.1 53.2 78.4 3.1 3.2 27.7 22.9 21.4 27.7-3.5 2.6-7.3-3.1-3.6-5.3 3.8-2.2 7 3.9 3 5.6-5.8 2.6-17.3-16.6-20.4-19.8-19.9-21.1-62.8-52.6-65.3-84.2-0.6-7.3 8.9-8.2 11.7-2.4z"  fill="#c2e1ff" /><path d="M-26.2-90.7c-17.1 39-7.9 77.2 18.2 109.6 9.1 11.3 47.3 40.4 47.5 54.3 0.1 5.5-8.8 3.7-6.6-1.4 2.6-5.9 10.4 2.1 4.5 4.6-6.2 2.6-31.9-33.7-36.8-39-27.9-29.8-54-62.3-51.8-105.4 2.3-43.6 29.7-44.9 25-22.7z"  fill="#c2e1ff" /><path d="M-10.9-282.2c-12.2 84.8-98.1 165.2-90 244.7 7 68.6 56.1 78.9 71.4 109.8 2.5 5.1-7.8 4.3-4.5-0.4 3.3-4.6 7.4 4.9 1.8 4.1-5.8-0.8-14.5-13.7-18.7-17.6-40.1-38.5-73.5-81.3-65.1-140.2 7.3-51.8 41.7-93.7 64-139.4 8.3-17 15.2-56.7 24.8-68.6 6.4-8 16.9-1.2 16.3 7.6z"  fill="#fff" /><path d="M1.2-23.1c8.3 29.1 30 52.3 47.7 75.9 2.8 3.8 19.9 19.8 12.1 24.4-4.7 2.8-8.6-4.9-3.7-7.2 5-2.2 8.1 5.8 2.9 7.5-1.6 0.5-59.6-74.7-69.4-96.4-3-6.7 7-10.2 10.4-4.2z"  fill="#c2e1ff" /><path d="M22-164.4c-27.8 41.9-66.8 91.3-48.3 144.6 7.7 22.3 69.3 85.9 69.3 93.3 0 6.6-10.6 2.4-6.1-2.4 4.5-4.8 9.3 5.6 2.7 6-7.1 0.4-23.2-26.4-28-31.8-48.2-53.2-76.6-103.5-40.2-173.1 8.5-16.2 18.9-39.5 32.5-52 10.8-10 24 3.8 18.1 15.4z"  fill="#c2e1ff" /><path d="M38.1-142.3c-23 39.8-46.9 83.3-28 129.7 11 26.9 31.3 49 47.8 72.5 1.5 2.1 14 15.6 4.9 17.3-5.5 1.1-6.7-7.6-1.1-8.1 6.5-0.5 5 10.2-1.1 7.9-8.7-3.2-20.4-29-26.1-36.9-44.5-60.1-63.7-100.9-27.9-172.5 3.8-7.6 8.5-23.4 17.6-26.5 10.7-3.7 17.6 7.5 13.9 16.6z"  fill="#fff500" /><path d="M54-155.6c-23.6 43.8-53.3 91.7-33.5 142.7 9.7 25 27.1 46.2 41.9 68.2 1.6 2.4 17.7 20.5 7.3 22.3-5.7 1-6.7-8.1-0.9-8.5 5.8-0.3 5.8 8.8 0 8.5-8.4-0.4-24.3-34.8-29.2-41.9-37-53.5-53.8-100-25.7-162.3 5.9-13 12-31.3 21.6-42 9.3-10.3 23 1.5 18.5 13z"  fill="#c2e1ff" /><path d="M69.9-159.6c-20.2 44.8-46.8 93.9-30.4 144.1 8.3 25.4 24 47.9 37.5 70.7 1.5 2.6 16.2 21.1 5.6 22.5-7.1 0.9-6.1-11 0.8-8.8 6.9 2.2 0.9 12.5-4.4 7.6-9.7-8.8-16.1-28.1-22.9-39.5-33.4-55.8-47.9-101.6-23.5-164.6 5.2-13.3 9.9-31.8 18.8-43.1 8.2-10.5 22-0.2 18.5 11.1z"  fill="#fff500" /><path d=""  fill="#005bbb" /><path d=""  fill="#005bbb" /><path d="M117.8-281.6c-40.9 46.9-139.7 176.6-136.2 237.9 2.5 42.8 70.8 107 70.5 117.3-0.2 8.2-12.8 0.2-5.4-3.4 6.3-3.1 7.2 9 0.5 6.9-8.5-2.6-20.7-26.5-26.7-33.6-36-42.8-67.7-85.1-48.4-143.6 13.2-39.9 95.8-177.1 128.4-200.4 12.8-9.2 25 7.3 17.3 18.9z"  fill="#005bbb" /><path d="M128.8-25.1c4.7 11.3 48.8 99.4 42.1 102.8-5.4 2.7-9.2-6.1-3.5-8.2 4.8-1.8 8.3 5.1 3.9 7.9-7.6 4.8-50.4-87.5-52.4-99.5-1.1-6.3 7.1-7.8 9.9-3z"  fill="#c2e1ff" /><path d="M142.7-395.5c-4.7 17.9-12.6 35-22.3 50.8-17.7 28.9-41 54-60.7 81.5-28.6 40-54.3 82.5-81.3 123.7-6.5 9.9-23.7 56-39.3 48.6-13-6.2-2.2-26.2 10.1-18.7 12.3 7.6-0.7 26.3-12.1 17.5-13.7-10.6 11.2-43.8 16.9-53.3 30.1-49.9 62.6-100.4 96.8-147.5 17-23.3 36.5-44.9 52.4-69.1 8.7-13.3 13.1-29 21.3-42.1 6.6-10.5 20.3-2.2 18.2 8.6z"  fill="#fff" /><path d="M156-395.4c-15 58.9-62.3 99-96.6 146.6-22.3 30.9-42.2 63.6-63.6 95.2-12.4 18.4-25.1 36.8-34.4 56.9-4.4 9.5-5.5 28.4-12.6 35.7-2.7 2.8-7.1 3.4-10.5 1.6-12.2-6.7 3-24.1 11.3-12.9 8.3 11.2-12.8 20.6-15.7 6.9-9-43.6 40.9-100 63-132.9 35.4-53 74-101.5 112-152.4 10.9-14.5 19.8-44.6 30.5-55 7.9-7.8 18.4 0.9 16.6 10.3z"  fill="#fff500" /><path d="M179.6-231.6c-1.8 65.9 66.2 95 102 139.6 31.3 38.9 40 86.2 47.7 134.2 1.1 7.1 11 32.4 2.3 37.1-9 4.9-13.7-11.4-3.5-12.1 11.9-0.7 5.5 19-3.7 11.3-9.1-7.6-20.3-104.1-27.6-124.5-24.1-67.6-84.9-87.6-118.5-143.9-25.9-43.6-3.1-62.6 1.3-41.7z"  fill="#fff" /><path d="M192 26.8c3.5 6.3 30.9 46.4 24.5 50.2-4.5 2.7-8.4-4.7-3.6-6.8 4.8-2.2 7.9 5.5 2.8 7.2-7.3 2.4-32.1-41.3-32.2-48.3-0.1-5 5.9-5.8 8.5-2.3z"  fill="#fff500" /><path d="M206.6-397.9c-5.1 73.7-55.4 164.8-33.3 216.4 17.4 40.5 59 60.3 89.3 89.4 4.2 4-6.2 6.8-4.4 1.1 1.7-5.6 8.8 2.3 3 3.4-7 1.3-47.3-39.3-54.9-45.4-30.4-24.4-55-54.8-56.2-95.5-1.1-40.5 19.8-77.2 30-115.5 4.3-16.2 2.1-45.7 10.7-59.2 5.1-8 15.5-2.8 15.8 5.3z"  fill="#fff500" /><path d="M226.2-256.6c9.4 53 50.7 91.3 75.2 137.3 26.4 49.6 32 103.6 37.6 158.5 0.8 7.9 9.8 35.5 0.6 40.1-8.2 4-13.8-9.3-5.2-12.4 8.6-3.1 12.7 10.7 3.8 12.9-12.4 3-11.9-26.1-12.7-32.2-5.4-39.8-6.5-80-17-119.1-15.8-58.8-57.1-99.5-83.3-152.5-22.8-46-2.2-40.9 1-32.6z"  fill="#c2e1ff" /><path d="M247.3-399.7c9.8 61.7 50.6 105.1 73.7 160.9 22.2 53.8 22.8 117.6 25.6 175 0.5 10.3 8.7 53.1-3.8 56.9-14 4.2-11.8-21 1.3-14.5 11.1 5.6-1.9 21.6-9.7 11.9-4.5-5.7-8.7-146.3-13.6-180.5-9.5-65.6-52.2-110.6-75.5-170.5-21.9-56.3-0.7-46.9 2-39.2z"  fill="#fff500" /><path d="M254.8-177.1c51.1 68.2 72.8 116.8 81.6 202.3 1.2 11.7 10.4 40.8 5.3 51-4.7 9.5-18.5-1.6-10.2-8.2 8.3-6.6 16.1 9.2 5.8 11.7-12.5 3.1-12.1-26.6-13-32.7-5.2-37.6-6.6-75.5-16.6-112.3-7.6-27.9-19.9-53.8-36.3-77.7-4.7-6.8-23.5-24.2-22.9-32.3 0.3-3.5 4.2-4 6.3-1.8z"  fill="#fff500" /><path d="M270.4-129c45.2 49.5 55.4 109.5 64.2 173.5 1.1 7.8 7.3 24.4 3.8 31.6-4.5 9.4-18.2-1.3-10.1-7.9 8.1-6.7 16 8.8 5.8 11.4-13.7 3.6-23.5-104.8-26.9-118.9-5.2-21.4-13-42.1-24.3-61.1-3.2-5.3-19.6-21.5-17.9-27.4 0.7-2.6 3.7-2.8 5.4-1.2z"  fill="#fff" /><path d="M288.6-249.1c38.3 79.3 52.1 167.3 56.2 254.6 0.5 11.3 7.6 65 4.1 71.3-5.2 9.7-19-2.2-10.2-8.8 8.8-6.6 16.3 10 5.5 12.3-13.8 2.9-12.1-33.3-12.7-40.2-3.7-42.5-3.7-85-9.3-127.4-5-37.5-13.3-74.7-24.8-110.7-3-9.3-22.5-43.4-17.7-51.6 2.2-3.7 6.9-2.8 8.9 0.5z"  fill="#fff500" /><path d="M304.5-94.1c8.9 17 52 170.8 30.8 173.8-8.9 1.3-10.2-12.9-1.1-13.2 7.7-0.2 9.3 11.2 1.8 13.1-14.8 3.7-21.6-101.9-24.3-115.7-3.7-18.8-13.2-36.6-16.6-55-1.1-6 6.6-7.6 9.4-3z"  fill="#fff500" /><path d="M336.2-400.7c20.8 39.4 62 62 88.6 96.8 43.9 57.5 39.5 134.8 17.5 200.1-4.3 12.9-14.4 61.2-28 65.3-18 5.3-15-27.2 1.7-18.7 16.7 8.5-7.8 30.1-14.1 12.3-4-11.4 20.4-63.9 25.2-78.1 11.8-35 18.3-72.1 14.3-109.1-8.8-78.9-62.8-99.9-106-155.6-3.7-4.8-7.1-22.4 0.8-13z"  fill="#fff500" /><path d="M351.2-400.6c20.5 36.7 58.6 59.4 83.3 92.9 40 54.2 44.4 129.4 30.6 193.3-2.7 12.3-7.9 55.5-21.6 59.8-17.8 5.5-15.2-26.9 1.5-18.6 16.7 8.3-7.4 30-13.9 12.5-5.5-14.9 13.1-49 16.8-64.4 8.6-36.1 10.4-74.1 4.4-110.7-6.6-40.4-24.9-74.5-53.7-103.6-15.9-16-46.7-35.9-54.6-57.5-1.7-4.7 4.3-7 7.2-3.7z"  fill="#fff" /><path d="M356.2-113.7c-1.7 43.8-2.7 87.6-2.6 131.4 0 13.6 7.9 48.1 1.5 59.3-5.6 9.8-19.4-2.8-10.2-9.3 10.7-7.6 16.1 14.6 3.1 12.8-18.9-2.7-13.8-176.2-7.9-196.8 2.8-9.7 15.4-6.4 16.1 2.6z"  fill="#fff" /><path d="M372.1 43c-0.3 7.7 6.2 37.4-6.9 37.8-8.6 0.2-10.3-12.5-1.9-14.7 9.8-2.4 12.8 13.2 2.7 14.6-13.6 1.8-12.7-34.9-9.1-41.5 4.2-7.9 14.3-3.9 15.2 3.8z"  fill="#005bbb" /><path d="M389.3-148.8c-11.6 49.1-21.7 97.7-25.1 148.2-0.9 12.8 2.5 71.3-1.5 77.9-7 11.5-21.1-7.2-8.2-10.8 11.1-3 12.1 16.1 0.8 14.2-14.9-2.5-8.8-57.8-8.5-68.7 1.3-41.1 6.4-132.1 24.7-167.4 5.4-10.4 19.1-3.7 17.8 6.6z"  fill="#fff" /><path d="M404.4 31.5c-0.9 8.8 5.2 49-8 49.4-10.1 0.3-9.6-15.6 0.4-14.8 10 0.8 7.9 16.6-2 14.7-12.2-2.3-10.6-46.6-6.1-54.2 4.8-8 15.2-3.2 15.7 4.9z"  fill="#c2e1ff" /><path d=""  fill="#005bbb" /><path d="M437.2-171c-11.8 67.8-47.1 127.4-53.8 197-0.9 9.6 4.5 55-8.8 55.2-10.2 0.1-9.5-15.9 0.6-14.9 10.2 1 7.8 16.9-2.3 14.8-16.8-3.5-5.5-71.5-3.9-83.9 3.1-24.1 40-162.4 51.8-176.3 6.7-8 17.3-0.8 16.4 8.1z"  fill="#fff500" /><path d="M449.8-259.6c33.5 92.9-22.5 173.5-39 262-1.9 10.1-6.5 76.1-7.3 76.7-9.1 7.4-17.8-10-6.5-12.8 11.3-2.9 12 16.5 0.5 14.4-18-3.3-5.6-75.5-3.6-88.1 7.7-47.3 29.3-89.8 41.4-135.8 13.4-50.9 0.5-105.1 2.8-116 1.4-6.5 9.4-5.7 11.7-0.4z"  fill="#c2e1ff" /><path d="M466.2-248.4c9.2 31.9 11.4 66.5 9.3 99.5-3.6 56.3-29.7 108.3-32.3 164.7-0.4 9.2 10.6 63.7 0.6 63.2-9-0.5-5-15 3-10.8 8 4.2-1.7 15.7-7.2 8.5-34-44.7 4.6-152.1 14.6-201.2 7.3-35.8-0.4-123.6-0.3-124.1 1.8-6.8 10.2-5.5 12.3 0.2z"  fill="#005bbb" /><path d="M480.3-327.1c28.2 52.3 61.6 143.7 70.8 202.2 5.9 37.7 0.6 76.3 7.6 113.8 4.5 24 14.8 45.8 28.3 66 1.6 2.4 18.6 19.5 9.6 21.9-4.7 1.3-6.3-6.3-1.4-7.1 4.9-0.7 5.6 7 0.6 7.2-6.7 0.3-15.8-18.6-19-23.2-48.3-68.9-28-127.5-43.9-202.7-6.4-30-61.9-167.5-61.7-176.1 0.1-5.3 6.6-5.8 9.1-2z"  fill="#005bbb" /><path d="M498.6-4.4c2.4 20.6 10.4 40.3 22.6 57.1 1.9 2.6 21.4 20.2 15.9 22.8-3.4 1.6-4.8-4.5-1-4.6 3.8 0 2.4 6.1-1 4.6-21-9.7-50.7-55.5-49.8-78.8 0.3-8.2 11-8 13.3-1.1z"  fill="#005bbb" /><path d="M513.3-264.9c16.3 45.4 38.4 91.2 45.9 139.1 6.2 39.9-0.9 80.7 7.2 120.4 6 29.4 39.5 78.8 33.1 80.3-5.9 1.4-6-8.6-0.2-7.4 5.1 1 3 8.9-1.9 7.3-6.4-2-12.4-16.3-15.8-21.4-42.4-63.8-28.6-113.8-37.4-183.9-5.7-45.6-38.1-95.8-41.8-131.9-0.7-6.9 8.2-7.9 10.9-2.5z"  fill="#005bbb" /><path d="M529.4-333.8c18.9 54.9 59.1 135.8 65.9 189.3 6.3 49.3-12.1 98.2-3.8 147.2 1.4 8.4 15.1 35.3 11.2 41.8-4 6.8-13.5-2.2-7-6.6 6.5-4.4 11.4 7.7 3.6 9-9 1.5-14.4-22.7-16.3-28.1-20.6-58.3 3.9-115.8-3.5-174.9-7.6-60.3-43.6-116-60.9-174.1-2.2-7.3 7.7-10.2 10.8-3.6z"  fill="#fff" /><path d="M545-258c15.8 41.6 38.3 81.2 42.8 126.2 4 40.4-7 80.5-3 120.8 1.6 15.7 20 58.3 17.8 62.6-3.4 6.5-12.7-1.4-6.9-5.8 5.8-4.4 10.9 6.6 3.8 8.2-15.8 3.5-29.4-66.3-30.5-76.9-3.9-38.2 5.8-76.1 3.4-114.3-3.2-49.8-33.1-84.5-37.8-118.1-0.9-6.6 7.6-7.9 10.4-2.7z"  fill="#c2e1ff" /><path d="M564-74c-0.3 36.7 0.2 72.3 16.4 106.1 2.6 5.3 27.6 39.2 18.9 41.3-5.9 1.4-6-8.8-0.1-7.5 6 1.3 1.8 10.5-3.1 6.8-30.1-22.5-56.9-112.8-47.9-148.7 2.4-9.5 14.8-6.7 15.8 2z"  fill="#005bbb" /><path d="M577.4-191.8c24 60.8 5 116.3 9.5 178.3 1.1 15.2 4.5 30 10 44.2 1.2 3.2 12.3 19.7 2.2 20.7-7.5 0.7-5.9-11.7 1.2-9.2 6.1 2.2 2.1 11.6-3.7 8.7-5-2.4-7.1-11.6-9.2-16.1-21.9-46.9-15.4-92.5-11.8-142.1 1.6-22.5-9.8-79.6-9.2-83.6 1-6.2 8.6-5.8 11-0.9z"  fill="#c2e1ff" /><path d="M594.1 8.3c1.3 6.5 15.3 32.8 6.4 36.3-6.4 2.5-9.8-7.9-3.2-9.7 5.7-1.5 8.8 6.7 3.7 9.4-9.8 5.1-20.4-29.9-19.1-35.6 1.5-6.8 9.9-5.9 12.2-0.4z"  fill="#005bbb" /><path d=""  fill="#005bbb" /><path d=""  fill="#fff" /><path d=""  fill="#005bbb" /><path d=""  fill="#fff" /><path d=""  fill="#c2e1ff" /><path d=""  fill="#005bbb" /></svg>