<svg width="1200" height="675" viewBox="-500 -500 1200 675" xmlns="http://www.w3.org/2000/svg"><path d="M-500-500h1200v675h-1200z" fill="#000"/><path d=""  fill="#fff500" /><path d=""  fill="#fff" /><path d=""  fill="#005bbb" /><path d=""  fill="#005bbb" /><path d=""  fill="#c2e1ff" /><path d="M-384.9-397.7c0.2 9.5 2.2 49.2-16.7 43.6-13.7-4-6.2-25.2 7-19.7 13.1 5.5 3.4 25.7-9.1 18.8-21.6-11.9 16.4-78.7 18.8-42.7z"  fill="#fff500" /><path d=""  fill="#c2e1ff" /><path d="M-368.7-149c-8.6 45.5 18.3 146.4-21.5 179.4-15.8 13-31.3-17.2-11.5-22.4 19.8-5.2 21.2 28.7 1 25.2-25.5-4.5 9.2-52.9 12-64.8 8.7-37.4-10.3-89.6 1.4-121.7 4-11.1 18.5-6.1 18.6 4.3z"  fill="#fff500" /><path d="M-352.1-397c-0.9 18.6-22.1 110.1-49.3 103.7-16.5-3.9-8.9-29.6 7.1-23.9 16 5.7 5.6 30.4-9.6 23-19.4-9.4 9.7-44.4 15-55 8-16 9.7-41 19.5-54.6 6.2-8.6 17.4-2.3 17.3 6.9z"  fill="#c2e1ff" /><path d="M-333.6-23.8c-2.5 21.5-44.4 114-72.6 96.4-17.2-10.7 1.2-36.9 17.1-24.3 15.9 12.5-5.1 36.5-19.6 22.3-17-16.6 20.9-40.3 29.6-50.5 10-11.8 23.9-50.1 29.6-54.3 8-5.9 16.7 1.7 15.9 10.4z"  fill="#c2e1ff" /><path d="M-316.4-28.3c-2.9 33.8-60 136.1-90.5 114.4-17-12.1 3.5-37.8 19.1-24 15.6 13.9-7.6 37.2-21.6 21.8-16-17.7 43.3-56.7 54.4-72.2 8.4-11.7 15-43.3 22.8-49.4 7.6-6 16.3 1.1 15.8 9.4z"  fill="#005bbb" /><path d="M-297.9-364.6c-8.2 19.9-76.6 110.6-92.4 124.3-4.2 3.7-10.6 4.1-15.3 1-14.3-9.5 1.9-31.2 15.1-20.2 13.2 11-5.3 30.8-17.2 18.5-19.4-20.1 53.2-86.9 65.3-101.5 8.7-10.5 15.8-29.5 26.7-37.3 10.9-7.7 21.7 4.4 17.8 15.2z"  fill="#c2e1ff" /><path d="M-280.8 3.9c-5.4 19.3-47.2 103.5-75.8 82.1-16.9-12.7 4.5-38.3 20-23.8 15.4 14.5-8.6 37.5-22.4 21.5-15-17.4 16.7-33 26.3-42.2 11.6-11.3 26.6-46.3 36.1-51.4 9.7-5.2 18 4.5 15.8 13.8z"  fill="#005bbb" /><path d="M-269.9-395.3c-11.6 57-53.9 91.1-90.8 132-8.3 9.2-31.6 56.7-47.3 38-9.2-11 5.7-26.5 17-17.7 13.3 10.3-4 30.3-16.1 18.6-24.6-23.7 77.1-110.4 90.8-127.9 9.1-11.6 22-49.5 30.4-54.9 8.8-5.6 17.4 2.9 16 11.9z"  fill="#005bbb" /><path d=""  fill="#c2e1ff" /><path d="M-229.2-389c-14.9 112.6-125.7 127-152.2 220-13.5 47.4 2.6 96.1-4.3 144.1-1.2 8.5-3.3 25.1-16.4 20.6-19-6.5 3.7-33 13-15.3 8.6 16.4-26.1 23-18.6-1.9 18.3-61.4-9.5-125.6 16.4-186.3 23.3-54.6 76.1-78.9 112-122.8 11.5-14.1 28.9-64.5 34.1-68.5 7.9-6 16.6 1.5 16 10.1z"  fill="#c2e1ff" /><path d="M-211.1-74.3c-8.2 22.4-48.2 177.2-84.3 160.7-17.3-7.8-3.5-34.4 12.8-24.7 16.3 9.6-0.3 34.5-15.4 23.2-18-13.5 22.5-53.5 29.2-66.8 14.8-29.4 21.9-77.9 37.7-102.2 7.5-11.5 22.6-2.1 20 9.8z"  fill="#005bbb" /><path d="M-188.2-397.6c0.2 55.3-20.5 111-55.4 153.6-24.4 29.8-57.7 54.6-71.4 91.9-11 30 3.8 121.6-18.2 111.7-11.2-5-2.4-22.3 8.2-16 12.4 7.2-3.8 24.8-11.9 13-7.3-10.5-1.5-39.9-2.2-52.6-5.5-111.1 48.8-118.9 99.4-199 24-38 27.7-96 34.7-107.7 5.1-8.6 16.2-3.5 16.8 5.1z"  fill="#fff500" /><path d="M-165.5-398c-0.8 132.6-79.4 181.8-103 266-4.8 17.2-3.9 86-10.5 93.2-10.1 11-24.3-9.2-10.5-15 16.1-6.8 16.7 23.7 0.3 17.5-11.4-4.3-4.5-27.1-4.1-35.2 5.3-126.1 43.9-124.6 84.2-226.6 7.7-19.4 24.1-100.7 26.8-105.2 5.2-8.6 16.4-3.3 16.8 5.3z"  fill="#005bbb" /><path d=""  fill="#fff500" /><path d="M-142.8-396.9c-9.9 112.9-77.7 205.8-97.1 290.4-3.6 15.7-10.1 122.6-34 113.4-12-4.6-7.1-23.2 5.7-21.3 14.9 2.2 10.1 25.5-4.5 21.7-18.5-4.9 3.8-58 5.7-70.6 4.1-26.4 6.9-53 14.5-78.7 9.7-32.8 26.4-62.7 40.1-93.9 21.2-48.4 37.9-101.5 48.4-153.3 3.4-17 21.8-30.7 21.2-7.7z"  fill="#fff" /><path d="M-124-153.9c-17 41.7-47.8 75.8-69.8 114.8-21.8 38.8-35.6 83.1-61.1 119.8-4.2 6.1-12.6 7.8-18.6 3.3-12.2-9-0.8-28.6 13.1-22.4 16.2 7.2 3.4 32.2-12 23.2-19.4-11.3 22.9-65.3 29.3-78.6 12.7-26.6 84.2-161.9 101.1-174.7 10.5-7.9 21.5 3.8 18 14.6z"  fill="#fff500" /><path d="M-113.1-395.1c-7.9 27-19.9 52.8-29.2 79.4-13.1 37.5-22 76.3-35.2 113.7-10.7 30.3-24.8 59.2-35.6 89.5-5.3 14.7-18.8 100-37.8 93.6-13.8-4.7-5.3-26 8-19.9 11.3 5.2 5.4 22.9-6.8 20.2-19.8-4.4 3.9-59.6 6.9-71.3 13.9-53.1 39.3-101.6 55.7-153.7 14.5-46.2 28.9-121.2 54.2-160.9 7.2-11.4 22.2-2.3 19.8 9.4z"  fill="#fff500" /><path d="M-89.1 75.1c-15.4 23.8-38.6-1.9-21.5-12.5 24.3-15.1 25 36.8 0.3 22.3-32.8-19.1 39.7-47.1 21.2-9.7z"  fill="#c2e1ff" /><path d="M-71.8 20.9c-9.2 13-40.7 71.3-59.3 65-19.8-6.7-1.8-36.4 13.3-22 12.9 12.3-7.6 31.7-19.1 18-9.6-11.3 38-75.9 48.4-80.9 13.3-6.5 23 8.8 16.7 19.9z"  fill="#c2e1ff" /><path d="M-54.4 76c-9 20.5-34.1 0.4-19.7-11.7 20.1-17 27.6 30.1 3.3 20.3-31.1-12.5 27.8-43.4 16.4-8.6z"  fill="#fff" /><path d=""  fill="#005bbb" /><path d="M-20.4-27.8c-3.4 18.2-21.5 116.4-45.5 112.7-16-2.5-10.7-27.4 4.9-23.2 15.6 4.2 7.7 28.4-7.4 22.5-19.1-7.4 6.4-46.2 10.4-57.2 6.1-17.1 8.3-50 19.7-63.6 7.3-8.7 18.8-1 17.9 8.8z"  fill="#fff" /><path d="M-3.8-364.4c-29.8 23.3-64.1 40.8-85.7 73.2-24.6 36.8-29 82.1-43.8 122.9-14.2 39-38.7 72.4-58.3 108.6-7.4 13.7-31 88.9-50.4 78.9-12.2-6.3-4.8-25.5 8.5-22 15.6 4.1 7.7 28.3-7.4 22.5-4.9-1.9-8-7-7.5-12.2 3.7-38.3 69-132.7 88.3-172.4 30-61.9 29.8-133.2 82.8-183.2 14.3-13.5 41.9-41.4 61.9-44.4 17.1-2.6 22.5 17.9 11.6 28.1z"  fill="#fff" /><path d="M13.7-187.2c-9.2 65.7 7.4 135.3 32.2 195.7 3.8 9.2 34.9 68.2 19 71.4-7.8 1.6-11.4-9.8-4.1-13 8.5-3.8 13.7 10 4.9 12.8-12.6 4-57.8-142.5-61.7-160.7-6.4-30.2-18.8-79.8-8.6-110 3.7-10.9 17.9-6.4 18.3 3.8z"  fill="#fff500" /><path d="M32.5-292.6c-71.6 90.7-45.1 128.5-86.8 213.6-24.1 49.3-71 76.6-104.1 118.4-8.1 10.1-25.7 55.2-43.1 44.9-16.8-10 5.4-33.6 16.4-17.5 11 16.1-19 28.2-22.2 9-6.1-35.8 97.7-121.4 119.8-150 54-69.6 34.4-162 98.5-235.2 11.9-13.6 30.4 2 21.5 16.8z"  fill="#fff" /><path d="M18.1-387.9c-48.1 51.4-104.5 63.1-129.5 137.4-9.4 27.8-14.6 56.8-24.9 84.4-6.5 17.5-51.7 121.7-72.8 109.2-14.3-8.5 0.2-30.3 13.6-20.3 13.3 10-3.5 30.1-15.7 18.8-12.7-11.9 42.9-92.8 52.3-114 28.3-63.3 29.2-132.7 84.2-182 12-10.8 66.2-55 78.8-58.4 15.7-4.3 23 14.2 14 24.9z"  fill="#fff500" /><path d="M30.3-388.5c-42.3 51.6-108 68.6-133.4 135.6-7.6 20-54.8 196.9-89.3 173-14.3-9.9 2.6-31.6 15.8-20.2 13.1 11.4-6 31.2-17.8 18.4-14-15.2 32.6-70 40.1-85.8 48.7-102.8 17.6-135.5 126.9-211.4 13-9 28.1-28 42.8-33 15-5 23.1 12.5 14.9 23.4z"  fill="#c2e1ff" /><path d="M81.9-176.8c3.6 73.5 42.1 138.7 55.6 210 1.9 9.8 11.5 46.1-4.1 49.2-12.5 2.4-15.2-17.4-2.6-18.5 12.6-1.1 13.2 19 0.5 18.7-15.8-0.4-7.6-31.2-8.1-40-4.4-63.8-38-123.1-51.7-185-2.1-9.3-8.9-27.3-5-36.6 3.3-8.2 13.8-5.3 15.4 2.2z"  fill="#fff500" /><path d="M96.9-77.1c6.6 18 64.8 153.3 34.4 159.7-12.3 2.6-15.3-17-2.8-18.3 12.5-1.2 13.4 18.6 0.8 18.5-15.6-0.2-9.6-50.2-12-61.6-4-18.7-33.2-86.5-32-96.9 0.8-6.6 9-6.5 11.6-1.4z"  fill="#fff500" /><path d=""  fill="#fff" /><path d="M135.4-175.2c-6.5 66.6 4.2 128 13.3 193.6 1.6 11.8 11.8 62.8-6.8 65.1-13.3 1.6-14.7-19.5-1.3-19.7 13.4-0.2 12.5 21-0.9 19.7-12.6-1.2-6.2-62.2-8.3-77.7-6.5-47.1-29-140.6-14.2-184.8 3.6-10.8 17.8-6.4 18.2 3.8z"  fill="#c2e1ff" /><path d="M151.5-399.5c5.1 53.4 15.2 106.6 12 160.4-3.1 51.7-18 101.9-18.7 153.9-0.4 29.8 17.7 122.1 9.8 141.8-6.3 15.8-27.8-4.6-12.3-11.7 13.2-6.1 18.4 17.5 3.8 17.5-16.2 0-8.5-41.3-9.3-50.6-10.1-116-8.2-123.7 6.5-237.9 7.9-61.2-11.5-144.7-7.5-173.6 1.3-9.6 13.8-8.1 15.7 0.2z"  fill="#fff" /><path d="M170.1-40.4c-2 20.8 2.9 111.4-10.1 121.8-13 10.5-25.4-14.3-9.2-18.4 16.2-4.1 17.1 23.7 0.6 20.6-17.4-3.3-2.6-38.1-1.6-48.1 2.3-24.5-5-56 2.3-79.3 3.4-10.8 17.4-6.6 18 3.4z"  fill="#fff500" /><path d="M187.7 5c-1.5 13.9-1.5 80.7-23.1 79.6-15.1-0.8-12.6-24.5 2.4-22.1 15 2.4 9.9 25.8-4.8 21.7-4.8-1.3-8.2-5.8-8.2-10.7 0-6.4 12.8-65.9 15.3-72.8 4-10.9 18.3-6 18.4 4.3z"  fill="#005bbb" /><path d="M204-270.3c8.1 84.7-39.4 161.4-40.2 245.6-0.2 18.2 6.2 95.6-6.2 106-12.7 10.6-25.4-13.7-9.4-18.1 16-4.3 17.3 23.1 0.9 20.4-14.2-2.4-1.6-65.5-1.9-81.7-2.1-86.5 13.3-123.3 32.3-204.1 3.9-16.4 3.9-61.2 8.6-71.4 3.9-8.3 14.5-4.6 15.9 3.3z"  fill="#fff500" /><path d="M223.4-145.1c-10 39.2-25.9 76.6-33.1 116.5-3.4 19.2-6.9 102-20 111.1-14.5 10-25.6-17-8.2-20 17.3-3 16.1 26.2-1 21.6-18.2-4.9 2.4-51.7 4-63.7 6.3-49 14.3-130.7 38.6-173.7 6.5-11.4 21.4-3.3 19.6 8.2z"  fill="#005bbb" /><path d="M241.1 66.8c-3.3 9.5-13.7 28.8-25.7 14.8-12.8-15 16.1-30.3 21.4-11.4 5.3 19-27.3 20.7-24.1 1.4 3.6-21.9 35.7-27.7 28.4-4.8z"  fill="#005bbb" /><path d="M257.1 2.8c-0.8 15.2-3.9 88.2-29.9 82.7-16.4-3.5-9.5-29 6.4-23.8 15.9 5.2 6.3 29.9-8.9 23-16.5-7.5 0.7-28.4 4.3-38 4.4-11.7 3.3-46.5 14.2-52.8 7-4 13.6 1.8 13.9 8.9z"  fill="#fff" /><path d="M282.4-400.8c20.6 55.8 74 87.6 111.5 130.7 35.1 40.3 51.4 91.2 68.3 141 5.3 15.5 27.4 61.8 19.3 77-5.5 10.5-20.6-2.2-11.2-9.4 8.1-6.2 17.1 7.1 8.5 12.3-15.1 9.1-17-35.7-18.7-42-11.3-44.5-26.7-90.3-46.1-131.9-27.2-58.3-80.8-90.5-119.8-139.3-31.4-39.3-17.5-47.6-11.8-38.4z"  fill="#fff500" /><path d="M289.6-200.5c6.4 32.1 14.7 63.9 32.7 91.6 38.2 58.7 107.4 85.4 111.8 163.5 0.4 7.2 3.4 22.2-4.4 26.8-14.8 8.7-19.3-20.7-2.6-16.9 14.2 3.3 3.8 25.2-7.7 16.2-3.1-2.4-5.3-65.6-11.5-80.3-21.2-51-77.1-76.5-105-123.6-11.8-19.9-28.1-52.2-27.4-76 0.2-8.7 11.5-8.6 14.1-1.3z"  fill="#fff500" /><path d=""  fill="#fff500" /><path d="M337.5-400.7c24.8 47.5 78.4 71.4 105.4 117.7 27.5 47.1 24.3 129.4 35.4 184.8 2.3 11.2 18.9 63.2 4.3 68.4-12.3 4.4-15-17.1-2-15.9 15.2 1.4 3.2 25-6.9 13.6-7.9-9-5.2-38.1-7.2-50.1-5.1-29.5-12.2-58.5-16-88.1-3.7-28.9-2.9-58.8-9.9-87.2-13.9-56-64-83.3-99.5-124-3.2-3.7-11.4-10.9-11.9-16.3-0.5-5 5.5-6.2 8.3-2.9z"  fill="#fff500" /><path d="M338-392.4c26.8 43.3 76.3 66.7 102.6 110.7 17.5 29.3 37.7 177.4 44.5 221.4 2.4 15.6 14.9 81.3-3.9 90-16.9 7.7-18.5-24.5-0.9-18.6 17.6 6-3.4 30.5-12.1 14.1-4.3-8.2 3.8-62.1 2.3-77.5-3.6-37-13.7-72.9-19.4-109.5-4.5-29-4.5-58.8-10.7-87.5-13.3-61.9-68.6-90.6-106.6-135.7-4.1-4.9-1.2-13.2 4.2-7.4z"  fill="#005bbb" /><path d=""  fill="#c2e1ff" /><path d="M373.9 6.7c6.2 9.9 36.5 67.5 17.2 74.3-10.6 3.7-15.5-13.3-4.6-15.8 10.9-2.5 14 14.9 2.9 16.2-13.8 1.7-10.4-26-11.7-33-2.3-12.3-13-27.6-13.1-39.4 0-5.5 6.6-6.2 9.3-2.3z"  fill="#fff" /><path d="M390.2-237.3c57.8 75.7 109.8 178 91.4 275.6-2.1 11-4 41.2-16.6 45.2-19.3 6.1-16.7-29 1.5-20.1 18.2 8.8-7.8 32.5-15 13.6-4.7-12.4 8.7-36.7 11.5-49.3 6.2-28.2 6.8-56.8 1.6-85.2-11.5-64.1-45.9-121.4-80.9-175.2-2.9-4.4 3.1-8.4 6.5-4.6z"  fill="#005bbb" /><path d="M422.4-400.7c20.5 40.4 56.2 71.2 64.2 117.7 8.2 47.8-11.8 95.7-9 144 0.9 16 15.8 89.4 10.2 98-7 10.9-22.1-4.4-11.2-11.3 10.9-6.9 18.2 13.3 5.4 14.9-15 2-11.8-35.7-12.8-43.7-4.9-36.2-11.6-72.1-8.6-108.8 2.5-31.2 12.4-62.2 10.2-93.8-4.2-58.3-46-76.2-57.2-113.2-1.7-5.6 5.6-8 8.8-3.8z"  fill="#c2e1ff" /><path d=""  fill="#005bbb" /><path d="M443.3-48.3c16.4 23.5 36.2 130.1 6.8 131.9-13.9 0.9-14.1-21.2-0.1-20.6 14 0.7 11.7 22.6-2.1 20.5-18.3-2.9-1.9-44.6-0.9-55.2 3.5-37.7-12.2-56.1-12.6-74.2-0.1-5.3 6.3-6.1 8.9-2.4z"  fill="#fff" /><path d="M461-383.4c15 29.1 33.3 56.8 37.8 89.9 6.4 46.4-16.1 89.6-18.9 135.3-4 66 19.6 129.2 5.6 195.4-2.1 9.9-3.6 37.4-18.4 37-17.4-0.5-10.4-28.5 5.2-20.7 15.6 7.7-2.5 30.2-13.4 16.6-2.9-3.7 17.8-84.7 13-133.6-4-41.3-13-82.2-8.1-123.9 4.5-38.2 22.1-75.3 18.2-114.2-3-30.1-23.3-50.6-30.4-78.1-1.5-6 6.2-8.1 9.4-3.7z"  fill="#c2e1ff" /><path d="M481.1-288.2c12.2 43.4-5.2 88.9-4.9 132.8 0.4 49.2 15.3 97 14.3 146.3-0.3 16.1-4.3 94.1-26.9 93.4-17.4-0.6-10.2-28.6 5.4-20.8 15.6 7.9-2.7 30.3-13.6 16.6-2.6-3.3 17-84.9 17.6-101.1 1.7-47-11.8-92.6-13.9-139.4-1.3-31.8 5.3-62.4 8-93.9 0.9-10.4-3.2-25.3-0.1-35 2.5-7.6 12.1-5.6 14.1 1.1z"  fill="#005bbb" /><path d="M501.7-400c6.9 34.5 21.6 67 20.9 102.8-1.3 63.9-43.3 112.7-39.2 180.5 0.9 14.6 19.5 114.4-1.7 112.4-12.2-1.2-9.3-20.4 2.8-17.8 14.1 2.9 4.3 24.7-7.3 16.1-9.8-7.3-3.2-41.6-4-52.9-3.1-41.3-11.9-82.4-4.8-123.7 6.2-36 25.3-67.5 33.4-102.9 12.4-54.5-14-75.4-13.8-112.9 0-8.5 11.1-8.7 13.7-1.6z"  fill="#c2e1ff" /><path d="M519-263.8c-10.6 43.8-35.1 80.8-35.9 127.1-1 52.9 23.5 171.5-9.7 216.5-10.4 14.1-29.5-7.7-14.1-16.1 17.9-9.9 22.3 25.5 2.5 20.2-16.8-4.4 9.9-75.6 11.6-95.2 7.5-86.4-22.5-140.7 13.3-228.8 4.2-10.3 7-23 12.7-32.5 6.8-11.4 21.7-2.8 19.6 8.8z"  fill="#fff500" /><path d=""  fill="#fff" /><path d="M551.6-398.7c-0.4 43.2 8.7 84.1-6.7 126-19.8 54.2-59 92.4-58.6 153.5 0.1 25.3 15.7 135-0.7 149.6-12 10.7-25.2-12.6-9.7-17.3 15.4-4.7 17.5 22 1.5 19.8-17.8-2.5-3.1-45.4-2.6-56.3 2.3-53.2-14-106.9-0.2-159.5 11.9-45.3 46.8-79.9 58.4-125.1 5.9-23.2-3-82.8 2.4-94.1 4.1-8.5 14.9-4.6 16.2 3.4z"  fill="#fff" /><path d="M571.7-265.1c-26.7 49.4-75.5 79.4-81 139.5-4.5 48.5 7.3 96.8-0.3 145.4-1.6 10.4-10.8 79.4-32 61.8-9.9-8.2 0.7-24.2 12.1-18.3 11.4 5.9 4.5 23.8-7.9 20.5-19.7-5.2 7.6-64.4 9.9-77.8 8.8-50.9-4.7-101.7 1.4-152.5 2.6-21.9 9.7-42.8 21.2-61.6 9.9-16.3 44.2-66.3 59.4-75 12.3-7 22.5 6.9 17.2 18z"  fill="#c2e1ff" /><path d="M587-362c3.1 124.4-90.6 142.6-97.2 238.7-2.4 35.4 13.6 177.5-15.8 198.2-14.3 10-25.5-16.7-8.3-19.9 17.2-3.1 16.1 25.9-0.8 21.5-19.2-5 7.4-67.9 9.1-81.6 7.2-57.7-12.7-117.8 6.1-174.1 17.3-52 67.6-84.2 83.3-136.8 4.4-14.6 0.4-37.4 7.2-50.1 4.5-8.5 15.4-4.1 16.4 4.1z"  fill="#005bbb" /><path d="M604.6-346.6c1.9 109.4-97.9 128.6-111.3 217.5-3 19.8 7.3 226.9-31.4 211.9-12-4.6-7-23.2 5.6-21.2 14.8 2.3 10 25.5-4.5 21.6-19.7-5.3 8.3-67.5 10.5-81.1 8.8-55.2-8.7-112.6 6.5-166.8 14.7-52.5 61.8-79.3 88.8-123.6 13-21.4 11.4-50 19.1-63.2 5-8.5 16-3.6 16.7 4.9z"  fill="#fff" /><path d="M609.3 49.5c-5.7 10-30 56-44.6 30.8-9.3-16.1 16.9-29.4 24.4-12.4 6.4 14.6-14.2 26.5-23.6 13.6-9.3-12.7 19.1-51.2 32.4-51.7 11.1-0.4 15.5 10.9 11.4 19.7z"  fill="#fff" /><path d="M609.5-25.3c-8.5 16.7-59.2 130.2-84.1 109.1-14-11.9 5.9-33 18.5-19.7 12.7 13.3-9.4 32.2-20.6 17.5-11.3-14.8 18.8-41 26.4-51.9 10.9-15.7 29.2-61.5 41.8-70.5 11-7.8 21.9 4.5 18 15.5z"  fill="#fff" /><path d=""  fill="#c2e1ff" /><path d="M608.6-108c-46 41.8-64.5 88.9-89.5 144.2-5.2 11.4-18.4 58.4-37.3 47.9-14.3-8-0.5-29.9 12.9-20.4 13.4 9.5-2.7 29.8-15 18.9-14.6-13 22.8-66.9 29-81.3 18.5-43.1 38.2-108.2 82.4-133 15.8-8.9 27.7 11.4 17.5 23.7z"  fill="#fff" /><path d="M609.4-73.9c-34.8 44.5-74.7 151.9-96.8 136.4-14.3-10.1 2.8-31.7 15.9-20.2 13.1 11.5-6.2 31.3-18 18.3-12.9-14.1 21.5-53.1 28.3-65.7 10.1-18.6 36.2-80.1 53.8-88.8 13.3-6.6 23.1 8.8 16.8 20z"  fill="#fff" /></svg>