<svg width="1200" height="675" viewBox="-500 -500 1200 675" xmlns="http://www.w3.org/2000/svg"><path d="M-500-500h1200v675h-1200z" fill="#000"/><path d=""  fill="#fff500" /><path d=""  fill="#c2e1ff" /><path d=""  fill="#005bbb" /><path d=""  fill="#c2e1ff" /><path d=""  fill="#fff500" /><path d=""  fill="#fff" /><path d=""  fill="#005bbb" /><path d=""  fill="#005bbb" /><path d=""  fill="#005bbb" /><path d=""  fill="#fff500" /><path d=""  fill="#fff500" /><path d=""  fill="#fff" /><path d=""  fill="#fff" /><path d=""  fill="#fff" /><path d=""  fill="#c2e1ff" /><path d="M-388-252c0.2 13.7 3.7 59.6-7.9 69-5.4 4.4-10.6-6-3.8-7.7 6.8-1.7 7.1 9.9 0.2 8.6-8-1.5 0.5-23.1 1.3-27.9 2.1-13.7-0.1-29.6 3.1-42.9 1-4.3 6.6-3 7.1 0.9z"  fill="#c2e1ff" /><path d="M-380.2-87.3c-4.2 3.8-20.6 21.8-24.4 8.7-2.1-7.2 8.3-11.5 11.9-4.9 4.2 7.7-8.4 13.6-11.7 5.5-6.9-16.8 39.7-26.5 24.2-9.3z"  fill="#005bbb" /><path d="M-372.9-193.9c-2.1 9-14.6 61.9-27.1 58.4-7-1.9-3.4-12.7 3.3-10 6.7 2.6 2 13-4.4 9.6-3.5-1.8 15.8-56.5 20.7-62 3.2-3.6 8-0.2 7.5 4z"  fill="#fff" /><path d="M-366.4-312.2c1.9 39 3 149-28.6 176-6.4 5.5-13-6.9-4.9-9.2 8.1-2.3 8.9 11.7 0.6 10.4-11.3-1.8 3.3-20.2 5.3-24.5 8.1-16.9 13.2-35.2 16.8-53.5 6.4-33.9-0.8-74.6 3.9-99.6 0.8-4.1 6.2-3.2 6.9 0.4z"  fill="#fff" /><path d=""  fill="#fff" /><path d="M-351.2-211.9c-3.1 13.1-30.1 107.2-49.8 98.5-7.2-3.2-1.5-14.2 5.3-10.3 6.8 4 0 14.3-6.3 9.6-7.9-5.9 14.8-29.7 18.3-36 8.6-15.4 16.3-56.1 25-65.8 3.2-3.6 8-0.2 7.5 4z"  fill="#005bbb" /><path d="M-344.7-300.1c1.8 41.6-13 159.8-50.9 184.2-7.7 4.9-12.9-9.3-3.9-10.5 9-1.2 7.8 13.8-0.9 11.1-11.8-3.6 7.1-21.9 9.8-26.3 10.7-16.7 18.1-35.3 23.9-54.2 7-23.3 12.1-47.6 14.1-71.9 0.5-6.3-2.6-31.5 2.3-35.1 2.4-1.8 5.2 0.1 5.6 2.7z"  fill="#005bbb" /><path d="M-336.5-127.8c-7 10.2-52.1 70.4-65.9 59.5-7-5.5 2.3-16 8.7-9.8 6.3 6.3-4.1 15.7-9.7 8.8-7.2-8.9 18.1-22.1 23.5-26.8 11.5-10 23.8-33.4 36.4-39.8 5.4-2.8 9.5 3.5 7 8.1z"  fill="#005bbb" /><path d="M-329.6-258.2c-7.9 45.4-22.5 94.8-48.8 133.1-3.7 5.4-14.8 25.6-23 21.2-8.4-4.4 1.7-16.5 7.5-8.9 5.8 7.5-8.5 14.2-10.6 5-1.9-8.3 26.2-36.8 31.1-45.9 19.5-36.2 21.3-75.3 35.9-107.1 2.1-4.7 8.2-2 7.9 2.6z"  fill="#fff" /><path d="M-328-398.2c-8.5 97.7 19.2 161.6-45.8 266.1-4.1 6.6-16.8 30.2-25.8 28.8-11-1.7-1.1-18.4 5.7-9.6 5.8 7.5-8.5 14.2-10.5 5-1.8-7.8 20.6-28.3 25.1-35.6 14.6-23.6 23.8-50.2 31.5-76.7 20.9-71.3 6.6-161.5 12.3-179.4 1.4-4.5 7.3-2.7 7.5 1.4z"  fill="#c2e1ff" /><path d="M-314.8 26.8c-9.9 11.2-30.5 50-35.9 51.1-7.4 1.6-7.3-11 0.1-9.3 7.4 1.7 2 13.1-4 8.4-9.7-7.5 24.5-53.4 31.9-58.7 5.8-4.2 11.3 3.2 7.9 8.5z"  fill="#fff500" /><path d="M-307.6 21.8c-10.5 11.9-35.4 55.4-40 56.4-7.4 1.6-7.4-11 0.1-9.3 7.4 1.7 2.1 13.1-4 8.4-9.7-7.4 27.9-61.1 37.3-64.7 6-2.4 9.7 4.6 6.6 9.2z"  fill="#fff500" /><path d=""  fill="#c2e1ff" /><path d="M-293.3-13.7c-20.7 21-44.3 39.8-61.4 64.1-3.5 4.9-14.4 33.2-21.6 26.4-4-3.8 1-10.4 5.8-7.5 5.5 3.3-0.2 11.8-5.4 7.8-16.9-12.8 62.6-92.8 75.2-100.3 6.3-3.8 11.5 4.3 7.4 9.5z"  fill="#c2e1ff" /><path d="M-285.8-138.8c-15.2 21.8-86.9 107.3-113.2 105.2-10.6-0.8-5.5-17.8 3.8-12.5 9.3 5.2-2.5 18.4-8.7 9.8-7.2-9.9 37.7-33.2 45.3-39.1 16.7-12.8 59.5-68.3 65.7-71.5 5.4-2.8 9.5 3.4 7.1 8.1z"  fill="#c2e1ff" /><path d="M-278.6 38.7c-4.2 6.9-14.9 37.8-21.5 39.5-7.2 1.8-7.6-10.4-0.3-9.1 7.3 1.3 2.5 12.7-3.5 8.4-6.6-4.7 12.9-48.2 21.7-46.7 3.9 0.7 5.1 4.7 3.6 7.9z"  fill="#005bbb" /><path d=""  fill="#fff" /><path d="M-264.2-114.9c-30.1 44.3-66.5 74-110.1 104-5.9 4-17 16-24 16.2-10.1 0.3-7-16.1 2.3-12.2 9.3 3.9-0.4 17.6-7.2 10.2-8.9-9.8 28.7-30.1 35.3-34.6 38.3-25.8 66.7-53.3 94.7-89.8 4.4-5.7 12.3 0.1 9 6.2z"  fill="#c2e1ff" /><path d="M-256.9-108.9c-29.5 44.5-65.7 74.7-108.6 105.6-6.3 4.6-31.1 30.7-37.7 23.4-6.4-7.2 7.5-15 10.3-5.8 2.8 9.2-13.1 10.4-11.7 0.9 2.7-19 52.5-43.8 67-54.5 40.3-29.8 47.7-54.3 72.5-76.7 4.9-4.5 10.9 1.8 8.2 7.1z"  fill="#c2e1ff" /><path d="M-249.7 54.9c-2.4 5.1-5.6 23.1-12.3 22.9-7.2-0.3-4.2-11.9 2.2-8.6 6.4 3.3-1.1 12.5-5.6 6.8-9.9-12.6 21.4-40.6 15.7-21.1z"  fill="#c2e1ff" /><path d="M-242.5 55c-2.4 5.1-5.7 23-12.3 22.7-7.2-0.3-4.2-11.9 2.2-8.6 6.4 3.3-1.2 12.5-5.6 6.9-10-12.6 21.5-40.6 15.7-21z"  fill="#c2e1ff" /><path d=""  fill="#005bbb" /><path d="M-228-46.8c-24.6 35.3-55.3 67.1-75.6 105.2-2.4 4.5-6.6 22.5-14 19.2-5.9-2.6-1.2-11.6 4.3-8.4 5.5 3.2 0 11.7-5.2 7.9-12.7-9.4 68.6-124.4 83.5-132 5.4-2.8 9.5 3.5 7 8.1z"  fill="#005bbb" /><path d="M-220.9-305.5c-9.2 29.5-152.4 268.1-182 243.5-8.1-6.7 5.7-17.4 10.2-7.9 4.5 9.5-12.5 13.4-12.6 2.9-0.1-8.4 20.7-18.3 26.6-23.1 17.9-14.8 33.1-32.2 46.1-51.3 29.2-42.7 83.6-116.3 101-162 2.2-5.7 12.9-12.6 10.7-2.1z"  fill="#fff" /><path d=""  fill="#005bbb" /><path d="M-176.3-399.1c19.5 113.9-43.1 166.4-102.2 251.1-8.6 12.3-48.2 71.1-60.5 72.2-9.8 0.9-7.8-15.4 1.5-12 7.9 2.8 2.8 15.1-4.8 11.4-11.8-5.7 22.3-34.2 27.1-40.1 29.6-36.4 82-104.4 106.3-142.9 16.6-26.4 26-55.7 28.3-86.8 0.2-2.6-1.9-75.6 4.3-52.9z"  fill="#fff" /><path d="M-199 55.7c-3 4.7-9.7 25.7-17.2 22.1-5.1-2.5-2.2-10.4 3.3-9.1 6.4 1.6 3.4 11.5-2.8 9.3-8.6-3.1 4.7-26.6 9.3-29.5 5-3.1 9.4 2.6 7.4 7.2z"  fill="#fff500" /><path d="M-191.9-214c-49.5 75.8-97 149.5-172.5 201.4-6.9 4.7-27.9 25.8-35.8 23.7-8.2-2.2-4.1-14.9 3.8-11.8 9.3 3.6 0.2 17.3-6.7 10.1-8.1-8.3 15-21.3 20.1-25 26.9-19.9 55.6-36.8 79-61.1 40.6-42.2 68.2-96.6 103.1-143.3 4.3-5.8 12.1-0.1 9 6z"  fill="#005bbb" /><path d="M-184.6-257.6c-24.2 48.4-123.4 177.6-166.3 208.6-7.8 5.6-43.7 35.7-51.9 28.7-9.4-8 9.6-18 10.9-5.7 1.1 10.5-16.3 8.6-12.9-1.5 2.5-7.2 75.6-54.6 88.7-68.6 22.5-24.2 115-162 124.1-168.1 4.7-3.2 9.2 2.1 7.4 6.6z"  fill="#005bbb" /><path d="M-178.7-387.3c12.4 102.2-43.1 150.3-96.7 226.3-24.8 35.1-78.3 112.4-121.6 123.4-10.3 2.6-10.9-15.1-0.4-13.1 10.5 2 3.5 18.3-5.2 12-11.3-8.1 43.1-40.3 50.6-46.6 48.3-41 82.4-101.9 121.1-151.8 21.1-27.3 37.7-56.8 43.6-91.1 0.3-1.6 3.8-80.8 8.6-59.1z"  fill="#c2e1ff" /><path d="M-166.1-399c18.6 112.2-24.1 155.9-84.7 240.2-33 46-63.3 93.5-113.3 123.2-10.9 6.5-14.3-14.3-2.5-12.2 10.5 1.9 3.7 18.1-5 12.1-10.8-7.5 41.1-41 48.3-47.9 35.8-34.1 91.1-114.1 119.9-157.1 20-29.8 31.4-62.8 33.6-98.7 0.2-2.6-3-84.4 3.7-59.6z"  fill="#c2e1ff" /><path d="M-163.1-144.4c-22.4 64.2-61.7 112.2-99 167.6-5.7 8.4-25.2 51.4-29.2 54.1-6.1 4.1-10.5-7.3-3.3-8.5 8.5-1.3 5.2 13.3-1.9 8.4-17.7-12.3 65.3-115 74.9-128.4 10.4-14.7 50.5-97.8 51-98.2 3.8-3.5 8.6 0.6 7.5 5z"  fill="#c2e1ff" /><path d="M-152.6-398.6c6.7 41.7 9.3 86.4-0.7 127.8-16.4 68.4-108.4 207.8-162.3 253.3-8.4 7.1-19.2-2-10.5-7.7 11.6-7.7 12.6 17.6 0.4 10.9-11.2-6.1 34.2-42.6 40.3-49.5 41.3-47 76-108.1 105.1-163.3 26.7-50.7 29.6-105.7 22.6-161.7-0.3-2.6 2.2-20.1 5.1-9.8z"  fill="#fff500" /><path d="M-134.7-399.2c15.2 91.7 40.3 278.2-15.4 356.1-4.2 5.9-16.1 26.3-24.1 25.3-10.8-1.4-1.5-18 5.3-9.5 5.9 7.3-8 14.2-10.2 5.1-2.3-9 30.5-41.9 35.7-52.3 11-21.9 14.6-46 15.9-70.2 4.7-81.7 0.7-160.5-11.5-241.4-0.3-2.2 1.1-24.3 4.3-13.1z"  fill="#fff500" /><path d="M-141.7 12.9c-16.7 13.6-33.2 27.7-45.8 45.4-2.8 4-11.6 26.1-18.6 18.2-3.9-4.3 1.9-10.8 6.7-7.4 5.5 4-1.2 12.4-6.3 7.8-13-11.6 46.1-69.4 57.2-74.6 7-3.4 11.5 5.7 6.8 10.6z"  fill="#005bbb" /><path d="M-135.4-383.4c14 96 18 217.3-26.6 306.6-14.3 28.6-35.4 52.7-54.7 77.9-5.1 6.7-26.7 46.5-33.8 44.9-7.9-1.7-2.3-13.9 4.1-9 7.6 5.7-6.5 14.3-8.1 4.9-4-24 80.3-91.2 101.4-169.5 21.2-79 24.1-158.7 13.5-239.4-0.7-5-2.6-11.3-2.1-16.3 0.4-3.9 5.4-3.5 6.3-0.1z"  fill="#fff" /><path d="M-114.8-398.7c14.1 79.5 43.3 160.1 106.6 213.6 35.9 30.3 78.2 52.4 105.3 92.1 1.9 2.7-3.8 4-3.2 0.7 0.5-3.3 5.5-0.3 2.8 1.7-0.5 0.4-32-36-36.3-39.9-54.5-49.2-106.1-73.1-141-142.7-10.6-21.1-46.6-105-40.2-125.8 1-3.2 5.1-2.4 6 0.3z"  fill="#c2e1ff" /><path d="M-109.2-398.8c13.6 74.6 46.2 142.7 105.8 191.2 43.9 35.6 87.8 63.9 113.1 116.7 1.8 3.7-5.4 4.2-4.2 0.3 1.2-3.9 6.8 0.6 3.2 2.6-4.3 2.4-10-14.7-11.5-17.6-8.6-15.7-18.9-30.4-31.1-43.4-46.7-49.6-106.3-77.1-141.7-138.4-8.2-14.3-45.9-101.2-39.2-112.4 1.5-2.6 4.8-1.5 5.6 1z"  fill="#c2e1ff" /><path d="M-114-334.6c13.8 65.7 26.8 135 63.1 192.6 32.7 51.8 85.9 93.2 104.2 153.2 2.2 7.2 13.9 67.2 2.4 65.9-4.4-0.5-4.4-7.1 0-7.5 4.4-0.5 5.8 6 1.7 7.4-8.6 2.9-4.3-24.1-4.5-28.2-0.8-25.7-7.5-50.4-19.9-73-34.7-63-91.7-107.3-117.8-176.2-10.9-28.7-35.9-104.9-35-133.7 0.1-3.6 4.8-3.6 5.8-0.5z"  fill="#005bbb" /><path d="M-105.4-76.8c-11.8 52.2-61.5 78.1-91.4 118.5-4.7 6.4-15.9 34.8-22.3 36.3-7.4 1.6-7.4-10.9 0-9.4 7.4 1.6 2.1 13-3.9 8.5-20-15.2 67.1-95.2 77.3-105.7 6.1-6.3 44-72.4 40.3-48.2z"  fill="#005bbb" /><path d="M-99.3-209.5c8.3 51.7 39.4 114.2 22.8 166.2-12.1 38.3-48.3 57.3-76.8 81.8-6.5 5.6-32.6 41.5-38.5 40-8-2.1-1.8-14.4 4.6-9.1 7.5 6.2-7.3 14.3-8.5 4.6-3.2-25.8 96.5-86.1 110.4-120.4 20.2-50.4-12.9-111.6-20.2-162.1-0.6-4.1 5-4.8 6.2-1z"  fill="#fff" /><path d="M-89.6-398.7c7 33.7 20.6 65.3 42.5 92 34.1 41.8 85.6 61.9 121.6 101.1 32.4 35.3 41.7 85.8 53.9 130.5 1.5 5.4 13.1 36.9 8.1 39.7-4.6 2.6-5.9-6.6-0.7-5.3 5.2 1.3-0.3 8.8-3.1 4.3-13.6-21.4-24.6-107.8-45.3-145.4-33.5-61-109.2-82.5-149.3-139.1-13.2-18.6-23-39.4-29.4-61.2-6.7-22.6-1.2-24.7 1.7-16.6z"  fill="#fff" /><path d="M-78.4-399.1c24.3 108.7 98.7 107.4 160.3 175 32.9 36.1 35.6 87.7 45.8 133.2 0.9 4.2 9.3 27.3 3.4 28.3-3.3 0.6-4.7-4.2-1.6-5.5 3.1-1.3 5.5 3.1 2.7 5-6.2 4.3-8.1-17.1-8.7-19.9-9.1-39.2-11.8-83.9-30.9-119.9-30.5-57.5-103.2-75.6-143-125.7-12.8-16.1-22.5-34.3-29.1-53.8-7.4-21.9 0.7-17.7 1.1-16.7z"  fill="#fff" /><path d="M-77.3-89.2c6.4 70.4-51.9 93.4-93 137.2-5 5.3-21.2 34.1-27.9 29.9-8.1-5 5.2-14.9 7.6-5.7 2.1 7.9-11.4 8.5-10 0.5 6.8-39.6 64.6-66.8 90-92.7 9.7-9.9 17.7-21.4 22.1-34.6 3.9-11.8 2.1-23.3 4.4-35.1 0.8-4.1 6.1-3.2 6.8 0.5z"  fill="#fff" /><path d="M-63.8-399.2c22.8 91.3 100.6 98.2 155 158.2 35.1 38.7 30 93.7 38.1 141.9 0.8 4.9 9.6 35.5 3.8 36.4-3.4 0.5-4.7-4.5-1.5-5.7 3.2-1.2 5.6 3.3 2.7 5.3-6.4 4.2-8-18.8-8.6-21.6-8.5-43.4-4.4-94.8-24.1-134.9-27.3-55.6-97.6-71.7-137.2-116.6-12.9-14.6-22.9-31.4-29.6-49.6-1.2-3.2-2.4-22.6 1.4-13.4z"  fill="#c2e1ff" /><path d=""  fill="#005bbb" /><path d="M-54.9 49.7c-6.4 6-43 39.1-50 27.3-4.6-7.9 8.2-14.4 11.9-6.1 3.7 8.3-9.7 13.4-12.5 4.7-2.4-7.7 37.4-34.9 45-36.7 6.7-1.6 9.5 6.4 5.6 10.8z"  fill="#fff" /><path d=""  fill="#fff500" /><path d="M-40.4 72.6c-3.6 3.5-13 12.4-16.3 2.8-3.2-9.5 13.4-11.3 12.3-1.4-1.1 10-16.9 4.7-11.7-3.9 6.6-11 24.1-7.3 15.7 2.5z"  fill="#fff500" /><path d="M-33.1 74.3c-16.4 16.8-14.8-13.9-4-5.9 12.9 9.5-16.4 16.4-9.1 2.1 5.4-10.5 20.1-5 13.1 3.8z"  fill="#c2e1ff" /><path d="M-29.1-335.9c36.9 42.5 97.9 57.8 130.3 104.2 22.2 31.8 32.7 156.2 42.8 204.2 2 9.3 20 77.3 13 80.8-5.1 2.5-5.8-7.3-0.4-5.6 6.3 2-2.7 10-3.9 3.4-9.4-50.1-20.8-100-29.4-150.2-6.3-36.8-3.6-77.4-16.6-112.7-21.1-57.3-87.5-75-129-113.6-1.2-1.1-11.1-14.1-6.8-10.5z"  fill="#c2e1ff" /><path d="M-18.5 68.5c-2.4 3.3-15.3 18.9-17.1 5.6-0.8-5.8 6.8-9.1 10.4-4.5 4.3 5.3-2.9 12.6-8.3 8.3-14.9-11.9 25.2-26.3 15-9.4z"  fill="#fff500" /><path d="M-5.4-399.3c23.3 62.8 93.7 80.1 129.6 132.1 33.5 48.6 7.4 108.7 10.7 162.8 0.5 8.8 13.5 70.4 8.5 72.8-5.1 2.5-5.8-7.3-0.5-5.6 4.6 1.4 0.7 8.4-2.9 5.1-3.9-3.5-3.7-16.5-4.7-21.4-12.9-71.3 4.2-160.3-4.8-190.6-16.1-53.7-75.6-75.2-112.1-112.3-23-23.4-29.8-53.4-23.8-42.9z"  fill="#c2e1ff" /><path d="M-7.2-365c34.6 47.6 100.4 62.9 129.9 114.7 20.8 36.5 7.1 136.2 17.6 193.8 1.8 10 21.3 84 14.1 87.4-5.2 2.5-5.8-7.5-0.4-5.7 6.4 2.1-2.8 10.1-4 3.5-8.6-49-21.7-98.2-24.3-148.1-1.9-37.3 9.1-77-1-113.5-15.1-54.6-74.8-75.2-113.9-109.1-4.9-4.2-24.7-29.7-18-23z"  fill="#c2e1ff" /><path d="M-0.7-200.6c100.5 80.4 124.1 106.6 149 237.2 1 5.4 10.4 36.8 5.7 39.4-4.1 2.2-6.2-5.2-1.6-5.5 4.6-0.3 3.4 7.3-0.8 5.6-5.3-2.1-6.3-23.3-7.3-28.4-9.1-47.3-19.1-94.6-40.8-138-22.2-44.4-56.5-72.4-95.4-101.6-0.9-0.7-11.9-10.6-8.8-8.7z"  fill="#fff" /><path d=""  fill="#fff" /><path d="M24-399.2c21.8 52.6 78.3 75.2 108.6 121.1 30.8 46.6 8.6 95.6 4.5 146-0.6 7.8 4.4 59.3 0.2 61-4.6 2-6.2-6.2-1.2-6.1 5.9 0.2 1.9 9.6-2.3 5.4-18.6-18.6 14.7-144.7 5.6-179.9-14-54.2-71.6-79.1-103.9-120.5-8.2-10.4-17.6-36.8-11.5-27z"  fill="#fff" /><path d="M23.6 2.6c1.9 9.9 4.4 78-12.7 75.9-6.5-0.8-4.8-11 1.6-9.5 7.5 1.7 2 13.3-4 8.6-5.6-4.3 6.7-29.3 7.9-36.1 2.1-11.7-2.5-29.3 1.1-39.6 1.2-3.3 5.3-2.3 6.1 0.7z"  fill="#fff500" /><path d="M28.2-197.6c75.7 56.4 104.2 139.3 121.2 229.3 1.1 5.9 11.3 41.4 6.5 44-4.8 2.6-5.8-6.8-0.6-5.4 5.2 1.4-0.4 9-3.3 4.3-3.8-6.3-29.3-131.2-41.5-161.5-16.4-40.5-39-74.7-73.5-102-0.8-0.7-11.7-10.4-8.8-8.7z"  fill="#c2e1ff" /><path d="M42.5-399.5c22.1 52.9 80.4 78.5 103.3 130.7 24.5 55.8-12.1 118.7-7.8 177 1 13.2 16.6 89.4 14.2 94.1-2.2 4.3-8.5-0.8-4.6-3.8 3.8-3 7.3 4.3 2.6 5.4-6.2 1.5-9.3-32.9-10.2-38.1-6.7-36.9-12.9-74.2-8-111.7 4.4-33.8 19.1-67.5 14-102-8.1-56-63.3-84.9-94.2-127.2-4.5-6.2-12.1-15.2-13.6-22.9-0.5-2.7 3-3.5 4.3-1.5z"  fill="#fff500" /><path d="M50.3-399.5c21.5 51.7 77.3 78.7 98.3 130.4 23.3 57.1-15 120.7-10.1 180.3 1.1 13 16.5 87.3 14 92.1-2.2 4.3-8.5-0.8-4.6-3.8 3.8-3 7.3 4.3 2.5 5.4-6.3 1.5-8.9-31.3-9.8-36.2-6.9-38-13.5-76.5-8-115.1 4.9-34.8 20.7-69.4 15.2-105-8.2-53.2-59-82.8-88.3-123.7-4.5-6.3-12-15.3-13.6-23-0.5-2.8 3-3.5 4.4-1.4z"  fill="#fff" /><path d="M55-399.2c21.4 51.5 76.9 79.5 96.1 132.1 21 57.5-17.5 120.5-12.3 180.3 1.2 14 18.2 94.9 15.5 100.1-2.2 4.3-8.5-0.8-4.6-3.8 3.9-3 7.3 4.3 2.6 5.4-6.1 1.4-9.6-35.4-10.6-40.8-7.1-39-14.5-78.6-9.1-118.4 4.8-34.9 21-69.3 16.8-105.1-6.3-53.7-56.2-84.5-85.2-125.4-4.5-6.3-12-15.3-13.5-23-0.5-2.8 3-3.5 4.3-1.4z"  fill="#005bbb" /><path d="M57.3-162.8c57.6 50.7 78.6 129.3 92.3 202 1 5.2 9.8 34.2 5.2 36.7-4.8 2.6-5.8-6.8-0.6-5.4 5.2 1.4-0.4 9-3.3 4.3-8-13.1-22.3-105.4-31.8-132.1-12.6-35.7-30-70.5-56.8-97.7-0.1-0.1-8.8-10.5-5-7.8z"  fill="#005bbb" /><path d="M64.6-218.8c60.4 54.2 78.5 205.3 94.8 284.1 0.5 2.5 4.1 10.4-0.7 11.2-3.3 0.6-4.7-4.3-1.6-5.5 3.6-1.5 5.7 4.4 1.9 5.5-6.3 1.8-10.9-37.7-11.8-43.2-8.1-44.3-18.6-87.8-30.3-131.2-9.4-35-16.9-73-39.1-102.6-1.7-2.2-16.2-20.5-13.2-18.3z"  fill="#005bbb" /><path d="M72.7-381c24.5 41.2 68.8 70 82.6 117.6 14.8 51.2-23.6 122-14.4 193.4 3.5 27.3 22.9 92.3 19.5 115.1-0.8 5.6-9.4 0.7-4.9-2.8 3.8-3 7.3 4.3 2.6 5.4-8.8 2.1-27.8-157.8-26.7-174.8 2.5-41.1 23.9-80.5 20.4-121.9-4.4-51.5-49.2-83.4-77.2-122.5-1-1.4-6.5-15-1.9-9.5z"  fill="#fff" /><path d="M81.4 43.5c0.8 4.7 7.7 33.2 0.3 33.4-4.6 0.1-4.4-7.1 0.2-6.8 4.6 0.4 3.6 7.6-0.9 6.7-4.6-0.9-7-29.8-5.6-33.8 1.1-3.3 5.2-2.3 6 0.5z"  fill="#fff" /><path d="M88.8 65.7c0.3 2.4 2.8 12.7-3.4 10.9-3.7-1.1-2.7-6.7 1.1-6.5 4.5 0.3 3.6 7.4-0.8 6.6-10.8-1.9 0.8-21.2 3.1-11z"  fill="#fff500" /><path d=""  fill="#fff500" /><path d="M101.8-33c13.2 22.3 36.4 81 33.3 106.7-0.6 4.7-7.9 2.1-5.5-1.9 2.9-4.7 8.6 3 3.3 4.4-5.6 1.5-12.6-45.9-14.1-52.1-4.8-19.3-28.6-73.1-17-57.1z"  fill="#fff" /><path d="M108.7-250c29.3 38.9 18.5 89 21.9 134.2 2 25.7 7 51 12.1 76.2 2.3 11.4 24.2 115.1 19.1 116-5.3 0.9-3.4-8.2 1.1-5.3 4.5 3-3.2 8.3-4.4 3.1-18.3-77.4-36.7-160.7-36.1-240.4 0.2-20.9 0.4-42.3-6.8-62.2-0.6-1.8-11.7-27-6.9-21.6z"  fill="#fff500" /><path d="M116.6-31.9c10.5 23 31.1 80.8 28.4 105.4-0.6 5.4-9 1-4.8-2.6 3.6-3 7.2 3.8 2.7 5.1-5.9 1.6-12.1-43.6-13.4-49.6-2.2-10.1-20.6-71.7-12.9-58.3z"  fill="#c2e1ff" /><path d=""  fill="#fff500" /><path d=""  fill="#fff" /><path d=""  fill="#c2e1ff" /><path d="M145.4-349c16.7 35 33.7 69.9 29 109.9-7.6 64.9-40.4 95.4-32 169.6 3.6 32.4 26.8 119.4 24.4 143.4-0.5 5.4-8.8 1.1-4.8-2.4 4.1-3.5 7.2 5.3 1.8 5.1-6.8-0.3-10.7-42.2-11.8-48.6-8.8-51.4-23.7-105.8-17.4-158.2 4.8-39.5 26.7-74.1 32.2-113.3 5.3-37.9-10.2-70.1-25.4-103.5-1.2-2.7 2.5-4.3 4-2z"  fill="#005bbb" /><path d="M154.4-398.9c8.5 50.8 35 99 28 151.6-8.3 62.5-45.9 103.1-40 171.4 1.5 16.9 21.7 111.2 18 118.2-2.2 4.3-8.5-0.8-4.6-3.9 4.5-3.5 7.3 6 1.6 5.5-6.2-0.6-8.5-36.4-9.5-42.3-8-46.4-19.6-94.9-10.3-141.9 7.9-39.8 32.4-74.2 37.7-114.7 7.1-55.2-29.3-103.6-27-143.5 0.2-3.7 5.1-3.5 6.1-0.4z"  fill="#005bbb" /><path d="M161.3-246.1c5.6 69.2-35.3 94-14.8 210.6 2.6 14.8 22.7 103.3 19.5 110.4-1.9 4.2-8-0.3-4.5-3.3 4.1-3.5 7.2 5.3 1.8 5-7.8-0.3-14.7-65.1-16.2-73.8-7.7-44.2-19-89.6-14.9-134.8 3.1-33.8 17.9-65 21.5-98.6 0.1-0.8 5.4-29.3 7.6-15.5z"  fill="#c2e1ff" /><path d="M168.4-12.3c0.8 9.4 13.6 87.9 10.6 88.4-4.5 0.8-4.2-6.7 0.2-5.6 3.8 1 1.9 6.8-1.7 5.5-8.4-3.2-19.2-80.3-15.5-89.3 1.4-3.4 5.7-2.2 6.4 1z"  fill="#fff500" /><path d="M177-399c3.5 50 20.8 100.4 11.4 150.7-10.6 56.4-48.1 99.9-46.2 159.7 0.5 16.2 17.9 104.5 14.9 110.2-2.7 5.1-9.2-2.5-3.7-4.4 4.6-1.6 5.6 6.5 0.7 6-5.9-0.6-7.2-29.1-8.2-34.3-7.7-44.5-17.1-90.7-5.6-135.4 9.8-38.2 33.9-71 41-110 6-32.6-15.3-133-10.8-143.5 1.5-3.4 5.8-2.1 6.5 1z"  fill="#fff" /><path d="M183.7-62.1c-14.4 58.2 10.6 104.4 8.1 135.7-0.4 5.3-8.7 1.2-4.8-2.3 3.9-3.5 7.1 5.1 1.8 4.9-15.9-0.4-20-126.7-13.1-141 2.3-4.7 8.4-1.9 8 2.7z"  fill="#c2e1ff" /><path d="M190-337.4c16.6 136.9-55.5 156.7-46.8 263.1 2.8 33.6 26.4 125.4 24.3 148.2-0.5 5.4-8.8 1.1-4.8-2.5 4.1-3.5 7.2 5.3 1.8 5.1-6.8-0.3-10.9-43.4-12.1-49.9-8.9-52.3-24.4-108.8-14.2-161.9 7.9-41.4 34.4-75.7 44.1-116.5 7-29.4-2.3-57.1 1.2-85.6 0.5-3.9 5.6-3.4 6.5 0z"  fill="#c2e1ff" /><path d=""  fill="#005bbb" /><path d="M204.3 23.5c0.9 6.3 12.1 51.8 8.1 52.7-3.7 0.8-4.6-5-0.9-5.5 3.7-0.4 4.1 5.5 0.3 5.5-6.1 0-14.3-46.2-13.7-52.5 0.3-3.8 5.3-3.5 6.2-0.2z"  fill="#fff500" /><path d="M211.4 34.4c1 5.3 11.6 40.9 7 42-3.6 0.8-4.6-4.9-0.9-5.4 3.7-0.4 4.1 5.4 0.3 5.4-5.5 0.1-12.7-36.3-12.4-41.5 0.2-3.7 5-3.6 6-0.5z"  fill="#fff" /><path d="M219.7-379.4c-6.8 46.4-6.5 94.9-22.4 139.4-18.9 52.9-55 93.4-53.8 152.5 0.8 40.2 9.9 80.3 16.6 119.8 0.7 4.1 8.6 32.5 1.5 31.1-3.4-0.6-3-5.8 0.4-5.9 3.5-0.1 4.2 5 0.9 5.9-6.4 1.6-7.6-22.7-8.3-26.8-9.8-56-27.4-118.8-13.8-175.3 11.2-46.3 43.9-83.5 55.7-129.8 8.6-34 3.2-82.7 15.4-113 1.9-4.6 7.9-2.3 7.8 2.1z"  fill="#c2e1ff" /><path d="M227.5-87.6c-21.3 37.3-21.3 79.6-13.6 120.8 1 5.3 11.8 43.6 6.6 43.1-13.8-1.3 14.2-4.7 1.2-0.2-5.9 2.1-11.4-31.1-12.4-35.8-8.3-37.8-12.2-78.3 1.4-115.4 9.3-25.3 19.5-19.8 16.8-12.5z"  fill="#005bbb" /><path d="M234.4-368.9c-11 43.3-15.9 88.7-33.1 130.2-21.9 53.2-58.8 93.4-57.2 154.1 1.1 41.2 10.3 82.6 17.3 123.2 0.7 4 8.8 32.3 1.8 31.1-3.4-0.6-3.1-5.7 0.3-5.9 3.4-0.2 4.2 4.9 0.9 5.8-6.4 1.7-8.4-25.7-9.1-30-10-56.8-28.2-121.5-13.3-178.7 12.5-48.2 47.6-86.6 61.7-134.5 8.9-30.1 7.9-70.9 22.5-98.4 2.5-4.7 8.7-1.6 8.2 3.1z"  fill="#c2e1ff" /><path d=""  fill="#fff500" /><path d="M247.8-30.4c2.3 28.8 14.3 55.2 26.4 81 1.5 3.3 13.5 23.4 8.6 25.3-2.6 0.9-4.4-2.8-2.1-4.3 2.7-1.7 5.2 2.7 2.3 4.2-3.8 1.8-5.3-6.2-6-7.9-11.2-26-25-50.9-32-78.5-4.9-19.3 0.5-29.6 2.8-19.8z"  fill="#fff500" /><path d=""  fill="#c2e1ff" /><path d=""  fill="#fff500" /><path d="M270.4-85.3c-10 45.3 11.2 82.5 36.4 118.3 3.1 4.4 29 40.5 23.4 42.8-2.9 1.2-4.5-3.5-1.5-4.4 3-0.8 4.1 4 1 4.5-4.1 0.7-8.2-13.3-9.8-16.1-18.7-33.7-47.2-61.6-56.3-100.1-13.9-58.7 7-49.5 6.8-45z"  fill="#fff500" /><path d="M277.8-240.7c-46.7 46.8-117.9 87.9-123.8 159.9-3.9 47.9 20.7 128.7 18.3 154.3-0.6 6.3-9.8-0.5-4-3 5-2.1 5.1 7.3 0.1 5.4-9.8-3.8-12.9-61.9-14.5-72.5-7.2-47.7-16.2-100.6 8.9-144.8 12.5-21.9 86-95.8 107.6-108.8 6.3-3.8 11.5 4.3 7.4 9.5z"  fill="#c2e1ff" /><path d="M285.2-388.8c-24.9 51.9-48.2 106.8-76.2 157-22.2 39.6-55 73.9-61.9 120.5-5.5 37.5 2.6 76 8.7 112.9 0.7 4.1 8.4 33 0.9 31.3-3.5-0.8-3-6.1 0.6-6.1 3.6 0 4.2 5.3 0.7 6.1-6.5 1.5-7.1-22.9-7.8-26.9-7.3-44.1-18.1-90.9-8.2-135.5 9.6-43 40.2-75.7 61.2-113.2 24.6-44.1 42-92.1 65.8-136.7 2.2-4.2 5-14.3 9.8-16.3 4.6-1.9 7.8 2.9 6.4 6.9z"  fill="#005bbb" /><path d="M280.8-396.4c-19.3 47.2-49.2 118.8-72.6 162.6-17.7 33.3-44.1 62.5-55.9 98.8-5.2 15.9-4.7 84.4-5.2 85.1-3 5.2-9.5-3-3.7-4.7 5.8-1.7 4.8 8.7-0.5 6-5.1-2.6-3.9-22.2-4.3-27.4-4.9-71.9 36.4-114.5 66.8-174.4 22.3-44.1 38.4-113 67-150.8 3.6-4.7 9.8-0.2 8.4 4.8z"  fill="#fff500" /><path d="M297.2-47c10.7 25.4 95.6 104.9 89.5 121.4-1.5 4.1-7.6 0.1-4.5-2.9 2.7-2.6 6.5 1.8 3.6 4.1-2.3 1.9-19.2-34.7-23-39.7-16.8-22.7-40.5-39.2-57.5-61.6-4.1-5.3-10.9-13.1-12.3-19.8-0.6-2.7 2.9-3.5 4.2-1.5z"  fill="#fff500" /><path d="M306.9-190.5c-38.9 50.2-95.7 95.1-100.8 162.7-1.7 22.2 15.2 97.2 13.2 102.4-1.9 4.8-8.3-1.3-3.7-3.5 4.6-2.2 5.2 6.7 0.3 5.1-8.1-2.6-12.3-45.2-13.7-53.3-6.5-40.1-5.6-81.2 14.4-117.7 13.7-24.9 60.5-86.6 82.3-103.7 5.5-4.3 11.1 2.7 8 8z"  fill="#005bbb" /><path d="M310.7-4.9c6.4 7.9 69.5 72 58.1 80.3-3.2 2.4-5.9-3.7-2-4.5 3.9-0.8 3.8 5.8-0.1 4.9-4.4-1-12.1-24.1-15.2-28.7-11.6-17.7-33.9-32-43.2-50.5-0.8-1.6 1.2-2.6 2.4-1.5z"  fill="#fff" /><path d="M306.8-396c-13.5 26.8-32.1 50.8-46.9 76.8-16.2 28.4-29.3 58.4-46.2 86.5-20.4 34-49.7 64.2-61.5 102.7-6.5 21.1-1.7 100.4-1.8 100.6-2.8 5.1-9.3-2.7-3.7-4.5 5.6-1.8 4.9 8.4-0.4 5.8-5.9-2.8-5.5-29.7-6.1-35.8-2.7-27.6-2-55.5 7.6-81.8 13.6-37.4 42.1-67.1 62-101.1 28-47.5 53.4-96.3 81.9-143.5 2.2-3.6 4.9-12.6 10-13.2 4.4-0.5 6.5 3.9 5.1 7.5z"  fill="#fff500" /><path d="M325-14.9c19.9 21 70.6 54.4 68.4 88.2-0.3 4.5-7.5 2.4-5.3-1.5 2.2-4 7.8 1 4.1 3.6-2.2 1.7-18.9-36.1-22.7-41.4-12.6-17.3-29.4-30.7-44.6-45.5-1-1-2.7-5.4 0.1-3.4z"  fill="#005bbb" /><path d="M335.5-395.6c-16.3 27.9-39.6 51.2-58.7 77.2-21.8 29.6-115.4 164.8-123.6 190.6-8.9 28.4 2.7 127.1 2.3 127.8-2.7 5.1-9.2-2.6-3.7-4.4 5.5-1.8 4.9 8.2-0.3 5.8-6.6-3.1-7.5-38.9-8.5-46.3-4-30.6-5.9-62.2 3.6-92.1 14.6-45.8 138.2-205.8 173.1-254.3 2.5-3.5 5.8-12.2 11-12.4 4.6-0.2 6.5 4.5 4.8 8.1z"  fill="#c2e1ff" /><path d="M340.1 49c2.8 4 16.3 21.4 13.3 26-2 3.2-6.5-1.3-3.3-3.3 2.7-1.7 5.2 2.7 2.4 4.1-6.2 3.1-16.8-32.1-12.4-26.8z"  fill="#fff" /><path d="M346.6-50.8c19.2 20.2 44.2 34 61.6 56 7.2 9.1 35.9 61 21.2 71-4.8 3.2-8.3-5.7-2.7-6.6 6.7-1.1 4.1 10.4-1.4 6.6-4.1-2.8-1.7-15.6-2.2-19.9-1.3-14.2-5.3-28.2-12.3-40.7-14.7-26.1-40.4-41.3-61.8-61-0.3-0.3-6.1-8.3-2.4-5.4z"  fill="#c2e1ff" /><path d="M353.6-25.7c29.2 24.6 58.2 46.9 65.7 86.7 0.7 3.7 4 12.2 0.4 15.1-4.2 3.4-8.2-4.7-2.9-6 6.2-1.5 4.6 9.4-0.9 6.3-4.1-2.4-2.6-13.4-3.2-17.6-2-11.9-5.9-23.5-12-34-11.3-19.6-29.1-33.6-46.4-47.7-0.4-0.3-3.3-4.5-0.7-2.8z"  fill="#fff" /><path d="M362.1 56c1.8 3 12.4 18.1 6.5 20-3.3 1-4.6-4.2-1.3-4.9 3.4-0.7 4.1 4.7 0.8 5-8 0.7-10.3-26.2-6-20.1z"  fill="#fff" /><path d="M371.1-168c-1 20.6 3.5 41 13.9 59 34.5 59.2 89.5 76.8 79.1 158.2-0.7 5.8-1.4 26.2-7.6 28.5-7.6 2.8-7.3-11.3 0.2-8.1 7.5 3.2-2.5 13.2-5.7 5.7-1.8-4.1 8.9-62.2 3.2-82.7-13-46.5-58.5-69.9-79.2-111.6-7.5-15.1-11.3-32.1-11.2-49 0-4.9 6.8-4.5 7.3 0z"  fill="#fff500" /><path d="M361.5-395.5c-19.9 32.1-50.3 56.7-74.7 85.3-28.9 33.9-90.5 112.9-114.9 149.1-10.4 15.4-18 32.4-21.5 50.7-1.1 5.6 0 25.6-4.2 28.4-4.8 3.2-8.3-5.8-2.5-6.7 6.7-1 4 10.5-1.6 6.6-4.2-3-1.3-14.4-1-18.7 4.4-57.4 44.8-94.6 77.7-137.7 18.2-23.8 119-155.8 135.6-164.7 5.3-2.9 9.4 3.1 7.1 7.7z"  fill="#005bbb" /><path d="M383-87.9c36.3 44.9 80 72.2 75.3 136.9-0.4 5.7 0 25.6-6.1 28.1-7.3 3-7.5-10.7-0.1-7.9 7.4 2.8-1.9 12.9-5.3 5.8-1.1-2.2 6.2-59.9-1.9-81.7-11.7-31.6-38.3-51.3-60.4-75.3-0.6-0.7-5.5-9.6-1.5-5.9z"  fill="#fff500" /><path d="M393-192.8c-2.3 22.7 1.4 45.7 11.7 66.2 32.4 65 88.6 87.5 70.6 172.6-1.3 6.4-4.1 29.9-10.8 31.8-8.2 2.4-6.8-12.4 0.8-8.5 7.6 3.9-3.6 13.7-6.5 5.7-0.4-1.2 15.3-67 10.8-89.5-10.2-50.5-57.7-79.2-76-125.7-5.6-14.3-12.9-38.6-8.1-54 1.4-4.5 7.3-2.8 7.5 1.4z"  fill="#fff" /><path d="M389.7-395.8c-23.1 38.2-62.4 64.5-93 96.2-34.8 36-94.9 102.4-123 142.2-15.4 21.8-23.5 46.6-24.5 73.2-0.1 3.5 3.1 35.7-4.6 30.1-3.7-2.7 0.8-8.3 4.2-5.2 2.9 2.6-0.5 7.3-3.9 5.4-5.8-3.3-3.1-27.4-3-33.2 0.5-22.2 5.1-44 15.4-63.8 27.9-53.7 146.6-171.5 194-217.1 9.6-9.2 20.4-29.4 31.3-35.4 5.2-2.9 9.4 3.1 7.1 7.6z"  fill="#fff500" /><path d="M406 49.2c1.6 3.9 11.2 27 3.5 27.6-4.4 0.4-4.6-6.5-0.2-6.4 4.4 0.1 3.8 7-0.5 6.4-8.5-1.2-6.8-35.8-2.8-27.6z"  fill="#c2e1ff" /><path d="M411.9-85.9c36.2 41.1 64.7 77.2 55.4 135.3-0.9 5.8-2.1 26.2-8.3 28.3-7.8 2.7-7.1-11.6 0.3-8.2 7.5 3.4-2.8 13.4-5.9 5.7-1.4-3.5 10.5-63.1 5.9-82.7-6.8-29.1-26.2-51-45.8-72.5-0.3-0.3-5.7-9.4-1.6-5.9z"  fill="#fff" /><path d="M409-395.7c-7.2 12.6-16.4 23.8-26.5 34.1-24.4 25-52.7 45.7-77.9 70-30.7 29.7-57.9 62.8-88 93.1-16.3 16.4-33.5 32.4-46.1 51.9-2.8 4.3-11.1 29-18.4 22.3-5.5-5.1 4.7-12.2 7.6-5.3 2.4 5.9-7.1 9.3-8.9 3.1-6.2-21.3 75.4-98.6 91.7-116.3 22.2-24.1 43.8-48.8 67.9-71.2 24.5-22.7 52.1-42.6 74.4-67.5 4.1-4.6 13.6-23.6 20.7-22.3 3.9 0.8 5 4.8 3.5 8.1z"  fill="#fff" /><path d="M426.7-112c35.9 52.8 71.5 91.3 53.4 159.7-1.6 6.1-5.1 28.4-11.8 30.1-8.4 2.2-6.5-12.9 1.1-8.6 7.6 4.2-4.1 13.8-6.8 5.5-1.5-4.7 18.4-67.9 14.8-91-5.6-35.5-29.7-61.5-50.3-89.3-0.8-1.1-4.5-10.9-0.4-6.4z"  fill="#fff500" /><path d="M434.3-9c5.7 9.3 29.9 83.7 10.3 86.3-6.4 0.8-5.5-9.9 0.7-7.9 6.2 1.9 0.8 11.3-4 6.9-4.5-4.1 1.2-24.3 1.3-30.4 0.3-18.5-19-69.9-8.3-54.9z"  fill="#fff" /><path d="M444.2-318.6c-39.4 53.2-93.1 118.5-71.1 189.9 23.5 76.5 104.9 81.9 88.7 185.4-0.7 4.8-0.8 21.1-7.6 21.4-6.9 0.3-4.9-11 1.5-8.4 7.5 3.1-2.4 13.2-5.7 5.8-1-2.2 8.8-62.4 1.4-85.2-24-73.7-104.5-87.5-87.7-182.4 7-39.7 40.9-108.3 72.5-134.2 5.3-4.3 11.1 2.4 8 7.7z"  fill="#005bbb" /><path d=""  fill="#fff500" /><path d="M456.7-172.8c25.2 86.4 103.9 124.9 51.5 225-2.9 5.6-11.5 28.6-19.4 26.6-5.9-1.5-4.6-10.5 1.5-10.3 6.1 0.2 6.7 9.3 0.7 10.4-15 2.7 6.3-28.4 8.1-31.5 13.2-24.1 23.1-49.9 19.8-77.9-5.5-46.6-41.1-81.5-60.1-122.7-10.8-23.5-2.7-20.9-2.1-19.6z"  fill="#fff" /><path d="M452.1-396c-20.7 46.4-168.9 182.1-214.4 218.6-18.8 15.1-39 29.4-53.9 48.5-3.5 4.5-13.8 29.8-20.9 22.7-5.4-5.5 5.3-12.3 8-5.1 2.6 7.2-10 8.9-9.4 1.3 3.2-37.8 101.5-104.2 130-132.7 43.6-43.5 97.3-82.1 134.8-131 6.6-8.6 10.7-19.6 17.5-27.7 3.9-4.7 10.1 0.3 8.3 5.4z"  fill="#fff" /><path d="M473.2-380.7c-42.6 89.7-148.9 154-148.3 263.4 0.2 25 11 47 28.6 64.5 17 17 38 29.7 54 47.8 0.6 0.7-0.5 2.5-1.4 2.4-6.4-1.4-19.8-20-25.6-24.8-43.7-36.2-73.3-70.7-58.1-130.9 22.8-90.6 89.6-137.9 134.3-213.5 2.4-4.1 5.3-14 10.1-15.9 4.6-1.8 7.8 2.9 6.4 7z"  fill="#005bbb" /><path d="M477.5-116c34.6 54.3 58.2 101.8 28.1 164.7-2.9 6.1-10.6 28.9-18.2 29.6-9.6 0.9-4.9-15.1 2.7-9.2 7.6 5.9-6.9 14.4-8.3 4.9-0.8-5 31.5-65.6 32.2-88.8 1-35.6-18-65.9-36.7-94.6-0.8-1.2-4-11.5 0.2-6.6z"  fill="#fff" /><path d=""  fill="#005bbb" /><path d="M494.9-364.9c-28.2 61.4-80.9 121.2-63.9 193.4 18.8 79.7 98.3 115 67 208.9-1.6 4.9-4.4 21-11.5 20.1-5.6-0.7-5.4-9.1 0.1-9.7 6.6-0.6 7 9.8 0.4 9.7-11-0.2 1.9-22.2 3.3-26.3 6.5-18.6 9.9-38.2 7.2-57.9-10.1-71.8-82.9-113.2-76.8-191.4 2.4-31 61.1-152.5 68.8-153.8 4.2-0.7 6.5 3.4 5.4 7z"  fill="#fff500" /><path d="M499.3-83c27.7 46.7 27.6 91.6 2.9 139.5-2.8 5.4-7.3 19.3-12.9 21.8-7.5 3.3-10.2-10-2-9.9 7 0.1 6.3 11.2-0.8 10.3-10.8-1.4 1.5-17.4 3.5-21 10.9-20.1 21.5-41.1 24.1-64.2 4.3-37.6-18-58.6-18.5-75.4-0.1-2.2 2.6-2.6 3.7-1.1z"  fill="#fff500" /><path d="M506.6-87c28.3 47.8 30.1 93.6 2.9 142.3-3.1 5.6-8.7 20.7-14.9 23.1-7.8 3.1-10.1-10.7-1.7-10.2 7.2 0.4 6 11.7-1.1 10.5-11.7-1.9 4.7-21.8 6.9-25.6 11-18.8 21.2-38.6 23.9-60.5 3.8-31.2-11.8-50.2-19.7-78.1-0.7-2.3 2.4-3.3 3.7-1.5z"  fill="#fff" /><path d="M492.1-396.4c-30.3 76.3-109.9 138.2-109.7 224.9 0.1 27.2 10 51.8 26.5 73.2 3.5 4.6 27.3 26.8 26 31.4-0.2 0.6-1 1.2-1.7 1-4.3-0.9-12.6-14-15.7-17.6-35-39.7-51-83.2-36.4-135.8 16.7-60 64.1-103.1 91.5-157.6 3-5.9 6.9-22.7 12.9-25.7 4.3-2.1 7.7 2.2 6.6 6.2z"  fill="#005bbb" /><path d="M523.7-331.3c-22.3 58.3-37 115.9-11.9 176 19.7 47.3 59.4 89 61.5 142.4 1.1 28.7-32.2 99.2-47.2 91.9-6.1-3-2.7-12.6 3.9-11 6.6 1.6 5.3 11.7-1.5 11.6-16.4-0.3 16-34 18.9-38.3 12.3-18.1 19.5-38.6 18.6-60.7-3.1-71.9-69.3-123.8-75.2-196.7-3.2-40 8.8-81.9 24-118.6 2.4-5.8 10.3-2.5 8.9 3.4z"  fill="#fff500" /><path d="M531 55.1c-3.6 5.3-14.2 26.5-22.2 23.3-8.3-3.3 0-15.6 6.2-9.1 5.3 5.5-3.9 13.4-8.6 7.3-9.5-12.5 36.3-43.5 24.6-21.5z"  fill="#005bbb" /><path d="M536.7-188.6c8.4 48 61.9 113.3 64.3 146.4 2.7 37.9 2.8 41.4 2.5 71.2-0.1 12.6-6.5 47.2-23.5 50.4-10.8 2-7.2-16.7 2.1-10.8 9.3 6-6.3 17.1-9 6.4-2.4-9.6 18.6-21.8 20-32.6 3.4-26.1 2.3-57.7 2.9-83 0.6-24.2-40.8-81-51.7-105.8-4.2-9.5-16.4-32-13.5-42.4 0.9-3.2 4.9-2.5 5.9 0.2z"  fill="#fff" /><path d="M537.9-396.1c-34.8 64.1-76.2 149.6-52.8 223.2 14.5 45.4 48.9 81.3 62.7 126.9 2.5 8.3 12.4 64.8-3.2 64.4-7.3-0.2-4.4-11.9 2.1-8.7 6.5 3.2-1 12.6-5.6 7-4.1-5.1 4.9-41.5 3.3-51.5-11.9-74.5-80.1-123.1-73.5-204.2 4.4-53.4 31.8-115.5 57.9-161.8 3.3-5.9 11.4-1.3 9.1 4.7z"  fill="#c2e1ff" /><path d="M552.5-301.7c-17.4 55.3-20.3 110.5 4.2 164.1 9.6 21.1 41.5 63.5 43.1 84.2 2.7 34.4 4.6 67.4 3.7 101.6-0.2 7.1-8.5 36-20.1 30.6-6.1-2.9-2.9-12.5 3.7-11 6.6 1.5 5.5 11.6-1.3 11.6-15.4 0 6.4-22.6 6.8-26.4 3.6-33.4 2.3-72.1 2.8-104.6 0.2-12.7-57.4-106-63-149.1-4.4-34.2 0.7-70.9 11.5-103.6 1.9-5.7 9.6-3 8.6 2.6z"  fill="#005bbb" /><path d="M559.4-235.6c-5.4 41.8 4.4 80.4 22.9 117.8 3.7 7.4 19.8 28.8 18.4 36.5-0.6 3.4-5.8 1.2-3.9-1.6 2.3-3.3 6.1 2.6 2.2 3.3-4.4 0.9-16.8-28.9-19-33.3-19.7-38.4-32.4-77.5-28.7-121.2 0.5-5.8 7.9-8.5 8.1-1.5z"  fill="#fff500" /><path d="M567.1-324.2c-23.5 55.9-32.8 119.3-9.9 176.7 8.4 21.2 41.1 65.2 42.5 84.3 1.8 25.9 3.3 51.8 4.3 77.6 1.9 51.1 0.8 64.1-8 64.8-9 0.7-6.9-14.1 1.6-11 8.5 3.1 0.4 15.7-6 9.4-4.2-4.2 1-27.9 1-31.1 0.1-10.7 0-21.4 0.3-32.1 0.7-25.3 2.3-50.5 2.7-75.7 0.2-10.9-56.9-98.9-59.1-154-1.5-37.3 7-78.1 21.7-112.5 2.5-5.9 10.5-2.3 8.9 3.6z"  fill="#fff500" /><path d="M527.3-396.3c-30.9 63.3-79.1 143.3-60.5 215.9 9.9 38.7 35.2 69.5 53.4 104.4 1.1 2.2 12 19.3 5.1 19.3-11.9 0 11.9-5.2 1.1-0.3-3.9 1.8-5.2-6.2-6-8-26.7-63.7-76.8-110.7-62.5-185.7 7.2-37.8 26.3-72.7 41.5-107.7 3.5-8.1 13.4-43.5 22.6-45 4.3-0.7 6.5 3.5 5.3 7.1z"  fill="#005bbb" /><path d="M578.9-106c2.6 4.8 25 42.6 20.4 44.5-2.9 1.1-4.4-3.5-1.4-4.3 3-0.8 4 3.9 1 4.4-4.2 0.7-8.4-13.9-10-16.9-16.2-32.2-14.9-34.6-10-27.7z"  fill="#005bbb" /><path d=""  fill="#fff500" /><path d="M596 44.2c-3.2 7.3-19.4 40.3-29.9 34.8-7.2-3.8-0.6-14.8 6.1-10.3 6.7 4.6-1 14.8-7.2 9.6-8.8-7.5 40.3-59.8 31-34.1z"  fill="#c2e1ff" /><path d="M602.5-192.5c-0.2 3.7 2.1 14.5-2.7 16-4.5 1.4-6.4-5.8-1.7-6.7 5.4-1.1 5.3 8-0.2 6.7-13.2-3.1 3.3-29 4.6-16z"  fill="#fff500" /><path d="M602.9-220.2c-3.3 14.6-4.7 29.7-3.7 44.7 0.3 4.4 4.6 17.8 1.6 20.9-3.3 3.4-7.6-3.2-3.2-4.9 4.4-1.7 5.6 6.1 0.8 5.8-11.8-0.9-5.6-60-3.8-68.1 1.2-5.5 8.7-3.7 8.3 1.6z"  fill="#005bbb" /><path d=""  fill="#fff" /><path d=""  fill="#fff500" /><path d=""  fill="#fff500" /><path d="M557.7-395.4c-38.6 57.1-69.5 144.7-51.9 213.4 7.8 30.6 43.8 80 46.9 97.6 0.7 3.8-6 2.4-3.8-0.8 2.5-3.8 6.1 3.7 1.5 3.2-5-0.5-15.6-26.1-18.4-30.9-29.9-51.6-46.9-103.2-33-162.8 9.4-40.2 24.2-81.9 44.9-117.7 3.9-6.8 19.8-14.5 13.8-2z"  fill="#005bbb" /><path d=""  fill="#fff500" /><path d=""  fill="#fff500" /><path d=""  fill="#fff" /><path d=""  fill="#fff" /><path d=""  fill="#fff" /><path d=""  fill="#fff500" /><path d=""  fill="#fff" /><path d=""  fill="#fff" /></svg>