<svg width="1200" height="675" viewBox="-500 -500 1200 675" xmlns="http://www.w3.org/2000/svg"><path d="M-500-500h1200v675h-1200z" fill="#000"/><path d=""  fill="#005bbb" /><path d="M-396.1-366.2c11.8 21.7 77.8 199.9 87.2 230.2 2.8 9.1 23.1 69.9 12.9 74-6.2 2.5-8-8.5-1.3-8.1 7.8 0.4 2.1 12.8-3.4 7.1-1.7-1.8-20.9-90.8-26.2-105.4-12.1-33-27.1-64.8-39.2-97.7-10.7-29-18.1-59.3-30.4-87.8-0.3-0.7-5.6-21.3 0.4-12.3z"  fill="#c2e1ff" /><path d=""  fill="#005bbb" /><path d=""  fill="#005bbb" /><path d=""  fill="#c2e1ff" /><path d="M-396.4-25c11.2 16.6 37.6 85.6 19.8 102-5.3 4.9-12.6-3.9-6.8-8.2 6.8-5 12.5 7.8 4.3 9.5-9.7 2-2.9-45.9-4.1-54-0.5-3.9-22.2-60.5-13.2-49.3z"  fill="#fff" /><path d="M-395.8-336.7c17.2 40.3 75.6 218.3 85.5 261.1 5 21.5 7.8 43.5 6.3 65.6-0.5 7.8-0.8 35.7-9.6 38.6-10.2 3.3-9-15.2 0.7-10.7 8.2 3.9-1 15.9-6.9 8.9-5.1-6.2 5.5-33.2 6.3-41.6 2.4-26.6-2-53.1-8.8-78.7-16.6-62.4-54-172.4-76.8-234.5-1-2.8-1.3-17.1 3.3-8.7z"  fill="#fff" /><path d="M-396.3-8.5c5.7 9.7 32.8 83.9 11.6 86.8-7 0.9-7.9-10.1-0.8-10.3 7-0.2 6.7 10.9-0.3 10.3-8.9-0.7-2.4-36.9-3.1-44.1-1.5-14.4-15.5-54.6-7.4-42.7z"  fill="#005bbb" /><path d=""  fill="#c2e1ff" /><path d="M-396.2-89.7c26.9 49.5 55.1 89.5 42.2 148.8-1.1 5.1-1.8 17.8-8 19.7-10.3 3.2-8.8-15.6 0.9-10.7 9.7 4.8-4.3 17.4-8 7.2-1-2.8 10.6-57.6 8.7-73.1-2.9-22.7-12.5-43.2-24.1-62.6-3.3-5.6-17.8-22.2-16.5-28.6 0.5-2.5 3.5-2.5 4.8-0.7z"  fill="#fff500" /><path d="M-395.5-123.6c19.9 62.5 64.8 105.6 48.8 176.3-1.5 6.4-3.1 24.2-10.4 26.2-10.7 2.9-8.5-16.2 1.3-10.9 8.3 4.5-1.9 16.4-7.6 8.8-3-4 13-61.2 10.8-81-4.7-42.5-32.7-75.9-48-114.6-1.8-4.6 2.3-10.5 5.1-4.8z"  fill="#c2e1ff" /><path d="M-394 59.9c0.3 3.8 3 22.3-6.5 18-5.1-2.3-2.5-10.3 3-9.1 6.4 1.4 3.7 11.3-2.5 9.3-14.5-4.8 3.9-32.4 6-18.2z"  fill="#fff500" /><path d=""  fill="#fff" /><path d="M-377.2-389.2c16.8 38 23.7 79.5 39.3 117.9 39.3 96.5 87.6 172.5 53.9 281.6-2.6 8.4-9.9 39.8-20.3 41.1-12 1.5-6.7-18.9 3.1-11.7 9.7 7.2-8.1 18.3-10.3 6.4-2.2-12.6 17.3-41.1 20.9-54.6 10-37 10.5-76.9 4-114.5-10.1-58.2-42.3-106.8-63-161-11.1-29.1-17.7-59.5-28-88.9-0.4-1.1-5.6-26.9 0.4-16.3z"  fill="#fff" /><path d="M-367.4-215c24.1 84.9 76.2 174.6 43.9 263.7-2.6 7-8.1 30-16.6 31.2-11.8 1.7-7-18.4 2.7-11.6 9.8 6.9-7.6 18.2-9.9 6.5-1.9-9.4 11.9-28.7 15.2-37.8 8.1-22.3 12-45.7 10.4-69.4-4.1-59.5-34.1-117.2-50.5-174-1.2-4 0.9-17.8 4.8-8.6z"  fill="#fff" /><path d="M-358.3-157c21.7 70.7 57.1 133.8 30.3 208.9-2.3 6.5-6.6 26.3-14.5 27.6-11.6 1.9-7.2-18.1 2.5-11.5 8.3 5.7-3.8 17.2-9 8.5-4.6-7.7 23.2-47.2 22.8-93.9-0.3-34.6-40.7-127.7-38.7-139.2 0.7-3.7 5.2-3.4 6.6-0.4z"  fill="#c2e1ff" /><path d="M-349.5-66.2c15.3 34.6 29.2 111.6 1.9 143.8-6.3 7.4-16.1-5.4-7.3-9.6 8.8-4.1 12.3 11.7 2.6 11.7-12.8 0 10.1-52.3 11.1-75.3 1-25.5-10.3-45-14.1-68.9-0.6-3.7 4.2-4.5 5.8-1.7z"  fill="#c2e1ff" /><path d="M-340.3-271.2c42.6 106.2 97.1 189.5 45.4 307.7-3.9 8.8-16.1 43.2-27 43.7-12.6 0.6-5.5-20.2 4.1-11.9 8.2 7-6.2 17.8-10.6 8-0.5-1.1 27.6-57 31-66.8 9.8-27.5 13.6-56.7 13.1-85.8-1.4-70.3-33.2-127.3-60.5-190-1.8-4.1 1.5-10.2 4.5-4.9z"  fill="#c2e1ff" /><path d="M-330.7-154.1c22.9 65.1 42 131.9 15.8 199.1-3.2 8.2-9.4 30.7-17.7 34.5-8.1 3.8-13.3-9.2-4.8-12.1 9.8-3.4 11.8 13.8 1.4 12.7-14.4-1.5 4-27.3 6.4-32.5 11-24 18.3-49.3 19-75.9 0.8-30.7-27.1-121.1-26.5-125.2 0.5-3.6 5-3.4 6.4-0.6z"  fill="#005bbb" /><path d="M-320.2-388.2c6 118.6 45.3 130 69.6 224.1 14.1 54.8 3 117.6-16.2 169.9-3.4 9.3-14.2 46.7-25.8 47.5-12.4 0.9-5.9-19.8 3.7-11.8 9.6 7.9-9.3 18.4-10.9 6-1.6-12.7 19.7-40.5 24.5-53.4 13.5-36.9 21.6-77.9 21.5-117.2-0.1-71.9-49-125.8-66-192.9-5.2-20.6-13.2-51.6-9.1-72.8 1-5.3 7.9-4.1 8.7 0.6z"  fill="#fff" /><path d="M-311.8-86.9c13.4 51 11.2 100.1-11 148.2-2.3 5-5.1 15.6-10.5 18.2-9.4 4.4-13.2-12.3-2.8-12.5 8.9-0.1 8.2 13.9-0.6 13-14-1.4 17.1-50.7 22.5-83.6 3.7-22.7-6.5-76.2-4.7-83.3 1-3.9 5.9-3.2 7.1 0z"  fill="#fff" /><path d="M-302.6-108.8c14.6 57.6 13.3 114-13.1 167.9-2.7 5.4-6.3 17.7-12.2 20.2-8.3 3.6-13.3-9.7-4.7-12.4 10.1-3.2 11.6 14.3 1.2 12.9-13.6-1.8 1.8-22 4.1-26.6 10.3-19.9 18.6-40.8 22.6-62.8 6.9-38.2-5.5-64-5.1-98.4 0-4.5 5.9-4.5 7.2-0.8z"  fill="#fff" /><path d="M-293.4-131.9c17.1 63.1 15.3 128.8-14.8 187.7-3.1 6.1-8 20.9-14.7 23.6-9.9 4-12.9-13.4-2.2-12.9 9.1 0.4 7.7 14.8-1.4 13.3-14.3-2.2 4.1-25.4 6.7-30.1 11.9-22.1 21.1-45.4 25.3-70.2 4.2-24.9 3.8-50.4 0.5-75.3-0.9-6.8-10-32.6-5.6-37.6 2.1-2.3 5.3-1 6.2 1.5z"  fill="#fff500" /><path d="M-285.1-262.2c12.9 28 28.5 54.8 37.6 84.3 20.5 66 2 147.4-27.4 208.3-4.7 9.8-21.4 50.3-33.5 50.2-13-0.1-4.5-21.1 4.9-12.1 9.4 9-11.2 18.4-11.9 5.5-0.3-6.8 27.6-46.2 32.5-56.4 17.2-35.8 27.1-75.5 32.3-114.8 7.7-58.6-11.5-104.8-36.7-156.4-1.3-2.7-2.7-16.3 2.2-8.6z"  fill="#c2e1ff" /><path d="M-272.8 14.4c-3.8 9.9-30.6 74.3-43.5 64.6-7.6-5.7 2-17.1 8.9-10.7 6.9 6.4-3.8 16.8-10 9.7-3.9-4.5 29.2-68.1 36.3-71.5 5.4-2.6 9.8 2.9 8.3 7.9z"  fill="#fff500" /><path d="M-264.7-93.1c1.9 49.3-7.8 98.7-30.9 142.5-3.6 6.8-13.8 33.6-24 30.5-10.4-3.2-1.5-19 6.6-11.7 8.1 7.3-6.6 17.9-10.9 7.9-4.5-10.3 25.8-49.9 30.6-61.4 11.6-27.8 19.1-107.9 20-109.7 2.3-4.5 8-2.3 8.6 1.9z"  fill="#fff500" /><path d="M-263.3-397.8c-17.3 150.8 79.7 173.2 33.6 329.6-2.2 7.4-5.9 33.8-14 36-7.7 2.2-10.5-10.2-2.5-11.5 7.9-1.3 9.3 11.2 1.3 11.7-13 0.8-0.8-23.4 0.6-28 10.2-32.5 21.3-66.6 20.7-101-1-57.6-39.9-105.4-49.6-161.3-3.8-22.1-7.8-56.3 0.1-77.8 2.1-5.8 9.7-3.2 9.8 2.3z"  fill="#c2e1ff" /><path d="M-245 74c-9 13.2-20.8-1.3-11.6-6.7 13.2-7.8 13 20-0.1 12-17.7-10.8 22.1-25.3 11.7-5.3z"  fill="#fff500" /><path d="M-235.8 49.7c-4.3 7-16.4 34.1-26.6 30.4-9-3.3-3.1-17.3 5.5-13 10.1 5-1.6 19.6-8.6 10.8-5.6-6.9 14.3-34.3 20.6-37.8 6.6-3.8 12 3.7 9.1 9.6z"  fill="#005bbb" /><path d="M-226.7-50.9c-8.3 22.1-47.9 125.2-67.7 131.2-10.8 3.3-12.2-15.4-1.1-13.8 11.2 1.6 4.6 19.1-4.8 13-10.7-6.9 20.8-43.3 25.5-51.5 8.6-14.9 31.7-79.5 38.5-85.5 5-4.4 11 1 9.6 6.6z"  fill="#005bbb" /><path d="M-220.1-259.1c9.3 25.3 19.9 50.4 22.6 77.4 5.8 61-33.9 152.5-61.5 206.8-5.3 10.5-24.8 55.8-38.1 55.4-9.7-0.3-8.4-15.5 1.2-14.2 9.6 1.3 6.6 16.3-2.7 13.9-15.5-3.9 16.3-40.7 20.3-47.3 27.6-46.5 46.1-100.6 62.1-152.1 8.3-26.6 12.8-53.8 7.8-81.4-3.5-19.2-15.7-38.2-17.9-57-0.4-3.9 4.6-4.6 6.2-1.5z"  fill="#005bbb" /><path d="M-209.4-349.2c1.2 58.4 34.5 111.8 31.8 169.7-2.6 54.6-46.2 140.6-70.4 191.3-5.2 11-33.3 73.5-47.5 68.1-7.8-2.9-4.7-14.9 3.6-13.7 9.6 1.4 6.6 16.4-2.9 13.9-15.2-3.9 19.5-45.3 24-52.9 28.6-49.5 62.4-125.6 78-180.5 17.4-60.8-15.4-113-23.4-172.2-4.1-30.5 5.7-30.7 6.8-23.7z"  fill="#fff" /><path d="M-200.6-398.6c-2.4 101.5 30.3 147 30.4 206 0.1 54.5-33 105-53.9 153.7-3.9 9-18.3 57-29.7 54.8-8.6-1.6-5.3-15 3.1-12.5 7.2 2.2 5.1 13.2-2.4 12.6-14.6-1.2 5.6-32.2 8-37.6 21.8-49.4 54.2-102.2 63.6-155.7 9.7-55.2-21.5-107.3-27-161.5-1.8-17.9-6.1-43.6-1.3-61.1 1.5-5.6 8.7-3.8 9.2 1.3z"  fill="#005bbb" /><path d="M-189.6-21.2c-8.3 12.2-59.5 109.7-71.2 100.4-7.5-5.9 2.4-17.3 9.3-10.5 6.8 6.7-4.3 16.9-10.4 9.5-6.8-8.3 15.2-31.3 19.6-38.3 13.1-20.9 24.1-53.2 42.2-70 6.2-5.8 13.9 2.1 10.5 8.9z"  fill="#005bbb" /><path d="M-183.1-399c3.8 68.7 36.1 155.4 35.2 193.9-1.1 43.6-25.9 81.1-46.3 118-4 7.2-15 38.9-24.5 37.2-7.3-1.4-6.5-12.5 0.9-12.7 8.7-0.3 8.4 13.4-0.2 12.7-14.7-1.1 3.9-27.9 6.5-32.7 19.8-37.9 48.1-75.6 53.5-119.1 6.2-50.3-22-100-29.2-149.2-9.4-65 2.3-58 4.1-48.1z"  fill="#fff" /><path d=""  fill="#c2e1ff" /><path d="M-162-107.5c-32.4 40-53.8 84.5-78.1 129.5-7.1 13-24.3 54.2-39.2 58.4-10.9 3.1-12.1-15.7-0.9-13.9 11.2 1.7 4.4 19.3-5.1 13-10.4-6.9 26.4-51.5 31.6-60.4 21.8-38.1 47.2-110.3 81.6-136.9 7.1-5.5 14.3 3.6 10.1 10.3z"  fill="#fff" /><path d="M-155.2-268c9.3 29.2 14.7 58.6 7.1 88.9-12.6 50.1-62.1 124-86.1 175.1-5.9 12.5-40.1 90.4-56.2 84.2-12.4-4.8 3.3-21.8 9-9.8 4.9 10.2-13.5 14.5-13.6 3.2-0.1-6.9 30.9-48 36.5-58.2 27.2-49.8 50.3-101.5 78.1-151.1 14-25 26.6-51.6 27-80.8 0.2-17.6-7.6-33.4-8.5-50.3-0.2-4.2 5.2-4.6 6.7-1.2z"  fill="#fff500" /><path d="M-146.2-344.1c15.2 43.3 49.2 86.3 43.4 134.2-7.3 60.1-77.4 118.3-106.7 172.2-7.5 13.7-46.6 107.3-62.8 101.8-12.3-4.2 2.4-21.4 8.5-9.9 6 11.6-16.5 13.9-12.9 1.4 3.3-11.7 15.8-24.3 21.9-35 21.7-37.7 38.5-77.9 63.4-113.7 22.6-32.5 53.6-60.9 70.7-96.9 25.9-54.6-13.6-102-31.5-151.9-1.4-4 4.2-5.8 6-2.2z"  fill="#c2e1ff" /><path d="M-136.3-246.7c5.8 23.1 5.3 46.7-2.2 69.3-18 54.4-59.1 101.3-83.9 153-6.9 14.5-48 111.9-66.4 104.8-10.6-4.1-0.2-19.8 7.7-11.7 9.3 9.6-12.2 18.4-12.3 5.1-0.1-7.1 30.4-46.9 36-56.9 25.7-46.4 46.2-94.6 74.8-139.6 15.4-24.1 32.1-48.9 38.5-77.2 3.3-14.9-3.4-33.9 0.5-47.2 1.2-4 6.2-3.1 7.3 0.4z"  fill="#fff500" /><path d="M-128.4-347.3c21.3 41.7 64.2 80.9 61 131.1-4.2 66-80.9 105.6-117 154.3-9.5 12.9-54.2 106.4-66.2 103.1-12.1-3.4 1.1-20.8 7.6-10 5.5 9.2-11.4 14.9-12.5 4.2-1.2-11.5 18.7-35.2 24.2-45.5 15.6-29.1 31.7-57.7 53.2-83 29.2-34.5 73.8-61.2 93.7-102.7 25.9-54-20.4-99.2-45.3-142.9-1.4-2.4-3.6-15.6 1.3-8.6z"  fill="#fff" /><path d=""  fill="#fff500" /><path d="M-110.6-384.3c29.4 42.4 78.8 65.4 107.3 108.2 47.8 71.8-0.6 143.3-39.2 205.3-27.6 44.3-32 78.8-34.3 79.3-22 4.3 16.1-20.2 3.1-2-7.1 10-8.6-7.6-8.3-10.7 8.2-80.6 92.3-133.1 89.6-216.9-2.3-71.7-70.1-101.6-112-149-1.7-2-12.1-20.3-6.2-14.2z"  fill="#fff" /><path d=""  fill="#c2e1ff" /><path d="M-89 21.2c-1.1 12.8 8.8 46.4 6.9 52.8-1.6 5.5-9.5-0.6-4.5-3.5 4.2-2.5 6.8 5.2 1.9 5.7-10.1 1.1-15.8-49.2-13.8-56.5 1.6-5.7 9-3.7 9.5 1.5z"  fill="#fff" /><path d="M-79.4-75.9c-41.3 35.8-74.2 71.7-95.6 122.7-2.8 6.8-7.9 32.9-16.7 32.5-8-0.4-6.7-12.9 1.2-11.7 9.2 1.5 3.5 15.9-4.2 10.7-9.7-6.5 14.1-50.3 18.1-58.8 17.5-37.5 50-89 88.3-108.6 8.7-4.5 14.7 6.7 8.9 13.2z"  fill="#fff500" /><path d=""  fill="#005bbb" /><path d="M-60.4-182.9c-23 50-104.4 94.3-142.5 157.4-7.7 12.8-59.5 115.3-72.5 104.5-7.5-6.2 2.9-17.5 9.6-10.5 5.8 5.9-2.1 15.5-9 10.9-10.3-6.7 27.2-53.1 32.6-62.3 22.7-39.3 42.7-79.6 74.4-112.7 28.4-29.6 66.4-51.1 90.3-84.7 2.9-4.1 5.8-13 12.2-12.2 4.8 0.7 6.4 5.5 4.9 9.6z"  fill="#fff" /><path d="M-51.5-102.4c-37.9 37.8-81.6 66.8-108.5 114.5-8.8 15.7-27.6 74-37.5 65.5-6.1-5.3 2.8-14.4 8.3-8.5 4.7 5.1-2.1 12.8-7.8 8.9-11.1-7.7 22-66.1 27.4-75.8 13.3-24.3 86.3-110.6 110.5-117.7 8.3-2.4 12.3 7.3 7.6 13.1z"  fill="#005bbb" /><path d="M0.3-399.6c126.4 106.9 61.9 202.2 79.4 311.3 1.6 10 18.9 51 18.1 54.9-1 5.1-8.6 0.2-4.4-2.8 3.6-2.6 6.5 4.2 2.2 5.1-6.5 1.2-16.2-30.6-18-35.8-22.6-65.8 3-137.7-8.5-205.6-7-41.4-24-79.3-53.6-109.5-1.9-1.9-19.1-20.2-15.2-17.6z"  fill="#fff" /><path d="M-32.7-70.3c-15.6 31.3-24.9 66.6-9.7 100 6.1 13.4 15.3 25 25.6 35.2 0.4 0.4 11.8 9.3 7.5 10-5 0.7 5-1.3 0.2-0.1-3.8 1-15.8-13.7-18.4-16.4-32.3-33.7-39.2-76.7-22.7-120 1.8-4.7 3.6-13.3 7.9-16.5 5.6-4.3 11.5 2 9.6 7.8z"  fill="#fff" /><path d="M37.8-399.9c68.3 90.9 47.3 181.2 47.9 285.1 0 6.8 7.9 50.3 3.4 51.3-5.4 1.2-5.5-8 0-6.8 5.4 1.2 1.6 9.5-2.8 6.2-16.1-12.1-3.3-165.3-5.8-195.7-3.4-41.2-12.7-82.3-33.7-118.3-3.7-6.4-10-12.9-12.7-19.8-1-2.4 2.1-3.7 3.7-2z"  fill="#fff500" /><path d="M-14.2-146.4c-33.2 57.8-96.4 89.4-131.8 145.6-11.3 17.9-20 37.3-27.1 57.3-1.7 4.7-5.5 29.1-15.2 21.7-4.5-3.5-1.5-10.8 4.2-10.2 6.6 0.8 6.5 10.7-0.1 11.3-11.9 1.2-2.7-18.8-1.4-22.8 35.5-110.3 95.1-120.5 153.8-201.3 13.8-19 18.6-3.8 17.6-1.6z"  fill="#fff500" /><path d="M-9.6 27.9c12.1 14.1 27.5 24.5 42.4 35.3 1.6 1.2 15 9.1 13 11.3 0 0-0.4 0.3-0.5 0.3-2.6 0.8-11.4-8.5-13.6-10.2-14.9-11.2-30.3-21.4-43.7-34.5-1.6-1.5 0.8-3.6 2.4-2.2z"  fill="#c2e1ff" /><path d="M16.5-399.6c108.2 107.6 50.8 202.4 66.3 309.8 2.6 18 38.6 94 37.4 98.8-1.3 5.4-9.2-0.2-4.5-3.2 4-2.6 6.7 4.8 2.1 5.5-5.5 0.8-11.3-19.6-13.2-23.6-54.4-113.7-16.6-144.9-30.5-254-5.2-41.3-18.5-81-44.7-113.9-1.5-1.9-18-23.5-12.9-19.4z"  fill="#fff500" /><path d="M13.1-105.6c-10.1 36.5-9.5 72.7 18.3 101.2 26 26.7 61.6 42.3 79.6 76.6 2.4 4.6-6.8 5.5-5.3 0.4 1.5-5 8.7 0.7 4.1 3.3-1.6 0.9-28.1-35.7-33-40.2-29.3-26.7-68-44.9-77.3-87.1-3.6-16.2-4.8-43 3.2-58.2 3.2-6.1 11.2-2.1 10.4 4z"  fill="#fff500" /><path d="M22.4-123.6c-10.7 38.5-15.8 77.9 12.6 110.3 26.5 30.1 64.8 47.2 81.8 85.7 2.3 5.2-7.7 5.5-5.7 0.1 2-5.4 9.4 1.3 4.2 3.9-1.5 0.7-28.3-40.1-33.4-45.2-29.4-28.9-68.9-48.4-76.5-92.9-3.2-18.6-2.7-48.9 6.6-66 3.3-6.1 11.3-1.9 10.4 4.1z"  fill="#c2e1ff" /><path d="M31-98.8c-1.6 19.3 1 38.6 10 55.8 6.8 12.9 103.1 108.4 84.8 119.7-4.8 2.9-7.8-5.8-2.2-6.5 5.6-0.7 4.7 8.6-0.7 6.9-5.5-1.8-10.4-25.4-13.4-31.1-20.1-37.5-60.7-59-78.8-97.4-6-12.8-13.2-34.7-9.2-48.9 1.6-5.7 9-3.7 9.5 1.5z"  fill="#fff" /><path d="M48.8-399.7c78 124.6 24.9 209.9 41.7 315.6 2.8 17.4 39 101.8 37.5 106.6-1.5 4.9-9 0.7-5.5-3.2 4.1-4.5 8.7 5 2.6 5.5-5.9 0.5-10.9-22.3-12.9-27.1-52.9-127.1-20.3-137.7-28.8-258.6-3.2-45.4-12.9-90.4-35.4-130.3-0.8-1.4-4.4-15.2 0.8-8.5z"  fill="#fff500" /><path d="M46.7-44.3c17.3 31.9 85.2 81.2 82.8 118.3-0.4 5.7-9.5 3.1-6.8-2 2.8-5 10 1.2 5.4 4.6-3.8 2.9-21.8-41.9-26.1-48.1-16-23.6-39.1-41.2-55.5-64.5-1.7-2.4-4.7-14.5 0.2-8.3z"  fill="#005bbb" /><path d="M70.5-399.8c28.3 70.5 33.1 148.7 27.2 223.8-2.4 30.5-6.6 61.3-2.4 91.8 2.2 16 32.5 93.4 31.1 98-1.5 4.9-9 0.7-5.6-3.1 4-4.5 8.7 4.9 2.7 5.4-5.9 0.5-10.3-20.9-12-25.3-40.6-103.2-18.1-141.9-21.1-243.9-1.5-50-9.7-97.2-25.7-144.5-1.3-3.9 4-5.8 5.8-2.2z"  fill="#fff500" /><path d="M64-4c7.7 7.1 74.8 69.6 58.9 80.2-4.5 3-7.7-5.3-2.4-6.1 5.3-0.8 4.8 8.1-0.4 6.6-5.3-1.5-12.2-26.5-15.6-32.1-11.2-18.2-26.9-32.2-42.3-46.6-1.3-1.2 0.4-2.9 1.8-2z"  fill="#005bbb" /><path d=""  fill="#005bbb" /><path d=""  fill="#fff500" /><path d="M100.7-398.9c10.3 66.3 12.4 134.8 8 201.7-2.5 38.6-10 77.5-5.7 116.3 1.7 15.3 28.1 93.1 26.6 97.3-1.8 5.1-9.4 0.4-5.6-3.5 4.4-4.5 8.9 5.5 2.5 5.8-6.2 0.2-8.9-19.3-10.5-23.9-33.6-97.8-17.4-135.8-15.1-232.9 0.9-36.2 0.2-72.7-2.5-108.8-1-13.5-9.8-40.5-5.5-52.8 1.5-4.2 6.8-3 7.8 0.8z"  fill="#005bbb" /><path d="M104.5-266.1c2.6 73.8-18.7 151.3 3.6 223.1 3.7 11.8 44.2 120.1 30.9 120.7-6.7 0.3-4.8-10.7 1.4-8.1 5.3 2.2 1.5 10.4-3.6 7.6-6.6-3.5-8.6-41.1-11.1-49.3-11.8-40.4-31.4-78.5-36-120.8-5.6-52.2 6.4-105.5 6.1-158 0-4.7-1.9-12.7 0.2-17.1 2.2-4.5 7.9-2.4 8.5 1.9z"  fill="#c2e1ff" /><path d="M114.1-108.8c-3.7 49.8 34.3 168.4 30.7 182.9-1.7 6.6-11.8 1.6-7.6-3.7 5-6.3 11.9 5.9 4 7-7.7 1-9.4-37.4-10.9-43.9-10.6-47-27.5-91.1-26-140 0.2-7.1 9.1-10.6 9.8-2.3z"  fill="#c2e1ff" /><path d="M121.3 3.8c5.6 13.4 28.1 58.1 19.9 72-3.4 5.7-11.4-1.8-6-5.5 5.5-3.8 9.6 6.4 3.1 7.5-7.9 1.4-8.2-25.9-9.4-30.9-3.3-13.7-11.6-27.8-13.5-41.5-0.5-3.7 4.3-4.5 5.9-1.6z"  fill="#fff500" /><path d="M131.7-398.2c1.8 96-11.2 190.6-18.4 285.9-0.8 11.1 5.1 64.3 3.2 68.3-3.1 6.4-11.4-2.7-4.8-5.2 5.6-2.1 7.1 7.8 1.1 7.3-11-0.8-9.7-58.2-9.4-66.9 1.2-31.1 6.9-61.8 9.8-92.8 3.7-39.5 4-174 9.5-197.6 1.3-5.4 8.3-3.9 9 1z"  fill="#fff" /><path d="M140.8 58.4c0.8 3.9 6.1 19.2-1.7 19.6-5.8 0.3-5.7-8.8 0.1-8.5 5.8 0.4 4.7 9.4-1 8.4-13.5-2.3-1-32.3 2.6-19.5z"  fill="#fff500" /><path d="M151.2-306.5c-5.9 56.5-30.8 229.8-25 271.2 1.7 12.1 26.1 112.8 15.7 113-5.1 0.1-6-7.5-1-8.7 5.8-1.3 7.4 7.9 1.5 8.6-7.9 0.9-8.7-37.7-9.9-44.1-5.9-30.7-14.9-60.8-17.3-92.1-2.7-35.5 20-191.8 25.2-242.1 0.7-6.8 10.5-18 10.8-5.8z"  fill="#005bbb" /><path d="M160-386c0.6 68.7-7.6 141.3-17.6 209.3-5.8 39.7-17.7 78.7-16.5 119.2 0.4 13.9 22.5 127.1 15.9 127.4-6.8 0.3-4.8-10.8 1.5-8.2 6.3 2.6-0.2 11.8-4.8 6.8-6.9-7.5-6.1-38.5-8.3-49.2-21.4-101.7-6.2-124.6 5.2-221.4 2.7-22.5 12.7-180.1 15.9-186.1 2.4-4.5 8.2-2.2 8.7 2.2z"  fill="#fff500" /><path d="M176.6-398.6c6.1 68.9 1.3 166.5-12.6 234.3-6 29.1-17.2 56.8-23.2 85.9-1.5 7.3-2.1 51.1-9 50.9-8.3-0.2-2.7-13.5 3.2-7.6 5 5-4.8 11.4-7.3 4.7-14-37.5 24-119.1 30.1-159.7 10.2-67.8 12.7-139.5 10.2-207.9-0.2-5.7 7.5-6 8.6-0.6z"  fill="#005bbb" /><path d=""  fill="#fff500" /><path d="M191-399.3c10 60.4 19.4 184.6 6.5 242.9-9.9 45.1-41.8 81.5-48.5 127.6-1.4 9.4 3.6 50.3-2.5 55.1-5.4 4.3-10.4-6-3.7-7.6 6.7-1.6 6.9 9.8 0.2 8.5-7.6-1.5-4.9-26.8-5-32.4-1.1-65.5 43.6-111.1 52.6-173.1 8.1-56.1 1.8-156.2-6.5-213-0.7-4.9 3.9-18.5 6.9-8z"  fill="#c2e1ff" /><path d="M198-72.4c-24.2 29.8-38.8 59-41 97.8-0.3 5.8 0.9 61.3-9.4 51.7-4.1-3.8 1-10.5 5.8-7.7 4.8 2.9 1.3 10.5-4 8.8-7.8-2.6-2.4-34.2-2.3-41 0.7-42.6 8.7-79.1 35.2-113.3 6.5-8.4 23.6-9.2 15.7 3.7z"  fill="#005bbb" /><path d="M206.9-156.7c-10 53.5-52.6 92.4-56.8 148.1-1 12.9 5 79.6 1.1 84.6-5.3 6.9-13-6.1-4.4-7.4 7.3-1.2 6.6 11.1-0.5 9.1-7.4-2.1-3.7-27.6-4-33.8-4.1-80.9 6.8-101 41.9-171.4 4.7-9.4 6.7-26.6 13.2-34.1 4-4.6 10.1-0.4 9.5 4.9z"  fill="#fff500" /><path d="M214.9-310.5c6.2 56.7 30.3 125.7 12.8 181.6-14.3 45.7-57.6 74.2-67.9 122.2-2.3 10.6-2.6 85.8-9.8 85-6.5-0.6-4.9-10.8 1.5-9.4 6.4 1.3 3.7 11.3-2.5 9.2-7.3-2.4-2.7-23.8-2.6-29.4 0.3-36.6 1.1-72.4 19.6-105.1 16.9-30 44.8-53.2 54.1-87.4 13.8-51.1-7.5-111.7-13.2-163-0.7-6 6.3-11.1 8-3.7z"  fill="#c2e1ff" /><path d="M225.2-33.9c-23.3 19.6-41.9 40.2-50.6 70-1.8 6.2-5.9 48.2-16.2 41.8-6.1-3.8 0.4-13.1 6.1-8.7 4.9 3.8 0 11.6-5.6 9-8.1-3.9 1.5-30.6 2.9-37 7.6-34.9 24.6-65 53-87.3 8.4-6.6 17.3 4.7 10.4 12.2z"  fill="#fff" /><path d="M232.9-252.8c8.7 40.1 26.1 82.3 19.6 123.9-8.3 53.7-62 76.7-80.8 124.6-4.1 10.5-12.1 83.5-18.1 82.6-6.7-1-4.6-11.4 1.9-9.8 6.6 1.7 3.3 11.9-3 9.5-7-2.6-1.9-19.9-1.5-25 2.7-35.5 7.2-69.6 29.1-99 18.8-25.2 46.9-43.8 58.4-74 16.5-43-4.3-88.9-12.9-131.2-1-4.8 5.7-6.1 7.3-1.6z"  fill="#c2e1ff" /><path d="M243.3-152.6c-1.4 62.9-61.7 91-78.2 147.1-4.1 14-5.1 77.3-9.2 82.1-5.1 5.9-12.8-4.5-5.7-7.7 8.3-3.7 9 12 0.4 9.1-7.3-2.5-2.2-23.4-2.1-28.9 3.7-94.2 23.1-87.3 68.9-157 9.6-14.6 8.6-34.5 16.9-47.7 2.9-4.5 8.8-1.7 9 3z"  fill="#c2e1ff" /><path d="M253.2 75.3c-12.2 12.7-22.2-4.7-11.6-8.9 15.5-6.2 10.6 23.7-2.1 12.8-17.2-14.7 28.4-23.7 13.7-3.9z"  fill="#fff500" /><path d="M261.4-147.1c5.1 69-56.7 89.6-83.4 142.9-10.1 20.2-13 42.7-15.3 64.9-0.4 4 0.3 22.1-8.9 17.2-6.1-3.3-0.4-12.6 5.3-8.7 5.7 3.9-1 12.5-6.2 8-5.4-4.7 0.4-23.5 1.1-29.7 9.2-82.4 35.9-81.4 79.8-138.6 19.1-25 10.9-41.5 19.1-57.9 2.2-4.4 7.9-2.3 8.5 1.9z"  fill="#005bbb" /><path d="M269-352.1c18.7 46.1 32.8 92.9 67 130.5 36.6 40.3 86.4 66.2 113.7 115 19.2 34.3 25.3 73.1 21 111.9-0.7 6.6-0.9 35.2-10 35.8-6.3 0.5-8-8.8-1.9-10.5 6-1.8 9.7 6.9 4.1 9.9-13.7 7.6-1.9-39.6-1.4-44.4 3.9-34.5-0.9-69-16.5-100.2-31.1-61.9-99.1-90.4-137.1-146.9-7.7-11.5-47.9-92.4-44.7-101.1 1-2.9 4.6-2.4 5.8 0z"  fill="#fff500" /><path d="M277.9-394.2c22.4 44.2 30.3 94.6 55.9 137.2 51.4 85.7 142.2 108.4 145.1 227.2 0.2 7 3 32.4-4.5 36.1-8.6 4.3-10-12.3-0.8-9.6 9.2 2.8-1.2 15.8-6 7.5-5-8.8 2.4-35 1.9-45.8-1.3-27.9-9.3-55.2-22.7-79.6-31.6-57.8-93.8-89.4-125.5-147.4-15.1-27.5-23-57.8-33.5-87.1-11.9-33.3-15.9-47.9-9.9-38.5z"  fill="#c2e1ff" /><path d="M322.9-399.3c15.6 64.3 15.2 125.8 59.9 179.2 24.1 28.8 91.6 90.3 90.7 129.8-0.1 5.4-8.9 3.3-6.5-1.6 2.8-5.7 10.3 2.5 4.3 4.7-2.5 0.9-28.6-56.1-33.4-63.2-30.6-45.1-76.6-77.4-97.3-129.3-10.8-27.1-24.9-120.3-24-121.3 2.2-2.4 5.4-1 6.3 1.7z"  fill="#fff" /><path d="M296.9-322.1c59.5 168.1 209.6 158.4 175.3 345.8-1.7 9.4-4.9 50.9-13.9 54.7-9.3 3.9-9.6-13.6-0.2-10 9.4 3.6-2.4 16.4-6.8 7.4-5.9-12.2 9.4-48.4 11.9-61.9 6.5-35.5 6.5-71.3-6-105.6-25.2-69.8-93.2-101-133.4-159.5-12.5-18.3-30.9-46.9-33.2-69.5-0.4-4 4.7-4.6 6.3-1.4z"  fill="#fff" /><path d=""  fill="#005bbb" /><path d="M315.5-121c26.6 73.7-20.2 119.7-69.9 166.4-7.1 6.7-26.2 35.6-35.4 35.2-11.3-0.4-6.6-18.6 3.5-13.4 8.6 4.4 1 17.6-7.2 12.3-14.6-9.5 82.5-96.3 91.7-110.5 9.8-15.1 15.8-32.3 16.4-50.4 0.4-13.5-4.8-25.4-5.6-38.4-0.3-4.1 5.1-4.5 6.5-1.2z"  fill="#fff" /><path d=""  fill="#fff" /><path d="M336.5 9.8c-5.2 11.6-38.2 77.5-53.7 70.3-9.1-4.2-1.7-18.3 7-13.1 8.6 5.2-0.3 18.4-8.3 12.3-10.3-7.8 12.3-26.8 16.7-32.7 8.9-11.7 17.5-36.4 28.8-44.7 5.7-4.2 11.5 2.2 9.5 7.9z"  fill="#005bbb" /><path d="M344.1-327.5c15.8 148.7 172.3 167.6 134.1 353.4-1.9 9.2-5.6 48.9-14.3 52.4-9.4 3.8-9.5-13.8 0-10.1 9.4 3.7-2.6 16.5-7 7.4-5.5-11.8 9.6-46.9 12.3-59.8 6.7-32.7 8.6-65.7 0.7-98.4-18-74.5-81.5-113.3-114.7-178.2-9-17.6-21.7-46.4-19.3-66.7 0.6-5 7.1-4.4 8.2 0z"  fill="#005bbb" /><path d="M354.8 7.8c-3.3 11.2-24.5 76.6-39.4 72.3-8.9-2.6-4.1-16.4 4.5-12.8 8.6 3.5 2.3 16.7-5.9 12.3-10.5-5.7 7.9-26.9 11-32.9 6.3-11.9 10.9-35.9 20.2-44.9 4.6-4.5 10.7 0.6 9.6 6z"  fill="#fff500" /><path d="M362.9-49.2c3.2 34.4-8 68.4-22.5 99.1-3.3 7-11.7 33-21.9 30.3-8.9-2.4-4.3-16.1 4.2-12.8 10 3.9 0.1 18.7-7.3 10.9-6.9-7.2 10-27.2 13.4-34 18-36 23.3-90.1 25.7-95.2 2.1-4.4 7.7-2.4 8.4 1.7z"  fill="#fff" /><path d=""  fill="#fff500" /><path d="M382.5-390.2c-13.9 38.8-20 83.3-6.7 123.1 32.9 98.5 127.3 121.8 109.8 263.5-0.9 7.6-1.6 36.2-9.8 39.4-7 2.7-10.7-8.5-3.4-10.4 7.2-2 9.7 9.6 2.3 10.7-12.3 1.9-2.2-24.9-1.4-29.3 5.5-28.8 6.6-57.9 0.7-86.7-17.7-85.2-94.9-130.9-111.4-208.9-7.2-34-2.8-72.4 8.7-105 2.6-7.4 12.7-3.6 11.2 3.6z"  fill="#fff500" /><path d="M391.7-347.3c-36.5 104.5 70 171.4 92 265.8 9.9 42.6 4.2 84.2-6 126.2-1.6 6.5-4 36.8-13.9 34-6.1-1.7-4.6-11.1 1.7-10.7 6.3 0.3 6.9 9.8 0.6 10.9-13 2.1-1.3-27.9-0.1-32.9 8.8-36.3 17.1-72.6 12.7-110.1-10.7-92.3-80.1-132.3-100.3-209.3-5.6-21.5-9.3-58.3 2.7-78.6 3.7-6.1 11.7-1.5 10.6 4.7z"  fill="#005bbb" /><path d="M400.6 46c-1.2 6.6-1.8 32.3-10.4 32.9-8.6 0.6-6.5-13.5 1.5-10.5 6.9 2.6 2.2 13.2-4.4 9.9-14.1-7.2 14.9-58.6 13.3-32.3z"  fill="#fff" /><path d="M410.4-341.6c-11.6 24.5-15.8 52-9.7 78.6 13.3 57.7 61.2 101.9 79.4 158.6 15.7 49 12 96.8 0 146-1.6 6.7-4.9 40.1-14.9 37.3-6.1-1.7-4.6-11.1 1.8-10.8 6.4 0.4 6.8 9.9 0.6 10.9-12.9 2.1-1.4-27.4-0.3-32.2 8.6-35 17-69.9 14.1-106.2-7.6-92.7-72.5-134.2-89.7-209.9-5-21.9-6.4-59.2 7.9-78.4 4.6-6.1 12.6-0.4 10.8 6.1z"  fill="#c2e1ff" /><path d="M415.7-394.6c-99.1 132.8 58.3 212 72.2 338.6 2.2 20.2 5.7 57.8-5 76-4.3 7.4-14.9-2.3-7.8-7.2 7.1-4.9 12.5 8.3 4.1 9.8-12.2 2.2-2.5-25.8-1.8-30.4 3.3-22.3 3.5-44.9-0.3-67.2-15-87.6-97-143.5-103.2-221.9-2.5-31.2 6.3-84.7 31.3-106.9 6.4-5.7 14 2.5 10.5 9.2z"  fill="#005bbb" /><path d="M428 16.5c-0.7 8.6-4.2 64.4-14.6 62-7-1.6-3.9-12.4 2.8-10.1 6.8 2.3 2.6 12.8-3.9 9.8-6.2-2.9 2.4-58.5 6.6-65 3-4.6 9-1.5 9.1 3.3z"  fill="#fff" /><path d="M437.2 10.4c-0.5 8.9-4.5 70.5-15.3 68.2-7-1.5-4-12.4 2.8-10.2 6.8 2.3 2.6 12.8-3.9 9.8-7.6-3.5 0.1-24.3 1.1-30.1 1.8-10.6 0.5-31.9 6.3-40.8 2.9-4.6 8.9-1.6 9 3.1z"  fill="#005bbb" /><path d=""  fill="#fff500" /><path d="M454.8-37.5c2.8 17.2 0.4 104.2-11 114.7-6.2 5.7-13.2-6.4-5.3-8.9 8-2.6 9.4 11.3 1 10.3-10.8-1.3 1.4-38.5 2.6-45.1 2.8-15.9 1.4-62.8 4.8-72 1.6-4.2 7-2.8 7.9 1z"  fill="#fff500" /><path d="M463.3-73.9c8.8 26.9 9.4 136.3-7.6 151.4-6.4 5.7-13.3-6.7-5.1-9.1 8.2-2.5 9.3 11.6 0.8 10.4-10.1-1.4 8.4-70.9 9.5-81.3 2.7-23.7-6.8-93.5 2.4-71.4z"  fill="#c2e1ff" /><path d="M474.9-373.1c-26.6 29.3-50.3 64.8-48.5 106 2 43.1 29.2 80.6 45.5 119.3 23.7 56.3 29.9 113.1 16.1 172.7-1.4 6.3-3.3 30.8-12 31-8.9 0.2-6-14.3 2.1-10.7 8.2 3.6-0.6 15.5-6.4 8.8-4.7-5.3 13.9-67 15.1-90.5 5-101.3-71.9-169.7-69.6-246.7 0.7-24.1 25.1-92.4 49.3-101.8 7.7-3 12.4 6 8.4 11.9z"  fill="#c2e1ff" /><path d="M482.8-240.4c6.6 124.6 54.8 141.9 12.6 287.5-1.9 6.4-4.6 31.7-13.1 31.8-10.4 0.2-4-16.8 3.7-9.7 6.6 6-5.5 14.5-9 6.3-3.2-7.7 25.7-103.9 26.7-125.2 2.9-64.3-22.3-124.2-29.2-187.2-0.7-6.4 6.7-11 8.3-3.5z"  fill="#005bbb" /><path d="M491.5-203.7c17.6 98.1 34.5 152.3 5.2 252-1.8 6.2-4.4 30.4-12.9 30.5-8.9 0.1-6-14.4 2.2-10.8 9.6 4.3-3.5 17-7.5 7.3-3.2-7.8 25.4-99.7 26.9-119.8 2.2-30.7-22.5-156-21.4-159.6 1.2-4.1 6.4-3.1 7.5 0.4z"  fill="#c2e1ff" /><path d=""  fill="#fff" /><path d="M511.5 1.3c-2.2 10.1-17.2 80.9-27.7 77.5-7.3-2.4-2.9-13.6 4.1-10.5 7 3.1 1.4 13.9-5.2 10-8.1-4.8 13.8-71.7 18.5-80.8 3.1-6 10.9-2.2 10.3 3.8z"  fill="#c2e1ff" /><path d="M520.4-36.5c-1.1 13.4-20.9 119.8-34.2 115.4-7.3-2.4-2.9-13.7 4.1-10.5 7 3.2 1.4 13.9-5.2 10-8.7-5.2 7-39.4 9.4-47.1 4.7-15.5 9.8-60.7 16.7-71.1 3.1-4.6 9.1-1.5 9.2 3.3z"  fill="#c2e1ff" /><path d="M530.2 39c-2.5 7.3-9.1 40.6-18.3 40.2-9.3-0.4-5.4-15.2 2.9-11 7.1 3.6 0.8 14.4-5.9 10.1-7.3-4.8 6.7-41 11.7-45.7 4.8-4.5 10.9 0.8 9.6 6.4z"  fill="#fff" /><path d="M537.8-194.6c14.7 90.1 26.9 155.5-5.1 244-2.2 6.2-6.3 30.2-15 29.8-10.9-0.5-3-17.8 4.5-9.9 6.5 6.7-6.8 14.8-9.8 6-2.8-8.1 30-94.2 32.3-114.3 3.6-31.6-16.7-150.2-14.6-156.2 1.4-4.2 6.6-3 7.7 0.6z"  fill="#fff" /><path d="M548.5-3.6c-2.5 10.7-22.3 86.6-33.4 82.2-7.4-2.9-2.2-14.4 4.8-10.6 7.1 3.7 0.7 14.5-5.9 10-7.6-5 19.1-76.1 24.2-85.6 3.2-6 11.1-2 10.3 4z"  fill="#fff500" /><path d="M556.1-144.7c13.7 69.7 16.4 128.5-8.5 196-2.3 6.2-6 28.3-14.8 27.8-11-0.7-2.8-18.1 4.8-9.9 6.4 6.9-7.1 14.8-10 5.8-2.5-7.6 26.5-79.9 29.3-96.4 10.6-62.7-12.6-119.9-7.3-125.3 2.3-2.4 5.6-0.8 6.5 2z"  fill="#005bbb" /><path d="M565-247c2.6 10.1 35.1 95.8 34.6 96-3.3 1.5-5.4-3.8-2-4.9 3.5-1.2 5 4.4 1.5 5.1-9.8 2.1-40.8-84.1-41.1-95.1-0.1-4.4 5.5-4.6 7-1.1z"  fill="#fff" /><path d="M575.1-329.3c0.8 22.2 5.4 44.2 12.7 65.2 2.6 7.4 14.7 25.8 13.5 32.8-0.7 4.2-7.3 1.5-4.9-2 2.8-4.1 7.7 3.1 2.8 4.2-13.7 2.9-34.8-88.7-32.7-100.7 0.9-5.3 7.8-4.2 8.6 0.5z"  fill="#c2e1ff" /><path d="M585-375.5c-3.8 31.4-0.6 63.1 9.2 93 1.4 4.3 9.4 18.1 6.9 22-2.5 4-8.1-1.5-4.1-4.1 3.9-2.6 6.7 4.7 2 5.5-18.1 2.6-28.4-105-23.7-118.5 2-5.8 9.6-3.3 9.7 2.1z"  fill="#fff" /><path d="M561.9-396.2c-48.8 114.5-5.6 202.8 8.7 317.5 1.1 8.7 8.4 58.1-3.1 59.9-6.8 1.1-7.9-9.8-1-10.1 6.9-0.3 6.8 10.6-0.1 10.2-5.8-0.4-4.6-65-6.1-74.9-10.8-74.2-39.4-149.2-31.7-225.1 2.5-24.6 7.7-63 22.6-83.5 4.4-6.1 12.5-0.5 10.7 6z"  fill="#005bbb" /><path d=""  fill="#005bbb" /><path d="M604.2 57.9c-1.7 5.2-4.1 24.6-13.4 21-7.4-2.9-2.3-14.3 4.9-10.7 6.1 3.1 2.4 12.6-4.3 10.9-9.1-2.4-0.8-23.4 3.1-27.2 4.6-4.5 10.7 0.5 9.7 6z"  fill="#005bbb" /><path d=""  fill="#fff500" /><path d=""  fill="#005bbb" /><path d=""  fill="#005bbb" /><path d=""  fill="#fff" /><path d=""  fill="#fff" /><path d=""  fill="#005bbb" /><path d=""  fill="#fff" /><path d=""  fill="#fff500" /><path d=""  fill="#c2e1ff" /></svg>