<svg width="1200" height="675" viewBox="-500 -500 1200 675" xmlns="http://www.w3.org/2000/svg"><path d="M-500-500h1200v675h-1200z" fill="#000"/><path d=""  fill="#fff" /><path d=""  fill="#fff" /><path d=""  fill="#fff" /><path d=""  fill="#fff500" /><path d=""  fill="#fff" /><path d=""  fill="#005bbb" /><path d=""  fill="#c2e1ff" /><path d=""  fill="#005bbb" /><path d=""  fill="#c2e1ff" /><path d=""  fill="#fff500" /><path d=""  fill="#fff500" /><path d=""  fill="#fff500" /><path d="M-391.7-289.9c16.5 52.9 6.5 106.5 8.5 160.6 1.2 33.7 14.7 117-11.1 143-6.9 6.9-15.6-6.7-6.5-10.1 9.1-3.4 11.4 12.6 1.6 11.8-13.2-1 3.5-27.9 5.1-33.1 7-23 6.9-46.9 5.3-70.7-3.9-57.3 4.5-116.9-3.8-173.5-4.3-29.1-4-39.7 0.9-28z"  fill="#c2e1ff" /><path d="M-380.8-7.1c-1.9 6.4-10.3 37.5-21.2 30.4-7.3-4.8 0.9-15.8 7.5-10.3 6.7 5.5-2.6 15.6-8.6 9.4-9.9-10.2 28.1-55.1 22.3-29.5z"  fill="#c2e1ff" /><path d="M-371.9 16.2c-3.8 7.2-21 41.6-31.5 31.5-6.9-6.6 4.1-17 10.3-9.7 6.2 7.3-5.9 16.5-11.3 8.5-4.3-6.4 18.7-37.4 25-39.5 5.9-1.9 9.6 4.2 7.5 9.2z"  fill="#c2e1ff" /><path d="M-365.9-302.1c25.9 58 11.4 115 12.7 175.7 1.3 58 12.2 112.8-25.1 162.8-4.2 5.7-11.8 18.9-19.1 20.2-9.7 1.6-11.4-13.8-1.7-14.3 9.8-0.6 9.9 14.9 0.1 14.4-19.7-1 15.3-35.7 18.7-40.6 16.4-24.5 22.6-52.4 22.1-81.6-0.4-25.7-3.9-51.3-3.9-77 0-40.1 8.8-80.4 1.6-120.3-2-10.9-12-28.1-11-38.5 0.3-3.2 4.2-3.2 5.6-0.8z"  fill="#c2e1ff" /><path d="M-355.8-92.3c3.8 47.2 1.6 90.7-27.8 129.9-3.3 4.5-7.6 12.8-13.4 14-9.5 1.9-11.7-13.2-2.1-14.1 11.3-1 8.9 17.6-1.7 13.8-12.2-4.4 26-50.4 31.2-65.7 9.1-26.8 1.3-51.9 5.7-78.3 0.8-4.9 7.2-4 8.1 0.4z"  fill="#fff500" /><path d=""  fill="#005bbb" /><path d="M-306.6-399.8c29.6 46.3 65.6 94 61.9 151.8-3.3 52.8-32.4 99.9-36.3 153.1-0.8 10.4 1.8 75.5-9.9 76.5-9.4 0.8-4.7-14.9 2.7-9 6.3 5-4.1 13.5-7.7 6.2-4.5-8.8 3.8-35.5 4.3-45.9 4.5-92.1 34.9-134.2 38.2-189.5 3.1-52.6-28.6-96.2-55.5-138.5-1.7-2.7-1-8.7 2.3-4.7z"  fill="#fff" /><path d="M-330.3-276.9c14.8 47.9-0.2 95.4-2 144-2.5 67.2 12.3 128.6-37.4 183-5.9 6.5-18.8 24.1-28.1 24.7-10.3 0.8-10.6-15.5-0.3-15.1 10.3 0.4 8.8 16.5-1.4 15.1-20.7-3 24-39.4 28.4-44.7 18-21.1 28.7-46.2 31.4-73.8 3.1-32.3-2.5-64.7-1.3-97 1.5-40 13.4-79.9 7.1-120-0.1-0.7-1.5-28.8 3.6-16.2z"  fill="#fff" /><path d="M-322.5-310.2c33.5 63 7.8 120.8 4.8 186.7-3.1 67.3 8.3 127.5-43.8 180-6.5 6.5-21.2 24.6-30.7 24.9-10.5 0.4-10.2-16.2 0.3-15.4 10.5 0.8 8.3 17.2-2 15.3-20.7-3.8 29-42.1 33.8-47.5 21.4-23.9 32.3-53 34.1-84.8 1.8-32.5-2.5-65 0.8-97.5 4-38.3 17.4-76.3 11.9-115.1-2.2-15.6-17.7-59.8-9.2-46.6z"  fill="#fff" /><path d="M-311.1-25.1c-5.9 40.7-60.1 117.3-77.1 105-8.5-6.2 2-19.1 9.8-12.1 7.8 7.1-4 18.8-11 10.9-8.4-9.4 38.6-44.7 45.5-53.9 11.6-15.6 16-44 23.9-53.9 3.5-4.4 9.2-0.7 8.9 4z"  fill="#fff" /><path d="M-303.6-266.6c9.4 44.4-7.5 87.5-11.6 131.5-7.2 78.2 14 136.9-50.9 197.7-5.6 5.2-18.2 20.9-26.8 18.3-13.8-4.2 1.8-23.7 9-11.2 6.1 10.7-13.4 16.7-14.4 4.5-0.7-7.8 57.8-37.7 70.8-100.7 7.7-37 0.4-75.3 3.3-112.8 2.9-37.3 16.2-73.9 14.6-111.5-0.4-9 2.5-27.7 6-15.8z"  fill="#c2e1ff" /><path d="M-276.7-399.6c17.1 42.5 45.5 80.9 48.3 128.1 3.5 58.4-32.2 108.5-40.7 164.9-1.4 9.5 0.5 52.7-7.2 57-5.6 3.1-10-6-4.1-8.4 6.9-2.9 9.2 9.3 1.6 9-9.4-0.3-2.7-28.9-2.3-34.5 4.8-65.3 39.2-116.6 43.8-175.9 3.9-52-25.7-92.2-44.7-137.9-1.5-3.5 3.5-5.4 5.3-2.3z"  fill="#c2e1ff" /><path d="M-284.9-33.3c-4.2 36-18.2 69.1-43.5 95.3-5.6 5.8-19.8 24.5-28.9 17.9-7.3-5.3-0.6-17 7.7-13.5 9.7 4.2 2.2 19.1-7 13.9-12.7-7.3 33.5-45.3 39.4-54.2 13.3-19.9 14.2-40.8 22.9-61.9 2.3-5.5 9.5-2.8 9.4 2.5z"  fill="#c2e1ff" /><path d="M-278.1-399.5c17 41 44.4 78.3 48.6 123.7 5.1 55-26 101.5-37.2 153.4-7.9 36.7-13.8 164.1-39.7 164.5-12.3 0.2-4.7-19.7 4.4-11.4 9 8.3-10.2 17.6-11.1 5.3-0.5-6.6 21.9-46.6 24.9-59.9 7.8-35.8 5.3-72.8 13.1-108.6 8.1-37 26.9-70.5 34.3-107.6 11.4-57.2-16.9-101.1-39.7-150.8-1.3-2.8-2.1-16.2 2.4-8.6z"  fill="#c2e1ff" /><path d="M-269.9-381.2c17.6 36.7 39.4 71.7 40.9 113.7 1.8 50.5-25.7 93.5-36.9 141.2-13.6 58.3-3.1 119.5-39 171.5-3.2 4.7-8.2 14.8-15.2 14-11.2-1.4-5-19 4.6-13.1 11.2 7-7.2 20.6-10.6 7.8-2.5-9.4 24-37.5 28.5-47.9 17.7-41.5 12.9-87 20.9-130.4 6.7-36.2 23.9-68.8 33.3-104.2 14.2-53.5-4.4-96.8-28.2-144.1-1.2-2.3-3-15.8 1.7-8.5z"  fill="#c2e1ff" /><path d="M-258.7-87.4c-6 43.1-18.2 147.6-65.9 167.9-11.1 4.7-14.8-14.9-2.8-14.6 12 0.4 7.1 19.7-3.6 14.4-12.6-6.3 31.1-44 43.3-72.5 14.1-33 9.3-70.6 19.7-97.5 2.1-5.6 9.4-2.9 9.3 2.3z"  fill="#005bbb" /><path d="M-259.5-399.2c13.7 48.9 43.8 90.2 40.4 143.2-3.9 60.9-41.6 115.6-48.4 191.5-0.2 2.5-4.6 18.6-9.6 8.1-7.7-16.1 21.9 3.4 4.1 2.7-9.5-0.4-2.6-26.4-2-31.9 5.8-60.4 39.9-111.8 46.4-171.2 7.6-68.4-34.8-101.2-37.3-141.2-0.3-4 4.9-4.4 6.4-1.2z"  fill="#fff" /><path d="M-240.4-399.2c6.6 44.3 31.9 82.9 32.2 128.7 0.5 62.3-38.8 114.9-48.6 175.3-2.4 14.7-9.3 122.7-29.5 119.5-11.1-1.8-1.1-18.5 5.7-9.6 5.8 7.6-8.5 14.3-10.7 5-2.6-11.5 13.6-39.4 16.2-52.3 6.8-34.7 7.1-70.3 17-104.5 10.2-34.9 28.5-66.9 36.7-102.3 7.6-33.1 4-65.4-6.7-97.4-4.9-14.6-24.1-47.7-19.5-62.8 1.2-3.9 6.1-3 7.2 0.4z"  fill="#fff500" /><path d="M-231.9-200c-10.2 28.7-23.3 56.1-29.5 86-8.5 41.4-5.5 84.4-20.3 124.6-5.3 14.2-34.7 75.9-55.1 70.3-11.7-3.2-2.3-21.1 7-13.2 10.9 9.2-11 20.8-12.5 6.7-0.9-8.4 15.1-17.5 20.1-22.8 13.5-14.1 24-30.7 31.2-48.9 18-45.6 12.2-96 25.1-142.8 5.5-19.9 12.3-48 24-65.1 3.9-5.8 11.5-0.8 10 5.2z"  fill="#fff" /><path d="M-223.1-132.1c-25 65.8-22.2 139.4-67 197.4-3.5 4.6-9.2 14.4-15.4 15.3-9.8 1.5-11.4-14-1.5-14.5 11.6-0.5 8.3 18.4-2.4 14.1-12.5-5.1 27.9-47.6 39.4-76.4 16.6-41.6 19-86.8 32.6-129.2 3.5-11.1 18.2-23.6 14.3-6.7z"  fill="#fff500" /><path d=""  fill="#fff500" /><path d=""  fill="#fff" /><path d="M-196.7-34.2c-8.1 16.1-53.2 110.5-63.7 114.1-9.8 3.5-12-13.7-1.6-12.7 10.4 1 5.1 17.5-3.9 12.2-3.2-1.9-4.2-6.2-2.2-9.3 12.2-18.5 52.5-105.1 62.3-112.1 5.5-3.9 11 2.2 9.1 7.8z"  fill="#fff" /><path d="M-188-1.1c-7.3 10.2-49.5 85.4-57.9 79.8-7.2-4.8 0.9-15.7 7.5-10.2 6.7 5.5-2.6 15.6-8.6 9.3-8.3-8.6 39.9-79.8 49.2-87.8 6.2-5.4 13.3 2.5 9.8 8.9z"  fill="#fff" /><path d="M-179.3-101.9c-9.8 25.4-71.7 176-88.6 181.5-10.1 3.3-11.8-14.2-1.3-12.9 10.5 1.3 4.7 17.9-4.3 12.3-10.1-6.2 18.7-42.3 22.9-50.1 23.4-43.7 40.4-89.9 60.5-135 3.1-7 12.6-2.8 10.8 4.2z"  fill="#005bbb" /><path d="M-170.6-124.1c-9.8 27.7-79.3 197.9-97 203.8-10.1 3.3-11.8-14.2-1.3-13 10.5 1.3 4.7 17.9-4.3 12.3-9.7-6 23.7-51.4 28.1-60.2 17.8-34.6 49.5-125.7 64.5-148 3.9-5.8 11.4-0.9 10 5.1z"  fill="#fff500" /><path d="M-162.2-237.1c-6.4 41.3-55.8 173.5-72.7 222.7-4.6 13.5-36.7 102.1-55.3 94-10.1-4.4 0.6-19.3 7.9-11 7.4 8.3-8.7 17.2-11.8 6.7-2.5-8.1 13.7-22.5 17.8-28.9 12.9-20.1 22.7-42.1 30.8-64.5 11-30.5 18.7-62.1 29.4-92.7 15.1-42.9 33.3-83.7 44-128.1 1.5-6.4 10.3-4.6 9.9 1.8z"  fill="#fff500" /><path d="M-153.2-148.6c-9.9 37.9-80 206.9-106.3 227.3-9.7 7.5-15.6-12.9-3.4-11.7 10.4 1 5.1 17.5-3.9 12.2-9.2-5.4 31.3-66.9 36.5-77.1 17.8-34.5 36-69.3 50.5-105.3 5.2-13 8.3-40.6 17.5-50.5 4-4.3 9.9 0 9.1 5.1z"  fill="#005bbb" /><path d="M-144.8-220.2c-11.2 81.3-46.9 159.2-82.4 232.4-5.1 10.4-30.5 72-43.7 67.4-11.7-4 2.3-20.4 8-9.4 4.9 9.4-12.1 14-12.5 3.4-0.2-5.1 50.1-93.1 59.5-114.3 17.5-39.1 34.7-78.7 47-119.8 4-13.4 8.8-54.7 15.3-63.4 3.3-4.4 9-1 8.8 3.7z"  fill="#005bbb" /><path d=""  fill="#fff500" /><path d="M-127.3-131.3c-2.6 21.7-7.7 43-17 62.8-6.1 13-87.9 141.4-94 146.7-7.6 6.6-15.7-8.1-6-10.9 11.4-3.3 9.4 17.2-1.1 11.8-14.2-7.3 64.6-112.9 73.6-126.1 18.8-27.4 34.6-86.3 35.7-87.9 3.2-4.4 8.9-1.1 8.8 3.6z"  fill="#005bbb" /><path d="M-120-319.8c12 48 19.9 97.1 32.7 144.9 26.1 97.7 61.1 144.1-35.5 213.3-13.1 9.4-39.9 41.7-47.9 41.5-14.7-0.4-0.3-22.8 6.1-9.7 5.5 11.2-16.1 12.9-12.4 1 15-48.7 101.7-58.4 110.6-124.2 5.4-40.7-16.6-81.9-27.4-120.1-12.1-42.9-18.3-87.2-29.2-130.5-1.2-4.7-3.8-10.5-3.8-15.4 0-4.2 5.4-4.4 6.8-0.8z"  fill="#fff" /><path d="M-110.2-130.9c0.2 24.1-2.3 48.2-12.5 70.3-17 37-50.6 63.7-74.2 96.2-5.2 7.1-25.6 48.9-34.9 43-8.4-5.4 3.3-17.2 8.7-8.7 5.4 8.4-10.2 14.2-11.6 4.3-2.9-21.1 71.9-99.4 87.2-119.2 31.7-41 19.5-70.6 29-88.1 2.3-4.3 7.8-2 8.3 2.2z"  fill="#fff" /><path d="M-102.5-354.9c8.9 40.3 30.2 81.2 55.2 113.9 73.5 96.4 154 86.1 176.5 232 0.8 5.3 7.6 29 0.9 31.6-4.3 1.7-7.6-4.5-3.7-7 4.5-3 8.9 4.4 4.1 6.9-8.8 4.6-8.4-26.4-8.9-30.3-4.7-34.3-13.1-68.6-31.2-98.5-36.9-61-109.2-87.3-150.5-145.4-21.3-30-39.8-65.7-49.1-101.4-1.2-4.5 5.1-5.8 6.7-1.8z"  fill="#005bbb" /><path d="M-92.1 66.9c-4.9 3.9-20.4 22.4-25.8 9.5-3.3-7.9 7.8-14 12.7-7 4.9 7-4.6 15.4-10.9 9.6-8.5-7.8 10.5-24 17.4-25.5 8.3-1.8 11.6 8 6.6 13.4z"  fill="#005bbb" /><path d="M-83.6 38.3c-8.4 6.5-54 47.2-60.8 40.5-6.8-6.8 4.4-17 10.5-9.5 6.1 7.5-6.3 16.4-11.5 8.3-8.1-12.6 44.1-48.6 54-52.8 8.8-3.7 13.9 7.6 7.8 13.5z"  fill="#c2e1ff" /><path d="M-76.6-149c33.3 95.4 48.1 133-41.6 197.4-7.5 5.4-33.4 34.8-41.2 31.5-7.4-3.1-3.9-14.5 4-13.1 9.2 1.7 5.7 16-3.3 13.3-10.2-3.1-1.8-13.2 1.8-17.4 27.5-32.7 76.6-47.9 93.7-88.8 21.9-52.5-22.7-98.8-19.4-122.3 0.5-3.4 4.7-3.3 6-0.6z"  fill="#fff" /><path d="M-68.3-162.2c31.1 68.3 102.3 133.4 72.2 214.6-2.4 6.4-7.4 26.1-15.4 27.1-8.3 1-9.2-12.2-0.9-12.3 7.2-0.1 8.5 10.5 1.5 12.2-16.9 3.9 5.9-35.9 7.5-40.3 6.9-19.9 7.9-40.9 3-61.3-11.5-48.5-47.7-87.6-69.8-131.4-1.3-2.5-2.8-15.8 1.9-8.6z"  fill="#fff500" /><path d="M-60.4-301.2c35.7 52.9 94.5 77.7 135.3 124.9 49.9 57.9 57.7 142.9 62.5 216 0.4 5.8 6.4 37.9-2.1 37.9-4.8 0-5.6-7.2-0.9-8.2 4.7-1.1 7.1 5.8 2.7 7.9-9.1 4.2-8.3-43-8.7-49.2-3.8-55.7-10.2-113.1-33.6-164.5-31.2-68.4-103.6-94.5-149.3-150.4-1.5-1.8-11.5-20.6-5.9-14.4z"  fill="#fff500" /><path d="M-47.9 2.3c-7.3 14.4-80.7 87.4-91.7 76-6.8-7 4.8-17 10.8-9.4 7 9-10.1 17.1-12.6 6-3.1-13.2 32.9-34.3 41.6-40.6 8.9-6.5 39.8-39.9 44.6-41.4 6-1.8 9.5 4.4 7.3 9.4z"  fill="#fff500" /><path d="M-41.8-399.3c13.1 76.2 98.6 92.5 143.6 143.1 39.7 44.6 27.9 106.1 30.5 160.8 0.3 5.6 6.1 36.4-2.1 36.5-4.8 0.1-5.7-7-1-8.1 4.7-1.1 7 5.6 2.7 7.7-9.1 4.4-7.1-21.3-7.3-24.8-2.9-46 6.7-99.9-10.4-143.6-23.3-59.2-93.2-75.2-133.8-118.8-11.3-12.2-29.3-34.2-29.3-52 0-4.4 5.7-4.4 7.1-0.8z"  fill="#fff" /><path d="M-34.8-300c36.2 37.9 88.6 57.7 120.3 100.1 47.2 63.2 48.8 164.6 53.3 240.2 0.3 5.7 6.2 37.3-2.3 37.3-4.8 0-5.6-7.2-0.9-8.3 4.7-1 7.1 5.8 2.7 7.9-9 4.2-8.3-46.1-8.7-52.5-3.9-63.1-9.2-130.4-31.5-190.2-23.5-63.2-83.8-84.9-129.9-127.7-0.2-0.2-7.6-10.4-3-6.8z"  fill="#fff" /><path d="M-26-176c79.5 81.3 137.4 69.7 154 205.1 1 7.9 8.9 42.2 2.4 47.3-6.1 4.7-9.8-8.2-2.2-7.4 7.7 0.8 1.5 12.7-3.5 6.8-6.7-7.8-7.2-99.7-30.7-141.5-25.9-46.1-75.6-67.1-113.9-100.8-0.8-0.7-10.9-13.1-6.1-9.5z"  fill="#c2e1ff" /><path d="M-15.9-386.2c25.9 59.6 96.9 74.7 133.9 124.4 39.4 53.1 14.8 130.2 17.3 191.4 0.4 10.1 9.6 77.4 1.2 80.1-6.3 2.1-7.5-8.9-0.8-8.1 7.7 0.9 1.3 12.8-3.7 6.8-6.9-8.1-3-40-3.6-50.8-2.6-45.8 6.8-158.5-1.4-188.8-16.9-62.7-86.3-81.2-127-124.2-15.7-16.5-22.6-40.8-15.9-30.8z"  fill="#c2e1ff" /><path d="M-5.4-399.4c19.6 59.3 85.1 78.6 122.9 122.9 42 49.2 21.6 107.6 18.8 165.3-0.3 5.6 3.4 35.9-4.8 35.6-5-0.2-5.5-7.6-0.7-8.5 4.9-0.9 7.1 6.2 2.5 8.2-9.5 4-6.2-20.7-6.2-24.1 0.2-47.5 19.6-101.2 2.5-147.1-19.6-52.9-77.2-73-114-111-11.1-11.4-20.3-24.5-26.6-39.1-1.6-3.7 3.8-5.6 5.6-2.2z"  fill="#005bbb" /><path d="M4.3-399.8c21.3 59.8 89.3 79.2 123.7 128.6 38.6 55.5 8.2 125.8 8.4 187.5 0 10.2 8 78.8 0 81.4-6.3 2.1-7.5-8.9-0.8-8.1 7.8 0.9 1.3 12.9-3.7 6.8-6.5-7.7-2.7-37.9-3.2-48.2-2.2-50.7 14.7-158.6 7.4-188.5-14-57.1-72.3-80.1-110.1-118.5-11.2-11.3-20.5-24.2-27.1-38.7-1.6-3.5 3.6-5.5 5.4-2.3z"  fill="#c2e1ff" /><path d="M9.2-358.1c35.5 40.5 93.2 57.6 119.6 106.6 21.5 39.9 5.4 156.7 8.4 213.6 0.6 10.4 9.9 81.4 1.2 84.3-6.3 2.1-7.5-8.9-0.8-8.2 7.8 0.9 1.3 12.9-3.7 6.9-7.7-9.2-3-46-3.7-58.3-1.7-32.4-4.2-64.9-3.8-97.4 0.6-38.2 11.8-78.1 4.6-116.1-11.8-61.8-74.3-83.8-116.1-121.6-1.1-1-10.6-13.9-5.7-9.8z"  fill="#fff500" /><path d="M20.8 74.9c-5.1 10.5-13.6-6.9-3.7-5.6 11.3 1.4-4.5 15.9-4.9 4.5-0.2-6.4 9.1-6.9 9-0.2z"  fill="#fff" /><path d="M26-321.6c34.8 24.5 76.7 43.6 96.7 83.5 19 37.8 11.2 159.2 14.4 209.9 0.8 12.3 11.9 102.7 2.6 105.8-7.4 2.5-6.6-11 0.4-7.7 6 2.8-0.7 11.6-5 6.5-8.8-10.4-3.6-53.7-4.2-67.7-2-39.1-5.6-78.3-6.4-117.5-0.6-33.3 4.9-67.4 0.2-100.5-7.7-54-52.2-79.9-93.8-107.3-2-1.3-7-6.1-4.9-5z"  fill="#005bbb" /><path d=""  fill="#005bbb" /><path d="M43.7-161.8c65.6 50.2 84.5 120.6 90.8 199.8 0.5 6.4 6.5 36.7-0.3 39.1-6.2 2.1-7.5-8.8-1-8.1 7.7 0.8 1.5 12.7-3.5 6.9-4.2-4.9-11.6-113.6-20.1-140.1-11.1-35-30.9-65.2-58.7-89.1-0.3-0.3-11.1-10.9-7.2-8.5z"  fill="#005bbb" /><path d=""  fill="#005bbb" /><path d="M61.5-65c28.8 26.4 44.5 61.1 51.4 99.2 1.2 6.6 9.5 40.6 2 43.2-7.2 2.6-6.7-10.8 0.3-7.6 6 2.7-0.5 11.4-4.8 6.5-3.3-3.8-9.2-63.9-12.9-75.8-7.3-23.2-19.2-43.9-36-61.6-0.9-0.9-3.2-6.4 0-3.9z"  fill="#fff500" /><path d="M72.7 21.2c2.2 7.6 14.4 53.5 4.2 56.4-5.7 1.6-7.8-7.5-2-8.4 5.8-1 6.9 8.3 1 8.6-8.2 0.5-5-20.2-5.3-24.7-0.8-10.2-4.7-21.1-4.7-31.1 0-4.2 5.4-4.3 6.8-0.8z"  fill="#fff" /><path d="M78.7-282.7c65.1 47.8 51.8 113.8 54.2 185 1.8 55.2 6.4 110.5 9.2 165.7 0.2 4.1-5.3 16.1-7.9 6.5-3.5-12.6 17.4 1.7 4.5 3.1-10.3 1.1-13.6-235.9-13.9-260.1-0.4-26.8-5.9-52.6-22.5-74.2-7.1-9.3-33.6-32.1-23.6-26z"  fill="#c2e1ff" /><path d="M88.6-121.2c30.1 40.9 39.9 92 44.7 141.5 0.8 7.9 8.9 54.7 1.2 57.3-6.3 2.1-7.5-8.8-0.9-8.1 7.7 0.8 1.4 12.7-3.6 6.9-4.2-4.9-8.2-88.6-10.7-103.2-5.5-31.7-15.2-62.5-32.7-89.7-1.5-2.3-1.4-8.5 2-4.7z"  fill="#005bbb" /><path d="M104.8-399.7c16.3 47.3 56.6 82.6 68.6 131.8 13.9 56.9-21.5 106-30 160.5-1.9 12.2 2.5 45.9-4.5 55-4.2 5.5-11.7-3.3-5.5-6.5 6.1-3.3 9.2 7.9 2.3 8.2-9.2 0.5-4.4-26.2-4.2-31.4 2.4-58 37-109.6 36.7-164.8-0.4-56.6-44.8-95.5-66.3-144.2-1.5-3.5-1.3-16.5 2.9-8.6z"  fill="#fff" /><path d="M107.2-120.1c10.3 24.9 43.3 178.4 31.5 195.8-3.7 5.5-11.3-2.5-5.6-5.8 5.7-3.4 9.2 7 2.6 7.7-6.9 0.8-10.2-84.3-11.4-95-1.4-12.2-22.7-102.4-22.7-102.6 1-2.7 4.4-2.3 5.6-0.1z"  fill="#fff" /><path d=""  fill="#fff" /><path d="M129.8-399.3c13.6 48 49.6 87.5 55.6 138 7.4 63.2-38.5 117.7-43.6 180-0.9 11.6 2.1 104.4-4.1 104.3-6.7-0.1-4.1-11 1.9-8.1 6.1 3-0.9 11.7-5.2 6.5-6.7-8.3-2.1-39.6-2.3-50.3-2.7-129.2 36.2-133.6 44.6-212.2 6.4-59-36.1-103.3-53.1-156.3-1.3-4.1 4.5-5.7 6.2-1.9z"  fill="#fff" /><path d="M140.4-399.5c11.9 47 44.6 87 49.7 136 6.2 59.5-35.7 106.7-45.2 163.2-1.8 10.6-2.8 90.4-8.1 90.3-6.8-0.2-4-11.2 2.1-8.1 5.2 2.6 0.7 10.6-4.3 7.4-6.3-4-2.5-30.9-2.4-37.9 0-101.4 40.7-123.8 49-194.7 6.4-54.6-29.1-98.3-45.2-147.7-1.4-4.2 0.6-17.3 4.4-8.5z"  fill="#005bbb" /><path d=""  fill="#fff" /><path d="M152.6 43c0 5.4 4.5 34.7-3.9 34.6-5.7-0.1-5.1-9.1 0.6-8.4 5.7 0.7 4.1 9.6-1.5 8.3-6.5-1.6-5.9-32-3.5-36.5 2.2-4.3 7.8-2.1 8.3 2z"  fill="#c2e1ff" /><path d="M162.3-167.9c-23.8 60.7-22.9 119.9-20.6 184.1 0.3 7.8 6.2 61.5-1.8 61.5-5.7 0-5.2-9 0.5-8.4 4.8 0.5 4.8 7.8-0.1 8.3-7.8 0.8-5.3-16.7-5.4-20.6-2.8-58.5-9.7-121.1 1.5-179 3-15.4 6.7-38.2 15.8-51.3 4-5.8 11.6-0.7 10.1 5.4z"  fill="#fff500" /><path d="M168.2-311.1c43.4 90.9-24.3 155.4-27.4 245.6-0.5 14.8 5.1 142.9-0.8 142.9-7.8 0-2.7-12.6 2.9-7.2 4.8 4.6-4.4 10.8-6.8 4.5-9.8-24.8-4.5-171.7 2.3-201.1 7.1-30.5 22.5-57.8 31.5-87.7 5.7-18.9 7.7-38.5 4.6-58-1.8-11.2-12.2-27.6-11.6-38.1 0.2-3.1 3.9-3.2 5.3-0.9z"  fill="#c2e1ff" /><path d="M180-56.8c-23.8 36.7-21.4 128.4-24.4 132.6-4.6 6.4-12-5.1-4.3-6.6 6.6-1.3 6.4 9.9-0.2 8.3-10.1-2.4 1.6-108.8 14.9-135.1 4.4-8.8 19.1-11.3 14 0.8z"  fill="#c2e1ff" /><path d="M188.6 4c-6.3 14.9-8.5 66-13.1 72.2-4.8 6.5-12.2-5.5-4.2-6.9 6.8-1.2 6.3 10.3-0.4 8.5-12-3.2 1.7-70.4 7.5-79 3.9-5.8 11.6-0.9 10.2 5.2z"  fill="#fff" /><path d="M194.6-398.7c6.7 54.1 37.1 104.8 25.2 160.4-11.2 52.7-55.7 89.1-69.2 141-2.3 8.8-6.2 68.5-12.1 68-7-0.5-3.7-11.7 2.5-8.3 5.3 2.9 0.2 11-4.7 7.5-5.7-4-1.4-24-1-30.1 5.6-89.8 55.9-110.7 74.6-181.8 13.8-52.6-13.5-102-22.4-152.8-1-5.6 5.2-10.7 7.1-3.9z"  fill="#c2e1ff" /><path d="M205.8-121.4c-43.4 37.3-54.4 83.7-56 139.2-0.2 7.5 3.1 62.6-5.1 59.8-6.3-2.2-0.5-11.7 4.3-7 4.8 4.7-4.5 10.8-6.9 4.5-12.4-32.2 3.9-139.3 21.4-169.6 7.5-12.9 20.1-32 33.7-39.2 8.2-4.3 14 6.1 8.6 12.3z"  fill="#fff" /><path d=""  fill="#fff500" /><path d="M223.2-66.2c-29.3 23.9-47.3 52.7-53.6 90.3-1.2 7.4-1.6 56.4-9.1 53.6-5.5-2-1.8-10.5 3.5-7.9 4.5 2.2 1.8 9.2-3 8-1.8-0.5-25.2-85.9 47.1-151 8.4-7.6 25.7-4.4 15.1 7z"  fill="#fff500" /><path d="M230.3-334.9c13 47.2 18.1 92.4-7.3 136.5-26.1 45.3-65.3 75.7-74.3 130-4.8 28.9-1.4 141.9-3.1 144.4-3.8 5.5-11.3-2.6-5.6-6 6.7-4 8.8 9.4 1.2 7.7-8-1.8-4.8-41.2-5-48.4-1.3-51.9-4.5-109.6 20.1-157 19-36.7 53-63.2 68.4-102.1 8.8-22.2 10.3-45.8 6.7-69.2-1-6.6-11.1-32.3-7-37.2 1.9-2.2 4.9-1.1 5.9 1.3z"  fill="#fff" /><path d="M239.2-368.8c12.3 59.1 37.5 114.2 4.6 171.8-26.5 46.4-75.8 73.1-89.7 127.3-6.5 25.3-4.2 118-8.1 123.5-4.6 6.5-12.1-5.1-4.3-6.7 6.6-1.3 6.4 9.9-0.2 8.3-7.6-1.9-3.9-31.5-3.9-37.6-0.3-49 0.3-102 29-144 24.5-35.9 63-60.1 78.7-102.2 21.4-57.4-18.9-118-13-140.5 1-3.8 5.7-3.1 6.9 0.1z"  fill="#fff" /><path d="M250-15c-14 18.4-26 38.4-31.3 61.1-1.2 5-0.6 34.6-9.3 31-4.7-1.9-2.6-9.2 2.3-8.3 5.9 1 3.8 10.1-1.9 8.5-6.7-1.9-3-17.6-2.5-22.1 2.6-28.3 14.3-55.8 31.8-78.2 5.5-7.1 15.1 0.6 10.9 8z"  fill="#fff" /><path d="M257.7-264.8c1.1 85.8-89.5 121.3-105.9 199.9-7.6 36.5-6.5 75-5.4 112.1 0.1 4.6 5.2 33.6-4.7 30.2-4.6-1.6-3-8.7 1.9-8.1 5.7 0.7 4.1 9.5-1.4 8.2-7.9-1.8-4.6-38.1-4.8-45-1.1-50.1-3.2-106.3 22.2-151.4 17.5-31.2 47-52.7 66.9-82.1 14.6-21.5 15.7-41.5 22.5-65.2 1.5-5.2 8.3-3.4 8.7 1.4z"  fill="#fff500" /><path d="M245-398.8c2.9 45.9 26 87.6 28.9 133.4 3.9 61.9-34.9 100.4-76.4 139.9-6.8 6.5-31.7 45.4-38.1 44.4-11-1.8-0.9-18.4 5.7-9.6 6.7 8.9-12 14-10.7 3 4.6-40.7 88.3-87 105.2-139 17-52.3-9.9-101.6-19.7-152.2-1.2-6-3.8-14.1-2.9-20.1 0.7-4.9 7.1-4.1 8 0.2z"  fill="#fff500" /><path d="M276.2-53.8c-21.9 29.2-49.2 55.2-60.1 91-2.3 7.4-2.3 36.5-7.6 40.1-6.7 4.5-9.7-9.3-1.7-7.9 6.8 1.2 2.5 11.8-3.2 7.9-3.9-2.7-1.9-11.6-1.7-15.2 2.1-44 29.8-97.8 64.7-125.5 6.6-5.2 13.5 3.2 9.6 9.6z"  fill="#fff500" /><path d="M282.5-351c28.7 86.4 61.1 154.4 1.5 239.2-28 39.9-76.5 62-97.2 107.2-6.5 14.3-11.1 58.4-15.8 61.2-6.3 3.7-10.1-7.8-2.8-8.5 7.3-0.7 5.9 11.3-1 8.9-8.3-2.9-0.6-31.3 0.6-37.3 16-83.2 104.7-111.2 131.6-188.8 22.2-63.9 0.1-117.4-21.8-177.3-1.6-4.3 2.2-10.2 4.9-4.6z"  fill="#c2e1ff" /><path d="M293.8-101.5c-26.1 44.4-75.1 72.1-94.2 120.8-3.9 10-5.5 53.6-11.9 57.9-5.8 3.9-10-6.9-3.2-8 8-1.3 4.9 12.5-1.8 7.9-5.2-3.6-1.8-17.5-1.3-22.7 5.4-72.5 62-108.5 101.5-162.9 5-6.9 14.4-0.5 10.9 7z"  fill="#fff" /><path d="M301.7 40.3c-0.7 6.7 3.3 32.4-0.8 36.1-4.4 4.1-9.5-4.6-3.8-6.4 5.7-1.8 6.7 8.1 0.7 7.4-7.5-0.9-7.7-34.9-4.7-39.8 2.7-4.4 8.4-1.7 8.6 2.7z"  fill="#c2e1ff" /><path d="M310.1-238.1c7.3 127.4-89.9 129.6-130.2 205.7-13.6 25.6-17.4 55.5-18.3 84.1-0.1 4.3 3.7 29.5-5.8 26-4.7-1.7-2.9-8.9 2.1-8.3 4.9 0.7 4.7 8.1-0.3 8.5-9.1 0.7-4.9-28.2-4.7-33.2 1-34.7 6.6-71 26.2-100.5 24.6-37 68-55.1 93.6-91.4 30-42.2 20.8-76 29.3-92.7 2.1-4.2 7.5-2.2 8.1 1.8z"  fill="#005bbb" /><path d="M318.5-245.4c20.1 134.6-75.7 162-119.8 231-12.7 19.9-18.9 43-21.1 66.4-0.4 4.4 2.5 29.4-6.9 25.8-5.5-2.1-1.7-10.6 3.6-7.9 4.5 2.3 1.7 9.3-3.2 8-7.1-1.9-3.2-20.9-2.9-25.9 5.6-99.6 68.2-106.5 113.7-177.2 14.9-23.1 24.2-49.9 28-77.1 1.7-12.4-3.2-33.2 1-44.1 1.6-4 6.7-2.7 7.6 1z"  fill="#fff500" /><path d="M327.9 21.2c-0.6 9 5.9 49.9 1.2 54.7-4 4.1-9.2-3.9-3.8-5.9 5.4-2 6.7 7.4 1 7-8.1-0.6-11.6-53.7-6.2-59.2 3.1-3.2 7.6-0.5 7.8 3.4z"  fill="#fff" /><path d="M335.8-236.6c16.8 90.9-18.4 175.7-34.4 263.3-2.9 15.6 0.8 32.5-1.9 47.4-1.3 7-11.7 0.4-6-3.8 5.7-4.2 8.8 7.8 1.7 6.9-24-3.1 22.4-156.6 25.6-174.2 5.8-31.5 9.6-63.7 10.1-95.8 0.2-12-6-33.6-2.3-44.4 1.3-3.9 6.3-2.8 7.2 0.6z"  fill="#c2e1ff" /><path d="M345.3-177c0.4 68.6-9.7 136.6-10.4 205.1-0.1 8 7.2 43.2 2.8 47.8-3.9 4.1-9.1-3.7-3.9-5.7 5.3-2.1 6.7 7.2 1.1 6.8-16.3-1-6.7-97.6-5.7-109.9 2.6-34 0.9-118.9 7.4-145.2 1.3-5.2 8.1-3.6 8.7 1.1z"  fill="#fff" /><path d="M353.7 23.7c0.6 8.3 10.7 46.9 6.3 51.9-3.6 4.1-8.9-3.2-3.9-5.5 5-2.2 6.7 6.7 1.2 6.6-8.6-0.2-11.3-45.2-11.7-52.4-0.3-5.4 7.1-5.7 8.1-0.6z"  fill="#005bbb" /><path d="M362.3-141.5c6.2 55.8 19 110.8 32 165.4 1.5 6.4 16.2 50.9 11.3 52.2-4.7 1.4-5.3-6.8-0.4-6 4.9 0.7 1.9 8.4-2.2 5.6-9.1-6-13-39.9-15.5-50.2-5.8-23.7-38.4-153.2-32.8-167.9 1.6-4.1 6.7-2.7 7.6 0.9z"  fill="#fff" /><path d="M369.1-317.2c41.6 67.8 103.7 241.6 120.5 320.8 1.7 8 20.1 71.7 17.5 72.6-4.4 1.5-5.2-6.1-0.7-5.6 4.6 0.5 2.2 7.7-1.8 5.3-9.7-5.7-38.2-141.5-46.5-164.3-21.1-57.9-56.3-165-85.1-213.6-0.7-1.2-9.8-22.8-3.9-15.2z"  fill="#c2e1ff" /><path d=""  fill="#fff500" /><path d="M388.1-386.9c9 44.4 40.3 81.7 55 124.3 32.2 93.2 51.7 190.7 70 287.3 0.8 4.2 9 25.5 2.5 26.8-4.5 0.9-5.6-6.2-1.1-6.7 3.9-0.4 5.1 5.4 1.4 6.6-4.6 1.5-31.7-145.2-36.2-160.7-16-55-27.8-113.5-48.1-167-13.4-35.2-37-66.2-48.3-102.1-1.5-4.7 1.3-17.4 4.8-8.5z"  fill="#005bbb" /><path d="M396.4-129c6.3 19 77.9 202 69.8 205-4.1 1.6-5.2-5.7-0.8-5.3 4.4 0.3 2.4 7.3-1.5 5.2-7.5-4.1-25.7-70.4-29.3-82.4-5.4-17.8-45.4-114-44.3-122 0.5-3.4 4.8-3.3 6.1-0.5z"  fill="#fff" /><path d=""  fill="#fff" /><path d=""  fill="#fff500" /><path d="M417.4-398.7c3.3 43.8 31.2 82.6 43.4 124.1 16.2 55.1 45.8 200.4 53.1 258.2 0.4 2.8 3.8 15.3-3.6 13.4-4.4-1.1-3.4-7.8 1-7.6 4.5 0.1 5 6.9 0.6 7.7-8.2 1.5-7.8-28.6-8.5-34-4.2-32.1-10.4-63.6-18.4-94.9-12.7-49.5-18.5-101.1-33.2-150-10.9-36.3-32.1-69.2-40.4-106.2-1.3-5.8 3.2-21.8 6-10.7z"  fill="#fff" /><path d="M431.1-138.1c24 58.4 40.8 115.1 57.9 175.7 1.4 5.1 14.8 36.7 10.1 38.5-4.3 1.5-5.2-5.9-0.7-5.6 5.3 0.5 1.1 8.7-2.4 4.8-16.1-18.2-23.9-77.9-30.2-102.6-4.7-18.2-40.8-102.7-40.2-109.9 0.3-3.2 4.2-3.3 5.5-0.9z"  fill="#fff" /><path d="M435-398.6c3 42.5 27.1 81.2 37.1 122.2 8 32.9 10.6 66.7 16.7 100 9.8 53.4 22.4 105.5 28.6 159.6 0.4 3.4 4.2 15.1-2.3 15.5-5.3 0.4-5.4-8-0.1-7.8 4.5 0.2 5 7 0.5 7.8-8.2 1.5-7.3-26.6-7.8-31.4-3.9-33.5-9.4-66.5-16.8-99.4-11.2-50-15.4-101.6-27.7-151.2-8.8-35.5-26.8-68.2-34.3-104-1.2-5.7 3.2-22.8 6.1-11.3z"  fill="#fff" /><path d="M449.1-256.9c29.9 96.7 81.4 331.4 75.9 333.1-4.7 1.4-5.3-6.6-0.5-6 5.6 0.8 0.7 9.4-2.8 5-20.1-25.3-22.7-106.2-29.1-139.8-11.8-61.6-31.5-123.3-48-183.9-0.9-3.4 0.6-17.5 4.5-8.4z"  fill="#fff" /><path d="M457.9-31.9c3.3 10.6 32.2 107.2 30.1 107.9-3.6 1.3-5.4-4.4-1.6-5.4 3.7-0.9 4.9 5 1 5.5-9.7 1.4-35.4-95.4-35.9-106.9-0.2-4 5-4.4 6.4-1.1z"  fill="#005bbb" /><path d="M467.1-228.7c10.3 51.3 25.5 101.4 35.8 152.6 2.9 14.3 25.9 152.3 25.4 152.5-5.5 1.6-4.6-8.3 0.5-5.8 4.4 2.2-0.8 8.5-3.8 4.7-18.6-23.8-21-99-25.9-130.2-9.1-58.4-29.5-114.1-39.2-172.4-0.8-4.8 5.7-5.8 7.2-1.4z"  fill="#fff" /><path d=""  fill="#c2e1ff" /><path d="M485.6-398.7c4 37.3 16.2 73.1 20 110.5 4.2 40.3 1.7 81 5.5 121.3 1.6 17.3 23.6 176.8 14.5 177.4-6.3 0.4-4.6-9.9 1.2-7.7 5.8 2.3 0 10.9-4.3 6.4-4.9-5.1-12.2-117.8-14.4-135-7.4-56.6-5.3-113.1-11.2-169.6-3.3-31-11.9-60.7-17.3-91.3-0.8-4.5 2.9-24.2 6-12z"  fill="#fff" /><path d=""  fill="#005bbb" /><path d="M502.1 12.3c1.4 7.4 17.5 62.9 14.1 63.9-3.8 1.3-5.5-4.9-1.5-5.7 4-0.8 4.9 5.5 0.9 5.9-5.2 0.5-7.4-13.3-8.5-16.5-4.6-13.5-12.8-32.7-12.2-47.1 0.2-4.5 6-4.3 7.2-0.5z"  fill="#fff" /><path d="M511.6-256c1.4 89.8 9 179.5 19.5 268.8 1.1 9.2 13.3 58.4 11.9 62-2 5.6-9.9-1.3-4.5-4 4.6-2.3 6.7 6 1.5 6.2-15.4 0.5-21-106.5-22-119.9-5.4-71.1-17.2-141.4-15-213.1 0.2-5.7 8-5.5 8.6 0z"  fill="#005bbb" /><path d="M520-59.4c4 37 5.5 74.4 14 110.8 1.1 4.5 9 21.8 4.4 24.7-4.2 2.8-7.2-5.1-2.2-5.8 4.3-0.6 4.9 6.2 0.6 6.3-14 0.6-26.7-121.8-24.7-136.2 0.7-4.8 7-4.1 7.9 0.2z"  fill="#fff" /><path d="M528 59c0.9 3.3 7 14.2 2.9 17-3.5 2.4-7-3.3-3.2-5.2 4.3-2.3 6.6 5.5 1.7 5.8-12.4 0.8-6.2-28.3-1.4-17.6z"  fill="#005bbb" /><path d="M574-399.9c13 25.7 21.9 53.1 20.8 82.2-2.6 64.3-37.8 124.1-44.1 188.9-1 10.8-1.5 94.5-8.2 94.1-5.9-0.3-4.9-9.6 1-8.7 6.9 1.1 2.6 11.8-3.2 7.9-6.9-4.7-1.6-37.5-1.4-45.4 2.4-88.8 21.3-128.6 41.8-210.3 5.4-21.8 7.2-44.1 2.6-66.2-2.9-14.2-11.5-27-14.3-40.8-0.7-3.2 3.5-4.1 5-1.7z"  fill="#005bbb" /><path d="M546.8-57c-0.4 29.1-0.2 58.3 3.1 87.3 1.2 10 11.2 36.1 7.5 44.7-2.5 5.9-10.4-1.9-4.5-4.5 5-2.2 6.7 6.7 1.3 6.6-13.1-0.3-22.7-123.2-15.8-136.2 2.3-4.3 7.8-2.1 8.4 2.1z"  fill="#fff500" /><path d="M555.1 20.6c0.5 7.2 10.1 55.5 5 56.4-4.7 0.8-5.6-6.6-0.8-6.9 4.7-0.3 4.8 7.2 0.1 7-7.6-0.3-13.4-49.6-12.3-56.7 0.7-4.9 7.1-4.1 8 0.2z"  fill="#fff" /><path d=""  fill="#c2e1ff" /><path d="M586-399.6c53.1 94.1-22.4 189.3-32 284.5-2.9 29.4-4 59-4 88.6 0 9.7 5.7 36.8 0.8 44.5-3.5 5.4-11.1-2.2-5.6-5.6 6.4-4.1 8.8 8.9 1.4 7.4-7.9-1.5-5.1-36.2-5.2-42.9-1-66.7 3.1-134.2 25.6-197.5 8-22.4 19.8-44.6 25.2-67.8 5.2-22.4 2.3-56 2.4-76.8 0.1-11.5-10.7-22-13.3-32.6-0.7-3 3.1-4 4.7-1.8z"  fill="#fff" /><path d="M595.9-399.6c15.8 26.1 5.9 25.9 8.5 83 3.9 88-35.5 110.7-46.8 201.2-3.6 29.3-5.1 58.9-5.3 88.4-0.1 9.3 5.2 34.4 0.3 41.8-4.2 6.4-11.8-4.5-4.4-6.2 6.4-1.5 6.5 9.4 0.1 8-7.9-1.6-4.7-33.9-4.7-40.3-0.5-61 3.6-123.7 24.5-181.4 6.7-18.6 18.6-37.2 23.5-56.2 6.4-25.2 3.3-116.3 3.3-129.9 0-2.6-4.1-4.8-3.5-7.8 0.5-2.3 3.2-2.3 4.5-0.6z"  fill="#fff" /><path d="M591.6-147.8c-23.6 53.7-28.4 117.6-24.7 175.6 0.7 10.4 9.6 38.5 5.4 47.2-2.6 5.2-10.1-0.8-5.6-4.5 5.3-4.3 8.8 7 2.1 6.5-8.5-0.7-9.8-46-10.4-53.4-4.2-57.4 0.7-119.2 21.3-173.3 3-8 14.4-7.5 11.9 1.9z"  fill="#fff500" /><path d="M604.2-243.8c-33.2 68.8-48.3 134.6-49.9 211-0.2 10 6.9 57.3 0.3 62.9-4.9 4.1-9.7-5.3-3.6-7 6.1-1.6 6.6 8.9 0.3 7.8-9.2-1.6-6-51.7-5.9-59.7 0.3-75.6 11.8-145.7 44.8-214.2 3.7-7.7 18.4-13.8 14-0.8z"  fill="#c2e1ff" /><path d=""  fill="#005bbb" /><path d=""  fill="#fff500" /><path d="M604-199.7c-29.4 50-39.8 105.9-42.6 163.2-0.4 7.7 3.6 39.9-2.4 44.2-5.5 4-9.9-6.3-3.3-7.6 6.6-1.3 6.4 9.9-0.2 8.3-9.8-2.4-2.5-60.6-1.8-69.8 3-39 12.6-116.3 40.2-145.7 5.3-5.6 12.8 1.1 10.1 7.4z"  fill="#005bbb" /><path d=""  fill="#fff500" /><path d=""  fill="#c2e1ff" /><path d="M604.1-90.5c-16.6 42.9-20.2 90.9-17.7 136.5 0.3 5.4 6 28.7 0.1 31.2-5.7 2.4-7.5-7.7-1.4-7.5 5.3 0.2 4.5 8.5-0.7 7.8-8.9-1.3-7.2-48.5-7.3-56.2-0.5-32.9-2-88.1 16.9-116.8 3.8-5.8 11.5-1 10.1 5z"  fill="#fff500" /><path d=""  fill="#c2e1ff" /><path d=""  fill="#fff" /><path d="M604.1-172.7c-29 49.1-37.2 107.9-38.1 164.1-0.1 7.4 4.7 37.9-0.5 42.1-5 4-9.8-5.6-3.5-7.2 6.3-1.5 6.5 9.2 0.2 8-10.3-2-4.6-63-4.1-72.2 2.1-36.9 10-114.2 35.9-142.1 5.3-5.7 12.7 1 10.1 7.3z"  fill="#c2e1ff" /><path d="M604.2-165.8c-27.4 46.8-35.4 102.9-36.6 156.3-0.1 6.8 4.1 33.5-1.1 37.5-5.2 4-9.9-5.9-3.5-7.3 6.4-1.5 6.5 9.5 0.1 8-9.8-2.1-3.9-58.7-3.3-67.6 2.3-34.8 10.1-107.9 34.2-134.2 5.2-5.7 12.7 0.9 10.2 7.3z"  fill="#c2e1ff" /><path d=""  fill="#c2e1ff" /></svg>