<svg width="1200" height="675" viewBox="-500 -500 1200 675" xmlns="http://www.w3.org/2000/svg"><path d="M-500-500h1200v675h-1200z" fill="#000"/><path d=""  fill="#005bbb" /><path d=""  fill="#005bbb" /><path d=""  fill="#fff500" /><path d=""  fill="#005bbb" /><path d=""  fill="#005bbb" /><path d=""  fill="#005bbb" /><path d="M-394.1-201.6c3.7 13.8 21.3 111.2-4.8 110.4-10.1-0.3-8.8-16.2 1.3-14.8 10 1.4 6.9 17.1-2.9 14.6-12.5-3.2 2.2-39.2 2.8-47.8 0.9-10.9-7-60-5.1-63.5 2.1-4 7.2-2.6 8.7 1.1z"  fill="#fff" /><path d="M-394.6-229.1c15.2 46.4 25.1 93.8 9.2 141.5-1.9 5.7-3.7 15.8-9.5 18.7-9.9 5.1-17-10.9-6.6-14.9 12.1-4.6 15.3 16.7 2.3 15.8-15-1 9.8-55.8 10.5-78.5 0.8-28.8-12.5-53.6-14.3-81-0.4-5.3 6.5-5.9 8.4-1.6z"  fill="#fff500" /><path d=""  fill="#fff" /><path d="M-388.2-365.1c-4.2 125.9 112.8 188.9 33.4 336.3-6.9 12.9-26.3 48-42.9 49.1-19 1.2-8.7-30.3 5.9-18.1 14.6 12.2-14.5 28-16.7 9.1-1.5-12.5 31.4-36.5 38.5-48 16.6-26.4 25.3-57.9 28.5-88.7 7.4-72.2-35.1-126.2-52-192.9-3.4-13.5-9.6-34.2-6.4-48 1.7-7 10.8-5 11.7 1.2z"  fill="#fff500" /><path d="M-375-47.4c-3.8 6.9-22.5 40.9-32.2 22-5.1-9.9 8.8-19 15.8-10.4 8.3 10-8.2 22.2-15.3 11.3-12.6-19.1 45.7-52.6 31.7-22.9z"  fill="#005bbb" /><path d="M-367-285.5c12.2 31 29.2 60 38.8 92 19.2 64.3 6.3 146.2-34.1 200.3-6.7 8.9-25.8 37.1-39.2 33.1-11.6-3.4-8.4-21.1 3.7-20.3 14.1 1 11.3 23.1-2.6 20.6-26.6-4.8 23.3-44.3 28.3-50.9 23.3-30.4 34.4-69.1 38.9-106.6 11.6-96.6-33.8-118.7-41.2-166.1-0.7-4.7 5.4-5.8 7.4-2.1z"  fill="#fff500" /><path d="M-360.8-397.4c-13.6 78.7 38.6 132.1 61.1 202 17.2 53.5 8.2 112-0.4 166.4-1.3 8.3-1.9 39.7-13.1 40.2-8.2 0.3-10-11.8-2.1-13.9 9.3-2.5 12.3 12.3 2.8 13.8-15.3 2.3-3.5-28.4-2.4-33.8 7.8-41.3 14.6-85.1 12.9-127.3-2.7-70.6-52.6-121.1-68.4-187.3-4.1-17.5-9.8-45.8-3.1-63.3 2.9-7.5 12.7-4 12.7 3.2z"  fill="#fff" /><path d="M-358-397.4c-12.9 76.9 37.3 129.3 61.1 196.9 17.3 49.3 10.9 101.3 5 152-0.8 7.2 0.7 32.4-9.3 33.7-12.2 1.6-6.9-19.1 3.1-11.8 8.5 6.2-4.6 17.7-9.7 8.5-5.5-10 11.5-114.9 10.1-137.6-4.5-68.2-53.4-117.4-69.3-181.6-4.3-17.4-10.2-45.8-3.7-63.2 2.8-7.5 12.6-4 12.7 3.1z"  fill="#fff" /><path d="M-330.3-398.2c-9.2 77.8 51.4 128.4 75.3 196.3 20.5 58.3 5.8 121.4 2.5 181.3-0.5 8.6 3.6 49.9-6.1 52.5-9.1 2.4-9.8-13.2-0.5-11.6 10.9 1.9 0.8 18.3-5.8 9.3-10.8-14.6 10.3-160 8.4-189.4-4.5-71.1-58.2-117.7-78.9-182.6-5-15.8-12.4-41.6-7.2-58.1 2.3-7.3 11.8-4.5 12.3 2.3z"  fill="#fff500" /><path d="M-338.2-397.7c-9.8 74.7 43.4 124.6 69.2 188.7 18.5 46.1 13.8 93.8 10 142.1-0.6 7.4 2.5 35.6-7 37.7-9.5 2.1-9.5-14.1 0-12 11.2 2.5 0 18.9-6.4 9.5-6.7-9.9 6.8-114.6 4.1-137.2-7.8-65.7-58.2-111.5-76.3-173.1-4.7-15.9-11.4-41.8-6-58.2 2.4-7.4 12.1-4.4 12.4 2.5z"  fill="#fff" /><path d="M-305.1-58.8c-7 43.3-41.9 148.6-62.7 140.9-13.5-5-0.6-25.1 9.5-14.9 8.7 8.7-5.8 21.7-13.5 12-8.3-10.3 22.9-46.3 28.1-57 9-18.6 19.5-77.1 26.6-86.3 4.6-5.9 12.3-1.1 12 5.3z"  fill="#c2e1ff" /><path d="M-310.6-398c-5.5 69.6 47.1 117.5 73.4 176.6 22.7 50.9 16 102.6 8.3 155.9-1.1 7.8 0 39.1-10.1 40.7-11.9 1.9-7.3-18.5 2.6-11.6 8.4 5.8-4 17.4-9.2 8.6-2.3-3.9 14.4-124.9 11.9-147.3-7.5-66.3-58.8-111-80.1-171.6-5-14.3-12.8-37.7-8.7-52.9 1.9-7.2 11.2-4.9 11.9 1.6z"  fill="#c2e1ff" /><path d="M-285-398.6c-3.6 68.2 50.5 117.2 74.3 176.5 25 62.5 8.7 122.9-4.8 185.8-1.9 9-3.8 50.7-14.2 52.1-10.3 1.4-8.9-15.9 1.1-12.8 11.7 3.6-1.7 20.1-7.7 9.5-4-7.2 29.2-153 27.8-181.5-3.6-69.8-53.5-116.4-77.5-178.4-5.5-14.1-14.2-37.1-10.6-52.5 1.6-7 10.8-5.1 11.6 1.3z"  fill="#fff" /><path d="M-270.4-1.7c-0.5 10.6 2.2 81.9-8.6 81.2-8.1-0.5-6.5-13.2 1.4-11.8 7.9 1.4 5.1 13.8-2.6 11.6-8.8-2.5-6.4-75.9-1.5-84.4 3.4-5.8 10.9-2.5 11.3 3.4z"  fill="#005bbb" /><path d="M-273-398.2c-2.9 62.5 43.6 109.7 67.5 163.4 25.7 57.8 19.2 114.9 3.3 174.3-2.3 8.6-5.2 41.2-16.1 41.6-9.6 0.4-9.3-14.8 0.2-14 8.2 0.6 8.6 12.8 0.5 14-15.9 2.3-2.5-30.6-1-36.2 10.6-40.1 22.8-80.3 19-122.3-6.1-67-53.6-113.4-75.7-174.1-4.7-13-12.5-33.9-9.3-47.9 1.6-7 10.7-5.1 11.6 1.2z"  fill="#c2e1ff" /><path d="M-247.4-389.4c0.8 61.9 48 111.8 66.5 168.6 24.6 75.3-0.2 137.6-22.7 209.2-3.1 9.9-9.3 61.4-18.7 62.8-12 1.7-7.1-18.8 2.8-11.8 8.4 6-4.3 17.5-9.4 8.6-8.5-14.8 46.6-165.7 47.8-200.4 2.8-79.1-48-133-70.6-204-14.9-46.6 3.3-38.1 4.3-33z"  fill="#fff500" /><path d="M-235-126.6c-1.5 36.2-7.5 72.2-10.1 108.4-0.8 12 1.1 97.7-7.9 97.5-7.7-0.1-6.9-12.3 0.8-11.3 7.7 1 5.5 13-2 11.1-18.6-4.5 0.7-187.4 7.1-208 2.3-7.2 11.7-4.4 12.1 2.3z"  fill="#fff" /><path d="M-226.3-318.6c30.5 63.1 65.1 119.9 56.8 193.2-7.5 66-44.1 124.2-49.2 191.1-0.3 3.6-5.1 22.9-11.9 10.4-10.9-20.1 28.3 2.9 5.4 3.2-12.3 0.1-4.7-31.1-3.8-37.7 7.8-65 44.6-123.1 48.7-188.3 4-63.6-25.3-113.9-52.3-168.7-2.1-4.2 3.8-6.9 6.3-3.2z"  fill="#fff" /><path d=""  fill="#005bbb" /><path d="M-202.7-299.6c35.1 72.1 59.5 146.2 31.8 225.5-9.5 27.1-22.4 52.8-31.3 80.1-7.1 21.8-5.7 49.1-14 69.5-4.3 10.6-18.7-3.2-8.3-8 8.9-4.1 12.3 11.9 2.5 11.8-12.1-0.1-4.4-29.1-3.5-35.2 8.8-63.3 48.3-117.7 54.7-181 5.8-57.5-15.1-108.4-38.3-159.5-2-4.3 4-6.9 6.4-3.2z"  fill="#c2e1ff" /><path d="M-186.8 27.1c-4.3 8.9-11.7 51.5-20.7 52.6-10.4 1.3-8.7-16.1 1.3-12.8 8.5 2.8 3.5 16-4.8 12.3-11.4-5.1 4.5-55.4 11.8-61.4 6.8-5.6 14.5 2 12.4 9.3z"  fill="#005bbb" /><path d=""  fill="#fff500" /><path d="M-166.6-257.4c19.1 53 32.3 113.6 16.5 169.2-11.6 40.6-37.7 75.1-50.6 115.3-2.7 8.6-6.6 53.8-17.1 52.3-9.9-1.5-4-17 4.4-11.5 8.4 5.5-3.5 17.1-8.8 8.6-17.6-28.2 53.4-149.2 61.9-182.8 8.3-32.5 5.7-66.7-0.9-99.2-2.2-11-17.3-42.5-13.3-52.1 1.6-3.8 6.3-3 7.9 0.2z"  fill="#c2e1ff" /><path d="M-152.6-133.4c-2.7 61.3-41.4 111.1-55.1 169.5-1.9 8.1-1.9 41.4-11.1 43.2-8.3 1.7-10.2-11.5-1.7-12.4 9.8-0.9 7.8 15.4-1.6 12.1-13.2-4.7 3.5-58.9 6.3-68.8 10.6-36.9 30.8-69.9 42.6-106.3 4.2-12.9 4.2-27.4 8.4-39.9 2.5-7.3 12-4.2 12.2 2.6z"  fill="#fff500" /><path d=""  fill="#fff500" /><path d="M-130.4-187.9c25.9 132.4-17.7 119-60.3 219.8-3.6 8.5-9.4 49.9-19.9 47.8-10.2-2-3.3-17.9 5.1-11.7 8.4 6.1-4.5 17.6-9.6 8.5-16.3-29.3 58.3-128 70.3-156.7 18.6-44.3-0.4-91.8 4.8-108.3 1.7-5.2 8.2-3.9 9.6 0.6z"  fill="#fff500" /><path d=""  fill="#c2e1ff" /><path d="M-105.2 70.1c-5.8 4.3-28.3 24.8-29.7 4.1-2-30.8 39.6 12.2 8.9 9.2-21.9-2.1 2.3-27.3 9.8-30.9 11.6-5.4 18.9 9.4 11 17.6z"  fill="#fff500" /><path d="M-95.4-226.1c19.4 87.7 121.7 198 35.3 276.4-9.7 8.8-32.6 32.9-45.8 33.6-19 1.1-8.5-30.3 6.1-18 17.1 14.5-21.4 27.5-16.6 5.6 5.5-25.1 74.6-41.8 80.1-97.9 5.3-53.3-35.7-105.3-54.1-153.1-5-13-14.3-31.3-14.3-45.5 0-5.7 7.4-5.9 9.3-1.1z"  fill="#c2e1ff" /><path d="M-80.9-357c-20.1 42.6-18.3 91.5-7.1 136.3 21.6 85.6 117.1 174.9 106.7 255.4-1.2 8.9-3.9 36.6-15.1 38.7-12.5 2.3-11.8-18.7 0.5-15.6 14.4 3.6-0.8 24.6-8.7 12-0.3-0.4 14.4-59.6 10.8-80.1-13.4-75.9-94-138.6-110.9-243.5-5-30.8-9.9-83.8 10.1-110.9 5.7-7.8 16-0.6 13.7 7.7z"  fill="#c2e1ff" /><path d="M-71.1-267.6c2.4 41.7 19.7 81.7 47.4 112.9 65.7 73.9 161.3 89.2 191.1 196.4 1.8 6.6 11.4 29.7 6.1 35.3-4.6 4.7-11.6-2.9-6.6-7.1 5.1-4.2 11.3 4.1 5.8 7.8-9.2 6.1-10.6-18.2-11.3-21.3-6.1-27.8-14.6-54.8-30.9-78.5-46-66.9-132.6-89.2-179-156.1-15.2-21.9-37.2-61.6-33.3-89.5 0.9-6.6 9.4-5.6 10.7 0.1z"  fill="#fff500" /><path d="M-58 78.6c-15.7 14-27.7-10.2-12.7-14.7 21.3-6.4 11.3 32.7-4.3 16.9-20.5-20.8 38.2-26.1 17-2.2z"  fill="#c2e1ff" /><path d="M-47.5-276.6c1.6 32.8 14.2 64.2 35.1 89.5 76.2 92 174.7 90.7 208.3 229.7 1.5 6.3 11.5 31.4 4.6 35.2-4.8 2.6-9.5-4-5.4-7.6 4.8-4.2 11 3.7 5.8 7.4-12.2 8.6-22.1-78.6-45.3-114.3-45.5-69.8-132.1-95.1-182-160-14.7-19.2-35.5-54.5-31.9-80.1 0.9-6.6 9.5-5.6 10.8 0.2z"  fill="#c2e1ff" /><path d="M-34 38.7c-6.7 9.8-46.1 58-58.7 40.9-8.3-11.3 10.1-23.4 17.2-11.3 7.1 12.1-12.6 22.2-18.4 9.4-4.2-9.3 47.2-53 51.1-53.7 8.9-1.6 12.9 8.1 8.8 14.7z"  fill="#fff500" /><path d="M-22.1 30.3c-5.2 11-44.6 68.1-58.9 49.5-8.5-11 9.6-23.4 16.8-11.6 7.2 11.9-12.1 22.3-18 9.7-4.5-9.6 48-61.2 54.2-60.2 6.3 1.1 8.1 7.4 5.9 12.6z"  fill="#c2e1ff" /><path d=""  fill="#c2e1ff" /><path d=""  fill="#c2e1ff" /><path d="M11.5-332.4c0 29.4 10.4 57.3 26.1 81.9 63.2 98.6 157.8 161.2 182.2 282.4 1.3 6.4 10 28.4 2.8 32.2-6.8 3.5-10.1-8.7-2.4-9.1 8.9-0.4 3.9 14.3-2.9 8.5-3-2.6-20.9-89.4-31-110.6-39.1-82-118.9-138.7-164.2-216.9-10.2-17.5-25.6-47.9-21.8-69 1.2-6.8 10.1-5.4 11.2 0.6z"  fill="#c2e1ff" /><path d="M23.8 24.4c0 10.3-3.4 59.2-19.6 57-10.7-1.5-7.5-18.3 3-15.6 10.5 2.6 5.5 19-4.7 15.2-13.9-5.1 19.6-90.1 21.3-56.6z"  fill="#c2e1ff" /><path d="M32.8-20.5c6.1 11.9 33.2 97.6 9 100.4-9 1.1-9.9-13.3-0.9-13.3 9.1-0.1 8.4 14.3-0.6 13.3-11.9-1.2-2.4-40.6-2.9-49-0.9-17.8-8.7-32.4-11.6-49.3-0.8-4.5 5-5.6 7-2.1z"  fill="#fff" /><path d="M43.1-224.6c73.2 94.1 151.4 143.6 176.4 268.3 1.2 5.9 10.6 30 3.8 33.8-6.4 3.6-10-8.1-2.7-8.7 8.6-0.7 4.2 13.6-2.5 8.3-6.4-5.1-22.6-102.7-42.3-136.1-34-57.9-88.3-104.8-131.2-156.1-1-1.2-7.9-15.7-1.5-9.5z"  fill="#c2e1ff" /><path d="M53.4-115.8c62.5 41.5 114 82.7 133.3 158.5 1.7 6.5 10.6 28.5 5.7 33.8-4.4 4.7-11.4-2.6-6.5-6.8 4.9-4.2 11.1 3.8 5.8 7.5-9.2 6.4-11-18.8-11.8-22.5-7.1-31.3-15.8-62-34.4-88.5-22.2-31.8-54.4-54.5-86.2-75.9-2.3-1.6-8.4-7.4-5.9-6.1z"  fill="#005bbb" /><path d="M69.8 37.3c1.2 6.6 9.6 43.3-3.4 42.4-8.1-0.6-6.5-13.4 1.5-11.9 8 1.5 5 14-2.8 11.6-7.5-2.2-7.3-37.2-5.2-43.1 1.9-5.3 8.6-3.7 9.9 1z"  fill="#fff500" /><path d="M77.3-134.1c63.7 50.8 110.4 98.5 128.7 180.2 1.4 6.1 10.3 27.5 3.6 31.3-7.6 4.2-9.5-10.7-1.2-8.6 7.2 1.8 1.7 12.8-4.1 8.2-5.2-4.3-22.9-90-35.8-113-20.8-36.9-54-64.4-86.5-90.8-2.3-1.8-7.2-8.8-4.7-7.3z"  fill="#c2e1ff" /><path d="M93.6 62.5c0.3 2.6-0.6 26.1-9.1 13.8-12-17.2 26.1-0.1 5.2 2.3-18.7 2.2-0.1-34.7 3.9-16.1z"  fill="#fff" /><path d="M101.6-152.4c60.7 66.5 99.2 109.1 117.6 200.1 1.1 5.5 9.6 26.2 3.1 29.8-6.4 3.6-10-8.1-2.7-8.6 8.6-0.7 4.2 13.6-2.5 8.2-6.1-4.9-24.5-99.6-33.1-117.7-18.9-39.8-50.6-70.9-80-102.9-0.4-0.4-8.8-14.4-2.4-8.9z"  fill="#c2e1ff" /><path d="M113.8-316.6c15.3 19.8 31.2 39 43.3 61.1 28.1 51 67.6 162 78.9 219.3 6.7 34 7.9 68.8 14.5 102.8 0.8 4.1-2.8 19.1-7.7 8.7-6.3-13.3 19.7-1.6 5.6 2.5-10.4 3-12.2-36-13.1-42.2-6.5-48.6-11.7-95.7-28.3-142.3-21.4-60-39.9-128.3-77.1-180.4-6-8.5-16.3-17.5-20.4-26.9-1.3-2.8 2.4-4.6 4.3-2.6z"  fill="#c2e1ff" /><path d="M126.3-236.6c15.7 25.4 27.2 53.1 40.5 79.7 35.9 71.8 58.4 115.5 70.7 196.5 1.6 10.2 6.9 24.1 6 34.1-0.7 7.4-12.4 3.7-8.7-2.7 4.3-7.5 13.7 4.3 5.4 6.8-9.6 2.9-11-26.7-11.9-32-6.5-37.5-10.5-75.1-23.9-111-20.3-54.6-51.6-109.9-79.6-161-1.1-2.1-5-18.9 1.5-10.4z"  fill="#fff" /><path d="M137.8-357.6c14.7 24 32.3 46 44.8 71.3 29.4 59.7 53.7 171.5 62.7 238.5 4.9 36 5.2 72.6 10.8 108.5 0.5 3.4 5.9 18.8-3.3 17.3-5.5-0.9-5-9.1 0.5-9.4 5.5-0.3 6.9 7.8 1.5 9.3-10.9 3-12.4-41.2-13.1-47.9-5.6-55.3-9.7-109.2-23.3-163.4-14.5-57.5-24.3-120.2-53.9-172.3-8.9-15.7-26.3-32.4-32.1-49.3-1.2-3.5 3.3-5.1 5.4-2.6z"  fill="#fff" /><path d="M150.3-226.5c38.5 77.1 76.9 159.5 88.5 245.3 1.7 12.4 12.9 45.6 8.2 56.3-3 6.8-13-0.5-7.4-5.5 5.6-4.9 11.5 5.9 4.4 8.1-8.3 2.4-26-120.6-29.7-133.7-16.5-57.8-47.3-112.1-70.5-167.5-1.9-4.4 4.1-7 6.5-3z"  fill="#fff500" /><path d="M161.9-395.6c14 28.5 32.9 54.2 44.6 83.9 36.9 93.7 42.4 247.9 51.1 349.7 0.2 2.4-0.6 22.2-8.8 11.6-12.1-15.8 24.7-1.3 5.1 2-11.9 2-9.9-52.5-10.3-60.7-2.9-60.6-11.1-119.8-20.7-179.6-14.3-88.6-21.5-121.6-65.6-201-2.5-4.5 0.6-11.7 4.6-5.9z"  fill="#005bbb" /><path d=""  fill="#c2e1ff" /><path d="M185.4-124.6c29.9 55.8 44 109.2 53.8 171.4 1.1 6.7 7.2 22.1 4.5 28.4-3 6.8-12.9-0.5-7.4-5.4 5.6-4.9 11.5 5.9 4.4 7.9-10.1 3-21.4-92.2-23.7-102.8-8.5-38.1-31.2-70.5-38-97.1-1-4 4.2-5.5 6.4-2.4z"  fill="#005bbb" /><path d="M198.1-170.4c26.6 79.8 40 128.2 50.3 212.3 0.7 5.8 10.1 34.8 1.2 36.4-7.4 1.3-6.8-11.1 0.4-9.2 7.2 1.9 1.5 13-4.2 8.2-8.4-7-14.2-93.2-16.6-108.9-5-33.3-14-65.3-25.2-97-2.6-7.4-18.1-36.3-13.3-42.9 2.2-2.9 6-1.7 7.4 1.1z"  fill="#005bbb" /><path d="M209.9-28.3c4.2 11.5 29.7 104.6 19.5 106.5-6.2 1.2-7.5-8.7-1.2-9.1 6.3-0.5 6.5 9.4 0.2 9.2-9.1-0.3-11-33.3-12.2-39.9-2.6-14-16.4-55-14.5-66.1 0.8-4.6 6.5-4.3 8.2-0.6z"  fill="#005bbb" /><path d="M242.6-400.3c11.1 17.5 18.5 37 21.7 57.5 7.4 47.5-2.3 187.1-2.3 246.9 0 15.9 4.4 105.9-0.9 113.2-5.3 7.4-15.4-3.9-7.5-8.4 8-4.5 12.4 10 3.3 10.8-8.8 0.7-13.1-65.1-5.7-258.3 1.5-40 8.4-82-0.3-121.6-3-13.5-10.7-24.8-14.2-37.7-1.1-3.8 3.8-5.3 5.9-2.4z"  fill="#005bbb" /><path d="M234.4 39.2c1 6.6 10.6 34.2 3.8 38-5.5 3.1-9.9-5.9-4.1-8.4 6.8-2.9 9.1 9.2 1.7 9-17.3-0.6-8.6-62.8-1.4-38.6z"  fill="#fff" /><path d=""  fill="#c2e1ff" /><path d=""  fill="#005bbb" /><path d="M270.9-184.6c-4.8 71.4-9.3 143.8-6.6 215.3 0.3 8.4 8.4 40.7 2.9 46.4-5.3 5.5-12.3-5.1-5.1-7.9 7.2-2.7 9 9.8 1.4 9.3-25.4-1.7-6.7-234.6-5.2-260.8 0.5-8.9 12-12.9 12.6-2.3z"  fill="#fff500" /><path d="M283.2-101.7c-8.4 39.1-12.4 79.6-13.1 119.6-0.2 13.3 8.3 46.8 3 57.7-3.4 7-13.5-1.1-7.5-5.9 7.1-5.7 11.7 9.4 2.7 8.6-22.4-1.8-6.6-166 1.9-184.2 3.6-7.6 13.6-3.2 13 4.2z"  fill="#fff" /><path d="M295.4-104.7c-16.6 46.9-23.5 99.7-21.6 149.4 0.3 6.5 7 30 0.1 33.3-7 3.4-10.1-9.1-2.2-9.3 6.7-0.2 6.4 10.3-0.3 9.8-26.2-2.2-0.8-171.2 10.5-189.4 4.8-7.8 15.1-1.7 13.5 6.2z"  fill="#c2e1ff" /><path d="M307.3-119.7c-22 45.2-30.8 96.7-32 146.7-0.2 7.1 6.9 53.6-3.1 51.6-5.6-1.1-4.9-9.6 0.8-9.8 6.7-0.2 6.3 10.4-0.3 9.8-12.6-1.1-9.4-56.3-9.1-65.5 1.2-35.9 7.6-112.5 30.1-141.1 6.1-7.8 16.3-0.1 13.6 8.3z"  fill="#fff" /><path d="M319.2-56.9c-17.9 28.7-26.6 63.4-28.3 97-0.3 6 6 40.7-4.9 38.2-6.7-1.5-3.7-11.9 2.7-9.7 6.5 2.2 2.4 12.3-3.8 9.4-18.5-8.7 7.9-123.1 19.4-143.1 5.6-9.8 18.9-1.7 14.9 8.2z"  fill="#c2e1ff" /><path d="M330.9-254.5c-39 76.2-56.5 165.3-60.7 250.3-1 19.5-1.4 39.1 0.4 58.5 0.4 4.2 7.3 25.9-3.4 23.8-5.6-1.1-4.9-9.5 0.8-9.6 5.7-0.2 6.8 8.2 1.3 9.6-10.3 2.6-10-28.1-10.5-33.7-8-92.3 11.8-190.1 44.7-276 3.5-9.2 7.3-18.2 11.4-27.1 4.9-10.7 20.2-8 16 4.2z"  fill="#c2e1ff" /><path d="M342.6-161.7c-38.6 52.4-59.6 107.9-64.7 172.9-0.7 8.9 3.8 68.5-4.4 66.8-5.6-1.1-4.8-9.7 0.9-9.7 5.7-0.1 6.8 8.4 1.3 9.7-10.9 2.6-10-32.2-10.3-38-2.5-53.5 7.1-111.4 30.5-159.8 8.1-16.8 19.1-41.8 33.5-54.1 8.4-7.2 17.9 3.6 13.2 12.2z"  fill="#fff" /><path d="M369.9-396.2c-8.8 31-25.7 59.4-39.5 88.3-24.6 52.1-38.4 106.7-48.4 163.3-4.1 23.2-6 85.1-14.3 89.8-8.6 4.9-13.6-10.8-3.6-11.7 9.9-0.8 7.7 15.5-1.6 12.1-10.4-3.8-1-41.1-0.1-49.5 16.4-138.2 38.2-163.9 88.5-284.7 12.6-30.3 20.5-15.1 19-7.6z"  fill="#c2e1ff" /><path d="M365.7-56.7c-25.5 22.3-43.4 51.3-50.5 84.5-2 9.5 1.6 44.1-4.5 49.5-6.2 5.5-12.8-6.5-4.9-8.8 9.3-2.8 7.8 14-0.8 9.6-5-2.5-4-12-4.4-16.3-4-48 15.1-100.6 51.3-133.1 9.9-8.9 21.9 4.8 13.8 14.6z"  fill="#c2e1ff" /><path d="M377.1-73.9c-34.5 26.3-59.1 59.9-67.1 103.1-1.7 9.1 2 42.7-3.7 47.8-7.2 6.4-12.9-9.4-3.2-9.1 8.2 0.3 4.9 13.5-2.5 9.8-5-2.5-4.2-13.4-4.5-17.6-4.4-57 21.9-116.1 68-150.2 11.1-8.2 22.3 6.9 13 16.2z"  fill="#fff500" /><path d="M388.7-103.5c-41.5 31.1-74.1 62.8-86.2 115.1-3.7 16.1-0.2 60.4-5.6 65.3-6 5.5-12.7-6.2-5-8.7 9.1-2.9 7.9 13.7-0.7 9.5-7.7-3.7-5.5-27.3-5.4-34.2 0.1-65.9 32-120 83.6-159 12.2-9.2 34.2-2.3 19.3 12z"  fill="#c2e1ff" /><path d="M400.8-136.4c-42.8 40.6-85.7 67.1-102.2 127.6-5.5 20.2-8.5 41.3-8.1 62.3 0.1 2.8 5.4 31.5-6.1 24.5-6.8-4.2 2.3-13.8 6.8-7.1 3.8 5.7-5.5 11.2-8.7 5.1-20.8-39.8 12.1-132.7 37.2-165.4 17.1-22.3 44.7-50.5 69.7-63.6 11-5.7 18.7 8.3 11.4 16.6z"  fill="#c2e1ff" /><path d="M413.2-6.2c-8.1 18-12 37.8-10 57.5 0.4 4.2 9.5 26.8 0.1 26.3-5.7-0.3-4.7-9.2 0.9-8.3 4.8 0.8 4.4 8-0.5 8.3-20.3 1.2-11.5-80.5-4.2-91 5.4-7.9 15.7-1 13.7 7.2z"  fill="#fff" /><path d=""  fill="#fff" /><path d="M436.8-248c-12.9 23.7-25.4 47.6-42.4 68.7-37.2 46.5-82.3 79.5-100 139.1-7.5 25.2-11.7 51.8-12.3 78.1-0.2 7.7 6 33.8 0.6 39-5.7 5.5-12.6-5.7-5.1-8.3 8.8-3 8 13.1-0.5 9.3-8.8-4-6.7-35.3-6.8-43.5-0.7-123 44.8-146.5 113.8-230.6 15.2-18.5 23.4-44.2 39.1-61.5 6.9-7.6 16.9 1.2 13.6 9.7z"  fill="#fff" /><path d="M447.3-356.2c-98.6 68.3-142.5 150.7-165.6 267.9-6.6 33.2-9.9 67.1-11 100.9-0.2 4.8 3.9 30.9-7.8 26.6-8.5-3.1-0.4-15.8 6-9.4 6.4 6.4-6.2 14.5-9.4 6-4.3-11.7-0.7-31-0.1-43.3 4.8-101.6 32.2-215.9 96.8-296.9 19.5-24.5 51.1-59.2 81.1-70.7 12.3-4.7 18.7 11.2 10 18.9z"  fill="#005bbb" /><path d="M460.2-127.1c-23.7 53.1-82.2 77.9-108.9 128.9-8.7 16.7-14.1 35.1-15.1 53.9-0.2 3.1 3.5 29.6-7.6 22.3-5.9-3.9 0.7-12.9 6.1-8.4 4.7 3.8-0.3 11.4-5.6 8.7-12.7-6.5-2.7-51.7 0-62 14.9-55.8 60.2-84.1 96.9-124.4 7.4-8.2 13.5-23.8 22.3-29.7 7.5-5.1 14.8 3.3 11.9 10.7z"  fill="#c2e1ff" /><path d="M417.6-392c-67.3 75.5-104.1 136-127.9 235.4-2.6 10.8-17.9 83.6-18.1 83.6-9.2 4.7-13.5-11.8-3.3-12.2 10.3-0.4 7.3 16.4-2.2 12.5-10.9-4.5 1.2-44.4 2.9-53.1 19.2-105.7 57-202.1 134.4-279 9-8.9 21.2 2.9 14.2 12.8z"  fill="#fff" /><path d=""  fill="#005bbb" /><path d="M493.5-1.7c0.8 10 22.4 77.6 18 78.9-5.4 1.6-7.5-7-1.9-8.1 5.5-1 6.7 7.8 1.1 8.2-9.6 0.7-28.7-69-27.7-78.9 0.7-6.4 9-5.7 10.5-0.1z"  fill="#fff" /><path d=""  fill="#fff500" /><path d="M518.9-314.9c-25.1 69.9 27.6 118.7 41.5 183.3 9.2 42.6 0.9 86.4 1.8 129.5 0.5 25.1 4.1 50.2 4.3 75.2 0.1 10.8-16.9 4.2-10-3.6 7-8 15.4 8.5 4.8 9.5-16 1.4-8.5-155.1-8.3-172.7 0.7-71.9-43.5-109.6-52.5-172.7-2.2-15.4-3.4-40.4 4.9-54.4 4.6-7.8 14.9-2 13.5 5.9z"  fill="#fff500" /><path d="M527.9 45.8c1.4 5.2 12.5 30.3 3.1 32-6.3 1.1-7.6-9-1.1-9.4 6.4-0.4 6.5 9.7 0.1 9.5-13.3-0.6-11.3-55.2-2.1-32.1z"  fill="#c2e1ff" /><path d="M538.8-176.5c25.1 55.7 17.1 109.4 18.6 168.4 0.5 20.7 10.7 64.9 5.7 82.9-2.8 10.1-17.3-0.9-8.3-6.3 7.7-4.6 12.4 9.5 3.5 10.4-15.2 1.6-11.6-145-11.2-161.8 0.5-19.4-0.4-38.7-4.7-57.7-2.2-9.8-11.8-25.2-10.9-34.7 0.4-4.2 5.6-4.3 7.3-1.2z"  fill="#005bbb" /><path d="M554.1-355.1c-33.2 106.5 42.9 119.3 49.1 196 4.2 52.3-7.1 96.2-12.8 147.2-3 26.8-3 53.7-4.3 80.6-0.6 11.6-14.4 14.2-12.6 3.8 2.8-15.9 22.2 7.4 6 7.3-20.3-0.2 11.9-168.5 12.5-186.9 3.8-126-43-105.7-56.8-189.8-2.9-18-3.8-47.1 5.5-63.7 4.4-7.8 14.6-2.3 13.4 5.5z"  fill="#fff" /><path d="M528.8-392.7c-28.8 38.5-66.7 66.9-100.9 100.2-34.5 33.5-62 73-87.9 113.3-14.3 22.3-28 45.1-38.3 69.5-2.4 5.7-7.8 32.5-19.3 23-6.7-5.5 0.5-16.3 8.2-12.4 7.7 4 3 16-5.3 13.8-13.1-3.5 1-28.1 3.7-34.8 37.5-93.2 106.1-170.3 179.6-236.4 12.1-10.9 37.2-45 49.2-50.3 9.3-4.2 15.6 6.6 11 14.1z"  fill="#fff500" /><path d="M573.4-237.6c58 99.1 25.1 147.4 17.3 243.4-1.2 14.9 4.9 60.4-4.9 71.6-6.5 7.5-16.3-5.8-7.2-9.8 9.1-4 12.4 12.1 2.4 11.9-19.2-0.3 10.3-153.6 10.6-171.1 0.6-29.1 1.6-58.8 1.6-87.8 0-20.3-20.3-37.4-25.7-55.7-1.1-3.8 3.8-5.3 5.9-2.5z"  fill="#c2e1ff" /><path d="M588.6-397c-18.5 81.2 10 91.7 11.3 120.6 5.8 126.7 5.3 127.4 5.2 223.6 0 6.6 0.6 89.9-6.1 97.5-6.6 7.4-16.3-5.9-7.2-9.9 9.1-4 12.3 12.2 2.4 12-12.5-0.3-3.8-36.8-3-43.8 4-39.7 0.6-81.8 0.8-121.2 0.2-51.9 1.4-103.8 1-155.8-0.1-11.5-23.1-52-22.2-88.4 1.1-45 19-52.1 17.8-34.6z"  fill="#c2e1ff" /><path d="M600.2-115.7c-0.7 37.9-11.3 75-14.2 112.7-0.8 10.3 2.1 83.6-9.6 82.4-9.7-1-4.6-16.4 3.9-11.4 7.2 4.3-0.2 15.2-6.9 10.2-9-6.8 5.5-120.3 14.6-194.5 1-8 11.7-7 12.2 0.7z"  fill="#005bbb" /><path d=""  fill="#005bbb" /><path d=""  fill="#fff500" /><path d=""  fill="#005bbb" /><path d=""  fill="#c2e1ff" /><path d=""  fill="#005bbb" /><path d=""  fill="#c2e1ff" /><path d=""  fill="#005bbb" /><path d=""  fill="#fff" /></svg>