<svg width="1200" height="675" viewBox="-500 -500 1200 675" xmlns="http://www.w3.org/2000/svg"><path d="M-500-500h1200v675h-1200z" fill="#000"/><path d=""  fill="#fff" /><path d=""  fill="#fff" /><path d=""  fill="#fff500" /><path d="M-396.7-221.4c19.4 34.2 26.9 72 9.3 108.7-2.2 4.6-4.9 14.1-11.1 14.3-9.3 0.3-6.5-14.9 2.1-11.3 10.1 4.2-3.2 17.8-7.7 7.8-3.3-7.6 17.3-40.2 18.7-51.6 1.8-15.2-0.7-30.6-5.9-44.9-1.5-4.3-11.3-19.1-9.4-22.9 0.9-1.7 3-1.4 4-0.1z"  fill="#c2e1ff" /><path d=""  fill="#c2e1ff" /><path d="M-397-247.7c28.8 43.4 50.2 91.1 21.4 140.7-4 6.8-13.3 25.1-21.4 26.7-8.5 1.8-10.6-11.8-1.9-12.6 8.6-0.8 9.2 12.9 0.5 12.8-18.5-0.2 28.8-44.2 29.4-83.6 0.5-34-21.2-52.9-31.5-82.3-0.8-2.3 2.1-3.4 3.5-1.7z"  fill="#c2e1ff" /><path d=""  fill="#005bbb" /><path d=""  fill="#c2e1ff" /><path d=""  fill="#fff" /><path d=""  fill="#005bbb" /><path d="M-396.1-196.9c3.9 9.6 18.4 81.4-3.1 79.3-6.1-0.6-6.1-9.7-0.1-10.4 7.1-0.8 7.8 10.4 0.6 10.4-10.5 0.1 2.6-32.7 3-39.3 0.8-14-4.4-25.5-5.7-38.8-0.3-3.4 4-3.9 5.3-1.2z"  fill="#005bbb" /><path d=""  fill="#005bbb" /><path d=""  fill="#fff" /><path d="M-394.5-357.9c23.6 89.4 182.4 171.5 67.3 287.4-9.1 9.1-61.2 52.6-71.4 52.5-13.2-0.1-4.5-21.4 5-12.2 11.2 10.8-16.1 18.1-11.7 3.1 3.5-12.1 33.7-25.7 43.8-32.9 32.9-23.7 60.7-54.1 64.5-96.2 6.6-73.3-57.8-112.8-90-169.7-4.8-8.4-12.8-21.1-13.3-30.9-0.2-3.6 4.5-4 5.8-1.1z"  fill="#005bbb" /><path d="M-387.5-326.1c39.2 78.4 157.8 150.6 54.7 253.7-8.6 8.6-56.1 48.9-65.7 48.8-13.2-0.2-4.4-21.4 5-12.2 11.2 10.9-16.2 18-11.8 3.1 3.4-11.5 31.4-24.1 40.9-31.1 30.7-22.6 57.2-51.4 61.4-91 7.1-67.4-49.4-107.7-82.1-158.4-1.4-2.2-7.4-19.9-2.4-12.9z"  fill="#fff" /><path d="M-377.1 6.3c-5.1 4.1-19.1 22.4-26.2 14.6-5.2-5.6 2.3-14.2 8.6-9.7 7.3 5.1-1.4 16.1-8.1 10.2-8.4-7.3 13.2-25.8 19.7-27.2 7.5-1.6 10.5 7.2 6 12.1z"  fill="#c2e1ff" /><path d="M-369.2 6.3c-6 4.8-26.4 30.1-33.8 23-6.2-6 3.9-15.3 9.4-8.6 5.5 6.7-5.5 14.8-10.3 7.5-5.5-8.4 26.2-40.5 35-32.2 3.3 3.1 2.5 7.4-0.3 10.3z"  fill="#fff500" /><path d="M-360.9 37.8c-5.8 6.9-19 38.6-25.7 40.3-7.8 2-8.3-11.4-0.4-9.9 7.9 1.5 2.7 13.8-3.8 9.2-8.9-6.3 14.8-43.2 21.2-48.3 6-4.7 12.2 2.9 8.7 8.7z"  fill="#c2e1ff" /><path d="M-362.8-398.9c4 55.4 46 87.7 76.2 129.6 34 47.2 42.4 108.5 25 163.9-3.7 11.9-15.2 48-29 51.5-11.3 2.8-8.6-17.2 1.5-11.6 10.2 5.7-5.6 18.4-9 7.3-2.6-8.3 22.2-38.1 26-47.9 10.5-27.6 13.6-58.4 10-87.7-8.2-67.9-61.4-100.9-92.2-156.6-30.1-54.5-9.3-51.8-8.5-48.5z"  fill="#005bbb" /><path d="M-344.8-399.1c6.9 51.4 47.2 83.6 73.5 125.1 37.8 59.9 39 144.6 8.8 208.2-7 14.7-30.9 59.5-49.2 61.6-14.5 1.7-3.6-22.5 4.7-10.4 7.1 10.2-14 15-12.1 2.8 2-13 30.7-33.4 38.7-45.5 23.1-35 30.9-78.5 30.4-119.8-1.3-93.2-53.8-113.7-89.7-186.1-12.1-24.4-9.7-51.1-5.1-35.9z"  fill="#fff500" /><path d=""  fill="#fff500" /><path d=""  fill="#005bbb" /><path d=""  fill="#fff500" /><path d="M-313.4-399.3c12.3 48.5 49.5 84.8 68.5 130.2 29.1 69.4 21.6 164.6-0.6 235.2-3.3 10.6-17.2 59.6-29.3 61.1-8.7 1.1-7.4-13.4 0.9-10.7 9.8 3.1-1.5 17-6.5 7.9-4.3-7.8 16.1-38.1 19.7-46.6 21.3-51.9 26.3-111.7 24.8-167.3-2.6-94.8-49.5-118.9-79.2-196.3-1.4-3.5-2.4-23.2 1.7-13.5z"  fill="#005bbb" /><path d="M-300.6-399.4c16.2 54.3 56.8 97 70.4 152.5 11.6 47.1 7.7 97.6 4.7 145.6-0.8 12.4-8.6 118.5-20.8 114.9-5.3-1.5-3.8-9.6 1.7-9.2 5.5 0.4 5.8 8.6 0.4 9.4-10.5 1.6 2.5-43 3.5-49.6 8.9-56.5 12.9-117 9-174.1-4.7-69.9-47.3-116.7-71.3-179.2-1.2-3.1-1.7-19 2.4-10.3z"  fill="#c2e1ff" /><path d="M-301.3-321c17.4 22.2 35.1 44.2 46.2 70.3 27 63.2 20.6 150.9-16 209.2-15.3 24.3-36.6 43.4-56 64.3-6.6 7.1-35.7 56.3-40.4 55.9-9.4-0.7-2.2-15.5 4.2-8.5 7.4 8.2-12.3 12.2-8.6 1.7 26.8-76 101.4-100.7 119-189.4 9.8-49.4 8.3-104-15.3-149.4-7.5-14.4-36.7-44.1-36.1-53.2 0.1-1.7 2-2 3-0.9z"  fill="#fff500" /><path d="M-290.5-150.5c-2.9 42.3-29.4 75.3-62 100-7.7 5.9-41.6 36.3-50.3 29.5-8.9-6.9 5.5-18.9 10.7-8.8 5.2 10-12.9 14.8-13.4 3.5-0.6-14 55.9-43.6 66.9-53.7 38-35 27.3-54.7 40.3-73.4 2.7-3.9 7.8-1.2 7.8 2.9z"  fill="#fff500" /><path d=""  fill="#fff500" /><path d=""  fill="#fff" /><path d=""  fill="#fff" /><path d=""  fill="#fff500" /><path d="M-251.5-179.2c8 110.4-49.6 135.6-118.3 201.1-5.6 5.3-24.7 34.8-32 29.7-7.6-5.3 3.7-15.6 8.3-7.7 4.6 7.9-9.9 12.6-10.7 3.5-2-21.1 94.3-90.5 111.7-112.6 15.6-19.8 25.4-43.3 30-68 2.5-13.1-1.5-36.1 3.8-47.4 1.8-3.8 6.6-2.1 7.2 1.4z"  fill="#c2e1ff" /><path d="M-242.7-71.7c-6.4 26-74.2 148.8-78.3 150-7.6 2.2-8.4-11-0.6-9.8 7.8 1.2 3 13.5-3.5 9.1-15.1-10.1 48-93.8 54.8-106.5 7.9-14.7 10.8-32.3 18.7-46.4 2.9-5.2 9.6-1.6 8.9 3.6z"  fill="#fff" /><path d="M-235.1 36.6c-0.9 6.2-1.7 42.5-9.7 41.2-5.8-0.9-3.8-9.9 1.8-8.4 5.6 1.6 2.7 10.3-2.7 8.1-5.9-2.3-0.8-39.3 2.6-44.1 2.8-4 8-1.1 8 3.2z"  fill="#c2e1ff" /><path d="M-228.9-305.9c31.9 88.5 4.6 183.1 33 272 3.8 11.8 50.4 109.6 48 110.3-3.7 1.1-5.1-4.8-1.3-5.5 3.8-0.7 4.5 5.3 0.7 5.6-5 0.3-7-13.1-8.5-16.6-17.5-39.7-41.5-74.6-51.8-117.5-12.8-53.3-7.5-107.7-9.8-161.9-0.5-12-16.2-85.8-15.2-87.2 1.4-2 4-1.2 4.9 0.8z"  fill="#fff" /><path d=""  fill="#c2e1ff" /><path d="M-212.1-233.3c7.3 72.7-5.5 144.8 21.4 214.9 3.8 9.9 46.6 93.4 42.1 94.7-3.1 0.9-5-3.6-2.1-5.2 3.4-1.8 6 3.6 2.4 5.1-4.3 1.8-15.8-29.8-18.2-34.5-59.6-113.1-45-148.9-52.5-268.2-0.3-4.4 4.9-16.5 6.9-6.8z"  fill="#c2e1ff" /><path d="M-191.1-399.1c18 86.7-6.4 227.1 18.7 293.4 11.4 30.2 33.7 51.8 56.9 73.1 2.4 2.1 14.6 11.1 14.1 14-0.1 0.5-0.5 0.9-1 1-4.7 0.9-27.2-24.8-31.5-28.9-86.3-80.7-49.8-200.3-58.9-312.1-1-12.7-5.6-27.6-4.9-40.1 0.2-4 5.5-3.8 6.6-0.4z"  fill="#005bbb" /><path d="M-169.8-398.4c9.2 87.6-21.8 181.5-0.9 267.6 6.4 26.4 20.6 48.9 39.5 68.2 1.6 1.6 17.4 16 14.3 16.4-2.2 0.3 1.9 0.2-0.3 0-5.4-0.5-16.3-15-20.1-18.9-74.8-76.2-40.8-200.6-39-296.5 0.1-6.9-4.5-35.2 0.6-39.4 2.4-2 5.4-0.2 5.9 2.6z"  fill="#fff" /><path d="M-188.2-245c0.7 62.3-10.3 129.6 30 182.9 22.5 29.8 54.8 50.2 76.9 80.4 5.6 7.6 33.4 48.6 25.3 57.5-3.4 3.7-8.2-3.1-3.6-5.1 4-1.7 6.3 4.7 2.2 6-1.8 0.5-22.3-49.3-26.6-55.7-31.9-47.8-86.1-73.8-104.1-131.4-5.2-16.8-15.6-127.4-7-137.2 2.6-2.9 6.5-0.7 6.9 2.6z"  fill="#fff" /><path d="M-181.7 32c3.3 8.4 18.4 34.2 14.9 42.8-1.8 4.5-8.5 0-5-3.4 3.5-3.3 7.7 3.6 3.1 5.2-5.5 1.8-6.7-12-7.6-14.8-2-6.1-12.6-23.9-10.4-29.7 0.9-2.5 3.9-2.1 5-0.1z"  fill="#fff500" /><path d="M-172.3-325.9c-1.5 70.7-22.1 174.6 16.8 236.7 30.6 48.9 83.3 74.8 104.4 131.4 2.1 5.6 12.5 29.2 7.6 33.8-3.9 3.7-8.5-3.9-3.5-5.6 4.3-1.5 6.4 5.5 1.9 6.5-1.5 0.4-22-58.7-26.3-66.2-31.4-53.6-92.5-80.8-108.4-144.6-14.7-59.6-4.2-131.4-0.5-192.2 0.3-5.3 7.5-4.9 8 0.2z"  fill="#fff" /><path d="M-165-155.6c11 86.7 101.8 118.3 124.5 206.3 1.4 5.3 6.8 19.3 4.1 24.2-2.3 4.1-8.6 0.1-5.9-3.7 3.2-4.5 9.4 2.3 4.6 5-7.2 4.1-7.1-15.1-7.6-18.1-3.8-19.6-10.4-38.7-20-56.3-22.9-42.3-66.1-67.6-89.8-109-32.6-56.7-11.1-52.5-9.9-48.4z"  fill="#fff" /><path d="M-158.5 45.9c2 3.7 17 28.3 10.6 30.3-3.7 1.1-5.1-4.8-1.3-5.5 3.8-0.7 4.5 5.3 0.7 5.6-10.6 0.8-15.9-39.2-10-30.4z"  fill="#fff" /><path d="M-148.1-274.2c-11.3 58.2-19.5 125.4 16.9 176.5 20.3 28.5 48.5 50.3 67.6 80 6.1 9.6 44.8 88.2 29.5 94.4-5.2 2.1-6.8-7.1-1.2-6.8 6.6 0.3 1.9 10.8-2.7 6-2.7-2.8-11.3-52.4-15-62-24-62.4-90.4-96.6-107-162-10.3-40.4-5.8-87.4 2.9-127.7 1.3-5.9 9.3-4.1 9 1.6z"  fill="#fff500" /><path d="M-137.7-398.2c-5.4 87.2-48.5 184.5-18.4 271.1 12.6 36.2 41.5 59.6 66.7 86.9 2.3 2.4 11.9 10.5 10.9 13.6-0.9 3-5.1-0.4-2.4-1.9 2.3-1.3 3.6 2.9 1 3.1-5.4 0.4-31.7-33.8-37-39-92.3-92.1-45.8-208.9-30.7-321.8 0.5-4-0.5-12.4 2.8-15.4 3-2.9 7-0.2 7.1 3.4z"  fill="#fff" /><path d="M-132.8-202.9c-1.3 24.1 2.3 48.4 12.1 70.6 29.7 66.8 74.8 88.1 91.2 171.8 1.1 5.6 9.1 34.9 2.3 37.3-5.5 2-6.8-7.6-1-7.1 6.8 0.6 1.5 11.3-3.1 6.1-3.2-3.6-11.5-65.8-15.5-77.8-18.6-54.6-66.2-91.2-85.3-144.7-5.5-15.4-13.1-40.9-8.7-57.4 1.3-4.8 7.5-3.2 8 1.2z"  fill="#005bbb" /><path d="M-127.5-102.1c37.9 55.3 79.5 82.8 94 153.7 1.1 5.2 5.8 19 2.9 23.7-2.5 4.2-8.9-0.1-6-4 3.5-4.5 9.6 2.7 4.6 5.3-7.6 4-7.1-17.8-7.6-21.1-3.8-23-10.7-45.6-21.3-66.4-16.7-32.7-43.9-56.2-66.2-84.7-1.1-1.4-4.7-11.1-0.4-6.5z"  fill="#fff500" /><path d="M-116.4-237.9c-7.7 29.6-8.1 61.4 1.6 90.6 23.4 69.9 72 95 87.8 184.8 1.1 6 8.7 37.1 1.9 39.5-5.6 2-6.8-7.8-0.8-7.3 6.9 0.7 1.4 11.4-3.2 6.2-2.8-3.2-9.4-63-12.4-73.8-17.2-61.9-70.5-106-84.7-168-4.7-20.6-9-55.5 0.9-75.2 2.6-5.2 9.4-1.9 8.9 3.2z"  fill="#005bbb" /><path d="M-111.8 32c6 7.3 27.4 32 24.3 42.1-1.3 4.2-7.7 0.6-4.7-2.7 2.9-3.3 7.2 2.7 3.2 4.4-5.1 2.2-9.8-16.6-11.4-19.7-3.3-6.4-13.3-16.1-14.4-22.8-0.3-1.9 1.9-2.5 3-1.3z"  fill="#005bbb" /><path d="M-100.3-305.4c-29 53.1-44.3 120.2-16.8 177.1 16.2 33.5 43.9 59.8 61.8 92.4 9.5 17.4 36.1 106.5 29.4 111.9-3.9 3.1-8.5-3.3-4.3-6 5-3.1 8.3 6 2.5 6.8-7.3 1-5.7-20.7-6.3-25.2-3.2-24.2-9.1-48.3-18.7-70.8-31-73.4-93.5-108.2-86-197.7 2.3-28 9.8-73 29.2-94.8 4.5-5.1 11.3 0.6 9.2 6.3z"  fill="#005bbb" /><path d="M-99.3-396.9c-20 83.8-71.6 165.8-45.2 255.2 11.2 37.9 40 63.2 64.3 92.7 1.9 2.3 10 9.7 9 12.8-1 2.8-5.1 0.1-3.1-1.9 2.4-2.4 4.8 3.1 1.4 3.2-4.7 0.1-20.7-25.2-24.6-29.5-43.4-48.8-66.1-92.7-59.9-159.8 2.5-26.8 35.5-161.4 49.9-177.2 3.6-3.9 8.8-0.1 8.2 4.5z"  fill="#c2e1ff" /><path d="M-89.5-397.3c-21.1 80.2-70.1 149.9-55.1 237.2 4.8 28 18.3 52 36.4 73.6 1.5 1.8 17.5 18.6 12.8 18.7-6.1 0.1 6.2-0.7 0.2 0-3.3 0.4-10.7-11.2-12.8-13.6-44.1-50.8-53.7-106.8-41.4-172.2 8.8-46.8 51.2-148.8 53.7-149.7 4-1.3 6.8 2.3 6.2 6z"  fill="#005bbb" /><path d="M-78.7-154.8c17 68 49.1 106.6 58.7 185.9 0.8 6.7 7.9 44.1 0.6 46.3-5.8 1.8-6.7-8.3-0.6-7.5 7.1 0.9 1 11.8-3.5 6.2-3.1-3.8-8.2-78.3-10.9-91.2-7.3-34.7-49.5-120-50.2-138.8-0.1-3.7 4.7-4 5.9-0.9z"  fill="#005bbb" /><path d=""  fill="#fff500" /><path d=""  fill="#fff500" /><path d="M-54.4-163.5c6 60.8 32.2 119.6 38.1 184.5 0.8 8.8 8.6 50.8 1.3 55.9-5.1 3.6-9-6-2.9-7.1 5.2-0.9 6.2 7.4 0.9 7.8-4.7 0.3-9.6-86-11.1-96.7-3-20.8-35.7-138.1-33.1-145.1 1.3-3.7 6-2.5 6.8 0.7z"  fill="#fff500" /><path d="M-45-246.2c-38 62.9-4.3 124 12.7 187.3 11.4 42.3 18.3 88.2 18 132.1-0.1 7.3-11.5 2.7-6.8-2.5 4.9-5.3 10.4 6 3.1 6.5-5.2 0.4-9.2-76.1-10.6-85.9-9.1-62.1-46.5-124.7-42.7-187.6 1-16.8 5.2-43.6 17.1-56.6 4.7-5.1 11.5 0.9 9.2 6.7z"  fill="#fff" /><path d="M-37.2-290.1c-34.7 43.1-54.9 89-37.9 144.5 9.6 31.2 25.8 59.9 36.4 90.7 11.1 32.3 25.9 127.4 20.6 131.3-4.2 3.1-8.7-3.9-4.2-6.4 5.3-3 8.3 6.7 2.2 7.1-3.5 0.3-13-87.7-15.4-98.5-15.1-66.7-66.8-130.8-51.3-201.6 5.3-24.2 20.5-60.2 40.9-75.9 6-4.7 12.2 3 8.7 8.8z"  fill="#005bbb" /><path d="M-29.3-222c-25.6 55.6 13.2 189 16.7 263.7 0.4 9.3 3.6 24.2 0.7 33-2.3 7-12.1-1.3-5.6-4.7 5.5-3 8.3 7 2.1 7.4-6.5 0.4-6.3-64.2-7-72.9-4.6-60.2-26.5-120.5-26.2-180.6 0.1-14.8 1-38.6 10.1-51 3.8-5.2 10.7-0.4 9.2 5.1z"  fill="#fff" /><path d="M-24.4-397.4c-14.1 86.3-104.3 127.9-86.9 228.1 8.6 49.5 45.5 86.9 65.2 131.9 1.1 2.5 11.1 20.4 3.7 20-12.6-0.5 11.5-8.9 2-0.6-4.2 3.7-6-5.6-6.6-7.4-25.5-70.9-86.3-122.1-71.6-203.8 9.4-52 44.8-87 69.9-131.3 6.4-11.4 8.5-31.5 16.2-40.8 3.2-3.9 8.4-0.5 8.1 3.9z"  fill="#fff" /><path d="M-13.5-256.6c-59.8 83-8.5 181.2-1.3 273.3 0.6 7.5 6.7 61.1-1.5 60.6-5.3-0.3-4.5-8.6 0.8-7.8 4.5 0.7 4.2 7.5-0.3 7.8-7.5 0.5-5.3-44-5.7-50.7-3.8-62.6-35.6-172.9-30.1-220.9 2.5-21.7 12-55.1 29.2-70.2 5.5-4.9 12 2.2 8.9 7.9z"  fill="#005bbb" /><path d=""  fill="#005bbb" /><path d="M1.6-132.6c-5.2 53.3-5.8 107.5-6.6 161-0.1 6.7 2.8 49.7-5.2 49-4.7-0.4-4.9-7.4-0.2-8 5.5-0.7 6.1 7.9 0.7 8-8 0.2-3.4-40-3.3-46.4 0.3-18.9 3.5-163.3 7.4-167.1 3-2.9 7-0.2 7.2 3.5z"  fill="#fff500" /><path d="M10.2-300.7c-40.2 64.4-74.5 90.6-54.5 173.2 4.4 18.2 45.2 205.5 27.3 204.6-6.2-0.3-3.6-10.2 2-7.4 5.5 2.9-1.1 10.8-4.9 5.9-3.3-4.3-4.7-74-6.1-85.9-8.1-68.1-49.2-146.1-26-213.9 6-17.7 38.7-76.4 54.4-85 5.7-3.1 10.3 3.4 7.8 8.5z"  fill="#fff500" /><path d="M17.9-183.5c-20.9 61.9-19.4 134.4-21.4 199.1-0.2 7.8 1.9 62.5-5.9 61.8-5.5-0.5-4.3-9.1 1.2-8.1 6.3 1.3 2 11.1-3.2 7.3-7.2-5.2-0.5-49.3-0.2-58.6 1.7-61.2 2.2-125.7 15.1-185.7 1.4-6.3 2.8-12.7 4.9-18.8 2.1-6.3 10.6-3.2 9.5 3z"  fill="#005bbb" /><path d="M26-290c-18.5 32.5-45.2 59.8-53.8 97.2-12.3 53.3 7.6 112.8 12.5 166.3 1 11.1 9.3 104.4 0.6 103.9-4.6-0.3-5-7.1-0.4-7.9 5.3-0.9 6.2 7.6 0.8 7.9-7.7 0.4-4.6-39.1-4.9-45.5-2.4-62.9-28.3-179.9-16.4-232.7 7.1-31.7 29.4-73.1 52.6-96.3 5-5 11.6 1.3 9 7.1z"  fill="#fff" /><path d="M32.7 74.5c-3.9 9.8-12.6-5.2-3.7-4.8 10.3 0.5-3 14.6-4.1 4.4-0.6-5.8 7.6-6.9 8-0.9z"  fill="#fff500" /><path d="M42.3-399.4c31.9 106-66.8 148.6-67.1 245-0.1 39.6 22.6 157.1 14.1 185.3-2.1 6.8-11.8-0.9-5.5-4.5 6.2-3.5 7.9 8.8 1 7.1-7.1-1.7-5-51.3-5.5-59.3-3.7-56.7-21.6-120.1-7-176 11.1-42.5 44.1-73 60.4-113 6.2-15.1 9.4-31.3 9-47.6-0.2-10.5-7.5-27.3-5.3-36.9 0.7-3.3 4.8-2.8 5.9-0.1z"  fill="#005bbb" /><path d="M49.6-286.8c-14.7 34.7-39.7 64-50.4 100.6-14.5 49.6-7.3 105.7-6.8 156.7 0.1 11.5 3.4 107.7-4.1 107.2-4.7-0.3-4.9-7.3-0.3-8 5.4-0.8 6.2 7.8 0.7 8-7.9 0.3-3.8-39.3-3.8-45.7-0.2-69.1-12.1-157.1 5.7-223.4 8.7-32.5 28.9-74.5 49.9-101 4.1-5.1 10.9 0 9.1 5.6z"  fill="#c2e1ff" /><path d="M57.5-271.8c-10 23.4-23.6 45.1-33.8 68.4-24.3 55.8-23.6 121.1-26.2 181-0.5 11-0.1 100.1-7.1 99.5-5.5-0.5-4.3-9.1 1.1-8 4.6 0.9 4 7.9-0.7 8-8.2 0.2-3.3-38.9-3.1-45.1 1.5-73.9-2.5-158.7 22.4-229.2 5.4-15.4 28-72.2 39.2-81 4.7-3.7 9.7 1.5 8.2 6.4z"  fill="#fff" /><path d="M65.5 9.6c-8.4 15.5-23.8 66.4-28.3 68-7.1 2.6-8.8-9.8-1.3-9.2 7.5 0.6 3.9 12.6-2.6 8.9-10-5.6 16.5-66.5 23-74 4.5-5.1 11.3 0.6 9.2 6.3z"  fill="#fff500" /><path d=""  fill="#c2e1ff" /><path d="M81.1-255.4c-26.9 84.4-61.3 164.9-73.7 253.5-1.5 10.8-4.5 74-7.8 78-5.1 5.9-11.3-6.1-3.6-6.9 6.6-0.6 5.3 10.3-0.9 8.1-9.5-3.3 3-75.9 4.4-86.4 11.8-85.6 40.5-169.4 72-249.5 2.4-6.2 10.8-3 9.6 3.2z"  fill="#fff" /><path d=""  fill="#005bbb" /><path d="M96.6-281.2c-14.7 92.7-63.5 178-82.5 269.9-2.5 12.2-8.5 83.6-11.9 87.4-5.2 5.8-11.3-6.3-3.5-7 6.7-0.6 5.2 10.4-1.1 8.2-6.8-2.5-0.9-26.8-0.4-32.5 5.2-56.2 19.9-108.3 37.9-161.5 6.9-20.3 49.2-162.8 53.4-168.1 3.1-3.9 8.3-0.7 8.1 3.6z"  fill="#c2e1ff" /><path d="M124.6-399.4c34.5 54.8 49.8 215.1 36.4 278.4-6.3 29.6-21.2 55.8-38 80.7-5.1 7.5-21.4 40.2-30.4 40.4-10.9 0.3-4.4-17.5 3.8-10.2 8.1 7.3-8.9 15.7-9.8 4.8-1.1-14 27.7-43.2 35.4-55.1 18.9-29 32.5-59.7 34.6-94.6 3.1-51.3-3.2-158.6-19.2-206.4-3.3-9.9-19.5-46.8-12.8-38z"  fill="#005bbb" /><path d="M112.7-114c-19.3 51.4-57.7 92.7-75.6 144.9-2.8 8-7.3 44-14.1 46.9-6.7 2.9-9-8.9-1.8-8.7 7.3 0.2 4.4 11.9-2.1 8.6-7.6-3.7 3.5-33.2 5.3-39.4 9.1-32.6 59.5-130.1 79.3-157.4 3.8-5.2 10.6-0.4 9 5.1z"  fill="#fff" /><path d="M120.7-5.8c-11.5 17.4-22.1 35.5-30.1 54.7-2.5 5.9-6.3 27.2-12.3 29.3-7.3 2.5-8.7-10.2-1.1-9.4 7.6 0.8 3.6 12.9-3 9-13.8-8.2 29.7-80.1 36.6-90 4.5-6.4 13.2-0.3 9.9 6.4z"  fill="#005bbb" /><path d=""  fill="#005bbb" /><path d="M133.7-384c28.5 54.9 42.3 221.8 23.1 280.5-12.5 38.2-38.6 69.4-60 102.7-4.8 7.5-23.9 51.8-31.3 50.9-9.7-1.2-1.5-16.2 4.7-8.6 6.2 7.6-10 12.8-9.3 3 2.9-41.6 84.2-117.4 94.4-182.4 7.6-48.7-2.2-179.7-18.5-226-0.6-1.6-8.6-28.7-3.1-20.1z"  fill="#fff500" /><path d="M143.8 70.4c-2 16.1-13.7-0.7-4.9-1.3 9.2-0.6 1.6 14.3-3.3 6.5-5-8 8-14.1 8.2-5.2z"  fill="#c2e1ff" /><path d="M151.2-263.1c1.8 52 9.4 108.7-8.3 158.7-17.1 48.2-54.4 85.7-76.8 131.1-3.6 7.3-17.7 53.6-24.4 51.5-7.3-2.3-0.9-13.3 4.7-8.2 6.6 6.1-7.4 12.8-8 3.9-3.3-48.2 75.7-134.2 94.8-182 17.8-44.6 3.6-141.9 10.7-156.6 1.8-3.8 6.7-2.1 7.3 1.6z"  fill="#fff500" /><path d="M158.5-340.6c10.8 52.2 25.8 194.6 9.7 242.1-18.9 55.8-64.2 97.9-86 152.6-2.1 5.2-5.2 26.5-13.3 23.7-5.3-1.8-3.5-10.1 2.1-9.4 6.6 0.7 4.8 11-1.6 9.6-9.9-2.2 3.3-28.2 5.4-33.4 23.4-59.1 76.1-105 90.2-167.8 10.2-45.1-4.4-157.7-11.5-206.8-0.3-2.3 1.6-21.6 5-10.6z"  fill="#fff500" /><path d="M167.2-155.8c-0.9 74.4-53.1 122.6-85.3 184.7-4.3 8.3-14.2 46.5-21.8 49-7.4 2.4-8.7-10.4-0.9-9.5 7.7 0.9 3.5 13-3.1 9-21.6-13.2 67.3-134.4 76.7-150.3 17.7-29.9 23.3-79.1 26.8-85.1 2.2-3.9 7.3-1.7 7.6 2.2z"  fill="#005bbb" /><path d=""  fill="#c2e1ff" /><path d=""  fill="#005bbb" /><path d="M190.7-398.5c-0.9 47.7-5.1 95.7 0.6 143.3 5.5 45.8 23.6 91.4 15.6 138-7.2 41.4-33.2 74.9-55.5 109.2-4.3 6.7-19.7 42.1-27.5 40.9-8.5-1.4-3.2-14.6 4-9.8 8.3 5.7-6.2 15.4-8.3 5.6-1.8-8.1 73.5-120.6 79.3-153.4 10.2-56.8-16.4-115.9-18.1-173.1-0.8-27.5-4.9-76.2 2-101.8 1.3-4.7 7.5-3.2 7.9 1.1z"  fill="#fff500" /><path d="M198-397.8c-5.6 48.4-10.2 98-3.7 146.6 5.8 43.6 22.9 86.7 16.2 131.2-6.5 42.8-33.5 77.2-56.4 112.5-4.3 6.6-18.9 40.4-26.5 39.1-8.5-1.4-3.1-14.7 4-9.8 8.3 5.7-6.2 15.5-8.4 5.6-1.8-8.6 73.2-119.4 79-152.8 10-58.1-18.2-117.9-18.8-176.4-0.3-28.6-3.6-70.8 6.3-98 1.8-5 8.3-2.7 8.3 2z"  fill="#fff500" /><path d="M207.5-92.1c-16.1 44.4-50.5 79.1-70.6 121.6-3.2 6.9-15 51.4-21.1 47.8-14.4-8.5 18.9-8.8 4.6 0-8.3 5.1-6.1-9-5.6-11.9 10.9-61.5 57.9-103.9 82-159.2 2.9-6.7 12.9-6.7 10.7 1.8z"  fill="#fff500" /><path d="M215.5-55.6c-20.6 31.1-46 59.5-59.2 94.8-2.2 5.8-7.2 41.5-14.2 38.1-5.1-2.5-0.7-10.3 4.1-7.2 4.8 3-0.4 10.3-4.8 6.8-9.5-7.5 7.5-47.8 11.3-56.6 7.2-16.5 40.5-76.8 55-84.6 5.8-3.1 10.4 3.6 7.8 8.7z"  fill="#005bbb" /><path d="M222.5-281.9c-4 53.7 28.8 102.4 22.6 156-6.8 58.4-55.5 97.9-80.7 148.1-3.6 7.2-16.6 55.8-20.3 55.2-6.6-0.9-2.8-11.2 2.8-7.6 5.6 3.5-2.1 11.4-5.7 5.8-19.2-29.8 79.9-151.3 91.4-187.6 16.1-50.8-11.5-97.4-17.2-147.2-2.1-18.3 5.7-39.1 7.1-22.7z"  fill="#fff500" /><path d="M210.1-397.2c-10.7 38.2-16.1 78.7-14.3 118.4 4 90.4 44.8 143.9-10.3 230.7-4.1 6.5-15.6 31.2-23.9 31.3-8.1 0.1-7.5-12.7 0.5-11.9 8 0.8 6.1 13.4-1.8 11.8-13.2-2.8 7.2-25.3 10.1-29.7 17.6-26.4 34.2-54.2 37.8-86.5 6.6-58.9-22.3-117.1-20.5-176.7 0.9-29.8 4.5-61.1 13.1-89.8 1.8-6.1 10.2-3.6 9.3 2.4z"  fill="#fff" /><path d="M209.7-397.2c-11.4 41.4-16.8 85.5-13.5 128.4 5.3 69 37 130 2.8 197-3.9 7.7-12.6 29.9-21 32.8-7.6 2.7-11.2-9.5-3.3-11.4 9.2-2.1 9.4 13.5 0.1 11.6-13-2.7 6.9-25.5 9.7-30.2 12.9-21.7 22.5-45.1 24.1-70.6 3.5-57.2-22.7-112.3-21-170.2 0.9-29.8 4.4-61.1 12.7-89.8 1.8-6.1 10.1-3.6 9.4 2.4z"  fill="#fff500" /><path d="M247.1-315.6c-36.2 64.8 21.9 129.3 10 195.9-11.2 62.8-70.9 101.6-91.9 160.3-2.4 6.6-4.1 33.1-9.1 36.1-5.6 3.3-9-6.9-2.5-7.6 6.5-0.7 5.3 10.1-0.9 8-7.8-2.7-0.1-28.1 1.3-33.6 15.3-59.8 70-96.6 90.4-153.3 20-55.4-16.5-105.5-17.4-160.5-0.2-14.8 0.9-39.2 10.8-51.2 4.3-5.2 11.2 0.2 9.3 5.9z"  fill="#c2e1ff" /><path d="M254.9-69.5c-24.9 36.3-60.2 65.4-76.3 107.4-2.7 7.1-4.8 36-9.8 39.1-5.4 3.4-9-6.6-2.7-7.4 7.5-0.9 4.2 11.7-1.9 7.3-4.2-3.1-1.2-13.8-0.7-17.9 4.4-36.7 63.5-127.3 83.8-137.4 6-3 10.4 3.9 7.6 8.9z"  fill="#fff" /><path d="M262.3-273.5c-9.2 50 26.8 95.1 21.3 145.2-6.7 61.6-65 97.1-93.4 147.9-6.8 12.2-15.1 55.2-18.5 57.3-5.4 3.4-9-6.6-2.6-7.4 6.4-0.8 5.4 9.8-0.7 7.9-7.5-2.4-1-25.5 0.2-30.9 14.7-64.9 78.6-98.1 101.2-158 17.5-46.4-8.3-87.7-15.3-132.9-1.2-7.7-5-25.2-0.2-32.1 2.8-4 8-1.2 8 3z"  fill="#005bbb" /><path d="M270.5-110.4c-13.8 50.7-60.3 83.7-85.2 128.3-7.4 13.3-13.1 27.5-15.7 42.6-0.6 3.5 0.4 20.4-7.3 16.9-5.9-2.6 0.4-11.2 4.7-6.3 4.2 4.8-5.1 10-6.9 3.8-11.4-38.8 40.2-100.8 62.8-128.2 10.8-13.1 34.6-57.5 39.4-62.3 3.9-3.8 9.1 0.5 8.2 5.2z"  fill="#005bbb" /><path d="M278.3-336.1c-75.3 64.5 4.7 145.4-13.8 222.4-14.5 60.5-73.7 96.9-94 155-2.3 6.6-3.7 32.5-8.7 35.5-5.5 3.4-9-6.8-2.6-7.5 6.4-0.7 5.3 9.9-0.8 7.9-7.7-2.5-0.4-27.5 1-33 14.4-58.3 66-93.3 90.2-146 29-63.2-21.8-119.9-12.7-183.5 2.5-17.2 15.2-56.8 35-62.2 7.2-2 10.6 6.5 6.4 11.4z"  fill="#fff" /><path d="M285.6-139.8c0.2 64.5-58.7 102-89.9 151.7-8.7 13.8-15.5 28.7-19 44.6-0.8 3.9 0 24.3-7.9 20.8-5-2.2-1.1-9.9 3.6-7.2 4.7 2.7 0 10-4.4 6.8-15.4-11.2 15.8-68.4 22.9-79.3 17.2-26.6 40.5-48.4 59.7-73.5 16.7-21.9 33.5-86.5 35-63.9z"  fill="#005bbb" /><path d="M294.5 55c-3.2 4.8-9.6 26.1-17.2 22.9-6.4-2.7-1.6-12.4 4.4-9.1 5.2 2.8 1.8 11-3.9 9.3-9.6-2.8 3.7-28.1 8.6-31.1 5.5-3.4 10.3 2.9 8.1 8z"  fill="#c2e1ff" /><path d="M300.4-220.8c8.5 37.1 24.3 72.1 13 110.7-16.6 56.4-75.2 83.6-104.6 131.8-7.3 12-15 52.4-19.1 54.9-5.5 3.4-9-6.8-2.6-7.5 6.4-0.8 5.3 9.9-0.7 7.9-7.3-2.4-1-23.9 0.1-28.9 15.4-66.6 83.2-93 112.4-150.2 20.6-40.4-5.2-117.7-4.3-119.3 1.4-2.7 4.9-1.8 5.8 0.6z"  fill="#c2e1ff" /><path d="M309.5-4.3c-18.2 13.4-36.9 27.1-49.9 45.8-4.7 6.7-11.7 33.8-17.5 36.3-7.9 3.3-8.1-11.5-0.2-8.5 6.8 2.6 0.2 12.7-4.9 7.5-14.4-14.7 47-85.6 65.5-93.4 8-3.4 12.6 6.9 7 12.3z"  fill="#fff500" /><path d="M318.1 65.6c-1.7 2.9-9.2 20.9-14.6 10.1-7.4-14.7 22-2.2 6.3 2.7-12 3.7-3.5-16-0.9-19.1 4.5-5.2 11.3 0.5 9.2 6.3z"  fill="#005bbb" /><path d="M326-284.8c-28.3 53.3 17 108.1 7.4 163.5-11.1 64.4-75.9 90.2-110.9 138.9-8.2 11.3-14.6 23.9-18.3 37.5-1.4 5-0.8 19-5.2 21.6-5.6 3.3-9-7-2.6-7.7 6.5-0.7 5.3 10.1-0.9 8-7.2-2.5-0.8-23.4 0.5-28.3 16.9-68.9 91.4-91.6 120.8-151.3 25.4-51.6-8.9-97.8-8.4-149.9 0.5-57.4 18.1-33.6 17.6-32.3z"  fill="#005bbb" /><path d=""  fill="#fff" /><path d="M341.7-68.2c-29 40-78.9 58.8-106.3 100.2-5.4 8.2-12.2 42.3-18.1 45.5-6 3.2-9-7.6-2.3-8 7.9-0.5 3.6 12.6-2.5 7.5-4.9-4.1 0.6-19.4 1.9-24.4 12.9-48.6 56.6-73.4 92.5-103.5 9.3-7.8 16.7-18.7 26.2-26 6-4.6 12.1 3 8.6 8.7z"  fill="#fff" /><path d="M348.7-142.9c2.2 80.9-75.6 107.1-117.5 162.1-10.2 13.4-23.2 57.1-24.5 57.9-5.7 3.3-9-7.2-2.4-7.8 7.7-0.7 3.8 12.2-2.3 7.4-14.7-11.7 17.5-62.9 25.3-72.6 24-30.3 58.6-49.1 84.1-77.8 31-34.8 19.5-52.5 29.9-71.2 2.1-3.8 7.1-1.8 7.4 2z"  fill="#005bbb" /><path d="M357.3 3.8c-17 16.6-35.8 32-49.5 51.7-3.1 4.5-11.7 29.1-19.5 22-5.1-4.8 2.8-12.5 7.5-7.2 3.9 4.5-2.2 11.1-7 7.5-17.2-12.8 49.8-75.5 59.2-83.6 6.7-5.7 14.6 3.1 9.3 9.6z"  fill="#fff500" /><path d="M365.4-95.9c-21.5 57.8-82.2 77.1-118.5 122.3-8.8 11-19.2 48.8-23.8 51.2-6.1 3.1-9-7.9-2.2-8.2 8.1-0.3 3.4 12.9-2.7 7.6-14.5-12.8 21.2-61.9 29.7-71.2 20.8-22.6 47.6-38.1 70.6-58.1 15.1-13.2 29.9-42.6 38.7-49.8 4.5-3.7 9.6 1.4 8.2 6.2z"  fill="#c2e1ff" /><path d="M373.3-78.2c-25.8 50.5-81.2 69-115.1 111.5-6.3 7.9-15.9 41.6-22.2 44.5-6.5 2.9-8.9-8.7-1.8-8.6 8.4 0.1 2.8 13.6-3.1 7.7-3.9-3.8 0.5-14.2 1.6-18.4 13.3-47.2 57-70.3 92.3-99.3 12.7-10.4 31.4-39.3 40.4-45 5.3-3.4 10.1 2.6 7.9 7.6z"  fill="#fff500" /><path d="M381.1-6c-14.5 18-31.4 34.1-45.7 52.2-7.3 9.3-11.8 22.4-19.4 30.9-2 2.2-5.6 2.3-7.7 0.3-4.4-4.3 1.4-11.5 6.6-8.2 6.1 3.9-0.5 13.1-6.1 8.6-13.9-11.1 52.9-84.8 63.8-92.9 6.2-4.6 12.3 3.4 8.5 9.1z"  fill="#fff500" /><path d="M389.1-368.9c-14.5 38.8-54.4 62.6-64.9 103.2-10.1 39.1 11.9 76.4 15.2 114.9 5.2 62.8-40.1 98.6-82.6 135.9-6.7 5.9-33.8 41.3-40.7 39-10.4-3.3 1.7-18 7-8.4 5.3 9.6-13.6 11.9-10.9 1.3 9.6-36.6 88.6-76.6 109.6-119.7 28.2-58.2-19.9-112.7-5.3-171.2 7.5-30 30-50.9 47.9-74.8 5.4-7.2 9.8-21.1 16.5-26.4 4.6-3.7 9.6 1.4 8.2 6.2z"  fill="#fff" /><path d="M396.2-398c-2.8 56.3-58.8 83-70.7 134.6-10.8 47.2 21.7 91.9 14.8 139.6-5.6 38.7-32 66.7-60.7 90.9-6.2 5.3-29.6 31.7-37.1 22.7-5-6 3.1-14.4 9.3-9.6 6.2 4.8 0 14.7-7 11.4-13.7-6.5 13.1-24.3 17.6-28.1 27.3-23 56.7-46.2 67.1-82 14.9-51.3-21.7-98.5-12.4-149.4 7.1-39 39.6-62.4 58.2-95.2 5-8.7 20.6-57.7 20.9-34.9z"  fill="#fff" /><path d=""  fill="#005bbb" /><path d="M412.7 31.6c-2.7 7.8-7.9 43.4-14.5 46.2-6.6 2.9-9-8.9-1.8-8.7 7.2 0.1 4.4 11.8-2.1 8.7-6.7-3.3 4.8-50.5 12.2-52.6 4.2-1.2 7 2.7 6.2 6.4z"  fill="#fff" /><path d="M420.6-315.4c-36 111.5 2.9 137.3-18 214.7-16.9 62.5-68 88.7-110.9 130.8-6.2 6.1-31.7 49.1-34.7 48-7.3-2.4-0.7-13.3 4.8-8.1 6.5 6.2-7.6 12.7-8.1 3.8-2.6-46.8 106.4-107.5 130.6-155.6 29.6-58.8 3.7-116.8 11-177.9 2.1-18 6.4-44.4 16.2-60 3.3-5.2 10.1-1.1 9.1 4.3z"  fill="#fff" /><path d="M426.9-398.6c12 53.2-19.1 96.7-24.7 147.8-11.1 100 43.6 153.2-63.8 241.6-7.3 6-32.1 31.9-41.4 29.4-12.3-3.4 1-21.1 7.7-10.2 6.6 10.9-15.2 14.6-12.6 2.1 2.9-13.6 36.7-31.1 47.2-40.1 26-22.2 46.5-49.2 55.3-82.6 12.8-48.3-4.7-95.3-0.6-143.7 3.6-42.7 28.6-80.6 28.1-123.9-0.3-27.3 2.2-28.8 4.8-20.4z"  fill="#fff" /><path d="M460.1-399.2c27.4 64.9 1.5 130.7-8.1 196.2-6.8 46.6-22.7 169.2-62.7 197.8-7.9 5.6-14.2-9.1-4.6-10.9 9.5-1.8 9 14.2-0.4 11.9-12.9-3.3 14.2-35.7 17.7-42.1 21.5-39.3 31-83.2 37.1-127.1 7.8-55.3 26.9-113.4 26-169.2-0.3-18.9-13.8-73.3-5-56.6z"  fill="#c2e1ff" /><path d="M444-287c-15.5 71.6-2.3 147.9-30.6 216.6-22.3 54.2-71.1 82.6-101.6 130.1-3 4.6-7.8 22.1-15.5 18.4-6.4-3-1.1-12.9 5-9.1 5.2 3.2 1.3 11.4-4.5 9.3-10-3.4 4.4-23.6 7.3-28.3 28.4-46.4 76.9-74.2 99.7-125.2 27.5-61.5 15.8-127.1 26.8-191.6 1.1-6.3 1.1-19.1 5.3-24.2 3.3-4 8.5-0.5 8.1 4z"  fill="#c2e1ff" /><path d="M451.1 60.7c0.2 3.6 3.9 15.7-2.6 16-4.9 0.2-4.8-7.6 0.1-7.2 4.9 0.3 4 8-0.9 7.2-12.7-2.3 1-28.4 3.4-16z"  fill="#c2e1ff" /><path d="M459.8-197.1c-24.1 116.2-31.3 142.6-97.1 242.5-3.9 5.9-16.3 36.6-24 33-7.5-3.6 1-14.5 6.4-8.1 5.3 6.5-7.1 12.8-9.2 4.6-3.3-12.6 61.9-101.2 71.8-120.8 24.4-48.6 30.5-100.9 43-153 1.4-6 9.5-4 9.1 1.8z"  fill="#005bbb" /><path d="M467.4-317.5c-2.5 28.8-10.5 56.9-15.1 85.4-10.2 61.8-10.7 124.6-38.5 182.2-21 43.5-58.8 73.8-82.4 115.1-2.2 3.8-7 18.8-13.9 11.8-4.3-4.4 1.5-11.6 6.6-8.2 5.2 3.4 1 11.6-4.7 9.5-10.1-3.8 5.8-25.3 8.7-30 28.3-45.2 68.3-78.4 87.6-129.7 15.2-40.5 36.4-185.1 42.9-234.8 0.8-6.1 8.8-8.9 8.8-1.3z"  fill="#fff" /><path d=""  fill="#fff" /><path d="M482.2 44.4c0.8 4.8 9.4 31.1 3.3 32.1-4.3 0.7-5.1-6-0.7-6.3 4.3-0.3 4.4 6.5 0 6.4-5.1-0.2-10.3-28.4-9-32.6 1.1-3.5 5.5-2.7 6.4 0.4z"  fill="#fff500" /><path d="M524.3-399c14.7 109.9-25.5 149.9-56.9 246.1-4.6 14.3-25.4 95.7-32.8 100.5-6.9 4.4-11.6-8.3-3.5-9.4 8.1-1.1 7 12.4-0.8 10-16.1-4.9 66.6-198.4 74.7-219.2 24.9-64.3 4.7-117.9 12.8-129.6 2-2.9 5.7-1.3 6.5 1.6z"  fill="#fff" /><path d="M499.3-283.9c-6.8 30.4-19.4 59.3-28.4 89.1-26.6 87-38.5 146.5-85.4 227.4-4 6.9-20.8 48.5-28.1 45.5-7.5-3.2 0.4-14.2 5.9-8.2 5.4 6-6.3 12.7-8.7 5-3.2-10.4 58.8-115.3 67.1-136.2 24.5-62 47.5-157 68.4-224.8 1.8-6 10-3.7 9.2 2.2z"  fill="#fff500" /><path d="M507.6-241.6c-39.4 83.5-60.3 172.9-98.9 256.6-3.8 8.2-23.7 65.2-30 63.2-8.5-2.8 1.5-14.8 5.7-6.9 3.6 6.8-8.6 10.2-9 2.6-1.5-25.6 31.9-80.4 42.4-105.7 16-38.5 57-198.3 81.6-216.6 4.8-3.6 9.9 1.8 8.2 6.8z"  fill="#c2e1ff" /><path d=""  fill="#fff" /><path d=""  fill="#005bbb" /><path d="M531-160.3c-44.7 42.7-65.5 105.9-69.1 166.6-1.1 17.8-0.3 35.6 1.8 53.2 0.3 2.8 5.1 18.7-2.4 17-4.5-1-2.5-8.1 1.9-6.6 5.1 1.8 0.4 9.5-3.5 5.7-4-3.8-3.3-17.4-4-22.6-7.1-60.5 3.3-125.8 33.3-179.3 7.8-14 19.8-35.7 33.9-44.4 6.9-4.2 12.6 4.7 8.1 10.4z"  fill="#c2e1ff" /><path d="M538.8-147.1c-43.1 38.5-63.6 95.8-62.4 153 0.4 17.8 2.9 35.5 6.4 52.9 0.6 2.7 6.7 18.7-0.7 17.5-4.3-0.7-2.8-7.4 1.4-6.2 4.9 1.3 1 8.8-3 5.5-3.7-3.2-4-14.8-4.9-19.5-11.3-54.4-9.5-110.5 15.5-161 8.4-17 22.6-43.3 39.8-53 7.2-4.1 12.6 5.2 7.9 10.8z"  fill="#fff500" /><path d="M545.6 0.6c0.8 8.7 17.2 75.3 13 76-4.2 0.8-5.1-6-0.8-6.3 3.7-0.3 4.6 5.1 1.1 6.2-6.2 1.8-7.3-16.3-8.2-19.8-4.1-16.3-14.1-39.3-12.1-56.1 0.5-4.3 6.1-3.8 7 0z"  fill="#c2e1ff" /><path d=""  fill="#005bbb" /><path d="M562.9-86.5c-25.4 32.8-28.4 71.8-19.9 111.2 1.7 7.9 16.4 45.6 11.5 51-3.3 3.7-8.1-3-3.6-4.9 4.6-2 6.1 6.1 1.2 6-6.3-0.2-13.1-41.6-14.7-48-9.1-37.8-11-76.6 8.7-111.5 6.8-12 25.6-20.1 16.8-3.8z"  fill="#c2e1ff" /><path d="M570.8-75c-23 34.9-20.8 74.2-11.8 113.3 1.4 6.2 11.7 33.1 7.4 37.5-3.5 3.7-8.3-3.3-3.5-5.1 4.7-1.9 6.1 6.4 1 6.1-6-0.3-10.7-35.2-12-41.1-8.2-35.2-12.5-71.4 3-105.3 5.8-12.6 23.1-21.7 15.9-5.4z"  fill="#c2e1ff" /><path d="M578.6-265.2c-20.3 37.8-53.9 65.3-77.6 100.8-26.6 39.7-40.3 87-53 132.6-7.8 27.9-15 56.1-18 85-0.4 4 1.4 27.7-7.1 24-5-2.2-1.2-9.9 3.6-7.2 4.1 2.3 1.3 8.7-3.2 7.3-8.1-2.5-0.5-38.1 0.5-44.6 10.8-73.5 33.9-159.8 78.7-220.1 18.1-24.3 40.5-45 57.7-69.9 3-4.4 5.9-12.6 10.4-15.5 5.3-3.4 10.1 2.6 8 7.6z"  fill="#c2e1ff" /><path d="M586.6-394c-24 36.9-25.4 83-42.4 122.8-12.9 30.3-33.4 56.3-49.5 84.9-23.1 41.1-35.5 86.7-50.1 131.3-3.4 10.2-25.8 86.7-34.8 83.2-7.4-3 0-14 5.6-8.2 5.5 5.8-5.9 12.7-8.5 5.1-2.4-7.1 30-89 34.6-103.1 14-43.3 27.2-86.7 50.4-126.2 14.7-25 32.3-48.3 44.1-74.9 15.6-35.2 18.4-74.6 34.7-109.6 6.1-13 23.1-21.9 15.9-5.3z"  fill="#fff500" /><path d=""  fill="#fff" /><path d="M602.3-81.6c-24.7 33.9-29.8 70.5-23.4 111.4 1.5 9.5 11.6 36.9 7.2 45.1-2.9 5.6-10.1-2.8-4.1-4.8 5.1-1.7 6.1 7.2 0.7 6.6-12.9-1.4-15.2-92.9-13.7-104.8 2.1-17.5 8-34.3 16.7-49.6 7.9-13.6 24.6-19.3 16.6-3.9z"  fill="#c2e1ff" /><path d=""  fill="#005bbb" /><path d=""  fill="#005bbb" /><path d="M602.9-6.7c-0.7 6.9 3 35.3-1.9 39.1-4.7 3.6-8.9-5.3-3.1-6.6 5.8-1.3 5.8 8.5 0.1 7.3-6.4-1.4-5.8-37.5-2.9-42.3 2.5-4 7.6-1.5 7.8 2.5z"  fill="#fff500" /><path d=""  fill="#c2e1ff" /><path d="M603.4-248.1c-55.3 87.9-106.6 71.9-139.6 201.9-6.5 25.8-10.9 52.3-11.5 79-0.2 9.1 5.3 34.3 0.9 41.4-3.5 5.7-10.5-3.6-4-5.4 6.5-1.7 5.1 9.8-0.7 6.7-7.9-4.3-4.3-44-4-52.4 2.2-63.8 20.7-135.8 61-186.5 25.2-31.7 60.7-53.5 84.5-86.4 4.7-6.5 19.4-10.1 13.4 1.7z"  fill="#fff" /><path d="M602.8-170.2c-48.3 41.8-98.2 72.7-104.4 142.5-2.5 28.4 18.1 94.6 15.1 102.1-2.1 5.3-9.3-1.6-4.1-3.9 5.2-2.4 5.6 7.5 0.3 5.7-8.4-2.9-14.6-50.3-16.2-59.2-8.4-46.1-1.2-94 27-132.2 11.2-15.1 58.9-63.3 76.4-67.1 7.5-1.6 10.4 7.2 5.9 12.1z"  fill="#fff500" /><path d="M603.6-332.7c-14.2 27-22.8 56.4-39.3 82.3-34.5 54.2-74.3 87.9-96.9 151.3-4.8 13.5-24.3 91.1-30 95.7-7.1 5.5-11.4-9.5-2.5-8.6 7.6 0.7 3.7 12.8-2.9 8.9-7.4-4.3 5.9-35.1 7.8-41.8 32.2-110.7 43.7-115.8 109.2-204.5 19-25.8 28.4-69.1 45.4-89.3 4.4-5.2 11.2 0.4 9.2 6z"  fill="#c2e1ff" /><path d=""  fill="#fff500" /><path d=""  fill="#005bbb" /><path d="M603.2-191.3c-48.9 46.4-101.1 73.4-116.4 144.9-5.8 27.2-5.5 55-0.8 82.4 0.4 2.3 7.3 25.5-1.1 21.1-3.8-2-0.3-7.9 3.2-5.5 3.6 2.4-0.5 7.9-3.8 5.1-4.1-3.5-4.4-17.1-5.4-22.2-10-54.4-2.7-112.6 29.9-158.7 20-28.3 56-61.6 86.7-78 7.3-3.9 12.5 5.4 7.7 10.9z"  fill="#c2e1ff" /><path d=""  fill="#c2e1ff" /><path d="M603.4-91.2c-26.3 32.3-36.9 67.3-31.5 108.7 0.9 7.2 12.4 60.6 6.2 59.3-5.2-1-1.6-9.1 2.7-5.9 4.3 3.1-2.3 9-4.9 4.3-14.3-25.9-16.1-105.1-6-132.9 4.9-13.2 13.4-33.2 24.8-42.2 6-4.7 12.2 2.9 8.7 8.7z"  fill="#fff500" /></svg>