<svg width="1200" height="675" viewBox="-500 -500 1200 675" xmlns="http://www.w3.org/2000/svg"><path d="M-500-500h1200v675h-1200z" fill="#000"/><path d=""  fill="#fff" /><path d=""  fill="#fff" /><path d=""  fill="#fff500" /><path d=""  fill="#005bbb" /><path d=""  fill="#fff500" /><path d=""  fill="#005bbb" /><path d=""  fill="#c2e1ff" /><path d=""  fill="#005bbb" /><path d="M-397.6 46.3c2.7 3.1 28.9 27.6 28.6 28-2.6 3 2.4-3.3 0 0-1.5 2.1-7-4.2-7.6-4.8-8.1-6.5-29-29.9-21-23.2z"  fill="#c2e1ff" /><path d=""  fill="#005bbb" /><path d=""  fill="#fff" /><path d=""  fill="#005bbb" /><path d="M-389-177.9c-14.3 71.2-9.2 146.5-7.4 219 0.1 4.1-0.6 13.7 2.1 18.1 2.1 3.4 15.9 11 15.7 14.4 0 0.5-0.6 0.9-1 1-31.1-0.8-20.2-107.8-20.3-109.6-2.2-97.9-11.6-90.8 0.1-142.4 1.6-7.2 11.6-9.4 10.8-0.5z"  fill="#fff500" /><path d="M-380.3-215.1c-14.5 81.9-17.3 136.7-16.5 230.3 0.1 6.6-2.7 30.3 2.4 38.7 2.7 4.5 21.3 15.3 21.1 19.6 0 0.5-0.6 0.9-1.1 0.9-2.4-0.1-6.4-4.8-8.4-6.5-29.8-24.4-16.5-67.3-17.2-102.8-0.9-40.1-2.6-80.1-3.3-120.2-0.2-10 9.3-53.6 13.4-62.9 2.5-5.7 9.9-2.6 9.6 2.9z"  fill="#c2e1ff" /><path d="M-388.3-396c-1.6 3.5-9.4 23.5-15.5 11.5-8.3-16.5 24.7-2.6 7 2.9-13.1 4.1-4.4-17-1.7-20.4 4.5-5.8 12.1-0.2 10.2 6z"  fill="#c2e1ff" /><path d=""  fill="#fff500" /><path d="M-353.7-161.9c-10.9 53.7-36.1 113.2-12.3 166.7 9.9 22.2 26.1 40.4 42.8 57.7 2.1 2.1 10.8 8.5 10.2 11.4-0.1 0.6-0.7 1.1-1.3 1.2-6 1-28.9-29.3-33.2-34.3-23-26.8-37.8-58.1-37.3-94 0.3-28.3 9.2-86.8 21.3-112 2.7-5.7 10.2-2.3 9.8 3.3z"  fill="#c2e1ff" /><path d=""  fill="#c2e1ff" /><path d="M-336.1-152.9c-10.9 52.1-29.6 107.4-6.5 159 10.4 23.2 39.8 48.3 46.6 66.5 1.4 3.7-5.7 2.4-3-0.5 2.3-2.5 4.9 2.7 1.5 3-13.4 1.2-65.2-84-65.3-130.8 0-29.2 4.1-74.1 16.9-100.6 2.8-5.7 10.3-2.3 9.8 3.4z"  fill="#fff" /><path d="M-327.5-79.4c-5.8 40.6 1.3 77.9 22.5 113 5 8.3 26.6 30.8 26 39.9-0.2 4.1-6.6 1-3.7-1.7 2.5-2.4 5.5 2.6 2.2 3.7-4.5 1.5-21.1-28.3-24-32.6-21.9-33-35.7-68-33.9-108.2 1.2-28.6 10.9-22.9 10.9-14.1z"  fill="#fff500" /><path d="M-318.4-117.9c-9.9 46-15.3 91 5.9 134.7 3.4 6.9 34.4 58.3 32.9 58.6-4 0.8-2.8-6.2 0.7-4 3 1.9-1.1 6-3 3.1-26.8-41.1-54.5-79.4-54.8-130.7-0.1-19 0.2-47.7 8.5-65.1 2.8-5.7 10.3-2.3 9.8 3.4z"  fill="#fff" /><path d="M-309.4-291.3c-19.5 58.9-62.5 216.6-49.5 273.5 6.7 29.2 24.4 53.1 43.6 75.2 1.2 1.4 17.6 17.9 12 17.9-6.9 0.1 7-0.8 0.2 0-4.8 0.6-19.4-21-22.7-24.9-19.7-23.1-36.9-48.3-42.7-78.7-10.6-55.8 27.9-202.5 46.3-259.9 2.4-7.5 15.3-15.8 12.8-3.1z"  fill="#fff" /><path d="M-300.9-96.1c-8.1 42.7-6.3 83.1 12.3 123 4.7 10 26.1 37 24.5 47.2-0.7 4.7-7.8 0.5-4.1-2.4 3.2-2.5 6.1 3.6 2.1 4.5-9.2 2.1-55.2-83.9-47.5-154.9 0.6-5.4-0.2-18.5 4.5-22.3 3.9-3.1 8.4 0.5 8.2 4.9z"  fill="#fff" /><path d="M-292.5-57.8c-2.5 37.9 8.2 72.5 24.2 106.4 2.1 4.5 13.7 21.9 11.2 26.1-2.2 3.8-7.5-1.2-4-3.6 3.6-2.5 6.3 4.2 2.1 5-9.6 1.7-50.2-107.9-42.5-135.3 1.5-5.4 8.6-3.5 9 1.4z"  fill="#fff500" /><path d="M-284.8-5.9c2 9.3 30.2 81.2 28.5 81.9-3.5 1.4-5.4-4.3-1.8-5.3 4.3-1.2 4.6 6.2 0.3 5.4-10.3-1.8-33.9-70.3-34-81.1 0-4.3 5.6-4.4 7-0.9z"  fill="#fff" /><path d="M-276.6 21.9c2.3 6.3 24.9 52.6 20.5 54.4-3.6 1.4-5.4-4.3-1.8-5.3 3.7-1 4.9 4.9 1.2 5.4-4.9 0.8-8.2-13.1-9.7-16.1-4.5-9.9-9.2-19.7-13.2-29.8-1.3-3.2-1.3-16.7 3-8.6z"  fill="#fff500" /><path d="M-265.5-164c-10.9 54.3-29 109-15.4 164.6 5.1 20.9 13.7 40.6 22.4 60.1 0.9 2.1 9.6 15.3 2.7 15.6-3.3 0.1-4-4.8-0.8-5.6 3.7-1 4.9 5 1.1 5.6-5.1 0.7-8.3-13.7-9.8-16.9-17-38.1-31.3-75.9-29.5-118.4 1.2-28.1 7.6-83.2 19.5-108.2 2.7-5.7 10.2-2.3 9.8 3.2z"  fill="#c2e1ff" /><path d="M-259.3 64.8c1.1 2.3 6.5 9.3 2 11.1-4.1 1.6-5.3-5.6-0.9-5.3 4.4 0.2 2.4 7.3-1.4 5.2-8.4-4.5-3.2-16.7 0.3-11z"  fill="#fff" /><path d="M-249.7 38.1c1.4 5.2 14.4 36.6 8.1 38.2-4.3 1.1-5.6-5.7-1.3-6.3 4.4-0.6 5 6.3 0.6 6.4-5.2 0.2-15-33.4-13.9-38.1 0.8-3.6 5.3-3.2 6.5-0.2z"  fill="#fff" /><path d=""  fill="#fff" /><path d="M-230.8-398.1c0.4 112.6-39.3 220.1-52.3 330.8-3.3 27.9-0.9 55.6 7.6 82.4 1.1 3.5 12.9 27.1 5.7 27.1-4 0-3.7-6.2 0.2-5.8 3.4 0.3 3.4 5.4 0.1 5.8-5.6 0.7-9.3-17.5-10.7-21.3-10.9-30.2-15.2-61.4-12-93.3 5.4-52.1 20.7-103.7 29.8-155.3 3.2-18.1 23-172.1 23.2-172.6 2.3-4.3 7.9-2.1 8.4 2.2z"  fill="#fff" /><path d="M-221.8-339.6c-4 54.8-11.3 109.9-21.1 164-8.6 47.1-25.6 94.1-25.6 142.2 0 29.6 7.5 58 17.2 85.8 1.1 3.2 12.3 24.5 4.3 24.3-4.2-0.1-3.6-6.8 0.5-6.2 3.6 0.5 3.4 5.9-0.2 6.2-5.9 0.4-10.3-21.6-11.8-26.1-32.7-91.8-7.3-153.4 8.4-244 8.5-48.8 12.9-97.9 18.9-147 0.8-6.2 9.2-5.2 9.4 0.8z"  fill="#fff500" /><path d="M-212.5-152.7c-12.9 54.6-35.6 106.1-30.7 163.4 1.5 17.3 5 34.4 9.2 51.2 0.6 2.4 6.4 16.2-1.1 15.3-4-0.5-3.9-6.5 0.1-6.9 4-0.4 5.2 5.6 1.4 6.7-6.8 2.1-8.3-17.9-9.2-21.3-15.6-64.2-6.8-118.8 11.7-181.1 2.5-8.4 3.7-25.6 9.5-32.1 3.9-4.4 9.8-0.2 9.1 4.8z"  fill="#c2e1ff" /><path d="M-204.5-399.1c9.7 81.1 5.4 170.7-13.5 250.2-8.1 33.9-20.5 66.9-26 101.5-3.3 21-3.7 42.3-1 63.3 1 7.6 8.5 26.9 5.5 33.6-2.7 6-10.6-2.2-4.6-4.6 5.2-2.2 6.8 7 1.2 6.7-15.1-0.6-12.6-85-11.3-96.3 5.7-52.4 27.4-101.7 35.4-153.8 9.8-62.7 12.9-129.7 7-192.9-0.4-4.8 4.8-18.3 7.3-7.7z"  fill="#fff500" /><path d="M-195.7-399.2c12 74.2 14.4 156.5-1.1 230.3-11.1 52.5-36.4 101.8-40 155.8-0.7 10.2 8.2 57.3 2.7 62.6-4.2 4.1-9.4-4.2-3.8-6.1 5.6-2 6.8 7.7 0.9 7.2-14.1-1.3-8.3-78.3-6.8-88.9 7.7-54.9 33.4-105.4 42-160.4 9.8-62.5 8-130-0.5-192.6-0.6-4.5 3.8-18.2 6.6-7.9z"  fill="#c2e1ff" /><path d="M-185.8-132.1c-16.7 49.2-40.6 95.4-41 148.5-0.1 7.8 7 61.8 1 60.5-5-1.1-2.9-8.8 1.9-7.2 4.2 1.4 2.8 7.7-1.5 7.3-7.1-0.7-7.2-26.5-7.8-31.8-8.2-64.5 12.7-122.2 36.7-181.1 2.8-6.9 12.3-3.2 10.7 3.8z"  fill="#c2e1ff" /><path d="M-177 19.8c-3.5 9.7-6.8 53.9-13.6 57.8-6.4 3.7-10.1-8-2.7-8.7 7.4-0.7 5.9 11.5-1.2 9-8.6-3.1 1.2-62.6 10.5-65.3 4.7-1.4 7.8 3 7 7.2z"  fill="#fff" /><path d="M-169.5-298.4c16.2 159.5-34.2 161.9-53.9 282.8-5.1 31.4 6.8 81.9 2.1 90.8-2.8 5.3-10.4-1.1-5.7-4.8 5.6-4.3 8.9 7.4 2 6.8-16.4-1.7-8.5-94.3-6.3-106.5 8.9-48.1 33.4-91.4 46-138.5 7.9-29.7 11.2-60.1 10.3-90.8-0.2-7.5-6.9-37.7-1.1-42.5 2.7-2.2 6-0.3 6.6 2.7z"  fill="#c2e1ff" /><path d="M-159.2-91.2c-19.6 39-41.8 76.5-46.8 120.8-0.7 6.5 1.8 50.5-6.3 47.9-4.6-1.5-3.1-8.6 1.8-8.2 5.6 0.6 4.3 9.4-1.3 8.3-8.9-1.9-4.2-41.8-3.7-48.9 2.8-36 22.1-99.1 46.1-126.8 5-5.7 12.5 0.6 10.2 6.9z"  fill="#fff500" /><path d="M-150.4-125.7c-19.1 48-50.1 91.4-57.7 143.5-1.1 7.9-0.1 61.7-6.5 59.7-5.3-1.6-2.3-9.9 2.9-7.7 4.4 1.9 2.3 8.7-2.4 7.8-17.8-3.4 2.1-93.6 6.1-105.5 11.7-35.3 30.6-68.9 46.7-102.4 3.4-7 12.9-2.6 10.9 4.6z"  fill="#fff500" /><path d="M-142.3-206.5c-5.3 73.6-53.2 131.3-68.3 201.6-4.5 20.8-5.3 42-3.9 63.2 0.2 3.4 4.9 21.2-3.7 18.8-5.2-1.4-2.5-9.6 2.5-7.6 5 2 1.4 9.8-3.3 7.3-5.2-2.8-3.6-16.9-4-21.9-5.1-64.3 19-115.2 44.5-172.3 6.7-15.1 27.2-91.8 27.5-92.2 2.9-4.4 8.6-1.4 8.7 3.1z"  fill="#fff500" /><path d=""  fill="#005bbb" /><path d="M-123.9-8c-10.1 18.3-20.3 36.6-27.5 56.2-2.6 7-4.2 24.5-9.8 29.2-7.4 6.3-12.8-9.8-3-9.2 8.3 0.5 4.5 13.8-2.8 9.8-13.6-7.3 24.5-84.2 32.9-93.3 5.2-5.7 12.7 1 10.2 7.3z"  fill="#fff" /><path d="M-108.7-399.4c31.2 57.7 71.8 105.4 107.7 159.7 22.5 33.9 37.9 71.6 57.7 107 16.4 29.6 36 57.3 51.1 87.6 1.9 3.7 10.7 16.3 8 20.4-2.1 3.3-7.2-0.3-4.7-3.4 2.9-3.6 7.7 2.4 3.5 4.4-4.4 2.2-90.6-161.8-99.4-178.6-34.4-66.2-87.6-119.3-123.1-185-0.7-1.3-6.4-20.1-0.8-12.1z"  fill="#c2e1ff" /><path d="M-108.6-399.4c32.9 61 75.7 108.9 112.2 166.5 25.3 39.9 42.9 84.2 67.4 124.6 6.4 10.6 61.6 93.7 50.9 101.5-4 2.9-7.2-4.6-2.4-5.5 4.8-0.9 4.6 7.2-0.1 6-5.9-1.5-13.6-30.4-16.4-36.4-24.2-51.1-56.7-98.2-82.1-148.8-35.9-71.7-92.6-128.9-130.7-199.5-1-1.9-3.7-15.4 1.2-8.4z"  fill="#c2e1ff" /><path d="M-98.1 74.5c-2.6 6.4-12.4 4-10.1-2.9 4.4-12.9 17.5 9.1 4.1 6.9-12.7-2.1 4.4-21.2 6.6-6.7z"  fill="#fff" /><path d="M-88.9-117.6c-14 57.8-51.9 102.3-72.2 157-2.7 7.3-5.8 35.5-12.4 38.5-7.3 3.3-10-9.7-2-9.7 8 0.1 5 13-2.3 9.6-23-10.9 48.1-125 55.9-140.1 9.6-18.7 13.2-41.3 23.1-59.3 3.2-5.8 10.7-1.8 9.9 4z"  fill="#005bbb" /><path d="M-80.2-116.9c-11.1 57.7-42.7 103.1-65.3 156-4.7 11.1-6.3 27-12.5 37.1-5.2 8.3-15.3-5.4-5.8-7.9 9.5-2.5 7.4 14.4-1.2 9.7-18.6-10.2 46.9-118.6 53.9-134 9.2-20.4 11.7-44.6 21.1-64.3 2.8-5.7 10.2-2.3 9.8 3.4z"  fill="#005bbb" /><path d="M-71.4-51c-2.8 14.4-31.8 132.6-42.7 129.2-6.9-2.2-2.9-12.9 3.7-10 5.7 2.5 2.9 11.4-3.2 10.2-11.1-2.2 4.5-37.2 6.7-43.7 4.5-13.8 21.5-83.9 26.4-90 3.6-4.4 9.5-0.6 9.1 4.3z"  fill="#fff" /><path d="M-64.6-226c25.3 70.4 15.5 150.9 23.2 224.4 0.9 9.1 12.6 78.3 6.3 79-7 0.8-3.7-11.1 1.9-6.8 4.8 3.7-2.8 10.1-5.6 4.8-12.5-23.7-15.1-122.2-16.6-153.1-2.3-46.6 0.2-94.7-13.3-139.8-0.9-2.9-0.1-17.4 4.1-8.5z"  fill="#fff" /><path d="M-54.3 40.1c-0.1 6.2 3.6 38.4-5 38-5.9-0.3-5-9.6 0.9-8.7 5.9 0.9 3.9 10.1-1.8 8.6-6.4-1.7-5.3-35.1-2.6-40.2 2.4-4.3 8-2 8.5 2.3z"  fill="#fff" /><path d="M-45.8-65.3c0.8 14.5 16.2 142.2 12.9 142.7-5.1 0.6-5.6-7.4-0.5-7.5 4.4 0 5.1 6.4 0.9 7.4-7.7 1.8-7.8-22.1-8.5-26.2-4.9-31-18.5-87-13.1-116.8 0.9-5 7.5-4 8.3 0.4z"  fill="#fff500" /><path d="M-37.3-141.5c7.8 59.1 21.4 110.4 56.2 159.6 4.1 5.8 40.9 54.6 35 57.4-3.1 1.5-5.2-3.6-1.9-4.7 3.8-1.3 4.6 5.4 0.6 4.9-5-0.5-13.3-21.1-16.2-25.4-24.9-38-52.7-72-66.6-116-7.6-24.1-12.3-49.6-14.9-74.8-0.5-5.2 6.5-5.8 7.8-1z"  fill="#fff500" /><path d="M-30.9-312.2c78.7 101.9 140.4 224.6 171.7 350.2 1.4 5.7 12.4 35.3 6.6 38.5-5.8 3.2-7.2-8.2-0.8-6.5 6.4 1.7-0.4 10.9-3.9 5.3-11.1-17.8-15.5-63.9-22.3-86.3-8.7-28.3-20-55.6-32.5-82.5-32.5-70.5-61.5-140-109.9-201.4-1.4-1.7-14.5-23-8.9-17.3z"  fill="#fff" /><path d="M-21.9-322.2c19.3 27.3 40.4 53.3 57.4 82.2 45.5 77.4 84.8 188.9 105.8 276.3 1.4 5.9 12.6 37.4 6.9 40.5-4.9 2.7-7.5-6.3-1.9-6.6 5.6-0.4 4.2 8.8-1 6.8-6.2-2.4-8.4-28.9-9.9-35.2-12.5-52.8-29.7-103.1-49.7-153.4-28.2-70.7-56.3-134.6-102-196.1-1-1.4-11.4-20.8-5.6-14.5z"  fill="#005bbb" /><path d=""  fill="#c2e1ff" /><path d="M-4.2-261.2c42 56.5 117.3 206.7 137.1 274.3 2.3 7.9 20.5 59.6 13.7 63.4-5.7 3.2-7.2-8.1-0.9-6.5 6.3 1.6-0.4 10.8-3.8 5.2-6-9.6-29.5-106.5-43.2-135.7-28.5-60.7-60.6-130.5-97.7-186-0.6-0.9-11.1-21-5.2-14.7z"  fill="#005bbb" /><path d="M5.2-329.2c17.5 33.2 38.6 64.2 54.5 98.2 37.4 80.1 67.5 199.8 87.3 287 0.8 3.7 7.7 19.4 0.9 20.6-4.8 0.8-5.7-6.7-0.8-7 4.1-0.3 5.2 5.8 1.2 6.9-7.1 2-14.7-47.6-16.3-54.4-12.9-55.3-31.3-108.8-47.3-163.2-18.7-64-45.6-118.6-78.6-176.1-0.9-1.5-6.6-19.9-0.9-12z"  fill="#005bbb" /><path d="M13.2-398.1c-3.7 63.7 38.7 118.7 60.6 175.6 26.2 68.3 41.2 144.1 59 215.1 0.9 3.6 8 19.3 1.2 20.5-4 0.7-5.8-5.2-2-6.7 4.4-1.8 7 5.3 2.4 6.7-4.8 1.4-37.6-126.6-41.1-140.7-9.3-38-17.7-75.8-32.8-112.1-16.6-39.8-40.9-77.3-51.5-119.4-14.2-56.7 4-41 4.2-39z"  fill="#005bbb" /><path d="M22.3 23.8c6.7 9.4 34.3 38.6 32.5 50.2-0.6 4-6.9 1.5-4.7-1.8 2.3-3.4 6.9 1.5 3.5 3.6-5 3-10.8-14.2-12.7-17.2-6.9-11.2-27.5-44.6-18.6-34.8z"  fill="#005bbb" /><path d="M31.1-397.8c-13.1 63.8 30.7 123.7 50 181.7 21 62.9 40.2 157.2 55.9 224.2 0.9 3.7 7.8 19.4 0.8 20.6-4.8 0.8-5.7-6.8-0.8-7.1 4.1-0.2 5.2 5.9 1.2 7-5 1.4-27.4-94.7-30.3-105.8-13.1-49.4-20.1-100.7-36.9-149-15-43.2-40.3-83.9-48.7-129.2-8.1-43.7 9.3-59.3 8.8-42.4z"  fill="#005bbb" /><path d="M40.5-224.2c49.2 90 84.5 191.9 107.9 291.3 0.4 1.7 3.2 13.3-3.7 9.7-14-7.2 17.7-4.2 2.6 0.3-3.2 0.9-33.4-112.4-37.9-125-19.9-55.2-42.4-111.5-68.5-164.2-0.4-0.9-6.2-20.4-0.4-12.1z"  fill="#005bbb" /><path d="M48.8-109.2c39.3 57.2 71.6 96 90.8 165 1.1 4.1 7.9 17.8 2.9 20.7-4.8 2.7-7.5-5.9-2-6.5 6.4-0.6 3.2 10.1-1.9 6.2-4-3.2-23.3-74.7-28.9-87-15.8-34.9-40.3-63.2-62.7-93.8-1.8-2.4-1.5-8.2 1.8-4.6z"  fill="#005bbb" /><path d=""  fill="#fff" /><path d="M65.9 8.9c6.3 6.5 51.9 59.2 42 67-3.7 2.9-7-4.1-2.5-5.2 4.5-1.1 4.7 6.7 0.1 5.7-4.8-1-8.4-16.4-10.5-20.4-8.3-16.4-43.2-59-29.1-47.1z"  fill="#fff500" /><path d=""  fill="#c2e1ff" /><path d="M85.2-133.1c10.2 27 72 191.2 64.6 207.7-2.3 5.1-9.8-0.4-5.6-4.1 4.2-3.7 8.7 4.5 3.3 6.1-5.8 1.7-22.4-77.3-25.1-86.8-5.4-19.2-44.2-112.8-43.1-122.2 0.4-3.3 4.5-3.3 5.9-0.7z"  fill="#fff" /><path d="M94.1-116c9.4 26.4 63.9 173 55.9 190.6-2.3 5.1-9.8-0.4-5.5-4.1 4.2-3.7 8.7 4.5 3.3 6.1-6.4 1.9-19.8-67.9-22.1-76.5-3.4-12.9-37.6-115.8-37.4-116.3 1.1-2.8 4.6-2.3 5.8 0.2z"  fill="#fff" /><path d="M103.2-106.9c7.2 24.8 54.1 167.3 47.6 181.7-2.3 5.1-9.8-0.5-5.6-4.1 4.3-3.7 8.7 4.5 3.3 6.1-7.2 2.1-13.9-44.1-15.3-50.5-7.3-31.8-35.4-106.8-36.5-132.2-0.2-4.1 5.1-4.4 6.5-1z"  fill="#c2e1ff" /><path d="M114.4-366.5c-25.2 49.6-6.3 103.5-1.4 155.4 6.9 72.1 6.8 127.4 22.2 200.3 2 9.5 21 86.9 14.7 88-5.6 0.9-5.1-8.5 0.3-7 5.5 1.5 1.1 9.9-3.2 6.2-9.6-8.1-11.1-48.1-13.7-60.6-9.3-45-20.6-90-24.5-135.9-2.8-33.6-1.5-67.4-4.9-101-3.5-33.7-12.7-67.2-11.5-101.2 0.5-14.7 2.2-38.3 11.6-50.4 4.6-5.8 12.3-0.1 10.4 6.2z"  fill="#005bbb" /><path d="M122-121.1c0.2 50.7 12.2 100.7 22.1 150.2 1.2 6.1 13.1 46.5 6.1 47.6-4.1 0.7-5.8-5.3-1.9-6.8 4.5-1.8 7 5.5 2.3 6.8-7.5 2.1-11.7-36.5-12.8-42.2-10.3-50.7-24.4-103.4-24.5-155.4 0-5.8 7.9-5.6 8.7-0.2z"  fill="#c2e1ff" /><path d="M130.8-260.1c1.5 84.8-12 154.4 4.1 240.1 1.9 10.3 21.4 95.7 15.5 96.7-5.6 0.9-5.1-8.5 0.4-7 5.5 1.5 1.1 9.9-3.3 6.2-4.6-3.9-13.3-60.7-15.3-70.6-25.5-131.2-8.8-136-9.9-254.3-0.2-20.1 8.5-11.4 8.5-11.1z"  fill="#fff" /><path d="M105.5-395.2c-40.5 58.5-12.8 119.6-1.9 182.5 7.5 43.9 7.7 88.7 15.9 132.6 1.6 8.5 18.7 73.6 12.2 74.6-15.8 2.6 12-14.1 2.3-1.3-4.8 6.3-7.2-5.3-7.7-7.2-16.5-75-19.2-132.5-31.3-204-8-47.2-29.1-95.8-17.8-144.1 2.6-11.1 8.8-36.2 19.5-42.4 6.3-3.6 11.6 3.6 8.8 9.3z"  fill="#c2e1ff" /><path d="M136.5-394.6c-45.8 58.9-27.4 117-21.8 184.9 4.3 52.7 2 104.4 12 156.8 2.1 11 18.2 74.8 15.7 80.1-2.5 5.2-10.1-0.7-5.6-4.4 5.2-4.3 8.8 6.9 2.1 6.5-8.7-0.6-19.1-78.9-21.1-89.5-10-52.6-7.6-104.6-12-157.6-3.3-39.1-14.8-78.6-9.3-117.9 3-21.2 12.8-53.9 30.1-68.2 6.4-5.4 13.6 2.9 9.9 9.3z"  fill="#fff500" /><path d="M157.6-7.8c-0.7 9.9 5.6 84.3 2.3 84.7-5 0.6-5.6-7.3-0.5-7.4 5.1-0.1 4.8 7.9-0.3 7.4-10.2-0.9-13.5-76.6-10.6-86.2 1.6-5.4 8.7-3.5 9.1 1.5z"  fill="#fff500" /><path d="M121.8-394.8c-43.2 58-21.3 116.7-12.9 181.6 5.6 42.8 4.2 86.2 11.2 128.9 2.1 13.1 17.1 51.5 11.7 62.9-2.4 5.2-10-0.6-5.6-4.3 5.1-4.3 8.8 6.7 2.1 6.4-10.4-0.6-19.2-85.4-20.4-96.7-3.3-29.5-3.2-59.3-6-88.9-4.5-46.7-23-94.6-15-141.7 3-17.7 10.9-44.9 24.9-57.2 6.2-5.5 13.4 2.5 10 9z"  fill="#fff500" /><path d=""  fill="#fff500" /><path d="M172.9-394.1c-16.1 20.1-30.3 42.1-37.1 67.2-7.9 28.9-13.2 226.9-8.7 260.6 1.7 13.2 19 88.5 16.3 94.2-2.6 5.2-10.1-0.8-5.6-4.4 5.3-4.3 8.8 7 2 6.5-8.7-0.7-16.8-73.2-18.5-83.2-7-42.4-4.2-246.9 6.3-284.4 5.7-20.7 18.2-52.3 35.5-66.2 6.6-5.3 13.6 3.2 9.8 9.7z"  fill="#005bbb" /><path d="M191.7-394.2c-16 20.3-30.1 42.4-38.1 67.2-10.8 34-28.6 226.2-24.4 263.3 1.7 14.9 20.5 99.4 17.4 105.6-3 6.1-11-2.6-4.6-5 5.5-2 6.8 7.5 1 7.1-7-0.5-8.4-29.1-9.4-34.6-22.3-118.3-11.1-129.3-0.8-242 3.1-33.9 1.7-68.6 11.5-101.5 6.4-21.6 19.4-54.9 37.5-69.6 6.6-5.3 13.6 3.1 9.9 9.5z"  fill="#005bbb" /><path d="M199.3-394.6c-47.4 60.9-43.7 110.6-54.5 182.6-7.3 48.3-19.7 93.9-15.4 143.2 1.4 15.3 19.7 101.7 16.8 107.7-2.6 5.2-10.2-0.8-5.6-4.5 5.3-4.3 8.8 7.1 2 6.5-6.9-0.5-8-27.2-9-32.6-21.9-118.2-9.7-129.6 4.1-241.7 4.2-33.8 3.8-68.4 14-101.2 6.7-21.5 19.7-54.7 37.7-69.4 6.5-5.3 13.6 3 9.9 9.4z"  fill="#c2e1ff" /><path d="M211-277.9c-15.9 78-75 140.7-73.4 222.3 0.7 34.8 6.7 69.6 13.1 103.7 0.7 3.9 9.5 30.1 0.6 28.6-4.8-0.8-3.1-8.4 1.6-7 4 1.2 3 7.4-1.2 7.1-7.3-0.5-10.1-36.9-11.3-43.3-9.2-51.7-19.1-107.2-3.9-158.6 14.2-48.1 46.8-87.8 59.9-136.6 1.5-5.7 1.7-16 5.5-20.6 3.7-4.4 9.5-0.5 9.1 4.4z"  fill="#fff" /><path d="M220.1-232.9c-25.2 69.8-80.4 105.4-79.4 186.9 0.4 32.1 5.5 64.3 11.1 95.9 0.7 3.6 9.1 28.8 0.3 27.2-4.2-0.7-3.7-7 0.5-7.2 4.2-0.2 5.2 6 1.1 7.1-7.6 2-8.2-20.8-9-25.1-9.9-52.2-21.1-110.7-5.5-162.8 10.4-34.8 33.7-62 52.5-92.3 4.3-6.8 14.6-37.8 23.1-37.6 4.4 0.1 6.3 4.2 5.3 7.9z"  fill="#005bbb" /><path d="M228.4-79.8c-32.2 24.9-54.8 52.3-59.5 94.1-1.1 10.3 6.5 56.7 0.8 62-4.4 4.1-9.5-4.5-3.8-6.4 6.7-2.2 6 10.1-0.4 7.1-6.2-2.9-5.2-24.7-5.6-30.5-4.3-53.9 11-99.8 53.4-134.3 8.9-7.2 26.3-3.3 15.1 8z"  fill="#fff" /><path d=""  fill="#005bbb" /><path d="M246.1-83c-32.9 27.8-64 51.4-71.7 96.5-1.8 10.5 4.4 57.3-1.2 62.5-5.3 4.8-9.7-6.8-2.6-6.7 6.1 0.1 3.8 10-1.7 7.3-6.2-3-4.9-24.8-5.2-30.7-3.1-58 20-98.5 64.1-134 9.3-7.5 33.8-11.2 18.3 5.1z"  fill="#fff" /><path d="M255.5-211.3c-27.1 62.3-97.4 90.8-106.4 162.8-3.3 26.2 12 117.6 9.1 123.6-3 6.1-10.9-2.6-4.5-5.1 6.4-2.4 6.1 9.4-0.2 6.8-16.6-7-17.9-144.1 0.7-180.9 15.2-30.2 42-50.6 64.2-75.2 9.5-10.5 17.3-31.8 28-39.6 5.4-4 11 2.1 9.1 7.6z"  fill="#c2e1ff" /><path d="M264.4-1c-9.5 16.6-17.5 34.3-20 53.4-0.6 4.3 2.7 27.2-5.7 24.8-4.5-1.3-3.3-8.1 1.4-7.8 5.4 0.4 4.4 8.9-0.9 7.9-16.7-2.9 5.4-79.3 16.1-86.5 5.8-3.9 11.3 2.6 9.1 8.2z"  fill="#005bbb" /><path d="M272.6 40.7c-1.3 6.8 1.2 32.2-3 35.9-4.7 4.1-9.6-5-3.6-6.7 6-1.7 6.7 8.5 0.5 7.6-8-1.2-6.4-35.5-2.9-40.4 3.2-4.5 9.1-1.2 9 3.6z"  fill="#fff500" /><path d="M281.4-245.2c-11.1 97-104.1 111.4-125 190.5-7.8 29.4-5.7 61.1-2 91 1 8.5 9 31.3 5.3 38.6-3 6.1-11-2.7-4.5-5.1 6.4-2.4 6.1 9.5-0.2 6.8-7.7-3.3-8.7-40.8-9.6-48.8-5.7-48-5.5-99.4 25.8-139.1 23.1-29.3 56.5-48.1 77.7-79.1 12.7-18.5 14.7-37.7 23-57.5 2.3-5.6 9.6-2.7 9.5 2.7z"  fill="#005bbb" /><path d="M289.4-328.4c4.4 64.1 15.8 122.7-28.4 177.1-31 38.2-81.8 57.7-97.7 107.4-8.2 25.6-0.8 119-0.8 119.1-3.1 6.2-11.1-2.8-4.6-5.2 6.5-2.3 6.1 9.7-0.2 6.9-7.8-3.4-8.1-41-8.8-49-4-45.4 0.5-92.5 32.5-127.5 29.9-32.7 69.9-51.7 90.6-92.8 14.5-28.8 17.1-60.4 14.1-92.1-0.8-8-9.8-41.4-3.4-46.7 2.7-2.3 6.1-0.2 6.7 2.8z"  fill="#c2e1ff" /><path d=""  fill="#005bbb" /><path d="M306.7-343.6c11.4 86.9 39.9 107.4 22.3 207.2-12.5 70.6-53.1 119.7-65.1 178.1-1.4 6.7 1.2 31.1-3.2 34.9-4.7 4.1-9.7-5.1-3.7-6.8 6-1.7 6.6 8.6 0.5 7.7-8.8-1.4-4.3-31.7-3.5-37.5 8.1-58.1 54.3-116.9 66.4-186.1 15.6-88.8-8.3-115.9-21.2-196.3-0.8-5 6.2-5.9 7.5-1.2z"  fill="#c2e1ff" /><path d="M316.7-196.1c-16.8 114.4-91.7 112-127.3 186.2-8.5 17.7-11.9 37.3-12.1 56.8 0 5.9 4.5 25.9 0.4 29.7-4.6 4.1-9.6-4.8-3.7-6.6 6.9-2.1 5.9 10.4-0.6 7.2-6.4-3.2-4.7-26.7-4.8-32.9-1.7-91.5 61-105.4 106.8-167.9 17.6-24 20.2-49.6 31.8-75.5 2.5-5.6 9.9-2.5 9.5 3z"  fill="#fff500" /><path d="M298.5-396.9c-19.8 55.3 4.8 110.4-1.6 166.6-7.9 69.9-57.3 98.5-103.3 142.9-6.4 6.2-27.6 43.9-34 41-8.3-3.7 0.7-15.9 6.6-9 6 6.9-7.3 14.2-9.8 5.4-8.4-28.5 99.3-103.1 118-141.4 27.3-55.9 4.1-111.4 6.8-169.6 0.5-10.2 0.3-33.8 8-41.5 4.4-4.4 10.3 0.3 9.3 5.6z"  fill="#fff" /><path d="M333.5 66.7c0.2 3-4 18.8-7.3 8.3-5.5-17.1 17.6 10.9 1.9 2.3-10.1-5.6 3.2-21.3 5.4-10.6z"  fill="#fff" /><path d="M340.5-321.2c13.3 26.2 30.7 50.1 43 76.9 14.1 30.8 21.7 64 33.6 95.6 23.5 62.5 55.8 120.1 69.1 186.2 1.2 6 10.4 36.6 3.4 39.5-5.8 2.4-7.6-7.8-1.4-7.6 7.3 0.3 2.2 11.9-2.9 6.7-8.3-8.5-2.9-56.9-38.2-140.9-12-28.7-25.9-56.6-37.1-85.5-20.3-52.9-35.2-102.7-64.5-151.9-2.6-4.4-9.8-12.6-9.8-17.8 0-2.8 3.4-3.3 4.8-1.2z"  fill="#fff500" /><path d="M349.9-375.1c15.9 49.3 67.7 75.5 92.4 119.8 35.8 64.3 66.8 210.8 87.3 286.9 1.7 6.2-4.9 10.4-5.8 4.6-1.4-8.7 12.8-0.1 4.4 2.7-6.8 2.2-17.9-53.1-19.7-60.3-16.5-62.7-34.7-124.7-53.7-186.7-24.4-79.8-59-84.4-99.3-144.1-8.8-13-11.8-34.4-5.6-22.9z"  fill="#fff" /><path d="M359.8-399.3c11.5 57.7 78.1 79.1 106.4 126.7 32.2 54.1 52.7 207.1 67.7 275.8 1.4 6.4-9.4 4.7-6.4-0.8 3.1-5.6 10.2 3.1 4.1 5-6.4 2-49.7-219-55.8-241-20.6-74.8-70.3-81.2-108.8-135.8-5.2-7.4-13.7-19.5-14-28.9-0.1-4.2 5.4-4.5 6.8-1z"  fill="#fff" /><path d="M368.3-206.7c7.4 33.9 12.7 67.9 23.3 101 12.4 38.6 29.8 75.7 39.4 115.2 2.2 8.9 15.7 65.6 4.2 68.6-6.9 1.8-7.3-10-0.3-8.8 8.2 1.5 0.5 13.8-4.5 7.1-3.1-4.2-5.9-64.4-9.1-77-17.5-67.6-45-128.2-58.8-197.9-0.8-4.2 2.5-18 5.8-8.2z"  fill="#c2e1ff" /><path d="M377-124.8c4.6 20.8 66.8 196.3 41.9 202.4-7 1.7-7.3-10.2-0.3-8.8 7.1 1.4 2.3 12.3-3.5 8.1-6.7-4.8-4.2-54.6-6.2-65.2-8.7-45.1-27.2-87.7-38.2-132.2-1.2-5.1 3.9-10.7 6.3-4.3z"  fill="#005bbb" /><path d="M385.6-75.9c4.6 16.3 48.7 148.2 26.4 153.6-7 1.7-7.3-10.2-0.2-8.8 7.1 1.4 2.3 12.3-3.6 8.1-6.5-4.7-2.5-41.9-3.5-50.8-4.3-34.6-16.6-66.8-25.6-100.3-1.1-4.3 4.8-5.7 6.5-1.8z"  fill="#c2e1ff" /><path d=""  fill="#c2e1ff" /><path d=""  fill="#fff" /><path d="M409.5-363.8c31.5 26.5 67.5 44.3 86.1 83.2 30 62.8 25 168.9 38 240.1 2.3 12.6 23.5 86.4 21.8 91.3-1.8 4.9-9 0.3-5.4-3.4 3.7-3.7 8.3 3.6 3.4 5.3-7 2.6-16.8-45.8-18.3-52.1-20.2-81.8-18.6-166.4-35.7-248.4-10.6-51-42-78.6-82.4-107.8-0.7-0.5-11.5-10.6-7.5-8.2z"  fill="#c2e1ff" /><path d="M420.6-32c4.4 12.2 34.7 105 17.3 109.6-5.9 1.6-7.8-7.8-1.8-8.7 7-1.1 6.2 10.7-0.6 8.7-7.1-2.1-3.3-24.8-3.8-30.7-0.3-3.5-24-105-11.1-78.9z"  fill="#fff500" /><path d="M429.1-82.1c45.3 101.8 53.6 155.4 42.5 159.3-6.2 2.2-7.6-8.7-1-8.1 6.6 0.6 3.2 11.1-2.5 7.8-7.1-4.2-7.5-49.8-9.6-59.4-5.2-23.6-13.1-46.4-22.3-68.7-2.6-6.2-14.4-24.4-12.4-30.7 0.8-2.6 4-2.4 5.3-0.2z"  fill="#005bbb" /><path d="M438.2-215c34.9 93.7 65.2 187.9 90.4 284.6 1.6 6.2-5 10.4-6 4.4-1.3-8.8 13 0 4.5 2.8-5.2 1.7-30.9-103.2-34.4-114.9-16.8-56.9-38.6-112.3-58.1-168.4-1-3-0.7-17.1 3.6-8.5z"  fill="#fff500" /><path d="M490.6-399.7c24.1 28 41.8 59.8 50.3 95.9 14.9 63.4 0.9 130.4 0.9 194.7 0 9.2 6.5 77.8 1.7 78.2-6.1 0.6-4.8-9.4 0.9-7.4 5.7 2 0.4 10.6-4 6.4-17.9-17.4-0.5-198.8-2.2-234.8-2-40.1-13.7-79.3-36.4-112.4-1.3-1.9-16.6-25.7-11.2-20.6z"  fill="#fff" /><path d=""  fill="#fff" /><path d="M464.8-24c4.9 13.9 27.7 89.9 21.7 99.7-3.3 5.5-10.9-1.8-5.7-5.3 5.3-3.6 9.2 6.2 2.9 7.2-7.9 1.3-9-36.5-10.1-42.4-3.5-18.9-13.4-39.1-15-57.9-0.3-3.8 4.6-4.4 6.2-1.3z"  fill="#fff" /><path d="M473.2-259.1c30.1 64.6 38.9 171.5 56.1 243.8 2.3 9.8 26.3 91 22.3 92-4.9 1.3-5.3-7.1-0.3-6.2 5 0.9 1.8 8.7-2.4 5.8-10.9-7.5-37.8-139.9-42-161.3-10.7-53.4-17.5-110.1-35.2-161.7-0.2-0.7-4.1-22.1 1.5-12.4z"  fill="#c2e1ff" /><path d="M508.9-399.4c18.6 31.5 32.1 65.7 38 101.8 11.7 70.7-6.1 143.4-3.4 214.6 0.4 9.5 10.5 81.8 6.7 82.5-5.6 0.9-5.1-8.6 0.4-7 5.5 1.6 1 9.9-3.3 6.2-4.1-3.5-4-15.3-4.9-20.5-14.7-79-0.8-155.7-0.6-234.9 0.2-47-11.4-93-33.8-134.3-0.8-1.4-4.1-15.2 0.9-8.4z"  fill="#c2e1ff" /><path d="M490.9-274.1c29.4 62.7 28.6 177.7 43.9 250.2 2.2 10.6 27.4 99.6 24.2 100.4-4.8 1.4-5.3-7-0.4-6.1 5 0.8 1.9 8.6-2.3 5.7-17.2-11.6-42.1-174.1-45.8-202.7-5.9-45.5-7-95.5-22.5-138.9-0.7-2.1-1.7-16.8 2.9-8.6z"  fill="#005bbb" /><path d="M500.6-148.7c12 56.3 22.2 113 37.2 168.7 1.8 6.8 18.7 55.4 13.3 56.8-4.9 1.3-5.3-7.1-0.3-6.2 5 0.9 1.8 8.7-2.4 5.7-9.4-6.5-14.2-43.4-17.2-54.6-15.2-55.5-27.5-112.4-37.7-169-0.8-4.7 5.6-5.8 7.1-1.4z"  fill="#fff500" /><path d="M509.4-254.8c20.6 81.7 14.1 168.9 33.2 251.5 2.5 10.6 23.1 73.1 21.6 77.4-1.8 5.6-9.7-1-4.5-3.7 4.4-2.4 6.7 5.6 1.7 5.9-12.5 0.7-31.8-104.6-34.2-117.8-12.3-66.5-11.8-134.5-22.8-201.1-0.3-2.1 0.7-24.3 5-12.2z"  fill="#fff500" /><path d="M517.6-293c26.6 67 10.9 189 25.6 268.5 2.6 13.8 27.7 94.1 26.1 99.1-1.8 5.6-9.6-0.9-4.5-3.8 4.4-2.4 6.7 5.6 1.7 5.9-6.6 0.4-12.9-31.3-14.5-36.6-21.7-71.1-27.6-143-29.2-217-0.6-29.3 0.2-59.2-4.7-88.2-4.5-26.8-4.8-36.8-0.5-27.9z"  fill="#fff" /><path d="M527.4-256.5c13.1 83.8 1.5 168.6 20 252.4 2.4 11 23.4 74.1 22 78.7-1.8 5.6-9.6-0.9-4.5-3.8 4.4-2.4 6.7 5.6 1.7 5.9-9.6 0.6-24.8-73.4-27-83.2-18-79.1-12.1-158.2-18.8-238.2-0.2-2.8 3.3-24.8 6.6-11.8z"  fill="#fff" /><path d="M536.7-229.1c1.9 78.1-3.5 154.8 14.2 231.8 2.3 10.1 21.6 67.1 20.3 71.5-1.8 5.5-9.6-0.9-4.5-3.7 4.4-2.4 6.7 5.6 1.7 5.9-8.1 0.5-20.2-56.1-22.3-64.2-20-77.5-17.8-155-18.1-234.3 0-5.6 7.1-18.3 8.7-7z"  fill="#005bbb" /><path d="M544.9-35.6c1.8 11.7 26.9 111.5 25.4 111.9-4.1 1.2-5.6-5.4-1.4-6.1 4.2-0.7 5 5.9 0.8 6.2-8.9 0.6-35.9-101.3-32.1-112.6 1.3-4 6.4-2.9 7.3 0.6z"  fill="#c2e1ff" /><path d="M553.8-26.6c1.6 11 25.2 102.8 23.3 103.4-4.1 1.2-5.6-5.4-1.4-6.2 4.2-0.7 5 5.9 0.7 6.3-9.9 0.6-31.2-91.8-30.2-103.2 0.4-4.7 6.4-4.3 7.6-0.3z"  fill="#c2e1ff" /><path d="M562.2 11.2c1.8 7.5 20.5 63.9 15.9 65.2-4.1 1.2-5.6-5.4-1.4-6.1 4.2-0.7 5 6 0.7 6.2-6.9 0.4-22.1-56.9-22.1-64.5 0-4.3 5.6-4.4 6.9-0.8z"  fill="#fff500" /><path d="M547.1-398.3c0.8 42.9 11.1 85 11.4 128.1 0.4 55.4-11.2 110.2-12.4 165.5-0.2 7.7 4.9 59.3-1.7 59.7-7.4 0.4-3.3-11.8 2.4-7 4.8 4.1-3.5 10.5-6.2 4.7-15.1-32.7 3.4-147.4 7-187 4.6-50.3-13.9-159.4-8.1-166.5 2.7-3.3 7-1.1 7.6 2.5z"  fill="#fff500" /><path d="M579.5 69c0.7 2.2 2.3 9.2-3.1 7.1-3.4-1.3-2-6.6 1.7-6 3.6 0.6 3.4 6-0.3 6.2-8.8 0.5-2.3-15.6 1.7-7.3z"  fill="#fff" /><path d="M590-52.6c-3.9 34.1 14.5 102.7 11.8 109.5-2 5-9.4-0.1-5.5-3.8 4.6-4.3 8.6 5.9 2.3 5.9-14-0.1-22-101-17.8-113.5 1.8-5.5 9-3.3 9.2 1.9z"  fill="#005bbb" /><path d="M599.3-77.7c-7.6 26.4-8.4 54.2-4.9 81.4 1.2 9.4 11 34.7 7.4 42.8-2.2 5.1-9.7-0.3-5.5-4 4.9-4.3 8.7 6.3 2.2 6.1-10.9-0.3-17.2-100-9.6-128.9 1.8-6.9 11.3-4.1 10.4 2.6z"  fill="#005bbb" /><path d="M561.6-397.5c-9.3 47 2.4 96.4-0.3 143.9-3.9 70.1-19.5 138.4-11.8 209.1 1.3 11.9-10.1 6-6.7 1.3 5.1-6.9 11.1 7.5 2.6 6.2-13.7-2-11-68.9 2-173.8 7.9-63.3-3.5-124.8 3.9-185.5 0.9-7.4 10.6-9.8 10.3-1.2z"  fill="#fff" /><path d=""  fill="#c2e1ff" /><path d="M604.1-256.5c-25.4 78.3-53.3 153.6-41.4 237.4 3.6 25.2 9.9 50 17.5 74.3 1 3.1 10.5 21.7 2.5 21.2-4.3-0.2-3.6-6.9 0.6-6.2 3.6 0.6 3.4 6.1-0.3 6.2-6.4 0.4-12.2-29.5-13.8-34.8-18.8-62.6-23.9-125.8-10-190 6.7-30.7 18.5-86.8 34.8-112.8 3.6-5.8 11.3-1.3 10.1 4.7z"  fill="#fff500" /><path d=""  fill="#fff" /><path d="M603.9-295.8c-25.2 83.6-54.9 174.5-45.3 262.7 2.9 26.7 8.9 52.9 16.6 78.5 0.9 3.2 11 24.3 3.1 23.8-3.7-0.2-4-5.7-0.4-6.3 3.6-0.6 5.1 4.7 1.7 6.1-6.7 2.7-14.9-35.9-16.4-41.3-31.2-112.6-0.2-214.9 29.4-323.9 2.1-7.7 12.7-8.8 11.3 0.4z"  fill="#fff500" /><path d="M603.8-66.6c-5 19.3-1.4 91.6-1.8 92.4-2.7 5.3-10.3-1-5.6-4.6 5.4-4.3 8.9 7.3 1.9 6.6-15.6-1.4-7.5-85.4-4.8-96.6 1.6-6.8 11-4.3 10.3 2.2z"  fill="#fff500" /><path d="M604.2-208.5c-30.7 64.7-47.1 132.2-34.9 203.8 3.6 21.2 9.2 41.9 15.6 62.3 0.8 2.5 9.2 19.1 1.5 18.8-3.7-0.2-4-5.7-0.3-6.3 3.6-0.6 5.1 4.7 1.7 6.1-6.3 2.5-9.3-17.2-10.3-20.5-18.4-57.9-27.8-117.3-15.7-177.5 5.6-27.8 14-70.5 32.2-93.1 4.7-5.8 12.3 0.1 10.2 6.4z"  fill="#c2e1ff" /><path d=""  fill="#fff" /><path d="M604.2-390.7c-32.8 39.4-27.1 95.7-33.4 143.5-8.5 65.3-22 127.5-19.3 193.8 0.4 9.1-13.6 1.6-6.3-3.1 6.4-4.1 8.9 8.9 1.5 7.5-13.6-2.6-2.4-90.1-1-102.1 5.3-44.2 23.8-206.9 40.1-236.3 8.1-14.6 27.3-19 18.4-3.3z"  fill="#c2e1ff" /><path d="M604.1-226.1c-26.9 64.6-47.8 129.5-39.8 200.4 2.3 19.9 6.4 39.6 11.7 59 0.7 2.7 8.9 20.2 1 19.6-3.8-0.3-3.9-6-0.2-6.5 3.8-0.5 5.1 5 1.6 6.3-6.6 2.4-9-18-10-21.5-15.6-56.1-19.5-113.2-6.5-170.2 4-17.7 20.5-83.5 32.9-93.9 5-4.2 10.8 1.4 9.3 6.8z"  fill="#fff" /><path d="M604.1-365.8c-20.1 31.3-43.8 192.7-48.9 237.5-1.2 10.1-0.8 65.2-3.4 69-4.4 6.5-12-4.8-4.4-6.4 6.5-1.4 6.5 9.7 0 8.2-11.6-2.6-1.7-73-0.5-83.4 5-41.5 27.5-191 41.6-222.3 4.3-9.5 21.5-16.8 15.6-2.6z"  fill="#fff" /></svg>