<svg width="1200" height="675" viewBox="-500 -500 1200 675" xmlns="http://www.w3.org/2000/svg"><path d="M-500-500h1200v675h-1200z" fill="#000"/><path d=""  fill="#005bbb" /><path d=""  fill="#fff500" /><path d=""  fill="#fff" /><path d=""  fill="#005bbb" /><path d=""  fill="#fff" /><path d=""  fill="#005bbb" /><path d=""  fill="#fff" /><path d=""  fill="#fff500" /><path d=""  fill="#005bbb" /><path d=""  fill="#c2e1ff" /><path d="M-394 24.2c1.2 8.8 16.5 45.6 12.7 51.3-3.1 4.5-9.3-2.1-4.6-4.9 4.7-2.8 7.5 5.8 2.1 6.3-7.4 0.8-20.7-46.7-18.7-53.2 1.5-4.6 7.3-3.4 8.5 0.5z"  fill="#005bbb" /><path d="M-384.1 41.1c1.2 6.4 11.3 29.4 7.8 34.2-3.4 4.6-9.6-2.6-4.6-5.3 5-2.7 7.7 6.4 1.9 6.7-6.3 0.4-14.5-30.8-13.2-35.8 1.2-4.5 6.8-3.6 8.1 0.2z"  fill="#005bbb" /><path d="M-372.7-206.7c-1.2 37.8-18.5 79.6-19.4 100.1-1.5 32.2-2.5 64.4-3.1 96.6-1.3 60.4 6.3 82 4.4 85.3-3 5.1-9.2-3.1-3.6-4.7 4.8-1.4 5.3 7 0.4 6.2-4.8-0.8-6.9-47.4-7.8-86.8-0.7-33.4-2.4-66.7-2.9-100.1-0.2-15.9 12.4-37.5 15.8-53.6 2.6-12.3 0.2-35.5 6.4-46 3-5 9.5-2.1 9.8 3z"  fill="#fff" /><path d="M-366.9-396.1c-31.6 73.3-0.9 216.4-26.5 254.8-5.5 8.3-16.9-3.7-8.5-8.9 9.9-6.1 13.3 13.9 2 11.5-8.7-1.9 7.4-71.9 8-83.4 3.2-60.4-10.5-118.2 11.5-176.5 3.4-9.1 16.3-8 13.5 2.5z"  fill="#fff" /><path d="M-352.2 35.4c-1 7.8 4.1 36.7-0.6 41.1-5.1 4.7-11-5.2-4.4-7.3 6.6-2.2 7.8 9.3 0.9 8.5-8.5-1-9.4-40-6-45.6 3.2-5.1 9.8-2 10.1 3.3z"  fill="#005bbb" /><path d="M-341.3 17.7c-5.1 14.4-2.5 55.2-7 59.2-5.4 4.7-11.1-5.7-4.3-7.8 6.9-2 7.7 9.9 0.6 8.8-12-1.8-5.5-57.2-1-65 3.8-6.8 12.7-1.9 11.7 4.8z"  fill="#005bbb" /><path d="M-333-315.7c10 61.5 28.4 132.2 12.3 194-11.9 45.8-48.3 81.1-54.8 128.7-2.3 16.7-1 33.6 2.4 50.1 0.7 3.2 8.7 20.9-0.1 20.2-4.4-0.4-4.5-7-0.1-7.6 5.1-0.7 5.7 7.5 0.5 7.6-6.2 0.1-7.4-15.1-8.3-19-23.9-94.8 39.5-123.4 53.2-203.7 8.3-48.5-17.5-164.8-13.1-171.9 2.3-3.6 6.9-2 8 1.6z"  fill="#fff" /><path d="M-322.4-203.3c9.7 114-45.2 123.3-56.4 206.9-1.9 14.2 8 69.1 7.4 70.9-2.3 6.5-11.4-1.5-5.2-4.6 6.2-3.1 7.3 8.9 0.6 6.9-6.1-1.8-8-20.8-9.3-26-17.6-75.1 22.8-109.3 45.4-174 9.6-27.5 3.3-53.3 8.1-80.6 1-5.7 8.5-4.6 9.4 0.5z"  fill="#fff500" /><path d="M-312.2-374.4c3.9 79.4 39.1 181.2 24.1 258.5-10.1 51.9-57.2 85.1-67.7 136.5-1.7 8.5 2.3 40.6-2.9 45.2-5.3 4.7-11.1-5.5-4.2-7.6 6.8-2.1 7.7 9.7 0.7 8.7-8.1-1.1-6.1-24.4-6.1-30-0.3-68 62.1-106.1 71.2-170.1 11.4-78.9-20.2-161.9-24.6-240.4-0.4-6.3 8.4-6.6 9.5-0.8z"  fill="#fff" /><path d="M-301-130.9c-7.3 53.6-53 89.1-63.7 141-3.2 15.4 4 62.7 1.2 65.8-5 5.5-10.7-6.1-3.3-6.7 6.4-0.5 4.9 10-1.1 7.8-9.7-3.6-9.5-43.2-9.4-51.9 0.4-50.3 32.5-83.2 53.4-125.8 4.8-9.8 6-26.9 12.5-35 4-5.1 10.7-0.8 10.4 4.8z"  fill="#c2e1ff" /><path d="M-292.1-245.5c5.8 50.7 20.5 106.7 0.8 155.9-15.4 38.3-49.5 66-60.3 106.6-3.5 13.2-4.5 26.9-3.6 40.5 0.2 3.6 5.7 21.8-3.5 19.9-4.9-1-4.2-8.5 0.9-8.6 5.9-0.1 5.4 9.2-0.4 8.6-15.6-1.5-4.8-66.7-2-76.2 12.6-41.4 48.4-69.8 62-110.5 14.7-44 0.8-90.6-3-135.2-0.5-6 7.7-6.7 9.1-1z"  fill="#fff500" /><path d="M-281.9-238.5c5.8 50.7 22 106.3 2.7 155.9-15.1 38.7-50.3 65.5-62.5 105.6-2.5 8.1-3.5 56.6-10 54.9-6-1.6-2.9-10.9 2.8-8.7 5.8 2.2 1.7 11.1-3.7 8.3-5.3-2.7-3.9-15.9-4.1-20.6-3.6-72.6 51.1-98.5 70.5-159.1 14.1-44.3-0.8-90.6-4.8-135.3-0.5-6 7.7-6.7 9.1-1z"  fill="#fff500" /><path d="M-271.6-312.4c5 52.6 30.1 197 21.5 237-8.9 41.6-40.7 69-58.8 106-3.7 7.5-10.5 48.9-17.8 48-8.4-1-3.8-14.3 3.4-9.8 7.2 4.4-2.6 14.5-7.2 7.5-18.7-28.1 64.9-131.2 71.3-167.2 11.2-63.6-30.4-165.1-21.7-221.8 0.9-5.7 8.2-4.7 9.3 0.3z"  fill="#fff" /><path d="M-260.1-398.7c3 64 3.9 130.8 15.2 194 6.4 35.7 17.7 70.2 24.8 105.7 2.7 13.4 18.2 107.8 1 110.9-10.1 1.8-6.5-15.6 2-10 7.3 4.8-3.1 14.9-7.6 7.5-3.4-5.5 0.3-80.6-2-96.2-6.2-41.4-20.1-81.2-27.7-122.4-10.8-58.4-10.8-118.9-14.7-178-0.2-3.8-2.3-10.9 0.4-14.3 3-3.7 7.9-1.3 8.6 2.8z"  fill="#fff500" /><path d="M-251.8-179.8c11.3 58 20.2 111.9-11.8 165.2-10.7 17.9-23.7 34.4-32.9 53.1-3.5 7.2-9.6 42.4-18.3 40.7-8.8-1.7-2.9-15.4 4.5-10.1 7.3 5.3-3.9 15.2-8.3 7.3-13-23.3 53.4-112.3 62-138.8 16.7-51.6-5.5-75.6-3.6-116.8 0.2-5.2 7-5 8.4-0.6z"  fill="#005bbb" /><path d="M-240.8-313.1c2.3 97.2 20.8 195.8 78.5 276.9 6.6 9.2 94.7 107.8 84.4 112.4-4.3 2-6-5.7-1.2-5.7 4.7 0 3 7.7-1.3 5.7-8.9-4.2-20.6-34.3-27.3-43.2-14.9-19.5-32.9-36.3-48.9-54.9-38.1-44.8-62.5-104-78.3-160.1-9.4-33.2-23.1-98.5-15.7-132.1 1.3-5.9 9.1-4.4 9.8 1z"  fill="#fff500" /><path d="M-230.5-325c0.3 91.9 11.4 178.5 71 252.5 36.4 45.2 84.2 74.2 106.3 130.2 1.6 4 6.8 12.6 5.3 16.9-1.9 5.6-10.2 0.5-6.2-3.7 4.1-4.2 9.5 3.9 4.1 6-3.4 1.3-28-56.2-33.1-63.6-53.4-78.1-101.5-76-140-191.4-15.6-46.7-19.2-97.9-17.6-146.9 0.2-6.7 9.3-6.4 10.2 0z"  fill="#005bbb" /><path d="M-221.9-162.2c19.6 62.5 47.2 120.6 91.5 169.2 8.1 8.8 51.2 57.5 49.8 67.1-0.7 4.6-7.8 1.8-5.3-2.1 2.5-3.9 7.9 1.6 3.9 4.1-3.3 2.1-30.5-42.3-34.9-47.8-55.1-67.7-80.4-96.3-109.8-181.6-1.6-4.5 0.4-18.1 4.8-8.9z"  fill="#fff500" /><path d="M-210.3-278.1c0.5 41.2 6.5 82.3 25.1 119.6 36.8 74.1 117.1 113.8 143.5 194 2.1 6.3 14.8 38.3 7.8 41.9-5.9 3.1-8.7-7.6-2.2-7.9 7.8-0.4 3.3 12.4-2.5 7.4-4.2-3.6-19.5-66.4-26.3-79.2-34.3-64.4-102.5-100.9-133.2-168.8-14.9-33-22.1-70.5-22.1-106.8 0-6.6 9-6.5 9.9-0.2z"  fill="#005bbb" /><path d="M-200.5-7.5c1.1 10.1 12.8 85.1 3.8 85.7-6.2 0.4-6.3-9.4-0.1-9.2 6.2 0.3 5.2 10-0.9 9.1-7.9-1.2-6.2-25.9-6.7-31.4-1.5-16.8-3.2-33.6-5-50.5-0.7-6.6 7-11.7 8.9-3.7z"  fill="#fff" /><path d="M-193.4-398c-8.5 80.4-20.5 170.6 21.4 244.1 17.2 30.2 41.2 55.1 65.3 79.8 2 2 21 18.7 15.9 20.6-2.4 0.9-3.6-3-1.1-3.7 2.5-0.6 3.3 3.4 0.7 3.8-3.8 0.5-10-9.8-12.4-12.4-55.3-58.7-101-111.5-106.9-195.6-2.2-31.9-3.9-110.8 6.4-139.1 2.3-6.4 10.6-3.6 10.7 2.5z"  fill="#fff500" /><path d="M-181.2 15.9c2.3 7.4 23 59.2 17.4 61-4.4 1.5-6.4-5.6-1.8-6.6 4.5-1 5.7 6.2 1.1 6.8-5.8 0.6-8.3-14.2-9.7-17.8-4.3-11.4-8.2-23-12-34.6-1.5-4.5 0.7-18.3 5-8.8z"  fill="#c2e1ff" /><path d="M-172.5-138.4c42.8 68 113.4 105.9 135.5 187.4 1.6 5.9 8 20.6 5.3 26.3-2.9 6-11.6-0.8-6.4-5 4.4-3.6 9.7 3.6 5 6.7-8.6 5.7-10.1-19.8-11-23.4-5.8-24.2-14-47.8-27.3-68.9-27.3-43.4-71.5-72.9-101.3-114.6-1.5-2.1-5.2-14.7 0.2-8.5z"  fill="#c2e1ff" /><path d="M-162.7-110.4c43.1 56.7 101.6 91 122.6 162.9 1.5 5.2 7.4 17.7 5.1 22.8-2.7 5.9-11.3-0.5-6.4-4.7 4.2-3.7 9.6 3.3 5 6.4-8.2 5.7-10.2-18.6-11-21.8-6-22.5-14.3-44.4-27.1-64-23.6-36-59.7-60.9-87.2-93.5-1.1-1.3-6.5-13.3-1-8.1z"  fill="#fff" /><path d="M-148.2-363.5c-19.5 70.3-18.5 145.1 20.3 208.6 39.7 64.9 88 114.6 102.1 192.2 0.9 4.8 5.7 17.3 1.4 21.2-4.5 4.1-10.5-3.3-5.6-6.9 5.7-4.2 10.5 6.6 3.5 8-4.9 1-21-75.7-25-85.7-29.7-74.4-99.1-125.9-115.1-206.9-8.5-42.9-5.7-91.5 6.4-133.5 2.3-7.9 13-4.7 12 3z"  fill="#c2e1ff" /><path d="M-142.7-15.2c7.6 8.4 80.3 80.4 68.5 91.1-4.2 3.8-7.7-5.4-2-5.3 4.8 0.1 3 7.9-1.4 5.8-7.3-3.6-15.6-27.5-20.6-34.8-8.6-12.6-44.9-45-47.6-55.1-0.5-2 1.8-2.9 3.1-1.7z"  fill="#005bbb" /><path d=""  fill="#fff" /><path d=""  fill="#fff" /><path d=""  fill="#fff500" /><path d="M-97.7-302.2c-20.1 111.9 76.9 217.2 83.8 375.4 0.4 8.9-13.8 4.1-8.4-2.6 5.5-6.9 13 6.5 4.3 7.6-6.5 0.9-15.5-94.4-18.1-106.5-15.8-71.6-58.5-134.4-71.4-206.6-3.5-19.6-9-51.1-1.2-70.3 2.6-6.5 11.1-3.3 11 3z"  fill="#fff500" /><path d=""  fill="#c2e1ff" /><path d="M-81.1 18.6c4.3 5.8 35.8 55.2 26 58.3-4.6 1.4-6.5-6-1.7-6.9 4.1-0.8 5.9 5.1 2.1 6.8-6.9 3-11.9-20.8-13.7-24.9-4.8-10.8-20.5-42.2-12.7-33.3z"  fill="#c2e1ff" /><path d="M-70.6 17.6c4 6.1 32.4 56.8 22.3 59.4-5 1.3-6.5-6.6-1.5-7.4 4.3-0.6 6 5.7 1.9 7.2-7.3 2.8-10.9-20.9-12.5-25-4.1-10.8-11.7-21.2-15-32-1-3.1 3.1-4.5 4.8-2.2z"  fill="#fff500" /><path d="M-59-178.1c18.3 66.6 38.5 131.1 44.4 200.3 1 11.5 8.9 44.6 2.6 54-4.2 6.4-13-2.8-6.5-6.7 6.5-4 10.7 8 3.1 8.8-7.4 0.9-12.9-98.8-14.9-111.3-2.7-17-36.1-145.2-35.9-145.7 1.7-3.4 6-2.4 7.2 0.6z"  fill="#005bbb" /><path d="M-49.4-88.3c10 23.8 46.5 144.9 34.3 164.3-4 6.3-12.8-2.4-6.5-6.5 6.3-4.1 10.6 7.6 3.2 8.6-9.4 1.3-9.5-50.3-10.5-58.3-2.1-16.8-27.1-106.5-27-107.1 0.4-3.7 4.9-3.8 6.5-1z"  fill="#005bbb" /><path d="M-36.6-322.1c-11.3 56.3 9.1 112.2 16.4 167.6 10 74.9 13.6 152.4 13.1 228-0.1 9.3-14.5 3.6-8.6-3.1 6.1-6.9 13.3 7.4 4.1 8.1-8.6 0.8-8.6-114-9.3-127.9-2.3-42.2-4.8-84.7-11.4-126.5-6.1-38.6-17.4-76.8-17.9-116.1-0.5-38.4 14.1-45 13.6-30.1z"  fill="#005bbb" /><path d="M-28 68.2c0.6 3.1 1.3 13.1-5.5 9.2-4.3-2.5-1.3-9.4 3.4-7.9 4.8 1.5 3.3 8.9-1.7 8.5-12-1.1 0.1-21.7 3.8-9.8z"  fill="#fff500" /><path d=""  fill="#005bbb" /><path d="M-6.9-138.2c2.1 45.7 1.1 91.6 1.1 137.4 0 9.7 4.8 79.4-4.8 79-6.8-0.2-5.8-10.9 0.9-9.9 6.7 0.9 4.6 11.4-1.9 9.8-9.1-2.3-4.2-41.4-4.3-49.2-0.1-25.5-7.1-155.2-0.4-169 2.4-4.9 8.6-2.7 9.4 1.9z"  fill="#fff" /><path d="M3.7-97.6c-3.4 44.4-5.8 88.8-6.7 133.3-0.1 6.7 4.2 43-5.7 42.6-6.8-0.3-5.8-11.1 1-10 6.8 1 4.5 11.6-2.1 9.8-12.7-3.4-2.7-160.6 3-177.8 2.1-6.3 10.3-3.8 10.5 2.1z"  fill="#005bbb" /><path d="M11.9-282.2c11 35.1 30.8 67 33.2 104.5 3.9 59.8-27.1 119.6-35.7 178.4-1.5 10-3.6 78.9-12.3 78.1-8.2-0.7-4.2-13.8 3-9.7 7.2 4.1-2 14.3-6.8 7.6-16.4-23.1 33.7-193.4 39.5-227.5 5.1-29.7 0.6-57.7-10.3-85.5-3.4-8.7-21.1-37.3-17.4-46.1 1.4-3.3 5.5-2.6 6.8 0.2z"  fill="#005bbb" /><path d=""  fill="#fff" /><path d="M30.7-396.4c-33.7 101.5 43.3 128.6 48.5 212.2 4.1 65.1-45.6 126.9-60.2 189.1-1.1 4.7-2.1 26.4-12.2 20-5.8-3.6-1.3-12.8 5-10.5 6.4 2.3 4 12.2-2.7 11.4-19.5-2.5 56.5-179.2 59-196.9 8.7-62.1-46.7-105.2-55.3-163.8-2.7-18.8-3.8-49.4 6.2-66.5 3.9-6.7 12.8-1.8 11.7 5z"  fill="#c2e1ff" /><path d="M43.4-192.6c2.9 16.1 2.6 32.6 0.1 48.8-8.3 53.8-29.3 104.4-36 158.8-1.1 8.9-1.3 64.4-10.4 63.6-8.3-0.7-4.1-13.8 3.1-9.7 7.2 4.1-2 14.3-6.9 7.5-10.8-15.3 16.1-138.8 22.4-161.5 6.6-23.7 14.7-47.2 18.1-71.7 1.5-10.6-2.6-27.4 1-36.8 1.7-4.6 7.6-3.1 8.6 1z"  fill="#005bbb" /><path d=""  fill="#fff500" /><path d="M63.3-363c10.1 56.5 69.2 88 76.1 145.5 8.8 73.7-62 133.4-91.9 194.4-8.7 17.7-20 69.6-27.5 72.6-8.8 3.6-11.5-12-2-11.5 8.1 0.4 6.8 13.2-1.2 11.9-11.8-1.8 0.5-30.8 2.4-37 22.6-77.2 93.8-139.7 108.3-206.1 13.2-60.5-37-94.1-61.9-141.9-12.9-24.7-6.6-39.4-2.3-27.9z"  fill="#005bbb" /><path d="M68.3-398.6c-3.8 65.8 51.2 96.5 72.2 152.1 28.4 75.3-40.4 139-76.4 197.2-3.2 5.2-12.4 29.3-21.7 18.2-4.6-5.4 1.1-13.8 7.8-11.4 7.9 2.7 5.2 14.9-3.1 14-8.3-0.9-6.4-9.1-3.8-14.1 28.4-53.6 84.5-101.7 92.7-163.9 8-60.8-47.1-94-68.4-144.4-5.5-13-13.1-34.7-9.5-49 1.5-6.1 9.5-4.3 10.2 1.3z"  fill="#c2e1ff" /><path d="M86-73.4c-21.6 29.2-40.3 60.4-51.9 94.9-4.3 12.7-5.5 47.1-14.3 55.8-7.6 7.4-14.7-9.6-4.1-9.7 9-0.2 6.1 14.6-2.2 10.9-9.7-4.3 2.7-39.9 4.6-47.7 9.1-35.4 27.5-90.2 56.5-114.8 7.3-6.2 15.5 3.1 11.4 10.6z"  fill="#fff" /><path d="M92-258.4c17 24.3 27 51.8 22.7 81.8-9 62.4-60.6 112.7-81.7 171.2-3.9 10.7-17.9 85.2-24.6 84.2-8.7-1.4-3.3-15 4-10.1 7.3 4.9-3.3 15-7.9 7.5-3.8-6.3 1.3-21.6 2.4-28.4 12.5-79.5 53.9-128 86.2-198 9.4-20.5 15.1-42.9 11.1-65.4-2.6-14.6-21.7-54.2-12.2-42.8z"  fill="#fff500" /><path d="M106.1 66.9c-1.2 3.6-10.9 22.6-14.7 8.1-4.2-15.8 23.6-2.6 8.7 4.1-11.6 5.2-8.3-13-5.6-17.4 4.1-6.7 12.9-1.6 11.6 5.2z"  fill="#fff" /><path d="M117-399.4c10.7 56.2 58.3 97.7 61.6 156.1 1.4 24.2-4.7 47.8-15.1 69.5-8.5 17.5-86.7 133.1-99.4 123.4-7.1-5.4-0.1-16.9 8-13 8.1 3.8 3.8 16.4-5 14.4-9.5-2.1-5.1-11.3-1.7-16.2 34.9-51 90.9-96.8 101.6-160.5 9.9-59.4-32.3-101.7-52.1-153.3-9.4-24.4-0.5-27.2 2.1-20.4z"  fill="#005bbb" /><path d="M126.6-120.1c-34.5 44.8-71.4 86.8-90.5 141-2.9 8.1-12.1 62.9-21.9 57.2-6.7-3.9 0.1-14.2 6.3-9.6 5.3 4 0.3 12.5-5.8 9.9-11.2-5 6.9-55 10-64.2 13.3-40.4 57.4-119.3 90.7-145.5 7.7-6 15.7 3.8 11.2 11.2z"  fill="#c2e1ff" /><path d="M138.2-399.3c10.2 54 48 99.4 48.1 155.8 0.1 55.3-35 99.9-68.7 140.3-6.8 8.2-37.9 57-48.7 48.3-7.1-5.7 0.2-17.1 8.3-13 8.1 4 3.5 16.7-5.3 14.5-5.3-1.3-7.6-7.7-4.5-12.1 36-50.7 91.5-96.2 105.6-159.1 13.7-61.2-25.9-110-41.1-166.1-1.5-5.7 2.7-18.6 6.3-8.6z"  fill="#c2e1ff" /><path d="M146.7 65.4c-0.8 2.9-8.8 24-13.8 9.8-5.1-14.7 22.2-4.1 8.5 3.3-11.2 6-8.4-13.1-6.2-17.3 3.5-6.7 12.2-2.4 11.5 4.2z"  fill="#005bbb" /><path d="M153.6-288.3c57.1 104.3-54.3 183.7-99.1 266-11 20.3-19.6 41.9-25.6 64.2-2.2 8.4-2.4 29.6-8.4 35.5-6.5 6.3-14.4-6.4-5.9-9.4 10-3.5 9.3 14.9-0.4 10.6-16.9-7.5 20.5-93.4 26.6-105.7 26.3-52.7 70.3-92.9 99.3-143.8 12.6-22.3 21.2-47.2 19.3-73.1-1.1-15.5-8.4-27.8-11.5-42.4-0.8-3.6 3.9-4.8 5.7-1.9z"  fill="#fff500" /><path d="M164.3-281.2c44.2 104.1-66.8 180.7-110.4 261.8-10.9 20.4-19.4 42-25.1 64.4-2 7.7-2.2 26.9-7.8 32.3-7.6 7.4-14.7-9.7-4-9.9 9.1-0.1 6 14.7-2.3 11-18.7-8.4 24.9-101.9 32-114.8 26.2-47.7 66.2-85.3 94.3-131.5 12.5-20.6 22-43.4 23.2-67.8 0.7-15.8-5.1-28.9-6.7-43.9-0.5-4.3 5.1-5 6.8-1.6z"  fill="#fff500" /><path d="M177.1-128.6c-45.9 42.5-94 83.5-122.1 140.7-8.1 16.4-20.9 72.9-30.7 66.4-6.8-4.4 0.8-14.7 7-9.6 5.3 4.4-0.3 13-6.5 9.9-12.8-6.5 13.8-64.8 18.4-74.6 18.8-40.8 84.8-125.4 123.8-146.8 9.3-5.1 16.2 6.8 10.1 14z"  fill="#005bbb" /><path d="M187.8 9.2c-11 15.3-25.3 66.9-31.5 69.6-8.5 3.7-11.5-11.4-2.2-11.2 9.3 0.2 5.7 15.2-2.7 11.1-14.1-6.9 16.2-71.4 24.7-79.3 6.9-6.4 15.3 2.4 11.7 9.8z"  fill="#fff500" /><path d=""  fill="#fff" /><path d="M207.3-367.3c-9.4 54.6 8.8 108.7-11.8 162.3-27.2 70.6-93.6 116.7-132.3 180.1-5.6 9.3-28 69.3-36.5 66.3-9.5-3.4-0.5-17.6 6.7-10.5 7.2 7.1-6.9 16.2-10.5 6.7-2.5-6.6 4.3-18.7 6.6-24.9 29.8-82.1 101-131.3 143.9-204.5 34-58.2 14.3-114.7 22.7-176.9 1-7.5 11.3-5.7 11.2 1.4z"  fill="#c2e1ff" /><path d="M217.9 49.6c-1.8 5.9-2.7 31-12.4 29.1-6.5-1.3-5.6-11.2 1.1-11.3 7.7-0.1 7.3 12.1-0.5 11.4-10.6-1-3.1-30.5 1.1-35.1 4.7-5.1 11.5-0.1 10.7 5.9z"  fill="#005bbb" /><path d="M227.7-313.2c-7.5 45.2-9.2 88.5-33.1 129.1-36.2 61.5-96.5 104.4-132.9 166.1-11.7 19.9-21 41.1-27.5 63.3-2.3 7.8-3.1 27.4-8.7 32.7-6.8 6.3-14.6-6.9-5.8-9.8 10.3-3.4 9.1 15.4-0.7 10.8-8.1-3.8 0-23.9 1.4-29.7 7.9-33.7 21.8-65.7 40.7-94.8 32.2-49.3 78.2-87 112.6-134.5 49.1-68 26.4-95 43-136.2 2.6-6.5 11.1-3.2 11 3z"  fill="#c2e1ff" /><path d="M238.5 33.3c-3.6 8.6-6.9 41.6-14.5 45.3-8.1 4-11.6-10.6-2.6-10.8 9-0.2 6.1 14.5-2.1 10.9-9.3-4 2.2-54.2 12.8-54.4 5 0 7.4 4.6 6.4 9z"  fill="#005bbb" /><path d="M248.6-167.8c-47.6 61-122.6 92.8-167.4 157.7-14 20.2-25.1 42.3-33 65.6-1.7 5.1-4.7 30.4-15.2 23-5.8-4.1-0.6-13.3 5.9-10.6 7.6 3.2 1.9 15-5.3 10.9-8.1-4.5 1.5-24.6 3.4-30.6 38.1-120.6 122.3-141.8 197.3-224.4 7.6-8.3 21.3-2.2 14.3 8.4z"  fill="#fff500" /><path d="M258.6-52.1c-25.8 27-54.4 51.9-70.4 86.4-3.3 7.1-11.2 50.1-21.1 44.2-6.7-4 0.2-14.3 6.4-9.5 6.2 4.7-1.8 14.2-7.4 8.8-20.2-19.1 57.2-127.5 82-143 8.8-5.5 16.1 5.8 10.5 13.1z"  fill="#c2e1ff" /><path d="M268.5 56c-1.2 5.6 0.1 24.8-9.5 23.2-6.4-1.1-5.8-10.7 0.7-11.1 7.6-0.4 7.5 11.6-0.1 11.2-9.5-0.6-4.8-23.6-1.5-27.9 4-5.1 10.8-1 10.4 4.6z"  fill="#c2e1ff" /><path d=""  fill="#c2e1ff" /><path d="M289.4-171.7c-34.7 73.6-120.8 99.7-171.7 159.5-16.9 19.8-30.6 42.2-40.6 66.3-2.2 5.2-7.3 33-17.9 24.6-7.9-6.3 5.1-16.8 9.7-7.8 3.9 7.7-8.6 13.1-11.7 5-3.9-10.5 10.7-35.7 15.2-45.3 32.4-69.7 91.4-106.8 150.8-150.8 21.2-15.7 50.8-57.3 55.8-60.7 6.5-4.5 12.8 2.8 10.4 9.2z"  fill="#fff500" /><path d="M299.5-145.8c-30.1 66.4-101.3 92.8-145.1 147.5-13.3 16.6-23.9 35.3-31.3 55.3-1.8 4.9-5.3 28.9-15.5 21.4-5.8-4.3-0.4-13.6 6.2-10.6 5.6 2.5 4.3 11-1.7 11.8-12 1.5-4.3-17.1-3-21.6 27.2-89.8 95-112.4 152.8-174.8 9.4-10.1 16.6-30.4 27.2-38 6.4-4.5 12.7 2.6 10.4 9z"  fill="#fff500" /><path d="M309.6-130.4c-23 61-78.4 93-112.2 146-12 18.8-22.5 68.2-31.4 62.9-6.7-4 0.2-14.3 6.5-9.6 6.2 4.8-1.8 14.2-7.5 8.8-4.8-4.6 0.2-16.9 1.4-22 14-62.3 61.9-96.1 100.5-142.6 10.4-12.5 22.4-43.3 32.2-51.3 5.8-4.8 12.3 1.6 10.5 7.8z"  fill="#fff" /><path d="M260.3-393c-43.4 46.9-31.7 107.7-48 164.7-15.1 52.8-53.8 92.5-89.8 131.8-6.3 6.8-22.4 33.3-33 28.5-11.7-5.3 1.1-22.5 9.5-12.7 9.9 11.4-15 20-14.3 5 0.6-13.1 79.2-91.1 92.3-110.7 37.6-55.9 24.6-118.5 47.6-178.1 4.9-12.7 13.2-32.2 24.6-40.4 8.1-5.9 16 4.5 11.1 11.9z"  fill="#fff500" /><path d="M329.3 32.6c-1 7.7 0.1 47.5-10 46.4-7.2-0.8-5.3-12.2 1.8-10.5 7.1 1.6 3.9 12.7-2.9 10.2-7.5-2.6-3.9-50.1 4.2-52.1 4.1-1 6.9 2.3 6.9 6z"  fill="#fff" /><path d=""  fill="#005bbb" /><path d="M349.2-61c-0.1 16.2-2.2 141.5-14.1 140-7.3-0.9-5.2-12.3 1.9-10.6 6.1 1.5 4.9 10.8-1.3 10.7-11.3-0.2-2.7-37.9-2.2-44.7 1.3-14.9 2.2-90.6 6.1-97.8 2.7-5 9.1-2.4 9.6 2.4z"  fill="#fff" /><path d="M360.4-373.9c-9.3 28.6-20.4 56.6-28.3 85.6-14 51.2-17.1 107.4-46.4 153.2-27.1 42.7-72.5 65.9-110.5 97.3-8.7 7.2-40.3 48.2-50.1 44.4-10-3.8-3.1-19.2 6.4-14.3 9.5 4.9 1 19.4-7.9 13.5-11.3-7.5 8.8-25.4 13.5-30.7 41.3-47.1 105.5-71.5 139.8-124.6 34-52.6 35-121.5 54.3-179.9 25.7-77.9 30.5-51.2 29.2-44.5z"  fill="#c2e1ff" /><path d="M370 70.7c-1.6 12.8-15.3 6.9-10.8-0.3 6.6-10.5 16.7 9.5 4.4 8.6-16.6-1.2 6.5-26.4 6.4-8.3z"  fill="#fff" /><path d="M380.2-379.2c-7 51.9-16.2 103-14.4 155.6 2.9 84.9 46.1 174.7 37.6 249.8-1 8.4-2.8 48.9-13.4 49.6-9.5 0.6-7.1-15.1 1.8-11.6 10.4 4.1-2.9 18.3-7.6 8.2-2.8-5.9 11.8-78.1 9.3-100.8-9.1-82.4-39.1-126.6-38.1-226.2 0.3-34.3 1.5-96.5 13.9-127.5 2.6-6.5 11-3.3 10.9 2.9z"  fill="#fff" /><path d="M388.4-109.1c15.9 54.9 29.5 101.7 17.5 159.2-1.4 6.6-2.2 29.3-11.4 29.6-11.3 0.4-4.7-18.2 3.8-10.7 7.3 6.4-5.7 15.9-9.6 7.1-3-6.7 12.1-63.3 12.8-76.9 2.4-45.3-19-74.1-20.6-107-0.2-4.7 5.8-5.1 7.5-1.3z"  fill="#fff500" /><path d="M399-48.8c5 21.3 10.6 112.6-6.1 126.9-7.2 6.2-14.7-7.7-5.5-10.3 9.2-2.6 10.1 13.2 0.7 11.7-11.8-1.9 0.9-34.7 2.2-41.8 5.8-31.6-0.7-55.9 0.5-85.9 0.2-5.1 6.8-5 8.2-0.6z"  fill="#005bbb" /><path d="M409.7-335.5c5.2 48.9 10.3 97.9 20.1 146.1 21.1 104 46.5 161 0.8 265.2-5.1 11.6-19.8-3.1-9.1-8.3 9.5-4.6 13.6 12.4 3 12.6-15.2 0.3 0.9-28.2 2.9-33.4 13.3-35 22.8-70.2 20.2-108-3.1-45.1-18.3-88.9-27.4-133-9.3-45.4-14.5-91.4-19.4-137.5-0.7-6.6 7-11.7 8.9-3.7z"  fill="#fff" /><path d="M419.7-257.6c13.5 102.1 59.3 201 22.7 302.8-2.8 7.8-7.7 32.9-16.3 35-8.8 2.1-11.4-11.9-2.4-13.1 9-1.2 10 13.1 1 13.3-14.7 0.3 0.1-26.1 1.9-30.9 12.8-33.4 22.9-67 21.9-103.3-1.8-57.4-42.5-157.9-37.7-203.7 0.6-5.5 7.7-4.9 8.9-0.1z"  fill="#fff500" /><path d="M429.2-75c12.2 40.8 10.5 80.6-1.3 121.2-2.1 7.1-5.6 33.8-15.5 33.4-10.2-0.4-5.9-16.8 3.2-12.2 9.1 4.6-1.7 17.7-8 9.7-6.9-8.8 12.9-50.2 15.4-61.4 7.6-33.1-3.1-83-1.4-90.6 0.9-4.2 6.2-3.6 7.6-0.1z"  fill="#fff500" /><path d="M439.5-80.9c11.3 42.4 8.9 83.6-4.4 125.2-2.4 7.7-7.1 36.2-17.3 35.6-10.4-0.6-5.6-17.2 3.5-12.3 9.1 4.9-2.1 18-8.3 9.7-7.2-9.6 15.9-55.3 18.8-67.5 7.4-30.9-1.6-84.8-0.1-90.8 1.1-4.3 6.5-3.6 7.8 0.1z"  fill="#fff500" /><path d="M449.6-319c22.8 84.8 35.8 268.7 6 350.7-4 11-10.8 41.8-20.7 47.7-7.9 4.7-14.6-8.2-6.3-11.9 9.8-4.4 13.5 13 2.8 12.9-16-0.1 4.1-34.2 6.3-39.7 15.6-37.8 25-75.9 25.1-117 0.2-74.8-1.7-156.4-18.2-229.5-0.7-2.9 0-26.1 5-13.2z"  fill="#c2e1ff" /><path d="M460.7-68.3c2.6 25.9-8.9 133.7-30.8 147.1-9 5.6-14.9-11-4.3-12.3 10.5-1.3 8.8 16.3-1.2 13-12.7-4.1 8.8-42.1 11.6-50 16.8-46.7 8.6-59 15.3-98.3 1-5.7 8.4-4.6 9.4 0.5z"  fill="#fff" /><path d="M471-149.2c2.6 69.5 5.3 132-21.4 197.7-2.9 7.1-8.4 32.6-18.4 31.4-12.5-1.5-2.1-20.7 6-11 6.9 8.3-9 16.5-11.8 6.1-2.1-8 27.2-72.2 30.9-87.3 12.7-52-1.4-106 5-137.7 1.2-5.9 8.9-4.5 9.7 0.8z"  fill="#fff500" /><path d="M482.6 28.1c-4.3 9.1-22.2 57.9-34 51.3-8.4-4.7-0.3-17.5 7.6-11.9 7.8 5.6-1.6 17.4-8.8 11.1-7.5-6.7 19.8-61.4 29.5-60.6 5.3 0.5 7.2 5.6 5.7 10.1z"  fill="#fff" /><path d="M492-144.3c-8.8 70.7-12.2 135.5-41.2 201.7-2.6 6-5.4 18.9-11.3 22.1-9.4 5.4-14.8-11.9-3.9-12.7 10.8-0.9 8.4 17-1.8 13.2-10.7-3.9 26.7-83.8 30.1-96.6 10-37.4 6.9-102.6 17.3-130.4 2.4-6.4 10.8-3.5 10.8 2.7z"  fill="#fff500" /><path d="M502.9-7.2c-5.5 12.4-38.7 93.9-51.2 86.8-8.4-4.8-0.1-17.6 7.7-11.9 7.8 5.7-1.8 17.5-8.9 11-8.3-7.5 33-83.2 40.7-93 5.2-6.7 14-0.1 11.7 7.1z"  fill="#c2e1ff" /><path d="M513.2 44.7c-4.5 7.8-15.7 38.1-26.4 35.7-11.2-2.6-3-19.9 6.1-12.8 7.8 6.1-2.4 17.8-9.5 10.9-7.2-7 12.8-39.6 19.4-43.7 6.9-4.4 13.1 3.5 10.4 9.9z"  fill="#fff500" /><path d="M521.4-283.6c9.5 57.6-23.3 206.4-39.2 266.5-3.7 14.1-27.7 99.4-43.6 97.1-10.8-1.6-4.4-18.6 4.8-12.6 10.7 7-7.5 19.9-10.5 7.4-2.4-10.3 31.9-62.9 45.3-128.9 11.4-56.2 35.2-139.6 36.3-193.7 0.2-11.5-3.2-24.3-2-35.7 0.6-5.4 7.6-4.8 8.9-0.1z"  fill="#005bbb" /><path d="M533.5 48.5c-4.1 7.4-12.5 34.2-22.8 32.2-9.5-1.8-5.8-16.6 3.5-13.8 10.8 3.3 1.5 19.6-6.9 12.1-7.4-6.7 11.8-44.9 22.5-40.8 4.4 1.7 5.3 6.2 3.7 10.3z"  fill="#fff500" /><path d="M592.3-399.4c1.9 5.2 15.5 34.8 7.2 36.6-5.2 1.1-6.5-7.2-1.3-7.7 5.3-0.6 5.7 7.8 0.4 7.8-5.6 0-14.1-30.9-13.3-36.1 0.6-3.9 5.4-3.7 7-0.6z"  fill="#c2e1ff" /><path d="M551.2-333.1c12.2 39.5 20.5 83.3 15.7 124.6-4.8 42.1-54 146.5-71.7 194.6-5.1 13.8-33.1 96.7-48.1 94.1-11-1.9-3.9-19 5.2-12.7 10.7 7.4-8.2 20-10.9 7.2-1.7-8.3 27.7-60.5 32.8-72.3 14.1-32.9 24-67.4 37.3-100.5 10.4-25.8 24-50.2 34-76.2 29.8-76.8 0.1-104.3-1.9-157.6-0.2-4.7 5.9-5 7.6-1.2z"  fill="#fff" /><path d=""  fill="#005bbb" /><path d="M574.2-125.4c-14 26.1-30.7 50.8-44.5 77.1-21.6 41.4-39.8 84.7-63.6 124.9-2.1 3.5-6.3 5-9.9 2.9-8.4-4.9 0-17.7 7.8-11.9 9.1 6.7-5.1 19.1-10.5 9.2-6.2-11.4 24.1-52.3 29.7-63.2 25.3-49.3 48.2-99.4 78.2-146.2 5.2-8.1 16.3-1.4 12.8 7.2z"  fill="#fff" /><path d="M598.3-399.4c1.2 3.5 8.1 15.5 1.2 17.1-5.1 1.2-6.5-6.9-1.4-7.5 5.2-0.7 5.8 7.5 0.5 7.6-13.5 0.2-5.6-28.4-0.3-17.2z"  fill="#fff" /><path d=""  fill="#c2e1ff" /><path d=""  fill="#fff" /><path d="M604.7-140.5c-16.7 47.8-52.3 88.9-77.3 132.6-6.6 11.6-46.2 94.9-58 87.7-7.2-4.4-1.8-15.8 6.1-13 9.3 3.2 3.4 17.6-5.4 13.4-12.8-6 12.8-39 16.8-46 27.2-47.8 55.4-94.2 84.5-140.7 5.2-8.3 16.2-40.8 25.6-43 5.6-1.3 9 4.1 7.7 9z"  fill="#fff" /><path d=""  fill="#005bbb" /><path d="M604.9 1.8c-8 18.9-20.7 74.2-28.3 77.3-8.8 3.6-11.5-11.9-1.9-11.5 9.5 0.4 5.4 15.6-3.1 11.3-10.4-5.4 14-77.7 22.6-84.9 5.8-4.8 12.4 1.5 10.7 7.8z"  fill="#fff" /><path d="M604.6 38.3c-2 7.5-3.5 39.3-11.8 40.5-8.8 1.4-7.8-13.3 0.7-10.8 7.3 2.1 3.4 13.4-3.7 10.5-8.2-3.3-1.3-49 9.5-47.8 3.9 0.5 5.7 4 5.3 7.6z"  fill="#c2e1ff" /><path d=""  fill="#005bbb" /><path d=""  fill="#c2e1ff" /><path d=""  fill="#005bbb" /><path d=""  fill="#fff" /><path d=""  fill="#005bbb" /></svg>