<svg width="1200" height="675" viewBox="-500 -500 1200 675" xmlns="http://www.w3.org/2000/svg"><path d="M-500-500h1200v675h-1200z" fill="#000"/><path d=""  fill="#fff" /><path d=""  fill="#fff500" /><path d=""  fill="#fff" /><path d=""  fill="#fff" /><path d=""  fill="#fff" /><path d=""  fill="#fff" /><path d=""  fill="#fff500" /><path d=""  fill="#c2e1ff" /><path d=""  fill="#c2e1ff" /><path d=""  fill="#c2e1ff" /><path d=""  fill="#c2e1ff" /><path d=""  fill="#c2e1ff" /><path d="M-386.4-30.7c-7.9 26.5-7 53.9 0.8 80.3 1 3.4 12.5 26.4 5.4 26.5-4.7 0.1-3.2-7.5 1.1-5.6 4.3 1.9-0.3 8.2-3.4 4.7-18.3-20.7-27-85.3-14.1-109.8 3.1-6 11-2 10.2 3.9z"  fill="#c2e1ff" /><path d=""  fill="#fff" /><path d=""  fill="#fff500" /><path d="M-359.1-242.6c-34.4 77.6-35.2 135.5-36.9 224.9-0.1 3.3 4.1 86.8 1.1 92.2-2.3 4.2-7.6-2.3-3-3.8 3.9-1.2 4.5 5.6 0.5 5.1-5.4-0.7-3.4-19-3.4-20.6-1-59.5 1.1 32.7-0.4-72.9-0.6-40.6-1.9-81.2-2.2-121.9-0.1-16.3 24.3-96.1 33.9-109 4.4-6 12.3-0.4 10.4 6z"  fill="#fff" /><path d="M-350-27.2c-11.8 21.6-17.5 45.5-15.2 70.1 0.5 5.1 9.6 34.6 2.2 34-5.3-0.5-2.6-9 2-6.3 4 2.3 0 8.4-3.7 5.6-16.9-12.4-8.8-94.9 4.2-110.3 5-5.9 12.8 0.4 10.5 6.9z"  fill="#fff" /><path d=""  fill="#fff" /><path d="M-331.9-364.5c-15 25.1-32.6 48.6-47.8 73.7-3.5 5.8-12.6 32.3-22.1 26.9-7.4-4.2-0.2-15.6 6.7-10.6 6.9 5-1.5 15.5-7.8 9.8-10.7-9.6 50.2-97.7 60.7-108 5.8-5.7 13.3 1.7 10.3 8.2z"  fill="#fff" /><path d="M-323.8 56.2c-0.5 4.8 3 21.6-4.7 21.6-5.8 0-5.3-9.1 0.4-8.5 4.9 0.5 4.9 7.9 0 8.5-8.1 0.9-6.9-20.3-4.6-24.2 2.6-4.5 8.5-1.9 8.9 2.6z"  fill="#c2e1ff" /><path d="M-314.9 66.1c-0.2 2.2-2.7 19.4-8.6 9.6-2.7-4.5 3.5-9.2 7.1-5.3 3.6 3.8-1.5 9.7-5.8 6.7-10.8-7.4 6.2-23.4 7.3-11z"  fill="#fff500" /><path d=""  fill="#005bbb" /><path d="M-296.4 60.8c-0.8 3.9-0.5 21.2-9 16.9-5-2.5-2.1-10.4 3.3-9 5.4 1.4 4.2 9.7-1.3 9.5-8.1-0.3-5.1-17.6-2.3-21.3 3.5-4.6 9.5-1 9.3 3.9z"  fill="#c2e1ff" /><path d="M-288-211.1c0.2 33.7 7.5 67.7-0.1 101.1-10.5 46.1-51.1 76.1-63.6 121.1-4.2 15.1-4.8 30.9-2.8 46.4 0.4 3 6.6 20.3-1.3 19.2-4.8-0.7-3.3-8.2 1.4-7 4.7 1.2 2.4 8.5-2.1 6.8-5.9-2.2-6.2-20.9-6.9-26-8.5-66.4 41.3-99.6 62.1-155.9 15.1-40.6-2.7-73.7 4.5-106.5 1.2-5.3 8.1-3.9 8.8 0.8z"  fill="#fff" /><path d="M-277.8-0.4c-10.6 16-20.4 32.7-25.2 51.4-1.2 4.7-1.1 31-10.3 26.9-5.8-2.6-1.2-11.5 4.3-8.2 4.7 2.7 1.3 10.1-3.8 8.4-17.8-5.8 15.9-78.7 24.7-87 6-5.7 13.5 1.9 10.3 8.5z"  fill="#c2e1ff" /><path d="M-268.8 17c-7.5 13.6-19 58.7-23.7 61.1-7 3.6-10.3-9.1-2.5-9.4 7.9-0.3 5.5 12.6-1.7 9.6-12.6-5.3 11-61.2 17.5-68.6 5.2-5.9 12.9 0.7 10.4 7.3z"  fill="#c2e1ff" /><path d="M-260.2-296.9c-18.8 86.2 19.3 136.7 9.8 207-7.1 52.3-53.3 83.8-65.8 133.4-1.6 6.3-0.6 32-6.5 33.8-5.7 1.7-7.9-7.4-2.1-8.5 6.8-1.3 6.5 10.2-0.2 8.5-7.7-1.9-3.3-22.3-2.7-27.7 6-54 54.1-86.3 66.2-137.4 12.3-52-14.4-103.3-15-155.2-0.2-16.7-1-41.9 6.3-57.3 2.8-5.9 10.4-2.4 10 3.4z"  fill="#c2e1ff" /><path d="M-251-358.5c-12 43-27.5 86.7-28.1 131.8-0.5 42.1 14.5 84.2 5.2 126.1-10.3 46.5-52.2 75.3-65.6 120.1-3.7 12.5-5 25.5-4.3 38.4 0.2 3.2 5.3 21-2.9 19.3-5.1-1.1-3-9 2-7.4 4.9 1.6 2 9.2-2.8 7.1-6.5-2.9-5.3-25-5.4-30.8-1.4-62.6 52.1-94.1 68.3-149.4 15.2-51.8-8.6-107.3-1.3-160.5 4-29.3 10-73 24.7-98.9 3.4-5.9 11.1-1.7 10.2 4.2z"  fill="#fff" /><path d="M-241.9-394.3c-16.3 51.9-37.1 107.8-40 162.4-2.3 43.4 12.9 87.2 2.3 130.2-11.8 48.1-57.4 78.7-66.8 127.6-0.8 4 0.3 16-6.8 15.1-6.4-0.8-4.6-10.7 1.6-9.3 6.3 1.4 3.4 11.2-2.6 9.1-7.2-2.5-1.9-20.1-0.9-24.9 9.7-49.4 55.1-79.8 66.8-128 12.4-51.2-8.3-104.8 0.8-157.2 5-28.9 21.4-106.4 35.3-129.6 3.6-6 11.4-1.5 10.3 4.6z"  fill="#fff" /><path d="M-233.2-338.1c-15.7 88.3 2.5 138.9 37 219 15 34.7 28.7 69.9 44.6 104.1 5.8 12.5 39.4 81.2 35.8 89.9-2.1 5.2-9.7-0.1-5.6-3.9 4.1-3.8 8.8 4.2 3.5 5.9-3.6 1.2-26.4-63.1-30.2-71.2-30.7-66.5-90.6-183.5-99.8-252.8-3.6-26.7-6.1-68.7 4.8-94 2.5-5.8 10.1-2.7 9.9 3z"  fill="#005bbb" /><path d="M-224.1-381.8c-34.2 146-0.7 195.1 55.8 325.5 4.6 10.7 50.5 105 44.4 106.9-4.8 1.5-5.5-6.8-0.5-6.2 5 0.7 2.1 8.5-2.1 5.8-9.4-6-17.9-41.8-23.1-52.6-32.1-67.3-91.8-181.3-98.7-253.1-3-31.7 0-101.4 14.2-129.9 2.9-5.9 10.6-2.2 10 3.6z"  fill="#fff" /><path d="M-217.6-183.2c10.3 25.4 130.4 251.2 114.9 259.7-5.1 2.8-7.8-6.5-2-6.9 6.8-0.4 3.1 10.8-2.1 6.5-2.8-2.3-21.4-62.1-26.3-72.2-28.9-59.6-60.7-117.7-87.2-178.4-1.3-3-1.8-16.6 2.7-8.7z"  fill="#c2e1ff" /><path d="M-206.5 9.3c-0.6 8.8-1.5 70.1-10.6 69-6.4-0.8-4.6-10.9 1.7-9.4 6.3 1.5 3.4 11.3-2.7 9.2-6.7-2.4-1.4-64.8 2.8-71.6 2.8-4.5 8.6-1.7 8.8 2.8z"  fill="#c2e1ff" /><path d="M-199.8-159.2c11 22.6 128.5 225.7 107.1 236.3-6.3 3.1-7.3-9.1-0.6-7.1 5.8 1.8 0.8 10.5-3.7 6.5-3-2.7-20-65.5-25.3-76.7-24.8-52.4-55.4-102.2-81.2-154.2-1.8-3.6 0.5-9.7 3.7-4.8z"  fill="#005bbb" /><path d="M-190-73c7.3 24 45.4 130.3 44.1 146.7-0.4 5.6-9.4 2.9-6.6-2 3.2-5.8 10.5 3.2 4.1 5.1-3 0.9-47.5-133.3-48.2-148.6-0.2-4.1 5.1-4.5 6.6-1.2z"  fill="#005bbb" /><path d="M-179.6-381c-1.2 41 5.4 82.2 17 121.5 25.7 87.1 73.9 165.7 91.2 255.5 1.6 8.4 14.2 60.9 5.2 64.1-6.3 2.3-7.7-8.8-1.1-8.2 7.9 0.7 1.7 12.9-3.5 7-3.8-4.3-14.4-92.9-18.9-108.4-24.4-85.9-72.5-163.5-90.7-251.5-4.7-22.9-14.2-58.1-8.2-81.1 1.4-5.4 8.4-3.8 9 1.1z"  fill="#fff" /><path d="M-172.3-223.1c23.4 64.5 61.9 122.3 84.4 187.2 4.3 12.5 33.6 108.3 18.9 113.4-6.4 2.2-7.7-9-1-8.3 7.9 0.8 1.5 13.1-3.7 7-3-3.5-12.6-86.6-21.7-113.8-21.1-63-57.3-119.2-81.7-180.8-1.7-4.3 1.9-10.3 4.8-4.7z"  fill="#005bbb" /><path d="M-164-127.2c72.7 129.4 98.5 197.9 83.9 204-6.9 2.9-7.2-10.2-0.1-7.5 6 2.3 0.2 11.2-4.4 6.6-3.4-3.5-15.6-68.1-20.3-80.3-16.2-41.4-40.3-79.4-62.1-118-1.8-3.2-0.2-9.3 3-4.8z"  fill="#005bbb" /><path d=""  fill="#fff" /><path d="M-145.8-41.2c6.5 12.2 62.2 110 47.1 117.9-5.2 2.7-7.8-6.7-1.9-7 5.9-0.3 4.3 9.3-1.2 7.1-6.3-2.5-10.2-33.5-12.7-40.3-9.4-26.4-23.3-50.4-35.9-75.3-1.6-3.1 2.7-5.1 4.6-2.4z"  fill="#fff500" /><path d="M-136.5-162.2c31 66.7 60.9 132.2 69.6 206.1 0.7 5.9 6.9 31.6-0.4 33.9-7.6 2.5-6.8-11.5 0.5-8 6.2 2.9-0.7 12-5.2 6.7-3.6-4.3-11.2-84.5-14.9-98.9-12.2-47.1-33-91.1-53.6-134.9-1.7-3.7 0.8-9.9 4-4.9z"  fill="#fff500" /><path d="M-126.9 59c1.2 3.5 7.4 14.7 2.7 17.6-4.7 2.8-7.7-5.8-2.2-6.5 4.7-0.5 5.1 6.9 0.4 7-12 0-5.7-28.5-0.9-18.1z"  fill="#fff500" /><path d=""  fill="#c2e1ff" /><path d=""  fill="#005bbb" /><path d="M-101.1-306.2c18.6 28.1 37.8 55.9 48 88.3 19.7 62.9 4.6 215 2.6 287.8-0.3 12-12 7.6-8.9 1.6 4.6-9.1 14.4 6.6 4.2 6.8-9.7 0.2 3.2-223.5 2.2-247.1-2-50.6-22.8-91.3-50.4-132.7-1.8-2.6-1.1-8.7 2.3-4.7z"  fill="#fff" /><path d=""  fill="#fff" /><path d="M-83.1-286.2c56.1 81.8 42.1 149.4 36.9 242.2-2.2 39.2-1 78.7-3.9 117.8-0.7 8.8-14 2.4-7.9-3.5 6.2-6.1 12 7.9 3.3 8-11.3 0.2 5.8-213.2 6.2-235.8 0.6-33.7-5-66.1-20.4-96.2-5.4-10.5-22-41.5-14.2-32.5z"  fill="#fff" /><path d="M-72.1 25.4c1.2 6.8 11.3 52.4 1.6 52.5-5.8 0-5.4-9.1 0.4-8.6 5.8 0.6 4.4 9.7-1.3 8.5-6.3-1.4-4.1-16.1-4.5-20.4-0.9-10-4.7-21.8-3.9-31.7 0.4-4.7 6.5-4.3 7.7-0.3z"  fill="#fff500" /><path d="M-66.2-382.8c68.1 58.5 148.9 91.8 126.9 204-10.4 53.1-50.1 92.8-72 141-3.2 7.1-12.5 46.9-21.4 44.1-6.1-1.9-4.2-11.3 2.2-10.7 6.4 0.6 6.5 10.1 0.2 10.9-12.9 1.6-0.7-25.7 0.6-29.8 22.9-68.8 89-123.6 83.7-200.5-4.9-71.7-55.9-109.8-109.6-148.3-1.4-1-14.7-13.3-10.6-10.7z"  fill="#c2e1ff" /><path d="M8.7-399.6c78.1 71 112.6 188.9 50.1 281-6 8.9-27.4 46.6-38.8 45.8-8.2-0.5-8.8-12.7-0.6-14 9.5-1.5 11 13.6 1.4 14-20.7 1 20.6-45.3 24.4-50.5 24.5-33.6 39.9-70.8 37.8-112.9-2.5-50.1-22.1-100.9-54.7-139.1-9.5-11.2-23.9-27.5-19.6-24.3z"  fill="#fff500" /><path d="M-44.9-192.5c10.5 62.6-2.1 130.4-3.9 193.6-0.3 9.4 2.3 78-6.7 77.2-7.4-0.7-3.7-12.4 2.8-8.7 6.4 3.7-1.9 12.8-6.2 6.7-4.5-6.4 1.2-89.8 1.7-103.9 1.4-40.4 5.1-80.8 6.1-121.2 0.3-14.1-3.2-29.8-1.7-43.6 0.5-4.8 6.8-4.3 7.9-0.1z"  fill="#fff" /><path d="M-19.6-399.3c72.3 54.8 129.9 142.2 96.2 236.5-16.2 45.6-52.3 79-76.4 119.9-2.8 4.7-10.2 26.9-18.9 17.6-4.2-4.5 0.4-11.9 6.3-10.2 6.9 2 5.1 12.6-2.1 12.2-14.2-0.9 2.8-25.2 5.4-29.7 32.5-56.9 86.1-100.7 85.8-171.3-0.2-48.7-20-98.7-52.7-134.6-12.8-14-27.5-25.8-42.6-37.3-0.2-0.1-4-4.9-1-3.1z"  fill="#c2e1ff" /><path d="M-25.5-32.6c-7.7 26.6-11.8 54.1-14.5 81.6-0.5 5.4 1.4 30.3-7.8 29.1-6.5-0.9-4.5-11.1 1.9-9.5 6.4 1.6 3.3 11.6-2.9 9.2-11.6-4.3 6.8-103 13.1-114.5 3.3-5.9 11.1-1.8 10.2 4.1z"  fill="#fff" /><path d="M-16.9-161.5c-5 58.7-22.6 115.5-27 174.7-0.6 8.5 0.4 65.8-8.6 64.8-6.4-0.7-4.7-10.7 1.5-9.3 5.4 1.2 4.5 9.4-1 9.3-9.7 0-2.8-42.4-2.4-49.3 1.5-26.8 18.3-178.4 28.5-193.5 3-4.5 8.9-1.4 9 3.3z"  fill="#c2e1ff" /><path d=""  fill="#005bbb" /><path d="M0.1-214.6c13.8 66.9-26.8 136.3-37 201.7-1.7 10.9-6.3 92.1-13.6 91.1-7.5-0.9-3.3-12.8 3.1-8.8 7.6 4.7-4.9 13.9-7.2 5.3-9-34.6 19.6-151.5 31.2-188.3 6.7-21.5 13.8-43.1 16.2-65.6 1.1-10.3-3.4-26.8-0.2-36.1 1.4-4 6.5-2.9 7.5 0.7z"  fill="#005bbb" /><path d="M11 36.1c-4.6 7.8-13.2 40.5-21 42.8-8.7 2.6-9.7-12.4-0.8-11.1 8.9 1.3 3.6 15.3-3.9 10.4-8.2-5.4 10.7-52.9 20.8-51.6 4.8 0.6 6.4 5.4 4.9 9.5z"  fill="#005bbb" /><path d="M17.6-234.9c24.3 74.6-30.9 143.9-47.5 214.1-2.7 11.5-12.1 99.9-18.4 99-7.6-1.1-3.2-13 3.3-8.9 6.5 4.2-2.6 13.2-6.7 6.7-3.6-5.7 0.7-20.1 1.2-26.4 6.1-69.6 28-127 52.5-191.5 7-18.4 12.2-37.5 12.7-57.3 0.3-10.5-5.9-26-3.8-35.6 0.8-3.7 5.4-3.2 6.7-0.1z"  fill="#005bbb" /><path d="M26.1-253.1c11.1 25.2 14 53.5 9 80.6-11.2 59.8-52.1 109.6-65.5 169.4-2.3 10.1-9 82.2-16.4 81.1-7.7-1.1-3.1-13.2 3.4-8.9 6.5 4.3-2.7 13.2-6.8 6.7-5.2-8.3 2.4-35 3.6-44.7 8.8-71.4 39.2-118.8 64.1-183.4 7.5-19.5 12-40.2 10.8-61.2-0.7-11.8-9.3-28-8-38.9 0.4-3.3 4.5-3.3 5.8-0.7z"  fill="#c2e1ff" /><path d="M36.3-220.5c12.7 75.7-47.6 139.9-64.9 210.3-3.1 12.7-9.9 82.5-13.8 86.7-6.2 6.7-13-7.6-3.9-8.2 7.7-0.5 5.8 12.2-1.4 9.4-7.1-2.7-1.6-20.5-1.2-25.7 8-80.6 32.7-124.5 63.6-196.3 12.8-29.8 9.9-66.7 13.9-77.1 1.6-4.1 6.8-2.7 7.7 0.9z"  fill="#005bbb" /><path d="M46.8-75.9c-28.3 29.9-53 60.8-65.8 100.6-2.4 7.4-10 58.8-19.1 53.3-6-3.6 0.2-12.7 5.8-8.5 4.8 3.6 0.1 11.3-5.3 8.8-9.6-4.4 5.5-48.8 7.8-56.9 10.3-35.9 34.3-87.3 67.1-108.6 7.6-5 14.2 4.8 9.5 11.3z"  fill="#fff500" /><path d="M55.9-100.4c-30.5 37.3-61.9 71.1-76.6 118.1-2.6 8.3-11.3 65-19.7 60.2-5.1-3-1.5-11 4.1-9.3 6.6 2.1 2.7 12.3-3.6 9.5-9.5-4.2 5.1-51.1 7.3-59.6 10.8-40.8 43.9-103.8 78.7-129.3 7.1-5.2 14 3.9 9.8 10.4z"  fill="#fff" /><path d="M61.8-391.2c37.3 71.4 61.9 168.9 23.1 244.3-24.8 48.3-69.5 82.6-93.3 131.5-3.4 7-13.1 46.6-21.9 43.7-6.1-2-4.1-11.3 2.2-10.7 7.4 0.7 5.7 12.4-1.7 10.8-10.8-2.2 2-28.4 4-33.7 25.6-70.7 96.5-114.3 115.7-187.4 15.9-60.2-3-131.2-28.2-186.2-0.4-1-5.7-21 0.1-12.3z"  fill="#fff" /><path d="M74.1 59.5c-3.5 5.2-10.1 24.8-19 19.5-6.4-3.8-1.8-13.8 5.2-11.5 8.2 2.7 3.2 15.4-4.6 11.8-9.7-4.4 4-26 9.3-29.1 6.4-3.8 11.8 3.5 9.1 9.3z"  fill="#c2e1ff" /><path d="M94.4-399.4c30.4 138.7 44.7 211.5-55.3 323.9-6.3 7.1-29.4 43.6-38.6 40.6-7.5-2.5-5-14 2.9-13.2 9.2 1 6.9 15.4-2.2 13.4-8.8-1.9-4.2-10.5-1.2-14.9 33.7-49.8 84.5-86.7 101-147.1 16.9-61.9 0.5-133.2-12.4-194.5-0.9-4.3 2.4-18.1 5.8-8.2z"  fill="#fff" /><path d="M92.1 68.8c-1.9 3.6-14 19.3-15.4 5.1-1.6-16.1 23.4 1.2 7.8 5.4-11.8 3.1-6.3-13.3-2.9-17.4 5-5.9 12.8 0.5 10.5 6.9z"  fill="#fff" /><path d="M100.5-74.8c-35.5 28.3-74.5 55.8-97.2 96.2-4.6 8.1-21.3 61.7-28.8 56.3-5.1-3.7-0.5-11.9 5.3-9.4 6.8 2.9 1.6 13.4-4.8 9.7-10.3-5.9 11.3-50.7 15.2-58.8 16.7-34.9 66.3-91 101.9-107.5 8.9-4.1 14.4 7.3 8.4 13.5z"  fill="#005bbb" /><path d="M114.5-399.1c13.3 135.4 31.1 212.6-68.4 320.6-6.2 6.7-26.9 37.9-36.3 34-7.6-3.1-4.2-14.9 4-13.4 9.5 1.7 6 16.4-3.2 13.7-4.7-1.4-6.6-7.2-3.6-11.1 35.5-45.9 82.9-83 100.4-140.6 19.7-64.8 3.1-136.4-1.2-202.4-0.4-5.5 7.1-5.9 8.3-0.8z"  fill="#c2e1ff" /><path d="M119-128.3c-37.7 46-92 79-120.9 131.9-9.5 17.4-15.9 36.2-20.4 55.4-1 4.2-2.1 24.8-11.3 18.9-5.1-3.3-1.1-11.5 4.6-9.3 6.7 2.5 2.2 12.8-4.1 9.6-7-3.5 0.1-20.4 1.2-25.6 19.1-84.1 83-131.1 139.9-190.3 6.6-6.9 16.1 1.8 11 9.4z"  fill="#c2e1ff" /><path d="M126.9-333.2c3.6 67.3 8 135.2-29.6 194.7-37 58.5-96.3 96.7-117.4 165.6-2.7 8.9-5.7 47.5-13.4 51.1-7.4 3.4-10.3-9.8-2.1-9.8 8.2 0 5.2 13.2-2.2 9.8-7.1-3.3-0.4-20.8 0.6-26.2 21.4-113.5 92.6-132.9 137.1-221.6 17.5-35 21.2-73.3 20.5-111.9-0.2-13.4-7.2-41.4-1.8-53.3 2-4.3 7.5-2.5 8.3 1.6z"  fill="#005bbb" /><path d="M137 0.3c-15.7 15.5-30.1 32.5-42.4 50.8-4.2 6.3-12.1 27.7-19.8 28.7-9.9 1.4-8.5-15.1 1-12.2 9.5 2.9 1.4 17.3-6 10.7-12.6-11.3 46.1-82.4 57.8-89.7 7.8-4.9 14.3 5.2 9.4 11.7z"  fill="#fff" /><path d="M145.1-369c0.7 71.8 5.9 150.8-30.4 215.6-28.2 50.4-76.9 83.3-108.7 130.7-5.7 8.5-27.9 65.8-34.2 63.8-8.3-2.7-0.9-15.2 5.5-9.3 6.4 6-5.5 14.2-8.8 6.1-2.4-5.9 3.5-17.1 5.2-22.5 25.7-78.1 101-117.9 137.2-189.1 40.9-80.5 13.5-147.2 25.3-196.3 1.3-5.3 8.2-3.8 8.9 1z"  fill="#c2e1ff" /><path d="M155.3 20.9c-10.1 13.8-26.5 56.6-33.7 58.5-8.9 2.3-9.5-13-0.4-11.4 9.1 1.7 3.2 15.8-4.4 10.5-9.5-6.7 21.5-68.4 32.8-68.4 5.9 0 8.1 6.2 5.7 10.8z"  fill="#c2e1ff" /><path d="M164.1-147.1c-46.8 54-115.3 90.6-155.3 150-11 16.4-18.9 34.5-24.4 53.4-1.3 4.4-3.6 28.3-13.1 21.7-5.1-3.5-0.7-11.8 5.1-9.4 6.8 2.8 1.8 13.2-4.6 9.7-6.9-3.8 0.6-20 1.9-25 7.6-28.5 19.8-55.1 38.4-78.2 39.9-49.4 96.4-83.1 139.2-130 7-7.6 19.4-1.9 12.8 7.8z"  fill="#005bbb" /><path d="M173.4 30.2c-5.2 8.6-15.7 46.1-24 48.6-8.5 2.7-9.8-12.2-0.9-11 8.9 1.2 3.8 15.1-3.8 10.4-8.9-5.7 13.3-59.2 23.9-57.7 4.8 0.7 6.4 5.6 4.8 9.7z"  fill="#005bbb" /><path d=""  fill="#005bbb" /><path d="M191.2 67.8c-1.1 3.2-10.1 20.6-13.4 7.3-3.6-14.2 21.2-2 7.7 3.8-10.6 4.6-7.1-12-4.7-15.9 3.7-6 11.5-1.3 10.4 4.8z"  fill="#fff" /><path d="M199.9-30.1c-25.8 22-49 47.2-65.6 76.8-3.2 5.6-13.7 39.8-23.1 31.3-5.1-4.6 0.9-12.8 6.8-9.4 6.9 4 0.1 14.5-6.3 9.8-8-5.8 6.4-28 9.4-34.1 16.1-32.4 40.2-63.4 68.5-86.2 8-6.5 16.9 4.4 10.3 11.8z"  fill="#fff500" /><path d="M207.8-338.4c23.4 190.8-132.2 232.2-201.2 337.4-5.3 8.1-15.9 42.9-24 45.3-8.8 2.5-9.7-12.6-0.6-11.2 9 1.4 3.5 15.5-4.1 10.4-9.2-6.2 9.7-37.5 13.3-44.2 37.9-70.5 116.3-109.6 162.8-174.4 21.4-29.8 38.5-63.7 44.6-100.2 3.5-21.1-1.7-42.8 1.1-63.3 0.7-5 7.1-4.2 8.1 0.2z"  fill="#fff500" /><path d="M218-150.4c-59.9 58.2-142.1 95.1-194.8 160.4-11.8 14.7-31.9 67.4-36.9 69-9.9 3.2-8.7-14.9 0.7-10.3 8 3.8-1.1 15.5-6.7 8.6-8.5-10.3 16.7-52.5 22.4-62 37.6-62.1 109.9-100.7 165.8-144.4 13.1-10.2 26.1-25.6 40.5-33.6 8.2-4.6 14.3 5.9 9 12.3z"  fill="#005bbb" /><path d="M226.7-278.5c-7.8 118.3-124.1 178.7-196.8 255.2-19.1 20.1-33.5 43.4-42.4 69.6-1.9 5.6-6.2 38.7-16.3 31.9-7-4.8 3.3-14.5 7.6-7.2 3.7 6.3-6.5 11.6-9.5 5-4-8.8 6.8-32.3 9.9-41.1 28.4-82.8 111.3-124.7 168.1-185.8 22.3-24 43.1-50.6 56.4-80.7 6.3-14.1 6.1-38.2 14.1-50.1 3-4.5 8.8-1.4 8.9 3.2z"  fill="#fff" /><path d="M255.1-399.6c65.3 126.3 49.1 217.4-68.6 299.6-10.9 7.6-51.5 44.8-64.1 40.1-14.3-5.4 3.6-25 10.3-11.3 6.7 13.8-19.9 15.7-15.2 1.1 4.2-13.4 38.2-28.7 49.6-36.5 39.6-27.3 82.4-54.9 102.5-100.6 19.4-43.8 17.2-94.5 2.4-139.3-0.5-1.5-27.8-69.3-16.9-53.1z"  fill="#fff500" /><path d="M245.2-42.6c-26.3 25.7-52 51.6-68.7 85-2.9 5.9-12.4 43-21.9 35.6-6-4.7 1.9-13.7 7.4-8.4 5.4 5.3-3.4 13.4-8.2 7.6-10.9-13.3 60.6-119 82.2-131.7 8-4.7 14.3 5.5 9.2 11.9z"  fill="#fff" /><path d="M254.1-132.5c-55.1 56.4-132.2 88.2-189.8 142.6-15.2 14.4-29.1 30.2-39.5 48.4-2.7 4.6-9.9 28-18.7 19.2-5-5 1.7-13.2 7.6-9.4 6.9 4.5-0.7 15-7.2 9.8-16.7-13.5 46.3-78.4 56.2-87.5 53.9-49.7 121.4-81.2 175.9-129.6 7.8-6.9 25.6-5.8 15.5 6.5z"  fill="#c2e1ff" /><path d="M263.4-220.8c-32.5 94-147.1 141.6-216.4 204.6-20.4 18.6-37.4 40-48.4 65.6-2.2 5.2-8.3 36.4-18 28.8-6-4.7 1.9-13.7 7.3-8.5 5.5 5.3-3.3 13.4-8.2 7.6-5.3-6.3 5.4-26.1 7.8-32.5 32.3-83.5 123.3-128.8 189.7-182.3 19.4-15.7 38.7-32.1 54.1-51.9 8.1-10.3 13.4-30.2 22.7-38.1 5-4.3 10.8 1.2 9.4 6.7z"  fill="#fff500" /><path d="M269.5-382.2c37.1 76.3 43.4 174.2-19.1 239.6-28.2 29.6-64.8 50.6-98.4 73.5-9.8 6.7-72 51.3-75.1 50.4-10.4-3.2-4.4-19.3 5.6-15 10 4.3 2.3 19.7-7.2 14.3-9.7-5.6-0.3-13.8 4.7-17.8 57.2-45.1 148.9-86.3 186.1-149.2 24.9-42.1 27.6-94.9 16.5-141.7-0.5-2.2-24.1-71.6-13.1-54.1z"  fill="#c2e1ff" /><path d="M312.3-399.3c32.3 97.9 33.3 237.5-26.6 325.2-5.3 7.7-21.7 36.5-32.4 35.1-13.5-1.7-2-22.4 6.6-11.9 7.4 9-9.8 17.7-12.7 6.5-2.9-11.1 33.6-46.2 40.1-57.4 14.7-25.2 23.4-53.2 28.4-81.8 11.7-65.8 10.5-138.4-6.8-203.2-0.5-1.9-1.6-23.6 3.4-12.5z"  fill="#fff" /><path d="M289.1-293.3c16.4 142.4-122.9 197.4-216 271.7-16.4 13.1-32.2 27.1-45.3 43.6-4.5 5.6-12.4 24.5-19.9 25.2-10.2 1-8.1-15.8 1.5-12.5 9.6 3.4 0.7 17.8-6.6 10.7-29.6-28.8 204.1-181.8 225.8-201.7 23.2-21.4 40.1-47.8 47.7-78.6 4.9-19.8 1.4-39.3 4.6-58.8 0.8-5 7.3-4.1 8.2 0.4z"  fill="#c2e1ff" /><path d="M322.6-399c24.5 100.1 25.3 229.6-16.4 325.2-4.7 10.7-15.3 42.9-26.5 47.5-8.3 3.4-12.9-10-4.3-12.5 10.1-2.9 11.1 14.5 0.8 12.9-15-2.4 10.5-36.2 13.5-42.3 18.9-37 28.9-77 33.6-118.1 7.5-65.8 7.1-135.3-5.6-200.4-0.5-2.5 0.5-24.3 4.9-12.3z"  fill="#fff" /><path d="M308.5-161c-25.8 77.5-99.7 109.1-150.6 166.8-13.9 15.8-26.1 33.1-35.7 51.8-2.4 4.6-8.8 28.3-17.8 19.9-6.9-6.5 6.1-15.3 9.6-6.5 3.5 8.8-11.9 11.3-11.4 1.9 2.7-52.3 98-126.7 135.5-158.2 35.7-30 55.3-76.9 61-82 4.8-4.3 10.7 0.9 9.4 6.3z"  fill="#c2e1ff" /><path d="M315.8-337.7c16 78.2 11.1 176.3-43.7 239.1-44.5 51.1-106.6 80.6-143.8 139.4-3.5 5.6-20 14.9-15.5 0.8 6.2-19.4 21.4 17 3.2 7.8-11.1-5.6 8.6-27.7 12.3-33 42.8-61 118.8-91.8 156.2-155.9 31.6-54.2 34.3-125.3 25.5-186.1-0.4-2.7 1.8-24.7 5.8-12.1z"  fill="#fff500" /><path d=""  fill="#fff" /><path d="M343-398.4c4.8 87.2 4.4 175.2 1 262.4-0.5 13.5-1.8 91.1-7.4 97.2-5.2 5.7-12.6-4.8-5.5-7.8 7.1-3 9.4 9.6 1.7 9.4-2.7-0.1-4.9-2.6-4.6-5.3 4.1-44.7 6.7-89.4 7.8-134.3 1.8-71.4 2-143-1.3-214.3-0.3-5.6 6.4-18.4 8.3-7.3z"  fill="#fff" /><path d="M343.7-225.9c-1.2 80.3-10.3 158.1-26 236.8-2.8 13.9-5 58.7-16.7 67.1-7.3 5.3-13.2-8.5-4.4-10.2 8.8-1.7 8.5 13.2-0.3 11.1-10.2-2.5 2.1-28.6 3.5-34.6 8.1-34 14.6-68.5 20.5-103 6.7-38.4 10.6-77.2 12.5-116.1 0.5-10.9-4.2-46.5 2.9-54.3 3-3.3 7.5-0.7 8 3.2z"  fill="#005bbb" /><path d="M352.5-67.2c0.7 18.9 8.3 136.3 1.4 143.8-5.3 5.7-12.6-4.8-5.5-7.8 7.2-3 9.4 9.7 1.7 9.4-9.3-0.4-2.9-34.7-2.9-41.1 0.1-30.5-9.3-76.6-3.4-105 1.1-5.2 7.9-4 8.7 0.7z"  fill="#c2e1ff" /><path d="M354.5-398.1c-5.8 94.8-5.1 190.9-0.1 285.7 0.6 10.6 9.6 94.2 2.5 94.5-6.6 0.2-4.6-10.6 1.5-8 6.1 2.6-0.3 11.6-4.7 6.6-5.1-5.6-7.4-83.5-8.1-96.6-5-93-5.5-187-0.7-280 0.4-6.9 9.1-10.5 9.6-2.2z"  fill="#c2e1ff" /><path d="M370.2-196.5c7.5 72.8 36 139.2 59.1 207.9 2.4 7.2 24.7 63.4 20.7 65-5 1.9-4.9-7.5 0.1-5.4 4.2 1.8-0.2 8-3.3 4.6-13.3-14.6-18.7-47.4-24.9-65.9-22-65.5-49.8-129.4-58.9-198.4-0.7-5.4 4.7-18.3 7.2-7.8z"  fill="#005bbb" /><path d="M379-0.6c2.6 15 17.8 63.7 9.4 76.5-3.7 5.6-11.5-2.3-5.8-5.9 5.7-3.6 9.5 7 2.8 7.8-8.4 1.1-6.2-21.6-6.7-26.4-1.8-16.1-8.5-35.7-7.4-51.7 0.3-4.7 6.5-4.4 7.7-0.3z"  fill="#c2e1ff" /><path d="M379.2-396.6c-32.6 99.3-21.7 221.4 6 320.5 3.7 13.1 30.5 90.8 27.9 97.2-2.4 6-10.5-1.7-4.7-4.4 5-2.3 7 6.6 1.4 6.6-7 0-18.4-54.6-20.8-62.5-31-102-46.2-207.1-30.7-313.6 1.8-12.1 2.6-40.4 11.4-49.4 4.4-4.5 10.4 0.3 9.5 5.6z"  fill="#fff" /><path d="M396.8 9.2c1.9 7.9 18 67 10.2 68-5.1 0.7-5.7-7.4-0.6-7.6 5.2-0.1 4.9 8-0.2 7.6-6.5-0.6-6.5-19.4-7.4-24.1-2.8-14.1-6.3-28.2-9.1-42.3-0.9-4.7 5.5-5.9 7.1-1.6z"  fill="#c2e1ff" /><path d="M405.2-70.1c5.2 13.8 55.6 144.8 52.4 146.1-4 1.7-5.3-5.4-1-5.2 4.3 0.1 2.6 7.1-1.3 5.1-8.7-4.4-15.6-33.4-18.9-42.2-12.7-33.7-25.2-67.6-37.1-101.6-1.4-3.9 4-5.7 5.9-2.2z"  fill="#c2e1ff" /><path d=""  fill="#fff" /><path d=""  fill="#fff" /><path d="M393.7-395.6c-40.8 82.6-31.9 195.7-6.9 281.6 3.6 12.3 32.1 84.4 30.5 89.7-1.8 5.6-9.8-0.9-4.6-3.7 4.4-2.4 6.8 5.6 1.8 5.9-6.4 0.5-14.9-34.3-17-40-32.4-88.7-49-182.1-33.1-276.3 3.1-18.7 6.7-48.3 18.8-63.6 4.7-6 12.5 0 10.5 6.4z"  fill="#fff500" /><path d="M433.2-394c-67.5 73.4-56.4 187.4-22.2 273.4 14.5 36.4 31 71.9 45.4 108.4 1.4 3.6 15.2 30 7.8 30.1-4 0.1-3.8-6.2 0.2-5.8 3.4 0.3 3.5 5.4 0.1 5.8-5.5 0.7-9.4-16.7-10.8-20.4-39.9-99.4-94.2-197.3-74.1-308.2 5.3-29 18.2-75.7 43.9-94 7.3-5.2 14.2 4.1 9.7 10.7z"  fill="#c2e1ff" /><path d="M450.2-41.1c12.5 30.7 23.2 62.5 40.1 91 2.4 4.1 16.9 20.3 15.6 24.4-0.9 2.9-5.3 0.4-3.2-1.9 2.1-2.2 5 1.9 2.1 3-4.7 2-18.4-22.8-20.7-26.5-16.8-27.2-28.5-57.9-39.5-87.8-1.4-3.7 3.8-5.6 5.6-2.2z"  fill="#c2e1ff" /><path d="M459.6-192c11.5 40 54.4 178.4 70 209.5 4.3 8.6 37.4 53.4 37.4 55.8 0.1 3-4.8 2.1-3.6-0.7 1.4-3.2 5.7 1.1 2.5 2.5-3.8 1.6-13.8-15-16-17.9-30.4-39.1-44.5-82.3-57.6-129.3-11.2-40-27.5-78.2-39.1-117.9-1.3-4.3 4.7-5.9 6.4-2z"  fill="#c2e1ff" /><path d="M468.3-31.1c11 28.4 21.7 57.1 38.8 82.5 2.2 3.3 17.9 20.8 16.1 23.3-1.6 2.3-4.7-1-2.3-2.5 2-1.2 3.8 2.1 1.6 3.1-3.9 1.8-16.7-18.3-19-21.5-18-25-30.7-53.8-41-82.7-1.4-3.8 3.9-5.6 5.8-2.2z"  fill="#fff500" /><path d=""  fill="#c2e1ff" /><path d="M486.6-131c17.3 51.4 24.2 108 50.5 156 6 11 33 37.3 33.2 48.3 0 3.1-5 2-3.7-0.7 1.5-3.3 5.8 1.2 2.5 2.5-4.6 1.9-24.5-29.6-27.5-33.9-33.7-49.1-41.5-108.1-59.2-163.6-1.1-3.4 0-17.5 4.2-8.6z"  fill="#fff500" /><path d="M497.8-305.6c-6.3 21.2-8.6 43.2-6.8 65.3 2.4 30.6 39.2 208.1 49.3 236.7 7.6 21.6 19 41.2 32 59.9 1.4 2 15.6 17.9 9.9 19.3-3.9 0.9-2.9-6 0.6-4 3 1.7-0.9 5.9-2.9 3.1-56.6-82.2-55.3-121.9-75.6-214.9-11.6-53.3-31-106.3-18.8-161.4 1.8-8.1 14-16.5 12.3-4z"  fill="#fff" /><path d="M504.3-7.1c9.1 23.5 21.1 45.4 36.6 65.2 2.3 2.9 13.1 12.8 12.3 16-0.7 2.7-4.8 0.5-3.1-1.6 1.8-2.1 4.6 1.5 2.1 2.7-3.7 1.7-12.1-12.2-14.2-14.8-16.2-19.8-29.8-41.5-39.3-65.3-1.5-3.7 3.8-5.6 5.6-2.2z"  fill="#005bbb" /><path d="M514.1-59.8c8.4 36.5 18.8 71.6 39.7 103 4.3 6.5 21.7 23.1 21.7 30.5 0 3.7-6.1 1.3-3.4-1.4 2.2-2.3 5.2 2.1 2.2 3.2-4 1.6-12.4-14-14.5-16.7-26.2-35-42-71.9-52.2-114.3-1.2-5.2 4-10.8 6.5-4.3z"  fill="#fff500" /><path d="M523.6-235.4c4.8 50.9 16.5 193.8 30.4 234.5 7.4 21.7 18.8 41.3 31 60.6 1.4 2.1 12.7 14.9 6.3 16-3.2 0.6-3.8-4.5-0.6-4.7 2.7-0.2 3.5 3.9 0.8 4.7-4.6 1.3-14.6-20-16.9-23.8-36.5-58.3-40.9-116.4-46.4-183.2-2.4-29.6-16.4-76.7-12.7-104.3 0.7-5 7.2-4.2 8.1 0.2z"  fill="#c2e1ff" /><path d="M532.6-179.5c8 61.1 2.5 127.8 24.8 186 3.9 10.2 36.6 64.2 36.3 67.1-0.4 3.8-6.3 1.8-4.4-1.4 2.2-3.8 7 2.3 2.7 3.5-4.7 1.4-18.5-26.4-21.2-30.7-41.7-68.6-36.5-143.9-45.9-220.8-0.7-5.8 5.8-11 7.7-3.7z"  fill="#fff" /><path d=""  fill="#005bbb" /><path d="M552.2-343c-23.1 57.9-10.2 121.1-6.8 181.2 2.8 47.9-1.5 97.5 9.5 144.5 6.1 26.3 18.2 50 32 73.1 1.3 2.2 14.8 19.4 8.2 20.4-4.5 0.7-2.7-7.1 1-4.5 3.2 2.2-1.6 6.6-3.5 3.3-61.6-106.2-49.1-136.6-56.7-252.4-3.5-54-13.6-110 3-162.9 2.6-8.4 16.1-15.5 13.3-2.7z"  fill="#c2e1ff" /><path d="M557.4 46.8c2.3 3.4 21.6 26.2 18.2 28.4-2.3 1.5-4.5-2.2-2.1-3.5 2.4-1.3 4.2 2.7 1.7 3.7-10.5 4.1-25.4-37-17.8-28.6z"  fill="#fff" /><path d=""  fill="#005bbb" /><path d="M578.6-298.4c-7.7 56.3-22.8 225.7-14.1 276.1 4.3 25.2 14.2 48.5 26.1 71 1.5 2.7 15.1 21.9 8.1 22.6-4.1 0.5-3.4-6.4 0.6-5 3.9 1.3 0.4 7.2-2.6 4.4-6.2-5.8-10.5-19.1-14.6-26.7-39.1-73.9-28-147.3-21.5-227.4 3-36.4 3.7-73 7.4-109.3 0.7-7 10.6-17.8 10.6-5.7z"  fill="#c2e1ff" /><path d="M586.4-6.8c1.2 6.7 16.8 51.7 13.2 53-3.8 1.3-5.6-4.8-1.7-5.7 3.9-0.9 5.1 5.3 1.1 5.8-7.1 0.9-20.2-45.7-20-52.4 0.2-4.6 6.1-4.5 7.4-0.7z"  fill="#fff" /><path d="M596.6-47.5c-1.6 12.4 5.4 70.2 5.2 70.8-2 5.1-9.5 0-5.6-3.7 4.6-4.4 8.7 5.9 2.4 5.9-11.7 0.1-14.6-66.2-11.5-75.1 2-5.7 9.4-3.3 9.5 2.1z"  fill="#c2e1ff" /><path d="M604.2-102.4c-11.8 31.8-17.2 66.1-11.5 99.8 0.9 5.1 12.5 39 5.9 38.8-3.7-0.1-4.1-5.7-0.4-6.3 4.3-0.8 5.1 6 0.7 6.3-6.3 0.4-9.6-21-10.7-25.4-10-36.5-8.3-74.3 2.8-110.3 2.5-8.2 15.8-15.7 13.2-2.9z"  fill="#c2e1ff" /><path d=""  fill="#c2e1ff" /><path d="M604.1-148.3c-17.4 44.8-29.6 94.7-20.2 142.7 1.4 7.1 18.3 56.2 14.8 56.3-3.4 0.1-4.1-4.9-0.8-5.7 3.8-1 5 5.1 1.1 5.7-9.4 1.4-22.5-54.9-24-62.9-6.9-35.8-2.3-110.5 18.7-141.5 4.1-6 11.9-0.9 10.4 5.4z"  fill="#fff" /><path d="M553.7-393.7c-48 54.1-64.1 119.3-49.9 189.7 4.1 20.2 31.6 127.7 25.1 139.8-3.5 6.4-11.6-3.3-4.6-5.6 5.9-1.9 6.9 8.3 0.7 7.6-7.7-0.9-9.6-45.6-10.8-53.2-11.4-73-40.3-144.3-13.1-217.4 8.2-22.2 23-57 42.8-71.4 7.2-5.2 14.1 4 9.8 10.5z"  fill="#005bbb" /><path d=""  fill="#fff" /><path d="M602.3-394.3c-46.8 60.6-40.5 132.7-41.5 205-0.5 35.1-3.1 70.1-3.9 105.3-0.2 10 7.9 56.7 2.3 62.2-4.3 4.2-9.6-4.2-4-6.2 5.6-2 6.9 7.8 1 7.3-13.4-1.2-8-81-7.6-92 3.2-71.1-6.8-169.1 14.6-235.2 5.5-17.1 14.8-43.8 28.9-55.8 6.5-5.5 13.8 2.8 10.2 9.4z"  fill="#c2e1ff" /><path d=""  fill="#fff" /><path d=""  fill="#fff" /><path d=""  fill="#005bbb" /><path d="M604.1-161.1c-18.2 48.5-32.5 102.8-22.2 154.7 1.5 7.5 19.6 59.7 16.8 59.8-3.3 0.2-4.1-4.7-0.9-5.6 3.7-1 5 5 1.2 5.6-5.3 0.8-9.5-16-11-19.4-27.5-64.6-20.6-134.6 5-199 2.9-7.2 12.7-3.2 11.1 4z"  fill="#fff" /><path d="M604-182.1c-15.2 44.3-29.2 92-28.6 139.3 0.1 7.2 8.4 54.7 3.9 54.4-3.9-0.3-4-6.1-0.1-6.7 3.8-0.5 5.2 5.1 1.6 6.5-8.9 3.3-13.4-43.8-13.9-49.8-2.7-36.7 6.9-117.3 26.8-148.6 3.8-6 11.6-1.2 10.3 4.9z"  fill="#fff500" /></svg>