<svg width="1200" height="675" viewBox="-500 -500 1200 675" xmlns="http://www.w3.org/2000/svg"><style>.monpath{stroke-width: 12.65625; stroke: #000}</style><path d="M-500-500h1200v675h-1200z" fill="#000"/><path d="M-491.6-491.6h98.6v295.8h-98.6z" class="monpath" fill="#F2F5F1"/><path d="M-393-491.6h98.6v394.4h-98.6z" class="monpath" fill="#F2F5F1"/><path d="M-393-97.2h98.6v98.6h-98.6z" class="monpath" fill="#F2F5F1"/><path d="M-393 1.4h98.6v165.2h-98.6z" class="monpath" fill="#F2F5F1"/><path d="M-294.4-491.6h295.8v493h-295.8z" class="monpath" fill="#F2F5F1"/><path d="M-491.6-195.8h98.6v295.8h-98.6z" class="monpath" fill="#F2F5F1"/><path d="M-491.6 100h98.6v66.6h-98.6z" class="monpath" fill="#F2F5F1"/><path d="M1.4-491.6h197.2v493h-197.2z" class="monpath" fill="#c2e1ff"/><path d="M-294.4 1.4h493v165.2h-493z" class="monpath" fill="#F2F5F1"/><path d="M198.6 1.4h98.6v165.2h-98.6z" class="monpath" fill="#fff"/><path d="M198.6-491.6h197.2v493h-197.2z" class="monpath" fill="#F2F5F1"/><path d="M395.8-491.6h98.6v493h-98.6z" class="monpath" fill="#005bbb"/><path d="M494.4-491.6h197.2v493h-197.2z" class="monpath" fill="#fff500"/><path d="M297.2 1.4h197.2v165.2h-197.2z" class="monpath" fill="#F2F5F1"/><path d="M494.4 1.4h197.2v165.2h-197.2z" class="monpath" fill="#F2F5F1"/></svg>