<svg width="1200" height="675" viewBox="-500 -500 1200 675" xmlns="http://www.w3.org/2000/svg"><style>.monpath{stroke-width: 12.65625; stroke: #000}</style><path d="M-500-500h1200v675h-1200z" fill="#000"/><path d="M-491.6-491.6h394.4v394.4h-394.4z" class="monpath" fill="#F2F5F1"/><path d="M-491.6-97.2h394.4v98.6h-394.4z" class="monpath" fill="#F2F5F1"/><path d="M-491.6 1.4h394.4v165.2h-394.4z" class="monpath" fill="#F2F5F1"/><path d="M-97.2-491.6h98.6v394.4h-98.6z" class="monpath" fill="#EF8F88"/><path d="M1.4-491.6h98.6v394.4h-98.6z" class="monpath" fill="#F2F5F1"/><path d="M-97.2-97.2h197.2v263.8h-197.2z" class="monpath" fill="#F2F5F1"/><path d="M100-97.2h98.6v263.8h-98.6z" class="monpath" fill="#FFFFFF"/><path d="M100-491.6h98.6v394.4h-98.6z" class="monpath" fill="#2C4D5D"/><path d="M198.6-491.6h98.6v394.4h-98.6z" class="monpath" fill="#EFF7F5"/><path d="M198.6-97.2h98.6v263.8h-98.6z" class="monpath" fill="#F2F5F1"/><path d="M297.2-491.6h98.6v394.4h-98.6z" class="monpath" fill="#F2F5F1"/><path d="M395.8-491.6h295.8v394.4h-295.8z" class="monpath" fill="#F2F5F1"/><path d="M297.2-97.2h197.2v263.8h-197.2z" class="monpath" fill="#F6C8AC"/><path d="M494.4-97.2h98.6v263.8h-98.6z" class="monpath" fill="#F2F5F1"/><path d="M593-97.2h98.6v263.8h-98.6z" class="monpath" fill="#6E819E"/></svg>