<svg width="1200" height="675" viewBox="-500 -500 1200 675" xmlns="http://www.w3.org/2000/svg"><style>.monpath{stroke-width: 12.65625; stroke: #000}</style><path d="M-500-500h1200v675h-1200z" fill="#000"/><path d="M-491.6-97.2h493v197.2h-493z" class="monpath" fill="#F2F5F1"/><path d="M-491.6 100h493v66.6h-493z" class="monpath" fill="#c2e1ff"/><path d="M1.4-97.2h98.6v263.8h-98.6z" class="monpath" fill="#F2F5F1"/><path d="M-491.6-491.6h591.6v394.4h-591.6z" class="monpath" fill="#F2F5F1"/><path d="M100-97.2h98.6v263.8h-98.6z" class="monpath" fill="#F2F5F1"/><path d="M100-491.6h197.2v394.4h-197.2z" class="monpath" fill="#F2F5F1"/><path d="M198.6-97.2h197.2v263.8h-197.2z" class="monpath" fill="#F2F5F1"/><path d="M395.8-97.2h98.6v263.8h-98.6z" class="monpath" fill="#F2F5F1"/><path d="M297.2-491.6h197.2v394.4h-197.2z" class="monpath" fill="#005bbb"/><path d="M494.4-491.6h197.2v394.4h-197.2z" class="monpath" fill="#F2F5F1"/><path d="M494.4-97.2h98.6v263.8h-98.6z" class="monpath" fill="#F2F5F1"/><path d="M593-97.2h98.6v263.8h-98.6z" class="monpath" fill="#F2F5F1"/></svg>