<svg width="1200" height="675" viewBox="-500 -500 1200 675" xmlns="http://www.w3.org/2000/svg"><style>.monpath{stroke-width: 12.65625; stroke: #000}</style><path d="M-500-500h1200v675h-1200z" fill="#000"/><path d="M-491.6-491.6h197.2v295.8h-197.2z" class="monpath" fill="#F2F5F1"/><path d="M-491.6-195.8h197.2v197.2h-197.2z" class="monpath" fill="#F2F5F1"/><path d="M-491.6 1.4h197.2v165.2h-197.2z" class="monpath" fill="#F2F5F1"/><path d="M-294.4-195.8h295.8v98.6h-295.8z" class="monpath" fill="#F2F5F1"/><path d="M-294.4-97.2h295.8v197.2h-295.8z" class="monpath" fill="#F2F5F1"/><path d="M-294.4 100h295.8v66.6h-295.8z" class="monpath" fill="#F6C8AC"/><path d="M1.4-97.2h98.6v197.2h-98.6z" class="monpath" fill="#F2F5F1"/><path d="M100-97.2h98.6v197.2h-98.6z" class="monpath" fill="#F2F5F1"/><path d="M1.4 100h197.2v66.6h-197.2z" class="monpath" fill="#F2F5F1"/><path d="M-294.4-491.6h493v295.8h-493z" class="monpath" fill="#EFF7F5"/><path d="M198.6 100h98.6v66.6h-98.6z" class="monpath" fill="#6E819E"/><path d="M198.6-97.2h98.6v197.2h-98.6z" class="monpath" fill="#F2F5F1"/><path d="M297.2 100h98.6v66.6h-98.6z" class="monpath" fill="#EF8F88"/><path d="M198.6-491.6h197.2v295.8h-197.2z" class="monpath" fill="#FFFFFF"/><path d="M395.8-491.6h295.8v295.8h-295.8z" class="monpath" fill="#F2F5F1"/><path d="M297.2-97.2h197.2v197.2h-197.2z" class="monpath" fill="#F2F5F1"/><path d="M494.4-97.2h197.2v197.2h-197.2z" class="monpath" fill="#F2F5F1"/><path d="M1.4-195.8h493v98.6h-493z" class="monpath" fill="#F2F5F1"/><path d="M494.4-195.8h197.2v98.6h-197.2z" class="monpath" fill="#F2F5F1"/><path d="M395.8 100h197.2v66.6h-197.2z" class="monpath" fill="#F2F5F1"/><path d="M593 100h98.6v66.6h-98.6z" class="monpath" fill="#2C4D5D"/></svg>