<svg width="1200" height="675" viewBox="-500 -500 1200 675" xmlns="http://www.w3.org/2000/svg"><style>.monpath{stroke-width: 12.65625; stroke: #000}</style><path d="M-500-500h1200v675h-1200z" fill="#000"/><path d="M-491.6-195.8h394.4v98.6h-394.4z" class="monpath" fill="#F2F5F1"/><path d="M-491.6-97.2h394.4v98.6h-394.4z" class="monpath" fill="#457b9d"/><path d="M-97.2-195.8h98.6v98.6h-98.6z" class="monpath" fill="#1d3557"/><path d="M-491.6-491.6h493v295.8h-493z" class="monpath" fill="#F2F5F1"/><path d="M-491.6 1.4h394.4v98.6h-394.4z" class="monpath" fill="#F2F5F1"/><path d="M-491.6 100h394.4v66.6h-394.4z" class="monpath" fill="#F2F5F1"/><path d="M1.4-195.8h98.6v98.6h-98.6z" class="monpath" fill="#F2F5F1"/><path d="M-97.2-97.2h197.2v98.6h-197.2z" class="monpath" fill="#F2F5F1"/><path d="M100-195.8h98.6v98.6h-98.6z" class="monpath" fill="#F2F5F1"/><path d="M198.6-195.8h197.2v98.6h-197.2z" class="monpath" fill="#f1faee"/><path d="M100-97.2h295.8v98.6h-295.8z" class="monpath" fill="#F2F5F1"/><path d="M1.4-491.6h394.4v295.8h-394.4z" class="monpath" fill="#F2F5F1"/><path d="M395.8-97.2h98.6v98.6h-98.6z" class="monpath" fill="#F2F5F1"/><path d="M494.4-97.2h197.2v98.6h-197.2z" class="monpath" fill="#F2F5F1"/><path d="M395.8-195.8h98.6v98.6h-98.6z" class="monpath" fill="#a8dadc"/><path d="M-97.2 1.4h591.6v165.2h-591.6z" class="monpath" fill="#F2F5F1"/><path d="M494.4 1.4h98.6v165.2h-98.6z" class="monpath" fill="#F2F5F1"/><path d="M593 1.4h98.6v165.2h-98.6z" class="monpath" fill="#F2F5F1"/><path d="M494.4-195.8h98.6v98.6h-98.6z" class="monpath" fill="#F2F5F1"/><path d="M593-195.8h98.6v98.6h-98.6z" class="monpath" fill="#F2F5F1"/><path d="M395.8-491.6h197.2v295.8h-197.2z" class="monpath" fill="#F2F5F1"/><path d="M593-491.6h98.6v295.8h-98.6z" class="monpath" fill="#e63946"/></svg>