<svg width="1200" height="675" viewBox="-500 -500 1200 675" xmlns="http://www.w3.org/2000/svg"><style>.monpath{stroke-width: 12.65625; stroke: #000}</style><path d="M-500-500h1200v675h-1200z" fill="#000"/><path d="M-491.6 100h690.2v66.6h-690.2z" class="monpath" fill="#F2F5F1"/><path d="M-491.6 1.4h690.2v98.6h-690.2z" class="monpath" fill="#F2F5F1"/><path d="M198.6 1.4h98.6v98.6h-98.6z" class="monpath" fill="#F2F5F1"/><path d="M198.6 100h98.6v66.6h-98.6z" class="monpath" fill="#F2F5F1"/><path d="M297.2 100h98.6v66.6h-98.6z" class="monpath" fill="#F2F5F1"/><path d="M297.2 1.4h98.6v98.6h-98.6z" class="monpath" fill="#c2e1ff"/><path d="M-491.6-491.6h887.4v493h-887.4z" class="monpath" fill="#F2F5F1"/><path d="M395.8-491.6h98.6v493h-98.6z" class="monpath" fill="#F2F5F1"/><path d="M395.8 1.4h98.6v98.6h-98.6z" class="monpath" fill="#F2F5F1"/><path d="M395.8 100h98.6v66.6h-98.6z" class="monpath" fill="#F2F5F1"/><path d="M494.4 100h197.2v66.6h-197.2z" class="monpath" fill="#F2F5F1"/><path d="M494.4 1.4h98.6v98.6h-98.6z" class="monpath" fill="#F2F5F1"/><path d="M593 1.4h98.6v98.6h-98.6z" class="monpath" fill="#F2F5F1"/><path d="M494.4-491.6h98.6v493h-98.6z" class="monpath" fill="#fff500"/><path d="M593-491.6h98.6v493h-98.6z" class="monpath" fill="#fff"/></svg>