<svg width="1200" height="675" viewBox="-500 -500 1200 675" xmlns="http://www.w3.org/2000/svg"><style>.monpath{stroke-width: 12.65625; stroke: #000}</style><path d="M-500-500h1200v675h-1200z" fill="#000"/><path d="M-491.6-491.6h98.6v197.2h-98.6z" class="monpath" fill="#F2F5F1"/><path d="M-491.6-294.4h98.6v461h-98.6z" class="monpath" fill="#F2F5F1"/><path d="M-393-491.6h98.6v295.8h-98.6z" class="monpath" fill="#fff500"/><path d="M-294.4-491.6h98.6v591.6h-98.6z" class="monpath" fill="#F2F5F1"/><path d="M-294.4 100h98.6v66.6h-98.6z" class="monpath" fill="#F2F5F1"/><path d="M-393-195.8h98.6v295.8h-98.6z" class="monpath" fill="#F2F5F1"/><path d="M-393 100h98.6v66.6h-98.6z" class="monpath" fill="#F2F5F1"/><path d="M-195.8-491.6h591.6v658.2h-591.6z" class="monpath" fill="#F2F5F1"/><path d="M395.8-491.6h98.6v658.2h-98.6z" class="monpath" fill="#F2F5F1"/><path d="M494.4-491.6h98.6v658.2h-98.6z" class="monpath" fill="#c2e1ff"/><path d="M593-491.6h98.6v658.2h-98.6z" class="monpath" fill="#fff"/></svg>