<svg width="1200" height="675" viewBox="-500 -500 1200 675" xmlns="http://www.w3.org/2000/svg"><style>.monpath{stroke-width: 12.65625; stroke: #000}</style><path d="M-500-500h1200v675h-1200z" fill="#000"/><path d="M-491.6-97.2h394.4v263.8h-394.4z" class="monpath" fill="#F2F5F1"/><path d="M-491.6-491.6h493v394.4h-493z" class="monpath" fill="#F2F5F1"/><path d="M-97.2-97.2h98.6v197.2h-98.6z" class="monpath" fill="#ffc300"/><path d="M-97.2 100h98.6v66.6h-98.6z" class="monpath" fill="#F2F5F1"/><path d="M1.4 100h98.6v66.6h-98.6z" class="monpath" fill="#003566"/><path d="M100 100h98.6v66.6h-98.6z" class="monpath" fill="#F2F5F1"/><path d="M198.6 100h493v66.6h-493z" class="monpath" fill="#F2F5F1"/><path d="M1.4-491.6h295.8v394.4h-295.8z" class="monpath" fill="#001d3d"/><path d="M297.2-491.6h98.6v394.4h-98.6z" class="monpath" fill="#F2F5F1"/><path d="M1.4-97.2h394.4v197.2h-394.4z" class="monpath" fill="#F2F5F1"/><path d="M395.8-97.2h98.6v197.2h-98.6z" class="monpath" fill="#F2F5F1"/><path d="M494.4-97.2h197.2v197.2h-197.2z" class="monpath" fill="#F2F5F1"/><path d="M395.8-491.6h197.2v394.4h-197.2z" class="monpath" fill="#F2F5F1"/><path d="M593-491.6h98.6v394.4h-98.6z" class="monpath" fill="#ffd60a"/></svg>