<svg width="1200" height="675" viewBox="-500 -500 1200 675" xmlns="http://www.w3.org/2000/svg"><title>18867-9815743624</title><path d="M-500-500h1200v675h-1200z" fill="#f77f00"/><path d="M336.3-162.5a236.3 236.3 0 1 1-472.6 0 236.3 236.3 0 1 1 472.6 0z" fill="#eae2b7"/><path d="M312.6-162.5a212.6 212.6 0 0 1-384.6 125l130.1-94.6a51.7 51.7 0 0 0 93.6-30.4z" fill="#fcbf49"/><path d="M-72-37.5a212.6 212.6 0 1 1 384.6-125l-11.7 0a200.9 200.9 0 1 0-363.5 118.1z" fill="#003049"/><path d="M124.8-162.5a24.8 24.8 0 1 1-49.6 0 24.8 24.8 0 1 1 49.6 0z" fill="#d62828"/></svg>