<svg width="1200" height="675" viewBox="-500 -500 1200 675" xmlns="http://www.w3.org/2000/svg"><title>18948-10008907337</title><path d="M-500-500h1200v675h-1200z" fill="#14213d"/><path d="M336.3-162.5a236.3 236.3 0 1 1-472.6 0 236.3 236.3 0 1 1 472.6 0z" fill="#ffffff"/><path d="M312.6-162.5a212.6 212.6 0 1 1-146.9-202.2l-32 98.6a108.9 108.9 0 1 0 75.2 103.6z" fill="#fca311"/><path d="M165.7-364.7a212.6 212.6 0 0 1 146.9 202.2l-30.5 0a182.1 182.1 0 0 0-125.8-173.2z" fill="#112233"/><path d="M133.1-162.5a33.1 33.1 0 1 1-66.2 0 33.1 33.1 0 1 1 66.2 0z" fill="#e5e5e5"/></svg>