<svg width="1200" height="675" viewBox="-500 -500 1200 675" xmlns="http://www.w3.org/2000/svg"><title>18941-9854823986</title><path d="M-500-500h1200v675h-1200z" fill="#FF7878"/><path d="M336.3-162.5a236.3 236.3 0 1 1-472.6 0 236.3 236.3 0 1 1 472.6 0z" fill="#889EAF"/><path d="M312.6-162.5a212.6 212.6 0 0 1-40.6 125l-50.8-37a149.8 149.8 0 0 0 28.6-88z" fill="#506D84"/><path d="M272-37.5a212.6 212.6 0 0 1-237.7 77.2l39.8-122.4a83.9 83.9 0 0 0 93.8-30.5z" fill="#CEE5D0"/><path d="M34.3 39.7a212.6 212.6 0 0 1-106.3-327.2l13.9 10.1a195.4 195.4 0 0 0 97.7 300.8z" fill="#D4B499"/><path d="M-72-287.5a212.6 212.6 0 0 1 384.6 125l-56.5 0a156.1 156.1 0 0 0-282.4-91.8z" fill="#FF7777"/><path d="M124.4-162.5a24.4 24.4 0 1 1-48.8 0 24.4 24.4 0 1 1 48.8 0z" fill="#F3D5C0"/></svg>