<svg width="1200" height="675" viewBox="-500 -500 1200 675" xmlns="http://www.w3.org/2000/svg"><title>18958-10012028129</title><path d="M-500-500h1200v675h-1200z" fill="#889EAF"/><path d="M336.3-162.5a236.3 236.3 0 1 1-472.6 0 236.3 236.3 0 1 1 472.6 0z" fill="#CEE5D0"/><path d="M312.6-162.5a212.6 212.6 0 0 1-175.7 209.4l-16.9-95.9a115.2 115.2 0 0 0 95.2-113.5z" fill="#FF7777"/><path d="M136.9 46.9a212.6 212.6 0 0 1-143.2-25.3l8.6-14.8a195.5 195.5 0 0 0 131.6 23.2z" fill="#F3D5C0"/><path d="M-6.3 21.6a212.6 212.6 0 0 1 143.2-393.5l-24.7 140a70.5 70.5 0 0 0-47.5 130.5z" fill="#FF7878"/><path d="M136.9-371.9a212.6 212.6 0 0 1 175.7 209.4l-99.8 0a112.8 112.8 0 0 0-93.2-111.1z" fill="#D4B499"/><path d="M130.3-162.5a30.3 30.3 0 1 1-60.6 0 30.3 30.3 0 1 1 60.6 0z" fill="#506D84"/></svg>