<svg width="1200" height="675" viewBox="-500 -500 1200 675" xmlns="http://www.w3.org/2000/svg"><title>19032-10040514619</title><path d="M-500-500h1200v675h-1200z" fill="#EFF7F5"/><path d="M336.3-162.5a236.3 236.3 0 1 1-472.6 0 236.3 236.3 0 1 1 472.6 0z" fill="#EF8F88"/><path d="M312.6-162.5a212.6 212.6 0 0 1-412.4 72.7l81.1-29.5a126.3 126.3 0 0 0 245-43.2z" fill="#2C4D5D"/><path d="M-99.8-89.8a212.6 212.6 0 0 1 362.7-209.4l-137.4 115.3a33.3 33.3 0 0 0-56.8 32.8z" fill="#6E819E"/><path d="M262.9-299.2a212.6 212.6 0 0 1 49.7 136.7l-167.9 0a44.7 44.7 0 0 0-10.4-28.8z" fill="#FFFFFF"/><path d="M124.1-162.5a24.1 24.1 0 1 1-48.2 0 24.1 24.1 0 1 1 48.2 0z" fill="#F6C8AC"/></svg>