<svg width="1200" height="675" viewBox="-500 -500 1200 675" xmlns="http://www.w3.org/2000/svg"><title>19042-10060412498</title><path d="M-500-500h1200v675h-1200z" fill="#FF7878"/><path d="M336.3-162.5a236.3 236.3 0 1 1-472.6 0 236.3 236.3 0 1 1 472.6 0z" fill="#889EAF"/><path d="M312.6-162.5a212.6 212.6 0 0 1-62.3 150.3l-75.1-75.1a106.4 106.4 0 0 0 31.2-75.2z" fill="#D4B499"/><path d="M250.3-12.2a212.6 212.6 0 1 1-300.6-300.6l47.9 47.9a144.9 144.9 0 1 0 204.8 204.8z" fill="#CEE5D0"/><path d="M-50.3-312.8a212.6 212.6 0 0 1 150.3-62.3l0 76.4a136.2 136.2 0 0 0-96.3 39.9z" fill="#506D84"/><path d="M100-375.1a212.6 212.6 0 0 1 212.6 212.6l-164.5 0a48.1 48.1 0 0 0-48.1-48.1z" fill="#F3D5C0"/><path d="M132.5-162.5a32.5 32.5 0 1 1-65 0 32.5 32.5 0 1 1 65 0z" fill="#FF7777"/></svg>