<svg width="1200" height="675" viewBox="-500 -500 1200 675" xmlns="http://www.w3.org/2000/svg"><title>19342-10080684589</title><path d="M-500-500h1200v675h-1200z" fill="#fff500"/><path d="M336.3-162.5a236.3 236.3 0 1 1-472.6 0 236.3 236.3 0 1 1 472.6 0z" fill="#c2e1ff"/><path d="M312.6-162.5a212.6 212.6 0 1 1-425.2 0 212.6 212.6 0 1 1 425.2 0z m-251.2 0a38.6 38.6 0 1 0 77.2 0 38.6 38.6 0 1 0-77.2 0z" fill="#fff"/><path d="M133.7-162.5a33.7 33.7 0 1 1-67.4 0 33.7 33.7 0 1 1 67.4 0z" fill="#005bbb"/></svg>