<svg width="1200" height="675" viewBox="-500 -500 1200 675" xmlns="http://www.w3.org/2000/svg"><title>19564-10329837274</title><path d="M-500-500h1200v675h-1200z" fill="#fff"/><path d="M336.3-162.5a236.3 236.3 0 1 1-472.6 0 236.3 236.3 0 1 1 472.6 0z" fill="#fff500"/><path d="M312.6-162.5a212.6 212.6 0 1 1-425.2 0 212.6 212.6 0 1 1 425.2 0z m-410.9 0a198.3 198.3 0 1 0 396.6 0 198.3 198.3 0 1 0-396.6 0z" fill="#c2e1ff"/><path d="M127.4-162.5a27.4 27.4 0 1 1-54.8 0 27.4 27.4 0 1 1 54.8 0z" fill="#005bbb"/></svg>