<svg width="1200" height="675" viewBox="-500 -500 1200 675" xmlns="http://www.w3.org/2000/svg"><title>19224-10139880881</title><path d="M-500-500h1200v675h-1200z" fill="#fff"/><path d="M336.3-162.5a236.3 236.3 0 1 1-472.6 0 236.3 236.3 0 1 1 472.6 0z" fill="#005bbb"/><path d="M312.6-162.5a212.6 212.6 0 1 1-425.2 0 212.6 212.6 0 1 1 425.2 0z m-362.8 0a150.2 150.2 0 1 0 300.4 0 150.2 150.2 0 1 0-300.4 0z" fill="#fff500"/><path d="M135.3-162.5a35.3 35.3 0 1 1-70.6 0 35.3 35.3 0 1 1 70.6 0z" fill="#c2e1ff"/></svg>