<svg width="1200" height="675" viewBox="-500 -500 1200 675" xmlns="http://www.w3.org/2000/svg"><title>19762-10423991464</title><path d="M-500-500h1200v675h-1200z" fill="#005bbb"/><path d="M336.3-162.5a236.3 236.3 0 1 1-472.6 0 236.3 236.3 0 1 1 472.6 0z" fill="#fff500"/><path d="M312.6-162.5a212.6 212.6 0 1 1-425.2 0 212.6 212.6 0 1 1 425.2 0z m-348.7 0a136.1 136.1 0 1 0 272.2 0 136.1 136.1 0 1 0-272.2 0z" fill="#fff"/><path d="M129-162.5a29 29 0 1 1-58 0 29 29 0 1 1 58 0z" fill="#c2e1ff"/></svg>