<svg width="1200" height="675" viewBox="-500 -500 1200 675" xmlns="http://www.w3.org/2000/svg"><title>19610-10201305285</title><path d="M-500-500h1200v675h-1200z" fill="#fff500"/><path d="M336.3-162.5a236.3 236.3 0 1 1-472.6 0 236.3 236.3 0 1 1 472.6 0z" fill="#005bbb"/><path d="M312.6-162.5a212.6 212.6 0 1 1-425.2 0 212.6 212.6 0 1 1 425.2 0z m-365 0a152.4 152.4 0 1 0 304.8 0 152.4 152.4 0 1 0-304.8 0z" fill="#c2e1ff"/><path d="M133.1-162.5a33.1 33.1 0 1 1-66.2 0 33.1 33.1 0 1 1 66.2 0z" fill="#fff"/></svg>