<svg width="1200" height="675" viewBox="-500 -500 1200 675" xmlns="http://www.w3.org/2000/svg"><title>18990-10028672096</title><path d="M-500-500h1200v675h-1200z" fill="#2a9d8f"/><path d="M336.3-162.5a236.3 236.3 0 1 1-472.6 0 236.3 236.3 0 1 1 472.6 0z" fill="#e9c46a"/><path d="M312.6-162.5a212.6 212.6 0 1 1-318.9-184.1l12 20.8a188.6 188.6 0 1 0 282.9 163.3z" fill="#f4a261"/><path d="M-6.3-346.6a212.6 212.6 0 0 1 318.9 184.1l-124.8 0a87.8 87.8 0 0 0-131.7-76.1z" fill="#264653"/><path d="M128.5-162.5a28.5 28.5 0 1 1-57 0 28.5 28.5 0 1 1 57 0z" fill="#e76f51"/></svg>