<svg width="1200" height="675" viewBox="-500 -500 1200 675" xmlns="http://www.w3.org/2000/svg"><title>19041-10061973150</title><path d="M-500-500h1200v675h-1200z" fill="#06d6a0"/><path d="M336.3-162.5a236.3 236.3 0 1 1-472.6 0 236.3 236.3 0 1 1 472.6 0z" fill="#073b4c"/><path d="M312.6-162.5a212.6 212.6 0 1 1-425.2 0l112.3 0a100.3 100.3 0 1 0 200.6 0z" fill="#ffd166"/><path d="M-112.6-162.5a212.6 212.6 0 1 1 425.2 0l-161.9 0a50.7 50.7 0 1 0-101.4 0z" fill="#118ab2"/><path d="M132.6-162.5a32.6 32.6 0 1 1-65.2 0 32.6 32.6 0 1 1 65.2 0z" fill="#ef476f"/></svg>