<svg width="1200" height="675" viewBox="-500 -500 1200 675" xmlns="http://www.w3.org/2000/svg"><title>18993-10019705820</title><path d="M-500-500h1200v675h-1200z" fill="#ef476f"/><path d="M336.3-162.5a236.3 236.3 0 1 1-472.6 0 236.3 236.3 0 1 1 472.6 0z" fill="#073b4c"/><path d="M312.6-162.5a212.6 212.6 0 0 1-318.9 184.1l13.8-23.9a185 185 0 0 0 277.5-160.2z" fill="#06d6a0"/><path d="M-6.3 21.6a212.6 212.6 0 1 1 318.9-184.1l-64 0a148.6 148.6 0 1 0-222.9 128.7z" fill="#118ab2"/><path d="M128.7-162.5a28.7 28.7 0 1 1-57.4 0 28.7 28.7 0 1 1 57.4 0z" fill="#ffd166"/></svg>