<svg width="1200" height="675" viewBox="-500 -500 1200 675" xmlns="http://www.w3.org/2000/svg"><title>19499-10293390852</title><path d="M-500-500h1200v675h-1200z" fill="#fff"/><path d="M336.3-162.5a236.3 236.3 0 1 1-472.6 0 236.3 236.3 0 1 1 472.6 0z" fill="#005bbb"/><path d="M312.6-162.5a212.6 212.6 0 1 1-425.2 0 212.6 212.6 0 1 1 425.2 0z m-341.8 0a129.2 129.2 0 1 0 258.4 0 129.2 129.2 0 1 0-258.4 0z" fill="#fff500"/><path d="M125.1-162.5a25.1 25.1 0 1 1-50.2 0 25.1 25.1 0 1 1 50.2 0z" fill="#c2e1ff"/></svg>