<svg width="1200" height="675" viewBox="-500 -500 1200 675" xmlns="http://www.w3.org/2000/svg"><title>19014-10041688003</title><path d="M-500-500h1200v675h-1200z" fill="#6E819E"/><path d="M336.3-162.5a236.3 236.3 0 1 1-472.6 0 236.3 236.3 0 1 1 472.6 0z" fill="#EF8F88"/><path d="M312.6-162.5a212.6 212.6 0 0 1-259.9 207.3l16.2-71.3a139.5 139.5 0 0 0 170.6-136z" fill="#F6C8AC"/><path d="M52.7 44.8a212.6 212.6 0 0 1 0-414.6l28.1 123.1a86.4 86.4 0 0 0 0 168.4z" fill="#2C4D5D"/><path d="M52.7-369.8a212.6 212.6 0 0 1 259.9 207.3l-88.2 0a124.4 124.4 0 0 0-152.1-121.2z" fill="#EFF7F5"/><path d="M131.6-162.5a31.6 31.6 0 1 1-63.2 0 31.6 31.6 0 1 1 63.2 0z" fill="#FFFFFF"/></svg>