<svg width="1200" height="675" viewBox="-500 -500 1200 675" xmlns="http://www.w3.org/2000/svg"><title>18865-9814703104</title><path d="M-500-500h1200v675h-1200z" fill="#fcbf49"/><path d="M336.3-162.5a236.3 236.3 0 1 1-472.6 0 236.3 236.3 0 1 1 472.6 0z" fill="#d62828"/><path d="M312.6-162.5a212.6 212.6 0 0 1-146.9 202.2l-53-163.1a41.1 41.1 0 0 0 28.4-39.1z" fill="#f77f00"/><path d="M165.7 39.7a212.6 212.6 0 1 1 146.9-202.2l-161.7 0a50.9 50.9 0 1 0-35.2 48.4z" fill="#003049"/><path d="M129-162.5a29 29 0 1 1-58 0 29 29 0 1 1 58 0z" fill="#eae2b7"/></svg>