<svg width="1200" height="675" viewBox="-500 -500 1200 675" xmlns="http://www.w3.org/2000/svg"><title>18885-9842401491</title><path d="M-500-500h1200v675h-1200z" fill="#e9c46a"/><path d="M336.3-162.5a236.3 236.3 0 1 1-472.6 0 236.3 236.3 0 1 1 472.6 0z" fill="#e76f51"/><path d="M312.6-162.5a212.6 212.6 0 1 1-318.9-184.1l20.8 36.1a170.9 170.9 0 1 0 256.4 148z" fill="#2a9d8f"/><path d="M-6.3-346.6a212.6 212.6 0 0 1 318.9 184.1l-184.9 0a27.7 27.7 0 0 0-41.6-24z" fill="#f4a261"/><path d="M133.7-162.5a33.7 33.7 0 1 1-67.4 0 33.7 33.7 0 1 1 67.4 0z" fill="#264653"/></svg>