<svg width="1000" height="1000" viewBox="-500 -500 1000 1000" xmlns="http://www.w3.org/2000/svg"><title>18855-9826277848</title><path d="M-500-500h1000v1000h-1000z" fill="#003049"/><path d="M350 0a350 350 0 1 1-700 0 350 350 0 1 1 700 0z" fill="#f77f00"/><path d="M315 0a315 315 0 0 1-315 315l0-121.3a193.7 193.7 0 0 0 193.7-193.7z" fill="#fcbf49"/><path d="M0 315a315 315 0 1 1 315-315l-112.2 0a202.8 202.8 0 1 0-202.8 202.8z" fill="#eae2b7"/><path d="M37 0a37 37 0 1 1-74 0 37 37 0 1 1 74 0z" fill="#d62828"/></svg>