<svg width="1200" height="675" viewBox="-500 -500 1200 675" xmlns="http://www.w3.org/2000/svg"><title>18952-10015149433</title><path d="M-500-500h1200v675h-1200z" fill="#FFFFFF"/><path d="M336.3-162.5a236.3 236.3 0 1 1-472.6 0 236.3 236.3 0 1 1 472.6 0z" fill="#EFF7F5"/><path d="M312.6-162.5a212.6 212.6 0 0 1-175.7 209.4l-10.2-58.1a153.6 153.6 0 0 0 126.9-151.3z" fill="#F6C8AC"/><path d="M136.9 46.9a212.6 212.6 0 0 1-236.7-282.1l61.8 22.5a146.9 146.9 0 0 0 163.5 194.9z" fill="#6E819E"/><path d="M-99.8-235.2a212.6 212.6 0 0 1 412.4 72.7l-30 0a182.6 182.6 0 0 0-354.2-62.5z" fill="#2C4D5D"/><path d="M134.8-162.5a34.8 34.8 0 1 1-69.6 0 34.8 34.8 0 1 1 69.6 0z" fill="#EF8F88"/></svg>