<svg width="1200" height="675" viewBox="-500 -500 1200 675" xmlns="http://www.w3.org/2000/svg"><title>19492-10300186104</title><path d="M-500-500h1200v675h-1200z" fill="#fff500"/><path d="M336.3-162.5a236.3 236.3 0 1 1-472.6 0 236.3 236.3 0 1 1 472.6 0z" fill="#c2e1ff"/><path d="M312.6-162.5a212.6 212.6 0 1 1-425.2 0 212.6 212.6 0 1 1 425.2 0z m-386.2 0a173.6 173.6 0 1 0 347.2 0 173.6 173.6 0 1 0-347.2 0z" fill="#fff"/><path d="M125.6-162.5a25.6 25.6 0 1 1-51.2 0 25.6 25.6 0 1 1 51.2 0z" fill="#005bbb"/></svg>