<svg width="1200" height="675" viewBox="-500 -500 1200 675" xmlns="http://www.w3.org/2000/svg"><title>19027-10035833559</title><path d="M-500-500h1200v675h-1200z" fill="#06d6a0"/><path d="M336.3-162.5a236.3 236.3 0 1 1-472.6 0 236.3 236.3 0 1 1 472.6 0z" fill="#ef476f"/><path d="M312.6-162.5a212.6 212.6 0 1 1-404.2-92.3l116.7 56.2a83.1 83.1 0 1 0 158 36.1z" fill="#ffd166"/><path d="M-91.6-254.8a212.6 212.6 0 0 1 404.2 92.3l-152.4 0a60.2 60.2 0 0 0-114.4-26.1z" fill="#073b4c"/><path d="M132.6-162.5a32.6 32.6 0 1 1-65.2 0 32.6 32.6 0 1 1 65.2 0z" fill="#118ab2"/></svg>