<svg width="1200" height="675" viewBox="-500 -500 1200 675" xmlns="http://www.w3.org/2000/svg"><title>19010-10043768531</title><path d="M-500-500h1200v675h-1200z" fill="#112233"/><path d="M336.3-162.5a236.3 236.3 0 1 1-472.6 0 236.3 236.3 0 1 1 472.6 0z" fill="#14213d"/><path d="M312.6-162.5a212.6 212.6 0 0 1-146.9 202.2l-4.9-15a196.8 196.8 0 0 0 136-187.2z" fill="#e5e5e5"/><path d="M165.7 39.7a212.6 212.6 0 1 1 146.9-202.2l-182.7 0a29.9 29.9 0 1 0-20.7 28.4z" fill="#fca311"/><path d="M131.6-162.5a31.6 31.6 0 1 1-63.2 0 31.6 31.6 0 1 1 63.2 0z" fill="#ffffff"/></svg>