<svg width="1200" height="675" viewBox="-500 -500 1200 675" xmlns="http://www.w3.org/2000/svg"><title>19604-10208637821</title><path d="M-500-500h1200v675h-1200z" fill="#fff"/><path d="M336.3-162.5a236.3 236.3 0 1 1-472.6 0 236.3 236.3 0 1 1 472.6 0z" fill="#fff500"/><path d="M312.6-162.5a212.6 212.6 0 1 1-425.2 0 212.6 212.6 0 1 1 425.2 0z m-355.6 0a143 143 0 1 0 286 0 143 143 0 1 0-286 0z" fill="#c2e1ff"/><path d="M129.7-162.5a29.7 29.7 0 1 1-59.4 0 29.7 29.7 0 1 1 59.4 0z" fill="#005bbb"/></svg>