<svg width="1200" height="675" viewBox="-500 -500 1200 675" xmlns="http://www.w3.org/2000/svg"><title>19662-10245555351</title><path d="M-500-500h1200v675h-1200z" fill="#005bbb"/><path d="M336.3-162.5a236.3 236.3 0 1 1-472.6 0 236.3 236.3 0 1 1 472.6 0z" fill="#c2e1ff"/><path d="M312.6-162.5a212.6 212.6 0 1 1-425.2 0 212.6 212.6 0 1 1 425.2 0z m-372.4 0a159.8 159.8 0 1 0 319.6 0 159.8 159.8 0 1 0-319.6 0z" fill="#fff500"/><path d="M125.9-162.5a25.9 25.9 0 1 1-51.8 0 25.9 25.9 0 1 1 51.8 0z" fill="#fff"/></svg>