<svg width="1200" height="675" viewBox="-500 -500 1200 675" xmlns="http://www.w3.org/2000/svg"><title>18985-10032321980</title><path d="M-500-500h1200v675h-1200z" fill="#112233"/><path d="M336.3-162.5a236.3 236.3 0 1 1-472.6 0 236.3 236.3 0 1 1 472.6 0z" fill="#fca311"/><path d="M312.6-162.5a212.6 212.6 0 1 1-212.6-212.6l0 160.3a52.3 52.3 0 1 0 52.3 52.3z" fill="#e5e5e5"/><path d="M100-375.1a212.6 212.6 0 0 1 212.6 212.6l-81.1 0a131.5 131.5 0 0 0-131.5-131.5z" fill="#ffffff"/><path d="M134.1-162.5a34.1 34.1 0 1 1-68.2 0 34.1 34.1 0 1 1 68.2 0z" fill="#14213d"/></svg>