<svg width="1200" height="675" viewBox="-500 -500 1200 675" xmlns="http://www.w3.org/2000/svg"><title>18946-10009948113</title><path d="M-500-500h1200v675h-1200z" fill="#f77f00"/><path d="M336.3-162.5a236.3 236.3 0 1 1-472.6 0 236.3 236.3 0 1 1 472.6 0z" fill="#d62828"/><path d="M312.6-162.5a212.6 212.6 0 1 1-425.2 0l105.8 0a106.8 106.8 0 1 0 213.6 0z" fill="#eae2b7"/><path d="M-112.6-162.5a212.6 212.6 0 1 1 425.2 0l-19.3 0a193.3 193.3 0 1 0-386.6 0z" fill="#003049"/><path d="M134.6-162.5a34.6 34.6 0 1 1-69.2 0 34.6 34.6 0 1 1 69.2 0z" fill="#fcbf49"/></svg>