<svg width="1200" height="675" viewBox="-500 -500 1200 675" xmlns="http://www.w3.org/2000/svg"><title>18961-10003061597</title><path d="M-500-500h1200v675h-1200z" fill="#2a9d8f"/><path d="M336.3-162.5a236.3 236.3 0 1 1-472.6 0 236.3 236.3 0 1 1 472.6 0z" fill="#e76f51"/><path d="M312.6-162.5a212.6 212.6 0 0 1-318.9 184.1l23.1-40a166.4 166.4 0 0 0 249.6-144.1z" fill="#e9c46a"/><path d="M-6.3 21.6a212.6 212.6 0 1 1 318.9-184.1l-42 0a170.6 170.6 0 1 0-255.9 147.7z" fill="#264653"/><path d="M124.3-162.5a24.3 24.3 0 1 1-48.6 0 24.3 24.3 0 1 1 48.6 0z" fill="#f4a261"/></svg>