<svg width="1200" height="675" viewBox="-500 -500 1200 675" xmlns="http://www.w3.org/2000/svg"><title>18978-10026592080</title><path d="M-500-500h1200v675h-1200z" fill="#118ab2"/><path d="M336.3-162.5a236.3 236.3 0 1 1-472.6 0 236.3 236.3 0 1 1 472.6 0z" fill="#ffd166"/><path d="M312.6-162.5a212.6 212.6 0 1 1-384.6-125l59.6 43.3a139 139 0 1 0 251.4 81.7z" fill="#06d6a0"/><path d="M-72-287.5a212.6 212.6 0 0 1 384.6 125l-11.9 0a200.7 200.7 0 0 0-363.1-118z" fill="#ef476f"/><path d="M124.2-162.5a24.2 24.2 0 1 1-48.4 0 24.2 24.2 0 1 1 48.4 0z" fill="#073b4c"/></svg>