<svg width="1200" height="675" viewBox="-500 -500 1200 675" xmlns="http://www.w3.org/2000/svg"><title>19045</title><path d="M-500-500h1200v675h-1200z" fill="#000"/><path d="M233.3-221.4l-25.1 156.5-69.8-63 8.9-55.5z" fill="#FF7777"/><path d="M-136.6 20.5l516.9-78.5-259.3-96.7-38.7 5.9z" fill="#506D84"/><path d="M-5.1-217.8l210.5 109.9-56.9-29.5-96.8-50.5z" fill="#CEE5D0"/><path d="M312.3-136.6l-425-3.4 64.9-6.8 295.4 2.3z" fill="#FF7878"/><path d="M25.2 76.8l70.6-490 2.4 144.9-29.8 206.8z" fill="#D4B499"/><path d="M192.1-65.3l-177.3-200.5 19.6 23.9 136.5 154.2z" fill="#F3D5C0"/><path d="M389.7-119.9l-568.5-132 159.9 51.3 242.5 56.3z" fill="#889EAF"/></svg>