<svg width="1200" height="675" viewBox="-500 -500 1200 675" xmlns="http://www.w3.org/2000/svg"><path d="M-500-500h1200v675h-1200z" fill="#000"/><path d="M139.22794270001864,-404.693876984127A 39.375 39.375 0 0 0 60.77205729998136 -404.693876984127A 236 236 0 0 1 139.22794270001864 -404.693876984127" fill="#fff"/><path d="M100,-500V-447.46875" stroke="#fff" stroke-linecap="round" stroke-dasharray="0.01 10.5" stroke-width="7"/><path d="M-78.1-317.2l311.4-39.8a236.3 236.3 0 0 0-311.4 39.8" fill="#fff" /><path d="M-106-277.6l430.3 41.4a236.3 236.3 0 0 0-120.2-137.9l0 0-165.8-16a236.3 236.3 0 0 0-144.3 112.5" fill="#fff" /><path d="M-130.2-215.3l465 27.3a236.3 236.3 0 0 0-58-130.8l0 0-334-19.6a236.3 236.3 0 0 0-73 123.1" fill="#c2e1ff" /><path d="M-128.4-101.8l430.5 62.2a236.3 236.3 0 0 0 34.1-125.1l0 0-462-66.8a236.3 236.3 0 0 0-2.6 129.7" fill="#fff" /><path d="M-67.5 4.6l311 21.1a236.3 236.3 0 0 0 92.3-172.5l0 0-471.4-32.1a236.3 236.3 0 0 0 68.1 183.5" fill="#c2e1ff" /><path d="M24.3 61.8l232.4-47a236.3 236.3 0 0 0 79.5-172.9l0 0-452.4 91.4a236.3 236.3 0 0 0 140.5 128.5" fill="#005bbb" /><path d="M-83.5-13.2l277.2 68.1a236.3 236.3 0 0 1-277.2-68.1" fill="#fff" /></svg>