<svg width="1200" height="675" viewBox="-500 -500 1200 675" xmlns="http://www.w3.org/2000/svg"><path d="M-500-500h1200v675h-1200z" fill="#000"/><path d="M139.22794270001864,-404.693876984127A 39.375 39.375 0 0 0 60.77205729998136 -404.693876984127A 236 236 0 0 1 139.22794270001864 -404.693876984127" fill="#fff"/><path d="M100,-500V-447.46875" stroke="#fff" stroke-linecap="round" stroke-dasharray="0.01 10.5" stroke-width="7"/><path d="M-53.4-341.7l369.1 83.4a236.3 236.3 0 0 0-369.1-83.4" fill="#fff500" /><path d="M-102.2-284.2l437.2 146.4a236.3 236.3 0 0 0-114.7-227.5l0 0-93.9-31.5a236.3 236.3 0 0 0-228.6 112.6" fill="#fff500" /><path d="M-136.2-161.6l470.1-33.3a236.3 236.3 0 0 0-114.4-170.9l0 0-266.6 18.9a236.3 236.3 0 0 0-89.1 185.3" fill="#fff500" /><path d="M-135.7-178.7l442.3 131.2a236.3 236.3 0 0 0 26.2-154.6l0 0-406.1-120.4a236.3 236.3 0 0 0-62.4 143.8" fill="#c2e1ff" /><path d="M-55.6 15.8l251.9 37.9a236.3 236.3 0 0 0 132.3-156.1l0 0-464.6-70a236.3 236.3 0 0 0 80.4 188.2" fill="#fff500" /><path d="M79.2 73.3l103.8-14.1a236.3 236.3 0 0 0 144.1-156l0 0-428.5 58.3a236.3 236.3 0 0 0 180.6 111.8" fill="#fff500" /><path d="M-51.3 19.5l371.4-95.6a236.3 236.3 0 0 1-371.4 95.6" fill="#fff500" /></svg>