<svg width="1200" height="675" viewBox="-500 -500 1200 675" xmlns="http://www.w3.org/2000/svg"><path d="M-500-500h1200v675h-1200z" fill="#000"/><path d="M139.22794270001864,-404.693876984127A 39.375 39.375 0 0 0 60.77205729998136 -404.693876984127A 236 236 0 0 1 139.22794270001864 -404.693876984127" fill="#fff"/><path d="M100,-500V-447.46875" stroke="#fff" stroke-linecap="round" stroke-dasharray="0.01 10.5" stroke-width="7"/><path d="M7.1-379.2l270.7 61.7a236.3 236.3 0 0 0-270.7-61.7" fill="#fcbf49" /><path d="M-133.1-200.2l469.3 39.5a236.3 236.3 0 0 0-89.9-186.8l0 0-259.6-21.8a236.3 236.3 0 0 0-119.8 169.1" fill="#eae2b7" /><path d="M-125.2-90.5l442.7 20.8a236.3 236.3 0 0 0-1-186.8l0 0-423.2-19.9a236.3 236.3 0 0 0-18.5 185.9" fill="#003049" /><path d="M23.4 61.5l245-57.8a236.3 236.3 0 0 0 59.9-226.4l0 0-459.7 108.5a236.3 236.3 0 0 0 154.8 175.7" fill="#eae2b7" /><path d="M-16.9 43.3l326.4-96.1a236.3 236.3 0 0 1-326.4 96.1" fill="#eae2b7" /></svg>