<svg width="1200" height="675" viewBox="-500 -500 1200 675" xmlns="http://www.w3.org/2000/svg"><path d="M-500-500h1200v675h-1200z" fill="#000"/><path d="M139.22794270001864,-404.693876984127A 39.375 39.375 0 0 0 60.77205729998136 -404.693876984127A 236 236 0 0 1 139.22794270001864 -404.693876984127" fill="#fff"/><path d="M100,-500V-447.46875" stroke="#fff" stroke-linecap="round" stroke-dasharray="0.01 10.5" stroke-width="7"/><path d="M-55.2-340.1l352.2 47.7a236.3 236.3 0 0 0-352.2-47.7" fill="#c2e1ff" /><path d="M-38.2 29.6l265.1 7.7a236.3 236.3 0 0 0 92.7-286.5l0 0-433.8-12.5a236.3 236.3 0 0 0 76 291.3" fill="#fff" /><path d="M-122-81.1l422.8-205.4a236.3 236.3 0 0 1-422.8 205.4" fill="#005bbb" /></svg>