<svg width="1200" height="675" viewBox="-500 -500 1200 675" xmlns="http://www.w3.org/2000/svg"><path d="M-500-500h1200v675h-1200z" fill="#000"/><path d="M139.22794270001864,-404.693876984127A 39.375 39.375 0 0 0 60.77205729998136 -404.693876984127A 236 236 0 0 1 139.22794270001864 -404.693876984127" fill="#fff"/><path d="M100,-500V-447.46875" stroke="#fff" stroke-linecap="round" stroke-dasharray="0.01 10.5" stroke-width="7"/><path d="M-101.2-285.8l320.9-79.9a236.3 236.3 0 0 0-320.9 79.9" fill="#fff" /><path d="M-136.2-158.7l471.4 19.5a236.3 236.3 0 0 0-138.8-238.5l0 0-174.7-7.2a236.3 236.3 0 0 0-157.9 226.2" fill="#005bbb" /><path d="M-133.5-125.8l385.4 144.8a236.3 236.3 0 0 0 79.8-227l0 0-375.8-141.2a236.3 236.3 0 0 0-89.4 223.4" fill="#fff" /><path d="M-136.1-169.6l465.8 62.7a236.3 236.3 0 0 1-465.8-62.7" fill="#fff500" /><path d="M-52 18.8l320.9-15.7a236.3 236.3 0 0 1-320.9 15.7" fill="#005bbb" /></svg>