<svg width="1200" height="675" viewBox="-500 -500 1200 675" xmlns="http://www.w3.org/2000/svg"><path d="M-500-500h1200v675h-1200z" fill="#000"/><path d="M139.22794270001864,-404.693876984127A 39.375 39.375 0 0 0 60.77205729998136 -404.693876984127A 236 236 0 0 1 139.22794270001864 -404.693876984127" fill="#fff"/><path d="M100,-500V-447.46875" stroke="#fff" stroke-linecap="round" stroke-dasharray="0.01 10.5" stroke-width="7"/><path d="M33.5-388.7l248.1 75.6a236.3 236.3 0 0 0-248.1-75.6" fill="#fff" /><path d="M-136.2-163.6l457.5-81a236.3 236.3 0 0 0-153.9-143.8l0 0-208.4 36.8a236.3 236.3 0 0 0-95.2 188" fill="#c2e1ff" /><path d="M-97.6-32.5l433.8-127.2a236.3 236.3 0 0 0-43.4-138.9l0 0-428.8 125.7a236.3 236.3 0 0 0 38.4 140.4" fill="#005bbb" /><path d="M-83.7-13.4l343.2 25.7a236.3 236.3 0 0 0 75.2-201.4l0 0-462.7-34.6a236.3 236.3 0 0 0 44.3 210.3" fill="#005bbb" /><path d="M-124.7-89.2l451-5a236.3 236.3 0 0 1-451 5" fill="#c2e1ff" /><path d="M-121.5-79.7l419.6 46.5a236.3 236.3 0 0 1-419.6-46.5" fill="#c2e1ff" /></svg>