<svg width="1200" height="675" viewBox="-500 -500 1200 675" xmlns="http://www.w3.org/2000/svg"><path d="M-500-500h1200v675h-1200z" fill="#000"/><path d="M139.22794270001864,-404.693876984127A 39.375 39.375 0 0 0 60.77205729998136 -404.693876984127A 236 236 0 0 1 139.22794270001864 -404.693876984127" fill="#fff"/><path d="M100,-500V-447.46875" stroke="#fff" stroke-linecap="round" stroke-dasharray="0.01 10.5" stroke-width="7"/><path d="M-33.2-357.1l295.9 23.8a236.3 236.3 0 0 0-295.9-23.8" fill="#005bbb" /><path d="M-121.4-244.4l455.1 47.7a236.3 236.3 0 0 0-95.6-157l0 0-233.4-24.5a236.3 236.3 0 0 0-126.1 133.8" fill="#005bbb" /><path d="M-128.2-100.9l461.9-26.4a236.3 236.3 0 0 0-40.8-171.1l0 0-400 22.8a236.3 236.3 0 0 0-21.1 174.7" fill="#c2e1ff" /><path d="M-118.2-71.4l446.1-28.3a236.3 236.3 0 0 0-3.2-135.4l0 0-456.8 28.9a236.3 236.3 0 0 0 13.9 134.8" fill="#fff" /><path d="M-81.6-10.9l362.7 0.6a236.3 236.3 0 0 0 55-160.5l0 0-472.2-0.9a236.3 236.3 0 0 0 54.5 160.8" fill="#c2e1ff" /><path d="M-129.1-104.3l447 33.5a236.3 236.3 0 0 1-447-33.5" fill="#fff" /><path d="M-95.7-29.7l283.6 87a236.3 236.3 0 0 1-283.6-87" fill="#c2e1ff" /></svg>