<svg width="1200" height="675" viewBox="-500 -500 1200 675" xmlns="http://www.w3.org/2000/svg"><path d="M-500-500h1200v675h-1200z" fill="#000"/><path d="M139.22794270001864,-404.693876984127A 39.375 39.375 0 0 0 60.77205729998136 -404.693876984127A 236 236 0 0 1 139.22794270001864 -404.693876984127" fill="#fff"/><path d="M100,-500V-447.46875" stroke="#fff" stroke-linecap="round" stroke-dasharray="0.01 10.5" stroke-width="7"/><path d="M-131.1-211.2l428.1-81.2a236.3 236.3 0 0 0-428.1 81.2" fill="#005bbb" /><path d="M-136.2-158.9l464.6-63.4a236.3 236.3 0 0 0-464.6 63.4" fill="#005bbb" /><path d="M-131.8-207.5l461.7 100a236.3 236.3 0 0 0-28.9-178.7l0 0-332.7-72a236.3 236.3 0 0 0-100.1 150.7" fill="#005bbb" /><path d="M-115.2-64.5l409.5 36.9a236.3 236.3 0 0 0 41.5-149.3l0 0-465.1-42a236.3 236.3 0 0 0 14.1 154.4" fill="#c2e1ff" /><path d="M-98.8-34.3l435-133.1a236.3 236.3 0 0 1-435 133.1" fill="#fff500" /><path d="M-128.2-100.8l406.6 93.7a236.3 236.3 0 0 1-406.6-93.7" fill="#005bbb" /></svg>