<svg width="1200" height="675" viewBox="-500 -500 1200 675" xmlns="http://www.w3.org/2000/svg"><path d="M-500-500h1200v675h-1200z" fill="#000"/><path d="M139.22794270001864,-404.693876984127A 39.375 39.375 0 0 0 60.77205729998136 -404.693876984127A 236 236 0 0 1 139.22794270001864 -404.693876984127" fill="#fff"/><path d="M100,-500V-447.46875" stroke="#fff" stroke-linecap="round" stroke-dasharray="0.01 10.5" stroke-width="7"/><path d="M-52.8-342.2l259.8-30.4a236.3 236.3 0 0 0-259.8 30.4" fill="#2a9d8f" /><path d="M-135.6-179.4l454-72.7a236.3 236.3 0 0 0-156.9-138l0 0-191.1 30.6a236.3 236.3 0 0 0-106 180.1" fill="#f4a261" /><path d="M-136.2-158.5l463-69.7a236.3 236.3 0 0 0-83.1-121.3l0 0-336.2 50.6a236.3 236.3 0 0 0-43.7 140.4" fill="#e76f51" /><path d="M-125.8-92.4l459.2-33.3a236.3 236.3 0 0 0-25.9-149.3l0 0-429.1 31.1a236.3 236.3 0 0 0-4.2 151.5" fill="#264653" /><path d="M-129.3-105l393.2 113.1a236.3 236.3 0 0 0 65.3-112.9l0 0-453.8-130.5a236.3 236.3 0 0 0-4.7 130.3" fill="#e9c46a" /><path d="M-57.8 13.8l346.5-33.6a236.3 236.3 0 0 0 46.6-121l0 0-462.1 44.9a236.3 236.3 0 0 0 69 109.7" fill="#e76f51" /><path d="M-111.2-56.1l407.3 25.8a236.3 236.3 0 0 1-407.3-25.8" fill="#2a9d8f" /><path d="M-58 13.6l320.4-4a236.3 236.3 0 0 1-320.4 4" fill="#f4a261" /></svg>