<svg width="1200" height="675" viewBox="-500 -500 1200 675" xmlns="http://www.w3.org/2000/svg"><path d="M-500-500h1200v675h-1200z" fill="#000"/><path d="M139.22794270001864,-404.693876984127A 39.375 39.375 0 0 0 60.77205729998136 -404.693876984127A 236 236 0 0 1 139.22794270001864 -404.693876984127" fill="#fff"/><path d="M100,-500V-447.46875" stroke="#fff" stroke-linecap="round" stroke-dasharray="0.01 10.5" stroke-width="7"/><path d="M7.5-379.4l283.1 77.8a236.3 236.3 0 0 0-283.1-77.8" fill="#fff" /><path d="M-125.2-233.3l416.7-67.1a236.3 236.3 0 0 0-148.6-93.9l0 0-156.6 25.2a236.3 236.3 0 0 0-111.5 135.8" fill="#005bbb" /><path d="M-133.8-128.1l465.6-79.4a236.3 236.3 0 0 0-54.8-111l0 0-395.9 67.5a236.3 236.3 0 0 0-14.9 122.9" fill="#c2e1ff" /><path d="M-129.8-107.2l450.7 28.9a236.3 236.3 0 0 0 6.6-147.4l0 0-445-28.6a236.3 236.3 0 0 0-12.3 147.1" fill="#fff500" /><path d="M-125.8-92.4l415.8 70.7a236.3 236.3 0 0 0 46.1-132.7l0 0-461.4-78.5a236.3 236.3 0 0 0-0.5 140.5" fill="#005bbb" /><path d="M-8.8 47.7l283.2-50.3a236.3 236.3 0 0 0 61.4-174l0 0-462.2 82.1a236.3 236.3 0 0 0 117.6 142.2" fill="#005bbb" /><path d="M120 73.4l53.2-10.8a236.3 236.3 0 0 0 152.1-153.6l0 0-405.2 82.1a236.3 236.3 0 0 0 199.9 82.3" fill="#005bbb" /><path d="M-126.2-94l373 117.1a236.3 236.3 0 0 1-373-117.1" fill="#fff500" /></svg>