<svg width="1200" height="675" viewBox="-500 -500 1200 675" xmlns="http://www.w3.org/2000/svg"><path d="M-500-500h1200v675h-1200z" fill="#000"/><path d="M139.22794270001864,-404.693876984127A 39.375 39.375 0 0 0 60.77205729998136 -404.693876984127A 236 236 0 0 1 139.22794270001864 -404.693876984127" fill="#fff"/><path d="M100,-500V-447.46875" stroke="#fff" stroke-linecap="round" stroke-dasharray="0.01 10.5" stroke-width="7"/><path d="M-80.1-314.9l358.4-2.1a236.3 236.3 0 0 0-358.4 2.1" fill="#c2e1ff" /><path d="M-126.9-227.9l425.3-62.4a236.3 236.3 0 0 0-425.3 62.4" fill="#c2e1ff" /><path d="M-134.7-188.7l460.3-43.3a236.3 236.3 0 0 0-64.3-102.6l0 0-352 33.2a236.3 236.3 0 0 0-44 112.7" fill="#005bbb" /><path d="M-132.9-122.2l468.6-55.9a236.3 236.3 0 0 0-52.5-133.1l0 0-396.3 47.3a236.3 236.3 0 0 0-19.8 141.7" fill="#c2e1ff" /><path d="M-120.7-77.7l436.2 12.5a236.3 236.3 0 0 0 18.1-131.9l0 0-464.8-13.3a236.3 236.3 0 0 0 10.5 132.7" fill="#c2e1ff" /><path d="M-30.6 34.9l330.9-71.6a236.3 236.3 0 0 0 35.8-116.4l0 0-447.4 96.8a236.3 236.3 0 0 0 80.7 91.2" fill="#005bbb" /><path d="M-95.2-28.9l368.4 27.5a236.3 236.3 0 0 1-368.4-27.5" fill="#fff500" /><path d="M-96-30.1l348.9 48.2a236.3 236.3 0 0 1-348.9-48.2" fill="#fff500" /></svg>