<svg width="1200" height="675" viewBox="-500 -500 1200 675" xmlns="http://www.w3.org/2000/svg"><path d="M-500-500h1200v675h-1200z" fill="#000"/><path d="M139.22794270001864,-404.693876984127A 39.375 39.375 0 0 0 60.77205729998136 -404.693876984127A 236 236 0 0 1 139.22794270001864 -404.693876984127" fill="#fff"/><path d="M100,-500V-447.46875" stroke="#fff" stroke-linecap="round" stroke-dasharray="0.01 10.5" stroke-width="7"/><path d="M-86.8-306.6l422.1 123.5a236.3 236.3 0 0 0-422.1-123.5" fill="#fff500" /><path d="M-136.2-158l472.2 6.4a236.3 236.3 0 0 0-116.4-214.1l0 0-233.6-3.2a236.3 236.3 0 0 0-122.2 210.9" fill="#fff" /><path d="M-131.4-114.2l382.2 134a236.3 236.3 0 0 0 85.4-186.8l0 0-417.6-146.4a236.3 236.3 0 0 0-50 199.2" fill="#fff" /><path d="M91.6 74.1l136.2-37.4a236.3 236.3 0 0 0 108.2-208.7l0 0-444 122a236.3 236.3 0 0 0 199.6 124.1" fill="#fff" /><path d="M-73-1.1l356.8-12.5a236.3 236.3 0 0 1-356.8 12.5" fill="#fff" /></svg>