<svg width="1200" height="675" viewBox="-500 -500 1200 675" xmlns="http://www.w3.org/2000/svg"><path d="M-500-500h1200v675h-1200z" fill="#000"/><path d="M139.22794270001864,-404.693876984127A 39.375 39.375 0 0 0 60.77205729998136 -404.693876984127A 236 236 0 0 1 139.22794270001864 -404.693876984127" fill="#fff"/><path d="M100,-500V-447.46875" stroke="#fff" stroke-linecap="round" stroke-dasharray="0.01 10.5" stroke-width="7"/><path d="M-117.5-254.2l403.8-53.1a236.3 236.3 0 0 0-403.8 53.1" fill="#c2e1ff" /><path d="M-128.2-223.3l461.9 26.4a236.3 236.3 0 0 0-101.1-160.7l0 0-242-13.8a236.3 236.3 0 0 0-118.8 148.1" fill="#005bbb" /><path d="M-134.8-188.2l457.6 104.9a236.3 236.3 0 0 0 4.2-144.2l0 0-402.8-92.3a236.3 236.3 0 0 0-59 131.6" fill="#005bbb" /><path d="M-118.1-71.2l414.4 40.6a236.3 236.3 0 0 0 37.2-167.3l0 0-455.6-44.7a236.3 236.3 0 0 0 4 171.4" fill="#c2e1ff" /><path d="M-109.8-53.4l377.3 58a236.3 236.3 0 0 0 64.1-119.7l0 0-466.5-71.7a236.3 236.3 0 0 0 25.1 133.4" fill="#c2e1ff" /><path d="M-112.6-58.9l429.4-9.2a236.3 236.3 0 0 1-429.4 9.2" fill="#005bbb" /><path d="M-14.5 44.6l296.1-55.5a236.3 236.3 0 0 1-296.1 55.5" fill="#fff" /></svg>