<svg width="1200" height="675" viewBox="-500 -500 1200 675" xmlns="http://www.w3.org/2000/svg"><path d="M-500-500h1200v675h-1200z" fill="#000"/><path d="M139.22794270001864,-404.693876984127A 39.375 39.375 0 0 0 60.77205729998136 -404.693876984127A 236 236 0 0 1 139.22794270001864 -404.693876984127" fill="#fff"/><path d="M100,-500V-447.46875" stroke="#fff" stroke-linecap="round" stroke-dasharray="0.01 10.5" stroke-width="7"/><path d="M-50.3-344.3l368.5 91.8a236.3 236.3 0 0 0-368.5-91.8" fill="#F3D5C0" /><path d="M-132.5-203.8l459.5 107.4a236.3 236.3 0 0 0-27.3-191.8l0 0-322.7-75.5a236.3 236.3 0 0 0-109.5 159.9" fill="#506D84" /><path d="M-132.6-120.6l454.5 39.8a236.3 236.3 0 0 0-42.7-235.2l0 0-328.9-28.8a236.3 236.3 0 0 0-82.9 224.2" fill="#FF7878" /><path d="M-112.6-58.9l261.3 128.1a236.3 236.3 0 0 0 184.5-193.1l0 0-406.2-199a236.3 236.3 0 0 0-39.6 264" fill="#CEE5D0" /><path d="M-106.9-47.9l442.6-98.6a236.3 236.3 0 0 1-442.6 98.6" fill="#FF7777" /></svg>