<svg width="1200" height="675" viewBox="-500 -500 1200 675" xmlns="http://www.w3.org/2000/svg"><path d="M-500-500h1200v675h-1200z" fill="#000"/><path d="M139.22794270001864,-404.693876984127A 39.375 39.375 0 0 0 60.77205729998136 -404.693876984127A 236 236 0 0 1 139.22794270001864 -404.693876984127" fill="#fff"/><path d="M100,-500V-447.46875" stroke="#fff" stroke-linecap="round" stroke-dasharray="0.01 10.5" stroke-width="7"/><path d="M-131-211.7l441.6-57.3a236.3 236.3 0 0 0-441.6 57.3" fill="#c2e1ff" /><path d="M127.1 72.7l81.9-25.1a236.3 236.3 0 0 0 71.7-361.8l0 0-415.6 127.3a236.3 236.3 0 0 0 262 259.6" fill="#fff500" /><path d="M-124.3-87.9l323.5 140.3a236.3 236.3 0 0 1-323.5-140.3" fill="#005bbb" /></svg>