<svg width="1200" height="675" viewBox="-500 -500 1200 675" xmlns="http://www.w3.org/2000/svg"><path d="M-500-500h1200v675h-1200z" fill="#000"/><path d="M139.22794270001864,-404.693876984127A 39.375 39.375 0 0 0 60.77205729998136 -404.693876984127A 236 236 0 0 1 139.22794270001864 -404.693876984127" fill="#fff"/><path d="M100,-500V-447.46875" stroke="#fff" stroke-linecap="round" stroke-dasharray="0.01 10.5" stroke-width="7"/><path d="M-131.4-209.7l401.6-116.2a236.3 236.3 0 0 0-401.6 116.2" fill="#fff500" /><path d="M-127.8-224.6l463.3 44.1a236.3 236.3 0 0 0-182.4-211.7l0 0-61.8-5.9a236.3 236.3 0 0 0-219.1 173.5" fill="#fff500" /><path d="M-135.9-149.9l470.8 13.4a236.3 236.3 0 0 0-69.8-194.5l0 0-320.3-9.1a236.3 236.3 0 0 0-80.7 190.2" fill="#c2e1ff" /><path d="M-82.8-12.4l312.8 47.7a236.3 236.3 0 0 0 105.3-176.6l0 0-466.1-71a236.3 236.3 0 0 0 48 199.9" fill="#c2e1ff" /><path d="M-59.1 12.6l201.4 57.8a236.3 236.3 0 0 0 179.4-150.8l0 0-452.9-130a236.3 236.3 0 0 0 72.1 223" fill="#c2e1ff" /><path d="M-111.6-56.8l287.6 118.5a236.3 236.3 0 0 1-287.6-118.5" fill="#005bbb" /></svg>