<svg width="1200" height="675" viewBox="-500 -500 1200 675" xmlns="http://www.w3.org/2000/svg"><path d="M-500-500h1200v675h-1200z" fill="#000"/><path d="M139.22794270001864,-404.693876984127A 39.375 39.375 0 0 0 60.77205729998136 -404.693876984127A 236 236 0 0 1 139.22794270001864 -404.693876984127" fill="#fff"/><path d="M100,-500V-447.46875" stroke="#fff" stroke-linecap="round" stroke-dasharray="0.01 10.5" stroke-width="7"/><path d="M-105.3-278.8l391.1-29.1a236.3 236.3 0 0 0-391.1 29.1" fill="#005bbb" /><path d="M-99.8-288.1l434.9 102.7a236.3 236.3 0 0 0-137.7-191.9l0 0-88.2-20.8a236.3 236.3 0 0 0-209 110" fill="#c2e1ff" /><path d="M-133.1-200.3l457.8-34.6a236.3 236.3 0 0 0-86.9-119l0 0-302.9 22.9a236.3 236.3 0 0 0-68 130.7" fill="#fff500" /><path d="M-135.8-147.7l437.6 108.5a236.3 236.3 0 0 0 29.2-172.1l0 0-412.2-102.3a236.3 236.3 0 0 0-54.6 165.9" fill="#fff500" /><path d="M-91.8-24.1l308.1 67.8a236.3 236.3 0 0 0 109.2-135.3l0 0-459.7-101.1a236.3 236.3 0 0 0 42.4 168.6" fill="#c2e1ff" /><path d="M27.4 62.8l220.4-40.5a236.3 236.3 0 0 0 88.1-172.2l0 0-452.1 83.1a236.3 236.3 0 0 0 143.6 129.6" fill="#c2e1ff" /><path d="M-84.9-15l327.7 41.2a236.3 236.3 0 0 1-327.7-41.2" fill="#fff500" /></svg>