<svg width="1200" height="675" viewBox="-500 -500 1200 675" xmlns="http://www.w3.org/2000/svg"><path d="M-500-500h1200v675h-1200z" fill="#000"/><path d="M139.22794270001864,-404.693876984127A 39.375 39.375 0 0 0 60.77205729998136 -404.693876984127A 236 236 0 0 1 139.22794270001864 -404.693876984127" fill="#fff"/><path d="M100,-500V-447.46875" stroke="#fff" stroke-linecap="round" stroke-dasharray="0.01 10.5" stroke-width="7"/><path d="M-100.1-287.6l434.3 94.3a236.3 236.3 0 0 0-434.3-94.3" fill="#005bbb" /><path d="M-127.9-224.3l463.8 75.7a236.3 236.3 0 0 0-463.8-75.7" fill="#c2e1ff" /><path d="M-125.3-233.2l461.5 65.8a236.3 236.3 0 0 1-461.5-65.8" fill="#c2e1ff" /><path d="M-136.1-171.1l399.2 180a236.3 236.3 0 0 1-399.2-180" fill="#fff" /></svg>