<svg width="1200" height="675" viewBox="-500 -500 1200 675" xmlns="http://www.w3.org/2000/svg"><path d="M-500-500h1200v675h-1200z" fill="#000"/><path d="M139.22794270001864,-404.693876984127A 39.375 39.375 0 0 0 60.77205729998136 -404.693876984127A 236 236 0 0 1 139.22794270001864 -404.693876984127" fill="#fff"/><path d="M100,-500V-447.46875" stroke="#fff" stroke-linecap="round" stroke-dasharray="0.01 10.5" stroke-width="7"/><path d="M-54.7-340.5l350 45.5a236.3 236.3 0 0 0-350-45.5" fill="#fff" /><path d="M-106-277.6l434.5 55.6a236.3 236.3 0 0 0-87.1-129.2l0 0-230.6-29.6a236.3 236.3 0 0 0-116.8 103.2" fill="#fff500" /><path d="M-130.2-215.2l458.8-6.4a236.3 236.3 0 0 0-129.4-154.8l0 0-204.4 2.9a236.3 236.3 0 0 0-125 158.3" fill="#c2e1ff" /><path d="M-133.3-124.8l454.3 46.4a236.3 236.3 0 0 0 11.2-127.4l0 0-450.7-46a236.3 236.3 0 0 0-14.8 127" fill="#fff500" /><path d="M-117-68.6l384.5 73.2a236.3 236.3 0 0 0 66.1-131l0 0-463.9-88.4a236.3 236.3 0 0 0 13.3 146.2" fill="#005bbb" /><path d="M-80.1-9.1l356.6 4.1a236.3 236.3 0 0 0 58.9-136.9l0 0-471.2-5.5a236.3 236.3 0 0 0 55.7 138.3" fill="#fff" /><path d="M37.6 65.9l201.6-37a236.3 236.3 0 0 0 93.7-151l0 0-436.4 80.1a236.3 236.3 0 0 0 141.1 107.9" fill="#fff" /><path d="M8.2 55.7l245.2-38a236.3 236.3 0 0 1-245.2 38" fill="#c2e1ff" /></svg>