<svg width="1200" height="675" viewBox="-500 -500 1200 675" xmlns="http://www.w3.org/2000/svg"><path d="M-500-500h1200v675h-1200z" fill="#000"/><path d="M139.22794270001864,-404.693876984127A 39.375 39.375 0 0 0 60.77205729998136 -404.693876984127A 236 236 0 0 1 139.22794270001864 -404.693876984127" fill="#fff"/><path d="M100,-500V-447.46875" stroke="#fff" stroke-linecap="round" stroke-dasharray="0.01 10.5" stroke-width="7"/><path d="M-135.8-176.3l449.9-85.7a236.3 236.3 0 0 0-449.9 85.7" fill="#fff500" /><path d="M-128.1-100.6l462-94.6a236.3 236.3 0 0 0-462 94.6" fill="#c2e1ff" /><path d="M5.8 54.6l177.7 4.4a236.3 236.3 0 0 0 133.5-314.5l0 0-429.1-10.5a236.3 236.3 0 0 0 117.9 320.6" fill="#c2e1ff" /><path d="M-99.1-34.8l435.3-121.4a236.3 236.3 0 0 1-435.3 121.4" fill="#fff500" /></svg>