<svg width="1200" height="675" viewBox="-500 -500 1200 675" xmlns="http://www.w3.org/2000/svg"><path d="M-500-500h1200v675h-1200z" fill="#000"/><path d="M139.22794270001864,-404.693876984127A 39.375 39.375 0 0 0 60.77205729998136 -404.693876984127A 236 236 0 0 1 139.22794270001864 -404.693876984127" fill="#fff"/><path d="M100,-500V-447.46875" stroke="#fff" stroke-linecap="round" stroke-dasharray="0.01 10.5" stroke-width="7"/><path d="M5.3-378.4l312.2 124.3a236.3 236.3 0 0 0-312.2-124.3" fill="#c2e1ff" /><path d="M-136.2-168.5l447.6-99a236.3 236.3 0 0 0-129.9-116.2l0 0-249 55.1a236.3 236.3 0 0 0-68.7 160.1" fill="#fff500" /><path d="M-122.3-82l427.6 36.9a236.3 236.3 0 0 0 13.5-206l0 0-419.1-36.2a236.3 236.3 0 0 0-22 205.3" fill="#fff500" /><path d="M-123.9-86.5l340 130.3a236.3 236.3 0 0 0 119.1-184l0 0-424.8-162.8a236.3 236.3 0 0 0-34.3 216.5" fill="#fff" /><path d="M28.4 63.2l188.3-19.8a236.3 236.3 0 0 0 119.5-202l0 0-466.6 48.9a236.3 236.3 0 0 0 158.8 172.9" fill="#005bbb" /><path d="M-127.1-96.7l350.5 136.2a236.3 236.3 0 0 1-350.5-136.2" fill="#c2e1ff" /></svg>