<svg width="1200" height="675" viewBox="-500 -500 1200 675" xmlns="http://www.w3.org/2000/svg"><path d="M-500-500h1200v675h-1200z" fill="#000"/><path d="M139.22794270001864,-404.693876984127A 39.375 39.375 0 0 0 60.77205729998136 -404.693876984127A 236 236 0 0 1 139.22794270001864 -404.693876984127" fill="#fff"/><path d="M100,-500V-447.46875" stroke="#fff" stroke-linecap="round" stroke-dasharray="0.01 10.5" stroke-width="7"/><path d="M-104.8-279.7l375.9-45.2a236.3 236.3 0 0 0-375.9 45.2" fill="#fff" /><path d="M12.2 57.3l323.8-231.1a236.3 236.3 0 0 0-184.2-218.7l0 0-286.6 204.6a236.3 236.3 0 0 0 147 245.2" fill="#005bbb" /><path d="M-125.6-91.9l407.1-221.3a236.3 236.3 0 0 1-407.1 221.3" fill="#fff" /></svg>