<svg width="1200" height="675" viewBox="-500 -500 1200 675" xmlns="http://www.w3.org/2000/svg"><path d="M-500-500h1200v675h-1200z" fill="#000"/><path d="M139.22794270001864,-404.693876984127A 39.375 39.375 0 0 0 60.77205729998136 -404.693876984127A 236 236 0 0 1 139.22794270001864 -404.693876984127" fill="#fff"/><path d="M100,-500V-447.46875" stroke="#fff" stroke-linecap="round" stroke-dasharray="0.01 10.5" stroke-width="7"/><path d="M-75.9-319.8l382.9 43.9a236.3 236.3 0 0 0-382.9-43.9" fill="#005bbb" /><path d="M-132.2-118.6l468.2-53.2a236.3 236.3 0 0 0-468.2 53.2" fill="#c2e1ff" /><path d="M-124.9-89.7l443.9-160.8a236.3 236.3 0 0 1-443.9 160.8" fill="#c2e1ff" /><path d="M-131.6-115.3l454.2 32.4a236.3 236.3 0 0 1-454.2-32.4" fill="#fff" /></svg>