<svg width="1200" height="675" viewBox="-500 -500 1200 675" xmlns="http://www.w3.org/2000/svg"><path d="M-500-500h1200v675h-1200z" fill="#000"/><path d="M139.22794270001864,-404.693876984127A 39.375 39.375 0 0 0 60.77205729998136 -404.693876984127A 236 236 0 0 1 139.22794270001864 -404.693876984127" fill="#fff"/><path d="M100,-500V-447.46875" stroke="#fff" stroke-linecap="round" stroke-dasharray="0.01 10.5" stroke-width="7"/><path d="M-73-322.9l400.3 225.4a236.3 236.3 0 0 0-400.3-225.4" fill="#fff" /><path d="M-98.8-34.3l427.4-68.1a236.3 236.3 0 0 0-43.6-206.5l0 0-406.5 64.8a236.3 236.3 0 0 0 22.7 209.8" fill="#c2e1ff" /><path d="M9 56l306.6-121.5a236.3 236.3 0 0 0-18-226l0 0-430.3 170.6a236.3 236.3 0 0 0 141.7 176.9" fill="#005bbb" /><path d="M-71.1 0.9l367.5-31.6a236.3 236.3 0 0 1-367.5 31.6" fill="#fff" /></svg>