<svg width="1200" height="675" viewBox="-500 -500 1200 675" xmlns="http://www.w3.org/2000/svg"><path d="M-500-500h1200v675h-1200z" fill="#000"/><path d="M139.22794270001864,-404.693876984127A 39.375 39.375 0 0 0 60.77205729998136 -404.693876984127A 236 236 0 0 1 139.22794270001864 -404.693876984127" fill="#fff"/><path d="M100,-500V-447.46875" stroke="#fff" stroke-linecap="round" stroke-dasharray="0.01 10.5" stroke-width="7"/><path d="M-27.7-360.8l312 50.9a236.3 236.3 0 0 0-312-50.9" fill="#005bbb" /><path d="M-96-293.8l432.2 134a236.3 236.3 0 0 0-432.2-134" fill="#005bbb" /><path d="M-131.3-114.1l465-13.2a236.3 236.3 0 0 0-33.8-160.6l0 0-406.6 11.5a236.3 236.3 0 0 0-24.6 162.3" fill="#005bbb" /><path d="M-125.5-91.7l353.3 128.4a236.3 236.3 0 0 0 101.4-141.4l0 0-441.7-160.4a236.3 236.3 0 0 0-13 173.4" fill="#fff500" /><path d="M37.2 65.8l228.9-59.8a236.3 236.3 0 0 0 67.1-206.1l0 0-455.2 118.9a236.3 236.3 0 0 0 159.2 147" fill="#c2e1ff" /><path d="M-39.1 29l341.2-68.6a236.3 236.3 0 0 1-341.2 68.6" fill="#c2e1ff" /></svg>