<svg width="1200" height="675" viewBox="-500 -500 1200 675" xmlns="http://www.w3.org/2000/svg"><path d="M-500-500h1200v675h-1200z" fill="#000"/><path d="M139.22794270001864,-404.693876984127A 39.375 39.375 0 0 0 60.77205729998136 -404.693876984127A 236 236 0 0 1 139.22794270001864 -404.693876984127" fill="#fff"/><path d="M100,-500V-447.46875" stroke="#fff" stroke-linecap="round" stroke-dasharray="0.01 10.5" stroke-width="7"/><path d="M-98.3-290.4l347.7-54.6a236.3 236.3 0 0 0-347.7 54.6" fill="#fff" /><path d="M-112.9-264.4l437.9 30.3a236.3 236.3 0 0 0-437.9-30.3" fill="#fff" /><path d="M-124.4-88.2l452.3-136.1a236.3 236.3 0 0 0-104.6-139.2l0 0-337.3 101.4a236.3 236.3 0 0 0-10.4 173.9" fill="#fff" /><path d="M-102.5-40.3l404.6 0.6a236.3 236.3 0 0 0 18.3-207.4l0 0-440.5-0.6a236.3 236.3 0 0 0 17.6 207.4" fill="#c2e1ff" /><path d="M-132.1-117.8l468.3-40.5a236.3 236.3 0 0 1-468.3 40.5" fill="#fff" /><path d="M-75.4-3.7l382.6-44.7a236.3 236.3 0 0 1-382.6 44.7" fill="#fff500" /></svg>