<svg width="1200" height="675" viewBox="-500 -500 1200 675" xmlns="http://www.w3.org/2000/svg"><path d="M-500-500h1200v675h-1200z" fill="#000"/><path d="M139.22794270001864,-404.693876984127A 39.375 39.375 0 0 0 60.77205729998136 -404.693876984127A 236 236 0 0 1 139.22794270001864 -404.693876984127" fill="#fff"/><path d="M100,-500V-447.46875" stroke="#fff" stroke-linecap="round" stroke-dasharray="0.01 10.5" stroke-width="7"/><path d="M-59.8-336l239.7-48.3a236.3 236.3 0 0 0-239.7 48.3" fill="#c2e1ff" /><path d="M-109.6-270.9l441.9 66.1a236.3 236.3 0 0 0-95.5-149.8l0 0-211.3-31.6a236.3 236.3 0 0 0-135.1 115.3" fill="#fff" /><path d="M-133.7-127.6l469.9-36.7a236.3 236.3 0 0 0-51.4-144.9l0 0-390.2 30.5a236.3 236.3 0 0 0-28.3 151.1" fill="#fff500" /><path d="M-135.4-142.3l431.1 112.6a236.3 236.3 0 0 0 37.2-172.1l0 0-416.6-108.8a236.3 236.3 0 0 0-51.7 168.3" fill="#005bbb" /><path d="M-39.1 29l292.4-11.3a236.3 236.3 0 0 0 82.9-186l0 0-472.2 18.1a236.3 236.3 0 0 0 96.9 179.2" fill="#fff500" /><path d="M-110.3-54.4l443.9-72.3a236.3 236.3 0 0 1-443.9 72.3" fill="#fff" /><path d="M-89.7-21.2l403.1-39.4a236.3 236.3 0 0 1-403.1 39.4" fill="#fff" /></svg>