<svg width="1200" height="675" viewBox="-500 -500 1200 675" xmlns="http://www.w3.org/2000/svg"><path d="M-500-500h1200v675h-1200z" fill="#000"/><path d="M139.22794270001864,-404.693876984127A 39.375 39.375 0 0 0 60.77205729998136 -404.693876984127A 236 236 0 0 1 139.22794270001864 -404.693876984127" fill="#fff"/><path d="M100,-500V-447.46875" stroke="#fff" stroke-linecap="round" stroke-dasharray="0.01 10.5" stroke-width="7"/><path d="M-101.8-284.9l344.5-65.4a236.3 236.3 0 0 0-344.5 65.4" fill="#c2e1ff" /><path d="M-136.2-156.4l466.7-57.2a236.3 236.3 0 0 0-133.1-163.6l0 0-244 29.9a236.3 236.3 0 0 0-89.6 190.9" fill="#fff" /><path d="M-97.3-32.1l433.2-117.6a236.3 236.3 0 0 0-63.7-174l0 0-402.6 109.3a236.3 236.3 0 0 0 33.1 182.3" fill="#fff500" /><path d="M-134.6-134.3l468 9.1a236.3 236.3 0 0 1-468-9.1" fill="#fff" /><path d="M6 54.7l293-89.4a236.3 236.3 0 0 1-293 89.4" fill="#c2e1ff" /></svg>