<svg width="1200" height="675" viewBox="-500 -500 1200 675" xmlns="http://www.w3.org/2000/svg"><path d="M-500-500h1200v675h-1200z" fill="#000"/><path d="M139.22794270001864,-404.693876984127A 39.375 39.375 0 0 0 60.77205729998136 -404.693876984127A 236 236 0 0 1 139.22794270001864 -404.693876984127" fill="#fff"/><path d="M100,-500V-447.46875" stroke="#fff" stroke-linecap="round" stroke-dasharray="0.01 10.5" stroke-width="7"/><path d="M-40.7-351.7l370.8 136a236.3 236.3 0 0 0-370.8-136" fill="#c2e1ff" /><path d="M-132.3-118.8l466.8-71.6a236.3 236.3 0 0 0-117.4-176.8l0 0-290.3 44.6a236.3 236.3 0 0 0-59.1 203.8" fill="#c2e1ff" /><path d="M-124.6-88.8l428.7 45.8a236.3 236.3 0 0 0 8.1-222.9l0 0-397.6-42.5a236.3 236.3 0 0 0-39.2 219.6" fill="#005bbb" /><path d="M118.1 73.6l124.8-47.5a236.3 236.3 0 0 0 68.3-294l0 0-439.4 167.1a236.3 236.3 0 0 0 246.3 174.4" fill="#fff" /><path d="M-128-100.3l359.9 134.3a236.3 236.3 0 0 1-359.9-134.3" fill="#fff500" /></svg>