<svg width="1200" height="675" viewBox="-500 -500 1200 675" xmlns="http://www.w3.org/2000/svg"><path d="M-500-500h1200v675h-1200z" fill="#000"/><path d="M139.22794270001864,-404.693876984127A 39.375 39.375 0 0 0 60.77205729998136 -404.693876984127A 236 236 0 0 1 139.22794270001864 -404.693876984127" fill="#fff"/><path d="M100,-500V-447.46875" stroke="#fff" stroke-linecap="round" stroke-dasharray="0.01 10.5" stroke-width="7"/><path d="M-135.9-174.3l422.2-133a236.3 236.3 0 0 0-422.2 133" fill="#c2e1ff" /><path d="M-114.7-260.6l448.9 67.8a236.3 236.3 0 0 0-448.9-67.8" fill="#fff500" /><path d="M-122.3-242l452.6 132.5a236.3 236.3 0 0 0-22.9-165.6l0 0-321-94a236.3 236.3 0 0 0-108.7 127.1" fill="#fff500" /><path d="M-120.3-76.7l444.5-10.7a236.3 236.3 0 0 0 2.6-140.6l0 0-456.6 11a236.3 236.3 0 0 0 9.5 140.3" fill="#fff500" /><path d="M3.6 53.7l105.3 20.4a236.3 236.3 0 0 0 197.5-121.2l0 0-440.8-85.3a236.3 236.3 0 0 0 138 186.1" fill="#fff" /><path d="M-46.9 23l354.3-71.9a236.3 236.3 0 0 1-354.3 71.9" fill="#fff" /></svg>