<svg width="1200" height="675" viewBox="-500 -500 1200 675" xmlns="http://www.w3.org/2000/svg"><path d="M-500-500h1200v675h-1200z" fill="#000"/><path d="M139.22794270001864,-404.693876984127A 39.375 39.375 0 0 0 60.77205729998136 -404.693876984127A 236 236 0 0 1 139.22794270001864 -404.693876984127" fill="#fff"/><path d="M100,-500V-447.46875" stroke="#fff" stroke-linecap="round" stroke-dasharray="0.01 10.5" stroke-width="7"/><path d="M-103.7-281.7l435.2 166.9a236.3 236.3 0 0 0-435.2-166.9" fill="#fff500" /><path d="M-53.7 17.4l297.4 8.1a236.3 236.3 0 0 0 2.6-373l0 0-282.3-7.7a236.3 236.3 0 0 0-17.7 372.6" fill="#c2e1ff" /><path d="M-58.4-337.3l370.4 279.5a236.3 236.3 0 0 1-370.4-279.5" fill="#005bbb" /></svg>