<svg width="1200" height="675" viewBox="-500 -500 1200 675" xmlns="http://www.w3.org/2000/svg"><path d="M-500-500h1200v675h-1200z" fill="#000"/><path d="M139.22794270001864,-404.693876984127A 39.375 39.375 0 0 0 60.77205729998136 -404.693876984127A 236 236 0 0 1 139.22794270001864 -404.693876984127" fill="#fff"/><path d="M100,-500V-447.46875" stroke="#fff" stroke-linecap="round" stroke-dasharray="0.01 10.5" stroke-width="7"/><path d="M-65.5-330.6l401.4 155.4a236.3 236.3 0 0 0-401.4-155.4" fill="#fff500" /><path d="M-120.2-247.5l456.4 89a236.3 236.3 0 0 0-120.6-209.5l0 0-145.3-28.4a236.3 236.3 0 0 0-190.5 148.9" fill="#fff500" /><path d="M-126-93.2l455.9-14.4a236.3 236.3 0 0 0-62.1-220.7l0 0-345.7 10.9a236.3 236.3 0 0 0-48.1 224.2" fill="#005bbb" /><path d="M-133.3-124.8l469.5-42.3a236.3 236.3 0 0 1-469.5 42.3" fill="#fff" /><path d="M-85.4-15.6l421.3-133.4a236.3 236.3 0 0 1-421.3 133.4" fill="#c2e1ff" /></svg>