<svg width="1200" height="675" viewBox="-500 -500 1200 675" xmlns="http://www.w3.org/2000/svg"><path d="M-500-500h1200v675h-1200z" fill="#000"/><path d="M139.22794270001864,-404.693876984127A 39.375 39.375 0 0 0 60.77205729998136 -404.693876984127A 236 236 0 0 1 139.22794270001864 -404.693876984127" fill="#fff"/><path d="M100,-500V-447.46875" stroke="#fff" stroke-linecap="round" stroke-dasharray="0.01 10.5" stroke-width="7"/><path d="M-52-342.9l275.1-20.8a236.3 236.3 0 0 0-275.1 20.8" fill="#fff" /><path d="M-90.1-302.3l403.8 39.6a236.3 236.3 0 0 0-403.8-39.6" fill="#c2e1ff" /><path d="M-135.9-148.6l470.4-42.4a236.3 236.3 0 0 0-58.5-128.6l0 0-377.3 34a236.3 236.3 0 0 0-34.6 137" fill="#fff" /><path d="M-134.8-135.9l452.9 64.6a236.3 236.3 0 0 0 14-134.7l0 0-442.7-63.1a236.3 236.3 0 0 0-24.2 133.2" fill="#fff" /><path d="M-117.9-70.8l446.2-30.4a236.3 236.3 0 0 0-10.9-153.2l0 0-445.3 30.3a236.3 236.3 0 0 0 10 153.3" fill="#fff500" /><path d="M12.3 57.4l218.7-22.8a236.3 236.3 0 0 0 103.1-164.6l0 0-456.6 47.5a236.3 236.3 0 0 0 134.8 139.9" fill="#fff" /><path d="M-96.2-30.3l406.7-24.3a236.3 236.3 0 0 1-406.7 24.3" fill="#fff500" /><path d="M-39.5 28.7l283.5-3.4a236.3 236.3 0 0 1-283.5 3.4" fill="#fff" /></svg>