<svg width="1200" height="675" viewBox="-500 -500 1200 675" xmlns="http://www.w3.org/2000/svg"><path d="M-500-500h1200v675h-1200z" fill="#000"/><path d="M139.22794270001864,-404.693876984127A 39.375 39.375 0 0 0 60.77205729998136 -404.693876984127A 236 236 0 0 1 139.22794270001864 -404.693876984127" fill="#fff"/><path d="M100,-500V-447.46875" stroke="#fff" stroke-linecap="round" stroke-dasharray="0.01 10.5" stroke-width="7"/><path d="M-97.5-291.7l421.7 55.2a236.3 236.3 0 0 0-421.7-55.2" fill="#fff" /><path d="M-123.8-237.5l458.4 103.3a236.3 236.3 0 0 0-80.9-207.2l0 0-215.6-48.6a236.3 236.3 0 0 0-161.9 152.5" fill="#005bbb" /><path d="M-136.2-161.8l472 14.5a236.3 236.3 0 0 0-63.1-176l0 0-335.1-10.2a236.3 236.3 0 0 0-73.8 171.7" fill="#fff" /><path d="M-127.8-99.2l433.8 52.8a236.3 236.3 0 0 0 27.7-150l0 0-452.3-55.1a236.3 236.3 0 0 0-9.2 152.3" fill="#fff500" /><path d="M-55.3 16l275.7 25.3a236.3 236.3 0 0 0 109.4-148.6l0 0-465.7-42.7a236.3 236.3 0 0 0 80.6 166" fill="#c2e1ff" /><path d="M-43.3 25.8l167.5 47.2a236.3 236.3 0 0 0 182.3-120.1l0 0-442.5-124.7a236.3 236.3 0 0 0 92.7 197.6" fill="#c2e1ff" /><path d="M-90.4-22.1l340.9 42.2a236.3 236.3 0 0 1-340.9-42.2" fill="#fff500" /></svg>