<svg width="1200" height="675" viewBox="-500 -500 1200 675" xmlns="http://www.w3.org/2000/svg"><path d="M-500-500h1200v675h-1200z" fill="#000"/><path d="M139.22794270001864,-404.693876984127A 39.375 39.375 0 0 0 60.77205729998136 -404.693876984127A 236 236 0 0 1 139.22794270001864 -404.693876984127" fill="#fff"/><path d="M100,-500V-447.46875" stroke="#fff" stroke-linecap="round" stroke-dasharray="0.01 10.5" stroke-width="7"/><path d="M-123.9-237.3l402.2-79.7a236.3 236.3 0 0 0-402.2 79.7" fill="#fff" /><path d="M-134.9-136.4l448.7-126.2a236.3 236.3 0 0 0-115.9-114.4l0 0-293.6 82.6a236.3 236.3 0 0 0-39.2 158" fill="#c2e1ff" /><path d="M-133.1-200.7l445 143.1a236.3 236.3 0 0 0 2.6-203.4l0 0-331.1-106.5a236.3 236.3 0 0 0-116.5 166.8" fill="#c2e1ff" /><path d="M-62.1 9.9l381.5-84.2a236.3 236.3 0 0 0-0.1-175.6l0 0-455.2 100.5a236.3 236.3 0 0 0 73.8 159.3" fill="#005bbb" /><path d="M-48.6 21.7l304.2-5.9a236.3 236.3 0 0 0 78.4-145l0 0-466.5 8.9a236.3 236.3 0 0 0 83.9 142" fill="#c2e1ff" /><path d="M-97.7-32.7l385.5 14a236.3 236.3 0 0 1-385.5-14" fill="#005bbb" /></svg>