<svg width="1200" height="675" viewBox="-500 -500 1200 675" xmlns="http://www.w3.org/2000/svg"><path d="M-500-500h1200v675h-1200z" fill="#000"/><path d="M139.22794270001864,-404.693876984127A 39.375 39.375 0 0 0 60.77205729998136 -404.693876984127A 236 236 0 0 1 139.22794270001864 -404.693876984127" fill="#fff"/><path d="M100,-500V-447.46875" stroke="#fff" stroke-linecap="round" stroke-dasharray="0.01 10.5" stroke-width="7"/><path d="M-127.1-227.1l422.8-67.2a236.3 236.3 0 0 0-422.8 67.2" fill="#264653" /><path d="M-135.6-179.9l466.6 67.3a236.3 236.3 0 0 0-147.2-270.3l0 0-101.7-14.7a236.3 236.3 0 0 0-217.7 217.7" fill="#e76f51" /><path d="M-134-194.4l411.4 188.4a236.3 236.3 0 0 0 47-229.8l0 0-315.1-144.4a236.3 236.3 0 0 0-143.3 185.8" fill="#e76f51" /><path d="M44.2 67.6l100.9 2.3a236.3 236.3 0 0 0 190.9-242.2l0 0-471.3-10.9a236.3 236.3 0 0 0 179.5 250.8" fill="#2a9d8f" /><path d="M-135.4-181.9l401 188.4a236.3 236.3 0 0 1-401-188.4" fill="#f4a261" /></svg>