<svg width="1200" height="675" viewBox="-500 -500 1200 675" xmlns="http://www.w3.org/2000/svg"><path d="M-500-500h1200v675h-1200z" fill="#000"/><path d="M139.22794270001864,-404.693876984127A 39.375 39.375 0 0 0 60.77205729998136 -404.693876984127A 236 236 0 0 1 139.22794270001864 -404.693876984127" fill="#fff"/><path d="M100,-500V-447.46875" stroke="#fff" stroke-linecap="round" stroke-dasharray="0.01 10.5" stroke-width="7"/><path d="M-22.3-364.1l353.1 151.5a236.3 236.3 0 0 0-353.1-151.5" fill="#F6C8AC" /><path d="M-110.6-54.9l441.1-159a236.3 236.3 0 0 0-115.6-154.5l0 0-335.1 120.7a236.3 236.3 0 0 0 9.6 192.8" fill="#EF8F88" /><path d="M-112.5-58.9l417.9 13.6a236.3 236.3 0 0 0-9.7-249l0 0-382.5-12.4a236.3 236.3 0 0 0-25.7 247.8" fill="#FFFFFF" /><path d="M-98.4-33.7l280 93.4a236.3 236.3 0 0 0 152.2-188l0 0-441-147.2a236.3 236.3 0 0 0 8.8 241.8" fill="#F6C8AC" /><path d="M-90.7-22.5l341 42.8a236.3 236.3 0 0 1-341-42.8" fill="#EF8F88" /></svg>