<svg width="1200" height="675" viewBox="-500 -500 1200 675" xmlns="http://www.w3.org/2000/svg"><path d="M-500-500h1200v675h-1200z" fill="#000"/><path d="M139.22794270001864,-404.693876984127A 39.375 39.375 0 0 0 60.77205729998136 -404.693876984127A 236 236 0 0 1 139.22794270001864 -404.693876984127" fill="#fff"/><path d="M100,-500V-447.46875" stroke="#fff" stroke-linecap="round" stroke-dasharray="0.01 10.5" stroke-width="7"/><path d="M-48.9-345.4l343.6 49.6a236.3 236.3 0 0 0-343.6-49.6" fill="#fff500" /><path d="M-104.4-280.5l390.2-27.4a236.3 236.3 0 0 0-390.2 27.4" fill="#fff500" /><path d="M-117.9-253.3l452 123.3a236.3 236.3 0 0 0-22.8-137.7l0 0-339.6-92.7a236.3 236.3 0 0 0-89.6 107.1" fill="#fff" /><path d="M-134.7-135l467.2 14.9a236.3 236.3 0 0 0-21-147.1l0 0-415.9-13.3a236.3 236.3 0 0 0-30.3 145.5" fill="#c2e1ff" /><path d="M-118.7-72.6l446.7-27.6a236.3 236.3 0 0 0 0-123.6l0 0-461.9 28.6a236.3 236.3 0 0 0 15.2 122.6" fill="#fff500" /><path d="M-90.1-21.7l402.4-36.7a236.3 236.3 0 0 0 23.9-110.2l0 0-469.7 42.8a236.3 236.3 0 0 0 43.4 104.1" fill="#005bbb" /><path d="M-123.5-85.4l386.9 94a236.3 236.3 0 0 1-386.9-94" fill="#c2e1ff" /><path d="M-93-25.8l372.3 17.7a236.3 236.3 0 0 1-372.3-17.7" fill="#fff" /></svg>