<svg width="1200" height="675" viewBox="-500 -500 1200 675" xmlns="http://www.w3.org/2000/svg"><path d="M-500-500h1200v675h-1200z" fill="#000"/><path d="M139.22794270001864,-404.693876984127A 39.375 39.375 0 0 0 60.77205729998136 -404.693876984127A 236 236 0 0 1 139.22794270001864 -404.693876984127" fill="#fff"/><path d="M100,-500V-447.46875" stroke="#fff" stroke-linecap="round" stroke-dasharray="0.01 10.5" stroke-width="7"/><path d="M5.3-378.5l288.3 81.1a236.3 236.3 0 0 0-288.3-81.1" fill="#fff" /><path d="M-126.6-228.8l451.8-4.7a236.3 236.3 0 0 0-117.2-138.6l0 0-220.4 2.3a236.3 236.3 0 0 0-114.2 141" fill="#005bbb" /><path d="M-120-248.2l456.2 84.2a236.3 236.3 0 0 0-34.1-120.3l0 0-347.2-64.1a236.3 236.3 0 0 0-74.9 100.2" fill="#fff500" /><path d="M-130.7-111.1l458.9 10.1a236.3 236.3 0 0 0-5-138.5l0 0-442.8-9.7a236.3 236.3 0 0 0-11.1 138.1" fill="#005bbb" /><path d="M-135-137.8l444.9 84.2a236.3 236.3 0 0 0 26-121.4l0 0-450.7-85.3a236.3 236.3 0 0 0-20.2 122.5" fill="#fff500" /><path d="M-103.8-42.6l386 31a236.3 236.3 0 0 0 52.3-121.3l0 0-470.6-37.8a236.3 236.3 0 0 0 32.3 128.1" fill="#fff" /><path d="M-58.8 12.9l194 58.7a236.3 236.3 0 0 0 138.1-73l0 0-406.5-123a236.3 236.3 0 0 0 74.4 137.3" fill="#005bbb" /><path d="M-37.3 30.3l276.1-1.1a236.3 236.3 0 0 1-276.1 1.1" fill="#fff" /></svg>