<svg width="1200" height="675" viewBox="-500 -500 1200 675" xmlns="http://www.w3.org/2000/svg"><path d="M-500-500h1200v675h-1200z" fill="#000"/><path d="M139.22794270001864,-404.693876984127A 39.375 39.375 0 0 0 60.77205729998136 -404.693876984127A 236 236 0 0 1 139.22794270001864 -404.693876984127" fill="#fff"/><path d="M100,-500V-447.46875" stroke="#fff" stroke-linecap="round" stroke-dasharray="0.01 10.5" stroke-width="7"/><path d="M-98-290.9l400.8 7.7a236.3 236.3 0 0 0-400.8-7.7" fill="#fff" /><path d="M-134.6-190l466.8-15.4a236.3 236.3 0 0 0-466.8 15.4" fill="#fff500" /><path d="M-136-172.9l424.3 153.6a236.3 236.3 0 0 0 46.6-167.6l0 0-399.4-144.6a236.3 236.3 0 0 0-71.5 158.6" fill="#005bbb" /><path d="M-36.4 30.9l341.6-75.8a236.3 236.3 0 0 0 18.8-192.1l0 0-458.7 101.8a236.3 236.3 0 0 0 98.3 166.1" fill="#005bbb" /><path d="M-30.8 34.7l316.1-50.2a236.3 236.3 0 0 0 50.7-156.4l0 0-463.5 73.7a236.3 236.3 0 0 0 96.7 132.9" fill="#005bbb" /><path d="M-72.4-0.4l369.4-31.2a236.3 236.3 0 0 1-369.4 31.2" fill="#fff" /></svg>