<svg width="1200" height="675" viewBox="-500 -500 1200 675" xmlns="http://www.w3.org/2000/svg"><path d="M-500-500h1200v675h-1200z" fill="#000"/><path d="M139.22794270001864,-404.693876984127A 39.375 39.375 0 0 0 60.77205729998136 -404.693876984127A 236 236 0 0 1 139.22794270001864 -404.693876984127" fill="#fff"/><path d="M100,-500V-447.46875" stroke="#fff" stroke-linecap="round" stroke-dasharray="0.01 10.5" stroke-width="7"/><path d="M-87.3-306l346.4-30.7a236.3 236.3 0 0 0-346.4 30.7" fill="#e9c46a" /><path d="M-111.1-268.1l409.3-22.5a236.3 236.3 0 0 0-134.6-98.9l0 0-151.9 8.4a236.3 236.3 0 0 0-122.8 113" fill="#2a9d8f" /><path d="M-126.4-229.5l462 49.7a236.3 236.3 0 0 0-51-129.6l0 0-333.7-35.9a236.3 236.3 0 0 0-77.3 115.8" fill="#e9c46a" /><path d="M-136.2-168.6l443.8 119.4a236.3 236.3 0 0 0 28.4-124.2l0 0-434.4-116.9a236.3 236.3 0 0 0-37.8 121.7" fill="#e76f51" /><path d="M-120.8-78.1l376.3 93.9a236.3 236.3 0 0 0 75.9-130l0 0-458.1-114.4a236.3 236.3 0 0 0 5.9 150.5" fill="#e9c46a" /><path d="M-16.7 43.4l272.3-27.6a236.3 236.3 0 0 0 79.4-153.9l0 0-460.5 46.7a236.3 236.3 0 0 0 108.8 134.8" fill="#e76f51" /><path d="M-97.7-32.6l412-29.9a236.3 236.3 0 0 1-412 29.9" fill="#e76f51" /><path d="M-15.1 44.3l257.6-17.9a236.3 236.3 0 0 1-257.6 17.9" fill="#f4a261" /></svg>