<svg width="1200" height="675" viewBox="-500 -500 1200 675" xmlns="http://www.w3.org/2000/svg"><path d="M-500-500h1200v675h-1200z" fill="#000"/><path d="M139.22794270001864,-404.693876984127A 39.375 39.375 0 0 0 60.77205729998136 -404.693876984127A 236 236 0 0 1 139.22794270001864 -404.693876984127" fill="#fff"/><path d="M100,-500V-447.46875" stroke="#fff" stroke-linecap="round" stroke-dasharray="0.01 10.5" stroke-width="7"/><path d="M-4.9-373.7l305.6 87a236.3 236.3 0 0 0-305.6-87" fill="#e9c46a" /><path d="M-104.9-279.6l394.1-23.9a236.3 236.3 0 0 0-394.1 23.9" fill="#e76f51" /><path d="M-132.4-204.7l465.4 3.9a236.3 236.3 0 0 0-49.5-110l0 0-364.4-3.1a236.3 236.3 0 0 0-51.5 109.2" fill="#2a9d8f" /><path d="M-134.5-133.2l470.7-33.2a236.3 236.3 0 0 0-37.9-124l0 0-412.7 29.1a236.3 236.3 0 0 0-20.1 128.1" fill="#e9c46a" /><path d="M-114.1-62.1l441.8-37.1a236.3 236.3 0 0 0 2.2-117.4l0 0-465.6 39.1a236.3 236.3 0 0 0 21.6 115.4" fill="#264653" /><path d="M-122.7-83.1l389.7 88.2a236.3 236.3 0 0 0 59.7-100.5l0 0-460-104a236.3 236.3 0 0 0 10.6 116.3" fill="#2a9d8f" /><path d="M-11 46.6l232.6-6a236.3 236.3 0 0 0 108.1-147.2l0 0-456.2 11.8a236.3 236.3 0 0 0 115.5 141.4" fill="#264653" /><path d="M-63.4 8.7l312 12.9a236.3 236.3 0 0 1-312-12.9" fill="#e76f51" /></svg>