<svg width="1200" height="675" viewBox="-500 -500 1200 675" xmlns="http://www.w3.org/2000/svg"><path d="M-500-500h1200v675h-1200z" fill="#000"/><path d="M139.22794270001864,-404.693876984127A 39.375 39.375 0 0 0 60.77205729998136 -404.693876984127A 236 236 0 0 1 139.22794270001864 -404.693876984127" fill="#fff"/><path d="M100,-500V-447.46875" stroke="#fff" stroke-linecap="round" stroke-dasharray="0.01 10.5" stroke-width="7"/><path d="M-106.1-277.4l399.8-19.8a236.3 236.3 0 0 0-399.8 19.8" fill="#c2e1ff" /><path d="M-77.9-317.4l403.9 86.4a236.3 236.3 0 0 0-403.9-86.4" fill="#005bbb" /><path d="M-135.1-184.8l465.1 76.9a236.3 236.3 0 0 0-26.9-174.7l0 0-356.6-59a236.3 236.3 0 0 0-81.6 156.8" fill="#c2e1ff" /><path d="M-135.8-177.3l456 101a236.3 236.3 0 0 0 7.9-147.2l0 0-408.9-90.6a236.3 236.3 0 0 0-55 136.8" fill="#fff500" /><path d="M-68.9 3.2l365.2-33.8a236.3 236.3 0 0 0 39.9-136.7l0 0-469.3 43.5a236.3 236.3 0 0 0 64.2 127" fill="#fff" /><path d="M74.7 72.9l50.8 0a236.3 236.3 0 0 0 201.6-169.8l0 0-454.1 0.3a236.3 236.3 0 0 0 201.7 169.5" fill="#c2e1ff" /><path d="M-107-48.1l350.9 73.4a236.3 236.3 0 0 1-350.9-73.4" fill="#fff500" /></svg>