<svg width="1200" height="675" viewBox="-500 -500 1200 675" xmlns="http://www.w3.org/2000/svg"><path d="M-500-500h1200v675h-1200z" fill="#000"/><path d="M139.22794270001864,-404.693876984127A 39.375 39.375 0 0 0 60.77205729998136 -404.693876984127A 236 236 0 0 1 139.22794270001864 -404.693876984127" fill="#fff"/><path d="M100,-500V-447.46875" stroke="#fff" stroke-linecap="round" stroke-dasharray="0.01 10.5" stroke-width="7"/><path d="M-65.4-330.7l259.3-48.1a236.3 236.3 0 0 0-259.3 48.1" fill="#c2e1ff" /><path d="M-102.5-283.8l416.8 22.3a236.3 236.3 0 0 0-416.8-22.3" fill="#c2e1ff" /><path d="M-128.5-221.8l464.6 67.3a236.3 236.3 0 0 0-41.4-141.3l0 0-343.5-49.7a236.3 236.3 0 0 0-79.7 123.7" fill="#005bbb" /><path d="M-136.2-158.3l469.3 34.9a236.3 236.3 0 0 0-12.6-123.3l0 0-426-31.8a236.3 236.3 0 0 0-30.7 120.2" fill="#c2e1ff" /><path d="M-125.2-90.5l430 46.3a236.3 236.3 0 0 0 28.6-154.2l0 0-453.7-48.8a236.3 236.3 0 0 0-4.9 156.7" fill="#c2e1ff" /><path d="M-9.7 47.2l294.9-62.6a236.3 236.3 0 0 0 49.5-120l0 0-438.4 93a236.3 236.3 0 0 0 94 89.6" fill="#c2e1ff" /><path d="M-40.9 27.7l223.4 31.7a236.3 236.3 0 0 0 137-134.1l0 0-454.7-64.6a236.3 236.3 0 0 0 94.3 167" fill="#fff" /><path d="M-52.8 18.2l263.5 28.5a236.3 236.3 0 0 1-263.5-28.5" fill="#005bbb" /></svg>