<svg width="1200" height="675" viewBox="-500 -500 1200 675" xmlns="http://www.w3.org/2000/svg"><path d="M-500-500h1200v675h-1200z" fill="#000"/><path d="M139.22794270001864,-404.693876984127A 39.375 39.375 0 0 0 60.77205729998136 -404.693876984127A 236 236 0 0 1 139.22794270001864 -404.693876984127" fill="#fff"/><path d="M100,-500V-447.46875" stroke="#fff" stroke-linecap="round" stroke-dasharray="0.01 10.5" stroke-width="7"/><path d="M-18.6-366.3l305.3 59.5a236.3 236.3 0 0 0-305.3-59.5" fill="#ffd60a" /><path d="M-85.4-308.4l405.9 61.5a236.3 236.3 0 0 0-138.4-136.6l0 0-94.9-14.4a236.3 236.3 0 0 0-172.6 89.5" fill="#ffd60a" /><path d="M-130.8-212.4l460.5 105.6a236.3 236.3 0 0 0-10.3-142.7l0 0-378.8-86.9a236.3 236.3 0 0 0-71.4 124" fill="#ffd60a" /><path d="M-133.9-195.6l467.9 66.4a236.3 236.3 0 0 0-14.2-119.5l0 0-406.8-57.7a236.3 236.3 0 0 0-46.9 110.8" fill="#001d3d" /><path d="M-134.6-134.2l431.3 103a236.3 236.3 0 0 0 38.4-107.4l0 0-455.4-108.7a236.3 236.3 0 0 0-14.3 113.1" fill="#000814" /><path d="M-113.6-61l347.8 93.4a236.3 236.3 0 0 0 77.5-89.6l0 0-447.5-120.1a236.3 236.3 0 0 0 22.2 116.3" fill="#003566" /><path d="M-52.4 18.5l209.2 48.8a236.3 236.3 0 0 0 150.5-115.9l0 0-443.3-103.5a236.3 236.3 0 0 0 83.6 170.6" fill="#ffc300" /><path d="M-50 20.5l314.6-13.1a236.3 236.3 0 0 1-314.6 13.1" fill="#003566" /></svg>