<svg width="1200" height="675" viewBox="-500 -500 1200 675" xmlns="http://www.w3.org/2000/svg"><path d="M-500-500h1200v675h-1200z" fill="#000"/><path d="M139.22794270001864,-404.693876984127A 39.375 39.375 0 0 0 60.77205729998136 -404.693876984127A 236 236 0 0 1 139.22794270001864 -404.693876984127" fill="#fff"/><path d="M100,-500V-447.46875" stroke="#fff" stroke-linecap="round" stroke-dasharray="0.01 10.5" stroke-width="7"/><path d="M-18.5-366.4l322.4 85.1a236.3 236.3 0 0 0-322.4-85.1" fill="#fff" /><path d="M-131.6-208.7l466.6 70.5a236.3 236.3 0 0 0-102.1-219.1l0 0-202.2-30.6a236.3 236.3 0 0 0-162.3 179.2" fill="#c2e1ff" /><path d="M-134.2-192.8l456.1 111.9a236.3 236.3 0 0 0-29.1-217.7l0 0-300.5-73.7a236.3 236.3 0 0 0-126.5 179.5" fill="#fff500" /><path d="M-90.5-22.3l408.6-49a236.3 236.3 0 0 0 7.6-160.5l0 0-461.5 55.4a236.3 236.3 0 0 0 45.3 154.1" fill="#fff500" /><path d="M-83.3-13l258.4 75a236.3 236.3 0 0 0 136.2-118.2l0 0-446.4-129.5a236.3 236.3 0 0 0 51.8 172.7" fill="#005bbb" /><path d="M-93.6-26.6l393.3-9.1a236.3 236.3 0 0 1-393.3 9.1" fill="#c2e1ff" /></svg>