<svg width="1200" height="675" viewBox="-500 -500 1200 675" xmlns="http://www.w3.org/2000/svg"><path d="M-500-500h1200v675h-1200z" fill="#000"/><path d="M139.22794270001864,-404.693876984127A 39.375 39.375 0 0 0 60.77205729998136 -404.693876984127A 236 236 0 0 1 139.22794270001864 -404.693876984127" fill="#fff"/><path d="M100,-500V-447.46875" stroke="#fff" stroke-linecap="round" stroke-dasharray="0.01 10.5" stroke-width="7"/><path d="M-115.8-258.1l419.8-23.1a236.3 236.3 0 0 0-419.8 23.1" fill="#c2e1ff" /><path d="M-123.6-238.3l429.2-40a236.3 236.3 0 0 0-429.2 40" fill="#005bbb" /><path d="M-136.2-159.1l444.8 107.9a236.3 236.3 0 0 0 17.8-178.3l0 0-396.7-96.2a236.3 236.3 0 0 0-65.9 166.6" fill="#fff" /><path d="M-127.5-98.1l369.3 125.1a236.3 236.3 0 0 0 92-155.2l0 0-440-149.1a236.3 236.3 0 0 0-21.3 179.2" fill="#fff" /><path d="M-131.2-113.5l412.4 103.1a236.3 236.3 0 0 1-412.4-103.1" fill="#c2e1ff" /><path d="M-126-93l412.7 75.7a236.3 236.3 0 0 1-412.7-75.7" fill="#c2e1ff" /></svg>