<svg width="1200" height="675" viewBox="-500 -500 1200 675" xmlns="http://www.w3.org/2000/svg"><path d="M-500-500h1200v675h-1200z" fill="#000"/><path d="M139.22794270001864,-404.693876984127A 39.375 39.375 0 0 0 60.77205729998136 -404.693876984127A 236 236 0 0 1 139.22794270001864 -404.693876984127" fill="#fff"/><path d="M100,-500V-447.46875" stroke="#fff" stroke-linecap="round" stroke-dasharray="0.01 10.5" stroke-width="7"/><path d="M-117-255.3l379.4-78.3a236.3 236.3 0 0 0-379.4 78.3" fill="#a8dadc" /><path d="M-136.2-164.3l460.1-73.1a236.3 236.3 0 0 0-150.8-149.3l0 0-212.2 33.8a236.3 236.3 0 0 0-97.1 188.6" fill="#e63946" /><path d="M-132.7-202.7l467 10.6a236.3 236.3 0 0 0-58.9-128.1l0 0-343.5-7.8a236.3 236.3 0 0 0-64.6 125.3" fill="#e63946" /><path d="M-113.7-61.2l435.1-18.4a236.3 236.3 0 0 0 4.7-151l0 0-457.1 19.2a236.3 236.3 0 0 0 17.3 150.2" fill="#a8dadc" /><path d="M-118.6-72.3l406.6 53.4a236.3 236.3 0 0 0 48.2-140.1l0 0-465.2-61.1a236.3 236.3 0 0 0 10.4 147.8" fill="#e63946" /><path d="M-17.4 43l83.3 28.8a236.3 236.3 0 0 0 222.2-90.8l0 0-424.3-146.5a236.3 236.3 0 0 0 118.8 208.5" fill="#e63946" /><path d="M19.5 60.1l208.3-23.4a236.3 236.3 0 0 1-208.3 23.4" fill="#457b9d" /></svg>