<svg width="1200" height="675" viewBox="-500 -500 1200 675" xmlns="http://www.w3.org/2000/svg"><path d="M-500-500h1200v675h-1200z" fill="#000"/><path d="M139.22794270001864,-404.693876984127A 39.375 39.375 0 0 0 60.77205729998136 -404.693876984127A 236 236 0 0 1 139.22794270001864 -404.693876984127" fill="#fff"/><path d="M100,-500V-447.46875" stroke="#fff" stroke-linecap="round" stroke-dasharray="0.01 10.5" stroke-width="7"/><path d="M-75.2-320.5l281-52.7a236.3 236.3 0 0 0-281 52.7" fill="#e5e5e5" /><path d="M-99.6-288.4l430 74.3a236.3 236.3 0 0 0-71.7-122.9l0 0-249.5-43.1a236.3 236.3 0 0 0-108.8 91.7" fill="#ffffff" /><path d="M-131.5-209l466.2 74.4a236.3 236.3 0 0 0-25.3-136.7l0 0-374.3-59.9a236.3 236.3 0 0 0-66.6 122.2" fill="#ffffff" /><path d="M-136.2-166.8l456.6 90a236.3 236.3 0 0 0 13.6-117.5l0 0-438.3-86.3a236.3 236.3 0 0 0-31.9 113.8" fill="#fca311" /><path d="M-80.3-9.3l379.8-26.1a236.3 236.3 0 0 0 34-162.8l0 0-469.7 32.3a236.3 236.3 0 0 0 55.9 156.6" fill="#14213d" /><path d="M-82-11.4l385.5-30.6a236.3 236.3 0 0 0 32.3-135.1l0 0-471 37.5a236.3 236.3 0 0 0 53.2 128.2" fill="#fca311" /><path d="M-69.3 2.8l384.6-67.4a236.3 236.3 0 0 1-384.6 67.4" fill="#112233" /><path d="M-67 5.2l259.6 50.2a236.3 236.3 0 0 1-259.6-50.2" fill="#14213d" /></svg>