<svg width="1200" height="675" viewBox="-500 -500 1200 675" xmlns="http://www.w3.org/2000/svg"><path d="M-500-500h1200v675h-1200z" fill="#000"/><path d="M139.22794270001864,-404.693876984127A 39.375 39.375 0 0 0 60.77205729998136 -404.693876984127A 236 236 0 0 1 139.22794270001864 -404.693876984127" fill="#fff"/><path d="M100,-500V-447.46875" stroke="#fff" stroke-linecap="round" stroke-dasharray="0.01 10.5" stroke-width="7"/><path d="M-112.1-266.1l364.7-76.2a236.3 236.3 0 0 0-364.7 76.2" fill="#fff" /><path d="M-74.4-321.4l398.7 85.1a236.3 236.3 0 0 0-398.7-85.1" fill="#005bbb" /><path d="M-121.8-243.3l456.3 52.2a236.3 236.3 0 0 0-45.8-113l0 0-340.4-39a236.3 236.3 0 0 0-70.1 99.8" fill="#fff500" /><path d="M-133.4-125.7l464.7 11.8a236.3 236.3 0 0 0-8.6-126.9l0 0-441.2-11.1a236.3 236.3 0 0 0-14.9 126.2" fill="#005bbb" /><path d="M-135.2-139.5l423 120.9a236.3 236.3 0 0 0 47.8-125.6l0 0-445-127.2a236.3 236.3 0 0 0-25.8 131.9" fill="#fff500" /><path d="M-36.6 30.8l305-27.1a236.3 236.3 0 0 0 65-128.9l0 0-456.6 40.6a236.3 236.3 0 0 0 86.6 115.4" fill="#fff500" /><path d="M45.3 67.8l131.5-6.4a236.3 236.3 0 0 0 135.5-119.8l0 0-413.6 20.1a236.3 236.3 0 0 0 146.6 106.1" fill="#c2e1ff" /><path d="M-27.1 37.2l255.3-0.8a236.3 236.3 0 0 1-255.3 0.8" fill="#c2e1ff" /></svg>