<svg width="1200" height="675" viewBox="-500 -500 1200 675" xmlns="http://www.w3.org/2000/svg"><path d="M-500-500h1200v675h-1200z" fill="#000"/><path d="M139.22794270001864,-404.693876984127A 39.375 39.375 0 0 0 60.77205729998136 -404.693876984127A 236 236 0 0 1 139.22794270001864 -404.693876984127" fill="#fff"/><path d="M100,-500V-447.46875" stroke="#fff" stroke-linecap="round" stroke-dasharray="0.01 10.5" stroke-width="7"/><path d="M-121.9-243.2l432.6-25.6a236.3 236.3 0 0 0-432.6 25.6" fill="#005bbb" /><path d="M-132.3-118.8l452.3-129.4a236.3 236.3 0 0 0-452.3 129.4" fill="#005bbb" /><path d="M-135.7-146l376.2 173.9a236.3 236.3 0 0 0 94.1-162l0 0-407.8-188.6a236.3 236.3 0 0 0-62.5 176.7" fill="#c2e1ff" /><path d="M-35.6 31.5l237.3 19.7a236.3 236.3 0 0 0 132.2-246.3l0 0-459.1-38.3a236.3 236.3 0 0 0 89.6 264.9" fill="#fff500" /><path d="M-24.2 39l352.1-138.7a236.3 236.3 0 0 1-352.1 138.7" fill="#005bbb" /></svg>