<svg width="1200" height="675" viewBox="-500 -500 1200 675" xmlns="http://www.w3.org/2000/svg"><path d="M-500-500h1200v675h-1200z" fill="#000"/><path d="M139.22794270001864,-404.693876984127A 39.375 39.375 0 0 0 60.77205729998136 -404.693876984127A 236 236 0 0 1 139.22794270001864 -404.693876984127" fill="#fff"/><path d="M100,-500V-447.46875" stroke="#fff" stroke-linecap="round" stroke-dasharray="0.01 10.5" stroke-width="7"/><path d="M-20.5-365.2l288.7 37.3a236.3 236.3 0 0 0-288.7-37.3" fill="#005bbb" /><path d="M-97.3-291.9l418 45.7a236.3 236.3 0 0 0-418-45.7" fill="#fff500" /><path d="M-135.9-148.9l471.5-30.8a236.3 236.3 0 0 0-47.7-125.5l0 0-392.8 25.6a236.3 236.3 0 0 0-31 130.7" fill="#fff" /><path d="M-130.4-214.4l451.4 136a236.3 236.3 0 0 0-0.4-168.1l0 0-357.8-107.8a236.3 236.3 0 0 0-93.2 139.9" fill="#c2e1ff" /><path d="M-125.7-92.2l445.5 16.7a236.3 236.3 0 0 0 13.7-122.4l0 0-463.7-17.4a236.3 236.3 0 0 0 4.5 123.1" fill="#005bbb" /><path d="M-76.4-4.8l290.8 49.5a236.3 236.3 0 0 0 110.7-134.9l0 0-461.3-78.6a236.3 236.3 0 0 0 59.8 164" fill="#005bbb" /><path d="M42.4 67.1l195.2-37a236.3 236.3 0 0 0 98.5-182.7l0 0-452.3 85.9a236.3 236.3 0 0 0 158.6 133.8" fill="#fff" /><path d="M-95.3-29l358.5 37.8a236.3 236.3 0 0 1-358.5-37.8" fill="#c2e1ff" /></svg>