<svg width="1200" height="675" viewBox="-500 -500 1200 675" xmlns="http://www.w3.org/2000/svg"><path d="M-500-500h1200v675h-1200z" fill="#000"/><path d="M139.22794270001864,-404.693876984127A 39.375 39.375 0 0 0 60.77205729998136 -404.693876984127A 236 236 0 0 1 139.22794270001864 -404.693876984127" fill="#fff"/><path d="M100,-500V-447.46875" stroke="#fff" stroke-linecap="round" stroke-dasharray="0.01 10.5" stroke-width="7"/><path d="M-9.4-371.4l244.6 15.7a236.3 236.3 0 0 0-244.6-15.7" fill="#fff" /><path d="M-78.8-316.4l370.9 16.9a236.3 236.3 0 0 0-370.9-16.9" fill="#c2e1ff" /><path d="M-134.7-189.4l470.2 8.2a236.3 236.3 0 0 0-42.2-116.7l0 0-381.7-6.6a236.3 236.3 0 0 0-46.3 115.1" fill="#005bbb" /><path d="M-136.2-165.8l471.3 27.1a236.3 236.3 0 0 0-15.6-110.7l0 0-427.5-24.6a236.3 236.3 0 0 0-28.2 108.2" fill="#c2e1ff" /><path d="M-136.2-155.4l445.2 103.5a236.3 236.3 0 0 0 27.2-110.6l0 0-448-104.1a236.3 236.3 0 0 0-24.4 111.2" fill="#fff" /><path d="M-118.9-73l394.7 68.8a236.3 236.3 0 0 0 55.9-111.6l0 0-465.3-81.2a236.3 236.3 0 0 0 14.7 124" fill="#c2e1ff" /><path d="M-0.6 51.8l130.5 20.6a236.3 236.3 0 0 0 165.5-101.6l0 0-422.2-66.6a236.3 236.3 0 0 0 126.2 147.6" fill="#c2e1ff" /><path d="M-107.9-49.7l382.6 46.7a236.3 236.3 0 0 1-382.6-46.7" fill="#fff500" /></svg>