<svg width="1200" height="675" viewBox="-500 -500 1200 675" xmlns="http://www.w3.org/2000/svg"><path d="M-500-500h1200v675h-1200z" fill="#000"/><path d="M139.22794270001864,-404.693876984127A 39.375 39.375 0 0 0 60.77205729998136 -404.693876984127A 236 236 0 0 1 139.22794270001864 -404.693876984127" fill="#fff"/><path d="M100,-500V-447.46875" stroke="#fff" stroke-linecap="round" stroke-dasharray="0.01 10.5" stroke-width="7"/><path d="M-135.6-179.2l444.6-92.9a236.3 236.3 0 0 0-444.6 92.9" fill="#fff500" /><path d="M-133.3-199l464.1 87.7a236.3 236.3 0 0 0-464.1-87.7" fill="#fff" /><path d="M-25.2 38.4l133.4 35.7a236.3 236.3 0 0 0 227.2-256.1l0 0-429.3-115a236.3 236.3 0 0 0 68.7 335.4" fill="#fff500" /><path d="M-135.8-147l379.6 172.5a236.3 236.3 0 0 1-379.6-172.5" fill="#fff" /></svg>