<svg width="1200" height="675" viewBox="-500 -500 1200 675" xmlns="http://www.w3.org/2000/svg"><path d="M-500-500h1200v675h-1200z" fill="#000"/><path d="M139.22794270001864,-404.693876984127A 39.375 39.375 0 0 0 60.77205729998136 -404.693876984127A 236 236 0 0 1 139.22794270001864 -404.693876984127" fill="#fff"/><path d="M100,-500V-447.46875" stroke="#fff" stroke-linecap="round" stroke-dasharray="0.01 10.5" stroke-width="7"/><path d="M-121.7-243.6l348.8-117.5a236.3 236.3 0 0 0-348.8 117.5" fill="#d62828" /><path d="M-135.6-143.9l466.3 32.7a236.3 236.3 0 0 0-57.2-211.1l0 0-323-22.7a236.3 236.3 0 0 0-86.1 201.1" fill="#d62828" /><path d="M-91.6-23.8l426.3-165.1a236.3 236.3 0 0 0-94.7-163.4l0 0-371.6 143.9a236.3 236.3 0 0 0 40 184.6" fill="#eae2b7" /><path d="M-12.7 45.6l258.4-21.6a236.3 236.3 0 0 0 90-202.8l0 0-470.9 39.4a236.3 236.3 0 0 0 122.5 185" fill="#003049" /><path d="M-71.5 0.5l405.9-133a236.3 236.3 0 0 1-405.9 133" fill="#fcbf49" /></svg>