<svg width="1200" height="675" viewBox="-500 -500 1200 675" xmlns="http://www.w3.org/2000/svg"><path d="M-500-500h1200v675h-1200z" fill="#000"/><path d="M139.22794270001864,-404.693876984127A 39.375 39.375 0 0 0 60.77205729998136 -404.693876984127A 236 236 0 0 1 139.22794270001864 -404.693876984127" fill="#fff"/><path d="M100,-500V-447.46875" stroke="#fff" stroke-linecap="round" stroke-dasharray="0.01 10.5" stroke-width="7"/><path d="M-97.1-292.2l365.3-35.7a236.3 236.3 0 0 0-365.3 35.7" fill="#fff500" /><path d="M-127.7-225.2l415.8-79.7a236.3 236.3 0 0 0-198.5-93.1l0 0-67.3 12.9a236.3 236.3 0 0 0-150 159.9" fill="#fff500" /><path d="M-130.6-213.3l464.7 83.2a236.3 236.3 0 0 0-33.9-157.3l0 0-344.5-61.6a236.3 236.3 0 0 0-86.3 135.7" fill="#005bbb" /><path d="M-125.5-91.6l461.7-71.1a236.3 236.3 0 0 0-39.1-129.6l0 0-424.2 65.3a236.3 236.3 0 0 0 1.6 135.4" fill="#fff" /><path d="M-125.7-92.3l383.2 106.4a236.3 236.3 0 0 0 70-112.5l0 0-455.3-126.4a236.3 236.3 0 0 0 2.1 132.5" fill="#fff500" /><path d="M-62.5 9.5l328.6-3.5a236.3 236.3 0 0 0 69.3-147.8l0 0-470.3 5a236.3 236.3 0 0 0 72.4 146.3" fill="#c2e1ff" /><path d="M-120.2-76.5l435.2 12.4a236.3 236.3 0 0 1-435.2-12.4" fill="#005bbb" /><path d="M-69.5 2.6l313.7 22.5a236.3 236.3 0 0 1-313.7-22.5" fill="#c2e1ff" /></svg>