<svg width="1200" height="675" viewBox="-500 -500 1200 675" xmlns="http://www.w3.org/2000/svg"><path d="M-500-500h1200v675h-1200z" fill="#000"/><path d="M139.22794270001864,-404.693876984127A 39.375 39.375 0 0 0 60.77205729998136 -404.693876984127A 236 236 0 0 1 139.22794270001864 -404.693876984127" fill="#fff"/><path d="M100,-500V-447.46875" stroke="#fff" stroke-linecap="round" stroke-dasharray="0.01 10.5" stroke-width="7"/><path d="M-6.2-373l250.3 23.8a236.3 236.3 0 0 0-250.3-23.8" fill="#fff500" /><path d="M-120.5-246.9l448.5 23.2a236.3 236.3 0 0 0-147.6-160.4l0 0-137.4-7.2a236.3 236.3 0 0 0-163.5 144.4" fill="#005bbb" /><path d="M-119.5-249.4l455.6 96.6a236.3 236.3 0 0 0-60.8-167.6l0 0-271.2-57.5a236.3 236.3 0 0 0-123.6 128.5" fill="#005bbb" /><path d="M-136.2-161l430.1 134a236.3 236.3 0 0 0 41.7-152.3l0 0-419.7-130.7a236.3 236.3 0 0 0-52.1 149" fill="#fff" /><path d="M-135.7-145.4l428.7 119.7a236.3 236.3 0 0 0 43.2-133.3l0 0-439.8-122.9a236.3 236.3 0 0 0-32.1 136.5" fill="#fff" /><path d="M-7.4 48.4l290.7-61.4a236.3 236.3 0 0 0 52-170.2l0 0-459.1 96.9a236.3 236.3 0 0 0 116.4 134.7" fill="#005bbb" /><path d="M-80.6-9.7l388.4-39.9a236.3 236.3 0 0 1-388.4 39.9" fill="#005bbb" /><path d="M-65.9 6.2l355.1-26.7a236.3 236.3 0 0 1-355.1 26.7" fill="#fff" /></svg>