<svg width="1200" height="675" viewBox="-500 -500 1200 675" xmlns="http://www.w3.org/2000/svg"><path d="M-500-500h1200v675h-1200z" fill="#000"/><path d="M139.22794270001864,-404.693876984127A 39.375 39.375 0 0 0 60.77205729998136 -404.693876984127A 236 236 0 0 1 139.22794270001864 -404.693876984127" fill="#fff"/><path d="M100,-500V-447.46875" stroke="#fff" stroke-linecap="round" stroke-dasharray="0.01 10.5" stroke-width="7"/><path d="M-114.2-261.7l386.4-62a236.3 236.3 0 0 0-386.4 62" fill="#06d6a0" /><path d="M-95-295.4l431.2 139.8a236.3 236.3 0 0 0-111-206.7l0 0-109-35.4a236.3 236.3 0 0 0-211.2 102.3" fill="#ffd166" /><path d="M-136-151.2l465 47.3a236.3 236.3 0 0 0-40.6-200.6l0 0-344.3-35a236.3 236.3 0 0 0-80.1 188.3" fill="#06d6a0" /><path d="M-8 48.1l297-68.4a236.3 236.3 0 0 0 33-222.5l0 0-457 105.3a236.3 236.3 0 0 0 127 185.6" fill="#073b4c" /><path d="M15.8 58.7l253.2-55.6a236.3 236.3 0 0 0 65.6-193l0 0-459.3 100.8a236.3 236.3 0 0 0 140.5 147.8" fill="#ffd166" /><path d="M-110.8-55.2l411.8 17.3a236.3 236.3 0 0 1-411.8-17.3" fill="#073b4c" /></svg>