<svg width="1200" height="675" viewBox="-500 -500 1200 675" xmlns="http://www.w3.org/2000/svg"><path d="M-500-500h1200v675h-1200z" fill="#000"/><path d="M139.22794270001864,-404.693876984127A 39.375 39.375 0 0 0 60.77205729998136 -404.693876984127A 236 236 0 0 1 139.22794270001864 -404.693876984127" fill="#fff"/><path d="M100,-500V-447.46875" stroke="#fff" stroke-linecap="round" stroke-dasharray="0.01 10.5" stroke-width="7"/><path d="M-59.2-336.6l367.4 62.9a236.3 236.3 0 0 0-367.4-62.9" fill="#fff500" /><path d="M-107.4-275.2l442.2 87.4a236.3 236.3 0 0 0-63-136.4l0 0-269-53.1a236.3 236.3 0 0 0-110.2 102.1" fill="#005bbb" /><path d="M-135.9-174.5l456.9 95.9a236.3 236.3 0 0 0-1-169.6l0 0-386.7-81.2a236.3 236.3 0 0 0-69.2 154.9" fill="#fff500" /><path d="M-134.6-133.9l464.5 26.5a236.3 236.3 0 0 0-5.7-129.2l0 0-438.5-24.9a236.3 236.3 0 0 0-20.3 127.6" fill="#fff" /><path d="M-61.3 10.6l360-44.9a236.3 236.3 0 0 0 37.5-127.3l0 0-465.1 58a236.3 236.3 0 0 0 67.6 114.2" fill="#fff" /><path d="M-107.8-49.6l397.4 28.6a236.3 236.3 0 0 1-397.4-28.6" fill="#fff" /><path d="M-116.6-67.6l349.7 100.8a236.3 236.3 0 0 1-349.7-100.8" fill="#c2e1ff" /></svg>