<svg width="1200" height="675" viewBox="-500 -500 1200 675" xmlns="http://www.w3.org/2000/svg"><path d="M-500-500h1200v675h-1200z" fill="#000"/><path d="M139.22794270001864,-404.693876984127A 39.375 39.375 0 0 0 60.77205729998136 -404.693876984127A 236 236 0 0 1 139.22794270001864 -404.693876984127" fill="#fff"/><path d="M100,-500V-447.46875" stroke="#fff" stroke-linecap="round" stroke-dasharray="0.01 10.5" stroke-width="7"/><path d="M-45.8-347.9l378.7 146.5a236.3 236.3 0 0 0-378.7-146.5" fill="#c2e1ff" /><path d="M-133.4-125.2l455.8-116.6a236.3 236.3 0 0 0-164.7-149.3l0 0-218.4 55.9a236.3 236.3 0 0 0-72.7 210" fill="#fff" /><path d="M-135.4-181.5l470.8 39.8a236.3 236.3 0 0 0-60.5-179.2l0 0-320.6-27.1a236.3 236.3 0 0 0-89.7 166.5" fill="#c2e1ff" /><path d="M-19.8 41.6l288.3-38a236.3 236.3 0 0 0 63-212.5l0 0-467.3 61.6a236.3 236.3 0 0 0 116 188.9" fill="#fff" /><path d="M-72.4-0.5l221.1 69.7a236.3 236.3 0 0 0 177.1-161.7l0 0-450.7-142a236.3 236.3 0 0 0 52.5 234" fill="#c2e1ff" /><path d="M-110.5-54.7l423.9-5.9a236.3 236.3 0 0 1-423.9 5.9" fill="#005bbb" /></svg>