<svg width="1200" height="675" viewBox="-500 -500 1200 675" xmlns="http://www.w3.org/2000/svg"><path d="M-500-500h1200v675h-1200z" fill="#000"/><path d="M139.22794270001864,-404.693876984127A 39.375 39.375 0 0 0 60.77205729998136 -404.693876984127A 236 236 0 0 1 139.22794270001864 -404.693876984127" fill="#fff"/><path d="M100,-500V-447.46875" stroke="#fff" stroke-linecap="round" stroke-dasharray="0.01 10.5" stroke-width="7"/><path d="M-31.3-358.4l322.4 57.5a236.3 236.3 0 0 0-322.4-57.5" fill="#e76f51" /><path d="M-101.3-285.6l433.4 79.5a236.3 236.3 0 0 0-433.4-79.5" fill="#e76f51" /><path d="M-128.4-101.7l461.2-19.9a236.3 236.3 0 0 0-25.4-153.5l0 0-423.8 18.3a236.3 236.3 0 0 0-12 155.1" fill="#e9c46a" /><path d="M-78.2-6.9l329.1 26.7a236.3 236.3 0 0 0 84.8-197.3l0 0-465.9-37.8a236.3 236.3 0 0 0 52 208.4" fill="#e9c46a" /><path d="M69.6 72.3l161.4-37.7a236.3 236.3 0 0 0 105-185.2l0 0-442.5 103.3a236.3 236.3 0 0 0 176.1 119.6" fill="#f4a261" /><path d="M-115.8-65.8l368.8 83.8a236.3 236.3 0 0 1-368.8-83.8" fill="#e9c46a" /></svg>