<svg width="1200" height="675" viewBox="-500 -500 1200 675" xmlns="http://www.w3.org/2000/svg"><path d="M-500-500h1200v675h-1200z" fill="#000"/><path d="M139.22794270001864,-404.693876984127A 39.375 39.375 0 0 0 60.77205729998136 -404.693876984127A 236 236 0 0 1 139.22794270001864 -404.693876984127" fill="#fff"/><path d="M100,-500V-447.46875" stroke="#fff" stroke-linecap="round" stroke-dasharray="0.01 10.5" stroke-width="7"/><path d="M-134.1-193.7l470.3 27.8a236.3 236.3 0 0 0-470.3-27.8" fill="#fff" /><path d="M-135.3-141.1l467.4 23.4a236.3 236.3 0 0 0-467.4-23.4" fill="#fff500" /><path d="M-5.8 49.3l323.3-119a236.3 236.3 0 0 0-73.4-279.6l0 0-375.2 138.1a236.3 236.3 0 0 0 125.3 260.5" fill="#fff500" /><path d="M-122.1-242.6l398.9 237.3a236.3 236.3 0 0 1-398.9-237.3" fill="#005bbb" /></svg>