<svg width="1200" height="675" viewBox="-500 -500 1200 675" xmlns="http://www.w3.org/2000/svg"><path d="M-500-500h1200v675h-1200z" fill="#000"/><path d="M139.22794270001864,-404.693876984127A 39.375 39.375 0 0 0 60.77205729998136 -404.693876984127A 236 236 0 0 1 139.22794270001864 -404.693876984127" fill="#fff"/><path d="M100,-500V-447.46875" stroke="#fff" stroke-linecap="round" stroke-dasharray="0.01 10.5" stroke-width="7"/><path d="M-62.7-333.3l375.8 69.3a236.3 236.3 0 0 0-375.8-69.3" fill="#fff" /><path d="M-129.2-219.2l465.4 52.2a236.3 236.3 0 0 0-465.4-52.2" fill="#005bbb" /><path d="M-113.8-61.6l435.6-181.8a236.3 236.3 0 0 1-435.6 181.8" fill="#005bbb" /><path d="M-125.2-90.5l460.7-89.8a236.3 236.3 0 0 1-460.7 89.8" fill="#fff500" /></svg>