<svg width="1200" height="675" viewBox="-500 -500 1200 675" xmlns="http://www.w3.org/2000/svg"><path d="M-500-500h1200v675h-1200z" fill="#000"/><path d="M139.22794270001864,-404.693876984127A 39.375 39.375 0 0 0 60.77205729998136 -404.693876984127A 236 236 0 0 1 139.22794270001864 -404.693876984127" fill="#fff"/><path d="M100,-500V-447.46875" stroke="#fff" stroke-linecap="round" stroke-dasharray="0.01 10.5" stroke-width="7"/><path d="M-3.5-374.4l317 111.3a236.3 236.3 0 0 0-317-111.3" fill="#fff" /><path d="M-136.2-159.1l452.6-97.7a236.3 236.3 0 0 0-149.7-131.8l0 0-220.9 47.7a236.3 236.3 0 0 0-82 181.8" fill="#fff" /><path d="M-135.2-184.5l436.6 146.1a236.3 236.3 0 0 0 26.6-185.6l0 0-372.7-124.7a236.3 236.3 0 0 0-90.5 164.2" fill="#fff" /><path d="M-136.2-164.4l426.2 142.8a236.3 236.3 0 0 0 43.3-177.6l0 0-397.1-133a236.3 236.3 0 0 0-72.4 167.8" fill="#c2e1ff" /><path d="M-48.7 21.6l331.8-34.4a236.3 236.3 0 0 0 53-158.5l0 0-469.1 48.6a236.3 236.3 0 0 0 84.3 144.3" fill="#fff500" /><path d="M-120.1-76.2l430.4 21.8a236.3 236.3 0 0 1-430.4-21.8" fill="#fff500" /><path d="M-117.8-70.4l402.8 55.3a236.3 236.3 0 0 1-402.8-55.3" fill="#fff500" /></svg>