<svg width="1200" height="675" viewBox="-500 -500 1200 675" xmlns="http://www.w3.org/2000/svg"><path d="M-500-500h1200v675h-1200z" fill="#000"/><path d="M139.22794270001864,-404.693876984127A 39.375 39.375 0 0 0 60.77205729998136 -404.693876984127A 236 236 0 0 1 139.22794270001864 -404.693876984127" fill="#fff"/><path d="M100,-500V-447.46875" stroke="#fff" stroke-linecap="round" stroke-dasharray="0.01 10.5" stroke-width="7"/><path d="M-89.6-302.9l398.7 31a236.3 236.3 0 0 0-398.7-31" fill="#c2e1ff" /><path d="M-135.4-181.8l455.4-66.2a236.3 236.3 0 0 0-180.9-147l0 0-143 20.8a236.3 236.3 0 0 0-131.5 192.4" fill="#fff500" /><path d="M-102.3-40.1l438.2-108.7a236.3 236.3 0 0 0-61.7-172.7l0 0-402.8 100a236.3 236.3 0 0 0 26.3 181.4" fill="#fff500" /><path d="M-47.2 22.8l360.7-83.7a236.3 236.3 0 0 0 3.6-194.3l0 0-453 105.2a236.3 236.3 0 0 0 88.7 172.8" fill="#c2e1ff" /><path d="M-81.4-10.6l285.7 60.6a236.3 236.3 0 0 0 122-144.3l0 0-460.6-97.7a236.3 236.3 0 0 0 52.9 181.4" fill="#005bbb" /><path d="M-121.1-78.8l329.6 126.6a236.3 236.3 0 0 1-329.6-126.6" fill="#fff500" /></svg>