<svg width="1200" height="675" viewBox="-500 -500 1200 675" xmlns="http://www.w3.org/2000/svg"><path d="M-500-500h1200v675h-1200z" fill="#000"/><path d="M139.22794270001864,-404.693876984127A 39.375 39.375 0 0 0 60.77205729998136 -404.693876984127A 236 236 0 0 1 139.22794270001864 -404.693876984127" fill="#fff"/><path d="M100,-500V-447.46875" stroke="#fff" stroke-linecap="round" stroke-dasharray="0.01 10.5" stroke-width="7"/><path d="M-70.9-325.2l397.2 95.4a236.3 236.3 0 0 0-397.2-95.4" fill="#005bbb" /><path d="M-113.7-262.8l396.3-49.1a236.3 236.3 0 0 0-396.3 49.1" fill="#fff500" /><path d="M-115.6-258.5l450.5 121.7a236.3 236.3 0 0 0-54.6-177.8l0 0-259.2-70.1a236.3 236.3 0 0 0-136.7 126.2" fill="#fff" /><path d="M-132.6-203.1l443.6 147.4a236.3 236.3 0 0 0 24.4-126.1l0 0-412.1-137a236.3 236.3 0 0 0-55.9 115.7" fill="#c2e1ff" /><path d="M-72.5-0.6l307.9 32.2a236.3 236.3 0 0 0 96.5-148.7l0 0-468.1-48.9a236.3 236.3 0 0 0 63.7 165.4" fill="#c2e1ff" /><path d="M-6.8 48.7l180.2 13.8a236.3 236.3 0 0 0 146.9-139.1l0 0-451-34.6a236.3 236.3 0 0 0 123.9 159.9" fill="#005bbb" /><path d="M-50.4 20.2l306.7-5a236.3 236.3 0 0 1-306.7 5" fill="#fff" /></svg>