<svg width="1200" height="675" viewBox="-500 -500 1200 675" xmlns="http://www.w3.org/2000/svg"><path d="M-500-500h1200v675h-1200z" fill="#000"/><path d="M139.22794270001864,-404.693876984127A 39.375 39.375 0 0 0 60.77205729998136 -404.693876984127A 236 236 0 0 1 139.22794270001864 -404.693876984127" fill="#fff"/><path d="M100,-500V-447.46875" stroke="#fff" stroke-linecap="round" stroke-dasharray="0.01 10.5" stroke-width="7"/><path d="M-25.3-362.3l350.6 129.3a236.3 236.3 0 0 0-350.6-129.3" fill="#fff500" /><path d="M-130.8-212.5l462 1.8a236.3 236.3 0 0 0-462-1.8" fill="#c2e1ff" /><path d="M-129.8-107.1l466-54.3a236.3 236.3 0 0 0-92.4-188l0 0-326.8 38a236.3 236.3 0 0 0-46.8 204.3" fill="#fff" /><path d="M-120.1-76.1l393.3 74.7a236.3 236.3 0 0 0 63-159.5l0 0-456.4-86.7a236.3 236.3 0 0 0 0.1 171.5" fill="#005bbb" /><path d="M-135.4-182.3l416.7 171.7a236.3 236.3 0 0 1-416.7-171.7" fill="#fff500" /><path d="M-43.9 25.4l281.1 4.9a236.3 236.3 0 0 1-281.1-4.9" fill="#fff" /></svg>