<svg width="1200" height="675" viewBox="-500 -500 1200 675" xmlns="http://www.w3.org/2000/svg"><path d="M-500-500h1200v675h-1200z" fill="#000"/><path d="M139.22794270001864,-404.693876984127A 39.375 39.375 0 0 0 60.77205729998136 -404.693876984127A 236 236 0 0 1 139.22794270001864 -404.693876984127" fill="#fff"/><path d="M100,-500V-447.46875" stroke="#fff" stroke-linecap="round" stroke-dasharray="0.01 10.5" stroke-width="7"/><path d="M-51.6-343.2l378.5 115.5a236.3 236.3 0 0 0-378.5-115.5" fill="#FF7777" /><path d="M-134.6-134.1l462-91.8a236.3 236.3 0 0 0-125.1-149.1l0 0-278.2 55.3a236.3 236.3 0 0 0-58.7 185.6" fill="#D4B499" /><path d="M-133.9-129l419.6 113.1a236.3 236.3 0 0 0 21.3-260l0 0-328.8-88.6a236.3 236.3 0 0 0-112.1 235.5" fill="#FF7777" /><path d="M-110.6-55l446.4-122a236.3 236.3 0 0 1-446.4 122" fill="#FF7777" /><path d="M-130.3-109.3l440.5 55.2a236.3 236.3 0 0 1-440.5-55.2" fill="#CEE5D0" /></svg>