<svg width="1200" height="675" viewBox="-500 -500 1200 675" xmlns="http://www.w3.org/2000/svg"><path d="M-500-500h1200v675h-1200z" fill="#000"/><path d="M139.22794270001864,-404.693876984127A 39.375 39.375 0 0 0 60.77205729998136 -404.693876984127A 236 236 0 0 1 139.22794270001864 -404.693876984127" fill="#fff"/><path d="M100,-500V-447.46875" stroke="#fff" stroke-linecap="round" stroke-dasharray="0.01 10.5" stroke-width="7"/><path d="M-73.5-322.3l316.5-27.8a236.3 236.3 0 0 0-316.5 27.8" fill="#fff" /><path d="M-127.8-224.5l443.5-33.8a236.3 236.3 0 0 0-136.5-126.3l0 0-191.3 14.6a236.3 236.3 0 0 0-115.7 145.5" fill="#c2e1ff" /><path d="M-135.7-177.8l469.8-15.7a236.3 236.3 0 0 0-101.6-164.1l0 0-277.7 9.3a236.3 236.3 0 0 0-90.5 170.5" fill="#fff" /><path d="M-123.3-84.9l459.5-72.1a236.3 236.3 0 0 0-36.9-131.9l0 0-427.9 67.1a236.3 236.3 0 0 0 5.3 136.9" fill="#fff500" /><path d="M-27.4 37l280.3-18.9a236.3 236.3 0 0 0 81.4-150.1l0 0-462.5 31.1a236.3 236.3 0 0 0 100.8 137.9" fill="#fff" /><path d="M-51.5 19.3l221 44.5a236.3 236.3 0 0 0 156.1-155.5l0 0-460.8-92.8a236.3 236.3 0 0 0 83.7 203.8" fill="#fff500" /><path d="M-40.6 27.9l346.1-73.3a236.3 236.3 0 0 1-346.1 73.3" fill="#005bbb" /></svg>