<svg width="1200" height="675" viewBox="-500 -500 1200 675" xmlns="http://www.w3.org/2000/svg"><path d="M-500-500h1200v675h-1200z" fill="#000"/><path d="M139.22794270001864,-404.693876984127A 39.375 39.375 0 0 0 60.77205729998136 -404.693876984127A 236 236 0 0 1 139.22794270001864 -404.693876984127" fill="#fff"/><path d="M100,-500V-447.46875" stroke="#fff" stroke-linecap="round" stroke-dasharray="0.01 10.5" stroke-width="7"/><path d="M-33.2-357.2l316.3 45.9a236.3 236.3 0 0 0-316.3-45.9" fill="#c2e1ff" /><path d="M-128.1-223.4l463.5 41.7a236.3 236.3 0 0 0-81.7-159.7l0 0-272.9-24.6a236.3 236.3 0 0 0-108.9 142.6" fill="#fff500" /><path d="M-135.9-149l472.1-8.9a236.3 236.3 0 0 0-57.3-158.4l0 0-363.5 6.9a236.3 236.3 0 0 0-51.3 160.4" fill="#c2e1ff" /><path d="M-136.2-155.8l466 48.6a236.3 236.3 0 0 0-5.3-128.3l0 0-429-44.8a236.3 236.3 0 0 0-31.7 124.5" fill="#fff" /><path d="M-117.4-69.5l347.5 104.7a236.3 236.3 0 0 0 85.7-101.1l0 0-448.8-135.2a236.3 236.3 0 0 0 15.6 131.6" fill="#005bbb" /><path d="M-2.4 50.9l225-11a236.3 236.3 0 0 0 113.4-190.2l0 0-469.7 22.9a236.3 236.3 0 0 0 131.3 178.3" fill="#c2e1ff" /><path d="M7.6 55.4l230.3-25.6a236.3 236.3 0 0 1-230.3 25.6" fill="#005bbb" /></svg>