<svg width="1200" height="675" viewBox="-500 -500 1200 675" xmlns="http://www.w3.org/2000/svg"><path d="M-500-500h1200v675h-1200z" fill="#000"/><path d="M139.22794270001864,-404.693876984127A 39.375 39.375 0 0 0 60.77205729998136 -404.693876984127A 236 236 0 0 1 139.22794270001864 -404.693876984127" fill="#fff"/><path d="M100,-500V-447.46875" stroke="#fff" stroke-linecap="round" stroke-dasharray="0.01 10.5" stroke-width="7"/><path d="M-82.2-312.4l390.9 39.7a236.3 236.3 0 0 0-390.9-39.7" fill="#fff" /><path d="M-109.3-271.5l422.4 7.4a236.3 236.3 0 0 0-152.7-126.3l0 0-112.6-2a236.3 236.3 0 0 0-157.1 120.9" fill="#fff500" /><path d="M-98.5-290.1l434.7 122.8a236.3 236.3 0 0 0-37.2-122.1l0 0-301.9-85.3a236.3 236.3 0 0 0-95.6 84.6" fill="#c2e1ff" /><path d="M-124.3-87.7l460-90.9a236.3 236.3 0 0 0-43.6-121l0 0-422.1 83.5a236.3 236.3 0 0 0 5.7 128.4" fill="#fff500" /><path d="M-120.2-76.5l423 35.7a236.3 236.3 0 0 0 33.4-120.2l0 0-469.3-39.6a236.3 236.3 0 0 0 12.9 124.1" fill="#fff500" /><path d="M-105.1-44.7l361.6 59.7a236.3 236.3 0 0 0 77.7-145.9l0 0-466-76.9a236.3 236.3 0 0 0 26.7 163.1" fill="#fff500" /><path d="M-110.8-55.4l364 73.2a236.3 236.3 0 0 1-364-73.2" fill="#fff" /><path d="M-37.6 30.1l307-27.4a236.3 236.3 0 0 1-307 27.4" fill="#fff500" /></svg>