<svg width="1200" height="675" viewBox="-500 -500 1200 675" xmlns="http://www.w3.org/2000/svg"><path d="M-500-500h1200v675h-1200z" fill="#000"/><path d="M139.22794270001864,-404.693876984127A 39.375 39.375 0 0 0 60.77205729998136 -404.693876984127A 236 236 0 0 1 139.22794270001864 -404.693876984127" fill="#fff"/><path d="M100,-500V-447.46875" stroke="#fff" stroke-linecap="round" stroke-dasharray="0.01 10.5" stroke-width="7"/><path d="M-115.5-258.8l336.4-106.2a236.3 236.3 0 0 0-336.4 106.2" fill="#c2e1ff" /><path d="M-136.2-160.6l472.3 6.2a236.3 236.3 0 0 0-164.5-232.7l0 0-137.2-1.9a236.3 236.3 0 0 0-170.6 228.4" fill="#c2e1ff" /><path d="M-133.6-126.5l454.7 47.6a236.3 236.3 0 0 0-39.2-233.9l0 0-328.6-34.4a236.3 236.3 0 0 0-86.9 220.7" fill="#fff500" /><path d="M-121.3-79.4l457.2-94.8a236.3 236.3 0 0 1-457.2 94.8" fill="#005bbb" /><path d="M-108.3-50.6l345.6 80.9a236.3 236.3 0 0 1-345.6-80.9" fill="#fff" /></svg>