<svg width="1200" height="675" viewBox="-500 -500 1200 675" xmlns="http://www.w3.org/2000/svg"><path d="M-500-500h1200v675h-1200z" fill="#000"/><path d="M139.22794270001864,-404.693876984127A 39.375 39.375 0 0 0 60.77205729998136 -404.693876984127A 236 236 0 0 1 139.22794270001864 -404.693876984127" fill="#fff"/><path d="M100,-500V-447.46875" stroke="#fff" stroke-linecap="round" stroke-dasharray="0.01 10.5" stroke-width="7"/><path d="M-71-325l405.6 190.9a236.3 236.3 0 0 0-405.6-190.9" fill="#fff500" /><path d="M-135.7-177.9l471.4 32a236.3 236.3 0 0 0-190.7-248l0 0-58.2-4a236.3 236.3 0 0 0-222.5 220" fill="#fff500" /><path d="M-116.2-66.7l451.1-120.4a236.3 236.3 0 0 0-95.4-165.6l0 0-355.4 94.8a236.3 236.3 0 0 0-0.3 191.2" fill="#005bbb" /><path d="M32.5 64.4l102.3 7.3a236.3 236.3 0 0 0 188.9-157.6l0 0-455.9-32.5a236.3 236.3 0 0 0 164.7 182.8" fill="#c2e1ff" /><path d="M-117.7-70.1l425 21.5a236.3 236.3 0 0 1-425-21.5" fill="#005bbb" /></svg>