<svg width="1200" height="675" viewBox="-500 -500 1200 675" xmlns="http://www.w3.org/2000/svg"><path d="M-500-500h1200v675h-1200z" fill="#000"/><path d="M139.22794270001864,-404.693876984127A 39.375 39.375 0 0 0 60.77205729998136 -404.693876984127A 236 236 0 0 1 139.22794270001864 -404.693876984127" fill="#fff"/><path d="M100,-500V-447.46875" stroke="#fff" stroke-linecap="round" stroke-dasharray="0.01 10.5" stroke-width="7"/><path d="M-41.2-351.4l369.7 129.3a236.3 236.3 0 0 0-369.7-129.3" fill="#EFF7F5" /><path d="M-127.4-97.8l461.4-31.5a236.3 236.3 0 0 0-75.2-207.6l0 0-339.9 23.2a236.3 236.3 0 0 0-46.3 215.9" fill="#EF8F88" /><path d="M-123.8-86.2l277.7 154.2a236.3 236.3 0 0 0 172.8-163.4l0 0-403-223.8a236.3 236.3 0 0 0-47.5 233" fill="#6E819E" /><path d="M-104.1-43l438.5-148.3a236.3 236.3 0 0 1-438.5 148.3" fill="#FFFFFF" /></svg>