<svg width="1200" height="675" viewBox="-500 -500 1200 675" xmlns="http://www.w3.org/2000/svg"><path d="M-500-500h1200v675h-1200z" fill="#000"/><path d="M139.22794270001864,-404.693876984127A 39.375 39.375 0 0 0 60.77205729998136 -404.693876984127A 236 236 0 0 1 139.22794270001864 -404.693876984127" fill="#fff"/><path d="M100,-500V-447.46875" stroke="#fff" stroke-linecap="round" stroke-dasharray="0.01 10.5" stroke-width="7"/><path d="M-38.3-353.5l373.9 209.5a236.3 236.3 0 0 0-373.9-209.5" fill="#005bbb" /><path d="M-25 38.5l350.9-131.4a236.3 236.3 0 0 0-271-301l0 0-73.1 27.4a236.3 236.3 0 0 0-6.8 405" fill="#005bbb" /><path d="M-135.6-179l471.1-1.5a236.3 236.3 0 0 1-471.1 1.5" fill="#c2e1ff" /></svg>