<svg width="1200" height="675" viewBox="-500 -500 1200 675" xmlns="http://www.w3.org/2000/svg"><path d="M-500-500h1200v675h-1200z" fill="#000"/><path d="M139.22794270001864,-404.693876984127A 39.375 39.375 0 0 0 60.77205729998136 -404.693876984127A 236 236 0 0 1 139.22794270001864 -404.693876984127" fill="#fff"/><path d="M100,-500V-447.46875" stroke="#fff" stroke-linecap="round" stroke-dasharray="0.01 10.5" stroke-width="7"/><path d="M-122.6-82.9l365.3-267.4a236.3 236.3 0 0 0-365.3 267.4" fill="#f4a261" /><path d="M-128-100.2l257.8 172.6a236.3 236.3 0 0 0 168.9-362.2l0 0-156.3-104.6a236.3 236.3 0 0 0-270.4 294.2" fill="#e76f51" /><path d="M-113.7-262.6l447.9 131.7a236.3 236.3 0 0 1-447.9-131.7" fill="#e9c46a" /></svg>