<svg width="1200" height="675" viewBox="-500 -500 1200 675" xmlns="http://www.w3.org/2000/svg"><path d="M-500-500h1200v675h-1200z" fill="#000"/><path d="M139.22794270001864,-404.693876984127A 39.375 39.375 0 0 0 60.77205729998136 -404.693876984127A 236 236 0 0 1 139.22794270001864 -404.693876984127" fill="#fff"/><path d="M100,-500V-447.46875" stroke="#fff" stroke-linecap="round" stroke-dasharray="0.01 10.5" stroke-width="7"/><path d="M-128.6-221.6l394.8-108.3a236.3 236.3 0 0 0-394.8 108.3" fill="#e9c46a" /><path d="M-95.5-294.6l431.7 127.2a236.3 236.3 0 0 0-78.7-170.6l0 0-194.4-57.4a236.3 236.3 0 0 0-158.6 100.8" fill="#e76f51" /><path d="M-136-151.7l468.2 33.3a236.3 236.3 0 0 0-51.4-195.6l0 0-338.3-24.1a236.3 236.3 0 0 0-78.5 186.4" fill="#e9c46a" /><path d="M-91.1-23.1l345.3 40.1a236.3 236.3 0 0 0 80.9-202.5l0 0-458.6-53.2a236.3 236.3 0 0 0 32.4 215.6" fill="#f4a261" /><path d="M-30.9 34.7l236 14.9a236.3 236.3 0 0 0 130.7-197.6l0 0-471.5-29.8a236.3 236.3 0 0 0 104.8 212.5" fill="#e76f51" /><path d="M-41.5 27.2l297.4-11.7a236.3 236.3 0 0 1-297.4 11.7" fill="#e9c46a" /></svg>