<svg width="1200" height="675" viewBox="-500 -500 1200 675" xmlns="http://www.w3.org/2000/svg"><path d="M-500-500h1200v675h-1200z" fill="#000"/><path d="M139.22794270001864,-404.693876984127A 39.375 39.375 0 0 0 60.77205729998136 -404.693876984127A 236 236 0 0 1 139.22794270001864 -404.693876984127" fill="#fff"/><path d="M100,-500V-447.46875" stroke="#fff" stroke-linecap="round" stroke-dasharray="0.01 10.5" stroke-width="7"/><path d="M-86.3-307.3l376.8 5.6a236.3 236.3 0 0 0-376.8-5.6" fill="#005bbb" /><path d="M-134.4-191.4l467.8-7.1a236.3 236.3 0 0 0-93.8-154.1l0 0-285 4.4a236.3 236.3 0 0 0-89 156.8" fill="#c2e1ff" /><path d="M-134.7-135.2l460.8 41.6a236.3 236.3 0 0 0-12.5-169.3l0 0-405.7-36.6a236.3 236.3 0 0 0-42.6 164.3" fill="#c2e1ff" /><path d="M-58.2 13.5l373.4-78a236.3 236.3 0 0 0 1.8-190.8l0 0-453.2 94.6a236.3 236.3 0 0 0 78 174.2" fill="#fff500" /><path d="M-122.3-82.1l442 7a236.3 236.3 0 0 1-442-7" fill="#c2e1ff" /><path d="M-118.9-73.1l353.3 105.4a236.3 236.3 0 0 1-353.3-105.4" fill="#fff" /></svg>