<svg width="1200" height="675" viewBox="-500 -500 1200 675" xmlns="http://www.w3.org/2000/svg"><path d="M-500-500h1200v675h-1200z" fill="#000"/><path d="M139.22794270001864,-404.693876984127A 39.375 39.375 0 0 0 60.77205729998136 -404.693876984127A 236 236 0 0 1 139.22794270001864 -404.693876984127" fill="#fff"/><path d="M100,-500V-447.46875" stroke="#fff" stroke-linecap="round" stroke-dasharray="0.01 10.5" stroke-width="7"/><path d="M-7.2-372.5l325.3 119.7a236.3 236.3 0 0 0-325.3-119.7" fill="#fff500" /><path d="M-134.9-137.1l470.6-8.9a236.3 236.3 0 0 0-96.3-206.7l0 0-285.9 5.4a236.3 236.3 0 0 0-88.4 210.2" fill="#c2e1ff" /><path d="M-134.8-136.2l375.5 164a236.3 236.3 0 0 0 94.8-170.9l0 0-409.4-178.8a236.3 236.3 0 0 0-60.9 185.7" fill="#005bbb" /><path d="M-110.5-54.7l444.4-140.3a236.3 236.3 0 0 1-444.4 140.3" fill="#c2e1ff" /><path d="M-117.5-69.7l414.8 37.6a236.3 236.3 0 0 1-414.8-37.6" fill="#fff500" /></svg>