<svg width="1200" height="675" viewBox="-500 -500 1200 675" xmlns="http://www.w3.org/2000/svg"><path d="M-500-500h1200v675h-1200z" fill="#000"/><path d="M139.22794270001864,-404.693876984127A 39.375 39.375 0 0 0 60.77205729998136 -404.693876984127A 236 236 0 0 1 139.22794270001864 -404.693876984127" fill="#fff"/><path d="M100,-500V-447.46875" stroke="#fff" stroke-linecap="round" stroke-dasharray="0.01 10.5" stroke-width="7"/><path d="M-42.1-350.7l372.6 137a236.3 236.3 0 0 0-372.6-137" fill="#005bbb" /><path d="M-107.4-48.8l417.1-4.4a236.3 236.3 0 0 0-98.3-317.1l0 0-227.1 2.3a236.3 236.3 0 0 0-91.7 319.2" fill="#005bbb" /><path d="M-136-151.5l358 191.8a236.3 236.3 0 0 0 114.2-197.1l0 0-371.3-199a236.3 236.3 0 0 0-100.9 204.3" fill="#005bbb" /><path d="M-73-1.1l339.4 6.8a236.3 236.3 0 0 1-339.4-6.8" fill="#005bbb" /></svg>