<svg width="1200" height="675" viewBox="-500 -500 1200 675" xmlns="http://www.w3.org/2000/svg"><path d="M-500-500h1200v675h-1200z" fill="#000"/><path d="M139.22794270001864,-404.693876984127A 39.375 39.375 0 0 0 60.77205729998136 -404.693876984127A 236 236 0 0 1 139.22794270001864 -404.693876984127" fill="#fff"/><path d="M100,-500V-447.46875" stroke="#fff" stroke-linecap="round" stroke-dasharray="0.01 10.5" stroke-width="7"/><path d="M-105.5-278.5l437.2 162.6a236.3 236.3 0 0 0-437.2-162.6" fill="#fff500" /><path d="M-134.8-188.2l380.2 212.4a236.3 236.3 0 0 0 60.7-301.7l0 0-215.8-120.6a236.3 236.3 0 0 0-225.1 209.9" fill="#c2e1ff" /><path d="M-122.9-83.6l394 84.5a236.3 236.3 0 0 1-394-84.5" fill="#fff" /></svg>