<svg width="1200" height="675" viewBox="-500 -500 1200 675" xmlns="http://www.w3.org/2000/svg"><path d="M-500-500h1200v675h-1200z" fill="#000"/><path d="M139.22794270001864,-404.693876984127A 39.375 39.375 0 0 0 60.77205729998136 -404.693876984127A 236 236 0 0 1 139.22794270001864 -404.693876984127" fill="#fff"/><path d="M100,-500V-447.46875" stroke="#fff" stroke-linecap="round" stroke-dasharray="0.01 10.5" stroke-width="7"/><path d="M-136.2-163.5l472.2 11.7a236.3 236.3 0 0 0-472.2-11.7" fill="#005bbb" /><path d="M127.3 72.7l47.7-10.7a236.3 236.3 0 0 0 119.8-357.6l0 0-428 95.5a236.3 236.3 0 0 0 260.5 272.8" fill="#fff" /><path d="M-127.5-98.3l461.4-97.3a236.3 236.3 0 0 1-461.4 97.3" fill="#c2e1ff" /></svg>