<svg width="1200" height="675" viewBox="-500 -500 1200 675" xmlns="http://www.w3.org/2000/svg"><path d="M-500-500h1200v675h-1200z" fill="#000"/><path d="M139.22794270001864,-404.693876984127A 39.375 39.375 0 0 0 60.77205729998136 -404.693876984127A 236 236 0 0 1 139.22794270001864 -404.693876984127" fill="#fff"/><path d="M100,-500V-447.46875" stroke="#fff" stroke-linecap="round" stroke-dasharray="0.01 10.5" stroke-width="7"/><path d="M-51.5-343.3l314.3 10.1a236.3 236.3 0 0 0-314.3-10.1" fill="#005bbb" /><path d="M-135.9-149.4l469.9-45.1a236.3 236.3 0 0 0-107.5-167l0 0-288.7 27.7a236.3 236.3 0 0 0-73.7 184.4" fill="#fff500" /><path d="M-126.8-228.3l440 168a236.3 236.3 0 0 0 17.6-152.2l0 0-369.2-141a236.3 236.3 0 0 0-88.4 125.2" fill="#fff" /><path d="M-85.2-15.4l377.2-9a236.3 236.3 0 0 0 31.1-215.2l0 0-449.7 10.7a236.3 236.3 0 0 0 41.4 213.5" fill="#fff" /><path d="M-96.6-31l428.1-83.6a236.3 236.3 0 0 1-428.1 83.6" fill="#fff500" /><path d="M-51.1 19.6l375.4-107.5a236.3 236.3 0 0 1-375.4 107.5" fill="#005bbb" /></svg>