<svg width="1200" height="675" viewBox="-500 -500 1200 675" xmlns="http://www.w3.org/2000/svg"><path d="M-500-500h1200v675h-1200z" fill="#000"/><path d="M139.22794270001864,-404.693876984127A 39.375 39.375 0 0 0 60.77205729998136 -404.693876984127A 236 236 0 0 1 139.22794270001864 -404.693876984127" fill="#fff"/><path d="M100,-500V-447.46875" stroke="#fff" stroke-linecap="round" stroke-dasharray="0.01 10.5" stroke-width="7"/><path d="M-133.5-197.9l433.9-89.2a236.3 236.3 0 0 0-433.9 89.2" fill="#001d3d" /><path d="M-135.4-142.2l445.7-127.4a236.3 236.3 0 0 0-191-127.9l0 0-160 45.7a236.3 236.3 0 0 0-94.7 209.6" fill="#000814" /><path d="M-135.1-138.8l425 117.4a236.3 236.3 0 0 0 42-186l0 0-407.5-112.6a236.3 236.3 0 0 0-59.5 181.2" fill="#003566" /><path d="M-78.9-7.7l352.7 5.7a236.3 236.3 0 0 0 61.5-181.5l0 0-469.8-7.5a236.3 236.3 0 0 0 55.6 183.3" fill="#003566" /><path d="M-118.9-73.2l432 13.3a236.3 236.3 0 0 1-432-13.3" fill="#003566" /><path d="M-109.6-53.1l361.3 72.2a236.3 236.3 0 0 1-361.3-72.2" fill="#001d3d" /></svg>