<svg width="1200" height="675" viewBox="-500 -500 1200 675" xmlns="http://www.w3.org/2000/svg"><path d="M-500-500h1200v675h-1200z" fill="#000"/><path d="M139.22794270001864,-404.693876984127A 39.375 39.375 0 0 0 60.77205729998136 -404.693876984127A 236 236 0 0 1 139.22794270001864 -404.693876984127" fill="#fff"/><path d="M100,-500V-447.46875" stroke="#fff" stroke-linecap="round" stroke-dasharray="0.01 10.5" stroke-width="7"/><path d="M12.3-381.4l282.3 85.5a236.3 236.3 0 0 0-282.3-85.5" fill="#005bbb" /><path d="M-53.9-341.3l381.4 115.7a236.3 236.3 0 0 0-381.4-115.7" fill="#005bbb" /><path d="M-134.6-189.5l448.8-72.1a236.3 236.3 0 0 0-90.3-101.6l0 0-304.5 48.9a236.3 236.3 0 0 0-54 124.8" fill="#fff" /><path d="M-134.6-190l447.4 130.6a236.3 236.3 0 0 0 23.4-103.2l0 0-435-127a236.3 236.3 0 0 0-35.8 99.6" fill="#c2e1ff" /><path d="M-79.3-8.2l387-41.3a236.3 236.3 0 0 0 22.7-164.6l0 0-466.6 49.7a236.3 236.3 0 0 0 56.9 156.2" fill="#c2e1ff" /><path d="M-51.7 19.2l340.7-39.5a236.3 236.3 0 0 0 46.3-121l0 0-459.7 53.2a236.3 236.3 0 0 0 72.7 107.3" fill="#fff500" /><path d="M-26.8 37.4l223.3 16.2a236.3 236.3 0 0 0 110.1-101.1l0 0-427.7-31.2a236.3 236.3 0 0 0 94.3 116.1" fill="#fff500" /><path d="M0.3 52.2l277-58a236.3 236.3 0 0 1-277 58" fill="#fff" /></svg>