<svg width="1200" height="675" viewBox="-500 -500 1200 675" xmlns="http://www.w3.org/2000/svg"><title>18863-9830505464</title><path d="M-500-500h1200v675h-1200z" fill="#000"/><path d="M151.2 62.8a231 231 0 0 1-170.3-27.4l100.4-166.8a36.3 36.3 0 0 0 26.7 4.3z" fill="#f77f00"/><path d="M125.5-223.7a66.3 66.3 0 1 1-83.9 29.9l47.5 25.4a12.4 12.4 0 1 0 15.7-5.6z" fill="#fcbf49"/><path d="M157.6-300.3a149.3 149.3 0 0 1 86.1 97l-59 16.7a88.1 88.1 0 0 0-50.8-57.2z" fill="#d62828"/><path d="M51.4-131.7a57.6 57.6 0 1 1 100.1-5l-27.4-13.7a26.9 26.9 0 1 0-46.8 2.3z" fill="#eae2b7"/><path d="M-34.1-132a137.5 137.5 0 0 1 254.4-97.2l-2.4 1.3a134.8 134.8 0 0 0-249.3 95.3z" fill="#003049"/></svg>