<svg width="1200" height="675" viewBox="-500 -500 1200 675" xmlns="http://www.w3.org/2000/svg"><title>19594-10209629317</title><path d="M-500-500h1200v675h-1200z" fill="#000"/><path d="M155.5-323.1a170 170 0 1 1-222.1 127.2l45.9 9.2a123.1 123.1 0 1 0 160.9-92.2z" fill="#fff500"/><path d="M178-381.4a232.4 232.4 0 0 1 140.5 298.1l-56.4-20.5a172.5 172.5 0 0 0-104.2-221.1z" fill="#c2e1ff"/><path d="M234.8-310.5a200.2 200.2 0 0 1 29 263.1l-33.3-23.4a159.5 159.5 0 0 0-23.1-209.6z" fill="#005bbb"/><path d="M130.7-201a49.3 49.3 0 1 1-79.6 32.9l35.2 4a13.8 13.8 0 1 0 22.3-9.2z" fill="#fff"/></svg>