<svg width="1200" height="675" viewBox="-500 -500 1200 675" xmlns="http://www.w3.org/2000/svg"><title>19172-9992795534</title><path d="M-500-500h1200v675h-1200z" fill="#000"/><path d="M229.3-241.2a151.4 151.4 0 0 1-107.7 228.5l-1.7-11.3a140 140 0 0 0 99.7-211.2z" fill="#c2e1ff"/><path d="M156.7-28.5a145.5 145.5 0 0 1-123.8-4.9l5-9.6a134.6 134.6 0 0 0 114.6 4.5z" fill="#005bbb"/><path d="M53.2-91.2a85.3 85.3 0 0 1 5.2-145.8l14.7 26.4a55.1 55.1 0 0 0-3.3 94.2z" fill="#fff500"/><path d="M54.6-134.7a53.2 53.2 0 1 1 5.9 7.9l9.7-8.8a40.2 40.2 0 1 0-4.5-5.9z" fill="#fff"/></svg>