<svg width="1200" height="675" viewBox="-500 -500 1200 675" xmlns="http://www.w3.org/2000/svg"><title>19599-10211214801</title><path d="M-500-500h1200v675h-1200z" fill="#000"/><path d="M120.1-124.1a43.4 43.4 0 1 1-0.9-77.3l-14.4 29.1a10.9 10.9 0 1 0 0.3 19.5z" fill="#c2e1ff"/><path d="M-40.3-142.7a141.7 141.7 0 0 1 278.3-51.8l-116.8 27.1a21.8 21.8 0 0 0-42.7 7.9z" fill="#fff"/><path d="M-4.7-143.2a106.5 106.5 0 0 1 204.8-55.4l-82 29.6a19.3 19.3 0 0 0-37 10z" fill="#005bbb"/><path d="M216.8-51.6a161.1 161.1 0 0 1-265.9-50l126-51.5a24.9 24.9 0 0 0 41.2 7.8z" fill="#fff500"/></svg>