<svg width="1200" height="675" viewBox="-500 -500 1200 675" xmlns="http://www.w3.org/2000/svg"><title>19373-10095768160</title><path d="M-500-500h1200v675h-1200z" fill="#000"/><path d="M299.3-37.7a235.2 235.2 0 0 1-17.6 24.5l-18.3-15a211.5 211.5 0 0 0 15.8-22.1z" fill="#c2e1ff"/><path d="M43.3-260.4a113.2 113.2 0 1 1-0.5 195.5l44-75.1a26.1 26.1 0 1 0 0.1-45.1z" fill="#fff"/><path d="M108.6-315.9a153.7 153.7 0 1 1-134.6 241.4l63.8-44.5a75.9 75.9 0 1 0 66.4-119.3z" fill="#005bbb"/><path d="M91.2-187.8a26.8 26.8 0 0 1 31.4 39.7l-14.8-9.4a9.3 9.3 0 0 0-10.8-13.8z" fill="#fff500"/></svg>