<svg width="1200" height="675" viewBox="-500 -500 1200 675" xmlns="http://www.w3.org/2000/svg"><title>19085-9945972329</title><path d="M-500-500h1200v675h-1200z" fill="#000"/><path d="M108.6-4.8a157.9 157.9 0 1 1-6.9-315.6l-1.1 97.8a60.1 60.1 0 1 0 2.7 120.1z" fill="#fff"/><path d="M-15.4-115.7a124.5 124.5 0 0 1-9-52.3l3.7 0.1a120.9 120.9 0 0 0 8.7 50.8z" fill="#005bbb"/><path d="M284.3-52.9a214.4 214.4 0 1 1 18.2-180.1l-41.3 14.4a170.7 170.7 0 1 0-14.5 143.4z" fill="#c2e1ff"/><path d="M186.1-159.3a86.2 86.2 0 0 1-158.4 43.7l30.2-19.6a50.1 50.1 0 0 0 92.2-25.4z" fill="#fff500"/></svg>