<svg width="1200" height="675" viewBox="-500 -500 1200 675" xmlns="http://www.w3.org/2000/svg"><title>19433-10131694194</title><path d="M-500-500h1200v675h-1200z" fill="#000"/><path d="M177.3-119.3a88.5 88.5 0 1 1 8-67.1l-58.1 16.3a28.2 28.2 0 1 0-2.6 21.4z" fill="#fff500"/><path d="M139.5-129.5a51.5 51.5 0 1 1-49.8-83.4l8.1 39.7a10.9 10.9 0 1 0 10.6 17.7z" fill="#c2e1ff"/><path d="M103.7-119.1a43.6 43.6 0 1 1 6-0.9l-2.5-10.8a32.5 32.5 0 1 0-4.4 0.7z" fill="#005bbb"/><path d="M149.7 32.8a201.6 201.6 0 0 1-171.9-35l32.4-42.5a148.1 148.1 0 0 0 126.3 25.8z" fill="#fff"/></svg>