<svg width="1200" height="675" viewBox="-500 -500 1200 675" xmlns="http://www.w3.org/2000/svg"><title>19469-10279896861</title><path d="M-500-500h1200v675h-1200z" fill="#000"/><path d="M-41.6-163.7a141.6 141.6 0 1 1 77.8 127.6l23.2-46.1a90 90 0 1 0-49.4-81z" fill="#c2e1ff"/><path d="M-86.5-203.8a191.1 191.1 0 0 1 305-108.6l-87.5 110.7a50 50 0 0 0-79.8 28.4z" fill="#005bbb"/><path d="M189.8-321.9a183 183 0 0 1 44.8 283.3l-49.7-45.8a115.4 115.4 0 0 0-28.3-178.6z" fill="#fff500"/><path d="M6-183.1a96.2 96.2 0 0 1 110.9-74.1l-6.1 34.1a61.6 61.6 0 0 0-71 47.4z" fill="#fff"/></svg>