<svg width="1200" height="675" viewBox="-500 -500 1200 675" xmlns="http://www.w3.org/2000/svg"><title>18914-9858537870</title><path d="M-500-500h1200v675h-1200z" fill="#000"/><path d="M252.3-8.4a216.6 216.6 0 0 1-25.8 21.7l-48.3-67.2a133.9 133.9 0 0 0 15.9-13.4z" fill="#ffd166"/><path d="M124.1-68.4a97.1 97.1 0 0 1-86.5-168.5l42.8 51.1a30.4 30.4 0 0 0 27.2 52.8z" fill="#073b4c"/><path d="M-21.4-97a138 138 0 1 1 129.4 72.3l-3.9-67.6a70.3 70.3 0 1 0-66-36.8z" fill="#118ab2"/><path d="M-115.9-94.1a226.5 226.5 0 1 1 421.9 25.8l-81-37.1a137.4 137.4 0 1 0-256-15.6z" fill="#ef476f"/><path d="M275.4-78.2a194.6 194.6 0 0 1-370-86.5l9.7 0.1a184.9 184.9 0 0 0 351.5 82.2z" fill="#06d6a0"/></svg>