<svg width="1200" height="675" viewBox="-500 -500 1200 675" xmlns="http://www.w3.org/2000/svg"><title>18946-10009948113</title><path d="M-500-500h1200v675h-1200z" fill="#000"/><path d="M151.1-215.4a73.6 73.6 0 0 1-28.5 122.9l-13.5-42a29.4 29.4 0 0 0 11.3-49.2z" fill="#eae2b7"/><path d="M118.8-36a127.9 127.9 0 1 1 35.9-242.2l-6.7 14.2a112.3 112.3 0 1 0-31.5 212.5z" fill="#003049"/><path d="M66.5-166.7a33.8 33.8 0 0 1 18-25.8l7.9 15.4a16.5 16.5 0 0 0-8.8 12.5z" fill="#fcbf49"/><path d="M200.6-295.6a166.8 166.8 0 0 1 65.6 117.9l-130.2 11.9a36.2 36.2 0 0 0-14.2-25.6z" fill="#d62828"/><path d="M-1-191.9a105.2 105.2 0 1 1 15.5 90.7l49.3-35.3a44.5 44.5 0 1 0-6.6-38.4z" fill="#f77f00"/></svg>