<svg width="1200" height="675" viewBox="-500 -500 1200 675" xmlns="http://www.w3.org/2000/svg"><title>19084-9946492461</title><path d="M-500-500h1200v675h-1200z" fill="#000"/><path d="M-66.3-325.2a232.7 232.7 0 0 1 346.5 15.5l-73.3 59.9a138.1 138.1 0 0 0-205.6-9.3z" fill="#c2e1ff"/><path d="M44.6-133.8a62.4 62.4 0 1 1 1.3 2.5l24.7-14.2a33.9 33.9 0 1 0-0.7-1.4z" fill="#005bbb"/><path d="M51.3-203.2a63.4 63.4 0 0 1 24.8-18l15.4 37.8a22.6 22.6 0 0 0-8.8 6.4z" fill="#fff500"/><path d="M309.6-78.9a225.7 225.7 0 0 1-73.2 96.1l-103.4-136.2a54.6 54.6 0 0 0 17.8-23.3z" fill="#fff"/></svg>