<svg width="1200" height="675" viewBox="-500 -500 1200 675" xmlns="http://www.w3.org/2000/svg"><title>19661-10246091867</title><path d="M-500-500h1200v675h-1200z" fill="#000"/><path d="M112.4-271.3a109.5 109.5 0 0 1 76.2 44.4l-25.2 18.3a78.4 78.4 0 0 0-54.5-31.8z" fill="#c2e1ff"/><path d="M128.3-126.1a46 46 0 0 1-69.1-57.8l37.1 19.5a4.1 4.1 0 0 0 6.2 5.2z" fill="#005bbb"/><path d="M-7.6-123a114.6 114.6 0 0 1 196.2-112.2l-40.9 33.6a61.6 61.6 0 0 0-105.6 60.3z" fill="#fff500"/><path d="M126.5-139.8a34.8 34.8 0 1 1 4.6-38.5l-12.4 6.3a20.9 20.9 0 1 0-2.8 23.1z" fill="#fff"/></svg>