<svg width="1200" height="675" viewBox="-500 -500 1200 675" xmlns="http://www.w3.org/2000/svg"><title>19240-10164978032</title><path d="M-500-500h1200v675h-1200z" fill="#000"/><path d="M185.6-192.5a90.7 90.7 0 1 1-68.9-59.2l-5.1 27a63.3 63.3 0 1 0 48.1 41.3z" fill="#fff500"/><path d="M80.9-201.3a43.2 43.2 0 0 1 60.9 27.7l-39.2 10.4a2.7 2.7 0 0 0-3.8-1.8z" fill="#c2e1ff"/><path d="M306.5-75.4a224.1 224.1 0 0 1-45.1 68.4l-156.8-151.1a6.3 6.3 0 0 0 1.2-1.9z" fill="#005bbb"/><path d="M22.7-339.4a193.1 193.1 0 1 1-10.9 348.6l72-140.2a35.5 35.5 0 1 0 2-64z" fill="#fff"/></svg>