<svg width="1200" height="675" viewBox="-500 -500 1200 675" xmlns="http://www.w3.org/2000/svg"><title>19355-10073825081</title><path d="M-500-500h1200v675h-1200z" fill="#000"/><path d="M134.8-337.1a178 178 0 1 1-149.3 38.3l76.4 90.9a59.3 59.3 0 1 0 49.7-12.7z" fill="#c2e1ff"/><path d="M73-276.3a117 117 0 1 1 27.2 230.8l-0.1-38.7a78.3 78.3 0 1 0-18.2-154.5z" fill="#005bbb"/><path d="M142.6-128.2a54.7 54.7 0 1 1 7.8-13l-24.5-10.4a28.2 28.2 0 1 0-4 6.8z" fill="#fff500"/><path d="M131.5-273.7a115.6 115.6 0 1 1-26-4.3l-0.4 7.1a108.5 108.5 0 1 0 24.5 4z" fill="#fff"/></svg>