<svg width="1200" height="675" viewBox="-500 -500 1200 675" xmlns="http://www.w3.org/2000/svg"><title>19789-10446869143</title><path d="M-500-500h1200v675h-1200z" fill="#000"/><path d="M131.9-276.3a118.2 118.2 0 0 1-29.6 232l-1.7-87.8a30.5 30.5 0 0 0 7.6-59.7z" fill="#fff500"/><path d="M105.3-205.1a42.9 42.9 0 0 1 15.1 4.8l-13.4 24.9a14.7 14.7 0 0 0-5.2-1.7z" fill="#fff"/><path d="M65.5-224.3a70.8 70.8 0 0 1 104.3 73.3l-0.2 0a70.6 70.6 0 0 0-104-73.1z" fill="#c2e1ff"/><path d="M122.2-43.5a121.1 121.1 0 1 1 17.9-4.7l-30.6-87.1a28.8 28.8 0 1 0-4.2 1.1z" fill="#005bbb"/></svg>