<svg width="1200" height="675" viewBox="-500 -500 1200 675" xmlns="http://www.w3.org/2000/svg"><title>19658-10243442055</title><path d="M-500-500h1200v675h-1200z" fill="#000"/><path d="M-125.4-231.9a235.8 235.8 0 1 1 439.8 167.5l-213.2-97.6a1.3 1.3 0 1 0-2.5-0.9z" fill="#fff500"/><path d="M188.1-368.4a224 224 0 1 1-302.6 270.3l139.4-41.9a78.4 78.4 0 1 0 105.9-94.6z" fill="#fff"/><path d="M301.1-80.2a217.3 217.3 0 1 1 12.1-124l-106.8 20.9a108.4 108.4 0 1 0-6 61.9z" fill="#c2e1ff"/><path d="M-37.2-252.4a164.1 164.1 0 0 1 298 57.3l-94 19.1a68.2 68.2 0 0 0-123.8-23.9z" fill="#005bbb"/></svg>