<svg width="1200" height="675" viewBox="-500 -500 1200 675" xmlns="http://www.w3.org/2000/svg"><title>19251-10153949148</title><path d="M-500-500h1200v675h-1200z" fill="#000"/><path d="M258.5-182.1a159.7 159.7 0 0 1-123.5 175.4l-26.8-119.4a37.3 37.3 0 0 0 28.8-41z" fill="#fff"/><path d="M33.7-67a116.3 116.3 0 0 1 69.3-211.7l-1.2 46.6a69.6 69.6 0 0 0-41.5 126.8z" fill="#c2e1ff"/><path d="M-93.4-109.6a200.5 200.5 0 1 1 392.4-28.3l-132.9-16.4a66.6 66.6 0 1 0-130.3 9.4z" fill="#fff500"/><path d="M121.2-25.2a138.9 138.9 0 1 1 69.4-31.9l-71.2-82.9a29.7 29.7 0 1 0-14.9 6.9z" fill="#005bbb"/></svg>