<svg width="1200" height="675" viewBox="-500 -500 1200 675" xmlns="http://www.w3.org/2000/svg"><title>19171-9993290834</title><path d="M-500-500h1200v675h-1200z" fill="#000"/><path d="M-23.2-292.1a178.8 178.8 0 1 1-30.2 37.7l98.9 59.3a63.5 63.5 0 1 0 10.7-13.4z" fill="#c2e1ff"/><path d="M192.8-282.2a151.4 151.4 0 1 1-56.8-27.4l-13.2 53.7a96.1 96.1 0 1 0 36.1 17.4z" fill="#fff"/><path d="M207.8 16a208.5 208.5 0 1 1 90.9-241.8l-134.2 42.7a67.7 67.7 0 1 0-29.5 78.6z" fill="#005bbb"/><path d="M167.8-221.4a89.8 89.8 0 0 1-55.9 147.9l-9.5-71.3a17.9 17.9 0 0 0 11.1-29.4z" fill="#fff500"/></svg>