<svg width="1200" height="675" viewBox="-500 -500 1200 675" xmlns="http://www.w3.org/2000/svg"><title>19398-10110343439</title><path d="M-500-500h1200v675h-1200z" fill="#000"/><path d="M-44.9-84.7a164.5 164.5 0 0 1 248-206l-88.4 109.9a23.5 23.5 0 0 0-35.4 29.4z" fill="#fff"/><path d="M85.8-231.4a70.4 70.4 0 0 1 64.1 118.6l-0.9-0.9a69.1 69.1 0 0 0-63-116.5z" fill="#005bbb"/><path d="M57.1-100.8a75.1 75.1 0 1 1 22.1 10.5l20.5-71.3a0.9 0.9 0 1 0-0.2-0.1z" fill="#c2e1ff"/><path d="M-93.6-269.7a221.3 221.3 0 1 1 190.1 328.5l1.3-83.9a137.4 137.4 0 1 0-118-204z" fill="#fff500"/></svg>