<svg width="1200" height="675" viewBox="-500 -500 1200 675" xmlns="http://www.w3.org/2000/svg"><title>19482-10267898497</title><path d="M-500-500h1200v675h-1200z" fill="#000"/><path d="M208.7-288.1a166.1 166.1 0 1 1-165.3-30.6l43.5 120a38.5 38.5 0 1 0 38.3 7.1z" fill="#fff500"/><path d="M236.9-150.5a137.4 137.4 0 1 1-235.4-107.9l41.7 40.6a79.2 79.2 0 1 0 135.7 62.2z" fill="#fff"/><path d="M237.8-171.8a138.1 138.1 0 0 1-259.6 74.4l51.6-27.5a79.6 79.6 0 0 0 149.6-43z" fill="#c2e1ff"/><path d="M87.1-195.8a35.7 35.7 0 1 1-22.8 32.1l4.9 0.1a30.8 30.8 0 1 0 19.6-27.6z" fill="#005bbb"/></svg>