<svg width="1200" height="675" viewBox="-500 -500 1200 675" xmlns="http://www.w3.org/2000/svg"><title>19383-10084193416</title><path d="M-500-500h1200v675h-1200z" fill="#000"/><path d="M82.8-346.3a184.6 184.6 0 0 1 166.9 75.8l-59.8 43.2a110.8 110.8 0 0 0-100.2-45.5z" fill="#fff"/><path d="M87.3-23.6a139.5 139.5 0 0 1-62.9-256.1l18.4 28.5a105.6 105.6 0 0 0 47.6 193.9z" fill="#c2e1ff"/><path d="M187.6 30.3a211.8 211.8 0 1 1 85.6-70.8l-45.5-32.1a156.2 156.2 0 1 0-63.1 52.3z" fill="#fff500"/><path d="M149.1-78.8a97.1 97.1 0 0 1-145.9-91l9 0.7a88 88 0 0 0 132.3 82.5z" fill="#005bbb"/></svg>