<svg width="1200" height="675" viewBox="-500 -500 1200 675" xmlns="http://www.w3.org/2000/svg"><title>19008-10044808795</title><path d="M-500-500h1200v675h-1200z" fill="#000"/><path d="M63.2-109.6a64.4 64.4 0 1 1 90.1-16.7l-23.6-16.1a35.9 35.9 0 1 0-50.2 9.4z" fill="#1d3557"/><path d="M167.8-42.6a137.7 137.7 0 1 1 57.5-177l-31.3 14.2a103.3 103.3 0 1 0-43.2 132.8z" fill="#a8dadc"/><path d="M-118.5-241.4a232.3 232.3 0 1 1 337.1 278.7l-64-107.9a106.9 106.9 0 1 0-155.2-128.2z" fill="#457b9d"/><path d="M85.4-41.6a121.8 121.8 0 0 1-23.7-236.5l30.3 91.4a25.5 25.5 0 0 0 4.9 49.6z" fill="#e63946"/><path d="M-91.5-96.7a202.5 202.5 0 0 1 324.4-218.5l-115.5 132.7a26.5 26.5 0 0 0-42.5 28.6z" fill="#f1faee"/></svg>