<svg width="1200" height="675" viewBox="-500 -500 1200 675" xmlns="http://www.w3.org/2000/svg"><title>19149-9979785067</title><path d="M-500-500h1200v675h-1200z" fill="#000"/><path d="M-10.3-152.8a110.8 110.8 0 1 1 127 99.8l-2.5-16.5a94.1 94.1 0 1 0-107.9-84.7z" fill="#c2e1ff"/><path d="M-63.8-83.9a181.7 181.7 0 1 1 35.8 50.3l113.5-114.3a20.5 20.5 0 1 0-4-5.7z" fill="#005bbb"/><path d="M109.3-254.3a92.3 92.3 0 0 1 32.2 9.4l-20.8 41.2a46.1 46.1 0 0 0-16.1-4.7z" fill="#fff500"/><path d="M71.3-77.8a89.4 89.4 0 1 1 117.5-94.9l-24.6 2.9a64.7 64.7 0 1 0-85 68.5z" fill="#fff"/></svg>