<svg width="1200" height="675" viewBox="-500 -500 1200 675" xmlns="http://www.w3.org/2000/svg"><title>19524-10317350011</title><path d="M-500-500h1200v675h-1200z" fill="#000"/><path d="M58.1-152a43.2 43.2 0 0 1 4.1-31.3l1.8 1a41.1 41.1 0 0 0-3.8 29.8z" fill="#fff"/><path d="M2.6-45.9a152 152 0 0 1 100.3-268.5l-1.8 92.5a59.4 59.4 0 0 0-39.2 105z" fill="#005bbb"/><path d="M209.6-209.8a119.4 119.4 0 0 1-217.7 98l47.2-22.1a67.2 67.2 0 0 0 122.6-55.2z" fill="#c2e1ff"/><path d="M63.9-245.9a90.9 90.9 0 1 1-21.3 153.8l26.7-32.8a48.5 48.5 0 1 0 11.4-82.1z" fill="#fff500"/></svg>