<svg width="1200" height="675" viewBox="-500 -500 1200 675" xmlns="http://www.w3.org/2000/svg"><title>19059-10052477526</title><path d="M-500-500h1200v675h-1200z" fill="#000"/><path d="M77.4-223.5a65 65 0 1 1 3.3 123.1l2.9-9.5a55.1 55.1 0 1 0-2.8-104.3z" fill="#fff500"/><path d="M269.5-68.4a193.9 193.9 0 0 1-216.1 94.1l21.1-85.2a106.1 106.1 0 0 0 118.2-51.5z" fill="#fff"/><path d="M156.1-147.7a58 58 0 1 1-87.8-63.4l30.3 46.5a2.6 2.6 0 1 0 3.9 2.8z" fill="#c2e1ff"/><path d="M-56.3-199.4a160.6 160.6 0 0 1 126.6-120.9l10 53.1a106.5 106.5 0 0 0-84 80.2z" fill="#005bbb"/></svg>