<svg width="1200" height="675" viewBox="-500 -500 1200 675" xmlns="http://www.w3.org/2000/svg"><title>19244-10162864224</title><path d="M-500-500h1200v675h-1200z" fill="#000"/><path d="M47.3-308.6a155.4 155.4 0 0 1 58.7-9.1l-1.6 40.5a114.8 114.8 0 0 0-43.4 6.7z" fill="#fff500"/><path d="M279.4-135.2a181.5 181.5 0 1 1-300.8-162.2l3.3 3.6a176.6 176.6 0 1 0 292.7 157.9z" fill="#c2e1ff"/><path d="M101.7-67.9a94.6 94.6 0 1 1 3.4-189.1l-2.8 52.2a42.3 42.3 0 1 0-1.5 84.6z" fill="#005bbb"/><path d="M67.2-136.1a42.1 42.1 0 0 1-5.4-44.1l3.8 1.8a37.9 37.9 0 0 0 4.9 39.7z" fill="#fff"/></svg>