<svg width="1200" height="675" viewBox="-500 -500 1200 675" xmlns="http://www.w3.org/2000/svg"><title>19364-10092126212</title><path d="M-500-500h1200v675h-1200z" fill="#000"/><path d="M-30.4-312.1a198.4 198.4 0 1 1-30.2 33.2l150.7 109.2a12.2 12.2 0 1 0 1.9-2z" fill="#fff500"/><path d="M-33.8-50.9a174.2 174.2 0 0 1 264.1-227.3l-3.2 2.9a169.9 169.9 0 0 0-257.6 221.6z" fill="#fff"/><path d="M117.9-135.6a32.3 32.3 0 0 1-45.4-10.1l0.5-0.3a31.7 31.7 0 0 0 44.6 9.8z" fill="#c2e1ff"/><path d="M145.5-226.6a78.6 78.6 0 0 1 18.8 109.3l-40.6-28.5a29 29 0 0 0-6.9-40.3z" fill="#005bbb"/></svg>