<svg width="1200" height="675" viewBox="-500 -500 1200 675" xmlns="http://www.w3.org/2000/svg"><title>18879-9822052280</title><path d="M-500-500h1200v675h-1200z" fill="#000"/><path d="M46.2-191.4a61 61 0 0 1 1.2-2l39.9 23.4a14.7 14.7 0 0 0-0.3 0.5z" fill="#f77f00"/><path d="M189.4-323.8a184.4 184.4 0 0 1-168.9 327.7l54-113.1a59.1 59.1 0 0 0 54.1-105z" fill="#eae2b7"/><path d="M-112.1-61.2a235 235 0 0 1-22.9-104.5l57.7 0.8a177.3 177.3 0 0 0 17.3 78.8z" fill="#fcbf49"/><path d="M190.8-17.9a170.8 170.8 0 0 1-257.8-180.2l38.5 8.2a131.4 131.4 0 0 0 198.4 138.7z" fill="#d62828"/><path d="M291.2-250.5a210.5 210.5 0 0 1 8.8 22.5l-186.9 61.2a13.8 13.8 0 0 0-0.6-1.5z" fill="#003049"/></svg>