<svg width="1200" height="675" viewBox="-500 -500 1200 675" xmlns="http://www.w3.org/2000/svg"><title>19899-10352708744</title><path d="M-500-500h1200v675h-1200z" fill="#000"/><path d="M59.6-72.3a98.8 98.8 0 0 1-8.5-176.1l4.7 8.3a89.3 89.3 0 0 0 7.8 159.1z" fill="#fff"/><path d="M-17.6-132.8a121.3 121.3 0 0 1-1.6-52l51.1 9.6a69.3 69.3 0 0 0 1 29.7z" fill="#c2e1ff"/><path d="M177.1-278.8a139.5 139.5 0 0 1 59.7 143.6l-114.3-22.8a23 23 0 0 0-9.8-23.7z" fill="#fff500"/><path d="M216.1-364.5a233 233 0 1 1-330.2 293.9l68.3-29.3a158.7 158.7 0 1 0 224.9-200.2z" fill="#005bbb"/></svg>