<svg width="1200" height="675" viewBox="-500 -500 1200 675" xmlns="http://www.w3.org/2000/svg"><title>19795-10441684335</title><path d="M-500-500h1200v675h-1200z" fill="#000"/><path d="M195-55.1a143.4 143.4 0 1 1-186-218.2l73.3 89.3a27.9 27.9 0 1 0 36.2 42.4z" fill="#fff"/><path d="M29-174.2a72 72 0 0 1 13.1-31l42.4 31.3a19.2 19.2 0 0 0-3.5 8.3z" fill="#c2e1ff"/><path d="M-77.7-47.8a211.5 211.5 0 1 1 388.7-101.1l-151.1-9.7a60.1 60.1 0 1 0-110.3 28.7z" fill="#fff500"/><path d="M29.4-122.7a81 81 0 0 1 54.5-119.2l11.8 58a21.8 21.8 0 0 0-14.7 32.1z" fill="#005bbb"/></svg>