<svg width="1200" height="675" viewBox="-500 -500 1200 675" xmlns="http://www.w3.org/2000/svg"><title>19503-10295504660</title><path d="M-500-500h1200v675h-1200z" fill="#000"/><path d="M188.4-143.1a90.5 90.5 0 0 1-178.7-12.6l72.7-5.5a17.6 17.6 0 0 0 34.8 2.5z" fill="#fff500"/><path d="M96.5-63.1a99.4 99.4 0 1 1 87.1-153.2l-29.9 19.3a63.9 63.9 0 1 0-56 98.3z" fill="#c2e1ff"/><path d="M62.7-153.1a38.5 38.5 0 0 1 9.2-35.7l2 1.9a35.7 35.7 0 0 0-8.5 33.2z" fill="#005bbb"/><path d="M-31.5-194.2a135.3 135.3 0 0 1 254.3-25.1l-85.1 39.4a41.5 41.5 0 0 0-78.1 7.7z" fill="#fff"/></svg>