<svg width="1200" height="675" viewBox="-500 -500 1200 675" xmlns="http://www.w3.org/2000/svg"><title>19485-10271572829</title><path d="M-500-500h1200v675h-1200z" fill="#000"/><path d="M-76.7-266.9a205.2 205.2 0 0 1 379.7 134.7l-91.1-13.6a113.1 113.1 0 0 0-209.3-74.2z" fill="#c2e1ff"/><path d="M245.3-195.6a149 149 0 0 1-194.6 173.7l6.7-19.2a128.7 128.7 0 0 0 168.1-150z" fill="#005bbb"/><path d="M-55.3-174.8a155.8 155.8 0 1 1 2.6 43.1l91.9-18.5a62 62 0 1 0-1-17.2z" fill="#fff500"/><path d="M107.6-92.4a70.5 70.5 0 0 1-15.7-140.1l6.6 57.1a13 13 0 0 0 2.9 25.8z" fill="#fff"/></svg>