<svg width="1200" height="675" viewBox="-500 -500 1200 675" xmlns="http://www.w3.org/2000/svg"><title>19319-10185648078</title><path d="M-500-500h1200v675h-1200z" fill="#000"/><path d="M312.1-199.4a215.3 215.3 0 1 1-119.4-157.4l-42 88a117.8 117.8 0 1 0 65.4 86.1z" fill="#c2e1ff"/><path d="M217.5-217.2a129.7 129.7 0 0 1-137.9 182.7l8.6-53.9a75.1 75.1 0 0 0 79.9-105.8z" fill="#005bbb"/><path d="M-32.6-202.3a138.4 138.4 0 1 1 41.5 144l38.3-43.8a80.3 80.3 0 1 0-24.1-83.5z" fill="#fff500"/><path d="M94.9-299.4a137 137 0 1 1-108.3 213.8l20.3-13.8a112.5 112.5 0 1 0 89-175.5z" fill="#fff"/></svg>