<svg width="1200" height="675" viewBox="-500 -500 1200 675" xmlns="http://www.w3.org/2000/svg"><title>19154-9968720087</title><path d="M-500-500h1200v675h-1200z" fill="#000"/><path d="M119.3-71.9a92.6 92.6 0 1 1-5.1-182.2l-8.9 57.3a34.7 34.7 0 1 0 1.9 68.2z" fill="#fff500"/><path d="M121-97a68.8 68.8 0 0 1-2.8 0.8l-9.3-34a33.5 33.5 0 0 0 1.3-0.4z" fill="#fff"/><path d="M-42.4-215.4a151.9 151.9 0 0 1 5.6-13.3l89.5 43.3a52.6 52.6 0 0 0-2 4.6z" fill="#c2e1ff"/><path d="M276.6-85.2a192.8 192.8 0 0 1-367.8-53.2l112.2-14.2a79.6 79.6 0 0 0 152 22z" fill="#005bbb"/></svg>