<svg width="1200" height="675" viewBox="-500 -500 1200 675" xmlns="http://www.w3.org/2000/svg"><title>19545-10303279951</title><path d="M-500-500h1200v675h-1200z" fill="#000"/><path d="M-75.3-278.1a210 210 0 1 1 269 303.6l-72.2-144.9a48.2 48.2 0 1 0-61.7-69.6z" fill="#fff"/><path d="M99.7-24.3a138.2 138.2 0 0 1-79.7-250.9l14.8 20.9a112.6 112.6 0 0 0 64.9 204.4z" fill="#c2e1ff"/><path d="M-106.3-152.3a206.6 206.6 0 1 1 320.4 162l-40.8-61.5a132.8 132.8 0 1 0-205.9-104.1z" fill="#fff500"/><path d="M84.7-324.9a163.1 163.1 0 0 1 177.6 146.5l-33.1 3.3a129.8 129.8 0 0 0-141.3-116.7z" fill="#005bbb"/></svg>