<svg width="1200" height="675" viewBox="-500 -500 1200 675" xmlns="http://www.w3.org/2000/svg"><title>18939-9853783978</title><path d="M-500-500h1200v675h-1200z" fill="#000"/><path d="M73.2-12.6a152.3 152.3 0 1 1 71.7-295.4l-25 81.1a67.3 67.3 0 1 0-31.7 130.7z" fill="#FFFFFF"/><path d="M106.5-232.9a70.7 70.7 0 1 1-75.8 56l7.3 1.6a63.3 63.3 0 1 0 67.8-50.2z" fill="#2C4D5D"/><path d="M309.2-240.1a223.1 223.1 0 0 1-31.6 212.7l-142-108a44.7 44.7 0 0 0 6.4-42.7z" fill="#EF8F88"/><path d="M-93-51.8a222.5 222.5 0 1 1 22.8 32.6l100.2-84.4a91.5 91.5 0 1 0-9.4-13.4z" fill="#F6C8AC"/><path d="M238.2-285a184.7 184.7 0 1 1-292.3 224.2l123.1-81.2a37.2 37.2 0 1 0 58.8-45.2z" fill="#EFF7F5"/><path d="M93.9-8a154.6 154.6 0 1 1 132.8-65.9l-70.7-49.4a68.4 68.4 0 1 0-58.7 29.1z" fill="#6E819E"/></svg>