<svg width="1200" height="675" viewBox="-500 -500 1200 675" xmlns="http://www.w3.org/2000/svg"><title>19408-10102963415</title><path d="M-500-500h1200v675h-1200z" fill="#000"/><path d="M-61.1-253.5a185 185 0 1 1 138.9 274.7l15.6-129.2a54.9 54.9 0 1 0-41.2-81.5z" fill="#fff500"/><path d="M207-55a151.7 151.7 0 0 1-244.5-43.5l89.4-41.6a53 53 0 0 0 85.5 15.2z" fill="#fff"/><path d="M141.9-169.9a42.6 42.6 0 0 1-4.3 27.3l-13.9-7.4a26.8 26.8 0 0 0 2.7-17.1z" fill="#c2e1ff"/><path d="M50-218.4a75 75 0 0 1 87.4-9.1l-26.8 46.6a21.3 21.3 0 0 0-24.8 2.6z" fill="#005bbb"/></svg>