<svg width="1200" height="675" viewBox="-500 -500 1200 675" xmlns="http://www.w3.org/2000/svg"><title>19417-10106597043</title><path d="M-500-500h1200v675h-1200z" fill="#000"/><path d="M175-84a108.6 108.6 0 0 1-183.3-70.5l39.7-2.9a68.7 68.7 0 0 0 116.1 44.6z" fill="#fff500"/><path d="M139.4-187.3a46.5 46.5 0 1 1-85.6 19.4l18.2 2.1a28.2 28.2 0 1 0 51.9-11.7z" fill="#c2e1ff"/><path d="M177.6-124.3a86.5 86.5 0 1 1 0.3-0.6l-66.9-32.3a12.3 12.3 0 1 0 0 0.1z" fill="#005bbb"/><path d="M132.7-307.7a148.8 148.8 0 0 1 20.5 284.2l-37-96.6a45.4 45.4 0 0 0-6.2-86.7z" fill="#fff"/></svg>