<svg width="1200" height="675" viewBox="-500 -500 1200 675" xmlns="http://www.w3.org/2000/svg"><title>19707-10251245826</title><path d="M-500-500h1200v675h-1200z" fill="#000"/><path d="M216.8-74.4a146.3 146.3 0 1 1 1.2-1.6l-116-85a2.5 2.5 0 1 0 0 0z" fill="#c2e1ff"/><path d="M113.6-71.4a92.2 92.2 0 0 1-104.4-106.6l42.8 7.3a48.7 48.7 0 0 0 55.2 56.4z" fill="#fff"/><path d="M65.6-215.1a62.9 62.9 0 0 1 50.5-8.2l-8.8 33.2a28.6 28.6 0 0 0-22.9 3.7z" fill="#005bbb"/><path d="M6.9-91.8a116.9 116.9 0 0 1 102-187.2l-7.2 94.1a22.5 22.5 0 0 0-19.6 36z" fill="#fff500"/></svg>