<svg width="1200" height="675" viewBox="-500 -500 1200 675" xmlns="http://www.w3.org/2000/svg"><title>18882-9841889551</title><path d="M-500-500h1200v675h-1200z" fill="#000"/><path d="M101.3-118.3a44.2 44.2 0 1 1 38.9-62.6l-10.1 4.6a33.1 33.1 0 1 0-29.2 46.9z" fill="#001d3d"/><path d="M180.8 58.5a235.3 235.3 0 0 1-303.2-297.7l31.7 10.9a201.7 201.7 0 0 0 260 255.3z" fill="#ffd60a"/><path d="M201-352.3a215 215 0 0 1 83.5 79.4l-3.2 1.9a211.3 211.3 0 0 0-82-78z" fill="#000814"/><path d="M-91-157.3a191.1 191.1 0 0 1 2.4-35.7l31.8 5.1a158.9 158.9 0 0 0-2 29.7z" fill="#003566"/><path d="M14.2-77.8a120.6 120.6 0 1 1 206-93.5l-75.3 5.5a45 45 0 1 0-76.9 34.9z" fill="#ffc300"/></svg>