<svg width="1200" height="675" viewBox="-500 -500 1200 675" xmlns="http://www.w3.org/2000/svg"><title>19053-10064053678</title><path d="M-500-500h1200v675h-1200z" fill="#000"/><path d="M133.7-256.6a99.9 99.9 0 1 1-123.8 137.3l51-24.5a43.4 43.4 0 1 0 53.7-59.6z" fill="#EF8F88"/><path d="M105.9-109.8a53 53 0 1 1 46.2-62.6l-43.7 8.3a8.5 8.5 0 1 0-7.5 10.1z" fill="#6E819E"/><path d="M-41.5-296.6a194.9 194.9 0 1 1-36.9 212.8l111.9-49.4a72.7 72.7 0 1 0 13.7-79.3z" fill="#2C4D5D"/><path d="M148.7-172.9a49.8 49.8 0 1 1-1.4-5l-18.5 6a30.3 30.3 0 1 0 0.9 3.1z" fill="#F6C8AC"/><path d="M-35.2-120.1a141.6 141.6 0 1 1 271.6-80.6l-41.7 11.7a98.3 98.3 0 1 0-188.5 55.9z" fill="#FFFFFF"/><path d="M41.5-234.9a93.1 93.1 0 0 1 134.3 18.3l-51.9 37a29.4 29.4 0 0 0-42.3-5.7z" fill="#EFF7F5"/></svg>