<svg width="1200" height="675" viewBox="-500 -500 1200 675" xmlns="http://www.w3.org/2000/svg"><title>18988-10029712616</title><path d="M-500-500h1200v675h-1200z" fill="#000"/><path d="M208.7-140.8a110.8 110.8 0 0 1-186.6 57.2l43.2-43.7a49.4 49.4 0 0 0 83.2-25.5z" fill="#506D84"/><path d="M-70.4-276.6a205 205 0 1 1 279.3 287.8l-99.7-159.1a17.3 17.3 0 1 0-23.5-24.2z" fill="#889EAF"/><path d="M83.4-133.2a33.6 33.6 0 1 1 46.7-44.3l-8.7 4.4a23.9 23.9 0 1 0-33.1 31.4z" fill="#FF7777"/><path d="M187.1-160.8a87.1 87.1 0 1 1-145.6-66.3l47 51.9a17.2 17.2 0 1 0 28.7 13z" fill="#FF7878"/><path d="M-131-211.5a236.1 236.1 0 1 1 450 137.3l-163.1-65.8a60.2 60.2 0 1 0-114.8-35z" fill="#D4B499"/><path d="M59-99.2a75.4 75.4 0 0 1 58.7-136.6l-16.6 68.9a4.5 4.5 0 0 0-3.6 8.2z" fill="#CEE5D0"/><path d="M55.8-230.2a80.8 80.8 0 1 1 49.6 148.3l-5.2-77.6a3 3 0 1 0-1.8-5.5z" fill="#F3D5C0"/></svg>