<svg width="1200" height="675" viewBox="-500 -500 1200 675" xmlns="http://www.w3.org/2000/svg"><title>19609-10201833481</title><path d="M-500-500h1200v675h-1200z" fill="#000"/><path d="M205.7-366.9a230.1 230.1 0 0 1-69.5 431.6l-29.6-185.4a42.3 42.3 0 0 0 12.8-79.4z" fill="#fff"/><path d="M130.6-177a33.9 33.9 0 0 1-37.6 47.7l3.4-15.9a17.7 17.7 0 0 0 19.6-24.9z" fill="#005bbb"/><path d="M151.9-237.2a91 91 0 1 1-129.7 121.8l35.2-21.3a49.8 49.8 0 1 0 71-66.7z" fill="#c2e1ff"/><path d="M151.3-85a93 93 0 1 1 39.1-99l-4.9 1.1a87.9 87.9 0 1 0-37 93.7z" fill="#fff500"/></svg>