<svg width="1200" height="675" viewBox="-500 -500 1200 675" xmlns="http://www.w3.org/2000/svg"><title>19035-10039994615</title><path d="M-500-500h1200v675h-1200z" fill="#000"/><path d="M85.5-201.5a41.6 41.6 0 1 1-27 37l19.7 1a21.8 21.8 0 1 0 14.2-19.4z" fill="#14213d"/><path d="M324.1-98.5a233 233 0 0 1-397.6 91.6l123.3-110.6a67.5 67.5 0 0 0 115.1-26.5z" fill="#e5e5e5"/><path d="M285.9-90.7a199.3 199.3 0 0 1-216.7 125.1l28.8-184.1a13 13 0 0 0 14.1-8.1z" fill="#112233"/><path d="M167.8-146.2a69.7 69.7 0 1 1-6.6-49.8l-22.2 12.1a44.5 44.5 0 1 0 4.3 31.8z" fill="#ffffff"/><path d="M18.2-161.8a81.8 81.8 0 1 1 129.7 65.5l-20.2-27.9a47.2 47.2 0 1 0-74.9-37.9z" fill="#fca311"/></svg>