<svg width="1200" height="675" viewBox="-500 -500 1200 675" xmlns="http://www.w3.org/2000/svg"><title>19133-9954161320</title><path d="M-500-500h1200v675h-1200z" fill="#000"/><path d="M321-107.5a227.8 227.8 0 0 1-269 167.7l20.5-94.9a130.7 130.7 0 0 0 154.3-96.2z" fill="#c2e1ff"/><path d="M75.9-165.5a24.3 24.3 0 0 1 3.4-9.7l13.8 8.4a8.1 8.1 0 0 0-1.2 3.3z" fill="#005bbb"/><path d="M116.4 3a166.3 166.3 0 1 1 127.2-81.7l-98.4-57.4a52.3 52.3 0 1 0-40 25.6z" fill="#fff500"/><path d="M220.5-170.4a120.8 120.8 0 0 1-56 110l-38.6-61.1a48.5 48.5 0 0 0 22.5-44.2z" fill="#fff"/></svg>