<svg width="1200" height="675" viewBox="-500 -500 1200 675" xmlns="http://www.w3.org/2000/svg"><title>19016-10048969851</title><path d="M-500-500h1200v675h-1200z" fill="#000"/><path d="M20.4-122.7a89 89 0 1 1 165.6-17l-34.6-9.2a53.2 53.2 0 1 0-98.9 10.2z" fill="#118ab2"/><path d="M240.5-99.7a153.9 153.9 0 1 1-203-203.5l36.6 82.5a63.7 63.7 0 1 0 84.1 84.2z" fill="#06d6a0"/><path d="M71.6-198.5a45.9 45.9 0 1 1 39.4 80.5l-10-40.7a4 4 0 1 0-3.5-6.9z" fill="#ef476f"/><path d="M52.4-141.3a52.1 52.1 0 1 1 97.2-5.5l-34.1-10.8a16.3 16.3 0 1 0-30.4 1.7z" fill="#073b4c"/><path d="M18.4-349.6a204.1 204.1 0 0 1 284.3 210.5l-84-9.7a119.5 119.5 0 0 0-166.5-123.2z" fill="#ffd166"/></svg>