<svg width="1200" height="675" viewBox="-500 -500 1200 675" xmlns="http://www.w3.org/2000/svg"><title>18899-9832908043</title><path d="M-500-500h1200v675h-1200z" fill="#000"/><path d="M41.9-84.2a97.5 97.5 0 1 1 115.7 0.4l-55.7-76.1a3.2 3.2 0 1 0-3.8-0.1z" fill="#f4a261"/><path d="M199.5-292.7a163.9 163.9 0 1 1-261.5 105.7l44.4 6.8a118.9 118.9 0 1 0 189.8-76.8z" fill="#e9c46a"/><path d="M-24-297.5a183.3 183.3 0 0 1 243.1-4.4l-101.5 118.8a27.1 27.1 0 0 0-35.9 0.6z" fill="#264653"/><path d="M69.2-77.3a90.6 90.6 0 0 1-6.3-2.6l21.8-48.5a37.3 37.3 0 0 0 2.6 1z" fill="#e76f51"/><path d="M7.2-239.7a120.7 120.7 0 0 1 126.6-38.7l-14.8 50.7a67.9 67.9 0 0 0-71.2 21.8z" fill="#2a9d8f"/></svg>