<svg width="1200" height="675" viewBox="-500 -500 1200 675" xmlns="http://www.w3.org/2000/svg"><title>19405-10112936931</title><path d="M-500-500h1200v675h-1200z" fill="#000"/><path d="M-7.9-137.5a110.8 110.8 0 0 1 20.2-92.7l43.1 33.3a56.4 56.4 0 0 0-10.3 47.1z" fill="#fff500"/><path d="M121.3 72.8a236.2 236.2 0 0 1-251.5-288.4l16.4 3.8a219.4 219.4 0 0 0 233.5 267.9z" fill="#fff"/><path d="M42.4-128.8a66.7 66.7 0 1 1 69.2 32l-4.8-27.3a39 39 0 1 0-40.5-18.7z" fill="#c2e1ff"/><path d="M77.3-222.3a64 64 0 1 1-4.4 117.8l25.8-55.3a3 3 0 1 0 0.2-5.5z" fill="#005bbb"/></svg>