<svg width="1200" height="675" viewBox="-500 -500 1200 675" xmlns="http://www.w3.org/2000/svg"><title>18968-10006694201</title><path d="M-500-500h1200v675h-1200z" fill="#000"/><path d="M248-223.1a159.9 159.9 0 0 1-91.5 210.2l-11.4-30a127.9 127.9 0 0 0 73.3-168z" fill="#fca311"/><path d="M245.3-198.7a149.7 149.7 0 0 1-121.5 184l-22.9-142.3a5.6 5.6 0 0 0 4.5-6.9z" fill="#ffffff"/><path d="M133-275.3a117.5 117.5 0 1 1-121.4 190.3l38.7-33.9a66.1 66.1 0 1 0 68.3-107.1z" fill="#14213d"/><path d="M272-288.7a213.3 213.3 0 0 1-184.6 339.1l4-66.9a146.3 146.3 0 0 0 126.5-232.6z" fill="#112233"/><path d="M259.2-305.6a214.1 214.1 0 1 1-209.3-65l0.9 3.8a210.2 210.2 0 1 0 205.5 63.8z" fill="#e5e5e5"/></svg>