<svg width="1200" height="675" viewBox="-500 -500 1200 675" xmlns="http://www.w3.org/2000/svg"><title>18891-9845588843</title><path d="M-500-500h1200v675h-1200z" fill="#000"/><path d="M174.9-386.4a236.1 236.1 0 1 1-89.1-11.8l13.5 224.8a11 11 0 1 0 4.2 0.5z" fill="#e76f51"/><path d="M203-247a133.2 133.2 0 0 1-51 207.1l-48.3-113.9a9.5 9.5 0 0 0 3.6-14.7z" fill="#e9c46a"/><path d="M133.2-20.6a145.7 145.7 0 0 1-1.4 0.3l-29.6-132.3a10.1 10.1 0 0 0 0.1 0z" fill="#f4a261"/><path d="M200.1-27.9a167.8 167.8 0 0 1-21 13.3l-19.9-37.2a125.5 125.5 0 0 0 15.7-10z" fill="#264653"/><path d="M175.8-267.5a129.5 129.5 0 0 1-56.2 233l-3.8-24.7a104.5 104.5 0 0 0 45.3-188z" fill="#2a9d8f"/></svg>