<svg width="1200" height="675" viewBox="-500 -500 1200 675" xmlns="http://www.w3.org/2000/svg"><title>19461-10284057917</title><path d="M-500-500h1200v675h-1200z" fill="#000"/><path d="M-26.8-238.8a148 148 0 1 1-20.9 85.4l38.2-2.4a109.7 109.7 0 1 0 15.5-63.3z" fill="#fff"/><path d="M-20.6-23.5a184 184 0 0 1 144.9-321.4l-1.1 8.6a175.3 175.3 0 0 0-138.1 306.3z" fill="#005bbb"/><path d="M53.1-374.9a217.5 217.5 0 0 1 218.9 345.5l-50.5-39a153.7 153.7 0 0 0-154.6-244.2z" fill="#c2e1ff"/><path d="M209.7-216.1a122 122 0 0 1 12.2 59.2l-116-5.3a5.9 5.9 0 0 0-0.6-2.9z" fill="#fff500"/></svg>