<svg width="1200" height="675" viewBox="-500 -500 1200 675" xmlns="http://www.w3.org/2000/svg"><title>19327-10189809134</title><path d="M-500-500h1200v675h-1200z" fill="#000"/><path d="M295.5-250.6a214.4 214.4 0 1 1-60.6-78.6l-57.3 70.8a123.4 123.4 0 1 0 34.9 45.2z" fill="#c2e1ff"/><path d="M114.3-26.4a136.8 136.8 0 0 1-116-227.7l87 78.3a19.8 19.8 0 0 0 16.8 33z" fill="#005bbb"/><path d="M126-179.7a31.2 31.2 0 1 1-2-2.6l-11.8 9.7a15.8 15.8 0 1 0 1 1.4z" fill="#fff500"/><path d="M245.6-341.7a230.8 230.8 0 1 1-304.8 346.4l81-85.1a113.4 113.4 0 1 0 149.7-170.1z" fill="#fff"/></svg>