<svg width="1200" height="675" viewBox="-500 -500 1200 675" xmlns="http://www.w3.org/2000/svg"><title>19744-10431256672</title><path d="M-500-500h1200v675h-1200z" fill="#000"/><path d="M72.3-130.4a42.4 42.4 0 0 1 52.3-66.7l-5.8 8.2a32.4 32.4 0 0 0-40 51z" fill="#fff500"/><path d="M111.8-133.1a31.7 31.7 0 1 1 11.1-7.6l-7.6-7.2a21.1 21.1 0 1 0-7.4 5z" fill="#fff"/><path d="M116.9-271.7a110.5 110.5 0 0 1 63.4 185.1l-8.5-8.1a98.8 98.8 0 0 0-56.7-165.4z" fill="#c2e1ff"/><path d="M44-206.2a71.1 71.1 0 1 1-12.6 25l25.6 7a44.5 44.5 0 1 0 7.9-15.7z" fill="#005bbb"/></svg>