<svg width="1200" height="675" viewBox="-500 -500 1200 675" xmlns="http://www.w3.org/2000/svg"><title>19247-10164449452</title><path d="M-500-500h1200v675h-1200z" fill="#000"/><path d="M80.3-321.3a160 160 0 0 1 92.6 301.2l-71.5-139.7a3 3 0 0 0-1.8-5.7z" fill="#fff"/><path d="M-22.9 19.5a219.6 219.6 0 1 1 267.9-346.9l-91.4 103.9a81.2 81.2 0 1 0-99.1 128.3z" fill="#005bbb"/><path d="M19.8-125.1a88.4 88.4 0 1 1 168.4-30.6l-5.1-0.4a83.4 83.4 0 1 0-158.7 28.8z" fill="#c2e1ff"/><path d="M200.5-38.5a159.6 159.6 0 0 1-40 23.7l-8.4-20.3a137.6 137.6 0 0 0 34.5-20.5z" fill="#fff500"/></svg>