<svg width="1200" height="675" viewBox="-500 -500 1200 675" xmlns="http://www.w3.org/2000/svg"><title>19502-10294984528</title><path d="M-500-500h1200v675h-1200z" fill="#000"/><path d="M64.5-223.7a70.8 70.8 0 1 1-10.5 115l10.2-11.9a55.1 55.1 0 1 0 8.1-89.6z" fill="#c2e1ff"/><path d="M-52.3 7.8a228.4 228.4 0 0 1 19.1-355.9l20.9 29.2a192.6 192.6 0 0 0-16.1 300z" fill="#fff"/><path d="M174.4-169.1a74.7 74.7 0 1 1-17-41.1l-29.2 24.3a36.6 36.6 0 1 0 8.3 20.1z" fill="#005bbb"/><path d="M58.1-170.1a42.6 42.6 0 0 1 9.6-20.2l3.1 2.7a38.5 38.5 0 0 0-8.7 18.2z" fill="#fff500"/></svg>