<svg width="1200" height="675" viewBox="-500 -500 1200 675" xmlns="http://www.w3.org/2000/svg"><title>19526-10316309747</title><path d="M-500-500h1200v675h-1200z" fill="#000"/><path d="M210.9-293.4a171.5 171.5 0 1 1-281.8 116.4l45.2 3.8a126.1 126.1 0 1 0 207.2-85.5z" fill="#c2e1ff"/><path d="M221.6-49.4a166 166 0 1 1-171.3-271.5l15.5 49.4a114.2 114.2 0 1 0 117.8 186.8z" fill="#fff"/><path d="M134.2 1.6a167.6 167.6 0 1 1 80.7-286.2l-55.7 59.2a86.4 86.4 0 1 0-41.5 147.5z" fill="#005bbb"/><path d="M239.1-290.5a189 189 0 1 1-14-13.7l-111.8 126.7a20 20 0 1 0 1.5 1.4z" fill="#fff500"/></svg>