<svg width="1200" height="675" viewBox="-500 -500 1200 675" xmlns="http://www.w3.org/2000/svg"><title>19153-9969248283</title><path d="M-500-500h1200v675h-1200z" fill="#000"/><path d="M120.3 66.2a229.6 229.6 0 1 1 82.8-23.6l-10.4-20.6a206.5 206.5 0 1 0-74.4 21.2z" fill="#c2e1ff"/><path d="M-39.6-93.5a155.7 155.7 0 0 1-8.6-116.9l21.4 6.9a133.2 133.2 0 0 0 7.4 100z" fill="#005bbb"/><path d="M206.7-274.5a154.7 154.7 0 0 1 42.3 70.4l-21.1 5.9a132.7 132.7 0 0 0-36.3-60.4z" fill="#fff500"/><path d="M72.4-99.5a68.7 68.7 0 0 1-23.9-108.6l34.7 30.8a22.4 22.4 0 0 0 7.8 35.3z" fill="#fff"/></svg>