<svg width="1200" height="675" viewBox="-500 -500 1200 675" xmlns="http://www.w3.org/2000/svg"><title>19898-10353237196</title><path d="M-500-500h1200v675h-1200z" fill="#000"/><path d="M308-229a218.4 218.4 0 1 1-402.3-33.1l181 92.8a14.9 14.9 0 1 0 27.5 2.2z" fill="#fff"/><path d="M-50.2-68.1a177.4 177.4 0 1 1 4.3 6.5l17.4-12a156.3 156.3 0 1 0-3.9-5.8z" fill="#c2e1ff"/><path d="M29.5-86.1a104 104 0 1 1 0.6 0.5l18.9-20.8a75.9 75.9 0 1 0-0.4-0.4z" fill="#fff500"/><path d="M186.7-269.2a137.5 137.5 0 1 1-63.3-28.8l-22.7 131.7a3.9 3.9 0 1 0 1.8 0.8z" fill="#005bbb"/></svg>