<svg width="1200" height="675" viewBox="-500 -500 1200 675" xmlns="http://www.w3.org/2000/svg"><title>18881-9840320963</title><path d="M-500-500h1200v675h-1200z" fill="#000"/><path d="M98.6-81.9a80.6 80.6 0 1 1 7.7-0.3l-1.8-23.5a57 57 0 1 0-5.5 0.2z" fill="#2a9d8f"/><path d="M131.1-90.1a78.8 78.8 0 0 1-84.1-14.1l25.4-27.9a41.1 41.1 0 0 0 43.8 7.3z" fill="#e9c46a"/><path d="M124.7-331.3a170.6 170.6 0 1 1-74.8 331.9l16.7-54.2a113.9 113.9 0 1 0 49.9-221.6z" fill="#f4a261"/><path d="M20.5-45.2a141.7 141.7 0 1 1 192.3-203l-47.2 35.9a82.3 82.3 0 1 0-111.8 118z" fill="#e76f51"/><path d="M175.1-48a136.9 136.9 0 0 1-101.8 19.8l8-40.2a95.9 95.9 0 0 0 71.3-13.9z" fill="#264653"/></svg>