<svg width="1200" height="675" viewBox="-500 -500 1200 675" xmlns="http://www.w3.org/2000/svg"><title>19069-10055598574</title><path d="M-500-500h1200v675h-1200z" fill="#000"/><path d="M45.3 0.1a171.6 171.6 0 1 1 190-57l-63.7-49.8a90.8 90.8 0 1 0-100.6 30.2z" fill="#fff"/><path d="M127.4-119.3a51.2 51.2 0 0 1-54.5 0.2l27.1-43.4a0 0 0 0 0 0 0z" fill="#005bbb"/><path d="M-17.9-273.2a161.7 161.7 0 1 1-43.7 105.1l85.7 3a76 76 0 1 0 20.5-49.4z" fill="#c2e1ff"/><path d="M-10.9-93.3a130.8 130.8 0 1 1 100 61.1l6.9-83a47.4 47.4 0 1 0-36.3-22.2z" fill="#fff500"/></svg>