<svg width="1200" height="675" viewBox="-500 -500 1200 675" xmlns="http://www.w3.org/2000/svg"><title>19775-10422431708</title><path d="M-500-500h1200v675h-1200z" fill="#000"/><path d="M240.3-69.2a168.5 168.5 0 0 1-279.2 2l101.4-69.6a45.5 45.5 0 0 0 75.4-0.5z" fill="#fff"/><path d="M22.2-127.7a85.2 85.2 0 0 1-3.7-59.8l17 5.2a67.5 67.5 0 0 0 2.9 47.3z" fill="#005bbb"/><path d="M51.2-177.8a51.1 51.1 0 0 1 86.6-19.1l-8.9 8.1a39 39 0 0 0-66.2 14.6z" fill="#c2e1ff"/><path d="M110.1-223.9a62.2 62.2 0 0 1 48.7 41l-33 11.4a27.4 27.4 0 0 0-21.4-18z" fill="#fff500"/></svg>