<svg width="1200" height="675" viewBox="-500 -500 1200 675" xmlns="http://www.w3.org/2000/svg"><title>19760-10422934560</title><path d="M-500-500h1200v675h-1200z" fill="#000"/><path d="M59.2 16.7a183.8 183.8 0 1 1 143.4-26.7l-8-11.8a169.5 169.5 0 1 0-132.2 24.6z" fill="#fff500"/><path d="M73.3-90.3a77 77 0 1 1 40.7 3.5l-11.1-60a16 16 0 1 0-8.5-0.7z" fill="#fff"/><path d="M21.6-199.4a86.7 86.7 0 1 1-6.3 55.4l74-16.2a11 11 0 1 0 0.7-7z" fill="#c2e1ff"/><path d="M141-99.9a74.8 74.8 0 1 1-2-126.4l-32.2 52.7a13 13 0 1 0 0.4 22z" fill="#005bbb"/></svg>