<svg width="1200" height="675" viewBox="-500 -500 1200 675" xmlns="http://www.w3.org/2000/svg"><title>18994-10018136848</title><path d="M-500-500h1200v675h-1200z" fill="#000"/><path d="M179.2-225.5a101.2 101.2 0 0 1 22 64l-61.9-0.6a39.3 39.3 0 0 0-8.5-24.8z" fill="#2C4D5D"/><path d="M313.2-71.6a231.8 231.8 0 0 1-213.2 140.9l0-180.2a51.6 51.6 0 0 0 47.5-31.4z" fill="#6E819E"/><path d="M190.4-308.8a172 172 0 0 1 81 161.4l-85.1-7.5a86.6 86.6 0 0 0-40.8-81.3z" fill="#EFF7F5"/><path d="M83.2-112.4a52.8 52.8 0 1 1 35.2-0.6l-7.5-20.3a31.1 31.1 0 1 0-20.8 0.3z" fill="#EF8F88"/><path d="M22.8-54.1a133.1 133.1 0 0 1-47.5-154.8l77.2 28.7a50.7 50.7 0 0 0 18.1 59z" fill="#F6C8AC"/><path d="M-30.7-127.7a135.2 135.2 0 0 1 256.5-84.4l-121.5 47.9a4.6 4.6 0 0 0-8.7 2.9z" fill="#FFFFFF"/></svg>