<svg width="1200" height="675" viewBox="-500 -500 1200 675" xmlns="http://www.w3.org/2000/svg"><title>19142-9975094663</title><path d="M-500-500h1200v675h-1200z" fill="#000"/><path d="M-28.4-41.7a176.2 176.2 0 1 1 30.3 25.6l49-73.2a88.1 88.1 0 1 0-15.1-12.8z" fill="#fff500"/><path d="M137.8-190.4a47 47 0 1 1-41.3-19l3.4 45a1.9 1.9 0 1 0 1.6 0.8z" fill="#fff"/><path d="M185.3-182.4a87.6 87.6 0 0 1-38.3 93.8l-4.1-6.5a79.9 79.9 0 0 0 34.9-85.5z" fill="#c2e1ff"/><path d="M63.3-139.2a43.5 43.5 0 1 1 78.4-11.1l-34.5-10.1a7.5 7.5 0 1 0-13.5 1.9z" fill="#005bbb"/></svg>