<svg width="1200" height="675" viewBox="-500 -500 1200 675" xmlns="http://www.w3.org/2000/svg"><title>19614-10203419093</title><path d="M-500-500h1200v675h-1200z" fill="#000"/><path d="M-10.3-252.1a142.1 142.1 0 1 1 13.9 194l38.7-41.9a85.1 85.1 0 1 0-8.4-116.1z" fill="#c2e1ff"/><path d="M161.1-120.6a74.1 74.1 0 1 1-89.8-110.2l5.9 14.2a58.7 58.7 0 1 0 71.2 87.3z" fill="#fff"/><path d="M1.2-301a170.1 170.1 0 0 1 40.6-21.3l30.4 83.5a81.2 81.2 0 0 0-19.3 10.2z" fill="#005bbb"/><path d="M15.8-261.4a129.9 129.9 0 0 1 213.2 114.1l-127.8-15.1a1.2 1.2 0 0 0-2-1z" fill="#fff500"/></svg>