<svg width="1200" height="675" viewBox="-500 -500 1200 675" xmlns="http://www.w3.org/2000/svg"><title>18922-9862765486</title><path d="M-500-500h1200v675h-1200z" fill="#000"/><path d="M165.2-123.6a75.9 75.9 0 0 1-55.1 36.4l-4.7-35.2a40.5 40.5 0 0 0 29.4-19.3z" fill="#001d3d"/><path d="M167.6-134.9a73 73 0 0 1-73.7 45.2l2.9-34.8a38.2 38.2 0 0 0 38.5-23.6z" fill="#ffc300"/><path d="M99-121.4a41.1 41.1 0 1 1 31.8-13.8l-3.7-3.2a36.3 36.3 0 1 0-28 12.2z" fill="#000814"/><path d="M46.1-88.2a91.8 91.8 0 0 1 71.7-164.4l0 0.4a91.4 91.4 0 0 0-71.4 163.7z" fill="#ffd60a"/><path d="M156.1-302.7a151 151 0 0 1 46.6 250.8l-74.1-79.8a42 42 0 0 0-13-69.8z" fill="#003566"/></svg>