<svg width="1200" height="675" viewBox="-500 -500 1200 675" xmlns="http://www.w3.org/2000/svg"><title>19295-10173164911</title><path d="M-500-500h1200v675h-1200z" fill="#000"/><path d="M150.9-290.3a137.6 137.6 0 1 1-45.7-9.7l-3.6 94.9a42.6 42.6 0 1 0 14.2 3z" fill="#fff"/><path d="M79.1-216.6a58 58 0 0 1 69.6 85.5l-44.2-28.5a5.3 5.3 0 0 0-6.4-7.9z" fill="#005bbb"/><path d="M-112.9-262.3a235.2 235.2 0 0 1 330.9-103.6l-15.6 26.9a204.1 204.1 0 0 0-287.2 89.9z" fill="#c2e1ff"/><path d="M56.9-185.9a49.1 49.1 0 1 1 75.5 60.2l-32-36.3a0.6 0.6 0 1 0-1-0.8z" fill="#fff500"/></svg>