<svg width="1200" height="675" viewBox="-500 -500 1200 675" xmlns="http://www.w3.org/2000/svg"><title>18949-10009435661</title><path d="M-500-500h1200v675h-1200z" fill="#000"/><path d="M306.9-203.3a210.9 210.9 0 0 1-8.1 111.2l-96.3-34.1a108.8 108.8 0 0 0 4.2-57.4z" fill="#CEE5D0"/><path d="M87.7 23.1a186.1 186.1 0 0 1-11.7-1.1l19.1-147.1a37.7 37.7 0 0 0 2.4 0.2z" fill="#FF7777"/><path d="M129.7-105.2a64.5 64.5 0 1 1 25.3-91.1l-33.5 20.6a25.2 25.2 0 1 0-9.9 35.6z" fill="#F3D5C0"/><path d="M44.4-119.4a70.4 70.4 0 1 1 125.9-40.3l-23.7-0.9a46.6 46.6 0 1 0-83.5 26.7z" fill="#FF7878"/><path d="M73.7-150.2a29.1 29.1 0 0 1 47-32.7l-14.3 14.1a9 9 0 0 0-14.5 10.1z" fill="#D4B499"/><path d="M157.5-133a64.6 64.6 0 0 1-29.1 28.6l-16.6-34.1a26.8 26.8 0 0 0 12-11.8z" fill="#889EAF"/><path d="M221.4-154.8a121.6 121.6 0 1 1-232.6-57l52.1 23.1a64.6 64.6 0 1 0 123.6 30.3z" fill="#506D84"/></svg>