<svg width="1200" height="675" viewBox="-500 -500 1200 675" xmlns="http://www.w3.org/2000/svg"><title>19766-10426072504</title><path d="M-500-500h1200v675h-1200z" fill="#000"/><path d="M-4.6-289.4a164.4 164.4 0 1 1-12.6 242.2l38.1-37.4a111 111 0 1 0 8.5-163.6z" fill="#fff"/><path d="M23.7-275.8a136.6 136.6 0 1 1-50.3 164.5l122.6-49.6a4.3 4.3 0 1 0 1.6-5.2z" fill="#005bbb"/><path d="M-38.7-60a172.5 172.5 0 1 1 284.5-10.5l-105.4-66.5a47.8 47.8 0 1 0-78.8 2.9z" fill="#c2e1ff"/><path d="M81.8-200.7a42.4 42.4 0 0 1 49.1 67.2l-16.7-15.6a19.5 19.5 0 0 0-22.6-31z" fill="#fff500"/></svg>