<svg width="1200" height="675" viewBox="-500 -500 1200 675" xmlns="http://www.w3.org/2000/svg"><title>19291-10175278207</title><path d="M-500-500h1200v675h-1200z" fill="#000"/><path d="M-59.4-214.3a167.6 167.6 0 0 1 117.6-110.5l31.2 121.1a42.5 42.5 0 0 0-29.8 28.1z" fill="#c2e1ff"/><path d="M146.7-125a59.9 59.9 0 1 1-22.1-92.1l-0.2 0.3a59.5 59.5 0 1 0 22 91.5z" fill="#005bbb"/><path d="M94.4-364.4a202 202 0 1 1-183.8 131.6l62.6 23.3a135.2 135.2 0 1 0 123.1-88.2z" fill="#fff500"/><path d="M69.4-130.6a44.2 44.2 0 0 1-5.2-5.9l7.5-5.4a35 35 0 0 0 4.1 4.6z" fill="#fff"/></svg>