<svg width="1200" height="675" viewBox="-500 -500 1200 675" xmlns="http://www.w3.org/2000/svg"><title>19704-10252822990</title><path d="M-500-500h1200v675h-1200z" fill="#000"/><path d="M225.7-105.8a137.9 137.9 0 1 1-249.8-116.7l32.1 15.5a102.2 102.2 0 1 0 185.2 86.5z" fill="#fff"/><path d="M49.2-128.4a61.2 61.2 0 0 1 42-94.7l7.7 52.8a7.9 7.9 0 0 0-5.4 12.2z" fill="#005bbb"/><path d="M307.8-198.2a210.8 210.8 0 0 1-113.9 224.4l-3.2-6.4a203.6 203.6 0 0 0 110-216.8z" fill="#c2e1ff"/><path d="M224.1 1.2a205.5 205.5 0 0 1-266.6-311.7l135.9 141.2a9.5 9.5 0 0 0 12.3 14.4z" fill="#fff500"/></svg>