<svg width="1200" height="675" viewBox="-500 -500 1200 675" xmlns="http://www.w3.org/2000/svg"><title>19270-10176936779</title><path d="M-500-500h1200v675h-1200z" fill="#000"/><path d="M74.7-150.9a27.8 27.8 0 1 1 50.5 0l-11.7-5.4a14.9 14.9 0 1 0-27 0z" fill="#c2e1ff"/><path d="M260.3-131.5a163.3 163.3 0 1 1-163.6-194.3l2.3 115.6a47.7 47.7 0 1 0 47.8 56.8z" fill="#005bbb"/><path d="M167.5-34.2a145 145 0 0 1-93.4 14.4l9.7-53.6a90.5 90.5 0 0 0 58.4-9z" fill="#fff500"/><path d="M80.3-99.4a66.1 66.1 0 1 1 67.5-108.8l-22.2 21.3a35.4 35.4 0 1 0-36.1 58.2z" fill="#fff"/></svg>