<svg width="1200" height="675" viewBox="-500 -500 1200 675" xmlns="http://www.w3.org/2000/svg"><title>19571-10323048806</title><path d="M-500-500h1200v675h-1200z" fill="#000"/><path d="M182.1-143a84.4 84.4 0 0 1-3.8 12l-22.5-9a60.2 60.2 0 0 0 2.8-8.6z" fill="#fff500"/><path d="M-32.3-5a205.7 205.7 0 1 1 335.7-126.6l-95.4-14.5a109.2 109.2 0 1 0-178.2 67.2z" fill="#c2e1ff"/><path d="M95.8-382.2a219.7 219.7 0 1 1-148.9 62.1l1.7 1.8a217.2 217.2 0 1 0 147.3-61.4z" fill="#005bbb"/><path d="M132-208a55.6 55.6 0 0 1-1.1 91.7l-14.4-21.4a29.8 29.8 0 0 0 0.6-49.2z" fill="#fff"/></svg>