<svg width="1200" height="675" viewBox="-500 -500 1200 675" xmlns="http://www.w3.org/2000/svg"><title>19900-10354277716</title><path d="M-500-500h1200v675h-1200z" fill="#000"/><path d="M206.5-85.3a131.6 131.6 0 1 1 5-7.3l-76-47.7a41.9 41.9 0 1 0-1.6 2.4z" fill="#fff500"/><path d="M29.3-163.4a70.7 70.7 0 1 1 24.3 54.2l6.4-7.3a60.9 60.9 0 1 0-20.9-46.8z" fill="#fff"/><path d="M-6-335.8a203.2 203.2 0 1 1 10.8 352.8l13.3-25a174.8 174.8 0 1 0-9.3-303.7z" fill="#c2e1ff"/><path d="M-33.3-17.6a196.9 196.9 0 0 1-39.8-238.7l109.6 59.4a72.3 72.3 0 0 0 14.6 87.6z" fill="#005bbb"/></svg>