<svg width="1200" height="675" viewBox="-500 -500 1200 675" xmlns="http://www.w3.org/2000/svg"><title>19612-10204475741</title><path d="M-500-500h1200v675h-1200z" fill="#000"/><path d="M117.9-110.2a55.3 55.3 0 0 1-42.2-102l3.9 8.1a46.3 46.3 0 0 0 35.4 85.4z" fill="#fff"/><path d="M-32.7 13.5a220.4 220.4 0 0 1 135.2-396.4l-2.2 193.6a26.8 26.8 0 0 0-16.4 48.2z" fill="#c2e1ff"/><path d="M-44.1-156.2a144.2 144.2 0 1 1 86.2 125.8l34-77.4a59.7 59.7 0 1 0-35.7-52.1z" fill="#fff500"/><path d="M194.6-208.2a105.1 105.1 0 0 1-27.7 126.7l-28.8-34.8a59.8 59.8 0 0 0 15.8-72.2z" fill="#005bbb"/></svg>