<svg width="1200" height="675" viewBox="-500 -500 1200 675" xmlns="http://www.w3.org/2000/svg"><title>18904-9836623847</title><path d="M-500-500h1200v675h-1200z" fill="#000"/><path d="M207.4-112.6a118.5 118.5 0 1 1-64.2-160.2l-39.6 101.2a9.8 9.8 0 1 0 5.3 13.2z" fill="#ffc300"/><path d="M190.8-166.3a90.9 90.9 0 1 1-181.6 6.2l72.9-1.9a17.9 17.9 0 1 0 35.8-1.3z" fill="#ffd60a"/><path d="M32.9-221.7a89.5 89.5 0 1 1 58.7 148.3l7.6-81a8.2 8.2 0 1 0-5.3-13.5z" fill="#000814"/><path d="M91-19.7a143.1 143.1 0 0 1-1.4-285.5l7.3 99.9a42.9 42.9 0 0 0 0.4 85.7z" fill="#001d3d"/><path d="M200.7-137.4a103.8 103.8 0 1 1-177.8-94.5l16.8 15.1a81.2 81.2 0 1 0 139.1 73.9z" fill="#003566"/></svg>