<svg width="1200" height="675" viewBox="-500 -500 1200 675" xmlns="http://www.w3.org/2000/svg"><title>19567-10329325078</title><path d="M-500-500h1200v675h-1200z" fill="#000"/><path d="M91.5-126.7a36.8 36.8 0 0 1-23.4-54.2l14.7 8.5a19.8 19.8 0 0 0 12.6 29.2z" fill="#fff500"/><path d="M74.3-132.7a39.3 39.3 0 0 1-0.8-58.8l19.9 21.7a9.8 9.8 0 0 0 0.2 14.7z" fill="#c2e1ff"/><path d="M-16.5-305.4a184.4 184.4 0 1 1-18.7 17.5l88 81.7a64.3 64.3 0 1 0 6.6-6.2z" fill="#005bbb"/><path d="M130.3-387a226.5 226.5 0 1 1-245.7 294.7l131.8-43a87.9 87.9 0 1 0 95.3-114.3z" fill="#fff"/></svg>