<svg width="1200" height="675" viewBox="-500 -500 1200 675" xmlns="http://www.w3.org/2000/svg"><title>19752-10427095616</title><path d="M-500-500h1200v675h-1200z" fill="#000"/><path d="M79.2-85.1a80.1 80.1 0 0 1-49.3-116.2l9.6 5.3a69.1 69.1 0 0 0 42.6 100.2z" fill="#fff500"/><path d="M195.8-235.2a120.2 120.2 0 1 1-113.3-46.2l15.6 106a13.1 13.1 0 1 0 12.3 5z" fill="#fff"/><path d="M11.4-281.6a148.4 148.4 0 0 1 211.5 202.3l-7-4.8a139.9 139.9 0 0 0-199.4-190.7z" fill="#c2e1ff"/><path d="M264.9-167.8a165 165 0 1 1-146.6-158.7l-17.2 153.8a10.3 10.3 0 1 0 9.2 9.9z" fill="#005bbb"/></svg>