<svg width="1200" height="675" viewBox="-500 -500 1200 675" xmlns="http://www.w3.org/2000/svg"><title>19481-10269459021</title><path d="M-500-500h1200v675h-1200z" fill="#000"/><path d="M127.2-207.7a52.7 52.7 0 1 1-79.9 44.2l25.8 0.5a26.9 26.9 0 1 0 40.8-22.6z" fill="#fff"/><path d="M46.9-102.7a80 80 0 1 1 113.3-112.4l-48 41.9a16.3 16.3 0 1 0-23 22.9z" fill="#c2e1ff"/><path d="M23.9-307a163.3 163.3 0 0 1 176.6 273.2l-93.9-120.3a10.7 10.7 0 0 0-11.6-17.8z" fill="#fff500"/><path d="M154.7-183.6a58.7 58.7 0 1 1-6-11.7l-5 3.3a52.7 52.7 0 1 0 5.5 10.5z" fill="#005bbb"/></svg>