<svg width="1200" height="675" viewBox="-500 -500 1200 675" xmlns="http://www.w3.org/2000/svg"><title>19810-10466126314</title><path d="M-500-500h1200v675h-1200z" fill="#000"/><path d="M52-320.7a165.3 165.3 0 1 1-16.2 5.9l50.9 120.8a34.2 34.2 0 1 0 3.4-1.2z" fill="#fff"/><path d="M44.9-138.4a60.1 60.1 0 1 1 2.4 4.8l20.9-11.5a36.3 36.3 0 1 0-1.5-2.8z" fill="#c2e1ff"/><path d="M145.1-279.3a125.2 125.2 0 0 1 37.7 210.7l-61.1-69.3a32.8 32.8 0 0 0-9.9-55.2z" fill="#fff500"/><path d="M-38.2-261a169.7 169.7 0 0 1 302.2 142.2l-144.7-38.6a20 20 0 0 0-35.6-16.7z" fill="#005bbb"/></svg>