<svg width="1200" height="675" viewBox="-500 -500 1200 675" xmlns="http://www.w3.org/2000/svg"><title>18923-9862237162</title><path d="M-500-500h1200v675h-1200z" fill="#000"/><path d="M193.5-339.9a200.5 200.5 0 0 1-4.9 357.3l-74-150.3a33 33 0 0 0 0.8-58.8z" fill="#f1faee"/><path d="M146.7-208.1a65.3 65.3 0 0 1-90.8 93.8l17.7-19.4a39 39 0 0 0 54.3-56.1z" fill="#a8dadc"/><path d="M-99.1-237.1a212.6 212.6 0 1 1 88.5 256.2l65.6-107.7a86.5 86.5 0 1 0-36-104.3z" fill="#457b9d"/><path d="M145.9-91.6a84.4 84.4 0 1 1-35.7-154.7l-0.7 5.2a79.2 79.2 0 1 0 33.6 145.1z" fill="#1d3557"/><path d="M-4.3-347.2a212.1 212.1 0 1 1 116.2 396.4l-7.3-130.4a81.4 81.4 0 1 0-44.6-152.2z" fill="#e63946"/></svg>