<svg width="1200" height="675" viewBox="-500 -500 1200 675" xmlns="http://www.w3.org/2000/svg"><title>19794-10441155883</title><path d="M-500-500h1200v675h-1200z" fill="#000"/><path d="M47.2-162.8a52.8 52.8 0 0 1 63-51.5l-2.3 11.5a41.1 41.1 0 0 0-49 40.1z" fill="#c2e1ff"/><path d="M46.3-203.2a67.4 67.4 0 1 1-3.2 4.6l44.5 28.2a14.7 14.7 0 1 0 0.7-1z" fill="#005bbb"/><path d="M243.2-297.9a197.1 197.1 0 0 1-102.5 328.2l-6.3-29.8a166.6 166.6 0 0 0 86.6-277.4z" fill="#fff500"/><path d="M15.3-99.3a105.7 105.7 0 0 1 17.2-144.5l5.2 6.3a97.5 97.5 0 0 0-15.8 133.3z" fill="#fff"/></svg>