<svg width="1200" height="675" viewBox="-500 -500 1200 675" xmlns="http://www.w3.org/2000/svg"><title>18884-9842929815</title><path d="M-500-500h1200v675h-1200z" fill="#000"/><path d="M-11.2-30a173 173 0 0 1-16.6-15.9l85.3-77.8a57.5 57.5 0 0 0 5.5 5.2z" fill="#001d3d"/><path d="M250.4-86a168.7 168.7 0 1 1-81-230.3l-55.6 123.3a33.5 33.5 0 1 0 16.1 45.7z" fill="#ffc300"/><path d="M-1.9-178.6a103.2 103.2 0 0 1 152.1-74.1l-47.8 85.8a5 5 0 0 0-7.4 3.6z" fill="#ffd60a"/><path d="M3.1-260.4a137.7 137.7 0 0 1 198.6 190.8l-69.4-63.4a43.7 43.7 0 0 0-63.1-60.6z" fill="#003566"/><path d="M76 45.8a209.7 209.7 0 1 1 217-126.4l-88.9-37.7a113.1 113.1 0 1 0-117 68.1z" fill="#000814"/></svg>