<svg width="1200" height="675" viewBox="-500 -500 1200 675" xmlns="http://www.w3.org/2000/svg"><title>19250-10153420696</title><path d="M-500-500h1200v675h-1200z" fill="#000"/><path d="M33.6-67a116.3 116.3 0 1 1 14.4 8.5l10.3-20.7a93.1 93.1 0 1 0-11.5-6.8z" fill="#fff"/><path d="M74.3 72a235.9 235.9 0 1 1 96.6-459.5l-5.8 18.5a216.5 216.5 0 1 0-88.7 421.7z" fill="#005bbb"/><path d="M289.6-178.1a190.2 190.2 0 0 1-176.3 205.4l-3-43.1a147.1 147.1 0 0 0 136.3-158.8z" fill="#c2e1ff"/><path d="M114.8-95a69.1 69.1 0 1 1 10.9-131.6l-9.7 24a43.1 43.1 0 1 0-6.8 82.2z" fill="#fff500"/></svg>