<svg width="1200" height="675" viewBox="-500 -500 1200 675" xmlns="http://www.w3.org/2000/svg"><title>19074-9943354773</title><path d="M-500-500h1200v675h-1200z" fill="#000"/><path d="M60.1-128.5a52.5 52.5 0 0 1-11.3-22.7l11.1-2.5a41.1 41.1 0 0 0 8.9 17.8z" fill="#fff500"/><path d="M18.3 23.6a203.2 203.2 0 1 1 123.6 12.7l-40.8-193.4a5.6 5.6 0 1 0-3.3-0.3z" fill="#fff"/><path d="M252.9-130.4a156.2 156.2 0 0 1-303.6 8.9l127-34.6a24.5 24.5 0 0 0 47.7-1.4z" fill="#c2e1ff"/><path d="M124-173a26.2 26.2 0 1 1-12.8-13.2l-2.4 5.1a20.5 20.5 0 1 0 10 10.4z" fill="#005bbb"/></svg>