<svg width="1200" height="675" viewBox="-500 -500 1200 675" xmlns="http://www.w3.org/2000/svg"><title>19255-10151835340</title><path d="M-500-500h1200v675h-1200z" fill="#000"/><path d="M76.3-306.4a145.9 145.9 0 1 1-78.8 40.1l81.6 82.7a29.7 29.7 0 1 0 16.1-8.2z" fill="#c2e1ff"/><path d="M232-203.2a138.1 138.1 0 1 1-186.6-86.2l30.7 71.2a60.6 60.6 0 1 0 81.8 37.8z" fill="#005bbb"/><path d="M29-67.5a118.6 118.6 0 0 1-8.9-7.3l69.8-76.6a15 15 0 0 0 1.1 0.9z" fill="#fff500"/><path d="M316.1-235.8a228.2 228.2 0 0 1-318.3 277.3l0.1-0.1a228.1 228.1 0 0 0 318.1-277.2z" fill="#fff"/></svg>