<svg width="1200" height="675" viewBox="-500 -500 1200 675" xmlns="http://www.w3.org/2000/svg"><title>19823-10464574110</title><path d="M-500-500h1200v675h-1200z" fill="#000"/><path d="M85.7-2a161.1 161.1 0 1 1 151.9-76.6l-24.4-14.9a132.6 132.6 0 1 0-125 63z" fill="#fff"/><path d="M143-147.8a45.4 45.4 0 1 1 1.7-6.3l-13.8-2.6a31.4 31.4 0 1 0-1.2 4.4z" fill="#c2e1ff"/><path d="M326.1-104.1a233.5 233.5 0 0 1-255.3 173.3l8.7-69.5a163.5 163.5 0 0 0 178.8-121.3z" fill="#fff500"/><path d="M110.6-100.7a62.7 62.7 0 1 1 29.4-110.1l-7.3 8.8a51.3 51.3 0 1 0-24 90.1z" fill="#005bbb"/></svg>