<svg width="1200" height="675" viewBox="-500 -500 1200 675" xmlns="http://www.w3.org/2000/svg"><title>19787-10445845263</title><path d="M-500-500h1200v675h-1200z" fill="#000"/><path d="M145.9-112.3a68 68 0 0 1-33.4 16.6l-12.5-66.5a0.3 0.3 0 0 0 0.2-0.1z" fill="#c2e1ff"/><path d="M134.3-92.8a77.7 77.7 0 0 1-82.1-8.4l27.9-35.8a32.3 32.3 0 0 0 34.2 3.5z" fill="#005bbb"/><path d="M54-108.4a71 71 0 0 1-16.3-20l24.9-13.7a42.6 42.6 0 0 0 9.8 12.1z" fill="#fff500"/><path d="M98-203.8a41.4 41.4 0 0 1 34.7 15.9l-19.6 15.2a16.6 16.6 0 0 0-13.9-6.3z" fill="#fff"/></svg>