<svg width="1200" height="675" viewBox="-500 -500 1200 675" xmlns="http://www.w3.org/2000/svg"><title>19332-10075482245</title><path d="M-500-500h1200v675h-1200z" fill="#000"/><path d="M-58.5-174.6a158.9 158.9 0 1 1 19.8 89.6l23.9-13.4a131.5 131.5 0 1 0-16.3-74.1z" fill="#fff500"/><path d="M198.4-225a116.6 116.6 0 0 1-188 137.1l18.5-15.4a92.5 92.5 0 0 0 149.1-108.8z" fill="#c2e1ff"/><path d="M61.6-81.3a89.8 89.8 0 1 1 13 4.9l9.1-30.6a57.8 57.8 0 1 0-8.4-3.2z" fill="#005bbb"/><path d="M-79.3-273.8a211.1 211.1 0 0 1 227.2-94.3l-41.8 179.3a27 27 0 0 0-29 12.1z" fill="#fff"/></svg>