<svg width="1200" height="675" viewBox="-500 -500 1200 675" xmlns="http://www.w3.org/2000/svg"><title>19170-9993819158</title><path d="M-500-500h1200v675h-1200z" fill="#000"/><path d="M227.3-152.2a127.7 127.7 0 0 1-96.8 113.7l-9.9-40.5a86 86 0 0 0 65.1-76.5z" fill="#c2e1ff"/><path d="M107.9-215a53.1 53.1 0 0 1 1.6 0.3l-1.7 9.4a43.5 43.5 0 0 0-1.3-0.2z" fill="#fff"/><path d="M79.2-183.6a29.6 29.6 0 0 1 3.4-2.9l4.1 5.7a22.7 22.7 0 0 0-2.6 2.1z" fill="#005bbb"/><path d="M178-204a88.4 88.4 0 0 1 1.2 80.7l-31-15.3a53.8 53.8 0 0 0-0.7-49.2z" fill="#fff500"/></svg>