<svg width="1200" height="675" viewBox="-500 -500 1200 675" xmlns="http://www.w3.org/2000/svg"><title>19182-9995900710</title><path d="M-500-500h1200v675h-1200z" fill="#000"/><path d="M21.4-36.1a148.9 148.9 0 1 1 119.8 16.6l-10.8-37.5a109.8 109.8 0 1 0-88.3-12.3z" fill="#fff500"/><path d="M74.2-303.2a143.1 143.1 0 1 1-72.2 36.5l45.2 48.1a77 77 0 1 0 38.9-19.7z" fill="#fff"/><path d="M254.5-242.3a173.9 173.9 0 1 1-319.1 23.7l59.8 20.4a110.7 110.7 0 1 0 203.2-15.1z" fill="#c2e1ff"/><path d="M96.3-108a54.7 54.7 0 1 1 15.2-108l-0.2 0.6a54.1 54.1 0 1 0-15 106.9z" fill="#005bbb"/></svg>