<svg width="1200" height="675" viewBox="-500 -500 1200 675" xmlns="http://www.w3.org/2000/svg"><title>18993-10019705820</title><path d="M-500-500h1200v675h-1200z" fill="#000"/><path d="M146.1-122.3a61.1 61.1 0 1 1-16.9-93.9l-19 34.9a21.4 21.4 0 1 0 5.9 32.8z" fill="#06d6a0"/><path d="M184.1-37.9a150.4 150.4 0 0 1-227-171.5l100.5 33a44.6 44.6 0 0 0 67.4 50.9z" fill="#118ab2"/><path d="M-29.9-244.4a153.6 153.6 0 0 1 231.8-33l-100.4 113.2a2.2 2.2 0 0 0-3.4 0.5z" fill="#ffd166"/><path d="M39.5-311.2a160.5 160.5 0 1 1-97 179.8l71.8-14.2a87.3 87.3 0 1 0 52.8-97.8z" fill="#073b4c"/><path d="M123.8-124.1a45.2 45.2 0 1 1 21.2-34.3l-10.1-0.9a35 35 0 1 0-16.4 26.6z" fill="#ef476f"/></svg>