<svg width="1200" height="675" viewBox="-500 -500 1200 675" xmlns="http://www.w3.org/2000/svg"><title>19050-10064573554</title><path d="M-500-500h1200v675h-1200z" fill="#000"/><path d="M211.2-80.1a138.4 138.4 0 1 1 9.8-149.6l-24.7 13.7a110.1 110.1 0 1 0-7.9 119.1z" fill="#2C4D5D"/><path d="M44-186.7a61 61 0 0 1 93.9-23.5l-4.1 5.2a54.3 54.3 0 0 0-83.6 21z" fill="#6E819E"/><path d="M200.6-275.8a151.5 151.5 0 0 1 50.8 117.7l-34.6-1a116.8 116.8 0 0 0-39.2-90.7z" fill="#EFF7F5"/><path d="M45.8-161.2a54.2 54.2 0 0 1 28.5-49l20.5 38a11 11 0 0 0-5.8 10z" fill="#FFFFFF"/><path d="M254.5-267.6a186.9 186.9 0 0 1-30.3 244.8l-6.8-7.8a176.6 176.6 0 0 0 28.6-231.2z" fill="#EF8F88"/><path d="M29.7-89.5a101.3 101.3 0 1 1 118.5 16.1l-22.5-41.6a54 54 0 1 0-63.2-8.6z" fill="#F6C8AC"/></svg>