<svg width="1200" height="675" viewBox="-500 -500 1200 675" xmlns="http://www.w3.org/2000/svg"><title>18858-9828944556</title><path d="M-500-500h1200v675h-1200z" fill="#000"/><path d="M219.4-249.4a147.6 147.6 0 1 1-259.8 132.5l117.3-38.1a24.3 24.3 0 1 0 42.7-21.8z" fill="#2C4D5D"/><path d="M60.3-85.2a86.9 86.9 0 0 1-45.6-60.6l6.6-1.3a80.2 80.2 0 0 0 42.1 56z" fill="#F6C8AC"/><path d="M175.4-200.7a84.6 84.6 0 0 1 4.3 66.3l-33.7-11.9a48.8 48.8 0 0 0-2.5-38.2z" fill="#6E819E"/><path d="M-29.8 19.2a223.3 223.3 0 1 1 29.6 17.9l43.6-86.9a126.1 126.1 0 1 0-16.7-10.1z" fill="#EF8F88"/><path d="M-4.1-269a148.9 148.9 0 1 1 175.4 237.2l-64-117.4a15.2 15.2 0 1 0-17.9-24.2z" fill="#EFF7F5"/><path d="M92.8-235.8a73.6 73.6 0 1 1-8.4 1.4l10.7 49.3a23.1 23.1 0 1 0 2.6-0.4z" fill="#FFFFFF"/></svg>