<svg width="1200" height="675" viewBox="-500 -500 1200 675" xmlns="http://www.w3.org/2000/svg"><title>19419-10107637307</title><path d="M-500-500h1200v675h-1200z" fill="#000"/><path d="M-103.7-211.7a209.6 209.6 0 1 1 14.3 139.1l13.9-6.6a194.3 194.3 0 1 0-13.3-128.9z" fill="#c2e1ff"/><path d="M30-293a148.1 148.1 0 0 1 195.3 209.5l-86.6-54.6a45.8 45.8 0 0 0-60.3-64.7z" fill="#005bbb"/><path d="M157-382a226.8 226.8 0 0 1 153.7 135.5l-165 65.8a49.2 49.2 0 0 0-33.3-29.5z" fill="#fff500"/><path d="M-46.4-191.3a149.2 149.2 0 0 1 174-117.8l-3.7 19.7a129.1 129.1 0 0 0-150.6 102z" fill="#fff"/></svg>