<svg width="1200" height="675" viewBox="-500 -500 1200 675" xmlns="http://www.w3.org/2000/svg"><title>19520-10315236715</title><path d="M-500-500h1200v675h-1200z" fill="#000"/><path d="M108.6-126.8a36.7 36.7 0 1 1 27.8-40.4l-0.5 0a36.2 36.2 0 1 0-27.4 39.9z" fill="#fff"/><path d="M245.1-194.4a148.6 148.6 0 1 1-206.3-103.5l27.4 60.7a81.9 81.9 0 1 0 113.8 57.1z" fill="#c2e1ff"/><path d="M101-267.8a105.3 105.3 0 1 1-33.9 5.3l3.5 10.3a94.4 94.4 0 1 0 30.3-4.7z" fill="#fff500"/><path d="M-21.5-63.9a156.5 156.5 0 0 1-31-133.9l113.5 26.3a40.1 40.1 0 0 0 7.9 34.3z" fill="#005bbb"/></svg>