<svg width="1200" height="675" viewBox="-500 -500 1200 675" xmlns="http://www.w3.org/2000/svg"><title>19556-10333998330</title><path d="M-500-500h1200v675h-1200z" fill="#000"/><path d="M-7.7 37.3a227 227 0 0 1-2.1-1.1l89.5-161.9a42.1 42.1 0 0 0 0.3 0.2z" fill="#fff"/><path d="M175.9-281.7a141.3 141.3 0 0 1-45.5 257.2l-20.1-91.3a47.8 47.8 0 0 0 15.4-87z" fill="#c2e1ff"/><path d="M-63.6-263.7a192.3 192.3 0 1 1 37.7 246.6l23.7-27.3a156.2 156.2 0 1 0-30.6-200.3z" fill="#fff500"/><path d="M124.7-186.2a34.2 34.2 0 1 1-58.8 22l1.3 0.1a32.9 32.9 0 1 0 56.5-21.2z" fill="#005bbb"/></svg>