<svg width="1200" height="675" viewBox="-500 -500 1200 675" xmlns="http://www.w3.org/2000/svg"><title>19451-10124281530</title><path d="M-500-500h1200v675h-1200z" fill="#000"/><path d="M60.1-223.7a73 73 0 1 1-7.6 5.8l38.4 44.7a14.1 14.1 0 1 0 1.4-1.1z" fill="#fff"/><path d="M133.5-127.9a48.2 48.2 0 0 1-78.4-52.2l22.9 9a23.6 23.6 0 0 0 38.4 25.6z" fill="#c2e1ff"/><path d="M74-245.7a87.1 87.1 0 1 1-10.7 162.2l21.8-46.8a35.5 35.5 0 1 0 4.3-66.1z" fill="#fff500"/><path d="M118.5-250.6a90.1 90.1 0 0 1 71 77.6l-32.4 3.8a57.5 57.5 0 0 0-45.3-49.6z" fill="#005bbb"/></svg>