<svg width="1200" height="675" viewBox="-500 -500 1200 675" xmlns="http://www.w3.org/2000/svg"><title>19876-10366761780</title><path d="M-500-500h1200v675h-1200z" fill="#000"/><path d="M134.3-136.7a42.9 42.9 0 0 1-76.9-30.7l26.3 3a16.4 16.4 0 0 0 29.4 11.7z" fill="#fff500"/><path d="M128.1-111.4a58.3 58.3 0 1 1 26.9-31.9l-2.9-1a55.2 55.2 0 1 0-25.5 30.1z" fill="#c2e1ff"/><path d="M-30.9-279.6a175.6 175.6 0 0 1 238.6-21.7l-102.1 131.6a9.2 9.2 0 0 0-12.4 1.1z" fill="#005bbb"/><path d="M-106.9-207a211.6 211.6 0 0 1 379.3-78.3l-87.1 62.1a104.7 104.7 0 0 0-187.7 38.7z" fill="#fff"/></svg>