<svg width="1200" height="675" viewBox="-500 -500 1200 675" xmlns="http://www.w3.org/2000/svg"><title>19032-10040514619</title><path d="M-500-500h1200v675h-1200z" fill="#000"/><path d="M-129.9-184.3a230.9 230.9 0 1 1 338.6 225.6l-20.4-38.3a187.5 187.5 0 1 0-275-183.2z" fill="#2C4D5D"/><path d="M203.3-38.7a161.3 161.3 0 1 1 25.9-220.3l-118.3 88.4a13.6 13.6 0 1 0-2.2 18.6z" fill="#6E819E"/><path d="M40.8-248.7a104.6 104.6 0 0 1 148.5 31.6l-80.6 49.3a10.2 10.2 0 0 0-14.5-3.1z" fill="#FFFFFF"/><path d="M-65.3-69.5a189.6 189.6 0 1 1 170.9 96.5l-4.6-154.6a35 35 0 1 0-31.5-17.8z" fill="#F6C8AC"/><path d="M141-107.9a68.3 68.3 0 0 1-109.2-55.5l53.3 0.7a14.9 14.9 0 0 0 23.8 12.1z" fill="#EF8F88"/><path d="M106.2-208.4a46.3 46.3 0 0 1 23.9 10.7l-30 35.1a0.1 0.1 0 0 0-0.1 0z" fill="#EFF7F5"/></svg>