<svg width="1200" height="675" viewBox="-500 -500 1200 675" xmlns="http://www.w3.org/2000/svg"><title>19680-10265309102</title><path d="M-500-500h1200v675h-1200z" fill="#000"/><path d="M196.3-114.2a107.7 107.7 0 0 1-39.1 42.9l-25.6-40.8a59.5 59.5 0 0 0 21.6-23.7z" fill="#c2e1ff"/><path d="M159.6-357.4a203.8 203.8 0 0 1-23.6 395.5l-34-189.6a11.2 11.2 0 0 0 1.3-21.7z" fill="#005bbb"/><path d="M173.5-383.7a233.1 233.1 0 1 1-289.5 308.8l183.6-74.5a34.9 34.9 0 1 0 43.4-46.2z" fill="#fff500"/><path d="M268.8-216.1a177.1 177.1 0 0 1 7.3 72.5l-148.2-15.9a28.1 28.1 0 0 0-1.2-11.5z" fill="#fff"/></svg>