<svg width="1200" height="675" viewBox="-500 -500 1200 675" xmlns="http://www.w3.org/2000/svg"><title>18991-10029200420</title><path d="M-500-500h1200v675h-1200z" fill="#000"/><path d="M262.3-266.9a193 193 0 0 1 24.6 152.5l-58.3-15a132.8 132.8 0 0 0-16.9-104.9z" fill="#fca311"/><path d="M103.6-127.8a34.9 34.9 0 0 1-30.1-57.3l25.5 21.7a1.3 1.3 0 0 0 1.1 2.2z" fill="#ffffff"/><path d="M80-126a41.7 41.7 0 0 1-21.2-30.3l10.2-1.6a31.3 31.3 0 0 0 15.9 22.9z" fill="#14213d"/><path d="M311.8-135a213.6 213.6 0 1 1-223.1-240.8l1.7 33.2a180.4 180.4 0 1 0 188.5 203.3z" fill="#112233"/><path d="M90.2-117.7a45.8 45.8 0 1 1 54-32.7l-30.8-8.4a13.9 13.9 0 1 0-16.3 9.8z" fill="#e5e5e5"/></svg>