<svg width="1200" height="675" viewBox="-500 -500 1200 675" xmlns="http://www.w3.org/2000/svg"><title>19013-10043248399</title><path d="M-500-500h1200v675h-1200z" fill="#000"/><path d="M95.2-113.9a48.8 48.8 0 0 1-42.2-61.6l26.6 7.4a21.2 21.2 0 0 0 18.3 26.7z" fill="#ffd60a"/><path d="M234.1-76.1a159.6 159.6 0 0 1-272.1-6.3l133.5-77.5a5.1 5.1 0 0 0 8.8 0.2z" fill="#003566"/><path d="M137.6-271a114.8 114.8 0 0 1 39.4 193.7l-13.4-14.9a94.8 94.8 0 0 0-32.6-159.9z" fill="#ffc300"/><path d="M84.2-350.6a188.7 188.7 0 1 1-101.1 336.3l7.2-9.2a177.1 177.1 0 1 0 94.9-315.4z" fill="#000814"/><path d="M136.4-128.7a49.6 49.6 0 1 1-3.9-71.3l-29.3 33.9a4.8 4.8 0 1 0 0.3 6.9z" fill="#001d3d"/></svg>