<svg width="1200" height="675" viewBox="-500 -500 1200 675" xmlns="http://www.w3.org/2000/svg"><title>18934-9852165342</title><path d="M-500-500h1200v675h-1200z" fill="#000"/><path d="M9-27.5a162.8 162.8 0 1 1 247.8-179l-34 9.5a127.5 127.5 0 1 0-194 140.3z" fill="#fcbf49"/><path d="M232.9-278.9a176.7 176.7 0 0 1 30.1 48.3l-78.1 32.7a92 92 0 0 0-15.7-25.2z" fill="#f77f00"/><path d="M64.2-114.3a60.1 60.1 0 0 1-20.4-69.4l1.2 0.4a58.8 58.8 0 0 0 19.9 68z" fill="#eae2b7"/><path d="M72.3-396.9a236.1 236.1 0 0 1 172.4 420.9l-16.1-20.9a209.7 209.7 0 0 0-153.2-373.8z" fill="#d62828"/><path d="M-109.7-176.7a210.2 210.2 0 0 1 9.3-49.2l196.2 62.1a4.4 4.4 0 0 0-0.2 1z" fill="#003049"/></svg>