<svg width="1200" height="675" viewBox="-500 -500 1200 675" xmlns="http://www.w3.org/2000/svg"><title>19147-9980808947</title><path d="M-500-500h1200v675h-1200z" fill="#000"/><path d="M76.1-177.3a28.2 28.2 0 1 1-3.5 21.4l11-2.6a16.9 16.9 0 1 0 2-12.9z" fill="#fff500"/><path d="M41.8-168.8a58.5 58.5 0 1 1 29.5 57.3l24.9-44.3a7.7 7.7 0 1 0-3.9-7.5z" fill="#fff"/><path d="M161.7 39a210.8 210.8 0 0 1-257.8-278.7l176.6 69.5a21 21 0 0 0 25.6 27.8z" fill="#c2e1ff"/><path d="M127.7-288a128.5 128.5 0 0 1-8 252.5l-2.2-14.2a114.2 114.2 0 0 0 7.1-224.3z" fill="#005bbb"/></svg>