<svg width="1200" height="675" viewBox="-500 -500 1200 675" xmlns="http://www.w3.org/2000/svg"><title>19587-10213263073</title><path d="M-500-500h1200v675h-1200z" fill="#000"/><path d="M-113.6-128.4a216.3 216.3 0 0 1 229.8-249.8l-11.1 147.8a68.1 68.1 0 0 0-72.4 78.6z" fill="#fff500"/><path d="M136.5-158.2a36.7 36.7 0 1 1-65.8-26.4l14.7 11.1a18.3 18.3 0 1 0 32.7 13.1z" fill="#fff"/><path d="M150.7 10a179.8 179.8 0 1 1 108-88l-110-58.6a55.2 55.2 0 1 0-33.2 27.1z" fill="#c2e1ff"/><path d="M53.2-277.1a123.8 123.8 0 1 1-35.5 22.2l61.4 68.9a31.5 31.5 0 1 0 9-5.7z" fill="#005bbb"/></svg>