<svg width="1200" height="675" viewBox="-500 -500 1200 675" xmlns="http://www.w3.org/2000/svg"><title>19688-10261147022</title><path d="M-500-500h1200v675h-1200z" fill="#000"/><path d="M187.8-152.4a88.4 88.4 0 0 1-39.8 64.1l-20.6-31.8a50.5 50.5 0 0 0 22.8-36.6z" fill="#c2e1ff"/><path d="M220.9-73.2a150.3 150.3 0 0 1-260.6-33.9l35.4-14.1a112.2 112.2 0 0 0 194.5 25.3z" fill="#005bbb"/><path d="M10.3-363a219.6 219.6 0 1 1 128.4 416.7l-30.9-172.4a44.5 44.5 0 1 0-26-84.4z" fill="#fff500"/><path d="M-32.4-245.4a156.2 156.2 0 0 1 198.2-58.7l-31.1 66.9a82.4 82.4 0 0 0-104.6 31z" fill="#fff"/></svg>