<svg width="1200" height="675" viewBox="-500 -500 1200 675" xmlns="http://www.w3.org/2000/svg"><title>19079-9940753601</title><path d="M-500-500h1200v675h-1200z" fill="#000"/><path d="M-61.7-173.9a162.1 162.1 0 0 1 15.3-58.1l118.2 56.1a31.2 31.2 0 0 0-2.9 11.2z" fill="#c2e1ff"/><path d="M221.2-246.1a147.2 147.2 0 1 1-112.7-63.4l-3.2 56.4a90.7 90.7 0 1 0 69.4 39.1z" fill="#fff"/><path d="M33.9-310.7a162.2 162.2 0 0 1 175.4 28.3l-21.6 23.7a130.2 130.2 0 0 0-140.7-22.7z" fill="#005bbb"/><path d="M187.7-9a176.8 176.8 0 0 1-111.9 21.6l8.2-59.5a116.7 116.7 0 0 0 73.9-14.3z" fill="#fff500"/></svg>