<svg width="1200" height="675" viewBox="-500 -500 1200 675" xmlns="http://www.w3.org/2000/svg"><title>19193-9990054586</title><path d="M-500-500h1200v675h-1200z" fill="#000"/><path d="M152.5-146.7a54.8 54.8 0 1 1-7.3-46.8l-38.6 26.5a8 8 0 1 0 1.1 6.8z" fill="#fff"/><path d="M145.2-14.3a155 155 0 0 1-121.7-13.4l50-88.1a53.7 53.7 0 0 0 42.1 4.7z" fill="#c2e1ff"/><path d="M121.7-331.2a170.1 170.1 0 1 1-72.2 331.1l21.7-69.8a97 97 0 1 0 41.2-188.8z" fill="#fff500"/><path d="M-122.5-134.5a224.3 224.3 0 0 1 405.1-158.2l-89.7 64a114.1 114.1 0 0 0-206.1 80.5z" fill="#005bbb"/></svg>