<svg width="1200" height="675" viewBox="-500 -500 1200 675" xmlns="http://www.w3.org/2000/svg"><title>19411-10103475227</title><path d="M-500-500h1200v675h-1200z" fill="#000"/><path d="M8-254a129.8 129.8 0 1 1-29.7 136.7l6.7-2.5a122.7 122.7 0 1 0 28-129.2z" fill="#fff"/><path d="M-88.9-153.5a189.2 189.2 0 0 1 256.9-185.5l-0.6 1.3a187.7 187.7 0 0 0-254.9 184.2z" fill="#005bbb"/><path d="M3.9-319.3a183.9 183.9 0 0 1 53.5-22.1l36.9 155.1a24.5 24.5 0 0 0-7.1 2.9z" fill="#c2e1ff"/><path d="M160.4-216.3a80.9 80.9 0 0 1 18.9 38l-44 8.7a36 36 0 0 0-8.4-16.9z" fill="#fff500"/></svg>