<svg width="1200" height="675" viewBox="-500 -500 1200 675" xmlns="http://www.w3.org/2000/svg"><title>19882-10361559180</title><path d="M-500-500h1200v675h-1200z" fill="#000"/><path d="M146.7-196.2a57.6 57.6 0 0 1-9.8 77.9l-28-33.5a14 14 0 0 0 2.4-18.9z" fill="#fff"/><path d="M247.8-68.1a175.4 175.4 0 1 1 11-20l-80.3-37.6a86.6 86.6 0 1 0-5.5 9.8z" fill="#c2e1ff"/><path d="M279.8-119.6a184.9 184.9 0 0 1-233.6 134l27.3-89.6a91.3 91.3 0 0 0 115.3-66.1z" fill="#fff500"/><path d="M-72.5-50.8a205.5 205.5 0 1 1 354.7-16.7l-82.9-43.2a112 112 0 1 0-193.3 9.1z" fill="#005bbb"/></svg>