<svg width="1200" height="675" viewBox="-500 -500 1200 675" xmlns="http://www.w3.org/2000/svg"><title>19339-10082278265</title><path d="M-500-500h1200v675h-1200z" fill="#000"/><path d="M182.1-253.4a122.5 122.5 0 0 1-148.6 193.7l34.6-53.5a58.7 58.7 0 0 0 71.3-92.9z" fill="#fff"/><path d="M123.3-272.6a112.6 112.6 0 1 1-82.2 206.1l46.8-76.3a23.1 23.1 0 1 0 16.9-42.3z" fill="#005bbb"/><path d="M86.7-119.8a44.7 44.7 0 0 1-25.2-65.4l27.8 16.4a12.4 12.4 0 0 0 7 18.2z" fill="#c2e1ff"/><path d="M-71-130.2a174 174 0 1 1 238.2 128.2l-34.5-82.4a84.7 84.7 0 1 0-115.9-62.4z" fill="#fff500"/></svg>