<svg width="1200" height="675" viewBox="-500 -500 1200 675" xmlns="http://www.w3.org/2000/svg"><title>19554-10330844514</title><path d="M-500-500h1200v675h-1200z" fill="#000"/><path d="M95.7-310.6a148.2 148.2 0 0 1 104.9 256.9l-56.7-61.4a64.6 64.6 0 0 0-45.8-112z" fill="#c2e1ff"/><path d="M102.5-81.6a80.9 80.9 0 0 1-83.3-83.6l46.8 1.6a34 34 0 0 0 35 35.1z" fill="#fff"/><path d="M-30.5-40.9a178.4 178.4 0 1 1 301.8-171.4l-58 16.8a118 118 0 1 0-199.6 113.5z" fill="#005bbb"/><path d="M-51.9-46.1a191.4 191.4 0 0 1 303.2-233.6l-49.1 38.1a129.3 129.3 0 0 0-204.9 157.7z" fill="#fff500"/></svg>