<svg width="1200" height="675" viewBox="-500 -500 1200 675" xmlns="http://www.w3.org/2000/svg"><title>19307-10200375486</title><path d="M-500-500h1200v675h-1200z" fill="#000"/><path d="M83.3-258.3a97.2 97.2 0 1 1-15.7 187.5l9.7-27.4a68.2 68.2 0 1 0 11-131.4z" fill="#fff"/><path d="M312.5-258.1a233 233 0 1 1-359.9-84.9l99.1 121.4a76.3 76.3 0 1 0 117.9 27.8z" fill="#c2e1ff"/><path d="M-107.3-254.3a226.7 226.7 0 1 1 66.1 269.2l114.6-144a42.7 42.7 0 1 0-12.4-50.7z" fill="#fff500"/><path d="M28.3-249.9a113 113 0 0 1 175.6 42.9l-81 34.7a24.9 24.9 0 0 0-38.7-9.4z" fill="#005bbb"/></svg>