<svg width="1200" height="675" viewBox="-500 -500 1200 675" xmlns="http://www.w3.org/2000/svg"><title>19588-10216961853</title><path d="M-500-500h1200v675h-1200z" fill="#000"/><path d="M132-78.1a90.3 90.3 0 1 1 33.1-21.8l-6.4-6.1a81.4 81.4 0 1 0-29.8 19.6z" fill="#fff"/><path d="M300-235.9a213 213 0 0 1-253.6 279.5l43.2-166a41.5 41.5 0 0 0 49.3-54.4z" fill="#005bbb"/><path d="M66.1-29.1a137.6 137.6 0 0 1-93.7-185l35.4 14.3a99.5 99.5 0 0 0 67.7 133.7z" fill="#c2e1ff"/><path d="M113.2-49.8a113.5 113.5 0 0 1-105.7-178.5l28 19.9a79.2 79.2 0 0 0 73.7 124.6z" fill="#fff500"/></svg>