<svg width="1200" height="675" viewBox="-500 -500 1200 675" xmlns="http://www.w3.org/2000/svg"><title>19484-10271052569</title><path d="M-500-500h1200v675h-1200z" fill="#000"/><path d="M145.5 65.7a232.7 232.7 0 1 1 165.7-325.8l-109.2 50.4a112.4 112.4 0 1 0-80 157.4z" fill="#fff"/><path d="M289.6-275.1a220.5 220.5 0 1 1-331.1-56.6l44.9 53.8a150.5 150.5 0 1 0 226 38.6z" fill="#005bbb"/><path d="M172.1-143.1a74.6 74.6 0 0 1-82.9 54.5l0.4-3.2a71.5 71.5 0 0 0 79.4-52.1z" fill="#c2e1ff"/><path d="M123.7-73.7a91.9 91.9 0 0 1-32.8 2.6l4.3-43.5a48.2 48.2 0 0 0 17.2-1.3z" fill="#fff500"/></svg>