<svg width="1200" height="675" viewBox="-500 -500 1200 675" xmlns="http://www.w3.org/2000/svg"><title>19832-10452586242</title><path d="M-500-500h1200v675h-1200z" fill="#000"/><path d="M147.9-116.9a66.2 66.2 0 1 1 15.4-65l-44.7 13.7a19.5 19.5 0 1 0-4.5 19.1z" fill="#fff500"/><path d="M43.3-170.9a57.3 57.3 0 0 1 47.7-48.2l5.6 35.3a21.6 21.6 0 0 0-17.9 18.1z" fill="#c2e1ff"/><path d="M217-20.6a183.9 183.9 0 0 1-121.4 42l2.2-90.7a93.3 93.3 0 0 0 61.5-21.2z" fill="#005bbb"/><path d="M145.6-161.1a45.6 45.6 0 0 1-61.3 41.4l5-13.5a31.2 31.2 0 0 0 41.8-28.4z" fill="#fff"/></svg>