<svg width="1200" height="675" viewBox="-500 -500 1200 675" xmlns="http://www.w3.org/2000/svg"><title>19305-10199318582</title><path d="M-500-500h1200v675h-1200z" fill="#000"/><path d="M169.5-130.4a76.6 76.6 0 0 1-66.3 44.4l0-1.2a75.4 75.4 0 0 0 65.3-43.7z" fill="#fff500"/><path d="M61.2-235.6a82.8 82.8 0 0 1 115.5 42l-36 14.6a44 44 0 0 0-61.3-22.3z" fill="#c2e1ff"/><path d="M54.7 64.8a231.8 231.8 0 0 1-101.6-48l126.3-154.2a32.5 32.5 0 0 0 14.2 6.8z" fill="#005bbb"/><path d="M205.4-215.3a117.9 117.9 0 0 1 9.5 79.5l-37.8-8.8a79.2 79.2 0 0 0-6.3-53.4z" fill="#fff"/></svg>