<svg width="1200" height="675" viewBox="-500 -500 1200 675" xmlns="http://www.w3.org/2000/svg"><title>19696-10256985070</title><path d="M-500-500h1200v675h-1200z" fill="#000"/><path d="M179.7-148.6a80.9 80.9 0 1 1-88-94.3l3 29.2a51.5 51.5 0 1 0 56 60z" fill="#fff"/><path d="M29.7-360.2a209.9 209.9 0 0 1 238.1 323.8l-72.1-54.2a119.7 119.7 0 0 0-135.8-184.7z" fill="#005bbb"/><path d="M53.9-198a58.2 58.2 0 0 1 37.2-22l1 6.6a51.5 51.5 0 0 0-32.9 19.4z" fill="#c2e1ff"/><path d="M99.8-99.9a62.6 62.6 0 0 1-56.8-88.5l20.4 9.3a40.2 40.2 0 0 0 36.5 56.8z" fill="#fff500"/></svg>