<svg width="1200" height="675" viewBox="-500 -500 1200 675" xmlns="http://www.w3.org/2000/svg"><title>18984-10031793656</title><path d="M-500-500h1200v675h-1200z" fill="#000"/><path d="M51.3-5.2a164.6 164.6 0 1 1 37.8 7l0.3-4.8a159.9 159.9 0 1 0-36.7-6.8z" fill="#f4a261"/><path d="M147.2-173.1a48.3 48.3 0 1 1-44.8-37.7l0 0.6a47.7 47.7 0 1 0 44.2 37.2z" fill="#264653"/><path d="M156.8-316.3a164 164 0 0 1-14.4 312.2l-10.9-40.7a121.8 121.8 0 0 0 10.7-232z" fill="#2a9d8f"/><path d="M-14.4-359.1a227.5 227.5 0 0 1 256.5 18.9l-95.9 119.9a74 74 0 0 0-83.4-6.2z" fill="#e76f51"/><path d="M319-114.1a224.3 224.3 0 0 1-373.6 114.1l40.2-42.2a166 166 0 0 0 276.5-84.5z" fill="#e9c46a"/></svg>