<svg width="1200" height="675" viewBox="-500 -500 1200 675" xmlns="http://www.w3.org/2000/svg"><path d="M-500-500h1200v675h-1200z" fill="#000"/><path d="M-163-73c-2-52-244 25-270 39-37 20-102 92-103 138-1 59 237 102 305 53 47-34 70-171 68-230z"  fill="#fff" /><path d="M166-85c-4-164-159-63-233-16-21 13-118 70-117 99 1 41 232 65 291 36 46-22 61-71 59-119z"  fill="#c2e1ff" /><path d="M-20-346c-6-29-31-147-73-148-53-2-168 244-155 295 19 75 175 9 207-29 28-33 30-77 21-118z"  fill="#fff" /><path d="M347-170c-36-52-104-155-171-168-19-4-35 4-49 17-51 48-28 126 8 175 39 54 216 166 268 135 44-26-42-137-56-159z"  fill="#c2e1ff" /></svg>