<svg width="1200" height="675" viewBox="-500 -500 1200 675" xmlns="http://www.w3.org/2000/svg"><path d="M-500-500h1200v675h-1200z" fill="#000"/><path d="M-178-336c-55-43-122 13-169 43-18 12-155 89-113 124 25 20 71 17 101 16 56-1 141-6 168-66 9-20 9-44 11-65 1-7 10-46 2-52z"  fill="#fff500" /><path d="M90-237c-33-2-190-16-217 11-23 23-12 72-7 100 5 24 17 102 40 117 10 7 28 10 39 14 15 5 32 12 49 12 65-1 113-90 143-137 13-19 46-62 38-87-9-28-63-28-85-30z"  fill="#005bbb" /><path d="M447-23c-5-114-94-121-187-119-24 0-70-4-90 13-23 19-29 79-27 105 2 21 15 38 32 50 69 49 278 92 272-49z"  fill="#fff500" /></svg>