<svg width="1200" height="675" viewBox="-500 -500 1200 675" xmlns="http://www.w3.org/2000/svg"><path d="M-500-500h1200v675h-1200z" fill="#000"/><path d="M-134-94c-28-95-161-127-243-150-31-9-102-33-133-20-23 9-25 56-20 74 18 57 157 95 208 112 39 14 135 58 174 44 25-9 19-41 14-60z"  fill="#fff500" /><path d="M184-178c-4-49-21-99-64-126-75-48-268-39-262 82 3 66 64 197 131 222 28 11 63 3 93 0 23-2 66 1 83-16 35-36 22-118 19-162z"  fill="#fff" /><path d="M436-179c-22-57-58-114-118-137-54-22-160-24-186 41-6 16-7 31 0 47 29 67 218 154 286 141 45-8 29-63 18-92z"  fill="#fff" /></svg>