<svg width="1200" height="675" viewBox="-500 -500 1200 675" xmlns="http://www.w3.org/2000/svg"><path d="M-500-500h1200v675h-1200z" fill="#000"/><path d="M-336-386c-57 33-128 72-163 130-9 16-13 34-17 51-7 29-14 36 8 55 16 13 28 9 45-2 71-45 135-127 189-191 11-13 63-73 59-89-5-22-113 42-121 46z"  fill="#c2e1ff" /><path d="M146-122c-39-70-238-170-312-146-79 26-32 171 0 216 21 31 53 50 90 55 51 7 274-31 222-125z"  fill="#fff500" /><path d="M390 40c-19-65-71-166-131-197-54-29-157-27-170 48-9 57 20 122 41 174 10 24 24 65 51 76 53 22 232-22 209-101z"  fill="#c2e1ff" /><path d="M647-241c-30-79-170-183-254-136-71 39-129 268-97 340 23 51 135-2 167-15 72-28 224-83 184-189z"  fill="#c2e1ff" /></svg>