<svg width="1200" height="675" viewBox="-500 -500 1200 675" xmlns="http://www.w3.org/2000/svg"><path d="M-500-500h1200v675h-1200z" fill="#000"/><path d="M-355-432c-44-10-126-32-162 8-46 50 20 178 103 197 69 16 201-65 189-129-10-50-90-66-130-76z"  fill="#005bbb" /><path d="M97-364c-73-32-161-27-224 25-77 65-143 282-20 331 110 43 187-68 231-154 22-44 47-94 46-144 0-25-10-47-33-58z"  fill="#fff500" /><path d="M213-152c-50-11-132-24-163 31-29 50-3 121 13 171 11 35 31 115 75 124 35 8 105-67 125-89 34-36 92-84 93-138 0-66-94-88-143-99z"  fill="#c2e1ff" /><path d="M478-330c-45-5-95 2-122 42-34 50-25 121-21 178 1 13 1 88 21 91 15 2 101-66 114-75 43-31 152-110 145-173-6-52-100-59-137-63z"  fill="#fff500" /></svg>