<svg width="1200" height="675" viewBox="-500 -500 1200 675" xmlns="http://www.w3.org/2000/svg"><path d="M-500-500h1200v675h-1200z" fill="#000"/><path d="M-276-332c-32-21-106-53-142-29-53 34-66 129-77 184-11 58-37 177 27 217 18 11 41 13 61 9 96-17 124-151 140-230 7-36 31-125-9-151z"  fill="#fff" /><path d="M106-22c-7-50-22-118-72-141-66-31-206 44-196 124 5 43 40 78 66 110 46 57 66 100 141 105 14 1 30 4 43-5 44-29 25-152 18-193z"  fill="#c2e1ff" /><path d="M491-123c-5-192-134-178-274-117-42 18-127 53-126 110 1 63 94 103 141 123 140 62 263 79 259-116z"  fill="#c2e1ff" /></svg>