<svg width="1200" height="675" viewBox="-500 -500 1200 675" xmlns="http://www.w3.org/2000/svg"><path d="M-500-500h1200v675h-1200z" fill="#000"/><path d="M-160-113c-17-105-93-169-196-186-40-7-85-8-120 14-67 41-71 146-58 215 21 107 116 137 214 127 103-10 178-57 160-170z"  fill="#c2e1ff" /><path d="M-29-159c-21-10-152-73-172-45-11 15 23 123 29 143 12 42 46 190 89 210 15 7 46-12 59-17 58-24 109-48 138-107 8-15 15-32 13-49-7-68-104-110-156-135z"  fill="#005bbb" /><path d="M267-206c-41-13-136-48-174-8-30 32-4 187 2 228 3 18 19 136 39 142 3 1 91-83 104-96 82-85 219-208 29-266z"  fill="#005bbb" /><path d="M632-209c-28-62-70-168-133-197-24-12-143-15-162 10-36 47-12 209 15 254 49 83 216 81 263 37 12-11 18-29 22-45 4-20 3-40-5-59z"  fill="#005bbb" /><path d="M199-415c-70 46-184 124-181 221 4 102 201 90 257 47 65-50 111-245 52-296-36-32-97 8-128 28z"  fill="#005bbb" /></svg>