<svg width="1200" height="675" viewBox="-500 -500 1200 675" xmlns="http://www.w3.org/2000/svg"><path d="M-500-500h1200v675h-1200z" fill="#000"/><path d="M-172 67c-26-36-234-291-271-251-16 17 1 59 6 76 34 115 129 194 244 222 51 12 45-14 21-47z"  fill="#CEE5D0" /><path d="M90-347c-3-114-173-29-225-10-15 6-116 46-115 54 0 24 64 38 80 41 80 17 264 39 260-85z"  fill="#CEE5D0" /><path d="M373-409c-21-21-56-29-83-35-37-8-77-17-111 5-73 48-119 265-54 332 63 66 189 39 233-33 30-47 33-106 34-161 1-31 5-83-19-108z"  fill="#889EAF" /><path d="M565-408c-52-11-118-17-160 22-50 45-61 188 6 199 62 10 324-185 154-221z"  fill="#889EAF" /></svg>