<svg width="1200" height="675" viewBox="-500 -500 1200 675" xmlns="http://www.w3.org/2000/svg"><path d="M-500-500h1200v675h-1200z" fill="#000"/><path d="M-165 21c-1-50-8-113-49-148-26-22-209-69-238-58-16 6-20 24-20 40 0 76 48 164 101 215 86 80 210 107 206-49z"  fill="#005bbb" /><path d="M-257-307c-31 18-196 115-191 157 5 51 243 39 307-2 57-37 103-171 43-202-47-24-120 24-158 47z"  fill="#c2e1ff" /><path d="M171-237c-69-70-307 152-322 226-3 14 2 28 11 38 51 57 190 75 249 22 43-38 62-99 76-154 10-41 19-99-14-132z"  fill="#005bbb" /><path d="M371-73c-22-34-55-83-99-86-67-5-114 92-82 146 11 19 27 35 41 52 31 36 32 40 78 42 28 2 56 3 83 4 10 0 58 5 63-10 4-13-74-133-84-148z"  fill="#fff500" /><path d="M315-491c-67 2-144 16-186 74-57 78-46 298 85 295 122-3 174-132 228-221 13-22 60-84 50-109-17-44-142-39-177-38z"  fill="#fff500" /></svg>