<svg width="1200" height="675" viewBox="-500 -500 1200 675" xmlns="http://www.w3.org/2000/svg"><path d="M-500-500h1200v675h-1200z" fill="#000"/><path d="M-293-333c-24 12-135 56-146 85-12 31 15 71 30 97 3 5 28 54 38 48 11-6 39-61 47-73 29-47 71-101 86-155 9-33-44-7-55-2z"  fill="#fff" /><path d="M-3-75c-61-93-132-108-235-87-29 6-68 13-90 36-41 42-18 187 13 229 38 51 126 17 175 3 90-27 213-65 137-181z"  fill="#c2e1ff" /><path d="M141-343c-7-73-104-153-174-102-42 32-104 193-99 251 1 12 6 24 16 32 27 20 200 56 238 19 35-34 24-154 19-200z"  fill="#c2e1ff" /><path d="M332-111c-47-73-163-113-241-66-68 42-66 150-27 210 28 42 77 83 131 80 94-6 194-135 137-224z"  fill="#fff500" /><path d="M317-415c-167 35-90 146-17 235 19 23 82 102 118 94 38-8 43-89 46-117 15-120 10-245-147-212z"  fill="#005bbb" /><path d="M653-149c-19-10-116-4-138-4-151 0-242 9-175 181 13 33 31 90 66 105 74 32 136-43 168-98 7-12 97-175 79-184z"  fill="#fff500" /></svg>