<svg width="1200" height="675" viewBox="-500 -500 1200 675" xmlns="http://www.w3.org/2000/svg"><path d="M-500-500h1200v675h-1200z" fill="#000"/><path d="M-124-270c-14-72-93-139-168-112-59 21-106 75-144 123-27 33-67 84-57 131 9 42 62 51 97 58 49 11 103 19 152 7 94-22 137-117 120-207z"  fill="#fff500" /><path d="M161-162c-8-67-88-215-163-192-53 16-123 217-113 267 8 39 74 30 102 30 72-2 186-4 174-105z"  fill="#005bbb" /><path d="M385-299c-72-29-157-11-228 14-14 5-52 16-56 34-9 42 190 191 231 202 67 20 88-45 96-98 7-49 14-129-43-152z"  fill="#005bbb" /></svg>