<svg width="1200" height="675" viewBox="-500 -500 1200 675" xmlns="http://www.w3.org/2000/svg"><path d="M-500-500h1200v675h-1200z" fill="#000"/><path d="M-266-127c-92-57-140-84-145-81-13 7 16 85 19 94 19 63 65 234 124 269 72 42 109-122 101-162-10-54-55-92-99-120z"  fill="#c2e1ff" /><path d="M-111-290c-56 57-84 118-103 194-4 16-25 69-2 78 12 5 27-3 37-8 75-38 106-173 108-249 1-36-17-38-40-15z"  fill="#fff500" /><path d="M412-464c-26-65-228 137-246 154-17 17-92 89-82 116 16 44 152-54 160-60 40-30 193-148 168-210z"  fill="#fff500" /><path d="M421-48c-4-12-12-49-27-54-11-3-32 15-39 20-49 32-92 86-69 150 21 59 158-49 135-116z"  fill="#c2e1ff" /></svg>