<svg width="1200" height="675" viewBox="-500 -500 1200 675" xmlns="http://www.w3.org/2000/svg"><path d="M-500-500h1200v675h-1200z" fill="#000"/><path d="M-147-160c-18-122-140-165-246-117-34 16-62 41-86 69-21 23-57 61-51 95 6 34 115 45 140 47 74 8 261 32 243-94z"  fill="#005bbb" /><path d="M143-174c-35-47-140 18-173 36-22 12-156 76-128 118 15 22 59 26 83 29 83 10 211-8 234-105 6-28 1-56-16-78z"  fill="#fff500" /><path d="M242-484c-44-15-105-29-143 7-56 52-65 273 21 302 78 27 262-140 249-219-9-52-86-76-127-90z"  fill="#fff" /><path d="M549-71c-22-110-128-115-203-48-41 37-66 89-84 140-10 29-22 64-14 95 5 20 20 31 39 33 82 7 287-97 262-220z"  fill="#fff" /></svg>