<svg width="1200" height="675" viewBox="-500 -500 1200 675" xmlns="http://www.w3.org/2000/svg"><path d="M-500-500h1200v675h-1200z" fill="#000"/><path d="M-227-319c-56 5-232 17-264 65-32 49 86 187 130 211 13 7 28 10 42 7 103-15 291-301 92-283z"  fill="#FF7878" /><path d="M87-330c-16 2-40 39-49 49-36 40-72 81-91 133-8 22-12 45-13 69 0 26 9 159 58 151 78-12 91-227 94-280 1-7 9-123 1-122z"  fill="#FF7777" /><path d="M453-355c-62 16-168 79-186 141-26 89 81 237 147 214 52-18 59-140 63-182 1-16 21-184-24-173z"  fill="#F3D5C0" /></svg>