<svg width="1200" height="675" viewBox="-500 -500 1200 675" xmlns="http://www.w3.org/2000/svg"><path d="M-500-500h1200v675h-1200z" fill="#000"/><path d="M-165-174c-8-139-124-41-169 18-30 40-53 91-53 141-1 97 153 164 201 108 39-44 24-209 21-267z"  fill="#c2e1ff" /><path d="M94-268c-32-55-167-198-226-196-79 1-122 190-82 248 19 27 51 46 83 51 51 8 189-15 224-55 13-14 11-32 1-48z"  fill="#fff500" /><path d="M421-284c-3-30-4-93-30-111-53-37-185-3-242 9-15 3-141 23-136 50 4 23 180 49 206 53 14 2 206 33 202-1z"  fill="#fff500" /><path d="M702-151c-14-68-47-132-106-171-63-42-323-113-294 38 21 111 143 238 243 283 148 67 185-12 157-150z"  fill="#fff" /></svg>