<svg width="1200" height="675" viewBox="-500 -500 1200 675" xmlns="http://www.w3.org/2000/svg"><path d="M-500-500h1200v675h-1200z" fill="#000"/><path d="M-344-359c-43-13-114-34-151 5-38 40-9 218 51 237 59 18 220-103 216-158-3-50-78-72-116-84z"  fill="#ffd166" /><path d="M99-410c-93-9-161 0-240 48-14 9-36 19-43 34-22 48 63 144 90 176 16 19 52 74 82 74 12 0 74-93 82-104 34-51 163-215 29-228z"  fill="#ef476f" /><path d="M241-104c-37-14-131-53-170-29-15 9-17 33-20 49-4 15-11 37-6 53 14 49 125 135 168 150 72 25 164-56 142-132-14-49-71-74-114-91z"  fill="#073b4c" /><path d="M581-232c-36 15-149 55-163 97-15 43 85 172 184 130 71-30 126-99 131-176 1-19 1-41-12-57-32-39-104-9-140 6z"  fill="#ef476f" /></svg>