<svg width="1200" height="675" viewBox="-500 -500 1200 675" xmlns="http://www.w3.org/2000/svg"><path d="M-500-500h1200v675h-1200z" fill="#000"/><path d="M-273-309c-43-16-115-38-157-8-61 44-132 350-35 385 25 9 54 4 79-3 112-32 165-145 172-254 3-49-8-101-59-120z"  fill="#fff" /><path d="M-51-512c-80 0-214 25-208 132 5 84 185 210 263 206 9 0 18-3 24-10 28-33 59-182 61-223 1-18-2-36-10-52-24-46-84-53-130-53z"  fill="#fff500" /><path d="M364-278c-60-14-304 56-315 113-10 53 127 133 172 151 21 8 43 12 66 15 15 2 42 7 55-4 33-28 80-262 22-275z"  fill="#005bbb" /><path d="M638-322c-6-18-34-121-49-130-13-9-55 2-69 3-86 8-135 20-107 122 11 39 93 235 135 248 12 4 36-23 44-30 77-69 79-113 45-213z"  fill="#fff" /></svg>