<svg width="1200" height="675" viewBox="-500 -500 1200 675" xmlns="http://www.w3.org/2000/svg"><path d="M-500-500h1200v675h-1200z" fill="#000"/><path d="M-150-290c-2-51-3-171-47-207-22-18-69-7-95-2-30 5-66 11-93 28-67 42-81 151-77 222 9 142 181 185 259 127 50-38 55-111 53-168z"  fill="#c2e1ff" /><path d="M111-227c-28-51-74-126-141-125-103 0-185 178-139 261 39 72 255 150 317 77 50-58-8-160-37-213z"  fill="#fff" /><path d="M447-151c-24-54-62-101-120-119-39-13-256-14-219 70 29 68 201 115 264 139 37 14 118 41 118 40 17-12-38-119-43-130z"  fill="#fff" /></svg>