<svg width="1200" height="675" viewBox="-500 -500 1200 675" xmlns="http://www.w3.org/2000/svg"><path d="M-500-500h1200v675h-1200z" fill="#000"/><path d="M-306-298c-165 7-218 246-87 324 19 11 41 20 63 19 68-5 86-111 102-163 30-97 65-186-78-180z"  fill="#6E819E" /><path d="M25-175c-124-121-186-180-189-179-6 2-5 37-5 42-5 87 12 299 73 357 48 45 228 31 239-37 10-61-80-146-118-183z"  fill="#2C4D5D" /><path d="M388-198c-46-33-180-118-237-91-77 35-80 287 8 348 32 22 71 27 108 26 187-3 252-187 121-283z"  fill="#F6C8AC" /></svg>