<svg width="1200" height="675" viewBox="-500 -500 1200 675" xmlns="http://www.w3.org/2000/svg"><path d="M-500-500h1200v675h-1200z" fill="#000"/><path d="M-203-158c-2-16-23-184-29-189-14-11-52 4-66 9-64 18-152 44-140 127 11 79 74 150 146 180 18 8 40 15 60 8 46-18 34-99 29-135z"  fill="#005bbb" /><path d="M113-388c-14-6-71-37-86-33-33 8-72 28-96 50-21 19-121 152-74 172 34 14 139-52 171-69 26-14 115-51 125-78 8-22-25-36-40-42z"  fill="#fff500" /><path d="M256-444c-14 37-131 353-99 362 17 5 41-32 49-42 70-91 86-200 78-313-3-40-11-55-28-7z"  fill="#c2e1ff" /><path d="M675-216c-5-19-18-80-44-85-28-5-126 99-145 117-119 121-179 187-175 200 4 14 126-21 135-23 51-13 206-46 237-92 19-28-1-88-8-117z"  fill="#c2e1ff" /><path d="M372-96c-47-20-274-106-298-82-27 28 45 111 59 130 37 49 114 162 177 179 69 19 111-206 62-227z"  fill="#fff" /></svg>