<svg width="1200" height="675" viewBox="-500 -500 1200 675" xmlns="http://www.w3.org/2000/svg"><path d="M-500-500h1200v675h-1200z" fill="#000"/><path d="M-131-465c-11-22-28-43-53-48-68-15-269 117-236 190 17 37 69 55 105 66 45 16 108 35 153 10 53-30 57-168 31-218z"  fill="#c2e1ff" /><path d="M-13-398c-46-9-122-20-153 27-50 72 44 259 129 278 32 7 181-11 207-40 19-21 21-58 23-84 3-29 5-59-11-85-37-64-129-83-195-96z"  fill="#fff" /><path d="M-149-58c-54-36-207-116-264-99-36 11-49 46-57 80-23 103-3 133 86 178 44 23 116-33 149-56 12-8 122-80 86-103z"  fill="#c2e1ff" /><path d="M360-193c-30-20-213-136-242-119-20 13-6 54-1 70 25 88 73 197 156 245 88 51 182-8 175-87-4-49-51-84-89-109z"  fill="#c2e1ff" /></svg>