<svg width="1200" height="675" viewBox="-500 -500 1200 675" xmlns="http://www.w3.org/2000/svg"><path d="M-500-500h1200v675h-1200z" fill="#000"/><path d="M-324-139c-61 9-147 24-180 83-45 82 41 216 147 200 79-12 213-184 178-254-23-47-104-35-145-29z"  fill="#c2e1ff" /><path d="M170-34c-11-132-147-118-243-89-37 11-109 33-105 83 1 20 15 38 26 54 55 75 110 86 199 91 29 2 63 7 88-10 40-27 38-88 35-129z"  fill="#005bbb" /><path d="M-249-448c-84 13-236 190-221 273 12 68 152 65 202 52 20-5 40-14 53-31 35-46 92-313-34-294z"  fill="#005bbb" /><path d="M476-244c-37-103-227-116-287-46-35 40-22 101-6 147 40 115 119 129 226 102 29-7 73-18 90-47 23-41-9-116-23-156z"  fill="#c2e1ff" /></svg>