<svg width="1200" height="675" viewBox="-500 -500 1200 675" xmlns="http://www.w3.org/2000/svg"><path d="M-500-500h1200v675h-1200z" fill="#000"/><path d="M-204-302c-65-53-144-90-220-122-17-7-81-37-98-30-26 11-21 72-21 93 1 63 5 192 65 230 76 49 362-99 274-171z"  fill="#005bbb" /><path d="M-52-332c-58 13-137 31-172 85-15 24-15 57-16 84-4 75 0 128 84 145 27 5 56 9 83 2 49-14 80-101 99-142 48-102 90-211-78-174z"  fill="#005bbb" /><path d="M368-212c-69 26-140 51-207 83-28 13-77 31-95 59-11 17-1 37 9 52 33 51 163 170 229 135 56-29 105-234 103-295-1-24-12-44-39-33z"  fill="#c2e1ff" /><path d="M500-363c-33 30-64 63-90 100-22 30-113 187-56 213 13 6 36 14 51 9 35-14 79-130 92-161 15-34 71-145 58-182-8-22-47 16-55 22z"  fill="#fff500" /></svg>