<svg width="1200" height="675" viewBox="-500 -500 1200 675" xmlns="http://www.w3.org/2000/svg"><path d="M-500-500h1200v675h-1200z" fill="#000"/><path d="M-252-171c-4-28-25-104-69-87-52 20-147 211-137 262 10 50 162-35 169-43 36-38 44-80 37-132z"  fill="#fff500" /><path d="M155-221c-4-16-68-14-79-14-90-4-219-14-260 88-10 25-16 56-10 83 22 103 264-22 309-65 18-17 46-64 40-92z"  fill="#fff500" /><path d="M318-203c-33-31-116-72-148-17-33 57-2 206 47 251 123 117 190-151 101-234z"  fill="#005bbb" /><path d="M653-253c-16-52-29-99-72-135-7-6-16-16-26-12-29 11-41 72-48 97-16 55-46 152-26 209 26 74 141-26 161-59 18-31 22-66 11-100z"  fill="#005bbb" /></svg>