<svg width="1200" height="675" viewBox="-500 -500 1200 675" xmlns="http://www.w3.org/2000/svg"><path d="M-500-500h1200v675h-1200z" fill="#000"/><path d="M-278-289c-58-8-126-5-168 42-35 40-43 102-55 153-1 6-18 58-8 59 25 3 93-43 113-56 56-33 153-80 185-137 24-43-37-56-67-61z"  fill="#005bbb" /><path d="M148-51c-21-54-57-107-118-118-88-16-186 40-246 101-14 14-39 43-29 66 16 36 129 43 161 45 60 5 279 28 232-94z"  fill="#c2e1ff" /><path d="M308-256c-164-88-160 43-143 167 4 30 14 131 44 148 24 14 67-2 90-9 78-24 137-49 163-129 5-14 12-34 9-49-8-49-126-107-163-128z"  fill="#c2e1ff" /></svg>