<svg width="1200" height="675" viewBox="-500 -500 1200 675" xmlns="http://www.w3.org/2000/svg"><path d="M-500-500h1200v675h-1200z" fill="#000"/><path d="M-126-234c-17-68-175-156-239-129-9 4-16 11-20 20-14 26-38 128-31 156 17 65 180 155 242 130 51-21 60-130 48-177z"  fill="#c2e1ff" /><path d="M-72-488c-27-8-115-39-126 9-5 19 5 40 11 57 30 82 63 115 122 177 18 19 37 47 62 54 64 19 70-158 52-200-21-51-70-81-121-97z"  fill="#005bbb" /><path d="M304-48c-5-28-28-188-54-202-22-12-71 23-88 33-79 44-211 110-192 221 23 131 227 173 303 107 44-38 40-107 31-159z"  fill="#005bbb" /><path d="M386-276c-26-78-64-157-137-202-14-9-35-20-52-11-42 23 9 227 29 267 16 32 139 64 161 44 25-22 7-73-1-98z"  fill="#005bbb" /><path d="M489-167c-28-3-138-22-162-2-21 17-31 88-36 112-13 66-50 197 51 211 78 11 209-39 257-104 18-26 27-56 26-87-1-80-61-121-136-130z"  fill="#fff" /></svg>