<svg width="1200" height="675" viewBox="-500 -500 1200 675" xmlns="http://www.w3.org/2000/svg"><path d="M-500-500h1200v675h-1200z" fill="#000"/><path d="M-364-439c-128-37-157 46-141 158 5 34 14 92 54 102 41 12 84-34 109-59 76-79 109-164-22-201z"  fill="#fff500" /><path d="M32-166c-66-81-127-79-182 10-45 72-73 175-13 248 71 89 227-24 248-105 15-56-19-112-53-153z"  fill="#c2e1ff" /><path d="M299-16c-46-24-192-100-241-50-53 54 109 191 145 207 56 25 124 16 168-28 11-11 22-23 22-39 0-44-62-74-94-90z"  fill="#005bbb" /><path d="M667-419c-28 4-56 20-82 30-92 37-193 78-242 171-8 15-21 41-8 57 9 11 25 13 38 13 92-1 210-147 264-215 3-3 41-57 30-56z"  fill="#fff" /></svg>