<svg width="1200" height="675" viewBox="-500 -500 1200 675" xmlns="http://www.w3.org/2000/svg"><path d="M-500-500h1200v675h-1200z" fill="#000"/><path d="M-193-203c-51-38-161-108-227-80-72 30-156 284-93 326 39 26 190-43 228-58 33-14 151-57 162-96 10-36-47-75-70-92z"  fill="#fff" /><path d="M84-133c-17-79-73-136-141-174-17-9-46-27-66-17-29 15-48 244-39 275 31 104 272 37 246-84z"  fill="#fff500" /><path d="M301-331c-25-13-109-59-137-43-53 30-87 344-34 370 41 20 103-73 121-96 37-48 141-181 50-231z"  fill="#fff" /></svg>