<svg width="1200" height="675" viewBox="-500 -500 1200 675" xmlns="http://www.w3.org/2000/svg"><path d="M-500-500h1200v675h-1200z" fill="#000"/><path d="M-121-239c-1-31-1-152-38-167-40-16-177 92-207 114-113 84-170 127-170 129 0 10 31 21 38 24 73 36 241 71 314 37 52-24 65-84 63-137z"  fill="#fff500" /><path d="M161-220c-25-112-152-30-207 9-24 17-91 59-83 97 9 43 233 48 272 14 33-28 26-82 18-120z"  fill="#fff" /><path d="M436-352c-28-18-59-30-92-31-59-2-157 36-164 104-8 70 77 136 128 168 75 47 132 27 168-53 32-70 28-143-40-188z"  fill="#c2e1ff" /></svg>