<svg width="1200" height="675" viewBox="-500 -500 1200 675" xmlns="http://www.w3.org/2000/svg"><path d="M-500-500h1200v675h-1200z" fill="#000"/><path d="M-158-258c-15-26-41-44-68-57-95-46-167 32-223 102-12 14-50 51-37 71 20 33 172-3 203-9 76-16 175-20 125-107z"  fill="#c2e1ff" /><path d="M24-98c-21-41-48-82-88-107-63-40-168-38-215 26-46 62-15 200 18 262 48 91 140 77 224 48 33-12 81-29 97-64 24-50-14-122-36-165z"  fill="#c2e1ff" /><path d="M98-259c-27-4-92-18-118-7-18 8-36 35-50 49-28 29-79 72-5 83 60 9 133 4 189-19 13-5 99-56 87-79-9-17-87-26-103-27z"  fill="#c2e1ff" /><path d="M291-5c-2-29-4-103-26-126-9-10-26-13-38-14-65-10-87 37-83 97 4 65 112 220 144 206 12-6 5-144 3-163z"  fill="#fff500" /><path d="M667-287c-35-115-197 39-233 82-36 45-61 100-85 152-10 21-35 57-29 81 13 52 190 39 256-22 64-59 117-206 91-293z"  fill="#c2e1ff" /></svg>