<svg width="1200" height="675" viewBox="-500 -500 1200 675" xmlns="http://www.w3.org/2000/svg"><path d="M-500-500h1200v675h-1200z" fill="#000"/><path d="M-130-165c-8-14-17-41-30-51-36-25-207-31-235 15-28 45 16 147 40 188 76 131 124 88 186-21 17-30 60-94 39-131z"  fill="#fff500" /><path d="M62-401c-58 4-135 14-177 58-41 42-76 221-53 253 13 17 115 31 135 29 59-8 120-48 151-97 44-68 69-251-56-243z"  fill="#fff" /><path d="M418-249c-27-41-66-106-117-119-22-5-47-1-68 5-23 6-50 15-67 32-41 41-29 125-1 169 43 66 251 170 308 122 48-41-31-173-55-209z"  fill="#c2e1ff" /></svg>