<svg width="1200" height="675" viewBox="-500 -500 1200 675" xmlns="http://www.w3.org/2000/svg"><path d="M-500-500h1200v675h-1200z" fill="#000"/><path d="M-250-288c-25-28-151-166-194-149-54 20-1 255 56 313 57 59 195 67 214-13 13-55-43-115-76-151z"  fill="#005bbb" /><path d="M73-155c-4-20-16-37-37-41-44-8-98 25-137 41-47 19-111 36-145 76-19 23-24 52-20 80 7 53 41 137 105 140 48 2 93-35 126-64 83-71 131-120 108-232z"  fill="#c2e1ff" /><path d="M263-351c-83-30-191 24-251 79-16 14-61 80-19 93 25 8 88-18 114-25 62-19 148-35 194-85 30-31-11-52-38-61z"  fill="#005bbb" /><path d="M410-22c-66-61-80-76-171-86-24-3-50-8-73 1-70 27-76 199-22 240 68 53 342-84 266-155z"  fill="#fff" /><path d="M624-169c-8-35-32-188-57-193-33-7-153 222-134 286 2 8 7 13 16 14 33 3 187-49 175-107z"  fill="#005bbb" /></svg>