<svg width="1200" height="675" viewBox="-500 -500 1200 675" xmlns="http://www.w3.org/2000/svg"><path d="M-500-500h1200v675h-1200z" fill="#000"/><path d="M-233-189c-13-46-35-96-76-123-23-15-189-43-206-32-17 11-9 41-5 56 16 61 47 124 94 166 25 22 172 98 204 66 27-28-2-104-11-133z"  fill="#005bbb" /><path d="M173-235c0-48 8-152-21-189-32-39-91-53-138-61-164-30-250 36-235 209 13 159 159 142 277 115 34-8 118-25 117-74z"  fill="#fff" /><path d="M-234-208c-116-13-154 44-147 152 7 103 54 199 166 211 22 2 44 3 63-9 72-44 72-229 31-291-25-39-69-58-113-63z"  fill="#c2e1ff" /><path d="M368-35c-14-54-42-214-80-239-40-26-142 99-128 144 13 42 96 154 135 174 42 22 83-41 73-79z"  fill="#fff500" /><path d="M657-259c-22-50-115-200-176-193-81 8-126 264-95 325 9 17 24 31 42 37 44 15 210-3 242-48 24-35 2-88-13-121z"  fill="#005bbb" /></svg>