<svg width="1200" height="675" viewBox="-500 -500 1200 675" xmlns="http://www.w3.org/2000/svg"><path d="M-500-500h1200v675h-1200z" fill="#000"/><path d="M-288-390c-45-41-112 111-122 134-23 47-77 148-30 196 36 37 120 30 150-11 36-50 67-260 2-319z"  fill="#c2e1ff" /><path d="M-39-121c-38-24-93-55-140-34-48 22-126 184-73 216 56 34 359-88 213-182z"  fill="#005bbb" /><path d="M-4-417c-185 5-92 118-14 197 28 28 98 105 142 104 45-1 72-199 41-246-35-52-113-56-169-55z"  fill="#c2e1ff" /><path d="M315-16c-15-32-44-104-87-108-39-4-179 137-195 175-5 12-4 25 2 36 17 35 135 29 166 28 27 0 110 5 130-13 31-26-4-92-16-118z"  fill="#fff500" /><path d="M541-47c-25-52-63-142-126-157-95-23-110 138-83 192 27 53 175 134 225 92 33-29-2-97-16-127z"  fill="#005bbb" /></svg>