<svg width="1200" height="675" viewBox="-500 -500 1200 675" xmlns="http://www.w3.org/2000/svg"><path d="M-500-500h1200v675h-1200z" fill="#000"/><path d="M-185-200c-35-49-114-128-182-87-59 36-38 191-2 236 58 73 280-17 184-149z"  fill="#005bbb" /><path d="M-6-165c-16-23-55-91-92-85-24 4-43 57-52 75-24 46-87 141-55 191 34 53 221 67 255 5 32-58-25-141-56-186z"  fill="#fff500" /><path d="M310-419c-51-33-154-88-215-71-21 6-39 22-56 35-15 12-44 28-47 48-6 49 79 122 110 150 32 30 76 82 115 101 8 4 75-114 81-123 22-36 62-108 12-140z"  fill="#fff500" /><path d="M586-261c-13-25-57-27-80-30-129-14-170 4-230 129-10 20-33 61-19 84 25 43 154-54 174-66 109-69 160-108 155-117z"  fill="#fff500" /></svg>