<svg width="1200" height="675" viewBox="-500 -500 1200 675" xmlns="http://www.w3.org/2000/svg"><path d="M-500-500h1200v675h-1200z" fill="#000"/><path d="M-162-283c-1-123-176-45-227-2-38 32-73 86-75 138-4 97 231 138 277 95 36-34 25-181 25-231z"  fill="#fff500" /><path d="M19-4c-8-51-61-295-139-252-24 13-36 40-43 65-26 97 51 167 132 207 25 13 56 18 50-20z"  fill="#005bbb" /><path d="M244-151c-23-21-65-58-99-36-52 35-61 215-14 261 55 55 198 23 210-59 9-65-54-126-97-166z"  fill="#fff" /><path d="M690-364c-18-99-208-138-283-92-63 39-81 142-66 209 5 25 19 47 44 56 66 24 240-29 285-84 21-25 26-58 20-89z"  fill="#fff" /></svg>