<svg width="1200" height="675" viewBox="-500 -500 1200 675" xmlns="http://www.w3.org/2000/svg"><path d="M-500-500h1200v675h-1200z" fill="#000"/><path d="M-373-281c-20-21-111-122-144-113-28 8-6 118 3 142 8 20 22 37 36 52 32 34 180 94 197 60 15-29-75-122-92-141z"  fill="#fff" /><path d="M36-74c-24-50-157-156-211-123-53 32-16 191 7 233 37 68 101 48 160 25 20-8 56-19 65-42 12-27-11-70-22-93z"  fill="#fff" /><path d="M408-206c-60 30-115 138-116 202-1 50 65 142 118 111 49-29 45-127 45-174 1-22 9-168-48-139z"  fill="#fff500" /><path d="M103-286c-76 60-178 138-175 154 1 5 44 6 48 7 85 7 188 18 259-42 41-34 88-180 35-201-45-18-136 57-167 82z"  fill="#005bbb" /><path d="M565-188c-72-78-144-155-230-218-18-13-56-49-82-40-30 10 9 84 17 98 43 80 125 177 202 225 70 43 151-1 93-65z"  fill="#c2e1ff" /></svg>