<svg width="1200" height="675" viewBox="-500 -500 1200 675" xmlns="http://www.w3.org/2000/svg"><path d="M-500-500h1200v675h-1200z" fill="#000"/><path d="M-167-178c-23-55-100-69-137-22-51 63-97 206-69 285 22 60 115 116 163 52 37-48 68-254 43-315z"  fill="#fff" /><path d="M19-334c-45-34-107-68-165-53-58 15-115 96-103 155 7 35 35 62 62 82 48 36 129 85 192 61 81-31 95-184 14-245z"  fill="#005bbb" /><path d="M304 46c-1-28 0-143-18-165-16-19-61-27-82-34-118-40-184-4-172 128 8 89 66 148 148 177 94 35 128-16 123-106z"  fill="#c2e1ff" /><path d="M399-304c-24 14-184 107-184 136 1 34 212 55 243 53 15-1 30-6 42-13 46-31 83-174 33-209-39-26-102 14-134 33z"  fill="#fff500" /></svg>