<svg width="1200" height="675" viewBox="-500 -500 1200 675" xmlns="http://www.w3.org/2000/svg"><path d="M-500-500h1200v675h-1200z" fill="#000"/><path d="M-160-336c-47-52-192-145-262-126-81 23-99 214-43 268 75 72 402-33 305-142z"  fill="#005bbb" /><path d="M23-226c-64-61-136-52-194 11-47 51-70 118-18 175 37 41 91 68 137 97 17 11 56 47 79 42 27-6 37-50 46-72 46-121 54-153-50-253z"  fill="#c2e1ff" /><path d="M379-94c-21-71-54-140-87-205-12-23-31-78-59-90-17-7-50 23-61 31-85 61-120 116-79 220 17 42 41 90 83 112 58 31 234 39 203-68z"  fill="#fff" /><path d="M661-70c-34-74-146-171-226-120-74 48-86 230-53 303 50 107 266 104 310 39 36-54-7-170-31-222z"  fill="#fff500" /></svg>