<svg width="1200" height="675" viewBox="-500 -500 1200 675" xmlns="http://www.w3.org/2000/svg"><path d="M-500-500h1200v675h-1200z" fill="#000"/><path d="M-310-84c-25 29-137 150-123 193 18 55 216-22 231-41 25-31 35-214 7-229-37-20-96 57-115 77z"  fill="#fff500" /><path d="M-44-273c-29-26-71-56-113-43-74 24-121 176-61 234 19 18 100 81 127 80 27-2 52-32 68-50 72-83 61-148-21-221z"  fill="#fff" /><path d="M260-467c-14-5-183-59-185-57-18 10-8 76-7 91 3 47 2 159 32 198 12 15 74 44 91 49 69 20 183-134 173-194-8-49-63-73-104-87z"  fill="#c2e1ff" /><path d="M598-275c-72-11-166-10-221 46-39 40-42 97-39 150 1 13-2 78 19 81 22 3 61-34 76-45 52-37 103-77 153-116 75-58 112-88 112-90-1-18-89-25-100-26z"  fill="#c2e1ff" /></svg>