<svg width="1200" height="675" viewBox="-500 -500 1200 675" xmlns="http://www.w3.org/2000/svg"><path d="M-500-500h1200v675h-1200z" fill="#000"/><path d="M-196-353c-22-15-258 27-266 42-6 11 22 28 27 32 32 23 183 117 220 109 19-4 22-70 24-84 3-22 18-83-5-99z"  fill="#f4a261" /><path d="M82-134c-5-73-131-199-203-208-75-8-98 82-90 140 3 20 7 39 21 54 40 44 277 92 272 14z"  fill="#264653" /><path d="M258-460c-48-2-95 11-124 51-36 50-68 300 19 307 73 5 180-81 217-139 18-29 27-62 31-96 2-21 4-43-5-63-23-49-90-58-138-60z"  fill="#2a9d8f" /></svg>