<svg width="1200" height="675" viewBox="-500 -500 1200 675" xmlns="http://www.w3.org/2000/svg"><path d="M-500-500h1200v675h-1200z" fill="#000"/><path d="M-186-171c-19-93-133-179-200-238-6-5-65-53-65-53-10 2-23 66-25 74-15 47-39 100-22 149 36 103 330 158 312 68z"  fill="#c2e1ff" /><path d="M78-160c-51-28-124-32-178-10-49 19-117 70-148 109-42 54-59 149 14 186 49 24 105 23 152-6 59-35 223-244 160-279z"  fill="#fff" /><path d="M153-519c-67 13-151 39-183 105-34 70-2 322 111 296 81-19 126-215 148-282 4-11 40-118 37-123-11-23-97 1-113 4z"  fill="#005bbb" /><path d="M597-332c-12-62-159-134-211-95-30 23-80 226-72 262 18 81 237 21 275-26 27-33 16-102 8-141z"  fill="#fff" /><path d="M417-177c-124 28-317 162-233 311 46 81 152 76 232 77 37 0 78 4 114-8 9-3 6-100 7-124 1-82 20-286-120-256z"  fill="#c2e1ff" /></svg>