<svg width="1200" height="675" viewBox="-500 -500 1200 675" xmlns="http://www.w3.org/2000/svg"><path d="M-500-500h1200v675h-1200z" fill="#000"/><path d="M-139-175c-3-14-5-43-17-54-22-19-164-20-190-4-56 33-136 170-121 235 32 141 343-107 328-177z"  fill="#fff" /><path d="M168-326c-9-6-19-13-30-14-29-2-94 42-117 54-47 26-102 50-138 91-50 58-30 146 32 187 145 95 203-81 235-189 5-16 35-117 18-129z"  fill="#fff500" /><path d="M358-311c-50-18-104-15-148 17-34 24-61 60-80 97-18 36-64 160-1 179 59 18 158-87 194-122 39-40 130-137 35-171z"  fill="#fff" /></svg>