<svg width="1200" height="675" viewBox="-500 -500 1200 675" xmlns="http://www.w3.org/2000/svg"><path d="M-500-500h1200v675h-1200z" fill="#000"/><path d="M-292-449c-46-18-102-25-140 12-49 46-56 126-67 189-3 14-25 93-6 102 20 9 46 10 68 12 108 12 168-37 228-123 18-25 48-64 42-96-9-52-83-80-125-96z"  fill="#fff" /><path d="M-23-344c-56 2-132 9-169 58-15 20-19 46-20 70-6 107 84 158 180 152 102-7 176-167 134-238-25-41-82-44-125-42z"  fill="#005bbb" /><path d="M414-248c-38-12-89-5-128-4-66 1-155-6-203 50-30 34-29 79-25 121 9 95 19 122 108 152 35 12 70 23 106 30 120 24 135-153 145-232 2-16 21-109-3-117z"  fill="#005bbb" /><path d="M-93-30c-4-23-12-82-42-88-16-3-66 36-81 45-54 35-227 154-213 226 17 90 258-21 301-65 31-32 43-74 35-118z"  fill="#fff" /><path d="M681-360c-1-73-288-61-341-31-8 5-14 12-14 22-2 30 31 61 50 80 53 53 167 134 247 96 51-24 58-117 58-167z"  fill="#c2e1ff" /></svg>