<svg width="1200" height="675" viewBox="-500 -500 1200 675" xmlns="http://www.w3.org/2000/svg"><path d="M-500-500h1200v675h-1200z" fill="#000"/><path d="M-274-320c-4-25-41-61-66-38-35 32-59 106-78 149-21 48-62 126-58 180 3 54 116 22 144-14 32-42 66-222 58-277z"  fill="#005bbb" /><path d="M-9-140c-25-33-71-98-121-94-64 6-73 141-41 184 31 40 181 92 214 41 25-38-31-104-52-131z"  fill="#fff500" /><path d="M286-228c-43-13-104-25-140 12-55 57-26 242 54 268 65 21 284-81 272-166-9-63-138-100-186-114z"  fill="#fff500" /><path d="M696-344c-19-147-109-141-213-66-38 27-93 71-88 124 7 69 123 116 178 140 26 11 84 42 112 21 39-29 15-179 11-219z"  fill="#005bbb" /></svg>