<svg width="1200" height="675" viewBox="-500 -500 1200 675" xmlns="http://www.w3.org/2000/svg"><path d="M-500-500h1200v675h-1200z" fill="#000"/><path d="M-300-477c-68-17-153-29-202 33-12 15-21 34-14 53 14 41 71 72 103 95 48 34 103 80 162 91 103 20 84-147 54-200-22-39-61-61-103-72z"  fill="#c2e1ff" /><path d="M68-268c-63-17-215-24-260 30-48 57 10 295 56 304 16 3 81-79 91-92 19-23 195-220 113-242z"  fill="#fff500" /><path d="M347-136c-14-73-64-116-131-141-20-7-41-13-62-15-17-1-111 0-104 32 17 79 181 175 255 182 38 3 49-24 42-58z"  fill="#fff500" /><path d="M488-255c-42 0-117 3-142 45-26 43 19 218 69 216 53-2 182-260 73-261z"  fill="#c2e1ff" /></svg>