<svg width="1200" height="675" viewBox="-500 -500 1200 675" xmlns="http://www.w3.org/2000/svg"><path d="M-500-500h1200v675h-1200z" fill="#000"/><path d="M-122-370c-35-90-114-130-207-133-106-3-163 43-189 147-11 42-17 90 0 131 25 62 94 84 155 92 70 9 183 15 222-60 13-25 15-55 19-82 4-29 11-67 0-95z"  fill="#fff500" /><path d="M177-242c-3-42-10-119-65-126-76-10-271 162-266 246 5 85 223 79 278 38 49-36 57-102 53-158z"  fill="#005bbb" /><path d="M423-88c-18-37-65-57-101-71-145-57-203-13-229 139-7 41-19 100 3 140 7 12 18 19 31 20 71 5 336-146 296-228z"  fill="#c2e1ff" /><path d="M643-268c-49-35-240-79-290-55-59 28-41 176 0 201 44 27 257-84 288-119 7-8 13-19 2-27z"  fill="#fff" /></svg>