<svg width="1200" height="675" viewBox="-500 -500 1200 675" xmlns="http://www.w3.org/2000/svg"><path d="M-500-500h1200v675h-1200z" fill="#000"/><path d="M-251-194c-2-53-107-205-159-200-56 5-93 157-88 206 9 77 93 65 148 58 24-3 62-3 82-18 14-11 17-29 17-46z"  fill="#005bbb" /><path d="M-339-56c-44 35-148 114-151 177-4 70 142 105 194 60 46-39 127-241 83-287-31-33-105 32-126 50z"  fill="#fff500" /><path d="M-53-301c-40-23-98-49-142-20-71 47-54 188 15 229 59 35 188 18 215-54 27-68-35-125-88-155z"  fill="#fff500" /><path d="M359-67c-38-38-88-69-143-65-36 3-198 83-157 125 40 41 182 68 237 80 26 6 141 33 161 7 22-29-80-131-98-147z"  fill="#fff" /></svg>