<svg width="1200" height="675" viewBox="-500 -500 1200 675" xmlns="http://www.w3.org/2000/svg"><path d="M-500-500h1200v675h-1200z" fill="#000"/><path d="M-241-182c-14-48-33-134-82-161-53-29-92 75-80 118 11 37 151 213 181 207 35-7-14-149-19-164z"  fill="#005bbb" /><path d="M184-299c0-62-60-144-117-166-62-24-200 10-197 90 2 47 30 96 72 117 49 25 242 19 242-41z"  fill="#fff" /><path d="M-52-96c-50 32-166 96-193 151-14 28-30 100 9 114 44 16 109-21 142-46 62-47 126-144 140-221 12-67-75-13-98 2z"  fill="#fff500" /><path d="M424-191c-14-73-65-152-137-181-34-13-71-12-106-1-81 25-104 91-85 170 11 48 35 94 81 116 71 33 269 10 247-104z"  fill="#c2e1ff" /><path d="M513-141c-23-11-47-18-73-18-83 0-83 98-85 162-1 34-7 108 33 127 87 41 208-230 125-271z"  fill="#c2e1ff" /></svg>