<svg width="1200" height="675" viewBox="-500 -500 1200 675" xmlns="http://www.w3.org/2000/svg"><path d="M-500-500h1200v675h-1200z" fill="#000"/><path d="M-172-441c-21-24-59-18-86-12-97 25-172 87-194 188-4 18-12 49 3 65 39 41 321-191 277-241z"  fill="#005bbb" /><path d="M87-25c0-26 3-143-19-161-12-11-104-3-120-2-109 5-288 3-285 155 2 112 120 142 212 148 101 7 212-19 212-140z"  fill="#005bbb" /><path d="M200-435c-100-13-182 76-235 149-26 35-63 88-52 134 10 44 68 52 104 54 133 9 249-215 231-298-5-24-24-36-48-39z"  fill="#005bbb" /><path d="M422-349c-34-17-139-71-175-37-51 47 45 234 97 258 76 36 172-54 161-131-6-44-48-72-84-90z"  fill="#fff500" /><path d="M487 154c-27-62-161-146-226-142-26 2-45 15-64 31-16 13-38 31-42 53-8 45 259 102 317 87 15-4 21-15 15-29z"  fill="#c2e1ff" /></svg>