<svg width="1200" height="675" viewBox="-500 -500 1200 675" xmlns="http://www.w3.org/2000/svg"><path d="M-500-500h1200v675h-1200z" fill="#000"/><path d="M-309-353c-25 0-178-2-192 21-13 22 25 74 35 91 30 50 95 169 164 167 69-1 161-173 133-230-23-47-96-49-140-49z"  fill="#fff500" /><path d="M-31-286c-25-6-161-41-182-26-13 9-14 35-15 48-8 80 82 199 161 214 60 11 166-112 152-165-12-46-77-62-116-71z"  fill="#005bbb" /><path d="M500-312c-10-46-30-145-74-172-47-28-273-17-259 46 12 56 138 124 185 155 24 16 110 78 138 70 33-9 14-79 10-99z"  fill="#fff500" /><path d="M482-133c-43-26-100-65-154-65-56 0-26 82-10 109 38 67 127 129 192 169 50 30 167-33 153-75-15-47-142-114-181-138z"  fill="#fff" /></svg>