<svg width="1200" height="675" viewBox="-500 -500 1200 675" xmlns="http://www.w3.org/2000/svg"><path d="M-500-500h1200v675h-1200z" fill="#000"/><path d="M-178-343c-6-37-15-97-54-115-29-13-249 32-241 85 4 33 48 58 71 77 22 19 45 44 71 57 23 12 51 16 76 18 83 5 88-53 77-122z"  fill="#fff500" /><path d="M-108-99c-31 20-294 206-277 227 4 5 67-2 113-5 42-2 84-1 123-19 62-29 109-132 91-199-7-27-34-15-50-3z"  fill="#fff500" /><path d="M136-432c-82-74-227 86-162 149 19 19 47 28 72 35 135 37 178-105 90-184z"  fill="#fff" /><path d="M190-122c-77-104-165 11-207 83-18 30-62 96-36 133 34 48 256-24 283-79 23-46-14-102-40-137z"  fill="#fff500" /><path d="M482-371c-13-98-81-194-193-147-69 29-100 128-90 197 13 91 137 113 213 127 20 4 68 16 84-3 11-12-12-155-14-174z"  fill="#fff" /></svg>