<svg width="1200" height="675" viewBox="-500 -500 1200 675" xmlns="http://www.w3.org/2000/svg"><path d="M-500-500h1200v675h-1200z" fill="#000"/><path d="M-212-92c-63-2-260 33-287 91-28 60 85 120 126 134 32 11 67 15 101 12 38-3 78-15 101-47 36-49 45-187-41-190z"  fill="#fff" /><path d="M196-195c-6-117-160-81-212-28-33 34-38 88-40 133-4 97 48 165 139 198 27 10 62 16 85-7 41-41 31-234 28-296z"  fill="#005bbb" /><path d="M429-115c-13-37-37-112-85-119-59-9-273 186-257 225 10 27 111 27 133 27 89 2 257 1 209-133z"  fill="#fff500" /><path d="M723-270c-3-58-13-119-47-168-49-73-186-121-265-68-68 46-78 181-69 255 9 74 85 84 148 99 116 28 242 44 233-118z"  fill="#005bbb" /></svg>