<svg width="1200" height="675" viewBox="-500 -500 1200 675" xmlns="http://www.w3.org/2000/svg"><path d="M-500-500h1200v675h-1200z" fill="#000"/><path d="M-221-268c-7-30-20-101-61-104-27-1-48 26-64 43-59 64-83 109-65 196 14 71 151 95 191 40 33-44 9-128-1-175z"  fill="#005bbb" /><path d="M153-160c-7-36-64-63-93-79-48-28-101-56-157-64-77-10-132 45-116 121 12 56 59 80 105 107 87 52 158 92 229-5 16-21 37-52 31-80z"  fill="#c2e1ff" /><path d="M262 11c-43-37-110-99-172-91-10 1-20 5-28 12-20 16-72 91-72 119 0 10 7 19 15 26 56 48 156 51 225 57 27 3 90 17 109-9 25-33-59-98-77-114z"  fill="#c2e1ff" /><path d="M480-359c-124-171-235 130-185 211 36 57 223 110 263 35 37-71-38-191-78-246z"  fill="#fff500" /></svg>