<svg width="1200" height="675" viewBox="-500 -500 1200 675" xmlns="http://www.w3.org/2000/svg"><path d="M-500-500h1200v675h-1200z" fill="#000"/><path d="M-190 23c-46-80-107-178-211-180-109-1-118 80-120 167-1 23-8 62 6 82 30 45 119 48 165 53 94 10 240 15 160-123z"  fill="#005bbb" /><path d="M35-226c-40-2-152-10-182 21-48 51-55 349 17 352 48 2 181-95 207-134 49-73 85-233-42-239z"  fill="#fff500" /><path d="M276-458c-44-13-186-67-226-36-53 41-12 320 19 327 39 10 128-62 156-83 74-56 213-160 51-208z"  fill="#fff" /><path d="M573-169c-52-24-256-113-296-83-16 11-11 34-6 49 25 78 127 169 204 191 97 27 172-123 98-157z"  fill="#fff" /></svg>