<svg width="1200" height="675" viewBox="-500 -500 1200 675" xmlns="http://www.w3.org/2000/svg"><path d="M-500-500h1200v675h-1200z" fill="#000"/><path d="M-337-270c-104 43-124 143-133 245-2 26-13 75 2 99 19 33 107 20 132 8 78-39 123-289 67-347-18-19-46-14-68-5z"  fill="#005bbb" /><path d="M-47-406c-55 4-122 18-152 70-63 108 37 310 178 296 118-11 109-94 116-190 4-45 17-103-14-141-29-37-85-39-128-35z"  fill="#fff500" /><path d="M375-244c-22-23-111-127-143-129-21-2-46 28-58 40-17 17-35 34-44 57-24 64 18 151 63 196 64 64 212 37 237-38 15-47-26-95-55-126z"  fill="#fff500" /></svg>