<svg width="1200" height="675" viewBox="-500 -500 1200 675" xmlns="http://www.w3.org/2000/svg"><path d="M-500-500h1200v675h-1200z" fill="#000"/><path d="M-127-213c-2-71-17-130-52-191-3-5-8-20-13-22-10-5-100 31-112 35-27 10-210 77-206 109 2 20 112 65 129 72 50 21 257 122 254-3z"  fill="#fff" /><path d="M72-31c-20-55-80-130-132-157-86-45-177-20-131 91 30 72 89 106 156 137 17 8 37 19 56 21 23 3 67-48 51-92z"  fill="#c2e1ff" /><path d="M300-367c-24-87-243-144-314-133-16 3-19 12-15 27 13 57 48 111 76 161 32 58 72 136 135 166 21 10 42 8 63 1 84-30 74-153 55-222z"  fill="#fff" /><path d="M403-135c-27-15-58-27-89-20-57 14-119 111-137 162-11 31-15 63-13 96 1 21 1 67 23 78 24 13 109-82 124-97 34-36 181-169 92-219z"  fill="#fff" /><path d="M640-357c-60-84-231-53-284 24-15 22-21 46-5 69 38 58 227 130 291 97 53-28 26-150-2-190z"  fill="#fff" /></svg>