<svg width="1200" height="675" viewBox="-500 -500 1200 675" xmlns="http://www.w3.org/2000/svg"><path d="M-500-500h1200v675h-1200z" fill="#000"/><path d="M-320-231c-153-27-170 43-113 168 15 34 42 100 85 108 50 9 180-152 168-201-13-53-95-67-140-75z"  fill="#FF7777" /><path d="M-16-454c-53-21-119-34-168 2-92 67-92 202-23 283 11 13 24 29 41 35 52 18 107-49 136-83 57-68 136-189 14-237z"  fill="#F3D5C0" /><path d="M266-295c-79 32-207 114-239 197-41 107 162 28 192 11 36-20 66-47 88-82 37-59 79-174-41-126z"  fill="#D4B499" /></svg>