<svg width="1200" height="675" viewBox="-500 -500 1200 675" xmlns="http://www.w3.org/2000/svg"><path d="M-500-500h1200v675h-1200z" fill="#000"/><path d="M-168-32c-23-36-78-39-115-39-89-2-200 13-237 107-8 21-12 45 2 65 24 36 86 48 125 41 53-9 189-80 220-119 13-16 17-36 5-55z"  fill="#fff500" /><path d="M-90-476c-101-36-149 17-182 107-23 62-35 121-28 187 2 20-1 74 23 82 69 24 132-79 163-121 49-68 151-209 24-255z"  fill="#fff500" /><path d="M229-309c-35-8-227-58-250-38-38 33-6 150 4 190 13 57 35 188 107 202 99 18 281-177 262-272-11-53-78-72-123-82z"  fill="#fff500" /><path d="M594-210c-26-55-68-150-137-161-108-19-198 151-142 264 48 98 184 86 274 82 12-1 70 3 77-12 4-7-65-158-72-173z"  fill="#fff" /></svg>