<svg width="1200" height="675" viewBox="-500 -500 1200 675" xmlns="http://www.w3.org/2000/svg"><path d="M-500-500h1200v675h-1200z" fill="#000"/><path d="M-199-162c-25-26-168-139-202-96-25 32 95 179 118 198 79 66 166-16 84-102z"  fill="#005bbb" /><path d="M180-56c-14-49-75-183-114-209-43-29-104-29-153-27-34 1-94 2-113 38-8 15-4 33 4 48 42 88 253 160 342 168 12 1 39 2 34-18z"  fill="#fff" /><path d="M476-90c-8-50-29-150-90-163-69-15-205 142-192 200 10 44 86 45 121 49 69 7 176 12 161-86z"  fill="#fff500" /><path d="M674-179c-9-16-75 5-201 63-22 10-183 86-166 122 10 22 26 53 46 67 44 31 199 43 250 3 44-34 54-92 64-143 6-29 22-83 7-112z"  fill="#fff" /></svg>