<svg width="1200" height="675" viewBox="-500 -500 1200 675" xmlns="http://www.w3.org/2000/svg"><path d="M-500-500h1200v675h-1200z" fill="#000"/><path d="M-196-71c-21-40-53-89-102-94-86-9-196 117-147 220 46 95 114 142 216 96 26-12 57-27 68-55 22-53-12-121-35-167z"  fill="#c2e1ff" /><path d="M59-315c-92-39-220-15-266 83-21 44-16 93-10 140 4 30 7 84 41 96 33 13 78-17 106-30 27-13 54-26 77-44 74-56 185-188 52-245z"  fill="#fff" /><path d="M406-11c-4-34-29-201-86-187-69 16-112 255-105 308 12 93 135 15 166-26 21-27 29-61 25-95z"  fill="#c2e1ff" /><path d="M471-360c-1-48-70-56-104-59-61-6-113 11-119 80-3 40 15 188 72 190 52 2 152-157 151-211z"  fill="#005bbb" /></svg>