<svg width="1200" height="675" viewBox="-500 -500 1200 675" xmlns="http://www.w3.org/2000/svg"><path d="M-500-500h1200v675h-1200z" fill="#000"/><path d="M-132-46c-10-82-57-162-129-203-56-32-216-36-200 64 11 71 93 158 152 195 71 45 193 68 177-56z"  fill="#c2e1ff" /><path d="M56-385c-42-49-101-108-170-105-14 1-31 4-39 17-15 27 72 220 94 244 37 41 177 78 194 1 12-56-46-119-79-157z"  fill="#005bbb" /><path d="M309-393c-45-23-146-80-195-38-58 48 0 288 83 329 108 54 231-64 215-175-8-55-56-92-103-116z"  fill="#c2e1ff" /><path d="M164-147c-21-16-47-27-73-15-73 31-200 255-119 317 74 57 295-222 192-302z"  fill="#fff" /></svg>