<svg width="1200" height="675" viewBox="-500 -500 1200 675" xmlns="http://www.w3.org/2000/svg"><path d="M-500-500h1200v675h-1200z" fill="#000"/><path d="M-246-246c-43-21-111-65-161-54-30 7-73 20-91 48-24 37 15 128 55 143 26 10 99-22 123-30 49-16 187-53 74-107z"  fill="#005bbb" /><path d="M51-441c-27 27-256 239-219 269 29 24 122 10 156 6 116-13 94-25 103-153 3-37 16-95-4-129-10-16-27-3-36 7z"  fill="#fff500" /><path d="M335-293c-45-16-179-75-230-39-19 13-10 63-8 82 5 63 9 165 81 189 68 23 262-54 264-140 1-51-69-78-107-92z"  fill="#fff" /><path d="M49-94c-73-152-185 32-228 103-18 29-80 124-64 160 20 43 255-54 294-107 34-47 21-107-2-156z"  fill="#c2e1ff" /></svg>