<svg width="1200" height="675" viewBox="-500 -500 1200 675" xmlns="http://www.w3.org/2000/svg"><path d="M-500-500h1200v675h-1200z" fill="#000"/><path d="M-242-87c-7-59-24-126-74-162-78-57-227-39-214 99 6 63 20 137 66 185 38 39 155 89 199 41 37-40 28-114 23-163z"  fill="#fff" /><path d="M190-119c-15-53-236-111-289-103-14 2-16 13-13 25 15 53 68 106 116 130 49 25 127 53 173 9 17-16 20-39 13-61z"  fill="#c2e1ff" /><path d="M343-193c-9-47-25-103-67-131-20-13-43-17-66-15-77 7-74 95-65 153 5 28 26 166 48 184 14 11 49-2 63-6 103-26 106-86 87-185z"  fill="#fff500" /></svg>