<svg width="1200" height="675" viewBox="-500 -500 1200 675" xmlns="http://www.w3.org/2000/svg"><path d="M-500-500h1200v675h-1200z" fill="#000"/><path d="M-205-162c-3-20-12-46-37-41-63 15-159 165-197 216-5 7-100 126-96 131 1 1 34 2 96 2 38 1 74-1 110-17 104-48 140-186 124-291z"  fill="#c2e1ff" /><path d="M21-153c-38-17-162-81-205-68-33 10 41 107 48 116 22 31 136 189 167 203 45 18 136-92 123-142-15-56-85-88-133-109z"  fill="#c2e1ff" /><path d="M305-254c-92-46-131 62-153 131-5 15-31 74-11 86 40 23 109 39 153 20 50-21 108-111 89-166-11-34-48-56-78-71z"  fill="#fff500" /></svg>