<svg width="1200" height="675" viewBox="-500 -500 1200 675" xmlns="http://www.w3.org/2000/svg"><path d="M-500-500h1200v675h-1200z" fill="#000"/><path d="M-152 53c-3-100-94-174-183-203-56-19-172-7-166 76 7 102 235 227 318 190 25-11 32-38 31-63z"  fill="#c2e1ff" /><path d="M-98-248c-8-66-15-200-71-248-53-45-219-23-203 58 14 71 172 245 238 264 44 13 39-48 36-74z"  fill="#005bbb" /><path d="M79-437c-123-110-112 97-114 166-1 23-9 140 8 156 26 25 173-122 182-185 7-55-39-103-76-137z"  fill="#005bbb" /><path d="M357-146c-36-54-222-119-274-76-57 46 1 150 31 194 27 38 95 130 149 124 31-3 46-42 60-66 31-53 74-117 34-176z"  fill="#fff" /><path d="M708-176c-19-64-112-39-157-26-65 19-147 58-129 140 22 100 99 161 197 118 27-11 52-28 70-50 37-49 35-125 19-182z"  fill="#fff" /></svg>