<svg width="1200" height="675" viewBox="-500 -500 1200 675" xmlns="http://www.w3.org/2000/svg"><path d="M-500-500h1200v675h-1200z" fill="#000"/><path d="M-314-295c-67 10-179 24-214 93-50 95 63 267 172 247 63-12 107-98 134-148 66-119 85-218-92-192z"  fill="#005bbb" /><path d="M87-346c-135-129-262 25-212 178 8 25 19 52 39 70 16 15 36 20 57 15 77-17 223-159 116-263z"  fill="#005bbb" /><path d="M428-510c-59 5-255 136-249 197 3 30 88 95 115 116 23 18 84 69 113 63 19-4 28-24 34-41 15-45 59-341-13-335z"  fill="#005bbb" /><path d="M304-175c-50-58-150 63-180 92-25 24-104 77-68 123 20 26 75 26 104 29 47 4 106 10 146-20 55-41 40-175-2-224z"  fill="#fff" /><path d="M635-227c-19-15-95-77-120-71-40 10-80 98-96 131-25 52-99 178-35 229 26 21 64 18 95 15 47-5 95-20 131-52 59-53 97-194 25-252z"  fill="#fff500" /></svg>