<svg width="1200" height="675" viewBox="-500 -500 1200 675" xmlns="http://www.w3.org/2000/svg"><path d="M-500-500h1200v675h-1200z" fill="#000"/><path d="M-238-406c-3-40-11-87-44-113-28-22-152-33-182-6-17 15-18 43-17 63 1 92 39 177 96 248 17 21 44 53 74 52 70-2 76-198 73-244z"  fill="#005bbb" /><path d="M-228-41c-1-8-9-132-18-132-14 0-31 71-34 80-20 59-50 129-43 193 5 50 65 47 85 9 22-43 14-104 10-150z"  fill="#005bbb" /><path d="M185-374c-2-40-10-93-52-111-81-34-255 73-254 168 1 127 141 203 246 120 53-42 63-115 60-177z"  fill="#fff500" /><path d="M369-37c-22-99-286-187-362-143-24 14-27 42-21 67 18 96 105 231 203 260 30 9 56-12 81-26 71-40 119-66 99-158z"  fill="#fff" /><path d="M560-217c-41-113-87-141-189-202-29-18-72-51-110-40-68 20-6 227 16 271 12 25 30 50 56 61 67 31 271 28 227-90z"  fill="#fff500" /></svg>