<svg width="1200" height="675" viewBox="-500 -500 1200 675" xmlns="http://www.w3.org/2000/svg"><path d="M-500-500h1200v675h-1200z" fill="#000"/><path d="M-251-358c-41-30-168 77-197 100-7 6-99 72-84 83 22 17 73 8 97 5 77-9 208-23 211-123 1-25-6-50-27-65z"  fill="#c2e1ff" /><path d="M44-328c-117 1-183 152-227 239-16 31-60 104-15 133 34 22 103-73 120-94 45-54 152-174 158-245 2-23-14-33-36-33z"  fill="#fff" /><path d="M408-391c-31-41-75-86-131-83-82 5-214 144-182 186 20 27 72 34 102 40 39 9 80 15 120 12 100-7 160-63 91-155z"  fill="#c2e1ff" /><path d="M441-164c-46-53-121 117-132 141-20 48-50 167-11 213 21 25 87-70 95-83 37-57 100-212 48-271z"  fill="#005bbb" /></svg>