<svg width="1200" height="675" viewBox="-500 -500 1200 675" xmlns="http://www.w3.org/2000/svg"><path d="M-500-500h1200v675h-1200z" fill="#000"/><path d="M-151 125c-10-84-88-262-162-301-126-65-245 77-216 200 19 81 114 108 186 120 24 4 199 41 192-19z"  fill="#fff500" /><path d="M89-150c-33-65-93-176-166-197-162-46-208 142-144 239 65 98 354 43 310-42z"  fill="#fff" /><path d="M228-205c-77-134-119-200-126-199-14 2-17 54-18 62-11 82-34 223 13 296 35 54 148 56 170-11 17-49-16-108-39-148z"  fill="#fff500" /></svg>