<svg width="1200" height="675" viewBox="-500 -500 1200 675" xmlns="http://www.w3.org/2000/svg"><path d="M-500-500h1200v675h-1200z" fill="#000"/><path d="M-269-291c-50-2-97 14-131 51-59 65-130 306 17 311 112 4 181-88 212-185 30-94 15-173-98-177z"  fill="#F6C8AC" /><path d="M192-155c-2-26-3-126-41-133-34-7-118 94-137 116-32 37-153 164-149 215 2 27 33 39 56 45 89 24 124 7 193-42 18-13 40-25 54-42 34-41 28-110 24-159z"  fill="#FFFFFF" /><path d="M489-153c-29-34-75-102-125-99-76 5-199 199-204 270-1 20 7 38 20 53 70 78 171-17 226-69 28-26 123-107 83-155z"  fill="#EF8F88" /></svg>