<svg width="1200" height="675" viewBox="-500 -500 1200 675" xmlns="http://www.w3.org/2000/svg"><path d="M-500-500h1200v675h-1200z" fill="#000"/><path d="M-234-90c-15-34-90-207-134-210-43-3-80 135-88 163-6 21-57 175-49 191 13 26 90 21 112 21 128 5 227-14 159-165z"  fill="#fff500" /><path d="M139-116c-1-133-132-103-218-73-49 17-143 49-143 115 0 60 77 77 123 83 101 14 238 7 238-125z"  fill="#005bbb" /><path d="M240-516c-115-5-170 86-184 190-5 36-6 83 23 110 22 20 52 21 80 22 43 2 103 3 138-26 31-26 44-72 52-111 24-101 12-179-109-185z"  fill="#c2e1ff" /><path d="M423-150c-22-50-178-71-245 18-47 63-36 124-25 196 3 18 2 44 10 60 7 14 24 7 35 2 65-36 127-117 172-174 16-20 65-72 53-102z"  fill="#fff500" /></svg>