<svg width="1200" height="675" viewBox="-500 -500 1200 675" xmlns="http://www.w3.org/2000/svg"><path d="M-500-500h1200v675h-1200z" fill="#000"/><path d="M-349-367c-38 16-73 42-90 80-25 56-12 162 46 195 20 11 43 9 66 7 17-2 36-3 52-11 25-13 25-92 27-116 8-81 25-209-101-155z"  fill="#fff500" /><path d="M-41-234c-136-34-155 69-140 178 8 60 28 143 95 162 130 35 213-144 172-248-21-53-75-80-127-92z"  fill="#c2e1ff" /><path d="M361-278c-9-31-25-77-62-84-47-9-198 104-220 142-10 17-13 37-8 57 16 66 119 166 193 138 88-34 121-171 97-253z"  fill="#fff500" /><path d="M703-212c-16-92-37-123-103-184-17-16-35-38-60-36-57 4-91 83-112 125-23 45-63 108-50 160 24 92 349 71 325-65z"  fill="#c2e1ff" /></svg>