<svg width="1200" height="675" viewBox="-500 -500 1200 675" xmlns="http://www.w3.org/2000/svg"><path d="M-500-500h1200v675h-1200z" fill="#000"/><path d="M-124-272c-13-118-123-167-226-185-78-14-157-18-183 70-7 24-12 49-9 75 7 62 90 175 144 199 41 18 87 17 130 9 93-15 155-69 144-168z"  fill="#005bbb" /><path d="M58-343c-41-13-86-15-124 8-28 16-139 145-146 177-3 14 9 22 20 26 68 26 236 14 296-26 82-55 43-156-46-185z"  fill="#005bbb" /><path d="M465-302c-15-30-142-20-154 18-15 45 34 142 52 182 7 15 39 103 68 89 9-4 13-17 16-25 16-52 14-112 18-167 1-21 10-78 0-97z"  fill="#c2e1ff" /></svg>