<svg width="1200" height="675" viewBox="-500 -500 1200 675" xmlns="http://www.w3.org/2000/svg"><path d="M-500-500h1200v675h-1200z" fill="#000"/><path d="M-134-528c-32-37-68-20-112-13-125 22-222 45-264 181-6 20-16 53 0 71 32 34 184-59 217-80 23-14 185-128 159-159z"  fill="#c2e1ff" /><path d="M-129-282c-46-3-130-8-152 46-34 82 109 275 209 282 101 7 145-185 106-254-32-56-104-70-163-74z"  fill="#fff" /><path d="M234-368c-43-7-138-23-177 4-39 28-41 142 17 148 52 5 295-130 160-152z"  fill="#c2e1ff" /><path d="M586-336c-12-12-44-14-58-18-29-7-61-16-87 5-31 24-60 161-54 201 2 15 10 28 20 39 13 14 31 23 48 31 91 39 108-113 119-168 2-8 15-87 12-90z"  fill="#fff" /></svg>