<svg width="1200" height="675" viewBox="-500 -500 1200 675" xmlns="http://www.w3.org/2000/svg"><path d="M-500-500h1200v675h-1200z" fill="#000"/><path d="M-180-141c-18-64-73-84-134-89-20-2-47-6-65 4-26 14-57 65-75 88-22 29-54 64-43 103 10 36 52 55 84 66 43 16 92 26 136 12 70-23 117-113 97-184z"  fill="#005bbb" /><path d="M27-184c-52-17-119-28-164 11-51 45-91 282-25 304 55 18 157-66 198-97 31-24 115-84 119-123 6-55-91-83-128-95z"  fill="#005bbb" /><path d="M364-183c-136-38-160 59-151 172 5 60 19 142 85 163 110 34 248-128 216-234-19-61-96-86-150-101z"  fill="#c2e1ff" /><path d="M272-319c-33-25-79-58-124-48-29 6-107 95-70 125 39 32 140 35 187 39 18 2 101 16 113-8 9-19-92-97-106-108z"  fill="#c2e1ff" /><path d="M573-379c-28-31-86-101-136-82-79 29-117 306-65 364 57 63 263-29 284-105 18-64-44-134-83-177z"  fill="#005bbb" /></svg>