<svg width="1200" height="675" viewBox="-500 -500 1200 675" xmlns="http://www.w3.org/2000/svg"><path d="M-500-500h1200v675h-1200z" fill="#000"/><path d="M-274-117c-48-86-97 4-133 52-14 18-88 113-77 137 8 17 52 18 67 19 34 4 73 9 103-11 56-34 71-143 40-197z"  fill="#c2e1ff" /><path d="M178 28c-5-61-65-143-96-193-11-18-48-86-69-94-30-10-72 19-96 32-25 13-50 28-75 42-39 23-35 23-40 71-2 19-7 41-3 61 15 72 130 87 188 94 19 3 195 34 191-13z"  fill="#fff" /><path d="M339-225c-48 3-147 4-184 40-58 55-24 165 62 153 62-8 178-104 190-165 6-33-50-28-68-27z"  fill="#fff" /></svg>