<svg width="1200" height="675" viewBox="-500 -500 1200 675" xmlns="http://www.w3.org/2000/svg"><path d="M-500-500h1200v675h-1200z" fill="#000"/><path d="M-161-50c-17-55-50-175-127-172-16 1-32 6-44 18-57 52-40 195-19 260 20 63 58 133 136 110 24-7 45-20 57-42 30-51 13-122-3-174z"  fill="#c2e1ff" /><path d="M87-235c-42-8-105-20-142 9-38 30-49 103-60 145-20 80-60 226 58 248 60 11 126-5 168-51 67-74 116-326-24-351z"  fill="#005bbb" /><path d="M-6-330c-1-16-2-93-16-102-26-18-115 16-140 25-68 23-229 68-226 164 1 23 65 40 81 47 54 22 113 50 172 42 77-9 131-103 129-176z"  fill="#c2e1ff" /><path d="M348-208c-51-16-123-33-169 5-21 18-30 44-35 70-19 97 43 177 134 207 85 28 216 21 233-87 4-26 3-54-6-78-25-64-96-97-157-117z"  fill="#005bbb" /></svg>