<svg width="1200" height="675" viewBox="-500 -500 1200 675" xmlns="http://www.w3.org/2000/svg"><path d="M-500-500h1200v675h-1200z" fill="#000"/><path d="M-265-346c-60-20-136-25-157 48-7 26-6 53 5 78 30 64 111 105 175 125 122 39 137-85 90-167-24-43-68-69-113-84z"  fill="#fff" /><path d="M79-182c-17-27-80-14-105-11-72 9-199 40-145 139 29 53 170 161 230 129 50-26 40-224 20-257z"  fill="#c2e1ff" /><path d="M35-476c-31-23-116-79-147-25-29 51 30 212 74 242 62 42 124-87 123-134-1-35-23-63-50-83z"  fill="#005bbb" /><path d="M310-406c-70 17-162 45-198 113-57 106 50 211 158 181 82-23 218-209 182-280-23-46-106-24-142-14z"  fill="#c2e1ff" /><path d="M536-42c-37-22-95-52-139-29-66 36-55 168 15 210 28 17 118 55 153 46 21-6 40-33 53-49 12-15 27-30 31-49 13-59-74-106-113-129z"  fill="#fff" /></svg>