<svg width="1200" height="675" viewBox="-500 -500 1200 675" xmlns="http://www.w3.org/2000/svg"><path d="M-500-500h1200v675h-1200z" fill="#000"/><path d="M-263-302c-30-48-70-113-129-128-26-7-52-2-76 9-75 33-70 112-31 174 38 60 124 122 198 117 99-8 73-116 38-172z"  fill="#fff" /><path d="M41-118c-33-29-140-86-179-65-68 35-87 260-28 308 26 21 60 16 90 11 36-6 78-16 105-42 41-40 58-171 12-211z"  fill="#fff500" /><path d="M309-120c-3-71-55-247-107-289-69-56-241-25-231 85 8 95 82 201 160 252 73 47 180 5 178-48z"  fill="#fff500" /><path d="M620-175c-13-55-36-123-88-152-60-32-316-28-274 130 14 52 46 98 95 122 79 38 300 37 267-100z"  fill="#c2e1ff" /></svg>