<svg width="1200" height="675" viewBox="-500 -500 1200 675" xmlns="http://www.w3.org/2000/svg"><path d="M-500-500h1200v675h-1200z" fill="#000"/><path d="M-125-531c-15-18-61-6-80-3-60 10-156 24-181 90-27 69 44 213 89 262 97 108 167-186 174-243 4-26 17-83-2-106z"  fill="#005bbb" /><path d="M39-160c-6-61-20-141-78-175-44-26-101-12-149-6-8 1-69 3-67 16 5 57 114 182 153 220 26 26 68 80 109 80 50 0 35-108 32-135z"  fill="#c2e1ff" /><path d="M239-365c-74 14-131 60-147 136-6 27-5 56 8 81 12 22 31 39 53 51 34 18 161 57 201 47 16-4 8-89 7-103 1-92 18-239-122-212z"  fill="#005bbb" /></svg>