<svg width="1200" height="675" viewBox="-500 -500 1200 675" xmlns="http://www.w3.org/2000/svg"><path d="M-500-500h1200v675h-1200z" fill="#000"/><path d="M-316-408c-45-1-117-14-157 15-40 28-80 126-49 167 28 38 103 48 145 46 116-9 182-224 61-228z"  fill="#fff500" /><path d="M185-256c-26-174-126-132-235-53-47 34-130 93-120 161 13 90 268 106 321 64 49-39 42-118 34-172z"  fill="#fff500" /><path d="M375-197c-73-24-164-67-242-37-58 22-38 132 20 149 47 14 254-29 297-61 25-19-67-48-75-51z"  fill="#fff" /><path d="M570-127c-46 16-153 49-178 94-29 49-5 171 46 198 40 21 95 9 135-7 83-33 122-118 136-202 5-26 13-61-4-84-29-38-100-12-135 1z"  fill="#fff" /></svg>