<svg width="1000" height="1000" viewBox="0 0 1000 1000" xmlns="http://www.w3.org/2000/svg"><path d="M0 0h1000v1000h-1000z" fill="#000"/><style>.sparkles path{stroke-linecap:round}</style><g class="sparkles"><path d="M487 514l-13 13" stroke-width="1.0" stroke="#fcbf490"/><path d="M468 490l-33-10" stroke-width="1.1" stroke="#eae2b72"/><path d="M518 535l18 35" stroke-width="1.1" stroke="#fcbf493"/><path d="M490 542l-10 42" stroke-width="1.1" stroke="#eae2b73"/><path d="M470 457l-30-43" stroke-width="1.2" stroke="#f77f005"/><path d="M546 465l46-35" stroke-width="1.3" stroke="#eae2b77"/><path d="M540 457l41-44" stroke-width="1.3" stroke="#eae2b77"/><path d="M440 501l-59 1" stroke-width="1.3" stroke="#fcbf497"/><path d="M452 566l-48 67" stroke-width="1.5" stroke="#d62828E"/><path d="M426 458l-75-41" stroke-width="1.6" stroke="#eae2b710"/><path d="M445 565l-56 64" stroke-width="1.6" stroke="#eae2b710"/><path d="M482 594l-18 95" stroke-width="1.7" stroke="#f77f0014"/><path d="M408 528l-92 28" stroke-width="1.7" stroke="#d6282814"/><path d="M437 573l-63 74" stroke-width="1.7" stroke="#f77f0015"/><path d="M402 516l-99 16" stroke-width="1.8" stroke="#f77f0016"/><path d="M475 399l-25-101" stroke-width="1.9" stroke="#eae2b719"/><path d="M527 603l26 102" stroke-width="1.9" stroke="#0030491A"/><path d="M590 442l89-57" stroke-width="1.9" stroke="#eae2b71A"/><path d="M439 587l-61 87" stroke-width="1.9" stroke="#fcbf491A"/><path d="M474 396l-27-104" stroke-width="1.9" stroke="#fcbf491A"/><path d="M481 393l-19-106" stroke-width="2.0" stroke="#eae2b71B"/><path d="M391 498l-108-2" stroke-width="2.0" stroke="#fcbf491B"/><path d="M395 470l-106-30" stroke-width="2.0" stroke="#fcbf491C"/><path d="M608 479l108-20" stroke-width="2.0" stroke="#0030491C"/><path d="M402 551l-97 50" stroke-width="2.0" stroke="#fcbf491C"/><path d="M568 597l68 97" stroke-width="2.2" stroke="#00304921"/><path d="M552 609l52 109" stroke-width="2.2" stroke="#fcbf4923"/><path d="M580 406l81-93" stroke-width="2.3" stroke="#00304925"/><path d="M546 384l47-116" stroke-width="2.3" stroke="#f77f0026"/><path d="M504 625l4 125" stroke-width="2.4" stroke="#f77f0026"/><path d="M462 381l-39-120" stroke-width="2.4" stroke="#f77f0026"/><path d="M526 626l26 127" stroke-width="2.5" stroke="#00304929"/><path d="M408 594l-92 94" stroke-width="2.5" stroke="#fcbf492B"/><path d="M492 368l-9-132" stroke-width="2.6" stroke="#eae2b72C"/><path d="M558 621l59 121" stroke-width="2.6" stroke="#d628282D"/><path d="M445 377l-55-123" stroke-width="2.6" stroke="#0030492E"/><path d="M421 388l-78-111" stroke-width="2.7" stroke="#eae2b72F"/><path d="M627 447l126-53" stroke-width="2.7" stroke="#f77f0030"/><path d="M401 403l-99-96" stroke-width="2.7" stroke="#fcbf4931"/><path d="M363 523l-137 22" stroke-width="2.8" stroke="#00304932"/><path d="M404 602l-97 102" stroke-width="2.8" stroke="#d6282833"/><path d="M364 546l-136 46" stroke-width="2.9" stroke="#d6282836"/><path d="M407 612l-93 112" stroke-width="3.0" stroke="#eae2b738"/><path d="M572 372l71-128" stroke-width="3.1" stroke="#d628283A"/><path d="M359 540l-142 40" stroke-width="3.1" stroke="#d628283A"/><path d="M640 452l139-49" stroke-width="3.1" stroke="#d628283B"/><path d="M525 649l24 148" stroke-width="3.2" stroke="#eae2b73E"/><path d="M653 500l154 0" stroke-width="3.3" stroke="#eae2b742"/><path d="M397 385l-104-115" stroke-width="3.4" stroke="#fcbf4943"/><path d="M648 548l148 47" stroke-width="3.4" stroke="#f77f0044"/><path d="M561 356l60-143" stroke-width="3.5" stroke="#00304945"/><path d="M351 547l-149 47" stroke-width="3.5" stroke="#fcbf4945"/><path d="M607 386l108-114" stroke-width="3.5" stroke="#fcbf4946"/><path d="M393 385l-108-116" stroke-width="3.5" stroke="#fcbf4947"/><path d="M377 599l-123 99" stroke-width="3.5" stroke="#fcbf4948"/><path d="M352 559l-148 60" stroke-width="3.6" stroke="#fcbf494A"/><path d="M351 439l-148-62" stroke-width="3.7" stroke="#f77f004D"/><path d="M612 384l112-115" stroke-width="3.7" stroke="#0030494D"/><path d="M437 648l-62 149" stroke-width="3.7" stroke="#0030494D"/><path d="M402 628l-97 129" stroke-width="3.7" stroke="#f77f004D"/><path d="M572 354l72-146" stroke-width="3.8" stroke="#fcbf4950"/><path d="M340 539l-160 39" stroke-width="4.0" stroke="#d6282854"/><path d="M424 647l-76 147" stroke-width="4.0" stroke="#00304956"/><path d="M597 635l98 135" stroke-width="4.1" stroke="#f77f0058"/><path d="M509 666l9 166" stroke-width="4.1" stroke="#f77f0058"/><path d="M666 494l167-5" stroke-width="4.1" stroke="#f77f0058"/><path d="M623 388l123-112" stroke-width="4.1" stroke="#eae2b758"/><path d="M458 661l-43 161" stroke-width="4.1" stroke="#00304958"/><path d="M408 641l-92 142" stroke-width="4.3" stroke="#fcbf495D"/><path d="M542 664l42 164" stroke-width="4.3" stroke="#d628285E"/><path d="M443 340l-56-159" stroke-width="4.4" stroke="#0030495F"/><path d="M348 578l-151 78" stroke-width="4.5" stroke="#eae2b763"/><path d="M542 665l43 166" stroke-width="4.5" stroke="#f77f0063"/><path d="M659 436l158-63" stroke-width="4.5" stroke="#eae2b764"/><path d="M506 328l6-172" stroke-width="4.7" stroke="#00304968"/><path d="M458 667l-41 168" stroke-width="4.7" stroke="#00304969"/><path d="M598 358l98-142" stroke-width="4.7" stroke="#fcbf4969"/><path d="M364 606l-136 106" stroke-width="4.8" stroke="#eae2b76A"/><path d="M329 478l-172-23" stroke-width="4.8" stroke="#eae2b76B"/><path d="M392 365l-108-135" stroke-width="4.8" stroke="#d628286C"/><path d="M400 641l-101 142" stroke-width="4.9" stroke="#0030496D"/><path d="M433 340l-66-161" stroke-width="4.9" stroke="#fcbf496F"/><path d="M480 673l-20 173" stroke-width="5.0" stroke="#eae2b771"/><path d="M655 579l155 80" stroke-width="5.1" stroke="#f77f0072"/><path d="M582 346l82-154" stroke-width="5.1" stroke="#f77f0074"/><path d="M519 327l20-173" stroke-width="5.1" stroke="#fcbf4974"/><path d="M440 336l-59-164" stroke-width="5.2" stroke="#d6282876"/><path d="M345 581l-155 80" stroke-width="5.2" stroke="#f77f0077"/><path d="M424 343l-76-158" stroke-width="5.3" stroke="#d6282879"/><path d="M561 664l62 163" stroke-width="5.3" stroke="#f77f007A"/><path d="M656 579l157 78" stroke-width="5.4" stroke="#fcbf497B"/><path d="M342 425l-158-75" stroke-width="5.4" stroke="#d628287B"/><path d="M675 492l175-8" stroke-width="5.4" stroke="#d628287C"/><path d="M457 330l-42-169" stroke-width="5.4" stroke="#fcbf497C"/><path d="M385 368l-115-132" stroke-width="5.4" stroke="#fcbf497C"/><path d="M516 326l16-174" stroke-width="5.4" stroke="#f77f007D"/><path d="M442 665l-58 165" stroke-width="5.5" stroke="#fcbf497F"/><path d="M515 674l15 175" stroke-width="5.5" stroke="#d6282880"/><path d="M349 587l-152 88" stroke-width="5.6" stroke="#fcbf4983"/><path d="M536 329l36-171" stroke-width="5.7" stroke="#d6282885"/><path d="M329 466l-172-34" stroke-width="5.8" stroke="#fcbf4987"/><path d="M441 664l-59 164" stroke-width="5.8" stroke="#f77f0088"/><path d="M475 673l-24 172" stroke-width="5.9" stroke="#f77f0089"/><path d="M618 372l118-129" stroke-width="5.9" stroke="#eae2b78B"/><path d="M347 583l-153 82" stroke-width="6.0" stroke="#0030498E"/><path d="M372 382l-127-118" stroke-width="6.0" stroke="#eae2b78E"/><path d="M668 455l167-44" stroke-width="6.1" stroke="#0030498F"/><path d="M580 654l81 153" stroke-width="6.1" stroke="#eae2b791"/><path d="M665 446l164-53" stroke-width="6.2" stroke="#f77f0092"/><path d="M625 381l125-118" stroke-width="6.3" stroke="#00304994"/><path d="M438 660l-63 160" stroke-width="6.3" stroke="#fcbf4997"/><path d="M561 340l60-160" stroke-width="6.5" stroke="#0030499A"/><path d="M616 625l117 125" stroke-width="6.5" stroke="#d628289B"/><path d="M429 655l-72 155" stroke-width="6.5" stroke="#eae2b79B"/><path d="M605 634l105 135" stroke-width="6.5" stroke="#0030499B"/><path d="M609 371l109-130" stroke-width="6.7" stroke="#003049A0"/><path d="M550 661l49 162" stroke-width="6.7" stroke="#eae2b7A0"/><path d="M611 627l110 126" stroke-width="6.8" stroke="#fcbf49A3"/><path d="M348 571l-152 71" stroke-width="6.8" stroke="#eae2b7A3"/><path d="M550 341l50-159" stroke-width="6.9" stroke="#fcbf49A6"/><path d="M383 617l-117 116" stroke-width="7.0" stroke="#003049A9"/><path d="M365 593l-136 93" stroke-width="7.0" stroke="#eae2b7AB"/><path d="M664 501l164 1" stroke-width="7.1" stroke="#003049AB"/><path d="M630 598l131 99" stroke-width="7.1" stroke="#d62828AD"/><path d="M612 617l113 118" stroke-width="7.2" stroke="#fcbf49AE"/><path d="M598 628l99 129" stroke-width="7.2" stroke="#d62828B0"/><path d="M436 352l-65-148" stroke-width="7.2" stroke="#003049B0"/><path d="M578 642l77 141" stroke-width="7.2" stroke="#d62828B0"/><path d="M415 637l-85 137" stroke-width="7.2" stroke="#f77f00B0"/><path d="M431 646l-69 145" stroke-width="7.3" stroke="#f77f00B1"/><path d="M653 457l153-44" stroke-width="7.4" stroke="#003049B4"/><path d="M508 341l9-159" stroke-width="7.4" stroke="#fcbf49B4"/><path d="M377 399l-122-102" stroke-width="7.4" stroke="#003049B4"/><path d="M651 454l150-46" stroke-width="7.5" stroke="#f77f00B7"/><path d="M605 617l105 117" stroke-width="7.5" stroke="#eae2b7B7"/><path d="M362 429l-138-71" stroke-width="7.6" stroke="#eae2b7BA"/><path d="M369 417l-130-84" stroke-width="7.6" stroke="#f77f00BA"/><path d="M604 387l104-112" stroke-width="7.7" stroke="#d62828BC"/><path d="M539 648l39 148" stroke-width="7.7" stroke="#d62828BD"/><path d="M418 629l-83 128" stroke-width="7.7" stroke="#d62828BD"/><path d="M353 538l-147 39" stroke-width="7.7" stroke="#003049BE"/><path d="M636 564l137 63" stroke-width="7.8" stroke="#f77f00C0"/><path d="M509 351l8-149" stroke-width="7.9" stroke="#eae2b7C2"/><path d="M643 542l143 41" stroke-width="7.9" stroke="#fcbf49C2"/><path d="M375 579l-126 80" stroke-width="7.9" stroke="#d62828C3"/><path d="M631 569l131 70" stroke-width="7.9" stroke="#eae2b7C3"/><path d="M416 381l-84-119" stroke-width="8.0" stroke="#d62828C6"/><path d="M637 451l136-48" stroke-width="8.0" stroke="#eae2b7C6"/><path d="M522 359l22-142" stroke-width="8.1" stroke="#d62828C8"/><path d="M375 569l-125 69" stroke-width="8.1" stroke="#f77f00C9"/><path d="M378 563l-123 62" stroke-width="8.3" stroke="#fcbf49CE"/><path d="M464 631l-37 131" stroke-width="8.3" stroke="#fcbf49CF"/><path d="M498 367l-3-133" stroke-width="8.4" stroke="#003049D2"/><path d="M629 478l128-23" stroke-width="8.5" stroke="#f77f00D4"/><path d="M561 615l62 115" stroke-width="8.5" stroke="#fcbf49D4"/><path d="M511 375l10-125" stroke-width="8.6" stroke="#d62828D8"/><path d="M420 404l-80-95" stroke-width="8.7" stroke="#fcbf49D9"/><path d="M408 422l-93-78" stroke-width="8.8" stroke="#d62828DB"/><path d="M435 398l-64-102" stroke-width="8.8" stroke="#f77f00DB"/><path d="M466 609l-34 109" stroke-width="8.9" stroke="#f77f00E0"/><path d="M392 493l-107-6" stroke-width="9.0" stroke="#fcbf49E3"/><path d="M424 424l-75-77" stroke-width="9.1" stroke="#d62828E4"/><path d="M591 551l92 50" stroke-width="9.1" stroke="#eae2b7E5"/><path d="M441 585l-59 84" stroke-width="9.1" stroke="#fcbf49E6"/><path d="M470 406l-29-94" stroke-width="9.2" stroke="#003049E8"/><path d="M589 468l88-32" stroke-width="9.3" stroke="#003049EA"/><path d="M417 457l-83-43" stroke-width="9.3" stroke="#d62828EB"/><path d="M488 408l-11-93" stroke-width="9.3" stroke="#003049EB"/><path d="M505 590l5 91" stroke-width="9.4" stroke="#003049EC"/><path d="M434 559l-66 60" stroke-width="9.4" stroke="#f77f00ED"/><path d="M587 512l87 11" stroke-width="9.4" stroke="#003049ED"/><path d="M455 433l-46-67" stroke-width="9.5" stroke="#eae2b7F0"/><path d="M467 572l-32 72" stroke-width="9.5" stroke="#eae2b7F1"/><path d="M516 426l16-73" stroke-width="9.6" stroke="#fcbf49F2"/><path d="M433 482l-68-17" stroke-width="9.6" stroke="#d62828F4"/><path d="M504 437l3-63" stroke-width="9.7" stroke="#fcbf49F6"/><path d="M447 486l-53-13" stroke-width="9.8" stroke="#fcbf49F8"/><path d="M551 495l50-6" stroke-width="9.8" stroke="#003049F9"/><path d="M479 454l-21-47" stroke-width="9.8" stroke="#f77f00F9"/><path d="M514 474l15-26" stroke-width="9.9" stroke="#d62828FD"/><path d="M479 509l-21 9" stroke-width="10.0" stroke="#fcbf49FD"/></g></svg>