<svg width="1200" height="675" viewBox="-500 -500 1200 675" xmlns="http://www.w3.org/2000/svg"><path d="M-500-500h1200v675h-1200z" fill="#000"/><style>.sparkles path{stroke-linecap:round}</style><g class="sparkles"><path d="M97-156l-4 7" stroke-width="1.0" stroke="#c2e1ff0"/><path d="M99-174l0-12" stroke-width="1.0" stroke="#005bbb0"/><path d="M120-173l19-10" stroke-width="1.1" stroke="#c2e1ff2"/><path d="M123-179l24-17" stroke-width="1.1" stroke="#fff3"/><path d="M90-192l-10-29" stroke-width="1.2" stroke="#fff4"/><path d="M84-190l-15-27" stroke-width="1.2" stroke="#c2e1ff4"/><path d="M65-157l-34 6" stroke-width="1.2" stroke="#fff5"/><path d="M80-124l-21 39" stroke-width="1.3" stroke="#005bbb9"/><path d="M57-142l-43 21" stroke-width="1.4" stroke="#fff500A"/><path d="M136-194l36-32" stroke-width="1.4" stroke="#fffB"/><path d="M70-202l-31-40" stroke-width="1.4" stroke="#005bbbB"/><path d="M101-110l0 52" stroke-width="1.5" stroke="#fffD"/><path d="M154-161l54 1" stroke-width="1.5" stroke="#fff500E"/><path d="M109-108l9 54" stroke-width="1.5" stroke="#005bbbE"/><path d="M96-221l-4-59" stroke-width="1.6" stroke="#fff10"/><path d="M90-103l-10 59" stroke-width="1.6" stroke="#c2e1ff11"/><path d="M79-219l-21-56" stroke-width="1.6" stroke="#fff11"/><path d="M100-224l1-61" stroke-width="1.7" stroke="#fff12"/><path d="M93-101l-7 62" stroke-width="1.7" stroke="#fff50012"/><path d="M131-217l30-55" stroke-width="1.7" stroke="#c2e1ff13"/><path d="M154-128l55 34" stroke-width="1.7" stroke="#fff50014"/><path d="M168-183l68-21" stroke-width="1.9" stroke="#c2e1ff19"/><path d="M29-170l-71-8" stroke-width="1.9" stroke="#fff19"/><path d="M173-146l73 16" stroke-width="2.0" stroke="#fff1C"/><path d="M47-216l-53-53" stroke-width="2.0" stroke="#fff1D"/><path d="M26-144l-75 19" stroke-width="2.1" stroke="#c2e1ff1E"/><path d="M175-184l75-22" stroke-width="2.1" stroke="#fff5001F"/><path d="M115-241l15-79" stroke-width="2.2" stroke="#fff22"/><path d="M82-242l-19-80" stroke-width="2.3" stroke="#fff23"/><path d="M63-89l-36 74" stroke-width="2.3" stroke="#c2e1ff23"/><path d="M93-245l-6-83" stroke-width="2.3" stroke="#fff24"/><path d="M174-203l75-40" stroke-width="2.4" stroke="#c2e1ff26"/><path d="M16-157l-85 5" stroke-width="2.4" stroke="#fff26"/><path d="M137-85l36 78" stroke-width="2.4" stroke="#c2e1ff27"/><path d="M50-233l-49-71" stroke-width="2.4" stroke="#fff28"/><path d="M186-177l85-14" stroke-width="2.4" stroke="#005bbb29"/><path d="M182-127l82 35" stroke-width="2.5" stroke="#005bbb2B"/><path d="M103-73l4 90" stroke-width="2.6" stroke="#c2e1ff2D"/><path d="M9-168l-91-6" stroke-width="2.6" stroke="#fff5002E"/><path d="M21-117l-79 46" stroke-width="2.6" stroke="#005bbb2E"/><path d="M65-247l-35-84" stroke-width="2.6" stroke="#fff5002E"/><path d="M119-252l20-90" stroke-width="2.7" stroke="#fff5002F"/><path d="M14-199l-85-36" stroke-width="2.7" stroke="#fff50030"/><path d="M88-70l-12 92" stroke-width="2.7" stroke="#c2e1ff30"/><path d="M176-218l77-56" stroke-width="2.8" stroke="#fff33"/><path d="M196-165l95-3" stroke-width="2.9" stroke="#fff34"/><path d="M156-84l57 79" stroke-width="2.9" stroke="#fff50036"/><path d="M163-237l62-74" stroke-width="2.9" stroke="#c2e1ff36"/><path d="M20-107l-81 55" stroke-width="3.0" stroke="#fff37"/><path d="M62-69l-38 93" stroke-width="3.1" stroke="#fff5003C"/><path d="M4-194l-95-32" stroke-width="3.2" stroke="#c2e1ff3D"/><path d="M12-110l-88 53" stroke-width="3.3" stroke="#fff50040"/><path d="M-3-175l-104-12" stroke-width="3.4" stroke="#c2e1ff43"/><path d="M-2-140l-102 23" stroke-width="3.4" stroke="#005bbb43"/><path d="M-2-187l-102-24" stroke-width="3.4" stroke="#fff45"/><path d="M-5-158l-106 5" stroke-width="3.5" stroke="#fff50046"/><path d="M7-113l-93 50" stroke-width="3.5" stroke="#005bbb46"/><path d="M201-132l102 30" stroke-width="3.5" stroke="#c2e1ff47"/><path d="M-6-165l-107-2" stroke-width="3.6" stroke="#005bbb48"/><path d="M190-220l90-58" stroke-width="3.6" stroke="#fff49"/><path d="M191-106l91 57" stroke-width="3.6" stroke="#fff50049"/><path d="M205-187l105-25" stroke-width="3.7" stroke="#fff4B"/><path d="M208-158l108 4" stroke-width="3.7" stroke="#c2e1ff4B"/><path d="M61-263l-38-101" stroke-width="3.7" stroke="#fff5004B"/><path d="M109-55l9 108" stroke-width="3.7" stroke="#005bbb4C"/><path d="M16-231l-84-68" stroke-width="3.7" stroke="#fff4C"/><path d="M100-271l0-108" stroke-width="3.7" stroke="#fff5004C"/><path d="M85-270l-14-108" stroke-width="3.8" stroke="#fff5004E"/><path d="M180-88l80 75" stroke-width="3.8" stroke="#fff5004F"/><path d="M202-203l103-41" stroke-width="3.9" stroke="#fff51"/><path d="M211-162l110 0" stroke-width="3.9" stroke="#c2e1ff52"/><path d="M203-203l103-41" stroke-width="4.0" stroke="#fff53"/><path d="M22-83l-77 80" stroke-width="4.0" stroke="#c2e1ff54"/><path d="M-7-134l-108 29" stroke-width="4.0" stroke="#005bbb54"/><path d="M207-130l106 33" stroke-width="4.0" stroke="#005bbb55"/><path d="M71-54l-30 108" stroke-width="4.1" stroke="#fff57"/><path d="M6-228l-94-65" stroke-width="4.4" stroke="#005bbb5F"/><path d="M96-47l-4 115" stroke-width="4.5" stroke="#fff63"/><path d="M43-263l-56-100" stroke-width="4.5" stroke="#fff63"/><path d="M26-74l-74 89" stroke-width="4.5" stroke="#fff64"/><path d="M157-263l56-101" stroke-width="4.6" stroke="#fff50064"/><path d="M-3-110l-103 53" stroke-width="4.6" stroke="#fff50066"/><path d="M24-250l-77-87" stroke-width="4.6" stroke="#fff67"/><path d="M84-47l-15 115" stroke-width="4.7" stroke="#c2e1ff68"/><path d="M145-270l46-107" stroke-width="4.7" stroke="#fff68"/><path d="M0-222l-100-59" stroke-width="4.7" stroke="#fff68"/><path d="M149-57l49 106" stroke-width="4.8" stroke="#005bbb6A"/><path d="M101-46l1 117" stroke-width="4.8" stroke="#fff6A"/><path d="M71-49l-29 114" stroke-width="5.1" stroke="#fff73"/><path d="M195-232l95-70" stroke-width="5.1" stroke="#fff50074"/><path d="M208-115l107 47" stroke-width="5.1" stroke="#fff50075"/><path d="M108-280l8-118" stroke-width="5.2" stroke="#fff77"/><path d="M-12-198l-113-36" stroke-width="5.3" stroke="#c2e1ff7B"/><path d="M28-69l-71 94" stroke-width="5.4" stroke="#fff7B"/><path d="M54-271l-45-109" stroke-width="5.4" stroke="#c2e1ff7D"/><path d="M208-209l109-47" stroke-width="5.5" stroke="#c2e1ff7E"/><path d="M18-78l-82 85" stroke-width="5.7" stroke="#c2e1ff84"/><path d="M168-66l68 96" stroke-width="5.7" stroke="#fff85"/><path d="M12-241l-88-79" stroke-width="5.7" stroke="#005bbb86"/><path d="M216-185l115-23" stroke-width="5.8" stroke="#fff50088"/><path d="M195-93l94 70" stroke-width="5.9" stroke="#c2e1ff8A"/><path d="M39-62l-60 101" stroke-width="5.9" stroke="#005bbb8A"/><path d="M-17-167l-118-4" stroke-width="6.0" stroke="#fff5008D"/><path d="M197-228l97-66" stroke-width="6.0" stroke="#fff5008E"/><path d="M137-274l38-111" stroke-width="6.0" stroke="#fff5008E"/><path d="M55-271l-44-108" stroke-width="6.1" stroke="#fff5008F"/><path d="M183-245l84-82" stroke-width="6.1" stroke="#c2e1ff8F"/><path d="M149-268l49-106" stroke-width="6.2" stroke="#005bbb93"/><path d="M5-96l-96 67" stroke-width="6.3" stroke="#fff50094"/><path d="M178-249l77-86" stroke-width="6.4" stroke="#005bbb97"/><path d="M-10-128l-111 34" stroke-width="6.4" stroke="#c2e1ff99"/><path d="M135-53l36 110" stroke-width="6.4" stroke="#fff9A"/><path d="M84-277l-16-114" stroke-width="6.4" stroke="#fff9A"/><path d="M24-75l-75 87" stroke-width="6.5" stroke="#005bbb9A"/><path d="M-13-187l-112-25" stroke-width="6.5" stroke="#fff9B"/><path d="M83-49l-17 114" stroke-width="6.5" stroke="#005bbb9B"/><path d="M-14-150l-114 13" stroke-width="6.6" stroke="#fff5009E"/><path d="M33-70l-66 92" stroke-width="6.7" stroke="#fff500A1"/><path d="M8-229l-92-67" stroke-width="6.7" stroke="#005bbbA1"/><path d="M213-174l113-12" stroke-width="6.8" stroke="#fffA3"/><path d="M59-57l-41 105" stroke-width="6.8" stroke="#fff500A4"/><path d="M19-241l-80-79" stroke-width="6.8" stroke="#fffA5"/><path d="M-2-115l-102 47" stroke-width="6.9" stroke="#fff500A6"/><path d="M211-148l111 14" stroke-width="6.9" stroke="#005bbbA8"/><path d="M170-248l71-86" stroke-width="7.0" stroke="#005bbbAB"/><path d="M64-58l-37 105" stroke-width="7.1" stroke="#fffAB"/><path d="M56-264l-44-102" stroke-width="7.1" stroke="#fffAB"/><path d="M171-78l72 84" stroke-width="7.1" stroke="#c2e1ffAC"/><path d="M207-135l107 28" stroke-width="7.1" stroke="#fff500AC"/><path d="M77-270l-23-108" stroke-width="7.1" stroke="#c2e1ffAE"/><path d="M135-267l35-104" stroke-width="7.1" stroke="#005bbbAE"/><path d="M5-108l-95 54" stroke-width="7.2" stroke="#c2e1ffAF"/><path d="M209-167l109-5" stroke-width="7.2" stroke="#005bbbB0"/><path d="M82-270l-18-107" stroke-width="7.3" stroke="#fff500B1"/><path d="M-6-143l-107 20" stroke-width="7.3" stroke="#005bbbB2"/><path d="M202-199l101-36" stroke-width="7.3" stroke="#fffB3"/><path d="M94-56l-6 106" stroke-width="7.4" stroke="#005bbbB6"/><path d="M47-71l-53 92" stroke-width="7.5" stroke="#fff500B7"/><path d="M29-85l-71 78" stroke-width="7.5" stroke="#fff500B9"/><path d="M162-247l62-85" stroke-width="7.6" stroke="#005bbbB9"/><path d="M84-266l-16-104" stroke-width="7.6" stroke="#c2e1ffB9"/><path d="M50-71l-51 92" stroke-width="7.6" stroke="#c2e1ffBA"/><path d="M123-62l23 101" stroke-width="7.7" stroke="#c2e1ffBD"/><path d="M174-91l75 71" stroke-width="7.7" stroke="#fff500BD"/><path d="M33-86l-66 76" stroke-width="7.8" stroke="#fffC0"/><path d="M192-202l92-40" stroke-width="7.9" stroke="#fff500C2"/><path d="M191-204l90-42" stroke-width="7.9" stroke="#fffC3"/><path d="M178-223l78-61" stroke-width="8.0" stroke="#fffC5"/><path d="M48-79l-52 84" stroke-width="8.0" stroke="#fffC5"/><path d="M113-66l14 97" stroke-width="8.0" stroke="#c2e1ffC7"/><path d="M197-167l97-4" stroke-width="8.1" stroke="#fffC7"/><path d="M22-108l-79 55" stroke-width="8.2" stroke="#005bbbCA"/><path d="M74-254l-25-91" stroke-width="8.2" stroke="#fffCB"/><path d="M118-71l18 91" stroke-width="8.3" stroke="#fffCE"/><path d="M188-132l87 30" stroke-width="8.3" stroke="#005bbbCE"/><path d="M96-254l-4-91" stroke-width="8.4" stroke="#fff500D0"/><path d="M143-243l43-80" stroke-width="8.4" stroke="#fff500D0"/><path d="M39-98l-62 65" stroke-width="8.5" stroke="#c2e1ffD3"/><path d="M69-81l-31 81" stroke-width="8.5" stroke="#005bbbD5"/><path d="M82-247l-18-84" stroke-width="8.6" stroke="#005bbbD6"/><path d="M141-234l41-71" stroke-width="8.7" stroke="#c2e1ffDA"/><path d="M131-87l30 75" stroke-width="8.8" stroke="#fff500DC"/><path d="M75-235l-25-73" stroke-width="8.9" stroke="#fffE0"/><path d="M33-131l-66 31" stroke-width="9.0" stroke="#fffE3"/><path d="M27-169l-72-7" stroke-width="9.0" stroke="#fffE3"/><path d="M50-110l-49 53" stroke-width="9.1" stroke="#fff500E4"/><path d="M72-224l-28-61" stroke-width="9.2" stroke="#005bbbE8"/><path d="M135-107l35 56" stroke-width="9.2" stroke="#005bbbE9"/><path d="M50-123l-49 39" stroke-width="9.3" stroke="#c2e1ffEB"/><path d="M101-101l1 62" stroke-width="9.3" stroke="#005bbbEC"/><path d="M118-220l17-58" stroke-width="9.4" stroke="#005bbbED"/><path d="M137-119l38 44" stroke-width="9.4" stroke="#c2e1ffEE"/><path d="M113-112l13 51" stroke-width="9.5" stroke="#c2e1ffF1"/><path d="M151-170l50-7" stroke-width="9.6" stroke="#005bbbF2"/><path d="M56-179l-44-17" stroke-width="9.6" stroke="#fff500F4"/><path d="M102-204l2-42" stroke-width="9.7" stroke="#fffF6"/><path d="M68-152l-33 10" stroke-width="9.8" stroke="#fff500F9"/><path d="M88-186l-12-23" stroke-width="9.9" stroke="#c2e1ffFB"/><path d="M91-185l-10-22" stroke-width="9.9" stroke="#005bbbFC"/><path d="M114-178l14-15" stroke-width="9.9" stroke="#005bbbFC"/><path d="M112-155l12 7" stroke-width="10.0" stroke="#005bbbFE"/></g></svg>