<svg width="1200" height="675" viewBox="-500 -500 1200 675" xmlns="http://www.w3.org/2000/svg"><path d="M-500-500h1200v675h-1200z" fill="#000"/><style>.sparkles path{stroke-linecap:round}</style><g class="sparkles"><path d="M88-171l-13-9" stroke-width="1.0" stroke="#fff1"/><path d="M130-169l31-7" stroke-width="1.2" stroke="#c2e1ff4"/><path d="M106-118l5 44" stroke-width="1.3" stroke="#c2e1ff9"/><path d="M101-117l2 46" stroke-width="1.3" stroke="#fff5009"/><path d="M97-213l-3-50" stroke-width="1.4" stroke="#005bbbC"/><path d="M142-128l41 34" stroke-width="1.5" stroke="#005bbbD"/><path d="M122-212l22-49" stroke-width="1.5" stroke="#005bbbE"/><path d="M98-107l-3 55" stroke-width="1.5" stroke="#005bbbE"/><path d="M78-110l-21 52" stroke-width="1.5" stroke="#fffF"/><path d="M78-109l-22 53" stroke-width="1.6" stroke="#fff10"/><path d="M49-127l-51 35" stroke-width="1.7" stroke="#fff50013"/><path d="M159-186l59-24" stroke-width="1.7" stroke="#005bbb13"/><path d="M164-140l64 23" stroke-width="1.8" stroke="#005bbb17"/><path d="M121-98l20 65" stroke-width="1.8" stroke="#fff50017"/><path d="M167-144l68 18" stroke-width="1.9" stroke="#c2e1ff18"/><path d="M171-181l71-18" stroke-width="2.0" stroke="#c2e1ff1B"/><path d="M173-146l73 16" stroke-width="2.0" stroke="#fff1C"/><path d="M24-151l-77 12" stroke-width="2.1" stroke="#c2e1ff1E"/><path d="M174-191l75-29" stroke-width="2.2" stroke="#fff50021"/><path d="M173-130l73 33" stroke-width="2.2" stroke="#005bbb21"/><path d="M182-162l81 0" stroke-width="2.2" stroke="#c2e1ff23"/><path d="M147-235l48-73" stroke-width="2.4" stroke="#c2e1ff29"/><path d="M48-232l-52-70" stroke-width="2.5" stroke="#c2e1ff29"/><path d="M45-231l-56-68" stroke-width="2.5" stroke="#fff5002A"/><path d="M12-141l-88 21" stroke-width="2.6" stroke="#fff5002D"/><path d="M166-225l66-63" stroke-width="2.6" stroke="#fff5002D"/><path d="M134-248l34-86" stroke-width="2.7" stroke="#fff2F"/><path d="M125-252l24-89" stroke-width="2.7" stroke="#fff50030"/><path d="M191-183l90-21" stroke-width="2.7" stroke="#c2e1ff30"/><path d="M24-106l-76 56" stroke-width="2.8" stroke="#c2e1ff33"/><path d="M30-99l-69 64" stroke-width="2.8" stroke="#fff33"/><path d="M95-258l-4-95" stroke-width="2.8" stroke="#c2e1ff34"/><path d="M195-173l95-11" stroke-width="2.9" stroke="#fff34"/><path d="M98-259l-3-96" stroke-width="2.9" stroke="#fff35"/><path d="M136-252l36-90" stroke-width="2.9" stroke="#fff36"/><path d="M113-66l13 97" stroke-width="3.0" stroke="#005bbb37"/><path d="M147-76l48 87" stroke-width="3.0" stroke="#005bbb3A"/><path d="M133-256l34-94" stroke-width="3.1" stroke="#005bbb3A"/><path d="M70-258l-29-95" stroke-width="3.1" stroke="#fff5003A"/><path d="M83-64l-17 98" stroke-width="3.1" stroke="#005bbb3B"/><path d="M5-131l-95 31" stroke-width="3.1" stroke="#005bbb3B"/><path d="M110-63l10 100" stroke-width="3.1" stroke="#005bbb3B"/><path d="M136-257l36-94" stroke-width="3.2" stroke="#005bbb3D"/><path d="M4-132l-97 30" stroke-width="3.2" stroke="#005bbb3D"/><path d="M197-133l97 29" stroke-width="3.2" stroke="#fff5003D"/><path d="M191-208l91-46" stroke-width="3.2" stroke="#fff3E"/><path d="M174-233l74-70" stroke-width="3.2" stroke="#fff3E"/><path d="M52-72l-47 90" stroke-width="3.2" stroke="#fff3F"/><path d="M88-61l-12 102" stroke-width="3.3" stroke="#005bbb40"/><path d="M164-82l65 81" stroke-width="3.3" stroke="#005bbb41"/><path d="M124-264l24-102" stroke-width="3.4" stroke="#005bbb43"/><path d="M189-217l89-55" stroke-width="3.4" stroke="#fff43"/><path d="M89-58l-10 104" stroke-width="3.4" stroke="#fff50045"/><path d="M1-126l-98 37" stroke-width="3.5" stroke="#fff50045"/><path d="M191-106l90 56" stroke-width="3.6" stroke="#fff50048"/><path d="M80-268l-20-105" stroke-width="3.6" stroke="#fff5004A"/><path d="M157-71l56 91" stroke-width="3.6" stroke="#fff5004A"/><path d="M11-102l-89 60" stroke-width="3.6" stroke="#fff4A"/><path d="M105-272l6-110" stroke-width="3.9" stroke="#fff50"/><path d="M210-157l110 6" stroke-width="3.9" stroke="#fff51"/><path d="M177-242l77-80" stroke-width="3.9" stroke="#c2e1ff52"/><path d="M61-57l-39 106" stroke-width="4.1" stroke="#c2e1ff58"/><path d="M31-73l-69 90" stroke-width="4.2" stroke="#fff5B"/><path d="M32-71l-68 92" stroke-width="4.4" stroke="#fff5005F"/><path d="M42-261l-58-99" stroke-width="4.4" stroke="#c2e1ff5F"/><path d="M83-276l-16-114" stroke-width="4.4" stroke="#fff61"/><path d="M158-262l57-99" stroke-width="4.5" stroke="#fff62"/><path d="M212-133l111 29" stroke-width="4.5" stroke="#c2e1ff64"/><path d="M136-53l36 110" stroke-width="4.6" stroke="#fff50065"/><path d="M4-227l-95-65" stroke-width="4.6" stroke="#c2e1ff65"/><path d="M119-48l20 114" stroke-width="4.6" stroke="#c2e1ff67"/><path d="M151-58l51 104" stroke-width="4.7" stroke="#fff50067"/><path d="M41-263l-59-101" stroke-width="4.8" stroke="#fff5006C"/><path d="M103-45l3 117" stroke-width="4.9" stroke="#fff6F"/><path d="M-12-128l-112 34" stroke-width="5.0" stroke="#fff6F"/><path d="M187-241l88-78" stroke-width="5.0" stroke="#005bbb70"/><path d="M-17-176l-116-14" stroke-width="5.0" stroke="#c2e1ff71"/><path d="M136-51l36 112" stroke-width="5.0" stroke="#005bbb72"/><path d="M75-277l-25-115" stroke-width="5.0" stroke="#fff72"/><path d="M112-280l12-117" stroke-width="5.2" stroke="#c2e1ff76"/><path d="M214-134l115 28" stroke-width="5.2" stroke="#005bbb77"/><path d="M-18-165l-118-2" stroke-width="5.3" stroke="#fff7B"/><path d="M199-226l100-64" stroke-width="5.4" stroke="#fff7B"/><path d="M141-52l41 111" stroke-width="5.4" stroke="#fff5007D"/><path d="M171-257l71-94" stroke-width="5.4" stroke="#c2e1ff7D"/><path d="M205-108l105 54" stroke-width="5.5" stroke="#fff5007E"/><path d="M13-82l-87 80" stroke-width="5.5" stroke="#005bbb80"/><path d="M156-58l55 104" stroke-width="5.6" stroke="#c2e1ff81"/><path d="M16-80l-85 83" stroke-width="5.6" stroke="#fff50082"/><path d="M-4-106l-104 56" stroke-width="5.6" stroke="#fff50082"/><path d="M150-56l51 107" stroke-width="5.6" stroke="#fff82"/><path d="M144-53l43 110" stroke-width="5.8" stroke="#005bbb87"/><path d="M-18-169l-117-7" stroke-width="5.9" stroke="#c2e1ff89"/><path d="M99-280l0-118" stroke-width="5.9" stroke="#fff89"/><path d="M191-88l91 74" stroke-width="6.0" stroke="#c2e1ff8C"/><path d="M121-278l21-116" stroke-width="6.0" stroke="#fff5008C"/><path d="M35-65l-65 98" stroke-width="6.0" stroke="#c2e1ff8D"/><path d="M36-65l-65 98" stroke-width="6.1" stroke="#fff90"/><path d="M-6-213l-105-50" stroke-width="6.1" stroke="#005bbb90"/><path d="M96-46l-3 116" stroke-width="6.3" stroke="#fff50095"/><path d="M31-69l-68 94" stroke-width="6.3" stroke="#005bbb96"/><path d="M189-88l89 74" stroke-width="6.4" stroke="#fff50097"/><path d="M138-53l39 109" stroke-width="6.4" stroke="#005bbb98"/><path d="M-15-154l-116 8" stroke-width="6.4" stroke="#c2e1ff98"/><path d="M-7-205l-108-42" stroke-width="6.4" stroke="#fff50099"/><path d="M106-278l7-115" stroke-width="6.5" stroke="#c2e1ff9A"/><path d="M-15-153l-115 9" stroke-width="6.5" stroke="#fff9B"/><path d="M212-190l111-28" stroke-width="6.5" stroke="#fff5009C"/><path d="M152-60l52 103" stroke-width="6.5" stroke="#005bbb9C"/><path d="M73-51l-28 111" stroke-width="6.6" stroke="#005bbb9D"/><path d="M214-152l114 10" stroke-width="6.6" stroke="#fff5009E"/><path d="M134-53l33 109" stroke-width="6.7" stroke="#fffA0"/><path d="M32-254l-67-92" stroke-width="6.7" stroke="#005bbbA0"/><path d="M42-261l-58-98" stroke-width="6.7" stroke="#fff500A0"/><path d="M156-63l55 99" stroke-width="6.7" stroke="#fff500A1"/><path d="M146-266l45-104" stroke-width="6.8" stroke="#fffA3"/><path d="M80-274l-21-111" stroke-width="6.8" stroke="#005bbbA5"/><path d="M95-274l-5-112" stroke-width="6.9" stroke="#c2e1ffA7"/><path d="M121-272l21-110" stroke-width="6.9" stroke="#c2e1ffA8"/><path d="M131-55l31 107" stroke-width="7.0" stroke="#fffA8"/><path d="M56-265l-43-103" stroke-width="7.0" stroke="#fffA9"/><path d="M127-54l27 108" stroke-width="7.0" stroke="#fff500A9"/><path d="M12-230l-88-67" stroke-width="7.1" stroke="#fff500AB"/><path d="M-8-184l-108-22" stroke-width="7.1" stroke="#fffAE"/><path d="M204-199l103-37" stroke-width="7.2" stroke="#c2e1ffAE"/><path d="M57-262l-44-100" stroke-width="7.2" stroke="#fff500B0"/><path d="M152-258l51-96" stroke-width="7.2" stroke="#fffB1"/><path d="M172-243l73-81" stroke-width="7.3" stroke="#005bbbB1"/><path d="M-5-181l-105-18" stroke-width="7.4" stroke="#c2e1ffB6"/><path d="M34-80l-66 83" stroke-width="7.5" stroke="#fffB7"/><path d="M186-223l85-60" stroke-width="7.6" stroke="#fffBA"/><path d="M-4-159l-105 4" stroke-width="7.6" stroke="#fff500BA"/><path d="M139-259l40-96" stroke-width="7.6" stroke="#005bbbBC"/><path d="M203-169l104-7" stroke-width="7.7" stroke="#fffBC"/><path d="M108-59l9 103" stroke-width="7.7" stroke="#fff500BD"/><path d="M190-213l91-50" stroke-width="7.7" stroke="#005bbbBD"/><path d="M158-78l58 85" stroke-width="7.7" stroke="#005bbbBE"/><path d="M106-264l7-101" stroke-width="7.8" stroke="#c2e1ffC0"/><path d="M-1-167l-101-4" stroke-width="7.8" stroke="#c2e1ffC1"/><path d="M191-205l92-42" stroke-width="7.8" stroke="#c2e1ffC1"/><path d="M145-72l45 90" stroke-width="7.9" stroke="#005bbbC2"/><path d="M197-138l97 24" stroke-width="7.9" stroke="#fff500C3"/><path d="M186-212l86-49" stroke-width="7.9" stroke="#005bbbC4"/><path d="M74-257l-25-94" stroke-width="8.0" stroke="#fff500C7"/><path d="M27-98l-72 65" stroke-width="8.1" stroke="#c2e1ffC7"/><path d="M157-241l58-78" stroke-width="8.1" stroke="#c2e1ffC8"/><path d="M131-254l31-92" stroke-width="8.1" stroke="#c2e1ffC8"/><path d="M109-68l8 95" stroke-width="8.2" stroke="#fffCB"/><path d="M90-73l-11 90" stroke-width="8.4" stroke="#fff500D1"/><path d="M13-177l-86-15" stroke-width="8.5" stroke="#005bbbD4"/><path d="M62-241l-37-78" stroke-width="8.5" stroke="#005bbbD5"/><path d="M34-110l-65 52" stroke-width="8.7" stroke="#fff500D9"/><path d="M18-181l-81-19" stroke-width="8.7" stroke="#005bbbD9"/><path d="M183-170l82-7" stroke-width="8.7" stroke="#fffDA"/><path d="M119-242l20-80" stroke-width="8.7" stroke="#c2e1ffDB"/><path d="M173-133l74 29" stroke-width="8.8" stroke="#c2e1ffDE"/><path d="M116-88l15 74" stroke-width="8.9" stroke="#fffE1"/><path d="M118-235l17-73" stroke-width="9.0" stroke="#005bbbE2"/><path d="M80-231l-20-68" stroke-width="9.1" stroke="#005bbbE5"/><path d="M70-102l-31 61" stroke-width="9.2" stroke="#fffE7"/><path d="M94-95l-7 67" stroke-width="9.2" stroke="#c2e1ffE7"/><path d="M57-112l-43 51" stroke-width="9.2" stroke="#005bbbE8"/><path d="M34-162l-66 1" stroke-width="9.2" stroke="#005bbbE9"/><path d="M38-156l-62 7" stroke-width="9.3" stroke="#c2e1ffEB"/><path d="M90-102l-10 61" stroke-width="9.3" stroke="#fff500EC"/><path d="M40-169l-61-6" stroke-width="9.4" stroke="#005bbbEC"/><path d="M54-199l-46-37" stroke-width="9.4" stroke="#c2e1ffEE"/><path d="M43-174l-56-12" stroke-width="9.4" stroke="#fff500EE"/><path d="M127-112l28 51" stroke-width="9.4" stroke="#fff500EE"/><path d="M143-201l43-38" stroke-width="9.4" stroke="#fff500EE"/><path d="M93-218l-8-56" stroke-width="9.5" stroke="#fff500EF"/><path d="M46-160l-54 3" stroke-width="9.5" stroke="#005bbbF0"/><path d="M130-201l30-39" stroke-width="9.6" stroke="#fffF3"/><path d="M117-204l17-42" stroke-width="9.7" stroke="#005bbbF5"/><path d="M69-133l-31 29" stroke-width="9.7" stroke="#fff500F6"/><path d="M139-170l40-7" stroke-width="9.7" stroke="#fffF7"/><path d="M138-157l38 5" stroke-width="9.8" stroke="#fffF8"/><path d="M91-127l-10 36" stroke-width="9.8" stroke="#fff500F8"/><path d="M85-135l-16 28" stroke-width="9.8" stroke="#fff500FA"/><path d="M94-159l-7 4" stroke-width="10.0" stroke="#fffFE"/><path d="M94-161l-6 2" stroke-width="10.0" stroke="#fffFE"/></g></svg>