<svg width="1200" height="675" viewBox="-500 -500 1200 675" xmlns="http://www.w3.org/2000/svg"><path d="M-500-500h1200v675h-1200z" fill="#000"/><style>.sparkles path{stroke-linecap:round}</style><g class="sparkles"><path d="M107-139l7 24" stroke-width="1.1" stroke="#fff5002"/><path d="M88-121l-12 42" stroke-width="1.3" stroke="#fff5008"/><path d="M141-185l41-23" stroke-width="1.4" stroke="#fff500A"/><path d="M90-115l-10 47" stroke-width="1.4" stroke="#fff500B"/><path d="M137-126l37 36" stroke-width="1.5" stroke="#005bbbC"/><path d="M90-215l-10-53" stroke-width="1.5" stroke="#fff500D"/><path d="M105-106l5 56" stroke-width="1.5" stroke="#005bbbF"/><path d="M128-113l28 50" stroke-width="1.6" stroke="#fff500F"/><path d="M156-182l57-19" stroke-width="1.6" stroke="#fff11"/><path d="M91-223l-9-60" stroke-width="1.6" stroke="#fff12"/><path d="M42-135l-58 28" stroke-width="1.7" stroke="#fff50014"/><path d="M135-108l35 55" stroke-width="1.7" stroke="#fff50014"/><path d="M78-101l-21 62" stroke-width="1.8" stroke="#fff15"/><path d="M53-211l-46-49" stroke-width="1.8" stroke="#fff50016"/><path d="M144-109l45 54" stroke-width="1.9" stroke="#c2e1ff18"/><path d="M99-234l-1-71" stroke-width="1.9" stroke="#fff50019"/><path d="M33-132l-67 30" stroke-width="2.0" stroke="#fff5001B"/><path d="M43-111l-56 51" stroke-width="2.1" stroke="#005bbb1E"/><path d="M43-215l-57-52" stroke-width="2.1" stroke="#fff5001E"/><path d="M27-191l-72-28" stroke-width="2.1" stroke="#c2e1ff1F"/><path d="M23-181l-77-19" stroke-width="2.2" stroke="#fff50021"/><path d="M53-96l-46 66" stroke-width="2.2" stroke="#fff50022"/><path d="M19-168l-81-6" stroke-width="2.2" stroke="#fff50022"/><path d="M33-209l-67-46" stroke-width="2.2" stroke="#c2e1ff23"/><path d="M110-80l11 83" stroke-width="2.3" stroke="#fff50025"/><path d="M16-157l-84 6" stroke-width="2.4" stroke="#fff50026"/><path d="M156-95l56 67" stroke-width="2.5" stroke="#fff50029"/><path d="M120-73l19 89" stroke-width="2.6" stroke="#fff5002E"/><path d="M179-212l79-49" stroke-width="2.7" stroke="#005bbb31"/><path d="M193-152l94 11" stroke-width="2.8" stroke="#fff32"/><path d="M87-259l-13-96" stroke-width="2.9" stroke="#c2e1ff37"/><path d="M14-210l-87-48" stroke-width="3.0" stroke="#005bbb39"/><path d="M122-259l22-97" stroke-width="3.1" stroke="#fff5003A"/><path d="M86-64l-13 99" stroke-width="3.1" stroke="#005bbb3B"/><path d="M2-143l-98 19" stroke-width="3.1" stroke="#fff5003B"/><path d="M44-75l-56 87" stroke-width="3.3" stroke="#fff50042"/><path d="M140-67l41 96" stroke-width="3.4" stroke="#005bbb42"/><path d="M188-104l88 59" stroke-width="3.5" stroke="#005bbb47"/><path d="M-5-179l-104-17" stroke-width="3.5" stroke="#fff47"/><path d="M13-226l-86-64" stroke-width="3.6" stroke="#005bbb4A"/><path d="M195-111l94 52" stroke-width="3.7" stroke="#c2e1ff4B"/><path d="M18-92l-82 71" stroke-width="3.7" stroke="#c2e1ff4C"/><path d="M204-129l104 33" stroke-width="3.8" stroke="#fff4E"/><path d="M207-187l106-24" stroke-width="3.8" stroke="#fff5004F"/><path d="M124-269l25-107" stroke-width="3.8" stroke="#005bbb4F"/><path d="M25-82l-76 80" stroke-width="3.9" stroke="#005bbb51"/><path d="M152-64l51 98" stroke-width="4.0" stroke="#fff50053"/><path d="M8-225l-92-62" stroke-width="4.0" stroke="#c2e1ff54"/><path d="M187-232l87-69" stroke-width="4.0" stroke="#fff54"/><path d="M116-52l16 110" stroke-width="4.0" stroke="#fff50055"/><path d="M151-262l51-99" stroke-width="4.0" stroke="#fff55"/><path d="M12-231l-89-68" stroke-width="4.0" stroke="#fff50056"/><path d="M102-51l3 112" stroke-width="4.1" stroke="#005bbb56"/><path d="M196-220l97-57" stroke-width="4.1" stroke="#fff57"/><path d="M68-271l-32-108" stroke-width="4.2" stroke="#fff5005A"/><path d="M192-95l91 67" stroke-width="4.3" stroke="#c2e1ff5C"/><path d="M49-265l-51-102" stroke-width="4.4" stroke="#fff5005F"/><path d="M192-95l93 68" stroke-width="4.4" stroke="#fff60"/><path d="M159-64l59 98" stroke-width="4.4" stroke="#fff50060"/><path d="M125-50l25 112" stroke-width="4.4" stroke="#005bbb61"/><path d="M146-268l46-105" stroke-width="4.5" stroke="#005bbb62"/><path d="M-2-216l-102-53" stroke-width="4.5" stroke="#c2e1ff62"/><path d="M25-250l-74-87" stroke-width="4.5" stroke="#fff50062"/><path d="M119-277l20-114" stroke-width="4.6" stroke="#c2e1ff66"/><path d="M22-77l-78 86" stroke-width="4.6" stroke="#fff50066"/><path d="M206-115l105 48" stroke-width="4.6" stroke="#fff66"/><path d="M181-79l81 83" stroke-width="4.7" stroke="#fff69"/><path d="M96-279l-3-117" stroke-width="4.8" stroke="#005bbb6C"/><path d="M10-238l-89-75" stroke-width="4.9" stroke="#005bbb6E"/><path d="M17-246l-82-83" stroke-width="5.0" stroke="#c2e1ff70"/><path d="M-16-179l-116-17" stroke-width="5.0" stroke="#fff50071"/><path d="M-12-127l-112 36" stroke-width="5.0" stroke="#c2e1ff71"/><path d="M103-280l2-118" stroke-width="5.1" stroke="#fff74"/><path d="M8-236l-93-73" stroke-width="5.2" stroke="#c2e1ff76"/><path d="M216-186l115-23" stroke-width="5.3" stroke="#c2e1ff78"/><path d="M164-262l64-99" stroke-width="5.3" stroke="#005bbb79"/><path d="M-7-113l-107 50" stroke-width="5.3" stroke="#fff50079"/><path d="M216-183l116-21" stroke-width="5.3" stroke="#fff5007A"/><path d="M-13-198l-113-35" stroke-width="5.5" stroke="#fff7F"/><path d="M5-233l-95-70" stroke-width="5.5" stroke="#c2e1ff80"/><path d="M51-55l-49 108" stroke-width="5.6" stroke="#c2e1ff81"/><path d="M152-57l52 106" stroke-width="5.7" stroke="#fff50086"/><path d="M174-71l73 92" stroke-width="5.9" stroke="#fff89"/><path d="M54-54l-46 108" stroke-width="5.9" stroke="#005bbb89"/><path d="M-3-106l-104 56" stroke-width="5.9" stroke="#005bbb89"/><path d="M31-67l-68 95" stroke-width="6.0" stroke="#005bbb8C"/><path d="M179-75l79 87" stroke-width="6.0" stroke="#005bbb8D"/><path d="M190-87l89 75" stroke-width="6.0" stroke="#fff5008E"/><path d="M91-279l-10-117" stroke-width="6.1" stroke="#fff5008F"/><path d="M-17-165l-117-3" stroke-width="6.1" stroke="#c2e1ff90"/><path d="M122-277l22-115" stroke-width="6.1" stroke="#fff50090"/><path d="M196-229l97-66" stroke-width="6.1" stroke="#c2e1ff91"/><path d="M126-48l26 114" stroke-width="6.1" stroke="#c2e1ff91"/><path d="M92-279l-9-116" stroke-width="6.2" stroke="#c2e1ff93"/><path d="M-6-114l-106 49" stroke-width="6.2" stroke="#fff50094"/><path d="M178-76l78 87" stroke-width="6.2" stroke="#fff50094"/><path d="M81-48l-20 115" stroke-width="6.3" stroke="#005bbb96"/><path d="M13-240l-86-78" stroke-width="6.3" stroke="#fff96"/><path d="M96-46l-3 116" stroke-width="6.3" stroke="#c2e1ff96"/><path d="M4-98l-96 65" stroke-width="6.4" stroke="#005bbb98"/><path d="M78-276l-22-113" stroke-width="6.5" stroke="#fff5009A"/><path d="M4-226l-96-63" stroke-width="6.5" stroke="#fff9C"/><path d="M211-131l110 31" stroke-width="6.5" stroke="#c2e1ff9C"/><path d="M98-48l-2 115" stroke-width="6.6" stroke="#fff5009D"/><path d="M89-48l-11 114" stroke-width="6.6" stroke="#fff9E"/><path d="M-9-197l-109-34" stroke-width="6.6" stroke="#fff9E"/><path d="M48-264l-53-102" stroke-width="6.6" stroke="#005bbb9F"/><path d="M214-160l114 3" stroke-width="6.6" stroke="#005bbb9F"/><path d="M212-143l112 19" stroke-width="6.7" stroke="#005bbbA1"/><path d="M-10-192l-110-30" stroke-width="6.7" stroke="#fffA2"/><path d="M102-49l1 113" stroke-width="6.8" stroke="#005bbbA3"/><path d="M-13-161l-113 1" stroke-width="6.8" stroke="#fff500A4"/><path d="M-12-171l-112-9" stroke-width="6.9" stroke="#c2e1ffA7"/><path d="M-10-143l-111 19" stroke-width="6.9" stroke="#005bbbA7"/><path d="M-9-187l-110-24" stroke-width="6.9" stroke="#fff500A8"/><path d="M196-220l96-58" stroke-width="6.9" stroke="#c2e1ffA8"/><path d="M209-187l109-25" stroke-width="7.0" stroke="#fffA9"/><path d="M86-53l-15 110" stroke-width="7.1" stroke="#005bbbAB"/><path d="M33-250l-66-88" stroke-width="7.1" stroke="#005bbbAD"/><path d="M176-83l76 79" stroke-width="7.2" stroke="#fff500AE"/><path d="M25-242l-76-80" stroke-width="7.2" stroke="#c2e1ffAF"/><path d="M115-271l15-108" stroke-width="7.2" stroke="#fffB0"/><path d="M201-201l102-39" stroke-width="7.3" stroke="#c2e1ffB1"/><path d="M208-173l107-10" stroke-width="7.3" stroke="#c2e1ffB2"/><path d="M204-189l105-26" stroke-width="7.3" stroke="#005bbbB3"/><path d="M90-57l-10 106" stroke-width="7.5" stroke="#c2e1ffB6"/><path d="M204-143l103 19" stroke-width="7.5" stroke="#fffB9"/><path d="M56-258l-44-95" stroke-width="7.6" stroke="#c2e1ffBA"/><path d="M134-259l34-97" stroke-width="7.7" stroke="#fffBE"/><path d="M173-234l74-71" stroke-width="7.8" stroke="#fff500BF"/><path d="M14-216l-87-53" stroke-width="7.8" stroke="#005bbbC0"/><path d="M14-108l-86 54" stroke-width="7.8" stroke="#fff500C0"/><path d="M144-254l44-91" stroke-width="7.8" stroke="#c2e1ffC1"/><path d="M189-114l88 49" stroke-width="7.8" stroke="#fff500C1"/><path d="M38-242l-62-80" stroke-width="7.8" stroke="#005bbbC1"/><path d="M105-62l5 100" stroke-width="7.9" stroke="#005bbbC2"/><path d="M182-218l82-56" stroke-width="8.0" stroke="#005bbbC5"/><path d="M196-148l96 15" stroke-width="8.1" stroke="#c2e1ffC8"/><path d="M43-240l-57-78" stroke-width="8.1" stroke="#005bbbC9"/><path d="M155-239l56-77" stroke-width="8.2" stroke="#fffCB"/><path d="M23-217l-76-54" stroke-width="8.2" stroke="#c2e1ffCC"/><path d="M54-81l-46 81" stroke-width="8.3" stroke="#fff500CD"/><path d="M104-256l5-93" stroke-width="8.3" stroke="#c2e1ffCD"/><path d="M180-116l80 46" stroke-width="8.3" stroke="#c2e1ffCF"/><path d="M141-81l41 82" stroke-width="8.3" stroke="#fffD0"/><path d="M167-225l67-62" stroke-width="8.3" stroke="#005bbbD0"/><path d="M126-249l27-87" stroke-width="8.4" stroke="#fff500D1"/><path d="M17-132l-84 30" stroke-width="8.5" stroke="#fffD3"/><path d="M173-210l74-48" stroke-width="8.5" stroke="#fffD4"/><path d="M34-219l-67-56" stroke-width="8.6" stroke="#fff500D5"/><path d="M165-106l66 57" stroke-width="8.6" stroke="#c2e1ffD6"/><path d="M16-142l-84 20" stroke-width="8.6" stroke="#c2e1ffD6"/><path d="M184-175l85-12" stroke-width="8.6" stroke="#fff500D7"/><path d="M166-214l66-52" stroke-width="8.7" stroke="#c2e1ffD9"/><path d="M20-140l-80 23" stroke-width="8.7" stroke="#c2e1ffD9"/><path d="M183-165l83-3" stroke-width="8.7" stroke="#c2e1ffDA"/><path d="M129-87l29 75" stroke-width="8.8" stroke="#005bbbDC"/><path d="M123-85l23 77" stroke-width="8.8" stroke="#fffDC"/><path d="M167-202l67-39" stroke-width="8.9" stroke="#fffDF"/><path d="M175-162l75 0" stroke-width="9.0" stroke="#c2e1ffE2"/><path d="M171-186l70-23" stroke-width="9.0" stroke="#fff500E2"/><path d="M26-158l-74 4" stroke-width="9.0" stroke="#005bbbE2"/><path d="M171-144l71 19" stroke-width="9.0" stroke="#005bbbE3"/><path d="M82-230l-18-68" stroke-width="9.1" stroke="#c2e1ffE6"/><path d="M101-93l1 70" stroke-width="9.1" stroke="#fff500E6"/><path d="M140-111l40 52" stroke-width="9.2" stroke="#fff500E9"/><path d="M36-160l-64 3" stroke-width="9.3" stroke="#fffEA"/><path d="M56-208l-43-46" stroke-width="9.3" stroke="#fffEB"/><path d="M141-205l40-42" stroke-width="9.4" stroke="#005bbbEE"/><path d="M155-169l55-7" stroke-width="9.5" stroke="#fff500F0"/><path d="M125-211l25-49" stroke-width="9.5" stroke="#fff500F0"/><path d="M72-208l-28-46" stroke-width="9.5" stroke="#fffF1"/><path d="M87-214l-14-51" stroke-width="9.5" stroke="#c2e1ffF1"/><path d="M120-117l21 45" stroke-width="9.6" stroke="#005bbbF3"/><path d="M85-116l-16 47" stroke-width="9.6" stroke="#fffF3"/><path d="M67-154l-34 9" stroke-width="9.8" stroke="#fff500F9"/><path d="M71-147l-28 15" stroke-width="9.8" stroke="#005bbbFA"/><path d="M121-186l21-24" stroke-width="9.8" stroke="#c2e1ffFA"/><path d="M97-186l-4-24" stroke-width="9.9" stroke="#fffFC"/><path d="M89-176l-11-14" stroke-width="10.0" stroke="#fffFD"/><path d="M115-163l16-1" stroke-width="10.0" stroke="#c2e1ffFD"/></g></svg>