<svg width="1200" height="675" viewBox="-500 -500 1200 675" xmlns="http://www.w3.org/2000/svg"><path d="M-500-500h1200v675h-1200z" fill="#000"/><style>.sparkles path{stroke-linecap:round}</style><g class="sparkles"><path d="M107-146l7 16" stroke-width="1.0" stroke="#fff5001"/><path d="M120-169l20-6" stroke-width="1.1" stroke="#c2e1ff2"/><path d="M109-130l8 33" stroke-width="1.2" stroke="#fff5005"/><path d="M133-144l33 19" stroke-width="1.2" stroke="#005bbb6"/><path d="M63-140l-37 22" stroke-width="1.3" stroke="#fff5008"/><path d="M104-119l5 43" stroke-width="1.3" stroke="#c2e1ff8"/><path d="M64-138l-36 25" stroke-width="1.3" stroke="#fff5009"/><path d="M55-160l-46 3" stroke-width="1.3" stroke="#c2e1ff9"/><path d="M95-208l-4-45" stroke-width="1.4" stroke="#c2e1ff9"/><path d="M65-195l-36-32" stroke-width="1.4" stroke="#005bbbB"/><path d="M147-178l47-16" stroke-width="1.4" stroke="#c2e1ffB"/><path d="M144-193l45-30" stroke-width="1.5" stroke="#c2e1ffE"/><path d="M146-131l47 31" stroke-width="1.5" stroke="#fffF"/><path d="M52-193l-48-30" stroke-width="1.6" stroke="#fff500F"/><path d="M118-218l18-55" stroke-width="1.6" stroke="#005bbb10"/><path d="M75-218l-26-55" stroke-width="1.6" stroke="#fff50012"/><path d="M162-162l62 0" stroke-width="1.7" stroke="#fff50013"/><path d="M98-226l-3-64" stroke-width="1.7" stroke="#005bbb14"/><path d="M88-226l-11-64" stroke-width="1.7" stroke="#fff14"/><path d="M162-191l62-29" stroke-width="1.8" stroke="#fff50017"/><path d="M28-170l-73-7" stroke-width="2.0" stroke="#fff5001B"/><path d="M164-201l64-38" stroke-width="2.0" stroke="#fff1C"/><path d="M111-88l11 75" stroke-width="2.0" stroke="#fff5001D"/><path d="M177-154l78 8" stroke-width="2.1" stroke="#c2e1ff1F"/><path d="M78-87l-23 75" stroke-width="2.1" stroke="#fff50020"/><path d="M26-137l-75 26" stroke-width="2.1" stroke="#c2e1ff20"/><path d="M64-91l-36 72" stroke-width="2.2" stroke="#fff22"/><path d="M146-229l45-66" stroke-width="2.2" stroke="#005bbb22"/><path d="M179-181l79-18" stroke-width="2.2" stroke="#c2e1ff22"/><path d="M161-107l62 55" stroke-width="2.3" stroke="#005bbb24"/><path d="M184-171l83-9" stroke-width="2.3" stroke="#005bbb26"/><path d="M142-88l41 74" stroke-width="2.4" stroke="#005bbb26"/><path d="M136-85l36 78" stroke-width="2.4" stroke="#c2e1ff27"/><path d="M98-76l-2 86" stroke-width="2.4" stroke="#fff28"/><path d="M142-85l43 78" stroke-width="2.5" stroke="#c2e1ff2A"/><path d="M98-251l-3-89" stroke-width="2.5" stroke="#c2e1ff2B"/><path d="M144-242l44-80" stroke-width="2.6" stroke="#fff5002E"/><path d="M180-208l80-45" stroke-width="2.7" stroke="#fff2F"/><path d="M188-131l88 31" stroke-width="2.7" stroke="#fff50031"/><path d="M57-246l-43-84" stroke-width="2.8" stroke="#c2e1ff32"/><path d="M21-111l-80 52" stroke-width="2.8" stroke="#c2e1ff33"/><path d="M31-230l-70-67" stroke-width="2.9" stroke="#c2e1ff36"/><path d="M190-127l91 35" stroke-width="2.9" stroke="#005bbb36"/><path d="M191-196l91-34" stroke-width="2.9" stroke="#fff50036"/><path d="M36-89l-65 74" stroke-width="3.0" stroke="#fff37"/><path d="M83-66l-18 97" stroke-width="3.0" stroke="#fff50039"/><path d="M178-225l77-62" stroke-width="3.1" stroke="#fff5003A"/><path d="M121-63l21 99" stroke-width="3.2" stroke="#005bbb3D"/><path d="M195-125l96 37" stroke-width="3.3" stroke="#c2e1ff3F"/><path d="M170-87l70 75" stroke-width="3.3" stroke="#005bbb40"/><path d="M135-66l35 97" stroke-width="3.3" stroke="#c2e1ff40"/><path d="M13-219l-86-57" stroke-width="3.3" stroke="#fff42"/><path d="M44-250l-57-87" stroke-width="3.3" stroke="#005bbb42"/><path d="M43-249l-58-86" stroke-width="3.4" stroke="#005bbb42"/><path d="M200-194l100-31" stroke-width="3.4" stroke="#005bbb44"/><path d="M159-249l60-87" stroke-width="3.4" stroke="#005bbb45"/><path d="M140-65l40 97" stroke-width="3.4" stroke="#fff45"/><path d="M115-58l14 104" stroke-width="3.5" stroke="#005bbb45"/><path d="M6-113l-94 50" stroke-width="3.5" stroke="#c2e1ff47"/><path d="M22-90l-79 73" stroke-width="3.6" stroke="#005bbb49"/><path d="M183-94l82 68" stroke-width="3.6" stroke="#fff50049"/><path d="M-3-196l-104-34" stroke-width="3.7" stroke="#c2e1ff4D"/><path d="M157-70l58 93" stroke-width="3.8" stroke="#005bbb4E"/><path d="M149-65l50 98" stroke-width="3.8" stroke="#fff50050"/><path d="M183-234l84-71" stroke-width="3.8" stroke="#fff50"/><path d="M145-263l44-101" stroke-width="3.9" stroke="#005bbb51"/><path d="M-7-126l-107 36" stroke-width="4.2" stroke="#fff5005A"/><path d="M47-263l-52-100" stroke-width="4.2" stroke="#fff5005B"/><path d="M107-276l7-113" stroke-width="4.2" stroke="#005bbb5B"/><path d="M31-72l-69 91" stroke-width="4.3" stroke="#005bbb5D"/><path d="M188-236l88-73" stroke-width="4.4" stroke="#c2e1ff5F"/><path d="M-14-152l-114 10" stroke-width="4.4" stroke="#c2e1ff60"/><path d="M164-66l63 96" stroke-width="4.5" stroke="#005bbb64"/><path d="M24-249l-77-87" stroke-width="4.5" stroke="#fff50064"/><path d="M50-266l-51-104" stroke-width="4.6" stroke="#fff50065"/><path d="M190-89l89 73" stroke-width="4.6" stroke="#fff65"/><path d="M59-54l-40 108" stroke-width="4.6" stroke="#fff50066"/><path d="M179-248l78-86" stroke-width="4.7" stroke="#c2e1ff68"/><path d="M199-224l98-62" stroke-width="4.7" stroke="#fff50068"/><path d="M5-229l-95-67" stroke-width="4.7" stroke="#005bbb69"/><path d="M56-271l-44-108" stroke-width="4.8" stroke="#fff6B"/><path d="M-15-182l-116-20" stroke-width="4.9" stroke="#fff5006E"/><path d="M214-135l114 28" stroke-width="5.0" stroke="#fff71"/><path d="M188-241l87-78" stroke-width="5.0" stroke="#fff72"/><path d="M12-241l-87-78" stroke-width="5.1" stroke="#fff50074"/><path d="M149-269l50-107" stroke-width="5.1" stroke="#005bbb74"/><path d="M87-45l-14 117" stroke-width="5.2" stroke="#fff75"/><path d="M28-256l-72-93" stroke-width="5.2" stroke="#fff76"/><path d="M215-188l115-26" stroke-width="5.2" stroke="#005bbb77"/><path d="M198-228l98-66" stroke-width="5.2" stroke="#005bbb77"/><path d="M218-155l117 7" stroke-width="5.2" stroke="#c2e1ff77"/><path d="M0-100l-100 62" stroke-width="5.2" stroke="#fff50078"/><path d="M-8-114l-107 48" stroke-width="5.3" stroke="#005bbb7A"/><path d="M100-44l1 118" stroke-width="5.4" stroke="#fff7C"/><path d="M73-278l-26-115" stroke-width="5.4" stroke="#005bbb7D"/><path d="M122-46l21 116" stroke-width="5.5" stroke="#c2e1ff7E"/><path d="M212-200l112-38" stroke-width="5.5" stroke="#fff5007F"/><path d="M-7-113l-107 50" stroke-width="5.5" stroke="#fff50080"/><path d="M205-109l105 54" stroke-width="5.6" stroke="#005bbb83"/><path d="M-10-206l-110-43" stroke-width="5.6" stroke="#fff83"/><path d="M51-55l-48 108" stroke-width="5.7" stroke="#c2e1ff85"/><path d="M88-45l-13 117" stroke-width="5.8" stroke="#fff88"/><path d="M111-280l10-117" stroke-width="5.9" stroke="#fff5008A"/><path d="M12-240l-89-77" stroke-width="6.0" stroke="#fff5008E"/><path d="M166-259l66-97" stroke-width="6.1" stroke="#c2e1ff8F"/><path d="M211-127l112 35" stroke-width="6.2" stroke="#005bbb92"/><path d="M216-158l116 5" stroke-width="6.3" stroke="#c2e1ff97"/><path d="M-7-117l-107 45" stroke-width="6.3" stroke="#fff97"/><path d="M207-118l107 45" stroke-width="6.4" stroke="#c2e1ff98"/><path d="M216-159l115 4" stroke-width="6.4" stroke="#fff50099"/><path d="M199-222l100-59" stroke-width="6.4" stroke="#005bbb99"/><path d="M-4-213l-103-51" stroke-width="6.4" stroke="#fff9A"/><path d="M9-233l-92-71" stroke-width="6.4" stroke="#fff9A"/><path d="M135-53l34 110" stroke-width="6.5" stroke="#005bbb9C"/><path d="M-9-200l-109-37" stroke-width="6.5" stroke="#c2e1ff9C"/><path d="M128-274l28-111" stroke-width="6.6" stroke="#c2e1ff9D"/><path d="M11-91l-90 72" stroke-width="6.6" stroke="#fff9D"/><path d="M213-143l113 19" stroke-width="6.6" stroke="#c2e1ff9E"/><path d="M112-49l13 114" stroke-width="6.6" stroke="#fff9E"/><path d="M144-57l45 105" stroke-width="6.6" stroke="#fff9F"/><path d="M-12-139l-112 23" stroke-width="6.7" stroke="#fff500A0"/><path d="M213-178l113-15" stroke-width="6.7" stroke="#fffA0"/><path d="M177-245l78-83" stroke-width="6.8" stroke="#fff500A3"/><path d="M133-271l34-108" stroke-width="6.8" stroke="#fffA4"/><path d="M9-228l-92-65" stroke-width="6.9" stroke="#fff500A6"/><path d="M-6-126l-107 36" stroke-width="6.9" stroke="#c2e1ffA7"/><path d="M95-51l-5 112" stroke-width="7.0" stroke="#c2e1ffA8"/><path d="M4-220l-95-58" stroke-width="7.0" stroke="#c2e1ffA9"/><path d="M3-110l-98 53" stroke-width="7.1" stroke="#005bbbAB"/><path d="M74-270l-26-107" stroke-width="7.1" stroke="#fffAD"/><path d="M116-271l15-108" stroke-width="7.2" stroke="#005bbbAF"/><path d="M-8-146l-109 16" stroke-width="7.2" stroke="#005bbbAF"/><path d="M90-271l-11-108" stroke-width="7.3" stroke="#fffB1"/><path d="M-4-133l-104 30" stroke-width="7.3" stroke="#fff500B2"/><path d="M207-177l107-15" stroke-width="7.3" stroke="#005bbbB2"/><path d="M166-248l66-86" stroke-width="7.3" stroke="#005bbbB3"/><path d="M-6-144l-106 18" stroke-width="7.4" stroke="#fff500B4"/><path d="M206-156l107 6" stroke-width="7.5" stroke="#005bbbB6"/><path d="M204-183l104-21" stroke-width="7.5" stroke="#fff500B7"/><path d="M36-245l-65-82" stroke-width="7.6" stroke="#c2e1ffBB"/><path d="M181-225l80-62" stroke-width="7.8" stroke="#fff500C0"/><path d="M105-264l6-101" stroke-width="7.8" stroke="#c2e1ffC0"/><path d="M44-244l-57-82" stroke-width="7.9" stroke="#fffC4"/><path d="M142-252l42-90" stroke-width="8.0" stroke="#fff500C4"/><path d="M2-163l-99 0" stroke-width="8.0" stroke="#fff500C6"/><path d="M167-233l68-71" stroke-width="8.0" stroke="#fff500C7"/><path d="M10-191l-90-29" stroke-width="8.2" stroke="#005bbbCB"/><path d="M138-247l38-85" stroke-width="8.3" stroke="#005bbbCE"/><path d="M167-100l67 62" stroke-width="8.3" stroke="#fff500D0"/><path d="M167-220l67-57" stroke-width="8.5" stroke="#005bbbD4"/><path d="M169-216l69-53" stroke-width="8.5" stroke="#fffD5"/><path d="M43-226l-58-64" stroke-width="8.6" stroke="#c2e1ffD7"/><path d="M24-123l-75 40" stroke-width="8.6" stroke="#fff500D7"/><path d="M115-79l14 84" stroke-width="8.6" stroke="#005bbbD8"/><path d="M41-102l-59 60" stroke-width="8.7" stroke="#fff500D9"/><path d="M160-106l61 57" stroke-width="8.7" stroke="#fffDA"/><path d="M110-244l9-82" stroke-width="8.7" stroke="#c2e1ffDB"/><path d="M21-170l-79-8" stroke-width="8.8" stroke="#fff500DD"/><path d="M79-86l-22 76" stroke-width="8.8" stroke="#fffDE"/><path d="M151-106l52 57" stroke-width="8.9" stroke="#c2e1ffE0"/><path d="M24-164l-76-1" stroke-width="9.0" stroke="#005bbbE1"/><path d="M41-208l-59-45" stroke-width="9.0" stroke="#005bbbE2"/><path d="M146-105l46 58" stroke-width="9.0" stroke="#fff500E2"/><path d="M125-231l25-69" stroke-width="9.0" stroke="#fff500E3"/><path d="M170-140l69 22" stroke-width="9.0" stroke="#fffE3"/><path d="M145-108l45 54" stroke-width="9.1" stroke="#c2e1ffE5"/><path d="M54-215l-46-52" stroke-width="9.1" stroke="#005bbbE6"/><path d="M37-135l-64 27" stroke-width="9.2" stroke="#c2e1ffE6"/><path d="M39-185l-62-23" stroke-width="9.2" stroke="#fff500E9"/><path d="M153-138l52 24" stroke-width="9.4" stroke="#c2e1ffEE"/><path d="M101-105l1 57" stroke-width="9.4" stroke="#005bbbEE"/><path d="M115-109l16 54" stroke-width="9.5" stroke="#fff500EF"/><path d="M139-130l39 33" stroke-width="9.6" stroke="#c2e1ffF2"/><path d="M149-165l49-2" stroke-width="9.6" stroke="#005bbbF3"/><path d="M139-180l38-18" stroke-width="9.7" stroke="#fff500F6"/><path d="M128-136l28 26" stroke-width="9.8" stroke="#fff500F8"/><path d="M89-199l-11-36" stroke-width="9.8" stroke="#005bbbF8"/><path d="M73-136l-27 26" stroke-width="9.8" stroke="#005bbbF8"/><path d="M85-195l-15-32" stroke-width="9.8" stroke="#005bbbF9"/><path d="M107-133l7 30" stroke-width="9.8" stroke="#fffFA"/><path d="M113-136l13 27" stroke-width="9.9" stroke="#c2e1ffFA"/></g></svg>