<svg width="1200" height="675" viewBox="-500 -500 1200 675" xmlns="http://www.w3.org/2000/svg"><path d="M-500-500h1200v675h-1200z" fill="#000"/><style>.sparkles path{stroke-linecap:round}</style><g class="sparkles"><path d="M92-161l-8 2" stroke-width="1.0" stroke="#fff0"/><path d="M128-166l28-3" stroke-width="1.1" stroke="#fff5003"/><path d="M131-176l30-14" stroke-width="1.2" stroke="#c2e1ff5"/><path d="M100-129l-1 34" stroke-width="1.2" stroke="#c2e1ff5"/><path d="M78-194l-21-32" stroke-width="1.2" stroke="#fff6"/><path d="M73-193l-27-31" stroke-width="1.3" stroke="#c2e1ff7"/><path d="M142-172l42-10" stroke-width="1.3" stroke="#005bbb8"/><path d="M66-196l-35-33" stroke-width="1.4" stroke="#fff500A"/><path d="M138-126l39 37" stroke-width="1.5" stroke="#fffD"/><path d="M92-217l-9-54" stroke-width="1.5" stroke="#c2e1ffE"/><path d="M127-213l27-51" stroke-width="1.6" stroke="#fff50010"/><path d="M72-107l-28 56" stroke-width="1.7" stroke="#fff13"/><path d="M59-109l-41 53" stroke-width="1.8" stroke="#fff16"/><path d="M142-215l43-53" stroke-width="1.8" stroke="#fff50017"/><path d="M158-126l58 36" stroke-width="1.8" stroke="#fff17"/><path d="M85-230l-15-68" stroke-width="1.9" stroke="#c2e1ff18"/><path d="M119-230l19-67" stroke-width="1.9" stroke="#fff50018"/><path d="M29-162l-72 1" stroke-width="1.9" stroke="#fff50019"/><path d="M79-94l-21 69" stroke-width="1.9" stroke="#fff5001A"/><path d="M117-92l17 71" stroke-width="2.0" stroke="#c2e1ff1B"/><path d="M78-233l-21-71" stroke-width="2.0" stroke="#c2e1ff1C"/><path d="M40-118l-60 44" stroke-width="2.0" stroke="#fff5001C"/><path d="M38-206l-63-43" stroke-width="2.1" stroke="#c2e1ff1D"/><path d="M172-137l72 26" stroke-width="2.1" stroke="#fff1E"/><path d="M35-205l-66-42" stroke-width="2.1" stroke="#fff5001F"/><path d="M23-150l-77 13" stroke-width="2.1" stroke="#fff5001F"/><path d="M179-154l79 8" stroke-width="2.2" stroke="#005bbb20"/><path d="M180-142l81 20" stroke-width="2.3" stroke="#fff50024"/><path d="M184-153l84 9" stroke-width="2.4" stroke="#c2e1ff26"/><path d="M185-172l86-9" stroke-width="2.4" stroke="#fff27"/><path d="M73-244l-27-82" stroke-width="2.4" stroke="#c2e1ff28"/><path d="M11-159l-88 4" stroke-width="2.5" stroke="#fff5002B"/><path d="M70-77l-30 85" stroke-width="2.6" stroke="#fff5002D"/><path d="M170-221l70-59" stroke-width="2.7" stroke="#fff5002E"/><path d="M142-80l43 83" stroke-width="2.7" stroke="#fff50031"/><path d="M59-247l-41-84" stroke-width="2.8" stroke="#fff50031"/><path d="M194-155l93 8" stroke-width="2.8" stroke="#005bbb32"/><path d="M20-212l-80-50" stroke-width="2.8" stroke="#c2e1ff32"/><path d="M185-121l85 42" stroke-width="2.8" stroke="#005bbb32"/><path d="M185-122l86 41" stroke-width="2.8" stroke="#fff50033"/><path d="M27-223l-74-60" stroke-width="2.8" stroke="#c2e1ff33"/><path d="M17-208l-84-46" stroke-width="2.8" stroke="#c2e1ff34"/><path d="M17-211l-83-48" stroke-width="2.9" stroke="#005bbb34"/><path d="M100-259l1-96" stroke-width="2.9" stroke="#fff35"/><path d="M18-217l-83-55" stroke-width="3.0" stroke="#fff39"/><path d="M130-257l31-94" stroke-width="3.1" stroke="#c2e1ff3A"/><path d="M30-233l-71-71" stroke-width="3.1" stroke="#c2e1ff3B"/><path d="M113-62l13 100" stroke-width="3.2" stroke="#fff3D"/><path d="M193-122l93 41" stroke-width="3.2" stroke="#c2e1ff3E"/><path d="M199-138l100 24" stroke-width="3.2" stroke="#fff5003F"/><path d="M35-83l-66 80" stroke-width="3.3" stroke="#005bbb41"/><path d="M171-87l71 75" stroke-width="3.3" stroke="#fff50042"/><path d="M-4-151l-105 12" stroke-width="3.4" stroke="#fff44"/><path d="M-1-196l-101-33" stroke-width="3.5" stroke="#c2e1ff47"/><path d="M112-268l11-106" stroke-width="3.6" stroke="#c2e1ff48"/><path d="M140-64l40 99" stroke-width="3.6" stroke="#c2e1ff48"/><path d="M45-70l-54 92" stroke-width="3.6" stroke="#005bbb49"/><path d="M93-270l-7-107" stroke-width="3.6" stroke="#005bbb4A"/><path d="M107-54l7 108" stroke-width="3.7" stroke="#005bbb4D"/><path d="M98-54l-2 109" stroke-width="3.7" stroke="#005bbb4D"/><path d="M-5-134l-105 28" stroke-width="3.7" stroke="#fff5004D"/><path d="M5-109l-95 53" stroke-width="3.8" stroke="#fff5004E"/><path d="M15-93l-86 69" stroke-width="3.8" stroke="#fff50050"/><path d="M82-271l-17-109" stroke-width="3.9" stroke="#fff50051"/><path d="M180-239l80-77" stroke-width="3.9" stroke="#c2e1ff53"/><path d="M209-185l108-22" stroke-width="3.9" stroke="#fff53"/><path d="M193-224l94-62" stroke-width="4.1" stroke="#fff56"/><path d="M9-97l-90 66" stroke-width="4.1" stroke="#fff57"/><path d="M139-57l39 106" stroke-width="4.1" stroke="#005bbb59"/><path d="M190-95l91 68" stroke-width="4.2" stroke="#c2e1ff5A"/><path d="M92-49l-8 113" stroke-width="4.3" stroke="#005bbb5C"/><path d="M8-96l-92 67" stroke-width="4.3" stroke="#005bbb5C"/><path d="M138-55l39 107" stroke-width="4.3" stroke="#c2e1ff5E"/><path d="M-7-123l-108 40" stroke-width="4.4" stroke="#fff50060"/><path d="M30-71l-70 91" stroke-width="4.5" stroke="#c2e1ff63"/><path d="M69-274l-31-111" stroke-width="4.5" stroke="#c2e1ff63"/><path d="M-1-220l-100-57" stroke-width="4.6" stroke="#005bbb65"/><path d="M2-101l-98 62" stroke-width="4.6" stroke="#fff66"/><path d="M212-190l113-28" stroke-width="4.6" stroke="#fff66"/><path d="M193-233l93-71" stroke-width="4.8" stroke="#005bbb6B"/><path d="M214-139l115 24" stroke-width="4.8" stroke="#c2e1ff6C"/><path d="M31-257l-70-94" stroke-width="4.9" stroke="#fff5006D"/><path d="M115-279l14-116" stroke-width="4.9" stroke="#fff6E"/><path d="M40-263l-61-101" stroke-width="5.0" stroke="#005bbb71"/><path d="M217-162l118 0" stroke-width="5.0" stroke="#c2e1ff72"/><path d="M137-274l37-112" stroke-width="5.1" stroke="#005bbb73"/><path d="M155-266l55-104" stroke-width="5.1" stroke="#fff50073"/><path d="M40-264l-59-101" stroke-width="5.1" stroke="#fff73"/><path d="M112-45l12 117" stroke-width="5.1" stroke="#fff74"/><path d="M90-45l-10 117" stroke-width="5.2" stroke="#c2e1ff77"/><path d="M-10-204l-111-42" stroke-width="5.2" stroke="#fff77"/><path d="M167-260l67-97" stroke-width="5.2" stroke="#fff50078"/><path d="M130-277l29-114" stroke-width="5.3" stroke="#fff50078"/><path d="M128-277l29-115" stroke-width="5.4" stroke="#c2e1ff7C"/><path d="M209-207l110-45" stroke-width="5.4" stroke="#c2e1ff7C"/><path d="M172-69l72 94" stroke-width="5.4" stroke="#fff7D"/><path d="M147-54l48 108" stroke-width="5.5" stroke="#005bbb80"/><path d="M207-213l107-50" stroke-width="5.5" stroke="#005bbb80"/><path d="M171-68l72 94" stroke-width="5.6" stroke="#fff50081"/><path d="M174-254l75-92" stroke-width="5.6" stroke="#fff81"/><path d="M218-173l117-10" stroke-width="5.6" stroke="#fff83"/><path d="M3-230l-97-67" stroke-width="5.7" stroke="#fff50084"/><path d="M115-280l15-117" stroke-width="5.7" stroke="#fff50084"/><path d="M150-269l51-107" stroke-width="5.8" stroke="#005bbb87"/><path d="M102-280l2-118" stroke-width="5.8" stroke="#fff50087"/><path d="M205-110l106 53" stroke-width="5.8" stroke="#c2e1ff87"/><path d="M45-267l-55-104" stroke-width="5.8" stroke="#c2e1ff88"/><path d="M133-49l33 113" stroke-width="5.9" stroke="#fff50089"/><path d="M55-271l-45-109" stroke-width="5.9" stroke="#fff8A"/><path d="M189-86l90 77" stroke-width="5.9" stroke="#c2e1ff8A"/><path d="M67-50l-33 113" stroke-width="5.9" stroke="#fff8A"/><path d="M-14-191l-114-29" stroke-width="5.9" stroke="#005bbb8B"/><path d="M110-45l9 117" stroke-width="5.9" stroke="#fff8B"/><path d="M162-62l61 100" stroke-width="5.9" stroke="#c2e1ff8B"/><path d="M203-217l104-54" stroke-width="6.2" stroke="#fff92"/><path d="M96-46l-3 117" stroke-width="6.2" stroke="#fff50092"/><path d="M201-221l100-59" stroke-width="6.2" stroke="#fff93"/><path d="M-11-196l-111-34" stroke-width="6.3" stroke="#fff50096"/><path d="M5-229l-95-67" stroke-width="6.4" stroke="#fff97"/><path d="M81-49l-18 114" stroke-width="6.5" stroke="#c2e1ff9B"/><path d="M89-48l-11 114" stroke-width="6.5" stroke="#005bbb9C"/><path d="M93-277l-8-115" stroke-width="6.6" stroke="#fff9D"/><path d="M214-152l115 11" stroke-width="6.6" stroke="#fff5009D"/><path d="M188-88l87 74" stroke-width="6.6" stroke="#fff9E"/><path d="M-12-145l-112 17" stroke-width="6.8" stroke="#fff500A3"/><path d="M158-68l58 95" stroke-width="7.0" stroke="#005bbbAA"/><path d="M-5-197l-105-35" stroke-width="7.1" stroke="#005bbbAB"/><path d="M207-189l108-26" stroke-width="7.1" stroke="#fff500AC"/><path d="M122-269l22-107" stroke-width="7.2" stroke="#005bbbB1"/><path d="M76-268l-24-105" stroke-width="7.3" stroke="#c2e1ffB2"/><path d="M189-224l88-62" stroke-width="7.3" stroke="#005bbbB3"/><path d="M41-252l-59-89" stroke-width="7.4" stroke="#005bbbB5"/><path d="M46-254l-55-92" stroke-width="7.4" stroke="#fffB6"/><path d="M176-88l76 74" stroke-width="7.5" stroke="#fff500B7"/><path d="M153-254l53-92" stroke-width="7.5" stroke="#c2e1ffB7"/><path d="M125-60l25 103" stroke-width="7.5" stroke="#c2e1ffB8"/><path d="M205-161l106 1" stroke-width="7.5" stroke="#fff500B9"/><path d="M200-191l100-28" stroke-width="7.6" stroke="#c2e1ffBC"/><path d="M202-145l103 17" stroke-width="7.7" stroke="#fff500BC"/><path d="M2-132l-99 31" stroke-width="7.7" stroke="#fffBD"/><path d="M87-61l-12 102" stroke-width="7.7" stroke="#fffBF"/><path d="M179-98l80 64" stroke-width="7.8" stroke="#005bbbBF"/><path d="M124-64l23 98" stroke-width="7.8" stroke="#fff500C1"/><path d="M43-246l-58-83" stroke-width="7.8" stroke="#fffC1"/><path d="M147-80l46 83" stroke-width="8.2" stroke="#fffCA"/><path d="M160-234l61-71" stroke-width="8.3" stroke="#fff500CD"/><path d="M67-249l-34-87" stroke-width="8.3" stroke="#005bbbCE"/><path d="M86-254l-14-92" stroke-width="8.3" stroke="#c2e1ffCE"/><path d="M189-147l88 15" stroke-width="8.4" stroke="#005bbbD2"/><path d="M72-77l-29 85" stroke-width="8.4" stroke="#fffD2"/><path d="M50-235l-51-73" stroke-width="8.5" stroke="#fff500D4"/><path d="M161-218l61-55" stroke-width="8.7" stroke="#fff500DA"/><path d="M94-244l-7-82" stroke-width="8.7" stroke="#fffDB"/><path d="M166-209l66-46" stroke-width="8.8" stroke="#fff500DC"/><path d="M33-119l-67 44" stroke-width="8.8" stroke="#fff500DD"/><path d="M176-177l77-14" stroke-width="8.9" stroke="#fff500DF"/><path d="M81-88l-20 74" stroke-width="8.9" stroke="#fffE0"/><path d="M113-87l12 75" stroke-width="8.9" stroke="#005bbbE0"/><path d="M141-107l42 56" stroke-width="9.1" stroke="#c2e1ffE6"/><path d="M168-158l69 5" stroke-width="9.2" stroke="#fff500E7"/><path d="M35-141l-65 21" stroke-width="9.2" stroke="#fff500E7"/><path d="M46-120l-54 42" stroke-width="9.2" stroke="#fffE7"/><path d="M161-187l61-24" stroke-width="9.2" stroke="#005bbbE9"/><path d="M159-188l59-26" stroke-width="9.3" stroke="#c2e1ffEA"/><path d="M73-220l-26-58" stroke-width="9.3" stroke="#005bbbEB"/><path d="M161-157l61 6" stroke-width="9.3" stroke="#005bbbEC"/><path d="M40-158l-61 5" stroke-width="9.4" stroke="#c2e1ffEC"/><path d="M40-167l-60-4" stroke-width="9.4" stroke="#fff500ED"/><path d="M152-133l52 30" stroke-width="9.4" stroke="#fffED"/><path d="M155-141l55 22" stroke-width="9.4" stroke="#005bbbED"/><path d="M130-213l31-50" stroke-width="9.4" stroke="#fff500EE"/><path d="M157-150l56 12" stroke-width="9.4" stroke="#c2e1ffEE"/><path d="M126-214l26-51" stroke-width="9.4" stroke="#fff500EE"/><path d="M60-202l-39-39" stroke-width="9.5" stroke="#005bbbEF"/><path d="M151-176l51-14" stroke-width="9.5" stroke="#fffF1"/><path d="M118-211l17-49" stroke-width="9.5" stroke="#fff500F2"/><path d="M149-150l48 13" stroke-width="9.6" stroke="#c2e1ffF2"/><path d="M120-130l20 32" stroke-width="9.8" stroke="#fffF8"/><path d="M133-160l34 2" stroke-width="9.8" stroke="#c2e1ffF9"/><path d="M70-175l-31-13" stroke-width="9.8" stroke="#fff500F9"/><path d="M101-134l1 29" stroke-width="9.9" stroke="#fffFB"/></g></svg>