<svg width="1200" height="675" viewBox="-500 -500 1200 675" xmlns="http://www.w3.org/2000/svg"><path d="M-500-500h1200v675h-1200z" fill="#000"/><style>.sparkles path{stroke-linecap:round}</style><g class="sparkles"><path d="M90-173l-11-10" stroke-width="1.0" stroke="#fff5000"/><path d="M98-179l-3-16" stroke-width="1.0" stroke="#fff5001"/><path d="M93-197l-7-34" stroke-width="1.2" stroke="#fff5005"/><path d="M78-135l-22 28" stroke-width="1.2" stroke="#fff5"/><path d="M63-173l-37-10" stroke-width="1.2" stroke="#fff6"/><path d="M77-132l-23 31" stroke-width="1.2" stroke="#fff5007"/><path d="M93-124l-7 39" stroke-width="1.3" stroke="#fff7"/><path d="M61-154l-38 8" stroke-width="1.3" stroke="#fff5007"/><path d="M144-145l44 17" stroke-width="1.4" stroke="#005bbbA"/><path d="M77-120l-22 42" stroke-width="1.4" stroke="#c2e1ffB"/><path d="M101-213l0-50" stroke-width="1.4" stroke="#fff500C"/><path d="M115-113l14 50" stroke-width="1.5" stroke="#fff500D"/><path d="M129-208l29-45" stroke-width="1.5" stroke="#005bbbD"/><path d="M56-131l-44 32" stroke-width="1.5" stroke="#c2e1ffE"/><path d="M115-218l14-56" stroke-width="1.6" stroke="#fff10"/><path d="M54-121l-47 41" stroke-width="1.7" stroke="#fff12"/><path d="M114-102l15 61" stroke-width="1.7" stroke="#005bbb13"/><path d="M152-127l53 35" stroke-width="1.7" stroke="#005bbb13"/><path d="M149-122l49 41" stroke-width="1.7" stroke="#005bbb14"/><path d="M61-218l-39-56" stroke-width="1.8" stroke="#fff50017"/><path d="M52-112l-48 51" stroke-width="1.9" stroke="#005bbb18"/><path d="M85-238l-15-75" stroke-width="2.1" stroke="#005bbb1E"/><path d="M169-125l68 38" stroke-width="2.1" stroke="#fff20"/><path d="M172-195l72-33" stroke-width="2.2" stroke="#fff20"/><path d="M175-188l76-26" stroke-width="2.2" stroke="#005bbb21"/><path d="M20-143l-81 20" stroke-width="2.3" stroke="#fff24"/><path d="M22-190l-79-27" stroke-width="2.3" stroke="#005bbb24"/><path d="M33-113l-67 49" stroke-width="2.3" stroke="#fff50025"/><path d="M22-192l-78-30" stroke-width="2.3" stroke="#005bbb25"/><path d="M184-145l84 18" stroke-width="2.4" stroke="#005bbb28"/><path d="M78-249l-23-87" stroke-width="2.6" stroke="#c2e1ff2C"/><path d="M106-252l6-89" stroke-width="2.6" stroke="#005bbb2C"/><path d="M39-92l-61 70" stroke-width="2.7" stroke="#fff31"/><path d="M36-95l-64 68" stroke-width="2.7" stroke="#005bbb31"/><path d="M175-219l76-56" stroke-width="2.8" stroke="#005bbb32"/><path d="M194-162l94 0" stroke-width="2.8" stroke="#005bbb32"/><path d="M91-69l-8 94" stroke-width="2.8" stroke="#005bbb32"/><path d="M137-249l37-87" stroke-width="2.8" stroke="#c2e1ff32"/><path d="M177-219l77-57" stroke-width="2.9" stroke="#005bbb34"/><path d="M195-182l94-20" stroke-width="2.9" stroke="#005bbb36"/><path d="M74-256l-26-94" stroke-width="2.9" stroke="#005bbb37"/><path d="M188-208l87-46" stroke-width="3.0" stroke="#fff39"/><path d="M154-79l54 84" stroke-width="3.1" stroke="#fff5003A"/><path d="M175-94l75 68" stroke-width="3.2" stroke="#c2e1ff3E"/><path d="M192-211l92-49" stroke-width="3.4" stroke="#fff50043"/><path d="M116-59l16 104" stroke-width="3.4" stroke="#fff50044"/><path d="M-2-138l-102 25" stroke-width="3.4" stroke="#fff50044"/><path d="M46-253l-54-90" stroke-width="3.5" stroke="#fff50045"/><path d="M-2-192l-103-30" stroke-width="3.6" stroke="#fff48"/><path d="M131-60l32 102" stroke-width="3.6" stroke="#005bbb49"/><path d="M36-250l-64-88" stroke-width="3.7" stroke="#c2e1ff4D"/><path d="M153-258l53-95" stroke-width="3.8" stroke="#fff4D"/><path d="M4-214l-97-52" stroke-width="3.8" stroke="#fff5004E"/><path d="M150-64l51 98" stroke-width="3.9" stroke="#fff52"/><path d="M-10-156l-111 7" stroke-width="3.9" stroke="#fff52"/><path d="M16-90l-83 72" stroke-width="3.9" stroke="#fff50052"/><path d="M207-131l106 32" stroke-width="4.0" stroke="#005bbb54"/><path d="M140-266l41-104" stroke-width="4.0" stroke="#fff55"/><path d="M100-274l0-111" stroke-width="4.0" stroke="#005bbb55"/><path d="M18-239l-81-77" stroke-width="4.1" stroke="#fff50056"/><path d="M-13-159l-113 3" stroke-width="4.2" stroke="#fff5A"/><path d="M-13-174l-113-11" stroke-width="4.2" stroke="#005bbb5B"/><path d="M173-76l74 86" stroke-width="4.2" stroke="#005bbb5B"/><path d="M-5-207l-104-44" stroke-width="4.3" stroke="#c2e1ff5C"/><path d="M12-90l-87 73" stroke-width="4.3" stroke="#fff5C"/><path d="M84-50l-17 113" stroke-width="4.3" stroke="#fff5D"/><path d="M-11-186l-112-24" stroke-width="4.3" stroke="#c2e1ff5D"/><path d="M17-241l-84-78" stroke-width="4.4" stroke="#c2e1ff5F"/><path d="M213-181l113-18" stroke-width="4.4" stroke="#c2e1ff60"/><path d="M18-82l-82 80" stroke-width="4.5" stroke="#c2e1ff61"/><path d="M57-56l-44 107" stroke-width="4.5" stroke="#fff50063"/><path d="M-11-194l-111-32" stroke-width="4.5" stroke="#c2e1ff64"/><path d="M197-100l97 63" stroke-width="4.6" stroke="#005bbb64"/><path d="M209-200l110-38" stroke-width="4.6" stroke="#fff66"/><path d="M-15-172l-116-10" stroke-width="4.6" stroke="#fff50066"/><path d="M19-79l-80 83" stroke-width="4.6" stroke="#fff67"/><path d="M167-67l66 95" stroke-width="4.7" stroke="#005bbb67"/><path d="M8-91l-91 71" stroke-width="4.7" stroke="#c2e1ff67"/><path d="M216-172l116-10" stroke-width="4.8" stroke="#c2e1ff6A"/><path d="M97-46l-3 117" stroke-width="4.8" stroke="#c2e1ff6A"/><path d="M211-127l111 35" stroke-width="4.8" stroke="#fff5006B"/><path d="M-16-175l-116-12" stroke-width="4.8" stroke="#c2e1ff6C"/><path d="M-13-192l-114-29" stroke-width="4.9" stroke="#fff6E"/><path d="M198-227l98-64" stroke-width="4.9" stroke="#c2e1ff6E"/><path d="M-8-118l-109 45" stroke-width="4.9" stroke="#005bbb6F"/><path d="M10-238l-90-75" stroke-width="4.9" stroke="#fff6F"/><path d="M-15-184l-115-22" stroke-width="5.0" stroke="#fff70"/><path d="M18-247l-82-84" stroke-width="5.0" stroke="#c2e1ff71"/><path d="M217-166l118-3" stroke-width="5.0" stroke="#fff71"/><path d="M-17-159l-118 3" stroke-width="5.0" stroke="#fff50072"/><path d="M140-273l41-111" stroke-width="5.1" stroke="#c2e1ff74"/><path d="M12-241l-88-78" stroke-width="5.2" stroke="#fff50075"/><path d="M17-79l-83 84" stroke-width="5.2" stroke="#fff50076"/><path d="M142-52l42 110" stroke-width="5.3" stroke="#fff5007B"/><path d="M3-95l-97 67" stroke-width="5.4" stroke="#fff7D"/><path d="M46-57l-53 105" stroke-width="5.6" stroke="#fff50083"/><path d="M217-151l118 12" stroke-width="5.7" stroke="#fff83"/><path d="M18-247l-82-85" stroke-width="5.7" stroke="#fff50086"/><path d="M78-278l-22-116" stroke-width="5.7" stroke="#fff50086"/><path d="M70-277l-29-114" stroke-width="5.8" stroke="#005bbb87"/><path d="M92-45l-9 118" stroke-width="5.8" stroke="#c2e1ff88"/><path d="M209-119l110 43" stroke-width="5.9" stroke="#005bbb8A"/><path d="M55-271l-45-108" stroke-width="6.0" stroke="#fff8C"/><path d="M192-90l93 72" stroke-width="6.1" stroke="#c2e1ff8F"/><path d="M200-101l99 62" stroke-width="6.1" stroke="#c2e1ff8F"/><path d="M8-89l-91 73" stroke-width="6.1" stroke="#fff90"/><path d="M137-273l38-111" stroke-width="6.1" stroke="#fff50090"/><path d="M143-271l43-108" stroke-width="6.2" stroke="#fff50094"/><path d="M135-273l36-110" stroke-width="6.4" stroke="#c2e1ff97"/><path d="M190-89l89 73" stroke-width="6.4" stroke="#fff50099"/><path d="M-11-187l-112-25" stroke-width="6.7" stroke="#c2e1ffA0"/><path d="M4-101l-96 61" stroke-width="6.7" stroke="#fffA1"/><path d="M166-70l66 92" stroke-width="6.7" stroke="#c2e1ffA2"/><path d="M207-201l107-38" stroke-width="6.7" stroke="#fff500A2"/><path d="M19-242l-82-79" stroke-width="6.7" stroke="#005bbbA2"/><path d="M99-49l-2 113" stroke-width="6.8" stroke="#fff500A3"/><path d="M175-78l75 84" stroke-width="6.8" stroke="#005bbbA5"/><path d="M22-82l-77 81" stroke-width="6.9" stroke="#fffA8"/><path d="M115-273l16-111" stroke-width="7.0" stroke="#c2e1ffA8"/><path d="M-11-151l-111 12" stroke-width="7.0" stroke="#c2e1ffA9"/><path d="M18-237l-82-75" stroke-width="7.0" stroke="#c2e1ffAA"/><path d="M187-231l87-69" stroke-width="7.0" stroke="#005bbbAB"/><path d="M188-229l87-66" stroke-width="7.2" stroke="#fffAE"/><path d="M145-262l46-100" stroke-width="7.2" stroke="#005bbbAE"/><path d="M68-267l-32-105" stroke-width="7.2" stroke="#fff500AE"/><path d="M178-88l78 74" stroke-width="7.4" stroke="#c2e1ffB4"/><path d="M44-71l-55 92" stroke-width="7.4" stroke="#fff500B5"/><path d="M116-268l16-106" stroke-width="7.4" stroke="#c2e1ffB5"/><path d="M33-245l-68-82" stroke-width="7.4" stroke="#fff500B6"/><path d="M206-166l107-4" stroke-width="7.5" stroke="#fff500B6"/><path d="M172-85l73 78" stroke-width="7.5" stroke="#fffB6"/><path d="M81-266l-19-104" stroke-width="7.5" stroke="#fffB8"/><path d="M200-198l99-35" stroke-width="7.5" stroke="#fffB8"/><path d="M202-184l102-22" stroke-width="7.6" stroke="#005bbbBB"/><path d="M-3-146l-103 16" stroke-width="7.6" stroke="#c2e1ffBB"/><path d="M36-83l-65 80" stroke-width="7.7" stroke="#fffBE"/><path d="M62-69l-38 94" stroke-width="7.8" stroke="#fff500C1"/><path d="M196-193l96-31" stroke-width="7.8" stroke="#fffC1"/><path d="M1-143l-99 19" stroke-width="7.8" stroke="#c2e1ffC1"/><path d="M142-71l42 91" stroke-width="7.9" stroke="#005bbbC2"/><path d="M175-228l75-65" stroke-width="7.9" stroke="#005bbbC4"/><path d="M178-224l78-61" stroke-width="7.9" stroke="#005bbbC4"/><path d="M2-178l-98-15" stroke-width="8.0" stroke="#005bbbC4"/><path d="M198-173l99-10" stroke-width="8.0" stroke="#c2e1ffC5"/><path d="M67-255l-32-93" stroke-width="8.0" stroke="#c2e1ffC6"/><path d="M146-77l45 85" stroke-width="8.1" stroke="#fffC8"/><path d="M51-81l-49 81" stroke-width="8.2" stroke="#005bbbCB"/><path d="M194-161l95 1" stroke-width="8.2" stroke="#fffCC"/><path d="M161-234l62-72" stroke-width="8.2" stroke="#fffCC"/><path d="M129-251l29-89" stroke-width="8.2" stroke="#c2e1ffCD"/><path d="M165-96l65 66" stroke-width="8.3" stroke="#fff500CE"/><path d="M16-126l-83 36" stroke-width="8.4" stroke="#c2e1ffD0"/><path d="M186-133l86 29" stroke-width="8.4" stroke="#005bbbD0"/><path d="M44-233l-56-71" stroke-width="8.4" stroke="#fff500D1"/><path d="M168-222l67-60" stroke-width="8.4" stroke="#fffD1"/><path d="M139-81l38 81" stroke-width="8.4" stroke="#fffD2"/><path d="M26-210l-74-48" stroke-width="8.5" stroke="#c2e1ffD4"/><path d="M187-170l87-8" stroke-width="8.5" stroke="#005bbbD5"/><path d="M121-243l22-81" stroke-width="8.7" stroke="#005bbbD9"/><path d="M169-116l69 46" stroke-width="8.7" stroke="#fffDA"/><path d="M82-83l-19 80" stroke-width="8.7" stroke="#fff500DB"/><path d="M52-99l-48 64" stroke-width="8.8" stroke="#fff500DD"/><path d="M178-171l79-9" stroke-width="8.9" stroke="#c2e1ffDE"/><path d="M29-146l-71 16" stroke-width="9.0" stroke="#c2e1ffE3"/><path d="M129-226l29-64" stroke-width="9.1" stroke="#fff500E6"/><path d="M116-229l16-66" stroke-width="9.2" stroke="#c2e1ffE7"/><path d="M120-98l20 64" stroke-width="9.2" stroke="#c2e1ffE8"/><path d="M128-102l28 60" stroke-width="9.2" stroke="#fffE8"/><path d="M41-181l-60-19" stroke-width="9.3" stroke="#fff500EB"/><path d="M150-188l50-25" stroke-width="9.5" stroke="#c2e1ffEF"/><path d="M125-211l24-49" stroke-width="9.5" stroke="#005bbbF0"/><path d="M152-176l53-14" stroke-width="9.5" stroke="#005bbbF0"/><path d="M91-109l-10 53" stroke-width="9.5" stroke="#fffF0"/><path d="M50-180l-50-17" stroke-width="9.5" stroke="#005bbbF1"/><path d="M123-206l22-44" stroke-width="9.6" stroke="#fffF3"/><path d="M62-139l-39 24" stroke-width="9.7" stroke="#fffF5"/><path d="M129-131l28 32" stroke-width="9.7" stroke="#005bbbF6"/><path d="M121-138l21 25" stroke-width="9.8" stroke="#fffFA"/><path d="M81-155l-20 8" stroke-width="9.9" stroke="#fff500FC"/><path d="M87-170l-13-7" stroke-width="10.0" stroke="#005bbbFD"/><path d="M108-165l8-3" stroke-width="10.0" stroke="#fff500FE"/></g></svg>