<svg width="1200" height="675" viewBox="-500 -500 1200 675" xmlns="http://www.w3.org/2000/svg"><path d="M-500-500h1200v675h-1200z" fill="#000"/><style>.sparkles path{stroke-linecap:round}</style><g class="sparkles"><path d="M109-157l8 5" stroke-width="1.0" stroke="#fff5000"/><path d="M92-149l-8 13" stroke-width="1.0" stroke="#c2e1ff1"/><path d="M109-178l10-16" stroke-width="1.1" stroke="#c2e1ff1"/><path d="M136-174l37-12" stroke-width="1.2" stroke="#c2e1ff6"/><path d="M137-144l38 19" stroke-width="1.3" stroke="#c2e1ff8"/><path d="M55-167l-44-4" stroke-width="1.3" stroke="#fff5009"/><path d="M137-193l37-30" stroke-width="1.4" stroke="#fff500A"/><path d="M141-134l41 28" stroke-width="1.4" stroke="#fffB"/><path d="M55-190l-46-27" stroke-width="1.5" stroke="#c2e1ffD"/><path d="M150-180l50-17" stroke-width="1.5" stroke="#c2e1ffD"/><path d="M85-108l-15 55" stroke-width="1.6" stroke="#fffF"/><path d="M158-165l58-2" stroke-width="1.6" stroke="#fff50010"/><path d="M128-110l28 53" stroke-width="1.6" stroke="#fff11"/><path d="M124-108l24 55" stroke-width="1.6" stroke="#fff50011"/><path d="M62-116l-38 46" stroke-width="1.6" stroke="#fff50011"/><path d="M94-228l-5-66" stroke-width="1.8" stroke="#fff50015"/><path d="M35-147l-65 16" stroke-width="1.8" stroke="#005bbb16"/><path d="M95-93l-4 70" stroke-width="1.9" stroke="#005bbb18"/><path d="M30-158l-70 4" stroke-width="1.9" stroke="#c2e1ff19"/><path d="M69-99l-31 64" stroke-width="1.9" stroke="#c2e1ff19"/><path d="M144-105l44 58" stroke-width="2.0" stroke="#fff1B"/><path d="M36-198l-64-36" stroke-width="2.0" stroke="#fff5001B"/><path d="M30-188l-70-26" stroke-width="2.0" stroke="#c2e1ff1C"/><path d="M34-199l-66-37" stroke-width="2.0" stroke="#fff1D"/><path d="M26-177l-75-14" stroke-width="2.0" stroke="#005bbb1D"/><path d="M53-223l-47-61" stroke-width="2.1" stroke="#005bbb1E"/><path d="M67-92l-33 71" stroke-width="2.1" stroke="#005bbb1F"/><path d="M171-127l71 36" stroke-width="2.2" stroke="#005bbb21"/><path d="M176-131l77 31" stroke-width="2.3" stroke="#fff24"/><path d="M182-151l81 11" stroke-width="2.3" stroke="#005bbb24"/><path d="M72-85l-29 78" stroke-width="2.3" stroke="#fff24"/><path d="M62-237l-38-74" stroke-width="2.3" stroke="#c2e1ff24"/><path d="M17-179l-83-16" stroke-width="2.4" stroke="#c2e1ff26"/><path d="M18-190l-82-27" stroke-width="2.4" stroke="#fff28"/><path d="M126-248l26-86" stroke-width="2.6" stroke="#fff2C"/><path d="M19-207l-81-45" stroke-width="2.7" stroke="#fff30"/><path d="M113-69l13 93" stroke-width="2.8" stroke="#005bbb32"/><path d="M177-106l77 56" stroke-width="2.8" stroke="#fff50034"/><path d="M127-68l27 94" stroke-width="3.0" stroke="#c2e1ff38"/><path d="M75-258l-25-95" stroke-width="3.0" stroke="#fff39"/><path d="M193-124l92 38" stroke-width="3.1" stroke="#c2e1ff3B"/><path d="M154-77l54 85" stroke-width="3.2" stroke="#fff5003D"/><path d="M160-245l59-82" stroke-width="3.2" stroke="#fff3E"/><path d="M47-75l-53 87" stroke-width="3.2" stroke="#c2e1ff3F"/><path d="M190-213l90-51" stroke-width="3.3" stroke="#c2e1ff41"/><path d="M135-260l36-97" stroke-width="3.3" stroke="#005bbb42"/><path d="M194-118l94 45" stroke-width="3.4" stroke="#c2e1ff43"/><path d="M75-264l-24-102" stroke-width="3.4" stroke="#c2e1ff44"/><path d="M119-59l18 104" stroke-width="3.5" stroke="#005bbb45"/><path d="M205-145l105 17" stroke-width="3.5" stroke="#fff47"/><path d="M16-97l-84 65" stroke-width="3.6" stroke="#c2e1ff48"/><path d="M196-210l97-48" stroke-width="3.6" stroke="#fff4A"/><path d="M204-191l104-28" stroke-width="3.7" stroke="#c2e1ff4B"/><path d="M102-270l2-108" stroke-width="3.7" stroke="#fff5004B"/><path d="M161-251l62-89" stroke-width="3.7" stroke="#fff5004B"/><path d="M106-270l6-108" stroke-width="3.7" stroke="#fff5004B"/><path d="M129-58l29 105" stroke-width="3.7" stroke="#fff4C"/><path d="M29-245l-70-83" stroke-width="3.7" stroke="#fff5004D"/><path d="M119-270l19-108" stroke-width="3.8" stroke="#fff5004E"/><path d="M11-99l-89 64" stroke-width="3.8" stroke="#fff50"/><path d="M175-243l75-80" stroke-width="3.8" stroke="#fff50"/><path d="M156-258l55-95" stroke-width="3.9" stroke="#c2e1ff52"/><path d="M208-136l107 26" stroke-width="3.9" stroke="#005bbb53"/><path d="M-11-170l-110-8" stroke-width="4.0" stroke="#fff50053"/><path d="M51-63l-48 100" stroke-width="4.0" stroke="#fff50054"/><path d="M94-274l-6-111" stroke-width="4.0" stroke="#fff54"/><path d="M211-176l110-13" stroke-width="4.0" stroke="#c2e1ff54"/><path d="M204-204l104-42" stroke-width="4.1" stroke="#fff50056"/><path d="M22-82l-78 81" stroke-width="4.1" stroke="#c2e1ff58"/><path d="M197-103l96 60" stroke-width="4.2" stroke="#fff5005B"/><path d="M182-242l82-80" stroke-width="4.4" stroke="#fff5005F"/><path d="M112-278l12-116" stroke-width="4.7" stroke="#005bbb68"/><path d="M67-51l-33 112" stroke-width="4.8" stroke="#c2e1ff6A"/><path d="M3-97l-97 66" stroke-width="4.9" stroke="#fff6E"/><path d="M-15-139l-115 24" stroke-width="5.0" stroke="#fff50071"/><path d="M217-152l117 11" stroke-width="5.1" stroke="#c2e1ff73"/><path d="M10-239l-89-76" stroke-width="5.1" stroke="#fff73"/><path d="M217-155l118 8" stroke-width="5.1" stroke="#fff75"/><path d="M91-45l-9 117" stroke-width="5.1" stroke="#fff75"/><path d="M143-53l43 110" stroke-width="5.2" stroke="#c2e1ff77"/><path d="M198-228l98-66" stroke-width="5.3" stroke="#fff50079"/><path d="M79-279l-21-116" stroke-width="5.3" stroke="#fff79"/><path d="M217-177l117-14" stroke-width="5.4" stroke="#fff7D"/><path d="M39-264l-60-101" stroke-width="5.5" stroke="#c2e1ff7F"/><path d="M109-280l8-118" stroke-width="5.5" stroke="#fff7F"/><path d="M7-235l-93-73" stroke-width="5.6" stroke="#fff50083"/><path d="M-17-151l-118 12" stroke-width="5.7" stroke="#c2e1ff83"/><path d="M123-278l24-116" stroke-width="5.7" stroke="#fff50085"/><path d="M217-176l118-13" stroke-width="5.7" stroke="#fff50085"/><path d="M-9-207l-109-44" stroke-width="5.9" stroke="#fff89"/><path d="M44-59l-56 103" stroke-width="6.0" stroke="#fff5008F"/><path d="M16-244l-83-82" stroke-width="6.1" stroke="#005bbb91"/><path d="M15-243l-85-80" stroke-width="6.1" stroke="#fff91"/><path d="M-16-154l-116 9" stroke-width="6.2" stroke="#fff50094"/><path d="M44-265l-56-102" stroke-width="6.2" stroke="#c2e1ff94"/><path d="M53-57l-48 106" stroke-width="6.3" stroke="#fff97"/><path d="M160-63l60 99" stroke-width="6.4" stroke="#fff97"/><path d="M172-72l73 90" stroke-width="6.4" stroke="#fff50098"/><path d="M210-198l110-35" stroke-width="6.4" stroke="#005bbb99"/><path d="M205-114l105 48" stroke-width="6.4" stroke="#fff99"/><path d="M123-276l22-113" stroke-width="6.5" stroke="#fff5009A"/><path d="M17-82l-83 80" stroke-width="6.5" stroke="#fff5009B"/><path d="M-7-123l-108 40" stroke-width="6.6" stroke="#005bbb9E"/><path d="M111-277l10-114" stroke-width="6.6" stroke="#fff5009E"/><path d="M1-220l-98-57" stroke-width="6.7" stroke="#fff500A1"/><path d="M43-261l-56-99" stroke-width="6.7" stroke="#fff500A2"/><path d="M-13-164l-113-1" stroke-width="6.8" stroke="#c2e1ffA4"/><path d="M1-108l-99 54" stroke-width="6.8" stroke="#c2e1ffA4"/><path d="M209-135l110 28" stroke-width="6.8" stroke="#fff500A5"/><path d="M30-74l-71 88" stroke-width="6.8" stroke="#c2e1ffA5"/><path d="M61-57l-39 106" stroke-width="6.9" stroke="#fff500A6"/><path d="M5-223l-95-60" stroke-width="6.9" stroke="#fffA6"/><path d="M-8-131l-108 32" stroke-width="6.9" stroke="#fffA6"/><path d="M-3-117l-102 46" stroke-width="6.9" stroke="#c2e1ffA6"/><path d="M210-180l111-18" stroke-width="7.0" stroke="#fff500A8"/><path d="M66-268l-33-106" stroke-width="7.0" stroke="#c2e1ffAA"/><path d="M59-59l-40 103" stroke-width="7.1" stroke="#c2e1ffAB"/><path d="M167-76l66 87" stroke-width="7.2" stroke="#fff500AF"/><path d="M20-237l-79-74" stroke-width="7.2" stroke="#c2e1ffB0"/><path d="M151-258l51-96" stroke-width="7.3" stroke="#c2e1ffB1"/><path d="M25-85l-75 78" stroke-width="7.3" stroke="#c2e1ffB3"/><path d="M-8-155l-107 7" stroke-width="7.3" stroke="#005bbbB3"/><path d="M201-130l101 32" stroke-width="7.5" stroke="#c2e1ffB7"/><path d="M102-267l2-105" stroke-width="7.6" stroke="#fffB9"/><path d="M22-92l-77 71" stroke-width="7.6" stroke="#005bbbBA"/><path d="M-1-190l-101-27" stroke-width="7.6" stroke="#c2e1ffBB"/><path d="M70-262l-30-100" stroke-width="7.6" stroke="#fffBB"/><path d="M3-190l-98-28" stroke-width="7.8" stroke="#fffC1"/><path d="M72-259l-28-97" stroke-width="7.9" stroke="#fffC2"/><path d="M199-181l98-19" stroke-width="7.9" stroke="#c2e1ffC2"/><path d="M171-233l71-71" stroke-width="7.9" stroke="#c2e1ffC3"/><path d="M43-242l-57-80" stroke-width="8.0" stroke="#c2e1ffC6"/><path d="M138-74l37 88" stroke-width="8.1" stroke="#005bbbC9"/><path d="M149-243l48-81" stroke-width="8.2" stroke="#fffCC"/><path d="M157-89l57 74" stroke-width="8.3" stroke="#c2e1ffCE"/><path d="M10-182l-91-20" stroke-width="8.3" stroke="#c2e1ffCE"/><path d="M192-157l92 6" stroke-width="8.3" stroke="#c2e1ffCF"/><path d="M142-81l43 81" stroke-width="8.3" stroke="#fffCF"/><path d="M36-228l-64-66" stroke-width="8.3" stroke="#c2e1ffCF"/><path d="M16-127l-83 35" stroke-width="8.4" stroke="#fff500D0"/><path d="M91-73l-10 90" stroke-width="8.4" stroke="#005bbbD1"/><path d="M190-162l90 0" stroke-width="8.4" stroke="#fff500D2"/><path d="M184-131l84 31" stroke-width="8.4" stroke="#fff500D2"/><path d="M25-114l-76 48" stroke-width="8.4" stroke="#fffD2"/><path d="M38-98l-62 64" stroke-width="8.4" stroke="#c2e1ffD2"/><path d="M63-244l-36-81" stroke-width="8.5" stroke="#005bbbD3"/><path d="M84-77l-17 86" stroke-width="8.5" stroke="#fffD5"/><path d="M40-99l-59 63" stroke-width="8.6" stroke="#005bbbD5"/><path d="M187-162l86 1" stroke-width="8.6" stroke="#fff500D6"/><path d="M58-87l-41 75" stroke-width="8.6" stroke="#005bbbD6"/><path d="M183-179l83-16" stroke-width="8.6" stroke="#fff500D8"/><path d="M98-246l-1-84" stroke-width="8.7" stroke="#fffD9"/><path d="M77-243l-22-80" stroke-width="8.7" stroke="#fffD9"/><path d="M57-231l-43-68" stroke-width="8.8" stroke="#fffDC"/><path d="M140-94l40 69" stroke-width="8.8" stroke="#fff500DD"/><path d="M161-113l60 49" stroke-width="8.9" stroke="#c2e1ffDF"/><path d="M41-112l-60 50" stroke-width="8.9" stroke="#fff500DF"/><path d="M147-101l47 61" stroke-width="8.9" stroke="#fff500E0"/><path d="M161-210l60-47" stroke-width="8.9" stroke="#fffE0"/><path d="M175-155l76 8" stroke-width="8.9" stroke="#c2e1ffE1"/><path d="M99-238l-2-76" stroke-width="9.0" stroke="#fffE1"/><path d="M108-90l7 72" stroke-width="9.0" stroke="#fff500E3"/><path d="M44-120l-56 42" stroke-width="9.1" stroke="#fff500E6"/><path d="M57-108l-42 55" stroke-width="9.1" stroke="#fffE6"/><path d="M145-202l44-40" stroke-width="9.4" stroke="#fff500ED"/><path d="M155-175l56-12" stroke-width="9.4" stroke="#c2e1ffEF"/><path d="M59-126l-41 36" stroke-width="9.5" stroke="#fff500F0"/><path d="M88-109l-12 53" stroke-width="9.5" stroke="#fffF0"/><path d="M118-213l18-51" stroke-width="9.5" stroke="#fff500F0"/><path d="M72-119l-28 44" stroke-width="9.5" stroke="#005bbbF2"/><path d="M152-165l51-3" stroke-width="9.5" stroke="#c2e1ffF2"/><path d="M55-147l-45 16" stroke-width="9.6" stroke="#fff500F4"/><path d="M136-182l37-20" stroke-width="9.7" stroke="#c2e1ffF6"/><path d="M64-145l-36 18" stroke-width="9.7" stroke="#fffF7"/><path d="M79-196l-22-34" stroke-width="9.7" stroke="#c2e1ffF7"/><path d="M132-142l32 21" stroke-width="9.8" stroke="#fffF8"/><path d="M82-136l-18 27" stroke-width="9.8" stroke="#fff500FA"/><path d="M95-190l-6-28" stroke-width="9.9" stroke="#fffFB"/><path d="M80-181l-20-19" stroke-width="9.9" stroke="#005bbbFB"/><path d="M122-158l22 4" stroke-width="9.9" stroke="#fffFC"/><path d="M87-155l-13 7" stroke-width="10.0" stroke="#fff500FE"/></g></svg>