<svg width="1200" height="675" viewBox="-500 -500 1200 675" xmlns="http://www.w3.org/2000/svg"><path d="M-500-500h1200v675h-1200z" fill="#000"/><style>.sparkles path{stroke-linecap:round}</style><g class="sparkles"><path d="M106-172l5-9" stroke-width="1.0" stroke="#fff0"/><path d="M87-160l-12 2" stroke-width="1.0" stroke="#fff0"/><path d="M104-177l4-14" stroke-width="1.0" stroke="#005bbb1"/><path d="M87-172l-13-10" stroke-width="1.0" stroke="#c2e1ff1"/><path d="M107-144l7 18" stroke-width="1.1" stroke="#fff1"/><path d="M138-151l37 12" stroke-width="1.3" stroke="#fff7"/><path d="M77-201l-23-38" stroke-width="1.3" stroke="#fff5009"/><path d="M55-160l-46 3" stroke-width="1.3" stroke="#c2e1ff9"/><path d="M106-108l6 54" stroke-width="1.5" stroke="#fffE"/><path d="M67-112l-32 51" stroke-width="1.6" stroke="#c2e1ff11"/><path d="M92-99l-8 63" stroke-width="1.7" stroke="#c2e1ff14"/><path d="M144-210l44-48" stroke-width="1.7" stroke="#005bbb14"/><path d="M159-130l59 33" stroke-width="1.8" stroke="#c2e1ff16"/><path d="M82-228l-18-66" stroke-width="1.8" stroke="#c2e1ff17"/><path d="M57-109l-42 54" stroke-width="1.8" stroke="#fff50017"/><path d="M63-100l-37 62" stroke-width="1.9" stroke="#005bbb1A"/><path d="M142-222l41-60" stroke-width="2.0" stroke="#005bbb1B"/><path d="M25-149l-76 13" stroke-width="2.1" stroke="#005bbb1E"/><path d="M97-86l-4 77" stroke-width="2.1" stroke="#fff5001E"/><path d="M24-177l-75-15" stroke-width="2.1" stroke="#fff5001E"/><path d="M178-170l78-8" stroke-width="2.1" stroke="#c2e1ff20"/><path d="M131-90l30 73" stroke-width="2.2" stroke="#fff50020"/><path d="M66-237l-34-74" stroke-width="2.3" stroke="#c2e1ff23"/><path d="M124-244l23-81" stroke-width="2.4" stroke="#c2e1ff26"/><path d="M182-183l83-20" stroke-width="2.4" stroke="#fff50026"/><path d="M81-79l-19 84" stroke-width="2.4" stroke="#005bbb28"/><path d="M15-141l-84 22" stroke-width="2.5" stroke="#fff50029"/><path d="M140-85l40 78" stroke-width="2.5" stroke="#fff50029"/><path d="M40-230l-59-68" stroke-width="2.6" stroke="#fff2C"/><path d="M165-225l66-62" stroke-width="2.6" stroke="#c2e1ff2D"/><path d="M97-254l-3-91" stroke-width="2.6" stroke="#fff2E"/><path d="M131-76l31 87" stroke-width="2.7" stroke="#c2e1ff2F"/><path d="M15-125l-85 38" stroke-width="2.7" stroke="#fff50030"/><path d="M67-250l-32-88" stroke-width="2.8" stroke="#c2e1ff31"/><path d="M195-162l94 0" stroke-width="2.8" stroke="#fff33"/><path d="M190-132l90 31" stroke-width="2.8" stroke="#005bbb34"/><path d="M88-257l-12-95" stroke-width="2.8" stroke="#c2e1ff34"/><path d="M111-67l10 96" stroke-width="2.9" stroke="#fff35"/><path d="M104-260l5-97" stroke-width="2.9" stroke="#fff50037"/><path d="M194-132l94 30" stroke-width="3.0" stroke="#fff50039"/><path d="M3-180l-98-18" stroke-width="3.0" stroke="#fff39"/><path d="M197-142l97 21" stroke-width="3.1" stroke="#fff5003A"/><path d="M119-64l20 98" stroke-width="3.1" stroke="#005bbb3B"/><path d="M5-127l-94 36" stroke-width="3.2" stroke="#005bbb3D"/><path d="M-2-152l-101 10" stroke-width="3.2" stroke="#c2e1ff3F"/><path d="M202-159l103 4" stroke-width="3.3" stroke="#fff40"/><path d="M193-119l94 43" stroke-width="3.3" stroke="#c2e1ff40"/><path d="M65-65l-34 97" stroke-width="3.3" stroke="#fff41"/><path d="M130-63l31 99" stroke-width="3.3" stroke="#005bbb42"/><path d="M158-76l58 86" stroke-width="3.3" stroke="#fff42"/><path d="M127-61l27 101" stroke-width="3.4" stroke="#c2e1ff44"/><path d="M127-60l28 102" stroke-width="3.5" stroke="#fff46"/><path d="M94-56l-7 107" stroke-width="3.6" stroke="#fff50049"/><path d="M18-232l-81-70" stroke-width="3.6" stroke="#005bbb49"/><path d="M-2-197l-102-35" stroke-width="3.7" stroke="#c2e1ff4B"/><path d="M110-53l10 109" stroke-width="3.8" stroke="#c2e1ff50"/><path d="M123-55l24 107" stroke-width="3.9" stroke="#fff50"/><path d="M200-209l100-46" stroke-width="3.9" stroke="#fff51"/><path d="M33-75l-67 87" stroke-width="3.9" stroke="#fff50051"/><path d="M204-201l104-38" stroke-width="3.9" stroke="#fff52"/><path d="M-10-151l-111 12" stroke-width="3.9" stroke="#005bbb53"/><path d="M7-223l-93-60" stroke-width="4.0" stroke="#fff53"/><path d="M-2-208l-102-45" stroke-width="4.0" stroke="#005bbb55"/><path d="M121-53l21 110" stroke-width="4.0" stroke="#fff56"/><path d="M206-125l105 37" stroke-width="4.1" stroke="#c2e1ff57"/><path d="M-12-151l-112 12" stroke-width="4.2" stroke="#fff59"/><path d="M190-231l89-69" stroke-width="4.2" stroke="#fff5005A"/><path d="M104-49l3 113" stroke-width="4.2" stroke="#005bbb5A"/><path d="M52-59l-48 103" stroke-width="4.3" stroke="#005bbb5D"/><path d="M148-266l48-104" stroke-width="4.3" stroke="#c2e1ff5E"/><path d="M204-210l104-48" stroke-width="4.4" stroke="#fff60"/><path d="M24-77l-77 86" stroke-width="4.4" stroke="#005bbb61"/><path d="M135-53l36 109" stroke-width="4.4" stroke="#c2e1ff61"/><path d="M151-59l50 104" stroke-width="4.5" stroke="#005bbb63"/><path d="M142-271l42-108" stroke-width="4.6" stroke="#fff67"/><path d="M205-112l104 50" stroke-width="4.7" stroke="#c2e1ff67"/><path d="M91-47l-9 116" stroke-width="4.7" stroke="#fff50067"/><path d="M165-66l65 96" stroke-width="4.7" stroke="#005bbb68"/><path d="M-16-174l-116-12" stroke-width="4.8" stroke="#005bbb6A"/><path d="M117-47l17 115" stroke-width="4.8" stroke="#005bbb6B"/><path d="M157-60l56 102" stroke-width="4.8" stroke="#c2e1ff6C"/><path d="M15-243l-85-81" stroke-width="4.9" stroke="#fff5006F"/><path d="M133-50l32 113" stroke-width="5.0" stroke="#005bbb70"/><path d="M207-211l107-48" stroke-width="5.1" stroke="#fff50073"/><path d="M105-280l4-118" stroke-width="5.2" stroke="#fff77"/><path d="M88-280l-11-117" stroke-width="5.2" stroke="#c2e1ff77"/><path d="M108-280l9-118" stroke-width="5.4" stroke="#fff7C"/><path d="M161-264l61-101" stroke-width="5.4" stroke="#c2e1ff7D"/><path d="M-8-115l-108 48" stroke-width="5.5" stroke="#005bbb7E"/><path d="M204-218l105-55" stroke-width="5.5" stroke="#fff5007E"/><path d="M2-229l-97-66" stroke-width="5.6" stroke="#fff50083"/><path d="M143-52l43 110" stroke-width="5.7" stroke="#005bbb84"/><path d="M-17-177l-117-14" stroke-width="5.8" stroke="#fff87"/><path d="M211-121l110 41" stroke-width="5.8" stroke="#005bbb87"/><path d="M163-63l63 100" stroke-width="5.8" stroke="#005bbb88"/><path d="M96-45l-5 118" stroke-width="5.8" stroke="#fff89"/><path d="M-7-210l-107-48" stroke-width="6.1" stroke="#fff50090"/><path d="M-13-133l-113 29" stroke-width="6.1" stroke="#c2e1ff91"/><path d="M1-100l-99 62" stroke-width="6.2" stroke="#fff92"/><path d="M116-47l15 116" stroke-width="6.2" stroke="#fff50093"/><path d="M-9-122l-110 40" stroke-width="6.2" stroke="#fff50094"/><path d="M-5-214l-104-51" stroke-width="6.3" stroke="#fff94"/><path d="M206-210l106-48" stroke-width="6.3" stroke="#fff50095"/><path d="M203-217l103-54" stroke-width="6.3" stroke="#fff96"/><path d="M7-94l-93 69" stroke-width="6.4" stroke="#005bbb9A"/><path d="M215-166l114-3" stroke-width="6.6" stroke="#fff5009D"/><path d="M6-228l-94-66" stroke-width="6.6" stroke="#005bbb9D"/><path d="M189-90l88 73" stroke-width="6.6" stroke="#fff9E"/><path d="M136-271l35-108" stroke-width="6.7" stroke="#fffA0"/><path d="M144-57l43 105" stroke-width="6.7" stroke="#005bbbA0"/><path d="M27-75l-72 88" stroke-width="6.7" stroke="#fff500A0"/><path d="M34-255l-67-92" stroke-width="6.7" stroke="#c2e1ffA2"/><path d="M207-199l108-36" stroke-width="6.8" stroke="#fff500A3"/><path d="M197-221l97-58" stroke-width="6.8" stroke="#fffA3"/><path d="M213-158l113 4" stroke-width="6.8" stroke="#fff500A4"/><path d="M213-163l113-1" stroke-width="6.8" stroke="#c2e1ffA4"/><path d="M189-232l90-69" stroke-width="6.8" stroke="#fff500A4"/><path d="M0-113l-100 50" stroke-width="7.0" stroke="#c2e1ffA9"/><path d="M10-97l-90 66" stroke-width="7.0" stroke="#fffAA"/><path d="M94-273l-6-111" stroke-width="7.0" stroke="#c2e1ffAA"/><path d="M147-63l46 100" stroke-width="7.1" stroke="#c2e1ffAD"/><path d="M38-253l-61-90" stroke-width="7.2" stroke="#005bbbAF"/><path d="M133-59l33 103" stroke-width="7.3" stroke="#c2e1ffB1"/><path d="M77-266l-23-104" stroke-width="7.5" stroke="#005bbbB7"/><path d="M-2-138l-102 25" stroke-width="7.5" stroke="#fffB9"/><path d="M82-264l-19-102" stroke-width="7.7" stroke="#c2e1ffBC"/><path d="M14-106l-86 57" stroke-width="7.7" stroke="#c2e1ffBD"/><path d="M150-252l50-90" stroke-width="7.7" stroke="#c2e1ffBE"/><path d="M181-226l80-63" stroke-width="7.7" stroke="#fff500BE"/><path d="M9-208l-91-46" stroke-width="7.8" stroke="#005bbbBF"/><path d="M38-82l-62 81" stroke-width="7.8" stroke="#c2e1ffBF"/><path d="M83-263l-17-100" stroke-width="7.8" stroke="#005bbbC0"/><path d="M28-233l-73-71" stroke-width="7.8" stroke="#005bbbC1"/><path d="M194-197l93-34" stroke-width="7.9" stroke="#fff500C3"/><path d="M26-230l-73-67" stroke-width="7.9" stroke="#c2e1ffC4"/><path d="M7-130l-93 33" stroke-width="8.0" stroke="#fffC5"/><path d="M145-75l46 87" stroke-width="8.0" stroke="#fffC6"/><path d="M192-196l92-34" stroke-width="8.0" stroke="#005bbbC6"/><path d="M44-83l-57 80" stroke-width="8.0" stroke="#fffC7"/><path d="M174-227l73-64" stroke-width="8.0" stroke="#c2e1ffC7"/><path d="M18-214l-83-52" stroke-width="8.1" stroke="#005bbbC7"/><path d="M181-214l80-51" stroke-width="8.1" stroke="#005bbbCA"/><path d="M194-178l94-15" stroke-width="8.2" stroke="#005bbbCB"/><path d="M181-212l81-49" stroke-width="8.2" stroke="#c2e1ffCB"/><path d="M191-138l90 24" stroke-width="8.2" stroke="#fff500CD"/><path d="M11-177l-90-15" stroke-width="8.4" stroke="#fffD1"/><path d="M18-200l-82-37" stroke-width="8.4" stroke="#c2e1ffD2"/><path d="M41-230l-59-67" stroke-width="8.4" stroke="#c2e1ffD2"/><path d="M138-243l39-81" stroke-width="8.4" stroke="#fff500D2"/><path d="M184-192l84-29" stroke-width="8.5" stroke="#fff500D3"/><path d="M17-131l-83 31" stroke-width="8.5" stroke="#005bbbD3"/><path d="M25-209l-75-47" stroke-width="8.5" stroke="#fff500D4"/><path d="M20-199l-80-36" stroke-width="8.5" stroke="#005bbbD4"/><path d="M141-90l42 73" stroke-width="8.7" stroke="#fffD9"/><path d="M58-91l-42 72" stroke-width="8.7" stroke="#005bbbD9"/><path d="M121-83l22 80" stroke-width="8.7" stroke="#fffDA"/><path d="M22-138l-78 24" stroke-width="8.7" stroke="#fffDB"/><path d="M24-137l-76 25" stroke-width="8.8" stroke="#005bbbDD"/><path d="M23-181l-77-19" stroke-width="8.8" stroke="#c2e1ffDE"/><path d="M176-181l77-18" stroke-width="8.9" stroke="#fff500DE"/><path d="M178-169l78-6" stroke-width="8.9" stroke="#fff500DF"/><path d="M32-194l-69-31" stroke-width="9.0" stroke="#c2e1ffE1"/><path d="M59-223l-40-61" stroke-width="9.0" stroke="#005bbbE3"/><path d="M169-176l68-14" stroke-width="9.1" stroke="#c2e1ffE6"/><path d="M34-144l-66 19" stroke-width="9.2" stroke="#fffE7"/><path d="M118-98l17 65" stroke-width="9.2" stroke="#005bbbE8"/><path d="M113-227l12-65" stroke-width="9.2" stroke="#c2e1ffE9"/><path d="M75-223l-25-61" stroke-width="9.2" stroke="#005bbbE9"/><path d="M164-166l64-3" stroke-width="9.3" stroke="#005bbbEA"/><path d="M136-112l36 51" stroke-width="9.3" stroke="#005bbbEB"/><path d="M145-120l45 43" stroke-width="9.3" stroke="#c2e1ffEC"/><path d="M101-102l1 60" stroke-width="9.4" stroke="#c2e1ffED"/><path d="M57-191l-43-28" stroke-width="9.6" stroke="#fffF2"/><path d="M132-200l32-37" stroke-width="9.6" stroke="#fffF3"/><path d="M126-122l25 41" stroke-width="9.6" stroke="#fffF3"/><path d="M56-160l-45 2" stroke-width="9.7" stroke="#005bbbF5"/><path d="M137-148l36 14" stroke-width="9.7" stroke="#fff500F7"/><path d="M134-158l35 4" stroke-width="9.8" stroke="#005bbbF9"/><path d="M129-171l28-8" stroke-width="9.9" stroke="#fff500FA"/><path d="M84-141l-15 22" stroke-width="9.9" stroke="#005bbbFB"/><path d="M121-169l22-6" stroke-width="9.9" stroke="#c2e1ffFC"/></g></svg>