<svg width="1200" height="675" viewBox="-500 -500 1200 675" xmlns="http://www.w3.org/2000/svg"><path d="M-500-500h1200v675h-1200z" fill="#000"/><style>.sparkles path{stroke-linecap:round}</style><g class="sparkles"><path d="M113-175l14-12" stroke-width="1.1" stroke="#005bbb1"/><path d="M76-193l-25-30" stroke-width="1.2" stroke="#005bbb7"/><path d="M140-157l40 5" stroke-width="1.3" stroke="#005bbb7"/><path d="M129-200l30-38" stroke-width="1.4" stroke="#fff500B"/><path d="M68-200l-32-38" stroke-width="1.4" stroke="#fff500B"/><path d="M45-154l-54 9" stroke-width="1.5" stroke="#fffE"/><path d="M81-215l-19-52" stroke-width="1.5" stroke="#c2e1ffF"/><path d="M128-212l28-49" stroke-width="1.6" stroke="#fff500F"/><path d="M78-109l-21 53" stroke-width="1.6" stroke="#fff10"/><path d="M88-105l-12 57" stroke-width="1.6" stroke="#c2e1ff10"/><path d="M45-138l-55 25" stroke-width="1.6" stroke="#fff11"/><path d="M74-107l-26 55" stroke-width="1.6" stroke="#005bbb12"/><path d="M38-183l-62-20" stroke-width="1.7" stroke="#005bbb15"/><path d="M173-158l72 4" stroke-width="2.0" stroke="#005bbb1B"/><path d="M133-228l32-65" stroke-width="2.0" stroke="#fff1B"/><path d="M171-182l71-20" stroke-width="2.0" stroke="#c2e1ff1B"/><path d="M121-234l21-72" stroke-width="2.0" stroke="#005bbb1C"/><path d="M155-214l56-51" stroke-width="2.0" stroke="#c2e1ff1D"/><path d="M135-230l35-68" stroke-width="2.1" stroke="#fff1E"/><path d="M115-238l16-75" stroke-width="2.1" stroke="#005bbb1E"/><path d="M56-97l-45 66" stroke-width="2.2" stroke="#005bbb21"/><path d="M65-91l-36 71" stroke-width="2.2" stroke="#fff21"/><path d="M62-90l-38 73" stroke-width="2.3" stroke="#c2e1ff23"/><path d="M83-81l-16 82" stroke-width="2.3" stroke="#fff25"/><path d="M99-78l0 84" stroke-width="2.3" stroke="#fff50026"/><path d="M36-217l-65-55" stroke-width="2.4" stroke="#005bbb26"/><path d="M183-182l83-20" stroke-width="2.4" stroke="#fff27"/><path d="M19-129l-81 33" stroke-width="2.5" stroke="#fff2A"/><path d="M191-175l92-12" stroke-width="2.7" stroke="#005bbb2F"/><path d="M123-253l22-90" stroke-width="2.7" stroke="#fff30"/><path d="M13-197l-86-35" stroke-width="2.8" stroke="#fff31"/><path d="M19-112l-80 50" stroke-width="2.8" stroke="#c2e1ff33"/><path d="M193-144l93 19" stroke-width="2.8" stroke="#c2e1ff33"/><path d="M194-180l93-17" stroke-width="2.8" stroke="#005bbb34"/><path d="M13-202l-87-39" stroke-width="2.9" stroke="#c2e1ff34"/><path d="M148-79l47 83" stroke-width="2.9" stroke="#005bbb34"/><path d="M25-100l-76 63" stroke-width="3.0" stroke="#fff38"/><path d="M132-256l32-93" stroke-width="3.0" stroke="#fff39"/><path d="M175-98l74 65" stroke-width="3.0" stroke="#005bbb39"/><path d="M17-217l-83-54" stroke-width="3.0" stroke="#005bbb39"/><path d="M167-90l68 73" stroke-width="3.1" stroke="#fff5003A"/><path d="M2-184l-98-22" stroke-width="3.1" stroke="#fff3C"/><path d="M41-245l-60-83" stroke-width="3.2" stroke="#fff3E"/><path d="M193-204l94-41" stroke-width="3.2" stroke="#c2e1ff3F"/><path d="M172-239l71-76" stroke-width="3.4" stroke="#005bbb44"/><path d="M178-236l77-73" stroke-width="3.6" stroke="#005bbb48"/><path d="M27-241l-72-78" stroke-width="3.6" stroke="#fff50048"/><path d="M-2-131l-103 31" stroke-width="3.6" stroke="#005bbb49"/><path d="M156-254l57-91" stroke-width="3.6" stroke="#fff50049"/><path d="M207-149l107 13" stroke-width="3.7" stroke="#fff4B"/><path d="M80-55l-20 107" stroke-width="3.8" stroke="#fff5004E"/><path d="M117-270l17-108" stroke-width="3.8" stroke="#005bbb4E"/><path d="M119-54l19 108" stroke-width="3.9" stroke="#005bbb51"/><path d="M35-252l-65-89" stroke-width="3.9" stroke="#fff50052"/><path d="M44-67l-56 95" stroke-width="3.9" stroke="#c2e1ff52"/><path d="M47-65l-52 98" stroke-width="4.0" stroke="#fff50054"/><path d="M178-242l78-80" stroke-width="4.0" stroke="#fff56"/><path d="M174-246l75-84" stroke-width="4.1" stroke="#c2e1ff57"/><path d="M71-53l-29 109" stroke-width="4.2" stroke="#005bbb59"/><path d="M212-144l112 18" stroke-width="4.2" stroke="#005bbb5B"/><path d="M2-107l-99 56" stroke-width="4.2" stroke="#fff5005B"/><path d="M212-177l113-14" stroke-width="4.2" stroke="#fff5005B"/><path d="M64-55l-37 108" stroke-width="4.3" stroke="#005bbb5D"/><path d="M88-49l-11 113" stroke-width="4.3" stroke="#c2e1ff5D"/><path d="M202-215l102-52" stroke-width="4.4" stroke="#c2e1ff60"/><path d="M63-54l-38 108" stroke-width="4.4" stroke="#fff50060"/><path d="M11-88l-89 74" stroke-width="4.6" stroke="#c2e1ff67"/><path d="M214-143l115 19" stroke-width="4.7" stroke="#005bbb67"/><path d="M-6-114l-106 49" stroke-width="4.7" stroke="#fff50069"/><path d="M-16-150l-116 12" stroke-width="4.7" stroke="#005bbb6A"/><path d="M8-91l-93 72" stroke-width="4.9" stroke="#fff6E"/><path d="M133-275l33-112" stroke-width="4.9" stroke="#fff5006F"/><path d="M-1-104l-102 59" stroke-width="5.0" stroke="#c2e1ff70"/><path d="M164-64l64 98" stroke-width="5.0" stroke="#fff71"/><path d="M217-153l117 9" stroke-width="5.0" stroke="#fff50071"/><path d="M34-259l-67-97" stroke-width="5.0" stroke="#c2e1ff72"/><path d="M216-178l117-15" stroke-width="5.0" stroke="#fff50072"/><path d="M0-224l-101-61" stroke-width="5.1" stroke="#005bbb74"/><path d="M103-45l3 118" stroke-width="5.3" stroke="#fff50078"/><path d="M-17-180l-116-17" stroke-width="5.3" stroke="#c2e1ff79"/><path d="M218-166l118-3" stroke-width="5.3" stroke="#005bbb7B"/><path d="M107-45l8 118" stroke-width="5.4" stroke="#c2e1ff7D"/><path d="M11-85l-90 77" stroke-width="5.5" stroke="#c2e1ff7E"/><path d="M135-50l35 113" stroke-width="5.5" stroke="#fff5007E"/><path d="M151-56l51 106" stroke-width="5.5" stroke="#005bbb7F"/><path d="M74-47l-27 115" stroke-width="5.5" stroke="#c2e1ff80"/><path d="M144-53l45 109" stroke-width="5.7" stroke="#c2e1ff84"/><path d="M-4-106l-103 56" stroke-width="5.7" stroke="#fff50085"/><path d="M131-276l32-114" stroke-width="5.7" stroke="#005bbb86"/><path d="M-11-201l-112-39" stroke-width="5.8" stroke="#fff50086"/><path d="M79-278l-22-116" stroke-width="5.8" stroke="#005bbb87"/><path d="M82-46l-19 116" stroke-width="5.8" stroke="#c2e1ff88"/><path d="M-9-118l-109 45" stroke-width="5.8" stroke="#005bbb89"/><path d="M155-58l55 104" stroke-width="5.9" stroke="#fff89"/><path d="M-16-142l-115 21" stroke-width="5.9" stroke="#fff5008B"/><path d="M66-50l-34 113" stroke-width="5.9" stroke="#005bbb8B"/><path d="M195-231l94-69" stroke-width="6.1" stroke="#c2e1ff90"/><path d="M48-58l-52 105" stroke-width="6.1" stroke="#fff50091"/><path d="M55-55l-45 108" stroke-width="6.2" stroke="#fff50092"/><path d="M5-231l-94-68" stroke-width="6.2" stroke="#005bbb93"/><path d="M201-221l101-58" stroke-width="6.2" stroke="#c2e1ff93"/><path d="M-16-150l-115 12" stroke-width="6.3" stroke="#c2e1ff95"/><path d="M58-54l-42 108" stroke-width="6.3" stroke="#fff96"/><path d="M208-206l108-43" stroke-width="6.3" stroke="#fff50096"/><path d="M205-212l106-49" stroke-width="6.3" stroke="#fff50096"/><path d="M18-81l-83 82" stroke-width="6.3" stroke="#005bbb97"/><path d="M14-240l-85-77" stroke-width="6.5" stroke="#fff5009B"/><path d="M208-122l107 41" stroke-width="6.5" stroke="#c2e1ff9C"/><path d="M13-88l-87 75" stroke-width="6.6" stroke="#005bbb9D"/><path d="M214-154l115 9" stroke-width="6.6" stroke="#c2e1ff9E"/><path d="M9-232l-92-69" stroke-width="6.6" stroke="#fff9E"/><path d="M96-49l-4 114" stroke-width="6.7" stroke="#005bbbA1"/><path d="M6-226l-95-63" stroke-width="6.7" stroke="#c2e1ffA2"/><path d="M132-271l32-109" stroke-width="6.7" stroke="#fff500A2"/><path d="M190-95l91 67" stroke-width="6.8" stroke="#c2e1ffA5"/><path d="M185-237l84-74" stroke-width="6.9" stroke="#fffA6"/><path d="M206-199l106-37" stroke-width="6.9" stroke="#fff500A7"/><path d="M132-269l31-106" stroke-width="7.0" stroke="#005bbbAB"/><path d="M90-273l-10-110" stroke-width="7.1" stroke="#fff500AB"/><path d="M-2-119l-102 43" stroke-width="7.1" stroke="#fffAC"/><path d="M-9-176l-109-14" stroke-width="7.1" stroke="#fff500AE"/><path d="M207-186l107-23" stroke-width="7.2" stroke="#005bbbAF"/><path d="M11-99l-88 63" stroke-width="7.2" stroke="#c2e1ffB0"/><path d="M159-254l60-91" stroke-width="7.2" stroke="#fff500B1"/><path d="M30-244l-71-81" stroke-width="7.4" stroke="#fff500B4"/><path d="M-7-159l-107 4" stroke-width="7.4" stroke="#fff500B5"/><path d="M46-255l-53-92" stroke-width="7.4" stroke="#005bbbB6"/><path d="M168-243l68-81" stroke-width="7.5" stroke="#fffB8"/><path d="M175-90l76 72" stroke-width="7.6" stroke="#005bbbBB"/><path d="M6-206l-94-44" stroke-width="7.7" stroke="#fffBC"/><path d="M-2-155l-103 7" stroke-width="7.7" stroke="#005bbbBE"/><path d="M27-234l-73-72" stroke-width="7.7" stroke="#fffBE"/><path d="M12-214l-89-51" stroke-width="7.8" stroke="#c2e1ffBF"/><path d="M4-130l-96 33" stroke-width="7.8" stroke="#c2e1ffC1"/><path d="M5-128l-95 34" stroke-width="7.8" stroke="#fffC1"/><path d="M0-152l-100 11" stroke-width="7.9" stroke="#fff500C2"/><path d="M199-166l99-3" stroke-width="8.0" stroke="#c2e1ffC5"/><path d="M41-241l-59-78" stroke-width="8.0" stroke="#fff500C6"/><path d="M23-103l-78 60" stroke-width="8.0" stroke="#c2e1ffC7"/><path d="M50-244l-51-82" stroke-width="8.1" stroke="#fff500C9"/><path d="M102-257l3-95" stroke-width="8.2" stroke="#fff500CB"/><path d="M167-96l68 66" stroke-width="8.2" stroke="#fffCB"/><path d="M8-181l-93-19" stroke-width="8.2" stroke="#c2e1ffCC"/><path d="M77-252l-22-90" stroke-width="8.3" stroke="#fffCE"/><path d="M12-184l-88-22" stroke-width="8.4" stroke="#005bbbD1"/><path d="M171-216l72-54" stroke-width="8.4" stroke="#fff500D2"/><path d="M15-138l-86 25" stroke-width="8.5" stroke="#fffD3"/><path d="M51-236l-50-73" stroke-width="8.5" stroke="#005bbbD3"/><path d="M177-204l77-41" stroke-width="8.5" stroke="#005bbbD5"/><path d="M158-97l58 65" stroke-width="8.5" stroke="#c2e1ffD5"/><path d="M177-126l78 36" stroke-width="8.6" stroke="#005bbbD7"/><path d="M34-216l-66-53" stroke-width="8.6" stroke="#005bbbD8"/><path d="M62-235l-38-73" stroke-width="8.7" stroke="#005bbbDB"/><path d="M66-235l-34-73" stroke-width="8.8" stroke="#fff500DC"/><path d="M119-239l18-76" stroke-width="8.9" stroke="#fff500DE"/><path d="M175-140l75 23" stroke-width="8.9" stroke="#fff500DE"/><path d="M111-87l12 75" stroke-width="8.9" stroke="#fffE1"/><path d="M175-162l75 0" stroke-width="9.0" stroke="#fff500E1"/><path d="M150-107l50 56" stroke-width="9.0" stroke="#005bbbE2"/><path d="M41-119l-60 44" stroke-width="9.0" stroke="#c2e1ffE3"/><path d="M117-234l17-71" stroke-width="9.0" stroke="#c2e1ffE3"/><path d="M33-174l-66-12" stroke-width="9.2" stroke="#fff500E8"/><path d="M78-226l-23-64" stroke-width="9.2" stroke="#005bbbE8"/><path d="M149-207l48-44" stroke-width="9.2" stroke="#005bbbE9"/><path d="M140-111l39 52" stroke-width="9.3" stroke="#005bbbE9"/><path d="M37-167l-63-4" stroke-width="9.3" stroke="#c2e1ffEB"/><path d="M110-224l11-62" stroke-width="9.3" stroke="#fff500EB"/><path d="M103-222l4-60" stroke-width="9.4" stroke="#fff500ED"/><path d="M157-146l57 17" stroke-width="9.4" stroke="#fff500ED"/><path d="M71-115l-30 48" stroke-width="9.5" stroke="#fffEF"/><path d="M100-108l0 54" stroke-width="9.5" stroke="#fffF0"/><path d="M128-208l28-46" stroke-width="9.5" stroke="#fffF1"/><path d="M72-204l-28-42" stroke-width="9.6" stroke="#fff500F3"/><path d="M144-140l43 23" stroke-width="9.6" stroke="#fff500F3"/><path d="M86-116l-15 46" stroke-width="9.6" stroke="#fffF3"/><path d="M55-160l-45 3" stroke-width="9.7" stroke="#c2e1ffF5"/><path d="M142-149l42 14" stroke-width="9.7" stroke="#c2e1ffF5"/><path d="M131-148l31 14" stroke-width="9.8" stroke="#c2e1ffF9"/><path d="M74-184l-25-21" stroke-width="9.8" stroke="#005bbbF9"/><path d="M90-191l-11-29" stroke-width="9.8" stroke="#c2e1ffFA"/><path d="M117-176l18-14" stroke-width="9.9" stroke="#fffFC"/></g></svg>