<svg width="1200" height="675" viewBox="-500 -500 1200 675" xmlns="http://www.w3.org/2000/svg"><path d="M-500-500h1200v675h-1200z" fill="#000"/><style>.sparkles path{stroke-linecap:round}</style><g class="sparkles"><path d="M103-172l4-9" stroke-width="1.0" stroke="#005bbb0"/><path d="M76-162l-25 0" stroke-width="1.1" stroke="#c2e1ff2"/><path d="M77-136l-22 26" stroke-width="1.2" stroke="#005bbb5"/><path d="M96-198l-3-36" stroke-width="1.2" stroke="#005bbb6"/><path d="M80-193l-19-30" stroke-width="1.2" stroke="#005bbb6"/><path d="M93-126l-7 37" stroke-width="1.2" stroke="#fff6"/><path d="M103-122l4 41" stroke-width="1.3" stroke="#fff5007"/><path d="M73-117l-28 46" stroke-width="1.5" stroke="#c2e1ffD"/><path d="M84-109l-16 53" stroke-width="1.5" stroke="#c2e1ffE"/><path d="M86-217l-14-55" stroke-width="1.6" stroke="#fff500F"/><path d="M63-207l-36-44" stroke-width="1.6" stroke="#c2e1ffF"/><path d="M72-112l-27 51" stroke-width="1.6" stroke="#fff50010"/><path d="M39-173l-61-10" stroke-width="1.7" stroke="#fff12"/><path d="M97-98l-3 64" stroke-width="1.7" stroke="#005bbb14"/><path d="M134-105l34 57" stroke-width="1.8" stroke="#005bbb16"/><path d="M34-181l-65-19" stroke-width="1.8" stroke="#fff50017"/><path d="M170-172l69-9" stroke-width="1.9" stroke="#c2e1ff19"/><path d="M164-125l63 37" stroke-width="2.0" stroke="#fff1B"/><path d="M141-224l41-62" stroke-width="2.0" stroke="#fff5001C"/><path d="M167-130l67 32" stroke-width="2.0" stroke="#fff5001C"/><path d="M104-87l4 75" stroke-width="2.0" stroke="#fff5001D"/><path d="M40-209l-59-46" stroke-width="2.0" stroke="#fff5001D"/><path d="M143-229l42-66" stroke-width="2.1" stroke="#fff50020"/><path d="M99-82l-1 80" stroke-width="2.2" stroke="#fff21"/><path d="M130-237l31-75" stroke-width="2.2" stroke="#fff22"/><path d="M168-115l68 47" stroke-width="2.3" stroke="#fff24"/><path d="M27-201l-74-39" stroke-width="2.3" stroke="#fff24"/><path d="M51-230l-50-67" stroke-width="2.3" stroke="#fff25"/><path d="M75-82l-24 80" stroke-width="2.3" stroke="#fff50025"/><path d="M183-178l83-15" stroke-width="2.4" stroke="#005bbb26"/><path d="M24-124l-75 38" stroke-width="2.4" stroke="#fff50026"/><path d="M141-238l41-75" stroke-width="2.4" stroke="#c2e1ff27"/><path d="M177-203l76-41" stroke-width="2.4" stroke="#fff50028"/><path d="M178-123l79 39" stroke-width="2.5" stroke="#005bbb29"/><path d="M132-245l33-82" stroke-width="2.5" stroke="#fff5002A"/><path d="M12-173l-89-11" stroke-width="2.5" stroke="#fff5002B"/><path d="M71-248l-28-85" stroke-width="2.6" stroke="#fff2D"/><path d="M175-213l75-51" stroke-width="2.6" stroke="#fff5002D"/><path d="M105-72l5 91" stroke-width="2.6" stroke="#fff2E"/><path d="M177-210l78-48" stroke-width="2.6" stroke="#005bbb2E"/><path d="M178-116l79 47" stroke-width="2.6" stroke="#c2e1ff2E"/><path d="M187-195l87-32" stroke-width="2.7" stroke="#005bbb30"/><path d="M166-95l66 67" stroke-width="2.8" stroke="#fff32"/><path d="M11-197l-89-34" stroke-width="2.8" stroke="#fff34"/><path d="M124-255l24-93" stroke-width="2.9" stroke="#fff50034"/><path d="M19-110l-80 52" stroke-width="2.9" stroke="#005bbb35"/><path d="M20-217l-80-54" stroke-width="2.9" stroke="#fff50035"/><path d="M19-215l-81-53" stroke-width="2.9" stroke="#c2e1ff36"/><path d="M185-212l85-50" stroke-width="3.0" stroke="#c2e1ff39"/><path d="M1-156l-98 6" stroke-width="3.0" stroke="#fff50039"/><path d="M57-252l-43-89" stroke-width="3.1" stroke="#c2e1ff3A"/><path d="M190-205l89-43" stroke-width="3.1" stroke="#fff5003A"/><path d="M15-214l-85-51" stroke-width="3.1" stroke="#005bbb3A"/><path d="M163-244l63-81" stroke-width="3.3" stroke="#c2e1ff40"/><path d="M204-169l104-7" stroke-width="3.4" stroke="#fff43"/><path d="M149-69l48 94" stroke-width="3.5" stroke="#fff46"/><path d="M-5-140l-104 22" stroke-width="3.6" stroke="#fff49"/><path d="M206-178l106-15" stroke-width="3.6" stroke="#fff49"/><path d="M4-115l-96 48" stroke-width="3.6" stroke="#c2e1ff4A"/><path d="M196-111l95 52" stroke-width="3.7" stroke="#c2e1ff4D"/><path d="M64-57l-36 105" stroke-width="4.0" stroke="#005bbb54"/><path d="M-9-144l-110 19" stroke-width="4.0" stroke="#005bbb54"/><path d="M-5-201l-104-38" stroke-width="4.0" stroke="#c2e1ff55"/><path d="M207-196l107-34" stroke-width="4.1" stroke="#005bbb57"/><path d="M20-83l-80 79" stroke-width="4.1" stroke="#fff58"/><path d="M8-97l-92 65" stroke-width="4.2" stroke="#005bbb59"/><path d="M213-150l113 12" stroke-width="4.2" stroke="#fff5005B"/><path d="M10-232l-89-70" stroke-width="4.3" stroke="#fff5C"/><path d="M-14-162l-113 1" stroke-width="4.3" stroke="#fff5005C"/><path d="M18-243l-81-80" stroke-width="4.4" stroke="#c2e1ff60"/><path d="M208-124l108 39" stroke-width="4.4" stroke="#fff60"/><path d="M12-236l-88-74" stroke-width="4.4" stroke="#fff60"/><path d="M61-54l-39 109" stroke-width="4.6" stroke="#c2e1ff65"/><path d="M176-75l76 87" stroke-width="4.6" stroke="#fff50065"/><path d="M-16-162l-115 1" stroke-width="4.6" stroke="#c2e1ff65"/><path d="M190-89l89 74" stroke-width="4.6" stroke="#fff67"/><path d="M209-205l108-42" stroke-width="4.7" stroke="#fff69"/><path d="M198-226l98-63" stroke-width="4.8" stroke="#005bbb6B"/><path d="M214-186l115-23" stroke-width="4.8" stroke="#fff6B"/><path d="M-16-145l-115 17" stroke-width="4.8" stroke="#fff6C"/><path d="M217-171l116-8" stroke-width="4.9" stroke="#005bbb6D"/><path d="M178-75l77 88" stroke-width="4.9" stroke="#005bbb6E"/><path d="M-15-138l-114 25" stroke-width="5.0" stroke="#005bbb70"/><path d="M200-100l99 62" stroke-width="5.0" stroke="#005bbb71"/><path d="M116-46l17 116" stroke-width="5.1" stroke="#c2e1ff73"/><path d="M-6-213l-107-50" stroke-width="5.1" stroke="#fff74"/><path d="M-18-164l-117-2" stroke-width="5.1" stroke="#fff50075"/><path d="M-18-156l-117 6" stroke-width="5.2" stroke="#fff50076"/><path d="M31-258l-70-95" stroke-width="5.3" stroke="#fff50078"/><path d="M74-47l-26 115" stroke-width="5.3" stroke="#c2e1ff78"/><path d="M125-47l24 115" stroke-width="5.3" stroke="#fff50079"/><path d="M-6-214l-106-52" stroke-width="5.3" stroke="#fff79"/><path d="M-15-190l-115-27" stroke-width="5.3" stroke="#fff7A"/><path d="M180-75l79 87" stroke-width="5.4" stroke="#005bbb7C"/><path d="M-18-171l-118-8" stroke-width="5.4" stroke="#fff7D"/><path d="M-18-165l-118-2" stroke-width="5.4" stroke="#fff5007D"/><path d="M210-205l111-42" stroke-width="5.4" stroke="#c2e1ff7D"/><path d="M119-279l19-117" stroke-width="5.4" stroke="#005bbb7D"/><path d="M177-73l77 89" stroke-width="5.5" stroke="#c2e1ff7E"/><path d="M73-48l-28 115" stroke-width="5.5" stroke="#005bbb7F"/><path d="M44-59l-57 104" stroke-width="5.5" stroke="#c2e1ff80"/><path d="M215-135l115 28" stroke-width="5.6" stroke="#fff50081"/><path d="M152-57l52 106" stroke-width="5.6" stroke="#c2e1ff81"/><path d="M205-216l105-54" stroke-width="5.7" stroke="#005bbb84"/><path d="M169-258l69-96" stroke-width="5.7" stroke="#005bbb84"/><path d="M190-239l90-76" stroke-width="5.7" stroke="#c2e1ff85"/><path d="M169-67l68 95" stroke-width="5.9" stroke="#fff8B"/><path d="M36-64l-63 99" stroke-width="6.0" stroke="#fff8C"/><path d="M164-261l64-98" stroke-width="6.0" stroke="#fff8C"/><path d="M20-76l-80 86" stroke-width="6.0" stroke="#c2e1ff8D"/><path d="M183-245l84-82" stroke-width="6.0" stroke="#005bbb8E"/><path d="M217-173l116-10" stroke-width="6.1" stroke="#c2e1ff8F"/><path d="M131-275l30-113" stroke-width="6.1" stroke="#005bbb90"/><path d="M54-55l-46 107" stroke-width="6.1" stroke="#005bbb90"/><path d="M168-258l68-95" stroke-width="6.1" stroke="#fff50091"/><path d="M217-162l117 0" stroke-width="6.2" stroke="#fff92"/><path d="M143-269l43-106" stroke-width="6.6" stroke="#fff5009E"/><path d="M68-272l-32-110" stroke-width="6.6" stroke="#fff9E"/><path d="M154-62l55 100" stroke-width="6.7" stroke="#005bbbA1"/><path d="M192-96l93 66" stroke-width="6.7" stroke="#c2e1ffA2"/><path d="M-4-118l-105 44" stroke-width="6.8" stroke="#c2e1ffA3"/><path d="M-1-113l-101 49" stroke-width="6.9" stroke="#005bbbA6"/><path d="M211-180l111-17" stroke-width="6.9" stroke="#fffA7"/><path d="M-2-208l-103-45" stroke-width="6.9" stroke="#005bbbA7"/><path d="M0-112l-99 51" stroke-width="6.9" stroke="#fffA8"/><path d="M72-271l-28-108" stroke-width="7.0" stroke="#fffA8"/><path d="M65-268l-35-105" stroke-width="7.1" stroke="#fff500AB"/><path d="M102-52l3 111" stroke-width="7.1" stroke="#fffAC"/><path d="M19-89l-80 74" stroke-width="7.2" stroke="#c2e1ffB0"/><path d="M147-261l47-98" stroke-width="7.3" stroke="#c2e1ffB1"/><path d="M166-76l66 86" stroke-width="7.3" stroke="#fffB2"/><path d="M156-72l55 90" stroke-width="7.5" stroke="#fffB8"/><path d="M190-106l89 56" stroke-width="7.5" stroke="#005bbbB8"/><path d="M58-258l-43-96" stroke-width="7.6" stroke="#c2e1ffBA"/><path d="M161-246l62-84" stroke-width="7.6" stroke="#c2e1ffBC"/><path d="M140-67l40 96" stroke-width="7.7" stroke="#fff500BC"/><path d="M154-75l54 88" stroke-width="7.7" stroke="#fff500BD"/><path d="M172-236l73-73" stroke-width="7.7" stroke="#fff500BD"/><path d="M111-265l10-102" stroke-width="7.7" stroke="#fffBE"/><path d="M47-249l-53-86" stroke-width="7.8" stroke="#fff500C1"/><path d="M131-257l30-95" stroke-width="7.9" stroke="#fffC4"/><path d="M99-262l-2-100" stroke-width="7.9" stroke="#fff500C4"/><path d="M26-227l-73-65" stroke-width="8.0" stroke="#005bbbC6"/><path d="M123-258l23-95" stroke-width="8.0" stroke="#fffC6"/><path d="M12-204l-89-42" stroke-width="8.0" stroke="#fffC7"/><path d="M192-192l91-30" stroke-width="8.1" stroke="#005bbbC9"/><path d="M119-255l19-93" stroke-width="8.2" stroke="#c2e1ffCB"/><path d="M51-241l-49-78" stroke-width="8.3" stroke="#c2e1ffCF"/><path d="M10-180l-90-18" stroke-width="8.3" stroke="#fff500CF"/><path d="M114-72l14 91" stroke-width="8.3" stroke="#fff500CF"/><path d="M14-141l-86 21" stroke-width="8.5" stroke="#005bbbD4"/><path d="M22-128l-78 35" stroke-width="8.6" stroke="#c2e1ffD7"/><path d="M149-232l49-70" stroke-width="8.6" stroke="#fff500D7"/><path d="M30-117l-70 45" stroke-width="8.7" stroke="#c2e1ffD9"/><path d="M24-189l-76-26" stroke-width="8.8" stroke="#fffDC"/><path d="M20-175l-79-13" stroke-width="8.8" stroke="#005bbbDC"/><path d="M66-92l-34 71" stroke-width="8.9" stroke="#fffDE"/><path d="M93-87l-8 76" stroke-width="8.9" stroke="#c2e1ffE1"/><path d="M172-175l73-12" stroke-width="9.0" stroke="#c2e1ffE3"/><path d="M165-195l65-33" stroke-width="9.0" stroke="#c2e1ffE3"/><path d="M51-216l-49-53" stroke-width="9.1" stroke="#fff500E4"/><path d="M69-227l-30-65" stroke-width="9.1" stroke="#fffE4"/><path d="M142-217l42-54" stroke-width="9.2" stroke="#fff500E7"/><path d="M161-192l62-30" stroke-width="9.2" stroke="#fff500E7"/><path d="M140-114l41 49" stroke-width="9.3" stroke="#fffEB"/><path d="M45-193l-55-30" stroke-width="9.3" stroke="#fffEB"/><path d="M158-148l58 14" stroke-width="9.4" stroke="#fff500ED"/><path d="M46-144l-53 19" stroke-width="9.4" stroke="#c2e1ffEF"/><path d="M87-216l-13-53" stroke-width="9.5" stroke="#fffF0"/><path d="M52-138l-48 24" stroke-width="9.5" stroke="#005bbbF1"/><path d="M50-182l-50-19" stroke-width="9.5" stroke="#005bbbF1"/><path d="M59-196l-41-33" stroke-width="9.5" stroke="#005bbbF1"/><path d="M137-128l38 34" stroke-width="9.6" stroke="#c2e1ffF2"/><path d="M119-207l19-45" stroke-width="9.6" stroke="#005bbbF3"/><path d="M144-161l44 2" stroke-width="9.7" stroke="#c2e1ffF5"/><path d="M137-179l37-17" stroke-width="9.7" stroke="#c2e1ffF7"/><path d="M86-130l-14 32" stroke-width="9.8" stroke="#fff500F9"/><path d="M82-133l-17 29" stroke-width="9.8" stroke="#c2e1ffF9"/><path d="M70-176l-30-13" stroke-width="9.8" stroke="#005bbbF9"/><path d="M85-147l-15 15" stroke-width="9.9" stroke="#005bbbFC"/><path d="M99-161l0 1" stroke-width="10.0" stroke="#005bbbFE"/></g></svg>