<svg width="1200" height="675" viewBox="-500 -500 1200 675" xmlns="http://www.w3.org/2000/svg"><path d="M-500-500h1200v675h-1200z" fill="#000"/><style>.sparkles path{stroke-linecap:round}</style><g class="sparkles"><path d="M107-168l6-6" stroke-width="1.0" stroke="#fff5000"/><path d="M108-174l7-11" stroke-width="1.0" stroke="#fff5000"/><path d="M80-150l-20 13" stroke-width="1.1" stroke="#fff2"/><path d="M96-135l-4 28" stroke-width="1.1" stroke="#fff3"/><path d="M112-134l13 29" stroke-width="1.2" stroke="#fff5004"/><path d="M131-140l30 23" stroke-width="1.2" stroke="#005bbb6"/><path d="M109-119l9 43" stroke-width="1.3" stroke="#fff5009"/><path d="M147-155l48 7" stroke-width="1.4" stroke="#fffA"/><path d="M44-166l-55-4" stroke-width="1.5" stroke="#c2e1ffF"/><path d="M43-149l-56 14" stroke-width="1.6" stroke="#005bbb10"/><path d="M162-157l61 6" stroke-width="1.7" stroke="#c2e1ff12"/><path d="M65-110l-34 52" stroke-width="1.7" stroke="#005bbb13"/><path d="M88-100l-12 62" stroke-width="1.7" stroke="#c2e1ff13"/><path d="M68-105l-31 58" stroke-width="1.8" stroke="#005bbb15"/><path d="M37-193l-62-30" stroke-width="1.9" stroke="#fff50018"/><path d="M33-135l-67 27" stroke-width="1.9" stroke="#fff5001A"/><path d="M136-100l36 63" stroke-width="1.9" stroke="#fff1A"/><path d="M31-132l-68 31" stroke-width="2.0" stroke="#fff1D"/><path d="M27-145l-73 18" stroke-width="2.0" stroke="#005bbb1D"/><path d="M174-137l74 26" stroke-width="2.1" stroke="#fff5001F"/><path d="M64-232l-37-70" stroke-width="2.1" stroke="#005bbb20"/><path d="M157-108l58 55" stroke-width="2.2" stroke="#005bbb20"/><path d="M149-96l49 66" stroke-width="2.3" stroke="#fff24"/><path d="M154-100l54 63" stroke-width="2.3" stroke="#c2e1ff24"/><path d="M155-101l55 62" stroke-width="2.3" stroke="#fff50024"/><path d="M70-85l-31 78" stroke-width="2.3" stroke="#005bbb25"/><path d="M106-79l6 83" stroke-width="2.3" stroke="#fff50025"/><path d="M184-169l83-6" stroke-width="2.3" stroke="#005bbb25"/><path d="M70-241l-30-79" stroke-width="2.3" stroke="#c2e1ff25"/><path d="M177-129l78 33" stroke-width="2.3" stroke="#005bbb26"/><path d="M82-246l-18-84" stroke-width="2.4" stroke="#fff50027"/><path d="M122-78l22 85" stroke-width="2.5" stroke="#fff5002A"/><path d="M144-239l43-76" stroke-width="2.5" stroke="#005bbb2A"/><path d="M153-91l53 71" stroke-width="2.5" stroke="#c2e1ff2B"/><path d="M23-207l-78-44" stroke-width="2.5" stroke="#005bbb2B"/><path d="M11-143l-88 19" stroke-width="2.6" stroke="#c2e1ff2D"/><path d="M49-238l-51-75" stroke-width="2.6" stroke="#fff2E"/><path d="M8-162l-91 1" stroke-width="2.7" stroke="#c2e1ff2E"/><path d="M63-246l-38-84" stroke-width="2.7" stroke="#c2e1ff2F"/><path d="M170-102l70 60" stroke-width="2.7" stroke="#fff5002F"/><path d="M83-254l-16-91" stroke-width="2.7" stroke="#c2e1ff30"/><path d="M166-97l67 65" stroke-width="2.7" stroke="#fff30"/><path d="M7-170l-93-7" stroke-width="2.7" stroke="#005bbb31"/><path d="M105-256l4-94" stroke-width="2.8" stroke="#c2e1ff31"/><path d="M17-205l-84-43" stroke-width="2.8" stroke="#fff50032"/><path d="M188-197l89-35" stroke-width="2.8" stroke="#fff50033"/><path d="M68-70l-33 92" stroke-width="3.0" stroke="#c2e1ff37"/><path d="M196-144l97 19" stroke-width="3.0" stroke="#fff38"/><path d="M181-107l81 55" stroke-width="3.0" stroke="#c2e1ff38"/><path d="M198-173l97-11" stroke-width="3.0" stroke="#fff50038"/><path d="M165-237l66-75" stroke-width="3.1" stroke="#fff3A"/><path d="M198-183l97-21" stroke-width="3.1" stroke="#c2e1ff3B"/><path d="M79-65l-20 98" stroke-width="3.1" stroke="#fff3B"/><path d="M176-227l76-65" stroke-width="3.1" stroke="#fff5003B"/><path d="M25-95l-75 67" stroke-width="3.1" stroke="#005bbb3C"/><path d="M25-94l-76 69" stroke-width="3.2" stroke="#c2e1ff3F"/><path d="M125-262l25-100" stroke-width="3.3" stroke="#fff50041"/><path d="M-3-172l-104-9" stroke-width="3.4" stroke="#c2e1ff42"/><path d="M146-67l46 95" stroke-width="3.5" stroke="#005bbb46"/><path d="M5-116l-96 46" stroke-width="3.5" stroke="#c2e1ff47"/><path d="M-6-152l-106 11" stroke-width="3.6" stroke="#005bbb48"/><path d="M206-147l106 16" stroke-width="3.6" stroke="#c2e1ff4A"/><path d="M207-146l107 16" stroke-width="3.7" stroke="#005bbb4B"/><path d="M55-261l-46-99" stroke-width="3.7" stroke="#c2e1ff4D"/><path d="M-10-177l-110-15" stroke-width="3.9" stroke="#fff53"/><path d="M208-190l108-28" stroke-width="4.0" stroke="#c2e1ff55"/><path d="M191-227l92-64" stroke-width="4.1" stroke="#fff56"/><path d="M71-271l-28-109" stroke-width="4.1" stroke="#fff58"/><path d="M12-234l-88-71" stroke-width="4.2" stroke="#005bbb5B"/><path d="M-13-155l-113 7" stroke-width="4.2" stroke="#fff5005B"/><path d="M75-52l-26 111" stroke-width="4.3" stroke="#c2e1ff5C"/><path d="M207-200l108-38" stroke-width="4.3" stroke="#fff5D"/><path d="M151-60l52 103" stroke-width="4.4" stroke="#005bbb61"/><path d="M215-162l115 0" stroke-width="4.5" stroke="#c2e1ff62"/><path d="M-5-210l-104-48" stroke-width="4.5" stroke="#fff62"/><path d="M32-70l-69 93" stroke-width="4.5" stroke="#fff50063"/><path d="M134-273l34-111" stroke-width="4.6" stroke="#fff50066"/><path d="M214-186l114-24" stroke-width="4.8" stroke="#005bbb6A"/><path d="M-14-187l-115-24" stroke-width="4.8" stroke="#fff6C"/><path d="M143-53l43 109" stroke-width="5.0" stroke="#c2e1ff70"/><path d="M115-46l14 116" stroke-width="5.0" stroke="#fff70"/><path d="M121-47l22 116" stroke-width="5.0" stroke="#fff50072"/><path d="M207-115l108 48" stroke-width="5.0" stroke="#005bbb72"/><path d="M13-84l-87 79" stroke-width="5.0" stroke="#fff50072"/><path d="M-11-124l-111 39" stroke-width="5.1" stroke="#fff50072"/><path d="M114-46l15 117" stroke-width="5.1" stroke="#005bbb75"/><path d="M65-275l-36-112" stroke-width="5.2" stroke="#fff50075"/><path d="M14-243l-87-80" stroke-width="5.2" stroke="#005bbb78"/><path d="M136-275l37-112" stroke-width="5.3" stroke="#005bbb7A"/><path d="M-8-115l-108 47" stroke-width="5.3" stroke="#fff5007A"/><path d="M180-249l80-87" stroke-width="5.5" stroke="#005bbb7F"/><path d="M190-86l90 77" stroke-width="5.6" stroke="#fff50082"/><path d="M217-150l118 13" stroke-width="5.6" stroke="#c2e1ff82"/><path d="M212-125l112 37" stroke-width="5.6" stroke="#005bbb83"/><path d="M113-45l13 117" stroke-width="5.7" stroke="#c2e1ff83"/><path d="M154-268l53-105" stroke-width="5.7" stroke="#005bbb84"/><path d="M204-107l104 55" stroke-width="5.7" stroke="#fff84"/><path d="M110-280l9-117" stroke-width="5.8" stroke="#fff87"/><path d="M120-279l19-116" stroke-width="5.8" stroke="#fff87"/><path d="M187-242l87-79" stroke-width="5.8" stroke="#005bbb87"/><path d="M-10-204l-110-42" stroke-width="5.8" stroke="#c2e1ff88"/><path d="M-15-190l-114-27" stroke-width="5.9" stroke="#fff50089"/><path d="M44-266l-55-103" stroke-width="6.0" stroke="#fff8D"/><path d="M-5-110l-105 53" stroke-width="6.0" stroke="#fff5008E"/><path d="M-16-143l-115 20" stroke-width="6.0" stroke="#c2e1ff8E"/><path d="M87-279l-13-116" stroke-width="6.1" stroke="#c2e1ff91"/><path d="M210-202l109-39" stroke-width="6.2" stroke="#fff93"/><path d="M215-148l116 15" stroke-width="6.3" stroke="#fff95"/><path d="M209-203l109-40" stroke-width="6.3" stroke="#c2e1ff96"/><path d="M146-56l46 107" stroke-width="6.3" stroke="#005bbb96"/><path d="M188-238l89-75" stroke-width="6.3" stroke="#c2e1ff96"/><path d="M216-152l115 11" stroke-width="6.3" stroke="#c2e1ff97"/><path d="M69-274l-31-111" stroke-width="6.4" stroke="#c2e1ff99"/><path d="M5-229l-94-66" stroke-width="6.5" stroke="#005bbb9B"/><path d="M1-105l-100 58" stroke-width="6.5" stroke="#c2e1ff9C"/><path d="M35-68l-65 95" stroke-width="6.5" stroke="#005bbb9D"/><path d="M117-49l16 113" stroke-width="6.6" stroke="#c2e1ff9E"/><path d="M-13-177l-114-15" stroke-width="6.6" stroke="#c2e1ff9F"/><path d="M214-172l114-10" stroke-width="6.6" stroke="#fff9F"/><path d="M67-272l-32-110" stroke-width="6.6" stroke="#fff9F"/><path d="M37-258l-63-95" stroke-width="6.7" stroke="#005bbbA0"/><path d="M-3-212l-103-49" stroke-width="6.7" stroke="#005bbbA0"/><path d="M95-276l-6-114" stroke-width="6.7" stroke="#c2e1ffA1"/><path d="M77-51l-22 112" stroke-width="6.7" stroke="#005bbbA1"/><path d="M130-54l31 108" stroke-width="6.9" stroke="#005bbbA6"/><path d="M54-265l-45-102" stroke-width="6.9" stroke="#c2e1ffA8"/><path d="M212-163l111-1" stroke-width="7.0" stroke="#005bbbA9"/><path d="M-8-134l-107 29" stroke-width="7.0" stroke="#fff500AA"/><path d="M209-181l108-19" stroke-width="7.1" stroke="#005bbbAD"/><path d="M48-66l-52 97" stroke-width="7.2" stroke="#c2e1ffAE"/><path d="M205-134l104 28" stroke-width="7.3" stroke="#c2e1ffB1"/><path d="M74-267l-26-105" stroke-width="7.3" stroke="#005bbbB2"/><path d="M97-270l-3-108" stroke-width="7.3" stroke="#005bbbB3"/><path d="M4-114l-97 48" stroke-width="7.3" stroke="#fffB3"/><path d="M206-145l106 18" stroke-width="7.4" stroke="#c2e1ffB4"/><path d="M0-124l-100 38" stroke-width="7.4" stroke="#005bbbB5"/><path d="M207-164l107-1" stroke-width="7.4" stroke="#fff500B5"/><path d="M17-230l-82-67" stroke-width="7.4" stroke="#fff500B6"/><path d="M19-231l-82-68" stroke-width="7.5" stroke="#005bbbB7"/><path d="M71-264l-29-102" stroke-width="7.5" stroke="#fffB7"/><path d="M188-221l87-59" stroke-width="7.5" stroke="#fffB8"/><path d="M157-75l57 88" stroke-width="7.6" stroke="#fff500BA"/><path d="M5-204l-96-41" stroke-width="7.6" stroke="#005bbbBC"/><path d="M161-80l61 82" stroke-width="7.8" stroke="#fff500BF"/><path d="M43-247l-57-85" stroke-width="7.8" stroke="#fff500C0"/><path d="M73-64l-27 98" stroke-width="7.8" stroke="#fffC0"/><path d="M116-263l16-100" stroke-width="7.8" stroke="#fffC0"/><path d="M43-80l-58 83" stroke-width="7.9" stroke="#c2e1ffC2"/><path d="M75-66l-24 97" stroke-width="7.9" stroke="#005bbbC4"/><path d="M65-69l-35 93" stroke-width="7.9" stroke="#c2e1ffC4"/><path d="M3-166l-96-3" stroke-width="8.1" stroke="#c2e1ffC8"/><path d="M195-182l94-19" stroke-width="8.1" stroke="#005bbbC9"/><path d="M192-189l93-26" stroke-width="8.1" stroke="#fff500C9"/><path d="M113-256l14-94" stroke-width="8.2" stroke="#fff500CB"/><path d="M187-128l88 35" stroke-width="8.2" stroke="#c2e1ffCC"/><path d="M173-221l74-59" stroke-width="8.2" stroke="#fffCC"/><path d="M10-187l-91-24" stroke-width="8.2" stroke="#005bbbCD"/><path d="M126-76l26 86" stroke-width="8.4" stroke="#fffD1"/><path d="M138-81l37 82" stroke-width="8.4" stroke="#c2e1ffD1"/><path d="M121-249l20-87" stroke-width="8.4" stroke="#fff500D3"/><path d="M38-102l-63 60" stroke-width="8.6" stroke="#c2e1ffD6"/><path d="M174-120l73 42" stroke-width="8.6" stroke="#c2e1ffD8"/><path d="M168-210l69-47" stroke-width="8.7" stroke="#fff500DA"/><path d="M89-244l-10-82" stroke-width="8.7" stroke="#fffDA"/><path d="M43-216l-56-54" stroke-width="8.9" stroke="#005bbbDF"/><path d="M61-229l-39-67" stroke-width="8.9" stroke="#005bbbDF"/><path d="M25-178l-75-15" stroke-width="8.9" stroke="#fffE0"/><path d="M64-99l-35 63" stroke-width="9.0" stroke="#005bbbE4"/><path d="M44-207l-55-45" stroke-width="9.1" stroke="#fff500E5"/><path d="M150-209l50-47" stroke-width="9.2" stroke="#fffE7"/><path d="M55-214l-44-51" stroke-width="9.2" stroke="#c2e1ffE7"/><path d="M43-193l-58-30" stroke-width="9.3" stroke="#005bbbEA"/><path d="M156-187l57-25" stroke-width="9.3" stroke="#005bbbEC"/><path d="M95-224l-5-61" stroke-width="9.3" stroke="#005bbbEC"/><path d="M50-187l-51-24" stroke-width="9.5" stroke="#fff500EF"/><path d="M90-215l-10-53" stroke-width="9.5" stroke="#005bbbF0"/><path d="M122-201l22-39" stroke-width="9.7" stroke="#005bbbF5"/><path d="M71-153l-28 9" stroke-width="9.9" stroke="#fff500FA"/><path d="M127-153l26 9" stroke-width="9.9" stroke="#c2e1ffFB"/><path d="M118-155l18 8" stroke-width="9.9" stroke="#fff500FD"/><path d="M102-156l1 6" stroke-width="10.0" stroke="#005bbbFE"/></g></svg>