<svg width="1200" height="675" viewBox="-500 -500 1200 675" xmlns="http://www.w3.org/2000/svg"><path d="M-500-500h1200v675h-1200z" fill="#000"/><style>.sparkles path{stroke-linecap:round}</style><g class="sparkles"><path d="M110-180l11-17" stroke-width="1.1" stroke="#005bbb1"/><path d="M128-142l28 20" stroke-width="1.2" stroke="#fff5"/><path d="M131-192l31-29" stroke-width="1.3" stroke="#c2e1ff8"/><path d="M69-198l-30-36" stroke-width="1.4" stroke="#005bbbA"/><path d="M60-192l-41-30" stroke-width="1.4" stroke="#c2e1ffC"/><path d="M149-180l50-17" stroke-width="1.5" stroke="#005bbbD"/><path d="M51-142l-50 20" stroke-width="1.5" stroke="#005bbbD"/><path d="M50-129l-49 34" stroke-width="1.6" stroke="#005bbb11"/><path d="M81-105l-19 58" stroke-width="1.6" stroke="#005bbb12"/><path d="M86-224l-13-61" stroke-width="1.7" stroke="#fff13"/><path d="M78-97l-22 65" stroke-width="1.9" stroke="#c2e1ff18"/><path d="M57-218l-42-55" stroke-width="1.9" stroke="#fff50018"/><path d="M157-121l57 41" stroke-width="1.9" stroke="#005bbb18"/><path d="M142-223l43-61" stroke-width="2.0" stroke="#c2e1ff1C"/><path d="M163-202l63-40" stroke-width="2.0" stroke="#c2e1ff1C"/><path d="M173-134l73 28" stroke-width="2.1" stroke="#c2e1ff1F"/><path d="M175-140l76 23" stroke-width="2.1" stroke="#005bbb20"/><path d="M19-151l-81 12" stroke-width="2.3" stroke="#fff50023"/><path d="M66-87l-34 75" stroke-width="2.3" stroke="#005bbb24"/><path d="M116-244l16-81" stroke-width="2.3" stroke="#c2e1ff24"/><path d="M165-218l65-56" stroke-width="2.4" stroke="#005bbb27"/><path d="M153-94l52 69" stroke-width="2.4" stroke="#005bbb28"/><path d="M17-187l-84-24" stroke-width="2.4" stroke="#005bbb28"/><path d="M42-228l-57-65" stroke-width="2.5" stroke="#fff29"/><path d="M15-136l-84 27" stroke-width="2.5" stroke="#fff2B"/><path d="M180-124l81 39" stroke-width="2.6" stroke="#fff5002B"/><path d="M110-71l10 91" stroke-width="2.7" stroke="#fff2F"/><path d="M62-247l-38-84" stroke-width="2.7" stroke="#fff30"/><path d="M194-163l94-1" stroke-width="2.8" stroke="#fff50032"/><path d="M147-77l47 86" stroke-width="3.0" stroke="#c2e1ff37"/><path d="M190-125l91 37" stroke-width="3.0" stroke="#fff50037"/><path d="M22-103l-78 59" stroke-width="3.0" stroke="#c2e1ff38"/><path d="M36-238l-65-75" stroke-width="3.0" stroke="#c2e1ff39"/><path d="M159-242l60-80" stroke-width="3.1" stroke="#c2e1ff3A"/><path d="M82-65l-19 98" stroke-width="3.1" stroke="#fff3B"/><path d="M21-225l-80-62" stroke-width="3.2" stroke="#fff5003D"/><path d="M92-264l-8-102" stroke-width="3.2" stroke="#005bbb3F"/><path d="M-2-166l-103-4" stroke-width="3.3" stroke="#fff3F"/><path d="M-2-162l-103 1" stroke-width="3.3" stroke="#005bbb40"/><path d="M32-84l-68 78" stroke-width="3.3" stroke="#c2e1ff41"/><path d="M139-259l39-97" stroke-width="3.4" stroke="#fff43"/><path d="M161-248l60-85" stroke-width="3.4" stroke="#fff50044"/><path d="M205-182l104-20" stroke-width="3.5" stroke="#c2e1ff48"/><path d="M-7-164l-107-2" stroke-width="3.6" stroke="#fff50049"/><path d="M202-128l102 35" stroke-width="3.6" stroke="#fff5004B"/><path d="M-8-160l-108 2" stroke-width="3.7" stroke="#c2e1ff4C"/><path d="M64-59l-36 103" stroke-width="3.8" stroke="#fff4E"/><path d="M35-74l-65 88" stroke-width="3.8" stroke="#fff50"/><path d="M18-236l-81-73" stroke-width="3.8" stroke="#c2e1ff50"/><path d="M86-271l-15-109" stroke-width="3.8" stroke="#fff50"/><path d="M30-247l-70-85" stroke-width="3.9" stroke="#fff50"/><path d="M8-103l-92 60" stroke-width="3.9" stroke="#fff50"/><path d="M5-108l-96 55" stroke-width="3.9" stroke="#fff50050"/><path d="M5-107l-95 55" stroke-width="3.9" stroke="#fff50051"/><path d="M211-162l110 0" stroke-width="3.9" stroke="#005bbb52"/><path d="M83-272l-17-110" stroke-width="4.0" stroke="#c2e1ff54"/><path d="M-12-174l-113-11" stroke-width="4.2" stroke="#c2e1ff59"/><path d="M47-63l-54 100" stroke-width="4.2" stroke="#005bbb5A"/><path d="M30-73l-70 89" stroke-width="4.2" stroke="#c2e1ff5B"/><path d="M126-274l26-111" stroke-width="4.3" stroke="#005bbb5E"/><path d="M197-102l97 61" stroke-width="4.4" stroke="#fff50060"/><path d="M116-49l17 114" stroke-width="4.4" stroke="#fff61"/><path d="M130-274l29-111" stroke-width="4.5" stroke="#c2e1ff62"/><path d="M7-231l-93-68" stroke-width="4.5" stroke="#fff50064"/><path d="M209-122l108 40" stroke-width="4.6" stroke="#c2e1ff66"/><path d="M55-56l-46 107" stroke-width="4.6" stroke="#c2e1ff66"/><path d="M82-277l-19-115" stroke-width="4.7" stroke="#c2e1ff68"/><path d="M128-50l27 113" stroke-width="4.7" stroke="#005bbb68"/><path d="M202-218l102-56" stroke-width="4.7" stroke="#005bbb69"/><path d="M-10-203l-110-40" stroke-width="4.9" stroke="#fff5006E"/><path d="M-15-140l-115 22" stroke-width="4.9" stroke="#005bbb6E"/><path d="M33-66l-67 96" stroke-width="4.9" stroke="#005bbb6F"/><path d="M24-73l-76 89" stroke-width="5.0" stroke="#fff50071"/><path d="M56-272l-43-109" stroke-width="5.0" stroke="#fff72"/><path d="M213-130l113 32" stroke-width="5.1" stroke="#005bbb73"/><path d="M200-225l100-62" stroke-width="5.2" stroke="#fff76"/><path d="M47-268l-53-105" stroke-width="5.2" stroke="#005bbb77"/><path d="M210-121l111 41" stroke-width="5.3" stroke="#fff79"/><path d="M206-110l106 52" stroke-width="5.3" stroke="#fff5007A"/><path d="M-10-206l-110-43" stroke-width="5.4" stroke="#c2e1ff7B"/><path d="M-10-120l-110 43" stroke-width="5.4" stroke="#fff7D"/><path d="M213-198l112-36" stroke-width="5.4" stroke="#fff5007D"/><path d="M174-255l74-92" stroke-width="5.5" stroke="#fff5007E"/><path d="M106-45l7 118" stroke-width="5.5" stroke="#c2e1ff7E"/><path d="M205-217l105-54" stroke-width="5.5" stroke="#fff7F"/><path d="M194-91l95 71" stroke-width="5.5" stroke="#fff50080"/><path d="M12-241l-88-79" stroke-width="5.8" stroke="#fff50087"/><path d="M21-249l-80-87" stroke-width="5.9" stroke="#c2e1ff89"/><path d="M30-68l-71 94" stroke-width="5.9" stroke="#fff8A"/><path d="M132-49l32 113" stroke-width="5.9" stroke="#005bbb8A"/><path d="M171-256l72-93" stroke-width="6.0" stroke="#005bbb8C"/><path d="M127-277l27-114" stroke-width="6.0" stroke="#fff8D"/><path d="M81-47l-20 115" stroke-width="6.1" stroke="#fff50091"/><path d="M217-165l117-2" stroke-width="6.2" stroke="#fff50092"/><path d="M163-65l62 98" stroke-width="6.3" stroke="#005bbb95"/><path d="M213-135l113 27" stroke-width="6.3" stroke="#fff50095"/><path d="M140-53l39 109" stroke-width="6.3" stroke="#fff96"/><path d="M45-61l-54 102" stroke-width="6.5" stroke="#c2e1ff9A"/><path d="M177-77l77 86" stroke-width="6.5" stroke="#fff9A"/><path d="M144-269l44-106" stroke-width="6.5" stroke="#c2e1ff9B"/><path d="M150-266l50-104" stroke-width="6.5" stroke="#fff5009C"/><path d="M-15-168l-114-6" stroke-width="6.6" stroke="#c2e1ff9D"/><path d="M115-49l15 114" stroke-width="6.6" stroke="#005bbb9E"/><path d="M129-52l29 111" stroke-width="6.6" stroke="#c2e1ff9F"/><path d="M72-52l-28 111" stroke-width="6.6" stroke="#005bbb9F"/><path d="M154-62l54 100" stroke-width="6.7" stroke="#fff500A1"/><path d="M87-49l-12 113" stroke-width="6.7" stroke="#fff500A1"/><path d="M58-268l-41-106" stroke-width="6.7" stroke="#c2e1ffA2"/><path d="M202-112l101 51" stroke-width="6.8" stroke="#fff500A2"/><path d="M181-84l81 78" stroke-width="6.9" stroke="#fff500A6"/><path d="M62-57l-38 105" stroke-width="6.9" stroke="#fffA8"/><path d="M168-74l67 89" stroke-width="7.0" stroke="#fffA9"/><path d="M39-69l-61 93" stroke-width="7.0" stroke="#fff500A9"/><path d="M1-111l-98 51" stroke-width="7.0" stroke="#c2e1ffAA"/><path d="M150-262l50-99" stroke-width="7.0" stroke="#fffAA"/><path d="M188-231l88-68" stroke-width="7.0" stroke="#fffAA"/><path d="M166-252l66-89" stroke-width="7.0" stroke="#fffAB"/><path d="M148-262l49-99" stroke-width="7.1" stroke="#fffAC"/><path d="M123-270l23-108" stroke-width="7.1" stroke="#c2e1ffAD"/><path d="M55-62l-46 100" stroke-width="7.1" stroke="#c2e1ffAE"/><path d="M116-271l17-109" stroke-width="7.2" stroke="#c2e1ffAE"/><path d="M208-181l108-18" stroke-width="7.2" stroke="#fffAF"/><path d="M64-60l-36 103" stroke-width="7.2" stroke="#005bbbB0"/><path d="M119-55l19 107" stroke-width="7.3" stroke="#c2e1ffB1"/><path d="M105-55l5 107" stroke-width="7.4" stroke="#005bbbB4"/><path d="M-2-130l-103 33" stroke-width="7.4" stroke="#fff500B4"/><path d="M202-191l102-29" stroke-width="7.5" stroke="#fffB8"/><path d="M203-181l104-18" stroke-width="7.6" stroke="#005bbbB9"/><path d="M7-211l-93-48" stroke-width="7.6" stroke="#fffBA"/><path d="M204-158l105 4" stroke-width="7.6" stroke="#fffBA"/><path d="M3-197l-98-34" stroke-width="7.7" stroke="#005bbbBD"/><path d="M185-219l85-57" stroke-width="7.8" stroke="#fffBF"/><path d="M100-264l0-101" stroke-width="7.8" stroke="#fffC1"/><path d="M68-257l-33-95" stroke-width="7.9" stroke="#005bbbC3"/><path d="M12-205l-88-42" stroke-width="8.0" stroke="#005bbbC7"/><path d="M30-95l-71 68" stroke-width="8.0" stroke="#fffC7"/><path d="M52-247l-47-85" stroke-width="8.0" stroke="#c2e1ffC7"/><path d="M35-232l-66-69" stroke-width="8.2" stroke="#005bbbCB"/><path d="M119-255l19-93" stroke-width="8.2" stroke="#fffCC"/><path d="M141-246l40-84" stroke-width="8.3" stroke="#c2e1ffCE"/><path d="M188-192l88-29" stroke-width="8.3" stroke="#fffCE"/><path d="M192-174l91-11" stroke-width="8.3" stroke="#fff500CF"/><path d="M43-94l-58 69" stroke-width="8.4" stroke="#005bbbD2"/><path d="M182-128l82 35" stroke-width="8.5" stroke="#fff500D3"/><path d="M175-210l75-47" stroke-width="8.5" stroke="#fffD3"/><path d="M162-103l61 60" stroke-width="8.6" stroke="#c2e1ffD7"/><path d="M124-81l25 82" stroke-width="8.6" stroke="#005bbbD7"/><path d="M20-133l-80 29" stroke-width="8.6" stroke="#c2e1ffD7"/><path d="M63-90l-36 73" stroke-width="8.8" stroke="#fff500DB"/><path d="M102-244l2-81" stroke-width="8.8" stroke="#fffDC"/><path d="M65-89l-35 73" stroke-width="8.8" stroke="#005bbbDC"/><path d="M135-90l36 73" stroke-width="8.8" stroke="#005bbbDC"/><path d="M130-236l30-74" stroke-width="8.8" stroke="#c2e1ffDD"/><path d="M172-133l72 30" stroke-width="8.9" stroke="#c2e1ffDF"/><path d="M143-228l43-65" stroke-width="8.9" stroke="#c2e1ffDF"/><path d="M37-208l-63-45" stroke-width="8.9" stroke="#c2e1ffDF"/><path d="M28-134l-72 29" stroke-width="8.9" stroke="#fffDF"/><path d="M53-102l-46 61" stroke-width="8.9" stroke="#c2e1ffE0"/><path d="M63-229l-37-66" stroke-width="8.9" stroke="#005bbbE1"/><path d="M26-151l-74 11" stroke-width="9.0" stroke="#c2e1ffE2"/><path d="M104-237l3-74" stroke-width="9.0" stroke="#fff500E2"/><path d="M54-111l-47 51" stroke-width="9.1" stroke="#fff500E6"/><path d="M36-140l-64 23" stroke-width="9.2" stroke="#c2e1ffE7"/><path d="M54-212l-45-50" stroke-width="9.2" stroke="#fff500E8"/><path d="M153-204l53-41" stroke-width="9.2" stroke="#fffE8"/><path d="M152-121l52 42" stroke-width="9.2" stroke="#fffE8"/><path d="M37-153l-63 9" stroke-width="9.3" stroke="#fff500EA"/><path d="M140-116l40 47" stroke-width="9.3" stroke="#fffEC"/><path d="M62-193l-38-31" stroke-width="9.6" stroke="#fff500F3"/><path d="M108-115l7 48" stroke-width="9.6" stroke="#fff500F3"/><path d="M146-148l46 14" stroke-width="9.6" stroke="#005bbbF4"/><path d="M111-207l10-45" stroke-width="9.6" stroke="#c2e1ffF4"/><path d="M63-140l-36 23" stroke-width="9.7" stroke="#c2e1ffF6"/><path d="M114-123l15 39" stroke-width="9.7" stroke="#fff500F6"/><path d="M100-203l1-41" stroke-width="9.7" stroke="#fff500F7"/><path d="M118-192l19-30" stroke-width="9.8" stroke="#c2e1ffF9"/><path d="M125-179l25-16" stroke-width="9.9" stroke="#fffFA"/><path d="M115-187l15-24" stroke-width="9.9" stroke="#c2e1ffFB"/><path d="M96-138l-3 24" stroke-width="9.9" stroke="#005bbbFC"/><path d="M87-159l-12 3" stroke-width="10.0" stroke="#fff500FE"/><path d="M107-168l7-6" stroke-width="10.0" stroke="#005bbbFE"/></g></svg>