<svg width="1200" height="675" viewBox="-500 -500 1200 675" xmlns="http://www.w3.org/2000/svg"><path d="M-500-500h1200v675h-1200z" fill="#000"/><style>.sparkles path{stroke-linecap:round}</style><g class="sparkles"><path d="M118-152l18 11" stroke-width="1.1" stroke="#fff2"/><path d="M128-185l28-22" stroke-width="1.2" stroke="#fff5005"/><path d="M137-176l37-13" stroke-width="1.3" stroke="#fff5007"/><path d="M139-169l39-7" stroke-width="1.3" stroke="#c2e1ff7"/><path d="M106-122l6 41" stroke-width="1.3" stroke="#c2e1ff7"/><path d="M134-137l34 25" stroke-width="1.3" stroke="#005bbb8"/><path d="M142-186l42-23" stroke-width="1.4" stroke="#fff500B"/><path d="M52-149l-49 13" stroke-width="1.4" stroke="#c2e1ffC"/><path d="M151-161l50 1" stroke-width="1.4" stroke="#c2e1ffC"/><path d="M75-116l-25 46" stroke-width="1.5" stroke="#c2e1ffD"/><path d="M128-114l27 49" stroke-width="1.5" stroke="#fffF"/><path d="M43-161l-57 2" stroke-width="1.6" stroke="#005bbbF"/><path d="M138-118l39 44" stroke-width="1.6" stroke="#005bbb10"/><path d="M54-200l-45-37" stroke-width="1.6" stroke="#fff50010"/><path d="M129-111l30 51" stroke-width="1.6" stroke="#fff50010"/><path d="M162-162l61 0" stroke-width="1.7" stroke="#c2e1ff12"/><path d="M81-102l-19 60" stroke-width="1.7" stroke="#c2e1ff13"/><path d="M78-224l-22-62" stroke-width="1.8" stroke="#c2e1ff15"/><path d="M75-99l-24 63" stroke-width="1.8" stroke="#c2e1ff17"/><path d="M136-100l35 62" stroke-width="1.9" stroke="#005bbb1A"/><path d="M78-93l-22 70" stroke-width="2.0" stroke="#005bbb1B"/><path d="M33-131l-67 31" stroke-width="2.0" stroke="#c2e1ff1B"/><path d="M25-155l-75 7" stroke-width="2.0" stroke="#fff5001D"/><path d="M43-112l-56 50" stroke-width="2.1" stroke="#005bbb1D"/><path d="M125-87l25 76" stroke-width="2.2" stroke="#005bbb21"/><path d="M64-87l-35 75" stroke-width="2.3" stroke="#005bbb24"/><path d="M179-133l79 30" stroke-width="2.4" stroke="#c2e1ff26"/><path d="M170-210l69-48" stroke-width="2.4" stroke="#005bbb26"/><path d="M157-226l58-63" stroke-width="2.4" stroke="#fff50027"/><path d="M166-217l66-55" stroke-width="2.4" stroke="#fff50027"/><path d="M17-191l-83-29" stroke-width="2.5" stroke="#c2e1ff2A"/><path d="M56-86l-44 77" stroke-width="2.5" stroke="#005bbb2A"/><path d="M123-249l22-86" stroke-width="2.6" stroke="#005bbb2B"/><path d="M185-132l85 31" stroke-width="2.6" stroke="#005bbb2D"/><path d="M180-209l80-47" stroke-width="2.7" stroke="#fff50030"/><path d="M19-208l-80-46" stroke-width="2.7" stroke="#c2e1ff30"/><path d="M183-206l84-43" stroke-width="2.8" stroke="#005bbb32"/><path d="M25-222l-76-60" stroke-width="2.9" stroke="#fff50035"/><path d="M163-88l63 75" stroke-width="3.0" stroke="#005bbb37"/><path d="M30-233l-70-70" stroke-width="3.0" stroke="#fff39"/><path d="M14-211l-87-48" stroke-width="3.0" stroke="#005bbb3A"/><path d="M199-164l99-2" stroke-width="3.1" stroke="#fff3A"/><path d="M68-68l-33 94" stroke-width="3.1" stroke="#005bbb3B"/><path d="M198-185l98-23" stroke-width="3.1" stroke="#fff3C"/><path d="M21-97l-79 66" stroke-width="3.3" stroke="#fff40"/><path d="M196-203l96-41" stroke-width="3.4" stroke="#fff43"/><path d="M203-185l103-22" stroke-width="3.5" stroke="#005bbb45"/><path d="M39-76l-61 87" stroke-width="3.5" stroke="#fff47"/><path d="M-2-194l-102-31" stroke-width="3.6" stroke="#fff48"/><path d="M71-59l-29 104" stroke-width="3.7" stroke="#c2e1ff4B"/><path d="M207-146l107 16" stroke-width="3.7" stroke="#fff5004B"/><path d="M180-90l80 72" stroke-width="3.7" stroke="#fff5004B"/><path d="M88-55l-13 108" stroke-width="3.7" stroke="#fff4C"/><path d="M67-59l-34 104" stroke-width="3.8" stroke="#fff4E"/><path d="M72-270l-28-107" stroke-width="3.9" stroke="#fff50052"/><path d="M-8-186l-108-24" stroke-width="3.9" stroke="#c2e1ff53"/><path d="M3-216l-97-54" stroke-width="3.9" stroke="#fff53"/><path d="M200-212l99-49" stroke-width="4.0" stroke="#fff50054"/><path d="M123-53l24 110" stroke-width="4.1" stroke="#fff58"/><path d="M22-245l-77-83" stroke-width="4.3" stroke="#005bbb5C"/><path d="M2-220l-99-58" stroke-width="4.3" stroke="#fff5005E"/><path d="M203-114l103 49" stroke-width="4.3" stroke="#c2e1ff5E"/><path d="M129-273l30-110" stroke-width="4.4" stroke="#c2e1ff5F"/><path d="M19-82l-80 81" stroke-width="4.4" stroke="#c2e1ff5F"/><path d="M-13-143l-114 20" stroke-width="4.5" stroke="#c2e1ff63"/><path d="M90-48l-9 115" stroke-width="4.5" stroke="#fff63"/><path d="M214-146l114 17" stroke-width="4.5" stroke="#c2e1ff64"/><path d="M7-94l-94 68" stroke-width="4.6" stroke="#fff65"/><path d="M87-278l-12-115" stroke-width="4.6" stroke="#fff67"/><path d="M194-94l94 68" stroke-width="4.7" stroke="#fff50067"/><path d="M172-72l73 91" stroke-width="4.7" stroke="#c2e1ff67"/><path d="M78-277l-22-114" stroke-width="4.7" stroke="#fff69"/><path d="M-4-215l-104-53" stroke-width="4.8" stroke="#005bbb6B"/><path d="M175-252l75-90" stroke-width="4.8" stroke="#c2e1ff6D"/><path d="M99-45l-1 117" stroke-width="4.9" stroke="#005bbb6E"/><path d="M99-280l-2-117" stroke-width="4.9" stroke="#c2e1ff6E"/><path d="M23-251l-76-89" stroke-width="5.0" stroke="#005bbb70"/><path d="M121-278l21-115" stroke-width="5.0" stroke="#c2e1ff71"/><path d="M-13-129l-112 33" stroke-width="5.0" stroke="#fff71"/><path d="M59-273l-41-110" stroke-width="5.0" stroke="#c2e1ff72"/><path d="M89-45l-10 117" stroke-width="5.0" stroke="#fff72"/><path d="M41-61l-60 101" stroke-width="5.1" stroke="#fff50072"/><path d="M21-75l-79 87" stroke-width="5.1" stroke="#fff73"/><path d="M71-277l-28-114" stroke-width="5.2" stroke="#fff75"/><path d="M218-160l118 3" stroke-width="5.2" stroke="#fff50076"/><path d="M146-54l47 108" stroke-width="5.2" stroke="#005bbb77"/><path d="M40-264l-60-101" stroke-width="5.2" stroke="#c2e1ff77"/><path d="M65-275l-36-113" stroke-width="5.3" stroke="#c2e1ff79"/><path d="M-17-146l-117 17" stroke-width="5.3" stroke="#fff5007A"/><path d="M122-279l22-116" stroke-width="5.4" stroke="#005bbb7C"/><path d="M93-45l-7 118" stroke-width="5.4" stroke="#fff7C"/><path d="M141-273l40-111" stroke-width="5.4" stroke="#c2e1ff7D"/><path d="M217-179l117-16" stroke-width="5.5" stroke="#fff7E"/><path d="M-15-138l-116 25" stroke-width="5.6" stroke="#005bbb83"/><path d="M182-77l81 85" stroke-width="5.7" stroke="#fff50084"/><path d="M179-250l80-87" stroke-width="5.7" stroke="#fff85"/><path d="M-9-117l-109 46" stroke-width="5.7" stroke="#fff50085"/><path d="M198-97l99 65" stroke-width="5.7" stroke="#fff50085"/><path d="M170-257l71-94" stroke-width="5.8" stroke="#c2e1ff88"/><path d="M38-263l-61-100" stroke-width="5.9" stroke="#c2e1ff89"/><path d="M-10-205l-110-42" stroke-width="5.9" stroke="#005bbb8A"/><path d="M40-264l-61-101" stroke-width="5.9" stroke="#fff8A"/><path d="M138-51l38 111" stroke-width="5.9" stroke="#c2e1ff8A"/><path d="M-12-197l-113-34" stroke-width="5.9" stroke="#c2e1ff8B"/><path d="M-11-123l-111 39" stroke-width="6.0" stroke="#fff8C"/><path d="M208-209l108-47" stroke-width="6.0" stroke="#005bbb8D"/><path d="M39-62l-61 100" stroke-width="6.0" stroke="#fff5008E"/><path d="M159-263l60-101" stroke-width="6.1" stroke="#fff91"/><path d="M210-201l110-38" stroke-width="6.3" stroke="#fff50095"/><path d="M18-245l-82-82" stroke-width="6.3" stroke="#fff50096"/><path d="M176-75l77 88" stroke-width="6.3" stroke="#005bbb96"/><path d="M-14-142l-115 20" stroke-width="6.3" stroke="#fff50097"/><path d="M92-47l-8 116" stroke-width="6.4" stroke="#fff50098"/><path d="M188-87l88 75" stroke-width="6.4" stroke="#fff98"/><path d="M166-68l65 95" stroke-width="6.5" stroke="#fff5009A"/><path d="M213-185l113-22" stroke-width="6.5" stroke="#fff9B"/><path d="M45-264l-54-101" stroke-width="6.5" stroke="#fff5009B"/><path d="M36-258l-65-95" stroke-width="6.6" stroke="#fff9D"/><path d="M199-221l98-58" stroke-width="6.6" stroke="#005bbb9E"/><path d="M126-51l25 112" stroke-width="6.6" stroke="#005bbb9F"/><path d="M133-272l33-109" stroke-width="6.7" stroke="#fffA0"/><path d="M161-67l61 96" stroke-width="6.8" stroke="#c2e1ffA3"/><path d="M35-254l-66-92" stroke-width="6.8" stroke="#fff500A5"/><path d="M-12-167l-113-4" stroke-width="6.9" stroke="#c2e1ffA6"/><path d="M51-263l-50-101" stroke-width="6.9" stroke="#c2e1ffA7"/><path d="M66-56l-35 106" stroke-width="7.0" stroke="#fff500A9"/><path d="M197-109l97 54" stroke-width="7.1" stroke="#fffAB"/><path d="M211-169l110-6" stroke-width="7.1" stroke="#fff500AB"/><path d="M145-62l46 100" stroke-width="7.1" stroke="#c2e1ffAD"/><path d="M-7-136l-106 27" stroke-width="7.1" stroke="#005bbbAE"/><path d="M6-217l-94-55" stroke-width="7.3" stroke="#fff500B1"/><path d="M56-65l-44 98" stroke-width="7.4" stroke="#c2e1ffB5"/><path d="M34-79l-67 83" stroke-width="7.4" stroke="#c2e1ffB6"/><path d="M84-58l-16 105" stroke-width="7.5" stroke="#fff500B7"/><path d="M9-217l-90-54" stroke-width="7.5" stroke="#fffB8"/><path d="M56-66l-43 96" stroke-width="7.5" stroke="#c2e1ffB8"/><path d="M52-256l-49-93" stroke-width="7.5" stroke="#c2e1ffB9"/><path d="M6-122l-95 40" stroke-width="7.7" stroke="#fffBE"/><path d="M30-89l-69 74" stroke-width="7.8" stroke="#005bbbC1"/><path d="M33-87l-67 75" stroke-width="7.8" stroke="#005bbbC1"/><path d="M33-88l-66 74" stroke-width="7.9" stroke="#c2e1ffC3"/><path d="M69-70l-31 93" stroke-width="8.0" stroke="#fff500C7"/><path d="M147-80l46 83" stroke-width="8.2" stroke="#fffCB"/><path d="M55-245l-45-83" stroke-width="8.2" stroke="#005bbbCC"/><path d="M187-193l87-30" stroke-width="8.3" stroke="#fffCF"/><path d="M67-78l-33 85" stroke-width="8.4" stroke="#c2e1ffD0"/><path d="M21-119l-80 44" stroke-width="8.4" stroke="#005bbbD1"/><path d="M181-122l81 40" stroke-width="8.4" stroke="#005bbbD1"/><path d="M22-207l-79-45" stroke-width="8.4" stroke="#fffD1"/><path d="M189-162l90 0" stroke-width="8.4" stroke="#fff500D2"/><path d="M79-249l-21-87" stroke-width="8.5" stroke="#fffD3"/><path d="M167-108l67 55" stroke-width="8.6" stroke="#005bbbD6"/><path d="M134-241l33-78" stroke-width="8.6" stroke="#c2e1ffD8"/><path d="M134-239l34-77" stroke-width="8.7" stroke="#c2e1ffD9"/><path d="M23-148l-78 14" stroke-width="8.9" stroke="#fff500DE"/><path d="M175-179l76-17" stroke-width="8.9" stroke="#c2e1ffDF"/><path d="M134-230l33-68" stroke-width="9.0" stroke="#c2e1ffE1"/><path d="M175-160l76 3" stroke-width="9.0" stroke="#c2e1ffE1"/><path d="M161-120l62 43" stroke-width="9.0" stroke="#005bbbE2"/><path d="M125-233l25-70" stroke-width="9.0" stroke="#fffE2"/><path d="M69-225l-31-62" stroke-width="9.1" stroke="#005bbbE6"/><path d="M93-229l-6-67" stroke-width="9.2" stroke="#fff500E8"/><path d="M47-128l-53 34" stroke-width="9.3" stroke="#fff500EB"/><path d="M54-125l-45 38" stroke-width="9.4" stroke="#fffED"/><path d="M56-201l-44-38" stroke-width="9.4" stroke="#fff500EE"/><path d="M101-105l0 58" stroke-width="9.4" stroke="#fffEE"/><path d="M78-216l-21-53" stroke-width="9.4" stroke="#005bbbEE"/><path d="M111-106l12 56" stroke-width="9.4" stroke="#fff500EF"/><path d="M43-169l-56-7" stroke-width="9.4" stroke="#005bbbEF"/><path d="M149-151l49 11" stroke-width="9.6" stroke="#005bbbF2"/><path d="M58-184l-41-21" stroke-width="9.6" stroke="#c2e1ffF4"/><path d="M83-121l-17 42" stroke-width="9.7" stroke="#c2e1ffF5"/><path d="M128-130l29 33" stroke-width="9.7" stroke="#fffF6"/><path d="M127-138l28 24" stroke-width="9.8" stroke="#fffF8"/><path d="M120-134l21 28" stroke-width="9.8" stroke="#005bbbF9"/><path d="M72-154l-28 8" stroke-width="9.9" stroke="#fff500FB"/><path d="M120-143l20 20" stroke-width="9.9" stroke="#c2e1ffFB"/><path d="M86-184l-13-21" stroke-width="9.9" stroke="#005bbbFC"/><path d="M90-141l-10 22" stroke-width="9.9" stroke="#c2e1ffFC"/><path d="M94-184l-7-21" stroke-width="9.9" stroke="#fffFC"/><path d="M96-161l-4 2" stroke-width="10.0" stroke="#005bbbFE"/></g></svg>