<svg width="1200" height="675" viewBox="-500 -500 1200 675" xmlns="http://www.w3.org/2000/svg"><path d="M-500-500h1200v675h-1200z" fill="#000"/><style>.sparkles path{stroke-linecap:round}</style><g class="sparkles"><path d="M95-162l-5 1" stroke-width="1.0" stroke="#fff5000"/><path d="M96-187l-5-24" stroke-width="1.1" stroke="#fff5002"/><path d="M131-178l31-16" stroke-width="1.2" stroke="#c2e1ff5"/><path d="M69-180l-31-17" stroke-width="1.2" stroke="#005bbb5"/><path d="M131-187l30-25" stroke-width="1.3" stroke="#c2e1ff7"/><path d="M60-167l-40-4" stroke-width="1.3" stroke="#c2e1ff7"/><path d="M135-141l35 22" stroke-width="1.3" stroke="#005bbb7"/><path d="M127-129l27 33" stroke-width="1.3" stroke="#005bbb8"/><path d="M69-196l-30-33" stroke-width="1.3" stroke="#fff5009"/><path d="M54-182l-46-20" stroke-width="1.4" stroke="#c2e1ffC"/><path d="M113-213l14-50" stroke-width="1.5" stroke="#fffC"/><path d="M98-219l-1-56" stroke-width="1.5" stroke="#c2e1ffF"/><path d="M43-158l-57 4" stroke-width="1.6" stroke="#c2e1ff10"/><path d="M42-155l-58 8" stroke-width="1.6" stroke="#005bbb10"/><path d="M43-196l-57-33" stroke-width="1.8" stroke="#c2e1ff15"/><path d="M98-229l-3-67" stroke-width="1.8" stroke="#005bbb16"/><path d="M139-218l39-55" stroke-width="1.8" stroke="#fff50017"/><path d="M75-98l-25 64" stroke-width="1.8" stroke="#005bbb17"/><path d="M168-153l69 10" stroke-width="1.9" stroke="#fff50018"/><path d="M168-144l68 18" stroke-width="1.9" stroke="#fff19"/><path d="M29-148l-70 15" stroke-width="1.9" stroke="#c2e1ff1A"/><path d="M27-165l-73-3" stroke-width="2.0" stroke="#fff5001B"/><path d="M68-229l-32-66" stroke-width="2.0" stroke="#fff1B"/><path d="M101-88l0 75" stroke-width="2.0" stroke="#005bbb1C"/><path d="M24-145l-75 18" stroke-width="2.1" stroke="#005bbb1F"/><path d="M177-149l77 13" stroke-width="2.1" stroke="#005bbb1F"/><path d="M51-101l-48 62" stroke-width="2.1" stroke="#005bbb20"/><path d="M179-168l78-6" stroke-width="2.1" stroke="#fff50020"/><path d="M152-226l53-64" stroke-width="2.3" stroke="#005bbb24"/><path d="M162-218l61-56" stroke-width="2.3" stroke="#fff50024"/><path d="M63-88l-38 75" stroke-width="2.3" stroke="#fff50025"/><path d="M36-217l-64-55" stroke-width="2.3" stroke="#c2e1ff26"/><path d="M60-88l-40 74" stroke-width="2.3" stroke="#005bbb26"/><path d="M144-240l43-77" stroke-width="2.5" stroke="#fff2B"/><path d="M178-120l79 43" stroke-width="2.6" stroke="#c2e1ff2C"/><path d="M18-201l-82-38" stroke-width="2.6" stroke="#005bbb2D"/><path d="M191-164l91-1" stroke-width="2.6" stroke="#005bbb2E"/><path d="M155-235l56-72" stroke-width="2.6" stroke="#fff2E"/><path d="M11-190l-89-28" stroke-width="2.7" stroke="#fff31"/><path d="M6-161l-94 2" stroke-width="2.8" stroke="#c2e1ff32"/><path d="M193-186l92-23" stroke-width="2.9" stroke="#005bbb34"/><path d="M129-71l30 91" stroke-width="2.9" stroke="#fff50035"/><path d="M8-190l-92-27" stroke-width="2.9" stroke="#fff50035"/><path d="M5-149l-96 13" stroke-width="2.9" stroke="#005bbb35"/><path d="M71-256l-28-93" stroke-width="3.0" stroke="#c2e1ff37"/><path d="M6-191l-93-29" stroke-width="3.0" stroke="#fff38"/><path d="M104-260l4-98" stroke-width="3.0" stroke="#fff50038"/><path d="M70-258l-29-95" stroke-width="3.1" stroke="#fff5003B"/><path d="M147-251l46-88" stroke-width="3.1" stroke="#fff5003B"/><path d="M115-261l15-99" stroke-width="3.1" stroke="#fff3B"/><path d="M29-233l-71-71" stroke-width="3.1" stroke="#005bbb3B"/><path d="M39-242l-62-79" stroke-width="3.1" stroke="#fff3C"/><path d="M20-101l-80 61" stroke-width="3.1" stroke="#fff3C"/><path d="M180-227l80-64" stroke-width="3.3" stroke="#005bbb40"/><path d="M181-99l81 64" stroke-width="3.3" stroke="#005bbb41"/><path d="M118-266l18-103" stroke-width="3.4" stroke="#fff50044"/><path d="M62-64l-39 98" stroke-width="3.5" stroke="#c2e1ff45"/><path d="M10-218l-90-55" stroke-width="3.5" stroke="#fff50046"/><path d="M8-111l-93 52" stroke-width="3.5" stroke="#005bbb46"/><path d="M-6-172l-106-10" stroke-width="3.6" stroke="#fff50048"/><path d="M38-250l-62-87" stroke-width="3.6" stroke="#fff5004A"/><path d="M192-107l92 56" stroke-width="3.7" stroke="#005bbb4B"/><path d="M106-270l6-108" stroke-width="3.7" stroke="#c2e1ff4B"/><path d="M-4-131l-103 32" stroke-width="3.7" stroke="#fff5004C"/><path d="M92-271l-8-108" stroke-width="3.7" stroke="#c2e1ff4D"/><path d="M1-118l-100 44" stroke-width="3.7" stroke="#c2e1ff4D"/><path d="M60-264l-40-101" stroke-width="3.8" stroke="#fff5004E"/><path d="M199-209l99-46" stroke-width="3.8" stroke="#fff5004E"/><path d="M173-244l73-82" stroke-width="3.8" stroke="#c2e1ff4F"/><path d="M203-200l104-37" stroke-width="3.8" stroke="#005bbb50"/><path d="M145-62l44 100" stroke-width="3.8" stroke="#005bbb50"/><path d="M190-231l90-69" stroke-width="4.2" stroke="#c2e1ff5C"/><path d="M28-75l-72 88" stroke-width="4.3" stroke="#fff5005C"/><path d="M213-150l114 12" stroke-width="4.3" stroke="#fff5005E"/><path d="M82-50l-18 113" stroke-width="4.3" stroke="#005bbb5E"/><path d="M144-57l44 106" stroke-width="4.4" stroke="#fff5F"/><path d="M14-87l-86 76" stroke-width="4.4" stroke="#fff61"/><path d="M80-276l-20-114" stroke-width="4.5" stroke="#fff63"/><path d="M-8-122l-108 41" stroke-width="4.5" stroke="#005bbb63"/><path d="M176-76l76 87" stroke-width="4.5" stroke="#fff64"/><path d="M3-100l-97 62" stroke-width="4.6" stroke="#fff50064"/><path d="M183-244l83-81" stroke-width="4.6" stroke="#005bbb67"/><path d="M106-47l7 116" stroke-width="4.7" stroke="#fff50068"/><path d="M155-60l55 102" stroke-width="4.7" stroke="#fff68"/><path d="M211-197l111-35" stroke-width="4.7" stroke="#c2e1ff69"/><path d="M5-96l-96 67" stroke-width="4.7" stroke="#005bbb69"/><path d="M-16-158l-117 4" stroke-width="4.8" stroke="#c2e1ff6A"/><path d="M28-254l-72-92" stroke-width="4.8" stroke="#005bbb6B"/><path d="M214-190l114-27" stroke-width="4.9" stroke="#fff6E"/><path d="M194-232l94-70" stroke-width="4.9" stroke="#fff6F"/><path d="M77-277l-23-115" stroke-width="4.9" stroke="#fff5006F"/><path d="M200-101l99 62" stroke-width="4.9" stroke="#fff6F"/><path d="M4-230l-96-67" stroke-width="5.0" stroke="#c2e1ff70"/><path d="M79-278l-20-116" stroke-width="5.0" stroke="#c2e1ff71"/><path d="M22-251l-77-88" stroke-width="5.1" stroke="#c2e1ff73"/><path d="M161-263l60-101" stroke-width="5.1" stroke="#c2e1ff73"/><path d="M183-79l82 84" stroke-width="5.1" stroke="#005bbb74"/><path d="M151-268l52-106" stroke-width="5.1" stroke="#005bbb74"/><path d="M-7-112l-106 50" stroke-width="5.2" stroke="#005bbb76"/><path d="M174-71l74 92" stroke-width="5.3" stroke="#c2e1ff78"/><path d="M0-226l-99-63" stroke-width="5.3" stroke="#005bbb79"/><path d="M42-60l-59 103" stroke-width="5.3" stroke="#005bbb7A"/><path d="M91-280l-8-118" stroke-width="5.3" stroke="#005bbb7A"/><path d="M109-280l9-118" stroke-width="5.4" stroke="#c2e1ff7D"/><path d="M14-81l-86 81" stroke-width="5.5" stroke="#fff5007E"/><path d="M62-51l-38 112" stroke-width="5.5" stroke="#c2e1ff7E"/><path d="M209-208l109-46" stroke-width="5.5" stroke="#fff5007F"/><path d="M-18-161l-118 2" stroke-width="5.6" stroke="#c2e1ff82"/><path d="M23-73l-76 90" stroke-width="5.6" stroke="#c2e1ff83"/><path d="M175-72l76 91" stroke-width="5.7" stroke="#fff83"/><path d="M30-257l-71-95" stroke-width="5.7" stroke="#c2e1ff86"/><path d="M123-47l23 116" stroke-width="5.7" stroke="#fff50086"/><path d="M211-202l111-39" stroke-width="5.8" stroke="#c2e1ff86"/><path d="M167-66l68 97" stroke-width="5.8" stroke="#c2e1ff87"/><path d="M168-67l69 96" stroke-width="5.8" stroke="#005bbb87"/><path d="M149-56l50 107" stroke-width="5.8" stroke="#fff88"/><path d="M187-242l87-79" stroke-width="5.9" stroke="#fff5008A"/><path d="M217-176l117-13" stroke-width="5.9" stroke="#fff8B"/><path d="M61-52l-38 111" stroke-width="6.0" stroke="#c2e1ff8D"/><path d="M-17-165l-117-2" stroke-width="6.0" stroke="#fff5008F"/><path d="M86-278l-14-116" stroke-width="6.2" stroke="#005bbb92"/><path d="M1-225l-98-62" stroke-width="6.2" stroke="#c2e1ff93"/><path d="M4-98l-97 65" stroke-width="6.3" stroke="#fff50096"/><path d="M140-271l40-109" stroke-width="6.4" stroke="#fff97"/><path d="M76-49l-24 113" stroke-width="6.4" stroke="#fff98"/><path d="M164-259l65-96" stroke-width="6.4" stroke="#fff99"/><path d="M146-268l46-106" stroke-width="6.5" stroke="#fff5009B"/><path d="M5-98l-96 64" stroke-width="6.5" stroke="#c2e1ff9C"/><path d="M24-76l-76 86" stroke-width="6.5" stroke="#c2e1ff9C"/><path d="M-4-114l-103 49" stroke-width="6.6" stroke="#c2e1ff9E"/><path d="M-14-159l-114 3" stroke-width="6.6" stroke="#005bbb9F"/><path d="M133-54l33 109" stroke-width="6.7" stroke="#c2e1ffA1"/><path d="M10-231l-90-69" stroke-width="6.8" stroke="#c2e1ffA3"/><path d="M15-88l-86 74" stroke-width="6.8" stroke="#fffA3"/><path d="M108-275l7-113" stroke-width="6.8" stroke="#fffA4"/><path d="M16-236l-84-73" stroke-width="7.0" stroke="#fffAA"/><path d="M175-240l76-78" stroke-width="7.3" stroke="#fffB2"/><path d="M167-246l67-84" stroke-width="7.4" stroke="#c2e1ffB4"/><path d="M166-246l65-83" stroke-width="7.5" stroke="#c2e1ffB8"/><path d="M178-232l78-70" stroke-width="7.6" stroke="#fffBA"/><path d="M94-266l-7-104" stroke-width="7.6" stroke="#fffBC"/><path d="M15-222l-85-59" stroke-width="7.7" stroke="#fffBC"/><path d="M5-201l-95-38" stroke-width="7.7" stroke="#005bbbBF"/><path d="M182-223l82-60" stroke-width="7.8" stroke="#fff500C0"/><path d="M40-245l-60-82" stroke-width="7.8" stroke="#fffC0"/><path d="M96-263l-4-100" stroke-width="7.9" stroke="#c2e1ffC2"/><path d="M8-204l-91-42" stroke-width="7.9" stroke="#005bbbC2"/><path d="M46-247l-53-84" stroke-width="7.9" stroke="#c2e1ffC3"/><path d="M147-249l47-87" stroke-width="8.0" stroke="#fffC5"/><path d="M105-260l5-98" stroke-width="8.0" stroke="#c2e1ffC6"/><path d="M95-259l-4-97" stroke-width="8.1" stroke="#005bbbC8"/><path d="M13-201l-88-38" stroke-width="8.2" stroke="#fff500CA"/><path d="M77-72l-22 91" stroke-width="8.3" stroke="#005bbbCD"/><path d="M165-225l65-63" stroke-width="8.4" stroke="#fff500D1"/><path d="M17-130l-82 33" stroke-width="8.5" stroke="#fff500D3"/><path d="M67-244l-34-82" stroke-width="8.5" stroke="#005bbbD4"/><path d="M158-101l58 61" stroke-width="8.6" stroke="#fffD8"/><path d="M156-99l55 63" stroke-width="8.6" stroke="#fffD8"/><path d="M131-240l32-78" stroke-width="8.7" stroke="#fffD9"/><path d="M182-179l82-16" stroke-width="8.7" stroke="#005bbbD9"/><path d="M179-189l78-26" stroke-width="8.7" stroke="#fff500DA"/><path d="M51-96l-48 67" stroke-width="8.7" stroke="#fff500DA"/><path d="M180-144l80 19" stroke-width="8.7" stroke="#fffDB"/><path d="M68-89l-32 73" stroke-width="8.8" stroke="#005bbbDD"/><path d="M98-84l-3 79" stroke-width="8.8" stroke="#fff500DE"/><path d="M84-87l-16 75" stroke-width="8.9" stroke="#fff500E0"/><path d="M92-234l-9-72" stroke-width="9.1" stroke="#c2e1ffE4"/><path d="M150-112l51 51" stroke-width="9.1" stroke="#c2e1ffE5"/><path d="M77-98l-23 64" stroke-width="9.2" stroke="#fffE7"/><path d="M128-220l28-58" stroke-width="9.3" stroke="#fffEA"/><path d="M45-185l-55-23" stroke-width="9.4" stroke="#005bbbED"/><path d="M97-107l-4 56" stroke-width="9.5" stroke="#fffEF"/><path d="M154-149l53 14" stroke-width="9.5" stroke="#c2e1ffF0"/><path d="M96-217l-5-55" stroke-width="9.5" stroke="#fff500F0"/><path d="M152-162l53 0" stroke-width="9.5" stroke="#fff500F1"/><path d="M144-145l45 18" stroke-width="9.6" stroke="#005bbbF4"/><path d="M146-171l47-9" stroke-width="9.6" stroke="#fff500F4"/><path d="M78-123l-22 40" stroke-width="9.7" stroke="#005bbbF5"/><path d="M73-177l-27-15" stroke-width="9.8" stroke="#fffFA"/><path d="M106-134l6 29" stroke-width="9.9" stroke="#fff500FB"/><path d="M90-159l-11 3" stroke-width="10.0" stroke="#005bbbFE"/></g></svg>