<svg width="1200" height="675" viewBox="-500 -500 1200 675" xmlns="http://www.w3.org/2000/svg"><path d="M-500-500h1200v675h-1200z" fill="#000"/><style>.sparkles path{stroke-linecap:round}</style><g class="sparkles"><path d="M114-138l13 25" stroke-width="1.1" stroke="#fff3"/><path d="M133-156l32 7" stroke-width="1.2" stroke="#fff5"/><path d="M133-157l34 5" stroke-width="1.2" stroke="#c2e1ff5"/><path d="M109-204l10-41" stroke-width="1.3" stroke="#fff5008"/><path d="M85-117l-14 46" stroke-width="1.4" stroke="#fff500B"/><path d="M122-211l23-48" stroke-width="1.5" stroke="#fffD"/><path d="M137-124l38 39" stroke-width="1.5" stroke="#fff500D"/><path d="M123-114l24 48" stroke-width="1.5" stroke="#c2e1ffD"/><path d="M95-217l-6-54" stroke-width="1.5" stroke="#fff500E"/><path d="M55-130l-46 33" stroke-width="1.5" stroke="#005bbbF"/><path d="M153-142l54 21" stroke-width="1.6" stroke="#fff50010"/><path d="M78-220l-22-58" stroke-width="1.7" stroke="#fff50012"/><path d="M54-205l-47-42" stroke-width="1.7" stroke="#fff50013"/><path d="M74-222l-26-60" stroke-width="1.7" stroke="#c2e1ff15"/><path d="M57-113l-42 50" stroke-width="1.8" stroke="#005bbb15"/><path d="M48-119l-53 43" stroke-width="1.8" stroke="#fff50017"/><path d="M33-174l-68-11" stroke-width="1.8" stroke="#fff50017"/><path d="M66-225l-33-62" stroke-width="1.9" stroke="#005bbb19"/><path d="M155-113l56 49" stroke-width="2.0" stroke="#fff1C"/><path d="M146-104l46 58" stroke-width="2.0" stroke="#fff5001C"/><path d="M111-88l11 74" stroke-width="2.0" stroke="#c2e1ff1C"/><path d="M48-108l-53 54" stroke-width="2.0" stroke="#fff1D"/><path d="M99-87l0 76" stroke-width="2.0" stroke="#fff5001D"/><path d="M159-212l59-49" stroke-width="2.1" stroke="#fff1E"/><path d="M43-219l-58-57" stroke-width="2.2" stroke="#fff50022"/><path d="M34-115l-65 48" stroke-width="2.2" stroke="#fff50022"/><path d="M51-230l-49-67" stroke-width="2.3" stroke="#c2e1ff25"/><path d="M16-172l-84-9" stroke-width="2.3" stroke="#fff50026"/><path d="M163-225l63-62" stroke-width="2.5" stroke="#c2e1ff2B"/><path d="M181-198l81-36" stroke-width="2.5" stroke="#fff5002B"/><path d="M14-187l-85-25" stroke-width="2.5" stroke="#fff2B"/><path d="M155-234l55-72" stroke-width="2.6" stroke="#005bbb2D"/><path d="M71-76l-28 87" stroke-width="2.7" stroke="#005bbb2E"/><path d="M187-192l87-30" stroke-width="2.7" stroke="#c2e1ff2F"/><path d="M47-238l-53-76" stroke-width="2.7" stroke="#fff50030"/><path d="M16-124l-85 38" stroke-width="2.7" stroke="#fff50030"/><path d="M107-255l8-92" stroke-width="2.7" stroke="#fff50030"/><path d="M31-226l-68-63" stroke-width="2.7" stroke="#fff50031"/><path d="M9-186l-90-23" stroke-width="2.8" stroke="#005bbb31"/><path d="M11-133l-89 30" stroke-width="2.8" stroke="#005bbb31"/><path d="M138-74l37 88" stroke-width="2.9" stroke="#fff34"/><path d="M154-82l53 80" stroke-width="2.9" stroke="#c2e1ff36"/><path d="M169-93l70 69" stroke-width="3.0" stroke="#fff50038"/><path d="M97-260l-3-98" stroke-width="3.0" stroke="#c2e1ff38"/><path d="M90-65l-11 98" stroke-width="3.0" stroke="#fff50039"/><path d="M59-72l-41 90" stroke-width="3.0" stroke="#005bbb39"/><path d="M29-232l-71-69" stroke-width="3.1" stroke="#fff3A"/><path d="M170-233l70-70" stroke-width="3.1" stroke="#fff5003A"/><path d="M42-81l-57 82" stroke-width="3.1" stroke="#c2e1ff3B"/><path d="M0-174l-100-11" stroke-width="3.1" stroke="#c2e1ff3C"/><path d="M135-68l35 95" stroke-width="3.2" stroke="#005bbb3D"/><path d="M199-141l99 22" stroke-width="3.2" stroke="#c2e1ff3D"/><path d="M152-249l52-87" stroke-width="3.2" stroke="#fff5003E"/><path d="M200-189l100-26" stroke-width="3.3" stroke="#005bbb42"/><path d="M12-108l-88 55" stroke-width="3.3" stroke="#fff50042"/><path d="M5-118l-96 45" stroke-width="3.5" stroke="#fff50045"/><path d="M135-262l34-100" stroke-width="3.5" stroke="#fff46"/><path d="M13-222l-88-60" stroke-width="3.5" stroke="#fff50047"/><path d="M187-101l86 61" stroke-width="3.5" stroke="#c2e1ff47"/><path d="M204-142l105 20" stroke-width="3.5" stroke="#005bbb47"/><path d="M51-258l-48-96" stroke-width="3.6" stroke="#fff50049"/><path d="M169-81l70 82" stroke-width="3.6" stroke="#c2e1ff4A"/><path d="M208-164l108-2" stroke-width="3.7" stroke="#fff5004B"/><path d="M207-177l107-15" stroke-width="3.7" stroke="#fff4B"/><path d="M65-60l-36 103" stroke-width="3.7" stroke="#fff4D"/><path d="M77-55l-23 107" stroke-width="3.8" stroke="#fff4F"/><path d="M206-191l106-29" stroke-width="3.8" stroke="#c2e1ff50"/><path d="M118-273l19-111" stroke-width="4.1" stroke="#c2e1ff57"/><path d="M1-216l-99-54" stroke-width="4.1" stroke="#fff50059"/><path d="M209-193l108-31" stroke-width="4.2" stroke="#005bbb59"/><path d="M209-194l108-31" stroke-width="4.2" stroke="#fff5A"/><path d="M18-85l-83 78" stroke-width="4.2" stroke="#c2e1ff5B"/><path d="M205-206l105-44" stroke-width="4.3" stroke="#fff5005C"/><path d="M-9-195l-109-32" stroke-width="4.3" stroke="#005bbb5D"/><path d="M8-230l-91-68" stroke-width="4.3" stroke="#c2e1ff5D"/><path d="M21-79l-78 83" stroke-width="4.4" stroke="#005bbb60"/><path d="M136-271l36-109" stroke-width="4.4" stroke="#fff61"/><path d="M-13-143l-114 19" stroke-width="4.5" stroke="#c2e1ff62"/><path d="M181-245l81-82" stroke-width="4.5" stroke="#fff63"/><path d="M117-48l18 114" stroke-width="4.6" stroke="#fff64"/><path d="M208-203l109-41" stroke-width="4.6" stroke="#fff50065"/><path d="M158-263l59-100" stroke-width="4.6" stroke="#005bbb67"/><path d="M107-47l6 116" stroke-width="4.7" stroke="#fff50067"/><path d="M33-258l-67-95" stroke-width="4.7" stroke="#005bbb69"/><path d="M135-274l35-111" stroke-width="4.7" stroke="#fff6A"/><path d="M184-82l85 80" stroke-width="4.7" stroke="#c2e1ff6A"/><path d="M6-231l-95-68" stroke-width="4.8" stroke="#fff6A"/><path d="M50-57l-51 105" stroke-width="4.8" stroke="#fff6C"/><path d="M29-255l-71-93" stroke-width="4.8" stroke="#fff5006C"/><path d="M211-124l111 38" stroke-width="5.0" stroke="#fff50072"/><path d="M159-264l60-101" stroke-width="5.1" stroke="#005bbb73"/><path d="M170-67l69 95" stroke-width="5.2" stroke="#fff50076"/><path d="M-15-188l-115-26" stroke-width="5.3" stroke="#fff5007B"/><path d="M82-279l-18-117" stroke-width="5.4" stroke="#005bbb7D"/><path d="M0-99l-100 63" stroke-width="5.6" stroke="#fff82"/><path d="M-7-113l-107 50" stroke-width="5.6" stroke="#fff50083"/><path d="M-13-128l-113 35" stroke-width="5.7" stroke="#fff84"/><path d="M-18-170l-117-8" stroke-width="5.7" stroke="#005bbb85"/><path d="M-17-150l-118 13" stroke-width="5.7" stroke="#fff85"/><path d="M111-280l12-117" stroke-width="5.9" stroke="#c2e1ff8A"/><path d="M215-138l115 25" stroke-width="5.9" stroke="#005bbb8B"/><path d="M176-73l75 90" stroke-width="6.0" stroke="#005bbb8C"/><path d="M139-273l39-111" stroke-width="6.0" stroke="#fff5008D"/><path d="M35-65l-66 97" stroke-width="6.1" stroke="#c2e1ff8F"/><path d="M-11-125l-111 37" stroke-width="6.1" stroke="#fff50091"/><path d="M73-49l-27 114" stroke-width="6.1" stroke="#fff91"/><path d="M23-75l-78 88" stroke-width="6.1" stroke="#fff50091"/><path d="M25-252l-75-89" stroke-width="6.2" stroke="#005bbb94"/><path d="M143-271l43-108" stroke-width="6.3" stroke="#fff50095"/><path d="M128-275l29-112" stroke-width="6.4" stroke="#005bbb98"/><path d="M214-147l115 16" stroke-width="6.4" stroke="#c2e1ff99"/><path d="M-13-140l-113 23" stroke-width="6.5" stroke="#005bbb9B"/><path d="M-9-199l-109-36" stroke-width="6.5" stroke="#fff9C"/><path d="M113-48l12 114" stroke-width="6.5" stroke="#005bbb9C"/><path d="M185-86l86 76" stroke-width="6.6" stroke="#fff5009E"/><path d="M130-52l30 110" stroke-width="6.6" stroke="#fff9F"/><path d="M-13-179l-112-17" stroke-width="6.7" stroke="#005bbbA0"/><path d="M59-269l-41-106" stroke-width="6.7" stroke="#fff500A1"/><path d="M9-94l-90 68" stroke-width="6.8" stroke="#fff500A3"/><path d="M-6-201l-106-39" stroke-width="6.8" stroke="#c2e1ffA4"/><path d="M181-85l81 78" stroke-width="6.9" stroke="#fff500A6"/><path d="M102-275l1-112" stroke-width="6.9" stroke="#fffA7"/><path d="M-11-156l-111 6" stroke-width="7.0" stroke="#fff500AB"/><path d="M112-273l12-110" stroke-width="7.0" stroke="#c2e1ffAB"/><path d="M108-273l7-111" stroke-width="7.1" stroke="#fffAB"/><path d="M9-100l-90 62" stroke-width="7.1" stroke="#c2e1ffAD"/><path d="M201-206l101-43" stroke-width="7.1" stroke="#005bbbAE"/><path d="M173-243l73-81" stroke-width="7.2" stroke="#fff500B0"/><path d="M98-271l-2-109" stroke-width="7.2" stroke="#fff500B0"/><path d="M31-80l-68 83" stroke-width="7.4" stroke="#c2e1ffB4"/><path d="M12-222l-88-60" stroke-width="7.4" stroke="#fff500B6"/><path d="M80-267l-21-104" stroke-width="7.5" stroke="#005bbbB7"/><path d="M204-181l104-18" stroke-width="7.5" stroke="#fffB8"/><path d="M171-86l72 77" stroke-width="7.6" stroke="#fff500B9"/><path d="M185-222l85-60" stroke-width="7.7" stroke="#c2e1ffBC"/><path d="M201-162l100 0" stroke-width="7.9" stroke="#005bbbC2"/><path d="M2-182l-99-19" stroke-width="7.9" stroke="#c2e1ffC3"/><path d="M198-179l98-17" stroke-width="7.9" stroke="#c2e1ffC4"/><path d="M161-86l62 76" stroke-width="8.0" stroke="#005bbbC6"/><path d="M75-68l-25 95" stroke-width="8.0" stroke="#fff500C7"/><path d="M106-259l7-97" stroke-width="8.1" stroke="#fff500C8"/><path d="M60-74l-39 88" stroke-width="8.1" stroke="#fffC8"/><path d="M137-252l36-89" stroke-width="8.1" stroke="#c2e1ffC8"/><path d="M66-73l-35 90" stroke-width="8.1" stroke="#fff500C9"/><path d="M4-156l-96 6" stroke-width="8.1" stroke="#fffC9"/><path d="M68-252l-31-90" stroke-width="8.2" stroke="#fff500CB"/><path d="M165-93l64 70" stroke-width="8.2" stroke="#fff500CB"/><path d="M46-86l-54 77" stroke-width="8.2" stroke="#005bbbCC"/><path d="M176-216l76-54" stroke-width="8.3" stroke="#fff500CD"/><path d="M149-83l48 79" stroke-width="8.3" stroke="#fffCE"/><path d="M58-81l-42 82" stroke-width="8.3" stroke="#005bbbCF"/><path d="M153-236l54-74" stroke-width="8.4" stroke="#fff500D0"/><path d="M153-234l53-71" stroke-width="8.5" stroke="#005bbbD3"/><path d="M85-76l-15 86" stroke-width="8.5" stroke="#005bbbD5"/><path d="M19-137l-82 26" stroke-width="8.6" stroke="#fffD7"/><path d="M158-224l58-61" stroke-width="8.6" stroke="#fffD8"/><path d="M91-246l-9-84" stroke-width="8.7" stroke="#fff500D9"/><path d="M139-236l40-74" stroke-width="8.7" stroke="#c2e1ffD9"/><path d="M50-228l-49-65" stroke-width="8.7" stroke="#fff500DB"/><path d="M38-112l-62 50" stroke-width="8.8" stroke="#c2e1ffDD"/><path d="M70-232l-30-70" stroke-width="8.9" stroke="#fffE1"/><path d="M51-107l-49 55" stroke-width="9.0" stroke="#fffE2"/><path d="M147-220l46-57" stroke-width="9.0" stroke="#fffE2"/><path d="M66-97l-34 65" stroke-width="9.0" stroke="#005bbbE3"/><path d="M61-221l-40-59" stroke-width="9.1" stroke="#fffE5"/><path d="M30-171l-69-8" stroke-width="9.1" stroke="#c2e1ffE6"/><path d="M65-218l-36-55" stroke-width="9.2" stroke="#fff500E9"/><path d="M52-124l-48 39" stroke-width="9.3" stroke="#c2e1ffEC"/><path d="M79-219l-21-56" stroke-width="9.4" stroke="#fff500ED"/><path d="M47-190l-53-28" stroke-width="9.4" stroke="#005bbbED"/><path d="M80-108l-20 55" stroke-width="9.4" stroke="#fffEE"/><path d="M150-142l50 20" stroke-width="9.5" stroke="#fff500F0"/><path d="M128-209l28-46" stroke-width="9.5" stroke="#fffF0"/><path d="M137-124l37 39" stroke-width="9.5" stroke="#fff500F1"/><path d="M52-171l-48-8" stroke-width="9.6" stroke="#005bbbF3"/><path d="M137-189l37-27" stroke-width="9.7" stroke="#005bbbF5"/><path d="M107-207l8-44" stroke-width="9.7" stroke="#005bbbF5"/><path d="M129-133l29 30" stroke-width="9.7" stroke="#c2e1ffF6"/><path d="M78-177l-22-15" stroke-width="9.9" stroke="#005bbbFB"/><path d="M114-145l15 18" stroke-width="9.9" stroke="#c2e1ffFC"/><path d="M107-159l7 4" stroke-width="10.0" stroke="#fff500FE"/></g></svg>