<svg width="1200" height="675" viewBox="-500 -500 1200 675" xmlns="http://www.w3.org/2000/svg"><path d="M-500-500h1200v675h-1200z" fill="#000"/><style>.sparkles path{stroke-linecap:round}</style><g class="sparkles"><path d="M106-153l7 9" stroke-width="1.0" stroke="#fca3110"/><path d="M83-177l-16-14" stroke-width="1.1" stroke="#fca3112"/><path d="M120-145l21 18" stroke-width="1.1" stroke="#fca3113"/><path d="M84-194l-15-31" stroke-width="1.2" stroke="#ffffff5"/><path d="M70-133l-29 29" stroke-width="1.3" stroke="#fca3118"/><path d="M59-168l-42-6" stroke-width="1.3" stroke="#14213d8"/><path d="M60-178l-41-15" stroke-width="1.3" stroke="#fca3118"/><path d="M84-204l-15-41" stroke-width="1.3" stroke="#e5e5e59"/><path d="M74-122l-27 41" stroke-width="1.4" stroke="#e5e5e5B"/><path d="M56-139l-44 24" stroke-width="1.4" stroke="#ffffffB"/><path d="M149-147l49 15" stroke-width="1.4" stroke="#ffffffC"/><path d="M63-121l-37 41" stroke-width="1.5" stroke="#14213dE"/><path d="M116-108l17 54" stroke-width="1.6" stroke="#e5e5e5F"/><path d="M101-220l1-57" stroke-width="1.6" stroke="#14213dF"/><path d="M89-219l-12-56" stroke-width="1.6" stroke="#e5e5e510"/><path d="M99-221l-2-58" stroke-width="1.6" stroke="#e5e5e510"/><path d="M59-117l-40 45" stroke-width="1.6" stroke="#11223312"/><path d="M108-101l9 61" stroke-width="1.7" stroke="#ffffff12"/><path d="M161-150l61 13" stroke-width="1.7" stroke="#e5e5e513"/><path d="M45-192l-56-29" stroke-width="1.7" stroke="#14213d13"/><path d="M122-221l22-59" stroke-width="1.7" stroke="#ffffff13"/><path d="M108-227l8-65" stroke-width="1.7" stroke="#e5e5e515"/><path d="M165-165l66-2" stroke-width="1.8" stroke="#14213d15"/><path d="M31-163l-69-1" stroke-width="1.8" stroke="#11223317"/><path d="M163-132l64 31" stroke-width="1.9" stroke="#14213d19"/><path d="M36-132l-64 31" stroke-width="1.9" stroke="#14213d19"/><path d="M50-215l-51-53" stroke-width="2.0" stroke="#14213d1B"/><path d="M95-236l-6-74" stroke-width="2.0" stroke="#fca3111C"/><path d="M58-100l-42 62" stroke-width="2.0" stroke="#ffffff1C"/><path d="M27-139l-72 23" stroke-width="2.1" stroke="#1122331E"/><path d="M169-129l69 33" stroke-width="2.1" stroke="#e5e5e51E"/><path d="M52-102l-48 61" stroke-width="2.1" stroke="#14213d1F"/><path d="M23-150l-76 13" stroke-width="2.1" stroke="#ffffff1F"/><path d="M179-159l78 3" stroke-width="2.1" stroke="#14213d20"/><path d="M179-164l80-1" stroke-width="2.2" stroke="#e5e5e521"/><path d="M44-99l-55 63" stroke-width="2.3" stroke="#11223326"/><path d="M148-93l49 70" stroke-width="2.4" stroke="#fca31126"/><path d="M16-142l-85 20" stroke-width="2.5" stroke="#e5e5e529"/><path d="M56-85l-43 77" stroke-width="2.5" stroke="#e5e5e52B"/><path d="M124-248l24-86" stroke-width="2.5" stroke="#14213d2B"/><path d="M147-241l48-79" stroke-width="2.7" stroke="#ffffff2F"/><path d="M31-102l-70 61" stroke-width="2.7" stroke="#fca3112F"/><path d="M101-70l1 92" stroke-width="2.7" stroke="#1122332F"/><path d="M191-146l91 16" stroke-width="2.7" stroke="#fca3112F"/><path d="M49-241l-50-78" stroke-width="2.7" stroke="#ffffff30"/><path d="M118-254l18-92" stroke-width="2.8" stroke="#ffffff31"/><path d="M6-154l-93 9" stroke-width="2.8" stroke="#11223332"/><path d="M86-68l-13 94" stroke-width="2.8" stroke="#11223333"/><path d="M8-187l-92-25" stroke-width="2.8" stroke="#14213d33"/><path d="M10-193l-90-31" stroke-width="2.8" stroke="#11223333"/><path d="M8-135l-92 28" stroke-width="2.9" stroke="#e5e5e535"/><path d="M132-253l33-91" stroke-width="2.9" stroke="#fca31135"/><path d="M46-81l-54 81" stroke-width="3.0" stroke="#14213d37"/><path d="M8-127l-92 36" stroke-width="3.0" stroke="#14213d39"/><path d="M97-262l-3-100" stroke-width="3.1" stroke="#ffffff3B"/><path d="M163-83l63 79" stroke-width="3.2" stroke="#14213d3D"/><path d="M199-187l100-25" stroke-width="3.3" stroke="#e5e5e53F"/><path d="M4-199l-96-37" stroke-width="3.3" stroke="#14213d40"/><path d="M177-94l78 69" stroke-width="3.3" stroke="#11223342"/><path d="M185-222l85-59" stroke-width="3.3" stroke="#11223342"/><path d="M-2-186l-102-24" stroke-width="3.4" stroke="#fca31144"/><path d="M92-268l-8-106" stroke-width="3.5" stroke="#fca31147"/><path d="M198-122l98 41" stroke-width="3.5" stroke="#ffffff48"/><path d="M18-93l-82 69" stroke-width="3.6" stroke="#1122334A"/><path d="M-4-126l-104 37" stroke-width="3.9" stroke="#11223352"/><path d="M141-59l41 103" stroke-width="4.0" stroke="#14213d53"/><path d="M202-212l102-49" stroke-width="4.2" stroke="#1122335B"/><path d="M211-139l111 23" stroke-width="4.2" stroke="#1122335B"/><path d="M27-249l-73-87" stroke-width="4.3" stroke="#1122335C"/><path d="M209-197l109-34" stroke-width="4.3" stroke="#ffffff5E"/><path d="M-11-187l-112-24" stroke-width="4.3" stroke="#ffffff5E"/><path d="M165-68l64 94" stroke-width="4.3" stroke="#1122335E"/><path d="M207-122l107 40" stroke-width="4.3" stroke="#14213d5E"/><path d="M72-52l-29 111" stroke-width="4.4" stroke="#e5e5e55F"/><path d="M168-69l67 93" stroke-width="4.5" stroke="#11223362"/><path d="M4-226l-97-63" stroke-width="4.5" stroke="#14213d63"/><path d="M173-73l72 90" stroke-width="4.5" stroke="#14213d64"/><path d="M216-171l116-8" stroke-width="4.7" stroke="#fca31167"/><path d="M-10-201l-110-39" stroke-width="4.8" stroke="#fca3116A"/><path d="M215-187l115-24" stroke-width="5.0" stroke="#fca31170"/><path d="M152-57l51 106" stroke-width="5.0" stroke="#14213d72"/><path d="M13-242l-87-79" stroke-width="5.0" stroke="#fca31172"/><path d="M120-279l20-116" stroke-width="5.2" stroke="#fca31175"/><path d="M215-137l115 25" stroke-width="5.2" stroke="#14213d76"/><path d="M211-124l112 39" stroke-width="5.3" stroke="#11223378"/><path d="M199-98l99 64" stroke-width="5.3" stroke="#ffffff79"/><path d="M-15-137l-115 25" stroke-width="5.3" stroke="#ffffff79"/><path d="M149-270l49-107" stroke-width="5.3" stroke="#1122337B"/><path d="M-11-121l-110 41" stroke-width="5.5" stroke="#fca3117E"/><path d="M80-279l-20-116" stroke-width="5.6" stroke="#ffffff82"/><path d="M118-279l18-117" stroke-width="5.6" stroke="#ffffff82"/><path d="M156-266l57-104" stroke-width="5.6" stroke="#ffffff82"/><path d="M118-279l19-117" stroke-width="5.6" stroke="#fca31183"/><path d="M130-277l29-114" stroke-width="5.7" stroke="#ffffff83"/><path d="M199-227l99-64" stroke-width="5.7" stroke="#e5e5e585"/><path d="M203-104l102 58" stroke-width="5.7" stroke="#ffffff85"/><path d="M100-45l-1 118" stroke-width="5.8" stroke="#e5e5e589"/><path d="M142-272l43-110" stroke-width="5.9" stroke="#1122338B"/><path d="M139-52l40 111" stroke-width="6.0" stroke="#ffffff8D"/><path d="M153-267l53-105" stroke-width="6.0" stroke="#fca3118D"/><path d="M142-272l41-110" stroke-width="6.1" stroke="#fca3118F"/><path d="M140-272l40-110" stroke-width="6.1" stroke="#fca31191"/><path d="M210-202l110-40" stroke-width="6.2" stroke="#fca31192"/><path d="M207-117l106 46" stroke-width="6.4" stroke="#ffffff97"/><path d="M174-74l75 89" stroke-width="6.4" stroke="#14213d99"/><path d="M-14-183l-114-20" stroke-width="6.4" stroke="#14213d99"/><path d="M204-113l104 50" stroke-width="6.5" stroke="#e5e5e59A"/><path d="M-14-147l-114 16" stroke-width="6.5" stroke="#e5e5e59B"/><path d="M82-276l-18-113" stroke-width="6.5" stroke="#14213d9D"/><path d="M71-273l-29-111" stroke-width="6.6" stroke="#ffffff9E"/><path d="M24-247l-77-85" stroke-width="6.7" stroke="#e5e5e5A0"/><path d="M195-99l94 63" stroke-width="6.7" stroke="#fca311A1"/><path d="M214-162l113 0" stroke-width="6.7" stroke="#14213dA1"/><path d="M200-108l100 55" stroke-width="6.7" stroke="#fca311A1"/><path d="M197-219l97-57" stroke-width="6.9" stroke="#e5e5e5A6"/><path d="M100-50l0 112" stroke-width="6.9" stroke="#e5e5e5A6"/><path d="M183-238l83-75" stroke-width="6.9" stroke="#14213dA6"/><path d="M2-108l-98 54" stroke-width="6.9" stroke="#ffffffA7"/><path d="M161-257l60-94" stroke-width="6.9" stroke="#fca311A8"/><path d="M165-254l65-91" stroke-width="6.9" stroke="#112233A8"/><path d="M17-238l-83-75" stroke-width="7.0" stroke="#14213dA8"/><path d="M87-272l-13-110" stroke-width="7.1" stroke="#fca311AC"/><path d="M162-71l62 91" stroke-width="7.1" stroke="#14213dAD"/><path d="M203-202l102-40" stroke-width="7.1" stroke="#fca311AD"/><path d="M20-237l-79-75" stroke-width="7.2" stroke="#14213dAF"/><path d="M83-55l-17 107" stroke-width="7.3" stroke="#fca311B1"/><path d="M80-56l-19 107" stroke-width="7.3" stroke="#14213dB2"/><path d="M58-63l-41 99" stroke-width="7.3" stroke="#fca311B3"/><path d="M4-211l-97-48" stroke-width="7.3" stroke="#e5e5e5B3"/><path d="M122-59l23 104" stroke-width="7.5" stroke="#e5e5e5B7"/><path d="M63-262l-37-99" stroke-width="7.5" stroke="#112233B7"/><path d="M187-220l87-58" stroke-width="7.6" stroke="#14213dBB"/><path d="M124-263l25-101" stroke-width="7.6" stroke="#e5e5e5BC"/><path d="M117-263l17-100" stroke-width="7.8" stroke="#112233BF"/><path d="M178-227l77-64" stroke-width="7.8" stroke="#14213dC1"/><path d="M135-68l36 94" stroke-width="7.8" stroke="#e5e5e5C1"/><path d="M184-108l84 54" stroke-width="7.9" stroke="#e5e5e5C3"/><path d="M57-73l-44 90" stroke-width="7.9" stroke="#14213dC4"/><path d="M24-99l-77 63" stroke-width="7.9" stroke="#112233C4"/><path d="M173-95l72 67" stroke-width="7.9" stroke="#e5e5e5C4"/><path d="M13-122l-88 41" stroke-width="8.1" stroke="#ffffffC9"/><path d="M165-234l64-71" stroke-width="8.1" stroke="#e5e5e5C9"/><path d="M132-251l31-89" stroke-width="8.2" stroke="#ffffffCC"/><path d="M103-256l3-94" stroke-width="8.2" stroke="#112233CC"/><path d="M7-168l-94-6" stroke-width="8.2" stroke="#112233CD"/><path d="M186-127l86 35" stroke-width="8.3" stroke="#fca311CE"/><path d="M63-78l-37 84" stroke-width="8.3" stroke="#14213dCF"/><path d="M52-86l-49 77" stroke-width="8.4" stroke="#e5e5e5D1"/><path d="M43-229l-58-67" stroke-width="8.5" stroke="#e5e5e5D4"/><path d="M154-97l54 66" stroke-width="8.6" stroke="#e5e5e5D8"/><path d="M31-211l-69-49" stroke-width="8.7" stroke="#14213dD8"/><path d="M20-185l-80-22" stroke-width="8.7" stroke="#ffffffDA"/><path d="M108-244l7-82" stroke-width="8.7" stroke="#ffffffDB"/><path d="M41-108l-59 54" stroke-width="8.8" stroke="#112233DD"/><path d="M145-226l46-63" stroke-width="8.9" stroke="#112233DF"/><path d="M112-87l11 75" stroke-width="8.9" stroke="#112233E0"/><path d="M119-235l19-73" stroke-width="9.0" stroke="#ffffffE1"/><path d="M162-120l62 42" stroke-width="9.0" stroke="#e5e5e5E1"/><path d="M173-158l72 4" stroke-width="9.0" stroke="#ffffffE4"/><path d="M75-229l-25-67" stroke-width="9.1" stroke="#fca311E5"/><path d="M31-152l-69 11" stroke-width="9.1" stroke="#e5e5e5E6"/><path d="M33-159l-66 3" stroke-width="9.2" stroke="#112233E8"/><path d="M39-186l-60-23" stroke-width="9.3" stroke="#ffffffEA"/><path d="M100-227l0-65" stroke-width="9.3" stroke="#e5e5e5EA"/><path d="M57-116l-43 47" stroke-width="9.3" stroke="#14213dEA"/><path d="M100-223l0-61" stroke-width="9.4" stroke="#ffffffEC"/><path d="M128-212l29-49" stroke-width="9.4" stroke="#14213dEF"/><path d="M147-130l47 32" stroke-width="9.4" stroke="#14213dEF"/><path d="M51-186l-50-24" stroke-width="9.5" stroke="#14213dF0"/><path d="M139-198l40-35" stroke-width="9.5" stroke="#ffffffF1"/><path d="M104-212l3-49" stroke-width="9.6" stroke="#14213dF3"/><path d="M149-161l49 2" stroke-width="9.6" stroke="#fca311F3"/><path d="M74-195l-26-32" stroke-width="9.7" stroke="#e5e5e5F6"/><path d="M80-127l-20 36" stroke-width="9.7" stroke="#14213dF7"/><path d="M69-136l-30 27" stroke-width="9.7" stroke="#112233F7"/><path d="M85-196l-15-33" stroke-width="9.8" stroke="#14213dF8"/><path d="M119-131l18 31" stroke-width="9.8" stroke="#ffffffF8"/><path d="M113-131l13 31" stroke-width="9.8" stroke="#14213dF9"/><path d="M118-151l19 12" stroke-width="9.9" stroke="#e5e5e5FC"/><path d="M106-153l5 10" stroke-width="10.0" stroke="#112233FE"/><path d="M93-155l-7 7" stroke-width="10.0" stroke="#14213dFE"/></g></svg>