<svg width="1200" height="675" viewBox="-500 -500 1200 675" xmlns="http://www.w3.org/2000/svg"><path d="M-500-500h1200v675h-1200z" fill="#000"/><style>.sparkles path{stroke-linecap:round}</style><g class="sparkles"><path d="M99-165l-1-3" stroke-width="1.0" stroke="#005bbb0"/><path d="M89-164l-10-1" stroke-width="1.0" stroke="#fff0"/><path d="M96-135l-4 28" stroke-width="1.1" stroke="#fff5003"/><path d="M67-169l-32-6" stroke-width="1.2" stroke="#fff5"/><path d="M124-130l24 33" stroke-width="1.3" stroke="#fff7"/><path d="M147-160l46 3" stroke-width="1.4" stroke="#c2e1ffA"/><path d="M133-199l34-36" stroke-width="1.4" stroke="#c2e1ffB"/><path d="M145-143l45 20" stroke-width="1.4" stroke="#fff500B"/><path d="M150-158l51 4" stroke-width="1.4" stroke="#fff500C"/><path d="M113-109l12 53" stroke-width="1.5" stroke="#fffE"/><path d="M73-113l-27 50" stroke-width="1.6" stroke="#fff500F"/><path d="M158-167l57-4" stroke-width="1.6" stroke="#fff50010"/><path d="M39-173l-62-10" stroke-width="1.7" stroke="#005bbb13"/><path d="M64-99l-37 64" stroke-width="2.0" stroke="#005bbb1B"/><path d="M174-159l74 4" stroke-width="2.0" stroke="#c2e1ff1C"/><path d="M83-235l-17-72" stroke-width="2.0" stroke="#fff1C"/><path d="M76-90l-23 72" stroke-width="2.1" stroke="#c2e1ff1D"/><path d="M63-94l-37 69" stroke-width="2.1" stroke="#fff5001F"/><path d="M119-86l18 77" stroke-width="2.2" stroke="#005bbb20"/><path d="M123-87l23 76" stroke-width="2.2" stroke="#fff50020"/><path d="M21-160l-79 2" stroke-width="2.2" stroke="#c2e1ff20"/><path d="M181-159l81 3" stroke-width="2.2" stroke="#005bbb22"/><path d="M20-180l-81-18" stroke-width="2.3" stroke="#c2e1ff24"/><path d="M103-246l3-83" stroke-width="2.3" stroke="#fff50025"/><path d="M106-247l5-85" stroke-width="2.4" stroke="#005bbb27"/><path d="M12-165l-88-2" stroke-width="2.5" stroke="#fff2A"/><path d="M21-121l-80 41" stroke-width="2.6" stroke="#005bbb2C"/><path d="M45-91l-55 71" stroke-width="2.6" stroke="#fff2C"/><path d="M27-217l-73-55" stroke-width="2.6" stroke="#005bbb2E"/><path d="M13-198l-87-35" stroke-width="2.8" stroke="#fff50032"/><path d="M99-67l-1 95" stroke-width="2.8" stroke="#fff50034"/><path d="M24-222l-76-60" stroke-width="2.9" stroke="#fff50036"/><path d="M60-251l-39-88" stroke-width="2.9" stroke="#fff50036"/><path d="M180-107l79 55" stroke-width="2.9" stroke="#c2e1ff36"/><path d="M94-65l-7 98" stroke-width="3.0" stroke="#fff37"/><path d="M104-64l4 99" stroke-width="3.0" stroke="#fff50039"/><path d="M0-169l-99-7" stroke-width="3.1" stroke="#fff5003B"/><path d="M61-69l-39 93" stroke-width="3.2" stroke="#fff5003D"/><path d="M36-85l-64 78" stroke-width="3.2" stroke="#fff3D"/><path d="M23-96l-77 66" stroke-width="3.2" stroke="#fff5003E"/><path d="M72-260l-28-98" stroke-width="3.2" stroke="#fff3E"/><path d="M34-240l-67-78" stroke-width="3.2" stroke="#fff5003F"/><path d="M98-265l-2-102" stroke-width="3.2" stroke="#fff5003F"/><path d="M57-70l-44 93" stroke-width="3.2" stroke="#005bbb3F"/><path d="M-1-181l-101-18" stroke-width="3.3" stroke="#005bbb40"/><path d="M76-263l-23-100" stroke-width="3.3" stroke="#fff40"/><path d="M90-60l-10 103" stroke-width="3.3" stroke="#c2e1ff41"/><path d="M17-225l-83-62" stroke-width="3.4" stroke="#005bbb42"/><path d="M8-212l-91-49" stroke-width="3.4" stroke="#fff43"/><path d="M184-224l84-62" stroke-width="3.4" stroke="#005bbb43"/><path d="M155-73l56 89" stroke-width="3.4" stroke="#fff45"/><path d="M101-57l1 105" stroke-width="3.5" stroke="#fff45"/><path d="M161-76l62 86" stroke-width="3.5" stroke="#005bbb46"/><path d="M47-254l-54-91" stroke-width="3.5" stroke="#fff46"/><path d="M154-254l54-91" stroke-width="3.5" stroke="#fff47"/><path d="M205-150l106 13" stroke-width="3.5" stroke="#005bbb47"/><path d="M132-61l32 102" stroke-width="3.6" stroke="#c2e1ff48"/><path d="M199-204l99-41" stroke-width="3.6" stroke="#c2e1ff49"/><path d="M115-269l16-107" stroke-width="3.7" stroke="#fff4C"/><path d="M97-271l-4-108" stroke-width="3.7" stroke="#fff4C"/><path d="M185-93l85 69" stroke-width="3.8" stroke="#fff50050"/><path d="M165-74l65 88" stroke-width="3.8" stroke="#fff50"/><path d="M-9-154l-110 8" stroke-width="3.8" stroke="#fff50"/><path d="M164-253l63-90" stroke-width="3.9" stroke="#c2e1ff52"/><path d="M98-52l-3 110" stroke-width="3.9" stroke="#fff50052"/><path d="M-11-148l-110 15" stroke-width="4.0" stroke="#c2e1ff55"/><path d="M33-253l-67-90" stroke-width="4.1" stroke="#c2e1ff58"/><path d="M52-264l-49-102" stroke-width="4.1" stroke="#fff59"/><path d="M-1-213l-101-51" stroke-width="4.2" stroke="#fff5A"/><path d="M52-266l-47-103" stroke-width="4.3" stroke="#fff5C"/><path d="M195-100l95 63" stroke-width="4.3" stroke="#c2e1ff5D"/><path d="M141-56l42 107" stroke-width="4.4" stroke="#005bbb5F"/><path d="M144-55l43 107" stroke-width="4.6" stroke="#005bbb66"/><path d="M164-65l63 98" stroke-width="4.8" stroke="#fff6A"/><path d="M121-48l20 115" stroke-width="4.8" stroke="#fff5006B"/><path d="M77-277l-23-114" stroke-width="4.8" stroke="#fff6B"/><path d="M-16-148l-115 15" stroke-width="4.8" stroke="#fff6B"/><path d="M24-73l-76 89" stroke-width="4.9" stroke="#005bbb6E"/><path d="M187-84l87 78" stroke-width="4.9" stroke="#005bbb6E"/><path d="M162-63l62 99" stroke-width="4.9" stroke="#fff5006E"/><path d="M-4-216l-105-53" stroke-width="4.9" stroke="#fff6F"/><path d="M-7-115l-107 48" stroke-width="5.0" stroke="#fff70"/><path d="M202-104l102 58" stroke-width="5.0" stroke="#fff71"/><path d="M185-81l84 82" stroke-width="5.1" stroke="#005bbb73"/><path d="M-6-214l-105-52" stroke-width="5.1" stroke="#c2e1ff74"/><path d="M-15-190l-114-28" stroke-width="5.3" stroke="#c2e1ff78"/><path d="M-9-208l-109-45" stroke-width="5.3" stroke="#c2e1ff79"/><path d="M142-273l42-110" stroke-width="5.4" stroke="#fff7B"/><path d="M216-185l116-22" stroke-width="5.4" stroke="#c2e1ff7C"/><path d="M188-241l88-79" stroke-width="5.5" stroke="#fff5007E"/><path d="M-8-211l-108-48" stroke-width="5.5" stroke="#c2e1ff7F"/><path d="M116-46l17 117" stroke-width="5.6" stroke="#fff81"/><path d="M218-162l118 0" stroke-width="5.6" stroke="#c2e1ff82"/><path d="M217-148l117 14" stroke-width="5.6" stroke="#005bbb82"/><path d="M171-68l70 95" stroke-width="5.6" stroke="#005bbb83"/><path d="M189-85l88 78" stroke-width="5.7" stroke="#fff50084"/><path d="M-15-138l-116 24" stroke-width="5.7" stroke="#005bbb85"/><path d="M212-126l112 37" stroke-width="5.7" stroke="#005bbb85"/><path d="M-10-206l-109-44" stroke-width="5.7" stroke="#005bbb85"/><path d="M205-217l104-54" stroke-width="5.7" stroke="#fff50086"/><path d="M115-279l15-117" stroke-width="5.7" stroke="#fff86"/><path d="M48-269l-51-106" stroke-width="5.8" stroke="#fff86"/><path d="M187-242l88-79" stroke-width="5.8" stroke="#fff87"/><path d="M175-253l76-90" stroke-width="5.9" stroke="#c2e1ff8B"/><path d="M207-211l107-49" stroke-width="6.0" stroke="#fff8C"/><path d="M49-268l-51-106" stroke-width="6.0" stroke="#fff8C"/><path d="M145-271l44-109" stroke-width="6.0" stroke="#fff5008D"/><path d="M217-156l117 7" stroke-width="6.0" stroke="#005bbb8E"/><path d="M140-52l40 110" stroke-width="6.1" stroke="#c2e1ff8F"/><path d="M35-65l-64 98" stroke-width="6.1" stroke="#fff90"/><path d="M-16-149l-116 14" stroke-width="6.1" stroke="#fff90"/><path d="M34-259l-65-97" stroke-width="6.1" stroke="#fff50090"/><path d="M214-136l114 27" stroke-width="6.1" stroke="#fff91"/><path d="M215-140l114 23" stroke-width="6.1" stroke="#fff91"/><path d="M25-73l-75 90" stroke-width="6.1" stroke="#fff91"/><path d="M199-224l99-62" stroke-width="6.2" stroke="#005bbb92"/><path d="M207-208l108-45" stroke-width="6.2" stroke="#c2e1ff93"/><path d="M216-165l117-3" stroke-width="6.3" stroke="#fff95"/><path d="M209-204l109-41" stroke-width="6.3" stroke="#fff95"/><path d="M31-70l-70 92" stroke-width="6.5" stroke="#fff9B"/><path d="M49-266l-51-103" stroke-width="6.6" stroke="#c2e1ff9D"/><path d="M187-88l87 75" stroke-width="6.6" stroke="#c2e1ff9E"/><path d="M212-140l112 23" stroke-width="6.6" stroke="#c2e1ff9F"/><path d="M27-251l-73-88" stroke-width="6.6" stroke="#fff9F"/><path d="M186-90l87 73" stroke-width="6.8" stroke="#fffA5"/><path d="M94-274l-6-112" stroke-width="6.9" stroke="#005bbbA8"/><path d="M126-54l27 108" stroke-width="7.0" stroke="#005bbbA9"/><path d="M74-271l-27-108" stroke-width="7.0" stroke="#005bbbA9"/><path d="M6-220l-94-58" stroke-width="7.1" stroke="#fff500AD"/><path d="M30-248l-70-85" stroke-width="7.1" stroke="#fff500AD"/><path d="M55-263l-46-100" stroke-width="7.1" stroke="#c2e1ffAD"/><path d="M-6-191l-106-28" stroke-width="7.2" stroke="#005bbbAE"/><path d="M65-267l-35-104" stroke-width="7.2" stroke="#fff500AE"/><path d="M202-125l103 38" stroke-width="7.2" stroke="#c2e1ffB0"/><path d="M-3-129l-103 34" stroke-width="7.3" stroke="#c2e1ffB1"/><path d="M119-57l18 106" stroke-width="7.4" stroke="#c2e1ffB5"/><path d="M25-239l-74-77" stroke-width="7.4" stroke="#fff500B5"/><path d="M73-59l-26 104" stroke-width="7.4" stroke="#005bbbB5"/><path d="M116-57l16 106" stroke-width="7.4" stroke="#fff500B5"/><path d="M88-268l-13-106" stroke-width="7.4" stroke="#005bbbB6"/><path d="M75-266l-25-103" stroke-width="7.5" stroke="#c2e1ffB7"/><path d="M153-254l53-91" stroke-width="7.5" stroke="#c2e1ffB8"/><path d="M55-68l-44 94" stroke-width="7.6" stroke="#fffBB"/><path d="M194-206l95-43" stroke-width="7.7" stroke="#005bbbBC"/><path d="M89-265l-11-103" stroke-width="7.7" stroke="#005bbbBD"/><path d="M50-252l-51-89" stroke-width="7.8" stroke="#fff500BF"/><path d="M153-249l52-86" stroke-width="7.8" stroke="#fff500C1"/><path d="M11-210l-89-48" stroke-width="7.8" stroke="#fffC1"/><path d="M154-247l55-84" stroke-width="7.9" stroke="#fff500C2"/><path d="M64-253l-35-90" stroke-width="8.1" stroke="#fffC8"/><path d="M6-140l-94 22" stroke-width="8.1" stroke="#fffC9"/><path d="M159-88l59 75" stroke-width="8.2" stroke="#fff500CB"/><path d="M169-98l70 65" stroke-width="8.2" stroke="#fff500CB"/><path d="M133-252l32-89" stroke-width="8.2" stroke="#fffCB"/><path d="M5-159l-94 3" stroke-width="8.2" stroke="#fff500CB"/><path d="M72-73l-28 90" stroke-width="8.2" stroke="#fffCC"/><path d="M188-182l88-19" stroke-width="8.4" stroke="#c2e1ffD2"/><path d="M188-152l89 11" stroke-width="8.5" stroke="#fffD3"/><path d="M62-240l-38-78" stroke-width="8.6" stroke="#fff500D6"/><path d="M115-79l15 83" stroke-width="8.6" stroke="#fffD8"/><path d="M179-139l79 24" stroke-width="8.7" stroke="#005bbbDA"/><path d="M118-82l18 80" stroke-width="8.7" stroke="#c2e1ffDB"/><path d="M166-114l65 49" stroke-width="8.8" stroke="#fffDB"/><path d="M138-235l38-72" stroke-width="8.8" stroke="#005bbbDB"/><path d="M21-147l-79 15" stroke-width="8.8" stroke="#fffDC"/><path d="M180-173l79-10" stroke-width="8.8" stroke="#005bbbDC"/><path d="M167-195l67-32" stroke-width="9.0" stroke="#fffE2"/><path d="M32-190l-68-28" stroke-width="9.0" stroke="#c2e1ffE3"/><path d="M166-132l67 31" stroke-width="9.0" stroke="#c2e1ffE3"/><path d="M169-166l69-3" stroke-width="9.2" stroke="#005bbbE7"/><path d="M98-229l-2-66" stroke-width="9.2" stroke="#005bbbE8"/><path d="M91-98l-9 64" stroke-width="9.3" stroke="#c2e1ffE9"/><path d="M40-184l-60-22" stroke-width="9.3" stroke="#fffEA"/><path d="M115-110l15 52" stroke-width="9.5" stroke="#005bbbF0"/><path d="M60-192l-40-29" stroke-width="9.6" stroke="#fff500F3"/><path d="M149-154l49 8" stroke-width="9.6" stroke="#c2e1ffF3"/><path d="M101-212l0-50" stroke-width="9.6" stroke="#fffF3"/><path d="M70-140l-30 23" stroke-width="9.8" stroke="#fff500F8"/><path d="M124-140l24 23" stroke-width="9.8" stroke="#c2e1ffF9"/><path d="M77-146l-24 16" stroke-width="9.9" stroke="#c2e1ffFB"/><path d="M94-148l-7 15" stroke-width="10.0" stroke="#fffFD"/></g></svg>