<svg width="1200" height="675" viewBox="-500 -500 1200 675" xmlns="http://www.w3.org/2000/svg"><path d="M-500-500h1200v675h-1200z" fill="#000"/><style>.sparkles path{stroke-linecap:round}</style><g class="sparkles"><path d="M107-165l7-2" stroke-width="1.0" stroke="#fff5000"/><path d="M112-151l13 11" stroke-width="1.0" stroke="#fff5001"/><path d="M82-164l-18-2" stroke-width="1.1" stroke="#c2e1ff1"/><path d="M92-145l-9 17" stroke-width="1.1" stroke="#fff1"/><path d="M90-184l-9-22" stroke-width="1.1" stroke="#fff2"/><path d="M73-146l-26 16" stroke-width="1.2" stroke="#c2e1ff4"/><path d="M57-171l-43-8" stroke-width="1.3" stroke="#005bbb9"/><path d="M90-110l-9 52" stroke-width="1.5" stroke="#005bbbD"/><path d="M48-138l-52 25" stroke-width="1.6" stroke="#fff10"/><path d="M48-122l-52 40" stroke-width="1.8" stroke="#fff50015"/><path d="M97-229l-2-67" stroke-width="1.8" stroke="#005bbb16"/><path d="M168-161l67 2" stroke-width="1.8" stroke="#c2e1ff17"/><path d="M39-192l-61-30" stroke-width="1.8" stroke="#fff17"/><path d="M130-100l29 63" stroke-width="1.9" stroke="#fff50018"/><path d="M37-131l-63 31" stroke-width="1.9" stroke="#fff19"/><path d="M30-149l-70 13" stroke-width="1.9" stroke="#fff50019"/><path d="M162-199l63-37" stroke-width="1.9" stroke="#005bbb1A"/><path d="M86-235l-14-73" stroke-width="2.0" stroke="#005bbb1C"/><path d="M26-177l-75-14" stroke-width="2.0" stroke="#005bbb1D"/><path d="M44-213l-56-51" stroke-width="2.0" stroke="#fff5001D"/><path d="M126-91l27 71" stroke-width="2.1" stroke="#fff1D"/><path d="M181-162l81 0" stroke-width="2.2" stroke="#fff22"/><path d="M54-230l-45-68" stroke-width="2.3" stroke="#c2e1ff23"/><path d="M19-149l-81 13" stroke-width="2.3" stroke="#fff23"/><path d="M65-240l-34-77" stroke-width="2.4" stroke="#005bbb26"/><path d="M102-248l2-86" stroke-width="2.4" stroke="#fff27"/><path d="M15-152l-86 10" stroke-width="2.4" stroke="#c2e1ff28"/><path d="M94-72l-5 90" stroke-width="2.6" stroke="#fff5002D"/><path d="M90-71l-9 91" stroke-width="2.7" stroke="#fff5002E"/><path d="M14-199l-86-36" stroke-width="2.7" stroke="#fff31"/><path d="M27-104l-74 58" stroke-width="2.8" stroke="#fff50031"/><path d="M194-174l94-11" stroke-width="2.8" stroke="#c2e1ff32"/><path d="M8-191l-92-29" stroke-width="2.9" stroke="#fff50035"/><path d="M78-256l-23-94" stroke-width="2.9" stroke="#005bbb35"/><path d="M54-248l-46-85" stroke-width="2.9" stroke="#005bbb36"/><path d="M66-255l-33-92" stroke-width="3.0" stroke="#005bbb38"/><path d="M86-260l-15-98" stroke-width="3.0" stroke="#fff50039"/><path d="M4-187l-97-24" stroke-width="3.1" stroke="#c2e1ff3A"/><path d="M111-261l12-99" stroke-width="3.1" stroke="#005bbb3A"/><path d="M143-72l43 90" stroke-width="3.1" stroke="#fff5003B"/><path d="M193-126l93 36" stroke-width="3.1" stroke="#c2e1ff3B"/><path d="M166-86l65 77" stroke-width="3.2" stroke="#fff5003D"/><path d="M81-63l-19 99" stroke-width="3.2" stroke="#005bbb3D"/><path d="M201-152l100 11" stroke-width="3.2" stroke="#c2e1ff3D"/><path d="M8-118l-92 44" stroke-width="3.2" stroke="#fff5003F"/><path d="M181-97l82 65" stroke-width="3.4" stroke="#fff50043"/><path d="M4-119l-96 43" stroke-width="3.4" stroke="#c2e1ff45"/><path d="M80-59l-21 103" stroke-width="3.5" stroke="#005bbb46"/><path d="M18-92l-81 70" stroke-width="3.7" stroke="#fff5004B"/><path d="M208-156l108 7" stroke-width="3.7" stroke="#c2e1ff4C"/><path d="M59-263l-41-100" stroke-width="3.7" stroke="#fff4C"/><path d="M157-70l57 93" stroke-width="3.8" stroke="#fff5004E"/><path d="M-5-193l-106-30" stroke-width="3.8" stroke="#c2e1ff4F"/><path d="M122-270l22-108" stroke-width="3.8" stroke="#c2e1ff50"/><path d="M210-176l109-13" stroke-width="3.9" stroke="#005bbb51"/><path d="M-7-136l-108 26" stroke-width="3.9" stroke="#fff52"/><path d="M157-68l58 94" stroke-width="3.9" stroke="#fff50052"/><path d="M50-64l-49 99" stroke-width="3.9" stroke="#c2e1ff53"/><path d="M61-58l-39 104" stroke-width="4.0" stroke="#c2e1ff54"/><path d="M33-72l-67 90" stroke-width="4.1" stroke="#fff58"/><path d="M182-86l83 77" stroke-width="4.1" stroke="#c2e1ff58"/><path d="M67-271l-33-109" stroke-width="4.2" stroke="#c2e1ff5B"/><path d="M25-77l-76 86" stroke-width="4.3" stroke="#fff5005E"/><path d="M102-48l1 114" stroke-width="4.3" stroke="#c2e1ff5E"/><path d="M-8-203l-108-41" stroke-width="4.6" stroke="#fff65"/><path d="M-16-156l-116 7" stroke-width="4.7" stroke="#005bbb68"/><path d="M211-198l110-35" stroke-width="4.7" stroke="#005bbb68"/><path d="M-7-116l-107 46" stroke-width="4.7" stroke="#005bbb69"/><path d="M214-139l114 23" stroke-width="4.8" stroke="#c2e1ff6A"/><path d="M215-181l116-18" stroke-width="4.8" stroke="#fff6B"/><path d="M-15-182l-115-20" stroke-width="4.8" stroke="#c2e1ff6C"/><path d="M45-265l-56-103" stroke-width="4.9" stroke="#005bbb6D"/><path d="M129-276l29-114" stroke-width="4.9" stroke="#fff5006F"/><path d="M164-64l64 98" stroke-width="4.9" stroke="#005bbb6F"/><path d="M-7-211l-108-48" stroke-width="5.1" stroke="#c2e1ff74"/><path d="M113-45l12 117" stroke-width="5.2" stroke="#fff50075"/><path d="M-17-148l-117 15" stroke-width="5.2" stroke="#fff75"/><path d="M116-279l16-117" stroke-width="5.2" stroke="#005bbb78"/><path d="M202-103l102 59" stroke-width="5.3" stroke="#fff50079"/><path d="M151-269l50-107" stroke-width="5.4" stroke="#005bbb7C"/><path d="M-16-140l-116 23" stroke-width="5.4" stroke="#005bbb7D"/><path d="M218-158l118 5" stroke-width="5.5" stroke="#fff7E"/><path d="M65-275l-35-113" stroke-width="5.5" stroke="#fff7F"/><path d="M193-235l94-72" stroke-width="5.5" stroke="#fff50080"/><path d="M109-45l8 118" stroke-width="5.7" stroke="#c2e1ff85"/><path d="M-18-154l-117 8" stroke-width="5.8" stroke="#fff50087"/><path d="M218-156l117 6" stroke-width="5.9" stroke="#fff5008A"/><path d="M167-259l67-97" stroke-width="5.9" stroke="#fff8B"/><path d="M72-276l-27-114" stroke-width="6.1" stroke="#005bbb91"/><path d="M184-81l83 82" stroke-width="6.2" stroke="#fff50092"/><path d="M-14-189l-113-26" stroke-width="6.2" stroke="#c2e1ff93"/><path d="M133-51l33 112" stroke-width="6.2" stroke="#fff94"/><path d="M127-50l26 113" stroke-width="6.4" stroke="#fff50099"/><path d="M21-78l-80 84" stroke-width="6.4" stroke="#005bbb99"/><path d="M215-156l115 7" stroke-width="6.5" stroke="#fff9B"/><path d="M-15-153l-114 9" stroke-width="6.5" stroke="#005bbb9C"/><path d="M-6-122l-106 40" stroke-width="6.7" stroke="#c2e1ffA2"/><path d="M182-240l82-78" stroke-width="6.8" stroke="#fffA4"/><path d="M204-207l104-44" stroke-width="6.8" stroke="#c2e1ffA5"/><path d="M213-159l112 4" stroke-width="6.9" stroke="#005bbbA5"/><path d="M211-144l111 19" stroke-width="6.9" stroke="#c2e1ffA6"/><path d="M9-96l-91 66" stroke-width="6.9" stroke="#fff500A6"/><path d="M-8-133l-108 29" stroke-width="6.9" stroke="#fffA8"/><path d="M154-260l55-97" stroke-width="7.0" stroke="#fff500A9"/><path d="M123-54l24 109" stroke-width="7.0" stroke="#005bbbAA"/><path d="M156-66l55 96" stroke-width="7.0" stroke="#c2e1ffAA"/><path d="M-9-143l-109 19" stroke-width="7.1" stroke="#005bbbAB"/><path d="M125-271l24-108" stroke-width="7.1" stroke="#fff500AB"/><path d="M-11-165l-110-3" stroke-width="7.1" stroke="#fffAC"/><path d="M50-260l-51-97" stroke-width="7.2" stroke="#005bbbAE"/><path d="M17-234l-83-71" stroke-width="7.2" stroke="#fff500B0"/><path d="M3-118l-97 44" stroke-width="7.4" stroke="#fff500B5"/><path d="M169-244l69-82" stroke-width="7.4" stroke="#c2e1ffB5"/><path d="M35-79l-65 84" stroke-width="7.5" stroke="#c2e1ffB7"/><path d="M-3-139l-103 23" stroke-width="7.5" stroke="#c2e1ffB8"/><path d="M42-74l-58 88" stroke-width="7.5" stroke="#c2e1ffB8"/><path d="M200-197l99-35" stroke-width="7.5" stroke="#c2e1ffB9"/><path d="M12-106l-89 56" stroke-width="7.6" stroke="#fffBA"/><path d="M88-59l-12 104" stroke-width="7.6" stroke="#fff500BA"/><path d="M161-246l60-84" stroke-width="7.7" stroke="#005bbbBC"/><path d="M165-243l66-80" stroke-width="7.7" stroke="#fff500BC"/><path d="M115-60l15 102" stroke-width="7.7" stroke="#005bbbBC"/><path d="M155-75l55 87" stroke-width="7.7" stroke="#fff500BE"/><path d="M-2-149l-102 14" stroke-width="7.7" stroke="#c2e1ffBE"/><path d="M56-255l-44-92" stroke-width="7.8" stroke="#fff500BF"/><path d="M42-79l-58 83" stroke-width="7.8" stroke="#c2e1ffC0"/><path d="M17-104l-82 58" stroke-width="7.8" stroke="#c2e1ffC1"/><path d="M2-186l-98-24" stroke-width="7.9" stroke="#fffC2"/><path d="M183-108l83 55" stroke-width="7.9" stroke="#005bbbC4"/><path d="M76-259l-23-96" stroke-width="7.9" stroke="#005bbbC4"/><path d="M7-134l-94 29" stroke-width="8.0" stroke="#c2e1ffC7"/><path d="M168-232l67-70" stroke-width="8.1" stroke="#fffC7"/><path d="M19-110l-81 53" stroke-width="8.1" stroke="#fff500C8"/><path d="M14-122l-87 40" stroke-width="8.2" stroke="#fffCA"/><path d="M64-249l-36-86" stroke-width="8.2" stroke="#c2e1ffCD"/><path d="M190-138l89 25" stroke-width="8.3" stroke="#c2e1ffCE"/><path d="M185-200l84-37" stroke-width="8.3" stroke="#fffCE"/><path d="M80-73l-20 90" stroke-width="8.3" stroke="#fff500CF"/><path d="M11-187l-89-24" stroke-width="8.3" stroke="#fffCF"/><path d="M99-254l-1-92" stroke-width="8.3" stroke="#005bbbCF"/><path d="M116-72l15 90" stroke-width="8.4" stroke="#fffD0"/><path d="M78-251l-22-88" stroke-width="8.4" stroke="#c2e1ffD1"/><path d="M36-101l-63 62" stroke-width="8.5" stroke="#005bbbD3"/><path d="M124-248l24-85" stroke-width="8.5" stroke="#005bbbD3"/><path d="M15-154l-85 8" stroke-width="8.6" stroke="#005bbbD7"/><path d="M177-198l78-35" stroke-width="8.6" stroke="#fff500D7"/><path d="M16-149l-83 14" stroke-width="8.6" stroke="#c2e1ffD8"/><path d="M158-224l59-62" stroke-width="8.6" stroke="#fffD8"/><path d="M19-139l-81 23" stroke-width="8.7" stroke="#fffD8"/><path d="M121-83l21 79" stroke-width="8.7" stroke="#fff500DB"/><path d="M176-135l76 27" stroke-width="8.8" stroke="#005bbbDC"/><path d="M172-199l71-36" stroke-width="8.8" stroke="#fffDD"/><path d="M69-233l-30-71" stroke-width="8.9" stroke="#fffE0"/><path d="M24-167l-76-5" stroke-width="8.9" stroke="#fff500E1"/><path d="M28-186l-72-24" stroke-width="8.9" stroke="#c2e1ffE1"/><path d="M54-102l-46 60" stroke-width="9.0" stroke="#fffE1"/><path d="M129-93l29 69" stroke-width="9.0" stroke="#fffE1"/><path d="M175-160l74 3" stroke-width="9.0" stroke="#fffE2"/><path d="M139-225l38-63" stroke-width="9.0" stroke="#fffE3"/><path d="M33-186l-68-23" stroke-width="9.1" stroke="#c2e1ffE5"/><path d="M140-220l40-57" stroke-width="9.1" stroke="#c2e1ffE6"/><path d="M160-142l59 20" stroke-width="9.3" stroke="#fff500EB"/><path d="M60-115l-41 47" stroke-width="9.3" stroke="#005bbbEB"/><path d="M55-120l-45 42" stroke-width="9.3" stroke="#005bbbEC"/><path d="M159-176l59-13" stroke-width="9.4" stroke="#fffED"/><path d="M47-184l-54-21" stroke-width="9.4" stroke="#fff500EE"/><path d="M98-220l-1-57" stroke-width="9.4" stroke="#c2e1ffEE"/><path d="M99-217l-2-54" stroke-width="9.5" stroke="#c2e1ffF0"/><path d="M142-129l41 34" stroke-width="9.5" stroke="#005bbbF1"/><path d="M120-212l19-49" stroke-width="9.5" stroke="#fffF1"/><path d="M61-132l-39 30" stroke-width="9.6" stroke="#fffF3"/><path d="M53-149l-47 13" stroke-width="9.6" stroke="#fffF3"/><path d="M147-153l47 9" stroke-width="9.6" stroke="#c2e1ffF3"/><path d="M79-122l-22 40" stroke-width="9.6" stroke="#fffF5"/><path d="M139-164l40-2" stroke-width="9.7" stroke="#005bbbF7"/><path d="M67-158l-33 4" stroke-width="9.8" stroke="#fffF9"/><path d="M129-176l29-14" stroke-width="9.8" stroke="#fff500FA"/><path d="M130-157l30 5" stroke-width="9.8" stroke="#fff500FA"/><path d="M78-171l-21-8" stroke-width="9.9" stroke="#fffFC"/><path d="M117-168l17-5" stroke-width="9.9" stroke="#fffFD"/><path d="M90-168l-10-6" stroke-width="10.0" stroke="#fff500FE"/></g></svg>