<svg width="1200" height="675" viewBox="-500 -500 1200 675" xmlns="http://www.w3.org/2000/svg"><path d="M-500-500h1200v675h-1200z" fill="#000"/><style>.sparkles path{stroke-linecap:round}</style><g class="sparkles"><path d="M89-184l-11-21" stroke-width="1.1" stroke="#fff5002"/><path d="M124-162l25 0" stroke-width="1.1" stroke="#005bbb2"/><path d="M131-162l31 0" stroke-width="1.2" stroke="#c2e1ff4"/><path d="M68-158l-33 5" stroke-width="1.2" stroke="#fff5004"/><path d="M128-182l28-19" stroke-width="1.2" stroke="#fff5005"/><path d="M135-177l36-15" stroke-width="1.2" stroke="#005bbb6"/><path d="M130-137l30 26" stroke-width="1.3" stroke="#fff7"/><path d="M108-205l7-42" stroke-width="1.3" stroke="#c2e1ff8"/><path d="M113-116l13 47" stroke-width="1.4" stroke="#c2e1ffB"/><path d="M149-180l50-17" stroke-width="1.5" stroke="#fffD"/><path d="M59-124l-42 39" stroke-width="1.6" stroke="#fff500F"/><path d="M60-121l-40 42" stroke-width="1.6" stroke="#005bbb10"/><path d="M162-170l62-7" stroke-width="1.7" stroke="#fff13"/><path d="M118-101l18 61" stroke-width="1.7" stroke="#fff50014"/><path d="M54-216l-45-53" stroke-width="1.9" stroke="#fff50018"/><path d="M107-89l8 73" stroke-width="2.0" stroke="#c2e1ff1B"/><path d="M124-232l25-70" stroke-width="2.0" stroke="#005bbb1C"/><path d="M165-198l65-35" stroke-width="2.0" stroke="#c2e1ff1C"/><path d="M176-164l76-2" stroke-width="2.1" stroke="#c2e1ff1D"/><path d="M73-235l-26-73" stroke-width="2.1" stroke="#c2e1ff1F"/><path d="M102-81l1 81" stroke-width="2.2" stroke="#c2e1ff23"/><path d="M177-132l76 31" stroke-width="2.3" stroke="#c2e1ff24"/><path d="M173-202l74-40" stroke-width="2.3" stroke="#fff50025"/><path d="M71-84l-30 79" stroke-width="2.3" stroke="#fff50025"/><path d="M133-85l34 77" stroke-width="2.3" stroke="#c2e1ff26"/><path d="M17-150l-83 13" stroke-width="2.3" stroke="#005bbb26"/><path d="M45-229l-54-66" stroke-width="2.4" stroke="#fff50028"/><path d="M13-166l-87-4" stroke-width="2.5" stroke="#fff50029"/><path d="M61-240l-40-78" stroke-width="2.5" stroke="#005bbb29"/><path d="M77-246l-24-84" stroke-width="2.5" stroke="#fff50029"/><path d="M187-178l86-16" stroke-width="2.5" stroke="#c2e1ff2A"/><path d="M17-132l-82 31" stroke-width="2.5" stroke="#fff5002A"/><path d="M160-232l61-70" stroke-width="2.7" stroke="#005bbb2F"/><path d="M143-245l43-83" stroke-width="2.8" stroke="#c2e1ff31"/><path d="M57-79l-43 83" stroke-width="2.8" stroke="#fff50031"/><path d="M21-112l-79 51" stroke-width="2.8" stroke="#005bbb31"/><path d="M194-167l95-4" stroke-width="2.8" stroke="#fff50033"/><path d="M5-167l-95-4" stroke-width="2.8" stroke="#c2e1ff34"/><path d="M38-89l-61 73" stroke-width="2.9" stroke="#c2e1ff34"/><path d="M135-73l36 89" stroke-width="2.9" stroke="#005bbb34"/><path d="M95-64l-5 98" stroke-width="3.0" stroke="#fff38"/><path d="M54-249l-47-87" stroke-width="3.0" stroke="#005bbb38"/><path d="M144-252l43-89" stroke-width="3.1" stroke="#005bbb3A"/><path d="M171-233l71-71" stroke-width="3.1" stroke="#005bbb3C"/><path d="M6-200l-93-38" stroke-width="3.2" stroke="#c2e1ff3D"/><path d="M0-139l-100 23" stroke-width="3.3" stroke="#005bbb40"/><path d="M-3-147l-103 16" stroke-width="3.4" stroke="#fff43"/><path d="M173-88l73 75" stroke-width="3.4" stroke="#c2e1ff44"/><path d="M193-212l93-49" stroke-width="3.5" stroke="#005bbb45"/><path d="M130-264l30-101" stroke-width="3.5" stroke="#fff50046"/><path d="M-1-196l-100-34" stroke-width="3.5" stroke="#005bbb47"/><path d="M-5-148l-106 15" stroke-width="3.6" stroke="#c2e1ff48"/><path d="M35-78l-65 85" stroke-width="3.6" stroke="#005bbb49"/><path d="M62-62l-37 101" stroke-width="3.6" stroke="#c2e1ff4A"/><path d="M208-161l108 2" stroke-width="3.7" stroke="#c2e1ff4C"/><path d="M155-69l55 93" stroke-width="3.7" stroke="#c2e1ff4C"/><path d="M74-56l-26 106" stroke-width="3.8" stroke="#005bbb4F"/><path d="M97-53l-4 109" stroke-width="3.8" stroke="#005bbb4F"/><path d="M190-227l89-64" stroke-width="3.9" stroke="#fff51"/><path d="M105-273l4-110" stroke-width="3.9" stroke="#c2e1ff51"/><path d="M23-84l-78 79" stroke-width="3.9" stroke="#005bbb52"/><path d="M168-75l68 87" stroke-width="3.9" stroke="#005bbb52"/><path d="M194-223l93-60" stroke-width="4.0" stroke="#fff50055"/><path d="M145-265l45-102" stroke-width="4.0" stroke="#005bbb56"/><path d="M68-55l-32 107" stroke-width="4.0" stroke="#c2e1ff56"/><path d="M-4-120l-103 43" stroke-width="4.1" stroke="#fff50057"/><path d="M134-270l35-108" stroke-width="4.2" stroke="#fff5A"/><path d="M213-168l113-6" stroke-width="4.2" stroke="#c2e1ff5A"/><path d="M50-265l-49-102" stroke-width="4.3" stroke="#fff5C"/><path d="M164-69l64 94" stroke-width="4.3" stroke="#fff5005D"/><path d="M155-263l56-100" stroke-width="4.4" stroke="#005bbb60"/><path d="M77-275l-24-112" stroke-width="4.5" stroke="#fff61"/><path d="M-10-128l-110 34" stroke-width="4.5" stroke="#c2e1ff64"/><path d="M179-247l79-85" stroke-width="4.6" stroke="#005bbb66"/><path d="M174-73l74 89" stroke-width="4.6" stroke="#005bbb67"/><path d="M8-92l-93 70" stroke-width="4.6" stroke="#c2e1ff67"/><path d="M214-186l114-24" stroke-width="4.8" stroke="#fff6B"/><path d="M-13-191l-113-29" stroke-width="4.8" stroke="#fff6C"/><path d="M159-61l59 101" stroke-width="4.9" stroke="#fff6E"/><path d="M55-54l-45 108" stroke-width="5.0" stroke="#fff70"/><path d="M171-256l70-94" stroke-width="5.0" stroke="#c2e1ff71"/><path d="M111-279l12-117" stroke-width="5.0" stroke="#fff71"/><path d="M-1-223l-101-61" stroke-width="5.1" stroke="#fff50075"/><path d="M188-241l88-78" stroke-width="5.2" stroke="#fff50077"/><path d="M139-274l40-111" stroke-width="5.2" stroke="#005bbb78"/><path d="M79-279l-21-116" stroke-width="5.3" stroke="#fff5007A"/><path d="M111-280l10-118" stroke-width="5.4" stroke="#fff7B"/><path d="M196-94l97 68" stroke-width="5.4" stroke="#c2e1ff7C"/><path d="M-17-148l-117 15" stroke-width="5.4" stroke="#fff7D"/><path d="M69-48l-30 114" stroke-width="5.4" stroke="#fff5007D"/><path d="M217-176l118-14" stroke-width="5.5" stroke="#fff7F"/><path d="M-14-192l-115-29" stroke-width="5.6" stroke="#fff82"/><path d="M82-46l-19 117" stroke-width="5.6" stroke="#fff50082"/><path d="M7-89l-92 73" stroke-width="5.7" stroke="#c2e1ff85"/><path d="M49-269l-51-106" stroke-width="5.8" stroke="#fff50086"/><path d="M-1-223l-101-61" stroke-width="5.8" stroke="#fff88"/><path d="M181-248l82-85" stroke-width="5.8" stroke="#005bbb89"/><path d="M46-58l-54 105" stroke-width="5.9" stroke="#fff5008A"/><path d="M213-131l114 31" stroke-width="5.9" stroke="#005bbb8A"/><path d="M65-50l-34 112" stroke-width="6.0" stroke="#c2e1ff8E"/><path d="M134-275l33-112" stroke-width="6.0" stroke="#fff5008E"/><path d="M38-262l-61-100" stroke-width="6.1" stroke="#c2e1ff8F"/><path d="M97-280l-2-117" stroke-width="6.1" stroke="#fff8F"/><path d="M70-275l-30-113" stroke-width="6.2" stroke="#c2e1ff93"/><path d="M-2-107l-102 55" stroke-width="6.3" stroke="#fff50095"/><path d="M-2-219l-101-57" stroke-width="6.3" stroke="#005bbb95"/><path d="M135-52l35 111" stroke-width="6.3" stroke="#fff96"/><path d="M75-49l-26 113" stroke-width="6.4" stroke="#005bbb97"/><path d="M214-184l114-21" stroke-width="6.4" stroke="#fff98"/><path d="M131-274l32-111" stroke-width="6.4" stroke="#c2e1ff99"/><path d="M185-240l86-78" stroke-width="6.4" stroke="#005bbb99"/><path d="M-9-125l-109 38" stroke-width="6.4" stroke="#005bbb9A"/><path d="M-14-148l-114 15" stroke-width="6.5" stroke="#fff9C"/><path d="M-5-210l-105-47" stroke-width="6.5" stroke="#005bbb9C"/><path d="M117-49l17 114" stroke-width="6.5" stroke="#fff9C"/><path d="M2-102l-98 60" stroke-width="6.5" stroke="#005bbb9C"/><path d="M145-57l45 106" stroke-width="6.5" stroke="#fff5009D"/><path d="M200-108l100 54" stroke-width="6.7" stroke="#fffA0"/><path d="M120-51l20 111" stroke-width="6.8" stroke="#fff500A4"/><path d="M73-53l-27 110" stroke-width="6.8" stroke="#005bbbA4"/><path d="M-10-187l-111-24" stroke-width="6.8" stroke="#fff500A4"/><path d="M146-265l46-103" stroke-width="6.9" stroke="#c2e1ffA6"/><path d="M14-90l-86 72" stroke-width="6.9" stroke="#005bbbA7"/><path d="M-11-150l-112 12" stroke-width="6.9" stroke="#fffA8"/><path d="M51-263l-50-100" stroke-width="7.0" stroke="#005bbbA9"/><path d="M161-256l60-93" stroke-width="7.0" stroke="#fff500AA"/><path d="M155-67l54 95" stroke-width="7.1" stroke="#005bbbAE"/><path d="M89-272l-11-109" stroke-width="7.2" stroke="#c2e1ffAF"/><path d="M-8-181l-108-19" stroke-width="7.2" stroke="#005bbbAF"/><path d="M57-62l-43 100" stroke-width="7.2" stroke="#005bbbAF"/><path d="M13-228l-88-65" stroke-width="7.2" stroke="#c2e1ffB0"/><path d="M31-246l-68-84" stroke-width="7.3" stroke="#c2e1ffB2"/><path d="M119-56l20 106" stroke-width="7.3" stroke="#005bbbB2"/><path d="M208-165l108-2" stroke-width="7.3" stroke="#fff500B3"/><path d="M36-77l-64 85" stroke-width="7.4" stroke="#005bbbB6"/><path d="M202-191l103-28" stroke-width="7.5" stroke="#005bbbB7"/><path d="M25-87l-74 76" stroke-width="7.5" stroke="#fff500B7"/><path d="M99-268l-1-106" stroke-width="7.5" stroke="#fff500B8"/><path d="M25-89l-74 74" stroke-width="7.6" stroke="#fff500B9"/><path d="M196-198l97-36" stroke-width="7.7" stroke="#fff500BE"/><path d="M42-79l-58 83" stroke-width="7.8" stroke="#c2e1ffC0"/><path d="M106-61l7 101" stroke-width="7.8" stroke="#fff500C1"/><path d="M13-213l-87-51" stroke-width="7.9" stroke="#fffC2"/><path d="M191-203l92-40" stroke-width="7.9" stroke="#c2e1ffC3"/><path d="M6-130l-95 32" stroke-width="7.9" stroke="#c2e1ffC3"/><path d="M189-205l90-42" stroke-width="8.0" stroke="#fffC5"/><path d="M198-149l98 13" stroke-width="8.0" stroke="#fff500C5"/><path d="M183-110l84 52" stroke-width="8.0" stroke="#005bbbC5"/><path d="M12-207l-88-45" stroke-width="8.0" stroke="#fffC5"/><path d="M101-255l1-92" stroke-width="8.3" stroke="#fff500CF"/><path d="M153-237l53-75" stroke-width="8.3" stroke="#fff500CF"/><path d="M162-95l61 68" stroke-width="8.3" stroke="#fff500D0"/><path d="M38-228l-63-65" stroke-width="8.4" stroke="#fff500D1"/><path d="M119-74l18 88" stroke-width="8.4" stroke="#005bbbD1"/><path d="M83-76l-18 86" stroke-width="8.5" stroke="#fffD4"/><path d="M69-242l-32-80" stroke-width="8.6" stroke="#fff500D6"/><path d="M17-183l-82-20" stroke-width="8.6" stroke="#fffD7"/><path d="M86-244l-14-81" stroke-width="8.7" stroke="#005bbbDA"/><path d="M28-197l-72-35" stroke-width="8.8" stroke="#fffDD"/><path d="M162-207l62-44" stroke-width="8.9" stroke="#005bbbE0"/><path d="M113-236l13-74" stroke-width="9.0" stroke="#c2e1ffE2"/><path d="M160-120l61 42" stroke-width="9.0" stroke="#005bbbE3"/><path d="M165-129l64 34" stroke-width="9.0" stroke="#fff500E3"/><path d="M98-95l-1 68" stroke-width="9.2" stroke="#fff500E7"/><path d="M77-99l-23 63" stroke-width="9.2" stroke="#fff500E8"/><path d="M155-124l55 39" stroke-width="9.2" stroke="#005bbbE8"/><path d="M141-216l40-53" stroke-width="9.2" stroke="#c2e1ffE8"/><path d="M102-101l1 62" stroke-width="9.3" stroke="#fff500EC"/><path d="M129-215l28-53" stroke-width="9.4" stroke="#005bbbED"/><path d="M45-159l-54 4" stroke-width="9.5" stroke="#fff500F0"/><path d="M154-157l53 6" stroke-width="9.5" stroke="#005bbbF0"/><path d="M47-155l-54 7" stroke-width="9.5" stroke="#c2e1ffF1"/><path d="M149-175l48-12" stroke-width="9.6" stroke="#fffF2"/><path d="M51-158l-49 4" stroke-width="9.6" stroke="#c2e1ffF3"/><path d="M129-128l28 35" stroke-width="9.7" stroke="#fffF5"/><path d="M60-182l-41-19" stroke-width="9.7" stroke="#fff500F5"/><path d="M142-175l41-12" stroke-width="9.7" stroke="#fffF6"/><path d="M95-124l-4 38" stroke-width="9.8" stroke="#fffF8"/><path d="M127-146l26 17" stroke-width="9.8" stroke="#005bbbFA"/><path d="M90-179l-10-16" stroke-width="9.9" stroke="#fffFD"/><path d="M116-157l16 5" stroke-width="10.0" stroke="#c2e1ffFD"/></g></svg>