<svg width="1200" height="675" viewBox="-500 -500 1200 675" xmlns="http://www.w3.org/2000/svg"><path d="M-500-500h1200v675h-1200z" fill="#000"/><style>.sparkles path{stroke-linecap:round}</style><g class="sparkles"><path d="M115-157l15 6" stroke-width="1.0" stroke="#fca3111"/><path d="M80-151l-20 11" stroke-width="1.1" stroke="#1122332"/><path d="M106-133l6 29" stroke-width="1.1" stroke="#ffffff4"/><path d="M115-130l15 33" stroke-width="1.2" stroke="#ffffff6"/><path d="M118-131l18 31" stroke-width="1.2" stroke="#fca3116"/><path d="M127-138l28 24" stroke-width="1.2" stroke="#fca3116"/><path d="M143-170l43-7" stroke-width="1.3" stroke="#1122339"/><path d="M123-201l23-38" stroke-width="1.3" stroke="#1122339"/><path d="M99-117l-1 45" stroke-width="1.3" stroke="#1122339"/><path d="M132-196l31-33" stroke-width="1.4" stroke="#ffffffA"/><path d="M51-142l-48 21" stroke-width="1.5" stroke="#e5e5e5D"/><path d="M140-198l40-35" stroke-width="1.5" stroke="#ffffffD"/><path d="M86-108l-13 55" stroke-width="1.5" stroke="#e5e5e5F"/><path d="M162-170l63-8" stroke-width="1.7" stroke="#14213d13"/><path d="M33-166l-66-4" stroke-width="1.8" stroke="#fca31116"/><path d="M32-183l-68-20" stroke-width="1.9" stroke="#14213d19"/><path d="M28-163l-73 0" stroke-width="1.9" stroke="#fca3111A"/><path d="M32-137l-68 25" stroke-width="2.0" stroke="#e5e5e51A"/><path d="M167-131l66 32" stroke-width="2.0" stroke="#ffffff1B"/><path d="M34-198l-67-35" stroke-width="2.0" stroke="#e5e5e51D"/><path d="M27-142l-73 21" stroke-width="2.0" stroke="#fca3111D"/><path d="M119-236l19-74" stroke-width="2.1" stroke="#1122331E"/><path d="M58-229l-41-66" stroke-width="2.1" stroke="#14213d20"/><path d="M168-209l67-46" stroke-width="2.3" stroke="#ffffff23"/><path d="M27-122l-73 40" stroke-width="2.3" stroke="#14213d25"/><path d="M56-236l-43-73" stroke-width="2.4" stroke="#ffffff27"/><path d="M127-80l26 82" stroke-width="2.4" stroke="#ffffff28"/><path d="M26-118l-75 44" stroke-width="2.4" stroke="#fca31128"/><path d="M170-110l69 53" stroke-width="2.5" stroke="#11223329"/><path d="M192-178l92-16" stroke-width="2.7" stroke="#14213d31"/><path d="M112-70l13 93" stroke-width="2.7" stroke="#ffffff31"/><path d="M16-205l-83-42" stroke-width="2.8" stroke="#e5e5e531"/><path d="M105-257l6-94" stroke-width="2.8" stroke="#11223333"/><path d="M137-251l36-88" stroke-width="2.9" stroke="#e5e5e534"/><path d="M103-259l3-96" stroke-width="2.9" stroke="#14213d35"/><path d="M163-88l64 74" stroke-width="3.0" stroke="#ffffff37"/><path d="M147-77l46 86" stroke-width="3.0" stroke="#11223338"/><path d="M36-236l-65-74" stroke-width="3.0" stroke="#11223338"/><path d="M42-81l-58 81" stroke-width="3.1" stroke="#ffffff3B"/><path d="M147-252l46-89" stroke-width="3.2" stroke="#14213d3C"/><path d="M27-233l-73-70" stroke-width="3.2" stroke="#ffffff3D"/><path d="M190-115l90 48" stroke-width="3.2" stroke="#14213d3F"/><path d="M92-264l-7-102" stroke-width="3.2" stroke="#14213d3F"/><path d="M-1-145l-101 17" stroke-width="3.3" stroke="#fca31140"/><path d="M120-62l20 101" stroke-width="3.3" stroke="#14213d40"/><path d="M7-206l-93-44" stroke-width="3.3" stroke="#ffffff40"/><path d="M0-132l-101 31" stroke-width="3.4" stroke="#ffffff44"/><path d="M143-259l43-97" stroke-width="3.5" stroke="#ffffff47"/><path d="M49-256l-51-93" stroke-width="3.5" stroke="#e5e5e547"/><path d="M27-240l-73-77" stroke-width="3.5" stroke="#ffffff47"/><path d="M69-265l-31-102" stroke-width="3.6" stroke="#ffffff49"/><path d="M4-211l-96-49" stroke-width="3.7" stroke="#1122334B"/><path d="M93-55l-8 107" stroke-width="3.7" stroke="#fca3114B"/><path d="M193-217l94-54" stroke-width="3.7" stroke="#1122334B"/><path d="M2-208l-98-46" stroke-width="3.7" stroke="#e5e5e54C"/><path d="M35-249l-65-87" stroke-width="3.7" stroke="#14213d4C"/><path d="M-9-163l-110 0" stroke-width="3.8" stroke="#1122334F"/><path d="M180-240l80-78" stroke-width="4.0" stroke="#14213d54"/><path d="M210-143l109 20" stroke-width="4.0" stroke="#fca31155"/><path d="M32-74l-68 88" stroke-width="4.0" stroke="#e5e5e555"/><path d="M53-60l-47 102" stroke-width="4.1" stroke="#e5e5e559"/><path d="M210-186l110-23" stroke-width="4.2" stroke="#fca31159"/><path d="M76-273l-24-110" stroke-width="4.2" stroke="#e5e5e55A"/><path d="M56-267l-44-105" stroke-width="4.2" stroke="#e5e5e55B"/><path d="M173-250l73-87" stroke-width="4.3" stroke="#14213d5D"/><path d="M36-68l-65 95" stroke-width="4.4" stroke="#e5e5e55F"/><path d="M142-56l43 106" stroke-width="4.4" stroke="#11223360"/><path d="M213-143l113 20" stroke-width="4.4" stroke="#e5e5e561"/><path d="M46-264l-54-102" stroke-width="4.5" stroke="#14213d63"/><path d="M0-220l-100-58" stroke-width="4.5" stroke="#e5e5e563"/><path d="M173-73l73 89" stroke-width="4.6" stroke="#11223365"/><path d="M206-209l106-46" stroke-width="4.6" stroke="#e5e5e566"/><path d="M23-249l-77-87" stroke-width="4.6" stroke="#fca31166"/><path d="M208-207l108-45" stroke-width="4.9" stroke="#ffffff6D"/><path d="M153-58l54 104" stroke-width="4.9" stroke="#e5e5e56E"/><path d="M172-70l72 92" stroke-width="4.9" stroke="#fca3116E"/><path d="M210-202l111-40" stroke-width="5.0" stroke="#ffffff6F"/><path d="M60-273l-40-111" stroke-width="5.1" stroke="#11223373"/><path d="M79-47l-21 116" stroke-width="5.1" stroke="#e5e5e573"/><path d="M121-278l22-116" stroke-width="5.1" stroke="#e5e5e574"/><path d="M213-128l112 34" stroke-width="5.2" stroke="#11223376"/><path d="M167-65l66 97" stroke-width="5.2" stroke="#e5e5e577"/><path d="M-17-147l-117 16" stroke-width="5.3" stroke="#fca31179"/><path d="M205-109l105 53" stroke-width="5.3" stroke="#ffffff7A"/><path d="M161-61l60 101" stroke-width="5.3" stroke="#ffffff7B"/><path d="M210-204l111-42" stroke-width="5.4" stroke="#1122337B"/><path d="M10-86l-90 76" stroke-width="5.5" stroke="#1122337F"/><path d="M-13-198l-113-35" stroke-width="5.5" stroke="#fca3117F"/><path d="M51-270l-50-107" stroke-width="5.5" stroke="#e5e5e57F"/><path d="M215-137l116 25" stroke-width="5.5" stroke="#14213d80"/><path d="M102-281l2-118" stroke-width="5.5" stroke="#e5e5e580"/><path d="M8-88l-92 74" stroke-width="5.6" stroke="#11223381"/><path d="M163-263l63-100" stroke-width="5.6" stroke="#e5e5e581"/><path d="M9-237l-92-75" stroke-width="5.6" stroke="#14213d81"/><path d="M168-66l67 97" stroke-width="5.7" stroke="#ffffff84"/><path d="M132-276l32-114" stroke-width="5.7" stroke="#fca31185"/><path d="M-18-155l-117 7" stroke-width="5.8" stroke="#e5e5e588"/><path d="M141-52l40 111" stroke-width="5.8" stroke="#11223388"/><path d="M213-130l113 33" stroke-width="5.8" stroke="#fca31189"/><path d="M-10-203l-111-41" stroke-width="5.9" stroke="#1122338A"/><path d="M4-231l-96-68" stroke-width="5.9" stroke="#1122338A"/><path d="M209-207l109-44" stroke-width="5.9" stroke="#fca3118A"/><path d="M170-257l70-95" stroke-width="5.9" stroke="#14213d8A"/><path d="M122-278l22-115" stroke-width="6.0" stroke="#e5e5e58D"/><path d="M95-280l-5-117" stroke-width="6.0" stroke="#e5e5e58E"/><path d="M217-172l117-9" stroke-width="6.0" stroke="#ffffff8E"/><path d="M212-196l113-33" stroke-width="6.1" stroke="#e5e5e58F"/><path d="M211-199l111-37" stroke-width="6.1" stroke="#14213d91"/><path d="M128-50l29 113" stroke-width="6.3" stroke="#ffffff95"/><path d="M-12-135l-113 28" stroke-width="6.4" stroke="#11223399"/><path d="M-13-187l-112-24" stroke-width="6.5" stroke="#e5e5e59B"/><path d="M106-48l6 115" stroke-width="6.5" stroke="#14213d9C"/><path d="M165-68l65 95" stroke-width="6.6" stroke="#ffffff9D"/><path d="M-14-148l-113 15" stroke-width="6.6" stroke="#1122339E"/><path d="M-5-208l-104-45" stroke-width="6.7" stroke="#ffffffA0"/><path d="M208-201l107-38" stroke-width="6.7" stroke="#fca311A0"/><path d="M34-255l-66-93" stroke-width="6.7" stroke="#fca311A1"/><path d="M214-162l113 0" stroke-width="6.7" stroke="#e5e5e5A1"/><path d="M83-50l-17 112" stroke-width="6.7" stroke="#ffffffA2"/><path d="M168-254l67-91" stroke-width="6.8" stroke="#14213dA2"/><path d="M63-270l-38-107" stroke-width="6.8" stroke="#fca311A3"/><path d="M58-268l-42-105" stroke-width="6.8" stroke="#ffffffA3"/><path d="M5-101l-95 62" stroke-width="6.8" stroke="#112233A4"/><path d="M10-95l-91 67" stroke-width="6.8" stroke="#112233A5"/><path d="M-10-140l-110 23" stroke-width="6.9" stroke="#14213dA6"/><path d="M-6-126l-106 37" stroke-width="6.9" stroke="#ffffffA7"/><path d="M11-232l-88-69" stroke-width="6.9" stroke="#112233A7"/><path d="M205-202l104-40" stroke-width="6.9" stroke="#14213dA8"/><path d="M194-102l93 61" stroke-width="7.0" stroke="#14213dA9"/><path d="M74-270l-27-107" stroke-width="7.1" stroke="#fca311AC"/><path d="M122-55l22 108" stroke-width="7.1" stroke="#14213dAD"/><path d="M-5-196l-105-33" stroke-width="7.1" stroke="#fca311AD"/><path d="M162-253l62-91" stroke-width="7.1" stroke="#112233AD"/><path d="M104-272l4-110" stroke-width="7.1" stroke="#112233AD"/><path d="M191-101l90 62" stroke-width="7.2" stroke="#14213dAE"/><path d="M134-59l34 104" stroke-width="7.2" stroke="#e5e5e5B0"/><path d="M121-56l20 107" stroke-width="7.2" stroke="#ffffffB1"/><path d="M207-145l108 17" stroke-width="7.2" stroke="#112233B1"/><path d="M12-99l-89 63" stroke-width="7.3" stroke="#112233B1"/><path d="M117-269l16-107" stroke-width="7.3" stroke="#ffffffB2"/><path d="M159-252l60-90" stroke-width="7.4" stroke="#ffffffB4"/><path d="M207-156l106 7" stroke-width="7.4" stroke="#112233B6"/><path d="M46-75l-53 87" stroke-width="7.7" stroke="#14213dBF"/><path d="M194-203l94-40" stroke-width="7.8" stroke="#ffffffBF"/><path d="M92-264l-8-101" stroke-width="7.8" stroke="#ffffffC1"/><path d="M196-189l96-26" stroke-width="7.9" stroke="#112233C4"/><path d="M66-253l-34-91" stroke-width="8.1" stroke="#fca311C7"/><path d="M195-185l94-22" stroke-width="8.1" stroke="#e5e5e5C8"/><path d="M171-228l71-65" stroke-width="8.1" stroke="#fca311C9"/><path d="M74-71l-26 92" stroke-width="8.2" stroke="#fca311CA"/><path d="M189-195l89-32" stroke-width="8.2" stroke="#fca311CB"/><path d="M193-178l93-15" stroke-width="8.2" stroke="#112233CC"/><path d="M175-219l76-57" stroke-width="8.2" stroke="#ffffffCC"/><path d="M8-151l-91 11" stroke-width="8.3" stroke="#112233CF"/><path d="M52-87l-49 75" stroke-width="8.4" stroke="#112233D3"/><path d="M11-161l-88 2" stroke-width="8.5" stroke="#ffffffD3"/><path d="M34-104l-66 58" stroke-width="8.5" stroke="#112233D4"/><path d="M112-246l13-83" stroke-width="8.6" stroke="#ffffffD8"/><path d="M31-115l-70 48" stroke-width="8.7" stroke="#ffffffD8"/><path d="M18-163l-83 0" stroke-width="8.7" stroke="#112233DA"/><path d="M96-244l-4-81" stroke-width="8.8" stroke="#fca311DC"/><path d="M103-243l3-81" stroke-width="8.8" stroke="#ffffffDC"/><path d="M174-194l74-31" stroke-width="8.8" stroke="#ffffffDC"/><path d="M22-175l-77-12" stroke-width="8.9" stroke="#ffffffDE"/><path d="M157-216l56-54" stroke-width="8.9" stroke="#112233DF"/><path d="M28-133l-71 29" stroke-width="8.9" stroke="#e5e5e5DF"/><path d="M172-179l71-16" stroke-width="9.0" stroke="#e5e5e5E3"/><path d="M94-234l-5-72" stroke-width="9.1" stroke="#112233E4"/><path d="M40-124l-61 39" stroke-width="9.1" stroke="#ffffffE4"/><path d="M63-106l-37 57" stroke-width="9.2" stroke="#14213dE7"/><path d="M58-114l-42 49" stroke-width="9.3" stroke="#ffffffEA"/><path d="M157-134l57 28" stroke-width="9.3" stroke="#14213dEA"/><path d="M73-218l-28-55" stroke-width="9.3" stroke="#14213dEC"/><path d="M137-211l37-48" stroke-width="9.4" stroke="#ffffffEC"/><path d="M43-144l-57 18" stroke-width="9.4" stroke="#fca311ED"/><path d="M112-107l13 55" stroke-width="9.4" stroke="#14213dEF"/><path d="M126-118l27 44" stroke-width="9.5" stroke="#fca311F2"/><path d="M112-116l11 46" stroke-width="9.6" stroke="#e5e5e5F4"/><path d="M94-125l-6 37" stroke-width="9.8" stroke="#fca311F8"/><path d="M73-143l-27 19" stroke-width="9.8" stroke="#fca311F9"/><path d="M116-188l15-26" stroke-width="9.9" stroke="#fca311FA"/></g></svg>