<svg width="1200" height="675" viewBox="-500 -500 1200 675" xmlns="http://www.w3.org/2000/svg"><path d="M-500-500h1200v675h-1200z" fill="#000"/><style>.sparkles path{stroke-linecap:round}</style><g class="sparkles"><path d="M78-158l-21 4" stroke-width="1.1" stroke="#2646532"/><path d="M120-133l19 29" stroke-width="1.2" stroke="#2646535"/><path d="M67-144l-33 18" stroke-width="1.2" stroke="#f4a2616"/><path d="M73-194l-28-32" stroke-width="1.3" stroke="#f4a2618"/><path d="M58-166l-43-4" stroke-width="1.3" stroke="#f4a2618"/><path d="M140-141l40 21" stroke-width="1.3" stroke="#2a9d8f9"/><path d="M91-118l-9 45" stroke-width="1.4" stroke="#f4a2619"/><path d="M60-189l-41-27" stroke-width="1.4" stroke="#264653B"/><path d="M143-136l44 27" stroke-width="1.4" stroke="#e76f51C"/><path d="M54-141l-47 22" stroke-width="1.4" stroke="#264653C"/><path d="M85-212l-15-49" stroke-width="1.5" stroke="#2a9d8fC"/><path d="M123-116l23 47" stroke-width="1.5" stroke="#e76f51D"/><path d="M151-177l51-14" stroke-width="1.5" stroke="#264653D"/><path d="M145-201l45-39" stroke-width="1.6" stroke="#f4a26111"/><path d="M159-181l59-19" stroke-width="1.7" stroke="#e76f5112"/><path d="M37-155l-64 8" stroke-width="1.7" stroke="#26465314"/><path d="M103-98l2 65" stroke-width="1.7" stroke="#f4a26114"/><path d="M49-121l-52 42" stroke-width="1.8" stroke="#2a9d8f15"/><path d="M158-202l58-40" stroke-width="1.9" stroke="#26465319"/><path d="M35-205l-65-42" stroke-width="2.1" stroke="#e9c46a1F"/><path d="M31-122l-68 40" stroke-width="2.2" stroke="#26465321"/><path d="M57-231l-42-68" stroke-width="2.2" stroke="#f4a26122"/><path d="M103-244l3-81" stroke-width="2.2" stroke="#f4a26122"/><path d="M60-91l-40 71" stroke-width="2.3" stroke="#e76f5123"/><path d="M66-88l-33 75" stroke-width="2.3" stroke="#2a9d8f23"/><path d="M28-123l-72 40" stroke-width="2.3" stroke="#2a9d8f23"/><path d="M72-85l-28 77" stroke-width="2.3" stroke="#e9c46a24"/><path d="M133-87l33 76" stroke-width="2.3" stroke="#e9c46a24"/><path d="M26-203l-73-40" stroke-width="2.3" stroke="#2a9d8f25"/><path d="M133-84l32 79" stroke-width="2.4" stroke="#e9c46a26"/><path d="M162-103l61 59" stroke-width="2.4" stroke="#f4a26127"/><path d="M132-81l32 82" stroke-width="2.5" stroke="#e9c46a29"/><path d="M83-76l-17 87" stroke-width="2.5" stroke="#2646532B"/><path d="M40-97l-60 66" stroke-width="2.5" stroke="#2a9d8f2B"/><path d="M90-74l-9 89" stroke-width="2.5" stroke="#2646532B"/><path d="M159-95l60 67" stroke-width="2.6" stroke="#2646532C"/><path d="M186-135l86 28" stroke-width="2.6" stroke="#2646532D"/><path d="M97-253l-3-90" stroke-width="2.6" stroke="#2646532D"/><path d="M146-84l46 79" stroke-width="2.6" stroke="#2a9d8f2E"/><path d="M165-226l65-64" stroke-width="2.6" stroke="#f4a2612E"/><path d="M37-97l-64 65" stroke-width="2.6" stroke="#e9c46a2E"/><path d="M24-214l-75-52" stroke-width="2.6" stroke="#2a9d8f2E"/><path d="M141-79l41 83" stroke-width="2.7" stroke="#26465330"/><path d="M62-248l-38-85" stroke-width="2.7" stroke="#e76f5131"/><path d="M63-248l-37-86" stroke-width="2.7" stroke="#26465331"/><path d="M174-104l73 59" stroke-width="2.8" stroke="#2a9d8f32"/><path d="M153-80l53 82" stroke-width="3.0" stroke="#e76f5138"/><path d="M14-211l-86-48" stroke-width="3.0" stroke="#2a9d8f39"/><path d="M191-121l91 41" stroke-width="3.1" stroke="#e9c46a3B"/><path d="M167-238l66-75" stroke-width="3.1" stroke="#e9c46a3C"/><path d="M186-110l86 53" stroke-width="3.2" stroke="#e76f513D"/><path d="M82-63l-18 100" stroke-width="3.2" stroke="#f4a2613D"/><path d="M9-115l-92 47" stroke-width="3.3" stroke="#f4a26140"/><path d="M6-119l-94 43" stroke-width="3.3" stroke="#e76f5141"/><path d="M22-93l-77 70" stroke-width="3.4" stroke="#26465343"/><path d="M194-113l93 50" stroke-width="3.5" stroke="#f4a26147"/><path d="M13-224l-87-61" stroke-width="3.5" stroke="#e9c46a47"/><path d="M21-89l-78 74" stroke-width="3.6" stroke="#f4a2614A"/><path d="M146-63l46 100" stroke-width="3.8" stroke="#e9c46a50"/><path d="M119-54l19 109" stroke-width="3.9" stroke="#f4a26151"/><path d="M43-68l-58 95" stroke-width="3.9" stroke="#e9c46a52"/><path d="M133-57l34 106" stroke-width="4.0" stroke="#26465354"/><path d="M22-242l-78-80" stroke-width="4.0" stroke="#e9c46a56"/><path d="M0-112l-101 50" stroke-width="4.1" stroke="#f4a26157"/><path d="M5-222l-96-59" stroke-width="4.1" stroke="#e76f5158"/><path d="M213-161l113 1" stroke-width="4.2" stroke="#2a9d8f5B"/><path d="M-14-171l-113-8" stroke-width="4.3" stroke="#f4a2615E"/><path d="M4-101l-96 62" stroke-width="4.3" stroke="#2a9d8f5E"/><path d="M196-101l96 62" stroke-width="4.3" stroke="#2646535E"/><path d="M17-84l-84 78" stroke-width="4.4" stroke="#e76f515F"/><path d="M182-243l82-80" stroke-width="4.4" stroke="#26465360"/><path d="M178-247l78-84" stroke-width="4.5" stroke="#e9c46a61"/><path d="M208-204l108-41" stroke-width="4.6" stroke="#f4a26164"/><path d="M13-239l-87-76" stroke-width="4.6" stroke="#f4a26166"/><path d="M195-96l96 66" stroke-width="4.7" stroke="#26465367"/><path d="M202-105l101 57" stroke-width="4.8" stroke="#f4a2616A"/><path d="M-7-209l-107-47" stroke-width="4.8" stroke="#e76f516B"/><path d="M86-46l-14 116" stroke-width="4.9" stroke="#f4a2616D"/><path d="M180-77l79 86" stroke-width="4.9" stroke="#2646536E"/><path d="M214-135l114 28" stroke-width="4.9" stroke="#e76f516E"/><path d="M-15-139l-115 24" stroke-width="5.0" stroke="#e76f5170"/><path d="M25-253l-75-90" stroke-width="5.1" stroke="#e9c46a72"/><path d="M213-194l114-31" stroke-width="5.1" stroke="#26465373"/><path d="M138-274l37-112" stroke-width="5.1" stroke="#26465374"/><path d="M38-62l-62 100" stroke-width="5.2" stroke="#e76f5176"/><path d="M170-68l71 94" stroke-width="5.2" stroke="#e76f5177"/><path d="M100-45l-1 118" stroke-width="5.2" stroke="#2a9d8f78"/><path d="M207-212l107-50" stroke-width="5.3" stroke="#2a9d8f79"/><path d="M218-170l118-7" stroke-width="5.3" stroke="#f4a2617A"/><path d="M60-51l-40 111" stroke-width="5.3" stroke="#2a9d8f7A"/><path d="M116-279l16-117" stroke-width="5.4" stroke="#2646537B"/><path d="M-4-218l-104-56" stroke-width="5.4" stroke="#e76f517D"/><path d="M215-135l115 28" stroke-width="5.5" stroke="#e76f517E"/><path d="M51-55l-50 107" stroke-width="5.6" stroke="#f4a26181"/><path d="M202-222l102-60" stroke-width="5.6" stroke="#e76f5183"/><path d="M168-66l68 96" stroke-width="5.6" stroke="#e9c46a83"/><path d="M-18-163l-118 0" stroke-width="5.7" stroke="#26465384"/><path d="M34-260l-67-98" stroke-width="5.7" stroke="#2a9d8f84"/><path d="M5-92l-94 70" stroke-width="5.7" stroke="#e9c46a85"/><path d="M217-148l117 15" stroke-width="5.8" stroke="#26465387"/><path d="M198-97l98 66" stroke-width="5.8" stroke="#e76f5187"/><path d="M25-72l-75 91" stroke-width="5.8" stroke="#e76f5188"/><path d="M165-260l66-98" stroke-width="5.8" stroke="#2a9d8f89"/><path d="M88-45l-11 117" stroke-width="5.9" stroke="#e76f518A"/><path d="M217-169l117-7" stroke-width="6.0" stroke="#e9c46a8E"/><path d="M-3-214l-104-52" stroke-width="6.4" stroke="#2a9d8f98"/><path d="M165-258l65-96" stroke-width="6.4" stroke="#e9c46a99"/><path d="M-11-195l-110-32" stroke-width="6.5" stroke="#f4a2619B"/><path d="M120-50l21 113" stroke-width="6.6" stroke="#e9c46a9E"/><path d="M85-49l-16 113" stroke-width="6.6" stroke="#2a9d8f9F"/><path d="M-3-113l-102 49" stroke-width="6.7" stroke="#264653A1"/><path d="M207-124l107 38" stroke-width="6.7" stroke="#f4a261A2"/><path d="M213-164l114-1" stroke-width="6.8" stroke="#e76f51A3"/><path d="M120-274l19-111" stroke-width="6.8" stroke="#f4a261A3"/><path d="M81-274l-19-111" stroke-width="6.8" stroke="#e9c46aA4"/><path d="M69-271l-31-108" stroke-width="6.9" stroke="#2a9d8fA6"/><path d="M-12-159l-113 3" stroke-width="6.9" stroke="#e9c46aA6"/><path d="M209-187l110-25" stroke-width="6.9" stroke="#e9c46aA8"/><path d="M104-274l4-111" stroke-width="7.0" stroke="#2a9d8fAA"/><path d="M209-145l109 18" stroke-width="7.1" stroke="#f4a261AC"/><path d="M5-107l-96 56" stroke-width="7.1" stroke="#2a9d8fAC"/><path d="M155-70l55 93" stroke-width="7.3" stroke="#264653B3"/><path d="M153-256l52-94" stroke-width="7.4" stroke="#e9c46aB4"/><path d="M201-197l100-35" stroke-width="7.4" stroke="#2a9d8fB6"/><path d="M192-215l92-52" stroke-width="7.5" stroke="#264653B8"/><path d="M146-258l46-95" stroke-width="7.5" stroke="#2a9d8fB8"/><path d="M94-57l-6 105" stroke-width="7.5" stroke="#e9c46aB9"/><path d="M-2-186l-102-24" stroke-width="7.6" stroke="#f4a261BA"/><path d="M-1-187l-100-24" stroke-width="7.7" stroke="#2a9d8fBC"/><path d="M187-106l87 56" stroke-width="7.7" stroke="#2a9d8fBD"/><path d="M131-65l30 97" stroke-width="7.8" stroke="#2a9d8fBF"/><path d="M0-177l-100-15" stroke-width="7.8" stroke="#2a9d8fC1"/><path d="M201-162l101 0" stroke-width="7.8" stroke="#2a9d8fC1"/><path d="M29-234l-72-71" stroke-width="7.8" stroke="#e9c46aC1"/><path d="M199-183l98-20" stroke-width="7.9" stroke="#264653C2"/><path d="M167-87l66 75" stroke-width="7.9" stroke="#e76f51C2"/><path d="M5-188l-94-26" stroke-width="8.0" stroke="#e76f51C6"/><path d="M10-126l-89 37" stroke-width="8.1" stroke="#264653C8"/><path d="M9-195l-91-33" stroke-width="8.1" stroke="#264653C8"/><path d="M21-218l-79-55" stroke-width="8.1" stroke="#e76f51C9"/><path d="M107-67l8 95" stroke-width="8.2" stroke="#f4a261CA"/><path d="M82-255l-19-92" stroke-width="8.2" stroke="#2a9d8fCC"/><path d="M9-173l-92-10" stroke-width="8.3" stroke="#f4a261CF"/><path d="M39-226l-62-64" stroke-width="8.5" stroke="#264653D3"/><path d="M187-177l88-14" stroke-width="8.5" stroke="#f4a261D3"/><path d="M153-227l52-65" stroke-width="8.7" stroke="#2a9d8fD9"/><path d="M155-100l55 62" stroke-width="8.7" stroke="#e9c46aDA"/><path d="M65-237l-36-75" stroke-width="8.7" stroke="#e9c46aDA"/><path d="M94-245l-6-83" stroke-width="8.7" stroke="#f4a261DA"/><path d="M53-96l-47 66" stroke-width="8.8" stroke="#264653DC"/><path d="M73-237l-27-75" stroke-width="8.8" stroke="#f4a261DE"/><path d="M139-228l40-66" stroke-width="8.9" stroke="#f4a261E0"/><path d="M32-129l-68 34" stroke-width="8.9" stroke="#e76f51E1"/><path d="M35-202l-64-40" stroke-width="8.9" stroke="#f4a261E1"/><path d="M173-175l73-12" stroke-width="9.0" stroke="#2a9d8fE2"/><path d="M36-197l-65-34" stroke-width="9.0" stroke="#e76f51E3"/><path d="M106-90l6 72" stroke-width="9.1" stroke="#e76f51E4"/><path d="M152-209l53-46" stroke-width="9.1" stroke="#e76f51E6"/><path d="M116-96l16 67" stroke-width="9.2" stroke="#f4a261E7"/><path d="M160-130l60 32" stroke-width="9.2" stroke="#e9c46aE7"/><path d="M35-149l-65 14" stroke-width="9.2" stroke="#f4a261E8"/><path d="M163-158l63 4" stroke-width="9.3" stroke="#f4a261EB"/><path d="M73-218l-27-55" stroke-width="9.3" stroke="#e9c46aEC"/><path d="M46-137l-54 26" stroke-width="9.4" stroke="#264653ED"/><path d="M58-121l-41 42" stroke-width="9.4" stroke="#f4a261ED"/><path d="M144-201l45-38" stroke-width="9.4" stroke="#264653EE"/><path d="M57-201l-43-38" stroke-width="9.4" stroke="#e9c46aEE"/><path d="M110-109l10 54" stroke-width="9.5" stroke="#e9c46aF0"/><path d="M49-147l-51 16" stroke-width="9.5" stroke="#2a9d8fF1"/><path d="M132-204l32-41" stroke-width="9.5" stroke="#e76f51F1"/><path d="M149-155l49 8" stroke-width="9.6" stroke="#e76f51F3"/><path d="M132-131l31 31" stroke-width="9.7" stroke="#2a9d8fF5"/><path d="M118-123l19 39" stroke-width="9.7" stroke="#e9c46aF6"/><path d="M132-169l32-7" stroke-width="9.8" stroke="#2a9d8fFA"/><path d="M91-192l-10-29" stroke-width="9.8" stroke="#264653FA"/><path d="M70-163l-31-1" stroke-width="9.8" stroke="#264653FA"/><path d="M96-188l-3-26" stroke-width="9.9" stroke="#f4a261FB"/><path d="M101-186l2-23" stroke-width="9.9" stroke="#e76f51FC"/><path d="M78-159l-23 3" stroke-width="9.9" stroke="#2a9d8fFC"/><path d="M120-154l20 8" stroke-width="9.9" stroke="#e9c46aFC"/><path d="M113-155l13 7" stroke-width="10.0" stroke="#e76f51FD"/></g></svg>