<svg width="1200" height="675" viewBox="-500 -500 1200 675" xmlns="http://www.w3.org/2000/svg"><path d="M-500-500h1200v675h-1200z" fill="#000"/><style>.sparkles path{stroke-linecap:round}</style><g class="sparkles"><path d="M107-177l7-15" stroke-width="1.0" stroke="#005bbb1"/><path d="M85-170l-15-8" stroke-width="1.0" stroke="#005bbb1"/><path d="M88-179l-13-17" stroke-width="1.1" stroke="#fff2"/><path d="M117-137l18 26" stroke-width="1.2" stroke="#005bbb4"/><path d="M75-139l-25 23" stroke-width="1.2" stroke="#c2e1ff5"/><path d="M83-133l-17 30" stroke-width="1.2" stroke="#fff5005"/><path d="M101-203l2-40" stroke-width="1.3" stroke="#005bbb7"/><path d="M126-129l25 34" stroke-width="1.3" stroke="#c2e1ff8"/><path d="M148-170l48-7" stroke-width="1.4" stroke="#fffB"/><path d="M63-195l-36-32" stroke-width="1.4" stroke="#005bbbB"/><path d="M100-214l0-51" stroke-width="1.4" stroke="#c2e1ffC"/><path d="M129-120l29 42" stroke-width="1.4" stroke="#fffC"/><path d="M137-201l37-39" stroke-width="1.5" stroke="#fff500D"/><path d="M127-114l28 49" stroke-width="1.5" stroke="#c2e1ffF"/><path d="M85-219l-16-57" stroke-width="1.6" stroke="#fff50011"/><path d="M162-174l61-12" stroke-width="1.7" stroke="#fff50013"/><path d="M132-220l33-58" stroke-width="1.8" stroke="#fff15"/><path d="M107-229l7-66" stroke-width="1.8" stroke="#fff50016"/><path d="M134-104l34 58" stroke-width="1.8" stroke="#005bbb16"/><path d="M144-216l44-53" stroke-width="1.8" stroke="#fff18"/><path d="M54-215l-47-53" stroke-width="1.9" stroke="#c2e1ff18"/><path d="M61-222l-38-60" stroke-width="1.9" stroke="#fff19"/><path d="M171-178l70-15" stroke-width="1.9" stroke="#c2e1ff1A"/><path d="M55-102l-44 61" stroke-width="2.0" stroke="#c2e1ff1D"/><path d="M90-84l-10 78" stroke-width="2.1" stroke="#fff50020"/><path d="M136-92l36 70" stroke-width="2.2" stroke="#005bbb20"/><path d="M40-216l-60-54" stroke-width="2.2" stroke="#c2e1ff22"/><path d="M148-229l47-67" stroke-width="2.3" stroke="#c2e1ff23"/><path d="M182-155l82 7" stroke-width="2.3" stroke="#c2e1ff24"/><path d="M99-78l-2 84" stroke-width="2.3" stroke="#005bbb25"/><path d="M174-117l74 45" stroke-width="2.4" stroke="#fff28"/><path d="M23-118l-77 44" stroke-width="2.5" stroke="#fff2B"/><path d="M40-96l-59 66" stroke-width="2.6" stroke="#005bbb2B"/><path d="M78-75l-21 87" stroke-width="2.6" stroke="#c2e1ff2C"/><path d="M89-253l-10-90" stroke-width="2.6" stroke="#fff5002D"/><path d="M8-146l-91 16" stroke-width="2.7" stroke="#c2e1ff31"/><path d="M111-256l12-94" stroke-width="2.8" stroke="#c2e1ff32"/><path d="M12-198l-87-35" stroke-width="2.8" stroke="#fff33"/><path d="M35-232l-65-69" stroke-width="2.8" stroke="#005bbb33"/><path d="M6-192l-94-29" stroke-width="3.0" stroke="#fff50038"/><path d="M2-156l-98 7" stroke-width="3.0" stroke="#fff39"/><path d="M99-64l-2 99" stroke-width="3.0" stroke="#fff39"/><path d="M133-68l33 95" stroke-width="3.1" stroke="#005bbb3C"/><path d="M-1-161l-101 2" stroke-width="3.2" stroke="#fff3D"/><path d="M167-86l66 77" stroke-width="3.2" stroke="#c2e1ff3E"/><path d="M-1-145l-101 17" stroke-width="3.2" stroke="#c2e1ff3F"/><path d="M-3-158l-103 4" stroke-width="3.3" stroke="#005bbb41"/><path d="M3-202l-97-39" stroke-width="3.4" stroke="#c2e1ff44"/><path d="M160-76l60 87" stroke-width="3.5" stroke="#005bbb46"/><path d="M146-67l45 95" stroke-width="3.5" stroke="#005bbb46"/><path d="M34-79l-65 84" stroke-width="3.6" stroke="#c2e1ff48"/><path d="M11-223l-90-60" stroke-width="3.7" stroke="#005bbb4B"/><path d="M-8-153l-108 10" stroke-width="3.7" stroke="#005bbb4D"/><path d="M206-187l106-24" stroke-width="3.7" stroke="#c2e1ff4D"/><path d="M90-271l-10-109" stroke-width="3.8" stroke="#fff4F"/><path d="M169-77l69 85" stroke-width="3.8" stroke="#005bbb50"/><path d="M126-55l27 107" stroke-width="3.9" stroke="#c2e1ff51"/><path d="M83-272l-17-109" stroke-width="3.9" stroke="#005bbb52"/><path d="M210-151l111 11" stroke-width="3.9" stroke="#005bbb53"/><path d="M200-114l100 48" stroke-width="4.0" stroke="#fff54"/><path d="M210-143l109 20" stroke-width="4.0" stroke="#fff50054"/><path d="M-6-196l-107-33" stroke-width="4.0" stroke="#c2e1ff54"/><path d="M211-161l112 2" stroke-width="4.0" stroke="#fff50054"/><path d="M51-62l-49 101" stroke-width="4.1" stroke="#c2e1ff57"/><path d="M79-273l-21-111" stroke-width="4.1" stroke="#fff50059"/><path d="M67-55l-34 108" stroke-width="4.2" stroke="#fff5A"/><path d="M80-51l-21 111" stroke-width="4.2" stroke="#fff5A"/><path d="M-13-158l-113 4" stroke-width="4.2" stroke="#fff5B"/><path d="M103-276l2-113" stroke-width="4.2" stroke="#005bbb5B"/><path d="M51-60l-48 103" stroke-width="4.3" stroke="#005bbb5C"/><path d="M197-100l96 62" stroke-width="4.4" stroke="#fff61"/><path d="M11-235l-90-73" stroke-width="4.5" stroke="#005bbb64"/><path d="M-10-127l-110 35" stroke-width="4.6" stroke="#fff65"/><path d="M-13-187l-114-24" stroke-width="4.6" stroke="#005bbb67"/><path d="M167-258l66-95" stroke-width="4.7" stroke="#c2e1ff67"/><path d="M109-47l8 116" stroke-width="4.7" stroke="#fff68"/><path d="M188-87l89 75" stroke-width="4.7" stroke="#005bbb68"/><path d="M-15-142l-115 21" stroke-width="4.8" stroke="#fff5006B"/><path d="M123-277l22-115" stroke-width="4.8" stroke="#fff5006C"/><path d="M206-112l105 51" stroke-width="4.9" stroke="#fff6F"/><path d="M99-45l-2 118" stroke-width="5.1" stroke="#fff73"/><path d="M161-263l61-100" stroke-width="5.1" stroke="#c2e1ff73"/><path d="M216-143l116 19" stroke-width="5.1" stroke="#005bbb74"/><path d="M97-280l-4-118" stroke-width="5.1" stroke="#c2e1ff75"/><path d="M209-118l109 45" stroke-width="5.3" stroke="#fff7B"/><path d="M186-81l86 81" stroke-width="5.4" stroke="#005bbb7C"/><path d="M208-114l107 49" stroke-width="5.4" stroke="#fff5007D"/><path d="M204-106l103 57" stroke-width="5.5" stroke="#005bbb7F"/><path d="M114-45l14 117" stroke-width="5.6" stroke="#fff81"/><path d="M217-148l117 14" stroke-width="5.6" stroke="#c2e1ff82"/><path d="M172-256l72-94" stroke-width="5.6" stroke="#005bbb82"/><path d="M214-195l113-33" stroke-width="5.6" stroke="#c2e1ff82"/><path d="M218-162l118 0" stroke-width="5.6" stroke="#c2e1ff82"/><path d="M30-257l-71-95" stroke-width="5.7" stroke="#005bbb85"/><path d="M209-118l110 44" stroke-width="5.7" stroke="#fff50085"/><path d="M15-244l-85-82" stroke-width="5.7" stroke="#c2e1ff86"/><path d="M130-277l30-114" stroke-width="5.8" stroke="#c2e1ff86"/><path d="M121-278l21-116" stroke-width="5.8" stroke="#fff50087"/><path d="M-4-217l-104-55" stroke-width="5.9" stroke="#fff8A"/><path d="M-12-198l-113-35" stroke-width="5.9" stroke="#fff8B"/><path d="M92-280l-7-117" stroke-width="6.0" stroke="#005bbb8C"/><path d="M169-68l70 95" stroke-width="6.0" stroke="#c2e1ff8C"/><path d="M173-70l72 92" stroke-width="6.1" stroke="#c2e1ff8F"/><path d="M-12-128l-111 35" stroke-width="6.1" stroke="#fff90"/><path d="M-16-148l-116 15" stroke-width="6.1" stroke="#fff91"/><path d="M66-274l-34-112" stroke-width="6.2" stroke="#c2e1ff92"/><path d="M92-46l-9 117" stroke-width="6.2" stroke="#c2e1ff92"/><path d="M34-259l-65-96" stroke-width="6.3" stroke="#c2e1ff94"/><path d="M21-248l-78-86" stroke-width="6.3" stroke="#fff50096"/><path d="M211-195l112-33" stroke-width="6.3" stroke="#005bbb97"/><path d="M14-85l-87 77" stroke-width="6.3" stroke="#fff50097"/><path d="M54-269l-46-107" stroke-width="6.3" stroke="#fff97"/><path d="M212-133l112 30" stroke-width="6.4" stroke="#005bbb98"/><path d="M196-98l96 65" stroke-width="6.4" stroke="#fff50098"/><path d="M37-66l-63 97" stroke-width="6.4" stroke="#fff98"/><path d="M38-260l-62-97" stroke-width="6.5" stroke="#fff9B"/><path d="M180-245l79-82" stroke-width="6.6" stroke="#fff9E"/><path d="M84-49l-16 113" stroke-width="6.6" stroke="#fff5009E"/><path d="M174-76l73 87" stroke-width="6.7" stroke="#fffA1"/><path d="M182-84l82 79" stroke-width="6.7" stroke="#fffA2"/><path d="M184-238l84-76" stroke-width="6.8" stroke="#fffA5"/><path d="M69-54l-31 108" stroke-width="6.8" stroke="#005bbbA5"/><path d="M205-202l105-40" stroke-width="6.9" stroke="#fffA6"/><path d="M211-142l110 20" stroke-width="6.9" stroke="#fffA6"/><path d="M-12-165l-112-2" stroke-width="6.9" stroke="#fff500A7"/><path d="M203-207l103-44" stroke-width="6.9" stroke="#fff500A7"/><path d="M203-118l103 44" stroke-width="6.9" stroke="#c2e1ffA8"/><path d="M31-75l-70 88" stroke-width="7.0" stroke="#c2e1ffA8"/><path d="M174-79l74 83" stroke-width="7.0" stroke="#c2e1ffA9"/><path d="M208-187l109-25" stroke-width="7.0" stroke="#fffAA"/><path d="M158-257l57-95" stroke-width="7.0" stroke="#005bbbAB"/><path d="M-8-188l-108-26" stroke-width="7.0" stroke="#c2e1ffAB"/><path d="M211-158l110 5" stroke-width="7.1" stroke="#fff500AB"/><path d="M-10-165l-110-2" stroke-width="7.1" stroke="#fffAE"/><path d="M181-90l80 72" stroke-width="7.3" stroke="#fff500B2"/><path d="M128-267l28-104" stroke-width="7.3" stroke="#fffB3"/><path d="M106-270l6-108" stroke-width="7.3" stroke="#005bbbB3"/><path d="M93-55l-7 107" stroke-width="7.4" stroke="#c2e1ffB4"/><path d="M152-70l53 93" stroke-width="7.5" stroke="#005bbbB7"/><path d="M179-92l80 70" stroke-width="7.5" stroke="#c2e1ffB8"/><path d="M205-149l105 13" stroke-width="7.5" stroke="#c2e1ffB8"/><path d="M0-194l-100-31" stroke-width="7.6" stroke="#c2e1ffBA"/><path d="M145-69l46 94" stroke-width="7.6" stroke="#c2e1ffBB"/><path d="M160-247l60-85" stroke-width="7.6" stroke="#fff500BC"/><path d="M88-59l-13 103" stroke-width="7.6" stroke="#c2e1ffBC"/><path d="M117-61l18 102" stroke-width="7.7" stroke="#c2e1ffBD"/><path d="M152-73l51 89" stroke-width="7.7" stroke="#005bbbBD"/><path d="M16-103l-83 59" stroke-width="7.7" stroke="#fffBE"/><path d="M201-172l100-9" stroke-width="7.8" stroke="#fffC1"/><path d="M5-197l-95-34" stroke-width="7.8" stroke="#005bbbC1"/><path d="M15-108l-85 54" stroke-width="7.8" stroke="#fff500C2"/><path d="M123-66l24 96" stroke-width="8.0" stroke="#fffC5"/><path d="M105-257l4-94" stroke-width="8.2" stroke="#fffCB"/><path d="M181-113l80 49" stroke-width="8.2" stroke="#fff500CC"/><path d="M131-252l31-89" stroke-width="8.2" stroke="#fffCC"/><path d="M20-114l-81 48" stroke-width="8.2" stroke="#005bbbCD"/><path d="M111-252l10-89" stroke-width="8.4" stroke="#005bbbD2"/><path d="M138-82l38 80" stroke-width="8.5" stroke="#005bbbD3"/><path d="M62-242l-39-80" stroke-width="8.5" stroke="#fff500D4"/><path d="M18-190l-82-27" stroke-width="8.6" stroke="#fffD6"/><path d="M180-191l81-28" stroke-width="8.6" stroke="#005bbbD7"/><path d="M18-151l-82 11" stroke-width="8.7" stroke="#c2e1ffDA"/><path d="M27-199l-74-36" stroke-width="8.7" stroke="#005bbbDB"/><path d="M25-131l-75 31" stroke-width="8.8" stroke="#fff500DC"/><path d="M24-148l-76 15" stroke-width="8.9" stroke="#fffDF"/><path d="M164-120l65 42" stroke-width="8.9" stroke="#c2e1ffE0"/><path d="M171-142l70 21" stroke-width="9.0" stroke="#c2e1ffE3"/><path d="M59-221l-42-59" stroke-width="9.1" stroke="#fff500E4"/><path d="M156-207l56-44" stroke-width="9.1" stroke="#005bbbE4"/><path d="M39-130l-62 32" stroke-width="9.1" stroke="#005bbbE6"/><path d="M159-128l59 34" stroke-width="9.2" stroke="#c2e1ffE7"/><path d="M150-208l50-46" stroke-width="9.2" stroke="#005bbbE8"/><path d="M111-101l10 62" stroke-width="9.3" stroke="#c2e1ffEB"/><path d="M58-195l-42-33" stroke-width="9.5" stroke="#005bbbF1"/><path d="M83-112l-18 50" stroke-width="9.5" stroke="#fff500F1"/><path d="M112-113l12 49" stroke-width="9.6" stroke="#fffF2"/><path d="M91-116l-8 47" stroke-width="9.6" stroke="#c2e1ffF4"/><path d="M60-160l-40 3" stroke-width="9.7" stroke="#fff500F7"/><path d="M128-176l27-13" stroke-width="9.8" stroke="#c2e1ffFA"/><path d="M100-188l0-26" stroke-width="9.9" stroke="#fff500FB"/><path d="M100-142l-1 21" stroke-width="9.9" stroke="#c2e1ffFD"/></g></svg>