<svg width="1200" height="675" viewBox="-500 -500 1200 675" xmlns="http://www.w3.org/2000/svg"><path d="M-500-500h1200v675h-1200z" fill="#000"/><style>.sparkles path{stroke-linecap:round}</style><g class="sparkles"><path d="M118-146l17 16" stroke-width="1.1" stroke="#005bbb2"/><path d="M91-186l-9-24" stroke-width="1.1" stroke="#c2e1ff2"/><path d="M134-160l33 2" stroke-width="1.2" stroke="#005bbb5"/><path d="M136-184l36-21" stroke-width="1.3" stroke="#fff8"/><path d="M133-193l33-30" stroke-width="1.3" stroke="#fff5009"/><path d="M89-207l-10-44" stroke-width="1.3" stroke="#c2e1ff9"/><path d="M55-150l-44 12" stroke-width="1.4" stroke="#005bbbA"/><path d="M118-207l17-45" stroke-width="1.4" stroke="#c2e1ffB"/><path d="M147-171l48-8" stroke-width="1.4" stroke="#005bbbB"/><path d="M70-123l-30 40" stroke-width="1.4" stroke="#c2e1ffB"/><path d="M62-126l-38 36" stroke-width="1.5" stroke="#005bbbD"/><path d="M145-135l45 27" stroke-width="1.5" stroke="#c2e1ffD"/><path d="M72-118l-28 45" stroke-width="1.5" stroke="#005bbbD"/><path d="M122-113l23 49" stroke-width="1.5" stroke="#fff500E"/><path d="M60-118l-40 44" stroke-width="1.6" stroke="#005bbb11"/><path d="M122-106l22 57" stroke-width="1.6" stroke="#c2e1ff12"/><path d="M141-115l40 47" stroke-width="1.7" stroke="#005bbb13"/><path d="M51-209l-49-47" stroke-width="1.8" stroke="#fff17"/><path d="M156-125l57 37" stroke-width="1.8" stroke="#fff50017"/><path d="M110-232l10-69" stroke-width="1.9" stroke="#c2e1ff18"/><path d="M172-169l72-7" stroke-width="1.9" stroke="#005bbb1A"/><path d="M77-233l-22-71" stroke-width="2.0" stroke="#c2e1ff1C"/><path d="M175-163l74 0" stroke-width="2.0" stroke="#c2e1ff1C"/><path d="M119-235l19-72" stroke-width="2.0" stroke="#fff5001C"/><path d="M63-95l-36 68" stroke-width="2.1" stroke="#005bbb1E"/><path d="M124-239l25-76" stroke-width="2.2" stroke="#fff50021"/><path d="M116-83l15 79" stroke-width="2.2" stroke="#c2e1ff22"/><path d="M171-205l70-42" stroke-width="2.3" stroke="#fff24"/><path d="M33-113l-68 50" stroke-width="2.3" stroke="#fff50025"/><path d="M59-88l-42 75" stroke-width="2.4" stroke="#005bbb27"/><path d="M185-168l86-6" stroke-width="2.4" stroke="#c2e1ff27"/><path d="M176-204l76-41" stroke-width="2.4" stroke="#fff28"/><path d="M12-149l-88 14" stroke-width="2.5" stroke="#005bbb2B"/><path d="M28-215l-72-53" stroke-width="2.6" stroke="#005bbb2C"/><path d="M32-102l-69 60" stroke-width="2.6" stroke="#fff5002E"/><path d="M95-254l-4-92" stroke-width="2.7" stroke="#fff5002F"/><path d="M41-234l-58-71" stroke-width="2.7" stroke="#fff2F"/><path d="M18-206l-82-44" stroke-width="2.7" stroke="#fff30"/><path d="M10-135l-90 27" stroke-width="2.8" stroke="#005bbb32"/><path d="M164-232l64-69" stroke-width="2.8" stroke="#c2e1ff32"/><path d="M107-257l7-94" stroke-width="2.8" stroke="#005bbb32"/><path d="M60-252l-41-89" stroke-width="3.0" stroke="#c2e1ff38"/><path d="M67-68l-32 95" stroke-width="3.1" stroke="#fff5003B"/><path d="M142-254l43-91" stroke-width="3.1" stroke="#c2e1ff3C"/><path d="M135-257l36-94" stroke-width="3.2" stroke="#005bbb3D"/><path d="M105-264l5-101" stroke-width="3.2" stroke="#fff5003E"/><path d="M200-146l100 17" stroke-width="3.2" stroke="#fff3E"/><path d="M179-229l78-66" stroke-width="3.3" stroke="#005bbb40"/><path d="M157-248l57-86" stroke-width="3.3" stroke="#fff50041"/><path d="M1-132l-99 30" stroke-width="3.3" stroke="#005bbb42"/><path d="M29-241l-71-79" stroke-width="3.5" stroke="#fff47"/><path d="M12-103l-89 59" stroke-width="3.5" stroke="#fff48"/><path d="M186-98l86 65" stroke-width="3.6" stroke="#c2e1ff4A"/><path d="M197-209l97-46" stroke-width="3.6" stroke="#fff5004A"/><path d="M65-265l-34-102" stroke-width="3.7" stroke="#fff4B"/><path d="M149-65l49 97" stroke-width="3.7" stroke="#fff4D"/><path d="M-3-128l-104 35" stroke-width="3.8" stroke="#c2e1ff4E"/><path d="M159-70l59 92" stroke-width="3.8" stroke="#005bbb4F"/><path d="M102-272l2-110" stroke-width="3.8" stroke="#fff5004F"/><path d="M28-245l-72-83" stroke-width="3.8" stroke="#fff50"/><path d="M210-162l111 0" stroke-width="3.9" stroke="#fff50052"/><path d="M155-259l55-96" stroke-width="3.9" stroke="#c2e1ff53"/><path d="M-8-190l-107-28" stroke-width="4.0" stroke="#c2e1ff54"/><path d="M99-275l0-112" stroke-width="4.1" stroke="#fff58"/><path d="M189-233l89-70" stroke-width="4.3" stroke="#005bbb5C"/><path d="M-8-197l-108-35" stroke-width="4.3" stroke="#fff5C"/><path d="M-2-212l-103-49" stroke-width="4.3" stroke="#fff5C"/><path d="M169-71l69 91" stroke-width="4.4" stroke="#c2e1ff5F"/><path d="M168-255l67-92" stroke-width="4.4" stroke="#c2e1ff5F"/><path d="M141-269l42-107" stroke-width="4.4" stroke="#fff5005F"/><path d="M-11-191l-111-29" stroke-width="4.4" stroke="#c2e1ff61"/><path d="M186-239l86-76" stroke-width="4.5" stroke="#fff50061"/><path d="M119-276l19-114" stroke-width="4.6" stroke="#c2e1ff64"/><path d="M32-69l-69 93" stroke-width="4.6" stroke="#c2e1ff66"/><path d="M178-76l77 87" stroke-width="4.7" stroke="#005bbb68"/><path d="M196-97l95 66" stroke-width="4.7" stroke="#fff50068"/><path d="M9-90l-91 72" stroke-width="4.7" stroke="#fff69"/><path d="M138-273l38-110" stroke-width="4.8" stroke="#fff5006B"/><path d="M20-248l-80-85" stroke-width="4.9" stroke="#fff5006D"/><path d="M9-237l-90-74" stroke-width="4.9" stroke="#c2e1ff6D"/><path d="M0-223l-101-61" stroke-width="5.0" stroke="#fff50070"/><path d="M120-278l20-116" stroke-width="5.1" stroke="#fff73"/><path d="M29-256l-71-94" stroke-width="5.1" stroke="#c2e1ff75"/><path d="M47-268l-53-105" stroke-width="5.1" stroke="#fff50075"/><path d="M-13-128l-112 35" stroke-width="5.2" stroke="#fff50076"/><path d="M120-46l19 116" stroke-width="5.2" stroke="#c2e1ff77"/><path d="M28-69l-71 94" stroke-width="5.3" stroke="#005bbb78"/><path d="M133-49l34 113" stroke-width="5.3" stroke="#fff50079"/><path d="M30-257l-71-95" stroke-width="5.3" stroke="#fff79"/><path d="M149-55l49 107" stroke-width="5.3" stroke="#fff7A"/><path d="M203-104l102 58" stroke-width="5.3" stroke="#fff7A"/><path d="M212-125l112 37" stroke-width="5.4" stroke="#fff5007C"/><path d="M209-208l109-45" stroke-width="5.4" stroke="#005bbb7D"/><path d="M62-274l-38-112" stroke-width="5.5" stroke="#005bbb7E"/><path d="M6-91l-94 72" stroke-width="5.5" stroke="#fff7F"/><path d="M209-118l110 45" stroke-width="5.7" stroke="#005bbb85"/><path d="M41-60l-59 102" stroke-width="5.8" stroke="#005bbb88"/><path d="M196-94l96 68" stroke-width="5.8" stroke="#005bbb89"/><path d="M2-227l-98-64" stroke-width="6.0" stroke="#c2e1ff8D"/><path d="M187-241l88-78" stroke-width="6.0" stroke="#fff8E"/><path d="M202-219l103-57" stroke-width="6.1" stroke="#005bbb91"/><path d="M90-278l-10-116" stroke-width="6.3" stroke="#fff50096"/><path d="M37-260l-64-97" stroke-width="6.3" stroke="#fff50096"/><path d="M216-154l116 8" stroke-width="6.3" stroke="#fff97"/><path d="M216-159l115 3" stroke-width="6.4" stroke="#fff50098"/><path d="M130-51l31 111" stroke-width="6.4" stroke="#fff5009A"/><path d="M-4-212l-105-49" stroke-width="6.5" stroke="#c2e1ff9B"/><path d="M74-51l-26 112" stroke-width="6.6" stroke="#fff5009D"/><path d="M214-158l115 4" stroke-width="6.6" stroke="#fff5009E"/><path d="M-13-182l-113-20" stroke-width="6.6" stroke="#fff5009E"/><path d="M204-208l105-46" stroke-width="6.7" stroke="#fffA1"/><path d="M-3-207l-104-44" stroke-width="6.9" stroke="#c2e1ffA6"/><path d="M-7-129l-106 34" stroke-width="7.0" stroke="#c2e1ffA8"/><path d="M82-53l-18 110" stroke-width="7.0" stroke="#c2e1ffA9"/><path d="M80-54l-21 109" stroke-width="7.1" stroke="#fffAC"/><path d="M35-251l-64-88" stroke-width="7.2" stroke="#fffAF"/><path d="M159-254l59-91" stroke-width="7.2" stroke="#c2e1ffB0"/><path d="M-6-137l-106 25" stroke-width="7.3" stroke="#fffB1"/><path d="M67-59l-32 103" stroke-width="7.3" stroke="#c2e1ffB1"/><path d="M-2-197l-103-34" stroke-width="7.3" stroke="#fff500B3"/><path d="M125-58l26 105" stroke-width="7.3" stroke="#fff500B3"/><path d="M207-173l107-10" stroke-width="7.4" stroke="#fff500B4"/><path d="M162-75l62 88" stroke-width="7.4" stroke="#fffB4"/><path d="M28-241l-72-78" stroke-width="7.5" stroke="#fffB6"/><path d="M135-62l35 100" stroke-width="7.5" stroke="#005bbbB7"/><path d="M164-247l64-85" stroke-width="7.5" stroke="#c2e1ffB7"/><path d="M-3-188l-103-25" stroke-width="7.5" stroke="#fff500B7"/><path d="M4-207l-95-44" stroke-width="7.5" stroke="#c2e1ffB9"/><path d="M5-207l-95-45" stroke-width="7.6" stroke="#fff500BA"/><path d="M1-129l-100 33" stroke-width="7.6" stroke="#fff500BA"/><path d="M1-193l-100-30" stroke-width="7.6" stroke="#005bbbBC"/><path d="M70-261l-31-99" stroke-width="7.7" stroke="#005bbbBC"/><path d="M47-251l-53-88" stroke-width="7.7" stroke="#005bbbBD"/><path d="M96-263l-4-101" stroke-width="7.8" stroke="#fffC1"/><path d="M71-67l-30 95" stroke-width="7.9" stroke="#005bbbC3"/><path d="M198-181l98-18" stroke-width="7.9" stroke="#fff500C4"/><path d="M3-140l-97 22" stroke-width="7.9" stroke="#005bbbC4"/><path d="M134-256l33-93" stroke-width="7.9" stroke="#fffC4"/><path d="M199-161l99 1" stroke-width="7.9" stroke="#005bbbC4"/><path d="M18-110l-82 52" stroke-width="8.1" stroke="#fffC8"/><path d="M196-156l95 7" stroke-width="8.1" stroke="#fff500C9"/><path d="M183-211l82-49" stroke-width="8.1" stroke="#005bbbCA"/><path d="M57-77l-43 85" stroke-width="8.1" stroke="#fffCA"/><path d="M134-251l33-88" stroke-width="8.2" stroke="#005bbbCB"/><path d="M95-257l-4-94" stroke-width="8.2" stroke="#c2e1ffCC"/><path d="M8-164l-93-2" stroke-width="8.3" stroke="#fff500CE"/><path d="M48-87l-53 75" stroke-width="8.3" stroke="#fff500CF"/><path d="M50-239l-50-76" stroke-width="8.4" stroke="#fffD0"/><path d="M112-73l11 90" stroke-width="8.4" stroke="#fff500D1"/><path d="M147-240l48-77" stroke-width="8.4" stroke="#c2e1ffD1"/><path d="M95-252l-5-90" stroke-width="8.4" stroke="#c2e1ffD2"/><path d="M32-105l-68 57" stroke-width="8.5" stroke="#c2e1ffD3"/><path d="M36-103l-65 60" stroke-width="8.5" stroke="#fff500D4"/><path d="M183-191l83-28" stroke-width="8.5" stroke="#fffD5"/><path d="M21-126l-78 36" stroke-width="8.6" stroke="#fff500D6"/><path d="M38-218l-62-56" stroke-width="8.7" stroke="#fff500DA"/><path d="M181-144l81 18" stroke-width="8.7" stroke="#fffDA"/><path d="M167-211l66-48" stroke-width="8.7" stroke="#005bbbDA"/><path d="M138-90l38 73" stroke-width="8.7" stroke="#005bbbDB"/><path d="M48-223l-51-60" stroke-width="8.8" stroke="#c2e1ffDD"/><path d="M80-86l-20 77" stroke-width="8.8" stroke="#fffDE"/><path d="M75-97l-26 65" stroke-width="9.1" stroke="#005bbbE6"/><path d="M152-118l52 45" stroke-width="9.2" stroke="#c2e1ffE7"/><path d="M44-201l-57-39" stroke-width="9.2" stroke="#c2e1ffE7"/><path d="M161-191l61-29" stroke-width="9.2" stroke="#fff500E8"/><path d="M39-191l-60-28" stroke-width="9.2" stroke="#fffE8"/><path d="M91-225l-9-63" stroke-width="9.3" stroke="#fffEA"/><path d="M72-106l-28 56" stroke-width="9.3" stroke="#c2e1ffEB"/><path d="M82-112l-19 50" stroke-width="9.5" stroke="#fff500F1"/><path d="M74-118l-27 45" stroke-width="9.5" stroke="#005bbbF2"/><path d="M72-122l-27 40" stroke-width="9.6" stroke="#fffF3"/><path d="M111-120l12 42" stroke-width="9.7" stroke="#fffF6"/><path d="M142-152l42 10" stroke-width="9.7" stroke="#c2e1ffF6"/><path d="M123-189l24-27" stroke-width="9.8" stroke="#c2e1ffF9"/><path d="M93-132l-7 30" stroke-width="9.8" stroke="#fff500FA"/><path d="M90-137l-10 26" stroke-width="9.9" stroke="#c2e1ffFB"/><path d="M88-139l-12 24" stroke-width="9.9" stroke="#005bbbFB"/><path d="M80-153l-20 9" stroke-width="9.9" stroke="#fffFC"/><path d="M89-180l-11-18" stroke-width="9.9" stroke="#005bbbFC"/><path d="M88-168l-11-6" stroke-width="10.0" stroke="#005bbbFE"/><path d="M97-171l-3-9" stroke-width="10.0" stroke="#fffFE"/></g></svg>