<svg width="1200" height="675" viewBox="-500 -500 1200 675" xmlns="http://www.w3.org/2000/svg"><path d="M-500-500h1200v675h-1200z" fill="#000"/><style>.sparkles path{stroke-linecap:round}</style><g class="sparkles"><path d="M88-168l-13-5" stroke-width="1.0" stroke="#c2e1ff0"/><path d="M86-169l-14-6" stroke-width="1.0" stroke="#c2e1ff1"/><path d="M67-170l-34-8" stroke-width="1.2" stroke="#c2e1ff5"/><path d="M130-145l30 17" stroke-width="1.2" stroke="#c2e1ff5"/><path d="M128-185l29-23" stroke-width="1.2" stroke="#c2e1ff6"/><path d="M64-175l-35-13" stroke-width="1.2" stroke="#fff6"/><path d="M120-129l20 33" stroke-width="1.2" stroke="#fff5006"/><path d="M131-139l30 24" stroke-width="1.2" stroke="#fff7"/><path d="M110-119l9 43" stroke-width="1.3" stroke="#005bbb9"/><path d="M137-126l38 37" stroke-width="1.5" stroke="#005bbbD"/><path d="M63-119l-38 43" stroke-width="1.6" stroke="#005bbbF"/><path d="M133-114l34 49" stroke-width="1.6" stroke="#fff50011"/><path d="M55-201l-45-38" stroke-width="1.6" stroke="#005bbb11"/><path d="M70-109l-30 54" stroke-width="1.7" stroke="#005bbb12"/><path d="M88-100l-12 62" stroke-width="1.7" stroke="#fff50013"/><path d="M91-227l-9-64" stroke-width="1.7" stroke="#fff14"/><path d="M149-206l49-44" stroke-width="1.8" stroke="#c2e1ff15"/><path d="M164-145l64 17" stroke-width="1.8" stroke="#c2e1ff16"/><path d="M166-139l66 23" stroke-width="1.9" stroke="#c2e1ff18"/><path d="M170-145l70 18" stroke-width="1.9" stroke="#c2e1ff1A"/><path d="M166-132l66 30" stroke-width="2.0" stroke="#005bbb1A"/><path d="M55-104l-45 58" stroke-width="2.0" stroke="#fff5001B"/><path d="M75-90l-24 72" stroke-width="2.1" stroke="#c2e1ff1E"/><path d="M26-137l-74 25" stroke-width="2.1" stroke="#c2e1ff1F"/><path d="M21-157l-79 5" stroke-width="2.2" stroke="#c2e1ff21"/><path d="M90-81l-9 81" stroke-width="2.3" stroke="#005bbb23"/><path d="M174-200l74-38" stroke-width="2.3" stroke="#c2e1ff24"/><path d="M16-169l-84-7" stroke-width="2.3" stroke="#fff26"/><path d="M178-130l78 33" stroke-width="2.4" stroke="#fff26"/><path d="M182-186l81-24" stroke-width="2.4" stroke="#fff27"/><path d="M93-73l-7 89" stroke-width="2.6" stroke="#c2e1ff2C"/><path d="M63-247l-37-85" stroke-width="2.7" stroke="#fff2F"/><path d="M114-254l15-91" stroke-width="2.7" stroke="#005bbb30"/><path d="M7-154l-93 8" stroke-width="2.7" stroke="#fff50031"/><path d="M82-255l-18-92" stroke-width="2.8" stroke="#c2e1ff32"/><path d="M195-162l94 0" stroke-width="2.8" stroke="#fff50033"/><path d="M14-123l-86 40" stroke-width="2.8" stroke="#fff50033"/><path d="M28-228l-72-65" stroke-width="2.9" stroke="#fff37"/><path d="M149-248l50-85" stroke-width="3.0" stroke="#c2e1ff39"/><path d="M27-95l-72 68" stroke-width="3.1" stroke="#fff5003A"/><path d="M67-257l-32-95" stroke-width="3.1" stroke="#c2e1ff3B"/><path d="M25-229l-75-67" stroke-width="3.1" stroke="#005bbb3C"/><path d="M139-255l39-93" stroke-width="3.2" stroke="#c2e1ff3D"/><path d="M200-146l101 17" stroke-width="3.2" stroke="#005bbb3E"/><path d="M69-65l-30 97" stroke-width="3.2" stroke="#005bbb3F"/><path d="M125-62l25 100" stroke-width="3.3" stroke="#005bbb41"/><path d="M15-222l-84-59" stroke-width="3.3" stroke="#005bbb41"/><path d="M135-65l36 97" stroke-width="3.3" stroke="#fff41"/><path d="M198-127l97 36" stroke-width="3.4" stroke="#fff42"/><path d="M120-59l19 103" stroke-width="3.4" stroke="#fff45"/><path d="M171-241l70-79" stroke-width="3.5" stroke="#fff47"/><path d="M29-84l-72 78" stroke-width="3.5" stroke="#005bbb47"/><path d="M10-105l-89 57" stroke-width="3.5" stroke="#fff50047"/><path d="M98-56l-1 106" stroke-width="3.5" stroke="#c2e1ff48"/><path d="M170-81l71 82" stroke-width="3.7" stroke="#c2e1ff4B"/><path d="M17-94l-84 69" stroke-width="3.7" stroke="#fff5004B"/><path d="M-7-187l-106-24" stroke-width="3.8" stroke="#c2e1ff4F"/><path d="M206-129l105 33" stroke-width="3.9" stroke="#fff52"/><path d="M175-245l76-82" stroke-width="4.0" stroke="#fff55"/><path d="M8-99l-92 64" stroke-width="4.1" stroke="#c2e1ff56"/><path d="M166-254l66-91" stroke-width="4.2" stroke="#c2e1ff59"/><path d="M86-275l-14-112" stroke-width="4.2" stroke="#c2e1ff5A"/><path d="M23-79l-77 83" stroke-width="4.2" stroke="#fff5B"/><path d="M-2-113l-102 50" stroke-width="4.3" stroke="#fff5C"/><path d="M166-70l66 93" stroke-width="4.3" stroke="#fff5C"/><path d="M196-224l96-62" stroke-width="4.3" stroke="#fff5D"/><path d="M9-232l-90-70" stroke-width="4.4" stroke="#fff5005F"/><path d="M170-254l70-92" stroke-width="4.5" stroke="#c2e1ff64"/><path d="M191-89l90 73" stroke-width="4.8" stroke="#c2e1ff6A"/><path d="M-5-111l-105 51" stroke-width="4.9" stroke="#fff5006D"/><path d="M121-47l21 115" stroke-width="4.9" stroke="#fff5006F"/><path d="M129-49l29 113" stroke-width="4.9" stroke="#fff5006F"/><path d="M-15-140l-116 23" stroke-width="5.1" stroke="#c2e1ff73"/><path d="M17-246l-83-83" stroke-width="5.1" stroke="#005bbb73"/><path d="M145-271l45-109" stroke-width="5.1" stroke="#fff74"/><path d="M97-45l-2 118" stroke-width="5.2" stroke="#c2e1ff75"/><path d="M82-279l-18-117" stroke-width="5.2" stroke="#c2e1ff78"/><path d="M99-280l0-118" stroke-width="5.2" stroke="#fff50078"/><path d="M139-274l38-112" stroke-width="5.3" stroke="#c2e1ff7A"/><path d="M29-68l-70 95" stroke-width="5.4" stroke="#005bbb7B"/><path d="M-18-153l-118 9" stroke-width="5.5" stroke="#fff5007E"/><path d="M6-91l-94 72" stroke-width="5.5" stroke="#fff7E"/><path d="M207-111l106 51" stroke-width="5.5" stroke="#fff5007E"/><path d="M153-57l53 106" stroke-width="5.5" stroke="#005bbb7E"/><path d="M187-243l87-80" stroke-width="5.5" stroke="#c2e1ff7E"/><path d="M140-274l39-111" stroke-width="5.5" stroke="#c2e1ff7F"/><path d="M186-82l86 81" stroke-width="5.5" stroke="#fff50080"/><path d="M64-50l-36 112" stroke-width="5.6" stroke="#005bbb81"/><path d="M188-84l89 78" stroke-width="5.6" stroke="#fff81"/><path d="M7-89l-92 73" stroke-width="5.6" stroke="#fff50082"/><path d="M145-272l44-109" stroke-width="5.6" stroke="#fff50082"/><path d="M33-65l-67 97" stroke-width="5.6" stroke="#005bbb82"/><path d="M212-124l111 38" stroke-width="5.6" stroke="#fff50083"/><path d="M191-237l91-75" stroke-width="5.7" stroke="#c2e1ff84"/><path d="M195-93l96 70" stroke-width="5.7" stroke="#fff50085"/><path d="M211-202l111-39" stroke-width="5.8" stroke="#005bbb88"/><path d="M98-45l-2 118" stroke-width="5.8" stroke="#c2e1ff88"/><path d="M85-46l-15 117" stroke-width="5.9" stroke="#fff5008B"/><path d="M48-57l-51 106" stroke-width="6.0" stroke="#fff5008C"/><path d="M10-87l-91 75" stroke-width="6.0" stroke="#005bbb8D"/><path d="M-16-176l-117-13" stroke-width="6.1" stroke="#c2e1ff90"/><path d="M143-272l42-109" stroke-width="6.1" stroke="#c2e1ff90"/><path d="M177-251l76-88" stroke-width="6.1" stroke="#005bbb90"/><path d="M-9-204l-110-42" stroke-width="6.1" stroke="#005bbb90"/><path d="M-14-137l-114 25" stroke-width="6.2" stroke="#005bbb92"/><path d="M48-266l-52-104" stroke-width="6.3" stroke="#005bbb97"/><path d="M18-80l-82 82" stroke-width="6.3" stroke="#005bbb97"/><path d="M208-120l107 43" stroke-width="6.4" stroke="#005bbb98"/><path d="M152-266l52-103" stroke-width="6.4" stroke="#fff50099"/><path d="M156-263l57-101" stroke-width="6.4" stroke="#005bbb99"/><path d="M-4-112l-103 50" stroke-width="6.5" stroke="#fff5009C"/><path d="M177-79l77 84" stroke-width="6.7" stroke="#fff500A0"/><path d="M-9-130l-109 33" stroke-width="6.7" stroke="#fffA1"/><path d="M120-51l20 112" stroke-width="6.7" stroke="#fffA2"/><path d="M159-67l59 95" stroke-width="6.9" stroke="#005bbbA7"/><path d="M65-56l-35 106" stroke-width="6.9" stroke="#fff500A7"/><path d="M29-76l-70 86" stroke-width="7.0" stroke="#fff500A9"/><path d="M165-74l66 89" stroke-width="7.1" stroke="#c2e1ffAD"/><path d="M184-93l84 69" stroke-width="7.2" stroke="#005bbbB0"/><path d="M54-64l-46 98" stroke-width="7.3" stroke="#005bbbB2"/><path d="M1-206l-99-43" stroke-width="7.3" stroke="#005bbbB3"/><path d="M59-63l-42 100" stroke-width="7.3" stroke="#005bbbB3"/><path d="M-2-131l-103 31" stroke-width="7.4" stroke="#005bbbB5"/><path d="M152-256l52-93" stroke-width="7.4" stroke="#fffB6"/><path d="M165-79l66 84" stroke-width="7.5" stroke="#fffB7"/><path d="M154-254l55-91" stroke-width="7.5" stroke="#fff500B7"/><path d="M205-166l104-3" stroke-width="7.6" stroke="#fff500BA"/><path d="M148-70l47 93" stroke-width="7.6" stroke="#c2e1ffBB"/><path d="M139-259l40-97" stroke-width="7.6" stroke="#c2e1ffBB"/><path d="M199-195l98-32" stroke-width="7.7" stroke="#c2e1ffBC"/><path d="M38-244l-62-82" stroke-width="7.7" stroke="#c2e1ffBE"/><path d="M56-254l-44-92" stroke-width="7.8" stroke="#005bbbC0"/><path d="M83-63l-17 100" stroke-width="7.8" stroke="#fff500C1"/><path d="M186-109l85 54" stroke-width="7.8" stroke="#005bbbC1"/><path d="M180-101l79 62" stroke-width="7.8" stroke="#c2e1ffC2"/><path d="M197-188l96-25" stroke-width="7.9" stroke="#c2e1ffC3"/><path d="M35-86l-64 76" stroke-width="7.9" stroke="#c2e1ffC3"/><path d="M99-63l0 99" stroke-width="7.9" stroke="#005bbbC4"/><path d="M165-88l65 75" stroke-width="8.0" stroke="#c2e1ffC5"/><path d="M48-246l-51-83" stroke-width="8.0" stroke="#fff500C6"/><path d="M69-254l-31-92" stroke-width="8.1" stroke="#c2e1ffC8"/><path d="M15-206l-84-44" stroke-width="8.2" stroke="#005bbbCA"/><path d="M11-190l-90-27" stroke-width="8.3" stroke="#fffCD"/><path d="M189-190l90-27" stroke-width="8.3" stroke="#fffCD"/><path d="M138-246l38-84" stroke-width="8.3" stroke="#c2e1ffCF"/><path d="M68-77l-32 86" stroke-width="8.3" stroke="#c2e1ffCF"/><path d="M12-143l-89 19" stroke-width="8.4" stroke="#fffD1"/><path d="M133-243l32-81" stroke-width="8.5" stroke="#fff500D5"/><path d="M81-247l-19-84" stroke-width="8.6" stroke="#c2e1ffD6"/><path d="M144-91l44 72" stroke-width="8.7" stroke="#fff500D8"/><path d="M18-144l-82 19" stroke-width="8.7" stroke="#fff500D8"/><path d="M49-227l-50-65" stroke-width="8.7" stroke="#005bbbDB"/><path d="M152-104l52 58" stroke-width="8.9" stroke="#fff500DF"/><path d="M156-216l56-54" stroke-width="8.9" stroke="#fff500DF"/><path d="M173-167l74-4" stroke-width="9.0" stroke="#fffE3"/><path d="M63-101l-37 62" stroke-width="9.1" stroke="#c2e1ffE4"/><path d="M118-229l18-66" stroke-width="9.2" stroke="#fff500E7"/><path d="M64-107l-36 56" stroke-width="9.2" stroke="#fffE9"/><path d="M76-102l-25 61" stroke-width="9.2" stroke="#005bbbE9"/><path d="M35-155l-65 7" stroke-width="9.3" stroke="#c2e1ffE9"/><path d="M90-226l-10-64" stroke-width="9.3" stroke="#005bbbEA"/><path d="M138-214l38-51" stroke-width="9.3" stroke="#005bbbEA"/><path d="M90-224l-10-62" stroke-width="9.3" stroke="#c2e1ffEB"/><path d="M114-223l14-60" stroke-width="9.3" stroke="#fff500EC"/><path d="M113-222l13-59" stroke-width="9.4" stroke="#005bbbEC"/><path d="M160-153l60 10" stroke-width="9.4" stroke="#005bbbEC"/><path d="M59-205l-41-43" stroke-width="9.4" stroke="#c2e1ffED"/><path d="M144-123l45 39" stroke-width="9.4" stroke="#fffED"/><path d="M78-110l-22 53" stroke-width="9.4" stroke="#fff500EF"/><path d="M92-108l-8 55" stroke-width="9.5" stroke="#fffF0"/><path d="M96-108l-4 54" stroke-width="9.5" stroke="#fffF0"/><path d="M99-108l-1 54" stroke-width="9.5" stroke="#c2e1ffF0"/><path d="M120-112l20 50" stroke-width="9.5" stroke="#fff500F0"/><path d="M141-178l42-16" stroke-width="9.7" stroke="#fff500F5"/><path d="M59-148l-41 14" stroke-width="9.7" stroke="#c2e1ffF5"/><path d="M72-195l-28-33" stroke-width="9.7" stroke="#005bbbF6"/><path d="M138-152l38 10" stroke-width="9.7" stroke="#fffF7"/><path d="M72-141l-27 21" stroke-width="9.8" stroke="#c2e1ffF9"/><path d="M127-164l28-2" stroke-width="9.9" stroke="#005bbbFB"/><path d="M81-174l-19-11" stroke-width="9.9" stroke="#005bbbFC"/><path d="M84-156l-16 6" stroke-width="10.0" stroke="#fff500FD"/></g></svg>