<svg width="1200" height="675" viewBox="-500 -500 1200 675" xmlns="http://www.w3.org/2000/svg"><path d="M-500-500h1200v675h-1200z" fill="#000"/><style>.sparkles path{stroke-linecap:round}</style><g class="sparkles"><path d="M111-175l12-13" stroke-width="1.0" stroke="#0008141"/><path d="M112-181l12-18" stroke-width="1.1" stroke="#0008142"/><path d="M77-172l-24-10" stroke-width="1.1" stroke="#ffd60a2"/><path d="M78-190l-22-27" stroke-width="1.2" stroke="#ffd60a5"/><path d="M132-141l33 21" stroke-width="1.2" stroke="#ffc3007"/><path d="M111-202l12-39" stroke-width="1.3" stroke="#001d3d7"/><path d="M93-121l-7 42" stroke-width="1.3" stroke="#ffd60a8"/><path d="M135-134l35 29" stroke-width="1.3" stroke="#0008149"/><path d="M70-124l-29 38" stroke-width="1.4" stroke="#ffd60aB"/><path d="M149-166l49-3" stroke-width="1.4" stroke="#001d3dB"/><path d="M58-125l-42 38" stroke-width="1.5" stroke="#003566F"/><path d="M56-198l-43-36" stroke-width="1.5" stroke="#ffc300F"/><path d="M158-159l57 3" stroke-width="1.6" stroke="#001d3d10"/><path d="M58-121l-41 41" stroke-width="1.6" stroke="#001d3d10"/><path d="M150-200l50-37" stroke-width="1.7" stroke="#ffd60a13"/><path d="M157-189l56-26" stroke-width="1.7" stroke="#00081413"/><path d="M62-216l-39-53" stroke-width="1.8" stroke="#00081415"/><path d="M99-231l-1-68" stroke-width="1.8" stroke="#ffc30017"/><path d="M31-155l-68 7" stroke-width="1.8" stroke="#ffc30017"/><path d="M30-158l-69 4" stroke-width="1.9" stroke="#ffc30018"/><path d="M52-110l-49 52" stroke-width="1.9" stroke="#ffc30019"/><path d="M58-221l-42-59" stroke-width="1.9" stroke="#0008141A"/><path d="M114-234l14-72" stroke-width="2.0" stroke="#0008141B"/><path d="M143-103l42 59" stroke-width="2.0" stroke="#0008141B"/><path d="M41-208l-58-45" stroke-width="2.0" stroke="#0008141C"/><path d="M109-237l9-75" stroke-width="2.0" stroke="#001d3d1D"/><path d="M26-138l-73 24" stroke-width="2.1" stroke="#ffc3001F"/><path d="M168-200l68-38" stroke-width="2.1" stroke="#ffc3001F"/><path d="M88-85l-12 78" stroke-width="2.1" stroke="#ffd60a20"/><path d="M166-119l66 44" stroke-width="2.2" stroke="#001d3d20"/><path d="M179-151l78 11" stroke-width="2.2" stroke="#00081421"/><path d="M119-82l19 80" stroke-width="2.3" stroke="#ffc30024"/><path d="M35-214l-65-51" stroke-width="2.3" stroke="#001d3d24"/><path d="M108-79l8 83" stroke-width="2.3" stroke="#ffc30025"/><path d="M113-246l12-84" stroke-width="2.4" stroke="#00081426"/><path d="M14-171l-85-8" stroke-width="2.4" stroke="#ffc30028"/><path d="M112-250l12-87" stroke-width="2.5" stroke="#001d3d2A"/><path d="M13-142l-87 21" stroke-width="2.6" stroke="#ffd60a2C"/><path d="M180-121l81 41" stroke-width="2.6" stroke="#0035662D"/><path d="M72-250l-27-88" stroke-width="2.7" stroke="#0008142F"/><path d="M63-77l-37 86" stroke-width="2.8" stroke="#ffd60a31"/><path d="M195-158l95 4" stroke-width="2.8" stroke="#ffd60a33"/><path d="M22-217l-78-55" stroke-width="2.8" stroke="#00081434"/><path d="M51-80l-49 82" stroke-width="2.9" stroke="#ffc30035"/><path d="M124-69l25 94" stroke-width="2.9" stroke="#00081436"/><path d="M8-193l-92-31" stroke-width="2.9" stroke="#001d3d36"/><path d="M163-238l62-75" stroke-width="3.0" stroke="#ffc30038"/><path d="M171-95l72 68" stroke-width="3.0" stroke="#001d3d39"/><path d="M80-66l-20 97" stroke-width="3.0" stroke="#ffd60a39"/><path d="M177-100l76 63" stroke-width="3.1" stroke="#001d3d3A"/><path d="M192-123l91 39" stroke-width="3.1" stroke="#ffd60a3A"/><path d="M35-240l-64-78" stroke-width="3.2" stroke="#ffc3003D"/><path d="M168-237l68-75" stroke-width="3.2" stroke="#ffc3003D"/><path d="M-2-161l-102 2" stroke-width="3.2" stroke="#001d3d3F"/><path d="M42-77l-58 85" stroke-width="3.3" stroke="#ffd60a41"/><path d="M121-60l21 102" stroke-width="3.4" stroke="#ffc30043"/><path d="M182-228l82-65" stroke-width="3.4" stroke="#00081445"/><path d="M46-254l-55-91" stroke-width="3.5" stroke="#ffc30047"/><path d="M7-213l-94-51" stroke-width="3.5" stroke="#00081447"/><path d="M6-110l-94 52" stroke-width="3.6" stroke="#0035664A"/><path d="M140-264l41-101" stroke-width="3.8" stroke="#0008144E"/><path d="M35-74l-65 88" stroke-width="3.8" stroke="#0008144F"/><path d="M56-264l-44-101" stroke-width="3.9" stroke="#ffc30051"/><path d="M19-88l-81 75" stroke-width="3.9" stroke="#ffc30052"/><path d="M81-53l-19 110" stroke-width="4.0" stroke="#ffc30055"/><path d="M113-274l13-111" stroke-width="4.1" stroke="#ffc30056"/><path d="M-4-122l-105 40" stroke-width="4.1" stroke="#ffd60a56"/><path d="M104-50l4 112" stroke-width="4.1" stroke="#00081457"/><path d="M182-86l83 76" stroke-width="4.1" stroke="#00356657"/><path d="M39-68l-62 95" stroke-width="4.2" stroke="#ffc30059"/><path d="M213-166l114-4" stroke-width="4.2" stroke="#0008145B"/><path d="M191-94l91 69" stroke-width="4.3" stroke="#ffc3005D"/><path d="M95-277l-5-114" stroke-width="4.4" stroke="#001d3d60"/><path d="M154-61l54 101" stroke-width="4.4" stroke="#ffc30060"/><path d="M22-247l-78-84" stroke-width="4.4" stroke="#001d3d61"/><path d="M24-76l-76 86" stroke-width="4.4" stroke="#ffd60a61"/><path d="M131-52l31 111" stroke-width="4.5" stroke="#ffc30061"/><path d="M208-122l108 40" stroke-width="4.5" stroke="#00081462"/><path d="M199-221l100-59" stroke-width="4.5" stroke="#00081464"/><path d="M146-56l45 106" stroke-width="4.6" stroke="#00356664"/><path d="M215-142l114 20" stroke-width="4.7" stroke="#ffd60a6A"/><path d="M64-51l-36 111" stroke-width="4.8" stroke="#0008146C"/><path d="M207-209l107-47" stroke-width="4.9" stroke="#001d3d6D"/><path d="M-4-217l-103-54" stroke-width="4.9" stroke="#0008146E"/><path d="M217-174l116-12" stroke-width="4.9" stroke="#001d3d6E"/><path d="M85-279l-14-116" stroke-width="4.9" stroke="#0035666E"/><path d="M15-244l-85-81" stroke-width="5.1" stroke="#00356673"/><path d="M202-222l102-59" stroke-width="5.1" stroke="#ffd60a74"/><path d="M218-160l118 2" stroke-width="5.2" stroke="#00081475"/><path d="M210-205l110-43" stroke-width="5.3" stroke="#00356678"/><path d="M54-54l-45 109" stroke-width="5.3" stroke="#001d3d78"/><path d="M-18-159l-118 3" stroke-width="5.3" stroke="#ffd60a79"/><path d="M216-143l117 19" stroke-width="5.3" stroke="#00356679"/><path d="M142-273l42-110" stroke-width="5.4" stroke="#001d3d7C"/><path d="M194-234l94-72" stroke-width="5.5" stroke="#00356680"/><path d="M214-194l114-31" stroke-width="5.5" stroke="#00081480"/><path d="M142-52l42 110" stroke-width="5.6" stroke="#00081481"/><path d="M215-187l116-25" stroke-width="5.6" stroke="#ffc30083"/><path d="M24-72l-77 90" stroke-width="5.6" stroke="#00081483"/><path d="M90-45l-10 118" stroke-width="5.7" stroke="#ffc30083"/><path d="M24-253l-76-90" stroke-width="5.8" stroke="#001d3d87"/><path d="M-4-107l-104 55" stroke-width="5.8" stroke="#ffc30088"/><path d="M-12-199l-112-36" stroke-width="5.8" stroke="#00081488"/><path d="M13-83l-87 79" stroke-width="5.9" stroke="#0035668A"/><path d="M-11-199l-112-37" stroke-width="6.0" stroke="#0035668E"/><path d="M190-238l90-75" stroke-width="6.1" stroke="#0008148F"/><path d="M-13-132l-113 30" stroke-width="6.1" stroke="#0008148F"/><path d="M177-251l76-88" stroke-width="6.1" stroke="#ffc30091"/><path d="M9-236l-91-73" stroke-width="6.2" stroke="#001d3d93"/><path d="M-7-116l-107 47" stroke-width="6.2" stroke="#ffc30094"/><path d="M203-214l103-52" stroke-width="6.4" stroke="#0035669A"/><path d="M75-50l-26 113" stroke-width="6.4" stroke="#0035669A"/><path d="M23-249l-77-86" stroke-width="6.5" stroke="#ffc3009A"/><path d="M185-240l86-77" stroke-width="6.5" stroke="#001d3d9B"/><path d="M37-67l-63 96" stroke-width="6.6" stroke="#001d3d9D"/><path d="M13-236l-88-73" stroke-width="6.7" stroke="#000814A1"/><path d="M91-276l-9-113" stroke-width="6.7" stroke="#000814A1"/><path d="M153-263l53-100" stroke-width="6.8" stroke="#000814A3"/><path d="M160-66l59 96" stroke-width="6.8" stroke="#ffd60aA3"/><path d="M14-236l-87-73" stroke-width="6.8" stroke="#ffd60aA3"/><path d="M141-268l40-106" stroke-width="6.8" stroke="#000814A4"/><path d="M117-274l17-111" stroke-width="6.9" stroke="#000814A6"/><path d="M45-260l-55-98" stroke-width="6.9" stroke="#001d3dA7"/><path d="M13-233l-87-70" stroke-width="6.9" stroke="#ffc300A8"/><path d="M135-268l35-105" stroke-width="7.1" stroke="#001d3dAB"/><path d="M51-65l-49 98" stroke-width="7.2" stroke="#001d3dAF"/><path d="M144-63l44 100" stroke-width="7.2" stroke="#000814AF"/><path d="M176-241l75-79" stroke-width="7.2" stroke="#ffc300AF"/><path d="M156-256l56-94" stroke-width="7.2" stroke="#003566B0"/><path d="M51-65l-49 97" stroke-width="7.3" stroke="#ffd60aB1"/><path d="M185-230l85-68" stroke-width="7.3" stroke="#ffd60aB1"/><path d="M209-162l108 0" stroke-width="7.3" stroke="#001d3dB1"/><path d="M-7-145l-107 18" stroke-width="7.3" stroke="#ffd60aB2"/><path d="M35-76l-65 86" stroke-width="7.3" stroke="#000814B3"/><path d="M175-86l75 77" stroke-width="7.4" stroke="#ffc300B5"/><path d="M155-254l54-91" stroke-width="7.5" stroke="#000814B6"/><path d="M156-253l56-90" stroke-width="7.5" stroke="#000814B7"/><path d="M205-175l105-12" stroke-width="7.5" stroke="#ffd60aB8"/><path d="M130-263l30-100" stroke-width="7.6" stroke="#ffd60aBA"/><path d="M123-61l23 102" stroke-width="7.6" stroke="#003566BB"/><path d="M194-207l94-44" stroke-width="7.6" stroke="#ffc300BB"/><path d="M202-176l102-14" stroke-width="7.7" stroke="#003566BD"/><path d="M144-255l44-93" stroke-width="7.7" stroke="#000814BE"/><path d="M179-226l79-64" stroke-width="7.8" stroke="#001d3dC1"/><path d="M56-253l-45-91" stroke-width="7.8" stroke="#003566C1"/><path d="M196-131l96 31" stroke-width="7.8" stroke="#ffd60aC1"/><path d="M165-238l66-76" stroke-width="7.9" stroke="#ffc300C3"/><path d="M69-69l-31 93" stroke-width="8.0" stroke="#003566C6"/><path d="M186-207l87-44" stroke-width="8.1" stroke="#ffc300C7"/><path d="M45-83l-55 80" stroke-width="8.1" stroke="#000814C8"/><path d="M23-219l-77-57" stroke-width="8.1" stroke="#001d3dCA"/><path d="M58-247l-43-85" stroke-width="8.2" stroke="#003566CB"/><path d="M73-74l-27 89" stroke-width="8.3" stroke="#ffc300CE"/><path d="M11-145l-89 17" stroke-width="8.4" stroke="#001d3dD1"/><path d="M176-210l75-48" stroke-width="8.4" stroke="#003566D2"/><path d="M130-80l31 83" stroke-width="8.5" stroke="#001d3dD4"/><path d="M178-128l79 35" stroke-width="8.6" stroke="#001d3dD7"/><path d="M54-234l-46-72" stroke-width="8.6" stroke="#003566D7"/><path d="M43-225l-56-63" stroke-width="8.6" stroke="#003566D8"/><path d="M45-222l-55-60" stroke-width="8.8" stroke="#001d3dDC"/><path d="M170-122l71 41" stroke-width="8.8" stroke="#ffc300DC"/><path d="M168-121l68 41" stroke-width="8.8" stroke="#000814DD"/><path d="M142-97l42 65" stroke-width="8.9" stroke="#ffc300DF"/><path d="M170-131l71 32" stroke-width="8.9" stroke="#ffc300DF"/><path d="M169-194l69-32" stroke-width="8.9" stroke="#ffd60aE1"/><path d="M50-106l-51 57" stroke-width="8.9" stroke="#003566E1"/><path d="M79-233l-22-71" stroke-width="9.0" stroke="#001d3dE2"/><path d="M158-120l59 43" stroke-width="9.1" stroke="#ffd60aE4"/><path d="M115-229l16-67" stroke-width="9.2" stroke="#ffc300E7"/><path d="M75-102l-26 61" stroke-width="9.2" stroke="#001d3dE9"/><path d="M35-160l-65 2" stroke-width="9.3" stroke="#000814EA"/><path d="M130-218l30-56" stroke-width="9.3" stroke="#003566EB"/><path d="M116-103l15 59" stroke-width="9.4" stroke="#ffd60aEC"/><path d="M48-174l-52-11" stroke-width="9.5" stroke="#001d3dF1"/><path d="M53-141l-46 21" stroke-width="9.6" stroke="#ffd60aF2"/><path d="M113-210l14-48" stroke-width="9.6" stroke="#ffc300F3"/><path d="M92-201l-9-38" stroke-width="9.7" stroke="#000814F7"/><path d="M124-142l25 20" stroke-width="9.8" stroke="#000814FA"/><path d="M71-152l-28 11" stroke-width="9.8" stroke="#ffd60aFA"/><path d="M125-165l25-3" stroke-width="9.9" stroke="#003566FC"/><path d="M94-174l-6-11" stroke-width="10.0" stroke="#001d3dFE"/></g></svg>