<svg width="1200" height="675" viewBox="-500 -500 1200 675" xmlns="http://www.w3.org/2000/svg"><path d="M-500-500h1200v675h-1200z" fill="#000"/><style>.sparkles path{stroke-linecap:round}</style><g class="sparkles"><path d="M104-175l4-12" stroke-width="1.0" stroke="#fff0"/><path d="M87-165l-13-3" stroke-width="1.0" stroke="#c2e1ff0"/><path d="M87-155l-12 7" stroke-width="1.0" stroke="#c2e1ff0"/><path d="M95-178l-6-16" stroke-width="1.0" stroke="#fff1"/><path d="M92-184l-7-21" stroke-width="1.1" stroke="#fff2"/><path d="M120-178l20-16" stroke-width="1.1" stroke="#fff5002"/><path d="M110-199l10-36" stroke-width="1.2" stroke="#c2e1ff6"/><path d="M137-149l36 13" stroke-width="1.3" stroke="#005bbb7"/><path d="M59-181l-42-18" stroke-width="1.3" stroke="#005bbb9"/><path d="M73-125l-27 38" stroke-width="1.4" stroke="#c2e1ffA"/><path d="M52-163l-47 0" stroke-width="1.4" stroke="#005bbbA"/><path d="M146-183l47-21" stroke-width="1.4" stroke="#fffC"/><path d="M65-119l-34 44" stroke-width="1.5" stroke="#fff500F"/><path d="M118-216l18-53" stroke-width="1.5" stroke="#c2e1ffF"/><path d="M75-112l-24 51" stroke-width="1.5" stroke="#c2e1ffF"/><path d="M47-182l-54-20" stroke-width="1.6" stroke="#c2e1ffF"/><path d="M42-180l-57-18" stroke-width="1.6" stroke="#fff50011"/><path d="M152-128l52 35" stroke-width="1.7" stroke="#c2e1ff13"/><path d="M166-179l66-17" stroke-width="1.8" stroke="#fff50017"/><path d="M31-152l-69 11" stroke-width="1.9" stroke="#c2e1ff18"/><path d="M40-117l-60 46" stroke-width="2.0" stroke="#fff1D"/><path d="M167-123l67 40" stroke-width="2.1" stroke="#c2e1ff1F"/><path d="M182-167l82-5" stroke-width="2.3" stroke="#c2e1ff23"/><path d="M139-236l40-74" stroke-width="2.3" stroke="#fff50025"/><path d="M17-176l-82-14" stroke-width="2.3" stroke="#fff25"/><path d="M163-221l62-58" stroke-width="2.4" stroke="#c2e1ff27"/><path d="M64-85l-37 78" stroke-width="2.4" stroke="#fff50028"/><path d="M14-151l-86 11" stroke-width="2.4" stroke="#fff50028"/><path d="M26-115l-74 47" stroke-width="2.5" stroke="#fff2A"/><path d="M60-83l-41 79" stroke-width="2.5" stroke="#fff2B"/><path d="M48-239l-51-76" stroke-width="2.7" stroke="#005bbb2F"/><path d="M109-70l9 93" stroke-width="2.7" stroke="#fff30"/><path d="M39-235l-62-73" stroke-width="2.8" stroke="#fff50033"/><path d="M35-92l-65 70" stroke-width="2.8" stroke="#005bbb34"/><path d="M80-69l-19 94" stroke-width="2.9" stroke="#005bbb35"/><path d="M148-79l48 83" stroke-width="2.9" stroke="#fff50035"/><path d="M79-257l-21-94" stroke-width="2.9" stroke="#fff50035"/><path d="M34-92l-66 71" stroke-width="2.9" stroke="#fff50036"/><path d="M51-79l-49 84" stroke-width="2.9" stroke="#c2e1ff37"/><path d="M111-66l10 97" stroke-width="3.0" stroke="#fff50037"/><path d="M191-126l91 36" stroke-width="3.0" stroke="#c2e1ff38"/><path d="M184-215l83-53" stroke-width="3.0" stroke="#fff39"/><path d="M200-159l100 4" stroke-width="3.1" stroke="#fff5003B"/><path d="M149-250l49-87" stroke-width="3.1" stroke="#005bbb3B"/><path d="M200-151l99 11" stroke-width="3.1" stroke="#c2e1ff3C"/><path d="M18-104l-81 58" stroke-width="3.1" stroke="#fff5003C"/><path d="M11-116l-90 47" stroke-width="3.2" stroke="#c2e1ff3C"/><path d="M155-76l55 86" stroke-width="3.3" stroke="#fff3F"/><path d="M157-248l56-86" stroke-width="3.3" stroke="#fff40"/><path d="M198-130l98 33" stroke-width="3.3" stroke="#fff50041"/><path d="M169-240l69-77" stroke-width="3.3" stroke="#fff42"/><path d="M151-253l52-90" stroke-width="3.4" stroke="#fff50043"/><path d="M10-110l-89 53" stroke-width="3.4" stroke="#fff43"/><path d="M196-119l96 43" stroke-width="3.5" stroke="#005bbb46"/><path d="M76-58l-24 105" stroke-width="3.6" stroke="#fff4B"/><path d="M194-110l94 53" stroke-width="3.7" stroke="#005bbb4B"/><path d="M208-175l108-12" stroke-width="3.7" stroke="#c2e1ff4D"/><path d="M124-57l24 106" stroke-width="3.7" stroke="#fff4D"/><path d="M203-121l102 41" stroke-width="3.9" stroke="#fff52"/><path d="M6-102l-93 60" stroke-width="4.0" stroke="#fff50054"/><path d="M6-103l-94 60" stroke-width="4.0" stroke="#fff55"/><path d="M-11-150l-111 13" stroke-width="4.0" stroke="#005bbb56"/><path d="M34-72l-66 91" stroke-width="4.1" stroke="#fff50057"/><path d="M132-55l33 108" stroke-width="4.2" stroke="#fff50059"/><path d="M121-52l20 111" stroke-width="4.2" stroke="#c2e1ff59"/><path d="M188-234l88-71" stroke-width="4.2" stroke="#c2e1ff5A"/><path d="M213-161l114 2" stroke-width="4.2" stroke="#fff5005C"/><path d="M-11-190l-110-28" stroke-width="4.3" stroke="#005bbb5D"/><path d="M33-70l-67 92" stroke-width="4.3" stroke="#005bbb5E"/><path d="M157-261l57-99" stroke-width="4.4" stroke="#c2e1ff5F"/><path d="M93-48l-7 115" stroke-width="4.5" stroke="#fff50063"/><path d="M-11-194l-111-31" stroke-width="4.5" stroke="#fff50063"/><path d="M213-190l113-27" stroke-width="4.7" stroke="#c2e1ff68"/><path d="M215-148l115 15" stroke-width="4.7" stroke="#005bbb68"/><path d="M215-180l115-18" stroke-width="4.7" stroke="#005bbb69"/><path d="M176-74l76 88" stroke-width="4.8" stroke="#fff6B"/><path d="M9-235l-91-73" stroke-width="4.8" stroke="#fff6B"/><path d="M19-247l-80-85" stroke-width="4.8" stroke="#fff5006C"/><path d="M193-91l92 72" stroke-width="4.9" stroke="#fff5006E"/><path d="M214-136l114 27" stroke-width="4.9" stroke="#005bbb6F"/><path d="M48-267l-53-105" stroke-width="5.0" stroke="#fff70"/><path d="M74-277l-26-114" stroke-width="5.0" stroke="#005bbb71"/><path d="M145-54l44 109" stroke-width="5.0" stroke="#fff72"/><path d="M46-58l-53 105" stroke-width="5.0" stroke="#005bbb72"/><path d="M172-70l72 93" stroke-width="5.1" stroke="#fff50072"/><path d="M-5-110l-106 52" stroke-width="5.1" stroke="#c2e1ff73"/><path d="M106-45l5 117" stroke-width="5.1" stroke="#fff50073"/><path d="M-2-222l-102-59" stroke-width="5.2" stroke="#c2e1ff78"/><path d="M48-269l-51-106" stroke-width="5.3" stroke="#c2e1ff78"/><path d="M-10-205l-111-42" stroke-width="5.4" stroke="#fff5007C"/><path d="M120-46l20 116" stroke-width="5.4" stroke="#fff5007C"/><path d="M217-181l116-18" stroke-width="5.5" stroke="#fff50080"/><path d="M218-164l118-2" stroke-width="5.6" stroke="#fff50081"/><path d="M-4-106l-104 56" stroke-width="5.6" stroke="#c2e1ff82"/><path d="M-15-137l-115 26" stroke-width="5.6" stroke="#fff50083"/><path d="M-8-116l-109 47" stroke-width="5.7" stroke="#c2e1ff85"/><path d="M202-104l102 59" stroke-width="5.7" stroke="#fff50086"/><path d="M184-245l85-82" stroke-width="5.8" stroke="#c2e1ff87"/><path d="M154-267l54-104" stroke-width="5.9" stroke="#fff5008A"/><path d="M141-52l41 110" stroke-width="5.9" stroke="#005bbb8B"/><path d="M94-45l-7 117" stroke-width="6.0" stroke="#fff8D"/><path d="M165-65l64 98" stroke-width="6.0" stroke="#fff8F"/><path d="M-16-148l-117 15" stroke-width="6.1" stroke="#fff5008F"/><path d="M217-156l117 6" stroke-width="6.1" stroke="#fff50090"/><path d="M-13-193l-112-30" stroke-width="6.2" stroke="#005bbb93"/><path d="M215-146l115 17" stroke-width="6.2" stroke="#fff50094"/><path d="M-4-215l-103-53" stroke-width="6.3" stroke="#c2e1ff95"/><path d="M152-267l51-104" stroke-width="6.3" stroke="#fff50096"/><path d="M195-96l95 67" stroke-width="6.3" stroke="#fff50097"/><path d="M146-269l46-107" stroke-width="6.3" stroke="#c2e1ff97"/><path d="M157-263l57-100" stroke-width="6.5" stroke="#fff9A"/><path d="M212-186l112-23" stroke-width="6.6" stroke="#fff5009E"/><path d="M166-69l66 94" stroke-width="6.6" stroke="#c2e1ff9F"/><path d="M-10-193l-110-30" stroke-width="6.7" stroke="#c2e1ffA0"/><path d="M95-277l-6-114" stroke-width="6.7" stroke="#005bbbA0"/><path d="M167-70l67 92" stroke-width="6.7" stroke="#fff500A0"/><path d="M157-261l57-99" stroke-width="6.7" stroke="#fffA1"/><path d="M94-49l-5 113" stroke-width="6.7" stroke="#fff500A2"/><path d="M195-224l96-61" stroke-width="6.8" stroke="#fff500A4"/><path d="M52-60l-48 102" stroke-width="6.8" stroke="#c2e1ffA4"/><path d="M121-273l20-111" stroke-width="6.8" stroke="#fff500A5"/><path d="M178-82l77 81" stroke-width="6.9" stroke="#fff500A8"/><path d="M99-51l-2 111" stroke-width="7.0" stroke="#005bbbA9"/><path d="M145-61l45 102" stroke-width="7.0" stroke="#fffA9"/><path d="M124-54l23 108" stroke-width="7.0" stroke="#c2e1ffAB"/><path d="M206-195l106-33" stroke-width="7.1" stroke="#fff500AB"/><path d="M-10-159l-111 4" stroke-width="7.1" stroke="#c2e1ffAC"/><path d="M172-78l71 84" stroke-width="7.1" stroke="#005bbbAC"/><path d="M204-199l105-36" stroke-width="7.1" stroke="#fff500AC"/><path d="M205-197l104-34" stroke-width="7.1" stroke="#c2e1ffAD"/><path d="M200-206l101-44" stroke-width="7.2" stroke="#fff500AE"/><path d="M-5-131l-105 31" stroke-width="7.2" stroke="#fff500AF"/><path d="M7-220l-93-57" stroke-width="7.2" stroke="#c2e1ffB0"/><path d="M207-170l108-8" stroke-width="7.4" stroke="#fffB4"/><path d="M29-242l-72-79" stroke-width="7.4" stroke="#005bbbB6"/><path d="M157-252l57-89" stroke-width="7.5" stroke="#c2e1ffB7"/><path d="M157-74l57 88" stroke-width="7.6" stroke="#005bbbB9"/><path d="M26-232l-75-69" stroke-width="7.8" stroke="#c2e1ffC0"/><path d="M201-173l100-11" stroke-width="7.8" stroke="#c2e1ffC1"/><path d="M58-254l-42-92" stroke-width="7.8" stroke="#005bbbC1"/><path d="M36-240l-64-78" stroke-width="7.9" stroke="#005bbbC2"/><path d="M0-163l-100-1" stroke-width="7.9" stroke="#005bbbC3"/><path d="M179-222l79-59" stroke-width="8.0" stroke="#fff500C5"/><path d="M7-195l-93-32" stroke-width="8.0" stroke="#fffC5"/><path d="M190-197l91-35" stroke-width="8.1" stroke="#fff500C8"/><path d="M114-68l13 95" stroke-width="8.1" stroke="#fffCA"/><path d="M114-257l14-95" stroke-width="8.1" stroke="#c2e1ffCA"/><path d="M186-200l87-37" stroke-width="8.2" stroke="#fffCC"/><path d="M182-116l81 46" stroke-width="8.2" stroke="#fff500CC"/><path d="M30-101l-71 62" stroke-width="8.2" stroke="#fffCD"/><path d="M172-103l71 59" stroke-width="8.3" stroke="#fff500CE"/><path d="M30-221l-70-59" stroke-width="8.4" stroke="#fffD0"/><path d="M51-237l-50-75" stroke-width="8.4" stroke="#c2e1ffD2"/><path d="M30-216l-71-54" stroke-width="8.5" stroke="#fff500D4"/><path d="M151-93l51 70" stroke-width="8.6" stroke="#c2e1ffD6"/><path d="M52-92l-48 70" stroke-width="8.6" stroke="#fff500D8"/><path d="M19-188l-80-26" stroke-width="8.6" stroke="#fff500D8"/><path d="M130-239l30-77" stroke-width="8.7" stroke="#fff500DA"/><path d="M73-240l-27-77" stroke-width="8.7" stroke="#fff500DB"/><path d="M40-209l-60-47" stroke-width="8.9" stroke="#005bbbE1"/><path d="M175-162l75 0" stroke-width="9.0" stroke="#fffE2"/><path d="M40-133l-59 29" stroke-width="9.2" stroke="#c2e1ffE8"/><path d="M122-101l23 62" stroke-width="9.2" stroke="#c2e1ffE9"/><path d="M71-220l-29-58" stroke-width="9.3" stroke="#fff500EA"/><path d="M71-219l-30-56" stroke-width="9.3" stroke="#fff500EA"/><path d="M159-183l59-20" stroke-width="9.3" stroke="#fffEB"/><path d="M157-144l57 18" stroke-width="9.4" stroke="#fff500ED"/><path d="M158-160l57 3" stroke-width="9.4" stroke="#fff500EE"/><path d="M122-111l22 51" stroke-width="9.5" stroke="#fff500EF"/><path d="M104-109l4 54" stroke-width="9.5" stroke="#c2e1ffF0"/><path d="M91-112l-8 51" stroke-width="9.5" stroke="#005bbbF2"/><path d="M72-126l-29 37" stroke-width="9.6" stroke="#005bbbF4"/><path d="M142-152l42 10" stroke-width="9.7" stroke="#c2e1ffF6"/><path d="M140-171l39-8" stroke-width="9.7" stroke="#005bbbF7"/><path d="M61-156l-40 6" stroke-width="9.7" stroke="#fffF7"/><path d="M100-124l-1 38" stroke-width="9.8" stroke="#c2e1ffF8"/><path d="M80-193l-21-31" stroke-width="9.8" stroke="#c2e1ffF8"/><path d="M71-150l-28 12" stroke-width="9.8" stroke="#005bbbFA"/><path d="M130-168l31-6" stroke-width="9.8" stroke="#fffFA"/><path d="M125-179l26-17" stroke-width="9.8" stroke="#c2e1ffFA"/><path d="M90-142l-11 20" stroke-width="9.9" stroke="#c2e1ffFC"/></g></svg>