<svg width="1200" height="675" viewBox="-500 -500 1200 675" xmlns="http://www.w3.org/2000/svg"><path d="M-500-500h1200v675h-1200z" fill="#000"/><style>.sparkles path{stroke-linecap:round}</style><g class="sparkles"><path d="M120-149l21 13" stroke-width="1.1" stroke="#fff5002"/><path d="M82-186l-19-24" stroke-width="1.1" stroke="#fff5004"/><path d="M103-133l3 30" stroke-width="1.1" stroke="#c2e1ff4"/><path d="M68-141l-31 22" stroke-width="1.2" stroke="#fff6"/><path d="M137-138l38 24" stroke-width="1.3" stroke="#fff9"/><path d="M139-188l39-26" stroke-width="1.4" stroke="#fffA"/><path d="M61-122l-38 40" stroke-width="1.5" stroke="#fff500F"/><path d="M130-212l31-49" stroke-width="1.6" stroke="#005bbb10"/><path d="M127-110l27 52" stroke-width="1.6" stroke="#fff11"/><path d="M34-189l-66-26" stroke-width="1.9" stroke="#fff50019"/><path d="M161-200l61-38" stroke-width="1.9" stroke="#fff5001A"/><path d="M50-214l-51-52" stroke-width="1.9" stroke="#fff5001A"/><path d="M60-223l-39-61" stroke-width="2.0" stroke="#fff5001A"/><path d="M170-183l70-21" stroke-width="2.0" stroke="#fff5001B"/><path d="M173-175l72-12" stroke-width="2.0" stroke="#c2e1ff1B"/><path d="M45-212l-55-49" stroke-width="2.0" stroke="#fff1C"/><path d="M155-213l54-51" stroke-width="2.0" stroke="#fff1C"/><path d="M73-90l-27 72" stroke-width="2.1" stroke="#005bbb1E"/><path d="M98-242l-1-80" stroke-width="2.2" stroke="#fff50021"/><path d="M178-184l78-21" stroke-width="2.2" stroke="#005bbb22"/><path d="M116-83l16 79" stroke-width="2.2" stroke="#fff22"/><path d="M81-242l-19-80" stroke-width="2.3" stroke="#c2e1ff23"/><path d="M53-95l-48 67" stroke-width="2.3" stroke="#005bbb23"/><path d="M67-239l-34-76" stroke-width="2.3" stroke="#c2e1ff25"/><path d="M169-212l69-50" stroke-width="2.4" stroke="#fff26"/><path d="M95-76l-6 86" stroke-width="2.4" stroke="#c2e1ff28"/><path d="M42-227l-59-65" stroke-width="2.5" stroke="#fff50029"/><path d="M15-138l-85 25" stroke-width="2.5" stroke="#fff5002B"/><path d="M36-224l-65-61" stroke-width="2.5" stroke="#005bbb2B"/><path d="M46-90l-55 73" stroke-width="2.6" stroke="#fff5002D"/><path d="M32-100l-69 62" stroke-width="2.7" stroke="#c2e1ff30"/><path d="M16-205l-84-43" stroke-width="2.8" stroke="#fff32"/><path d="M194-162l95 0" stroke-width="2.8" stroke="#fff50032"/><path d="M155-84l55 78" stroke-width="2.9" stroke="#fff34"/><path d="M196-172l96-9" stroke-width="2.9" stroke="#c2e1ff36"/><path d="M194-188l94-25" stroke-width="2.9" stroke="#005bbb36"/><path d="M148-247l49-85" stroke-width="3.0" stroke="#005bbb37"/><path d="M12-208l-87-45" stroke-width="3.0" stroke="#fff50039"/><path d="M51-76l-48 86" stroke-width="3.1" stroke="#005bbb3A"/><path d="M8-125l-92 37" stroke-width="3.1" stroke="#005bbb3A"/><path d="M42-82l-59 81" stroke-width="3.1" stroke="#c2e1ff3B"/><path d="M134-68l33 94" stroke-width="3.1" stroke="#fff3B"/><path d="M176-97l77 65" stroke-width="3.1" stroke="#fff3C"/><path d="M63-67l-37 95" stroke-width="3.3" stroke="#fff5003F"/><path d="M203-149l103 14" stroke-width="3.3" stroke="#fff42"/><path d="M76-61l-24 101" stroke-width="3.4" stroke="#c2e1ff42"/><path d="M23-234l-76-71" stroke-width="3.4" stroke="#fff44"/><path d="M196-205l96-42" stroke-width="3.4" stroke="#fff45"/><path d="M3-208l-96-45" stroke-width="3.6" stroke="#c2e1ff48"/><path d="M140-263l40-101" stroke-width="3.7" stroke="#c2e1ff4D"/><path d="M208-151l108 11" stroke-width="3.7" stroke="#fff5004D"/><path d="M44-69l-57 93" stroke-width="3.8" stroke="#fff5004E"/><path d="M187-228l88-66" stroke-width="3.8" stroke="#fff5004F"/><path d="M0-118l-101 45" stroke-width="3.8" stroke="#fff50"/><path d="M210-154l109 8" stroke-width="3.9" stroke="#005bbb50"/><path d="M81-54l-19 108" stroke-width="3.9" stroke="#fff50051"/><path d="M26-245l-73-82" stroke-width="3.9" stroke="#fff51"/><path d="M141-265l41-103" stroke-width="3.9" stroke="#c2e1ff53"/><path d="M179-85l79 78" stroke-width="4.0" stroke="#fff53"/><path d="M111-273l12-110" stroke-width="4.0" stroke="#005bbb53"/><path d="M125-54l24 108" stroke-width="4.0" stroke="#005bbb54"/><path d="M26-246l-73-84" stroke-width="4.0" stroke="#c2e1ff55"/><path d="M-1-116l-102 47" stroke-width="4.0" stroke="#c2e1ff55"/><path d="M54-60l-46 102" stroke-width="4.1" stroke="#c2e1ff57"/><path d="M54-60l-46 103" stroke-width="4.1" stroke="#fff50058"/><path d="M-11-140l-110 22" stroke-width="4.2" stroke="#fff50059"/><path d="M-13-167l-113-5" stroke-width="4.2" stroke="#fff5B"/><path d="M-13-154l-113 9" stroke-width="4.2" stroke="#005bbb5B"/><path d="M129-53l29 110" stroke-width="4.3" stroke="#fff5005C"/><path d="M27-249l-74-87" stroke-width="4.3" stroke="#fff5C"/><path d="M193-229l93-66" stroke-width="4.4" stroke="#fff5005F"/><path d="M90-48l-9 114" stroke-width="4.4" stroke="#005bbb5F"/><path d="M-12-189l-111-27" stroke-width="4.4" stroke="#fff50061"/><path d="M17-242l-83-80" stroke-width="4.5" stroke="#c2e1ff61"/><path d="M48-265l-52-103" stroke-width="4.5" stroke="#c2e1ff63"/><path d="M136-272l35-110" stroke-width="4.6" stroke="#fff50064"/><path d="M-16-168l-115-5" stroke-width="4.6" stroke="#fff65"/><path d="M-16-157l-115 5" stroke-width="4.6" stroke="#c2e1ff66"/><path d="M91-278l-9-116" stroke-width="4.7" stroke="#c2e1ff68"/><path d="M68-274l-33-112" stroke-width="4.7" stroke="#c2e1ff69"/><path d="M177-250l77-87" stroke-width="4.8" stroke="#005bbb6A"/><path d="M43-60l-56 102" stroke-width="4.9" stroke="#fff6D"/><path d="M215-142l115 21" stroke-width="4.9" stroke="#fff6D"/><path d="M102-280l2-117" stroke-width="4.9" stroke="#c2e1ff6E"/><path d="M180-77l81 85" stroke-width="4.9" stroke="#fff5006F"/><path d="M217-167l117-5" stroke-width="5.0" stroke="#fff50070"/><path d="M-17-163l-118-1" stroke-width="5.0" stroke="#fff70"/><path d="M58-53l-41 110" stroke-width="5.0" stroke="#005bbb71"/><path d="M30-257l-70-95" stroke-width="5.0" stroke="#fff50072"/><path d="M169-258l69-95" stroke-width="5.0" stroke="#c2e1ff72"/><path d="M202-222l101-60" stroke-width="5.2" stroke="#fff75"/><path d="M-16-141l-116 21" stroke-width="5.2" stroke="#fff50076"/><path d="M-17-150l-118 13" stroke-width="5.3" stroke="#fff50079"/><path d="M184-245l84-83" stroke-width="5.4" stroke="#c2e1ff7D"/><path d="M-18-155l-118 8" stroke-width="5.4" stroke="#c2e1ff7D"/><path d="M218-174l117-11" stroke-width="5.6" stroke="#fff82"/><path d="M-6-215l-105-52" stroke-width="5.7" stroke="#c2e1ff85"/><path d="M134-49l34 113" stroke-width="5.7" stroke="#005bbb85"/><path d="M173-255l74-92" stroke-width="5.7" stroke="#005bbb85"/><path d="M186-243l87-80" stroke-width="5.8" stroke="#fff50086"/><path d="M63-51l-38 112" stroke-width="5.8" stroke="#c2e1ff88"/><path d="M-8-116l-108 47" stroke-width="5.9" stroke="#005bbb8B"/><path d="M-13-193l-114-31" stroke-width="6.0" stroke="#fff8C"/><path d="M91-46l-9 117" stroke-width="6.1" stroke="#fff5008F"/><path d="M102-46l2 116" stroke-width="6.3" stroke="#005bbb94"/><path d="M216-162l116 1" stroke-width="6.3" stroke="#fff50096"/><path d="M86-278l-14-115" stroke-width="6.3" stroke="#005bbb96"/><path d="M85-278l-14-115" stroke-width="6.3" stroke="#005bbb96"/><path d="M205-209l106-47" stroke-width="6.5" stroke="#005bbb9B"/><path d="M60-54l-39 108" stroke-width="6.5" stroke="#005bbb9C"/><path d="M34-69l-66 94" stroke-width="6.6" stroke="#fff5009D"/><path d="M208-203l107-40" stroke-width="6.6" stroke="#fff5009D"/><path d="M34-256l-66-94" stroke-width="6.6" stroke="#005bbb9E"/><path d="M193-229l93-66" stroke-width="6.7" stroke="#005bbbA0"/><path d="M14-238l-86-75" stroke-width="6.7" stroke="#c2e1ffA0"/><path d="M-14-169l-114-6" stroke-width="6.7" stroke="#fffA0"/><path d="M60-269l-41-107" stroke-width="6.7" stroke="#c2e1ffA0"/><path d="M160-260l59-97" stroke-width="6.7" stroke="#fffA1"/><path d="M212-148l113 14" stroke-width="6.8" stroke="#005bbbA3"/><path d="M1-110l-100 52" stroke-width="6.9" stroke="#c2e1ffA7"/><path d="M177-83l78 80" stroke-width="7.0" stroke="#fffAA"/><path d="M64-268l-36-105" stroke-width="7.0" stroke="#fffAA"/><path d="M4-218l-96-55" stroke-width="7.1" stroke="#fff500AC"/><path d="M91-53l-8 110" stroke-width="7.1" stroke="#005bbbAD"/><path d="M130-268l30-106" stroke-width="7.1" stroke="#005bbbAD"/><path d="M204-128l105 34" stroke-width="7.2" stroke="#c2e1ffAE"/><path d="M-9-151l-109 11" stroke-width="7.2" stroke="#fff500AF"/><path d="M140-264l41-102" stroke-width="7.2" stroke="#fffAF"/><path d="M131-267l30-105" stroke-width="7.2" stroke="#fff500B0"/><path d="M209-163l108 0" stroke-width="7.3" stroke="#fff500B1"/><path d="M-6-183l-107-20" stroke-width="7.3" stroke="#fffB2"/><path d="M177-238l76-76" stroke-width="7.4" stroke="#fff500B4"/><path d="M207-163l108-1" stroke-width="7.4" stroke="#c2e1ffB4"/><path d="M8-108l-93 54" stroke-width="7.4" stroke="#c2e1ffB5"/><path d="M136-263l35-101" stroke-width="7.4" stroke="#fff500B5"/><path d="M17-95l-83 67" stroke-width="7.4" stroke="#fffB6"/><path d="M205-172l105-10" stroke-width="7.5" stroke="#c2e1ffB8"/><path d="M12-220l-88-58" stroke-width="7.5" stroke="#005bbbB9"/><path d="M200-133l99 29" stroke-width="7.6" stroke="#fff500BB"/><path d="M2-194l-99-32" stroke-width="7.7" stroke="#fff500BD"/><path d="M95-265l-4-103" stroke-width="7.7" stroke="#fff500BD"/><path d="M-3-157l-102 5" stroke-width="7.7" stroke="#c2e1ffBE"/><path d="M-1-147l-102 15" stroke-width="7.7" stroke="#fffBE"/><path d="M200-178l100-15" stroke-width="7.8" stroke="#c2e1ffC1"/><path d="M78-64l-21 98" stroke-width="7.9" stroke="#c2e1ffC2"/><path d="M60-72l-40 91" stroke-width="7.9" stroke="#fffC4"/><path d="M54-74l-46 88" stroke-width="7.9" stroke="#fffC4"/><path d="M176-225l76-62" stroke-width="8.0" stroke="#fffC6"/><path d="M162-87l62 76" stroke-width="8.0" stroke="#fffC7"/><path d="M8-195l-92-32" stroke-width="8.0" stroke="#fff500C7"/><path d="M39-87l-61 76" stroke-width="8.1" stroke="#c2e1ffC8"/><path d="M184-120l85 43" stroke-width="8.2" stroke="#fff500CB"/><path d="M187-129l86 34" stroke-width="8.3" stroke="#005bbbCE"/><path d="M98-255l-2-92" stroke-width="8.3" stroke="#005bbbCF"/><path d="M190-154l89 9" stroke-width="8.4" stroke="#fffD1"/><path d="M189-151l89 11" stroke-width="8.4" stroke="#fff500D2"/><path d="M188-148l89 15" stroke-width="8.4" stroke="#fffD2"/><path d="M130-247l29-84" stroke-width="8.4" stroke="#fff500D2"/><path d="M21-122l-80 41" stroke-width="8.4" stroke="#fff500D3"/><path d="M143-240l43-77" stroke-width="8.5" stroke="#005bbbD4"/><path d="M182-177l83-14" stroke-width="8.7" stroke="#fffD9"/><path d="M182-157l82 6" stroke-width="8.7" stroke="#c2e1ffDB"/><path d="M23-139l-78 24" stroke-width="8.8" stroke="#005bbbDC"/><path d="M179-171l80-8" stroke-width="8.8" stroke="#fffDD"/><path d="M121-237l21-74" stroke-width="8.9" stroke="#fffE0"/><path d="M119-88l18 75" stroke-width="8.9" stroke="#fff500E0"/><path d="M32-139l-69 23" stroke-width="9.1" stroke="#005bbbE4"/><path d="M51-214l-50-52" stroke-width="9.1" stroke="#c2e1ffE4"/><path d="M152-207l52-45" stroke-width="9.2" stroke="#fff500E7"/><path d="M34-165l-67-2" stroke-width="9.2" stroke="#fffE8"/><path d="M91-227l-9-64" stroke-width="9.3" stroke="#fffEA"/><path d="M67-213l-33-51" stroke-width="9.4" stroke="#005bbbEC"/><path d="M55-202l-45-40" stroke-width="9.4" stroke="#c2e1ffED"/><path d="M49-144l-51 19" stroke-width="9.5" stroke="#fffF0"/><path d="M144-192l44-29" stroke-width="9.5" stroke="#c2e1ffF1"/><path d="M144-141l44 21" stroke-width="9.6" stroke="#005bbbF3"/><path d="M145-146l45 17" stroke-width="9.6" stroke="#005bbbF3"/><path d="M63-142l-37 20" stroke-width="9.7" stroke="#fff500F6"/><path d="M117-192l17-30" stroke-width="9.8" stroke="#fffF9"/><path d="M78-166l-23-4" stroke-width="9.9" stroke="#fff500FC"/><path d="M108-156l8 6" stroke-width="10.0" stroke="#fffFE"/></g></svg>