<svg width="1200" height="675" viewBox="-500 -500 1200 675" xmlns="http://www.w3.org/2000/svg"><path d="M-500-500h1200v675h-1200z" fill="#000"/><style>.sparkles path{stroke-linecap:round}</style><g class="sparkles"><path d="M125-161l24 2" stroke-width="1.1" stroke="#c2e1ff2"/><path d="M103-190l3-28" stroke-width="1.1" stroke="#fff5003"/><path d="M110-201l10-38" stroke-width="1.3" stroke="#fff5007"/><path d="M140-151l41 11" stroke-width="1.3" stroke="#c2e1ff8"/><path d="M82-124l-18 39" stroke-width="1.3" stroke="#fff5008"/><path d="M60-127l-41 36" stroke-width="1.5" stroke="#fffE"/><path d="M50-141l-50 21" stroke-width="1.5" stroke="#005bbbE"/><path d="M152-144l52 18" stroke-width="1.5" stroke="#fff500E"/><path d="M154-186l53-24" stroke-width="1.6" stroke="#fff10"/><path d="M70-213l-29-51" stroke-width="1.6" stroke="#c2e1ff10"/><path d="M50-196l-50-34" stroke-width="1.6" stroke="#fff50011"/><path d="M51-125l-50 38" stroke-width="1.7" stroke="#fff50013"/><path d="M82-223l-18-60" stroke-width="1.7" stroke="#fff50013"/><path d="M155-199l56-37" stroke-width="1.8" stroke="#fff50016"/><path d="M38-133l-61 30" stroke-width="1.8" stroke="#fff17"/><path d="M166-184l67-22" stroke-width="1.9" stroke="#c2e1ff18"/><path d="M33-144l-68 18" stroke-width="1.9" stroke="#c2e1ff18"/><path d="M31-178l-69-15" stroke-width="1.9" stroke="#c2e1ff19"/><path d="M130-230l29-68" stroke-width="2.0" stroke="#005bbb1C"/><path d="M97-89l-3 74" stroke-width="2.0" stroke="#005bbb1C"/><path d="M124-233l24-71" stroke-width="2.0" stroke="#fff1C"/><path d="M76-236l-24-73" stroke-width="2.1" stroke="#fff1E"/><path d="M136-233l36-71" stroke-width="2.2" stroke="#005bbb21"/><path d="M21-175l-79-12" stroke-width="2.2" stroke="#005bbb21"/><path d="M157-222l57-60" stroke-width="2.3" stroke="#fff24"/><path d="M28-204l-72-41" stroke-width="2.3" stroke="#c2e1ff24"/><path d="M184-161l84 2" stroke-width="2.3" stroke="#fff50026"/><path d="M169-210l70-48" stroke-width="2.3" stroke="#c2e1ff26"/><path d="M121-247l21-85" stroke-width="2.5" stroke="#fff50029"/><path d="M11-154l-88 9" stroke-width="2.5" stroke="#c2e1ff2B"/><path d="M188-182l87-19" stroke-width="2.6" stroke="#fff2C"/><path d="M8-157l-93 5" stroke-width="2.7" stroke="#fff50030"/><path d="M50-80l-50 83" stroke-width="2.9" stroke="#c2e1ff36"/><path d="M100-260l0-97" stroke-width="2.9" stroke="#fff50037"/><path d="M4-140l-95 23" stroke-width="3.0" stroke="#c2e1ff39"/><path d="M2-149l-98 14" stroke-width="3.1" stroke="#fff3A"/><path d="M80-64l-19 98" stroke-width="3.1" stroke="#005bbb3B"/><path d="M196-130l96 33" stroke-width="3.2" stroke="#fff3D"/><path d="M72-260l-27-98" stroke-width="3.2" stroke="#005bbb3E"/><path d="M202-166l102-3" stroke-width="3.2" stroke="#fff5003F"/><path d="M54-71l-46 91" stroke-width="3.2" stroke="#005bbb3F"/><path d="M187-109l88 53" stroke-width="3.2" stroke="#fff3F"/><path d="M-2-155l-102 8" stroke-width="3.3" stroke="#fff40"/><path d="M107-60l8 102" stroke-width="3.3" stroke="#fff50040"/><path d="M203-158l103 5" stroke-width="3.3" stroke="#fff50041"/><path d="M163-80l63 82" stroke-width="3.3" stroke="#c2e1ff42"/><path d="M10-110l-89 53" stroke-width="3.4" stroke="#005bbb43"/><path d="M187-105l87 57" stroke-width="3.4" stroke="#c2e1ff43"/><path d="M144-66l45 97" stroke-width="3.6" stroke="#005bbb48"/><path d="M45-254l-55-92" stroke-width="3.6" stroke="#005bbb49"/><path d="M60-262l-40-99" stroke-width="3.6" stroke="#fff50049"/><path d="M100-270l0-108" stroke-width="3.6" stroke="#005bbb4A"/><path d="M167-78l68 84" stroke-width="3.7" stroke="#c2e1ff4B"/><path d="M91-55l-9 108" stroke-width="3.7" stroke="#c2e1ff4C"/><path d="M98-271l-3-108" stroke-width="3.7" stroke="#c2e1ff4D"/><path d="M79-270l-20-108" stroke-width="3.8" stroke="#005bbb4F"/><path d="M196-109l95 54" stroke-width="3.8" stroke="#fff50"/><path d="M148-262l48-99" stroke-width="3.9" stroke="#c2e1ff51"/><path d="M-5-130l-105 33" stroke-width="3.9" stroke="#fff50051"/><path d="M210-173l110-10" stroke-width="3.9" stroke="#fff52"/><path d="M-5-129l-106 33" stroke-width="3.9" stroke="#c2e1ff52"/><path d="M118-272l18-109" stroke-width="3.9" stroke="#005bbb53"/><path d="M211-153l111 10" stroke-width="4.0" stroke="#fff50055"/><path d="M-12-174l-112-11" stroke-width="4.1" stroke="#fff58"/><path d="M54-265l-47-102" stroke-width="4.1" stroke="#c2e1ff58"/><path d="M190-95l90 68" stroke-width="4.1" stroke="#fff50059"/><path d="M144-58l43 104" stroke-width="4.2" stroke="#fff5005A"/><path d="M97-49l-3 114" stroke-width="4.3" stroke="#c2e1ff5D"/><path d="M154-263l54-101" stroke-width="4.3" stroke="#005bbb5E"/><path d="M-12-139l-113 23" stroke-width="4.4" stroke="#fff50061"/><path d="M196-99l96 64" stroke-width="4.5" stroke="#fff62"/><path d="M111-277l11-115" stroke-width="4.5" stroke="#fff50064"/><path d="M94-47l-6 115" stroke-width="4.6" stroke="#fff64"/><path d="M-12-190l-112-28" stroke-width="4.6" stroke="#005bbb65"/><path d="M213-189l113-26" stroke-width="4.6" stroke="#c2e1ff66"/><path d="M86-47l-13 116" stroke-width="4.8" stroke="#c2e1ff6A"/><path d="M142-54l41 109" stroke-width="4.8" stroke="#005bbb6A"/><path d="M200-223l99-61" stroke-width="4.8" stroke="#005bbb6B"/><path d="M131-275l32-113" stroke-width="4.9" stroke="#fff6E"/><path d="M178-75l77 87" stroke-width="4.9" stroke="#fff6E"/><path d="M-5-214l-106-51" stroke-width="4.9" stroke="#fff6E"/><path d="M-17-164l-117-2" stroke-width="4.9" stroke="#c2e1ff6F"/><path d="M30-69l-71 94" stroke-width="4.9" stroke="#fff6F"/><path d="M125-48l25 115" stroke-width="5.0" stroke="#005bbb71"/><path d="M214-192l113-30" stroke-width="5.0" stroke="#fff50071"/><path d="M213-197l112-35" stroke-width="5.3" stroke="#c2e1ff78"/><path d="M197-230l96-68" stroke-width="5.3" stroke="#005bbb79"/><path d="M198-96l98 66" stroke-width="5.3" stroke="#fff79"/><path d="M137-275l37-112" stroke-width="5.3" stroke="#005bbb79"/><path d="M-18-160l-118 2" stroke-width="5.3" stroke="#c2e1ff79"/><path d="M127-278l27-115" stroke-width="5.4" stroke="#c2e1ff7C"/><path d="M-16-138l-115 24" stroke-width="5.5" stroke="#c2e1ff7E"/><path d="M36-262l-63-100" stroke-width="5.5" stroke="#fff7F"/><path d="M85-45l-14 117" stroke-width="5.5" stroke="#fff80"/><path d="M32-259l-69-96" stroke-width="5.6" stroke="#fff83"/><path d="M162-263l61-101" stroke-width="5.7" stroke="#005bbb85"/><path d="M-7-114l-108 49" stroke-width="5.7" stroke="#fff86"/><path d="M-2-222l-101-60" stroke-width="5.8" stroke="#005bbb86"/><path d="M182-247l82-85" stroke-width="5.8" stroke="#fff50087"/><path d="M115-279l14-117" stroke-width="5.8" stroke="#fff50087"/><path d="M197-96l98 66" stroke-width="5.9" stroke="#005bbb8A"/><path d="M-2-221l-102-58" stroke-width="5.9" stroke="#fff5008A"/><path d="M164-261l64-99" stroke-width="5.9" stroke="#fff5008A"/><path d="M2-228l-98-65" stroke-width="6.0" stroke="#fff8C"/><path d="M214-133l113 29" stroke-width="6.0" stroke="#fff8E"/><path d="M68-275l-32-112" stroke-width="6.1" stroke="#c2e1ff91"/><path d="M106-279l6-116" stroke-width="6.2" stroke="#fff93"/><path d="M215-141l114 21" stroke-width="6.2" stroke="#fff50093"/><path d="M176-251l76-88" stroke-width="6.2" stroke="#fff50093"/><path d="M36-260l-63-97" stroke-width="6.3" stroke="#c2e1ff95"/><path d="M-15-176l-115-13" stroke-width="6.4" stroke="#fff98"/><path d="M-15-149l-115 13" stroke-width="6.4" stroke="#fff99"/><path d="M173-251l74-89" stroke-width="6.5" stroke="#c2e1ff9C"/><path d="M151-265l50-102" stroke-width="6.7" stroke="#fff500A0"/><path d="M214-171l113-8" stroke-width="6.7" stroke="#c2e1ffA0"/><path d="M60-268l-40-106" stroke-width="6.8" stroke="#005bbbA3"/><path d="M53-265l-48-103" stroke-width="6.8" stroke="#fffA4"/><path d="M10-96l-90 67" stroke-width="6.9" stroke="#fffA7"/><path d="M-7-130l-106 33" stroke-width="7.0" stroke="#fff500A9"/><path d="M47-260l-53-98" stroke-width="7.0" stroke="#c2e1ffA9"/><path d="M-5-200l-105-38" stroke-width="7.0" stroke="#fff500A9"/><path d="M46-67l-54 96" stroke-width="7.2" stroke="#fff500AE"/><path d="M61-265l-38-103" stroke-width="7.2" stroke="#005bbbAE"/><path d="M-7-141l-107 22" stroke-width="7.2" stroke="#fffAF"/><path d="M209-168l109-5" stroke-width="7.2" stroke="#fff500AF"/><path d="M152-258l53-96" stroke-width="7.2" stroke="#005bbbB0"/><path d="M195-109l94 54" stroke-width="7.2" stroke="#c2e1ffB0"/><path d="M12-226l-88-63" stroke-width="7.3" stroke="#c2e1ffB2"/><path d="M-5-189l-104-27" stroke-width="7.3" stroke="#005bbbB2"/><path d="M0-122l-100 41" stroke-width="7.3" stroke="#fffB2"/><path d="M3-209l-98-46" stroke-width="7.3" stroke="#c2e1ffB3"/><path d="M19-233l-82-71" stroke-width="7.3" stroke="#c2e1ffB3"/><path d="M105-270l5-108" stroke-width="7.4" stroke="#005bbbB3"/><path d="M8-219l-91-56" stroke-width="7.4" stroke="#c2e1ffB4"/><path d="M95-55l-6 107" stroke-width="7.4" stroke="#fff500B4"/><path d="M-4-137l-104 26" stroke-width="7.4" stroke="#fff500B4"/><path d="M189-108l89 55" stroke-width="7.6" stroke="#005bbbBA"/><path d="M200-190l100-28" stroke-width="7.6" stroke="#c2e1ffBC"/><path d="M162-79l61 84" stroke-width="7.6" stroke="#fff500BC"/><path d="M181-100l82 63" stroke-width="7.7" stroke="#005bbbBE"/><path d="M-1-175l-102-12" stroke-width="7.8" stroke="#005bbbBF"/><path d="M187-216l87-53" stroke-width="7.8" stroke="#fff500BF"/><path d="M202-159l102 4" stroke-width="7.8" stroke="#005bbbBF"/><path d="M142-253l42-91" stroke-width="7.9" stroke="#fffC3"/><path d="M94-262l-6-99" stroke-width="7.9" stroke="#005bbbC4"/><path d="M142-253l42-90" stroke-width="7.9" stroke="#fff500C4"/><path d="M3-181l-98-19" stroke-width="7.9" stroke="#fffC4"/><path d="M76-258l-25-96" stroke-width="8.0" stroke="#fffC5"/><path d="M62-251l-39-88" stroke-width="8.1" stroke="#005bbbC9"/><path d="M41-237l-59-74" stroke-width="8.2" stroke="#fffCB"/><path d="M34-97l-66 66" stroke-width="8.3" stroke="#c2e1ffCD"/><path d="M17-200l-84-38" stroke-width="8.3" stroke="#fffD0"/><path d="M155-90l54 73" stroke-width="8.4" stroke="#005bbbD0"/><path d="M14-191l-85-29" stroke-width="8.4" stroke="#005bbbD1"/><path d="M190-162l90 0" stroke-width="8.4" stroke="#fffD2"/><path d="M130-78l29 84" stroke-width="8.4" stroke="#fff500D2"/><path d="M180-198l79-35" stroke-width="8.5" stroke="#005bbbD5"/><path d="M105-76l6 86" stroke-width="8.6" stroke="#fff500D6"/><path d="M123-242l24-80" stroke-width="8.7" stroke="#005bbbDA"/><path d="M172-199l72-36" stroke-width="8.8" stroke="#005bbbDC"/><path d="M31-203l-70-40" stroke-width="8.8" stroke="#fff500DD"/><path d="M38-113l-63 50" stroke-width="8.8" stroke="#fff500DD"/><path d="M175-136l75 27" stroke-width="8.8" stroke="#005bbbDD"/><path d="M22-180l-77-18" stroke-width="8.8" stroke="#005bbbDD"/><path d="M69-230l-30-68" stroke-width="9.0" stroke="#c2e1ffE2"/><path d="M106-237l7-74" stroke-width="9.0" stroke="#fffE2"/><path d="M144-104l44 58" stroke-width="9.0" stroke="#005bbbE3"/><path d="M38-126l-63 36" stroke-width="9.1" stroke="#fffE4"/><path d="M112-97l12 65" stroke-width="9.2" stroke="#fffE9"/><path d="M164-154l64 8" stroke-width="9.3" stroke="#c2e1ffEA"/><path d="M69-214l-31-51" stroke-width="9.4" stroke="#fffED"/><path d="M153-186l54-23" stroke-width="9.4" stroke="#005bbbEE"/><path d="M52-167l-48-4" stroke-width="9.6" stroke="#fff500F3"/><path d="M117-121l18 42" stroke-width="9.7" stroke="#005bbbF5"/><path d="M116-122l15 40" stroke-width="9.7" stroke="#c2e1ffF6"/><path d="M127-194l26-32" stroke-width="9.7" stroke="#fff500F6"/><path d="M139-149l40 13" stroke-width="9.7" stroke="#c2e1ffF6"/><path d="M113-131l13 31" stroke-width="9.8" stroke="#c2e1ffF9"/><path d="M78-144l-23 19" stroke-width="9.9" stroke="#fffFB"/><path d="M121-166l21-4" stroke-width="9.9" stroke="#c2e1ffFC"/><path d="M90-146l-10 16" stroke-width="9.9" stroke="#fffFD"/></g></svg>