<svg width="1200" height="675" viewBox="-500 -500 1200 675" xmlns="http://www.w3.org/2000/svg"><path d="M-500-500h1200v675h-1200z" fill="#000"/><style>.sparkles path{stroke-linecap:round}</style><g class="sparkles"><path d="M111-155l11 7" stroke-width="1.0" stroke="#c2e1ff0"/><path d="M93-150l-7 13" stroke-width="1.0" stroke="#fff0"/><path d="M90-147l-10 16" stroke-width="1.1" stroke="#fff5001"/><path d="M88-188l-12-25" stroke-width="1.1" stroke="#c2e1ff3"/><path d="M123-180l22-17" stroke-width="1.1" stroke="#c2e1ff3"/><path d="M136-157l35 5" stroke-width="1.2" stroke="#c2e1ff6"/><path d="M137-162l37 0" stroke-width="1.2" stroke="#fff5006"/><path d="M132-192l33-30" stroke-width="1.3" stroke="#c2e1ff9"/><path d="M129-124l29 38" stroke-width="1.4" stroke="#fffB"/><path d="M59-136l-40 27" stroke-width="1.4" stroke="#fffB"/><path d="M135-124l36 38" stroke-width="1.5" stroke="#c2e1ffD"/><path d="M95-109l-4 54" stroke-width="1.5" stroke="#fffE"/><path d="M79-218l-21-55" stroke-width="1.6" stroke="#c2e1ff11"/><path d="M106-96l6 66" stroke-width="1.8" stroke="#fff16"/><path d="M161-189l62-26" stroke-width="1.8" stroke="#fff50016"/><path d="M129-228l29-66" stroke-width="1.9" stroke="#005bbb1A"/><path d="M87-92l-13 71" stroke-width="1.9" stroke="#fff1A"/><path d="M172-155l72 8" stroke-width="1.9" stroke="#fff1A"/><path d="M46-217l-54-55" stroke-width="2.1" stroke="#fff1E"/><path d="M182-173l82-10" stroke-width="2.3" stroke="#fff50024"/><path d="M64-87l-36 75" stroke-width="2.3" stroke="#c2e1ff24"/><path d="M146-91l46 72" stroke-width="2.4" stroke="#fff27"/><path d="M185-151l84 11" stroke-width="2.4" stroke="#c2e1ff27"/><path d="M51-235l-48-72" stroke-width="2.5" stroke="#fff29"/><path d="M54-86l-46 76" stroke-width="2.6" stroke="#fff2B"/><path d="M186-138l86 24" stroke-width="2.6" stroke="#fff5002B"/><path d="M28-217l-72-54" stroke-width="2.6" stroke="#fff5002D"/><path d="M166-225l65-62" stroke-width="2.6" stroke="#c2e1ff2D"/><path d="M148-239l48-77" stroke-width="2.6" stroke="#005bbb2D"/><path d="M136-79l37 84" stroke-width="2.6" stroke="#c2e1ff2E"/><path d="M101-71l0 92" stroke-width="2.7" stroke="#c2e1ff2F"/><path d="M190-142l91 20" stroke-width="2.7" stroke="#005bbb30"/><path d="M86-70l-13 92" stroke-width="2.7" stroke="#c2e1ff31"/><path d="M191-186l91-24" stroke-width="2.8" stroke="#fff50032"/><path d="M54-245l-46-82" stroke-width="2.8" stroke="#005bbb32"/><path d="M41-237l-59-74" stroke-width="2.8" stroke="#fff33"/><path d="M10-198l-90-35" stroke-width="2.9" stroke="#005bbb36"/><path d="M190-202l91-40" stroke-width="3.0" stroke="#fff50039"/><path d="M175-227l76-65" stroke-width="3.1" stroke="#fff3A"/><path d="M189-118l89 44" stroke-width="3.1" stroke="#fff3A"/><path d="M7-120l-94 42" stroke-width="3.3" stroke="#fff40"/><path d="M201-179l102-16" stroke-width="3.3" stroke="#fff40"/><path d="M57-257l-43-94" stroke-width="3.3" stroke="#fff42"/><path d="M74-265l-26-102" stroke-width="3.5" stroke="#c2e1ff46"/><path d="M-6-155l-105 7" stroke-width="3.5" stroke="#005bbb46"/><path d="M-2-132l-101 31" stroke-width="3.5" stroke="#c2e1ff47"/><path d="M102-56l1 107" stroke-width="3.6" stroke="#c2e1ff48"/><path d="M189-101l88 61" stroke-width="3.7" stroke="#fff5004B"/><path d="M196-212l96-49" stroke-width="3.7" stroke="#005bbb4B"/><path d="M190-223l89-60" stroke-width="3.7" stroke="#c2e1ff4B"/><path d="M21-88l-79 74" stroke-width="3.7" stroke="#c2e1ff4D"/><path d="M46-257l-54-94" stroke-width="3.7" stroke="#fff5004D"/><path d="M160-253l60-91" stroke-width="3.7" stroke="#fff5004D"/><path d="M145-63l45 100" stroke-width="3.8" stroke="#c2e1ff50"/><path d="M-7-193l-106-30" stroke-width="3.9" stroke="#fff50053"/><path d="M121-53l21 109" stroke-width="4.0" stroke="#fff50054"/><path d="M-9-136l-108 27" stroke-width="4.1" stroke="#fff56"/><path d="M-12-170l-113-8" stroke-width="4.1" stroke="#005bbb58"/><path d="M53-265l-47-103" stroke-width="4.2" stroke="#fff5005A"/><path d="M19-242l-80-80" stroke-width="4.2" stroke="#fff5005B"/><path d="M-14-165l-114-2" stroke-width="4.3" stroke="#fff5005E"/><path d="M137-271l37-108" stroke-width="4.4" stroke="#fff5005F"/><path d="M36-67l-63 95" stroke-width="4.4" stroke="#c2e1ff5F"/><path d="M190-234l89-72" stroke-width="4.4" stroke="#c2e1ff61"/><path d="M169-255l68-92" stroke-width="4.4" stroke="#c2e1ff61"/><path d="M14-239l-86-76" stroke-width="4.5" stroke="#fff61"/><path d="M207-204l107-42" stroke-width="4.5" stroke="#fff50062"/><path d="M-13-137l-112 26" stroke-width="4.6" stroke="#c2e1ff64"/><path d="M-16-161l-115 2" stroke-width="4.6" stroke="#fff50064"/><path d="M215-153l115 9" stroke-width="4.6" stroke="#005bbb65"/><path d="M-10-199l-109-37" stroke-width="4.6" stroke="#c2e1ff65"/><path d="M49-59l-51 104" stroke-width="4.6" stroke="#fff50065"/><path d="M-13-135l-113 27" stroke-width="4.7" stroke="#005bbb68"/><path d="M205-113l105 50" stroke-width="4.7" stroke="#005bbb69"/><path d="M143-55l44 108" stroke-width="4.7" stroke="#005bbb69"/><path d="M103-279l3-117" stroke-width="4.9" stroke="#c2e1ff6D"/><path d="M-5-215l-104-52" stroke-width="4.9" stroke="#fff6D"/><path d="M1-100l-99 62" stroke-width="4.9" stroke="#c2e1ff6D"/><path d="M-17-156l-118 7" stroke-width="5.1" stroke="#c2e1ff73"/><path d="M77-278l-24-115" stroke-width="5.1" stroke="#fff73"/><path d="M-16-141l-116 21" stroke-width="5.1" stroke="#fff50074"/><path d="M-14-193l-114-30" stroke-width="5.2" stroke="#005bbb77"/><path d="M169-258l70-95" stroke-width="5.2" stroke="#fff78"/><path d="M217-145l116 18" stroke-width="5.3" stroke="#c2e1ff79"/><path d="M-14-132l-114 31" stroke-width="5.3" stroke="#005bbb79"/><path d="M-9-116l-108 46" stroke-width="5.3" stroke="#fff50079"/><path d="M172-256l72-94" stroke-width="5.4" stroke="#fff5007C"/><path d="M-16-140l-116 22" stroke-width="5.4" stroke="#005bbb7C"/><path d="M179-75l80 87" stroke-width="5.5" stroke="#fff5007E"/><path d="M61-51l-39 111" stroke-width="5.5" stroke="#fff80"/><path d="M-13-127l-112 35" stroke-width="5.7" stroke="#c2e1ff83"/><path d="M88-45l-13 117" stroke-width="5.7" stroke="#c2e1ff85"/><path d="M1-227l-98-65" stroke-width="5.7" stroke="#005bbb86"/><path d="M216-142l116 20" stroke-width="5.8" stroke="#fff87"/><path d="M-14-132l-114 31" stroke-width="5.8" stroke="#fff87"/><path d="M-18-159l-118 4" stroke-width="5.8" stroke="#005bbb88"/><path d="M171-256l70-94" stroke-width="6.0" stroke="#c2e1ff8C"/><path d="M217-160l117 3" stroke-width="6.1" stroke="#fff8F"/><path d="M0-101l-100 61" stroke-width="6.1" stroke="#fff5008F"/><path d="M-1-222l-100-59" stroke-width="6.2" stroke="#c2e1ff92"/><path d="M165-66l66 97" stroke-width="6.2" stroke="#fff50092"/><path d="M217-162l116 1" stroke-width="6.2" stroke="#fff50094"/><path d="M81-277l-19-115" stroke-width="6.3" stroke="#c2e1ff95"/><path d="M201-220l101-58" stroke-width="6.3" stroke="#c2e1ff95"/><path d="M83-48l-16 115" stroke-width="6.4" stroke="#c2e1ff98"/><path d="M192-93l93 69" stroke-width="6.4" stroke="#fff99"/><path d="M179-246l80-84" stroke-width="6.4" stroke="#fff5009A"/><path d="M128-274l29-111" stroke-width="6.5" stroke="#fff9D"/><path d="M19-244l-81-81" stroke-width="6.6" stroke="#c2e1ff9D"/><path d="M170-73l70 89" stroke-width="6.8" stroke="#fffA3"/><path d="M183-239l83-77" stroke-width="6.8" stroke="#fff500A3"/><path d="M-7-198l-108-35" stroke-width="6.8" stroke="#fffA4"/><path d="M95-50l-6 113" stroke-width="6.8" stroke="#c2e1ffA5"/><path d="M155-260l55-97" stroke-width="7.0" stroke="#fffA8"/><path d="M102-51l2 111" stroke-width="7.0" stroke="#c2e1ffA9"/><path d="M129-55l28 108" stroke-width="7.0" stroke="#fffA9"/><path d="M79-272l-20-109" stroke-width="7.0" stroke="#fffAA"/><path d="M203-119l102 43" stroke-width="7.0" stroke="#fffAA"/><path d="M97-273l-4-111" stroke-width="7.0" stroke="#005bbbAB"/><path d="M26-244l-74-82" stroke-width="7.1" stroke="#fffAD"/><path d="M-8-186l-107-24" stroke-width="7.1" stroke="#fff500AD"/><path d="M50-64l-50 98" stroke-width="7.1" stroke="#fffAD"/><path d="M0-207l-100-45" stroke-width="7.2" stroke="#005bbbAE"/><path d="M-7-188l-106-26" stroke-width="7.2" stroke="#fffAE"/><path d="M134-266l34-103" stroke-width="7.2" stroke="#fff500B0"/><path d="M-8-172l-109-9" stroke-width="7.3" stroke="#fffB1"/><path d="M199-206l100-44" stroke-width="7.3" stroke="#fff500B1"/><path d="M208-162l108 0" stroke-width="7.3" stroke="#fffB2"/><path d="M175-85l75 77" stroke-width="7.3" stroke="#fffB3"/><path d="M78-265l-23-102" stroke-width="7.6" stroke="#fff500BA"/><path d="M14-222l-86-60" stroke-width="7.6" stroke="#fff500BA"/><path d="M117-265l17-103" stroke-width="7.6" stroke="#fffBB"/><path d="M28-235l-72-72" stroke-width="7.8" stroke="#fffBF"/><path d="M27-91l-72 72" stroke-width="7.8" stroke="#c2e1ffBF"/><path d="M125-261l25-99" stroke-width="7.8" stroke="#005bbbC0"/><path d="M169-236l68-73" stroke-width="7.9" stroke="#c2e1ffC2"/><path d="M193-196l92-34" stroke-width="8.0" stroke="#fffC5"/><path d="M198-163l97 0" stroke-width="8.0" stroke="#fff500C7"/><path d="M63-252l-37-89" stroke-width="8.1" stroke="#fff500C8"/><path d="M181-111l82 51" stroke-width="8.1" stroke="#fff500C9"/><path d="M191-194l91-32" stroke-width="8.1" stroke="#c2e1ffC9"/><path d="M191-134l91 29" stroke-width="8.1" stroke="#fffCA"/><path d="M153-241l53-78" stroke-width="8.2" stroke="#fffCB"/><path d="M157-237l57-75" stroke-width="8.2" stroke="#005bbbCD"/><path d="M21-211l-79-48" stroke-width="8.3" stroke="#fffCE"/><path d="M22-113l-78 49" stroke-width="8.3" stroke="#c2e1ffCF"/><path d="M58-244l-42-82" stroke-width="8.3" stroke="#005bbbCF"/><path d="M187-138l87 25" stroke-width="8.4" stroke="#005bbbD1"/><path d="M156-92l55 70" stroke-width="8.4" stroke="#fff500D2"/><path d="M16-136l-84 26" stroke-width="8.5" stroke="#005bbbD4"/><path d="M184-187l85-24" stroke-width="8.5" stroke="#fffD4"/><path d="M41-227l-60-65" stroke-width="8.5" stroke="#fff500D4"/><path d="M187-161l88 1" stroke-width="8.5" stroke="#005bbbD5"/><path d="M47-95l-53 67" stroke-width="8.6" stroke="#fff500D7"/><path d="M44-98l-56 64" stroke-width="8.6" stroke="#c2e1ffD8"/><path d="M34-110l-65 52" stroke-width="8.7" stroke="#005bbbD9"/><path d="M163-108l63 55" stroke-width="8.7" stroke="#c2e1ffD9"/><path d="M163-108l62 54" stroke-width="8.7" stroke="#fffDA"/><path d="M173-201l73-38" stroke-width="8.7" stroke="#fffDA"/><path d="M182-160l82 2" stroke-width="8.7" stroke="#fff500DB"/><path d="M76-87l-24 76" stroke-width="8.8" stroke="#005bbbDD"/><path d="M177-146l77 16" stroke-width="8.9" stroke="#fff500DE"/><path d="M175-170l76-7" stroke-width="9.0" stroke="#005bbbE1"/><path d="M167-198l67-36" stroke-width="9.0" stroke="#c2e1ffE1"/><path d="M119-90l19 73" stroke-width="9.0" stroke="#fffE1"/><path d="M130-231l29-68" stroke-width="9.0" stroke="#fff500E2"/><path d="M129-229l29-66" stroke-width="9.1" stroke="#fffE4"/><path d="M151-112l50 51" stroke-width="9.1" stroke="#005bbbE4"/><path d="M40-125l-61 37" stroke-width="9.1" stroke="#c2e1ffE5"/><path d="M107-232l7-69" stroke-width="9.1" stroke="#c2e1ffE6"/><path d="M106-231l6-69" stroke-width="9.1" stroke="#c2e1ffE6"/><path d="M95-231l-6-69" stroke-width="9.2" stroke="#fffE6"/><path d="M147-206l47-44" stroke-width="9.3" stroke="#fffEA"/><path d="M157-188l57-25" stroke-width="9.3" stroke="#fffEB"/><path d="M43-151l-58 12" stroke-width="9.4" stroke="#005bbbEE"/><path d="M62-125l-38 37" stroke-width="9.5" stroke="#fffF1"/><path d="M119-132l18 31" stroke-width="9.8" stroke="#005bbbF8"/><path d="M72-149l-28 13" stroke-width="9.8" stroke="#c2e1ffFA"/><path d="M111-177l10-14" stroke-width="9.9" stroke="#fff500FD"/><path d="M113-163l13-1" stroke-width="10.0" stroke="#fffFE"/><path d="M88-165l-13-2" stroke-width="10.0" stroke="#005bbbFE"/></g></svg>