<svg width="1200" height="675" viewBox="-500 -500 1200 675" xmlns="http://www.w3.org/2000/svg"><path d="M-500-500h1200v675h-1200z" fill="#000"/><style>.sparkles path{stroke-linecap:round}</style><g class="sparkles"><path d="M89-189l-11-26" stroke-width="1.1" stroke="#EF8F883"/><path d="M133-179l32-16" stroke-width="1.2" stroke="#EFF7F56"/><path d="M108-202l9-40" stroke-width="1.3" stroke="#FFFFFF7"/><path d="M119-203l19-40" stroke-width="1.3" stroke="#EFF7F59"/><path d="M139-140l39 22" stroke-width="1.3" stroke="#F6C8AC9"/><path d="M135-119l35 43" stroke-width="1.5" stroke="#EF8F88E"/><path d="M43-147l-58 16" stroke-width="1.6" stroke="#F6C8AC11"/><path d="M52-200l-48-38" stroke-width="1.6" stroke="#2C4D5D12"/><path d="M41-146l-59 16" stroke-width="1.7" stroke="#EF8F8812"/><path d="M143-207l43-44" stroke-width="1.7" stroke="#F6C8AC12"/><path d="M161-173l62-11" stroke-width="1.7" stroke="#F6C8AC13"/><path d="M59-218l-41-56" stroke-width="1.9" stroke="#EFF7F518"/><path d="M67-224l-34-62" stroke-width="1.9" stroke="#F6C8AC18"/><path d="M53-215l-47-52" stroke-width="1.9" stroke="#2C4D5D18"/><path d="M27-146l-73 17" stroke-width="2.0" stroke="#2C4D5D1C"/><path d="M104-237l4-75" stroke-width="2.0" stroke="#F6C8AC1C"/><path d="M77-87l-23 76" stroke-width="2.2" stroke="#FFFFFF20"/><path d="M140-232l41-70" stroke-width="2.2" stroke="#2C4D5D22"/><path d="M43-106l-58 57" stroke-width="2.2" stroke="#EF8F8822"/><path d="M33-212l-67-49" stroke-width="2.3" stroke="#EFF7F524"/><path d="M59-90l-40 73" stroke-width="2.3" stroke="#EF8F8824"/><path d="M92-79l-7 83" stroke-width="2.3" stroke="#EFF7F525"/><path d="M167-215l66-53" stroke-width="2.4" stroke="#6E819E27"/><path d="M166-216l66-54" stroke-width="2.4" stroke="#6E819E27"/><path d="M156-227l56-65" stroke-width="2.4" stroke="#2C4D5D27"/><path d="M25-111l-75 51" stroke-width="2.6" stroke="#F6C8AC2E"/><path d="M103-254l3-91" stroke-width="2.6" stroke="#FFFFFF2E"/><path d="M62-246l-38-84" stroke-width="2.7" stroke="#6E819E2F"/><path d="M83-254l-17-91" stroke-width="2.7" stroke="#2C4D5D30"/><path d="M24-216l-76-54" stroke-width="2.7" stroke="#EFF7F531"/><path d="M135-76l35 87" stroke-width="2.7" stroke="#6E819E31"/><path d="M196-187l95-25" stroke-width="3.0" stroke="#F6C8AC39"/><path d="M129-258l29-95" stroke-width="3.1" stroke="#FFFFFF3B"/><path d="M198-142l98 20" stroke-width="3.1" stroke="#FFFFFF3C"/><path d="M112-264l12-101" stroke-width="3.2" stroke="#FFFFFF3F"/><path d="M53-72l-46 91" stroke-width="3.2" stroke="#F6C8AC3F"/><path d="M189-112l88 51" stroke-width="3.2" stroke="#FFFFFF3F"/><path d="M42-247l-57-85" stroke-width="3.3" stroke="#FFFFFF40"/><path d="M90-60l-10 102" stroke-width="3.3" stroke="#EFF7F540"/><path d="M191-114l91 48" stroke-width="3.3" stroke="#F6C8AC41"/><path d="M10-110l-90 52" stroke-width="3.4" stroke="#2C4D5D43"/><path d="M201-126l100 37" stroke-width="3.6" stroke="#F6C8AC49"/><path d="M21-90l-80 72" stroke-width="3.6" stroke="#6E819E4A"/><path d="M1-121l-99 42" stroke-width="3.6" stroke="#F6C8AC4A"/><path d="M-8-176l-108-13" stroke-width="3.7" stroke="#EF8F884D"/><path d="M36-74l-64 88" stroke-width="3.8" stroke="#2C4D5D4D"/><path d="M164-73l63 89" stroke-width="3.8" stroke="#EFF7F54F"/><path d="M61-59l-39 103" stroke-width="3.9" stroke="#EF8F8851"/><path d="M196-107l95 55" stroke-width="3.9" stroke="#F6C8AC52"/><path d="M205-198l105-36" stroke-width="3.9" stroke="#EF8F8852"/><path d="M207-193l106-30" stroke-width="3.9" stroke="#EF8F8853"/><path d="M23-243l-76-80" stroke-width="3.9" stroke="#6E819E53"/><path d="M175-80l75 82" stroke-width="4.0" stroke="#FFFFFF55"/><path d="M90-51l-10 111" stroke-width="4.0" stroke="#FFFFFF55"/><path d="M110-51l9 111" stroke-width="4.1" stroke="#6E819E56"/><path d="M-12-173l-113-10" stroke-width="4.2" stroke="#2C4D5D59"/><path d="M43-65l-58 98" stroke-width="4.2" stroke="#2C4D5D5B"/><path d="M132-272l33-109" stroke-width="4.3" stroke="#F6C8AC5E"/><path d="M114-276l13-114" stroke-width="4.4" stroke="#F6C8AC5F"/><path d="M214-168l115-5" stroke-width="4.4" stroke="#EFF7F560"/><path d="M129-51l29 111" stroke-width="4.5" stroke="#F6C8AC63"/><path d="M22-247l-79-85" stroke-width="4.5" stroke="#EFF7F564"/><path d="M57-270l-43-107" stroke-width="4.6" stroke="#EF8F8864"/><path d="M75-50l-25 113" stroke-width="4.6" stroke="#FFFFFF65"/><path d="M126-275l25-113" stroke-width="4.6" stroke="#EF8F8866"/><path d="M165-67l66 96" stroke-width="4.7" stroke="#6E819E68"/><path d="M215-181l114-19" stroke-width="4.7" stroke="#EFF7F568"/><path d="M21-76l-78 86" stroke-width="4.8" stroke="#6E819E6A"/><path d="M-4-217l-104-54" stroke-width="4.9" stroke="#EFF7F56F"/><path d="M-10-204l-110-41" stroke-width="5.0" stroke="#F6C8AC70"/><path d="M31-68l-69 95" stroke-width="5.0" stroke="#EFF7F570"/><path d="M-6-213l-106-50" stroke-width="5.0" stroke="#EFF7F571"/><path d="M212-126l111 37" stroke-width="5.0" stroke="#FFFFFF71"/><path d="M42-61l-59 102" stroke-width="5.1" stroke="#EFF7F572"/><path d="M15-81l-84 82" stroke-width="5.2" stroke="#FFFFFF76"/><path d="M212-127l113 35" stroke-width="5.2" stroke="#EF8F8876"/><path d="M136-50l36 112" stroke-width="5.2" stroke="#F6C8AC78"/><path d="M215-138l116 25" stroke-width="5.2" stroke="#F6C8AC78"/><path d="M26-71l-75 92" stroke-width="5.3" stroke="#2C4D5D78"/><path d="M33-259l-68-97" stroke-width="5.3" stroke="#F6C8AC7A"/><path d="M201-101l101 61" stroke-width="5.3" stroke="#FFFFFF7A"/><path d="M70-277l-30-114" stroke-width="5.3" stroke="#F6C8AC7A"/><path d="M19-77l-81 86" stroke-width="5.4" stroke="#EF8F887C"/><path d="M197-95l97 68" stroke-width="5.4" stroke="#2C4D5D7C"/><path d="M194-91l94 72" stroke-width="5.5" stroke="#EF8F887E"/><path d="M29-68l-71 94" stroke-width="5.6" stroke="#F6C8AC81"/><path d="M162-62l61 101" stroke-width="5.6" stroke="#FFFFFF82"/><path d="M82-46l-19 117" stroke-width="5.6" stroke="#EFF7F583"/><path d="M210-205l110-43" stroke-width="5.7" stroke="#2C4D5D84"/><path d="M79-46l-21 116" stroke-width="5.7" stroke="#EFF7F585"/><path d="M20-249l-81-86" stroke-width="5.7" stroke="#EF8F8885"/><path d="M143-272l43-110" stroke-width="5.8" stroke="#F6C8AC87"/><path d="M175-253l76-91" stroke-width="5.8" stroke="#FFFFFF88"/><path d="M8-236l-91-74" stroke-width="5.8" stroke="#F6C8AC88"/><path d="M159-264l59-102" stroke-width="5.8" stroke="#2C4D5D89"/><path d="M-11-123l-111 39" stroke-width="5.8" stroke="#6E819E89"/><path d="M-10-121l-110 41" stroke-width="5.9" stroke="#6E819E89"/><path d="M216-143l116 20" stroke-width="5.9" stroke="#FFFFFF89"/><path d="M190-238l90-76" stroke-width="5.9" stroke="#EF8F888B"/><path d="M147-270l46-108" stroke-width="5.9" stroke="#FFFFFF8B"/><path d="M139-273l38-111" stroke-width="6.0" stroke="#2C4D5D8D"/><path d="M97-45l-4 117" stroke-width="6.1" stroke="#EFF7F58F"/><path d="M84-278l-17-116" stroke-width="6.1" stroke="#EF8F8891"/><path d="M96-46l-4 116" stroke-width="6.3" stroke="#F6C8AC94"/><path d="M168-257l67-94" stroke-width="6.3" stroke="#FFFFFF96"/><path d="M189-237l89-74" stroke-width="6.4" stroke="#EFF7F598"/><path d="M177-249l77-86" stroke-width="6.4" stroke="#6E819E9A"/><path d="M3-100l-98 62" stroke-width="6.4" stroke="#EFF7F59A"/><path d="M-11-193l-111-31" stroke-width="6.5" stroke="#EF8F889A"/><path d="M106-48l7 115" stroke-width="6.5" stroke="#EFF7F59C"/><path d="M-2-109l-102 53" stroke-width="6.6" stroke="#F6C8AC9D"/><path d="M125-275l25-112" stroke-width="6.6" stroke="#EFF7F59D"/><path d="M202-110l102 53" stroke-width="6.6" stroke="#2C4D5D9D"/><path d="M91-277l-9-114" stroke-width="6.6" stroke="#EFF7F59E"/><path d="M167-72l68 91" stroke-width="6.8" stroke="#6E819EA3"/><path d="M65-56l-36 106" stroke-width="6.9" stroke="#F6C8ACA7"/><path d="M196-105l97 57" stroke-width="6.9" stroke="#EFF7F5A7"/><path d="M82-273l-18-110" stroke-width="7.0" stroke="#6E819EA9"/><path d="M165-72l64 90" stroke-width="7.0" stroke="#EFF7F5AB"/><path d="M168-250l68-88" stroke-width="7.1" stroke="#6E819EAB"/><path d="M205-197l105-35" stroke-width="7.1" stroke="#FFFFFFAB"/><path d="M121-271l22-108" stroke-width="7.1" stroke="#EF8F88AC"/><path d="M61-60l-39 103" stroke-width="7.1" stroke="#EF8F88AE"/><path d="M56-263l-45-101" stroke-width="7.2" stroke="#F6C8ACAE"/><path d="M84-55l-16 108" stroke-width="7.3" stroke="#EFF7F5B1"/><path d="M53-261l-47-98" stroke-width="7.3" stroke="#2C4D5DB1"/><path d="M209-162l108 0" stroke-width="7.3" stroke="#F6C8ACB1"/><path d="M161-252l61-89" stroke-width="7.3" stroke="#EF8F88B3"/><path d="M43-254l-56-92" stroke-width="7.4" stroke="#EF8F88B4"/><path d="M145-259l46-97" stroke-width="7.4" stroke="#6E819EB5"/><path d="M191-218l92-55" stroke-width="7.4" stroke="#EFF7F5B6"/><path d="M95-268l-5-106" stroke-width="7.5" stroke="#2C4D5DB8"/><path d="M77-265l-22-102" stroke-width="7.6" stroke="#EFF7F5BA"/><path d="M-2-141l-102 22" stroke-width="7.6" stroke="#EFF7F5BB"/><path d="M148-72l48 90" stroke-width="7.8" stroke="#FFFFFFBF"/><path d="M187-213l88-51" stroke-width="7.8" stroke="#6E819EC1"/><path d="M41-81l-58 81" stroke-width="7.9" stroke="#EFF7F5C3"/><path d="M110-63l9 99" stroke-width="7.9" stroke="#EFF7F5C3"/><path d="M182-107l82 55" stroke-width="8.0" stroke="#2C4D5DC4"/><path d="M63-71l-36 91" stroke-width="8.0" stroke="#EF8F88C5"/><path d="M197-165l98-2" stroke-width="8.0" stroke="#EF8F88C7"/><path d="M146-248l46-86" stroke-width="8.1" stroke="#EFF7F5C8"/><path d="M163-89l62 74" stroke-width="8.1" stroke="#6E819EC8"/><path d="M26-102l-74 60" stroke-width="8.1" stroke="#2C4D5DCA"/><path d="M31-97l-68 65" stroke-width="8.2" stroke="#EFF7F5CB"/><path d="M146-242l47-79" stroke-width="8.3" stroke="#EFF7F5CF"/><path d="M191-159l91 3" stroke-width="8.4" stroke="#EF8F88D0"/><path d="M18-203l-81-41" stroke-width="8.4" stroke="#F6C8ACD0"/><path d="M95-253l-5-91" stroke-width="8.4" stroke="#6E819ED0"/><path d="M80-76l-20 86" stroke-width="8.5" stroke="#EF8F88D3"/><path d="M180-197l80-35" stroke-width="8.5" stroke="#EF8F88D5"/><path d="M128-83l27 79" stroke-width="8.7" stroke="#EF8F88D9"/><path d="M23-133l-77 29" stroke-width="8.7" stroke="#6E819EDA"/><path d="M85-242l-16-79" stroke-width="8.8" stroke="#F6C8ACDC"/><path d="M172-198l71-35" stroke-width="8.8" stroke="#6E819EDD"/><path d="M55-227l-46-65" stroke-width="8.8" stroke="#EF8F88DE"/><path d="M44-217l-56-55" stroke-width="8.9" stroke="#2C4D5DDF"/><path d="M170-197l69-35" stroke-width="8.9" stroke="#2C4D5DDF"/><path d="M32-127l-69 36" stroke-width="8.9" stroke="#EF8F88DF"/><path d="M175-147l75 16" stroke-width="8.9" stroke="#EF8F88E0"/><path d="M61-98l-39 65" stroke-width="9.0" stroke="#FFFFFFE1"/><path d="M126-233l27-71" stroke-width="9.0" stroke="#EFF7F5E1"/><path d="M137-228l37-65" stroke-width="9.0" stroke="#6E819EE2"/><path d="M82-228l-18-66" stroke-width="9.2" stroke="#2C4D5DE7"/><path d="M155-203l55-40" stroke-width="9.2" stroke="#2C4D5DE7"/><path d="M133-105l33 57" stroke-width="9.2" stroke="#EFF7F5E9"/><path d="M69-219l-30-57" stroke-width="9.3" stroke="#EF8F88EA"/><path d="M95-225l-4-63" stroke-width="9.3" stroke="#2C4D5DEB"/><path d="M61-210l-39-47" stroke-width="9.3" stroke="#2C4D5DEC"/><path d="M46-192l-53-29" stroke-width="9.4" stroke="#EFF7F5EC"/><path d="M63-211l-36-48" stroke-width="9.4" stroke="#EFF7F5EC"/><path d="M97-218l-3-56" stroke-width="9.5" stroke="#6E819EEF"/><path d="M133-207l32-45" stroke-width="9.5" stroke="#EF8F88EF"/><path d="M69-199l-30-37" stroke-width="9.6" stroke="#EF8F88F4"/><path d="M108-207l8-45" stroke-width="9.7" stroke="#6E819EF5"/><path d="M84-125l-17 38" stroke-width="9.7" stroke="#EFF7F5F6"/><path d="M123-192l22-30" stroke-width="9.8" stroke="#6E819EF8"/><path d="M78-136l-22 26" stroke-width="9.8" stroke="#EF8F88F9"/><path d="M122-185l22-23" stroke-width="9.8" stroke="#6E819EFA"/><path d="M82-166l-19-3" stroke-width="9.9" stroke="#6E819EFD"/><path d="M98-172l-2-9" stroke-width="10.0" stroke="#FFFFFFFE"/></g></svg>