<svg width="1200" height="675" viewBox="-500 -500 1200 675" xmlns="http://www.w3.org/2000/svg"><path d="M-500-500h1200v675h-1200z" fill="#000"/><style>.sparkles path{stroke-linecap:round}</style><g class="sparkles"><path d="M116-167l15-4" stroke-width="1.0" stroke="#c2e1ff1"/><path d="M99-140l-2 23" stroke-width="1.1" stroke="#fff5002"/><path d="M92-139l-9 23" stroke-width="1.1" stroke="#c2e1ff2"/><path d="M79-146l-21 16" stroke-width="1.1" stroke="#c2e1ff3"/><path d="M121-136l22 27" stroke-width="1.2" stroke="#fff5005"/><path d="M108-127l8 35" stroke-width="1.2" stroke="#fff5006"/><path d="M135-139l35 24" stroke-width="1.3" stroke="#c2e1ff8"/><path d="M95-206l-5-43" stroke-width="1.3" stroke="#005bbb9"/><path d="M71-197l-29-34" stroke-width="1.3" stroke="#005bbb9"/><path d="M135-131l35 31" stroke-width="1.4" stroke="#fff500A"/><path d="M53-160l-47 3" stroke-width="1.4" stroke="#fff500A"/><path d="M114-115l15 48" stroke-width="1.4" stroke="#fff500B"/><path d="M147-181l47-18" stroke-width="1.4" stroke="#005bbbC"/><path d="M89-112l-11 51" stroke-width="1.5" stroke="#c2e1ffC"/><path d="M48-163l-52 0" stroke-width="1.5" stroke="#c2e1ffC"/><path d="M59-130l-40 33" stroke-width="1.5" stroke="#c2e1ffD"/><path d="M96-108l-4 55" stroke-width="1.5" stroke="#fff500E"/><path d="M87-218l-14-55" stroke-width="1.6" stroke="#c2e1ffF"/><path d="M136-210l36-48" stroke-width="1.6" stroke="#fff50011"/><path d="M136-111l37 51" stroke-width="1.7" stroke="#fff50013"/><path d="M143-116l42 47" stroke-width="1.7" stroke="#005bbb13"/><path d="M118-101l19 61" stroke-width="1.7" stroke="#fff50014"/><path d="M149-121l50 42" stroke-width="1.7" stroke="#fff14"/><path d="M126-101l26 62" stroke-width="1.8" stroke="#fff50016"/><path d="M164-136l64 27" stroke-width="1.9" stroke="#005bbb18"/><path d="M30-148l-70 15" stroke-width="1.9" stroke="#fff19"/><path d="M33-136l-67 27" stroke-width="1.9" stroke="#005bbb1A"/><path d="M67-227l-33-65" stroke-width="2.0" stroke="#c2e1ff1A"/><path d="M138-225l38-63" stroke-width="2.0" stroke="#fff5001B"/><path d="M25-155l-75 8" stroke-width="2.0" stroke="#fff1D"/><path d="M156-213l56-51" stroke-width="2.0" stroke="#fff1D"/><path d="M159-113l60 49" stroke-width="2.1" stroke="#c2e1ff1E"/><path d="M28-196l-73-34" stroke-width="2.2" stroke="#005bbb21"/><path d="M118-84l18 78" stroke-width="2.2" stroke="#c2e1ff22"/><path d="M158-106l58 56" stroke-width="2.2" stroke="#005bbb22"/><path d="M48-225l-53-62" stroke-width="2.2" stroke="#fff23"/><path d="M127-84l28 79" stroke-width="2.3" stroke="#005bbb25"/><path d="M87-78l-13 84" stroke-width="2.4" stroke="#005bbb27"/><path d="M148-234l47-71" stroke-width="2.4" stroke="#005bbb27"/><path d="M15-143l-85 20" stroke-width="2.5" stroke="#fff50029"/><path d="M183-195l82-32" stroke-width="2.5" stroke="#c2e1ff2B"/><path d="M172-214l73-52" stroke-width="2.5" stroke="#fff2B"/><path d="M44-92l-55 71" stroke-width="2.6" stroke="#fff5002C"/><path d="M16-128l-84 34" stroke-width="2.6" stroke="#c2e1ff2D"/><path d="M172-105l72 58" stroke-width="2.7" stroke="#fff2F"/><path d="M9-145l-90 17" stroke-width="2.7" stroke="#fff5002F"/><path d="M16-125l-85 38" stroke-width="2.7" stroke="#c2e1ff30"/><path d="M61-247l-38-85" stroke-width="2.7" stroke="#005bbb31"/><path d="M17-119l-84 43" stroke-width="2.8" stroke="#fff50032"/><path d="M91-69l-8 94" stroke-width="2.8" stroke="#c2e1ff32"/><path d="M191-135l90 28" stroke-width="2.8" stroke="#c2e1ff33"/><path d="M64-74l-36 89" stroke-width="2.9" stroke="#c2e1ff34"/><path d="M150-81l51 82" stroke-width="2.9" stroke="#c2e1ff35"/><path d="M164-235l64-72" stroke-width="2.9" stroke="#c2e1ff36"/><path d="M3-172l-97-9" stroke-width="2.9" stroke="#fff50037"/><path d="M26-99l-75 63" stroke-width="3.0" stroke="#005bbb37"/><path d="M2-150l-99 12" stroke-width="3.1" stroke="#005bbb3A"/><path d="M162-84l63 79" stroke-width="3.1" stroke="#fff3B"/><path d="M25-96l-74 67" stroke-width="3.1" stroke="#c2e1ff3C"/><path d="M181-224l82-61" stroke-width="3.2" stroke="#c2e1ff3E"/><path d="M71-260l-30-98" stroke-width="3.2" stroke="#fff5003F"/><path d="M3-131l-98 31" stroke-width="3.2" stroke="#c2e1ff3F"/><path d="M152-70l51 93" stroke-width="3.5" stroke="#fff47"/><path d="M49-70l-51 93" stroke-width="3.5" stroke="#fff47"/><path d="M185-232l84-70" stroke-width="3.8" stroke="#005bbb50"/><path d="M179-86l78 77" stroke-width="3.8" stroke="#fff50"/><path d="M148-63l48 100" stroke-width="3.9" stroke="#005bbb52"/><path d="M210-179l109-17" stroke-width="3.9" stroke="#005bbb53"/><path d="M25-245l-75-83" stroke-width="4.1" stroke="#fff56"/><path d="M-8-193l-108-30" stroke-width="4.1" stroke="#005bbb57"/><path d="M210-138l109 25" stroke-width="4.1" stroke="#fff58"/><path d="M-2-115l-101 48" stroke-width="4.1" stroke="#fff58"/><path d="M75-272l-25-110" stroke-width="4.1" stroke="#c2e1ff58"/><path d="M134-270l33-108" stroke-width="4.2" stroke="#fff50059"/><path d="M206-202l106-39" stroke-width="4.2" stroke="#fff5005B"/><path d="M28-75l-71 88" stroke-width="4.2" stroke="#005bbb5B"/><path d="M195-101l96 62" stroke-width="4.3" stroke="#fff5C"/><path d="M209-129l109 33" stroke-width="4.3" stroke="#005bbb5D"/><path d="M206-121l107 42" stroke-width="4.4" stroke="#fff5F"/><path d="M72-274l-28-112" stroke-width="4.5" stroke="#fff62"/><path d="M20-245l-81-83" stroke-width="4.5" stroke="#c2e1ff63"/><path d="M23-76l-76 86" stroke-width="4.6" stroke="#fff65"/><path d="M5-96l-96 66" stroke-width="4.6" stroke="#fff67"/><path d="M51-268l-48-106" stroke-width="4.8" stroke="#005bbb6A"/><path d="M155-60l55 103" stroke-width="4.8" stroke="#005bbb6B"/><path d="M217-161l117 2" stroke-width="4.8" stroke="#005bbb6C"/><path d="M5-95l-96 68" stroke-width="4.8" stroke="#005bbb6C"/><path d="M29-256l-70-94" stroke-width="4.9" stroke="#fff5006F"/><path d="M175-253l76-91" stroke-width="5.2" stroke="#c2e1ff78"/><path d="M137-275l37-112" stroke-width="5.3" stroke="#fff50079"/><path d="M213-197l113-35" stroke-width="5.3" stroke="#fff7B"/><path d="M104-281l4-118" stroke-width="5.4" stroke="#c2e1ff7D"/><path d="M-10-206l-110-44" stroke-width="5.4" stroke="#fff7D"/><path d="M16-79l-84 83" stroke-width="5.4" stroke="#005bbb7D"/><path d="M108-280l8-118" stroke-width="5.5" stroke="#c2e1ff7F"/><path d="M-17-177l-117-15" stroke-width="5.5" stroke="#c2e1ff7F"/><path d="M216-143l117 20" stroke-width="5.6" stroke="#c2e1ff82"/><path d="M1-227l-99-65" stroke-width="5.6" stroke="#fff50082"/><path d="M103-281l3-118" stroke-width="5.6" stroke="#005bbb82"/><path d="M-16-142l-117 20" stroke-width="5.7" stroke="#005bbb85"/><path d="M-17-178l-117-16" stroke-width="5.7" stroke="#005bbb85"/><path d="M139-51l40 111" stroke-width="5.8" stroke="#fff50086"/><path d="M95-45l-4 118" stroke-width="5.9" stroke="#fff50089"/><path d="M-13-196l-112-34" stroke-width="5.9" stroke="#005bbb8A"/><path d="M199-226l98-64" stroke-width="5.9" stroke="#fff5008B"/><path d="M114-279l13-117" stroke-width="5.9" stroke="#005bbb8C"/><path d="M201-102l101 60" stroke-width="6.0" stroke="#c2e1ff8D"/><path d="M211-201l111-38" stroke-width="6.0" stroke="#005bbb8D"/><path d="M192-90l93 72" stroke-width="6.0" stroke="#fff8E"/><path d="M121-48l22 115" stroke-width="6.2" stroke="#fff92"/><path d="M175-251l76-88" stroke-width="6.3" stroke="#005bbb96"/><path d="M202-107l101 56" stroke-width="6.3" stroke="#fff50096"/><path d="M200-104l101 58" stroke-width="6.3" stroke="#005bbb97"/><path d="M-11-129l-111 34" stroke-width="6.4" stroke="#005bbb97"/><path d="M16-243l-83-80" stroke-width="6.4" stroke="#005bbb98"/><path d="M201-218l102-56" stroke-width="6.4" stroke="#c2e1ff99"/><path d="M4-226l-96-63" stroke-width="6.5" stroke="#fff5009B"/><path d="M41-63l-58 99" stroke-width="6.5" stroke="#fff9C"/><path d="M201-215l100-52" stroke-width="6.8" stroke="#fffA3"/><path d="M150-62l49 101" stroke-width="6.9" stroke="#c2e1ffA6"/><path d="M138-57l39 106" stroke-width="6.9" stroke="#005bbbA6"/><path d="M190-95l89 67" stroke-width="6.9" stroke="#c2e1ffA7"/><path d="M131-55l30 107" stroke-width="7.0" stroke="#c2e1ffA9"/><path d="M61-58l-38 105" stroke-width="7.0" stroke="#fffA9"/><path d="M116-273l16-110" stroke-width="7.0" stroke="#005bbbAA"/><path d="M77-54l-24 108" stroke-width="7.1" stroke="#005bbbAC"/><path d="M195-107l95 56" stroke-width="7.2" stroke="#c2e1ffAE"/><path d="M105-54l6 109" stroke-width="7.2" stroke="#fffB0"/><path d="M90-55l-9 108" stroke-width="7.3" stroke="#005bbbB3"/><path d="M161-251l61-88" stroke-width="7.4" stroke="#fffB4"/><path d="M178-235l77-72" stroke-width="7.5" stroke="#c2e1ffB7"/><path d="M153-72l54 90" stroke-width="7.6" stroke="#005bbbBA"/><path d="M9-110l-90 52" stroke-width="7.6" stroke="#fff500BA"/><path d="M5-206l-95-43" stroke-width="7.6" stroke="#005bbbBB"/><path d="M22-93l-78 69" stroke-width="7.6" stroke="#c2e1ffBB"/><path d="M7-211l-92-48" stroke-width="7.6" stroke="#fff500BB"/><path d="M6-120l-94 43" stroke-width="7.7" stroke="#fffBD"/><path d="M48-251l-52-89" stroke-width="7.7" stroke="#fff500BE"/><path d="M190-209l90-46" stroke-width="7.8" stroke="#c2e1ffC1"/><path d="M154-78l54 85" stroke-width="7.9" stroke="#fff500C2"/><path d="M45-79l-55 83" stroke-width="7.9" stroke="#fff500C3"/><path d="M120-67l20 96" stroke-width="8.0" stroke="#fffC6"/><path d="M51-79l-49 84" stroke-width="8.1" stroke="#fffC8"/><path d="M173-224l73-61" stroke-width="8.2" stroke="#fffCA"/><path d="M192-186l91-24" stroke-width="8.2" stroke="#005bbbCB"/><path d="M117-254l18-91" stroke-width="8.3" stroke="#fff500CE"/><path d="M163-94l63 68" stroke-width="8.3" stroke="#005bbbCE"/><path d="M70-249l-30-87" stroke-width="8.3" stroke="#fffCF"/><path d="M186-194l86-32" stroke-width="8.3" stroke="#005bbbCF"/><path d="M190-176l89-13" stroke-width="8.4" stroke="#005bbbD1"/><path d="M190-166l91-4" stroke-width="8.4" stroke="#fff500D1"/><path d="M180-204l79-42" stroke-width="8.4" stroke="#005bbbD2"/><path d="M190-162l89 0" stroke-width="8.4" stroke="#005bbbD2"/><path d="M109-251l10-88" stroke-width="8.5" stroke="#fff500D3"/><path d="M85-249l-16-87" stroke-width="8.5" stroke="#fffD4"/><path d="M186-155l85 8" stroke-width="8.6" stroke="#fffD6"/><path d="M127-244l27-81" stroke-width="8.6" stroke="#fff500D7"/><path d="M172-209l71-46" stroke-width="8.6" stroke="#005bbbD7"/><path d="M164-217l63-54" stroke-width="8.7" stroke="#fff500D9"/><path d="M138-237l38-74" stroke-width="8.7" stroke="#fffDA"/><path d="M67-98l-34 65" stroke-width="9.0" stroke="#fffE3"/><path d="M29-175l-71-12" stroke-width="9.1" stroke="#c2e1ffE4"/><path d="M109-91l9 71" stroke-width="9.1" stroke="#c2e1ffE4"/><path d="M33-185l-66-23" stroke-width="9.1" stroke="#fff500E5"/><path d="M60-220l-40-57" stroke-width="9.1" stroke="#005bbbE6"/><path d="M72-99l-29 63" stroke-width="9.1" stroke="#005bbbE6"/><path d="M51-116l-48 47" stroke-width="9.2" stroke="#c2e1ffE8"/><path d="M162-145l63 17" stroke-width="9.3" stroke="#c2e1ffEA"/><path d="M122-102l23 60" stroke-width="9.3" stroke="#fffEA"/><path d="M160-144l60 19" stroke-width="9.3" stroke="#fffEB"/><path d="M39-178l-60-15" stroke-width="9.3" stroke="#005bbbEB"/><path d="M41-173l-60-11" stroke-width="9.4" stroke="#005bbbED"/><path d="M93-109l-6 54" stroke-width="9.5" stroke="#005bbbF0"/><path d="M122-205l22-42" stroke-width="9.6" stroke="#fffF4"/><path d="M146-157l46 5" stroke-width="9.6" stroke="#fffF4"/><path d="M67-134l-33 29" stroke-width="9.7" stroke="#c2e1ffF5"/><path d="M92-120l-7 42" stroke-width="9.7" stroke="#c2e1ffF6"/><path d="M139-163l39-1" stroke-width="9.7" stroke="#005bbbF7"/><path d="M86-187l-14-24" stroke-width="9.9" stroke="#fff500FB"/><path d="M85-147l-16 16" stroke-width="9.9" stroke="#fffFC"/><path d="M120-167l19-5" stroke-width="9.9" stroke="#fff500FD"/></g></svg>