<svg width="1200" height="675" viewBox="-500 -500 1200 675" xmlns="http://www.w3.org/2000/svg"><path d="M-500-500h1200v675h-1200z" fill="#000"/><style>.sparkles path{stroke-linecap:round}</style><g class="sparkles"><path d="M93-184l-7-21" stroke-width="1.1" stroke="#005bbb2"/><path d="M90-137l-11 26" stroke-width="1.1" stroke="#fff3"/><path d="M94-132l-5 30" stroke-width="1.2" stroke="#005bbb4"/><path d="M76-140l-24 23" stroke-width="1.2" stroke="#fff5"/><path d="M66-152l-34 11" stroke-width="1.2" stroke="#005bbb5"/><path d="M67-177l-32-15" stroke-width="1.2" stroke="#005bbb6"/><path d="M113-198l14-36" stroke-width="1.2" stroke="#005bbb6"/><path d="M74-132l-26 31" stroke-width="1.3" stroke="#005bbb7"/><path d="M57-148l-43 14" stroke-width="1.3" stroke="#c2e1ff9"/><path d="M117-207l17-44" stroke-width="1.4" stroke="#fff500A"/><path d="M98-212l-3-49" stroke-width="1.4" stroke="#fff500B"/><path d="M115-214l16-51" stroke-width="1.5" stroke="#005bbbD"/><path d="M132-119l32 44" stroke-width="1.5" stroke="#fffE"/><path d="M96-217l-4-54" stroke-width="1.5" stroke="#c2e1ffE"/><path d="M51-139l-49 24" stroke-width="1.5" stroke="#fffE"/><path d="M47-150l-52 13" stroke-width="1.5" stroke="#fffE"/><path d="M96-218l-4-55" stroke-width="1.5" stroke="#fff500E"/><path d="M68-116l-32 46" stroke-width="1.5" stroke="#fff500F"/><path d="M149-194l48-31" stroke-width="1.6" stroke="#c2e1ff10"/><path d="M46-188l-54-25" stroke-width="1.6" stroke="#c2e1ff11"/><path d="M99-97l-2 66" stroke-width="1.8" stroke="#005bbb15"/><path d="M158-131l59 31" stroke-width="1.8" stroke="#c2e1ff15"/><path d="M155-121l55 41" stroke-width="1.8" stroke="#fff17"/><path d="M70-99l-31 64" stroke-width="1.9" stroke="#c2e1ff19"/><path d="M42-204l-59-41" stroke-width="1.9" stroke="#fff1A"/><path d="M127-93l27 69" stroke-width="2.0" stroke="#005bbb1C"/><path d="M53-103l-46 59" stroke-width="2.0" stroke="#005bbb1D"/><path d="M52-102l-48 60" stroke-width="2.1" stroke="#fff1E"/><path d="M143-96l44 67" stroke-width="2.2" stroke="#005bbb21"/><path d="M21-147l-79 16" stroke-width="2.2" stroke="#fff50022"/><path d="M69-238l-30-75" stroke-width="2.2" stroke="#fff50022"/><path d="M112-81l11 81" stroke-width="2.3" stroke="#005bbb23"/><path d="M174-204l75-41" stroke-width="2.4" stroke="#fff27"/><path d="M15-174l-84-12" stroke-width="2.4" stroke="#c2e1ff27"/><path d="M12-165l-87-2" stroke-width="2.5" stroke="#fff5002A"/><path d="M186-131l86 31" stroke-width="2.7" stroke="#005bbb2E"/><path d="M64-78l-36 85" stroke-width="2.7" stroke="#fff2F"/><path d="M56-244l-43-82" stroke-width="2.7" stroke="#fff50030"/><path d="M26-220l-75-58" stroke-width="2.8" stroke="#fff50032"/><path d="M147-246l46-83" stroke-width="2.8" stroke="#fff34"/><path d="M194-185l93-22" stroke-width="2.9" stroke="#fff35"/><path d="M117-67l17 96" stroke-width="2.9" stroke="#c2e1ff37"/><path d="M114-259l14-96" stroke-width="2.9" stroke="#fff37"/><path d="M4-179l-96-17" stroke-width="3.0" stroke="#fff37"/><path d="M100-260l0-98" stroke-width="3.0" stroke="#c2e1ff37"/><path d="M121-260l20-98" stroke-width="3.1" stroke="#fff5003B"/><path d="M201-151l100 12" stroke-width="3.2" stroke="#c2e1ff3E"/><path d="M164-81l64 82" stroke-width="3.4" stroke="#fff50042"/><path d="M204-155l104 8" stroke-width="3.4" stroke="#005bbb43"/><path d="M150-71l51 91" stroke-width="3.4" stroke="#c2e1ff43"/><path d="M90-59l-11 104" stroke-width="3.4" stroke="#fff50043"/><path d="M63-260l-38-98" stroke-width="3.4" stroke="#c2e1ff44"/><path d="M97-57l-3 105" stroke-width="3.5" stroke="#fff50046"/><path d="M30-242l-70-79" stroke-width="3.5" stroke="#fff50046"/><path d="M8-214l-93-51" stroke-width="3.5" stroke="#fff46"/><path d="M38-250l-62-88" stroke-width="3.6" stroke="#fff5004A"/><path d="M155-256l54-93" stroke-width="3.7" stroke="#c2e1ff4B"/><path d="M-1-124l-102 39" stroke-width="3.7" stroke="#c2e1ff4C"/><path d="M-3-128l-103 34" stroke-width="3.7" stroke="#fff5004D"/><path d="M7-106l-93 56" stroke-width="3.7" stroke="#fff4D"/><path d="M167-249l67-87" stroke-width="3.8" stroke="#005bbb4F"/><path d="M184-234l83-71" stroke-width="3.8" stroke="#c2e1ff50"/><path d="M-7-188l-107-25" stroke-width="3.9" stroke="#fff51"/><path d="M208-188l108-25" stroke-width="3.9" stroke="#fff50053"/><path d="M51-63l-49 99" stroke-width="3.9" stroke="#fff53"/><path d="M-12-165l-111-2" stroke-width="4.0" stroke="#c2e1ff55"/><path d="M173-78l74 84" stroke-width="4.0" stroke="#fff50056"/><path d="M-8-193l-108-30" stroke-width="4.1" stroke="#c2e1ff57"/><path d="M72-54l-28 109" stroke-width="4.1" stroke="#fff50057"/><path d="M155-64l54 98" stroke-width="4.1" stroke="#fff58"/><path d="M140-268l39-106" stroke-width="4.2" stroke="#005bbb5A"/><path d="M-7-126l-107 37" stroke-width="4.2" stroke="#c2e1ff5A"/><path d="M140-269l40-106" stroke-width="4.2" stroke="#c2e1ff5B"/><path d="M204-208l103-46" stroke-width="4.2" stroke="#fff5B"/><path d="M60-269l-40-106" stroke-width="4.2" stroke="#fff5005B"/><path d="M156-261l57-99" stroke-width="4.3" stroke="#fff5005D"/><path d="M81-50l-19 112" stroke-width="4.3" stroke="#c2e1ff5D"/><path d="M23-246l-77-84" stroke-width="4.3" stroke="#fff5005E"/><path d="M124-274l24-112" stroke-width="4.4" stroke="#c2e1ff60"/><path d="M173-251l73-89" stroke-width="4.4" stroke="#fff50060"/><path d="M122-276l21-114" stroke-width="4.6" stroke="#005bbb65"/><path d="M70-51l-29 112" stroke-width="4.6" stroke="#005bbb66"/><path d="M191-235l90-73" stroke-width="4.7" stroke="#005bbb68"/><path d="M103-279l3-116" stroke-width="4.7" stroke="#fff69"/><path d="M-16-177l-115-14" stroke-width="4.7" stroke="#fff69"/><path d="M175-252l75-89" stroke-width="4.8" stroke="#fff5006A"/><path d="M216-151l116 12" stroke-width="4.8" stroke="#fff5006C"/><path d="M186-242l85-79" stroke-width="4.8" stroke="#fff6C"/><path d="M-6-212l-106-50" stroke-width="4.9" stroke="#c2e1ff6D"/><path d="M175-252l75-90" stroke-width="4.9" stroke="#005bbb6E"/><path d="M139-52l40 111" stroke-width="5.0" stroke="#fff50070"/><path d="M184-244l85-82" stroke-width="5.0" stroke="#c2e1ff71"/><path d="M86-279l-14-117" stroke-width="5.0" stroke="#fff71"/><path d="M192-236l92-73" stroke-width="5.1" stroke="#fff50075"/><path d="M128-277l27-115" stroke-width="5.2" stroke="#fff76"/><path d="M-9-117l-109 45" stroke-width="5.3" stroke="#fff79"/><path d="M-6-215l-105-53" stroke-width="5.4" stroke="#fff5007B"/><path d="M-9-117l-109 46" stroke-width="5.4" stroke="#005bbb7C"/><path d="M136-50l35 113" stroke-width="5.4" stroke="#fff7D"/><path d="M77-47l-23 116" stroke-width="5.5" stroke="#fff5007E"/><path d="M157-266l57-103" stroke-width="5.6" stroke="#005bbb81"/><path d="M143-272l43-110" stroke-width="5.7" stroke="#fff50085"/><path d="M213-131l113 31" stroke-width="6.0" stroke="#005bbb8D"/><path d="M-10-122l-110 40" stroke-width="6.0" stroke="#fff8D"/><path d="M217-156l117 6" stroke-width="6.0" stroke="#fff5008E"/><path d="M158-61l59 102" stroke-width="6.1" stroke="#fff8F"/><path d="M180-77l81 85" stroke-width="6.1" stroke="#005bbb8F"/><path d="M56-271l-44-109" stroke-width="6.1" stroke="#fff50090"/><path d="M102-280l2-117" stroke-width="6.1" stroke="#fff90"/><path d="M40-263l-61-100" stroke-width="6.1" stroke="#fff50090"/><path d="M81-278l-20-115" stroke-width="6.2" stroke="#005bbb92"/><path d="M213-192l113-30" stroke-width="6.2" stroke="#fff50092"/><path d="M139-53l39 110" stroke-width="6.2" stroke="#fff93"/><path d="M216-159l117 4" stroke-width="6.2" stroke="#fff50094"/><path d="M67-274l-33-112" stroke-width="6.3" stroke="#fff94"/><path d="M104-46l4 116" stroke-width="6.3" stroke="#c2e1ff95"/><path d="M24-74l-75 88" stroke-width="6.3" stroke="#c2e1ff96"/><path d="M-16-153l-115 10" stroke-width="6.3" stroke="#005bbb96"/><path d="M200-103l99 60" stroke-width="6.3" stroke="#005bbb96"/><path d="M-15-152l-114 11" stroke-width="6.5" stroke="#c2e1ff9C"/><path d="M214-162l113 0" stroke-width="6.7" stroke="#fff500A2"/><path d="M195-101l95 62" stroke-width="6.8" stroke="#005bbbA4"/><path d="M125-52l24 110" stroke-width="6.8" stroke="#fffA5"/><path d="M172-249l72-87" stroke-width="6.8" stroke="#005bbbA5"/><path d="M-7-194l-108-32" stroke-width="6.9" stroke="#005bbbA7"/><path d="M188-93l88 69" stroke-width="6.9" stroke="#fff500A8"/><path d="M83-273l-16-111" stroke-width="6.9" stroke="#fff500A8"/><path d="M55-265l-46-102" stroke-width="7.0" stroke="#fffA8"/><path d="M185-234l86-72" stroke-width="7.0" stroke="#fffA9"/><path d="M74-270l-26-107" stroke-width="7.1" stroke="#fff500AD"/><path d="M145-262l45-100" stroke-width="7.2" stroke="#fffAE"/><path d="M148-261l49-98" stroke-width="7.2" stroke="#fffAF"/><path d="M-8-159l-109 4" stroke-width="7.3" stroke="#005bbbB1"/><path d="M127-58l26 105" stroke-width="7.3" stroke="#005bbbB2"/><path d="M-1-200l-100-38" stroke-width="7.4" stroke="#005bbbB4"/><path d="M39-250l-61-87" stroke-width="7.5" stroke="#005bbbB6"/><path d="M187-223l87-60" stroke-width="7.5" stroke="#fffB7"/><path d="M3-205l-96-43" stroke-width="7.5" stroke="#c2e1ffB8"/><path d="M14-102l-87 61" stroke-width="7.5" stroke="#005bbbB8"/><path d="M12-106l-88 57" stroke-width="7.6" stroke="#fff500BA"/><path d="M-3-144l-103 19" stroke-width="7.6" stroke="#c2e1ffBA"/><path d="M78-262l-23-100" stroke-width="7.8" stroke="#c2e1ffBF"/><path d="M-2-170l-101-7" stroke-width="7.8" stroke="#c2e1ffBF"/><path d="M43-80l-56 82" stroke-width="7.9" stroke="#c2e1ffC3"/><path d="M140-72l41 90" stroke-width="8.0" stroke="#fff500C5"/><path d="M157-243l56-81" stroke-width="8.0" stroke="#005bbbC5"/><path d="M9-126l-91 37" stroke-width="8.0" stroke="#fffC6"/><path d="M4-180l-95-17" stroke-width="8.1" stroke="#005bbbC7"/><path d="M41-240l-59-77" stroke-width="8.1" stroke="#fff500C8"/><path d="M142-77l42 85" stroke-width="8.2" stroke="#fff500CB"/><path d="M104-69l4 94" stroke-width="8.2" stroke="#005bbbCC"/><path d="M177-108l76 54" stroke-width="8.2" stroke="#005bbbCC"/><path d="M191-138l90 24" stroke-width="8.2" stroke="#c2e1ffCD"/><path d="M7-173l-93-10" stroke-width="8.3" stroke="#fff500CD"/><path d="M185-125l86 37" stroke-width="8.3" stroke="#fff500CD"/><path d="M39-94l-61 69" stroke-width="8.3" stroke="#c2e1ffCF"/><path d="M143-236l43-74" stroke-width="8.6" stroke="#fff500D7"/><path d="M47-98l-53 64" stroke-width="8.7" stroke="#005bbbD9"/><path d="M132-239l32-76" stroke-width="8.7" stroke="#fffDA"/><path d="M172-203l73-40" stroke-width="8.7" stroke="#fff500DA"/><path d="M99-81l-2 82" stroke-width="8.7" stroke="#fffDB"/><path d="M29-201l-72-39" stroke-width="8.8" stroke="#005bbbDC"/><path d="M20-160l-81 2" stroke-width="8.8" stroke="#fff500DC"/><path d="M66-97l-34 66" stroke-width="9.0" stroke="#fffE2"/><path d="M172-145l71 17" stroke-width="9.0" stroke="#fffE3"/><path d="M98-236l-1-74" stroke-width="9.0" stroke="#fff500E3"/><path d="M119-96l18 67" stroke-width="9.1" stroke="#c2e1ffE6"/><path d="M141-107l41 55" stroke-width="9.2" stroke="#fff500E6"/><path d="M36-148l-64 14" stroke-width="9.2" stroke="#005bbbE9"/><path d="M38-178l-62-16" stroke-width="9.3" stroke="#fff500EA"/><path d="M63-115l-36 48" stroke-width="9.4" stroke="#fff500ED"/><path d="M111-221l11-58" stroke-width="9.4" stroke="#fff500ED"/><path d="M121-217l20-55" stroke-width="9.4" stroke="#c2e1ffEE"/><path d="M86-106l-13 56" stroke-width="9.4" stroke="#fffEE"/><path d="M100-212l0-49" stroke-width="9.6" stroke="#c2e1ffF3"/><path d="M74-123l-26 40" stroke-width="9.6" stroke="#c2e1ffF4"/><path d="M58-149l-42 13" stroke-width="9.7" stroke="#c2e1ffF5"/><path d="M134-171l33-9" stroke-width="9.8" stroke="#005bbbF9"/><path d="M65-164l-35-2" stroke-width="9.8" stroke="#fff500F9"/><path d="M78-171l-22-9" stroke-width="9.9" stroke="#fffFC"/><path d="M90-145l-11 18" stroke-width="9.9" stroke="#fffFD"/></g></svg>