<svg width="1200" height="675" viewBox="-500 -500 1200 675" xmlns="http://www.w3.org/2000/svg"><path d="M-500-500h1200v675h-1200z" fill="#000"/><style>.sparkles path{stroke-linecap:round}</style><g class="sparkles"><path d="M108-178l7-15" stroke-width="1.0" stroke="#c2e1ff1"/><path d="M84-140l-17 22" stroke-width="1.1" stroke="#fff3"/><path d="M120-182l21-20" stroke-width="1.1" stroke="#005bbb3"/><path d="M78-183l-23-20" stroke-width="1.2" stroke="#fff4"/><path d="M144-173l43-11" stroke-width="1.3" stroke="#c2e1ff9"/><path d="M74-203l-27-40" stroke-width="1.4" stroke="#fff500B"/><path d="M141-190l40-27" stroke-width="1.4" stroke="#c2e1ffB"/><path d="M126-206l27-44" stroke-width="1.4" stroke="#fff500C"/><path d="M132-120l32 42" stroke-width="1.5" stroke="#fffD"/><path d="M130-110l30 53" stroke-width="1.6" stroke="#005bbb12"/><path d="M77-221l-23-58" stroke-width="1.7" stroke="#c2e1ff13"/><path d="M59-111l-42 51" stroke-width="1.8" stroke="#c2e1ff15"/><path d="M144-112l45 51" stroke-width="1.8" stroke="#fff16"/><path d="M27-178l-73-15" stroke-width="2.0" stroke="#005bbb1C"/><path d="M167-121l67 41" stroke-width="2.1" stroke="#c2e1ff20"/><path d="M75-87l-25 75" stroke-width="2.2" stroke="#fff50021"/><path d="M37-213l-62-51" stroke-width="2.2" stroke="#fff22"/><path d="M116-82l17 80" stroke-width="2.3" stroke="#005bbb23"/><path d="M54-94l-45 69" stroke-width="2.3" stroke="#c2e1ff24"/><path d="M123-83l24 79" stroke-width="2.3" stroke="#fff50024"/><path d="M137-238l36-75" stroke-width="2.3" stroke="#fff50025"/><path d="M156-225l57-62" stroke-width="2.3" stroke="#c2e1ff25"/><path d="M144-236l44-73" stroke-width="2.4" stroke="#c2e1ff27"/><path d="M137-244l37-82" stroke-width="2.6" stroke="#fff5002C"/><path d="M187-190l87-28" stroke-width="2.6" stroke="#005bbb2E"/><path d="M8-160l-93 2" stroke-width="2.7" stroke="#c2e1ff2F"/><path d="M175-218l75-56" stroke-width="2.8" stroke="#c2e1ff31"/><path d="M6-150l-94 13" stroke-width="2.8" stroke="#fff33"/><path d="M188-199l88-37" stroke-width="2.8" stroke="#fff34"/><path d="M58-249l-41-87" stroke-width="2.9" stroke="#c2e1ff35"/><path d="M95-260l-6-98" stroke-width="3.0" stroke="#fff50038"/><path d="M170-232l70-69" stroke-width="3.0" stroke="#c2e1ff38"/><path d="M17-109l-83 53" stroke-width="3.0" stroke="#005bbb39"/><path d="M86-64l-13 98" stroke-width="3.0" stroke="#fff39"/><path d="M164-239l64-76" stroke-width="3.1" stroke="#fff5003A"/><path d="M14-113l-87 49" stroke-width="3.1" stroke="#005bbb3A"/><path d="M180-103l80 60" stroke-width="3.1" stroke="#c2e1ff3B"/><path d="M129-66l28 97" stroke-width="3.1" stroke="#fff5003C"/><path d="M195-195l96-32" stroke-width="3.1" stroke="#fff5003C"/><path d="M149-251l48-88" stroke-width="3.2" stroke="#fff5003D"/><path d="M9-207l-91-44" stroke-width="3.2" stroke="#fff3D"/><path d="M60-255l-41-93" stroke-width="3.2" stroke="#c2e1ff3D"/><path d="M18-222l-82-60" stroke-width="3.2" stroke="#fff3E"/><path d="M2-191l-98-29" stroke-width="3.2" stroke="#005bbb3F"/><path d="M167-85l67 78" stroke-width="3.3" stroke="#005bbb40"/><path d="M107-266l7-104" stroke-width="3.4" stroke="#c2e1ff43"/><path d="M121-265l20-102" stroke-width="3.4" stroke="#005bbb43"/><path d="M141-260l41-98" stroke-width="3.5" stroke="#fff46"/><path d="M145-258l45-96" stroke-width="3.5" stroke="#005bbb46"/><path d="M201-193l102-31" stroke-width="3.5" stroke="#fff50047"/><path d="M201-196l102-33" stroke-width="3.6" stroke="#c2e1ff48"/><path d="M120-268l20-106" stroke-width="3.6" stroke="#c2e1ff4B"/><path d="M205-138l106 24" stroke-width="3.7" stroke="#fff4B"/><path d="M74-267l-25-105" stroke-width="3.7" stroke="#c2e1ff4B"/><path d="M206-184l106-22" stroke-width="3.7" stroke="#fff4C"/><path d="M-5-136l-105 26" stroke-width="3.7" stroke="#fff4C"/><path d="M209-175l108-13" stroke-width="3.8" stroke="#fff4F"/><path d="M210-164l109-2" stroke-width="3.8" stroke="#fff50"/><path d="M183-90l82 72" stroke-width="3.8" stroke="#fff50050"/><path d="M122-53l21 109" stroke-width="4.0" stroke="#005bbb55"/><path d="M4-219l-96-57" stroke-width="4.0" stroke="#fff50055"/><path d="M-11-157l-112 5" stroke-width="4.0" stroke="#fff50055"/><path d="M211-172l112-9" stroke-width="4.1" stroke="#c2e1ff56"/><path d="M-13-153l-112 10" stroke-width="4.2" stroke="#fff5005A"/><path d="M-13-172l-113-9" stroke-width="4.2" stroke="#fff5B"/><path d="M19-83l-81 80" stroke-width="4.3" stroke="#c2e1ff5C"/><path d="M-11-139l-112 24" stroke-width="4.3" stroke="#fff5005D"/><path d="M1-106l-99 56" stroke-width="4.3" stroke="#c2e1ff5D"/><path d="M214-154l114 9" stroke-width="4.4" stroke="#c2e1ff5F"/><path d="M180-80l79 83" stroke-width="4.4" stroke="#fff50061"/><path d="M197-100l98 63" stroke-width="4.6" stroke="#fff66"/><path d="M15-83l-84 80" stroke-width="4.7" stroke="#005bbb68"/><path d="M205-212l105-50" stroke-width="4.7" stroke="#c2e1ff68"/><path d="M133-51l32 112" stroke-width="4.7" stroke="#005bbb69"/><path d="M68-275l-32-112" stroke-width="4.9" stroke="#005bbb6D"/><path d="M107-279l7-117" stroke-width="4.9" stroke="#fff6D"/><path d="M2-99l-99 63" stroke-width="4.9" stroke="#005bbb6D"/><path d="M24-73l-76 89" stroke-width="5.0" stroke="#005bbb70"/><path d="M28-70l-72 93" stroke-width="5.1" stroke="#fff73"/><path d="M-8-209l-108-47" stroke-width="5.1" stroke="#005bbb73"/><path d="M-14-191l-114-29" stroke-width="5.1" stroke="#005bbb73"/><path d="M20-76l-79 87" stroke-width="5.1" stroke="#c2e1ff74"/><path d="M70-49l-30 114" stroke-width="5.1" stroke="#c2e1ff75"/><path d="M-8-210l-107-48" stroke-width="5.1" stroke="#fff50075"/><path d="M179-250l79-87" stroke-width="5.1" stroke="#005bbb75"/><path d="M217-177l117-14" stroke-width="5.2" stroke="#c2e1ff75"/><path d="M55-54l-46 109" stroke-width="5.2" stroke="#fff77"/><path d="M60-274l-40-111" stroke-width="5.3" stroke="#005bbb78"/><path d="M-15-191l-114-28" stroke-width="5.3" stroke="#fff5007A"/><path d="M214-131l114 32" stroke-width="5.4" stroke="#fff5007B"/><path d="M215-134l114 28" stroke-width="5.5" stroke="#fff5007F"/><path d="M124-47l24 116" stroke-width="5.5" stroke="#fff5007F"/><path d="M218-152l117 11" stroke-width="5.5" stroke="#fff7F"/><path d="M14-243l-86-81" stroke-width="5.6" stroke="#005bbb82"/><path d="M167-65l67 97" stroke-width="5.7" stroke="#005bbb85"/><path d="M-18-167l-118-4" stroke-width="5.7" stroke="#fff50086"/><path d="M111-280l11-117" stroke-width="5.8" stroke="#c2e1ff88"/><path d="M48-57l-53 105" stroke-width="5.9" stroke="#fff5008A"/><path d="M166-260l65-98" stroke-width="5.9" stroke="#fff8B"/><path d="M153-267l53-105" stroke-width="5.9" stroke="#fff5008C"/><path d="M128-48l29 114" stroke-width="6.0" stroke="#005bbb8C"/><path d="M12-240l-89-77" stroke-width="6.0" stroke="#c2e1ff8D"/><path d="M45-266l-55-104" stroke-width="6.0" stroke="#005bbb8D"/><path d="M102-280l3-117" stroke-width="6.1" stroke="#c2e1ff8F"/><path d="M214-188l114-26" stroke-width="6.2" stroke="#005bbb92"/><path d="M149-269l48-106" stroke-width="6.2" stroke="#005bbb92"/><path d="M117-278l17-115" stroke-width="6.2" stroke="#c2e1ff93"/><path d="M-14-137l-114 25" stroke-width="6.2" stroke="#c2e1ff93"/><path d="M-12-129l-111 34" stroke-width="6.2" stroke="#fff93"/><path d="M-14-184l-115-22" stroke-width="6.3" stroke="#c2e1ff94"/><path d="M193-232l93-70" stroke-width="6.3" stroke="#fff95"/><path d="M198-225l97-63" stroke-width="6.3" stroke="#c2e1ff96"/><path d="M35-67l-65 96" stroke-width="6.4" stroke="#005bbb9A"/><path d="M204-212l104-50" stroke-width="6.5" stroke="#c2e1ff9B"/><path d="M169-255l68-92" stroke-width="6.5" stroke="#fff5009C"/><path d="M211-133l111 30" stroke-width="6.5" stroke="#c2e1ff9C"/><path d="M90-48l-10 114" stroke-width="6.5" stroke="#fff9D"/><path d="M129-51l29 111" stroke-width="6.6" stroke="#fff5009D"/><path d="M-10-196l-109-34" stroke-width="6.6" stroke="#c2e1ff9D"/><path d="M189-91l89 72" stroke-width="6.6" stroke="#005bbbA0"/><path d="M16-238l-85-76" stroke-width="6.8" stroke="#fffA3"/><path d="M159-259l58-96" stroke-width="6.8" stroke="#fff500A5"/><path d="M197-216l98-54" stroke-width="7.0" stroke="#c2e1ffAA"/><path d="M-9-179l-108-16" stroke-width="7.2" stroke="#005bbbAE"/><path d="M-9-158l-109 5" stroke-width="7.2" stroke="#c2e1ffAF"/><path d="M24-241l-75-79" stroke-width="7.2" stroke="#c2e1ffAF"/><path d="M200-119l100 43" stroke-width="7.2" stroke="#fff500B0"/><path d="M26-83l-74 79" stroke-width="7.3" stroke="#005bbbB2"/><path d="M135-264l35-102" stroke-width="7.3" stroke="#c2e1ffB3"/><path d="M191-106l92 57" stroke-width="7.3" stroke="#005bbbB3"/><path d="M1-123l-99 39" stroke-width="7.5" stroke="#fff500B6"/><path d="M91-57l-10 105" stroke-width="7.5" stroke="#fff500B8"/><path d="M17-97l-83 65" stroke-width="7.5" stroke="#fffB8"/><path d="M188-220l88-58" stroke-width="7.5" stroke="#c2e1ffB9"/><path d="M-4-170l-104-8" stroke-width="7.6" stroke="#005bbbBB"/><path d="M25-93l-75 70" stroke-width="7.7" stroke="#fffBE"/><path d="M26-233l-75-70" stroke-width="7.8" stroke="#fff500BF"/><path d="M3-187l-97-24" stroke-width="7.9" stroke="#c2e1ffC3"/><path d="M148-77l48 86" stroke-width="8.0" stroke="#fffC6"/><path d="M4-142l-95 21" stroke-width="8.0" stroke="#fffC6"/><path d="M179-106l79 57" stroke-width="8.0" stroke="#c2e1ffC7"/><path d="M143-249l44-86" stroke-width="8.1" stroke="#005bbbC9"/><path d="M46-240l-53-77" stroke-width="8.2" stroke="#c2e1ffCC"/><path d="M143-246l42-84" stroke-width="8.2" stroke="#c2e1ffCC"/><path d="M180-208l81-46" stroke-width="8.3" stroke="#c2e1ffCE"/><path d="M11-149l-90 14" stroke-width="8.4" stroke="#c2e1ffD1"/><path d="M85-250l-15-87" stroke-width="8.5" stroke="#fffD4"/><path d="M185-141l85 22" stroke-width="8.5" stroke="#005bbbD5"/><path d="M178-130l78 33" stroke-width="8.6" stroke="#c2e1ffD8"/><path d="M69-85l-32 77" stroke-width="8.7" stroke="#fffD9"/><path d="M182-150l83 13" stroke-width="8.7" stroke="#005bbbD9"/><path d="M23-193l-77-31" stroke-width="8.7" stroke="#c2e1ffDA"/><path d="M17-164l-83-1" stroke-width="8.7" stroke="#fffDA"/><path d="M23-177l-77-14" stroke-width="8.9" stroke="#fffDF"/><path d="M134-231l34-68" stroke-width="8.9" stroke="#fff500E1"/><path d="M109-238l9-75" stroke-width="9.0" stroke="#005bbbE1"/><path d="M175-162l74 0" stroke-width="9.0" stroke="#fffE2"/><path d="M168-185l68-22" stroke-width="9.1" stroke="#c2e1ffE4"/><path d="M39-200l-61-37" stroke-width="9.1" stroke="#fffE5"/><path d="M159-123l59 39" stroke-width="9.1" stroke="#fffE5"/><path d="M135-103l35 59" stroke-width="9.2" stroke="#c2e1ffE6"/><path d="M56-111l-43 51" stroke-width="9.2" stroke="#005bbbE8"/><path d="M104-96l4 66" stroke-width="9.2" stroke="#005bbbE9"/><path d="M39-148l-61 15" stroke-width="9.3" stroke="#c2e1ffEB"/><path d="M96-104l-4 58" stroke-width="9.4" stroke="#c2e1ffEE"/><path d="M134-210l33-47" stroke-width="9.4" stroke="#fffEE"/><path d="M49-191l-50-28" stroke-width="9.4" stroke="#fff500EE"/><path d="M47-159l-53 4" stroke-width="9.5" stroke="#c2e1ffF1"/><path d="M64-201l-36-39" stroke-width="9.5" stroke="#005bbbF1"/><path d="M63-199l-37-37" stroke-width="9.5" stroke="#fff500F1"/><path d="M55-138l-45 24" stroke-width="9.6" stroke="#fff500F2"/><path d="M87-209l-13-46" stroke-width="9.6" stroke="#005bbbF3"/><path d="M134-196l34-33" stroke-width="9.6" stroke="#005bbbF4"/><path d="M114-206l14-43" stroke-width="9.7" stroke="#c2e1ffF5"/><path d="M68-191l-32-29" stroke-width="9.7" stroke="#c2e1ffF6"/><path d="M57-159l-42 3" stroke-width="9.7" stroke="#c2e1ffF6"/><path d="M133-150l32 12" stroke-width="9.8" stroke="#005bbbF9"/><path d="M105-185l5-23" stroke-width="9.9" stroke="#c2e1ffFC"/><path d="M87-169l-13-7" stroke-width="10.0" stroke="#c2e1ffFE"/><path d="M89-155l-12 8" stroke-width="10.0" stroke="#c2e1ffFE"/><path d="M88-159l-11 4" stroke-width="10.0" stroke="#fff500FE"/></g></svg>