<svg width="1200" height="675" viewBox="-500 -500 1200 675" xmlns="http://www.w3.org/2000/svg"><path d="M-500-500h1200v675h-1200z" fill="#000"/><style>.sparkles path{stroke-linecap:round}</style><g class="sparkles"><path d="M125-162l25 0" stroke-width="1.1" stroke="#fff5002"/><path d="M75-170l-26-8" stroke-width="1.1" stroke="#fff5003"/><path d="M68-170l-32-8" stroke-width="1.2" stroke="#005bbb4"/><path d="M133-168l33-5" stroke-width="1.2" stroke="#fff5"/><path d="M60-170l-40-7" stroke-width="1.3" stroke="#005bbb7"/><path d="M99-204l-1-42" stroke-width="1.3" stroke="#c2e1ff8"/><path d="M102-210l2-48" stroke-width="1.4" stroke="#005bbbA"/><path d="M150-150l49 12" stroke-width="1.4" stroke="#005bbbC"/><path d="M72-212l-29-49" stroke-width="1.6" stroke="#fffF"/><path d="M133-211l34-48" stroke-width="1.6" stroke="#005bbb10"/><path d="M52-123l-48 39" stroke-width="1.7" stroke="#005bbb12"/><path d="M158-189l59-27" stroke-width="1.7" stroke="#fff14"/><path d="M157-132l57 31" stroke-width="1.7" stroke="#fff50014"/><path d="M166-152l67 10" stroke-width="1.8" stroke="#005bbb16"/><path d="M34-149l-66 14" stroke-width="1.8" stroke="#fff16"/><path d="M81-96l-20 67" stroke-width="1.9" stroke="#fff50018"/><path d="M156-206l56-44" stroke-width="1.9" stroke="#005bbb19"/><path d="M84-89l-16 74" stroke-width="2.0" stroke="#005bbb1D"/><path d="M179-153l79 9" stroke-width="2.2" stroke="#fff21"/><path d="M52-97l-47 65" stroke-width="2.2" stroke="#fff22"/><path d="M22-140l-78 23" stroke-width="2.2" stroke="#c2e1ff22"/><path d="M49-100l-52 63" stroke-width="2.2" stroke="#fff22"/><path d="M20-179l-80-16" stroke-width="2.2" stroke="#005bbb23"/><path d="M18-164l-81-2" stroke-width="2.2" stroke="#fff50023"/><path d="M27-201l-73-39" stroke-width="2.3" stroke="#005bbb24"/><path d="M171-118l70 44" stroke-width="2.3" stroke="#fff50025"/><path d="M17-150l-83 12" stroke-width="2.3" stroke="#fff25"/><path d="M23-122l-77 40" stroke-width="2.4" stroke="#fff50028"/><path d="M20-122l-79 40" stroke-width="2.5" stroke="#fff5002B"/><path d="M22-114l-78 49" stroke-width="2.7" stroke="#c2e1ff2F"/><path d="M192-156l92 7" stroke-width="2.7" stroke="#fff5002F"/><path d="M92-70l-7 93" stroke-width="2.7" stroke="#005bbb31"/><path d="M124-253l25-91" stroke-width="2.8" stroke="#fff50032"/><path d="M6-161l-95 1" stroke-width="2.8" stroke="#fff32"/><path d="M138-76l39 87" stroke-width="2.8" stroke="#005bbb33"/><path d="M56-77l-44 86" stroke-width="2.9" stroke="#fff50035"/><path d="M67-72l-32 91" stroke-width="2.9" stroke="#fff36"/><path d="M194-193l94-30" stroke-width="3.0" stroke="#fff50039"/><path d="M9-203l-91-40" stroke-width="3.1" stroke="#c2e1ff3A"/><path d="M94-265l-6-102" stroke-width="3.3" stroke="#fff3F"/><path d="M68-65l-32 97" stroke-width="3.3" stroke="#005bbb3F"/><path d="M12-215l-88-53" stroke-width="3.3" stroke="#c2e1ff40"/><path d="M199-133l98 29" stroke-width="3.3" stroke="#005bbb40"/><path d="M152-252l51-90" stroke-width="3.3" stroke="#c2e1ff41"/><path d="M149-71l50 92" stroke-width="3.4" stroke="#fff50043"/><path d="M77-61l-23 101" stroke-width="3.4" stroke="#005bbb43"/><path d="M201-190l100-28" stroke-width="3.4" stroke="#005bbb43"/><path d="M164-80l63 83" stroke-width="3.4" stroke="#fff43"/><path d="M18-97l-82 65" stroke-width="3.4" stroke="#fff44"/><path d="M162-78l62 85" stroke-width="3.4" stroke="#c2e1ff45"/><path d="M55-258l-45-95" stroke-width="3.5" stroke="#c2e1ff45"/><path d="M5-114l-96 49" stroke-width="3.6" stroke="#c2e1ff49"/><path d="M50-68l-50 95" stroke-width="3.6" stroke="#fff4A"/><path d="M207-167l108-5" stroke-width="3.6" stroke="#005bbb4A"/><path d="M-6-144l-106 18" stroke-width="3.7" stroke="#fff4B"/><path d="M150-261l50-99" stroke-width="3.9" stroke="#c2e1ff52"/><path d="M90-52l-10 110" stroke-width="3.9" stroke="#c2e1ff52"/><path d="M188-96l88 67" stroke-width="3.9" stroke="#fff52"/><path d="M202-117l102 45" stroke-width="4.0" stroke="#fff54"/><path d="M17-236l-84-74" stroke-width="4.0" stroke="#c2e1ff54"/><path d="M162-255l62-93" stroke-width="4.0" stroke="#005bbb55"/><path d="M-5-202l-104-40" stroke-width="4.1" stroke="#fff50056"/><path d="M104-50l5 112" stroke-width="4.1" stroke="#fff57"/><path d="M120-273l20-111" stroke-width="4.1" stroke="#fff50057"/><path d="M158-259l58-96" stroke-width="4.1" stroke="#fff58"/><path d="M33-72l-66 91" stroke-width="4.1" stroke="#c2e1ff59"/><path d="M-12-148l-112 15" stroke-width="4.2" stroke="#c2e1ff59"/><path d="M63-269l-38-107" stroke-width="4.2" stroke="#fff5B"/><path d="M177-246l77-83" stroke-width="4.2" stroke="#fff5B"/><path d="M42-65l-59 98" stroke-width="4.3" stroke="#c2e1ff5C"/><path d="M31-254l-68-91" stroke-width="4.3" stroke="#005bbb5E"/><path d="M-13-148l-114 14" stroke-width="4.4" stroke="#005bbb5F"/><path d="M45-263l-54-101" stroke-width="4.4" stroke="#c2e1ff61"/><path d="M-14-175l-114-13" stroke-width="4.4" stroke="#fff50061"/><path d="M-8-201l-108-38" stroke-width="4.5" stroke="#fff50061"/><path d="M127-51l26 112" stroke-width="4.5" stroke="#fff50062"/><path d="M214-178l115-16" stroke-width="4.5" stroke="#fff50064"/><path d="M36-66l-63 97" stroke-width="4.6" stroke="#fff50065"/><path d="M176-250l76-87" stroke-width="4.6" stroke="#fff65"/><path d="M-10-126l-110 36" stroke-width="4.6" stroke="#005bbb67"/><path d="M-1-105l-101 57" stroke-width="4.6" stroke="#c2e1ff67"/><path d="M-14-141l-114 22" stroke-width="4.7" stroke="#fff50068"/><path d="M-17-172l-117-10" stroke-width="5.0" stroke="#005bbb70"/><path d="M211-201l111-39" stroke-width="5.0" stroke="#c2e1ff71"/><path d="M146-270l46-108" stroke-width="5.0" stroke="#c2e1ff71"/><path d="M77-278l-24-115" stroke-width="5.0" stroke="#005bbb71"/><path d="M-16-182l-116-19" stroke-width="5.1" stroke="#c2e1ff73"/><path d="M139-52l39 111" stroke-width="5.1" stroke="#fff50073"/><path d="M125-278l24-115" stroke-width="5.2" stroke="#c2e1ff76"/><path d="M-15-190l-114-27" stroke-width="5.2" stroke="#fff76"/><path d="M215-136l115 27" stroke-width="5.2" stroke="#005bbb77"/><path d="M112-45l11 117" stroke-width="5.2" stroke="#c2e1ff77"/><path d="M171-257l71-94" stroke-width="5.2" stroke="#005bbb77"/><path d="M216-140l116 23" stroke-width="5.3" stroke="#c2e1ff7A"/><path d="M147-271l48-108" stroke-width="5.4" stroke="#fff5007B"/><path d="M33-260l-68-97" stroke-width="5.5" stroke="#005bbb7E"/><path d="M116-280l16-117" stroke-width="5.6" stroke="#c2e1ff81"/><path d="M-18-151l-117 11" stroke-width="5.7" stroke="#c2e1ff84"/><path d="M188-84l89 78" stroke-width="5.7" stroke="#005bbb85"/><path d="M214-131l113 32" stroke-width="5.7" stroke="#fff50085"/><path d="M52-55l-47 108" stroke-width="5.7" stroke="#fff50086"/><path d="M57-53l-44 110" stroke-width="5.8" stroke="#fff87"/><path d="M190-87l91 76" stroke-width="5.8" stroke="#005bbb88"/><path d="M12-241l-87-78" stroke-width="5.9" stroke="#fff8B"/><path d="M168-258l68-96" stroke-width="5.9" stroke="#005bbb8B"/><path d="M-14-137l-115 26" stroke-width="6.1" stroke="#005bbb90"/><path d="M-17-166l-117-4" stroke-width="6.1" stroke="#005bbb91"/><path d="M-12-130l-113 32" stroke-width="6.2" stroke="#fff50092"/><path d="M87-46l-13 116" stroke-width="6.2" stroke="#005bbb92"/><path d="M27-253l-73-90" stroke-width="6.3" stroke="#fff96"/><path d="M167-256l66-93" stroke-width="6.6" stroke="#fff5009E"/><path d="M110-277l9-114" stroke-width="6.6" stroke="#fff9E"/><path d="M154-62l55 100" stroke-width="6.7" stroke="#005bbbA1"/><path d="M121-51l21 112" stroke-width="6.7" stroke="#fff500A1"/><path d="M21-80l-78 82" stroke-width="6.7" stroke="#005bbbA2"/><path d="M197-103l97 59" stroke-width="6.7" stroke="#c2e1ffA2"/><path d="M145-58l45 104" stroke-width="6.8" stroke="#005bbbA3"/><path d="M7-98l-94 64" stroke-width="6.8" stroke="#005bbbA4"/><path d="M188-91l87 71" stroke-width="6.8" stroke="#005bbbA4"/><path d="M211-185l110-22" stroke-width="6.8" stroke="#fff500A5"/><path d="M-11-143l-110 19" stroke-width="6.9" stroke="#fffA6"/><path d="M147-264l46-102" stroke-width="6.9" stroke="#fff500A7"/><path d="M-3-206l-103-43" stroke-width="6.9" stroke="#c2e1ffA8"/><path d="M-10-145l-110 17" stroke-width="7.0" stroke="#fff500A9"/><path d="M6-222l-94-60" stroke-width="7.0" stroke="#fffAA"/><path d="M210-159l111 4" stroke-width="7.1" stroke="#fffAC"/><path d="M159-256l58-93" stroke-width="7.1" stroke="#fffAD"/><path d="M176-83l77 79" stroke-width="7.1" stroke="#fff500AD"/><path d="M135-267l34-104" stroke-width="7.2" stroke="#c2e1ffAE"/><path d="M82-55l-18 107" stroke-width="7.2" stroke="#005bbbB0"/><path d="M187-97l86 66" stroke-width="7.3" stroke="#fffB1"/><path d="M190-221l90-59" stroke-width="7.4" stroke="#c2e1ffB4"/><path d="M49-257l-52-94" stroke-width="7.4" stroke="#fff500B4"/><path d="M194-118l95 45" stroke-width="7.6" stroke="#fffBA"/><path d="M20-95l-79 68" stroke-width="7.6" stroke="#fffBA"/><path d="M10-113l-90 49" stroke-width="7.7" stroke="#005bbbBE"/><path d="M96-60l-4 102" stroke-width="7.7" stroke="#c2e1ffBF"/><path d="M122-262l23-100" stroke-width="7.8" stroke="#005bbbBF"/><path d="M82-69l-19 94" stroke-width="8.1" stroke="#fff500CA"/><path d="M19-211l-81-48" stroke-width="8.2" stroke="#005bbbCC"/><path d="M17-206l-83-44" stroke-width="8.2" stroke="#c2e1ffCD"/><path d="M13-192l-86-29" stroke-width="8.4" stroke="#005bbbD0"/><path d="M59-244l-41-82" stroke-width="8.4" stroke="#c2e1ffD0"/><path d="M85-73l-16 90" stroke-width="8.4" stroke="#c2e1ffD0"/><path d="M15-131l-85 31" stroke-width="8.4" stroke="#fff500D1"/><path d="M14-135l-86 27" stroke-width="8.4" stroke="#005bbbD1"/><path d="M146-240l46-78" stroke-width="8.4" stroke="#fffD1"/><path d="M183-192l84-30" stroke-width="8.5" stroke="#005bbbD4"/><path d="M29-207l-71-45" stroke-width="8.7" stroke="#fffD9"/><path d="M179-178l80-15" stroke-width="8.8" stroke="#005bbbDC"/><path d="M142-232l41-69" stroke-width="8.8" stroke="#005bbbDC"/><path d="M59-94l-40 69" stroke-width="8.8" stroke="#fff500DD"/><path d="M25-136l-74 27" stroke-width="8.8" stroke="#005bbbDE"/><path d="M104-242l5-79" stroke-width="8.8" stroke="#c2e1ffDE"/><path d="M89-241l-12-78" stroke-width="8.8" stroke="#c2e1ffDE"/><path d="M77-89l-23 73" stroke-width="8.9" stroke="#005bbbE0"/><path d="M173-146l74 16" stroke-width="9.0" stroke="#fff500E1"/><path d="M40-124l-60 38" stroke-width="9.1" stroke="#fff500E5"/><path d="M160-133l59 30" stroke-width="9.2" stroke="#005bbbE8"/><path d="M158-186l57-23" stroke-width="9.3" stroke="#fffEB"/><path d="M76-108l-24 54" stroke-width="9.4" stroke="#fffED"/><path d="M42-174l-58-11" stroke-width="9.4" stroke="#005bbbED"/><path d="M54-127l-45 36" stroke-width="9.4" stroke="#005bbbEE"/><path d="M51-191l-49-28" stroke-width="9.5" stroke="#c2e1ffEF"/><path d="M156-168l56-6" stroke-width="9.5" stroke="#fff500EF"/><path d="M100-218l0-56" stroke-width="9.5" stroke="#fffEF"/><path d="M55-194l-46-32" stroke-width="9.5" stroke="#fff500F0"/><path d="M150-175l51-13" stroke-width="9.5" stroke="#005bbbF2"/><path d="M119-209l19-46" stroke-width="9.6" stroke="#c2e1ffF3"/><path d="M73-120l-26 42" stroke-width="9.6" stroke="#fffF3"/><path d="M53-177l-46-14" stroke-width="9.6" stroke="#fff500F3"/><path d="M68-129l-32 33" stroke-width="9.6" stroke="#005bbbF4"/><path d="M99-207l-1-44" stroke-width="9.7" stroke="#c2e1ffF5"/><path d="M99-205l-1-43" stroke-width="9.7" stroke="#fffF6"/><path d="M59-173l-41-11" stroke-width="9.7" stroke="#c2e1ffF6"/><path d="M102-203l3-41" stroke-width="9.7" stroke="#005bbbF7"/><path d="M137-152l37 11" stroke-width="9.8" stroke="#005bbbF8"/><path d="M113-198l13-35" stroke-width="9.8" stroke="#c2e1ffF8"/><path d="M79-182l-21-20" stroke-width="9.9" stroke="#c2e1ffFB"/><path d="M121-175l22-13" stroke-width="9.9" stroke="#fffFC"/><path d="M97-181l-3-18" stroke-width="9.9" stroke="#fffFD"/></g></svg>