<svg width="1200" height="675" viewBox="-500 -500 1200 675" xmlns="http://www.w3.org/2000/svg"><path d="M-500-500h1200v675h-1200z" fill="#000"/><style>.sparkles path{stroke-linecap:round}</style><g class="sparkles"><path d="M100-166l0-4" stroke-width="1.0" stroke="#001d3d0"/><path d="M102-175l2-13" stroke-width="1.0" stroke="#001d3d0"/><path d="M105-149l5 13" stroke-width="1.0" stroke="#0008140"/><path d="M116-159l15 4" stroke-width="1.0" stroke="#0008141"/><path d="M63-166l-37-3" stroke-width="1.2" stroke="#001d3d6"/><path d="M137-173l36-10" stroke-width="1.2" stroke="#ffc3006"/><path d="M145-153l46 9" stroke-width="1.4" stroke="#003566A"/><path d="M59-200l-40-38" stroke-width="1.5" stroke="#000814E"/><path d="M58-117l-42 46" stroke-width="1.7" stroke="#00081412"/><path d="M67-218l-33-55" stroke-width="1.7" stroke="#ffd60a14"/><path d="M44-124l-56 39" stroke-width="1.8" stroke="#00081417"/><path d="M169-170l69-7" stroke-width="1.9" stroke="#00356618"/><path d="M51-114l-50 49" stroke-width="1.9" stroke="#ffd60a18"/><path d="M41-123l-60 39" stroke-width="1.9" stroke="#ffc30019"/><path d="M125-95l26 67" stroke-width="1.9" stroke="#001d3d1A"/><path d="M173-163l73 0" stroke-width="2.0" stroke="#ffc3001B"/><path d="M59-224l-40-62" stroke-width="2.0" stroke="#0008141B"/><path d="M45-213l-54-50" stroke-width="2.0" stroke="#0008141C"/><path d="M169-192l69-30" stroke-width="2.0" stroke="#ffc3001D"/><path d="M171-137l71 26" stroke-width="2.0" stroke="#ffc3001D"/><path d="M52-102l-47 60" stroke-width="2.1" stroke="#ffd60a1E"/><path d="M43-110l-56 53" stroke-width="2.1" stroke="#ffd60a1F"/><path d="M149-228l48-66" stroke-width="2.3" stroke="#ffc30023"/><path d="M166-112l66 50" stroke-width="2.3" stroke="#001d3d24"/><path d="M18-148l-81 15" stroke-width="2.3" stroke="#001d3d24"/><path d="M162-218l62-56" stroke-width="2.3" stroke="#001d3d25"/><path d="M21-135l-79 28" stroke-width="2.3" stroke="#ffc30025"/><path d="M184-170l84-7" stroke-width="2.3" stroke="#00356626"/><path d="M167-110l66 53" stroke-width="2.4" stroke="#00081426"/><path d="M179-124l78 38" stroke-width="2.5" stroke="#00356629"/><path d="M14-143l-86 19" stroke-width="2.5" stroke="#001d3d2A"/><path d="M169-223l69-61" stroke-width="2.7" stroke="#ffd60a2F"/><path d="M68-76l-31 87" stroke-width="2.7" stroke="#00356630"/><path d="M67-75l-32 88" stroke-width="2.8" stroke="#ffd60a32"/><path d="M21-110l-78 52" stroke-width="2.8" stroke="#ffc30032"/><path d="M160-87l59 76" stroke-width="2.9" stroke="#ffc30035"/><path d="M34-234l-66-72" stroke-width="3.0" stroke="#ffc30037"/><path d="M22-226l-78-63" stroke-width="3.1" stroke="#0035663C"/><path d="M201-166l101-3" stroke-width="3.2" stroke="#ffd60a3D"/><path d="M2-138l-99 24" stroke-width="3.2" stroke="#ffd60a3E"/><path d="M4-195l-96-33" stroke-width="3.2" stroke="#001d3d3E"/><path d="M29-88l-71 75" stroke-width="3.3" stroke="#ffd60a41"/><path d="M115-265l16-102" stroke-width="3.3" stroke="#00081442"/><path d="M166-82l65 80" stroke-width="3.4" stroke="#00356642"/><path d="M8-113l-92 49" stroke-width="3.4" stroke="#ffc30043"/><path d="M52-69l-48 93" stroke-width="3.4" stroke="#ffd60a44"/><path d="M179-232l80-69" stroke-width="3.5" stroke="#001d3d46"/><path d="M78-266l-22-104" stroke-width="3.5" stroke="#ffd60a46"/><path d="M1-201l-99-39" stroke-width="3.5" stroke="#ffc30047"/><path d="M-6-177l-106-14" stroke-width="3.6" stroke="#00356648"/><path d="M86-55l-13 107" stroke-width="3.7" stroke="#0035664B"/><path d="M109-55l10 108" stroke-width="3.7" stroke="#0008144B"/><path d="M72-267l-28-105" stroke-width="3.7" stroke="#0008144C"/><path d="M104-53l4 109" stroke-width="3.8" stroke="#ffd60a4E"/><path d="M208-141l108 22" stroke-width="3.9" stroke="#ffc30051"/><path d="M121-271l20-108" stroke-width="3.9" stroke="#001d3d52"/><path d="M81-271l-19-109" stroke-width="3.9" stroke="#00356652"/><path d="M99-273l-2-111" stroke-width="3.9" stroke="#001d3d52"/><path d="M-10-181l-109-19" stroke-width="4.0" stroke="#001d3d54"/><path d="M17-88l-83 74" stroke-width="4.0" stroke="#ffd60a55"/><path d="M157-258l57-96" stroke-width="4.0" stroke="#00356655"/><path d="M161-256l62-93" stroke-width="4.0" stroke="#00356656"/><path d="M30-250l-71-88" stroke-width="4.1" stroke="#00356658"/><path d="M212-171l112-9" stroke-width="4.1" stroke="#001d3d58"/><path d="M86-274l-14-112" stroke-width="4.2" stroke="#001d3d59"/><path d="M187-238l87-75" stroke-width="4.5" stroke="#00356662"/><path d="M-15-164l-115-2" stroke-width="4.5" stroke="#00081463"/><path d="M116-277l16-114" stroke-width="4.6" stroke="#ffd60a65"/><path d="M199-102l99 60" stroke-width="4.7" stroke="#00356668"/><path d="M145-270l44-107" stroke-width="4.7" stroke="#ffc30068"/><path d="M102-279l2-116" stroke-width="4.7" stroke="#00356669"/><path d="M19-79l-81 84" stroke-width="4.8" stroke="#ffc3006A"/><path d="M216-148l116 14" stroke-width="4.8" stroke="#ffd60a6C"/><path d="M154-59l53 104" stroke-width="4.9" stroke="#ffd60a6D"/><path d="M165-65l65 97" stroke-width="4.9" stroke="#001d3d6E"/><path d="M64-274l-36-111" stroke-width="4.9" stroke="#0008146E"/><path d="M115-279l14-116" stroke-width="4.9" stroke="#ffd60a6E"/><path d="M205-111l106 52" stroke-width="5.0" stroke="#00356671"/><path d="M-16-140l-115 22" stroke-width="5.1" stroke="#00356673"/><path d="M218-162l117 1" stroke-width="5.1" stroke="#ffd60a74"/><path d="M218-159l118 3" stroke-width="5.2" stroke="#001d3d76"/><path d="M203-220l103-58" stroke-width="5.2" stroke="#ffc30077"/><path d="M9-87l-90 75" stroke-width="5.2" stroke="#001d3d77"/><path d="M215-135l114 28" stroke-width="5.2" stroke="#ffc30078"/><path d="M180-249l80-87" stroke-width="5.3" stroke="#ffd60a78"/><path d="M4-94l-96 69" stroke-width="5.3" stroke="#00081479"/><path d="M98-45l-2 118" stroke-width="5.3" stroke="#001d3d79"/><path d="M-6-215l-106-52" stroke-width="5.4" stroke="#ffd60a7B"/><path d="M162-263l62-101" stroke-width="5.4" stroke="#ffc3007B"/><path d="M216-139l116 23" stroke-width="5.4" stroke="#0035667D"/><path d="M124-47l24 116" stroke-width="5.4" stroke="#ffd60a7D"/><path d="M45-267l-55-104" stroke-width="5.5" stroke="#0008147E"/><path d="M93-280l-8-118" stroke-width="5.5" stroke="#ffd60a7F"/><path d="M9-238l-91-75" stroke-width="5.5" stroke="#ffd60a7F"/><path d="M-1-101l-101 61" stroke-width="5.5" stroke="#ffc30080"/><path d="M120-46l21 116" stroke-width="5.6" stroke="#ffc30082"/><path d="M165-261l65-99" stroke-width="5.6" stroke="#00081483"/><path d="M135-50l35 113" stroke-width="5.7" stroke="#ffc30085"/><path d="M11-240l-89-77" stroke-width="5.8" stroke="#00081487"/><path d="M-14-194l-113-31" stroke-width="5.8" stroke="#001d3d89"/><path d="M67-50l-34 113" stroke-width="5.9" stroke="#ffd60a8A"/><path d="M-15-187l-115-24" stroke-width="6.0" stroke="#0035668D"/><path d="M148-270l48-107" stroke-width="6.0" stroke="#ffc3008E"/><path d="M211-125l111 38" stroke-width="6.1" stroke="#0035668F"/><path d="M139-272l40-109" stroke-width="6.3" stroke="#00356695"/><path d="M215-182l114-19" stroke-width="6.3" stroke="#001d3d95"/><path d="M61-53l-40 109" stroke-width="6.3" stroke="#00081496"/><path d="M78-276l-22-114" stroke-width="6.4" stroke="#001d3d99"/><path d="M158-63l58 100" stroke-width="6.4" stroke="#ffd60a9A"/><path d="M18-243l-81-81" stroke-width="6.5" stroke="#0035669C"/><path d="M193-229l92-67" stroke-width="6.7" stroke="#000814A0"/><path d="M111-276l11-113" stroke-width="6.7" stroke="#003566A2"/><path d="M15-238l-85-75" stroke-width="6.7" stroke="#ffc300A2"/><path d="M160-67l60 96" stroke-width="6.8" stroke="#ffc300A4"/><path d="M14-90l-86 73" stroke-width="6.9" stroke="#000814A5"/><path d="M-6-200l-106-38" stroke-width="6.9" stroke="#ffc300A5"/><path d="M-10-143l-110 20" stroke-width="6.9" stroke="#000814A8"/><path d="M96-51l-5 112" stroke-width="7.0" stroke="#001d3dA8"/><path d="M-10-185l-109-22" stroke-width="7.0" stroke="#000814A8"/><path d="M73-270l-27-107" stroke-width="7.1" stroke="#ffc300AB"/><path d="M114-270l14-107" stroke-width="7.3" stroke="#ffc300B2"/><path d="M60-63l-39 99" stroke-width="7.4" stroke="#001d3dB5"/><path d="M139-261l39-98" stroke-width="7.5" stroke="#003566B8"/><path d="M180-93l79 69" stroke-width="7.5" stroke="#003566B8"/><path d="M199-129l100 33" stroke-width="7.6" stroke="#003566BA"/><path d="M2-199l-97-36" stroke-width="7.6" stroke="#ffd60aBB"/><path d="M183-100l83 63" stroke-width="7.6" stroke="#000814BB"/><path d="M60-258l-39-95" stroke-width="7.7" stroke="#ffc300BE"/><path d="M178-95l77 68" stroke-width="7.7" stroke="#ffc300BE"/><path d="M17-223l-83-61" stroke-width="7.7" stroke="#ffc300BE"/><path d="M123-63l23 99" stroke-width="7.8" stroke="#ffc300BF"/><path d="M5-200l-95-37" stroke-width="7.8" stroke="#000814BF"/><path d="M27-233l-73-70" stroke-width="7.8" stroke="#ffd60aC0"/><path d="M196-194l95-31" stroke-width="7.9" stroke="#000814C2"/><path d="M120-259l20-97" stroke-width="8.0" stroke="#003566C5"/><path d="M30-230l-71-67" stroke-width="8.0" stroke="#001d3dC7"/><path d="M188-121l87 42" stroke-width="8.1" stroke="#000814C8"/><path d="M123-257l23-94" stroke-width="8.1" stroke="#ffc300C8"/><path d="M12-201l-88-39" stroke-width="8.1" stroke="#ffd60aC9"/><path d="M193-185l94-22" stroke-width="8.1" stroke="#001d3dC9"/><path d="M89-256l-10-93" stroke-width="8.2" stroke="#001d3dCC"/><path d="M188-193l87-30" stroke-width="8.3" stroke="#ffd60aCE"/><path d="M31-103l-70 59" stroke-width="8.4" stroke="#003566D0"/><path d="M92-72l-9 91" stroke-width="8.4" stroke="#ffc300D0"/><path d="M34-100l-65 62" stroke-width="8.4" stroke="#001d3dD1"/><path d="M190-162l91 0" stroke-width="8.4" stroke="#ffd60aD1"/><path d="M73-79l-27 84" stroke-width="8.5" stroke="#001d3dD4"/><path d="M161-225l61-63" stroke-width="8.5" stroke="#000814D4"/><path d="M14-144l-86 18" stroke-width="8.5" stroke="#003566D4"/><path d="M24-120l-76 42" stroke-width="8.5" stroke="#ffd60aD5"/><path d="M64-84l-36 79" stroke-width="8.6" stroke="#ffc300D6"/><path d="M180-195l79-33" stroke-width="8.6" stroke="#000814D6"/><path d="M146-90l46 73" stroke-width="8.6" stroke="#001d3dD6"/><path d="M31-212l-69-49" stroke-width="8.6" stroke="#ffc300D8"/><path d="M63-238l-37-76" stroke-width="8.6" stroke="#003566D8"/><path d="M17-160l-84 2" stroke-width="8.7" stroke="#ffd60aD9"/><path d="M17-163l-83 0" stroke-width="8.7" stroke="#003566DA"/><path d="M74-241l-26-79" stroke-width="8.7" stroke="#000814DA"/><path d="M41-219l-59-56" stroke-width="8.8" stroke="#ffc300DB"/><path d="M44-104l-55 59" stroke-width="8.8" stroke="#003566DC"/><path d="M29-124l-70 39" stroke-width="8.8" stroke="#001d3dDC"/><path d="M54-226l-47-64" stroke-width="8.9" stroke="#001d3dDE"/><path d="M174-143l74 20" stroke-width="8.9" stroke="#000814E0"/><path d="M60-224l-41-61" stroke-width="9.0" stroke="#001d3dE3"/><path d="M136-103l36 59" stroke-width="9.1" stroke="#001d3dE6"/><path d="M59-106l-42 56" stroke-width="9.1" stroke="#003566E6"/><path d="M34-179l-65-17" stroke-width="9.2" stroke="#001d3dE7"/><path d="M147-205l48-42" stroke-width="9.3" stroke="#001d3dEA"/><path d="M47-137l-52 25" stroke-width="9.4" stroke="#003566EE"/><path d="M48-139l-53 24" stroke-width="9.4" stroke="#003566EE"/><path d="M129-211l29-49" stroke-width="9.4" stroke="#ffd60aEF"/><path d="M95-218l-5-55" stroke-width="9.5" stroke="#ffc300EF"/><path d="M86-195l-14-32" stroke-width="9.8" stroke="#ffc300F9"/><path d="M131-178l31-16" stroke-width="9.8" stroke="#001d3dF9"/><path d="M86-132l-14 31" stroke-width="9.8" stroke="#001d3dF9"/><path d="M117-135l18 28" stroke-width="9.8" stroke="#003566F9"/><path d="M110-189l10-27" stroke-width="9.9" stroke="#ffd60aFB"/><path d="M84-170l-16-8" stroke-width="9.9" stroke="#001d3dFD"/><path d="M84-157l-17 5" stroke-width="10.0" stroke="#000814FD"/><path d="M105-154l5 8" stroke-width="10.0" stroke="#001d3dFE"/><path d="M99-162l-2 0" stroke-width="10.0" stroke="#000814FE"/></g></svg>