<svg width="1200" height="675" viewBox="-500 -500 1200 675" xmlns="http://www.w3.org/2000/svg"><path d="M-500-500h1200v675h-1200z" fill="#000"/><style>.sparkles path{stroke-linecap:round}</style><g class="sparkles"><path d="M96-163l-5-1" stroke-width="1.0" stroke="#2a9d8f0"/><path d="M99-149l-1 13" stroke-width="1.0" stroke="#2646530"/><path d="M96-179l-5-16" stroke-width="1.0" stroke="#e9c46a1"/><path d="M107-145l7 18" stroke-width="1.1" stroke="#2646531"/><path d="M86-142l-14 20" stroke-width="1.1" stroke="#e9c46a2"/><path d="M68-158l-31 5" stroke-width="1.2" stroke="#e76f514"/><path d="M124-189l24-26" stroke-width="1.2" stroke="#2a9d8f5"/><path d="M135-145l36 17" stroke-width="1.3" stroke="#f4a2617"/><path d="M131-138l30 25" stroke-width="1.3" stroke="#2a9d8f7"/><path d="M96-202l-3-40" stroke-width="1.3" stroke="#2a9d8f7"/><path d="M60-146l-40 17" stroke-width="1.3" stroke="#e76f518"/><path d="M81-209l-19-46" stroke-width="1.4" stroke="#e9c46aB"/><path d="M64-128l-36 35" stroke-width="1.4" stroke="#2a9d8fB"/><path d="M63-197l-36-35" stroke-width="1.4" stroke="#f4a261C"/><path d="M55-190l-44-27" stroke-width="1.5" stroke="#264653D"/><path d="M46-164l-54-2" stroke-width="1.5" stroke="#f4a261E"/><path d="M87-217l-12-54" stroke-width="1.5" stroke="#264653F"/><path d="M134-208l34-46" stroke-width="1.6" stroke="#e76f51F"/><path d="M97-220l-3-57" stroke-width="1.6" stroke="#26465310"/><path d="M111-221l12-58" stroke-width="1.6" stroke="#e9c46a11"/><path d="M96-224l-5-61" stroke-width="1.7" stroke="#e76f5112"/><path d="M159-180l59-17" stroke-width="1.7" stroke="#2a9d8f12"/><path d="M146-205l46-42" stroke-width="1.7" stroke="#e9c46a13"/><path d="M150-200l50-38" stroke-width="1.7" stroke="#2a9d8f13"/><path d="M46-130l-53 33" stroke-width="1.7" stroke="#2a9d8f13"/><path d="M38-173l-63-11" stroke-width="1.7" stroke="#e76f5113"/><path d="M160-185l60-23" stroke-width="1.7" stroke="#26465314"/><path d="M117-95l16 68" stroke-width="1.9" stroke="#e9c46a18"/><path d="M36-198l-64-35" stroke-width="2.0" stroke="#e76f511B"/><path d="M112-235l11-73" stroke-width="2.0" stroke="#2a9d8f1B"/><path d="M30-138l-70 25" stroke-width="2.0" stroke="#e9c46a1C"/><path d="M120-236l20-73" stroke-width="2.0" stroke="#e9c46a1D"/><path d="M103-240l3-77" stroke-width="2.1" stroke="#2a9d8f1F"/><path d="M51-102l-50 60" stroke-width="2.1" stroke="#e76f511F"/><path d="M181-162l80 0" stroke-width="2.2" stroke="#2a9d8f22"/><path d="M179-183l80-21" stroke-width="2.3" stroke="#e9c46a23"/><path d="M146-231l45-69" stroke-width="2.3" stroke="#f4a26124"/><path d="M173-203l73-40" stroke-width="2.3" stroke="#26465325"/><path d="M161-104l61 58" stroke-width="2.4" stroke="#f4a26126"/><path d="M59-85l-40 77" stroke-width="2.5" stroke="#f4a26129"/><path d="M161-100l62 63" stroke-width="2.5" stroke="#2a9d8f2A"/><path d="M152-234l52-71" stroke-width="2.5" stroke="#e9c46a2A"/><path d="M13-180l-86-18" stroke-width="2.5" stroke="#e76f512A"/><path d="M185-138l86 24" stroke-width="2.5" stroke="#2a9d8f2B"/><path d="M31-220l-68-58" stroke-width="2.6" stroke="#e76f512C"/><path d="M191-151l91 12" stroke-width="2.7" stroke="#f4a2612F"/><path d="M133-76l34 86" stroke-width="2.7" stroke="#f4a26130"/><path d="M16-203l-84-40" stroke-width="2.7" stroke="#e76f5131"/><path d="M11-127l-89 36" stroke-width="2.9" stroke="#e76f5135"/><path d="M192-127l91 36" stroke-width="3.0" stroke="#26465338"/><path d="M198-159l99 4" stroke-width="3.0" stroke="#2a9d8f39"/><path d="M5-135l-95 28" stroke-width="3.0" stroke="#e76f5139"/><path d="M193-198l93-35" stroke-width="3.1" stroke="#2646533A"/><path d="M184-106l85 57" stroke-width="3.2" stroke="#2a9d8f3E"/><path d="M100-61l0 102" stroke-width="3.2" stroke="#2646533E"/><path d="M108-60l8 102" stroke-width="3.3" stroke="#2a9d8f3F"/><path d="M132-62l31 100" stroke-width="3.4" stroke="#2a9d8f45"/><path d="M-5-157l-105 5" stroke-width="3.4" stroke="#f4a26145"/><path d="M124-60l24 103" stroke-width="3.5" stroke="#e9c46a46"/><path d="M6-214l-93-51" stroke-width="3.6" stroke="#2a9d8f49"/><path d="M186-99l87 63" stroke-width="3.6" stroke="#26465349"/><path d="M192-107l92 55" stroke-width="3.6" stroke="#2646534A"/><path d="M0-122l-99 41" stroke-width="3.7" stroke="#e9c46a4B"/><path d="M125-268l25-106" stroke-width="3.7" stroke="#2646534D"/><path d="M7-220l-94-58" stroke-width="3.8" stroke="#e9c46a50"/><path d="M-10-168l-109-6" stroke-width="3.8" stroke="#2a9d8f50"/><path d="M10-99l-90 64" stroke-width="3.9" stroke="#f4a26151"/><path d="M28-246l-73-83" stroke-width="3.9" stroke="#f4a26151"/><path d="M50-261l-51-99" stroke-width="3.9" stroke="#e76f5153"/><path d="M61-267l-39-104" stroke-width="4.0" stroke="#26465355"/><path d="M183-86l83 76" stroke-width="4.1" stroke="#e9c46a58"/><path d="M180-82l80 80" stroke-width="4.2" stroke="#2a9d8f5B"/><path d="M122-51l22 111" stroke-width="4.2" stroke="#f4a2615B"/><path d="M213-154l114 8" stroke-width="4.3" stroke="#2a9d8f5C"/><path d="M159-260l59-98" stroke-width="4.3" stroke="#2646535D"/><path d="M121-50l21 112" stroke-width="4.4" stroke="#2646535F"/><path d="M89-48l-12 115" stroke-width="4.5" stroke="#2a9d8f63"/><path d="M161-65l62 98" stroke-width="4.6" stroke="#e9c46a65"/><path d="M12-237l-88-75" stroke-width="4.6" stroke="#e76f5165"/><path d="M216-151l115 11" stroke-width="4.7" stroke="#f4a26168"/><path d="M61-53l-39 109" stroke-width="4.7" stroke="#e9c46a68"/><path d="M110-47l10 116" stroke-width="4.7" stroke="#2a9d8f69"/><path d="M216-151l116 12" stroke-width="4.8" stroke="#2646536B"/><path d="M18-245l-83-83" stroke-width="4.8" stroke="#e9c46a6B"/><path d="M-13-191l-114-28" stroke-width="4.8" stroke="#e76f516C"/><path d="M7-233l-94-71" stroke-width="4.9" stroke="#2a9d8f6E"/><path d="M216-180l116-17" stroke-width="4.9" stroke="#2a9d8f6F"/><path d="M164-261l65-98" stroke-width="5.0" stroke="#e76f5172"/><path d="M212-125l111 38" stroke-width="5.1" stroke="#e76f5174"/><path d="M159-265l59-102" stroke-width="5.2" stroke="#2a9d8f76"/><path d="M182-78l82 84" stroke-width="5.2" stroke="#f4a26176"/><path d="M190-239l90-76" stroke-width="5.2" stroke="#e9c46a76"/><path d="M129-277l29-114" stroke-width="5.2" stroke="#26465377"/><path d="M-17-179l-117-16" stroke-width="5.4" stroke="#e9c46a7B"/><path d="M120-46l20 116" stroke-width="5.4" stroke="#e76f517D"/><path d="M103-44l4 118" stroke-width="5.5" stroke="#f4a2617F"/><path d="M28-256l-71-94" stroke-width="5.7" stroke="#e9c46a84"/><path d="M15-244l-85-82" stroke-width="5.7" stroke="#2a9d8f84"/><path d="M23-73l-77 89" stroke-width="5.7" stroke="#e9c46a84"/><path d="M176-253l76-90" stroke-width="5.8" stroke="#f4a26188"/><path d="M204-106l103 56" stroke-width="5.8" stroke="#e76f5188"/><path d="M129-277l29-114" stroke-width="5.9" stroke="#2a9d8f89"/><path d="M-12-198l-112-36" stroke-width="5.9" stroke="#2a9d8f8B"/><path d="M173-70l73 92" stroke-width="5.9" stroke="#e76f518B"/><path d="M60-273l-39-111" stroke-width="6.0" stroke="#2a9d8f8C"/><path d="M208-208l108-46" stroke-width="6.0" stroke="#e76f518D"/><path d="M209-203l110-40" stroke-width="6.2" stroke="#e9c46a93"/><path d="M63-273l-37-111" stroke-width="6.2" stroke="#2a9d8f94"/><path d="M-11-198l-111-36" stroke-width="6.3" stroke="#26465394"/><path d="M19-80l-82 83" stroke-width="6.3" stroke="#2a9d8f96"/><path d="M130-275l30-112" stroke-width="6.3" stroke="#26465397"/><path d="M151-267l51-104" stroke-width="6.4" stroke="#26465398"/><path d="M172-253l72-90" stroke-width="6.4" stroke="#f4a2619A"/><path d="M88-48l-13 115" stroke-width="6.5" stroke="#f4a2619B"/><path d="M188-88l88 74" stroke-width="6.5" stroke="#e9c46a9B"/><path d="M210-197l110-35" stroke-width="6.5" stroke="#f4a2619B"/><path d="M130-52l29 111" stroke-width="6.6" stroke="#e76f519D"/><path d="M195-99l96 64" stroke-width="6.6" stroke="#f4a2619D"/><path d="M-3-113l-103 49" stroke-width="6.7" stroke="#264653A1"/><path d="M-4-209l-104-47" stroke-width="6.7" stroke="#e76f51A1"/><path d="M142-57l42 105" stroke-width="6.7" stroke="#264653A2"/><path d="M80-274l-20-111" stroke-width="6.8" stroke="#264653A4"/><path d="M-12-173l-113-11" stroke-width="6.8" stroke="#e76f51A4"/><path d="M-7-199l-106-37" stroke-width="6.8" stroke="#2a9d8fA5"/><path d="M201-112l100 51" stroke-width="6.8" stroke="#f4a261A5"/><path d="M106-50l6 112" stroke-width="6.9" stroke="#e9c46aA6"/><path d="M50-62l-49 100" stroke-width="6.9" stroke="#2a9d8fA7"/><path d="M142-266l43-104" stroke-width="6.9" stroke="#e76f51A8"/><path d="M129-57l29 106" stroke-width="7.1" stroke="#2a9d8fAE"/><path d="M94-272l-5-110" stroke-width="7.2" stroke="#2a9d8fAE"/><path d="M-8-142l-107 20" stroke-width="7.2" stroke="#2a9d8fAF"/><path d="M20-88l-80 74" stroke-width="7.2" stroke="#e76f51B0"/><path d="M-6-137l-105 26" stroke-width="7.3" stroke="#264653B1"/><path d="M57-261l-42-98" stroke-width="7.4" stroke="#e9c46aB4"/><path d="M1-198l-99-36" stroke-width="7.5" stroke="#f4a261B9"/><path d="M22-232l-79-70" stroke-width="7.6" stroke="#e9c46aBA"/><path d="M71-63l-30 100" stroke-width="7.7" stroke="#2a9d8fBC"/><path d="M151-74l52 89" stroke-width="7.7" stroke="#e76f51BE"/><path d="M159-245l59-83" stroke-width="7.8" stroke="#e76f51C0"/><path d="M54-249l-45-87" stroke-width="8.0" stroke="#e9c46aC6"/><path d="M195-151l94 12" stroke-width="8.2" stroke="#e76f51CA"/><path d="M195-152l95 10" stroke-width="8.2" stroke="#e9c46aCA"/><path d="M183-205l83-42" stroke-width="8.3" stroke="#2a9d8fCD"/><path d="M45-237l-55-75" stroke-width="8.3" stroke="#e9c46aCE"/><path d="M192-170l92-8" stroke-width="8.3" stroke="#264653CF"/><path d="M126-250l27-88" stroke-width="8.3" stroke="#e76f51D0"/><path d="M188-137l88 25" stroke-width="8.3" stroke="#2a9d8fD0"/><path d="M113-73l13 89" stroke-width="8.4" stroke="#e9c46aD1"/><path d="M49-92l-50 71" stroke-width="8.5" stroke="#e9c46aD5"/><path d="M104-76l5 87" stroke-width="8.5" stroke="#264653D5"/><path d="M165-105l65 57" stroke-width="8.6" stroke="#2a9d8fD6"/><path d="M59-88l-41 74" stroke-width="8.6" stroke="#e9c46aD8"/><path d="M184-175l84-12" stroke-width="8.6" stroke="#e9c46aD8"/><path d="M181-162l81 0" stroke-width="8.8" stroke="#e76f51DC"/><path d="M115-241l15-79" stroke-width="8.8" stroke="#e76f51DD"/><path d="M57-95l-44 67" stroke-width="8.8" stroke="#264653DD"/><path d="M46-106l-54 57" stroke-width="8.9" stroke="#e76f51DE"/><path d="M43-216l-57-54" stroke-width="8.9" stroke="#264653DE"/><path d="M148-101l49 61" stroke-width="8.9" stroke="#f4a261DF"/><path d="M168-137l68 26" stroke-width="9.0" stroke="#e76f51E3"/><path d="M51-216l-50-53" stroke-width="9.1" stroke="#e76f51E4"/><path d="M28-156l-72 7" stroke-width="9.1" stroke="#e9c46aE4"/><path d="M54-216l-45-54" stroke-width="9.1" stroke="#e76f51E5"/><path d="M46-118l-54 45" stroke-width="9.1" stroke="#f4a261E6"/><path d="M128-99l29 63" stroke-width="9.1" stroke="#e76f51E6"/><path d="M87-228l-14-66" stroke-width="9.2" stroke="#2a9d8fE8"/><path d="M151-121l50 42" stroke-width="9.2" stroke="#264653E9"/><path d="M124-106l23 56" stroke-width="9.3" stroke="#f4a261EC"/><path d="M54-127l-47 36" stroke-width="9.4" stroke="#e9c46aEE"/><path d="M74-212l-27-49" stroke-width="9.5" stroke="#f4a261EF"/><path d="M136-121l36 42" stroke-width="9.5" stroke="#2a9d8fF0"/><path d="M118-116l18 47" stroke-width="9.6" stroke="#264653F2"/><path d="M70-202l-30-39" stroke-width="9.6" stroke="#e76f51F3"/><path d="M134-197l35-35" stroke-width="9.6" stroke="#264653F3"/><path d="M86-121l-14 41" stroke-width="9.7" stroke="#f4a261F6"/><path d="M89-201l-11-39" stroke-width="9.7" stroke="#f4a261F7"/><path d="M66-181l-35-19" stroke-width="9.7" stroke="#f4a261F7"/><path d="M129-137l29 26" stroke-width="9.8" stroke="#264653F7"/><path d="M86-139l-15 23" stroke-width="9.9" stroke="#264653FB"/><path d="M75-160l-25 2" stroke-width="9.9" stroke="#264653FC"/><path d="M99-181l-1-18" stroke-width="9.9" stroke="#2a9d8fFD"/></g></svg>