<svg width="1200" height="675" viewBox="-500 -500 1200 675" xmlns="http://www.w3.org/2000/svg"><path d="M-500-500h1200v675h-1200z" fill="#000"/><style>.sparkles path{stroke-linecap:round}</style><g class="sparkles"><path d="M110-172l9-10" stroke-width="1.0" stroke="#fff0"/><path d="M111-154l11 8" stroke-width="1.0" stroke="#fff5000"/><path d="M94-139l-5 23" stroke-width="1.1" stroke="#fff5002"/><path d="M114-186l14-23" stroke-width="1.1" stroke="#fff5003"/><path d="M103-197l4-35" stroke-width="1.2" stroke="#fff5"/><path d="M85-196l-16-33" stroke-width="1.2" stroke="#005bbb6"/><path d="M130-189l30-26" stroke-width="1.3" stroke="#fff5007"/><path d="M71-194l-29-32" stroke-width="1.3" stroke="#c2e1ff8"/><path d="M64-137l-36 25" stroke-width="1.3" stroke="#005bbb9"/><path d="M123-118l24 44" stroke-width="1.4" stroke="#fff500C"/><path d="M63-123l-38 39" stroke-width="1.5" stroke="#005bbbE"/><path d="M88-103l-11 60" stroke-width="1.6" stroke="#005bbb12"/><path d="M108-224l7-62" stroke-width="1.7" stroke="#fff50013"/><path d="M87-101l-13 61" stroke-width="1.7" stroke="#005bbb13"/><path d="M147-116l46 47" stroke-width="1.8" stroke="#005bbb15"/><path d="M52-208l-48-46" stroke-width="1.8" stroke="#fff16"/><path d="M167-141l68 22" stroke-width="1.9" stroke="#fff19"/><path d="M47-216l-53-53" stroke-width="2.0" stroke="#c2e1ff1D"/><path d="M100-241l-1-79" stroke-width="2.1" stroke="#fff20"/><path d="M81-239l-20-77" stroke-width="2.2" stroke="#c2e1ff20"/><path d="M152-224l52-61" stroke-width="2.2" stroke="#fff50022"/><path d="M80-85l-21 78" stroke-width="2.2" stroke="#005bbb22"/><path d="M141-93l40 70" stroke-width="2.2" stroke="#005bbb22"/><path d="M25-194l-74-31" stroke-width="2.2" stroke="#fff22"/><path d="M19-145l-81 18" stroke-width="2.3" stroke="#005bbb24"/><path d="M155-98l55 64" stroke-width="2.4" stroke="#fff26"/><path d="M168-214l68-52" stroke-width="2.4" stroke="#005bbb27"/><path d="M118-246l18-84" stroke-width="2.4" stroke="#005bbb27"/><path d="M43-98l-58 65" stroke-width="2.4" stroke="#005bbb28"/><path d="M53-89l-47 73" stroke-width="2.5" stroke="#fff29"/><path d="M36-223l-65-60" stroke-width="2.5" stroke="#c2e1ff2A"/><path d="M64-245l-36-82" stroke-width="2.6" stroke="#005bbb2C"/><path d="M164-226l64-63" stroke-width="2.6" stroke="#fff5002C"/><path d="M52-241l-48-78" stroke-width="2.7" stroke="#fff2F"/><path d="M189-193l90-31" stroke-width="2.8" stroke="#fff33"/><path d="M186-203l86-40" stroke-width="2.8" stroke="#c2e1ff33"/><path d="M167-91l67 72" stroke-width="3.0" stroke="#fff50038"/><path d="M170-232l71-69" stroke-width="3.0" stroke="#005bbb39"/><path d="M179-224l78-61" stroke-width="3.1" stroke="#fff3A"/><path d="M8-121l-93 41" stroke-width="3.2" stroke="#005bbb3D"/><path d="M170-237l70-75" stroke-width="3.3" stroke="#c2e1ff40"/><path d="M201-185l100-22" stroke-width="3.3" stroke="#fff41"/><path d="M99-59l0 103" stroke-width="3.3" stroke="#fff50041"/><path d="M8-113l-91 50" stroke-width="3.4" stroke="#fff50043"/><path d="M174-87l75 75" stroke-width="3.5" stroke="#005bbb46"/><path d="M10-107l-91 55" stroke-width="3.5" stroke="#fff50046"/><path d="M-6-169l-106-6" stroke-width="3.5" stroke="#fff47"/><path d="M94-56l-6 106" stroke-width="3.5" stroke="#c2e1ff48"/><path d="M0-126l-100 37" stroke-width="3.6" stroke="#fff48"/><path d="M68-59l-31 103" stroke-width="3.7" stroke="#fff4B"/><path d="M-3-195l-103-33" stroke-width="3.7" stroke="#c2e1ff4C"/><path d="M107-271l6-109" stroke-width="3.8" stroke="#fff4E"/><path d="M190-101l90 62" stroke-width="3.8" stroke="#c2e1ff4E"/><path d="M35-75l-66 88" stroke-width="3.8" stroke="#fff5004E"/><path d="M-8-144l-108 19" stroke-width="3.8" stroke="#fff5004F"/><path d="M150-65l51 97" stroke-width="3.8" stroke="#005bbb4F"/><path d="M187-96l87 66" stroke-width="3.8" stroke="#005bbb4F"/><path d="M87-53l-14 109" stroke-width="3.9" stroke="#c2e1ff50"/><path d="M186-94l87 69" stroke-width="3.9" stroke="#fff50052"/><path d="M2-214l-99-51" stroke-width="3.9" stroke="#c2e1ff53"/><path d="M8-224l-93-61" stroke-width="3.9" stroke="#c2e1ff53"/><path d="M184-89l84 73" stroke-width="4.0" stroke="#005bbb55"/><path d="M186-234l86-71" stroke-width="4.0" stroke="#fff50055"/><path d="M-11-149l-111 13" stroke-width="4.1" stroke="#fff50056"/><path d="M-9-135l-108 28" stroke-width="4.1" stroke="#fff57"/><path d="M-1-213l-102-50" stroke-width="4.2" stroke="#fff5005B"/><path d="M68-271l-32-109" stroke-width="4.2" stroke="#fff5B"/><path d="M213-171l113-8" stroke-width="4.2" stroke="#c2e1ff5B"/><path d="M206-203l106-41" stroke-width="4.3" stroke="#fff5C"/><path d="M192-229l92-67" stroke-width="4.3" stroke="#c2e1ff5D"/><path d="M207-124l108 39" stroke-width="4.3" stroke="#005bbb5E"/><path d="M200-217l101-54" stroke-width="4.3" stroke="#fff5005E"/><path d="M202-111l103 51" stroke-width="4.4" stroke="#005bbb5F"/><path d="M199-220l99-57" stroke-width="4.4" stroke="#fff60"/><path d="M39-65l-60 97" stroke-width="4.4" stroke="#c2e1ff60"/><path d="M157-262l57-100" stroke-width="4.4" stroke="#005bbb61"/><path d="M186-86l86 77" stroke-width="4.5" stroke="#005bbb63"/><path d="M189-236l90-74" stroke-width="4.6" stroke="#fff50066"/><path d="M-7-206l-108-43" stroke-width="4.6" stroke="#c2e1ff66"/><path d="M121-277l20-114" stroke-width="4.7" stroke="#fff50068"/><path d="M205-213l104-51" stroke-width="4.7" stroke="#c2e1ff68"/><path d="M-17-161l-116 1" stroke-width="4.8" stroke="#c2e1ff6B"/><path d="M60-272l-39-110" stroke-width="4.8" stroke="#fff5006B"/><path d="M153-267l54-104" stroke-width="4.9" stroke="#fff5006E"/><path d="M131-50l32 113" stroke-width="5.0" stroke="#fff5006F"/><path d="M124-277l23-115" stroke-width="5.0" stroke="#fff50071"/><path d="M-6-111l-105 51" stroke-width="5.0" stroke="#fff50071"/><path d="M15-81l-85 81" stroke-width="5.0" stroke="#fff50072"/><path d="M107-45l7 117" stroke-width="5.1" stroke="#c2e1ff73"/><path d="M75-278l-25-115" stroke-width="5.1" stroke="#c2e1ff75"/><path d="M218-159l117 4" stroke-width="5.1" stroke="#005bbb75"/><path d="M28-69l-71 94" stroke-width="5.2" stroke="#c2e1ff76"/><path d="M-1-223l-101-61" stroke-width="5.2" stroke="#005bbb76"/><path d="M32-259l-68-96" stroke-width="5.2" stroke="#c2e1ff78"/><path d="M155-58l55 104" stroke-width="5.2" stroke="#005bbb78"/><path d="M215-138l116 24" stroke-width="5.3" stroke="#fff50079"/><path d="M4-231l-96-69" stroke-width="5.3" stroke="#fff79"/><path d="M30-258l-70-95" stroke-width="5.4" stroke="#c2e1ff7C"/><path d="M28-69l-71 94" stroke-width="5.5" stroke="#005bbb7F"/><path d="M103-281l3-118" stroke-width="5.5" stroke="#005bbb7F"/><path d="M25-253l-76-91" stroke-width="5.5" stroke="#c2e1ff7F"/><path d="M156-267l55-104" stroke-width="5.6" stroke="#c2e1ff83"/><path d="M10-86l-90 76" stroke-width="5.7" stroke="#fff50084"/><path d="M-18-161l-118 1" stroke-width="5.7" stroke="#fff50085"/><path d="M42-60l-59 102" stroke-width="5.7" stroke="#c2e1ff85"/><path d="M10-86l-90 76" stroke-width="5.7" stroke="#005bbb86"/><path d="M117-279l18-117" stroke-width="5.7" stroke="#005bbb86"/><path d="M199-99l99 64" stroke-width="5.8" stroke="#005bbb86"/><path d="M218-165l118-2" stroke-width="5.8" stroke="#005bbb88"/><path d="M218-154l117 9" stroke-width="5.8" stroke="#c2e1ff88"/><path d="M89-280l-10-117" stroke-width="5.8" stroke="#fff88"/><path d="M216-145l116 17" stroke-width="6.0" stroke="#fff5008D"/><path d="M21-249l-78-86" stroke-width="6.1" stroke="#fff50091"/><path d="M-13-190l-114-27" stroke-width="6.2" stroke="#fff94"/><path d="M182-80l83 82" stroke-width="6.2" stroke="#fff94"/><path d="M38-64l-61 99" stroke-width="6.3" stroke="#c2e1ff95"/><path d="M65-52l-36 111" stroke-width="6.3" stroke="#c2e1ff95"/><path d="M41-63l-59 100" stroke-width="6.3" stroke="#fff96"/><path d="M149-267l50-105" stroke-width="6.4" stroke="#fff97"/><path d="M122-276l23-114" stroke-width="6.4" stroke="#fff50098"/><path d="M4-99l-96 64" stroke-width="6.5" stroke="#c2e1ff9A"/><path d="M172-252l72-90" stroke-width="6.5" stroke="#005bbb9A"/><path d="M210-193l111-31" stroke-width="6.6" stroke="#fff5009E"/><path d="M88-276l-12-114" stroke-width="6.6" stroke="#fff9E"/><path d="M83-275l-18-113" stroke-width="6.6" stroke="#005bbb9F"/><path d="M108-49l8 114" stroke-width="6.7" stroke="#005bbbA1"/><path d="M62-55l-37 107" stroke-width="6.7" stroke="#005bbbA1"/><path d="M-1-215l-100-52" stroke-width="6.7" stroke="#005bbbA2"/><path d="M186-235l87-73" stroke-width="6.8" stroke="#005bbbA4"/><path d="M5-102l-95 60" stroke-width="6.9" stroke="#c2e1ffA6"/><path d="M-12-163l-111-1" stroke-width="7.0" stroke="#fffA8"/><path d="M-9-184l-109-22" stroke-width="7.0" stroke="#fffAA"/><path d="M107-273l6-111" stroke-width="7.0" stroke="#fff500AA"/><path d="M204-201l103-39" stroke-width="7.1" stroke="#fff500AC"/><path d="M-10-165l-111-3" stroke-width="7.1" stroke="#c2e1ffAC"/><path d="M-4-126l-104 36" stroke-width="7.1" stroke="#fffAD"/><path d="M210-154l110 8" stroke-width="7.1" stroke="#c2e1ffAD"/><path d="M42-254l-58-92" stroke-width="7.3" stroke="#005bbbB2"/><path d="M43-254l-57-91" stroke-width="7.4" stroke="#fff500B4"/><path d="M124-58l24 104" stroke-width="7.4" stroke="#fffB6"/><path d="M190-219l90-57" stroke-width="7.5" stroke="#c2e1ffB6"/><path d="M64-262l-36-99" stroke-width="7.5" stroke="#005bbbB8"/><path d="M10-111l-90 52" stroke-width="7.6" stroke="#fffBC"/><path d="M134-65l35 98" stroke-width="7.7" stroke="#fff500BC"/><path d="M192-210l92-47" stroke-width="7.7" stroke="#005bbbBD"/><path d="M68-260l-33-97" stroke-width="7.7" stroke="#fff500BE"/><path d="M22-228l-79-66" stroke-width="7.7" stroke="#c2e1ffBE"/><path d="M26-94l-75 69" stroke-width="7.8" stroke="#fff500C0"/><path d="M177-97l76 66" stroke-width="7.8" stroke="#fffC1"/><path d="M201-162l100 0" stroke-width="7.9" stroke="#c2e1ffC2"/><path d="M52-76l-48 87" stroke-width="7.9" stroke="#fffC4"/><path d="M10-123l-91 40" stroke-width="8.0" stroke="#c2e1ffC5"/><path d="M61-246l-40-83" stroke-width="8.3" stroke="#fff500CF"/><path d="M110-252l10-89" stroke-width="8.4" stroke="#c2e1ffD2"/><path d="M99-252l0-89" stroke-width="8.4" stroke="#c2e1ffD2"/><path d="M18-134l-81 29" stroke-width="8.6" stroke="#fff500D6"/><path d="M39-223l-61-61" stroke-width="8.6" stroke="#c2e1ffD6"/><path d="M169-213l69-51" stroke-width="8.6" stroke="#c2e1ffD7"/><path d="M153-98l53 64" stroke-width="8.7" stroke="#005bbbD9"/><path d="M145-233l44-70" stroke-width="8.7" stroke="#fff500DA"/><path d="M71-87l-30 75" stroke-width="8.8" stroke="#fffDC"/><path d="M48-105l-52 58" stroke-width="8.9" stroke="#fff500DF"/><path d="M176-158l77 5" stroke-width="8.9" stroke="#c2e1ffE0"/><path d="M156-111l55 52" stroke-width="8.9" stroke="#fffE1"/><path d="M149-109l49 54" stroke-width="9.0" stroke="#fffE4"/><path d="M160-126l61 36" stroke-width="9.1" stroke="#fffE5"/><path d="M144-109l45 54" stroke-width="9.1" stroke="#005bbbE6"/><path d="M146-122l46 40" stroke-width="9.3" stroke="#fff500EC"/><path d="M140-123l39 39" stroke-width="9.5" stroke="#fffEF"/><path d="M57-193l-43-31" stroke-width="9.5" stroke="#005bbbF1"/><path d="M141-129l42 33" stroke-width="9.5" stroke="#fff500F1"/><path d="M74-203l-27-41" stroke-width="9.6" stroke="#c2e1ffF3"/><path d="M83-120l-17 43" stroke-width="9.6" stroke="#fffF4"/><path d="M138-180l38-18" stroke-width="9.7" stroke="#fff500F6"/><path d="M117-128l18 35" stroke-width="9.7" stroke="#fff500F7"/><path d="M109-127l9 36" stroke-width="9.8" stroke="#c2e1ffF8"/><path d="M118-140l18 22" stroke-width="9.9" stroke="#c2e1ffFB"/><path d="M94-177l-6-15" stroke-width="10.0" stroke="#fff500FD"/><path d="M93-149l-7 14" stroke-width="10.0" stroke="#c2e1ffFD"/><path d="M90-156l-9 7" stroke-width="10.0" stroke="#fff500FE"/><path d="M108-167l7-5" stroke-width="10.0" stroke="#fff500FE"/></g></svg>