<svg width="1200" height="675" viewBox="-500 -500 1200 675" xmlns="http://www.w3.org/2000/svg"><path d="M-500-500h1200v675h-1200z" fill="#000"/><style>.sparkles path{stroke-linecap:round}</style><g class="sparkles"><path d="M78-143l-23 19" stroke-width="1.1" stroke="#0035664"/><path d="M73-177l-28-15" stroke-width="1.2" stroke="#ffc3004"/><path d="M112-132l12 31" stroke-width="1.2" stroke="#0008145"/><path d="M137-170l37-7" stroke-width="1.2" stroke="#ffd60a6"/><path d="M140-140l39 23" stroke-width="1.3" stroke="#ffd60a9"/><path d="M86-206l-13-44" stroke-width="1.4" stroke="#000814A"/><path d="M100-212l-1-49" stroke-width="1.4" stroke="#001d3dB"/><path d="M67-201l-33-38" stroke-width="1.4" stroke="#001d3dC"/><path d="M79-210l-21-47" stroke-width="1.5" stroke="#003566C"/><path d="M46-158l-53 4" stroke-width="1.5" stroke="#ffd60aE"/><path d="M44-156l-56 6" stroke-width="1.5" stroke="#003566F"/><path d="M139-209l40-47" stroke-width="1.6" stroke="#00081412"/><path d="M120-104l20 59" stroke-width="1.7" stroke="#ffd60a13"/><path d="M160-126l60 36" stroke-width="1.9" stroke="#00356618"/><path d="M41-208l-60-46" stroke-width="2.0" stroke="#ffd60a1C"/><path d="M31-130l-69 32" stroke-width="2.1" stroke="#0035661D"/><path d="M173-183l74-21" stroke-width="2.1" stroke="#0035661D"/><path d="M31-198l-69-35" stroke-width="2.1" stroke="#0035661F"/><path d="M20-157l-80 5" stroke-width="2.2" stroke="#ffd60a21"/><path d="M81-244l-19-81" stroke-width="2.3" stroke="#ffc30025"/><path d="M56-235l-44-72" stroke-width="2.4" stroke="#ffc30026"/><path d="M149-233l49-70" stroke-width="2.4" stroke="#00081427"/><path d="M145-87l46 75" stroke-width="2.5" stroke="#ffc3002A"/><path d="M21-124l-80 39" stroke-width="2.5" stroke="#ffd60a2A"/><path d="M21-203l-79-40" stroke-width="2.5" stroke="#ffc3002A"/><path d="M49-90l-51 73" stroke-width="2.5" stroke="#ffd60a2B"/><path d="M62-243l-38-81" stroke-width="2.6" stroke="#ffc3002C"/><path d="M125-249l26-86" stroke-width="2.6" stroke="#001d3d2C"/><path d="M13-187l-86-25" stroke-width="2.6" stroke="#0035662C"/><path d="M10-159l-90 3" stroke-width="2.6" stroke="#ffc3002D"/><path d="M15-124l-85 38" stroke-width="2.7" stroke="#00356631"/><path d="M6-165l-94-2" stroke-width="2.8" stroke="#ffc30032"/><path d="M9-139l-92 23" stroke-width="2.8" stroke="#001d3d32"/><path d="M30-99l-69 64" stroke-width="2.8" stroke="#ffc30032"/><path d="M172-102l73 61" stroke-width="2.8" stroke="#00081433"/><path d="M54-245l-47-83" stroke-width="2.8" stroke="#001d3d33"/><path d="M155-241l56-78" stroke-width="2.9" stroke="#001d3d34"/><path d="M7-139l-94 24" stroke-width="2.9" stroke="#00081435"/><path d="M158-241l58-79" stroke-width="3.0" stroke="#00081437"/><path d="M128-68l28 95" stroke-width="3.0" stroke="#ffc30039"/><path d="M3-182l-98-20" stroke-width="3.1" stroke="#ffd60a3A"/><path d="M199-178l99-16" stroke-width="3.1" stroke="#ffc3003B"/><path d="M197-195l96-33" stroke-width="3.2" stroke="#0008143F"/><path d="M171-88l72 74" stroke-width="3.3" stroke="#ffc30040"/><path d="M74-62l-26 100" stroke-width="3.3" stroke="#00081442"/><path d="M183-225l83-62" stroke-width="3.3" stroke="#ffc30042"/><path d="M153-72l52 90" stroke-width="3.4" stroke="#ffc30043"/><path d="M-4-173l-104-11" stroke-width="3.4" stroke="#ffd60a43"/><path d="M175-235l76-72" stroke-width="3.4" stroke="#00356644"/><path d="M-2-188l-101-26" stroke-width="3.4" stroke="#001d3d44"/><path d="M122-60l22 103" stroke-width="3.4" stroke="#00081445"/><path d="M121-59l21 103" stroke-width="3.5" stroke="#ffd60a45"/><path d="M29-84l-70 79" stroke-width="3.5" stroke="#001d3d46"/><path d="M62-61l-38 101" stroke-width="3.7" stroke="#001d3d4B"/><path d="M104-271l4-109" stroke-width="3.7" stroke="#001d3d4D"/><path d="M122-56l22 107" stroke-width="3.8" stroke="#0035664E"/><path d="M-8-144l-108 18" stroke-width="3.8" stroke="#0008144F"/><path d="M150-65l51 97" stroke-width="3.8" stroke="#001d3d50"/><path d="M41-70l-58 93" stroke-width="3.8" stroke="#00081450"/><path d="M100-273l0-110" stroke-width="3.9" stroke="#00081451"/><path d="M210-162l111 0" stroke-width="3.9" stroke="#ffd60a52"/><path d="M80-271l-20-109" stroke-width="3.9" stroke="#ffc30053"/><path d="M186-232l87-69" stroke-width="3.9" stroke="#001d3d53"/><path d="M-4-202l-104-39" stroke-width="4.0" stroke="#ffc30053"/><path d="M-3-205l-103-43" stroke-width="4.0" stroke="#ffc30055"/><path d="M16-88l-84 74" stroke-width="4.1" stroke="#ffd60a58"/><path d="M211-184l110-22" stroke-width="4.1" stroke="#00081458"/><path d="M138-269l38-107" stroke-width="4.2" stroke="#ffd60a5A"/><path d="M124-52l24 111" stroke-width="4.2" stroke="#001d3d5B"/><path d="M61-56l-38 107" stroke-width="4.2" stroke="#0008145B"/><path d="M44-64l-56 99" stroke-width="4.2" stroke="#ffd60a5C"/><path d="M-14-167l-114-5" stroke-width="4.3" stroke="#ffc3005E"/><path d="M153-264l52-102" stroke-width="4.4" stroke="#ffc30060"/><path d="M185-240l84-77" stroke-width="4.4" stroke="#001d3d61"/><path d="M70-274l-30-111" stroke-width="4.5" stroke="#00356664"/><path d="M154-60l54 102" stroke-width="4.6" stroke="#ffd60a65"/><path d="M-12-131l-112 31" stroke-width="4.7" stroke="#00081469"/><path d="M74-49l-25 114" stroke-width="4.7" stroke="#00356669"/><path d="M45-60l-55 103" stroke-width="4.7" stroke="#001d3d6A"/><path d="M2-100l-99 63" stroke-width="4.9" stroke="#ffd60a6D"/><path d="M-13-132l-113 31" stroke-width="4.9" stroke="#0008146F"/><path d="M-16-180l-116-17" stroke-width="5.0" stroke="#001d3d70"/><path d="M131-49l31 113" stroke-width="5.0" stroke="#00356670"/><path d="M86-46l-14 117" stroke-width="5.0" stroke="#ffd60a71"/><path d="M55-54l-44 109" stroke-width="5.0" stroke="#00356672"/><path d="M-3-106l-104 56" stroke-width="5.1" stroke="#001d3d72"/><path d="M201-223l102-60" stroke-width="5.2" stroke="#00356677"/><path d="M67-49l-32 113" stroke-width="5.3" stroke="#ffd60a78"/><path d="M86-45l-13 117" stroke-width="5.3" stroke="#00081479"/><path d="M209-207l109-45" stroke-width="5.3" stroke="#00356679"/><path d="M7-235l-94-72" stroke-width="5.3" stroke="#0008147A"/><path d="M209-117l109 46" stroke-width="5.3" stroke="#0035667A"/><path d="M218-171l117-8" stroke-width="5.3" stroke="#001d3d7A"/><path d="M-7-112l-107 50" stroke-width="5.4" stroke="#0008147B"/><path d="M71-48l-28 115" stroke-width="5.4" stroke="#001d3d7C"/><path d="M217-180l117-18" stroke-width="5.5" stroke="#0008147E"/><path d="M138-274l39-112" stroke-width="5.5" stroke="#001d3d7F"/><path d="M166-260l67-98" stroke-width="5.5" stroke="#001d3d7F"/><path d="M172-256l72-94" stroke-width="5.5" stroke="#00356680"/><path d="M213-127l112 35" stroke-width="5.7" stroke="#ffc30085"/><path d="M59-52l-40 111" stroke-width="5.7" stroke="#00081486"/><path d="M-18-170l-117-8" stroke-width="5.7" stroke="#00356686"/><path d="M84-279l-17-116" stroke-width="6.0" stroke="#0008148C"/><path d="M140-273l40-110" stroke-width="6.0" stroke="#ffd60a8D"/><path d="M100-280l1-117" stroke-width="6.1" stroke="#ffc30090"/><path d="M94-46l-7 117" stroke-width="6.1" stroke="#00081491"/><path d="M201-104l101 59" stroke-width="6.1" stroke="#00356691"/><path d="M2-226l-97-63" stroke-width="6.3" stroke="#ffd60a96"/><path d="M210-200l110-37" stroke-width="6.3" stroke="#001d3d97"/><path d="M199-222l99-60" stroke-width="6.4" stroke="#00081498"/><path d="M-9-200l-109-37" stroke-width="6.5" stroke="#0008149A"/><path d="M-11-193l-110-31" stroke-width="6.6" stroke="#ffd60a9D"/><path d="M125-275l24-112" stroke-width="6.6" stroke="#0008149D"/><path d="M53-58l-47 104" stroke-width="6.6" stroke="#0008149F"/><path d="M-11-134l-110 28" stroke-width="6.7" stroke="#003566A0"/><path d="M-13-163l-114-1" stroke-width="6.8" stroke="#003566A3"/><path d="M-8-198l-107-36" stroke-width="6.8" stroke="#001d3dA3"/><path d="M179-244l79-81" stroke-width="6.8" stroke="#ffd60aA3"/><path d="M-10-136l-109 27" stroke-width="6.8" stroke="#000814A5"/><path d="M114-51l14 112" stroke-width="6.9" stroke="#ffc300A6"/><path d="M56-265l-45-103" stroke-width="6.9" stroke="#000814A8"/><path d="M50-262l-50-100" stroke-width="7.0" stroke="#000814A9"/><path d="M185-91l84 71" stroke-width="7.1" stroke="#ffc300AC"/><path d="M151-65l51 98" stroke-width="7.1" stroke="#000814AD"/><path d="M156-67l56 95" stroke-width="7.1" stroke="#ffd60aAD"/><path d="M210-168l110-6" stroke-width="7.1" stroke="#ffc300AD"/><path d="M200-204l101-42" stroke-width="7.3" stroke="#000814B1"/><path d="M201-136l102 27" stroke-width="7.6" stroke="#ffd60aBA"/><path d="M198-127l98 36" stroke-width="7.6" stroke="#ffc300BA"/><path d="M95-267l-5-104" stroke-width="7.6" stroke="#ffc300BB"/><path d="M99-266l-1-103" stroke-width="7.7" stroke="#003566BD"/><path d="M14-219l-85-56" stroke-width="7.7" stroke="#000814BF"/><path d="M37-242l-63-80" stroke-width="7.8" stroke="#ffc300C0"/><path d="M130-66l31 97" stroke-width="7.8" stroke="#ffd60aC0"/><path d="M201-163l101 0" stroke-width="7.8" stroke="#003566C1"/><path d="M111-263l11-100" stroke-width="7.8" stroke="#ffd60aC1"/><path d="M46-247l-55-85" stroke-width="7.8" stroke="#ffd60aC2"/><path d="M74-259l-26-97" stroke-width="7.9" stroke="#ffd60aC2"/><path d="M103-262l3-100" stroke-width="7.9" stroke="#ffd60aC3"/><path d="M1-150l-99 13" stroke-width="7.9" stroke="#000814C3"/><path d="M91-262l-9-99" stroke-width="7.9" stroke="#000814C4"/><path d="M29-231l-70-69" stroke-width="8.0" stroke="#001d3dC5"/><path d="M165-91l65 72" stroke-width="8.1" stroke="#ffd60aC8"/><path d="M151-244l52-81" stroke-width="8.1" stroke="#001d3dC9"/><path d="M8-136l-92 27" stroke-width="8.1" stroke="#003566CA"/><path d="M58-79l-42 84" stroke-width="8.2" stroke="#ffd60aCD"/><path d="M78-254l-21-91" stroke-width="8.2" stroke="#ffc300CD"/><path d="M193-154l93 9" stroke-width="8.3" stroke="#ffc300CD"/><path d="M149-241l48-78" stroke-width="8.3" stroke="#000814CF"/><path d="M96-71l-5 91" stroke-width="8.4" stroke="#003566D0"/><path d="M158-96l58 67" stroke-width="8.5" stroke="#ffd60aD4"/><path d="M23-205l-77-42" stroke-width="8.5" stroke="#000814D4"/><path d="M181-195l82-32" stroke-width="8.5" stroke="#ffc300D5"/><path d="M187-151l86 12" stroke-width="8.5" stroke="#001d3dD5"/><path d="M185-155l84 7" stroke-width="8.6" stroke="#003566D8"/><path d="M153-97l54 66" stroke-width="8.6" stroke="#001d3dD8"/><path d="M150-225l49-62" stroke-width="8.8" stroke="#003566DD"/><path d="M96-84l-4 79" stroke-width="8.8" stroke="#ffd60aDE"/><path d="M85-237l-15-75" stroke-width="8.9" stroke="#000814E0"/><path d="M43-212l-57-49" stroke-width="9.0" stroke="#ffd60aE1"/><path d="M34-190l-65-27" stroke-width="9.1" stroke="#ffd60aE5"/><path d="M76-97l-25 66" stroke-width="9.1" stroke="#ffd60aE6"/><path d="M146-112l45 51" stroke-width="9.2" stroke="#ffc300E7"/><path d="M117-98l16 65" stroke-width="9.2" stroke="#001d3dE8"/><path d="M164-149l64 13" stroke-width="9.2" stroke="#003566E9"/><path d="M73-104l-28 58" stroke-width="9.3" stroke="#ffc300EA"/><path d="M122-221l22-58" stroke-width="9.3" stroke="#003566EB"/><path d="M118-106l17 57" stroke-width="9.4" stroke="#ffc300ED"/><path d="M158-156l58 6" stroke-width="9.4" stroke="#001d3dEE"/><path d="M119-108l18 54" stroke-width="9.4" stroke="#000814EE"/><path d="M106-106l7 56" stroke-width="9.5" stroke="#000814EF"/><path d="M48-146l-53 16" stroke-width="9.5" stroke="#003566F0"/><path d="M93-108l-6 54" stroke-width="9.5" stroke="#ffc300F0"/><path d="M90-212l-10-49" stroke-width="9.6" stroke="#ffd60aF2"/><path d="M52-160l-49 2" stroke-width="9.6" stroke="#001d3dF3"/><path d="M103-208l2-46" stroke-width="9.6" stroke="#003566F4"/><path d="M122-200l21-38" stroke-width="9.7" stroke="#000814F6"/><path d="M118-143l18 20" stroke-width="9.9" stroke="#ffd60aFB"/><path d="M78-173l-22-11" stroke-width="9.9" stroke="#003566FC"/><path d="M101-182l2-20" stroke-width="9.9" stroke="#ffd60aFD"/><path d="M95-157l-5 5" stroke-width="10.0" stroke="#003566FE"/></g></svg>