<svg width="1200" height="675" viewBox="-500 -500 1200 675" xmlns="http://www.w3.org/2000/svg"><path d="M-500-500h1200v675h-1200z" fill="#000"/><style>.sparkles path{stroke-linecap:round}</style><g class="sparkles"><path d="M87-164l-13-2" stroke-width="1.0" stroke="#fff0"/><path d="M125-162l25 0" stroke-width="1.1" stroke="#005bbb2"/><path d="M119-179l20-16" stroke-width="1.1" stroke="#005bbb2"/><path d="M72-168l-27-6" stroke-width="1.1" stroke="#005bbb3"/><path d="M123-138l23 24" stroke-width="1.2" stroke="#fff5"/><path d="M112-199l11-36" stroke-width="1.2" stroke="#fff5006"/><path d="M72-192l-29-29" stroke-width="1.3" stroke="#fff5007"/><path d="M135-137l36 26" stroke-width="1.3" stroke="#fff5009"/><path d="M87-112l-13 50" stroke-width="1.5" stroke="#005bbbC"/><path d="M51-143l-49 20" stroke-width="1.5" stroke="#c2e1ffD"/><path d="M152-176l52-13" stroke-width="1.5" stroke="#fffD"/><path d="M142-122l42 40" stroke-width="1.6" stroke="#005bbb10"/><path d="M152-137l52 26" stroke-width="1.6" stroke="#fff50010"/><path d="M113-222l14-59" stroke-width="1.6" stroke="#fff12"/><path d="M81-220l-19-58" stroke-width="1.6" stroke="#fff12"/><path d="M39-135l-61 27" stroke-width="1.8" stroke="#fff16"/><path d="M66-105l-35 57" stroke-width="1.8" stroke="#c2e1ff16"/><path d="M151-208l50-45" stroke-width="1.8" stroke="#005bbb17"/><path d="M72-96l-28 67" stroke-width="1.9" stroke="#fff1A"/><path d="M175-142l76 21" stroke-width="2.1" stroke="#fff5001F"/><path d="M162-112l61 50" stroke-width="2.2" stroke="#fff21"/><path d="M167-207l67-45" stroke-width="2.2" stroke="#005bbb22"/><path d="M149-228l49-66" stroke-width="2.3" stroke="#fff50023"/><path d="M148-94l48 68" stroke-width="2.3" stroke="#005bbb25"/><path d="M72-243l-29-80" stroke-width="2.4" stroke="#c2e1ff27"/><path d="M46-228l-54-66" stroke-width="2.4" stroke="#fff50027"/><path d="M181-132l80 31" stroke-width="2.4" stroke="#c2e1ff28"/><path d="M16-142l-85 20" stroke-width="2.4" stroke="#005bbb28"/><path d="M46-93l-53 70" stroke-width="2.5" stroke="#fff5002A"/><path d="M62-81l-39 81" stroke-width="2.6" stroke="#fff5002C"/><path d="M132-249l31-87" stroke-width="2.7" stroke="#c2e1ff30"/><path d="M186-202l85-40" stroke-width="2.8" stroke="#fff32"/><path d="M32-229l-67-67" stroke-width="2.8" stroke="#fff33"/><path d="M186-117l86 45" stroke-width="3.0" stroke="#fff50037"/><path d="M197-148l96 15" stroke-width="3.0" stroke="#005bbb37"/><path d="M17-218l-82-55" stroke-width="3.1" stroke="#fff3A"/><path d="M27-94l-72 68" stroke-width="3.1" stroke="#fff3A"/><path d="M111-261l12-99" stroke-width="3.1" stroke="#c2e1ff3A"/><path d="M0-163l-100-1" stroke-width="3.1" stroke="#005bbb3B"/><path d="M51-75l-50 88" stroke-width="3.1" stroke="#fff5003C"/><path d="M40-244l-59-81" stroke-width="3.2" stroke="#fff5003D"/><path d="M159-80l58 83" stroke-width="3.2" stroke="#fff3E"/><path d="M128-65l28 98" stroke-width="3.2" stroke="#fff5003E"/><path d="M-1-180l-100-17" stroke-width="3.2" stroke="#fff5003F"/><path d="M-2-172l-103-10" stroke-width="3.3" stroke="#005bbb40"/><path d="M-3-163l-103-1" stroke-width="3.3" stroke="#fff41"/><path d="M171-87l70 75" stroke-width="3.3" stroke="#005bbb41"/><path d="M73-61l-27 101" stroke-width="3.4" stroke="#fff44"/><path d="M141-259l41-96" stroke-width="3.4" stroke="#c2e1ff44"/><path d="M-4-148l-104 14" stroke-width="3.4" stroke="#fff44"/><path d="M107-268l7-105" stroke-width="3.5" stroke="#c2e1ff45"/><path d="M86-57l-13 105" stroke-width="3.5" stroke="#fff47"/><path d="M203-191l102-28" stroke-width="3.6" stroke="#fff48"/><path d="M133-61l33 102" stroke-width="3.6" stroke="#005bbb49"/><path d="M70-265l-31-103" stroke-width="3.6" stroke="#fff49"/><path d="M158-253l57-91" stroke-width="3.6" stroke="#005bbb4A"/><path d="M93-54l-7 108" stroke-width="3.7" stroke="#005bbb4C"/><path d="M124-56l24 107" stroke-width="3.8" stroke="#fff4F"/><path d="M-6-137l-107 25" stroke-width="3.8" stroke="#fff5004F"/><path d="M184-233l84-71" stroke-width="3.8" stroke="#c2e1ff50"/><path d="M26-81l-74 82" stroke-width="3.9" stroke="#005bbb52"/><path d="M98-273l-3-111" stroke-width="3.9" stroke="#fff50052"/><path d="M111-273l11-110" stroke-width="3.9" stroke="#fff50053"/><path d="M69-269l-32-106" stroke-width="4.0" stroke="#fff53"/><path d="M-9-138l-109 24" stroke-width="4.0" stroke="#fff55"/><path d="M53-264l-47-101" stroke-width="4.0" stroke="#fff56"/><path d="M129-54l28 108" stroke-width="4.0" stroke="#fff50056"/><path d="M175-80l75 83" stroke-width="4.0" stroke="#005bbb56"/><path d="M83-273l-17-111" stroke-width="4.0" stroke="#fff56"/><path d="M177-245l77-82" stroke-width="4.2" stroke="#fff59"/><path d="M111-275l10-113" stroke-width="4.2" stroke="#fff5005A"/><path d="M24-78l-75 85" stroke-width="4.2" stroke="#c2e1ff5B"/><path d="M202-111l101 52" stroke-width="4.3" stroke="#fff5005D"/><path d="M18-243l-82-81" stroke-width="4.5" stroke="#005bbb62"/><path d="M188-237l88-74" stroke-width="4.5" stroke="#c2e1ff63"/><path d="M215-149l116 13" stroke-width="4.7" stroke="#fff68"/><path d="M64-274l-36-111" stroke-width="4.9" stroke="#fff5006D"/><path d="M200-223l100-61" stroke-width="4.9" stroke="#c2e1ff6E"/><path d="M175-73l76 90" stroke-width="4.9" stroke="#005bbb6E"/><path d="M202-221l101-58" stroke-width="4.9" stroke="#fff6E"/><path d="M80-278l-21-115" stroke-width="4.9" stroke="#c2e1ff6F"/><path d="M10-238l-89-75" stroke-width="4.9" stroke="#c2e1ff6F"/><path d="M178-75l78 88" stroke-width="5.0" stroke="#c2e1ff71"/><path d="M56-272l-44-109" stroke-width="5.2" stroke="#fff76"/><path d="M45-58l-54 105" stroke-width="5.2" stroke="#fff50078"/><path d="M203-220l103-58" stroke-width="5.4" stroke="#fff7B"/><path d="M-18-159l-118 3" stroke-width="5.4" stroke="#fff5007B"/><path d="M76-278l-25-116" stroke-width="5.4" stroke="#005bbb7C"/><path d="M11-240l-89-78" stroke-width="5.4" stroke="#fff7C"/><path d="M116-46l17 117" stroke-width="5.5" stroke="#c2e1ff7F"/><path d="M25-254l-75-91" stroke-width="5.5" stroke="#005bbb7F"/><path d="M76-47l-23 116" stroke-width="5.5" stroke="#fff5007F"/><path d="M57-272l-44-110" stroke-width="5.6" stroke="#c2e1ff81"/><path d="M45-58l-55 104" stroke-width="5.6" stroke="#fff50082"/><path d="M-17-147l-117 15" stroke-width="5.7" stroke="#fff50083"/><path d="M27-255l-73-93" stroke-width="5.7" stroke="#fff50085"/><path d="M17-246l-84-84" stroke-width="5.7" stroke="#c2e1ff85"/><path d="M36-64l-65 99" stroke-width="5.8" stroke="#005bbb86"/><path d="M201-224l101-61" stroke-width="5.8" stroke="#fff50087"/><path d="M184-245l84-82" stroke-width="5.9" stroke="#fff5008A"/><path d="M-12-199l-111-37" stroke-width="5.9" stroke="#005bbb8B"/><path d="M107-46l7 117" stroke-width="6.1" stroke="#fff91"/><path d="M172-255l72-92" stroke-width="6.1" stroke="#fff50091"/><path d="M10-88l-91 74" stroke-width="6.2" stroke="#005bbb92"/><path d="M140-53l40 109" stroke-width="6.2" stroke="#005bbb93"/><path d="M54-270l-46-107" stroke-width="6.2" stroke="#fff50094"/><path d="M-11-196l-111-34" stroke-width="6.4" stroke="#fff97"/><path d="M192-92l92 70" stroke-width="6.4" stroke="#c2e1ff98"/><path d="M128-275l28-112" stroke-width="6.4" stroke="#fff98"/><path d="M-9-125l-109 37" stroke-width="6.5" stroke="#fff5009B"/><path d="M215-151l114 11" stroke-width="6.5" stroke="#c2e1ff9B"/><path d="M13-236l-88-74" stroke-width="6.6" stroke="#005bbb9F"/><path d="M14-237l-87-74" stroke-width="6.7" stroke="#c2e1ffA1"/><path d="M-12-142l-112 21" stroke-width="6.7" stroke="#fff500A1"/><path d="M34-255l-66-92" stroke-width="6.8" stroke="#005bbbA4"/><path d="M35-254l-66-92" stroke-width="6.9" stroke="#c2e1ffA5"/><path d="M-2-116l-103 46" stroke-width="6.9" stroke="#c2e1ffA6"/><path d="M27-246l-72-84" stroke-width="7.0" stroke="#005bbbAB"/><path d="M56-263l-44-101" stroke-width="7.2" stroke="#c2e1ffAE"/><path d="M205-134l106 28" stroke-width="7.2" stroke="#fffB0"/><path d="M13-227l-88-65" stroke-width="7.3" stroke="#c2e1ffB1"/><path d="M169-246l70-83" stroke-width="7.3" stroke="#fff500B1"/><path d="M77-57l-23 106" stroke-width="7.3" stroke="#fff500B2"/><path d="M-7-151l-108 11" stroke-width="7.3" stroke="#c2e1ffB3"/><path d="M206-151l107 12" stroke-width="7.4" stroke="#fff500B5"/><path d="M206-148l106 14" stroke-width="7.4" stroke="#fffB5"/><path d="M145-66l46 96" stroke-width="7.4" stroke="#fffB6"/><path d="M94-57l-7 106" stroke-width="7.5" stroke="#fffB8"/><path d="M94-57l-7 105" stroke-width="7.5" stroke="#fff500B8"/><path d="M104-59l4 104" stroke-width="7.6" stroke="#fff500BB"/><path d="M56-256l-45-94" stroke-width="7.7" stroke="#fff500BC"/><path d="M37-244l-62-82" stroke-width="7.7" stroke="#c2e1ffBD"/><path d="M21-227l-80-65" stroke-width="7.8" stroke="#fff500BF"/><path d="M190-115l91 47" stroke-width="7.8" stroke="#005bbbBF"/><path d="M142-255l42-93" stroke-width="7.8" stroke="#005bbbC0"/><path d="M61-69l-39 94" stroke-width="7.8" stroke="#fffC0"/><path d="M69-259l-32-96" stroke-width="7.8" stroke="#fffC1"/><path d="M161-243l61-80" stroke-width="7.8" stroke="#005bbbC1"/><path d="M17-107l-83 56" stroke-width="7.9" stroke="#fff500C3"/><path d="M190-120l89 43" stroke-width="7.9" stroke="#fff500C4"/><path d="M156-81l57 81" stroke-width="8.0" stroke="#fff500C4"/><path d="M197-165l98-2" stroke-width="8.0" stroke="#c2e1ffC7"/><path d="M187-204l86-42" stroke-width="8.1" stroke="#c2e1ffC9"/><path d="M181-213l82-50" stroke-width="8.1" stroke="#c2e1ffCA"/><path d="M194-178l93-16" stroke-width="8.2" stroke="#c2e1ffCB"/><path d="M113-255l14-93" stroke-width="8.2" stroke="#fffCD"/><path d="M191-140l90 22" stroke-width="8.3" stroke="#005bbbCD"/><path d="M116-75l15 87" stroke-width="8.5" stroke="#005bbbD3"/><path d="M185-187l85-25" stroke-width="8.5" stroke="#fffD4"/><path d="M177-120l77 42" stroke-width="8.5" stroke="#fffD4"/><path d="M21-200l-79-38" stroke-width="8.5" stroke="#fffD4"/><path d="M78-247l-22-84" stroke-width="8.5" stroke="#fff500D5"/><path d="M185-175l86-13" stroke-width="8.6" stroke="#005bbbD6"/><path d="M17-139l-83 23" stroke-width="8.6" stroke="#005bbbD6"/><path d="M118-80l19 83" stroke-width="8.6" stroke="#fff500D8"/><path d="M114-246l15-83" stroke-width="8.6" stroke="#fffD8"/><path d="M180-186l80-24" stroke-width="8.7" stroke="#fff500D9"/><path d="M21-135l-78 28" stroke-width="8.7" stroke="#005bbbD9"/><path d="M29-191l-71-29" stroke-width="8.9" stroke="#005bbbE0"/><path d="M35-125l-64 38" stroke-width="9.0" stroke="#fff500E2"/><path d="M31-191l-69-28" stroke-width="9.0" stroke="#c2e1ffE2"/><path d="M103-236l3-73" stroke-width="9.0" stroke="#fff500E3"/><path d="M163-198l62-35" stroke-width="9.1" stroke="#c2e1ffE4"/><path d="M163-131l64 32" stroke-width="9.1" stroke="#c2e1ffE5"/><path d="M32-155l-68 8" stroke-width="9.2" stroke="#fffE7"/><path d="M164-185l64-23" stroke-width="9.2" stroke="#fffE7"/><path d="M135-221l34-59" stroke-width="9.2" stroke="#fffE7"/><path d="M72-222l-27-60" stroke-width="9.2" stroke="#fff500E9"/><path d="M61-111l-40 52" stroke-width="9.3" stroke="#fffE9"/><path d="M141-116l40 47" stroke-width="9.3" stroke="#fffEC"/><path d="M160-165l60-2" stroke-width="9.4" stroke="#005bbbED"/><path d="M44-178l-55-16" stroke-width="9.4" stroke="#fffEE"/><path d="M67-203l-32-40" stroke-width="9.5" stroke="#fffF2"/><path d="M63-130l-37 32" stroke-width="9.6" stroke="#fff500F3"/><path d="M93-199l-8-36" stroke-width="9.8" stroke="#c2e1ffF8"/><path d="M104-197l4-34" stroke-width="9.8" stroke="#005bbbF9"/><path d="M124-186l24-24" stroke-width="9.8" stroke="#005bbbF9"/><path d="M81-189l-20-27" stroke-width="9.8" stroke="#fffF9"/><path d="M70-174l-29-11" stroke-width="9.8" stroke="#c2e1ffFA"/><path d="M131-163l31 0" stroke-width="9.8" stroke="#005bbbFA"/><path d="M102-133l2 30" stroke-width="9.9" stroke="#fff500FA"/></g></svg>