<svg width="1200" height="675" viewBox="-500 -500 1200 675" xmlns="http://www.w3.org/2000/svg"><path d="M-500-500h1200v675h-1200z" fill="#000"/><style>.sparkles path{stroke-linecap:round}</style><g class="sparkles"><path d="M77-160l-22 3" stroke-width="1.1" stroke="#fff2"/><path d="M95-136l-5 26" stroke-width="1.1" stroke="#fff5003"/><path d="M86-134l-14 29" stroke-width="1.2" stroke="#005bbb4"/><path d="M102-126l2 36" stroke-width="1.2" stroke="#c2e1ff6"/><path d="M109-202l9-40" stroke-width="1.3" stroke="#005bbb7"/><path d="M93-206l-7-44" stroke-width="1.3" stroke="#c2e1ff9"/><path d="M51-157l-50 5" stroke-width="1.4" stroke="#005bbbB"/><path d="M103-214l2-52" stroke-width="1.5" stroke="#fff500C"/><path d="M74-117l-25 46" stroke-width="1.5" stroke="#fffD"/><path d="M71-208l-29-45" stroke-width="1.5" stroke="#fffD"/><path d="M63-122l-38 41" stroke-width="1.5" stroke="#fff500E"/><path d="M155-173l54-10" stroke-width="1.5" stroke="#c2e1ffF"/><path d="M92-220l-8-57" stroke-width="1.6" stroke="#fff50010"/><path d="M98-221l-2-59" stroke-width="1.6" stroke="#005bbb10"/><path d="M114-105l13 57" stroke-width="1.6" stroke="#fff10"/><path d="M63-211l-38-48" stroke-width="1.6" stroke="#c2e1ff12"/><path d="M93-228l-7-65" stroke-width="1.8" stroke="#fff50015"/><path d="M34-158l-66 5" stroke-width="1.8" stroke="#fff50015"/><path d="M128-101l27 62" stroke-width="1.8" stroke="#c2e1ff16"/><path d="M136-222l36-59" stroke-width="1.9" stroke="#005bbb18"/><path d="M31-171l-70-8" stroke-width="1.9" stroke="#fff18"/><path d="M98-233l-2-71" stroke-width="1.9" stroke="#fff50019"/><path d="M28-176l-72-14" stroke-width="2.0" stroke="#005bbb1B"/><path d="M164-125l65 38" stroke-width="2.0" stroke="#fff5001C"/><path d="M103-86l3 76" stroke-width="2.1" stroke="#fff5001D"/><path d="M157-214l57-52" stroke-width="2.1" stroke="#fff1E"/><path d="M129-91l30 71" stroke-width="2.1" stroke="#fff5001E"/><path d="M178-148l77 14" stroke-width="2.2" stroke="#fff50020"/><path d="M134-234l34-72" stroke-width="2.2" stroke="#c2e1ff20"/><path d="M19-158l-81 5" stroke-width="2.2" stroke="#c2e1ff22"/><path d="M96-244l-4-82" stroke-width="2.3" stroke="#c2e1ff23"/><path d="M17-165l-83-3" stroke-width="2.3" stroke="#fff25"/><path d="M26-200l-75-38" stroke-width="2.3" stroke="#fff50025"/><path d="M23-121l-77 41" stroke-width="2.5" stroke="#c2e1ff29"/><path d="M61-241l-39-79" stroke-width="2.5" stroke="#fff5002A"/><path d="M82-249l-18-87" stroke-width="2.5" stroke="#005bbb2A"/><path d="M25-209l-76-47" stroke-width="2.5" stroke="#c2e1ff2B"/><path d="M130-76l31 86" stroke-width="2.7" stroke="#fff5002E"/><path d="M38-232l-62-70" stroke-width="2.7" stroke="#c2e1ff31"/><path d="M20-212l-80-50" stroke-width="2.8" stroke="#fff32"/><path d="M160-235l60-72" stroke-width="2.8" stroke="#005bbb32"/><path d="M99-67l-1 95" stroke-width="2.8" stroke="#fff50034"/><path d="M146-76l45 86" stroke-width="3.0" stroke="#005bbb37"/><path d="M138-253l38-90" stroke-width="3.0" stroke="#fff38"/><path d="M175-99l75 63" stroke-width="3.0" stroke="#fff38"/><path d="M33-87l-67 75" stroke-width="3.2" stroke="#fff3D"/><path d="M61-68l-39 95" stroke-width="3.3" stroke="#005bbb3F"/><path d="M53-254l-47-91" stroke-width="3.3" stroke="#005bbb40"/><path d="M197-125l96 38" stroke-width="3.4" stroke="#005bbb42"/><path d="M3-205l-96-43" stroke-width="3.5" stroke="#fff50046"/><path d="M204-138l104 25" stroke-width="3.6" stroke="#fff50048"/><path d="M179-235l79-72" stroke-width="3.6" stroke="#c2e1ff49"/><path d="M134-265l34-103" stroke-width="3.7" stroke="#c2e1ff4C"/><path d="M118-55l19 108" stroke-width="3.8" stroke="#005bbb4F"/><path d="M13-230l-88-67" stroke-width="3.9" stroke="#fff50051"/><path d="M193-103l93 60" stroke-width="3.9" stroke="#fff52"/><path d="M211-162l110 0" stroke-width="3.9" stroke="#fff52"/><path d="M103-274l3-111" stroke-width="4.0" stroke="#fff50055"/><path d="M211-154l111 8" stroke-width="4.0" stroke="#fff50055"/><path d="M6-223l-93-61" stroke-width="4.0" stroke="#fff50055"/><path d="M55-60l-45 102" stroke-width="4.1" stroke="#fff56"/><path d="M103-49l3 113" stroke-width="4.2" stroke="#c2e1ff5B"/><path d="M-13-168l-113-5" stroke-width="4.2" stroke="#fff5B"/><path d="M-1-112l-102 51" stroke-width="4.2" stroke="#c2e1ff5C"/><path d="M169-253l68-90" stroke-width="4.3" stroke="#c2e1ff5C"/><path d="M11-92l-90 70" stroke-width="4.3" stroke="#fff5005C"/><path d="M4-225l-96-62" stroke-width="4.4" stroke="#fff5005F"/><path d="M144-56l45 106" stroke-width="4.5" stroke="#005bbb62"/><path d="M-8-202l-108-39" stroke-width="4.5" stroke="#fff50062"/><path d="M9-234l-92-71" stroke-width="4.6" stroke="#fff66"/><path d="M53-56l-46 106" stroke-width="4.6" stroke="#c2e1ff67"/><path d="M111-47l10 116" stroke-width="4.7" stroke="#005bbb68"/><path d="M215-142l114 21" stroke-width="4.7" stroke="#fff50069"/><path d="M-17-166l-116-4" stroke-width="4.8" stroke="#005bbb6C"/><path d="M12-86l-89 76" stroke-width="4.8" stroke="#fff5006C"/><path d="M25-73l-75 90" stroke-width="4.8" stroke="#c2e1ff6C"/><path d="M205-215l104-52" stroke-width="4.9" stroke="#c2e1ff6E"/><path d="M192-90l92 73" stroke-width="4.9" stroke="#c2e1ff6E"/><path d="M21-76l-80 86" stroke-width="4.9" stroke="#fff5006F"/><path d="M-12-127l-112 35" stroke-width="5.0" stroke="#005bbb72"/><path d="M149-56l49 107" stroke-width="5.1" stroke="#005bbb73"/><path d="M50-56l-51 107" stroke-width="5.2" stroke="#fff77"/><path d="M110-45l9 118" stroke-width="5.3" stroke="#005bbb78"/><path d="M200-226l99-63" stroke-width="5.3" stroke="#fff7A"/><path d="M-13-197l-113-34" stroke-width="5.3" stroke="#c2e1ff7A"/><path d="M20-76l-80 87" stroke-width="5.4" stroke="#fff5007C"/><path d="M212-125l112 37" stroke-width="5.5" stroke="#c2e1ff80"/><path d="M93-280l-7-118" stroke-width="5.5" stroke="#fff50080"/><path d="M92-280l-8-118" stroke-width="5.5" stroke="#fff50080"/><path d="M165-261l65-98" stroke-width="5.7" stroke="#005bbb85"/><path d="M185-81l85 82" stroke-width="5.7" stroke="#fff50085"/><path d="M-10-204l-111-42" stroke-width="5.8" stroke="#005bbb87"/><path d="M-9-119l-110 44" stroke-width="5.8" stroke="#005bbb87"/><path d="M190-239l89-77" stroke-width="5.8" stroke="#005bbb87"/><path d="M-18-171l-117-9" stroke-width="5.8" stroke="#005bbb87"/><path d="M64-275l-36-112" stroke-width="5.8" stroke="#fff88"/><path d="M114-45l13 117" stroke-width="5.8" stroke="#005bbb88"/><path d="M196-230l97-67" stroke-width="6.0" stroke="#fff5008D"/><path d="M176-74l76 89" stroke-width="6.1" stroke="#fff8F"/><path d="M89-46l-12 117" stroke-width="6.1" stroke="#c2e1ff8F"/><path d="M138-273l38-110" stroke-width="6.2" stroke="#005bbb93"/><path d="M209-201l110-39" stroke-width="6.3" stroke="#fff96"/><path d="M193-93l94 69" stroke-width="6.3" stroke="#c2e1ff97"/><path d="M118-48l19 115" stroke-width="6.3" stroke="#c2e1ff97"/><path d="M-15-172l-115-9" stroke-width="6.4" stroke="#fff50099"/><path d="M95-278l-5-115" stroke-width="6.4" stroke="#005bbb9A"/><path d="M-15-152l-115 10" stroke-width="6.5" stroke="#c2e1ff9A"/><path d="M2-101l-97 61" stroke-width="6.5" stroke="#fff5009C"/><path d="M84-49l-15 114" stroke-width="6.6" stroke="#005bbb9D"/><path d="M45-62l-55 101" stroke-width="6.6" stroke="#fff5009D"/><path d="M36-67l-64 95" stroke-width="6.6" stroke="#fff9D"/><path d="M144-268l44-105" stroke-width="6.7" stroke="#c2e1ffA0"/><path d="M-10-190l-109-28" stroke-width="6.8" stroke="#fff500A4"/><path d="M122-272l23-110" stroke-width="7.0" stroke="#fff500A8"/><path d="M176-244l76-81" stroke-width="7.0" stroke="#fff500AA"/><path d="M120-53l20 109" stroke-width="7.0" stroke="#fff500AA"/><path d="M164-72l65 90" stroke-width="7.0" stroke="#fff500AB"/><path d="M209-181l110-18" stroke-width="7.1" stroke="#c2e1ffAB"/><path d="M143-265l42-102" stroke-width="7.1" stroke="#c2e1ffAC"/><path d="M44-67l-55 95" stroke-width="7.1" stroke="#fffAD"/><path d="M-9-147l-108 16" stroke-width="7.2" stroke="#c2e1ffAE"/><path d="M16-94l-84 69" stroke-width="7.3" stroke="#c2e1ffB1"/><path d="M7-218l-93-56" stroke-width="7.3" stroke="#c2e1ffB2"/><path d="M195-112l94 50" stroke-width="7.4" stroke="#005bbbB5"/><path d="M144-66l45 97" stroke-width="7.4" stroke="#fffB6"/><path d="M35-78l-64 85" stroke-width="7.4" stroke="#fff500B6"/><path d="M13-223l-87-61" stroke-width="7.5" stroke="#fff500B7"/><path d="M199-125l99 37" stroke-width="7.5" stroke="#fffB7"/><path d="M82-58l-19 104" stroke-width="7.5" stroke="#c2e1ffB8"/><path d="M88-58l-13 105" stroke-width="7.5" stroke="#c2e1ffB8"/><path d="M8-111l-91 52" stroke-width="7.6" stroke="#fff500B9"/><path d="M155-74l55 89" stroke-width="7.6" stroke="#fff500BB"/><path d="M7-208l-94-46" stroke-width="7.6" stroke="#fffBB"/><path d="M99-60l0 103" stroke-width="7.7" stroke="#fff500BE"/><path d="M69-65l-31 97" stroke-width="7.8" stroke="#fffBF"/><path d="M22-228l-78-66" stroke-width="7.8" stroke="#005bbbBF"/><path d="M163-84l63 79" stroke-width="7.8" stroke="#005bbbC2"/><path d="M15-109l-85 54" stroke-width="7.9" stroke="#fffC2"/><path d="M80-260l-21-98" stroke-width="7.9" stroke="#fffC3"/><path d="M105-262l6-99" stroke-width="7.9" stroke="#fffC4"/><path d="M176-226l76-63" stroke-width="8.0" stroke="#c2e1ffC5"/><path d="M196-173l96-10" stroke-width="8.1" stroke="#c2e1ffC8"/><path d="M187-203l86-41" stroke-width="8.1" stroke="#fffCA"/><path d="M8-189l-92-26" stroke-width="8.1" stroke="#fff500CA"/><path d="M13-133l-86 30" stroke-width="8.3" stroke="#c2e1ffD0"/><path d="M144-243l43-80" stroke-width="8.4" stroke="#005bbbD0"/><path d="M10-176l-89-14" stroke-width="8.4" stroke="#fff500D1"/><path d="M70-77l-31 85" stroke-width="8.4" stroke="#fff500D1"/><path d="M161-96l61 66" stroke-width="8.4" stroke="#005bbbD2"/><path d="M133-79l33 84" stroke-width="8.4" stroke="#c2e1ffD2"/><path d="M141-83l41 80" stroke-width="8.4" stroke="#fff500D2"/><path d="M164-100l64 62" stroke-width="8.4" stroke="#fffD2"/><path d="M108-251l9-89" stroke-width="8.5" stroke="#005bbbD3"/><path d="M142-85l42 78" stroke-width="8.5" stroke="#c2e1ffD4"/><path d="M65-243l-35-80" stroke-width="8.5" stroke="#fff500D5"/><path d="M160-102l59 60" stroke-width="8.6" stroke="#c2e1ffD8"/><path d="M19-139l-81 24" stroke-width="8.6" stroke="#fff500D8"/><path d="M165-116l64 47" stroke-width="8.8" stroke="#c2e1ffDD"/><path d="M167-121l68 41" stroke-width="8.8" stroke="#fff500DE"/><path d="M107-239l6-77" stroke-width="8.9" stroke="#005bbbDF"/><path d="M73-232l-26-69" stroke-width="9.0" stroke="#005bbbE2"/><path d="M32-168l-69-5" stroke-width="9.2" stroke="#c2e1ffE7"/><path d="M35-178l-66-15" stroke-width="9.2" stroke="#005bbbE8"/><path d="M167-165l66-2" stroke-width="9.2" stroke="#005bbbE8"/><path d="M152-198l52-35" stroke-width="9.3" stroke="#c2e1ffEB"/><path d="M61-115l-40 48" stroke-width="9.3" stroke="#c2e1ffEC"/><path d="M43-141l-58 22" stroke-width="9.3" stroke="#fff500EC"/><path d="M160-166l61-3" stroke-width="9.4" stroke="#fffED"/><path d="M46-188l-55-25" stroke-width="9.4" stroke="#fff500ED"/><path d="M136-207l36-45" stroke-width="9.4" stroke="#005bbbEE"/><path d="M130-206l30-43" stroke-width="9.5" stroke="#fffF1"/><path d="M101-213l2-51" stroke-width="9.6" stroke="#fff500F2"/><path d="M70-203l-31-41" stroke-width="9.6" stroke="#fff500F2"/><path d="M100-115l1 47" stroke-width="9.6" stroke="#005bbbF4"/><path d="M105-204l4-42" stroke-width="9.7" stroke="#fff500F6"/><path d="M84-129l-15 33" stroke-width="9.8" stroke="#c2e1ffF8"/><path d="M78-140l-21 23" stroke-width="9.8" stroke="#fffFA"/><path d="M76-178l-23-15" stroke-width="9.9" stroke="#005bbbFB"/><path d="M112-186l11-23" stroke-width="9.9" stroke="#fffFB"/><path d="M123-156l23 7" stroke-width="9.9" stroke="#fff500FC"/><path d="M87-155l-12 7" stroke-width="10.0" stroke="#fff500FE"/></g></svg>