<svg width="1200" height="675" viewBox="-500 -500 1200 675" xmlns="http://www.w3.org/2000/svg"><path d="M-500-500h1200v675h-1200z" fill="#000"/><style>.sparkles path{stroke-linecap:round}</style><g class="sparkles"><path d="M111-180l10-18" stroke-width="1.1" stroke="#005bbb1"/><path d="M119-134l20 28" stroke-width="1.2" stroke="#c2e1ff5"/><path d="M137-150l37 13" stroke-width="1.3" stroke="#005bbb7"/><path d="M107-201l7-39" stroke-width="1.3" stroke="#005bbb7"/><path d="M135-185l36-23" stroke-width="1.3" stroke="#fff5008"/><path d="M109-204l9-41" stroke-width="1.3" stroke="#fff8"/><path d="M105-209l5-46" stroke-width="1.4" stroke="#c2e1ffA"/><path d="M108-113l8 50" stroke-width="1.4" stroke="#005bbbC"/><path d="M148-187l49-25" stroke-width="1.5" stroke="#005bbbE"/><path d="M100-218l0-56" stroke-width="1.5" stroke="#c2e1ffF"/><path d="M43-166l-58-4" stroke-width="1.6" stroke="#005bbb10"/><path d="M95-105l-5 58" stroke-width="1.6" stroke="#c2e1ff10"/><path d="M83-105l-17 58" stroke-width="1.6" stroke="#fff50011"/><path d="M60-211l-40-49" stroke-width="1.7" stroke="#fff13"/><path d="M162-148l62 14" stroke-width="1.7" stroke="#fff13"/><path d="M164-168l64-6" stroke-width="1.7" stroke="#fff50014"/><path d="M102-231l2-68" stroke-width="1.8" stroke="#c2e1ff17"/><path d="M31-164l-68-1" stroke-width="1.8" stroke="#005bbb17"/><path d="M156-203l57-40" stroke-width="1.9" stroke="#fff18"/><path d="M28-157l-71 6" stroke-width="1.9" stroke="#c2e1ff1A"/><path d="M52-216l-49-54" stroke-width="1.9" stroke="#005bbb1A"/><path d="M145-101l45 61" stroke-width="2.1" stroke="#005bbb1D"/><path d="M148-100l48 62" stroke-width="2.1" stroke="#fff50020"/><path d="M23-178l-77-16" stroke-width="2.1" stroke="#fff50020"/><path d="M136-234l36-72" stroke-width="2.2" stroke="#fff50022"/><path d="M180-180l79-17" stroke-width="2.2" stroke="#fff23"/><path d="M19-151l-80 12" stroke-width="2.2" stroke="#005bbb23"/><path d="M90-248l-10-86" stroke-width="2.4" stroke="#c2e1ff28"/><path d="M145-88l45 74" stroke-width="2.4" stroke="#c2e1ff28"/><path d="M16-190l-83-28" stroke-width="2.5" stroke="#fff2A"/><path d="M48-235l-52-73" stroke-width="2.6" stroke="#fff5002C"/><path d="M188-182l88-19" stroke-width="2.6" stroke="#005bbb2D"/><path d="M192-176l92-14" stroke-width="2.7" stroke="#c2e1ff30"/><path d="M19-214l-80-52" stroke-width="2.9" stroke="#c2e1ff34"/><path d="M7-191l-92-29" stroke-width="2.9" stroke="#fff36"/><path d="M11-203l-89-40" stroke-width="3.0" stroke="#c2e1ff37"/><path d="M7-129l-93 33" stroke-width="3.0" stroke="#fff39"/><path d="M74-65l-26 98" stroke-width="3.2" stroke="#fff5003D"/><path d="M53-253l-47-91" stroke-width="3.2" stroke="#fff3F"/><path d="M25-88l-75 75" stroke-width="3.5" stroke="#c2e1ff46"/><path d="M34-79l-67 84" stroke-width="3.6" stroke="#c2e1ff48"/><path d="M25-238l-75-76" stroke-width="3.6" stroke="#fff50049"/><path d="M98-270l-2-107" stroke-width="3.6" stroke="#fff5004A"/><path d="M80-268l-19-106" stroke-width="3.6" stroke="#005bbb4A"/><path d="M185-229l84-67" stroke-width="3.7" stroke="#fff4B"/><path d="M208-157l109 6" stroke-width="3.7" stroke="#c2e1ff4D"/><path d="M-8-145l-108 18" stroke-width="3.8" stroke="#fff5004F"/><path d="M-7-188l-107-25" stroke-width="3.8" stroke="#005bbb50"/><path d="M201-119l101 43" stroke-width="3.8" stroke="#c2e1ff50"/><path d="M121-53l22 109" stroke-width="4.0" stroke="#005bbb55"/><path d="M6-223l-94-61" stroke-width="4.0" stroke="#005bbb56"/><path d="M101-51l0 112" stroke-width="4.1" stroke="#fff56"/><path d="M210-180l111-18" stroke-width="4.1" stroke="#005bbb56"/><path d="M134-56l33 107" stroke-width="4.1" stroke="#fff56"/><path d="M-2-116l-102 46" stroke-width="4.1" stroke="#fff57"/><path d="M-12-167l-112-5" stroke-width="4.1" stroke="#fff58"/><path d="M124-53l24 110" stroke-width="4.1" stroke="#fff58"/><path d="M142-267l41-104" stroke-width="4.1" stroke="#fff58"/><path d="M36-255l-65-92" stroke-width="4.1" stroke="#c2e1ff59"/><path d="M212-179l112-16" stroke-width="4.2" stroke="#fff5B"/><path d="M-12-183l-111-20" stroke-width="4.2" stroke="#fff5C"/><path d="M59-269l-40-107" stroke-width="4.3" stroke="#fff5005E"/><path d="M135-54l35 109" stroke-width="4.3" stroke="#fff5E"/><path d="M13-238l-87-75" stroke-width="4.5" stroke="#fff62"/><path d="M215-170l115-8" stroke-width="4.5" stroke="#fff50062"/><path d="M114-277l15-114" stroke-width="4.5" stroke="#c2e1ff63"/><path d="M215-151l116 11" stroke-width="4.6" stroke="#fff50067"/><path d="M-15-182l-114-19" stroke-width="4.7" stroke="#fff50068"/><path d="M-11-126l-110 37" stroke-width="4.8" stroke="#fff5006A"/><path d="M73-49l-26 114" stroke-width="4.9" stroke="#005bbb6E"/><path d="M216-146l117 16" stroke-width="5.0" stroke="#fff50071"/><path d="M203-106l103 56" stroke-width="5.0" stroke="#c2e1ff72"/><path d="M47-267l-54-105" stroke-width="5.2" stroke="#fff50075"/><path d="M104-280l4-118" stroke-width="5.2" stroke="#fff75"/><path d="M-11-122l-110 41" stroke-width="5.2" stroke="#fff76"/><path d="M78-278l-21-116" stroke-width="5.2" stroke="#fff50076"/><path d="M129-277l28-114" stroke-width="5.3" stroke="#005bbb78"/><path d="M26-70l-73 92" stroke-width="5.3" stroke="#fff5007A"/><path d="M-18-160l-118 2" stroke-width="5.4" stroke="#fff7B"/><path d="M29-68l-72 94" stroke-width="5.4" stroke="#fff5007D"/><path d="M188-84l88 79" stroke-width="5.5" stroke="#005bbb7E"/><path d="M50-55l-49 107" stroke-width="5.5" stroke="#fff5007E"/><path d="M11-240l-89-78" stroke-width="5.5" stroke="#005bbb7F"/><path d="M107-280l7-118" stroke-width="5.5" stroke="#fff7F"/><path d="M210-206l110-43" stroke-width="5.5" stroke="#005bbb7F"/><path d="M1-98l-99 64" stroke-width="5.6" stroke="#fff50080"/><path d="M168-259l68-97" stroke-width="5.6" stroke="#c2e1ff82"/><path d="M62-51l-39 112" stroke-width="5.6" stroke="#c2e1ff83"/><path d="M10-87l-91 76" stroke-width="5.6" stroke="#fff50083"/><path d="M172-256l72-94" stroke-width="5.7" stroke="#fff85"/><path d="M112-45l12 117" stroke-width="5.8" stroke="#005bbb86"/><path d="M32-66l-68 96" stroke-width="5.8" stroke="#005bbb87"/><path d="M31-67l-69 96" stroke-width="5.8" stroke="#fff50088"/><path d="M127-48l28 115" stroke-width="5.8" stroke="#fff50089"/><path d="M24-73l-76 90" stroke-width="5.9" stroke="#fff5008A"/><path d="M210-204l110-42" stroke-width="5.9" stroke="#fff8B"/><path d="M14-82l-86 80" stroke-width="5.9" stroke="#c2e1ff8B"/><path d="M89-46l-12 117" stroke-width="6.1" stroke="#005bbb8F"/><path d="M-2-106l-102 57" stroke-width="6.2" stroke="#005bbb94"/><path d="M51-268l-49-105" stroke-width="6.3" stroke="#005bbb97"/><path d="M66-52l-35 111" stroke-width="6.4" stroke="#fff50098"/><path d="M144-270l43-107" stroke-width="6.4" stroke="#fff99"/><path d="M51-267l-49-105" stroke-width="6.4" stroke="#fff50099"/><path d="M33-257l-67-94" stroke-width="6.5" stroke="#fff5009A"/><path d="M162-259l62-97" stroke-width="6.5" stroke="#005bbb9D"/><path d="M-11-190l-111-27" stroke-width="6.6" stroke="#c2e1ff9F"/><path d="M76-274l-25-112" stroke-width="6.7" stroke="#fff500A0"/><path d="M42-64l-58 98" stroke-width="6.7" stroke="#005bbbA0"/><path d="M205-207l105-44" stroke-width="6.7" stroke="#fffA0"/><path d="M-12-182l-112-19" stroke-width="6.7" stroke="#005bbbA1"/><path d="M178-80l79 82" stroke-width="6.7" stroke="#005bbbA2"/><path d="M46-262l-55-99" stroke-width="6.8" stroke="#fff500A4"/><path d="M126-52l25 110" stroke-width="6.8" stroke="#005bbbA4"/><path d="M90-275l-11-112" stroke-width="6.9" stroke="#005bbbA6"/><path d="M187-92l87 71" stroke-width="6.9" stroke="#fff500A7"/><path d="M95-274l-4-112" stroke-width="6.9" stroke="#fffA8"/><path d="M83-52l-16 110" stroke-width="7.0" stroke="#fff500A9"/><path d="M24-81l-76 82" stroke-width="7.0" stroke="#fff500A9"/><path d="M211-163l111-1" stroke-width="7.0" stroke="#fff500AB"/><path d="M-1-118l-100 45" stroke-width="7.1" stroke="#005bbbAD"/><path d="M182-89l81 74" stroke-width="7.1" stroke="#005bbbAE"/><path d="M91-271l-8-109" stroke-width="7.2" stroke="#c2e1ffAF"/><path d="M1-208l-100-45" stroke-width="7.2" stroke="#fff500B0"/><path d="M52-260l-48-98" stroke-width="7.2" stroke="#fff500B0"/><path d="M141-62l41 101" stroke-width="7.3" stroke="#fff500B1"/><path d="M75-57l-26 105" stroke-width="7.3" stroke="#c2e1ffB2"/><path d="M13-99l-88 63" stroke-width="7.3" stroke="#c2e1ffB3"/><path d="M206-146l106 17" stroke-width="7.4" stroke="#c2e1ffB4"/><path d="M116-56l16 106" stroke-width="7.4" stroke="#005bbbB4"/><path d="M172-83l71 79" stroke-width="7.4" stroke="#005bbbB5"/><path d="M121-60l21 102" stroke-width="7.6" stroke="#c2e1ffBB"/><path d="M204-165l103-2" stroke-width="7.7" stroke="#fffBC"/><path d="M35-243l-64-80" stroke-width="7.7" stroke="#005bbbBD"/><path d="M187-218l87-55" stroke-width="7.7" stroke="#005bbbBD"/><path d="M143-70l43 92" stroke-width="7.8" stroke="#005bbbC0"/><path d="M63-256l-37-93" stroke-width="7.9" stroke="#fff500C2"/><path d="M150-76l50 87" stroke-width="7.9" stroke="#fff500C3"/><path d="M200-162l99 1" stroke-width="7.9" stroke="#fffC4"/><path d="M182-108l81 54" stroke-width="8.0" stroke="#fff500C6"/><path d="M195-140l95 23" stroke-width="8.0" stroke="#fffC7"/><path d="M30-95l-70 67" stroke-width="8.1" stroke="#fffC7"/><path d="M34-92l-66 71" stroke-width="8.1" stroke="#c2e1ffC8"/><path d="M4-152l-96 10" stroke-width="8.1" stroke="#fff500C8"/><path d="M174-224l74-61" stroke-width="8.1" stroke="#005bbbC9"/><path d="M194-145l95 17" stroke-width="8.1" stroke="#fffC9"/><path d="M192-191l91-28" stroke-width="8.1" stroke="#fffC9"/><path d="M185-120l86 42" stroke-width="8.2" stroke="#fff500CA"/><path d="M41-237l-60-74" stroke-width="8.2" stroke="#005bbbCB"/><path d="M5-161l-95 1" stroke-width="8.2" stroke="#c2e1ffCB"/><path d="M98-257l-3-95" stroke-width="8.2" stroke="#005bbbCB"/><path d="M9-166l-92-3" stroke-width="8.3" stroke="#fff500D0"/><path d="M174-110l74 53" stroke-width="8.4" stroke="#005bbbD0"/><path d="M171-218l72-56" stroke-width="8.4" stroke="#005bbbD1"/><path d="M37-100l-64 63" stroke-width="8.5" stroke="#005bbbD3"/><path d="M37-100l-63 62" stroke-width="8.5" stroke="#fffD3"/><path d="M96-250l-4-88" stroke-width="8.5" stroke="#fff500D4"/><path d="M128-81l29 82" stroke-width="8.6" stroke="#fffD6"/><path d="M97-247l-3-84" stroke-width="8.6" stroke="#fff500D8"/><path d="M23-194l-77-31" stroke-width="8.7" stroke="#fff500DA"/><path d="M135-90l34 72" stroke-width="8.8" stroke="#fffDD"/><path d="M96-242l-5-79" stroke-width="8.8" stroke="#c2e1ffDD"/><path d="M155-106l55 56" stroke-width="8.9" stroke="#c2e1ffDE"/><path d="M29-130l-71 32" stroke-width="8.9" stroke="#c2e1ffDF"/><path d="M125-89l25 73" stroke-width="8.9" stroke="#fff500DF"/><path d="M25-179l-75-16" stroke-width="8.9" stroke="#005bbbE0"/><path d="M64-227l-35-65" stroke-width="9.0" stroke="#fffE2"/><path d="M34-191l-66-29" stroke-width="9.1" stroke="#fff500E4"/><path d="M33-162l-66 1" stroke-width="9.2" stroke="#fffE8"/><path d="M142-210l43-47" stroke-width="9.3" stroke="#005bbbEB"/><path d="M41-162l-59 0" stroke-width="9.4" stroke="#fff500ED"/><path d="M154-145l53 17" stroke-width="9.5" stroke="#005bbbEF"/><path d="M152-162l52 0" stroke-width="9.5" stroke="#005bbbF1"/><path d="M53-183l-47-21" stroke-width="9.6" stroke="#fff500F2"/><path d="M105-113l4 50" stroke-width="9.6" stroke="#005bbbF3"/><path d="M80-202l-21-39" stroke-width="9.7" stroke="#005bbbF5"/><path d="M99-193l-1-30" stroke-width="9.8" stroke="#fff500FA"/><path d="M93-191l-7-28" stroke-width="9.9" stroke="#fff500FB"/><path d="M122-149l23 13" stroke-width="9.9" stroke="#fffFB"/><path d="M79-170l-21-8" stroke-width="9.9" stroke="#c2e1ffFC"/><path d="M116-166l16-4" stroke-width="10.0" stroke="#fffFD"/><path d="M89-155l-12 7" stroke-width="10.0" stroke="#fff500FE"/></g></svg>