<svg width="1200" height="675" viewBox="-500 -500 1200 675" xmlns="http://www.w3.org/2000/svg"><path d="M-500-500h1200v675h-1200z" fill="#000"/><style>.sparkles path{stroke-linecap:round}</style><g class="sparkles"><path d="M75-166l-24-4" stroke-width="1.1" stroke="#fff5002"/><path d="M71-167l-29-4" stroke-width="1.1" stroke="#fff3"/><path d="M68-154l-33 8" stroke-width="1.2" stroke="#005bbb5"/><path d="M133-174l34-11" stroke-width="1.2" stroke="#005bbb5"/><path d="M125-191l26-29" stroke-width="1.2" stroke="#c2e1ff6"/><path d="M105-205l5-42" stroke-width="1.3" stroke="#c2e1ff8"/><path d="M120-207l21-44" stroke-width="1.4" stroke="#005bbbB"/><path d="M73-115l-27 47" stroke-width="1.5" stroke="#fffE"/><path d="M155-158l55 4" stroke-width="1.5" stroke="#fff500E"/><path d="M155-179l55-16" stroke-width="1.6" stroke="#c2e1ff10"/><path d="M121-101l20 61" stroke-width="1.7" stroke="#fff50014"/><path d="M35-156l-65 7" stroke-width="1.8" stroke="#c2e1ff15"/><path d="M57-113l-43 50" stroke-width="1.8" stroke="#fff50015"/><path d="M124-224l24-61" stroke-width="1.8" stroke="#fff15"/><path d="M157-124l58 38" stroke-width="1.8" stroke="#fff50017"/><path d="M115-230l14-68" stroke-width="1.9" stroke="#005bbb18"/><path d="M146-110l45 52" stroke-width="1.9" stroke="#fff18"/><path d="M98-92l-2 70" stroke-width="1.9" stroke="#fff50018"/><path d="M162-202l63-39" stroke-width="2.0" stroke="#005bbb1B"/><path d="M30-200l-70-37" stroke-width="2.2" stroke="#fff50020"/><path d="M22-191l-78-29" stroke-width="2.3" stroke="#c2e1ff24"/><path d="M64-86l-35 76" stroke-width="2.3" stroke="#005bbb26"/><path d="M92-248l-7-86" stroke-width="2.4" stroke="#fff50028"/><path d="M182-193l81-30" stroke-width="2.5" stroke="#005bbb29"/><path d="M98-250l-2-87" stroke-width="2.5" stroke="#fff29"/><path d="M133-244l33-81" stroke-width="2.5" stroke="#005bbb2A"/><path d="M11-166l-90-3" stroke-width="2.6" stroke="#c2e1ff2C"/><path d="M147-239l47-77" stroke-width="2.6" stroke="#fff5002C"/><path d="M183-198l84-36" stroke-width="2.6" stroke="#005bbb2D"/><path d="M182-120l81 42" stroke-width="2.7" stroke="#c2e1ff2F"/><path d="M8-164l-92-1" stroke-width="2.7" stroke="#fff2F"/><path d="M159-234l59-72" stroke-width="2.7" stroke="#005bbb30"/><path d="M103-255l2-93" stroke-width="2.7" stroke="#005bbb30"/><path d="M170-225l70-62" stroke-width="2.8" stroke="#fff32"/><path d="M180-114l81 49" stroke-width="2.8" stroke="#c2e1ff32"/><path d="M8-139l-92 23" stroke-width="2.8" stroke="#fff50033"/><path d="M5-157l-94 6" stroke-width="2.8" stroke="#fff33"/><path d="M90-257l-10-95" stroke-width="2.8" stroke="#fff50033"/><path d="M191-132l90 31" stroke-width="2.9" stroke="#c2e1ff34"/><path d="M79-69l-22 93" stroke-width="2.9" stroke="#fff34"/><path d="M6-185l-94-22" stroke-width="2.9" stroke="#fff50035"/><path d="M184-210l84-48" stroke-width="2.9" stroke="#005bbb36"/><path d="M21-106l-80 56" stroke-width="2.9" stroke="#c2e1ff37"/><path d="M198-143l99 20" stroke-width="3.1" stroke="#005bbb3C"/><path d="M90-62l-10 100" stroke-width="3.1" stroke="#fff5003C"/><path d="M66-66l-34 96" stroke-width="3.2" stroke="#fff5003F"/><path d="M83-263l-16-101" stroke-width="3.2" stroke="#005bbb3F"/><path d="M52-67l-48 96" stroke-width="3.6" stroke="#c2e1ff49"/><path d="M3-209l-96-46" stroke-width="3.6" stroke="#005bbb49"/><path d="M137-264l37-102" stroke-width="3.7" stroke="#fff5004D"/><path d="M66-266l-33-104" stroke-width="3.8" stroke="#005bbb4E"/><path d="M153-258l52-96" stroke-width="3.8" stroke="#fff5004F"/><path d="M134-58l35 105" stroke-width="3.9" stroke="#c2e1ff51"/><path d="M7-102l-92 61" stroke-width="3.9" stroke="#fff53"/><path d="M32-250l-68-88" stroke-width="4.0" stroke="#005bbb54"/><path d="M118-53l17 110" stroke-width="4.0" stroke="#fff54"/><path d="M121-53l22 109" stroke-width="4.0" stroke="#fff55"/><path d="M120-53l19 110" stroke-width="4.0" stroke="#c2e1ff55"/><path d="M206-197l107-34" stroke-width="4.1" stroke="#005bbb56"/><path d="M102-50l1 112" stroke-width="4.1" stroke="#fff50058"/><path d="M104-50l3 113" stroke-width="4.2" stroke="#c2e1ff5A"/><path d="M122-51l22 112" stroke-width="4.3" stroke="#c2e1ff5D"/><path d="M139-55l39 107" stroke-width="4.3" stroke="#005bbb5E"/><path d="M46-263l-54-101" stroke-width="4.4" stroke="#fff5F"/><path d="M38-66l-63 96" stroke-width="4.4" stroke="#005bbb61"/><path d="M203-215l104-52" stroke-width="4.6" stroke="#fff66"/><path d="M2-100l-97 63" stroke-width="4.6" stroke="#005bbb67"/><path d="M17-244l-83-81" stroke-width="4.6" stroke="#c2e1ff67"/><path d="M213-133l112 30" stroke-width="4.7" stroke="#fff50069"/><path d="M28-254l-72-92" stroke-width="4.7" stroke="#005bbb69"/><path d="M80-277l-21-115" stroke-width="4.8" stroke="#005bbb6B"/><path d="M5-230l-96-67" stroke-width="4.8" stroke="#c2e1ff6C"/><path d="M29-70l-71 93" stroke-width="4.8" stroke="#fff5006C"/><path d="M102-279l1-117" stroke-width="4.9" stroke="#c2e1ff6D"/><path d="M6-93l-94 70" stroke-width="4.9" stroke="#fff5006F"/><path d="M192-90l93 72" stroke-width="5.0" stroke="#fff70"/><path d="M209-206l109-44" stroke-width="5.1" stroke="#c2e1ff74"/><path d="M218-160l117 2" stroke-width="5.1" stroke="#c2e1ff74"/><path d="M195-93l96 69" stroke-width="5.2" stroke="#005bbb76"/><path d="M141-52l41 111" stroke-width="5.3" stroke="#fff50079"/><path d="M216-182l117-20" stroke-width="5.3" stroke="#fff5007A"/><path d="M10-86l-91 76" stroke-width="5.4" stroke="#005bbb7B"/><path d="M64-275l-36-112" stroke-width="5.4" stroke="#c2e1ff7C"/><path d="M38-263l-63-100" stroke-width="5.6" stroke="#fff50081"/><path d="M208-210l108-47" stroke-width="5.6" stroke="#005bbb82"/><path d="M218-155l118 7" stroke-width="5.6" stroke="#c2e1ff83"/><path d="M59-52l-41 111" stroke-width="5.6" stroke="#c2e1ff83"/><path d="M20-75l-79 87" stroke-width="5.6" stroke="#c2e1ff83"/><path d="M185-80l85 82" stroke-width="5.7" stroke="#fff50083"/><path d="M216-183l116-20" stroke-width="5.8" stroke="#fff87"/><path d="M114-279l15-117" stroke-width="5.8" stroke="#c2e1ff88"/><path d="M95-45l-5 118" stroke-width="5.8" stroke="#005bbb88"/><path d="M118-46l18 116" stroke-width="5.8" stroke="#005bbb88"/><path d="M152-268l52-106" stroke-width="5.8" stroke="#c2e1ff88"/><path d="M71-48l-28 114" stroke-width="5.9" stroke="#fff50089"/><path d="M207-212l106-50" stroke-width="5.9" stroke="#fff5008A"/><path d="M183-79l82 84" stroke-width="5.9" stroke="#fff5008A"/><path d="M108-280l8-117" stroke-width="5.9" stroke="#fff5008A"/><path d="M173-255l72-92" stroke-width="5.9" stroke="#005bbb8B"/><path d="M119-278l19-116" stroke-width="6.0" stroke="#fff5008C"/><path d="M217-168l118-6" stroke-width="6.0" stroke="#c2e1ff8D"/><path d="M188-240l89-77" stroke-width="6.0" stroke="#fff8E"/><path d="M31-257l-70-95" stroke-width="6.1" stroke="#005bbb8F"/><path d="M11-238l-90-76" stroke-width="6.1" stroke="#fff5008F"/><path d="M190-88l89 75" stroke-width="6.2" stroke="#005bbb92"/><path d="M216-147l116 15" stroke-width="6.2" stroke="#c2e1ff92"/><path d="M162-64l61 99" stroke-width="6.2" stroke="#fff93"/><path d="M171-255l72-92" stroke-width="6.2" stroke="#fff50094"/><path d="M54-270l-46-107" stroke-width="6.2" stroke="#fff50094"/><path d="M193-93l93 70" stroke-width="6.3" stroke="#fff50096"/><path d="M211-196l111-34" stroke-width="6.3" stroke="#005bbb96"/><path d="M67-274l-32-111" stroke-width="6.4" stroke="#fff98"/><path d="M174-74l75 89" stroke-width="6.4" stroke="#c2e1ff98"/><path d="M96-47l-3 115" stroke-width="6.5" stroke="#fff5009A"/><path d="M215-164l115-2" stroke-width="6.6" stroke="#c2e1ff9D"/><path d="M150-266l50-103" stroke-width="6.6" stroke="#fff5009D"/><path d="M-14-153l-114 9" stroke-width="6.6" stroke="#fff9E"/><path d="M114-276l13-114" stroke-width="6.6" stroke="#005bbb9F"/><path d="M41-260l-60-97" stroke-width="6.7" stroke="#fffA0"/><path d="M29-73l-70 90" stroke-width="6.7" stroke="#fffA0"/><path d="M40-66l-61 97" stroke-width="6.7" stroke="#005bbbA0"/><path d="M-14-155l-113 8" stroke-width="6.7" stroke="#c2e1ffA1"/><path d="M214-162l113 0" stroke-width="6.7" stroke="#c2e1ffA2"/><path d="M113-275l13-113" stroke-width="6.7" stroke="#c2e1ffA2"/><path d="M10-228l-91-65" stroke-width="7.0" stroke="#005bbbA9"/><path d="M185-235l84-72" stroke-width="7.0" stroke="#fff500AA"/><path d="M210-181l109-18" stroke-width="7.0" stroke="#005bbbAA"/><path d="M62-60l-38 103" stroke-width="7.2" stroke="#fff500AE"/><path d="M199-116l98 47" stroke-width="7.2" stroke="#c2e1ffB0"/><path d="M142-263l41-100" stroke-width="7.3" stroke="#fff500B1"/><path d="M206-143l106 19" stroke-width="7.4" stroke="#fffB4"/><path d="M106-269l6-106" stroke-width="7.5" stroke="#005bbbB6"/><path d="M202-134l103 29" stroke-width="7.5" stroke="#c2e1ffB6"/><path d="M100-56l0 106" stroke-width="7.5" stroke="#c2e1ffB7"/><path d="M172-239l73-77" stroke-width="7.5" stroke="#005bbbB8"/><path d="M62-65l-37 97" stroke-width="7.6" stroke="#fffBB"/><path d="M-1-186l-102-24" stroke-width="7.6" stroke="#005bbbBB"/><path d="M-3-160l-103 2" stroke-width="7.7" stroke="#fff500BD"/><path d="M58-68l-43 94" stroke-width="7.7" stroke="#c2e1ffBD"/><path d="M52-73l-48 90" stroke-width="7.8" stroke="#fffBF"/><path d="M43-78l-57 84" stroke-width="7.8" stroke="#c2e1ffC0"/><path d="M41-80l-59 82" stroke-width="7.8" stroke="#fffC1"/><path d="M5-130l-96 33" stroke-width="7.8" stroke="#c2e1ffC2"/><path d="M191-120l92 42" stroke-width="7.9" stroke="#c2e1ffC2"/><path d="M77-65l-24 97" stroke-width="7.9" stroke="#fffC3"/><path d="M120-260l19-98" stroke-width="7.9" stroke="#c2e1ffC3"/><path d="M11-204l-89-42" stroke-width="8.0" stroke="#fffC6"/><path d="M18-215l-83-53" stroke-width="8.0" stroke="#c2e1ffC6"/><path d="M76-69l-25 93" stroke-width="8.1" stroke="#c2e1ffC9"/><path d="M189-199l88-37" stroke-width="8.1" stroke="#005bbbC9"/><path d="M24-103l-76 59" stroke-width="8.1" stroke="#fffC9"/><path d="M67-251l-32-89" stroke-width="8.2" stroke="#fffCB"/><path d="M40-234l-59-72" stroke-width="8.2" stroke="#005bbbCD"/><path d="M192-150l92 13" stroke-width="8.3" stroke="#c2e1ffCE"/><path d="M161-232l61-69" stroke-width="8.3" stroke="#fff500CE"/><path d="M29-221l-70-59" stroke-width="8.3" stroke="#005bbbCF"/><path d="M146-240l45-77" stroke-width="8.4" stroke="#fffD2"/><path d="M55-85l-45 77" stroke-width="8.4" stroke="#fff500D2"/><path d="M29-108l-71 54" stroke-width="8.4" stroke="#fff500D3"/><path d="M13-152l-88 11" stroke-width="8.5" stroke="#c2e1ffD4"/><path d="M153-93l54 70" stroke-width="8.5" stroke="#005bbbD4"/><path d="M30-112l-71 51" stroke-width="8.5" stroke="#fffD5"/><path d="M25-122l-75 41" stroke-width="8.6" stroke="#fffD7"/><path d="M56-234l-45-72" stroke-width="8.6" stroke="#fffD8"/><path d="M33-111l-66 51" stroke-width="8.7" stroke="#c2e1ffD9"/><path d="M160-212l60-49" stroke-width="8.9" stroke="#fff500DF"/><path d="M169-144l69 19" stroke-width="9.1" stroke="#005bbbE4"/><path d="M105-101l4 62" stroke-width="9.3" stroke="#fffEC"/><path d="M79-220l-20-58" stroke-width="9.3" stroke="#fff500EC"/><path d="M50-188l-50-26" stroke-width="9.5" stroke="#fffEF"/><path d="M62-125l-37 37" stroke-width="9.5" stroke="#fffF1"/><path d="M59-148l-41 14" stroke-width="9.7" stroke="#005bbbF6"/><path d="M134-189l33-27" stroke-width="9.7" stroke="#005bbbF6"/><path d="M134-141l34 21" stroke-width="9.7" stroke="#c2e1ffF7"/><path d="M133-180l33-18" stroke-width="9.8" stroke="#fffF8"/><path d="M112-192l13-29" stroke-width="9.8" stroke="#c2e1ffFA"/><path d="M116-135l15 28" stroke-width="9.8" stroke="#fffFA"/><path d="M128-161l27 1" stroke-width="9.9" stroke="#fffFB"/><path d="M113-180l12-17" stroke-width="9.9" stroke="#005bbbFC"/><path d="M95-148l-5 15" stroke-width="10.0" stroke="#c2e1ffFD"/><path d="M108-171l8-8" stroke-width="10.0" stroke="#fffFE"/></g></svg>