<svg width="1200" height="675" viewBox="-500 -500 1200 675" xmlns="http://www.w3.org/2000/svg"><path d="M-500-500h1200v675h-1200z" fill="#000"/><style>.sparkles path{stroke-linecap:round}</style><g class="sparkles"><path d="M105-169l5-7" stroke-width="1.0" stroke="#fff0"/><path d="M112-140l12 23" stroke-width="1.1" stroke="#fff5003"/><path d="M125-152l25 11" stroke-width="1.1" stroke="#c2e1ff3"/><path d="M127-138l27 24" stroke-width="1.2" stroke="#c2e1ff6"/><path d="M121-132l22 30" stroke-width="1.2" stroke="#c2e1ff6"/><path d="M130-141l30 21" stroke-width="1.2" stroke="#c2e1ff6"/><path d="M102-124l2 39" stroke-width="1.2" stroke="#fff7"/><path d="M56-164l-45-2" stroke-width="1.3" stroke="#fff9"/><path d="M87-120l-13 43" stroke-width="1.3" stroke="#fff5009"/><path d="M91-115l-10 48" stroke-width="1.4" stroke="#fff500B"/><path d="M57-136l-43 27" stroke-width="1.4" stroke="#fffC"/><path d="M114-113l15 49" stroke-width="1.4" stroke="#005bbbC"/><path d="M116-214l16-52" stroke-width="1.5" stroke="#fff500E"/><path d="M155-167l55-4" stroke-width="1.5" stroke="#c2e1ffE"/><path d="M54-197l-45-34" stroke-width="1.6" stroke="#005bbbF"/><path d="M162-162l62 0" stroke-width="1.7" stroke="#c2e1ff12"/><path d="M43-130l-57 32" stroke-width="1.8" stroke="#fff50015"/><path d="M128-222l29-60" stroke-width="1.8" stroke="#c2e1ff15"/><path d="M131-102l32 61" stroke-width="1.8" stroke="#fff17"/><path d="M113-95l12 68" stroke-width="1.8" stroke="#fff50018"/><path d="M114-91l14 72" stroke-width="2.0" stroke="#fff1B"/><path d="M98-240l-3-77" stroke-width="2.1" stroke="#005bbb1F"/><path d="M171-130l71 33" stroke-width="2.1" stroke="#c2e1ff20"/><path d="M30-125l-70 37" stroke-width="2.2" stroke="#fff50021"/><path d="M180-144l79 18" stroke-width="2.3" stroke="#fff23"/><path d="M28-123l-72 40" stroke-width="2.3" stroke="#fff50023"/><path d="M19-150l-81 13" stroke-width="2.3" stroke="#fff23"/><path d="M34-114l-67 49" stroke-width="2.3" stroke="#005bbb23"/><path d="M142-89l41 73" stroke-width="2.3" stroke="#fff50026"/><path d="M147-233l48-70" stroke-width="2.4" stroke="#005bbb26"/><path d="M16-141l-83 22" stroke-width="2.4" stroke="#c2e1ff28"/><path d="M14-151l-87 12" stroke-width="2.5" stroke="#fff29"/><path d="M182-193l81-30" stroke-width="2.5" stroke="#c2e1ff29"/><path d="M182-199l82-37" stroke-width="2.6" stroke="#fff2C"/><path d="M34-101l-66 61" stroke-width="2.6" stroke="#fff2D"/><path d="M87-72l-13 91" stroke-width="2.7" stroke="#c2e1ff2F"/><path d="M6-167l-93-4" stroke-width="2.8" stroke="#005bbb32"/><path d="M94-67l-7 95" stroke-width="2.8" stroke="#c2e1ff34"/><path d="M12-126l-89 36" stroke-width="2.9" stroke="#005bbb34"/><path d="M78-257l-22-95" stroke-width="2.9" stroke="#fff36"/><path d="M90-260l-9-98" stroke-width="3.0" stroke="#c2e1ff38"/><path d="M8-197l-93-34" stroke-width="3.0" stroke="#fff39"/><path d="M6-193l-93-31" stroke-width="3.0" stroke="#c2e1ff39"/><path d="M120-65l20 97" stroke-width="3.0" stroke="#005bbb39"/><path d="M3-137l-96 26" stroke-width="3.1" stroke="#fff5003B"/><path d="M20-99l-80 64" stroke-width="3.2" stroke="#005bbb3F"/><path d="M121-62l21 101" stroke-width="3.3" stroke="#c2e1ff41"/><path d="M0-134l-99 29" stroke-width="3.3" stroke="#fff50042"/><path d="M36-81l-64 82" stroke-width="3.4" stroke="#c2e1ff42"/><path d="M194-116l93 47" stroke-width="3.4" stroke="#005bbb44"/><path d="M204-152l104 11" stroke-width="3.4" stroke="#c2e1ff44"/><path d="M105-56l4 107" stroke-width="3.6" stroke="#fff49"/><path d="M34-78l-66 84" stroke-width="3.6" stroke="#fff49"/><path d="M190-221l89-59" stroke-width="3.6" stroke="#fff49"/><path d="M112-270l12-107" stroke-width="3.7" stroke="#c2e1ff4B"/><path d="M208-165l108-2" stroke-width="3.7" stroke="#c2e1ff4B"/><path d="M50-259l-51-96" stroke-width="3.8" stroke="#005bbb4D"/><path d="M8-105l-93 58" stroke-width="3.8" stroke="#005bbb4D"/><path d="M25-82l-75 81" stroke-width="3.9" stroke="#005bbb50"/><path d="M74-55l-25 107" stroke-width="3.9" stroke="#fff50051"/><path d="M196-218l96-56" stroke-width="4.0" stroke="#c2e1ff53"/><path d="M29-77l-72 85" stroke-width="4.0" stroke="#005bbb54"/><path d="M93-275l-7-112" stroke-width="4.1" stroke="#005bbb58"/><path d="M24-79l-75 83" stroke-width="4.1" stroke="#c2e1ff58"/><path d="M19-241l-81-78" stroke-width="4.1" stroke="#005bbb58"/><path d="M5-102l-96 61" stroke-width="4.2" stroke="#fff5005B"/><path d="M164-69l63 94" stroke-width="4.2" stroke="#fff5B"/><path d="M208-197l108-34" stroke-width="4.2" stroke="#fff5005B"/><path d="M27-75l-72 87" stroke-width="4.2" stroke="#005bbb5B"/><path d="M-1-108l-101 55" stroke-width="4.4" stroke="#005bbb61"/><path d="M205-116l106 46" stroke-width="4.5" stroke="#c2e1ff62"/><path d="M189-90l89 73" stroke-width="4.5" stroke="#fff50062"/><path d="M31-255l-70-92" stroke-width="4.5" stroke="#fff50063"/><path d="M214-146l114 17" stroke-width="4.6" stroke="#fff64"/><path d="M214-140l114 22" stroke-width="4.7" stroke="#fff68"/><path d="M213-135l114 27" stroke-width="4.7" stroke="#005bbb6A"/><path d="M98-46l-1 117" stroke-width="4.8" stroke="#fff6B"/><path d="M192-90l91 72" stroke-width="4.8" stroke="#c2e1ff6B"/><path d="M217-154l116 8" stroke-width="4.9" stroke="#fff6D"/><path d="M217-161l117 2" stroke-width="4.9" stroke="#c2e1ff6D"/><path d="M70-276l-29-113" stroke-width="4.9" stroke="#c2e1ff6E"/><path d="M173-71l74 91" stroke-width="4.9" stroke="#005bbb6E"/><path d="M179-76l80 86" stroke-width="4.9" stroke="#fff6F"/><path d="M69-276l-31-114" stroke-width="5.1" stroke="#fff75"/><path d="M-14-190l-115-28" stroke-width="5.2" stroke="#005bbb75"/><path d="M117-279l17-117" stroke-width="5.3" stroke="#c2e1ff78"/><path d="M71-48l-29 114" stroke-width="5.4" stroke="#c2e1ff7B"/><path d="M77-47l-23 116" stroke-width="5.4" stroke="#005bbb7B"/><path d="M95-45l-5 118" stroke-width="5.4" stroke="#fff7C"/><path d="M215-138l116 25" stroke-width="5.5" stroke="#fff80"/><path d="M-5-217l-104-55" stroke-width="5.6" stroke="#c2e1ff81"/><path d="M100-281l0-118" stroke-width="5.6" stroke="#c2e1ff83"/><path d="M160-264l60-102" stroke-width="5.6" stroke="#fff83"/><path d="M171-256l72-94" stroke-width="5.8" stroke="#fff86"/><path d="M20-76l-81 86" stroke-width="5.8" stroke="#005bbb87"/><path d="M216-140l115 23" stroke-width="5.8" stroke="#fff50087"/><path d="M201-102l102 60" stroke-width="5.9" stroke="#005bbb89"/><path d="M96-280l-4-118" stroke-width="5.9" stroke="#005bbb89"/><path d="M-18-158l-117 4" stroke-width="5.9" stroke="#fff8A"/><path d="M-2-106l-103 57" stroke-width="6.1" stroke="#fff90"/><path d="M60-53l-40 110" stroke-width="6.2" stroke="#005bbb92"/><path d="M57-54l-42 109" stroke-width="6.2" stroke="#fff92"/><path d="M75-276l-26-114" stroke-width="6.3" stroke="#c2e1ff94"/><path d="M120-48l19 115" stroke-width="6.3" stroke="#fff50095"/><path d="M215-178l116-16" stroke-width="6.3" stroke="#fff50095"/><path d="M95-278l-5-116" stroke-width="6.3" stroke="#c2e1ff97"/><path d="M105-278l6-116" stroke-width="6.3" stroke="#005bbb97"/><path d="M159-63l60 99" stroke-width="6.4" stroke="#c2e1ff98"/><path d="M213-139l114 24" stroke-width="6.4" stroke="#fff98"/><path d="M178-79l79 83" stroke-width="6.6" stroke="#005bbb9F"/><path d="M9-231l-91-69" stroke-width="6.7" stroke="#fffA0"/><path d="M29-251l-70-89" stroke-width="6.8" stroke="#fffA3"/><path d="M61-56l-39 106" stroke-width="6.8" stroke="#fffA4"/><path d="M121-51l20 111" stroke-width="6.8" stroke="#c2e1ffA4"/><path d="M155-261l55-98" stroke-width="6.8" stroke="#fffA5"/><path d="M13-233l-88-70" stroke-width="6.9" stroke="#fff500A6"/><path d="M5-103l-95 60" stroke-width="6.9" stroke="#fffA7"/><path d="M197-109l97 54" stroke-width="7.0" stroke="#fffAB"/><path d="M132-268l33-106" stroke-width="7.1" stroke="#c2e1ffAC"/><path d="M66-58l-33 105" stroke-width="7.1" stroke="#005bbbAE"/><path d="M-7-145l-108 17" stroke-width="7.3" stroke="#c2e1ffB1"/><path d="M0-204l-100-42" stroke-width="7.3" stroke="#fff500B2"/><path d="M18-93l-82 70" stroke-width="7.4" stroke="#fffB4"/><path d="M37-76l-63 86" stroke-width="7.4" stroke="#c2e1ffB5"/><path d="M38-249l-62-86" stroke-width="7.5" stroke="#fffB7"/><path d="M15-100l-85 63" stroke-width="7.5" stroke="#fff500B8"/><path d="M74-265l-25-102" stroke-width="7.5" stroke="#fffB9"/><path d="M-2-188l-101-25" stroke-width="7.6" stroke="#005bbbBA"/><path d="M11-107l-88 56" stroke-width="7.6" stroke="#c2e1ffBA"/><path d="M202-138l101 25" stroke-width="7.6" stroke="#005bbbBA"/><path d="M204-160l104 3" stroke-width="7.6" stroke="#fff500BB"/><path d="M204-172l103-9" stroke-width="7.6" stroke="#005bbbBB"/><path d="M193-117l93 45" stroke-width="7.7" stroke="#fffBC"/><path d="M-3-150l-102 12" stroke-width="7.7" stroke="#fffBD"/><path d="M203-170l102-7" stroke-width="7.7" stroke="#005bbbBE"/><path d="M145-70l45 92" stroke-width="7.7" stroke="#c2e1ffBE"/><path d="M181-103l80 60" stroke-width="7.9" stroke="#fff500C2"/><path d="M117-64l17 98" stroke-width="7.9" stroke="#005bbbC4"/><path d="M65-255l-36-92" stroke-width="8.0" stroke="#fffC5"/><path d="M99-64l-1 98" stroke-width="8.0" stroke="#fff500C6"/><path d="M26-99l-75 64" stroke-width="8.0" stroke="#fffC6"/><path d="M45-81l-54 81" stroke-width="8.0" stroke="#fffC6"/><path d="M37-89l-63 74" stroke-width="8.1" stroke="#005bbbC8"/><path d="M196-172l97-10" stroke-width="8.1" stroke="#005bbbC8"/><path d="M157-240l57-77" stroke-width="8.1" stroke="#fffC9"/><path d="M166-95l67 68" stroke-width="8.2" stroke="#c2e1ffCB"/><path d="M147-243l47-80" stroke-width="8.3" stroke="#fffCD"/><path d="M30-225l-69-62" stroke-width="8.3" stroke="#005bbbCD"/><path d="M28-219l-73-57" stroke-width="8.3" stroke="#fffCF"/><path d="M188-141l88 21" stroke-width="8.4" stroke="#c2e1ffD1"/><path d="M117-74l17 88" stroke-width="8.4" stroke="#005bbbD2"/><path d="M82-77l-17 86" stroke-width="8.5" stroke="#fffD4"/><path d="M13-161l-88 1" stroke-width="8.5" stroke="#c2e1ffD5"/><path d="M31-114l-69 48" stroke-width="8.7" stroke="#fffD8"/><path d="M181-177l81-15" stroke-width="8.7" stroke="#fff500DA"/><path d="M94-81l-7 81" stroke-width="8.8" stroke="#005bbbDB"/><path d="M39-110l-61 52" stroke-width="8.8" stroke="#fffDD"/><path d="M176-160l77 3" stroke-width="8.9" stroke="#fffE0"/><path d="M126-230l27-68" stroke-width="9.0" stroke="#fff500E3"/><path d="M156-208l56-45" stroke-width="9.1" stroke="#005bbbE4"/><path d="M88-93l-11 70" stroke-width="9.1" stroke="#c2e1ffE5"/><path d="M90-228l-10-66" stroke-width="9.2" stroke="#c2e1ffE8"/><path d="M85-227l-16-64" stroke-width="9.2" stroke="#fffE9"/><path d="M91-227l-10-65" stroke-width="9.2" stroke="#c2e1ffE9"/><path d="M123-222l23-60" stroke-width="9.3" stroke="#fffEA"/><path d="M134-109l34 53" stroke-width="9.3" stroke="#005bbbEB"/><path d="M57-121l-43 41" stroke-width="9.4" stroke="#c2e1ffED"/><path d="M51-128l-48 34" stroke-width="9.4" stroke="#005bbbED"/><path d="M159-164l58-2" stroke-width="9.4" stroke="#005bbbEE"/><path d="M150-181l51-18" stroke-width="9.5" stroke="#fff500F1"/><path d="M151-165l50-3" stroke-width="9.6" stroke="#fff500F2"/><path d="M138-162l37 1" stroke-width="9.8" stroke="#c2e1ffF8"/><path d="M126-136l26 27" stroke-width="9.8" stroke="#c2e1ffF8"/><path d="M80-190l-20-28" stroke-width="9.8" stroke="#005bbbF9"/><path d="M69-148l-30 15" stroke-width="9.8" stroke="#fff500F9"/><path d="M108-130l8 32" stroke-width="9.8" stroke="#c2e1ffF9"/><path d="M70-157l-30 6" stroke-width="9.8" stroke="#c2e1ffFA"/><path d="M84-189l-15-26" stroke-width="9.8" stroke="#c2e1ffFA"/><path d="M86-144l-13 19" stroke-width="9.9" stroke="#005bbbFC"/><path d="M85-172l-14-9" stroke-width="10.0" stroke="#c2e1ffFD"/><path d="M109-156l9 7" stroke-width="10.0" stroke="#c2e1ffFE"/></g></svg>