<svg width="1200" height="675" viewBox="-500 -500 1200 675" xmlns="http://www.w3.org/2000/svg"><path d="M-500-500h1200v675h-1200z" fill="#000"/><style>.sparkles path{stroke-linecap:round}</style><g class="sparkles"><path d="M107-160l7 2" stroke-width="1.0" stroke="#005bbb0"/><path d="M88-169l-11-6" stroke-width="1.0" stroke="#c2e1ff0"/><path d="M97-179l-3-16" stroke-width="1.0" stroke="#fff1"/><path d="M97-139l-2 24" stroke-width="1.1" stroke="#c2e1ff2"/><path d="M125-183l26-21" stroke-width="1.2" stroke="#c2e1ff5"/><path d="M79-199l-20-36" stroke-width="1.3" stroke="#fff5008"/><path d="M55-155l-44 7" stroke-width="1.3" stroke="#fff9"/><path d="M70-198l-31-35" stroke-width="1.4" stroke="#fff500A"/><path d="M49-154l-51 8" stroke-width="1.5" stroke="#005bbbC"/><path d="M151-142l51 21" stroke-width="1.5" stroke="#005bbbE"/><path d="M157-162l58 0" stroke-width="1.6" stroke="#005bbb10"/><path d="M34-165l-66-3" stroke-width="1.8" stroke="#c2e1ff15"/><path d="M116-228l17-65" stroke-width="1.8" stroke="#fff16"/><path d="M149-114l49 48" stroke-width="1.8" stroke="#fff17"/><path d="M51-109l-49 53" stroke-width="1.9" stroke="#fff1A"/><path d="M77-94l-23 69" stroke-width="1.9" stroke="#fff1A"/><path d="M69-93l-32 70" stroke-width="2.1" stroke="#005bbb1E"/><path d="M178-163l78-1" stroke-width="2.1" stroke="#005bbb1F"/><path d="M23-141l-76 21" stroke-width="2.2" stroke="#fff21"/><path d="M181-162l81 0" stroke-width="2.2" stroke="#005bbb22"/><path d="M177-134l76 28" stroke-width="2.3" stroke="#c2e1ff23"/><path d="M174-199l73-36" stroke-width="2.3" stroke="#fff23"/><path d="M132-87l32 76" stroke-width="2.3" stroke="#005bbb23"/><path d="M28-122l-73 40" stroke-width="2.3" stroke="#fff50024"/><path d="M17-148l-83 15" stroke-width="2.3" stroke="#fff25"/><path d="M22-129l-77 34" stroke-width="2.4" stroke="#005bbb26"/><path d="M15-168l-85-6" stroke-width="2.4" stroke="#005bbb27"/><path d="M83-78l-16 85" stroke-width="2.4" stroke="#c2e1ff28"/><path d="M39-99l-62 63" stroke-width="2.5" stroke="#c2e1ff2A"/><path d="M188-178l87-16" stroke-width="2.5" stroke="#fff5002B"/><path d="M15-189l-86-27" stroke-width="2.6" stroke="#fff5002C"/><path d="M41-230l-60-68" stroke-width="2.6" stroke="#fff2C"/><path d="M153-236l52-73" stroke-width="2.6" stroke="#c2e1ff2D"/><path d="M57-242l-43-79" stroke-width="2.6" stroke="#fff5002D"/><path d="M10-155l-90 8" stroke-width="2.6" stroke="#005bbb2D"/><path d="M97-253l-3-91" stroke-width="2.6" stroke="#fff2D"/><path d="M20-115l-80 47" stroke-width="2.7" stroke="#fff30"/><path d="M153-86l53 77" stroke-width="2.7" stroke="#005bbb30"/><path d="M28-222l-73-60" stroke-width="2.8" stroke="#005bbb32"/><path d="M49-243l-52-80" stroke-width="2.8" stroke="#c2e1ff34"/><path d="M185-207l84-44" stroke-width="2.8" stroke="#c2e1ff34"/><path d="M21-218l-78-55" stroke-width="2.9" stroke="#005bbb35"/><path d="M137-252l37-89" stroke-width="2.9" stroke="#fff50036"/><path d="M37-87l-62 75" stroke-width="3.0" stroke="#005bbb38"/><path d="M196-191l96-28" stroke-width="3.1" stroke="#005bbb3B"/><path d="M153-78l53 85" stroke-width="3.1" stroke="#005bbb3B"/><path d="M201-165l101-3" stroke-width="3.2" stroke="#fff3D"/><path d="M196-130l96 33" stroke-width="3.2" stroke="#fff5003E"/><path d="M8-205l-93-43" stroke-width="3.2" stroke="#fff3F"/><path d="M184-221l85-59" stroke-width="3.3" stroke="#fff40"/><path d="M199-133l99 30" stroke-width="3.3" stroke="#c2e1ff41"/><path d="M75-264l-26-102" stroke-width="3.4" stroke="#fff44"/><path d="M126-59l25 103" stroke-width="3.6" stroke="#fff50048"/><path d="M-3-195l-102-33" stroke-width="3.6" stroke="#fff4A"/><path d="M-7-147l-106 15" stroke-width="3.7" stroke="#c2e1ff4B"/><path d="M208-167l108-5" stroke-width="3.7" stroke="#005bbb4B"/><path d="M-8-142l-107 21" stroke-width="3.8" stroke="#fff5004F"/><path d="M24-241l-76-79" stroke-width="3.8" stroke="#c2e1ff50"/><path d="M127-56l27 107" stroke-width="3.9" stroke="#005bbb51"/><path d="M2-113l-99 50" stroke-width="3.9" stroke="#fff51"/><path d="M199-213l99-50" stroke-width="3.9" stroke="#fff53"/><path d="M94-51l-6 111" stroke-width="4.0" stroke="#fff50055"/><path d="M-12-167l-111-5" stroke-width="4.0" stroke="#005bbb56"/><path d="M202-209l101-46" stroke-width="4.0" stroke="#fff56"/><path d="M38-69l-61 93" stroke-width="4.1" stroke="#fff50056"/><path d="M159-257l60-95" stroke-width="4.1" stroke="#005bbb56"/><path d="M-8-192l-109-29" stroke-width="4.1" stroke="#fff50058"/><path d="M202-211l102-49" stroke-width="4.2" stroke="#fff5005A"/><path d="M149-60l49 103" stroke-width="4.3" stroke="#005bbb5C"/><path d="M211-138l111 25" stroke-width="4.3" stroke="#fff5005C"/><path d="M173-249l74-87" stroke-width="4.3" stroke="#fff5005C"/><path d="M206-119l107 43" stroke-width="4.4" stroke="#005bbb61"/><path d="M188-237l88-74" stroke-width="4.5" stroke="#fff63"/><path d="M-15-151l-114 11" stroke-width="4.5" stroke="#fff63"/><path d="M40-64l-60 99" stroke-width="4.6" stroke="#fff64"/><path d="M-14-184l-113-22" stroke-width="4.6" stroke="#005bbb65"/><path d="M135-52l34 111" stroke-width="4.6" stroke="#c2e1ff66"/><path d="M136-273l37-111" stroke-width="4.7" stroke="#c2e1ff69"/><path d="M217-160l116 2" stroke-width="4.8" stroke="#c2e1ff6B"/><path d="M198-225l99-63" stroke-width="4.8" stroke="#fff5006C"/><path d="M-13-190l-114-28" stroke-width="4.8" stroke="#c2e1ff6C"/><path d="M214-137l114 25" stroke-width="4.8" stroke="#fff6C"/><path d="M106-46l5 117" stroke-width="4.9" stroke="#005bbb6D"/><path d="M-17-175l-116-12" stroke-width="4.9" stroke="#fff5006F"/><path d="M173-70l73 92" stroke-width="5.0" stroke="#fff50072"/><path d="M158-60l59 102" stroke-width="5.1" stroke="#005bbb73"/><path d="M105-45l5 118" stroke-width="5.1" stroke="#fff50074"/><path d="M218-157l117 6" stroke-width="5.1" stroke="#fff75"/><path d="M67-49l-32 113" stroke-width="5.2" stroke="#fff50077"/><path d="M114-45l13 117" stroke-width="5.2" stroke="#fff78"/><path d="M168-66l68 96" stroke-width="5.3" stroke="#c2e1ff79"/><path d="M81-46l-20 116" stroke-width="5.3" stroke="#fff79"/><path d="M211-123l111 40" stroke-width="5.4" stroke="#c2e1ff7C"/><path d="M9-237l-92-75" stroke-width="5.4" stroke="#fff5007D"/><path d="M-5-216l-106-54" stroke-width="5.5" stroke="#c2e1ff7E"/><path d="M82-279l-18-117" stroke-width="5.5" stroke="#fff5007E"/><path d="M190-240l89-77" stroke-width="5.5" stroke="#005bbb7F"/><path d="M137-50l37 112" stroke-width="5.6" stroke="#fff82"/><path d="M208-210l108-48" stroke-width="5.7" stroke="#c2e1ff83"/><path d="M215-139l116 23" stroke-width="5.8" stroke="#fff50088"/><path d="M56-272l-44-109" stroke-width="5.9" stroke="#c2e1ff8A"/><path d="M131-276l31-113" stroke-width="6.0" stroke="#005bbb8C"/><path d="M201-102l101 60" stroke-width="6.0" stroke="#005bbb8C"/><path d="M211-124l110 39" stroke-width="6.1" stroke="#fff5008F"/><path d="M194-232l94-70" stroke-width="6.1" stroke="#fff8F"/><path d="M90-46l-9 117" stroke-width="6.1" stroke="#005bbb90"/><path d="M92-46l-8 117" stroke-width="6.2" stroke="#fff50092"/><path d="M-16-153l-116 10" stroke-width="6.2" stroke="#005bbb94"/><path d="M-4-111l-105 51" stroke-width="6.3" stroke="#fff95"/><path d="M-15-180l-114-18" stroke-width="6.4" stroke="#fff98"/><path d="M94-47l-7 116" stroke-width="6.4" stroke="#fff50099"/><path d="M169-256l68-93" stroke-width="6.4" stroke="#fff50099"/><path d="M44-262l-56-100" stroke-width="6.6" stroke="#c2e1ff9F"/><path d="M1-106l-99 57" stroke-width="6.7" stroke="#005bbbA0"/><path d="M213-148l113 15" stroke-width="6.7" stroke="#c2e1ffA0"/><path d="M205-119l105 44" stroke-width="6.7" stroke="#c2e1ffA1"/><path d="M198-107l99 56" stroke-width="6.8" stroke="#005bbbA4"/><path d="M139-268l40-106" stroke-width="6.8" stroke="#c2e1ffA5"/><path d="M165-71l65 91" stroke-width="6.9" stroke="#fff500A7"/><path d="M123-53l23 110" stroke-width="6.9" stroke="#fffA7"/><path d="M9-98l-91 65" stroke-width="6.9" stroke="#fff500A8"/><path d="M148-264l47-101" stroke-width="7.0" stroke="#c2e1ffA9"/><path d="M211-162l110 0" stroke-width="7.1" stroke="#c2e1ffAC"/><path d="M175-84l74 78" stroke-width="7.3" stroke="#fffB2"/><path d="M119-269l19-106" stroke-width="7.3" stroke="#fff500B3"/><path d="M24-239l-77-76" stroke-width="7.3" stroke="#c2e1ffB3"/><path d="M207-171l107-8" stroke-width="7.4" stroke="#005bbbB4"/><path d="M4-209l-96-47" stroke-width="7.4" stroke="#fffB6"/><path d="M23-89l-76 74" stroke-width="7.5" stroke="#c2e1ffB6"/><path d="M6-211l-95-48" stroke-width="7.5" stroke="#005bbbB7"/><path d="M93-57l-8 105" stroke-width="7.5" stroke="#fff500B8"/><path d="M59-259l-41-97" stroke-width="7.6" stroke="#fffB9"/><path d="M198-199l97-37" stroke-width="7.6" stroke="#005bbbBB"/><path d="M161-245l62-83" stroke-width="7.7" stroke="#fffBE"/><path d="M5-200l-95-38" stroke-width="7.7" stroke="#fff500BF"/><path d="M113-61l13 102" stroke-width="7.7" stroke="#c2e1ffBF"/><path d="M194-123l94 40" stroke-width="7.8" stroke="#fffBF"/><path d="M200-182l99-19" stroke-width="7.8" stroke="#fff500C0"/><path d="M10-119l-90 44" stroke-width="7.9" stroke="#005bbbC3"/><path d="M162-241l61-78" stroke-width="7.9" stroke="#fff500C4"/><path d="M135-70l35 93" stroke-width="7.9" stroke="#005bbbC4"/><path d="M6-134l-95 29" stroke-width="8.0" stroke="#fff500C5"/><path d="M12-119l-87 43" stroke-width="8.0" stroke="#005bbbC7"/><path d="M178-104l79 58" stroke-width="8.0" stroke="#005bbbC7"/><path d="M50-79l-49 84" stroke-width="8.1" stroke="#c2e1ffC7"/><path d="M80-257l-20-95" stroke-width="8.1" stroke="#005bbbC8"/><path d="M177-219l76-56" stroke-width="8.2" stroke="#fffCB"/><path d="M6-147l-93 15" stroke-width="8.2" stroke="#005bbbCB"/><path d="M163-92l63 71" stroke-width="8.2" stroke="#c2e1ffCB"/><path d="M37-233l-63-70" stroke-width="8.2" stroke="#005bbbCC"/><path d="M54-245l-45-83" stroke-width="8.2" stroke="#fff500CC"/><path d="M95-255l-5-92" stroke-width="8.3" stroke="#fffCE"/><path d="M189-140l89 22" stroke-width="8.3" stroke="#fff500CF"/><path d="M24-111l-76 52" stroke-width="8.3" stroke="#c2e1ffCF"/><path d="M63-79l-37 84" stroke-width="8.3" stroke="#c2e1ffD0"/><path d="M95-253l-6-91" stroke-width="8.4" stroke="#c2e1ffD0"/><path d="M181-204l81-41" stroke-width="8.4" stroke="#005bbbD1"/><path d="M123-249l22-87" stroke-width="8.4" stroke="#fffD2"/><path d="M81-249l-20-87" stroke-width="8.5" stroke="#fffD3"/><path d="M21-128l-80 34" stroke-width="8.6" stroke="#fff500D6"/><path d="M68-241l-32-79" stroke-width="8.6" stroke="#005bbbD8"/><path d="M26-203l-74-41" stroke-width="8.6" stroke="#005bbbD8"/><path d="M116-244l16-82" stroke-width="8.7" stroke="#c2e1ffDA"/><path d="M136-236l36-74" stroke-width="8.7" stroke="#005bbbDB"/><path d="M161-109l62 54" stroke-width="8.7" stroke="#c2e1ffDB"/><path d="M165-114l66 48" stroke-width="8.8" stroke="#fffDC"/><path d="M132-233l32-70" stroke-width="8.9" stroke="#c2e1ffE0"/><path d="M172-155l72 7" stroke-width="9.1" stroke="#c2e1ffE4"/><path d="M35-194l-64-31" stroke-width="9.1" stroke="#fff500E4"/><path d="M30-146l-70 17" stroke-width="9.1" stroke="#fffE4"/><path d="M135-223l34-61" stroke-width="9.1" stroke="#c2e1ffE6"/><path d="M156-202l56-39" stroke-width="9.2" stroke="#fffE7"/><path d="M129-224l29-61" stroke-width="9.2" stroke="#fff500E7"/><path d="M117-97l17 65" stroke-width="9.2" stroke="#fffE8"/><path d="M41-194l-60-31" stroke-width="9.2" stroke="#fff500E8"/><path d="M38-152l-63 11" stroke-width="9.3" stroke="#005bbbEB"/><path d="M122-108l22 54" stroke-width="9.4" stroke="#fff500EE"/><path d="M126-209l26-46" stroke-width="9.5" stroke="#005bbbF1"/><path d="M133-187l33-25" stroke-width="9.7" stroke="#c2e1ffF6"/><path d="M63-168l-37-5" stroke-width="9.8" stroke="#fff500F8"/><path d="M84-178l-15-15" stroke-width="9.9" stroke="#005bbbFC"/></g></svg>