<svg width="1200" height="675" viewBox="-500 -500 1200 675" xmlns="http://www.w3.org/2000/svg"><path d="M-500-500h1200v675h-1200z" fill="#000"/><style>.sparkles path{stroke-linecap:round}</style><g class="sparkles"><path d="M120-178l19-15" stroke-width="1.1" stroke="#c2e1ff2"/><path d="M88-185l-12-23" stroke-width="1.1" stroke="#fff3"/><path d="M81-138l-19 24" stroke-width="1.2" stroke="#c2e1ff4"/><path d="M87-192l-12-30" stroke-width="1.2" stroke="#fff4"/><path d="M133-157l32 5" stroke-width="1.2" stroke="#fff5005"/><path d="M113-199l14-36" stroke-width="1.2" stroke="#005bbb7"/><path d="M138-175l37-12" stroke-width="1.3" stroke="#fff7"/><path d="M98-203l-3-40" stroke-width="1.3" stroke="#fff5007"/><path d="M127-125l26 38" stroke-width="1.4" stroke="#fffA"/><path d="M104-209l3-47" stroke-width="1.4" stroke="#fff500A"/><path d="M144-185l45-22" stroke-width="1.4" stroke="#fffB"/><path d="M95-112l-5 50" stroke-width="1.4" stroke="#005bbbC"/><path d="M76-207l-24-45" stroke-width="1.4" stroke="#fffC"/><path d="M67-206l-34-43" stroke-width="1.5" stroke="#fff500E"/><path d="M48-140l-51 22" stroke-width="1.5" stroke="#fffF"/><path d="M43-159l-58 3" stroke-width="1.6" stroke="#fff10"/><path d="M41-153l-59 9" stroke-width="1.6" stroke="#005bbb11"/><path d="M37-159l-64 3" stroke-width="1.7" stroke="#005bbb14"/><path d="M58-110l-41 53" stroke-width="1.8" stroke="#005bbb16"/><path d="M163-135l63 27" stroke-width="1.8" stroke="#c2e1ff17"/><path d="M73-99l-26 64" stroke-width="1.9" stroke="#005bbb18"/><path d="M109-235l8-72" stroke-width="2.0" stroke="#fff1B"/><path d="M168-188l69-25" stroke-width="2.0" stroke="#c2e1ff1B"/><path d="M79-91l-21 71" stroke-width="2.0" stroke="#c2e1ff1C"/><path d="M55-102l-46 60" stroke-width="2.0" stroke="#fff1D"/><path d="M114-87l15 75" stroke-width="2.1" stroke="#fff5001E"/><path d="M31-125l-69 37" stroke-width="2.1" stroke="#005bbb1F"/><path d="M150-100l50 62" stroke-width="2.2" stroke="#fff21"/><path d="M22-136l-77 26" stroke-width="2.3" stroke="#c2e1ff23"/><path d="M89-81l-11 82" stroke-width="2.3" stroke="#fff50024"/><path d="M175-200l74-37" stroke-width="2.3" stroke="#c2e1ff25"/><path d="M87-79l-12 83" stroke-width="2.3" stroke="#fff50026"/><path d="M165-108l66 55" stroke-width="2.4" stroke="#005bbb27"/><path d="M180-128l80 34" stroke-width="2.5" stroke="#fff29"/><path d="M169-109l69 53" stroke-width="2.5" stroke="#fff29"/><path d="M12-165l-87-2" stroke-width="2.5" stroke="#fff5002A"/><path d="M68-81l-32 82" stroke-width="2.5" stroke="#fff5002A"/><path d="M87-250l-14-87" stroke-width="2.5" stroke="#fff5002A"/><path d="M145-85l45 77" stroke-width="2.6" stroke="#fff2C"/><path d="M52-238l-48-76" stroke-width="2.6" stroke="#c2e1ff2C"/><path d="M92-254l-8-92" stroke-width="2.7" stroke="#fff5002F"/><path d="M38-94l-62 69" stroke-width="2.7" stroke="#fff2F"/><path d="M192-172l92-10" stroke-width="2.7" stroke="#005bbb30"/><path d="M123-72l23 91" stroke-width="2.8" stroke="#fff32"/><path d="M126-71l26 91" stroke-width="2.8" stroke="#c2e1ff33"/><path d="M4-151l-96 12" stroke-width="2.9" stroke="#005bbb36"/><path d="M45-82l-56 81" stroke-width="3.0" stroke="#fff38"/><path d="M94-262l-6-100" stroke-width="3.1" stroke="#fff3B"/><path d="M200-160l100 2" stroke-width="3.1" stroke="#fff5003B"/><path d="M143-70l43 92" stroke-width="3.2" stroke="#fff5003E"/><path d="M14-217l-86-54" stroke-width="3.2" stroke="#fff5003E"/><path d="M166-85l67 77" stroke-width="3.2" stroke="#fff5003E"/><path d="M159-78l58 84" stroke-width="3.3" stroke="#fff50040"/><path d="M201-133l100 29" stroke-width="3.4" stroke="#fff50044"/><path d="M199-199l98-36" stroke-width="3.5" stroke="#005bbb45"/><path d="M135-262l35-99" stroke-width="3.5" stroke="#005bbb45"/><path d="M191-109l91 53" stroke-width="3.5" stroke="#c2e1ff46"/><path d="M193-213l93-50" stroke-width="3.5" stroke="#c2e1ff46"/><path d="M-3-188l-103-25" stroke-width="3.5" stroke="#fff50047"/><path d="M140-261l41-98" stroke-width="3.5" stroke="#c2e1ff47"/><path d="M206-146l105 17" stroke-width="3.6" stroke="#fff50049"/><path d="M185-97l84 66" stroke-width="3.6" stroke="#c2e1ff4A"/><path d="M187-225l88-63" stroke-width="3.6" stroke="#fff4A"/><path d="M182-91l81 72" stroke-width="3.7" stroke="#c2e1ff4D"/><path d="M186-96l87 66" stroke-width="3.8" stroke="#fff5004E"/><path d="M122-55l23 107" stroke-width="3.8" stroke="#fff50050"/><path d="M42-68l-59 94" stroke-width="4.0" stroke="#005bbb53"/><path d="M177-83l77 80" stroke-width="4.0" stroke="#fff50054"/><path d="M136-57l37 105" stroke-width="4.0" stroke="#005bbb54"/><path d="M-11-174l-111-12" stroke-width="4.0" stroke="#005bbb56"/><path d="M211-177l112-15" stroke-width="4.1" stroke="#c2e1ff58"/><path d="M183-87l83 76" stroke-width="4.1" stroke="#005bbb58"/><path d="M38-257l-63-94" stroke-width="4.2" stroke="#fff50059"/><path d="M118-50l19 112" stroke-width="4.3" stroke="#fff5C"/><path d="M-4-117l-105 45" stroke-width="4.3" stroke="#fff5D"/><path d="M58-57l-43 106" stroke-width="4.3" stroke="#fff5E"/><path d="M130-273l29-110" stroke-width="4.4" stroke="#c2e1ff5F"/><path d="M61-270l-39-108" stroke-width="4.4" stroke="#fff60"/><path d="M23-248l-76-85" stroke-width="4.4" stroke="#c2e1ff60"/><path d="M5-98l-95 65" stroke-width="4.4" stroke="#c2e1ff61"/><path d="M5-227l-94-65" stroke-width="4.4" stroke="#c2e1ff61"/><path d="M-12-136l-112 27" stroke-width="4.5" stroke="#005bbb64"/><path d="M205-211l105-49" stroke-width="4.6" stroke="#fff50065"/><path d="M-5-114l-106 48" stroke-width="4.7" stroke="#fff50067"/><path d="M2-100l-98 62" stroke-width="4.7" stroke="#fff68"/><path d="M41-62l-59 100" stroke-width="4.7" stroke="#fff69"/><path d="M145-54l45 108" stroke-width="5.0" stroke="#c2e1ff71"/><path d="M161-263l61-100" stroke-width="5.0" stroke="#fff50072"/><path d="M117-279l17-116" stroke-width="5.1" stroke="#c2e1ff72"/><path d="M87-46l-14 117" stroke-width="5.1" stroke="#005bbb73"/><path d="M210-205l110-42" stroke-width="5.1" stroke="#c2e1ff75"/><path d="M165-260l66-98" stroke-width="5.1" stroke="#c2e1ff75"/><path d="M191-237l92-74" stroke-width="5.2" stroke="#c2e1ff75"/><path d="M-17-151l-118 12" stroke-width="5.2" stroke="#005bbb77"/><path d="M65-50l-35 113" stroke-width="5.3" stroke="#fff79"/><path d="M153-57l53 106" stroke-width="5.3" stroke="#c2e1ff7A"/><path d="M8-89l-93 74" stroke-width="5.4" stroke="#c2e1ff7C"/><path d="M210-121l111 42" stroke-width="5.4" stroke="#fff7C"/><path d="M28-256l-72-94" stroke-width="5.4" stroke="#fff7D"/><path d="M31-67l-69 96" stroke-width="5.4" stroke="#fff5007D"/><path d="M169-67l69 96" stroke-width="5.6" stroke="#fff81"/><path d="M192-236l92-74" stroke-width="5.6" stroke="#fff50081"/><path d="M207-112l107 50" stroke-width="5.6" stroke="#fff83"/><path d="M183-78l82 84" stroke-width="5.7" stroke="#005bbb84"/><path d="M-15-187l-116-25" stroke-width="5.7" stroke="#005bbb85"/><path d="M28-256l-71-94" stroke-width="5.7" stroke="#fff50085"/><path d="M207-114l108 49" stroke-width="5.7" stroke="#c2e1ff86"/><path d="M-18-166l-118-4" stroke-width="5.8" stroke="#fff86"/><path d="M206-215l105-52" stroke-width="5.8" stroke="#fff88"/><path d="M96-45l-3 118" stroke-width="5.8" stroke="#fff50088"/><path d="M185-244l86-81" stroke-width="5.8" stroke="#fff88"/><path d="M27-255l-74-92" stroke-width="5.9" stroke="#005bbb89"/><path d="M128-277l27-114" stroke-width="5.9" stroke="#005bbb8B"/><path d="M18-246l-83-84" stroke-width="6.0" stroke="#fff8C"/><path d="M191-88l90 74" stroke-width="6.0" stroke="#fff8E"/><path d="M98-45l-3 117" stroke-width="6.1" stroke="#fff90"/><path d="M188-88l88 75" stroke-width="6.4" stroke="#fff50099"/><path d="M210-198l110-35" stroke-width="6.4" stroke="#c2e1ff9A"/><path d="M193-95l92 68" stroke-width="6.5" stroke="#c2e1ff9D"/><path d="M18-83l-83 80" stroke-width="6.6" stroke="#fff9D"/><path d="M197-220l98-57" stroke-width="6.8" stroke="#fffA4"/><path d="M1-109l-99 54" stroke-width="6.8" stroke="#fffA5"/><path d="M210-185l110-23" stroke-width="6.9" stroke="#fff500A6"/><path d="M116-51l17 111" stroke-width="6.9" stroke="#fff500A6"/><path d="M-7-127l-106 35" stroke-width="6.9" stroke="#fff500A7"/><path d="M29-75l-70 87" stroke-width="6.9" stroke="#fffA7"/><path d="M173-78l74 84" stroke-width="7.0" stroke="#fffA9"/><path d="M121-272l22-109" stroke-width="7.0" stroke="#c2e1ffA9"/><path d="M-9-149l-110 14" stroke-width="7.1" stroke="#fff500AD"/><path d="M-7-178l-107-15" stroke-width="7.3" stroke="#fff500B3"/><path d="M196-210l97-47" stroke-width="7.4" stroke="#fff500B5"/><path d="M203-190l102-28" stroke-width="7.5" stroke="#c2e1ffB7"/><path d="M123-60l22 102" stroke-width="7.6" stroke="#005bbbBA"/><path d="M16-225l-84-63" stroke-width="7.6" stroke="#fffBA"/><path d="M50-253l-51-91" stroke-width="7.6" stroke="#c2e1ffBC"/><path d="M25-233l-75-71" stroke-width="7.7" stroke="#005bbbBE"/><path d="M122-261l22-99" stroke-width="7.8" stroke="#fff500C1"/><path d="M122-64l22 98" stroke-width="7.9" stroke="#c2e1ffC2"/><path d="M196-140l97 22" stroke-width="8.0" stroke="#fffC5"/><path d="M52-248l-49-86" stroke-width="8.0" stroke="#c2e1ffC6"/><path d="M96-64l-4 98" stroke-width="8.0" stroke="#fff500C6"/><path d="M16-112l-83 50" stroke-width="8.0" stroke="#c2e1ffC7"/><path d="M117-258l17-96" stroke-width="8.0" stroke="#fffC7"/><path d="M23-221l-76-58" stroke-width="8.1" stroke="#c2e1ffC9"/><path d="M6-163l-94-1" stroke-width="8.2" stroke="#fff500CC"/><path d="M190-135l89 28" stroke-width="8.2" stroke="#fff500CC"/><path d="M85-72l-16 90" stroke-width="8.3" stroke="#fffD0"/><path d="M12-138l-88 25" stroke-width="8.4" stroke="#fffD0"/><path d="M190-162l90 0" stroke-width="8.4" stroke="#c2e1ffD1"/><path d="M129-78l30 84" stroke-width="8.4" stroke="#c2e1ffD3"/><path d="M19-197l-81-35" stroke-width="8.5" stroke="#c2e1ffD4"/><path d="M173-208l73-46" stroke-width="8.6" stroke="#c2e1ffD6"/><path d="M183-176l84-13" stroke-width="8.6" stroke="#fffD8"/><path d="M155-99l56 64" stroke-width="8.7" stroke="#fff500D8"/><path d="M40-104l-61 59" stroke-width="8.7" stroke="#005bbbD8"/><path d="M153-98l52 65" stroke-width="8.7" stroke="#fff500D9"/><path d="M17-174l-82-11" stroke-width="8.7" stroke="#fff500D9"/><path d="M179-186l80-24" stroke-width="8.7" stroke="#c2e1ffDA"/><path d="M164-209l64-47" stroke-width="8.8" stroke="#c2e1ffDD"/><path d="M174-144l73 19" stroke-width="8.9" stroke="#005bbbE1"/><path d="M79-235l-20-73" stroke-width="9.0" stroke="#c2e1ffE1"/><path d="M148-219l47-57" stroke-width="9.0" stroke="#c2e1ffE2"/><path d="M43-115l-56 47" stroke-width="9.0" stroke="#005bbbE2"/><path d="M101-236l2-73" stroke-width="9.0" stroke="#fffE3"/><path d="M39-133l-60 29" stroke-width="9.2" stroke="#005bbbE8"/><path d="M105-228l5-65" stroke-width="9.2" stroke="#fff500E9"/><path d="M88-225l-13-63" stroke-width="9.3" stroke="#005bbbEA"/><path d="M162-149l61 13" stroke-width="9.3" stroke="#005bbbEB"/><path d="M67-213l-32-50" stroke-width="9.4" stroke="#fffED"/><path d="M65-211l-34-49" stroke-width="9.4" stroke="#fff500ED"/><path d="M42-163l-59 0" stroke-width="9.4" stroke="#fffEE"/><path d="M152-139l53 23" stroke-width="9.4" stroke="#005bbbEF"/><path d="M125-112l24 50" stroke-width="9.5" stroke="#005bbbEF"/><path d="M128-115l28 48" stroke-width="9.5" stroke="#c2e1ffF0"/><path d="M96-113l-5 49" stroke-width="9.6" stroke="#c2e1ffF3"/><path d="M115-207l15-45" stroke-width="9.6" stroke="#c2e1ffF4"/><path d="M81-120l-19 43" stroke-width="9.6" stroke="#005bbbF4"/><path d="M99-124l-1 39" stroke-width="9.7" stroke="#fff500F7"/><path d="M80-141l-21 21" stroke-width="9.9" stroke="#fffFA"/><path d="M80-173l-20-10" stroke-width="9.9" stroke="#005bbbFC"/><path d="M80-170l-19-7" stroke-width="9.9" stroke="#fff500FC"/></g></svg>