<svg width="1200" height="675" viewBox="-500 -500 1200 675" xmlns="http://www.w3.org/2000/svg"><path d="M-500-500h1200v675h-1200z" fill="#000"/><style>.sparkles path{stroke-linecap:round}</style><g class="sparkles"><path d="M86-172l-13-9" stroke-width="1.0" stroke="#f4a2611"/><path d="M103-179l2-17" stroke-width="1.0" stroke="#e76f511"/><path d="M65-194l-35-32" stroke-width="1.4" stroke="#264653A"/><path d="M86-116l-14 47" stroke-width="1.4" stroke="#e9c46aB"/><path d="M45-170l-55-7" stroke-width="1.5" stroke="#264653E"/><path d="M125-105l24 58" stroke-width="1.7" stroke="#e76f5113"/><path d="M36-182l-64-19" stroke-width="1.8" stroke="#26465316"/><path d="M110-229l10-67" stroke-width="1.8" stroke="#e76f5116"/><path d="M31-163l-69 0" stroke-width="1.8" stroke="#e76f5117"/><path d="M169-172l68-9" stroke-width="1.9" stroke="#2a9d8f18"/><path d="M52-220l-47-58" stroke-width="2.0" stroke="#e76f511C"/><path d="M169-197l68-34" stroke-width="2.1" stroke="#2646531E"/><path d="M28-130l-71 32" stroke-width="2.1" stroke="#e9c46a20"/><path d="M24-140l-76 23" stroke-width="2.2" stroke="#26465321"/><path d="M52-229l-49-66" stroke-width="2.3" stroke="#26465323"/><path d="M39-218l-62-55" stroke-width="2.3" stroke="#f4a26124"/><path d="M33-211l-67-49" stroke-width="2.3" stroke="#26465324"/><path d="M94-246l-7-84" stroke-width="2.3" stroke="#e9c46a25"/><path d="M20-191l-79-28" stroke-width="2.4" stroke="#2a9d8f26"/><path d="M178-127l78 35" stroke-width="2.4" stroke="#2a9d8f27"/><path d="M22-203l-78-41" stroke-width="2.5" stroke="#2646532A"/><path d="M52-89l-49 74" stroke-width="2.5" stroke="#e76f512A"/><path d="M27-112l-73 50" stroke-width="2.5" stroke="#2a9d8f2B"/><path d="M108-74l8 89" stroke-width="2.5" stroke="#2a9d8f2B"/><path d="M17-127l-82 35" stroke-width="2.6" stroke="#2a9d8f2C"/><path d="M140-245l39-82" stroke-width="2.6" stroke="#f4a2612E"/><path d="M122-74l22 89" stroke-width="2.7" stroke="#f4a2612F"/><path d="M46-87l-54 76" stroke-width="2.7" stroke="#e76f5130"/><path d="M137-249l36-86" stroke-width="2.8" stroke="#e9c46a31"/><path d="M6-174l-93-12" stroke-width="2.8" stroke="#2a9d8f32"/><path d="M176-105l76 58" stroke-width="2.8" stroke="#e9c46a34"/><path d="M197-143l96 19" stroke-width="3.0" stroke="#e76f5139"/><path d="M15-214l-84-52" stroke-width="3.1" stroke="#2646533A"/><path d="M175-96l75 66" stroke-width="3.1" stroke="#e9c46a3B"/><path d="M25-229l-75-67" stroke-width="3.1" stroke="#e9c46a3C"/><path d="M175-230l75-68" stroke-width="3.2" stroke="#2646533D"/><path d="M201-162l101 0" stroke-width="3.2" stroke="#2a9d8f3D"/><path d="M29-90l-71 72" stroke-width="3.2" stroke="#2646533D"/><path d="M52-253l-49-90" stroke-width="3.3" stroke="#f4a26140"/><path d="M-2-157l-103 6" stroke-width="3.3" stroke="#e9c46a40"/><path d="M187-107l88 56" stroke-width="3.3" stroke="#26465342"/><path d="M41-249l-58-87" stroke-width="3.4" stroke="#26465344"/><path d="M59-259l-41-97" stroke-width="3.4" stroke="#f4a26144"/><path d="M2-205l-97-43" stroke-width="3.6" stroke="#f4a26148"/><path d="M78-267l-21-105" stroke-width="3.6" stroke="#e9c46a49"/><path d="M15-228l-85-65" stroke-width="3.6" stroke="#e76f5149"/><path d="M181-92l81 71" stroke-width="3.6" stroke="#e9c46a4A"/><path d="M-8-156l-108 7" stroke-width="3.7" stroke="#f4a2614C"/><path d="M-5-133l-104 30" stroke-width="3.7" stroke="#e76f514D"/><path d="M120-55l21 107" stroke-width="3.8" stroke="#2a9d8f4E"/><path d="M-9-155l-109 8" stroke-width="3.8" stroke="#2646534E"/><path d="M144-60l43 102" stroke-width="4.0" stroke="#e76f5154"/><path d="M211-152l111 10" stroke-width="4.0" stroke="#e9c46a55"/><path d="M210-146l111 17" stroke-width="4.0" stroke="#2a9d8f55"/><path d="M25-80l-76 83" stroke-width="4.1" stroke="#e9c46a57"/><path d="M26-250l-73-87" stroke-width="4.3" stroke="#e9c46a5E"/><path d="M-8-126l-108 36" stroke-width="4.3" stroke="#2a9d8f5E"/><path d="M98-277l-2-114" stroke-width="4.3" stroke="#f4a2615E"/><path d="M-14-170l-114-7" stroke-width="4.4" stroke="#2646535F"/><path d="M188-235l88-73" stroke-width="4.4" stroke="#f4a2615F"/><path d="M214-180l113-17" stroke-width="4.4" stroke="#f4a26161"/><path d="M215-162l115 0" stroke-width="4.5" stroke="#e9c46a62"/><path d="M99-278l-1-115" stroke-width="4.5" stroke="#2a9d8f63"/><path d="M103-278l3-115" stroke-width="4.5" stroke="#f4a26163"/><path d="M38-260l-61-98" stroke-width="4.6" stroke="#e76f5164"/><path d="M144-270l44-107" stroke-width="4.6" stroke="#26465366"/><path d="M194-230l94-68" stroke-width="4.6" stroke="#e76f5167"/><path d="M4-97l-96 65" stroke-width="4.7" stroke="#f4a26168"/><path d="M88-278l-11-116" stroke-width="4.8" stroke="#e76f516A"/><path d="M108-46l9 116" stroke-width="4.8" stroke="#2a9d8f6A"/><path d="M191-90l92 73" stroke-width="4.8" stroke="#e76f516C"/><path d="M188-85l88 77" stroke-width="4.9" stroke="#e9c46a6E"/><path d="M-15-140l-115 23" stroke-width="4.9" stroke="#e76f516F"/><path d="M30-68l-69 94" stroke-width="5.0" stroke="#e9c46a70"/><path d="M37-261l-63-99" stroke-width="5.0" stroke="#26465371"/><path d="M-17-177l-116-14" stroke-width="5.1" stroke="#e9c46a72"/><path d="M42-265l-58-102" stroke-width="5.2" stroke="#26465375"/><path d="M141-273l40-111" stroke-width="5.2" stroke="#e76f5176"/><path d="M33-65l-67 97" stroke-width="5.5" stroke="#e9c46a80"/><path d="M110-45l10 118" stroke-width="5.6" stroke="#26465381"/><path d="M214-195l113-32" stroke-width="5.6" stroke="#2a9d8f81"/><path d="M9-88l-91 75" stroke-width="5.7" stroke="#26465384"/><path d="M192-237l92-74" stroke-width="5.7" stroke="#2a9d8f84"/><path d="M190-86l90 76" stroke-width="5.7" stroke="#f4a26186"/><path d="M186-82l87 80" stroke-width="5.8" stroke="#e76f5187"/><path d="M38-263l-63-100" stroke-width="5.8" stroke="#26465387"/><path d="M200-225l100-62" stroke-width="5.8" stroke="#2a9d8f87"/><path d="M73-48l-28 115" stroke-width="5.8" stroke="#26465387"/><path d="M1-98l-98 65" stroke-width="5.8" stroke="#2a9d8f88"/><path d="M216-184l115-22" stroke-width="5.9" stroke="#e9c46a8B"/><path d="M14-83l-87 80" stroke-width="6.0" stroke="#f4a2618D"/><path d="M104-45l5 117" stroke-width="6.0" stroke="#e9c46a8D"/><path d="M125-277l24-115" stroke-width="6.0" stroke="#e76f518E"/><path d="M33-259l-66-96" stroke-width="6.1" stroke="#26465390"/><path d="M37-64l-62 99" stroke-width="6.1" stroke="#26465391"/><path d="M148-56l49 106" stroke-width="6.2" stroke="#e76f5193"/><path d="M207-116l107 46" stroke-width="6.2" stroke="#2a9d8f93"/><path d="M69-51l-31 112" stroke-width="6.3" stroke="#f4a26196"/><path d="M117-277l17-115" stroke-width="6.3" stroke="#f4a26197"/><path d="M98-278l-2-116" stroke-width="6.4" stroke="#2a9d8f98"/><path d="M-7-207l-107-44" stroke-width="6.4" stroke="#26465398"/><path d="M-12-134l-112 28" stroke-width="6.4" stroke="#26465399"/><path d="M22-248l-77-85" stroke-width="6.5" stroke="#f4a2619B"/><path d="M14-239l-86-76" stroke-width="6.5" stroke="#f4a2619C"/><path d="M214-176l114-14" stroke-width="6.6" stroke="#2a9d8f9D"/><path d="M27-250l-74-88" stroke-width="6.6" stroke="#2646539F"/><path d="M88-276l-13-113" stroke-width="6.7" stroke="#e9c46aA1"/><path d="M206-124l107 39" stroke-width="6.8" stroke="#f4a261A3"/><path d="M177-245l77-83" stroke-width="6.8" stroke="#2a9d8fA4"/><path d="M149-62l48 101" stroke-width="6.9" stroke="#f4a261A7"/><path d="M12-93l-88 69" stroke-width="6.9" stroke="#e9c46aA8"/><path d="M44-66l-56 96" stroke-width="7.0" stroke="#264653A9"/><path d="M147-263l47-101" stroke-width="7.0" stroke="#264653AB"/><path d="M-5-126l-104 36" stroke-width="7.1" stroke="#264653AB"/><path d="M62-266l-39-103" stroke-width="7.1" stroke="#e9c46aAC"/><path d="M50-260l-50-98" stroke-width="7.2" stroke="#264653AE"/><path d="M-5-185l-105-23" stroke-width="7.4" stroke="#e76f51B4"/><path d="M-5-140l-105 23" stroke-width="7.4" stroke="#264653B4"/><path d="M145-66l44 97" stroke-width="7.4" stroke="#e9c46aB6"/><path d="M164-248l63-85" stroke-width="7.5" stroke="#e9c46aB7"/><path d="M76-59l-23 103" stroke-width="7.5" stroke="#e9c46aB8"/><path d="M29-85l-72 77" stroke-width="7.6" stroke="#e9c46aB9"/><path d="M139-259l40-97" stroke-width="7.6" stroke="#264653BA"/><path d="M201-188l102-25" stroke-width="7.6" stroke="#264653BB"/><path d="M-4-151l-104 11" stroke-width="7.6" stroke="#2a9d8fBB"/><path d="M155-251l54-88" stroke-width="7.6" stroke="#e76f51BC"/><path d="M203-154l104 9" stroke-width="7.7" stroke="#2a9d8fBC"/><path d="M203-157l103 5" stroke-width="7.7" stroke="#f4a261BD"/><path d="M34-84l-66 78" stroke-width="7.7" stroke="#2a9d8fBF"/><path d="M124-262l23-99" stroke-width="7.8" stroke="#264653C0"/><path d="M8-121l-93 41" stroke-width="7.8" stroke="#264653C1"/><path d="M188-212l87-50" stroke-width="7.8" stroke="#f4a261C1"/><path d="M120-64l19 99" stroke-width="7.8" stroke="#f4a261C2"/><path d="M35-86l-65 77" stroke-width="7.9" stroke="#2a9d8fC2"/><path d="M138-254l39-92" stroke-width="7.9" stroke="#e76f51C4"/><path d="M88-67l-11 96" stroke-width="8.1" stroke="#2a9d8fC9"/><path d="M177-217l77-55" stroke-width="8.2" stroke="#e76f51CC"/><path d="M189-143l89 20" stroke-width="8.4" stroke="#e76f51D0"/><path d="M188-183l89-21" stroke-width="8.4" stroke="#e76f51D1"/><path d="M120-75l20 87" stroke-width="8.4" stroke="#2a9d8fD2"/><path d="M36-100l-64 62" stroke-width="8.4" stroke="#e76f51D2"/><path d="M187-177l88-14" stroke-width="8.5" stroke="#e76f51D3"/><path d="M21-122l-79 40" stroke-width="8.5" stroke="#f4a261D3"/><path d="M182-195l82-33" stroke-width="8.5" stroke="#e76f51D4"/><path d="M28-212l-71-50" stroke-width="8.5" stroke="#e76f51D5"/><path d="M181-189l81-27" stroke-width="8.6" stroke="#f4a261D7"/><path d="M91-247l-9-84" stroke-width="8.6" stroke="#2a9d8fD8"/><path d="M82-245l-19-82" stroke-width="8.7" stroke="#f4a261D8"/><path d="M82-245l-19-82" stroke-width="8.7" stroke="#2a9d8fD9"/><path d="M181-147l82 15" stroke-width="8.7" stroke="#f4a261DA"/><path d="M171-120l71 43" stroke-width="8.7" stroke="#f4a261DA"/><path d="M23-190l-78-27" stroke-width="8.7" stroke="#e76f51DB"/><path d="M156-222l56-59" stroke-width="8.8" stroke="#e76f51DB"/><path d="M22-143l-78 20" stroke-width="8.8" stroke="#e9c46aDC"/><path d="M163-212l62-50" stroke-width="8.8" stroke="#e76f51DD"/><path d="M177-175l77-13" stroke-width="8.9" stroke="#f4a261DE"/><path d="M22-155l-78 7" stroke-width="8.9" stroke="#e76f51DE"/><path d="M42-213l-58-51" stroke-width="8.9" stroke="#e76f51E0"/><path d="M77-235l-23-72" stroke-width="8.9" stroke="#264653E1"/><path d="M103-238l4-76" stroke-width="9.0" stroke="#f4a261E1"/><path d="M162-205l63-42" stroke-width="9.0" stroke="#264653E1"/><path d="M139-226l40-63" stroke-width="9.0" stroke="#2a9d8fE2"/><path d="M173-148l73 14" stroke-width="9.0" stroke="#e76f51E2"/><path d="M28-151l-71 11" stroke-width="9.0" stroke="#f4a261E4"/><path d="M166-188l67-25" stroke-width="9.1" stroke="#264653E5"/><path d="M33-164l-68-2" stroke-width="9.2" stroke="#264653E8"/><path d="M147-210l47-48" stroke-width="9.2" stroke="#264653E8"/><path d="M34-168l-67-6" stroke-width="9.2" stroke="#e76f51E8"/><path d="M129-103l28 60" stroke-width="9.2" stroke="#f4a261E8"/><path d="M124-101l23 61" stroke-width="9.2" stroke="#2a9d8fE9"/><path d="M152-127l52 36" stroke-width="9.3" stroke="#2a9d8fEB"/><path d="M64-203l-36-40" stroke-width="9.5" stroke="#f4a261F0"/><path d="M151-146l51 16" stroke-width="9.5" stroke="#2a9d8fF1"/><path d="M90-112l-11 50" stroke-width="9.6" stroke="#f4a261F2"/><path d="M87-115l-13 48" stroke-width="9.6" stroke="#f4a261F3"/><path d="M117-126l17 37" stroke-width="9.7" stroke="#e76f51F7"/><path d="M108-125l7 38" stroke-width="9.8" stroke="#f4a261F8"/><path d="M101-195l1-33" stroke-width="9.8" stroke="#264653F9"/><path d="M99-140l-1 23" stroke-width="9.9" stroke="#f4a261FC"/><path d="M93-169l-7-6" stroke-width="10.0" stroke="#e9c46aFE"/><path d="M94-168l-5-5" stroke-width="10.0" stroke="#e9c46aFE"/></g></svg>