<svg width="1200" height="675" viewBox="-500 -500 1200 675" xmlns="http://www.w3.org/2000/svg"><path d="M-500-500h1200v675h-1200z" fill="#000"/><style>.sparkles path{stroke-linecap:round}</style><g class="sparkles"><path d="M79-176l-21-13" stroke-width="1.1" stroke="#2646532"/><path d="M117-195l16-32" stroke-width="1.2" stroke="#e76f516"/><path d="M110-127l9 35" stroke-width="1.2" stroke="#e76f516"/><path d="M138-146l37 16" stroke-width="1.3" stroke="#2a9d8f7"/><path d="M65-139l-34 23" stroke-width="1.3" stroke="#2646538"/><path d="M101-205l1-42" stroke-width="1.3" stroke="#2646538"/><path d="M114-120l14 42" stroke-width="1.3" stroke="#f4a2619"/><path d="M148-149l48 14" stroke-width="1.4" stroke="#264653B"/><path d="M97-107l-3 55" stroke-width="1.5" stroke="#2a9d8fE"/><path d="M150-129l49 33" stroke-width="1.6" stroke="#26465311"/><path d="M95-222l-5-60" stroke-width="1.6" stroke="#e9c46a11"/><path d="M81-104l-18 58" stroke-width="1.6" stroke="#2a9d8f12"/><path d="M46-197l-54-34" stroke-width="1.7" stroke="#e9c46a14"/><path d="M85-225l-16-63" stroke-width="1.7" stroke="#e9c46a14"/><path d="M127-101l28 61" stroke-width="1.8" stroke="#e76f5116"/><path d="M158-197l58-34" stroke-width="1.8" stroke="#26465316"/><path d="M168-163l68-1" stroke-width="1.8" stroke="#f4a26117"/><path d="M169-169l69-6" stroke-width="1.9" stroke="#e76f5118"/><path d="M152-209l53-47" stroke-width="1.9" stroke="#e9c46a18"/><path d="M160-125l61 37" stroke-width="1.9" stroke="#26465319"/><path d="M170-174l71-11" stroke-width="1.9" stroke="#e76f5119"/><path d="M100-91l0 72" stroke-width="1.9" stroke="#f4a2611A"/><path d="M168-140l69 23" stroke-width="1.9" stroke="#2646531A"/><path d="M41-121l-59 41" stroke-width="1.9" stroke="#e76f511A"/><path d="M128-230l29-68" stroke-width="2.0" stroke="#e9c46a1B"/><path d="M126-233l25-70" stroke-width="2.0" stroke="#f4a2611C"/><path d="M106-86l5 77" stroke-width="2.1" stroke="#e76f511E"/><path d="M46-218l-53-56" stroke-width="2.1" stroke="#f4a2611F"/><path d="M178-171l79-9" stroke-width="2.1" stroke="#e76f5120"/><path d="M151-225l50-62" stroke-width="2.2" stroke="#2a9d8f21"/><path d="M20-147l-80 15" stroke-width="2.2" stroke="#e76f5123"/><path d="M52-94l-47 68" stroke-width="2.3" stroke="#2a9d8f24"/><path d="M174-124l74 39" stroke-width="2.3" stroke="#2a9d8f25"/><path d="M128-79l28 84" stroke-width="2.5" stroke="#2646532A"/><path d="M50-85l-49 78" stroke-width="2.7" stroke="#f4a26130"/><path d="M9-146l-91 16" stroke-width="2.7" stroke="#e76f5130"/><path d="M169-225l69-63" stroke-width="2.7" stroke="#e76f5131"/><path d="M183-209l84-47" stroke-width="2.9" stroke="#f4a26134"/><path d="M58-76l-42 87" stroke-width="2.9" stroke="#2a9d8f35"/><path d="M176-102l76 60" stroke-width="2.9" stroke="#e76f5136"/><path d="M186-117l86 45" stroke-width="2.9" stroke="#e9c46a37"/><path d="M4-147l-97 15" stroke-width="3.0" stroke="#2a9d8f37"/><path d="M62-254l-39-91" stroke-width="3.1" stroke="#2a9d8f3A"/><path d="M95-63l-5 99" stroke-width="3.1" stroke="#e9c46a3A"/><path d="M199-170l100-8" stroke-width="3.1" stroke="#e9c46a3A"/><path d="M192-203l92-40" stroke-width="3.1" stroke="#f4a2613C"/><path d="M43-78l-56 84" stroke-width="3.2" stroke="#e76f513E"/><path d="M193-121l92 42" stroke-width="3.2" stroke="#2646533E"/><path d="M16-105l-84 58" stroke-width="3.2" stroke="#f4a2613F"/><path d="M133-259l32-97" stroke-width="3.2" stroke="#f4a2613F"/><path d="M8-210l-91-47" stroke-width="3.3" stroke="#e76f5141"/><path d="M185-104l86 58" stroke-width="3.3" stroke="#e76f5141"/><path d="M167-243l66-80" stroke-width="3.4" stroke="#26465343"/><path d="M-4-164l-105-2" stroke-width="3.4" stroke="#26465343"/><path d="M205-151l104 11" stroke-width="3.4" stroke="#26465345"/><path d="M166-78l66 84" stroke-width="3.6" stroke="#2a9d8f49"/><path d="M61-62l-38 100" stroke-width="3.6" stroke="#2646534A"/><path d="M95-55l-4 108" stroke-width="3.6" stroke="#2a9d8f4A"/><path d="M-8-172l-108-10" stroke-width="3.7" stroke="#e9c46a4C"/><path d="M72-58l-27 105" stroke-width="3.7" stroke="#e76f514C"/><path d="M197-211l97-49" stroke-width="3.7" stroke="#2646534C"/><path d="M194-106l94 56" stroke-width="3.8" stroke="#e76f514F"/><path d="M209-148l108 14" stroke-width="3.8" stroke="#e9c46a50"/><path d="M-9-176l-109-13" stroke-width="3.8" stroke="#f4a26150"/><path d="M200-208l100-46" stroke-width="3.9" stroke="#f4a26151"/><path d="M124-270l24-108" stroke-width="3.9" stroke="#f4a26152"/><path d="M104-52l3 111" stroke-width="3.9" stroke="#2a9d8f53"/><path d="M-11-174l-110-11" stroke-width="4.0" stroke="#e9c46a54"/><path d="M42-67l-57 96" stroke-width="4.1" stroke="#e9c46a56"/><path d="M212-172l111-9" stroke-width="4.1" stroke="#26465357"/><path d="M-7-130l-108 32" stroke-width="4.1" stroke="#2a9d8f57"/><path d="M78-52l-22 111" stroke-width="4.2" stroke="#e76f5159"/><path d="M9-95l-90 67" stroke-width="4.2" stroke="#f4a26159"/><path d="M167-254l67-91" stroke-width="4.2" stroke="#e9c46a5A"/><path d="M27-249l-73-86" stroke-width="4.2" stroke="#2646535A"/><path d="M-10-134l-109 29" stroke-width="4.2" stroke="#e9c46a5B"/><path d="M204-208l103-46" stroke-width="4.2" stroke="#e76f515B"/><path d="M210-134l109 29" stroke-width="4.2" stroke="#e9c46a5B"/><path d="M165-258l64-95" stroke-width="4.5" stroke="#e76f5162"/><path d="M215-155l115 8" stroke-width="4.5" stroke="#f4a26164"/><path d="M125-50l25 113" stroke-width="4.5" stroke="#e9c46a64"/><path d="M126-50l26 113" stroke-width="4.6" stroke="#e76f5165"/><path d="M216-161l116 2" stroke-width="4.6" stroke="#f4a26166"/><path d="M187-86l88 76" stroke-width="4.6" stroke="#e76f5167"/><path d="M153-59l52 103" stroke-width="4.7" stroke="#2a9d8f68"/><path d="M32-258l-67-95" stroke-width="4.8" stroke="#f4a2616C"/><path d="M-15-185l-115-22" stroke-width="4.9" stroke="#e9c46a6E"/><path d="M29-69l-71 93" stroke-width="4.9" stroke="#f4a2616E"/><path d="M6-233l-93-71" stroke-width="5.0" stroke="#26465370"/><path d="M194-233l94-71" stroke-width="5.0" stroke="#e76f5171"/><path d="M-9-207l-108-45" stroke-width="5.0" stroke="#2a9d8f72"/><path d="M216-181l117-19" stroke-width="5.1" stroke="#e9c46a75"/><path d="M77-278l-23-116" stroke-width="5.3" stroke="#2a9d8f78"/><path d="M63-275l-37-112" stroke-width="5.3" stroke="#e76f5179"/><path d="M145-272l44-109" stroke-width="5.4" stroke="#f4a2617C"/><path d="M199-227l99-64" stroke-width="5.5" stroke="#f4a2617F"/><path d="M106-45l6 118" stroke-width="5.5" stroke="#f4a26180"/><path d="M160-264l60-102" stroke-width="5.5" stroke="#2a9d8f80"/><path d="M14-243l-87-80" stroke-width="5.7" stroke="#f4a26184"/><path d="M157-265l58-103" stroke-width="5.9" stroke="#2a9d8f89"/><path d="M176-73l76 90" stroke-width="5.9" stroke="#e9c46a89"/><path d="M213-194l114-32" stroke-width="5.9" stroke="#e9c46a8A"/><path d="M35-64l-64 98" stroke-width="6.0" stroke="#e9c46a8C"/><path d="M142-272l43-109" stroke-width="6.0" stroke="#2646538D"/><path d="M94-280l-5-117" stroke-width="6.0" stroke="#f4a2618E"/><path d="M149-268l49-106" stroke-width="6.2" stroke="#f4a26194"/><path d="M94-279l-7-116" stroke-width="6.3" stroke="#26465395"/><path d="M190-235l90-72" stroke-width="6.4" stroke="#e9c46a9A"/><path d="M210-128l111 34" stroke-width="6.5" stroke="#e9c46a9A"/><path d="M155-264l56-101" stroke-width="6.5" stroke="#f4a2619B"/><path d="M86-49l-15 114" stroke-width="6.5" stroke="#e9c46a9D"/><path d="M-6-205l-107-42" stroke-width="6.6" stroke="#2646539F"/><path d="M209-131l110 31" stroke-width="6.7" stroke="#2a9d8fA1"/><path d="M83-50l-18 112" stroke-width="6.8" stroke="#264653A3"/><path d="M4-222l-97-60" stroke-width="6.8" stroke="#e76f51A3"/><path d="M119-51l19 111" stroke-width="6.8" stroke="#e9c46aA4"/><path d="M197-105l98 57" stroke-width="6.8" stroke="#2a9d8fA4"/><path d="M145-266l46-103" stroke-width="6.8" stroke="#e76f51A5"/><path d="M123-52l24 110" stroke-width="6.9" stroke="#e76f51A5"/><path d="M153-262l53-99" stroke-width="6.9" stroke="#e9c46aA5"/><path d="M10-95l-90 67" stroke-width="6.9" stroke="#264653A6"/><path d="M170-251l69-88" stroke-width="6.9" stroke="#2a9d8fA7"/><path d="M78-53l-22 109" stroke-width="7.0" stroke="#e76f51A9"/><path d="M211-175l110-12" stroke-width="7.0" stroke="#2a9d8fA9"/><path d="M120-272l21-109" stroke-width="7.0" stroke="#2a9d8fAA"/><path d="M-9-181l-109-19" stroke-width="7.1" stroke="#f4a261AB"/><path d="M17-236l-84-73" stroke-width="7.1" stroke="#2a9d8fAB"/><path d="M24-83l-77 80" stroke-width="7.1" stroke="#264653AD"/><path d="M169-247l69-84" stroke-width="7.2" stroke="#264653B0"/><path d="M-5-134l-105 28" stroke-width="7.3" stroke="#e9c46aB1"/><path d="M-5-137l-105 26" stroke-width="7.3" stroke="#2a9d8fB2"/><path d="M187-225l88-63" stroke-width="7.4" stroke="#264653B4"/><path d="M111-270l11-107" stroke-width="7.4" stroke="#e76f51B4"/><path d="M60-63l-40 99" stroke-width="7.4" stroke="#2a9d8fB5"/><path d="M3-206l-98-43" stroke-width="7.4" stroke="#f4a261B6"/><path d="M-6-168l-107-6" stroke-width="7.4" stroke="#e76f51B6"/><path d="M12-102l-88 60" stroke-width="7.5" stroke="#f4a261B7"/><path d="M150-254l50-92" stroke-width="7.6" stroke="#e9c46aBA"/><path d="M5-119l-94 44" stroke-width="7.6" stroke="#f4a261BB"/><path d="M104-266l4-104" stroke-width="7.6" stroke="#e76f51BC"/><path d="M199-189l100-26" stroke-width="7.7" stroke="#2a9d8fBE"/><path d="M74-260l-26-97" stroke-width="7.9" stroke="#2a9d8fC2"/><path d="M48-248l-53-86" stroke-width="7.9" stroke="#e9c46aC2"/><path d="M194-194l94-31" stroke-width="7.9" stroke="#2a9d8fC4"/><path d="M36-89l-64 73" stroke-width="8.1" stroke="#f4a261C7"/><path d="M122-256l22-93" stroke-width="8.1" stroke="#f4a261C9"/><path d="M90-256l-10-94" stroke-width="8.2" stroke="#e76f51CC"/><path d="M32-97l-67 65" stroke-width="8.2" stroke="#2a9d8fCC"/><path d="M165-228l65-66" stroke-width="8.3" stroke="#f4a261CE"/><path d="M178-114l78 49" stroke-width="8.3" stroke="#e9c46aCF"/><path d="M94-71l-6 92" stroke-width="8.3" stroke="#f4a261CF"/><path d="M185-191l85-28" stroke-width="8.4" stroke="#2a9d8fD2"/><path d="M102-73l1 89" stroke-width="8.4" stroke="#e76f51D3"/><path d="M115-250l15-87" stroke-width="8.5" stroke="#f4a261D4"/><path d="M124-246l24-83" stroke-width="8.6" stroke="#e76f51D6"/><path d="M116-247l16-84" stroke-width="8.6" stroke="#2a9d8fD7"/><path d="M37-109l-62 53" stroke-width="8.7" stroke="#e76f51DB"/><path d="M67-88l-33 74" stroke-width="8.8" stroke="#e9c46aDB"/><path d="M158-217l58-55" stroke-width="8.8" stroke="#f4a261DD"/><path d="M85-86l-15 77" stroke-width="8.9" stroke="#f4a261DF"/><path d="M169-199l68-36" stroke-width="8.9" stroke="#e9c46aDF"/><path d="M44-110l-56 52" stroke-width="8.9" stroke="#e76f51E0"/><path d="M175-162l76 0" stroke-width="9.0" stroke="#e76f51E1"/><path d="M166-134l67 28" stroke-width="9.1" stroke="#f4a261E4"/><path d="M51-115l-49 48" stroke-width="9.2" stroke="#2a9d8fE7"/><path d="M160-192l60-29" stroke-width="9.2" stroke="#e9c46aE8"/><path d="M86-228l-14-65" stroke-width="9.2" stroke="#e9c46aE8"/><path d="M44-131l-57 31" stroke-width="9.3" stroke="#e76f51EA"/><path d="M37-174l-63-11" stroke-width="9.3" stroke="#f4a261EA"/><path d="M50-202l-51-40" stroke-width="9.3" stroke="#2a9d8fEA"/><path d="M48-132l-52 30" stroke-width="9.4" stroke="#2a9d8fED"/><path d="M158-155l58 8" stroke-width="9.4" stroke="#e9c46aEE"/><path d="M127-210l28-48" stroke-width="9.5" stroke="#264653F0"/><path d="M45-168l-54-5" stroke-width="9.5" stroke="#e76f51F0"/><path d="M120-213l20-51" stroke-width="9.5" stroke="#264653F0"/><path d="M101-110l1 53" stroke-width="9.5" stroke="#e9c46aF1"/><path d="M136-197l36-34" stroke-width="9.6" stroke="#264653F3"/><path d="M89-201l-12-38" stroke-width="9.7" stroke="#f4a261F7"/><path d="M66-151l-34 12" stroke-width="9.8" stroke="#f4a261F8"/><path d="M125-153l24 10" stroke-width="9.9" stroke="#e76f51FB"/><path d="M75-159l-26 4" stroke-width="9.9" stroke="#e76f51FB"/></g></svg>