<svg width="1200" height="675" viewBox="-500 -500 1200 675" xmlns="http://www.w3.org/2000/svg"><path d="M-500-500h1200v675h-1200z" fill="#000"/><style>.sparkles path{stroke-linecap:round}</style><g class="sparkles"><path d="M87-174l-14-11" stroke-width="1.0" stroke="#fff5001"/><path d="M89-177l-12-15" stroke-width="1.1" stroke="#fff1"/><path d="M125-161l25 1" stroke-width="1.1" stroke="#005bbb2"/><path d="M65-143l-34 20" stroke-width="1.3" stroke="#fff5007"/><path d="M61-149l-38 13" stroke-width="1.3" stroke="#005bbb7"/><path d="M93-121l-8 41" stroke-width="1.3" stroke="#c2e1ff8"/><path d="M109-205l10-42" stroke-width="1.3" stroke="#fff8"/><path d="M59-181l-41-19" stroke-width="1.3" stroke="#fff9"/><path d="M114-208l14-45" stroke-width="1.4" stroke="#005bbbA"/><path d="M107-114l8 48" stroke-width="1.4" stroke="#005bbbB"/><path d="M100-216l0-53" stroke-width="1.5" stroke="#c2e1ffD"/><path d="M148-132l47 30" stroke-width="1.5" stroke="#c2e1ffF"/><path d="M108-100l7 62" stroke-width="1.7" stroke="#fff13"/><path d="M44-130l-55 33" stroke-width="1.7" stroke="#fff50014"/><path d="M81-230l-18-67" stroke-width="1.9" stroke="#fff50018"/><path d="M84-231l-17-68" stroke-width="1.9" stroke="#fff19"/><path d="M78-230l-21-67" stroke-width="1.9" stroke="#fff19"/><path d="M169-180l69-18" stroke-width="1.9" stroke="#fff50019"/><path d="M103-234l3-72" stroke-width="1.9" stroke="#005bbb1A"/><path d="M115-233l15-70" stroke-width="1.9" stroke="#005bbb1A"/><path d="M51-109l-50 54" stroke-width="2.0" stroke="#c2e1ff1B"/><path d="M158-208l58-45" stroke-width="2.0" stroke="#fff1B"/><path d="M63-88l-36 75" stroke-width="2.3" stroke="#c2e1ff25"/><path d="M72-83l-29 79" stroke-width="2.3" stroke="#c2e1ff26"/><path d="M58-241l-41-79" stroke-width="2.5" stroke="#c2e1ff2B"/><path d="M189-153l89 9" stroke-width="2.6" stroke="#fff5002C"/><path d="M131-78l31 84" stroke-width="2.6" stroke="#fff5002C"/><path d="M40-232l-61-70" stroke-width="2.7" stroke="#fff5002F"/><path d="M29-223l-70-61" stroke-width="2.7" stroke="#fff50031"/><path d="M54-80l-46 83" stroke-width="2.8" stroke="#fff33"/><path d="M161-237l60-74" stroke-width="2.9" stroke="#fff34"/><path d="M17-212l-82-49" stroke-width="2.9" stroke="#005bbb35"/><path d="M195-180l96-18" stroke-width="2.9" stroke="#fff36"/><path d="M103-65l4 98" stroke-width="3.0" stroke="#005bbb37"/><path d="M3-147l-97 15" stroke-width="3.0" stroke="#fff50038"/><path d="M50-78l-51 85" stroke-width="3.0" stroke="#005bbb39"/><path d="M2-169l-99-6" stroke-width="3.0" stroke="#c2e1ff39"/><path d="M82-260l-19-97" stroke-width="3.0" stroke="#c2e1ff39"/><path d="M164-238l65-76" stroke-width="3.1" stroke="#c2e1ff3A"/><path d="M1-175l-98-12" stroke-width="3.1" stroke="#005bbb3A"/><path d="M7-201l-92-39" stroke-width="3.1" stroke="#fff5003C"/><path d="M10-117l-90 46" stroke-width="3.2" stroke="#fff5003D"/><path d="M175-231l75-69" stroke-width="3.2" stroke="#fff5003E"/><path d="M204-171l103-8" stroke-width="3.4" stroke="#fff50042"/><path d="M58-67l-42 95" stroke-width="3.4" stroke="#fff43"/><path d="M-4-146l-105 16" stroke-width="3.5" stroke="#c2e1ff46"/><path d="M141-260l41-97" stroke-width="3.5" stroke="#fff46"/><path d="M8-215l-91-53" stroke-width="3.5" stroke="#005bbb46"/><path d="M30-83l-69 80" stroke-width="3.5" stroke="#005bbb47"/><path d="M66-263l-34-101" stroke-width="3.6" stroke="#fff50048"/><path d="M-7-163l-107-1" stroke-width="3.6" stroke="#c2e1ff49"/><path d="M136-61l35 101" stroke-width="3.6" stroke="#fff5004A"/><path d="M21-236l-80-73" stroke-width="3.7" stroke="#c2e1ff4B"/><path d="M202-198l102-36" stroke-width="3.7" stroke="#fff5004C"/><path d="M1-208l-100-46" stroke-width="3.8" stroke="#c2e1ff4F"/><path d="M105-272l4-109" stroke-width="3.8" stroke="#c2e1ff4F"/><path d="M12-98l-89 65" stroke-width="3.8" stroke="#fff5004F"/><path d="M156-68l57 94" stroke-width="3.8" stroke="#fff50050"/><path d="M174-244l73-82" stroke-width="3.8" stroke="#fff50"/><path d="M206-134l106 29" stroke-width="3.9" stroke="#c2e1ff51"/><path d="M196-220l97-57" stroke-width="4.1" stroke="#c2e1ff57"/><path d="M13-92l-87 71" stroke-width="4.1" stroke="#c2e1ff57"/><path d="M23-245l-77-82" stroke-width="4.2" stroke="#c2e1ff59"/><path d="M21-243l-80-81" stroke-width="4.2" stroke="#005bbb5B"/><path d="M171-251l71-89" stroke-width="4.3" stroke="#fff5C"/><path d="M-2-214l-102-51" stroke-width="4.4" stroke="#fff5005F"/><path d="M15-240l-85-77" stroke-width="4.5" stroke="#005bbb62"/><path d="M157-264l57-102" stroke-width="4.7" stroke="#fff50069"/><path d="M215-181l115-19" stroke-width="4.8" stroke="#fff6A"/><path d="M80-48l-21 115" stroke-width="4.8" stroke="#fff6A"/><path d="M9-90l-91 73" stroke-width="4.8" stroke="#c2e1ff6B"/><path d="M129-49l30 113" stroke-width="4.9" stroke="#005bbb6E"/><path d="M-10-122l-110 41" stroke-width="4.9" stroke="#c2e1ff6F"/><path d="M201-223l100-61" stroke-width="5.1" stroke="#c2e1ff72"/><path d="M79-47l-21 116" stroke-width="5.1" stroke="#005bbb73"/><path d="M96-280l-3-118" stroke-width="5.1" stroke="#c2e1ff74"/><path d="M83-46l-18 116" stroke-width="5.1" stroke="#fff75"/><path d="M145-53l44 109" stroke-width="5.2" stroke="#c2e1ff75"/><path d="M201-102l101 60" stroke-width="5.2" stroke="#005bbb76"/><path d="M180-76l81 86" stroke-width="5.2" stroke="#c2e1ff78"/><path d="M-16-183l-116-20" stroke-width="5.3" stroke="#fff78"/><path d="M35-261l-64-99" stroke-width="5.3" stroke="#005bbb78"/><path d="M6-91l-94 71" stroke-width="5.3" stroke="#005bbb79"/><path d="M67-276l-32-113" stroke-width="5.3" stroke="#fff5007A"/><path d="M180-76l81 87" stroke-width="5.3" stroke="#005bbb7A"/><path d="M78-279l-22-116" stroke-width="5.4" stroke="#005bbb7C"/><path d="M75-47l-24 116" stroke-width="5.5" stroke="#c2e1ff7E"/><path d="M67-276l-34-113" stroke-width="5.5" stroke="#c2e1ff80"/><path d="M111-280l11-118" stroke-width="5.6" stroke="#005bbb81"/><path d="M218-166l118-3" stroke-width="5.6" stroke="#c2e1ff81"/><path d="M175-253l76-91" stroke-width="5.6" stroke="#c2e1ff82"/><path d="M62-51l-38 112" stroke-width="5.6" stroke="#fff83"/><path d="M17-246l-83-84" stroke-width="5.7" stroke="#005bbb84"/><path d="M55-54l-45 109" stroke-width="5.7" stroke="#fff86"/><path d="M37-262l-63-100" stroke-width="5.8" stroke="#c2e1ff87"/><path d="M218-156l117 7" stroke-width="5.8" stroke="#fff87"/><path d="M217-152l118 10" stroke-width="5.8" stroke="#005bbb89"/><path d="M180-76l80 86" stroke-width="5.9" stroke="#005bbb8A"/><path d="M103-280l3-118" stroke-width="5.9" stroke="#fff5008A"/><path d="M213-194l114-32" stroke-width="5.9" stroke="#fff8A"/><path d="M199-100l99 63" stroke-width="6.0" stroke="#fff8D"/><path d="M138-274l38-111" stroke-width="6.0" stroke="#fff5008E"/><path d="M196-229l97-67" stroke-width="6.0" stroke="#c2e1ff8E"/><path d="M209-206l108-44" stroke-width="6.1" stroke="#fff50090"/><path d="M82-278l-18-116" stroke-width="6.1" stroke="#005bbb91"/><path d="M-16-150l-116 13" stroke-width="6.1" stroke="#c2e1ff91"/><path d="M109-46l9 116" stroke-width="6.2" stroke="#fff92"/><path d="M211-127l110 36" stroke-width="6.3" stroke="#fff95"/><path d="M-3-217l-102-54" stroke-width="6.3" stroke="#c2e1ff96"/><path d="M148-268l48-105" stroke-width="6.4" stroke="#005bbb99"/><path d="M17-82l-84 80" stroke-width="6.4" stroke="#fff50099"/><path d="M-16-166l-115-3" stroke-width="6.4" stroke="#fff50099"/><path d="M-15-173l-115-11" stroke-width="6.4" stroke="#c2e1ff99"/><path d="M214-146l113 17" stroke-width="6.6" stroke="#005bbb9D"/><path d="M139-54l39 108" stroke-width="6.6" stroke="#fff5009D"/><path d="M17-83l-82 79" stroke-width="6.6" stroke="#fff9E"/><path d="M92-277l-7-114" stroke-width="6.6" stroke="#fff9F"/><path d="M-11-187l-111-24" stroke-width="6.7" stroke="#fffA2"/><path d="M136-55l36 108" stroke-width="6.7" stroke="#c2e1ffA2"/><path d="M214-162l113 0" stroke-width="6.7" stroke="#fff500A2"/><path d="M186-236l86-74" stroke-width="6.8" stroke="#fff500A3"/><path d="M39-257l-61-95" stroke-width="6.8" stroke="#fffA5"/><path d="M212-161l112 1" stroke-width="6.9" stroke="#fffA7"/><path d="M201-113l100 50" stroke-width="6.9" stroke="#fff500A7"/><path d="M82-52l-17 111" stroke-width="6.9" stroke="#fffA8"/><path d="M210-145l110 17" stroke-width="7.0" stroke="#005bbbA9"/><path d="M-8-188l-108-25" stroke-width="7.1" stroke="#fff500AB"/><path d="M-10-175l-110-12" stroke-width="7.1" stroke="#005bbbAC"/><path d="M148-63l49 99" stroke-width="7.1" stroke="#c2e1ffAC"/><path d="M45-67l-56 95" stroke-width="7.1" stroke="#fffAD"/><path d="M179-86l80 76" stroke-width="7.1" stroke="#c2e1ffAD"/><path d="M71-56l-28 106" stroke-width="7.1" stroke="#fffAD"/><path d="M207-147l108 16" stroke-width="7.3" stroke="#005bbbB2"/><path d="M149-67l49 95" stroke-width="7.4" stroke="#fffB5"/><path d="M40-74l-60 89" stroke-width="7.4" stroke="#fffB5"/><path d="M47-255l-52-93" stroke-width="7.4" stroke="#fff500B5"/><path d="M43-253l-56-90" stroke-width="7.4" stroke="#fff500B6"/><path d="M122-267l22-104" stroke-width="7.4" stroke="#fffB6"/><path d="M138-63l38 99" stroke-width="7.5" stroke="#fff500B7"/><path d="M140-64l40 98" stroke-width="7.5" stroke="#fffB8"/><path d="M14-102l-87 60" stroke-width="7.5" stroke="#005bbbB9"/><path d="M77-265l-24-102" stroke-width="7.6" stroke="#fffBA"/><path d="M95-266l-4-103" stroke-width="7.7" stroke="#005bbbBC"/><path d="M1-137l-99 26" stroke-width="7.7" stroke="#fffBE"/><path d="M105-61l5 102" stroke-width="7.8" stroke="#fff500BF"/><path d="M4-132l-96 31" stroke-width="7.8" stroke="#c2e1ffC1"/><path d="M14-112l-86 50" stroke-width="7.9" stroke="#005bbbC4"/><path d="M36-239l-64-76" stroke-width="7.9" stroke="#fffC4"/><path d="M67-69l-32 94" stroke-width="7.9" stroke="#c2e1ffC4"/><path d="M97-261l-2-99" stroke-width="8.0" stroke="#005bbbC5"/><path d="M32-231l-68-68" stroke-width="8.1" stroke="#005bbbC9"/><path d="M11-199l-89-36" stroke-width="8.1" stroke="#fff500C9"/><path d="M128-71l29 91" stroke-width="8.1" stroke="#c2e1ffCA"/><path d="M163-91l62 72" stroke-width="8.2" stroke="#fff500CA"/><path d="M33-96l-68 67" stroke-width="8.2" stroke="#fffCB"/><path d="M10-140l-91 23" stroke-width="8.3" stroke="#c2e1ffCD"/><path d="M103-70l4 92" stroke-width="8.3" stroke="#fff500CF"/><path d="M30-221l-70-58" stroke-width="8.4" stroke="#c2e1ffD0"/><path d="M24-209l-76-46" stroke-width="8.5" stroke="#c2e1ffD3"/><path d="M17-183l-83-21" stroke-width="8.6" stroke="#fff500D7"/><path d="M108-87l9 76" stroke-width="8.9" stroke="#fffE0"/><path d="M38-118l-61 44" stroke-width="8.9" stroke="#c2e1ffE1"/><path d="M169-194l69-32" stroke-width="8.9" stroke="#c2e1ffE1"/><path d="M44-111l-55 52" stroke-width="8.9" stroke="#fffE1"/><path d="M62-99l-37 64" stroke-width="9.0" stroke="#005bbbE2"/><path d="M120-96l20 66" stroke-width="9.1" stroke="#c2e1ffE6"/><path d="M154-127l55 36" stroke-width="9.3" stroke="#fff500E9"/><path d="M87-99l-13 64" stroke-width="9.3" stroke="#fffE9"/><path d="M83-224l-16-62" stroke-width="9.3" stroke="#fffEA"/><path d="M63-114l-36 48" stroke-width="9.4" stroke="#005bbbEC"/><path d="M152-189l52-27" stroke-width="9.4" stroke="#fff500EE"/><path d="M65-209l-35-46" stroke-width="9.4" stroke="#fffEE"/><path d="M43-157l-58 5" stroke-width="9.4" stroke="#fff500EE"/><path d="M60-122l-41 41" stroke-width="9.4" stroke="#005bbbEE"/><path d="M72-127l-28 35" stroke-width="9.7" stroke="#c2e1ffF5"/><path d="M142-172l43-9" stroke-width="9.7" stroke="#fffF6"/><path d="M107-194l7-32" stroke-width="9.8" stroke="#fffFA"/><path d="M83-184l-17-21" stroke-width="9.9" stroke="#fffFB"/><path d="M96-141l-5 21" stroke-width="9.9" stroke="#c2e1ffFC"/><path d="M107-158l6 5" stroke-width="10.0" stroke="#fffFE"/><path d="M97-168l-3-5" stroke-width="10.0" stroke="#fff500FE"/></g></svg>