<svg width="1200" height="675" viewBox="-500 -500 1200 675" xmlns="http://www.w3.org/2000/svg"><path d="M-500-500h1200v675h-1200z" fill="#000"/><style>.sparkles path{stroke-linecap:round}</style><g class="sparkles"><path d="M101-174l1-11" stroke-width="1.0" stroke="#005bbb0"/><path d="M96-175l-5-12" stroke-width="1.0" stroke="#fff0"/><path d="M115-156l14 7" stroke-width="1.0" stroke="#005bbb1"/><path d="M94-179l-7-16" stroke-width="1.0" stroke="#005bbb1"/><path d="M80-145l-20 18" stroke-width="1.1" stroke="#fff5003"/><path d="M106-193l5-30" stroke-width="1.2" stroke="#005bbb4"/><path d="M76-188l-25-25" stroke-width="1.2" stroke="#005bbb5"/><path d="M134-178l34-16" stroke-width="1.2" stroke="#005bbb6"/><path d="M128-191l27-29" stroke-width="1.3" stroke="#005bbb7"/><path d="M131-134l31 29" stroke-width="1.3" stroke="#c2e1ff8"/><path d="M144-167l44-4" stroke-width="1.3" stroke="#c2e1ff9"/><path d="M85-121l-15 42" stroke-width="1.3" stroke="#005bbb9"/><path d="M143-149l43 13" stroke-width="1.3" stroke="#c2e1ff9"/><path d="M58-201l-42-38" stroke-width="1.6" stroke="#fffF"/><path d="M125-215l24-53" stroke-width="1.6" stroke="#c2e1ff10"/><path d="M159-161l60 2" stroke-width="1.6" stroke="#c2e1ff11"/><path d="M55-206l-44-44" stroke-width="1.7" stroke="#005bbb13"/><path d="M89-99l-11 63" stroke-width="1.7" stroke="#fff50014"/><path d="M74-223l-26-61" stroke-width="1.8" stroke="#fff15"/><path d="M93-230l-6-67" stroke-width="1.8" stroke="#005bbb16"/><path d="M63-219l-37-57" stroke-width="1.8" stroke="#fff50016"/><path d="M157-125l58 38" stroke-width="1.8" stroke="#005bbb17"/><path d="M34-183l-67-20" stroke-width="1.9" stroke="#c2e1ff18"/><path d="M169-167l69-5" stroke-width="1.9" stroke="#fff50018"/><path d="M72-228l-29-65" stroke-width="1.9" stroke="#fff19"/><path d="M98-91l-2 71" stroke-width="1.9" stroke="#fff19"/><path d="M128-86l28 76" stroke-width="2.2" stroke="#c2e1ff22"/><path d="M28-122l-73 41" stroke-width="2.3" stroke="#fff25"/><path d="M178-131l78 31" stroke-width="2.3" stroke="#fff50025"/><path d="M62-86l-37 76" stroke-width="2.4" stroke="#fff26"/><path d="M33-110l-67 52" stroke-width="2.4" stroke="#fff50027"/><path d="M12-178l-87-15" stroke-width="2.5" stroke="#005bbb2B"/><path d="M65-79l-35 83" stroke-width="2.6" stroke="#c2e1ff2D"/><path d="M152-88l53 75" stroke-width="2.6" stroke="#fff5002E"/><path d="M40-94l-60 69" stroke-width="2.7" stroke="#fff2E"/><path d="M142-79l42 83" stroke-width="2.7" stroke="#005bbb31"/><path d="M160-235l59-72" stroke-width="2.8" stroke="#c2e1ff31"/><path d="M92-68l-8 94" stroke-width="2.8" stroke="#005bbb32"/><path d="M185-118l85 44" stroke-width="2.9" stroke="#c2e1ff34"/><path d="M147-246l47-84" stroke-width="2.9" stroke="#005bbb35"/><path d="M170-96l69 66" stroke-width="2.9" stroke="#fff50035"/><path d="M8-194l-92-31" stroke-width="2.9" stroke="#c2e1ff37"/><path d="M192-196l92-33" stroke-width="3.0" stroke="#c2e1ff38"/><path d="M5-130l-95 33" stroke-width="3.1" stroke="#fff5003C"/><path d="M199-185l99-22" stroke-width="3.2" stroke="#fff5003E"/><path d="M195-125l94 37" stroke-width="3.2" stroke="#fff3E"/><path d="M13-218l-87-56" stroke-width="3.3" stroke="#fff50041"/><path d="M122-60l22 102" stroke-width="3.4" stroke="#005bbb44"/><path d="M76-265l-23-102" stroke-width="3.4" stroke="#005bbb45"/><path d="M-2-134l-102 29" stroke-width="3.5" stroke="#fff47"/><path d="M56-259l-44-97" stroke-width="3.5" stroke="#c2e1ff47"/><path d="M191-218l90-55" stroke-width="3.5" stroke="#005bbb47"/><path d="M-3-134l-102 28" stroke-width="3.5" stroke="#005bbb47"/><path d="M29-243l-71-81" stroke-width="3.6" stroke="#fff4A"/><path d="M201-125l100 38" stroke-width="3.6" stroke="#fff4A"/><path d="M160-252l61-89" stroke-width="3.6" stroke="#fff4A"/><path d="M205-187l105-25" stroke-width="3.7" stroke="#fff5004B"/><path d="M194-217l93-54" stroke-width="3.7" stroke="#fff5004C"/><path d="M26-242l-75-79" stroke-width="3.7" stroke="#fff4D"/><path d="M-9-164l-109-2" stroke-width="3.8" stroke="#fff5004E"/><path d="M140-266l39-104" stroke-width="4.0" stroke="#fff54"/><path d="M211-153l111 10" stroke-width="4.0" stroke="#005bbb55"/><path d="M212-156l112 6" stroke-width="4.1" stroke="#005bbb57"/><path d="M201-113l101 50" stroke-width="4.1" stroke="#c2e1ff59"/><path d="M150-264l50-102" stroke-width="4.3" stroke="#c2e1ff5C"/><path d="M131-272l32-110" stroke-width="4.3" stroke="#005bbb5E"/><path d="M123-274l24-112" stroke-width="4.3" stroke="#005bbb5E"/><path d="M208-124l107 39" stroke-width="4.4" stroke="#fff5F"/><path d="M214-160l115 2" stroke-width="4.4" stroke="#fff5005F"/><path d="M65-53l-35 109" stroke-width="4.4" stroke="#005bbb61"/><path d="M130-273l30-111" stroke-width="4.4" stroke="#c2e1ff61"/><path d="M17-82l-83 80" stroke-width="4.6" stroke="#005bbb65"/><path d="M186-84l86 78" stroke-width="4.7" stroke="#c2e1ff67"/><path d="M195-230l94-68" stroke-width="4.8" stroke="#c2e1ff6A"/><path d="M215-183l115-21" stroke-width="4.8" stroke="#fff6C"/><path d="M31-258l-68-95" stroke-width="5.0" stroke="#fff70"/><path d="M218-162l117 0" stroke-width="5.1" stroke="#c2e1ff72"/><path d="M-4-107l-103 55" stroke-width="5.1" stroke="#c2e1ff73"/><path d="M192-89l92 74" stroke-width="5.2" stroke="#fff75"/><path d="M97-280l-3-118" stroke-width="5.2" stroke="#c2e1ff75"/><path d="M198-97l97 66" stroke-width="5.2" stroke="#fff50076"/><path d="M1-227l-98-65" stroke-width="5.2" stroke="#fff77"/><path d="M171-68l71 94" stroke-width="5.3" stroke="#c2e1ff78"/><path d="M-17-149l-118 13" stroke-width="5.3" stroke="#fff5007A"/><path d="M165-261l65-99" stroke-width="5.4" stroke="#fff7B"/><path d="M-7-114l-108 49" stroke-width="5.4" stroke="#005bbb7B"/><path d="M18-247l-83-85" stroke-width="5.4" stroke="#c2e1ff7D"/><path d="M140-51l40 111" stroke-width="5.4" stroke="#005bbb7D"/><path d="M84-279l-16-117" stroke-width="5.6" stroke="#fff50081"/><path d="M159-60l59 102" stroke-width="5.6" stroke="#c2e1ff81"/><path d="M68-49l-31 114" stroke-width="5.6" stroke="#c2e1ff82"/><path d="M8-89l-92 74" stroke-width="5.6" stroke="#c2e1ff83"/><path d="M138-274l38-112" stroke-width="5.7" stroke="#005bbb85"/><path d="M-16-180l-117-18" stroke-width="5.8" stroke="#fff89"/><path d="M168-66l68 96" stroke-width="5.9" stroke="#c2e1ff89"/><path d="M209-119l110 43" stroke-width="5.9" stroke="#fff5008A"/><path d="M-13-129l-112 34" stroke-width="5.9" stroke="#fff8A"/><path d="M82-279l-18-116" stroke-width="6.0" stroke="#fff8D"/><path d="M177-74l76 89" stroke-width="6.1" stroke="#fff5008F"/><path d="M-9-205l-109-42" stroke-width="6.1" stroke="#fff8F"/><path d="M-14-138l-115 24" stroke-width="6.1" stroke="#c2e1ff91"/><path d="M61-53l-39 109" stroke-width="6.4" stroke="#005bbb97"/><path d="M214-186l113-23" stroke-width="6.4" stroke="#fff98"/><path d="M215-148l115 14" stroke-width="6.4" stroke="#005bbb98"/><path d="M175-250l76-88" stroke-width="6.4" stroke="#005bbb98"/><path d="M-14-143l-114 20" stroke-width="6.5" stroke="#fff9A"/><path d="M-5-211l-104-49" stroke-width="6.5" stroke="#fff5009A"/><path d="M84-276l-16-114" stroke-width="6.5" stroke="#c2e1ff9C"/><path d="M-3-112l-103 51" stroke-width="6.5" stroke="#c2e1ff9D"/><path d="M18-83l-81 80" stroke-width="6.7" stroke="#c2e1ffA0"/><path d="M185-238l85-75" stroke-width="6.7" stroke="#fffA2"/><path d="M195-100l95 62" stroke-width="6.8" stroke="#fff500A3"/><path d="M204-207l105-44" stroke-width="6.8" stroke="#fffA3"/><path d="M174-248l75-85" stroke-width="6.8" stroke="#fff500A4"/><path d="M212-154l112 9" stroke-width="6.9" stroke="#fff500A6"/><path d="M14-235l-86-72" stroke-width="6.9" stroke="#fffA7"/><path d="M103-50l4 112" stroke-width="6.9" stroke="#fff500A7"/><path d="M-12-156l-112 7" stroke-width="6.9" stroke="#005bbbA7"/><path d="M112-274l12-111" stroke-width="6.9" stroke="#fffA7"/><path d="M209-188l109-26" stroke-width="6.9" stroke="#fffA8"/><path d="M193-100l93 62" stroke-width="6.9" stroke="#005bbbA8"/><path d="M193-103l93 60" stroke-width="7.1" stroke="#c2e1ffAC"/><path d="M54-262l-46-100" stroke-width="7.1" stroke="#fffAD"/><path d="M209-154l110 9" stroke-width="7.2" stroke="#fff500AE"/><path d="M33-76l-68 86" stroke-width="7.2" stroke="#c2e1ffAE"/><path d="M195-109l95 54" stroke-width="7.2" stroke="#005bbbB0"/><path d="M207-139l106 23" stroke-width="7.2" stroke="#c2e1ffB0"/><path d="M208-176l108-13" stroke-width="7.2" stroke="#c2e1ffB0"/><path d="M130-58l30 105" stroke-width="7.3" stroke="#fff500B1"/><path d="M189-101l90 61" stroke-width="7.3" stroke="#fffB2"/><path d="M175-240l74-78" stroke-width="7.3" stroke="#fff500B3"/><path d="M200-128l100 34" stroke-width="7.5" stroke="#c2e1ffB8"/><path d="M191-214l91-52" stroke-width="7.6" stroke="#fffBA"/><path d="M23-232l-77-69" stroke-width="7.7" stroke="#005bbbBC"/><path d="M103-60l4 102" stroke-width="7.7" stroke="#fff500BE"/><path d="M14-218l-86-55" stroke-width="7.8" stroke="#fff500BF"/><path d="M41-246l-59-83" stroke-width="7.8" stroke="#fffBF"/><path d="M85-261l-16-98" stroke-width="7.9" stroke="#fff500C3"/><path d="M163-240l62-77" stroke-width="7.9" stroke="#fff500C4"/><path d="M16-109l-84 53" stroke-width="7.9" stroke="#c2e1ffC4"/><path d="M22-101l-78 61" stroke-width="7.9" stroke="#c2e1ffC4"/><path d="M53-75l-46 87" stroke-width="8.0" stroke="#fffC5"/><path d="M1-156l-98 6" stroke-width="8.0" stroke="#c2e1ffC5"/><path d="M181-109l80 53" stroke-width="8.1" stroke="#fffC8"/><path d="M137-251l38-88" stroke-width="8.1" stroke="#c2e1ffCA"/><path d="M193-172l93-9" stroke-width="8.2" stroke="#fffCD"/><path d="M145-83l45 80" stroke-width="8.3" stroke="#fff500CF"/><path d="M31-107l-70 55" stroke-width="8.5" stroke="#fff500D3"/><path d="M148-236l47-73" stroke-width="8.5" stroke="#fff500D5"/><path d="M182-136l83 26" stroke-width="8.6" stroke="#c2e1ffD6"/><path d="M42-101l-58 62" stroke-width="8.6" stroke="#005bbbD8"/><path d="M18-143l-82 20" stroke-width="8.7" stroke="#c2e1ffD8"/><path d="M109-246l8-84" stroke-width="8.7" stroke="#fff500D9"/><path d="M176-197l75-35" stroke-width="8.7" stroke="#fff500D9"/><path d="M90-81l-10 82" stroke-width="8.7" stroke="#c2e1ffDA"/><path d="M59-231l-41-69" stroke-width="8.8" stroke="#fff500DD"/><path d="M43-107l-57 55" stroke-width="8.8" stroke="#fff500DE"/><path d="M26-189l-74-27" stroke-width="8.9" stroke="#005bbbDE"/><path d="M164-121l65 42" stroke-width="8.9" stroke="#fffE0"/><path d="M72-233l-27-70" stroke-width="9.0" stroke="#fffE1"/><path d="M135-228l35-66" stroke-width="9.0" stroke="#005bbbE2"/><path d="M156-207l57-45" stroke-width="9.1" stroke="#005bbbE4"/><path d="M53-215l-48-53" stroke-width="9.1" stroke="#c2e1ffE5"/><path d="M68-102l-33 60" stroke-width="9.2" stroke="#fffE7"/><path d="M58-216l-42-54" stroke-width="9.2" stroke="#fff500E7"/><path d="M98-230l-2-68" stroke-width="9.2" stroke="#fff500E8"/><path d="M115-97l16 66" stroke-width="9.2" stroke="#c2e1ffE8"/><path d="M164-181l65-19" stroke-width="9.2" stroke="#fff500E8"/><path d="M113-228l12-65" stroke-width="9.2" stroke="#fffE8"/><path d="M95-220l-4-58" stroke-width="9.4" stroke="#fff500EE"/><path d="M146-197l47-34" stroke-width="9.4" stroke="#c2e1ffEE"/><path d="M57-134l-43 29" stroke-width="9.5" stroke="#fff500F2"/><path d="M71-122l-30 41" stroke-width="9.6" stroke="#c2e1ffF2"/><path d="M147-176l47-14" stroke-width="9.6" stroke="#fff500F3"/><path d="M81-200l-19-38" stroke-width="9.7" stroke="#fffF6"/><path d="M71-189l-28-27" stroke-width="9.7" stroke="#fff500F7"/><path d="M65-160l-35 2" stroke-width="9.8" stroke="#c2e1ffF9"/><path d="M72-142l-29 20" stroke-width="9.8" stroke="#fff500F9"/><path d="M105-138l5 25" stroke-width="9.9" stroke="#fff500FC"/><path d="M79-151l-20 11" stroke-width="9.9" stroke="#fff500FC"/><path d="M82-155l-17 8" stroke-width="9.9" stroke="#c2e1ffFD"/></g></svg>