<svg width="1200" height="675" viewBox="-500 -500 1200 675" xmlns="http://www.w3.org/2000/svg"><path d="M-500-500h1200v675h-1200z" fill="#000"/><style>.sparkles path{stroke-linecap:round}</style><g class="sparkles"><path d="M96-141l-4 21" stroke-width="1.1" stroke="#fff2"/><path d="M106-128l7 34" stroke-width="1.2" stroke="#fff5005"/><path d="M104-204l4-41" stroke-width="1.3" stroke="#fff8"/><path d="M109-119l10 43" stroke-width="1.3" stroke="#fff9"/><path d="M64-198l-36-35" stroke-width="1.4" stroke="#c2e1ffC"/><path d="M119-111l19 51" stroke-width="1.5" stroke="#005bbbE"/><path d="M73-213l-27-51" stroke-width="1.6" stroke="#fff50010"/><path d="M134-113l33 50" stroke-width="1.6" stroke="#005bbb11"/><path d="M38-162l-63 0" stroke-width="1.7" stroke="#fff50013"/><path d="M120-98l19 65" stroke-width="1.8" stroke="#c2e1ff16"/><path d="M62-220l-38-57" stroke-width="1.8" stroke="#c2e1ff17"/><path d="M154-120l54 43" stroke-width="1.9" stroke="#c2e1ff18"/><path d="M106-92l6 71" stroke-width="1.9" stroke="#c2e1ff19"/><path d="M87-93l-13 70" stroke-width="1.9" stroke="#fff50019"/><path d="M122-230l23-68" stroke-width="1.9" stroke="#c2e1ff19"/><path d="M45-210l-55-47" stroke-width="1.9" stroke="#fff5001A"/><path d="M155-115l56 47" stroke-width="2.0" stroke="#c2e1ff1B"/><path d="M43-208l-57-45" stroke-width="2.0" stroke="#fff5001B"/><path d="M175-146l75 17" stroke-width="2.1" stroke="#fff1E"/><path d="M46-218l-55-55" stroke-width="2.1" stroke="#005bbb1F"/><path d="M44-216l-57-53" stroke-width="2.1" stroke="#005bbb1F"/><path d="M178-164l77-1" stroke-width="2.1" stroke="#005bbb1F"/><path d="M49-102l-52 61" stroke-width="2.2" stroke="#005bbb21"/><path d="M24-140l-77 22" stroke-width="2.2" stroke="#c2e1ff21"/><path d="M50-225l-50-62" stroke-width="2.2" stroke="#fff21"/><path d="M68-88l-32 74" stroke-width="2.2" stroke="#fff22"/><path d="M144-234l45-71" stroke-width="2.3" stroke="#fff25"/><path d="M159-224l59-62" stroke-width="2.4" stroke="#fff50027"/><path d="M48-93l-53 70" stroke-width="2.5" stroke="#fff29"/><path d="M17-133l-82 29" stroke-width="2.5" stroke="#c2e1ff29"/><path d="M190-171l89-9" stroke-width="2.6" stroke="#c2e1ff2C"/><path d="M191-151l91 12" stroke-width="2.7" stroke="#005bbb2E"/><path d="M150-85l49 78" stroke-width="2.7" stroke="#005bbb2F"/><path d="M17-120l-84 42" stroke-width="2.7" stroke="#c2e1ff31"/><path d="M35-90l-64 72" stroke-width="2.9" stroke="#005bbb36"/><path d="M171-96l72 66" stroke-width="3.0" stroke="#fff50037"/><path d="M195-140l95 22" stroke-width="3.0" stroke="#fff37"/><path d="M149-248l49-85" stroke-width="3.0" stroke="#fff50038"/><path d="M17-109l-82 54" stroke-width="3.0" stroke="#c2e1ff39"/><path d="M181-222l80-60" stroke-width="3.1" stroke="#005bbb3C"/><path d="M195-196l94-33" stroke-width="3.1" stroke="#c2e1ff3C"/><path d="M12-112l-89 51" stroke-width="3.2" stroke="#005bbb3F"/><path d="M148-72l47 90" stroke-width="3.2" stroke="#fff5003F"/><path d="M-2-170l-102-8" stroke-width="3.3" stroke="#fff5003F"/><path d="M2-131l-98 31" stroke-width="3.3" stroke="#fff40"/><path d="M105-266l6-104" stroke-width="3.4" stroke="#fff43"/><path d="M42-76l-58 87" stroke-width="3.4" stroke="#fff50043"/><path d="M203-182l104-19" stroke-width="3.4" stroke="#005bbb45"/><path d="M130-61l30 101" stroke-width="3.5" stroke="#fff50046"/><path d="M1-120l-98 42" stroke-width="3.6" stroke="#fff4A"/><path d="M17-91l-82 72" stroke-width="3.8" stroke="#005bbb4F"/><path d="M32-76l-69 86" stroke-width="3.9" stroke="#005bbb50"/><path d="M210-162l111 0" stroke-width="3.9" stroke="#c2e1ff52"/><path d="M209-141l108 22" stroke-width="3.9" stroke="#c2e1ff53"/><path d="M28-78l-73 85" stroke-width="4.0" stroke="#005bbb55"/><path d="M201-210l101-47" stroke-width="4.0" stroke="#c2e1ff55"/><path d="M73-271l-27-109" stroke-width="4.1" stroke="#c2e1ff57"/><path d="M189-231l90-68" stroke-width="4.1" stroke="#fff58"/><path d="M203-209l103-47" stroke-width="4.2" stroke="#fff50059"/><path d="M41-259l-60-96" stroke-width="4.2" stroke="#fff5A"/><path d="M-1-215l-101-52" stroke-width="4.3" stroke="#005bbb5C"/><path d="M11-91l-89 71" stroke-width="4.3" stroke="#005bbb5E"/><path d="M191-94l91 69" stroke-width="4.3" stroke="#fff5E"/><path d="M190-233l90-70" stroke-width="4.4" stroke="#fff5005F"/><path d="M211-132l111 30" stroke-width="4.5" stroke="#fff61"/><path d="M191-233l90-71" stroke-width="4.5" stroke="#fff50062"/><path d="M215-155l115 7" stroke-width="4.5" stroke="#005bbb62"/><path d="M23-248l-76-86" stroke-width="4.5" stroke="#fff50063"/><path d="M132-52l32 111" stroke-width="4.6" stroke="#005bbb64"/><path d="M11-237l-89-74" stroke-width="4.6" stroke="#fff50066"/><path d="M215-144l114 19" stroke-width="4.7" stroke="#005bbb67"/><path d="M174-252l75-89" stroke-width="4.7" stroke="#005bbb68"/><path d="M205-113l105 50" stroke-width="4.7" stroke="#fff68"/><path d="M89-47l-12 116" stroke-width="4.7" stroke="#fff5006A"/><path d="M217-154l116 9" stroke-width="4.8" stroke="#fff6D"/><path d="M157-265l57-102" stroke-width="4.9" stroke="#fff5006E"/><path d="M7-91l-93 71" stroke-width="5.0" stroke="#005bbb70"/><path d="M141-273l40-110" stroke-width="5.0" stroke="#c2e1ff70"/><path d="M218-162l117 0" stroke-width="5.1" stroke="#fff50073"/><path d="M217-153l118 10" stroke-width="5.1" stroke="#fff74"/><path d="M-13-128l-112 35" stroke-width="5.2" stroke="#fff77"/><path d="M8-89l-92 74" stroke-width="5.3" stroke="#c2e1ff78"/><path d="M215-136l115 26" stroke-width="5.3" stroke="#c2e1ff79"/><path d="M-9-116l-108 46" stroke-width="5.3" stroke="#fff79"/><path d="M217-147l117 15" stroke-width="5.3" stroke="#fff79"/><path d="M215-188l115-26" stroke-width="5.3" stroke="#fff5007A"/><path d="M156-266l57-104" stroke-width="5.3" stroke="#c2e1ff7A"/><path d="M195-233l94-71" stroke-width="5.3" stroke="#fff7A"/><path d="M213-197l113-34" stroke-width="5.3" stroke="#c2e1ff7B"/><path d="M136-50l36 113" stroke-width="5.3" stroke="#c2e1ff7B"/><path d="M157-59l57 103" stroke-width="5.3" stroke="#005bbb7B"/><path d="M16-246l-84-83" stroke-width="5.4" stroke="#fff7D"/><path d="M169-258l70-96" stroke-width="5.4" stroke="#005bbb7D"/><path d="M53-271l-47-108" stroke-width="5.4" stroke="#c2e1ff7D"/><path d="M158-60l59 103" stroke-width="5.5" stroke="#c2e1ff80"/><path d="M135-50l35 113" stroke-width="5.6" stroke="#fff81"/><path d="M68-276l-32-114" stroke-width="5.6" stroke="#005bbb82"/><path d="M218-162l118 1" stroke-width="5.6" stroke="#fff50083"/><path d="M35-261l-65-99" stroke-width="5.7" stroke="#fff84"/><path d="M-13-195l-114-32" stroke-width="5.7" stroke="#fff50085"/><path d="M27-255l-74-92" stroke-width="5.7" stroke="#fff50086"/><path d="M113-280l12-117" stroke-width="5.9" stroke="#fff50089"/><path d="M178-75l79 88" stroke-width="5.9" stroke="#005bbb8A"/><path d="M196-231l95-68" stroke-width="5.9" stroke="#fff5008B"/><path d="M176-252l75-90" stroke-width="6.0" stroke="#fff8E"/><path d="M3-96l-96 66" stroke-width="6.0" stroke="#c2e1ff8E"/><path d="M54-55l-46 107" stroke-width="6.2" stroke="#fff92"/><path d="M181-79l81 83" stroke-width="6.3" stroke="#c2e1ff95"/><path d="M216-160l116 3" stroke-width="6.4" stroke="#fff50098"/><path d="M151-266l50-104" stroke-width="6.4" stroke="#fff50099"/><path d="M186-239l86-77" stroke-width="6.4" stroke="#fff5009A"/><path d="M-13-138l-112 25" stroke-width="6.5" stroke="#c2e1ff9A"/><path d="M-15-151l-114 12" stroke-width="6.5" stroke="#fff9B"/><path d="M-15-156l-115 7" stroke-width="6.5" stroke="#fff5009B"/><path d="M35-68l-65 95" stroke-width="6.6" stroke="#005bbb9D"/><path d="M46-264l-54-101" stroke-width="6.6" stroke="#fff5009E"/><path d="M125-274l24-112" stroke-width="6.6" stroke="#fff9E"/><path d="M114-276l14-114" stroke-width="6.6" stroke="#fff5009E"/><path d="M211-133l110 29" stroke-width="6.6" stroke="#fff5009F"/><path d="M163-67l63 95" stroke-width="6.7" stroke="#fff500A0"/><path d="M204-210l103-47" stroke-width="6.7" stroke="#c2e1ffA1"/><path d="M-5-118l-104 44" stroke-width="6.7" stroke="#005bbbA2"/><path d="M168-73l69 90" stroke-width="6.8" stroke="#fff500A4"/><path d="M198-106l97 57" stroke-width="6.8" stroke="#fffA5"/><path d="M60-57l-40 105" stroke-width="6.9" stroke="#fff500A6"/><path d="M191-97l91 66" stroke-width="6.9" stroke="#005bbbA6"/><path d="M165-253l66-90" stroke-width="7.0" stroke="#005bbbA9"/><path d="M118-53l19 110" stroke-width="7.0" stroke="#fffAA"/><path d="M154-66l54 97" stroke-width="7.1" stroke="#c2e1ffAB"/><path d="M50-261l-50-98" stroke-width="7.1" stroke="#005bbbAC"/><path d="M126-55l25 107" stroke-width="7.1" stroke="#005bbbAD"/><path d="M-10-155l-110 7" stroke-width="7.1" stroke="#005bbbAD"/><path d="M40-255l-59-92" stroke-width="7.1" stroke="#005bbbAE"/><path d="M190-224l91-62" stroke-width="7.2" stroke="#c2e1ffAF"/><path d="M17-92l-83 71" stroke-width="7.2" stroke="#fffB0"/><path d="M-7-160l-106 3" stroke-width="7.4" stroke="#c2e1ffB6"/><path d="M23-236l-76-74" stroke-width="7.4" stroke="#c2e1ffB6"/><path d="M147-258l47-95" stroke-width="7.5" stroke="#c2e1ffB6"/><path d="M45-254l-54-91" stroke-width="7.5" stroke="#fffB7"/><path d="M117-58l18 105" stroke-width="7.5" stroke="#c2e1ffB7"/><path d="M184-226l85-63" stroke-width="7.5" stroke="#fff500B8"/><path d="M103-265l3-102" stroke-width="7.7" stroke="#005bbbBE"/><path d="M119-263l18-100" stroke-width="7.8" stroke="#c2e1ffBF"/><path d="M11-120l-89 43" stroke-width="8.0" stroke="#005bbbC5"/><path d="M43-242l-57-79" stroke-width="8.0" stroke="#005bbbC7"/><path d="M20-218l-80-55" stroke-width="8.1" stroke="#005bbbC8"/><path d="M6-140l-93 22" stroke-width="8.1" stroke="#fff500C9"/><path d="M155-84l55 79" stroke-width="8.1" stroke="#005bbbCA"/><path d="M193-139l93 24" stroke-width="8.1" stroke="#005bbbCA"/><path d="M44-240l-56-77" stroke-width="8.2" stroke="#fff500CA"/><path d="M176-105l75 58" stroke-width="8.2" stroke="#fff500CB"/><path d="M24-218l-76-55" stroke-width="8.2" stroke="#c2e1ffCC"/><path d="M40-93l-61 70" stroke-width="8.3" stroke="#c2e1ffCF"/><path d="M85-73l-15 89" stroke-width="8.4" stroke="#005bbbD1"/><path d="M30-106l-70 57" stroke-width="8.4" stroke="#fffD1"/><path d="M31-219l-69-57" stroke-width="8.4" stroke="#c2e1ffD2"/><path d="M48-93l-52 70" stroke-width="8.5" stroke="#c2e1ffD5"/><path d="M15-179l-85-17" stroke-width="8.6" stroke="#005bbbD6"/><path d="M63-88l-37 75" stroke-width="8.7" stroke="#fffD9"/><path d="M114-80l14 82" stroke-width="8.7" stroke="#005bbbD9"/><path d="M172-126l72 36" stroke-width="8.8" stroke="#fff500DC"/><path d="M32-121l-67 41" stroke-width="8.8" stroke="#005bbbDE"/><path d="M22-166l-79-4" stroke-width="8.9" stroke="#fffDE"/><path d="M29-134l-72 29" stroke-width="8.9" stroke="#fff500E0"/><path d="M166-198l66-36" stroke-width="9.0" stroke="#c2e1ffE1"/><path d="M169-191l70-29" stroke-width="9.0" stroke="#c2e1ffE2"/><path d="M128-94l28 69" stroke-width="9.0" stroke="#c2e1ffE2"/><path d="M109-229l9-66" stroke-width="9.2" stroke="#c2e1ffE8"/><path d="M35-174l-66-12" stroke-width="9.2" stroke="#fffE8"/><path d="M98-97l-2 66" stroke-width="9.2" stroke="#c2e1ffE9"/><path d="M163-177l62-15" stroke-width="9.3" stroke="#c2e1ffEA"/><path d="M45-187l-54-25" stroke-width="9.4" stroke="#c2e1ffED"/><path d="M44-150l-56 13" stroke-width="9.4" stroke="#fff500EE"/><path d="M101-106l2 57" stroke-width="9.4" stroke="#fff500EF"/><path d="M53-133l-47 29" stroke-width="9.5" stroke="#fff500F0"/><path d="M152-179l51-17" stroke-width="9.5" stroke="#005bbbF0"/><path d="M85-122l-15 40" stroke-width="9.7" stroke="#fffF6"/><path d="M136-164l36-2" stroke-width="9.8" stroke="#c2e1ffF8"/><path d="M100-175l-1-12" stroke-width="10.0" stroke="#fffFE"/><path d="M101-155l1 7" stroke-width="10.0" stroke="#fff500FE"/><path d="M97-164l-4-2" stroke-width="10.0" stroke="#fff500FE"/></g></svg>