<svg width="1200" height="675" viewBox="-500 -500 1200 675" xmlns="http://www.w3.org/2000/svg"><path d="M-500-500h1200v675h-1200z" fill="#000"/><style>.sparkles path{stroke-linecap:round}</style><g class="sparkles"><path d="M92-167l-8-4" stroke-width="1.0" stroke="#c2e1ff0"/><path d="M93-133l-8 30" stroke-width="1.2" stroke="#fff5004"/><path d="M147-159l47 3" stroke-width="1.4" stroke="#c2e1ffA"/><path d="M72-123l-28 39" stroke-width="1.4" stroke="#005bbbB"/><path d="M150-167l50-4" stroke-width="1.4" stroke="#c2e1ffC"/><path d="M94-220l-6-57" stroke-width="1.6" stroke="#005bbb10"/><path d="M53-125l-47 37" stroke-width="1.6" stroke="#005bbb11"/><path d="M139-211l38-48" stroke-width="1.7" stroke="#005bbb12"/><path d="M162-162l62 0" stroke-width="1.7" stroke="#fff13"/><path d="M36-175l-65-12" stroke-width="1.8" stroke="#005bbb15"/><path d="M104-229l4-67" stroke-width="1.8" stroke="#005bbb16"/><path d="M160-129l61 34" stroke-width="1.9" stroke="#c2e1ff18"/><path d="M59-220l-41-57" stroke-width="1.9" stroke="#fff50018"/><path d="M167-140l67 23" stroke-width="1.9" stroke="#fff50019"/><path d="M64-97l-36 66" stroke-width="2.0" stroke="#c2e1ff1D"/><path d="M38-120l-62 43" stroke-width="2.0" stroke="#c2e1ff1D"/><path d="M148-101l49 62" stroke-width="2.1" stroke="#fff20"/><path d="M20-164l-80-2" stroke-width="2.2" stroke="#c2e1ff21"/><path d="M102-243l1-80" stroke-width="2.2" stroke="#fff50022"/><path d="M71-87l-30 76" stroke-width="2.2" stroke="#fff22"/><path d="M158-221l58-58" stroke-width="2.3" stroke="#fff50023"/><path d="M181-149l81 14" stroke-width="2.3" stroke="#fff50023"/><path d="M101-80l1 82" stroke-width="2.3" stroke="#fff24"/><path d="M129-83l28 79" stroke-width="2.3" stroke="#fff50025"/><path d="M184-171l85-9" stroke-width="2.4" stroke="#c2e1ff26"/><path d="M56-236l-43-73" stroke-width="2.4" stroke="#005bbb27"/><path d="M185-179l84-17" stroke-width="2.4" stroke="#c2e1ff28"/><path d="M144-88l45 74" stroke-width="2.4" stroke="#c2e1ff28"/><path d="M177-205l77-42" stroke-width="2.5" stroke="#005bbb2A"/><path d="M25-210l-75-47" stroke-width="2.5" stroke="#c2e1ff2B"/><path d="M186-184l86-22" stroke-width="2.5" stroke="#005bbb2B"/><path d="M115-250l16-88" stroke-width="2.6" stroke="#fff2B"/><path d="M9-147l-90 15" stroke-width="2.7" stroke="#c2e1ff2F"/><path d="M11-136l-88 27" stroke-width="2.7" stroke="#fff50030"/><path d="M122-70l22 92" stroke-width="2.8" stroke="#fff33"/><path d="M193-193l93-31" stroke-width="3.0" stroke="#c2e1ff38"/><path d="M198-156l98 6" stroke-width="3.0" stroke="#fff50038"/><path d="M80-66l-21 97" stroke-width="3.0" stroke="#fff50039"/><path d="M12-208l-88-46" stroke-width="3.1" stroke="#fff3A"/><path d="M55-73l-45 89" stroke-width="3.1" stroke="#005bbb3B"/><path d="M150-250l50-87" stroke-width="3.1" stroke="#005bbb3C"/><path d="M-3-163l-102-1" stroke-width="3.3" stroke="#005bbb40"/><path d="M195-205l94-43" stroke-width="3.3" stroke="#005bbb42"/><path d="M197-200l96-38" stroke-width="3.3" stroke="#c2e1ff42"/><path d="M175-234l76-72" stroke-width="3.4" stroke="#005bbb43"/><path d="M168-242l68-80" stroke-width="3.4" stroke="#fff44"/><path d="M109-267l8-105" stroke-width="3.4" stroke="#fff45"/><path d="M57-259l-43-96" stroke-width="3.5" stroke="#005bbb45"/><path d="M6-114l-93 48" stroke-width="3.5" stroke="#c2e1ff45"/><path d="M-6-154l-105 9" stroke-width="3.5" stroke="#fff47"/><path d="M-7-163l-108 0" stroke-width="3.6" stroke="#fff5004A"/><path d="M142-263l41-100" stroke-width="3.7" stroke="#005bbb4D"/><path d="M9-223l-92-60" stroke-width="3.8" stroke="#005bbb4F"/><path d="M-8-143l-108 20" stroke-width="3.8" stroke="#fff50"/><path d="M92-52l-7 110" stroke-width="3.9" stroke="#fff51"/><path d="M81-272l-20-109" stroke-width="3.9" stroke="#fff50053"/><path d="M173-246l74-83" stroke-width="4.0" stroke="#fff53"/><path d="M-11-175l-111-12" stroke-width="4.0" stroke="#fff55"/><path d="M195-104l96 58" stroke-width="4.0" stroke="#c2e1ff56"/><path d="M-4-203l-105-41" stroke-width="4.1" stroke="#005bbb56"/><path d="M35-254l-66-91" stroke-width="4.1" stroke="#005bbb57"/><path d="M-3-116l-102 47" stroke-width="4.1" stroke="#005bbb58"/><path d="M21-243l-78-81" stroke-width="4.1" stroke="#fff50059"/><path d="M-12-146l-111 17" stroke-width="4.2" stroke="#fff59"/><path d="M52-59l-48 103" stroke-width="4.3" stroke="#005bbb5D"/><path d="M97-48l-3 114" stroke-width="4.3" stroke="#c2e1ff5E"/><path d="M209-198l108-35" stroke-width="4.3" stroke="#c2e1ff5E"/><path d="M-12-184l-112-22" stroke-width="4.4" stroke="#c2e1ff5F"/><path d="M100-48l0 115" stroke-width="4.4" stroke="#c2e1ff60"/><path d="M73-51l-27 112" stroke-width="4.4" stroke="#005bbb61"/><path d="M163-259l63-97" stroke-width="4.5" stroke="#005bbb64"/><path d="M174-73l74 89" stroke-width="4.6" stroke="#fff66"/><path d="M-14-141l-114 21" stroke-width="4.6" stroke="#fff50066"/><path d="M54-269l-46-107" stroke-width="4.7" stroke="#c2e1ff68"/><path d="M203-216l103-54" stroke-width="4.7" stroke="#c2e1ff69"/><path d="M164-260l64-98" stroke-width="4.8" stroke="#fff6B"/><path d="M113-47l14 116" stroke-width="4.8" stroke="#c2e1ff6C"/><path d="M54-270l-46-107" stroke-width="4.8" stroke="#fff5006C"/><path d="M11-86l-88 76" stroke-width="4.8" stroke="#fff5006D"/><path d="M44-60l-56 103" stroke-width="4.9" stroke="#fff5006D"/><path d="M63-51l-37 111" stroke-width="4.9" stroke="#fff5006E"/><path d="M130-49l30 113" stroke-width="4.9" stroke="#005bbb6F"/><path d="M186-83l87 79" stroke-width="5.0" stroke="#fff71"/><path d="M85-279l-15-116" stroke-width="5.0" stroke="#fff50071"/><path d="M163-262l63-99" stroke-width="5.0" stroke="#fff72"/><path d="M158-265l58-103" stroke-width="5.2" stroke="#fff78"/><path d="M41-61l-60 102" stroke-width="5.3" stroke="#fff50079"/><path d="M210-120l110 43" stroke-width="5.3" stroke="#fff50079"/><path d="M172-256l72-93" stroke-width="5.3" stroke="#fff5007A"/><path d="M129-277l29-114" stroke-width="5.3" stroke="#fff5007B"/><path d="M109-45l8 118" stroke-width="5.4" stroke="#fff5007B"/><path d="M39-61l-60 101" stroke-width="5.4" stroke="#fff7C"/><path d="M-18-165l-118-3" stroke-width="5.4" stroke="#005bbb7C"/><path d="M128-48l28 115" stroke-width="5.5" stroke="#fff5007E"/><path d="M-12-199l-112-37" stroke-width="5.5" stroke="#fff50080"/><path d="M131-277l31-114" stroke-width="5.6" stroke="#fff50080"/><path d="M-11-203l-111-41" stroke-width="5.6" stroke="#fff50081"/><path d="M211-202l112-40" stroke-width="5.6" stroke="#005bbb82"/><path d="M30-67l-70 95" stroke-width="5.6" stroke="#fff50082"/><path d="M-10-119l-110 43" stroke-width="5.6" stroke="#fff50083"/><path d="M-4-218l-104-55" stroke-width="5.7" stroke="#fff84"/><path d="M147-54l47 108" stroke-width="5.7" stroke="#fff84"/><path d="M59-273l-41-111" stroke-width="5.7" stroke="#005bbb85"/><path d="M-7-114l-108 49" stroke-width="5.7" stroke="#fff86"/><path d="M6-92l-95 71" stroke-width="5.8" stroke="#005bbb86"/><path d="M40-61l-60 101" stroke-width="5.8" stroke="#fff87"/><path d="M218-155l117 8" stroke-width="5.8" stroke="#fff88"/><path d="M170-68l71 94" stroke-width="5.9" stroke="#005bbb89"/><path d="M215-188l115-25" stroke-width="5.9" stroke="#c2e1ff89"/><path d="M189-239l89-77" stroke-width="6.0" stroke="#fff5008C"/><path d="M203-106l103 56" stroke-width="6.0" stroke="#c2e1ff8D"/><path d="M192-90l93 72" stroke-width="6.0" stroke="#fff8D"/><path d="M-3-107l-103 55" stroke-width="6.1" stroke="#c2e1ff91"/><path d="M53-270l-46-107" stroke-width="6.1" stroke="#fff91"/><path d="M176-252l75-89" stroke-width="6.2" stroke="#fff50091"/><path d="M186-84l87 79" stroke-width="6.2" stroke="#005bbb93"/><path d="M80-278l-19-115" stroke-width="6.2" stroke="#c2e1ff93"/><path d="M216-161l115 2" stroke-width="6.4" stroke="#005bbb99"/><path d="M193-95l94 67" stroke-width="6.5" stroke="#005bbb9C"/><path d="M209-125l108 37" stroke-width="6.6" stroke="#fff9D"/><path d="M139-270l39-107" stroke-width="6.7" stroke="#c2e1ffA1"/><path d="M132-271l31-109" stroke-width="6.8" stroke="#c2e1ffA3"/><path d="M45-261l-56-98" stroke-width="6.8" stroke="#fffA5"/><path d="M114-51l14 112" stroke-width="6.8" stroke="#fffA5"/><path d="M80-272l-21-110" stroke-width="6.9" stroke="#005bbbA8"/><path d="M-6-126l-105 36" stroke-width="7.0" stroke="#005bbbA9"/><path d="M10-228l-91-65" stroke-width="7.0" stroke="#fffA9"/><path d="M10-226l-90-64" stroke-width="7.1" stroke="#fffAC"/><path d="M125-55l26 107" stroke-width="7.1" stroke="#fffAC"/><path d="M-9-155l-110 7" stroke-width="7.2" stroke="#c2e1ffAF"/><path d="M24-85l-77 78" stroke-width="7.3" stroke="#005bbbB1"/><path d="M128-57l27 105" stroke-width="7.3" stroke="#005bbbB1"/><path d="M-6-187l-105-24" stroke-width="7.3" stroke="#fffB2"/><path d="M206-153l107 10" stroke-width="7.4" stroke="#005bbbB6"/><path d="M75-60l-26 102" stroke-width="7.5" stroke="#fffB9"/><path d="M146-257l46-95" stroke-width="7.5" stroke="#fffB9"/><path d="M7-211l-94-49" stroke-width="7.5" stroke="#fffB9"/><path d="M65-64l-36 99" stroke-width="7.6" stroke="#fff500BA"/><path d="M51-71l-49 91" stroke-width="7.7" stroke="#c2e1ffBD"/><path d="M201-142l101 21" stroke-width="7.7" stroke="#fffBD"/><path d="M20-226l-80-63" stroke-width="7.8" stroke="#fff500BF"/><path d="M103-264l4-102" stroke-width="7.8" stroke="#c2e1ffBF"/><path d="M191-209l91-46" stroke-width="7.8" stroke="#c2e1ffC0"/><path d="M33-88l-66 74" stroke-width="7.9" stroke="#fff500C3"/><path d="M123-259l23-97" stroke-width="7.9" stroke="#fffC4"/><path d="M144-74l43 88" stroke-width="8.0" stroke="#005bbbC5"/><path d="M3-172l-96-9" stroke-width="8.1" stroke="#005bbbC8"/><path d="M55-78l-45 85" stroke-width="8.1" stroke="#fffC9"/><path d="M27-223l-72-61" stroke-width="8.2" stroke="#005bbbCB"/><path d="M171-100l70 62" stroke-width="8.2" stroke="#fffCC"/><path d="M98-69l-2 93" stroke-width="8.3" stroke="#005bbbCD"/><path d="M141-80l41 83" stroke-width="8.3" stroke="#c2e1ffCF"/><path d="M114-73l14 89" stroke-width="8.4" stroke="#c2e1ffD1"/><path d="M95-73l-5 90" stroke-width="8.4" stroke="#fffD2"/><path d="M182-194l82-32" stroke-width="8.5" stroke="#fffD4"/><path d="M15-176l-85-13" stroke-width="8.6" stroke="#005bbbD7"/><path d="M46-98l-55 64" stroke-width="8.7" stroke="#fffD8"/><path d="M176-200l75-37" stroke-width="8.7" stroke="#fff500D8"/><path d="M64-89l-36 74" stroke-width="8.7" stroke="#005bbbDB"/><path d="M46-220l-54-58" stroke-width="8.8" stroke="#005bbbDE"/><path d="M25-151l-76 11" stroke-width="8.9" stroke="#c2e1ffE0"/><path d="M48-216l-52-54" stroke-width="9.0" stroke="#005bbbE2"/><path d="M137-225l38-62" stroke-width="9.0" stroke="#005bbbE3"/><path d="M71-229l-29-66" stroke-width="9.1" stroke="#c2e1ffE4"/><path d="M166-185l66-22" stroke-width="9.1" stroke="#005bbbE6"/><path d="M158-126l58 37" stroke-width="9.2" stroke="#fffE7"/><path d="M124-103l25 59" stroke-width="9.3" stroke="#fff500EA"/><path d="M42-170l-58-8" stroke-width="9.4" stroke="#c2e1ffEE"/><path d="M64-205l-36-42" stroke-width="9.5" stroke="#fffF0"/><path d="M48-179l-52-17" stroke-width="9.5" stroke="#005bbbF0"/><path d="M58-194l-43-32" stroke-width="9.5" stroke="#fff500F1"/><path d="M136-194l36-32" stroke-width="9.6" stroke="#005bbbF4"/><path d="M83-119l-17 44" stroke-width="9.6" stroke="#fff500F4"/><path d="M58-144l-42 18" stroke-width="9.7" stroke="#fffF5"/><path d="M64-189l-36-26" stroke-width="9.7" stroke="#fff500F5"/><path d="M136-148l35 14" stroke-width="9.8" stroke="#fffF8"/><path d="M133-182l32-20" stroke-width="9.8" stroke="#fffF8"/><path d="M88-193l-12-30" stroke-width="9.8" stroke="#fff500FA"/><path d="M124-141l25 21" stroke-width="9.8" stroke="#fffFA"/><path d="M77-167l-24-4" stroke-width="9.9" stroke="#c2e1ffFC"/><path d="M102-171l2-9" stroke-width="10.0" stroke="#005bbbFE"/></g></svg>