<svg width="1200" height="675" viewBox="-500 -500 1200 675" xmlns="http://www.w3.org/2000/svg"><path d="M-500-500h1200v675h-1200z" fill="#000"/><style>.sparkles path{stroke-linecap:round}</style><g class="sparkles"><path d="M98-159l-2 4" stroke-width="1.0" stroke="#073b4c0"/><path d="M101-150l2 12" stroke-width="1.0" stroke="#ef476f0"/><path d="M86-177l-14-15" stroke-width="1.1" stroke="#118ab21"/><path d="M111-180l10-17" stroke-width="1.1" stroke="#073b4c1"/><path d="M81-144l-20 18" stroke-width="1.1" stroke="#073b4c3"/><path d="M118-193l17-31" stroke-width="1.2" stroke="#ffd1665"/><path d="M104-200l4-38" stroke-width="1.2" stroke="#06d6a06"/><path d="M125-128l25 34" stroke-width="1.3" stroke="#ffd1668"/><path d="M97-205l-2-43" stroke-width="1.3" stroke="#ef476f8"/><path d="M113-205l14-43" stroke-width="1.3" stroke="#ef476f9"/><path d="M48-153l-51 10" stroke-width="1.5" stroke="#06d6a0D"/><path d="M145-195l45-32" stroke-width="1.5" stroke="#073b4cE"/><path d="M134-206l34-44" stroke-width="1.5" stroke="#118ab2F"/><path d="M42-170l-58-8" stroke-width="1.6" stroke="#073b4c10"/><path d="M157-148l57 14" stroke-width="1.6" stroke="#ef476f10"/><path d="M72-110l-27 53" stroke-width="1.6" stroke="#118ab211"/><path d="M68-111l-33 51" stroke-width="1.6" stroke="#073b4c12"/><path d="M57-112l-43 50" stroke-width="1.8" stroke="#ffd16615"/><path d="M33-158l-66 4" stroke-width="1.8" stroke="#118ab216"/><path d="M158-199l57-36" stroke-width="1.8" stroke="#118ab217"/><path d="M40-124l-59 39" stroke-width="1.9" stroke="#ffd16619"/><path d="M44-118l-56 45" stroke-width="1.9" stroke="#073b4c1A"/><path d="M127-235l27-73" stroke-width="2.1" stroke="#ffd1661F"/><path d="M172-194l73-31" stroke-width="2.2" stroke="#118ab220"/><path d="M102-243l3-80" stroke-width="2.2" stroke="#06d6a022"/><path d="M25-132l-75 30" stroke-width="2.2" stroke="#ef476f22"/><path d="M56-94l-44 68" stroke-width="2.2" stroke="#ffd16623"/><path d="M21-185l-79-23" stroke-width="2.3" stroke="#ffd16623"/><path d="M162-220l62-57" stroke-width="2.3" stroke="#118ab226"/><path d="M124-82l25 81" stroke-width="2.3" stroke="#073b4c26"/><path d="M20-189l-81-27" stroke-width="2.4" stroke="#118ab226"/><path d="M134-241l34-78" stroke-width="2.4" stroke="#ffd16627"/><path d="M185-171l86-9" stroke-width="2.4" stroke="#06d6a027"/><path d="M128-81l28 81" stroke-width="2.4" stroke="#ef476f27"/><path d="M68-245l-32-82" stroke-width="2.5" stroke="#118ab22B"/><path d="M83-251l-16-88" stroke-width="2.6" stroke="#06d6a02C"/><path d="M165-225l65-63" stroke-width="2.6" stroke="#ef476f2D"/><path d="M27-217l-74-54" stroke-width="2.6" stroke="#118ab22E"/><path d="M140-246l40-84" stroke-width="2.7" stroke="#06d6a030"/><path d="M196-151l96 11" stroke-width="2.9" stroke="#06d6a036"/><path d="M195-141l96 21" stroke-width="3.0" stroke="#06d6a037"/><path d="M28-229l-72-66" stroke-width="3.0" stroke="#ffd16638"/><path d="M5-189l-94-27" stroke-width="3.0" stroke="#118ab238"/><path d="M200-160l101 2" stroke-width="3.1" stroke="#073b4c3C"/><path d="M178-97l78 66" stroke-width="3.2" stroke="#073b4c3E"/><path d="M65-66l-34 96" stroke-width="3.2" stroke="#073b4c3F"/><path d="M157-248l57-86" stroke-width="3.3" stroke="#06d6a040"/><path d="M13-218l-88-55" stroke-width="3.3" stroke="#06d6a041"/><path d="M199-126l98 36" stroke-width="3.4" stroke="#118ab245"/><path d="M196-205l96-43" stroke-width="3.4" stroke="#ef476f45"/><path d="M11-222l-88-60" stroke-width="3.6" stroke="#06d6a049"/><path d="M37-76l-64 86" stroke-width="3.6" stroke="#ffd16649"/><path d="M142-64l43 99" stroke-width="3.6" stroke="#073b4c4A"/><path d="M130-266l31-104" stroke-width="3.7" stroke="#ffd1664B"/><path d="M62-264l-38-101" stroke-width="3.7" stroke="#118ab24C"/><path d="M54-63l-45 99" stroke-width="3.8" stroke="#06d6a04E"/><path d="M48-65l-51 97" stroke-width="3.9" stroke="#073b4c51"/><path d="M119-271l19-109" stroke-width="3.9" stroke="#118ab252"/><path d="M163-254l62-91" stroke-width="3.9" stroke="#ef476f52"/><path d="M211-170l110-8" stroke-width="3.9" stroke="#06d6a053"/><path d="M140-59l40 104" stroke-width="4.0" stroke="#ffd16654"/><path d="M-9-188l-109-25" stroke-width="4.1" stroke="#118ab256"/><path d="M3-105l-96 57" stroke-width="4.1" stroke="#ef476f57"/><path d="M-4-121l-105 42" stroke-width="4.1" stroke="#073b4c58"/><path d="M158-66l59 97" stroke-width="4.2" stroke="#073b4c5A"/><path d="M117-50l17 112" stroke-width="4.2" stroke="#ef476f5B"/><path d="M-10-190l-110-28" stroke-width="4.2" stroke="#073b4c5B"/><path d="M76-275l-23-112" stroke-width="4.4" stroke="#06d6a061"/><path d="M215-160l115 2" stroke-width="4.4" stroke="#06d6a061"/><path d="M128-275l27-112" stroke-width="4.6" stroke="#06d6a064"/><path d="M200-221l100-58" stroke-width="4.6" stroke="#ffd16666"/><path d="M186-240l86-78" stroke-width="4.6" stroke="#06d6a067"/><path d="M32-68l-67 94" stroke-width="4.7" stroke="#ef476f67"/><path d="M126-276l26-113" stroke-width="4.7" stroke="#ffd16668"/><path d="M216-157l117 5" stroke-width="4.8" stroke="#118ab26B"/><path d="M154-266l54-104" stroke-width="4.8" stroke="#06d6a06C"/><path d="M119-278l19-115" stroke-width="4.9" stroke="#ffd1666E"/><path d="M145-54l44 108" stroke-width="4.9" stroke="#073b4c6E"/><path d="M96-280l-4-117" stroke-width="4.9" stroke="#073b4c6F"/><path d="M-14-192l-114-29" stroke-width="5.1" stroke="#06d6a074"/><path d="M218-157l117 5" stroke-width="5.1" stroke="#ef476f74"/><path d="M213-194l114-32" stroke-width="5.2" stroke="#ffd16676"/><path d="M122-278l22-116" stroke-width="5.2" stroke="#06d6a077"/><path d="M107-45l7 118" stroke-width="5.4" stroke="#06d6a07B"/><path d="M-11-122l-111 40" stroke-width="5.4" stroke="#06d6a07C"/><path d="M207-212l107-49" stroke-width="5.4" stroke="#ef476f7C"/><path d="M217-150l118 12" stroke-width="5.4" stroke="#073b4c7D"/><path d="M-9-117l-109 46" stroke-width="5.5" stroke="#118ab27F"/><path d="M72-277l-29-115" stroke-width="5.5" stroke="#ef476f7F"/><path d="M189-240l89-77" stroke-width="5.7" stroke="#06d6a086"/><path d="M22-251l-77-89" stroke-width="5.8" stroke="#118ab287"/><path d="M125-47l25 115" stroke-width="5.8" stroke="#118ab289"/><path d="M116-279l16-117" stroke-width="5.9" stroke="#ef476f89"/><path d="M26-71l-74 92" stroke-width="5.9" stroke="#ffd16689"/><path d="M-18-159l-117 4" stroke-width="5.9" stroke="#ef476f8A"/><path d="M0-100l-99 62" stroke-width="6.0" stroke="#ffd1668D"/><path d="M217-155l117 7" stroke-width="6.0" stroke="#073b4c8D"/><path d="M-10-124l-110 39" stroke-width="6.2" stroke="#073b4c93"/><path d="M-16-171l-116-8" stroke-width="6.3" stroke="#073b4c95"/><path d="M153-61l53 101" stroke-width="6.6" stroke="#ffd1669E"/><path d="M96-48l-5 114" stroke-width="6.6" stroke="#073b4c9E"/><path d="M203-113l104 49" stroke-width="6.6" stroke="#ef476f9E"/><path d="M38-258l-62-96" stroke-width="6.7" stroke="#06d6a0A0"/><path d="M154-263l55-100" stroke-width="6.7" stroke="#118ab2A1"/><path d="M-13-151l-113 11" stroke-width="6.7" stroke="#06d6a0A1"/><path d="M170-252l69-90" stroke-width="6.7" stroke="#ef476fA1"/><path d="M200-109l99 54" stroke-width="6.8" stroke="#118ab2A3"/><path d="M151-263l52-101" stroke-width="6.8" stroke="#118ab2A4"/><path d="M3-219l-98-56" stroke-width="6.9" stroke="#ef476fA6"/><path d="M180-84l80 78" stroke-width="6.9" stroke="#118ab2A7"/><path d="M192-224l92-62" stroke-width="7.1" stroke="#073b4cAC"/><path d="M205-197l105-34" stroke-width="7.1" stroke="#ef476fAC"/><path d="M52-262l-48-99" stroke-width="7.1" stroke="#06d6a0AC"/><path d="M27-80l-74 82" stroke-width="7.1" stroke="#073b4cAD"/><path d="M37-72l-63 90" stroke-width="7.1" stroke="#ef476fAD"/><path d="M35-251l-64-89" stroke-width="7.1" stroke="#118ab2AE"/><path d="M167-249l68-86" stroke-width="7.2" stroke="#06d6a0AF"/><path d="M34-250l-66-87" stroke-width="7.2" stroke="#ffd166AF"/><path d="M198-211l97-49" stroke-width="7.2" stroke="#06d6a0B0"/><path d="M-3-192l-104-29" stroke-width="7.4" stroke="#06d6a0B4"/><path d="M201-197l101-35" stroke-width="7.4" stroke="#06d6a0B5"/><path d="M128-265l27-103" stroke-width="7.4" stroke="#ffd166B6"/><path d="M202-191l102-29" stroke-width="7.5" stroke="#06d6a0B8"/><path d="M125-265l26-102" stroke-width="7.5" stroke="#118ab2B9"/><path d="M53-256l-48-94" stroke-width="7.6" stroke="#ef476fB9"/><path d="M7-115l-94 48" stroke-width="7.6" stroke="#ffd166BA"/><path d="M193-210l93-47" stroke-width="7.6" stroke="#073b4cBB"/><path d="M193-210l92-48" stroke-width="7.6" stroke="#ffd166BB"/><path d="M188-107l87 56" stroke-width="7.7" stroke="#ffd166BC"/><path d="M17-224l-84-62" stroke-width="7.7" stroke="#ffd166BC"/><path d="M1-193l-99-31" stroke-width="7.7" stroke="#ffd166BD"/><path d="M75-62l-25 100" stroke-width="7.7" stroke="#073b4cBD"/><path d="M202-148l102 15" stroke-width="7.7" stroke="#073b4cBD"/><path d="M40-79l-60 83" stroke-width="7.7" stroke="#118ab2BE"/><path d="M0-184l-101-22" stroke-width="7.7" stroke="#073b4cBE"/><path d="M41-80l-59 83" stroke-width="7.8" stroke="#118ab2C0"/><path d="M77-260l-23-98" stroke-width="7.9" stroke="#ffd166C2"/><path d="M67-68l-33 95" stroke-width="7.9" stroke="#06d6a0C3"/><path d="M120-261l20-98" stroke-width="7.9" stroke="#118ab2C3"/><path d="M54-74l-46 88" stroke-width="7.9" stroke="#06d6a0C4"/><path d="M183-216l83-54" stroke-width="8.0" stroke="#073b4cC5"/><path d="M141-253l40-90" stroke-width="8.0" stroke="#073b4cC5"/><path d="M27-219l-73-57" stroke-width="8.3" stroke="#118ab2CF"/><path d="M142-244l42-82" stroke-width="8.3" stroke="#ef476fCF"/><path d="M192-162l92 0" stroke-width="8.3" stroke="#ef476fCF"/><path d="M83-73l-17 90" stroke-width="8.4" stroke="#ffd166D0"/><path d="M12-187l-87-24" stroke-width="8.4" stroke="#118ab2D1"/><path d="M17-135l-83 27" stroke-width="8.5" stroke="#ffd166D5"/><path d="M156-95l55 67" stroke-width="8.5" stroke="#073b4cD5"/><path d="M170-110l69 52" stroke-width="8.5" stroke="#118ab2D5"/><path d="M183-187l83-25" stroke-width="8.6" stroke="#ffd166D6"/><path d="M64-84l-36 78" stroke-width="8.6" stroke="#118ab2D6"/><path d="M24-132l-75 31" stroke-width="8.7" stroke="#073b4cDB"/><path d="M30-196l-71-34" stroke-width="8.9" stroke="#ffd166DF"/><path d="M107-239l8-77" stroke-width="8.9" stroke="#ffd166DF"/><path d="M27-144l-72 18" stroke-width="9.0" stroke="#073b4cE2"/><path d="M35-199l-65-37" stroke-width="9.0" stroke="#118ab2E2"/><path d="M45-119l-55 44" stroke-width="9.1" stroke="#ffd166E5"/><path d="M66-223l-33-61" stroke-width="9.1" stroke="#ffd166E6"/><path d="M161-139l61 23" stroke-width="9.3" stroke="#06d6a0E9"/><path d="M99-227l-1-64" stroke-width="9.3" stroke="#ffd166EA"/><path d="M41-144l-60 19" stroke-width="9.3" stroke="#073b4cEB"/><path d="M131-214l31-52" stroke-width="9.4" stroke="#ffd166ED"/><path d="M138-118l39 44" stroke-width="9.4" stroke="#073b4cEE"/><path d="M149-130l49 32" stroke-width="9.4" stroke="#ef476fEE"/><path d="M61-202l-39-40" stroke-width="9.5" stroke="#073b4cF0"/><path d="M144-134l45 29" stroke-width="9.5" stroke="#118ab2F1"/><path d="M153-162l52 0" stroke-width="9.5" stroke="#ffd166F1"/><path d="M148-181l49-19" stroke-width="9.5" stroke="#06d6a0F2"/><path d="M52-153l-48 10" stroke-width="9.6" stroke="#06d6a0F3"/><path d="M134-131l33 31" stroke-width="9.6" stroke="#118ab2F4"/><path d="M107-207l6-45" stroke-width="9.7" stroke="#073b4cF5"/><path d="M99-121l-1 42" stroke-width="9.7" stroke="#06d6a0F6"/><path d="M133-179l32-17" stroke-width="9.8" stroke="#073b4cF8"/><path d="M136-157l36 6" stroke-width="9.8" stroke="#ffd166F8"/><path d="M88-186l-13-23" stroke-width="9.9" stroke="#073b4cFB"/><path d="M113-183l13-21" stroke-width="9.9" stroke="#073b4cFC"/><path d="M105-142l5 21" stroke-width="9.9" stroke="#06d6a0FC"/><path d="M106-143l6 19" stroke-width="9.9" stroke="#118ab2FD"/><path d="M97-177l-3-14" stroke-width="10.0" stroke="#118ab2FE"/><path d="M92-174l-9-12" stroke-width="10.0" stroke="#ffd166FE"/></g></svg>