<svg width="1200" height="675" viewBox="-500 -500 1200 675" xmlns="http://www.w3.org/2000/svg"><path d="M-500-500h1200v675h-1200z" fill="#000"/><style>.sparkles path{stroke-linecap:round}</style><g class="sparkles"><path d="M106-144l6 18" stroke-width="1.1" stroke="#c2e1ff1"/><path d="M124-150l25 12" stroke-width="1.1" stroke="#c2e1ff3"/><path d="M73-173l-27-10" stroke-width="1.1" stroke="#c2e1ff3"/><path d="M136-159l36 4" stroke-width="1.2" stroke="#fff6"/><path d="M68-183l-31-21" stroke-width="1.2" stroke="#005bbb6"/><path d="M82-117l-17 46" stroke-width="1.4" stroke="#fffB"/><path d="M134-205l33-42" stroke-width="1.5" stroke="#c2e1ffE"/><path d="M154-150l54 12" stroke-width="1.5" stroke="#fffE"/><path d="M59-210l-42-47" stroke-width="1.7" stroke="#fff50013"/><path d="M100-227l0-65" stroke-width="1.7" stroke="#c2e1ff14"/><path d="M147-207l48-44" stroke-width="1.7" stroke="#fff14"/><path d="M159-134l59 28" stroke-width="1.8" stroke="#fff50015"/><path d="M61-215l-39-53" stroke-width="1.8" stroke="#c2e1ff15"/><path d="M134-220l34-58" stroke-width="1.8" stroke="#c2e1ff16"/><path d="M119-98l19 65" stroke-width="1.8" stroke="#fff50016"/><path d="M50-210l-50-48" stroke-width="1.9" stroke="#005bbb18"/><path d="M86-94l-15 68" stroke-width="1.9" stroke="#c2e1ff18"/><path d="M41-202l-58-40" stroke-width="1.9" stroke="#c2e1ff19"/><path d="M41-123l-60 39" stroke-width="1.9" stroke="#c2e1ff19"/><path d="M63-99l-36 63" stroke-width="2.0" stroke="#fff1B"/><path d="M143-222l43-59" stroke-width="2.0" stroke="#005bbb1B"/><path d="M145-222l44-59" stroke-width="2.0" stroke="#c2e1ff1C"/><path d="M94-237l-6-74" stroke-width="2.0" stroke="#fff5001C"/><path d="M177-153l77 9" stroke-width="2.1" stroke="#005bbb1F"/><path d="M128-236l27-73" stroke-width="2.1" stroke="#fff20"/><path d="M63-93l-36 70" stroke-width="2.1" stroke="#fff50020"/><path d="M151-101l50 62" stroke-width="2.2" stroke="#fff50021"/><path d="M35-112l-66 51" stroke-width="2.3" stroke="#fff24"/><path d="M178-130l77 32" stroke-width="2.3" stroke="#c2e1ff25"/><path d="M156-97l55 66" stroke-width="2.4" stroke="#c2e1ff28"/><path d="M52-90l-49 73" stroke-width="2.5" stroke="#c2e1ff29"/><path d="M118-75l19 88" stroke-width="2.6" stroke="#fff2C"/><path d="M182-201l81-39" stroke-width="2.6" stroke="#fff2D"/><path d="M12-136l-88 26" stroke-width="2.7" stroke="#c2e1ff2F"/><path d="M82-253l-18-90" stroke-width="2.7" stroke="#fff5002F"/><path d="M143-244l44-82" stroke-width="2.7" stroke="#005bbb30"/><path d="M111-255l11-92" stroke-width="2.7" stroke="#005bbb30"/><path d="M154-238l55-75" stroke-width="2.7" stroke="#005bbb30"/><path d="M128-252l28-89" stroke-width="2.7" stroke="#c2e1ff31"/><path d="M21-113l-79 50" stroke-width="2.8" stroke="#c2e1ff31"/><path d="M194-162l94 0" stroke-width="2.8" stroke="#c2e1ff32"/><path d="M172-100l72 63" stroke-width="2.9" stroke="#fff50034"/><path d="M191-192l91-30" stroke-width="2.9" stroke="#fff50034"/><path d="M187-118l88 45" stroke-width="3.0" stroke="#fff50038"/><path d="M112-64l12 99" stroke-width="3.1" stroke="#c2e1ff3A"/><path d="M1-170l-100-8" stroke-width="3.1" stroke="#fff3B"/><path d="M156-80l56 83" stroke-width="3.1" stroke="#fff3B"/><path d="M44-79l-55 83" stroke-width="3.1" stroke="#fff5003B"/><path d="M137-69l37 94" stroke-width="3.2" stroke="#fff3D"/><path d="M129-260l29-97" stroke-width="3.2" stroke="#fff3D"/><path d="M199-188l99-26" stroke-width="3.3" stroke="#fff50040"/><path d="M79-61l-21 101" stroke-width="3.3" stroke="#005bbb41"/><path d="M79-60l-22 102" stroke-width="3.4" stroke="#fff50044"/><path d="M202-187l103-24" stroke-width="3.5" stroke="#005bbb45"/><path d="M1-200l-98-37" stroke-width="3.5" stroke="#005bbb45"/><path d="M25-238l-74-76" stroke-width="3.6" stroke="#005bbb48"/><path d="M0-200l-100-38" stroke-width="3.6" stroke="#005bbb49"/><path d="M16-230l-83-68" stroke-width="3.6" stroke="#005bbb4A"/><path d="M3-113l-96 49" stroke-width="3.7" stroke="#005bbb4C"/><path d="M41-70l-58 93" stroke-width="3.8" stroke="#fff50050"/><path d="M-7-133l-107 30" stroke-width="3.9" stroke="#c2e1ff53"/><path d="M82-273l-18-111" stroke-width="4.1" stroke="#c2e1ff57"/><path d="M103-50l3 112" stroke-width="4.1" stroke="#fff50057"/><path d="M96-50l-4 112" stroke-width="4.1" stroke="#005bbb58"/><path d="M38-69l-62 94" stroke-width="4.1" stroke="#005bbb58"/><path d="M200-214l100-52" stroke-width="4.2" stroke="#fff50059"/><path d="M67-270l-33-108" stroke-width="4.2" stroke="#fff50059"/><path d="M161-257l62-95" stroke-width="4.2" stroke="#fff50059"/><path d="M210-189l110-27" stroke-width="4.2" stroke="#005bbb5A"/><path d="M212-137l111 25" stroke-width="4.4" stroke="#c2e1ff5F"/><path d="M215-160l114 3" stroke-width="4.4" stroke="#fff60"/><path d="M129-274l29-111" stroke-width="4.4" stroke="#fff61"/><path d="M211-131l111 31" stroke-width="4.5" stroke="#fff50062"/><path d="M-15-154l-114 9" stroke-width="4.5" stroke="#005bbb62"/><path d="M5-228l-94-66" stroke-width="4.5" stroke="#c2e1ff63"/><path d="M7-231l-93-69" stroke-width="4.6" stroke="#fff65"/><path d="M216-162l115 1" stroke-width="4.6" stroke="#fff66"/><path d="M191-234l91-72" stroke-width="4.7" stroke="#fff50067"/><path d="M210-198l111-36" stroke-width="4.7" stroke="#c2e1ff67"/><path d="M16-82l-84 80" stroke-width="4.7" stroke="#fff69"/><path d="M207-116l106 47" stroke-width="4.7" stroke="#fff69"/><path d="M-13-193l-112-31" stroke-width="4.8" stroke="#fff6C"/><path d="M43-60l-57 102" stroke-width="4.9" stroke="#fff6D"/><path d="M-3-218l-103-55" stroke-width="4.9" stroke="#005bbb6E"/><path d="M159-61l59 101" stroke-width="4.9" stroke="#c2e1ff6E"/><path d="M151-268l51-105" stroke-width="4.9" stroke="#005bbb6E"/><path d="M134-50l34 112" stroke-width="5.0" stroke="#fff50071"/><path d="M109-45l10 117" stroke-width="5.0" stroke="#005bbb71"/><path d="M40-62l-61 101" stroke-width="5.0" stroke="#c2e1ff71"/><path d="M207-115l108 48" stroke-width="5.0" stroke="#005bbb72"/><path d="M147-55l46 108" stroke-width="5.1" stroke="#fff50072"/><path d="M104-280l4-117" stroke-width="5.1" stroke="#fff72"/><path d="M-18-169l-117-7" stroke-width="5.1" stroke="#fff50075"/><path d="M-17-149l-117 13" stroke-width="5.2" stroke="#fff76"/><path d="M-2-103l-102 59" stroke-width="5.2" stroke="#c2e1ff77"/><path d="M-18-157l-118 6" stroke-width="5.2" stroke="#c2e1ff78"/><path d="M34-64l-65 98" stroke-width="5.3" stroke="#fff7A"/><path d="M-12-199l-112-37" stroke-width="5.3" stroke="#005bbb7A"/><path d="M-18-155l-118 8" stroke-width="5.4" stroke="#005bbb7C"/><path d="M215-137l116 26" stroke-width="5.4" stroke="#c2e1ff7D"/><path d="M9-238l-90-76" stroke-width="5.6" stroke="#fff82"/><path d="M204-107l104 56" stroke-width="5.7" stroke="#005bbb85"/><path d="M177-252l77-89" stroke-width="5.8" stroke="#c2e1ff87"/><path d="M185-81l86 81" stroke-width="5.8" stroke="#005bbb87"/><path d="M41-60l-59 102" stroke-width="5.8" stroke="#005bbb87"/><path d="M145-54l46 109" stroke-width="5.8" stroke="#005bbb88"/><path d="M134-50l35 113" stroke-width="5.9" stroke="#005bbb89"/><path d="M124-48l25 115" stroke-width="6.0" stroke="#c2e1ff8E"/><path d="M147-55l46 108" stroke-width="6.0" stroke="#c2e1ff8E"/><path d="M134-274l35-112" stroke-width="6.1" stroke="#fff50091"/><path d="M48-58l-52 105" stroke-width="6.2" stroke="#005bbb92"/><path d="M70-275l-29-113" stroke-width="6.2" stroke="#fff92"/><path d="M5-96l-96 67" stroke-width="6.3" stroke="#fff95"/><path d="M-8-204l-108-42" stroke-width="6.4" stroke="#c2e1ff99"/><path d="M201-220l100-57" stroke-width="6.4" stroke="#fff99"/><path d="M3-225l-96-62" stroke-width="6.5" stroke="#fff9C"/><path d="M75-51l-26 111" stroke-width="6.6" stroke="#fff5009F"/><path d="M38-258l-63-95" stroke-width="6.7" stroke="#fff500A0"/><path d="M102-49l3 114" stroke-width="6.7" stroke="#fff500A1"/><path d="M-13-151l-113 11" stroke-width="6.8" stroke="#c2e1ffA3"/><path d="M-4-118l-105 44" stroke-width="6.8" stroke="#fff500A3"/><path d="M154-63l54 100" stroke-width="6.8" stroke="#fff500A3"/><path d="M210-136l110 27" stroke-width="6.8" stroke="#fff500A3"/><path d="M213-159l113 3" stroke-width="6.8" stroke="#005bbbA3"/><path d="M161-257l61-95" stroke-width="6.8" stroke="#005bbbA5"/><path d="M5-219l-96-56" stroke-width="7.1" stroke="#005bbbAB"/><path d="M201-119l101 44" stroke-width="7.1" stroke="#005bbbAD"/><path d="M-2-198l-102-36" stroke-width="7.3" stroke="#fffB3"/><path d="M202-129l101 33" stroke-width="7.4" stroke="#c2e1ffB5"/><path d="M96-269l-5-106" stroke-width="7.5" stroke="#005bbbB7"/><path d="M22-234l-77-71" stroke-width="7.5" stroke="#fffB8"/><path d="M25-236l-75-74" stroke-width="7.5" stroke="#fffB9"/><path d="M-3-155l-103 8" stroke-width="7.7" stroke="#fffBD"/><path d="M58-69l-42 93" stroke-width="7.8" stroke="#fff500BF"/><path d="M2-132l-97 31" stroke-width="7.8" stroke="#fff500BF"/><path d="M2-134l-97 29" stroke-width="7.8" stroke="#005bbbC0"/><path d="M74-260l-25-97" stroke-width="7.9" stroke="#fffC2"/><path d="M198-183l98-20" stroke-width="7.9" stroke="#c2e1ffC3"/><path d="M127-67l26 96" stroke-width="7.9" stroke="#fff500C4"/><path d="M30-233l-69-71" stroke-width="7.9" stroke="#fff500C4"/><path d="M61-253l-40-91" stroke-width="8.0" stroke="#005bbbC5"/><path d="M30-232l-70-70" stroke-width="8.0" stroke="#005bbbC5"/><path d="M88-68l-12 95" stroke-width="8.1" stroke="#fff500CA"/><path d="M181-115l82 47" stroke-width="8.2" stroke="#c2e1ffCC"/><path d="M180-116l80 47" stroke-width="8.3" stroke="#005bbbCE"/><path d="M135-245l34-82" stroke-width="8.4" stroke="#c2e1ffD3"/><path d="M18-131l-82 31" stroke-width="8.5" stroke="#005bbbD4"/><path d="M89-76l-10 87" stroke-width="8.5" stroke="#005bbbD5"/><path d="M146-88l45 74" stroke-width="8.5" stroke="#c2e1ffD5"/><path d="M172-115l72 48" stroke-width="8.6" stroke="#fff500D6"/><path d="M59-88l-41 75" stroke-width="8.6" stroke="#c2e1ffD7"/><path d="M182-176l83-13" stroke-width="8.7" stroke="#c2e1ffD9"/><path d="M20-146l-80 16" stroke-width="8.8" stroke="#fffDB"/><path d="M171-199l71-37" stroke-width="8.8" stroke="#c2e1ffDD"/><path d="M59-229l-41-67" stroke-width="8.9" stroke="#fff500DE"/><path d="M110-240l10-78" stroke-width="8.9" stroke="#005bbbDE"/><path d="M170-198l70-36" stroke-width="8.9" stroke="#fffDE"/><path d="M76-89l-24 74" stroke-width="8.9" stroke="#005bbbDF"/><path d="M67-92l-32 70" stroke-width="8.9" stroke="#fffDF"/><path d="M147-208l47-45" stroke-width="9.3" stroke="#fff500E9"/><path d="M137-118l37 45" stroke-width="9.4" stroke="#fffEE"/><path d="M126-212l26-49" stroke-width="9.5" stroke="#fff500F0"/><path d="M109-215l10-53" stroke-width="9.5" stroke="#fffF1"/><path d="M89-110l-12 53" stroke-width="9.5" stroke="#fff500F1"/><path d="M145-189l44-27" stroke-width="9.5" stroke="#c2e1ffF1"/><path d="M150-162l51 0" stroke-width="9.6" stroke="#fffF2"/><path d="M142-136l42 27" stroke-width="9.6" stroke="#fffF3"/><path d="M140-136l40 27" stroke-width="9.6" stroke="#fffF3"/><path d="M79-205l-21-43" stroke-width="9.6" stroke="#fffF4"/><path d="M141-188l40-25" stroke-width="9.6" stroke="#005bbbF4"/><path d="M68-130l-31 33" stroke-width="9.7" stroke="#fff500F5"/><path d="M118-122l17 40" stroke-width="9.7" stroke="#fff500F5"/><path d="M102-203l1-40" stroke-width="9.7" stroke="#005bbbF7"/><path d="M139-160l38 3" stroke-width="9.8" stroke="#fffF7"/><path d="M135-178l34-16" stroke-width="9.8" stroke="#fffF8"/><path d="M98-132l-2 30" stroke-width="9.8" stroke="#fff500FA"/><path d="M125-160l25 3" stroke-width="9.9" stroke="#fffFC"/><path d="M117-164l17-1" stroke-width="10.0" stroke="#c2e1ffFD"/><path d="M113-160l14 2" stroke-width="10.0" stroke="#c2e1ffFE"/><path d="M107-170l8-8" stroke-width="10.0" stroke="#fff500FE"/><path d="M95-166l-5-4" stroke-width="10.0" stroke="#fffFE"/></g></svg>