<svg width="1200" height="675" viewBox="-500 -500 1200 675" xmlns="http://www.w3.org/2000/svg"><path d="M-500-500h1200v675h-1200z" fill="#000"/><style>.sparkles path{stroke-linecap:round}</style><g class="sparkles"><path d="M125-156l25 7" stroke-width="1.1" stroke="#fff5003"/><path d="M125-143l25 19" stroke-width="1.2" stroke="#005bbb4"/><path d="M100-120l1 42" stroke-width="1.3" stroke="#c2e1ff8"/><path d="M143-154l44 8" stroke-width="1.3" stroke="#fff9"/><path d="M93-207l-7-44" stroke-width="1.3" stroke="#fff9"/><path d="M53-151l-46 12" stroke-width="1.4" stroke="#fff500B"/><path d="M44-140l-56 22" stroke-width="1.6" stroke="#c2e1ff11"/><path d="M29-179l-70-17" stroke-width="1.9" stroke="#005bbb1A"/><path d="M163-207l62-44" stroke-width="2.1" stroke="#fff1E"/><path d="M87-240l-14-78" stroke-width="2.2" stroke="#fff50020"/><path d="M152-99l52 63" stroke-width="2.3" stroke="#c2e1ff23"/><path d="M171-208l71-46" stroke-width="2.3" stroke="#005bbb26"/><path d="M180-127l79 35" stroke-width="2.5" stroke="#005bbb29"/><path d="M153-232l52-70" stroke-width="2.5" stroke="#fff50029"/><path d="M5-167l-95-5" stroke-width="2.8" stroke="#c2e1ff33"/><path d="M7-142l-93 21" stroke-width="2.8" stroke="#c2e1ff33"/><path d="M5-174l-94-11" stroke-width="2.8" stroke="#c2e1ff34"/><path d="M163-238l62-75" stroke-width="3.0" stroke="#fff50038"/><path d="M124-67l23 95" stroke-width="3.0" stroke="#005bbb38"/><path d="M113-261l14-98" stroke-width="3.1" stroke="#fff3A"/><path d="M199-173l100-11" stroke-width="3.1" stroke="#c2e1ff3B"/><path d="M47-247l-53-85" stroke-width="3.1" stroke="#fff3B"/><path d="M195-197l95-34" stroke-width="3.2" stroke="#fff5003D"/><path d="M13-110l-87 53" stroke-width="3.2" stroke="#fff3E"/><path d="M1-186l-100-23" stroke-width="3.2" stroke="#c2e1ff3F"/><path d="M160-79l60 83" stroke-width="3.3" stroke="#fff3F"/><path d="M181-229l80-66" stroke-width="3.4" stroke="#005bbb43"/><path d="M192-214l93-51" stroke-width="3.5" stroke="#005bbb46"/><path d="M171-83l70 79" stroke-width="3.5" stroke="#c2e1ff47"/><path d="M183-95l82 67" stroke-width="3.5" stroke="#fff47"/><path d="M207-165l106-2" stroke-width="3.6" stroke="#fff50048"/><path d="M-3-193l-103-31" stroke-width="3.6" stroke="#c2e1ff4A"/><path d="M187-99l87 63" stroke-width="3.6" stroke="#fff5004A"/><path d="M33-247l-67-85" stroke-width="3.7" stroke="#fff4C"/><path d="M133-266l32-103" stroke-width="3.7" stroke="#005bbb4C"/><path d="M47-67l-54 95" stroke-width="3.8" stroke="#c2e1ff4E"/><path d="M210-164l109-1" stroke-width="3.8" stroke="#005bbb50"/><path d="M134-267l33-105" stroke-width="3.9" stroke="#fff50"/><path d="M112-272l12-110" stroke-width="3.9" stroke="#fff50052"/><path d="M137-267l36-105" stroke-width="3.9" stroke="#fff53"/><path d="M-11-174l-110-11" stroke-width="4.0" stroke="#fff50054"/><path d="M211-163l112-1" stroke-width="4.0" stroke="#c2e1ff55"/><path d="M35-71l-65 92" stroke-width="4.1" stroke="#fff58"/><path d="M164-70l63 93" stroke-width="4.1" stroke="#fff58"/><path d="M212-148l111 14" stroke-width="4.1" stroke="#fff58"/><path d="M207-126l106 36" stroke-width="4.1" stroke="#005bbb58"/><path d="M211-145l111 18" stroke-width="4.1" stroke="#c2e1ff59"/><path d="M162-67l61 95" stroke-width="4.3" stroke="#005bbb5C"/><path d="M-9-194l-109-32" stroke-width="4.3" stroke="#fff5C"/><path d="M5-225l-95-63" stroke-width="4.3" stroke="#fff5005E"/><path d="M153-264l53-101" stroke-width="4.3" stroke="#fff5005E"/><path d="M214-170l115-8" stroke-width="4.4" stroke="#c2e1ff60"/><path d="M210-195l110-32" stroke-width="4.4" stroke="#c2e1ff61"/><path d="M33-69l-67 94" stroke-width="4.5" stroke="#c2e1ff63"/><path d="M-15-171l-115-8" stroke-width="4.6" stroke="#005bbb64"/><path d="M113-278l12-115" stroke-width="4.6" stroke="#fff66"/><path d="M181-246l81-83" stroke-width="4.7" stroke="#fff68"/><path d="M211-127l111 35" stroke-width="4.7" stroke="#005bbb68"/><path d="M200-222l100-60" stroke-width="4.7" stroke="#fff69"/><path d="M177-75l78 88" stroke-width="4.8" stroke="#fff5006C"/><path d="M23-251l-77-88" stroke-width="4.9" stroke="#c2e1ff6E"/><path d="M89-46l-11 117" stroke-width="4.9" stroke="#fff6F"/><path d="M202-221l102-58" stroke-width="4.9" stroke="#c2e1ff6F"/><path d="M-17-156l-118 6" stroke-width="5.0" stroke="#fff72"/><path d="M211-125l112 38" stroke-width="5.1" stroke="#005bbb73"/><path d="M16-245l-83-83" stroke-width="5.1" stroke="#c2e1ff75"/><path d="M166-260l65-98" stroke-width="5.2" stroke="#fff50076"/><path d="M117-46l18 117" stroke-width="5.2" stroke="#c2e1ff78"/><path d="M210-206l109-43" stroke-width="5.2" stroke="#c2e1ff78"/><path d="M178-74l78 88" stroke-width="5.3" stroke="#fff78"/><path d="M26-255l-73-92" stroke-width="5.3" stroke="#fff50079"/><path d="M91-280l-9-118" stroke-width="5.3" stroke="#c2e1ff79"/><path d="M82-46l-18 117" stroke-width="5.3" stroke="#c2e1ff79"/><path d="M71-277l-29-114" stroke-width="5.3" stroke="#fff50079"/><path d="M40-61l-59 102" stroke-width="5.3" stroke="#c2e1ff7B"/><path d="M218-162l118 1" stroke-width="5.4" stroke="#fff7B"/><path d="M144-53l44 110" stroke-width="5.4" stroke="#fff5007D"/><path d="M117-279l17-117" stroke-width="5.5" stroke="#fff7E"/><path d="M2-97l-98 66" stroke-width="5.5" stroke="#fff5007F"/><path d="M198-97l98 66" stroke-width="5.5" stroke="#fff7F"/><path d="M211-123l112 39" stroke-width="5.5" stroke="#fff50080"/><path d="M160-264l59-102" stroke-width="5.5" stroke="#fff50080"/><path d="M-7-112l-106 51" stroke-width="5.7" stroke="#fff50083"/><path d="M-13-196l-114-33" stroke-width="5.7" stroke="#fff84"/><path d="M205-108l104 55" stroke-width="5.7" stroke="#fff50084"/><path d="M24-72l-76 90" stroke-width="5.7" stroke="#005bbb85"/><path d="M6-91l-94 71" stroke-width="5.8" stroke="#fff50086"/><path d="M203-105l103 58" stroke-width="5.8" stroke="#fff50086"/><path d="M140-52l40 111" stroke-width="5.8" stroke="#005bbb87"/><path d="M3-229l-98-66" stroke-width="5.8" stroke="#005bbb87"/><path d="M206-214l106-51" stroke-width="5.8" stroke="#005bbb89"/><path d="M-16-184l-115-21" stroke-width="5.9" stroke="#fff5008A"/><path d="M-12-199l-111-37" stroke-width="5.9" stroke="#005bbb8C"/><path d="M-17-155l-118 8" stroke-width="6.0" stroke="#c2e1ff8C"/><path d="M45-267l-54-104" stroke-width="6.0" stroke="#005bbb8C"/><path d="M199-225l100-63" stroke-width="6.0" stroke="#c2e1ff8C"/><path d="M212-197l112-35" stroke-width="6.0" stroke="#fff8D"/><path d="M91-46l-9 117" stroke-width="6.0" stroke="#005bbb8E"/><path d="M110-46l11 117" stroke-width="6.0" stroke="#fff8E"/><path d="M180-77l79 86" stroke-width="6.1" stroke="#fff90"/><path d="M163-261l63-98" stroke-width="6.2" stroke="#fff50092"/><path d="M185-242l85-80" stroke-width="6.2" stroke="#c2e1ff94"/><path d="M44-60l-55 102" stroke-width="6.3" stroke="#fff50094"/><path d="M204-215l104-52" stroke-width="6.3" stroke="#005bbb96"/><path d="M168-256l69-93" stroke-width="6.4" stroke="#005bbb98"/><path d="M61-53l-38 109" stroke-width="6.4" stroke="#fff98"/><path d="M54-57l-46 106" stroke-width="6.4" stroke="#005bbb99"/><path d="M215-153l114 10" stroke-width="6.5" stroke="#fff9C"/><path d="M-3-111l-102 51" stroke-width="6.6" stroke="#c2e1ff9E"/><path d="M135-53l36 109" stroke-width="6.6" stroke="#c2e1ff9E"/><path d="M155-62l54 100" stroke-width="6.7" stroke="#c2e1ffA1"/><path d="M207-124l107 38" stroke-width="6.7" stroke="#fff500A2"/><path d="M214-162l113 0" stroke-width="6.7" stroke="#fff500A2"/><path d="M83-275l-16-112" stroke-width="6.8" stroke="#fffA3"/><path d="M198-107l98 56" stroke-width="6.8" stroke="#c2e1ffA4"/><path d="M87-50l-13 112" stroke-width="6.8" stroke="#c2e1ffA5"/><path d="M131-271l31-108" stroke-width="6.9" stroke="#c2e1ffA5"/><path d="M169-73l68 89" stroke-width="6.9" stroke="#c2e1ffA5"/><path d="M209-187l110-25" stroke-width="6.9" stroke="#fffA7"/><path d="M41-67l-59 95" stroke-width="6.9" stroke="#fffA7"/><path d="M10-97l-90 66" stroke-width="7.0" stroke="#fff500A8"/><path d="M60-267l-41-104" stroke-width="7.0" stroke="#005bbbA9"/><path d="M191-98l91 65" stroke-width="7.0" stroke="#fffA9"/><path d="M158-68l59 95" stroke-width="7.0" stroke="#c2e1ffA9"/><path d="M-11-156l-110 6" stroke-width="7.1" stroke="#c2e1ffAC"/><path d="M210-155l110 8" stroke-width="7.1" stroke="#005bbbAC"/><path d="M-3-203l-102-40" stroke-width="7.1" stroke="#c2e1ffAD"/><path d="M9-225l-90-62" stroke-width="7.1" stroke="#fffAD"/><path d="M128-56l28 106" stroke-width="7.2" stroke="#fff500AE"/><path d="M194-217l95-54" stroke-width="7.2" stroke="#fffB1"/><path d="M95-271l-6-109" stroke-width="7.3" stroke="#fff500B1"/><path d="M180-89l79 74" stroke-width="7.3" stroke="#c2e1ffB1"/><path d="M68-266l-32-103" stroke-width="7.3" stroke="#c2e1ffB2"/><path d="M108-271l7-108" stroke-width="7.3" stroke="#fffB2"/><path d="M59-262l-41-99" stroke-width="7.4" stroke="#fffB4"/><path d="M201-129l102 34" stroke-width="7.4" stroke="#c2e1ffB6"/><path d="M203-188l103-25" stroke-width="7.5" stroke="#fff500B7"/><path d="M64-63l-36 99" stroke-width="7.5" stroke="#fffB8"/><path d="M147-255l48-93" stroke-width="7.6" stroke="#fffBB"/><path d="M4-201l-97-38" stroke-width="7.7" stroke="#fff500BC"/><path d="M101-266l0-103" stroke-width="7.7" stroke="#c2e1ffBD"/><path d="M190-113l90 49" stroke-width="7.7" stroke="#fffBE"/><path d="M195-134l96 29" stroke-width="7.9" stroke="#fffC4"/><path d="M165-236l66-74" stroke-width="8.0" stroke="#fffC5"/><path d="M72-257l-28-94" stroke-width="8.0" stroke="#fff500C5"/><path d="M197-179l97-16" stroke-width="8.0" stroke="#fff500C6"/><path d="M163-87l63 75" stroke-width="8.0" stroke="#c2e1ffC6"/><path d="M73-69l-26 94" stroke-width="8.0" stroke="#c2e1ffC7"/><path d="M116-258l16-95" stroke-width="8.1" stroke="#005bbbC9"/><path d="M8-134l-92 28" stroke-width="8.1" stroke="#fffC9"/><path d="M20-111l-80 51" stroke-width="8.2" stroke="#fff500CB"/><path d="M113-255l12-92" stroke-width="8.3" stroke="#fff500CD"/><path d="M147-83l47 80" stroke-width="8.3" stroke="#c2e1ffCE"/><path d="M159-94l60 69" stroke-width="8.4" stroke="#005bbbD1"/><path d="M10-157l-91 5" stroke-width="8.4" stroke="#fffD1"/><path d="M11-166l-89-3" stroke-width="8.5" stroke="#fffD3"/><path d="M176-209l76-46" stroke-width="8.5" stroke="#fff500D3"/><path d="M104-249l5-87" stroke-width="8.6" stroke="#c2e1ffD6"/><path d="M45-227l-54-64" stroke-width="8.6" stroke="#fff500D8"/><path d="M29-197l-72-34" stroke-width="8.8" stroke="#c2e1ffDE"/><path d="M31-125l-69 37" stroke-width="8.9" stroke="#005bbbDE"/><path d="M110-85l9 77" stroke-width="8.9" stroke="#fffDF"/><path d="M157-210l57-47" stroke-width="9.0" stroke="#005bbbE2"/><path d="M40-135l-61 27" stroke-width="9.2" stroke="#c2e1ffE9"/><path d="M136-213l36-51" stroke-width="9.3" stroke="#c2e1ffEB"/><path d="M129-216l29-54" stroke-width="9.3" stroke="#fffEC"/><path d="M157-151l58 12" stroke-width="9.4" stroke="#fff500EE"/><path d="M114-109l14 53" stroke-width="9.5" stroke="#005bbbF0"/><path d="M72-210l-28-47" stroke-width="9.5" stroke="#fffF0"/><path d="M46-173l-53-11" stroke-width="9.5" stroke="#fffF0"/><path d="M119-213l19-51" stroke-width="9.5" stroke="#fff500F0"/><path d="M95-113l-4 49" stroke-width="9.6" stroke="#c2e1ffF3"/><path d="M112-209l13-46" stroke-width="9.6" stroke="#fff500F4"/><path d="M118-121l17 42" stroke-width="9.7" stroke="#c2e1ffF5"/><path d="M139-173l40-10" stroke-width="9.7" stroke="#fffF7"/><path d="M135-174l36-11" stroke-width="9.8" stroke="#fffF8"/><path d="M136-155l37 7" stroke-width="9.8" stroke="#c2e1ffF8"/><path d="M83-130l-18 32" stroke-width="9.8" stroke="#fffF8"/><path d="M121-170l21-8" stroke-width="9.9" stroke="#005bbbFC"/><path d="M122-159l22 4" stroke-width="9.9" stroke="#fff500FC"/><path d="M88-174l-13-11" stroke-width="10.0" stroke="#c2e1ffFD"/></g></svg>