<svg width="1200" height="675" viewBox="-500 -500 1200 675" xmlns="http://www.w3.org/2000/svg"><path d="M-500-500h1200v675h-1200z" fill="#000"/><style>.sparkles path{stroke-linecap:round}</style><g class="sparkles"><path d="M83-163l-17 0" stroke-width="1.0" stroke="#fff1"/><path d="M95-189l-5-27" stroke-width="1.1" stroke="#005bbb3"/><path d="M117-137l17 25" stroke-width="1.2" stroke="#fff5004"/><path d="M81-188l-19-25" stroke-width="1.2" stroke="#fff4"/><path d="M88-132l-12 30" stroke-width="1.2" stroke="#fff5004"/><path d="M70-175l-30-12" stroke-width="1.2" stroke="#fff4"/><path d="M83-196l-16-34" stroke-width="1.2" stroke="#fff6"/><path d="M143-177l42-14" stroke-width="1.3" stroke="#005bbb9"/><path d="M149-162l49 1" stroke-width="1.4" stroke="#fff500B"/><path d="M50-176l-49-14" stroke-width="1.5" stroke="#fffC"/><path d="M83-213l-16-50" stroke-width="1.5" stroke="#005bbbD"/><path d="M77-212l-23-50" stroke-width="1.5" stroke="#fff500E"/><path d="M84-216l-17-54" stroke-width="1.5" stroke="#fffF"/><path d="M44-155l-56 8" stroke-width="1.5" stroke="#005bbbF"/><path d="M99-105l0 58" stroke-width="1.6" stroke="#fff10"/><path d="M150-196l51-34" stroke-width="1.6" stroke="#c2e1ff12"/><path d="M62-212l-39-49" stroke-width="1.7" stroke="#005bbb13"/><path d="M79-98l-20 65" stroke-width="1.8" stroke="#005bbb17"/><path d="M138-221l39-59" stroke-width="1.9" stroke="#005bbb18"/><path d="M170-174l69-11" stroke-width="1.9" stroke="#005bbb19"/><path d="M157-209l58-47" stroke-width="2.0" stroke="#005bbb1C"/><path d="M128-94l29 69" stroke-width="2.0" stroke="#005bbb1C"/><path d="M174-153l75 9" stroke-width="2.0" stroke="#fff5001C"/><path d="M37-204l-64-41" stroke-width="2.0" stroke="#005bbb1D"/><path d="M161-208l61-45" stroke-width="2.1" stroke="#fff5001D"/><path d="M83-88l-16 75" stroke-width="2.1" stroke="#fff5001E"/><path d="M29-127l-71 35" stroke-width="2.2" stroke="#005bbb20"/><path d="M68-90l-32 73" stroke-width="2.2" stroke="#005bbb21"/><path d="M20-155l-81 8" stroke-width="2.2" stroke="#005bbb22"/><path d="M67-238l-32-75" stroke-width="2.3" stroke="#fff23"/><path d="M26-199l-73-37" stroke-width="2.3" stroke="#c2e1ff24"/><path d="M181-139l81 23" stroke-width="2.3" stroke="#c2e1ff26"/><path d="M121-245l20-83" stroke-width="2.4" stroke="#005bbb27"/><path d="M110-77l11 85" stroke-width="2.4" stroke="#c2e1ff27"/><path d="M63-83l-36 80" stroke-width="2.5" stroke="#005bbb2A"/><path d="M172-216l72-54" stroke-width="2.6" stroke="#c2e1ff2C"/><path d="M66-79l-34 84" stroke-width="2.6" stroke="#005bbb2D"/><path d="M37-229l-62-67" stroke-width="2.7" stroke="#fff2F"/><path d="M189-141l90 22" stroke-width="2.7" stroke="#fff5002F"/><path d="M145-78l45 85" stroke-width="2.9" stroke="#005bbb35"/><path d="M29-234l-71-72" stroke-width="3.2" stroke="#fff3D"/><path d="M36-84l-64 79" stroke-width="3.2" stroke="#005bbb3D"/><path d="M45-248l-54-85" stroke-width="3.2" stroke="#c2e1ff3E"/><path d="M18-223l-82-61" stroke-width="3.2" stroke="#005bbb3E"/><path d="M176-232l76-69" stroke-width="3.3" stroke="#fff50040"/><path d="M138-66l37 96" stroke-width="3.3" stroke="#fff41"/><path d="M43-249l-58-87" stroke-width="3.4" stroke="#fff42"/><path d="M106-58l6 104" stroke-width="3.4" stroke="#fff43"/><path d="M45-252l-55-90" stroke-width="3.5" stroke="#fff50046"/><path d="M163-77l63 86" stroke-width="3.5" stroke="#005bbb48"/><path d="M162-76l63 87" stroke-width="3.6" stroke="#fff49"/><path d="M201-198l101-36" stroke-width="3.6" stroke="#005bbb49"/><path d="M107-271l8-108" stroke-width="3.7" stroke="#fff4C"/><path d="M205-191l104-28" stroke-width="3.7" stroke="#005bbb4D"/><path d="M208-149l108 14" stroke-width="3.8" stroke="#fff4E"/><path d="M50-64l-50 98" stroke-width="3.9" stroke="#fff51"/><path d="M64-267l-36-104" stroke-width="3.9" stroke="#fff52"/><path d="M4-217l-96-55" stroke-width="3.9" stroke="#005bbb52"/><path d="M37-71l-63 92" stroke-width="4.0" stroke="#fff50054"/><path d="M207-198l106-36" stroke-width="4.1" stroke="#005bbb58"/><path d="M212-173l113-11" stroke-width="4.2" stroke="#c2e1ff59"/><path d="M2-222l-98-59" stroke-width="4.4" stroke="#c2e1ff60"/><path d="M203-212l104-50" stroke-width="4.4" stroke="#c2e1ff60"/><path d="M120-49l19 113" stroke-width="4.5" stroke="#fff62"/><path d="M112-48l12 115" stroke-width="4.6" stroke="#005bbb64"/><path d="M125-275l26-113" stroke-width="4.6" stroke="#fff50064"/><path d="M-15-173l-116-10" stroke-width="4.6" stroke="#fff66"/><path d="M194-94l94 68" stroke-width="4.7" stroke="#005bbb67"/><path d="M2-100l-98 62" stroke-width="4.7" stroke="#fff50067"/><path d="M124-276l24-114" stroke-width="4.7" stroke="#005bbb69"/><path d="M128-276l29-113" stroke-width="4.8" stroke="#fff5006B"/><path d="M-6-114l-106 48" stroke-width="4.8" stroke="#c2e1ff6B"/><path d="M6-232l-95-69" stroke-width="4.8" stroke="#fff6C"/><path d="M19-78l-80 85" stroke-width="4.8" stroke="#fff5006C"/><path d="M7-233l-93-71" stroke-width="4.9" stroke="#005bbb6D"/><path d="M1-100l-98 63" stroke-width="4.9" stroke="#fff6D"/><path d="M71-276l-28-113" stroke-width="4.9" stroke="#005bbb6D"/><path d="M-4-217l-103-54" stroke-width="4.9" stroke="#005bbb6E"/><path d="M138-52l38 111" stroke-width="4.9" stroke="#fff6E"/><path d="M217-152l116 10" stroke-width="4.9" stroke="#005bbb6E"/><path d="M-7-115l-107 48" stroke-width="4.9" stroke="#005bbb6F"/><path d="M14-83l-86 80" stroke-width="4.9" stroke="#c2e1ff6F"/><path d="M159-264l59-101" stroke-width="5.0" stroke="#fff70"/><path d="M-1-222l-101-60" stroke-width="5.0" stroke="#c2e1ff71"/><path d="M171-256l71-94" stroke-width="5.1" stroke="#005bbb72"/><path d="M218-164l117-1" stroke-width="5.1" stroke="#fff50073"/><path d="M217-148l117 15" stroke-width="5.1" stroke="#fff50074"/><path d="M127-277l27-115" stroke-width="5.2" stroke="#fff75"/><path d="M-11-202l-111-40" stroke-width="5.2" stroke="#005bbb77"/><path d="M213-197l112-35" stroke-width="5.3" stroke="#fff50079"/><path d="M218-159l118 4" stroke-width="5.3" stroke="#005bbb79"/><path d="M203-105l103 58" stroke-width="5.3" stroke="#005bbb79"/><path d="M209-118l109 45" stroke-width="5.3" stroke="#005bbb7A"/><path d="M-13-196l-114-34" stroke-width="5.5" stroke="#c2e1ff80"/><path d="M213-129l114 34" stroke-width="5.6" stroke="#fff81"/><path d="M190-86l89 77" stroke-width="5.6" stroke="#fff50081"/><path d="M192-237l92-74" stroke-width="5.6" stroke="#fff50083"/><path d="M18-247l-83-85" stroke-width="5.7" stroke="#fff85"/><path d="M141-273l42-110" stroke-width="5.7" stroke="#005bbb85"/><path d="M-3-220l-102-58" stroke-width="5.8" stroke="#fff88"/><path d="M59-273l-40-111" stroke-width="5.8" stroke="#fff50088"/><path d="M15-244l-85-81" stroke-width="5.8" stroke="#005bbb88"/><path d="M177-251l78-89" stroke-width="5.9" stroke="#fff50089"/><path d="M-6-112l-106 50" stroke-width="6.0" stroke="#c2e1ff8C"/><path d="M-11-201l-111-38" stroke-width="6.0" stroke="#fff8E"/><path d="M1-225l-98-62" stroke-width="6.2" stroke="#fff50092"/><path d="M205-214l105-51" stroke-width="6.2" stroke="#fff93"/><path d="M207-117l108 45" stroke-width="6.2" stroke="#005bbb94"/><path d="M3-226l-98-64" stroke-width="6.3" stroke="#fff95"/><path d="M-14-185l-114-23" stroke-width="6.3" stroke="#005bbb96"/><path d="M-6-116l-107 46" stroke-width="6.3" stroke="#c2e1ff97"/><path d="M24-250l-76-88" stroke-width="6.4" stroke="#005bbb98"/><path d="M103-278l4-116" stroke-width="6.4" stroke="#c2e1ff99"/><path d="M-11-193l-112-30" stroke-width="6.5" stroke="#fff9A"/><path d="M8-231l-92-69" stroke-width="6.6" stroke="#c2e1ff9D"/><path d="M198-104l99 59" stroke-width="6.6" stroke="#fff5009E"/><path d="M-14-156l-115 7" stroke-width="6.6" stroke="#fff5009E"/><path d="M54-58l-46 105" stroke-width="6.6" stroke="#fff9F"/><path d="M206-121l106 42" stroke-width="6.7" stroke="#c2e1ffA0"/><path d="M147-267l47-104" stroke-width="6.7" stroke="#fffA0"/><path d="M151-263l51-101" stroke-width="6.8" stroke="#005bbbA4"/><path d="M60-57l-40 105" stroke-width="6.8" stroke="#fff500A5"/><path d="M172-249l71-87" stroke-width="6.9" stroke="#005bbbA7"/><path d="M203-206l103-44" stroke-width="6.9" stroke="#005bbbA7"/><path d="M-3-206l-104-43" stroke-width="6.9" stroke="#005bbbA7"/><path d="M212-164l111-2" stroke-width="7.0" stroke="#fffA9"/><path d="M177-82l76 81" stroke-width="7.0" stroke="#fff500AA"/><path d="M91-273l-8-111" stroke-width="7.0" stroke="#fff500AA"/><path d="M68-269l-32-106" stroke-width="7.0" stroke="#fff500AA"/><path d="M171-78l72 85" stroke-width="7.0" stroke="#fffAB"/><path d="M51-261l-49-98" stroke-width="7.1" stroke="#c2e1ffAE"/><path d="M-3-127l-104 35" stroke-width="7.2" stroke="#005bbbAF"/><path d="M140-61l40 101" stroke-width="7.2" stroke="#fffB0"/><path d="M53-64l-48 98" stroke-width="7.2" stroke="#c2e1ffB0"/><path d="M200-121l100 41" stroke-width="7.3" stroke="#fffB2"/><path d="M206-142l105 20" stroke-width="7.4" stroke="#005bbbB4"/><path d="M29-83l-71 80" stroke-width="7.4" stroke="#fff500B5"/><path d="M31-243l-68-81" stroke-width="7.5" stroke="#fff500B7"/><path d="M34-245l-65-83" stroke-width="7.5" stroke="#fff500B8"/><path d="M8-211l-93-49" stroke-width="7.6" stroke="#fffBA"/><path d="M85-265l-15-102" stroke-width="7.7" stroke="#fff500BD"/><path d="M82-62l-19 101" stroke-width="7.7" stroke="#fffBE"/><path d="M99-265l0-102" stroke-width="7.8" stroke="#fffBF"/><path d="M72-65l-27 98" stroke-width="7.8" stroke="#fff500C0"/><path d="M49-75l-51 88" stroke-width="7.8" stroke="#005bbbC0"/><path d="M15-210l-85-47" stroke-width="8.1" stroke="#fff500C8"/><path d="M79-70l-21 93" stroke-width="8.2" stroke="#005bbbCB"/><path d="M158-87l58 75" stroke-width="8.2" stroke="#c2e1ffCB"/><path d="M137-250l36-87" stroke-width="8.2" stroke="#fffCB"/><path d="M142-78l41 85" stroke-width="8.2" stroke="#c2e1ffCC"/><path d="M90-256l-10-93" stroke-width="8.2" stroke="#005bbbCC"/><path d="M79-254l-20-91" stroke-width="8.2" stroke="#c2e1ffCD"/><path d="M108-69l8 93" stroke-width="8.2" stroke="#005bbbCD"/><path d="M37-229l-63-67" stroke-width="8.3" stroke="#c2e1ffCF"/><path d="M48-87l-52 76" stroke-width="8.3" stroke="#c2e1ffCF"/><path d="M174-111l74 52" stroke-width="8.4" stroke="#fff500D1"/><path d="M190-158l91 4" stroke-width="8.4" stroke="#c2e1ffD1"/><path d="M18-126l-83 37" stroke-width="8.4" stroke="#fffD1"/><path d="M39-97l-60 66" stroke-width="8.4" stroke="#c2e1ffD2"/><path d="M111-75l10 88" stroke-width="8.5" stroke="#fff500D4"/><path d="M18-144l-83 18" stroke-width="8.6" stroke="#c2e1ffD8"/><path d="M20-165l-81-2" stroke-width="8.8" stroke="#fffDC"/><path d="M66-232l-35-70" stroke-width="8.9" stroke="#fffDF"/><path d="M45-210l-56-48" stroke-width="9.0" stroke="#fff500E3"/><path d="M82-233l-17-71" stroke-width="9.0" stroke="#fff500E3"/><path d="M38-185l-62-23" stroke-width="9.2" stroke="#c2e1ffE9"/><path d="M137-108l37 54" stroke-width="9.2" stroke="#c2e1ffE9"/><path d="M161-166l60-3" stroke-width="9.4" stroke="#c2e1ffEC"/><path d="M75-217l-24-55" stroke-width="9.4" stroke="#c2e1ffED"/><path d="M44-144l-55 19" stroke-width="9.4" stroke="#c2e1ffEE"/><path d="M137-119l37 43" stroke-width="9.4" stroke="#c2e1ffEF"/><path d="M143-198l44-36" stroke-width="9.5" stroke="#005bbbEF"/><path d="M48-155l-52 8" stroke-width="9.5" stroke="#c2e1ffF1"/><path d="M151-162l52 0" stroke-width="9.6" stroke="#005bbbF2"/><path d="M101-214l1-51" stroke-width="9.6" stroke="#005bbbF2"/><path d="M54-162l-46 0" stroke-width="9.6" stroke="#fffF5"/><path d="M146-165l45-2" stroke-width="9.7" stroke="#fff500F5"/><path d="M110-207l10-44" stroke-width="9.7" stroke="#fffF5"/><path d="M73-166l-27-4" stroke-width="9.9" stroke="#fff500FB"/><path d="M114-182l15-19" stroke-width="9.9" stroke="#fffFC"/><path d="M121-153l20 9" stroke-width="9.9" stroke="#005bbbFC"/></g></svg>