<svg width="1200" height="675" viewBox="-500 -500 1200 675" xmlns="http://www.w3.org/2000/svg"><path d="M-500-500h1200v675h-1200z" fill="#000"/><style>.sparkles path{stroke-linecap:round}</style><g class="sparkles"><path d="M91-141l-9 22" stroke-width="1.1" stroke="#005bbb2"/><path d="M128-157l28 6" stroke-width="1.1" stroke="#fff3"/><path d="M68-162l-31 1" stroke-width="1.2" stroke="#fff5004"/><path d="M116-126l16 37" stroke-width="1.3" stroke="#005bbb7"/><path d="M106-113l6 49" stroke-width="1.4" stroke="#c2e1ffB"/><path d="M112-111l11 51" stroke-width="1.5" stroke="#c2e1ffD"/><path d="M156-169l56-6" stroke-width="1.5" stroke="#c2e1ffF"/><path d="M157-171l57-9" stroke-width="1.6" stroke="#fff50010"/><path d="M151-191l51-29" stroke-width="1.6" stroke="#fff10"/><path d="M140-206l40-44" stroke-width="1.6" stroke="#005bbb11"/><path d="M61-208l-38-46" stroke-width="1.6" stroke="#c2e1ff11"/><path d="M148-125l48 37" stroke-width="1.6" stroke="#fff50012"/><path d="M156-130l57 33" stroke-width="1.8" stroke="#fff50015"/><path d="M154-121l55 41" stroke-width="1.8" stroke="#fff50017"/><path d="M50-210l-49-47" stroke-width="1.8" stroke="#fff17"/><path d="M110-232l10-70" stroke-width="1.9" stroke="#c2e1ff19"/><path d="M159-116l58 46" stroke-width="2.0" stroke="#fff1C"/><path d="M28-194l-72-32" stroke-width="2.2" stroke="#fff50020"/><path d="M141-95l42 67" stroke-width="2.2" stroke="#fff50020"/><path d="M174-190l75-28" stroke-width="2.2" stroke="#fff21"/><path d="M172-197l72-34" stroke-width="2.2" stroke="#fff21"/><path d="M137-235l37-72" stroke-width="2.2" stroke="#c2e1ff22"/><path d="M29-116l-70 46" stroke-width="2.4" stroke="#fff26"/><path d="M183-184l83-22" stroke-width="2.4" stroke="#c2e1ff27"/><path d="M63-85l-38 77" stroke-width="2.4" stroke="#005bbb27"/><path d="M11-163l-88-1" stroke-width="2.5" stroke="#005bbb2B"/><path d="M187-144l87 18" stroke-width="2.5" stroke="#c2e1ff2B"/><path d="M171-105l70 57" stroke-width="2.6" stroke="#fff2E"/><path d="M141-81l42 82" stroke-width="2.7" stroke="#fff5002F"/><path d="M191-147l90 15" stroke-width="2.7" stroke="#fff2F"/><path d="M150-85l50 78" stroke-width="2.7" stroke="#fff50030"/><path d="M142-80l43 82" stroke-width="2.7" stroke="#fff50030"/><path d="M19-116l-80 46" stroke-width="2.7" stroke="#005bbb30"/><path d="M192-182l91-19" stroke-width="2.8" stroke="#fff50031"/><path d="M144-80l45 83" stroke-width="2.8" stroke="#fff50032"/><path d="M166-90l65 73" stroke-width="3.0" stroke="#fff50038"/><path d="M89-260l-11-98" stroke-width="3.0" stroke="#005bbb38"/><path d="M51-248l-49-85" stroke-width="3.0" stroke="#005bbb38"/><path d="M3-180l-98-18" stroke-width="3.0" stroke="#005bbb39"/><path d="M115-261l14-99" stroke-width="3.1" stroke="#c2e1ff3B"/><path d="M199-175l99-13" stroke-width="3.1" stroke="#fff5003B"/><path d="M115-64l15 99" stroke-width="3.1" stroke="#fff5003B"/><path d="M130-67l29 96" stroke-width="3.1" stroke="#005bbb3B"/><path d="M199-177l100-14" stroke-width="3.1" stroke="#c2e1ff3C"/><path d="M98-265l-1-102" stroke-width="3.2" stroke="#fff3F"/><path d="M60-257l-40-94" stroke-width="3.2" stroke="#fff5003F"/><path d="M176-232l76-70" stroke-width="3.3" stroke="#fff50041"/><path d="M29-238l-71-75" stroke-width="3.3" stroke="#fff50041"/><path d="M124-61l25 101" stroke-width="3.4" stroke="#fff43"/><path d="M205-159l104 4" stroke-width="3.4" stroke="#fff50044"/><path d="M31-243l-69-81" stroke-width="3.5" stroke="#005bbb47"/><path d="M112-57l12 106" stroke-width="3.5" stroke="#fff50048"/><path d="M106-56l5 107" stroke-width="3.6" stroke="#fff50048"/><path d="M174-240l74-78" stroke-width="3.6" stroke="#fff5004A"/><path d="M106-55l5 107" stroke-width="3.6" stroke="#fff4A"/><path d="M118-270l18-108" stroke-width="3.8" stroke="#c2e1ff4E"/><path d="M191-101l90 62" stroke-width="3.8" stroke="#fff50050"/><path d="M211-162l110 0" stroke-width="3.9" stroke="#fff50052"/><path d="M121-271l21-109" stroke-width="3.9" stroke="#fff50053"/><path d="M81-53l-19 110" stroke-width="4.0" stroke="#fff50054"/><path d="M90-274l-9-111" stroke-width="4.0" stroke="#c2e1ff55"/><path d="M48-261l-53-99" stroke-width="4.0" stroke="#fff50055"/><path d="M-9-133l-110 29" stroke-width="4.2" stroke="#005bbb5B"/><path d="M-13-146l-113 17" stroke-width="4.4" stroke="#fff5005F"/><path d="M74-51l-25 112" stroke-width="4.4" stroke="#005bbb5F"/><path d="M127-274l28-111" stroke-width="4.4" stroke="#005bbb60"/><path d="M209-126l108 37" stroke-width="4.4" stroke="#fff61"/><path d="M151-265l51-103" stroke-width="4.5" stroke="#c2e1ff61"/><path d="M31-70l-69 92" stroke-width="4.5" stroke="#fff62"/><path d="M204-111l104 51" stroke-width="4.6" stroke="#005bbb66"/><path d="M195-229l96-66" stroke-width="4.6" stroke="#005bbb67"/><path d="M-14-182l-115-19" stroke-width="4.7" stroke="#c2e1ff67"/><path d="M-14-140l-114 23" stroke-width="4.7" stroke="#005bbb69"/><path d="M43-264l-57-102" stroke-width="4.8" stroke="#c2e1ff6B"/><path d="M72-276l-29-113" stroke-width="4.8" stroke="#fff6C"/><path d="M217-163l117-1" stroke-width="4.8" stroke="#fff5006C"/><path d="M-8-118l-108 44" stroke-width="4.8" stroke="#fff6C"/><path d="M8-235l-93-72" stroke-width="4.9" stroke="#fff6F"/><path d="M-8-117l-109 45" stroke-width="5.0" stroke="#fff50070"/><path d="M-17-176l-117-13" stroke-width="5.1" stroke="#c2e1ff73"/><path d="M30-68l-71 94" stroke-width="5.1" stroke="#c2e1ff74"/><path d="M191-88l92 75" stroke-width="5.2" stroke="#005bbb77"/><path d="M201-224l101-61" stroke-width="5.2" stroke="#fff50078"/><path d="M-18-154l-117 9" stroke-width="5.2" stroke="#c2e1ff78"/><path d="M-18-163l-118 0" stroke-width="5.3" stroke="#c2e1ff79"/><path d="M209-118l109 45" stroke-width="5.4" stroke="#fff7C"/><path d="M24-253l-76-90" stroke-width="5.4" stroke="#fff5007C"/><path d="M208-211l107-49" stroke-width="5.4" stroke="#005bbb7C"/><path d="M-11-122l-111 41" stroke-width="5.4" stroke="#fff5007E"/><path d="M198-229l98-66" stroke-width="5.5" stroke="#fff7E"/><path d="M1-99l-100 64" stroke-width="5.5" stroke="#fff5007E"/><path d="M159-60l59 102" stroke-width="5.5" stroke="#fff7E"/><path d="M152-57l53 106" stroke-width="5.5" stroke="#fff5007F"/><path d="M-17-150l-118 13" stroke-width="5.5" stroke="#c2e1ff7F"/><path d="M99-44l0 118" stroke-width="5.6" stroke="#fff50083"/><path d="M204-106l103 56" stroke-width="5.8" stroke="#fff87"/><path d="M12-84l-89 78" stroke-width="5.8" stroke="#c2e1ff87"/><path d="M20-76l-80 87" stroke-width="5.8" stroke="#fff89"/><path d="M208-116l108 46" stroke-width="5.9" stroke="#c2e1ff89"/><path d="M208-208l109-46" stroke-width="5.9" stroke="#fff8C"/><path d="M-7-114l-107 48" stroke-width="6.0" stroke="#fff5008C"/><path d="M215-141l116 22" stroke-width="6.0" stroke="#c2e1ff8E"/><path d="M31-68l-69 95" stroke-width="6.1" stroke="#005bbb8F"/><path d="M207-211l106-49" stroke-width="6.1" stroke="#fff5008F"/><path d="M10-88l-91 74" stroke-width="6.1" stroke="#c2e1ff91"/><path d="M188-240l87-77" stroke-width="6.2" stroke="#fff92"/><path d="M-16-170l-116-7" stroke-width="6.3" stroke="#005bbb97"/><path d="M173-72l72 90" stroke-width="6.3" stroke="#fff97"/><path d="M212-192l112-30" stroke-width="6.4" stroke="#fff98"/><path d="M91-277l-10-114" stroke-width="6.6" stroke="#005bbb9E"/><path d="M56-268l-45-106" stroke-width="6.6" stroke="#005bbb9E"/><path d="M213-179l114-17" stroke-width="6.6" stroke="#fff5009E"/><path d="M28-251l-71-89" stroke-width="6.7" stroke="#fffA0"/><path d="M162-68l62 95" stroke-width="6.8" stroke="#fffA3"/><path d="M161-68l61 95" stroke-width="6.8" stroke="#fff500A5"/><path d="M-9-189l-108-26" stroke-width="7.0" stroke="#fff500A9"/><path d="M2-110l-98 52" stroke-width="7.0" stroke="#fff500AB"/><path d="M18-237l-81-74" stroke-width="7.1" stroke="#fffAD"/><path d="M5-107l-95 56" stroke-width="7.1" stroke="#005bbbAD"/><path d="M159-70l60 92" stroke-width="7.2" stroke="#c2e1ffAE"/><path d="M48-259l-52-96" stroke-width="7.2" stroke="#fffAF"/><path d="M164-74l65 88" stroke-width="7.2" stroke="#005bbbAF"/><path d="M71-268l-28-105" stroke-width="7.2" stroke="#c2e1ffAF"/><path d="M63-60l-38 102" stroke-width="7.2" stroke="#c2e1ffB0"/><path d="M39-252l-61-90" stroke-width="7.2" stroke="#fff500B1"/><path d="M150-259l51-96" stroke-width="7.3" stroke="#fff500B1"/><path d="M206-140l105 22" stroke-width="7.3" stroke="#fffB3"/><path d="M134-263l34-100" stroke-width="7.5" stroke="#fff500B7"/><path d="M96-267l-4-105" stroke-width="7.6" stroke="#fffBA"/><path d="M99-267l-2-105" stroke-width="7.6" stroke="#fffBA"/><path d="M188-109l89 53" stroke-width="7.7" stroke="#005bbbBD"/><path d="M10-113l-90 50" stroke-width="7.7" stroke="#fff500BD"/><path d="M141-256l40-94" stroke-width="7.8" stroke="#c2e1ffBF"/><path d="M140-69l41 94" stroke-width="7.8" stroke="#c2e1ffBF"/><path d="M85-62l-15 101" stroke-width="7.8" stroke="#fffC0"/><path d="M165-85l64 78" stroke-width="7.8" stroke="#fffC1"/><path d="M125-260l24-97" stroke-width="7.9" stroke="#fff500C2"/><path d="M119-64l19 99" stroke-width="7.9" stroke="#fffC2"/><path d="M165-86l65 77" stroke-width="7.9" stroke="#005bbbC2"/><path d="M3-137l-97 25" stroke-width="7.9" stroke="#fffC2"/><path d="M29-232l-71-69" stroke-width="7.9" stroke="#c2e1ffC4"/><path d="M60-74l-39 89" stroke-width="8.0" stroke="#fffC7"/><path d="M111-259l11-96" stroke-width="8.1" stroke="#fffC8"/><path d="M7-191l-92-29" stroke-width="8.1" stroke="#fff500C8"/><path d="M69-254l-32-91" stroke-width="8.1" stroke="#fffC9"/><path d="M77-69l-23 93" stroke-width="8.1" stroke="#c2e1ffC9"/><path d="M157-86l57 77" stroke-width="8.2" stroke="#fffCA"/><path d="M23-107l-77 56" stroke-width="8.2" stroke="#c2e1ffCB"/><path d="M10-189l-91-27" stroke-width="8.2" stroke="#fff500CC"/><path d="M20-115l-80 47" stroke-width="8.3" stroke="#005bbbCE"/><path d="M190-181l90-19" stroke-width="8.3" stroke="#fffCF"/><path d="M161-229l61-66" stroke-width="8.4" stroke="#fffD1"/><path d="M33-107l-67 56" stroke-width="8.5" stroke="#c2e1ffD5"/><path d="M80-247l-19-85" stroke-width="8.5" stroke="#fffD5"/><path d="M106-248l5-86" stroke-width="8.6" stroke="#c2e1ffD7"/><path d="M60-88l-40 75" stroke-width="8.6" stroke="#005bbbD8"/><path d="M180-181l80-19" stroke-width="8.7" stroke="#c2e1ffDA"/><path d="M155-223l55-61" stroke-width="8.7" stroke="#fffDB"/><path d="M28-128l-71 35" stroke-width="8.8" stroke="#fff500DD"/><path d="M148-99l48 64" stroke-width="8.8" stroke="#fff500DD"/><path d="M168-204l68-41" stroke-width="8.8" stroke="#fffDD"/><path d="M30-192l-71-30" stroke-width="8.9" stroke="#c2e1ffE0"/><path d="M51-106l-49 56" stroke-width="9.0" stroke="#005bbbE2"/><path d="M125-227l26-64" stroke-width="9.1" stroke="#005bbbE6"/><path d="M132-102l31 61" stroke-width="9.2" stroke="#fff500E7"/><path d="M92-229l-8-67" stroke-width="9.2" stroke="#005bbbE8"/><path d="M162-166l62-4" stroke-width="9.3" stroke="#fffEC"/><path d="M91-222l-10-59" stroke-width="9.4" stroke="#c2e1ffED"/><path d="M44-148l-55 14" stroke-width="9.4" stroke="#fff500EE"/><path d="M144-131l45 32" stroke-width="9.5" stroke="#005bbbF0"/><path d="M87-114l-14 49" stroke-width="9.6" stroke="#fffF2"/><path d="M135-132l36 30" stroke-width="9.6" stroke="#c2e1ffF4"/><path d="M62-174l-38-12" stroke-width="9.7" stroke="#fffF7"/><path d="M78-132l-23 31" stroke-width="9.8" stroke="#c2e1ffF8"/><path d="M137-168l37-6" stroke-width="9.8" stroke="#005bbbF8"/><path d="M134-161l35 1" stroke-width="9.8" stroke="#fff500F9"/><path d="M126-180l26-17" stroke-width="9.8" stroke="#fffFA"/><path d="M118-187l19-24" stroke-width="9.8" stroke="#005bbbFA"/><path d="M91-190l-9-28" stroke-width="9.9" stroke="#c2e1ffFB"/><path d="M115-182l15-19" stroke-width="9.9" stroke="#005bbbFC"/><path d="M93-142l-8 21" stroke-width="9.9" stroke="#c2e1ffFC"/></g></svg>