<svg width="1200" height="675" viewBox="-500 -500 1200 675" xmlns="http://www.w3.org/2000/svg"><path d="M-500-500h1200v675h-1200z" fill="#000"/><style>.sparkles path{stroke-linecap:round}</style><g class="sparkles"><path d="M93-167l-8-4" stroke-width="1.0" stroke="#005bbb0"/><path d="M95-175l-5-13" stroke-width="1.0" stroke="#fff5000"/><path d="M83-165l-17-2" stroke-width="1.0" stroke="#fff1"/><path d="M119-157l20 5" stroke-width="1.1" stroke="#c2e1ff1"/><path d="M87-142l-13 21" stroke-width="1.1" stroke="#fff5002"/><path d="M95-193l-6-30" stroke-width="1.2" stroke="#fff4"/><path d="M134-173l34-11" stroke-width="1.2" stroke="#005bbb5"/><path d="M51-150l-50 12" stroke-width="1.4" stroke="#c2e1ffC"/><path d="M52-181l-47-19" stroke-width="1.4" stroke="#005bbbC"/><path d="M52-145l-49 17" stroke-width="1.5" stroke="#fff500C"/><path d="M140-120l40 43" stroke-width="1.6" stroke="#fff50010"/><path d="M40-145l-60 17" stroke-width="1.7" stroke="#c2e1ff13"/><path d="M105-98l5 64" stroke-width="1.7" stroke="#fff14"/><path d="M145-114l45 49" stroke-width="1.8" stroke="#fff50016"/><path d="M37-136l-62 26" stroke-width="1.8" stroke="#005bbb17"/><path d="M61-225l-40-62" stroke-width="2.0" stroke="#c2e1ff1B"/><path d="M148-106l48 56" stroke-width="2.0" stroke="#fff1B"/><path d="M159-212l58-49" stroke-width="2.1" stroke="#005bbb1E"/><path d="M28-195l-71-32" stroke-width="2.1" stroke="#005bbb20"/><path d="M66-238l-34-75" stroke-width="2.3" stroke="#fff24"/><path d="M183-184l82-22" stroke-width="2.4" stroke="#c2e1ff27"/><path d="M27-112l-74 51" stroke-width="2.5" stroke="#fff2B"/><path d="M160-96l59 67" stroke-width="2.6" stroke="#fff5002C"/><path d="M152-239l51-76" stroke-width="2.7" stroke="#c2e1ff2F"/><path d="M62-77l-37 86" stroke-width="2.7" stroke="#fff50031"/><path d="M115-70l14 92" stroke-width="2.8" stroke="#fff31"/><path d="M186-125l85 38" stroke-width="2.8" stroke="#c2e1ff31"/><path d="M191-138l92 24" stroke-width="2.8" stroke="#fff33"/><path d="M195-169l95-6" stroke-width="2.8" stroke="#005bbb33"/><path d="M120-257l20-95" stroke-width="2.9" stroke="#fff50036"/><path d="M102-260l1-97" stroke-width="3.0" stroke="#005bbb37"/><path d="M99-260l-2-98" stroke-width="3.0" stroke="#c2e1ff37"/><path d="M196-145l96 18" stroke-width="3.0" stroke="#c2e1ff37"/><path d="M100-260l-1-98" stroke-width="3.0" stroke="#c2e1ff38"/><path d="M121-258l20-96" stroke-width="3.0" stroke="#c2e1ff38"/><path d="M135-69l36 93" stroke-width="3.1" stroke="#fff5003B"/><path d="M114-63l15 99" stroke-width="3.1" stroke="#c2e1ff3B"/><path d="M63-69l-37 93" stroke-width="3.1" stroke="#fff3C"/><path d="M191-205l92-42" stroke-width="3.1" stroke="#c2e1ff3C"/><path d="M0-155l-101 8" stroke-width="3.1" stroke="#c2e1ff3C"/><path d="M125-260l25-98" stroke-width="3.2" stroke="#c2e1ff3D"/><path d="M155-251l54-88" stroke-width="3.4" stroke="#fff42"/><path d="M201-138l101 24" stroke-width="3.4" stroke="#c2e1ff42"/><path d="M188-221l88-59" stroke-width="3.5" stroke="#c2e1ff46"/><path d="M143-260l42-97" stroke-width="3.5" stroke="#fff47"/><path d="M-1-197l-102-35" stroke-width="3.6" stroke="#fff50049"/><path d="M35-249l-66-87" stroke-width="3.7" stroke="#fff5004D"/><path d="M7-107l-94 56" stroke-width="3.7" stroke="#c2e1ff4D"/><path d="M28-81l-71 82" stroke-width="3.8" stroke="#fff5004E"/><path d="M64-59l-35 104" stroke-width="3.8" stroke="#c2e1ff50"/><path d="M146-63l46 100" stroke-width="3.8" stroke="#fff50"/><path d="M167-76l68 87" stroke-width="3.9" stroke="#fff50050"/><path d="M-4-197l-105-35" stroke-width="3.9" stroke="#c2e1ff51"/><path d="M190-99l90 63" stroke-width="3.9" stroke="#fff51"/><path d="M-11-180l-110-18" stroke-width="4.1" stroke="#fff50056"/><path d="M18-241l-82-79" stroke-width="4.2" stroke="#fff5005B"/><path d="M16-86l-84 76" stroke-width="4.2" stroke="#fff5C"/><path d="M178-80l78 82" stroke-width="4.3" stroke="#c2e1ff5C"/><path d="M88-49l-11 113" stroke-width="4.3" stroke="#fff5005D"/><path d="M212-139l111 24" stroke-width="4.3" stroke="#fff5E"/><path d="M214-165l115-3" stroke-width="4.4" stroke="#005bbb5F"/><path d="M145-57l44 105" stroke-width="4.4" stroke="#fff5005F"/><path d="M61-54l-38 108" stroke-width="4.5" stroke="#005bbb62"/><path d="M118-49l18 114" stroke-width="4.5" stroke="#fff63"/><path d="M186-240l86-78" stroke-width="4.6" stroke="#c2e1ff66"/><path d="M147-57l48 106" stroke-width="4.7" stroke="#005bbb67"/><path d="M85-278l-14-116" stroke-width="4.7" stroke="#005bbb6A"/><path d="M97-279l-4-117" stroke-width="4.8" stroke="#fff6B"/><path d="M-17-168l-116-6" stroke-width="4.8" stroke="#fff5006B"/><path d="M202-106l103 56" stroke-width="4.8" stroke="#005bbb6C"/><path d="M217-166l117-4" stroke-width="4.9" stroke="#fff6D"/><path d="M-4-216l-104-54" stroke-width="4.9" stroke="#c2e1ff6E"/><path d="M-6-212l-107-49" stroke-width="4.9" stroke="#fff6F"/><path d="M93-280l-7-117" stroke-width="5.0" stroke="#c2e1ff6F"/><path d="M-1-103l-101 60" stroke-width="5.0" stroke="#fff50070"/><path d="M199-99l100 63" stroke-width="5.1" stroke="#c2e1ff74"/><path d="M-18-163l-118 0" stroke-width="5.2" stroke="#fff75"/><path d="M201-102l102 60" stroke-width="5.5" stroke="#fff7E"/><path d="M-16-138l-115 25" stroke-width="5.5" stroke="#fff7F"/><path d="M-17-175l-118-13" stroke-width="5.5" stroke="#c2e1ff80"/><path d="M11-241l-88-78" stroke-width="5.6" stroke="#fff50081"/><path d="M201-223l101-61" stroke-width="5.8" stroke="#fff87"/><path d="M54-271l-46-108" stroke-width="5.8" stroke="#c2e1ff88"/><path d="M28-69l-72 93" stroke-width="5.8" stroke="#fff50089"/><path d="M-6-113l-107 50" stroke-width="6.0" stroke="#fff8E"/><path d="M-16-173l-117-10" stroke-width="6.1" stroke="#c2e1ff91"/><path d="M177-75l78 88" stroke-width="6.2" stroke="#005bbb92"/><path d="M211-197l112-35" stroke-width="6.2" stroke="#c2e1ff93"/><path d="M164-66l65 97" stroke-width="6.3" stroke="#005bbb96"/><path d="M203-109l103 53" stroke-width="6.3" stroke="#fff96"/><path d="M-14-140l-114 22" stroke-width="6.3" stroke="#005bbb96"/><path d="M12-87l-89 75" stroke-width="6.4" stroke="#fff50097"/><path d="M60-271l-40-109" stroke-width="6.4" stroke="#005bbb98"/><path d="M2-223l-98-61" stroke-width="6.4" stroke="#fff9A"/><path d="M-12-135l-112 28" stroke-width="6.4" stroke="#fff5009A"/><path d="M-11-195l-111-33" stroke-width="6.4" stroke="#fff9A"/><path d="M34-257l-66-95" stroke-width="6.5" stroke="#005bbb9B"/><path d="M170-253l71-91" stroke-width="6.6" stroke="#fff9D"/><path d="M138-269l39-106" stroke-width="6.8" stroke="#fffA5"/><path d="M14-235l-86-73" stroke-width="6.8" stroke="#fff500A5"/><path d="M30-74l-70 88" stroke-width="6.9" stroke="#005bbbA5"/><path d="M213-166l112-4" stroke-width="6.9" stroke="#fffA5"/><path d="M-9-137l-109 26" stroke-width="6.9" stroke="#fff500A7"/><path d="M199-110l98 53" stroke-width="6.9" stroke="#fff500A8"/><path d="M-4-203l-104-41" stroke-width="7.0" stroke="#c2e1ffA8"/><path d="M207-133l108 29" stroke-width="7.0" stroke="#005bbbA9"/><path d="M125-270l24-108" stroke-width="7.1" stroke="#fffAC"/><path d="M177-241l76-78" stroke-width="7.2" stroke="#005bbbAF"/><path d="M167-76l67 86" stroke-width="7.2" stroke="#fff500B0"/><path d="M187-97l86 66" stroke-width="7.3" stroke="#005bbbB1"/><path d="M42-71l-57 92" stroke-width="7.3" stroke="#005bbbB2"/><path d="M50-258l-51-96" stroke-width="7.3" stroke="#fff500B3"/><path d="M161-251l61-88" stroke-width="7.4" stroke="#fff500B4"/><path d="M4-210l-96-47" stroke-width="7.4" stroke="#fffB5"/><path d="M120-58l20 105" stroke-width="7.4" stroke="#c2e1ffB6"/><path d="M92-57l-9 106" stroke-width="7.5" stroke="#fff500B7"/><path d="M6-115l-95 48" stroke-width="7.5" stroke="#005bbbB8"/><path d="M-1-192l-101-30" stroke-width="7.6" stroke="#fffB9"/><path d="M130-263l29-100" stroke-width="7.6" stroke="#c2e1ffBA"/><path d="M22-231l-77-69" stroke-width="7.7" stroke="#fff500BC"/><path d="M27-235l-74-73" stroke-width="7.7" stroke="#fff500BD"/><path d="M201-140l100 23" stroke-width="7.7" stroke="#005bbbBD"/><path d="M190-212l89-49" stroke-width="7.8" stroke="#005bbbBF"/><path d="M83-263l-17-100" stroke-width="7.8" stroke="#fffC0"/><path d="M197-135l98 28" stroke-width="7.8" stroke="#c2e1ffC1"/><path d="M201-162l101 0" stroke-width="7.8" stroke="#fffC1"/><path d="M63-69l-37 94" stroke-width="7.8" stroke="#fffC2"/><path d="M47-247l-54-85" stroke-width="7.9" stroke="#c2e1ffC2"/><path d="M153-78l52 84" stroke-width="7.9" stroke="#005bbbC4"/><path d="M183-216l83-53" stroke-width="8.0" stroke="#fff500C5"/><path d="M173-229l73-66" stroke-width="8.0" stroke="#fff500C5"/><path d="M31-233l-69-70" stroke-width="8.0" stroke="#fffC6"/><path d="M6-189l-93-27" stroke-width="8.0" stroke="#005bbbC7"/><path d="M71-72l-29 91" stroke-width="8.2" stroke="#fffCB"/><path d="M35-231l-65-69" stroke-width="8.2" stroke="#fff500CB"/><path d="M7-179l-92-16" stroke-width="8.2" stroke="#fff500CC"/><path d="M23-109l-78 53" stroke-width="8.2" stroke="#c2e1ffCC"/><path d="M10-142l-90 21" stroke-width="8.3" stroke="#005bbbCF"/><path d="M147-242l48-79" stroke-width="8.3" stroke="#005bbbCF"/><path d="M112-253l13-91" stroke-width="8.3" stroke="#fff500D0"/><path d="M181-202l81-40" stroke-width="8.4" stroke="#fffD1"/><path d="M130-247l29-84" stroke-width="8.4" stroke="#c2e1ffD2"/><path d="M139-83l40 79" stroke-width="8.5" stroke="#005bbbD3"/><path d="M71-245l-30-82" stroke-width="8.5" stroke="#005bbbD5"/><path d="M128-81l28 82" stroke-width="8.6" stroke="#005bbbD6"/><path d="M111-248l12-85" stroke-width="8.6" stroke="#fffD7"/><path d="M182-187l82-25" stroke-width="8.6" stroke="#005bbbD7"/><path d="M181-185l81-23" stroke-width="8.7" stroke="#c2e1ffD8"/><path d="M175-201l74-38" stroke-width="8.7" stroke="#005bbbD9"/><path d="M132-89l32 73" stroke-width="8.8" stroke="#fff500DD"/><path d="M158-110l57 52" stroke-width="8.9" stroke="#fff500DF"/><path d="M58-97l-42 65" stroke-width="8.9" stroke="#fffDF"/><path d="M29-132l-71 31" stroke-width="8.9" stroke="#005bbbDF"/><path d="M113-88l12 74" stroke-width="9.0" stroke="#c2e1ffE1"/><path d="M33-192l-66-29" stroke-width="9.0" stroke="#c2e1ffE4"/><path d="M89-233l-12-71" stroke-width="9.1" stroke="#fffE5"/><path d="M57-107l-44 56" stroke-width="9.1" stroke="#005bbbE5"/><path d="M30-164l-70-1" stroke-width="9.1" stroke="#005bbbE6"/><path d="M144-108l43 54" stroke-width="9.1" stroke="#c2e1ffE6"/><path d="M133-222l32-59" stroke-width="9.2" stroke="#005bbbE8"/><path d="M165-172l66-9" stroke-width="9.2" stroke="#fffE9"/><path d="M116-226l17-64" stroke-width="9.2" stroke="#c2e1ffE9"/><path d="M88-98l-11 64" stroke-width="9.2" stroke="#c2e1ffE9"/><path d="M157-193l57-30" stroke-width="9.3" stroke="#005bbbEA"/><path d="M147-121l46 42" stroke-width="9.3" stroke="#c2e1ffEB"/><path d="M74-219l-27-56" stroke-width="9.3" stroke="#fffEC"/><path d="M143-123l43 39" stroke-width="9.4" stroke="#c2e1ffEE"/><path d="M123-215l24-52" stroke-width="9.4" stroke="#fffEF"/><path d="M56-198l-44-35" stroke-width="9.5" stroke="#fffEF"/><path d="M112-217l12-54" stroke-width="9.5" stroke="#fffF0"/><path d="M117-207l17-44" stroke-width="9.6" stroke="#fff500F4"/><path d="M118-205l18-42" stroke-width="9.6" stroke="#fff500F5"/><path d="M68-131l-33 31" stroke-width="9.7" stroke="#005bbbF5"/><path d="M142-157l41 5" stroke-width="9.7" stroke="#fff500F6"/><path d="M128-131l27 31" stroke-width="9.7" stroke="#005bbbF6"/><path d="M85-128l-14 34" stroke-width="9.8" stroke="#c2e1ffF8"/><path d="M113-137l12 25" stroke-width="9.9" stroke="#005bbbFB"/><path d="M93-188l-6-26" stroke-width="9.9" stroke="#c2e1ffFB"/><path d="M123-151l24 11" stroke-width="9.9" stroke="#fffFB"/><path d="M121-160l20 3" stroke-width="9.9" stroke="#c2e1ffFD"/><path d="M107-166l7-4" stroke-width="10.0" stroke="#005bbbFE"/></g></svg>