<svg width="1200" height="675" viewBox="-500 -500 1200 675" xmlns="http://www.w3.org/2000/svg"><path d="M-500-500h1200v675h-1200z" fill="#000"/><style>.sparkles path{stroke-linecap:round}</style><g class="sparkles"><path d="M120-165l20-2" stroke-width="1.1" stroke="#EF8F881"/><path d="M124-140l23 22" stroke-width="1.2" stroke="#F6C8AC4"/><path d="M110-196l9-33" stroke-width="1.2" stroke="#F6C8AC5"/><path d="M130-182l30-19" stroke-width="1.2" stroke="#6E819E5"/><path d="M99-127l-2 36" stroke-width="1.2" stroke="#EF8F885"/><path d="M133-186l33-23" stroke-width="1.3" stroke="#6E819E7"/><path d="M57-153l-42 9" stroke-width="1.3" stroke="#EF8F889"/><path d="M94-111l-6 52" stroke-width="1.5" stroke="#2C4D5DD"/><path d="M48-171l-51-8" stroke-width="1.5" stroke="#FFFFFFD"/><path d="M127-115l27 48" stroke-width="1.5" stroke="#EF8F88E"/><path d="M157-162l57 1" stroke-width="1.6" stroke="#EFF7F5F"/><path d="M43-150l-57 13" stroke-width="1.6" stroke="#EFF7F510"/><path d="M111-224l11-62" stroke-width="1.7" stroke="#F6C8AC13"/><path d="M38-150l-62 12" stroke-width="1.7" stroke="#6E819E13"/><path d="M76-222l-24-59" stroke-width="1.7" stroke="#2C4D5D14"/><path d="M113-96l13 66" stroke-width="1.8" stroke="#EF8F8816"/><path d="M66-221l-34-59" stroke-width="1.8" stroke="#F6C8AC17"/><path d="M36-190l-64-27" stroke-width="1.9" stroke="#6E819E18"/><path d="M91-233l-9-71" stroke-width="1.9" stroke="#FFFFFF19"/><path d="M140-223l39-61" stroke-width="1.9" stroke="#EFF7F51A"/><path d="M145-102l44 60" stroke-width="2.0" stroke="#EFF7F51D"/><path d="M80-235l-20-73" stroke-width="2.0" stroke="#EF8F881D"/><path d="M164-123l65 39" stroke-width="2.0" stroke="#FFFFFF1D"/><path d="M170-192l70-30" stroke-width="2.1" stroke="#6E819E1E"/><path d="M68-233l-32-70" stroke-width="2.1" stroke="#6E819E1E"/><path d="M137-94l36 69" stroke-width="2.1" stroke="#F6C8AC1F"/><path d="M25-182l-76-20" stroke-width="2.1" stroke="#2C4D5D1F"/><path d="M179-159l79 3" stroke-width="2.2" stroke="#6E819E20"/><path d="M131-237l31-75" stroke-width="2.2" stroke="#EFF7F522"/><path d="M20-150l-81 12" stroke-width="2.2" stroke="#6E819E23"/><path d="M182-157l82 6" stroke-width="2.3" stroke="#FFFFFF23"/><path d="M161-220l61-57" stroke-width="2.3" stroke="#6E819E25"/><path d="M79-250l-22-87" stroke-width="2.6" stroke="#2C4D5D2C"/><path d="M179-116l80 47" stroke-width="2.7" stroke="#EFF7F52F"/><path d="M180-117l81 45" stroke-width="2.7" stroke="#F6C8AC2F"/><path d="M15-127l-86 35" stroke-width="2.7" stroke="#6E819E2F"/><path d="M43-89l-57 74" stroke-width="2.7" stroke="#FFFFFF31"/><path d="M6-153l-94 10" stroke-width="2.8" stroke="#6E819E33"/><path d="M138-249l38-87" stroke-width="2.8" stroke="#EF8F8833"/><path d="M81-258l-19-95" stroke-width="2.9" stroke="#FFFFFF36"/><path d="M19-103l-80 59" stroke-width="3.1" stroke="#EFF7F53B"/><path d="M-1-142l-100 21" stroke-width="3.3" stroke="#6E819E40"/><path d="M156-249l56-87" stroke-width="3.3" stroke="#2C4D5D41"/><path d="M191-110l90 53" stroke-width="3.4" stroke="#6E819E44"/><path d="M8-110l-92 52" stroke-width="3.5" stroke="#EFF7F546"/><path d="M-6-168l-106-5" stroke-width="3.5" stroke="#2C4D5D47"/><path d="M192-218l91-55" stroke-width="3.6" stroke="#FFFFFF49"/><path d="M202-199l101-37" stroke-width="3.7" stroke="#2C4D5D4C"/><path d="M82-269l-18-107" stroke-width="3.7" stroke="#FFFFFF4C"/><path d="M28-81l-72 81" stroke-width="3.7" stroke="#2C4D5D4D"/><path d="M205-196l105-33" stroke-width="3.8" stroke="#EF8F8850"/><path d="M31-76l-69 86" stroke-width="3.9" stroke="#EF8F8851"/><path d="M162-254l62-91" stroke-width="3.9" stroke="#FFFFFF51"/><path d="M210-162l111 0" stroke-width="3.9" stroke="#6E819E52"/><path d="M32-250l-68-87" stroke-width="3.9" stroke="#EF8F8852"/><path d="M28-78l-71 84" stroke-width="3.9" stroke="#6E819E52"/><path d="M184-90l84 73" stroke-width="4.0" stroke="#F6C8AC54"/><path d="M21-84l-78 79" stroke-width="4.0" stroke="#6E819E54"/><path d="M122-272l22-109" stroke-width="4.0" stroke="#EFF7F555"/><path d="M199-112l99 51" stroke-width="4.0" stroke="#EF8F8855"/><path d="M-4-205l-104-42" stroke-width="4.1" stroke="#EF8F8858"/><path d="M212-143l111 19" stroke-width="4.2" stroke="#EFF7F55A"/><path d="M211-187l112-25" stroke-width="4.3" stroke="#EF8F885E"/><path d="M177-78l78 84" stroke-width="4.4" stroke="#FFFFFF5F"/><path d="M173-74l73 88" stroke-width="4.4" stroke="#6E819E60"/><path d="M154-264l54-101" stroke-width="4.4" stroke="#EF8F8861"/><path d="M124-275l24-113" stroke-width="4.5" stroke="#EFF7F563"/><path d="M194-230l94-67" stroke-width="4.6" stroke="#2C4D5D64"/><path d="M-8-205l-108-42" stroke-width="4.6" stroke="#EF8F8866"/><path d="M216-166l116-4" stroke-width="4.6" stroke="#EFF7F567"/><path d="M-1-219l-101-57" stroke-width="4.6" stroke="#EF8F8867"/><path d="M211-127l110 35" stroke-width="4.7" stroke="#FFFFFF68"/><path d="M-16-151l-116 12" stroke-width="4.7" stroke="#2C4D5D69"/><path d="M215-179l116-16" stroke-width="4.7" stroke="#FFFFFF69"/><path d="M20-78l-80 85" stroke-width="4.8" stroke="#EF8F886A"/><path d="M-3-108l-103 55" stroke-width="4.8" stroke="#2C4D5D6B"/><path d="M14-241l-87-79" stroke-width="4.8" stroke="#6E819E6B"/><path d="M188-239l88-77" stroke-width="4.8" stroke="#2C4D5D6C"/><path d="M177-251l77-88" stroke-width="4.8" stroke="#EF8F886D"/><path d="M82-278l-18-115" stroke-width="4.9" stroke="#EFF7F56D"/><path d="M-10-121l-109 41" stroke-width="4.9" stroke="#F6C8AC6D"/><path d="M90-46l-10 117" stroke-width="4.9" stroke="#6E819E6F"/><path d="M20-248l-80-86" stroke-width="5.0" stroke="#EFF7F570"/><path d="M59-273l-42-110" stroke-width="5.1" stroke="#FFFFFF73"/><path d="M43-266l-57-103" stroke-width="5.2" stroke="#6E819E75"/><path d="M4-231l-95-69" stroke-width="5.2" stroke="#2C4D5D76"/><path d="M-15-136l-114 27" stroke-width="5.2" stroke="#2C4D5D76"/><path d="M178-74l77 89" stroke-width="5.3" stroke="#EF8F8878"/><path d="M41-61l-60 102" stroke-width="5.3" stroke="#EF8F8879"/><path d="M112-45l11 117" stroke-width="5.3" stroke="#FFFFFF79"/><path d="M76-47l-25 115" stroke-width="5.4" stroke="#2C4D5D7B"/><path d="M217-150l118 12" stroke-width="5.4" stroke="#EFF7F57B"/><path d="M196-231l96-69" stroke-width="5.4" stroke="#FFFFFF7C"/><path d="M7-235l-94-72" stroke-width="5.4" stroke="#F6C8AC7C"/><path d="M108-45l7 118" stroke-width="5.5" stroke="#EFF7F580"/><path d="M-15-190l-115-28" stroke-width="5.7" stroke="#EF8F8883"/><path d="M183-246l84-84" stroke-width="5.7" stroke="#EFF7F583"/><path d="M20-75l-79 87" stroke-width="5.7" stroke="#F6C8AC85"/><path d="M217-174l118-11" stroke-width="5.8" stroke="#EF8F8887"/><path d="M-15-186l-116-24" stroke-width="5.8" stroke="#F6C8AC88"/><path d="M32-258l-69-96" stroke-width="5.9" stroke="#2C4D5D89"/><path d="M31-258l-69-95" stroke-width="5.9" stroke="#F6C8AC8B"/><path d="M16-80l-83 83" stroke-width="5.9" stroke="#FFFFFF8C"/><path d="M212-198l112-36" stroke-width="6.0" stroke="#2C4D5D8D"/><path d="M207-115l107 48" stroke-width="6.0" stroke="#2C4D5D8F"/><path d="M-17-159l-117 4" stroke-width="6.1" stroke="#FFFFFF91"/><path d="M38-63l-61 99" stroke-width="6.2" stroke="#2C4D5D92"/><path d="M-10-201l-110-39" stroke-width="6.2" stroke="#F6C8AC93"/><path d="M89-46l-11 116" stroke-width="6.2" stroke="#F6C8AC93"/><path d="M23-250l-76-87" stroke-width="6.3" stroke="#6E819E96"/><path d="M209-202l109-39" stroke-width="6.4" stroke="#EF8F8898"/><path d="M-15-147l-114 15" stroke-width="6.4" stroke="#FFFFFF99"/><path d="M-1-106l-101 56" stroke-width="6.4" stroke="#EF8F8899"/><path d="M138-271l38-109" stroke-width="6.5" stroke="#2C4D5D9C"/><path d="M168-255l69-92" stroke-width="6.5" stroke="#F6C8AC9D"/><path d="M-7-121l-106 42" stroke-width="6.6" stroke="#2C4D5D9E"/><path d="M155-62l54 101" stroke-width="6.6" stroke="#EF8F889F"/><path d="M214-160l114 3" stroke-width="6.7" stroke="#2C4D5DA1"/><path d="M154-62l54 100" stroke-width="6.7" stroke="#2C4D5DA1"/><path d="M154-62l53 100" stroke-width="6.7" stroke="#F6C8ACA1"/><path d="M213-172l114-10" stroke-width="6.7" stroke="#F6C8ACA2"/><path d="M212-182l111-19" stroke-width="6.8" stroke="#FFFFFFA3"/><path d="M14-235l-85-73" stroke-width="6.9" stroke="#6E819EA6"/><path d="M4-221l-95-59" stroke-width="6.9" stroke="#FFFFFFA6"/><path d="M209-134l108 28" stroke-width="6.9" stroke="#F6C8ACA7"/><path d="M147-262l48-99" stroke-width="7.1" stroke="#FFFFFFAD"/><path d="M194-220l94-57" stroke-width="7.1" stroke="#EF8F88AD"/><path d="M-9-155l-110 7" stroke-width="7.2" stroke="#FFFFFFAE"/><path d="M29-246l-71-83" stroke-width="7.2" stroke="#FFFFFFAF"/><path d="M174-242l75-80" stroke-width="7.2" stroke="#2C4D5DB0"/><path d="M29-242l-70-79" stroke-width="7.5" stroke="#2C4D5DB7"/><path d="M102-57l2 106" stroke-width="7.5" stroke="#2C4D5DB7"/><path d="M67-62l-32 100" stroke-width="7.5" stroke="#F6C8ACB9"/><path d="M-2-139l-102 24" stroke-width="7.6" stroke="#EFF7F5BA"/><path d="M194-208l95-45" stroke-width="7.6" stroke="#EFF7F5BA"/><path d="M2-197l-99-35" stroke-width="7.6" stroke="#F6C8ACBB"/><path d="M201-185l101-23" stroke-width="7.7" stroke="#EF8F88BC"/><path d="M115-61l15 101" stroke-width="7.7" stroke="#2C4D5DBE"/><path d="M18-103l-82 60" stroke-width="7.8" stroke="#6E819EC1"/><path d="M21-102l-79 61" stroke-width="7.9" stroke="#EF8F88C4"/><path d="M16-110l-85 52" stroke-width="8.0" stroke="#EFF7F5C4"/><path d="M26-224l-74-62" stroke-width="8.1" stroke="#6E819EC8"/><path d="M61-74l-38 88" stroke-width="8.1" stroke="#F6C8ACC9"/><path d="M172-104l71 58" stroke-width="8.3" stroke="#2C4D5DCE"/><path d="M139-246l40-83" stroke-width="8.3" stroke="#EF8F88CF"/><path d="M190-173l91-11" stroke-width="8.4" stroke="#2C4D5DD0"/><path d="M95-74l-4 88" stroke-width="8.5" stroke="#F6C8ACD3"/><path d="M113-248l13-85" stroke-width="8.6" stroke="#FFFFFFD6"/><path d="M27-122l-72 41" stroke-width="8.7" stroke="#2C4D5DD9"/><path d="M178-150l77 13" stroke-width="8.9" stroke="#EFF7F5DE"/><path d="M155-106l54 56" stroke-width="8.9" stroke="#2C4D5DDE"/><path d="M123-235l22-72" stroke-width="8.9" stroke="#EFF7F5E1"/><path d="M155-111l55 51" stroke-width="9.0" stroke="#F6C8ACE1"/><path d="M136-226l36-64" stroke-width="9.0" stroke="#FFFFFFE3"/><path d="M135-226l35-63" stroke-width="9.1" stroke="#2C4D5DE4"/><path d="M28-157l-71 6" stroke-width="9.1" stroke="#FFFFFFE4"/><path d="M166-190l65-28" stroke-width="9.1" stroke="#F6C8ACE5"/><path d="M166-141l67 21" stroke-width="9.1" stroke="#EF8F88E6"/><path d="M52-210l-47-48" stroke-width="9.2" stroke="#6E819EE8"/><path d="M163-146l64 16" stroke-width="9.2" stroke="#EF8F88E9"/><path d="M126-223l26-60" stroke-width="9.2" stroke="#EFF7F5E9"/><path d="M126-222l27-59" stroke-width="9.3" stroke="#6E819EEA"/><path d="M134-113l33 49" stroke-width="9.4" stroke="#F6C8ACED"/><path d="M55-126l-45 37" stroke-width="9.4" stroke="#2C4D5DEE"/><path d="M52-132l-49 31" stroke-width="9.4" stroke="#2C4D5DEE"/><path d="M134-208l34-45" stroke-width="9.4" stroke="#F6C8ACEF"/><path d="M155-174l56-11" stroke-width="9.5" stroke="#6E819EEF"/><path d="M127-211l26-49" stroke-width="9.5" stroke="#F6C8ACEF"/><path d="M137-200l38-37" stroke-width="9.5" stroke="#EF8F88F1"/><path d="M91-115l-10 47" stroke-width="9.6" stroke="#EFF7F5F3"/><path d="M60-187l-40-24" stroke-width="9.6" stroke="#FFFFFFF4"/><path d="M90-117l-10 45" stroke-width="9.6" stroke="#EFF7F5F4"/><path d="M130-129l31 33" stroke-width="9.7" stroke="#EF8F88F5"/><path d="M85-120l-16 42" stroke-width="9.7" stroke="#EFF7F5F5"/><path d="M56-153l-43 9" stroke-width="9.7" stroke="#6E819EF5"/><path d="M86-122l-14 41" stroke-width="9.7" stroke="#6E819EF6"/><path d="M83-200l-17-37" stroke-width="9.7" stroke="#EFF7F5F7"/><path d="M68-148l-32 15" stroke-width="9.8" stroke="#6E819EF9"/><path d="M128-167l28-4" stroke-width="9.9" stroke="#6E819EFB"/><path d="M90-177l-9-15" stroke-width="9.9" stroke="#FFFFFFFD"/><path d="M104-158l3 4" stroke-width="10.0" stroke="#FFFFFFFE"/></g></svg>