<svg width="1200" height="675" viewBox="-500 -500 1200 675" xmlns="http://www.w3.org/2000/svg"><path d="M-500-500h1200v675h-1200z" fill="#000"/><style>.sparkles path{stroke-linecap:round}</style><g class="sparkles"><path d="M108-174l9-12" stroke-width="1.0" stroke="#005bbb0"/><path d="M92-178l-8-15" stroke-width="1.0" stroke="#c2e1ff1"/><path d="M122-166l22-3" stroke-width="1.1" stroke="#c2e1ff2"/><path d="M55-162l-45 0" stroke-width="1.3" stroke="#005bbb9"/><path d="M154-162l53 0" stroke-width="1.5" stroke="#fffD"/><path d="M153-182l54-19" stroke-width="1.6" stroke="#fffF"/><path d="M143-124l43 38" stroke-width="1.6" stroke="#fff50010"/><path d="M144-205l45-42" stroke-width="1.7" stroke="#c2e1ff12"/><path d="M63-213l-37-50" stroke-width="1.7" stroke="#c2e1ff13"/><path d="M119-102l20 60" stroke-width="1.7" stroke="#005bbb13"/><path d="M132-107l31 56" stroke-width="1.7" stroke="#c2e1ff14"/><path d="M107-97l7 65" stroke-width="1.8" stroke="#005bbb15"/><path d="M151-120l52 43" stroke-width="1.8" stroke="#fff50016"/><path d="M168-152l68 10" stroke-width="1.8" stroke="#fff50017"/><path d="M148-213l49-50" stroke-width="1.9" stroke="#005bbb18"/><path d="M168-143l67 19" stroke-width="1.9" stroke="#fff50018"/><path d="M50-112l-50 50" stroke-width="1.9" stroke="#c2e1ff19"/><path d="M32-138l-68 25" stroke-width="1.9" stroke="#fff1A"/><path d="M58-222l-42-59" stroke-width="2.0" stroke="#c2e1ff1A"/><path d="M143-222l43-60" stroke-width="2.0" stroke="#fff1B"/><path d="M44-214l-57-52" stroke-width="2.1" stroke="#005bbb1E"/><path d="M33-123l-68 40" stroke-width="2.1" stroke="#fff5001F"/><path d="M158-218l59-56" stroke-width="2.2" stroke="#fff22"/><path d="M77-240l-24-78" stroke-width="2.2" stroke="#fff50023"/><path d="M117-242l18-80" stroke-width="2.2" stroke="#fff23"/><path d="M178-188l78-26" stroke-width="2.3" stroke="#fff50023"/><path d="M127-85l28 78" stroke-width="2.3" stroke="#c2e1ff24"/><path d="M96-80l-3 83" stroke-width="2.3" stroke="#fff24"/><path d="M94-247l-6-84" stroke-width="2.3" stroke="#fff50026"/><path d="M15-172l-84-10" stroke-width="2.4" stroke="#fff50027"/><path d="M147-234l47-72" stroke-width="2.4" stroke="#fff50027"/><path d="M16-192l-84-30" stroke-width="2.5" stroke="#005bbb2B"/><path d="M112-72l12 91" stroke-width="2.6" stroke="#fff5002E"/><path d="M138-248l38-85" stroke-width="2.7" stroke="#fff31"/><path d="M168-230l69-67" stroke-width="2.9" stroke="#fff50035"/><path d="M196-163l97-1" stroke-width="2.9" stroke="#005bbb35"/><path d="M112-65l11 97" stroke-width="3.0" stroke="#fff50038"/><path d="M192-129l93 34" stroke-width="3.0" stroke="#c2e1ff38"/><path d="M191-123l91 40" stroke-width="3.0" stroke="#fff5003A"/><path d="M32-90l-68 73" stroke-width="3.1" stroke="#c2e1ff3B"/><path d="M131-67l31 96" stroke-width="3.2" stroke="#005bbb3D"/><path d="M149-74l48 88" stroke-width="3.2" stroke="#fff3D"/><path d="M195-126l95 37" stroke-width="3.2" stroke="#fff3F"/><path d="M116-61l15 102" stroke-width="3.3" stroke="#fff40"/><path d="M54-70l-45 92" stroke-width="3.3" stroke="#fff50040"/><path d="M149-71l49 92" stroke-width="3.4" stroke="#fff50043"/><path d="M185-224l85-62" stroke-width="3.4" stroke="#fff45"/><path d="M175-89l76 73" stroke-width="3.5" stroke="#fff50045"/><path d="M187-222l86-60" stroke-width="3.5" stroke="#005bbb45"/><path d="M0-127l-100 36" stroke-width="3.5" stroke="#fff50047"/><path d="M-6-165l-107-3" stroke-width="3.5" stroke="#fff47"/><path d="M1-208l-98-45" stroke-width="3.7" stroke="#c2e1ff4D"/><path d="M79-55l-22 107" stroke-width="3.8" stroke="#fff5004F"/><path d="M-6-136l-107 26" stroke-width="3.8" stroke="#005bbb50"/><path d="M53-63l-47 99" stroke-width="3.9" stroke="#005bbb51"/><path d="M137-266l37-104" stroke-width="3.9" stroke="#c2e1ff51"/><path d="M40-255l-59-93" stroke-width="3.9" stroke="#005bbb51"/><path d="M17-237l-83-74" stroke-width="4.0" stroke="#c2e1ff55"/><path d="M37-69l-63 93" stroke-width="4.2" stroke="#fff59"/><path d="M174-249l73-86" stroke-width="4.2" stroke="#fff5B"/><path d="M205-204l106-42" stroke-width="4.2" stroke="#c2e1ff5B"/><path d="M171-252l72-90" stroke-width="4.4" stroke="#fff61"/><path d="M42-63l-57 99" stroke-width="4.5" stroke="#005bbb61"/><path d="M25-75l-76 87" stroke-width="4.5" stroke="#fff63"/><path d="M210-197l110-35" stroke-width="4.5" stroke="#fff64"/><path d="M199-223l98-60" stroke-width="4.6" stroke="#c2e1ff64"/><path d="M7-231l-93-69" stroke-width="4.6" stroke="#fff64"/><path d="M112-48l13 115" stroke-width="4.6" stroke="#005bbb65"/><path d="M190-236l90-73" stroke-width="4.6" stroke="#005bbb67"/><path d="M-5-213l-105-51" stroke-width="4.8" stroke="#fff6A"/><path d="M56-55l-44 108" stroke-width="4.8" stroke="#fff5006A"/><path d="M-3-217l-104-54" stroke-width="4.8" stroke="#fff6C"/><path d="M165-259l66-97" stroke-width="4.8" stroke="#fff5006C"/><path d="M16-81l-83 82" stroke-width="4.9" stroke="#005bbb6D"/><path d="M107-46l6 117" stroke-width="4.9" stroke="#fff5006D"/><path d="M211-126l111 37" stroke-width="4.9" stroke="#fff6E"/><path d="M106-280l6-117" stroke-width="5.0" stroke="#fff50071"/><path d="M198-228l98-65" stroke-width="5.1" stroke="#fff50073"/><path d="M-17-149l-117 13" stroke-width="5.2" stroke="#fff50077"/><path d="M99-45l0 118" stroke-width="5.2" stroke="#fff78"/><path d="M86-280l-14-117" stroke-width="5.3" stroke="#c2e1ff79"/><path d="M215-190l115-27" stroke-width="5.3" stroke="#c2e1ff79"/><path d="M76-47l-24 116" stroke-width="5.3" stroke="#fff7A"/><path d="M126-47l27 115" stroke-width="5.3" stroke="#fff7B"/><path d="M211-121l110 41" stroke-width="5.4" stroke="#c2e1ff7C"/><path d="M-4-106l-103 57" stroke-width="5.5" stroke="#c2e1ff7E"/><path d="M89-45l-10 118" stroke-width="5.5" stroke="#c2e1ff7F"/><path d="M193-89l93 73" stroke-width="5.6" stroke="#fff81"/><path d="M52-55l-49 108" stroke-width="5.6" stroke="#fff83"/><path d="M214-133l115 29" stroke-width="5.7" stroke="#005bbb85"/><path d="M76-47l-23 115" stroke-width="5.9" stroke="#fff8A"/><path d="M217-157l118 6" stroke-width="6.0" stroke="#c2e1ff8D"/><path d="M74-277l-26-114" stroke-width="6.0" stroke="#c2e1ff8E"/><path d="M178-250l79-87" stroke-width="6.1" stroke="#c2e1ff8F"/><path d="M178-250l78-87" stroke-width="6.1" stroke="#fff50091"/><path d="M38-64l-62 99" stroke-width="6.2" stroke="#fff50092"/><path d="M215-144l115 19" stroke-width="6.3" stroke="#c2e1ff94"/><path d="M58-271l-41-108" stroke-width="6.4" stroke="#fff50097"/><path d="M38-65l-62 98" stroke-width="6.4" stroke="#005bbb98"/><path d="M2-101l-98 61" stroke-width="6.4" stroke="#fff5009A"/><path d="M51-267l-50-104" stroke-width="6.5" stroke="#fff5009B"/><path d="M193-94l92 68" stroke-width="6.5" stroke="#fff9C"/><path d="M211-134l111 29" stroke-width="6.5" stroke="#fff5009C"/><path d="M25-249l-75-87" stroke-width="6.6" stroke="#c2e1ff9D"/><path d="M165-70l65 93" stroke-width="6.8" stroke="#005bbbA3"/><path d="M24-79l-76 84" stroke-width="6.8" stroke="#005bbbA4"/><path d="M162-257l62-95" stroke-width="6.8" stroke="#fffA4"/><path d="M102-275l3-113" stroke-width="6.8" stroke="#fffA5"/><path d="M-9-134l-109 28" stroke-width="6.8" stroke="#005bbbA5"/><path d="M30-74l-69 88" stroke-width="6.9" stroke="#fff500A7"/><path d="M-12-172l-111-9" stroke-width="6.9" stroke="#005bbbA7"/><path d="M209-139l110 24" stroke-width="6.9" stroke="#005bbbA8"/><path d="M177-82l78 81" stroke-width="6.9" stroke="#c2e1ffA8"/><path d="M-4-123l-104 39" stroke-width="7.0" stroke="#fffAA"/><path d="M-6-132l-106 30" stroke-width="7.1" stroke="#fffAC"/><path d="M12-98l-89 65" stroke-width="7.2" stroke="#fffAE"/><path d="M111-54l12 109" stroke-width="7.2" stroke="#fffAF"/><path d="M148-261l47-98" stroke-width="7.2" stroke="#005bbbAF"/><path d="M94-271l-6-109" stroke-width="7.2" stroke="#fff500B0"/><path d="M14-97l-87 66" stroke-width="7.3" stroke="#fffB1"/><path d="M208-162l108 0" stroke-width="7.3" stroke="#005bbbB2"/><path d="M146-260l46-97" stroke-width="7.4" stroke="#fff500B4"/><path d="M206-162l106 0" stroke-width="7.5" stroke="#005bbbB8"/><path d="M3-127l-98 35" stroke-width="7.7" stroke="#fffBC"/><path d="M155-77l54 86" stroke-width="7.8" stroke="#fff500C0"/><path d="M6-201l-94-39" stroke-width="7.8" stroke="#c2e1ffC0"/><path d="M8-205l-92-43" stroke-width="7.8" stroke="#005bbbC1"/><path d="M59-72l-42 91" stroke-width="7.9" stroke="#fff500C3"/><path d="M173-96l72 67" stroke-width="8.0" stroke="#005bbbC5"/><path d="M53-249l-47-86" stroke-width="8.0" stroke="#c2e1ffC6"/><path d="M33-234l-66-72" stroke-width="8.0" stroke="#c2e1ffC6"/><path d="M107-65l8 97" stroke-width="8.0" stroke="#c2e1ffC7"/><path d="M168-232l69-69" stroke-width="8.1" stroke="#005bbbC7"/><path d="M148-79l49 84" stroke-width="8.1" stroke="#c2e1ffC8"/><path d="M70-72l-30 91" stroke-width="8.2" stroke="#fffCA"/><path d="M31-100l-69 63" stroke-width="8.3" stroke="#fffCD"/><path d="M156-236l57-73" stroke-width="8.3" stroke="#005bbbCF"/><path d="M166-99l67 63" stroke-width="8.3" stroke="#005bbbCF"/><path d="M187-136l88 27" stroke-width="8.4" stroke="#fff500D0"/><path d="M106-72l6 91" stroke-width="8.4" stroke="#fff500D0"/><path d="M184-131l85 32" stroke-width="8.4" stroke="#c2e1ffD1"/><path d="M16-131l-84 31" stroke-width="8.4" stroke="#fffD2"/><path d="M186-140l85 23" stroke-width="8.5" stroke="#c2e1ffD3"/><path d="M25-115l-74 48" stroke-width="8.5" stroke="#fff500D3"/><path d="M84-75l-17 87" stroke-width="8.5" stroke="#c2e1ffD3"/><path d="M100-250l0-88" stroke-width="8.5" stroke="#fff500D4"/><path d="M157-97l58 66" stroke-width="8.5" stroke="#fffD5"/><path d="M83-79l-18 83" stroke-width="8.6" stroke="#fff500D8"/><path d="M99-246l-1-83" stroke-width="8.7" stroke="#fff500D9"/><path d="M150-229l50-66" stroke-width="8.7" stroke="#005bbbDA"/><path d="M182-152l82 10" stroke-width="8.7" stroke="#005bbbDA"/><path d="M171-121l71 41" stroke-width="8.7" stroke="#005bbbDB"/><path d="M91-243l-9-81" stroke-width="8.8" stroke="#c2e1ffDC"/><path d="M36-211l-65-49" stroke-width="8.8" stroke="#fff500DC"/><path d="M74-239l-26-76" stroke-width="8.8" stroke="#fffDC"/><path d="M63-233l-37-71" stroke-width="8.8" stroke="#fffDD"/><path d="M174-135l75 28" stroke-width="8.8" stroke="#fff500DE"/><path d="M37-115l-63 47" stroke-width="8.9" stroke="#005bbbDE"/><path d="M94-87l-6 76" stroke-width="8.9" stroke="#fff500E1"/><path d="M99-89l0 74" stroke-width="9.0" stroke="#fffE2"/><path d="M77-233l-23-70" stroke-width="9.0" stroke="#005bbbE2"/><path d="M165-128l65 35" stroke-width="9.0" stroke="#c2e1ffE3"/><path d="M50-214l-51-52" stroke-width="9.1" stroke="#fff500E4"/><path d="M35-193l-65-30" stroke-width="9.1" stroke="#fffE4"/><path d="M152-208l51-46" stroke-width="9.2" stroke="#fff500E6"/><path d="M52-208l-48-46" stroke-width="9.2" stroke="#fff500E8"/><path d="M40-139l-61 24" stroke-width="9.3" stroke="#c2e1ffEA"/><path d="M104-225l4-63" stroke-width="9.3" stroke="#005bbbEB"/><path d="M129-209l29-47" stroke-width="9.5" stroke="#fff500F0"/><path d="M117-213l17-51" stroke-width="9.5" stroke="#005bbbF1"/><path d="M147-185l47-23" stroke-width="9.5" stroke="#c2e1ffF1"/><path d="M100-117l-1 46" stroke-width="9.7" stroke="#fffF5"/><path d="M133-154l33 9" stroke-width="9.8" stroke="#c2e1ffF9"/><path d="M74-181l-25-19" stroke-width="9.8" stroke="#005bbbFA"/><path d="M80-186l-21-23" stroke-width="9.8" stroke="#005bbbFA"/><path d="M97-133l-4 30" stroke-width="9.9" stroke="#fff500FA"/><path d="M118-177l18-15" stroke-width="9.9" stroke="#005bbbFC"/><path d="M96-142l-4 21" stroke-width="9.9" stroke="#fff500FC"/><path d="M108-180l9-18" stroke-width="9.9" stroke="#fff500FD"/><path d="M96-146l-3 17" stroke-width="10.0" stroke="#005bbbFD"/><path d="M117-162l17 0" stroke-width="10.0" stroke="#c2e1ffFD"/></g></svg>