<svg width="1200" height="675" viewBox="-500 -500 1200 675" xmlns="http://www.w3.org/2000/svg"><path d="M-500-500h1200v675h-1200z" fill="#000"/><style>.sparkles path{stroke-linecap:round}</style><g class="sparkles"><path d="M118-165l18-3" stroke-width="1.1" stroke="#c2e1ff1"/><path d="M117-185l16-22" stroke-width="1.1" stroke="#c2e1ff3"/><path d="M115-194l16-32" stroke-width="1.2" stroke="#fff5005"/><path d="M116-125l16 37" stroke-width="1.3" stroke="#fff5007"/><path d="M129-133l29 29" stroke-width="1.3" stroke="#fff8"/><path d="M72-196l-27-33" stroke-width="1.3" stroke="#fff5008"/><path d="M124-199l24-37" stroke-width="1.3" stroke="#fff9"/><path d="M64-135l-36 27" stroke-width="1.3" stroke="#c2e1ff9"/><path d="M69-127l-30 36" stroke-width="1.4" stroke="#fff500A"/><path d="M62-194l-38-32" stroke-width="1.4" stroke="#005bbbB"/><path d="M107-214l8-52" stroke-width="1.5" stroke="#fffD"/><path d="M53-189l-47-26" stroke-width="1.5" stroke="#fff500D"/><path d="M133-117l34 45" stroke-width="1.5" stroke="#005bbbF"/><path d="M157-175l58-13" stroke-width="1.6" stroke="#c2e1ff10"/><path d="M41-174l-60-11" stroke-width="1.6" stroke="#fff50011"/><path d="M83-222l-16-59" stroke-width="1.7" stroke="#c2e1ff12"/><path d="M92-226l-8-63" stroke-width="1.7" stroke="#005bbb14"/><path d="M146-117l46 45" stroke-width="1.7" stroke="#c2e1ff14"/><path d="M145-112l46 51" stroke-width="1.8" stroke="#c2e1ff17"/><path d="M73-99l-26 64" stroke-width="1.8" stroke="#fff50018"/><path d="M94-240l-6-77" stroke-width="2.1" stroke="#c2e1ff1F"/><path d="M120-85l20 78" stroke-width="2.2" stroke="#fff50022"/><path d="M21-143l-78 19" stroke-width="2.2" stroke="#005bbb22"/><path d="M77-240l-23-78" stroke-width="2.2" stroke="#005bbb22"/><path d="M90-243l-10-81" stroke-width="2.2" stroke="#fff50022"/><path d="M160-217l61-55" stroke-width="2.2" stroke="#c2e1ff23"/><path d="M112-244l12-81" stroke-width="2.3" stroke="#fff50023"/><path d="M118-243l19-80" stroke-width="2.3" stroke="#fff23"/><path d="M38-216l-62-54" stroke-width="2.3" stroke="#c2e1ff23"/><path d="M76-84l-24 79" stroke-width="2.3" stroke="#005bbb24"/><path d="M66-87l-34 76" stroke-width="2.3" stroke="#c2e1ff24"/><path d="M177-126l77 37" stroke-width="2.4" stroke="#005bbb27"/><path d="M24-203l-75-41" stroke-width="2.4" stroke="#fff28"/><path d="M11-170l-89-8" stroke-width="2.5" stroke="#fff5002B"/><path d="M113-251l12-88" stroke-width="2.6" stroke="#c2e1ff2C"/><path d="M38-228l-61-65" stroke-width="2.6" stroke="#fff5002C"/><path d="M188-186l88-23" stroke-width="2.6" stroke="#005bbb2E"/><path d="M188-188l87-25" stroke-width="2.6" stroke="#fff5002E"/><path d="M130-249l30-87" stroke-width="2.7" stroke="#fff5002F"/><path d="M74-74l-26 88" stroke-width="2.7" stroke="#c2e1ff2F"/><path d="M8-179l-92-17" stroke-width="2.8" stroke="#c2e1ff31"/><path d="M191-190l91-27" stroke-width="2.8" stroke="#005bbb33"/><path d="M18-216l-82-53" stroke-width="3.0" stroke="#fff50038"/><path d="M2-162l-98 1" stroke-width="3.0" stroke="#fff50038"/><path d="M195-131l95 31" stroke-width="3.1" stroke="#fff5003B"/><path d="M190-208l89-46" stroke-width="3.2" stroke="#fff5003C"/><path d="M201-172l101-10" stroke-width="3.2" stroke="#fff5003D"/><path d="M165-241l65-78" stroke-width="3.2" stroke="#005bbb3E"/><path d="M16-222l-83-60" stroke-width="3.3" stroke="#c2e1ff40"/><path d="M5-203l-95-41" stroke-width="3.3" stroke="#005bbb42"/><path d="M2-195l-99-33" stroke-width="3.3" stroke="#fff42"/><path d="M191-214l91-52" stroke-width="3.4" stroke="#005bbb44"/><path d="M197-123l98 39" stroke-width="3.4" stroke="#005bbb45"/><path d="M204-191l103-28" stroke-width="3.6" stroke="#005bbb4A"/><path d="M112-56l12 107" stroke-width="3.6" stroke="#fff5004A"/><path d="M203-131l103 31" stroke-width="3.6" stroke="#fff4A"/><path d="M83-56l-18 107" stroke-width="3.7" stroke="#c2e1ff4C"/><path d="M199-209l99-46" stroke-width="3.8" stroke="#fff5004E"/><path d="M133-267l34-104" stroke-width="3.8" stroke="#c2e1ff4F"/><path d="M32-249l-69-86" stroke-width="3.9" stroke="#fff50051"/><path d="M31-249l-68-86" stroke-width="3.9" stroke="#c2e1ff51"/><path d="M208-140l108 22" stroke-width="3.9" stroke="#c2e1ff51"/><path d="M181-239l81-76" stroke-width="4.0" stroke="#c2e1ff54"/><path d="M197-107l96 56" stroke-width="4.0" stroke="#005bbb56"/><path d="M-7-130l-107 33" stroke-width="4.1" stroke="#005bbb57"/><path d="M43-66l-58 97" stroke-width="4.1" stroke="#fff57"/><path d="M163-255l63-93" stroke-width="4.1" stroke="#fff50058"/><path d="M94-49l-6 114" stroke-width="4.3" stroke="#fff5005C"/><path d="M178-79l78 83" stroke-width="4.3" stroke="#fff5005E"/><path d="M23-246l-77-84" stroke-width="4.3" stroke="#fff5E"/><path d="M90-276l-10-114" stroke-width="4.3" stroke="#fff5E"/><path d="M29-252l-72-89" stroke-width="4.4" stroke="#fff5005F"/><path d="M119-50l19 113" stroke-width="4.4" stroke="#fff5F"/><path d="M131-52l30 110" stroke-width="4.4" stroke="#005bbb60"/><path d="M101-278l0-115" stroke-width="4.5" stroke="#c2e1ff62"/><path d="M213-187l112-24" stroke-width="4.5" stroke="#c2e1ff63"/><path d="M139-54l38 109" stroke-width="4.6" stroke="#fff50065"/><path d="M208-120l107 42" stroke-width="4.6" stroke="#c2e1ff65"/><path d="M66-273l-35-110" stroke-width="4.6" stroke="#fff65"/><path d="M2-224l-98-62" stroke-width="4.6" stroke="#fff66"/><path d="M213-192l112-29" stroke-width="4.7" stroke="#fff5006A"/><path d="M-12-130l-112 32" stroke-width="4.8" stroke="#fff5006A"/><path d="M-17-161l-117 1" stroke-width="4.9" stroke="#fff6D"/><path d="M217-154l117 9" stroke-width="5.0" stroke="#c2e1ff71"/><path d="M-13-197l-112-34" stroke-width="5.1" stroke="#fff74"/><path d="M-10-121l-111 41" stroke-width="5.2" stroke="#fff50075"/><path d="M134-50l33 113" stroke-width="5.2" stroke="#c2e1ff77"/><path d="M-17-178l-117-16" stroke-width="5.2" stroke="#fff50077"/><path d="M166-65l65 98" stroke-width="5.2" stroke="#c2e1ff77"/><path d="M214-131l114 31" stroke-width="5.3" stroke="#005bbb79"/><path d="M-10-206l-109-44" stroke-width="5.3" stroke="#fff79"/><path d="M188-84l88 78" stroke-width="5.3" stroke="#005bbb7B"/><path d="M192-88l92 74" stroke-width="5.4" stroke="#c2e1ff7C"/><path d="M205-108l105 54" stroke-width="5.4" stroke="#fff7C"/><path d="M-11-203l-111-41" stroke-width="5.4" stroke="#fff5007D"/><path d="M218-153l117 10" stroke-width="5.4" stroke="#005bbb7D"/><path d="M55-53l-45 109" stroke-width="5.5" stroke="#fff5007F"/><path d="M131-48l30 114" stroke-width="5.5" stroke="#fff7F"/><path d="M217-148l117 14" stroke-width="5.7" stroke="#c2e1ff85"/><path d="M32-66l-68 96" stroke-width="5.8" stroke="#fff87"/><path d="M-13-128l-113 34" stroke-width="5.8" stroke="#005bbb88"/><path d="M2-97l-97 66" stroke-width="5.9" stroke="#fff89"/><path d="M-8-210l-107-48" stroke-width="5.9" stroke="#fff8A"/><path d="M18-246l-83-84" stroke-width="5.9" stroke="#005bbb8A"/><path d="M209-206l110-43" stroke-width="5.9" stroke="#fff8B"/><path d="M0-224l-100-61" stroke-width="6.0" stroke="#c2e1ff8D"/><path d="M29-256l-71-93" stroke-width="6.0" stroke="#005bbb8E"/><path d="M31-257l-68-95" stroke-width="6.1" stroke="#c2e1ff8F"/><path d="M184-244l83-82" stroke-width="6.1" stroke="#c2e1ff90"/><path d="M84-47l-15 116" stroke-width="6.1" stroke="#c2e1ff90"/><path d="M7-233l-93-71" stroke-width="6.2" stroke="#fff50094"/><path d="M-11-127l-111 36" stroke-width="6.3" stroke="#fff95"/><path d="M75-275l-25-113" stroke-width="6.5" stroke="#fff5009B"/><path d="M126-274l26-111" stroke-width="6.7" stroke="#c2e1ffA0"/><path d="M15-237l-86-75" stroke-width="6.8" stroke="#005bbbA3"/><path d="M192-224l93-62" stroke-width="7.0" stroke="#c2e1ffAA"/><path d="M-11-158l-111 4" stroke-width="7.0" stroke="#005bbbAB"/><path d="M51-262l-50-99" stroke-width="7.1" stroke="#c2e1ffAC"/><path d="M186-230l86-68" stroke-width="7.2" stroke="#fff500AF"/><path d="M4-110l-96 52" stroke-width="7.2" stroke="#fff500B0"/><path d="M198-210l99-47" stroke-width="7.2" stroke="#005bbbB0"/><path d="M73-57l-28 106" stroke-width="7.2" stroke="#fff500B0"/><path d="M203-198l102-36" stroke-width="7.3" stroke="#c2e1ffB1"/><path d="M22-237l-79-74" stroke-width="7.3" stroke="#c2e1ffB3"/><path d="M207-164l108-2" stroke-width="7.4" stroke="#005bbbB4"/><path d="M25-86l-76 76" stroke-width="7.4" stroke="#005bbbB4"/><path d="M95-269l-5-107" stroke-width="7.4" stroke="#c2e1ffB5"/><path d="M150-68l50 94" stroke-width="7.4" stroke="#c2e1ffB6"/><path d="M-5-179l-105-17" stroke-width="7.4" stroke="#005bbbB6"/><path d="M177-235l76-73" stroke-width="7.5" stroke="#005bbbB8"/><path d="M40-76l-60 87" stroke-width="7.5" stroke="#005bbbB9"/><path d="M190-108l91 54" stroke-width="7.5" stroke="#fffB9"/><path d="M113-58l14 104" stroke-width="7.6" stroke="#fffBA"/><path d="M2-125l-97 37" stroke-width="7.6" stroke="#c2e1ffBA"/><path d="M27-89l-73 74" stroke-width="7.6" stroke="#005bbbBC"/><path d="M54-253l-46-91" stroke-width="7.8" stroke="#fffC0"/><path d="M8-205l-92-43" stroke-width="7.8" stroke="#fff500C0"/><path d="M196-131l97 32" stroke-width="7.8" stroke="#005bbbC0"/><path d="M24-97l-75 66" stroke-width="7.9" stroke="#005bbbC2"/><path d="M74-259l-26-97" stroke-width="7.9" stroke="#fffC3"/><path d="M187-113l87 50" stroke-width="7.9" stroke="#fffC3"/><path d="M14-114l-86 49" stroke-width="8.0" stroke="#fffC5"/><path d="M44-242l-56-80" stroke-width="8.1" stroke="#005bbbC7"/><path d="M141-74l40 88" stroke-width="8.1" stroke="#c2e1ffC8"/><path d="M4-162l-97 1" stroke-width="8.1" stroke="#fff500C9"/><path d="M162-234l61-71" stroke-width="8.2" stroke="#fff500CC"/><path d="M169-100l70 62" stroke-width="8.3" stroke="#c2e1ffCD"/><path d="M43-92l-57 70" stroke-width="8.4" stroke="#005bbbD1"/><path d="M129-77l29 86" stroke-width="8.4" stroke="#c2e1ffD1"/><path d="M25-117l-75 46" stroke-width="8.5" stroke="#fff500D4"/><path d="M120-78l19 84" stroke-width="8.6" stroke="#c2e1ffD6"/><path d="M173-208l73-46" stroke-width="8.6" stroke="#fff500D6"/><path d="M37-105l-63 57" stroke-width="8.6" stroke="#c2e1ffD7"/><path d="M31-212l-69-50" stroke-width="8.6" stroke="#005bbbD7"/><path d="M36-110l-64 52" stroke-width="8.7" stroke="#005bbbDA"/><path d="M109-82l8 81" stroke-width="8.8" stroke="#fffDB"/><path d="M172-136l72 27" stroke-width="8.9" stroke="#005bbbE0"/><path d="M71-233l-29-70" stroke-width="8.9" stroke="#c2e1ffE1"/><path d="M175-162l75 0" stroke-width="9.0" stroke="#fff500E1"/><path d="M25-157l-75 5" stroke-width="9.0" stroke="#fffE2"/><path d="M69-229l-30-67" stroke-width="9.0" stroke="#fff500E3"/><path d="M141-223l41-61" stroke-width="9.0" stroke="#fffE3"/><path d="M143-108l43 55" stroke-width="9.1" stroke="#fffE6"/><path d="M45-122l-56 40" stroke-width="9.2" stroke="#005bbbE7"/><path d="M165-183l64-20" stroke-width="9.2" stroke="#005bbbE7"/><path d="M33-172l-67-10" stroke-width="9.2" stroke="#fffE8"/><path d="M115-98l14 65" stroke-width="9.2" stroke="#005bbbE9"/><path d="M53-127l-46 35" stroke-width="9.4" stroke="#c2e1ffEE"/><path d="M111-220l12-57" stroke-width="9.4" stroke="#c2e1ffEE"/><path d="M61-123l-40 40" stroke-width="9.5" stroke="#c2e1ffEF"/><path d="M137-139l36 24" stroke-width="9.7" stroke="#fffF5"/><path d="M133-135l33 27" stroke-width="9.7" stroke="#c2e1ffF6"/><path d="M93-204l-6-42" stroke-width="9.7" stroke="#005bbbF6"/><path d="M140-156l40 7" stroke-width="9.7" stroke="#005bbbF7"/><path d="M70-138l-30 24" stroke-width="9.8" stroke="#c2e1ffF7"/><path d="M131-184l31-22" stroke-width="9.8" stroke="#005bbbF8"/><path d="M117-188l16-25" stroke-width="9.9" stroke="#fffFA"/><path d="M73-155l-28 8" stroke-width="9.9" stroke="#fff500FB"/><path d="M83-162l-17 1" stroke-width="10.0" stroke="#c2e1ffFD"/><path d="M95-177l-4-15" stroke-width="10.0" stroke="#fffFD"/><path d="M110-161l9 1" stroke-width="10.0" stroke="#c2e1ffFE"/></g></svg>