<svg width="1200" height="675" viewBox="-500 -500 1200 675" xmlns="http://www.w3.org/2000/svg"><path d="M-500-500h1200v675h-1200z" fill="#000"/><style>.sparkles path{stroke-linecap:round}</style><g class="sparkles"><path d="M103-152l3 11" stroke-width="1.0" stroke="#0035660"/><path d="M88-169l-12-6" stroke-width="1.0" stroke="#001d3d0"/><path d="M101-146l1 17" stroke-width="1.0" stroke="#001d3d1"/><path d="M116-170l16-7" stroke-width="1.0" stroke="#ffc3001"/><path d="M72-153l-28 10" stroke-width="1.1" stroke="#001d3d4"/><path d="M87-191l-14-28" stroke-width="1.2" stroke="#ffd60a4"/><path d="M61-163l-38-1" stroke-width="1.2" stroke="#0008146"/><path d="M72-196l-27-33" stroke-width="1.3" stroke="#0035668"/><path d="M105-206l5-43" stroke-width="1.3" stroke="#ffd60a9"/><path d="M93-206l-6-43" stroke-width="1.3" stroke="#001d3d9"/><path d="M93-206l-8-44" stroke-width="1.3" stroke="#001d3d9"/><path d="M97-118l-3 45" stroke-width="1.3" stroke="#ffd60a9"/><path d="M125-120l25 42" stroke-width="1.4" stroke="#000814B"/><path d="M140-193l40-31" stroke-width="1.4" stroke="#001d3dC"/><path d="M117-212l17-50" stroke-width="1.5" stroke="#003566D"/><path d="M117-110l18 52" stroke-width="1.5" stroke="#003566E"/><path d="M91-106l-9 57" stroke-width="1.6" stroke="#00081410"/><path d="M156-187l57-24" stroke-width="1.7" stroke="#001d3d12"/><path d="M75-219l-25-56" stroke-width="1.7" stroke="#00081412"/><path d="M163-161l63 2" stroke-width="1.7" stroke="#001d3d13"/><path d="M119-99l19 64" stroke-width="1.8" stroke="#00081416"/><path d="M30-153l-70 10" stroke-width="1.9" stroke="#ffc30019"/><path d="M138-101l37 61" stroke-width="1.9" stroke="#ffd60a1A"/><path d="M132-228l32-66" stroke-width="2.0" stroke="#001d3d1B"/><path d="M174-165l73-3" stroke-width="2.0" stroke="#ffc3001B"/><path d="M149-217l50-55" stroke-width="2.0" stroke="#0035661B"/><path d="M88-86l-12 76" stroke-width="2.1" stroke="#ffc3001E"/><path d="M43-110l-56 52" stroke-width="2.1" stroke="#001d3d1E"/><path d="M22-164l-78-1" stroke-width="2.1" stroke="#0008141F"/><path d="M42-218l-58-56" stroke-width="2.2" stroke="#ffc30021"/><path d="M127-242l27-79" stroke-width="2.3" stroke="#001d3d25"/><path d="M65-242l-35-79" stroke-width="2.4" stroke="#00356628"/><path d="M100-249l-1-87" stroke-width="2.4" stroke="#00356628"/><path d="M17-126l-83 36" stroke-width="2.6" stroke="#ffd60a2D"/><path d="M16-199l-83-37" stroke-width="2.6" stroke="#001d3d2E"/><path d="M149-85l49 77" stroke-width="2.7" stroke="#ffd60a2E"/><path d="M45-89l-56 74" stroke-width="2.7" stroke="#ffd60a2F"/><path d="M44-237l-56-74" stroke-width="2.7" stroke="#001d3d31"/><path d="M158-236l59-73" stroke-width="2.7" stroke="#00081431"/><path d="M194-162l94 0" stroke-width="2.8" stroke="#00081432"/><path d="M83-70l-18 92" stroke-width="2.8" stroke="#001d3d32"/><path d="M106-258l6-95" stroke-width="2.8" stroke="#00081434"/><path d="M3-166l-96-4" stroke-width="2.9" stroke="#ffc30036"/><path d="M197-153l97 9" stroke-width="3.0" stroke="#001d3d37"/><path d="M45-244l-55-81" stroke-width="3.0" stroke="#ffd60a38"/><path d="M153-79l52 84" stroke-width="3.0" stroke="#0035663A"/><path d="M192-124l91 38" stroke-width="3.1" stroke="#ffc3003A"/><path d="M51-76l-49 87" stroke-width="3.1" stroke="#ffd60a3A"/><path d="M45-247l-54-85" stroke-width="3.2" stroke="#ffd60a3D"/><path d="M66-67l-33 95" stroke-width="3.2" stroke="#0008143D"/><path d="M100-264l-1-102" stroke-width="3.2" stroke="#001d3d3E"/><path d="M21-97l-79 66" stroke-width="3.3" stroke="#001d3d40"/><path d="M90-60l-10 102" stroke-width="3.3" stroke="#ffc30040"/><path d="M66-261l-34-99" stroke-width="3.4" stroke="#ffc30043"/><path d="M54-257l-47-94" stroke-width="3.4" stroke="#ffd60a44"/><path d="M160-252l59-90" stroke-width="3.6" stroke="#0008144A"/><path d="M-9-171l-108-8" stroke-width="3.8" stroke="#ffc3004E"/><path d="M143-61l43 102" stroke-width="3.9" stroke="#00356652"/><path d="M-7-131l-107 32" stroke-width="4.0" stroke="#00356655"/><path d="M-4-204l-103-42" stroke-width="4.0" stroke="#00356655"/><path d="M189-95l90 67" stroke-width="4.1" stroke="#ffd60a56"/><path d="M31-251l-68-89" stroke-width="4.1" stroke="#00356657"/><path d="M94-49l-5 113" stroke-width="4.3" stroke="#001d3d5C"/><path d="M21-81l-79 82" stroke-width="4.3" stroke="#ffc3005C"/><path d="M22-246l-78-83" stroke-width="4.3" stroke="#0035665D"/><path d="M210-192l111-30" stroke-width="4.4" stroke="#001d3d5F"/><path d="M20-81l-80 82" stroke-width="4.4" stroke="#001d3d5F"/><path d="M25-250l-74-87" stroke-width="4.4" stroke="#00356661"/><path d="M128-274l28-112" stroke-width="4.5" stroke="#00081463"/><path d="M12-237l-88-75" stroke-width="4.5" stroke="#00081463"/><path d="M136-272l36-110" stroke-width="4.6" stroke="#ffd60a64"/><path d="M214-141l114 22" stroke-width="4.6" stroke="#ffc30066"/><path d="M214-186l113-24" stroke-width="4.7" stroke="#00081467"/><path d="M183-81l83 81" stroke-width="4.7" stroke="#00356668"/><path d="M81-47l-20 115" stroke-width="4.8" stroke="#0008146C"/><path d="M190-237l91-74" stroke-width="4.9" stroke="#0035666E"/><path d="M212-130l113 33" stroke-width="4.9" stroke="#ffc3006E"/><path d="M-17-175l-117-13" stroke-width="5.0" stroke="#ffd60a71"/><path d="M200-225l99-62" stroke-width="5.1" stroke="#00356672"/><path d="M18-247l-82-84" stroke-width="5.1" stroke="#ffc30074"/><path d="M134-275l34-113" stroke-width="5.2" stroke="#00356676"/><path d="M98-280l-2-118" stroke-width="5.3" stroke="#00081479"/><path d="M38-62l-63 100" stroke-width="5.3" stroke="#ffc3007A"/><path d="M92-280l-7-118" stroke-width="5.4" stroke="#0008147B"/><path d="M158-266l58-103" stroke-width="5.5" stroke="#ffc3007E"/><path d="M-2-103l-102 60" stroke-width="5.5" stroke="#0035667E"/><path d="M117-279l17-117" stroke-width="5.5" stroke="#0008147F"/><path d="M217-144l116 18" stroke-width="5.6" stroke="#ffd60a80"/><path d="M-15-188l-116-26" stroke-width="5.6" stroke="#00356681"/><path d="M201-224l100-62" stroke-width="5.7" stroke="#00081483"/><path d="M214-192l115-29" stroke-width="5.7" stroke="#ffc30084"/><path d="M118-279l18-116" stroke-width="5.8" stroke="#00081487"/><path d="M-18-160l-117 3" stroke-width="5.9" stroke="#001d3d8B"/><path d="M63-274l-37-112" stroke-width="6.0" stroke="#0035668C"/><path d="M8-89l-92 73" stroke-width="6.0" stroke="#ffd60a8D"/><path d="M213-195l113-32" stroke-width="6.0" stroke="#ffc3008D"/><path d="M104-45l4 117" stroke-width="6.0" stroke="#0008148E"/><path d="M-13-193l-114-30" stroke-width="6.0" stroke="#ffd60a8E"/><path d="M108-46l8 117" stroke-width="6.1" stroke="#001d3d8F"/><path d="M90-279l-9-117" stroke-width="6.1" stroke="#00081491"/><path d="M134-274l34-112" stroke-width="6.2" stroke="#001d3d92"/><path d="M155-60l56 102" stroke-width="6.3" stroke="#ffd60a95"/><path d="M79-48l-21 114" stroke-width="6.3" stroke="#001d3d96"/><path d="M207-118l108 44" stroke-width="6.3" stroke="#00356696"/><path d="M191-90l90 73" stroke-width="6.3" stroke="#00356696"/><path d="M11-89l-89 74" stroke-width="6.4" stroke="#ffd60a98"/><path d="M9-91l-91 72" stroke-width="6.4" stroke="#00081498"/><path d="M160-64l60 98" stroke-width="6.5" stroke="#ffc3009B"/><path d="M126-274l25-112" stroke-width="6.6" stroke="#0035669D"/><path d="M129-52l29 111" stroke-width="6.6" stroke="#0008149E"/><path d="M-14-151l-114 12" stroke-width="6.6" stroke="#ffd60a9E"/><path d="M2-221l-98-59" stroke-width="6.6" stroke="#ffd60a9F"/><path d="M-8-127l-109 35" stroke-width="6.7" stroke="#000814A1"/><path d="M45-63l-55 99" stroke-width="6.7" stroke="#000814A2"/><path d="M94-275l-6-113" stroke-width="6.8" stroke="#001d3dA5"/><path d="M122-52l23 110" stroke-width="6.9" stroke="#001d3dA6"/><path d="M204-122l105 41" stroke-width="6.9" stroke="#001d3dA8"/><path d="M-5-124l-104 38" stroke-width="7.0" stroke="#ffc300A9"/><path d="M207-134l108 29" stroke-width="7.0" stroke="#ffc300AA"/><path d="M171-248l70-86" stroke-width="7.0" stroke="#000814AA"/><path d="M30-76l-70 86" stroke-width="7.0" stroke="#003566AB"/><path d="M120-271l19-108" stroke-width="7.1" stroke="#ffd60aAD"/><path d="M87-272l-13-109" stroke-width="7.1" stroke="#ffc300AD"/><path d="M198-112l97 50" stroke-width="7.1" stroke="#000814AE"/><path d="M141-263l42-101" stroke-width="7.2" stroke="#ffc300B0"/><path d="M202-200l103-37" stroke-width="7.2" stroke="#000814B0"/><path d="M0-123l-100 39" stroke-width="7.4" stroke="#003566B3"/><path d="M206-175l107-12" stroke-width="7.4" stroke="#001d3dB5"/><path d="M-6-152l-106 11" stroke-width="7.4" stroke="#000814B6"/><path d="M203-139l102 24" stroke-width="7.5" stroke="#ffd60aB9"/><path d="M34-82l-66 81" stroke-width="7.6" stroke="#000814BB"/><path d="M79-264l-22-101" stroke-width="7.7" stroke="#ffc300BD"/><path d="M8-119l-93 44" stroke-width="7.8" stroke="#001d3dBF"/><path d="M183-222l83-59" stroke-width="7.8" stroke="#ffd60aBF"/><path d="M139-256l40-94" stroke-width="7.8" stroke="#ffc300C0"/><path d="M17-107l-84 55" stroke-width="7.9" stroke="#000814C3"/><path d="M183-108l84 55" stroke-width="7.9" stroke="#ffc300C3"/><path d="M156-81l56 81" stroke-width="8.0" stroke="#003566C5"/><path d="M174-98l74 65" stroke-width="8.0" stroke="#000814C5"/><path d="M64-254l-36-91" stroke-width="8.0" stroke="#000814C6"/><path d="M135-254l35-91" stroke-width="8.0" stroke="#ffc300C7"/><path d="M191-127l90 36" stroke-width="8.0" stroke="#003566C7"/><path d="M150-79l49 83" stroke-width="8.1" stroke="#001d3dC8"/><path d="M33-232l-66-70" stroke-width="8.1" stroke="#003566C9"/><path d="M16-115l-84 47" stroke-width="8.1" stroke="#ffc300C9"/><path d="M114-69l14 94" stroke-width="8.2" stroke="#001d3dCB"/><path d="M133-251l32-89" stroke-width="8.2" stroke="#001d3dCB"/><path d="M179-214l78-51" stroke-width="8.2" stroke="#001d3dCC"/><path d="M189-172l88-10" stroke-width="8.5" stroke="#ffd60aD3"/><path d="M95-248l-5-86" stroke-width="8.6" stroke="#001d3dD7"/><path d="M25-201l-76-38" stroke-width="8.6" stroke="#003566D8"/><path d="M77-243l-23-80" stroke-width="8.7" stroke="#003566D9"/><path d="M47-98l-52 65" stroke-width="8.7" stroke="#ffc300D9"/><path d="M170-120l70 42" stroke-width="8.7" stroke="#000814DB"/><path d="M83-84l-18 78" stroke-width="8.8" stroke="#003566DD"/><path d="M97-85l-2 78" stroke-width="8.9" stroke="#ffd60aDF"/><path d="M145-225l44-63" stroke-width="8.9" stroke="#000814E0"/><path d="M50-220l-49-57" stroke-width="8.9" stroke="#ffc300E1"/><path d="M55-223l-45-60" stroke-width="9.0" stroke="#001d3dE1"/><path d="M93-236l-7-73" stroke-width="9.0" stroke="#001d3dE3"/><path d="M139-216l38-54" stroke-width="9.2" stroke="#001d3dE8"/><path d="M48-121l-52 41" stroke-width="9.2" stroke="#ffd60aE9"/><path d="M75-222l-26-60" stroke-width="9.3" stroke="#003566EA"/><path d="M131-107l31 56" stroke-width="9.3" stroke="#ffd60aEA"/><path d="M112-225l11-62" stroke-width="9.3" stroke="#ffc300EB"/><path d="M127-106l26 57" stroke-width="9.3" stroke="#003566EB"/><path d="M65-214l-34-51" stroke-width="9.3" stroke="#003566EC"/><path d="M161-152l60 10" stroke-width="9.3" stroke="#ffd60aEC"/><path d="M81-219l-18-57" stroke-width="9.4" stroke="#001d3dED"/><path d="M53-141l-47 21" stroke-width="9.5" stroke="#001d3dF2"/><path d="M127-119l27 44" stroke-width="9.6" stroke="#ffd60aF2"/><path d="M62-196l-38-34" stroke-width="9.6" stroke="#ffd60aF2"/><path d="M134-200l34-37" stroke-width="9.6" stroke="#001d3dF2"/><path d="M107-212l7-50" stroke-width="9.6" stroke="#ffc300F2"/><path d="M66-126l-34 36" stroke-width="9.6" stroke="#ffd60aF3"/><path d="M59-136l-41 26" stroke-width="9.6" stroke="#001d3dF3"/><path d="M75-139l-25 24" stroke-width="9.8" stroke="#000814F9"/><path d="M129-150l30 12" stroke-width="9.8" stroke="#000814FA"/><path d="M72-176l-28-14" stroke-width="9.8" stroke="#ffd60aFA"/><path d="M88-137l-11 25" stroke-width="9.9" stroke="#000814FB"/><path d="M127-168l27-5" stroke-width="9.9" stroke="#003566FB"/></g></svg>