<svg width="1200" height="675" viewBox="-500 -500 1200 675" xmlns="http://www.w3.org/2000/svg"><path d="M-500-500h1200v675h-1200z" fill="#000"/><style>.sparkles path{stroke-linecap:round}</style><g class="sparkles"><path d="M92-146l-7 17" stroke-width="1.1" stroke="#fff5001"/><path d="M85-151l-15 12" stroke-width="1.1" stroke="#c2e1ff1"/><path d="M119-150l19 12" stroke-width="1.1" stroke="#005bbb2"/><path d="M72-157l-29 6" stroke-width="1.1" stroke="#c2e1ff3"/><path d="M87-194l-14-32" stroke-width="1.2" stroke="#fff5005"/><path d="M135-165l35-3" stroke-width="1.2" stroke="#fff5005"/><path d="M120-192l21-30" stroke-width="1.2" stroke="#fff5006"/><path d="M74-135l-26 28" stroke-width="1.2" stroke="#fff6"/><path d="M140-180l40-17" stroke-width="1.3" stroke="#c2e1ff9"/><path d="M65-123l-35 40" stroke-width="1.5" stroke="#fffD"/><path d="M95-109l-4 53" stroke-width="1.5" stroke="#fffD"/><path d="M142-124l42 38" stroke-width="1.6" stroke="#005bbbF"/><path d="M42-176l-57-14" stroke-width="1.6" stroke="#fff50011"/><path d="M158-183l58-21" stroke-width="1.7" stroke="#005bbb12"/><path d="M162-174l63-12" stroke-width="1.7" stroke="#fff50013"/><path d="M162-142l61 21" stroke-width="1.7" stroke="#fff50015"/><path d="M84-98l-16 64" stroke-width="1.8" stroke="#005bbb15"/><path d="M160-195l60-32" stroke-width="1.8" stroke="#005bbb17"/><path d="M133-224l32-61" stroke-width="1.9" stroke="#fff50018"/><path d="M130-100l30 63" stroke-width="1.9" stroke="#005bbb18"/><path d="M161-197l60-35" stroke-width="1.9" stroke="#c2e1ff18"/><path d="M172-159l71 4" stroke-width="1.9" stroke="#fff5001A"/><path d="M160-212l60-49" stroke-width="2.1" stroke="#005bbb1F"/><path d="M120-239l21-76" stroke-width="2.2" stroke="#fff50020"/><path d="M77-87l-24 76" stroke-width="2.2" stroke="#005bbb21"/><path d="M143-94l44 68" stroke-width="2.2" stroke="#c2e1ff22"/><path d="M124-240l25-78" stroke-width="2.2" stroke="#fff50023"/><path d="M79-241l-21-79" stroke-width="2.2" stroke="#005bbb23"/><path d="M56-90l-43 72" stroke-width="2.3" stroke="#fff26"/><path d="M54-85l-45 77" stroke-width="2.6" stroke="#fff5002C"/><path d="M190-149l91 14" stroke-width="2.6" stroke="#fff2E"/><path d="M70-74l-29 88" stroke-width="2.7" stroke="#005bbb30"/><path d="M187-129l87 33" stroke-width="2.7" stroke="#c2e1ff31"/><path d="M159-235l60-72" stroke-width="2.7" stroke="#005bbb31"/><path d="M8-188l-92-26" stroke-width="2.9" stroke="#fff34"/><path d="M190-196l91-33" stroke-width="2.9" stroke="#c2e1ff35"/><path d="M20-222l-80-59" stroke-width="3.1" stroke="#c2e1ff3A"/><path d="M114-63l14 99" stroke-width="3.1" stroke="#c2e1ff3B"/><path d="M53-252l-46-89" stroke-width="3.1" stroke="#005bbb3C"/><path d="M5-197l-95-34" stroke-width="3.2" stroke="#fff5003D"/><path d="M121-62l20 100" stroke-width="3.3" stroke="#005bbb3F"/><path d="M197-130l97 33" stroke-width="3.3" stroke="#c2e1ff40"/><path d="M39-245l-61-83" stroke-width="3.3" stroke="#fff40"/><path d="M204-154l104 9" stroke-width="3.4" stroke="#c2e1ff43"/><path d="M32-242l-68-79" stroke-width="3.4" stroke="#c2e1ff43"/><path d="M205-158l105 4" stroke-width="3.5" stroke="#fff50045"/><path d="M150-257l49-95" stroke-width="3.6" stroke="#005bbb49"/><path d="M45-71l-56 92" stroke-width="3.6" stroke="#fff5004A"/><path d="M-8-152l-108 10" stroke-width="3.7" stroke="#c2e1ff4C"/><path d="M125-268l26-105" stroke-width="3.7" stroke="#fff4C"/><path d="M12-98l-88 65" stroke-width="3.8" stroke="#fff4E"/><path d="M55-264l-45-101" stroke-width="3.9" stroke="#005bbb52"/><path d="M209-186l109-23" stroke-width="4.0" stroke="#fff54"/><path d="M-9-185l-109-23" stroke-width="4.0" stroke="#fff54"/><path d="M151-262l51-100" stroke-width="4.0" stroke="#c2e1ff56"/><path d="M186-90l85 72" stroke-width="4.1" stroke="#005bbb57"/><path d="M44-65l-56 98" stroke-width="4.1" stroke="#005bbb58"/><path d="M30-251l-71-88" stroke-width="4.2" stroke="#005bbb5A"/><path d="M127-53l26 110" stroke-width="4.2" stroke="#005bbb5A"/><path d="M182-241l82-78" stroke-width="4.3" stroke="#c2e1ff5C"/><path d="M182-83l82 79" stroke-width="4.3" stroke="#fff5005D"/><path d="M-5-117l-105 45" stroke-width="4.3" stroke="#fff5005E"/><path d="M63-54l-37 109" stroke-width="4.4" stroke="#c2e1ff61"/><path d="M-15-154l-114 9" stroke-width="4.5" stroke="#c2e1ff62"/><path d="M183-83l84 79" stroke-width="4.5" stroke="#fff50062"/><path d="M-15-168l-115-6" stroke-width="4.5" stroke="#fff50064"/><path d="M142-270l41-108" stroke-width="4.6" stroke="#005bbb65"/><path d="M200-222l99-59" stroke-width="4.6" stroke="#c2e1ff66"/><path d="M203-215l103-53" stroke-width="4.7" stroke="#fff67"/><path d="M39-63l-60 99" stroke-width="4.7" stroke="#005bbb68"/><path d="M134-274l35-111" stroke-width="4.7" stroke="#fff68"/><path d="M93-46l-7 116" stroke-width="4.7" stroke="#005bbb69"/><path d="M159-62l59 101" stroke-width="4.8" stroke="#fff5006A"/><path d="M80-48l-20 115" stroke-width="4.8" stroke="#c2e1ff6A"/><path d="M189-87l89 75" stroke-width="4.8" stroke="#c2e1ff6C"/><path d="M-15-141l-115 21" stroke-width="4.8" stroke="#c2e1ff6C"/><path d="M114-46l15 116" stroke-width="4.9" stroke="#fff5006D"/><path d="M206-212l107-49" stroke-width="5.0" stroke="#c2e1ff70"/><path d="M21-249l-80-87" stroke-width="5.0" stroke="#fff50072"/><path d="M107-45l7 117" stroke-width="5.1" stroke="#c2e1ff74"/><path d="M89-45l-11 117" stroke-width="5.2" stroke="#fff76"/><path d="M179-75l80 87" stroke-width="5.2" stroke="#fff50077"/><path d="M81-46l-19 116" stroke-width="5.3" stroke="#005bbb79"/><path d="M204-107l105 55" stroke-width="5.4" stroke="#fff5007D"/><path d="M67-49l-32 114" stroke-width="5.5" stroke="#fff7F"/><path d="M202-222l102-60" stroke-width="5.5" stroke="#005bbb7F"/><path d="M217-144l116 18" stroke-width="5.5" stroke="#fff50080"/><path d="M217-149l118 13" stroke-width="5.6" stroke="#fff81"/><path d="M46-268l-54-105" stroke-width="5.6" stroke="#fff81"/><path d="M15-81l-85 82" stroke-width="5.7" stroke="#fff50084"/><path d="M-15-187l-116-24" stroke-width="5.7" stroke="#fff85"/><path d="M73-277l-27-115" stroke-width="5.9" stroke="#fff50089"/><path d="M131-49l32 114" stroke-width="5.9" stroke="#c2e1ff89"/><path d="M145-54l46 109" stroke-width="5.9" stroke="#fff8A"/><path d="M191-236l92-73" stroke-width="6.0" stroke="#005bbb8E"/><path d="M200-101l99 62" stroke-width="6.1" stroke="#fff8F"/><path d="M30-68l-69 94" stroke-width="6.1" stroke="#fff90"/><path d="M142-271l43-109" stroke-width="6.2" stroke="#005bbb94"/><path d="M6-231l-95-68" stroke-width="6.2" stroke="#c2e1ff94"/><path d="M-15-179l-115-16" stroke-width="6.4" stroke="#c2e1ff97"/><path d="M194-230l94-67" stroke-width="6.4" stroke="#c2e1ff99"/><path d="M13-238l-88-75" stroke-width="6.5" stroke="#fff9B"/><path d="M51-59l-49 104" stroke-width="6.6" stroke="#fff9E"/><path d="M170-72l70 90" stroke-width="6.7" stroke="#fffA0"/><path d="M204-116l103 47" stroke-width="6.7" stroke="#fff500A1"/><path d="M3-221l-97-59" stroke-width="6.8" stroke="#fffA3"/><path d="M-9-192l-109-30" stroke-width="6.8" stroke="#c2e1ffA4"/><path d="M19-84l-81 79" stroke-width="6.8" stroke="#c2e1ffA4"/><path d="M161-257l62-95" stroke-width="6.8" stroke="#c2e1ffA5"/><path d="M137-269l38-106" stroke-width="6.9" stroke="#fff500A5"/><path d="M134-56l34 107" stroke-width="6.9" stroke="#fff500A7"/><path d="M0-212l-101-50" stroke-width="6.9" stroke="#fff500A8"/><path d="M203-205l103-43" stroke-width="7.0" stroke="#fff500A9"/><path d="M211-149l111 13" stroke-width="7.0" stroke="#fff500A9"/><path d="M96-274l-4-111" stroke-width="7.0" stroke="#fffA9"/><path d="M184-235l83-72" stroke-width="7.1" stroke="#c2e1ffAC"/><path d="M-3-124l-103 39" stroke-width="7.1" stroke="#005bbbAE"/><path d="M62-60l-38 103" stroke-width="7.2" stroke="#c2e1ffAF"/><path d="M39-252l-60-90" stroke-width="7.3" stroke="#fffB2"/><path d="M-2-199l-102-36" stroke-width="7.3" stroke="#fffB2"/><path d="M-8-173l-107-11" stroke-width="7.3" stroke="#005bbbB2"/><path d="M-3-130l-103 32" stroke-width="7.3" stroke="#fff500B2"/><path d="M103-270l3-108" stroke-width="7.3" stroke="#fff500B3"/><path d="M5-212l-94-50" stroke-width="7.4" stroke="#005bbbB5"/><path d="M164-248l64-86" stroke-width="7.4" stroke="#c2e1ffB5"/><path d="M113-268l12-106" stroke-width="7.4" stroke="#fffB6"/><path d="M197-205l97-43" stroke-width="7.5" stroke="#c2e1ffB7"/><path d="M130-61l30 102" stroke-width="7.5" stroke="#fff500B7"/><path d="M-2-185l-103-22" stroke-width="7.6" stroke="#fff500BA"/><path d="M204-171l105-8" stroke-width="7.6" stroke="#c2e1ffBA"/><path d="M105-58l4 105" stroke-width="7.6" stroke="#fffBA"/><path d="M102-60l2 102" stroke-width="7.7" stroke="#fffBF"/><path d="M201-153l100 9" stroke-width="7.8" stroke="#005bbbC1"/><path d="M53-73l-46 90" stroke-width="7.8" stroke="#fffC1"/><path d="M24-96l-75 66" stroke-width="7.9" stroke="#fffC2"/><path d="M43-244l-58-81" stroke-width="7.9" stroke="#005bbbC4"/><path d="M93-64l-8 99" stroke-width="8.0" stroke="#fffC5"/><path d="M198-155l99 7" stroke-width="8.0" stroke="#c2e1ffC5"/><path d="M186-114l85 48" stroke-width="8.0" stroke="#005bbbC6"/><path d="M30-94l-70 69" stroke-width="8.0" stroke="#fff500C6"/><path d="M7-133l-93 30" stroke-width="8.0" stroke="#fff500C7"/><path d="M48-244l-53-82" stroke-width="8.1" stroke="#fffC7"/><path d="M185-117l86 46" stroke-width="8.1" stroke="#fffC8"/><path d="M28-100l-71 63" stroke-width="8.2" stroke="#fff500CB"/><path d="M72-252l-27-90" stroke-width="8.2" stroke="#fffCD"/><path d="M69-251l-31-88" stroke-width="8.2" stroke="#fff500CD"/><path d="M28-221l-73-59" stroke-width="8.3" stroke="#c2e1ffCD"/><path d="M142-246l41-83" stroke-width="8.3" stroke="#fffCD"/><path d="M173-218l74-56" stroke-width="8.3" stroke="#fff500CF"/><path d="M173-107l73 55" stroke-width="8.3" stroke="#fff500D0"/><path d="M191-170l91-8" stroke-width="8.3" stroke="#fff500D0"/><path d="M190-152l90 10" stroke-width="8.4" stroke="#fff500D1"/><path d="M21-206l-80-43" stroke-width="8.4" stroke="#005bbbD1"/><path d="M151-93l52 70" stroke-width="8.6" stroke="#005bbbD6"/><path d="M69-242l-31-80" stroke-width="8.6" stroke="#fff500D7"/><path d="M37-220l-64-57" stroke-width="8.6" stroke="#fff500D7"/><path d="M16-158l-84 5" stroke-width="8.7" stroke="#fffD8"/><path d="M28-205l-72-42" stroke-width="8.7" stroke="#fffD9"/><path d="M183-163l84-1" stroke-width="8.7" stroke="#005bbbD9"/><path d="M172-203l72-41" stroke-width="8.7" stroke="#fffDA"/><path d="M45-102l-54 61" stroke-width="8.8" stroke="#c2e1ffDB"/><path d="M163-213l64-51" stroke-width="8.8" stroke="#005bbbDC"/><path d="M174-193l74-31" stroke-width="8.8" stroke="#fff500DD"/><path d="M179-154l80 8" stroke-width="8.8" stroke="#fff500DD"/><path d="M29-198l-72-35" stroke-width="8.8" stroke="#fffDD"/><path d="M21-158l-78 4" stroke-width="8.9" stroke="#005bbbDE"/><path d="M57-227l-42-65" stroke-width="8.9" stroke="#c2e1ffDF"/><path d="M114-87l13 75" stroke-width="8.9" stroke="#fff500E0"/><path d="M165-124l65 39" stroke-width="9.0" stroke="#fffE1"/><path d="M41-118l-60 44" stroke-width="9.0" stroke="#005bbbE2"/><path d="M65-98l-36 64" stroke-width="9.0" stroke="#005bbbE3"/><path d="M74-228l-27-65" stroke-width="9.1" stroke="#c2e1ffE5"/><path d="M101-229l1-66" stroke-width="9.2" stroke="#c2e1ffE9"/><path d="M41-191l-58-29" stroke-width="9.2" stroke="#fffE9"/><path d="M90-224l-11-61" stroke-width="9.3" stroke="#005bbbEC"/><path d="M146-134l46 29" stroke-width="9.5" stroke="#005bbbF0"/><path d="M152-162l52 0" stroke-width="9.5" stroke="#005bbbF1"/><path d="M113-128l14 35" stroke-width="9.8" stroke="#005bbbF8"/><path d="M123-174l23-11" stroke-width="9.9" stroke="#fff500FB"/><path d="M120-175l21-12" stroke-width="9.9" stroke="#fffFC"/><path d="M115-156l14 7" stroke-width="10.0" stroke="#fffFD"/></g></svg>