<svg width="1200" height="675" viewBox="-500 -500 1200 675" xmlns="http://www.w3.org/2000/svg"><path d="M-500-500h1200v675h-1200z" fill="#000"/><style>.sparkles path{stroke-linecap:round}</style><g class="sparkles"><path d="M108-176l7-13" stroke-width="1.0" stroke="#fff1"/><path d="M102-179l3-16" stroke-width="1.0" stroke="#fff1"/><path d="M78-159l-21 4" stroke-width="1.1" stroke="#005bbb2"/><path d="M76-151l-24 12" stroke-width="1.1" stroke="#fff3"/><path d="M127-156l26 6" stroke-width="1.1" stroke="#fff5003"/><path d="M107-134l7 29" stroke-width="1.1" stroke="#fff4"/><path d="M75-188l-25-26" stroke-width="1.2" stroke="#c2e1ff6"/><path d="M65-146l-34 16" stroke-width="1.2" stroke="#c2e1ff6"/><path d="M83-202l-17-39" stroke-width="1.3" stroke="#c2e1ff8"/><path d="M121-118l22 45" stroke-width="1.4" stroke="#005bbbB"/><path d="M103-107l4 55" stroke-width="1.5" stroke="#fff500E"/><path d="M140-121l40 42" stroke-width="1.6" stroke="#005bbb10"/><path d="M63-114l-38 49" stroke-width="1.7" stroke="#005bbb12"/><path d="M74-105l-27 57" stroke-width="1.7" stroke="#005bbb13"/><path d="M153-122l53 41" stroke-width="1.8" stroke="#fff50016"/><path d="M144-110l43 52" stroke-width="1.8" stroke="#fff17"/><path d="M163-188l63-26" stroke-width="1.8" stroke="#005bbb17"/><path d="M110-231l10-69" stroke-width="1.9" stroke="#005bbb18"/><path d="M54-219l-46-57" stroke-width="2.0" stroke="#fff5001B"/><path d="M153-112l52 51" stroke-width="2.0" stroke="#005bbb1B"/><path d="M173-153l72 9" stroke-width="2.0" stroke="#c2e1ff1B"/><path d="M51-217l-50-54" stroke-width="2.0" stroke="#c2e1ff1B"/><path d="M28-186l-73-24" stroke-width="2.1" stroke="#fff5001D"/><path d="M105-83l5 80" stroke-width="2.2" stroke="#005bbb21"/><path d="M135-91l34 72" stroke-width="2.2" stroke="#005bbb21"/><path d="M53-97l-46 65" stroke-width="2.2" stroke="#fff50021"/><path d="M125-84l26 79" stroke-width="2.3" stroke="#c2e1ff24"/><path d="M176-195l77-32" stroke-width="2.3" stroke="#fff50024"/><path d="M19-139l-81 23" stroke-width="2.3" stroke="#c2e1ff25"/><path d="M175-202l74-40" stroke-width="2.4" stroke="#fff26"/><path d="M120-77l20 85" stroke-width="2.5" stroke="#fff29"/><path d="M127-249l27-86" stroke-width="2.6" stroke="#c2e1ff2D"/><path d="M188-140l89 23" stroke-width="2.6" stroke="#c2e1ff2E"/><path d="M194-161l94 1" stroke-width="2.8" stroke="#fff50032"/><path d="M85-70l-14 93" stroke-width="2.8" stroke="#005bbb32"/><path d="M194-162l94 0" stroke-width="2.8" stroke="#fff50032"/><path d="M194-155l94 8" stroke-width="2.8" stroke="#fff32"/><path d="M169-228l70-65" stroke-width="2.8" stroke="#005bbb34"/><path d="M118-67l18 95" stroke-width="2.9" stroke="#fff50036"/><path d="M102-65l3 98" stroke-width="3.0" stroke="#c2e1ff38"/><path d="M197-143l98 19" stroke-width="3.1" stroke="#fff3A"/><path d="M140-254l39-91" stroke-width="3.1" stroke="#005bbb3A"/><path d="M119-261l19-98" stroke-width="3.1" stroke="#fff3C"/><path d="M96-62l-4 100" stroke-width="3.1" stroke="#fff5003C"/><path d="M157-247l57-85" stroke-width="3.2" stroke="#005bbb3F"/><path d="M4-126l-95 36" stroke-width="3.2" stroke="#005bbb3F"/><path d="M179-231l79-69" stroke-width="3.4" stroke="#fff50044"/><path d="M205-154l105 8" stroke-width="3.5" stroke="#fff50045"/><path d="M107-268l8-105" stroke-width="3.5" stroke="#005bbb45"/><path d="M152-70l51 93" stroke-width="3.5" stroke="#fff47"/><path d="M-6-155l-106 7" stroke-width="3.5" stroke="#005bbb48"/><path d="M204-137l105 26" stroke-width="3.6" stroke="#fff4A"/><path d="M105-270l5-108" stroke-width="3.7" stroke="#fff5004B"/><path d="M77-268l-23-105" stroke-width="3.7" stroke="#c2e1ff4B"/><path d="M1-119l-99 44" stroke-width="3.7" stroke="#005bbb4B"/><path d="M207-147l108 15" stroke-width="3.7" stroke="#fff4C"/><path d="M150-259l50-96" stroke-width="3.7" stroke="#fff5004D"/><path d="M-9-166l-109-4" stroke-width="3.8" stroke="#005bbb4E"/><path d="M32-248l-67-86" stroke-width="3.8" stroke="#c2e1ff4F"/><path d="M118-271l17-108" stroke-width="3.8" stroke="#005bbb50"/><path d="M207-137l107 25" stroke-width="3.9" stroke="#005bbb51"/><path d="M7-103l-93 59" stroke-width="3.9" stroke="#fff51"/><path d="M176-82l76 80" stroke-width="3.9" stroke="#c2e1ff51"/><path d="M103-273l2-110" stroke-width="3.9" stroke="#005bbb52"/><path d="M51-62l-49 101" stroke-width="4.1" stroke="#fff50056"/><path d="M1-215l-100-52" stroke-width="4.1" stroke="#fff50057"/><path d="M144-59l44 103" stroke-width="4.1" stroke="#fff50057"/><path d="M100-50l1 113" stroke-width="4.1" stroke="#fff58"/><path d="M17-85l-82 78" stroke-width="4.3" stroke="#c2e1ff5C"/><path d="M182-83l81 80" stroke-width="4.4" stroke="#fff5005F"/><path d="M154-61l54 102" stroke-width="4.5" stroke="#fff50062"/><path d="M19-79l-82 83" stroke-width="4.7" stroke="#c2e1ff69"/><path d="M185-82l84 80" stroke-width="4.8" stroke="#fff5006B"/><path d="M209-120l108 43" stroke-width="4.8" stroke="#005bbb6C"/><path d="M123-277l24-115" stroke-width="4.9" stroke="#c2e1ff6D"/><path d="M217-153l116 9" stroke-width="4.9" stroke="#fff6E"/><path d="M36-260l-64-98" stroke-width="4.9" stroke="#005bbb6E"/><path d="M-13-131l-113 32" stroke-width="5.0" stroke="#005bbb70"/><path d="M113-279l14-117" stroke-width="5.0" stroke="#005bbb70"/><path d="M42-61l-58 102" stroke-width="5.0" stroke="#fff71"/><path d="M217-170l118-8" stroke-width="5.1" stroke="#005bbb74"/><path d="M215-137l115 26" stroke-width="5.2" stroke="#fff50077"/><path d="M199-226l99-64" stroke-width="5.2" stroke="#c2e1ff77"/><path d="M29-257l-71-94" stroke-width="5.3" stroke="#fff50078"/><path d="M96-45l-4 118" stroke-width="5.3" stroke="#fff7A"/><path d="M218-166l118-3" stroke-width="5.4" stroke="#005bbb7B"/><path d="M150-269l51-107" stroke-width="5.4" stroke="#fff7C"/><path d="M150-269l50-107" stroke-width="5.4" stroke="#c2e1ff7D"/><path d="M215-188l116-25" stroke-width="5.5" stroke="#fff5007E"/><path d="M91-45l-9 118" stroke-width="5.5" stroke="#005bbb7E"/><path d="M120-46l21 116" stroke-width="5.6" stroke="#fff50082"/><path d="M68-49l-32 114" stroke-width="5.6" stroke="#fff83"/><path d="M-1-101l-100 61" stroke-width="5.8" stroke="#fff88"/><path d="M198-97l98 65" stroke-width="5.8" stroke="#fff50088"/><path d="M210-122l111 41" stroke-width="5.8" stroke="#fff89"/><path d="M122-47l22 116" stroke-width="5.9" stroke="#fff5008A"/><path d="M218-160l117 3" stroke-width="5.9" stroke="#005bbb8B"/><path d="M6-93l-94 70" stroke-width="6.1" stroke="#fff8F"/><path d="M25-252l-76-89" stroke-width="6.1" stroke="#c2e1ff91"/><path d="M24-74l-75 88" stroke-width="6.3" stroke="#fff94"/><path d="M44-264l-57-102" stroke-width="6.3" stroke="#005bbb95"/><path d="M78-49l-23 114" stroke-width="6.4" stroke="#fff50099"/><path d="M186-86l86 77" stroke-width="6.5" stroke="#fff9A"/><path d="M-12-134l-112 29" stroke-width="6.5" stroke="#fff9A"/><path d="M-5-209l-106-47" stroke-width="6.5" stroke="#005bbb9B"/><path d="M86-277l-14-114" stroke-width="6.5" stroke="#fff5009B"/><path d="M205-210l105-48" stroke-width="6.5" stroke="#005bbb9B"/><path d="M214-148l114 15" stroke-width="6.5" stroke="#fff5009D"/><path d="M91-277l-9-114" stroke-width="6.6" stroke="#005bbb9D"/><path d="M197-224l97-61" stroke-width="6.6" stroke="#fff5009D"/><path d="M59-270l-41-107" stroke-width="6.6" stroke="#005bbb9E"/><path d="M128-52l29 111" stroke-width="6.6" stroke="#005bbb9E"/><path d="M-7-122l-107 40" stroke-width="6.7" stroke="#fff500A0"/><path d="M-3-114l-103 49" stroke-width="6.7" stroke="#c2e1ffA0"/><path d="M177-78l76 84" stroke-width="6.7" stroke="#c2e1ffA1"/><path d="M9-97l-91 66" stroke-width="6.9" stroke="#005bbbA6"/><path d="M206-198l107-36" stroke-width="6.9" stroke="#fff500A7"/><path d="M42-258l-58-96" stroke-width="6.9" stroke="#fff500A7"/><path d="M164-254l64-92" stroke-width="6.9" stroke="#c2e1ffA7"/><path d="M114-51l13 111" stroke-width="6.9" stroke="#005bbbA8"/><path d="M210-145l111 17" stroke-width="7.0" stroke="#fffA9"/><path d="M47-260l-53-97" stroke-width="7.0" stroke="#fff500AA"/><path d="M201-117l102 45" stroke-width="7.0" stroke="#fffAA"/><path d="M78-271l-23-109" stroke-width="7.1" stroke="#fffAB"/><path d="M120-272l19-109" stroke-width="7.1" stroke="#005bbbAB"/><path d="M25-243l-76-80" stroke-width="7.1" stroke="#fffAD"/><path d="M153-258l54-96" stroke-width="7.2" stroke="#fffAF"/><path d="M57-263l-43-100" stroke-width="7.2" stroke="#fffB0"/><path d="M182-233l81-71" stroke-width="7.3" stroke="#fff500B2"/><path d="M-3-191l-103-28" stroke-width="7.4" stroke="#c2e1ffB5"/><path d="M177-89l78 73" stroke-width="7.4" stroke="#fffB5"/><path d="M3-120l-97 43" stroke-width="7.5" stroke="#fffB7"/><path d="M34-80l-66 82" stroke-width="7.5" stroke="#c2e1ffB8"/><path d="M9-109l-91 53" stroke-width="7.5" stroke="#005bbbB9"/><path d="M204-178l104-15" stroke-width="7.6" stroke="#fff500BA"/><path d="M201-188l102-26" stroke-width="7.6" stroke="#fff500BA"/><path d="M7-118l-93 45" stroke-width="7.7" stroke="#c2e1ffBD"/><path d="M133-260l34-97" stroke-width="7.7" stroke="#c2e1ffBE"/><path d="M202-149l101 13" stroke-width="7.7" stroke="#005bbbBE"/><path d="M0-178l-99-16" stroke-width="7.8" stroke="#c2e1ffC2"/><path d="M104-263l5-101" stroke-width="7.9" stroke="#c2e1ffC2"/><path d="M122-260l22-98" stroke-width="7.9" stroke="#005bbbC2"/><path d="M2-161l-98 2" stroke-width="8.0" stroke="#c2e1ffC6"/><path d="M195-182l96-19" stroke-width="8.1" stroke="#fffC7"/><path d="M41-87l-59 75" stroke-width="8.1" stroke="#fffCA"/><path d="M54-80l-47 82" stroke-width="8.2" stroke="#fffCC"/><path d="M30-225l-70-63" stroke-width="8.2" stroke="#fff500CC"/><path d="M46-238l-54-75" stroke-width="8.3" stroke="#fffCE"/><path d="M33-101l-67 62" stroke-width="8.4" stroke="#fff500D0"/><path d="M134-78l34 84" stroke-width="8.4" stroke="#fff500D0"/><path d="M50-87l-51 76" stroke-width="8.4" stroke="#fffD1"/><path d="M122-251l23-88" stroke-width="8.4" stroke="#fffD1"/><path d="M180-202l79-40" stroke-width="8.5" stroke="#c2e1ffD3"/><path d="M70-80l-30 82" stroke-width="8.5" stroke="#005bbbD4"/><path d="M43-227l-56-64" stroke-width="8.6" stroke="#c2e1ffD7"/><path d="M25-122l-76 40" stroke-width="8.6" stroke="#fff500D7"/><path d="M108-247l7-85" stroke-width="8.6" stroke="#fff500D8"/><path d="M170-209l70-47" stroke-width="8.6" stroke="#fffD8"/><path d="M165-213l65-50" stroke-width="8.7" stroke="#fff500DB"/><path d="M141-93l41 70" stroke-width="8.8" stroke="#c2e1ffDC"/><path d="M175-138l76 25" stroke-width="8.8" stroke="#c2e1ffDD"/><path d="M52-224l-49-62" stroke-width="8.9" stroke="#fffDE"/><path d="M130-232l30-69" stroke-width="9.0" stroke="#fff500E1"/><path d="M137-228l37-65" stroke-width="9.0" stroke="#c2e1ffE1"/><path d="M173-171l74-9" stroke-width="9.0" stroke="#fff500E2"/><path d="M172-175l73-13" stroke-width="9.0" stroke="#fffE3"/><path d="M155-121l56 42" stroke-width="9.1" stroke="#fffE6"/><path d="M34-155l-66 8" stroke-width="9.2" stroke="#005bbbE8"/><path d="M166-156l65 6" stroke-width="9.2" stroke="#c2e1ffE9"/><path d="M139-110l38 53" stroke-width="9.3" stroke="#fffE9"/><path d="M129-210l29-48" stroke-width="9.5" stroke="#005bbbEF"/><path d="M135-201l35-38" stroke-width="9.5" stroke="#fff500F2"/><path d="M53-185l-46-23" stroke-width="9.5" stroke="#c2e1ffF2"/><path d="M143-180l44-17" stroke-width="9.6" stroke="#fff500F4"/><path d="M76-126l-23 36" stroke-width="9.7" stroke="#c2e1ffF6"/><path d="M94-127l-7 36" stroke-width="9.8" stroke="#fff500F8"/><path d="M127-184l27-21" stroke-width="9.8" stroke="#fff500F9"/><path d="M124-186l24-23" stroke-width="9.8" stroke="#005bbbF9"/><path d="M76-184l-24-21" stroke-width="9.8" stroke="#fffFA"/><path d="M99-145l0 17" stroke-width="10.0" stroke="#fff500FD"/><path d="M103-176l4-13" stroke-width="10.0" stroke="#005bbbFE"/></g></svg>