<svg width="1200" height="675" viewBox="-500 -500 1200 675" xmlns="http://www.w3.org/2000/svg"><path d="M-500-500h1200v675h-1200z" fill="#000"/><style>.sparkles path{stroke-linecap:round}</style><g class="sparkles"><path d="M100-178l1-16" stroke-width="1.0" stroke="#fff1"/><path d="M101-144l2 18" stroke-width="1.1" stroke="#c2e1ff1"/><path d="M116-172l15-10" stroke-width="1.1" stroke="#fff5001"/><path d="M83-188l-17-26" stroke-width="1.2" stroke="#fff5004"/><path d="M114-133l13 29" stroke-width="1.2" stroke="#005bbb4"/><path d="M67-184l-32-22" stroke-width="1.3" stroke="#c2e1ff7"/><path d="M142-158l42 5" stroke-width="1.3" stroke="#c2e1ff8"/><path d="M129-196l28-33" stroke-width="1.3" stroke="#fff5009"/><path d="M126-118l27 44" stroke-width="1.4" stroke="#005bbbC"/><path d="M107-109l7 54" stroke-width="1.5" stroke="#005bbbE"/><path d="M97-107l-3 56" stroke-width="1.5" stroke="#fff500F"/><path d="M45-147l-54 16" stroke-width="1.6" stroke="#005bbbF"/><path d="M64-207l-37-45" stroke-width="1.6" stroke="#fff50010"/><path d="M133-210l33-47" stroke-width="1.6" stroke="#c2e1ff10"/><path d="M43-182l-58-19" stroke-width="1.6" stroke="#fff11"/><path d="M145-117l44 46" stroke-width="1.7" stroke="#c2e1ff14"/><path d="M162-140l62 22" stroke-width="1.8" stroke="#005bbb15"/><path d="M155-199l55-36" stroke-width="1.8" stroke="#c2e1ff15"/><path d="M129-103l30 60" stroke-width="1.8" stroke="#005bbb16"/><path d="M124-225l24-63" stroke-width="1.8" stroke="#fff50016"/><path d="M151-206l52-44" stroke-width="1.8" stroke="#fff50016"/><path d="M59-108l-42 54" stroke-width="1.8" stroke="#005bbb17"/><path d="M154-207l54-45" stroke-width="1.9" stroke="#fff50018"/><path d="M43-121l-58 41" stroke-width="1.9" stroke="#005bbb19"/><path d="M103-91l3 71" stroke-width="1.9" stroke="#c2e1ff19"/><path d="M141-103l41 59" stroke-width="1.9" stroke="#005bbb1A"/><path d="M64-225l-36-63" stroke-width="1.9" stroke="#c2e1ff1A"/><path d="M30-143l-70 19" stroke-width="2.0" stroke="#fff5001B"/><path d="M87-90l-12 72" stroke-width="2.0" stroke="#c2e1ff1B"/><path d="M67-231l-34-69" stroke-width="2.1" stroke="#fff1E"/><path d="M31-130l-70 32" stroke-width="2.1" stroke="#fff1E"/><path d="M176-178l75-15" stroke-width="2.1" stroke="#fff5001E"/><path d="M30-199l-70-37" stroke-width="2.2" stroke="#fff50020"/><path d="M181-162l81 0" stroke-width="2.2" stroke="#005bbb22"/><path d="M94-82l-7 81" stroke-width="2.2" stroke="#fff50022"/><path d="M67-83l-33 79" stroke-width="2.4" stroke="#005bbb27"/><path d="M71-80l-30 82" stroke-width="2.5" stroke="#005bbb29"/><path d="M40-231l-60-68" stroke-width="2.6" stroke="#fff2D"/><path d="M151-239l50-77" stroke-width="2.7" stroke="#fff5002F"/><path d="M190-182l90-20" stroke-width="2.7" stroke="#005bbb2F"/><path d="M178-212l79-49" stroke-width="2.7" stroke="#c2e1ff30"/><path d="M132-249l33-87" stroke-width="2.7" stroke="#005bbb30"/><path d="M141-78l40 84" stroke-width="2.7" stroke="#c2e1ff31"/><path d="M102-68l2 95" stroke-width="2.8" stroke="#fff33"/><path d="M101-258l0-95" stroke-width="2.8" stroke="#fff33"/><path d="M72-254l-29-91" stroke-width="2.9" stroke="#005bbb34"/><path d="M87-259l-12-96" stroke-width="2.9" stroke="#fff50036"/><path d="M169-93l69 70" stroke-width="3.0" stroke="#fff50038"/><path d="M198-154l98 9" stroke-width="3.0" stroke="#fff50039"/><path d="M189-206l90-44" stroke-width="3.1" stroke="#c2e1ff3A"/><path d="M63-256l-36-93" stroke-width="3.1" stroke="#fff3C"/><path d="M33-88l-67 75" stroke-width="3.1" stroke="#fff5003C"/><path d="M119-63l19 99" stroke-width="3.2" stroke="#fff5003D"/><path d="M179-100l80 63" stroke-width="3.2" stroke="#fff5003E"/><path d="M0-142l-101 21" stroke-width="3.3" stroke="#c2e1ff40"/><path d="M53-70l-46 93" stroke-width="3.3" stroke="#fff50042"/><path d="M126-263l25-101" stroke-width="3.4" stroke="#c2e1ff43"/><path d="M173-237l73-75" stroke-width="3.4" stroke="#c2e1ff43"/><path d="M-4-150l-104 13" stroke-width="3.4" stroke="#005bbb44"/><path d="M184-99l83 63" stroke-width="3.4" stroke="#c2e1ff44"/><path d="M83-59l-17 104" stroke-width="3.5" stroke="#fff50045"/><path d="M205-155l105 8" stroke-width="3.5" stroke="#005bbb45"/><path d="M74-60l-27 102" stroke-width="3.5" stroke="#fff50046"/><path d="M160-250l60-87" stroke-width="3.5" stroke="#fff50046"/><path d="M88-56l-12 106" stroke-width="3.6" stroke="#005bbb49"/><path d="M0-200l-101-37" stroke-width="3.6" stroke="#fff50049"/><path d="M-6-145l-106 17" stroke-width="3.6" stroke="#c2e1ff4A"/><path d="M153-257l52-94" stroke-width="3.7" stroke="#005bbb4B"/><path d="M-5-193l-105-30" stroke-width="3.8" stroke="#c2e1ff4F"/><path d="M203-126l103 36" stroke-width="3.8" stroke="#fff4F"/><path d="M59-264l-41-102" stroke-width="3.9" stroke="#c2e1ff50"/><path d="M177-84l78 79" stroke-width="3.9" stroke="#fff51"/><path d="M211-160l112 2" stroke-width="4.0" stroke="#005bbb54"/><path d="M7-226l-92-64" stroke-width="4.1" stroke="#c2e1ff58"/><path d="M22-81l-78 81" stroke-width="4.1" stroke="#005bbb58"/><path d="M39-257l-62-95" stroke-width="4.2" stroke="#c2e1ff59"/><path d="M121-273l20-111" stroke-width="4.2" stroke="#fff50059"/><path d="M-14-160l-114 3" stroke-width="4.3" stroke="#005bbb5D"/><path d="M126-51l27 111" stroke-width="4.3" stroke="#fff5E"/><path d="M-8-124l-108 38" stroke-width="4.4" stroke="#c2e1ff5F"/><path d="M-16-158l-115 4" stroke-width="4.6" stroke="#fff50065"/><path d="M23-77l-78 86" stroke-width="4.6" stroke="#c2e1ff65"/><path d="M-16-156l-115 6" stroke-width="4.6" stroke="#fff65"/><path d="M-14-187l-114-24" stroke-width="4.7" stroke="#fff50069"/><path d="M115-278l14-115" stroke-width="4.7" stroke="#fff69"/><path d="M-12-196l-111-34" stroke-width="4.8" stroke="#fff6B"/><path d="M39-63l-62 99" stroke-width="4.8" stroke="#005bbb6C"/><path d="M-7-210l-107-48" stroke-width="4.9" stroke="#005bbb6E"/><path d="M216-176l117-13" stroke-width="4.9" stroke="#fff6F"/><path d="M32-258l-68-96" stroke-width="5.0" stroke="#c2e1ff71"/><path d="M91-45l-9 117" stroke-width="5.0" stroke="#c2e1ff71"/><path d="M70-49l-31 114" stroke-width="5.1" stroke="#005bbb74"/><path d="M-13-196l-113-33" stroke-width="5.1" stroke="#c2e1ff74"/><path d="M70-48l-29 114" stroke-width="5.3" stroke="#005bbb7B"/><path d="M135-50l36 113" stroke-width="5.4" stroke="#fff7B"/><path d="M17-79l-84 84" stroke-width="5.4" stroke="#fff7C"/><path d="M-2-222l-102-59" stroke-width="5.4" stroke="#fff7D"/><path d="M-16-138l-115 25" stroke-width="5.5" stroke="#c2e1ff7E"/><path d="M23-252l-76-90" stroke-width="5.6" stroke="#fff50081"/><path d="M212-200l112-38" stroke-width="5.6" stroke="#005bbb82"/><path d="M30-67l-69 95" stroke-width="5.7" stroke="#005bbb85"/><path d="M52-270l-47-108" stroke-width="5.7" stroke="#fff50086"/><path d="M-11-122l-110 41" stroke-width="5.7" stroke="#005bbb86"/><path d="M7-90l-93 72" stroke-width="5.8" stroke="#fff50087"/><path d="M172-256l71-94" stroke-width="5.8" stroke="#fff88"/><path d="M193-90l92 73" stroke-width="5.9" stroke="#005bbb8A"/><path d="M157-266l56-103" stroke-width="5.9" stroke="#c2e1ff8A"/><path d="M174-71l74 91" stroke-width="6.0" stroke="#005bbb8D"/><path d="M1-100l-99 63" stroke-width="6.1" stroke="#c2e1ff90"/><path d="M17-244l-83-82" stroke-width="6.3" stroke="#fff50095"/><path d="M98-47l-2 115" stroke-width="6.5" stroke="#c2e1ff9B"/><path d="M2-222l-97-60" stroke-width="6.6" stroke="#fff5009F"/><path d="M114-49l14 113" stroke-width="6.7" stroke="#c2e1ffA0"/><path d="M48-263l-51-101" stroke-width="6.8" stroke="#005bbbA4"/><path d="M165-71l65 91" stroke-width="6.9" stroke="#fffA8"/><path d="M67-56l-32 107" stroke-width="6.9" stroke="#fff500A8"/><path d="M108-274l8-111" stroke-width="7.0" stroke="#c2e1ffA9"/><path d="M2-109l-97 54" stroke-width="7.0" stroke="#c2e1ffA9"/><path d="M-11-152l-111 11" stroke-width="7.0" stroke="#005bbbA9"/><path d="M-4-123l-104 40" stroke-width="7.0" stroke="#fffAA"/><path d="M116-272l16-110" stroke-width="7.0" stroke="#c2e1ffAA"/><path d="M136-267l37-105" stroke-width="7.0" stroke="#c2e1ffAB"/><path d="M146-62l47 101" stroke-width="7.1" stroke="#fffAB"/><path d="M-4-124l-104 38" stroke-width="7.1" stroke="#fffAB"/><path d="M60-62l-39 101" stroke-width="7.3" stroke="#fffB1"/><path d="M124-268l25-106" stroke-width="7.3" stroke="#fff500B2"/><path d="M17-93l-83 70" stroke-width="7.3" stroke="#fffB2"/><path d="M164-75l63 87" stroke-width="7.3" stroke="#fff500B3"/><path d="M127-266l28-104" stroke-width="7.4" stroke="#c2e1ffB4"/><path d="M115-269l15-106" stroke-width="7.4" stroke="#fffB4"/><path d="M125-266l25-104" stroke-width="7.4" stroke="#fffB6"/><path d="M1-201l-99-38" stroke-width="7.5" stroke="#fffB7"/><path d="M184-222l84-59" stroke-width="7.7" stroke="#fff500BE"/><path d="M193-203l93-40" stroke-width="7.8" stroke="#fff500C0"/><path d="M2-136l-97 27" stroke-width="7.8" stroke="#c2e1ffC1"/><path d="M65-69l-35 93" stroke-width="7.9" stroke="#005bbbC3"/><path d="M182-218l83-56" stroke-width="7.9" stroke="#fffC4"/><path d="M43-82l-58 80" stroke-width="8.0" stroke="#fff500C5"/><path d="M191-197l90-35" stroke-width="8.1" stroke="#fff500C8"/><path d="M195-144l94 19" stroke-width="8.1" stroke="#fffC9"/><path d="M19-207l-82-45" stroke-width="8.3" stroke="#fff500CE"/><path d="M15-126l-84 37" stroke-width="8.3" stroke="#fffCF"/><path d="M143-242l42-79" stroke-width="8.4" stroke="#fffD2"/><path d="M43-232l-56-70" stroke-width="8.4" stroke="#fff500D2"/><path d="M164-223l65-60" stroke-width="8.5" stroke="#c2e1ffD4"/><path d="M90-250l-10-88" stroke-width="8.5" stroke="#c2e1ffD4"/><path d="M75-246l-26-84" stroke-width="8.5" stroke="#fff500D4"/><path d="M91-75l-10 87" stroke-width="8.5" stroke="#fffD4"/><path d="M54-234l-46-72" stroke-width="8.6" stroke="#fff500D7"/><path d="M182-150l83 13" stroke-width="8.7" stroke="#fffD9"/><path d="M160-106l61 57" stroke-width="8.7" stroke="#fffDA"/><path d="M76-83l-23 79" stroke-width="8.7" stroke="#c2e1ffDA"/><path d="M66-237l-34-74" stroke-width="8.8" stroke="#005bbbDB"/><path d="M68-88l-33 74" stroke-width="8.8" stroke="#c2e1ffDC"/><path d="M112-243l12-80" stroke-width="8.8" stroke="#c2e1ffDC"/><path d="M121-85l21 78" stroke-width="8.8" stroke="#005bbbDC"/><path d="M66-235l-34-73" stroke-width="8.8" stroke="#c2e1ffDD"/><path d="M22-148l-79 15" stroke-width="8.8" stroke="#fff500DD"/><path d="M83-85l-16 77" stroke-width="8.8" stroke="#fff500DE"/><path d="M75-88l-24 74" stroke-width="8.9" stroke="#005bbbDF"/><path d="M67-230l-32-67" stroke-width="9.0" stroke="#005bbbE2"/><path d="M172-152l72 10" stroke-width="9.0" stroke="#fffE4"/><path d="M33-186l-66-23" stroke-width="9.1" stroke="#c2e1ffE5"/><path d="M168-162l67 1" stroke-width="9.2" stroke="#fffE7"/><path d="M93-96l-6 67" stroke-width="9.2" stroke="#fffE8"/><path d="M64-216l-36-54" stroke-width="9.3" stroke="#fffEA"/><path d="M149-124l49 39" stroke-width="9.3" stroke="#005bbbEB"/><path d="M120-105l20 58" stroke-width="9.3" stroke="#005bbbEC"/><path d="M119-220l20-57" stroke-width="9.4" stroke="#fff500ED"/><path d="M141-207l40-44" stroke-width="9.4" stroke="#005bbbED"/><path d="M148-131l48 32" stroke-width="9.4" stroke="#c2e1ffEE"/><path d="M141-196l41-33" stroke-width="9.5" stroke="#005bbbF1"/><path d="M71-124l-29 38" stroke-width="9.6" stroke="#c2e1ffF4"/><path d="M78-205l-21-42" stroke-width="9.6" stroke="#fffF4"/><path d="M129-199l29-36" stroke-width="9.6" stroke="#005bbbF4"/><path d="M95-204l-4-42" stroke-width="9.7" stroke="#005bbbF6"/><path d="M137-162l36 0" stroke-width="9.8" stroke="#fffF8"/><path d="M111-137l10 25" stroke-width="9.9" stroke="#fffFB"/><path d="M87-185l-13-23" stroke-width="9.9" stroke="#fffFB"/><path d="M108-155l9 7" stroke-width="10.0" stroke="#c2e1ffFE"/><path d="M111-159l10 3" stroke-width="10.0" stroke="#fff500FE"/></g></svg>