<svg width="1200" height="675" viewBox="-500 -500 1200 675" xmlns="http://www.w3.org/2000/svg"><path d="M-500-500h1200v675h-1200z" fill="#000"/><style>.sparkles path{stroke-linecap:round}</style><g class="sparkles"><path d="M86-158l-14 4" stroke-width="1.0" stroke="#005bbb0"/><path d="M87-143l-14 19" stroke-width="1.1" stroke="#fff5002"/><path d="M107-189l8-26" stroke-width="1.1" stroke="#fff3"/><path d="M97-193l-2-31" stroke-width="1.2" stroke="#c2e1ff4"/><path d="M118-201l18-38" stroke-width="1.3" stroke="#005bbb8"/><path d="M138-184l38-21" stroke-width="1.3" stroke="#fff8"/><path d="M79-124l-21 39" stroke-width="1.3" stroke="#fff9"/><path d="M81-121l-19 41" stroke-width="1.3" stroke="#005bbb9"/><path d="M103-113l2 50" stroke-width="1.4" stroke="#c2e1ffB"/><path d="M51-154l-49 8" stroke-width="1.4" stroke="#c2e1ffB"/><path d="M124-207l24-45" stroke-width="1.4" stroke="#fffC"/><path d="M67-117l-32 46" stroke-width="1.5" stroke="#fff500F"/><path d="M63-207l-37-44" stroke-width="1.6" stroke="#fff50010"/><path d="M52-196l-48-34" stroke-width="1.6" stroke="#c2e1ff10"/><path d="M38-161l-62 1" stroke-width="1.7" stroke="#fff12"/><path d="M149-204l50-42" stroke-width="1.7" stroke="#c2e1ff14"/><path d="M49-120l-51 42" stroke-width="1.8" stroke="#fff15"/><path d="M105-95l6 68" stroke-width="1.8" stroke="#fff17"/><path d="M132-102l32 60" stroke-width="1.8" stroke="#c2e1ff17"/><path d="M32-145l-68 17" stroke-width="1.9" stroke="#005bbb18"/><path d="M171-162l70 1" stroke-width="1.9" stroke="#fff19"/><path d="M61-102l-40 61" stroke-width="1.9" stroke="#c2e1ff1A"/><path d="M31-138l-70 24" stroke-width="2.0" stroke="#fff5001B"/><path d="M44-112l-57 51" stroke-width="2.0" stroke="#005bbb1D"/><path d="M130-93l31 70" stroke-width="2.1" stroke="#fff1D"/><path d="M30-115l-71 48" stroke-width="2.4" stroke="#fff26"/><path d="M39-103l-61 59" stroke-width="2.4" stroke="#fff50026"/><path d="M62-245l-38-82" stroke-width="2.6" stroke="#c2e1ff2D"/><path d="M106-254l6-91" stroke-width="2.6" stroke="#fff2E"/><path d="M8-166l-91-3" stroke-width="2.7" stroke="#c2e1ff2F"/><path d="M168-100l67 63" stroke-width="2.7" stroke="#005bbb2F"/><path d="M42-89l-58 73" stroke-width="2.7" stroke="#005bbb31"/><path d="M90-258l-9-96" stroke-width="2.9" stroke="#fff50035"/><path d="M7-130l-92 32" stroke-width="3.0" stroke="#005bbb38"/><path d="M103-63l4 99" stroke-width="3.1" stroke="#005bbb3A"/><path d="M132-257l32-94" stroke-width="3.1" stroke="#c2e1ff3A"/><path d="M154-246l54-83" stroke-width="3.1" stroke="#c2e1ff3A"/><path d="M174-96l73 67" stroke-width="3.1" stroke="#fff3A"/><path d="M200-175l100-13" stroke-width="3.2" stroke="#c2e1ff3C"/><path d="M189-115l89 48" stroke-width="3.2" stroke="#005bbb3D"/><path d="M80-262l-20-99" stroke-width="3.2" stroke="#c2e1ff3D"/><path d="M120-63l20 100" stroke-width="3.2" stroke="#c2e1ff3E"/><path d="M43-247l-57-85" stroke-width="3.2" stroke="#005bbb3F"/><path d="M173-234l74-72" stroke-width="3.3" stroke="#fff5003F"/><path d="M-2-153l-103 9" stroke-width="3.3" stroke="#fff50040"/><path d="M198-199l98-36" stroke-width="3.4" stroke="#fff43"/><path d="M-4-177l-103-14" stroke-width="3.4" stroke="#fff50044"/><path d="M17-226l-84-64" stroke-width="3.4" stroke="#005bbb45"/><path d="M-2-194l-101-32" stroke-width="3.6" stroke="#fff50048"/><path d="M5-113l-94 50" stroke-width="3.6" stroke="#fff49"/><path d="M64-60l-35 102" stroke-width="3.7" stroke="#fff5004C"/><path d="M202-126l103 36" stroke-width="3.7" stroke="#fff4D"/><path d="M203-124l104 39" stroke-width="3.9" stroke="#c2e1ff51"/><path d="M18-88l-82 74" stroke-width="3.9" stroke="#c2e1ff52"/><path d="M210-147l109 16" stroke-width="3.9" stroke="#fff50053"/><path d="M192-99l91 63" stroke-width="4.0" stroke="#fff50054"/><path d="M95-274l-4-112" stroke-width="4.0" stroke="#fff55"/><path d="M211-178l111-16" stroke-width="4.1" stroke="#c2e1ff56"/><path d="M86-274l-13-111" stroke-width="4.1" stroke="#fff50058"/><path d="M210-189l110-26" stroke-width="4.2" stroke="#c2e1ff5A"/><path d="M192-96l92 66" stroke-width="4.2" stroke="#fff5B"/><path d="M202-114l102 49" stroke-width="4.2" stroke="#005bbb5B"/><path d="M90-49l-9 113" stroke-width="4.3" stroke="#fff5005C"/><path d="M103-49l3 114" stroke-width="4.3" stroke="#005bbb5C"/><path d="M208-123l107 40" stroke-width="4.4" stroke="#005bbb60"/><path d="M-1-217l-102-54" stroke-width="4.5" stroke="#c2e1ff62"/><path d="M51-267l-48-105" stroke-width="4.5" stroke="#005bbb64"/><path d="M210-128l111 34" stroke-width="4.6" stroke="#fff50065"/><path d="M104-47l4 116" stroke-width="4.6" stroke="#fff50065"/><path d="M214-183l115-20" stroke-width="4.7" stroke="#c2e1ff68"/><path d="M199-223l99-61" stroke-width="4.7" stroke="#fff50068"/><path d="M216-171l116-8" stroke-width="4.7" stroke="#fff68"/><path d="M-5-214l-104-52" stroke-width="4.8" stroke="#005bbb6A"/><path d="M129-275l29-113" stroke-width="4.8" stroke="#005bbb6A"/><path d="M194-232l93-70" stroke-width="4.8" stroke="#005bbb6B"/><path d="M102-46l1 117" stroke-width="4.8" stroke="#005bbb6C"/><path d="M43-265l-57-103" stroke-width="5.0" stroke="#005bbb71"/><path d="M216-144l116 18" stroke-width="5.1" stroke="#c2e1ff72"/><path d="M185-81l84 82" stroke-width="5.1" stroke="#fff73"/><path d="M-18-156l-117 6" stroke-width="5.1" stroke="#005bbb74"/><path d="M56-272l-44-109" stroke-width="5.1" stroke="#fff50075"/><path d="M70-49l-30 114" stroke-width="5.1" stroke="#c2e1ff75"/><path d="M9-88l-91 75" stroke-width="5.1" stroke="#c2e1ff75"/><path d="M23-251l-78-89" stroke-width="5.2" stroke="#c2e1ff75"/><path d="M-14-193l-114-30" stroke-width="5.2" stroke="#fff50077"/><path d="M187-242l87-80" stroke-width="5.3" stroke="#005bbb78"/><path d="M208-209l109-47" stroke-width="5.3" stroke="#fff7A"/><path d="M-18-171l-118-9" stroke-width="5.4" stroke="#fff5007D"/><path d="M66-49l-34 113" stroke-width="5.4" stroke="#005bbb7D"/><path d="M-10-205l-111-42" stroke-width="5.4" stroke="#c2e1ff7D"/><path d="M6-90l-93 72" stroke-width="5.4" stroke="#fff5007D"/><path d="M-16-143l-117 20" stroke-width="5.5" stroke="#c2e1ff7E"/><path d="M130-277l30-114" stroke-width="5.5" stroke="#c2e1ff7F"/><path d="M215-188l116-25" stroke-width="5.5" stroke="#c2e1ff80"/><path d="M22-74l-77 89" stroke-width="5.6" stroke="#fff82"/><path d="M32-259l-67-97" stroke-width="5.6" stroke="#fff50083"/><path d="M207-113l107 50" stroke-width="5.7" stroke="#005bbb84"/><path d="M192-236l92-73" stroke-width="5.9" stroke="#fff89"/><path d="M-3-107l-103 56" stroke-width="6.0" stroke="#fff5008E"/><path d="M185-82l86 80" stroke-width="6.1" stroke="#fff5008F"/><path d="M95-46l-4 117" stroke-width="6.1" stroke="#fff90"/><path d="M86-279l-14-116" stroke-width="6.1" stroke="#fff50091"/><path d="M164-65l64 97" stroke-width="6.2" stroke="#c2e1ff93"/><path d="M11-238l-89-75" stroke-width="6.2" stroke="#005bbb93"/><path d="M3-98l-97 64" stroke-width="6.3" stroke="#c2e1ff95"/><path d="M-11-195l-111-33" stroke-width="6.4" stroke="#005bbb99"/><path d="M85-48l-14 114" stroke-width="6.5" stroke="#fff5009B"/><path d="M184-241l85-78" stroke-width="6.5" stroke="#fff9C"/><path d="M-9-127l-109 36" stroke-width="6.6" stroke="#fff5009D"/><path d="M110-276l11-114" stroke-width="6.6" stroke="#c2e1ff9F"/><path d="M-10-131l-110 31" stroke-width="6.7" stroke="#005bbbA0"/><path d="M95-276l-6-114" stroke-width="6.7" stroke="#c2e1ffA0"/><path d="M214-162l113 0" stroke-width="6.7" stroke="#fff500A2"/><path d="M17-240l-82-78" stroke-width="6.7" stroke="#fffA2"/><path d="M-12-179l-112-16" stroke-width="6.8" stroke="#c2e1ffA4"/><path d="M199-110l99 53" stroke-width="6.9" stroke="#fff500A6"/><path d="M-12-167l-112-4" stroke-width="6.9" stroke="#005bbbA7"/><path d="M191-228l91-65" stroke-width="6.9" stroke="#fff500A7"/><path d="M198-109l97 53" stroke-width="7.0" stroke="#fffAA"/><path d="M102-51l1 111" stroke-width="7.0" stroke="#fffAA"/><path d="M138-267l39-104" stroke-width="7.0" stroke="#fffAB"/><path d="M9-99l-91 63" stroke-width="7.1" stroke="#c2e1ffAB"/><path d="M26-245l-73-83" stroke-width="7.1" stroke="#c2e1ffAC"/><path d="M66-58l-34 104" stroke-width="7.2" stroke="#c2e1ffAF"/><path d="M-7-137l-106 25" stroke-width="7.2" stroke="#005bbbAF"/><path d="M146-261l46-99" stroke-width="7.2" stroke="#c2e1ffB0"/><path d="M200-205l100-43" stroke-width="7.2" stroke="#005bbbB0"/><path d="M202-200l102-38" stroke-width="7.3" stroke="#fffB1"/><path d="M156-70l56 92" stroke-width="7.3" stroke="#c2e1ffB3"/><path d="M207-172l108-10" stroke-width="7.3" stroke="#fffB3"/><path d="M47-255l-52-93" stroke-width="7.4" stroke="#005bbbB6"/><path d="M202-191l102-29" stroke-width="7.5" stroke="#fffB7"/><path d="M130-263l30-100" stroke-width="7.6" stroke="#005bbbBA"/><path d="M170-239l70-76" stroke-width="7.7" stroke="#fff500BC"/><path d="M123-263l24-100" stroke-width="7.7" stroke="#fffBD"/><path d="M9-117l-90 45" stroke-width="7.8" stroke="#fff500C1"/><path d="M9-204l-92-41" stroke-width="7.9" stroke="#c2e1ffC3"/><path d="M167-90l67 72" stroke-width="8.0" stroke="#c2e1ffC5"/><path d="M196-155l95 8" stroke-width="8.1" stroke="#c2e1ffC9"/><path d="M82-256l-19-93" stroke-width="8.2" stroke="#fffCB"/><path d="M173-103l73 60" stroke-width="8.2" stroke="#fffCC"/><path d="M133-74l33 88" stroke-width="8.2" stroke="#fff500CC"/><path d="M23-109l-77 53" stroke-width="8.2" stroke="#fff500CD"/><path d="M194-156l93 6" stroke-width="8.2" stroke="#fffCD"/><path d="M26-105l-73 58" stroke-width="8.2" stroke="#005bbbCD"/><path d="M7-158l-93 4" stroke-width="8.3" stroke="#005bbbCE"/><path d="M65-248l-35-85" stroke-width="8.3" stroke="#fffCF"/><path d="M63-246l-37-84" stroke-width="8.4" stroke="#005bbbD0"/><path d="M185-129l85 33" stroke-width="8.4" stroke="#fffD0"/><path d="M191-168l91-5" stroke-width="8.4" stroke="#005bbbD0"/><path d="M41-225l-60-62" stroke-width="8.6" stroke="#005bbbD6"/><path d="M60-238l-41-75" stroke-width="8.6" stroke="#fff500D7"/><path d="M131-239l31-76" stroke-width="8.7" stroke="#fff500DA"/><path d="M18-166l-82-4" stroke-width="8.7" stroke="#005bbbDB"/><path d="M34-115l-66 47" stroke-width="8.8" stroke="#c2e1ffDC"/><path d="M128-89l28 73" stroke-width="8.9" stroke="#c2e1ffDF"/><path d="M35-120l-65 43" stroke-width="8.9" stroke="#005bbbDF"/><path d="M168-125l69 37" stroke-width="8.9" stroke="#fffDF"/><path d="M35-205l-66-42" stroke-width="8.9" stroke="#fff500DF"/><path d="M139-97l39 65" stroke-width="8.9" stroke="#fff500E1"/><path d="M57-222l-43-60" stroke-width="9.0" stroke="#005bbbE2"/><path d="M142-223l42-60" stroke-width="9.0" stroke="#fffE3"/><path d="M38-191l-63-28" stroke-width="9.2" stroke="#fff500E7"/><path d="M119-224l20-62" stroke-width="9.3" stroke="#005bbbEA"/><path d="M161-184l61-22" stroke-width="9.3" stroke="#fff500EA"/><path d="M124-222l24-59" stroke-width="9.3" stroke="#fffEA"/><path d="M164-164l63-2" stroke-width="9.3" stroke="#c2e1ffEA"/><path d="M43-186l-57-23" stroke-width="9.3" stroke="#c2e1ffEC"/><path d="M88-105l-13 57" stroke-width="9.4" stroke="#005bbbEE"/><path d="M82-213l-19-51" stroke-width="9.5" stroke="#c2e1ffF0"/><path d="M47-169l-53-7" stroke-width="9.5" stroke="#fff500F1"/><path d="M147-146l47 16" stroke-width="9.6" stroke="#fff500F3"/><path d="M93-207l-8-44" stroke-width="9.7" stroke="#fffF5"/><path d="M61-184l-38-22" stroke-width="9.7" stroke="#fff500F5"/><path d="M92-201l-7-39" stroke-width="9.7" stroke="#c2e1ffF7"/><path d="M124-133l23 29" stroke-width="9.8" stroke="#fff500F8"/><path d="M135-172l36-10" stroke-width="9.8" stroke="#005bbbF8"/><path d="M132-156l32 6" stroke-width="9.8" stroke="#fffFA"/><path d="M88-135l-12 28" stroke-width="9.8" stroke="#fff500FA"/><path d="M105-190l5-27" stroke-width="9.9" stroke="#fff500FB"/><path d="M112-164l12-2" stroke-width="10.0" stroke="#fff500FE"/></g></svg>