<svg width="1200" height="675" viewBox="-500 -500 1200 675" xmlns="http://www.w3.org/2000/svg"><path d="M-500-500h1200v675h-1200z" fill="#000"/><style>.sparkles path{stroke-linecap:round}</style><g class="sparkles"><path d="M116-168l16-5" stroke-width="1.0" stroke="#fff1"/><path d="M89-177l-11-15" stroke-width="1.1" stroke="#005bbb1"/><path d="M115-174l15-11" stroke-width="1.1" stroke="#fff5001"/><path d="M112-184l12-21" stroke-width="1.1" stroke="#fff2"/><path d="M124-174l23-11" stroke-width="1.1" stroke="#005bbb3"/><path d="M75-185l-25-23" stroke-width="1.2" stroke="#c2e1ff5"/><path d="M135-178l34-15" stroke-width="1.2" stroke="#fff5006"/><path d="M66-186l-34-24" stroke-width="1.3" stroke="#c2e1ff8"/><path d="M98-104l-1 59" stroke-width="1.6" stroke="#fff10"/><path d="M45-140l-55 23" stroke-width="1.6" stroke="#005bbb11"/><path d="M115-221l14-58" stroke-width="1.6" stroke="#fff11"/><path d="M45-189l-55-27" stroke-width="1.7" stroke="#fff50012"/><path d="M39-184l-62-21" stroke-width="1.7" stroke="#fff15"/><path d="M30-162l-69 1" stroke-width="1.9" stroke="#fff18"/><path d="M83-233l-17-70" stroke-width="1.9" stroke="#fff5001A"/><path d="M31-135l-70 27" stroke-width="2.0" stroke="#005bbb1C"/><path d="M25-141l-76 21" stroke-width="2.1" stroke="#fff20"/><path d="M167-203l68-41" stroke-width="2.1" stroke="#fff20"/><path d="M166-116l65 47" stroke-width="2.2" stroke="#fff22"/><path d="M71-85l-28 77" stroke-width="2.3" stroke="#c2e1ff24"/><path d="M178-128l77 34" stroke-width="2.4" stroke="#fff50026"/><path d="M185-157l86 5" stroke-width="2.4" stroke="#005bbb27"/><path d="M114-78l14 85" stroke-width="2.4" stroke="#fff28"/><path d="M44-229l-55-67" stroke-width="2.5" stroke="#fff29"/><path d="M97-73l-2 89" stroke-width="2.6" stroke="#005bbb2C"/><path d="M181-125l82 38" stroke-width="2.6" stroke="#005bbb2C"/><path d="M143-241l43-79" stroke-width="2.6" stroke="#005bbb2C"/><path d="M61-245l-40-83" stroke-width="2.7" stroke="#fff5002E"/><path d="M102-256l3-94" stroke-width="2.8" stroke="#c2e1ff31"/><path d="M32-228l-68-65" stroke-width="2.8" stroke="#c2e1ff32"/><path d="M195-165l95-2" stroke-width="2.8" stroke="#fff50033"/><path d="M133-73l33 89" stroke-width="2.8" stroke="#fff50034"/><path d="M197-186l98-23" stroke-width="3.1" stroke="#fff3B"/><path d="M58-71l-43 92" stroke-width="3.2" stroke="#fff3D"/><path d="M116-263l15-100" stroke-width="3.2" stroke="#005bbb3E"/><path d="M-3-160l-103 3" stroke-width="3.3" stroke="#fff50041"/><path d="M2-197l-97-34" stroke-width="3.3" stroke="#fff50041"/><path d="M41-75l-59 87" stroke-width="3.5" stroke="#005bbb45"/><path d="M204-143l104 19" stroke-width="3.5" stroke="#fff50047"/><path d="M2-122l-98 41" stroke-width="3.6" stroke="#fff48"/><path d="M205-143l106 19" stroke-width="3.6" stroke="#fff49"/><path d="M-7-148l-106 15" stroke-width="3.6" stroke="#fff4A"/><path d="M203-128l102 34" stroke-width="3.7" stroke="#fff4B"/><path d="M119-56l19 107" stroke-width="3.7" stroke="#005bbb4C"/><path d="M154-69l55 94" stroke-width="3.7" stroke="#fff5004C"/><path d="M138-264l39-102" stroke-width="3.7" stroke="#c2e1ff4D"/><path d="M5-216l-95-53" stroke-width="3.8" stroke="#c2e1ff4E"/><path d="M117-270l17-108" stroke-width="3.8" stroke="#c2e1ff4F"/><path d="M26-82l-75 80" stroke-width="3.8" stroke="#c2e1ff4F"/><path d="M-7-184l-108-21" stroke-width="3.8" stroke="#fff5004F"/><path d="M-8-189l-107-27" stroke-width="3.9" stroke="#fff53"/><path d="M159-68l58 94" stroke-width="3.9" stroke="#c2e1ff53"/><path d="M-4-124l-104 39" stroke-width="4.0" stroke="#005bbb53"/><path d="M144-60l44 103" stroke-width="4.0" stroke="#005bbb56"/><path d="M38-256l-61-94" stroke-width="4.1" stroke="#fff56"/><path d="M189-94l90 69" stroke-width="4.1" stroke="#fff50059"/><path d="M173-249l72-86" stroke-width="4.2" stroke="#fff50059"/><path d="M-14-162l-114 1" stroke-width="4.3" stroke="#005bbb5D"/><path d="M-9-129l-109 33" stroke-width="4.3" stroke="#005bbb5D"/><path d="M-4-210l-103-48" stroke-width="4.3" stroke="#c2e1ff5E"/><path d="M182-242l82-79" stroke-width="4.4" stroke="#fff5F"/><path d="M-15-163l-115 0" stroke-width="4.5" stroke="#fff63"/><path d="M77-49l-23 113" stroke-width="4.6" stroke="#005bbb64"/><path d="M-8-120l-107 42" stroke-width="4.6" stroke="#005bbb65"/><path d="M215-174l116-12" stroke-width="4.6" stroke="#005bbb66"/><path d="M-10-201l-109-38" stroke-width="4.7" stroke="#c2e1ff68"/><path d="M-5-111l-104 51" stroke-width="4.7" stroke="#005bbb69"/><path d="M94-279l-5-117" stroke-width="4.9" stroke="#c2e1ff6E"/><path d="M40-62l-61 101" stroke-width="5.0" stroke="#c2e1ff70"/><path d="M165-261l65-98" stroke-width="5.1" stroke="#c2e1ff74"/><path d="M174-254l75-91" stroke-width="5.2" stroke="#005bbb75"/><path d="M-15-137l-116 25" stroke-width="5.5" stroke="#fff7F"/><path d="M153-57l53 105" stroke-width="5.5" stroke="#005bbb7F"/><path d="M89-45l-11 118" stroke-width="5.5" stroke="#fff50080"/><path d="M163-263l63-100" stroke-width="5.5" stroke="#fff50080"/><path d="M218-162l118 0" stroke-width="5.6" stroke="#fff50082"/><path d="M170-258l69-95" stroke-width="5.6" stroke="#fff83"/><path d="M-18-167l-118-5" stroke-width="5.6" stroke="#fff83"/><path d="M58-273l-42-110" stroke-width="5.7" stroke="#005bbb85"/><path d="M32-259l-68-96" stroke-width="5.8" stroke="#005bbb89"/><path d="M88-46l-12 117" stroke-width="5.9" stroke="#005bbb8B"/><path d="M47-267l-53-105" stroke-width="6.0" stroke="#fff8C"/><path d="M212-198l112-36" stroke-width="6.0" stroke="#fff8D"/><path d="M122-47l22 115" stroke-width="6.0" stroke="#c2e1ff8E"/><path d="M195-231l96-68" stroke-width="6.1" stroke="#fff5008F"/><path d="M36-261l-63-98" stroke-width="6.1" stroke="#fff91"/><path d="M157-61l56 102" stroke-width="6.2" stroke="#005bbb94"/><path d="M158-62l58 101" stroke-width="6.3" stroke="#fff95"/><path d="M67-51l-33 111" stroke-width="6.3" stroke="#fff50096"/><path d="M-15-180l-114-18" stroke-width="6.3" stroke="#fff96"/><path d="M206-208l107-46" stroke-width="6.4" stroke="#005bbb98"/><path d="M215-172l116-10" stroke-width="6.4" stroke="#fff50098"/><path d="M179-247l80-84" stroke-width="6.4" stroke="#c2e1ff98"/><path d="M213-142l114 20" stroke-width="6.5" stroke="#fff5009C"/><path d="M213-144l113 18" stroke-width="6.6" stroke="#005bbb9E"/><path d="M22-79l-79 84" stroke-width="6.6" stroke="#005bbb9E"/><path d="M49-265l-51-102" stroke-width="6.6" stroke="#fff5009E"/><path d="M201-110l102 52" stroke-width="6.7" stroke="#005bbbA0"/><path d="M213-180l112-17" stroke-width="6.7" stroke="#005bbbA0"/><path d="M39-259l-61-96" stroke-width="6.7" stroke="#c2e1ffA1"/><path d="M-2-112l-102 50" stroke-width="6.7" stroke="#c2e1ffA2"/><path d="M157-260l57-98" stroke-width="6.8" stroke="#fffA4"/><path d="M207-128l108 34" stroke-width="6.9" stroke="#c2e1ffA5"/><path d="M-2-116l-103 47" stroke-width="6.9" stroke="#fffA6"/><path d="M127-271l26-109" stroke-width="6.9" stroke="#fffA7"/><path d="M79-52l-20 110" stroke-width="6.9" stroke="#c2e1ffA8"/><path d="M105-51l4 112" stroke-width="7.0" stroke="#fff500A8"/><path d="M65-268l-35-106" stroke-width="7.0" stroke="#c2e1ffA9"/><path d="M-7-134l-108 28" stroke-width="7.0" stroke="#005bbbAA"/><path d="M56-264l-44-102" stroke-width="7.0" stroke="#c2e1ffAB"/><path d="M-10-152l-111 11" stroke-width="7.0" stroke="#c2e1ffAB"/><path d="M197-216l97-53" stroke-width="7.1" stroke="#fffAB"/><path d="M70-269l-29-106" stroke-width="7.1" stroke="#005bbbAC"/><path d="M123-55l24 108" stroke-width="7.1" stroke="#fff500AD"/><path d="M62-59l-38 103" stroke-width="7.1" stroke="#c2e1ffAD"/><path d="M32-248l-68-85" stroke-width="7.2" stroke="#005bbbB0"/><path d="M3-211l-97-48" stroke-width="7.3" stroke="#fff500B2"/><path d="M206-184l105-22" stroke-width="7.3" stroke="#fff500B3"/><path d="M-6-144l-105 18" stroke-width="7.4" stroke="#c2e1ffB4"/><path d="M206-178l106-15" stroke-width="7.4" stroke="#fffB5"/><path d="M47-69l-52 93" stroke-width="7.4" stroke="#005bbbB5"/><path d="M145-66l45 97" stroke-width="7.4" stroke="#005bbbB6"/><path d="M206-155l106 8" stroke-width="7.5" stroke="#c2e1ffB6"/><path d="M-2-194l-101-31" stroke-width="7.5" stroke="#fffB7"/><path d="M190-106l89 57" stroke-width="7.5" stroke="#fffB7"/><path d="M102-268l2-105" stroke-width="7.6" stroke="#c2e1ffB9"/><path d="M178-93l79 69" stroke-width="7.6" stroke="#fff500BA"/><path d="M203-161l104 1" stroke-width="7.7" stroke="#005bbbBD"/><path d="M187-217l87-55" stroke-width="7.7" stroke="#c2e1ffBD"/><path d="M201-143l100 20" stroke-width="7.7" stroke="#005bbbBE"/><path d="M166-85l67 78" stroke-width="7.7" stroke="#c2e1ffBF"/><path d="M152-250l52-88" stroke-width="7.8" stroke="#c2e1ffBF"/><path d="M60-71l-39 91" stroke-width="7.9" stroke="#005bbbC4"/><path d="M196-174l96-12" stroke-width="8.1" stroke="#fff500C8"/><path d="M190-129l90 33" stroke-width="8.1" stroke="#c2e1ffC9"/><path d="M82-257l-18-94" stroke-width="8.1" stroke="#fff500C9"/><path d="M7-185l-93-22" stroke-width="8.1" stroke="#005bbbCA"/><path d="M150-244l51-81" stroke-width="8.1" stroke="#c2e1ffCA"/><path d="M50-82l-50 80" stroke-width="8.2" stroke="#fff500CB"/><path d="M36-93l-64 69" stroke-width="8.2" stroke="#005bbbCC"/><path d="M80-254l-21-92" stroke-width="8.2" stroke="#fffCC"/><path d="M65-75l-36 87" stroke-width="8.2" stroke="#005bbbCC"/><path d="M169-104l70 58" stroke-width="8.4" stroke="#fff500D1"/><path d="M177-209l76-47" stroke-width="8.4" stroke="#005bbbD2"/><path d="M119-250l19-88" stroke-width="8.4" stroke="#c2e1ffD2"/><path d="M176-210l75-48" stroke-width="8.4" stroke="#005bbbD2"/><path d="M83-75l-16 87" stroke-width="8.5" stroke="#c2e1ffD3"/><path d="M112-249l12-87" stroke-width="8.5" stroke="#005bbbD4"/><path d="M16-185l-84-22" stroke-width="8.5" stroke="#005bbbD5"/><path d="M120-78l20 84" stroke-width="8.6" stroke="#fffD6"/><path d="M99-77l-2 86" stroke-width="8.6" stroke="#fffD7"/><path d="M17-174l-83-11" stroke-width="8.7" stroke="#c2e1ffD9"/><path d="M85-245l-15-82" stroke-width="8.7" stroke="#c2e1ffD9"/><path d="M169-197l69-34" stroke-width="8.9" stroke="#fff500DF"/><path d="M81-90l-18 72" stroke-width="9.0" stroke="#fffE2"/><path d="M174-174l73-11" stroke-width="9.0" stroke="#c2e1ffE2"/><path d="M145-104l45 59" stroke-width="9.0" stroke="#c2e1ffE2"/><path d="M164-131l63 32" stroke-width="9.1" stroke="#c2e1ffE5"/><path d="M116-94l16 69" stroke-width="9.1" stroke="#fffE5"/><path d="M159-131l59 31" stroke-width="9.2" stroke="#c2e1ffE8"/><path d="M145-211l45-48" stroke-width="9.2" stroke="#005bbbE9"/><path d="M65-107l-35 55" stroke-width="9.2" stroke="#fff500E9"/><path d="M46-198l-54-35" stroke-width="9.3" stroke="#005bbbEA"/><path d="M81-101l-19 62" stroke-width="9.3" stroke="#c2e1ffEA"/><path d="M45-132l-55 30" stroke-width="9.3" stroke="#c2e1ffEB"/><path d="M122-219l22-56" stroke-width="9.4" stroke="#c2e1ffED"/><path d="M135-118l34 45" stroke-width="9.5" stroke="#005bbbEF"/><path d="M133-205l33-43" stroke-width="9.5" stroke="#fffF0"/><path d="M127-121l28 42" stroke-width="9.6" stroke="#005bbbF2"/><path d="M57-187l-42-25" stroke-width="9.6" stroke="#fffF3"/><path d="M108-210l8-47" stroke-width="9.6" stroke="#c2e1ffF4"/><path d="M72-125l-28 37" stroke-width="9.6" stroke="#fffF4"/><path d="M86-204l-14-42" stroke-width="9.7" stroke="#fff500F5"/><path d="M96-206l-5-43" stroke-width="9.7" stroke="#005bbbF5"/><path d="M142-162l43 0" stroke-width="9.7" stroke="#005bbbF6"/><path d="M110-194l11-31" stroke-width="9.8" stroke="#fffF9"/><path d="M128-148l29 14" stroke-width="9.8" stroke="#005bbbFA"/><path d="M115-191l14-28" stroke-width="9.8" stroke="#c2e1ffFA"/><path d="M100-193l-1-30" stroke-width="9.8" stroke="#fffFA"/><path d="M84-169l-16-6" stroke-width="10.0" stroke="#c2e1ffFD"/><path d="M95-155l-4 8" stroke-width="10.0" stroke="#fffFE"/></g></svg>