<svg width="1200" height="675" viewBox="-500 -500 1200 675" xmlns="http://www.w3.org/2000/svg"><path d="M-500-500h1200v675h-1200z" fill="#000"/><style>.sparkles path{stroke-linecap:round}</style><g class="sparkles"><path d="M103-170l4-8" stroke-width="1.0" stroke="#eae2b70"/><path d="M109-161l8 1" stroke-width="1.0" stroke="#f77f000"/><path d="M80-166l-20-4" stroke-width="1.1" stroke="#0030491"/><path d="M100-187l1-24" stroke-width="1.1" stroke="#0030492"/><path d="M82-182l-18-19" stroke-width="1.1" stroke="#f77f003"/><path d="M110-125l9 37" stroke-width="1.2" stroke="#0030496"/><path d="M85-201l-15-39" stroke-width="1.3" stroke="#eae2b78"/><path d="M92-203l-8-41" stroke-width="1.3" stroke="#f77f008"/><path d="M61-148l-40 15" stroke-width="1.3" stroke="#fcbf498"/><path d="M137-118l37 45" stroke-width="1.6" stroke="#eae2b710"/><path d="M145-124l45 39" stroke-width="1.6" stroke="#d6282811"/><path d="M111-104l12 58" stroke-width="1.6" stroke="#eae2b711"/><path d="M134-215l34-52" stroke-width="1.7" stroke="#f77f0013"/><path d="M131-219l30-57" stroke-width="1.7" stroke="#f77f0014"/><path d="M145-116l45 46" stroke-width="1.7" stroke="#f77f0014"/><path d="M74-102l-27 61" stroke-width="1.8" stroke="#00304915"/><path d="M33-162l-68 0" stroke-width="1.8" stroke="#fcbf4916"/><path d="M168-173l68-10" stroke-width="1.8" stroke="#d6282817"/><path d="M86-231l-15-68" stroke-width="1.9" stroke="#d6282818"/><path d="M95-235l-4-73" stroke-width="2.0" stroke="#fcbf491B"/><path d="M86-238l-13-76" stroke-width="2.1" stroke="#fcbf491E"/><path d="M180-166l79-3" stroke-width="2.2" stroke="#fcbf4921"/><path d="M70-88l-31 74" stroke-width="2.2" stroke="#d6282822"/><path d="M138-237l37-74" stroke-width="2.3" stroke="#f77f0025"/><path d="M168-212l67-50" stroke-width="2.3" stroke="#d6282825"/><path d="M15-167l-85-4" stroke-width="2.4" stroke="#fcbf4927"/><path d="M109-249l9-86" stroke-width="2.4" stroke="#f77f0028"/><path d="M124-77l24 85" stroke-width="2.5" stroke="#d628282B"/><path d="M12-147l-88 16" stroke-width="2.6" stroke="#f77f002C"/><path d="M26-218l-73-56" stroke-width="2.7" stroke="#f77f002F"/><path d="M192-155l92 8" stroke-width="2.7" stroke="#00304930"/><path d="M125-73l25 90" stroke-width="2.7" stroke="#eae2b731"/><path d="M13-129l-88 34" stroke-width="2.8" stroke="#f77f0031"/><path d="M131-73l31 89" stroke-width="2.8" stroke="#d6282832"/><path d="M191-190l91-27" stroke-width="2.8" stroke="#eae2b733"/><path d="M41-237l-59-74" stroke-width="2.8" stroke="#fcbf4933"/><path d="M13-200l-88-37" stroke-width="2.8" stroke="#d6282833"/><path d="M34-92l-67 70" stroke-width="2.9" stroke="#d6282836"/><path d="M23-102l-76 61" stroke-width="3.0" stroke="#f77f0037"/><path d="M163-88l63 75" stroke-width="3.0" stroke="#00304938"/><path d="M1-161l-98 2" stroke-width="3.0" stroke="#00304939"/><path d="M81-66l-20 97" stroke-width="3.0" stroke="#00304939"/><path d="M159-82l59 81" stroke-width="3.1" stroke="#0030493B"/><path d="M170-234l70-72" stroke-width="3.1" stroke="#eae2b73B"/><path d="M201-167l101-5" stroke-width="3.2" stroke="#0030493D"/><path d="M181-102l82 61" stroke-width="3.2" stroke="#fcbf493D"/><path d="M175-235l76-72" stroke-width="3.4" stroke="#f77f0043"/><path d="M200-133l101 30" stroke-width="3.4" stroke="#fcbf4944"/><path d="M112-58l12 104" stroke-width="3.4" stroke="#f77f0044"/><path d="M-4-174l-104-12" stroke-width="3.4" stroke="#d6282844"/><path d="M121-60l21 103" stroke-width="3.4" stroke="#eae2b745"/><path d="M31-242l-69-80" stroke-width="3.5" stroke="#f77f0046"/><path d="M121-58l22 105" stroke-width="3.6" stroke="#00304949"/><path d="M107-56l8 107" stroke-width="3.6" stroke="#f77f0049"/><path d="M13-99l-87 63" stroke-width="3.6" stroke="#d628284A"/><path d="M178-237l78-74" stroke-width="3.6" stroke="#d628284A"/><path d="M10-101l-89 61" stroke-width="3.7" stroke="#eae2b74D"/><path d="M207-185l106-22" stroke-width="3.8" stroke="#eae2b74E"/><path d="M182-88l81 74" stroke-width="3.9" stroke="#f77f0051"/><path d="M69-268l-32-106" stroke-width="3.9" stroke="#00304951"/><path d="M-11-161l-112 2" stroke-width="4.0" stroke="#eae2b755"/><path d="M213-164l113-2" stroke-width="4.2" stroke="#fcbf495A"/><path d="M34-70l-65 92" stroke-width="4.2" stroke="#d628285B"/><path d="M15-87l-84 76" stroke-width="4.3" stroke="#eae2b75C"/><path d="M206-203l107-40" stroke-width="4.3" stroke="#0030495C"/><path d="M-12-181l-113-18" stroke-width="4.3" stroke="#d628285D"/><path d="M122-51l23 112" stroke-width="4.3" stroke="#f77f005D"/><path d="M165-69l66 93" stroke-width="4.3" stroke="#f77f005D"/><path d="M159-260l59-98" stroke-width="4.3" stroke="#f77f005D"/><path d="M145-58l44 105" stroke-width="4.3" stroke="#f77f005D"/><path d="M164-257l65-95" stroke-width="4.4" stroke="#eae2b760"/><path d="M215-162l115 0" stroke-width="4.5" stroke="#eae2b762"/><path d="M182-81l81 81" stroke-width="4.5" stroke="#d6282863"/><path d="M214-146l114 17" stroke-width="4.5" stroke="#f77f0063"/><path d="M4-227l-95-64" stroke-width="4.5" stroke="#d6282863"/><path d="M200-104l100 59" stroke-width="4.7" stroke="#00304968"/><path d="M139-53l38 110" stroke-width="4.7" stroke="#fcbf4968"/><path d="M185-82l84 81" stroke-width="4.9" stroke="#fcbf496E"/><path d="M37-63l-62 99" stroke-width="5.0" stroke="#00304970"/><path d="M184-81l84 82" stroke-width="5.0" stroke="#00304971"/><path d="M4-231l-95-68" stroke-width="5.1" stroke="#fcbf4973"/><path d="M217-175l117-13" stroke-width="5.1" stroke="#00304975"/><path d="M-14-132l-114 30" stroke-width="5.2" stroke="#fcbf4976"/><path d="M216-186l115-23" stroke-width="5.3" stroke="#fcbf4979"/><path d="M169-258l69-96" stroke-width="5.3" stroke="#fcbf497B"/><path d="M204-106l104 56" stroke-width="5.4" stroke="#0030497D"/><path d="M170-67l69 95" stroke-width="5.5" stroke="#d6282880"/><path d="M165-64l64 99" stroke-width="5.6" stroke="#eae2b781"/><path d="M19-248l-81-86" stroke-width="5.6" stroke="#00304982"/><path d="M131-276l32-114" stroke-width="5.7" stroke="#f77f0084"/><path d="M-18-153l-117 9" stroke-width="5.8" stroke="#d6282887"/><path d="M46-267l-55-104" stroke-width="5.9" stroke="#f77f008A"/><path d="M200-225l100-62" stroke-width="5.9" stroke="#eae2b78A"/><path d="M209-119l109 44" stroke-width="5.9" stroke="#d628288A"/><path d="M12-240l-88-78" stroke-width="5.9" stroke="#0030498B"/><path d="M174-254l73-91" stroke-width="6.0" stroke="#eae2b78D"/><path d="M151-57l50 106" stroke-width="6.0" stroke="#0030498D"/><path d="M68-50l-32 112" stroke-width="6.2" stroke="#fcbf4993"/><path d="M-6-211l-106-49" stroke-width="6.2" stroke="#d6282893"/><path d="M3-227l-98-64" stroke-width="6.2" stroke="#eae2b794"/><path d="M8-234l-91-72" stroke-width="6.3" stroke="#f77f0095"/><path d="M124-276l24-114" stroke-width="6.3" stroke="#f77f0095"/><path d="M-14-183l-113-20" stroke-width="6.4" stroke="#0030499A"/><path d="M154-264l53-102" stroke-width="6.5" stroke="#f77f009C"/><path d="M195-98l94 64" stroke-width="6.6" stroke="#eae2b79F"/><path d="M155-63l54 100" stroke-width="6.7" stroke="#003049A1"/><path d="M195-225l95-62" stroke-width="6.7" stroke="#003049A1"/><path d="M-14-160l-113 3" stroke-width="6.7" stroke="#fcbf49A2"/><path d="M52-265l-49-102" stroke-width="6.8" stroke="#d62828A4"/><path d="M128-271l29-109" stroke-width="6.9" stroke="#d62828A6"/><path d="M190-97l90 66" stroke-width="7.0" stroke="#eae2b7A9"/><path d="M86-273l-14-110" stroke-width="7.0" stroke="#d62828AA"/><path d="M190-97l90 65" stroke-width="7.0" stroke="#d62828AA"/><path d="M173-81l74 82" stroke-width="7.1" stroke="#f77f00AE"/><path d="M108-272l7-110" stroke-width="7.2" stroke="#eae2b7AE"/><path d="M18-90l-82 73" stroke-width="7.2" stroke="#eae2b7AF"/><path d="M60-61l-40 102" stroke-width="7.2" stroke="#d62828B0"/><path d="M192-221l92-58" stroke-width="7.2" stroke="#003049B0"/><path d="M33-79l-67 83" stroke-width="7.4" stroke="#fcbf49B5"/><path d="M72-60l-28 102" stroke-width="7.5" stroke="#f77f00B7"/><path d="M50-254l-50-92" stroke-width="7.6" stroke="#d62828BA"/><path d="M12-218l-89-55" stroke-width="7.6" stroke="#d62828BB"/><path d="M179-231l78-68" stroke-width="7.6" stroke="#f77f00BB"/><path d="M125-263l25-100" stroke-width="7.7" stroke="#fcbf49BD"/><path d="M200-138l100 25" stroke-width="7.7" stroke="#003049BE"/><path d="M167-240l68-77" stroke-width="7.7" stroke="#eae2b7BF"/><path d="M37-82l-62 80" stroke-width="7.8" stroke="#fcbf49C0"/><path d="M122-261l22-98" stroke-width="7.8" stroke="#f77f00C1"/><path d="M151-249l51-87" stroke-width="7.9" stroke="#fcbf49C2"/><path d="M3-135l-96 27" stroke-width="7.9" stroke="#eae2b7C2"/><path d="M8-203l-91-41" stroke-width="7.9" stroke="#003049C2"/><path d="M188-115l88 47" stroke-width="7.9" stroke="#003049C3"/><path d="M76-258l-24-96" stroke-width="8.0" stroke="#fcbf49C5"/><path d="M71-254l-29-91" stroke-width="8.1" stroke="#fcbf49CA"/><path d="M182-113l81 49" stroke-width="8.2" stroke="#003049CA"/><path d="M86-69l-15 93" stroke-width="8.2" stroke="#f77f00CC"/><path d="M101-257l1-94" stroke-width="8.2" stroke="#003049CC"/><path d="M188-129l88 33" stroke-width="8.2" stroke="#eae2b7CC"/><path d="M188-196l87-33" stroke-width="8.2" stroke="#fcbf49CD"/><path d="M9-182l-92-20" stroke-width="8.3" stroke="#fcbf49CD"/><path d="M164-228l65-65" stroke-width="8.3" stroke="#fcbf49CF"/><path d="M171-219l71-57" stroke-width="8.4" stroke="#fcbf49D0"/><path d="M40-230l-60-68" stroke-width="8.4" stroke="#d62828D1"/><path d="M115-74l14 89" stroke-width="8.4" stroke="#d62828D2"/><path d="M103-252l4-89" stroke-width="8.4" stroke="#f77f00D2"/><path d="M23-117l-76 45" stroke-width="8.5" stroke="#d62828D3"/><path d="M16-170l-85-8" stroke-width="8.6" stroke="#fcbf49D8"/><path d="M111-79l11 83" stroke-width="8.7" stroke="#eae2b7D9"/><path d="M70-85l-30 78" stroke-width="8.7" stroke="#d62828D9"/><path d="M182-168l82-5" stroke-width="8.7" stroke="#eae2b7DB"/><path d="M80-242l-21-80" stroke-width="8.7" stroke="#f77f00DB"/><path d="M77-239l-24-76" stroke-width="8.8" stroke="#eae2b7DD"/><path d="M176-179l76-17" stroke-width="8.9" stroke="#f77f00DF"/><path d="M84-239l-16-76" stroke-width="8.9" stroke="#f77f00DF"/><path d="M111-86l11 77" stroke-width="8.9" stroke="#f77f00DF"/><path d="M32-125l-67 38" stroke-width="8.9" stroke="#fcbf49DF"/><path d="M86-239l-14-76" stroke-width="8.9" stroke="#eae2b7DF"/><path d="M70-231l-30-69" stroke-width="9.0" stroke="#f77f00E1"/><path d="M46-200l-53-37" stroke-width="9.2" stroke="#fcbf49E9"/><path d="M63-216l-37-53" stroke-width="9.3" stroke="#d62828EA"/><path d="M153-195l53-32" stroke-width="9.3" stroke="#003049EC"/><path d="M132-214l31-52" stroke-width="9.4" stroke="#eae2b7EC"/><path d="M77-107l-22 56" stroke-width="9.4" stroke="#d62828ED"/><path d="M41-168l-60-6" stroke-width="9.4" stroke="#003049ED"/><path d="M107-104l6 58" stroke-width="9.4" stroke="#f77f00EE"/><path d="M152-189l51-26" stroke-width="9.4" stroke="#fcbf49EE"/><path d="M93-106l-8 57" stroke-width="9.4" stroke="#d62828EF"/><path d="M75-213l-25-50" stroke-width="9.5" stroke="#003049EF"/><path d="M54-143l-47 19" stroke-width="9.6" stroke="#fcbf49F2"/><path d="M54-167l-46-4" stroke-width="9.6" stroke="#eae2b7F4"/><path d="M56-176l-43-13" stroke-width="9.7" stroke="#fcbf49F5"/><path d="M62-185l-37-22" stroke-width="9.7" stroke="#003049F5"/><path d="M75-196l-25-34" stroke-width="9.7" stroke="#d62828F6"/><path d="M80-130l-21 33" stroke-width="9.8" stroke="#003049F8"/><path d="M137-153l36 10" stroke-width="9.8" stroke="#f77f00F8"/><path d="M70-182l-31-20" stroke-width="9.8" stroke="#003049F8"/><path d="M86-132l-14 30" stroke-width="9.8" stroke="#d62828F9"/><path d="M122-138l22 24" stroke-width="9.8" stroke="#fcbf49F9"/><path d="M130-150l30 13" stroke-width="9.8" stroke="#eae2b7FA"/><path d="M90-152l-10 10" stroke-width="10.0" stroke="#d62828FE"/><path d="M98-168l-2-5" stroke-width="10.0" stroke="#fcbf49FE"/></g></svg>