<svg width="1200" height="675" viewBox="-500 -500 1200 675" xmlns="http://www.w3.org/2000/svg"><path d="M-500-500h1200v675h-1200z" fill="#000"/><style>.sparkles path{stroke-linecap:round}</style><g class="sparkles"><path d="M95-158l-5 5" stroke-width="1.0" stroke="#005bbb0"/><path d="M110-166l10-4" stroke-width="1.0" stroke="#c2e1ff0"/><path d="M93-180l-8-17" stroke-width="1.1" stroke="#c2e1ff1"/><path d="M80-152l-20 11" stroke-width="1.1" stroke="#fff5002"/><path d="M125-160l26 2" stroke-width="1.1" stroke="#005bbb3"/><path d="M85-192l-15-30" stroke-width="1.2" stroke="#fff5"/><path d="M115-195l15-33" stroke-width="1.2" stroke="#fff5006"/><path d="M136-174l35-11" stroke-width="1.2" stroke="#005bbb6"/><path d="M59-161l-41 1" stroke-width="1.3" stroke="#fff5007"/><path d="M79-126l-20 37" stroke-width="1.3" stroke="#fff5008"/><path d="M120-200l19-37" stroke-width="1.3" stroke="#fff8"/><path d="M142-148l41 15" stroke-width="1.3" stroke="#fff9"/><path d="M130-126l30 37" stroke-width="1.4" stroke="#fff500A"/><path d="M106-210l6-47" stroke-width="1.4" stroke="#005bbbA"/><path d="M49-176l-51-13" stroke-width="1.5" stroke="#fffD"/><path d="M112-108l11 55" stroke-width="1.5" stroke="#c2e1ffF"/><path d="M100-220l-1-58" stroke-width="1.6" stroke="#c2e1ff10"/><path d="M107-221l6-59" stroke-width="1.6" stroke="#005bbb11"/><path d="M143-115l43 48" stroke-width="1.7" stroke="#005bbb14"/><path d="M132-107l32 56" stroke-width="1.7" stroke="#fff50014"/><path d="M37-184l-64-22" stroke-width="1.8" stroke="#fff50016"/><path d="M50-208l-50-45" stroke-width="1.8" stroke="#fff17"/><path d="M163-196l64-33" stroke-width="1.9" stroke="#005bbb1A"/><path d="M157-118l58 44" stroke-width="2.0" stroke="#fff5001A"/><path d="M158-207l59-44" stroke-width="2.0" stroke="#005bbb1B"/><path d="M55-104l-45 58" stroke-width="2.0" stroke="#005bbb1B"/><path d="M83-90l-18 73" stroke-width="2.0" stroke="#c2e1ff1C"/><path d="M92-238l-8-75" stroke-width="2.0" stroke="#c2e1ff1D"/><path d="M42-113l-58 49" stroke-width="2.1" stroke="#fff1D"/><path d="M133-93l34 70" stroke-width="2.1" stroke="#fff1E"/><path d="M175-183l74-20" stroke-width="2.1" stroke="#fff5001F"/><path d="M24-177l-76-15" stroke-width="2.1" stroke="#c2e1ff1F"/><path d="M176-131l76 32" stroke-width="2.3" stroke="#fff50024"/><path d="M71-240l-30-77" stroke-width="2.3" stroke="#c2e1ff24"/><path d="M49-96l-51 66" stroke-width="2.3" stroke="#005bbb25"/><path d="M140-88l41 74" stroke-width="2.3" stroke="#c2e1ff26"/><path d="M183-140l82 22" stroke-width="2.4" stroke="#005bbb27"/><path d="M155-229l54-66" stroke-width="2.4" stroke="#fff50028"/><path d="M91-76l-9 86" stroke-width="2.4" stroke="#fff50029"/><path d="M40-226l-59-63" stroke-width="2.5" stroke="#fff29"/><path d="M76-247l-25-85" stroke-width="2.5" stroke="#005bbb2A"/><path d="M42-91l-59 71" stroke-width="2.7" stroke="#fff2F"/><path d="M36-231l-63-68" stroke-width="2.7" stroke="#c2e1ff31"/><path d="M164-231l64-68" stroke-width="2.7" stroke="#fff50031"/><path d="M116-258l15-96" stroke-width="2.9" stroke="#fff50036"/><path d="M176-224l76-61" stroke-width="3.0" stroke="#005bbb37"/><path d="M125-257l25-95" stroke-width="3.0" stroke="#005bbb38"/><path d="M60-73l-39 90" stroke-width="3.0" stroke="#fff50038"/><path d="M6-130l-94 33" stroke-width="3.1" stroke="#005bbb3A"/><path d="M196-133l95 29" stroke-width="3.1" stroke="#005bbb3B"/><path d="M199-145l99 17" stroke-width="3.2" stroke="#fff3C"/><path d="M69-65l-31 98" stroke-width="3.3" stroke="#005bbb40"/><path d="M26-237l-73-75" stroke-width="3.4" stroke="#fff50044"/><path d="M185-224l85-62" stroke-width="3.4" stroke="#fff45"/><path d="M11-220l-88-57" stroke-width="3.5" stroke="#c2e1ff45"/><path d="M200-128l100 35" stroke-width="3.5" stroke="#fff47"/><path d="M48-69l-51 93" stroke-width="3.6" stroke="#c2e1ff48"/><path d="M193-111l94 52" stroke-width="3.6" stroke="#fff50049"/><path d="M8-218l-92-55" stroke-width="3.6" stroke="#005bbb4A"/><path d="M150-66l49 96" stroke-width="3.7" stroke="#fff5004C"/><path d="M181-90l81 72" stroke-width="3.7" stroke="#fff5004C"/><path d="M-8-179l-108-17" stroke-width="3.8" stroke="#c2e1ff4F"/><path d="M127-269l28-107" stroke-width="3.9" stroke="#fff50"/><path d="M204-127l105 35" stroke-width="3.9" stroke="#fff51"/><path d="M187-231l86-68" stroke-width="3.9" stroke="#c2e1ff51"/><path d="M102-273l2-111" stroke-width="3.9" stroke="#c2e1ff52"/><path d="M208-190l107-27" stroke-width="4.0" stroke="#fff53"/><path d="M80-52l-20 110" stroke-width="4.1" stroke="#fff50057"/><path d="M-1-213l-101-50" stroke-width="4.2" stroke="#c2e1ff59"/><path d="M148-265l48-102" stroke-width="4.2" stroke="#c2e1ff5A"/><path d="M-11-136l-111 26" stroke-width="4.3" stroke="#fff5005E"/><path d="M9-94l-92 69" stroke-width="4.4" stroke="#005bbb5F"/><path d="M214-174l114-11" stroke-width="4.4" stroke="#fff50060"/><path d="M185-239l86-76" stroke-width="4.4" stroke="#c2e1ff60"/><path d="M8-231l-92-68" stroke-width="4.4" stroke="#fff50060"/><path d="M148-267l47-105" stroke-width="4.5" stroke="#005bbb62"/><path d="M153-265l54-102" stroke-width="4.5" stroke="#fff64"/><path d="M205-115l106 47" stroke-width="4.5" stroke="#005bbb64"/><path d="M89-48l-11 115" stroke-width="4.5" stroke="#fff50064"/><path d="M90-47l-10 115" stroke-width="4.6" stroke="#c2e1ff65"/><path d="M176-250l76-87" stroke-width="4.6" stroke="#005bbb65"/><path d="M139-271l39-109" stroke-width="4.6" stroke="#fff65"/><path d="M21-78l-78 85" stroke-width="4.6" stroke="#fff50065"/><path d="M71-275l-28-112" stroke-width="4.6" stroke="#005bbb65"/><path d="M105-278l5-116" stroke-width="4.6" stroke="#005bbb65"/><path d="M213-135l112 27" stroke-width="4.6" stroke="#c2e1ff66"/><path d="M50-268l-50-106" stroke-width="4.9" stroke="#fff5006D"/><path d="M194-233l93-70" stroke-width="4.9" stroke="#005bbb6E"/><path d="M4-230l-96-67" stroke-width="4.9" stroke="#c2e1ff6F"/><path d="M213-194l113-32" stroke-width="5.0" stroke="#005bbb70"/><path d="M100-45l0 117" stroke-width="5.0" stroke="#c2e1ff71"/><path d="M92-45l-8 117" stroke-width="5.0" stroke="#c2e1ff71"/><path d="M-10-204l-110-42" stroke-width="5.0" stroke="#005bbb72"/><path d="M158-60l58 102" stroke-width="5.1" stroke="#c2e1ff72"/><path d="M158-265l58-103" stroke-width="5.1" stroke="#005bbb74"/><path d="M49-269l-51-106" stroke-width="5.1" stroke="#fff50075"/><path d="M87-280l-12-117" stroke-width="5.2" stroke="#fff77"/><path d="M120-46l19 116" stroke-width="5.3" stroke="#005bbb7A"/><path d="M215-137l116 25" stroke-width="5.4" stroke="#fff7B"/><path d="M-18-167l-118-4" stroke-width="5.4" stroke="#fff7C"/><path d="M83-279l-17-117" stroke-width="5.5" stroke="#fff7E"/><path d="M193-89l92 73" stroke-width="5.6" stroke="#fff82"/><path d="M159-265l60-102" stroke-width="5.6" stroke="#005bbb82"/><path d="M70-277l-30-114" stroke-width="5.7" stroke="#fff85"/><path d="M162-62l62 100" stroke-width="5.7" stroke="#005bbb85"/><path d="M22-74l-78 88" stroke-width="5.7" stroke="#005bbb86"/><path d="M130-49l31 114" stroke-width="5.8" stroke="#fff50089"/><path d="M175-253l74-91" stroke-width="5.9" stroke="#c2e1ff8B"/><path d="M104-280l5-117" stroke-width="5.9" stroke="#fff8B"/><path d="M14-82l-86 80" stroke-width="6.0" stroke="#c2e1ff8C"/><path d="M-7-211l-107-48" stroke-width="6.0" stroke="#fff5008D"/><path d="M216-181l116-19" stroke-width="6.0" stroke="#fff5008D"/><path d="M16-80l-84 82" stroke-width="6.0" stroke="#c2e1ff8E"/><path d="M210-203l110-40" stroke-width="6.0" stroke="#c2e1ff8F"/><path d="M172-71l73 91" stroke-width="6.2" stroke="#005bbb94"/><path d="M25-251l-76-88" stroke-width="6.3" stroke="#fff50097"/><path d="M204-214l104-51" stroke-width="6.4" stroke="#fff98"/><path d="M137-272l37-110" stroke-width="6.4" stroke="#fff50099"/><path d="M9-92l-92 71" stroke-width="6.4" stroke="#fff50099"/><path d="M1-223l-98-60" stroke-width="6.4" stroke="#fff99"/><path d="M143-269l43-107" stroke-width="6.5" stroke="#fff9B"/><path d="M103-278l3-115" stroke-width="6.5" stroke="#c2e1ff9C"/><path d="M146-57l45 105" stroke-width="6.6" stroke="#fff9E"/><path d="M191-233l90-70" stroke-width="6.6" stroke="#fff5009F"/><path d="M214-173l114-10" stroke-width="6.6" stroke="#005bbb9F"/><path d="M201-109l101 53" stroke-width="6.7" stroke="#c2e1ffA0"/><path d="M174-249l73-87" stroke-width="6.7" stroke="#c2e1ffA1"/><path d="M183-240l82-78" stroke-width="6.8" stroke="#fff500A3"/><path d="M15-88l-86 75" stroke-width="6.8" stroke="#c2e1ffA3"/><path d="M117-51l18 112" stroke-width="6.8" stroke="#c2e1ffA4"/><path d="M78-54l-22 109" stroke-width="7.1" stroke="#c2e1ffAB"/><path d="M-7-187l-107-25" stroke-width="7.2" stroke="#fff500AE"/><path d="M193-217l93-54" stroke-width="7.4" stroke="#c2e1ffB4"/><path d="M75-265l-25-103" stroke-width="7.5" stroke="#fff500B8"/><path d="M157-251l57-89" stroke-width="7.5" stroke="#c2e1ffB9"/><path d="M2-202l-98-39" stroke-width="7.5" stroke="#fff500B9"/><path d="M-2-188l-102-25" stroke-width="7.5" stroke="#fff500B9"/><path d="M9-212l-91-49" stroke-width="7.7" stroke="#005bbbBD"/><path d="M93-60l-8 102" stroke-width="7.7" stroke="#005bbbBE"/><path d="M159-79l60 84" stroke-width="7.7" stroke="#fffBE"/><path d="M70-66l-30 97" stroke-width="7.8" stroke="#005bbbC1"/><path d="M183-220l83-57" stroke-width="7.8" stroke="#005bbbC1"/><path d="M78-260l-21-97" stroke-width="7.9" stroke="#fff500C4"/><path d="M194-195l93-32" stroke-width="8.0" stroke="#fffC4"/><path d="M175-226l75-63" stroke-width="8.0" stroke="#005bbbC6"/><path d="M137-250l37-88" stroke-width="8.2" stroke="#c2e1ffCA"/><path d="M9-135l-91 27" stroke-width="8.2" stroke="#fffCB"/><path d="M118-255l18-93" stroke-width="8.2" stroke="#c2e1ffCC"/><path d="M9-184l-91-21" stroke-width="8.2" stroke="#c2e1ffCD"/><path d="M61-77l-39 85" stroke-width="8.2" stroke="#fff500CD"/><path d="M138-77l39 85" stroke-width="8.2" stroke="#c2e1ffCD"/><path d="M189-133l88 30" stroke-width="8.3" stroke="#005bbbCD"/><path d="M76-75l-24 88" stroke-width="8.4" stroke="#fff500D0"/><path d="M123-75l24 88" stroke-width="8.4" stroke="#005bbbD0"/><path d="M190-162l90 0" stroke-width="8.4" stroke="#fff500D2"/><path d="M68-245l-33-82" stroke-width="8.5" stroke="#005bbbD4"/><path d="M82-246l-19-84" stroke-width="8.6" stroke="#fffD7"/><path d="M145-233l45-71" stroke-width="8.7" stroke="#005bbbD9"/><path d="M92-81l-8 82" stroke-width="8.7" stroke="#fff500DA"/><path d="M54-95l-46 68" stroke-width="8.7" stroke="#fff500DB"/><path d="M97-82l-3 81" stroke-width="8.8" stroke="#005bbbDC"/><path d="M70-236l-31-73" stroke-width="8.8" stroke="#c2e1ffDD"/><path d="M49-112l-51 50" stroke-width="9.1" stroke="#fffE4"/><path d="M140-103l40 59" stroke-width="9.1" stroke="#fffE5"/><path d="M55-108l-46 54" stroke-width="9.1" stroke="#005bbbE5"/><path d="M136-109l36 53" stroke-width="9.3" stroke="#c2e1ffEA"/><path d="M80-218l-20-55" stroke-width="9.4" stroke="#fffEE"/><path d="M141-122l40 41" stroke-width="9.4" stroke="#fff500EE"/><path d="M60-127l-41 35" stroke-width="9.5" stroke="#005bbbF1"/><path d="M83-211l-18-49" stroke-width="9.5" stroke="#c2e1ffF2"/><path d="M128-206l27-43" stroke-width="9.6" stroke="#005bbbF2"/><path d="M51-158l-49 4" stroke-width="9.6" stroke="#005bbbF3"/><path d="M70-129l-29 33" stroke-width="9.7" stroke="#005bbbF5"/><path d="M58-164l-41-1" stroke-width="9.7" stroke="#c2e1ffF6"/><path d="M105-202l5-40" stroke-width="9.7" stroke="#fffF7"/><path d="M112-199l12-36" stroke-width="9.8" stroke="#fffF8"/><path d="M70-158l-29 5" stroke-width="9.9" stroke="#005bbbFA"/><path d="M102-191l2-28" stroke-width="9.9" stroke="#005bbbFB"/><path d="M126-156l26 7" stroke-width="9.9" stroke="#fff500FB"/><path d="M100-150l-1 13" stroke-width="10.0" stroke="#c2e1ffFE"/><path d="M111-169l10-6" stroke-width="10.0" stroke="#fff500FE"/></g></svg>