<svg width="1200" height="675" viewBox="-500 -500 1200 675" xmlns="http://www.w3.org/2000/svg"><path d="M-500-500h1200v675h-1200z" fill="#000"/><style>.sparkles path{stroke-linecap:round}</style><g class="sparkles"><path d="M88-155l-12 8" stroke-width="1.0" stroke="#fff0"/><path d="M99-182l0-19" stroke-width="1.1" stroke="#fff5001"/><path d="M122-152l22 11" stroke-width="1.1" stroke="#005bbb2"/><path d="M128-159l28 3" stroke-width="1.1" stroke="#c2e1ff3"/><path d="M95-134l-5 29" stroke-width="1.1" stroke="#fff5003"/><path d="M143-171l43-8" stroke-width="1.3" stroke="#fff9"/><path d="M144-172l43-10" stroke-width="1.3" stroke="#c2e1ff9"/><path d="M149-149l49 13" stroke-width="1.4" stroke="#fffC"/><path d="M91-110l-8 53" stroke-width="1.5" stroke="#fff500D"/><path d="M71-216l-29-54" stroke-width="1.6" stroke="#005bbb12"/><path d="M42-186l-57-24" stroke-width="1.7" stroke="#c2e1ff13"/><path d="M162-146l63 17" stroke-width="1.7" stroke="#c2e1ff14"/><path d="M35-156l-65 7" stroke-width="1.7" stroke="#fff50015"/><path d="M34-164l-65-1" stroke-width="1.8" stroke="#fff15"/><path d="M52-209l-47-47" stroke-width="1.8" stroke="#fff50016"/><path d="M58-108l-42 54" stroke-width="1.8" stroke="#005bbb17"/><path d="M167-177l68-15" stroke-width="1.8" stroke="#c2e1ff17"/><path d="M76-232l-24-69" stroke-width="2.0" stroke="#c2e1ff1B"/><path d="M34-194l-67-31" stroke-width="2.0" stroke="#fff5001B"/><path d="M23-172l-76-9" stroke-width="2.1" stroke="#c2e1ff1F"/><path d="M27-135l-72 28" stroke-width="2.1" stroke="#c2e1ff1F"/><path d="M82-85l-17 77" stroke-width="2.2" stroke="#fff50020"/><path d="M90-242l-10-79" stroke-width="2.2" stroke="#c2e1ff21"/><path d="M181-162l81 0" stroke-width="2.2" stroke="#c2e1ff22"/><path d="M168-209l67-46" stroke-width="2.3" stroke="#005bbb23"/><path d="M22-132l-78 30" stroke-width="2.3" stroke="#c2e1ff25"/><path d="M145-237l46-74" stroke-width="2.5" stroke="#fff50029"/><path d="M21-124l-78 39" stroke-width="2.5" stroke="#005bbb29"/><path d="M188-141l89 21" stroke-width="2.6" stroke="#005bbb2D"/><path d="M150-241l49-79" stroke-width="2.7" stroke="#fff30"/><path d="M171-99l71 63" stroke-width="2.8" stroke="#fff50033"/><path d="M196-153l95 10" stroke-width="2.9" stroke="#005bbb35"/><path d="M137-253l37-90" stroke-width="3.0" stroke="#c2e1ff37"/><path d="M2-155l-97 7" stroke-width="3.0" stroke="#fff38"/><path d="M176-225l76-63" stroke-width="3.0" stroke="#fff50039"/><path d="M113-262l14-99" stroke-width="3.1" stroke="#fff3B"/><path d="M79-62l-21 101" stroke-width="3.3" stroke="#fff40"/><path d="M0-199l-99-36" stroke-width="3.5" stroke="#c2e1ff47"/><path d="M176-88l76 74" stroke-width="3.5" stroke="#c2e1ff47"/><path d="M115-268l16-106" stroke-width="3.6" stroke="#005bbb48"/><path d="M11-102l-88 60" stroke-width="3.6" stroke="#005bbb49"/><path d="M205-140l105 23" stroke-width="3.6" stroke="#c2e1ff4A"/><path d="M154-68l54 94" stroke-width="3.7" stroke="#fff5004D"/><path d="M207-141l106 22" stroke-width="3.8" stroke="#fff4E"/><path d="M-6-132l-106 30" stroke-width="3.9" stroke="#fff50"/><path d="M189-97l88 65" stroke-width="3.9" stroke="#c2e1ff51"/><path d="M123-55l22 108" stroke-width="3.9" stroke="#fff50051"/><path d="M210-177l109-14" stroke-width="3.9" stroke="#fff50052"/><path d="M177-242l77-80" stroke-width="3.9" stroke="#fff53"/><path d="M211-154l111 8" stroke-width="4.0" stroke="#005bbb55"/><path d="M39-68l-60 94" stroke-width="4.1" stroke="#fff50057"/><path d="M123-52l23 111" stroke-width="4.2" stroke="#005bbb5A"/><path d="M-6-203l-106-40" stroke-width="4.2" stroke="#fff5005B"/><path d="M206-202l107-40" stroke-width="4.3" stroke="#005bbb5C"/><path d="M148-59l49 104" stroke-width="4.4" stroke="#fff5005F"/><path d="M206-207l105-44" stroke-width="4.4" stroke="#fff5005F"/><path d="M111-48l11 114" stroke-width="4.4" stroke="#fff50060"/><path d="M170-253l70-91" stroke-width="4.4" stroke="#fff50060"/><path d="M118-276l17-113" stroke-width="4.4" stroke="#005bbb61"/><path d="M99-47l0 115" stroke-width="4.5" stroke="#fff63"/><path d="M163-259l63-97" stroke-width="4.5" stroke="#c2e1ff63"/><path d="M60-271l-41-108" stroke-width="4.6" stroke="#fff65"/><path d="M42-263l-58-100" stroke-width="4.6" stroke="#fff50065"/><path d="M-2-108l-103 55" stroke-width="4.7" stroke="#fff50068"/><path d="M134-51l35 111" stroke-width="4.7" stroke="#c2e1ff68"/><path d="M-12-193l-113-30" stroke-width="4.8" stroke="#c2e1ff6A"/><path d="M-6-210l-107-48" stroke-width="4.8" stroke="#c2e1ff6A"/><path d="M184-82l85 81" stroke-width="4.8" stroke="#c2e1ff6C"/><path d="M206-213l106-50" stroke-width="4.9" stroke="#c2e1ff6E"/><path d="M12-240l-88-77" stroke-width="4.9" stroke="#fff5006E"/><path d="M177-251l77-88" stroke-width="4.9" stroke="#fff6F"/><path d="M81-47l-19 116" stroke-width="5.0" stroke="#fff50071"/><path d="M212-128l113 35" stroke-width="5.1" stroke="#c2e1ff74"/><path d="M45-59l-55 104" stroke-width="5.1" stroke="#005bbb74"/><path d="M42-265l-58-102" stroke-width="5.1" stroke="#005bbb75"/><path d="M-15-139l-116 23" stroke-width="5.2" stroke="#005bbb75"/><path d="M38-62l-62 100" stroke-width="5.3" stroke="#fff50078"/><path d="M6-233l-95-71" stroke-width="5.4" stroke="#fff5007B"/><path d="M216-185l116-23" stroke-width="5.4" stroke="#c2e1ff7C"/><path d="M217-145l117 17" stroke-width="5.4" stroke="#005bbb7D"/><path d="M201-223l102-61" stroke-width="5.5" stroke="#005bbb7E"/><path d="M-16-184l-116-21" stroke-width="5.5" stroke="#c2e1ff7F"/><path d="M127-47l27 115" stroke-width="5.5" stroke="#005bbb7F"/><path d="M163-62l62 100" stroke-width="5.5" stroke="#fff80"/><path d="M212-125l112 37" stroke-width="5.6" stroke="#fff83"/><path d="M108-45l8 118" stroke-width="5.8" stroke="#fff86"/><path d="M92-45l-8 117" stroke-width="5.9" stroke="#fff8B"/><path d="M40-264l-60-101" stroke-width="6.0" stroke="#fff5008D"/><path d="M217-151l117 11" stroke-width="6.0" stroke="#005bbb8D"/><path d="M114-46l14 116" stroke-width="6.0" stroke="#c2e1ff8E"/><path d="M190-89l91 74" stroke-width="6.2" stroke="#fff50093"/><path d="M215-177l116-15" stroke-width="6.3" stroke="#fff50095"/><path d="M144-55l44 107" stroke-width="6.3" stroke="#c2e1ff96"/><path d="M94-47l-6 116" stroke-width="6.3" stroke="#fff97"/><path d="M210-200l109-38" stroke-width="6.3" stroke="#fff97"/><path d="M193-231l94-69" stroke-width="6.4" stroke="#c2e1ff98"/><path d="M-11-195l-111-32" stroke-width="6.5" stroke="#005bbb9A"/><path d="M104-47l3 115" stroke-width="6.5" stroke="#c2e1ff9B"/><path d="M-11-194l-110-32" stroke-width="6.5" stroke="#fff9C"/><path d="M154-264l54-101" stroke-width="6.6" stroke="#fff9D"/><path d="M81-275l-20-113" stroke-width="6.6" stroke="#fff9F"/><path d="M71-52l-29 111" stroke-width="6.6" stroke="#005bbb9F"/><path d="M24-77l-76 85" stroke-width="6.7" stroke="#fff500A0"/><path d="M53-266l-47-104" stroke-width="6.7" stroke="#fffA0"/><path d="M-3-114l-103 48" stroke-width="6.7" stroke="#fff500A1"/><path d="M15-238l-86-75" stroke-width="6.7" stroke="#fffA2"/><path d="M142-57l41 105" stroke-width="6.8" stroke="#005bbbA3"/><path d="M55-265l-45-103" stroke-width="6.9" stroke="#fffA7"/><path d="M76-272l-24-109" stroke-width="6.9" stroke="#fffA8"/><path d="M2-110l-99 53" stroke-width="7.0" stroke="#fffA8"/><path d="M-8-138l-108 25" stroke-width="7.0" stroke="#fffAB"/><path d="M175-245l74-82" stroke-width="7.1" stroke="#fff500AB"/><path d="M160-255l60-93" stroke-width="7.1" stroke="#fffAB"/><path d="M211-162l110 0" stroke-width="7.1" stroke="#fffAB"/><path d="M52-63l-49 99" stroke-width="7.1" stroke="#fff500AC"/><path d="M148-64l47 99" stroke-width="7.2" stroke="#005bbbAF"/><path d="M9-223l-91-61" stroke-width="7.2" stroke="#fff500AF"/><path d="M209-159l109 3" stroke-width="7.2" stroke="#005bbbB0"/><path d="M207-179l106-17" stroke-width="7.3" stroke="#c2e1ffB3"/><path d="M88-269l-13-107" stroke-width="7.4" stroke="#fffB4"/><path d="M208-159l107 3" stroke-width="7.4" stroke="#c2e1ffB4"/><path d="M205-155l105 7" stroke-width="7.5" stroke="#fffB8"/><path d="M123-265l24-102" stroke-width="7.6" stroke="#005bbbB9"/><path d="M7-117l-94 46" stroke-width="7.6" stroke="#fffBC"/><path d="M126-262l27-100" stroke-width="7.7" stroke="#005bbbBD"/><path d="M68-64l-31 98" stroke-width="7.7" stroke="#005bbbBD"/><path d="M34-242l-66-79" stroke-width="7.7" stroke="#fff500BE"/><path d="M184-222l84-59" stroke-width="7.7" stroke="#c2e1ffBE"/><path d="M-3-159l-102 4" stroke-width="7.7" stroke="#fff500BE"/><path d="M202-156l103 7" stroke-width="7.7" stroke="#fff500BE"/><path d="M0-184l-100-21" stroke-width="7.8" stroke="#fff500BF"/><path d="M45-78l-56 85" stroke-width="7.8" stroke="#fffC0"/><path d="M201-162l101 1" stroke-width="7.8" stroke="#005bbbC1"/><path d="M194-126l94 37" stroke-width="7.9" stroke="#c2e1ffC2"/><path d="M195-190l95-28" stroke-width="8.0" stroke="#c2e1ffC5"/><path d="M26-227l-75-64" stroke-width="8.0" stroke="#fff500C6"/><path d="M8-192l-91-29" stroke-width="8.1" stroke="#fff500C9"/><path d="M168-95l67 68" stroke-width="8.1" stroke="#005bbbCA"/><path d="M144-78l44 84" stroke-width="8.2" stroke="#fffCB"/><path d="M7-180l-92-18" stroke-width="8.2" stroke="#005bbbCC"/><path d="M194-163l94 0" stroke-width="8.2" stroke="#005bbbCC"/><path d="M53-82l-46 81" stroke-width="8.3" stroke="#fff500CD"/><path d="M94-254l-5-91" stroke-width="8.4" stroke="#fff500D0"/><path d="M173-214l74-52" stroke-width="8.4" stroke="#005bbbD2"/><path d="M187-141l86 22" stroke-width="8.4" stroke="#005bbbD2"/><path d="M44-231l-57-69" stroke-width="8.5" stroke="#fff500D3"/><path d="M177-207l77-44" stroke-width="8.5" stroke="#fffD3"/><path d="M151-90l51 73" stroke-width="8.5" stroke="#fffD3"/><path d="M32-218l-69-56" stroke-width="8.5" stroke="#fffD4"/><path d="M168-219l68-56" stroke-width="8.5" stroke="#fffD4"/><path d="M32-108l-68 55" stroke-width="8.5" stroke="#c2e1ffD5"/><path d="M68-82l-32 81" stroke-width="8.5" stroke="#fffD5"/><path d="M60-87l-40 75" stroke-width="8.6" stroke="#c2e1ffD7"/><path d="M106-79l7 84" stroke-width="8.7" stroke="#fff500D9"/><path d="M180-149l81 13" stroke-width="8.8" stroke="#005bbbDB"/><path d="M177-143l78 20" stroke-width="8.8" stroke="#fff500DD"/><path d="M174-186l73-24" stroke-width="8.9" stroke="#fff500DF"/><path d="M31-192l-70-30" stroke-width="9.0" stroke="#fffE1"/><path d="M47-216l-53-53" stroke-width="9.0" stroke="#005bbbE1"/><path d="M158-116l58 46" stroke-width="9.0" stroke="#fffE2"/><path d="M86-235l-14-72" stroke-width="9.0" stroke="#c2e1ffE3"/><path d="M62-102l-38 60" stroke-width="9.1" stroke="#005bbbE5"/><path d="M95-233l-5-70" stroke-width="9.1" stroke="#fffE5"/><path d="M156-201l55-38" stroke-width="9.2" stroke="#fffE8"/><path d="M73-223l-27-60" stroke-width="9.2" stroke="#fff500E9"/><path d="M122-100l23 62" stroke-width="9.2" stroke="#c2e1ffE9"/><path d="M87-99l-14 63" stroke-width="9.3" stroke="#fffEA"/><path d="M69-217l-30-54" stroke-width="9.3" stroke="#c2e1ffEB"/><path d="M69-211l-32-48" stroke-width="9.4" stroke="#fffEE"/><path d="M150-181l51-18" stroke-width="9.5" stroke="#fff500F1"/><path d="M129-205l30-43" stroke-width="9.5" stroke="#fffF2"/><path d="M52-176l-48-14" stroke-width="9.6" stroke="#c2e1ffF3"/><path d="M111-115l12 47" stroke-width="9.6" stroke="#c2e1ffF3"/><path d="M133-197l32-35" stroke-width="9.6" stroke="#005bbbF4"/><path d="M56-181l-44-18" stroke-width="9.6" stroke="#fff500F4"/><path d="M55-152l-44 10" stroke-width="9.6" stroke="#c2e1ffF5"/><path d="M118-197l18-34" stroke-width="9.8" stroke="#c2e1ffF8"/><path d="M88-129l-11 33" stroke-width="9.8" stroke="#fff500F9"/><path d="M76-171l-24-9" stroke-width="9.9" stroke="#fff500FB"/><path d="M77-168l-22-6" stroke-width="9.9" stroke="#005bbbFC"/><path d="M109-152l9 10" stroke-width="10.0" stroke="#c2e1ffFE"/></g></svg>