<svg width="1200" height="675" viewBox="-500 -500 1200 675" xmlns="http://www.w3.org/2000/svg"><path d="M-500-500h1200v675h-1200z" fill="#000"/><style>.sparkles path{stroke-linecap:round}</style><g class="sparkles"><path d="M101-168l0-5" stroke-width="1.0" stroke="#fca3110"/><path d="M94-148l-6 15" stroke-width="1.0" stroke="#14213d1"/><path d="M79-145l-21 18" stroke-width="1.1" stroke="#14213d3"/><path d="M70-150l-30 12" stroke-width="1.2" stroke="#ffffff4"/><path d="M120-198l20-36" stroke-width="1.3" stroke="#1122337"/><path d="M63-208l-38-46" stroke-width="1.6" stroke="#14213d11"/><path d="M60-114l-41 49" stroke-width="1.7" stroke="#14213d13"/><path d="M103-99l3 64" stroke-width="1.7" stroke="#e5e5e514"/><path d="M124-222l25-59" stroke-width="1.7" stroke="#11223314"/><path d="M41-136l-59 26" stroke-width="1.7" stroke="#ffffff14"/><path d="M109-97l8 65" stroke-width="1.8" stroke="#fca31115"/><path d="M34-178l-65-16" stroke-width="1.8" stroke="#e5e5e516"/><path d="M144-107l44 56" stroke-width="1.9" stroke="#14213d19"/><path d="M169-184l68-22" stroke-width="1.9" stroke="#fca3111A"/><path d="M34-201l-67-38" stroke-width="2.1" stroke="#fca3111E"/><path d="M121-88l22 74" stroke-width="2.1" stroke="#ffffff1F"/><path d="M150-103l51 60" stroke-width="2.1" stroke="#14213d20"/><path d="M80-238l-21-76" stroke-width="2.1" stroke="#14213d20"/><path d="M179-148l78 15" stroke-width="2.2" stroke="#fca31121"/><path d="M156-105l56 58" stroke-width="2.2" stroke="#e5e5e522"/><path d="M50-99l-50 64" stroke-width="2.2" stroke="#e5e5e522"/><path d="M182-146l82 17" stroke-width="2.3" stroke="#ffffff25"/><path d="M141-87l41 75" stroke-width="2.4" stroke="#14213d27"/><path d="M176-203l76-40" stroke-width="2.4" stroke="#fca31128"/><path d="M149-236l48-73" stroke-width="2.5" stroke="#14213d2A"/><path d="M32-106l-68 56" stroke-width="2.5" stroke="#fca3112A"/><path d="M184-192l84-29" stroke-width="2.5" stroke="#ffffff2B"/><path d="M53-87l-47 76" stroke-width="2.6" stroke="#fca3112C"/><path d="M18-202l-81-39" stroke-width="2.6" stroke="#e5e5e52D"/><path d="M73-76l-27 86" stroke-width="2.6" stroke="#14213d2D"/><path d="M40-94l-60 68" stroke-width="2.6" stroke="#e5e5e52D"/><path d="M186-194l87-32" stroke-width="2.7" stroke="#1122332F"/><path d="M192-160l93 2" stroke-width="2.7" stroke="#14213d30"/><path d="M8-145l-91 18" stroke-width="2.7" stroke="#e5e5e531"/><path d="M149-244l49-82" stroke-width="2.8" stroke="#11223333"/><path d="M18-215l-81-53" stroke-width="2.9" stroke="#e5e5e537"/><path d="M3-172l-97-10" stroke-width="3.0" stroke="#ffffff37"/><path d="M12-206l-87-43" stroke-width="3.0" stroke="#fca31137"/><path d="M61-73l-39 90" stroke-width="3.0" stroke="#e5e5e538"/><path d="M189-120l88 43" stroke-width="3.0" stroke="#ffffff38"/><path d="M1-159l-99 4" stroke-width="3.0" stroke="#14213d39"/><path d="M98-62l-2 101" stroke-width="3.1" stroke="#14213d3C"/><path d="M6-199l-94-36" stroke-width="3.1" stroke="#e5e5e53C"/><path d="M196-196l97-33" stroke-width="3.2" stroke="#1122333F"/><path d="M180-226l79-64" stroke-width="3.2" stroke="#e5e5e53F"/><path d="M90-58l-10 105" stroke-width="3.4" stroke="#fca31145"/><path d="M97-54l-3 108" stroke-width="3.7" stroke="#fca3114B"/><path d="M197-111l97 52" stroke-width="3.9" stroke="#11223350"/><path d="M127-56l26 107" stroke-width="3.9" stroke="#ffffff50"/><path d="M2-214l-98-51" stroke-width="3.9" stroke="#14213d52"/><path d="M19-239l-81-76" stroke-width="4.0" stroke="#fca31155"/><path d="M6-222l-95-60" stroke-width="4.0" stroke="#fca31155"/><path d="M108-50l9 112" stroke-width="4.1" stroke="#ffffff58"/><path d="M212-141l111 21" stroke-width="4.3" stroke="#1122335C"/><path d="M148-266l47-104" stroke-width="4.3" stroke="#1122335E"/><path d="M51-266l-48-103" stroke-width="4.3" stroke="#ffffff5E"/><path d="M200-218l99-56" stroke-width="4.4" stroke="#fca3115F"/><path d="M200-105l99 57" stroke-width="4.4" stroke="#11223361"/><path d="M6-229l-93-67" stroke-width="4.5" stroke="#ffffff62"/><path d="M132-273l32-111" stroke-width="4.5" stroke="#14213d63"/><path d="M125-275l25-113" stroke-width="4.6" stroke="#e5e5e564"/><path d="M171-254l71-91" stroke-width="4.6" stroke="#14213d66"/><path d="M-14-138l-114 25" stroke-width="4.7" stroke="#fca3116A"/><path d="M201-220l102-57" stroke-width="4.8" stroke="#ffffff6A"/><path d="M102-46l1 117" stroke-width="4.8" stroke="#1122336B"/><path d="M26-73l-75 90" stroke-width="4.8" stroke="#14213d6B"/><path d="M165-65l64 97" stroke-width="4.8" stroke="#14213d6C"/><path d="M43-265l-56-102" stroke-width="4.9" stroke="#ffffff6D"/><path d="M1-225l-99-63" stroke-width="4.9" stroke="#e5e5e56F"/><path d="M-5-215l-105-52" stroke-width="5.0" stroke="#14213d70"/><path d="M152-268l53-105" stroke-width="5.0" stroke="#11223371"/><path d="M5-94l-96 69" stroke-width="5.1" stroke="#ffffff73"/><path d="M90-45l-10 117" stroke-width="5.2" stroke="#fca31175"/><path d="M25-253l-76-91" stroke-width="5.2" stroke="#e5e5e578"/><path d="M78-278l-21-116" stroke-width="5.3" stroke="#ffffff78"/><path d="M40-61l-61 101" stroke-width="5.3" stroke="#1122337A"/><path d="M-3-220l-103-58" stroke-width="5.4" stroke="#ffffff7B"/><path d="M123-278l22-116" stroke-width="5.4" stroke="#ffffff7B"/><path d="M20-75l-79 87" stroke-width="5.4" stroke="#ffffff7C"/><path d="M217-150l118 12" stroke-width="5.4" stroke="#e5e5e57D"/><path d="M17-79l-84 84" stroke-width="5.4" stroke="#e5e5e57D"/><path d="M186-244l85-81" stroke-width="5.5" stroke="#1122337E"/><path d="M0-225l-101-62" stroke-width="5.7" stroke="#ffffff85"/><path d="M-16-139l-115 23" stroke-width="5.7" stroke="#e5e5e585"/><path d="M106-45l6 118" stroke-width="5.7" stroke="#14213d86"/><path d="M23-252l-76-90" stroke-width="5.8" stroke="#14213d87"/><path d="M197-230l97-67" stroke-width="5.8" stroke="#11223387"/><path d="M73-277l-27-115" stroke-width="5.9" stroke="#fca3118A"/><path d="M155-59l55 104" stroke-width="5.9" stroke="#e5e5e58B"/><path d="M111-280l10-117" stroke-width="5.9" stroke="#14213d8C"/><path d="M-16-143l-116 20" stroke-width="5.9" stroke="#e5e5e58C"/><path d="M20-249l-79-86" stroke-width="6.0" stroke="#14213d8D"/><path d="M31-67l-69 95" stroke-width="6.0" stroke="#14213d8D"/><path d="M43-265l-56-103" stroke-width="6.1" stroke="#e5e5e590"/><path d="M217-162l117 0" stroke-width="6.2" stroke="#e5e5e591"/><path d="M141-53l41 109" stroke-width="6.2" stroke="#14213d94"/><path d="M126-276l26-113" stroke-width="6.3" stroke="#e5e5e596"/><path d="M152-266l53-104" stroke-width="6.3" stroke="#fca31196"/><path d="M216-164l116-2" stroke-width="6.3" stroke="#ffffff97"/><path d="M74-50l-27 113" stroke-width="6.4" stroke="#fca31197"/><path d="M5-229l-94-67" stroke-width="6.4" stroke="#14213d97"/><path d="M66-52l-34 111" stroke-width="6.4" stroke="#fca31198"/><path d="M121-49l21 114" stroke-width="6.4" stroke="#e5e5e598"/><path d="M-8-205l-107-43" stroke-width="6.4" stroke="#fca31198"/><path d="M65-271l-35-108" stroke-width="6.7" stroke="#e5e5e5A0"/><path d="M154-263l54-100" stroke-width="6.7" stroke="#ffffffA1"/><path d="M144-58l44 105" stroke-width="6.7" stroke="#e5e5e5A1"/><path d="M146-266l46-104" stroke-width="6.8" stroke="#e5e5e5A3"/><path d="M-12-148l-112 15" stroke-width="6.8" stroke="#112233A4"/><path d="M-8-131l-109 32" stroke-width="6.8" stroke="#14213dA5"/><path d="M110-275l9-112" stroke-width="6.8" stroke="#14213dA5"/><path d="M206-200l105-37" stroke-width="6.9" stroke="#e5e5e5A7"/><path d="M-11-158l-112 5" stroke-width="7.0" stroke="#112233A9"/><path d="M90-52l-10 110" stroke-width="7.1" stroke="#112233AB"/><path d="M197-215l97-52" stroke-width="7.1" stroke="#112233AD"/><path d="M144-62l45 100" stroke-width="7.2" stroke="#14213dAE"/><path d="M102-272l3-109" stroke-width="7.2" stroke="#fca311AF"/><path d="M200-205l100-42" stroke-width="7.3" stroke="#ffffffB1"/><path d="M-7-177l-107-15" stroke-width="7.3" stroke="#112233B2"/><path d="M67-265l-34-102" stroke-width="7.4" stroke="#fca311B4"/><path d="M92-56l-7 107" stroke-width="7.4" stroke="#e5e5e5B5"/><path d="M23-237l-77-74" stroke-width="7.4" stroke="#112233B5"/><path d="M68-264l-33-102" stroke-width="7.4" stroke="#14213dB5"/><path d="M127-60l27 102" stroke-width="7.5" stroke="#ffffffB8"/><path d="M22-93l-77 69" stroke-width="7.6" stroke="#112233BC"/><path d="M149-73l49 90" stroke-width="7.7" stroke="#112233BE"/><path d="M98-60l-2 102" stroke-width="7.7" stroke="#14213dBE"/><path d="M169-87l69 76" stroke-width="7.7" stroke="#ffffffBF"/><path d="M50-252l-49-89" stroke-width="7.8" stroke="#14213dBF"/><path d="M102-60l2 102" stroke-width="7.8" stroke="#14213dBF"/><path d="M161-244l62-81" stroke-width="7.8" stroke="#e5e5e5C0"/><path d="M139-256l38-93" stroke-width="7.8" stroke="#fca311C1"/><path d="M0-148l-99 15" stroke-width="7.8" stroke="#112233C1"/><path d="M175-95l75 67" stroke-width="7.9" stroke="#fca311C2"/><path d="M127-259l26-97" stroke-width="7.9" stroke="#ffffffC2"/><path d="M159-242l59-79" stroke-width="8.0" stroke="#e5e5e5C5"/><path d="M65-70l-35 92" stroke-width="8.0" stroke="#112233C5"/><path d="M53-77l-47 85" stroke-width="8.1" stroke="#112233C7"/><path d="M9-129l-91 34" stroke-width="8.1" stroke="#14213dC7"/><path d="M12-199l-88-37" stroke-width="8.2" stroke="#fca311CA"/><path d="M174-103l75 59" stroke-width="8.2" stroke="#ffffffCA"/><path d="M73-71l-28 91" stroke-width="8.2" stroke="#fca311CB"/><path d="M191-138l91 24" stroke-width="8.2" stroke="#112233CC"/><path d="M172-104l72 58" stroke-width="8.3" stroke="#fca311CE"/><path d="M153-237l53-74" stroke-width="8.4" stroke="#14213dD0"/><path d="M52-238l-48-75" stroke-width="8.5" stroke="#112233D3"/><path d="M150-89l49 74" stroke-width="8.5" stroke="#112233D3"/><path d="M179-197l78-35" stroke-width="8.6" stroke="#ffffffD6"/><path d="M178-192l77-30" stroke-width="8.7" stroke="#112233DA"/><path d="M149-228l49-66" stroke-width="8.7" stroke="#112233DB"/><path d="M169-204l68-42" stroke-width="8.8" stroke="#14213dDC"/><path d="M87-242l-14-79" stroke-width="8.8" stroke="#fca311DD"/><path d="M47-222l-52-59" stroke-width="8.8" stroke="#ffffffDE"/><path d="M48-107l-51 56" stroke-width="8.9" stroke="#ffffffE1"/><path d="M175-171l76-9" stroke-width="9.0" stroke="#14213dE1"/><path d="M173-167l74-4" stroke-width="9.0" stroke="#112233E3"/><path d="M104-234l3-72" stroke-width="9.1" stroke="#e5e5e5E4"/><path d="M72-228l-28-65" stroke-width="9.1" stroke="#14213dE5"/><path d="M91-233l-8-70" stroke-width="9.1" stroke="#ffffffE5"/><path d="M31-156l-70 7" stroke-width="9.1" stroke="#112233E6"/><path d="M32-177l-67-15" stroke-width="9.1" stroke="#fca311E6"/><path d="M38-139l-61 23" stroke-width="9.2" stroke="#14213dE9"/><path d="M165-169l65-7" stroke-width="9.3" stroke="#14213dE9"/><path d="M100-227l0-64" stroke-width="9.3" stroke="#ffffffEA"/><path d="M110-226l10-63" stroke-width="9.3" stroke="#14213dEA"/><path d="M149-202l48-40" stroke-width="9.3" stroke="#fca311EB"/><path d="M90-101l-11 62" stroke-width="9.3" stroke="#fca311EB"/><path d="M121-221l22-58" stroke-width="9.3" stroke="#fca311EB"/><path d="M99-224l-1-62" stroke-width="9.3" stroke="#14213dEC"/><path d="M117-217l18-54" stroke-width="9.4" stroke="#e5e5e5EF"/><path d="M76-115l-24 47" stroke-width="9.5" stroke="#fca311F1"/><path d="M129-120l30 43" stroke-width="9.5" stroke="#e5e5e5F2"/><path d="M54-141l-47 22" stroke-width="9.6" stroke="#e5e5e5F2"/><path d="M146-146l46 17" stroke-width="9.6" stroke="#14213dF3"/><path d="M55-174l-45-11" stroke-width="9.6" stroke="#ffffffF4"/><path d="M144-152l45 11" stroke-width="9.7" stroke="#ffffffF5"/><path d="M113-125l14 37" stroke-width="9.7" stroke="#e5e5e5F7"/><path d="M68-158l-33 5" stroke-width="9.8" stroke="#e5e5e5FA"/><path d="M124-142l24 21" stroke-width="9.8" stroke="#fca311FA"/><path d="M74-145l-26 17" stroke-width="9.8" stroke="#ffffffFA"/><path d="M113-183l14-21" stroke-width="9.9" stroke="#fca311FC"/></g></svg>