<svg width="1200" height="675" viewBox="-500 -500 1200 675" xmlns="http://www.w3.org/2000/svg"><path d="M-500-500h1200v675h-1200z" fill="#000"/><style>.sparkles path{stroke-linecap:round}</style><g class="sparkles"><path d="M106-152l5 11" stroke-width="1.0" stroke="#fff5000"/><path d="M117-157l16 6" stroke-width="1.0" stroke="#fff5001"/><path d="M76-155l-24 7" stroke-width="1.1" stroke="#fff2"/><path d="M120-178l20-15" stroke-width="1.1" stroke="#005bbb2"/><path d="M106-132l6 30" stroke-width="1.2" stroke="#005bbb4"/><path d="M142-175l42-12" stroke-width="1.3" stroke="#fff5009"/><path d="M147-157l47 6" stroke-width="1.4" stroke="#005bbbA"/><path d="M100-212l1-50" stroke-width="1.4" stroke="#fffB"/><path d="M64-123l-37 39" stroke-width="1.5" stroke="#005bbbD"/><path d="M139-199l38-37" stroke-width="1.5" stroke="#fffD"/><path d="M86-216l-15-53" stroke-width="1.5" stroke="#005bbbE"/><path d="M137-119l38 43" stroke-width="1.6" stroke="#fffF"/><path d="M114-103l15 59" stroke-width="1.6" stroke="#fff50012"/><path d="M137-212l37-50" stroke-width="1.7" stroke="#fff50012"/><path d="M101-100l1 62" stroke-width="1.7" stroke="#fff50013"/><path d="M39-143l-61 20" stroke-width="1.7" stroke="#c2e1ff14"/><path d="M163-151l64 11" stroke-width="1.7" stroke="#fff50014"/><path d="M99-230l-1-67" stroke-width="1.8" stroke="#fff16"/><path d="M157-124l57 38" stroke-width="1.8" stroke="#005bbb17"/><path d="M170-164l71-1" stroke-width="1.9" stroke="#c2e1ff19"/><path d="M106-234l6-71" stroke-width="1.9" stroke="#fff50019"/><path d="M162-124l62 38" stroke-width="2.0" stroke="#fff1B"/><path d="M50-219l-49-56" stroke-width="2.0" stroke="#005bbb1D"/><path d="M70-232l-31-70" stroke-width="2.1" stroke="#005bbb1D"/><path d="M57-226l-44-64" stroke-width="2.1" stroke="#c2e1ff1E"/><path d="M52-223l-48-60" stroke-width="2.1" stroke="#c2e1ff1E"/><path d="M164-113l64 49" stroke-width="2.2" stroke="#005bbb22"/><path d="M164-112l64 50" stroke-width="2.2" stroke="#005bbb23"/><path d="M44-99l-56 63" stroke-width="2.4" stroke="#c2e1ff26"/><path d="M97-75l-4 87" stroke-width="2.5" stroke="#005bbb29"/><path d="M28-111l-72 52" stroke-width="2.5" stroke="#c2e1ff2B"/><path d="M84-74l-16 88" stroke-width="2.6" stroke="#005bbb2C"/><path d="M148-238l49-76" stroke-width="2.6" stroke="#fff5002C"/><path d="M97-252l-3-90" stroke-width="2.6" stroke="#c2e1ff2C"/><path d="M56-241l-44-79" stroke-width="2.6" stroke="#005bbb2D"/><path d="M154-90l54 73" stroke-width="2.6" stroke="#c2e1ff2D"/><path d="M156-235l57-72" stroke-width="2.7" stroke="#fff2F"/><path d="M192-169l92-6" stroke-width="2.7" stroke="#005bbb2F"/><path d="M113-70l14 92" stroke-width="2.7" stroke="#fff50030"/><path d="M57-80l-43 83" stroke-width="2.7" stroke="#fff31"/><path d="M15-204l-84-42" stroke-width="2.8" stroke="#005bbb32"/><path d="M124-254l25-92" stroke-width="2.8" stroke="#fff50033"/><path d="M5-150l-96 13" stroke-width="2.9" stroke="#c2e1ff35"/><path d="M82-260l-18-97" stroke-width="3.0" stroke="#fff39"/><path d="M111-261l11-98" stroke-width="3.0" stroke="#005bbb3A"/><path d="M184-110l84 53" stroke-width="3.1" stroke="#005bbb3A"/><path d="M119-260l19-98" stroke-width="3.1" stroke="#005bbb3A"/><path d="M171-233l71-71" stroke-width="3.1" stroke="#fff5003B"/><path d="M101-61l1 101" stroke-width="3.2" stroke="#fff5003D"/><path d="M145-70l45 93" stroke-width="3.3" stroke="#005bbb41"/><path d="M-4-169l-105-7" stroke-width="3.4" stroke="#c2e1ff44"/><path d="M177-91l77 71" stroke-width="3.4" stroke="#005bbb44"/><path d="M103-267l2-105" stroke-width="3.4" stroke="#fff50044"/><path d="M0-131l-100 32" stroke-width="3.4" stroke="#c2e1ff44"/><path d="M87-267l-14-104" stroke-width="3.4" stroke="#005bbb45"/><path d="M58-260l-41-97" stroke-width="3.5" stroke="#c2e1ff47"/><path d="M49-256l-50-93" stroke-width="3.5" stroke="#005bbb47"/><path d="M157-71l56 92" stroke-width="3.7" stroke="#fff5004B"/><path d="M206-182l107-20" stroke-width="3.7" stroke="#fff4C"/><path d="M-6-189l-106-26" stroke-width="3.8" stroke="#fff4E"/><path d="M-8-142l-107 21" stroke-width="3.8" stroke="#fff5004F"/><path d="M54-63l-45 100" stroke-width="3.8" stroke="#005bbb50"/><path d="M204-127l104 35" stroke-width="3.9" stroke="#005bbb50"/><path d="M57-61l-43 101" stroke-width="3.9" stroke="#fff50051"/><path d="M21-85l-79 77" stroke-width="3.9" stroke="#005bbb51"/><path d="M-6-131l-106 31" stroke-width="3.9" stroke="#fff50052"/><path d="M32-250l-68-88" stroke-width="4.0" stroke="#fff50053"/><path d="M-4-122l-104 40" stroke-width="4.0" stroke="#c2e1ff54"/><path d="M92-274l-8-111" stroke-width="4.0" stroke="#fff55"/><path d="M125-271l25-109" stroke-width="4.0" stroke="#c2e1ff55"/><path d="M145-265l44-102" stroke-width="4.0" stroke="#fff56"/><path d="M195-222l95-60" stroke-width="4.1" stroke="#fff50057"/><path d="M-12-157l-112 5" stroke-width="4.1" stroke="#005bbb57"/><path d="M197-219l97-57" stroke-width="4.1" stroke="#fff50057"/><path d="M212-176l112-13" stroke-width="4.1" stroke="#fff50058"/><path d="M133-54l32 108" stroke-width="4.2" stroke="#fff5A"/><path d="M2-219l-98-56" stroke-width="4.2" stroke="#fff5005A"/><path d="M19-242l-80-79" stroke-width="4.2" stroke="#fff5005B"/><path d="M-12-143l-113 19" stroke-width="4.3" stroke="#fff5005E"/><path d="M-5-116l-104 46" stroke-width="4.4" stroke="#fff5F"/><path d="M1-221l-99-59" stroke-width="4.5" stroke="#c2e1ff63"/><path d="M215-174l116-11" stroke-width="4.6" stroke="#c2e1ff66"/><path d="M107-278l7-116" stroke-width="4.7" stroke="#c2e1ff67"/><path d="M216-169l116-6" stroke-width="4.7" stroke="#005bbb69"/><path d="M-1-221l-101-58" stroke-width="4.8" stroke="#c2e1ff6B"/><path d="M215-182l115-20" stroke-width="4.8" stroke="#fff5006B"/><path d="M-14-190l-113-27" stroke-width="4.9" stroke="#005bbb6D"/><path d="M-16-177l-116-15" stroke-width="4.9" stroke="#005bbb6F"/><path d="M202-103l101 59" stroke-width="5.1" stroke="#c2e1ff73"/><path d="M-18-162l-118 0" stroke-width="5.2" stroke="#005bbb76"/><path d="M-4-107l-104 55" stroke-width="5.3" stroke="#c2e1ff79"/><path d="M172-256l71-94" stroke-width="5.4" stroke="#fff7B"/><path d="M143-52l42 110" stroke-width="5.4" stroke="#fff5007D"/><path d="M206-111l106 52" stroke-width="5.5" stroke="#005bbb7E"/><path d="M173-255l73-93" stroke-width="5.5" stroke="#c2e1ff7F"/><path d="M217-143l116 19" stroke-width="5.6" stroke="#fff50082"/><path d="M155-267l55-105" stroke-width="5.6" stroke="#fff50083"/><path d="M-17-178l-117-16" stroke-width="5.8" stroke="#fff87"/><path d="M-17-174l-118-11" stroke-width="5.8" stroke="#fff87"/><path d="M173-255l73-93" stroke-width="5.8" stroke="#fff88"/><path d="M-9-119l-110 44" stroke-width="5.8" stroke="#005bbb89"/><path d="M-17-178l-116-15" stroke-width="5.9" stroke="#fff5008B"/><path d="M137-274l38-111" stroke-width="6.0" stroke="#005bbb8D"/><path d="M-15-188l-114-26" stroke-width="6.0" stroke="#c2e1ff8D"/><path d="M158-60l57 102" stroke-width="6.1" stroke="#fff8F"/><path d="M5-231l-95-69" stroke-width="6.1" stroke="#fff50090"/><path d="M-16-153l-117 9" stroke-width="6.2" stroke="#c2e1ff92"/><path d="M109-278l9-115" stroke-width="6.4" stroke="#fff50098"/><path d="M181-80l81 82" stroke-width="6.4" stroke="#005bbb99"/><path d="M214-183l113-20" stroke-width="6.5" stroke="#fff9A"/><path d="M68-273l-33-111" stroke-width="6.5" stroke="#fff5009B"/><path d="M115-277l15-114" stroke-width="6.5" stroke="#c2e1ff9B"/><path d="M67-52l-33 110" stroke-width="6.5" stroke="#005bbb9B"/><path d="M-6-118l-107 44" stroke-width="6.5" stroke="#c2e1ff9C"/><path d="M159-261l59-99" stroke-width="6.5" stroke="#005bbb9C"/><path d="M104-278l4-115" stroke-width="6.5" stroke="#005bbb9C"/><path d="M156-63l55 100" stroke-width="6.7" stroke="#fff500A0"/><path d="M214-162l113 0" stroke-width="6.7" stroke="#c2e1ffA2"/><path d="M213-156l113 7" stroke-width="6.8" stroke="#fff500A4"/><path d="M16-237l-85-75" stroke-width="6.8" stroke="#005bbbA5"/><path d="M74-272l-25-110" stroke-width="6.9" stroke="#fffA5"/><path d="M-6-126l-106 36" stroke-width="6.9" stroke="#fff500A8"/><path d="M60-266l-40-104" stroke-width="7.0" stroke="#c2e1ffAB"/><path d="M164-253l63-91" stroke-width="7.1" stroke="#fffAB"/><path d="M86-53l-14 110" stroke-width="7.1" stroke="#fffAC"/><path d="M-8-142l-109 20" stroke-width="7.1" stroke="#fffAD"/><path d="M203-197l103-34" stroke-width="7.3" stroke="#005bbbB1"/><path d="M94-271l-6-108" stroke-width="7.3" stroke="#005bbbB2"/><path d="M49-258l-50-95" stroke-width="7.4" stroke="#fffB4"/><path d="M142-65l43 97" stroke-width="7.5" stroke="#fff500B7"/><path d="M8-215l-92-52" stroke-width="7.5" stroke="#fff500B7"/><path d="M204-146l105 17" stroke-width="7.5" stroke="#fffB8"/><path d="M189-220l88-58" stroke-width="7.5" stroke="#005bbbB8"/><path d="M145-67l45 96" stroke-width="7.5" stroke="#c2e1ffB8"/><path d="M0-130l-101 33" stroke-width="7.5" stroke="#005bbbB8"/><path d="M179-233l78-70" stroke-width="7.5" stroke="#005bbbB8"/><path d="M182-229l81-67" stroke-width="7.5" stroke="#005bbbB9"/><path d="M5-206l-95-44" stroke-width="7.6" stroke="#fffBA"/><path d="M77-61l-23 101" stroke-width="7.6" stroke="#fffBC"/><path d="M25-233l-75-70" stroke-width="7.7" stroke="#fff500BE"/><path d="M202-159l102 3" stroke-width="7.8" stroke="#fff500BF"/><path d="M83-63l-17 100" stroke-width="7.8" stroke="#005bbbC1"/><path d="M44-245l-56-82" stroke-width="7.9" stroke="#fffC4"/><path d="M1-156l-99 6" stroke-width="7.9" stroke="#c2e1ffC4"/><path d="M193-195l93-33" stroke-width="8.0" stroke="#005bbbC5"/><path d="M54-75l-45 87" stroke-width="8.0" stroke="#c2e1ffC5"/><path d="M71-68l-29 94" stroke-width="8.0" stroke="#005bbbC5"/><path d="M2-163l-98 0" stroke-width="8.0" stroke="#fffC6"/><path d="M65-254l-35-91" stroke-width="8.0" stroke="#005bbbC7"/><path d="M56-76l-44 87" stroke-width="8.0" stroke="#fff500C7"/><path d="M9-189l-91-26" stroke-width="8.2" stroke="#005bbbCB"/><path d="M188-192l89-30" stroke-width="8.3" stroke="#005bbbCD"/><path d="M90-255l-9-93" stroke-width="8.3" stroke="#fff500CD"/><path d="M155-235l55-72" stroke-width="8.4" stroke="#005bbbD0"/><path d="M181-122l80 41" stroke-width="8.4" stroke="#005bbbD1"/><path d="M189-172l89-9" stroke-width="8.4" stroke="#c2e1ffD2"/><path d="M79-249l-21-86" stroke-width="8.5" stroke="#005bbbD3"/><path d="M46-231l-54-68" stroke-width="8.5" stroke="#fff500D5"/><path d="M165-105l66 57" stroke-width="8.6" stroke="#005bbbD6"/><path d="M99-248l-1-85" stroke-width="8.6" stroke="#fff500D7"/><path d="M166-216l65-54" stroke-width="8.6" stroke="#005bbbD8"/><path d="M40-104l-60 58" stroke-width="8.7" stroke="#fff500D9"/><path d="M177-129l76 33" stroke-width="8.7" stroke="#c2e1ffD9"/><path d="M117-85l17 78" stroke-width="8.8" stroke="#005bbbDD"/><path d="M85-240l-14-78" stroke-width="8.8" stroke="#c2e1ffDE"/><path d="M162-121l62 42" stroke-width="9.0" stroke="#005bbbE2"/><path d="M59-224l-41-62" stroke-width="9.0" stroke="#fff500E2"/><path d="M108-236l8-73" stroke-width="9.0" stroke="#005bbbE3"/><path d="M36-127l-65 35" stroke-width="9.0" stroke="#fffE3"/><path d="M164-131l64 31" stroke-width="9.1" stroke="#fffE5"/><path d="M33-138l-66 24" stroke-width="9.1" stroke="#fff500E5"/><path d="M158-193l58-31" stroke-width="9.2" stroke="#fffE9"/><path d="M146-124l46 38" stroke-width="9.4" stroke="#005bbbED"/><path d="M133-118l34 45" stroke-width="9.5" stroke="#c2e1ffEF"/><path d="M118-115l18 47" stroke-width="9.6" stroke="#c2e1ffF2"/><path d="M66-199l-34-36" stroke-width="9.6" stroke="#005bbbF3"/><path d="M56-178l-44-15" stroke-width="9.6" stroke="#fff500F4"/><path d="M141-156l41 6" stroke-width="9.7" stroke="#005bbbF6"/><path d="M138-171l39-8" stroke-width="9.7" stroke="#c2e1ffF7"/><path d="M121-181l22-19" stroke-width="9.9" stroke="#fff500FB"/><path d="M106-190l5-27" stroke-width="9.9" stroke="#fffFB"/></g></svg>