<svg width="1200" height="675" viewBox="-500 -500 1200 675" xmlns="http://www.w3.org/2000/svg"><path d="M-500-500h1200v675h-1200z" fill="#000"/><style>.sparkles path{stroke-linecap:round}</style><g class="sparkles"><path d="M110-169l10-7" stroke-width="1.0" stroke="#fff0"/><path d="M116-173l17-11" stroke-width="1.1" stroke="#fff5001"/><path d="M116-145l17 17" stroke-width="1.1" stroke="#005bbb2"/><path d="M118-142l18 20" stroke-width="1.1" stroke="#005bbb3"/><path d="M123-147l23 15" stroke-width="1.1" stroke="#c2e1ff3"/><path d="M120-143l21 19" stroke-width="1.1" stroke="#fff3"/><path d="M60-156l-41 6" stroke-width="1.3" stroke="#fff5007"/><path d="M67-138l-32 25" stroke-width="1.3" stroke="#fff7"/><path d="M118-124l18 39" stroke-width="1.3" stroke="#c2e1ff8"/><path d="M137-190l36-28" stroke-width="1.4" stroke="#fff500A"/><path d="M130-125l31 37" stroke-width="1.4" stroke="#c2e1ffB"/><path d="M145-143l44 19" stroke-width="1.4" stroke="#c2e1ffB"/><path d="M62-125l-37 38" stroke-width="1.5" stroke="#c2e1ffD"/><path d="M155-175l56-13" stroke-width="1.6" stroke="#005bbbF"/><path d="M141-123l42 39" stroke-width="1.6" stroke="#005bbbF"/><path d="M108-104l8 59" stroke-width="1.6" stroke="#c2e1ff11"/><path d="M45-189l-56-27" stroke-width="1.7" stroke="#fff12"/><path d="M102-100l2 62" stroke-width="1.7" stroke="#c2e1ff13"/><path d="M38-146l-61 17" stroke-width="1.7" stroke="#005bbb14"/><path d="M35-155l-64 7" stroke-width="1.7" stroke="#fff50015"/><path d="M65-219l-35-56" stroke-width="1.8" stroke="#fff15"/><path d="M160-194l59-31" stroke-width="1.8" stroke="#005bbb16"/><path d="M82-93l-17 69" stroke-width="1.9" stroke="#005bbb19"/><path d="M120-231l20-69" stroke-width="1.9" stroke="#fff1A"/><path d="M172-176l72-13" stroke-width="2.0" stroke="#fff5001B"/><path d="M53-221l-47-59" stroke-width="2.0" stroke="#005bbb1D"/><path d="M168-201l68-39" stroke-width="2.1" stroke="#005bbb20"/><path d="M133-90l34 73" stroke-width="2.2" stroke="#005bbb21"/><path d="M64-90l-35 72" stroke-width="2.2" stroke="#005bbb22"/><path d="M48-226l-52-63" stroke-width="2.3" stroke="#005bbb23"/><path d="M31-208l-69-45" stroke-width="2.3" stroke="#fff50024"/><path d="M22-131l-78 32" stroke-width="2.3" stroke="#005bbb25"/><path d="M59-87l-40 75" stroke-width="2.4" stroke="#005bbb27"/><path d="M14-157l-86 6" stroke-width="2.4" stroke="#fff28"/><path d="M103-76l4 87" stroke-width="2.4" stroke="#005bbb28"/><path d="M92-249l-8-87" stroke-width="2.5" stroke="#c2e1ff29"/><path d="M30-111l-71 52" stroke-width="2.5" stroke="#fff29"/><path d="M138-241l39-79" stroke-width="2.5" stroke="#005bbb29"/><path d="M95-74l-4 88" stroke-width="2.5" stroke="#fff5002A"/><path d="M113-75l12 88" stroke-width="2.5" stroke="#005bbb2B"/><path d="M15-193l-84-30" stroke-width="2.6" stroke="#c2e1ff2C"/><path d="M186-200l85-37" stroke-width="2.7" stroke="#fff31"/><path d="M128-71l28 91" stroke-width="2.8" stroke="#fff34"/><path d="M182-109l81 53" stroke-width="2.9" stroke="#005bbb37"/><path d="M125-257l24-94" stroke-width="2.9" stroke="#c2e1ff37"/><path d="M1-163l-99 0" stroke-width="3.0" stroke="#fff39"/><path d="M162-241l61-78" stroke-width="3.1" stroke="#fff5003A"/><path d="M100-263l0-100" stroke-width="3.1" stroke="#c2e1ff3C"/><path d="M42-80l-58 83" stroke-width="3.2" stroke="#fff3D"/><path d="M192-206l93-43" stroke-width="3.2" stroke="#fff5003E"/><path d="M65-66l-35 97" stroke-width="3.3" stroke="#005bbb41"/><path d="M197-198l98-36" stroke-width="3.3" stroke="#c2e1ff42"/><path d="M136-260l36-97" stroke-width="3.4" stroke="#005bbb42"/><path d="M36-78l-64 84" stroke-width="3.5" stroke="#005bbb46"/><path d="M-1-196l-101-33" stroke-width="3.5" stroke="#fff47"/><path d="M197-117l98 45" stroke-width="3.6" stroke="#c2e1ff4A"/><path d="M-2-121l-102 41" stroke-width="3.9" stroke="#005bbb51"/><path d="M146-264l45-101" stroke-width="4.0" stroke="#fff50053"/><path d="M65-57l-35 106" stroke-width="4.0" stroke="#fff50054"/><path d="M-11-150l-110 13" stroke-width="4.0" stroke="#c2e1ff55"/><path d="M159-259l58-96" stroke-width="4.2" stroke="#fff50059"/><path d="M192-229l91-67" stroke-width="4.2" stroke="#fff5005B"/><path d="M162-67l62 95" stroke-width="4.2" stroke="#005bbb5B"/><path d="M208-125l107 37" stroke-width="4.3" stroke="#fff5005D"/><path d="M95-48l-5 114" stroke-width="4.3" stroke="#005bbb5E"/><path d="M123-50l22 112" stroke-width="4.4" stroke="#c2e1ff5F"/><path d="M-14-164l-115-1" stroke-width="4.4" stroke="#fff5F"/><path d="M-14-148l-114 14" stroke-width="4.4" stroke="#005bbb61"/><path d="M-15-165l-116-2" stroke-width="4.5" stroke="#005bbb64"/><path d="M-15-155l-116 7" stroke-width="4.6" stroke="#fff50065"/><path d="M120-277l20-114" stroke-width="4.6" stroke="#fff66"/><path d="M2-224l-98-62" stroke-width="4.6" stroke="#fff50066"/><path d="M81-277l-18-115" stroke-width="4.7" stroke="#fff50069"/><path d="M25-252l-74-90" stroke-width="4.8" stroke="#fff5006A"/><path d="M-8-117l-107 46" stroke-width="4.9" stroke="#fff6D"/><path d="M192-234l93-72" stroke-width="4.9" stroke="#fff6E"/><path d="M27-71l-74 91" stroke-width="4.9" stroke="#005bbb6E"/><path d="M216-179l116-16" stroke-width="5.0" stroke="#c2e1ff70"/><path d="M8-90l-93 73" stroke-width="5.1" stroke="#fff74"/><path d="M210-120l110 43" stroke-width="5.1" stroke="#005bbb75"/><path d="M210-204l110-42" stroke-width="5.2" stroke="#fff75"/><path d="M-5-215l-106-53" stroke-width="5.2" stroke="#fff50076"/><path d="M184-79l83 83" stroke-width="5.3" stroke="#005bbb78"/><path d="M185-244l86-81" stroke-width="5.3" stroke="#fff50079"/><path d="M40-264l-59-102" stroke-width="5.5" stroke="#fff7E"/><path d="M12-242l-87-79" stroke-width="5.5" stroke="#005bbb7E"/><path d="M192-88l92 74" stroke-width="5.5" stroke="#005bbb80"/><path d="M71-48l-28 115" stroke-width="5.6" stroke="#c2e1ff81"/><path d="M41-265l-59-102" stroke-width="5.7" stroke="#c2e1ff84"/><path d="M145-53l45 109" stroke-width="5.8" stroke="#fff50086"/><path d="M-18-157l-117 5" stroke-width="5.8" stroke="#c2e1ff88"/><path d="M140-52l40 111" stroke-width="5.9" stroke="#c2e1ff8A"/><path d="M217-157l118 5" stroke-width="5.9" stroke="#fff5008C"/><path d="M88-279l-13-117" stroke-width="6.0" stroke="#005bbb8C"/><path d="M183-246l83-83" stroke-width="6.0" stroke="#fff5008C"/><path d="M196-231l95-68" stroke-width="6.0" stroke="#c2e1ff8C"/><path d="M45-266l-54-104" stroke-width="6.0" stroke="#fff8D"/><path d="M25-72l-75 90" stroke-width="6.0" stroke="#005bbb8D"/><path d="M181-78l82 85" stroke-width="6.0" stroke="#005bbb8D"/><path d="M25-73l-74 90" stroke-width="6.2" stroke="#fff92"/><path d="M50-268l-50-105" stroke-width="6.3" stroke="#005bbb94"/><path d="M71-275l-29-113" stroke-width="6.3" stroke="#fff94"/><path d="M-8-118l-108 44" stroke-width="6.3" stroke="#005bbb94"/><path d="M178-76l78 86" stroke-width="6.3" stroke="#005bbb96"/><path d="M141-54l42 108" stroke-width="6.3" stroke="#005bbb96"/><path d="M73-275l-26-113" stroke-width="6.3" stroke="#fff97"/><path d="M207-119l108 44" stroke-width="6.4" stroke="#fff50098"/><path d="M81-48l-19 114" stroke-width="6.4" stroke="#c2e1ff98"/><path d="M-5-114l-104 48" stroke-width="6.5" stroke="#fff5009C"/><path d="M50-60l-50 102" stroke-width="6.7" stroke="#fff500A0"/><path d="M139-56l39 106" stroke-width="6.8" stroke="#fff500A3"/><path d="M20-83l-80 80" stroke-width="6.8" stroke="#fffA5"/><path d="M15-88l-84 74" stroke-width="6.9" stroke="#fffA6"/><path d="M105-274l5-112" stroke-width="6.9" stroke="#c2e1ffA8"/><path d="M211-164l112-2" stroke-width="7.0" stroke="#005bbbA9"/><path d="M5-221l-94-59" stroke-width="7.0" stroke="#fffAA"/><path d="M180-240l79-78" stroke-width="7.0" stroke="#c2e1ffAA"/><path d="M9-102l-91 61" stroke-width="7.2" stroke="#fffAF"/><path d="M3-213l-97-50" stroke-width="7.2" stroke="#005bbbAF"/><path d="M73-268l-28-106" stroke-width="7.2" stroke="#005bbbB0"/><path d="M133-59l33 103" stroke-width="7.3" stroke="#c2e1ffB1"/><path d="M41-254l-59-91" stroke-width="7.3" stroke="#005bbbB1"/><path d="M207-176l108-13" stroke-width="7.3" stroke="#fff500B2"/><path d="M-7-162l-107 0" stroke-width="7.4" stroke="#fff500B5"/><path d="M207-160l107 3" stroke-width="7.4" stroke="#fff500B5"/><path d="M9-107l-90 56" stroke-width="7.4" stroke="#005bbbB6"/><path d="M114-57l14 105" stroke-width="7.5" stroke="#fffB7"/><path d="M115-268l15-105" stroke-width="7.5" stroke="#c2e1ffB7"/><path d="M148-257l49-94" stroke-width="7.5" stroke="#fffB7"/><path d="M91-267l-9-105" stroke-width="7.6" stroke="#fff500B9"/><path d="M74-264l-26-102" stroke-width="7.6" stroke="#c2e1ffBA"/><path d="M50-254l-51-91" stroke-width="7.6" stroke="#fff500BB"/><path d="M31-85l-70 77" stroke-width="7.6" stroke="#fff500BC"/><path d="M58-257l-42-94" stroke-width="7.7" stroke="#fffBD"/><path d="M138-257l38-95" stroke-width="7.8" stroke="#005bbbBF"/><path d="M200-157l100 5" stroke-width="7.9" stroke="#c2e1ffC2"/><path d="M71-258l-29-96" stroke-width="7.9" stroke="#005bbbC3"/><path d="M163-85l63 78" stroke-width="7.9" stroke="#fff500C3"/><path d="M157-245l56-82" stroke-width="7.9" stroke="#fff500C3"/><path d="M2-164l-98-2" stroke-width="8.0" stroke="#fffC6"/><path d="M37-89l-64 74" stroke-width="8.1" stroke="#c2e1ffC8"/><path d="M39-88l-62 75" stroke-width="8.1" stroke="#005bbbC8"/><path d="M195-148l96 15" stroke-width="8.1" stroke="#fffC8"/><path d="M58-78l-43 84" stroke-width="8.2" stroke="#005bbbCB"/><path d="M155-87l54 76" stroke-width="8.3" stroke="#fff500CD"/><path d="M10-142l-91 21" stroke-width="8.3" stroke="#c2e1ffCE"/><path d="M8-175l-92-12" stroke-width="8.3" stroke="#c2e1ffCE"/><path d="M127-74l27 89" stroke-width="8.3" stroke="#fffCE"/><path d="M168-100l68 62" stroke-width="8.3" stroke="#fffCF"/><path d="M164-99l64 63" stroke-width="8.4" stroke="#005bbbD2"/><path d="M185-171l85-8" stroke-width="8.6" stroke="#fff500D7"/><path d="M180-182l81-19" stroke-width="8.7" stroke="#fffDA"/><path d="M168-118l68 44" stroke-width="8.8" stroke="#fffDC"/><path d="M158-109l59 54" stroke-width="8.8" stroke="#c2e1ffDD"/><path d="M72-237l-27-75" stroke-width="8.8" stroke="#fff500DD"/><path d="M25-149l-74 14" stroke-width="8.9" stroke="#005bbbE1"/><path d="M161-207l62-44" stroke-width="9.0" stroke="#fffE1"/><path d="M173-179l73-17" stroke-width="9.0" stroke="#005bbbE2"/><path d="M33-129l-66 33" stroke-width="9.0" stroke="#fffE2"/><path d="M144-220l43-57" stroke-width="9.1" stroke="#c2e1ffE4"/><path d="M163-131l63 31" stroke-width="9.1" stroke="#c2e1ffE6"/><path d="M162-131l63 31" stroke-width="9.1" stroke="#fff500E6"/><path d="M36-136l-65 26" stroke-width="9.1" stroke="#fff500E6"/><path d="M58-217l-42-55" stroke-width="9.2" stroke="#fffE7"/><path d="M73-225l-28-63" stroke-width="9.2" stroke="#fff500E7"/><path d="M61-111l-38 52" stroke-width="9.3" stroke="#fff500EA"/><path d="M120-223l19-61" stroke-width="9.3" stroke="#c2e1ffEA"/><path d="M40-183l-59-20" stroke-width="9.3" stroke="#c2e1ffEB"/><path d="M151-162l51 0" stroke-width="9.6" stroke="#c2e1ffF2"/><path d="M149-156l50 7" stroke-width="9.6" stroke="#c2e1ffF3"/><path d="M103-114l2 49" stroke-width="9.6" stroke="#c2e1ffF3"/><path d="M53-149l-46 14" stroke-width="9.6" stroke="#fff500F3"/><path d="M136-140l36 22" stroke-width="9.7" stroke="#fffF6"/><path d="M59-169l-42-6" stroke-width="9.7" stroke="#005bbbF6"/><path d="M73-131l-27 31" stroke-width="9.7" stroke="#fff500F6"/><path d="M121-129l21 33" stroke-width="9.7" stroke="#005bbbF7"/><path d="M103-202l4-39" stroke-width="9.7" stroke="#c2e1ffF7"/><path d="M137-151l38 11" stroke-width="9.7" stroke="#005bbbF7"/><path d="M126-182l25-19" stroke-width="9.8" stroke="#fffFA"/><path d="M91-147l-8 16" stroke-width="9.9" stroke="#fffFD"/><path d="M98-145l-3 17" stroke-width="9.9" stroke="#fff500FD"/></g></svg>