<svg width="1200" height="675" viewBox="-500 -500 1200 675" xmlns="http://www.w3.org/2000/svg"><path d="M-500-500h1200v675h-1200z" fill="#000"/><style>.sparkles path{stroke-linecap:round}</style><g class="sparkles"><path d="M101-156l1 7" stroke-width="1.0" stroke="#eae2b70"/><path d="M87-171l-12-8" stroke-width="1.0" stroke="#fcbf491"/><path d="M98-125l-3 38" stroke-width="1.2" stroke="#f77f006"/><path d="M136-139l35 24" stroke-width="1.3" stroke="#d628288"/><path d="M86-208l-13-45" stroke-width="1.4" stroke="#f77f00A"/><path d="M142-191l42-29" stroke-width="1.4" stroke="#003049C"/><path d="M100-215l1-53" stroke-width="1.5" stroke="#eae2b7D"/><path d="M41-145l-59 17" stroke-width="1.7" stroke="#fcbf4912"/><path d="M145-120l44 43" stroke-width="1.7" stroke="#d6282812"/><path d="M58-116l-43 47" stroke-width="1.7" stroke="#d6282813"/><path d="M148-205l48-42" stroke-width="1.7" stroke="#eae2b714"/><path d="M34-154l-66 9" stroke-width="1.8" stroke="#eae2b716"/><path d="M54-219l-46-57" stroke-width="2.0" stroke="#0030491B"/><path d="M150-218l49-56" stroke-width="2.0" stroke="#0030491C"/><path d="M160-117l60 45" stroke-width="2.0" stroke="#eae2b71C"/><path d="M25-178l-76-15" stroke-width="2.1" stroke="#0030491E"/><path d="M166-202l66-39" stroke-width="2.1" stroke="#f77f001E"/><path d="M127-238l26-75" stroke-width="2.2" stroke="#f77f0021"/><path d="M83-241l-17-79" stroke-width="2.2" stroke="#fcbf4922"/><path d="M22-181l-79-19" stroke-width="2.2" stroke="#00304922"/><path d="M44-104l-57 58" stroke-width="2.2" stroke="#fcbf4922"/><path d="M24-194l-76-31" stroke-width="2.3" stroke="#00304923"/><path d="M55-92l-44 70" stroke-width="2.3" stroke="#d6282825"/><path d="M61-236l-40-74" stroke-width="2.3" stroke="#d6282825"/><path d="M132-84l32 79" stroke-width="2.4" stroke="#f77f0026"/><path d="M185-171l84-8" stroke-width="2.4" stroke="#f77f0026"/><path d="M15-151l-85 12" stroke-width="2.4" stroke="#00304927"/><path d="M182-133l82 29" stroke-width="2.5" stroke="#f77f0029"/><path d="M48-93l-53 70" stroke-width="2.5" stroke="#eae2b729"/><path d="M105-250l5-87" stroke-width="2.5" stroke="#f77f0029"/><path d="M182-197l81-35" stroke-width="2.5" stroke="#eae2b72B"/><path d="M115-75l15 88" stroke-width="2.5" stroke="#0030492B"/><path d="M174-111l74 51" stroke-width="2.6" stroke="#0030492C"/><path d="M8-173l-91-11" stroke-width="2.7" stroke="#d628282F"/><path d="M191-145l91 18" stroke-width="2.7" stroke="#eae2b730"/><path d="M34-229l-66-67" stroke-width="2.8" stroke="#eae2b731"/><path d="M194-162l94 0" stroke-width="2.8" stroke="#f77f0032"/><path d="M59-77l-41 85" stroke-width="2.8" stroke="#00304933"/><path d="M13-202l-86-40" stroke-width="2.8" stroke="#d6282834"/><path d="M191-126l91 36" stroke-width="3.0" stroke="#00304937"/><path d="M200-172l100-9" stroke-width="3.1" stroke="#f77f003C"/><path d="M4-191l-97-29" stroke-width="3.1" stroke="#d628283C"/><path d="M9-118l-91 45" stroke-width="3.2" stroke="#fcbf493D"/><path d="M135-65l34 98" stroke-width="3.3" stroke="#fcbf4942"/><path d="M102-59l2 104" stroke-width="3.4" stroke="#00304942"/><path d="M46-252l-53-90" stroke-width="3.4" stroke="#00304943"/><path d="M182-97l82 65" stroke-width="3.4" stroke="#eae2b744"/><path d="M1-197l-98-35" stroke-width="3.4" stroke="#eae2b744"/><path d="M179-92l79 70" stroke-width="3.5" stroke="#f77f0046"/><path d="M120-267l20-105" stroke-width="3.6" stroke="#eae2b748"/><path d="M15-96l-85 67" stroke-width="3.7" stroke="#fcbf494B"/><path d="M103-54l3 109" stroke-width="3.8" stroke="#eae2b74E"/><path d="M96-273l-4-110" stroke-width="3.9" stroke="#00304951"/><path d="M122-271l21-108" stroke-width="3.9" stroke="#d6282852"/><path d="M209-189l108-26" stroke-width="4.0" stroke="#eae2b755"/><path d="M206-196l107-34" stroke-width="4.0" stroke="#fcbf4956"/><path d="M27-247l-73-85" stroke-width="4.1" stroke="#d6282856"/><path d="M-9-138l-109 25" stroke-width="4.1" stroke="#d6282856"/><path d="M35-255l-65-92" stroke-width="4.1" stroke="#eae2b759"/><path d="M6-226l-93-63" stroke-width="4.2" stroke="#fcbf495A"/><path d="M205-207l105-45" stroke-width="4.3" stroke="#fcbf495E"/><path d="M114-49l15 113" stroke-width="4.4" stroke="#fcbf495F"/><path d="M32-255l-68-92" stroke-width="4.4" stroke="#d6282861"/><path d="M9-93l-92 69" stroke-width="4.4" stroke="#d6282861"/><path d="M72-274l-28-111" stroke-width="4.4" stroke="#00304961"/><path d="M46-264l-54-102" stroke-width="4.5" stroke="#00304963"/><path d="M125-50l26 113" stroke-width="4.6" stroke="#f77f0065"/><path d="M94-47l-7 116" stroke-width="4.6" stroke="#fcbf4966"/><path d="M213-188l113-25" stroke-width="4.6" stroke="#f77f0066"/><path d="M205-212l105-50" stroke-width="4.7" stroke="#fcbf4969"/><path d="M170-69l70 93" stroke-width="4.7" stroke="#fcbf4969"/><path d="M159-62l58 101" stroke-width="4.8" stroke="#f77f006B"/><path d="M18-79l-83 83" stroke-width="4.9" stroke="#d628286E"/><path d="M215-186l115-23" stroke-width="5.0" stroke="#fcbf4971"/><path d="M-4-108l-104 55" stroke-width="5.1" stroke="#fcbf4972"/><path d="M17-246l-83-83" stroke-width="5.1" stroke="#f77f0073"/><path d="M51-270l-48-107" stroke-width="5.1" stroke="#fcbf4974"/><path d="M-14-192l-114-29" stroke-width="5.1" stroke="#00304974"/><path d="M109-45l9 117" stroke-width="5.1" stroke="#fcbf4975"/><path d="M31-258l-69-95" stroke-width="5.2" stroke="#d6282875"/><path d="M203-105l103 58" stroke-width="5.3" stroke="#00304978"/><path d="M14-244l-85-81" stroke-width="5.3" stroke="#0030497A"/><path d="M181-77l81 86" stroke-width="5.4" stroke="#d628287D"/><path d="M218-151l117 12" stroke-width="5.5" stroke="#0030497F"/><path d="M168-259l68-97" stroke-width="5.5" stroke="#eae2b780"/><path d="M192-237l92-74" stroke-width="5.5" stroke="#fcbf4980"/><path d="M-12-201l-111-39" stroke-width="5.6" stroke="#d6282881"/><path d="M198-229l97-66" stroke-width="5.6" stroke="#00304982"/><path d="M100-44l0 118" stroke-width="5.6" stroke="#00304983"/><path d="M192-88l91 75" stroke-width="5.7" stroke="#eae2b784"/><path d="M51-270l-49-107" stroke-width="5.8" stroke="#00304988"/><path d="M171-69l71 94" stroke-width="5.8" stroke="#eae2b788"/><path d="M81-279l-19-116" stroke-width="5.9" stroke="#eae2b78B"/><path d="M151-57l51 105" stroke-width="6.2" stroke="#d6282893"/><path d="M22-77l-79 86" stroke-width="6.3" stroke="#d6282897"/><path d="M202-108l102 54" stroke-width="6.4" stroke="#f77f0099"/><path d="M20-246l-80-83" stroke-width="6.4" stroke="#fcbf4999"/><path d="M11-89l-89 73" stroke-width="6.5" stroke="#eae2b79B"/><path d="M34-68l-67 94" stroke-width="6.5" stroke="#eae2b79B"/><path d="M1-103l-98 59" stroke-width="6.5" stroke="#fcbf499C"/><path d="M190-233l90-70" stroke-width="6.6" stroke="#fcbf499F"/><path d="M92-276l-7-113" stroke-width="6.8" stroke="#f77f00A3"/><path d="M51-61l-48 101" stroke-width="6.9" stroke="#eae2b7A7"/><path d="M205-203l104-40" stroke-width="6.9" stroke="#fcbf49A7"/><path d="M33-252l-67-90" stroke-width="6.9" stroke="#f77f00A8"/><path d="M69-268l-30-106" stroke-width="7.1" stroke="#003049AD"/><path d="M-9-148l-109 14" stroke-width="7.1" stroke="#003049AD"/><path d="M195-218l94-56" stroke-width="7.2" stroke="#eae2b7AE"/><path d="M22-85l-78 77" stroke-width="7.2" stroke="#f77f00AF"/><path d="M22-87l-79 76" stroke-width="7.2" stroke="#d62828B0"/><path d="M101-54l0 108" stroke-width="7.3" stroke="#fcbf49B3"/><path d="M146-260l46-97" stroke-width="7.4" stroke="#f77f00B4"/><path d="M24-88l-75 75" stroke-width="7.5" stroke="#003049B7"/><path d="M186-103l86 60" stroke-width="7.6" stroke="#f77f00BA"/><path d="M70-63l-30 99" stroke-width="7.7" stroke="#fcbf49BC"/><path d="M37-245l-62-82" stroke-width="7.7" stroke="#003049BC"/><path d="M144-256l44-93" stroke-width="7.7" stroke="#eae2b7BD"/><path d="M100-60l-1 103" stroke-width="7.7" stroke="#003049BE"/><path d="M201-180l101-17" stroke-width="7.7" stroke="#d62828BE"/><path d="M55-71l-45 92" stroke-width="7.8" stroke="#d62828BF"/><path d="M2-188l-98-25" stroke-width="7.8" stroke="#f77f00C1"/><path d="M37-241l-64-78" stroke-width="7.8" stroke="#f77f00C1"/><path d="M42-81l-58 82" stroke-width="7.9" stroke="#fcbf49C2"/><path d="M84-64l-16 98" stroke-width="7.9" stroke="#eae2b7C3"/><path d="M1-158l-99 5" stroke-width="8.0" stroke="#d62828C4"/><path d="M153-79l54 83" stroke-width="8.0" stroke="#f77f00C5"/><path d="M198-156l99 7" stroke-width="8.0" stroke="#eae2b7C5"/><path d="M173-97l72 66" stroke-width="8.0" stroke="#f77f00C6"/><path d="M57-250l-42-87" stroke-width="8.1" stroke="#003049C7"/><path d="M37-90l-63 73" stroke-width="8.1" stroke="#fcbf49C9"/><path d="M186-120l86 42" stroke-width="8.1" stroke="#eae2b7C9"/><path d="M196-169l95-6" stroke-width="8.1" stroke="#f77f00CA"/><path d="M13-199l-88-37" stroke-width="8.2" stroke="#003049CB"/><path d="M13-198l-88-35" stroke-width="8.2" stroke="#eae2b7CC"/><path d="M34-96l-66 66" stroke-width="8.3" stroke="#d62828CD"/><path d="M151-241l50-78" stroke-width="8.3" stroke="#eae2b7CD"/><path d="M115-254l15-92" stroke-width="8.3" stroke="#d62828CD"/><path d="M192-174l93-11" stroke-width="8.3" stroke="#eae2b7CE"/><path d="M174-108l73 55" stroke-width="8.3" stroke="#fcbf49CF"/><path d="M18-124l-82 38" stroke-width="8.4" stroke="#003049D1"/><path d="M164-226l64-64" stroke-width="8.4" stroke="#003049D1"/><path d="M119-74l20 88" stroke-width="8.4" stroke="#003049D1"/><path d="M158-96l57 67" stroke-width="8.5" stroke="#003049D4"/><path d="M120-246l20-84" stroke-width="8.6" stroke="#003049D7"/><path d="M24-200l-76-37" stroke-width="8.6" stroke="#003049D8"/><path d="M24-198l-76-36" stroke-width="8.7" stroke="#fcbf49D9"/><path d="M135-86l34 76" stroke-width="8.7" stroke="#003049D9"/><path d="M94-82l-5 80" stroke-width="8.8" stroke="#fcbf49DC"/><path d="M174-192l73-30" stroke-width="8.8" stroke="#003049DD"/><path d="M21-169l-79-6" stroke-width="8.8" stroke="#d62828DE"/><path d="M65-94l-34 69" stroke-width="8.9" stroke="#eae2b7E0"/><path d="M63-225l-38-63" stroke-width="9.0" stroke="#003049E3"/><path d="M103-229l4-67" stroke-width="9.2" stroke="#eae2b7E8"/><path d="M99-96l-1 67" stroke-width="9.2" stroke="#d62828E8"/><path d="M165-150l66 13" stroke-width="9.2" stroke="#f77f00E8"/><path d="M40-133l-59 29" stroke-width="9.2" stroke="#d62828E8"/><path d="M165-171l66-8" stroke-width="9.2" stroke="#003049E9"/><path d="M104-97l4 65" stroke-width="9.3" stroke="#003049E9"/><path d="M137-110l36 53" stroke-width="9.3" stroke="#fcbf49EA"/><path d="M94-226l-7-64" stroke-width="9.3" stroke="#d62828EA"/><path d="M36-162l-64 1" stroke-width="9.3" stroke="#fcbf49EA"/><path d="M158-187l58-25" stroke-width="9.3" stroke="#f77f00EB"/><path d="M101-103l1 59" stroke-width="9.4" stroke="#f77f00ED"/><path d="M50-194l-49-32" stroke-width="9.4" stroke="#fcbf49EE"/><path d="M68-208l-32-46" stroke-width="9.5" stroke="#003049EF"/><path d="M134-119l33 44" stroke-width="9.5" stroke="#eae2b7F0"/><path d="M100-216l-1-54" stroke-width="9.5" stroke="#d62828F1"/><path d="M76-116l-25 47" stroke-width="9.5" stroke="#eae2b7F1"/><path d="M65-196l-35-34" stroke-width="9.6" stroke="#d62828F3"/><path d="M58-144l-42 19" stroke-width="9.6" stroke="#f77f00F4"/><path d="M91-207l-9-44" stroke-width="9.7" stroke="#eae2b7F5"/><path d="M103-206l3-43" stroke-width="9.7" stroke="#d62828F6"/><path d="M72-131l-28 31" stroke-width="9.7" stroke="#003049F6"/><path d="M130-192l30-29" stroke-width="9.7" stroke="#003049F6"/><path d="M83-128l-18 35" stroke-width="9.8" stroke="#f77f00F7"/><path d="M126-135l25 28" stroke-width="9.8" stroke="#f77f00F8"/><path d="M130-150l30 13" stroke-width="9.8" stroke="#f77f00FA"/><path d="M132-163l32-1" stroke-width="9.8" stroke="#f77f00FA"/><path d="M120-141l19 21" stroke-width="9.9" stroke="#fcbf49FB"/><path d="M126-159l26 4" stroke-width="9.9" stroke="#fcbf49FB"/><path d="M109-163l10 0" stroke-width="10.0" stroke="#f77f00FE"/></g></svg>