<svg width="1200" height="675" viewBox="-500 -500 1200 675" xmlns="http://www.w3.org/2000/svg"><path d="M-500-500h1200v675h-1200z" fill="#000"/><style>.sparkles path{stroke-linecap:round}</style><g class="sparkles"><path d="M103-173l3-11" stroke-width="1.0" stroke="#c2e1ff0"/><path d="M129-142l29 21" stroke-width="1.2" stroke="#fff5005"/><path d="M80-127l-19 36" stroke-width="1.3" stroke="#fff5007"/><path d="M68-197l-33-34" stroke-width="1.4" stroke="#fffA"/><path d="M84-117l-15 46" stroke-width="1.4" stroke="#c2e1ffB"/><path d="M157-170l57-7" stroke-width="1.6" stroke="#fff10"/><path d="M58-123l-42 39" stroke-width="1.6" stroke="#005bbb10"/><path d="M42-169l-58-7" stroke-width="1.6" stroke="#fff10"/><path d="M133-210l34-48" stroke-width="1.6" stroke="#005bbb10"/><path d="M155-141l56 22" stroke-width="1.6" stroke="#fff11"/><path d="M135-113l35 49" stroke-width="1.6" stroke="#005bbb11"/><path d="M159-144l58 19" stroke-width="1.7" stroke="#c2e1ff12"/><path d="M38-157l-61 5" stroke-width="1.7" stroke="#fff50012"/><path d="M119-223l19-61" stroke-width="1.7" stroke="#005bbb13"/><path d="M57-212l-43-50" stroke-width="1.8" stroke="#005bbb15"/><path d="M68-223l-33-61" stroke-width="1.8" stroke="#fff50018"/><path d="M36-129l-64 33" stroke-width="1.9" stroke="#c2e1ff1A"/><path d="M100-235l0-72" stroke-width="1.9" stroke="#fff5001A"/><path d="M28-168l-73-5" stroke-width="1.9" stroke="#c2e1ff1A"/><path d="M74-232l-26-69" stroke-width="2.0" stroke="#c2e1ff1C"/><path d="M139-227l40-64" stroke-width="2.0" stroke="#c2e1ff1D"/><path d="M69-233l-31-71" stroke-width="2.1" stroke="#fff5001F"/><path d="M178-160l78 2" stroke-width="2.1" stroke="#fff1F"/><path d="M179-163l78 0" stroke-width="2.1" stroke="#005bbb20"/><path d="M22-177l-77-15" stroke-width="2.2" stroke="#005bbb20"/><path d="M179-148l80 15" stroke-width="2.2" stroke="#fff22"/><path d="M20-144l-80 18" stroke-width="2.3" stroke="#fff50023"/><path d="M53-95l-47 67" stroke-width="2.3" stroke="#fff23"/><path d="M166-113l65 50" stroke-width="2.3" stroke="#fff24"/><path d="M178-205l79-43" stroke-width="2.6" stroke="#005bbb2C"/><path d="M168-221l67-59" stroke-width="2.6" stroke="#fff2C"/><path d="M104-252l3-90" stroke-width="2.6" stroke="#fff2C"/><path d="M141-82l41 80" stroke-width="2.6" stroke="#c2e1ff2D"/><path d="M8-150l-91 12" stroke-width="2.7" stroke="#005bbb30"/><path d="M179-113l79 49" stroke-width="2.7" stroke="#fff31"/><path d="M122-257l22-95" stroke-width="2.9" stroke="#fff50037"/><path d="M13-207l-87-45" stroke-width="3.0" stroke="#fff50037"/><path d="M190-124l90 39" stroke-width="3.0" stroke="#005bbb38"/><path d="M55-251l-44-89" stroke-width="3.1" stroke="#005bbb3A"/><path d="M9-203l-92-40" stroke-width="3.1" stroke="#005bbb3B"/><path d="M11-211l-90-48" stroke-width="3.2" stroke="#005bbb3E"/><path d="M181-230l81-67" stroke-width="3.5" stroke="#fff45"/><path d="M174-238l75-75" stroke-width="3.5" stroke="#c2e1ff46"/><path d="M153-71l54 91" stroke-width="3.5" stroke="#fff46"/><path d="M11-101l-89 62" stroke-width="3.7" stroke="#fff5004B"/><path d="M198-209l99-46" stroke-width="3.7" stroke="#fff4D"/><path d="M179-237l79-75" stroke-width="3.8" stroke="#fff4E"/><path d="M209-178l109-16" stroke-width="3.9" stroke="#c2e1ff51"/><path d="M188-95l87 67" stroke-width="3.9" stroke="#005bbb52"/><path d="M178-241l78-79" stroke-width="3.9" stroke="#fff50053"/><path d="M7-223l-94-61" stroke-width="4.0" stroke="#fff50055"/><path d="M178-81l77 82" stroke-width="4.2" stroke="#c2e1ff59"/><path d="M206-201l107-38" stroke-width="4.2" stroke="#c2e1ff5A"/><path d="M213-167l113-4" stroke-width="4.2" stroke="#fff5005A"/><path d="M140-56l41 106" stroke-width="4.3" stroke="#005bbb5C"/><path d="M13-90l-88 73" stroke-width="4.3" stroke="#fff5005C"/><path d="M210-191l111-28" stroke-width="4.3" stroke="#fff5005D"/><path d="M112-276l11-114" stroke-width="4.4" stroke="#fff5005F"/><path d="M102-48l2 115" stroke-width="4.4" stroke="#c2e1ff61"/><path d="M182-82l82 80" stroke-width="4.5" stroke="#fff50061"/><path d="M204-112l103 51" stroke-width="4.5" stroke="#fff50063"/><path d="M-2-217l-102-54" stroke-width="4.5" stroke="#fff50064"/><path d="M-14-181l-114-18" stroke-width="4.6" stroke="#c2e1ff64"/><path d="M128-275l27-112" stroke-width="4.6" stroke="#fff65"/><path d="M149-267l50-105" stroke-width="4.6" stroke="#fff67"/><path d="M171-71l71 92" stroke-width="4.6" stroke="#fff50067"/><path d="M145-55l44 107" stroke-width="4.7" stroke="#fff50069"/><path d="M198-225l98-63" stroke-width="4.8" stroke="#fff6B"/><path d="M185-243l84-80" stroke-width="4.8" stroke="#c2e1ff6B"/><path d="M213-190l114-28" stroke-width="4.8" stroke="#005bbb6B"/><path d="M142-53l42 109" stroke-width="4.9" stroke="#fff6D"/><path d="M-11-124l-111 39" stroke-width="5.0" stroke="#c2e1ff72"/><path d="M53-55l-46 108" stroke-width="5.0" stroke="#fff72"/><path d="M70-49l-31 114" stroke-width="5.1" stroke="#c2e1ff74"/><path d="M24-73l-77 90" stroke-width="5.1" stroke="#c2e1ff75"/><path d="M121-279l20-116" stroke-width="5.2" stroke="#fff50077"/><path d="M209-118l109 45" stroke-width="5.3" stroke="#c2e1ff79"/><path d="M198-228l98-66" stroke-width="5.3" stroke="#fff5007B"/><path d="M-17-149l-118 13" stroke-width="5.4" stroke="#fff7B"/><path d="M88-45l-11 118" stroke-width="5.4" stroke="#c2e1ff7C"/><path d="M71-277l-28-115" stroke-width="5.4" stroke="#fff5007D"/><path d="M160-264l59-102" stroke-width="5.5" stroke="#fff7E"/><path d="M78-279l-22-116" stroke-width="5.6" stroke="#fff50081"/><path d="M181-77l81 86" stroke-width="5.6" stroke="#fff83"/><path d="M40-264l-60-102" stroke-width="5.7" stroke="#fff84"/><path d="M211-123l111 40" stroke-width="5.7" stroke="#c2e1ff86"/><path d="M-15-190l-114-27" stroke-width="5.7" stroke="#fff86"/><path d="M-7-113l-107 50" stroke-width="5.7" stroke="#005bbb86"/><path d="M159-60l58 102" stroke-width="5.8" stroke="#fff50088"/><path d="M26-71l-73 92" stroke-width="5.9" stroke="#c2e1ff89"/><path d="M63-51l-38 112" stroke-width="5.9" stroke="#fff8A"/><path d="M184-245l84-83" stroke-width="5.9" stroke="#c2e1ff8B"/><path d="M-13-131l-113 31" stroke-width="6.0" stroke="#fff5008C"/><path d="M41-264l-58-102" stroke-width="6.0" stroke="#fff8D"/><path d="M208-207l109-45" stroke-width="6.0" stroke="#c2e1ff8E"/><path d="M74-48l-26 114" stroke-width="6.0" stroke="#005bbb8E"/><path d="M191-237l90-74" stroke-width="6.1" stroke="#c2e1ff90"/><path d="M87-278l-13-116" stroke-width="6.2" stroke="#fff50093"/><path d="M209-122l110 40" stroke-width="6.3" stroke="#c2e1ff95"/><path d="M205-210l105-48" stroke-width="6.5" stroke="#fff9B"/><path d="M37-259l-63-96" stroke-width="6.5" stroke="#c2e1ff9C"/><path d="M-13-184l-113-21" stroke-width="6.5" stroke="#fff5009C"/><path d="M5-98l-95 65" stroke-width="6.6" stroke="#005bbb9D"/><path d="M-6-118l-106 45" stroke-width="6.6" stroke="#c2e1ff9D"/><path d="M162-66l62 96" stroke-width="6.6" stroke="#fff9E"/><path d="M-9-128l-109 34" stroke-width="6.6" stroke="#c2e1ff9F"/><path d="M18-83l-82 79" stroke-width="6.7" stroke="#fff500A0"/><path d="M155-262l55-100" stroke-width="6.7" stroke="#005bbbA0"/><path d="M30-252l-71-90" stroke-width="6.7" stroke="#c2e1ffA0"/><path d="M212-149l113 14" stroke-width="6.8" stroke="#fff500A4"/><path d="M210-138l110 25" stroke-width="6.8" stroke="#c2e1ffA5"/><path d="M103-50l2 112" stroke-width="6.9" stroke="#c2e1ffA6"/><path d="M202-116l101 47" stroke-width="6.9" stroke="#c2e1ffA8"/><path d="M211-153l112 10" stroke-width="6.9" stroke="#005bbbA8"/><path d="M55-265l-44-102" stroke-width="7.0" stroke="#fff500AA"/><path d="M71-55l-29 107" stroke-width="7.0" stroke="#c2e1ffAA"/><path d="M12-230l-88-67" stroke-width="7.1" stroke="#fffAC"/><path d="M208-181l109-19" stroke-width="7.1" stroke="#c2e1ffAD"/><path d="M6-105l-94 57" stroke-width="7.1" stroke="#fff500AE"/><path d="M206-190l106-28" stroke-width="7.2" stroke="#c2e1ffAE"/><path d="M187-97l86 66" stroke-width="7.3" stroke="#c2e1ffB1"/><path d="M208-162l109 0" stroke-width="7.3" stroke="#c2e1ffB2"/><path d="M120-269l21-106" stroke-width="7.3" stroke="#fffB3"/><path d="M207-158l107 5" stroke-width="7.4" stroke="#fff500B5"/><path d="M133-61l33 101" stroke-width="7.4" stroke="#005bbbB6"/><path d="M203-191l102-28" stroke-width="7.5" stroke="#005bbbB6"/><path d="M7-114l-93 48" stroke-width="7.6" stroke="#005bbbB9"/><path d="M15-102l-86 61" stroke-width="7.6" stroke="#c2e1ffBA"/><path d="M137-65l38 98" stroke-width="7.6" stroke="#c2e1ffBA"/><path d="M109-266l10-104" stroke-width="7.6" stroke="#fffBB"/><path d="M23-94l-76 68" stroke-width="7.7" stroke="#c2e1ffBE"/><path d="M162-243l61-80" stroke-width="7.8" stroke="#fff500C1"/><path d="M52-74l-48 89" stroke-width="7.8" stroke="#c2e1ffC1"/><path d="M200-166l101-4" stroke-width="7.9" stroke="#fff500C2"/><path d="M1-171l-99-9" stroke-width="7.9" stroke="#005bbbC4"/><path d="M89-64l-11 98" stroke-width="8.0" stroke="#fffC5"/><path d="M7-164l-92-1" stroke-width="8.3" stroke="#fff500CE"/><path d="M14-195l-86-33" stroke-width="8.3" stroke="#c2e1ffCF"/><path d="M164-229l64-66" stroke-width="8.3" stroke="#005bbbCF"/><path d="M178-116l78 46" stroke-width="8.4" stroke="#c2e1ffD1"/><path d="M54-240l-47-78" stroke-width="8.4" stroke="#c2e1ffD1"/><path d="M35-101l-65 61" stroke-width="8.4" stroke="#c2e1ffD3"/><path d="M127-246l26-84" stroke-width="8.5" stroke="#fffD4"/><path d="M180-130l80 32" stroke-width="8.6" stroke="#fff500D6"/><path d="M186-169l86-7" stroke-width="8.6" stroke="#c2e1ffD6"/><path d="M150-231l50-69" stroke-width="8.6" stroke="#c2e1ffD7"/><path d="M120-80l20 82" stroke-width="8.6" stroke="#fffD8"/><path d="M28-199l-72-37" stroke-width="8.8" stroke="#005bbbDC"/><path d="M178-143l78 20" stroke-width="8.8" stroke="#fffDC"/><path d="M96-243l-3-80" stroke-width="8.8" stroke="#c2e1ffDD"/><path d="M50-222l-50-59" stroke-width="8.9" stroke="#005bbbDF"/><path d="M137-96l36 66" stroke-width="9.0" stroke="#fffE1"/><path d="M101-88l0 75" stroke-width="9.0" stroke="#fffE2"/><path d="M31-191l-69-29" stroke-width="9.0" stroke="#fff500E2"/><path d="M62-99l-39 64" stroke-width="9.0" stroke="#fff500E2"/><path d="M82-232l-18-69" stroke-width="9.1" stroke="#c2e1ffE4"/><path d="M166-136l67 26" stroke-width="9.1" stroke="#c2e1ffE5"/><path d="M81-95l-19 67" stroke-width="9.1" stroke="#fff500E6"/><path d="M168-175l68-13" stroke-width="9.1" stroke="#005bbbE6"/><path d="M147-211l47-49" stroke-width="9.2" stroke="#c2e1ffE7"/><path d="M39-189l-61-26" stroke-width="9.2" stroke="#fff500E9"/><path d="M41-155l-59 8" stroke-width="9.4" stroke="#fff500ED"/><path d="M140-119l40 43" stroke-width="9.4" stroke="#c2e1ffED"/><path d="M43-147l-57 15" stroke-width="9.4" stroke="#005bbbEE"/><path d="M56-200l-45-37" stroke-width="9.4" stroke="#fffEE"/><path d="M43-171l-56-8" stroke-width="9.4" stroke="#005bbbEF"/><path d="M84-216l-15-53" stroke-width="9.5" stroke="#fff500F0"/><path d="M135-123l35 40" stroke-width="9.5" stroke="#c2e1ffF1"/><path d="M62-128l-38 35" stroke-width="9.5" stroke="#c2e1ffF2"/><path d="M64-199l-36-36" stroke-width="9.6" stroke="#005bbbF2"/><path d="M145-187l45-24" stroke-width="9.6" stroke="#fff500F2"/><path d="M60-134l-40 29" stroke-width="9.6" stroke="#fffF3"/><path d="M58-146l-41 17" stroke-width="9.7" stroke="#fffF5"/><path d="M145-165l44-3" stroke-width="9.7" stroke="#c2e1ffF5"/><path d="M66-185l-34-23" stroke-width="9.7" stroke="#fff500F7"/><path d="M138-148l37 14" stroke-width="9.7" stroke="#fffF7"/><path d="M87-198l-12-36" stroke-width="9.8" stroke="#c2e1ffF8"/><path d="M71-139l-29 24" stroke-width="9.8" stroke="#fffF8"/><path d="M122-135l22 27" stroke-width="9.8" stroke="#fffF9"/><path d="M102-197l1-35" stroke-width="9.8" stroke="#005bbbF9"/><path d="M91-145l-8 18" stroke-width="9.9" stroke="#005bbbFD"/></g></svg>