<svg width="1200" height="675" viewBox="-500 -500 1200 675" xmlns="http://www.w3.org/2000/svg"><path d="M-500-500h1200v675h-1200z" fill="#000"/><style>.sparkles path{stroke-linecap:round}</style><g class="sparkles"><path d="M79-159l-20 4" stroke-width="1.1" stroke="#fff5002"/><path d="M72-165l-29-2" stroke-width="1.1" stroke="#fff3"/><path d="M85-191l-16-29" stroke-width="1.2" stroke="#c2e1ff4"/><path d="M83-124l-17 38" stroke-width="1.3" stroke="#005bbb8"/><path d="M97-117l-4 46" stroke-width="1.4" stroke="#fff500A"/><path d="M109-208l9-46" stroke-width="1.4" stroke="#fffA"/><path d="M70-120l-30 42" stroke-width="1.5" stroke="#fff500C"/><path d="M107-214l6-51" stroke-width="1.5" stroke="#fffC"/><path d="M54-193l-45-31" stroke-width="1.5" stroke="#fff500E"/><path d="M156-160l55 2" stroke-width="1.5" stroke="#fffF"/><path d="M132-209l32-46" stroke-width="1.5" stroke="#005bbbF"/><path d="M149-195l49-32" stroke-width="1.6" stroke="#005bbb10"/><path d="M161-146l60 16" stroke-width="1.7" stroke="#fff50013"/><path d="M37-165l-63-3" stroke-width="1.7" stroke="#c2e1ff13"/><path d="M47-199l-53-36" stroke-width="1.7" stroke="#005bbb14"/><path d="M132-224l32-62" stroke-width="1.9" stroke="#c2e1ff18"/><path d="M31-171l-69-9" stroke-width="1.9" stroke="#005bbb18"/><path d="M154-111l55 51" stroke-width="2.0" stroke="#fff5001C"/><path d="M140-226l40-64" stroke-width="2.0" stroke="#c2e1ff1D"/><path d="M46-222l-54-59" stroke-width="2.2" stroke="#c2e1ff21"/><path d="M180-175l80-13" stroke-width="2.2" stroke="#fff22"/><path d="M164-113l64 50" stroke-width="2.2" stroke="#fff50022"/><path d="M61-89l-38 73" stroke-width="2.3" stroke="#fff50024"/><path d="M41-103l-60 59" stroke-width="2.3" stroke="#fff25"/><path d="M184-162l84 1" stroke-width="2.3" stroke="#005bbb25"/><path d="M148-236l47-73" stroke-width="2.5" stroke="#fff29"/><path d="M172-215l73-52" stroke-width="2.6" stroke="#005bbb2C"/><path d="M89-73l-12 90" stroke-width="2.6" stroke="#fff5002D"/><path d="M193-174l93-11" stroke-width="2.8" stroke="#fff50032"/><path d="M175-220l76-58" stroke-width="2.8" stroke="#fff50033"/><path d="M16-117l-84 45" stroke-width="2.8" stroke="#005bbb34"/><path d="M178-218l79-55" stroke-width="2.9" stroke="#fff35"/><path d="M159-239l60-76" stroke-width="2.9" stroke="#005bbb35"/><path d="M80-257l-21-95" stroke-width="2.9" stroke="#fff36"/><path d="M100-65l1 97" stroke-width="2.9" stroke="#005bbb37"/><path d="M4-140l-97 23" stroke-width="3.1" stroke="#005bbb3A"/><path d="M5-132l-94 30" stroke-width="3.1" stroke="#005bbb3A"/><path d="M183-218l83-56" stroke-width="3.1" stroke="#fff5003B"/><path d="M17-220l-83-58" stroke-width="3.2" stroke="#005bbb3D"/><path d="M181-100l82 63" stroke-width="3.3" stroke="#005bbb40"/><path d="M141-258l40-95" stroke-width="3.3" stroke="#fff42"/><path d="M161-78l61 84" stroke-width="3.4" stroke="#fff50042"/><path d="M138-66l39 97" stroke-width="3.4" stroke="#fff50043"/><path d="M4-206l-96-43" stroke-width="3.5" stroke="#fff46"/><path d="M-5-148l-104 15" stroke-width="3.5" stroke="#fff46"/><path d="M10-106l-91 56" stroke-width="3.5" stroke="#fff48"/><path d="M42-73l-59 89" stroke-width="3.6" stroke="#fff48"/><path d="M143-64l43 98" stroke-width="3.6" stroke="#c2e1ff49"/><path d="M88-270l-12-108" stroke-width="3.7" stroke="#fff5004C"/><path d="M44-255l-55-93" stroke-width="3.7" stroke="#fff5004C"/><path d="M196-214l95-51" stroke-width="3.7" stroke="#fff4D"/><path d="M31-78l-68 84" stroke-width="3.7" stroke="#c2e1ff4D"/><path d="M-9-168l-109-5" stroke-width="3.8" stroke="#005bbb4E"/><path d="M95-54l-5 109" stroke-width="3.8" stroke="#005bbb4E"/><path d="M-2-123l-102 39" stroke-width="3.8" stroke="#fff4F"/><path d="M9-225l-91-62" stroke-width="3.9" stroke="#005bbb51"/><path d="M55-60l-45 102" stroke-width="4.0" stroke="#c2e1ff55"/><path d="M188-232l88-70" stroke-width="4.1" stroke="#fff58"/><path d="M204-119l103 43" stroke-width="4.1" stroke="#005bbb58"/><path d="M195-103l96 60" stroke-width="4.1" stroke="#fff58"/><path d="M-4-206l-104-44" stroke-width="4.2" stroke="#c2e1ff59"/><path d="M3-104l-97 59" stroke-width="4.3" stroke="#fff5005C"/><path d="M173-250l72-88" stroke-width="4.3" stroke="#fff5005E"/><path d="M82-275l-18-113" stroke-width="4.3" stroke="#005bbb5E"/><path d="M92-277l-8-114" stroke-width="4.4" stroke="#c2e1ff5F"/><path d="M18-82l-82 80" stroke-width="4.4" stroke="#005bbb60"/><path d="M130-274l30-111" stroke-width="4.5" stroke="#fff50064"/><path d="M9-234l-91-71" stroke-width="4.5" stroke="#fff50064"/><path d="M10-235l-91-73" stroke-width="4.6" stroke="#fff66"/><path d="M206-114l105 48" stroke-width="4.6" stroke="#fff50067"/><path d="M55-55l-45 107" stroke-width="4.7" stroke="#fff50067"/><path d="M214-138l114 24" stroke-width="4.7" stroke="#c2e1ff69"/><path d="M-16-150l-116 12" stroke-width="4.7" stroke="#c2e1ff6A"/><path d="M105-279l5-116" stroke-width="4.8" stroke="#fff5006B"/><path d="M165-260l64-98" stroke-width="4.9" stroke="#c2e1ff6F"/><path d="M26-253l-74-91" stroke-width="4.9" stroke="#fff6F"/><path d="M109-46l8 117" stroke-width="5.0" stroke="#005bbb70"/><path d="M147-270l46-108" stroke-width="5.0" stroke="#fff50070"/><path d="M193-234l93-71" stroke-width="5.0" stroke="#fff50071"/><path d="M20-77l-80 86" stroke-width="5.0" stroke="#fff72"/><path d="M140-273l39-111" stroke-width="5.1" stroke="#fff74"/><path d="M25-72l-75 91" stroke-width="5.2" stroke="#c2e1ff77"/><path d="M36-64l-65 99" stroke-width="5.3" stroke="#fff50079"/><path d="M205-216l105-54" stroke-width="5.4" stroke="#fff5007D"/><path d="M14-243l-87-81" stroke-width="5.4" stroke="#fff7D"/><path d="M218-154l118 8" stroke-width="5.5" stroke="#fff7F"/><path d="M138-274l39-112" stroke-width="5.5" stroke="#fff80"/><path d="M-5-217l-105-54" stroke-width="5.6" stroke="#fff83"/><path d="M88-280l-11-117" stroke-width="5.6" stroke="#c2e1ff83"/><path d="M-9-208l-109-46" stroke-width="5.7" stroke="#c2e1ff85"/><path d="M-15-190l-115-27" stroke-width="5.7" stroke="#fff50085"/><path d="M101-280l1-118" stroke-width="5.8" stroke="#fff86"/><path d="M197-96l98 66" stroke-width="5.8" stroke="#fff50088"/><path d="M152-57l52 105" stroke-width="5.9" stroke="#c2e1ff8A"/><path d="M12-240l-89-78" stroke-width="5.9" stroke="#c2e1ff8A"/><path d="M218-158l117 4" stroke-width="5.9" stroke="#c2e1ff8B"/><path d="M177-74l77 89" stroke-width="6.0" stroke="#fff5008D"/><path d="M53-55l-46 108" stroke-width="6.0" stroke="#fff8D"/><path d="M-16-144l-116 18" stroke-width="6.0" stroke="#005bbb8D"/><path d="M214-191l114-28" stroke-width="6.1" stroke="#fff5008F"/><path d="M11-86l-88 77" stroke-width="6.1" stroke="#fff5008F"/><path d="M217-155l117 7" stroke-width="6.1" stroke="#005bbb90"/><path d="M61-52l-40 110" stroke-width="6.1" stroke="#fff90"/><path d="M217-162l117 0" stroke-width="6.2" stroke="#fff92"/><path d="M102-46l3 116" stroke-width="6.2" stroke="#005bbb94"/><path d="M211-131l112 31" stroke-width="6.4" stroke="#fff99"/><path d="M109-48l9 115" stroke-width="6.5" stroke="#fff9B"/><path d="M138-54l37 109" stroke-width="6.5" stroke="#005bbb9C"/><path d="M-14-176l-114-14" stroke-width="6.5" stroke="#fff5009C"/><path d="M-13-151l-114 12" stroke-width="6.7" stroke="#c2e1ffA1"/><path d="M112-50l13 113" stroke-width="6.7" stroke="#005bbbA2"/><path d="M146-266l47-104" stroke-width="6.7" stroke="#fff500A2"/><path d="M152-62l53 101" stroke-width="6.8" stroke="#c2e1ffA3"/><path d="M12-91l-87 71" stroke-width="6.8" stroke="#005bbbA4"/><path d="M37-70l-64 93" stroke-width="6.9" stroke="#005bbbA6"/><path d="M24-82l-76 81" stroke-width="7.1" stroke="#005bbbAB"/><path d="M136-267l36-104" stroke-width="7.1" stroke="#fff500AD"/><path d="M70-268l-30-105" stroke-width="7.2" stroke="#fffAF"/><path d="M194-219l93-56" stroke-width="7.2" stroke="#fffAF"/><path d="M209-163l109 0" stroke-width="7.2" stroke="#005bbbB0"/><path d="M66-59l-34 103" stroke-width="7.3" stroke="#005bbbB1"/><path d="M-6-141l-106 21" stroke-width="7.3" stroke="#005bbbB2"/><path d="M140-263l39-100" stroke-width="7.4" stroke="#fff500B4"/><path d="M75-59l-25 104" stroke-width="7.4" stroke="#fffB5"/><path d="M8-216l-93-54" stroke-width="7.4" stroke="#fffB5"/><path d="M190-218l91-56" stroke-width="7.5" stroke="#005bbbB7"/><path d="M133-263l32-101" stroke-width="7.5" stroke="#c2e1ffB7"/><path d="M197-120l96 42" stroke-width="7.5" stroke="#fffB9"/><path d="M153-254l52-91" stroke-width="7.5" stroke="#fff500B9"/><path d="M127-61l26 102" stroke-width="7.5" stroke="#005bbbB9"/><path d="M139-65l40 97" stroke-width="7.5" stroke="#fffB9"/><path d="M151-254l52-91" stroke-width="7.6" stroke="#fffBA"/><path d="M-3-183l-102-20" stroke-width="7.6" stroke="#fff500BA"/><path d="M36-80l-65 82" stroke-width="7.6" stroke="#fffBA"/><path d="M195-204l95-42" stroke-width="7.6" stroke="#c2e1ffBC"/><path d="M29-87l-71 75" stroke-width="7.7" stroke="#005bbbBD"/><path d="M130-64l31 98" stroke-width="7.7" stroke="#005bbbBD"/><path d="M188-110l88 52" stroke-width="7.8" stroke="#fff500BF"/><path d="M6-123l-94 40" stroke-width="7.8" stroke="#c2e1ffBF"/><path d="M60-69l-39 93" stroke-width="7.8" stroke="#c2e1ffC0"/><path d="M-1-172l-101-10" stroke-width="7.8" stroke="#fff500C0"/><path d="M130-67l30 96" stroke-width="7.9" stroke="#fff500C3"/><path d="M162-237l63-75" stroke-width="8.0" stroke="#fffC7"/><path d="M20-218l-79-55" stroke-width="8.1" stroke="#c2e1ffC8"/><path d="M73-254l-28-91" stroke-width="8.2" stroke="#005bbbCA"/><path d="M9-181l-91-18" stroke-width="8.3" stroke="#fff500CE"/><path d="M71-250l-28-87" stroke-width="8.3" stroke="#fffCF"/><path d="M25-120l-76 42" stroke-width="8.6" stroke="#fff500D6"/><path d="M41-99l-59 63" stroke-width="8.6" stroke="#c2e1ffD6"/><path d="M57-88l-42 75" stroke-width="8.6" stroke="#fff500D6"/><path d="M179-129l79 34" stroke-width="8.6" stroke="#fff500D7"/><path d="M45-228l-54-66" stroke-width="8.6" stroke="#fffD7"/><path d="M145-235l44-72" stroke-width="8.6" stroke="#005bbbD8"/><path d="M181-140l81 23" stroke-width="8.7" stroke="#005bbbD8"/><path d="M58-90l-42 72" stroke-width="8.7" stroke="#005bbbD9"/><path d="M81-82l-19 80" stroke-width="8.7" stroke="#fff500DA"/><path d="M175-183l75-20" stroke-width="8.9" stroke="#fff500DF"/><path d="M44-113l-56 49" stroke-width="9.0" stroke="#fff500E2"/><path d="M156-113l55 49" stroke-width="9.0" stroke="#005bbbE2"/><path d="M150-209l50-47" stroke-width="9.2" stroke="#fff500E7"/><path d="M158-197l58-34" stroke-width="9.2" stroke="#005bbbE8"/><path d="M61-212l-39-50" stroke-width="9.3" stroke="#fff500EB"/><path d="M136-114l36 48" stroke-width="9.4" stroke="#fffED"/><path d="M78-216l-22-53" stroke-width="9.4" stroke="#c2e1ffEE"/><path d="M60-124l-40 38" stroke-width="9.5" stroke="#005bbbF0"/><path d="M141-199l40-36" stroke-width="9.5" stroke="#fffF0"/><path d="M138-124l39 38" stroke-width="9.5" stroke="#fff500F0"/><path d="M52-183l-48-21" stroke-width="9.5" stroke="#fff500F1"/><path d="M83-212l-17-49" stroke-width="9.5" stroke="#c2e1ffF1"/><path d="M53-150l-47 12" stroke-width="9.6" stroke="#fffF3"/><path d="M143-179l43-17" stroke-width="9.6" stroke="#fff500F4"/><path d="M61-151l-40 11" stroke-width="9.7" stroke="#005bbbF7"/><path d="M105-123l4 40" stroke-width="9.7" stroke="#005bbbF7"/><path d="M136-154l36 8" stroke-width="9.8" stroke="#c2e1ffF8"/><path d="M128-141l28 22" stroke-width="9.8" stroke="#fffF9"/><path d="M87-193l-14-31" stroke-width="9.8" stroke="#c2e1ffF9"/><path d="M112-139l13 24" stroke-width="9.9" stroke="#fffFB"/><path d="M113-143l13 19" stroke-width="9.9" stroke="#005bbbFC"/><path d="M104-181l4-18" stroke-width="9.9" stroke="#fff500FD"/><path d="M93-174l-6-12" stroke-width="10.0" stroke="#005bbbFE"/><path d="M98-175l-2-12" stroke-width="10.0" stroke="#fffFE"/></g></svg>