<svg width="1200" height="675" viewBox="-500 -500 1200 675" xmlns="http://www.w3.org/2000/svg"><path d="M-500-500h1200v675h-1200z" fill="#000"/><style>.sparkles path{stroke-linecap:round}</style><g class="sparkles"><path d="M106-176l7-14" stroke-width="1.0" stroke="#c2e1ff1"/><path d="M90-139l-9 24" stroke-width="1.1" stroke="#005bbb2"/><path d="M105-190l6-28" stroke-width="1.1" stroke="#005bbb3"/><path d="M92-193l-7-30" stroke-width="1.2" stroke="#fff4"/><path d="M127-140l27 23" stroke-width="1.2" stroke="#005bbb5"/><path d="M138-138l37 24" stroke-width="1.3" stroke="#c2e1ff9"/><path d="M54-160l-46 2" stroke-width="1.4" stroke="#fffA"/><path d="M83-212l-18-50" stroke-width="1.5" stroke="#005bbbD"/><path d="M54-135l-47 28" stroke-width="1.5" stroke="#fff500E"/><path d="M46-171l-54-9" stroke-width="1.5" stroke="#c2e1ffE"/><path d="M148-188l49-26" stroke-width="1.5" stroke="#005bbbE"/><path d="M55-195l-44-32" stroke-width="1.5" stroke="#c2e1ffE"/><path d="M88-107l-12 55" stroke-width="1.6" stroke="#fffF"/><path d="M89-105l-11 57" stroke-width="1.6" stroke="#fff50010"/><path d="M160-164l60-1" stroke-width="1.6" stroke="#fff11"/><path d="M38-188l-62-25" stroke-width="1.8" stroke="#c2e1ff16"/><path d="M77-99l-23 64" stroke-width="1.8" stroke="#fff17"/><path d="M93-91l-7 71" stroke-width="1.9" stroke="#fff19"/><path d="M118-92l17 70" stroke-width="1.9" stroke="#c2e1ff1A"/><path d="M82-237l-18-75" stroke-width="2.1" stroke="#005bbb1E"/><path d="M61-95l-38 67" stroke-width="2.1" stroke="#005bbb1F"/><path d="M151-221l51-59" stroke-width="2.1" stroke="#c2e1ff1F"/><path d="M70-91l-31 72" stroke-width="2.1" stroke="#fff5001F"/><path d="M60-234l-39-72" stroke-width="2.3" stroke="#fff50023"/><path d="M97-80l-2 82" stroke-width="2.3" stroke="#fff23"/><path d="M185-164l86-2" stroke-width="2.4" stroke="#005bbb27"/><path d="M156-97l55 66" stroke-width="2.4" stroke="#005bbb28"/><path d="M141-86l41 76" stroke-width="2.4" stroke="#fff28"/><path d="M54-89l-46 74" stroke-width="2.4" stroke="#fff29"/><path d="M34-105l-66 58" stroke-width="2.5" stroke="#fff2A"/><path d="M12-170l-87-8" stroke-width="2.5" stroke="#fff2A"/><path d="M42-229l-58-66" stroke-width="2.5" stroke="#005bbb2A"/><path d="M183-194l83-32" stroke-width="2.5" stroke="#fff2B"/><path d="M73-77l-27 86" stroke-width="2.6" stroke="#fff5002C"/><path d="M22-117l-77 46" stroke-width="2.6" stroke="#fff2D"/><path d="M190-183l90-20" stroke-width="2.7" stroke="#fff5002F"/><path d="M86-70l-15 93" stroke-width="2.8" stroke="#c2e1ff32"/><path d="M192-137l91 26" stroke-width="2.8" stroke="#fff50034"/><path d="M60-249l-40-87" stroke-width="2.9" stroke="#fff34"/><path d="M184-112l84 50" stroke-width="3.0" stroke="#c2e1ff37"/><path d="M51-78l-50 85" stroke-width="3.0" stroke="#fff38"/><path d="M198-146l98 17" stroke-width="3.1" stroke="#c2e1ff3A"/><path d="M178-225l78-63" stroke-width="3.1" stroke="#fff5003B"/><path d="M8-203l-92-40" stroke-width="3.1" stroke="#c2e1ff3C"/><path d="M33-237l-68-75" stroke-width="3.1" stroke="#fff3C"/><path d="M33-238l-67-76" stroke-width="3.2" stroke="#c2e1ff3D"/><path d="M188-212l89-49" stroke-width="3.2" stroke="#fff3D"/><path d="M3-134l-97 28" stroke-width="3.2" stroke="#fff5003D"/><path d="M63-67l-37 96" stroke-width="3.3" stroke="#fff50040"/><path d="M85-61l-15 102" stroke-width="3.3" stroke="#fff50041"/><path d="M200-191l100-28" stroke-width="3.3" stroke="#fff42"/><path d="M16-101l-84 62" stroke-width="3.4" stroke="#c2e1ff43"/><path d="M93-267l-7-104" stroke-width="3.4" stroke="#fff43"/><path d="M146-257l45-95" stroke-width="3.4" stroke="#c2e1ff45"/><path d="M30-82l-70 81" stroke-width="3.6" stroke="#005bbb49"/><path d="M136-263l36-101" stroke-width="3.6" stroke="#005bbb49"/><path d="M109-55l8 108" stroke-width="3.7" stroke="#fff4C"/><path d="M98-54l-3 109" stroke-width="3.8" stroke="#fff4E"/><path d="M144-262l44-100" stroke-width="3.8" stroke="#fff5004E"/><path d="M87-53l-13 109" stroke-width="3.8" stroke="#c2e1ff50"/><path d="M-1-208l-101-45" stroke-width="3.9" stroke="#fff52"/><path d="M-4-123l-104 39" stroke-width="4.0" stroke="#005bbb54"/><path d="M124-54l24 109" stroke-width="4.0" stroke="#005bbb54"/><path d="M81-53l-19 110" stroke-width="4.0" stroke="#c2e1ff54"/><path d="M33-73l-67 89" stroke-width="4.0" stroke="#005bbb55"/><path d="M-6-199l-105-36" stroke-width="4.0" stroke="#fff50055"/><path d="M195-222l95-59" stroke-width="4.0" stroke="#fff56"/><path d="M65-269l-35-106" stroke-width="4.1" stroke="#c2e1ff56"/><path d="M-11-149l-112 13" stroke-width="4.1" stroke="#005bbb57"/><path d="M146-265l46-102" stroke-width="4.1" stroke="#c2e1ff57"/><path d="M113-51l13 112" stroke-width="4.1" stroke="#005bbb58"/><path d="M155-261l56-98" stroke-width="4.1" stroke="#fff58"/><path d="M3-105l-97 58" stroke-width="4.2" stroke="#fff50059"/><path d="M159-66l60 96" stroke-width="4.2" stroke="#fff50059"/><path d="M184-238l84-76" stroke-width="4.2" stroke="#fff5B"/><path d="M212-181l112-19" stroke-width="4.2" stroke="#fff5B"/><path d="M186-88l85 75" stroke-width="4.3" stroke="#c2e1ff5C"/><path d="M183-241l83-78" stroke-width="4.3" stroke="#c2e1ff5D"/><path d="M-14-153l-113 10" stroke-width="4.3" stroke="#fff5005D"/><path d="M181-82l82 81" stroke-width="4.4" stroke="#fff60"/><path d="M122-275l22-113" stroke-width="4.4" stroke="#fff61"/><path d="M105-278l4-115" stroke-width="4.5" stroke="#fff64"/><path d="M76-49l-24 113" stroke-width="4.6" stroke="#005bbb65"/><path d="M90-278l-10-115" stroke-width="4.6" stroke="#fff50066"/><path d="M197-100l98 63" stroke-width="4.6" stroke="#fff66"/><path d="M67-274l-33-111" stroke-width="4.7" stroke="#c2e1ff67"/><path d="M90-278l-10-116" stroke-width="4.7" stroke="#fff67"/><path d="M138-272l39-110" stroke-width="4.7" stroke="#fff50067"/><path d="M178-75l77 87" stroke-width="4.9" stroke="#fff5006D"/><path d="M173-254l74-91" stroke-width="5.0" stroke="#fff70"/><path d="M218-162l117 0" stroke-width="5.1" stroke="#fff72"/><path d="M8-89l-92 73" stroke-width="5.1" stroke="#c2e1ff74"/><path d="M160-61l59 102" stroke-width="5.2" stroke="#fff78"/><path d="M208-115l108 48" stroke-width="5.3" stroke="#fff50078"/><path d="M205-109l106 53" stroke-width="5.3" stroke="#005bbb79"/><path d="M218-156l118 6" stroke-width="5.4" stroke="#c2e1ff7D"/><path d="M217-148l118 14" stroke-width="5.5" stroke="#c2e1ff7F"/><path d="M54-54l-47 109" stroke-width="5.5" stroke="#c2e1ff7F"/><path d="M-14-192l-115-29" stroke-width="5.6" stroke="#c2e1ff82"/><path d="M101-281l1-118" stroke-width="5.6" stroke="#005bbb82"/><path d="M210-204l111-42" stroke-width="5.7" stroke="#fff50083"/><path d="M214-133l115 29" stroke-width="5.7" stroke="#c2e1ff84"/><path d="M24-253l-76-90" stroke-width="5.7" stroke="#c2e1ff85"/><path d="M-18-157l-118 5" stroke-width="5.8" stroke="#fff87"/><path d="M80-46l-21 116" stroke-width="5.8" stroke="#fff50087"/><path d="M-16-144l-117 19" stroke-width="5.8" stroke="#fff89"/><path d="M95-45l-5 118" stroke-width="5.8" stroke="#c2e1ff89"/><path d="M105-280l5-118" stroke-width="5.8" stroke="#005bbb89"/><path d="M105-45l5 118" stroke-width="5.9" stroke="#c2e1ff89"/><path d="M117-46l16 116" stroke-width="5.9" stroke="#fff8B"/><path d="M149-269l49-107" stroke-width="6.0" stroke="#c2e1ff8D"/><path d="M7-233l-94-71" stroke-width="6.1" stroke="#fff5008F"/><path d="M54-55l-47 108" stroke-width="6.1" stroke="#fff5008F"/><path d="M90-279l-11-116" stroke-width="6.2" stroke="#fff93"/><path d="M95-46l-5 116" stroke-width="6.3" stroke="#fff50095"/><path d="M158-62l57 101" stroke-width="6.3" stroke="#005bbb96"/><path d="M28-72l-71 91" stroke-width="6.4" stroke="#fff98"/><path d="M214-181l113-18" stroke-width="6.5" stroke="#c2e1ff9C"/><path d="M200-219l101-56" stroke-width="6.5" stroke="#fff5009C"/><path d="M54-57l-46 105" stroke-width="6.5" stroke="#c2e1ff9C"/><path d="M-14-173l-115-10" stroke-width="6.6" stroke="#fff9D"/><path d="M125-274l26-112" stroke-width="6.6" stroke="#c2e1ff9E"/><path d="M172-252l72-89" stroke-width="6.6" stroke="#c2e1ff9E"/><path d="M176-248l77-85" stroke-width="6.6" stroke="#fff9F"/><path d="M116-275l17-113" stroke-width="6.7" stroke="#c2e1ffA0"/><path d="M210-136l111 27" stroke-width="6.7" stroke="#c2e1ffA1"/><path d="M104-275l5-113" stroke-width="6.8" stroke="#c2e1ffA4"/><path d="M75-272l-25-110" stroke-width="6.8" stroke="#005bbbA5"/><path d="M211-142l110 20" stroke-width="6.9" stroke="#fffA6"/><path d="M135-56l36 106" stroke-width="6.9" stroke="#c2e1ffA7"/><path d="M199-109l98 53" stroke-width="6.9" stroke="#fff500A8"/><path d="M183-238l83-75" stroke-width="6.9" stroke="#fffA8"/><path d="M147-62l48 101" stroke-width="7.0" stroke="#005bbbAA"/><path d="M49-66l-51 97" stroke-width="7.2" stroke="#fff500AF"/><path d="M190-224l91-61" stroke-width="7.2" stroke="#fff500B0"/><path d="M123-269l23-106" stroke-width="7.3" stroke="#fff500B1"/><path d="M66-266l-34-103" stroke-width="7.3" stroke="#fff500B1"/><path d="M98-270l-1-108" stroke-width="7.3" stroke="#005bbbB3"/><path d="M77-267l-23-105" stroke-width="7.4" stroke="#fffB5"/><path d="M167-79l66 83" stroke-width="7.4" stroke="#005bbbB6"/><path d="M60-261l-40-99" stroke-width="7.4" stroke="#fffB6"/><path d="M137-63l37 100" stroke-width="7.5" stroke="#005bbbB7"/><path d="M13-222l-87-59" stroke-width="7.5" stroke="#005bbbB9"/><path d="M162-79l61 83" stroke-width="7.7" stroke="#fffBC"/><path d="M179-228l80-65" stroke-width="7.7" stroke="#c2e1ffBE"/><path d="M202-152l102 10" stroke-width="7.7" stroke="#005bbbBF"/><path d="M67-68l-32 95" stroke-width="7.9" stroke="#c2e1ffC2"/><path d="M66-70l-35 92" stroke-width="8.0" stroke="#005bbbC5"/><path d="M129-256l28-93" stroke-width="8.0" stroke="#fffC7"/><path d="M131-70l31 92" stroke-width="8.1" stroke="#fffC8"/><path d="M52-82l-48 81" stroke-width="8.2" stroke="#fffCD"/><path d="M62-248l-38-85" stroke-width="8.3" stroke="#c2e1ffCD"/><path d="M150-85l49 77" stroke-width="8.3" stroke="#005bbbCF"/><path d="M77-251l-24-88" stroke-width="8.4" stroke="#005bbbD0"/><path d="M178-206l78-43" stroke-width="8.4" stroke="#005bbbD2"/><path d="M171-213l70-51" stroke-width="8.5" stroke="#c2e1ffD5"/><path d="M49-92l-52 70" stroke-width="8.5" stroke="#fffD5"/><path d="M58-238l-42-75" stroke-width="8.6" stroke="#005bbbD6"/><path d="M184-155l84 7" stroke-width="8.7" stroke="#fffD8"/><path d="M38-108l-62 54" stroke-width="8.7" stroke="#fff500DA"/><path d="M128-87l28 75" stroke-width="8.8" stroke="#fffDD"/><path d="M130-91l30 71" stroke-width="8.9" stroke="#005bbbE0"/><path d="M74-97l-25 66" stroke-width="9.1" stroke="#fffE5"/><path d="M56-111l-44 52" stroke-width="9.2" stroke="#fff500E7"/><path d="M152-125l52 37" stroke-width="9.3" stroke="#fff500EA"/><path d="M158-138l59 24" stroke-width="9.3" stroke="#fffEB"/><path d="M71-108l-30 55" stroke-width="9.3" stroke="#fffEC"/><path d="M132-213l32-50" stroke-width="9.4" stroke="#c2e1ffED"/><path d="M105-220l5-58" stroke-width="9.4" stroke="#005bbbEE"/><path d="M45-147l-55 15" stroke-width="9.4" stroke="#005bbbEF"/><path d="M71-114l-29 48" stroke-width="9.5" stroke="#c2e1ffEF"/><path d="M145-137l45 25" stroke-width="9.6" stroke="#fff500F2"/><path d="M108-124l8 39" stroke-width="9.7" stroke="#c2e1ffF7"/><path d="M134-164l34-2" stroke-width="9.8" stroke="#005bbbF9"/><path d="M74-145l-26 17" stroke-width="9.8" stroke="#fffFA"/><path d="M69-167l-31-4" stroke-width="9.8" stroke="#005bbbFA"/><path d="M71-169l-30-6" stroke-width="9.9" stroke="#005bbbFA"/><path d="M99-192l0-29" stroke-width="9.9" stroke="#fff500FB"/><path d="M108-152l7 10" stroke-width="10.0" stroke="#fff500FE"/><path d="M91-162l-9 1" stroke-width="10.0" stroke="#005bbbFE"/><path d="M100-161l0 1" stroke-width="10.0" stroke="#c2e1ffFE"/></g></svg>