<svg width="1200" height="675" viewBox="-500 -500 1200 675" xmlns="http://www.w3.org/2000/svg"><path d="M-500-500h1200v675h-1200z" fill="#000"/><style>.sparkles path{stroke-linecap:round}</style><g class="sparkles"><path d="M94-175l-6-13" stroke-width="1.0" stroke="#fff0"/><path d="M87-155l-13 8" stroke-width="1.0" stroke="#fff5001"/><path d="M122-166l22-3" stroke-width="1.1" stroke="#fff5002"/><path d="M138-155l39 7" stroke-width="1.3" stroke="#005bbb7"/><path d="M125-197l24-34" stroke-width="1.3" stroke="#005bbb8"/><path d="M140-183l41-21" stroke-width="1.3" stroke="#005bbb9"/><path d="M113-117l13 45" stroke-width="1.4" stroke="#fff500A"/><path d="M80-118l-20 45" stroke-width="1.4" stroke="#005bbbB"/><path d="M145-188l45-25" stroke-width="1.5" stroke="#fffC"/><path d="M86-112l-14 50" stroke-width="1.5" stroke="#005bbbD"/><path d="M154-157l54 6" stroke-width="1.5" stroke="#fff500E"/><path d="M74-108l-25 54" stroke-width="1.6" stroke="#fff11"/><path d="M164-165l64-2" stroke-width="1.7" stroke="#fff50014"/><path d="M158-201l58-38" stroke-width="1.9" stroke="#fff50018"/><path d="M44-119l-55 43" stroke-width="1.9" stroke="#fff19"/><path d="M166-194l65-32" stroke-width="2.0" stroke="#005bbb1B"/><path d="M123-91l22 71" stroke-width="2.0" stroke="#fff1C"/><path d="M72-92l-28 70" stroke-width="2.0" stroke="#fff5001D"/><path d="M51-225l-50-63" stroke-width="2.2" stroke="#fff50021"/><path d="M60-93l-41 69" stroke-width="2.2" stroke="#005bbb21"/><path d="M53-95l-46 68" stroke-width="2.3" stroke="#005bbb23"/><path d="M56-93l-45 69" stroke-width="2.3" stroke="#c2e1ff24"/><path d="M24-195l-76-33" stroke-width="2.3" stroke="#fff24"/><path d="M122-82l22 80" stroke-width="2.3" stroke="#fff24"/><path d="M44-227l-55-64" stroke-width="2.4" stroke="#fff26"/><path d="M30-211l-70-49" stroke-width="2.4" stroke="#c2e1ff27"/><path d="M41-100l-59 63" stroke-width="2.4" stroke="#005bbb28"/><path d="M67-82l-32 80" stroke-width="2.4" stroke="#fff50028"/><path d="M171-111l72 52" stroke-width="2.5" stroke="#c2e1ff2A"/><path d="M138-83l39 80" stroke-width="2.5" stroke="#fff5002B"/><path d="M183-130l83 32" stroke-width="2.5" stroke="#c2e1ff2B"/><path d="M183-123l84 39" stroke-width="2.7" stroke="#c2e1ff2F"/><path d="M124-252l23-90" stroke-width="2.7" stroke="#fff50030"/><path d="M17-118l-83 44" stroke-width="2.8" stroke="#c2e1ff32"/><path d="M5-169l-94-6" stroke-width="2.8" stroke="#c2e1ff33"/><path d="M5-156l-94 7" stroke-width="2.8" stroke="#005bbb33"/><path d="M180-111l81 51" stroke-width="2.8" stroke="#005bbb33"/><path d="M65-74l-36 89" stroke-width="2.9" stroke="#fff34"/><path d="M152-243l51-81" stroke-width="2.9" stroke="#fff34"/><path d="M41-87l-60 75" stroke-width="2.9" stroke="#fff50035"/><path d="M96-66l-3 97" stroke-width="2.9" stroke="#c2e1ff36"/><path d="M23-103l-76 60" stroke-width="2.9" stroke="#fff37"/><path d="M193-132l92 30" stroke-width="3.0" stroke="#005bbb37"/><path d="M197-172l98-10" stroke-width="3.0" stroke="#fff37"/><path d="M10-202l-89-39" stroke-width="3.0" stroke="#005bbb38"/><path d="M65-255l-35-92" stroke-width="3.0" stroke="#005bbb39"/><path d="M19-105l-80 57" stroke-width="3.0" stroke="#005bbb39"/><path d="M186-113l86 50" stroke-width="3.1" stroke="#c2e1ff3A"/><path d="M197-188l98-26" stroke-width="3.2" stroke="#fff3D"/><path d="M195-201l95-39" stroke-width="3.3" stroke="#c2e1ff40"/><path d="M-3-167l-102-4" stroke-width="3.3" stroke="#c2e1ff40"/><path d="M68-261l-31-98" stroke-width="3.3" stroke="#fff50041"/><path d="M188-220l88-58" stroke-width="3.4" stroke="#c2e1ff45"/><path d="M120-59l19 104" stroke-width="3.5" stroke="#c2e1ff46"/><path d="M198-117l97 45" stroke-width="3.6" stroke="#fff4A"/><path d="M76-268l-25-105" stroke-width="3.7" stroke="#fff5004B"/><path d="M188-99l88 63" stroke-width="3.7" stroke="#c2e1ff4C"/><path d="M16-94l-84 69" stroke-width="3.7" stroke="#fff5004D"/><path d="M43-256l-56-94" stroke-width="3.8" stroke="#c2e1ff4F"/><path d="M-7-138l-107 24" stroke-width="3.8" stroke="#005bbb50"/><path d="M14-95l-86 68" stroke-width="3.8" stroke="#fff50050"/><path d="M13-230l-87-67" stroke-width="3.9" stroke="#fff50051"/><path d="M61-59l-39 103" stroke-width="3.9" stroke="#c2e1ff51"/><path d="M-5-198l-104-35" stroke-width="3.9" stroke="#fff50051"/><path d="M124-270l24-108" stroke-width="3.9" stroke="#c2e1ff52"/><path d="M10-98l-90 64" stroke-width="3.9" stroke="#fff50053"/><path d="M-9-144l-110 19" stroke-width="3.9" stroke="#fff53"/><path d="M209-139l109 23" stroke-width="4.0" stroke="#fff55"/><path d="M95-274l-6-112" stroke-width="4.0" stroke="#fff50055"/><path d="M183-87l82 75" stroke-width="4.0" stroke="#fff56"/><path d="M132-270l31-107" stroke-width="4.1" stroke="#005bbb56"/><path d="M-12-176l-111-13" stroke-width="4.1" stroke="#c2e1ff58"/><path d="M208-197l108-35" stroke-width="4.2" stroke="#005bbb5C"/><path d="M165-68l64 94" stroke-width="4.3" stroke="#fff5005E"/><path d="M207-205l107-42" stroke-width="4.5" stroke="#c2e1ff63"/><path d="M179-79l79 84" stroke-width="4.5" stroke="#fff63"/><path d="M210-126l109 37" stroke-width="4.6" stroke="#c2e1ff65"/><path d="M199-222l99-60" stroke-width="4.6" stroke="#005bbb65"/><path d="M216-167l116-4" stroke-width="4.7" stroke="#c2e1ff67"/><path d="M139-53l39 109" stroke-width="4.7" stroke="#005bbb67"/><path d="M127-275l27-113" stroke-width="4.7" stroke="#005bbb68"/><path d="M-15-177l-116-14" stroke-width="4.7" stroke="#fff68"/><path d="M117-47l16 115" stroke-width="4.7" stroke="#fff68"/><path d="M14-84l-87 78" stroke-width="4.7" stroke="#c2e1ff6A"/><path d="M217-155l116 7" stroke-width="4.8" stroke="#fff6C"/><path d="M48-267l-52-105" stroke-width="4.9" stroke="#fff5006D"/><path d="M186-83l86 79" stroke-width="4.9" stroke="#c2e1ff6F"/><path d="M216-176l117-14" stroke-width="4.9" stroke="#c2e1ff6F"/><path d="M25-253l-75-90" stroke-width="5.0" stroke="#fff70"/><path d="M203-219l103-56" stroke-width="5.1" stroke="#c2e1ff73"/><path d="M58-53l-42 110" stroke-width="5.1" stroke="#fff50075"/><path d="M158-265l58-103" stroke-width="5.2" stroke="#c2e1ff76"/><path d="M70-277l-29-114" stroke-width="5.2" stroke="#c2e1ff77"/><path d="M12-84l-88 78" stroke-width="5.2" stroke="#c2e1ff78"/><path d="M197-95l96 68" stroke-width="5.2" stroke="#fff50078"/><path d="M94-45l-6 118" stroke-width="5.3" stroke="#fff50079"/><path d="M-16-139l-116 23" stroke-width="5.4" stroke="#c2e1ff7B"/><path d="M191-238l90-76" stroke-width="5.4" stroke="#fff7D"/><path d="M218-156l118 7" stroke-width="5.6" stroke="#fff83"/><path d="M171-256l71-94" stroke-width="5.8" stroke="#c2e1ff88"/><path d="M19-77l-82 85" stroke-width="5.8" stroke="#005bbb88"/><path d="M85-279l-16-116" stroke-width="6.0" stroke="#c2e1ff8C"/><path d="M43-60l-57 103" stroke-width="6.0" stroke="#005bbb8E"/><path d="M-1-104l-102 59" stroke-width="6.1" stroke="#005bbb90"/><path d="M216-179l116-16" stroke-width="6.1" stroke="#c2e1ff91"/><path d="M8-90l-91 72" stroke-width="6.2" stroke="#005bbb92"/><path d="M-16-165l-117-2" stroke-width="6.3" stroke="#c2e1ff95"/><path d="M214-181l115-19" stroke-width="6.4" stroke="#fff50098"/><path d="M205-115l104 47" stroke-width="6.5" stroke="#fff9D"/><path d="M214-162l113 0" stroke-width="6.7" stroke="#fff500A2"/><path d="M-12-147l-113 16" stroke-width="6.8" stroke="#c2e1ffA3"/><path d="M170-252l70-89" stroke-width="6.8" stroke="#005bbbA3"/><path d="M201-112l101 51" stroke-width="6.8" stroke="#fff500A4"/><path d="M60-57l-40 106" stroke-width="6.8" stroke="#c2e1ffA4"/><path d="M196-102l95 60" stroke-width="6.8" stroke="#005bbbA4"/><path d="M-5-205l-105-42" stroke-width="6.8" stroke="#005bbbA5"/><path d="M212-159l113 4" stroke-width="6.9" stroke="#c2e1ffA6"/><path d="M110-274l11-112" stroke-width="6.9" stroke="#c2e1ffA7"/><path d="M177-244l76-82" stroke-width="6.9" stroke="#fffA8"/><path d="M95-274l-5-112" stroke-width="7.0" stroke="#fff500A9"/><path d="M206-196l107-33" stroke-width="7.0" stroke="#fff500A9"/><path d="M210-143l109 20" stroke-width="7.0" stroke="#fffAA"/><path d="M-11-162l-110 0" stroke-width="7.1" stroke="#c2e1ffAC"/><path d="M92-273l-8-110" stroke-width="7.1" stroke="#fff500AC"/><path d="M186-94l86 68" stroke-width="7.1" stroke="#fff500AE"/><path d="M1-211l-98-48" stroke-width="7.2" stroke="#005bbbAE"/><path d="M-4-130l-104 33" stroke-width="7.2" stroke="#c2e1ffB0"/><path d="M79-57l-21 106" stroke-width="7.3" stroke="#005bbbB3"/><path d="M33-247l-66-85" stroke-width="7.3" stroke="#c2e1ffB3"/><path d="M-7-176l-106-14" stroke-width="7.4" stroke="#c2e1ffB4"/><path d="M8-107l-91 56" stroke-width="7.4" stroke="#fffB4"/><path d="M-4-140l-105 23" stroke-width="7.4" stroke="#005bbbB5"/><path d="M188-103l89 59" stroke-width="7.4" stroke="#fffB6"/><path d="M74-59l-26 103" stroke-width="7.5" stroke="#c2e1ffB7"/><path d="M53-256l-46-94" stroke-width="7.6" stroke="#fffBA"/><path d="M-4-158l-104 4" stroke-width="7.6" stroke="#fff500BB"/><path d="M154-249l53-87" stroke-width="7.8" stroke="#fffBF"/><path d="M29-236l-70-73" stroke-width="7.8" stroke="#005bbbC0"/><path d="M75-64l-24 98" stroke-width="7.8" stroke="#005bbbC0"/><path d="M200-157l101 5" stroke-width="7.9" stroke="#fff500C2"/><path d="M35-86l-64 77" stroke-width="7.9" stroke="#005bbbC2"/><path d="M12-210l-88-47" stroke-width="7.9" stroke="#fffC3"/><path d="M135-255l35-92" stroke-width="8.0" stroke="#005bbbC5"/><path d="M17-214l-84-52" stroke-width="8.0" stroke="#fffC6"/><path d="M170-231l69-68" stroke-width="8.0" stroke="#c2e1ffC7"/><path d="M15-114l-85 48" stroke-width="8.0" stroke="#c2e1ffC7"/><path d="M9-134l-91 29" stroke-width="8.2" stroke="#c2e1ffCA"/><path d="M109-72l9 90" stroke-width="8.4" stroke="#c2e1ffD0"/><path d="M47-89l-52 73" stroke-width="8.4" stroke="#005bbbD1"/><path d="M99-252l0-90" stroke-width="8.4" stroke="#fffD2"/><path d="M61-243l-39-81" stroke-width="8.4" stroke="#fff500D2"/><path d="M23-117l-77 45" stroke-width="8.5" stroke="#c2e1ffD3"/><path d="M186-145l86 18" stroke-width="8.5" stroke="#c2e1ffD4"/><path d="M154-229l55-67" stroke-width="8.6" stroke="#fffD6"/><path d="M16-149l-83 13" stroke-width="8.6" stroke="#005bbbD8"/><path d="M23-129l-76 34" stroke-width="8.7" stroke="#c2e1ffD9"/><path d="M155-224l55-61" stroke-width="8.7" stroke="#005bbbDB"/><path d="M48-226l-52-63" stroke-width="8.7" stroke="#c2e1ffDB"/><path d="M155-222l54-59" stroke-width="8.8" stroke="#005bbbDC"/><path d="M164-211l64-49" stroke-width="8.8" stroke="#fffDC"/><path d="M128-237l28-75" stroke-width="8.8" stroke="#fffDD"/><path d="M78-238l-22-76" stroke-width="8.9" stroke="#fff500DE"/><path d="M158-109l57 54" stroke-width="8.9" stroke="#005bbbDE"/><path d="M116-235l17-72" stroke-width="9.0" stroke="#fffE2"/><path d="M73-95l-27 67" stroke-width="9.0" stroke="#c2e1ffE4"/><path d="M51-216l-49-53" stroke-width="9.1" stroke="#005bbbE4"/><path d="M170-161l71 2" stroke-width="9.1" stroke="#fff500E5"/><path d="M39-190l-62-27" stroke-width="9.2" stroke="#005bbbE8"/><path d="M124-104l24 59" stroke-width="9.3" stroke="#c2e1ffEA"/><path d="M110-109l10 54" stroke-width="9.5" stroke="#c2e1ffF0"/><path d="M122-211l21-49" stroke-width="9.5" stroke="#fffF1"/><path d="M99-110l-2 53" stroke-width="9.5" stroke="#fff500F1"/><path d="M50-151l-50 12" stroke-width="9.6" stroke="#fff500F2"/><path d="M77-121l-22 42" stroke-width="9.6" stroke="#fffF4"/><path d="M126-200l25-37" stroke-width="9.7" stroke="#c2e1ffF5"/><path d="M76-197l-24-35" stroke-width="9.7" stroke="#005bbbF6"/><path d="M109-126l9 37" stroke-width="9.8" stroke="#c2e1ffF8"/><path d="M112-130l13 33" stroke-width="9.8" stroke="#005bbbF9"/><path d="M125-173l24-10" stroke-width="9.9" stroke="#c2e1ffFB"/><path d="M86-153l-14 9" stroke-width="10.0" stroke="#fffFD"/><path d="M103-166l3-3" stroke-width="10.0" stroke="#c2e1ffFE"/></g></svg>