<svg width="1200" height="675" viewBox="-500 -500 1200 675" xmlns="http://www.w3.org/2000/svg"><path d="M-500-500h1200v675h-1200z" fill="#000"/><style>.sparkles path{stroke-linecap:round}</style><g class="sparkles"><path d="M86-152l-14 10" stroke-width="1.0" stroke="#005bbb1"/><path d="M78-164l-22-1" stroke-width="1.1" stroke="#c2e1ff2"/><path d="M123-160l22 3" stroke-width="1.1" stroke="#fff5002"/><path d="M82-135l-17 27" stroke-width="1.2" stroke="#fff5004"/><path d="M108-194l9-32" stroke-width="1.2" stroke="#005bbb4"/><path d="M121-137l22 25" stroke-width="1.2" stroke="#fff5005"/><path d="M131-147l31 16" stroke-width="1.2" stroke="#fff5"/><path d="M134-183l34-20" stroke-width="1.3" stroke="#fff5007"/><path d="M94-204l-6-41" stroke-width="1.3" stroke="#c2e1ff8"/><path d="M95-208l-5-46" stroke-width="1.4" stroke="#c2e1ff9"/><path d="M143-146l43 16" stroke-width="1.4" stroke="#fffA"/><path d="M112-208l11-46" stroke-width="1.4" stroke="#fffA"/><path d="M96-210l-4-47" stroke-width="1.4" stroke="#005bbbA"/><path d="M51-184l-48-22" stroke-width="1.5" stroke="#fffD"/><path d="M141-128l42 35" stroke-width="1.5" stroke="#c2e1ffE"/><path d="M153-179l53-16" stroke-width="1.5" stroke="#c2e1ffE"/><path d="M44-158l-56 4" stroke-width="1.5" stroke="#fff500F"/><path d="M57-125l-42 37" stroke-width="1.5" stroke="#005bbbF"/><path d="M87-228l-12-65" stroke-width="1.8" stroke="#fff50016"/><path d="M170-172l71-10" stroke-width="1.9" stroke="#005bbb19"/><path d="M50-103l-50 59" stroke-width="2.1" stroke="#c2e1ff1F"/><path d="M60-230l-40-67" stroke-width="2.1" stroke="#fff50020"/><path d="M119-240l19-77" stroke-width="2.2" stroke="#fff21"/><path d="M187-161l86 1" stroke-width="2.4" stroke="#005bbb28"/><path d="M148-240l48-77" stroke-width="2.6" stroke="#fff2E"/><path d="M59-244l-41-81" stroke-width="2.6" stroke="#fff5002E"/><path d="M113-253l14-91" stroke-width="2.7" stroke="#fff2E"/><path d="M12-137l-88 26" stroke-width="2.7" stroke="#c2e1ff2F"/><path d="M140-78l41 85" stroke-width="2.8" stroke="#fff32"/><path d="M6-147l-94 16" stroke-width="2.8" stroke="#c2e1ff34"/><path d="M104-65l4 98" stroke-width="3.0" stroke="#fff50038"/><path d="M7-130l-93 32" stroke-width="3.0" stroke="#fff50039"/><path d="M197-188l96-26" stroke-width="3.1" stroke="#fff3B"/><path d="M201-168l101-6" stroke-width="3.2" stroke="#fff5003D"/><path d="M6-204l-93-41" stroke-width="3.3" stroke="#c2e1ff3F"/><path d="M11-111l-90 52" stroke-width="3.3" stroke="#c2e1ff41"/><path d="M-5-167l-105-5" stroke-width="3.5" stroke="#005bbb45"/><path d="M130-61l29 102" stroke-width="3.5" stroke="#c2e1ff47"/><path d="M207-156l106 7" stroke-width="3.6" stroke="#fff50049"/><path d="M-1-125l-100 38" stroke-width="3.6" stroke="#fff4A"/><path d="M80-57l-20 106" stroke-width="3.7" stroke="#c2e1ff4B"/><path d="M40-253l-61-91" stroke-width="3.8" stroke="#fff4E"/><path d="M101-272l2-109" stroke-width="3.8" stroke="#005bbb4E"/><path d="M74-55l-25 108" stroke-width="3.9" stroke="#c2e1ff52"/><path d="M18-238l-83-75" stroke-width="4.0" stroke="#fff55"/><path d="M25-79l-74 83" stroke-width="4.0" stroke="#fff56"/><path d="M1-214l-100-52" stroke-width="4.1" stroke="#c2e1ff57"/><path d="M96-50l-4 112" stroke-width="4.1" stroke="#fff58"/><path d="M211-144l112 18" stroke-width="4.2" stroke="#fff50059"/><path d="M37-256l-63-93" stroke-width="4.2" stroke="#c2e1ff59"/><path d="M-7-125l-106 37" stroke-width="4.2" stroke="#005bbb5A"/><path d="M198-219l99-57" stroke-width="4.3" stroke="#c2e1ff5C"/><path d="M94-49l-6 114" stroke-width="4.3" stroke="#fff5005D"/><path d="M203-211l104-48" stroke-width="4.3" stroke="#fff5E"/><path d="M16-241l-84-78" stroke-width="4.5" stroke="#fff50062"/><path d="M151-59l52 103" stroke-width="4.5" stroke="#fff63"/><path d="M216-163l115 0" stroke-width="4.6" stroke="#fff50065"/><path d="M101-47l0 116" stroke-width="4.6" stroke="#005bbb66"/><path d="M6-231l-94-68" stroke-width="4.7" stroke="#fff67"/><path d="M204-216l103-53" stroke-width="4.7" stroke="#005bbb69"/><path d="M112-279l11-116" stroke-width="4.9" stroke="#c2e1ff6E"/><path d="M-2-105l-103 57" stroke-width="5.0" stroke="#005bbb70"/><path d="M150-57l51 106" stroke-width="5.0" stroke="#fff50071"/><path d="M215-188l115-25" stroke-width="5.1" stroke="#fff75"/><path d="M100-280l0-118" stroke-width="5.2" stroke="#005bbb75"/><path d="M133-49l33 113" stroke-width="5.3" stroke="#005bbb78"/><path d="M-12-200l-112-38" stroke-width="5.3" stroke="#c2e1ff79"/><path d="M192-236l92-74" stroke-width="5.3" stroke="#fff7A"/><path d="M43-266l-57-104" stroke-width="5.4" stroke="#fff5007B"/><path d="M97-44l-2 118" stroke-width="5.4" stroke="#fff7C"/><path d="M119-279l20-117" stroke-width="5.4" stroke="#fff5007D"/><path d="M47-268l-53-106" stroke-width="5.5" stroke="#c2e1ff7F"/><path d="M2-228l-98-66" stroke-width="5.5" stroke="#005bbb7F"/><path d="M217-180l117-17" stroke-width="5.5" stroke="#fff80"/><path d="M8-237l-92-74" stroke-width="5.6" stroke="#c2e1ff80"/><path d="M162-62l62 100" stroke-width="5.7" stroke="#c2e1ff83"/><path d="M171-68l72 94" stroke-width="5.7" stroke="#005bbb84"/><path d="M174-255l74-92" stroke-width="5.7" stroke="#005bbb85"/><path d="M130-48l30 114" stroke-width="5.7" stroke="#fff50086"/><path d="M38-263l-61-101" stroke-width="5.8" stroke="#c2e1ff86"/><path d="M62-274l-37-112" stroke-width="5.8" stroke="#fff50086"/><path d="M174-254l73-92" stroke-width="5.8" stroke="#c2e1ff89"/><path d="M215-136l115 26" stroke-width="5.8" stroke="#fff50089"/><path d="M146-271l47-108" stroke-width="5.9" stroke="#005bbb8B"/><path d="M53-55l-46 108" stroke-width="6.0" stroke="#fff5008C"/><path d="M215-136l114 26" stroke-width="6.0" stroke="#005bbb8C"/><path d="M5-231l-95-69" stroke-width="6.0" stroke="#fff5008D"/><path d="M67-275l-33-112" stroke-width="6.1" stroke="#c2e1ff90"/><path d="M33-258l-67-96" stroke-width="6.1" stroke="#005bbb90"/><path d="M143-55l43 108" stroke-width="6.3" stroke="#fff97"/><path d="M-15-177l-115-14" stroke-width="6.4" stroke="#fff98"/><path d="M8-92l-91 71" stroke-width="6.4" stroke="#c2e1ff98"/><path d="M184-83l84 80" stroke-width="6.4" stroke="#005bbb98"/><path d="M-9-125l-109 38" stroke-width="6.4" stroke="#fff50099"/><path d="M90-48l-10 115" stroke-width="6.5" stroke="#fff5009C"/><path d="M111-277l10-114" stroke-width="6.6" stroke="#fff9D"/><path d="M206-201l107-39" stroke-width="6.8" stroke="#c2e1ffA3"/><path d="M213-157l113 6" stroke-width="6.8" stroke="#fff500A4"/><path d="M-4-118l-104 44" stroke-width="6.8" stroke="#c2e1ffA4"/><path d="M36-255l-63-93" stroke-width="6.9" stroke="#c2e1ffA6"/><path d="M8-99l-93 64" stroke-width="6.9" stroke="#fffA7"/><path d="M147-61l46 102" stroke-width="6.9" stroke="#fffA8"/><path d="M28-248l-72-86" stroke-width="6.9" stroke="#005bbbA8"/><path d="M77-271l-23-109" stroke-width="7.0" stroke="#005bbbAA"/><path d="M142-265l43-102" stroke-width="7.1" stroke="#c2e1ffAB"/><path d="M201-118l101 45" stroke-width="7.1" stroke="#c2e1ffAC"/><path d="M4-215l-97-53" stroke-width="7.1" stroke="#005bbbAD"/><path d="M-10-162l-109 1" stroke-width="7.2" stroke="#fffAF"/><path d="M-3-127l-104 35" stroke-width="7.2" stroke="#fff500B0"/><path d="M104-271l5-109" stroke-width="7.2" stroke="#fffB0"/><path d="M101-54l1 109" stroke-width="7.3" stroke="#c2e1ffB1"/><path d="M12-225l-88-62" stroke-width="7.3" stroke="#fffB3"/><path d="M148-259l47-97" stroke-width="7.4" stroke="#005bbbB3"/><path d="M200-123l100 39" stroke-width="7.4" stroke="#fffB4"/><path d="M160-251l60-89" stroke-width="7.4" stroke="#c2e1ffB4"/><path d="M75-59l-25 104" stroke-width="7.4" stroke="#fffB5"/><path d="M207-164l106-2" stroke-width="7.4" stroke="#fff500B6"/><path d="M-6-157l-107 6" stroke-width="7.4" stroke="#fff500B6"/><path d="M205-148l105 14" stroke-width="7.5" stroke="#fffB7"/><path d="M180-93l79 69" stroke-width="7.5" stroke="#fffB8"/><path d="M11-219l-90-56" stroke-width="7.5" stroke="#c2e1ffB8"/><path d="M161-247l61-85" stroke-width="7.6" stroke="#fff500BA"/><path d="M33-243l-66-80" stroke-width="7.6" stroke="#fff500BB"/><path d="M59-69l-42 93" stroke-width="7.8" stroke="#fff500C0"/><path d="M178-225l78-63" stroke-width="7.9" stroke="#fff500C3"/><path d="M78-260l-22-97" stroke-width="7.9" stroke="#c2e1ffC3"/><path d="M50-247l-50-85" stroke-width="8.0" stroke="#c2e1ffC5"/><path d="M82-257l-18-95" stroke-width="8.1" stroke="#005bbbC9"/><path d="M4-160l-96 3" stroke-width="8.1" stroke="#c2e1ffC9"/><path d="M89-255l-10-93" stroke-width="8.2" stroke="#c2e1ffCD"/><path d="M75-73l-25 89" stroke-width="8.3" stroke="#c2e1ffCE"/><path d="M13-131l-86 31" stroke-width="8.3" stroke="#fffCF"/><path d="M172-105l72 57" stroke-width="8.3" stroke="#fffCF"/><path d="M8-159l-91 4" stroke-width="8.3" stroke="#fffCF"/><path d="M135-246l35-84" stroke-width="8.4" stroke="#fff500D0"/><path d="M110-253l10-90" stroke-width="8.4" stroke="#fff500D0"/><path d="M12-182l-89-20" stroke-width="8.4" stroke="#c2e1ffD1"/><path d="M186-136l87 27" stroke-width="8.4" stroke="#fffD1"/><path d="M190-162l90 0" stroke-width="8.4" stroke="#fffD1"/><path d="M147-86l47 77" stroke-width="8.4" stroke="#c2e1ffD2"/><path d="M27-215l-73-52" stroke-width="8.4" stroke="#fff500D2"/><path d="M16-133l-85 29" stroke-width="8.4" stroke="#c2e1ffD3"/><path d="M13-143l-87 20" stroke-width="8.5" stroke="#c2e1ffD3"/><path d="M125-77l25 85" stroke-width="8.5" stroke="#fffD3"/><path d="M118-249l17-87" stroke-width="8.5" stroke="#005bbbD4"/><path d="M160-103l60 59" stroke-width="8.7" stroke="#c2e1ffD8"/><path d="M99-79l-2 84" stroke-width="8.7" stroke="#005bbbD9"/><path d="M70-85l-30 78" stroke-width="8.7" stroke="#c2e1ffD9"/><path d="M26-127l-74 36" stroke-width="8.7" stroke="#c2e1ffDA"/><path d="M64-236l-36-73" stroke-width="8.7" stroke="#c2e1ffDB"/><path d="M113-243l14-81" stroke-width="8.7" stroke="#fff500DB"/><path d="M123-239l24-77" stroke-width="8.8" stroke="#fffDD"/><path d="M125-239l24-76" stroke-width="8.8" stroke="#fff500DD"/><path d="M43-107l-58 56" stroke-width="8.8" stroke="#fff500DD"/><path d="M20-166l-79-3" stroke-width="8.8" stroke="#fff500DD"/><path d="M109-84l9 78" stroke-width="8.9" stroke="#c2e1ffDE"/><path d="M43-208l-57-46" stroke-width="9.0" stroke="#c2e1ffE3"/><path d="M140-104l40 59" stroke-width="9.1" stroke="#fff500E5"/><path d="M140-108l40 55" stroke-width="9.2" stroke="#005bbbE8"/><path d="M143-214l43-51" stroke-width="9.2" stroke="#c2e1ffE8"/><path d="M60-110l-40 53" stroke-width="9.2" stroke="#c2e1ffE8"/><path d="M44-191l-55-28" stroke-width="9.3" stroke="#fff500EB"/><path d="M121-103l20 59" stroke-width="9.3" stroke="#fff500EB"/><path d="M40-180l-59-18" stroke-width="9.3" stroke="#c2e1ffEB"/><path d="M70-111l-29 52" stroke-width="9.4" stroke="#c2e1ffED"/><path d="M120-214l20-51" stroke-width="9.5" stroke="#fff500F0"/><path d="M151-175l51-12" stroke-width="9.5" stroke="#fff500F1"/><path d="M145-188l45-25" stroke-width="9.5" stroke="#005bbbF2"/><path d="M150-163l50 0" stroke-width="9.6" stroke="#005bbbF2"/><path d="M93-207l-7-45" stroke-width="9.7" stroke="#fffF5"/><path d="M57-152l-43 10" stroke-width="9.7" stroke="#fffF5"/><path d="M138-142l39 20" stroke-width="9.7" stroke="#005bbbF6"/><path d="M74-194l-25-32" stroke-width="9.7" stroke="#fff500F7"/><path d="M126-149l26 13" stroke-width="9.9" stroke="#fff500FB"/><path d="M92-135l-9 28" stroke-width="9.9" stroke="#c2e1ffFB"/><path d="M97-143l-2 20" stroke-width="9.9" stroke="#005bbbFD"/><path d="M106-181l5-19" stroke-width="9.9" stroke="#005bbbFD"/><path d="M85-157l-14 6" stroke-width="10.0" stroke="#c2e1ffFD"/><path d="M98-177l-3-14" stroke-width="10.0" stroke="#fffFE"/><path d="M88-160l-13 3" stroke-width="10.0" stroke="#fffFE"/><path d="M101-167l0-5" stroke-width="10.0" stroke="#fffFE"/></g></svg>