<svg width="1200" height="675" viewBox="-500 -500 1200 675" xmlns="http://www.w3.org/2000/svg"><path d="M-500-500h1200v675h-1200z" fill="#000"/><style>.sparkles path{stroke-linecap:round}</style><g class="sparkles"><path d="M92-174l-8-12" stroke-width="1.0" stroke="#c2e1ff0"/><path d="M123-171l22-9" stroke-width="1.1" stroke="#fff5002"/><path d="M140-164l40-1" stroke-width="1.3" stroke="#005bbb7"/><path d="M58-156l-42 6" stroke-width="1.3" stroke="#fff5008"/><path d="M141-194l42-31" stroke-width="1.5" stroke="#fffC"/><path d="M47-159l-52 3" stroke-width="1.5" stroke="#fff500D"/><path d="M50-136l-50 26" stroke-width="1.5" stroke="#c2e1ffF"/><path d="M43-164l-57-1" stroke-width="1.6" stroke="#005bbbF"/><path d="M70-213l-29-50" stroke-width="1.6" stroke="#c2e1ff10"/><path d="M126-218l25-55" stroke-width="1.6" stroke="#fff12"/><path d="M55-121l-46 42" stroke-width="1.7" stroke="#c2e1ff12"/><path d="M161-155l62 7" stroke-width="1.7" stroke="#005bbb12"/><path d="M152-199l52-37" stroke-width="1.7" stroke="#fff14"/><path d="M42-132l-57 31" stroke-width="1.7" stroke="#c2e1ff15"/><path d="M48-209l-53-47" stroke-width="1.9" stroke="#fff18"/><path d="M165-191l64-29" stroke-width="1.9" stroke="#fff19"/><path d="M157-207l57-45" stroke-width="1.9" stroke="#005bbb1A"/><path d="M26-173l-74-10" stroke-width="2.0" stroke="#c2e1ff1C"/><path d="M170-195l69-33" stroke-width="2.1" stroke="#fff1E"/><path d="M44-108l-56 55" stroke-width="2.1" stroke="#fff5001F"/><path d="M35-210l-65-47" stroke-width="2.2" stroke="#005bbb22"/><path d="M181-162l82 0" stroke-width="2.2" stroke="#fff23"/><path d="M68-239l-31-76" stroke-width="2.3" stroke="#005bbb24"/><path d="M61-236l-39-73" stroke-width="2.3" stroke="#005bbb24"/><path d="M97-246l-3-83" stroke-width="2.3" stroke="#005bbb24"/><path d="M76-243l-25-81" stroke-width="2.4" stroke="#c2e1ff26"/><path d="M17-146l-83 16" stroke-width="2.4" stroke="#fff26"/><path d="M149-92l50 70" stroke-width="2.4" stroke="#c2e1ff27"/><path d="M162-98l61 64" stroke-width="2.5" stroke="#005bbb2B"/><path d="M11-171l-89-8" stroke-width="2.6" stroke="#005bbb2C"/><path d="M147-239l47-77" stroke-width="2.6" stroke="#fff2D"/><path d="M106-254l7-91" stroke-width="2.7" stroke="#005bbb2F"/><path d="M48-239l-52-76" stroke-width="2.7" stroke="#fff5002F"/><path d="M62-78l-37 85" stroke-width="2.7" stroke="#c2e1ff30"/><path d="M42-235l-59-72" stroke-width="2.7" stroke="#c2e1ff30"/><path d="M161-91l60 72" stroke-width="2.8" stroke="#c2e1ff32"/><path d="M109-68l8 94" stroke-width="2.8" stroke="#fff33"/><path d="M51-81l-49 82" stroke-width="2.9" stroke="#c2e1ff34"/><path d="M145-249l44-86" stroke-width="3.0" stroke="#fff50037"/><path d="M147-75l47 87" stroke-width="3.1" stroke="#005bbb3A"/><path d="M55-74l-45 89" stroke-width="3.1" stroke="#c2e1ff3A"/><path d="M147-250l47-88" stroke-width="3.1" stroke="#005bbb3A"/><path d="M199-170l100-8" stroke-width="3.1" stroke="#005bbb3A"/><path d="M73-259l-26-96" stroke-width="3.1" stroke="#005bbb3B"/><path d="M127-259l27-97" stroke-width="3.1" stroke="#005bbb3C"/><path d="M200-148l100 14" stroke-width="3.2" stroke="#c2e1ff3D"/><path d="M177-98l78 64" stroke-width="3.2" stroke="#fff3D"/><path d="M105-265l5-102" stroke-width="3.2" stroke="#c2e1ff3F"/><path d="M-1-181l-101-19" stroke-width="3.3" stroke="#fff41"/><path d="M195-120l95 42" stroke-width="3.4" stroke="#fff42"/><path d="M116-266l16-104" stroke-width="3.4" stroke="#005bbb44"/><path d="M8-109l-92 53" stroke-width="3.5" stroke="#fff47"/><path d="M206-152l106 10" stroke-width="3.5" stroke="#c2e1ff48"/><path d="M104-56l3 107" stroke-width="3.6" stroke="#c2e1ff49"/><path d="M-8-161l-108 2" stroke-width="3.7" stroke="#c2e1ff4C"/><path d="M177-87l77 76" stroke-width="3.7" stroke="#fff4C"/><path d="M-5-135l-105 27" stroke-width="3.7" stroke="#005bbb4C"/><path d="M50-260l-49-98" stroke-width="3.8" stroke="#fff50050"/><path d="M192-101l91 61" stroke-width="3.9" stroke="#fff50051"/><path d="M147-262l48-100" stroke-width="3.9" stroke="#fff50052"/><path d="M203-203l103-41" stroke-width="3.9" stroke="#005bbb53"/><path d="M22-83l-78 80" stroke-width="4.0" stroke="#fff55"/><path d="M138-268l38-106" stroke-width="4.1" stroke="#c2e1ff58"/><path d="M205-203l105-41" stroke-width="4.1" stroke="#fff59"/><path d="M61-269l-40-106" stroke-width="4.2" stroke="#fff5005B"/><path d="M-13-172l-113-9" stroke-width="4.3" stroke="#fff5C"/><path d="M104-276l4-114" stroke-width="4.3" stroke="#fff5E"/><path d="M194-228l94-65" stroke-width="4.4" stroke="#c2e1ff60"/><path d="M117-276l18-114" stroke-width="4.5" stroke="#c2e1ff62"/><path d="M-8-121l-107 41" stroke-width="4.5" stroke="#c2e1ff64"/><path d="M215-169l116-7" stroke-width="4.6" stroke="#fff65"/><path d="M85-277l-16-115" stroke-width="4.6" stroke="#fff50066"/><path d="M202-108l103 54" stroke-width="4.6" stroke="#fff50066"/><path d="M177-76l78 86" stroke-width="4.7" stroke="#fff50067"/><path d="M213-188l113-26" stroke-width="4.7" stroke="#005bbb67"/><path d="M57-55l-43 108" stroke-width="4.7" stroke="#c2e1ff67"/><path d="M126-276l27-114" stroke-width="4.8" stroke="#fff5006B"/><path d="M216-178l116-15" stroke-width="4.8" stroke="#c2e1ff6C"/><path d="M-13-132l-113 30" stroke-width="4.9" stroke="#005bbb6D"/><path d="M217-168l117-6" stroke-width="4.9" stroke="#005bbb6E"/><path d="M80-47l-19 116" stroke-width="5.0" stroke="#fff50071"/><path d="M213-130l113 32" stroke-width="5.0" stroke="#c2e1ff71"/><path d="M129-49l29 114" stroke-width="5.1" stroke="#c2e1ff72"/><path d="M-17-170l-118-7" stroke-width="5.1" stroke="#fff50072"/><path d="M217-172l117-10" stroke-width="5.1" stroke="#005bbb73"/><path d="M13-242l-86-80" stroke-width="5.1" stroke="#005bbb73"/><path d="M-15-187l-115-25" stroke-width="5.1" stroke="#005bbb74"/><path d="M-11-202l-111-39" stroke-width="5.1" stroke="#005bbb75"/><path d="M196-94l96 69" stroke-width="5.2" stroke="#fff75"/><path d="M122-47l23 116" stroke-width="5.2" stroke="#fff50076"/><path d="M134-50l35 113" stroke-width="5.2" stroke="#c2e1ff76"/><path d="M145-54l45 109" stroke-width="5.2" stroke="#fff78"/><path d="M0-100l-101 62" stroke-width="5.2" stroke="#fff50078"/><path d="M97-45l-4 118" stroke-width="5.3" stroke="#005bbb7A"/><path d="M218-172l117-9" stroke-width="5.3" stroke="#fff5007A"/><path d="M169-66l68 96" stroke-width="5.3" stroke="#005bbb7A"/><path d="M-15-136l-115 26" stroke-width="5.3" stroke="#005bbb7B"/><path d="M212-124l111 39" stroke-width="5.4" stroke="#fff7C"/><path d="M4-231l-96-69" stroke-width="5.4" stroke="#005bbb7C"/><path d="M175-254l75-91" stroke-width="5.5" stroke="#fff80"/><path d="M173-70l73 93" stroke-width="5.7" stroke="#fff50085"/><path d="M28-69l-72 93" stroke-width="5.7" stroke="#c2e1ff86"/><path d="M184-245l84-83" stroke-width="5.8" stroke="#fff50086"/><path d="M12-240l-88-78" stroke-width="5.9" stroke="#fff5008A"/><path d="M79-278l-21-116" stroke-width="5.9" stroke="#005bbb8A"/><path d="M116-279l17-116" stroke-width="6.0" stroke="#c2e1ff8C"/><path d="M3-228l-97-65" stroke-width="6.1" stroke="#fff91"/><path d="M186-83l85 79" stroke-width="6.2" stroke="#fff92"/><path d="M92-46l-7 116" stroke-width="6.2" stroke="#fff50094"/><path d="M-14-139l-114 24" stroke-width="6.3" stroke="#fff95"/><path d="M2-224l-98-61" stroke-width="6.4" stroke="#fff98"/><path d="M212-132l112 30" stroke-width="6.4" stroke="#fff98"/><path d="M10-90l-90 72" stroke-width="6.5" stroke="#c2e1ff9A"/><path d="M3-101l-97 62" stroke-width="6.5" stroke="#fff9B"/><path d="M43-63l-58 100" stroke-width="6.5" stroke="#005bbb9C"/><path d="M205-209l104-46" stroke-width="6.6" stroke="#fff9E"/><path d="M213-180l113-18" stroke-width="6.6" stroke="#005bbb9F"/><path d="M-8-125l-108 37" stroke-width="6.6" stroke="#005bbb9F"/><path d="M50-60l-50 102" stroke-width="6.7" stroke="#fff500A0"/><path d="M40-260l-59-97" stroke-width="6.7" stroke="#c2e1ffA0"/><path d="M180-81l79 81" stroke-width="6.7" stroke="#fffA2"/><path d="M18-240l-82-78" stroke-width="6.8" stroke="#fff500A4"/><path d="M44-261l-56-98" stroke-width="6.8" stroke="#fff500A4"/><path d="M202-210l103-48" stroke-width="6.8" stroke="#fff500A5"/><path d="M177-81l77 82" stroke-width="6.9" stroke="#005bbbA7"/><path d="M35-254l-64-92" stroke-width="6.9" stroke="#005bbbA7"/><path d="M121-273l21-110" stroke-width="6.9" stroke="#005bbbA7"/><path d="M203-119l103 43" stroke-width="7.0" stroke="#005bbbA8"/><path d="M23-82l-77 81" stroke-width="7.0" stroke="#005bbbA9"/><path d="M208-137l108 26" stroke-width="7.0" stroke="#fff500AB"/><path d="M-10-176l-110-14" stroke-width="7.0" stroke="#fff500AB"/><path d="M161-70l62 92" stroke-width="7.1" stroke="#005bbbAB"/><path d="M211-156l110 7" stroke-width="7.1" stroke="#c2e1ffAB"/><path d="M47-258l-53-96" stroke-width="7.2" stroke="#005bbbAF"/><path d="M85-270l-15-107" stroke-width="7.3" stroke="#c2e1ffB1"/><path d="M77-57l-24 106" stroke-width="7.3" stroke="#c2e1ffB2"/><path d="M134-265l34-102" stroke-width="7.4" stroke="#c2e1ffB4"/><path d="M75-267l-25-105" stroke-width="7.4" stroke="#fffB4"/><path d="M207-174l107-12" stroke-width="7.4" stroke="#fff500B4"/><path d="M165-77l64 86" stroke-width="7.4" stroke="#c2e1ffB4"/><path d="M47-255l-53-92" stroke-width="7.4" stroke="#005bbbB6"/><path d="M203-137l102 26" stroke-width="7.5" stroke="#005bbbB8"/><path d="M24-89l-76 73" stroke-width="7.5" stroke="#fff500B9"/><path d="M1-188l-100-25" stroke-width="7.7" stroke="#005bbbBE"/><path d="M31-89l-69 74" stroke-width="7.8" stroke="#c2e1ffC1"/><path d="M51-75l-50 87" stroke-width="7.9" stroke="#fffC3"/><path d="M42-81l-59 81" stroke-width="7.9" stroke="#fffC3"/><path d="M166-234l67-72" stroke-width="8.0" stroke="#fff500C7"/><path d="M165-235l66-72" stroke-width="8.0" stroke="#005bbbC7"/><path d="M186-120l87 42" stroke-width="8.1" stroke="#c2e1ffC9"/><path d="M74-254l-26-92" stroke-width="8.2" stroke="#fff500CA"/><path d="M191-182l90-19" stroke-width="8.3" stroke="#005bbbCE"/><path d="M23-213l-78-51" stroke-width="8.3" stroke="#005bbbCE"/><path d="M61-245l-40-83" stroke-width="8.3" stroke="#c2e1ffCF"/><path d="M158-92l59 71" stroke-width="8.3" stroke="#005bbbCF"/><path d="M14-184l-86-22" stroke-width="8.5" stroke="#fffD3"/><path d="M181-198l80-35" stroke-width="8.5" stroke="#fffD4"/><path d="M117-248l17-85" stroke-width="8.5" stroke="#c2e1ffD5"/><path d="M160-225l60-63" stroke-width="8.6" stroke="#c2e1ffD6"/><path d="M34-210l-66-48" stroke-width="8.8" stroke="#005bbbDB"/><path d="M99-85l0 78" stroke-width="8.9" stroke="#fff500DF"/><path d="M173-135l72 28" stroke-width="8.9" stroke="#fffDF"/><path d="M168-197l68-34" stroke-width="8.9" stroke="#fff500E1"/><path d="M119-90l18 73" stroke-width="9.0" stroke="#fffE1"/><path d="M39-202l-61-40" stroke-width="9.0" stroke="#005bbbE3"/><path d="M28-174l-71-11" stroke-width="9.1" stroke="#c2e1ffE4"/><path d="M30-165l-69-2" stroke-width="9.1" stroke="#fff500E6"/><path d="M166-180l67-17" stroke-width="9.2" stroke="#005bbbE7"/><path d="M134-221l34-59" stroke-width="9.2" stroke="#c2e1ffE7"/><path d="M52-203l-48-41" stroke-width="9.3" stroke="#fffEB"/><path d="M157-171l57-8" stroke-width="9.4" stroke="#fff500EE"/><path d="M124-207l25-44" stroke-width="9.6" stroke="#fffF2"/><path d="M142-189l42-27" stroke-width="9.6" stroke="#005bbbF3"/><path d="M119-205l20-42" stroke-width="9.6" stroke="#fff500F4"/><path d="M93-119l-6 44" stroke-width="9.7" stroke="#005bbbF5"/><path d="M70-188l-31-26" stroke-width="9.7" stroke="#c2e1ffF7"/><path d="M83-192l-18-30" stroke-width="9.8" stroke="#fffF9"/><path d="M90-130l-10 32" stroke-width="9.8" stroke="#c2e1ffF9"/><path d="M86-145l-14 17" stroke-width="9.9" stroke="#005bbbFC"/><path d="M110-181l9-19" stroke-width="9.9" stroke="#fff500FC"/><path d="M110-169l10-6" stroke-width="10.0" stroke="#c2e1ffFE"/></g></svg>