<svg width="1200" height="675" viewBox="-500 -500 1200 675" xmlns="http://www.w3.org/2000/svg"><path d="M-500-500h1200v675h-1200z" fill="#000"/><style>.sparkles path{stroke-linecap:round}</style><g class="sparkles"><path d="M84-174l-15-11" stroke-width="1.1" stroke="#fff5001"/><path d="M88-177l-12-15" stroke-width="1.1" stroke="#005bbb1"/><path d="M107-186l8-24" stroke-width="1.1" stroke="#c2e1ff2"/><path d="M105-187l5-25" stroke-width="1.1" stroke="#005bbb2"/><path d="M107-196l7-33" stroke-width="1.2" stroke="#fff5"/><path d="M134-200l33-37" stroke-width="1.4" stroke="#fff500B"/><path d="M50-170l-51-7" stroke-width="1.4" stroke="#fff500C"/><path d="M143-131l44 31" stroke-width="1.5" stroke="#c2e1ffD"/><path d="M153-183l53-21" stroke-width="1.6" stroke="#fffF"/><path d="M145-126l45 36" stroke-width="1.6" stroke="#fff50010"/><path d="M119-218l18-56" stroke-width="1.6" stroke="#fff10"/><path d="M42-180l-58-17" stroke-width="1.6" stroke="#fff11"/><path d="M162-162l61 0" stroke-width="1.7" stroke="#fff12"/><path d="M77-220l-24-57" stroke-width="1.7" stroke="#fff12"/><path d="M168-171l67-9" stroke-width="1.8" stroke="#005bbb17"/><path d="M169-176l70-14" stroke-width="1.9" stroke="#fff19"/><path d="M160-202l61-39" stroke-width="1.9" stroke="#fff1A"/><path d="M172-155l72 7" stroke-width="1.9" stroke="#c2e1ff1A"/><path d="M159-116l59 47" stroke-width="2.0" stroke="#fff1D"/><path d="M49-224l-51-61" stroke-width="2.2" stroke="#c2e1ff21"/><path d="M47-103l-53 60" stroke-width="2.2" stroke="#c2e1ff21"/><path d="M175-132l76 30" stroke-width="2.2" stroke="#005bbb22"/><path d="M87-245l-13-82" stroke-width="2.3" stroke="#005bbb24"/><path d="M182-177l83-15" stroke-width="2.3" stroke="#c2e1ff25"/><path d="M22-199l-78-37" stroke-width="2.4" stroke="#005bbb28"/><path d="M175-206l75-43" stroke-width="2.4" stroke="#005bbb28"/><path d="M170-214l69-52" stroke-width="2.4" stroke="#fff50028"/><path d="M18-128l-82 35" stroke-width="2.5" stroke="#fff5002B"/><path d="M108-252l8-89" stroke-width="2.6" stroke="#005bbb2C"/><path d="M44-91l-55 72" stroke-width="2.6" stroke="#c2e1ff2D"/><path d="M188-138l87 24" stroke-width="2.6" stroke="#fff5002E"/><path d="M120-252l20-89" stroke-width="2.6" stroke="#005bbb2E"/><path d="M68-77l-32 86" stroke-width="2.7" stroke="#fff2E"/><path d="M190-145l90 18" stroke-width="2.7" stroke="#c2e1ff2F"/><path d="M70-74l-30 88" stroke-width="2.7" stroke="#005bbb30"/><path d="M148-242l47-80" stroke-width="2.7" stroke="#fff50030"/><path d="M193-170l93-8" stroke-width="2.7" stroke="#fff50030"/><path d="M54-80l-46 82" stroke-width="2.8" stroke="#c2e1ff33"/><path d="M170-227l71-64" stroke-width="2.8" stroke="#c2e1ff34"/><path d="M111-67l11 96" stroke-width="2.9" stroke="#c2e1ff35"/><path d="M110-67l10 96" stroke-width="2.9" stroke="#fff35"/><path d="M197-160l96 2" stroke-width="2.9" stroke="#fff36"/><path d="M146-248l46-85" stroke-width="2.9" stroke="#005bbb36"/><path d="M5-187l-94-25" stroke-width="3.0" stroke="#c2e1ff37"/><path d="M169-92l68 70" stroke-width="3.0" stroke="#c2e1ff38"/><path d="M196-187l95-25" stroke-width="3.0" stroke="#005bbb39"/><path d="M163-86l63 77" stroke-width="3.1" stroke="#fff5003A"/><path d="M15-216l-86-53" stroke-width="3.1" stroke="#fff3C"/><path d="M60-256l-39-93" stroke-width="3.2" stroke="#fff3E"/><path d="M11-110l-90 53" stroke-width="3.4" stroke="#fff50042"/><path d="M202-140l103 23" stroke-width="3.4" stroke="#005bbb44"/><path d="M39-76l-61 86" stroke-width="3.5" stroke="#c2e1ff46"/><path d="M112-58l12 105" stroke-width="3.5" stroke="#fff46"/><path d="M20-233l-80-70" stroke-width="3.6" stroke="#fff50048"/><path d="M13-224l-88-61" stroke-width="3.6" stroke="#005bbb48"/><path d="M160-74l60 88" stroke-width="3.6" stroke="#fff50048"/><path d="M204-194l103-32" stroke-width="3.7" stroke="#005bbb4C"/><path d="M195-215l95-52" stroke-width="3.7" stroke="#fff4C"/><path d="M62-60l-39 103" stroke-width="3.8" stroke="#fff5004F"/><path d="M129-56l30 106" stroke-width="3.9" stroke="#c2e1ff52"/><path d="M123-271l23-108" stroke-width="3.9" stroke="#c2e1ff52"/><path d="M109-52l9 110" stroke-width="3.9" stroke="#005bbb53"/><path d="M193-226l92-63" stroke-width="4.1" stroke="#005bbb57"/><path d="M74-53l-27 110" stroke-width="4.2" stroke="#fff59"/><path d="M144-267l44-105" stroke-width="4.3" stroke="#fff5C"/><path d="M36-256l-64-94" stroke-width="4.3" stroke="#c2e1ff5C"/><path d="M18-84l-82 79" stroke-width="4.3" stroke="#005bbb5D"/><path d="M214-169l114-7" stroke-width="4.3" stroke="#fff5005D"/><path d="M185-239l85-77" stroke-width="4.4" stroke="#c2e1ff60"/><path d="M61-55l-40 108" stroke-width="4.5" stroke="#c2e1ff61"/><path d="M83-277l-16-114" stroke-width="4.5" stroke="#fff50063"/><path d="M-10-126l-109 36" stroke-width="4.5" stroke="#fff50064"/><path d="M-10-197l-111-35" stroke-width="4.6" stroke="#fff50065"/><path d="M50-58l-50 104" stroke-width="4.6" stroke="#c2e1ff65"/><path d="M145-269l46-107" stroke-width="4.6" stroke="#fff50066"/><path d="M213-187l114-24" stroke-width="4.7" stroke="#fff67"/><path d="M44-264l-56-102" stroke-width="4.7" stroke="#c2e1ff67"/><path d="M22-76l-78 86" stroke-width="4.7" stroke="#fff50068"/><path d="M181-247l80-84" stroke-width="4.7" stroke="#005bbb6A"/><path d="M92-279l-7-116" stroke-width="4.8" stroke="#c2e1ff6B"/><path d="M216-169l117-7" stroke-width="4.8" stroke="#005bbb6B"/><path d="M11-87l-89 75" stroke-width="4.8" stroke="#fff6B"/><path d="M60-52l-40 110" stroke-width="5.0" stroke="#fff6F"/><path d="M3-97l-97 66" stroke-width="5.0" stroke="#c2e1ff70"/><path d="M25-253l-75-90" stroke-width="5.0" stroke="#fff72"/><path d="M17-79l-83 83" stroke-width="5.0" stroke="#fff72"/><path d="M-11-202l-110-39" stroke-width="5.0" stroke="#fff50072"/><path d="M60-273l-40-111" stroke-width="5.2" stroke="#fff50076"/><path d="M212-199l112-37" stroke-width="5.2" stroke="#fff77"/><path d="M9-88l-91 75" stroke-width="5.2" stroke="#fff77"/><path d="M201-101l101 61" stroke-width="5.3" stroke="#c2e1ff79"/><path d="M28-69l-72 94" stroke-width="5.4" stroke="#c2e1ff7B"/><path d="M44-58l-55 104" stroke-width="5.4" stroke="#fff5007C"/><path d="M-11-203l-111-40" stroke-width="5.4" stroke="#fff5007D"/><path d="M-7-112l-106 51" stroke-width="5.4" stroke="#fff7D"/><path d="M91-45l-9 118" stroke-width="5.5" stroke="#c2e1ff7F"/><path d="M217-176l118-14" stroke-width="5.5" stroke="#fff5007F"/><path d="M36-262l-64-99" stroke-width="5.5" stroke="#fff80"/><path d="M173-256l72-93" stroke-width="5.6" stroke="#fff80"/><path d="M126-278l25-115" stroke-width="5.7" stroke="#fff50083"/><path d="M32-259l-68-96" stroke-width="5.7" stroke="#005bbb83"/><path d="M124-278l24-116" stroke-width="5.7" stroke="#fff50084"/><path d="M184-245l85-82" stroke-width="5.7" stroke="#fff50086"/><path d="M-17-149l-117 13" stroke-width="5.8" stroke="#c2e1ff87"/><path d="M189-240l89-77" stroke-width="5.8" stroke="#fff50087"/><path d="M16-245l-84-83" stroke-width="5.8" stroke="#fff88"/><path d="M206-111l106 51" stroke-width="5.8" stroke="#fff89"/><path d="M205-215l106-53" stroke-width="5.9" stroke="#fff89"/><path d="M199-226l99-64" stroke-width="5.9" stroke="#fff89"/><path d="M196-95l97 68" stroke-width="5.9" stroke="#fff8A"/><path d="M185-244l85-82" stroke-width="5.9" stroke="#fff5008A"/><path d="M190-87l91 75" stroke-width="5.9" stroke="#c2e1ff8B"/><path d="M129-276l29-114" stroke-width="6.0" stroke="#fff5008D"/><path d="M-17-162l-118 1" stroke-width="6.0" stroke="#fff8D"/><path d="M217-159l117 4" stroke-width="6.0" stroke="#005bbb8E"/><path d="M-14-136l-114 26" stroke-width="6.1" stroke="#fff8F"/><path d="M203-217l103-55" stroke-width="6.2" stroke="#fff50092"/><path d="M120-47l19 115" stroke-width="6.2" stroke="#005bbb92"/><path d="M56-270l-45-108" stroke-width="6.2" stroke="#fff50094"/><path d="M65-273l-36-111" stroke-width="6.3" stroke="#005bbb95"/><path d="M-4-215l-104-52" stroke-width="6.3" stroke="#c2e1ff96"/><path d="M15-83l-84 79" stroke-width="6.3" stroke="#005bbb97"/><path d="M210-199l110-36" stroke-width="6.4" stroke="#fff50097"/><path d="M171-253l71-91" stroke-width="6.5" stroke="#c2e1ff9A"/><path d="M198-223l99-60" stroke-width="6.5" stroke="#c2e1ff9B"/><path d="M79-49l-20 113" stroke-width="6.5" stroke="#005bbb9B"/><path d="M131-52l30 111" stroke-width="6.6" stroke="#c2e1ff9D"/><path d="M184-240l84-77" stroke-width="6.6" stroke="#fff9F"/><path d="M-14-166l-114-3" stroke-width="6.6" stroke="#fff5009F"/><path d="M174-249l75-87" stroke-width="6.7" stroke="#fffA0"/><path d="M211-138l111 25" stroke-width="6.7" stroke="#c2e1ffA1"/><path d="M17-85l-83 77" stroke-width="6.7" stroke="#fffA2"/><path d="M193-98l94 65" stroke-width="6.7" stroke="#fff500A2"/><path d="M178-245l77-83" stroke-width="6.8" stroke="#fff500A2"/><path d="M211-147l111 16" stroke-width="6.9" stroke="#005bbbA7"/><path d="M75-54l-25 109" stroke-width="7.0" stroke="#fffA9"/><path d="M-4-124l-103 39" stroke-width="7.1" stroke="#fff500AC"/><path d="M158-69l57 93" stroke-width="7.2" stroke="#c2e1ffAE"/><path d="M176-242l75-80" stroke-width="7.2" stroke="#005bbbAE"/><path d="M102-53l1 109" stroke-width="7.2" stroke="#005bbbB0"/><path d="M-8-155l-108 7" stroke-width="7.3" stroke="#c2e1ffB2"/><path d="M159-253l60-90" stroke-width="7.3" stroke="#fff500B2"/><path d="M-4-190l-105-28" stroke-width="7.3" stroke="#c2e1ffB2"/><path d="M6-111l-95 52" stroke-width="7.4" stroke="#fff500B3"/><path d="M143-64l42 98" stroke-width="7.4" stroke="#c2e1ffB5"/><path d="M118-268l18-105" stroke-width="7.4" stroke="#fff500B5"/><path d="M206-177l105-15" stroke-width="7.4" stroke="#fffB6"/><path d="M185-98l85 64" stroke-width="7.4" stroke="#fff500B6"/><path d="M74-265l-26-103" stroke-width="7.5" stroke="#fffB7"/><path d="M17-227l-82-64" stroke-width="7.6" stroke="#fff500BA"/><path d="M8-209l-92-47" stroke-width="7.7" stroke="#005bbbBD"/><path d="M80-61l-21 101" stroke-width="7.7" stroke="#fff500BD"/><path d="M46-76l-54 87" stroke-width="7.8" stroke="#005bbbBF"/><path d="M92-263l-7-101" stroke-width="7.8" stroke="#c2e1ffC1"/><path d="M182-222l81-59" stroke-width="7.8" stroke="#005bbbC1"/><path d="M124-64l23 98" stroke-width="7.8" stroke="#fff500C1"/><path d="M34-87l-67 75" stroke-width="7.9" stroke="#fff500C2"/><path d="M196-192l96-29" stroke-width="7.9" stroke="#fff500C3"/><path d="M165-93l65 70" stroke-width="8.2" stroke="#c2e1ffCA"/><path d="M84-254l-17-91" stroke-width="8.3" stroke="#fff500CE"/><path d="M123-249l23-86" stroke-width="8.4" stroke="#005bbbD2"/><path d="M133-243l33-80" stroke-width="8.5" stroke="#c2e1ffD5"/><path d="M116-78l17 85" stroke-width="8.6" stroke="#005bbbD6"/><path d="M20-136l-80 27" stroke-width="8.6" stroke="#c2e1ffD8"/><path d="M42-105l-58 58" stroke-width="8.7" stroke="#fffDB"/><path d="M173-198l73-35" stroke-width="8.8" stroke="#fffDC"/><path d="M51-227l-48-64" stroke-width="8.8" stroke="#fff500DC"/><path d="M90-83l-11 79" stroke-width="8.8" stroke="#fff500DD"/><path d="M51-214l-50-52" stroke-width="9.1" stroke="#fffE4"/><path d="M39-127l-60 35" stroke-width="9.1" stroke="#c2e1ffE6"/><path d="M108-97l7 65" stroke-width="9.2" stroke="#c2e1ffE9"/><path d="M36-171l-64-8" stroke-width="9.3" stroke="#c2e1ffEA"/><path d="M150-124l49 38" stroke-width="9.3" stroke="#c2e1ffEB"/><path d="M74-219l-27-56" stroke-width="9.3" stroke="#005bbbEB"/><path d="M155-136l55 26" stroke-width="9.4" stroke="#005bbbEC"/><path d="M73-121l-27 41" stroke-width="9.6" stroke="#fffF3"/><path d="M117-117l17 46" stroke-width="9.6" stroke="#c2e1ffF3"/><path d="M126-130l26 33" stroke-width="9.7" stroke="#fffF6"/><path d="M106-190l5-27" stroke-width="9.9" stroke="#c2e1ffFB"/><path d="M101-142l1 21" stroke-width="9.9" stroke="#005bbbFD"/><path d="M100-151l0 12" stroke-width="10.0" stroke="#c2e1ffFE"/></g></svg>