<svg width="1200" height="675" viewBox="-500 -500 1200 675" xmlns="http://www.w3.org/2000/svg"><path d="M-500-500h1200v675h-1200z" fill="#000"/><style>.sparkles path{stroke-linecap:round}</style><g class="sparkles"><path d="M106-176l5-13" stroke-width="1.0" stroke="#fff5000"/><path d="M90-146l-11 17" stroke-width="1.1" stroke="#c2e1ff1"/><path d="M86-141l-15 21" stroke-width="1.1" stroke="#fff3"/><path d="M131-165l32-3" stroke-width="1.2" stroke="#fff4"/><path d="M78-189l-22-27" stroke-width="1.2" stroke="#c2e1ff5"/><path d="M64-140l-35 22" stroke-width="1.3" stroke="#fff8"/><path d="M66-137l-34 25" stroke-width="1.3" stroke="#fff8"/><path d="M98-208l-2-46" stroke-width="1.4" stroke="#005bbbA"/><path d="M55-148l-46 14" stroke-width="1.4" stroke="#c2e1ffA"/><path d="M147-154l47 9" stroke-width="1.4" stroke="#fff500A"/><path d="M114-216l14-54" stroke-width="1.5" stroke="#c2e1ffF"/><path d="M158-156l58 7" stroke-width="1.6" stroke="#fff10"/><path d="M82-220l-17-57" stroke-width="1.6" stroke="#005bbb11"/><path d="M49-129l-51 33" stroke-width="1.6" stroke="#c2e1ff12"/><path d="M136-112l37 50" stroke-width="1.7" stroke="#fff12"/><path d="M47-204l-52-42" stroke-width="1.8" stroke="#c2e1ff16"/><path d="M133-224l33-62" stroke-width="1.9" stroke="#fff18"/><path d="M54-217l-46-54" stroke-width="1.9" stroke="#fff19"/><path d="M58-224l-41-62" stroke-width="2.0" stroke="#c2e1ff1C"/><path d="M125-234l24-71" stroke-width="2.0" stroke="#fff1D"/><path d="M141-226l41-64" stroke-width="2.1" stroke="#005bbb1D"/><path d="M179-188l79-25" stroke-width="2.3" stroke="#fff50024"/><path d="M95-78l-4 84" stroke-width="2.3" stroke="#005bbb26"/><path d="M95-74l-5 88" stroke-width="2.5" stroke="#005bbb2A"/><path d="M165-100l64 63" stroke-width="2.6" stroke="#005bbb2C"/><path d="M16-199l-83-36" stroke-width="2.6" stroke="#c2e1ff2E"/><path d="M166-98l65 64" stroke-width="2.7" stroke="#005bbb2F"/><path d="M114-254l15-92" stroke-width="2.7" stroke="#fff50030"/><path d="M10-188l-89-25" stroke-width="2.7" stroke="#fff50031"/><path d="M53-246l-48-83" stroke-width="2.9" stroke="#c2e1ff34"/><path d="M150-245l49-82" stroke-width="2.9" stroke="#fff35"/><path d="M5-145l-94 18" stroke-width="2.9" stroke="#fff50035"/><path d="M131-255l30-92" stroke-width="2.9" stroke="#005bbb37"/><path d="M105-65l5 97" stroke-width="3.0" stroke="#c2e1ff37"/><path d="M162-86l62 77" stroke-width="3.0" stroke="#005bbb39"/><path d="M124-65l25 97" stroke-width="3.1" stroke="#005bbb3B"/><path d="M57-254l-44-92" stroke-width="3.2" stroke="#fff3E"/><path d="M77-62l-23 101" stroke-width="3.3" stroke="#c2e1ff41"/><path d="M-2-144l-102 19" stroke-width="3.3" stroke="#005bbb42"/><path d="M11-108l-89 55" stroke-width="3.4" stroke="#005bbb44"/><path d="M204-148l105 14" stroke-width="3.5" stroke="#c2e1ff45"/><path d="M81-267l-18-104" stroke-width="3.5" stroke="#c2e1ff46"/><path d="M78-268l-22-106" stroke-width="3.7" stroke="#005bbb4C"/><path d="M99-271l-1-109" stroke-width="3.7" stroke="#fff4D"/><path d="M190-102l91 61" stroke-width="3.7" stroke="#005bbb4D"/><path d="M188-99l89 63" stroke-width="3.8" stroke="#fff4D"/><path d="M13-94l-86 68" stroke-width="3.9" stroke="#fff50051"/><path d="M189-229l89-66" stroke-width="3.9" stroke="#fff53"/><path d="M195-105l95 57" stroke-width="4.0" stroke="#fff53"/><path d="M-11-147l-110 15" stroke-width="4.0" stroke="#005bbb56"/><path d="M138-57l38 106" stroke-width="4.1" stroke="#005bbb57"/><path d="M210-187l109-25" stroke-width="4.1" stroke="#005bbb57"/><path d="M22-81l-77 82" stroke-width="4.1" stroke="#fff58"/><path d="M145-266l46-104" stroke-width="4.2" stroke="#005bbb5A"/><path d="M19-83l-81 79" stroke-width="4.2" stroke="#fff5B"/><path d="M-7-201l-108-38" stroke-width="4.3" stroke="#fff5005E"/><path d="M1-220l-98-58" stroke-width="4.4" stroke="#fff5005F"/><path d="M-14-174l-114-12" stroke-width="4.4" stroke="#c2e1ff60"/><path d="M-2-216l-103-53" stroke-width="4.6" stroke="#005bbb64"/><path d="M135-273l35-110" stroke-width="4.6" stroke="#fff50065"/><path d="M158-263l57-100" stroke-width="4.6" stroke="#fff50066"/><path d="M98-46l-1 116" stroke-width="4.7" stroke="#c2e1ff67"/><path d="M-11-128l-111 35" stroke-width="4.7" stroke="#fff68"/><path d="M207-117l107 46" stroke-width="4.7" stroke="#c2e1ff68"/><path d="M9-235l-91-72" stroke-width="4.7" stroke="#c2e1ff69"/><path d="M14-85l-87 78" stroke-width="4.7" stroke="#fff69"/><path d="M-14-184l-115-21" stroke-width="4.7" stroke="#fff50069"/><path d="M129-276l29-113" stroke-width="4.8" stroke="#fff5006B"/><path d="M204-216l104-53" stroke-width="4.8" stroke="#c2e1ff6C"/><path d="M74-276l-26-114" stroke-width="4.8" stroke="#005bbb6C"/><path d="M63-274l-37-111" stroke-width="4.9" stroke="#fff6E"/><path d="M121-47l20 115" stroke-width="4.9" stroke="#fff5006E"/><path d="M-10-123l-110 40" stroke-width="4.9" stroke="#005bbb6E"/><path d="M36-261l-63-98" stroke-width="4.9" stroke="#fff5006F"/><path d="M196-230l95-68" stroke-width="4.9" stroke="#fff5006F"/><path d="M166-260l66-97" stroke-width="5.0" stroke="#fff71"/><path d="M215-184l116-22" stroke-width="5.0" stroke="#005bbb72"/><path d="M135-275l36-112" stroke-width="5.1" stroke="#fff74"/><path d="M209-118l109 45" stroke-width="5.1" stroke="#fff50075"/><path d="M-17-146l-116 16" stroke-width="5.1" stroke="#fff75"/><path d="M-18-165l-118-2" stroke-width="5.2" stroke="#005bbb76"/><path d="M36-63l-64 99" stroke-width="5.2" stroke="#fff50077"/><path d="M83-279l-16-117" stroke-width="5.3" stroke="#c2e1ff78"/><path d="M107-45l7 118" stroke-width="5.3" stroke="#c2e1ff79"/><path d="M133-49l33 113" stroke-width="5.3" stroke="#005bbb79"/><path d="M169-259l68-96" stroke-width="5.4" stroke="#c2e1ff7C"/><path d="M124-278l24-116" stroke-width="5.4" stroke="#c2e1ff7C"/><path d="M200-225l100-63" stroke-width="5.4" stroke="#c2e1ff7D"/><path d="M155-267l55-105" stroke-width="5.5" stroke="#005bbb7F"/><path d="M82-279l-18-117" stroke-width="5.5" stroke="#c2e1ff80"/><path d="M180-250l79-87" stroke-width="5.6" stroke="#fff82"/><path d="M60-51l-39 111" stroke-width="5.6" stroke="#fff50083"/><path d="M-16-138l-115 24" stroke-width="5.6" stroke="#005bbb83"/><path d="M25-253l-75-91" stroke-width="5.7" stroke="#005bbb84"/><path d="M84-46l-16 117" stroke-width="5.7" stroke="#005bbb85"/><path d="M206-111l106 51" stroke-width="5.8" stroke="#fff50088"/><path d="M217-170l117-7" stroke-width="6.0" stroke="#fff8D"/><path d="M212-197l112-35" stroke-width="6.0" stroke="#005bbb8D"/><path d="M173-71l74 92" stroke-width="6.0" stroke="#005bbb8E"/><path d="M35-260l-65-98" stroke-width="6.1" stroke="#fff5008F"/><path d="M210-204l109-41" stroke-width="6.1" stroke="#005bbb91"/><path d="M98-279l-2-117" stroke-width="6.2" stroke="#fff92"/><path d="M217-162l117 0" stroke-width="6.2" stroke="#c2e1ff92"/><path d="M11-87l-89 75" stroke-width="6.2" stroke="#fff50093"/><path d="M55-269l-45-107" stroke-width="6.3" stroke="#fff97"/><path d="M152-59l52 104" stroke-width="6.4" stroke="#fff50097"/><path d="M186-85l87 77" stroke-width="6.4" stroke="#fff50098"/><path d="M202-218l101-55" stroke-width="6.4" stroke="#c2e1ff9A"/><path d="M202-109l102 54" stroke-width="6.5" stroke="#fff9B"/><path d="M-12-186l-113-23" stroke-width="6.6" stroke="#fff9E"/><path d="M-14-169l-114-7" stroke-width="6.7" stroke="#fffA0"/><path d="M84-50l-17 113" stroke-width="6.7" stroke="#c2e1ffA1"/><path d="M205-119l106 43" stroke-width="6.7" stroke="#fffA1"/><path d="M130-271l30-109" stroke-width="6.8" stroke="#fff500A4"/><path d="M2-218l-99-55" stroke-width="6.8" stroke="#c2e1ffA4"/><path d="M8-227l-93-65" stroke-width="6.8" stroke="#c2e1ffA5"/><path d="M89-275l-10-112" stroke-width="6.9" stroke="#c2e1ffA6"/><path d="M207-130l107 32" stroke-width="7.0" stroke="#fffA9"/><path d="M3-108l-96 55" stroke-width="7.0" stroke="#fff500AA"/><path d="M17-236l-82-74" stroke-width="7.1" stroke="#fffAB"/><path d="M209-169l110-7" stroke-width="7.2" stroke="#c2e1ffAE"/><path d="M2-114l-98 48" stroke-width="7.2" stroke="#fff500AF"/><path d="M177-238l77-75" stroke-width="7.3" stroke="#005bbbB3"/><path d="M-7-164l-108-2" stroke-width="7.4" stroke="#c2e1ffB4"/><path d="M3-118l-98 45" stroke-width="7.4" stroke="#c2e1ffB4"/><path d="M120-268l19-105" stroke-width="7.4" stroke="#fffB5"/><path d="M-3-190l-102-28" stroke-width="7.5" stroke="#005bbbB7"/><path d="M123-59l24 103" stroke-width="7.5" stroke="#005bbbB7"/><path d="M162-248l62-85" stroke-width="7.5" stroke="#fffB8"/><path d="M19-95l-81 67" stroke-width="7.5" stroke="#c2e1ffB9"/><path d="M88-267l-11-104" stroke-width="7.6" stroke="#fffBA"/><path d="M124-264l24-101" stroke-width="7.6" stroke="#c2e1ffBC"/><path d="M63-259l-37-97" stroke-width="7.7" stroke="#fffBC"/><path d="M200-180l101-17" stroke-width="7.8" stroke="#c2e1ffC0"/><path d="M193-121l92 42" stroke-width="7.8" stroke="#fff500C0"/><path d="M-1-175l-101-13" stroke-width="7.8" stroke="#c2e1ffC0"/><path d="M0-147l-100 16" stroke-width="7.8" stroke="#fff500C1"/><path d="M60-70l-40 92" stroke-width="7.9" stroke="#fff500C2"/><path d="M56-73l-43 90" stroke-width="7.9" stroke="#c2e1ffC3"/><path d="M172-230l71-68" stroke-width="8.0" stroke="#c2e1ffC5"/><path d="M59-73l-41 89" stroke-width="8.0" stroke="#c2e1ffC6"/><path d="M26-104l-74 58" stroke-width="8.2" stroke="#c2e1ffCC"/><path d="M187-193l88-31" stroke-width="8.3" stroke="#fffCE"/><path d="M28-220l-72-58" stroke-width="8.3" stroke="#fffCF"/><path d="M107-254l7-92" stroke-width="8.3" stroke="#fff500CF"/><path d="M190-143l89 19" stroke-width="8.3" stroke="#c2e1ffCF"/><path d="M33-220l-67-57" stroke-width="8.5" stroke="#fff500D4"/><path d="M91-77l-9 85" stroke-width="8.6" stroke="#005bbbD7"/><path d="M168-213l68-51" stroke-width="8.6" stroke="#c2e1ffD8"/><path d="M15-163l-84 0" stroke-width="8.6" stroke="#fffD8"/><path d="M17-175l-83-12" stroke-width="8.7" stroke="#005bbbD9"/><path d="M170-116l69 46" stroke-width="8.7" stroke="#c2e1ffD9"/><path d="M43-103l-58 59" stroke-width="8.7" stroke="#fffDA"/><path d="M109-244l9-81" stroke-width="8.8" stroke="#005bbbDB"/><path d="M31-200l-69-37" stroke-width="8.9" stroke="#fffDE"/><path d="M91-86l-8 76" stroke-width="8.9" stroke="#005bbbE0"/><path d="M40-116l-60 46" stroke-width="9.0" stroke="#005bbbE1"/><path d="M174-171l75-8" stroke-width="9.0" stroke="#c2e1ffE2"/><path d="M166-187l65-24" stroke-width="9.1" stroke="#fff500E6"/><path d="M106-94l6 68" stroke-width="9.2" stroke="#c2e1ffE7"/><path d="M162-135l62 28" stroke-width="9.2" stroke="#005bbbE7"/><path d="M55-116l-45 46" stroke-width="9.3" stroke="#fffEA"/><path d="M117-102l17 61" stroke-width="9.3" stroke="#fff500EB"/><path d="M92-224l-9-62" stroke-width="9.3" stroke="#005bbbEB"/><path d="M47-188l-53-26" stroke-width="9.4" stroke="#005bbbED"/><path d="M93-221l-7-59" stroke-width="9.4" stroke="#005bbbED"/><path d="M90-220l-9-58" stroke-width="9.4" stroke="#fff500EE"/><path d="M48-135l-51 27" stroke-width="9.4" stroke="#fff500EE"/><path d="M92-220l-7-58" stroke-width="9.4" stroke="#c2e1ffEE"/><path d="M66-201l-33-38" stroke-width="9.6" stroke="#fffF2"/><path d="M138-196l39-33" stroke-width="9.6" stroke="#fff500F2"/><path d="M61-195l-39-32" stroke-width="9.6" stroke="#fff500F2"/><path d="M148-171l48-9" stroke-width="9.6" stroke="#fff500F3"/><path d="M70-199l-30-37" stroke-width="9.6" stroke="#c2e1ffF4"/><path d="M132-129l32 33" stroke-width="9.6" stroke="#c2e1ffF4"/><path d="M73-195l-28-32" stroke-width="9.7" stroke="#fff500F6"/><path d="M131-137l30 25" stroke-width="9.7" stroke="#005bbbF7"/><path d="M92-200l-7-38" stroke-width="9.8" stroke="#fffF8"/><path d="M110-197l9-34" stroke-width="9.8" stroke="#fffF9"/><path d="M83-144l-18 18" stroke-width="9.9" stroke="#005bbbFC"/><path d="M109-175l9-12" stroke-width="10.0" stroke="#c2e1ffFD"/></g></svg>