<svg width="1200" height="675" viewBox="-500 -500 1200 675" xmlns="http://www.w3.org/2000/svg"><path d="M-500-500h1200v675h-1200z" fill="#000"/><style>.sparkles path{stroke-linecap:round}</style><g class="sparkles"><path d="M81-147l-20 15" stroke-width="1.1" stroke="#005bbb2"/><path d="M88-190l-12-28" stroke-width="1.2" stroke="#fff5004"/><path d="M96-194l-5-31" stroke-width="1.2" stroke="#fff5004"/><path d="M75-189l-25-26" stroke-width="1.2" stroke="#fff6"/><path d="M143-171l43-8" stroke-width="1.3" stroke="#fff5008"/><path d="M143-178l42-16" stroke-width="1.3" stroke="#c2e1ff9"/><path d="M143-177l43-15" stroke-width="1.3" stroke="#fff5009"/><path d="M60-190l-40-28" stroke-width="1.4" stroke="#005bbbB"/><path d="M56-142l-44 21" stroke-width="1.4" stroke="#fffB"/><path d="M86-210l-14-48" stroke-width="1.4" stroke="#fff500B"/><path d="M70-204l-29-42" stroke-width="1.4" stroke="#fff500C"/><path d="M62-126l-38 36" stroke-width="1.5" stroke="#fffD"/><path d="M105-105l5 57" stroke-width="1.6" stroke="#fffF"/><path d="M127-110l26 52" stroke-width="1.6" stroke="#fff50010"/><path d="M56-118l-43 44" stroke-width="1.7" stroke="#c2e1ff13"/><path d="M73-103l-28 60" stroke-width="1.8" stroke="#fff15"/><path d="M156-212l57-49" stroke-width="2.0" stroke="#005bbb1C"/><path d="M119-242l19-79" stroke-width="2.2" stroke="#fff23"/><path d="M24-199l-77-36" stroke-width="2.4" stroke="#005bbb26"/><path d="M139-85l40 77" stroke-width="2.5" stroke="#c2e1ff29"/><path d="M102-75l2 87" stroke-width="2.5" stroke="#c2e1ff29"/><path d="M158-94l58 69" stroke-width="2.6" stroke="#005bbb2C"/><path d="M76-76l-23 87" stroke-width="2.6" stroke="#c2e1ff2C"/><path d="M34-224l-65-62" stroke-width="2.6" stroke="#fff5002D"/><path d="M162-97l62 65" stroke-width="2.6" stroke="#fff5002D"/><path d="M132-77l31 85" stroke-width="2.6" stroke="#fff5002E"/><path d="M132-249l33-87" stroke-width="2.7" stroke="#005bbb30"/><path d="M6-140l-95 22" stroke-width="2.9" stroke="#c2e1ff36"/><path d="M132-71l31 92" stroke-width="2.9" stroke="#fff36"/><path d="M195-183l95-21" stroke-width="2.9" stroke="#005bbb36"/><path d="M194-136l95 27" stroke-width="3.0" stroke="#fff38"/><path d="M182-216l83-54" stroke-width="3.0" stroke="#fff38"/><path d="M139-253l40-91" stroke-width="3.0" stroke="#c2e1ff39"/><path d="M159-242l59-80" stroke-width="3.1" stroke="#fff3A"/><path d="M196-190l96-28" stroke-width="3.1" stroke="#fff5003B"/><path d="M193-200l92-37" stroke-width="3.1" stroke="#c2e1ff3B"/><path d="M192-202l93-39" stroke-width="3.1" stroke="#005bbb3C"/><path d="M112-63l13 100" stroke-width="3.1" stroke="#005bbb3C"/><path d="M-1-156l-102 7" stroke-width="3.2" stroke="#005bbb3E"/><path d="M175-93l75 70" stroke-width="3.3" stroke="#005bbb3F"/><path d="M23-95l-76 68" stroke-width="3.3" stroke="#005bbb3F"/><path d="M170-238l69-75" stroke-width="3.3" stroke="#c2e1ff40"/><path d="M157-77l57 86" stroke-width="3.3" stroke="#005bbb40"/><path d="M127-63l27 100" stroke-width="3.3" stroke="#fff41"/><path d="M31-85l-68 78" stroke-width="3.3" stroke="#fff50042"/><path d="M109-59l8 103" stroke-width="3.4" stroke="#c2e1ff42"/><path d="M184-101l84 62" stroke-width="3.4" stroke="#fff50044"/><path d="M204-177l104-15" stroke-width="3.4" stroke="#c2e1ff45"/><path d="M33-244l-67-81" stroke-width="3.5" stroke="#005bbb45"/><path d="M5-117l-95 46" stroke-width="3.5" stroke="#fff45"/><path d="M-4-178l-104-16" stroke-width="3.5" stroke="#005bbb46"/><path d="M173-85l72 78" stroke-width="3.6" stroke="#005bbb48"/><path d="M24-87l-76 75" stroke-width="3.6" stroke="#005bbb49"/><path d="M109-56l8 107" stroke-width="3.6" stroke="#fff49"/><path d="M197-117l98 46" stroke-width="3.6" stroke="#005bbb4A"/><path d="M76-57l-25 105" stroke-width="3.7" stroke="#fff4B"/><path d="M171-244l72-81" stroke-width="3.7" stroke="#005bbb4C"/><path d="M123-56l23 106" stroke-width="3.7" stroke="#005bbb4D"/><path d="M58-62l-43 100" stroke-width="3.8" stroke="#c2e1ff4E"/><path d="M207-141l107 21" stroke-width="3.8" stroke="#fff4E"/><path d="M-7-138l-106 24" stroke-width="3.8" stroke="#fff4F"/><path d="M60-264l-40-102" stroke-width="3.8" stroke="#fff4F"/><path d="M62-60l-38 103" stroke-width="3.8" stroke="#c2e1ff4F"/><path d="M185-91l85 71" stroke-width="4.0" stroke="#005bbb54"/><path d="M18-87l-83 75" stroke-width="4.0" stroke="#fff50056"/><path d="M6-102l-95 60" stroke-width="4.1" stroke="#fff57"/><path d="M-11-178l-112-16" stroke-width="4.1" stroke="#fff50058"/><path d="M200-110l101 53" stroke-width="4.3" stroke="#fff5005C"/><path d="M185-86l85 76" stroke-width="4.3" stroke="#fff5005D"/><path d="M187-89l87 73" stroke-width="4.3" stroke="#005bbb5D"/><path d="M-10-133l-111 29" stroke-width="4.4" stroke="#c2e1ff5F"/><path d="M-6-205l-106-43" stroke-width="4.4" stroke="#fff5005F"/><path d="M-11-136l-112 26" stroke-width="4.4" stroke="#005bbb60"/><path d="M187-88l88 75" stroke-width="4.5" stroke="#fff62"/><path d="M200-220l99-58" stroke-width="4.5" stroke="#c2e1ff62"/><path d="M207-119l106 44" stroke-width="4.5" stroke="#fff50063"/><path d="M166-68l66 95" stroke-width="4.5" stroke="#fff63"/><path d="M191-92l91 71" stroke-width="4.5" stroke="#fff50064"/><path d="M204-113l105 49" stroke-width="4.6" stroke="#c2e1ff64"/><path d="M164-260l64-97" stroke-width="4.7" stroke="#fff50069"/><path d="M94-46l-6 116" stroke-width="4.7" stroke="#fff50069"/><path d="M52-56l-48 106" stroke-width="4.8" stroke="#005bbb6C"/><path d="M39-63l-62 99" stroke-width="4.8" stroke="#fff6C"/><path d="M-10-202l-110-39" stroke-width="4.9" stroke="#c2e1ff6E"/><path d="M155-266l55-103" stroke-width="4.9" stroke="#c2e1ff6E"/><path d="M-7-210l-108-47" stroke-width="4.9" stroke="#fff6F"/><path d="M116-46l17 116" stroke-width="5.0" stroke="#c2e1ff70"/><path d="M-17-172l-117-10" stroke-width="5.0" stroke="#005bbb71"/><path d="M31-68l-70 95" stroke-width="5.0" stroke="#c2e1ff72"/><path d="M75-277l-25-115" stroke-width="5.1" stroke="#c2e1ff72"/><path d="M121-47l22 116" stroke-width="5.1" stroke="#c2e1ff74"/><path d="M16-80l-84 83" stroke-width="5.1" stroke="#c2e1ff74"/><path d="M171-69l72 94" stroke-width="5.2" stroke="#fff75"/><path d="M218-157l117 5" stroke-width="5.2" stroke="#fff76"/><path d="M165-64l65 98" stroke-width="5.2" stroke="#fff77"/><path d="M78-47l-23 116" stroke-width="5.2" stroke="#005bbb77"/><path d="M218-164l118-1" stroke-width="5.3" stroke="#fff50078"/><path d="M136-275l35-112" stroke-width="5.3" stroke="#005bbb78"/><path d="M1-227l-98-65" stroke-width="5.3" stroke="#005bbb78"/><path d="M93-45l-6 118" stroke-width="5.3" stroke="#fff7A"/><path d="M218-159l118 4" stroke-width="5.7" stroke="#fff50085"/><path d="M-18-154l-117 8" stroke-width="5.7" stroke="#005bbb85"/><path d="M138-274l39-112" stroke-width="5.7" stroke="#fff85"/><path d="M2-228l-98-66" stroke-width="5.7" stroke="#c2e1ff86"/><path d="M38-62l-61 100" stroke-width="5.9" stroke="#c2e1ff8A"/><path d="M116-278l16-116" stroke-width="6.2" stroke="#fff50092"/><path d="M217-162l117 0" stroke-width="6.2" stroke="#fff50092"/><path d="M205-111l105 52" stroke-width="6.2" stroke="#005bbb92"/><path d="M164-260l65-97" stroke-width="6.2" stroke="#c2e1ff94"/><path d="M210-199l111-37" stroke-width="6.3" stroke="#005bbb96"/><path d="M177-76l78 86" stroke-width="6.4" stroke="#fff50097"/><path d="M-10-133l-110 29" stroke-width="6.7" stroke="#c2e1ffA1"/><path d="M30-73l-71 89" stroke-width="6.7" stroke="#fff500A1"/><path d="M146-59l46 103" stroke-width="6.8" stroke="#fffA4"/><path d="M-10-137l-110 25" stroke-width="6.8" stroke="#fffA5"/><path d="M44-260l-57-98" stroke-width="6.8" stroke="#c2e1ffA5"/><path d="M4-222l-96-59" stroke-width="6.9" stroke="#c2e1ffA5"/><path d="M-9-188l-109-25" stroke-width="6.9" stroke="#fff500A7"/><path d="M65-56l-34 106" stroke-width="6.9" stroke="#c2e1ffA8"/><path d="M50-262l-50-100" stroke-width="7.0" stroke="#c2e1ffA9"/><path d="M-8-136l-109 26" stroke-width="7.0" stroke="#c2e1ffA9"/><path d="M79-272l-21-109" stroke-width="7.0" stroke="#fff500AA"/><path d="M-8-142l-108 21" stroke-width="7.1" stroke="#005bbbAE"/><path d="M-2-202l-101-40" stroke-width="7.2" stroke="#005bbbB0"/><path d="M72-58l-27 104" stroke-width="7.3" stroke="#005bbbB2"/><path d="M69-266l-30-104" stroke-width="7.3" stroke="#c2e1ffB3"/><path d="M149-69l50 94" stroke-width="7.5" stroke="#fffB7"/><path d="M100-268l1-106" stroke-width="7.5" stroke="#005bbbB8"/><path d="M115-267l16-105" stroke-width="7.5" stroke="#fff500B8"/><path d="M197-200l98-38" stroke-width="7.6" stroke="#005bbbBA"/><path d="M81-265l-19-103" stroke-width="7.6" stroke="#fff500BB"/><path d="M156-250l57-87" stroke-width="7.6" stroke="#fffBB"/><path d="M97-265l-3-102" stroke-width="7.7" stroke="#fff500BE"/><path d="M-2-157l-103 5" stroke-width="7.7" stroke="#fff500BF"/><path d="M99-61l-1 101" stroke-width="7.8" stroke="#c2e1ffC1"/><path d="M0-171l-99-8" stroke-width="7.9" stroke="#005bbbC3"/><path d="M148-248l48-86" stroke-width="8.0" stroke="#fffC6"/><path d="M101-65l1 98" stroke-width="8.0" stroke="#005bbbC7"/><path d="M187-122l87 40" stroke-width="8.1" stroke="#fff500C9"/><path d="M147-245l47-83" stroke-width="8.2" stroke="#c2e1ffCA"/><path d="M190-133l90 29" stroke-width="8.2" stroke="#c2e1ffCB"/><path d="M189-194l89-31" stroke-width="8.2" stroke="#fffCC"/><path d="M181-208l81-46" stroke-width="8.3" stroke="#c2e1ffCD"/><path d="M135-248l36-86" stroke-width="8.3" stroke="#c2e1ffCE"/><path d="M11-189l-88-26" stroke-width="8.3" stroke="#fff500CE"/><path d="M19-118l-80 44" stroke-width="8.3" stroke="#fffCF"/><path d="M55-242l-45-79" stroke-width="8.4" stroke="#005bbbD0"/><path d="M13-187l-86-24" stroke-width="8.4" stroke="#c2e1ffD2"/><path d="M51-88l-49 74" stroke-width="8.5" stroke="#fffD3"/><path d="M184-146l84 17" stroke-width="8.6" stroke="#fff500D7"/><path d="M71-243l-29-80" stroke-width="8.6" stroke="#fff500D7"/><path d="M23-199l-77-36" stroke-width="8.6" stroke="#fffD8"/><path d="M183-144l82 18" stroke-width="8.6" stroke="#fffD8"/><path d="M24-199l-76-36" stroke-width="8.7" stroke="#fff500D8"/><path d="M89-242l-11-79" stroke-width="8.8" stroke="#fff500DD"/><path d="M173-150l74 13" stroke-width="9.0" stroke="#fff500E2"/><path d="M165-198l65-36" stroke-width="9.0" stroke="#005bbbE2"/><path d="M50-216l-51-53" stroke-width="9.0" stroke="#005bbbE3"/><path d="M112-235l12-72" stroke-width="9.0" stroke="#fffE3"/><path d="M161-199l61-37" stroke-width="9.1" stroke="#fff500E5"/><path d="M166-162l67 0" stroke-width="9.2" stroke="#fffE8"/><path d="M165-172l65-10" stroke-width="9.2" stroke="#005bbbE9"/><path d="M51-207l-48-44" stroke-width="9.2" stroke="#005bbbE9"/><path d="M150-122l50 40" stroke-width="9.3" stroke="#fff500EA"/><path d="M161-151l61 12" stroke-width="9.3" stroke="#fff500EB"/><path d="M160-171l59-9" stroke-width="9.4" stroke="#c2e1ffED"/><path d="M41-170l-59-7" stroke-width="9.4" stroke="#c2e1ffED"/><path d="M114-116l15 47" stroke-width="9.6" stroke="#005bbbF3"/><path d="M52-161l-48 2" stroke-width="9.6" stroke="#fff500F4"/><path d="M57-180l-43-18" stroke-width="9.6" stroke="#fff500F4"/><path d="M143-176l43-13" stroke-width="9.7" stroke="#fff500F5"/><path d="M63-137l-37 26" stroke-width="9.7" stroke="#c2e1ffF5"/><path d="M144-161l44 1" stroke-width="9.7" stroke="#c2e1ffF5"/><path d="M98-127l-1 36" stroke-width="9.8" stroke="#fffF8"/><path d="M118-177l18-14" stroke-width="9.9" stroke="#fffFC"/><path d="M83-148l-17 14" stroke-width="9.9" stroke="#005bbbFC"/><path d="M115-149l15 14" stroke-width="9.9" stroke="#005bbbFD"/><path d="M85-171l-16-9" stroke-width="9.9" stroke="#005bbbFD"/><path d="M84-159l-17 3" stroke-width="10.0" stroke="#c2e1ffFD"/><path d="M107-174l7-12" stroke-width="10.0" stroke="#c2e1ffFE"/><path d="M92-161l-8 2" stroke-width="10.0" stroke="#fffFE"/></g></svg>