<svg width="1200" height="675" viewBox="-500 -500 1200 675" xmlns="http://www.w3.org/2000/svg"><path d="M-500-500h1200v675h-1200z" fill="#000"/><style>.sparkles path{stroke-linecap:round}</style><g class="sparkles"><path d="M96-175l-5-12" stroke-width="1.0" stroke="#005bbb0"/><path d="M101-181l0-18" stroke-width="1.1" stroke="#fff5001"/><path d="M132-182l32-20" stroke-width="1.2" stroke="#c2e1ff6"/><path d="M63-155l-37 7" stroke-width="1.2" stroke="#005bbb6"/><path d="M85-207l-14-44" stroke-width="1.4" stroke="#005bbbA"/><path d="M113-116l12 47" stroke-width="1.4" stroke="#005bbbB"/><path d="M90-210l-10-48" stroke-width="1.4" stroke="#fffB"/><path d="M103-113l2 50" stroke-width="1.4" stroke="#fff500B"/><path d="M58-190l-42-28" stroke-width="1.4" stroke="#c2e1ffC"/><path d="M133-118l34 45" stroke-width="1.5" stroke="#fff500F"/><path d="M118-110l18 53" stroke-width="1.5" stroke="#c2e1ffF"/><path d="M106-106l7 57" stroke-width="1.6" stroke="#fffF"/><path d="M83-217l-17-55" stroke-width="1.6" stroke="#fff10"/><path d="M141-119l41 44" stroke-width="1.6" stroke="#fff11"/><path d="M128-109l27 54" stroke-width="1.6" stroke="#c2e1ff12"/><path d="M135-217l36-54" stroke-width="1.7" stroke="#c2e1ff14"/><path d="M54-115l-47 47" stroke-width="1.8" stroke="#c2e1ff15"/><path d="M149-208l49-45" stroke-width="1.8" stroke="#fff16"/><path d="M112-229l12-66" stroke-width="1.8" stroke="#005bbb16"/><path d="M132-99l32 64" stroke-width="1.9" stroke="#fff50019"/><path d="M76-93l-24 70" stroke-width="2.0" stroke="#005bbb1C"/><path d="M173-152l74 11" stroke-width="2.0" stroke="#005bbb1C"/><path d="M174-174l73-12" stroke-width="2.0" stroke="#005bbb1C"/><path d="M43-212l-56-49" stroke-width="2.0" stroke="#fff1D"/><path d="M93-86l-6 77" stroke-width="2.1" stroke="#c2e1ff1F"/><path d="M31-198l-69-35" stroke-width="2.1" stroke="#fff1F"/><path d="M168-122l67 41" stroke-width="2.2" stroke="#fff20"/><path d="M32-117l-69 45" stroke-width="2.3" stroke="#c2e1ff23"/><path d="M162-219l62-56" stroke-width="2.3" stroke="#c2e1ff25"/><path d="M59-86l-40 77" stroke-width="2.4" stroke="#fff28"/><path d="M172-213l71-50" stroke-width="2.5" stroke="#fff29"/><path d="M78-78l-21 85" stroke-width="2.5" stroke="#005bbb2A"/><path d="M46-238l-53-75" stroke-width="2.7" stroke="#fff50030"/><path d="M127-251l28-89" stroke-width="2.7" stroke="#fff30"/><path d="M190-186l90-23" stroke-width="2.7" stroke="#fff50031"/><path d="M26-223l-74-60" stroke-width="2.8" stroke="#c2e1ff34"/><path d="M178-107l77 56" stroke-width="2.8" stroke="#fff50034"/><path d="M12-200l-88-37" stroke-width="2.9" stroke="#c2e1ff34"/><path d="M88-68l-12 95" stroke-width="2.9" stroke="#fff34"/><path d="M149-80l49 83" stroke-width="2.9" stroke="#fff35"/><path d="M17-112l-84 50" stroke-width="3.0" stroke="#005bbb37"/><path d="M197-159l98 3" stroke-width="3.0" stroke="#c2e1ff37"/><path d="M6-133l-95 29" stroke-width="3.0" stroke="#fff39"/><path d="M199-161l99 1" stroke-width="3.0" stroke="#c2e1ff39"/><path d="M121-66l22 97" stroke-width="3.1" stroke="#005bbb3A"/><path d="M121-260l22-97" stroke-width="3.1" stroke="#fff3A"/><path d="M147-74l47 88" stroke-width="3.1" stroke="#005bbb3B"/><path d="M143-72l44 91" stroke-width="3.1" stroke="#fff5003C"/><path d="M52-74l-48 89" stroke-width="3.2" stroke="#fff5003C"/><path d="M36-83l-64 79" stroke-width="3.2" stroke="#005bbb3F"/><path d="M202-169l102-7" stroke-width="3.2" stroke="#005bbb3F"/><path d="M166-83l66 79" stroke-width="3.3" stroke="#005bbb41"/><path d="M146-70l46 92" stroke-width="3.3" stroke="#fff50041"/><path d="M174-234l75-72" stroke-width="3.3" stroke="#fff50041"/><path d="M204-162l104 0" stroke-width="3.3" stroke="#fff42"/><path d="M163-245l64-82" stroke-width="3.4" stroke="#fff50043"/><path d="M202-141l102 22" stroke-width="3.4" stroke="#005bbb43"/><path d="M155-73l55 89" stroke-width="3.4" stroke="#c2e1ff44"/><path d="M194-115l93 48" stroke-width="3.4" stroke="#fff45"/><path d="M192-111l93 51" stroke-width="3.5" stroke="#005bbb46"/><path d="M175-87l75 76" stroke-width="3.6" stroke="#fff48"/><path d="M198-117l98 45" stroke-width="3.7" stroke="#fff4B"/><path d="M116-270l16-108" stroke-width="3.8" stroke="#fff4E"/><path d="M203-125l103 37" stroke-width="3.8" stroke="#fff50"/><path d="M69-57l-31 106" stroke-width="3.9" stroke="#c2e1ff51"/><path d="M90-52l-9 110" stroke-width="3.9" stroke="#fff52"/><path d="M108-273l8-110" stroke-width="3.9" stroke="#fff50052"/><path d="M138-267l37-104" stroke-width="3.9" stroke="#c2e1ff53"/><path d="M98-274l-1-111" stroke-width="4.0" stroke="#c2e1ff54"/><path d="M145-61l44 102" stroke-width="4.0" stroke="#c2e1ff54"/><path d="M50-262l-51-100" stroke-width="4.0" stroke="#005bbb56"/><path d="M123-53l24 109" stroke-width="4.1" stroke="#fff50056"/><path d="M152-63l51 100" stroke-width="4.1" stroke="#fff50058"/><path d="M189-233l89-70" stroke-width="4.2" stroke="#fff5B"/><path d="M-14-163l-114-1" stroke-width="4.3" stroke="#fff5D"/><path d="M-4-116l-104 46" stroke-width="4.3" stroke="#fff5005D"/><path d="M174-250l75-87" stroke-width="4.4" stroke="#005bbb60"/><path d="M117-49l18 113" stroke-width="4.4" stroke="#c2e1ff61"/><path d="M168-70l68 92" stroke-width="4.4" stroke="#fff61"/><path d="M29-72l-70 91" stroke-width="4.5" stroke="#c2e1ff62"/><path d="M109-277l8-115" stroke-width="4.5" stroke="#fff50063"/><path d="M156-264l55-101" stroke-width="4.6" stroke="#c2e1ff65"/><path d="M214-183l114-21" stroke-width="4.6" stroke="#fff50066"/><path d="M109-278l10-116" stroke-width="4.6" stroke="#005bbb67"/><path d="M44-264l-56-102" stroke-width="4.7" stroke="#fff68"/><path d="M25-251l-76-88" stroke-width="4.7" stroke="#005bbb68"/><path d="M16-243l-85-80" stroke-width="4.7" stroke="#fff50069"/><path d="M117-278l18-116" stroke-width="4.9" stroke="#fff5006D"/><path d="M6-93l-94 70" stroke-width="4.9" stroke="#fff6F"/><path d="M38-63l-62 100" stroke-width="5.0" stroke="#fff71"/><path d="M93-280l-7-117" stroke-width="5.0" stroke="#005bbb72"/><path d="M26-254l-74-91" stroke-width="5.1" stroke="#c2e1ff74"/><path d="M67-276l-32-113" stroke-width="5.2" stroke="#005bbb77"/><path d="M133-49l33 113" stroke-width="5.3" stroke="#c2e1ff78"/><path d="M206-111l106 52" stroke-width="5.3" stroke="#fff79"/><path d="M-13-197l-113-35" stroke-width="5.3" stroke="#005bbb7A"/><path d="M-18-171l-118-9" stroke-width="5.4" stroke="#c2e1ff7C"/><path d="M171-68l71 95" stroke-width="5.4" stroke="#c2e1ff7C"/><path d="M-18-171l-118-8" stroke-width="5.4" stroke="#fff7D"/><path d="M-10-119l-109 44" stroke-width="5.5" stroke="#005bbb7F"/><path d="M58-273l-41-111" stroke-width="5.5" stroke="#fff80"/><path d="M-10-120l-110 43" stroke-width="5.5" stroke="#fff50080"/><path d="M81-46l-19 117" stroke-width="5.5" stroke="#005bbb80"/><path d="M119-46l20 116" stroke-width="5.6" stroke="#c2e1ff81"/><path d="M129-277l29-115" stroke-width="5.6" stroke="#fff50082"/><path d="M-6-110l-105 53" stroke-width="5.7" stroke="#fff85"/><path d="M-16-182l-117-20" stroke-width="5.8" stroke="#fff50086"/><path d="M177-252l76-90" stroke-width="5.8" stroke="#c2e1ff87"/><path d="M215-137l115 25" stroke-width="5.8" stroke="#fff50089"/><path d="M214-191l115-28" stroke-width="5.9" stroke="#c2e1ff89"/><path d="M216-182l116-20" stroke-width="5.9" stroke="#fff5008A"/><path d="M127-48l27 114" stroke-width="5.9" stroke="#005bbb8A"/><path d="M113-46l12 117" stroke-width="5.9" stroke="#fff8A"/><path d="M89-280l-11-117" stroke-width="5.9" stroke="#c2e1ff8B"/><path d="M147-270l47-108" stroke-width="6.0" stroke="#fff8E"/><path d="M47-58l-54 104" stroke-width="6.0" stroke="#fff5008F"/><path d="M211-200l111-37" stroke-width="6.1" stroke="#fff90"/><path d="M3-99l-98 64" stroke-width="6.3" stroke="#fff50095"/><path d="M-10-202l-109-39" stroke-width="6.3" stroke="#fff95"/><path d="M-7-117l-107 46" stroke-width="6.3" stroke="#fff95"/><path d="M172-253l73-91" stroke-width="6.3" stroke="#c2e1ff95"/><path d="M33-258l-66-95" stroke-width="6.3" stroke="#005bbb95"/><path d="M184-82l84 80" stroke-width="6.3" stroke="#c2e1ff96"/><path d="M179-77l79 85" stroke-width="6.3" stroke="#fff50096"/><path d="M-11-194l-111-32" stroke-width="6.4" stroke="#fff99"/><path d="M-13-140l-114 22" stroke-width="6.4" stroke="#fff99"/><path d="M182-243l83-80" stroke-width="6.6" stroke="#005bbb9D"/><path d="M73-52l-27 110" stroke-width="6.8" stroke="#005bbbA3"/><path d="M52-60l-49 102" stroke-width="6.8" stroke="#fffA3"/><path d="M193-225l94-62" stroke-width="6.9" stroke="#c2e1ffA7"/><path d="M205-124l106 38" stroke-width="6.9" stroke="#fffA7"/><path d="M162-71l62 92" stroke-width="7.1" stroke="#005bbbAC"/><path d="M154-68l54 95" stroke-width="7.2" stroke="#fffB0"/><path d="M209-155l109 7" stroke-width="7.2" stroke="#fffB0"/><path d="M63-265l-38-102" stroke-width="7.2" stroke="#005bbbB1"/><path d="M64-60l-35 102" stroke-width="7.3" stroke="#fff500B2"/><path d="M175-240l76-77" stroke-width="7.3" stroke="#005bbbB3"/><path d="M159-251l59-89" stroke-width="7.4" stroke="#005bbbB6"/><path d="M194-210l94-48" stroke-width="7.5" stroke="#fffB8"/><path d="M32-82l-68 80" stroke-width="7.5" stroke="#005bbbB9"/><path d="M198-128l98 35" stroke-width="7.6" stroke="#fffBC"/><path d="M198-198l97-35" stroke-width="7.6" stroke="#005bbbBC"/><path d="M13-109l-88 54" stroke-width="7.7" stroke="#fff500BE"/><path d="M63-68l-37 94" stroke-width="7.8" stroke="#fffC1"/><path d="M179-105l79 58" stroke-width="8.0" stroke="#c2e1ffC6"/><path d="M6-189l-94-27" stroke-width="8.0" stroke="#005bbbC7"/><path d="M167-233l67-71" stroke-width="8.0" stroke="#fff500C7"/><path d="M176-223l76-60" stroke-width="8.1" stroke="#fffC7"/><path d="M30-222l-70-60" stroke-width="8.3" stroke="#fffCF"/><path d="M123-251l23-88" stroke-width="8.4" stroke="#fff500D0"/><path d="M173-214l72-51" stroke-width="8.5" stroke="#c2e1ffD3"/><path d="M73-247l-27-84" stroke-width="8.5" stroke="#c2e1ffD4"/><path d="M22-123l-79 40" stroke-width="8.5" stroke="#005bbbD4"/><path d="M28-211l-72-48" stroke-width="8.6" stroke="#005bbbD6"/><path d="M43-98l-57 65" stroke-width="8.6" stroke="#c2e1ffD6"/><path d="M164-106l64 57" stroke-width="8.6" stroke="#005bbbD7"/><path d="M19-188l-81-25" stroke-width="8.6" stroke="#fff500D8"/><path d="M20-136l-80 27" stroke-width="8.6" stroke="#fff500D8"/><path d="M182-180l83-17" stroke-width="8.7" stroke="#c2e1ffD9"/><path d="M75-85l-24 78" stroke-width="8.7" stroke="#005bbbDB"/><path d="M93-243l-8-80" stroke-width="8.8" stroke="#c2e1ffDC"/><path d="M171-196l72-34" stroke-width="8.8" stroke="#fffDE"/><path d="M101-87l1 76" stroke-width="8.9" stroke="#fff500E1"/><path d="M73-94l-28 68" stroke-width="9.0" stroke="#005bbbE3"/><path d="M78-97l-22 66" stroke-width="9.1" stroke="#fff500E6"/><path d="M34-153l-66 10" stroke-width="9.2" stroke="#fff500E8"/><path d="M63-216l-37-54" stroke-width="9.3" stroke="#005bbbE9"/><path d="M89-101l-12 62" stroke-width="9.3" stroke="#fff500EB"/><path d="M153-132l53 30" stroke-width="9.4" stroke="#c2e1ffEC"/><path d="M93-223l-8-61" stroke-width="9.4" stroke="#005bbbEC"/><path d="M152-148l51 14" stroke-width="9.5" stroke="#fff500F1"/><path d="M99-213l-1-50" stroke-width="9.6" stroke="#c2e1ffF2"/><path d="M105-208l6-46" stroke-width="9.6" stroke="#fffF4"/><path d="M72-196l-28-33" stroke-width="9.7" stroke="#c2e1ffF6"/><path d="M63-175l-36-13" stroke-width="9.8" stroke="#fffF7"/><path d="M112-199l12-36" stroke-width="9.8" stroke="#005bbbF8"/><path d="M136-167l35-4" stroke-width="9.8" stroke="#005bbbF9"/><path d="M134-159l35 3" stroke-width="9.8" stroke="#fffF9"/><path d="M123-183l22-21" stroke-width="9.8" stroke="#005bbbFA"/><path d="M109-189l9-27" stroke-width="9.9" stroke="#fff500FB"/><path d="M93-139l-7 23" stroke-width="9.9" stroke="#005bbbFC"/></g></svg>