<svg width="1200" height="675" viewBox="-500 -500 1200 675" xmlns="http://www.w3.org/2000/svg"><path d="M-500-500h1200v675h-1200z" fill="#000"/><style>.sparkles path{stroke-linecap:round}</style><g class="sparkles"><path d="M97-161l-4 1" stroke-width="1.0" stroke="#ef476f0"/><path d="M91-183l-9-20" stroke-width="1.1" stroke="#118ab22"/><path d="M94-184l-5-22" stroke-width="1.1" stroke="#06d6a02"/><path d="M123-162l24 0" stroke-width="1.1" stroke="#ef476f2"/><path d="M108-193l8-31" stroke-width="1.2" stroke="#ef476f4"/><path d="M68-180l-32-17" stroke-width="1.2" stroke="#ef476f6"/><path d="M126-189l27-27" stroke-width="1.2" stroke="#073b4c6"/><path d="M131-139l30 24" stroke-width="1.2" stroke="#118ab27"/><path d="M61-173l-38-10" stroke-width="1.3" stroke="#06d6a07"/><path d="M77-128l-23 34" stroke-width="1.3" stroke="#ef476f7"/><path d="M57-154l-44 8" stroke-width="1.3" stroke="#073b4c9"/><path d="M77-119l-23 43" stroke-width="1.4" stroke="#ef476fB"/><path d="M110-213l10-50" stroke-width="1.4" stroke="#073b4cC"/><path d="M95-224l-5-61" stroke-width="1.7" stroke="#073b4c12"/><path d="M153-195l52-33" stroke-width="1.7" stroke="#118ab212"/><path d="M157-130l57 32" stroke-width="1.8" stroke="#073b4c15"/><path d="M42-197l-58-34" stroke-width="1.8" stroke="#073b4c16"/><path d="M137-105l37 58" stroke-width="1.8" stroke="#073b4c17"/><path d="M72-230l-29-67" stroke-width="2.0" stroke="#ef476f1B"/><path d="M58-222l-43-60" stroke-width="2.0" stroke="#ffd1661B"/><path d="M26-171l-74-9" stroke-width="2.0" stroke="#ef476f1C"/><path d="M174-173l74-11" stroke-width="2.0" stroke="#06d6a01C"/><path d="M51-221l-50-58" stroke-width="2.1" stroke="#ffd1661E"/><path d="M171-123l71 39" stroke-width="2.2" stroke="#ffd16623"/><path d="M120-83l20 79" stroke-width="2.2" stroke="#073b4c23"/><path d="M57-232l-42-70" stroke-width="2.3" stroke="#ffd16623"/><path d="M178-137l79 25" stroke-width="2.3" stroke="#073b4c24"/><path d="M62-241l-38-79" stroke-width="2.5" stroke="#ffd16629"/><path d="M101-250l2-88" stroke-width="2.5" stroke="#ffd1662A"/><path d="M58-85l-43 78" stroke-width="2.5" stroke="#ffd1662B"/><path d="M151-87l50 76" stroke-width="2.6" stroke="#118ab22E"/><path d="M145-81l46 82" stroke-width="2.8" stroke="#073b4c31"/><path d="M120-254l21-92" stroke-width="2.8" stroke="#ef476f32"/><path d="M118-256l17-93" stroke-width="2.8" stroke="#ef476f33"/><path d="M96-257l-4-95" stroke-width="2.8" stroke="#073b4c33"/><path d="M144-75l44 87" stroke-width="3.0" stroke="#073b4c37"/><path d="M196-138l95 24" stroke-width="3.0" stroke="#073b4c39"/><path d="M198-145l99 18" stroke-width="3.1" stroke="#118ab23B"/><path d="M78-261l-23-98" stroke-width="3.1" stroke="#073b4c3C"/><path d="M-1-160l-101 2" stroke-width="3.2" stroke="#118ab23D"/><path d="M190-116l90 47" stroke-width="3.2" stroke="#ffd1663E"/><path d="M26-92l-74 70" stroke-width="3.2" stroke="#ef476f3F"/><path d="M48-251l-51-88" stroke-width="3.3" stroke="#ef476f3F"/><path d="M183-224l83-62" stroke-width="3.3" stroke="#073b4c42"/><path d="M195-119l95 43" stroke-width="3.4" stroke="#118ab243"/><path d="M52-256l-48-94" stroke-width="3.4" stroke="#073b4c45"/><path d="M-5-185l-104-23" stroke-width="3.6" stroke="#ffd16649"/><path d="M89-269l-10-107" stroke-width="3.6" stroke="#118ab24A"/><path d="M57-64l-44 98" stroke-width="3.6" stroke="#06d6a04A"/><path d="M164-76l65 87" stroke-width="3.7" stroke="#06d6a04C"/><path d="M35-250l-65-87" stroke-width="3.7" stroke="#073b4c4D"/><path d="M-5-134l-105 29" stroke-width="3.7" stroke="#118ab24D"/><path d="M176-242l76-79" stroke-width="3.8" stroke="#073b4c4F"/><path d="M194-220l94-57" stroke-width="3.9" stroke="#118ab251"/><path d="M209-182l108-20" stroke-width="3.9" stroke="#073b4c51"/><path d="M113-52l12 110" stroke-width="3.9" stroke="#073b4c53"/><path d="M16-89l-84 74" stroke-width="4.0" stroke="#06d6a056"/><path d="M9-228l-91-65" stroke-width="4.1" stroke="#073b4c56"/><path d="M175-79l75 84" stroke-width="4.1" stroke="#073b4c57"/><path d="M178-82l79 80" stroke-width="4.1" stroke="#06d6a057"/><path d="M151-63l52 100" stroke-width="4.1" stroke="#ef476f58"/><path d="M196-104l97 58" stroke-width="4.1" stroke="#118ab259"/><path d="M-1-111l-102 52" stroke-width="4.3" stroke="#118ab25D"/><path d="M-2-111l-101 52" stroke-width="4.3" stroke="#ffd1665E"/><path d="M144-56l45 106" stroke-width="4.5" stroke="#073b4c62"/><path d="M58-55l-42 107" stroke-width="4.5" stroke="#118ab263"/><path d="M199-102l98 60" stroke-width="4.6" stroke="#073b4c64"/><path d="M121-277l21-114" stroke-width="4.7" stroke="#ffd16667"/><path d="M172-253l73-91" stroke-width="4.7" stroke="#118ab267"/><path d="M-16-176l-115-13" stroke-width="4.7" stroke="#118ab269"/><path d="M216-174l116-12" stroke-width="4.8" stroke="#ffd1666B"/><path d="M174-72l74 91" stroke-width="4.9" stroke="#073b4c6E"/><path d="M89-279l-12-117" stroke-width="4.9" stroke="#ffd1666E"/><path d="M195-231l96-68" stroke-width="4.9" stroke="#ffd1666F"/><path d="M143-53l44 109" stroke-width="5.0" stroke="#073b4c71"/><path d="M-5-109l-105 53" stroke-width="5.1" stroke="#ffd16673"/><path d="M182-247l82-84" stroke-width="5.1" stroke="#073b4c74"/><path d="M28-255l-73-93" stroke-width="5.2" stroke="#ef476f75"/><path d="M70-276l-31-114" stroke-width="5.2" stroke="#06d6a076"/><path d="M39-263l-62-101" stroke-width="5.3" stroke="#ef476f7A"/><path d="M23-252l-77-89" stroke-width="5.4" stroke="#118ab27C"/><path d="M206-214l107-52" stroke-width="5.4" stroke="#ffd1667C"/><path d="M-18-162l-118 0" stroke-width="5.4" stroke="#073b4c7D"/><path d="M218-162l118 0" stroke-width="5.5" stroke="#06d6a07E"/><path d="M-1-223l-102-61" stroke-width="5.5" stroke="#06d6a07E"/><path d="M-18-158l-118 5" stroke-width="5.5" stroke="#06d6a07E"/><path d="M54-54l-46 109" stroke-width="5.5" stroke="#06d6a07F"/><path d="M133-276l33-113" stroke-width="5.5" stroke="#ffd16680"/><path d="M-18-158l-118 5" stroke-width="5.6" stroke="#ffd16681"/><path d="M152-56l52 106" stroke-width="5.6" stroke="#06d6a081"/><path d="M161-264l61-101" stroke-width="5.6" stroke="#06d6a082"/><path d="M133-49l32 113" stroke-width="5.7" stroke="#118ab284"/><path d="M64-50l-37 112" stroke-width="5.7" stroke="#073b4c85"/><path d="M68-276l-33-113" stroke-width="5.7" stroke="#118ab285"/><path d="M82-279l-18-117" stroke-width="5.8" stroke="#118ab286"/><path d="M217-149l117 13" stroke-width="5.8" stroke="#073b4c87"/><path d="M87-280l-12-117" stroke-width="5.9" stroke="#06d6a089"/><path d="M74-48l-26 115" stroke-width="5.9" stroke="#06d6a08A"/><path d="M-16-143l-116 20" stroke-width="6.0" stroke="#073b4c8C"/><path d="M194-92l94 70" stroke-width="6.0" stroke="#ffd1668C"/><path d="M27-71l-73 92" stroke-width="6.0" stroke="#06d6a08C"/><path d="M-9-120l-110 43" stroke-width="6.0" stroke="#073b4c8D"/><path d="M153-267l52-105" stroke-width="6.1" stroke="#06d6a08F"/><path d="M175-73l75 90" stroke-width="6.1" stroke="#118ab291"/><path d="M-9-205l-108-43" stroke-width="6.1" stroke="#073b4c91"/><path d="M64-51l-36 111" stroke-width="6.2" stroke="#06d6a092"/><path d="M-7-209l-107-47" stroke-width="6.2" stroke="#118ab293"/><path d="M24-250l-75-88" stroke-width="6.4" stroke="#ffd16698"/><path d="M22-248l-78-86" stroke-width="6.4" stroke="#ffd16699"/><path d="M-7-120l-107 43" stroke-width="6.5" stroke="#118ab29A"/><path d="M-6-118l-107 44" stroke-width="6.5" stroke="#ffd1669B"/><path d="M50-266l-51-103" stroke-width="6.6" stroke="#ef476f9D"/><path d="M-13-159l-114 3" stroke-width="6.7" stroke="#073b4cA2"/><path d="M151-61l51 101" stroke-width="6.8" stroke="#ffd166A3"/><path d="M166-254l66-91" stroke-width="6.8" stroke="#073b4cA5"/><path d="M1-109l-100 53" stroke-width="6.9" stroke="#118ab2A5"/><path d="M213-164l112-1" stroke-width="6.9" stroke="#118ab2A6"/><path d="M195-222l96-60" stroke-width="6.9" stroke="#073b4cA6"/><path d="M1-215l-98-53" stroke-width="6.9" stroke="#ef476fA8"/><path d="M198-215l98-53" stroke-width="7.0" stroke="#118ab2A9"/><path d="M210-178l110-16" stroke-width="7.0" stroke="#118ab2AA"/><path d="M210-153l111 10" stroke-width="7.1" stroke="#118ab2AB"/><path d="M-1-208l-101-45" stroke-width="7.1" stroke="#073b4cAC"/><path d="M194-104l94 58" stroke-width="7.1" stroke="#118ab2AC"/><path d="M16-93l-84 70" stroke-width="7.2" stroke="#06d6a0B0"/><path d="M150-66l50 96" stroke-width="7.3" stroke="#ef476fB1"/><path d="M122-56l22 106" stroke-width="7.3" stroke="#06d6a0B1"/><path d="M21-88l-78 74" stroke-width="7.3" stroke="#ffd166B2"/><path d="M-7-181l-106-18" stroke-width="7.3" stroke="#118ab2B2"/><path d="M180-234l81-72" stroke-width="7.3" stroke="#ef476fB3"/><path d="M127-267l27-104" stroke-width="7.3" stroke="#ffd166B3"/><path d="M51-67l-49 96" stroke-width="7.4" stroke="#ffd166B4"/><path d="M68-265l-32-102" stroke-width="7.4" stroke="#073b4cB5"/><path d="M205-149l106 14" stroke-width="7.5" stroke="#073b4cB7"/><path d="M151-71l52 92" stroke-width="7.5" stroke="#ef476fB9"/><path d="M184-101l83 62" stroke-width="7.6" stroke="#ffd166BC"/><path d="M69-65l-31 98" stroke-width="7.7" stroke="#06d6a0BF"/><path d="M72-64l-29 98" stroke-width="7.8" stroke="#ef476fBF"/><path d="M64-257l-37-94" stroke-width="7.8" stroke="#06d6a0C1"/><path d="M101-62l0 101" stroke-width="7.8" stroke="#118ab2C2"/><path d="M181-222l81-60" stroke-width="7.9" stroke="#073b4cC2"/><path d="M197-144l97 18" stroke-width="8.0" stroke="#ffd166C5"/><path d="M180-105l80 57" stroke-width="8.0" stroke="#118ab2C5"/><path d="M6-141l-94 22" stroke-width="8.1" stroke="#ffd166C9"/><path d="M102-67l2 96" stroke-width="8.1" stroke="#ef476fCA"/><path d="M12-199l-87-36" stroke-width="8.2" stroke="#ef476fCB"/><path d="M46-86l-53 77" stroke-width="8.2" stroke="#ffd166CC"/><path d="M58-246l-42-84" stroke-width="8.2" stroke="#ef476fCD"/><path d="M129-74l29 89" stroke-width="8.2" stroke="#073b4cCD"/><path d="M102-70l2 93" stroke-width="8.3" stroke="#073b4cCE"/><path d="M48-236l-53-73" stroke-width="8.4" stroke="#073b4cD2"/><path d="M161-97l62 65" stroke-width="8.4" stroke="#ffd166D2"/><path d="M109-251l8-89" stroke-width="8.5" stroke="#118ab2D3"/><path d="M148-89l47 73" stroke-width="8.5" stroke="#ef476fD5"/><path d="M17-136l-83 27" stroke-width="8.5" stroke="#06d6a0D5"/><path d="M179-198l79-35" stroke-width="8.6" stroke="#118ab2D6"/><path d="M165-115l65 47" stroke-width="8.8" stroke="#06d6a0DD"/><path d="M44-220l-56-57" stroke-width="8.8" stroke="#073b4cDD"/><path d="M45-220l-54-57" stroke-width="8.8" stroke="#073b4cDE"/><path d="M172-185l73-22" stroke-width="9.0" stroke="#073b4cE1"/><path d="M29-185l-72-22" stroke-width="9.0" stroke="#073b4cE2"/><path d="M54-107l-45 56" stroke-width="9.1" stroke="#ffd166E4"/><path d="M36-131l-65 32" stroke-width="9.1" stroke="#073b4cE4"/><path d="M156-119l56 43" stroke-width="9.1" stroke="#ef476fE5"/><path d="M35-136l-64 26" stroke-width="9.1" stroke="#ffd166E6"/><path d="M50-198l-50-35" stroke-width="9.3" stroke="#ffd166EC"/><path d="M111-109l10 53" stroke-width="9.5" stroke="#06d6a0F0"/><path d="M111-110l11 52" stroke-width="9.5" stroke="#ef476fF1"/><path d="M135-123l34 40" stroke-width="9.5" stroke="#ffd166F1"/><path d="M49-157l-51 5" stroke-width="9.6" stroke="#118ab2F2"/><path d="M118-115l17 47" stroke-width="9.6" stroke="#ffd166F2"/><path d="M58-139l-43 23" stroke-width="9.6" stroke="#ef476fF3"/><path d="M67-193l-33-31" stroke-width="9.7" stroke="#ffd166F5"/><path d="M102-206l2-43" stroke-width="9.7" stroke="#118ab2F6"/><path d="M137-183l37-21" stroke-width="9.7" stroke="#118ab2F6"/><path d="M136-157l36 5" stroke-width="9.8" stroke="#ffd166F8"/><path d="M130-152l31 10" stroke-width="9.8" stroke="#118ab2FA"/><path d="M98-143l-2 19" stroke-width="9.9" stroke="#06d6a0FD"/><path d="M112-151l13 12" stroke-width="10.0" stroke="#073b4cFD"/><path d="M113-164l12-1" stroke-width="10.0" stroke="#06d6a0FE"/><path d="M103-151l4 12" stroke-width="10.0" stroke="#073b4cFE"/></g></svg>