<svg width="1200" height="675" viewBox="-500 -500 1200 675" xmlns="http://www.w3.org/2000/svg"><path d="M-500-500h1200v675h-1200z" fill="#000"/><style>.sparkles path{stroke-linecap:round}</style><g class="sparkles"><path d="M98-150l-3 13" stroke-width="1.0" stroke="#005bbb0"/><path d="M122-150l22 13" stroke-width="1.1" stroke="#005bbb2"/><path d="M78-182l-22-20" stroke-width="1.1" stroke="#c2e1ff4"/><path d="M132-158l32 5" stroke-width="1.2" stroke="#c2e1ff4"/><path d="M95-198l-4-35" stroke-width="1.2" stroke="#c2e1ff5"/><path d="M138-134l38 29" stroke-width="1.4" stroke="#c2e1ffA"/><path d="M74-203l-27-41" stroke-width="1.4" stroke="#005bbbB"/><path d="M66-122l-34 41" stroke-width="1.5" stroke="#fffD"/><path d="M150-186l51-24" stroke-width="1.5" stroke="#fffF"/><path d="M108-106l9 56" stroke-width="1.6" stroke="#fffF"/><path d="M156-144l56 18" stroke-width="1.6" stroke="#fff11"/><path d="M108-99l9 63" stroke-width="1.7" stroke="#fff50014"/><path d="M47-126l-52 37" stroke-width="1.7" stroke="#fff14"/><path d="M147-116l46 47" stroke-width="1.8" stroke="#fff15"/><path d="M92-229l-8-66" stroke-width="1.8" stroke="#005bbb16"/><path d="M167-152l68 10" stroke-width="1.8" stroke="#fff50017"/><path d="M36-139l-64 23" stroke-width="1.8" stroke="#c2e1ff17"/><path d="M42-204l-57-41" stroke-width="1.9" stroke="#fff50019"/><path d="M132-231l31-69" stroke-width="2.0" stroke="#c2e1ff1D"/><path d="M36-204l-64-41" stroke-width="2.1" stroke="#c2e1ff1D"/><path d="M94-239l-6-77" stroke-width="2.1" stroke="#fff5001E"/><path d="M35-205l-66-43" stroke-width="2.1" stroke="#fff5001F"/><path d="M174-137l75 26" stroke-width="2.1" stroke="#fff20"/><path d="M167-205l68-42" stroke-width="2.2" stroke="#fff50021"/><path d="M128-88l28 75" stroke-width="2.2" stroke="#005bbb21"/><path d="M27-199l-74-37" stroke-width="2.3" stroke="#005bbb23"/><path d="M46-101l-54 62" stroke-width="2.3" stroke="#005bbb23"/><path d="M17-149l-82 13" stroke-width="2.3" stroke="#c2e1ff25"/><path d="M19-137l-80 26" stroke-width="2.4" stroke="#fff26"/><path d="M26-203l-75-41" stroke-width="2.4" stroke="#fff50026"/><path d="M174-207l74-44" stroke-width="2.4" stroke="#005bbb28"/><path d="M32-216l-69-53" stroke-width="2.4" stroke="#fff28"/><path d="M150-236l49-73" stroke-width="2.5" stroke="#005bbb2B"/><path d="M140-83l39 79" stroke-width="2.5" stroke="#fff5002B"/><path d="M162-228l62-65" stroke-width="2.6" stroke="#005bbb2D"/><path d="M18-200l-82-38" stroke-width="2.6" stroke="#c2e1ff2D"/><path d="M167-224l67-61" stroke-width="2.6" stroke="#fff5002E"/><path d="M8-161l-91 2" stroke-width="2.7" stroke="#c2e1ff2F"/><path d="M190-141l90 21" stroke-width="2.7" stroke="#fff5002F"/><path d="M12-197l-88-35" stroke-width="2.8" stroke="#c2e1ff32"/><path d="M73-70l-26 92" stroke-width="2.9" stroke="#fff50035"/><path d="M2-172l-98-9" stroke-width="3.0" stroke="#fff38"/><path d="M191-123l91 39" stroke-width="3.0" stroke="#fff3A"/><path d="M19-220l-81-57" stroke-width="3.1" stroke="#005bbb3A"/><path d="M10-117l-89 45" stroke-width="3.1" stroke="#fff3C"/><path d="M41-244l-60-81" stroke-width="3.1" stroke="#c2e1ff3C"/><path d="M17-219l-84-57" stroke-width="3.2" stroke="#fff5003C"/><path d="M99-61l-2 101" stroke-width="3.2" stroke="#fff3D"/><path d="M172-90l72 72" stroke-width="3.2" stroke="#005bbb3E"/><path d="M0-144l-100 19" stroke-width="3.2" stroke="#fff3F"/><path d="M98-267l-2-104" stroke-width="3.4" stroke="#fff43"/><path d="M192-212l92-50" stroke-width="3.4" stroke="#fff43"/><path d="M-2-188l-102-26" stroke-width="3.4" stroke="#fff45"/><path d="M115-267l16-104" stroke-width="3.5" stroke="#fff50045"/><path d="M147-68l47 95" stroke-width="3.5" stroke="#fff50046"/><path d="M180-232l79-70" stroke-width="3.5" stroke="#005bbb46"/><path d="M115-267l15-105" stroke-width="3.5" stroke="#fff50046"/><path d="M70-61l-30 102" stroke-width="3.5" stroke="#005bbb47"/><path d="M207-163l107-1" stroke-width="3.6" stroke="#c2e1ff49"/><path d="M74-266l-26-104" stroke-width="3.6" stroke="#fff50049"/><path d="M134-60l34 102" stroke-width="3.7" stroke="#fff5004B"/><path d="M152-257l52-95" stroke-width="3.7" stroke="#fff5004B"/><path d="M113-270l13-107" stroke-width="3.7" stroke="#fff4C"/><path d="M-9-149l-109 14" stroke-width="3.8" stroke="#fff50050"/><path d="M82-54l-18 108" stroke-width="3.8" stroke="#fff50"/><path d="M72-56l-29 106" stroke-width="3.8" stroke="#c2e1ff50"/><path d="M153-65l52 97" stroke-width="3.9" stroke="#c2e1ff52"/><path d="M30-76l-70 86" stroke-width="3.9" stroke="#005bbb53"/><path d="M82-53l-18 109" stroke-width="4.0" stroke="#fff53"/><path d="M81-53l-18 110" stroke-width="4.0" stroke="#005bbb54"/><path d="M123-271l24-109" stroke-width="4.0" stroke="#c2e1ff55"/><path d="M6-103l-94 60" stroke-width="4.0" stroke="#c2e1ff55"/><path d="M144-265l44-103" stroke-width="4.0" stroke="#c2e1ff56"/><path d="M-11-145l-110 18" stroke-width="4.1" stroke="#fff57"/><path d="M212-154l112 9" stroke-width="4.1" stroke="#fff50058"/><path d="M185-89l85 74" stroke-width="4.1" stroke="#c2e1ff58"/><path d="M-13-164l-113-2" stroke-width="4.2" stroke="#005bbb5B"/><path d="M214-156l113 7" stroke-width="4.3" stroke="#fff5005D"/><path d="M200-108l100 54" stroke-width="4.3" stroke="#fff5005D"/><path d="M106-48l7 114" stroke-width="4.4" stroke="#fff50060"/><path d="M61-55l-39 108" stroke-width="4.4" stroke="#fff60"/><path d="M215-162l115 0" stroke-width="4.5" stroke="#c2e1ff62"/><path d="M54-56l-45 106" stroke-width="4.5" stroke="#fff64"/><path d="M135-273l35-110" stroke-width="4.6" stroke="#005bbb65"/><path d="M32-69l-68 94" stroke-width="4.6" stroke="#fff50066"/><path d="M126-49l25 113" stroke-width="4.6" stroke="#005bbb67"/><path d="M189-87l88 75" stroke-width="4.7" stroke="#fff69"/><path d="M173-71l73 91" stroke-width="4.8" stroke="#005bbb6B"/><path d="M201-104l101 59" stroke-width="4.8" stroke="#005bbb6C"/><path d="M-1-103l-100 60" stroke-width="4.9" stroke="#fff6D"/><path d="M134-51l34 112" stroke-width="4.9" stroke="#fff5006E"/><path d="M-16-144l-115 19" stroke-width="4.9" stroke="#c2e1ff6E"/><path d="M210-204l109-42" stroke-width="4.9" stroke="#005bbb6F"/><path d="M156-60l56 103" stroke-width="4.9" stroke="#005bbb6F"/><path d="M-5-111l-106 52" stroke-width="5.0" stroke="#fff50070"/><path d="M107-45l8 117" stroke-width="5.1" stroke="#fff73"/><path d="M42-60l-58 103" stroke-width="5.1" stroke="#005bbb74"/><path d="M179-76l80 87" stroke-width="5.1" stroke="#005bbb74"/><path d="M142-53l43 110" stroke-width="5.2" stroke="#fff50075"/><path d="M127-277l26-115" stroke-width="5.2" stroke="#c2e1ff77"/><path d="M-4-107l-104 55" stroke-width="5.2" stroke="#005bbb77"/><path d="M83-46l-18 117" stroke-width="5.3" stroke="#c2e1ff7B"/><path d="M185-81l86 82" stroke-width="5.5" stroke="#005bbb7E"/><path d="M70-48l-30 114" stroke-width="5.5" stroke="#fff5007E"/><path d="M-18-154l-118 8" stroke-width="5.5" stroke="#005bbb7F"/><path d="M25-72l-76 91" stroke-width="5.6" stroke="#fff50081"/><path d="M140-52l41 111" stroke-width="5.6" stroke="#c2e1ff81"/><path d="M107-280l7-118" stroke-width="5.7" stroke="#fff85"/><path d="M-10-121l-111 41" stroke-width="5.8" stroke="#fff50086"/><path d="M-17-173l-118-11" stroke-width="5.8" stroke="#005bbb87"/><path d="M39-263l-61-101" stroke-width="5.8" stroke="#005bbb88"/><path d="M161-263l61-101" stroke-width="5.8" stroke="#fff50088"/><path d="M113-280l12-117" stroke-width="5.9" stroke="#c2e1ff89"/><path d="M26-254l-74-92" stroke-width="5.9" stroke="#005bbb8A"/><path d="M-8-209l-108-46" stroke-width="5.9" stroke="#c2e1ff8B"/><path d="M84-279l-17-116" stroke-width="5.9" stroke="#fff8B"/><path d="M-14-189l-115-26" stroke-width="6.0" stroke="#005bbb8D"/><path d="M214-192l114-29" stroke-width="6.0" stroke="#fff5008D"/><path d="M132-275l33-113" stroke-width="6.0" stroke="#fff8E"/><path d="M213-132l113 31" stroke-width="6.0" stroke="#fff8E"/><path d="M203-108l102 55" stroke-width="6.3" stroke="#c2e1ff95"/><path d="M-16-161l-117 1" stroke-width="6.3" stroke="#c2e1ff95"/><path d="M5-96l-96 66" stroke-width="6.3" stroke="#fff96"/><path d="M106-47l7 116" stroke-width="6.4" stroke="#005bbb97"/><path d="M3-226l-96-64" stroke-width="6.4" stroke="#c2e1ff98"/><path d="M-14-180l-115-17" stroke-width="6.4" stroke="#005bbb99"/><path d="M25-249l-76-87" stroke-width="6.6" stroke="#c2e1ff9D"/><path d="M-6-120l-107 42" stroke-width="6.6" stroke="#fff5009E"/><path d="M154-262l53-99" stroke-width="6.8" stroke="#fffA5"/><path d="M-10-136l-109 26" stroke-width="6.9" stroke="#c2e1ffA5"/><path d="M-12-162l-113 1" stroke-width="6.9" stroke="#fffA6"/><path d="M-10-142l-110 21" stroke-width="6.9" stroke="#fff500A7"/><path d="M191-227l90-64" stroke-width="7.0" stroke="#c2e1ffAB"/><path d="M161-72l62 91" stroke-width="7.2" stroke="#fff500AE"/><path d="M22-238l-79-75" stroke-width="7.3" stroke="#c2e1ffB1"/><path d="M154-68l53 95" stroke-width="7.3" stroke="#fffB1"/><path d="M24-85l-75 78" stroke-width="7.3" stroke="#c2e1ffB1"/><path d="M75-267l-26-104" stroke-width="7.4" stroke="#005bbbB4"/><path d="M41-252l-59-89" stroke-width="7.4" stroke="#fff500B5"/><path d="M5-112l-94 50" stroke-width="7.4" stroke="#fff500B5"/><path d="M202-129l101 33" stroke-width="7.4" stroke="#c2e1ffB5"/><path d="M136-262l37-100" stroke-width="7.5" stroke="#fffB7"/><path d="M85-266l-16-103" stroke-width="7.6" stroke="#c2e1ffBB"/><path d="M58-68l-43 94" stroke-width="7.7" stroke="#fff500BD"/><path d="M188-109l88 53" stroke-width="7.7" stroke="#005bbbBE"/><path d="M199-135l99 27" stroke-width="7.7" stroke="#c2e1ffBE"/><path d="M197-136l97 27" stroke-width="7.9" stroke="#c2e1ffC2"/><path d="M46-78l-54 84" stroke-width="7.9" stroke="#005bbbC3"/><path d="M66-70l-34 92" stroke-width="8.0" stroke="#fffC5"/><path d="M81-67l-18 95" stroke-width="8.1" stroke="#fff500C7"/><path d="M191-128l91 34" stroke-width="8.1" stroke="#fffC7"/><path d="M178-105l77 57" stroke-width="8.1" stroke="#005bbbC9"/><path d="M186-120l86 42" stroke-width="8.1" stroke="#c2e1ffC9"/><path d="M93-67l-8 95" stroke-width="8.1" stroke="#fff500CA"/><path d="M6-175l-93-13" stroke-width="8.2" stroke="#fffCC"/><path d="M153-86l54 77" stroke-width="8.2" stroke="#c2e1ffCD"/><path d="M126-252l27-90" stroke-width="8.3" stroke="#fff500CD"/><path d="M184-126l85 36" stroke-width="8.3" stroke="#c2e1ffCF"/><path d="M84-73l-16 90" stroke-width="8.4" stroke="#c2e1ffD0"/><path d="M179-121l80 41" stroke-width="8.4" stroke="#c2e1ffD2"/><path d="M86-76l-15 87" stroke-width="8.5" stroke="#c2e1ffD4"/><path d="M103-75l4 87" stroke-width="8.5" stroke="#c2e1ffD5"/><path d="M66-82l-34 80" stroke-width="8.5" stroke="#005bbbD5"/><path d="M145-237l45-75" stroke-width="8.5" stroke="#fff500D5"/><path d="M175-206l74-44" stroke-width="8.6" stroke="#fffD6"/><path d="M183-182l83-20" stroke-width="8.6" stroke="#005bbbD7"/><path d="M60-91l-39 72" stroke-width="8.7" stroke="#005bbbDB"/><path d="M24-192l-75-30" stroke-width="8.8" stroke="#c2e1ffDC"/><path d="M24-142l-76 20" stroke-width="8.9" stroke="#c2e1ffDE"/><path d="M124-235l25-73" stroke-width="8.9" stroke="#c2e1ffE0"/><path d="M41-207l-58-44" stroke-width="9.0" stroke="#c2e1ffE3"/><path d="M145-107l44 55" stroke-width="9.1" stroke="#fffE5"/><path d="M42-192l-57-30" stroke-width="9.3" stroke="#c2e1ffEA"/><path d="M115-105l15 58" stroke-width="9.4" stroke="#fffED"/><path d="M87-220l-14-58" stroke-width="9.4" stroke="#005bbbED"/><path d="M48-140l-52 23" stroke-width="9.4" stroke="#c2e1ffEF"/><path d="M84-210l-15-47" stroke-width="9.6" stroke="#c2e1ffF3"/><path d="M132-132l33 31" stroke-width="9.7" stroke="#fff500F5"/><path d="M108-205l9-42" stroke-width="9.7" stroke="#fffF6"/><path d="M106-192l5-30" stroke-width="9.9" stroke="#fff500FA"/><path d="M92-170l-8-8" stroke-width="10.0" stroke="#fffFE"/></g></svg>