<svg width="1200" height="675" viewBox="-500 -500 1200 675" xmlns="http://www.w3.org/2000/svg"><path d="M-500-500h1200v675h-1200z" fill="#000"/><style>.sparkles path{stroke-linecap:round}</style><g class="sparkles"><path d="M111-174l12-11" stroke-width="1.0" stroke="#005bbb1"/><path d="M113-140l13 22" stroke-width="1.1" stroke="#fff5003"/><path d="M119-195l19-32" stroke-width="1.2" stroke="#fff5006"/><path d="M69-191l-32-29" stroke-width="1.3" stroke="#c2e1ff8"/><path d="M128-126l27 36" stroke-width="1.3" stroke="#fff9"/><path d="M91-207l-9-45" stroke-width="1.4" stroke="#c2e1ff9"/><path d="M89-214l-10-52" stroke-width="1.5" stroke="#c2e1ffD"/><path d="M151-137l52 26" stroke-width="1.6" stroke="#005bbb10"/><path d="M42-153l-58 10" stroke-width="1.6" stroke="#c2e1ff10"/><path d="M70-215l-29-52" stroke-width="1.6" stroke="#fff11"/><path d="M114-222l13-59" stroke-width="1.6" stroke="#c2e1ff12"/><path d="M120-223l21-60" stroke-width="1.7" stroke="#fff14"/><path d="M61-110l-38 53" stroke-width="1.7" stroke="#fff50015"/><path d="M134-106l33 56" stroke-width="1.8" stroke="#fff15"/><path d="M167-153l67 9" stroke-width="1.8" stroke="#c2e1ff17"/><path d="M158-123l57 39" stroke-width="1.9" stroke="#005bbb18"/><path d="M149-112l49 51" stroke-width="1.9" stroke="#005bbb19"/><path d="M104-234l4-71" stroke-width="1.9" stroke="#fff19"/><path d="M60-223l-40-61" stroke-width="2.0" stroke="#005bbb1A"/><path d="M105-239l4-76" stroke-width="2.1" stroke="#fff1E"/><path d="M173-186l73-24" stroke-width="2.1" stroke="#c2e1ff1E"/><path d="M99-85l-1 78" stroke-width="2.1" stroke="#fff1F"/><path d="M167-206l67-43" stroke-width="2.2" stroke="#fff50021"/><path d="M82-241l-19-78" stroke-width="2.2" stroke="#fff21"/><path d="M110-83l11 80" stroke-width="2.2" stroke="#005bbb22"/><path d="M30-203l-70-40" stroke-width="2.2" stroke="#005bbb22"/><path d="M45-102l-55 61" stroke-width="2.3" stroke="#fff23"/><path d="M166-113l66 49" stroke-width="2.3" stroke="#c2e1ff24"/><path d="M54-232l-46-69" stroke-width="2.3" stroke="#c2e1ff24"/><path d="M27-122l-72 41" stroke-width="2.3" stroke="#fff50024"/><path d="M56-91l-44 72" stroke-width="2.3" stroke="#fff25"/><path d="M51-232l-48-70" stroke-width="2.4" stroke="#fff26"/><path d="M59-239l-40-77" stroke-width="2.5" stroke="#fff50029"/><path d="M182-194l81-32" stroke-width="2.5" stroke="#005bbb29"/><path d="M159-229l59-66" stroke-width="2.5" stroke="#c2e1ff2B"/><path d="M64-245l-35-82" stroke-width="2.6" stroke="#fff2C"/><path d="M64-80l-36 82" stroke-width="2.6" stroke="#fff5002C"/><path d="M60-78l-39 85" stroke-width="2.8" stroke="#fff31"/><path d="M19-210l-81-48" stroke-width="2.8" stroke="#005bbb32"/><path d="M95-68l-5 95" stroke-width="2.8" stroke="#fff33"/><path d="M16-118l-85 44" stroke-width="2.8" stroke="#005bbb33"/><path d="M5-163l-96 0" stroke-width="2.8" stroke="#fff34"/><path d="M12-126l-89 37" stroke-width="2.9" stroke="#fff34"/><path d="M149-248l49-86" stroke-width="3.0" stroke="#c2e1ff39"/><path d="M195-189l95-27" stroke-width="3.0" stroke="#fff39"/><path d="M192-126l93 36" stroke-width="3.1" stroke="#fff5003A"/><path d="M98-264l-1-102" stroke-width="3.2" stroke="#c2e1ff3E"/><path d="M72-261l-27-98" stroke-width="3.2" stroke="#005bbb3F"/><path d="M60-68l-40 94" stroke-width="3.3" stroke="#005bbb3F"/><path d="M199-191l99-29" stroke-width="3.3" stroke="#fff40"/><path d="M98-265l-2-103" stroke-width="3.3" stroke="#c2e1ff41"/><path d="M0-139l-100 24" stroke-width="3.3" stroke="#005bbb41"/><path d="M45-75l-56 87" stroke-width="3.3" stroke="#005bbb41"/><path d="M55-69l-45 94" stroke-width="3.4" stroke="#fff50042"/><path d="M45-73l-54 89" stroke-width="3.4" stroke="#c2e1ff44"/><path d="M7-211l-93-49" stroke-width="3.4" stroke="#c2e1ff45"/><path d="M191-108l90 54" stroke-width="3.5" stroke="#c2e1ff46"/><path d="M-4-178l-105-15" stroke-width="3.5" stroke="#fff46"/><path d="M205-173l106-11" stroke-width="3.5" stroke="#fff50047"/><path d="M21-233l-80-71" stroke-width="3.5" stroke="#005bbb47"/><path d="M37-248l-64-86" stroke-width="3.5" stroke="#fff48"/><path d="M16-96l-83 66" stroke-width="3.6" stroke="#fff48"/><path d="M203-130l104 32" stroke-width="3.7" stroke="#005bbb4C"/><path d="M37-73l-62 89" stroke-width="3.8" stroke="#fff4E"/><path d="M-9-170l-109-8" stroke-width="3.8" stroke="#c2e1ff4E"/><path d="M126-270l26-108" stroke-width="3.9" stroke="#fff50053"/><path d="M-11-159l-111 3" stroke-width="4.0" stroke="#fff50054"/><path d="M194-223l93-61" stroke-width="4.0" stroke="#c2e1ff55"/><path d="M146-60l45 102" stroke-width="4.1" stroke="#fff57"/><path d="M183-86l82 76" stroke-width="4.1" stroke="#fff57"/><path d="M128-53l27 109" stroke-width="4.1" stroke="#005bbb58"/><path d="M178-81l78 82" stroke-width="4.2" stroke="#fff5A"/><path d="M146-266l47-104" stroke-width="4.3" stroke="#fff5C"/><path d="M177-79l77 83" stroke-width="4.3" stroke="#fff5D"/><path d="M2-104l-98 58" stroke-width="4.3" stroke="#fff5D"/><path d="M31-72l-69 91" stroke-width="4.3" stroke="#005bbb5E"/><path d="M2-222l-98-60" stroke-width="4.4" stroke="#c2e1ff61"/><path d="M106-277l6-115" stroke-width="4.5" stroke="#fff50062"/><path d="M105-278l6-115" stroke-width="4.5" stroke="#c2e1ff63"/><path d="M103-278l2-115" stroke-width="4.6" stroke="#c2e1ff64"/><path d="M147-57l46 106" stroke-width="4.6" stroke="#fff65"/><path d="M132-51l33 112" stroke-width="4.7" stroke="#005bbb69"/><path d="M-2-106l-102 57" stroke-width="4.8" stroke="#fff5006A"/><path d="M144-270l45-108" stroke-width="4.8" stroke="#c2e1ff6B"/><path d="M107-46l6 117" stroke-width="4.8" stroke="#c2e1ff6C"/><path d="M216-148l116 14" stroke-width="4.9" stroke="#fff5006D"/><path d="M18-79l-82 84" stroke-width="4.9" stroke="#c2e1ff6E"/><path d="M48-57l-53 105" stroke-width="5.0" stroke="#005bbb71"/><path d="M70-276l-30-113" stroke-width="5.0" stroke="#fff71"/><path d="M-4-108l-104 55" stroke-width="5.0" stroke="#fff72"/><path d="M123-47l22 115" stroke-width="5.0" stroke="#c2e1ff72"/><path d="M94-280l-7-118" stroke-width="5.2" stroke="#fff50076"/><path d="M194-234l94-71" stroke-width="5.2" stroke="#fff77"/><path d="M146-271l46-109" stroke-width="5.2" stroke="#c2e1ff77"/><path d="M168-259l68-96" stroke-width="5.3" stroke="#005bbb78"/><path d="M-10-206l-109-44" stroke-width="5.4" stroke="#c2e1ff7B"/><path d="M205-216l106-53" stroke-width="5.5" stroke="#005bbb7E"/><path d="M151-269l51-107" stroke-width="5.5" stroke="#fff5007F"/><path d="M217-180l116-18" stroke-width="5.6" stroke="#fff50081"/><path d="M178-74l78 89" stroke-width="5.7" stroke="#fff50084"/><path d="M-3-104l-102 58" stroke-width="5.7" stroke="#005bbb84"/><path d="M177-252l78-89" stroke-width="5.7" stroke="#c2e1ff85"/><path d="M151-269l51-106" stroke-width="5.8" stroke="#fff50088"/><path d="M-11-123l-111 40" stroke-width="5.9" stroke="#c2e1ff8B"/><path d="M190-239l89-76" stroke-width="5.9" stroke="#c2e1ff8B"/><path d="M32-67l-68 96" stroke-width="6.0" stroke="#fff5008D"/><path d="M100-45l1 117" stroke-width="6.0" stroke="#fff5008E"/><path d="M194-232l94-70" stroke-width="6.1" stroke="#c2e1ff8F"/><path d="M108-46l7 117" stroke-width="6.1" stroke="#fff5008F"/><path d="M-17-166l-117-3" stroke-width="6.1" stroke="#fff5008F"/><path d="M-1-222l-101-59" stroke-width="6.1" stroke="#005bbb90"/><path d="M217-162l117 0" stroke-width="6.2" stroke="#005bbb92"/><path d="M199-224l99-62" stroke-width="6.3" stroke="#fff50094"/><path d="M28-254l-72-91" stroke-width="6.3" stroke="#c2e1ff95"/><path d="M166-258l66-96" stroke-width="6.3" stroke="#005bbb96"/><path d="M102-278l1-115" stroke-width="6.5" stroke="#005bbb9A"/><path d="M163-258l63-95" stroke-width="6.7" stroke="#c2e1ffA0"/><path d="M167-254l67-91" stroke-width="6.8" stroke="#c2e1ffA3"/><path d="M58-57l-43 105" stroke-width="6.8" stroke="#fffA3"/><path d="M196-105l97 57" stroke-width="6.9" stroke="#005bbbA7"/><path d="M206-128l106 35" stroke-width="7.0" stroke="#fffA9"/><path d="M161-70l60 93" stroke-width="7.1" stroke="#005bbbAB"/><path d="M-10-159l-110 3" stroke-width="7.2" stroke="#fff500AE"/><path d="M139-265l39-103" stroke-width="7.2" stroke="#fffAE"/><path d="M90-271l-10-109" stroke-width="7.2" stroke="#fffAF"/><path d="M153-256l53-93" stroke-width="7.4" stroke="#fffB4"/><path d="M6-213l-94-50" stroke-width="7.4" stroke="#c2e1ffB6"/><path d="M170-241l70-78" stroke-width="7.6" stroke="#fff500BA"/><path d="M139-259l39-96" stroke-width="7.6" stroke="#fff500BC"/><path d="M71-262l-28-99" stroke-width="7.7" stroke="#c2e1ffBC"/><path d="M-1-145l-102 17" stroke-width="7.7" stroke="#005bbbBE"/><path d="M64-66l-36 96" stroke-width="7.7" stroke="#005bbbBE"/><path d="M136-257l36-95" stroke-width="7.8" stroke="#fffC0"/><path d="M55-253l-46-91" stroke-width="7.8" stroke="#005bbbC0"/><path d="M191-119l92 44" stroke-width="7.8" stroke="#fff500C1"/><path d="M7-124l-93 39" stroke-width="7.8" stroke="#c2e1ffC1"/><path d="M142-72l42 91" stroke-width="7.9" stroke="#c2e1ffC3"/><path d="M197-149l98 14" stroke-width="8.0" stroke="#c2e1ffC6"/><path d="M45-243l-55-81" stroke-width="8.0" stroke="#c2e1ffC7"/><path d="M9-197l-91-35" stroke-width="8.0" stroke="#c2e1ffC7"/><path d="M55-247l-45-84" stroke-width="8.2" stroke="#005bbbCA"/><path d="M81-253l-20-90" stroke-width="8.3" stroke="#fffCE"/><path d="M50-86l-50 77" stroke-width="8.4" stroke="#005bbbD0"/><path d="M114-250l13-87" stroke-width="8.5" stroke="#fffD3"/><path d="M18-133l-83 30" stroke-width="8.5" stroke="#fffD5"/><path d="M30-112l-69 51" stroke-width="8.6" stroke="#fffD6"/><path d="M133-242l34-79" stroke-width="8.6" stroke="#fffD7"/><path d="M74-242l-27-79" stroke-width="8.7" stroke="#fffD9"/><path d="M78-85l-22 78" stroke-width="8.8" stroke="#fffDC"/><path d="M137-92l36 70" stroke-width="8.8" stroke="#fff500DD"/><path d="M64-92l-35 70" stroke-width="8.8" stroke="#c2e1ffDE"/><path d="M79-238l-21-76" stroke-width="8.9" stroke="#fff500DE"/><path d="M134-233l34-71" stroke-width="8.9" stroke="#fff500DE"/><path d="M24-171l-75-8" stroke-width="8.9" stroke="#c2e1ffE1"/><path d="M31-194l-69-32" stroke-width="8.9" stroke="#fffE1"/><path d="M75-234l-24-72" stroke-width="9.0" stroke="#fffE1"/><path d="M127-233l27-70" stroke-width="9.0" stroke="#c2e1ffE1"/><path d="M37-126l-62 36" stroke-width="9.1" stroke="#fffE4"/><path d="M122-94l21 69" stroke-width="9.1" stroke="#005bbbE4"/><path d="M86-92l-13 71" stroke-width="9.1" stroke="#c2e1ffE4"/><path d="M128-225l27-63" stroke-width="9.2" stroke="#005bbbE7"/><path d="M73-225l-27-62" stroke-width="9.2" stroke="#fff500E7"/><path d="M38-166l-63-3" stroke-width="9.3" stroke="#fff500EB"/><path d="M102-100l1 62" stroke-width="9.3" stroke="#fff500EB"/><path d="M41-145l-59 17" stroke-width="9.3" stroke="#fffEC"/><path d="M154-132l53 30" stroke-width="9.3" stroke="#fff500EC"/><path d="M55-128l-45 35" stroke-width="9.4" stroke="#fffEF"/><path d="M118-212l19-49" stroke-width="9.5" stroke="#005bbbF1"/><path d="M111-214l11-51" stroke-width="9.5" stroke="#fffF1"/><path d="M77-205l-23-42" stroke-width="9.6" stroke="#c2e1ffF4"/><path d="M138-136l38 27" stroke-width="9.6" stroke="#fffF4"/><path d="M82-205l-18-42" stroke-width="9.6" stroke="#fff500F4"/><path d="M58-176l-43-13" stroke-width="9.7" stroke="#fffF5"/><path d="M139-176l39-14" stroke-width="9.7" stroke="#fff500F6"/><path d="M65-150l-35 12" stroke-width="9.8" stroke="#c2e1ffF8"/><path d="M99-126l-2 36" stroke-width="9.8" stroke="#fff500F8"/><path d="M125-188l24-26" stroke-width="9.8" stroke="#005bbbF9"/><path d="M132-149l33 13" stroke-width="9.8" stroke="#005bbbF9"/><path d="M98-192l-3-29" stroke-width="9.9" stroke="#005bbbFB"/><path d="M127-170l27-8" stroke-width="9.9" stroke="#fffFB"/><path d="M107-140l7 22" stroke-width="9.9" stroke="#fff500FC"/></g></svg>