<svg width="1200" height="675" viewBox="-500 -500 1200 675" xmlns="http://www.w3.org/2000/svg"><path d="M-500-500h1200v675h-1200z" fill="#000"/><style>.sparkles path{stroke-linecap:round}</style><g class="sparkles"><path d="M87-161l-14 2" stroke-width="1.0" stroke="#14213d0"/><path d="M115-149l16 13" stroke-width="1.1" stroke="#1122331"/><path d="M102-184l2-21" stroke-width="1.1" stroke="#1122332"/><path d="M76-201l-25-39" stroke-width="1.4" stroke="#fca3119"/><path d="M71-202l-29-40" stroke-width="1.4" stroke="#fca311B"/><path d="M146-144l46 18" stroke-width="1.4" stroke="#14213dB"/><path d="M131-120l32 42" stroke-width="1.5" stroke="#fca311D"/><path d="M60-127l-40 36" stroke-width="1.5" stroke="#14213dD"/><path d="M139-126l40 37" stroke-width="1.5" stroke="#ffffffD"/><path d="M104-108l4 55" stroke-width="1.5" stroke="#14213dE"/><path d="M84-216l-15-54" stroke-width="1.5" stroke="#14213dF"/><path d="M119-108l19 54" stroke-width="1.6" stroke="#14213d10"/><path d="M152-187l52-25" stroke-width="1.6" stroke="#14213d10"/><path d="M136-207l36-45" stroke-width="1.6" stroke="#ffffff10"/><path d="M44-182l-56-19" stroke-width="1.6" stroke="#11223311"/><path d="M95-102l-4 61" stroke-width="1.6" stroke="#e5e5e512"/><path d="M164-177l63-15" stroke-width="1.8" stroke="#11223315"/><path d="M138-108l39 55" stroke-width="1.8" stroke="#14213d16"/><path d="M161-193l60-31" stroke-width="1.8" stroke="#e5e5e517"/><path d="M85-229l-15-67" stroke-width="1.8" stroke="#e5e5e517"/><path d="M38-133l-63 30" stroke-width="1.8" stroke="#11223317"/><path d="M165-194l66-32" stroke-width="2.0" stroke="#14213d1B"/><path d="M105-240l6-78" stroke-width="2.1" stroke="#fca3111F"/><path d="M21-152l-78 10" stroke-width="2.2" stroke="#14213d20"/><path d="M72-239l-28-77" stroke-width="2.2" stroke="#ffffff23"/><path d="M27-121l-74 42" stroke-width="2.4" stroke="#e5e5e526"/><path d="M184-172l84-10" stroke-width="2.4" stroke="#ffffff26"/><path d="M176-125l76 37" stroke-width="2.4" stroke="#14213d26"/><path d="M14-162l-86 0" stroke-width="2.4" stroke="#14213d28"/><path d="M130-244l30-82" stroke-width="2.5" stroke="#e5e5e529"/><path d="M13-150l-86 13" stroke-width="2.5" stroke="#14213d29"/><path d="M186-144l85 18" stroke-width="2.5" stroke="#fca31129"/><path d="M76-247l-24-84" stroke-width="2.5" stroke="#fca3112A"/><path d="M12-157l-88 5" stroke-width="2.5" stroke="#1122332A"/><path d="M12-152l-88 11" stroke-width="2.5" stroke="#1122332B"/><path d="M52-237l-48-75" stroke-width="2.5" stroke="#ffffff2B"/><path d="M183-126l83 36" stroke-width="2.6" stroke="#1122332D"/><path d="M10-144l-89 19" stroke-width="2.7" stroke="#1122332F"/><path d="M192-155l91 7" stroke-width="2.7" stroke="#ffffff2F"/><path d="M115-255l15-93" stroke-width="2.8" stroke="#11223332"/><path d="M169-229l69-67" stroke-width="2.9" stroke="#e5e5e534"/><path d="M71-70l-29 93" stroke-width="2.9" stroke="#ffffff36"/><path d="M65-71l-35 92" stroke-width="3.0" stroke="#11223338"/><path d="M21-220l-80-58" stroke-width="3.0" stroke="#11223338"/><path d="M56-251l-43-89" stroke-width="3.1" stroke="#14213d3A"/><path d="M82-65l-18 98" stroke-width="3.1" stroke="#1122333A"/><path d="M101-262l2-100" stroke-width="3.1" stroke="#14213d3B"/><path d="M12-210l-88-48" stroke-width="3.1" stroke="#fca3113B"/><path d="M11-212l-89-49" stroke-width="3.2" stroke="#14213d3E"/><path d="M195-127l96 36" stroke-width="3.2" stroke="#e5e5e53E"/><path d="M0-180l-101-18" stroke-width="3.2" stroke="#ffffff3F"/><path d="M12-215l-88-52" stroke-width="3.2" stroke="#14213d3F"/><path d="M3-197l-97-35" stroke-width="3.3" stroke="#ffffff41"/><path d="M142-66l42 96" stroke-width="3.4" stroke="#14213d44"/><path d="M45-73l-54 90" stroke-width="3.4" stroke="#11223344"/><path d="M-6-168l-105-5" stroke-width="3.5" stroke="#11223346"/><path d="M-6-168l-106-6" stroke-width="3.5" stroke="#ffffff48"/><path d="M204-191l105-28" stroke-width="3.7" stroke="#14213d4C"/><path d="M184-90l85 73" stroke-width="4.0" stroke="#fca31155"/><path d="M134-269l33-107" stroke-width="4.0" stroke="#14213d56"/><path d="M68-270l-32-107" stroke-width="4.1" stroke="#14213d56"/><path d="M79-272l-22-110" stroke-width="4.1" stroke="#ffffff56"/><path d="M17-87l-82 76" stroke-width="4.1" stroke="#fca31157"/><path d="M200-215l99-53" stroke-width="4.1" stroke="#e5e5e558"/><path d="M187-234l87-72" stroke-width="4.1" stroke="#ffffff59"/><path d="M179-243l80-81" stroke-width="4.2" stroke="#fca3115B"/><path d="M182-84l83 79" stroke-width="4.3" stroke="#14213d5D"/><path d="M-6-120l-106 42" stroke-width="4.3" stroke="#fca3115E"/><path d="M195-226l95-64" stroke-width="4.4" stroke="#ffffff5F"/><path d="M210-194l110-32" stroke-width="4.4" stroke="#fca3115F"/><path d="M189-236l89-74" stroke-width="4.6" stroke="#fca31165"/><path d="M23-76l-77 86" stroke-width="4.6" stroke="#fca31165"/><path d="M0-221l-100-58" stroke-width="4.6" stroke="#ffffff66"/><path d="M93-278l-7-116" stroke-width="4.7" stroke="#14213d67"/><path d="M176-251l75-88" stroke-width="4.7" stroke="#ffffff68"/><path d="M20-247l-80-84" stroke-width="4.7" stroke="#11223369"/><path d="M217-158l117 5" stroke-width="4.8" stroke="#ffffff6C"/><path d="M205-215l104-52" stroke-width="4.9" stroke="#e5e5e56D"/><path d="M110-279l10-117" stroke-width="4.9" stroke="#1122336D"/><path d="M217-157l117 6" stroke-width="4.9" stroke="#ffffff6E"/><path d="M124-277l23-115" stroke-width="5.0" stroke="#fca31170"/><path d="M213-130l113 32" stroke-width="5.0" stroke="#ffffff71"/><path d="M-3-106l-103 57" stroke-width="5.0" stroke="#11223371"/><path d="M21-75l-79 87" stroke-width="5.0" stroke="#11223372"/><path d="M131-49l30 114" stroke-width="5.1" stroke="#e5e5e574"/><path d="M53-270l-47-108" stroke-width="5.1" stroke="#fca31175"/><path d="M197-230l96-67" stroke-width="5.1" stroke="#ffffff75"/><path d="M131-276l32-114" stroke-width="5.2" stroke="#11223377"/><path d="M15-244l-85-82" stroke-width="5.3" stroke="#fca31179"/><path d="M150-56l51 107" stroke-width="5.3" stroke="#fca3117A"/><path d="M171-68l71 94" stroke-width="5.3" stroke="#ffffff7A"/><path d="M202-103l102 59" stroke-width="5.4" stroke="#e5e5e57B"/><path d="M-17-145l-116 18" stroke-width="5.4" stroke="#e5e5e57B"/><path d="M88-45l-11 117" stroke-width="5.4" stroke="#fca3117B"/><path d="M209-208l109-45" stroke-width="5.4" stroke="#ffffff7D"/><path d="M47-57l-53 106" stroke-width="5.4" stroke="#1122337D"/><path d="M87-280l-13-117" stroke-width="5.5" stroke="#14213d7E"/><path d="M-8-211l-108-48" stroke-width="5.5" stroke="#ffffff7F"/><path d="M-18-158l-118 4" stroke-width="5.5" stroke="#e5e5e57F"/><path d="M14-81l-86 81" stroke-width="5.6" stroke="#14213d82"/><path d="M12-241l-88-79" stroke-width="5.7" stroke="#14213d84"/><path d="M134-50l33 113" stroke-width="5.8" stroke="#fca31188"/><path d="M188-241l88-79" stroke-width="5.8" stroke="#11223389"/><path d="M69-276l-31-113" stroke-width="5.9" stroke="#ffffff8B"/><path d="M-1-223l-100-61" stroke-width="6.0" stroke="#14213d8D"/><path d="M205-109l104 53" stroke-width="6.0" stroke="#fca3118D"/><path d="M215-186l115-24" stroke-width="6.0" stroke="#e5e5e58E"/><path d="M135-51l36 111" stroke-width="6.1" stroke="#14213d91"/><path d="M211-126l111 36" stroke-width="6.2" stroke="#e5e5e593"/><path d="M216-175l116-13" stroke-width="6.2" stroke="#fca31193"/><path d="M112-47l12 116" stroke-width="6.3" stroke="#fca31196"/><path d="M-15-176l-115-13" stroke-width="6.4" stroke="#fca31199"/><path d="M-13-143l-114 19" stroke-width="6.5" stroke="#1122339C"/><path d="M51-58l-48 104" stroke-width="6.6" stroke="#14213d9D"/><path d="M65-53l-34 109" stroke-width="6.6" stroke="#fca3119D"/><path d="M89-276l-10-113" stroke-width="6.7" stroke="#ffffffA1"/><path d="M-1-215l-101-53" stroke-width="6.7" stroke="#112233A1"/><path d="M187-90l88 72" stroke-width="6.7" stroke="#14213dA2"/><path d="M148-265l49-103" stroke-width="6.7" stroke="#14213dA2"/><path d="M206-122l106 40" stroke-width="6.8" stroke="#fca311A3"/><path d="M140-57l40 105" stroke-width="6.8" stroke="#14213dA5"/><path d="M192-228l91-66" stroke-width="6.9" stroke="#14213dA5"/><path d="M21-84l-79 78" stroke-width="7.0" stroke="#112233A9"/><path d="M-11-153l-111 9" stroke-width="7.0" stroke="#112233A9"/><path d="M102-51l2 111" stroke-width="7.0" stroke="#fca311AA"/><path d="M-11-153l-110 10" stroke-width="7.0" stroke="#ffffffAB"/><path d="M0-116l-100 46" stroke-width="7.1" stroke="#fca311AD"/><path d="M182-91l82 72" stroke-width="7.2" stroke="#e5e5e5B1"/><path d="M33-78l-68 85" stroke-width="7.3" stroke="#e5e5e5B2"/><path d="M111-270l12-108" stroke-width="7.3" stroke="#112233B2"/><path d="M97-271l-4-108" stroke-width="7.3" stroke="#e5e5e5B2"/><path d="M28-241l-71-78" stroke-width="7.5" stroke="#112233B7"/><path d="M24-236l-76-74" stroke-width="7.5" stroke="#fca311B7"/><path d="M173-238l74-76" stroke-width="7.5" stroke="#14213dB9"/><path d="M196-120l97 43" stroke-width="7.5" stroke="#112233B9"/><path d="M26-237l-74-75" stroke-width="7.6" stroke="#112233B9"/><path d="M29-85l-71 77" stroke-width="7.6" stroke="#112233B9"/><path d="M194-121l94 41" stroke-width="7.7" stroke="#14213dBE"/><path d="M16-107l-85 56" stroke-width="7.8" stroke="#14213dC1"/><path d="M73-65l-27 97" stroke-width="7.8" stroke="#14213dC1"/><path d="M9-206l-90-44" stroke-width="7.9" stroke="#112233C2"/><path d="M196-135l96 28" stroke-width="7.9" stroke="#ffffffC3"/><path d="M49-79l-50 84" stroke-width="8.0" stroke="#ffffffC7"/><path d="M12-204l-87-41" stroke-width="8.1" stroke="#ffffffC8"/><path d="M122-256l22-93" stroke-width="8.1" stroke="#14213dCA"/><path d="M194-180l93-17" stroke-width="8.2" stroke="#fca311CA"/><path d="M9-184l-91-21" stroke-width="8.2" stroke="#14213dCD"/><path d="M138-246l38-83" stroke-width="8.4" stroke="#ffffffD0"/><path d="M12-181l-88-18" stroke-width="8.4" stroke="#fca311D2"/><path d="M18-198l-82-36" stroke-width="8.4" stroke="#e5e5e5D3"/><path d="M54-86l-45 76" stroke-width="8.5" stroke="#14213dD3"/><path d="M187-172l88-9" stroke-width="8.5" stroke="#fca311D4"/><path d="M142-239l41-76" stroke-width="8.6" stroke="#e5e5e5D5"/><path d="M28-208l-72-46" stroke-width="8.6" stroke="#e5e5e5D7"/><path d="M185-162l86 1" stroke-width="8.6" stroke="#14213dD7"/><path d="M128-84l28 79" stroke-width="8.7" stroke="#fca311D9"/><path d="M183-165l82-2" stroke-width="8.7" stroke="#14213dDA"/><path d="M179-186l79-23" stroke-width="8.7" stroke="#e5e5e5DB"/><path d="M180-180l80-17" stroke-width="8.7" stroke="#112233DB"/><path d="M116-82l17 80" stroke-width="8.7" stroke="#14213dDB"/><path d="M24-178l-77-15" stroke-width="8.9" stroke="#14213dDF"/><path d="M150-105l50 57" stroke-width="8.9" stroke="#14213dE0"/><path d="M175-162l76 0" stroke-width="9.0" stroke="#fca311E1"/><path d="M125-233l25-70" stroke-width="9.0" stroke="#fca311E2"/><path d="M57-223l-44-60" stroke-width="9.0" stroke="#ffffffE2"/><path d="M33-191l-66-28" stroke-width="9.1" stroke="#14213dE4"/><path d="M155-116l55 46" stroke-width="9.1" stroke="#e5e5e5E4"/><path d="M163-134l64 29" stroke-width="9.1" stroke="#14213dE6"/><path d="M159-185l58-22" stroke-width="9.3" stroke="#e5e5e5EB"/><path d="M81-105l-19 58" stroke-width="9.4" stroke="#e5e5e5EC"/><path d="M42-168l-57-5" stroke-width="9.4" stroke="#112233EE"/><path d="M48-148l-52 14" stroke-width="9.5" stroke="#ffffffF1"/><path d="M80-209l-20-47" stroke-width="9.6" stroke="#fca311F2"/><path d="M66-127l-34 36" stroke-width="9.6" stroke="#e5e5e5F3"/><path d="M118-208l18-45" stroke-width="9.6" stroke="#e5e5e5F3"/><path d="M53-177l-46-14" stroke-width="9.6" stroke="#14213dF3"/><path d="M86-117l-14 46" stroke-width="9.6" stroke="#fca311F3"/><path d="M146-173l45-11" stroke-width="9.6" stroke="#ffffffF4"/><path d="M94-203l-6-41" stroke-width="9.7" stroke="#e5e5e5F6"/><path d="M88-129l-12 33" stroke-width="9.8" stroke="#e5e5e5F9"/><path d="M125-146l24 16" stroke-width="9.9" stroke="#14213dFA"/></g></svg>