<svg width="1200" height="675" viewBox="-500 -500 1200 675" xmlns="http://www.w3.org/2000/svg"><path d="M-500-500h1200v675h-1200z" fill="#000"/><style>.sparkles path{stroke-linecap:round}</style><g class="sparkles"><path d="M95-165l-4-2" stroke-width="1.0" stroke="#fff5000"/><path d="M104-167l4-4" stroke-width="1.0" stroke="#fff0"/><path d="M101-174l1-12" stroke-width="1.0" stroke="#fff5000"/><path d="M78-153l-22 10" stroke-width="1.1" stroke="#c2e1ff2"/><path d="M133-163l33 0" stroke-width="1.2" stroke="#fff5"/><path d="M118-201l19-39" stroke-width="1.3" stroke="#005bbb8"/><path d="M118-120l18 42" stroke-width="1.4" stroke="#c2e1ff9"/><path d="M79-209l-22-47" stroke-width="1.4" stroke="#005bbbC"/><path d="M132-203l33-40" stroke-width="1.5" stroke="#fffC"/><path d="M152-142l52 21" stroke-width="1.5" stroke="#c2e1ffF"/><path d="M61-204l-39-42" stroke-width="1.6" stroke="#fffF"/><path d="M97-220l-3-57" stroke-width="1.6" stroke="#005bbbF"/><path d="M68-214l-33-52" stroke-width="1.7" stroke="#fff12"/><path d="M82-100l-17 63" stroke-width="1.7" stroke="#fff50015"/><path d="M55-113l-46 50" stroke-width="1.8" stroke="#c2e1ff16"/><path d="M81-98l-18 65" stroke-width="1.8" stroke="#c2e1ff16"/><path d="M82-97l-19 66" stroke-width="1.8" stroke="#fff50017"/><path d="M168-146l69 17" stroke-width="1.9" stroke="#c2e1ff19"/><path d="M38-199l-62-36" stroke-width="1.9" stroke="#fff5001A"/><path d="M166-194l67-31" stroke-width="2.0" stroke="#c2e1ff1B"/><path d="M24-159l-76 3" stroke-width="2.1" stroke="#005bbb1D"/><path d="M32-199l-67-37" stroke-width="2.1" stroke="#c2e1ff1E"/><path d="M108-241l7-78" stroke-width="2.1" stroke="#c2e1ff20"/><path d="M165-118l66 45" stroke-width="2.2" stroke="#005bbb20"/><path d="M66-91l-35 71" stroke-width="2.2" stroke="#fff20"/><path d="M144-229l43-67" stroke-width="2.2" stroke="#fff50021"/><path d="M110-83l10 80" stroke-width="2.2" stroke="#005bbb21"/><path d="M112-82l12 80" stroke-width="2.2" stroke="#005bbb23"/><path d="M152-97l52 66" stroke-width="2.3" stroke="#fff25"/><path d="M127-83l27 80" stroke-width="2.3" stroke="#c2e1ff26"/><path d="M153-95l54 67" stroke-width="2.4" stroke="#fff28"/><path d="M187-161l86 2" stroke-width="2.4" stroke="#fff28"/><path d="M171-215l71-52" stroke-width="2.5" stroke="#fff2A"/><path d="M113-75l13 87" stroke-width="2.5" stroke="#fff5002A"/><path d="M88-75l-12 88" stroke-width="2.5" stroke="#fff2B"/><path d="M175-115l76 48" stroke-width="2.6" stroke="#c2e1ff2B"/><path d="M186-136l87 26" stroke-width="2.6" stroke="#fff5002D"/><path d="M9-163l-91 0" stroke-width="2.6" stroke="#fff2E"/><path d="M21-213l-78-50" stroke-width="2.7" stroke="#fff31"/><path d="M194-162l95 0" stroke-width="2.8" stroke="#fff32"/><path d="M153-241l53-78" stroke-width="2.8" stroke="#fff32"/><path d="M167-232l67-69" stroke-width="2.9" stroke="#fff35"/><path d="M195-182l94-19" stroke-width="2.9" stroke="#005bbb35"/><path d="M142-250l43-88" stroke-width="2.9" stroke="#fff37"/><path d="M196-184l96-22" stroke-width="3.0" stroke="#005bbb38"/><path d="M197-188l96-25" stroke-width="3.1" stroke="#005bbb3B"/><path d="M28-232l-72-70" stroke-width="3.1" stroke="#005bbb3C"/><path d="M160-246l61-84" stroke-width="3.3" stroke="#c2e1ff41"/><path d="M38-79l-63 83" stroke-width="3.4" stroke="#fff43"/><path d="M19-228l-82-65" stroke-width="3.4" stroke="#fff43"/><path d="M127-263l27-101" stroke-width="3.4" stroke="#fff50043"/><path d="M-4-157l-105 6" stroke-width="3.4" stroke="#005bbb44"/><path d="M202-138l102 24" stroke-width="3.4" stroke="#c2e1ff44"/><path d="M108-58l8 105" stroke-width="3.4" stroke="#005bbb45"/><path d="M66-63l-34 99" stroke-width="3.4" stroke="#c2e1ff45"/><path d="M191-109l90 53" stroke-width="3.5" stroke="#fff50045"/><path d="M19-95l-81 68" stroke-width="3.5" stroke="#c2e1ff46"/><path d="M54-67l-47 95" stroke-width="3.5" stroke="#c2e1ff47"/><path d="M167-245l68-82" stroke-width="3.5" stroke="#fff47"/><path d="M55-259l-44-97" stroke-width="3.6" stroke="#fff50048"/><path d="M46-256l-54-94" stroke-width="3.7" stroke="#fff4C"/><path d="M207-145l106 18" stroke-width="3.7" stroke="#005bbb4C"/><path d="M25-84l-76 78" stroke-width="3.7" stroke="#005bbb4D"/><path d="M19-91l-82 72" stroke-width="3.7" stroke="#fff4D"/><path d="M119-53l20 110" stroke-width="4.0" stroke="#c2e1ff55"/><path d="M93-274l-6-112" stroke-width="4.1" stroke="#fff50056"/><path d="M185-237l84-74" stroke-width="4.1" stroke="#c2e1ff58"/><path d="M146-60l47 103" stroke-width="4.2" stroke="#fff59"/><path d="M29-251l-71-89" stroke-width="4.2" stroke="#fff5005B"/><path d="M140-269l40-106" stroke-width="4.3" stroke="#c2e1ff5C"/><path d="M155-63l55 100" stroke-width="4.3" stroke="#005bbb5D"/><path d="M190-92l90 70" stroke-width="4.3" stroke="#fff5005E"/><path d="M181-82l82 81" stroke-width="4.4" stroke="#fff60"/><path d="M-8-124l-108 39" stroke-width="4.4" stroke="#fff50060"/><path d="M209-200l108-38" stroke-width="4.5" stroke="#fff62"/><path d="M184-84l84 79" stroke-width="4.5" stroke="#005bbb63"/><path d="M0-219l-101-57" stroke-width="4.5" stroke="#fff50064"/><path d="M-16-160l-115 3" stroke-width="4.6" stroke="#fff50065"/><path d="M-1-219l-101-56" stroke-width="4.6" stroke="#fff65"/><path d="M-5-115l-106 48" stroke-width="4.6" stroke="#fff65"/><path d="M88-47l-12 115" stroke-width="4.6" stroke="#fff50066"/><path d="M84-48l-16 115" stroke-width="4.7" stroke="#fff50067"/><path d="M74-276l-27-113" stroke-width="4.7" stroke="#fff50068"/><path d="M0-222l-100-60" stroke-width="4.8" stroke="#fff6A"/><path d="M139-273l39-110" stroke-width="4.8" stroke="#fff6C"/><path d="M189-86l89 76" stroke-width="4.9" stroke="#005bbb6F"/><path d="M184-245l84-82" stroke-width="5.0" stroke="#fff50072"/><path d="M123-278l22-115" stroke-width="5.0" stroke="#c2e1ff72"/><path d="M194-233l95-70" stroke-width="5.1" stroke="#fff74"/><path d="M124-278l25-115" stroke-width="5.1" stroke="#005bbb74"/><path d="M217-147l117 15" stroke-width="5.2" stroke="#fff76"/><path d="M150-56l51 107" stroke-width="5.2" stroke="#fff50077"/><path d="M198-97l98 66" stroke-width="5.3" stroke="#005bbb79"/><path d="M67-49l-32 113" stroke-width="5.4" stroke="#fff5007C"/><path d="M-6-111l-107 51" stroke-width="5.4" stroke="#c2e1ff7C"/><path d="M197-95l97 67" stroke-width="5.5" stroke="#fff5007E"/><path d="M16-245l-84-83" stroke-width="5.5" stroke="#fff7F"/><path d="M186-243l86-81" stroke-width="5.6" stroke="#fff80"/><path d="M15-81l-86 82" stroke-width="5.6" stroke="#c2e1ff81"/><path d="M19-249l-80-86" stroke-width="5.6" stroke="#fff50081"/><path d="M-1-223l-102-60" stroke-width="5.6" stroke="#fff50082"/><path d="M96-281l-3-118" stroke-width="5.6" stroke="#005bbb82"/><path d="M74-47l-25 115" stroke-width="5.6" stroke="#fff50083"/><path d="M196-94l97 68" stroke-width="5.7" stroke="#c2e1ff83"/><path d="M218-159l118 3" stroke-width="5.7" stroke="#fff85"/><path d="M12-241l-89-78" stroke-width="5.7" stroke="#c2e1ff85"/><path d="M131-49l31 114" stroke-width="5.7" stroke="#fff50086"/><path d="M-6-112l-107 51" stroke-width="5.8" stroke="#c2e1ff87"/><path d="M156-266l55-104" stroke-width="5.8" stroke="#c2e1ff88"/><path d="M129-48l29 114" stroke-width="5.9" stroke="#fff8A"/><path d="M-6-112l-107 50" stroke-width="5.9" stroke="#fff5008B"/><path d="M134-275l34-113" stroke-width="5.9" stroke="#c2e1ff8B"/><path d="M215-185l115-22" stroke-width="6.0" stroke="#c2e1ff8D"/><path d="M174-254l74-91" stroke-width="6.0" stroke="#c2e1ff8E"/><path d="M128-276l28-114" stroke-width="6.1" stroke="#fff91"/><path d="M-17-157l-116 5" stroke-width="6.2" stroke="#005bbb92"/><path d="M-5-113l-105 50" stroke-width="6.3" stroke="#005bbb96"/><path d="M-5-212l-105-49" stroke-width="6.4" stroke="#c2e1ff98"/><path d="M129-50l28 112" stroke-width="6.4" stroke="#fff99"/><path d="M208-123l109 40" stroke-width="6.5" stroke="#fff9A"/><path d="M92-48l-7 114" stroke-width="6.6" stroke="#fff5009F"/><path d="M93-277l-8-114" stroke-width="6.6" stroke="#fff5009F"/><path d="M25-248l-74-86" stroke-width="6.7" stroke="#005bbbA2"/><path d="M100-275l0-113" stroke-width="6.8" stroke="#c2e1ffA4"/><path d="M195-224l95-61" stroke-width="6.8" stroke="#005bbbA4"/><path d="M192-227l93-65" stroke-width="6.8" stroke="#fff500A5"/><path d="M-2-115l-103 47" stroke-width="6.9" stroke="#005bbbA5"/><path d="M33-250l-66-88" stroke-width="7.1" stroke="#fffAD"/><path d="M-5-192l-105-30" stroke-width="7.2" stroke="#005bbbB0"/><path d="M161-253l61-90" stroke-width="7.3" stroke="#fffB1"/><path d="M202-199l102-37" stroke-width="7.3" stroke="#005bbbB2"/><path d="M205-137l104 25" stroke-width="7.3" stroke="#fff500B3"/><path d="M132-60l32 103" stroke-width="7.4" stroke="#c2e1ffB4"/><path d="M163-250l63-87" stroke-width="7.4" stroke="#fffB4"/><path d="M32-80l-68 83" stroke-width="7.4" stroke="#c2e1ffB5"/><path d="M43-73l-57 89" stroke-width="7.5" stroke="#c2e1ffB8"/><path d="M19-98l-81 65" stroke-width="7.6" stroke="#fffBC"/><path d="M52-254l-48-91" stroke-width="7.7" stroke="#005bbbBD"/><path d="M134-260l33-97" stroke-width="7.7" stroke="#fffBD"/><path d="M172-233l73-71" stroke-width="7.8" stroke="#fffC1"/><path d="M201-164l101-2" stroke-width="7.8" stroke="#005bbbC1"/><path d="M157-87l58 76" stroke-width="8.2" stroke="#fff500CB"/><path d="M21-113l-78 50" stroke-width="8.3" stroke="#005bbbCE"/><path d="M188-135l89 28" stroke-width="8.3" stroke="#fffCE"/><path d="M15-200l-84-37" stroke-width="8.3" stroke="#fffCE"/><path d="M175-216l74-53" stroke-width="8.3" stroke="#fffD0"/><path d="M41-96l-60 67" stroke-width="8.4" stroke="#fffD3"/><path d="M13-180l-86-17" stroke-width="8.5" stroke="#fffD4"/><path d="M20-153l-81 10" stroke-width="8.8" stroke="#fff500DC"/><path d="M72-238l-28-75" stroke-width="8.8" stroke="#005bbbDC"/><path d="M60-93l-39 70" stroke-width="8.8" stroke="#c2e1ffDD"/><path d="M78-85l-22 77" stroke-width="8.8" stroke="#005bbbDD"/><path d="M177-185l77-22" stroke-width="8.8" stroke="#fffDD"/><path d="M40-110l-61 52" stroke-width="8.8" stroke="#fff500DD"/><path d="M130-234l29-72" stroke-width="8.9" stroke="#005bbbDF"/><path d="M159-211l59-49" stroke-width="8.9" stroke="#fff500E0"/><path d="M164-203l64-41" stroke-width="8.9" stroke="#c2e1ffE0"/><path d="M172-139l72 24" stroke-width="8.9" stroke="#c2e1ffE1"/><path d="M175-158l75 4" stroke-width="9.0" stroke="#fffE2"/><path d="M172-177l72-15" stroke-width="9.0" stroke="#005bbbE3"/><path d="M28-170l-72-8" stroke-width="9.1" stroke="#005bbbE4"/><path d="M63-103l-38 60" stroke-width="9.1" stroke="#fff500E5"/><path d="M46-207l-53-44" stroke-width="9.1" stroke="#005bbbE6"/><path d="M129-224l30-62" stroke-width="9.2" stroke="#005bbbE7"/><path d="M83-98l-16 65" stroke-width="9.2" stroke="#fff500E8"/><path d="M45-197l-56-35" stroke-width="9.2" stroke="#fffE9"/><path d="M37-171l-64-9" stroke-width="9.3" stroke="#005bbbEA"/><path d="M161-169l62-7" stroke-width="9.3" stroke="#fff500EC"/><path d="M135-112l36 50" stroke-width="9.3" stroke="#fff500EC"/><path d="M84-217l-17-54" stroke-width="9.5" stroke="#005bbbEF"/><path d="M114-217l13-55" stroke-width="9.5" stroke="#fffEF"/><path d="M68-208l-33-45" stroke-width="9.5" stroke="#005bbbF0"/><path d="M114-109l13 54" stroke-width="9.5" stroke="#fffF0"/><path d="M131-122l31 41" stroke-width="9.6" stroke="#fff500F2"/><path d="M73-199l-28-37" stroke-width="9.6" stroke="#c2e1ffF4"/><path d="M139-180l39-17" stroke-width="9.7" stroke="#fffF6"/><path d="M102-122l3 41" stroke-width="9.7" stroke="#c2e1ffF7"/><path d="M64-160l-37 2" stroke-width="9.8" stroke="#c2e1ffF8"/><path d="M73-143l-27 20" stroke-width="9.8" stroke="#fffF9"/><path d="M70-174l-29-11" stroke-width="9.8" stroke="#fffFA"/><path d="M75-169l-25-7" stroke-width="9.9" stroke="#fff500FB"/></g></svg>