<svg width="1200" height="675" viewBox="-500 -500 1200 675" xmlns="http://www.w3.org/2000/svg"><path d="M-500-500h1200v675h-1200z" fill="#000"/><style>.sparkles path{stroke-linecap:round}</style><g class="sparkles"><path d="M70-159l-30 4" stroke-width="1.1" stroke="#c2e1ff4"/><path d="M65-154l-36 9" stroke-width="1.2" stroke="#005bbb6"/><path d="M63-160l-37 2" stroke-width="1.2" stroke="#fff5006"/><path d="M88-198l-12-35" stroke-width="1.2" stroke="#005bbb6"/><path d="M84-129l-17 34" stroke-width="1.2" stroke="#fff6"/><path d="M60-179l-40-16" stroke-width="1.3" stroke="#fff5008"/><path d="M80-203l-19-40" stroke-width="1.3" stroke="#fff9"/><path d="M122-202l22-40" stroke-width="1.3" stroke="#fff9"/><path d="M63-194l-36-31" stroke-width="1.4" stroke="#c2e1ffB"/><path d="M159-162l59 0" stroke-width="1.6" stroke="#005bbb11"/><path d="M89-223l-11-60" stroke-width="1.7" stroke="#005bbb12"/><path d="M129-217l29-54" stroke-width="1.7" stroke="#fff12"/><path d="M81-102l-20 61" stroke-width="1.7" stroke="#fff50014"/><path d="M130-222l29-59" stroke-width="1.8" stroke="#fff50015"/><path d="M167-183l66-20" stroke-width="1.9" stroke="#fff50018"/><path d="M30-163l-70-1" stroke-width="1.9" stroke="#fff50018"/><path d="M33-132l-68 30" stroke-width="2.0" stroke="#c2e1ff1B"/><path d="M22-160l-78 2" stroke-width="2.1" stroke="#005bbb1F"/><path d="M178-159l78 3" stroke-width="2.1" stroke="#c2e1ff20"/><path d="M60-234l-39-71" stroke-width="2.2" stroke="#fff23"/><path d="M51-229l-50-67" stroke-width="2.3" stroke="#c2e1ff25"/><path d="M184-161l84 2" stroke-width="2.3" stroke="#c2e1ff25"/><path d="M33-110l-67 53" stroke-width="2.4" stroke="#fff27"/><path d="M65-84l-35 78" stroke-width="2.4" stroke="#c2e1ff27"/><path d="M41-226l-59-63" stroke-width="2.4" stroke="#fff50028"/><path d="M176-119l75 43" stroke-width="2.5" stroke="#fff50029"/><path d="M93-249l-7-87" stroke-width="2.5" stroke="#c2e1ff29"/><path d="M182-195l82-32" stroke-width="2.5" stroke="#c2e1ff2A"/><path d="M72-79l-27 84" stroke-width="2.5" stroke="#005bbb2A"/><path d="M17-195l-83-32" stroke-width="2.5" stroke="#005bbb2B"/><path d="M20-120l-80 42" stroke-width="2.6" stroke="#005bbb2D"/><path d="M95-71l-4 92" stroke-width="2.7" stroke="#c2e1ff2F"/><path d="M117-254l18-92" stroke-width="2.7" stroke="#fff31"/><path d="M13-129l-88 34" stroke-width="2.8" stroke="#fff31"/><path d="M63-75l-37 88" stroke-width="2.8" stroke="#fff33"/><path d="M30-98l-70 64" stroke-width="2.8" stroke="#fff33"/><path d="M191-193l91-31" stroke-width="2.9" stroke="#005bbb35"/><path d="M33-93l-66 70" stroke-width="2.9" stroke="#fff35"/><path d="M5-147l-96 15" stroke-width="2.9" stroke="#c2e1ff36"/><path d="M144-77l45 86" stroke-width="2.9" stroke="#005bbb36"/><path d="M27-227l-74-64" stroke-width="3.0" stroke="#fff50037"/><path d="M196-186l95-23" stroke-width="3.0" stroke="#c2e1ff38"/><path d="M86-61l-14 101" stroke-width="3.2" stroke="#fff3F"/><path d="M17-222l-84-59" stroke-width="3.2" stroke="#fff3F"/><path d="M106-265l6-103" stroke-width="3.3" stroke="#c2e1ff41"/><path d="M154-73l55 90" stroke-width="3.4" stroke="#fff45"/><path d="M111-267l12-104" stroke-width="3.4" stroke="#fff50045"/><path d="M66-62l-33 101" stroke-width="3.5" stroke="#005bbb47"/><path d="M36-76l-63 86" stroke-width="3.6" stroke="#fff50049"/><path d="M-7-139l-108 24" stroke-width="3.9" stroke="#fff51"/><path d="M202-204l102-41" stroke-width="3.9" stroke="#c2e1ff51"/><path d="M60-60l-40 103" stroke-width="3.9" stroke="#fff51"/><path d="M180-86l80 77" stroke-width="3.9" stroke="#005bbb52"/><path d="M12-94l-89 68" stroke-width="4.0" stroke="#c2e1ff56"/><path d="M168-251l68-89" stroke-width="4.1" stroke="#005bbb56"/><path d="M147-61l47 102" stroke-width="4.1" stroke="#fff50057"/><path d="M-7-125l-107 37" stroke-width="4.2" stroke="#c2e1ff5A"/><path d="M210-137l110 26" stroke-width="4.2" stroke="#005bbb5B"/><path d="M9-230l-92-67" stroke-width="4.2" stroke="#005bbb5B"/><path d="M152-62l52 101" stroke-width="4.2" stroke="#c2e1ff5B"/><path d="M163-67l62 95" stroke-width="4.3" stroke="#005bbb5D"/><path d="M210-193l110-31" stroke-width="4.3" stroke="#c2e1ff5E"/><path d="M66-272l-33-110" stroke-width="4.4" stroke="#fff50060"/><path d="M17-83l-84 79" stroke-width="4.5" stroke="#fff50061"/><path d="M208-123l109 39" stroke-width="4.5" stroke="#fff62"/><path d="M41-262l-59-99" stroke-width="4.5" stroke="#005bbb63"/><path d="M27-72l-72 90" stroke-width="4.6" stroke="#c2e1ff65"/><path d="M-15-178l-115-15" stroke-width="4.7" stroke="#005bbb68"/><path d="M-16-174l-116-11" stroke-width="4.7" stroke="#fff50069"/><path d="M-14-188l-113-25" stroke-width="4.7" stroke="#fff6A"/><path d="M199-224l100-61" stroke-width="4.8" stroke="#fff5006A"/><path d="M174-72l74 90" stroke-width="4.8" stroke="#c2e1ff6C"/><path d="M-16-175l-117-13" stroke-width="4.9" stroke="#005bbb6D"/><path d="M216-145l115 18" stroke-width="4.9" stroke="#005bbb6E"/><path d="M26-72l-75 90" stroke-width="4.9" stroke="#005bbb6F"/><path d="M17-79l-82 83" stroke-width="4.9" stroke="#fff5006F"/><path d="M163-261l63-99" stroke-width="5.0" stroke="#005bbb70"/><path d="M-11-200l-112-37" stroke-width="5.0" stroke="#fff71"/><path d="M19-248l-80-86" stroke-width="5.0" stroke="#fff50072"/><path d="M-17-161l-118 1" stroke-width="5.0" stroke="#005bbb72"/><path d="M-5-215l-106-52" stroke-width="5.1" stroke="#fff50072"/><path d="M196-95l96 68" stroke-width="5.1" stroke="#c2e1ff72"/><path d="M163-63l64 99" stroke-width="5.1" stroke="#fff50074"/><path d="M123-47l23 116" stroke-width="5.2" stroke="#005bbb76"/><path d="M17-246l-84-83" stroke-width="5.2" stroke="#fff77"/><path d="M133-49l33 113" stroke-width="5.4" stroke="#c2e1ff7C"/><path d="M177-73l76 90" stroke-width="5.5" stroke="#c2e1ff7E"/><path d="M195-233l95-70" stroke-width="5.5" stroke="#c2e1ff7E"/><path d="M212-126l113 36" stroke-width="5.5" stroke="#fff80"/><path d="M82-279l-17-117" stroke-width="5.5" stroke="#c2e1ff80"/><path d="M91-45l-9 118" stroke-width="5.6" stroke="#fff81"/><path d="M-8-116l-109 47" stroke-width="5.6" stroke="#c2e1ff82"/><path d="M207-112l106 51" stroke-width="5.7" stroke="#fff84"/><path d="M107-280l6-118" stroke-width="5.7" stroke="#fff50084"/><path d="M127-277l28-115" stroke-width="5.7" stroke="#fff50085"/><path d="M136-50l35 112" stroke-width="5.7" stroke="#fff86"/><path d="M156-266l56-104" stroke-width="5.7" stroke="#fff50086"/><path d="M-14-134l-115 28" stroke-width="5.8" stroke="#c2e1ff87"/><path d="M212-199l112-37" stroke-width="5.9" stroke="#fff8A"/><path d="M167-259l67-96" stroke-width="6.0" stroke="#fff8C"/><path d="M167-66l66 97" stroke-width="6.0" stroke="#fff8C"/><path d="M216-179l116-17" stroke-width="6.1" stroke="#c2e1ff90"/><path d="M124-48l24 114" stroke-width="6.1" stroke="#fff50091"/><path d="M47-58l-54 104" stroke-width="6.1" stroke="#005bbb91"/><path d="M175-73l75 90" stroke-width="6.2" stroke="#c2e1ff92"/><path d="M27-71l-73 91" stroke-width="6.2" stroke="#005bbb92"/><path d="M41-263l-59-101" stroke-width="6.2" stroke="#005bbb92"/><path d="M189-87l89 75" stroke-width="6.2" stroke="#005bbb94"/><path d="M16-243l-83-81" stroke-width="6.3" stroke="#fff50095"/><path d="M9-91l-92 71" stroke-width="6.4" stroke="#005bbb98"/><path d="M213-138l114 24" stroke-width="6.4" stroke="#c2e1ff98"/><path d="M16-84l-84 78" stroke-width="6.5" stroke="#c2e1ff9C"/><path d="M179-80l80 82" stroke-width="6.7" stroke="#fffA0"/><path d="M19-242l-82-79" stroke-width="6.7" stroke="#fffA1"/><path d="M189-92l88 71" stroke-width="6.8" stroke="#fffA2"/><path d="M203-115l102 48" stroke-width="6.8" stroke="#c2e1ffA4"/><path d="M157-259l58-97" stroke-width="6.9" stroke="#005bbbA5"/><path d="M178-81l78 81" stroke-width="6.9" stroke="#fffA6"/><path d="M5-223l-95-60" stroke-width="6.9" stroke="#fff500A6"/><path d="M114-272l13-110" stroke-width="7.1" stroke="#c2e1ffAC"/><path d="M130-57l31 106" stroke-width="7.1" stroke="#fff500AD"/><path d="M4-217l-95-55" stroke-width="7.1" stroke="#fffAD"/><path d="M81-54l-20 108" stroke-width="7.1" stroke="#fff500AE"/><path d="M44-257l-57-94" stroke-width="7.2" stroke="#c2e1ffAE"/><path d="M185-231l85-69" stroke-width="7.2" stroke="#005bbbAF"/><path d="M203-126l103 37" stroke-width="7.2" stroke="#fffB0"/><path d="M16-231l-84-69" stroke-width="7.3" stroke="#005bbbB1"/><path d="M146-64l46 98" stroke-width="7.3" stroke="#fffB1"/><path d="M166-248l66-86" stroke-width="7.3" stroke="#005bbbB2"/><path d="M13-227l-87-64" stroke-width="7.3" stroke="#fffB3"/><path d="M-3-135l-103 27" stroke-width="7.5" stroke="#c2e1ffB7"/><path d="M137-63l36 99" stroke-width="7.5" stroke="#fffB8"/><path d="M84-59l-17 103" stroke-width="7.6" stroke="#fff500BA"/><path d="M187-217l87-55" stroke-width="7.7" stroke="#005bbbBE"/><path d="M76-262l-24-99" stroke-width="7.8" stroke="#fffBF"/><path d="M0-147l-99 16" stroke-width="7.8" stroke="#fffC1"/><path d="M40-243l-60-81" stroke-width="7.9" stroke="#c2e1ffC2"/><path d="M78-260l-21-97" stroke-width="7.9" stroke="#c2e1ffC3"/><path d="M125-258l25-95" stroke-width="8.0" stroke="#fffC6"/><path d="M44-243l-56-81" stroke-width="8.0" stroke="#fff500C6"/><path d="M48-79l-52 83" stroke-width="8.0" stroke="#fff500C6"/><path d="M188-121l89 42" stroke-width="8.0" stroke="#c2e1ffC7"/><path d="M80-67l-19 95" stroke-width="8.0" stroke="#fffC7"/><path d="M94-258l-6-96" stroke-width="8.1" stroke="#fff500CA"/><path d="M190-195l90-32" stroke-width="8.1" stroke="#c2e1ffCA"/><path d="M64-74l-36 88" stroke-width="8.2" stroke="#fffCA"/><path d="M144-247l45-84" stroke-width="8.2" stroke="#005bbbCA"/><path d="M71-74l-29 89" stroke-width="8.3" stroke="#005bbbCD"/><path d="M8-146l-92 16" stroke-width="8.3" stroke="#005bbbCD"/><path d="M189-159l88 3" stroke-width="8.5" stroke="#fffD3"/><path d="M17-140l-83 23" stroke-width="8.6" stroke="#fffD6"/><path d="M177-201l76-39" stroke-width="8.6" stroke="#fff500D7"/><path d="M68-242l-32-79" stroke-width="8.6" stroke="#c2e1ffD7"/><path d="M34-212l-66-49" stroke-width="8.7" stroke="#fff500DA"/><path d="M109-81l8 81" stroke-width="8.8" stroke="#c2e1ffDB"/><path d="M62-233l-37-71" stroke-width="8.8" stroke="#fffDD"/><path d="M79-237l-20-74" stroke-width="8.9" stroke="#005bbbE0"/><path d="M175-158l76 5" stroke-width="9.0" stroke="#c2e1ffE1"/><path d="M88-89l-11 74" stroke-width="9.0" stroke="#005bbbE2"/><path d="M166-131l67 32" stroke-width="9.0" stroke="#c2e1ffE3"/><path d="M29-157l-72 5" stroke-width="9.1" stroke="#fff500E4"/><path d="M93-233l-8-70" stroke-width="9.1" stroke="#005bbbE5"/><path d="M106-94l6 68" stroke-width="9.2" stroke="#fff500E7"/><path d="M161-192l61-30" stroke-width="9.2" stroke="#fff500E7"/><path d="M37-148l-64 15" stroke-width="9.3" stroke="#005bbbE9"/><path d="M36-168l-65-5" stroke-width="9.3" stroke="#c2e1ffEA"/><path d="M86-225l-14-63" stroke-width="9.3" stroke="#005bbbEA"/><path d="M145-124l45 39" stroke-width="9.4" stroke="#005bbbED"/><path d="M127-209l26-46" stroke-width="9.5" stroke="#fffF1"/><path d="M50-181l-50-19" stroke-width="9.5" stroke="#005bbbF1"/><path d="M152-162l52 0" stroke-width="9.5" stroke="#005bbbF1"/><path d="M61-132l-38 31" stroke-width="9.6" stroke="#fff500F3"/><path d="M141-149l41 13" stroke-width="9.7" stroke="#005bbbF6"/><path d="M118-200l18-38" stroke-width="9.7" stroke="#fff500F6"/><path d="M141-160l41 2" stroke-width="9.7" stroke="#fff500F7"/><path d="M68-138l-33 25" stroke-width="9.7" stroke="#fffF7"/><path d="M134-165l35-3" stroke-width="9.8" stroke="#005bbbF9"/><path d="M128-156l28 6" stroke-width="9.9" stroke="#005bbbFB"/><path d="M122-179l22-16" stroke-width="9.9" stroke="#005bbbFB"/><path d="M82-162l-17 1" stroke-width="9.9" stroke="#c2e1ffFD"/><path d="M95-158l-5 4" stroke-width="10.0" stroke="#005bbbFE"/></g></svg>