<svg width="1200" height="675" viewBox="-500 -500 1200 675" xmlns="http://www.w3.org/2000/svg"><path d="M-500-500h1200v675h-1200z" fill="#000"/><style>.sparkles path{stroke-linecap:round}</style><g class="sparkles"><path d="M88-181l-12-18" stroke-width="1.1" stroke="#c2e1ff2"/><path d="M121-150l22 13" stroke-width="1.1" stroke="#005bbb2"/><path d="M78-178l-21-16" stroke-width="1.1" stroke="#fff3"/><path d="M109-189l9-27" stroke-width="1.1" stroke="#005bbb3"/><path d="M88-196l-12-33" stroke-width="1.2" stroke="#005bbb5"/><path d="M82-194l-18-31" stroke-width="1.2" stroke="#fff5006"/><path d="M131-183l31-21" stroke-width="1.2" stroke="#fff6"/><path d="M78-132l-21 30" stroke-width="1.2" stroke="#fff6"/><path d="M125-192l24-29" stroke-width="1.2" stroke="#c2e1ff6"/><path d="M56-155l-43 7" stroke-width="1.3" stroke="#fff5009"/><path d="M59-178l-42-16" stroke-width="1.3" stroke="#005bbb9"/><path d="M94-209l-6-47" stroke-width="1.4" stroke="#c2e1ffA"/><path d="M130-121l30 42" stroke-width="1.4" stroke="#fffC"/><path d="M63-199l-36-36" stroke-width="1.4" stroke="#005bbbC"/><path d="M148-188l49-26" stroke-width="1.5" stroke="#fff500E"/><path d="M102-220l2-57" stroke-width="1.6" stroke="#fff50010"/><path d="M45-131l-54 32" stroke-width="1.7" stroke="#c2e1ff13"/><path d="M94-227l-5-64" stroke-width="1.7" stroke="#005bbb14"/><path d="M43-193l-57-30" stroke-width="1.7" stroke="#fff50014"/><path d="M40-133l-61 29" stroke-width="1.8" stroke="#fff50016"/><path d="M77-99l-23 63" stroke-width="1.8" stroke="#fff16"/><path d="M169-153l68 10" stroke-width="1.9" stroke="#c2e1ff18"/><path d="M96-91l-5 72" stroke-width="1.9" stroke="#fff5001A"/><path d="M28-190l-71-28" stroke-width="2.1" stroke="#005bbb1E"/><path d="M142-228l43-65" stroke-width="2.1" stroke="#fff5001F"/><path d="M175-186l75-23" stroke-width="2.1" stroke="#fff20"/><path d="M130-236l30-74" stroke-width="2.2" stroke="#fff21"/><path d="M168-210l68-48" stroke-width="2.3" stroke="#c2e1ff24"/><path d="M169-115l69 48" stroke-width="2.3" stroke="#005bbb25"/><path d="M49-94l-51 69" stroke-width="2.4" stroke="#fff50027"/><path d="M106-248l6-86" stroke-width="2.4" stroke="#005bbb28"/><path d="M180-195l80-32" stroke-width="2.4" stroke="#005bbb28"/><path d="M188-167l87-5" stroke-width="2.5" stroke="#fff2A"/><path d="M181-128l82 35" stroke-width="2.5" stroke="#005bbb2B"/><path d="M154-91l54 72" stroke-width="2.6" stroke="#fff2C"/><path d="M149-86l50 76" stroke-width="2.6" stroke="#c2e1ff2E"/><path d="M92-70l-8 92" stroke-width="2.7" stroke="#c2e1ff30"/><path d="M121-253l22-90" stroke-width="2.7" stroke="#005bbb30"/><path d="M33-230l-68-68" stroke-width="2.9" stroke="#005bbb34"/><path d="M128-71l29 92" stroke-width="2.9" stroke="#c2e1ff35"/><path d="M65-73l-35 90" stroke-width="2.9" stroke="#fff35"/><path d="M118-258l19-96" stroke-width="3.0" stroke="#fff50037"/><path d="M185-115l85 48" stroke-width="3.0" stroke="#fff37"/><path d="M197-176l97-13" stroke-width="3.0" stroke="#fff38"/><path d="M109-260l9-97" stroke-width="3.0" stroke="#c2e1ff38"/><path d="M186-211l86-48" stroke-width="3.0" stroke="#c2e1ff39"/><path d="M1-160l-99 2" stroke-width="3.0" stroke="#fff39"/><path d="M63-68l-36 94" stroke-width="3.2" stroke="#fff3D"/><path d="M132-259l33-97" stroke-width="3.2" stroke="#fff3F"/><path d="M159-247l59-85" stroke-width="3.3" stroke="#fff41"/><path d="M6-206l-94-44" stroke-width="3.4" stroke="#fff42"/><path d="M169-84l69 79" stroke-width="3.4" stroke="#005bbb44"/><path d="M173-86l73 76" stroke-width="3.5" stroke="#fff50046"/><path d="M11-220l-88-57" stroke-width="3.5" stroke="#005bbb46"/><path d="M187-223l88-60" stroke-width="3.5" stroke="#fff47"/><path d="M16-98l-85 65" stroke-width="3.5" stroke="#005bbb47"/><path d="M55-259l-46-96" stroke-width="3.5" stroke="#fff50048"/><path d="M202-131l102 31" stroke-width="3.6" stroke="#fff50048"/><path d="M107-269l6-107" stroke-width="3.6" stroke="#fff50049"/><path d="M208-169l108-6" stroke-width="3.7" stroke="#fff4C"/><path d="M48-258l-53-95" stroke-width="3.7" stroke="#c2e1ff4D"/><path d="M151-66l51 97" stroke-width="3.8" stroke="#fff5004F"/><path d="M92-53l-8 109" stroke-width="3.8" stroke="#fff4F"/><path d="M31-249l-70-87" stroke-width="4.0" stroke="#c2e1ff54"/><path d="M195-221l96-58" stroke-width="4.0" stroke="#fff55"/><path d="M20-241l-80-78" stroke-width="4.1" stroke="#c2e1ff56"/><path d="M120-52l20 111" stroke-width="4.2" stroke="#005bbb59"/><path d="M-13-170l-112-8" stroke-width="4.2" stroke="#fff5A"/><path d="M130-53l30 109" stroke-width="4.2" stroke="#005bbb5A"/><path d="M213-167l113-4" stroke-width="4.2" stroke="#c2e1ff5B"/><path d="M204-208l103-46" stroke-width="4.2" stroke="#fff5B"/><path d="M205-119l105 44" stroke-width="4.3" stroke="#c2e1ff5C"/><path d="M203-113l102 50" stroke-width="4.3" stroke="#fff5E"/><path d="M114-49l14 113" stroke-width="4.3" stroke="#fff5005E"/><path d="M7-97l-94 66" stroke-width="4.3" stroke="#fff5E"/><path d="M211-192l111-30" stroke-width="4.5" stroke="#fff50061"/><path d="M81-49l-18 113" stroke-width="4.5" stroke="#c2e1ff61"/><path d="M-11-133l-112 30" stroke-width="4.5" stroke="#c2e1ff63"/><path d="M186-240l85-77" stroke-width="4.5" stroke="#fff63"/><path d="M47-60l-53 103" stroke-width="4.6" stroke="#005bbb66"/><path d="M77-276l-23-114" stroke-width="4.6" stroke="#fff66"/><path d="M-16-155l-116 8" stroke-width="4.7" stroke="#005bbb69"/><path d="M101-46l2 117" stroke-width="4.8" stroke="#c2e1ff6B"/><path d="M-16-148l-117 14" stroke-width="4.9" stroke="#fff6F"/><path d="M176-252l76-90" stroke-width="5.1" stroke="#fff73"/><path d="M196-94l96 68" stroke-width="5.2" stroke="#fff76"/><path d="M40-61l-60 101" stroke-width="5.2" stroke="#fff50077"/><path d="M-11-203l-111-40" stroke-width="5.3" stroke="#005bbb7A"/><path d="M65-275l-34-113" stroke-width="5.4" stroke="#fff5007D"/><path d="M25-254l-75-91" stroke-width="5.5" stroke="#005bbb7F"/><path d="M39-62l-62 101" stroke-width="5.5" stroke="#fff50080"/><path d="M-4-107l-104 56" stroke-width="5.6" stroke="#fff81"/><path d="M27-256l-72-93" stroke-width="5.7" stroke="#c2e1ff85"/><path d="M141-52l41 111" stroke-width="5.8" stroke="#fff87"/><path d="M112-45l12 117" stroke-width="5.9" stroke="#fff8B"/><path d="M124-47l23 115" stroke-width="5.9" stroke="#fff8B"/><path d="M-1-222l-101-59" stroke-width="6.0" stroke="#fff5008E"/><path d="M150-56l49 106" stroke-width="6.1" stroke="#fff8F"/><path d="M21-76l-80 86" stroke-width="6.1" stroke="#fff5008F"/><path d="M192-235l92-72" stroke-width="6.1" stroke="#c2e1ff90"/><path d="M99-279l-2-117" stroke-width="6.2" stroke="#005bbb91"/><path d="M160-263l59-100" stroke-width="6.3" stroke="#005bbb94"/><path d="M65-273l-35-111" stroke-width="6.3" stroke="#c2e1ff95"/><path d="M214-139l114 23" stroke-width="6.3" stroke="#c2e1ff96"/><path d="M100-278l1-116" stroke-width="6.4" stroke="#c2e1ff99"/><path d="M13-238l-88-76" stroke-width="6.4" stroke="#c2e1ff99"/><path d="M153-265l53-102" stroke-width="6.5" stroke="#005bbb9A"/><path d="M-15-161l-115 1" stroke-width="6.5" stroke="#005bbb9B"/><path d="M150-266l51-103" stroke-width="6.6" stroke="#c2e1ff9D"/><path d="M50-266l-51-103" stroke-width="6.6" stroke="#fff9E"/><path d="M15-239l-85-77" stroke-width="6.6" stroke="#c2e1ff9F"/><path d="M207-122l107 40" stroke-width="6.6" stroke="#005bbb9F"/><path d="M186-236l87-74" stroke-width="6.8" stroke="#fff500A3"/><path d="M209-192l110-29" stroke-width="6.8" stroke="#005bbbA4"/><path d="M212-179l112-16" stroke-width="6.8" stroke="#fff500A4"/><path d="M200-111l101 51" stroke-width="6.8" stroke="#c2e1ffA5"/><path d="M47-261l-54-99" stroke-width="6.9" stroke="#c2e1ffA6"/><path d="M71-54l-30 108" stroke-width="6.9" stroke="#005bbbA7"/><path d="M70-270l-29-108" stroke-width="7.0" stroke="#005bbbA8"/><path d="M206-198l106-35" stroke-width="7.0" stroke="#fffA8"/><path d="M36-71l-63 91" stroke-width="7.0" stroke="#fffAA"/><path d="M11-229l-89-66" stroke-width="7.1" stroke="#c2e1ffAB"/><path d="M39-254l-62-92" stroke-width="7.1" stroke="#c2e1ffAC"/><path d="M33-74l-66 88" stroke-width="7.1" stroke="#fff500AC"/><path d="M4-109l-96 54" stroke-width="7.1" stroke="#c2e1ffAE"/><path d="M-4-129l-105 33" stroke-width="7.2" stroke="#c2e1ffAE"/><path d="M2-116l-99 46" stroke-width="7.3" stroke="#fff500B1"/><path d="M-6-185l-107-23" stroke-width="7.3" stroke="#fff500B1"/><path d="M157-72l57 91" stroke-width="7.4" stroke="#c2e1ffB5"/><path d="M60-261l-39-99" stroke-width="7.4" stroke="#fffB6"/><path d="M163-249l62-86" stroke-width="7.4" stroke="#fffB6"/><path d="M-6-164l-106-2" stroke-width="7.5" stroke="#c2e1ffB8"/><path d="M15-225l-84-63" stroke-width="7.5" stroke="#fff500B9"/><path d="M94-268l-6-105" stroke-width="7.5" stroke="#005bbbB9"/><path d="M-4-177l-104-15" stroke-width="7.6" stroke="#c2e1ffBA"/><path d="M29-86l-71 76" stroke-width="7.6" stroke="#fff500BB"/><path d="M-2-185l-102-23" stroke-width="7.6" stroke="#fffBB"/><path d="M181-98l82 64" stroke-width="7.7" stroke="#fffBC"/><path d="M146-253l46-91" stroke-width="7.8" stroke="#fff500C0"/><path d="M200-178l100-15" stroke-width="7.8" stroke="#fff500C1"/><path d="M147-75l47 87" stroke-width="7.9" stroke="#005bbbC4"/><path d="M196-177l97-14" stroke-width="8.0" stroke="#005bbbC7"/><path d="M193-137l94 26" stroke-width="8.1" stroke="#fff500C8"/><path d="M53-79l-46 83" stroke-width="8.2" stroke="#fffCA"/><path d="M29-226l-70-64" stroke-width="8.2" stroke="#fffCA"/><path d="M103-68l2 95" stroke-width="8.2" stroke="#c2e1ffCB"/><path d="M143-246l43-84" stroke-width="8.2" stroke="#fff500CC"/><path d="M32-103l-67 59" stroke-width="8.4" stroke="#fffD1"/><path d="M190-162l90 0" stroke-width="8.4" stroke="#005bbbD2"/><path d="M82-75l-19 88" stroke-width="8.4" stroke="#c2e1ffD2"/><path d="M40-228l-61-65" stroke-width="8.5" stroke="#fffD3"/><path d="M177-205l76-42" stroke-width="8.5" stroke="#fffD5"/><path d="M28-204l-73-42" stroke-width="8.7" stroke="#fff500D9"/><path d="M172-203l73-41" stroke-width="8.7" stroke="#c2e1ffDA"/><path d="M166-113l66 49" stroke-width="8.7" stroke="#c2e1ffDA"/><path d="M182-167l82-5" stroke-width="8.7" stroke="#005bbbDB"/><path d="M175-193l76-31" stroke-width="8.8" stroke="#c2e1ffDC"/><path d="M178-149l77 14" stroke-width="8.9" stroke="#005bbbDE"/><path d="M177-157l77 5" stroke-width="8.9" stroke="#fffDF"/><path d="M45-111l-55 52" stroke-width="9.0" stroke="#fffE1"/><path d="M29-187l-71-24" stroke-width="9.0" stroke="#005bbbE2"/><path d="M109-232l9-70" stroke-width="9.1" stroke="#fff500E5"/><path d="M45-205l-56-42" stroke-width="9.1" stroke="#fff500E6"/><path d="M40-192l-61-30" stroke-width="9.2" stroke="#fffE8"/><path d="M49-120l-51 42" stroke-width="9.2" stroke="#c2e1ffE9"/><path d="M164-146l64 17" stroke-width="9.2" stroke="#005bbbE9"/><path d="M95-222l-5-60" stroke-width="9.4" stroke="#fffED"/><path d="M113-212l14-50" stroke-width="9.6" stroke="#c2e1ffF2"/><path d="M142-192l42-29" stroke-width="9.6" stroke="#fff500F2"/><path d="M124-119l24 43" stroke-width="9.6" stroke="#005bbbF3"/><path d="M86-206l-15-43" stroke-width="9.7" stroke="#c2e1ffF5"/><path d="M142-158l41 4" stroke-width="9.7" stroke="#c2e1ffF6"/><path d="M92-204l-8-41" stroke-width="9.7" stroke="#005bbbF6"/><path d="M71-191l-29-29" stroke-width="9.7" stroke="#fff500F7"/><path d="M90-200l-9-38" stroke-width="9.7" stroke="#fffF7"/><path d="M110-189l10-26" stroke-width="9.9" stroke="#005bbbFB"/><path d="M118-184l17-21" stroke-width="9.9" stroke="#fff500FB"/><path d="M125-169l25-7" stroke-width="9.9" stroke="#fffFB"/><path d="M103-140l2 22" stroke-width="9.9" stroke="#fff500FC"/><path d="M87-178l-14-16" stroke-width="9.9" stroke="#c2e1ffFD"/><path d="M98-171l-2-8" stroke-width="10.0" stroke="#c2e1ffFE"/></g></svg>