<svg width="1200" height="675" viewBox="-500 -500 1200 675" xmlns="http://www.w3.org/2000/svg"><path d="M-500-500h1200v675h-1200z" fill="#000"/><style>.sparkles path{stroke-linecap:round}</style><g class="sparkles"><path d="M101-151l2 11" stroke-width="1.0" stroke="#c2e1ff0"/><path d="M114-166l14-3" stroke-width="1.0" stroke="#fff0"/><path d="M71-157l-29 6" stroke-width="1.1" stroke="#c2e1ff4"/><path d="M126-184l25-22" stroke-width="1.2" stroke="#c2e1ff5"/><path d="M100-198l0-35" stroke-width="1.2" stroke="#c2e1ff5"/><path d="M119-131l20 32" stroke-width="1.2" stroke="#fff5006"/><path d="M67-137l-33 26" stroke-width="1.3" stroke="#c2e1ff8"/><path d="M66-189l-33-26" stroke-width="1.3" stroke="#fff8"/><path d="M142-176l42-14" stroke-width="1.3" stroke="#005bbb9"/><path d="M57-174l-43-12" stroke-width="1.3" stroke="#005bbb9"/><path d="M46-168l-54-5" stroke-width="1.5" stroke="#fffE"/><path d="M84-110l-15 53" stroke-width="1.5" stroke="#005bbbE"/><path d="M43-186l-57-24" stroke-width="1.7" stroke="#fff50012"/><path d="M62-110l-38 52" stroke-width="1.7" stroke="#005bbb14"/><path d="M45-201l-56-38" stroke-width="1.8" stroke="#fff50016"/><path d="M117-96l17 66" stroke-width="1.8" stroke="#c2e1ff17"/><path d="M74-227l-26-64" stroke-width="1.8" stroke="#fff18"/><path d="M170-168l70-6" stroke-width="1.9" stroke="#fff19"/><path d="M169-191l69-29" stroke-width="2.0" stroke="#fff1C"/><path d="M149-106l48 57" stroke-width="2.0" stroke="#fff5001C"/><path d="M61-230l-39-67" stroke-width="2.1" stroke="#fff5001F"/><path d="M160-112l60 50" stroke-width="2.1" stroke="#005bbb20"/><path d="M179-172l79-9" stroke-width="2.2" stroke="#fff21"/><path d="M128-237l28-75" stroke-width="2.2" stroke="#fff21"/><path d="M51-96l-48 66" stroke-width="2.3" stroke="#fff23"/><path d="M45-101l-54 61" stroke-width="2.3" stroke="#fff50023"/><path d="M176-129l77 33" stroke-width="2.3" stroke="#fff25"/><path d="M34-216l-66-54" stroke-width="2.4" stroke="#c2e1ff27"/><path d="M185-145l86 17" stroke-width="2.5" stroke="#fff50029"/><path d="M158-229l57-66" stroke-width="2.5" stroke="#fff5002A"/><path d="M74-74l-26 88" stroke-width="2.7" stroke="#fff5002F"/><path d="M115-258l15-95" stroke-width="2.9" stroke="#c2e1ff36"/><path d="M76-69l-23 94" stroke-width="2.9" stroke="#005bbb36"/><path d="M28-230l-71-67" stroke-width="3.0" stroke="#fff50038"/><path d="M194-136l95 27" stroke-width="3.0" stroke="#005bbb38"/><path d="M5-138l-95 24" stroke-width="3.0" stroke="#fff38"/><path d="M198-171l99-8" stroke-width="3.0" stroke="#fff50039"/><path d="M17-217l-84-54" stroke-width="3.1" stroke="#fff5003A"/><path d="M57-72l-43 90" stroke-width="3.1" stroke="#fff3B"/><path d="M94-263l-5-101" stroke-width="3.2" stroke="#c2e1ff3D"/><path d="M41-245l-58-83" stroke-width="3.2" stroke="#fff5003E"/><path d="M118-62l18 100" stroke-width="3.2" stroke="#fff5003E"/><path d="M57-256l-43-93" stroke-width="3.3" stroke="#c2e1ff40"/><path d="M12-109l-88 54" stroke-width="3.3" stroke="#c2e1ff41"/><path d="M44-249l-56-87" stroke-width="3.3" stroke="#005bbb41"/><path d="M185-104l85 59" stroke-width="3.3" stroke="#c2e1ff41"/><path d="M6-116l-94 46" stroke-width="3.4" stroke="#fff50044"/><path d="M183-98l83 65" stroke-width="3.5" stroke="#005bbb45"/><path d="M-5-177l-105-14" stroke-width="3.5" stroke="#c2e1ff46"/><path d="M77-266l-24-103" stroke-width="3.5" stroke="#005bbb47"/><path d="M108-269l8-107" stroke-width="3.6" stroke="#fff49"/><path d="M183-94l84 69" stroke-width="3.7" stroke="#fff4C"/><path d="M98-54l-2 108" stroke-width="3.7" stroke="#c2e1ff4C"/><path d="M72-267l-28-105" stroke-width="3.7" stroke="#fff4D"/><path d="M-9-165l-109-3" stroke-width="3.8" stroke="#c2e1ff4F"/><path d="M14-230l-87-68" stroke-width="3.8" stroke="#fff50"/><path d="M95-272l-6-110" stroke-width="3.9" stroke="#c2e1ff51"/><path d="M69-56l-32 106" stroke-width="3.9" stroke="#fff50053"/><path d="M211-169l111-7" stroke-width="4.0" stroke="#fff54"/><path d="M152-64l52 98" stroke-width="4.0" stroke="#fff54"/><path d="M-9-139l-109 23" stroke-width="4.0" stroke="#005bbb54"/><path d="M163-70l62 92" stroke-width="4.0" stroke="#fff55"/><path d="M177-82l77 81" stroke-width="4.0" stroke="#fff55"/><path d="M187-92l87 70" stroke-width="4.0" stroke="#c2e1ff55"/><path d="M123-52l24 111" stroke-width="4.2" stroke="#c2e1ff5A"/><path d="M203-113l103 49" stroke-width="4.3" stroke="#005bbb5D"/><path d="M187-236l87-74" stroke-width="4.3" stroke="#fff5E"/><path d="M64-54l-36 108" stroke-width="4.3" stroke="#005bbb5E"/><path d="M-10-131l-111 32" stroke-width="4.5" stroke="#fff50062"/><path d="M99-47l-1 115" stroke-width="4.5" stroke="#fff50062"/><path d="M58-270l-42-107" stroke-width="4.5" stroke="#fff50063"/><path d="M177-250l76-87" stroke-width="4.6" stroke="#fff67"/><path d="M79-48l-22 114" stroke-width="4.6" stroke="#fff50067"/><path d="M109-47l8 116" stroke-width="4.7" stroke="#fff68"/><path d="M209-120l109 42" stroke-width="4.8" stroke="#fff6C"/><path d="M196-96l97 66" stroke-width="4.8" stroke="#005bbb6D"/><path d="M159-263l60-101" stroke-width="4.9" stroke="#005bbb6E"/><path d="M15-82l-86 80" stroke-width="5.0" stroke="#005bbb70"/><path d="M132-49l32 113" stroke-width="5.1" stroke="#fff50074"/><path d="M197-229l97-67" stroke-width="5.1" stroke="#fff50075"/><path d="M180-249l80-87" stroke-width="5.1" stroke="#005bbb75"/><path d="M92-280l-8-118" stroke-width="5.2" stroke="#fff50076"/><path d="M213-196l113-33" stroke-width="5.3" stroke="#fff79"/><path d="M108-280l8-118" stroke-width="5.3" stroke="#fff50079"/><path d="M21-250l-79-88" stroke-width="5.3" stroke="#c2e1ff79"/><path d="M-11-124l-112 39" stroke-width="5.3" stroke="#fff7B"/><path d="M72-48l-29 115" stroke-width="5.4" stroke="#fff7C"/><path d="M-15-188l-115-26" stroke-width="5.5" stroke="#fff5007E"/><path d="M191-238l91-75" stroke-width="5.5" stroke="#c2e1ff7E"/><path d="M214-192l115-29" stroke-width="5.5" stroke="#fff7E"/><path d="M198-97l98 66" stroke-width="5.5" stroke="#c2e1ff7E"/><path d="M-15-135l-115 27" stroke-width="5.5" stroke="#005bbb7F"/><path d="M76-47l-23 116" stroke-width="5.5" stroke="#005bbb7F"/><path d="M16-79l-84 83" stroke-width="5.5" stroke="#c2e1ff80"/><path d="M180-249l80-87" stroke-width="5.6" stroke="#fff81"/><path d="M32-259l-69-96" stroke-width="5.6" stroke="#fff50081"/><path d="M56-53l-43 110" stroke-width="5.7" stroke="#fff85"/><path d="M192-89l93 74" stroke-width="5.7" stroke="#fff50085"/><path d="M50-269l-50-107" stroke-width="5.8" stroke="#c2e1ff87"/><path d="M58-272l-43-110" stroke-width="5.9" stroke="#c2e1ff8B"/><path d="M189-86l89 77" stroke-width="6.0" stroke="#fff5008C"/><path d="M193-234l93-72" stroke-width="6.0" stroke="#005bbb8D"/><path d="M191-88l90 74" stroke-width="6.0" stroke="#c2e1ff8E"/><path d="M204-216l104-54" stroke-width="6.1" stroke="#fff50090"/><path d="M216-149l116 13" stroke-width="6.1" stroke="#005bbb91"/><path d="M202-220l101-57" stroke-width="6.2" stroke="#c2e1ff93"/><path d="M-12-193l-113-31" stroke-width="6.3" stroke="#005bbb95"/><path d="M203-110l103 53" stroke-width="6.4" stroke="#fff98"/><path d="M81-48l-18 114" stroke-width="6.4" stroke="#fff98"/><path d="M210-129l111 34" stroke-width="6.4" stroke="#c2e1ff9A"/><path d="M-15-171l-114-8" stroke-width="6.6" stroke="#c2e1ff9D"/><path d="M16-241l-83-79" stroke-width="6.6" stroke="#fff5009D"/><path d="M209-198l108-35" stroke-width="6.6" stroke="#c2e1ff9F"/><path d="M206-121l106 42" stroke-width="6.6" stroke="#005bbbA0"/><path d="M160-260l60-97" stroke-width="6.7" stroke="#005bbbA0"/><path d="M192-230l91-67" stroke-width="6.7" stroke="#005bbbA1"/><path d="M214-162l113 0" stroke-width="6.7" stroke="#fff500A2"/><path d="M213-171l114-8" stroke-width="6.7" stroke="#fffA2"/><path d="M39-258l-60-96" stroke-width="6.8" stroke="#fffA3"/><path d="M9-96l-92 66" stroke-width="6.8" stroke="#fff500A4"/><path d="M17-86l-82 77" stroke-width="6.8" stroke="#c2e1ffA5"/><path d="M123-273l23-110" stroke-width="6.9" stroke="#fffA6"/><path d="M104-275l5-112" stroke-width="6.9" stroke="#c2e1ffA7"/><path d="M196-220l96-58" stroke-width="6.9" stroke="#fff500A7"/><path d="M133-270l33-107" stroke-width="6.9" stroke="#fff500A7"/><path d="M211-151l112 11" stroke-width="6.9" stroke="#fffA7"/><path d="M181-239l81-77" stroke-width="7.0" stroke="#c2e1ffA9"/><path d="M101-272l1-110" stroke-width="7.2" stroke="#c2e1ffAE"/><path d="M5-108l-95 55" stroke-width="7.2" stroke="#c2e1ffAF"/><path d="M-9-166l-108-3" stroke-width="7.3" stroke="#005bbbB1"/><path d="M-5-191l-104-28" stroke-width="7.3" stroke="#005bbbB2"/><path d="M47-257l-53-94" stroke-width="7.3" stroke="#fffB2"/><path d="M-7-147l-106 16" stroke-width="7.3" stroke="#fff500B3"/><path d="M165-249l64-86" stroke-width="7.3" stroke="#fff500B3"/><path d="M198-119l98 44" stroke-width="7.4" stroke="#005bbbB4"/><path d="M114-269l14-106" stroke-width="7.4" stroke="#fffB4"/><path d="M21-90l-79 72" stroke-width="7.4" stroke="#fff500B5"/><path d="M131-61l32 101" stroke-width="7.5" stroke="#fffB7"/><path d="M180-232l81-69" stroke-width="7.5" stroke="#005bbbB7"/><path d="M199-127l99 36" stroke-width="7.5" stroke="#fff500B9"/><path d="M1-196l-100-34" stroke-width="7.6" stroke="#fff500BA"/><path d="M184-219l84-57" stroke-width="7.8" stroke="#fff500C0"/><path d="M6-200l-94-37" stroke-width="7.8" stroke="#fffC1"/><path d="M8-201l-93-39" stroke-width="7.9" stroke="#c2e1ffC2"/><path d="M13-207l-87-45" stroke-width="8.0" stroke="#fff500C6"/><path d="M6-137l-95 25" stroke-width="8.0" stroke="#005bbbC7"/><path d="M195-142l95 21" stroke-width="8.1" stroke="#c2e1ffC8"/><path d="M6-169l-95-6" stroke-width="8.2" stroke="#005bbbCB"/><path d="M71-252l-29-90" stroke-width="8.2" stroke="#fff500CC"/><path d="M186-125l85 38" stroke-width="8.2" stroke="#fffCD"/><path d="M26-107l-74 56" stroke-width="8.3" stroke="#c2e1ffCE"/><path d="M163-95l64 68" stroke-width="8.3" stroke="#005bbbCE"/><path d="M133-246l34-84" stroke-width="8.4" stroke="#fffD1"/><path d="M184-130l84 33" stroke-width="8.4" stroke="#fff500D1"/><path d="M15-192l-84-30" stroke-width="8.4" stroke="#fffD2"/><path d="M150-235l50-73" stroke-width="8.5" stroke="#005bbbD4"/><path d="M166-220l65-58" stroke-width="8.5" stroke="#fffD5"/><path d="M38-222l-63-60" stroke-width="8.6" stroke="#005bbbD6"/><path d="M15-167l-85-4" stroke-width="8.6" stroke="#005bbbD8"/><path d="M137-239l37-76" stroke-width="8.6" stroke="#005bbbD8"/><path d="M182-169l81-6" stroke-width="8.7" stroke="#fffDB"/><path d="M33-207l-66-44" stroke-width="8.8" stroke="#fff500DD"/><path d="M173-138l74 25" stroke-width="8.9" stroke="#c2e1ffDF"/><path d="M163-120l64 43" stroke-width="8.9" stroke="#005bbbE0"/><path d="M24-163l-75-1" stroke-width="9.0" stroke="#fff500E1"/><path d="M112-88l12 74" stroke-width="9.0" stroke="#c2e1ffE1"/><path d="M66-96l-34 67" stroke-width="9.0" stroke="#fffE2"/><path d="M63-224l-37-62" stroke-width="9.1" stroke="#fff500E4"/><path d="M132-103l32 59" stroke-width="9.2" stroke="#fffE8"/><path d="M95-224l-5-62" stroke-width="9.3" stroke="#fffEC"/><path d="M101-219l1-57" stroke-width="9.4" stroke="#fff500EF"/><path d="M67-207l-32-45" stroke-width="9.5" stroke="#005bbbF0"/><path d="M152-153l51 9" stroke-width="9.5" stroke="#c2e1ffF1"/><path d="M146-149l46 14" stroke-width="9.6" stroke="#005bbbF3"/><path d="M78-123l-22 39" stroke-width="9.7" stroke="#fffF5"/><path d="M107-205l7-42" stroke-width="9.7" stroke="#fffF6"/><path d="M105-120l5 42" stroke-width="9.7" stroke="#fff500F6"/><path d="M63-168l-37-6" stroke-width="9.8" stroke="#005bbbF8"/><path d="M64-157l-37 6" stroke-width="9.8" stroke="#fffF8"/><path d="M65-157l-34 5" stroke-width="9.8" stroke="#005bbbF9"/><path d="M74-155l-26 8" stroke-width="9.9" stroke="#005bbbFB"/></g></svg>