<svg width="1200" height="675" viewBox="-500 -500 1200 675" xmlns="http://www.w3.org/2000/svg"><path d="M-500-500h1200v675h-1200z" fill="#000"/><style>.sparkles path{stroke-linecap:round}</style><g class="sparkles"><path d="M106-146l6 17" stroke-width="1.1" stroke="#0035661"/><path d="M79-154l-21 8" stroke-width="1.1" stroke="#0008142"/><path d="M91-188l-9-25" stroke-width="1.1" stroke="#ffc3003"/><path d="M90-132l-10 31" stroke-width="1.2" stroke="#ffc3004"/><path d="M105-127l4 36" stroke-width="1.2" stroke="#ffd60a6"/><path d="M80-198l-19-35" stroke-width="1.3" stroke="#0008147"/><path d="M62-192l-39-30" stroke-width="1.4" stroke="#001d3dB"/><path d="M49-168l-50-6" stroke-width="1.4" stroke="#001d3dC"/><path d="M99-110l-1 52" stroke-width="1.5" stroke="#ffd60aD"/><path d="M67-204l-32-42" stroke-width="1.5" stroke="#003566D"/><path d="M137-201l37-39" stroke-width="1.5" stroke="#001d3dD"/><path d="M47-149l-54 14" stroke-width="1.5" stroke="#ffd60aE"/><path d="M154-176l55-14" stroke-width="1.5" stroke="#ffc300F"/><path d="M60-203l-40-40" stroke-width="1.6" stroke="#003566F"/><path d="M161-162l61 0" stroke-width="1.6" stroke="#001d3d12"/><path d="M63-216l-37-54" stroke-width="1.7" stroke="#00081415"/><path d="M142-214l42-51" stroke-width="1.8" stroke="#001d3d15"/><path d="M160-196l61-34" stroke-width="1.8" stroke="#00356618"/><path d="M51-212l-49-50" stroke-width="1.9" stroke="#ffd60a18"/><path d="M107-242l7-79" stroke-width="2.2" stroke="#00081421"/><path d="M125-86l24 76" stroke-width="2.2" stroke="#ffd60a21"/><path d="M182-156l82 7" stroke-width="2.3" stroke="#00356624"/><path d="M102-80l2 83" stroke-width="2.3" stroke="#ffd60a24"/><path d="M154-227l54-64" stroke-width="2.3" stroke="#00356625"/><path d="M37-219l-64-57" stroke-width="2.4" stroke="#ffc30026"/><path d="M186-167l87-5" stroke-width="2.4" stroke="#00356628"/><path d="M139-84l38 79" stroke-width="2.5" stroke="#0008142A"/><path d="M58-240l-42-78" stroke-width="2.5" stroke="#0008142A"/><path d="M32-221l-69-59" stroke-width="2.6" stroke="#ffd60a2D"/><path d="M39-96l-61 67" stroke-width="2.6" stroke="#001d3d2D"/><path d="M19-206l-82-44" stroke-width="2.7" stroke="#001d3d2F"/><path d="M193-162l93 0" stroke-width="2.7" stroke="#ffc30030"/><path d="M30-226l-70-63" stroke-width="2.8" stroke="#00081432"/><path d="M118-70l18 93" stroke-width="2.8" stroke="#ffd60a33"/><path d="M8-185l-93-23" stroke-width="2.8" stroke="#00081434"/><path d="M73-255l-27-92" stroke-width="2.9" stroke="#ffc30035"/><path d="M128-70l27 93" stroke-width="2.9" stroke="#00356636"/><path d="M194-189l94-27" stroke-width="3.0" stroke="#00081438"/><path d="M189-209l88-46" stroke-width="3.1" stroke="#ffd60a3B"/><path d="M50-250l-50-88" stroke-width="3.2" stroke="#ffd60a3D"/><path d="M98-60l-2 103" stroke-width="3.3" stroke="#001d3d41"/><path d="M149-71l49 91" stroke-width="3.3" stroke="#00081441"/><path d="M147-70l48 93" stroke-width="3.4" stroke="#00081442"/><path d="M90-59l-10 103" stroke-width="3.4" stroke="#ffc30043"/><path d="M190-214l90-52" stroke-width="3.4" stroke="#ffc30043"/><path d="M192-213l92-51" stroke-width="3.4" stroke="#00356644"/><path d="M47-254l-53-91" stroke-width="3.5" stroke="#ffd60a46"/><path d="M72-265l-27-102" stroke-width="3.5" stroke="#ffd60a46"/><path d="M113-55l12 108" stroke-width="3.7" stroke="#ffc3004C"/><path d="M208-175l109-13" stroke-width="3.8" stroke="#ffc3004E"/><path d="M174-244l74-82" stroke-width="3.9" stroke="#001d3d51"/><path d="M188-229l89-66" stroke-width="3.9" stroke="#ffc30051"/><path d="M210-152l111 11" stroke-width="3.9" stroke="#00081453"/><path d="M37-71l-63 91" stroke-width="3.9" stroke="#ffd60a53"/><path d="M189-93l89 70" stroke-width="4.2" stroke="#ffc3005A"/><path d="M13-90l-88 73" stroke-width="4.3" stroke="#0008145D"/><path d="M20-82l-81 81" stroke-width="4.3" stroke="#001d3d5E"/><path d="M214-173l113-11" stroke-width="4.3" stroke="#ffc3005E"/><path d="M181-243l81-81" stroke-width="4.4" stroke="#001d3d5F"/><path d="M95-277l-5-114" stroke-width="4.4" stroke="#0008145F"/><path d="M156-62l56 100" stroke-width="4.5" stroke="#ffc30062"/><path d="M-14-180l-115-18" stroke-width="4.6" stroke="#00081465"/><path d="M161-64l61 99" stroke-width="4.7" stroke="#ffd60a68"/><path d="M213-137l114 26" stroke-width="4.7" stroke="#00356669"/><path d="M183-244l84-82" stroke-width="4.8" stroke="#0035666C"/><path d="M55-270l-46-108" stroke-width="4.8" stroke="#ffd60a6C"/><path d="M177-75l77 88" stroke-width="4.9" stroke="#0035666D"/><path d="M-15-143l-116 20" stroke-width="4.9" stroke="#0035666D"/><path d="M-10-122l-110 40" stroke-width="4.9" stroke="#ffc3006F"/><path d="M216-144l116 19" stroke-width="5.0" stroke="#ffc30070"/><path d="M215-186l115-23" stroke-width="5.0" stroke="#001d3d70"/><path d="M143-53l44 109" stroke-width="5.0" stroke="#001d3d72"/><path d="M162-262l62-100" stroke-width="5.1" stroke="#001d3d74"/><path d="M127-48l26 115" stroke-width="5.1" stroke="#00356674"/><path d="M155-267l55-104" stroke-width="5.1" stroke="#00081475"/><path d="M185-244l84-82" stroke-width="5.2" stroke="#ffd60a75"/><path d="M72-48l-28 115" stroke-width="5.2" stroke="#00081477"/><path d="M-17-146l-117 16" stroke-width="5.2" stroke="#001d3d77"/><path d="M218-156l118 7" stroke-width="5.3" stroke="#001d3d7A"/><path d="M2-96l-98 66" stroke-width="5.4" stroke="#0035667B"/><path d="M191-238l91-75" stroke-width="5.4" stroke="#0035667C"/><path d="M218-164l118-1" stroke-width="5.4" stroke="#0035667D"/><path d="M186-82l87 81" stroke-width="5.4" stroke="#0008147E"/><path d="M37-263l-62-100" stroke-width="5.5" stroke="#ffd60a7E"/><path d="M61-51l-39 112" stroke-width="5.6" stroke="#00356681"/><path d="M200-99l99 63" stroke-width="5.6" stroke="#001d3d82"/><path d="M218-158l118 4" stroke-width="5.7" stroke="#ffd60a85"/><path d="M24-252l-77-90" stroke-width="5.7" stroke="#ffc30085"/><path d="M180-76l80 87" stroke-width="5.7" stroke="#00081485"/><path d="M52-270l-47-108" stroke-width="5.8" stroke="#001d3d86"/><path d="M100-45l-1 118" stroke-width="5.8" stroke="#ffc30088"/><path d="M166-65l66 97" stroke-width="5.9" stroke="#001d3d8A"/><path d="M-2-103l-101 59" stroke-width="5.9" stroke="#ffd60a8A"/><path d="M61-52l-38 111" stroke-width="6.0" stroke="#0035668D"/><path d="M40-263l-60-101" stroke-width="6.1" stroke="#ffd60a90"/><path d="M175-253l74-90" stroke-width="6.1" stroke="#001d3d91"/><path d="M217-165l117-2" stroke-width="6.1" stroke="#ffd60a91"/><path d="M163-261l63-98" stroke-width="6.2" stroke="#00356693"/><path d="M124-48l23 114" stroke-width="6.2" stroke="#001d3d93"/><path d="M209-203l109-40" stroke-width="6.3" stroke="#ffc30096"/><path d="M176-74l75 88" stroke-width="6.3" stroke="#00356696"/><path d="M-2-218l-102-55" stroke-width="6.4" stroke="#001d3d98"/><path d="M35-258l-64-96" stroke-width="6.4" stroke="#00356698"/><path d="M98-278l-3-116" stroke-width="6.4" stroke="#00081499"/><path d="M57-56l-43 107" stroke-width="6.5" stroke="#ffd60a9B"/><path d="M-6-206l-107-44" stroke-width="6.5" stroke="#0008149B"/><path d="M-5-115l-105 48" stroke-width="6.5" stroke="#ffd60a9C"/><path d="M146-268l46-105" stroke-width="6.5" stroke="#0008149C"/><path d="M18-242l-81-80" stroke-width="6.7" stroke="#ffc300A0"/><path d="M137-270l38-108" stroke-width="6.7" stroke="#000814A0"/><path d="M-14-170l-113-8" stroke-width="6.7" stroke="#001d3dA1"/><path d="M-6-204l-106-42" stroke-width="6.7" stroke="#000814A2"/><path d="M134-271l35-108" stroke-width="6.7" stroke="#ffd60aA2"/><path d="M182-241l81-78" stroke-width="6.8" stroke="#000814A4"/><path d="M33-254l-66-91" stroke-width="6.8" stroke="#ffd60aA4"/><path d="M196-220l96-58" stroke-width="6.9" stroke="#000814A7"/><path d="M2-216l-99-54" stroke-width="6.9" stroke="#ffc300A7"/><path d="M-8-134l-108 29" stroke-width="6.9" stroke="#ffd60aA8"/><path d="M-2-121l-103 42" stroke-width="7.1" stroke="#003566AC"/><path d="M192-224l92-61" stroke-width="7.1" stroke="#001d3dAC"/><path d="M-10-165l-111-3" stroke-width="7.1" stroke="#ffd60aAC"/><path d="M107-273l7-110" stroke-width="7.1" stroke="#001d3dAC"/><path d="M33-75l-66 88" stroke-width="7.1" stroke="#001d3dAD"/><path d="M169-248l69-85" stroke-width="7.2" stroke="#001d3dAE"/><path d="M62-60l-39 102" stroke-width="7.2" stroke="#ffd60aB0"/><path d="M-9-167l-109-5" stroke-width="7.2" stroke="#ffc300B0"/><path d="M207-168l106-6" stroke-width="7.4" stroke="#ffc300B5"/><path d="M-2-133l-102 29" stroke-width="7.5" stroke="#ffc300B7"/><path d="M32-82l-68 80" stroke-width="7.5" stroke="#ffc300B8"/><path d="M136-260l37-98" stroke-width="7.6" stroke="#003566BB"/><path d="M116-265l16-102" stroke-width="7.7" stroke="#000814BC"/><path d="M23-97l-77 65" stroke-width="7.8" stroke="#ffc300C1"/><path d="M0-146l-99 16" stroke-width="7.8" stroke="#001d3dC1"/><path d="M51-250l-49-88" stroke-width="7.9" stroke="#001d3dC2"/><path d="M183-219l82-56" stroke-width="7.9" stroke="#003566C3"/><path d="M31-90l-69 72" stroke-width="7.9" stroke="#003566C3"/><path d="M48-247l-52-85" stroke-width="7.9" stroke="#ffc300C4"/><path d="M40-85l-60 77" stroke-width="8.0" stroke="#003566C6"/><path d="M196-180l97-18" stroke-width="8.0" stroke="#001d3dC6"/><path d="M188-204l89-42" stroke-width="8.0" stroke="#ffd60aC7"/><path d="M169-94l69 68" stroke-width="8.1" stroke="#ffd60aC8"/><path d="M11-126l-89 36" stroke-width="8.1" stroke="#001d3dC9"/><path d="M78-69l-21 93" stroke-width="8.1" stroke="#001d3dCA"/><path d="M6-175l-95-12" stroke-width="8.2" stroke="#ffc300CA"/><path d="M180-215l79-52" stroke-width="8.2" stroke="#001d3dCB"/><path d="M170-102l70 61" stroke-width="8.3" stroke="#001d3dCE"/><path d="M26-216l-74-53" stroke-width="8.3" stroke="#ffd60aD0"/><path d="M81-252l-19-89" stroke-width="8.4" stroke="#001d3dD0"/><path d="M159-230l59-68" stroke-width="8.4" stroke="#001d3dD2"/><path d="M12-154l-89 8" stroke-width="8.5" stroke="#003566D3"/><path d="M157-95l57 67" stroke-width="8.5" stroke="#000814D4"/><path d="M134-82l34 80" stroke-width="8.5" stroke="#003566D5"/><path d="M37-221l-63-59" stroke-width="8.6" stroke="#ffd60aD6"/><path d="M168-211l67-48" stroke-width="8.7" stroke="#003566DA"/><path d="M156-102l57 61" stroke-width="8.7" stroke="#ffd60aDA"/><path d="M172-201l72-39" stroke-width="8.8" stroke="#ffd60aDB"/><path d="M63-234l-37-71" stroke-width="8.8" stroke="#ffc300DD"/><path d="M177-175l77-12" stroke-width="8.9" stroke="#ffd60aDF"/><path d="M55-224l-45-62" stroke-width="8.9" stroke="#ffd60aE0"/><path d="M37-204l-64-41" stroke-width="9.0" stroke="#001d3dE1"/><path d="M27-143l-72 20" stroke-width="9.0" stroke="#ffc300E1"/><path d="M25-167l-75-4" stroke-width="9.0" stroke="#000814E1"/><path d="M65-228l-34-66" stroke-width="9.0" stroke="#ffd60aE2"/><path d="M146-220l45-58" stroke-width="9.0" stroke="#003566E3"/><path d="M135-225l36-62" stroke-width="9.1" stroke="#ffd60aE4"/><path d="M169-153l70 10" stroke-width="9.1" stroke="#003566E6"/><path d="M161-197l60-34" stroke-width="9.1" stroke="#003566E6"/><path d="M166-177l66-15" stroke-width="9.2" stroke="#003566E8"/><path d="M52-116l-49 46" stroke-width="9.2" stroke="#ffc300E8"/><path d="M80-102l-20 60" stroke-width="9.3" stroke="#ffc300EB"/><path d="M47-138l-54 24" stroke-width="9.4" stroke="#001d3dEE"/><path d="M84-107l-15 55" stroke-width="9.4" stroke="#ffd60aEE"/><path d="M49-143l-51 20" stroke-width="9.5" stroke="#ffd60aF0"/><path d="M77-211l-22-49" stroke-width="9.5" stroke="#ffc300F1"/><path d="M49-162l-50 0" stroke-width="9.6" stroke="#001d3dF2"/><path d="M126-125l27 37" stroke-width="9.7" stroke="#003566F5"/><path d="M75-127l-25 35" stroke-width="9.7" stroke="#003566F6"/><path d="M95-205l-5-42" stroke-width="9.7" stroke="#001d3dF6"/><path d="M86-135l-14 27" stroke-width="9.8" stroke="#000814FA"/><path d="M112-140l11 22" stroke-width="9.9" stroke="#ffd60aFC"/><path d="M103-177l4-15" stroke-width="10.0" stroke="#ffc300FD"/></g></svg>