<svg width="1200" height="675" viewBox="-500 -500 1200 675" xmlns="http://www.w3.org/2000/svg"><path d="M-500-500h1200v675h-1200z" fill="#000"/><style>.sparkles path{stroke-linecap:round}</style><g class="sparkles"><path d="M104-160l3 2" stroke-width="1.0" stroke="#0035660"/><path d="M113-156l13 7" stroke-width="1.0" stroke="#0008140"/><path d="M109-179l9-16" stroke-width="1.1" stroke="#0035661"/><path d="M89-140l-12 22" stroke-width="1.1" stroke="#ffd60a2"/><path d="M73-146l-26 17" stroke-width="1.2" stroke="#001d3d4"/><path d="M90-195l-10-32" stroke-width="1.2" stroke="#0008145"/><path d="M124-137l24 25" stroke-width="1.2" stroke="#0008145"/><path d="M126-194l25-31" stroke-width="1.3" stroke="#001d3d7"/><path d="M130-130l30 32" stroke-width="1.3" stroke="#001d3d9"/><path d="M154-152l55 11" stroke-width="1.5" stroke="#001d3dE"/><path d="M151-186l51-24" stroke-width="1.5" stroke="#ffd60aF"/><path d="M156-150l56 12" stroke-width="1.6" stroke="#00356610"/><path d="M126-110l26 53" stroke-width="1.6" stroke="#00356611"/><path d="M111-104l11 59" stroke-width="1.6" stroke="#001d3d11"/><path d="M98-224l-3-62" stroke-width="1.7" stroke="#001d3d12"/><path d="M133-110l32 53" stroke-width="1.7" stroke="#00081412"/><path d="M55-211l-46-48" stroke-width="1.8" stroke="#ffc30016"/><path d="M128-225l27-62" stroke-width="1.8" stroke="#ffd60a17"/><path d="M62-221l-39-59" stroke-width="1.9" stroke="#001d3d19"/><path d="M146-217l46-55" stroke-width="1.9" stroke="#00081419"/><path d="M171-151l71 12" stroke-width="1.9" stroke="#0035661A"/><path d="M30-190l-70-27" stroke-width="2.0" stroke="#ffd60a1D"/><path d="M112-88l13 74" stroke-width="2.0" stroke="#ffd60a1D"/><path d="M34-124l-67 39" stroke-width="2.1" stroke="#0008141E"/><path d="M178-167l78-5" stroke-width="2.1" stroke="#0035661F"/><path d="M85-241l-14-79" stroke-width="2.2" stroke="#001d3d21"/><path d="M119-243l19-80" stroke-width="2.3" stroke="#ffc30024"/><path d="M96-245l-4-83" stroke-width="2.3" stroke="#ffd60a24"/><path d="M178-191l78-29" stroke-width="2.3" stroke="#ffd60a24"/><path d="M167-214l66-52" stroke-width="2.4" stroke="#ffd60a26"/><path d="M108-78l9 84" stroke-width="2.4" stroke="#001d3d26"/><path d="M77-245l-23-82" stroke-width="2.4" stroke="#ffc30027"/><path d="M26-215l-74-52" stroke-width="2.6" stroke="#0035662D"/><path d="M119-74l19 89" stroke-width="2.6" stroke="#0008142D"/><path d="M188-191l87-28" stroke-width="2.7" stroke="#0008142F"/><path d="M8-175l-92-13" stroke-width="2.7" stroke="#001d3d30"/><path d="M134-249l35-86" stroke-width="2.7" stroke="#001d3d30"/><path d="M92-70l-7 93" stroke-width="2.7" stroke="#ffc30030"/><path d="M180-211l81-49" stroke-width="2.8" stroke="#00081432"/><path d="M196-167l95-5" stroke-width="2.9" stroke="#ffc30034"/><path d="M166-234l65-71" stroke-width="2.9" stroke="#ffc30036"/><path d="M70-68l-30 95" stroke-width="3.1" stroke="#ffd60a3A"/><path d="M154-79l54 84" stroke-width="3.1" stroke="#0008143B"/><path d="M133-68l32 94" stroke-width="3.1" stroke="#0008143B"/><path d="M200-157l101 5" stroke-width="3.1" stroke="#0035663C"/><path d="M40-245l-60-82" stroke-width="3.2" stroke="#ffd60a3E"/><path d="M175-232l76-70" stroke-width="3.3" stroke="#00081440"/><path d="M24-233l-76-71" stroke-width="3.3" stroke="#001d3d42"/><path d="M117-59l16 103" stroke-width="3.4" stroke="#ffc30044"/><path d="M46-252l-54-89" stroke-width="3.4" stroke="#ffd60a44"/><path d="M62-64l-37 98" stroke-width="3.5" stroke="#001d3d45"/><path d="M118-58l17 104" stroke-width="3.5" stroke="#00081446"/><path d="M203-188l102-26" stroke-width="3.5" stroke="#00081446"/><path d="M202-132l103 31" stroke-width="3.6" stroke="#00081448"/><path d="M196-115l96 48" stroke-width="3.6" stroke="#00081449"/><path d="M174-241l74-78" stroke-width="3.6" stroke="#ffd60a4A"/><path d="M202-200l101-37" stroke-width="3.7" stroke="#ffc3004C"/><path d="M-8-171l-108-8" stroke-width="3.7" stroke="#ffd60a4C"/><path d="M14-228l-87-66" stroke-width="3.7" stroke="#ffc3004D"/><path d="M69-267l-30-105" stroke-width="3.8" stroke="#ffc3004E"/><path d="M25-242l-75-80" stroke-width="3.8" stroke="#0035664F"/><path d="M210-159l111 4" stroke-width="3.9" stroke="#ffd60a52"/><path d="M199-113l98 50" stroke-width="3.9" stroke="#00356652"/><path d="M192-227l92-65" stroke-width="4.1" stroke="#00356658"/><path d="M26-77l-74 85" stroke-width="4.2" stroke="#001d3d5A"/><path d="M205-121l106 41" stroke-width="4.2" stroke="#0008145A"/><path d="M140-269l41-106" stroke-width="4.3" stroke="#ffd60a5C"/><path d="M86-275l-14-113" stroke-width="4.3" stroke="#0008145D"/><path d="M193-96l92 66" stroke-width="4.3" stroke="#001d3d5D"/><path d="M214-163l114-1" stroke-width="4.3" stroke="#0008145E"/><path d="M158-261l58-98" stroke-width="4.3" stroke="#ffc3005E"/><path d="M139-54l39 108" stroke-width="4.4" stroke="#00081461"/><path d="M-13-185l-113-22" stroke-width="4.5" stroke="#ffc30063"/><path d="M4-98l-96 64" stroke-width="4.5" stroke="#00356664"/><path d="M-5-211l-105-49" stroke-width="4.6" stroke="#00081465"/><path d="M164-66l64 96" stroke-width="4.6" stroke="#001d3d66"/><path d="M-8-206l-108-43" stroke-width="4.7" stroke="#0008146A"/><path d="M-15-143l-115 19" stroke-width="4.8" stroke="#0008146B"/><path d="M21-76l-79 86" stroke-width="4.8" stroke="#0035666C"/><path d="M49-268l-50-106" stroke-width="4.9" stroke="#ffc3006E"/><path d="M200-224l99-62" stroke-width="4.9" stroke="#ffd60a6F"/><path d="M115-46l15 116" stroke-width="5.0" stroke="#00081470"/><path d="M44-266l-56-103" stroke-width="5.0" stroke="#00356671"/><path d="M-17-152l-117 11" stroke-width="5.1" stroke="#00356674"/><path d="M2-96l-97 66" stroke-width="5.2" stroke="#ffc30078"/><path d="M155-58l56 104" stroke-width="5.3" stroke="#001d3d79"/><path d="M-12-200l-112-37" stroke-width="5.3" stroke="#ffc3007A"/><path d="M217-179l117-16" stroke-width="5.3" stroke="#0035667A"/><path d="M14-243l-86-81" stroke-width="5.3" stroke="#ffd60a7B"/><path d="M198-228l99-66" stroke-width="5.4" stroke="#ffd60a7D"/><path d="M13-242l-87-80" stroke-width="5.5" stroke="#001d3d7E"/><path d="M213-128l113 34" stroke-width="5.5" stroke="#ffd60a7E"/><path d="M-16-142l-117 20" stroke-width="5.6" stroke="#001d3d83"/><path d="M218-164l118-2" stroke-width="5.7" stroke="#ffc30083"/><path d="M-16-186l-115-24" stroke-width="5.7" stroke="#ffc30084"/><path d="M213-129l114 33" stroke-width="5.7" stroke="#001d3d85"/><path d="M184-245l84-83" stroke-width="5.7" stroke="#00356685"/><path d="M-7-213l-106-50" stroke-width="5.8" stroke="#001d3d87"/><path d="M18-78l-82 85" stroke-width="5.8" stroke="#ffc30088"/><path d="M202-103l101 60" stroke-width="5.8" stroke="#00356688"/><path d="M53-55l-47 108" stroke-width="5.9" stroke="#001d3d8B"/><path d="M30-257l-70-94" stroke-width="5.9" stroke="#001d3d8B"/><path d="M15-81l-84 82" stroke-width="6.0" stroke="#ffc3008C"/><path d="M150-56l49 106" stroke-width="6.0" stroke="#ffc3008D"/><path d="M137-274l37-111" stroke-width="6.1" stroke="#ffc3008F"/><path d="M4-228l-97-66" stroke-width="6.2" stroke="#ffd60a92"/><path d="M54-56l-46 107" stroke-width="6.2" stroke="#00356694"/><path d="M-11-128l-111 34" stroke-width="6.3" stroke="#ffc30095"/><path d="M134-52l35 110" stroke-width="6.4" stroke="#ffc30099"/><path d="M192-232l92-70" stroke-width="6.4" stroke="#001d3d9A"/><path d="M104-278l5-115" stroke-width="6.5" stroke="#0008149A"/><path d="M170-254l71-91" stroke-width="6.5" stroke="#ffc3009B"/><path d="M211-194l110-31" stroke-width="6.5" stroke="#ffd60a9C"/><path d="M200-105l99 58" stroke-width="6.5" stroke="#ffd60a9C"/><path d="M120-276l20-113" stroke-width="6.5" stroke="#ffd60a9C"/><path d="M204-210l104-48" stroke-width="6.6" stroke="#ffd60a9F"/><path d="M171-252l71-90" stroke-width="6.6" stroke="#001d3d9F"/><path d="M118-274l18-112" stroke-width="6.8" stroke="#003566A4"/><path d="M-9-133l-109 30" stroke-width="6.8" stroke="#000814A5"/><path d="M7-227l-92-64" stroke-width="6.9" stroke="#ffd60aA6"/><path d="M129-54l30 108" stroke-width="6.9" stroke="#003566A6"/><path d="M122-55l21 108" stroke-width="7.1" stroke="#001d3dAD"/><path d="M7-221l-93-58" stroke-width="7.2" stroke="#000814AF"/><path d="M190-223l90-60" stroke-width="7.3" stroke="#003566B2"/><path d="M184-230l85-68" stroke-width="7.3" stroke="#ffd60aB2"/><path d="M-7-154l-107 8" stroke-width="7.4" stroke="#ffd60aB4"/><path d="M43-253l-58-90" stroke-width="7.4" stroke="#003566B5"/><path d="M97-269l-4-107" stroke-width="7.4" stroke="#000814B6"/><path d="M47-255l-53-92" stroke-width="7.5" stroke="#003566B6"/><path d="M184-228l83-66" stroke-width="7.5" stroke="#ffc300B7"/><path d="M128-61l28 101" stroke-width="7.6" stroke="#003566B9"/><path d="M195-206l94-43" stroke-width="7.6" stroke="#ffd60aBB"/><path d="M109-60l9 102" stroke-width="7.7" stroke="#ffc300BE"/><path d="M0-141l-100 22" stroke-width="7.7" stroke="#001d3dBE"/><path d="M14-216l-86-53" stroke-width="7.8" stroke="#003566C1"/><path d="M198-141l99 22" stroke-width="7.9" stroke="#ffc300C2"/><path d="M129-259l29-96" stroke-width="7.9" stroke="#000814C2"/><path d="M88-262l-12-100" stroke-width="7.9" stroke="#ffd60aC2"/><path d="M140-255l40-92" stroke-width="7.9" stroke="#001d3dC2"/><path d="M49-81l-50 81" stroke-width="8.1" stroke="#001d3dCA"/><path d="M147-245l47-83" stroke-width="8.2" stroke="#003566CA"/><path d="M7-180l-94-18" stroke-width="8.2" stroke="#003566CB"/><path d="M150-83l51 80" stroke-width="8.2" stroke="#001d3dCB"/><path d="M191-140l92 23" stroke-width="8.2" stroke="#ffc300CC"/><path d="M189-135l89 28" stroke-width="8.3" stroke="#ffc300CD"/><path d="M30-223l-70-60" stroke-width="8.3" stroke="#ffd60aCE"/><path d="M96-254l-5-91" stroke-width="8.3" stroke="#ffd60aD0"/><path d="M14-134l-86 29" stroke-width="8.4" stroke="#ffd60aD0"/><path d="M190-162l91 0" stroke-width="8.4" stroke="#003566D1"/><path d="M83-251l-17-89" stroke-width="8.4" stroke="#001d3dD1"/><path d="M122-78l22 85" stroke-width="8.5" stroke="#000814D4"/><path d="M97-76l-3 87" stroke-width="8.6" stroke="#003566D5"/><path d="M115-78l14 84" stroke-width="8.6" stroke="#ffd60aD7"/><path d="M16-172l-84-10" stroke-width="8.6" stroke="#ffc300D8"/><path d="M121-242l22-79" stroke-width="8.7" stroke="#000814DB"/><path d="M54-229l-46-67" stroke-width="8.8" stroke="#001d3dDB"/><path d="M111-242l12-80" stroke-width="8.8" stroke="#001d3dDC"/><path d="M140-232l40-70" stroke-width="8.8" stroke="#ffd60aDC"/><path d="M74-86l-27 76" stroke-width="8.8" stroke="#001d3dDC"/><path d="M177-185l76-22" stroke-width="8.8" stroke="#ffc300DD"/><path d="M165-208l66-45" stroke-width="8.8" stroke="#003566DD"/><path d="M137-233l37-70" stroke-width="8.8" stroke="#ffd60aDE"/><path d="M21-159l-78 4" stroke-width="8.9" stroke="#003566DE"/><path d="M114-239l15-76" stroke-width="8.9" stroke="#ffd60aDF"/><path d="M146-102l45 61" stroke-width="8.9" stroke="#ffc300E1"/><path d="M128-233l29-70" stroke-width="9.0" stroke="#ffc300E1"/><path d="M118-236l18-73" stroke-width="9.0" stroke="#ffd60aE1"/><path d="M83-90l-16 73" stroke-width="9.0" stroke="#000814E2"/><path d="M83-235l-18-72" stroke-width="9.0" stroke="#003566E2"/><path d="M71-229l-29-67" stroke-width="9.0" stroke="#ffc300E3"/><path d="M91-92l-9 70" stroke-width="9.1" stroke="#ffc300E5"/><path d="M34-158l-65 4" stroke-width="9.2" stroke="#000814E9"/><path d="M42-135l-59 28" stroke-width="9.3" stroke="#001d3dEA"/><path d="M162-151l63 11" stroke-width="9.3" stroke="#001d3dEB"/><path d="M118-102l18 60" stroke-width="9.3" stroke="#001d3dEB"/><path d="M85-108l-15 54" stroke-width="9.5" stroke="#000814EF"/><path d="M150-186l50-23" stroke-width="9.5" stroke="#ffc300F0"/><path d="M106-215l5-53" stroke-width="9.5" stroke="#ffc300F1"/><path d="M152-164l53-2" stroke-width="9.5" stroke="#001d3dF1"/><path d="M106-124l7 38" stroke-width="9.7" stroke="#000814F7"/><path d="M103-156l3 7" stroke-width="10.0" stroke="#003566FE"/></g></svg>