<svg width="1200" height="675" viewBox="-500 -500 1200 675" xmlns="http://www.w3.org/2000/svg"><path d="M-500-500h1200v675h-1200z" fill="#000"/><style>.sparkles path{stroke-linecap:round}</style><g class="sparkles"><path d="M73-181l-27-19" stroke-width="1.2" stroke="#005bbb5"/><path d="M129-179l29-16" stroke-width="1.2" stroke="#fff5"/><path d="M134-155l33 8" stroke-width="1.2" stroke="#fff5005"/><path d="M125-131l24 31" stroke-width="1.3" stroke="#005bbb7"/><path d="M60-144l-40 18" stroke-width="1.3" stroke="#c2e1ff9"/><path d="M148-156l48 6" stroke-width="1.4" stroke="#fffB"/><path d="M49-167l-51-5" stroke-width="1.4" stroke="#fffC"/><path d="M78-109l-22 54" stroke-width="1.6" stroke="#fff50010"/><path d="M40-175l-61-12" stroke-width="1.7" stroke="#fff12"/><path d="M68-109l-32 53" stroke-width="1.7" stroke="#005bbb12"/><path d="M129-222l28-60" stroke-width="1.8" stroke="#fff15"/><path d="M124-224l24-62" stroke-width="1.8" stroke="#c2e1ff15"/><path d="M33-168l-67-5" stroke-width="1.8" stroke="#fff16"/><path d="M162-193l63-30" stroke-width="1.9" stroke="#fff50018"/><path d="M70-225l-31-63" stroke-width="1.9" stroke="#c2e1ff18"/><path d="M70-226l-30-64" stroke-width="1.9" stroke="#005bbb19"/><path d="M122-230l22-68" stroke-width="1.9" stroke="#005bbb19"/><path d="M77-233l-23-70" stroke-width="2.0" stroke="#fff5001C"/><path d="M49-109l-52 54" stroke-width="2.0" stroke="#005bbb1C"/><path d="M114-236l14-74" stroke-width="2.0" stroke="#c2e1ff1D"/><path d="M161-209l61-47" stroke-width="2.1" stroke="#fff1E"/><path d="M21-166l-80-3" stroke-width="2.2" stroke="#fff21"/><path d="M138-92l37 71" stroke-width="2.2" stroke="#fff50021"/><path d="M135-90l36 73" stroke-width="2.2" stroke="#fff22"/><path d="M182-164l82-1" stroke-width="2.3" stroke="#fff23"/><path d="M24-126l-76 36" stroke-width="2.4" stroke="#fff50026"/><path d="M163-222l62-60" stroke-width="2.4" stroke="#fff50028"/><path d="M31-216l-69-54" stroke-width="2.5" stroke="#fff2A"/><path d="M186-183l85-20" stroke-width="2.5" stroke="#005bbb2A"/><path d="M99-252l-1-89" stroke-width="2.6" stroke="#fff5002C"/><path d="M77-75l-23 88" stroke-width="2.6" stroke="#c2e1ff2D"/><path d="M14-135l-87 28" stroke-width="2.6" stroke="#005bbb2D"/><path d="M182-123l82 40" stroke-width="2.6" stroke="#005bbb2E"/><path d="M85-72l-15 91" stroke-width="2.7" stroke="#c2e1ff2F"/><path d="M81-253l-19-91" stroke-width="2.7" stroke="#fff30"/><path d="M137-247l37-85" stroke-width="2.7" stroke="#fff50030"/><path d="M184-122l85 41" stroke-width="2.8" stroke="#fff50031"/><path d="M107-66l6 97" stroke-width="2.9" stroke="#fff36"/><path d="M90-259l-9-97" stroke-width="3.0" stroke="#005bbb37"/><path d="M94-63l-7 100" stroke-width="3.1" stroke="#fff3B"/><path d="M164-239l65-77" stroke-width="3.1" stroke="#fff5003B"/><path d="M127-260l28-97" stroke-width="3.2" stroke="#fff3D"/><path d="M110-62l10 101" stroke-width="3.2" stroke="#fff3E"/><path d="M197-192l97-29" stroke-width="3.2" stroke="#fff5003E"/><path d="M199-189l99-27" stroke-width="3.3" stroke="#fff5003F"/><path d="M197-196l96-34" stroke-width="3.3" stroke="#c2e1ff3F"/><path d="M23-94l-78 69" stroke-width="3.3" stroke="#005bbb41"/><path d="M1-133l-100 30" stroke-width="3.3" stroke="#c2e1ff42"/><path d="M204-162l104 0" stroke-width="3.4" stroke="#005bbb42"/><path d="M166-81l66 82" stroke-width="3.5" stroke="#fff50045"/><path d="M-4-142l-104 21" stroke-width="3.5" stroke="#c2e1ff47"/><path d="M162-76l63 87" stroke-width="3.6" stroke="#fff50048"/><path d="M202-195l102-33" stroke-width="3.6" stroke="#c2e1ff49"/><path d="M207-177l106-14" stroke-width="3.6" stroke="#005bbb4A"/><path d="M81-268l-20-106" stroke-width="3.6" stroke="#fff4A"/><path d="M208-168l109-6" stroke-width="3.7" stroke="#005bbb4D"/><path d="M-6-138l-106 25" stroke-width="3.8" stroke="#fff4E"/><path d="M203-199l103-37" stroke-width="3.8" stroke="#fff5004F"/><path d="M95-52l-5 111" stroke-width="4.0" stroke="#005bbb54"/><path d="M135-57l36 105" stroke-width="4.0" stroke="#c2e1ff54"/><path d="M19-239l-82-76" stroke-width="4.0" stroke="#005bbb55"/><path d="M202-118l103 45" stroke-width="4.0" stroke="#fff50056"/><path d="M194-102l95 61" stroke-width="4.1" stroke="#fff57"/><path d="M202-115l102 47" stroke-width="4.1" stroke="#fff50058"/><path d="M24-247l-75-84" stroke-width="4.2" stroke="#c2e1ff5B"/><path d="M78-274l-23-111" stroke-width="4.2" stroke="#fff5005B"/><path d="M-4-207l-104-45" stroke-width="4.2" stroke="#005bbb5B"/><path d="M155-262l55-99" stroke-width="4.3" stroke="#c2e1ff5C"/><path d="M-11-184l-112-22" stroke-width="4.3" stroke="#005bbb5C"/><path d="M72-52l-27 111" stroke-width="4.3" stroke="#005bbb5E"/><path d="M67-272l-34-109" stroke-width="4.3" stroke="#fff5E"/><path d="M165-257l65-94" stroke-width="4.4" stroke="#c2e1ff60"/><path d="M149-267l49-104" stroke-width="4.5" stroke="#005bbb63"/><path d="M139-271l40-108" stroke-width="4.5" stroke="#005bbb63"/><path d="M201-219l101-56" stroke-width="4.5" stroke="#fff64"/><path d="M215-170l115-7" stroke-width="4.5" stroke="#fff50064"/><path d="M0-105l-100 58" stroke-width="4.5" stroke="#fff64"/><path d="M40-63l-59 99" stroke-width="4.6" stroke="#fff50065"/><path d="M5-229l-94-67" stroke-width="4.6" stroke="#c2e1ff65"/><path d="M83-48l-17 115" stroke-width="4.6" stroke="#005bbb66"/><path d="M-14-184l-114-21" stroke-width="4.6" stroke="#c2e1ff66"/><path d="M37-65l-62 98" stroke-width="4.6" stroke="#005bbb67"/><path d="M36-260l-63-97" stroke-width="4.7" stroke="#fff50068"/><path d="M129-50l29 113" stroke-width="4.7" stroke="#fff50069"/><path d="M182-80l82 83" stroke-width="4.8" stroke="#fff5006B"/><path d="M-14-138l-114 24" stroke-width="4.8" stroke="#fff6C"/><path d="M101-45l1 117" stroke-width="4.9" stroke="#fff6F"/><path d="M12-240l-89-77" stroke-width="5.0" stroke="#fff70"/><path d="M208-117l109 45" stroke-width="5.0" stroke="#005bbb70"/><path d="M193-234l94-71" stroke-width="5.1" stroke="#005bbb73"/><path d="M196-231l95-69" stroke-width="5.1" stroke="#005bbb73"/><path d="M-3-106l-103 57" stroke-width="5.1" stroke="#fff50074"/><path d="M212-198l113-35" stroke-width="5.2" stroke="#fff50076"/><path d="M208-210l108-48" stroke-width="5.3" stroke="#005bbb78"/><path d="M-17-147l-117 16" stroke-width="5.3" stroke="#005bbb79"/><path d="M184-246l84-83" stroke-width="5.3" stroke="#005bbb7A"/><path d="M35-64l-65 98" stroke-width="5.4" stroke="#c2e1ff7B"/><path d="M-14-193l-114-30" stroke-width="5.4" stroke="#005bbb7B"/><path d="M-18-153l-117 9" stroke-width="5.4" stroke="#005bbb7C"/><path d="M203-218l104-56" stroke-width="5.9" stroke="#c2e1ff8C"/><path d="M60-52l-39 111" stroke-width="6.0" stroke="#fff5008C"/><path d="M118-278l18-116" stroke-width="6.0" stroke="#fff8D"/><path d="M215-184l116-22" stroke-width="6.0" stroke="#005bbb8E"/><path d="M185-243l85-81" stroke-width="6.1" stroke="#fff5008F"/><path d="M204-217l104-54" stroke-width="6.1" stroke="#c2e1ff8F"/><path d="M198-227l98-64" stroke-width="6.1" stroke="#005bbb8F"/><path d="M188-240l87-78" stroke-width="6.1" stroke="#005bbb90"/><path d="M127-49l26 114" stroke-width="6.2" stroke="#c2e1ff92"/><path d="M14-241l-87-79" stroke-width="6.2" stroke="#005bbb92"/><path d="M23-75l-77 88" stroke-width="6.2" stroke="#005bbb92"/><path d="M120-48l19 115" stroke-width="6.2" stroke="#005bbb93"/><path d="M164-66l64 97" stroke-width="6.3" stroke="#fff50096"/><path d="M147-269l47-106" stroke-width="6.3" stroke="#fff50096"/><path d="M201-219l101-57" stroke-width="6.3" stroke="#fff50097"/><path d="M-16-172l-115-10" stroke-width="6.4" stroke="#fff50097"/><path d="M11-89l-90 74" stroke-width="6.4" stroke="#005bbb98"/><path d="M73-50l-26 113" stroke-width="6.4" stroke="#fff50098"/><path d="M190-236l89-73" stroke-width="6.4" stroke="#fff99"/><path d="M-15-159l-116 4" stroke-width="6.4" stroke="#fff5009A"/><path d="M14-237l-87-75" stroke-width="6.6" stroke="#005bbb9F"/><path d="M190-93l91 70" stroke-width="6.6" stroke="#fff5009F"/><path d="M-12-180l-113-18" stroke-width="6.7" stroke="#fffA1"/><path d="M154-62l54 100" stroke-width="6.7" stroke="#c2e1ffA1"/><path d="M-13-158l-114 5" stroke-width="6.8" stroke="#005bbbA3"/><path d="M66-55l-33 108" stroke-width="6.8" stroke="#005bbbA4"/><path d="M131-56l30 107" stroke-width="7.0" stroke="#fff500AA"/><path d="M122-56l22 107" stroke-width="7.2" stroke="#005bbbB0"/><path d="M14-229l-85-66" stroke-width="7.3" stroke="#fff500B2"/><path d="M135-263l34-101" stroke-width="7.4" stroke="#c2e1ffB6"/><path d="M194-116l95 46" stroke-width="7.6" stroke="#c2e1ffB9"/><path d="M162-247l63-84" stroke-width="7.6" stroke="#fff500BA"/><path d="M5-207l-95-44" stroke-width="7.6" stroke="#fffBA"/><path d="M101-58l0 105" stroke-width="7.6" stroke="#fff500BA"/><path d="M73-62l-28 100" stroke-width="7.6" stroke="#fffBB"/><path d="M148-254l48-92" stroke-width="7.7" stroke="#005bbbBC"/><path d="M167-241l67-79" stroke-width="7.7" stroke="#c2e1ffBC"/><path d="M85-61l-16 102" stroke-width="7.7" stroke="#005bbbBD"/><path d="M188-216l87-54" stroke-width="7.7" stroke="#c2e1ffBE"/><path d="M156-249l55-86" stroke-width="7.7" stroke="#c2e1ffBE"/><path d="M199-184l98-22" stroke-width="7.8" stroke="#c2e1ffC1"/><path d="M197-187l98-25" stroke-width="7.9" stroke="#005bbbC2"/><path d="M57-73l-43 90" stroke-width="7.9" stroke="#fffC4"/><path d="M1-162l-99 0" stroke-width="7.9" stroke="#005bbbC4"/><path d="M192-194l92-32" stroke-width="8.0" stroke="#fffC7"/><path d="M29-97l-71 66" stroke-width="8.1" stroke="#fff500C8"/><path d="M49-244l-51-82" stroke-width="8.1" stroke="#005bbbC9"/><path d="M195-165l95-2" stroke-width="8.2" stroke="#c2e1ffCB"/><path d="M95-68l-5 95" stroke-width="8.2" stroke="#c2e1ffCB"/><path d="M134-75l33 87" stroke-width="8.3" stroke="#fff500CD"/><path d="M96-255l-3-93" stroke-width="8.3" stroke="#005bbbCE"/><path d="M33-104l-68 59" stroke-width="8.4" stroke="#fff500D2"/><path d="M151-235l51-73" stroke-width="8.5" stroke="#fff500D3"/><path d="M83-79l-16 84" stroke-width="8.6" stroke="#fff500D7"/><path d="M70-88l-29 75" stroke-width="8.8" stroke="#c2e1ffDC"/><path d="M156-105l56 57" stroke-width="8.8" stroke="#fffDD"/><path d="M155-220l55-57" stroke-width="8.8" stroke="#c2e1ffDD"/><path d="M29-127l-71 35" stroke-width="8.8" stroke="#c2e1ffDD"/><path d="M22-175l-78-13" stroke-width="8.8" stroke="#fff500DE"/><path d="M24-151l-75 11" stroke-width="8.9" stroke="#fffE0"/><path d="M69-232l-31-70" stroke-width="8.9" stroke="#fffE0"/><path d="M70-92l-29 70" stroke-width="8.9" stroke="#c2e1ffE1"/><path d="M34-143l-66 20" stroke-width="9.2" stroke="#fff500E7"/><path d="M54-114l-45 48" stroke-width="9.2" stroke="#005bbbE8"/><path d="M166-169l66-6" stroke-width="9.2" stroke="#fffE9"/><path d="M59-111l-41 52" stroke-width="9.2" stroke="#fff500E9"/><path d="M154-125l55 38" stroke-width="9.2" stroke="#005bbbE9"/><path d="M144-115l43 47" stroke-width="9.3" stroke="#fff500EA"/><path d="M135-214l34-51" stroke-width="9.3" stroke="#c2e1ffEC"/><path d="M64-114l-36 48" stroke-width="9.4" stroke="#005bbbED"/><path d="M126-109l27 54" stroke-width="9.4" stroke="#005bbbED"/><path d="M135-210l36-48" stroke-width="9.4" stroke="#fffED"/><path d="M155-166l55-4" stroke-width="9.5" stroke="#fff500F0"/><path d="M143-192l43-30" stroke-width="9.5" stroke="#fffF1"/><path d="M127-120l27 42" stroke-width="9.6" stroke="#c2e1ffF2"/><path d="M63-135l-37 27" stroke-width="9.6" stroke="#c2e1ffF4"/><path d="M141-180l41-18" stroke-width="9.7" stroke="#c2e1ffF5"/><path d="M141-174l41-11" stroke-width="9.7" stroke="#c2e1ffF6"/><path d="M79-181l-22-19" stroke-width="9.9" stroke="#005bbbFB"/><path d="M76-154l-23 8" stroke-width="9.9" stroke="#c2e1ffFC"/><path d="M113-148l13 15" stroke-width="9.9" stroke="#c2e1ffFD"/><path d="M87-151l-12 12" stroke-width="10.0" stroke="#005bbbFD"/></g></svg>