<svg width="1200" height="675" viewBox="-500 -500 1200 675" xmlns="http://www.w3.org/2000/svg"><path d="M-500-500h1200v675h-1200z" fill="#000"/><style>.sparkles path{stroke-linecap:round}</style><g class="sparkles"><path d="M97-170l-3-8" stroke-width="1.0" stroke="#fff5000"/><path d="M112-165l11-3" stroke-width="1.0" stroke="#c2e1ff0"/><path d="M95-183l-5-20" stroke-width="1.1" stroke="#fff5001"/><path d="M91-134l-9 29" stroke-width="1.1" stroke="#fff5004"/><path d="M78-139l-21 23" stroke-width="1.2" stroke="#fff4"/><path d="M126-143l26 19" stroke-width="1.2" stroke="#c2e1ff4"/><path d="M122-188l22-26" stroke-width="1.2" stroke="#c2e1ff5"/><path d="M75-186l-25-23" stroke-width="1.2" stroke="#c2e1ff5"/><path d="M120-130l19 32" stroke-width="1.2" stroke="#fff6"/><path d="M65-131l-35 32" stroke-width="1.4" stroke="#c2e1ffA"/><path d="M126-213l27-51" stroke-width="1.6" stroke="#fff500F"/><path d="M66-116l-34 46" stroke-width="1.6" stroke="#c2e1ffF"/><path d="M162-162l61 0" stroke-width="1.7" stroke="#fff50012"/><path d="M134-109l33 54" stroke-width="1.7" stroke="#fff13"/><path d="M41-135l-59 28" stroke-width="1.7" stroke="#005bbb15"/><path d="M88-229l-11-66" stroke-width="1.8" stroke="#c2e1ff16"/><path d="M168-178l68-15" stroke-width="1.9" stroke="#fff50018"/><path d="M160-198l59-36" stroke-width="1.9" stroke="#005bbb18"/><path d="M152-115l52 48" stroke-width="1.9" stroke="#fff19"/><path d="M27-184l-73-22" stroke-width="2.1" stroke="#005bbb1E"/><path d="M169-197l68-35" stroke-width="2.1" stroke="#fff5001E"/><path d="M174-133l74 29" stroke-width="2.2" stroke="#005bbb21"/><path d="M31-122l-69 41" stroke-width="2.2" stroke="#c2e1ff21"/><path d="M171-209l71-47" stroke-width="2.4" stroke="#005bbb27"/><path d="M54-90l-46 73" stroke-width="2.4" stroke="#005bbb28"/><path d="M29-215l-70-52" stroke-width="2.5" stroke="#fff2A"/><path d="M10-161l-89 2" stroke-width="2.6" stroke="#005bbb2C"/><path d="M13-139l-86 23" stroke-width="2.6" stroke="#005bbb2C"/><path d="M162-230l61-67" stroke-width="2.6" stroke="#fff2E"/><path d="M83-252l-17-90" stroke-width="2.7" stroke="#fff5002E"/><path d="M125-74l24 89" stroke-width="2.7" stroke="#005bbb2F"/><path d="M145-81l45 82" stroke-width="2.7" stroke="#005bbb31"/><path d="M170-100l70 62" stroke-width="2.8" stroke="#fff50031"/><path d="M143-246l44-83" stroke-width="2.8" stroke="#005bbb32"/><path d="M186-199l87-37" stroke-width="2.8" stroke="#fff50032"/><path d="M50-242l-49-80" stroke-width="2.8" stroke="#fff32"/><path d="M102-257l1-94" stroke-width="2.8" stroke="#005bbb32"/><path d="M170-99l71 63" stroke-width="2.8" stroke="#005bbb32"/><path d="M189-126l89 37" stroke-width="2.9" stroke="#fff50035"/><path d="M48-80l-51 82" stroke-width="2.9" stroke="#fff50036"/><path d="M135-255l36-92" stroke-width="3.0" stroke="#c2e1ff39"/><path d="M174-97l74 65" stroke-width="3.0" stroke="#fff39"/><path d="M145-74l45 89" stroke-width="3.1" stroke="#fff3A"/><path d="M47-247l-53-84" stroke-width="3.1" stroke="#005bbb3A"/><path d="M16-108l-83 54" stroke-width="3.1" stroke="#fff5003A"/><path d="M189-117l89 45" stroke-width="3.1" stroke="#c2e1ff3B"/><path d="M113-63l13 99" stroke-width="3.1" stroke="#c2e1ff3C"/><path d="M78-63l-21 99" stroke-width="3.2" stroke="#c2e1ff3E"/><path d="M84-62l-16 100" stroke-width="3.2" stroke="#c2e1ff3E"/><path d="M44-249l-55-87" stroke-width="3.3" stroke="#005bbb40"/><path d="M54-255l-47-93" stroke-width="3.3" stroke="#005bbb42"/><path d="M73-61l-27 101" stroke-width="3.4" stroke="#fff44"/><path d="M12-219l-89-57" stroke-width="3.4" stroke="#005bbb45"/><path d="M-7-162l-106 1" stroke-width="3.6" stroke="#c2e1ff48"/><path d="M105-55l6 108" stroke-width="3.7" stroke="#c2e1ff4B"/><path d="M152-67l53 96" stroke-width="3.8" stroke="#fff5004E"/><path d="M144-262l44-100" stroke-width="3.8" stroke="#fff5004E"/><path d="M190-99l89 64" stroke-width="3.9" stroke="#fff50"/><path d="M158-256l58-93" stroke-width="3.9" stroke="#fff50050"/><path d="M194-222l93-59" stroke-width="3.9" stroke="#fff52"/><path d="M180-86l80 77" stroke-width="4.0" stroke="#fff50053"/><path d="M133-56l32 106" stroke-width="4.0" stroke="#c2e1ff53"/><path d="M28-248l-72-85" stroke-width="4.0" stroke="#c2e1ff55"/><path d="M71-271l-29-108" stroke-width="4.1" stroke="#c2e1ff57"/><path d="M135-269l36-107" stroke-width="4.1" stroke="#005bbb57"/><path d="M135-55l35 108" stroke-width="4.2" stroke="#c2e1ff5A"/><path d="M105-49l5 113" stroke-width="4.2" stroke="#fff5005A"/><path d="M66-54l-33 108" stroke-width="4.2" stroke="#c2e1ff5B"/><path d="M-11-185l-112-22" stroke-width="4.3" stroke="#c2e1ff5C"/><path d="M-12-183l-113-20" stroke-width="4.3" stroke="#fff5E"/><path d="M40-260l-60-97" stroke-width="4.3" stroke="#005bbb5E"/><path d="M-11-193l-111-31" stroke-width="4.5" stroke="#005bbb63"/><path d="M126-275l26-113" stroke-width="4.6" stroke="#fff65"/><path d="M72-50l-28 112" stroke-width="4.6" stroke="#fff50066"/><path d="M178-77l78 86" stroke-width="4.6" stroke="#005bbb66"/><path d="M154-265l54-103" stroke-width="4.7" stroke="#c2e1ff69"/><path d="M-17-160l-116 3" stroke-width="4.8" stroke="#005bbb6B"/><path d="M-12-195l-112-33" stroke-width="4.8" stroke="#c2e1ff6B"/><path d="M50-268l-50-106" stroke-width="4.9" stroke="#fff5006F"/><path d="M93-45l-6 117" stroke-width="4.9" stroke="#fff6F"/><path d="M0-101l-100 61" stroke-width="5.0" stroke="#fff50070"/><path d="M119-278l19-116" stroke-width="5.0" stroke="#fff50070"/><path d="M31-258l-68-95" stroke-width="5.0" stroke="#fff50070"/><path d="M216-146l116 16" stroke-width="5.0" stroke="#fff70"/><path d="M65-50l-34 112" stroke-width="5.0" stroke="#fff50070"/><path d="M154-58l54 104" stroke-width="5.0" stroke="#c2e1ff72"/><path d="M50-269l-50-106" stroke-width="5.1" stroke="#fff72"/><path d="M109-280l8-117" stroke-width="5.1" stroke="#fff73"/><path d="M192-90l93 73" stroke-width="5.1" stroke="#fff50073"/><path d="M3-228l-98-66" stroke-width="5.1" stroke="#fff50074"/><path d="M58-53l-42 110" stroke-width="5.1" stroke="#c2e1ff74"/><path d="M-18-160l-117 3" stroke-width="5.1" stroke="#c2e1ff75"/><path d="M206-110l105 53" stroke-width="5.3" stroke="#005bbb78"/><path d="M136-275l36-112" stroke-width="5.3" stroke="#c2e1ff7A"/><path d="M-16-139l-116 23" stroke-width="5.3" stroke="#fff7A"/><path d="M115-45l16 117" stroke-width="5.3" stroke="#005bbb7B"/><path d="M146-271l45-109" stroke-width="5.5" stroke="#005bbb7F"/><path d="M153-268l53-106" stroke-width="5.6" stroke="#005bbb83"/><path d="M128-277l28-115" stroke-width="5.7" stroke="#fff50084"/><path d="M217-144l116 19" stroke-width="5.7" stroke="#fff50085"/><path d="M33-66l-67 97" stroke-width="5.8" stroke="#fff89"/><path d="M83-47l-18 116" stroke-width="6.1" stroke="#fff5008F"/><path d="M194-233l94-70" stroke-width="6.1" stroke="#fff8F"/><path d="M-2-105l-102 58" stroke-width="6.1" stroke="#fff50090"/><path d="M91-46l-9 116" stroke-width="6.2" stroke="#c2e1ff92"/><path d="M142-271l42-109" stroke-width="6.2" stroke="#005bbb93"/><path d="M-16-148l-115 14" stroke-width="6.2" stroke="#c2e1ff94"/><path d="M-2-218l-103-56" stroke-width="6.3" stroke="#fff50095"/><path d="M2-225l-98-63" stroke-width="6.3" stroke="#fff50096"/><path d="M146-56l46 106" stroke-width="6.4" stroke="#005bbb97"/><path d="M-2-108l-102 55" stroke-width="6.4" stroke="#fff50099"/><path d="M160-261l60-98" stroke-width="6.5" stroke="#fff5009B"/><path d="M21-247l-78-84" stroke-width="6.5" stroke="#fff9C"/><path d="M14-87l-86 76" stroke-width="6.6" stroke="#fff5009E"/><path d="M192-96l93 67" stroke-width="6.7" stroke="#fff500A0"/><path d="M77-52l-23 110" stroke-width="6.8" stroke="#005bbbA5"/><path d="M90-51l-10 111" stroke-width="6.9" stroke="#fffA8"/><path d="M104-274l4-112" stroke-width="7.0" stroke="#fff500A9"/><path d="M47-260l-53-98" stroke-width="7.0" stroke="#c2e1ffAA"/><path d="M210-161l110 2" stroke-width="7.2" stroke="#fff500AE"/><path d="M-1-121l-102 41" stroke-width="7.2" stroke="#005bbbAF"/><path d="M156-69l55 93" stroke-width="7.3" stroke="#c2e1ffB1"/><path d="M-2-199l-102-36" stroke-width="7.3" stroke="#005bbbB2"/><path d="M28-243l-73-80" stroke-width="7.3" stroke="#005bbbB3"/><path d="M34-245l-67-83" stroke-width="7.5" stroke="#c2e1ffB7"/><path d="M106-57l6 105" stroke-width="7.5" stroke="#fffB8"/><path d="M-1-189l-102-26" stroke-width="7.6" stroke="#fffBA"/><path d="M30-85l-69 78" stroke-width="7.6" stroke="#fffBB"/><path d="M118-60l17 103" stroke-width="7.6" stroke="#005bbbBB"/><path d="M-1-139l-102 23" stroke-width="7.6" stroke="#fff500BC"/><path d="M193-208l93-46" stroke-width="7.7" stroke="#fff500BC"/><path d="M142-68l42 95" stroke-width="7.7" stroke="#fffBC"/><path d="M3-186l-96-23" stroke-width="7.9" stroke="#fff500C4"/><path d="M38-240l-62-77" stroke-width="7.9" stroke="#005bbbC4"/><path d="M11-205l-88-42" stroke-width="8.0" stroke="#fffC6"/><path d="M162-86l62 76" stroke-width="8.0" stroke="#c2e1ffC6"/><path d="M75-257l-24-94" stroke-width="8.0" stroke="#005bbbC7"/><path d="M141-250l42-88" stroke-width="8.1" stroke="#c2e1ffC8"/><path d="M75-70l-25 92" stroke-width="8.2" stroke="#c2e1ffCA"/><path d="M161-232l62-70" stroke-width="8.3" stroke="#c2e1ffCE"/><path d="M56-83l-45 80" stroke-width="8.4" stroke="#fffD0"/><path d="M171-108l72 54" stroke-width="8.4" stroke="#c2e1ffD2"/><path d="M88-247l-12-84" stroke-width="8.6" stroke="#fff500D7"/><path d="M32-115l-68 48" stroke-width="8.7" stroke="#005bbbDA"/><path d="M68-238l-32-76" stroke-width="8.7" stroke="#fffDB"/><path d="M167-210l67-47" stroke-width="8.7" stroke="#fff500DB"/><path d="M93-81l-7 81" stroke-width="8.7" stroke="#fffDB"/><path d="M176-191l77-29" stroke-width="8.8" stroke="#fff500DB"/><path d="M138-93l38 70" stroke-width="8.8" stroke="#fff500DD"/><path d="M21-170l-78-8" stroke-width="8.8" stroke="#005bbbDE"/><path d="M33-122l-66 40" stroke-width="8.9" stroke="#005bbbDF"/><path d="M128-234l29-72" stroke-width="8.9" stroke="#005bbbE0"/><path d="M142-226l42-63" stroke-width="9.0" stroke="#fffE1"/><path d="M32-131l-69 32" stroke-width="9.0" stroke="#fffE1"/><path d="M158-207l59-45" stroke-width="9.0" stroke="#fffE3"/><path d="M79-233l-21-70" stroke-width="9.0" stroke="#fff500E3"/><path d="M135-227l34-65" stroke-width="9.0" stroke="#005bbbE3"/><path d="M29-164l-72-2" stroke-width="9.1" stroke="#c2e1ffE5"/><path d="M148-109l47 53" stroke-width="9.1" stroke="#005bbbE5"/><path d="M31-181l-69-19" stroke-width="9.1" stroke="#fff500E5"/><path d="M35-138l-65 25" stroke-width="9.1" stroke="#fffE6"/><path d="M56-215l-43-52" stroke-width="9.2" stroke="#fff500E7"/><path d="M132-221l32-59" stroke-width="9.2" stroke="#005bbbE8"/><path d="M86-223l-14-61" stroke-width="9.3" stroke="#fff500EB"/><path d="M72-109l-28 53" stroke-width="9.4" stroke="#fff500ED"/><path d="M71-110l-29 52" stroke-width="9.4" stroke="#fff500ED"/><path d="M90-220l-9-57" stroke-width="9.4" stroke="#fff500EE"/><path d="M144-193l44-31" stroke-width="9.5" stroke="#c2e1ffF0"/><path d="M59-140l-41 23" stroke-width="9.6" stroke="#fffF4"/><path d="M111-119l12 44" stroke-width="9.7" stroke="#fff500F5"/><path d="M69-132l-32 31" stroke-width="9.7" stroke="#c2e1ffF5"/><path d="M89-132l-11 31" stroke-width="9.8" stroke="#c2e1ffF9"/><path d="M101-192l1-30" stroke-width="9.9" stroke="#fffFA"/><path d="M120-177l20-15" stroke-width="9.9" stroke="#c2e1ffFC"/><path d="M114-143l13 19" stroke-width="9.9" stroke="#005bbbFC"/><path d="M113-148l13 15" stroke-width="9.9" stroke="#005bbbFD"/><path d="M98-181l-1-19" stroke-width="9.9" stroke="#005bbbFD"/><path d="M114-150l14 12" stroke-width="9.9" stroke="#005bbbFD"/><path d="M102-153l2 9" stroke-width="10.0" stroke="#c2e1ffFE"/><path d="M92-166l-8-4" stroke-width="10.0" stroke="#c2e1ffFE"/><path d="M105-155l4 7" stroke-width="10.0" stroke="#005bbbFE"/></g></svg>