<svg width="1200" height="675" viewBox="-500 -500 1200 675" xmlns="http://www.w3.org/2000/svg"><path d="M-500-500h1200v675h-1200z" fill="#000"/><style>.sparkles path{stroke-linecap:round}</style><g class="sparkles"><path d="M95-169l-5-7" stroke-width="1.0" stroke="#FF78780"/><path d="M82-165l-17-2" stroke-width="1.1" stroke="#D4B4991"/><path d="M119-166l20-4" stroke-width="1.1" stroke="#D4B4991"/><path d="M78-160l-21 2" stroke-width="1.1" stroke="#D4B4992"/><path d="M108-202l9-39" stroke-width="1.3" stroke="#F3D5C07"/><path d="M106-121l5 42" stroke-width="1.3" stroke="#CEE5D08"/><path d="M142-143l43 19" stroke-width="1.4" stroke="#D4B499A"/><path d="M57-184l-42-21" stroke-width="1.4" stroke="#506D84A"/><path d="M60-189l-40-26" stroke-width="1.4" stroke="#F3D5C0A"/><path d="M154-173l55-11" stroke-width="1.5" stroke="#CEE5D0E"/><path d="M42-170l-59-7" stroke-width="1.6" stroke="#506D8410"/><path d="M151-128l51 34" stroke-width="1.7" stroke="#CEE5D012"/><path d="M38-167l-62-5" stroke-width="1.7" stroke="#D4B49913"/><path d="M151-210l51-48" stroke-width="1.9" stroke="#FF777718"/><path d="M36-194l-63-31" stroke-width="1.9" stroke="#889EAF19"/><path d="M35-191l-66-29" stroke-width="1.9" stroke="#506D8419"/><path d="M142-221l43-59" stroke-width="1.9" stroke="#D4B4991A"/><path d="M112-89l12 73" stroke-width="2.0" stroke="#CEE5D01C"/><path d="M165-125l65 38" stroke-width="2.0" stroke="#FF78781D"/><path d="M78-235l-22-72" stroke-width="2.0" stroke="#889EAF1D"/><path d="M175-172l75-10" stroke-width="2.0" stroke="#CEE5D01D"/><path d="M85-237l-15-74" stroke-width="2.1" stroke="#CEE5D01D"/><path d="M123-235l24-73" stroke-width="2.1" stroke="#F3D5C01E"/><path d="M177-160l78 3" stroke-width="2.1" stroke="#889EAF1F"/><path d="M148-99l48 63" stroke-width="2.2" stroke="#FF777720"/><path d="M54-228l-47-66" stroke-width="2.2" stroke="#D4B49922"/><path d="M84-82l-17 81" stroke-width="2.3" stroke="#506D8424"/><path d="M18-179l-81-17" stroke-width="2.3" stroke="#506D8424"/><path d="M64-87l-37 76" stroke-width="2.3" stroke="#CEE5D026"/><path d="M75-243l-24-81" stroke-width="2.3" stroke="#506D8426"/><path d="M40-227l-60-65" stroke-width="2.5" stroke="#FF77772A"/><path d="M153-235l53-72" stroke-width="2.6" stroke="#D4B4992C"/><path d="M171-217l72-55" stroke-width="2.6" stroke="#D4B4992C"/><path d="M160-230l60-67" stroke-width="2.6" stroke="#FF77772C"/><path d="M10-180l-89-18" stroke-width="2.6" stroke="#F3D5C02E"/><path d="M184-199l83-37" stroke-width="2.6" stroke="#506D842E"/><path d="M188-134l88 28" stroke-width="2.7" stroke="#FF78782F"/><path d="M182-120l82 43" stroke-width="2.7" stroke="#FF787830"/><path d="M44-88l-56 74" stroke-width="2.7" stroke="#CEE5D030"/><path d="M46-85l-54 78" stroke-width="2.8" stroke="#CEE5D033"/><path d="M44-239l-56-76" stroke-width="2.8" stroke="#FF787833"/><path d="M56-78l-43 84" stroke-width="2.8" stroke="#CEE5D033"/><path d="M104-66l4 97" stroke-width="2.9" stroke="#D4B49936"/><path d="M25-225l-75-62" stroke-width="3.0" stroke="#F3D5C037"/><path d="M190-122l91 40" stroke-width="3.0" stroke="#889EAF39"/><path d="M194-198l94-35" stroke-width="3.1" stroke="#D4B4993C"/><path d="M178-98l79 65" stroke-width="3.2" stroke="#D4B4993E"/><path d="M18-224l-81-61" stroke-width="3.2" stroke="#506D843F"/><path d="M180-226l80-63" stroke-width="3.2" stroke="#CEE5D03F"/><path d="M186-217l86-55" stroke-width="3.2" stroke="#FF77773F"/><path d="M76-63l-24 100" stroke-width="3.3" stroke="#506D8440"/><path d="M204-162l103 0" stroke-width="3.3" stroke="#FF777742"/><path d="M70-263l-29-101" stroke-width="3.4" stroke="#D4B49944"/><path d="M23-90l-77 72" stroke-width="3.5" stroke="#506D8446"/><path d="M-6-153l-107 10" stroke-width="3.6" stroke="#F3D5C049"/><path d="M-7-175l-107-13" stroke-width="3.6" stroke="#889EAF4A"/><path d="M50-258l-50-96" stroke-width="3.7" stroke="#F3D5C04B"/><path d="M-8-176l-107-14" stroke-width="3.7" stroke="#FF78784D"/><path d="M204-193l105-31" stroke-width="3.8" stroke="#889EAF4E"/><path d="M204-195l104-32" stroke-width="3.8" stroke="#D4B4994E"/><path d="M174-243l74-80" stroke-width="3.8" stroke="#FF78784F"/><path d="M199-114l98 49" stroke-width="3.9" stroke="#506D8451"/><path d="M9-225l-90-63" stroke-width="3.9" stroke="#F3D5C051"/><path d="M168-75l67 87" stroke-width="3.9" stroke="#CEE5D052"/><path d="M159-256l60-93" stroke-width="3.9" stroke="#506D8452"/><path d="M-10-149l-110 14" stroke-width="3.9" stroke="#CEE5D052"/><path d="M61-58l-40 105" stroke-width="4.1" stroke="#889EAF56"/><path d="M35-71l-66 92" stroke-width="4.2" stroke="#FF787859"/><path d="M60-57l-39 106" stroke-width="4.2" stroke="#FF78785A"/><path d="M129-53l28 110" stroke-width="4.2" stroke="#889EAF5B"/><path d="M8-229l-93-67" stroke-width="4.3" stroke="#889EAF5E"/><path d="M211-136l112 27" stroke-width="4.4" stroke="#D4B4995F"/><path d="M74-274l-27-112" stroke-width="4.5" stroke="#889EAF61"/><path d="M197-102l98 61" stroke-width="4.5" stroke="#FF777762"/><path d="M172-73l73 89" stroke-width="4.5" stroke="#D4B49963"/><path d="M187-87l87 76" stroke-width="4.5" stroke="#FF787863"/><path d="M210-198l110-36" stroke-width="4.6" stroke="#F3D5C064"/><path d="M200-104l100 59" stroke-width="4.6" stroke="#F3D5C067"/><path d="M11-237l-88-75" stroke-width="4.7" stroke="#D4B49967"/><path d="M153-59l54 103" stroke-width="4.7" stroke="#D4B49967"/><path d="M-4-214l-105-51" stroke-width="4.7" stroke="#FF787868"/><path d="M69-275l-32-112" stroke-width="4.8" stroke="#FF78786B"/><path d="M171-70l71 93" stroke-width="4.8" stroke="#889EAF6C"/><path d="M90-46l-10 117" stroke-width="4.9" stroke="#FF77776E"/><path d="M185-243l85-81" stroke-width="4.9" stroke="#889EAF6F"/><path d="M65-50l-35 112" stroke-width="5.0" stroke="#D4B49972"/><path d="M72-277l-29-114" stroke-width="5.0" stroke="#FF787872"/><path d="M12-85l-89 78" stroke-width="5.1" stroke="#D4B49973"/><path d="M41-264l-59-102" stroke-width="5.1" stroke="#FF777775"/><path d="M217-148l117 14" stroke-width="5.2" stroke="#CEE5D076"/><path d="M-18-165l-118-2" stroke-width="5.3" stroke="#FF777778"/><path d="M118-279l18-117" stroke-width="5.3" stroke="#889EAF79"/><path d="M194-234l94-71" stroke-width="5.3" stroke="#FF77777A"/><path d="M91-45l-10 118" stroke-width="5.4" stroke="#506D847C"/><path d="M197-96l98 67" stroke-width="5.5" stroke="#F3D5C07E"/><path d="M218-153l118 9" stroke-width="5.5" stroke="#CEE5D07E"/><path d="M-5-217l-104-55" stroke-width="5.5" stroke="#D4B4997F"/><path d="M181-77l81 86" stroke-width="5.6" stroke="#889EAF82"/><path d="M217-145l116 17" stroke-width="5.7" stroke="#FF787886"/><path d="M-18-156l-117 7" stroke-width="5.8" stroke="#FF787886"/><path d="M22-251l-77-89" stroke-width="5.8" stroke="#CEE5D087"/><path d="M215-138l115 24" stroke-width="5.9" stroke="#FF78788A"/><path d="M185-81l84 81" stroke-width="6.1" stroke="#889EAF8F"/><path d="M11-87l-89 76" stroke-width="6.1" stroke="#D4B49990"/><path d="M197-229l96-66" stroke-width="6.1" stroke="#F3D5C090"/><path d="M-17-163l-117-1" stroke-width="6.2" stroke="#CEE5D092"/><path d="M196-229l96-66" stroke-width="6.2" stroke="#FF777793"/><path d="M155-60l54 103" stroke-width="6.3" stroke="#CEE5D095"/><path d="M103-279l3-116" stroke-width="6.3" stroke="#889EAF97"/><path d="M171-254l72-91" stroke-width="6.4" stroke="#506D8498"/><path d="M-15-171l-115-8" stroke-width="6.5" stroke="#CEE5D09A"/><path d="M4-226l-95-63" stroke-width="6.6" stroke="#506D849E"/><path d="M86-276l-15-113" stroke-width="6.6" stroke="#889EAF9F"/><path d="M-11-135l-110 27" stroke-width="6.7" stroke="#506D84A1"/><path d="M142-268l42-106" stroke-width="6.7" stroke="#506D84A2"/><path d="M-13-153l-113 9" stroke-width="6.7" stroke="#FF7878A2"/><path d="M41-65l-58 97" stroke-width="6.7" stroke="#506D84A2"/><path d="M12-94l-89 68" stroke-width="7.0" stroke="#889EAFA8"/><path d="M91-51l-9 111" stroke-width="7.0" stroke="#506D84A8"/><path d="M209-181l110-18" stroke-width="7.0" stroke="#CEE5D0AB"/><path d="M15-91l-84 72" stroke-width="7.1" stroke="#889EAFAB"/><path d="M85-272l-14-110" stroke-width="7.1" stroke="#889EAFAC"/><path d="M126-55l26 107" stroke-width="7.1" stroke="#506D84AD"/><path d="M-10-173l-109-11" stroke-width="7.1" stroke="#FF7878AD"/><path d="M207-187l108-25" stroke-width="7.1" stroke="#506D84AD"/><path d="M3-113l-97 49" stroke-width="7.3" stroke="#CEE5D0B1"/><path d="M49-67l-52 96" stroke-width="7.3" stroke="#889EAFB1"/><path d="M99-271l-1-109" stroke-width="7.3" stroke="#889EAFB1"/><path d="M54-260l-47-98" stroke-width="7.3" stroke="#F3D5C0B2"/><path d="M153-69l54 94" stroke-width="7.3" stroke="#506D84B3"/><path d="M20-235l-80-72" stroke-width="7.3" stroke="#889EAFB3"/><path d="M191-220l91-57" stroke-width="7.4" stroke="#D4B499B4"/><path d="M13-223l-88-61" stroke-width="7.5" stroke="#FF7777B6"/><path d="M192-109l91 54" stroke-width="7.5" stroke="#D4B499B7"/><path d="M177-91l77 72" stroke-width="7.5" stroke="#506D84B9"/><path d="M150-255l50-93" stroke-width="7.5" stroke="#F3D5C0B9"/><path d="M2-202l-97-39" stroke-width="7.5" stroke="#889EAFB9"/><path d="M149-255l50-92" stroke-width="7.6" stroke="#506D84BA"/><path d="M78-61l-23 102" stroke-width="7.6" stroke="#506D84BB"/><path d="M-4-162l-104 0" stroke-width="7.6" stroke="#FF7878BB"/><path d="M84-60l-16 102" stroke-width="7.7" stroke="#506D84BC"/><path d="M121-61l21 101" stroke-width="7.7" stroke="#FF7878BD"/><path d="M93-60l-7 103" stroke-width="7.7" stroke="#889EAFBD"/><path d="M158-78l59 85" stroke-width="7.7" stroke="#FF7878BE"/><path d="M192-206l91-44" stroke-width="7.8" stroke="#FF7878C0"/><path d="M86-262l-15-100" stroke-width="7.8" stroke="#506D84C2"/><path d="M129-67l29 96" stroke-width="7.9" stroke="#F3D5C0C3"/><path d="M200-163l100 0" stroke-width="7.9" stroke="#FF7878C3"/><path d="M199-153l99 9" stroke-width="7.9" stroke="#506D84C4"/><path d="M130-69l30 94" stroke-width="8.0" stroke="#D4B499C6"/><path d="M104-261l4-98" stroke-width="8.0" stroke="#CEE5D0C6"/><path d="M32-98l-68 64" stroke-width="8.2" stroke="#FF7878CD"/><path d="M7-161l-94 2" stroke-width="8.3" stroke="#CEE5D0CD"/><path d="M163-231l64-68" stroke-width="8.3" stroke="#CEE5D0CD"/><path d="M34-226l-67-63" stroke-width="8.3" stroke="#506D84CF"/><path d="M92-253l-8-90" stroke-width="8.4" stroke="#FF7777D1"/><path d="M15-178l-85-15" stroke-width="8.6" stroke="#FF7777D6"/><path d="M33-109l-68 54" stroke-width="8.6" stroke="#F3D5C0D6"/><path d="M134-85l34 77" stroke-width="8.7" stroke="#506D84D8"/><path d="M182-166l83-3" stroke-width="8.7" stroke="#F3D5C0DA"/><path d="M73-85l-26 77" stroke-width="8.7" stroke="#D4B499DB"/><path d="M71-86l-29 76" stroke-width="8.8" stroke="#506D84DB"/><path d="M116-88l16 75" stroke-width="8.9" stroke="#889EAFE0"/><path d="M156-112l55 50" stroke-width="9.0" stroke="#FF7777E1"/><path d="M152-211l53-48" stroke-width="9.1" stroke="#F3D5C0E5"/><path d="M144-107l44 55" stroke-width="9.1" stroke="#FF7878E5"/><path d="M128-98l28 64" stroke-width="9.1" stroke="#FF7777E5"/><path d="M155-204l54-41" stroke-width="9.2" stroke="#FF7878E7"/><path d="M44-126l-56 37" stroke-width="9.2" stroke="#D4B499E8"/><path d="M49-120l-51 43" stroke-width="9.2" stroke="#506D84E8"/><path d="M161-190l61-27" stroke-width="9.2" stroke="#FF7777E8"/><path d="M138-213l38-51" stroke-width="9.3" stroke="#F3D5C0EB"/><path d="M122-214l21-51" stroke-width="9.5" stroke="#FF7777EF"/><path d="M110-213l10-51" stroke-width="9.5" stroke="#506D84F2"/><path d="M128-203l28-40" stroke-width="9.6" stroke="#FF7777F3"/><path d="M131-199l32-36" stroke-width="9.6" stroke="#889EAFF4"/><path d="M94-121l-7 42" stroke-width="9.7" stroke="#506D84F6"/><path d="M91-201l-9-39" stroke-width="9.7" stroke="#889EAFF7"/><path d="M135-157l34 6" stroke-width="9.8" stroke="#CEE5D0F9"/><path d="M80-164l-19-1" stroke-width="9.9" stroke="#CEE5D0FD"/><path d="M108-155l9 8" stroke-width="10.0" stroke="#889EAFFE"/></g></svg>