<svg width="1200" height="675" viewBox="-500 -500 1200 675" xmlns="http://www.w3.org/2000/svg"><path d="M-500-500h1200v675h-1200z" fill="#000"/><style>.sparkles path{stroke-linecap:round}</style><g class="sparkles"><path d="M100-158l-1 5" stroke-width="1.0" stroke="#005bbb0"/><path d="M108-159l9 3" stroke-width="1.0" stroke="#fff0"/><path d="M87-165l-14-2" stroke-width="1.0" stroke="#fff0"/><path d="M87-169l-12-6" stroke-width="1.0" stroke="#c2e1ff0"/><path d="M117-158l18 5" stroke-width="1.1" stroke="#fff1"/><path d="M99-138l-1 25" stroke-width="1.1" stroke="#c2e1ff2"/><path d="M70-157l-29 6" stroke-width="1.1" stroke="#c2e1ff4"/><path d="M80-137l-20 25" stroke-width="1.2" stroke="#fff4"/><path d="M107-123l7 40" stroke-width="1.3" stroke="#c2e1ff7"/><path d="M143-162l44 1" stroke-width="1.3" stroke="#fff8"/><path d="M55-171l-45-8" stroke-width="1.4" stroke="#005bbb9"/><path d="M55-136l-45 26" stroke-width="1.5" stroke="#fffD"/><path d="M121-114l20 49" stroke-width="1.5" stroke="#c2e1ffD"/><path d="M127-209l27-46" stroke-width="1.5" stroke="#005bbbD"/><path d="M148-195l48-32" stroke-width="1.6" stroke="#fff50010"/><path d="M45-140l-56 22" stroke-width="1.6" stroke="#005bbb11"/><path d="M77-107l-23 55" stroke-width="1.6" stroke="#c2e1ff11"/><path d="M45-195l-55-33" stroke-width="1.7" stroke="#c2e1ff14"/><path d="M161-186l61-23" stroke-width="1.8" stroke="#fff50015"/><path d="M32-157l-69 5" stroke-width="1.8" stroke="#fff50017"/><path d="M44-121l-56 41" stroke-width="1.9" stroke="#c2e1ff18"/><path d="M144-217l45-54" stroke-width="1.9" stroke="#c2e1ff18"/><path d="M32-137l-68 26" stroke-width="2.0" stroke="#fff1B"/><path d="M60-224l-40-62" stroke-width="2.0" stroke="#fff1B"/><path d="M166-128l66 35" stroke-width="2.0" stroke="#fff1C"/><path d="M176-140l76 22" stroke-width="2.2" stroke="#005bbb20"/><path d="M39-107l-61 55" stroke-width="2.3" stroke="#fff50024"/><path d="M143-92l43 71" stroke-width="2.3" stroke="#c2e1ff24"/><path d="M48-95l-53 68" stroke-width="2.4" stroke="#c2e1ff27"/><path d="M163-102l63 60" stroke-width="2.5" stroke="#c2e1ff29"/><path d="M181-129l81 34" stroke-width="2.5" stroke="#fff5002A"/><path d="M139-84l40 79" stroke-width="2.5" stroke="#fff5002A"/><path d="M184-132l85 31" stroke-width="2.6" stroke="#fff5002C"/><path d="M190-156l90 6" stroke-width="2.6" stroke="#005bbb2D"/><path d="M23-109l-78 53" stroke-width="2.8" stroke="#c2e1ff32"/><path d="M6-158l-94 5" stroke-width="2.8" stroke="#c2e1ff32"/><path d="M177-216l77-54" stroke-width="2.8" stroke="#c2e1ff32"/><path d="M16-118l-84 45" stroke-width="2.8" stroke="#fff50034"/><path d="M148-245l48-82" stroke-width="2.8" stroke="#fff50034"/><path d="M74-257l-26-94" stroke-width="3.0" stroke="#c2e1ff38"/><path d="M65-70l-35 93" stroke-width="3.1" stroke="#fff5003A"/><path d="M1-150l-100 13" stroke-width="3.1" stroke="#c2e1ff3B"/><path d="M-1-169l-101-6" stroke-width="3.2" stroke="#005bbb3D"/><path d="M198-133l98 30" stroke-width="3.3" stroke="#c2e1ff3F"/><path d="M35-244l-64-81" stroke-width="3.3" stroke="#005bbb42"/><path d="M173-236l74-73" stroke-width="3.3" stroke="#fff42"/><path d="M9-216l-91-54" stroke-width="3.5" stroke="#fff46"/><path d="M185-225l86-62" stroke-width="3.5" stroke="#fff46"/><path d="M182-95l82 68" stroke-width="3.5" stroke="#fff50047"/><path d="M99-269l-1-106" stroke-width="3.5" stroke="#fff50048"/><path d="M63-262l-37-100" stroke-width="3.6" stroke="#c2e1ff48"/><path d="M206-154l107 8" stroke-width="3.6" stroke="#c2e1ff48"/><path d="M206-153l107 10" stroke-width="3.6" stroke="#fff50048"/><path d="M208-151l107 11" stroke-width="3.7" stroke="#c2e1ff4C"/><path d="M146-263l46-100" stroke-width="3.9" stroke="#c2e1ff51"/><path d="M209-145l109 18" stroke-width="3.9" stroke="#005bbb52"/><path d="M-10-152l-110 10" stroke-width="3.9" stroke="#fff52"/><path d="M193-102l92 60" stroke-width="3.9" stroke="#005bbb52"/><path d="M25-79l-75 83" stroke-width="4.1" stroke="#fff50057"/><path d="M170-250l69-88" stroke-width="4.1" stroke="#005bbb57"/><path d="M54-265l-47-103" stroke-width="4.1" stroke="#005bbb58"/><path d="M140-268l39-106" stroke-width="4.2" stroke="#fff5005A"/><path d="M206-202l107-39" stroke-width="4.2" stroke="#c2e1ff5B"/><path d="M-13-178l-113-15" stroke-width="4.3" stroke="#fff5005E"/><path d="M71-52l-30 110" stroke-width="4.3" stroke="#005bbb5E"/><path d="M185-86l85 76" stroke-width="4.3" stroke="#005bbb5E"/><path d="M-8-200l-108-37" stroke-width="4.3" stroke="#005bbb5E"/><path d="M29-72l-70 90" stroke-width="4.4" stroke="#fff5005F"/><path d="M4-225l-96-63" stroke-width="4.4" stroke="#005bbb60"/><path d="M3-101l-97 61" stroke-width="4.4" stroke="#fff61"/><path d="M53-268l-46-106" stroke-width="4.5" stroke="#005bbb64"/><path d="M211-194l111-32" stroke-width="4.5" stroke="#fff64"/><path d="M-3-215l-102-53" stroke-width="4.6" stroke="#fff65"/><path d="M216-158l116 4" stroke-width="4.6" stroke="#005bbb66"/><path d="M-14-138l-114 24" stroke-width="4.7" stroke="#c2e1ff69"/><path d="M137-52l36 110" stroke-width="4.7" stroke="#005bbb69"/><path d="M56-54l-44 108" stroke-width="4.9" stroke="#fff6D"/><path d="M-16-149l-117 13" stroke-width="4.9" stroke="#005bbb6E"/><path d="M117-279l17-116" stroke-width="5.0" stroke="#c2e1ff70"/><path d="M165-65l64 98" stroke-width="5.0" stroke="#005bbb70"/><path d="M179-250l79-87" stroke-width="5.0" stroke="#fff72"/><path d="M49-269l-52-106" stroke-width="5.2" stroke="#005bbb77"/><path d="M-2-222l-102-59" stroke-width="5.3" stroke="#c2e1ff79"/><path d="M-13-128l-113 34" stroke-width="5.3" stroke="#005bbb79"/><path d="M-13-195l-114-33" stroke-width="5.4" stroke="#005bbb7D"/><path d="M214-132l114 30" stroke-width="5.5" stroke="#fff80"/><path d="M106-45l7 118" stroke-width="5.6" stroke="#c2e1ff82"/><path d="M-15-134l-114 29" stroke-width="5.6" stroke="#c2e1ff82"/><path d="M119-46l20 116" stroke-width="5.6" stroke="#fff50082"/><path d="M210-120l110 43" stroke-width="5.6" stroke="#fff83"/><path d="M217-144l116 19" stroke-width="5.7" stroke="#fff50084"/><path d="M201-223l101-61" stroke-width="5.7" stroke="#c2e1ff84"/><path d="M184-80l85 82" stroke-width="5.8" stroke="#fff50087"/><path d="M7-234l-94-72" stroke-width="5.8" stroke="#c2e1ff87"/><path d="M100-280l-1-118" stroke-width="5.8" stroke="#fff88"/><path d="M7-235l-92-73" stroke-width="5.9" stroke="#fff5008A"/><path d="M-17-154l-117 8" stroke-width="6.0" stroke="#fff5008C"/><path d="M29-256l-71-94" stroke-width="6.0" stroke="#005bbb8D"/><path d="M170-68l69 94" stroke-width="6.1" stroke="#fff50090"/><path d="M16-82l-84 81" stroke-width="6.2" stroke="#c2e1ff93"/><path d="M-9-122l-110 41" stroke-width="6.2" stroke="#c2e1ff94"/><path d="M163-65l64 98" stroke-width="6.2" stroke="#fff50094"/><path d="M-5-113l-106 50" stroke-width="6.2" stroke="#fff50094"/><path d="M212-196l111-33" stroke-width="6.3" stroke="#fff50095"/><path d="M-4-110l-103 53" stroke-width="6.3" stroke="#fff96"/><path d="M1-101l-98 62" stroke-width="6.3" stroke="#fff50096"/><path d="M11-88l-89 74" stroke-width="6.3" stroke="#fff97"/><path d="M45-264l-56-102" stroke-width="6.4" stroke="#fff50099"/><path d="M64-54l-35 109" stroke-width="6.6" stroke="#c2e1ff9E"/><path d="M213-147l114 15" stroke-width="6.6" stroke="#fff9E"/><path d="M132-272l32-110" stroke-width="6.7" stroke="#c2e1ffA0"/><path d="M197-222l97-59" stroke-width="6.7" stroke="#c2e1ffA1"/><path d="M-13-148l-112 14" stroke-width="6.8" stroke="#fff500A3"/><path d="M7-98l-94 64" stroke-width="6.8" stroke="#fff500A3"/><path d="M36-256l-63-93" stroke-width="6.8" stroke="#c2e1ffA4"/><path d="M92-275l-9-113" stroke-width="6.8" stroke="#c2e1ffA4"/><path d="M165-255l65-92" stroke-width="6.9" stroke="#005bbbA5"/><path d="M187-91l87 71" stroke-width="6.9" stroke="#fff500A5"/><path d="M211-181l111-18" stroke-width="6.9" stroke="#c2e1ffA6"/><path d="M11-95l-88 67" stroke-width="7.0" stroke="#c2e1ffAA"/><path d="M208-188l108-25" stroke-width="7.1" stroke="#fffAB"/><path d="M4-110l-96 53" stroke-width="7.2" stroke="#005bbbAE"/><path d="M205-193l105-31" stroke-width="7.2" stroke="#c2e1ffAF"/><path d="M209-165l109-3" stroke-width="7.2" stroke="#c2e1ffB0"/><path d="M119-269l18-107" stroke-width="7.3" stroke="#005bbbB2"/><path d="M-6-146l-106 17" stroke-width="7.4" stroke="#fff500B5"/><path d="M178-90l77 73" stroke-width="7.5" stroke="#fffB7"/><path d="M65-262l-34-99" stroke-width="7.6" stroke="#c2e1ffBA"/><path d="M166-241l65-79" stroke-width="7.7" stroke="#fff500BE"/><path d="M200-179l99-17" stroke-width="7.8" stroke="#fff500C1"/><path d="M201-162l101 0" stroke-width="7.8" stroke="#fffC1"/><path d="M29-92l-72 71" stroke-width="7.9" stroke="#c2e1ffC2"/><path d="M180-104l80 58" stroke-width="8.0" stroke="#fffC4"/><path d="M143-74l43 89" stroke-width="8.0" stroke="#fff500C5"/><path d="M16-117l-83 46" stroke-width="8.2" stroke="#c2e1ffCA"/><path d="M18-114l-82 48" stroke-width="8.2" stroke="#c2e1ffCA"/><path d="M143-246l44-83" stroke-width="8.2" stroke="#fff500CC"/><path d="M159-236l58-73" stroke-width="8.2" stroke="#fff500CC"/><path d="M29-224l-70-62" stroke-width="8.2" stroke="#c2e1ffCC"/><path d="M8-177l-91-14" stroke-width="8.3" stroke="#c2e1ffCE"/><path d="M102-253l3-90" stroke-width="8.4" stroke="#fff500D1"/><path d="M121-247l20-84" stroke-width="8.5" stroke="#fffD5"/><path d="M178-124l78 39" stroke-width="8.5" stroke="#c2e1ffD5"/><path d="M16-184l-84-21" stroke-width="8.6" stroke="#005bbbD6"/><path d="M145-90l45 73" stroke-width="8.6" stroke="#fffD7"/><path d="M33-215l-67-53" stroke-width="8.6" stroke="#fffD7"/><path d="M86-79l-14 84" stroke-width="8.6" stroke="#005bbbD8"/><path d="M170-121l70 42" stroke-width="8.8" stroke="#fffDB"/><path d="M105-84l5 78" stroke-width="8.9" stroke="#c2e1ffDE"/><path d="M135-97l35 66" stroke-width="9.0" stroke="#fffE2"/><path d="M169-136l69 27" stroke-width="9.0" stroke="#fff500E2"/><path d="M169-138l70 24" stroke-width="9.0" stroke="#fffE3"/><path d="M27-165l-74-3" stroke-width="9.0" stroke="#fff500E3"/><path d="M146-219l47-56" stroke-width="9.0" stroke="#fff500E3"/><path d="M28-156l-73 7" stroke-width="9.0" stroke="#fffE3"/><path d="M167-134l66 28" stroke-width="9.1" stroke="#fffE4"/><path d="M72-228l-29-65" stroke-width="9.1" stroke="#c2e1ffE5"/><path d="M32-143l-67 19" stroke-width="9.1" stroke="#fff500E5"/><path d="M31-158l-69 4" stroke-width="9.1" stroke="#c2e1ffE6"/><path d="M148-118l49 44" stroke-width="9.2" stroke="#005bbbE9"/><path d="M72-104l-27 59" stroke-width="9.3" stroke="#fff500E9"/><path d="M160-142l61 21" stroke-width="9.3" stroke="#fffEA"/><path d="M89-225l-12-62" stroke-width="9.3" stroke="#fff500EB"/><path d="M42-145l-58 18" stroke-width="9.4" stroke="#c2e1ffEC"/><path d="M41-172l-59-9" stroke-width="9.4" stroke="#005bbbED"/><path d="M147-188l47-25" stroke-width="9.5" stroke="#fff500F1"/><path d="M68-119l-31 43" stroke-width="9.5" stroke="#fff500F1"/><path d="M114-111l14 52" stroke-width="9.5" stroke="#fff500F1"/><path d="M49-172l-52-10" stroke-width="9.5" stroke="#fff500F1"/><path d="M52-151l-48 12" stroke-width="9.6" stroke="#c2e1ffF3"/><path d="M83-203l-18-40" stroke-width="9.7" stroke="#005bbbF5"/><path d="M58-165l-43-3" stroke-width="9.7" stroke="#c2e1ffF6"/><path d="M81-127l-19 35" stroke-width="9.7" stroke="#fff500F7"/><path d="M80-135l-21 27" stroke-width="9.8" stroke="#c2e1ffF9"/><path d="M83-133l-16 29" stroke-width="9.8" stroke="#005bbbF9"/><path d="M132-169l32-7" stroke-width="9.8" stroke="#fffF9"/><path d="M120-148l20 14" stroke-width="9.9" stroke="#c2e1ffFC"/><path d="M76-165l-24-3" stroke-width="9.9" stroke="#fffFC"/><path d="M110-180l11-17" stroke-width="9.9" stroke="#fffFD"/><path d="M111-165l10-2" stroke-width="10.0" stroke="#005bbbFE"/><path d="M93-165l-8-2" stroke-width="10.0" stroke="#c2e1ffFE"/></g></svg>