<svg width="1200" height="675" viewBox="-500 -500 1200 675" xmlns="http://www.w3.org/2000/svg"><path d="M-500-500h1200v675h-1200z" fill="#000"/><style>.sparkles path{stroke-linecap:round}</style><g class="sparkles"><path d="M121-162l21 1" stroke-width="1.1" stroke="#c2e1ff1"/><path d="M116-176l17-14" stroke-width="1.1" stroke="#c2e1ff2"/><path d="M118-144l17 19" stroke-width="1.1" stroke="#005bbb3"/><path d="M71-155l-28 8" stroke-width="1.1" stroke="#fff5004"/><path d="M75-135l-25 28" stroke-width="1.2" stroke="#005bbb6"/><path d="M85-127l-14 36" stroke-width="1.2" stroke="#fff6"/><path d="M145-156l45 6" stroke-width="1.3" stroke="#fff5009"/><path d="M122-118l21 44" stroke-width="1.4" stroke="#fffB"/><path d="M148-144l48 18" stroke-width="1.4" stroke="#c2e1ffC"/><path d="M143-194l43-31" stroke-width="1.5" stroke="#c2e1ffD"/><path d="M130-115l29 47" stroke-width="1.5" stroke="#fffF"/><path d="M50-188l-50-25" stroke-width="1.5" stroke="#005bbbF"/><path d="M149-197l48-34" stroke-width="1.6" stroke="#fff11"/><path d="M163-150l64 12" stroke-width="1.7" stroke="#005bbb14"/><path d="M131-103l30 60" stroke-width="1.8" stroke="#005bbb16"/><path d="M147-111l47 52" stroke-width="1.9" stroke="#c2e1ff18"/><path d="M30-158l-70 5" stroke-width="1.9" stroke="#fff19"/><path d="M143-219l42-56" stroke-width="1.9" stroke="#c2e1ff19"/><path d="M25-172l-76-10" stroke-width="2.1" stroke="#005bbb1D"/><path d="M179-169l79-7" stroke-width="2.2" stroke="#c2e1ff20"/><path d="M51-99l-49 64" stroke-width="2.2" stroke="#005bbb22"/><path d="M144-95l45 68" stroke-width="2.2" stroke="#fff22"/><path d="M21-182l-79-20" stroke-width="2.2" stroke="#fff50023"/><path d="M18-164l-82-1" stroke-width="2.3" stroke="#fff23"/><path d="M184-157l84 5" stroke-width="2.3" stroke="#c2e1ff25"/><path d="M59-87l-40 76" stroke-width="2.4" stroke="#fff50027"/><path d="M179-128l78 35" stroke-width="2.4" stroke="#fff50027"/><path d="M185-145l85 18" stroke-width="2.5" stroke="#fff29"/><path d="M180-125l80 37" stroke-width="2.5" stroke="#c2e1ff2A"/><path d="M171-109l72 54" stroke-width="2.6" stroke="#005bbb2C"/><path d="M136-247l35-85" stroke-width="2.7" stroke="#c2e1ff2F"/><path d="M9-146l-91 17" stroke-width="2.7" stroke="#fff5002F"/><path d="M85-254l-15-92" stroke-width="2.7" stroke="#fff50031"/><path d="M13-128l-87 35" stroke-width="2.8" stroke="#fff50031"/><path d="M100-256l-1-94" stroke-width="2.8" stroke="#005bbb32"/><path d="M159-89l59 74" stroke-width="2.8" stroke="#005bbb32"/><path d="M152-242l52-79" stroke-width="2.8" stroke="#c2e1ff33"/><path d="M195-167l95-4" stroke-width="2.8" stroke="#fff50033"/><path d="M182-114l82 49" stroke-width="2.8" stroke="#fff33"/><path d="M84-257l-16-95" stroke-width="2.9" stroke="#005bbb35"/><path d="M165-92l65 71" stroke-width="2.9" stroke="#c2e1ff35"/><path d="M77-256l-22-94" stroke-width="2.9" stroke="#fff36"/><path d="M119-258l19-96" stroke-width="3.0" stroke="#fff37"/><path d="M156-80l55 82" stroke-width="3.1" stroke="#c2e1ff3A"/><path d="M179-102l79 61" stroke-width="3.1" stroke="#fff3A"/><path d="M47-78l-53 85" stroke-width="3.1" stroke="#fff3B"/><path d="M15-217l-85-55" stroke-width="3.2" stroke="#fff5003D"/><path d="M155-248l55-85" stroke-width="3.2" stroke="#fff5003D"/><path d="M81-62l-18 101" stroke-width="3.3" stroke="#fff50040"/><path d="M194-204l95-41" stroke-width="3.3" stroke="#c2e1ff41"/><path d="M104-59l5 104" stroke-width="3.4" stroke="#fff50043"/><path d="M124-61l24 102" stroke-width="3.4" stroke="#fff50044"/><path d="M182-96l83 67" stroke-width="3.5" stroke="#fff50047"/><path d="M207-174l108-11" stroke-width="3.7" stroke="#c2e1ff4B"/><path d="M165-249l66-86" stroke-width="3.7" stroke="#fff5004C"/><path d="M82-55l-18 107" stroke-width="3.7" stroke="#c2e1ff4D"/><path d="M173-243l73-81" stroke-width="3.8" stroke="#c2e1ff4E"/><path d="M-9-150l-110 12" stroke-width="3.9" stroke="#fff50051"/><path d="M20-238l-80-76" stroke-width="3.9" stroke="#005bbb51"/><path d="M208-137l108 25" stroke-width="3.9" stroke="#fff50053"/><path d="M-2-117l-101 46" stroke-width="4.0" stroke="#fff55"/><path d="M12-232l-87-70" stroke-width="4.1" stroke="#fff56"/><path d="M193-225l93-62" stroke-width="4.1" stroke="#c2e1ff56"/><path d="M112-274l12-111" stroke-width="4.1" stroke="#fff57"/><path d="M95-275l-5-113" stroke-width="4.2" stroke="#c2e1ff5A"/><path d="M63-55l-36 108" stroke-width="4.3" stroke="#fff5C"/><path d="M149-59l49 103" stroke-width="4.4" stroke="#c2e1ff5F"/><path d="M6-97l-93 66" stroke-width="4.4" stroke="#005bbb5F"/><path d="M216-168l115-5" stroke-width="4.6" stroke="#fff65"/><path d="M215-172l115-10" stroke-width="4.6" stroke="#fff65"/><path d="M145-269l45-107" stroke-width="4.6" stroke="#fff50065"/><path d="M175-251l75-88" stroke-width="4.6" stroke="#fff66"/><path d="M49-267l-52-104" stroke-width="4.7" stroke="#fff50068"/><path d="M42-263l-59-100" stroke-width="4.7" stroke="#005bbb68"/><path d="M108-279l8-116" stroke-width="4.7" stroke="#c2e1ff6A"/><path d="M42-61l-58 101" stroke-width="4.8" stroke="#005bbb6B"/><path d="M-9-204l-109-41" stroke-width="4.8" stroke="#005bbb6B"/><path d="M35-66l-65 97" stroke-width="4.8" stroke="#fff6B"/><path d="M213-192l113-29" stroke-width="4.8" stroke="#fff5006C"/><path d="M10-237l-90-75" stroke-width="4.9" stroke="#fff6F"/><path d="M-17-176l-116-13" stroke-width="5.0" stroke="#c2e1ff70"/><path d="M216-142l116 21" stroke-width="5.2" stroke="#c2e1ff76"/><path d="M202-222l102-59" stroke-width="5.3" stroke="#005bbb79"/><path d="M-12-200l-112-37" stroke-width="5.3" stroke="#fff50079"/><path d="M206-215l106-52" stroke-width="5.3" stroke="#c2e1ff7A"/><path d="M80-46l-19 116" stroke-width="5.5" stroke="#c2e1ff7F"/><path d="M169-258l70-96" stroke-width="5.7" stroke="#fff50085"/><path d="M150-56l50 107" stroke-width="5.8" stroke="#fff50086"/><path d="M217-153l118 10" stroke-width="5.9" stroke="#c2e1ff8A"/><path d="M-16-143l-116 19" stroke-width="5.9" stroke="#fff5008B"/><path d="M-14-191l-114-28" stroke-width="5.9" stroke="#005bbb8C"/><path d="M11-86l-90 76" stroke-width="5.9" stroke="#fff5008C"/><path d="M37-63l-63 99" stroke-width="5.9" stroke="#fff8C"/><path d="M121-47l21 116" stroke-width="6.0" stroke="#c2e1ff8C"/><path d="M-15-140l-115 23" stroke-width="6.0" stroke="#c2e1ff8C"/><path d="M124-48l25 115" stroke-width="6.0" stroke="#c2e1ff8D"/><path d="M99-280l-1-117" stroke-width="6.1" stroke="#005bbb90"/><path d="M201-220l102-57" stroke-width="6.3" stroke="#fff94"/><path d="M96-279l-5-116" stroke-width="6.3" stroke="#fff50095"/><path d="M-13-188l-114-26" stroke-width="6.3" stroke="#fff95"/><path d="M213-135l112 28" stroke-width="6.4" stroke="#fff97"/><path d="M205-115l105 47" stroke-width="6.5" stroke="#fff5009B"/><path d="M-11-131l-111 32" stroke-width="6.5" stroke="#005bbb9B"/><path d="M58-56l-43 107" stroke-width="6.6" stroke="#fff5009D"/><path d="M20-244l-80-82" stroke-width="6.7" stroke="#fff500A0"/><path d="M205-118l105 45" stroke-width="6.7" stroke="#c2e1ffA0"/><path d="M139-56l39 107" stroke-width="6.7" stroke="#fff500A2"/><path d="M193-226l94-64" stroke-width="6.8" stroke="#fffA4"/><path d="M160-67l60 96" stroke-width="6.8" stroke="#fffA5"/><path d="M-12-154l-113 8" stroke-width="6.9" stroke="#005bbbA5"/><path d="M191-227l91-65" stroke-width="7.0" stroke="#c2e1ffA9"/><path d="M209-140l109 23" stroke-width="7.0" stroke="#fffA9"/><path d="M146-63l47 100" stroke-width="7.2" stroke="#fff500AE"/><path d="M196-216l96-53" stroke-width="7.2" stroke="#005bbbAE"/><path d="M-7-141l-107 21" stroke-width="7.2" stroke="#005bbbB0"/><path d="M187-97l87 66" stroke-width="7.2" stroke="#005bbbB0"/><path d="M81-269l-19-107" stroke-width="7.3" stroke="#005bbbB1"/><path d="M88-55l-13 108" stroke-width="7.3" stroke="#fff500B1"/><path d="M44-254l-57-92" stroke-width="7.3" stroke="#c2e1ffB3"/><path d="M23-238l-76-76" stroke-width="7.3" stroke="#005bbbB3"/><path d="M65-60l-34 102" stroke-width="7.3" stroke="#fffB3"/><path d="M67-264l-33-101" stroke-width="7.4" stroke="#fffB6"/><path d="M174-239l73-76" stroke-width="7.5" stroke="#fffB7"/><path d="M9-213l-91-50" stroke-width="7.6" stroke="#fff500BB"/><path d="M2-196l-98-33" stroke-width="7.7" stroke="#fffBD"/><path d="M143-256l43-93" stroke-width="7.7" stroke="#fff500BF"/><path d="M-1-150l-102 13" stroke-width="7.8" stroke="#fffBF"/><path d="M3-132l-97 31" stroke-width="7.8" stroke="#fff500BF"/><path d="M60-256l-40-93" stroke-width="7.8" stroke="#c2e1ffC0"/><path d="M88-62l-13 101" stroke-width="7.8" stroke="#005bbbC1"/><path d="M201-162l100 0" stroke-width="7.9" stroke="#fff500C2"/><path d="M21-100l-78 62" stroke-width="7.9" stroke="#005bbbC2"/><path d="M38-84l-61 79" stroke-width="7.9" stroke="#c2e1ffC3"/><path d="M199-146l98 17" stroke-width="7.9" stroke="#005bbbC3"/><path d="M191-121l91 41" stroke-width="7.9" stroke="#c2e1ffC3"/><path d="M83-64l-16 98" stroke-width="7.9" stroke="#fff500C3"/><path d="M82-66l-19 96" stroke-width="8.0" stroke="#fffC6"/><path d="M198-166l98-4" stroke-width="8.0" stroke="#c2e1ffC6"/><path d="M32-231l-67-69" stroke-width="8.1" stroke="#fff500C9"/><path d="M47-82l-53 81" stroke-width="8.1" stroke="#c2e1ffC9"/><path d="M10-128l-89 34" stroke-width="8.1" stroke="#fffC9"/><path d="M13-202l-87-39" stroke-width="8.1" stroke="#fffCA"/><path d="M162-91l61 72" stroke-width="8.2" stroke="#fff500CB"/><path d="M48-239l-52-77" stroke-width="8.3" stroke="#005bbbCE"/><path d="M87-72l-13 90" stroke-width="8.4" stroke="#005bbbD0"/><path d="M150-236l51-74" stroke-width="8.5" stroke="#005bbbD3"/><path d="M35-223l-65-61" stroke-width="8.5" stroke="#005bbbD3"/><path d="M12-162l-88 0" stroke-width="8.5" stroke="#fffD4"/><path d="M113-77l14 86" stroke-width="8.6" stroke="#c2e1ffD5"/><path d="M143-90l43 73" stroke-width="8.7" stroke="#fffD8"/><path d="M102-247l2-84" stroke-width="8.7" stroke="#fff500D8"/><path d="M27-203l-72-41" stroke-width="8.7" stroke="#005bbbDA"/><path d="M34-212l-65-49" stroke-width="8.7" stroke="#fff500DB"/><path d="M20-150l-81 12" stroke-width="8.8" stroke="#c2e1ffDB"/><path d="M99-82l-1 81" stroke-width="8.8" stroke="#005bbbDC"/><path d="M109-242l8-79" stroke-width="8.8" stroke="#c2e1ffDD"/><path d="M163-113l62 49" stroke-width="8.8" stroke="#fffDD"/><path d="M138-231l38-68" stroke-width="8.9" stroke="#fff500DF"/><path d="M59-100l-42 62" stroke-width="9.0" stroke="#fffE2"/><path d="M28-146l-72 17" stroke-width="9.0" stroke="#fff500E2"/><path d="M164-129l64 34" stroke-width="9.1" stroke="#c2e1ffE4"/><path d="M141-103l41 59" stroke-width="9.1" stroke="#fff500E4"/><path d="M169-158l70 5" stroke-width="9.1" stroke="#fff500E6"/><path d="M40-130l-60 33" stroke-width="9.2" stroke="#fffE7"/><path d="M111-228l10-65" stroke-width="9.2" stroke="#005bbbE9"/><path d="M166-155l65 7" stroke-width="9.2" stroke="#c2e1ffE9"/><path d="M117-99l16 63" stroke-width="9.3" stroke="#fff500E9"/><path d="M87-224l-14-61" stroke-width="9.3" stroke="#fff500EB"/><path d="M142-117l41 45" stroke-width="9.3" stroke="#005bbbEC"/><path d="M120-219l21-57" stroke-width="9.4" stroke="#fffED"/><path d="M63-208l-37-45" stroke-width="9.4" stroke="#c2e1ffEE"/><path d="M121-116l21 47" stroke-width="9.6" stroke="#fff500F2"/><path d="M102-202l3-40" stroke-width="9.7" stroke="#fff500F7"/><path d="M70-144l-31 19" stroke-width="9.8" stroke="#fffF8"/><path d="M133-173l33-10" stroke-width="9.8" stroke="#fff500F9"/><path d="M82-188l-17-26" stroke-width="9.8" stroke="#005bbbFA"/><path d="M130-170l30-7" stroke-width="9.8" stroke="#c2e1ffFA"/><path d="M73-149l-26 13" stroke-width="9.9" stroke="#005bbbFA"/><path d="M79-160l-22 3" stroke-width="9.9" stroke="#fff500FC"/><path d="M110-180l9-18" stroke-width="9.9" stroke="#c2e1ffFD"/><path d="M86-158l-13 4" stroke-width="10.0" stroke="#c2e1ffFE"/></g></svg>