<svg width="1200" height="675" viewBox="-500 -500 1200 675" xmlns="http://www.w3.org/2000/svg"><path d="M-500-500h1200v675h-1200z" fill="#000"/><style>.sparkles path{stroke-linecap:round}</style><g class="sparkles"><path d="M75-149l-26 14" stroke-width="1.1" stroke="#F3D5C03"/><path d="M80-141l-21 22" stroke-width="1.1" stroke="#FF77774"/><path d="M80-123l-20 39" stroke-width="1.3" stroke="#CEE5D09"/><path d="M70-196l-30-34" stroke-width="1.3" stroke="#FF78789"/><path d="M128-203l28-40" stroke-width="1.4" stroke="#889EAFB"/><path d="M76-117l-24 45" stroke-width="1.4" stroke="#CEE5D0C"/><path d="M93-110l-6 53" stroke-width="1.5" stroke="#F3D5C0D"/><path d="M54-134l-46 28" stroke-width="1.5" stroke="#FF7878E"/><path d="M147-136l47 27" stroke-width="1.5" stroke="#FF7777E"/><path d="M153-144l54 18" stroke-width="1.5" stroke="#506D84F"/><path d="M152-136l52 27" stroke-width="1.6" stroke="#506D8410"/><path d="M84-106l-17 56" stroke-width="1.6" stroke="#D4B49910"/><path d="M76-108l-23 55" stroke-width="1.6" stroke="#FF777711"/><path d="M114-104l14 59" stroke-width="1.6" stroke="#CEE5D012"/><path d="M161-162l61 0" stroke-width="1.7" stroke="#F3D5C012"/><path d="M141-210l40-47" stroke-width="1.7" stroke="#D4B49913"/><path d="M46-120l-54 42" stroke-width="1.8" stroke="#D4B49917"/><path d="M64-103l-36 59" stroke-width="1.9" stroke="#506D8418"/><path d="M156-120l57 42" stroke-width="1.9" stroke="#889EAF19"/><path d="M26-174l-73-12" stroke-width="2.0" stroke="#FF77771C"/><path d="M155-110l55 52" stroke-width="2.0" stroke="#FF78781D"/><path d="M27-184l-72-22" stroke-width="2.1" stroke="#FF77771D"/><path d="M126-90l26 72" stroke-width="2.1" stroke="#CEE5D01E"/><path d="M43-112l-58 51" stroke-width="2.1" stroke="#D4B4991E"/><path d="M32-199l-69-37" stroke-width="2.1" stroke="#889EAF1F"/><path d="M156-216l57-54" stroke-width="2.1" stroke="#506D841F"/><path d="M68-234l-33-71" stroke-width="2.1" stroke="#D4B49920"/><path d="M173-134l73 29" stroke-width="2.1" stroke="#FF787820"/><path d="M137-92l38 71" stroke-width="2.2" stroke="#FF787821"/><path d="M177-140l77 23" stroke-width="2.2" stroke="#FF777722"/><path d="M144-94l45 69" stroke-width="2.3" stroke="#889EAF23"/><path d="M25-197l-76-35" stroke-width="2.3" stroke="#D4B49924"/><path d="M133-240l34-77" stroke-width="2.3" stroke="#D4B49926"/><path d="M16-177l-83-14" stroke-width="2.4" stroke="#D4B49926"/><path d="M168-110l67 53" stroke-width="2.4" stroke="#F3D5C027"/><path d="M172-213l72-51" stroke-width="2.5" stroke="#FF77772A"/><path d="M126-77l26 85" stroke-width="2.6" stroke="#506D842B"/><path d="M139-80l38 82" stroke-width="2.6" stroke="#F3D5C02E"/><path d="M185-123l85 40" stroke-width="2.8" stroke="#F3D5C032"/><path d="M178-215l78-53" stroke-width="2.8" stroke="#F3D5C032"/><path d="M173-103l73 59" stroke-width="2.8" stroke="#FF777732"/><path d="M54-78l-45 84" stroke-width="2.9" stroke="#D4B49934"/><path d="M166-234l66-71" stroke-width="2.9" stroke="#FF787836"/><path d="M133-255l34-92" stroke-width="3.0" stroke="#FF787838"/><path d="M179-104l80 59" stroke-width="3.0" stroke="#889EAF39"/><path d="M166-88l65 74" stroke-width="3.1" stroke="#506D843A"/><path d="M103-63l3 100" stroke-width="3.1" stroke="#506D843B"/><path d="M66-257l-34-95" stroke-width="3.1" stroke="#506D843C"/><path d="M129-261l29-99" stroke-width="3.3" stroke="#FF777740"/><path d="M21-231l-80-68" stroke-width="3.4" stroke="#889EAF44"/><path d="M28-87l-72 76" stroke-width="3.4" stroke="#FF777744"/><path d="M194-117l95 45" stroke-width="3.4" stroke="#F3D5C044"/><path d="M192-213l93-50" stroke-width="3.5" stroke="#D4B49945"/><path d="M123-60l24 103" stroke-width="3.5" stroke="#FF787846"/><path d="M199-201l99-39" stroke-width="3.5" stroke="#D4B49947"/><path d="M122-267l22-105" stroke-width="3.6" stroke="#506D8449"/><path d="M204-135l103 28" stroke-width="3.6" stroke="#FF77774A"/><path d="M190-222l89-59" stroke-width="3.6" stroke="#F3D5C04A"/><path d="M207-148l108 15" stroke-width="3.7" stroke="#D4B4994C"/><path d="M54-261l-46-99" stroke-width="3.7" stroke="#CEE5D04D"/><path d="M201-120l100 42" stroke-width="3.8" stroke="#CEE5D04E"/><path d="M89-54l-10 109" stroke-width="3.8" stroke="#FF78784E"/><path d="M8-224l-91-61" stroke-width="3.9" stroke="#FF787851"/><path d="M193-222l93-59" stroke-width="3.9" stroke="#F3D5C051"/><path d="M46-66l-54 96" stroke-width="3.9" stroke="#D4B49951"/><path d="M195-220l94-57" stroke-width="3.9" stroke="#FF777753"/><path d="M80-53l-20 109" stroke-width="3.9" stroke="#506D8453"/><path d="M182-87l81 75" stroke-width="4.0" stroke="#CEE5D054"/><path d="M151-262l52-100" stroke-width="4.1" stroke="#CEE5D056"/><path d="M8-227l-92-64" stroke-width="4.1" stroke="#889EAF57"/><path d="M41-66l-59 96" stroke-width="4.2" stroke="#506D8459"/><path d="M151-263l51-101" stroke-width="4.2" stroke="#889EAF5A"/><path d="M31-252l-69-90" stroke-width="4.2" stroke="#D4B4995A"/><path d="M57-267l-44-105" stroke-width="4.2" stroke="#D4B4995C"/><path d="M165-69l64 94" stroke-width="4.3" stroke="#F3D5C05C"/><path d="M162-67l62 95" stroke-width="4.3" stroke="#FF78785C"/><path d="M114-49l15 113" stroke-width="4.4" stroke="#889EAF5F"/><path d="M192-230l92-68" stroke-width="4.4" stroke="#D4B4995F"/><path d="M197-223l98-61" stroke-width="4.4" stroke="#889EAF60"/><path d="M6-96l-95 67" stroke-width="4.6" stroke="#FF777765"/><path d="M147-268l48-106" stroke-width="4.6" stroke="#506D8466"/><path d="M216-170l116-8" stroke-width="4.7" stroke="#F3D5C068"/><path d="M120-48l19 115" stroke-width="4.7" stroke="#D4B4996A"/><path d="M167-67l67 95" stroke-width="4.7" stroke="#889EAF6A"/><path d="M-4-214l-105-52" stroke-width="4.8" stroke="#CEE5D06B"/><path d="M184-244l84-81" stroke-width="4.8" stroke="#F3D5C06C"/><path d="M135-51l36 112" stroke-width="4.9" stroke="#506D846F"/><path d="M203-218l104-56" stroke-width="5.0" stroke="#CEE5D071"/><path d="M41-61l-59 101" stroke-width="5.0" stroke="#FF787871"/><path d="M121-278l21-116" stroke-width="5.0" stroke="#FF787871"/><path d="M-4-217l-105-55" stroke-width="5.2" stroke="#D4B49976"/><path d="M93-280l-8-118" stroke-width="5.2" stroke="#D4B49978"/><path d="M25-254l-74-91" stroke-width="5.3" stroke="#CEE5D07A"/><path d="M36-63l-65 99" stroke-width="5.5" stroke="#D4B49980"/><path d="M152-269l52-106" stroke-width="5.6" stroke="#FF777781"/><path d="M100-44l1 118" stroke-width="5.6" stroke="#FF787882"/><path d="M2-229l-98-66" stroke-width="5.6" stroke="#FF787883"/><path d="M127-48l28 115" stroke-width="5.7" stroke="#CEE5D085"/><path d="M196-231l96-69" stroke-width="5.8" stroke="#FF787886"/><path d="M63-274l-38-112" stroke-width="5.8" stroke="#F3D5C087"/><path d="M127-48l27 115" stroke-width="5.8" stroke="#F3D5C088"/><path d="M61-51l-38 111" stroke-width="5.8" stroke="#FF787889"/><path d="M-16-145l-117 18" stroke-width="5.9" stroke="#F3D5C089"/><path d="M55-54l-45 109" stroke-width="5.9" stroke="#CEE5D08B"/><path d="M211-123l110 40" stroke-width="5.9" stroke="#D4B4998B"/><path d="M120-278l20-116" stroke-width="5.9" stroke="#FF77778B"/><path d="M195-93l95 69" stroke-width="6.0" stroke="#889EAF8C"/><path d="M172-255l72-93" stroke-width="6.0" stroke="#FF77778D"/><path d="M74-277l-26-114" stroke-width="6.1" stroke="#FF777790"/><path d="M127-49l27 114" stroke-width="6.1" stroke="#FF777791"/><path d="M99-46l0 116" stroke-width="6.3" stroke="#FF787896"/><path d="M17-81l-83 81" stroke-width="6.3" stroke="#D4B49996"/><path d="M184-83l85 80" stroke-width="6.3" stroke="#F3D5C096"/><path d="M-1-104l-100 58" stroke-width="6.3" stroke="#F3D5C096"/><path d="M203-109l102 54" stroke-width="6.4" stroke="#889EAF97"/><path d="M-15-147l-114 15" stroke-width="6.4" stroke="#F3D5C099"/><path d="M-3-111l-104 51" stroke-width="6.4" stroke="#FF78789A"/><path d="M157-63l57 100" stroke-width="6.5" stroke="#FF78789C"/><path d="M-14-151l-114 12" stroke-width="6.6" stroke="#506D849E"/><path d="M211-138l112 25" stroke-width="6.7" stroke="#F3D5C0A0"/><path d="M69-53l-31 109" stroke-width="6.7" stroke="#889EAFA1"/><path d="M119-51l19 111" stroke-width="6.8" stroke="#506D84A5"/><path d="M143-267l44-104" stroke-width="6.8" stroke="#889EAFA5"/><path d="M178-244l77-81" stroke-width="6.9" stroke="#506D84A6"/><path d="M211-177l112-15" stroke-width="6.9" stroke="#FF7777A6"/><path d="M14-90l-86 72" stroke-width="6.9" stroke="#FF7777A6"/><path d="M123-272l22-110" stroke-width="6.9" stroke="#889EAFA7"/><path d="M-8-138l-109 25" stroke-width="7.0" stroke="#CEE5D0AA"/><path d="M27-246l-74-83" stroke-width="7.1" stroke="#CEE5D0AB"/><path d="M210-155l109 7" stroke-width="7.2" stroke="#D4B499AE"/><path d="M17-234l-83-71" stroke-width="7.2" stroke="#FF7777AF"/><path d="M5-108l-94 54" stroke-width="7.2" stroke="#CEE5D0B0"/><path d="M171-80l70 83" stroke-width="7.3" stroke="#CEE5D0B1"/><path d="M57-262l-43-100" stroke-width="7.3" stroke="#506D84B1"/><path d="M17-93l-83 70" stroke-width="7.3" stroke="#F3D5C0B2"/><path d="M198-207l98-45" stroke-width="7.3" stroke="#FF7777B3"/><path d="M200-198l101-36" stroke-width="7.4" stroke="#FF7777B6"/><path d="M194-112l94 50" stroke-width="7.5" stroke="#F3D5C0B7"/><path d="M65-261l-35-99" stroke-width="7.6" stroke="#FF7777BA"/><path d="M8-116l-93 47" stroke-width="7.7" stroke="#889EAFBD"/><path d="M110-265l10-102" stroke-width="7.7" stroke="#CEE5D0BE"/><path d="M157-248l56-86" stroke-width="7.7" stroke="#506D84BE"/><path d="M9-116l-91 46" stroke-width="7.8" stroke="#FF7878BF"/><path d="M145-72l46 90" stroke-width="7.8" stroke="#CEE5D0C1"/><path d="M14-110l-85 52" stroke-width="7.9" stroke="#FF7878C3"/><path d="M64-254l-36-92" stroke-width="8.0" stroke="#506D84C6"/><path d="M118-258l18-96" stroke-width="8.0" stroke="#D4B499C7"/><path d="M72-255l-28-93" stroke-width="8.1" stroke="#CEE5D0C8"/><path d="M69-254l-31-91" stroke-width="8.1" stroke="#FF7777C9"/><path d="M119-256l19-93" stroke-width="8.2" stroke="#CEE5D0CB"/><path d="M134-75l34 88" stroke-width="8.2" stroke="#F3D5C0CC"/><path d="M162-93l62 69" stroke-width="8.3" stroke="#CEE5D0CE"/><path d="M26-107l-75 56" stroke-width="8.3" stroke="#506D84CE"/><path d="M102-255l1-92" stroke-width="8.3" stroke="#CEE5D0CF"/><path d="M144-239l44-76" stroke-width="8.5" stroke="#FF7777D4"/><path d="M155-227l55-65" stroke-width="8.6" stroke="#F3D5C0D8"/><path d="M133-238l33-75" stroke-width="8.7" stroke="#FF7777DB"/><path d="M139-91l38 71" stroke-width="8.8" stroke="#889EAFDC"/><path d="M164-113l65 49" stroke-width="8.8" stroke="#FF7878DC"/><path d="M60-231l-40-68" stroke-width="8.8" stroke="#889EAFDE"/><path d="M179-161l79 1" stroke-width="8.8" stroke="#889EAFDE"/><path d="M55-228l-44-65" stroke-width="8.8" stroke="#D4B499DE"/><path d="M147-226l47-63" stroke-width="8.9" stroke="#FF7777DE"/><path d="M157-110l58 53" stroke-width="8.9" stroke="#506D84DF"/><path d="M28-175l-71-12" stroke-width="9.1" stroke="#F3D5C0E4"/><path d="M153-117l52 45" stroke-width="9.1" stroke="#FF7777E6"/><path d="M45-123l-54 39" stroke-width="9.2" stroke="#FF7777E8"/><path d="M35-147l-65 16" stroke-width="9.2" stroke="#CEE5D0E8"/><path d="M49-202l-51-39" stroke-width="9.3" stroke="#F3D5C0EA"/><path d="M154-131l53 32" stroke-width="9.3" stroke="#CEE5D0EB"/><path d="M161-159l61 3" stroke-width="9.4" stroke="#889EAFEC"/><path d="M145-132l45 31" stroke-width="9.5" stroke="#D4B499F0"/><path d="M151-161l52 1" stroke-width="9.6" stroke="#889EAFF2"/><path d="M70-123l-29 40" stroke-width="9.6" stroke="#CEE5D0F3"/><path d="M111-118l11 45" stroke-width="9.6" stroke="#F3D5C0F4"/><path d="M109-121l10 41" stroke-width="9.7" stroke="#889EAFF6"/><path d="M126-184l26-22" stroke-width="9.8" stroke="#889EAFF9"/><path d="M117-135l17 28" stroke-width="9.8" stroke="#FF7878FA"/><path d="M129-173l28-10" stroke-width="9.8" stroke="#889EAFFA"/><path d="M83-160l-18 3" stroke-width="9.9" stroke="#FF7777FD"/><path d="M103-158l2 4" stroke-width="10.0" stroke="#F3D5C0FE"/></g></svg>