<svg width="1200" height="675" viewBox="-500 -500 1200 675" xmlns="http://www.w3.org/2000/svg"><path d="M-500-500h1200v675h-1200z" fill="#000"/><style>.sparkles path{stroke-linecap:round}</style><g class="sparkles"><path d="M85-180l-15-18" stroke-width="1.1" stroke="#0008142"/><path d="M100-190l0-28" stroke-width="1.1" stroke="#001d3d3"/><path d="M126-134l26 29" stroke-width="1.2" stroke="#0008147"/><path d="M125-194l25-31" stroke-width="1.3" stroke="#0035667"/><path d="M61-146l-38 17" stroke-width="1.3" stroke="#0008148"/><path d="M104-115l5 47" stroke-width="1.4" stroke="#ffd60aA"/><path d="M95-212l-5-49" stroke-width="1.4" stroke="#003566B"/><path d="M70-119l-29 43" stroke-width="1.5" stroke="#001d3dD"/><path d="M142-196l41-34" stroke-width="1.5" stroke="#000814D"/><path d="M48-142l-52 21" stroke-width="1.5" stroke="#003566F"/><path d="M76-112l-24 51" stroke-width="1.5" stroke="#ffc300F"/><path d="M64-206l-36-43" stroke-width="1.5" stroke="#ffd60aF"/><path d="M158-159l57 4" stroke-width="1.6" stroke="#ffc30010"/><path d="M140-121l41 42" stroke-width="1.6" stroke="#001d3d10"/><path d="M131-214l31-52" stroke-width="1.6" stroke="#ffd60a11"/><path d="M48-194l-52-32" stroke-width="1.6" stroke="#001d3d12"/><path d="M47-128l-54 34" stroke-width="1.7" stroke="#ffc30013"/><path d="M165-159l65 4" stroke-width="1.7" stroke="#001d3d15"/><path d="M160-202l60-39" stroke-width="1.9" stroke="#00081419"/><path d="M47-211l-53-48" stroke-width="1.9" stroke="#ffc3001A"/><path d="M47-214l-54-51" stroke-width="2.0" stroke="#0008141C"/><path d="M142-224l43-62" stroke-width="2.0" stroke="#001d3d1C"/><path d="M177-174l76-11" stroke-width="2.1" stroke="#001d3d1F"/><path d="M53-101l-48 61" stroke-width="2.1" stroke="#ffc3001F"/><path d="M145-98l44 65" stroke-width="2.1" stroke="#00356620"/><path d="M178-177l78-14" stroke-width="2.2" stroke="#00081421"/><path d="M102-80l2 83" stroke-width="2.3" stroke="#ffd60a24"/><path d="M103-80l2 83" stroke-width="2.3" stroke="#ffc30024"/><path d="M183-160l84 2" stroke-width="2.3" stroke="#00356625"/><path d="M60-88l-41 74" stroke-width="2.4" stroke="#ffc30026"/><path d="M186-140l85 23" stroke-width="2.5" stroke="#ffc3002B"/><path d="M173-214l73-51" stroke-width="2.5" stroke="#ffc3002B"/><path d="M189-186l90-23" stroke-width="2.7" stroke="#ffc30030"/><path d="M176-110l76 53" stroke-width="2.7" stroke="#001d3d30"/><path d="M139-78l39 85" stroke-width="2.7" stroke="#ffd60a31"/><path d="M152-83l52 79" stroke-width="2.8" stroke="#00356633"/><path d="M13-124l-88 38" stroke-width="2.9" stroke="#00081434"/><path d="M164-234l64-71" stroke-width="2.9" stroke="#001d3d34"/><path d="M81-68l-19 94" stroke-width="2.9" stroke="#ffd60a35"/><path d="M197-153l96 10" stroke-width="2.9" stroke="#ffd60a36"/><path d="M194-197l93-34" stroke-width="3.1" stroke="#001d3d3B"/><path d="M71-259l-29-96" stroke-width="3.1" stroke="#ffc3003C"/><path d="M61-70l-38 93" stroke-width="3.1" stroke="#0035663C"/><path d="M172-233l72-71" stroke-width="3.2" stroke="#001d3d3D"/><path d="M49-250l-51-87" stroke-width="3.2" stroke="#0008143D"/><path d="M9-119l-92 44" stroke-width="3.2" stroke="#0035663D"/><path d="M11-214l-90-51" stroke-width="3.3" stroke="#ffc30041"/><path d="M152-252l52-90" stroke-width="3.4" stroke="#00081442"/><path d="M139-260l39-97" stroke-width="3.4" stroke="#001d3d44"/><path d="M205-173l105-11" stroke-width="3.5" stroke="#ffc30045"/><path d="M86-58l-13 105" stroke-width="3.5" stroke="#001d3d45"/><path d="M112-58l12 105" stroke-width="3.5" stroke="#00356646"/><path d="M185-99l84 63" stroke-width="3.5" stroke="#001d3d46"/><path d="M196-206l97-44" stroke-width="3.5" stroke="#00081447"/><path d="M141-65l41 98" stroke-width="3.5" stroke="#00081447"/><path d="M64-263l-37-100" stroke-width="3.5" stroke="#ffd60a48"/><path d="M111-56l11 106" stroke-width="3.6" stroke="#001d3d49"/><path d="M184-229l84-67" stroke-width="3.6" stroke="#00356649"/><path d="M194-215l93-52" stroke-width="3.6" stroke="#0035664A"/><path d="M-7-176l-108-13" stroke-width="3.7" stroke="#ffd60a4C"/><path d="M102-54l3 108" stroke-width="3.7" stroke="#001d3d4C"/><path d="M127-267l27-105" stroke-width="3.7" stroke="#0035664C"/><path d="M203-197l103-35" stroke-width="3.7" stroke="#0008144D"/><path d="M199-118l100 45" stroke-width="3.8" stroke="#ffd60a4E"/><path d="M-9-163l-109 0" stroke-width="3.8" stroke="#ffd60a4E"/><path d="M44-257l-55-94" stroke-width="3.8" stroke="#001d3d4F"/><path d="M168-76l68 86" stroke-width="3.8" stroke="#00081450"/><path d="M97-53l-3 110" stroke-width="3.8" stroke="#ffd60a50"/><path d="M97-52l-4 110" stroke-width="3.9" stroke="#ffd60a51"/><path d="M-8-188l-108-25" stroke-width="3.9" stroke="#ffc30053"/><path d="M79-54l-21 109" stroke-width="3.9" stroke="#ffd60a53"/><path d="M26-245l-73-83" stroke-width="3.9" stroke="#ffc30053"/><path d="M16-91l-85 72" stroke-width="4.0" stroke="#00356653"/><path d="M211-157l111 6" stroke-width="4.0" stroke="#00356654"/><path d="M130-270l30-107" stroke-width="4.0" stroke="#ffc30055"/><path d="M212-160l112 2" stroke-width="4.1" stroke="#ffd60a56"/><path d="M93-51l-7 112" stroke-width="4.1" stroke="#ffc30056"/><path d="M112-274l13-111" stroke-width="4.1" stroke="#ffc30057"/><path d="M-12-148l-111 14" stroke-width="4.1" stroke="#00081459"/><path d="M-5-205l-105-43" stroke-width="4.2" stroke="#ffd60a5B"/><path d="M-13-172l-114-10" stroke-width="4.3" stroke="#0035665D"/><path d="M70-272l-31-110" stroke-width="4.3" stroke="#001d3d5E"/><path d="M38-260l-61-98" stroke-width="4.6" stroke="#00356666"/><path d="M150-57l49 105" stroke-width="4.7" stroke="#001d3d68"/><path d="M171-255l71-93" stroke-width="4.8" stroke="#ffd60a6C"/><path d="M213-134l114 29" stroke-width="4.8" stroke="#0008146C"/><path d="M-14-189l-114-27" stroke-width="4.9" stroke="#ffd60a6E"/><path d="M-14-190l-114-28" stroke-width="5.0" stroke="#00356671"/><path d="M217-163l118-1" stroke-width="5.0" stroke="#001d3d71"/><path d="M141-52l40 110" stroke-width="5.0" stroke="#001d3d72"/><path d="M183-247l82-84" stroke-width="5.2" stroke="#ffc30075"/><path d="M-10-205l-110-43" stroke-width="5.2" stroke="#ffd60a77"/><path d="M210-204l111-42" stroke-width="5.3" stroke="#ffc3007B"/><path d="M82-46l-19 117" stroke-width="5.4" stroke="#001d3d7C"/><path d="M13-243l-86-80" stroke-width="5.5" stroke="#ffc30080"/><path d="M4-93l-95 69" stroke-width="5.5" stroke="#00081480"/><path d="M56-53l-44 110" stroke-width="5.6" stroke="#ffd60a81"/><path d="M33-65l-67 97" stroke-width="5.6" stroke="#00081482"/><path d="M39-264l-61-101" stroke-width="5.7" stroke="#ffd60a85"/><path d="M72-48l-29 114" stroke-width="5.8" stroke="#00356689"/><path d="M29-68l-70 94" stroke-width="5.9" stroke="#0035668A"/><path d="M218-165l117-3" stroke-width="5.9" stroke="#ffd60a8B"/><path d="M124-278l23-115" stroke-width="5.9" stroke="#001d3d8B"/><path d="M7-91l-94 71" stroke-width="5.9" stroke="#0035668C"/><path d="M109-280l10-117" stroke-width="5.9" stroke="#001d3d8C"/><path d="M155-266l55-103" stroke-width="6.1" stroke="#ffc30090"/><path d="M-4-109l-104 54" stroke-width="6.1" stroke="#001d3d90"/><path d="M22-75l-78 87" stroke-width="6.1" stroke="#00356691"/><path d="M48-267l-51-105" stroke-width="6.2" stroke="#00081492"/><path d="M181-247l81-84" stroke-width="6.2" stroke="#00356693"/><path d="M149-269l48-106" stroke-width="6.2" stroke="#00356693"/><path d="M8-92l-93 71" stroke-width="6.3" stroke="#ffc30095"/><path d="M25-74l-76 88" stroke-width="6.3" stroke="#00081496"/><path d="M140-270l39-107" stroke-width="6.6" stroke="#001d3d9F"/><path d="M149-265l48-103" stroke-width="6.7" stroke="#ffc300A1"/><path d="M5-225l-95-62" stroke-width="6.7" stroke="#ffd60aA2"/><path d="M206-122l106 40" stroke-width="6.8" stroke="#ffc300A3"/><path d="M145-59l45 103" stroke-width="6.9" stroke="#003566A5"/><path d="M78-52l-22 110" stroke-width="6.9" stroke="#ffd60aA6"/><path d="M164-254l64-92" stroke-width="6.9" stroke="#001d3dA8"/><path d="M105-51l4 112" stroke-width="7.0" stroke="#ffc300A9"/><path d="M90-274l-10-111" stroke-width="7.0" stroke="#ffd60aA9"/><path d="M19-86l-82 76" stroke-width="7.0" stroke="#003566AA"/><path d="M27-79l-73 84" stroke-width="7.0" stroke="#003566AA"/><path d="M-4-202l-104-39" stroke-width="7.0" stroke="#ffd60aAA"/><path d="M126-270l27-108" stroke-width="7.0" stroke="#ffc300AA"/><path d="M88-273l-11-110" stroke-width="7.1" stroke="#001d3dAB"/><path d="M202-203l103-41" stroke-width="7.1" stroke="#001d3dAD"/><path d="M12-228l-88-65" stroke-width="7.2" stroke="#ffd60aAF"/><path d="M76-56l-23 106" stroke-width="7.2" stroke="#ffd60aB0"/><path d="M209-162l108 0" stroke-width="7.3" stroke="#ffc300B1"/><path d="M45-69l-56 93" stroke-width="7.3" stroke="#000814B2"/><path d="M161-252l62-89" stroke-width="7.3" stroke="#003566B2"/><path d="M109-55l9 108" stroke-width="7.3" stroke="#ffd60aB2"/><path d="M78-56l-21 106" stroke-width="7.3" stroke="#003566B2"/><path d="M156-254l56-92" stroke-width="7.4" stroke="#ffc300B4"/><path d="M22-236l-78-73" stroke-width="7.4" stroke="#001d3dB5"/><path d="M204-183l103-21" stroke-width="7.5" stroke="#003566B8"/><path d="M171-240l70-77" stroke-width="7.6" stroke="#000814BA"/><path d="M71-63l-29 100" stroke-width="7.6" stroke="#ffc300BB"/><path d="M172-238l72-75" stroke-width="7.6" stroke="#003566BB"/><path d="M-1-185l-100-23" stroke-width="7.7" stroke="#ffd60aBD"/><path d="M114-263l15-101" stroke-width="7.8" stroke="#001d3dC0"/><path d="M159-83l60 80" stroke-width="7.9" stroke="#000814C4"/><path d="M28-94l-71 68" stroke-width="7.9" stroke="#003566C4"/><path d="M148-249l47-87" stroke-width="8.0" stroke="#003566C5"/><path d="M181-219l82-56" stroke-width="8.0" stroke="#ffc300C5"/><path d="M13-209l-88-47" stroke-width="8.0" stroke="#ffd60aC5"/><path d="M165-88l65 74" stroke-width="8.0" stroke="#001d3dC5"/><path d="M141-250l41-88" stroke-width="8.1" stroke="#000814C8"/><path d="M157-240l58-77" stroke-width="8.1" stroke="#001d3dC9"/><path d="M103-258l3-96" stroke-width="8.1" stroke="#003566CA"/><path d="M11-193l-90-30" stroke-width="8.2" stroke="#000814CC"/><path d="M18-119l-83 43" stroke-width="8.3" stroke="#003566CE"/><path d="M13-195l-86-33" stroke-width="8.3" stroke="#ffd60aCE"/><path d="M107-251l8-88" stroke-width="8.5" stroke="#000814D3"/><path d="M12-167l-88-5" stroke-width="8.5" stroke="#001d3dD4"/><path d="M35-106l-64 57" stroke-width="8.6" stroke="#ffc300D6"/><path d="M17-167l-82-5" stroke-width="8.7" stroke="#003566DA"/><path d="M51-226l-49-64" stroke-width="8.8" stroke="#003566DC"/><path d="M142-96l42 66" stroke-width="8.9" stroke="#001d3dDE"/><path d="M64-231l-36-69" stroke-width="8.9" stroke="#001d3dDF"/><path d="M26-140l-75 22" stroke-width="8.9" stroke="#ffd60aDF"/><path d="M173-136l72 26" stroke-width="8.9" stroke="#ffd60aE0"/><path d="M175-180l75-18" stroke-width="8.9" stroke="#003566E0"/><path d="M86-87l-13 76" stroke-width="8.9" stroke="#ffd60aE0"/><path d="M62-228l-37-65" stroke-width="9.0" stroke="#003566E1"/><path d="M166-175l66-13" stroke-width="9.2" stroke="#003566E8"/><path d="M47-199l-53-36" stroke-width="9.3" stroke="#ffd60aEA"/><path d="M43-182l-57-20" stroke-width="9.4" stroke="#000814ED"/><path d="M66-201l-35-39" stroke-width="9.5" stroke="#001d3dF2"/><path d="M117-123l18 39" stroke-width="9.7" stroke="#000814F6"/><path d="M65-140l-35 22" stroke-width="9.7" stroke="#ffc300F6"/><path d="M129-134l28 28" stroke-width="9.7" stroke="#001d3dF7"/><path d="M62-163l-38 0" stroke-width="9.8" stroke="#001d3dF8"/><path d="M138-160l37 3" stroke-width="9.8" stroke="#003566F8"/><path d="M90-128l-10 35" stroke-width="9.8" stroke="#000814F8"/><path d="M75-180l-24-17" stroke-width="9.9" stroke="#001d3dFA"/><path d="M122-171l22-9" stroke-width="9.9" stroke="#003566FC"/><path d="M121-160l20 2" stroke-width="9.9" stroke="#001d3dFD"/><path d="M106-150l7 13" stroke-width="10.0" stroke="#ffd60aFE"/></g></svg>