<svg width="1200" height="675" viewBox="-500 -500 1200 675" xmlns="http://www.w3.org/2000/svg"><path d="M-500-500h1200v675h-1200z" fill="#000"/><path d="M43-184.9c0.7-12.6 20.4 14.9 29.4 23.6 34.8 33.6 73.4 62.7 108.2 96.1 3.6 3.5 32.8 40 36.9 37.7 12.9-7.7 24.7-30.6 35.4-41.6 21.9-22.4 54.4-38.7 70-66.5 53.6-95 51.4-112.5 132.3-196.8 9.4-9.8 18.5-22.6 30.2-30.1 11.5-7.4 29.2 2.2 29.5 15.8 0.2 17.9-19.5 30.2-30.2 41.3-24 25-45.9 53.5-71.3 77-15.9 14.7-36.9 23-50.7 39.9-17.7 21.6-19 50.6-32 74.3-18.8 34.3-52.8 57.5-71.4 93-28.6 54.6-52.7 112.8-86.6 164.6-6.1 9.4-18.2 12.5-23.3 21.3-7.5 12.8 3.6 28.5-16.4 46.7-37 33.5-96-6-79.2-53 14.3-39.9 41.2-23.7 55.3-33.1 10.5-7 28.4-46.9 38-59.1 12-15.2 50-45.3 47-67.2-3.9-27.3-106.5-131.3-126.8-155-2.9-3.3-24.7-21.8-24.3-28.8z"  fill="#fff" /><path d="M612-403c-19-61-92-139-155-151-114-22-218 91-179 203 20 57 82 111 144 110 26 0 53-10 78-16 87-21 135-41 111-146z"  fill="#005bbb" /><path d="M211-224c-54-54-167-52-223-4-49 42-53 121-10 168 51 57 140 52 192-1 18-18 28-43 38-67 14-33 27-65 3-96z"  fill="#c2e1ff" /></svg>