<svg width="1200" height="675" viewBox="-500 -500 1200 675" xmlns="http://www.w3.org/2000/svg"><path d="M-500-500h1200v675h-1200z" fill="#000"/><path d="M-15-224.9c0.6-6.3 11.1 6.6 15.5 11.1 41.4 43.1 86.6 78.2 131.5 117.2 7.2 6.2 51.4 53.6 54.3 53.5 8.5-0.2 33.3-31.5 39.5-37 35.5-30.8 65.5-52.7 74.9-101.3 6.2-32.1-15.5-54 3.8-85.9 15-24.9 37.4-44.7 58.3-64.5 7.7-7.2 35.3-45.7 54.7-29.3 4.7 3.9 8.2 8.8 8.4 15.2 0.7 25-67.1 67.4-84.9 92.4-41.7 58.4-24.5 94.2-48.5 139.3-19.3 36.1-66.9 76.9-92.7 114.3-24.4 35.3-36 83-45.7 124.3-1.8 7.9-10.2 18.9-10.7 26-1.5 18.5 12.2 27.5-1.3 49.8-20.9 34.8-74.7 29.7-88.3-8.6-16-44.9 20.2-49.5 32.8-64.7 5.3-6.4 7-26.6 10.5-34.7 10.7-25.2 24.9-48.7 38.5-72.4 5-8.8 27.7-32.6 26.3-42.3-2.7-19.5-36.9-41-49.6-54.8-35.8-39.1-72-77.1-104.9-118.7-2.7-3.4-23.1-22-22.4-28.9z"  fill="#005bbb" /><path d="M610-407c-35-59-103-145-172-158-122-23-231 108-173 221 22 42 64 77 109 90 43 13 89 3 132-4 25-4 53-7 76-17 52-24 49-88 28-132z"  fill="#c2e1ff" /><path d="M104-308c-107-107-264 39-168 146 98 109 260-29 168-146z"  fill="#c2e1ff" /></svg>