<svg width="1200" height="675" viewBox="-500 -500 1200 675" xmlns="http://www.w3.org/2000/svg"><path d="M-500-500h1200v675h-1200z" fill="#000"/><path d="M26-225.2c1.3-5.3 8.3 7.3 11 12.1 46.9 83 28.9 86.8 99.7 150.7 3.8 3.4 13.1 17.1 19 17.3 5.2 0.2 32.7-48.6 35.7-59.1 6-20.8 19-38.3 26.8-58.3 8.3-21.3 13.8-43.9 21.2-65.6 7.9-23 37.9-140.6 74.1-136.7 39.9 4.3-3.8 63.1-7.6 70.2-10.8 20.2-15.6 45.2-28.1 64.1-13.2 20.1-41.7 25.7-47.2 51.3-7.6 35.3-14.8 97.3-30.1 127.7-19.5 38.7-58.4 72.5-67.7 115.7-1.6 7.3-0.3 72.1 1.3 74.6 19.6 31.2 20 77.8-26.9 84.8-34.1 5.1-63.1-27.2-54.8-60.6 2.8-11.1 17.9-21 19.2-29.9 5-32.7-8.1-43.1 12.4-87.9 6.9-14.9 45-55.5 46.1-65.8 0.6-5.9-12-9.1-15.4-11.7-12-8.9-22.6-20.8-31.1-33-21.4-30.6-21.4-65.9-33.2-99.9-2.9-8.3-25.8-54.2-24.4-60z"  fill="#c2e1ff" /><path d="M441-468c-31-31-66-55-112-57-79-4-404 111-294 234 65 73 238 118 335 86 115-38 142-173 71-263z"  fill="#fff" /><path d="M299-269c-56-56-173-102-251-93-109 13-174 135-95 224 24 27 55 45 91 47 43 2 88-17 128-31 58-19 194-64 127-147z"  fill="#fff500" /></svg>