<svg width="1200" height="675" viewBox="-500 -500 1200 675" xmlns="http://www.w3.org/2000/svg"><path d="M-500-500h1200v675h-1200z" fill="#000"/><path d="M51.4 167.8c8.3-42 33.8-28.9 46.2-45 22.4-29.1 41.5-63.8 64.3-93.5 13.8-18 44.6-39.2 50.8-61.5 5-18.2-44.4-109.4-53.6-129.7-0.6-1.4-35.5-64.6-23.2-65.1 6.3-0.2 21.1 37.9 24.1 43.2 14.5 26 35.1 46.4 50.9 71.3 9.4 14.8 12.9 35.6 23.2 49.2 4.5 5.9 13.3-0.1 17.1-2.9 25.1-18.2 61.2-41.4 76-69.2 27.7-51.9 17.9-84.3 30.1-112.7 16.3-38.2 55.7-69.1 84.2-97.7 10.8-10.8 25.1-27.8 40.9-14 26.9 23.5-35.7 65-41.6 71-26.4 26.7-58.4 58.4-78.8 90.3-16.1 25.2-12.8 58-26.6 84.3-21.3 40.4-64.3 67.3-89.3 105.8-12.7 19.7-27.7 39.2-38.8 59.8-21.7 40-27.2 71-61.2 104.3-0.2 0.2 10.9 34-13.1 55.7-29.4 26.6-91.1 4.2-82.3-40z"  fill="#fff" /><path d="M541-521c-169-169-401 63-258 222 149 167 399-45 258-222z"  fill="#005bbb" /><path d="M377-261c-47-47-129-93-197-86-87 9-139 111-77 181 19 21 45 37 74 38 34 2 70-13 102-23 46-13 152-42 98-110z"  fill="#fff500" /></svg>