<svg width="1200" height="675" viewBox="-500 -500 1200 675" xmlns="http://www.w3.org/2000/svg"><path d="M-500-500h1200v675h-1200z" fill="#000"/><path d="M49-265c1.4-11.9 18.7 15.2 26.9 24 33.6 36.4 69.4 70.8 102.6 107.6 6.1 6.8 13.1 14.1 17.1 22.4 1.1 2.2 2 7.8 3.8 6.2 10.3-9.4 68.9-131.1 84.4-148.6 32.5-36.8 79.1-64.9 118-94.5 9.5-7.2 50.4-32.7 49.1 2.2-0.9 25.4-54.2 51.9-64.6 59.8-17.2 13.2-121.5 86.7-129.6 97.5-12.2 16.2-18.9 41.4-27 60.2-8.9 20.5-7.4 42.2-12.6 63.5-7 28.3-17.1 57.5-26.8 85.1-9.2 26.3-34.5 57.4-39.2 78.6-3 13.3-0.1 27-3 40.3-0.9 4-5.2 6.5-5.3 10.3-0.2 16.8 10.3 27.8 1.6 46.4-22.4 47.3-96.1 29-93.4-23.4 1.8-35.7 23-29.4 34.6-45.4 6.5-8.9 4.5-38.2 14-53.5 16.4-26.6 80.6-107 82.1-138 1.7-34.1-76.7-125.7-97.6-153.6-4.7-6.3-36.2-37-35.1-47z"  fill="#c2e1ff" /><path d="M551-407c-27-27-57-39-95-43-86-8-188 19-273 38-51 11-93 62-50 110 49 55 251 118 323 112 111-9 163-131 95-217z"  fill="#fff500" /><path d="M256-312c-55-55-123-67-197-49-26 6-50 15-69 33-59 51-64 147-13 204 61 69 168 64 233 1 23-23 36-56 48-86 15-37 24-70-2-103z"  fill="#005bbb" /></svg>