<svg width="1200" height="675" viewBox="-500 -500 1200 675" xmlns="http://www.w3.org/2000/svg"><path d="M-500-500h1200v675h-1200z" fill="#000"/><path d="M51.4 167.8c7.3-36.7 34.4-32.2 40.6-43.6 12.1-22.5 19.4-50.1 31.8-73.4 17.8-33.4 51.2-62.7 75.8-91.5 8.5-10 60.2-54.2 60.8-62.2 1.1-14.9-76-93.2-89.7-110.5-23.2-29.3-44.6-60-66.3-90.4-1-1.4 0.3-3.7 2.1-3.1 12.2 4.3 41.6 47 51.6 57.6 28.5 30.4 62.7 54.3 92 83.7 9.3 9.4 23.8 41.3 36.3 45.2 1.8 0.5 12.4-15.1 12.8-15.7 51.7-67.9 13.8-69.4 33.1-120.4 9.4-24.7 23.7-48.3 36-71.5 6.8-12.8 19.3-48.2 41.9-34.1 25.9 16.1-8.8 56.9-15.4 69.4-15.4 29.1-29.7 57.1-47.9 84.4-19.4 28.9-22.2 65-42.1 94.5-17.6 26.2-41.5 47.7-60.5 72.9-15.3 20.3-25 43.8-39.6 64.5-8.9 12.5-19.7 22.7-26.1 36.9-10.6 23.9-13 51.2-22.7 75.7-2.7 6.9-8.3 10.5-10.9 16.4-5.1 11.3 13.2 31.3-8.6 55.4-28.2 31.1-94.9 9.9-85.7-36.6z"  fill="#c2e1ff" /><path d="M527-387c-25-25-52-37-87-42-56-8-113 2-168 9-47 6-123 4-135 63-4 19 1 38 13 52 47 53 219 127 289 122 105-7 152-124 88-204z"  fill="#c2e1ff" /><path d="M174-461c-52-52-110-70-181-49-29 9-60 23-80 47-21 25-26 63-35 94-12 42-27 82 6 118 23 26 59 59 92 69 26 8 55 4 82-2 30-6 59-13 85-29 87-56 92-172 31-248z"  fill="#fff" /></svg>