<svg width="1200" height="675" viewBox="-500 -500 1200 675" xmlns="http://www.w3.org/2000/svg"><path d="M-500-500h1200v675h-1200z" fill="#000"/><path d="M9-265.1c1.2-5.7 6.1 2.9 6.3 3.3 10.9 17.6 20.9 36 34 52.2 8.8 10.9 127.2 104.3 130.4 104 2.5-0.3 7.9-15.9 9.2-17.9 17.5-28.5 50.9-49.5 63.6-79.9 6.1-14.6 5.2-30.9 10.7-46 5.6-15.4 14.2-28.5 18.3-44.7 4.8-19.1 1-45.1 12.2-62.2 8.4-12.8 29.2-10.6 34.8 3.8 7.6 19.6-6.3 57.6-10.8 74.6-16.5 62.6-79.7 91.9-107 149.4-20.8 43.8 12.4 52.3 6.5 67.5-1.5 3.8-5 6.4-9 6.9-2.1 0.2-5.3-3-6.1-1.1-3.7 8.3-2.7 18.4-6.1 27-6.8 16.9-19.9 29.8-26.6 46.8-5.9 15-8 30.9-14.9 45.6-9.3 19.8-29.8 41.7-30.4 65-0.4 12.9 43.4 28.8 18 71-25.6 42.7-93.7 22.2-91.1-27.6 0.6-12 7.1-19.1 10.8-29.6 3-8.7 0.7-20.8 4.1-31.3 9.7-29.6 43.9-79.9 62.7-110.4 11.8-19.2 42.7-39.7 44.2-63.9 1.1-18.7-31.2-32.8-42.8-43.1-47.8-42.8-86-86.5-114-144.4-0.6-1.2-7.8-11.2-7-15z"  fill="#005bbb" /><path d="M366-472c-29-29-62-49-104-45-67 6-299 124-218 214 55 61 319 97 352-60 9-42-4-77-30-109z"  fill="#c2e1ff" /><path d="M200-347c-56-56-114-63-189-40-21 7-53 15-65 34-14 20-19 51-25 73-13 50-19 67 17 109 35 41 75 80 132 83 144 7 217-150 130-259z"  fill="#fff500" /></svg>