<svg width="1200" height="675" viewBox="-500 -500 1200 675" xmlns="http://www.w3.org/2000/svg"><path d="M-500-500h1200v675h-1200z" fill="#000"/><path d="M51.4 167.8c10.4-52.1 44.7-33.5 64.7-41.4 6.6-2.6 44.4-60.1 45.9-67.9 1.2-6.1-55.7-46.3-69.8-106.3-2.4-10.3-32.9-98.4-24.4-99.2 5.8-0.6 16.9 35.2 20.6 43.5 19 43.6 35.4 76.8 71.3 109 5.4 4.8 19.3 24.5 26.9 25.5 3.3 0.5 18.3-28.9 19.7-31.6 16.6-32.2 28.8-64.3 48.4-95.5 29.1-46.3 81.1-66.5 113.6-108.4 11.9-15.3 19.1-33.5 30.5-49.2 15.3-21.1 33.6-40.1 49.6-60.7 6.2-8 36-68.3 61.5-45.8 19.5 17.2-7.8 41.4-17.4 53.9-20.5 26.8-40.8 57.3-66.8 79.1-46.5 38.9-59.2 30.1-115.4 91.2-52.6 57.2-46.6 125.9-78.8 190.6-14.5 29.2-30.4 63.8-49.1 90.3-6.1 8.7-32.1 20.5-33.4 25.1-4.6 15.8-1.8 28.6-16 41.4-29.4 26.6-91.1 4.2-82.3-40z"  fill="#fff500" /><path d="M528-459c-56-56-151-63-199 11-12 19-17 41-23 63-5 20-17 44-1 61 21 23 55 69 87 75 113 22 222-101 136-210z"  fill="#fff500" /><path d="M170-289c-36-36-76-60-129-55-46 4-96 24-133 52-51 38-126 137-71 199 98 110 335 102 369-62 11-51-4-94-36-134z"  fill="#fff" /></svg>