<svg width="1200" height="675" viewBox="-500 -500 1200 675" xmlns="http://www.w3.org/2000/svg"><path d="M-500-500h1200v675h-1200z" fill="#000"/><path d="M40-184.9c0.4-6.7 11.8 6.7 16.6 11.5 15.2 15 30.8 29.6 45.2 45.4 20.3 22.3 86.6 117.5 113 121.1 2.9 0.4 14.5-21.9 15.4-23.5 15.4-27.3 18.9-51.5 41.9-75.3 32.2-33.3 71.8-56.4 105.3-87.7 19-17.8 30.8-40.8 46.8-61 23-29 51.5-53.7 78.6-78.8 10-9.2 20.3-21.9 32.2-29.1 12.4-7.5 29.5 1.9 29.9 16.4 0.6 23.1-42.8 49.1-52.7 58.4-21.1 19.7-40.1 43.3-62.7 61-16.6 13-36 19.6-53.8 30.4-42.7 25.6-83.2 69.3-111.6 110.2-18.8 27.1-14.9 67.3-31.7 98.9-20 37.6-52.6 86.5-78.9 120.1-6.7 8.6-18.2 15.8-23.9 24.5-8.5 12.8 6.1 33.2-16.6 53.8-38.8 35.1-99.8-10-77.4-57.4 14.3-30.1 29.7-18 45.8-28.7 4.5-3 8.8-18.7 12.8-23.4 17-19.7 35.9-37.3 52.3-57.6 5-6.2 24.9-22.1 23.3-30.8-2.1-11.7-40.1-38.4-49.7-50.3-25.4-31.6-35.5-70.3-61.2-102-5.2-6.4-39.5-35.7-38.9-46z"  fill="#c2e1ff" /><path d="M711-491c-20-20-41-38-68-48-60-21-152 3-189 57-15 22-21 52-29 77-12 39-26 78 5 111 23 26 59 56 92 65 26 7 54 4 80-1 136-26 196-152 109-261z"  fill="#c2e1ff" /><path d="M161-335c-61-61-164-68-215 12-16 25-22 55-28 84-8 35-18 62 7 92 40 47 84 52 142 38 24-5 48-11 69-24 70-45 74-140 25-202z"  fill="#005bbb" /></svg>