<svg width="1200" height="675" viewBox="-500 -500 1200 675" xmlns="http://www.w3.org/2000/svg"><path d="M-500-500h1200v675h-1200z" fill="#000"/><path d="M51.4 167.8c9.1-45.9 45.7-34.4 52.3-43.2 3.5-4.8 3.9-10.8 7.5-15.9 17.6-24.3 43-42.9 62.9-65.4 28.1-31.6 56.4-89.6 63.7-131.1 4-22.7-53.1-134.1-69.6-154.2-6.4-7.9-56.5-58.2-56.2-63.2 0.4-7 12.3 6.8 17.4 11.6 24.9 22.7 50.8 44.7 72.6 70.5 8.1 9.6 49.3 88.3 57.3 85.4 27.4-10 96.5-107.1 109.8-134.6 19.4-40 19.1-114.4 53.5-88.9 15.9 11.8 4.3 34.6 0.5 49-29.8 114.9-42.3 73.4-102.3 124.4-18.9 16-33.3 39.8-48 59.7-20 26.9-6.2 73.5-15.8 105.6-17.3 58.2-43.1 109-81.3 156.2-7.4 9.2-18.8 16-25.6 24.9-7.7 10.2 1.4 32.6-13.7 49.4-28.2 31.1-94.9 9.9-85.7-36.6z"  fill="#fff" /><path d="M449-433c-22-22-46-39-79-41-57-3-281 78-202 167 49 55 163 81 231 59 80-26 99-123 50-185z"  fill="#c2e1ff" /><path d="M182-421c-28-28-59-46-99-42-98 8-213 135-156 198 76 85 258 69 283-52 8-39-3-73-28-104z"  fill="#fff" /></svg>