<svg width="1200" height="675" viewBox="-500 -500 1200 675" xmlns="http://www.w3.org/2000/svg"><path d="M-500-500h1200v675h-1200z" fill="#000"/><path d="M51.4 167.8c9.8-49.5 43.1-32.7 56.3-42.6 5.2-3.9 48.9-86.5 52.1-94.6 5.4-14.1 10.3-32.1 13.2-47 4.3-21.8-19.5-44.8-27.2-63.9-12.9-31.9-20.1-65.9-29.3-99.1-10-36.4-11-48-9.8-47.5 9.6 3.9 15.9 37 18.9 44.2 16.5 39.6 35.5 86.1 61.2 120.7 4.5 6.1 11 1.9 15.2-2 26.1-24.8 37.5-58.5 54.9-88.8 8.2-14.2 19.5-26 28.3-39.7 48.7-75.6 20.3-59.6 98.2-139.5 12.7-13 31.6-44.2 53.5-28.2 29 21.3-36.9 68-39.9 71.2-18.5 19.2-33.3 42.3-52.2 60.8-19 18.7-45.1 26.6-60.7 49.2-19.6 28.5-21.9 64.6-35.8 95.7-10.3 23-29.4 42.2-34.7 67.2-6.3 29.5-3 59.9-13.3 88.7-8.9 24.9-18.4 56.9-35 77.8-4.5 5.6-12.9 7.2-16.1 13.5-6.1 12.1 0.1 27-9.8 40.4-26.5 35.8-98.4 15.9-88.7-32.9z"  fill="#fff" /><path d="M555-521c-122-122-265-25-335 98-23 40-44 90-8 130 66 73 261 55 329-3 27-23 43-56 50-91 11-51-4-94-36-134z"  fill="#fff500" /><path d="M468-281c-70-70-219-138-317-127-142 16-222 173-122 286 30 34 71 58 117 60 54 3 111-22 162-38 73-23 247-71 160-181z"  fill="#fff" /></svg>