<svg width="1200" height="675" viewBox="-500 -500 1200 675" xmlns="http://www.w3.org/2000/svg"><path d="M-500-500h1200v675h-1200z" fill="#000"/><path d="M51.4 167.8c9.2-46.2 53.3-37.4 57.1-42.6 19.8-28.2 31.2-62.2 53.6-89.6 16.7-20.2 46.9-37.4 57.6-61.8 5-11.5-69-103.1-81.5-120.4-2.8-3.9-54.9-79.4-43.5-80.4 7-0.6 27 37.7 30.6 42.7 19.6 26.9 45.1 45.5 67.6 69.3 7.3 7.7 40.5 62.7 53.4 48.3 14-15.7 15.3-39.6 27.4-56.8 19.6-27.8 44.8-49.6 60.5-80.4 26.2-51.3 38.7-80.9 77.5-126.7 10.1-11.9 28.9-46.1 50.4-30.2 27.6 20.4-26.2 62.7-32.5 70.2-16.2 19.5-27.6 43.2-44.2 61.9-17.6 19.7-44 26.7-58 50.3-13.1 22.1-32.2 46.9-40.3 71.3-9 27.2-10.8 61.7-23.3 86.9-15.5 31.3-45.2 58.6-60.5 91-13 27.6-46.8 119.3-70.3 140.6-29.4 26.6-91.1 4.2-82.3-40z"  fill="#005bbb" /><path d="M596-467c-31-31-66-55-112-57-63-3-132 28-190 48-62 21-268 82-176 185 30 34 83 48 124 61 89 29 191 55 283 26 115-38 142-173 71-263z"  fill="#005bbb" /><path d="M282-371c-28-28-58-49-98-51-64-3-168 42-228 63-52 18-298 79-208 181 34 37 140 41 186 45 91 8 198 21 286-8 100-33 123-153 62-230z"  fill="#fff" /></svg>