<svg width="1200" height="675" viewBox="-500 -500 1200 675" xmlns="http://www.w3.org/2000/svg"><path d="M-500-500h1200v675h-1200z" fill="#000"/><path d="M51.4 167.8c8.3-42 33.8-28.9 46.2-45 2.8-3.7 2.5-8.1 5.4-12.1 21.4-30.5 69.5-80.6 97.9-105.7 26.6-23.4 83.9-53 92.8-90.1 5.2-21.7-60.9-117.3-75.1-133.3-5.4-6.1-43.4-42.4-42.6-47 0.3-1.5 8.7 2.7 50.6 41.8 20.9 19.5 86.1 104.8 93.6 106.4 9.3 1.9 48.7-146.7 49.4-160.4 1.2-22.6-7.6-51.3-0.7-73.1 4-12.5 18.7-18 29.8-11.1 26.3 16.1 5.4 119.2-2 131-11.2 17.9-33.5 23-43.3 41.7-1.1 2.1-20.4 104.9-30.3 128.4-2.4 5.7-7.5 3.7-10.5 6.6-10.8 10.9-17.5 26.5-27.7 38.2-18.3 20.8-39 39.5-56.8 60.8-30 36.1-48.1 77.9-82 110.8-4.5 4.4 14.4 30.8-13.1 55.7-29.4 26.6-91.1 4.2-82.3-40z"  fill="#c2e1ff" /><path d="M597-484c-159-159-378 59-243 211 141 158 376-42 243-211z"  fill="#005bbb" /><path d="M308-305c-44-44-110-92-174-91-107 1-180 118-103 205 22 24 50 41 83 42 61 3 270-61 194-156z"  fill="#c2e1ff" /></svg>