<svg width="1200" height="675" viewBox="-500 -500 1200 675" xmlns="http://www.w3.org/2000/svg"><path d="M-500-500h1200v675h-1200z" fill="#000"/><path d="M51.4 167.8c8.7-43.5 45.8-34.8 48.8-42.8 21.3-58 81.7-97.2 99.2-149.6 1.6-4.6 1.7-9.3 0.2-14-4.6-14.1-19.2-27.2-26.3-40.5-14.8-27.4-24.8-56.9-41.4-83.3-0.1-0.2-53.7-65.3-40.8-64.6 5.6 0.3 95.4 119 111.2 140.8 4 5.5 13.6 28.8 22.6 18.1 19.7-23.7 21.9-58.1 37.1-84.2 10.3-17.6 29.7-29.7 34.8-50.2 4.8-19.2-4.5-40.5-3.2-60.2 1.5-21.1 10.5-41.6 17.9-61 4.3-11.4 14.3-53 38.2-39.2 25.1 14.4-0.2 47.5-6.7 64.4-9 23.5-5.4 50.1-15.8 72.3-13.4 28.4-41.9 47.4-52.9 77.7-7.2 19.9-7.5 42.7-12.4 63.3-7.6 32.1-21.2 65.1-32.8 96-16.7 44.1-43.6 87.8-66.3 129-3.7 6.7-10.2 10.5-13.7 16.6-7 12.2 3.2 30.5-9.7 47.9-26.5 35.8-98.4 15.9-88.7-32.9z"  fill="#c2e1ff" /><path d="M384-508c-21-21-42-39-70-49-67-23-159 7-202 63-19 25-31 57-43 86-15 39-29 81 3 116 95 106 318 73 349-79 11-52-4-96-37-137z"  fill="#005bbb" /><path d="M169-253c-25-25-57-63-95-72-21-5-51 9-71 14-25 7-63 10-84 25-19 12-26 48-32 67-21 68-24 131 26 187 149 166 397-45 256-221z"  fill="#fff500" /></svg>