<svg width="1200" height="675" viewBox="-500 -500 1200 675" xmlns="http://www.w3.org/2000/svg"><path d="M-500-500h1200v675h-1200z" fill="#000"/><path d="M14-265c0.8-6.2 10.8 6.7 15 11.4 26.7 29.5 52.7 60.4 81.9 87.5 18.9 17.6 39.8 32.7 58.4 50.6 6.3 6.1 32.5 43.4 41.3 43.8 7.4 0.3 16.6-21 18.9-25.5 12.5-25.2 21.4-65 18.4-93.2-1.9-17.9-14.6-31.2-17-49.1-3.4-25.8 3.6-55.5 5.9-81.3 1.6-17.8 1.3-50.6 28.9-43 19.6 5.4 12 34.3 10.9 46.8-3.6 40.8-11.6 76.8-19.5 116.3-6.2 31.2 3.9 63.1-1.4 94.5-5.8 34.2-29.8 51.4-37.9 81-4 14.5-2.1 29.7-5.8 44.4-9.8 39.8-27.8 85.5-47.9 121.2-4 7.2-10.6 10.5-14.6 16.9-8.6 13.4 6.5 33.2-16.5 54.1-35.2 31.9-92.1-2.3-80.6-48.4 9.8-39.4 35.6-26.8 48.7-37.8 5.5-4.6 9.6-23.4 13.7-29.9 19.2-30.7 41.1-61.7 56.4-94.6 9.6-20.6 12-37.6 25.6-56 0.1-0.1-22.2-16.6-47.2-39.3-40.3-36.4-69.3-80-101.3-123.4-4.7-6.3-35.6-37-34.3-47z"  fill="#fff500" /><path d="M692-400c-69-69-246-178-340-186-150-13-248 160-145 275 73 81 195 71 293 64 52-4 118-1 167-23 51-24 58-88 25-129z"  fill="#c2e1ff" /><path d="M190-310c-25-48-74-108-128-119-95-18-179 84-134 172 40 78 105 77 179 61 65-14 116-35 83-114z"  fill="#005bbb" /></svg>