<svg width="1200" height="675" viewBox="-500 -500 1200 675" xmlns="http://www.w3.org/2000/svg"><path d="M-500-500h1200v675h-1200z" fill="#000"/><path d="M36-185c1.7-10.4 14.6 15.2 20.5 23.9 28 41.6 64.1 64.6 102.5 95.3 5.7 4.6 38.6 41.8 45.1 38.6 28.2-14.3 38.3-63.9 56.4-87.6 20.5-26.7 56.5-45.6 69.7-77.6 9.6-23.2-1.2-44.1 14.6-66.8 18.1-25.9 63.3-84.9 87.6-102.7 13.3-9.7 31.1 3.2 30.5 18.1-0.9 21.3-68.7 86.3-83.1 102.1-32.8 36.1-67 84.9-94.2 125.6-19.4 28.9-22.3 65.6-38.4 96.3-12.9 24.8-101.5 169.8-102.4 172.2-1.9 4.7 4.6 18.9 4.2 25-1.5 30.5-31.4 52.6-61 45.2-33.4-8.3-47.9-49.3-27.4-76.9 8.3-11.2 20.3-11.7 29.4-19.5 5.9-5.1 10.2-22 15.5-29 13.8-18.5 75.3-78.2 72.4-99.4-3.8-28.2-76.1-80.5-95.1-103.8-12.6-15.5-22.1-32.5-31.6-50.1-2.2-4-16.3-22.5-15.2-28.9z"  fill="#fff" /><path d="M782-395c-66-66-287-119-376-100-112 24-165 161-86 249 27 30 63 51 103 53 56 3 127-27 181-41 63-17 263-55 178-161z"  fill="#c2e1ff" /><path d="M229-229c-42-42-84-54-143-42-30 6-59 14-83 34-56 48-60 137-11 192 53 60 160 66 212-2 18-23 22-57 30-85 10-36 21-66-5-97z"  fill="#c2e1ff" /></svg>