<svg width="1200" height="675" viewBox="-500 -500 1200 675" xmlns="http://www.w3.org/2000/svg"><path d="M-500-500h1200v675h-1200z" fill="#000"/><path d="M51.4 167.8c5.8-29 23.4-29.6 44.2-42.8 6.2-4 9.4-16.3 14.6-22.1 13.8-15 29.5-28.6 45-41.8 17.7-15.2 99.1-72.5 103.9-91.4 4.3-16.6-29.9-46.8-38.3-59.6-19.7-29.8-26.9-61.3-51.3-88.9-12-13.6-44.6-41.4-42.3-47 4.3-10.7 80.9 73.6 86.5 82.3 15.9 24.4 35.3 43.7 53 66.6 3.3 4.3 10.9 23.2 19.2 19.3 5.7-2.7 87.5-122.6 92-134.6 6.9-18.3 1.7-37.4 8.5-55.7 14-37.2 49.6-68.4 75.7-97.1 10.2-11.3 23.4-28.2 39.6-15.4 27.4 21.6-30 63.9-36.2 70.8-25.7 28.7-51.6 60.5-74.4 91.4-36.9 50.1-51.7 115.2-81.4 169.2-26.2 47.5-117.1 142.1-159 181.8-10.4 9.8 4.3 42.5-21.4 61.6-30.1 22.3-86.9-1.1-78.6-43z"  fill="#fff" /><path d="M792-391c-62-62-193-100-278-81-102 23-152 147-79 229 25 28 58 47 95 49 64 3 351-84 262-197z"  fill="#005bbb" /><path d="M283-227c-16-16-80-88-95-92-18-4-40 2-58 5-25 6-50 12-71 26-63 40-81 134-39 195 76 109 227 73 259-51 6-25 16-58 4-83z"  fill="#fff" /></svg>