<svg width="1200" height="675" viewBox="-500 -500 1200 675" xmlns="http://www.w3.org/2000/svg"><path d="M-500-500h1200v675h-1200z" fill="#000"/><path d="M-3-144.9c0.6-6.4 11.1 6.6 15.6 11.2 27.5 28.7 59.7 74.1 78.2 92.4 7.1 7 67.7 62.6 74.8 57.9 27.1-18.1 125.8-124 139.7-151.5 19.5-38.5 21.1-83.8 49.3-118.2 29.5-36 72.3-64.6 108-94.2 10.6-8.8 49.3-35.2 48.3 2.4-0.5 18.7-28.3 32.9-38.2 41.2-12.5 10.4-137.4 108.3-141 114.8-11.5 21.1-7.1 57.6-21.3 84.9-28.5 54.8-79.2 104-110.4 155.2-24.9 40.9-13.4 49.1-54.3 99.7-3.2 4 3.6 20.8 3.3 26.5-1.4 28.5-27.9 50.4-56.2 46.2-34-5.1-52.7-44.3-34.9-73.8 8.5-14.2 21.5-14.4 32.1-23.6 6.6-5.7 11.5-22 18.1-29.6 5.2-6 38.3-35.6 32.1-47.4-12.1-22.9-41.1-43.9-57.9-64-21.3-25.5-29.9-58.3-50.1-85.1-4.8-6.3-36.1-35-35.2-45z"  fill="#c2e1ff" /><path d="M693-361c-24-24-48-46-79-60-44-19-154-17-193 16-42 36-38 127-18 174 12 29 32 54 53 75 144 151 367-42 237-205z"  fill="#c2e1ff" /><path d="M244-192c-41-41-92-97-153-103-131-13-230 133-136 238 25 28 59 48 98 50 78 4 274-82 191-185z"  fill="#005bbb" /></svg>