<svg width="1200" height="675" viewBox="-500 -500 1200 675" xmlns="http://www.w3.org/2000/svg"><path d="M-500-500h1200v675h-1200z" fill="#000"/><path d="M40-145c1.6-11.6 18 15.2 25.8 24 29.5 33.4 61.7 63.8 92 96.4 8.3 8.9 24 27.5 24.7 26.8 10.6-11.3 27.2-55.8 48.5-79.9 33.3-37.6 84.8-69.2 108.1-114.8 15-29.3 5-104.9 44.5-163.9 11.2-16.7 37.2-6.5 36.3 12.7-0.8 15.9-12.9 33.2-18.5 47.3-9.1 23-11.1 51.5-24.7 72.3-8.7 13.2-21.6 23.1-31.2 35.7-15.3 20.2-27.6 42.8-42 63.8-16.9 24.5-38.8 45.5-53.8 71.3-33.4 57.3-32 129.2-64.9 187.4-11 19.5-23.4 19.2-34.7 32.4-4.8 5.6-5.3 76.6-66.7 54.7-36.2-12.9-43.6-62.8-12.7-85.6 13.1-9.7 36.6-3.2 46-12.3 9.6-9.3 49.8-77.4 49.1-88-1-17.5-92.4-133.1-105.6-151.5-2.5-3.5-21.2-22-20.2-28.8z"  fill="#005bbb" /><path d="M545-496c-34-34-73-57-122-52-80 7-341 148-247 252 61 68 365 112 403-72 10-49-4-89-34-128z"  fill="#005bbb" /><path d="M132-225c-21-21-43-36-73-37-52-3-264 70-190 152 43 48 141 75 202 62 82-18 113-111 61-176z"  fill="#c2e1ff" /></svg>