<svg width="1200" height="675" viewBox="-500 -500 1200 675" xmlns="http://www.w3.org/2000/svg"><path d="M-500-500h1200v675h-1200z" fill="#000"/><path d="M48-185.2c1.1-4.1 171.7 163.9 179.6 153.2 2.9-3.9 43.3-139.3 44.1-149 1.4-18.1-4.9-36.5-2.1-54.2 5.7-35.4 42.1-69.3 63.5-95.9 11.4-14.1 27.7-45.5 49.9-29 20.9 15.6-10.7 44.1-18.2 53.4-20.8 25.9-78.1 84.2-85.1 116.9-3.5 16.5 0.5 34.5-1.6 51.4-2.5 20.1-8.1 39.7-10.7 59.8-11.5 90.9-5.5 150.9-80.8 225.9-10.9 10.9-24.2 12.6-35.6 21.4-7.7 5.9-3.9 68.6-63 53.9-35.4-8.8-48.8-53.6-24.4-80.6 17.7-19.5 53.5-10.6 56.2-12.7 10-8.1 17-22.4 25.5-32.1 11.1-12.6 76.3-80.9 66.5-97-10.9-17.7-36.5-33.1-50.8-48.5-26.2-28.1-47-60.6-72.2-89.6-4-4.6-43.2-38.3-40.8-47.3z"  fill="#fff500" /><path d="M448-401c-81-81-133-64-234-38-31 8-67 12-89 37-54 62-7 141 37 190 40 45 82 88 145 92 156 8 235-163 141-281z"  fill="#c2e1ff" /><path d="M362-228c-42-42-112-64-166-87-71-30-159-70-239-56-105 19-147 160-61 230 63 52 169 41 243 37 62-3 135 1 195-19 46-15 56-70 28-105z"  fill="#fff500" /></svg>