<svg width="1200" height="675" viewBox="-500 -500 1200 675" xmlns="http://www.w3.org/2000/svg"><path d="M-500-500h1200v675h-1200z" fill="#000"/><path d="M51.4 167.8c8.2-41.2 33.8-29.3 45-44.7 5.1-7 7.2-18.5 12.1-26.4 19.3-31.5 45.2-59 73.3-82.8 11.4-9.7 76.7-61.5 78.7-74.3 0.8-5.6-17.9-14.2-21.5-17.9-18.6-19.2-32.9-43.9-43.2-68.5-14.3-33.9-25.9-60.9-49.1-90.7-0.6-0.8-26.3-21.9-20.1-28.9 7.4-8.4 60.9 63.9 65.5 69.9 15.9 21.3 70.2 103.8 94.2 112.8 8.4 3.1 35.1-62.3 39.1-69 8.8-14.9 21.9-26 32.1-39.9 11.3-15.3 18.1-32.6 27.2-49.1 20.3-36.8 51.3-63.5 82.4-91.1 13.5-12 36.5-44.7 57.9-26.4 28.3 24.2-46.4 68.9-48.5 70.8-20.9 18.8-37 41.5-57.1 60.6-20 18.9-46.5 27.1-64.3 48.8-27.5 33.6-27.6 81.2-51.5 118.1-38.3 58.7-96.5 105.5-128.6 167.6-6.6 12.7-10.9 26.7-18.8 38.7-2.6 3.9-8.4 6-10.4 9.9-4.6 8.9 13.4 32.3-12.8 56.1-29.4 26.6-91.1 4.2-82.3-40z"  fill="#fff" /><path d="M649-493c-144-144-343 54-220 192 128 143 342-38 220-192z"  fill="#fff500" /><path d="M290-350c-137-137-325 65-187 187 54 48 160 38 199-10 13-15 16-43 21-61 4-15 18-45 14-61-5-20-33-41-47-55z"  fill="#005bbb" /></svg>