<svg width="1200" height="675" viewBox="-500 -500 1200 675" xmlns="http://www.w3.org/2000/svg"><path d="M-500-500h1200v675h-1200z" fill="#000"/><path d="M51.4 167.8c10.5-52.9 51.2-32.2 62.5-44.8 4.6-5.2 6.5-11.4 11.3-16.6 15.3-16.6 35.8-27.1 50.3-44.5 8.4-10 12.7-22.6 20.8-33.1 24.7-32 79.3-82.4 85.3-124.5 2.7-18.9-27.8-37.8-37.4-51.3-22.4-31.7-36.3-66-63.6-94.6-16.1-16.8-33.4-32.3-50.3-48.2-5.4-5-20.1-12.2-14.4-16.8 5.8-4.7 12.6 8.2 18.4 12.8 28.2 22.4 57.5 44.1 82.8 69.8 9.7 9.9 64.1 90.2 76.3 86.2 3.9-1.3 38.2-99.9 43.3-112.7 11.1-28.1 29.7-53.6 46.1-78.8 7.8-11.9 24.2-48.4 46-31.8 20 15.1-3.1 39.3-11.8 52.5-16.5 25.2-29.9 54.7-48.4 78.3-14.8 18.8-38 28-48.2 50.7-11.4 25.5-5.6 51.5-8.6 75.9-1.2 9.4-17 54.1-19.5 61.3-6.3 17.7-72.8 142.9-82.4 155.6-15.4 20.4-54.9 44.8-60.2 52.4-6.5 9.3-0.4 28-13.3 42.4-28.2 31.1-94.9 9.9-85.7-36.6z"  fill="#005bbb" /><path d="M684-386c-56-56-257-97-333-81-93 20-137 133-72 206 67 75 196 22 276 2 47-12 131-14 143-74 4-20-2-37-14-53z"  fill="#c2e1ff" /><path d="M158-355c-150-150-356 56-228 198 133 148 354-40 228-198z"  fill="#fff500" /></svg>