<svg width="1200" height="675" viewBox="-500 -500 1200 675" xmlns="http://www.w3.org/2000/svg"><path d="M-500-500h1200v675h-1200z" fill="#000"/><path d="M51.4 167.8c6.2-31 20.6-26.5 39.6-41.8 3.7-3 3.2-9.5 5.9-13.4 15.9-23 103.3-119.3 110.3-140.8 8.4-25.9-35-109.8-47.6-134-25.1-48.3-32.5-65.3-30.2-64.8 3 0.8 82.5 118 91.3 136 2.7 5.6 9.3 36.3 17.1 31.7 37.1-21.8 48.9-74.8 67.8-102.7 9.4-13.9 22.7-23.8 27.2-40.7 4.2-16-0.8-29.9 7.2-45.6 16.1-31.3 48.7-58.5 72.3-84.1 10.6-11.5 30.6-44.6 51.4-28 27.6 22-32.1 66.1-37.8 72.3-32.9 35.7-69.1 69.3-97.5 108.9-23 32.1-22.1 72.3-42.1 106.9-18.8 32.3-42.7 61.4-61.2 93.7-16.5 28.9-26.4 61.2-44.5 89.2-9.4 14.5-27.8 27.5-35.4 42.3-4.6 8.9 12 32-8.8 55.1-28.2 31.1-94.9 9.9-85.7-36.6z"  fill="#fff500" /><path d="M536-470c-20-20-42-35-72-37-61-3-297 119-228 196 26 29 82 25 117 26 48 0 106-1 151-22 64-30 73-111 32-163z"  fill="#fff500" /><path d="M389-276c-74-74-223-81-308-26-78 50-90 166-29 233 105 118 263 27 329-82 25-41 40-85 8-125z"  fill="#fff" /></svg>