<svg width="1200" height="675" viewBox="-500 -500 1200 675" xmlns="http://www.w3.org/2000/svg"><path d="M-500-500h1200v675h-1200z" fill="#000"/><path d="M51.4 167.8c7.6-38.4 24.9-30.4 50.6-42.4 6-2.8 14.6-32.6 18.1-38.5 24.5-41.1 63.6-78.6 66.6-130 2.3-39.2-50.4-105.6-71.3-134.9-27.8-38.8-33.7-49.3-31.3-49 11.4 1.4 103.7 127.4 116.1 131.2 4.6 1.4 8.9-1.7 11.9-4.6 42.1-41.8 90.2-81.8 124.9-130.2 15.5-21.6 32.5-42.4 44-66.6 3.7-7.7 20.2-88.1 53.2-63.6 17.1 12.8 0.3 38-5.1 51-47 114.2-51.8 70.4-116.3 122.2-23.9 19.2-44.2 48.3-63 72.5-43.2 56.1-21.5 105.5-44 168.4-10.4 29-26.7 59.9-40.9 87.3-3.9 7.5-14.5 13.1-16.6 20.6-4.8 17.3 2.5 30.8-11.9 46.8-28.2 31.1-94.9 9.9-85.7-36.6z"  fill="#fff" /><path d="M464-450c-101-101-249 37-159 137 92 103 246-28 159-137z"  fill="#c2e1ff" /><path d="M142-269c-33-33-70-53-117-58-46-5-201 11-243 38-17 11-28 30-31 49-5 24 1 47 17 65 52 58 168 154 244 160 143 11 216-146 130-254z"  fill="#fff500" /></svg>