<svg width="1200" height="675" viewBox="-500 -500 1200 675" xmlns="http://www.w3.org/2000/svg"><path d="M-500-500h1200v675h-1200z" fill="#000"/><path d="M-36-225c0.2-1.6 1.9-2.6 3.3-1.5 11.7 9.5 20.5 30.3 29.2 42.1 29 39.4 72.5 62.9 103.1 100.6 4 4.9 24.7 48.8 31.6 45.6 2.4-1.2 31.1-49.9 39.5-58.1 33.3-32.4 103.9-91.5 128.2-120.8 29.1-35.1 80.9-126.9 120.2-145.7 14.7-7 29.4 4.8 28.7 20.1-0.9 20.1-50.5 55.7-60.9 67.4-13.2 15-21.5 34.6-35.8 48.2-19.6 18.7-47.4 23.9-69.4 39.5-29.2 20.6-76.9 82-96.9 113.2-2.4 3.8-41.8 86.7-42.1 88.5-5.2 30.4 6 100.2-7.4 125.5-0.6 1 10.1 16.5 10.9 18.8 4.3 12.2 3.7 25.9-1.8 37.6-19.3 40.7-81.1 34.8-92-9-9.1-36.4 16.6-38 21.3-55.2 2.5-9.1 0.7-22.4 2.6-32.4 5.9-30.3 14.6-61.9 22.4-91.7 2-7.7 13.3-17.2 13.5-24.1 0.2-9.6-24.1-34.5-29-41.4-34-47.5-75.3-86.8-103.7-138.4-2.2-4-16.5-22.4-15.5-28.8z"  fill="#fff" /><path d="M785-396c-65-65-197-116-287-105-128 16-202 157-111 259 28 31 64 53 106 55 56 3 116-24 168-43 66-24 194-78 124-166z"  fill="#fff" /><path d="M102-303c-65-65-175-19-250 1-42 11-118 13-129 66-4 17 1 34 13 48 46 51 253 86 318 64 77-25 96-119 48-179z"  fill="#c2e1ff" /></svg>