<svg width="1200" height="675" viewBox="-500 -500 1200 675" xmlns="http://www.w3.org/2000/svg"><path d="M-500-500h1200v675h-1200z" fill="#000"/><path d="M-10-185.1c0.9-5.5 8.9 6.9 12 11.6 37.5 56.5 59.2 64.6 96.4 108.7 9.3 11.1 27 51.6 44.4 45.3 22.5-8.2 43.2-34.7 59.6-51.4 35-35.6 77.2-73.7 96.2-121.3 6-15 3.2-30.1 7.5-45.2 4-14 65-110.7 76.7-122.6 11.6-11.8 34.6-1 33.1 15.4-3.5 38.3-78.8 114.4-103.8 146.6-24.4 31.4-31.7 72.7-54.9 105.1-30.4 42.3-86.6 97.6-104 142.9-5 13-27 71.1-24.7 83.4 2.9 15.6 34.2 24 15.9 62.6-20.3 42.9-86 33.1-93-13.8-2.7-17.9 5.4-29.7 14.8-43.6 0.9-1.4-0.3-15 0.5-17.6 6.9-23.9 16.8-47.4 27.9-69.6 5.4-10.8 19.6-26.3 19.9-38.5 0.4-14.4-96.7-144.3-109.7-169.1-2.1-4.1-15.9-22.4-14.8-28.8z"  fill="#fff500" /><path d="M534-425c-138-138-327 51-210 182 122 136 325-37 210-182z"  fill="#c2e1ff" /><path d="M46-244c-22-22-45-38-77-39-47-2-259 50-182 135 37 41 109 92 164 92 101 1 158-108 95-188z"  fill="#005bbb" /></svg>