<svg width="1200" height="675" viewBox="-500 -500 1200 675" xmlns="http://www.w3.org/2000/svg"><path d="M-500-500h1200v675h-1200z" fill="#000"/><path d="M51.4 167.8c7.9-39.8 33.6-29.9 43.3-44.2 13.2-19.6 9.5-55.1 17.9-77.2 11.9-31.1 36.7-55.3 40.7-89.8 1-8.6-50.6-125-57.2-135.5-4.5-7-32.4-36-30-46.6 1.3-6.1 10.1 7.4 14 12.2 18.7 23 38.4 45.6 54.2 70.8 7.2 11.4 18.5 46.1 31.6 50.9 4.7 1.7 8.9-2.1 11.6-5.2 18.4-21.5 94-98.6 98.6-107.1 0.6-1.1 47.1-104.3 48.1-106.9 5.9-15.3 14.8-68.7 45.2-50.5 18.3 10.9 1.2 39.3-3.1 50.8-42 111-88.5 103.2-150.7 194.8-41.4 60.9-18.4 75.4-23 93.4-1 3.8-6.4 5.4-7.1 7.7-2.7 8.6-1.7 18.2-4.3 26.9-4.4 14.9-14.6 26.6-17 42.3-4.2 27.1-0.3 54.1-7.2 81.4-1.5 6-11.2 14.2-11.6 18.6-1.7 18.8 7.6 31.4-6 49.7-26.5 35.8-98.4 15.9-88.7-32.9z"  fill="#005bbb" /><path d="M497-390c-26-46-73-106-127-116-92-18-175 82-131 169 40 77 105 75 177 59 63-13 115-35 81-112z"  fill="#005bbb" /><path d="M141-232c-1-17-26-36-38-46-12-10-26-24-40-28-17-5-36-2-53 1-58 11-100 45-106 107-8 93 101 148 176 100 42-27 55-87 61-134z"  fill="#fff500" /></svg>