<svg width="1200" height="675" viewBox="-500 -500 1200 675" xmlns="http://www.w3.org/2000/svg"><path d="M-500-500h1200v675h-1200z" fill="#000"/><path d="M43-225.2c1.6-6.9 12.5 7 17.7 11.7 20.9 18.9 42.8 37.1 61.1 58.7 16.6 19.8 28.7 41 47 59.8 3.5 3.6 27.1 37.9 31.4 35.5 11-6.1 17.7-42.8 22.7-53.8 9-19.8 21.4-37.6 27.4-58.8 22.5-79.9 7.4-87.8 69.1-158 8-9.1 20.1-31.7 35.8-34.5 16-2.8 29.7 14.8 21.2 29.4-12.7 21.7-36.1 38.2-51.5 58.1-13.3 17.2-18.7 38.5-32.8 54.7-10.1 11.7-24 18.3-30.2 33.3-5.3 12.7-3.5 27.7-6.6 41-7.8 32.9-18.1 88.9-30.8 118-15.8 36.5-53.7 60.7-65.7 98.7-1.4 4.3-16.6 79.5-16.6 80.2 0.5 5.9 5.4 12.6 6.4 19 4.2 28.3-17.6 54.8-46.2 56.2-36.3 1.8-62.4-37.1-46.8-70 6-12.6 23.7-17 28.6-26.5 7.8-15.1 7.6-52.8 28.9-85.9 12.2-19 59-54.1 63.1-71.8 4.1-17.8-28.9-46.5-37.9-59.7-20.2-29.5-28-61.3-52.5-88.9-4.1-4.6-44.9-37.2-42.8-46.4z"  fill="#fff500" /><path d="M441-407c-161-161-382 60-245 213 142 159 380-43 245-213z"  fill="#005bbb" /><path d="M206-276c-26-26-61-61-99-67-153-23-284 138-173 262 61 68 181 74 244 3 20-23 25-58 33-87 12-41 23-75-5-111z"  fill="#fff" /></svg>