<svg width="1200" height="675" viewBox="-500 -500 1200 675" xmlns="http://www.w3.org/2000/svg"><path d="M-500-500h1200v675h-1200z" fill="#000"/><path d="M-40-265.1c1.2-7.3 13.4 6.5 19.2 11.1 45.3 35.7 94.7 68.5 136.9 107.9 8.5 8 61.3 65.8 62.1 65.8 10.3-0.4 107.5-87.2 117.3-102.4 11.8-18.3 2.7-32.3 4.1-51.5 1.4-21.5 16.4-39.4 22.1-59.9 5.3-19.3 3.7-41.7 11.6-60.1 8-18.5 37.1-10.9 37.6 8.3 1.8 64-58.7 163-99.9 211-56.3 65.5-86.4 78.2-115.1 164.1-7.2 21.6-15.9 43.7-18.7 66.5-1.3 10.5-6.3 31.5-4.4 41.6 3.5 19.3 30.7 27.3 9.3 62.9-25.6 42.7-93.7 22.2-91.1-27.6 0.9-17.4 12.1-23.6 18.7-37 3.6-7.2 3.7-36.5 7.2-47.5 9.4-30.6 25.7-59.1 41.1-87 3.8-6.9 36.5-59 36.1-61.3-3.1-17.6-28.4-33.5-39.3-46.5-33.5-39.3-66.8-75.3-104.7-110.6-4.6-4.3-51.7-38.1-50.1-47.7z"  fill="#005bbb" /><path d="M498-393c-125-125-309 45-198 170 114 128 305-34 198-170z"  fill="#fff500" /><path d="M49-437c-71-71-180-74-248 4-22 26-33 60-44 92-15 41-36 89-2 127 62 69 218 50 280-5 26-23 42-54 49-88 10-50-4-92-35-130z"  fill="#fff" /></svg>