<svg width="1200" height="675" viewBox="-500 -500 1200 675" xmlns="http://www.w3.org/2000/svg"><path d="M-500-500h1200v675h-1200z" fill="#000"/><path d="M51.4 167.8c10-50.2 43.9-33.2 58.4-42.4 7.7-4.8 11.9-18.8 17.4-25.8 28.1-36.8 62-72 66-121 2.5-30-76-114-93.9-139.6-0.1-0.2-50.8-65.8-37.3-66 4 0 37.7 48.8 45.5 57.5 24.1 27 54.6 45.9 77.2 74.5 2 2.5 18.4 29.2 22.5 27.2 7.8-3.7 16.8-50.2 27.1-65 17.1-24.8 49.2-42.7 60.6-70.5 5.7-14 3.9-30.2 7.1-44.9 7.8-35.1 22.2-75.7 39.1-107.4 5.6-10.4 19.3-11.1 28.4-5.7 17.7 10.7 1.8 37.6-2.6 49.3-10.8 28.4-18.1 64.3-36.9 88.7-27.5 35.7-68 60.7-84 105.2-17.8 49.4-8.6 107.1-19.6 158-8.3 38.4-30 84.5-58.5 112.1-5.3 5.1-14.4 6.9-18.3 13.1-6.4 10.2-1.1 26.9-10.2 39.2-26.5 35.8-98.4 15.9-88.7-32.9z"  fill="#c2e1ff" /><path d="M710-398c-67-67-232-126-325-116-134 15-212 164-116 271 29 32 67 55 111 57 60 3 125-26 181-43 69-21 231-66 149-169z"  fill="#c2e1ff" /><path d="M265-292c-21-67-83-147-156-161-111-21-213 89-175 199 9 26 26 47 46 65 53 49 109 55 178 47 98-11 131-49 107-150z"  fill="#005bbb" /></svg>