<svg width="1200" height="675" viewBox="-500 -500 1200 675" xmlns="http://www.w3.org/2000/svg"><path d="M-500-500h1200v675h-1200z" fill="#000"/><path d="M51.4 167.8c6-30.4 20.4-25.8 38.1-41.5 4.8-4.3 6.8-20.9 9.6-26.8 7.3-15.4 17-29 28.2-41.9 16.6-18.9 112.3-108.6 116-119.5 5-15-24.2-27.7-32.5-34.3-24.1-18.9-46.6-41.2-64.5-66-19.5-27-41.4-50.5-65.1-74-8.8-8.7-35.9-24.9-27.3-30.5 8-5.2 31.4 24.5 32.8 25.6 21.7 18.1 43.6 36.1 63.6 56.2 12.7 12.7 99.7 87.9 110.4 85.5 6.4-1.4 12.9-20.1 16.7-25 17.6-23.2 39.2-42.9 53.9-68.3 9-15.6 14-32.9 23-48.5 19.7-34.2 53.8-62.4 80.3-91.3 10.6-11.6 30.4-44.3 51.1-27.9 22.3 17.7-12.5 44.9-21.9 55.1-20.9 22.8-41.3 46.6-63.5 68.2-21.9 21.2-53.6 32.1-69.7 58.7-14.7 24.4-36.1 52.5-43.3 80.2-4.4 16.9 1.4 35-1 38.9-2.4 4-10.4 3.5-11.4 5.1-7.9 12.1-12.5 25.6-21.4 37.3-27.6 36.3-60.3 70.8-82.7 110.9-1.5 2.7-24.8 53.8-26.2 58.1-5.1 15 17.4 33.1-11.6 59.3-29.4 26.6-91.1 4.2-82.3-40z"  fill="#c2e1ff" /><path d="M771-401c-79-79-209-113-315-78-113 37-153 185-74 273 30 34 71 58 117 60 96 5 373-128 272-255z"  fill="#005bbb" /><path d="M126-386c-27-27-56-47-95-49-60-3-140 34-195 54-52 19-226 75-149 162 33 36 101 44 146 53 78 15 176 32 251-3 85-40 97-148 42-217z"  fill="#005bbb" /></svg>