<svg width="1200" height="675" viewBox="-500 -500 1200 675" xmlns="http://www.w3.org/2000/svg"><path d="M-500-500h1200v675h-1200z" fill="#000"/><path d="M51.4 167.8c10-50.5 43.7-33.1 59.1-42.3 9.6-5.7 21.9-27.4 33-36.2 58.6-47 54.7-36.3 99-95.6 4.2-5.7 11.1-10.1 12.1-17.6 2.6-19.2-84.9-137.7-100.6-154.4-12-12.8-46-43-45-47 1.2-5 27.8 17.5 69.5 56.7 27.1 25.4 54.4 55.9 78 84.7 5.9 7.2 14.1 35.4 21.8 38.9 3.7 1.7 21.2-45 22.3-49.1 7.7-30.2 16.5-65.5 16.7-96.7 0.1-11.2-2.9-21-4.6-32-6-39.7 26.8-77 48.3-106.5 9.3-12.8 24.8-46.3 47-32.4 28.2 17.8-19.1 60.9-25.4 69.7-19.3 26.7-42.4 61.6-54.7 92.4-13 32.6-0.9 78.1-3.7 113-3.5 43.4-27.9 70.8-46.6 107.6-8.3 16.4-13.8 33.2-24.9 48.2-20.5 27.8-48.7 54-74.8 76.5-7.6 6.5-22.7 11.5-28.2 19.8-8.6 12.8 3.9 31-20.4 48.9-30.1 22.3-86.9-1.1-78.6-43z"  fill="#005bbb" /><path d="M583-389c-57-57-188-100-267-90-110 13-176 136-96 225 24 27 56 46 92 47 49 2 104-22 150-37 57-19 187-63 121-145z"  fill="#fff" /><path d="M184-283c-39-39-80-44-132-27-13 4-31 9-41 19-6 6-30 95-28 104 4 14 16 27 26 37 112 123 266-18 175-133z"  fill="#c2e1ff" /></svg>