<svg width="1200" height="675" viewBox="-500 -500 1200 675" xmlns="http://www.w3.org/2000/svg"><path d="M-500-500h1200v675h-1200z" fill="#000"/><path d="M47-265c1.6-11.6 18 15.1 25.7 23.8 34.8 39.4 74 70.4 113.5 104.6 8.8 7.7 44.9 58.2 56.7 41.1 10.7-15.7 48.4-80.5 53.9-96.5 8.3-23.9-1.2-48.6 3.3-72.7 4.3-23.4 22.9-44.5 36.4-63 6.4-8.7 30.2-53.7 50.9-32.1 24.2 25.3-30.6 64-39.3 78.7-11 18.3-6.8 38.1-16.8 56.1-9.2 16.8-24.5 28.2-32.6 46.1-20.1 44.4-36.7 93.7-45.8 141.6-4.5 23.6-3 46.6-11.9 69.5-15.4 39.5-43.4 78.8-70.6 111.1-5.9 7-13.8 10.4-19.6 16.8-9.8 10.8 7.1 61.2-48.4 63.9-36.3 1.8-62.4-37.1-46.8-70 15.4-32.4 41.6-21 50.4-29.1 6.3-5.9 8.9-17.3 14.6-24.3 39.9-48.5 91.1-85.9 101.3-151.7 3.1-19.8-33.6-43.2-45.2-55.2-39.3-40.9-76.2-83.8-109.3-129.8-2.5-3.5-21.4-22.1-20.4-28.9z"  fill="#005bbb" /><path d="M474-474c-144-144-343 54-220 192 128 143 342-38 220-192z"  fill="#fff500" /><path d="M363-309c-32-32-91-31-132-31-73-2-164-5-232 27-77 36-96 143-40 205 24 26 55 45 90 47 75 4 299-113 327-182 9-23 2-47-13-65z"  fill="#c2e1ff" /></svg>