<svg width="1200" height="675" viewBox="-500 -500 1200 675" xmlns="http://www.w3.org/2000/svg"><path d="M-500-500h1200v675h-1200z" fill="#000"/><path d="M51.4 167.8c10.1-50.6 43.6-33 59.5-42.2 8.7-5 14.1-19.9 21.4-27.1 25.1-24.8 50.6-49 75.5-73.9 21.8-21.7 133.9-115.8 129.7-144.2-3.3-21.8-84.3-116.9-100.7-138.3-36.7-47.9-36.8-49.8-33.4-49 8 1.6 153.5 162.5 157.2 161 30-12.2 80.8-100.4 102.7-127.7 16.9-21 36.5-39.8 55.5-58.8 7.8-7.7 36.1-47.6 54.9-27.1 24 26.2-31.7 60-42.5 70.9-19.4 19.5-35.5 43.8-56.2 61.8-22.4 19.4-52.1 25.5-71.9 48.6-11.8 13.8-33.1 36.7-37 55.2-1.7 7.9 6.5 15 2.7 22.8-2 4-6.3 6.5-10.8 6.1-2.3-0.2-5.2-4.7-6.2-2.7-8 15.7-9.9 31.4-20.8 46.6-26.2 36.6-56.4 70.3-83.2 106.3-17.1 22.9-31.4 47.4-50.5 69-10.2 11.5-43.6 34.8-47.6 40.5-8.5 12.3 3.6 31-20.4 48.8-30.1 22.3-86.9-1.1-78.6-43z"  fill="#fff" /><path d="M616-484c-22-22-45-38-77-39-64-3-347 130-270 215 30 33 101 25 140 25 55-1 122-2 173-26 68-32 78-120 34-175z"  fill="#005bbb" /><path d="M257-424c-20-20-42-35-72-37-58-3-326 109-253 190 24 26 75 26 107 28 58 3 131 7 186-18 64-30 73-111 32-163z"  fill="#c2e1ff" /></svg>