<svg width="1200" height="675" viewBox="-500 -500 1200 675" xmlns="http://www.w3.org/2000/svg"><path d="M-500-500h1200v675h-1200z" fill="#000"/><path d="M26-185.2c1.2-5.9 9.9 7.1 13.7 11.9 35.2 45 66.8 87.2 108.7 125.8 4.9 4.6 28.2 37.2 35.9 24.4 16.9-28.2 35.2-165.2 41.6-203.2 6.3-37 37-71.1 55.2-103.1 7.2-12.6 20.6-47.1 42.6-32.4 20.9 13.9-0.7 39.6-8.5 53.4-14.9 26.2-29.4 54.1-49.2 77.1-9.9 11.5-24 20.1-32.4 32.8-3.7 5.5-5.9 11.6-6.6 18.2-2 20.5 3.6 41.5 3.5 62-0.1 34.7-6.3 104.9-15.5 137.2-8.6 30-18.2 63.5-33.2 90.8-6.1 11-33.8 39.1-36.1 45.4-4.2 11.6 16.9 60.2-38.5 68.5-38 5.7-68-34.8-51.6-69.6 10.2-21.6 32-19 40.3-30.8 11.6-16.4 70.5-91.8 67.8-109.6-2.4-15.7-43.8-48.4-55.3-62.3-22.4-27-35.4-60.2-53.6-89.9-4-6.5-30.7-37.1-28.8-46.5z"  fill="#005bbb" /><path d="M593-387c-56-56-222-113-299-106-103 9-165 130-91 212 65 72 184 34 264 18 48-10 128-10 141-70 4-21-2-38-15-54z"  fill="#fff500" /><path d="M220-297c-148-148-352 55-226 196 131 147 350-39 226-196z"  fill="#fff500" /></svg>