<svg width="1200" height="675" viewBox="-500 -500 1200 675" xmlns="http://www.w3.org/2000/svg"><path d="M-500-500h1200v675h-1200z" fill="#000"/><path d="M-10-144.9c0.9-12.2 19.7 14.9 28.3 23.6 31.5 31.7 168.9 139.6 180.4 135.2 26.7-10.1 44-52.6 62.3-72.8 30.1-33.2 97.8-94.1 118.2-133.4 9.3-17.8 1.8-36.9 9.3-55.3 2.7-6.7 58.1-109.5 60.3-111.4 11.4-10 33.7-5.6 34.1 12.3 0.6 41.6-71 123.9-97 158.1-20.3 26.8-30.6 57.8-49.3 85.2-14.6 21.4-33.1 40-47.6 61.6-28 42-60 109.8-88 153.6-16.8 26.2-48.1 48.4-51.4 53.5-4.6 7-4.2 78.1-66.2 55.9-36.2-12.9-43.6-62.8-12.7-85.6 12.5-9.2 29-3.7 39.5-10.1 2.8-1.7 66.1-74.8 60.9-86.4-7.8-17.5-38.1-34.6-52.1-47-38.1-33.9-73.2-68.6-105.6-108-2.8-3.4-23.9-21.9-23.4-29z"  fill="#fff500" /><path d="M678-366c-80-80-210-75-315-74-68 1-174-5-238 16-55 18-74 90-36 134 40 44 109 71 160 96 93 47 200 107 308 103 146-4 207-167 121-275z"  fill="#c2e1ff" /><path d="M206-187c-56-56-269-68-340-34-74 35-92 137-38 196 22 25 52 43 86 44 64 3 137-36 193-63 51-24 154-74 99-143z"  fill="#005bbb" /></svg>