<svg width="1200" height="675" viewBox="-500 -500 1200 675" xmlns="http://www.w3.org/2000/svg"><path d="M-500-500h1200v675h-1200z" fill="#000"/><path d="M51.4 167.8c4.3-21.8 17.2-25.2 30.6-39.2 3.4-3.6 4.8-28.4 6.8-33.9 8.8-24.9 23.5-48.4 41.7-67.4 16.3-17.1 54.8-37 62.1-60.7 4.6-14.8-21.4-44.2-27.4-57.6-10.5-23.2-16.5-47.8-24.2-72-17.7-56.4-18.4-64.1-17.4-63.9 9.2 2.2 18.5 38.3 21.2 44.1 18.8 40.2 39.6 82.4 67.3 117.4 3.8 4.8 8.6 2.1 12-1.4 58.6-60.7 128.3-94.2 160-126.4 18.4-18.7 19.9-46 32.3-68.4 14.2-25.7 35.4-47.7 54.6-69.5 12-13.5 30.8-46.4 52.8-28.3 25.3 20.9-31.8 64.4-36.2 69.4-19.1 21.8-32.9 49.6-54.1 69.2-40.9 38.1-89.4 67.8-129.9 107.2-36.6 35.6-57.6 77.6-87.7 117.8-18.9 25.3-46.1 45.9-58.1 75.7-2.2 5.5-17.1 64-16.5 67.6 4.3 24.2 14.5 43.2-8.3 63.9-29.4 26.6-91.1 4.2-82.3-40z"  fill="#c2e1ff" /><path d="M545-429c-101-101-249 37-159 137 92 103 246-28 159-137z"  fill="#fff500" /><path d="M306-327c-30-30-63-53-107-55-59-3-125 26-181 42-57 17-178 34-184 111-2 21 6 40 20 55 60 67 277 122 363 104 121-26 164-163 89-257z"  fill="#fff500" /></svg>