<svg width="1200" height="675" viewBox="-500 -500 1200 675" xmlns="http://www.w3.org/2000/svg"><path d="M-500-500h1200v675h-1200z" fill="#000"/><path d="M51.4 167.8c9.3-46.7 44.2-33 52.5-43.1 8.4-10.3 13.3-49 46.6-87.7 23.9-27.7 115.9-88.8 115.8-125-0.1-34.8-104.8-128.2-127.6-147.9-3.4-2.9-33.5-20.2-32.7-29.2 0.3-2.8 21.6 11.6 60.7 40.7 17.9 13.3 118.5 104.5 120.8 105.6 1.7 0.9 10.1-10.3 16-16.1 17.5-17 32.5-34.3 41-57.4 8.8-24.1 9.5-49.4 15-74.2 4.7-20.9 15.4-40.5 24.8-59.4 5.3-10.8 19.2-52 41.9-36.2 24.2 16.9-5.4 50.2-13.2 66.3-10 20.4-12.5 43.9-22.7 63.6-9.4 18.2-28.7 26.3-39.2 43.7-8 13.2-10.4 28.6-18.4 42-10.1 16.9-26.1 31-32.7 49.8-4.3 12.6 8 26.7 1.3 37.5-2.2 3.6-6.5 5.6-10.8 5-2.3-0.3-5-4.9-6.1-2.9-8 13.1-10 27.7-19.8 40.4-25.8 33.6-60 60.5-80.6 98.2-10 18.4-11.7 38.6-18.8 57.9-3.6 9.8-13.8 13.5-16.7 22.1-6.3 19.4 4.8 31.5-15.5 49.9-29.4 26.6-91.1 4.2-82.3-40z"  fill="#c2e1ff" /><path d="M568-383c-50-50-136-89-206-80-95 12-152 118-83 194 21 23 48 40 80 41 53 3 284-62 209-155z"  fill="#fff" /><path d="M404-304c-32-32-84-46-124-62-75-28-159-63-241-58-98 6-155 122-88 198 59 66 204 43 281 36 44-4 113-3 154-21 36-17 41-64 18-93z"  fill="#005bbb" /></svg>