<svg width="1200" height="675" viewBox="-500 -500 1200 675" xmlns="http://www.w3.org/2000/svg"><path d="M-500-500h1200v675h-1200z" fill="#000"/><path d="M51.4 167.8c6.3-31.5 21-27.5 41.4-42.2 6.2-4.5 10.3-22.1 14.7-28.8 10-15 30.3-32.7 35.2-50.1 3.2-11.2-54.4-148.9-62.6-163.8-21.5-39-17.3-37.4 6.7-3.1 26.1 37.4 62.5 115.6 76.3 133.9 3.6 4.7 9.2-0.7 11.7-3.2 21.8-22.8 26.7-58.8 42.5-85.8 15-25.7 31.3-53.2 48-77.8 12.4-18.3 30.6-31 41.1-50.7 8.3-15.6 11.3-32.8 20.6-48.1 9.6-16 22.4-29.2 31.4-45.8 6.2-11.4 22.6-86.1 56.1-62.8 17.8 12.3-2 40.4-7 51.4-47.7 103.6-88.4 87.4-125.1 150.9-10.3 17.8-38.4 91-44.2 112.3-6.1 22.5-7.6 46.2-16.5 67.8-15.2 37.1-40.1 71.2-57.9 107.3-2.7 5.5-17.7 20.3-18.4 25.5-2.7 21.4 10.4 31.7-9 53.3-28.2 31.1-94.9 9.9-85.7-36.6z"  fill="#fff" /><path d="M521-384c-26-26-58-60-96-64-110-13-205 105-122 198 49 55 133 52 187 5 34-29 60-101 31-139z"  fill="#c2e1ff" /><path d="M266-251c-169-169-403 63-259 223 150 168 401-45 259-223z"  fill="#fff" /></svg>