<svg width="1200" height="675" viewBox="-500 -500 1200 675" xmlns="http://www.w3.org/2000/svg"><path d="M-500-500h1200v675h-1200z" fill="#000"/><path d="M51.4 167.8c7.5-37.5 33.8-31.3 41-43.6 8.8-15 5.1-35.1 15.8-51.4 19-28.9 46.3-49.9 67.7-76.5 14.5-18 20.8-42.4 32.8-62.3 4.8-7.9 15.5-19.1 18-27.9 2.8-9.7-75.7-77.4-90.8-97-25.1-32.7-42-71.9-60.3-108.6-0.4-0.9-2.5-12.1 1.1-6.5 17.9 27.5 34.9 56 55.9 81.3 25.2 30.3 79.7 71.8 113 104.3 1.2 1.2 40.7-47.8 43.9-52.7 21.4-33.1 42.5-71.5 55.5-108.7 5-14.2 8.3-28.8 11.8-43.4 4.1-17.2 10.3-51.4 36.4-36.3 16.8 9.8 4.2 37.3 1.3 48.9-7.1 28.2-13.9 61.9-34 84.2-17.9 19.9-46.6 24.9-59.5 49.9-19.6 37.9-42.8 74.6-59.6 114-12.1 28.5-15.6 61.1-30.4 88.2-13 23.8-37.4 41.8-48.5 66.4-7.6 16.9-4.3 35.1-9.8 52.3-1 3-8.4 8.4-7.9 11.4 3.2 20.3 7.2 36.9-8.4 54.2-28.2 31.1-94.9 9.9-85.7-36.6z"  fill="#fff500" /><path d="M539-382c-53-53-171-73-240-51-75 25-102 123-49 182 20 23 47 38 78 40 62 3 284-79 211-171z"  fill="#fff" /><path d="M149-425c-27-27-57-45-96-42-62 5-279 117-204 201 47 53 297 87 327-59 8-38-3-70-27-100z"  fill="#c2e1ff" /></svg>