<svg width="1200" height="675" viewBox="-500 -500 1200 675" xmlns="http://www.w3.org/2000/svg"><path d="M-500-500h1200v675h-1200z" fill="#000"/><path d="M51.4 167.8c10.9-55 51.3-30.8 65.6-44.4 12.8-12.1 17.7-32.8 28-47 20.5-28.2 55.5-53.6 63.6-89.7 2.3-10.2-44.6-95.4-51.8-109-25.4-47.8-33.7-64.6-32.8-64.7 14.9-0.9 87.1 159.2 112.6 128.6 18.3-22.1 26.5-52.1 43.7-75.5 18.5-25 48.3-42.6 62.9-69.8 15.5-28.9 19.1-190.7 65.1-157.7 15.5 11.1 5.5 32.6 2.2 46.8-6.6 28.7-8.8 69.4-28.5 92.8-30.7 36.4-59.1 41.7-86.3 94.8-23.1 45.1-32.2 100-50.6 146.1-12.4 31.1-32.6 58.4-48.5 88.2-8.1 15-12.9 32.5-24.8 45.2-6.3 6.7-15.8 7.4-21.6 14-7 8-1.5 30.7-17.2 44.9-29.4 26.6-91.1 4.2-82.3-40z"  fill="#c2e1ff" /><path d="M583-391c-8-27-30-49-49-69-28-29-56-57-97-64-104-20-199 74-179 179 12 63 73 118 137 120 28 1 53-7 80-14 51-15 87-28 102-81 7-23 10-46 6-71z"  fill="#fff" /><path d="M439-227c-53-53-157-135-231-141-112-10-185 124-109 209 57 64 149 54 226 47 47-4 116-3 128-61 4-20-2-38-14-54z"  fill="#fff500" /></svg>