<svg width="1200" height="675" viewBox="-500 -500 1200 675" xmlns="http://www.w3.org/2000/svg"><path d="M-500-500h1200v675h-1200z" fill="#000"/><path d="M-44-185.1c1.5-7 12.8 6.7 18.3 11.4 14.4 12.3 159.2 145.7 167.2 145.4 2.4-0.1 17.2-42.4 19.4-46.1 23.2-39.6 58.1-72.4 72.7-117.5 7.2-22.2 0.5-44.4 10.5-66.4 9.5-20.8 49.3-91.6 67.1-102.7 12.9-8.1 34.2-0.3 31.7 17.4-3.8 26.5-76.2 116.1-96.3 145.2-17.4 25.1-20.1 55.6-31.4 83.2-7.1 17.4-19.7 31.5-26.8 48.9-17.6 43.1 0.1 92-7.8 136.9-7 40-33.3 68.4-36.4 80.9-0.8 3.1 18.3 82.4-51.4 72.1-34-5.1-52.7-44.3-34.9-73.8 8-13.4 21.2-14.1 30.7-23.3 3.8-3.7 4.9-14.5 8-19.3 15.7-24.6 49.7-63 38.6-96.2-7.6-22.7-43.9-42.4-60.3-59-27.3-27.8-46.3-61.8-73.4-90-4.3-4.5-47.5-37.8-45.5-47.1z"  fill="#fff500" /><path d="M582-389c-56-56-302-50-371-17-79 37-98 146-41 210 24 27 56 46 92 47 71 4 150-43 210-76 40-22 105-52 123-98 10-24 2-48-13-66z"  fill="#fff500" /><path d="M258-234c-64-64-303-121-392-102-109 23-161 157-84 243 78 88 230 30 325 8 56-13 154-16 168-86 5-24-2-44-17-63z"  fill="#fff500" /></svg>