<svg width="1200" height="675" viewBox="-500 -500 1200 675" xmlns="http://www.w3.org/2000/svg"><path d="M-500-500h1200v675h-1200z" fill="#000"/><path d="M51.4 167.8c7.4-37.4 34.3-31.7 41.2-43.8 26.1-46.3 62.2-93 96.3-135.2 12.6-15.5 42-37 47.1-56.7 3-11.6-23.4-85.2-30.4-97.5-7.3-13.1-81.4-96.4-76-101 4-3.4 31.1 23.1 84.2 83.5 16.1 18.3 27.4 37.5 36.1 60.2 1.1 2.8 6.2 26.3 11.6 22.8 17.4-11.4 26.3-54 35.5-71.9 11.8-23 21.9-47 34.2-69.7 10.3-19 24.3-35.1 32.5-55.1 3.5-8.6 12.9-86.6 47.2-65.1 13.9 8.7 7.6 24.3 3.6 36.6-11.2 34.4-21.5 71.2-48.4 97.1-18.2 17.4-46.5 24.3-57.4 48.7-15.1 33.9-15.6 72.7-31.5 106.8-13.9 29.6-35.3 55.1-51.5 83.4-20.1 35.3-35.3 73.2-56 108.3-6.8 11.4-18.7 22.4-24.5 33.7-4.5 8.9 12.1 32-8.8 55.1-28.2 31.1-94.9 9.9-85.7-36.6z"  fill="#fff500" /><path d="M520-396c-24-24-50-36-83-40-41-5-222 16-260 41-14 9-22 23-25 39-4 19 1 37 13 50 45 51 202 115 268 111 102-8 149-121 87-201z"  fill="#fff500" /><path d="M403-314c-58-58-172-140-254-143-132-7-218 144-127 246 25 28 57 45 94 50 45 8 231-15 273-42 38-25 41-77 14-111z"  fill="#005bbb" /></svg>