<svg width="1200" height="675" viewBox="-500 -500 1200 675" xmlns="http://www.w3.org/2000/svg"><path d="M-500-500h1200v675h-1200z" fill="#000"/><path d="M51.4 167.8c6.5-32.5 20.7-24.6 36.3-41.1 3.8-4 4.7-14.1 8.3-19.4 23.4-33.8 45.5-71.4 74.8-100.3 28-27.6 86.6-77.8 81.3-88.4-3.7-7.3-10.8-12.4-14.7-19.8-18.1-34.8-26.5-75.5-49.2-117.4-18.5-34-25.1-47.6-24.2-48.1 6.4-3.4 15.8 19.4 20.7 26.2 24.2 34.6 50.2 68.4 68.7 106.5 0.2 0.4 9.8 20 10.8 18.3 19.2-30.8 47.7-50.8 71.6-77.3 13.5-15.1 20.9-33.3 32.7-49.4 16.5-22.3 39.6-38.5 58.6-58.4 22.7-23.8 54.6-82.2 78.5-59.6 20.6 19.4-9.3 41.9-21.2 55.4-21.4 24.3-42.9 48.9-68.3 69.2-35.2 28.1-74.6 42-103.5 78.4-14 17.7-32.2 42.5-30.9 66.4 0.5 10 14.5 20.7 8.9 31.1-2.1 4-6.6 6.3-11 5.7-2.3-0.3-5-4.9-6.2-2.9-7.9 13.1-9.9 27.6-19.6 40.3-18.2 23.9-43 42.6-58.6 68.6-10.6 17.6-14.7 37.8-23.7 56.2-7.4 15.2-18.8 27.3-27.1 41.3-4.9 8.4 16 37.2-11.4 62.1-29.4 26.6-91.1 4.2-82.3-40z"  fill="#fff500" /><path d="M606-438c-28-28-59-50-101-51-48-2-383 73-276 192 53 60 194 113 272 104 123-14 182-147 105-245z"  fill="#005bbb" /><path d="M258-331c-22-22-47-39-80-41-52-3-270 56-190 145 38 43 115 91 172 91 105 0 165-112 98-195z"  fill="#fff500" /></svg>