<svg width="1200" height="675" viewBox="-500 -500 1200 675" xmlns="http://www.w3.org/2000/svg"><path d="M-500-500h1200v675h-1200z" fill="#000"/><path d="M-13-265.1c1.3-7.2 13.1 6.5 18.8 11.1 41.5 33.5 85.6 63.9 126.7 97.8 15.2 12.6 59.3 65 77.4 60.7 44-10.3 92.1-109.4 111.7-145.8 10.5-19.6 25.9-35.5 35.2-55.8 8-17.4 9.2-45.9 22.7-60.4 11.6-12.5 37.5-6.8 35.4 13.2-1.2 11.7-7.4 23.3-11.3 34.1-33.4 91.3-34.8 63.4-90.4 113.2-23 20.7-32.8 57.8-51 83.1-28.2 39.1-106 120.7-114.3 158.1-5.4 24.2-0.9 50.5-3.4 75.2-0.7 7.3-5.2 16.4-5.3 23.1-0.4 19.4 21.3 27.1 2.9 57.7-26.9 44.8-98.4 19.4-90.7-32.4 2.9-19.6 19.2-23.6 25.9-38.5 13.5-30.1 2.5-76.2 41.1-128.2 8.5-11.5 63.6-59.3 62.9-68-1.2-15-27.5-29.3-36.9-39.4-41.5-44.8-83.6-87-127.8-129.5-2.4-2.3-31-21.8-29.6-29.3z"  fill="#005bbb" /><path d="M555-420c-157-157-372 58-240 206 139 155 370-42 240-206z"  fill="#c2e1ff" /><path d="M252-310c-60-60-250-112-332-95-101 21-149 145-78 225 69 78 193 29 277 7 50-13 135-16 148-79 5-22-2-41-15-58z"  fill="#005bbb" /></svg>