<svg width="1200" height="675" viewBox="-500 -500 1200 675" xmlns="http://www.w3.org/2000/svg"><path d="M-500-500h1200v675h-1200z" fill="#000"/><path d="M51.4 167.8c10-50.1 42.3-32.2 57.8-42.5 8.8-5.9 55.3-74.3 65-87.6 13.8-19 51.9-45.1 54.6-69.6 1.8-16.2-71.8-109.3-83.9-129.5-23.9-39.9-39.5-69.4-32-65.4 11.4 6.1 32 46.2 41 57.7 20.8 26.5 46.7 48.4 68.6 74 2 2.4 20.4 29.8 24.1 28.1 2.8-1.3 72-114.1 75.3-124.9 5.6-18.4-2.9-36.1 3.6-54.6 8.2-23.3 26.9-45.1 39.8-66 5.8-9.3 28.2-68.2 55.1-48.9 20.5 14.7-2.3 39.8-10.7 53.3-26.4 42.7-65 83.4-85.6 129.2-14.9 33.2-30.1 68.4-42.4 102.6-9.4 26.3-11.2 52.8-24.2 78.2-9.2 17.9-21.5 33.4-31.5 50.7-13.3 23-20.9 48.2-35.8 70.4-10.2 15.3-37.8 36.6-40.8 41.8-6.8 11.6 1 27.6-13 43.2-28.2 31.1-94.9 9.9-85.7-36.6z"  fill="#005bbb" /><path d="M561-379c-41-41-98-97-159-100-100-5-155 118-78 185 15 13 33 21 52 25 38 7 260-16 185-110z"  fill="#c2e1ff" /><path d="M233-352c-158-158-376 59-242 210 140 157 374-42 242-210z"  fill="#fff" /></svg>