<svg width="1200" height="675" viewBox="-500 -500 1200 675" xmlns="http://www.w3.org/2000/svg"><path d="M-500-500h1200v675h-1200z" fill="#000"/><path d="M51.4 167.8c6.3-31.4 26.1-33.5 51.2-42.3 3.7-1.3 6.6-14 8.7-16.8 7.4-10 16.9-18.5 25.9-27 17.3-16.2 76.9-56 84.1-75.7 1-2.8-48.9-112.8-54.4-128.3-14.8-41.6-21.6-65.2-17.5-64.6 9.3 1.4 17.8 38.3 20.3 43.5 13.5 28.8 32.9 52.7 49.1 79.7 7 11.6 13.4 30.8 23.1 40.3 6.7 6.5 17.9 0.2 23.8-3.5 26.4-16.4 122-119.1 139.6-146.2 21.5-32.9 17.3-70.7 32.3-105 9.9-22.8 25-43.2 38.5-63.9 7.3-11.1 21.9-33.5 38.2-18.6 25.4 23.1-24.4 66-32.4 80.5-8.7 15.6-9.9 33-18.1 48.3-9.8 18.4-29.6 26.4-41.3 43.4-8.8 12.9-13 28.5-20.7 42.1-10.7 18.6-76.5 114.8-89.3 129.7-16.2 18.8-35.7 34.7-52.2 53.4-30.8 35-60.5 71.3-91.8 105.7-5.3 5.8-13.8 10-18.4 16.1-9.4 12.4 6.3 35.7-20.8 55.8-30.1 22.3-86.9-1.1-78.6-43z"  fill="#005bbb" /><path d="M636-371c-102-102-251 37-160 138 93 104 248-28 160-138z"  fill="#fff" /><path d="M380-244c-50-58-119-151-201-155-135-7-222 154-129 258 28 31 65 53 107 59 35 4 71-4 106-11 53-10 125-13 137-77 6-28-5-51-20-73z"  fill="#fff500" /></svg>