<svg width="1200" height="675" viewBox="-500 -500 1200 675" xmlns="http://www.w3.org/2000/svg"><path d="M-500-500h1200v675h-1200z" fill="#000"/><path d="M51.4 167.8c11.7-58.6 58.8-33.5 69.3-37.9 13.7-5.9 27.8-31.7 38.9-42 23.2-21.4 52.4-39.1 72-64 12.5-15.8 20.3-36.1 31.9-52.8 5.4-7.9 16.7-19.2 19.6-28.5 8.3-27.4-68-44.4-105.6-116.4-12.6-24.2-18.9-50.7-25.8-76.8-1.4-5.3-7.5-14.2-2.4-16.3 9.1-3.7 9 17.4 12.5 26.5 9 23 18.4 46.2 35.3 64.8 12.3 13.7 84.5 76.3 98.6 81.1 5.2 1.8 9.7 0.5 13.3-3.7 15-17.6 54.6-64.2 59.6-83.9 5.4-21.1-1.7-41.2-2.1-62.3-0.9-60.6-11-142.1 30-117.5 23 13.7 10.6 114 6.9 125.4-5.7 17.6-19.8 30-26 47.4-3.7 10.5-3.9 21.4-7.8 31.8-8.6 22.7-27.1 39.3-36 62.1-15.8 40.4-49 131.7-71.5 163.8-19.3 27.6-46.7 57.4-72 79.6-8.5 7.5-36.2 13.8-40.8 23.1-8.1 16.1-0.2 28.5-20 43.1-30.1 22.3-86.9-1.1-78.6-43z"  fill="#c2e1ff" /><path d="M529-427c-25-25-53-44-90-47-86-4-252 88-177 172 35 39 88 89 141 94 124 12 204-121 126-219z"  fill="#fff" /><path d="M223-373c-26-26-56-43-94-40-92 8-200 126-146 186 71 80 242 67 266-49 8-37-3-68-26-97z"  fill="#fff" /></svg>