<svg width="1200" height="675" viewBox="-500 -500 1200 675" xmlns="http://www.w3.org/2000/svg"><path d="M-500-500h1200v675h-1200z" fill="#000"/><path d="M9-185c0.8-5.8 9.6 7 13 11.7 23.1 31.8 43.9 70 72.7 97 15 14 31.9 25.4 46.2 40.2 5 5.2 23 35.3 32.8 32.5 6.8-1.9 20.1-16.8 25.6-20.8 72.2-53.9 55.3-61.5 94.4-128.1 10.7-18.2 26-32.8 36.2-51.4 15.2-27.5 24.5-56.1 45.5-80.2 22.5-25.9 49.9-59.6 79.3-78 12-7.5 30.6 1.4 30.2 16.3-0.8 24.9-36.3 43.4-50.1 56.8-19.5 18.9-33.9 41.6-52.6 60.7-18.7 19-44.6 27.1-60.5 49.3-27.5 38.4-22.8 88.9-47.1 129-22.8 37.6-64.7 60.9-85.1 99.4-12.6 23.9-12.9 54.3-21.6 79.9-4.1 12-17 21.2-19.6 31.6-2.1 8.1 1.5 17.3-0.7 26.1-7.8 31.4-45.1 46.8-72.8 30.1-29.5-17.7-31.7-61.1-4.1-81.5 9.7-7.2 21.8-5.2 31-10.3 7.6-4.2 16.6-41.4 21.5-54.1 2.8-7 25.5-50.1 25.3-52.5-2.1-19.2-56.3-60.9-70-78.7-18.1-23.5-28.6-52.9-43.2-78.7-4.2-7.5-27.6-36.1-26.3-46.3z"  fill="#c2e1ff" /><path d="M507-509c-90-90-224-57-256 69-7 26-19 65-6 91 5 11 15 22 24 31 17 19 44 55 70 63 20 6 47-4 66-9 26-6 51-12 74-26 76-49 80-152 28-219z"  fill="#fff" /><path d="M46-290c-166-166-395 62-253 219 147 164 392-44 253-219z"  fill="#fff500" /></svg>