<svg width="1200" height="675" viewBox="-500 -500 1200 675" xmlns="http://www.w3.org/2000/svg"><path d="M-500-500h1200v675h-1200z" fill="#000"/><path d="M51.4 167.8c10.7-53.7 51-31.6 63.5-44.4 13.7-14.1 17.4-38.2 28.7-54.4 16.4-23.4 49-48.1 56.2-76.5 8.5-33-25.6-100.4-36.3-131.1-50.5-144.9 46.5 88.5 61.4 78.9 14.6-9.3 46.6-67.3 61.8-84.7 15-17.2 32.6-31.7 47.8-48.7 14.1-15.7 24.7-33.8 38.1-50.1 29.7-36.1 70.5-63.3 107.5-91.3 8-6 40.7-43.1 59.2-26.1 19.5 17.8-3.1 33.6-17.1 44.3-13.2 10.1-26.6 20-39.8 30.2-25.3 19.4-48.9 42.2-75.3 60.1-30 20.5-62.4 28.6-85.6 58.3-29.9 38.2-55.2 86.2-70.8 132.3-6.3 18.8-6.7 38.6-14 57.2-10.1 25.8-28 47.5-40.3 72-9.3 18.5-13 41.3-26.4 57.5-5.6 6.8-14.9 7.5-20.1 14.3-6.2 8.3-0.9 28.5-13.5 42.4-28.2 31.1-94.9 9.9-85.7-36.6z"  fill="#005bbb" /><path d="M890-396c-69-69-296-101-387-71-104 34-140 170-67 251 28 31 65 53 107 55 64 3 148-35 207-58 65-26 215-84 140-177z"  fill="#fff" /><path d="M389-238c-70-70-310-74-396-34-95 45-118 176-49 253 29 32 67 55 111 57 86 4 437-147 334-276z"  fill="#c2e1ff" /></svg>