<svg width="1200" height="675" viewBox="-500 -500 1200 675" xmlns="http://www.w3.org/2000/svg"><path d="M-500-500h1200v675h-1200z" fill="#000"/><path d="M51.4 167.8c9.4-47.4 37-32.9 56.9-42 5-2.3 12.9-23.4 16.5-27.9 10.5-13.3 55.4-68.1 58.4-83.5 3.4-17.2-14.3-39.3-17.5-56.6-3.9-21.5-0.5-47.2-9.3-67.4-9.4-21.6-56.6-73.6-55.1-76.4 5.5-10.5 65.1 67.5 68.6 73 17.6 28 34 104.8 38.1 105.3 3 0.4 26.2-45.9 29-49.8 31.2-44.1 79.9-73.8 102.4-124.6 9.5-21.4-2.4-41.1 1.9-62.8 4.7-23.8 21.2-46.4 34.3-66.2 5.4-8.2 32.7-71.1 59.5-49.7 19.6 15.6-3.9 39.1-12.9 52.2-10 14.5-20.2 29-29.3 44.1-14.5 24.3-31.5 49.8-43.2 75.5-9.7 21.3-16 43.5-27.6 64.1-14.4 25.6-36 45.9-50.3 71.5-11.6 20.8-16.9 43.7-27 65.1-6.6 13.9-17 24.6-24.6 37.8-9.8 17.1-13 36.6-21.7 54.2-4.9 10.1-52.2 93.4-62.1 104.3-28.2 31.1-94.9 9.9-85.7-36.6z"  fill="#c2e1ff" /><path d="M645-389c-61-61-236-61-305-17-31 20-49 52-56 88-9 42 2 82 31 114 107 120 313-30 343-119 8-25 3-47-13-66z"  fill="#c2e1ff" /><path d="M154-211c-77-77-186-73-289-69-50 2-106 1-153 17-55 18-74 89-35 132 59 65 250 184 333 192 155 15 236-154 144-272z"  fill="#005bbb" /></svg>