<svg width="1200" height="675" viewBox="-500 -500 1200 675" xmlns="http://www.w3.org/2000/svg"><path d="M-500-500h1200v675h-1200z" fill="#000"/><path d="M51.4 167.8c6.2-31.1 26-34.4 51.5-42.2 3.6-1.1 3.9-8.6 5.3-11.1 5-9 14.8-16.5 22.5-22.8 14.7-12.1 50.1-41.6 53-62.9 1.7-12.7-67.3-112-76.8-126.7-8.9-13.7-17.7-27.6-26.6-41.4-1.4-2.2-3.3-8.2-0.7-7.6 10.9 2.3 28.9 35.7 34.6 42.8 22.5 27.6 49.7 51.3 71.1 79.8 6.7 8.9 15.9 36.3 28.5 25.1 49.9-44.1 151.5-118.4 189.7-165 18.9-23 28.9-53 45-78 13-20.1 30-36.9 43.5-56.6 3.5-5.1 37.1-90.5 66.6-59.8 15.2 15.8-7 39.3-14.3 51.2-17.4 28.3-35.2 58.8-61 80.2-17.6 14.6-41.8 20.9-56.4 39.1-10 12.5-13 29-22.5 42.2-21.4 29.6-48.1 58.8-72.3 86.2-32.1 36.3-75.1 69.2-101.1 110.3-0.6 1 0.9 6.5 0 8.7-1.7 4-6.9 4.1-8.4 6.5-9.3 15.4-12.4 32.6-23.7 47.4-13.7 17.7-35.5 28.9-48.7 45.7-10.6 13.6 7.6 38.6-25 58.2-30.3 18.2-82.3-6.3-74.5-45.7z"  fill="#c2e1ff" /><path d="M663-382c-54-54-243-44-267 71-7 35 2 69 26 96 52 58 135 46 188-4 20-19 35-45 48-70 16-31 29-63 5-93z"  fill="#fff500" /><path d="M250-185c-32-32-66-52-111-57-44-5-189 9-229 34-17 11-27 29-31 49-5 23 1 46 17 63 50 56 153 153 227 160 140 12 210-144 127-249z"  fill="#005bbb" /></svg>