<svg width="1200" height="675" viewBox="-500 -500 1200 675" xmlns="http://www.w3.org/2000/svg"><path d="M-500-500h1200v675h-1200z" fill="#000"/><path d="M51.4 167.8c5-25.1 29.2-32.8 31.8-40.1 14.3-40.9 11-123.6 28.9-161.3 8.6-18.2 54.7-56.8 55.4-70.8 0.8-17.4-25.1-38.7-32-55-13.3-31.8-19.3-66.4-25.8-100.2-1.6-8.2-13.6-37.5-8.3-46.5 3.1-5.4 36 92.4 41.4 103.1 26.2 52.1 36.9 94.9 82.4 47.8 12.9-13.3 25.9-28.6 29-47.4 6.9-42.5-16.2-181.7 30.6-160.8 21.8 9.7 11.5 48.4 11 63.3-2.3 69.9-4.8 56.6-37.7 111.6-8.4 14.1-14.2 29-23.8 42.5-25 35.2-64.7 71.5-83.6 110.1-14.6 29.8-0.8 77.9-0.5 110.2 0.1 18.7-0.1 37.9-2.7 56.4-0.7 4.9-6.3 12.9-5.7 17.4 2.7 21.2 13.2 35.2-2.4 56.2-26.5 35.8-98.4 15.9-88.7-32.9z"  fill="#fff" /><path d="M418-445c-24-24-50-42-86-44-46-2-365 82-273 185 51 57 235 82 305 59 86-28 107-133 54-200z"  fill="#fff" /><path d="M230-438c-109-109-268 39-170 148 17 19 40 38 64 46 30 10 91 3 116-18 26-23 35-91 25-122-6-21-20-38-35-54z"  fill="#c2e1ff" /></svg>