<svg width="1200" height="675" viewBox="-500 -500 1200 675" xmlns="http://www.w3.org/2000/svg"><path d="M-500-500h1200v675h-1200z" fill="#000"/><path d="M-33-225c0.3-1.7 8.1 2.2 35.3 23.2 32.7 25.3 62.6 55.8 96.5 79.2 29.1 20.1 61.8 34.3 90.8 54.4 6 4.2 30.5 33.1 38.7 28.8 12.5-6.6 22-36.4 31.3-47.2 8.8-10.3 19.1-19 27.4-29.7 9-11.5 12.1-24.6 19.6-36.7 10.9-17.8 30.2-29.4 36.9-49.9 4.5-13.9 1.3-29.5 3-43.9 2.9-24.3 15.2-90.4 27.8-109.1 11.4-16.9 35.6-7.8 36.6 11.2 0.8 15.4-8.1 33.7-11.8 48-22.5 87-23.1 61.2-69.5 127.9-14 20-14.2 43.4-25.5 64.3-7.8 14.4-19.2 26.2-26.6 41-8.5 16.9-34.1 63.2-37.7 78.5-7.9 34.4-4.2 65.5-24.7 97.2-10.2 15.9-23.7 31.3-39 42.6-5.5 4.1-24.8 8.2-27 15.5-2 6.2-0.4 14.4-2.9 21.3-9.6 26.9-41.4 40.1-67.2 27.8-34.8-16.5-37.3-66.7-4.2-86.5 14.1-8.5 35.4-0.3 46.3-9.3 8.6-7.1 14.4-18.3 22.4-26.3 43.8-43.6 33.6-37 51.9-90.5 1.8-5.4 11.5-16 10.2-21.5-2.9-11.4-25.6-9.8-108.4-78.7-30.2-25.1-52-58.5-80.7-85.5-4.6-4.3-51-36.6-49.5-46.1z"  fill="#fff" /><path d="M676-391c-58-58-209-108-289-99-114 13-181 141-99 232 25 28 58 47 95 49 52 3 109-23 157-37 59-17 206-56 136-145z"  fill="#c2e1ff" /><path d="M258-268c-33-33-98-34-142-37-75-6-171-14-241 19-76 36-95 142-40 203 23 26 54 44 90 46 66 3 155-45 213-73 41-20 113-48 132-93 10-23 2-46-12-65z"  fill="#fff" /></svg>