<svg width="1200" height="675" viewBox="-500 -500 1200 675" xmlns="http://www.w3.org/2000/svg"><path d="M-500-500h1200v675h-1200z" fill="#000"/><path d="M51.4 167.8c2.6-12.8 14.6-21.3 17.4-31.8 2.1-8.1-1.6-10.5 4.3-20.4 20.8-35.4 49.3-65.3 73-98.7 21.2-29.9 39-61.1 58.4-92 5.1-8.1 15-14.6 19.1-22.8 1.2-2.4-29.8-35.4-32-38.8-17.2-26.3-27.6-61.8-38.4-91.4-1.1-3-33.2-82-20.7-78.8 9.5 2.4 16.4 37.6 19.1 43.6 22.2 50.5 83.9 148 91.5 146.7 4.6-0.7 12.9-16.1 15-19.1 45.8-65.1 9.6-72.7 25.3-129 7.5-27.1 23.1-51.8 36.5-76.1 7.9-14.4 16.8-30.8 35.4-21.2 27 13.8-11.5 58.7-16 66.8-10.6 19.3-14.4 38.6-22.1 58.7-5.3 13.8-15.1 24.3-21.4 37.4-9.7 19.9-10.3 42.6-19.3 63-11.5 26.4-32.2 46.3-44.4 72-8.2 17.1-12.5 36-20.1 53.4-23.4 54.1-49.8 95.9-82.4 144.2-0.6 0.9 15.5 21.8 16.6 24.9 5.5 15.3 2.9 32.7-6.8 45.9-26.5 35.8-98.4 15.9-88.7-32.9z"  fill="#005bbb" /><path d="M481-501c-169-169-403 63-259 223 150 168 401-45 259-223z"  fill="#c2e1ff" /><path d="M210-383c-104-104-257 38-165 143 95 106 254-29 165-143z"  fill="#fff500" /></svg>