<svg width="1200" height="675" viewBox="-500 -500 1200 675" xmlns="http://www.w3.org/2000/svg"><path d="M-500-500h1200v675h-1200z" fill="#000"/><path d="M51.4 167.8c6.2-31.1 20.7-26.8 40.1-41.9 5.3-4.2 14.1-23.5 21.1-30.7 25.9-26.6 54.8-49.6 83.1-73.3 14.4-12.1 50.2-34 53.1-54.8 1.8-12.9-134.4-146.6-151.7-163-3.1-2.9-32.3-20.2-30-29.7 1.8-7.3 96.1 73 105.3 80.3 24.2 19.4 49.8 37.7 72.9 58.4 6.7 6 17 23.8 26.1 25.5 5.4 1 11.1-1.9 15.3-4.8 20.4-13.8 95.8-104.5 105.1-126 7.8-17.8-1.4-35.7 4.3-54 7.1-22.9 24.2-44.6 35.7-65.5 7.5-13.5 26.3-71.2 54.9-47.8 16.6 13.6-4.9 39.9-10.8 50.6-21.4 38.9-45.2 74.2-70.6 110.5-25.9 37-43.5 78-66.6 116.4-12.9 21.5-30.6 38.7-47.6 56.9-12.4 13.2-20.5 36.8-32.1 51.6-25.7 32.7-97 98-113.6 126.7-4.6 8 16.2 37.3-16.1 61.2-30.1 22.3-86.9-1.1-78.6-43z"  fill="#c2e1ff" /><path d="M597-382c-129-129-317 47-202 176 117 131 313-35 202-176z"  fill="#fff500" /><path d="M176-329c-106-106-262 38-167 145 97 108 258-29 167-145z"  fill="#005bbb" /></svg>