<svg width="1200" height="675" viewBox="-500 -500 1200 675" xmlns="http://www.w3.org/2000/svg"><path d="M-500-500h1200v675h-1200z" fill="#000"/><path d="M51.4 167.8c9.7-48.7 43.4-32.5 54.6-42.9 6.6-6.2 9.2-17.4 15.7-24.5 34.4-37.7 94.2-67.4 102.7-122.9 3.1-20.1-24-39.8-33.3-55.9-18.2-31.6-31.7-64.8-38.8-100.6-6.8-34.4-6.8-48.7-5.4-47.8 7 4.4 19.4 59.9 25.2 72.1 11.8 24.7 30.4 46.1 47.1 67.5 2 2.6 13 21.5 17.9 19.6 5.5-2.1 22.6-30.8 29.4-38.2 21.5-23.4 46.8-46.6 59.5-76.4 7.7-18.1 7.7-36.7 11.3-55.6 7.4-39 27.9-85.1 48.5-118.7 6.1-10.1 19.9-10 28.6-4.1 17.2 11.8-0.6 38.3-5.6 49.6-12.5 28.3-21.9 63.8-41.7 87.9-7.5 9.2-17.3 15.6-24.5 25.1-13.9 18.3-16.9 42.5-28.7 62.2-12.2 20.4-29.9 38.3-40.4 59.5-16.1 32.3-9.3 74.1-21.6 108.6-15 42.1-50.7 79-80.9 111.2-6.1 6.5-14.5 10.3-20.2 16.6-6.9 7.6-1 33-14.4 47.9-28.2 31.1-94.9 9.9-85.7-36.6z"  fill="#fff" /><path d="M573-397c-31-48-78-115-137-126-100-19-184 97-123 183 18 26 46 47 76 57 31 10 62 7 94 5 75-6 138-32 90-119z"  fill="#005bbb" /><path d="M201-293c-23-23-49-41-83-42-40-2-302 53-215 150 45 51 144 102 212 94 102-11 150-122 86-202z"  fill="#fff500" /></svg>