<svg width="1200" height="675" viewBox="-500 -500 1200 675" xmlns="http://www.w3.org/2000/svg"><path d="M-500-500h1200v675h-1200z" fill="#000"/><path d="M0-225.2c2.2-10.9 16.3 15.3 23.2 24.1 35.1 44.8 79.1 75.6 120.1 114.2 9.1 8.5 36.2 47.4 50.7 44.6 6.4-1.2 48.2-49 55.9-56.1 28-26.2 90.3-77.6 109.4-105.9 10.7-15.9 16-33.8 28.1-49 11.8-14.8 93.2-103.3 103.8-109.1 13.1-7.1 32.5 3.3 29.6 19.5-4.4 24.7-85.8 99.7-105.9 115.3-18.8 14.6-40.5 24.3-58.6 39.8-30.9 26.4-160.4 191-173.9 226.6-12.9 33.9-11.2 73.2-26.2 106-2.6 5.6-7.5 6-10.3 10.6-0.2 0.3 5.5 32.7-6.5 48.9-31.2 42.1-99.7 9.5-87-41.3 8.6-34.5 33.1-25 44.5-39.9 6.4-8.5 26.9-79.3 39.9-101.6 4.7-8.1 31.2-35 29.6-43.6-3.6-19.5-40.1-40.3-53-54.9-34.1-38.6-67.9-75.4-95.5-119.1-2.3-3.6-19.2-22.4-17.9-29z"  fill="#005bbb" /><path d="M702-434c-90-90-282-42-392-24-49 8-181 19-223 46-40 26-46 85-15 120 35 39 127 57 175 70 108 30 251 74 364 51 126-25 168-166 91-263z"  fill="#fff500" /><path d="M97-350c-27-27-57-48-97-50-71-4-382 113-286 222 59 66 262 85 340 48 86-41 98-151 43-220z"  fill="#005bbb" /></svg>