<svg width="1200" height="675" viewBox="-500 -500 1200 675" xmlns="http://www.w3.org/2000/svg"><path d="M-500-500h1200v675h-1200z" fill="#000"/><path d="M51.4 167.8c6.2-31.1 20.7-26.8 40-41.9 4.9-3.8 7.1-15.5 11.4-20.8 12.3-15.2 26.4-29.1 40.5-42.6 39.4-37.6 94.6-64 112.4-118.7 5.6-17.2-41.9-68.1-51.9-84.8-9-14.9-15.2-30.8-22.2-46.7-1.8-4.2-46.3-79.5-33.4-79.3 9.7 0.1 24.7 38.7 27.8 43.7 10.9 17.7 85.8 125 98.2 128.5 5.6 1.6 11.5-1.9 15.6-4.9 26.3-20.1 106.2-81.5 121.5-104.6 10.5-15.6 39.3-73 48.4-92.2 4.7-10.1 21-90.1 54.8-63.2 15.5 12.3-1.7 38.7-6.2 49.6-10.1 24.6-20.1 50.6-36.5 71.9-17.1 22.2-42.6 32.9-63.7 50.6-37.9 31.6-80.2 72.1-107.3 113.5-20.1 30.8-21.6 70.1-43.8 99.6-24.5 32.7-90.8 91.8-111.6 127.7-4.6 8 16.2 37.3-16.1 61.2-30.1 22.3-86.9-1.1-78.6-43z"  fill="#005bbb" /><path d="M686-510c-70-70-171-68-242 5-24 24-38 57-52 87-18 39-37 85-4 122 61 68 223 50 285-4 25-22 40-52 46-84 10-48-4-88-33-126z"  fill="#fff500" /><path d="M420-318c-73-73-199-88-291-45-94 44-117 174-49 251 103 115 266 33 333-78 25-42 40-87 7-128z"  fill="#fff" /></svg>