<svg width="1200" height="675" viewBox="-500 -500 1200 675" xmlns="http://www.w3.org/2000/svg"><path d="M-500-500h1200v675h-1200z" fill="#000"/><path d="M51.4 167.8c8.5-42.9 33.7-28.5 47.8-45.3 15.9-19.1 17.8-33.6 45-58.9 20.3-18.9 89.3-67.7 95.7-94.8 1.9-8.2-49.6-112.9-55.9-131.1-18.3-52.4-19.7-65.8-16.5-64.6 10.1 3.6 16.1 36.2 19.4 43.5 6.9 15.2 61 105.3 72.3 120.1 4.3 5.7 10.8 1.5 14.8-2 77.4-69.3 51.9-97.6 92.2-175.1 18.9-36.2 56.8-64.9 85.6-92.7 11.1-10.7 34.5-44.8 54.8-26.4 21.6 19.5-16.9 45.4-26.6 54.8-25.9 24.9-50.2 52.3-77.2 75.9-12.6 11.1-29.2 18.5-40.3 31.1-21.1 23.7-10.5 65.2-24.3 93.4-17.9 36.9-83.5 129.6-110.5 162.8-14.3 17.6-31.4 32.7-44.8 51.2-9.4 13-26.6 33.1-33.9 46.4-8.7 15.9 8.1 33.4-16 55.3-29.4 26.6-91.1 4.2-82.3-40z"  fill="#fff500" /><path d="M682-394c-61-61-187-133-275-125-122 11-191 151-105 247 25 28 57 44 93 47 54 6 106-12 158-25 53-13 132-16 146-81 5-24-2-44-17-63z"  fill="#c2e1ff" /><path d="M323-262c-27-27-57-42-95-49-55-10-236-1-289 25-40 19-50 74-21 106 52 58 229 149 307 145 117-6 168-139 98-227z"  fill="#fff" /></svg>