<svg width="1200" height="675" viewBox="-500 -500 1200 675" xmlns="http://www.w3.org/2000/svg"><path d="M-500-500h1200v675h-1200z" fill="#000"/><path d="M51.4 167.8c9.6-48.3 39.3-33.1 57.1-42 2.9-1.5 41.3-62.1 49.9-73 14.3-18.1 67.4-64.8 69.3-85.1 1.5-15.9-73.2-102.6-84.2-129.4-21.4-52.2-23.1-64.1-19.1-65.2 5.1-1.5 5.8 8.9 7.9 13.8 8.6 19.7 16.4 39.6 28.8 57.4 15.8 22.6 38.5 40.9 57.8 60.3 6.2 6.2 25.3 39.5 35.3 28 18.4-21.1 26.7-52.2 41.5-75.9 11-17.6 25.2-32.4 36.9-49.4 10.9-15.7 18.1-33.3 28.5-49.3 23.6-36.5 60.7-64 93.5-91.7 13.8-11.6 37.7-44 58.7-25.2 22 19.7-29.5 52.6-52 71.8-22.4 19.1-42.2 41.4-65.1 59.9-21.4 17.3-48.8 25.4-65.3 48.5-24.7 34.5-30.4 76.5-44.9 115.1-20 53.2-52.4 96.9-79.2 146.4-11.7 21.6-56.1 112.6-73.8 128.6-29.4 26.6-91.1 4.2-82.3-40z"  fill="#c2e1ff" /><path d="M600-438c-61-61-125-69-206-43-22 7-48 15-64 31-18 19-23 64-30 89-14 54-25 69 15 115 38 45 82 87 143 90 157 8 236-163 142-282z"  fill="#005bbb" /><path d="M243-253c-142-142-337 53-217 187 126 141 336-38 217-187z"  fill="#c2e1ff" /></svg>