<svg width="1200" height="675" viewBox="-500 -500 1200 675" xmlns="http://www.w3.org/2000/svg"><path d="M-500-500h1200v675h-1200z" fill="#000"/><path d="M-39-145c0.7-6.3 11 6.6 15.3 11.2 30.8 32.7 56.4 68.2 85.6 101.9 5.1 5.9 32.6 41.7 42.1 39.4 1.1-0.3 3.6-36 4.3-38.5 6.8-25.1 22.9-47.6 40.8-66 37.2-38.1 92.3-72 123.9-107.7 21.2-23.9 32.1-54.6 52.1-78.9 21.7-26.4 50.3-60.4 79.7-78.6 12-7.4 30.6 1.6 30.1 16.5-0.9 25.4-51.6 56.6-65.1 71-13.9 14.7-22.8 33.6-37.1 47.5-18.6 18.1-44.7 24.8-65.6 39.7-40.4 28.7-76.1 72.6-104 113.3-30.9 45.2-11.1 97.5-7.9 148.3 1.4 21.4 1 45.7-5.6 66.3-1.2 3.8-5.7 6.4-6.1 10.2-1.3 11.3 7.4 22.9 4.1 36.4-12.7 50.9-88.5 46.9-96.2-4.8-6.1-41.2 21.2-39.1 35.7-55.3 4.2-4.8 11.9-55.1 12-63.3 0.3-13.8-35.1-45.8-44-59-22.6-33.6-35.1-71.7-59.5-104.3-4.7-6.3-35.7-35.3-34.6-45.2z"  fill="#fff" /><path d="M488-483c-64-64-166-61-223 13-16 21-27 49-38 73-13 32-24 67 2 95 71 79 262 55 289-70 9-42-4-78-30-111z"  fill="#c2e1ff" /><path d="M-16-253c-104-104-255 38-162 142 37 41 80 42 129 27 12-3 31-6 42-13 7-5 9-30 11-38 15-55 22-71-20-118z"  fill="#fff" /></svg>