<svg width="1200" height="675" viewBox="-500 -500 1200 675" xmlns="http://www.w3.org/2000/svg"><path d="M-500-500h1200v675h-1200z" fill="#000"/><path d="M33-145c0.9-5.5 9 6.9 12.2 11.5 36 53.3 58.7 65 96.7 107.9 8 9 40.6 61.1 54.4 57.1 5.4-1.6 38.4-47.1 45.5-53.9 66-63.3 42.2-66.8 82.5-120.8 19.1-25.6 46.3-43.5 60.1-73 12.3-26.3 54.1-132.8 67.5-144.6 13-11.5 32.8 1.5 32 17.2-0.9 17-13.7 36.3-20.1 51.1-41.7 97.3-75 72.7-120 144.9-19 30.4-17.5 64.9-33 96.2-18.2 37-70.9 104.5-95.8 142.8-28.8 44.2-21.2 53.2-65.6 92.5-9.5 8.4-24.7 63.3-74.6 33.2-29.5-17.7-31.7-61.1-4.1-81.5 11.7-8.6 28.3-3.9 37.9-10.1 10.4-6.7 61.6-60.8 60.8-72.2-1-14.7-24.5-29.1-32.8-40.4-30.8-41.6-64.1-83.4-88.5-129.1-2.2-4-16.2-22.4-15.1-28.8z"  fill="#fff" /><path d="M737-385c-52-52-163-129-236-136-108-9-181 120-106 204 57 64 152 51 228 43 46-4 115-2 128-59 4-20-2-37-14-52z"  fill="#005bbb" /><path d="M344-187c-33-33-86-51-128-69-76-32-161-72-246-67-106 5-167 132-93 214 66 74 203 50 288 43 45-4 117-2 159-21 39-18 45-69 20-100z"  fill="#005bbb" /></svg>