<svg width="1200" height="675" viewBox="-500 -500 1200 675" xmlns="http://www.w3.org/2000/svg"><path d="M-500-500h1200v675h-1200z" fill="#000"/><path d="M-14-145.2c1.3-5 7.3 2.6 7.9 3 6.2 5.9 16.9 15.9 22.4 21.2 13.4 12.6 136.3 138.6 143.3 139.6 13.3 1.9 24.9-15.6 32.4-23.8 37.3-41.2 46.7-87 66.7-137 9-22.6 30.3-37.5 37.3-60.7 4.5-15 1.9-30.3 7.2-45.4 5.6-16 15.3-29.6 20.1-46.1 0 0 7.1-94.3 41.9-67.1 15.7 12.3 5.9 32.2 2.4 48.7-21.4 100.2-56.6 84.5-88 153.9-15.8 35-11.7 78.9-21.5 116-10.8 41.2-39.5 69.3-58.9 105.7-22.4 42-16.2 54.1-49 96-9.9 12.7 9.5 56.9-43 64.8-40.1 6-70.2-39-49.3-73.8 11.5-19.1 26.6-18.5 44.9-24.2 5.9-1.8 16.2-33.6 19.3-38.9 5.5-9.8 19.2-24.8 18.9-36.5-0.4-18.8-36.7-45.1-47.8-59.1-23.2-29.1-42.1-60.9-66.5-89.1-4-4.6-43.1-38.2-40.7-47.2z"  fill="#005bbb" /><path d="M412-457c-21-21-43-36-73-37-59-3-294 104-222 184 36 40 290 83 320-56 7-35-3-64-25-90z"  fill="#fff500" /><path d="M164-304c-26-26-54-45-91-46-70-3-409 145-317 249 35 39 117 32 164 32 65 0 144 1 204-27 81-38 92-142 40-208z"  fill="#c2e1ff" /></svg>