<svg width="1200" height="675" viewBox="-500 -500 1200 675" xmlns="http://www.w3.org/2000/svg"><path d="M-500-500h1200v675h-1200z" fill="#000"/><path d="M51.4 167.8c7.7-38.7 34-30.7 42.2-44 15.8-25.5 10.7-62.9 26.1-89.2 5.7-9.7 45.7-54.3 44.7-61.7-2-15-26.9-28-35.9-39.5-29.9-38.3-35.7-84.5-42.5-131-1-6.9-5.8-20.5-3.9-28 3.7-14.9 11.5 28.5 15.7 43.2 12 41.7 29.4 72.2 58.8 104.1 5.3 5.7 24.7 32.9 34.1 18.6 11.4-17.4 8.7-42.4 15.3-61.6 8.3-24.1 21.5-46.5 29.9-70.7 13.4-38.2 23.5-77.7 36.5-116.1 2.8-8.4 12.6-69.8 41.3-55.3 26.2 13.3 2.1 51.9-3.5 68.5-7.1 20.8-12.6 45.9-25.1 64.3-13.5 19.8-38.7 27.2-46.4 51.4-16.7 52.4-8.6 96.1-20.3 136.9-9.9 34.6-38.9 56.5-51.3 88.4-7.9 20.4-1.6 45.4-5.4 67.1-1.7 10.1-3.8 20.9-7.9 30.3-1.1 2.6-8.8 8.1-8.6 10.8 0.7 19 7.4 32.3-5.8 50-26.5 35.8-98.4 15.9-88.7-32.9z"  fill="#c2e1ff" /><path d="M369-451c-140-140-333 52-215 185 124 139 331-37 215-185z"  fill="#fff" /><path d="M105-316c-21-21-45-37-76-39-53-3-310 79-232 166 48 53 302 117 333-33 8-36-3-66-25-94z"  fill="#005bbb" /></svg>