<svg width="1200" height="675" viewBox="-500 -500 1200 675" xmlns="http://www.w3.org/2000/svg"><path d="M-500-500h1200v675h-1200z" fill="#000"/><path d="M51.4 167.8c6.6-33.4 23.2-25.3 34.3-40.6 6.4-8.9 7.1-38.2 18.8-55.2 28.1-40.6 67.1-73.6 97.6-112.4 17-21.6 51.9-49.4 50.1-80.1-1.7-28.8-34.6-59.1-49-82.6-25.3-41.2-120.3-167.5-28-60.8 31.3 36.2 62.1 73.5 96.4 107 1.1 1.1 21.7-39.6 22-44.9 1.3-20.2-10.1-39.7-8-60.5 1.2-11.3 36.4-120.6 68.8-100.3 31.9 20.1-20.8 68.4-27.4 92.3-3.9 14.3-0.7 28.4-6.1 42.6-11.1 28.9-32.1 52.1-39.5 83.1-3.4 14.1 7.7 32.7 1.2 44.7-2.2 4.1-11.3 1-12.7 5.5-14 44.8-42.1 91.7-69.3 129.8-13 18.2-32.1 35.3-41.9 55.4-0.6 1.1-15.7 57.2-15.8 58.9-0.3 21.5 14 30.9-3.5 54.6-26.5 35.8-98.4 15.9-88.7-32.9z"  fill="#c2e1ff" /><path d="M423-445c-150-150-358 56-229 199 133 149 356-40 229-199z"  fill="#005bbb" /><path d="M362-353c-67-67-251-104-341-75-97 32-131 159-63 235 26 29 60 49 100 51 61 3 130-30 186-52 61-24 182-77 117-159z"  fill="#fff500" /></svg>