<svg width="1200" height="675" viewBox="-500 -500 1200 675" xmlns="http://www.w3.org/2000/svg"><path d="M-500-500h1200v675h-1200z" fill="#000"/><path d="M51.4 167.8c7.6-38.1 34.2-31.2 41.7-43.9 5.1-8.7 7.4-18.2 13.9-27.1 38.1-52 104.6-91.7 128.6-153.2 1.8-4.6 0.5-9.5-1.6-13.7-7-13.9-20.7-24.5-29.3-37.6-17.1-26.1-32.2-53.3-49.8-79.3-2.8-4.1-60.9-78.6-48-80 4.7-0.5 30.4 37.2 35 42.9 7.3 9 109.4 129.8 110.5 130.3 4.6 1.8 8.2-0.8 10.9-4.2 18-22.4 53-58.9 62.5-84.3 7.9-21.2-1.9-40.9 0.2-62.4 2.6-26.7 14.5-54.3 22.1-79.9 4.5-15 12.1-52.7 37.5-37.3 17.5 10.6 4.8 35.2 0.8 48.6-16.2 54.5-20.2 65.8-46.2 114.4-7.2 13.4-9.6 28-15.7 41.7-8.3 18.6-22.4 33.5-31.5 51.6-19.3 38.3-31.4 80.5-51.1 118.7-25.7 49.8-68.7 91.8-96.5 140-3.6 6.2 10.7 33.1-9 54.9-28.2 31.1-94.9 9.9-85.7-36.6z"  fill="#005bbb" /><path d="M577-381c-1-21-21-41-34-55-15-17-31-33-51-44-86-44-185 31-181 123 3 59 57 113 117 117 23 1 44-5 65-12 17-5 42-11 55-25 21-24 29-73 29-104z"  fill="#005bbb" /><path d="M182-410c-93-93-230-58-262 71-5 20-22 63-10 83 11 19 93 99 112 102 25 4 51-3 74-9 114-28 159-154 86-247z"  fill="#fff" /></svg>