<svg width="1200" height="675" viewBox="-500 -500 1200 675" xmlns="http://www.w3.org/2000/svg"><path d="M-500-500h1200v675h-1200z" fill="#000"/><path d="M51.4 167.8c9.5-47.6 45-34 53.4-43.1 11.6-12.6 27.6-65.1 37.8-83.6 7.9-14.3 43.5-55 44.8-67.4 1.6-15.7-84.4-108.7-98.4-135.1-0.7-1.4-39.6-64.6-27.2-65.6 3.7-0.3 20.7 39.6 45.9 70.9 22 27.2 52 46.1 76.5 70.8 4.7 4.8 19.9 33.4 28 29.4 9.5-4.7 39.3-49.8 49.6-60.6 25.9-27.1 55.7-50 81.8-76.7 28.5-29.4 53.1-63.3 81-93.7 19-20.7 39.7-60.5 62.5-74.8 7.3-4.6 17.5-4.2 24.1 1.7 19.4 17.7-9.2 42-19 54.3-22.4 28.1-45.2 58.7-74.8 79.7-30.3 21.5-63.6 29.9-89.2 58.6-53.4 59.9-59.1 82.5-94.8 147.8-12.8 23.4-28 44.4-37.7 69.5-11.4 29.6-15.6 62-29.1 90.8-4.2 9-15 13.2-17.9 21.5-6.7 18.7 4.4 31-15.7 49.2-29.4 26.6-91.1 4.2-82.3-40z"  fill="#fff500" /><path d="M557-365c-73-73-180-68-276-65-47 2-101-1-146 14-50 16-67 81-32 120 54 60 245 171 323 179 141 14 217-140 131-248z"  fill="#c2e1ff" /><path d="M489-278c-43-43-142-56-199-67-97-19-213-44-310-12-107 35-144 175-69 259 86 96 297 15 399-12 32-8 64-17 95-26 46-12 91-21 102-74 5-26-2-48-18-68z"  fill="#005bbb" /></svg>