<svg width="1200" height="675" viewBox="-500 -500 1200 675" xmlns="http://www.w3.org/2000/svg"><path d="M-500-500h1200v675h-1200z" fill="#000"/><path d="M51.4 167.8c10.2-51 43.4-32.9 60.8-42 11.9-6.3 21.7-27.2 32.2-36.5 12.2-10.8 44.2-27.2 50.1-43 4.3-11.7-16.2-26.7-22.4-34.3-17.1-20.9-31.5-42.6-44.4-66.3-4.9-9-64.2-89.1-55.4-92.6 6-2.4 21.7 24.6 36.8 43.3 24.6 30.4 48 60.4 76 87.7 4.9 4.8 34.9 42.7 38 43.3 2.3 0.5 15.4-14.3 16.3-15.1 18.3-17.4 34.6-36.9 52.9-54.2 39.6-37.4 96.7-59.5 129.3-103.5 30.4-41.1 15.7-59.7 27-101.8 10-37.5 42.5-68.4 66.7-97 9.4-11.1 24.7-30.7 40.4-15.3 18.4 18-9.3 40-19.7 52-12.3 14.2-24.7 28.3-35.3 43.9-13 19.1-33.2 46.8-44.4 65.1-16.8 27.3-17.3 59-38.3 85.3-25.4 31.7-61.3 53.5-88.2 84-31.1 35.4-53.4 76.7-87.1 110.4-21.3 21.3-41.3 44.5-63.3 64.9-8.3 7.6-22.7 11.7-29.4 20.2-8.1 10.3 4.7 33.2-24.8 50.8-30.3 18.2-82.3-6.3-74.5-45.7z"  fill="#fff" /><path d="M729-393c-80-80-145-70-248-50-37 7-85 10-111 41-52 60-1 126 40 172 48 53 99 119 176 123 158 8 238-165 143-286z"  fill="#fff" /><path d="M151-185c-60-60-154-38-230-27-42 6-111 4-121 57-4 17 1 34 12 46 42 47 198 111 260 107 94-6 136-111 79-183z"  fill="#fff500" /></svg>