<svg width="1200" height="675" viewBox="-500 -500 1200 675" xmlns="http://www.w3.org/2000/svg"><path d="M-500-500h1200v675h-1200z" fill="#000"/><path d="M51.4 167.8c8.6-43 45.7-34.4 51.4-43.3 20.8-33.1 14.7-66.6 52.1-114.9 6.1-7.9 52.2-66.7 50.9-72.4-3.6-16.4-78.9-73.3-95.2-99.6-5.2-8.4-49.3-103.4-36.8-104.6 2.7-0.3 24 52.8 35.3 71.4 20.8 34.2 55.3 52.2 84.2 78.3 11.5 10.4 21.2 25.9 34.1 34.5 3.4 2.3 6.2-5.4 9.4-8 52.9-44.4 61.2-78.4 89.3-138 21.3-45.2 75.2-76.1 113-105.7 8.1-6.3 39.3-42.8 58-26.3 26 22.9-19.8 47.3-32.9 57.4-16 12.5-138.7 103.5-146 114.8-14.1 21.7-14.6 51.6-28.3 74.5-11.5 19.2-28.3 34.1-41.5 52.1-22.1 30.4-47.9 75.6-62.5 110.2-10.6 25-10.5 54.4-18.2 80.5-4.1 14-16.8 22.9-19.4 32.3-4.8 17.4 2.6 31-11.9 47-28.2 31.1-94.9 9.9-85.7-36.6z"  fill="#c2e1ff" /><path d="M664-455c-90-90-273-34-380-11-45 10-180 29-218 53-41 26-47 86-16 121 40 45 159 63 215 76 101 23 227 56 330 22 115-38 141-172 69-261z"  fill="#fff500" /><path d="M361-302c-48-48-178-95-245-88-90 9-145 115-80 187 56 62 150 28 218 12 41-10 109-12 119-63 4-18-2-33-12-48z"  fill="#fff" /></svg>