<svg width="1200" height="675" viewBox="-500 -500 1200 675" xmlns="http://www.w3.org/2000/svg"><path d="M-500-500h1200v675h-1200z" fill="#000"/><path d="M42-265.2c0.4-1.4 6.2 1.3 31.3 24.4 13 11.9 118.5 114.9 127.3 125.7 8 9.8 12.9 21.4 18.7 32.6 1.5 2.9 4.4-4.9 6.6-7.3 7.9-8.8 15.9-17.6 23.5-26.7 39.7-47.3 70.4-95.7 91.8-153.7 9.6-26.1 1.2-58.5 12.6-82.9 5.7-12.3 22.9-16.1 32.5-5.8 10.8 11.5 3.9 31.4 2.5 44.2-3.6 33.4-7.9 70.6-34.2 94.6-16.4 14.9-36.1 22-48.6 41.5-19.2 30.1-52.9 92-69.6 124.6-27.8 54.2-29.5 122.2-62.7 174.1-8.1 12.6-19.5 22-28 33.6-2.3 3.2 3.7 22.8 2.9 28.5-4.8 32-40.2 51.1-69.6 37.2-29.3-13.9-37.2-53.3-15.4-77.4 7.5-8.3 25.6-10.5 30.7-18.4 12.6-19.8 29.9-37.9 42.6-58.3 9.1-14.6 64.2-114.7 63.3-125.5-2.5-30-43.6-58.3-60.9-80.1-20-25.2-33.6-53.5-55.3-78-4.1-4.6-44.3-37.8-42-46.9z"  fill="#c2e1ff" /><path d="M454-382c-26-26-55-44-93-48-36-4-156 11-189 31-15 9-23 25-26 42-4 20 1 39 14 54 43 48 122 128 186 133 117 9 177-125 108-212z"  fill="#fff500" /><path d="M238-459c-38-38-82-64-138-59-113 10-384 200-287 309 36 41 105 44 155 45 70 3 154-2 218-32 105-49 119-179 52-263z"  fill="#fff500" /></svg>