<svg width="1200" height="675" viewBox="-500 -500 1200 675" xmlns="http://www.w3.org/2000/svg"><path d="M-500-500h1200v675h-1200z" fill="#000"/><path d="M51.4 167.8c3.4-17.2 13-22.8 22.9-35.2 1.5-1.9 23-53.6 51.5-86.7 27.7-32.2 103.3-97.7 106.8-142.8 1.5-19.3-28.7-36.5-39.2-49.8-22.4-28.3-41.2-62.5-56.4-95.2 0 0-37.8-66.8-24.7-65.1 10 1.3 21.9 37.5 25.2 43.3 19.9 34.1 102.3 127.8 109.3 125.9 6.3-1.7 9.2-12.4 11.8-17.3 29.7-58.5 3.4-44.1 9.9-88.3 4.3-29.2 25-59 38.7-84.5 8.5-15.9 18.1-46 41.8-34.3 27.5 13.5-11.2 61.7-15.3 69.3-16.3 30.6-34 61.7-47.8 93.5-7.2 16.4-27.3 67.9-25.7 84.8 0.4 4.3 5.7 5.9 4.5 11.8-1.1 5.2-7.2 6.2-8.3 10-6.9 25.1-11.5 48.6-22.6 72.7-26 56.3-74.1 100.2-95.7 159-3.9 10.6 24.2 34.5 1.3 65.4-26.5 35.8-98.4 15.9-88.7-32.9z"  fill="#c2e1ff" /><path d="M367-487c-81-81-187-37-208 70-4 18-7 38-2 56 4 16 19 31 29 43 12 13 27 32 44 38 14 6 42-7 56-10 21-5 41-10 59-22 61-39 64-122 22-175z"  fill="#fff" /><path d="M196-323c-61-61-128-68-212-60-34 3-78 6-99 37-41 64 27 138 68 182 34 38 70 76 124 78 130 6 197-140 119-237z"  fill="#fff" /></svg>