<svg width="1200" height="675" viewBox="-500 -500 1200 675" xmlns="http://www.w3.org/2000/svg"><path d="M-500-500h1200v675h-1200z" fill="#000"/><path d="M51.4 167.8c6-30.3 20.5-25.5 37.6-41.4 1-0.9 64.4-113.4 64.4-115.4-0.2-15.8-41.4-55.5-51-71.8-17.1-29.2-23-63.8-29.7-96.5-2-9.5-8.6-36.4-2.3-29.1 10.8 12.4 21.1 63.3 31 82.9 13.1 26.1 35.6 43.4 54.2 65.2 7.2 8.5 14.3 25 26.5 12.5 30.5-30.9 28.5-77.5 42-115.7 8.2-23.4 26.6-40.1 37.3-62.2 20.8-42.6 30.6-81.4 55.6-124.3 6.1-10.6 20.9-48.3 42.5-34.5 22 14 2.2 37.2-7 52.7-14.9 25.3-25.3 56.7-42.6 80-17.8 24.1-46.6 32.7-61 60.6-21.8 42-6.5 92.9-21.1 137.5-5.8 17.7-53 128.1-62.7 149-4.9 10.6-17.6 24-20.7 34.5-4.3 14.8 13.2 27.9-5 52.5-26.5 35.8-98.4 15.9-88.7-32.9z"  fill="#c2e1ff" /><path d="M464-372c-33-40-76-93-132-95-93-5-163 102-107 182 58 83 198 62 232-26 7-18 16-43 7-61z"  fill="#fff500" /><path d="M323-214c0-7-55-59-62-65-116-116-290-54-304 104-14 162 177 232 300 141 33-25 59-136 66-180z"  fill="#005bbb" /></svg>