<svg width="1200" height="675" viewBox="-500 -500 1200 675" xmlns="http://www.w3.org/2000/svg"><path d="M-500-500h1200v675h-1200z" fill="#000"/><path d="M2-225c1.6-11.8 18.3 15.2 26.2 24 33.1 36.9 92 86.2 116.3 127.3 5.1 8.6 5.1 18.2 9.4 26.9 2.8 5.8 8.7-9.4 13-14.2 23.9-26.1 44.6-52.6 62.6-83 10.8-18.2 27.3-31.2 38.9-48.6 14.6-21.8 17.4-48.3 33-69.9 24.9-34.5 59.5-71.6 93-97.8 11.7-9.1 32.6-2.7 32.5 14-0.2 24.8-34.9 44.3-48.4 57.9-18.8 19-34.9 40.6-53.8 59.2-18.5 18.3-41.7 29.7-58.2 50.5-22.6 28.5-29.9 64.5-47.6 95.7-18.6 32.8-41.9 61.8-62.7 93-6.9 10.4-13.8 21.7-16.6 34-5.4 23-0.1 48.8-0.9 72.4-0.1 4.4-5.1 19.1-4 22.8 6.7 23.7 25.7 30.5 7.4 61-23.2 38.7-84 26.6-90.7-18-4.6-31 17.9-34.3 21.2-49.8 6.6-30.8 4.5-65.6 17.5-95.7 7.7-18.1 36.1-49.1 39.4-62.4 6.7-27-89.6-146.7-107-170.6-2.6-3.5-21.4-21.9-20.5-28.7z"  fill="#005bbb" /><path d="M773-392c-64-64-260-169-350-166-118 5-184 149-103 238 66 74 187 63 276 59 48-2 110 2 155-19 44-21 50-76 21-112z"  fill="#fff" /><path d="M165-384c-79-79-200-51-227 60-6 27-13 63 6 88 19 25 56 70 88 75 18 4 35-3 52-7 20-6 46-9 64-20 39-25 55-95 47-137-4-23-16-41-31-59z"  fill="#fff" /></svg>