<svg width="1200" height="675" viewBox="-500 -500 1200 675" xmlns="http://www.w3.org/2000/svg"><path d="M-500-500h1200v675h-1200z" fill="#000"/><path d="M51.4 167.8c11.9-59.6 63.4-32.9 67.8-39 34-47.5 73.8-89.5 112.5-132.9 29-32.5 49.7-68.3 82.8-97.6 5.6-5-26.6-54.3-30.5-59.2-14.9-19-32.8-35-49.3-52.4-21.8-22.9-37.9-50-54.6-76.7-3.1-5-10.7-20.1-5.9-16.6 20.7 14.9 38.3 51 58.7 70.1 27.3 25.6 61.5 44 84.5 74.4 3.2 4.2 15.7 42.7 18.7 42.7 4.1 0.1 77.7-64.6 83.1-73.4 12.1-19.6 7.5-44.3 14.7-65.7 11.2-33.6 41.7-60.4 64.8-86 11.4-12.6 24.5-29.1 41.3-14.7 24.2 20.8-29.7 57-49.5 82-13.3 16.8-18.6 37-31.6 53.8-44.1 57-103.3 103-145.9 161.2-17.2 23.4-26.3 50.3-40 75.5-12.9 23.5-72.9 117.3-88.4 133.6-10.2 10.8-23.2 12.4-33.8 21.3-6.2 5.2-4.3 33.4-21.5 46.2-30.1 22.3-86.9-1.1-78.6-43z"  fill="#c2e1ff" /><path d="M701-502c-32-32-67-56-114-59-68-3-196 48-262 69-61 20-340 84-234 202 39 44 158 52 211 58 103 13 226 31 327-2 118-39 145-176 72-268z"  fill="#fff500" /><path d="M428-349c-59-59-236-101-316-83-98 21-145 141-76 219 24 26 55 45 91 46 51 3 107-23 155-37 56-17 216-56 146-145z"  fill="#fff" /></svg>