<svg width="1200" height="675" viewBox="-500 -500 1200 675" xmlns="http://www.w3.org/2000/svg"><path d="M-500-500h1200v675h-1200z" fill="#000"/><path d="M-43-145.1c0.3-1.4 6.2 0.9 34.3 23.9 40.3 32.9 79 66.6 114.7 104.7 4.5 4.8 27.3 37.7 35.3 26.3 18.6-26.5 17-63.9 30.4-92.6 17.4-37.2 58.1-67.7 65.6-109 3.2-17.6-3.4-34.6-4.2-52.1-0.8-19.4 1.3-38.8 0.6-58.3-0.4-12.8-9.7-79.3 28.6-59.9 14.3 7.3 10.3 32.5 10.7 43.3 1.2 32.7 6.7 72.1-11.8 101.3-6.1 9.6-12.5 17.8-16.8 28.4-7.1 17.4-10.1 35.5-18.9 52.5-9.8 19-22.1 37.7-27.5 58.7-4.5 17.1-2.8 34.9-4.4 52.3-2.9 32.1-24.1 147.3-37.2 171-2.8 5.1-7.5 5.9-10.5 10.1-6 8.5 18.4 54.1-33.9 67.1-37.4 9.3-71.2-27.9-58.2-64.2 10.5-29.4 33.3-22.3 43.2-35.4 7.6-10.1 27.3-63.7 25.3-75.1-1.9-11.3-104.9-133.3-117.3-145.6-4.5-4.4-49.7-37.9-48-47.4z"  fill="#fff500" /><path d="M307-481c-149-149-354 55-227 197 132 147 352-40 227-197z"  fill="#005bbb" /><path d="M132-275c-30-30-64-54-109-55-60-3-152 33-210 49-56 15-363 68-255 188 37 42 147 55 198 64 96 17 212 40 308 9 112-37 137-167 68-255z"  fill="#005bbb" /></svg>