<svg width="1200" height="675" viewBox="-500 -500 1200 675" xmlns="http://www.w3.org/2000/svg"><path d="M-500-500h1200v675h-1200z" fill="#000"/><path d="M105-169l6 4 12 11 13 12 12 14 13 13 13 15 6 9 12 15 6 8 6 8 6 9 5 9 4 10 3 10 3 10 3 11 1 10 1 10 3 20 0 20 0 10 1 10 0 11 0 11 0 11-1 12-1 13-3 12-2 12-3 13-2 12-3 12-2 12-2 11-2 11 0 11 0 11 1 11 2 11 3 10 4 10 5 9 5 10 5 9 5 9 6 8 7 8 15 12 9 5 9 4 10 4 11 3 11 2 11 2 13 3 13 3 13 3 14 3 13 3 14 3 14 2 14 1 15 0 16 0 15-1 16-4 15-5 15-6 16-6 16-8 17-8 16-8 15-9 15-9 15-10 14-11 13-11 14-12 14-11 14-13 13-13 13-14 12-15 12-16 10-16 55-115 0 0 0 0-51 117-11 17-11 15-13 16-13 14-13 14-13 13-14 12-14 12-13 11-14 11-15 10-16 10-15 9-16 8-16 9-16 9-16 7-16 7-16 6-16 4-17 2-16 1-16 0-15 0-14-2-15-2-14-2-13-3-13-3-13-2-13-3-12-2-12-2-12-3-11-5-11-5-10-5-10-7-8-8-8-9-7-10-6-9-5-10-5-10-5-11-4-11-3-12-2-12-2-12 0-13 1-12 1-12 2-12 3-12 2-12 2-12 3-12 1-12 2-11 1-11 0-12 0-11 0-11-1-11 0-20-1-18-2-19-2-19-5-18-6-17-9-16-12-15-6-8-12-16-12-14-12-14-12-14-12-12-10-11-5-4-1-2-1-1-1-2 0-2 0-2 1-2 1-1 2-1 2-1 1 0 2 0 2 0 2 1z"  fill="#fff500" /><path d="M107-166l4 6 8 12 9 10 9 11 11 13 9 15 8 15 8 16 7 17 7 18 3 10 2 10 2 11 3 10 2 11 4 11 3 12 4 13 4 12 5 13 4 13 4 12 3 12 3 12 2 12 2 13 0 13-1 12-1 13-1 12-1 13-1 13-1 12 0 12 0 12 1 12 0 12-1 12-1 11-2 11-2 10-3 19-3 19-3 18-3 18-1 16 1 14 1 12 3 11 2 10 2 10 3 13 4 11 6 9 7 8 8 7 10 28 0 0 0 0-26-3-7-7-8-8-7-10-5-9-5-13-3-13-1-13-2-10-2-12-1-13-1-15 1-17 3-18 4-18 4-19 4-18 4-20 1-10 2-10 0-11 1-12 0-12-1-12 0-13 1-12 1-13 1-13 1-13 1-12 0-11 1-12-1-11-2-11-3-12-3-11-4-12-5-12-5-13-5-12-4-13-5-11-4-13-3-11-3-11-2-10-5-17-7-17-7-17-7-15-8-15-8-13-8-12-10-12-8-12-8-14-3-7-1-2 0-2 0-1 1-2 1-2 2-1 1-1 2 0 2 0 2 0 2 1 1 1 1 2z"  fill="#fff500" /><path d="M98-155l-6 0-14-3-13-2-11-1-11-1-10 0-15 0-12 1-11 1-10 3-11 4-11 6-9 8-6 11-5 14-4 11-3 12-3 12-1 11 0 12 0 11 0 11 0 12-1 12-2 11-2 11-4 14-2 14-2 12-1 11 3 11 4 11 2 10 1 11-12 20 0 0 0 0-17-16-2-11-3-11-3-12-2-12 1-13 2-12 3-14 2-10 3-9 3-15 2-14 0-10 0-11 0-13 0-13 1-14 3-14 4-13 4-12 4-12 5-12 8-11 10-9 10-7 10-5 14-4 14-3 14 0 13 0 15 1 11 1 12 2 12 2 13 4 13 4 7 2 2 0 1 1 2 2 0 1 1 2 0 2 0 2-1 2-1 1-2 2-2 0-2 1-2-1z"  fill="#005bbb" /><path d="M93-166l2-5 5-13 3-13 3-13 3-13 1-12 0-13 0-13-1-11-1-12-1-11 0-12 1-12 1-10-3-10-6-8-8-9-5-12 0-20 0 0 0 0 24 5 9 9 6 8 7 9 4 10 3 11 0 10-2 11-1 11-1 12 0 12 0 10 0 13 0 15-1 10-3 14-4 14-5 13-3 9-5 10-5 9-3 4-1 2-2 1-1 1-2 0-2 0-2 0-2-1-1-1-1-2-1-2 0-2 0-2 1-1z"  fill="#fff500" /><path d="M101-155l-6 2-10 2-11 3-12 2-12 3-13 3-17 2-19 0-18-3-19-3-10-2-10-4-9-4-9-5-9-6-8-6-8-8-8-7-7-8-7-6-15-13-14-11-12-10-11-10-10-8-10-9-8-8-8-7-10-8-8-6-14-5-14 0-14 1-15 1-14 2-12 2-12 6-7 9-2 13 1 13 3 10 4 12 3 11-11 24 0 0 0 0-18-17-2-10-4-11-3-12-1-14 0-11 3-14 5-10 7-9 10-7 11-5 15-4 15-2 14-2 15-1 15-1 15 1 14 5 12 8 10 8 9 9 9 8 8 9 9 9 9 9 11 9 13 12 15 12 8 6 7 7 8 8 14 13 15 10 14 8 17 4 18 3 17 2 15 0 14-1 13-3 14-2 12-1 11-2 12 0 5-1 2 1 2 0 2 1 1 1 1 2 1 2 0 2 0 2-1 1-1 2-2 1-1 1-2 0z"  fill="#fff500" /><path d="M92-163l0-6-2-13-3-14-5-16-4-17-5-19-4-20-1-10-1-10-1-10-2-19-2-20-2-10-1-10-1-10 0-10-1-11-1-10-1-12-1-11 0-12-1-11-2-12-1-11-2-12-3-11-3-12-3-12-4-12-5-11-4-12-6-11-6-12-7-11-8-13-9-12-10-11-11-11-11-12-11-10-12-10-12-9-12-8-12-7-12-5-11-3-10-2-19 0-15 3-13 5-11 8-12 9-11 10-13 9-12 8-12 7-14 6-13 4-12 4-12 4-10 4-10 5-12 7-10 8-10 7-27 3 0 0 0 0 18-29 11-8 9-6 11-6 11-4 11-4 13-4 13-4 11-3 11-5 11-5 12-7 12-8 12-9 13-9 15-8 17-6 19-1 10 0 11 2 11 3 12 5 12 6 13 7 12 8 13 10 12 10 12 10 12 11 12 11 11 12 10 12 9 13 8 12 7 12 5 12 6 12 5 12 4 12 4 13 3 12 3 12 3 12 2 12 1 12 1 12 1 11 1 11 2 12 1 11 1 10 1 20 3 19 1 10 2 10 1 10 2 20 2 18 3 19 5 19 4 17 4 17 2 16 1 15-1 7 0 2-1 1-1 2-1 1-2 1-2 0-2 0-2 0-2-1-1-1-1-2-1-2 0-2z"  fill="#005bbb" /><path d="M94-168l3-5 9-10 9-11 10-11 10-11 13-12 14-10 16-7 18-6 19-6 11-3 12-3 12-2 12-1 13-1 12 0 13 0 15 0 15-1 15 0 15-1 16-3 15-5 14-6 13-7 13-8 12-10 11-11 11-12 11-13 10-15 9-15 8-16 7-15 6-16 6-15 6-14 7-14 6-15 7-14 7-13 7-14 7-13 6-13 7-13 8-13 8-13 9-14 10-13 10-13 10-12 10-13 11-12 10-12 10-13 9-12 8-13 7-13 5-14 6-14 5-15 6-15 6-15 5-15 4-15 3-15 1-16 1-16-1-15-1-15-2-14-2-15-3-14-3-14-4-13-5-13-4-11-5-11-5-9-5-9-11-13-11-11-37-45 0 0 0 0 44 27 11 12 11 15 5 8 5 10 5 10 4 12 5 12 4 13 4 14 3 14 2 15 2 15 1 15 2 15 0 16-1 16-1 16-3 17-4 15-5 16-6 15-6 14-5 15-6 15-6 14-7 14-9 14-9 12-10 13-10 12-10 12-10 13-11 12-9 13-9 13-9 13-8 14-8 12-6 13-7 13-8 13-7 13-7 13-7 14-7 14-6 14-7 14-6 15-7 16-7 16-8 16-8 16-10 15-11 14-11 14-12 11-12 11-13 9-15 8-15 6-16 6-16 4-16 2-16 2-14 1-14 1-14 2-12 0-12 1-10 2-11 2-10 3-11 4-20 7-15 5-13 5-12 8-11 10-11 10-11 11-10 9-9 9-4 5-1 1-2 1-2 0-2 1-1-1-2-1-2-1-1-1-1-2 0-2 0-2 1-2 1-1z"  fill="#005bbb" /><path d="M105-157l-4 5-10 9-9 8-9 8-9 8-10 8-10 7-9 6-10 7-10 6-12 5-12 4-13 2-13 1-13-1-12-2-11-4-10-7-9-9-7-9-7-13-4-14-3-12-4-11-5-11-7-11-11-11-9-9-10-10-9-11-8-10-7-9-9-9-9-5-12-6-16-7-17-9-9-5-9-6-16-11-15-11-13-12-14-9-14-6-14-3-51-14 0 0 0 0 64-7 10 3 18 8 15 11 13 11 14 11 15 9 16 9 17 7 17 7 15 7 14 9 10 10 9 10 8 10 7 9 10 9 8 9 10 8 9 10 6 10 5 10 4 11 3 12 3 14 4 10 7 11 8 7 11 4 13 2 10-1 10-1 10-3 9-4 10-5 8-5 10-6 10-6 9-6 10-7 9-7 11-8 10-7 5-4 1-1 2 0 2-1 2 1 2 0 1 1 2 2 1 1 0 2 0 2 0 2-1 2-2 1z"  fill="#fff" /><path d="M98-155l-6-1-12-1-11-1-14 2-12 4-12 4-13 5-11 3-10 2-15 1-13 0-11 2-10 7-11 8-8 8-5 9-4 11-2 11 0 11 2 10 7 7 10 4 11 3 13 2 12 1 12 2 11 3 14 4 10 6 9 7 9 9 2 31 0 0 0 0-30-15-9-7-10-5-12-3-10-2-13-2-14-2-10-2-14-5-10-5-9-8-6-11-3-10-1-15 0-11 2-11 3-11 4-11 6-10 7-8 8-7 12-9 9-6 10-5 11-2 14 0 11 1 11-1 12-2 14-5 14-4 10-2 11-1 13 0 13 2 12 4 6 2 2 0 1 2 2 1 0 2 1 2 0 1-1 2 0 2-2 2-1 1-2 0-2 1-2-1z"  fill="#005bbb" /><path d="M100-155l-7 1-14 2-14 3-14 5-14 5-13 4-10 6-9 6-10 8-10 8-8 6-9 6-8 5-10 5-13 4-13 2-10 1-10 2-11 5-9 5-10 5-9 3-11 3-8-3 0 0 0 0 2-8 1-10 6-9 9-5 9-5 11-5 10-3 10-2 11-1 13-1 12-3 11-4 11-7 9-6 10-7 10-7 12-8 14-7 14-4 14-4 16-4 16-3 16 0 7 0 2 1 2 0 1 1 1 2 1 1 1 2 0 2 0 2-1 2-2 1-1 2-2 0-2 0z"  fill="#005bbb" /><path d="M93-158l-3-5-7-9-7-9-6-10-6-12-5-12-4-13-5-12-5-13-5-13-5-14-5-11-5-9-6-10-6-9-5-10-5-9-5-9-5-13-5-10-7-11-6-7-7-8-7-9-8-9-5-9-3-11 6-9 1-10 0 0 0 0 9 2 8 6 7 8 5 9 7 9 7 10 7 9 7 10 6 12 5 12 5 12 6 12 5 9 5 10 6 11 6 11 5 13 4 13 5 13 6 13 4 14 4 13 4 11 4 10 4 9 6 10 5 10 3 5 1 2 0 2 0 2-1 2-1 1-1 2-1 1-2 0-2 1-2-1-2 0-1-2-2-1z"  fill="#fff500" /><path d="M105-169l5 4 11 9 10 8 11 7 13 8 13 5 13 7 13 7 13 7 12 8 12 9 12 7 13 5 13 3 14 1 11-3 13-6 12-11 11-13 10-16 6-9 7-9 6-10 7-10 6-11 6-12 5-13 6-13 6-13 6-13 6-13 6-12 7-11 6-11 7-11 8-9 8-10 7-8 8-8 8-8 7-7 8-7 14-13 13-13 10-13 10-14 7-13 6-13 5-14 4-15 3-17 3-18 2-20 1-10 2-11 2-11 1-10 2-10 3-10 2-11 2-10 2-10 0-11 11-70 0 0 0 0 9 72-1 11-2 12-2 11-2 10-4 19-1 11-2 10-1 10-1 10-1 10-1 11-2 19-3 18-5 17-6 17-8 14-9 14-10 14-13 14-14 14-15 12-7 7-8 7-8 7-7 7-8 8-7 8-8 9-6 9-7 10-6 12-6 11-6 13-5 13-5 13-5 13-5 14-6 13-5 12-7 12-6 10-6 10-5 9-6 8-5 9-6 8-7 9-7 7-9 7-18 9-18 4-18-1-17-4-16-7-15-9-11-8-11-8-12-7-12-7-13-6-14-8-13-8-12-10-11-10-8-9-5-4-1-2-1-1-1-2 0-2 0-2 1-2 1-1 2-2 2 0 2-1 2 1 1 0 2 1z"  fill="#005bbb" /><path d="M108-160l-3 8-6 15-8 14-8 13-9 12-9 12-9 11-11 10-12 10-11 9-13 9-14 8-16 7-15 4-12 2-10 3-13 4-12 3-10 3-13 1-14-4-9-7-8-8-5-12-1-12 1-10 3-10 3-10 2-12 0-11-2-11-2-11-2-10 13-23 0 1 0-1 19 19 2 11 2 11 1 13 0 11 0 11-3 11-3 11-3 10 1 10 10 5 12-1 11-3 14-3 11-3 12-2 12-3 13-5 12-7 11-8 12-9 11-8 9-9 9-9 9-11 9-11 9-11 7-11 7-14 3-7 1-2 2-2 1-1 2 0 2-1 2 1 2 0 1 2 2 1 1 2 0 2 0 2-1 2z"  fill="#c2e1ff" /><path d="M103-155l-6 3-11 5-10 6-11 6-11 6-9 7-9 7-10 7-11 8-12 8-12 9-13 11-13 14-6 9-6 10-5 12-6 13-6 15-4 16-3 16-2 16-3 16-2 15-3 16-3 16-4 15-5 16-6 17-7 17-8 17-9 16-11 15-11 14-13 12-14 11-15 11-15 12-16 11-15 12-15 12-14 12-14 12-13 12-13 12-12 12-12 12-12 11-12 10-12 11-13 9-12 10-11 8-10 9-8 8-8 9-6 8-9 15-4 13-2 12 0 11 0 11 0 11-3 14-4 13-4 13-4 13-20 41 0 0 0 0-8-39 3-10 5-14 5-12 4-11 4-11 2-14 1-12 3-13 5-15 9-16 7-8 7-9 9-8 10-8 11-8 11-8 12-9 13-9 12-10 12-10 13-11 12-11 13-12 12-11 14-12 14-12 14-13 15-12 15-12 16-12 14-11 15-12 13-11 13-11 11-13 10-15 9-16 7-17 6-17 5-16 4-16 4-15 3-16 3-15 1-16 2-16 2-16 2-17 3-17 4-16 4-16 5-13 6-13 6-11 7-9 8-8 14-13 13-10 13-9 10-7 10-6 11-8 11-6 11-6 11-5 12-5 13-4 6-2 2-1 2 0 2 1 2 1 1 1 1 2 1 1 0 2 0 2-1 2-1 2-1 1-2 1z"  fill="#005bbb" /><path d="M99-171l7-1 14-1 16 0 14 0 14 0 14-1 14-2 14-3 15-1 14-1 14 1 13 1 11 1 11 2 10 1 14 1 13 1 13 0 13 1 14 1 10 2 11 3 12 5 11 1 14 1 11 1 13 3 11 3 11 2 11-1 12-3 12-3 12-2 10-2 22 15 0 0 0 0-26 18-10 2-11 3-12 1-12 2-12 0-11-2-11-3-11-3-11-2-14-1-12-2-11-3-11-4-11-3-13-1-13-1-13-1-14-1-10-2-14-2-11-2-11-1-12-2-12-1-12 0-13 1-15 2-15 2-16 0-14 0-16-1-14-1-13 0-6 0-2-1-2 0-2-1-1-1-1-2-1-2 0-2 0-2 1-2 1-1 2-1 2-1 1 0z"  fill="#c2e1ff" /><path d="M93-166l3-7 7-15 4-12 5-12 3-11 3-10 3-13 2-11 1-14-2-12-4-12-7-9-9-10-10-5-11-1-14 3-12 4-10 5-11 5-10 6-9 6-9 6-5 10-4 11-3 13-3 11-2 10-4 12-5 11-7 8-9 6-23 0 1 0-1 0 6-23 7-9 4-12 3-11 3-11 3-11 3-10 4-10 6-10 9-10 11-7 10-6 11-5 11-6 14-6 13-4 11-3 12-1 13 2 13 4 12 8 9 8 8 10 6 11 4 11 2 12 0 13-1 10-1 10-4 14-3 10-4 9-5 11-5 12-7 14-8 13-4 7-1 2-1 1-2 1-2 1-2 0-2-1-2-1-1-1-1-2-1-1 0-2 0-2 1-2z"  fill="#fff" /><path d="M103-155l-7 3-12 6-12 5-10 5-9 5-13 6-12 4-11 2-11 1-12 1-9 3-9 7-9 7-10 4-10 1-10-4-8-6-8-7-2-10-6-8 0 0 0 0 5-7 10-3 10 3 8 5 10 3 10-8 10-4 10-3 10 0 13 0 12-1 11-3 12-3 9-4 11-4 13-4 13-5 7-2 2-1 2 0 2 1 2 1 1 1 1 2 1 2 0 2 0 1-1 2-1 2-1 1-2 1z"  fill="#005bbb" /><path d="M99-155l-6 0-13 0-13-3-11-1-11 0-10 0-11 1-12-1-10 0-10-1-10-1-10-3-12-3-14-4-14-3-12-1-12 0-12 3-15 6-14 7-13 9-12 9-12 8-11 9-8 9-9 9-9 10-10 11-12 10-11 10-10 10-9 9-8 10-7 9-10 11-12 10-14 8-15 6-15 4-15 6-17 4-16 4-17 4-17 2-19 1-69-14 0 0 0 0 68-9 17-1 16-3 15-3 16-4 14-5 16-5 14-6 13-4 9-6 9-7 9-9 8-10 9-10 9-10 11-11 11-10 11-9 9-10 9-9 10-11 11-10 12-10 11-8 13-10 15-9 16-9 17-8 18-5 16-1 14 2 13 2 10 3 13 4 11 4 12 3 15 1 14 2 10 0 12 1 13 1 13 3 11 3 12 2 6 1 2 1 1 1 2 1 1 1 1 2 0 2 0 2-1 2-1 2-1 1-2 1-2 0-2 0z"  fill="#fff500" /><path d="M97-155l-7-2-15-8-15-8-13-10-13-10-11-11-10-13-8-14-4-18 0-20 1-10 1-11 1-11 0-11-2-12-3-12-3-13-3-13-4-14-4-14-6-14-6-14-7-12-8-12-9-11-9-10-10-10-10-9-10-7-9-5-10-5-10-4-11-3-11-2-12-2-12-1-12-1-12-1-12-1-12-1-11-1-12-1-12-1-13-1-12-1-13 0-13 1-12 2-12 3-11 3-11 5-10 6-8 7-8 8-6 9-4 9-3 11-3 12-2 14-3 16-3 18-3 21-4 22-6 23-6 23-6 23-5 23-5 22-5 23-6 22-7 22-9 21-10 20-10 19-10 18-12 18-12 16-14 16-15 15-17 14-19 14-20 12-22 13-22 13-23 15-154 108 0 0 0 0 153-110 23-15 22-13 22-13 20-12 19-13 17-14 15-16 13-15 12-17 12-17 10-18 10-19 10-20 9-21 6-22 6-22 5-22 5-23 4-23 6-23 5-23 4-23 2-22 1-21 1-19 1-17 2-14 3-14 4-13 5-11 8-11 9-9 11-8 11-6 12-6 13-4 13-3 13-2 14-1 13-1 14 1 12 1 13 1 12 1 11 1 12 1 12 1 11 1 13 1 13 2 12 2 12 3 12 3 11 5 11 6 10 7 11 8 10 9 10 10 10 11 9 12 9 12 8 14 7 14 7 14 5 14 5 14 4 14 4 13 4 13 3 14 1 13 0 12-1 20 0 15 2 12 6 11 7 11 10 10 10 10 12 10 13 9 13 7 6 3 2 1 1 1 1 2 1 2 0 2 0 2-1 1-1 2-1 1-2 1-2 1-2 0-2-1z"  fill="#c2e1ff" /><path d="M104-155l-7 3-15 6-14 5-13 4-12 3-11 2-14 3-14 3-11 3-12 2-13 1-13 0-12 0-14 1-12 1-13 2-13 1-17 0-16-1-19-3-18-2-17 0-16 0-16 0-16 1-16 0-17 0-17-1-16 0-16-1-16 1-16 1-17 3-17 5-17 7-16 8-17 9-15 10-13 12-10 14-7 16-4 16-2 18-2 19 0 18 1 17 0 68 0 0 0 0-21-65-1-20 0-10 1-19 2-19 1-10 2-11 3-10 5-10 5-10 5-8 7-9 7-7 8-7 9-6 17-11 17-9 9-4 19-8 9-4 20-5 19-2 17-1 17 0 16 1 16 1 16 0 16-1 16 0 17 0 16 0 17 0 19 0 19 2 17 1 14 1 13-1 13-2 13-1 13-1 15-1 13 0 15 0 10-2 11-2 11-2 10-1 10-2 10-1 11-1 13-3 14-3 13-4 6-3 2 0 2-1 2 1 2 0 1 2 2 1 1 2 0 2 0 2-1 1 0 2-2 2-1 1z"  fill="#c2e1ff" /><path d="M92-163l0-7 0-12 1-13 2-13 1-13 2-13 1-14 3-15 2-13 0-12 0-13 1-13 0-12-1-12-1-12-2-13-3-13-3-13-4-14-5-16-6-14-7-15-6-14-5-13-3-13-3-12-1-10-3-14-4-12-4-15 0-13 2-14 3-15 6-15 8-16 10-16 10-16 10-17 5-10 5-9 4-10 5-11 3-10 3-11 1-11 1-12 1-11 0-12 0-11 0-11-1-11-1-11-2-11-2-10-8-76 0 0 0 0 25 72 2 12 2 11 2 12 1 11 0 12 0 12 0 12 0 12-1 12-2 13-2 12-3 13-4 11-5 11-4 11-5 10-5 9-4 10-10 16-8 15-6 13-5 14-2 11-2 15 2 11 3 13 3 11 1 10 1 10 2 10 2 11 5 11 5 14 7 14 8 17 5 17 5 15 4 15 2 13 2 14 1 13 1 14 0 13-1 13 0 13-2 15-2 14-3 13-2 14-2 13-3 13-2 12-2 13-2 12-1 6 0 2-1 2-2 2-1 1-2 0-2 1-2-1-2 0-1-1-2-2 0-1-1-2 0-2z"  fill="#c2e1ff" /><path d="M95-157l-5-4-10-6-10-6-8-5-13-7-11-6-9-6-11-6-10-6-8-6-10-5-9-5-9-5-10-3-11 1-9 5-9 7-11 5-13-4-7-7-5-10 0 0 0 0 11-4 7-8 9-6 10-5 11-4 10-1 11 0 10 2 11 6 9 6 10 6 10 6 8 7 8 6 11 7 8 7 10 7 12 8 9 7 9 7 10 9 4 4 2 2 1 2 0 2 0 1 0 2-1 2-2 1-1 2-2 0-2 0-2 0-2 0-1-2z"  fill="#fff" /><path d="M92-161l-1-6-3-10-6-13-7-11-5-8-8-9-8-6-9-4-10-4-9-7-5-9-4-10-4-11 2-10-1-9 0 0 0 0 9 1 9 4 9 5 5 9 2 10 9 5 9 5 9 7 7 8 6 9 5 10 6 12 4 10 3 12 1 12 1 5 0 2-1 2 0 2-2 1-1 1-2 1-2 0-2 0-2 0-1-1-1-2-1-2-1-1z"  fill="#fff500" /><path d="M102-170l5 1 12 0 11-2 11-3 9-4 10-5 8-7 6-10 3-10 2-11 3-13 1-11 0-10-1-12-4-11-4-9-3-11-3-10-4-9-11-14 0 0 0 0 12-7 10-3 10 3 8 9 5 10 3 11 2 11 4 9 3 10 2 12 0 11-1 13-2 14-3 13-3 13-3 9-5 10-6 9-9 8-9 5-12 5-12 3-14 3-10 0-10 0-10-3-5-2-2-1-1-1-2-1 0-2-1-2 0-2 1-1 1-2 1-1 1-1 2-1 2 0 2 0z"  fill="#c2e1ff" /><path d="M93-165l1-5 3-10 5-13 3-11 1-10 0-12 0-11 3-11 6-12 9-11 9-8 10-7 9-6 11-5 11-4 12-5 9-3 11-4 11-7 10-9 8-7 9-7 9-6 9-6 9-5 14-4 10-1 14 2 12 4 9 4 10 4 10 3 12 4 21 22 0 0 0 0-38 5-12-4-11-4-10-5-12-4-11 0-12 4-11 7-11 9-7 8-8 7-9 6-13 8-12 4-11 4-10 3-11 5-10 4-11 7-10 7-7 8-4 10-2 10 0 10-3 12-5 12-6 12-6 13-3 4 0 2-2 1-1 1-2 1-2 0-2 0-2 0-1-2-1-1-1-2-1-1 0-2 1-2z"  fill="#fff" /><path d="M92-161l-2-5-4-12-4-10-6-10-7-9-10-7-12-5-11-1-10 4-7 7-5 11-3 10-3 10 2 10 5 11 2 13-1 12-1 12-5 9-10 7-14-2 0 0 0 0 0-12-2-10 0-11-1-12-4-10-3-12 1-11 3-10 4-10 4-10 7-12 8-9 8-6 10-4 10-2 11 0 11 3 11 5 12 7 10 10 6 8 5 9 4 11 3 11 3 12 1 6 0 2 0 2-1 2-1 2-1 1-2 1-2 0-2 0-2 0-1-1-2-1-1-2-1-2z"  fill="#005bbb" /><path d="M100-155l-5 0-12 2-11 1-10 0-12 0-10 2-12 5-11 3-9 2-11 4-10 6-10 7-9 6-10 7-7 8-8 10-9 8-8 6-12 4-11 3-12 1-13 0-11 1-10 4-26 2 0 0 0 0 4-26 9-6 10-4 11-2 10-1 12 0 12-1 10-2 10-7 7-8 9-9 9-8 10-7 10-6 9-6 9-5 11-4 10-2 11-2 12-3 12-3 12-1 11 1 11 2 11 1 13 1 4 1 2 0 2 1 1 1 1 1 1 2 1 2 0 2-1 1-1 2-1 1-2 1-1 1-2 0z"  fill="#fff" /><path d="M99-155l-7 0-15-1-15-3-14-5-14-5-13-5-12-5-12-4-13-2-15-2-17-2-17-2-18-3-10-3-10-3-10-4-10-5-10-4-9-4-10-4-10-3-10-3-10-2-12-2-11-2-13-1-12-1-13-1-14 0-13 1-14 2-14 2-13 4-15 4-15 6-16 7-17 7-16 9-17 10-15 12-13 13-12 14-12 15-11 16-10 17-9 17-8 17-6 17-7 17-7 16-7 15-8 15-9 14-9 15-10 13-11 14-10 12-10 13-9 12-8 11-7 12-7 11-7 11-7 10-6 9-6 9-5 9-5 9-8 17-4 16-1 15 2 13 4 10 7 9 18 27 0 0 0 0-34-12-8-10-5-13-3-16 1-18 4-18 4-10 4-9 6-9 5-9 7-9 6-8 7-9 7-10 8-10 7-11 8-11 9-11 10-12 10-12 11-13 10-13 10-13 10-14 8-14 9-15 8-14 7-16 7-16 7-17 8-17 9-18 10-17 11-16 12-16 12-15 13-13 15-13 16-12 16-10 17-9 15-8 16-7 15-5 15-5 14-3 14-2 15-2 14-1 14 0 13 1 13 1 13 1 12 2 11 2 11 3 11 3 10 3 11 4 9 4 18 7 18 5 17 3 17 2 17 1 16 3 16 3 13 5 12 6 13 5 13 5 13 6 12 4 14 2 7 1 2 1 1 1 2 1 1 2 1 1 0 2 0 2-1 2-1 2-1 1-2 1-2 0-2 0z"  fill="#c2e1ff" /><path d="M103-169l8 2 15 7 16 5 19 5 21 1 11 0 12-2 12-2 13-3 13-3 14-3 13-4 14-5 15-6 15-5 16-5 17-5 16-4 16-3 16-3 15-2 14-2 14-1 15-2 14-1 14-2 13-2 13-4 13-3 13-3 13-3 13-3 13-1 14 0 13 0 13 2 12 1 12 1 12 1 12 1 11 1 12 0 11 0 10-1 11-1 10-1 11-1 10-1 10-2 10-1 10-3 18-6 16-7 13-10 12-10 9-12 6-13 5-14 5-15 6-14 6-14 7-12 6-11 8-9 7-8 9-8 8-7 8-9 25-9 0 0 0 0-2 25-8 8-8 7-9 7-9 7-9 10-6 9-6 10-6 12-6 14-5 15-7 15-8 16-12 14-14 12-16 11-9 4-10 4-10 3-10 3-11 2-10 2-11 1-11 1-10 1-11 1-11 1-11 0-12 0-12-1-11-1-12-1-13-1-12-1-12-2-12-2-12-1-13 0-12 2-13 1-12 3-13 3-13 3-13 3-14 3-15 1-15 2-14 0-14 1-14 1-15 2-15 3-16 4-15 4-16 5-15 6-15 6-15 7-14 6-14 4-14 4-13 4-14 4-13 3-13 2-13 1-13-1-12-1-10-2-10-3-18-7-14-8-7-4-2-1-1-1-1-2-1-1 0-2 1-2 1-2 1-1 1-1 2-1 2 0 1 0 2 1z"  fill="#fff" /><path d="M106-157l-4 5-8 8-9 8-9 7-9 6-9 6-10 7-9 7-11 7-10 6-9 6-10 6-10 5-11 4-12 5-11 4-14 5-18 3-19 0-19-2-18-2-19-1-18-2-19-2-19-2-10-2-11-2-11-2-11-2-12-3-11-3-11-3-12-5-10-5-9-6-9-7-8-7-7-8-8-9-6-10-7-11-7-11-7-13-7-14-7-14-9-14-9-15-8-16-9-16-9-17-8-20-6-19-6-21-4-23-3-24-2-25-1-26-2-25-1-27-1-28-3-28-3-30-3-31-1-32-2-33-1-35 1-37 3-38 3-40 36-269 0 0 0 0-34 270-3 39-3 38-1 37 1 35 2 33 1 32 3 31 3 30 3 28 1 28 2 27 1 25 2 25 2 26 4 24 4 22 6 20 8 19 9 18 10 17 9 15 10 15 10 14 10 14 8 14 8 13 8 12 7 10 7 10 6 9 13 15 14 12 17 10 9 3 11 3 11 3 11 2 11 2 11 2 19 2 19 2 19 2 17 1 19 1 19 1 18 1 15-1 13-3 12-3 12-5 11-4 10-4 14-6 8-5 10-6 10-6 10-6 11-7 10-6 9-5 9-5 12-8 9-7 4-4 2-1 2-1 2 0 1 0 2 0 2 1 1 2 1 1 1 2 0 2 0 2-1 2-1 1z"  fill="#c2e1ff" /><path d="M102-170l7 1 12 2 12 1 11 0 12-2 12-2 11-5 11-6 12-8 11-7 11-7 9-6 9-6 11-8 10-6 7-8 4-12 3-10 4-11 4-9-4-10-4-11-3-10-1-11 3-12 27-12 0 0 0 0 2 19 2 10 3 10 4 10 3 12-1 11-5 11-5 10-4 10-3 9-4 9-7 10-10 7-11 7-12 7-9 5-9 6-11 6-11 7-13 8-14 8-15 5-15 2-14 1-13-1-13-3-14-3-6-3-2-1-1-1-2-1-1-2 0-2 0-2 1-2 1-1 1-2 2-1 1 0 2-1 2 1z"  fill="#c2e1ff" /><path d="M94-158l-4-4-8-10-8-8-8-7-11-8-8-5-10-8-8-7-8-7-9-6-11-3-11-2-12-1-10 0-11 1-11 0-11-1-9-6-11-5 0 0 0 0 8-11 8-8 11-2 10 1 11 0 12-1 11 2 10 1 12 3 10 4 11 5 9 6 9 9 8 9 9 8 9 8 8 8 8 9 8 11 7 12 2 4 1 2 1 2 0 2-1 1-1 2-1 1-2 1-1 1-2 0-2 0-2-1-1-1-1-1z"  fill="#fff500" /><path d="M93-159l-4-6-6-12-6-12-6-10-6-9-6-9-7-13-7-11-6-12-3-12-1-13 2-13 1-11 0-13-4-13-4-12-6-13-5-18-4-20-2-12-1-13 0-12 0-14 0-13 1-12 1-13 1-13 2-12 3-13 3-13 4-14 5-14 6-14 5-16 5-17 3-18 1-19 0-20-1-22-2-24-1-25 1-27 2-27 5-27 6-27 8-26 8-26 8-25 9-24 10-24 12-23 12-23 12-24 11-24 8-25 6-27 4-27 4-28 3-30 3-31 2-32 2-34 1-35 3-34 3-33 3-31 2-30 3-30 8-195 0 0 0 0-6 195-3 30-2 30-3 31-3 33-3 34-1 35-2 34-2 32-3 31-3 30-4 29-4 27-6 26-8 26-11 24-12 24-12 23-12 23-10 23-9 25-8 25-8 25-8 26-6 27-4 28-2 26 0 27 2 25 2 23 2 22 1 21 1 20-2 19-3 18-4 17-4 15-5 13-3 13-3 13-1 12-2 12-1 12-1 12 0 12 1 12 1 13 1 12 2 11 3 10 5 19 5 14 7 14 5 12 4 14 2 13-1 11-2 15-2 10 1 10 4 12 6 11 6 13 5 10 5 10 6 12 5 12 5 13 2 6 1 2 0 2 0 2-1 2-1 1-2 1-2 1-2 1-2-1-1 0-2-1-1-2-1-1z"  fill="#c2e1ff" /><path d="M93-165l2-7 3-13 3-14 2-16 2-18 4-18 3-18 1-18 0-18 0-18 0-17 1-16 3-17 5-15 7-15 11-15 14-12 18-12 9-5 9-4 10-4 9-2 10-2 20-1 19 0 19 4 19 5 16 6 15 7 14 7 13 7 12 7 14 6 12 8 13 6 12 5 11 3 11 1 10 1 11-2 12-5 12-7 12-9 8-7 6-8 5-9 3-9 23-39 0 0 0 0 7 36-4 12-5 13-7 12-9 11-10 9-9 7-11 7-11 6-10 4-12 3-13 1-12-2-13-2-14-5-13-6-14-6-13-8-12-6-14-7-13-8-12-7-14-7-14-5-16-5-16-3-17-1-17 2-16 3-16 7-15 9-13 11-10 10-7 11-5 12-4 13-2 14-1 16 0 17 0 18-1 20-1 10-3 20-3 17-3 17-3 17-5 15-5 14-3 6 0 2-2 2-1 1-2 0-2 1-2-1-2 0-1-1-2-2 0-2-1-1 0-2 0-2z"  fill="#fff500" /><path d="M94-158l-4-4-8-9-6-8-9-11-7-9-7-9-6-9-5-9-5-9-2-11-1-14 1-11-1-11-2-10-5-10-10-3-13 0-10 4-4 11-3 11-3 11-1 10-16 29 0 0 0 0-16-27 1-14 3-14 3-11 3-11 6-13 9-10 9-5 12-3 12-1 11 1 12 1 12 6 8 9 5 9 4 12 2 13 2 11-1 11-2 11 1 12 4 10 6 10 5 9 7 11 8 12 5 9 5 9 3 5 1 1 1 2 0 2 0 2-1 2-1 1-2 1-2 1-2 0-1 0-2 0-2-1-1-2z"  fill="#c2e1ff" /><path d="M99-155l-6 0-14 0-14-1-15-1-18-2-17-4-17-3-19-5-11-3-11-5-11-5-12-5-12-6-12-5-12-4-12-3-13-3-13-1-12-1-12-1-12 0-11 0-12 0-11-1-10 0-11-1-11-1-11-1-10 0-10-1-20 0-18 1-17 2-15 4-12 6-10 8-10 8-10 9-10 9-10 10-11 13-10 15-10 16-8 17-6 17-3 15-2 13-1 13 0 12 1 13 3 11 2 11 2 12 1 13-2 13-20 17 0 0 0 0-7-28 1-11-1-11-2-11-2-14 0-11 1-11 1-13 2-15 3-16 6-18 3-10 4-9 5-9 5-10 5-9 5-8 12-16 11-13 12-10 10-9 11-9 12-8 15-8 17-6 19-3 19-1 20 1 10 0 10 1 11 1 10 1 11 1 11 1 10 1 11 0 11 1 12 0 12 1 12 0 13 1 14 2 14 2 13 3 13 4 13 5 12 4 12 5 11 4 10 4 10 2 18 5 18 3 16 4 16 3 15 1 14 2 14 2 6 2 2 0 2 1 1 1 1 2 1 2 0 2 0 2-1 1-1 2-2 1-1 1-2 1-2-1z"  fill="#005bbb" /><path d="M101-171l6 1 14 0 13 0 12-2 12-2 13-3 13-2 11-4 11-3 14-5 12-7 11-7 10-7 9-8 5-11 5-11 4-12 5-15 3-12 1-12-3-11-7-11-7-8-10-8-11-3-12 0-12-1-12-3-11-4-11-5-9-5-10-4-9-3-11-2-12-3-43-17 1 0-1 0 54-10 13 3 14 3 11 5 11 5 12 5 13 4 12 2 11 0 11 1 12 4 9 5 9 7 10 11 6 8 6 12 5 14 0 14-1 14-3 9-3 10-5 14-3 11-6 12-7 12-10 11-11 8-12 7-9 5-9 5-10 4-12 4-12 3-12 2-14 3-13 1-14 2-14 1-15-1-14-2-6-2-2 0-1-1-2-1-1-2-1-1 0-2 0-2 1-2 1-2 1-1 2-1 2-1 2 0z"  fill="#fff" /><path d="M100-171l5 0 12-2 13 0 13-1 13 1 13 2 13 2 13 2 11 2 12 2 11 3 10 3 15 4 10 1 11 3 11 2 13 2 12 0 12-4 8-7 4-10 2-10 4-12 4-10 1-10-3-12-5-11-7-12 6-27 0 0 0 0 24 15 5 10 6 11 4 11 2 12 0 12-3 11-5 11-3 11-3 11-4 9-6 9-8 7-8 6-11 4-14 2-11 0-11 0-11-3-11-2-10-2-12-3-10-3-10-3-14-4-11-3-12-2-12-3-14-3-11-2-11-2-12 0-12-1-12 0-6 0-2-1-2 0-1-1-2-2 0-1-1-2 0-2 0-2 1-2 1-1 2-1 2-1 2-1z"  fill="#005bbb" /><path d="M108-163l1 6 1 15-1 16-3 18-2 18-1 11 0 12-1 13-2 14-2 15-2 16-1 17-2 18-2 20-2 19-2 19-1 19-2 20-2 20-4 19-4 19-4 17-4 17-5 15-6 13-6 13-7 11-6 11-8 10-7 9-8 8-7 8-8 7-15 12-15 11-14 10-12 10-12 10-12 9-9 9-9 9-10 10-11 11-13 11-14 8-13 7-13 7-12 5-13 5-12 5-12 3-11 4-10 3-14 7-11 6-9 8-6 9-30 19 0 0 0 0 2-31 6-8 9-10 11-8 13-7 9-4 11-5 12-4 11-3 11-3 12-4 11-4 12-5 11-6 13-7 12-7 11-8 10-10 11-10 10-10 11-9 12-9 13-8 13-10 15-10 15-10 16-10 15-12 8-7 7-9 8-8 7-10 7-11 8-11 6-12 6-15 5-16 5-17 4-18 3-20 2-19 1-20 0-19 1-20 0-19 1-19 0-18-1-18 0-16 0-16 1-14 1-12 0-12 0-11 2-21 3-16 3-14 0-13 0-7 0-2 1-2 1-1 1-2 2-1 1 0 2 0 2 0 2 1 1 1 2 1 0 2 1 2z"  fill="#c2e1ff" /><path d="M95-168l5-6 8-10 8-13 10-13 10-13 8-14 6-15 6-15 6-14 5-14 6-14 5-13 6-12 7-13 6-12 6-15 6-19 3-11 5-12 5-12 6-13 6-14 7-13 6-14 7-14 6-13 5-13 6-13 5-11 6-12 4-10 5-11 4-9 5-10 5-9 5-9 6-9 6-8 8-9 8-9 10-8 9-8 11-8 11-7 12-6 12-6 12-4 12-3 13-3 13 0 12 0 12 1 11 1 12 2 11 2 12 3 11 2 11 2 11 2 11 3 11 2 12 3 12 3 11 4 11 3 10 3 11 3 10 2 10 4 10 3 10 4 10 4 10 4 10 4 10 5 10 4 11 6 11 6 79 52 0 0 0 0-87-36-11-6-11-5-9-4-10-5-10-4-10-4-9-4-10-4-9-3-10-4-10-3-10-3-11-3-11-3-11-3-11-3-11-3-11-2-11-3-12-2-11-2-11-3-11-2-11-3-11-1-10-2-11-1-11 0-11 0-11 2-12 3-10 4-11 5-11 6-10 7-9 7-10 8-8 8-8 7-6 8-12 16-11 17-5 8-5 10-5 10-5 10-5 11-6 12-5 12-6 13-5 14-6 14-5 14-6 14-5 14-5 12-3 12-4 12-2 11-3 10-3 10-6 18-7 15-7 11-5 11-6 12-6 13-6 15-6 14-6 15-7 15-10 17-11 15-10 11-10 12-11 12-6 4-1 1-2 1-2 0-2 0-2 0-1-1-1-2-1-2-1-1 0-2 1-2 0-2 2-1z"  fill="#fff500" /><path d="M92-160l-3-7-5-16-4-17-3-15-3-14-2-16 0-16 2-17 3-18 2-10 1-11 2-11 1-12 3-13 3-14 3-13 3-13 3-14 3-13 4-14 4-14 6-14 5-14 6-13 5-14 5-13 7-13 6-12 6-12 6-11 6-11 5-11 5-10 5-9 10-16 10-15 9-12 10-10 10-9 10-8 8-6 13-8 13-7 13-5 14-3 11-2 10-2 10-1 11-2 14 2 13 6 7 7 9 10 6 9 1 40 0 0 0 0-27-25-6-8-7-8-11-4-11 2-11 1-12 1-10 2-12 3-10 3-10 6-9 5-9 6-9 6-10 8-9 9-10 11-10 14-11 16-5 10-6 10-6 11-6 12-7 11-6 12-6 12-5 13-5 13-5 14-5 14-5 13-4 14-3 13-3 13-2 14-2 13-3 13-2 13-1 13-1 12-1 12-1 11-1 11-3 18-2 14 0 14 1 13 2 15 2 15 2 15 5 15 2 8 0 2 0 2-1 2 0 1-2 2-1 1-2 0-2 0-2 0-2-1-1-1-2-1-1-2z"  fill="#fff500" /><path d="M101-155l-7 2-12 4-11 5-11 6-10 7-11 8-9 8-10 8-13 9-14 8-16 5-16 2-16 1-17 0-17 1-18 2-18 4-18 3-19 3-20-1-18-3-18-5-18-7-16-8-15-9-14-8-14-8-14-8-14-8-14-7-13-8-12-8-12-9-9-9-9-9-9-9-9-10-7-9-7-9-7-9-6-8-11-11-7-7-6-8-7-8-5-11-4-11 7-34 0 0 0 0 21 30 4 9 8 11 9 11 8 8 7 9 7 9 6 9 7 9 7 9 7 8 8 9 9 9 9 8 9 7 12 8 13 7 15 8 13 8 14 8 15 9 14 8 13 8 15 7 16 5 17 4 15 2 16-1 17-3 19-5 19-3 10-2 19-1 16 0 15-1 12-2 12-3 11-6 11-7 10-8 12-9 11-7 12-8 13-6 14-4 15-3 7 0 2-1 2 1 1 1 2 1 1 2 1 1 0 2 0 2-1 2-1 2-1 1-2 1-2 1z"  fill="#005bbb" /><path d="M107-166l3 5 6 10 6 8 6 9 7 11 6 10 7 10 6 10 8 8 10 8 10 7 12 7 11 7 12 6 11 5 10 6 9 5 13 6 12 5 11 5 12 3 11-1 10-2 12-1 12 1 11 0 11 0 12-2 11-5 10-6 9-5 9-5 10-4 10-4 14-4 31 8 0 0 0 0-23 21-12 4-12 5-12 5-11 7-8 6-10 4-9 3-13 2-12 1-13 0-11-2-10 0-11 2-11 1-11-2-12-3-12-5-13-6-9-5-9-5-9-5-9-5-11-6-12-6-12-7-13-8-12-9-11-10-10-11-8-11-6-12-6-10-5-10-5-10-6-11-4-11-2-5-1-2 0-2 0-2 1-2 1-1 2-1 2-1 1-1 2 1 2 0 2 1 1 2 1 1z"  fill="#005bbb" /><path d="M98-155l-6-1-10-1-11-1-15 1-10 2-11 2-11 3-9 4-12 8-7 7-11 10-8 9-7 10-5 9-4 9-5 12-5 12-5 11-3 9-6 9-4 7 0 0 0 0-5 2-11-3-4-10-1-10 4-11 4-9 6-9 4-11 5-11 6-12 7-10 8-11 7-7 8-8 8-6 9-8 11-7 12-6 14-4 12-1 12-2 12 0 12 1 12 2 11 3 6 2 2 0 1 2 2 1 0 2 1 2 0 2-1 1 0 2-2 2-1 1-2 0-2 1-2-1z"  fill="#005bbb" /><path d="M108-163l1 7 3 14 5 17 5 19 3 18 3 16 1 14 2 13 1 12 2 11 2 13 3 13 4 12 4 11 4 11 6 12 5 12 5 13 3 11 5 11 6 9 5 9 9 6 11 7 8 10 5 11 4 11 3 10 4 12 1 11-10 21 0 0 0 0-22-20-3-11-3-11-4-12-5-9-8-6-9-7-7-7-5-10-6-10-5-12-4-12-3-11-4-11-5-12-5-13-4-12-4-14-3-14-1-10-1-11-1-10 0-12-1-13-1-14-1-15-3-17-4-18-4-18-2-16-1-8 0-2 1-1 1-2 1-1 1-2 2 0 2 0 2 0 2 1 1 1 1 1 1 2 1 2z"  fill="#fff" /><path d="M105-156l-5 4-10 9-9 8-9 8-9 8-9 9-10 8-11 7-10 7-8 6-9 10-7 9-8 10-7 9-6 8-2 11 3 9 3 10-2 10-8 17 0 0 0 0-11-6-9-9-2-11-3-10-2-10 2-11 4-11 8-10 8-10 8-9 8-10 8-8 9-7 9-7 11-7 10-6 9-6 10-8 10-8 9-7 11-7 11-8 5-4 2-1 2 0 2-1 2 1 1 1 2 1 1 1 1 2 0 2 0 2-1 2-1 2-1 1z"  fill="#005bbb" /><path d="M103-155l-6 3-12 4-12 3-13 4-11 3-12 2-11 1-10 0-11-1-13-2-13 0-10 1-12 3-13 4-11 4-12 5-13 5-12 4-12 3-12 3-12 1-11 1-12 2-10 3-9 5-11 6-11 6-7 6-8 8-4 9 2 11 8 8 11 16 0 0 0 0-22 9-12-4-9-9-6-11-2-12 0-12 4-13 8-11 10-10 8-7 9-6 11-6 11-6 14-5 15-3 11-1 10-1 14-2 10-2 10-4 12-4 13-5 12-5 11-4 11-3 14-3 10-1 15 1 15 2 12 2 13 1 14-1 12-2 12-2 12-2 11-3 6-1 2-1 2 0 2 1 2 1 1 1 1 2 1 2 0 2 0 2-1 1-1 2-2 1-1 1z"  fill="#fff500" /><path d="M102-155l-7 2-12 4-12 3-11 5-13 6-11 5-12 6-12 5-10 5-11 5-10 4-10 5-9 5-14 8-10 6-12 6-13 5-13 3-13 1-11-2-14-5-10-7-9-8-6-8-6-9-6-10-4-12-5-9-8-9-7-9-7-10-7-8-6-9-7-11-4-10 3-33 0 0 0 0 29 28 7 10 7 9 6 9 7 10 7 9 7 9 5 11 4 12 6 10 6 10 9 8 9 5 13 2 14-4 10-5 11-5 9-6 11-6 11-4 10-5 10-4 11-5 11-4 12-5 12-5 12-5 12-4 14-5 14-2 13-2 6-1 2-1 2 1 2 1 1 1 2 1 1 2 0 2 0 2-1 2-1 1-1 2-2 1-1 0z"  fill="#fff" /><path d="M98-170l7-2 13-6 16-8 18-7 18-5 17-5 15-4 15-5 14-4 15-5 15-3 14-4 15-3 15-2 14 0 12 1 11 3 10 3 12 3 11 0 11 0 11 1 11 0 14-2 11-5 13-7 9-5 10-7 9-8 9-8 10-9 8-7 8-11 5-11 5-9 5-11 6-11 7-10 4-10 4-10 24-40 0 0 0 0 6 37-3 12-5 12-5 13-7 11-5 9-5 10-4 10-5 10-8 13-10 10-10 8-9 8-10 9-11 8-9 6-9 5-10 6-10 5-12 4-13 2-12 0-13 0-10-1-12 0-11-1-14-5-12-4-13-3-11 0-12 1-14 2-14 4-15 3-14 4-15 4-16 4-15 4-17 4-17 4-16 6-17 8-16 5-7 1-2 0-2 0-2-1-1-1-2-1 0-2-1-2 0-1 1-2 1-2 1-1 1-1 2-1z"  fill="#fff500" /><path d="M94-167l3-5 6-10 6-9 7-11 6-11 4-12 1-11-1-11-1-12 0-12-1-12-2-11-2-13-1-10-1-10-1-10 0-12 0-11-2-10-2-9-11 7-9 10-30 11 0 0 0 0 3-29 7-9 11-10 9-7 11-6 13-1 11 4 10 8 5 10 3 12 1 12 1 11 0 11-1 13 1 11 1 10 1 12 3 14 0 14 0 13-1 10 1 12-2 14-5 13-7 11-7 11-7 8-7 9-8 8-4 4-1 2-1 1-2 0-2 1-2-1-2 0-1-2-2-1-1-2 0-2 0-2 1-1 0-2z"  fill="#fff" /><path d="M95-157l-5-4-12-10-12-10-12-15-12-14-12-15-12-14-11-14-12-10-13-8-14-5-15-5-14-6-14-7-12-7-12-8-12-8-13-9-13-10-13-14-10-16-9-17-4-9-4-10-9-17-10-16-6-8-7-9-8-8-7-8-8-8-9-7-9-7-10-6-10-5-11-6-11-6-11-6-11-7-11-8-11-8-11-8-12-9-10-10-10-11-9-12-7-13-5-13-3-15-1-16 0-16 3-16 5-15 7-15 9-14 10-15 12-14 12-16 12-15 13-16 13-16 13-16 14-17 14-17 14-18 14-17 14-18 13-18 10-19 9-19 8-20 48-132 0 0 0 0-46 133-8 19-9 20-11 19-12 19-14 18-14 17-14 17-13 18-14 17-13 17-13 16-11 16-12 17-10 16-11 15-9 14-8 13-6 14-4 14-2 14-1 15 2 14 3 13 4 12 6 11 8 11 9 10 10 9 11 8 12 8 11 7 11 7 10 6 11 6 11 5 12 6 11 6 11 6 10 8 10 7 9 8 8 9 8 8 8 9 7 9 7 9 6 9 4 9 5 9 9 17 8 16 8 13 10 10 12 9 13 9 12 8 11 8 11 7 11 6 13 6 15 6 17 6 15 10 14 13 12 15 12 14 12 15 11 15 11 13 11 11 10 11 4 5 1 1 1 2 1 2 0 2-1 1-1 2-1 1-1 2-2 0-2 0-2 0-2 0-1-2z"  fill="#fff500" /><path d="M96-170l6-3 11-7 9-7 7-8 5-8 7-13 3-12 4-14 1-12-1-11-3-10-8-8-10-4-10 4-5 11-4 11-6 11-9 8-10 3-20 1 0 0 0 0 5-27 8-6 4-10 3-11 6-10 9-6 9-5 11-4 12 0 11 2 11 6 9 8 7 9 4 12 3 11 0 13-2 14-2 11-3 10-4 10-5 10-7 11-8 10-10 9-12 7-12 6-6 3-2 0-2 1-2-1-2 0-1-1-2-2 0-2-1-1 0-2 0-2 1-2 2-1 1-2z"  fill="#fff" /><path d="M93-159l-3-6-8-11-8-14-8-14-10-14-11-15-12-12-13-11-12-8-10-7-10-5-10-4-13 1-10 1-11 2-11 1-12 0-12 0-11 1-9 4-9 6-11 3-11 1-11-1-10-6-7-14 0 0 0 0 11-5 9-6 11 0 11-4 10-5 12-3 11 0 11 0 11 1 11 0 10-1 12-1 13 0 11 2 11 4 10 6 11 7 11 9 14 11 13 13 7 8 12 15 10 16 8 15 7 14 7 13 2 6 1 2 0 2 0 2-1 1-1 2-2 1-1 1-2 0-2 0-2 0-2-1-1-1-1-2z"  fill="#005bbb" /><path d="M93-166l2-6 3-15 1-11 0-14-1-13-2-14-1-14 0-12 0-12 3-11 2-11 5-14 3-10 4-15 3-12 4-13 3-12 2-12 0-11-1-15-1-12-1-12-2-10-4-10-7-8-8-7-8-8-5-8-7-7-10-7-10-6-13-26 0 0 0 0 32 1 11 6 10 7 8 7 6 8 7 9 8 8 7 9 6 10 4 12 3 13 1 10 0 11 1 14 0 11-1 14-2 14-3 15-4 12-3 12-3 11-4 11-5 14-4 13-3 12-1 10 0 12 1 14 1 15 0 15-2 15-3 12-5 13-3 5-1 2-1 1-2 1-2 0-2 0-2 0-1-1-2-1-1-2-1-1 0-2 0-2 1-2z"  fill="#c2e1ff" /><path d="M105-157l-5 6-12 11-10 11-9 12-9 13-12 15-7 7-8 8-7 7-8 8-8 7-8 7-8 7-9 8-9 7-10 7-9 7-9 7-9 7-7 8-7 7-6 8-11 17-5 9-4 9-4 10-3 10-2 10-3 10-2 11-2 11-1 11 0 12 0 12 0 12 1 12 2 13 1 14 0 14 1 13 2 13 2 13 2 12 3 11 3 11 4 11 4 10 4 10 4 10 6 18 5 16 6 14 5 13 6 11 6 12 5 13 5 13 7 12 9 15 12 17 6 10 7 10 6 9 7 10 7 10 7 10 6 10 6 10 6 10 5 9 6 9 6 9 6 10 7 9 6 10 6 11 6 11 24 77 0 0 0 0-40-69-5-10-6-10-6-10-6-9-7-10-6-9-6-10-6-9-6-10-6-9-5-10-7-9-8-10-7-9-7-10-7-9-7-9-7-9-6-8-11-16-8-16-5-14-4-11-5-11-5-13-5-14-5-15-4-17-5-17-3-10-4-10-4-11-4-11-3-12-3-13-2-12-2-13-2-14-1-13-1-13-1-14-2-13-2-13-1-13 0-13 0-12 1-13 2-12 2-11 3-11 3-11 3-10 4-11 5-11 5-10 6-9 7-10 7-8 7-8 9-8 9-8 9-8 9-7 9-7 8-7 9-7 8-8 8-7 7-7 7-7 8-8 13-14 11-13 10-13 11-14 12-11 13-10 6-4 1-2 2 0 2 0 2 0 2 1 1 1 2 1 1 2 0 2 0 2-1 1 0 2-2 2z"  fill="#c2e1ff" /><path d="M105-169l6 4 15 8 15 4 17 3 19 2 19 1 19-2 18-5 14-7 12-9 12-12 12-13 11-14 10-14 8-14 5-13 1-12 0-14-1-13-2-13-3-13-4-13-3-14-3-11-3-10-7-11-9-12-8-10-10-10-7-7-7-8-6-8-8-13-5-13-1-11-1-12 1-14 2-10 4-13 2-10 1-11 16-26 0 0 0 0 15 23-1 12-2 13-4 12-4 13 0 11 0 13 3 10 4 9 8 10 10 11 7 7 7 8 9 13 6 9 6 11 4 11 4 13 3 13 2 13 4 14 2 14 1 16 1 15-1 17-5 17-8 15-10 15-12 16-12 14-14 13-14 13-8 5-9 5-10 3-10 3-10 2-11 2-11 1-10 0-11-1-10-1-10-2-19-4-18-6-16-10-6-5-2-1-1-2-1-2 0-2 0-1 1-2 1-2 2-1 1-1 2 0 2 0 2 0 2 1z"  fill="#fff" /><path d="M94-157l-5-5-11-10-12-13-10-12-10-13-8-12-6-13-5-11-5-10-3-11-3-10-1-11 0-10 3-10 5-9 11-11 9-8 7-11 2-10 1-10-1-11 0-10 1-12 2-11 5-9 6-9 8-7 10-2 10 5 8 13 0 0 0 0-9 2-3 10-5 9-2 10-1 11 0 11 0 11-3 13-4 10-6 9-7 9-11 9-7 7-4 10 2 11 3 13 3 10 5 11 4 11 7 11 8 12 9 13 10 12 11 12 4 5 1 2 1 2 0 2 0 2-1 1-1 2-2 1-1 1-2 1-2 0-2-1-2-1-1-1z"  fill="#fff" /><path d="M98-155l-7-2-16-4-16-6-17-6-17-6-10-3-18-5-19-5-19-5-18-5-19-2-19 0-19 2-11 1-11 1-11 0-11 0-10 0-10-1-19-2-18 1-17 5-16 9-14 13-8 9-8 10-7 10-8 10-7 10-7 10-6 9-5 10-6 10-4 9-6 18-2 17 0 18 0 20 1 10 1 19 1 20 0 19 0 10 0 11 0 11 1 11 1 12 2 11 4 12 4 12 6 13 6 14 8 15 8 14 8 14 8 14 9 15 7 14 8 13 8 13 7 12 7 11 6 11 7 10 7 9 6 10 7 9 7 9 6 9 7 8 6 9 31 66 0 0 0 0-44-57-6-8-6-9-7-10-6-9-6-9-6-10-7-10-6-11-6-11-7-12-6-12-8-13-7-13-8-14-9-14-8-14-9-14-9-14-9-14-8-14-8-14-5-13-4-13-3-13-2-12-1-12-1-12 0-11 0-20 0-18-1-19-1-10 0-10 0-11-1-10 1-10 2-20 2-10 3-10 4-10 5-11 6-10 6-9 6-11 7-10 7-10 8-11 7-10 8-11 8-10 8-9 9-8 10-7 11-4 10-4 11-2 10-1 11 0 10 1 19 2 19 1 10-1 11 0 10-2 11-1 11-1 11-1 10 1 11 1 10 1 10 2 10 3 18 6 18 5 10 2 20 6 19 6 16 7 16 7 13 5 7 3 2 1 1 1 2 1 0 2 1 2 0 2-1 2-1 1-1 2-2 1-1 0-2 0-2 0z"  fill="#c2e1ff" /><path d="M108-163l1 8 2 17 3 18 3 20 2 11 2 11 1 11 2 10 3 10 4 19 5 16 4 14 3 14 4 12 4 11 6 10 7 12 6 12 7 13 7 11 6 11 6 10 7 10 5 9 6 11 7 10 7 8 7 8 6 8 8 8 8 7 8 7 6 9 6 20 0 0 0 0-15 1-10 0-10-8-7-7-7-7-8-8-6-9-7-8-7-9-6-11-5-10-6-12-5-9-6-10-7-11-6-12-6-12-7-12-7-13-7-13-5-13-3-13-3-13-3-14-3-15-4-18-2-10-3-10-2-11-2-11-2-11-1-10-2-11-2-10-1-20-1-17-1-8 0-2 1-1 1-2 1-1 1-1 2-1 2 0 2 0 2 1 1 1 1 1 1 2 1 2z"  fill="#c2e1ff" /><path d="M96-170l5-3 11-7 12-7 13-6 15-3 15-2 15 0 16 0 17 0 17-2 16-3 17-6 17-8 15-10 11-12 5-13 1-13-3-12-6-10-9-9-14-10-17-10-9-6-9-5-8-6-8-7-8-7-7-8-12-15-11-15-10-15-10-13-12-13-12-12-14-13-14-12-16-10-10-5-9-5-11-6-12-7-12-7-13-8-14-8-14-7-14-7-14-8-15-8-14-9-14-9-14-9-13-8-14-7-14-6-14-4-14-2-13-3-13-1-13 0-13 1-12 2-11 2-11 4-11 4-72 30 0 0 0 0 67-43 12-4 12-4 12-2 13-1 14-1 14 1 14 2 14 2 14 4 14 4 15 6 14 8 14 8 15 8 14 9 13 8 15 8 14 6 15 7 15 6 14 7 14 6 13 7 12 6 11 5 10 5 10 5 9 6 9 5 9 7 8 6 13 13 14 14 12 14 12 14 9 15 10 14 12 14 12 13 15 11 16 10 10 5 17 11 9 6 7 6 11 16 6 17 0 20-2 10-4 9-5 9-7 8-7 8-9 7-10 5-9 5-9 4-18 7-10 3-10 2-19 2-18 0-16 0-14 0-12 0-12 2-11 4-12 6-11 5-6 3-2 0-2 1-2-1-2 0-1-1-2-2-1-1 0-2 0-2 0-2 1-2 1-1 2-1z"  fill="#fff500" /><path d="M101-171l7 1 14-1 12-2 11-3 13-8 8-9 7-11 7-12 5-11 6-11 4-12 4-11 2-13 4-12 5-11 6-12 7-11 8-10 6-10 7-10 6-11 6-13 6-9 6-9 8-12 7-9 5-9 4-13 2-13 1-13 0-13-2-10-2-12 9-33 0 0 0 0 20 31 3 13 1 15 0 15-1 11-2 11-3 12-5 12-5 11-6 10-7 10-6 8-6 10-6 13-7 13-7 11-8 11-7 9-6 10-5 9-6 12-3 10-2 11-4 11-5 11-7 11-6 11-8 13-5 8-7 9-9 8-11 8-13 5-14 3-15 1-16-1-7-1-2-1-1-1-2-1-1-2-1-1 0-2 0-2 1-2 1-2 1-1 2-1 2 0 2-1z"  fill="#c2e1ff" /></svg>