<svg width="1200" height="675" viewBox="-500 -500 1200 675" xmlns="http://www.w3.org/2000/svg"><path d="M-500-500h1200v675h-1200z" fill="#000"/><path d="M101-155l-6 2-10 2-12 6-9 6-11 8-9 8-9 7-8 8-9 7-8 9-5 10-2 10-2 12-1 11-1 11-3 11-4 10-9 3 1 6 0 0 0 0-12-1-5-8-3-10 3-10 3-10 1-11 2-13 2-11 3-9 6-12 8-11 9-8 9-6 9-8 10-7 11-7 11-7 10-6 10-3 11-3 11-1 6 0 2 0 2 0 2 1 1 1 1 2 1 2 0 1 0 2-1 2-1 2-1 1-2 1-2 0z"  fill="#c2e1ff" /><path d="M92-163l0-8 1-14-1-15-2-16-3-15-5-15-8-13-8-13-10-12-12-11-14-13-8-6-7-7-7-8-7-8-6-8-13-15-6-9-6-9-5-9-5-10-4-9-4-10-2-11-2-10-3-20-1-10-3-19-2-10-4-19-2-10-3-10-6-18-7-15-9-11-10-10-11-8-11-5-11-2-14 4-10 7-11 9-11 10-10 10-8 11-7 11-6 12-5 12-5 11-6 13-6 12-5 11-3 11-3 10-2 11-18 39 0 0 0 0-9-39 2-12 3-11 4-13 6-12 6-13 5-11 6-11 5-13 7-13 7-13 9-13 11-12 12-11 12-11 13-10 16-7 18-2 17 4 14 8 14 10 12 13 9 14 9 18 3 10 4 10 2 10 3 10 2 11 4 20 1 10 2 10 1 10 3 19 4 17 6 17 9 17 11 16 7 7 12 16 12 13 14 13 15 12 15 13 11 14 9 15 8 17 6 17 3 18 2 18-1 16-2 15-1 7-1 2 0 2-2 1-1 1-2 1-2 0-2 0-2 0-1-1-2-2 0-2-1-1 0-2z"  fill="#fff500" /><path d="M100-170l6-1 10-1 10-1 10 0 15 0 14 2 13 2 11 4 10 4 11 6 10 5 9 6 9 8 10 10 7 11 5 10 5 9 6 10 7 8 9 7 9 8 9 6 10 7 11 3 11 1 10-2 23 3 0 0 0 0-11 26-10 3-12 2-12-1-10-1-13-5-11-6-8-7-10-8-8-7-9-8-8-8-7-11-5-10-5-11-5-9-7-9-10-8-10-6-10-7-10-5-12-5-10-3-13-2-13-1-15-1-10-1-6-1-2 0-2-1-1-1-2-1 0-2-1-2 0-1 1-2 1-2 1-1 1-2 2 0 2 0z"  fill="#fff" /><path d="M100-155l-5 1-12 1-13-1-13-3-14-4-13-4-15-2-16-3-17-3-16-2-16-1-14 1-13 3-11 5-10 6-11 8-11 7-9 6-12 8-10 8-7 8-11 9-10 8-9 8-9 8-6 12-2 11-1 11 0 11 1 13 2 10 4 11 7 8 11 16 0 0 0 0-25 10-9-5-8-8-5-10-4-12-2-10-1-11-1-12 1-13 1-14 2-10 4-11 6-12 8-10 11-8 10-8 10-7 8-8 11-8 12-9 9-5 10-6 11-7 11-7 13-8 15-6 17-3 17 0 17 1 18 2 16 3 17 2 17 3 14 5 13 4 11 4 10 2 10 1 6 1 2 0 1 0 2 1 1 2 1 1 1 2 0 2 0 2-1 2-1 1-2 1-2 1-2 0z"  fill="#fff500" /><path d="M95-157l-4-3-12-6-11-6-11-5-11-4-10-2-11 1-14 2-12 4-12 7-8 5-10 5-13 6-9 4-9 7-6 8-7 9-7 8-8 6-10 4-8 10 0 0 0 0-5-5-5-8-2-10 5-10 8-7 8-7 7-9 8-8 8-8 10-5 11-5 12-5 12-6 10-6 10-5 12-4 11-2 11-1 12 0 14 3 12 5 11 6 9 7 12 8 8 7 4 4 1 1 1 2 1 1 0 2-1 2 0 2-2 1-1 1-2 1-2 0-2 0-1 0-2-1z"  fill="#fff500" /><path d="M105-156l-4 4-8 8-7 8-9 11-8 11-5 9-5 12-4 11-2 13-5 11-3 10-5 10-3 10-3 11-3 12-2 11-1 10-3 12-3 11-3 10-4 11-3 10-1 11-1 13-23 30 0 0 0 0-10-33 1-11 2-11 2-12 3-10 4-10 3-11 3-12 3-11 2-13 3-10 3-11 4-11 4-10 5-11 5-9 4-11 3-10 4-11 6-10 7-11 9-10 7-8 8-7 8-7 10-8 5-4 2-1 1 0 2-1 2 1 2 1 2 1 1 1 1 2 0 2 0 2-1 2-1 1-1 2z"  fill="#fff" /><path d="M107-167l4 6 9 13 8 13 8 14 7 15 4 17 1 16 1 17-1 16-2 17-5 15-8 15-11 14-10 12-10 13-8 13-9 12-8 11-7 11-7 11-8 10-8 10-8 10-9 10-8 9-8 9-8 8-7 8-7 7-10 11-8 9-7 8-8 10-10 11-9 10-9 12-9 12-7 12-8 13-7 13-7 13-9 13-10 11-9 9-9 9-9 9-9 7-38 14 0 0 0 0 22-35 8-6 8-7 9-9 9-8 8-9 7-11 7-12 7-13 8-14 8-13 9-14 9-12 10-12 9-11 8-10 8-9 8-8 7-8 8-7 10-11 8-8 7-8 9-9 8-10 9-9 7-9 8-10 7-9 7-12 9-11 8-12 9-13 11-14 10-13 9-11 6-10 4-12 3-13 0-15 0-15-1-15-3-13-4-13-6-13-8-14-7-13-4-6-1-2 0-1 0-2 0-2 1-2 2-1 1-2 2 0 2-1 2 1 2 0 1 2 2 1z"  fill="#005bbb" /><path d="M107-166l3 5 5 11 4 9 6 12 6 13 7 10 9 9 9 8 11 6 12 3 12 1 11 0 12 2 10 2 12 2 13 4 10 5 10 7 10 6 10 4 12 3 14 5 13 8 12 9 10 11 9 8 10 8 11 10 9 11 8 11 9 9 24 41 0 0 0 0-37-12-7-7-8-8-10-11-7-9-8-9-10-8-7-7-10-9-9-8-9-7-12-6-10-3-14-4-13-7-9-6-9-6-12-4-10-2-10-3-13-1-10-1-14-2-13-4-12-6-8-6-8-8-9-11-7-9-4-9-6-13-4-10-4-15-3-10-1-5-1-2 0-2 1-2 0-2 2-1 1-1 2-1 2 0 2 0 1 0 2 1 1 2 1 1z"  fill="#fff500" /><path d="M93-159l-3-5-7-13-9-12-7-10-6-9-7-9-6-9-5-9-7-13-6-12-4-11-5-9-5-11-6-11-5-8-6-10-4-9-3-12-1-11 0-13 0-10 0-12-1-11-1-12-1-11 4-10 4-14 0 0 0 0 21 12 4 11 0 12 1 11 1 13-1 12 0 11 1 12 1 11 4 10 4 8 6 11 5 10 5 12 4 11 4 11 5 11 6 13 7 13 6 9 6 10 6 10 6 10 4 11 4 10 1 4 1 2 0 2-1 2 0 2-2 1-1 1-2 1-2 0-2 0-2 0-1-1-1-2-1-2z"  fill="#005bbb" /><path d="M102-155l-6 2-12 3-12 2-12 1-11 0-11 0-13-2-11 0-13-1-11-3-11-5-11-6-10-6-8-5-10-4-10-2-10 0-11 3-11 3-12 0-8-7-10-13 0 0 0 0 16-9 10-4 11-2 11-3 12 0 11 2 11 3 10 4 10 6 9 7 9 6 10 6 11 4 10 1 13 2 13 2 15 2 10 0 10 0 12-1 6-1 2 0 2 0 2 1 1 1 2 1 1 2 0 2 0 2-1 2-1 1-1 2-2 1-1 0z"  fill="#c2e1ff" /><path d="M108-162l0 7-1 16-1 17-1 18 2 20 1 12 1 14 0 14-2 14-3 14-4 14-4 13-5 12-6 13-7 14-8 13-8 13-9 13-7 13-8 14-7 14-6 15-5 16-5 16-3 16-3 15-3 16-3 15-4 16-4 15-6 16-7 15-7 15-6 14-5 15-4 14-4 14-4 15-4 15-5 15-6 16-6 15-6 16-7 16-7 16-8 15-10 14-10 13-10 13-10 11-11 11-10 9-11 9-10 9-10 8-10 7-9 7-10 6-9 5-16 10-15 9-13 9-14 6-13 5-13 4-13 1-13-1-12-3-11-2-12-3-12-4-13-4-14-5-14-5-45-31 0 0 0 0 54 8 13 4 14 4 12 4 12 4 11 4 11 2 14 4 14 1 11-2 12-3 12-5 14-7 15-8 17-9 9-5 9-5 10-6 10-6 10-7 11-8 10-8 11-9 10-10 11-11 10-12 10-12 9-14 7-15 7-15 6-16 6-16 6-16 5-15 5-15 4-15 4-15 5-14 4-14 6-15 6-15 6-15 7-15 6-14 4-15 4-16 3-15 3-15 3-16 4-16 4-17 5-16 6-16 6-15 7-14 8-14 8-14 7-13 7-13 6-12 6-13 4-12 4-13 4-12 2-12 1-13-1-13-1-12-2-12-1-12-1-11 1-20 2-17 2-15 1-7 1-2 1-2 1-1 1-1 2-1 2 0 2 0 1 1 2 1 1 1 1 2 1 1 0 2z"  fill="#fff" /><path d="M92-163l0-5-1-11 1-15 0-12-2-11-3-12-6-9-6-8-7-8-10-7-9-7-7-9-5-8-8-9-4-9-10-3 0 0 0 0 4-14 9-5 12 0 10 6 8 9 6 9 5 9 8 9 9 7 8 9 6 10 5 9 5 11 3 13 1 14-1 14-2 14-3 14 0 6 0 1-1 2-1 2-2 1-1 1-2 0-2 0-2 0-2-1-1-1-1-2-1-2 0-1z"  fill="#fff500" /><path d="M107-167l3 5 8 8 8 8 9 7 11 7 11 6 12 6 13 6 13 6 12 4 11 4 13 2 12-1 11-4 9-4 10-5 11-2 10 0 9 4 7 8 1 13 0 0 0 0-13-1-7 6-11 0-9 4-12 4-11 3-15 1-11-1-12-3-12-5-13-6-12-6-14-6-13-7-13-8-11-9-10-9-9-10-7-11-3-5-1-2 0-1 0-2 0-2 1-2 2-1 1-2 2 0 2-1 2 1 2 0 1 2 2 1z"  fill="#005bbb" /><path d="M99-170l5-1 10-2 13 0 13 3 11 5 10 9 6 11 4 9 3 11 1 11 0 11 2 10 5 9-1 10-6 9-9 8 0 0 0 0-4-6-6-10-6-7-3-11-1-11 1-10 0-11-2-12-5-9-10-7-12-4-12 0-5 0-1 0-2 0-2-1-1-1-2-2 0-1-1-2 0-2 1-2 1-1 1-2 2-1 2 0z"  fill="#fff" /><path d="M98-170l5-2 9-3 12-3 10-3 12-4 12-3 11-5 12-6 10-6 12-4 10-1 13-2 13 0 13 2 10 5 7 9 3 13-2 12-4 10-4 10-4 10-8 7-12 11 0 0 0 0-6-8-5-9-1-11 5-10 4-10 5-11-12-1-11 1-10 1-10 4-10 5-12 5-11 3-10 2-12 2-10 1-12 1-13 2-5 1-2 0-2 0-1-1-2-1-1-1-1-2-1-1 0-2 1-2 1-2 1-1 1-1 2-1z"  fill="#fff" /><path d="M101-155l-6 2-14 1-14 0-14-1-14 0-15 2-15 3-15 6-12 9-12 12-15 14-7 8-8 8-7 8-8 8-8 9-9 9-10 8-11 8-11 7-11 7-10 7-11 6-11 5-10 5-10 4-9 5-10 4-10 4-10 3-17 5-17 7-14 8-13 13-10 15-8 20-3 11-4 12-4 13-4 13-4 14-4 15-3 15-4 15-4 16-5 15-4 15-5 14-6 14-5 13-6 12-5 11-5 11-4 10-5 11-5 10-4 11-4 9-4 10-3 10-4 9-4 10-4 9-10 17-13 16-14 11-16 10-17 8-14 9-16 11-60 30 0 0 0 0 48-47 8-6 17-11 16-9 15-7 13-8 12-10 10-14 9-16 8-18 4-10 4-10 5-10 5-10 5-10 5-11 5-10 6-11 5-11 6-11 6-13 5-13 5-13 4-15 4-15 4-16 3-15 2-15 3-15 3-15 3-14 4-13 3-13 3-12 4-11 4-11 6-11 8-9 7-8 8-7 9-6 19-8 18-6 18-5 18-6 10-4 10-5 10-4 10-5 10-6 10-6 10-7 11-7 9-7 9-8 8-9 7-9 8-9 7-9 8-8 14-15 14-14 7-8 8-6 9-5 19-7 18-4 17-1 15 1 14 1 13 1 12 1 6-1 2 0 2 1 2 1 1 1 1 2 1 2 0 2 0 1-1 2-1 2-1 1-2 1-2 0z"  fill="#fff500" /><path d="M108-164l1 6 2 10 2 15 1 13 1 11 1 11 4 9 6 9 6 9 8 10 10 8 8 7 10 6 12 4 11 1 10-3 10-5 11-3 12 1 10 5 10 7 5 10 3 20 0 0 0 0-19-1-10-3-8-7-10 3-9 4-11 3-12-1-13-3-11-4-12-6-10-7-9-8-9-9-9-11-7-13-6-10-4-10-2-11 0-13 1-10 1-12 0-14 0-10-1-5 0-2 1-2 0-2 2-1 1-1 2-1 2 0 2 0 1 0 2 1 1 2 1 1 1 2z"  fill="#c2e1ff" /><path d="M107-158l-3 5-7 10-6 9-7 9-7 12-5 13-4 12-3 11-5 10-7 11-9 10-11 8-12 5-12 5-12 4-12 4-10 3-12 5-12 5-10 6-10 6-9 8-8 7-9 8-10 8-10 5-11 4-15 2-10-1-15-4-11-5-11-5-12-1-12 2-10 1-14 5 0 0 0 0-2-20 4-10 11-5 11-3 14 0 11 1 11 3 10 5 10 5 11 3 12 0 10-3 11-7 8-7 9-9 10-8 12-8 13-7 13-6 12-5 12-4 12-4 11-3 10-4 9-4 10-8 8-9 6-12 3-10 4-10 5-9 6-10 7-9 7-8 7-8 8-8 3-5 2-1 1-2 2 0 2 0 2 0 2 0 1 1 1 2 1 2 1 1 0 2-1 2 0 2z"  fill="#c2e1ff" /><path d="M108-164l1 6 3 11 3 11 4 12 6 13 4 14 3 16 4 15 5 15 6 14 6 13 8 12 9 14 10 14 9 14 10 14 9 16 8 16 8 15 7 13 8 11 8 12 7 12 5 13 5 12 4 12 5 11 5 10 5 9 6 11 7 9 8 10 8 8 6 10 5 9 6 9 5 9 6 16 0 0 0 0-20 2-10-3-8-9-6-11-4-9-6-9-7-9-7-10-8-12-5-9-5-10-4-11-5-12-5-12-4-12-4-11-5-10-8-12-7-13-8-14-8-15-8-15-9-14-9-14-9-14-10-14-10-14-8-15-8-14-6-16-5-16-4-17-3-14-3-13-4-13-4-14-3-13 0-11-1-6 0-2 0-2 1-2 1-1 2-2 2 0 2-1 2 1 1 0 2 1 1 2 1 1 1 2z"  fill="#fff500" /><path d="M101-155l-8 1-16 5-15 9-8 5-8 7-9 8-9 8-7 11-8 11-7 12-6 13-5 13-4 14-5 14-4 13-4 13-5 13-4 12-4 12-4 11-4 11-4 12-5 11-4 12-4 12-5 13-5 13-5 13-5 13-7 14-7 13-9 12-10 13-10 11-11 12-11 12-12 13-12 15-12 14-13 15-14 15-12 15-13 16-11 17-11 16-9 16-8 16-7 17-6 16-5 17-5 16-4 16-4 16-2 16-2 14 0 14 1 13 1 12 2 12 3 11 3 10 5 10 4 10 5 11 5 11 5 10 5 11 4 11 4 11 4 11 3 11 3 11 3 11 3 10 3 11 2 10 3 10 3 9 2 10 5 19 3 19 3 16 1 16 1 15 0 14 0 12-12 36 0 0 0 0-11-42 1-13 0-14 0-14-1-15-2-17-3-18-5-19-2-10-3-10-2-10-3-10-2-11-3-11-3-11-3-10-3-11-4-10-4-11-4-10-5-11-4-11-5-11-5-11-3-11-4-12-2-11-1-13 0-13 0-13 1-15 3-15 3-16 4-16 5-16 5-16 6-17 6-16 8-16 8-17 10-16 10-16 12-17 12-16 12-16 12-16 12-15 12-15 11-16 11-14 11-13 10-12 10-11 8-12 8-12 7-12 6-13 5-13 5-13 4-12 5-13 4-13 4-12 5-12 4-11 4-11 5-11 4-12 5-12 5-12 4-12 4-14 4-14 4-14 5-15 6-14 7-13 7-13 9-12 9-10 9-9 10-8 9-6 9-5 10-4 19-4 8-1 2 0 2 1 1 1 2 1 1 1 0 2 0 2 0 1-1 2-1 2-1 1-1 0-2 1z"  fill="#c2e1ff" /><path d="M98-170l6-3 13-4 14-3 12-3 12-5 9-6 8-7 6-10 3-12 2-10 3-10 3-11 2-10 0-13 1-15 0-16 0-15 0-16 0-16-1-13-1-12-3-10-4-10-5-11-4-11-4-11-5-9-6-12-6-12-4-13-3-14 0-16 2-18 6-19 7-17 6-17 4-18 3-10 2-11 2-10 3-10 3-11 3-10 4-11 3-10 3-10 4-10 4-17 3-17 1-15-1-15 8-62 0 0 0 0 13 53 1 16-1 18-3 17-4 19-3 9-3 10-3 11-3 10-4 10-2 10-5 20-2 9-2 11-1 10-2 11-3 10-6 19-5 16-4 15-2 14 1 12 2 10 3 11 4 10 6 11 6 12 5 12 4 11 4 11 4 12 3 13 2 14 1 15 0 16 0 15 0 16 0 16 0 16 0 15-3 14-3 11-3 10-3 10-3 11-6 10-8 11-12 9-13 7-15 5-14 3-12 2-13 2-7 1-2 1-2-1-2 0-1-1-1-2-1-1-1-2 0-2 0-2 1-2 2-1 1-2 2 0z"  fill="#005bbb" /><path d="M101-170l5 0 11-1 14-3 13-4 9-5 5-9-3-10-10 0-10-2-6-9-7-7-2-4 0 0 0 0 5-1 9-6 10-2 10 2 10 2 11 7 7 10 3 12-2 13-4 11-10 10-8 5-11 4-10 3-12 1-11 1-12-2-6-1-2 0-1-1-2-1-1-2-1-1 0-2 0-2 1-2 1-2 1-1 2-1 2 0 2 0z"  fill="#005bbb" /><path d="M95-156l-5-4-10-7-11-8-10-8-9-11-6-13-4-12-3-14-2-15 1-15 4-15 5-13 7-14 7-16 7-16 5-18 3-19 1-10 1-10 2-11 2-10 3-11 3-11 5-10 5-10 6-9 6-9 5-9 6-9 6-10 6-11 6-10 7-10 7-11 8-10 9-10 9-10 8-9 8-10 8-9 7-9 7-10 8-9 8-9 8-8 10-8 9-7 8-6 9-7 9-6 8-6 9-7 9-6 8-6 15-12 15-12 13-12 15-11 15-11 16-10 16-9 18-11 10-5 9-6 9-5 10-4 10-4 9-4 10-3 73-5 0 0 0 0-67 25-18 5-17 8-9 5-10 5-9 5-8 6-18 10-16 10-14 9-14 10-14 11-15 12-15 12-8 6-9 6-9 6-8 6-9 6-9 6-8 6-9 7-9 6-8 7-8 8-8 8-7 8-8 9-7 10-8 10-8 10-8 9-8 9-8 10-7 11-7 9-6 10-6 11-6 10-5 10-6 10-6 10-10 17-8 17-6 18-3 20-1 10-1 11-1 10-1 11-2 11-3 10-7 18-6 16-7 14-5 11-3 10-1 10 1 12 3 12 4 16 7 12 8 8 9 8 10 9 4 4 2 2 1 2 0 1 0 2 0 2-1 2-2 1-1 2-2 0-2 1-2-1-2 0-1-1z"  fill="#c2e1ff" /><path d="M93-166l2-6 4-10 4-11 4-11 4-12 5-12 4-10 4-10 4-11 3-13-1-11-4-9-6-11-5-9-9 5-7 9-6 9-5 9-3 10-17 28 0 0 0 0-17-26 2-11 3-11 6-9 4-9 6-8 7-9 8-7 9-7 12-4 12 0 10 5 8 7 6 10 5 11 4 9 4 13 1 13-2 12-4 12-6 13-4 9-5 10-5 11-5 11-6 12-5 11-6 10-3 5-1 2-1 1-2 1-2 0-2 0-2 0-2-1-1-1-1-2-1-2 0-2 0-1 1-2z"  fill="#005bbb" /><path d="M105-169l6 4 13 7 15 8 16 11 9 5 8 7 8 7 8 8 7 7 7 8 6 9 6 8 11 16 8 15 6 13 6 12 4 12 4 10 5 14 5 13 4 13 4 12 6 12 8 11 7 7 8 7 10 1 8-6-1-12 8-29 0 0 0 0 18 11 6 10 1 11 0 11-3 11-8 10-9 7-9 6-11 2-10 0-11-5-10-8-8-7-8-9-6-8-5-10-6-13-3-10-4-14-3-12-4-14-3-10-3-10-4-11-5-12-6-14-8-14-10-15-12-15-7-7-14-13-15-12-16-10-14-9-14-10-6-4-1-1-1-2-1-2 0-2 0-1 1-2 1-2 2-1 1-1 2 0 2 0 2 0 2 1z"  fill="#c2e1ff" /><path d="M102-170l7 1 14 4 14 6 14 10 11 11 10 12 8 11 6 11 5 10 4 9 4 10 4 14 2 12 0 12-2 13-3 13-3 13-2 13-1 12-2 13-2 13-2 12-3 12-3 12-3 13-5 14-8 14-8 13-7 15-6 16-6 17-4 15-4 14-2 13-2 13-1 15-1 13 1 14 1 15 0 17 1 17 1 20 2 18 4 19 6 15 8 12 8 9 25 36 0 0 0 0-46-26-10-14-9-17-3-10-3-10-2-10-2-11-1-10-2-19-1-19 0-15-1-16-1-16 1-15 1-14 2-15 3-15 4-14 5-16 5-18 6-18 8-17 7-15 6-10 4-12 3-11 3-12 2-11 3-12 2-12 2-12 1-13 2-14 3-14 2-11 2-15 0-12-4-13-3-12-6-13-4-10-7-10-8-10-9-10-9-8-11-6-13-5-6-3-2 0-2-2-1-1-1-2 0-2 0-2 1-2 1-1 1-2 2-1 1 0 2-1 2 1z"  fill="#fff500" /><path d="M95-168l3-4 8-9 8-8 9-9 7-7 8-8 10-6 8-9 5-9 5-10 4-10 1-10 0-13 0-11 0-11 1-10 4-10 6-8 10-7 10-3 10-1 24 15 0 0 0 0-20 17-11 2-2 10 0 11-1 11 0 12-1 10-4 10-5 10-5 10-7 9-7 8-8 7-10 5-9 7-9 6-10 7-8 6-10 8-4 3-1 1-2 1-2 0-1 0-2-1-2-1-1-1-1-1-1-2 0-2 1-2 0-2 2-1z"  fill="#c2e1ff" /><path d="M101-170l8 0 16 2 16 2 17 1 16 0 18-2 10-2 11-1 11-1 11-3 12-3 14-3 17-2 17-2 19-2 19-1 20-2 20 1 21 1 22 2 21 3 21 6 21 7 20 8 19 11 17 11 16 14 14 14 13 15 12 14 11 15 10 16 9 15 7 16 7 16 6 16 6 16 6 16 5 18 6 17 7 17 7 16 8 17 10 16 11 16 12 16 15 15 16 15 17 16 18 15 18 14 20 13 20 11 22 8 22 5 23 2 24 1 24 1 26-1 26-2 27-3 26-5 25-6 24-7 22-9 21-11 20-14 19-15 17-16 15-17 13-18 11-17 10-19 7-19 6-19 4-18 3-18 1-17-1-16-1-17-4-17-5-17-7-17-9-17-10-16-11-16-13-15-12-15-13-15-82-113 0 0 0 0 84 111 13 15 13 15 13 15 12 15 10 17 10 17 8 17 5 17 3 18 1 18 0 17-2 17-3 18-5 18-6 19-7 19-10 19-11 18-13 17-16 17-17 17-19 15-20 14-21 11-22 9-24 7-25 6-27 5-27 3-26 2-26 1-24-1-25-1-23-2-22-5-22-8-20-11-20-13-19-14-18-15-18-15-15-16-16-15-13-15-11-16-10-17-9-16-8-17-6-17-6-17-6-18-6-16-6-16-5-16-6-16-7-16-8-15-10-16-11-15-11-15-12-15-14-14-16-13-17-11-19-10-20-9-21-6-20-5-22-3-21-1-21 0-20 1-19 3-19 3-17 4-17 4-15 4-14 4-13 4-12 3-11 2-11 2-10 1-20 2-18 0-19-2-17-3-14-3-8-2-2 0-2-1-1-1-1-2-1-2 0-2 0-1 1-2 1-2 1-1 2-1 2 0 2 0z"  fill="#005bbb" /><path d="M100-155l-6 1-10 2-10 4-11 4-11 4-11 4-11 3-14 4-11 3-14 3-13 3-13 3-15 3-15 3-14 5-14 3-13 4-10 4-13 6-10 6-9 6-8 7-7 7-10 11-6 9-8 8-9 11-7 12-4 10-6 12-7 10-7 9-8 9-9 6-12 7-9 5-11 5-10 5-22 0 0 0 0 0 5-20 9-8 9-5 11-5 11-5 9-6 8-9 9-12 4-9 5-11 6-12 8-10 7-8 10-11 7-8 8-9 8-8 10-8 12-8 10-6 11-5 12-5 13-3 13-4 14-4 16-4 15-4 15-3 11-2 11-3 11-2 15-3 10-2 10-2 10-3 11-3 12-4 13-2 13-1 6 0 2 1 1 0 2 1 1 2 1 1 1 2 0 2 0 2-1 2-1 1-2 1-2 1-2 0z"  fill="#fff" /><path d="M92-162l-1-5-2-10-2-14 0-13 1-12 3-12 4-11 6-10 9-9 8-6 7-9 3-13 5-13 4-9 7-10 9-8 11-7 12-6 13-4 15-2 13-2 15 0 15 1 13 0 13-1 12-3 13-3 12-2 10-3 10-2 10-2 11-3 9-4 30 0 0 0 0 0-22 27-9 4-15 3-12 2-11 2-12 3-12 2-13 3-15 3-16 1-15 0-12 0-12 1-11 2-11 3-13 5-11 9-6 8-4 10-4 13-5 12-8 10-9 7-9 6-7 9-4 11-3 11-2 10 0 13 1 10 0 6 0 2-1 1-1 2-1 1-1 2-2 0-2 0-2 0-2-1-1-1-1-1-1-2-1-2z"  fill="#fff500" /><path d="M93-158l-4-6-8-11-10-11-11-13-13-14-14-13-14-11-14-11-13-12-12-12-11-12-10-11-9-10-10-10-9-10-11-10-10-9-10-8-10-8-11-7-12-8-12-5-12-5-10-4-14-3-13-3-13-4-10-4-10-5-10-5-10-3-10-2-11-1-9-6-9-7 0 0 0 0 12-10 9-6 11 0 10 2 10 3 10 5 10 5 9 4 11 6 10 4 13 3 12 3 12 5 12 5 14 7 14 8 12 8 11 9 10 9 11 10 11 10 10 11 9 10 9 11 10 12 10 11 10 12 12 11 14 11 15 12 15 14 13 15 11 14 10 13 8 12 3 6 1 2 0 2 0 2-1 2-1 1-1 2-2 1-1 0-2 0-2 0-2-1-2-1-1-1z"  fill="#fff" /><path d="M96-170l6-3 12-7 12-7 12-6 11-8 9-9 8-9 7-11 4-10 4-12 1-14 0-17-1-21-1-12-2-12-3-13-3-13-5-14-5-14-5-14-7-12-8-11-8-11-8-10-9-11-10-10-9-10-11-11-10-10-11-12-12-11-10-12-10-11-9-12-10-10-8-10-9-10-8-9-8-8-7-7-8-8-7-7-13-13-14-10-13-6-15-5-17-4-19-2-10 0-11 0-11 1-12 0-12-1-12-1-11-1-13-2-11-2-12-2-13 0-12-1-12 1-12 2-12 2-12 3-13 3-12 3-12 5-12 5-11 6-9 8-9 8-8 8-6 9-4 10-4 19-8 76 0 0 0 0-8-78 2-13 4-11 6-11 7-10 9-10 10-9 11-8 12-8 12-5 13-5 13-5 13-3 13-2 12-3 13-2 14-1 13 0 13 0 13 1 12 2 12 2 11 1 10 1 11 0 12-1 11 0 12-1 11 0 12 1 10 1 10 2 18 6 16 8 15 10 14 14 7 7 7 8 6 8 8 8 7 9 8 9 8 10 8 10 9 11 9 11 10 12 10 11 12 11 11 11 11 10 11 11 10 10 10 11 10 10 8 11 9 11 8 12 7 13 7 14 7 14 6 15 4 13 4 14 3 13 3 12 2 12 0 11 1 20-2 18-5 15-7 14-8 12-10 11-12 10-14 9-13 6-13 6-12 5-6 3-2 0-2 1-2-1-2 0-1-1-2-2-1-1 0-2 0-2 0-2 1-2 1-1 2-2z"  fill="#fff500" /><path d="M95-169l6-5 10-10 11-11 9-11 9-11 8-12 5-12 5-16 3-10 3-10 3-12 4-12 4-13 4-13 4-14 5-14 5-14 5-14 5-14 7-15 7-16 6-15 7-16 7-15 7-17 7-16 6-17 6-16 6-16 5-17 5-16 5-16 5-16 6-16 5-16 4-16 4-15 4-16 3-15 2-15 0-16 0-15-2-15-2-15-2-16-3-16-5-15-5-15-7-14-7-13-9-13-10-12-11-12-11-11-12-10-13-11-12-11-14-12-14-10-16-10-17-11-18-11-17-11-19-11-18-11-20-12-21-13-22-13-21-13-23-13-25-12-28-10-30-10-30-10-29-10-28-11-27-10-28-8-27-7-29-4-28-2-28-1-28 1-26 3-25 5-25 6-23 9-152 73 0 0 0 0 151-75 24-9 24-6 26-5 26-3 28-1 28 1 29 2 28 4 28 7 28 8 27 10 28 11 29 10 30 10 29 10 29 10 25 12 23 13 22 13 21 13 21 12 20 12 19 11 18 11 18 11 19 10 17 9 17 10 15 10 14 11 13 11 13 11 12 11 12 11 11 12 11 13 9 13 8 15 6 14 6 16 5 15 3 16 3 16 2 16 1 16 0 16 0 16-3 16-3 15-4 16-4 15-5 16-5 16-6 16-5 16-5 16-5 17-6 16-5 16-6 17-6 16-6 17-7 17-6 16-6 16-6 15-6 16-5 15-4 15-5 14-4 14-4 14-3 13-3 13-3 14-3 12-2 12-3 11-2 10-6 19-8 16-10 12-10 12-11 11-11 10-13 10-6 5-1 1-2 0-2 1-2-1-2 0-2-2-1-1-1-2 0-2 0-2 1-2 1-1 1-2z"  fill="#c2e1ff" /><path d="M98-170l8-3 16-5 18-4 18-3 17-4 17-4 16-4 12-5 12-4 11-4 9-5 13-6 11-8 9-7 10-9 11-9 9-6 10-6 10-4 10-3 10-1 14-1 13 1 13 2 10 2 12 2 12 2 11 1 11 0 11 1 11 5 8 6 6 9 4 10-2 10-6 18 0 0 0 0-22-15-3-10-10-3-11 0-10-1-10-2-11-3-10-2-11-2-12-2-11 0-11 1-10 3-11 5-10 7-11 9-11 8-8 6-9 5-9 5-10 4-12 5-11 3-12 4-14 4-16 4-17 4-19 3-18 3-17 2-16 4-8 2-2 0-1 0-2 0-2-1-1-2-1-1-1-2 0-2 1-2 0-2 2-1 1-1 2-1z"  fill="#fff" /><path d="M108-163l1 7 0 14-1 16-2 14-4 13-3 12-2 12-3 12-5 12-3 11-2 10-2 10-2 11-4 10-5 13-5 10-9 10-10 7-10 4-12 3-9 4-9 7-7 10-1 11 0 10 1 11-3 19 0 0 0 0-15-3-8-6-5-8-2-11-1-11 2-12 3-10 4-10 7-8 10-9 8-6 10-4 10-4 13-3 9-5 6-11 5-10 4-14 2-11 3-11 5-12 3-11 4-11 4-12 3-12 4-11 3-13 2-13 1-14 1-6 0-2 1-2 1-2 1-1 2-1 2 0 2 0 2 0 2 1 1 1 1 2 1 2 0 2z"  fill="#c2e1ff" /><path d="M107-158l-3 6-8 12-8 11-9 9-7 8-7 9-8 8-10 9-10 8-11 7-12 6-14 5-15 2-15 1-15-1-15-3-15-4-14-5-15-5-18-6-10-5-11-5-10-7-10-7-11-7-10-6-11-7-12-6-12-5-12-5-12-3-12-1-12 0-12 2-11 4-12 5-12 5-12 6-14 5-13 7-15 7-14 8-14 9-14 9-12 10-12 10-12 11-12 10-12 10-12 11-11 10-10 10-9 9-9 9-8 9-8 9-6 9-6 9-9 17-9 17-8 15-10 15-11 13-11 11-12 11-13 11-54 26 0-1 0 1 41-44 12-9 12-11 11-9 10-11 9-13 9-14 10-16 5-8 6-9 7-9 8-10 8-8 9-9 9-9 10-9 11-10 11-10 12-10 12-10 12-10 12-11 12-11 13-10 13-10 14-10 15-9 14-8 14-7 13-7 12-5 13-6 12-5 13-4 14-3 14-1 14 2 14 3 14 4 13 6 12 5 13 6 11 6 11 7 10 6 9 5 19 7 17 5 16 5 14 5 12 3 12 3 13 1 12-1 11-2 10-3 10-5 10-6 9-6 8-7 8-7 8-8 8-7 9-8 8-9 8-10 4-6 1-1 2-1 2-1 1-1 2 1 2 0 2 1 1 1 1 2 1 2 0 2 0 2-1 2z"  fill="#fff500" /><path d="M103-155l-5 3-11 7-11 7-10 8-8 10-10 13-11 13-13 13-12 12-14 11-14 9-16 8-15 5-17 2-17 0-18-5-9-3-20-7-11-4-11-4-11-2-12-2-12-2-13-2-12-1-13-1-12-1-12-2-12-1-11-1-10-1-19-1-18-1-18-2-18 0-17 0-18 1-16 4-16 4-15 6-15 8-13 11-12 14-10 15-10 17-5 9-9 18-10 17-9 17-7 16-5 16-2 16 1 14 4 12 6 9 23 42 0 0 0 0-42-29-8-15-5-17 0-19 3-18 6-19 8-17 4-9 10-17 9-18 5-9 5-9 5-9 5-9 6-9 6-8 7-8 7-8 7-7 9-7 9-5 17-8 18-6 18-4 19-2 19-1 18 1 19 2 17 2 19 1 10 2 10 1 11 1 12 2 11 1 12 1 13 1 13 1 13 1 13 1 13 1 13 2 12 3 11 4 10 3 19 5 14 4 12 1 13-2 12-4 13-5 13-8 11-9 12-12 12-12 11-12 10-13 12-12 12-9 13-6 12-6 7-3 1 0 2-1 2 1 2 1 2 1 1 1 1 2 0 2 0 2-1 2-1 1-1 2-2 1z"  fill="#005bbb" /><path d="M107-166l3 5 5 10 5 8 6 9 6 10 4 10 4 10 4 13 3 14 1 14 2 14 1 14 2 15 0 11 0 11-2 12-2 12-3 11-4 10-3 12-2 13-2 13-3 10-4 12-2 12-2 10-3 11-3 12-3 13-2 12-4 13-4 13-5 13-6 15-5 15-4 15-4 16-29 53 1 0-1 0 4-59 4-16 4-17 5-16 4-14 4-14 4-12 3-11 1-10 2-11 3-14 4-14 3-11 2-10 4-11 3-12 3-11 2-14 3-10 5-14 2-10 3-14 1-14 0-14-2-14 0-14-2-15 0-12-2-11-3-12-5-13-4-10-5-10-4-10-3-10-2-5-1-2 0-2 0-2 1-1 1-2 2-1 1-1 2 0 2 0 2 0 2 1 1 2 1 1z"  fill="#c2e1ff" /><path d="M105-169l4 3 9 5 10 5 12 5 12 3 15 4 12 5 11 5 11 5 10 3 12 3 11 3 12 3 11 2 14 1 14 1 10 0 11 0 13-3 13-7 9-5 11-8 10-8 10-8 7-8 7-9 8-10 7-8 8-8 9-7 18-7 0 0 0 0 2 23-5 9-8 9-9 9-7 8-8 10-10 10-11 10-11 9-9 6-9 5-11 6-12 6-14 4-13 1-11 1-12 0-11-1-10-1-13-2-12-3-13-4-12-4-11-3-10-5-8-5-9-5-11-5-12-5-10-3-10-5-9-6-8-6-9-6-5-4-1-1-1-2-1-1 0-2 0-2 1-2 1-2 1-1 2-1 2 0 2 0 2 0 1 1z"  fill="#c2e1ff" /><path d="M97-155l-6-2-11-4-10-3-11-4-10-4-9-4-9-5-12-9-9-8-8-5-12-3-11 1-10 2-10 1-14 0-11-1-10-2-13-4-10-6-8-11-5-10-3-10-2-12 1-11 4-11 0-11 1-11 9-18 0 0 0 0 14 11 7 7 3 12-1 12-4 12-2 11 4 11 6 9 10 3 11 2 11 0 13-2 11-1 12-1 12 3 11 5 11 9 9 9 8 7 10 7 13 6 10 5 11 5 10 5 5 3 2 1 1 2 1 1 1 2 0 2 0 2-1 2-1 1-2 1-2 1-1 1-2-1-2 0z"  fill="#c2e1ff" /><path d="M107-159l-3 7-6 13-7 14-6 13-4 13-4 16-2 16 3 15 6 16 10 16 12 14 15 9 17 3 11 0 12-1 13-2 14-2 17-3 17-3 18-4 19-3 21-4 21-3 21-2 21-1 21-1 21-1 21-1 20-2 20-3 19-3 18-4 18-3 18-3 18-2 17-1 18 0 17 1 17 1 16 1 16 2 15 3 15 2 14 4 14 3 14 3 14 4 14 3 15 2 14 0 13 0 13-3 11-3 12-5 12-5 10-7 10-8 8-8 8-8 7-9 7-10 5-9 6-11 6-10 6-11 5-12 6-11 5-12 5-11 5-12 5-11 5-10 6-10 5-10 5-9 5-9 6-9 9-16 7-16 43-58 0 0 0 0-21 59-9 16-9 16-11 17-5 9-6 8-5 9-6 10-5 10-5 11-5 11-5 11-5 12-6 12-6 12-5 11-6 11-7 10-6 11-8 10-8 10-8 9-10 8-11 8-12 7-12 6-13 5-13 3-14 2-15 1-15-1-15-3-14-3-15-4-14-3-13-4-14-4-14-3-15-4-15-2-17-2-16-2-17-1-17 0-18 1-18 1-17 3-18 2-19 3-19 3-20 3-20 2-21 2-21 1-20 1-22 2-21 4-20 4-20 5-19 5-17 6-17 5-16 4-15 5-14 3-13 1-13 1-13-1-12-4-10-5-10-7-8-8-8-9-6-10-5-9-4-10-4-10-3-11-1-11 3-19 4-17 6-16 8-14 7-13 8-12 4-6 1-2 2-1 1-1 2-1 2 0 2 1 2 1 1 1 1 2 1 2 0 2 0 2-1 1z"  fill="#005bbb" /><path d="M107-166l3 4 7 8 10 11 9 6 13 8 9 6 10 6 9 5 12 7 11 6 12 8 10 7 9 5 11 1 6-9 2-12-3-10-7-8-13-7-10-5-9-4-9-4-11-4-11-5-11-4-12-4-12-2-13-3-12-2-13-1-13 0-14 0-15-1-51-15 0 0 0 0 59-11 14 0 15 0 14 1 14 1 14 2 13 3 15 3 13 4 11 4 11 4 10 4 12 5 10 5 13 6 9 4 8 8 8 11 5 13 1 11-1 12-3 12-6 13-12 9-9 4-11 1-10-1-14-6-11-8-10-8-10-6-12-7-8-6-8-6-9-6-10-6-10-7-9-8-8-9-8-10-6-10-2-6-1-1 0-2 0-2 1-2 1-2 1-1 2-1 2 0 2-1 2 1 1 1 2 1 1 2z"  fill="#c2e1ff" /><path d="M99-170l6-2 15-3 15-3 14-3 13-3 11-5 11-8 13-8 12-9 11-9 10-9 10-10 9-8 8-9 8-9 7-11 8-11 10-12 9-12 11-11 11-9 12-9 12-9 13-8 14-6 12-5 11-4 11-3 12-5 10-5 10-8 7-8 3-10-4-11-7-10-8-9-8-9-10-26 0 0 0 0 28 1 9 8 6 8 7 8 6 10 5 9 4 11 1 14-2 10-5 10-6 8-11 10-8 6-12 6-10 4-10 3-10 3-10 3-11 4-12 5-11 7-11 8-11 9-10 8-9 9-9 10-8 11-8 12-9 11-8 10-10 10-10 9-10 10-11 9-12 9-13 9-13 9-15 9-15 6-15 3-14 1-15 2-14 1-8 1-1 1-2-1-2-1-2-1-1-1-1-2 0-2 0-2 1-2 1-1 1-2 2-1 1 0z"  fill="#005bbb" /><path d="M106-168l5 5 8 11 6 11 3 11 1 14-1 12-3 12-2 11-2 11-1 11-1 11 0 12-1 12-1 12-6 11-7 9-10 7-11 4-11 2-10 3-12 5-9 5-12 10-11 9-9 10-10 10-10 8-32 5 0 0 0 0 14-30 10-8 9-10 8-8 8-7 12-10 9-7 13-8 13-5 12-3 12-2 9-6 2-11 2-11 1-11 1-12 2-11 3-13 4-12 4-10 2-11 0-10-4-13-5-9-4-5-1-2-1-2 0-2 0-1 1-2 1-2 2-1 1-1 2 0 2 0 2 0 2 1 1 1z"  fill="#005bbb" /><path d="M94-168l4-5 10-11 12-10 12-10 11-8 9-8 9-9 7-7 9-11 8-11 9-10 9-9 7-7 9-8 9-8 7-7 8-8 6-10 8-8 9-6 10 1 8-1 0 0 0 0 7 9-3 10-7 7-8 7-7 10-6 7-9 7-8 6-8 7-8 7-9 8-8 7-8 8-9 11-8 8-8 9-10 8-11 8-12 8-12 8-11 8-10 9-5 5-2 1-1 1-2 0-2 0-2 0-2-1-1-1-1-2-1-2 0-2 0-2 1-2 1-1z"  fill="#c2e1ff" /><path d="M107-167l3 5 8 10 9 9 9 6 9 5 14 6 13 4 12 1 13-1 9-3 9-6 7-8 5-10 3-11-1-11 0-10 1-11 1-12 0-10-1-11 0-13 1-10 3-13 5-12 6-11 7-11 8-11 7-8 9-7 12-7 9-5 37-3 0 0 0 0-27 32-10 7-10 7-7 9-6 9-5 10-5 10-2 10-1 13 1 12 0 12-1 11-2 11-1 11 0 11-2 14-3 10-6 10-7 9-9 9-10 7-10 4-11 2-11 1-13-1-11-3-11-4-10-5-10-5-11-7-10-10-10-11-7-12-3-5-1-2 0-2 0-2 1-2 0-1 2-2 1-1 2 0 2-1 2 1 2 0 2 2 1 1z"  fill="#fff500" /><path d="M92-164l1-7 0-11 0-12-1-14-1-13-3-12-4-12-5-10-8-14-8-16-4-9-4-10-4-11-4-12-3-14-2-13-3-13-2-12-1-13-2-13-2-13-2-14 0-15 0-14 1-15 3-16 3-14 5-15 5-14 5-14 6-13 6-12 5-12 5-10 4-11 3-9 5-18 2-18 0-17-2-18-2-10-2-11-2-11-2-11-2-11-1-12-2-12-1-12 0-13 1-13 2-12 2-12 3-12 4-11 4-12 6-12 6-12 6-12 7-11 7-13 6-12 7-13 6-13 5-14 4-13 4-14 3-14 3-14 3-15 2-14 1-14-1-13-2-15-2-15-3-15-3-15-3-16-4-16-4-15-5-14-5-14-28-92 0 0 0 0 38 89 5 14 4 14 5 16 3 15 4 16 4 16 3 16 3 15 2 15 1 15-1 15-2 15-3 15-3 14-3 14-4 15-4 14-5 14-6 14-6 13-6 14-7 12-6 12-6 11-5 12-5 11-4 11-3 10-3 11-2 11-1 11-1 12 0 11 1 12 2 12 1 11 2 10 3 12 2 10 2 11 1 11 2 10 1 11-1 19-4 20-3 10-4 9-4 10-4 10-6 11-5 12-6 12-6 12-5 13-5 14-4 14-3 14-2 14-1 14 1 13 1 14 2 13 2 14 3 12 2 13 2 12 3 12 3 12 4 12 4 11 5 11 8 17 7 14 8 14 7 14 4 15 3 15 0 15 0 13-1 14-2 14-2 6-1 2-1 2-1 1-2 1-2 0-2 0-2 0-2-1-1-1-1-2-1-1 0-2 0-2z"  fill="#fff500" /><path d="M108-162l0 5 1 12 0 13 1 13 1 15 2 17 2 16 4 13 5 11 7 10 8 8 10 6 11 5 12 3 17 2 18 3 18 2 19 5 18 6 16 6 14 7 12 7 12 8 10 8 9 9 7 8 11 7 9 4 10 4 10 3 14 0 14-2 9-4 13-6 9-5 10-5 10-5 12-5 13-4 14-4 15-3 17-3 18-3 11-1 10-2 11-1 10-3 11-2 73-5 0 0 0 0-68 26-11 3-11 3-11 2-20 4-18 4-16 4-14 3-13 4-11 4-9 4-10 5-10 5-9 4-10 6-12 4-13 4-13 1-14 0-13-3-14-4-11-6-11-6-10-8-8-9-6-8-8-7-10-7-11-7-12-6-15-6-15-6-17-3-18-2-18-2-18-2-18-4-14-8-12-8-12-12-8-13-7-15-4-17-2-17-1-17-1-17 1-14 1-12 0-12 1-6 0-2 1-1 1-2 2-1 1-1 2-1 2 1 2 0 2 1 1 1 1 2 1 2 0 2z"  fill="#fff500" /><path d="M106-168l5 5 9 9 9 8 8 8 9 10 8 11 8 11 7 11 9 12 8 9 10 9 12 9 10 8 11 8 12 9 11 7 12 7 12 7 11 5 12 4 11 4 13 4 11 2 11-2 10-5 6-9 5-10 3-12 3-10 4-9 5-9 9-7 10-2 12 0 0 0 0 0-2 13 0 11-6 8-5 11-3 12-3 9-6 12-8 9-10 8-11 6-12 2-14 0-10-1-11-3-11-4-10-4-12-5-14-6-12-7-13-8-13-8-11-9-12-8-11-10-11-9-12-10-11-12-8-12-8-12-7-11-6-10-7-9-8-9-7-9-9-11-4-5-1-2-1-2 0-2 0-1 1-2 1-2 1-1 2-1 2-1 2 0 2 1 2 1 1 1z"  fill="#fff" /><path d="M107-166l4 8 8 17 3 9 4 10 3 11 4 10 3 12 3 11 3 12 2 13 1 12 2 12 2 12 2 12 2 11 3 11 2 10 6 18 6 16 7 15 7 13 6 13 6 12 6 11 7 9 8 8 9 5 10 5 10 4 11 1 12 0 10-1 11-4 14-3 12-4 13-4 10-5 12-6 13-7 11-7 11-7 11-8 11-10 11-11 9-12 11-13 14-13 16-10 18-6 17-5 18-3 19-3 17 0 16-1 14-2 53 1 0 0 0 0-58 24-16 0-16 1-16 1-17 3-17 4-14 4-13 6-11 9-10 11-10 14-12 13-12 12-12 11-13 9-12 7-13 7-12 7-13 7-14 5-13 4-13 3-13 4-15 3-15 1-14-2-15-4-13-5-13-8-11-10-9-12-7-12-6-13-5-12-6-14-6-15-7-16-5-19-3-10-2-11-2-11-2-11-3-12-2-13-1-12-2-12-2-11-3-11-3-11-3-11-4-11-3-10-6-19-6-16-4-8 0-2 0-2 0-2 1-1 1-2 1-1 2-1 1 0 2 0 2 1 2 1 1 1 1 1z"  fill="#fff" /><path d="M94-167l3-5 8-10 9-9 13-8 15-6 14-4 13-3 13-2 13-3 14-3 14-4 18-5 19-3 11-3 10-3 12-3 12-3 12-4 14-4 14-3 15-2 15-1 15 0 15 1 15 2 13 2 13 4 12 4 12 4 11 5 10 6 10 5 9 6 9 6 8 6 17 11 16 9 14 8 15 7 14 5 14 4 14 3 16 3 17 2 20 0 11 0 13-2 13-2 12-3 13-4 13-6 13-6 14-7 13-8 13-9 12-11 12-10 12-11 12-12 11-12 10-13 9-13 9-14 9-14 7-14 7-16 4-17 4-17 2-16 0-17-2-15-13-98 0 0 0 0 21 97 1 16 0 17-2 18-3 17-5 18-6 16-8 16-8 14-9 14-10 13-10 14-11 13-12 12-12 11-12 12-12 11-13 10-13 10-14 8-14 8-13 6-14 6-14 4-13 3-13 3-13 2-12 0-11 0-10-1-18-3-15-3-16-5-15-6-16-7-15-8-15-10-16-11-8-6-9-6-8-6-9-6-8-6-10-5-10-5-10-5-12-4-12-3-12-3-13-2-14 0-14 1-15 2-13 2-13 4-13 4-12 5-12 5-11 4-12 4-11 3-19 5-16 4-15 4-15 4-14 2-13 2-12 2-13 3-11 3-10 5-9 7-8 7-4 4-1 2-2 1-1 0-2 0-2 0-2-1-2-1-1-1-1-2 0-2 0-2 1-2 1-1z"  fill="#fff" /><path d="M108-162l0 7 0 14-1 15 0 14-1 13 0 12 0 12-1 11-1 10-1 15 1 12 1 12 1 10 3 10 4 12 5 13 2 11 1 10 1 12 0 11-2 12-2 12-4 13-4 12-3 13-4 15-4 15-3 13-3 12-1 11-1 12 0 12 1 13 1 12 3 9 5 10 6 9 7 10 6 12 6 11-3 27 0 0 0 0-22-11-6-11-5-12-5-10-8-11-5-11-4-12-2-13-1-14-1-14 1-14 1-14 3-13 3-14 4-13 3-14 2-14 4-16 3-12 4-15 1-12-1-14-1-13-3-12-4-12-4-14-2-14 0-12 0-13 0-11 2-10 1-11 2-10 1-11 1-12 1-14 2-13 1-15 2-14 1-7 0-2 1-2 2-1 1-2 2 0 2-1 2 1 2 0 1 1 2 2 1 1 0 2 0 2z"  fill="#c2e1ff" /><path d="M93-166l2-5 4-9 7-12 8-9 9-10 10-6 9-6 12-6 13-4 13-2 13-2 10-2 11-3 10-4 11-4 9-7 10-8 9-6 7-8 3-11 7-8 10-3 9-4 0 0 0 0 2 10 2 11-1 10-5 10-6 8-7 7-9 7-10 7-10 7-13 6-11 5-13 4-13 3-14 2-11 1-10 1-13 4-10 5-11 6-10 8-9 9-7 10-3 5-1 1-1 2-2 1-2 0-2 0-2 0-1-1-2-1-1-2-1-1 0-2 0-2 1-2z"  fill="#005bbb" /><path d="M108-166l3 7 6 11 7 9 7 7 9 7 9 7 9 6 11 5 10 3 14 3 15 3 16 2 17 1 19 1 10 1 10 1 10 2 20 1 11 0 10 1 19-1 17-3 16-7 14-8 13-11 13-13 12-15 6-8 6-9 5-10 7-11 6-10 5-10 5-11 5-10 5-10 5-9 5-9 4-10 9-17 8-16 8-15 8-14 7-13 8-12 7-11 7-11 7-10 7-8 5-9 6-13 2-14 0-12 1-12 2-11 21-33 0 0 0 0 5 43-2 10-1 11-1 12-3 14-5 13-7 11-7 9-7 8-7 10-8 10-7 11-8 12-8 13-8 13-9 15-9 16-4 9-5 9-5 9-5 9-5 10-5 10-5 11-5 11-6 11-6 10-5 11-6 10-6 10-7 9-7 8-7 7-7 7-16 12-17 10-9 4-10 4-10 2-11 2-10 0-11 0-11 0-10 0-10 0-11-1-10 0-20-2-19 0-17-1-18-2-16-3-15-3-15-5-12-7-11-8-10-8-9-9-9-11-7-12-5-13-3-6 0-2 0-2 0-2 1-2 1-1 2-1 2-1 2-1 2 1 1 0 2 1 1 2 1 1z"  fill="#fff500" /><path d="M93-158l-3-5-8-9-8-8-9-8-9-7-9-6-8-5-14-6-13-2-11 0-11 1-11 2-10 3-10 2-11 3-13 3-13 5-10 3-10 3-10 2-11 3-13 3-11 4-11 8-8 9-4 10 0 12 4 11 4 12 6 13 6 10 7 13 6 14 5 15 3 15 1 13 0 12 1 12-16 44 0 0 0 0-11-43-1-12 0-11-1-12-2-10-4-12-6-11-6-11-8-12-6-11-4-10-4-14-3-11-1-10 0-10 3-11 7-12 6-8 8-7 8-6 14-7 10-3 10-3 15-3 10-3 10-2 12-3 10-4 11-3 14-2 11-3 12-2 13-3 13 0 14 0 14 2 11 5 11 6 10 7 9 7 10 9 9 10 8 10 7 11 3 5 1 2 0 2 0 2-1 2 0 1-2 2-1 1-2 0-2 1-2-1-2 0-1-1-2-2z"  fill="#fff500" /><path d="M107-165l3 8 6 16 7 18 4 10 3 10 3 10 2 11 2 11 1 11 1 12 0 12 1 12 0 12 1 13 1 12 1 13 1 13 1 15 1 13 2 14 3 14 3 13 4 13 3 13 5 13 6 13 7 13 7 12 9 11 11 10 11 9 13 10 13 9 13 8 14 7 15 6 16 6 16 6 16 6 15 6 16 5 16 5 17 5 16 4 17 4 16 2 16 2 16 1 16 1 16 0 16 1 16 0 15-1 15-1 15-2 15-1 14-2 14-1 13-1 13-1 12 1 12 0 11 1 10 0 19-1 16-4 12-6 12-7 11-7 11-7 8-7 9-6 11-10 9-10 8-11 4-10 22-21 0 0 0 0 3 32-5 9-6 9-7 9-8 8-9 8-9 6-9 6-10 6-11 7-12 7-14 6-16 7-19 2-11 0-10 0-10-1-11-1-11-2-12-1-12 0-13 0-14 1-14 1-15 2-15 1-15 1-16 1-16-1-16 0-16-1-17-1-16-1-16-2-17-3-16-4-17-3-17-5-16-5-16-5-16-6-16-6-16-5-16-6-16-6-15-7-14-8-14-9-13-10-13-10-11-10-10-12-8-13-8-13-6-14-5-14-4-13-4-14-4-14-3-14-3-14-1-14-2-14-2-13-1-14-1-13-1-12-1-13-1-12 0-11-1-10-1-11-2-10-2-10-6-19-3-9-4-10-3-10-5-17-1-7-1-2 1-2 0-2 1-1 1-2 2 0 2-1 2 0 1 0 2 1 2 1 1 2 0 1z"  fill="#c2e1ff" /><path d="M101-155l-5 2-11 2-13 2-12 5-9 5-9 6-10 6-10 7-9 6-8 6-8 9-5 12-4 11-5 12-2 10-2 10 1 13 2 11 5 14 4 11 2 12 2 13 2 13 2 12 3 11 4 11 5 12 4 11 4 9 4 10 5 13 5 11 4 9 7 10 0 24 0 0 0 0-24-7-6-9-6-12-5-12-5-13-4-13-5-10-4-11-4-12-5-12-4-14-4-14-2-13-2-15-3-11-4-10-4-10-2-10-2-10 1-15 2-14 4-13 5-12 5-13 5-11 6-9 10-10 11-8 9-6 10-5 9-5 10-5 13-6 9-3 10-2 11-1 15 0 5 0 2 0 2 0 1 1 2 1 1 2 1 2 0 1 0 2-1 2-1 2-1 1-2 1-2 0z"  fill="#005bbb" /><path d="M92-162l-1-6-2-10-6-12-5-10-6-11-6-12-5-14-3-14-1-14 1-14 2-14 3-12 1-12 2-14 1-14 1-11 0-11-2-10-6-13-7-10-10-9-8-6-11-6-9-4-11-2-11 1-11 3-6 9-7 9-25 5 0 0 0 0 1-18 1-10 5-9 7-9 11-6 12-3 10-2 12-1 12 2 10 3 9 5 10 5 10 7 10 8 7 7 7 10 6 10 5 12 4 14 1 13-1 14-1 13-2 13-1 15-3 14-2 11-2 11-1 11 1 10 3 12 4 11 5 11 6 12 4 11 3 12 1 12 0 6 0 2-1 2-1 2-1 1-2 1-2 0-2 0-2 0-1-1-2-1-1-2-1-1 0-2z"  fill="#fff" /><path d="M102-170l5 0 15 1 10 0 11 0 11 0 14-1 11-3 14-4 12-5 11-6 10-8 6-9 4-12 0-11-2-11-5-13-4-11-4-10-7-8-10-5-10-4-9-5-15-5 0 0 0 0 5-10 7-8 9-5 11 2 11 4 10 5 10 7 8 9 7 10 4 10 4 10 4 11 3 10 2 15 0 15-2 9-6 15-6 9-8 8-8 6-10 5-9 5-11 4-11 3-13 3-11 2-11 0-11-1-11 0-12-2-11-2-11-2-5-2-2 0-1-1-2-2 0-2-1-1 0-2 0-2 1-2 2-1 1-2 2 0 2-1 2 1z"  fill="#c2e1ff" /><path d="M97-155l-6-2-12-5-11-5-12-5-11-7-10-7-9-6-9-5-13-7-10-4-10-4-12-6-12-7-11-7-11-6-13-5-15-5-15-6-14-5-13-3-13-1-13 1-11 3-12 5-10 8-10 10-10 11-10 11-11 10-11 9-10 9-9 7-8 8-8 11-7 8-7 8-7 8-7 7-9 7-10 4-13 3-12 1-11 1-13-1-17-14 0 0 0 0 24-14 11 0 11-1 11-2 9-4 10-9 6-7 10-11 7-9 9-9 9-8 10-8 10-8 11-9 9-9 10-11 11-12 13-11 15-9 17-6 17-3 15 1 16 2 16 5 15 5 15 5 16 6 14 6 13 7 11 7 10 6 9 5 11 4 10 5 9 6 10 6 9 8 10 7 8 6 11 6 11 6 10 6 5 3 2 1 1 2 1 1 1 2 0 2 0 2-1 2-1 1-2 2-2 0-2 1-2-1-1 0z"  fill="#fff500" /><path d="M93-166l2-5 2-13 1-14 0-10 1-15 1-12 1-11-2-12-2-11 1-10 6-9 8-6 7-8 11-2 13-2 0 0 0 0 0 15-2 10-6 8-10 5 2 11 0 12-2 11-2 10-2 13-2 15-2 11-3 11-4 10-3 5-1 1-1 2-2 1-2 0-2 0-2 0-1-1-2-1-1-2-1-1 0-2 0-2 1-2z"  fill="#fff500" /></svg>