<svg width="1200" height="675" viewBox="-500 -500 1200 675" xmlns="http://www.w3.org/2000/svg"><path d="M-500-500h1200v675h-1200z" fill="#000"/><path d="M101-155l-6 2-13 3-13 4-12 6-11 7-9 7-8 7-8 11-7 13-4 10 1 12 6 8 7 10 5 9 3 10 2 12 3 10 6 13 3 10 3 11 4 10 2 10 2 12 1 15-1 12-3 13-4 11-4 10-4 11-28 32 0 0 0 0 1-48 4-11 4-10 3-12 0-10-1-12-3-13-4-12-3-13-4-11-4-10-3-10-1-12-3-10-6-10-6-10-4-13 0-15 3-11 5-10 6-10 6-9 9-10 11-9 11-7 13-7 15-6 15-4 15-1 6 0 2 0 2 0 2 1 1 1 1 2 1 2 0 2 0 2-1 1-1 2-1 1-2 1-2 1z"  fill="#fff500" /><path d="M92-160l-2-6-7-14-5-15-4-14-4-12-4-11-5-11-5-11-5-10-6-10-6-11-8-11-7-10-9-11-9-9-11-9-11-7-12-4-11-2-11-1-12 0-11-1-11-2-14-3-10-4-11-4-10-4-9-6-6 5 0 0 0 0-4-14 5-10 9-6 12 2 9 4 10 4 9 5 11 4 12 3 10 1 13 1 14 1 15 3 14 6 15 9 13 10 11 12 10 12 8 11 7 12 8 12 6 12 5 11 4 11 5 12 4 13 3 13 3 14 4 13 4 15 3 7 0 2 0 2 0 1-1 2-2 2-1 1-2 0-2 1-2-1-2 0-1-1-2-2-1-2z"  fill="#c2e1ff" /><path d="M108-161l-1 7-2 14-2 14-2 13-2 12-1 12 0 12 1 14 4 12 4 12 4 11 6 11 7 9 8 9 10 6 12 6 9 5 8 7 10 5 9 7 5 9 2 12-5 14 0 0 0 0-10-7-11 0-7-8-9-6-8-6-8-6-11-5-10-7-8-7-8-9-6-9-5-9-5-11-4-13-4-13-2-10-1-11-1-13 2-13 2-13 2-14 4-13 3-13 4-13 1-7 1-2 1-1 1-2 2-1 1 0 2-1 2 1 2 1 2 1 1 1 1 2 0 2 0 2z"  fill="#c2e1ff" /><path d="M93-167l3-6 9-13 10-14 11-15 12-16 7-8 7-7 8-7 8-6 9-7 10-5 10-5 12-4 13-3 12-3 12-2 13-1 12-1 12-1 12 0 12 1 13 0 14 1 14 0 15-1 15-2 17-1 17-1 19-2 20-1 22-3 21-5 22-6 23-8 23-10 23-13 22-14 22-17 22-17 21-18 19-19 18-19 18-18 16-17 16-18 15-17 13-19 11-20 10-21 9-22 9-22 8-23 7-24 7-24 6-23 4-23 3-23 3-23 3-23 4-25 4-25 5-24 6-25 6-25 5-25 4-25 4-25 3-24 4-25 3-25 5-25 4-26 5-26 5-28 4-28 3-29 3-29 2-30 3-30 3-29 5-28 6-30 5-31 6-31 3-31 3-30 2-31 3-30 4-31 2-31 18-209 0 1 0-1-16 209-2 31-4 31-3 31-2 30-3 30-3 31-5 31-6 31-6 30-5 29-3 28-3 30-2 30-3 29-3 29-4 29-5 27-5 27-4 25-5 25-3 25-4 25-3 25-4 24-4 25-5 25-6 25-6 25-5 25-4 25-4 24-3 23-3 24-3 23-4 23-6 23-7 23-7 24-8 23-9 23-9 22-10 21-11 20-13 19-15 18-16 17-17 18-17 18-18 18-20 19-21 18-21 18-22 17-23 15-23 12-23 11-23 8-22 7-21 6-22 5-20 3-19 3-17 3-16 2-16 3-15 2-15 1-14 0-13 0-12 0-11 0-11 0-12 2-11 1-12 2-12 3-10 3-19 8-16 10-14 13-14 13-11 14-12 15-10 14-9 11-4 5-1 2-2 1-2 1-1 0-2 0-2 0-2-1-1-2-1-1-1-2 0-2 1-2 0-2z"  fill="#fff500" /><path d="M104-155l-6 3-9 6-10 6-10 6-11 5-13 5-13 3-12 3-13 3-11 3-11 4-9 4-12 7-11 8-9 6-8 7-8 7-10 8-9 7-7 7-5 10-3 10-2 12-2 12-1 12 1 10 1 12-2 12-7 7-19 4 0 0 0 0-1-18-3-10-1-12 0-11 2-11 2-12 2-12 2-11 5-11 7-11 8-9 10-8 10-7 10-7 8-6 10-7 12-8 9-5 10-5 12-5 13-4 12-2 13-3 13-3 10-2 10-3 11-4 11-5 10-5 11-4 5-3 2 0 2-1 2 1 2 0 1 2 2 1 1 2 0 2 0 2-1 1-1 2-1 2-1 1z"  fill="#c2e1ff" /><path d="M101-155l-6 2-13 1-13 1-14-2-12-2-11-2-12-2-10-2-11-3-10-3-14-6-12-4-12-6-13-5-15-5-15-4-15-1-13 1-12 3-12 5-11 6-11 8-11 7-8 9-9 9-7 9-6 8-6 10-6 11-6 11-7 11-7 10-7 12-7 12-7 11-4 12-1 11 2 16 1 11 1 13 1 13 3 12 4 14 5 57 0 0 0 0-30-49-5-15-4-15-2-14-1-13-2-12-1-12 0-12 1-12 4-12 5-9 7-9 7-11 5-10 7-9 6-9 6-10 6-11 7-11 7-12 9-10 9-9 9-10 12-10 12-8 14-9 14-6 15-4 17-3 17 0 19 3 18 4 15 6 13 5 11 5 10 4 14 6 12 5 10 2 11 3 12 3 11 3 11 2 11 1 12 0 6 0 2 0 2 0 2 1 1 1 1 2 1 2 0 2 0 2-1 1-1 2-2 1-1 1-2 1z"  fill="#fff" /><path d="M103-170l5 2 13 5 12 3 10 3 13 1 11-2 10-3 8-7 9-8 7-8 6-10 7-10 8-9 8-8 9-9 9-6 9-7 10-4 11 1 8 7 6 16 0 0 0 0-10 0-8 8-9 6-9 6-8 7-8 8-7 8-6 10-9 10-8 7-8 7-10 7-14 5-14 2-14-1-13-3-11-4-12-6-13-7-4-2-2-1-1-2-1-1-1-2 0-2 1-2 0-1 2-2 1-1 2-1 2 0 1 0 2 0z"  fill="#c2e1ff" /><path d="M104-155l-6 3-13 7-11 8-9 9-8 11-9 14-11 16-8 9-7 9-8 10-8 9-8 9-9 9-8 7-8 8-8 6-8 6-16 10-14 6-14 5-13 4-12 3-12 3-13 5-9 5-11 7-12 7-13 7-13 6-12 6-8 7-8 9-7 10-7 13-6 12-4 13-1 14 1 16 2 17 3 18 6 16 7 13 9 8 9 6 13 3 11 1 13 0 13 2 14 0 14 0 13-1 50 5-1 0 1 0-47 20-16 1-15 0-15 0-13-2-12-1-14-1-14-4-14-7-12-11-11-15-8-18-5-19-4-20-2-18 0-19 3-18 6-16 7-15 9-13 10-13 11-10 13-8 14-7 12-6 11-6 12-7 11-6 11-6 13-4 12-2 12-2 12-3 12-3 13-5 14-7 15-11 7-7 8-7 8-8 7-9 8-9 7-10 7-10 6-8 11-16 9-14 11-13 13-11 14-9 13-5 6-3 2 0 2-1 2 1 2 0 1 2 2 1 1 2 0 2 0 2-1 2-1 1-1 2-2 1z"  fill="#c2e1ff" /><path d="M95-169l5-5 11-10 11-9 11-11 14-10 16-8 18-4 16-1 16 1 14 2 12 4 11 4 10 3 13 6 13 7 11 8 8 7 9 7 11 5 11 0 10-3 10-3 11 1 10 2 6 2 0 0 0 0-5 10-4 10-9 6-10 2-10 3-12 1-11-1-10-3-10-6-10-8-8-7-9-8-10-7-11-5-13-6-9-4-10-3-12-3-12-2-13 1-14 3-13 5-11 8-12 10-12 9-12 8-6 5-1 1-2 0-2 1-2-1-2 0-1-1-2-2-1-2 0-2 0-2 1-1 0-2 2-2z"  fill="#fff500" /><path d="M104-156l-4 4-10 7-10 7-12 6-12 6-13 6-12 7-10 8-11 8-11 9-11 9-11 10-12 13-13 13-13 13-12 13-12 11-10 11-10 11-11 9-10 6-9 6-10 5-11 3-12 2-11-1-11-3-10-5-9-6-7-9-6-13-4-11-5-12-3-15-3-10-2-10-3-12-2-12-2-15-1-14-2-11-2-12-3-11-3-13-2-13 11-46 0 0 0 0 16 43 1 10 3 11 3 13 3 13 3 14 1 14 2 11 2 11 4 12 2 11 3 14 3 12 4 11 4 10 5 9 11 6 12 2 11-2 12-6 13-7 9-6 9-9 11-11 12-12 12-13 12-13 13-14 12-13 13-12 11-9 11-9 12-8 13-9 14-7 13-6 12-5 11-4 10-6 11-6 5-2 2-1 2 0 1 0 2 0 2 1 1 2 1 1 1 2 0 2 0 2-1 2-1 1-2 1z"  fill="#fff" /><path d="M107-166l3 5 7 10 8 11 8 9 10 10 11 9 10 9 11 10 11 12 9 16 7 16 6 16 8 16 4 10 5 10 4 10 4 10 3 10 4 10 7 19 4 9 7 18 3 10 7 19 4 10 3 10 3 10 6 19 5 19 4 18 2 19-2 19-3 18-3 17 0 18 2 17 1 11 0 10 0 11 1 11 0 11-1 12 0 12-1 12-1 13-2 13-2 13-2 12-2 14-2 13-3 14-3 14-2 14-1 14-1 14 0 15 2 15 3 15 4 15 5 15 6 16 8 16 9 16 11 15 12 13 14 13 14 11 16 8 15 7 15 5 100 30 0 0 0 0-102-24-15-6-16-7-16-9-15-11-14-12-13-14-12-15-10-16-9-16-8-16-6-16-5-16-3-16-2-16-1-15 0-16 1-15 2-14 2-14 2-13 2-13 2-13 1-14 1-12 2-12 1-12 0-13 0-11 0-11-1-11 0-11 0-10-2-20-2-10 0-10 0-11 1-19 4-18 2-15 1-16-3-17-3-17-6-19-6-19-3-9-3-10-4-10-4-9-7-18-7-19-4-9-4-10-3-10-7-18-5-10-4-9-6-9-9-18-6-16-6-14-7-12-8-10-10-10-10-9-11-11-10-10-9-13-8-13-6-11-2-6-1-1 0-2 0-2 1-2 1-2 1-1 2-1 2 0 2 0 2 0 2 1 1 1 1 2z"  fill="#fff" /><path d="M92-165l2-6 3-13 3-12 2-11 2-12 1-11 0-14 0-14 2-17 3-16 5-15 4-16 4-16 4-15 1-13 0-13-1-13-1-13-1-11-3-12-4-11-4-10-6-12-5-11-5-9-7-10-7-13-4-10-3-11-3-14-1-13-1-12-3-10-6-13-4-10-4-10-5-9-5-9-8-12-6-8-8-35 0 0 0 0 31 18 6 8 7 9 7 11 5 10 5 10 4 10 4 10 5 10 3 10 2 11 1 12 1 11 3 12 4 11 5 10 7 12 6 11 4 11 5 10 4 12 4 12 2 10 2 11 0 12 1 12 1 14 0 16-2 16-4 16-4 16-4 17-5 14-3 13-1 14 0 15-1 15-2 13-3 13-4 12-4 12-5 11-2 7-1 2-1 1-2 1-1 1-2 0-2 0-2 0-2-1-1-1-1-2-1-2 0-2 0-2z"  fill="#fff" /><path d="M93-159l-3-5-5-12-4-14-1-13 0-13 1-13 2-12 3-11 3-11 3-14 2-11 0-11-2-10-6-9-12-5-10-4-11-5-11-5-10-5-11-4-10-3-10-2-11 2-10 3-12 5-11 6-32 1 0 0 0 0 18-30 12-7 10-4 10-4 12-3 11-1 13 1 9 2 10 3 9 4 11 6 10 5 11 5 12 6 9 3 12 7 9 11 6 13 2 10 0 13-1 14-3 10-4 14-3 10-3 10-3 11-2 11-1 10 0 11 2 11 2 11 2 5 1 2 0 2 0 2-1 2-1 1-2 1-2 1-2 1-2-1-1 0-2-1-1-2-1-1z"  fill="#005bbb" /><path d="M103-155l-5 3-9 6-8 8-8 7-10 9-8 8-6 11-5 11-7 11-7 9-7 8-7 8-8 8-10 7-10 2-8-6-13-6 0 0 0 0 4-5 7-7 8-7 8-7 8-7 7-7 9-9 5-9 6-10 9-11 11-10 11-8 8-6 10-7 13-7 6-2 1 0 2 0 2 0 2 1 2 1 1 1 1 2 0 2 0 2-1 2-1 1-1 2-2 1z"  fill="#005bbb" /><path d="M107-160l-1 6-4 11-4 13-4 11-5 10-6 8-4 10 1 10 0 11-6 9-8 6-7-1 0 0 0 0 1-7-7-7-2-11 1-10 2-10 6-10 7-8 7-9 5-10 6-12 5-10 3-5 1-2 1-1 1-1 2-1 2 0 2 0 2 1 1 1 1 1 1 2 1 2 0 2-1 1z"  fill="#fff500" /><path d="M99-155l-7 0-15 0-14 1-13 3-11 4-10 5-12 9-11 7-12 7-14 7-16 7-17 6-15 7-14 7-11 6-9 6-8 7-7 9-6 11-4 11-3 10-3 11-8 9-10 2-9-6-7-4 0 0 0 0 4-4 8-6-3-9 4-10 4-10 5-10 7-10 7-8 9-8 11-8 12-7 14-7 15-7 16-7 16-7 14-6 12-7 10-5 10-6 11-7 12-5 14-4 17-3 16 1 16 1 7 2 2 0 2 1 1 1 1 2 1 2 0 2 0 1-1 2-1 2-1 1-2 1-2 1-2 0z"  fill="#fff500" /><path d="M103-170l6 2 10 3 9 3 11 2 11 2 11 1 11 2 11 2 10 2 14 2 12 1 11 0 11-2 10-4 11-5 9-3 9-4 9-9 6-12 3-12 3-12 2-13 1-15 1-14 2-14 1-12 1-10 0-14-1-11-2-12-2-12-2-12 12-25 0 0 0 0 19 27 1 11 1 10 1 12 0 12-1 15-1 11-1 12-1 14-1 15-1 15-1 15-3 14-3 14-6 15-7 11-9 9-9 6-12 4-12 4-11 4-11 3-12 2-10 0-12-2-14-2-10-3-10-2-11-3-10-2-12-3-11-2-11-4-11-4-11-5-4-3-2-1-1-2-1-1-1-2 0-2 0-2 1-2 2-1 1-1 2-1 2 0 2 0 1 0z"  fill="#005bbb" /><path d="M93-158l-3-5-6-8-7-8-11-8-13-7-14-5-10-3-13-2-11 0-12 2-13 3-10 2-11 3-12 4-13 4-15 3-16 2-16 1-15 3-14 6-15 8-15 12-14 12-11 13-7 14-4 16-2 15 1 14 4 12 5 13 7 13 7 13 5 15 6 14 5 14 6 16 3 17 2 19-1 20-2 10-4 19-7 18-9 17-10 17-57 50 0 0 0 0 34-56 10-14 7-14 7-16 5-16 3-17 1-16-2-16-3-15-5-14-5-15-6-14-5-13-6-13-7-14-6-15-4-17-1-18 3-19 5-18 4-10 5-9 7-9 7-7 7-7 8-7 7-6 9-7 8-6 9-5 10-5 9-4 18-4 16-1 14-2 13-4 12-3 13-4 11-3 11-3 10-2 15-2 10 0 11 1 11 2 11 4 11 4 11 5 9 6 10 7 9 9 7 11 5 10 3 4 1 2 0 2 0 2-1 2-1 1-1 2-2 1-2 0-2 0-1 0-2-1-2-1-1-1z"  fill="#fff" /><path d="M93-166l2-6 4-10 4-11 4-10 3-12 3-11 4-13 6-12 8-13 9-13 10-14 11-14 12-14 13-12 12-10 12-8 11-6 12-3 11-1 10 1 12 6 10 7 9 9 7 9 9 11 9 10 9 6 12 5 9 3 10 3 13 4 14 2 12 2 12 1 12-2 10-1 11 7 10 13 0 0 0 0-22 11-11 1-10 0-12-1-13-1-14-3-10-2-12-3-14-5-10-4-11-5-11-6-9-9-9-12-8-9-7-9-7-8-9-5-10 0-13 4-10 6-11 9-11 11-11 12-9 14-10 14-9 12-6 11-6 10-4 11-4 11-4 12-5 11-6 11-6 10-3 5-1 2-1 1-2 1-2 1-2 0-2-1-2-1-1-1-1-2-1-1 0-2 0-2 1-2z"  fill="#c2e1ff" /><path d="M95-156l-5-3-9-7-10-7-8-6-9-6-13-8-9-4-14-2-15 1-10 3-9 5-11 8-7 10-4 9-4 14-4 11-4 10-3 11-2 11-1 12 0 12 1 11 3 11 2 10 3 12 1 13 2 14 0 14-1 15-4 15-6 13-6 12-5 14-3 15 2 17 6 13 11 13 12 9 13 5 12 3 12 0 15-2 14-4 61-11 0 0 0 0-54 33-17 5-18 2-17 0-17-5-16-7-9-6-7-7-8-7-6-9-6-10-4-11-3-11 0-11 0-12 2-10 6-17 6-13 6-14 2-11 0-12-1-12-1-13-2-10-2-11-3-11-2-13-1-15 0-15 2-14 3-14 4-12 4-9 3-11 3-9 5-10 6-10 9-9 10-8 12-7 14-5 15-3 14 0 14 3 13 5 10 7 10 6 8 8 8 7 9 8 8 7 4 4 1 2 1 1 1 2 0 2 0 2-1 2-1 1-2 1-2 1-2 1-1-1-2 0-2-1z"  fill="#fff500" /><path d="M98-170l6-2 9-5 9-6 8-7 6-9 4-11 6-13 5-13 8-14 8-14 9-15 9-16 7-15 8-17 6-19 3-10 2-18 1-20-1-10 0-10-1-10-1-11-2-10-1-11-2-11-3-11-3-11-3-11-5-10-6-10-6-8-8-7-8-5-18-8-19-3-18 1-17 4-13 6-9 7-6 10-2 12 3 15 5 12 8 12 9 12 10 12 11 13 11 15 6 9 6 9 7 9 6 11 6 12 6 12 4 13 5 14 5 13 4 15 5 15 5 17 34 119 0 0 0 0-45-115-6-16-7-15-5-14-6-13-5-13-5-12-6-11-6-10-7-9-7-9-6-9-12-15-11-13-11-13-10-13-10-14-9-16-4-16-1-15 2-13 6-13 10-12 14-7 17-6 19-4 10-1 12 0 11 2 12 2 11 5 11 5 10 7 10 9 8 11 6 11 6 11 4 12 4 12 3 12 2 11 2 11 1 11 2 11 1 10 1 11 0 11 0 11 0 11-1 11-2 11-3 10-3 10-3 10-7 19-8 17-8 16-10 16-8 13-6 12-6 14-6 12-7 14-9 12-12 9-12 6-13 4-6 1-2 1-2-1-1 0-2-1-1-2-1-1-1-2 0-2 0-2 1-2 1-1 2-1 2-1z"  fill="#005bbb" /><path d="M97-170l7-3 12-7 9-9 8-11 8-13 8-15 10-15 12-15 11-13 9-13 9-12 7-12 8-11 8-11 9-10 7-8 5-9 5-10 5-11 5-12 3-10 4-11 2-11 3-12 3-10 4-9 5-12 4-10 4-9 6-11 8-10 6-12 6-10 6-9 8-8 19-9 0 0 0 0 4 22-4 11-6 9-7 10-5 9-6 9-7 8-5 9-5 9-4 10-5 11-3 10-3 10-3 12-4 12-4 12-5 12-6 12-6 12-8 11-8 10-8 9-8 9-8 10-8 12-8 12-11 14-11 13-11 13-9 14-9 15-9 14-11 13-14 11-15 7-7 2-2 0-2 0-2 0-2-1-1-1-1-2-1-2 0-1 0-2 1-2 1-2 1-1 2-1z"  fill="#fff500" /><path d="M105-156l-4 4-8 7-9 7-11 9-9 10-8 7-8 7-11 7-10 4-11 4-11 1-15 0-13-3-12-5-10-4-9-5-10-6-11-10-7-11-6-12-1-15 3-14 7-13 7-8 9-9 9-10 7-8 8-8 10-7 10-6 10-5 12-5 10-6 8-9 7-9 6-8 25-10 0 0 0 0-3 31-7 9-8 10-8 7-8 6-13 7-13 6-11 7-9 7-10 11-7 8-9 9-9 11-3 10 4 10 8 10 10 6 11 6 11 5 12 3 10 1 11-2 12-5 11-8 10-9 9-7 9-6 12-8 9-6 5-3 2-1 1 0 2-1 2 1 2 1 2 1 1 1 1 2 0 2 0 2-1 2-1 1-1 2z"  fill="#005bbb" /><path d="M106-168l5 6 11 11 10 10 12 9 12 8 12 7 12 6 11 7 12 6 13 6 14 7 15 5 13 4 13 2 13 2 12 2 12 1 10 0 13-1 10-4 10-6 8-8 7-9 3-11-1-12-3-11-3-11-1-10 1-11 4-11 9-6 12-7 0 0 0 0 5 13 3 11-2 11 1 10 3 11 1 12 0 13-2 13-6 13-8 9-8 9-11 7-13 6-9 3-12 3-12 0-12-1-13-1-12-2-14-3-14-3-15-4-16-6-15-7-14-7-12-7-12-7-11-7-13-9-13-9-12-11-11-12-10-12-4-6-1-2-1-2 0-2 0-2 1-1 1-2 2-1 2-1 1 0 2 0 2 0 2 1 1 1z"  fill="#c2e1ff" /><path d="M96-155l-6-3-12-5-12-4-13-5-12-6-13-6-11-8-11-9-10-12-9-10-11-9-10-9-11-8-11-8-12-6-14-4-17-5-20-4-10-3-10-3-10-4-10-5-10-6-10-6-9-5-11-7-10-6-11-7-11-7-11-6-13-6-12-6-12-4-13-3-12-3-13-3-12-2-12-3-12-2-12-2-11-1-12-1-12-2-12-2-13-2-13-3-13-3-13-2-14-3-14-3-14-2-14-1-15-1-14-1-15 0-14 0-14-1-14-1-14-1-13-1-12-2-12-3-11-2-11-3-11-2-10-3-18-2-17 0-15 2-12 2-10 4-38 3 1 0-1 0 31-24 13-3 14-2 17 0 19 1 10 2 10 2 10 2 11 3 10 4 11 3 11 3 12 2 13 1 13 2 13 1 14 0 15 0 14 1 15 0 15 1 15 1 14 1 15 3 14 2 13 2 14 3 12 2 13 2 11 2 12 2 12 2 12 1 12 2 12 3 12 2 13 3 12 3 13 3 13 3 14 4 13 5 13 6 13 6 12 6 11 6 10 6 11 6 9 6 10 5 18 9 18 6 19 4 10 1 18 4 18 6 16 8 12 8 12 9 11 10 11 11 11 11 8 10 8 8 9 7 10 6 11 5 12 6 13 6 12 7 6 3 1 1 2 2 0 2 1 1 0 2 0 2-1 2-2 1-1 2-2 0-2 1-2-1-2 0z"  fill="#005bbb" /><path d="M92-165l2-7 3-13 3-15 3-14 1-15 1-14 0-12-2-11-4-11-4-9-4-10-5-10-4-10-6-12-6-9-7-8-11-8-9-6-9-7-10-8-10-7-13-8-14-8-16-10-16-11-16-12-15-12-14-13-7-8-11-16-9-17-9-16-9-16-10-14-10-12-10-14-8-14-9-15-9-14-9-14-9-14-8-15-7-15-9-15-9-13-11-13-25-51 0 0 0 0 48 43 11 15 10 15 9 17 6 14 8 13 9 13 10 15 9 15 8 14 8 13 10 13 11 14 9 16 10 17 9 16 8 14 10 12 13 12 15 11 16 11 15 10 15 8 15 8 14 8 13 8 10 8 9 6 8 7 10 7 8 7 7 9 5 8 6 14 5 14 5 10 4 10 4 12 4 13 1 15 0 15-2 14-2 17-4 15-4 15-5 14-2 6-1 2-1 1-2 1-2 1-2 0-2 0-1 0-2-1-1-2-1-1-1-2 0-2 0-2z"  fill="#fff" /><path d="M95-169l6-5 13-11 13-10 13-8 13-7 12-6 11-6 12-7 11-8 10-8 8-10 5-9 5-14 2-11 3-9 2-11 3-10 3-10 1-13-4-11-10-8-11-4-15-4-10-2-14-4-13-3-12-1-11-2-11 1-12 2-13 3-11 3-11 5-11 2-18 2 0 0 0 0 2-18 4-9 10-6 11-4 11-3 12-3 12-3 12-1 13 0 11 2 12 1 11 2 14 4 10 3 9 2 11 3 10 4 12 5 11 8 9 11 5 14 2 15-2 14-3 10-5 15-2 10-4 11-3 11-5 13-8 12-11 12-13 11-12 7-12 7-13 7-13 5-12 6-12 7-13 8-13 9-7 5-1 1-2 0-2 1-2-1-2 0-2-2-1-1-1-2 0-2 0-2 0-1 1-2 2-2z"  fill="#fff500" /><path d="M101-155l-6 1-12 2-11 1-11 1-11 1-12 0-12-1-12-1-15-2-14-4-14-6-13-8-10-10-9-12-5-12-5-11-5-11-4-10-5-9-5-9-7-11-6-10-6-10-6-9-6-9-5-8-7-9-7-9-3-11 5-11 4-10 0 0 0 0 14 9 8 7 6 8 6 10 5 9 5 9 6 10 5 10 6 10 6 12 5 9 6 11 5 11 4 11 5 11 6 13 9 11 9 6 10 4 12 4 12 2 13 1 10 2 11 0 10 1 11 0 12 0 11 0 5 0 2 1 2 0 2 1 1 2 1 1 1 2 0 2 0 2-1 2-1 1-2 1-2 1-2 0z"  fill="#c2e1ff" /><path d="M100-154l-8 0-12 1-14 2-13 3-12 3-11 3-14 7-13 8-11 7-13 6-11 5-12 6-12 7-10 8-8 9-7 10-5 12-3 11-1 13-3 16-2 17-1 16-2 17-3 17-3 16-3 16-2 17-2 18 0 19 1 20 0 10 1 11 0 11 2 19 5 17 7 15 9 14 11 15 12 13 12 14 11 14 11 12 10 12 9 11 9 9 8 7 9 7 9 7 18 35 0 0 0 0-38-19-9-7-9-9-10-10-9-11-9-12-10-12-11-13-11-14-12-14-12-15-12-16-9-18-4-9-3-10-2-10-1-11-1-10-1-11 0-10-2-10-1-11-1-11 0-11 1-10 1-19 2-17 2-17 4-17 2-14 2-16 1-18 2-17 2-16 2-15 4-16 7-15 9-13 11-13 14-10 12-7 13-7 12-5 11-5 10-5 10-6 12-6 12-4 12-3 13-2 14-2 15-2 16 0 7 1 1 1 2 1 2 1 1 1 1 2 0 2 0 2-1 2-1 1-1 2-2 1-2 0-1 1z"  fill="#c2e1ff" /><path d="M102-155l-6 2-13 4-14 4-15 5-15 4-15 5-15 8-12 9-9 11-7 11-6 11-3 11-1 13-1 16-1 17-2 17 0 17 1 17 5 17 9 18 7 10 8 12 10 12 11 12 13 13 14 12 15 10 16 9 16 6 18 4 17 0 19-1 18-4 20-5 22-6 23-6 23-7 25-8 27-8 27-6 28-4 30-5 30-3 33-2 34 0 35-1 36-2 36-6 35-8 34-11 33-12 33-15 30-19 27-22 23-25 19-27 17-29 14-31 13-34 16-37 16-37 17-39 21-37 22-39 22-39 24-39 25-39 25-35 26-32 26-28 26-24 27-20 28-17 29-16 193-92 0 0 0 0-193 94-28 15-27 17-27 20-27 25-25 27-26 32-26 35-24 39-24 39-22 39-22 39-21 37-17 38-17 38-15 36-13 35-14 31-17 29-19 28-24 25-27 22-31 19-32 15-33 12-35 11-35 8-36 6-36 2-35 1-34 0-32 2-31 3-30 5-28 4-27 6-26 8-25 8-23 8-23 7-22 6-20 6-19 4-19 2-19 0-18-3-18-7-17-7-16-10-16-11-14-12-14-11-12-12-10-11-8-11-8-11-5-11-4-11-2-10-1-10-1-19 1-18 1-17 0-17 2-17 3-16 7-14 8-13 11-13 13-12 17-10 9-5 17-6 16-4 15-3 15-3 13-2 6-1 2 0 2 0 2 1 2 1 1 1 1 2 0 2 0 2-1 2 0 1-2 2-1 1-2 0z"  fill="#fff500" /><path d="M96-169l5-4 10-6 10-5 13-6 11-7 11-8 7-9 4-10 5-12 5-13 3-14 2-15-1-15-2-15-6-15-8-13-9-9-10-6-11 0-13 4-10 5-11 4-10 5-9 6-10 8-6 9-5 9-5 11-4 11-3 12-1 12 0 11 0 10-1 10-12 19 0 0 0 0-17-19-1-10 0-10 1-11 2-13 3-12 4-13 5-12 6-13 6-8 6-8 8-8 10-8 11-6 12-5 11-5 11-5 13-4 15-1 16 4 15 9 13 14 10 17 7 19 4 19 0 18-2 18-3 17-6 14-5 14-6 12-9 11-9 8-9 6-10 4-14 5-14 4-9 4-6 3-1 1-2 0-2 0-2 0-2-1-1-1-1-2-1-2 0-2 0-2 1-1 1-2 2-1z"  fill="#005bbb" /><path d="M104-155l-5 3-12 6-12 4-13 3-14 1-15 0-17 1-18 4-10 3-9 4-11 5-11 6-11 6-9 8-10 8-11 10-11 10-10 10-11 12-10 11-10 11-10 11-10 12-9 12-9 11-8 12-8 13-7 12-6 12-7 12-6 12-6 12-6 12-8 13-8 11-8 12-9 12-9 13-10 13-8 14-7 14-7 15-7 16-8 18-10 17-9 17-10 17-11 16-11 15-11 16-11 15-10 16-8 17-8 17-8 18-9 18-9 19-9 19-8 21-9 21-10 23-10 23-11 24-10 22-11 23-11 22-10 21-11 20-12 18-12 17-13 15-14 14-14 12-15 12-15 13-15 14-15 15-14 16-16 17-15 16-16 17-15 16-17 15-17 15-19 13-21 14-137 89 0 0 0 0 136-91 20-13 20-14 17-14 16-16 16-16 15-16 16-17 15-16 15-16 14-16 15-14 15-13 15-12 14-12 14-13 13-15 12-17 12-18 11-20 11-21 10-22 11-22 10-23 11-23 10-24 10-23 9-21 8-21 8-19 9-20 8-18 8-18 8-17 9-17 10-16 11-16 11-15 11-16 10-15 9-17 9-18 8-17 7-18 6-17 7-15 7-16 8-14 9-14 9-13 9-12 8-12 7-11 8-12 6-12 6-12 7-11 6-12 7-13 7-13 8-12 9-12 9-12 9-13 10-12 10-11 10-11 10-12 10-12 10-12 10-11 11-10 10-10 11-9 11-8 11-6 11-7 11-5 11-4 12-3 10-2 18-2 16 1 11 0 11-1 10-3 11-3 5-3 2 0 2-1 2 1 2 0 1 1 2 2 0 2 1 1 0 2 0 2-1 2-2 1-1 2z"  fill="#fff500" /><path d="M108-163l1 6 2 10 4 11 4 11 4 13 3 13 2 12 2 10 3 10 3 10 5 11 5 13 5 15 5 18 2 10 6 19 3 10 4 10 4 11 3 11 4 12 3 12 3 11 3 12 3 12 3 11 3 12 2 12 3 12 2 12 2 13 1 12 1 13 0 13-2 13-1 13-2 12-1 11-1 11-1 11-1 11-2 10-3 18-3 18-4 16-6 16-6 14-8 15-11 14-16 11-18 7-10 3-10 3-11 2-12 2-12 0-12 0-13-1-13-4-13-4-13-7-12-7-13-9-14-9-15-8-17-7-19-6-22-5-24-3-26-1-27 1-185 0 0 0 0 0 185-4 27-1 26 0 25 2 23 3 21 5 18 5 17 7 15 8 13 7 12 6 11 6 11 3 11 2 11 1 11 0 10-1 10-2 19-5 17-6 13-6 9-8 8-11 6-14 7-13 5-14 4-16 4-17 4-18 1-11 1-10 1-12 2-12 2-11 1-12 1-12 0-12 0-12-2-12-2-12-2-11-3-12-2-11-3-12-4-12-3-11-3-12-4-11-3-11-4-11-4-11-4-10-4-11-5-10-3-10-6-19-6-17-5-14-5-13-5-12-3-12-3-12-1-11-2-11-1-11-3-12-4-13-2-13-1-12 0-6 0-2 1-2 1-2 1-1 2-1 2 0 2-1 1 1 2 1 2 1 1 1 1 2 0 2z"  fill="#005bbb" /><path d="M96-169l6-5 14-9 15-7 15-8 16-7 18-9 17-8 16-10 13-15 7-9 9-11 8-12 10-13 10-13 11-14 12-14 12-14 11-14 11-15 11-14 11-15 11-15 13-15 12-15 13-16 12-17 13-16 12-17 13-17 12-17 11-17 12-17 10-18 11-18 11-18 11-19 11-19 11-20 10-21 10-22 11-23 11-23 12-23 13-22 15-22 16-20 17-19 20-18 19-18 18-18 17-19 15-19 14-19 12-20 12-20 9-20 8-20 7-21 4-21 2-21-1-21-1-21-2-22-4-23-6-23-7-25-8-26-8-26-7-27-7-28-7-28-8-29-8-27-11-27-10-26-12-25-11-25-12-23-12-24-11-22-11-23-10-22-7-24-7-25-5-26-4-27-8-183 0 0 0 0 10 183 4 27 5 25 7 25 7 24 10 23 11 22 11 22 12 24 12 23 11 25 12 25 10 26 10 27 9 28 8 28 7 29 7 27 7 27 7 27 9 26 7 24 6 24 4 23 2 22 1 21 1 21-2 22-4 21-7 21-8 20-10 20-11 20-12 20-14 19-16 20-17 18-18 18-19 18-19 18-18 19-16 21-15 21-13 22-11 23-12 23-10 23-10 22-10 21-11 20-11 19-11 19-11 19-11 18-10 17-12 18-11 17-12 17-13 16-12 17-12 17-13 17-11 16-12 16-12 16-11 14-11 16-10 15-11 14-10 15-11 15-10 14-10 15-9 14-8 14-8 13-7 11-7 11-8 10-9 9-9 7-10 5-18 9-17 8-17 7-15 7-14 6-14 7-7 4-1 1-2 0-2 0-2 0-2-1-1-1-1-2-1-2 0-2 0-2 1-1 1-2 2-1z"  fill="#c2e1ff" /><path d="M102-170l7 1 14 3 14 3 14 5 13 4 12 3 10 2 11 2 10 0 12 1 11 1 12 1 12 1 13 2 16 2 16 1 15 1 17 1 15 0 15-1 15-1 14-1 12-2 12-1 10-2 10-3 12-5 9-6 9-7 8-7 9-7 9-5 1-5 1 0 0 0 9 8 2 11-3 11-8 7-9 7-9 6-11 8-11 5-11 4-12 3-12 2-12 1-13 1-14 1-15 1-16 1-17 1-17-1-16-1-17-1-15-1-14-2-12-1-12-2-11-1-10-1-12-2-12-2-13-3-13-5-13-5-13-5-12-5-13-4-7-2-2 0-1-1-2-2 0-2-1-1 0-2 0-2 1-2 2-2 1-1 2 0 2-1 2 1z"  fill="#005bbb" /><path d="M92-162l0-5-2-14-1-13 0-12 1-11 2-12 4-10 7-9 8-7 11-5 11-5 9-6 8-8 6-9 1-11-2-12-2-11-4-10-6-10-7-7-10-7-10-4-10-3-13-2-45-19 0 0 0 0 48-11 11 1 12 2 13 5 13 7 8 5 8 7 8 9 6 9 5 10 4 12 2 13 3 12 0 12-2 11-6 11-7 9-8 8-8 6-9 6-10 4-10 4-9 4-6 10-3 11-2 13 0 12-1 14 0 5 0 2-1 2-1 2-1 1-2 1-2 0-2 0-2 0-1-1-2-1-1-2-1-1 0-2z"  fill="#fff" /><path d="M107-161l-1 8-1 13-1 17-4 19-2 10-3 11-1 11-1 10 1 19 4 19 7 19 5 9 5 8 8 8 8 9 10 8 10 9 10 9 11 8 10 8 11 8 10 7 10 7 10 6 9 6 9 6 9 5 17 9 16 9 15 8 15 6 14 6 15 5 15 3 16 1 16 1 16-1 15-3 16-3 16-4 15-4 16-2 15-3 14-1 13 0 12 1 11 1 14 0 14 1 12 1 12 1 11 2 11 1 23 18 0-1 0 1-24 12-12-2-13-3-11-2-12-1-13-2-10-1-15-2-11-1-11 0-12 0-14 2-15 3-15 3-16 4-17 3-18 3-17 1-18-1-18-2-17-4-16-5-16-7-15-8-16-9-15-10-17-10-9-6-9-5-9-7-10-6-9-8-11-7-10-8-12-8-11-8-10-8-11-9-11-8-10-9-9-10-7-10-6-11-4-10-4-11-2-11-2-11-1-11 0-12 1-11 2-12 2-11 2-10 4-18 2-16 3-16 3-6 0-2 1-2 2-1 1-1 2 0 2 0 2 0 2 1 1 2 1 1 1 2 0 2-1 2z"  fill="#fff500" /><path d="M93-166l2-6 4-12 4-12 2-11 2-11 3-11 2-9 3-14 3-13 2-14 3-13 2-12 2-13 0-10 2-12 3-12 2-10 1-11 0-12 1-11 3-12 5-12 8-10 7-9 9-9 11-8 14-5 13-4 12-2 13-2 11-1 12-2 13-1 17 1 18 4 10 4 9 5 10 6 8 7 9 7 9 7 9 8 10 7 11 7 12 6 84 40 0 0 0 0-92-24-13-6-12-7-12-6-10-7-10-7-8-6-16-10-15-5-13-3-13 0-11 1-12 2-11 1-11 2-12 2-13 4-12 7-8 9-9 11-4 13 0 12-1 11-1 13-2 11-4 13-2 11-1 11-3 12-3 13-3 12-3 13-4 14-2 10-5 14-3 9-3 12-4 12-6 13-6 11-2 6-1 1-2 2-1 1-2 0-2 1-2-1-2 0-1-2-2-1-1-2 0-2 0-2 1-2z"  fill="#005bbb" /><path d="M94-157l-4-4-8-9-9-8-8-11-7-10-6-10-7-8-7-9-7-9-7-10-6-12-7-10-7-11-8-14-8-14-7-14-8-12-9-10-10-10-10-7-11-4-11-1-11 2-13 7-10 10-6 10-7 10-6 9-6 9-6 8-7 10-5 9-7 10-8 11-9 7-10 6-9 3-11-1-8-7-9-6 0 0 0 0 11-9 10-7 10-3 8-8 6-8 6-9 8-10 8-11 6-9 7-9 6-10 8-10 10-11 12-9 16-6 17-2 17 2 17 6 14 10 12 12 10 12 9 14 8 14 8 13 7 12 8 12 7 12 6 11 5 9 6 8 7 9 7 11 6 10 6 10 6 10 7 9 7 10 3 4 1 2 1 2 0 2 0 2-1 1-1 2-2 1-1 1-2 0-2 0-2 0-2-1-1-1z"  fill="#fff" /><path d="M107-159l-3 8-6 16-8 17-10 16-11 15-12 15-12 15-6 8-11 17-5 9-5 10-4 10-4 12-3 11-3 12-2 13-3 13-2 13-2 14-3 14-3 15-2 15-3 17-4 18-5 19-3 20-4 21-1 23 1 24 3 24 4 24 4 25 4 26 3 27 2 28 4 29 5 29 4 29 5 29 6 30 6 32 5 33 7 32 8 32 10 32 11 33 9 32 9 32 10 31 11 30 10 29 11 28 11 28 12 28 11 27 12 26 13 25 14 22 14 20 14 17 15 16 15 13 15 12 15 9 14 8 14 7 14 5 12 4 13 3 11 2 11 2 10 2 10 1 10 2 10 2 10 3 19 7 16 11 12 11 11 12 9 12 20 52 0 0 0 0-34-34-7-12-8-11-9-10-12-11-14-8-17-7-19-5-10-3-10-2-11-3-11-4-12-4-13-5-13-7-14-8-14-9-15-10-15-12-15-14-14-15-15-18-14-20-14-22-13-25-12-26-11-27-12-28-11-28-11-28-10-29-11-31-10-31-9-32-9-31-11-33-10-33-8-32-7-32-5-33-6-31-6-30-5-30-5-28-4-30-4-28-2-28-3-27-4-26-5-26-4-24-3-24-2-24 0-24 2-21 2-21 3-19 2-18 2-17 2-16 2-14 2-15 1-13 2-14 2-13 2-13 3-13 2-13 4-12 5-12 5-11 5-10 6-10 6-9 7-9 12-15 11-14 11-14 10-14 8-15 7-16 4-8 1-1 1-2 2-1 2 0 1 0 2 0 2 1 2 1 1 1 1 2 0 2 0 2-1 2z"  fill="#fff500" /><path d="M107-159l-2 6-4 11-2 11 0 12 1 13 0 17-1 18 1 18 2 17 5 15 6 16 8 15 9 14 10 14 11 12 12 9 13 7 14 3 15 2 16-1 17-2 18-2 16-3 16-2 15 0 14 1 12 2 11 2 10 3 10 5 12 7 11 6 10 4 10 3 12 2 12-1 11 0 11 0 11-1 22 15 0 0 0 0-16 13-9 3-13 0-11 0-12 0-11-1-12-1-12-4-12-6-12-7-12-7-9-6-12-4-10-2-11-2-12-1-13 1-16 2-17 2-18 3-19 1-19 0-18-4-18-7-15-11-14-12-12-15-11-16-9-16-7-17-7-18-4-19-1-10-1-20 1-17 0-15 0-16 2-14 4-14 6-13 3-5 1-2 1-1 2-1 2 0 2 0 2 0 1 1 2 1 1 2 1 1 0 2 0 2-1 2z"  fill="#005bbb" /><path d="M93-160l-3-5-5-12-5-12-2-11-2-11-2-14-3-13-2-13-3-15-4-13-3-10-5-10-7-8-9-4-6 9-7 9-6 10-8 9-7 8-9 9-8 7-12 3-20-4 0 0 0 0 5-12 4-10 8-7 8-8 8-9 8-9 6-10 7-8 7-7 9-7 12-3 13 2 10 5 10 9 7 10 5 10 4 11 3 13 3 10 1 10 3 15 1 15 1 13 0 14 2 10 2 11 4 11 2 7 0 2 0 1 0 2-1 2-2 2-1 1-2 0-2 1-2-1-2 0-1-1-2-2 0-2z"  fill="#fff500" /><path d="M96-169l4-4 9-7 9-7 10-10 10-8 8-7 10-8 10-7 11-5 11-4 13-2 12 0 11 1 11 1 13-1 10 0 10-6 7-8 5-10 5-10 6-9 6-9 1-12-2-12 9-29 0 0 0 0 23 21 3 13-1 15-1 12-5 11-7 9-6 8-4 9-7 12-7 9-8 7-12 6-12 3-12 1-12 0-13-1-12-2-12 0-11 1-10 4-11 7-11 7-8 6-11 7-8 6-10 6-10 6-6 3-1 1-2 0-2 0-2 0-2-1-1-1-1-2-1-2 0-2 0-1 1-2 1-2 2-1z"  fill="#fff500" /><path d="M106-157l-4 5-7 9-7 9-7 9-8 9-8 8-7 8-7 8-7 7-7 11-6 15-2 11-2 10 1 12 5 9 10 6 12 3 10 1 13 2 14 4 10 5 9 5 9 6 12 6 11 7 8 6 8 9 9 5 21 7 0 0 0 0-11 20-11 5-12-3-10-5-10-9-9-9-8-6-9-5-12-7-9-6-9-4-10-3-11-1-13-2-11-3-12-7-8-6-8-12-4-9-1-11 0-13 2-13 4-13 4-13 7-12 7-9 8-9 8-7 8-8 9-7 7-7 8-8 8-9 9-8 4-4 2-1 1-1 2 0 2 0 2 0 2 1 1 1 1 2 1 2 0 2 0 2-1 1-1 2z"  fill="#c2e1ff" /><path d="M94-158l-5-5-8-13-9-15-9-16-9-17-5-8-7-9-7-8-8-8-9-8-10-8-9-9-10-8-9-10-9-9-8-10-8-10-7-9-6-10-6-9-6-9-5-9-6-9-10-16-11-14-11-12-11-8-11-7-12-6-13-4-14-5-14-5-11-5-11-4-11-5-9-5-11-8-9-8-9-7-9-6-11-3-10-5-10-4-11-6-13-8-9-7-8-8-8-9-9-9-9-5-22-22 0 0 0 0 34-5 10 6 10 7 9 9 6 7 10 9 10 7 10 5 9 5 11 5 10 4 11 6 10 8 9 8 8 8 9 7 11 6 11 5 12 5 12 5 13 6 15 5 14 8 13 9 12 11 11 13 12 16 5 8 6 9 5 9 5 9 5 9 5 9 7 9 6 9 7 10 8 9 8 8 9 9 10 8 10 8 10 8 10 8 9 9 9 10 7 9 6 10 10 17 8 16 8 15 6 12 3 6 1 1 1 2 0 2-1 2 0 2-2 1-1 1-2 1-2 0-2 0-1 0-2-1-1-2z"  fill="#c2e1ff" /><path d="M97-169l7-3 16-8 15-11 9-7 10-8 9-10 11-10 13-11 13-12 15-11 16-11 17-12 18-11 20-12 21-11 23-10 25-9 27-7 28-6 28-3 29-3 29-2 29-2 28-3 28-3 27-4 26-5 24-5 24-7 21-6 21-7 18-6 18-7 15-6 14-7 13-7 10-7 9-7 8-7 11-13 7-12 3-10 0-14-2-14-3-10-3-10-2-11-1-10 0-14-1-10-2-14-1-10 0-12-1-11 1-10 7-9 8-10 0 0 0 0 10 14 4 11 0 11-1 12 0 11 1 11 0 13 0 12-1 12 2 13 3 11 1 12 1 12-1 13-5 13-8 13-13 12-7 7-9 6-11 6-11 6-14 6-14 5-16 6-18 6-19 6-20 7-22 6-23 7-25 5-26 5-27 4-28 4-28 2-29 2-29 3-28 2-29 4-27 5-27 8-24 9-23 10-21 12-19 12-17 12-16 13-14 12-14 13-12 12-11 12-10 11-10 11-10 9-10 8-9 7-9 4-17 7-7 3-2 0-1 0-2 0-1-1-2-1-1-1 0-1-1-2 0-2 1-1 1-2 1-1 1-1z"  fill="#fff" /><path d="M108-162l0 7 1 14 4 13 6 15 8 19 4 10 4 11 4 11 4 12 4 12 4 12 2 14 2 14 2 14 3 14 3 14 3 15 2 15 3 14 2 15 2 15 2 15 1 15 1 16 1 16 1 15 0 15 0 15-1 14-2 15-3 13-3 14-3 13-4 12-3 13-3 13-2 14-2 13-3 14-3 14-3 14-3 14-4 13-3 12-3 12-3 11-3 11-3 10-3 10-3 10-5 19-5 17-4 16-3 15-3 13-2 14-2 12-2 11 0 14 3 11 4 12 4 11 6 8 7 10 7 9 5 9-3 24 0 0 0 0-21-10-6-10-7-9-7-11-6-10-4-13-4-14-2-11 0-12 1-11 2-12 3-13 3-13 4-15 5-14 5-16 5-17 7-19 3-9 3-11 4-10 4-10 3-11 3-11 4-12 3-13 3-14 4-13 2-14 3-14 2-14 3-13 3-14 3-13 3-13 4-12 4-13 3-13 2-14 1-14 0-14 0-15-1-15-1-15-1-16-2-15-2-14-2-15-2-14-3-15-3-14-4-14-4-15-3-15-3-14-2-13-3-12-4-11-4-12-5-11-4-11-4-11-4-10-8-18-7-17-3-18 0-16 1-7 1-2 0-2 2-1 1-1 2-1 2 0 2 0 1 0 2 1 1 2 1 1 1 2 0 2z"  fill="#c2e1ff" /><path d="M108-163l0 5 1 15-2 14-7 13-8 8-10 10-9 8-9 8-9 6-10 8-6 9-4 10-3 9-3 13 0 11-2 15 1 13 1 16-1 13-1 11-1 10 1 13 2 14 3 12 3 11 4 11 7 8 10 5 11 7 11 5 23 26 0 0 0 0-35 3-11-5-9-6-11-6-8-6-9-9-6-10-4-11-3-11-3-14-2-10-2-11-1-12 0-12 2-11 1-13-1-10-1-12 0-11 2-15 1-14 3-14 4-10 4-10 6-11 10-11 8-6 9-6 8-5 8-7 8-7 8-6 9-9 4-11 2-12 0-5 0-2 1-2 1-1 1-2 2-1 2 0 2 0 2 0 1 1 2 1 1 2 1 1 0 2z"  fill="#005bbb" /><path d="M92-162l-1-8-2-18-1-18-3-17-2-17-2-17-2-17 1-19 3-18 4-16 5-16 7-15 7-15 8-16 9-17 6-17 6-20 2-11 3-11 2-11 2-12 3-12 3-12 3-11 2-11 1-19-1-17-4-14-6-10-9-7-9-4-14-3-16 0-19 1-11 1-11 2-11 3-11 3-12 5-12 4-14 5-13 6-13 5-13 6-13 7-11 8-11 9-10 10-9 10-7 11-6 12-6 12-5 13-5 13-5 13-5 13-3 13-4 14-3 14-3 14-4 15-3 14-3 15-2 16-1 15-1 16-1 16-1 16 0 15-12 98 0 0 0 0 1-99 1-15 1-15 0-16 1-16 1-17 2-16 2-15 4-15 3-14 3-15 3-14 3-14 4-14 5-13 5-13 5-13 5-14 6-13 7-13 9-12 9-12 11-10 11-10 12-8 13-8 13-7 14-7 13-6 13-6 12-5 13-6 12-4 12-4 11-2 13-3 11-1 10-1 20 1 17 4 16 8 12 12 8 16 4 19 0 19 0 11-2 10-2 12-2 12-3 11-2 11-2 12-2 12-2 11-2 12-2 11-3 10-3 10-4 11-9 18-7 15-8 15-6 13-5 13-4 15-2 16-2 16 1 16 2 16 2 18 1 18 1 17 0 18 1 9 0 2-1 1-1 2-1 2-2 1-1 0-2 0-2 0-2-1-1-1-2-1-1-2 0-2z"  fill="#fff500" /><path d="M96-156l-7-3-12-11-11-10-11-11-9-11-9-9-8-10-8-9-7-8-9-10-9-10-8-7-8-7-10-5-11-5-12-2-11-1-12-2-14-3-13-4-12-5-11-3-10-4-10-4-10-4-10-5-10-6-9-8-10-9-11-11-10-13-9-13-11-13-13-14-7-7-8-8-8-7-8-8-8-9-8-8-8-9-7-9-7-8-6-9-6-8-12-16-6-9-6-10-6-10-6-10-4-10-4-10-3-11-12-71 0 0 0 0 30 65 6 19 4 9 5 10 6 9 6 9 5 8 7 8 12 17 12 16 7 8 7 8 8 8 8 7 9 7 8 8 8 7 8 7 15 14 13 14 10 13 9 10 10 10 9 7 11 9 11 7 13 5 10 4 11 4 11 4 11 4 11 3 12 1 10 2 12 1 12 2 11 5 9 4 12 9 10 9 9 11 8 10 6 8 7 9 7 9 7 9 8 11 9 10 9 11 10 11 9 10 6 4 1 1 1 2 1 1 0 2 0 2-1 2-1 2-1 1-2 1-2 0-2 0-2 0-1-1z"  fill="#c2e1ff" /><path d="M101-155l-6 2-13 5-11 8-9 10-7 8-7 12-6 9-7 9-10 10-8 10-7 9-6 9-4 13 2 13 3 12 4 10 8 11 8 13 8 14 9 13 10 15 14 14 8 6 8 6 10 5 11 6 11 6 12 7 11 7 11 7 10 7 10 6 9 7 9 7 9 8 8 8 8 8 7 9 6 8 7 10 5 9 6 9 6 8 7 9 6 9 6 9 6 9 6 10 5 9 6 9 5 10 5 10 6 10 6 10 6 9 7 9 7 8 47 57 0 0 0 0-60-45-8-9-8-10-7-10-6-10-6-10-5-10-5-9-5-9-6-9-6-10-5-9-6-9-6-8-7-9-6-9-6-9-6-9-5-9-6-8-7-8-6-8-8-7-8-7-8-7-9-6-9-7-11-6-10-7-11-6-12-6-11-5-11-5-11-6-11-5-11-8-9-7-8-8-7-8-11-14-10-15-8-12-7-9-7-10-5-11-3-10-2-10-1-11 0-12 3-12 5-9 5-9 6-8 9-10 10-9 9-9 8-11 6-9 8-10 8-7 9-8 10-6 12-5 13-2 6-1 2 1 2 0 2 1 1 1 1 2 1 2 0 2 0 1-1 2-1 2-1 1-2 1-2 0z"  fill="#005bbb" /><path d="M92-161l-1-7-2-12-2-11-3-10-6-12-9-10-9-10-10-10-9-11-9-12-7-10-6-9-7-9-7-8-8-8-12-5-12-3-12-2-10-3-11-2-10-4-4-10-8-10 0 0 0 0 12-7 10-2 11 1 10 3 10 4 10 2 11 3 12 4 10 6 9 9 8 10 7 9 6 9 6 10 7 11 7 10 8 10 9 11 7 8 7 9 5 11 4 12 2 12 1 12 1 12 0 6 0 2 0 2-1 2-2 1-1 2-2 0-2 0-2 0-2 0-1-1-1-2-1-2-1-1z"  fill="#005bbb" /><path d="M94-168l5-6 11-14 13-12 11-11 9-10 7-8 8-8 10-9 9-6 8-8 5-9 5-12 9-13 8-8 10-6 13-6 12-6 9-5 11-5 9-6 10-6 10-3 10-3 10-1 17-4 0 0 0 0 3 13-2 11-8 8-10 3-11 3-10 3-9 5-11 6-9 5-11 5-12 5-10 5-9 7-6 11-6 11-8 10-10 9-8 5-10 6-10 8-8 8-10 10-12 11-13 10-11 11-6 7-1 1-2 1-2 0-1 1-2-1-2-1-2-1-1-1-1-2 0-2 0-2 1-2 1-1z"  fill="#fff500" /><path d="M108-166l2 6 6 8 7 9 7 12 7 10 6 10 7 9 8 9 7 8 7 8 7 11 6 10 4 10 3 13 0 11-2 10-5 13-6 11-7 10-6 10-6 10-3 11-4 9-6 9-10 3-11 7 0 0 0 0-6-12 0-10 3-10 5-10 3-9 6-10 6-9 6-9 7-9 5-10 3-12-1-10-4-10-5-10-8-10-7-9-8-10-7-11-6-11-6-11-6-10-6-11-6-12-1-6-1-1 0-2 0-2 1-2 2-1 1-2 2 0 2 0 2 0 2 0 1 1 2 2 1 2z"  fill="#fff500" /><path d="M107-159l-1 5-3 10-2 11-2 15 0 13 2 11 4 11 5 11 7 13 5 11 5 11 4 10 4 10 4 10 6 13 6 11 8 8 12 5 10 2 12 2 10 1 10 1 12 2 11 2 13 2 11 2 11 4 12 3 11 3 9 7 7 20 0 0 0 0-15 1-10 2-10-3-13-4-12-3-13-3-11-2-12-2-11-1-11-2-12-2-13-3-14-4-12-8-8-7-6-9-5-9-6-13-4-10-4-11-4-11-4-9-4-10-5-9-5-10-4-10-3-14-2-10-1-10 1-11 2-11 3-12 3-10 5-12 3-5 1-1 1-2 2-1 1 0 2-1 2 1 2 1 2 1 1 1 1 2 0 2 0 2-1 2z"  fill="#fff" /><path d="M100-171l5 0 13-1 13 2 13 3 13 6 11 6 11 4 12 3 12 2 11-1 12-2 14-2 13-2 11-3 10-3 11-7 12-8 11-8 9-7 7-9 6-10 7-8 5-8 7-10 8-7 2-12 1-11-1-12 9-27 0 0 0 0 22 19 2 11 0 11-1 12-1 11-4 11-7 10-8 7-7 8-7 10-7 9-7 8-9 9-10 7-11 8-9 6-11 6-10 5-13 4-13 3-14 2-13 1-14 3-16 0-14-3-15-4-14-6-11-7-9-5-10-3-10-3-11-1-6 0-2-1-1 0-2-1-1-2-1-1-1-2 0-2 0-2 1-2 1-1 2-1 2-1 2 0z"  fill="#c2e1ff" /><path d="M105-169l5 4 12 7 11 8 11 8 11 9 11 9 10 10 10 11 11 12 10 13 8 14 6 15 5 14 3 13 1 12 0 12-2 12-2 11-4 12-3 11-3 13-6 14-7 14-11 13-12 10-11 10-14 11-16 11-19 8-16 8-16 9-15 12-14 15-8 8-8 8-9 7-9 7-9 6-8 6-9 6-15 11-13 10-11 9-12 10-13 10-14 8-15 6-15 4-15 2-16-1-16-1-51-19 1 0-1 0 61-5 15 1 12 1 11-2 12-4 13-6 12-7 11-8 12-10 14-10 14-10 16-10 8-6 9-7 8-6 8-7 8-7 7-8 7-8 8-8 8-8 9-7 9-6 18-10 16-8 14-8 13-11 12-10 11-10 8-8 6-9 5-11 4-13 3-12 4-11 4-15 2-13-1-13-2-11-3-12-5-12-7-12-9-12-10-12-9-10-8-10-10-8-10-9-10-9-11-9-10-9-5-4-1-2-1-1-1-2 0-2 0-2 1-2 1-1 2-1 2-1 2-1 1 0 2 1 2 1z"  fill="#c2e1ff" /><path d="M98-155l-6-1-12-2-12-2-12-4-12-5-11-6-9-7-9-7-9-7-10-7-10-7-10-8-9-8-11-8-11-12-10-12-10-11-9-12-8-12-7-11-6-12-7-14-7-16-8-17-4-10-4-12-4-12-4-12-4-13-4-15-4-15-3-16-3-16-5-16-5-16-7-15-8-15-10-14-11-14-12-13-14-14-16-16-16-18-18-20-20-22-20-24-21-26-21-25-21-26-19-26-18-28-17-29-15-29-16-30-15-31-14-33-13-33-12-35-10-37-10-38-9-40-6-41-3-40 1-38 3-37 4-35 6-34 6-32 6-30 4-29 28-191 0 0 0 0-26 191-4 30-6 30-6 32-6 33-4 35-3 37-1 38 3 40 6 40 9 40 10 39 10 36 11 35 14 34 14 32 15 31 16 30 15 29 16 29 19 28 19 26 20 26 22 25 21 25 21 24 19 22 18 19 17 18 16 15 16 13 14 13 11 14 11 15 8 15 8 15 7 16 6 17 5 16 5 15 5 14 5 13 5 13 5 12 5 11 4 10 9 19 8 16 8 14 5 12 6 10 7 11 7 10 10 11 9 11 9 10 10 9 10 8 9 8 10 7 10 8 9 8 8 7 8 7 12 9 9 5 11 4 11 3 11 4 6 2 2 0 1 2 2 1 1 2 0 2 0 2 0 2-1 1-2 2-1 1-2 0-2 1-2-1z"  fill="#c2e1ff" /><path d="M105-168l6 5 13 11 12 14 10 16 7 17 6 19 3 18 1 19 1 19 1 19 2 18 3 20 2 11 1 10 2 11 1 10 1 10 0 10-1 19-2 18-3 19-4 18-5 16-6 16-8 15-7 14-7 14-6 12-6 12-5 11-4 10-4 10-2 13 0 14 0 10-1 14-1 14-2 14-3 14-4 13-3 14-4 11-4 11-6 11-31 15 0 0 0 0 7-33 5-11 4-10 3-10 4-14 3-13 3-11 2-12 0-13 1-10 1-10 1-12 2-11 3-12 5-11 6-11 6-12 6-12 8-12 6-14 8-14 6-13 6-15 5-16 3-16 3-18 2-17 0-17-2-20-1-10-2-10-2-10-2-11-2-10-1-10-1-10-1-19-1-18-1-18-2-17-5-15-6-16-8-14-9-12-11-12-5-6-2-1 0-2-1-2 0-2 1-2 1-1 1-2 2-1 1 0 2 0 2 0 2 1 1 1z"  fill="#c2e1ff" /><path d="M108-162l0 7-2 14-4 15-6 16-8 14-8 14-7 14-9 13-10 11-9 10-9 8-8 7-8 6-8 8-9 7-11 8-13 6-13 6-13 5-12 6-11 6-10 10-7 12-6 16-3 10-3 10-2 11-2 10-2 10-1 11-2 19 0 11-1 10-1 11-2 11-2 11-1 12-1 11 0 12 1 12 0 12 1 13 0 13 0 12-1 13 0 12 0 13 1 11 1 11 2 11 3 10 6 18 7 15 7 16 6 15 5 15 3 17 0 16-1 16-2 15-15 58 0 0 0 0-8-53 1-15 2-15 1-13 0-14-3-13-4-14-6-15-7-16-6-19-3-10-2-11-2-11-1-13-1-12 0-13 0-13 0-12 0-12 0-12-1-13-1-12-1-13 0-13 0-12 1-12 2-11 1-11 1-10 1-10 0-11 1-10 1-11 1-11 1-11 2-11 2-10 2-11 2-11 3-11 4-11 5-9 12-15 14-12 14-7 13-6 13-5 11-5 9-6 9-6 9-7 9-7 11-9 8-6 9-8 8-10 9-11 8-13 8-13 7-13 6-13 5-13 3-12 1-6 0-2 1-2 2-1 1-1 2-1 2 0 2 0 2 0 1 1 2 2 1 2 0 1 0 2z"  fill="#fff500" /><path d="M106-157l-5 5-10 11-9 10-10 9-9 8-7 7-9 9-7 8-4 10-2 10-4 13-3 11-4 10-5 11-7 10-9 8-11 6-9 4-9 5-4 10-1 10-4 10-15 14 0 0 0 0-7-10-6-9-1-11 2-11 3-11 5-9 9-9 11-6 10-4 10-4 7-7 5-9 5-10 3-11 4-12 4-13 8-12 9-9 11-9 8-7 9-7 10-8 11-9 10-9 5-4 2-1 2-1 2-1 1 0 2 1 2 1 1 1 1 2 1 2 0 2 0 2-1 2-1 1z"  fill="#fff500" /></svg>