<svg width="1200" height="675" viewBox="-500 -500 1200 675" xmlns="http://www.w3.org/2000/svg"><path d="M-500-500h1200v675h-1200z" fill="#000"/><path d="M108-161l-1 8-3 17-2 17-2 16-1 15-1 14 0 14 0 12 0 12-1 11-1 10-2 10-3 12-4 11-4 11-2 10 3 10 4 10 8 9 7 8 7 12 6 11 6 12 3 11 2 13-1 12-1 14 2 12 3 13 4 11 6 12 4 11 4 12 3 10 4 44 0 0 0 0-30-29-4-12-3-10-5-13-5-9-4-10-3-10-3-10-2-11-1-12 1-11 1-12-2-11-5-9-5-11-6-10-8-9-7-10-5-10-4-11-2-12 1-13 3-11 5-12 5-12 3-11 3-12 1-11 1-11 1-12 1-14 1-15 2-16 3-16 3-17 4-17 2-8 1-2 1-1 1-2 2-1 2 0 2 0 1 0 2 1 2 1 1 1 1 2 0 2 0 2z"  fill="#fca311" /><path d="M96-155l-6-3-12-6-11-5-10-3-12-2-12 1-13 3-12 5-12 6-11 7-8 9-7 7-9 8-9 7-9 5-12 7-10 4-14 4-14 2-13 0-11 0-13 1-13 1-12-1-13-1-13-3-9-3-12-3-13-3-12-2-11 0-13 1-23-13 0 0 0 0 18-18 11-1 10 0 12 0 12 2 13 3 10 3 10 3 12 4 12 1 11 1 10 0 14-2 10 0 11 1 10-1 13-2 10-5 12-7 11-7 9-8 8-8 9-8 9-6 10-5 9-4 10-3 11-3 11-2 12 0 11 1 12 4 11 6 11 6 11 7 6 3 1 1 2 2 0 2 1 2 0 1-1 2 0 2-2 2-1 1-2 0-2 1-2-1-2 0z"  fill="#ffffff" /><path d="M106-168l5 4 10 11 10 10 9 10 8 10 8 11 6 12 5 12 4 12 5 13 4 13 4 10 4 9 4 10 4 14 2 15-2 13-4 13-6 12-9 10-11 9-9 5-9 4-10 3-12 2-13 1-12-1-12-3-10-5-11-3-12-1-14 0-13 0-12 1-12-1-19-17 0 0 0 0 25-14 10 0 11-1 11 1 11 0 12 1 13 2 12 4 13 5 12 2 12-2 12-3 9-4 10-8 6-9 4-11 1-11-2-10-4-13-4-10-4-12-4-13-4-12-4-12-3-10-5-10-5-10-7-9-8-11-9-11-9-11-4-5-1-1-1-2 0-2 0-2 1-2 1-2 1-1 2-1 2 0 2-1 1 1 2 1 2 1z"  fill="#ffffff" /><path d="M97-155l-6-2-11-4-10-4-10-4-12-7-11-7-11-6-12-10-8-11-6-11-2-10 1-10 3-10 4-10 7-10 8-9 7-9 8-8 8-7 9-7 11-5 11-3 10 1 13-2 0 0 0 0 3 13-4 10-8 8-11 2-10 5-8 6-8 7-7 8-8 9-7 9-4 11 4 10 7 10 9 7 11 8 10 7 11 7 9 5 11 5 5 3 2 1 1 1 1 2 1 2 0 2 0 2-1 2-1 1-2 1-1 1-2 0-2 0-2 0z"  fill="#112233" /><path d="M101-171l6 1 14 2 14 3 13 3 13 4 11 5 10 2 14 1 14 2 10 0 11-1-2-11 3-9 1-13 0 0 0 0 5-1 10 3 8 7 3 10 1 11-1 11-5 9-10 8-12 3-10 0-11-1-13-2-10-2-12-2-12-4-11-5-11-5-13-4-12-4-12-3-6-2-2 0-2-1-1-1-1-2-1-2 0-2 0-2 1-2 1-1 2-1 1-1 2-1 2 0z"  fill="#e5e5e5" /><path d="M107-158l-4 5-5 11-5 11-7 11-8 10-9 8-10 6-13 8-11 8-9 9-11 11-8 8-10 6-9 4-14 5-13 5-9 5-10 5-13 7-13 8-13 9-15 11-15 13-8 7-8 9-10 10-9 11-10 12-9 13-10 14-9 15-10 15-9 15-9 15-10 15-11 15-10 15-10 14-10 15-10 15-9 15-7 16-6 16-5 16-3 18-3 18-2 19-1 19 0 20 0 21 2 21 3 21 3 22 4 23 3 26 3 26 4 27 6 27 8 25 9 26 9 25 9 24 8 23 7 23 6 23 5 22 27 148 0 0 0 0-29-147-5-23-6-22-7-23-8-23-9-24-9-26-9-25-8-26-6-27-4-27-3-26-3-25-4-24-4-22-3-21-2-21-1-21-1-20 1-20 1-19 2-19 4-18 5-17 6-16 8-16 9-15 9-16 11-15 10-14 10-15 9-15 10-15 8-16 9-15 8-16 9-16 8-15 8-15 8-13 9-12 9-11 8-11 8-9 8-8 15-13 14-12 15-10 12-8 12-7 12-6 10-5 10-4 12-3 10-5 10-7 10-10 8-8 10-7 9-6 14-6 10-7 11-9 6-9 7-10 7-11 4-5 2-2 1-1 2 0 2-1 2 1 2 0 1 1 2 2 0 2 1 1 0 2-1 2 0 2z"  fill="#fca311" /><path d="M108-164l1 7 3 14 1 16 0 17-1 16 0 16-2 16-2 14-4 14-5 13-4 11-4 12-4 12-4 12-4 12-5 12-4 12-6 11-7 12-7 11-8 10-7 9-6 9-8 12-8 11-6 11-5 12-5 9-4 11-5 11-5 10-6 10-8 9-9 9-10 4-23-7 0 0 0 0 11-21 8-7 7-8 7-9 4-10 5-11 6-11 5-10 7-12 6-9 8-11 6-9 7-9 7-9 8-9 6-10 6-9 5-11 4-11 5-10 4-12 4-12 4-12 5-13 5-12 5-11 4-10 2-13 2-14 1-16 1-16 1-16 1-14-1-13-1-7 0-2 0-2 1-2 2-1 1-1 2-1 2 0 2 0 2 0 1 1 2 2 0 2 1 1z"  fill="#112233" /><path d="M107-159l-2 6-5 14-5 14-5 13-5 15-3 15-4 14-2 14 0 13 0 13 0 13 1 11 2 11 1 10 0 14-2 13-3 12-3 11-4 12-8 12-8 7-12 8-10 5-11 7-10 6-9 7-9 7-11 10-8 6-10 6-10 4-11 3-13 1-11-1-11-1-11 0-13 0-15 0-17-2-16-3-55-19 0 0 0 0 58-7 16 2 14 1 14 0 13-1 14 0 11 0 15 1 10-3 10-5 10-8 11-10 8-6 10-7 9-6 10-6 10-5 9-5 9-8 5-11 4-10 3-12 2-13 0-14-1-11-1-12 0-14 1-14 1-15 3-16 4-15 4-15 6-16 6-14 6-13 6-13 4-7 1-1 1-2 2-1 1 0 2-1 2 1 2 0 2 2 1 1 1 2 0 2 0 2-1 2z"  fill="#ffffff" /><path d="M93-158l-4-6-9-13-8-12-9-13-7-12-8-13-7-12-5-11-4-11-5-10-4-10-4-11-3-10-2-12-2-10-2-11-4-10-9-7-9-7-8-7-7-8-7-11-6-10-6-9-9-18 0 0 0 0 29-5 9 8 8 11 5 9 6 10 7 7 8 7 8 6 7 9 4 11 2 10 1 12 1 12 3 11 4 14 3 10 4 10 4 11 4 10 5 12 7 12 7 13 7 13 7 13 8 12 4 7 1 2 0 2 0 2-1 2-1 1-1 2-1 1-2 0-2 1-2-1-2 0-2-2-1-1z"  fill="#fca311" /><path d="M100-155l-7 1-15 2-18 2-19 2-18 3-15 6-17 8-17 9-8 6-10 6-8 5-9 6-14 13-13 13-10 15-9 16-8 18-4 10-4 10-4 11-4 10-6 11-6 11-6 11-8 12-9 13-9 13-10 13-11 12-11 12-11 13-11 13-10 14-9 14-9 15-6 16-5 16-4 16-2 17-1 16-1 16-2 17-1 16 1 16 1 16 2 15 3 15 3 14 3 15 4 14 5 15 5 14 5 13 6 13 7 12 7 10 7 11 8 10 7 11 8 10 7 10 8 10 7 10 7 9 7 9 6 9 7 9 6 8 6 8 12 14 11 11 12 10 10 7 11 5 9 5 27 22 0 0 0 0-34 0-9-5-10-6-11-8-12-10-12-13-12-14-11-16-6-9-6-9-6-9-7-9-7-10-7-10-7-10-7-10-8-11-7-10-7-11-7-11-7-12-7-13-5-13-6-14-5-14-4-15-4-15-3-15-4-15-2-15-1-16-1-16-1-16 1-17 2-16 1-17 2-16 2-17 4-17 5-17 6-17 9-15 9-15 10-15 10-14 11-13 10-13 10-12 8-13 8-14 8-13 6-11 6-12 6-10 4-10 4-10 4-11 4-10 4-11 4-9 4-10 5-9 5-9 6-9 6-8 7-7 8-8 8-7 8-7 9-6 9-6 9-6 9-6 9-6 10-5 9-4 17-7 10-3 10-2 10-2 20-1 17-1 16 0 8 0 2 0 1 1 2 1 1 1 1 2 1 1 0 2-1 2 0 2-2 1-1 1-2 1-2 0z"  fill="#fca311" /><path d="M95-169l5-4 9-8 11-9 12-11 11-11 12-12 11-10 10-10 6-10 6-11 6-12 6-12 8-11 9-12 12-10 13-10 16-11 10-5 9-4 11-5 12-3 13-2 13-1 13 0 13 0 13 1 13 2 13 2 13 2 12 3 13 4 12 6 12 7 11 9 9 11 8 12 8 13 9 12 9 14 9 15 8 16 8 16 6 17 6 16 6 18 4 17 3 17 3 17 3 16 2 15 2 14 2 15 1 13 0 13 1 13 0 12 0 11 0 11 0 11 0 11 0 11 1 12 0 12 0 13-1 13-1 15-3 15-4 16-3 16-6 18-7 19-8 21-7 21-9 24-10 24-12 26-13 24-88 167 0 0 0 0 86-168 12-24 11-26 10-25 8-23 7-22 6-21 5-19 3-18 3-17 2-15 2-14 1-14 0-13 0-13 0-12 0-12 0-11 0-11 1-11 0-11 1-11 1-12 0-12 1-13-1-13-1-15-1-14-1-15-3-16-2-16-4-17-4-17-6-17-6-16-7-16-8-15-9-15-10-14-10-13-9-12-9-12-8-11-7-9-9-7-10-7-11-4-11-3-12-3-12-2-12-2-12-1-13 0-12 1-12 0-11 1-11 3-9 3-9 4-17 10-14 10-12 9-9 9-8 8-7 10-6 11-6 11-7 12-10 13-11 11-11 10-12 11-13 12-13 11-12 7-10 8-5 3-2 1-2 0-2 0-2 0-1-1-2-1-1-2-1-1 0-2 0-2 1-2 1-2 1-1z"  fill="#ffffff" /><path d="M103-155l-8 3-14 8-15 10-18 10-9 5-9 4-18 8-19 7-17 4-16 4-16 2-15-1-15-6-13-9-11-10-10-11-8-9-7-7-9-7-9-6-9-7-9-9-7-10-4-10-6-13-6-8-10-7-13-6-9-4-10-5-11-6-11-8-10-11-7-12-5-11-5-13-3-14-2-15-1-16-2-14-3-12-4-13-6-11-7-13-8-15-8-16-22-70 0 0 0 0 44 60 8 15 8 13 7 14 8 14 5 14 4 16 2 16 2 15 1 12 3 10 4 11 7 15 8 9 11 9 10 4 9 4 10 5 11 5 10 8 9 9 7 10 4 10 5 12 6 9 11 9 9 7 10 8 9 10 8 10 8 9 9 8 9 7 12 5 12 1 14-2 17-4 16-4 17-6 9-5 18-8 16-8 16-10 17-8 8-3 2 0 2 0 2 0 1 1 2 1 1 2 1 2 0 1 0 2-1 2-1 2-2 1-1 1z"  fill="#e5e5e5" /><path d="M93-165l1-6 3-10 3-10 2-14 0-15-2-15-5-11-9-10-9-8-8-7-10-6-9-7-10-5-10-5-10-5-12 1-9 5-11 7-11 8-10 6-10 10-7 10-5 12-4 12-5 14-4 14-3 13-3 11-4 14-4 14-1 14 1 14-3 47 0 0 0 0-25-37-1-13-1-13 1-12 2-11 3-11 2-10 4-13 3-10 3-11 3-9 4-14 3-9 4-10 5-10 7-11 9-11 10-8 9-6 8-6 12-8 9-5 11-5 12-2 13 1 14 5 12 6 11 7 11 7 9 7 10 9 10 9 7 9 7 10 6 12 3 14 0 13-1 11-2 12-3 11-5 10-4 10-2 5-1 2-2 1-1 1-2 1-2 0-2 0-2 0-1-2-1-1-1-2-1-2 0-1 1-2z"  fill="#ffffff" /><path d="M92-161l-2-6-5-11-7-11-7-11-8-10-9-10-8-9-8-7-8-8-11-10-6-8-8-12-8-11-5-9-7-12-6-12-6-12-4-9-6-11-7-9-9-5-12-4-11-3-11-2-11-6-10-7-9-10-8-8-8-9-8-11-6-10-6-9-3-30 0 0 0 0 26 7 6 10 5 9 6 9 8 10 8 8 9 9 10 7 9 3 11 3 13 4 10 4 11 8 7 8 6 10 4 9 5 10 4 11 6 11 5 11 7 12 5 9 7 11 6 9 9 10 7 7 9 9 9 11 8 11 8 12 7 12 7 14 5 14 1 7 0 2 0 1-1 2-1 2-1 1-2 1-2 1-2 0-2-1-2-1-1-1-1-2-1-2z"  fill="#e5e5e5" /><path d="M93-159l-4-6-8-14-6-15-4-15-3-15-2-15-1-14 0-12 0-14 1-11 1-13 0-12 2-13 3-14 2-12 0-11-5-12-10-6-15-4-13-3-14-2-16-3-16-2-19-2-10-1-11-2-11-3-10-4-11-4-10-5-10-6-10-6-10-7-10-8-10-9-11-9-10-10-9-11-8-12-8-13-8-14-7-13-8-14-8-14-6-14-6-16-5-15-4-17-3-18-3-19-2-20-3-21-3-23-3-25-3-25-2-26-4-26-4-26-3-28-3-29-5-29-5-30-6-30-6-32-6-33-4-33-5-32-32-208 0 0 0 0 34 208 5 32 4 33 6 32 6 32 6 31 5 30 5 29 3 29 4 28 4 26 3 26 3 25 3 26 4 24 4 23 4 21 4 20 4 18 4 17 4 16 6 16 5 14 7 14 7 13 9 13 8 13 8 13 8 12 9 10 8 10 10 9 10 8 10 8 10 6 9 6 10 6 18 9 10 3 18 5 19 2 19 1 18 2 16 2 16 2 13 3 13 3 13 5 12 9 8 13 4 16-1 16-2 14-2 13-2 11-2 13-1 11-1 12-1 11 0 13 0 12 1 13 2 14 3 14 4 13 6 14 3 7 1 2 0 1 0 2-1 2-1 2-1 1-2 1-2 1-2 0-2-1-1-1-2-1-1-2z"  fill="#e5e5e5" /><path d="M95-169l4-4 9-9 9-8 7-7 8-7 8-7 10-6 10-5 9-3 12-6 11-6 8-8 8-12 6-9 6-10 6-10 7-11 6-10 7-13 6-12 5-9 8-12 6-9 8-10 8-8 9-8 8-8 8-7 9-6 9-6 9-4 10-2 11 7 5 19 0 0 0 0-17 6-9 5-9 7-8 6-9 8-9 7-7 7-6 9-7 10-7 11-6 12-6 10-6 9-6 10-6 11-7 11-6 10-7 10-7 8-8 9-10 7-10 5-10 4-13 4-11 5-12 7-8 6-8 6-10 7-10 8-5 4-1 1-2 0-2 1-2-1-2 0-1-2-2-1-1-2 0-2 0-2 0-1 1-2 2-2z"  fill="#fca311" /><path d="M99-170l7-2 15-2 16-3 19-3 10-1 11-1 12-1 11 0 13 0 12 0 13 1 12 0 13 0 12-1 12 0 11-1 10-1 20-3 20-4 10-2 11-1 11-2 11-3 11-3 11-4 11-6 11-6 11-8 12-9 11-8 10-10 10-9 10-10 9-10 8-10 8-10 6-10 7-11 6-11 6-12 6-12 6-13 5-13 5-14 6-13 5-13 4-13 4-12 3-13 3-12 2-13 2-12 3-12 2-12 2-11 2-11 2-11 2-11 2-11 2-11 2-11 2-11 2-11 3-10 2-10 5-19 4-16 2-15 3-15 3-14 4-14 6-14 8-12 10-11 10-9 10-9 11-9 47-21 0 0 0 0-36 44-11 9-10 9-8 7-8 8-5 9-5 12-4 12-3 15-4 15-4 16-5 17-5 19-3 10-2 10-2 11-2 11-3 11-2 11-2 11-3 11-2 11-3 11-2 12-3 11-2 13-3 13-3 13-4 12-3 13-5 13-5 14-5 13-6 14-5 13-5 13-6 13-6 13-7 11-7 11-7 11-9 11-8 10-10 11-9 9-10 10-11 11-11 9-12 10-12 8-11 8-12 7-12 5-13 4-12 3-11 2-11 2-20 2-10 2-11 2-10 1-11 1-12 1-11 0-13 1-13 0-13 0-12 0-12 0-12 1-11 0-11 1-10 1-10 2-19 2-17 2-15 1-7 0-2 0-2 0-1-1-2-1-1-2-1-1 0-2 0-2 1-2 1-1 1-2 2-1 2 0z"  fill="#ffffff" /><path d="M97-170l6-3 11-7 9-7 8-13 4-13 4-13 2-13 2-14 2-10 3-11 4-11 6-11 6-10 6-9 6-9 6-9 6-11 8-11 8-11 11-11 11-9 9-9 10-8 12-8 13-6 12-7 12-7 14-11 13-12 13-12 11-12 13-11 15-9 13-7 13-5 11-4 13-4 11-2 11-1 11 0 11 2 11 3 11 5 11 7 8 10 5 38 0 0 0 0-31-27-9-6-10-4-13-2-12 1-14 2-11 3-11 4-12 4-11 6-11 9-12 10-12 13-13 13-15 14-14 11-14 8-12 6-10 6-9 6-9 9-9 8-9 9-9 10-6 8-6 10-7 11-7 11-9 12-7 12-6 13-4 14-3 13-3 14-3 10-3 10-5 11-7 11-9 11-12 8-14 7-7 2-2 0-2 0-2 0-1-1-2-1-1-2-1-1 0-2 0-2 1-2 1-2 1-1 2-1z"  fill="#e5e5e5" /><path d="M101-170l5 0 13-2 11-2 10-4 11-6 11-7 13-6 13-6 11-6 10-6 7-7 7-9 7-11 7-8 10-10 8-7 8-7 8-7 8-6 7-9 4-10 6-11 6-9 6-10 7-12 8-12 9-11 8-9 7-7 10-8 24 0 0 0 0 0-9 27-8 7-7 8-9 10-7 11-6 12-8 12-6 9-5 11-6 12-9 10-9 7-10 8-8 6-8 7-10 9-7 10-6 9-10 11-9 7-9 5-13 6-13 6-11 4-12 6-13 6-10 3-14 3-14 0-10-1-6-1-1 0-2-1-2-1-1-2-1-1 0-2 0-2 1-2 1-1 1-2 2-1 2 0 1 0z"  fill="#ffffff" /><path d="M94-157l-4-4-9-8-11-7-12-7-14-9-14-8-14-8-16-7-9-4-9-4-10-5-9-6-9-6-9-8-8-8-8-7-7-8-8-9-7-8-6-8-7-9-5-8-5-8-8-18-5-17-2-16 0-16 1-15 2-14 2-12 3-10 6-13 5-10 7-8 11-7 11-2 12 1 11 6 8 7 5 11-3 10-12 12 0 0 0 0-6-11-9-5-11-1-6 9-5 9-5 13-2 11-2 13-1 14 0 14 2 13 4 14 8 15 11 15 6 8 7 8 7 8 7 7 8 8 7 7 15 11 18 9 18 8 17 8 15 9 14 9 13 8 13 9 12 9 9 10 4 5 1 1 1 2 0 2 0 2-1 2-1 2-1 1-2 1-2 0-2 0-2 0-1-1-2-1z"  fill="#14213d" /><path d="M96-156l-7-3-11-7-10-6-10-4-13-6-12-5-9-6-10-5-9-6-9-6-7-8-8-6-8-6-8-7-8-7-11-8-8-8-6-10-4-11-2-10 0-10-2-11 1-11 14-18 0 0 0 0 17 18 1 10 1 12 1 12 4 9 8 7 9 7 7 8 8 7 9 7 8 9 8 8 8 6 10 7 10 8 11 6 9 5 10 6 11 7 10 9 6 4 1 1 1 2 1 1 0 2 0 2-1 2-1 2-1 1-2 1-2 0-2 0-2 0-1-1z"  fill="#fca311" /><path d="M95-169l4-4 9-9 10-10 8-9 8-12 7-11 7-10 6-10 5-9 6-10 6-9 6-8 7-9 8-11 6-12 3-10 1-13 0-10 0-13-1-11-3-11-3-11-5-10-5-10-5-9-4-10-4-14-4-14-4-12-2-10-2-12-1-10-2-12-2-12 0-13 1-13 1-11 0-13-3-10-6-11-7-9-12-8-30-34 0 0 0 0 45 10 12 7 10 10 8 10 4 10 4 11 3 12 0 12 0 11-1 11 0 15 1 11 2 11 2 16 3 13 3 14 3 12 4 12 5 12 5 10 5 11 5 13 5 14 2 15 0 13 1 11 0 14-3 13-4 12-6 12-6 11-7 8-9 10-9 11-6 9-6 10-7 10-8 11-8 10-9 12-10 11-11 9-11 8-5 4-1 1-2 0-2 1-2-1-2 0-1-2-2-1-1-2 0-2 0-2 1-2 1-1 1-2z"  fill="#ffffff" /><path d="M102-170l8 2 16 5 15 5 14 5 14 5 15 3 18 2 10 1 11 1 12 2 12 2 14 3 13 4 14 3 14 3 14 3 15 2 16 3 15 3 15 4 15 5 14 6 14 7 13 9 12 10 11 11 12 10 13 10 13 11 13 9 15 10 16 11 17 10 18 10 20 7 21 4 21 3 21 1 22-1 21-1 23-3 23-4 24-7 24-9 23-12 24-14 25-17 27-19 29-22 32-25 37-30 43-32 47-38 48-44 51-46 50-51 50-58 52-62 51-67 51-73 50-78 45-85 44-94 43-100 37-105 35-107 28-107 22-110 16-113 9-118-4-121-16-122-33-121-49-119-58-121-59-127-65-127-71-126-81-123-86-121-98-114-111-100-120-93-130-95-136-99-149-94-162-88-178-75-1258-492 0 0 0 0 1259 490 178 75 162 88 149 95 137 98 129 96 121 92 110 101 99 114 86 120 80 124 71 126 66 128 59 126 57 122 50 119 33 121 16 122 4 121-9 118-16 113-22 110-28 107-35 108-38 105-42 100-44 94-45 85-51 79-51 72-51 68-52 62-49 57-51 51-51 46-48 45-47 38-42 32-37 29-33 26-29 22-27 19-25 17-24 14-24 12-23 9-24 7-24 4-23 3-21 2-22 1-21-1-22-2-21-5-21-6-19-9-18-9-16-10-16-9-14-10-14-10-13-10-12-10-11-10-12-9-12-9-12-7-14-5-14-4-14-3-15-3-15-2-16-2-15-2-15-2-14-2-13-3-12-2-12-1-12-1-11-1-10-1-20-2-18-4-15-6-14-6-14-6-14-6-7-3-2 0-2-2-1-1-1-2 0-2 0-2 1-2 0-1 2-2 1-1 2 0 2 0 2 0z"  fill="#e5e5e5" /><path d="M94-158l-4-4-7-10-5-10-4-10-1-11-1-10 1-11 1-14 3-14 3-11 2-12-1-11-5-12-8-7-11-9-15-6-19-3-11 0-12 0-13 1-15 2-16 2-17 3-18 4-19 5-20 7-20 7-20 8-20 8-20 8-19 9-18 9-17 10-16 12-15 11-13 12-12 12-11 13-9 14-8 15-7 15-5 16-6 16-6 17-7 16-8 17-9 16-10 16-11 16-11 16-13 15-12 14-14 14-14 13-15 12-15 11-14 12-13 11-13 10-13 10-12 9-12 9-13 7-13 6-12 6-13 5-13 4-12 4-12 4-11 4-74 15 0 0 0 0 70-28 11-3 12-4 13-3 12-4 13-4 12-4 13-6 12-6 13-8 13-8 13-9 13-10 14-11 14-11 14-11 15-12 14-13 14-13 12-14 12-16 11-16 10-16 10-15 8-17 8-16 7-17 5-16 6-17 6-15 7-16 9-15 10-14 12-13 13-12 13-11 16-11 16-12 17-10 18-10 19-9 20-8 19-9 20-9 20-8 20-9 18-8 18-6 17-5 16-4 15-4 14-3 14-1 13-1 12 0 13 2 11 4 10 4 16 10 11 12 8 13 3 13 0 12-1 10-4 14-3 11-3 11-2 13-1 13 0 11 4 12 4 9 3 5 1 1 1 2 0 2 0 2-1 2-1 1-2 1-2 1-2 0-2 0-1 0-2-1-1-2z"  fill="#112233" /><path d="M101-156l-8 1-15 5-17 11-10 7-10 8-9 10-8 11-6 13-6 15-6 17-5 19-4 20-4 21-5 21-5 21-6 21-6 21-7 22-7 22-6 23-5 23-5 23-6 24-7 25-7 25-8 24-7 24-6 24-6 25-4 25-1 27 2 28 1 31 2 33 4 35 3 38 2 42 1 44-2 45-4 44-3 44-3 43-3 41-2 40 1 39 1 37 3 36 3 34 4 33 4 33 6 31 6 31 6 31 6 30 5 29 2 29 3 29 3 29 5 29 5 29 5 30 6 30 6 30 6 31 7 34 8 35 9 35 12 36 12 35 12 35 14 35 14 35 16 34 15 33 14 33 13 33 11 33 10 34 9 33 10 33 10 32 11 33 8 33 8 33 6 35 5 35 5 35 5 36 5 34 6 33 5 32 6 31 6 32 41 209 0 0 0 0-43-208-6-32-6-32-5-32-6-32-5-35-5-35-5-36-5-35-6-34-8-34-8-33-11-33-10-32-10-32-9-34-10-33-11-33-13-33-14-33-15-34-16-34-14-34-13-35-13-35-12-36-12-35-9-36-8-35-7-33-6-32-6-30-6-30-5-30-5-29-5-29-3-29-3-29-3-29-4-29-6-30-6-30-6-31-6-32-4-32-4-34-3-34-3-36-1-37-1-39 2-40 3-42 3-43 3-43 4-44 2-45-1-44-2-42-3-38-4-35-2-33-2-31-1-28 1-27 4-26 6-25 6-24 7-24 8-24 7-25 7-24 5-24 6-24 5-23 6-23 6-22 7-21 6-21 5-22 5-20 3-22 3-21 3-21 3-20 4-18 6-17 6-15 9-14 10-11 10-10 11-7 10-7 11-5 19-4 7 0 2 0 1 0 2 1 1 1 1 1 1 2 0 2-1 1 0 2-1 1-1 1-2 1-1 0z"  fill="#112233" /><path d="M95-157l-6-4-11-9-9-10-9-9-9-9-9-10-8-8-9-7-10-7-11-8-10-9-8-9-8-9-11-9-9-6-11-8-10-5-11-3-11-1-13-1-10 0-11 1-15 5-11 5-11 7-8 7-6 10-4 12-1 13 3 14 6 13 8 10 10 9 11 9 11 8 11 7 10 5 11 4 12 5 12 4 12 5 11 4 13 6 43 45 0 0 0 0-54-21-11-5-13-5-11-5-11-5-12-4-13-5-14-8-10-8-11-8-13-10-12-11-12-15-8-17-3-10-2-10 0-11 4-19 8-16 11-14 14-11 13-7 14-6 15-4 13-1 11 0 11 0 15 2 14 4 11 4 10 5 8 7 8 6 9 7 8 9 8 8 8 9 7 7 10 8 11 9 11 9 9 9 7 10 9 10 7 10 8 9 10 11 5 5 1 1 1 2 0 2 0 2 0 2-2 1-1 2-2 1-1 0-2 1-2-1-2 0-2-2z"  fill="#112233" /><path d="M95-156l-5-4-9-8-8-8-9-9-7-9-7-9-7-8-9-11-8-6-12-7-11-3-12 0-11 3-11 4-11 5-10 4-13 6-13 7-8 6-10 10-6 10-5 12-6 13-6 14-5 10-5 10-7 13-3 13-1 14 4 15 5 10 5 10 7 9 8 8 9 7 8 5 11 4 13 5 55 34 0 0 0 0-63-9-15-5-13-5-13-8-11-9-10-10-8-11-8-13-6-13-4-14-2-15 1-15 3-12 4-12 6-10 7-13 4-10 6-13 5-13 5-10 7-10 8-10 9-8 10-8 11-7 10-5 15-5 12-5 13-5 11-3 11-1 11 0 12 2 12 4 12 7 10 8 9 9 7 9 5 8 7 10 6 9 7 9 7 9 6 7 4 4 2 2 0 1 1 2 0 2 0 2-1 2-1 1-2 1-2 1-2 0-2 0-1 0-2-1z"  fill="#e5e5e5" /><path d="M107-166l4 6 6 12 6 12 4 13 6 13 6 16 6 18 4 17 4 15 4 15 5 14 6 12 6 10 8 8 10 6 11 7 12 7 14 7 9 5 18 9 9 5 10 3 11 4 11 3 11 3 10 3 10 2 19 4 19 4 18 5 18 6 17 9 15 10 15 9 14 7 14 7 12 5 11 4 11 3 10 3 13 3 14 4 13 6 8 5 9 8 7 9 9 11 9 10 7 8 14 35 0 0 0 0-35-16-7-7-7-8-6-8-9-12-7-8-11-7-10-4-13-4-10-3-11-4-12-4-13-6-13-7-14-7-16-9-15-10-14-9-14-7-17-5-18-5-19-4-9-2-10-2-11-3-11-3-12-3-11-2-12-4-11-4-10-5-18-8-15-8-13-7-12-8-12-9-11-11-8-14-6-14-6-15-4-16-4-17-3-15-5-16-6-15-5-15-4-13-4-11-5-13-2-6-1-2 0-2 0-2 1-1 1-2 2-1 1-1 2 0 2 0 2 0 2 1 1 1 1 2z"  fill="#ffffff" /><path d="M98-170l6-2 13-4 14-4 13-3 14-3 15-3 15-4 17-4 19-3 11 1 10 1 11 2 12 3 11 3 11 3 11 2 11 2 10 2 11 2 11 2 11 2 11 2 11 2 11 1 12 2 12 1 12 0 13 0 13 1 14 1 15 2 15 3 15 5 15 6 14 6 14 5 13 6 13 4 13 4 12 3 13 1 11 1 12-1 12-2 12-2 12-2 13-3 13-2 14-2 14-3 16-3 16-3 17-3 16-4 15-6 14-7 13-8 12-8 12-9 11-8 11-8 11-8 11-8 11-8 10-9 11-9 9-9 10-11 9-11 9-13 8-13 7-14 4-14 3-15 2-16 0-16-2-16-3-15-4-15-5-14-6-13-6-12-7-12-6-11-6-12-6-11-32-77 0 0 0 0 44 71 5 12 5 11 6 12 6 12 7 13 5 14 5 14 4 16 3 16 2 17 0 17-1 17-3 16-5 16-6 15-8 14-9 13-10 13-10 11-10 10-11 9-11 9-11 8-12 7-11 8-11 7-11 8-12 9-13 8-14 9-15 7-16 6-16 6-17 4-16 4-15 3-15 4-14 3-13 2-12 2-13 3-13 2-13 1-13 1-13-2-13-2-13-3-13-4-13-5-14-5-14-5-14-6-14-5-14-4-14-3-14-1-13 0-13 0-14 1-13-1-12 0-12-2-12-1-11-2-12-2-11-1-10-2-11-2-11-2-11-2-11-2-12-3-10-2-10-2-11-1-17-1-16 2-16 4-17 4-15 3-14 2-13 2-14 2-13 2-6 1-2 1-2-1-2 0-1-1-2-2 0-2-1-1 0-2 0-2 1-2 2-1 1-2 2 0z"  fill="#14213d" /><path d="M108-163l1 7 2 16 3 16 4 16 5 17 4 18 3 19 4 18 3 18 3 17 1 16-1 14-4 14-8 12-11 8-11 7-13 5-14 4-15 3-13 4-13 4-15 5-17 4-18 2-21 1-10 1-12 0-12-1-12 1-11 1-11 2-12 1-12 2-11 3-11 2-11 3-11 3-11 3-12 1-13 1-13-2-13-4-12-7-12-9-11-11-10-12-9-13-7-13-7-14-7-13-6-13-6-13-6-12-7-12-6-11-7-10-8-9-8-9-8-8-9-6-9-6-11-4-11-5-13-4-14-5-15-5-15-4-16-3-16-3-17-2-112-7 0 0 0 0 113-3 17 2 17 2 17 2 15 4 16 3 15 5 13 4 12 5 12 5 11 7 10 8 9 9 8 9 8 11 7 11 7 11 6 12 6 13 6 12 7 13 6 13 7 13 8 12 8 12 10 10 9 9 11 7 9 5 11 4 10 1 10 0 11-1 11-3 10-3 11-3 12-3 11-2 12-3 12-2 13-3 12-1 13-2 11 0 11-1 11-1 19-2 16-2 14-4 14-5 15-5 15-4 13-3 12-3 10-3 9-5 9-6 5-11 2-11-1-13-2-16-3-18-3-19-3-18-4-17-4-17-4-17-3-18 0-17 0-7 0-2 1-2 1-1 1-2 2-1 2 0 2 0 1 0 2 1 2 1 1 2 1 1 0 2z"  fill="#112233" /><path d="M101-155l-7 2-16 2-16 1-15 0-15 1-15 1-17 2-17 1-19-2-17-3-18-5-17-5-17-4-17-5-17-3-16-4-15-1-14-2-13-2-12-2-13-4-13-4-9-3-10-3-12-1-11 2-11 1-13-1-10-4-11-7-8-6-10-19 0 0 0 0 14-7 13-1 9 7 8 6 11 2 11-1 12-1 12 2 10 4 11 5 10 4 12 4 14 4 12 2 14 2 16 3 17 3 17 4 18 4 17 5 17 5 16 4 16 3 16 1 16 0 16-1 16-1 15 0 16 0 15 0 15 0 7 0 2 0 2 0 2 1 1 1 1 2 1 2 0 2 0 1-1 2-1 2-1 1-2 1-2 1z"  fill="#fca311" /><path d="M92-162l-1-6-2-11-3-13-4-15-2-16-3-14-4-12-6-12-6-11-5-12-5-12-5-12-5-14-3-15-1-14-1-13 1-13 1-13 2-12 2-11 3-14 4-12 5-11 6-10 8-10 8-10 8-11 5-12 3-10 1-10 1-12 1-13 1-13 1-14 0-15-2-15-4-15-6-13-9-11-11-11-12-11-14-10-45-48 0 0 0 0 67 35 14 11 13 12 13 13 10 17 7 17 4 19 2 17 0 16 0 15-1 12-1 13 0 14-3 14-4 12-5 12-8 11-9 11-8 8-8 10-5 12-3 11-3 14-2 12-1 11-1 10 0 12 1 12 2 12 4 12 5 12 4 12 5 11 5 11 6 14 4 16 3 16 2 14 2 15 3 14 0 13 0 6 0 2-1 2-1 2-1 1-2 1-2 0-2 1-1-1-2-1-2-1-1-1-1-2 0-2z"  fill="#e5e5e5" /><path d="M103-170l5 2 11 3 10 2 10 0 15-3 10-4 10-5 10-5 10-6 10-5 8-6 12-9 12-8 10-8 9-8 8-10 9-8 11-9 12-9 12-10 11-10 9-11 10-13 12-13 13-12 13-10 14-10 14-11 14-11 12-12 10-12 6-12 4-13 2-15 3-16 1-15-1-16-1-15-1-16-1-16-2-15-2-14-1-13 0-12 14-39 0 0 0 0 11 39 0 11 0 12 1 14 2 15 1 16 1 16 1 16 1 17-1 18-3 17-3 17-5 17-9 16-12 14-13 13-14 13-15 11-13 10-13 10-11 10-10 11-9 13-11 14-12 12-12 11-12 9-9 8-10 11-7 7-8 7-11 9-12 7-12 8-10 6-10 6-10 6-11 5-12 6-12 4-14 4-15 0-13-2-12-4-10-5-5-2-2-1-1-1-1-2-1-2 0-2 0-2 1-1 1-2 2-1 1-1 2-1 2 0 2 1z"  fill="#112233" /><path d="M94-168l4-5 8-10 7-10 7-10 6-10 6-10 7-10 8-9 9-7 11-8 12-6 10-3 10-2 15 0 15 1 10 2 10 5 11 7 12 7 10 5 13 5 10 2 12 1 14 0 13 1 13 1 13 0 12 0 12 0 10 0 13-2 13-4 11-4 9-5 10-7 7-9 16-13 0 0 0 0 9 15 1 11-5 9-8 8-9 6-11 7-12 6-10 3-10 3-12 2-12 1-11 0-11 0-12 0-14 0-13-1-13 0-14 0-14-1-14-2-14-4-11-6-10-5-12-8-9-6-11-3-11-1-11 1-13 3-9 4-9 6-10 9-7 8-7 9-7 10-8 10-9 10-9 9-5 5-1 1-2 1-2 0-2 0-2 0-2-1-1-1-1-2-1-2 0-2 0-1 1-2 1-2z"  fill="#14213d" /><path d="M94-158l-4-4-8-8-11-7-11-5-12-5-11-4-10-5-10-3-11-3-10-5-7-7-6-10-4-10-3-12-1-11-6-9-7-8-5-10 3-9 9-15 0 0 0 0 11 9 9 7 7 8 6 8 3 11 1 10 1 11 3 10 7 7 11 4 10 4 9 5 11 6 11 6 9 5 9 6 9 9 7 10 3 5 1 1 1 2 0 2 0 2-1 2-2 1-1 1-2 1-2 1-2-1-1 0-2-1-1-2z"  fill="#112233" /><path d="M93-162l-1-8-1-16 1-19 0-11 1-11 1-11 1-13 1-13 2-13 2-13 0-12 1-12 0-11 1-11 1-11 2-11 3-11 3-10 4-10 4-10 4-10 4-11 4-11 4-11 3-11 2-12 2-12 1-13 1-12 1-13-1-12-1-12-3-12-5-11-6-12-7-11-9-13-11-12-12-12-14-12-15-11-16-10-18-8-20-8-21-9-20-10-22-8-23-9-23-9-23-9-21-10-21-9-21-11-22-11-22-10-22-10-22-10-22-10-21-10-21-11-21-11-20-12-19-12-18-13-18-13-17-15-16-14-17-15-17-15-18-15-18-16-19-15-19-14-21-14-21-15-21-14-23-14-22-15-22-16-20-19-18-20-15-22-11-23-8-24-5-25-4-24-2-24-1-25-2-24-1-25 0-24 1-23 0-23 3-146 0 0 0 0-1 146 0 23-1 23 0 24 1 25 2 24 1 25 2 24 4 24 5 24 8 24 11 23 14 22 18 20 20 18 22 17 22 14 23 14 22 15 20 14 21 14 20 14 18 16 19 16 18 15 17 15 16 14 16 15 17 14 18 13 18 13 19 12 20 12 21 11 21 11 21 10 22 10 22 10 22 10 22 10 22 11 21 11 21 9 21 9 22 10 24 9 23 8 22 8 21 9 21 9 20 7 19 8 18 9 16 10 15 11 14 12 12 12 11 13 8 12 7 13 5 13 4 14 2 13 1 14 0 13-1 13-1 13-2 13-3 13-3 12-3 12-4 11-4 11-4 11-4 9-7 19-5 19-2 10 0 10-1 12-1 12 0 13-1 13-1 13-1 13-1 12 0 11-1 11-1 11-1 18-1 16-1 7 0 2 0 2-1 1-2 1-1 1-2 1-2 0-2 0-1-1-2-1-1-2 0-2-1-1z"  fill="#14213d" /><path d="M98-170l6-2 12-4 12-2 12-2 12 0 12 0 10 0 12-1 11-1 12 0 12-2 14 0 15 0 15 2 14 4 13 6 12 9 8 9 7 7 8 9 9 6 10 0 11-2 6-8 3-12 0-10-1-12 1-12 0-10 19-25 0 0 0 0 13 21 0 11 0 12 0 12 0 12-2 12-3 11-5 10-7 9-10 6-10 3-12 1-12 0-13-3-12-7-9-10-8-10-8-10-11-8-10-4-12-3-12-1-13 1-12 0-13 1-11 0-12 1-13 0-12-1-15-2-10 0-11 2-12 1-6 1-2 0-2 0-2 0-1-1-2-2 0-2-1-1 0-2 0-2 1-2 2-1 1-2 2 0z"  fill="#ffffff" /><path d="M102-155l-6 2-12 4-12 5-11 5-10 6-7 7-6 11-2 10 1 13 3 10 6 11 8 8 10 5 11 5 9 4 10 2-9 7-5-9-6-11-7-31 0 0 0 0 28 3 7 10 5 10 5 9 5 10 1 11-3 10-9 9-10 4-11-2-10-3-11-4-9-5-11-6-10-8-7-7-7-11-5-13-3-13-2-11 1-11 3-12 6-11 8-10 11-9 13-7 14-5 13-4 13-2 6-1 2-1 2 1 2 0 1 1 2 2 0 2 1 2 0 1 0 2-1 2-2 2-1 1-2 0z"  fill="#ffffff" /><path d="M106-168l5 4 8 10 8 11 7 12 7 11 8 11 9 13 10 13 12 12 7 7 7 7 8 7 8 7 8 7 9 7 8 7 9 6 8 6 15 12 14 10 13 9 12 10 11 9 9 9 8 9 8 10 7 8 10 9 10 6 11 3 14 2 11 1 10 0 14 0 11-4 9-9 7-9 8-11 6-12 6-12 6-13 5-12 4-13 3-15 3-18 1-19 1-11 0-11 0-12-2-10-2-12-10-83 0 0 0 0 29 79 3 13 2 12 1 12 1 12 0 11 0 11 0 10-2 20-4 18-4 14-5 14-6 14-6 13-8 14-8 13-9 12-11 11-13 7-13 3-13 1-11-1-10 0-12-1-12-2-11-4-12-5-9-7-8-9-8-9-7-9-6-9-8-8-9-9-9-9-12-10-13-10-14-11-8-6-8-6-9-7-9-6-8-7-9-7-9-7-8-7-9-7-7-7-14-15-10-14-9-12-8-13-7-12-6-11-6-11-6-9-4-5-1-2-1-2 0-2 0-1 1-2 1-2 1-1 2-1 2-1 2 0 2 1 2 1 1 1z"  fill="#fca311" /><path d="M98-155l-7-1-15-4-15-5-15-8-14-9-13-10-11-12-9-11-8-13-6-14-7-14-4-14-4-14-3-15-2-14-1-15 0-14 2-15 3-15 5-14 5-13 3-11 1-11 0-10-1-12-2-14-2-13-3-13-3-13-6-12-8-12-10-14-10-13-12-13-13-16-14-13-16-14-9-6-10-6-11-7-13-7-13-5-14-6-16-6-17-8-17-10-18-11-19-11-20-11-20-10-21-9-20-8-20-8-20-7-20-6-20-5-20-4-19-5-127-32 0 0 0 0 127 30 19 4 21 5 20 5 20 6 20 7 20 7 21 8 21 9 20 9 21 10 19 10 19 9 18 8 17 6 16 5 15 4 14 5 14 6 12 6 13 6 10 7 9 7 9 7 8 7 8 7 13 15 13 14 12 14 10 13 11 15 7 16 5 16 2 14 2 14 2 13 2 15 0 15-2 13-4 14-5 13-4 12-3 11-2 13 0 13 1 12 1 13 2 12 4 14 4 12 5 13 6 13 6 10 7 11 9 10 10 9 12 8 12 8 14 6 14 4 6 3 2 0 1 2 2 1 1 2 0 2 0 2-1 2-1 1-1 2-2 1-1 0-2 0-2 0z"  fill="#ffffff" /><path d="M100-170l7-1 18-2 21-3 11-2 12-2 13-1 14-1 13-2 13-1 14-2 15 0 14-2 16-2 14-2 16-3 16-1 15-3 15-1 16-2 15-1 14-1 14-2 14-1 12-3 12-3 11-2 11-4 10-3 16-8 14-9 12-8 11-9 9-8 7-9 7-10 5-11 3-11 4-14 2-13 2-13-1-12-1-12-2-13-2-10-5-12-6-11-6-9-8-8-11-2-10 6-10 4-20 1 0 0 0 0 6-25 11-7 9-5 14-3 13 1 13 5 10 10 8 11 7 12 4 10 4 11 3 12 2 13 1 13 1 14-1 15-2 16-4 15-4 14-6 14-8 12-9 12-11 9-12 8-13 9-15 8-17 7-10 4-10 3-12 3-11 2-13 2-13 2-14 2-14 1-14 1-15 1-15 2-16 1-15 3-15 2-15 3-16 3-15 3-15 2-14 1-14 2-13 2-14 2-13 1-13 2-11 2-11 2-11 1-11 2-19 1-7 0-2 0-2-1-1-1-1-1-1-1-1-2 0-2 0-1 1-2 1-1 1-1 2-1 2-1z"  fill="#112233" /><path d="M103-170l5 2 11 1 11-1 11-3 11-4 12-2 15 0 14 4 10 3 10 5 11 5 10 5 10 5 10 5 11 5 12 5 12 7 11 6 9 5 13 6 11 5 10 4 11 3 12 2 13 3 11 2 13 1 11-1 14 1 11 1 10 3 11 3 11 3 11 3 14 1 38 9 0 0 0 0-39 20-13-1-13-2-11-3-10-3-15-3-11-1-12-1-12 0-13-1-12-2-13-3-14-3-12-4-13-6-11-6-13-6-10-6-11-5-10-6-12-5-11-5-11-5-11-5-10-5-9-5-9-5-12-4-12-3-11 1-11 3-13 1-10 0-13-3-9-3-5-2-1-1-2-1-1-2 0-2-1-1 1-2 0-2 1-1 2-2 1-1 2 0 2 0 2 0z"  fill="#14213d" /><path d="M106-168l4 4 12 9 9 5 8 6 14 6 9 4 12 2 11-1 13-2 14-2 10-2 10-3 11-6 14-6 17-6 15-5 13-4 13-4 12-5 11-4 8-6 9-5 11-10 9-9 8-10 6-7 7-8 7-8 10-10 11-9 12-7 10-4 11-1 13 0 15 1 12 3 11 3 12 3 14 20 0 0 0 0-20 8-11-1-12-4-11-2-11-1-11-1-11 3-11 7-9 9-10 10-10 10-6 8-7 7-7 7-8 7-9 7-10 7-12 6-13 5-12 5-13 4-13 4-14 5-14 5-14 8-14 6-13 4-11 2-11 2-15 1-15 1-11-2-11-3-11-5-11-6-9-7-8-6-9-8-9-9-3-4-1-2-1-2 0-2 0-1 1-2 1-2 1-1 2-1 2 0 2 0 2 0 2 1 1 1z"  fill="#e5e5e5" /><path d="M92-164l0-5-1-13-3-11-3-13-2-12-1-12-1-11 1-10 2-11 3-11 3-12 3-12 3-9 0-12 1-10 2-13 2-11 2-11 4-11 2-10 1-12 8-9 9-11 0 0 0 0 8 11 6 8 1 11-2 11-3 11-4 12-2 11-2 11-1 10-1 11-2 11-3 11-4 10-3 10-3 9-3 10-2 12 0 11 0 12 1 11 2 13 0 11-1 11-1 5-1 2 0 2-2 1-1 1-2 1-2 0-2 0-2-1-1-1-1-1-1-2-1-2 0-2z"  fill="#e5e5e5" /><path d="M92-163l0-6 1-12 2-12 4-10 6-12 5-10 5-10 6-11 8-10 8-7 9-6 11-6 10-4 12-2 11 0 10 2 10 4 10 7 8 9 8 9 6 10 5 9 0 10 5 7 0 0 0 0-5 7-10 0-11-2-8-7-5-10-6-9-7-9-9-6-11-1-11 3-12 5-9 6-8 8-5 8-6 11-7 10-6 10-5 12-2 10-1 6-1 2 0 2-2 1-1 1-2 1-2 0-2 0-1 0-2-1-1-2-1-1-1-2 0-2z"  fill="#112233" /><path d="M98-155l-6 0-13-2-14-1-15-2-14-1-15 0-13 1-13 2-11 4-12 4-9 5-9 6-9 8-9 8-8 9-6 9-5 9-6 11-6 10-5 14-5 14-3 14-2 11 0 11 0 12 0 12 2 11 3 10 5 11 7 12 6 13 6 13 6 13 4 13 2 14 1 12 1 11 0 10 0 10 0 15-1 12 1 12-7 31 0 0 0 0-21-18-1-11 0-12 0-12 1-13 1-14 0-14-1-11-1-10-2-10-4-11-5-12-6-12-7-13-7-13-6-14-3-14-1-14-1-14 1-13 1-14 3-11 3-11 3-10 4-11 5-12 6-10 6-11 7-11 8-11 9-10 10-9 11-9 12-8 13-5 13-5 14-3 14-3 16 0 16 0 16 2 14 3 14 3 14 3 7 2 2 0 1 1 1 2 1 1 1 2 0 2 0 2-1 2-1 1-2 2-2 0-2 1-2-1z"  fill="#ffffff" /><path d="M92-161l-2-6-3-15 0-17 1-16 2-16 0-15-1-16-1-16-2-17-3-17-3-21 0-10 0-11-1-10-1-18-4-17-6-13-7-12-9-9-10-5-13-5-14-3-16-5-17-5-17-4-15-2-16 0-17 1-17 4-16 6-18 8-16 8-14 9-12 11-12 12-10 11-10 13-11 12-12 12-12 12-13 11-13 10-13 12-8 6-10 6-10 5-10 5-11 4-11 4-11 4-11 5-12 5-11 5-11 6-10 7-73 44 0 0 0 0 63-59 12-7 11-7 12-6 11-5 11-5 11-6 11-4 10-4 17-9 15-12 13-11 13-11 13-10 11-10 11-12 11-12 10-12 12-13 13-13 14-11 16-11 17-9 18-8 10-4 10-4 10-2 10-2 10-2 18 0 18 2 18 3 18 4 16 5 16 4 15 5 15 7 14 12 11 14 8 16 5 19 2 10 1 19 1 21 1 10 2 18 4 18 2 18 1 17 1 17-1 17-2 16-3 15 0 14 1 13 1 7 0 2 0 2-1 1-1 2-1 1-2 1-2 1-2 0-2-1-2-1-1-1-1-2-1-2z"  fill="#fca311" /><path d="M102-170l6 1 12 2 11 2 10 1 12 3 11 3 12 4 12 5 13 6 11 5 11 4 12 2 12 2 12 3 11 3 10 2 10 2 13 2 14-1 14-1 13-5 10-4 12-3 11-2 12-1 14 1 13 2 10 2 10 3 12 1 11 2 7 8 5 9 3 6 0 0 0 0-10 3-10 4-11-1-10-2-10-3-10-3-13-3-11-1-11 1-15 4-10 3-11 4-12 3-12 1-11 0-11-1-12-2-11-2-10-3-10-3-11-3-12-2-14-3-14-5-13-6-11-6-10-5-11-4-10-4-11-3-10-3-11-3-11-4-6-2-2-1-1-1-2-1-1-2 0-2 0-2 0-2 1-1 2-2 1-1 2 0 2-1 2 1z"  fill="#fca311" /><path d="M93-165l1-6 4-11 5-10 5-10 4-15 1-11 1-13 0-13 0-14-1-13-2-14-3-13-5-13-5-13-6-12-5-12-5-9-8-12-7-9-7-9-7-10-7-10-7-10-7-9-7-10-6-11-4-9-7-14-5-13-4-13-3-13-1-14 1-14 4-12 4-10 5-11 5-10 5-11 6-11 5-9 30-18 0 0 0 0-6 37-6 12-5 9-5 10-4 9-5 11-4 12-1 12 2 11 2 10 4 11 5 12 4 9 7 13 6 9 7 10 7 10 6 9 7 10 7 10 7 9 6 9 6 11 5 12 5 11 6 14 6 14 5 17 2 15 2 15 0 16 0 14-2 14-1 14-3 13-6 12-5 10-6 9-5 9-3 5 0 2-2 1-1 2-2 0-2 0-2 0-2 0-1-2-2-1-1-2 0-2 0-1 0-2z"  fill="#e5e5e5" /><path d="M103-156l-7 4-13 9-14 12-15 14-8 7-8 7-8 8-9 7-9 8-8 7-9 8-9 8-9 9-9 8-9 9-10 8-9 8-8 9-7 9-8 10-6 11-7 12-6 13-6 14-6 15-8 16-8 15-8 15-10 15-10 16-10 17-9 17-10 19-11 20-11 20-15 20-16 20-18 18-20 16-23 13-23 10-24 7-24 6-24 4-24 5-24 5-23 5-22 5-22 7-20 7-21 8-19 8-19 8-18 8-17 7-17 8-15 7-15 6-15 5-15 4-13 4-13 5-13 5-12 6-10 7-9 7-10 8-9 8-9 9-8 9-8 9-7 10-9 12-7 11-8 13-7 14-7 15-6 16-6 18-5 20-5 23-5 24-4 27-4 27-2 27-2 28-1 27 0 27 0 26 0 27 1 26 0 27 10 178 0 0 0 1-12-179-1-27 0-26 0-27 0-26 0-27 1-27 1-28 2-28 3-27 4-26 4-25 3-23 5-21 4-19 5-18 6-16 7-15 8-13 7-13 8-11 8-11 9-10 9-9 10-9 9-8 11-8 10-7 12-7 13-5 13-5 13-4 15-3 14-3 15-4 15-5 16-6 17-7 17-7 18-8 19-8 20-8 20-8 21-7 21-7 23-5 23-5 23-5 25-5 24-4 24-6 23-7 23-10 22-13 20-16 18-18 16-19 14-21 11-20 10-20 9-19 9-18 9-18 9-16 9-15 7-16 7-15 6-15 6-16 5-15 6-14 6-13 8-12 7-11 8-10 9-10 9-8 10-8 8-9 9-8 9-9 9-9 9-8 9-8 8-8 8-7 9-7 8-8 7-7 8-7 8-6 8-7 8-6 17-10 7-2 2-1 1 0 2 0 2 1 1 1 1 2 1 1 1 2-1 2 0 2-1 1-1 2-2 0z"  fill="#ffffff" /><path d="M98-170l6-2 11-2 13-2 12 0 12 0 12 2 10 2 11 4 11 3 10-3 9-5-4-10 0 0 0 0 5-3 11 0 9 5 5 9-1 10-6 10-8 8-9 4-10 4-11 1-11-4-11-5-10-4-10-4-11-2-11-1-11-1-14 1-5 0-2 0-2 0-2-1-1-1-2-1 0-2-1-2 0-2 1-2 1-1 1-2 2-1 1 0z"  fill="#14213d" /><path d="M95-169l5-4 10-7 10-7 12-7 16-7 15-6 16-6 15-8 16-9 14-8 15-9 15-9 16-8 16-9 17-8 15-8 16-9 14-9 13-10 10-11 7-11 6-10 5-11 3-10 3-11 4-12 3-12 4-11 2-10 2-10 3-10 5-14 5-11 3-11 1-12 0-12 0-11 6-20 0 0 0 0 16 9 7 10 1 10 0 11-1 11-2 11-4 11-5 12-5 10-4 13-3 9-3 12-4 11-3 11-4 12-4 12-4 12-6 12-8 12-10 13-12 12-15 12-16 10-15 9-17 9-16 7-16 9-15 8-15 9-15 10-15 8-16 8-16 8-17 8-16 5-13 5-12 6-11 6-10 5-4 3-2 1-2 1-2 0-2-1-2-1-1-1-1-2-1-2 0-1 0-2 1-2 1-2 1-1z"  fill="#ffffff" /><path d="M93-167l4-5 6-11 8-10 8-10 9-8 9-7 9-4 10-3 14-1 12 1 11 2 10-1 5-10 7-9 8-7 9-7 9-8 11-2 18 3 0 0 0 0-5 16-5 10-8 6-9 7-9 6-4 9-8 8-10 5-13 2-10-1-12-3-11-2-11 1-10 4-11 8-8 8-8 8-7 9-4 5-2 2-1 1-2 0-2 1-2-1-2 0-1-1-2-2-1-2 0-2 0-2 1-1 0-2z"  fill="#e5e5e5" /><path d="M99-155l-6 0-11-1-11-1-12-2-11-3-12-5-11-6-10-8-10-9-8-9-8-11-7-11-6-13-4-12-4-12-3-10-4-10-4-12-3-11-4-11-5-14-7-12-8-11-9-10-10-8-12-6-10-4-12-3-11-3-11-3-14-2-10 1-11 4-11 6-9 6-10 6-8 6-23 7 0 0 0 0 0-28 10-7 10-7 9-5 9-5 12-6 13-4 11-2 11 0 11 2 12 2 11 3 13 4 12 3 13 5 11 7 10 8 8 8 7 8 7 9 6 10 5 10 4 11 4 12 3 10 4 11 4 12 3 11 3 11 3 10 4 10 5 10 6 9 6 9 8 8 11 10 9 6 13 6 14 4 11 3 11 2 5 2 2 0 2 1 1 2 1 1 1 2 0 2 0 2-1 2-1 1-2 1-2 1-1 1-2-1z"  fill="#e5e5e5" /><path d="M108-160l-2 6-4 14-3 13-3 14-2 14 1 13 4 13 6 16 3 10 4 11 3 11 4 13 3 13 3 14 4 15 4 15 6 15 8 16 9 15 11 16 14 14 14 15 15 16 14 17 14 17 14 19 14 19 14 20 17 19 17 20 16 20 16 22 17 22 16 23 16 24 14 24 14 26 13 26 14 27 14 27 13 26 12 25 11 27 10 27 11 28 11 29 10 31 10 31 7 33 7 35 7 36 8 39 9 42 7 45 8 47 7 47 7 47 6 47 4 48 1 48-1 47 0 49-1 48 1 47 0 47 2 46 4 44 4 43 3 43 1 43 0 43 0 43 3 44 4 45 5 48 2 50-2 54-5 58-8 64-9 73-13 76-16 82-21 90-27 92-34 92-39 90-43 87-309 571 0 0 0 0 308-572 42-87 39-89 34-92 27-92 21-90 16-83 13-76 9-72 8-64 5-58 2-54-2-50-5-48-4-45-3-44 0-43 0-43-1-43-3-43-4-43-4-44-2-46 0-47-1-47 1-48 0-49 1-47-1-47-4-49-6-47-6-47-8-47-8-47-7-45-9-42-8-39-7-36-7-34-7-33-10-32-10-30-11-29-11-28-10-27-11-27-12-26-13-26-14-26-13-27-14-27-14-25-14-24-15-24-17-23-16-22-16-21-17-21-17-19-16-20-15-19-14-19-14-19-15-17-14-17-15-14-16-15-15-14-13-14-11-16-10-16-7-16-6-15-5-14-5-14-4-12-4-12-5-11-7-20-7-17-4-18 0-18 3-16 4-15 5-13 5-13 2-6 1-2 1-1 2-1 2-1 1-1 2 1 2 0 2 1 1 1 1 2 1 2 0 2 0 2z"  fill="#112233" /><path d="M100-155l-5 1-13 2-11 4-10 3-13 3-11 2-11 2-11 3-11 2-10-1-11 0-5 9-2 11-4 10-10 5-9 9 0 0 0 0-6-10-4-10 0-11 4-10 3-11 6-9 9-8 12-4 11-1 12 2 10 0 11-2 10-1 11-1 11-1 10-1 12-2 10-1 10 0 5 1 2 0 2 1 1 1 1 1 1 2 1 2 0 1-1 2-1 2-1 1-1 1-2 1-2 0z"  fill="#ffffff" /><path d="M108-164l1 7 3 15 3 14 3 14 6 14 7 12 10 12 12 13 16 13 8 6 9 7 10 6 9 6 9 7 9 6 9 4 9 5 10 4 10 4 10 3 11 4 11 3 11 4 11 4 11 3 11 5 11 5 11 5 11 6 10 5 10 5 9 6 10 6 9 5 9 5 17 8 17 6 17 2 17-1 15-4 17-6 18-9 11-5 10-5 11-6 12-6 13-5 13-6 14-5 14-4 14-5 13-5 14-6 14-6 14-7 15-6 15-5 15-4 15-4 15-4 15-5 14-5 14-6 13-7 14-8 13-9 13-9 12-10 11-11 8-13 8-14 7-15 5-17 5-18 5-19 4-21 4-22 4-22 4-24 6-24 34-181 0 0 0 0-31 181-6 25-4 23-3 23-4 22-3 21-3 20-4 18-5 18-7 17-8 15-10 14-11 12-13 11-13 9-13 8-14 9-14 7-14 7-15 5-15 5-15 4-15 4-14 4-15 6-14 6-14 7-14 7-14 6-13 6-14 5-13 6-13 5-12 6-12 6-12 6-11 7-11 5-10 6-10 5-10 5-9 3-19 6-19 2-10 0-11-1-10-2-10-3-10-4-9-4-9-5-9-6-9-5-9-6-10-5-9-6-10-5-10-5-11-5-10-5-11-4-10-3-11-4-11-3-11-4-11-3-12-4-11-4-10-4-10-5-10-5-10-6-9-6-9-7-10-6-10-6-9-7-9-7-9-7-14-14-11-15-9-15-6-17-3-16-1-15-1-14-1-7 0-2 0-2 1-2 2-1 1-1 2-1 2 0 2 0 2 0 1 1 2 2 1 2 0 1z"  fill="#fca311" /><path d="M106-157l-4 5-8 9-8 10-5 11-2 11-1 13-1 16 1 18 2 17 3 21 1 11 2 12 2 13 2 13 4 14 5 14 5 13 8 14 8 14 10 15 9 14 10 14 11 15 9 14 9 15 7 16 6 16 5 16 5 18 5 18 6 19 9 18 11 18 12 17 13 17 12 16 14 15 16 15 16 14 18 14 20 14 20 15 22 16 22 18 22 18 22 18 22 18 22 17 20 17 20 18 18 18 18 19 18 20 17 20 18 20 18 21 20 20 19 19 19 20 19 18 19 18 19 19 18 18 17 19 17 17 16 16 16 16 17 14 16 13 17 11 16 9 17 7 16 6 16 5 15 3 14 1 13-1 12-2 11-4 10-5 8-6 8-6 7-8 7-7 7-8 51-48 0 0 0 0-39 59-8 8-9 7-8 7-9 7-11 6-11 5-13 2-13 1-14 0-14-3-16-3-16-6-16-7-16-8-16-9-17-12-17-13-16-14-17-16-16-16-17-17-17-18-18-19-18-19-19-18-20-18-19-19-19-20-19-20-19-21-17-20-18-20-17-19-18-19-19-18-19-18-21-17-22-18-21-18-22-17-23-18-22-18-21-16-21-15-19-15-18-13-17-14-16-15-14-15-13-16-12-17-13-17-12-18-9-18-8-19-6-18-5-17-5-16-6-16-7-15-8-14-10-14-11-14-10-14-11-14-11-14-10-14-8-15-8-14-6-14-5-15-4-13-3-14-2-12-2-11-2-10-2-10-2-20-1-19 0-17 3-17 4-15 9-14 9-11 10-8 4-4 2-1 2-1 2-1 2 1 1 0 2 1 1 2 1 1 1 2 0 2 0 2-1 2-1 1z"  fill="#14213d" /><path d="M105-156l-6 4-11 9-10 8-10 9-9 9-10 9-9 8-7 9-9 10-8 12-10 13-9 14-6 15-4 17-1 19 0 10 0 11-1 12-2 13-3 12-3 11-4 12-3 11-3 12-4 12-4 13-4 13-6 15-5 14-6 16-7 15-9 17-10 16-10 16-13 18-12 20-12 23-11 25-12 30-15 31-15 33-17 34-17 37-17 38-15 39-15 39-13 40-12 42-11 41-11 41-8 39-6 39-5 37-3 37-1 36 0 35 3 34 7 32 10 30 12 29 14 28 17 28 18 30 19 30 23 33 23 34 25 35 26 40 28 40 29 42 31 46 34 50 34 52 35 52 34 53 32 57 30 63 25 68 26 74 26 77 181 526 0 0 0 0-183-525-26-78-26-73-25-68-29-63-33-57-34-53-35-52-34-52-34-50-31-46-28-42-28-40-27-39-25-36-23-34-22-32-20-31-18-30-16-28-15-28-12-29-10-30-7-33-3-34 0-35 2-36 2-37 5-38 6-38 9-40 10-40 11-42 12-41 13-41 15-39 15-38 17-39 17-37 16-34 16-33 14-31 12-30 10-26 12-23 12-21 11-18 9-17 8-17 7-16 6-16 5-15 4-15 4-14 4-14 3-13 4-12 3-12 3-12 3-11 3-10 2-11 1-11 0-11 0-11-1-10 0-11 1-11 1-11 3-11 4-10 4-9 10-16 9-14 10-12 9-11 10-10 10-8 9-8 11-9 11-8 12-8 12-8 6-3 1-1 2 0 2 0 2 0 2 1 1 1 1 2 1 2 0 2 0 2-1 1-1 2-1 1z"  fill="#e5e5e5" /><path d="M93-162l-1-4-5-12-7-7-11-4-11-2-11 3-10 6-9 5-10 8-7 8-7 10-8 12-5 10-4 12-3 13-2 16-1 12-1 12 0 14 1 17-1 18 1 17 3 16 5 16 5 16 6 16 7 15 9 13 10 13 11 13 11 14 22 52 0 0 0 0-40-39-10-12-11-14-12-14-10-16-9-17-6-16-6-17-5-18-4-18-2-20-1-17-1-16-1-16 0-14 1-14 1-12 3-11 2-11 3-10 4-10 6-9 8-12 5-9 7-8 7-7 11-8 10-6 11-5 11-5 11-1 12 0 10 3 11 6 9 6 7 10 4 10 1 13 0 5 0 2 0 1-1 2-1 1-2 1-1 1-2 0-2 0-2-1-1-1-1-1-1-2 0-2z"  fill="#e5e5e5" /><path d="M101-171l6 1 12 0 13 1 13-2 14-3 18-4 18-5 10-2 11-3 11-2 11-1 11-2 12 0 11 0 11 0 12 0 12 0 11 0 12 0 12 0 12 0 13 0 13-1 12-2 13-2 12-1 11-2 11-1 11-2 11-2 11-2 12-2 12-2 13 0 13 0 13 1 14 2 13 2 14 3 14 4 14 3 14 3 16 3 16 3 17 3 18 2 18 4 18 3 18 4 19 5 18 7 18 8 17 10 16 12 15 13 16 14 17 15 19 16 20 16 24 18 27 19 27 23 28 24 30 26 31 25 33 24 34 22 34 19 35 17 36 15 37 15 37 14 37 15 38 16 38 18 39 21 38 24 40 27 39 30 36 32 37 35 36 36 37 39 35 39 33 41 31 42 27 44 26 43 156 286 0 0 0 0-158-285-25-43-28-44-31-42-33-40-35-39-36-39-37-37-36-34-36-32-39-30-40-27-38-24-38-21-39-18-37-16-37-15-38-14-37-15-36-15-35-17-34-19-34-22-33-25-32-24-30-26-27-25-27-22-27-20-24-17-21-16-19-16-17-15-16-13-15-13-16-11-17-9-18-8-18-6-18-4-18-4-18-2-18-3-18-1-18-2-16-1-16-2-16-3-14-3-13-3-13-3-13-1-13-2-12 0-12 0-12 0-12 1-11 2-11 2-11 2-12 2-11 1-11 2-12 1-12 2-13 2-14 2-13 1-13 0-12 1-12 0-12 0-11 0-11 0-11 0-11 0-10 1-11 1-10 2-10 2-10 3-10 3-20 5-17 4-17 3-16 0-14-1-12-2-6-1-2-1-1-1-2-1-1-1-1-2 0-2 0-2 1-2 1-2 1-1 2-1 2 0 2 0z"  fill="#e5e5e5" /></svg>