<svg width="1200" height="675" viewBox="-500 -500 1200 675" xmlns="http://www.w3.org/2000/svg"><path d="M-500-500h1200v675h-1200z" fill="#000"/><path d="M97-155l-7-3-16-5-16-6-18-3-18-2-17 1-18 1-15 2-14 3-10 3-12 7-7 8-3 10-2 11-3 13-4 11-5 9-5 9-2 11 1 11 3 12 4 10 9 7 12 1 8 9 9 10 0 0 0 0-14 9-11 4-11-2-11-4-10-8-7-9-5-10-3-10-2-12-2-13 1-13 3-11 5-11 5-9 5-9 3-10 2-11 4-11 5-9 7-8 9-6 11-5 13-4 14-3 15-1 17-2 19-1 11 0 10 1 10 2 10 2 10 3 17 6 15 7 7 3 1 1 2 1 1 2 1 2 0 2-1 2 0 1-1 2-2 1-1 1-2 0-2 0-2 0z"  fill="#fff" /><path d="M103-155l-6 2-10 8-6 10-4 12-5 14-4 10-6 10-5 9-7 9-7 9-7 8-9 9-9 9-9 9-8 11-10 13-11 13-9 13-7 13-2 12 0 14 2 14 5 11 8 9 10 11 12 11 13 10 13 7 16 6 17 6 19 7 16 6 14 4 13 2 11 0 13-2 11-4 10-5 11-7 11-6 32 0 0 0 0 0-12 22-11 5-11 5-9 5-12 5-10 3-12 2-12 1-14-2-14-2-16-5-17-6-18-6-18-6-18-7-17-9-14-11-14-12-12-12-11-15-7-16-2-18 0-18 4-20 9-16 10-14 9-13 10-14 9-13 11-11 8-8 8-8 7-7 10-12 8-11 7-12 6-13 4-10 5-9 7-9 10-8 12-6 6-1 1 0 2 0 2 0 2 1 1 1 1 2 1 2 0 2 0 2-1 1-1 2-2 1-1 1z"  fill="#c2e1ff" /><path d="M102-155l-5 2-13 4-12 5-13 8-15 8-15 9-15 7-15 8-14 8-16 7-14 8-16 10-17 8-15 8-12 11-10 13-7 14-2 15 3 15 7 15 12 14 14 14 8 7 9 5 10 6 10 4 9 5 10 3 10 4 10 3 10 4 9 4 17 7 17 9 15 11 13 14 10 14 8 14 5 14 4 15 1 14-1 14-3 14-5 13-5 13-4 13-4 12-3 13-5 16-6 15-8 14-12 13-47 27 0 0 0 0 30-45 8-9 7-10 4-12 4-14 4-15 4-13 5-13 4-13 5-12 3-10 1-10 0-11-3-12-3-12-6-11-8-13-10-11-12-10-15-8-17-7-18-8-9-3-11-4-10-4-10-4-11-5-11-6-11-7-9-7-9-7-8-8-7-8-7-9-6-10-4-10-3-11-1-11 1-11 3-11 4-10 5-9 6-9 15-14 8-6 16-10 16-8 15-9 17-9 15-7 14-8 15-7 15-7 15-8 15-8 16-8 15-5 12-2 6-1 2 0 2 0 2 0 1 1 1 2 1 1 1 2 0 2 0 2-1 2-1 1-2 1-2 1z"  fill="#fff" /><path d="M104-156l-5 4-10 6-12 8-11 7-10 7-10 8-7 9-8 9-8 9-7 10-6 9-2 12-4 11-5 9-4 10-4 12-3 10-1 10-6 9-11 13 0 0 0 0-10-12-6-10 1-10 2-12 4-11 4-11 4-10 7-11 3-10 3-10 7-11 7-9 7-8 8-8 8-7 7-8 10-7 10-7 12-7 13-6 10-4 10-4 5-3 2 0 2 0 2 0 2 0 1 1 1 2 1 2 1 1 0 2-1 2-1 2-1 1-1 1z"  fill="#fff500" /><path d="M108-164l1 5 3 11 2 10 5 12 5 10 5 10 5 11 4 11 6 12 6 14 7 13 8 12 11 11 11 8 15 7 16 7 17 5 17 3 19 2 21 0 10 1 11 0 10 1 19 0 19-1 18-1 18-6 17-8 9-4 17-9 13-10 10-9 9-9 7-8 5-11 2-10-4-11-9-9-10-7-13-3-10-2-23-19 0 0 0 0 27-10 12 2 14 4 12 7 9 7 10 9 7 12 3 13 0 14-3 9-5 10-6 9-9 10-10 9-13 10-15 10-18 9-9 5-9 5-10 4-11 4-11 3-10 1-20 1-20 0-10 0-10 0-10 0-11-1-10 0-10 0-11 0-10-1-11-1-19-4-10-3-9-4-18-7-16-10-15-12-11-14-9-15-8-15-6-13-5-13-4-11-3-10-5-10-4-11-2-12-1-10-1-11-1-5 0-2 0-2 1-2 1-1 2-1 2-1 2-1 2 1 1 0 2 1 1 2 1 1 1 2z"  fill="#c2e1ff" /><path d="M92-163l0-6-1-10-2-15-1-12-2-11-3-10-5-11-7-10-11-12-14-12-17-9-11-4-12-3-13-3-14-2-14-1-14 2-14 3-13 4-12 8-11 9-9 12-7 12-6 15-7 16-5 17-5 17-5 19-4 17-2 18-3 16-2 16-2 14-1 14-1 13-1 12 0 11-1 10 0 19 1 16 1 14 1 12 1 12 1 11-1 10 0 13 0 11-1 11 0 13-2 11-4 10-5 9-7 9-7 10-39 26 0 0 0 0 16-44 7-10 7-8 5-10 2-11 2-11 1-10 1-13 2-13 1-14 1-11 0-12 0-15 1-17 2-19 1-10 2-11 2-12 2-13 2-14 3-14 3-16 2-16 3-18 3-18 4-18 4-19 5-17 6-17 6-16 7-15 11-13 12-11 14-9 15-6 15-4 16-2 15-1 16 1 15 2 13 3 13 4 12 5 10 5 9 7 8 6 7 7 12 14 8 15 5 15 1 14 0 11 1 10 0 12-1 11-1 6 0 2-1 2-1 1-2 1-2 1-2 1-2-1-1 0-2-1-1-2-1-1-1-2 0-2z"  fill="#005bbb" /><path d="M107-159l-2 6-5 10-5 9-7 12-7 13-7 12-8 11-7 11-5 11-2 10 0 13 1 10 0 11-1 13-2 10-5 11-5 11-7 10-6 9-7 9-9 7-9 6-8 6-9 5-10 4-11 7-9 5-13 10-11 9-14 8-13 6-13 5-12 4-11 4-12 4-14 5-15 4-14 5-18 7-11 4-78 24 0 0 0 0 69-45 10-5 9-5 18-8 16-5 12-4 13-4 12-5 11-3 11-4 11-5 11-6 10-8 10-8 10-8 9-6 10-6 12-6 12-7 11-6 8-8 8-11 7-12 5-12 3-10 0-13 0-10 0-12 2-14 3-10 5-10 9-13 8-10 8-11 8-11 9-12 8-11 6-9 3-5 1-2 1-1 2-1 2 0 2 0 2 0 2 1 1 1 1 2 1 2 0 1 0 2-1 2z"  fill="#fff" /><path d="M100-154l-6 0-13 1-12 2-13 1-14 2-14 1-14 2-14 1-13 2-12 2-11 2-10 2-12 3-11 5-10 4-12 2-12 1-12-1-14-4-8-5-8-8-8-12-5-12-5-11-4-14 0-10 0-14 1-11 1-11 1-10 0-11 1-11 0-10 5-19 0 0 0 0 11 3 9 7 5 10 1 12-1 13-1 11-1 11-1 11-1 14 1 12 3 10 4 10 5 10 8 8 10 3 11 0 10-1 10-4 13-4 11-2 11-2 12-2 12-1 14-1 14-1 14-1 14-1 14 0 13-1 14-1 13 1 6 0 2 1 2 0 1 1 2 2 0 2 1 1 0 2 0 2-1 2-2 1-1 2-2 0-2 1z"  fill="#fff" /><path d="M98-170l5-2 12-5 10-5 11-6 11-7 13-8 11-7 11-7 8-7 9-8 10-7 10-6 12-6 9-8 5-10 3-12 4-10 4-9 6-10 9-10 7-7 8-7 10-8 8-6 10-6 7-8 5-12 3-10 7-8 18-9 0 0 0 1 6 20-2 11-4 11-5 11-6 9-8 8-9 6-11 6-9 8-10 8-8 8-6 10-5 10-4 12-4 10-7 10-11 9-12 7-12 6-12 7-9 7-11 8-12 8-12 7-13 7-12 7-13 6-13 4-12 3-6 1-2 1-2-1-1 0-2-1-1-2-1-1-1-2 0-2 0-2 1-2 2-1 1-2 2 0z"  fill="#fff" /><path d="M92-163l0-7 1-13 1-14 1-13 0-12 0-12 2-13 3-11 4-11 4-9 5-11 2-11-1-13-2-12-4-13-3-12-3-12-3-11-5-11-6-11-8-12-8-12-8-12-8-14-7-13-6-13-5-12-5-11-6-9-5-8-6-9-6-9-7-13-5-14-1-10 0-11 4-13 6-13 5-10 4-10 22-24 0 0 0 0 7 32-5 11-5 11-5 9-5 12 1 11 4 11 6 12 7 12 7 10 6 11 5 11 6 12 5 12 7 13 7 11 8 12 8 13 8 12 8 13 7 13 4 14 3 13 4 15 3 10 2 10 1 10 0 10-2 11-3 10-6 14-6 11-5 13-2 10-1 12-2 13-2 13-2 12-2 14-1 6 0 2-1 2-2 1-1 2-2 0-2 1-2-1-2 0-1-1-2-2-1-2 0-1 0-2z"  fill="#fff" /><path d="M94-168l4-5 9-9 9-10 8-9 6-10 5-11 5-11 3-12 3-13 1-12-1-12-1-12-3-12-3-12-4-11-5-11-7-10-9-11-10-12-12-12-13-15-6-8-8-8-7-8-8-7-8-8-9-7-8-7-8-6-14-13-14-11-13-10-12-9-11-9-10-7-11-6-9-4-11-4-10-2-12-1-14 2-10 4-10 6-8 6-8 8-6 8-8 12-6 9-7 10-6 11-41 38 0 0 0 0 18-52 7-12 6-9 6-10 7-9 7-10 9-9 11-9 12-8 13-6 15-5 16-1 14 2 13 4 12 4 13 7 11 7 11 9 11 9 12 10 12 11 13 11 15 12 8 7 8 7 9 7 9 7 9 8 8 8 8 8 8 7 13 14 12 12 12 13 10 13 9 13 5 13 5 13 3 13 3 14 2 15 0 14-1 16-4 14-5 14-6 13-6 13-9 11-10 11-10 9-10 7-4 4-2 1-2 1-2 1-1-1-2 0-2-1-1-1-1-2-1-2 0-2 0-2 1-2 1-1z"  fill="#005bbb" /><path d="M101-171l7 0 14 0 15 1 14 1 13-1 12 0 10-2 10-3 10-4 10-7 9-8 10-9 8-7 9-7 12-6 12-3 11-2 11-5 7-7 7-9 0-12-4-9-7-8-7-7-6-23 0 0 0 0 16-2 10 1 9 7 9 10 6 9 4 11 2 12 0 10-2 12-6 10-8 10-8 7-8 6-11 5-11 2-13 2-11 5-10 7-8 7-9 7-9 7-10 5-12 5-10 3-10 1-11 1-13 0-14-1-15-1-14-2-14-2-7 0-2-1-2-1-2-1-1-1-1-2 0-2 0-2 1-2 1-1 1-2 2-1 2 0 2-1z"  fill="#fff500" /><path d="M103-170l6 2 14 5 13 5 13 3 14 1 14-1 15-2 14-4 16-5 18-8 9-5 11-4 11-5 12-3 11-3 11-3 12-3 11-3 11-3 12-3 12-3 13-3 12-3 11-4 11-4 10-4 9-5 17-9 15-11 9-6 8-6 8-7 9-7 10-7 9-7 10-6 9-6 9-5 16-10 15-9 12-9 11-9 9-8 8-8 11-10 10-10 8-10 7-9 6-10 5-9 7-10 6-9 7-11 7-12 29-24-1 0 1 0-4 40-6 9-6 9-8 11-7 9-7 10-7 12-9 11-11 11-11 10-8 6-8 7-10 8-11 8-13 9-14 9-16 9-18 10-8 5-9 6-9 7-9 7-9 7-9 7-9 7-8 5-9 6-8 5-9 5-10 5-10 4-10 5-12 4-12 4-12 3-13 4-11 3-12 3-11 4-11 3-12 3-11 3-10 4-10 3-10 4-10 5-10 6-10 4-9 5-18 6-16 4-18 2-17 0-17-2-15-5-14-6-12-6-6-3-2-1-1-1-1-2-1-2 0-2 0-2 1-1 1-2 2-1 1-1 2 0 2 0 2 0z"  fill="#005bbb" /><path d="M96-156l-6-3-9-4-11-5-10-5-11-5-10-6-11-5-11-5-11-3-14-4-15-2-16-1-15 3-16 6-13 8-10 9-8 8-7 9-5 13-1 10 2 12 3 11 6 9 10 8 12 4 11 2 11-1 12-2 11-2 11-3 11-3 11-6 10-3 19 0 0 0 0 0-4 18-5 9-11 7-10 4-10 3-12 3-11 2-12 2-11 1-11 1-12-2-13-4-11-6-12-8-9-12-6-13-4-14-2-11 1-12 2-13 6-12 8-11 9-11 12-10 15-10 17-8 10-4 10-3 10-1 10 0 10 0 18 3 15 4 14 4 12 6 11 6 10 6 10 6 10 6 10 7 10 6 4 4 2 1 1 2 1 1 0 2 0 2-1 2-1 2-1 1-2 1-2 0-2 0-2 0-1-1z"  fill="#c2e1ff" /><path d="M102-156l-8 3-19 5-11 3-11 3-12 2-13 2-13 1-13 0-14 0-14 1-14 1-13 1-15 2-15 1-14 2-14 1-13 1-12 2-12 1-12 1-12 1-12 0-11 1-11 1-10 1-11 2-19 5-18 7-16 8-16 10-15 10-16 10-14 10-11 10-8 11-4 12-4 15-3 17-2 18-2 17 0 17 0 17-1 16-2 16-3 14-3 14-3 14-3 14-2 13-2 11-2 12-1 10-1 13-1 13-2 13-2 13 1 12-11 37 0 0 0 0-17-30-1-10 0-12 3-15 2-12 2-12 2-14 2-10 1-11 2-13 3-13 3-14 3-14 4-14 3-14 3-13 1-15 0-16 1-18 1-19 2-19 4-19 4-16 7-17 11-14 14-12 16-10 15-9 16-11 9-5 8-5 10-4 9-4 10-4 10-3 10-2 11-2 11-2 11-1 12-1 11 0 12 0 11-1 12 0 12-1 12-1 13-1 14-1 14-2 14-1 15-3 14-2 14-1 14-1 14-1 13 0 12-1 12-2 11-2 11-3 11-3 19-4 8-1 2 0 2 0 1 0 2 1 1 2 1 1 0 2 0 2-1 1 0 2-1 1-2 1-1 0z"  fill="#fff500" /><path d="M108-166l3 7 6 13 8 13 8 13 9 13 8 11 8 11 8 11 7 11 8 10 7 13 6 11 6 11 5 9 8 12 8 12 7 9 6 10 6 10 5 9 6 11 2 13 2 12 2 10-1 14-3 13-7 13-9 10-9 7-10 7-8 7-9 8-10 5-11-2-14-6 0 0 0 0 12-21 8-5 9-8 10-7 11-8 6-7 4-11 0-11-2-10-1-13-4-10-5-9-5-9-6-10-7-11-7-12-6-9-5-10-6-11-5-12-6-10-8-11-6-11-7-11-8-11-8-13-8-13-8-15-7-14-6-15-3-7 0-1 0-2 0-2 1-2 2-1 1-1 2-1 2 0 2 0 2 0 1 1 1 2 1 2z"  fill="#fff500" /><path d="M104-156l-7 4-13 10-16 12-9 5-8 6-9 7-7 6-8 7-13 15-10 14-6 15-1 14 4 13 6 14 10 14 7 8 7 7 9 8 11 10 11 11 12 10 13 9 15 8 16 6 17 6 17 4 17 3 17 4 17 2 16 2 15 1 15-1 14-2 13-3 14-5 13-5 13-6 14-7 12-7 11-9 10-9 10-10 9-11 8-12 9-12 10-11 10-12 9-13 10-12 10-14 11-13 12-14 12-13 11-13 12-12 12-12 12-11 13-9 11-10 12-9 10-10 11-10 10-11 10-11 10-12 10-13 9-12 10-13 10-12 11-13 10-12 11-13 12-12 13-14 14-14 16-13 18-12 19-13 21-14 22-14 22-16 22-17 22-18 22-19 22-21 152-130 0 0 0 0-151 132-22 20-21 20-22 18-22 17-22 16-22 15-21 14-19 13-17 13-15 14-13 14-11 14-12 13-10 13-11 12-10 13-10 12-10 12-9 13-10 13-10 13-10 11-11 11-11 10-11 10-12 9-12 9-12 9-12 11-12 11-12 12-11 13-12 13-10 14-11 14-9 14-10 13-10 12-9 13-10 11-9 12-8 12-10 12-10 10-11 10-13 9-13 8-13 6-14 6-14 6-14 4-15 3-15 2-15 0-16-1-16-2-17-3-18-3-17-3-18-4-17-4-18-6-16-7-16-9-13-9-13-9-11-9-11-8-9-9-8-8-6-9-6-9-7-17-4-19 1-10 2-10 3-10 5-9 5-8 7-9 7-8 8-7 8-8 8-7 9-7 9-6 9-6 16-10 15-9 7-4 2-1 2 0 2 0 1 1 2 1 1 1 1 1 1 2 0 2-1 2-1 1-1 2-1 1z"  fill="#fff" /><path d="M103-155l-5 2-11 7-8 10-4 10-2 11-2 12-1 11-1 10 0 10 0 11-1 14-3 11-4 10-6 11-7 11-6 11-4 10-2 12-3 11-4 10-3 9-6 12-6 9-22 21 1 0-1 0-11-23 3-10 7-12 5-10 4-10 4-10 2-10 2-10 5-11 6-10 7-11 6-9 5-10 3-10 0-10 1-12 1-13 2-12 4-13 3-12 4-11 8-11 10-10 9-5 10-5 5-1 2 0 2 0 2 0 2 1 1 2 1 1 1 2 0 2-1 2 0 1-1 2-2 1-2 1z"  fill="#fff500" /><path d="M95-168l3-4 9-8 7-9 5-12 2-9 5-12 7-12 6-11 8-12 8-11 9-12 8-7 12-9 8-5 10-4 12-5 9-5 10-4 10-6 9-6 9-9 3-9 3-14 2-12 2-16 2-13 5-14 5-12 8-13 7-12 8-11 46-26 0 0 0 0-21 39-6 9-7 9-6 11-4 10-4 11-3 15-1 11-1 15-3 13-3 13-6 12-8 10-9 8-9 6-9 5-12 5-11 5-12 5-11 4-9 6-9 7-9 8-7 10-8 11-7 11-7 10-6 11-4 9-5 11-7 9-9 7-10 7-4 2-2 1-1 1-2 0-2 0-2-1-1-1-1-1-1-2-1-2 1-2 0-1 1-2 1-1z"  fill="#005bbb" /><path d="M107-166l4 7 8 11 9 10 10 8 9 8 10 6 10 5 11 4 13 3 13 3 12 3 11 3 14 3 12 4 11 3 11 0 10-1 11-1 11 0 9 4 7 8 6 9 0 0 0 0-5 2-10 4-9 4-10 0-10 0-10 0-11-1-10-2-9-4-11-4-14-4-10-3-12-4-13-3-14-3-14-6-13-7-11-9-10-9-9-10-10-12-9-15-2-7-1-2 0-2 0-2 1-2 1-1 2-1 1-1 2-1 2 0 2 1 2 1 1 1 1 2z"  fill="#fff500" /><path d="M99-155l-7-1-16-2-16 0-19 0-10 0-12 0-11-2-10-2-10-3-10-3-10-3-10-4-9-3-11-5-11-5-10-7-10-8-9-7-9-8-8-8-8-8-7-8-8-7-7-8-7-9-7-9-6-8-6-9-6-9-5-9-6-9-5-9-4-10-4-9-4-10-4-9-8-17-9-16-11-16-9-17-7-17-6-18-4-17-2-15-2-14-1-14-1-12 0-12 0-11 0-14 0-11-2-12-2-14-3-15-3-12-4-10-4-9-9-10-5-27 0 0 0 0 29 9 8 10 6 12 5 13 3 10 2 10 2 15 1 10 2 13 1 10-1 14-1 14-1 10 0 12 1 12 0 13 2 14 2 15 3 15 6 16 7 15 9 16 11 17 5 9 4 9 8 19 7 18 9 17 5 9 5 9 6 8 6 9 11 16 7 8 6 8 8 7 7 8 8 8 7 7 8 8 9 7 9 6 9 6 9 4 10 4 10 4 10 3 17 7 19 4 20 2 10 0 19 0 19 2 15 3 7 2 2 0 2 1 1 2 1 1 1 2 0 2-1 2 0 1-1 2-2 1-2 1-1 0-2 0z"  fill="#c2e1ff" /><path d="M99-155l-8-1-16 1-16 3-16 9-8 6-7 8-8 10-8 12-8 13-8 14-7 15-7 16-7 17-6 19-5 20-5 22-4 23-2 26 0 27 3 27 5 26 6 28 7 28 8 28 8 29 7 28 6 30 6 29 6 28 6 29 6 29 6 30 7 30 8 29 11 30 13 32 14 33 14 35 13 35 10 37 10 39 10 39 9 39 7 40 9 41 10 40 10 40 11 38 11 37 11 35 13 34 13 32 14 32 15 28 16 26 17 24 18 23 18 20 18 18 19 18 20 15 20 15 21 13 21 12 21 10 22 8 22 5 22 3 23 1 23-1 23-2 25-3 24-7 25-9 24-11 23-14 21-16 20-17 17-18 16-19 14-21 11-21 8-21 6-20 4-20 3-20 1-18 0-19-1-18-2-18-3-18-24-119 0 0 0 0 28 119 3 18 2 18 0 19 0 18-2 18-3 20-4 20-6 21-8 21-11 21-14 21-16 20-18 18-19 17-22 16-23 14-24 11-25 9-25 7-25 4-23 1-23 1-23-1-22-3-22-5-22-8-22-10-21-12-21-14-20-14-20-16-19-17-19-19-18-20-17-23-17-24-16-26-16-28-14-32-13-32-12-34-12-36-11-37-11-37-10-40-10-41-9-40-7-41-9-39-10-39-10-38-10-37-13-36-14-34-14-33-13-32-10-30-9-30-7-30-6-30-6-29-6-28-6-29-6-29-6-29-7-29-8-29-8-28-7-28-7-27-5-27-3-27-1-28 2-25 3-24 4-22 4-21 5-20 5-18 6-17 6-16 7-15 8-15 7-13 9-12 9-11 10-8 11-5 10-5 20-3 18 2 8 1 2 1 1 0 2 2 1 1 0 2 0 2 0 1 0 2-1 2-2 1-1 1-2 0-2 0z"  fill="#fff500" /><path d="M107-167l4 5 7 10 8 9 7 9 9 10 10 8 11 7 8 7 9 6 8 7 7 7 10 9 8 6 9 5 11 5 11 6 9 5 11 4 10 2 10 5 7 8 3 10 1 4 0 0 0 0-12 1-8 5-11-2-10-4-10-4-9-5-9-5-9-5-11-6-11-7-9-9-9-9-10-9-11-10-11-9-8-7-8-7-7-8-6-9-6-9-7-10-6-11-4-6-1-2 0-2 0-2 1-2 1-1 1-2 1-1 2 0 2-1 2 1 2 0 2 2 1 1z"  fill="#fff500" /><path d="M98-170l4-2 11-7 9-9 8-9 7-11 6-9 6-11 4-9 2-11-5-11-7-11-8-9-8-6-9-7-9-8-7-9-5-8-4-11-1-11 3-10 8-7 2-8 0 0 0 0 6 2 8 7 5 9 1 12 4 9 7 9 8 7 9 6 9 10 8 10 6 10 5 13 1 10-1 14-5 14-8 12-6 10-9 10-9 11-7 6-9 7-10 6-10 4-5 1-2 0-2 0-2 0-2-1-1-1-1-2-1-2 0-2 0-2 1-1 1-2 2-1 2-1z"  fill="#fff500" /><path d="M92-163l0-5-2-14-3-13-3-12-2-9-4-11-4-12-2-13-1-12-1-11-5-9-6-9-4-10-2-10 1-10 3-10 5-9 11-6 21 5 0 0 0 0-7 12 0 11-2 10 5 10 6 10 3 12 0 12 0 10 0 10 3 11 3 10 1 12 1 11 1 13 1 10-1 11 0 6 0 2-1 1-1 2-2 1-1 1-2 0-2 0-2 0-2-1-1-1-1-2-1-2 0-2z"  fill="#005bbb" /><path d="M103-170l6 2 11 4 11 5 10 5 10 7 9 5 8 7 10 9 9 10 8 9 9 7 10 6 10 5 9 5 10 6 11 4 10 3 6 9 10-1 0 0 0 0 0 9-6 8-9 6-12-1-10-3-11-5-9-5-9-7-10-6-10-6-9-7-10-9-8-10-7-10-8-8-10-9-11-9-9-6-10-6-10-5-5-3-2-1-1-2-1-1-1-2 0-2 0-2 1-2 1-1 2-1 2-1 1-1 2 1 2 0z"  fill="#c2e1ff" /><path d="M98-155l-6-1-12-4-13-6-13-6-13-5-13-4-13-3-14-3-16-6-16-7-16-8-18-11-8-6-9-7-7-7-13-13-14-12-14-12-15-14-7-7-6-9-6-8-6-8-10-16-7-19-7-17-7-17-3-10-5-19-3-19-2-18-1-16-3-14-4-13-4-11-6-10-6-8-11-9-10-5-11-3-11-2-14 1-18 3-20 3-10 2-10 3-9 3-19 7-10 4-10 3-10 3-19 5-18 5-65 7 0 0 0 0 51-25 18-4 18-5 19-6 18-6 10-4 10-4 10-4 11-3 11-3 10-3 19-4 19-3 19 1 15 3 14 7 12 8 10 10 8 11 6 13 5 14 4 15 3 16 1 17 1 16 2 17 5 17 7 18 7 18 5 16 8 15 9 15 12 15 12 13 15 12 14 12 14 12 14 13 14 11 16 9 16 8 14 6 14 5 13 4 15 4 15 5 13 7 13 7 11 6 10 5 5 2 2 1 2 1 1 1 1 2 0 2 0 2-1 2 0 1-2 2-1 1-2 0-2 1-2-1z"  fill="#c2e1ff" /><path d="M93-160l-3-5-4-10-4-10-5-13-5-10-5-12-5-10-4-11-4-12-5-11-6-9-8-7-8-7-10-8-10-8-12-7-11-8-11-6-10-7-9-6-8-7-8-8-9-8-9-7-7-9-6-9-9-5-18-12 0 0 0 0 13-16 11-3 11 4 10 6 7 9 5 9 8 8 8 8 7 8 8 8 10 8 9 6 11 6 11 7 14 8 11 9 11 7 9 8 9 8 7 9 6 12 5 12 2 11 3 12 5 12 3 10 3 11 4 14 2 10 3 10 1 6 1 2 0 2-1 1-1 2-1 1-1 2-2 0-2 0-2 0-2 0-1-2-2-1 0-2z"  fill="#fff500" /><path d="M99-155l-5 0-10-2-15-3-10-4-10-6-8-7-8-8-10-10-10-6-11-3-13 1-12 4-13 8-9 10-5 13-4 9-4 11-5 10-7 9-7 7-10 7-10 6-12 7-12 7-10 5-11 5-12 4-14 2-15-1-12-4-11-5-11-6-10-8-9-8-8-8-7-8-6-9-8-11-6-10-3-29 0 0 0 0 30 17 6 10 6 10 8 10 11 10 11 9 13 7 12 5 10 0 13-3 10-5 9-5 12-7 11-6 9-5 10-7 8-9 5-13 4-11 6-11 8-12 10-11 12-8 13-6 14-3 13 0 13 1 12 5 11 7 8 8 10 11 9 10 10 7 11 5 13 4 5 2 1 0 2 1 1 2 1 1 1 2 0 2 0 2-1 2-1 1-2 1-2 1-2 0-1 0z"  fill="#fff" /><path d="M100-154l-7 0-14 1-13 3-12 3-11 5-12 5-13 4-10 5-11 6-9 7-10 8-10 10-7 8-9 11-7 12-7 11-7 10-6 11-4 10-1 10-2 12-6 14-7 12-5 8-7 9-8 9-10 8-11 8-13 7-13 7-15 7-15 6-14 7-13 7-10 7-10 7-9 8-11 8-10 7-43 13 0 0 0 0 28-34 10-8 10-6 9-8 11-8 12-8 14-8 15-8 14-6 13-7 13-8 11-7 8-6 11-9 8-11 6-10 5-10 4-12 2-11 3-12 6-11 7-11 7-9 7-10 8-12 7-10 7-8 8-9 8-7 12-9 8-5 10-5 10-5 11-4 12-3 12-5 14-4 14-3 15-1 15 0 7 0 2 1 2 0 1 1 2 2 1 1 0 2 0 2 0 2-1 2-1 1-2 2-2 0-2 1z"  fill="#fff" /><path d="M96-169l6-4 14-6 14-7 17-8 17-10 9-5 10-5 10-5 10-4 11-5 11-6 12-5 12-5 12-6 12-7 12-9 12-10 9-10 8-12 6-12 4-13 3-13 0-12 0-12-2-12-2-11-3-11-4-12-4-11-5-12-4-12-5-12-6-13-7-12-8-13-8-12-9-12-8-12-9-11-9-11-11-10-11-11-11-10-12-11-13-10-12-10-13-9-13-10-12-9-11-10-11-11-10-10-10-11-9-11-8-11-7-12-7-12-5-13-5-13-4-13-3-13-4-12-4-13-6-13-6-13-7-12-7-14-7-14-8-15-8-14-8-15-8-16-6-17-6-18-6-18-3-19-4-19-4-20-5-20-7-19-7-20-6-21-5-21-5-19-5-20-4-19-4-19-3-20-2-20-2-19-3-131 0 0 0 0 5 130 2 20 2 20 3 19 4 19 4 20 5 19 5 20 6 20 6 21 7 20 7 19 7 20 4 20 4 19 5 18 5 18 7 16 7 17 8 15 9 15 9 14 8 14 8 14 7 14 8 13 7 13 5 13 5 14 4 13 3 12 4 13 3 12 5 12 7 12 6 11 7 11 9 10 9 11 9 11 10 10 12 10 11 9 13 10 13 9 13 10 13 10 12 11 12 10 12 10 11 11 10 11 9 12 9 12 8 12 9 12 8 13 8 13 8 13 5 13 5 12 4 12 4 12 4 12 3 12 2 13 1 12 0 14-1 14-3 14-5 14-6 14-9 13-11 12-11 11-13 10-12 9-13 7-12 6-11 6-11 5-11 6-10 5-9 4-9 5-9 5-9 5-9 5-18 9-16 6-12 4-6 2-2 1-2 0-2 0-2-1-1-1-1-1-1-2-1-2 0-1 1-2 1-2 1-1 1-1z"  fill="#005bbb" /><path d="M93-167l3-6 9-12 8-13 7-14 6-15 4-17 2-17 2-19 2-18 2-18 0-17-3-18-2-10-2-10-2-12-2-12-2-12-1-12-1-13-1-14-1-15 0-16 0-17 0-17 0-18-1-17-2-17-4-16-5-17-6-18-9-18-9-19-10-20-9-21-8-23-7-25-8-26-10-28-10-29-11-31-10-31-11-31-10-30-9-30-8-29-5-28-3-26-1-27 0-27 3-26 3-25 5-25 4-25 5-25 5-25 5-24 4-24 5-24 6-22 7-21 7-20 7-18 7-19 6-17 5-18 4-17 4-16 3-16 3-16 4-16 2-16 1-15 0-15 0-14 0-13 0-13-1-13 0-13 0-12 0-11 0-12 0-11 1-11 13-71 0 0 0 0 2 72-1 11 0 11-1 11-1 11 0 12-1 13 0 13-1 13 0 14-1 14-1 15-2 15-3 16-3 16-4 16-4 16-5 16-4 17-6 17-7 18-7 18-7 19-8 19-6 21-6 23-5 23-4 24-5 25-5 25-5 24-4 25-5 25-3 26-3 26 0 26 1 26 3 27 5 28 8 29 9 29 10 30 11 31 10 31 11 31 10 29 10 28 8 27 8 24 8 22 9 21 11 20 10 19 10 18 8 17 5 18 5 17 2 17 2 18 1 17 1 17 2 17 2 16 2 15 1 13 2 12 2 12 2 12 2 11 3 11 3 11 2 10 2 10 1 11 1 10-2 20-2 18-2 18-2 19-2 10-5 19-7 17-9 15-10 14-8 10-4 6-1 1-2 1-2 1-1 1-2-1-2 0-2-1-1-2-1-1-1-2 0-2 0-2 1-2z"  fill="#fff500" /><path d="M102-170l6 1 13 1 11 2 11 2 11 1 10 2 11 1 13 3 13 3 12 4 12 3 11 3 10 4 11 4 10 3 10 2 11 3 12 3 13 4 11 2 11 1 11-1 11-2 12-3 10-3 11-4 11 1 9 1 0 0 0 0-2 8-3 10-6 9-10 5-11 3-10 2-12 2-10 2-14 0-13-1-14-4-12-3-13-3-11-3-11-3-10-3-11-4-9-4-10-4-12-4-11-4-12-5-13-3-10-3-10-2-10-3-11-2-12-3-13-4-6-2-2 0-1-2-2-1 0-2-1-2 0-1 1-2 0-2 2-2 1-1 2 0 2-1 2 1z"  fill="#005bbb" /><path d="M102-155l-5 2-11 5-11 6-10 6-11 7-12 6-9 6-7 6-8 8-7 8-6 8-5 12-1 11 2 13 5 13 6 12 7 12 9 7 9 5 11 3 10 1 11 0 10-3 10 3 12 5 0 0 0 0-4 6-5 10-8 7-11 2-11 1-11-2-11-2-11-3-12-5-8-6-8-8-7-9-7-10-5-12-4-10-3-10-3-11 0-11 2-11 4-13 6-11 8-11 9-9 9-8 11-8 11-6 11-6 11-5 13-6 12-5 13-4 6-1 2-1 2 1 1 0 2 1 1 1 1 2 1 2 0 2 0 2-1 2-1 1-2 1-2 1z"  fill="#fff" /><path d="M104-170l5 3 12 4 11 5 11 5 11 5 10 4 11 4 10 4 10 2 15 0 12 0 14-1 17-1 16-2 16-4 18-6 18-8 9-5 10-5 10-5 11-5 10-6 12-6 12-6 14-7 13-7 14-7 13-7 14-7 14-7 14-7 13-6 13-8 13-7 12-8 12-8 12-8 12-7 11-8 12-8 11-9 11-9 11-10 10-11 10-13 9-13 10-13 10-13 11-14 11-13 11-13 10-13 10-12 10-12 9-11 8-11 8-11 8-11 7-11 7-11 7-11 7-11 7-10 8-10 7-10 7-9 7-9 7-8 6-9 7-9 5-8 10-18 7-17 31-58 0 0 0 0-10 57-8 18-5 8-5 9-6 10-6 9-7 9-7 9-7 8-7 9-8 8-7 9-8 10-7 9-8 11-7 10-8 11-7 11-9 11-8 11-9 11-9 11-10 11-10 13-11 12-10 14-11 13-10 13-10 14-9 13-10 14-9 13-11 12-11 11-12 10-11 9-12 8-12 8-12 7-12 8-12 8-12 7-13 8-13 8-14 7-13 7-14 7-13 7-13 8-14 8-13 8-12 8-12 7-11 7-11 6-11 7-10 5-9 5-10 6-9 4-10 5-10 4-18 7-19 4-18 2-16 1-14 1-13 0-13-2-13-3-12-5-10-5-11-5-11-6-10-6-11-6-10-6-6-3-1-1-2-2-1-1 0-2 0-2 0-2 1-2 2-1 1-2 2 0 2-1 2 1 2 0z"  fill="#fff500" /><path d="M92-163l0-6 1-14 2-13 2-13 3-15 7-17 8-15 6-15 6-14 5-16 2-16-1-16-4-16-8-17-4-9-5-9-6-10-5-10-5-8-10-17-10-15-10-15-9-17-8-17-4-19-1-19 3-18 5-16 5-17 4-16 3-16-1-15-3-15-6-14-7-13-6-14-6-15-5-14-6-13-6-13-6-11-5-9-7-13-7-10-9-9-8-8-11-8-29-31 0 0 0-1 46 10 8 6 8 7 7 7 9 11 6 9 5 9 4 9 5 10 6 12 6 13 6 15 6 14 4 14 6 13 7 15 6 16 4 19 1 10-1 20-4 18-5 17-5 15-4 14-2 14 2 15 5 15 8 15 9 15 9 16 10 16 5 8 6 10 5 9 5 9 6 10 6 9 5 10 4 10 3 10 2 10 1 10 0 10-2 21-6 17-6 17-8 15-7 14-6 13-3 13-3 14-3 13-3 11-1 6 0 2-1 2-1 1-2 2-2 0-2 1-2-1-1 0-2-1-1-2-1-1-1-2 0-2z"  fill="#c2e1ff" /><path d="M108-163l1 7-1 17-4 18-3 10-4 10-3 9-4 10-4 10-4 11-5 10-4 11-4 11-5 11-5 11-5 12-6 12-7 11-8 11-8 11-8 10-8 11-8 11-8 11-8 10-8 11-7 11-6 11-5 11-5 11-3 11-4 12-4 12-3 13-2 12-3 13-2 13-1 14-1 14-2 14-1 13-3 13-2 12-3 11-3 11-3 10-4 10-8 16-8 14-8 12-9 12-10 12-9 10-8 10-7 10-6 10-7 9-7 12-5 12-6 11-5 11-4 9-8 7-10 3-11 1 0 0 0 0 2-20 5-10 5-11 6-10 6-11 6-9 6-10 7-9 7-9 8-10 9-10 10-11 10-11 9-10 8-10 9-12 8-15 8-17 3-10 3-11 3-12 2-12 2-13 1-13 1-14 1-14 2-14 2-14 3-13 3-13 3-12 4-12 5-13 5-12 6-11 6-12 8-12 7-10 8-11 8-11 8-11 7-11 8-11 8-10 6-11 7-10 5-11 5-11 4-12 5-11 4-11 4-11 4-10 4-10 4-11 4-10 3-9 7-17 4-16 2-14 0-7 0-2 1-2 1-1 1-2 2-1 2 0 2 0 1 0 2 1 2 1 1 2 0 1 1 2z"  fill="#005bbb" /><path d="M97-170l6-3 11-6 11-6 10-8 11-8 10-8 9-8 10-8 10-7 10-6 10-6 11-7 12-6 12-6 12-5 13-5 14-4 16-2 15 2 15 6 16 9 14 11 13 10 14 11 12 10 13 9 12 10 12 10 13 11 12 11 13 13 8 8 8 10 7 9 9 9 9 8 10 8 11 7 11 6 12 6 13 6 13 6 14 5 15 5 15 5 14 5 14 5 13 7 13 6 12 8 13 6 12 8 13 8 13 8 14 9 15 8 16 8 17 8 17 6 17 7 19 6 18 6 18 3 18 4 118 22 0-1 0 1-119-18-18-3-18-4-19-5-19-5-18-6-17-6-18-7-17-7-16-8-14-8-13-8-13-8-12-7-13-7-12-7-12-7-13-5-13-5-14-5-15-5-15-4-16-5-13-6-13-5-13-6-13-6-12-7-12-8-11-8-10-9-8-9-8-8-15-14-13-11-11-11-12-9-12-10-12-9-13-10-13-10-13-10-13-10-13-8-12-6-14-3-10 1-11 3-12 5-11 5-12 5-10 5-11 6-10 6-10 6-9 5-9 7-10 8-12 8-11 7-12 8-13 6-13 5-6 2-2 0-2 0-2 0-2-1-1-1-1-2-1-2 0-2 0-2 1-1 1-2 1-1 2-1z"  fill="#005bbb" /><path d="M106-168l5 5 10 11 11 13 11 13 10 15 8 16 7 17 7 18 3 10 3 11 4 11 4 11 5 11 4 12 5 12 5 11 4 12 4 11 4 12 4 11 3 13 2 13 1 14 1 14 1 13 0 13 1 13 0 12 0 12 0 13 0 11 0 12 1 11 0 11 0 10 0 19-1 18-1 18 0 17 1 16 4 17 5 15 6 13 6 11 7 8 8 7 8 7 8 6 7 7 10 11 8 9 7 8 10 7 12 5 10 3 13 5 19 29 0 0 0 0-36-4-13-4-12-6-9-4-11-9-9-10-7-9-7-10-9-9-7-7-9-7-9-10-8-12-7-13-7-15-5-18-3-18-2-19 1-19 2-18 2-17 1-18 0-10 0-11 0-11 0-12 0-12 1-12 0-11-1-13 0-12 0-13-1-13-1-13-2-13-2-12-4-12-3-11-3-11-4-11-5-11-5-11-5-12-5-11-6-12-5-11-4-12-4-10-4-10-5-17-7-16-7-14-9-14-9-13-9-13-10-12-4-5-1-2-1-2 0-2 0-1 1-2 1-2 2-1 1-1 2 0 2 0 2 0 2 1 1 1z"  fill="#005bbb" /><path d="M93-159l-3-5-7-10-8-10-8-9-8-8-8-6-9-9-8-7-8-7-7-7-7-10-4-11 0-12 1-11-1-11-5-10-3-12-1-10-4-9-8-9-5-9 0-23 0 0 0 0 19 4 11 6 8 9 6 10 4 10 2 10 1 10 3 10 3 10 1 11-1 11-2 11 5 9 7 8 9 8 7 8 9 9 8 10 7 10 8 11 5 9 4 10 1 4 1 2 0 2-1 2 0 2-2 1-1 1-2 1-2 0-1 0-2 0-2-1-1-2-1-1z"  fill="#c2e1ff" /><path d="M107-160l-1 5-3 14 0 12 0 12 1 11 2 10 4 11 5 9 5 11 7 7 11 3 12-1 10-1 13-3 11-4 10-2 11 0 10 1 11 4 11 3 10 3 9 6 13 4 0 0 0 0-5 11-7 7-10 4-11-2-11-3-10-3-10-4-11 0-12 4-13 3-13 2-12 1-12-1-14-4-11-7-8-9-5-10-5-11-4-11-3-10-1-12-1-13 1-14 3-14 3-10 3-9 3-5 0-2 2-1 1-1 2-1 2 0 2 0 1 0 2 2 1 1 1 2 1 1 0 2-1 2z"  fill="#fff" /><path d="M106-158l-3 6-9 12-9 12-8 12-8 13-8 12-7 11-7 11-5 10-3 10-2 12-2 12-1 12 0 13 1 13 1 13 0 13 1 11 2 12 3 12 4 13 5 15 6 17 7 18 4 10 4 10 5 12 4 11 5 12 4 12 4 13 2 12 1 12 1 12 1 12 0 12 0 12 0 13 0 12-1 11-1 12 0 12-2 11-1 11-2 11-2 10-2 11-2 12-3 12-3 12-4 11-4 12-5 11-6 11-6 10-6 11-6 11-6 12-5 12-5 13-5 12-4 13-4 12-2 12-1 12 1 11 1 12 1 13 2 14 2 14 1 14-5 90 0 0 0 0-9-89-1-13-2-14-2-14-2-13-1-13 0-14 1-13 2-13 4-13 4-13 5-13 5-13 5-12 5-13 6-12 6-11 6-11 6-9 4-10 4-11 3-11 3-11 3-11 2-12 1-11 3-10 2-11 1-10 2-11 0-11 1-11 1-12 0-12 0-11 0-12-1-12 0-11-1-11-2-11-2-11-3-12-5-11-5-11-5-11-5-10-6-11-5-10-5-10-3-9-6-17-6-15-5-14-3-15-2-13-1-13-1-12 0-14-1-14 0-15 2-14 2-13 3-14 5-13 6-13 8-11 8-10 8-12 9-12 10-13 10-12 9-10 5-5 1-2 2-1 1 0 2 0 2 0 2 1 2 1 1 1 1 2 0 2 0 2-1 2-1 1z"  fill="#005bbb" /><path d="M98-155l-7-2-15-4-16-6-15-8-15-7-15-5-16-4-16-3-15 0-16 1-18 3-17 5-21 7-12 5-14 5-15 5-17 5-17 6-18 7-20 7-20 7-21 6-21 7-21 8-20 7-21 8-22 8-23 9-25 10-27 10-29 11-30 10-30 9-32 9-32 8-31 5-32 3-33 3-32 2-34 3-34 4-35 4-36 6-34 6-33 7-31 7-30 8-27 9-25 8-23 8-22 9-22 9-21 8-21 8-20 7-19 6-19 6-18 6-18 5-17 6-16 6-15 5-15 6-14 6-13 6-13 6-13 5-12 7-13 6-13 6-14 5-14 5-14 6-15 5-15 7-14 8-15 9-15 9-15 10-15 9-14 10-14 9-94 62 0 0 0 0 90-68 14-9 14-10 15-9 15-10 15-10 14-10 15-9 15-7 15-7 15-5 13-5 14-5 13-6 12-5 14-6 13-6 13-5 14-5 14-5 15-5 16-5 16-5 17-5 18-5 18-5 19-6 19-6 20-7 21-8 21-8 22-9 22-8 23-9 26-8 27-8 29-8 32-8 33-6 34-7 35-6 35-4 35-3 33-4 33-2 33-3 31-3 32-5 32-8 31-9 31-9 30-10 28-11 27-11 26-9 23-9 21-8 21-8 20-8 21-8 20-8 21-8 20-8 18-8 18-9 16-9 17-7 14-6 13-7 12-5 11-5 11-5 10-3 10-3 19-2 18-2 18 1 18 3 17 5 18 7 15 7 14 8 14 7 14 5 7 3 1 1 2 1 1 1 1 2 0 2 0 2-1 2-1 2-1 1-2 1-2 0-2 1-1-1z"  fill="#005bbb" /><path d="M106-168l5 4 9 9 10 9 10 10 9 12 8 13 7 12 6 11 5 11 6 10 6 10 6 11 8 12 7 15 7 15 7 16 8 15 9 15 11 16 5 9 5 10 4 9 4 11 2 10 2 10 1 19-2 17-4 15-7 13-7 12-8 11-8 11-9 11-12 11-13 11-17 12-9 5-9 5-9 4-18 9-17 10-9 5-15 13-14 13-14 14-14 13-14 12-14 12-13 12-12 10-12 10-10 8-43 15 0 0 0 0 24-31 10-6 11-8 12-9 12-11 14-12 14-11 14-12 14-13 14-14 8-8 8-7 9-7 9-6 9-6 9-5 9-5 17-9 16-9 14-11 12-11 10-9 8-11 9-10 7-10 7-10 6-9 4-10 1-13 0-16-3-17-7-17-9-16-12-16-11-17-9-16-8-16-6-14-7-12-7-13-7-11-6-11-5-11-5-11-5-11-6-12-7-11-7-11-8-10-10-10-8-10-4-5-1-2-1-2 0-1 0-2 1-2 1-2 1-1 2-1 2-1 2 0 2 1 2 1 1 1z"  fill="#fff500" /><path d="M95-168l3-4 9-11 10-9 9-8 8-7 8-6 10-6 11-6 11-6 7-6 8-7 10-8 11-7 11-7 9-6 8-7 8-7 6-10 4-9 9-6 15-9 0 0 0 0 6 11 1 10-2 11-5 9-7 11-8 7-9 8-9 7-10 6-10 6-10 6-9 6-9 8-9 6-10 5-11 5-11 4-10 6-9 6-9 6-10 7-11 9-4 3-1 1-2 1-2 0-2 0-1 0-2-1-1-2-1-1-1-2 0-2 1-2 0-2 1-1z"  fill="#fff500" /><path d="M98-170l7-3 18-5 20-2 10-1 11 0 11 0 11 0 12 0 11 1 12 1 12 2 12 3 12 5 11 6 11 7 11 8 10 8 9 9 9 8 8 9 8 9 8 9 7 9 8 9 7 10 6 10 7 11 6 11 5 12 5 13 3 13 4 13 3 12 3 13 3 12 3 12 2 12 2 13 2 13 1 13 0 13 0 13-1 12-1 12 0 12-1 10 0 11 2 19 4 17 5 19 7 18 7 18 9 13 11 12 13 11 8 6 9 7 8 6 9 7 8 7 15 12 15 9 16 6 19 5 11 2 11 2 11 3 11 3 11 2 11 3 10 2 10 2 10 2 10 1 19 3 19 4 10 3 58 41 0 0 0 0-57-19-15-6-18-4-19-3-10-2-10-2-11-2-11-2-10-3-11-2-11-2-11-3-11-2-11-1-11-3-10-2-11-4-9-4-9-5-8-6-9-6-7-7-16-13-8-6-9-6-8-6-9-7-7-7-13-15-10-17-4-9-3-10-4-9-3-10-3-10-2-10-2-10-2-10 0-10 0-11 0-11 1-11 1-11 1-12 0-12 1-12-1-12-1-12-1-12-2-13-2-12-3-12-3-12-3-12-3-12-4-12-4-12-4-12-5-11-6-11-6-10-6-9-7-9-7-9-7-9-7-9-8-9-8-8-8-8-9-8-9-7-10-7-10-6-10-5-10-4-10-3-11-2-11-1-11 0-11-1-11 0-10 0-11 0-10 1-18 2-16 3-7 2-2 0-2 0-2 0-1-1-2-2-1-1 0-2-1-2 1-1 0-2 2-2 1-1 2-1z"  fill="#fff500" /><path d="M92-164l0-5 1-10 0-14 1-14 1-13-2-12-2-14-5-13-8-13-7-7-8-7-11-7-15-3-11-4-12-3-10-2-13-1-14-1-13 1-14 1-15 3-16 2-14 3-15 4-14 6-13 6-12 8-11 9-14 10-13 11-12 11-13 12-13 11-11 10-11 10-11 11-12 11-14 10-17 7-19 3-19 0-21 0-11-1-12-2-69-27 0 0 0 0 83 7 19 1 10-1 18-1 13-2 12-5 11-7 11-9 12-11 11-12 13-10 12-10 12-12 13-12 14-12 12-10 13-10 15-9 15-8 16-6 16-5 16-4 16-3 15-2 16-3 15 0 16 0 15 1 14 3 12 4 10 3 11 3 14 5 12 8 9 9 9 10 7 11 7 13 3 12 2 12 0 10 0 11-3 14-2 13-2 14-2 10-1 6-1 1-1 2-1 2-1 1-2 0-2 0-2 0-2-1-1-1-2-1 0-2-1-2 0-1z"  fill="#fff500" /><path d="M108-160l-2 6-4 13-5 12-6 12-4 11-4 11-3 10-5 13-1 11 0 12 2 11 5 9 8 7 8 8 8 10 5 9 7 9 6 10 1 10-6 9-7 8-3 3 0 0 0 0-8-10-7-8-5-9-7-10-6-10-7-8-8-7-6-10-5-12-2-11 0-11 1-13 4-14 5-14 5-11 5-11 6-12 6-10 6-11 5-11 2-6 1-2 1-1 2-2 2 0 2-1 2 1 1 0 2 1 1 2 1 1 1 2 0 2 0 2z"  fill="#fff" /><path d="M105-168l5 3 8 6 12 9 10 10 9 11 8 11 7 9 8 10 7 8 8 6 11 2 11 2 12 5 10 6 10 8 10 6 11 6 11 4 11 4 11 6 12 7 12 2 11 1 13-2 19-4 20-4 11-3 11-3 12-2 12-3 13-1 13-2 14-2 14 0 15 0 13 1 88 14 0 0 0 0-88 1-13 0-13 0-14 2-13 2-13 3-11 2-12 3-11 4-11 3-11 4-10 3-10 3-19 6-18 3-15 0-14-2-12-4-14-8-12-5-11-3-9-5-9-4-13-9-9-6-10-7-10-2-11-2-10-5-9-8-7-8-7-9-6-9-7-11-6-11-6-9-8-10-10-10-8-8-3-4-2-1 0-2-1-2 0-2 1-1 0-2 2-2 1-1 2 0 2 0 2 0 2 0 1 2z"  fill="#005bbb" /><path d="M102-155l-6 3-10 6-10 7-12 9-12 9-14 9-16 8-18 7-18 6-18 6-18 4-17 4-15 3-14 2-13 2-13 0-11 1-11-1-14-2-11-2-13 1-10 4 2 11 6 9 10 5 11 5 13 17 0 0 0 0-20 10-11-1-9-3-10-6-9-8-8-11-4-12-3-10 1-13 5-10 10-8 10-4 13-2 11-1 12 1 12 3 13 2 15 1 10 0 13-1 13-1 15-3 16-3 17-4 18-6 17-6 15-6 15-7 13-8 12-8 13-8 12-8 14-6 7-1 2-1 1 1 2 0 2 1 1 1 1 2 1 2 0 2 0 2-1 2-1 1-2 1-2 1z"  fill="#fff" /><path d="M99-155l-6 0-11-2-10-2-10-2-10-3-9-4-10-6-9-8-7-9-5-13-2-11-2-11-1-10-2-11-2-13-3-10-4-10-4-11-4-10-3-10-6-10-5-9-7-10-8-8-12-7-12-5-12-3-15-3-10-1-12 0-12 1-13 1-13 3-15 4-16 3-16 3-15 3-13 3-12 5-10 4-11 5-42 4 0 0 0 0 32-28 11-5 12-4 13-5 15-4 15-3 16-4 14-3 15-4 16-4 14-2 14-2 14 0 13 1 12 2 11 2 11 4 10 4 10 4 9 6 10 9 7 9 6 10 6 11 5 9 3 10 4 10 3 10 5 11 4 12 3 11 1 11 1 10 1 10 2 11 2 11 5 10 7 7 11 6 12 5 13 5 10 3 5 2 2 0 2 1 1 2 1 1 1 2 0 2 0 2-1 2-1 1-2 1-2 1-2 0-2 0z"  fill="#005bbb" /><path d="M101-171l6 0 13 0 13-1 12 0 12-1 11 0 14-3 10-3 12-4 11-5 12-6 12-7 14-6 14-4 14-3 15-1 14-1 13 1 13 0 12 1 11 0 11-2 11-4 12-5 14-7 12-7 12-7 12-8 9-6 7-7 8-7 9-12 6-9 6-9 7-11 6-10 6-11 6-11 8-11 6-9 4-12-2-9-24-34 0 0 0 0 38 8 8 8 6 9 2 11 0 11-4 11-5 11-7 10-6 10-7 10-6 12-7 11-6 10-7 11-7 9-8 10-8 8-9 8-10 8-12 7-12 8-13 8-14 8-13 6-15 7-15 3-14 1-14 0-12-1-12-1-12 0-12 1-12 1-12 3-12 4-11 6-13 6-13 6-13 5-13 4-12 2-12 1-12 0-11 0-13-1-14 0-13-2-6 0-2-1-2-1-2-1-1-1-1-2 0-2 0-2 1-2 1-1 1-2 2-1 2 0 2-1z"  fill="#c2e1ff" /><path d="M101-171l6 1 12 0 11-1 11-1 12 1 11 1 11 2 11 4 9 5 10 6 9 6 12 6 14 4 12 3 14 4 12 5 10 3 13 1 14-1 11-4 10-6 10-6 9-6 8-8 8-8 9-8 8-7 8-10 7-8 8-9 8-7 11-3 10 2 12 8 0 0 0 0-10 13-7 7-8 8-7 8-9 10-8 8-9 7-8 8-10 9-11 8-12 7-12 6-10 4-11 4-13 1-13 0-13-2-13-4-11-5-11-3-12-3-12-3-12-5-11-6-9-7-11-7-11-6-12-4-15-2-11 0-12-1-13-2-6-1-2 0-1-1-2-1-1-2-1-1 0-2 0-2 1-2 1-2 1-1 2-1 2 0 2-1z"  fill="#fff" /><path d="M100-171l6 0 11-1 12 0 11 0 12-1 12 0 13-1 14-1 13-1 12-2 10-3 11-6 11-8 11-10 10-10 6-10-2-12-2-14-2-12-1-12-1-13 1-12 2-12 3-11 5-11 6-9 11-7 11-3 13-1 13-1 15 2 11 2 11 5 35 32 0 0 0 0-41-2-13-4-14-3-10 0-13 1-9 5-4 11-2 12-1 12 1 11 1 13 1 11 3 13 0 10-2 11-5 9-8 8-7 7-8 7-9 7-9 7-10 6-12 5-13 3-14 2-14 1-13 0-14 0-14 1-11-1-12-1-11-1-11-1-6-1-2 0-2 0-1-2-2-1-1-2 0-2 0-1 0-2 1-2 2-2 1-1 2 0 2-1z"  fill="#c2e1ff" /><path d="M96-156l-5-2-10-4-10-2-11-1-11 0-13 2-11 4-11 6-15 10-14 10-12 10-10 10-6 9-4 13-2 10-1 11-1 12-2 10-2 12-2 10-2 14 2 13 4 13 5 11 5 11 5 12 5 13 5 11 5 8 10 9 9 6 11 5 12 4 11 4 13 4 13 3 14 1 17 1 15 1 13-2 14-4 13-4 13-6 16-6 15-6 55-11 0 1 0 0-53 35-16 6-15 7-15 6-15 4-16 4-18 1-16-1-18-1-16-2-14-3-13-4-13-5-14-6-13-7-12-8-9-11-8-12-6-12-4-13-5-11-5-11-5-11-5-13-2-13-1-13 1-12 3-11 2-10 2-10 2-10 2-11 1-12 4-14 6-14 10-11 11-11 13-11 15-11 15-10 15-9 17-5 15-1 15 1 14 2 12 5 11 6 4 4 2 1 1 1 1 2 0 2 0 2-1 2-1 2-1 1-2 1-2 0-2 1-1-1-2-1z"  fill="#fff" /><path d="M96-170l5-3 9-6 10-8 12-8 14-9 14-9 16-10 16-11 14-13 13-13 12-14 13-12 12-12 9-11 6-12 5-13 5-15 6-17 7-17 8-18 6-19 3-10 3-12 4-12 3-11 1-11 1-11 0-11 0-10 0-11-1-10 0-11-1-10 0-11 0-10 1-11 1-11 2-12 3-12 5-12 4-11 6-11 5-11 6-11 5-10 6-10 6-10 6-8 6-9 11-14 10-13 8-12 7-11 5-9 5-10 5-9 6-13 4-10 3-12 3-13 4-14 21-44 0 0 0 0 4 49-4 14-3 16-4 13-5 11-5 11-6 9-5 9-6 9-8 11-8 11-10 12-11 13-12 15-6 8-6 9-5 9-6 10-5 11-5 10-5 11-4 11-4 10-2 10-2 10-2 21 0 10 0 10 0 10 1 11 0 11 0 11 0 11 0 11-1 12-1 13-3 12-2 12-3 12-2 12-3 10-7 20-7 17-7 16-5 16-6 15-7 16-10 14-12 13-12 11-12 12-13 14-8 8-7 7-9 7-8 6-8 6-16 10-16 9-13 8-12 8-11 6-11 6-5 2-2 1-2 0-2 0-2 0-1-1-2-2 0-2-1-1 0-2 0-2 1-2 1-1 2-2z"  fill="#c2e1ff" /><path d="M97-155l-5-2-11-5-10-6-9-7-11-9-9-6-10-6-12-4-11 0-10 3-10 6-9 8-10 10-7 10-6 10-2 12 1 10 1 14 1 10 0 11 0 11 1 11 1 12 1 14 0 13-2 13-3 11-4 10-6 12-5 11-6 9-7 10-9 9-10 5-11 2-11-1-10-3-17-27 1 0-1 0 34 0 10-3 7-8 6-10 6-11 5-9 4-12 1-14 0-11-2-12-2-14 0-12-1-15 0-14-2-14 0-11 2-12 4-10 5-9 6-8 6-8 8-8 8-8 9-8 11-6 11-3 11-2 14 0 14 4 9 4 9 6 8 7 8 7 8 7 10 10 11 9 5 2 2 1 1 2 1 1 1 2 0 2 0 2-1 2-1 1-2 1-2 1-2 1-1-1-2 0z"  fill="#fff" /><path d="M104-169l7 4 15 7 16 5 16 1 16-3 17-9 9-6 11-7 11-7 10-8 12-9 13-10 13-11 13-14 13-15 13-16 12-17 11-17 11-18 11-19 11-20 13-21 13-21 15-21 15-19 17-19 17-17 17-17 17-16 16-16 15-15 15-14 15-12 13-11 14-10 13-8 13-8 12-6 12-6 12-5 11-4 12-5 11-3 11-4 10-3 11-3 10-4 10-5 11-4 11-4 11-4 10-3 12-4 11-3 12-4 12-3 12-3 12-3 11-3 11-4 10-4 9-4 9-5 10-6 9-5 9-6 10-6 9-6 9-5 15-11 14-11 12-10 11-10 10-9 6-8 6-9 5-10 5-10 5-12 31-39 0 0 1 0-12 55-6 12-6 11-7 11-8 10-11 10-11 9-13 9-14 11-15 11-9 5-9 6-9 5-9 6-10 5-10 6-10 6-10 5-10 5-11 4-12 3-11 4-12 2-12 4-11 3-12 4-11 3-11 3-11 4-11 3-10 4-11 4-11 4-11 4-11 3-11 3-11 2-11 3-11 3-11 4-12 4-13 4-12 5-13 6-14 8-14 8-14 11-14 12-15 13-16 15-16 16-17 17-17 16-17 18-16 18-15 19-15 21-13 22-12 20-11 20-10 20-11 18-11 18-11 17-12 17-12 17-12 17-12 13-12 11-11 10-11 9-11 8-10 7-10 7-11 6-10 5-11 3-12 2-11-1-10-2-17-7-16-9-7-5-2-1-1-1 0-2-1-2 0-2 1-2 1-1 1-2 2-1 2 0 2 0 1 0 2 1z"  fill="#fff500" /><path d="M93-166l2-5 2-11 1-15 0-11-1-10-2-14 0-14 0-16 1-18 3-19 4-19 4-20 3-18 1-17-1-18-2-19-5-19-9-16-6-9-6-9-8-9-9-10-9-10-9-9-9-11-10-10-9-11-10-10-11-10-11-10-12-9-13-9-14-10-15-10-14-10-15-10-15-10-14-10-15-10-15-10-14-9-15-9-15-6-14-6-13-5-13-4-12-3-11-2-10-1-18-1-16 0-16 1-15 1-14 3-16 5-16 5-18 7-16 7-15 9-14 8-12 10-10 11-44 45 0 0 0-1 28-59 12-12 14-11 15-10 17-9 18-7 18-7 18-6 17-4 17-3 16 0 16 0 18 2 19 3 10 2 11 4 12 4 13 5 14 6 14 6 14 8 15 8 15 9 15 10 14 10 16 10 14 10 15 9 15 9 15 9 15 9 14 9 13 9 13 10 11 10 10 10 10 10 10 10 10 10 10 9 10 10 9 10 9 9 7 10 7 9 7 10 5 11 3 11 3 11 1 10 2 10 1 20-1 20-3 19-2 10-4 20-3 18-2 15 1 17 0 15 0 12 1 13 0 13-2 12-3 12-5 12-3 6-1 1-1 2-2 1-2 0-1 1-2-1-2-1-2-1-1-1-1-2 0-2 0-2 1-2z"  fill="#005bbb" /><path d="M98-155l-7-1-14-2-15-2-15-3-15-4-14-6-12-9-10-10-11-11-11-11-11-14-12-14-11-13-11-11-13-12-12-11-14-13-13-13-12-13-10-12-10-11-10-11-9-11-9-10-10-9-10-10-9-9-8-9-9-8-11-9-12-8-15-12-8-9-7-8-7-9-8-9-7-9-9-9-8-11-9-11-8-11-9-12-9-11-9-12-8-12-7-13-7-13-6-12-5-12-5-12-5-11-4-11-5-12-5-11-5-13-4-12-4-13-4-11-4-12-4-12-5-12-5-11-6-12-35-84 0 0 0 0 49 77 5 12 6 13 5 12 4 12 4 12 4 12 4 12 4 12 4 12 5 11 5 12 5 12 4 11 4 11 5 12 6 12 6 12 8 12 8 11 9 11 9 11 10 11 9 11 9 10 8 9 9 9 9 9 8 8 8 8 13 14 13 9 15 10 12 10 10 9 9 10 8 9 9 9 10 11 10 11 9 10 9 11 10 12 11 12 10 13 12 12 13 11 14 12 12 12 13 13 12 14 11 13 12 12 11 12 10 11 8 8 8 7 10 6 13 4 14 3 15 4 14 4 7 2 2 0 1 1 1 2 1 1 1 2 0 2 0 2-1 2-2 1-1 1-2 1-2 1-2-1z"  fill="#c2e1ff" /><path d="M94-157l-4-4-7-8-8-10-10-9-10-1-11 2-15 2-11-1-14-1-14-1-12-2-11-1-12-1-14-3-11-4-10-5-10-8-9-9-7-9-6-8-7-9-6-8-9-11-8-11-8-8-7-7-8-8-9-8-10-4-14-2-14-1-11-2-12-2-30-15 0 0 0 0 37-14 15 2 13 2 15 1 10 2 10 4 12 8 9 8 10 10 9 9 8 10 9 11 6 9 7 8 5 8 10 12 9 10 9 6 10 5 11 2 11 1 12 2 13 2 11 2 13 2 13 0 12-1 14-1 10 2 12 7 9 10 7 12 7 11 3 4 1 2 1 2 0 2 0 2-1 1-1 2-2 1-1 1-2 0-2 0-2 0-2-1-1-1z"  fill="#fff500" /></svg>