<svg width="1200" height="675" viewBox="-500 -500 1200 675" xmlns="http://www.w3.org/2000/svg"><path d="M-500-500h1200v675h-1200z" fill="#000"/><path d="M95-157l-5-3-8-6-11-9-10-10-9-11-7-11-6-12-6-10-7-9-9-7-8-6-8-6-9-6-8-9-6-9-5-10-4-12 0-12 2-11 5-11 6-8 9-12 6-10 2-10 1-15 0-10 2-12 3-11 3-10 6-13 5-12 2-10-4-11-5-9-8-13-5-9-6-10-12-43 0 0 0 0 40 32 7 11 7 12 7 13 6 13 2 11 0 10-4 14-6 13-5 11-4 11-2 13 0 11-1 10-1 13-4 13-6 11-9 11-6 9-4 10 1 11 4 9 7 8 11 8 8 6 9 7 9 9 7 9 6 12 5 12 5 10 5 9 7 10 9 10 10 11 4 3 1 2 1 2 1 1 0 2-1 2-1 2-1 1-1 1-2 1-2 0-2 0-2-1-1-1z"  fill="#c2e1ff" /><path d="M107-166l3 5 6 11 6 8 11 9 9 7 10 7 9 7 9 8 9 9 9 11 8 11 8 10 6 8 10 10 8 10 8 9 8 7 9 8 8 8 9 7 12 2 10-1 9-4 9-7 8-8 8-9 7-8 10-10 10-11 8-8 6-8 6-8 6-9 6-10 4-11 27-40 0 0 0 0 2 44-5 13-6 13-6 11-7 11-8 10-10 11-7 9-11 11-9 10-9 10-9 10-8 6-8 6-14 5-12 2-13 0-13-3-10-5-9-8-8-8-8-8-9-9-8-9-9-10-9-11-6-8-8-10-7-10-8-11-7-8-8-8-8-7-8-8-9-7-10-8-8-11-7-11-4-12-2-5-1-2 0-2 0-2 1-2 1-1 2-1 2-1 1-1 2 1 2 0 2 1 1 1 1 2z"  fill="#c2e1ff" /><path d="M94-157l-5-5-11-10-13-11-14-15-6-8-5-8-9-17-8-17-7-16-7-15-7-12-8-11-7-11-7-8-9-11-9-8-8-8-8-7-10-7-8-6-8-8-7-7-8-8-8-10-7-9-8-10-6-8-6-10-6-12-7-11-5-9-4-10-3-14-2-12-3-10-5-10-8-9-7-31 0 0 0 0 35 16 8 11 6 13 3 10 2 10 2 13 4 12 7 12 5 8 7 13 6 9 9 10 7 11 8 9 7 8 9 9 8 7 8 7 8 7 7 8 7 8 10 11 6 9 7 9 7 11 7 13 8 14 8 16 6 16 7 16 8 15 9 15 12 13 12 12 11 12 5 5 1 2 0 1 1 2 0 2-1 2-1 1-1 2-2 1-2 0-2 0-1 0-2-1-2-1z"  fill="#005bbb" /><path d="M107-166l3 6 7 10 7 9 7 9 8 8 9 9 9 10 8 12 7 12 6 13 5 12 3 11 2 12 0 11-3 11-3 9-6 14-6 11-5 10-6 12-3 11-2 13 2 12 6 8 11 6 11 6 10 2 12 1 14-2 11 0 11-1 13-1 11 1 15-2 11-1 12-1 10-3 9-4 48-10 0 0 0 0-35 35-14 6-14 4-13 1-11 2-12 1-12 0-10 0-10 1-12 1-11 1-10 1-11 0-12-1-12-4-14-7-12-7-8-7-6-9-5-10-2-16 1-14 3-14 4-11 5-10 7-12 6-13 6-10 4-13 1-10-2-13-4-10-5-11-6-11-7-11-7-9-8-9-9-10-7-11-6-11-6-12-2-6-1-2 0-2 0-2 1-2 1-1 2-2 2 0 2-1 2 1 2 0 1 1 2 2 0 1z"  fill="#fff" /><path d="M108-164l2 5 3 11 3 11 3 12 3 11 2 14 1 14 1 13 1 13 1 14 1 14 1 14 1 12 2 11 1 12 2 10 3 11 2 11 1 10 2 12 1 12 1 12 3 13 4 12 5 10 7 9 8 9 8 8 9 7 9 6 10 5 13 6 14 5 13 5 13 4 14 2 14 2 11-2 11-4 10-7 13-10 11-12 11-15 10-17 8-17 5-10 4-9 4-10 7-18 29-54 0 0 0 0-13 71-4 9-4 10-4 10-4 9-4 10-5 10-4 9-6 9-5 9-7 9-6 8-7 8-14 12-15 9-17 6-17 2-16-2-15-3-16-4-14-5-15-5-14-6-13-7-11-7-11-9-10-10-9-10-8-12-8-14-5-15-3-15-2-13-1-12-1-11-2-10-1-10-2-11-2-12-1-11-2-13-1-13 0-14-1-13-1-13-1-15 0-13-1-12-1-13-2-11-1-11-2-12-2-11-1-6 0-2 0-2 1-1 1-2 2-1 1-1 2-1 2 0 2 1 2 1 1 1 1 2 1 2z"  fill="#fff500" /><path d="M108-162l0 6 0 14-1 15-1 13-1 13 0 14 0 12 1 11 2 15 2 12 3 12 3 11 5 11 7 10 11 13 11 16 6 9 7 8 7 8 8 8 8 7 8 7 8 7 8 7 8 7 9 6 8 5 9 6 10 4 9 5 18 7 19 5 18 4 19 4 17 3 15 2 15 2 13 2 13 0 14-1 14-3 13-4 15-5 18-4 19-1 21 2 10 3 9 3 10 3 10 4 9 4 18 9 18 7 9 4 10 3 19 6 11 2 11 2 12 2 77 19 0 0 0 0-80-1-11-1-12-2-12-2-11-2-11-3-10-4-10-3-10-4-18-8-17-8-18-6-17-4-16-1-15 1-16 3-15 5-16 4-16 3-16 1-15-1-14-2-15-3-16-3-18-4-18-4-19-5-10-2-10-3-10-4-10-4-10-5-10-5-10-5-10-7-9-6-9-7-8-7-8-7-9-7-9-7-8-8-9-8-8-9-13-16-11-14-11-14-8-14-5-14-3-14-2-12-2-11-1-13 0-12 1-13 1-13 1-15 2-14 3-14 1-13 1-6 0-2 1-2 1-1 2-1 1-1 2 0 2 0 2 0 2 1 1 1 1 2 1 2 0 2z"  fill="#c2e1ff" /><path d="M103-170l6 2 12 4 12 3 13 4 12 4 12 3 12 2 12 4 13 6 12 7 14 10 11 9 12 9 11 10 11 12 11 14 10 17 9 18 10 17 5 10 5 10 5 9 6 10 5 9 6 9 6 9 6 9 5 10 5 10 4 10 4 9 7 19 8 17 6 18 6 16 5 17 3 17 1 18 1 16 1 16 1 16 4 15 6 12 9 10 10 5 10 4 14 0 12-3 13-7 11-8 30-39 0 0 0 0-6 51-11 12-12 7-11 6-12 4-13 1-14 0-15-4-15-7-14-13-10-16-6-18-3-18-1-17-1-17 0-16-1-14-4-15-4-17-6-16-6-17-7-18-4-9-8-19-9-17-5-9-6-9-7-9-6-10-5-9-6-10-6-9-5-10-6-9-5-9-9-16-9-14-10-12-10-11-9-8-12-9-12-10-11-8-11-6-9-5-10-4-12-3-13-4-12-5-12-5-12-5-13-5-5-3-2-1-1-2-1-1-1-2 0-2 0-2 1-2 1-1 2-1 2-1 2-1 2 1 1 0z"  fill="#fff" /><path d="M108-164l2 6 3 12 5 12 5 13 5 15 5 16 5 17 2 9 2 11 2 11 1 11 2 11 3 11 2 12 3 11 3 12 2 11 3 11 4 11 3 11 3 13 2 12 2 13 1 13 2 12 1 12 0 11 0 13-1 12-1 12-2 12-2 13-1 13-2 13-3 14-3 14-2 13-2 14-2 14-1 15-1 14 0 13 1 14 2 13 3 14 5 14 7 14 7 16 8 16 7 17 8 16 8 16 8 15 8 15 9 16 8 15 7 14 8 14 8 13 7 14 7 12 7 12 6 12 5 11 5 11 5 11 4 10 3 10 3 10 3 10 4 19 2 10 3 21 1 10 0 19-1 19-1 20-1 10-1 10-2 10-2 11-2 9-21 66 0 0 0 0 2-69 2-10 3-20 2-18 1-20 1-19 1-17-1-19-3-20-3-18-4-19-3-10-3-10-3-11-4-11-5-11-5-12-7-12-6-13-7-14-7-13-7-14-8-15-8-15-8-16-8-15-9-15-8-16-8-16-8-15-9-16-8-16-8-15-6-15-4-15-2-14-1-15 0-14 1-14 1-15 1-15 2-14 2-14 2-14 2-13 2-13 1-13 2-13 1-12 1-11 1-12 0-11 0-11-1-11-1-12-2-12-2-12-2-12-3-12-3-11-4-11-3-11-3-11-3-12-4-12-2-11-3-12-3-11-2-11-2-11-4-18-5-17-4-15-5-15-4-14-4-13-2-14-1-6 0-2 0-2 1-2 1-1 2-1 2-1 2-1 1 1 2 0 2 1 1 1 1 2 1 2z"  fill="#005bbb" /><path d="M102-170l6 1 14 3 12 5 12 4 11 4 11 2 13 0 14-5 13-8 10-8 11-9 13-9 16-9 10-4 11-3 11-2 11-2 12-2 12-2 12-3 13-3 12-3 12-4 12-5 10-4 9-6 9-5 14-13 13-16 5-9 4-9 6-19-2-17-5-16-9-13-13-11-16-11-9-6-8-5-9-6-10-6-9-5-9-6-10-6-11-6-11-6-11-7-12-8-12-7-13-7-14-9-14-8-15-7-14-6-15-7-16-6-14-7-15-5-15-4-14-2-15-1-14 0-13 1-13 2-12 3-10 4-9 4-8 6-9 6-14 12-48 40 0 0 0 0 37-52 8-7 9-6 9-6 10-5 11-5 12-3 13-2 13-2 14 0 15 0 15 1 16 3 15 4 15 6 15 6 15 6 16 6 15 6 15 7 15 7 15 7 13 7 14 6 12 7 11 6 11 6 11 6 10 6 10 5 10 6 9 5 9 6 10 6 8 6 9 5 8 6 8 7 8 7 7 9 5 10 4 11 2 10 1 11-1 12-2 11-4 11-6 11-6 11-7 9-8 9-8 7-9 7-9 6-11 6-11 5-12 5-13 4-13 5-12 4-13 4-12 3-11 2-11 3-18 5-15 7-11 8-12 10-11 9-12 8-12 6-13 4-14 2-14-2-13-3-12-5-12-6-11-5-11-5-6-2-2 0-1-2-2-1-1-2 0-2 0-2 1-1 0-2 2-2 1-1 2 0 2-1 2 1z"  fill="#c2e1ff" /><path d="M103-168l7 3 16 9 9 6 10 6 11 8 13 8 14 7 15 7 15 7 17 7 18 5 18 4 18 4 20 4 20 4 23 3 23 2 25-1 25-3 27-5 28-9 30-9 31-9 32-7 33-6 33-6 36-4 35-3 35-1 35 1 35 1 35 1 38 0 39 0 40 0 42-2 43-3 44-2 44-1 44 1 44 5 43 6 41 8 41 10 41 9 42 8 43 9 43 8 44 10 45 9 45 8 47 8 50 10 50 11 50 14 51 16 54 18 58 20 59 20 60 20 57 20 57 22 53 23 50 22 50 20 49 20 46 21 45 25 43 28 41 30 39 32 35 35 30 36 25 38 21 40 18 42 14 41 10 43 8 44 7 45 6 47 6 49 3 52 1 52 3 53 1 55 1 55 0 55-1 53-3 51-2 50-5 50-6 50-40 342 0 0 0 0 38-343 6-50 5-49 2-50 3-51 1-53 0-55-1-55-1-55-3-53-1-52-3-51-6-50-6-47-7-45-8-43-10-43-14-42-18-41-21-40-25-38-30-36-35-34-38-33-41-29-43-28-44-25-47-21-48-20-50-21-51-22-53-22-57-22-57-20-59-21-60-19-57-20-54-18-52-16-50-14-50-11-49-10-47-8-46-8-44-9-44-10-43-8-43-8-42-9-42-9-40-10-41-8-43-6-44-4-44-2-44 1-44 2-43 3-42 2-40 0-39 0-38 0-36-1-34-1-35-1-35 1-35 3-35 5-34 5-33 6-32 8-31 8-29 10-28 8-27 6-26 3-25 1-24-2-22-2-21-3-20-3-19-3-18-3-19-4-18-6-16-6-16-6-15-7-14-7-11-7-11-7-9-6-13-10-7-4-1-1-1-1-1-1 0-2 0-1 0-2 1-1 1-1 1-1 1 0 2-1 1 1 2 0z"  fill="#005bbb" /><path d="M107-158l-4 6-8 11-10 10-11 10-13 9-13 11-16 12-8 6-9 6-9 6-10 5-8 6-9 5-17 8-17 8-17 5-16 2-17 0-17-1-17 1-17 2-17 2-13 5-13 7-10 8-8 8-6 9-5 13-2 13 0 10 0 14-1 15-1 15-1 15-3 14-3 13-3 12-4 11-4 10-6 13-6 10-7 11-8 10-8 6-10 5-23-10 0 0 0 0 20-21 7-9 7-10 6-8 5-12 6-14 3-10 3-12 3-12 1-13 1-15 0-15 0-13 1-12 1-13 4-13 7-12 8-10 11-11 14-10 15-8 18-6 19-3 17-1 19-1 18 1 15 0 12 0 14-4 16-7 16-8 17-10 8-5 9-6 9-6 8-6 14-11 14-12 13-9 10-8 10-8 8-8 4-5 2-2 1-1 2 0 2-1 2 1 2 0 1 2 2 1 1 2 0 2 0 2-1 1 0 2z"  fill="#c2e1ff" /><path d="M102-155l-5 2-11 5-10 7-7 9 4 11 8 5 11 1 10-2 7-7 4-10 2-11 7-21 0 0 0 0 16 7 8 7 2 11-2 10-3 9-5 11-6 9-9 8-9 5-10 2-10 1-12-1-12-3-12-7-8-10-5-10-2-11 4-12 6-9 8-7 10-6 12-5 10-2 5-1 2 0 2 0 2 1 1 1 1 1 1 2 1 2 0 2-1 1-1 2-1 1-2 1-1 1z"  fill="#fff500" /><path d="M95-157l-5-3-8-6-9-6-8-7-12-9-10-7-9-5-10-5-11-2-13-3-11 0-13 3-12 5-16 7-18 7-17 7-16 8-13 8-14 9-14 8-15 8-14 7-11 6-10 6-11 8-9 9-8 8-9 9-6 8-5 9-8 7-18 6 0 0 0 0 0-17 1-11 5-9 6-8 9-8 9-8 10-8 7-7 10-6 10-6 12-6 13-6 13-7 14-8 13-9 15-8 15-9 17-9 17-8 17-8 15-8 15-5 13-2 11 0 14 3 13 3 11 5 10 6 10 7 11 9 7 7 11 11 7 7 8 8 4 4 1 1 1 2 1 2 0 1-1 2 0 2-2 1-1 2-2 0-2 1-2-1-2 0-1-1z"  fill="#005bbb" /><path d="M106-168l5 4 11 9 12 9 12 9 11 9 13 10 12 10 12 11 10 13 9 13 9 15 8 13 8 14 10 16 6 9 5 10 6 11 6 11 6 11 6 12 7 10 7 11 10 10 10 9 11 8 13 7 15 8 16 7 16 7 17 6 19 7 21 7 21 7 23 6 23 5 24 5 23 3 25 3 26 2 27 0 29 0 29-3 30-2 30-3 31-2 31 0 32 0 33 2 34 1 35 1 33 0 34-1 33-2 33-3 32-2 33-1 33 1 31 3 31 3 30 3 29 2 28 3 26 4 26 3 25 3 25 4 25 3 25 3 23 2 22 3 22 1 22 2 22 1 23 2 22 1 23 2 23 2 22 2 22 2 21 1 21 1 143 2 0 0 0 0-143 0-21-1-22-1-22-2-22-2-22-2-23-2-23-1-22-2-22-1-22-2-22-2-22-2-24-2-24-3-25-3-25-4-26-3-25-3-27-4-27-3-29-2-30-3-31-3-31-3-33-1-33 1-32 2-33 3-33 2-34 1-33 0-35-1-34-1-33-2-32 0-31 0-31 2-30 3-30 2-29 3-29 1-27-1-26-2-25-3-24-2-24-4-23-6-23-5-22-6-21-6-19-5-18-5-17-6-17-7-16-6-15-7-13-9-12-9-11-11-9-11-8-11-7-12-7-11-6-10-6-10-6-9-6-9-11-16-9-14-8-14-7-12-8-13-8-11-10-10-12-10-12-10-12-10-11-10-10-10-12-11-5-5-1-1-1-2 0-2 0-2 1-2 0-1 2-2 1-1 2 0 2-1 2 1 2 0 2 2z"  fill="#c2e1ff" /><path d="M100-154l-6 0-12 0-14-1-13-2-13-3-14-5-12-4-12-4-12-4-14-5-13-8-11-8-10-8-10-8-8-7-11-7-11-5-9-4-11-3-11-5-11-4-11-1-10 0-12 2-10 3-10 4-10 6-7 7-6 8-3 10-4 13-3 12-1 13-14 24 0 0 0 0-17-26 1-11 2-10 3-10 3-11 5-14 5-9 6-10 8-8 10-7 9-5 9-4 12-3 12-4 12 0 13 0 12 1 13 5 12 6 10 4 11 4 12 7 9 5 9 7 9 7 9 8 9 8 9 7 10 6 12 5 13 4 11 5 12 5 12 4 12 4 12 3 11 2 11 2 6 0 2 1 2 0 2 2 1 1 1 2 0 2 0 2 0 1-1 2-2 2-1 1-2 0-2 1z"  fill="#005bbb" /><path d="M92-163l0-5-2-10-1-10-1-14-3-15-3-12-2-13-2-15-3-14-6-15-8-17-10-17-5-10-4-9-9-17-10-14-9-11-10-11-10-11-11-10-10-8-13-7-16-7-17-6-17-3-18-4-18-1-10-2-11-2-12-2-12-3-13-3-13-4-12-5-13-6-13-7-12-8-13-9-12-10-13-11-13-10-13-10-13-10-14-9-14-8-14-8-15-7-15-8-15-8-15-9-16-10-15-12-16-14-16-15-15-15-17-16-17-16-17-16-17-16-19-16-19-15-19-15-20-14-22-13-23-11-25-7-25-4-172-5 0 0 0 0 173 3 25 4 24 8 24 10 22 13 20 15 20 15 19 14 18 16 18 16 17 16 17 16 17 15 16 15 16 14 17 13 15 11 15 10 16 8 15 7 15 8 15 7 15 8 15 8 14 9 13 10 14 9 13 10 14 9 13 9 12 8 12 7 12 5 12 5 11 4 13 4 12 2 12 2 11 2 20 2 20 2 18 3 19 4 19 6 18 7 16 9 13 11 11 10 11 12 10 12 10 13 10 16 10 17 4 9 10 18 6 9 5 8 5 10 7 18 4 17 2 15 2 12 1 12 2 11 1 12-1 10 0 10-1 10 0 6 0 1-1 2-1 2-1 1-2 1-2 0-2 0-2 0-2-1-1-1-1-2-1-2 0-1z"  fill="#c2e1ff" /><path d="M103-170l5 2 11 3 10 5 11 5 10 7 9 9 8 9 8 9 7 8 7 8 6 10 6 12 3 15 0 16-3 16-6 15-8 13-9 14-8 11-7 12-6 12-7 14-7 12-7 13-7 11-5 10-5 10-6 10-5 9-5 12-4 10-5 10-5 9-5 9-6 9-6 8-6 8-7 11-5 10-4 11-2 11-1 13-16 28 0 0 0 0-14-27 1-10 1-12 3-11 4-12 7-12 7-12 9-12 9-12 7-11 7-12 5-13 5-11 5-10 6-9 5-9 6-10 7-11 7-12 7-12 6-13 7-13 7-13 8-13 8-12 7-11 5-11 4-11 1-11-2-15-5-12-8-11-7-9-7-9-7-9-10-10-12-9-8-5-10-5-5-2-2-1-1-1-1-2-1-2 0-2 0-2 1-2 1-1 2-1 1-1 2-1 2 1 2 0z"  fill="#005bbb" /><path d="M93-166l2-6 5-12 5-14 8-14 8-15 8-14 7-15 7-17 6-19 2-10 1-10 0-11-1-11-1-11-3-10-3-10-4-10-6-10-6-10-6-10-8-10-8-10-9-9-10-9-11-9-12-10-12-10-13-9-13-8-14-8-13-9-14-8-15-8-14-8-15-8-13-9-13-9-13-9-13-8-13-8-14-8-14-7-15-7-16-7-17-7-16-6-17-5-17-5-17-5-16-5-16-5-17-6-16-7-17-6-16-7-16-8-15-7-14-9-13-8-11-10-10-9-10-10-8-11-8-12-7-12-5-13-4-14-3-15-1-15 1-16 2-15 3-16 4-15 6-15 6-15 6-15 5-15 6-16 4-14 4-14 1-14 1-12-1-13-1-11-3-11-2-11-18-80 0 0 0 0 31 77 3 12 2 12 0 12 0 13-1 14-3 14-3 15-5 15-5 15-6 15-5 16-6 15-5 14-4 15-2 14-2 15 0 14 0 14 3 14 3 13 5 12 6 11 7 11 7 11 9 10 9 10 10 9 12 9 13 9 15 8 15 7 17 7 16 6 17 6 16 6 16 6 16 4 17 5 17 5 17 5 17 6 17 6 16 7 16 7 15 7 14 8 13 8 13 9 13 9 13 9 13 8 14 8 15 8 14 8 15 7 14 8 14 8 14 8 14 9 13 9 12 10 12 9 11 9 11 9 9 11 8 10 7 11 7 10 6 12 5 11 4 11 3 12 2 12 1 13 0 12 0 13-2 12-3 11-3 10-7 18-8 16-9 15-8 13-8 14-6 13-7 11-3 6-1 1-1 2-2 1-2 0-2 0-1 0-2-1-2-1-1-1-1-2 0-2 0-2 1-2z"  fill="#fff" /><path d="M94-158l-5-4-7-10-7-9-7-7-8-7-9-6-9-6-11-6-11-6-11-5-11-5-9-4-10-4-13-6-12-7-11-6-11-7-10-7-10-5-13-6-12-7-11-8-10-12-8-12-8-11-7-11-8-11-8-13-6-13-6-14-5-14-4-12-3-12-2-11-2-10-4-11-6-10-8-7-22-19 0 0 0 0 20-11 11 2 12 6 9 10 6 11 6 13 2 10 2 10 2 11 3 10 3 12 4 12 6 12 6 12 6 10 8 11 8 11 8 11 7 10 10 11 12 7 10 5 12 6 13 8 9 7 11 6 10 7 12 6 12 7 10 4 11 6 12 5 12 7 11 7 11 8 9 8 8 9 8 10 6 10 6 10 3 5 1 1 1 2 0 2 0 2-1 2-1 1-2 1-2 1-2 0-2 0-1 0-2-1-1-2z"  fill="#c2e1ff" /><path d="M102-170l6 1 12 3 12 2 10 1 14 0 13-2 14-2 15 2 14 3 10 4 11 1 11-2 8-8 4-10 3-11 5-12 6-10 6-10 6-9 5-9 10-5 14-4 0 0 0 0 3 17 0 10-5 9-6 9-6 9-6 10-3 10-4 10-6 10-7 10-9 8-10 4-10 2-12 0-12-2-12-4-9-4-10-2-12-1-13 1-11 0-12-1-12-3-12-4-11-4-6-2-2-1-2-1-1-1-1-2 0-2 0-2 0-2 1-1 2-2 1-1 2 0 2-1 2 1z"  fill="#005bbb" /><path d="M94-168l4-5 7-8 8-7 8-7 10-6 10-4 12-1 12 1 11 1 11 1 10 0 11-1 14 0 14 0 14-2 15-2 14-3 13-3 13-4 13-4 13-3 13-2 12-1 11 0 14 0 10-1 11-1 11 0 11-5 9-7 7-7 7-8 6-12 6-9 6-9 7-7 11-14 0 0 0 0 14 22-4 13-7 10-6 9-7 11-8 11-10 10-7 7-11 7-10 5-13 1-13 0-12 1-13 0-14 0-10 0-11 0-11 2-11 3-13 4-14 4-15 3-16 3-16 2-16 2-13 0-12 1-14 0-12-1-11-2-14-2-13 1-10 5-12 9-8 6-4 4-2 1-2 1-1 0-2 0-2 0-2-1-1-2-1-1-1-2 0-2 0-2 1-2 1-1z"  fill="#c2e1ff" /><path d="M94-168l4-5 5-10 5-10 3-11 3-12 3-11 1-11 0-13-4-12-6-10-7-10-8-6-11-7-9-4-11 2-6 9-8 6-10 4-10 0-4-2 0 0 0 0 4-7-2-10 4-9 8-9 8-7 11-5 10-1 10 1 12 4 13 8 11 8 8 8 7 9 5 10 5 10 3 11 2 13-1 13-3 13-4 12-4 12-5 13-7 11-9 11-4 5-2 1-1 1-2 0-2 0-2 0-2-1-1-1-1-2-1-2 0-2 0-2 1-1 1-2z"  fill="#fff" /><path d="M93-167l3-6 7-11 9-11 10-9 11-9 12-9 13-9 12-9 12-12 13-14 13-14 12-12 10-14 10-14 9-16 8-17 6-20 4-11 4-11 5-11 6-11 7-11 6-11 7-10 7-10 7-9 8-9 8-8 9-8 8-8 9-7 9-7 8-6 8-7 8-7 7-7 7-8 12-15 7-15 8-20 4-10 6-11 6-12 9-12 9-12 10-12 11-12 12-11 12-11 13-11 13-12 15-12 15-12 16-13 16-13 16-13 16-14 17-15 17-15 17-15 17-16 16-14 17-13 17-11 18-12 18-10 20-10 20-9 21-7 20-7 20-5 20-4 20-3 20 0 124 9 0 0 0 1-124-8-20 0-19 3-20 4-20 5-21 7-20 7-21 9-19 10-18 10-17 11-17 12-17 13-17 14-17 16-16 15-18 16-16 14-16 15-15 14-16 13-14 14-15 13-13 13-13 12-12 13-11 11-11 12-9 11-9 13-8 12-7 11-6 11-4 10-5 10-3 10-4 10-5 10-5 9-6 9-8 8-7 8-8 7-8 8-9 7-8 7-9 6-8 6-8 7-8 8-8 8-7 8-7 9-6 9-7 9-6 10-5 11-5 10-4 11-4 11-3 10-3 11-3 11-4 10-5 10-5 9-5 9-10 15-12 14-12 14-13 13-13 14-13 14-14 11-13 9-12 8-11 7-9 7-8 8-7 10-4 5-2 1-1 2-2 0-2 1-2-1-2 0-1-1-2-2-1-2 0-1 0-2 0-2 1-2z"  fill="#fff500" /><path d="M106-168l5 4 11 11 9 14 8 14 8 13 12 13 14 14 7 7 13 13 14 12 7 8 8 7 6 9 7 8 11 17 10 14 10 11 10 10 9 9 10 9 10 8 11 8 10 11 10 9 11 8 12 6 14 5 16 3 20 0 11-2 13-3 14-2 14-3 15-3 14-2 15-1 15 0 16 1 15 0 16 1 16 1 15 1 16 1 17 1 16 1 17 2 16 1 16 3 16 2 15 3 15 3 14 3 14 3 14 3 13 3 13 4 12 2 12 3 12 2 12 3 12 3 11 3 12 2 11 2 12 1 12 2 13 1 13 2 14 2 15 1 15 2 97 17 0 0 0 0-98-4-15-1-15-1-15-1-13-1-13-2-12-1-12-2-12-2-12-3-12-3-12-3-11-3-12-3-12-3-13-4-12-3-13-4-13-4-14-3-14-3-15-4-15-2-15-3-16-2-16-2-17-1-16-1-16-1-16 0-16 0-16-1-15 0-15 0-16 0-14 1-13 1-14 2-14 4-14 4-13 4-14 4-14 4-13 1-11 0-20-3-17-6-15-8-14-10-12-10-8-9-10-9-11-9-10-9-10-11-9-11-11-13-11-15-10-16-11-14-14-14-14-13-14-13-14-14-7-7-8-8-6-8-10-16-6-13-6-12-9-11-5-5-1-1-1-2 0-2 0-2 1-2 1-1 1-2 1-1 2 0 2-1 2 1 2 0 1 2z"  fill="#c2e1ff" /><path d="M93-167l3-5 5-12 6-12 7-11 6-10 6-10 9-10 9-9 8-7 7-8 8-8 9-9 8-9 9-10 10-9 8-10 9-9 9-9 7-8 6-11 6-11 4-10 4-10 5-10 8-11 10-8 10-6 11-4 11-3 11 2 9 5 6 10 0 0 0 0-4 1-9 6-8 6-10 3-11 5-8 6-5 10-4 9-6 11-6 13-6 9-8 10-9 9-8 8-9 9-9 11-10 9-8 9-9 9-8 8-9 9-9 8-8 7-11 10-7 9-7 10-6 9-7 11-8 12-3 5-1 1-2 1-2 1-2 1-2-1-1 0-2-1-1-1-1-2-1-2 0-2 0-2 1-2z"  fill="#fff500" /><path d="M93-166l1-5 4-12 3-13 4-15 3-15 5-18 6-19 3-10 3-10 4-10 4-10 7-18 6-17 4-15 3-15 3-13 3-13 2-12 3-11 4-14 5-14 5-10 8-12 8-11 9-9 8-7 8-7 8-7 9-7 12-5 10-4 12-7 10-7 12-7 8-6 13-8 12-8 33-4 0 0 0 0-20 32-12 8-9 6-12 8-12 8-10 7-10 6-13 5-11 4-8 7-10 7-9 7-9 9-8 9-7 10-4 11-5 13-3 9-3 11-4 11-3 13-4 14-4 16-6 17-6 18-8 19-3 9-3 10-3 11-6 18-4 16-4 16-5 15-4 14-6 12-3 5-1 2-1 2-1 1-2 0-2 0-2 0-2-1-2-1-1-1-1-2 0-2 0-2 1-2z"  fill="#005bbb" /><path d="M93-166l2-6 3-11 3-12 2-12 2-11 1-11-1-10-1-14-3-14-4-9-5-13-7-7-9-5-15-3-10-2-11-1-11 0-13 0-12-1-12 1-12 3-14 5-15 5-15 7-14 7-13 8-14 8-12 7-11 7-12 7-12 6-11 4-12 4-11 3-14 4-10 2-13 3-11 3-10 5-25 0 0 0 0 0 6-19 8-8 10-4 12-3 13-2 13-3 10-3 10-2 15-4 10-4 10-4 11-6 12-7 13-7 12-7 14-9 15-9 16-7 16-7 16-6 16-4 15-1 13 1 12 0 13 0 12 1 13 2 13 3 12 5 11 7 9 9 6 12 4 11 3 11 3 12 1 10 0 11-1 12-1 13-3 13-4 13-4 12-6 12-3 6-1 1-1 2-2 1-2 0-1 1-2-1-2-1-2-1-1-1-1-2 0-2 0-2 1-2z"  fill="#fff" /><path d="M94-158l-4-4-9-8-11-7-12-5-10-3-11-2-11 3-11 5-9 4-11 2-12-1-7-8-3-10-3-6 0 0 0 0 6-2 10 1 9-4 10-2 10-4 11-2 12-1 11 2 11 4 13 6 8 6 8 7 8 7 7 9 2 4 1 2 1 1 0 2-1 2-1 2-1 1-1 1-2 1-2 0-2 0-2-1-1-1-1-1z"  fill="#005bbb" /><path d="M92-161l-2-7-3-15-1-15 1-13 1-13 1-11-1-11-2-14-3-13-3-14-2-14 0-15 0-12-2-11-6-8-9-9-9-5-10-1-9 7-6 8-2 11-15 28 0 0 0 0-18-25 1-12 2-10 4-10 7-9 7-8 9-6 9-4 12-2 13 1 11 4 9 6 9 8 7 8 8 11 4 12 2 11 0 13-1 13 0 12 2 13 2 13 2 10 1 12-1 14-1 12-2 11-2 12 0 13 1 14 1 7 0 2 0 2-1 1-1 2-2 1-1 1-2 1-2-1-2 0-2-1-1-1-1-2-1-2z"  fill="#fff" /><path d="M99-155l-5 0-11 0-11-1-10-1-10 0-11 0-12 1-14 1-15 1-15 1-15 4-13 5-13 8-15 8-14 7-14 6-14 4-14 4-16 1-14 0-14 0-13 1-13 0-15 1-14 3-15 4-16 6-19 7-10 3-10 3-19 6-18 6-18 7-10 4-10 3-10 4-9 4-10 4-9 5-10 5-9 5-15 12-13 13-10 15-8 16-7 17-4 18-4 20-2 11-3 10-2 10-4 18-2 16-18 60 0 0 0 0-4-55 3-17 4-17 4-19 2-10 2-10 2-11 2-10 2-10 3-10 4-10 4-10 4-9 6-9 5-9 7-8 7-7 8-8 8-7 9-6 10-6 10-5 10-6 10-5 10-4 10-4 19-7 18-8 19-6 9-4 10-3 10-4 19-7 17-7 17-6 18-5 16-2 15-1 13 0 14 0 14 0 12 0 12-2 12-3 12-4 13-6 14-7 14-8 16-8 18-5 17-3 17-2 14 0 14-1 13 0 11 1 12 2 14 4 10 2 6 1 2 0 1 1 2 1 1 2 1 1 0 2 0 2-1 2-1 2-1 1-2 1-2 0-2 0z"  fill="#fff" /><path d="M92-162l-1-5-1-12 0-11 2-12 4-11 6-11 6-11 7-12 9-12 9-11 8-9 7-9 8-10 11-11 14-9 18-8 19-6 10-2 11-2 12-1 11 0 11-1 12-2 11-1 11 0 11-1 11 0 11 0 10 2 20 2 10 2 11 2 10 1 10 1 11 1 10 1 11-1 9-1 11-3 10-4 9-4 10-5 10-6 10-6 9-8 8-8 8-9 7-10 7-10 6-11 6-12 6-13 6-15 7-15 8-17 9-18 11-18 11-18 12-18 12-17 10-17 10-17 10-17 9-17 9-16 9-16 10-16 8-15 9-16 8-15 8-15 8-14 6-14 7-13 6-12 6-12 6-12 44-74 0 0 0 0-34 79-7 12-7 11-7 12-7 13-7 13-9 14-8 15-9 15-9 15-9 15-9 16-10 16-9 16-10 17-9 16-10 17-10 18-11 18-11 18-10 18-9 19-7 18-7 17-5 16-6 15-5 14-6 13-7 13-7 11-7 11-9 10-9 10-10 8-11 8-10 6-11 5-11 6-12 4-11 3-12 2-12 1-12 0-11-1-11-1-11-2-10-1-19-4-19-2-19-1-11 1-11 1-11 1-11 2-12 2-11 2-10 1-18 4-17 6-13 6-11 8-9 8-7 8-8 10-8 10-9 9-8 10-7 11-6 10-6 10-5 11-3 13 0 10 0 6 0 2-1 2-1 1-1 2-1 1-2 0-2 1-2-1-2 0-1-2-2-1 0-2-1-2z"  fill="#fff" /><path d="M108-162l0 7-1 14-1 14-3 15-5 15-6 13-7 11-5 9-6 10-4 9-6 10-5 9-7 13-6 12-4 12-4 11-4 11-4 11-4 11-5 13-5 9-7 11-9 9-8 9-8 10-7 12-8 15-9 17-5 9-5 9-5 8-12 16-10 13-8 12-8 11-9 11-10 10-9 9-8 9-8 8-7 8-10 11-7 8-26 16 0 0 0 0 2-29 9-10 10-10 7-8 8-8 8-8 9-9 10-9 8-8 8-10 8-11 10-13 10-13 9-16 9-17 4-9 8-16 7-16 9-15 9-12 11-11 7-11 4-10 5-12 4-11 5-10 4-11 5-12 6-14 6-9 5-9 5-9 6-9 6-10 5-9 7-10 7-10 5-9 5-12 3-13 3-13 2-14 1-6 0-2 1-2 2-1 1-2 2 0 2-1 2 1 2 0 1 1 2 2 1 2 0 1 0 2z"  fill="#c2e1ff" /><path d="M92-164l0-6 1-11-1-11-1-13 0-13-1-12-1-10-2-10-2-11-2-12-2-10-5-14-6-12-6-9-7-9-7-8-8-7-9-7-9-5-11-6-10-8-7-9-7-10-6-9-11 2-10 5-9 6-13 3-22-12 0 0 0 0 12-12 8-8 10-6 9-4 12-4 12-2 11 2 11 7 7 8 6 10 6 11 9 8 10 5 12 8 8 8 8 8 9 9 8 11 7 11 6 11 4 12 3 11 2 12 1 11 2 11 2 12 0 12 0 13-1 12 0 12-1 13-2 13-1 6 0 1-1 2-2 2-1 1-2 0-2 1-2-1-2 0-1-2-2-1 0-2-1-2 0-2z"  fill="#005bbb" /><path d="M93-158l-4-5-8-12-9-11-7-12-7-10-7-9-7-8-10-8-8-6-9-8-8-8-11-10-12-8-10-4-11-4-14-4-14-7-12-7-11-7-11-7-10-9-8-10-7-10-5-10-6-9-5-8-6-10-7-10-6-9-7-9-7-9-7-8-6-8-10-8-13-6-10-5-11-7-11-7-11-9-9-10-9-9-9-6-9-6-13-5-28-22 0 0 0 0 37-4 12 5 11 6 12 8 11 9 8 9 9 7 9 7 9 6 10 5 10 6 10 5 10 8 9 9 7 9 7 8 8 10 7 10 7 11 6 9 6 9 5 10 6 9 7 13 9 10 9 7 9 6 11 7 11 5 11 5 13 4 14 5 12 7 11 7 9 8 10 12 10 9 9 8 8 8 7 9 7 11 7 12 6 11 7 12 7 12 4 6 1 2 0 1 0 2 0 2-1 2-2 1-1 2-2 0-2 1-2-1-2 0-1-1-2-2z"  fill="#005bbb" /><path d="M95-169l4-3 10-11 8-10 8-10 8-10 7-12 8-12 7-7 9-10 8-10 8-9 9-10 12-9 15-8 19-4 10-1 10 0 11 1 11 2 12 3 14 4 14 4 16 6 16 9 17 9 18 11 18 12 18 13 21 14 21 13 21 14 20 13 21 13 20 13 19 13 19 13 19 13 19 13 18 14 19 13 19 13 19 12 19 12 20 11 19 10 20 9 21 6 20 6 21 4 21 4 23 2 22 3 22 3 23 2 24 2 25 0 25 0 27-1 26-2 27-3 25-3 25-4 24-4 23-3 23-5 22-4 22-4 22-3 20-3 20-3 133-20-1 0 1 0-132 22-20 3-21 3-22 3-22 4-22 4-23 5-23 3-24 4-25 4-25 3-26 3-27 2-27 1-25 0-25 0-24-2-23-2-22-3-23-3-22-2-22-4-20-4-21-6-21-7-20-9-19-10-20-11-19-11-19-13-19-12-19-14-19-13-18-13-20-13-18-13-20-13-20-13-20-13-21-12-21-14-22-12-21-13-19-12-18-11-18-8-18-6-16-6-15-4-15-2-13-2-11-2-19-1-16 1-12 4-10 5-9 7-7 8-11 12-7 8-10 9-7 8-7 9-8 12-8 8-10 10-8 7-8 7-8 6-4 3-2 1-1 0-2 0-2 0-2-1-1-1-2-1-1-2 0-2 0-2 1-1 1-2 1-2z"  fill="#fff500" /><path d="M98-170l6-2 12-3 14-2 13 0 13 0 14 3 12 4 12 4 10 6 11 9 9 10 8 8 8 8 9 7 9 7 12 9 11 10 11 9 11 9 9 8 8 6 11 6 12 4 14 2 11 3 14 2 11 3 12 3 11 1 12-3 7-7 4-12 5-11 3-11 4-11 2-12 2-12 15-25 0 0 0 0 15 30-2 13-2 12-4 11-4 10-4 13-5 12-4 9-7 9-9 6-9 5-11 2-10 1-15-2-13-4-14-3-11-3-14-3-11-2-11-4-11-5-10-6-9-8-9-8-10-8-11-9-11-9-11-9-12-8-9-8-9-9-8-10-7-8-10-8-14-7-10-4-10-3-11-1-13-1-11 1-12 1-5 0-2 1-2-1-2-1-2-1-1-1-1-2 0-2 0-2 1-2 1-1 1-2 2-1 1 0z"  fill="#005bbb" /><path d="M108-162l0 6 1 13 0 13 2 12 0 14 0 12 0 12 1 10 0 11 1 11 2 10 3 10 4 11 5 12 6 11 8 13 9 13 9 15 8 16 6 19 1 10 0 19-2 20-1 18-2 17-3 16-2 15-2 13-1 13-2 13 0 13 0 12 1 12 1 12 1 11 2 11 3 10 4 10 5 10 5 10 5 11 4 11 3 11 3 14 2 12 2 11-10 29 0 0 0 0-18-21-2-11-1-12-2-12-2-12-5-14-5-10-6-12-4-11-5-12-3-13-1-13-1-12-1-13 0-13 0-14 2-14 2-13 2-14 2-14 3-15 2-16 2-17 1-19 1-17-1-14-5-14-7-14-8-14-10-13-9-13-8-14-6-14-4-12-3-13-2-13-1-12 1-11 0-11 0-13 1-12 1-12 0-12 0-14 1-13 1-7 0-2 1-1 1-2 2-1 1-1 2-1 2 1 2 0 2 1 1 1 1 2 1 2 0 2z"  fill="#005bbb" /><path d="M105-168l5 3 8 7 7 7 8 10 7 10 5 11 2 14-1 13-4 14-5 11-6 13-5 8-6 10-6 9-6 12-5 9-6 13-3 9-1 11 2 12 5 9 6 12 4 10 6 12 6 11 6 11 6 12 5 9 6 10 8 9 8 11 5 11 0 43 0 0 0 0-30-35-7-10-7-8-7-11-6-10-5-11-6-13-6-12-7-13-5-12-6-12-5-10-3-10-2-11 1-11 1-10 3-11 4-9 7-13 5-10 6-10 8-12 7-13 6-10 7-13 3-11 0-12-5-11-5-9-7-10-7-8-3-4-2-1 0-2-1-2 0-2 1-1 1-2 1-1 2-2 1 0 2 0 2 0 2 1 1 1z"  fill="#c2e1ff" /><path d="M94-167l2-5 7-9 8-9 7-9 9-7 9-7 11-5 11-3 12-1 10 1 10 0 15 0 12 2 11 1 13 4 12 4 11 4 13 4 12 3 12 3 10 2 11 2 10 1 12 2 14 1 12 0 12 1 12 1 11 3 10 5 9 8 9 7 9 9 9 11 9 11 5 9 4 10 4 14 0 11-23 29 0 0 0 0-8-33-1-11-6-11-7-10-8-9-10-10-9-7-10-7-11-2-11 0-14-1-10-2-11-1-11-2-11-2-12-2-11-2-13-3-13-4-13-4-12-4-15-5-10-2-14-1-10-1-10-1-14-1-10 1-10 5-12 8-8 7-8 7-7 7-4 4-1 2-2 1-1 0-2 1-2-1-2 0-2-2-1-1-1-2 0-2 0-2 1-2 1-1z"  fill="#fff" /><path d="M92-160l-2-6-4-12-2-12-3-10-1-10-3-13-2-11-3-10-4-9-5-9-7-9-7-8-9-7-9-6-10-2-12-1-9-4-6-9-2-11 5-11 0 0 0 0 11 6 10-2 10 1 10 2 10 5 8 6 9 8 8 9 8 11 7 11 4 9 4 11 2 11 2 11 2 14 0 14 1 10 2 11 1 11 2 6 0 2 0 2-1 2-1 2-1 1-2 1-2 0-2 0-2 0-1-1-2-1-1-2-1-1z"  fill="#c2e1ff" /><path d="M92-160l-2-7-6-13-6-13-6-10-7-9-8-7-10-7-13-6-16-6-19-8-10-6-10-8-11-8-11-8-12-8-12-8-14-7-14-6-15-4-16-3-18-2-17-1-19-1-19-2-20-3-19-2-19-1-19 0-18 1-17 2-16 3-15 4-14 6-13 5-13 7-13 7-12 7-10 8-10 7-10 7-8 8-9 8-8 7-9 7-8 6-8 6-9 6-9 5-10 5-10 4-11 3-11 2-11 1-12 1-11 0-11-1-11 0-11-1-10-1-18-1-16 0-13 1-11 1-12 2-11 1-12 0-11 0-11-2-10-5-10-7-7-8-4-9 3-31 0 0 0 0 24 25 8 9 10 3 13 1 11 0 11-1 12 0 14-1 15 1 17 2 19 2 11 0 10 1 11 0 11 0 10 0 20-3 18-5 17-8 17-10 8-6 9-6 8-7 9-7 10-7 10-8 11-6 11-7 13-7 13-7 14-6 14-6 15-4 15-3 17-3 17-1 18-1 19 0 19 0 20 2 19 1 19 1 19 0 18 0 18 1 18 2 17 4 16 5 14 6 14 7 13 8 12 7 11 7 19 11 17 7 17 6 16 8 13 9 10 11 8 11 7 14 4 13 5 15 2 7 0 2 0 2-1 2-1 2-1 1-2 1-2 0-2 1-2-1-1-1-2-1-1-2-1-1z"  fill="#fff" /><path d="M108-163l1 6 3 11 3 11 4 11 5 10 5 11 6 11 4 13 2 12 1 11 3 14 2 12 2 13 2 10 3 12 3 14 2 10 1 13 3 11 6 10 8 9 9 7 11 6 12 3 13 4 13 5 9 6 12 9 10 9 10 9 9 6 9 3 15 3 15 3 10 2 11 2 37 19 0 0 0 0-41 9-11-1-11-2-12-2-14-3-12-3-11-4-10-6-7-7-10-9-9-8-10-7-11-5-12-4-10-3-10-4-11-5-10-8-8-8-8-10-6-10-4-11-2-11-2-14-2-12-3-13-2-13-2-13-1-11-1-13-2-10-1-11-1-9-2-10-4-11-5-11-5-12-3-13-3-13-1-13 0-6 0-2 1-2 1-1 1-2 1-1 2 0 2-1 2 1 2 0 2 2 1 1 1 2 0 2z"  fill="#c2e1ff" /><path d="M100-171l7 0 14 0 13 1 12 1 12 2 10 3 11 2 10 5 10 7 9 8 9 8 8 11 9 11 8 11 9 10 8 13 7 12 7 11 9 11 8 14 6 15 3 15 2 16 0 15 1 15 0 15 0 14 0 14 1 14 1 13 3 12 7 13 11 11 15 14 16 13 9 6 9 6 10 6 9 6 9 5 16 10 16 11 16 13 7 6 7 7 8 8 7 8 6 8 7 9 11 15 11 15 10 14 29 57 0 0 0 0-46-45-10-14-11-15-10-15-12-16-13-14-15-13-14-12-14-10-16-10-9-5-10-6-9-5-11-7-9-6-10-6-9-7-9-7-7-7-8-7-7-8-6-8-8-18-2-17-1-15 0-14 0-14 0-14-1-14 0-15-1-14-2-12-3-11-6-11-7-12-9-11-8-13-7-11-7-10-8-10-9-11-8-11-7-8-11-11-9-6-11-5-10-3-10-3-11-2-13-2-12-2-7 0-2-1-2 0-1-1-2-2-1-2 0-2 0-2 1-1 0-2 2-2 1-1 2 0 2-1z"  fill="#fff500" /><path d="M108-161l0 5-3 12-5 12-5 11-5 9-7 14-4 13-2 10-2 11-3 12-3 11-3 11-4 11-4 12-6 10-8 9-10 10-11 8-9 5-13 4-11 4-12 4-11 4-11 4-10 4-9 7-8 9-3 10 1 11 2 10 5 11-5 25 0 0 0 0-26-14-4-10-3-11-2-13 0-10 2-12 4-10 7-9 9-9 8-7 9-6 11-4 10-3 9-3 12-5 11-3 10-2 10-4 10-6 8-7 7-9 6-12 4-10 3-11 3-11 3-10 3-11 3-11 4-12 5-11 6-9 6-9 8-13 6-13 1-6 1-2 1-1 1-2 1-1 2 0 2-1 2 1 2 0 1 2 2 1 1 2 0 2 0 2z"  fill="#fff500" /><path d="M106-157l-3 4-7 10-7 10-8 10-5 11-5 11-3 12-3 13-2 15-4 14-3 13-3 11-4 10-4 11-3 12-5 11-5 10-6 10-3 10-3 11-3 10-7 7-6 13 0 0 0 0-7-4-7-7-5-10 3-10 3-10 3-10 4-10 5-10 7-8 5-10 4-11 5-11 5-12 3-11 4-11 3-13 3-14 3-15 5-15 7-13 7-12 9-11 9-9 8-9 4-4 1-1 2-1 2 0 2 0 2 0 1 1 2 1 1 2 1 2 0 1 0 2-1 2-1 2z"  fill="#fff500" /><path d="M108-164l2 7 4 17 1 18 1 18-1 19-1 19-1 19-2 20-3 10-3 11-5 10-6 10-7 9-7 9-9 8-9 8-8 8-8 8-8 7-7 8-13 14-12 14-12 11-10 10-11 10-10 8-10 8-10 8-8 7-11 11-8 9-7 8-7 10-6 9-6 9-5 9-10 3-1 8 0 0 0 0-7-3-7-7-2-13 4-9 7-9 6-8 7-9 7-7 8-8 10-10 7-7 9-8 10-8 10-7 11-8 10-8 11-8 11-10 11-11 13-13 7-8 8-8 8-8 8-7 8-9 8-8 8-7 12-15 8-17 5-17 2-18 2-20 1-19 1-17 0-17 0-16-3-16-1-8 0-2 0-2 1-1 1-2 2-1 1-1 2 0 2 0 2 0 2 1 1 1 1 2 1 2z"  fill="#c2e1ff" /><path d="M105-156l-5 4-8 8-9 8-10 9-12 9-13 7-14 5-13 3-13 3-11 2-11 2-12 3-11 2-12 2-13 2-17 1-17 0-19-4-19-7-9-5-9-5-8-6-8-7-14-13-14-14-7-9-6-9-6-10-5-10-5-11-4-11-4-10-4-11-3-11-3-11-1-12 0-10 1-11 2-11 3-10 5-10 4-10 5-10 3-11 3-11 2-12 1-12 1-12 1-13 0-12 0-12 0-12-1-11-1-12-1-13 0-13 1-14 3-15 5-15 6-14 8-13 8-12 10-11 11-10 12-9 12-7 13-7 14-6 15-6 15-5 16-4 15-4 15-2 96-3 0 0 0 0-94 14-14 2-15 3-15 5-15 5-14 6-13 7-12 6-12 6-11 8-9 9-9 11-8 11-6 12-6 13-3 12-3 14 0 12 0 13 1 12 1 13 1 12 1 12 0 12 0 13-1 13-1 13-1 13-2 13-2 13-4 12-4 11-4 9-7 18-3 16 1 19 2 9 3 10 4 11 4 10 4 10 5 9 5 9 6 9 11 15 13 13 13 12 14 9 15 9 15 5 15 2 15 1 14-1 12-3 12-2 12-2 10-1 12-3 12-1 12-2 11-2 11-4 11-5 10-6 11-8 10-7 10-8 5-3 2-1 2-1 2 0 2 1 1 1 2 1 1 2 1 1 0 2 0 2-1 2-1 2-1 1z"  fill="#005bbb" /><path d="M102-170l6 1 13 2 12 3 11 4 10 3 10 3 13 3 11-2 15-5 12-7 10-7 10-8 11-7 11-9 12-8 10-7 10-6 9-6 11-7 8-9 5-11-2-12-4-10-6-9-7-10-8-8-10-10-7-9-6-11-6-11-5-10-2-12 17-22 0 0 0 0 11 16 5 9 5 11 5 10 6 9 9 9 7 7 7 10 6 9 7 11 4 10 2 10 0 15-2 11-4 9-9 10-11 10-12 8-9 5-9 6-11 7-10 7-11 8-11 8-11 8-10 8-13 7-12 5-12 2-12 2-14-1-11-4-10-4-9-5-10-4-11-4-12-4-6-2-2 0-2-2-1-1-1-2 0-2 0-2 1-2 1-1 1-2 2-1 1 0 2 0 2 0z"  fill="#c2e1ff" /><path d="M92-162l-1-7 0-13-1-12 0-12 0-13 0-10-1-11-1-10-2-11-1-13-1-14-1-13 0-14 1-15 1-14 3-15 5-16 5-15 6-17 8-16 6-15 6-18 7-19 3-10 3-10 4-10 4-10 4-10 5-10 3-10 4-9 5-18 3-16 0-16-1-13-2-14-3-12-2-13-1-14-2-12-2-15 0-15 1-16 3-15 6-16 8-15 9-12 9-12 6-12 6-11 5-12 28-39 0 0 0 0-7 55-7 13-7 13-9 13-8 12-7 11-5 11-4 13-2 13-1 12 1 13 2 14 1 14 1 12 2 12 2 14 1 15 0 17-3 19-4 19-3 9-4 10-4 10-4 10-4 10-3 10-4 9-3 10-2 10-3 10-3 10-6 19-7 17-6 15-5 15-5 16-4 14-2 12-2 13 0 13-1 13 1 13 1 13 1 11 1 12 1 12 0 11-1 13-1 12-1 11-1 12 0 13-1 6 0 2-1 2-1 2-1 1-2 1-2 0-2 0-2 0-1-1-2-1-1-2-1-2 0-1z"  fill="#fff" /><path d="M108-161l-1 6-1 13-1 11 0 11 0 12 0 10 1 11 3 14 6 12 9 10 12 7 12 3 14 3 13 1 11 1 10 2 13 1 14-1 14 0 12-2 14-3 12-4 12-5 9-5 10-8 8-8 10-9 9-6 13-4 14 0 10 3 10 6 7 7 7 11-3 27 0 0 0 0-24-11-7-10-10-2-9 5-9 7-8 8-8 6-11 7-12 5-13 5-10 3-10 3-12 2-15 0-14 1-11 0-12-1-14-3-14-1-11-2-10-2-11-2-13-5-11-7-10-9-9-11-6-13-3-13-2-12 0-11 1-12 1-12 1-13 3-12 3-12 1-6 1-2 1-1 1-2 2-1 1 0 2-1 2 1 2 0 2 2 1 1 1 2 0 2 0 2z"  fill="#c2e1ff" /><path d="M92-163l0-7 0-17 3-18 4-18 4-17 3-16 2-15 2-14 1-14 1-14 1-14 2-13 1-13 3-14 3-12 4-12 4-10 5-14 3-12-1-11-5-11-5-10-8-9-10-5-11-2-12 0-10 1-13 0-13 0-12-2-14-2-14-1-31-20 0 0 0 0 39-11 12 2 13 1 13 2 10 0 11-1 12-1 12 1 13 2 11 5 10 5 10 8 7 10 6 13 4 10 4 12 0 11-2 13-4 13-6 12-4 10-3 10-4 12-3 11-2 12-1 12-2 14-1 14-2 15-3 15-3 15-4 17-4 17-4 17-4 15-2 16 0 7 0 2-1 2-1 2-2 1-1 1-2 0-2 0-2 0-2-1-1-1-1-2-1-2 0-2z"  fill="#fff" /><path d="M106-167l4 4 7 7 8 8 10 10 10 7 10 4 12 3 12 2 11 0 10-2 10-1 11-2 11 0 11 3 9 5 8 9 2 9-2 10-10 7 0 0 0 0-5-9-10 0-9-5-10 0-12 1-13 1-10 0-11-1-10-2-10-3-9-5-9-5-8-7-8-8-6-8-6-8-7-10-3-5-1-1-1-2 0-2 1-2 0-2 2-1 1-1 2-1 2 0 2 0 2 0 1 1 1 2z"  fill="#fff" /><path d="M92-163l0-6-2-13-1-12-1-14 0-13 0-14 0-15 0-15 0-17 3-17 6-16 5-15 7-15 8-15 6-14 6-16 5-17 4-17 3-18 4-18 3-17 3-15 3-14 1-14 1-13 0-11-2-14-4-10-5-9-7-9-8-8-10-4-11-3-11-3-11-2-14-3-11-2-10-1-11-1-50-4 0 0 0 0 44-25 13 0 14 1 11 2 10 2 13 2 14 3 11 3 10 4 11 5 9 8 8 8 7 10 7 12 3 10 3 10 1 12 0 12-1 14-2 14-2 15-4 15-3 16-3 17-3 18-2 10-4 18-5 18-6 18-7 16-7 14-7 14-5 14-5 13-3 13 0 15 0 16 0 15-1 14-1 13 0 13 0 13 0 13-1 7 0 2-1 1-1 2-1 1-2 1-2 1-2 0-2-1-2-1-1-1-1-2-1-2 0-2z"  fill="#c2e1ff" /><path d="M108-164l1 6 2 11 2 12 2 10 2 11 2 11 2 10 3 12 4 12 4 11 5 11 6 11 4 13 1 12 1 12 0 10 1 10 1 11 1 13 0 12 0 12-2 13-3 12-4 13-5 12-6 11-5 9-5 10-3 10 0 11 4 10 4 10 6 37 0 0 0 0-31-19-7-12-4-13-3-14 1-14 3-13 5-13 6-11 6-10 5-11 3-10 3-10 1-10 1-13-1-10 0-11-1-13 0-11 0-12-1-11-2-12-4-10-6-12-4-14-3-13-3-15-1-10-1-11-1-11-1-12 0-10-1-12 0-5 0-2 1-2 0-2 2-1 1-2 2 0 2 0 2 0 2 0 1 2 2 1 1 2 0 2z"  fill="#005bbb" /><path d="M92-161l-2-6-4-13-6-13-7-13-11-16-5-8-6-9-6-9-6-10-6-9-6-9-6-9-6-9-5-9-5-10-4-9-4-10-5-18-3-18-4-19-5-19-1-11-2-11-2-11-3-10-4-11-5-11-7-10-8-9-9-8-10-7-11-7-12-7-12-8-11-7-11-8-11-8-10-8-10-9-10-9-9-9-9-10-8-9-7-10-6-10-5-9-5-10-5-9-4-10-2-9-4-19-3-16-3-17-3-18-3-18-3-18-4-17-4-18-5-18-7-18-3-11-3-11-4-10-4-13-3-14-3-14-3-15-1-15-2-14-1-14-1-13-1-13-2-13-2-12-2-12-2-11-7-74 0 0 0 0 22 72 2 11 2 12 1 12 2 14 1 12 1 14 1 13 2 14 3 14 3 14 4 13 4 13 4 12 5 11 3 11 4 9 4 10 3 10 3 9 5 20 4 18 3 18 3 18 3 18 2 17 3 17 2 17 3 16 7 18 4 9 5 9 5 9 6 9 7 10 8 9 9 9 9 8 10 8 10 8 10 8 11 8 11 7 12 7 12 7 12 7 11 8 11 9 10 10 8 12 7 12 5 13 4 12 2 11 2 11 2 10 5 19 4 19 3 18 4 16 6 17 9 17 6 9 6 8 6 9 6 10 6 9 6 9 6 8 6 9 11 16 8 17 6 15 3 14 1 7 0 2 0 2-1 1-1 2-2 1-1 1-2 0-2 0-2 0-2-1-1-1-1-2-1-2z"  fill="#fff500" /><path d="M92-163l0-6 0-11 1-12 0-12-4-14-6-11-8-11-11-11-8-6-8-7-8-6-11-7-10-5-11-2-14 1-12 1-14 1-10 0-12 1-13 2-16 0-17-1-20-1-19-2-18-1-19-2-19-3-18-2-15-1-13 0-12 1-10 1-13 3-11 3-11 3-13 2-12 1-12 0-23-13 0 0 0 0 28-16 13 1 13-2 11-2 13-2 14-2 11-1 13 0 15 0 17 2 18 2 18 2 18 1 19 1 19 1 17 0 17-1 14-1 14-1 12-2 10-1 14 0 12 0 13-1 14 1 11 3 14 8 9 6 11 10 9 7 9 8 8 8 8 10 6 10 5 11 4 13 1 14-1 13-2 11-2 12-1 5 0 2-1 2-1 1-2 1-2 1-2 1-2-1-1 0-2-1-1-2-1-1-1-2 0-2z"  fill="#005bbb" /><path d="M100-155l-5 1-10 0-15 0-13-2-13-3-11-4-10-6-9-6-8-7-9-6-9-7-6-9-4-10-3-11-11-5-11 4-24 1 0 0 0 0 5-28 12-7 11-2 11-1 13 2 10 4 8 7 5 11 3 12 2 10 7 7 7 7 8 8 8 6 10 6 10 4 10 4 12 2 14 2 5 1 2 0 2 1 1 1 2 1 0 2 1 2 0 2-1 1-1 2-1 1-1 2-2 0-2 0z"  fill="#fff" /><path d="M108-161l-1 6-1 13-2 12-1 12-2 12-4 13-6 11-7 12-10 11-11 8-12 7-13 6-13 8-14 10-15 13-10 7-8 8-9 9-8 9-9 9-10 9-9 10-11 9-10 10-9 10-8 10-7 10-6 10-6 9-4 9-6 18-4 17-2 18-2 18-1 17 0 17 2 15 2 16 2 14 2 15 2 16 1 14 2 12 2 11 2 12 2 12 2 12 2 11 4 9 8 10 12 16 7 8 7 10 7 11 8 11 8 11 9 11 10 11 65 75 0 0 0 0-76-64-11-11-11-11-10-10-8-11-9-9-7-9-14-15-13-14-9-16-4-15-1-12-2-12-1-11-2-12-2-13-1-13 0-14-2-15-2-15-1-15-2-17 0-18 1-18 2-18 3-19 4-19 3-10 3-9 5-10 5-9 6-10 7-11 7-11 9-10 9-11 10-11 10-10 9-9 8-9 9-10 8-10 8-9 9-10 8-8 9-8 7-7 8-7 15-10 14-8 11-6 14-7 10-11 5-10 7-13 2-10 2-12 3-13 4-11 1-7 1-2 0-1 2-2 1-1 2 0 2-1 2 1 2 0 2 2 1 1 1 2 0 2 0 2z"  fill="#c2e1ff" /><path d="M104-156l-4 3-9 7-13 7-10 8-9 8-8 9-6 9-5 9-6 10-6 10 0 11 4 11 6 8 8 9 6 8 6 8 5 9 5 10 6 9 2 27 0-1 0 1-16-3-10-2-8-9-5-11-4-10-6-8-6-9-7-8-6-9-5-9-3-10-2-12 1-12 4-11 6-9 7-10 7-10 7-9 9-10 8-6 8-6 9-6 14-6 13-6 5-2 1-1 2 0 2 0 2 0 2 1 1 1 1 2 1 2 0 2 0 1-1 2-1 2-2 1z"  fill="#c2e1ff" /><path d="M106-168l5 5 12 11 13 13 14 13 15 11 16 9 17 7 15 6 16 4 14 3 13 1 14 0 12 0 14-2 14-1 13-2 12-2 14-3 12-1 14 0 12 0 12 1 14 1 14 3 13 4 13 5 12 7 11 7 11 7 11 7 10 10 8 9 8 9 6 10 6 12 3 12 1 11 0 13-2 11-4 10-7 14-6 11-4 11-4 10-21 29 0 0 0 0-8-35 4-12 5-11 7-13 6-12 4-9 3-11-1-11-3-12-7-12-9-11-11-11-9-7-11-7-11-6-9-6-11-4-10-4-11-2-12-1-13-1-11-1-11 0-11 1-12 2-14 2-14 2-14 1-14 1-15 0-15-1-15-2-16-4-16-5-17-6-18-9-9-5-9-5-9-6-8-7-8-7-7-7-12-14-11-11-4-6-2-1 0-2-1-2 0-2 1-2 1-1 1-2 2-1 2 0 2 0 1 0 2 1 2 1z"  fill="#fff" /><path d="M106-157l-5 6-7 12-4 12-3 13-3 15-3 17-4 18-4 18-2 19-2 11-1 13-2 13 0 14 0 14 0 14 0 15 1 14 1 15 2 15 1 16 1 16 1 16 0 15 2 16 1 15 2 14 4 13 4 13 5 11 5 11 6 11 6 10 6 11 6 9 7 10 6 10 7 9 7 9 6 9 7 8 14 13 14 10 14 5 14 4 13 2 14 1 15 1 15 1 15 0 16-3 15-6 18-8 10-4 11-5 11-5 11-6 10-6 10-6 10-6 10-7 10-7 10-7 11-8 11-8 12-8 11-8 11-8 11-8 11-8 11-7 10-8 11-7 9-6 10-7 65-40 0 0 0 0-57 52-9 7-10 7-11 6-10 7-11 8-10 7-11 9-11 8-11 9-11 8-11 8-11 8-10 8-10 7-10 7-10 7-10 7-11 7-11 6-11 6-11 6-10 5-18 9-10 4-9 3-10 2-10 2-18-1-15-1-15-2-15-1-15-4-16-5-17-8-8-5-8-7-8-8-7-8-7-8-6-10-7-9-6-9-7-11-6-10-7-10-6-11-5-11-5-12-5-12-5-12-4-13-3-14-2-15-2-16-1-15-1-16-1-15-2-16-2-15-2-15-2-15-1-15-2-15-1-15-1-15 0-14 0-14 1-12 1-12 1-11 1-10 4-19 4-17 3-17 4-15 4-15 7-15 10-14 6-6 1-1 2-1 2 0 2 0 2 0 1 1 2 1 1 2 1 2 0 1 0 2-1 2-1 2z"  fill="#c2e1ff" /></svg>