<svg width="1200" height="675" viewBox="-500 -500 1200 675" xmlns="http://www.w3.org/2000/svg"><path d="M-500-500h1200v675h-1200z" fill="#000"/><path d="M96-156l-5-2-9-4-10-5-9-6-9-7-8-9-8-8-7-9-8-8-10-9-10-10-7-8-6-9-5-9-4-9-6-14-5-11-5-9-7-8-9-6-10-1-11 0-11 2-12 1-14 2-12 2-11 3-12 3-13 2-12 4-11 4-12 4-11 4-12 3-10 3-12 5-10 6-10 6-49 11 0 0 0 0 30-33 10-6 10-5 11-6 12-5 12-3 10-3 10-3 11-4 13-5 13-5 14-3 11-3 10-3 11-2 12-3 13-1 11-1 13-1 10 0 10 1 11 4 9 5 9 7 9 12 7 13 6 13 4 13 6 12 5 9 8 10 9 9 8 8 7 9 8 9 6 9 7 8 9 9 12 9 8 6 5 3 1 1 2 1 0 2 1 2 0 2-1 2-1 1-1 2-2 1-1 0-2 0-2 0-2-1z"  fill="#c2e1ff" /><path d="M92-162l-1-6-2-14 1-14 2-15 3-13 6-13 8-13 12-11 14-10 15-7 17-5 17-6 17-5 16-5 15-4 13-4 12-4 12-5 14-6 14-5 13-6 11-7 9-8 10-11 7-10 6-12 5-12 5-13 3-13 2-13 2-13 1-14-1-13-2-14-2-13-3-14-4-16-3-17-1-20 0-20 0-11 1-10 1-10 2-20 0-10 1-10-1-11 0-10-1-11 0-12 0-11-1-11 0-11 7-78 0 0 0 0 11 77 1 11 1 11 1 11 0 11 1 11 1 11 0 12 0 11 0 10 0 11-2 19-1 19 1 20 2 17 3 16 4 15 3 15 3 15 2 15 1 16-1 16-2 15-3 14-4 15-5 15-6 14-7 13-10 13-10 12-14 11-13 9-15 7-15 5-13 5-13 5-14 5-13 3-15 4-16 5-16 5-16 6-16 6-12 5-11 6-9 9-6 8-5 10-4 11-2 12-2 12 0 12 0 7 0 2 0 2-1 1-2 2-1 1-2 0-2 1-2-1-2 0-1-2-2-1-1-2 0-2z"  fill="#005bbb" /><path d="M100-154l-7 0-13-1-13 0-13 0-13-1-13 1-14 0-16-2-17-4-16-6-17-9-16-11-8-6-8-7-8-7-7-7-8-6-13-14-11-13-9-13-6-12-4-11-4-10-3-10-3-14-2-13 2-12 2-12 2-11 3-11 2-11 1-10 3-14 3-10 4-10 8-12 9-10 11-9 9-7 10-7 8-8 37-24 0 0 0 0-11 40-7 8-8 7-11 9-9 6-9 8-7 8-5 9-4 9-2 10-1 13-3 12-3 10-3 11-3 13-1 10 1 11 3 13 5 14 3 10 6 11 8 12 10 12 13 12 8 6 8 7 15 12 15 9 13 7 14 5 15 3 13 3 13 0 14 1 14 1 13 1 13 2 12 2 6 0 2 1 2 0 2 2 1 1 1 2 0 2 0 2-1 2-1 1-1 2-2 1-1 0-2 1z"  fill="#fff500" /><path d="M108-164l2 6 4 11 5 11 6 12 5 16 4 16 2 19 1 11 0 10-1 11-1 10-1 10-1 11-1 19 1 18 1 19 0 19-1 18-2 15-3 15-5 13-4 10-5 9-8 12-6 10-3 11 1 10 2 11-1 10-4 10-8 7-10 11 0 0 0 0-8-11-5-10 2-10 4-11-1-11 0-12 5-12 5-9 7-9 7-9 7-12 5-10 3-10 3-13 2-15 1-17-1-18-1-20-1-10 1-10 0-11 2-19 1-20 0-19-2-17-3-15-4-12-5-13-5-13-3-14-1-6 0-2 0-2 1-2 1-1 2-1 2-1 2-1 1 1 2 0 2 1 1 1 1 2 1 2z"  fill="#fff" /><path d="M94-167l2-5 6-13 2-12 0-10-1-10-1-12-2-11-4-11-6-10-7-8-7-8-8-10-7-9-5-10-6-9-5-9-5-9 1-10 4-9-1-6 0 0 0 0 6 1 9 5 9 5 5 10 6 9 4 9 5 11 6 8 8 10 8 10 5 8 6 10 4 12 2 10 0 11 0 11 0 12-2 13-3 10-5 11-7 10-4 4-1 2-2 1-1 0-2 0-2 0-2-1-1-1-2-1-1-2 0-2 0-2 1-1 1-2z"  fill="#005bbb" /><path d="M97-170l6-3 13-8 13-7 14-9 17-8 15-8 18-10 9-5 8-6 9-6 8-6 8-6 8-7 9-6 9-6 9-5 10-5 9-5 9-4 17-7 16-6 17-3 18-1 17 0 16 1 14-1 11-2 10-4 13-4 11-5 11-5 11-4 9-5 11-7 10-3 9-7 10-10 7-8 9-10 7-7 26-2 0 0 0 0-10 30-7 7-9 10-7 9-9 7-8 6-13 4-9 4-10 5-12 5-10 3-10 3-13 5-10 3-12 2-14 3-16 0-17 0-16-1-15 0-14 2-15 5-16 6-18 8-17 9-16 12-8 6-8 7-9 6-8 7-10 6-9 6-18 11-17 8-15 7-14 8-15 7-14 6-7 3-2 0-2 0-1 0-2-1-2-1-1-1-1-2 0-2 0-2 1-2 1-2 1-1 2-1z"  fill="#005bbb" /><path d="M104-169l7 3 14 6 13 5 13 3 14 3 13 2 13 0 11-1 10-2 12-5 9-7 9-9 7-8 6-9 7-8 9-11 7-8 7-7 7-8 9-9 5-9 6-9 3-12 4-10 2-10 1-10 0-11 7-8 12-10 0 0 0 0 7 12 6 9 0 10-1 12-3 10-4 10-3 10-5 11-5 9-7 10-10 11-7 8-7 7-9 11-10 10-8 9-8 11-9 8-10 9-8 6-10 4-12 4-14 3-15 0-15-1-13-3-15-4-15-5-14-6-15-8-6-5-2-1-1-2-1-1 0-2 0-2 1-2 1-2 1-1 2-1 2-1 2 0 2 1 1 1z"  fill="#fff" /><path d="M99-155l-7 0-14-3-15-5-14-6-15-5-13-4-16-2-14-1-12 1-11 3-10 5-8 7-8 11-6 15-5 13-5 14-6 15-8 15-5 15-3 18 0 18 3 19 5 18 5 18 7 17 9 17 5 9 6 9 5 10 6 9 6 9 7 9 7 9 8 10 8 9 7 8 8 8 8 8 9 7 8 6 8 6 9 5 17 8 18 6 15 2 15 0 13-2 12-4 11-6 10-7 9-8 10-11 11-12 12-14 49-55-1 0 1 0-31 69-6 9-12 13-11 12-11 11-13 10-14 7-14 5-17 3-16 0-18-2-19-5-10-4-9-4-10-5-9-6-10-7-9-7-9-7-8-8-8-9-9-8-8-10-8-9-8-10-7-9-7-9-6-10-6-9-6-10-6-9-5-10-5-9-8-18-6-19-2-10-3-10-2-11-2-11-1-11 0-10 1-11 2-11 6-20 7-15 6-13 5-14 4-13 5-13 8-13 10-10 12-9 14-6 15-3 16-1 17 1 16 3 17 5 16 6 13 7 13 5 11 4 6 2 2 0 2 1 1 2 1 1 1 2 0 2 0 2-1 2-1 1-2 1-2 1-2 1-1-1z"  fill="#005bbb" /><path d="M100-170l5-1 15-2 14-2 14 1 12 3 12 4 11 5 9 5 10 8 8 9 1-12-5-10-10-6-11-24 0 0 0 0 19-3 11 0 10 6 8 8 6 11 4 11 2 12 0 12-3 11-6 8-7 7-12 3-13-2-10-7-7-8-7-9-9-6-9-6-9-5-12-3-11-2-14 0-10-1-6 0-2 0-1 0-2-1-1-2-1-1-1-2 0-2 0-2 1-2 1-1 2-1 2-1 2 0z"  fill="#fff500" /><path d="M106-168l5 5 10 8 11 8 10 8 11 5 11 5 12 3 14 1 20 0 11 1 11 0 12-1 12-2 11-2 11-3 12-3 12-3 12-5 11-4 12-5 11-5 10-5 9-6 8-6 9-7 8-7 9-8 7-7 9-8 8-8 7-8 7-7 6-8 10-17 5-18 3-19 1-10 1-10 2-11 1-10 2-11 1-11 1-10 2-20 2-17 1-16 1-12-1-11-1-12-3-10-5-9-7-8-8-7-6-9-6-16 0 0 0 0 18-1 12 3 8 8 7 9 5 9 5 11 3 13 1 14 0 11-1 13-2 14-2 17-3 18-1 10-1 11-2 10-1 11-1 11-2 10-1 11-2 10-1 10-2 11-3 10-4 11-6 10-6 10-7 8-7 9-8 8-8 7-9 8-8 8-9 8-9 7-9 8-9 6-10 6-12 6-11 6-12 5-11 4-12 5-13 4-12 4-12 3-12 3-13 3-13 1-12 1-11 1-11 0-10 0-19-1-15-5-13-7-12-7-11-9-11-10-10-11-4-5-1-2-1-1 0-2 0-2 1-2 1-2 1-1 2-1 2 0 2 0 2 0 1 1 2 1z"  fill="#fff500" /><path d="M96-157l-8-4-17-7-10-4-10-4-11-3-12-2-12-1-13-1-14-2-12-2-13-3-13-3-12-4-11-5-12-4-12-5-11-5-11-4-11-5-10-5-10-4-10-5-9-5-10-6-9-5-9-6-8-5-18-9-17-8-16-7-15-4-13-2-11 2-11 3-9 4-11 9-7 9-4 12 1 11 10 4 10 3 9 4 10 6 8 6 12 8 9 7 8 6 10 7 9 5 10 4 13 4 15 3 55 15 0 0 0 0-68 10-16-3-16-5-12-6-11-6-10-7-9-6-9-6-9-7-8-7-11-5-10-2-12-6-10-11-5-14 1-14 4-14 5-10 8-10 9-8 12-7 13-5 14-3 16-1 16 3 17 6 17 8 17 8 9 5 10 5 9 6 9 6 9 5 8 6 18 10 9 5 10 4 11 5 11 5 11 5 12 4 11 5 12 4 11 4 11 4 12 2 12 2 13 1 13 1 14 1 13 2 12 4 11 4 11 4 9 5 9 5 8 5 1 1 1 1 1 1 0 2 0 2-1 1 0 2-2 1-1 1-2 0-1 1-2-1-2 0z"  fill="#c2e1ff" /><path d="M98-170l5-2 13-4 13-1 12 2 12 3 11 6 11 7 10 7 9 7 10 8 9 8 8 8 7 9 6 9 6 13 5 12 4 9 7 11 5 10 5 10 5 10 5 10 6 10 8 8 11 4 12 4 10 5 9 7 9 9 7 8-1 32 0 0 0 0-24-11-7-9-10-8-10-5-11-3-9-4-10-7-8-10-6-11-5-10-6-10-5-11-4-12-6-11-5-11-5-12-4-11-5-9-8-11-8-7-8-8-8-7-9-7-9-7-13-8-12-5-13-2-10 2-7 1-2 1-1-1-2 0-2-1-1-1-1-2-1-2 0-2 0-2 1-2 1-1 2-1 2-1z"  fill="#fff" /><path d="M104-169l5 2 11 6 9 7 10 8 8 11 6 13 5 13 6 11 8 11 7 10 8 11 7 9 7 9 8 13 6 13 4 12 3 13 1 11 2 10 1 13 1 11 0 11 0 11 1 12 2 10 9 7 7 8 3 10 3 8 0 0 0 0-13 2-11 1-9-5-10-8-6-8-4-11-1-13 0-11 0-12 1-11 0-10-1-13-2-14-2-14-3-10-5-11-5-9-7-10-8-10-7-11-7-11-8-12-7-14-5-13-6-15-9-11-8-7-9-6-4-4-2-1-1-2-1-1 0-2 0-2 1-2 1-2 1-1 2-1 2 0 2-1 1 1 2 1z"  fill="#c2e1ff" /><path d="M92-163l0-5-1-13 1-13 0-12 0-11 1-10 1-12 2-13 4-12 6-11 6-8 8-9 8-6 9-7 10-3 9 5 11 0 0 0 0 0 0 12-6 7-9 7-9 5-8 7-7 8-6 10-3 11-2 12-1 10-2 11-2 11-2 12-2 13 0 5-1 2 0 2-2 1-1 1-2 1-2 0-2 0-1 0-2-1-1-2-1-1-1-2 0-2z"  fill="#005bbb" /><path d="M108-160l-2 5-3 10-4 10-4 9-6 12-4 11-2 12 0 11 4 11 8 6 8 7 9 5 9 4 9 6 9 8 1 11-3 10-12 6 0 0 0 0 1-4-9-3-9-6-9-5-10-5-10-9-8-7-7-8-6-11-2-13 1-11 2-11 4-13 7-13 7-11 7-12 6-12 3-5 0-2 2-1 1-1 2-1 2 0 2 0 2 0 1 1 1 2 1 1 1 2 0 2 0 2z"  fill="#c2e1ff" /><path d="M94-157l-4-5-9-9-9-11-9-9-10-10-9-9-10-10-10-11-11-9-10-10-10-8-9-9-9-7-9-7-8-7-7-9-6-10-4-12-2-12 0-13 1-13 3-14 4-14 4-14 6-12 6-12 6-11 7-12 9-11 10-9 11-7 11-5 12-2 15-1 15 0 10 1 15 0 12-3 11-5 8-7 11-8 10-8 12-10 12-9 14-9 52-14 0 0 0 0-44 40-12 9-11 9-11 9-11 9-9 7-11 9-13 6-13 3-12 1-12-1-15-1-12 0-14 1-11 5-10 7-7 9-6 9-5 11-6 11-4 11-4 11-3 13-2 12-2 11 0 12 3 10 6 10 8 10 8 7 9 8 9 9 10 9 10 9 11 11 11 11 10 10 9 11 8 10 9 11 8 11 8 10 3 5 1 2 1 2 0 2 0 2-1 1-1 2-2 1-1 1-2 0-2 0-2 0-2-1-1-1z"  fill="#005bbb" /><path d="M99-170l5-2 12-3 12-3 11-2 10-2 10-2 10-2 11-1 14-2 12-1 13 0 12 1 11 1 14 2 13 3 13 4 14 6 14 7 13 10 11 9 11 9 10 7 12 6 14 7 14 8 13 7 13 7 13 7 12 9 11 8 9 8 9 8 7 8 10 9 10 7 9 3 13 0 13 1 11 1 12-1 41 13 0 0 0 0-36 17-13 1-12-1-10-1-13-1-13-2-13-5-12-8-8-7-8-8-6-7-8-8-8-7-10-8-10-7-11-7-14-7-13-7-13-7-14-7-14-7-13-9-11-9-11-9-10-7-12-6-11-5-11-4-12-2-11-2-12-1-15-1-10 0-11 1-15 1-14 1-10 1-11 1-11 1-12 1-11 2-6 0-2 0-2 0-2-1-2-1-1-1-1-2 0-2 0-2 1-2 1-1 1-2 2-1 2 0z"  fill="#c2e1ff" /><path d="M95-156l-5-4-11-9-9-8-9-10-7-9-6-9-5-9-4-11-1-10 1-14 3-12 3-12 3-11 2-11 0-11-8-7-9-5-7-7-5-9-5-1 0 0 0 0 2-5 9-5 10-3 10 2 9 5 10 7 8 8 5 11 1 12-1 11-2 11-4 11-4 12-3 10-3 13 1 10 6 12 7 13 7 9 8 9 9 9 4 4 2 2 1 2 0 1 0 2 0 2-1 2-2 1-1 2-2 0-2 1-2-1-2 0-1-2z"  fill="#fff500" /><path d="M107-158l-4 5-6 10-6 9-5 10-4 12-2 15-2 10-2 11-3 12-3 14-4 11-4 10-5 10-6 10-7 9-8 9-9 9-9 8-8 8-6 8-4 11 10 1 29 0 0 0 0 0-10 27-12 6-11 2-11-1-12-4-10-8-4-12-1-11 2-11 4-10 6-11 7-8 8-8 9-8 7-7 8-7 8-9 7-9 5-11 4-9 4-11 3-12 4-14 2-10 3-10 4-12 5-11 7-10 7-9 8-9 4-4 1-2 2-1 1 0 2-1 2 1 2 0 2 2 1 1 1 2 0 2 0 2-1 2 0 1z"  fill="#fff500" /><path d="M95-169l5-4 12-8 11-7 11-7 9-7 8-9 7-9 5-10 4-14 2-11 3-11 3-12 2-12 2-13 2-14 2-12 4-14 6-14 7-12 9-13 10-11 11-12 11-12 12-14 13-14 11-16 8-18 2-10 2-11 1-11 0-13 0-14 0-15-1-16-2-15-2-15-3-16-5-16-6-17-8-18-9-18-9-17-10-17-12-17-11-15-13-15-11-15-11-13-10-14-10-13-10-14-8-13-8-14-7-14-6-16-5-17-4-18-4-19-2-19-2-20-1-20 0-20 0-19 1-19 0-20 0-20-1-21 0-21-2-134 0 0 0 0 5 135 0 20 1 21 0 20 0 20 0 19 0 19 0 20 1 19 3 20 3 19 5 19 4 17 5 16 6 15 7 15 7 13 8 14 8 14 10 13 9 14 11 14 11 15 12 15 12 15 12 17 11 17 11 17 10 17 10 17 7 17 6 17 5 17 3 15 2 16 2 15 2 16 1 14 1 15 0 13-2 13-2 12-4 11-5 11-6 10-6 9-6 9-13 15-11 13-11 12-9 11-8 10-7 11-5 10-4 10-2 12-3 12-2 13-2 13-2 14-4 12-3 11-3 12-5 12-7 12-9 11-11 11-12 8-12 7-12 5-11 5-5 4-2 1-2 0-2 0-2 0-1-1-2-1-1-2-1-1 0-2 0-2 1-2 1-2 1-1z"  fill="#c2e1ff" /><path d="M106-168l5 6 10 10 9 11 10 12 9 13 7 11 7 10 7 11 6 10 5 9 7 12 6 9 5 11 5 13 1 14-1 13-1 11-2 10-4 11-2 11-4 12-3 11-3 12-4 11-5 12-6 12-7 10-8 10-8 9-8 9-9 8-10 8-8 7-10 8-8 9-5 10-1 11-1 12-9 19 0 0 0 0-17-14-3-13 1-13 2-12 6-11 7-10 10-10 11-9 8-6 8-6 8-8 8-7 6-8 7-9 6-8 5-10 4-9 3-10 3-11 3-11 3-12 3-12 3-14 3-13 1-11-1-12-5-11-6-11-6-12-5-10-5-10-5-10-6-10-7-12-8-11-8-12-9-12-8-12-4-5-1-2-1-2 0-2 0-2 1-2 1-1 2-1 1-1 2-1 2 1 2 0 2 1 1 2z"  fill="#c2e1ff" /><path d="M93-167l3-6 6-13 7-13 7-14 8-11 5-10 6-12 3-11-1-11-2-12-1-13-1-10-1-11-2-12-4-11-6-9-8-7-10-5-10 0-11 3-16 12 0 0 0 0-6-12-4-11 5-11 7-7 12-5 12-1 12 1 12 3 11 6 8 7 8 8 6 8 5 9 4 10 3 11 1 14 1 13 0 12 1 10 0 11 0 11-3 12-6 13-6 9-6 10-8 10-8 12-7 13-8 13-4 6-1 1-2 1-2 1-2 1-2-1-1 0-2-1-1-1-1-2-1-2 0-2 0-2 1-2z"  fill="#fff500" /><path d="M92-163l0-7 1-13 2-13 2-11 3-11 3-11 5-11 6-9 8-9 10-8 10-7 10-5 12-7 11-7 11-7 10-4 13-3 11-1 11 0 10 2 13 2 11 1 11 1 10 0 12 0 12-2 11-3 12-6 12-6 12-6 12-5 11-6 10-5 10-7 7-7 8-9 9-11 9-14 10-17 5-9 6-10 6-10 8-10 7-10 9-11 9-11 10-10 10-11 10-11 11-10 11-10 71-60-1 0 1 0-62 70-10 10-10 10-9 11-9 11-9 12-8 10-7 11-7 11-6 9-6 10-5 10-4 9-5 9-4 10-10 16-9 13-10 11-11 10-12 8-11 6-11 5-12 6-12 6-13 7-13 6-16 6-15 2-14 1-13 0-10-1-12-1-11-1-12-3-10 0-10 1-11 4-11 7-13 6-9 6-9 4-12 7-9 8-8 11-5 12-3 10-4 10-2 12-3 12-1 6 0 2-1 2-2 1-1 2-2 0-2 1-2-1-2 0-1-1-2-2 0-1-1-2 0-2z"  fill="#fff500" /><path d="M104-156l-5 4-11 9-13 10-14 12-16 11-16 9-17 8-15 9-15 10-9 6-10 6-11 5-10 4-11 4-11 3-11 4-12 2-13 2-13 2-13 1-14 0-13 1-12-1-12 1-11 0-11 2-10 2-19 4-16 5-15 6-16 6-15 5-15 4-15 5-15 5-15 7-17 7-18 7-18 6-16 6-15 7-12 7-11 6-10 6-10 9-7 9-2 11 2 10 2 11 4 12 4 10-5 23 0 0 0 0-22-12-4-13-3-10-2-12-2-14 0-12 4-11 6-11 8-10 10-8 10-6 12-5 12-6 14-7 17-7 18-7 17-6 16-7 17-7 16-7 16-5 16-4 15-4 15-4 15-5 17-5 19-4 10-2 11-2 12-1 12-1 12 0 12 0 12 0 13-1 12-2 13-2 11-2 11-3 11-3 10-4 10-3 9-4 9-5 9-5 9-6 8-6 8-5 16-9 16-8 16-9 15-9 14-11 14-10 13-8 6-3 1-1 2 0 2 0 2 0 1 1 2 1 1 2 1 2 0 1 0 2-1 2-1 2-2 1z"  fill="#fff" /><path d="M100-170l5-1 11-2 10 0 15-1 14 0 12 0 14 0 11 1 11 0 13-2 12-4 9-6 5-9-4-10-5-9-5-10-7-12-8-7-10-4-10 0-10 6-11 7-11 6-10 5-14 2-12-2-24-28 0 0 0 0 32-3 10 0 11-6 9-6 9-5 13-6 11-1 14 2 11 3 10 5 8 7 8 8 7 11 6 12 5 10 5 11 2 14-2 11-5 9-7 9-11 7-13 7-13 3-13 2-13-1-13-1-11-1-13-1-14-2-13-1-14-1-11 0-6-1-2 0-1 0-2-1-1-2-1-1-1-2 0-2 0-2 1-2 1-1 2-1 2-1 2 0z"  fill="#fff" /><path d="M97-170l6-3 14-5 14-4 15-5 15-5 16-4 15-4 14-4 14-4 15-4 15-4 17-5 18-6 18-6 17-5 19-5 10-3 9-3 11-3 11-2 11-3 11-2 12-3 12-4 13-3 12-4 12-3 11-4 10-4 17-8 14-9 14-9 13-9 12-6 12-5 11-4 11-4 12-3 13-3 14-2 13-1 13 0 13 1 12 1 12 2 10 2 10 3 9 5 11 7 10 6 10 6 10 22 0 0 0 0-22 3-11-4-9-6-10-8-11-7-12-3-10-2-11-2-11 0-12-1-12 1-11 1-12 3-11 3-11 2-10 3-11 4-11 4-12 7-15 9-16 9-9 4-10 4-11 4-11 4-12 4-12 3-12 5-13 4-12 4-11 3-11 3-10 2-10 3-10 4-10 3-18 5-18 6-17 5-17 6-18 7-17 4-14 3-14 4-15 4-15 3-15 3-15 4-15 4-15 4-13 3-6 2-2 1-2 0-2-1-2-1-1-1-1-2-1-2 0-1 0-2 1-2 1-2 1-1 2-1z"  fill="#005bbb" /><path d="M102-170l6 1 12 3 12 3 10 2 10 2 10 4 10 6 8 6 7 9 6 11 4 10 4 10 5 11 4 11 5 10 5 11 6 9 8 11 9 12 9 11 8 10 8 6 9 5 14 5 11 1 11 0 11-2 11-5 13-6 12-8 12-8 10-9 10-13 11-15 11-16 10-16 5-9 6-9 6-8 6-8 12-16 13-14 15-12 14-10 15-10 14-8 14-9 13-8 11-10 45-23 0 0 0 0-30 41-13 10-14 9-14 9-15 8-13 9-14 9-13 10-11 13-12 14-11 16-10 17-5 9-10 17-11 16-11 16-12 15-14 10-13 9-14 8-15 7-16 5-15 2-15-1-14-3-14-6-12-7-12-10-9-11-9-12-9-11-9-11-8-13-6-12-4-11-4-10-5-11-4-11-6-14-7-11-10-8-13-5-11-3-11-4-11-5-6-2-2-1-2-1-1-1-1-2 0-2 0-2 1-2 1-1 1-2 2-1 1 0 2 0 2 0z"  fill="#c2e1ff" /><path d="M95-169l4-4 10-6 8-6 13-7 11-5 13-4 14 0 10 2 13 5 10 4 9 5 11 5 11 7 9 6 10 7 9 7 10 9 8 7 12 8 13 7 12 6 11 5 11 4 13 4 10 6 10 4 10 3 9-9 6-9-1-12 8-31 0 0 0 0 23 21 1 13 0 12-3 10-7 12-8 8-8 8-13 6-14 0-13-3-10-5-10-6-11-5-13-4-14-7-13-7-8-4-11-6-10-8-9-8-8-7-8-7-9-6-10-6-13-8-9-5-13-7-11-5-12-2-12 3-11 3-13 5-12 7-5 3-2 1-2 0-1 0-2 0-2-1-2-1-1-2-1-1 0-2 0-2 1-2 1-1 1-2z"  fill="#005bbb" /><path d="M98-170l5-2 12-4 10-5 9-5 9-5 9-7 8-7 7-8 7-8 7-8 9-8 9-8 9-8 4-10 2-11 0-14 1-14 3-13 3-13 3-11 1-11 1-10 2-10 0-11-4-10-1-31 0 0 0 0 24 8 6 9 4 12 2 14 0 12-2 11-1 10-2 13-3 13-3 13-2 10-1 11 0 12-2 11-2 11-5 11-7 10-8 6-8 7-10 8-8 8-10 8-8 8-10 8-12 7-12 6-11 4-12 3-13 2-5 1-2 0-2 0-2-1-1-1-1-1-1-2-1-2 0-2 1-1 1-2 1-1 2-1 1-1z"  fill="#005bbb" /><path d="M101-155l-7 2-14 3-14 4-16 4-16 2-17 0-15-1-15-2-15-3-13-4-14-3-14-4-15-5-16-4-17-5-18-5-18-6-18-5-18-4-16 1-14 5-13 10-13 14-6 8-5 10-6 10-5 10-6 10-6 10-6 9-7 10-6 9-6 9-7 10-6 8-7 10-7 9-7 9-8 9-7 9-8 8-7 9-8 7-7 8-7 7-13 13-13 12-12 12-14 12-15 11-15 11-15 11-15 12-15 11-14 10-12 10-10 9-7 8-35 25 0 0 0 0 14-36 8-9 11-10 12-9 13-10 15-11 15-11 14-11 16-12 14-10 14-11 14-11 12-11 13-12 14-13 7-7 8-8 7-7 7-9 8-8 7-9 7-9 6-9 7-9 6-9 7-9 6-9 6-10 6-9 6-9 6-10 5-9 5-11 6-10 5-11 7-10 8-10 8-8 8-6 9-7 10-4 11-3 10 0 11 0 11 1 10 2 19 5 18 6 17 5 17 4 17 4 14 4 15 4 14 4 12 5 13 3 13 2 14 1 14 1 15-1 14-3 16-3 15-2 7-1 2 0 2 1 1 1 2 1 1 2 1 1 0 2 0 2-1 2-1 2-1 1-2 1-2 0z"  fill="#c2e1ff" /><path d="M108-161l0 5-1 10-1 12-1 11-2 12-2 11-1 12-1 12-1 12-1 12 1 11 1 10 2 14 4 9 6 9 8 8 10 8 8 7 11 11 7 8 7 10 6 11 5 10 4 11 5 10 4 10 6 12 5 12 5 12 4 13 5 12 6 14 6 17 5 19 2 11 0 10 0 11 0 10-1 11-2 11-1 11-1 10-1 11-2 11-2 11-1 11-1 11-1 11 0 11 0 12 0 11 2 11 2 11 18 79 0 0 0 0-35-75-3-13-2-12-1-12 0-12 0-12 1-12 1-11 1-12 1-11 1-10 1-11 1-10 1-11 1-20 0-19-3-16-5-17-7-16-6-14-5-13-5-12-4-11-5-11-6-11-5-12-5-10-6-14-5-9-7-11-9-10-7-7-9-9-11-9-9-11-7-12-5-10-2-12-1-11-1-12 0-12 1-13 2-13 2-12 2-12 2-12 3-11 2-12 3-10 2-10 1-6 1-2 1-1 1-2 1-1 2 0 2-1 2 1 2 0 1 2 2 1 1 2 0 2 0 2z"  fill="#005bbb" /><path d="M92-164l1-6 2-14 5-16 7-14 9-14 12-13 13-12 14-12 12-13 9-15 7-15 7-16 4-15 0-14-2-14-4-16-4-17-3-19-2-18-3-18-2-18-1-19-1-10 0-10 0-11 0-11-2-11-2-12-2-12-3-12-3-13-3-13-3-13-4-14-4-15-4-14-5-14-6-13-7-13-6-12-7-12-7-11-7-10-7-9-7-9-8-8-7-8-13-13-13-11-12-10-11-11-11-11-10-10-9-10-8-10-8-8-8-8-8-10-8-11-6-12-9-45 0 0 0 0 31 33 5 10 6 9 8 10 7 9 8 9 7 9 8 10 10 11 9 11 11 11 11 11 12 13 13 14 7 8 7 9 7 9 7 10 7 11 7 12 7 12 6 13 7 13 7 14 5 14 6 14 4 15 5 14 4 13 3 13 4 12 3 13 4 12 3 13 2 13 1 12 1 11 1 19 1 18 2 17 2 17 3 19 3 17 4 17 4 17 2 17-1 19-5 19-7 17-9 17-5 9-6 9-7 8-7 7-13 12-13 11-10 10-8 12-7 12-5 12-4 12-1 7-1 2-1 1-1 2-2 1-1 0-2 1-2-1-2 0-2-2-1-1-1-2 0-2 0-2z"  fill="#fff500" /><path d="M103-170l6 2 13 2 13 0 14 0 15 0 18 0 18 0 10-1 10 0 11 1 20 1 18 2 17 3 16 3 14 2 14 2 16 1 18 2 18 2 18 1 16 0 14-2 12-3 11-4 11-4 14-5 11-4 12-6 14-4 12-2 11-3 11-4 8-7 7-8 10-11 11-9 8-8 7-10 10-10 9-7 11-7 39-7 0 0 0 0-19 29-11 8-8 5-8 8-8 10-8 8-10 9-8 7-9 11-8 7-11 7-11 5-14 4-13 2-12 2-12 5-10 3-13 4-10 3-11 3-14 4-16 2-17 1-18-1-19-1-18-1-17-1-16-2-15-3-15-3-16-3-16-3-18-2-19-1-20 1-20 0-17 0-16 0-14-1-16-2-14-4-6-3-2-1-2-1-1-1-1-2 0-2 0-2 1-2 1-2 1-1 2-1 2 0 2 0 2 0z"  fill="#fff" /><path d="M106-157l-3 5-9 9-7 10-6 10-8 11-8 12-8 11-9 13-13 13-13 13-12 15-10 16-6 9-5 9-7 10-7 9-8 9-9 8-9 8-10 8-10 9-10 8-10 8-11 9-11 8-11 8-11 7-11 6-10 7-9 6-8 6-14 12-15 12-15 12-14 11-13 8-12 8-12 6-10 5-9 4-13 4-11 2-12 2-9 5-6 10-21 9 0 0 0 0-3-22 4-10 8-9 9-6 12-3 11-1 13-2 10-2 13-4 10-5 11-5 12-7 14-8 14-10 15-12 15-11 9-7 9-6 9-6 10-6 10-6 11-7 11-8 10-8 10-8 10-9 9-9 10-8 9-9 9-8 7-7 7-8 6-9 6-8 5-10 5-9 6-10 6-9 6-8 7-8 13-14 11-12 8-11 9-12 8-10 8-11 9-11 9-10 9-8 4-4 1-1 2-1 2 0 2 0 2 0 1 1 2 1 1 2 1 2 0 1 0 2-1 2-1 2z"  fill="#005bbb" /><path d="M92-164l1-7 2-15 2-16 1-17 1-18-1-18 1-10 1-12 2-11 2-11 3-11 4-12 5-12 5-12 5-12 6-13 6-12 5-13 6-12 6-12 5-12 6-12 5-12 6-12 7-11 6-11 8-11 9-11 9-10 8-11 10-11 9-11 9-12 8-12 7-14 7-14 4-16 5-17 3-18 1-19-2-19-4-18-5-18-7-17-7-15-9-14-9-12-10-12-11-13-11-11-12-12-12-11-13-10-13-9-14-8-14-7-14-8-14-6-14-5-14-5-14-4-13-5-13-4-13-5-13-5-12-5-12-5-12-6-12-5-11-6-11-5-12-5-11-5-13-5-12-5-12-4-11-5-12-6-11-5-10-5-10-5-9-4-9-4-17-8-15-5-13-5-51-31 0 0 0 0 50 9 14 6 15 6 16 8 17 9 9 5 10 5 10 5 10 6 11 5 12 5 12 5 12 5 12 5 12 5 12 5 11 6 11 6 11 5 12 6 11 6 12 5 13 5 12 5 13 5 14 5 13 5 14 5 14 6 14 7 15 7 14 8 14 8 14 10 13 10 13 11 12 12 11 12 10 13 10 13 9 13 9 15 7 15 6 17 6 19 4 18 3 20 0 20-1 19-4 18-4 17-6 16-8 14-8 14-9 12-9 12-9 11-8 11-9 10-8 10-7 11-7 10-6 11-6 11-5 12-5 12-6 12-5 12-6 12-5 13-5 13-5 12-5 12-4 12-4 11-3 12-3 10-2 10-1 10-1 20 0 20-2 18-1 17-3 17-3 15-2 7-1 2-1 2-1 1-2 1-2 0-2 0-2 0-1-1-2-1-1-2-1-1 0-2 0-2z"  fill="#005bbb" /><path d="M105-169l5 4 12 7 14 6 17 7 10 4 9 4 19 7 11 4 10 4 10 6 10 5 10 4 10 5 11 5 11 4 11 6 12 5 10 6 11 5 11 4 10 5 11 5 11 4 11 5 11 5 10 7 10 6 9 8 8 8 8 8 8 8 12 14 10 14 8 12 8 13 6 10 7 9 6 9 10 11 6 8 5 9 5 13 4 9 3 13 1 14-1 14-3 14-5 13-9 13-13 10-11 7-12 6-14 6-14 2-12 2-13 1-12 0-11-1-12 0-42-20 0 0 0 0 39-8 10 1 11 0 11 1 16 0 11-2 9-2 10-4 11-5 10-7 10-8 6-11 2-10 1-11-2-15-4-13-4-11-4-9-8-12-7-9-7-10-6-11-6-12-7-12-8-13-9-14-12-14-7-7-8-8-8-7-9-6-9-5-10-6-10-4-11-5-11-4-11-5-11-5-11-5-11-5-11-5-11-5-11-5-11-4-11-5-11-4-10-5-9-5-10-4-9-4-10-4-10-3-18-8-10-3-9-4-16-9-12-9-5-4-1-1-1-2-1-2 0-2 1-2 0-1 1-2 2-1 2-1 1 0 2 0 2 0 2 1z"  fill="#c2e1ff" /><path d="M108-160l-2 7-3 14-3 15-3 15-2 14-1 17-1 17-1 11 0 11-1 10 0 12-1 12 0 12-1 11-2 12-1 10-3 11-2 11-2 10-2 10-2 10-2 11-2 11-2 11-2 10-2 11-2 10-1 11-2 19-1 18 0 18 0 17 1 18 0 18-1 16-1 17-2 16 0 16 1 15 2 13 2 13 2 11 3 10 3 12 4 12 3 12 1 13 1 12 0 13 2 11 3 11-10 25 0 0 0 0-18-15-3-10-2-10-1-14 0-11 1-10-1-13-3-10-3-14-3-14-1-12-2-12-2-14-1-16 0-17 1-17 2-16 1-16 1-16 0-17 0-19 0-18 1-18 2-20 1-11 2-10 2-10 2-11 2-11 2-11 1-10 2-11 2-11 2-10 3-11 4-19 2-11 1-10 1-11 0-11 0-12 0-12 0-11 0-11 0-10 1-19 2-17 3-17 4-15 5-15 4-14 2-7 1-2 1-1 2-1 1-1 2-1 2 1 2 0 2 1 1 1 1 2 1 2 0 2 0 2z"  fill="#fff" /><path d="M105-156l-5 4-11 9-11 8-12 7-10 6-11 5-10 4-10 3-14 4-13 4-10 2-13 2-15 1-14-1-11 1-10 2-11 3-12 3-10 3-12 4-12 5-11 6-11 5-10 5-11 5-9 7-9 7-11 5-9 3-11 2-10-2-12-3-10-3-12-2-31-18 0 0 0 0 32-14 12 2 13 3 12 4 11 1 11-5 8-5 11-7 9-5 11-5 11-5 12-5 11-4 9-4 11-4 11-2 11-3 12-3 14-2 14-1 13 0 11 0 11-2 15-3 13-2 13-3 14-5 9-3 11-5 11-5 11-6 10-7 6-4 1-1 2 0 2-1 2 1 2 0 2 2 1 1 1 2 0 2 0 2 0 1-1 2-2 2z"  fill="#005bbb" /><path d="M93-160l-3-4-7-13-8-10-7-8-10-9-9-7-11-9-9-7-11-7-8-8-6-9-8-7-8-7-8-9-11 0-9 7-11 0-17-1 0 0 0 0 5-19 5-8 9-6 10-4 10-2 11 0 11 4 11 8 7 10 8 7 7 8 8 10 8 9 8 6 8 7 9 8 7 8 8 9 9 10 7 13 4 9 4 10 1 6 1 2 0 1-1 2 0 2-2 1-1 2-2 0-2 0-2 0-2 0-1-2-1-1-1-2z"  fill="#fff500" /><path d="M95-157l-5-3-10-8-9-8-9-8-9-9-8-8-7-9-9-10-9-7-11-5-11-3-10-3-10-3-13-6-11-7-9-6-10-6-12-5-10-5-9-8-8-9-7-11-5-10-5-11-8-7-9-8-11-6-10-8-11-8-11-7-29-25 0 0 1 0 39-4 10 5 9 6 10 8 8 5 11 6 9 8 9 8 8 9 7 11 4 9 5 11 7 7 8 6 11 4 9 5 8 6 10 8 9 5 13 6 11 3 11 4 11 6 11 8 8 7 7 8 9 13 6 8 8 9 8 9 8 8 8 9 4 5 2 1 1 2 0 2 0 2-1 2-1 1-1 2-1 1-2 0-2 1-2-1-2 0-2-2z"  fill="#c2e1ff" /><path d="M92-163l0-6 0-13 0-12 1-12 0-12 1-10 0-11 1-11 0-11 1-14 1-14 1-13 2-12 2-10 4-15 5-11 6-10 7-11 6-8 4-10 2-11-3-11 0-11-1-13-1-12 0-11 0-10 2-10 15-28 0 0 0 0 18 21-2 14-2 10 1 11 1 10 0 12 1 12 2 11-1 13-2 12-4 11-7 9-7 8-6 8-7 10-4 11-4 13-2 12-2 11 0 13-1 14-1 13-1 10-1 11-2 11-2 11-1 11-2 13-1 12-1 6 0 2-1 2-1 1-2 1-2 1-1 0-2 0-2 0-2-1-1-2-1-1-1-2 0-2z"  fill="#c2e1ff" /><path d="M96-169l5-4 9-6 11-9 11-7 8-6 9-6 10-6 10-5 10-4 7-9 6-10 5-10 4-9-1-11 1-11 5-10 10-13 0 0 0 0 14 13 4 11-2 10 1 11-3 12-4 10-7 10-5 10-6 9-9 8-10 5-10 3-11 4-9 5-9 5-10 5-12 6-9 5-10 5-5 2-2 1-2 0-2 0-1 0-2-1-1-2-1-1-1-2 0-2 0-2 1-2 1-1 2-1z"  fill="#fff500" /><path d="M100-155l-6 1-10 1-11 1-11 0-14-1-12-1-12-3-10-4-11-7-9-6-10-5-10-6-9-10-7-10-5-10-5-10-5-10-5-9-8-9-6-9-6-9-6-11-4-10-2-11-3-11 13-24 0 0 0 0 22 27 2 10 4 10 6 9 5 10 7 7 7 11 5 11 5 11 5 11 6 10 8 7 9 5 9 7 8 7 11 5 12 4 12 2 14 2 10 1 11 0 6 0 2 1 2 0 1 1 1 2 1 2 1 1 0 2-1 2 0 2-2 1-1 1-2 1-2 0z"  fill="#fff500" /><path d="M92-163l0-6-1-10-1-10-1-14-4-14-3-14-3-14 0-12 2-12 5-12 5-9 6-9 6-12 2-12 0-14-1-11-1-11-2-11-1-10-3-12-4-11-5-9-6-9-10-5-11-3-9-4-10-3 0 0 0 0 7-13 7-9 11-1 11 2 11 5 9 5 9 9 6 8 5 11 3 10 3 11 3 13 2 11 1 11 2 13 1 12 0 13-2 13-3 12-5 10-6 9-7 12-5 10-1 11 2 13 2 13 2 11 0 11 0 10-1 11 0 11-1 6 0 2-1 1-1 2-2 1-1 1-2 0-2 0-2 0-2-1-1-1-1-2-1-2 0-2z"  fill="#fff" /><path d="M97-170l7-3 14-7 15-8 16-10 15-10 15-12 14-12 14-12 11-14 11-14 13-17 7-9 7-9 7-9 7-10 7-9 6-10 7-10 6-10 6-10 6-10 6-9 6-9 7-9 7-8 6-8 7-8 7-8 7-8 9-8 9-8 10-7 10-5 12-5 11-3 12-2 12 0 11 1 11 3 11 4 10 5 11 6 11 5 12 7 13 8 13 10 14 11 15 15 15 15 17 17 18 19 20 20 23 21 24 24 25 25 26 26 24 29 22 30 21 32 19 34 16 38 14 41 11 45 9 47 6 50 6 53 9 55 10 55 14 56 16 56 22 57 24 58 26 56 31 53 37 50 42 47 45 47 47 45 47 45 49 41 52 40 53 43 53 46 48 48 289 329 0 0 0 0-291-328-48-48-52-46-54-42-51-41-50-41-47-44-47-46-45-46-42-48-37-50-31-53-26-56-24-58-22-58-17-56-13-55-10-56-9-55-7-53-5-50-9-47-11-44-14-41-16-38-19-34-21-32-22-29-24-29-26-26-25-25-24-23-23-21-22-19-19-18-17-16-17-14-16-12-14-9-14-8-12-7-12-6-11-5-11-5-9-4-17-7-19-1-19 4-9 4-9 5-8 5-8 7-8 7-7 8-7 8-7 8-6 7-7 9-6 7-6 9-6 8-6 10-6 9-6 11-7 11-6 10-7 10-7 10-7 10-7 9-6 9-6 9-12 16-12 15-15 14-14 12-16 13-8 6-17 10-16 10-16 9-16 5-7 3-2 0-2 0-2 0-1-1-2-1-1-2-1-1 0-2 0-2 1-2 1-2 1-1 2-1z"  fill="#005bbb" /><path d="M92-160l-2-6-5-12-4-12-6-12-7-11-9-9-10-9-10-8-11-7-10-5-10-4-10-4-10-2-11-2-11-2-13-1-13 0-12 1-14 3-12 4-10 6-9 7-11 9-10 8-11 9-10 9-9 11-9 12-10 12-8 10-7 11-5 11-4 12-6 16-9 16-10 16-11 15-11 14-9 12-9 11-6 10-5 13-3 12 0 12 3 12-5 39 0 0 0 0-22-33-2-12 0-11 1-12 2-11 5-11 6-11 7-11 9-11 10-12 10-14 10-14 9-14 7-15 5-14 5-14 7-14 8-12 9-12 9-12 10-12 10-12 12-11 10-9 11-9 10-9 13-9 14-8 15-5 16-3 16-2 16 0 13 1 13 2 13 3 11 4 12 4 11 5 12 7 12 9 12 9 11 11 10 12 8 14 5 14 4 13 3 13 2 6 0 2 0 2-1 2-1 2-1 1-2 1-2 0-2 0-2 0-1-1-2-1-1-2-1-1z"  fill="#c2e1ff" /><path d="M106-157l-4 5-6 10-4 11-4 12-3 11-2 11-2 10 0 13 1 13 5 12 4 10 6 11 5 13 4 11 3 11 2 11 2 10 2 10 3 12 2 11 1 11 3 10 0 11-4 10-9 4-12 7 0 0 0 0-4-9-2-10-2-10-2-11 0-10-2-11-2-11-2-10-1-10-2-12-3-13-4-10-5-11-5-11-4-13-2-10-1-11 1-11 1-11 2-11 4-12 4-13 6-12 7-13 8-11 5-5 1-1 2-1 2-1 2 0 1 1 2 1 2 1 1 1 1 2 0 2 0 2-1 2-1 2z"  fill="#c2e1ff" /><path d="M102-170l6 1 11 2 13 4 11 4 10 4 11 2 11 1 13 1 14 0 14-1 15-3 15-4 14-4 12-5 13-5 11-6 11-7 13-8 12-7 10-9 11-10 13-12 16-11 9-6 10-6 11-5 12-5 13-5 14-4 14-3 14-3 13-2 14-2 13-2 12-3 13-2 12-3 12-3 12-3 12-4 12-4 13-4 13-5 13-7 13-9 13-10 12-13 10-13 9-15 6-14 6-15 5-15 3-15 3-16 4-17 3-17 4-18 3-18 5-18 4-18 3-18 4-17 3-17 3-16 4-16 5-15 5-14 5-13 5-13 4-12 5-12 35-76 0 0 0 0-24 81-6 11-5 12-6 12-5 13-5 14-6 14-4 15-4 16-4 17-3 17-3 18-4 18-4 18-3 18-3 18-3 18-3 17-3 16-4 16-5 15-6 16-7 15-9 15-10 15-12 14-13 12-14 11-13 8-14 6-13 4-13 5-12 3-13 4-12 3-13 3-12 2-13 3-13 2-13 2-13 3-13 3-12 4-12 5-12 5-11 6-10 5-16 11-14 11-12 11-12 11-12 11-13 9-12 7-13 8-14 6-13 5-14 6-15 4-16 4-17 3-18 2-15 0-14-1-14-2-12-4-12-5-10-5-10-5-11-4-5-2-2 0-1-2-2-1-1-2 0-2 0-2 0-1 1-2 2-2 1-1 2 0 2-1 2 1z"  fill="#005bbb" /><path d="M103-155l-7 3-13 5-12 6-11 6-10 8-7 9-5 10-2 15-1 12-1 10 1 15 1 14 1 11-1 12-2 10-3 10-4 9-1 12-7-10-3-12-3-9 8-29 0 0 0 0 23 19 3 10 4 12 3 11 2 11 0 11-4 12-8 8-10 4-12 0-12-6-8-9-4-12-3-11 1-11 3-12 5-10 4-10 2-10 0-11 0-13-1-10 1-13 1-12 2-13 4-14 8-14 11-12 13-10 14-7 14-5 14-4 6-1 2-1 2 0 2 1 2 1 1 1 1 2 1 2 0 2 0 2-1 1-1 2-2 1-1 1z"  fill="#fff" /><path d="M92-163l0-6-1-13 2-13 3-13 3-13 4-13 7-12 7-11 7-10 8-10 8-9 9-9 10-7 10-5 10-4 15-4 12-2 11-4 9-5 8-6 6-8-3-10-2-12 5-9 10-5 12-4 0 0 0 0 3 17 4 10 2 10-2 12-5 10-8 10-8 6-11 6-10 5-12 3-12 2-11 2-12 4-11 5-10 9-8 8-7 9-8 9-6 9-5 9-5 11-4 12-3 11-3 10-1 12-1 7 0 2-1 1-1 2-2 1-1 1-2 1-2 0-2-1-2-1-1-1-1-2-1-2 0-2z"  fill="#fff500" /><path d="M98-155l-7-1-13-5-13-5-12-6-14-7-13-7-15-6-16-6-16-8-14-9-12-12-9-13-7-14-5-13-6-11-6-9-8-8-10-9-11-9-11-9-11-8-10-9-10-8-8-7-10-9-9-9-8-8-8-8-7-9-7-10-5-12-3-11-3-12-3-11-4-12-3-10 3-11 12-15 0 0 0 0 10 13 6 9 3 10 3 10 3 11 2 11 3 11 4 9 7 10 7 8 8 8 8 9 9 9 7 7 9 8 10 8 11 9 11 9 11 9 11 10 11 11 9 13 5 13 5 12 5 11 6 10 9 9 11 8 13 7 17 6 16 7 14 8 12 7 12 7 12 6 11 5 6 3 1 1 2 1 1 1 1 2 0 2 0 2-1 2-1 2-1 1-2 1-2 0-2 0-1 0z"  fill="#fff" /><path d="M108-160l-2 6-4 13-5 12-6 13-6 10-5 9-8 11-6 9-5 11-4 10-4 11-3 13-5 12-5 9-5 10-2 10 2 11 0 11-3 10-8 6-10 2-9 0 0 0 0 0 1-11-3-10-1-10 0-11 2-12 4-11 7-11 5-9 4-10 4-11 4-10 5-11 6-10 7-9 8-10 9-11 6-9 6-10 6-11 5-11 2-6 1-2 1-1 2-2 2 0 2-1 2 1 2 0 1 1 1 2 1 1 1 2 0 2 0 2z"  fill="#fff" /><path d="M92-164l0-5 1-11 1-12 1-10 2-11 3-12 5-11 7-11 10-9 13-7 12-4 12-4 14-5 15-4 17-5 17-4 19-5 10-2 11-1 11 0 11 0 12 1 12 1 13 2 14 1 15 2 16 1 18 0 20-1 21-4 23-4 24-5 23-5 25-6 24-7 25-6 25-6 24-6 23-6 24-4 23-4 22-4 21-4 20-5 20-5 19-6 19-6 18-5 18-5 17-6 16-4 16-4 15-4 15-4 14-3 13-3 12-3 12-2 11-3 11-2 11-2 9-2 18-3 16-3 15-5 13-6 13-7 12-7 13-8 13-7 50-22 0 0 0 0-45 45-14 7-13 7-14 7-15 6-16 5-17 3-17 2-19 2-11 1-11 1-11 2-12 1-12 2-14 2-14 2-15 3-15 3-16 3-16 4-17 5-18 4-18 5-19 6-19 6-20 5-21 5-21 4-22 4-22 4-24 4-24 6-24 7-24 6-25 6-24 7-25 7-23 6-23 6-23 6-22 5-20 4-19 3-17 0-15 0-14 0-13-1-12 0-11 0-19 1-18 3-18 5-18 5-16 5-14 5-13 4-13 4-14 5-10 7-8 10-5 13-2 10-3 10-2 10-2 11-1 6-1 1 0 2-2 2-1 1-2 0-2 1-2-1-2 0-1-1-2-2-1-2 0-2 0-1z"  fill="#c2e1ff" /><path d="M92-164l0-6 1-11 1-12 0-12 0-10-2-11-2-11-3-11-3-11-2-10-3-11-4-14-4-14-4-13-3-14-1-13 2-13 6-13 8-10 12-9 11-6 14-4 11-4 10-6 12-7 9-8 8-10 6-10 5-11 8-13 10-13 12-14 12-14 12-16 6-9 6-9 5-10 5-11 5-11 3-10 3-10 1-10 0-21 0-74 0 0 0 0 19 74 0 11 0 12-2 12-3 12-3 11-4 12-5 12-6 11-5 11-6 10-6 9-6 9-12 16-9 12-8 12-6 12-6 13-6 10-7 11-9 9-9 8-13 8-10 5-14 6-12 4-11 5-9 6-5 12 0 11 1 10 3 12 3 10 3 10 2 11 2 10 2 11 2 11 3 12 2 12 1 13-1 13-1 12-3 12-2 12-1 6-1 2-1 1-1 2-2 1-1 0-2 0-2 0-2-1-2-1-1-1-1-2 0-2 0-2z"  fill="#c2e1ff" /><path d="M106-158l-5 7-12 14-16 13-9 5-10 6-11 5-12 6-12 7-15 7-15 9-16 9-16 9-15 10-14 9-15 10-15 9-14 9-15 9-15 10-14 9-14 10-12 10-12 11-11 12-11 12-12 12-13 13-13 11-13 12-13 11-13 11-12 10-13 9-12 9-13 7-14 6-13 5-14 3-14 1-13 1-13-1-13 0-12 0-11-1-11 0-11 1-18 0-16 2-14 1-14 1-12 0-11-2-10-3-13-5-11-6-8-6-8-7-9-6-11-5-10-3-22-15 0 0 0 0 22-15 13 3 12 5 10 5 9 7 9 9 8 7 10 7 10 5 12 3 10 1 13 1 14-1 17 0 19 1 10 1 11 0 12 1 12 1 12 1 13 0 12 1 13-1 12-2 13-4 13-5 13-7 12-7 13-9 13-10 13-10 12-11 13-12 13-12 12-12 12-13 11-12 12-11 12-11 13-10 14-10 14-10 15-10 15-9 14-9 15-9 14-10 14-10 15-11 15-11 15-10 15-10 13-9 13-8 12-7 10-5 18-10 14-10 12-11 5-7 1-1 2-1 2-1 1 0 2 0 2 1 1 1 1 2 1 1 0 2 0 2 0 1-1 2z"  fill="#fff" /><path d="M96-156l-6-2-10-5-14-2-13-1-13 1-13 1-12 0-12 0-12-1-13-1-10-3-10 3-9 6-11 5-10 4-10 3-12 3-10 3-11 3-13 1-11-1-12-3-11-5-11-8-7-9-3-23 0 0 0 0 27 4 9 7 9 5 10 1 12-1 10-3 10-3 12-4 12-4 9-4 11-6 11-3 13 1 9 3 11 2 12 2 11 0 12 1 13 0 14 1 11 1 11 3 12 5 11 6 5 4 1 1 2 1 0 2 1 2 0 2-1 2-1 1-1 2-1 1-2 0-2 1-2-1-2 0z"  fill="#005bbb" /><path d="M104-156l-6 5-10 8-11 10-11 10-10 10-11 9-11 8-12 6-10 5-10 4-13 6-12 7-11 7-10 8-7 10-6 12-5 12-4 11-1 10 2 13 3 12 2 11 4 12 6 11 5 15 2 9 4 15 2 13 1 10 3 11 2 12 3 10 3 10-4 24 0 0 0 0-24-11-5-12-2-10-2-11-3-12-2-13-1-11-3-13-3-12-4-11-5-12-5-13-3-13-2-11-2-11-1-13 2-13 4-14 6-13 4-9 6-10 7-10 9-9 9-7 14-8 13-6 10-4 14-5 10-5 10-4 10-6 10-8 11-9 11-9 12-9 13-9 7-3 1-1 2-1 2 1 2 0 2 1 1 1 1 2 1 2 0 2 0 2-1 2-1 1-2 1z"  fill="#c2e1ff" /><path d="M94-158l-5-5-8-10-7-10-8-11-7-10-7-10-6-12-5-12-5-9-8-13-8-12-9-11-9-9-10-10-7-7-8-11-7-10-5-12-4-10-5-10-7-10-7-9-4-9-8-9-8-8-1-10-2-15 0 0 0 0 13 0 12 2 8 7 7 8 6 10 5 10 7 9 6 11 6 12 4 12 5 12 6 9 7 9 10 10 7 7 7 9 7 8 5 10 6 9 5 10 5 11 4 10 5 11 6 11 6 10 6 10 7 11 6 11 4 6 1 1 0 2 0 2 0 2-1 2-1 1-2 2-2 0-2 1-2-1-2 0-1-1-1-2z"  fill="#fff500" /><path d="M97-156l-7-3-14-7-17-7-10-4-11-5-13-7-13-7-14-8-16-9-16-8-18-9-19-11-21-10-20-12-21-12-20-14-19-15-20-16-19-16-21-16-21-15-21-16-20-14-22-11-21-11-23-9-24-7-25-7-26-7-25-6-26-6-25-5-26-3-26-2-27-3-26-1-27-1-27 0-27 1-27 0-27-1-27 1-26 1-27 1-26 0-25-1-24-2-22-3-20-4-20-3-18-4-18-3-18-4-17-4-18-4-17-5-18-6-17-6-18-5-17-4-17-2-17-1-17-1-18 0-19 0-18 0-19 1-19 2-18 4-17 5-16 5-14 7-13 8-12 8-10 10-9 9-8 10-7 11-7 10-6 10-5 10-5 10-4 10-5 10-4 11-6 10-6 11-8 10-8 10-8 11-9 10-9 11-71 67 0 0 0 0 60-77 8-10 9-11 8-10 7-10 7-10 6-9 6-10 5-10 5-10 5-11 5-10 6-10 7-10 8-10 8-10 9-10 11-10 11-9 13-8 14-8 15-6 16-5 18-4 18-4 19-3 19-1 18-1 19 0 18 0 18 1 17 1 17 3 18 5 17 5 18 5 17 6 17 5 18 5 17 4 18 4 17 4 19 5 19 3 21 4 22 3 23 2 25 1 26 0 26-1 27-1 27-1 27 1 27 0 27-1 27 0 27 1 27 1 26 3 26 2 26 3 26 5 25 6 26 6 25 7 26 7 24 7 23 9 22 11 21 12 21 14 21 15 20 16 21 16 20 15 20 16 19 14 20 13 21 12 21 11 20 10 20 9 18 7 19 6 16 7 15 7 14 6 12 6 11 4 10 5 17 8 14 8 6 4 2 1 1 2 1 1 0 2 0 1 0 2-1 1-1 2-2 1-1 0-2 0-2 0-1 0z"  fill="#005bbb" /><path d="M108-160l-1 5-2 15-1 12-3 13-3 13-5 15-8 15-8 14-9 15-10 14-9 15-9 15-7 15-5 15-5 17-5 18-3 10-3 10-4 10-3 11-5 11-3 11-4 11-2 11-1 12-1 11 0 11 0 10 2 19 6 15 7 13 8 12 8 11 9 11 8 12 7 12 6 12 7 13 5 13 6 12 6 12 6 11 7 10 9 11 9 9 9 8 9 5 10 4 11 3 11 4 15 2 11 1 34 16 0 0 0 0-42 10-12-1-14-3-12-4-11-4-13-6-12-7-12-10-11-11-9-12-9-13-7-12-6-13-5-13-5-12-6-12-6-12-5-11-7-11-9-11-8-13-8-14-8-16-5-18-1-11-1-10 0-12 0-11 1-12 1-13 2-13 3-12 3-12 4-11 3-10 6-20 5-18 5-19 5-17 7-17 9-17 9-15 9-15 9-15 9-14 7-12 6-13 5-12 3-12 2-11 3-12 3-11 2-5 1-2 1-1 2-1 2-1 1 0 2 0 2 0 2 1 1 2 1 1 1 2 0 2 0 2z"  fill="#005bbb" /><path d="M105-156l-5 4-10 9-10 9-8 9-8 10-5 10-6 11-5 11-4 11-4 11-4 10-4 10-5 10-5 9-5 9-9 11-8 9-8 11-8 7-8 7-7 8 10 15 0 0 0 0-13 8-11 2-9-4-6-8-3-10 2-12 6-10 8-8 8-7 8-6 8-9 7-7 8-9 7-10 7-13 6-13 5-10 4-10 6-12 6-12 6-12 8-11 10-12 11-10 11-8 11-7 5-4 1-1 2 0 2-1 2 1 2 0 2 2 1 1 1 2 0 2 0 2-1 2-1 1-1 2z"  fill="#fff500" /></svg>