<svg width="1200" height="675" viewBox="-500 -500 1200 675" xmlns="http://www.w3.org/2000/svg"><path d="M-500-500h1200v675h-1200z" fill="#000"/><path d="M92-162l-1-6-1-10-3-14-3-12-5-12-4-14-2-12 1-12 3-10 5-10 7-10 7-10 5-10 3-10 2-11 1-11 3-10 6-10 11-13 0 0 0 0 6 9 8 8 1 10-3 11-2 10-2 11-3 10-5 11-6 11-6 8-7 8-6 9-3 10 0 12 4 11 2 10 2 11 1 10 0 10 0 11 0 5 0 2-1 2-1 2-1 1-2 1-2 0-2 0-2 0-1-1-2-1-1-2-1-1 0-2z"  fill="#005bbb" /><path d="M92-164l1-6 1-12 1-11 1-10 1-14 0-12 0-11-2-11-2-11-3-10-6-8-9-9-7-8-8-7-8-8-6-11-3-9-3-10-2-10-7-9-10-5-18-19 0 0 0 0 21-13 10 1 11 5 10 9 7 9 6 10 3 13 3 11 4 9 7 8 8 9 8 8 6 9 6 9 5 12 2 13 2 12 0 12-1 12-2 13-2 14-2 10-3 11-2 12-2 6-1 2-1 2-1 1-2 1-2 0-2 1-2-1-1-1-2-1-1-2-1-1 0-2 0-2z"  fill="#fff" /><path d="M97-170l6-3 11-7 8-8 7-9 5-12 5-14 4-13 3-14 2-15 2-14 4-16 6-15 7-14 8-12 9-12 8-11 7-10 6-8 5-12 3-10 1-10-3-12-8-10-9-9-11-8-9-8-9-11-6-13-5-11-6-11-6-12-6-10-6-10-7-9-6-10-7-9-8-9-8-9-7-9-7-7-8-8-18-37 0 0 0 0 38 18 8 8 8 9 7 8 8 9 8 10 8 10 7 10 7 10 7 11 7 11 6 12 6 12 6 11 6 12 10 8 9 7 8 8 10 11 6 8 7 14 1 13-1 12-3 12-6 14-6 10-7 9-7 10-8 11-9 11-7 10-6 12-5 12-4 13-2 14-3 15-3 16-5 15-6 15-8 14-10 13-13 9-13 7-7 2-2 1-2 0-2-1-2-1-1-1-1-2-1-1 0-2 0-2 1-2 1-2 1-1 2-1z"  fill="#fff500" /><path d="M101-171l6 1 13 0 15 0 13 0 14-2 12-2 11-3 12-6 7-7 7-9 4-10 2-10 2-13 2-15 2-11 2-10 2-11 2-10 4-10 4-9 6-12 5-12 4-9 3-11 3-12 5-13 4-11 2-10 2-11 3-10 0-10 16-28 0 0 0 0 15 19 1 12-1 11-3 12-2 10-2 10-4 10-4 9-4 11-3 10-3 11-5 13-6 11-6 12-5 11-3 12-2 10-2 10-2 15-3 16-3 13-4 13-6 12-8 10-12 9-10 6-12 4-12 3-15 2-15 1-16-1-14-2-13-2-7-1-2 0-1-1-2-1-1-1-1-2 0-2 0-2 1-2 1-2 1-1 2-1 2-1 2 0z"  fill="#005bbb" /><path d="M100-155l-6 1-13 1-16 2-19 1-11 0-13 1-14 1-14 2-15 0-14-1-13-1-12-2-12-3-11-3-10-4-18-8-15-10-14-13-7-8-11-16-5-9-8-18-4-18-2-16 0-16 2-16 3-14 5-15 7-15 7-14 10-15 14-15 9-6 10-6 11-5 11-5 11-4 11-4 10-3 11-2 11-2 10 0 11 0 11 2 11 1 10 3 11 2 11 3 11 3 11 5 12 5 12 7 11 8 12 8 12 9 12 9 11 8 12 9 12 8 13 8 12 8 12 7 12 6 12 7 11 6 12 7 10 5 11 6 11 5 10 5 10 4 9 5 10 3 17 8 52 36 0 0 0 0-60-20-16-8-9-5-10-5-10-5-10-5-10-6-11-5-11-7-11-6-12-7-12-7-12-6-12-7-12-8-13-8-12-8-13-8-12-8-12-8-12-8-12-8-11-7-11-5-10-5-11-3-10-3-10-3-11-2-10-2-18-3-19 0-18 3-9 3-10 4-11 5-10 4-16 10-12 10-10 13-7 13-7 13-5 13-4 12-3 12-1 13 0 15 2 13 4 15 8 16 10 15 10 12 13 11 13 9 17 8 10 3 10 2 12 2 12 2 13 0 13-1 14-2 14-2 13-2 12-1 20-1 15 1 13 0 7 0 1 0 2 1 2 1 1 1 1 1 0 2 1 2-1 2-1 1-1 2-1 1-2 1-2 0z"  fill="#fff" /><path d="M92-162l-1-6-1-11 1-11 2-11 3-14 3-12 4-13 7-10 6-9 5-10 4-9 4-10-2-11-3-10 1-11 0 0 0 0 10 4 10-3 8 6 5 10 2 11-2 10-3 11-6 9-5 10-6 8-7 9-7 9-4 10-4 11-4 13-3 14-1 10 0 5 0 2-1 2-1 2-1 1-2 1-2 0-2 0-1 0-2-1-2-1-1-1-1-2 0-2z"  fill="#005bbb" /><path d="M93-160l-3-6-5-15-5-16-5-17-6-17-8-15-7-14-8-12-9-11-10-10-10-11-11-13-12-14-12-14-6-8-7-8-6-8-6-9-6-9-5-9-9-16-8-16-7-15-6-14-4-15-2-14-2-12-3-12-3-12-1-12-2-11-1-12-1-11-3-12-4-10-6-12-4-9-8-7-12 3-9 5-9 5-35 0 0 0 0 0 19-26 9-5 10-6 12-4 10-2 11 1 10 4 9 6 6 9 6 11 4 9 4 12 4 9 2 11 0 12 1 10 1 11 2 12 1 10 2 12 2 13 2 13 2 13 3 12 6 13 7 15 8 16 9 16 11 15 6 8 13 15 13 15 11 13 11 12 10 11 10 12 10 13 9 14 7 15 8 17 6 18 5 18 3 16 4 14 1 7 1 2 0 2-1 1-1 2-1 1-1 2-2 0-2 0-2 0-2-1-1-1-2-1 0-2z"  fill="#fff500" /><path d="M105-156l-5 4-11 11-12 11-13 12-14 12-15 12-8 7-7 7-8 6-14 13-13 12-12 11-10 11-9 11-8 11-8 10-7 10-8 10-9 10-8 10-10 12-9 10-8 10-8 12-7 13-8 15-6 15-4 17-2 18-1 19-1 10-1 10-1 10-1 11-2 12-2 12-4 12-3 11-4 12-4 11-5 11-5 11-5 11-4 10-6 11-6 10-6 10-7 10-8 10-8 11-6 11-6 12-7 12-5 14-5 13-4 13-2 13-3 13-2 12-2 12-1 12-2 11-3 11-3 11-3 11-2 10-2 10-3 9-28 60 0 0 0 0 14-74 3-9 3-11 3-10 3-10 3-11 2-11 2-11 2-12 3-13 2-13 3-14 4-14 5-14 5-14 6-13 6-13 7-12 7-12 7-10 7-9 6-10 5-9 6-10 4-10 5-11 4-10 4-11 4-11 4-11 3-11 2-11 2-11 1-10 1-11 1-10 1-20 1-20 0-10 1-10 5-20 6-19 8-15 8-16 9-13 9-12 10-10 8-10 9-11 9-10 8-9 8-10 8-9 9-11 10-12 12-12 13-11 13-11 14-13 8-7 7-7 8-6 15-13 14-11 13-11 13-11 12-10 6-4 2-1 2 0 2 0 1 0 2 1 2 1 1 1 1 2 0 2 0 2-1 2-1 1-1 2z"  fill="#fff500" /><path d="M92-161l-2-6-3-12-3-11-2-10-4-12-6-11-5-11-7-10-10-12-6-9-6-10-3-12-2-11 0-11 0-14 2-11 2-13 0-12-2-11-1-10-1-10-3-14-4-12-6-12-6-9-7-9-6-9-9-10-9-8-10-5-10-1-19-7 0 0 0 0 9-15 7-8 13 0 13 3 10 5 9 7 9 8 9 10 6 10 6 9 8 12 7 13 5 10 3 12 3 11 1 11 1 10 1 10 2 12-1 12-1 11-2 12-2 13 1 11 2 10 6 11 6 9 6 9 6 9 6 12 4 13 3 10 2 10 2 11 1 11 2 11 1 7 0 1 0 2-1 2-1 2-1 1-2 1-2 0-2 1-2-1-1-1-2-1-1-2-1-1z"  fill="#c2e1ff" /><path d="M99-155l-5 1-13 0-11 1-11 4-13 6-17 6-18 5-18 6-18 10-9 7-10 8-11 8-11 10-11 9-10 10-10 11-8 12-8 13-5 14-5 15-2 15-1 17 1 16 3 16 4 17 4 19 3 20 2 21 1 22 0 23 0 25 0 25 0 27 0 27 0 28 1 29 0 29 0 30 0 32-1 33-3 33-6 36-8 39-12 38-13 40-15 41-16 41-19 40-20 41-19 43-18 46-18 49-17 54-14 57-11 61-8 65-2 69 2 74 5 77 4 78 5 80 1 79 1 78 4 79 3 81 0 83-7 82-13 80-19 79-25 76-30 77-37 74-43 69-46 66-48 63-48 62-46 61-42 62-42 62-42 63-43 62-43 59-45 53-45 50-46 49-46 50-300 318 0 0 0 0 299-320 46-49 46-49 45-50 44-53 44-59 43-62 42-63 41-62 43-62 45-61 48-62 48-63 46-66 43-69 37-74 30-76 25-77 19-78 13-80 7-82 0-83-3-81-4-79-1-78-1-79-5-80-4-78-5-77-2-74 2-69 8-65 11-61 14-58 18-53 17-50 18-45 19-44 20-41 19-40 16-41 15-41 13-40 12-38 8-38 5-36 4-34 1-32-1-32 1-30-1-29 0-29 0-28 0-27-1-27 0-25 0-25-1-23-1-21-4-21-4-20-5-18-5-18-3-17-2-17 0-17 2-17 5-16 5-16 8-14 9-14 10-12 10-11 10-10 11-11 10-10 10-9 10-8 11-7 10-5 20-7 17-6 16-5 15-6 15-4 14 0 13 2 6 0 2 1 1 1 2 1 1 1 1 2 0 2 0 2-1 2-1 1-1 2-2 1-2 0-2 0z"  fill="#c2e1ff" /><path d="M105-169l6 4 14 9 15 9 16 10 9 6 8 8 8 7 8 8 8 9 8 8 8 7 7 8 8 8 7 7 8 7 7 7 9 7 8 7 9 8 9 8 9 9 9 8 8 8 9 8 9 6 9 6 9 6 9 6 9 4 10 4 9 4 19 5 19 4 20 3 11 1 11 2 12 2 11 3 11 3 12 4 12 4 11 4 12 4 12 5 12 4 12 5 12 5 12 4 12 5 13 4 12 3 13 2 13 3 13 3 14 2 13 1 14 0 15 0 15 0 15 1 14 1 15 2 15 2 15 1 15 1 15 1 15 1 14 1 13 0 13-1 12-1 11-2 12-2 11-3 12-3 11-3 11-2 10-3 10-2 19-4 17-3 16-4 15-3 51 2 0 0 0 0-48 19-14 2-16 2-18 3-18 2-10 2-11 2-11 2-11 3-12 2-12 2-12 2-12 2-13 1-13 0-14 0-14-2-15-1-15 0-15-1-15-2-15-1-14-2-15-1-14 0-15 0-15 0-15 0-14 0-14-2-14-3-13-2-13-3-14-3-13-3-13-5-12-5-12-4-12-4-12-5-12-4-11-4-12-4-11-3-11-3-11-3-11-3-11-2-11-1-10-2-11-1-11-2-10-2-9-2-11-3-10-3-11-4-10-5-10-5-10-6-9-6-10-7-9-7-10-8-8-8-9-8-9-8-9-8-8-7-9-8-9-7-9-7-7-8-8-7-7-8-7-7-9-8-8-8-8-8-7-8-8-7-15-12-16-10-14-10-14-10-6-5-1-2-1-1-1-2 0-2 0-2 1-1 1-2 2-1 1-1 2 0 2 0 2 0 1 1z"  fill="#fff" /><path d="M94-157l-3-3-11-10-10-9-9-9-11-8-11-5-13-3-11-1-11-3-10-2-11-2-10-6-5-9 1-10 0-6 0 0 0 0 6 0 9 5 10-2 10 3 11 4 12 3 13 3 9 4 9 5 10 6 8 8 10 11 8 10 9 11 3 4 1 2 1 2 0 1 0 2-1 2-1 2-1 1-2 1-2 0-2 0-2 0-1-1-2-1z"  fill="#c2e1ff" /><path d="M92-164l1-7 2-14 1-13 0-12-1-13-1-13 1-15 0-13-2-13-3-12-4-13-6-12-6-10-6-8-10-11-11-8-13-6-14-3-10-2-16-1-13 0-15 0-16 0-18 0-18-1-19-1-18-3-17-3-15-2-14 1-15 1-14 4-13 5-13 7-13 8-12 8-11 9-9 10-8 10-8 11-9 10-9 8-9 7-10 9-32 8 0 0 0 0 15-29 12-8 11-9 8-8 8-8 8-11 10-11 13-12 13-10 14-8 14-8 15-8 18-5 17-3 16-1 18 1 17 3 16 3 16 1 18 0 18-1 17 0 16-1 14 0 13 0 14 1 11 2 12 3 13 5 11 6 10 8 9 8 7 10 8 11 6 12 6 13 6 15 3 16 1 16 0 14-1 13 0 14 0 14-1 13-3 14-3 15-2 6-1 2-1 2-1 1-2 1-2 0-2 0-2 0-1-1-2-1-1-2-1-2 0-1 0-2z"  fill="#c2e1ff" /><path d="M108-160l-2 6-3 10-2 12-4 12-5 12-6 10-9 11-10 8-11 7-11 6-10 7-11 6-10 7-9 7-7 9-9 11-10 12-9 12-8 14-8 14-4 13-2 13 0 13 1 12 1 11 1 11 0 11 0 10-1 11 0 12 4 9 7 14 7 12 7 14 7 13 7 15 6 15 7 14 6 15 6 12 8 11 9 11 9 14 9 15 8 17 6 76 0 0 0 0-28-66-7-15-8-14-8-11-10-13-10-13-7-14-6-15-7-14-6-14-7-14-8-13-6-12-7-12-7-11-5-12-3-12 0-11 1-15 1-14 0-15-1-12 0-13 0-15 3-17 6-18 8-15 9-15 10-15 9-12 9-12 11-11 11-9 12-8 10-6 10-6 11-6 10-6 11-8 9-11 4-9 5-11 4-11 4-11 3-5 0-2 2-1 1-2 2 0 2 0 2 0 2 0 1 1 2 2 1 2 0 1 0 2 0 2z"  fill="#c2e1ff" /><path d="M106-157l-4 5-7 9-8 8-9 8-8 6-8 7-10 7-10 6-10 5-10 4-10 2-11 2-10 2-10 0-15-1-12-2-12-1-11 0-10 1-9 5-8 8-7 9-6 9-7 8-7 9-5 9-28 21 0 0 0 0-5-28 4-10 6-9 6-9 8-9 7-9 7-9 7-8 9-7 10-5 10-4 12-1 11 0 11 0 12 2 11 2 11 2 12 0 13-2 12-3 13-5 13-7 9-6 8-5 12-8 8-7 9-8 4-4 2-1 1-1 2 0 2 0 2 0 2 1 1 1 1 2 1 2 0 2 0 2-1 2-1 1z"  fill="#fff500" /><path d="M100-155l-8 0-16 1-16 2-19 3-20 1-18 2-17 3-15 5-12 7-12 9-11 10-12 11-9 11-9 11-7 10-6 10-6 10-7 11-6 9-7 9-9 12-9 11-8 9-8 9-7 9-7 8-6 8-6 9-6 9-5 9-4 14-2 11-2 12-2 12 0 12 0 13 1 12 2 12 4 13 3 13 4 15 4 17 3 16 4 16 3 18 3 18-2 59 0 0 0 0-22-64-4-17-4-16-4-17-4-16-4-14-4-15-4-13-3-14-2-15-1-15 0-14 1-14 2-13 2-12 3-13 5-13 6-12 6-10 7-9 7-9 7-9 8-9 8-8 7-9 6-8 10-11 9-11 6-8 7-10 7-10 7-10 8-12 10-11 11-13 12-11 13-11 14-9 16-9 17-5 20-3 19-1 19-2 19-2 18-1 17 1 8 1 1 0 2 1 2 1 1 1 1 2 0 2 0 2-1 2-1 1-1 2-2 1-2 0-1 0z"  fill="#c2e1ff" /><path d="M102-170l5 1 13 2 11 4 12 5 9 4 13 1 10 0 13-1 12-1 12 0 13 0 12 2 11 5 10 5 9 5 10 8 9 10 6 14 1 12-2 10-6 12-7 11-5 12-4 10-4 11-3 11-3 12-3 12-4 12-6 12-39 35 0 0 0 0 11-43 5-9 3-10 3-10 3-12 3-13 3-12 4-11 3-11 5-10 7-13 5-11-8-9-9-8-11-5-10-5-11-1-11 0-12 1-13 0-12-1-11-1-11-4-9-6-8-5-12-6-11-5-5-1-1-1-2-1-1-1-1-2-1-1 0-2 1-2 1-2 1-1 1-1 2-1 2 0 2 0z"  fill="#fff500" /><path d="M107-167l4 5 7 11 7 12 5 14 4 15 4 14 3 14 3 13 2 12 1 12 1 11 2 15 0 14 0 15-1 14 0 12 2 12 2 9 3 12 4 11 5 11 9 9 11 12 14 12 14 13 14 12 14 11 14 8 13 6 11 3 11 1 14-1 10-1 11-2 11-2 12-2 12-1 11 0 15-2 13-1 16 1 16 4 15 6 47 32 0 0 0 0-58-8-11-5-11-2-12-1-12 1-12 1-11 1-15 0-11 1-11 2-11 2-12 1-12 1-13-2-15-3-15-6-16-9-15-10-15-12-15-12-14-12-15-12-13-13-11-15-6-14-4-13-3-12-2-11-1-11 1-15 1-13 1-12 0-14-1-10 0-14-1-11-2-12-1-12-3-14-3-14-3-14-3-12-5-10-6-12-3-5-1-2 0-2 0-2 1-2 1-1 1-2 2-1 1 0 2-1 2 1 2 0 2 2 1 1z"  fill="#fff500" /><path d="M93-166l3-6 3-12 1-13 1-17 1-20 1-10 2-11 1-11 1-11 2-11 1-11 1-12 0-11 1-12 0-12 1-12 2-11 1-12 2-11 2-12 3-11 4-12 5-11 5-11 5-12 7-11 7-11 9-10 9-9 10-8 10-7 11-6 12-4 12-3 13-2 13 0 14 1 13 4 13 6 13 8 12 10 12 11 11 13 11 12 9 13 9 12 9 12 8 12 9 11 9 11 8 11 9 11 9 10 9 11 10 10 9 10 9 10 9 10 9 11 9 11 8 10 9 12 8 11 8 12 8 13 8 13 8 13 8 14 9 14 10 13 10 13 11 13 12 14 11 13 12 13 13 11 14 11 14 9 15 8 14 6 14 6 14 4 13 3 13 2 12 2 12 1 12 1 10 1 11 1 68 20 0 0 0 0-70-5-11-2-10-2-12-2-12-2-13-2-13-3-13-5-14-5-14-6-15-7-15-8-15-10-14-10-13-12-13-13-12-13-12-13-11-13-11-13-10-13-10-14-9-13-9-14-8-13-7-12-8-11-9-11-8-11-9-11-8-11-9-10-8-11-9-10-9-10-10-10-10-11-9-11-9-11-8-11-8-11-9-12-9-11-8-12-8-12-10-12-11-12-11-11-12-9-12-9-11-7-10-5-11-3-11-1-12 0-11 2-10 3-10 3-10 5-9 6-8 7-9 8-7 9-7 9-6 10-5 11-4 12-4 10-4 10-3 11-2 11-1 11-2 10-1 12-1 11-1 11 0 12 0 12 0 13-1 11-1 11-1 12-2 10-1 11-1 10-1 19-2 18-3 16-6 14-3 6-1 2-1 1-2 1-2 0-2 0-2 0-1-1-2-1-1-2-1-1 0-2 0-2 1-2z"  fill="#fff500" /><path d="M103-155l-5 3-12 5-12 6-14 5-15 4-16 1-15-2-16-5-14-7-13-8-13-7-12-7-14-7-15-7-15-6-15-6-14-5-14-5-11-2-10 0-12 2-12 6-11 7-8 10-6 11-4 9-4 10-5 13-4 10-3 10-1 11 0 11 3 13 4 11 5 9 17 34 0 0 0 0-32-5-8-9-6-9-4-10-5-13-3-14-1-15 1-15 2-11 5-12 4-10 4-11 4-10 5-10 7-12 9-11 11-9 12-7 13-6 11-2 12-1 14 1 14 4 15 4 15 6 15 6 16 7 15 7 15 6 14 8 13 8 11 7 12 6 10 5 12 1 12 0 12-2 13-3 13-5 12-4 6-2 2 0 1-1 2 1 2 1 2 1 1 1 1 2 0 2 0 2-1 2-1 1-1 2-2 1z"  fill="#fff" /><path d="M95-156l-5-4-10-8-8-9-6-9-4-10-3-14-1-11 2-10 3-10 5-10 7-11 6-10 7-10 6-9 3-10-2-11 1-12 6-8 10-2 17 0 0 0 0 0-2 8-1 11 1 10 0 11-4 11-7 10-6 9-7 9-6 8-7 10-6 11-2 13 1 10 4 11 6 11 8 8 4 4 2 2 0 1 1 2 0 2 0 2-1 2-2 1-1 1-2 1-2 0-2 0-1 0-2-1z"  fill="#c2e1ff" /><path d="M107-166l3 6 5 9 8 11 8 11 7 8 10 5 10 2 11-2 10-5 10-4 11-5 8-5 6-10-4-11-4-9-1-10-2-10 0 0 0 0 10 0 10 0 10 5 6 9 5 10 2 10-1 10-3 12-6 9-6 7-9 7-11 5-11 4-10 4-11 4-11 2-10 0-10-2-10-4-10-7-10-10-7-11-6-12-5-10-4-11-2-5-1-2 0-2 1-2 0-2 2-1 1-1 2-1 2 0 2 0 2 0 1 1 1 2 1 2z"  fill="#fff500" /><path d="M94-167l2-5 6-12 5-12 5-10 7-10 8-8 9-7 11-5 9-6 12-9 12-9 9-5 12-9 10-6 10-5 10-4 10-3 13-4 11-3 11-6 9-6 7-8 2-10 1-10 1-11 5-20 0 0 0 0 25 12 2 10 0 12-2 10-3 11-3 10-6 9-8 8-10 6-10 5-11 5-13 4-12 3-13 4-13 6-12 7-8 6-12 8-12 8-9 7-14 7-11 4-9 7-8 9-6 10-7 11-6 9-4 4-1 2-1 1-2 0-2 0-2 0-2-1-1-1-1-1-1-2-1-2 0-2 1-1 1-2z"  fill="#005bbb" /><path d="M108-165l2 5 5 10 5 9 5 8 7 10 6 11 8 12 9 9 9 8 11 7 10 8 10 8 9 10 8 9 8 10 7 11 7 10 6 11 7 11 7 9 8 7 8 6 10 5 9 3 13 1 12-3 10-4 10-6 10-8 9-8 8-8 8-9 9-9 8-8 3-11 1-11 0-10-2-10 7-33 0 0 0 0 23 27 2 14 1 12-2 14-3 13-4 9-8 11-9 7-7 8-9 9-10 9-11 10-9 5-8 6-10 5-10 3-12 2-14 1-14-3-12-4-13-7-12-8-11-11-8-11-7-12-7-10-6-11-6-8-7-9-6-9-8-8-7-8-10-7-11-8-13-11-10-12-8-13-7-12-5-10-5-11-4-10-4-11-2-6 0-2 0-2 1-2 1-1 1-2 1-1 2 0 2 0 2 0 2 1 1 1 2 1 1 2z"  fill="#fff" /><path d="M103-155l-6 3-11 6-10 5-9 6-9 6-11 10-10 9-12 9-11 8-11 7-12 6-9 6-9 7-7 8-6 12-5 9-5 10-4 11-4 14-2 14-3 15-3 11-5 11-5 10-4 10-5 13-2 11 0 13-1 13-1 10-1 12-2 11-17 19 0 0 0 0-14-23 3-12 1-12 2-11 0-11 1-13 2-10 3-10 4-12 5-11 4-9 5-12 3-14 3-14 2-10 2-11 4-11 6-13 5-10 6-9 7-11 10-11 11-8 9-5 12-5 10-5 10-6 11-7 11-8 8-7 9-6 10-6 10-5 12-5 12-5 7-2 2 0 2 0 2 0 1 1 2 1 1 2 1 1 0 2 0 2-1 2-1 2-1 1-2 1z"  fill="#005bbb" /><path d="M107-158l-3 6-7 11-5 10-6 11-5 9-5 11-3 12 4 10 11-1 11-1 11-3 11-2 12-2 12-2 11 0 14 1 12 2 14 5 10 4 9 3 10 5 14 3 15 2 11 1 12 3 12 3 10 4 11 5 11 7 8 7 11 10 10 8 15 32-1 0 0 0-32-10-11-8-11-10-9-8-12-6-14-5-13-3-10-1-12-1-13-2-13-4-14-5-14-5-11-4-12-2-11-1-11 1-10 1-12 3-12 2-12 1-12 1-11-1-13-6-7-9-4-12 0-11 3-12 5-13 6-9 6-9 6-9 8-10 7-11 4-5 2-2 1-1 2 0 2-1 2 1 2 0 1 1 2 2 1 2 0 1 0 2 0 2-1 2z"  fill="#c2e1ff" /><path d="M98-155l-7-1-16-3-16-2-17-1-16 2-15 4-13 6-11 8-10 8-9 10-8 12-8 13-8 14-7 15-5 16-5 18-5 18-3 19-3 18-4 19-3 17-2 17 0 15-1 15 1 14 0 15-1 16 1 13 1 15 3 14 4 13 5 12 7 11 8 11 9 11 9 13 9 13 9 16 5 17 3 17 0 17-3 17-3 18-3 20-2 12-4 12-3 12-5 13-5 12-5 12-5 12-44 78 0 0 0 0 28-84 5-12 4-12 4-12 3-12 3-12 2-11 2-11 1-11 1-10 3-17 1-15 1-13-2-14-4-12-7-13-9-13-9-12-8-12-9-12-8-13-7-16-5-16-2-15-2-16 0-17 1-14 0-14 0-16 1-15 1-17 2-17 3-18 3-18 3-19 2-10 4-20 3-9 4-18 6-18 7-18 9-16 9-14 10-13 11-12 12-9 15-9 17-7 17-4 20-1 18 1 18 3 16 5 7 2 2 0 1 2 2 1 0 2 1 1 0 2-1 2 0 2-2 1-1 1-2 1-2 0-2 0z"  fill="#c2e1ff" /><path d="M95-168l3-4 8-9 7-8 6-9 5-9 5-10 3-11-3-10-6-11-10-10-7-9-8-10-9-8-10-7-11-4-11-2-13-1-11 0-14 5-10 7-8 10-6 10-4 11-4 11-2 11-1 11 1 11 2 11 1 10-1 12-4 13-27 15 0 0 0 0-1-27 3-10-1-11-2-10 0-13 1-13 3-12 4-14 3-10 5-9 5-9 7-9 9-9 11-8 13-6 15-4 15 0 15 1 16 3 15 6 15 9 12 11 9 10 10 12 8 9 5 8 6 14 1 14-2 14-5 10-7 11-7 9-9 9-8 8-11 8-4 3-1 1-2 1-2 0-2 0-1-1-2-1-1-1-1-2-1-1 0-2 1-2 1-2 1-1z"  fill="#fff" /><path d="M108-164l2 6 3 11 2 13 2 11 2 11 1 12 1 12 0 11-1 12-2 11-2 15-1 10-1 15 1 12 4 12 9 5 10-4 6-9 6-9 8-7 9-7 8-7 23-4 0 0 0 0-1 24-6 9-9 8-10 7-6 9-6 8-10 7-10 4-11 1-13-2-10-5-8-10-6-11-3-10-2-10 0-12 1-12 1-12 2-10 3-15 3-14 0-10 1-10-1-11-1-12 0-11-1-11-2-12-1-6 0-2 0-2 1-1 1-2 2-1 2-1 1 0 2 0 2 0 2 1 1 1 1 2 1 2z"  fill="#fff500" /><path d="M105-169l5 4 12 6 12 3 12 0 13 0 11 0 11 2 11 6 10 4 10 4 10 1 11 1 10 0 7-9 11-7 12 4 14 11 0 0 0 0-12 10-5 9-9 8-10 5-11 1-10-1-11-2-10-2-13-4-10-5-11-7-10-4-13-1-12-1-11-3-12-4-8-5-10-7-4-5-1-1-1-1-1-2 0-2 1-2 0-2 2-1 1-1 2-1 2 0 2 0 1 0 2 1z"  fill="#005bbb" /><path d="M105-169l5 4 12 8 11 10 12 9 10 10 10 9 8 8 9 7 8 7 11 10 7 7 9 7 8 7 9 7 10 7 12 10 11 11 14 11 17 11 10 7 11 7 10 8 11 8 12 9 11 10 11 12 10 12 11 13 10 14 11 16 11 17 11 19 11 22 11 23 10 25 9 28 9 29 7 31 7 32 5 34 7 36 6 39 5 40 3 42-1 43 0 44 0 43 3 43 3 41 5 40 7 39 8 37 7 35 8 32 9 32 10 29 13 27 14 23 16 23 18 20 19 17 20 16 21 14 23 11 23 12 23 11 25 10 26 10 28 11 29 12 29 13 30 14 30 12 30 11 32 11 214 69 0 0 0 0-215-67-32-11-30-11-30-12-30-14-29-13-29-12-28-11-26-10-25-10-23-12-23-11-23-12-21-13-20-16-20-18-18-20-16-23-14-24-13-26-10-30-9-31-8-33-7-35-8-37-7-38-5-41-4-41-2-43 0-43 0-44 0-43-2-41-5-41-6-39-7-36-6-33-6-32-8-31-9-29-9-28-11-24-11-23-12-21-12-17-13-16-11-15-12-12-11-13-10-10-11-10-12-9-12-8-11-7-11-6-10-6-10-6-11-5-9-6-9-6-14-11-11-9-10-8-10-8-10-8-8-8-8-7-7-7-7-7-8-8-8-7-8-9-9-10-9-10-11-9-10-11-10-9-5-4-1-1-1-2-1-2 0-2 0-2 1-2 1-1 2-1 1-1 2-1 2 1 2 0 2 1z"  fill="#005bbb" /><path d="M103-155l-6 3-12 5-12 6-14 5-13 7-12 8-14 12-8 7-8 8-8 8-9 8-10 8-10 8-11 9-11 8-11 8-10 9-10 10-11 10-9 11-10 11-10 12-10 12-11 11-12 12-13 12-15 13-16 14-19 14-19 17-18 19-17 19-18 20-18 19-17 21-16 23-15 24-16 26-18 28-19 30-19 30-18 31-18 32-16 35-16 37-16 38-15 40-12 44-8 45-6 47-4 49-2 51 1 50 3 51 3 51 3 51 4 51 5 51 4 50 4 51 5 51 8 53 9 56 12 58 17 58 24 58 32 56 39 56 47 53 51 54 54 53 57 53 56 53 59 54 63 54 64 53 67 49 71 49 74 48 73 50 74 48 76 45 81 40 82 39 85 34 83 29 81 26 81 21 538 138 0 0 0 0-539-136-80-21-81-26-84-29-84-35-83-38-81-40-76-45-74-49-73-49-74-49-71-48-67-50-65-52-62-55-59-54-57-53-56-53-54-53-52-53-46-54-40-56-32-56-24-58-17-58-12-58-9-57-8-53-5-51-4-51-4-50-5-50-4-52-3-50-3-52-3-51-1-51 2-50 4-49 6-47 8-46 12-44 15-40 16-38 16-37 16-35 18-32 19-31 18-31 19-29 18-28 16-26 15-25 16-22 17-22 18-19 17-20 18-20 17-19 19-17 18-16 15-15 13-14 13-13 11-12 10-11 10-12 9-12 10-12 9-12 10-11 11-10 10-10 11-9 10-9 10-9 10-8 9-9 8-7 8-9 8-8 7-8 16-14 15-9 16-7 13-5 13-4 13-4 6-2 2-1 2 0 2 1 2 1 1 1 1 2 1 2 0 2 0 1-1 2-1 2-2 1-1 1z"  fill="#c2e1ff" /><path d="M100-170l6-1 10-1 14-2 12-4 9-5 5-10 5-12 7-9 8-8 6-10 5-8 3-10 7-9 9-4 11 0 5 6 0 0 0 0-3 10 1 10-4 10-6 8-6 9-7 8-8 7-7 8-5 11-7 9-10 6-12 5-10 2-10 0-11 1-12-1-5-1-2 0-2-1-1-1-2-1 0-2-1-2 0-2 1-2 1-1 1-2 2-1 2 0 1 0z"  fill="#fff500" /><path d="M96-156l-6-3-13-6-15-6-17-7-20-5-11-3-12-3-11-2-12-2-11 0-11 0-18 3-17 6-15 9-16 9-16 8-16 8-18 7-19 6-10 2-19 2-19 2-19 1-20-1-18-1-20 0-18 2-18 3-16 5-12 5-13 7-11 6-11 7-12 9-12 10-11 11-9 13-8 13-6 15-6 17-3 21-1 11 0 12 1 12 2 12 3 12 3 11 4 11 4 11 5 11 5 10 6 11 6 9 6 10 7 9 6 10 6 9 7 10 6 11 7 12 6 13 8 14 50 97 0-1 0 1-62-90-9-13-7-13-7-11-6-10-7-10-7-10-6-10-6-9-6-10-6-10-7-11-6-11-5-12-4-11-5-12-3-12-3-13-3-13-2-13-1-14 0-13 1-12 2-12 2-11 7-17 8-17 10-15 12-15 14-12 12-9 13-9 13-7 13-6 14-6 17-6 18-4 10-2 11-1 10-1 11 0 19 1 18 1 18 0 18-2 18-2 18-3 17-4 16-6 16-8 16-8 16-8 17-9 10-4 10-3 11-2 11-1 12 0 13 1 12 1 12 2 13 2 11 3 11 3 11 3 18 7 15 8 13 8 6 4 1 1 2 1 0 2 1 2 0 2-1 2-1 1-1 1-2 1-1 1-2 0-2 0-2-1z"  fill="#005bbb" /><path d="M105-157l-4 5-8 9-7 9-8 9-8 7-7 8-8 8-8 7-7 6-8 8-8 11-8 11-5 10-5 12 0 12 3 10 4 10 5 12 4 12 3 10 4 12 7 11 9 8 11 4 10 1 12 1 12 0 12-1 10-2 12-4 12 0 18 4 0 0 0 0-10 20-11 6-11 3-11 2-13 2-12 1-14-1-13-1-10-1-11-3-9-5-10-7-8-9-6-9-6-13-3-11-3-10-3-11-4-10-5-13-2-9-2-11 1-11 3-12 4-9 7-11 8-12 9-11 7-9 8-6 11-9 12-9 8-8 8-7 8-7 9-8 10-9 5-3 1-2 2 0 2 0 2 0 2 0 1 1 2 2 1 2 0 1 0 2 0 2-1 2-2 1z"  fill="#fff" /><path d="M105-156l-5 5-13 10-14 11-14 10-14 10-15 10-14 10-15 11-14 9-13 10-13 7-12 6-13 4-12 1-12 0-13-3-10-1-12 0-13 2-16 2-19 1-11-1-10-2-10-2-11-5-9-4-16-9-16-9-15-8-16-9-15-8-12-4-11-1-13 2-11 2-10 3-12 3-12 2-14 2-14 1-15 3-19 3-19 3-18 3-18 3-19 5-11 2-11 3-10 2-10 2-19 5-16 5-55 9 0 0 0 0 57-31 18-6 10-2 11-2 10-3 10-2 10-3 10-3 11-3 18-3 18-4 19-4 17-4 18-3 15-2 11-1 12-2 10-3 13-3 11-1 13-2 14 2 15 4 16 7 16 9 15 9 16 8 15 8 16 8 16 5 16 2 17-1 15-3 16-3 15 1 13 1 10 3 13 0 13-2 10-4 12-6 13-8 14-10 15-10 14-10 15-10 15-9 14-10 14-9 13-9 6-5 2-1 1 0 2 0 2 0 2 1 1 1 2 1 0 2 1 2 0 2-1 2-1 1-1 2z"  fill="#fff" /><path d="M106-158l-4 6-9 12-10 10-11 7-10 7-11 6-10 6-10 6-11 6-12 5-12 5-14 4-13 3-14 2-14 0-13-1-13 0-14-3-14-6-12-7-12-7-12-8-13-10-14-13-6-8-6-9-6-9-4-9-4-10-4-9-3-11-2-11-3-10-2-11-2-11-1-11 0-12 0-11 0-11 0-10-1-11-3-18-7-18-8-18-9-16-6-9-6-8-6-10-6-9-6-9-6-8-7-8-7-8-8-8-8-9-9-9-9-10-9-10-9-11-9-12-9-12-8-12-9-13-9-13-9-14-9-15-9-17-54-119 0 0 0 0 62 115 9 15 10 15 10 13 10 13 9 12 8 11 9 12 9 10 10 11 9 9 10 10 8 9 9 8 8 8 8 9 8 8 7 9 6 10 6 9 6 9 6 9 6 8 6 10 5 9 4 9 4 10 4 10 3 10 3 11 2 11 0 11 1 11-1 11 1 20 1 10 3 11 2 10 5 20 7 17 7 16 11 14 11 12 12 9 12 8 11 7 11 7 13 6 10 3 11 0 13 1 13 0 10-1 12-2 11-3 11-5 12-5 9-4 11-6 11-5 10-5 10-6 9-5 9-7 10-9 5-5 1-2 2-1 2 0 1-1 2 1 2 1 2 1 1 1 1 2 0 2 0 2-1 2-1 2z"  fill="#005bbb" /><path d="M102-170l6 0 12 2 11 2 13 4 11 3 11 3 11 3 11 3 10 2 11 3 14 4 12 5 12 7 9 8 8 7 8 9 7 8 8 8 10 6 9 7 8 9 4 10 5 10 6 8 7 23 0 0-1 0-19 2-11-3-7-9-6-10-5-9-5-10-10-7-8-6-8-9-6-8-6-8-9-9-10-8-8-5-11-5-14-4-10-3-12-3-11-4-11-4-12-5-10-4-10-3-12-3-6-2-1 0-2-1-1-2-1-1-1-2 0-2 0-2 1-2 1-1 2-1 2-1 2-1 1 1z"  fill="#005bbb" /><path d="M94-157l-5-4-9-5-11-3-11 0-11 2-10 5-11 7-12 9-11 9-12 10-10 10-10 10-9 10-8 9-7 8-8 11-2 10-1 14-2 13-5 14-7 14-7 11-8 11-8 10-8 8-7 9-7 8-9 11-8 10-8 9-8 8-8 8-9 8-10 8-9 7-9 6-10 5-12 1-20-10 0 0 0 0 12-13 9-7 10-5 9-6 10-8 8-7 9-8 10-9 8-8 8-10 6-7 7-8 8-9 7-9 7-8 7-9 7-10 5-11 4-14 1-11 2-11 3-12 6-12 8-10 9-8 8-8 9-9 10-10 11-12 13-10 12-10 13-9 14-8 15-7 17-1 16 2 14 6 13 9 4 5 1 1 1 2 0 2 0 2-1 2-1 1-1 2-2 1-2 0-2 1-1-1-2-1-2-1z"  fill="#005bbb" /><path d="M105-156l-6 5-11 11-12 12-13 10-13 10-13 9-13 9-13 7-12 6-11 5-9 5-11 8-8 7-9 9-5 9-4 13-2 11-2 10-3 13-3 12-5 10-7 11-8 7-11 5-12 4-11 2-11 3-11 3-11 14 0 0 0 0-15-18 0-10 7-10 10-6 11-4 12-3 10-1 11-4 9-5 5-10 3-10 2-10 3-10 2-11 5-14 5-9 6-9 8-8 9-7 9-7 11-7 11-5 11-4 11-5 11-6 13-8 13-9 13-8 12-9 12-10 13-11 7-5 1-1 2 0 2-1 2 1 2 0 1 2 2 1 1 2 0 2 0 2 0 1-1 2-2 2z"  fill="#fff500" /><path d="M92-165l2-5 2-11 1-10 0-11-1-11-2-13-5-12-4-9-5-9-5-10-6-9-8-7-8-5-12-1-11 0-10-2-9-5-9-2 0 0 0 0 3-6 4-9 9-7 10-1 10 0 12 1 11 2 10 5 9 6 9 9 6 10 5 9 4 11 5 10 3 10 4 12 2 10 1 11-1 12-1 13-3 13-4 11-2 5-1 2-1 1-2 1-2 1-2 0-2 0-1 0-2-1-1-2-1-1-1-2 0-2 0-2z"  fill="#005bbb" /><path d="M93-158l-3-5-7-10-6-12-5-14-4-17-2-19-1-10 0-10-2-11-1-10-1-10-3-18-4-19-5-20-3-11-3-11-3-10-3-10-3-10-3-10-2-10-3-10-2-10-2-19-1-19-1-17 0-16 1-15 2-13 2-11 1-11 1-11 1-13 1-10 2-14 0-12 0-11 0-12 1-11 1-12-1-10-5-10 3-10 2-14 0 0 0 0 15 7 9 7 4 10 3 12-1 13-1 10-2 13-1 11 0 12-1 10-2 14-2 13-1 10-2 11-2 12-2 12-3 11-2 13 0 14 0 17 1 18 1 18 4 18 3 10 3 10 2 10 3 10 3 10 3 11 4 10 3 11 3 10 4 20 2 10 1 10 2 10 1 10 1 11 2 20 2 18 3 14 3 12 4 11 5 10 3 5 1 2 0 2 0 1 0 2-1 2-2 2-1 1-2 0-2 0-2 0-2 0-1-2-2-1z"  fill="#fff" /><path d="M100-170l6-1 10 0 12-3 11-5 4-9 6-11 8-11 6-9 8-11 11-10 12-9 13-10 16-10 16-10 10-5 17-9 16-11 8-5 9-6 10-5 10-5 10-5 10-4 11-4 11-2 11-2 12 0 12 0 13 1 13 1 13 1 15 0 16 0 17 0 17-2 19-1 19-2 19-3 17-5 17-6 16-8 15-9 14-10 13-11 12-12 12-13 12-15 13-15 12-18 12-20 13-19 14-22 14-22 16-22 15-22 15-24 15-23 14-24 14-23 13-24 11-25 10-26 9-26 9-27 6-28 5-28 6-29 5-29 4-29 2-28 15-193 0 0 0 0-13 193-3 29-3 28-5 29-6 29-5 28-6 28-9 28-9 26-10 26-12 25-12 24-14 23-14 24-15 23-15 24-16 22-15 23-14 22-14 21-13 20-11 20-12 18-12 17-12 15-12 13-12 13-13 11-15 10-15 9-17 8-17 7-18 5-19 5-19 3-18 3-18 3-17 2-17 2-15 1-14 0-14 0-12 0-20-1-19 4-18 7-10 5-9 5-17 11-8 5-8 7-9 5-17 10-16 10-15 11-13 10-11 9-10 8-7 8-6 8-6 9-9 12-6 9-10 10-14 5-10 2-11 0-11-1-5-1-2 0-2-1-1-1-2-1 0-2-1-2 0-2 1-2 1-1 1-2 2-1 1 0 2 0z"  fill="#005bbb" /><path d="M95-169l5-5 11-10 12-12 14-11 13-11 12-9 11-10 10-9 10-8 10-7 12-9 8-7 10-8 8-6 10-5 11-3 11-1 13 0 10 1 10 2 10 2 11 3 10 2 12 2 12 2 14 0 11-2 9-5 5-10 4-10 3-10 5-9 24-15 0 0 0 0 3 31-4 10-4 10-5 10-5 10-10 9-11 6-13 4-15 2-11 0-14-3-11-1-12-3-11-2-10-2-12-3-12-2-12 0-11 3-11 7-8 6-12 8-8 5-9 6-10 8-11 8-12 9-12 10-14 9-13 11-13 10-12 10-6 5-1 1-2 0-2 0-2 0-2-1-1-1-2-1 0-2-1-2 0-2 1-2 1-1 1-2z"  fill="#fff" /><path d="M98-170l6-3 14-3 15-2 15 1 14 0 12 0 11-1 10-2 10-2 11-2 12-1 10 0 10-1 13-2 12-2 12-3 11-1 11-2 11 0 11 1 8 6 1 10 7 4 0 0 0 0-8 9-11 0-11 0-11 0-12 1-11 2-12 1-14 2-10 0-11 1-11 0-14 1-10 2-12 1-13 1-14-1-14-1-13-2-12 0-12 2-7 1-2 1-2-1-1 0-2-1-1-2-1-1-1-2 0-2 0-2 1-2 1-1 2-2 2 0z"  fill="#fff500" /><path d="M92-162l-1-5-2-12-1-12 0-12 0-10 1-14 1-11-1-12-2-12-3-11-8-10-6-8-7-7-12-6-11-4-10-3-11 1-15 2-12 1-13-1-13-1-14-2-16-5-16-6-17-4-11-2-12-2-12-2-14-2-14-2-15-2-15-1-16 0-17 1-18 3-19 5-19 5-18 8-18 9-18 10-18 10-16 11-16 11-15 11-15 11-105 69 0 0 0 0 103-72 15-11 15-11 16-11 17-10 17-11 18-11 18-10 18-9 19-7 19-7 18-5 18-3 17-1 16-1 16 1 14 0 13 1 14 0 12 1 13 1 11 2 10 2 15 4 13 3 12 2 12 1 15 0 14-2 11-2 11 0 11 1 13 5 9 4 13 6 9 8 7 9 6 10 7 8 5 12 2 10 0 12 1 11-1 12-2 13-2 14-2 14 0 11 0 12 0 6 0 1 0 2-1 2-2 1-1 2-2 0-2 0-2 0-2 0-1-2-2-1 0-2-1-2z"  fill="#fff" /><path d="M108-165l2 6 4 11 3 11 3 11 3 12 2 11 3 10 4 11 3 11 3 10 3 13 3 9 4 10 6 9 7 9 10 4 10 1 9 5 7 7 7 3 0 0 0 0-6 8-9 7-11 3-10-2-11 0-10-5-7-9-6-9-6-8-5-11-4-11-2-10-3-13-3-13-2-11-4-11-2-13-2-12-1-10-2-12-2-10-2-11-2-6 0-2 0-2 1-2 1-1 1-2 2-1 1 0 2-1 2 1 2 1 2 1 1 1 1 2z"  fill="#fff" /><path d="M97-155l-8-3-16-6-17-7-9-4-9-6-8-7-8-8-7-8-7-9-6-9-7-9-6-8-6-9-10-16-10-17-7-18-4-17-1-17-1-15 1-13 3-12 4-10 5-9 7-8 9-6 13-6 12-4 13-3 11-3 10-5 10-6 10-7 11-7 10-4 12-3 10-1 13 3 10 4 12 6 10 7 8 7 7 7 6 25 0 0 0 0-31-5-7-8-10-6-10-6-11-3-11 1-9 5-10 7-12 7-9 5-10 4-14 4-12 2-11 3-10 4-8 7-6 9-3 13-1 12 1 14 1 15 4 15 6 15 10 15 11 16 6 9 6 9 6 8 13 16 13 12 15 9 16 8 15 7 8 3 1 1 2 1 1 2 1 2 0 2-1 1 0 2-1 2-2 1-1 1-2 0-2 0-2 0z"  fill="#fff500" /><path d="M93-166l3-7 6-13 6-15 7-16 9-15 11-17 12-16 5-8 6-10 6-11 8-12 9-14 11-14 12-13 14-13 16-11 17-10 17-7 17-5 18-3 17-2 17-1 17 0 17 1 16 2 15 1 16 2 15 3 14 3 14 5 14 5 13 6 14 6 13 7 13 8 12 9 12 10 11 11 9 12 9 12 7 13 6 13 5 13 6 13 5 14 4 14 4 16 3 16 2 15 3 16 2 15 2 16 2 15 2 15 3 15 4 14 4 14 5 14 5 14 6 15 8 14 9 13 10 14 11 14 13 13 14 13 15 13 17 13 20 12 21 11 22 10 24 8 23 6 24 4 25 2 25 0 26-1 26-2 27 0 28 0 30 1 30 1 31 3 33 2 35 1 36 1 37-1 38 0 268 2 0 0 0 1-268-1-38 0-37 1-37-1-34-1-33-2-31-3-30-1-30-1-28 0-27 0-26 2-26 1-25 0-25-2-24-4-24-6-24-8-23-9-21-11-20-12-18-12-17-12-15-13-13-13-13-14-10-14-10-14-8-14-7-15-6-14-4-15-5-14-3-15-3-15-3-15-2-16-1-15-2-15-3-16-3-15-3-15-4-15-5-14-4-13-6-13-5-13-6-13-6-12-8-11-8-11-10-11-12-9-11-9-12-7-13-7-13-6-13-6-13-6-13-4-14-4-15-3-15-3-15-2-16-1-16-1-16-1-17 0-17 2-17 4-16 4-16 8-16 9-14 12-12 13-10 14-9 14-7 14-6 13-6 12-6 11-5 9-12 17-10 14-9 14-7 15-8 15-7 13-4 6-1 2-2 1-1 1-2 0-2 0-2 0-2-1-1-1-1-2-1-2 0-2 0-2 1-1z"  fill="#fff500" /><path d="M107-159l-2 6-6 13-6 14-7 13-7 14-8 14-9 13-8 11-7 9-7 12-4 11-2 10 5 10 9 6 12 4 10 1 13-3 13-2 12-2 12-1 11-2 12-2 13-2 14-1 14 0 13 0 13 1 13 1 13 3 11 3 11 3 12 5 11 7 9 8 7 8 5 9 3 12-1 14-6 12-7 10-7 8-32 18 0 0 0 0 13-40 8-10 3-12-6-10-8-7-12-5-10-3-11-3-10-3-11-1-11-1-13 0-12 1-13 1-11 1-12 2-12 3-12 1-12 2-10 2-12 3-13 1-11-2-11-3-10-4-9-7-8-8-5-10-3-10 0-11 2-10 6-14 6-9 6-9 7-10 9-10 8-11 8-12 8-14 7-12 7-13 7-12 4-6 1-2 1-1 2-1 2-1 2 0 2 1 2 1 1 1 1 2 1 1 0 2 0 2-1 2z"  fill="#005bbb" /><path d="M103-155l-5 2-9 5-12 7-7 7-8 9-6 9-5 9-6 10-6 11-5 8-6 9-8 9-7 8-5 10-6 10-6 9-4 10 0 10 5 15 0 0 0 0-18 4-10-3-7-10-3-11 1-12 4-11 6-10 6-8 5-9 6-9 7-9 7-7 8-8 7-9 5-9 6-9 6-9 9-11 10-9 11-9 9-5 9-4 11-3 5-2 2 0 2 0 2 0 1 1 2 1 1 2 1 2 0 1 0 2-1 2-1 2-2 1-1 1z"  fill="#c2e1ff" /><path d="M106-167l4 4 7 10 7 9 9 12 8 11 8 9 8 7 11 6 11 6 11 4 14 0 13 0 10 2 13 3 14 1 12 2 13 2 14 4 14 5 16 7 14 8 15 7 17 11 15 12 17 13 8 7 9 6 9 7 11 5 10 7 12 7 11 6 12 6 11 5 11 4 11 3 11 2 11 1 10 0 19 0 18-1 17-2 16-3 13-3 10-5 43-12 0 0 0 0-28 29-12 6-15 4-16 2-18 2-18 1-19 0-11-1-11 0-11-2-13-2-12-3-13-4-12-6-12-5-12-7-11-6-12-5-11-6-11-6-10-7-9-6-8-6-17-11-14-10-15-7-15-8-13-6-13-4-13-4-10-2-11-1-11-1-12-1-10-2-14-3-11 0-12-1-13-3-10-5-11-7-10-7-10-9-9-11-8-13-5-8-6-10-4-10-5-9-3-5-1-1-1-2 0-2 0-2 1-2 2-1 1-2 2 0 2-1 2 1 2 0 1 1 1 2z"  fill="#fff500" /><path d="M107-159l-3 6-4 10-4 13-3 15-2 14 1 13 1 13 1 10 3 12 2 12 2 10 4 10 7 9 10 4 11 2 11-2 19 0 0 0 0 0 0 13-3 11-8 6-10 4-11 0-11-1-11-4-10-5-10-7-6-9-5-9-4-11-3-9-1-12-1-10-1-10-1-13 0-14 0-10 2-12 2-10 3-10 4-11 5-10 7-10 3-5 1-2 2-1 1-1 2 0 2 0 2 0 2 1 1 1 1 2 1 2 0 2 0 2-1 1z"  fill="#005bbb" /><path d="M107-166l4 6 8 13 8 13 10 13 11 11 12 8 13 4 14 3 13 2 14 1 13 1 13-1 15-1 16-2 15-2 14-2 15-3 17-4 18-2 17-3 18-3 18-5 19-4 19-4 16-5 14-5 13-5 12-6 9-5 9-6 11-10 9-10 8-12 5-8 5-9 6-13 4-13 3-14-1-14-2-13 0-15 0-15 0-17 1-20 13-70 0 0 0 0 11 80 1 17 1 17 0 14 1 13 2 12 0 13-2 13-3 12-4 11-5 10-6 11-5 8-6 10-7 8-8 9-8 7-10 8-11 6-12 7-13 5-14 5-15 5-18 5-18 4-18 5-19 5-19 4-18 3-16 3-16 3-16 3-16 3-16 2-16 2-16 1-15 0-14-1-15-1-15-3-16-4-18-7-15-12-12-13-10-15-8-14-7-14-3-7-1-2 0-1 0-2 1-2 1-2 1-1 2-1 2 0 2 0 2 0 2 1 1 1 1 2z"  fill="#c2e1ff" /><path d="M99-171l6-1 13-3 12-3 13-4 11-6 12-9 11-11 9-12 6-12 3-14 1-16 0-18-1-19-1-10-1-12 1-12 1-12 1-11 0-12 0-11-1-11-1-12-2-12-2-13-3-13-1-14-2-14-3-15-3-15-4-16-5-16-6-16-7-17-7-17-8-17-8-16-9-15-10-14-11-13-11-13-12-11-12-12-13-10-12-10-13-10-12-10-13-10-11-10-11-9-12-8-10-8-11-9-11-9-10-8-9-10-9-9-9-11-8-12-7-12-5-13-4-14-3-13-3-13-3-13-2-13-2-12-1-12-1-12-1-12-1-13 0-13 1-14 0-13 0-14 0-14-1-14-1-14-3-14-3-13-4-14-6-12-6-12-43-74 0 0 0 0 54 68 7 13 6 13 5 15 3 14 3 15 2 14 1 15 0 14 1 14 0 14-1 13 0 13 1 12 1 12 0 11 1 12 2 12 2 12 2 13 3 13 3 12 4 13 4 12 6 11 7 11 9 10 8 9 9 10 9 9 10 8 10 9 11 9 11 9 11 9 11 10 12 10 12 10 13 11 12 10 13 11 12 12 12 12 12 12 10 14 10 14 9 16 9 16 8 16 8 17 9 17 8 17 6 16 5 16 4 16 4 15 2 14 3 13 2 13 3 13 2 12 2 13 2 13 0 12 0 12-1 11 0 11 0 11 1 10 1 11 2 10 0 10 1 19-1 20-5 19-9 16-11 15-13 12-15 11-16 7-14 4-14 2-13 1-7 0-2 0-2 0-1-1-2-1-1-2-1-2 0-1 0-2 1-2 1-2 1-1 2-1 2-1z"  fill="#fff" /><path d="M98-155l-7-1-15-2-15 0-15 2-16 2-14 2-13 2-12 3-12 4-12 4-12 5-14 6-14 4-14 4-14 3-14 1-13 2-12 1-10 1-15 3-11 3-11 6-8 5-10 5-12 4-12 2-10 1-12 0-11 0-12-1-13-1-11-1-11 1-11 0-12-1-11 1-34-1 0 0 0 0 23-28 14-3 14 0 10 0 13 0 13 0 12 2 11 1 13 1 14 0 12-1 11-2 10-5 10-5 13-6 10-3 10-1 10-2 12-1 12-1 13-1 12-1 12-2 12-3 13-4 14-5 13-5 13-5 14-3 13-3 15-2 15-1 15-1 17-1 18 1 16 4 7 2 2 1 1 1 2 1 1 2 0 2 0 2-1 2 0 1-2 2-1 1-2 0-2 1-2-1z"  fill="#c2e1ff" /><path d="M98-170l5-2 11-6 12-6 11-6 14-6 14-1 11 0 14 3 11 3 10 1 10 1 12 0 10-1 11-2 10-1 14-5 9-5 9-8 9-7 9-8 8-8 8-8 8-7 11-8 9-8 8-6 10-8 10-6 9-7 10-6 8-6 12-9 9-6 9-5 10-6 12-6 10-7 8-8 24-9 0 0 0 0-1 28-7 8-10 7-11 6-12 6-12 7-12 8-8 6-10 7-8 5-9 6-10 7-9 7-11 9-11 8-11 8-10 9-8 7-9 8-10 9-11 9-12 9-13 6-13 4-12 1-11 2-13 1-12 0-14-1-13-3-14-4-14-3-13 1-10 3-13 6-13 4-10 3-5 1-2 0-2 0-1 0-2-1-1-2-1-1-1-2 0-2 1-2 0-2 2-1 1-1 2-1z"  fill="#fff500" /><path d="M93-165l2-7 3-14 3-16 3-19 3-10 3-11 5-11 6-12 6-12 6-12 7-13 8-13 8-12 9-12 9-10 10-10 10-8 11-8 11-5 11-5 12-3 11-1 11 0 12 1 11 1 10 2 11 2 11 2 10 2 10 2 18 7 16 9 14 10 14 10 15 10 14 8 14 8 14 6 14 6 13 6 12 6 10 5 10 3 14 4 15 3 13 1 11 1 11-1 10-2 11-5 9-6 15-18 0 0 0 0 12 15 3 11-6 10-8 8-12 6-11 5-12 2-13 2-14 0-14-2-11-2-10-2-10-3-12-4-10-4-12-6-11-6-12-6-14-7-15-7-15-8-15-10-15-10-14-11-13-9-12-8-16-7-18-5-10-2-11-2-11-2-20-3-19 1-10 2-9 3-10 5-10 6-10 7-9 9-8 10-8 11-7 12-7 12-5 13-6 13-5 12-5 11-4 10-6 19-4 18-4 18-5 15-3 6-1 2-1 1-1 1-2 1-2 0-2 0-2-1-1-1-1-1-1-2-1-1 0-2 1-2z"  fill="#fff500" /><path d="M98-170l6-2 10-4 10-4 10-6 8-7 8-9 7-10 9-12 7-12 8-12 5-13 5-13 3-15 2-16 3-16 2-18 2-19 3-19 3-19 5-18 7-19 5-9 10-16 12-15 13-13 14-12 14-11 13-12 14-12 12-12 10-12 7-13 6-15 4-18 2-20 0-11 0-13 1-13 1-14 0-15 1-15 1-15 1-16 2-16 2-18 3-18 3-18 4-19 4-20 5-20 4-21 4-22 3-23 4-25 4-25 6-26 7-27 6-29 4-31 3-33 3-216 0 0 0 0-1 217-3 32-4 31-6 30-7 27-6 26-4 25-3 25-3 23-3 22-3 21-4 21-3 19-3 19-2 19-1 17-1 17 0 17-1 16 0 15 1 14 0 15 0 14 1 13 0 12 1 13-1 11-1 12-2 10-5 20-8 17-11 15-13 13-13 13-14 12-14 12-13 11-12 11-11 13-10 14-9 14-6 16-4 16-3 18-2 18-2 20-2 18-2 17-3 16-3 18-6 16-7 15-8 13-8 13-9 12-9 11-11 11-12 8-12 6-13 4-11 2-6 1-2 0-2 0-2 0-1-2-2-1-1-2 0-2 0-2 0-1 1-2 2-2 1-1 2 0z"  fill="#fff500" /><path d="M92-161l-1-7-1-16 1-17 5-18 4-10 3-9 4-10 4-9 5-10 6-9 6-9 7-8 8-8 9-7 10-7 11-6 12-6 13-5 14-6 15-6 14-5 15-6 14-7 14-7 13-8 13-8 12-9 12-10 10-11 9-11 8-11 7-12 5-13 4-13 2-13 3-14 2-15 1-15 1-15 1-15 0-14-1-15-1-13-3-14-3-13-3-14-5-13-5-14-5-12-5-13-5-13-6-12-6-12-5-11-6-12-5-11-6-11-5-10-5-12-6-12-5-12-6-12-6-11-7-12-7-12-8-12-8-13-8-13-9-14-9-14-9-15-10-15-10-16-11-17-9-17-10-18-9-19-7-20-6-19-4-19-4-19-2-19-1-18 0-19 1-19 1-19 1-18-1-17 0-17-1-16-2-16-4-104 0 0 0 0 11 104 1 16 0 16 0 17 0 17-1 18-1 19-1 19-1 18 1 19 2 19 3 19 5 19 6 18 7 19 10 19 10 17 10 17 11 16 12 15 11 15 10 14 10 14 9 13 9 13 8 12 8 13 8 12 8 12 6 12 6 12 6 12 5 12 5 11 5 11 5 11 6 11 5 12 5 11 6 12 5 13 6 13 5 13 5 13 5 14 4 14 4 14 3 14 2 15 1 14 1 15 0 15 0 15-1 15-2 15-2 16-2 14-3 15-4 14-6 13-8 13-8 12-10 12-11 11-12 10-13 10-13 8-14 9-14 8-14 7-14 7-14 7-14 7-13 6-12 7-11 6-10 5-9 6-14 13-11 15-10 16-7 18-7 18-4 15-3 14-1 13 1 7 0 2-1 2 0 2-2 1-1 1-2 1-2 0-2 0-2-1-1-1-1-1-1-2-1-1z"  fill="#fff500" /><path d="M108-164l2 6 2 16-1 16-4 16-6 16-7 14-5 13-4 13-2 13-3 12-2 10-1 13 1 15-1 10-1 10-2 11-3 12-3 11-3 15-1 14 2 13 1 11 2 10 6 13 7 12 9 14 8 13 10 12 9 10 10 10 9 9 8 7 11 8 11 6 11 3 12 1 10-1 28 0 0 0 0 0-9 23-10 5-12 2-11 0-13-2-11-4-10-4-12-8-8-6-8-8-10-8-9-10-11-11-10-12-11-14-9-13-9-13-8-14-6-14-2-13-1-10-1-11 0-12 0-12 3-13 3-12 3-9 3-14 2-14 1-13 0-11 2-12 3-11 3-11 3-14 5-15 6-15 8-14 6-12 4-13 2-12-1-13-1-7 0-2 0-1 1-2 1-2 1-1 2-1 2-1 2 0 2 1 2 1 1 1 1 2 1 2z"  fill="#fff" /></svg>