<svg width="1200" height="675" viewBox="-500 -500 1200 675" xmlns="http://www.w3.org/2000/svg"><path d="M-500-500h1200v675h-1200z" fill="#000"/><path d="M103-170l6 2 11 4 11 6 10 7 9 8 8 11 5 9 5 12 4 10 2 11 3 10 5 10 4 9 10 4 10 5 13-3 0 0 0 0 2 7-1 11-6 8-11 5-10-1-11-1-11-6-7-7-6-10-3-10-4-10-3-10-2-11-2-11-3-12-5-10-5-9-10-9-9-6-10-5-5-3-2-1-1-1-1-2-1-2 0-2 0-2 1-1 1-2 2-1 1-1 2-1 2 1 2 0z"  fill="#c2e1ff" /><path d="M104-169l5 2 12 4 11 2 11 0 11-1 12 0 10 2 12-1 10-2 8-7 7-8 6-9 4-10 2-11 4-9 6-10 20-10 0 0 0 0 5 18 0 11-3 10-4 12-4 11-6 8-6 9-7 7-8 8-10 7-10 3-12 1-11-1-11-2-10-3-12-1-10 0-13-3-13-6-9-5-5-3-1-1-1-1-1-2-1-2 0-2 1-1 1-2 1-1 2-2 1 0 2 0 2 0 2 1z"  fill="#fff" /><path d="M92-161l-1-6-3-12-1-12-1-11-2-11-2-14-2-12-3-10-5-9-8-10-11-8-11-7-11-4-11 0-14 0-15 1-14 2-12 4-9 6-7 10-2 12-2 13 0 15 0 19 1 10 1 11 1 11 2 11 1 11 2 12 3 12 4 11 4 12 5 11 5 11 5 10 7 9 7 9 8 8 9 9 9 8 10 8 10 9 11 8 11 7 12 8 11 7 11 8 10 6 9 6 9 5 57 40 0 0 0 0-65-26-9-6-9-7-10-6-11-8-11-7-12-8-12-7-11-8-11-8-11-9-10-8-9-9-9-10-8-9-7-11-7-11-5-11-5-12-5-11-5-13-4-13-3-12-3-11-2-12-2-11-2-11-2-11-2-11-1-19 1-16 1-13 4-14 7-12 9-9 10-7 11-5 12-4 12-1 15-1 11-1 11 0 11 1 12 3 12 5 9 5 12 9 10 11 8 11 6 14 3 14 2 14 0 14 1 11 0 12 0 11 0 11 1 6 0 2 0 2-1 2-2 1-1 1-2 1-2 0-2 0-2 0-1-1-2-2 0-2-1-1z"  fill="#fff500" /><path d="M98-155l-7-1-13-1-14 0-15 1-14 1-14 2-11 3-10 4-9 6-9 7-8 7-8 7-7 8-7 8-8 8-8 8-9 9-7 8-6 11-1 10 0 14 0 12 0 11 3 14 2 10 4 10 3 10 3 11 3 10 3 10 2 11 2 10 1 10 0 15-2 13-2 10-3 10-4 10-5 9-7 11-8 10-10 9-49 19 0 0 0 0 30-40 10-11 8-11 5-12 5-11 2-11 1-11 0-11-1-12-4-14-4-15-3-10-4-11-3-11-3-11-3-13-1-12 0-12 0-10 0-11 1-10 3-11 7-13 9-10 11-10 10-9 8-8 7-8 9-8 9-9 10-7 10-7 12-7 14-5 15-3 15-2 15 0 15 0 16 1 15 4 7 2 2 0 1 2 2 1 1 2 0 2 0 2 0 1-1 2-2 2-1 1-2 0-2 1-2-1z"  fill="#fff500" /><path d="M92-162l-1-6-1-11-1-11-1-13-2-13-2-11-3-11-3-11-4-11-6-9-10-6-11-7-7-7-9-8-9-8-7-7-8-10-7-10-4-11-2-10 0-11 2-10 10-7 22 2 0 0 0 0-2 19 2 11 5 9 7 8 7 8 9 8 9 9 9 7 8 6 9 9 5 9 4 10 3 11 2 11 3 12 1 14 0 14 0 14 0 10-1 11 0 6 0 2-1 2-1 2-1 1-2 1-2 0-2 0-2 0-1-1-2-1-1-2-1-1 0-2z"  fill="#005bbb" /><path d="M103-170l5 2 11 2 11 3 10 2 14 2 14 1 13-1 13-3 11-4 13-5 11-5 10-6 12-5 11-5 11-5 9-4 11-6 10-7 9-6 9-7 2-11-1-10-1-11 0-12 3-13 5-11 26-7 0 0 0 0 1 17-1 12-2 11 1 11 1 13-1 10-3 11-7 10-8 8-9 6-9 6-10 6-10 6-11 4-11 4-10 4-11 5-11 5-12 5-13 5-9 3-11 3-10 2-12 1-11-1-10-1-11-2-10-3-11-3-10-4-12-4-5-3-2-1-1-1-1-2-1-2 0-1 0-2 1-2 1-2 2-1 1-1 2 0 2 0 2 0z"  fill="#fff" /><path d="M92-164l1-7 4-16 5-13 5-14 5-11 5-11 6-10 7-12 6-12 8-11 4-11 2-12 1-10 2-10 2-10 4-9-1-13 0 0 0 0 14-2 9 4 6 9-1 11-3 11-3 11-2 10-2 12-4 11-6 12-8 10-7 12-6 8-8 12-5 9-6 11-6 12-6 12-4 13-2 7-1 2-1 1-1 2-2 1-2 0-2 1-1-1-2-1-2-1-1-1-1-2 0-2 0-2z"  fill="#c2e1ff" /><path d="M100-155l-7 1-12 0-13 0-11 1-10 2-13 5-11 8-8 6-10 9-8 8-9 9-9 7-10 5-11 4-11 3-10 0-11 3-12 4-12 3-14 3-12 3-10 2-7 7-3 10 3 11 0 22 0 0 0 0-26-5-6-11-3-11 0-12 3-12 5-10 9-11 10-7 11-3 11-2 12-2 12-3 13-3 10-3 11-2 11-1 10-1 11-4 10-7 8-8 11-9 8-6 9-6 10-6 11-6 13-3 13-1 13 0 13 1 13 2 6 0 1 1 2 1 2 1 1 1 1 2 0 2 0 2-1 2-1 1-1 2-2 1-2 0-1 0z"  fill="#005bbb" /><path d="M108-162l0 7 1 13 2 13 3 14 3 12 4 10 5 10 6 10 5 10 4 10 4 10 3 11 3 10 4 14 3 14 2 14 0 11-1 14-2 15-4 15-3 10-4 10-6 12-4 9-4 10-4 11-5 12-4 10-4 10-6 10-7 9-9 9-10 8-12 7-10 5-11 6-11 6-9 6-11 8-12 6-10 6-42 7 0 0 0 0 29-32 10-5 10-6 9-6 12-8 12-7 10-6 10-6 12-7 10-10 7-9 5-11 5-13 4-10 4-10 4-11 6-12 5-10 5-11 4-13 2-13 2-12 0-11-1-12-3-13-2-9-3-14-4-15-5-13-4-9-5-11-4-11-5-13-3-14-2-15-1-16 1-15 1-6 0-2 1-2 2-1 1-1 2-1 2-1 2 1 2 0 1 1 2 2 1 1 0 2 0 2z"  fill="#c2e1ff" /><path d="M103-155l-6 3-12 7-12 7-14 9-14 8-13 7-13 7-13 8-12 7-12 10-16 10-16 9-15 11-9 6-10 5-10 5-11 5-10 3-10 4-10 3-18 9-16 10-16 12-9 7-9 7-9 7-8 6-9 7-9 7-8 7-8 8-7 7-7 8-8 8-7 8-7 9-7 10-7 10-8 11-7 10-7 10-6 10-5 10-6 12-6 10-4 12-5 11-4 12-4 11-4 12-4 11-4 11-4 10-4 11-3 10-3 10-3 19 1 20 0 10 3 19 4 16 6 11 9 10 11 8 12 6 13 6 21 26 0 0 0 0-40-8-9-5-10-6-10-7-8-9-8-12-6-15-4-18-1-11-1-10 0-10-1-12 0-11 2-11 2-11 4-11 4-11 4-10 4-10 4-10 4-12 4-11 4-12 4-12 5-11 5-12 5-12 6-11 6-11 6-11 7-11 7-10 8-10 6-11 8-11 7-10 8-9 7-8 8-8 8-8 8-7 9-8 8-7 9-8 9-6 9-7 8-7 9-7 9-7 8-6 9-6 9-6 10-5 10-4 10-4 10-4 9-3 10-5 17-9 16-12 8-6 16-10 14-9 13-10 14-9 14-7 13-6 13-7 14-7 14-8 14-7 14-6 6-2 2 0 2 0 1 0 2 1 2 1 1 1 1 2 0 2 0 2-1 2-1 2-1 1-2 1z"  fill="#c2e1ff" /><path d="M103-155l-5 3-12 6-10 5-10 4-13 5-10 4-11 5-11 6-9 7-8 7-11 9-8 8-5 9-2 10-1 12-1 12 0 10-2 11-2 11 1 11 7 8 7 9 8 10 5 11-1 21 0 0 0 0-23-5-8-9-7-9-7-9-7-9-5-9-2-12 1-10 2-12 2-11 1-13 1-11 1-12 3-13 6-12 7-9 9-9 9-6 10-8 8-6 9-5 10-5 11-4 13-4 12-3 13-4 11-3 12-5 6-2 2 0 1 0 2 0 2 1 2 1 1 1 1 2 0 2 0 2-1 2-1 2-1 1-2 1z"  fill="#fff" /><path d="M93-159l-4-7-6-11-7-10-9-7-10-7-12-6-11-5-12-5-12-5-11-5-12-5-12-4-12-5-14-4-13-5-13-4-12-4-14-6-13-10-10-12-6-15-3-14 0-14 1-13 4-13 4-14 8-15 9-13 12-10 13-9 14-7 14-5 14-7 14-7 12-8 9-10 11-14 12-16 7-8 8-7 7-7 8-7 9-7 8-6 9-6 9-7 9-6 10-7 9-7 9-7 8-8 9-9 9-10 9-11 9-11 10-13 10-13 70-93 0 0 0 0-60 100-9 14-9 14-9 12-8 12-9 11-9 10-9 9-9 8-10 7-9 8-9 7-9 6-8 7-16 12-13 13-13 14-11 16-11 15-13 14-15 11-15 8-14 7-14 6-12 6-9 5-9 8-7 9-5 11-4 12-3 15-1 15 3 13 7 12 8 6 10 5 12 4 13 4 13 5 14 5 13 4 13 5 12 5 12 6 10 5 12 6 13 6 13 8 12 9 11 12 8 13 5 13 2 6 1 2 0 2 0 2-1 2-1 1-2 1-2 1-2 1-2-1-2 0-1-1-2-2 0-1z"  fill="#c2e1ff" /><path d="M106-157l-5 6-11 12-11 11-11 13-13 14-12 14-7 7-7 7-14 13-15 12-13 11-12 10-14 9-12 8-9 7-10 9-4 10-4 11-2 10-2 13-3 12-3 11-2 10-3 12-5 14-5 11-4 10-4 10-4 13-2 12-1 13-2 12-5 12-6 9-5 10-4 10-18 16 0 0 0 0-9-17-1-13 5-11 7-12 6-9 3-11 2-12 1-10 2-11 4-11 4-12 5-11 5-12 4-11 3-11 3-11 3-11 3-11 2-12 5-14 4-9 5-10 8-9 10-8 11-8 12-7 12-7 13-10 13-10 14-11 13-12 14-13 12-14 13-14 13-13 11-11 12-10 5-6 2-1 1-1 2 0 2 0 2 0 2 1 1 1 1 2 1 2 0 2 0 2-1 1-1 2z"  fill="#fff500" /><path d="M103-170l7 2 18 6 18 6 19 8 18 9 9 5 9 5 10 7 9 7 9 9 10 11 8 13 8 14 7 16 6 17 4 18 3 20 2 20 1 23 1 24-1 24-2 24-4 25-4 26-5 26-6 28-6 28-5 29-4 30-4 30-2 30-2 28-1 28-2 26 0 27 1 26 3 27 4 28 5 29 6 30 5 30 5 32 1 31-1 33-3 35-6 37-7 40-7 42-5 46 0 47 4 48 11 47 17 43 21 39 27 37 30 35 34 31 34 29 33 27 34 26 33 25 32 22 31 20 30 19 29 16 27 15 27 14 25 11 25 9 24 8 24 8 24 8 24 7 23 9 23 11 21 13 22 14 20 16 21 17 20 19 18 21 16 23 13 25 10 24 8 24 7 24 5 25 2 24 2 25 1 25-10 163 0 0 0 0 8-163-1-25-2-24-2-25-5-24-6-24-9-24-10-24-13-24-16-23-18-21-20-20-20-17-21-15-21-14-21-13-23-11-23-9-23-8-24-7-24-8-25-8-25-9-25-12-27-13-27-15-29-16-30-19-31-21-33-22-33-24-33-26-33-28-35-29-33-31-31-35-27-37-21-39-17-44-11-46-4-49 0-47 5-46 7-42 7-40 6-37 3-35 1-33-1-31-5-31-5-31-6-30-5-29-4-28-3-27-1-26 0-27 2-27 1-27 2-28 2-30 4-30 4-30 5-30 6-28 6-27 5-27 3-26 4-24 1-24 0-24-1-23-3-23-3-20-5-18-6-17-6-15-7-14-9-12-9-11-8-9-9-8-8-7-9-5-17-10-17-9-17-7-18-8-17-6-8-3-1-1-2-1-1-2-1-2 0-1 0-2 1-2 1-2 1-1 2-1 2 0 2 0 2 0z"  fill="#fff" /><path d="M105-169l5 4 10 7 9 10 7 11 5 12 2 12 3 11 3 10 5 10 9 11 12 8 12 4 14 1 14-2 13-1 15 1 16 3 16 7 17 11 7 6 9 8 8 9 8 9 8 10 8 10 8 10 9 10 9 11 10 11 9 11 10 11 9 10 10 9 9 9 10 7 9 7 9 5 18 7 18 2 19 0 18-2 10-2 10-2 10-2 11-3 10-3 10-3 11-4 11-4 12-4 13-5 13-4 14-5 14-6 13-6 13-7 12-7 12-9 11-10 11-9 12-8 11-8 12-7 11-7 12-6 11-5 81-21 0 0 0 0-75 33-11 5-11 5-12 7-11 7-11 7-11 8-11 9-12 9-12 10-12 9-14 7-14 7-13 7-14 6-13 5-13 5-11 5-12 4-11 5-11 3-11 3-10 3-11 2-10 3-11 1-11 2-10 0-10 0-11 0-11-2-10-3-10-4-10-5-10-6-10-8-10-8-10-9-10-9-10-10-10-11-10-11-10-10-10-10-10-9-9-10-9-9-8-9-8-8-15-13-14-10-13-6-12-4-11-1-11 0-11 1-13 1-13-1-12-3-13-5-12-8-10-10-8-13-6-12-3-13-2-12-3-14-5-13-6-8-8-8-4-4-1-2-1-1-1-2 0-2 0-2 1-2 1-1 2-1 2-1 2 0 2 0 1 0 2 1z"  fill="#c2e1ff" /><path d="M94-158l-3-3-9-10-9-9-8-10-7-12-6-12-5-10-4-12 0-12 2-12 5-11 5-11 3-11 0-12-3-12-2-12-4-11-5-13-5-11-5-11-4-11-5-12-2-10-1-11-1-11-4-10-6-8-1-27 0 0 0 0 30 12 6 9 4 9 3 11 0 12 1 12 3 10 4 12 6 11 5 13 5 14 5 14 3 12 3 13 0 15-2 11-3 12-5 9-5 11-3 9 1 11 3 9 5 11 5 11 6 9 7 11 7 11 2 4 1 1 1 2 0 2-1 2 0 2-1 1-2 1-2 1-1 0-2 0-2 0-2-1-1-2z"  fill="#fff500" /><path d="M99-171l7-1 17 0 16 1 15-1 16-3 16-3 17-4 17-5 16-4 14-4 13-2 13-1 11 0 11 4 9 6 8 7 8 9 6 9 7 13 7 12 8 11 7 8 8 8 8 8 9 6 11 6 10 7 14 8 10 8 10 7 11 8 13 9 16 12 15 11 8 6 17 11 9 6 16 10 19 8 9 5 17 8 16 7 16 5 15 4 49 20 0 0 0 0-53 1-17-5-17-6-17-7-18-8-9-5-10-4-10-4-9-5-9-5-9-6-9-5-9-5-9-6-16-10-15-10-14-8-13-9-11-8-12-8-13-7-11-7-11-7-11-9-9-10-9-9-7-8-8-13-5-9-5-9-6-11-6-10-8-7-9-4-13 0-12 1-14 3-15 4-18 5-18 4-18 3-17 2-17 0-16-2-14-1-7 0-2 0-2 0-2-1-1-1-1-2-1-2 0-2 0-2 1-1 1-2 2-1 1-1 2-1z"  fill="#fff500" /><path d="M92-160l-2-7-7-14-7-13-7-14-5-16-4-15-5-15-5-14-7-14-9-11-13-11-16-11-10-6-10-6-10-6-10-7-9-6-8-7-9-6-8-7-9-6-8-6-8-5-9-6-17-9-17-6-17-3-17-2-18-2-17-1-17-2-15-1-17-1-19-2-19-4-18-4-18-4-17-2-16-3-16-1-14 0-14 1-14 1-14 0-13 1-12 1-14 6-8 7-10 8-8 9-7 9-8 10-10 10-42 18 0 0 0 0 24-37 8-8 7-8 9-11 10-11 11-9 12-9 15-7 15-2 13-1 14 0 14 0 15-1 15 1 16 1 17 2 18 2 18 4 18 4 17 3 18 3 17 1 17 2 16 2 16 2 17 2 19 1 19 4 10 2 10 3 10 5 10 5 9 5 8 6 9 6 8 6 9 6 9 6 8 7 9 6 8 6 9 6 10 6 10 5 10 6 10 5 10 6 8 7 8 7 12 15 8 17 6 16 4 16 3 14 4 14 6 14 6 14 6 15 2 8 0 2 0 2-1 2-1 1-1 2-1 1-2 0-2 0-2 0-2-1-2-1-1-1-1-2z"  fill="#fff" /><path d="M105-169l5 4 9 6 10 8 9 10 9 8 10 7 13 7 14 4 14 1 10 0 11-2 13-3 14-2 15 0 15 2 12 1 13 1 14 1 16 2 14 3 16 3 13 4 13 2 12-1 12-2 9-4 10-4 10-5 9-5 10-5 10-5 11-5 11-6 12-7 14-8 13-9 13-8 12-9 12-9 10-9 9-9 8-9 7-8 7-8 8-12 31-20 0 0 0 0-9 37-10 11-8 9-8 9-8 8-10 10-11 10-13 10-13 10-13 9-13 9-14 8-13 9-12 6-11 5-14 7-10 5-11 5-10 5-13 5-15 4-15 1-17-1-15-3-14-4-14-3-13-2-13-1-14 0-14-2-13-1-11-1-12 1-13 2-13 3-14 1-13-1-13-2-12-4-11-6-11-7-11-9-10-10-8-9-7-9-8-7-4-4-1-2-1-1-1-2 0-2 0-2 1-2 2-1 1-1 2-1 2 0 2 0 2 0 1 1z"  fill="#fff" /><path d="M95-156l-5-4-10-6-11-7-11-7-12-7-12-5-13-4-15-2-16-2-16 1-19 0-20 1-10 0-10 0-10 0-10 0-11 0-10 0-11 0-11 0-11 0-10 1-11 1-19 4-18 6-18 8-18 9-10 5-11 5-10 4-11 4-11 4-10 4-11 3-10 2-10 3-10 3-10 2-11 2-10 1-11 0-10 0-11-1-10-3-11-3-10-5-10-7-10-7-8-9-9-8-8-8-9-9-9-7-9-7-10-7-9-8-10-6-10-6-10-6-12-6-12-6-11-4-12-4-11-3-11-2-12-3-11-2-11-1-11-1-10 1-11 1-11 3-11 3-12 2-13 3-13 3-13 3-14 2-92 9 0 0 0 0 89-23 13-3 13-4 13-3 13-3 12-3 12-3 11-2 13-2 12-1 12 1 12 2 12 3 11 2 12 3 12 3 12 4 13 5 12 6 12 5 12 6 10 7 11 7 9 7 10 7 10 7 10 8 9 8 9 8 8 8 8 8 16 11 17 7 17 4 19 0 19-2 19-5 10-3 10-2 10-3 10-3 10-4 10-4 10-5 11-5 9-4 10-5 9-5 10-4 10-4 9-4 11-3 10-2 11-2 11-2 11-1 12 0 11 0 11-1 10 0 11 0 20 0 19-1 20-1 18-1 20 0 18 1 17 3 16 5 14 7 13 9 11 8 10 8 10 8 4 4 1 2 1 1 1 2 0 2 0 2-1 2-1 1-2 1-2 1-2 1-2-1-1 0-2-1z"  fill="#c2e1ff" /><path d="M106-158l-3 6-8 10-8 10-7 9-6 9-6 9-6 9-5 9-5 9-7 13-7 13-4 9-3 11-1 13-1 14-1 14 1 12 2 15 0 12 0 15-1 14-1 14 0 15-1 17-2 15-1 14 1 14 4 12 6 12 7 8 8 9 10 7 10 8 12 8 11 7 11 5 12 5 13 4 14 4 12 3 13 3 13 4 49 21 0-1 0 1-48 5-14-3-13-4-13-3-13-4-14-4-15-5-13-6-14-7-12-8-12-9-10-8-11-10-10-11-9-14-6-16-4-18 0-18 1-16 2-14 0-14-1-16 1-14 0-13-1-13-1-14-1-11 0-11 1-14 0-10 2-10 1-11 3-10 4-10 7-12 7-11 5-9 6-10 6-10 7-9 7-8 8-9 8-10 9-8 8-9 5-5 1-1 2-1 2 0 1-1 2 1 2 1 2 1 1 1 1 2 0 2 0 2-1 2-1 1z"  fill="#fff" /><path d="M104-169l4 2 11 5 11 3 12 2 11 3 11 1 10 4 10 0 11 1 11-2 11 0 10 4 7 8 2 10 1 7 0 0 0 0-14 0-10 2-10 1-11 0-10-2-10-1-10-4-10-4-10-4-10-3-12-5-9-5-11-7-4-3-2-1-1-2 0-2-1-1 1-2 0-2 1-1 2-2 1-1 2 0 2 0 2 0 1 1z"  fill="#fff500" /><path d="M106-168l4 5 9 8 11 8 12 9 14 10 15 11 13 12 12 13 13 13 13 15 13 15 12 14 12 15 6 8 11 16 9 15 9 15 8 17 2 10 2 10 1 11 1 10 1 10 2 19 3 16 4 16 4 15 6 14 6 11 8 10 8 8 9 6 12 7 13 5 16 7 16 7 17 9 9 5 17 10 9 6 9 5 9 6 9 5 9 6 9 6 10 6 10 7 9 9 9 9 8 10 8 11 6 12 6 12 6 13 5 14 4 15 4 16 4 17 3 17 4 17 5 17 6 16 6 15 51 96 0 0 0 0-58-93-7-15-6-17-6-17-5-17-4-16-5-16-5-16-6-14-5-13-5-11-7-11-6-11-7-10-7-8-8-8-8-7-9-6-10-6-9-6-10-5-9-5-9-6-9-5-9-4-10-5-16-10-16-7-15-7-16-6-16-7-14-8-12-9-9-11-9-12-8-15-6-16-4-16-4-17-3-18-2-19-2-19-3-18-5-15-7-15-8-14-10-15-10-15-12-14-12-15-13-14-13-14-13-13-11-13-12-10-13-11-14-10-13-10-11-11-9-10-3-5-1-2-1-2 0-2 0-2 1-1 1-2 2-1 1-1 2 0 2 0 2 0 2 1 1 1z"  fill="#c2e1ff" /><path d="M92-164l1-6 2-11 4-9 5-12 5-10 4-11 3-11 3-11 3-10 4-12 5-10 7-9 7-8 7-8 9-6 11-4 12-3 12 0 12 1 11 0 12-3 10-3 11-2 12-1 10 0 14 2 26 20 0 0 0 0-35 11-13-1-12 1-10 2-12 5-12 2-11-1-10-1-11 0-10 2-10 6-8 8-7 9-4 9-4 11-4 9-3 10-6 12-5 9-6 9-6 10-6 13-1 5-1 2-1 2-1 1-2 1-2 0-2 0-2 0-1-1-2-1-1-2-1-1 0-2 0-2z"  fill="#005bbb" /><path d="M105-168l5 4 11 7 11 9 12 9 14 10 15 10 16 9 16 6 18 6 11 2 10 2 12 3 12 2 12 1 11 2 11 1 12 1 11 0 11 1 10 1 11 1 10 2 10 2 10 3 10 3 17 6 17 4 15 4 14 3 13 2 12 3 11 2 11 1 10 1 14 3 13 2 12 2 13 0 11-1 10-1 10 0 12 4 9 6 8 8 5 11 5 11-9 32 0 0 0 0-21-22-4-10-6-9-10-2-11 2-13 0-12-1-13-3-10-3-13-3-14-3-11-2-12-3-12-3-13-3-14-4-16-4-17-5-17-6-18-6-19-4-10-2-10-1-10-1-12-1-11 0-12-1-12-1-12-2-12-1-12-2-12-2-11-2-10-3-10-3-9-3-10-4-9-5-9-5-15-11-14-11-13-10-10-10-10-9-4-5-2-1 0-2-1-2 0-2 1-2 1-1 1-2 1-1 2 0 2-1 2 1 2 0 1 2z"  fill="#c2e1ff" /><path d="M95-157l-5-4-10-7-10-8-8-9-8-10-6-10-5-11-3-12-1-11 0-11 1-10 2-10 4-12 5-12 3-11 2-10 2-13-1-12-2-12-1-13 0-13 1-12 3-13 3-13 2-13 4-11 5-9 0-11 5-10 7-11 0 0 0 0 16 14 4 12-1 12-4 12-6 10-2 11-2 11-3 10-1 12 0 13 1 11 2 13 0 14-2 10-2 10-2 11-4 9-5 11-4 10-4 12-1 13 0 12 4 12 5 9 5 8 7 9 7 8 9 9 4 4 2 2 1 2 0 2 0 2 0 1-1 2-2 2-1 1-2 0-2 1-2-1-2 0-1-2z"  fill="#fff" /><path d="M107-167l4 6 9 12 8 12 6 11 6 13 3 11 2 11 2 13 2 11 5 11 7 9 8 10 8 9 8 8 10 8 10 8 8 7 9 6 14 5 9 4 14 4 11 2 9 2 15 0 16-1 12-1 14-1 14 0 15 2 14 3 14 5 13 6 11 6 10 6 9 7 8 8 6 9 4 33 0 0 0 0-32-24-7-8-11-8-10-5-10-5-11-3-12-3-12-1-12 0-12 1-12 1-12 2-12 1-13-1-12-2-12-2-12-3-10-4-13-4-9-4-9-6-8-7-9-8-8-7-9-7-8-9-10-11-8-11-8-11-4-12-3-12-2-14-1-14-2-13-3-10-5-11-7-12-7-13-4-6-1-2 0-2 0-2 0-2 1-1 2-2 1-1 2 0 2-1 2 1 2 0 2 2 1 1z"  fill="#fff" /><path d="M108-161l-1 7-2 13-3 15-6 17-10 14-10 13-10 11-8 10-7 9-4 9-4 14-1 15-2 12-2 12 0 10 0 13 2 14 1 10 0 12-2 13-4 11-4 12-6 12-3 10 0 14 5 13 5 8 7 10 7 9 9 9 8 7 8 6 13 8 12 8 11 9 9 6 10 4 12 4 14 4 10 5 9 6 16 30 0 0 0 0-38-10-11-5-13-4-14-5-10-5-12-9-9-7-11-8-9-6-10-7-10-8-9-9-10-11-8-11-7-11-7-13-4-15-1-15 4-15 5-14 4-10 3-10 3-12 1-12-2-14-1-11 0-12 2-12 1-12 2-11 2-12 3-12 4-12 7-12 8-11 9-10 11-11 9-11 8-10 6-13 3-14 4-13 2-6 1-2 1-2 1-1 2-1 2-1 2 0 2 1 1 1 2 1 1 2 1 1 0 2 0 2z"  fill="#c2e1ff" /><path d="M108-161l-1 6-2 10-2 14-1 13-3 14-3 14-4 13-3 10-4 11-4 11-2 15 1 10 7 15 8 10 9 11 11 11 13 11 14 11 14 10 14 9 12 6 13 4 13 2 12 0 13-2 12-2 13-3 12-2 10-3 12-3 13-6 8-6 5-9 1-11-3-11-2-11-2-13-2-14 1-16 3-16 25-43-1 0 1 0 0 55-1 12 0 11 2 12 3 11 3 11 1 12-1 10-2 12-6 9-7 9-9 7-11 5-13 5-11 3-13 3-12 2-12 2-14 2-14 2-17 0-16-3-17-6-15-7-14-9-15-11-16-11-14-12-13-12-11-12-9-13-8-15-4-16 0-16 3-14 4-12 4-10 3-9 5-15 5-11 3-12 3-13 4-14 4-10 1-5 1-2 1-2 1-1 2-1 2 0 2 0 2 0 1 1 2 1 1 2 1 2 0 2 0 1z"  fill="#fff500" /><path d="M92-162l-1-6 0-13-1-12 0-11-1-11-1-10-2-14-4-11-7-11-8-9-10-7-11-6-10-4-12-2-10-4-10-5-7-7-8-10-8-7-8-7-9-7-10-3-10-1-12-1-11-1-12 2-23-13 0 0 0 0 22-20 13-1 11 0 13 1 10 2 10 1 11 3 9 6 7 7 8 7 8 8 7 8 7 8 10 6 11 3 12 4 11 6 12 9 8 7 7 8 7 10 5 11 3 10 2 11 1 12 0 11 0 11-1 12-1 12-1 11 0 6 0 2-1 2-1 2-1 1-2 1-2 0-2 0-2 0-1-1-2-1-1-2-1-1 0-2z"  fill="#fff" /><path d="M92-162l-1-6-3-12-5-13-7-14-8-15-9-14-10-11-10-10-11-9-13-10-16-13-7-7-8-8-7-8-7-7-14-14-15-11-15-11-14-9-13-9-11-6-11-6-10-5-14-5-13-3-13-1-13-1-15-1-10-3-12-5-12-4-9-5-11-8-10-9-8-8-8-7-8-7-9-7-11-5-28-22 0 0 0 0 32-10 12 5 9 5 9 6 9 8 9 7 8 8 7 8 8 7 11 8 11 4 10 5 10 3 12 1 15 2 10 1 10 3 11 4 11 5 11 6 11 6 13 8 12 9 14 10 16 11 8 6 8 7 8 7 7 7 7 8 7 7 14 13 15 12 14 10 12 11 12 12 10 14 10 15 8 16 7 16 5 16 2 14 0 7 0 2-1 1-1 2-1 2-1 1-2 0-2 1-2-1-2 0-1-2-2-1-1-2 0-2z"  fill="#fff500" /><path d="M92-162l0-7-1-17-1-17-1-20-2-10-1-11-2-11-3-12-3-12-2-12-1-11-2-11-1-11-1-11 0-10-2-19-3-17-5-17-4-18-5-19-4-18-4-19-4-17-5-18-5-17-6-17-5-15-5-14-7-11-8-10-9-10-9-7-10-6-9-6-13-3-16 0-14 1-13 3-15 5-15 6-14 8-14 8-11 8-11 9-10 7-9 7-8 10-5 11-5 10-18 27 0 0 0 0-10-28 5-13 6-12 6-10 9-10 10-8 10-7 10-7 12-10 13-8 16-10 16-8 17-7 17-5 16-2 15-1 15 1 14 4 12 6 10 7 11 9 11 10 9 12 10 14 7 16 5 15 4 16 5 17 6 18 5 19 4 18 3 19 4 17 4 19 5 18 4 19 2 19 0 10 1 20 1 11 1 10 1 11 3 11 2 12 3 12 3 12 2 11 2 11 1 21-1 18 0 16 0 7 0 2-1 2-1 1-1 2-2 1-2 0-2 0-1 0-2-1-1-1-2-2 0-1-1-2z"  fill="#fff" /><path d="M105-156l-6 4-10 11-8 13-9 16-5 10-5 10-5 10-5 12-6 11-8 13-10 12-10 12-12 10-11 10-12 8-12 7-11 7-12 5-11 6-10 5-11 5-10 6-10 5-9 6-8 5-9 6-16 11-16 11-17 10-17 9-17 9-14 10-15 11-15 11-14 12-12 14-10 16-7 15-5 14-2 13 2 13 7 9 11 11 9 7 10 8 9 8 10 7 10 7 11 7 10 6 10 7 10 7 8 7 9 8 8 8 8 10 7 11 5 41 0 0 0 0-29-28-8-12-9-10-8-7-8-7-8-7-9-6-10-6-11-7-11-8-11-8-10-9-10-8-9-8-9-9-8-10-6-12-2-15 2-17 5-16 7-16 5-9 5-9 7-9 6-8 7-8 8-7 8-6 8-6 15-11 15-10 17-11 17-8 17-9 16-10 17-10 8-6 9-5 9-5 10-6 10-5 11-5 10-5 11-5 11-5 11-5 11-6 11-7 11-8 11-8 10-11 9-11 8-12 6-12 5-11 5-11 5-11 5-11 5-9 5-10 5-8 11-15 13-12 6-4 2-1 2 0 2 0 2 0 1 1 2 1 1 2 0 1 1 2 0 2-1 2-1 1-1 2z"  fill="#005bbb" /><path d="M97-156l-7-2-16-7-16-7-19-4-11-1-12-2-13 0-14-1-14-1-14-2-13-2-13-2-14-3-12-3-12-2-11-1-11-2-10-1-11-1-11 0-10-1-10-1-10 0-11-1-10-1-18-3-18-2-16 0-15 1-15 1-16 1-14 0-14 0-12 0-11 2-10 2-9 3-10 2-14 2-10 3-12 3-10 5-8 6-9 7-11 0-10 5 0 0 0 0-3-9 1-11 4-10 9-5 9-7 10-4 11-4 13-2 11-3 14-2 14-2 11-2 12-2 14-1 13 1 14 0 14 1 15-1 16-1 18 1 17 2 18 3 19 3 20 2 10 1 11 1 11 1 11 1 11 2 11 1 12 2 11 3 12 2 13 3 13 2 13 2 14 1 13 0 14 1 13 0 13 0 12 2 12 2 11 3 17 9 14 7 7 4 1 1 2 1 1 1 0 2 0 2 0 1 0 2-1 2-2 1-1 1-2 0-2 0-2-1z"  fill="#c2e1ff" /><path d="M101-155l-7 1-16 1-20-1-11 0-12 0-12 0-13 0-13 0-12 1-13 2-12 2-11 4-11 4-9 5-10 7-9 7-7 7-6 8-8 17-5 19-2 18 0 17 2 17 2 16 1 18-2 18-4 18-8 17-9 18-6 9-6 9-7 9-7 8-7 9-8 9-7 9-8 10-8 8-9 9-9 8-10 8-10 7-11 8-10 8-10 8-11 8-12 9-11 7-12 7-14 6-14 5-15 2-15 2-15-1-15-1-14-4-14-4-14-6-14-6-14-5-14-5-13-3-14-3-14-1-15-1-15-1-16 0-16 1-17 2-17 1-17 1-17 0-16 0-16 0-15-1-15 0-14 0-14 1-14 1-14 1-12 2-12 2-80 11 0 0 0 0 78-23 12-2 14-1 13-1 14-1 15 0 15 0 14 1 16 1 15 1 16 0 17-1 17-1 16-2 17-2 17-1 16-1 16 0 15 1 15 2 14 3 15 3 15 5 14 5 13 5 14 6 13 4 13 3 13 1 14 0 14-1 13-3 12-4 12-5 12-7 10-7 11-9 11-8 10-9 10-9 10-7 10-8 9-7 9-8 7-8 8-8 7-9 7-9 7-10 7-10 7-8 6-8 10-16 9-18 6-14 4-14 2-15 0-16-2-16-1-19 1-19 1-10 2-10 2-11 4-10 5-11 6-10 8-9 9-9 9-8 11-7 12-6 12-5 12-3 13-3 13-2 14-1 13-1 13-1 13 0 12 0 11 0 18 2 15 0 7 0 2 0 2 1 1 1 2 1 1 1 0 2 0 2 0 1-1 2-1 1-1 1-1 1-2 1z"  fill="#fff" /><path d="M106-157l-4 5-8 10-8 9-8 8-9 11-6 9-4 12-4 12-3 11-3 11-3 11-4 10-4 9-4 11-2 11 0 11 3 10 6 13 4 10 3 12 1 10 2 10 5 9 6 9 0 25 0 0 0 0-30-11-7-10-4-12-3-12-1-11-4-11-4-12-4-10-3-12-1-13 0-10 2-10 4-12 4-10 6-11 4-9 4-12 3-9 5-10 4-10 5-12 6-8 7-8 9-8 8-6 9-8 8-8 5-5 1-1 2-1 2-1 2 0 2 1 1 1 2 1 1 2 1 1 0 2 0 2-1 2-1 2z"  fill="#c2e1ff" /><path d="M99-155l-7 0-17 0-18-1-18-3-19-4-17-3-17-4-16-4-16-2-15-1-15-1-16 0-18 0-17-2-16-2-15-3-16-4-16-4-16-4-15-4-15-4-14-3-15-5-17-4-10-3-10-5-10-5-10-6-12-6-13-7-13-6-15-7-15-9-16-9-17-11-16-10-18-9-17-9-18-9-18-10-17-12-16-13-15-14-13-15-13-15-13-16-13-15-14-14-15-14-15-12-16-12-18-10-18-8-18-6-19-5-19-5-19-3-19-2-19-1-19-1-18 0-17 1-17 2-16 2-16 3-15 4-16 5-15 6-15 7-14 8-14 9-86 60 0 0 0 0 82-67 14-9 15-8 15-7 16-6 16-5 16-3 16-3 17-1 17-2 17 0 19 1 18 1 19 1 19 3 19 3 20 4 19 5 18 7 18 9 18 10 17 11 15 13 14 13 14 15 14 15 13 15 13 15 13 15 14 14 17 13 17 11 18 9 18 9 18 8 18 8 18 8 17 9 16 8 16 6 15 5 15 6 14 5 12 5 11 5 9 4 17 6 17 4 15 5 14 3 15 4 15 4 16 4 16 5 14 3 15 3 14 3 16 1 17 0 16 1 16 1 17 1 17 4 17 4 17 4 17 4 17 4 17 3 17 2 17 2 8 1 1 0 2 1 2 1 1 2 1 1 0 2 0 2-1 2-1 1-1 2-2 1-2 0-2 0z"  fill="#c2e1ff" /><path d="M103-170l7 3 15 8 13 8 12 10 11 10 13 10 13 10 15 10 15 8 15 6 14 3 13 2 12 1 14 0 13-1 11-1 13-2 10-2 10-5 9-7 8-7 8-6 10-4 9-3 3-3 0 0 0 0 4 5 3 10-2 10-7 9-8 6-8 5-10 7-11 6-12 4-12 2-11 1-12 1-13 0-10-1-12-1-13-2-14-3-16-4-17-7-18-9-16-10-14-11-12-11-12-10-10-10-12-9-11-8-6-3-2-1-1-2-1-1-1-2 0-2 0-2 1-2 1-1 2-1 2-1 2-1 1 1 2 0z"  fill="#fff" /><path d="M107-159l-2 5-5 9-7 13-5 13-2 12 1 10 1 12 5 10 10 11 10 8 11 9 14 11 16 12 8 7 9 7 9 6 9 5 10 7 10 6 9 6 10 7 10 6 10 6 11 6 11 7 12 8 13 7 12 8 13 8 13 9 12 9 13 10 12 11 12 12 12 11 12 11 12 13 13 12 13 12 14 11 13 11 13 12 13 12 13 11 12 12 13 11 12 11 13 11 12 11 13 10 13 9 12 10 11 10 11 9 11 9 10 8 10 7 10 5 9 5 10 5 17 6 15 2 13-1 13-1 13-4 13-6 34-6 0 1 0 0-29 28-11 4-12 3-14 0-14 0-17-2-18-7-10-4-9-6-10-6-10-7-10-8-10-8-10-10-11-9-11-10-11-10-13-10-13-10-12-11-13-11-13-11-12-12-12-12-12-11-13-12-14-11-13-11-14-11-14-12-13-12-12-12-12-11-13-10-12-11-13-11-12-9-12-8-13-8-13-7-13-7-13-7-12-7-12-6-11-6-11-6-10-6-10-6-10-6-10-6-10-6-10-5-9-6-10-6-9-6-9-6-16-11-13-10-12-10-10-9-10-12-5-13-2-11-1-15 1-10 2-11 5-10 5-10 6-9 9-11 3-4 1-2 2-1 2-1 1 0 2 0 2 0 2 1 1 2 1 1 1 2 0 2 0 2-1 2z"  fill="#c2e1ff" /><path d="M100-155l-7 1-14 1-16 1-18-1-17-2-16-3-14-4-15-4-13-5-13-6-12-7-12-9-12-11-11-12-13-12-13-13-12-13-11-14-10-14-10-11-12-8-15-8-15-6-17-5-16-6-16-7-16-7-15-8-15-10-13-10-13-12-10-13-9-12-9-12-10-11-11-12-12-13-14-10-14-9-15-5-18-3-11-2-11-3-13-3-12-5-11-5-11-5-11-6-11-7-9-7-10-7-10-9-10-9-10-11-10-12-62-88 0 0 0 0 73 78 11 11 9 10 10 8 10 8 9 7 9 6 9 6 10 5 11 5 11 4 11 4 10 2 11 2 11 1 10 2 11 1 10 3 10 4 9 5 8 5 16 13 13 13 12 12 11 13 9 12 9 12 8 11 10 10 12 10 13 8 13 8 15 6 16 6 16 6 17 6 17 7 17 8 16 11 12 14 11 14 10 13 11 11 12 12 13 13 13 12 9 9 10 8 10 6 11 5 12 6 12 4 14 3 15 4 15 3 16 1 15 1 15 0 7 0 2 1 2 0 1 1 2 2 1 2 0 2 0 1 0 2-1 2-2 1-1 2-2 0-2 0z"  fill="#fff500" /><path d="M96-156l-6-2-10-7-11-8-9-9-8-9-7-8-8-9-7-8-12-10-9-6-10-8-10-7-8-7-8-7-8-8-6-8-10-9-8-7-10-4-11-2-14-1-13-2-13-2-14-4-14-3-13-3-12-2-12-2-12-1-13-1-11-1-10 0-11 0-10 0-11 2-11 0-14 2-11 3-11 6-11 8-12 8-34 8 0 0 0 0 17-31 12-8 8-6 9-6 10-5 14-4 10-1 11-1 10-1 12-1 12 0 12 0 12 0 12 1 11 2 12 1 14 1 14 3 14 3 12 3 13 2 13 2 11 1 11 1 11 2 10 2 10 4 10 7 9 7 7 8 9 11 9 9 8 8 8 7 9 7 9 6 10 8 10 9 8 10 7 9 6 9 7 9 7 8 8 8 8 7 5 4 2 1 1 1 1 2 0 2 0 2-1 2-1 2-1 1-2 1-2 0-2 1-1-1-2-1z"  fill="#fff500" /><path d="M101-171l8 1 15 1 15 1 15 3 14 5 12 5 11 5 12 6 11 5 10 5 10 5 12 6 11 8 10 7 9 10 9 11 7 9 8 11 8 11 8 10 9 8 8 6 12 3 12 0 11-1 11 0 11-1 12-2 10-2 11 0 19 27 0 0 0 0-22 5-10 1-10 2-11 1-11 0-10-1-12 1-11 0-12-2-10-3-9-5-9-7-8-8-7-8-8-11-8-11-8-10-7-10-8-11-8-7-8-7-9-6-12-7-11-5-11-6-11-6-11-6-10-6-11-4-13-3-14-3-15-2-8-2-2 0-2-1-1-1-1-2-1-2 0-2 0-2 1-2 1-1 2-1 1-1 2-1 2 0z"  fill="#fff" /><path d="M97-170l5-3 10-5 8-6 10-8 6-8 6-11 6-11 8-9 8-6 11-5 11-4 13-3 12-3 15-1 13 2 12 1 11 1 13-2 13-2 15-2 14-1 13-1 13-2 13-1 11-1 11-1 12-4 10-6 9-7 9-8 9-10 11-11 41-13 0 0 0 0-22 35-8 7-9 10-10 9-10 9-10 6-10 5-12 3-12 3-12 1-12 1-12 1-13 2-14 2-14 2-13 2-12 3-11 1-11 0-14-2-13-2-12 1-13 3-10 2-11 3-9 6-7 10-7 9-8 10-8 6-9 6-10 5-12 5-6 2-2 0-2 0-2 0-1-1-2-1-1-2-1-1 0-2 0-2 1-2 1-2 1-1 2-1z"  fill="#005bbb" /><path d="M105-169l6 5 13 10 12 11 11 12 7 14 5 15 1 17 1 16 0 17 0 16 2 17 3 13 5 13 5 11 7 10 9 13 9 16 7 16 7 17 8 17 8 16 9 15 8 14 8 14 8 14 9 13 9 12 8 12 8 12 7 11 5 10 5 10 4 14 2 10 2 11 5 10-1 11 0 12 0 0 0 0-14-3-9-5-5-9-4-11-1-12-1-12-3-11-6-13-6-10-7-11-8-12-9-13-9-14-8-14-8-14-9-15-9-16-9-17-8-17-7-16-8-16-7-13-8-12-9-13-6-14-5-15-3-16-2-18-1-18 0-17 0-15-1-13-3-12-4-10-7-11-11-11-11-10-6-5-1-2-1-1-1-2 0-2 0-2 1-2 1-1 2-1 2-1 2-1 1 1 2 0 2 1z"  fill="#fff" /><path d="M105-156l-5 4-9 8-8 8-8 8-9 8-11 8-9 8-9 7-10 7-8 6-11 11-6 8-6 8-5 9-5 9-6 10-4 10-5 9-5 10-5 8-7 9-7 10-8 9-9 8-10 6-8 7-8 7-8 7-11 1-13 3 0 0 0 0 1-20 4-9 7-7 8-7 8-6 10-6 9-6 8-9 7-8 9-11 6-12 5-10 6-11 5-9 6-11 7-10 8-10 8-8 9-8 10-7 9-6 10-7 10-7 10-7 9-7 9-7 10-7 10-8 5-3 2-1 2-1 2 0 2 1 2 1 1 1 1 2 1 1 0 2 0 2-1 2-1 2-1 1z"  fill="#c2e1ff" /><path d="M97-170l6-3 13-5 16-4 17-5 15-8 11-9 10-12 7-12 6-12 5-14 2-14 1-17 2-18 3-20 4-17 3-15 2-13 0-12 0-10 0-14-2-12-1-12-2-11-2-12-4-10-4-10-3-11 3-10 4-10 2-6 0 0 0 0 6 3 9 6 6 8 2 11 4 10 3 10 2 12 1 10 0 10 0 11 1 12 0 10-1 11-1 12-2 14-3 15-4 16-3 17-2 18-1 18-2 19-5 16-6 15-9 14-11 14-13 14-17 10-10 4-19 5-15 3-12 3-6 2-2 0-2 0-2 0-1-1-2-1-1-2-1-1 0-2 0-2 1-2 1-1 1-2 2-1z"  fill="#c2e1ff" /><path d="M97-155l-5-1-10-2-11-3-11-3-10-3-10-5-10-6-13-7-11-8-10-6-9-4-11-4-13-3-12 0-11 5-8 7-9 7-8 6-9 10-8 11-4 10-3 12-1 11 1 11 4 11 4 11 5 11 8 6 11 21 0 0 0 0-16 6-13-1-9-6-7-8-5-11-4-11-4-12-2-10-2-15 0-10 3-14 2-10 5-12 6-10 7-10 8-9 9-8 9-7 8-6 8-6 10-4 11-4 11 0 11 1 15 4 10 3 12 6 11 7 11 8 11 8 12 9 12 6 14 6 10 4 10 4 6 2 1 1 2 1 1 2 1 1 0 2 0 2-1 2-1 2-1 1-2 1-2 0-2 0-2 0z"  fill="#fff500" /><path d="M97-155l-6-2-11-3-12-3-11-3-12-3-11-4-9-4-10-4-10-5-9-6-8-7-7-8-5-8-8-12-4-10-3-11-3-11-1-15 0-14 0-14 0-16-1-16-3-16-6-18-4-10-5-10-5-9-6-10-6-9-6-9-7-8-7-8-7-8-7-8-7-8-7-8-7-8-7-8-7-7-7-7-15-14-14-13-13-14-10-13-9-12-7-12-6-10-5-10-6-12-6-9-7-10-4-10 0-19 0 0 0 0 18 7 8 7 5 8 6 11 6 13 6 13 5 10 6 11 7 12 9 12 11 13 13 13 7 7 8 7 8 8 7 7 8 9 7 8 7 8 6 8 7 7 7 8 7 8 8 9 8 9 7 10 6 10 7 10 6 11 5 10 4 11 4 10 3 10 2 10 1 17 1 16 1 15 0 13 1 10 2 10 4 12 5 10 5 10 7 8 9 7 12 7 9 4 13 7 11 4 11 4 12 4 12 5 5 3 2 1 1 2 1 1 1 2 0 2 0 2-1 2-1 1-2 1-2 1-1 1-2-1-2 0z"  fill="#005bbb" /><path d="M108-160l-2 6-4 12-5 12-7 11-6 10-7 9-9 11-7 10-6 9-6 7-8 8-9 7-10 5-9 3-7 9-7 7-11 4-11 2 0 0 0 0 0-10-1-10 3-10 7-8 8-7 10-6 11-3 9-5 9-7 8-10 8-10 7-8 10-11 7-8 6-8 6-10 5-11 2-5 1-2 2-1 1-2 2 0 2-1 2 1 2 0 1 2 2 1 0 2 1 2 0 2-1 1z"  fill="#c2e1ff" /><path d="M92-162l-1-6 0-12 0-11 0-12 0-10-4-13-5-12-6-10-6-10-7-10-6-9-7-10-7-10-7-11-4-11-4-11-3-11-5-10-8-7-10-6-9-4-10-6-10-4-4-9-9-1 0 0 0 0 5-13 10-6 11-1 11 5 11 6 9 5 9 5 8 6 9 8 6 11 4 10 3 12 3 11 4 11 6 9 6 9 7 11 6 10 6 10 7 12 4 10 3 10 3 11 2 12-1 12-1 12-2 11-1 11 0 5 0 2-1 2-1 2-1 1-2 1-2 0-2 0-2 0-1-1-2-1-1-2-1-1 0-2z"  fill="#fff" /><path d="M94-157l-5-4-9-9-9-9-8-11-5-12-4-12-2-13-1-14 0-15 0-14 2-15 2-14 3-13 3-12 3-11 2-14 0-15 2-10 3-13 2-10 2-13 3-12 2-13 1-13 2-11 3-13 5-12 5-12 6-11 6-10 7-11 7-9 8-12 8-12 6-11 5-10 5-10 5-10 21-15 0 0 0 0 6 18-1 12-5 9-5 10-6 10-7 12-8 12-6 9-7 9-5 8-6 10-5 10-5 10-4 9-3 10-3 14-2 14-2 14-3 13-2 12-4 13-3 10-1 12-1 10-2 12-2 12-4 12-3 12-3 11-2 13-1 12 0 14 0 13 1 11 2 11 3 13 5 9 8 9 8 10 4 5 1 2 1 1 0 2 0 2-1 2-1 2-1 1-2 1-2 1-2 0-2-1-1-1-2-1z"  fill="#005bbb" /><path d="M108-163l1 7 1 13 1 13 2 12 3 11 4 10 4 10 4 9 7 13 4 10 4 14 2 10 0 13-1 12-1 13-1 11-3 11-4 11-7 9-8 7-10 5-11 6-7 7-3 10 0 11-8 10-11 10 0 0 0 0-13-18-1-10 1-12 4-11 5-10 7-7 10-8 10-5 11-5 7-8 3-12 1-11 2-10 0-11 0-13-2-11-5-12-4-9-4-10-4-11-3-13-3-14-1-13 0-13 1-14 0-6 0-2 1-2 1-2 1-1 2-1 2 0 2 0 2 0 1 1 2 1 1 2 1 1 0 2z"  fill="#005bbb" /><path d="M98-155l-7-1-15-2-17-1-17 0-17-2-17-1-19-3-18-3-16-2-15 0-13 1-12 3-12 4-13 5-13 4-14 5-12 3-12 4-12 5-13 4-13 5-16 5-17 5-16 4-15 6-12 8-14 10-14 12-14 12-15 12-8 7-9 8-10 7-10 8-10 8-11 8-12 7-12 6-13 4-14 3-14 2-13 2-15 2-15 1-14 1-15 1-16 2-16 1-16 0-17 0-18 0-18 0-19 2-19 2-19 2-20 1-20 2-22 2-22 3-22 5-23 7-21 8-22 10-22 12-21 12-138 89 0 0 0 0 137-91 21-12 22-12 22-10 22-9 22-6 23-5 22-4 21-3 21-2 19-3 19-2 19-3 20-3 18-1 18-1 16-1 16-1 16-2 15-2 15-2 15-1 15-2 13-2 14-2 12-3 13-3 11-4 10-5 11-7 9-7 10-9 9-8 9-8 9-8 8-7 15-13 14-13 14-11 14-12 16-11 18-7 17-5 15-5 15-5 14-5 12-4 13-4 13-5 13-3 12-4 13-4 13-5 14-4 16-2 16-1 15 1 18 2 19 3 17 3 17 2 17 2 17 1 17 2 17 3 7 3 2 0 1 2 2 1 1 2 0 2 0 1-1 2 0 2-2 1-1 2-2 0-2 0-2 0z"  fill="#005bbb" /><path d="M92-164l0-7 2-15 2-16 3-18 5-16 5-15 5-14 7-13 8-11 8-9 10-7 11-4 13-4 14-2 14-1 13 3 13 5 11 6 10 5 9 7 10 6 9 7 10 8 7 7 7 9 7 10 5 11 6 10-1 11 0 15 0 0 0 0-18-4-9-4-6-11-4-10-5-9-7-8-8-8-9-8-8-6-11-7-9-6-9-5-10-5-10-1-11 1-12 2-13 4-9 7-6 8-7 10-5 13-5 13-5 16-4 15-3 15-3 15-1 7-1 2 0 2-2 1-1 2-2 0-2 0-2 0-2 0-1-2-2-1-1-2 0-2 0-2z"  fill="#fff500" /><path d="M94-168l4-6 7-12 6-12 6-13 7-15 11-14 12-14 7-7 8-7 8-6 9-7 8-6 10-6 9-7 9-7 8-7 9-7 9-8 9-7 9-8 8-8 9-8 8-8 9-7 8-8 8-7 7-8 8-8 7-7 14-13 11-13 12-11 10-11 8-10 7-10 7-10 7-11 8-10 6-10 5-10 4-10 4-10 4-13 2-12 2-13 1-13 2-13 3-10 6-14 8-11 10-8 10-6 12-6 34 2 0 0 0 0-26 27-10 6-10 6-6 10-3 9-2 12-2 12-2 14-2 10-3 10-4 10-4 11-6 11-6 12-8 11-7 11-8 10-8 10-8 10-10 11-11 10-11 11-13 12-14 13-8 7-7 8-8 7-8 8-8 8-9 7-8 8-8 8-9 9-9 8-9 8-9 7-8 8-9 8-9 7-9 7-9 6-9 7-15 12-13 13-11 13-9 12-8 12-6 12-8 14-10 13-5 6-1 1-2 1-2 1-2 0-2-1-1-1-2-1-1-1-1-2 0-2 0-2 1-2 1-2z"  fill="#005bbb" /><path d="M107-166l4 5 7 11 8 10 9 11 9 11 8 11 7 10 8 8 7 8 8 8 9 10 7 8 8 7 9 6 10 7 11 5 11 5 11 4 11 2 13 3 14 4 13 5 12 7 11 8 11 5 13 6 15 7 14 9 12 10 11 10 11 9 12 9 10 7 10 5 13 6 13 8 13 7 13 9 12 10 10 11 8 11 7 11 6 13 4 13 2 14-1 15-3 15-26 48 0 0 0 0-1-46 3-13 1-12 0-11-3-13-4-9-6-10-7-10-8-9-9-8-11-7-13-7-12-7-12-6-13-7-12-9-11-9-12-9-12-10-10-8-11-7-13-6-15-6-13-7-11-7-10-6-10-4-11-4-12-2-14-3-13-5-12-5-13-7-12-7-11-8-10-10-8-9-7-9-8-9-7-9-8-10-8-10-7-12-8-11-8-11-8-12-7-13-2-6-1-2 0-1 0-2 1-2 1-2 1-1 2-1 2 0 2 0 2 0 2 1 1 1 1 2z"  fill="#005bbb" /><path d="M104-156l-5 4-9 6-10 7-9 7-9 7-10 7-11 6-10 5-11 5-11 2-11 2-11 0-11-1-10-3-13-6-13-4-9-4-11-4-12-4-12-6-13-8-11-8-10-8-10-7-12-7-11-7-11-7-12-5-14-7-14-8-13-10-12-10-11-11-10-13-7-15-5-15-1-15 0-12 1-11 2-10 5-14 6-12 8-11 6-9 25-14 0 0 0 0-1 30-8 10-6 8-6 12-4 10-2 13-1 14 2 11 4 11 6 10 8 9 11 10 11 8 12 8 11 6 14 5 14 7 12 8 12 7 11 7 11 8 11 8 9 6 10 5 11 5 11 4 10 3 10 4 9 4 12 5 9 3 10 1 13-1 13-4 9-4 10-4 9-6 10-7 11-6 10-6 11-5 5-3 2 0 2-1 2 1 2 0 1 1 2 2 0 1 1 2 0 2 0 2-1 2-1 1-2 1z"  fill="#005bbb" /><path d="M107-166l3 5 7 9 6 8 10 8 13 8 9 7 11 7 13 7 13 9 15 10 8 6 8 6 9 8 9 7 9 7 9 7 9 7 10 7 9 7 9 9 8 8 9 9 8 9 8 10 8 10 9 11 8 11 9 10 9 10 9 11 10 12 10 13 10 13 10 13 11 14 11 13 11 14 12 15 13 14 12 15 11 17 10 18 9 18 9 20 10 19 9 21 11 21 10 23 11 23 10 23 10 25 11 25 9 27 9 28 10 28 9 29 8 28 9 28 7 28 7 26 5 25 4 23 3 23 2 23 2 21 1 21 0 20-1 20-1 19-2 20-2 20-2 20-3 19-2 19-2 19-1 18 0 17 2 18 2 18 2 19 3 20 2 21 16 143 0 0 0 0-19-143-3-20-3-20-3-19-2-19-1-18 1-17 1-19 2-18 3-19 2-20 3-19 2-20 2-20 1-19 1-20 0-20-1-21-2-21-2-22-3-23-4-24-5-25-6-26-8-27-8-28-9-29-9-28-10-29-9-27-9-27-11-25-10-25-10-23-11-23-10-22-11-22-10-20-10-20-9-19-9-18-11-17-12-16-12-14-13-14-13-14-12-14-11-13-12-13-11-13-11-12-10-12-11-11-9-11-10-10-9-10-9-11-9-10-9-10-8-9-8-9-7-8-8-7-9-8-9-6-9-7-10-7-9-7-10-6-9-7-9-6-16-11-15-10-13-8-13-8-12-8-9-7-8-6-9-7-8-10-6-10-5-11-3-6-1-1 0-2 0-2 1-2 1-2 1-1 2-1 2 0 2 0 2 0 1 1 2 1 1 2z"  fill="#fff500" /><path d="M108-164l1 5 3 14 0 10-2 10-3 13-4 13-1 12 1 11 2 13 5 9 10-2 9-5 5-6 0 0 0 0 4 5 5 9 0 10-6 10-9 7-10 3-11 0-9-4-8-7-7-10-4-10-1-11-1-13 0-11 2-11 3-10 4-13 5-11 2-10 0-13-1-4 0-2 1-2 0-2 2-1 1-1 2-1 2 0 1 0 2 0 2 1 1 2 1 1 1 2z"  fill="#fff500" /><path d="M95-169l3-3 8-8 10-8 9-7 9-7 8-8 6-9 7-13 8-16 7-15 6-17 6-18 5-20 2-10 1-10 1-11 1-10 0-11 0-10 0-10-3-20-2-10-4-10-4-11-4-11-4-12-5-10-4-11-5-12-4-11-4-12-3-13-3-12-3-12-2-12-3-12-2-12-3-12-5-11-5-11-5-12-5-11-6-11-7-10-7-11-7-11-7-11-6-11-7-12-5-11-6-12-5-10-6-11-6-10-7-9-7-9-7-7-9-8-9-8-9-7-9-7-9-8-10-8-9-8-9-9-9-8-8-8-8-8-9-6-8-6-9-6-10-7-9-5-10-6-11-6-11-6-12-6-11-5-12-6-12-5-74-44 0 0 0 0 80 30 12 5 12 5 13 6 12 5 11 6 11 6 11 6 10 6 9 6 9 7 10 7 9 7 8 8 9 8 8 9 9 8 9 8 9 7 9 8 10 7 9 8 9 8 9 8 9 9 8 10 6 10 7 11 5 11 6 11 5 11 6 11 6 11 6 11 7 11 7 11 7 11 7 11 6 11 6 11 6 12 5 12 5 13 4 13 2 12 3 11 2 12 3 12 3 11 3 12 4 12 5 11 4 11 5 11 4 11 5 11 4 11 5 11 4 12 3 11 3 12 1 11 0 11 0 11 0 11-1 11-1 11-1 11-1 11-2 11-3 11-2 10-3 9-7 18-8 18-7 15-8 15-10 13-11 9-10 7-10 6-9 6-9 7-4 3-1 1-2 0-2 1-2-1-2 0-1-2-2-1-1-2 0-2 0-2 0-1 1-2 2-2z"  fill="#c2e1ff" /><path d="M103-170l6 2 13 3 12 1 12-1 12-2 13-3 13-4 12-6 13-9 15-12 9-5 15-11 13-13 12-14 10-17 5-10 5-10 5-10 6-11 5-10 5-9 5-9 4-9 10-17 9-14 6-13 5-12 4-13 4-11 4-12 4-11 4-12 5-13 6-12 6-12 5-10 4-10 4-11 2-11-5-9-8-8-5-11-3-15 0 0 0 0 21 0 9 5 7 9 7 10 3 10 1 12-2 12-5 13-4 9-5 11-6 12-6 11-6 11-4 12-4 11-5 11-4 11-5 12-6 14-7 14-9 14-9 14-10 16-4 9-5 10-5 10-6 10-5 11-4 10-5 10-6 10-5 10-7 9-7 8-7 8-8 7-8 6-15 11-15 12-16 11-15 8-16 4-14 3-15 1-15 0-15-3-14-5-6-3-2-1-1-1-1-2-1-2 0-1 0-2 1-2 1-2 1-1 2-1 2 0 2 0 2 0z"  fill="#fff500" /></svg>