<svg width="1200" height="675" viewBox="-500 -500 1200 675" xmlns="http://www.w3.org/2000/svg"><path d="M-500-500h1200v675h-1200z" fill="#000"/><path d="M101-155l-7 2-12 3-12 5-12 6-14 6-18 5-18 1-19-4-9-4-9-6-9-5-9-6-10-5-9-6-10-4-10-4-10-4-11-3-10-3-10-2-11-1-19 0-18 4-17 5-14 6-12 7-9 9-7 9-4 11-3 14-1 15-1 17 1 16 1 18 4 17 6 17 7 18 7 17 7 17 6 17 7 15 8 16 6 14 7 15 6 12 6 12 7 10 5 9 8 11 9 10 10 10 8 9 9 28 0 0 0 0-32-13-8-10-9-10-7-8-6-10-6-9-5-10-6-12-7-13-6-14-6-15-7-15-7-16-7-17-6-16-7-17-7-18-4-9-4-9-3-10-3-10-2-11-2-18-1-19 1-17 1-18 4-18 8-16 10-12 13-11 15-8 16-6 19-5 10-2 11-2 11 0 12 1 11 1 12 2 11 3 11 3 11 4 11 4 11 4 11 6 10 5 10 5 8 5 14 8 12 3 14 0 14-4 13-5 14-5 14-5 15-2 7 0 2 0 2 0 2 1 1 1 1 2 1 2 0 2 0 1-1 2-1 2-1 1-2 1-2 1z"  fill="#005bbb" /><path d="M108-164l1 6 3 11 3 11 4 11 6 12 6 12 6 12 8 14 8 13 8 12 9 11 11 11 12 9 12 9 11 7 12 7 12 7 11 4 11 3 13 3 13 5 11 3 11 2 11 3 11 2 12 3 11 3 12 3 10 4 13 7 10 5 11 6 10 3 10-2 8-8 14-12 0 0 0 0 10 17 0 12-6 9-9 7-12 6-11 1-11-2-11-3-11-5-10-6-9-6-11-6-13-4-11-3-12-3-11-3-11-3-11-3-13-3-11-4-12-4-15-4-13-6-13-7-12-8-13-8-13-10-13-10-12-12-11-13-10-14-8-14-7-14-6-13-6-13-6-14-4-13-2-13 0-12-1-5 0-2 0-2 1-2 2-1 1-1 2-1 2 0 2 0 2 0 1 1 2 2 0 1 1 2z"  fill="#005bbb" /><path d="M100-155l-6 1-11 2-10 2-10 3-11 3-10 3-10 4-14 6-11 5-11 5-10 5-10 6-10 7-10 12-5 9-5 12-6 14-6 17-3 17-3 18 0 11 1 20 0 12 1 13-1 14 0 14-1 15 0 15-1 17-2 17-2 18-3 17-5 17-6 17-8 17-8 17-8 17-8 17-7 16-8 16-6 16-8 16-6 16-7 16-6 15-7 16-7 16-8 16-8 16-7 16-8 16-9 16-7 15-8 16-7 15-6 16-6 17-7 18-8 17-8 19-8 21-10 22-11 23-12 27-13 27-15 28-16 27-118 191 0-1 0 0 116-191 16-27 15-28 13-27 11-27 11-23 9-23 8-20 7-20 7-18 7-17 6-17 6-16 7-16 8-16 8-15 8-16 8-16 7-16 8-16 7-16 7-16 7-15 7-16 7-16 7-16 7-15 7-16 8-16 7-17 8-16 7-18 7-17 7-17 5-16 4-16 2-17 1-17 0-17 0-16-1-16-1-15-1-14 0-13-1-12-1-12-2-11-1-12 0-11 1-11 1-10 1-11 5-19 5-17 5-15 7-13 9-13 9-10 9-7 9-5 12-6 11-5 11-4 14-5 10-3 11-3 12-4 11-1 11-3 12-1 13 0 6 1 2 0 2 0 1 2 2 1 0 2 1 2 0 2-1 1 0 2-2 2-1 1-2 0-2 1z"  fill="#fff" /><path d="M95-169l4-4 10-8 11-7 13-7 13-7 13-7 13-7 11-7 8-7 7-7 7-8 7-9 8-12 7-13 4-11 4-11 6-12 5-13 6-13 6-13 5-12 4-13 4-11 1-10 0-11-5-10-7-8-7-8-9-6-9-4-11-4-12-3-10-3-12-5-11-4-18-23 0 0 0 0 28-7 11 4 10 5 11 4 12 3 10 4 9 4 10 5 9 8 8 8 8 10 7 11 3 10 2 11-1 13-2 12-4 14-5 13-5 13-6 14-6 13-5 13-5 11-5 11-4 11-5 11-7 11-7 10-8 9-8 8-9 8-12 9-12 7-14 7-13 6-14 7-12 5-11 6-9 5-5 4-1 1-2 0-2 1-2-1-2 0-2-2-1-1-1-2 0-2 0-2 1-1 0-2 2-2z"  fill="#005bbb" /><path d="M107-160l-1 6-3 10-3 10-6 12-7 10-7 8-9 8-11 5-10 3-13 3-9 4-11 4-10 3-12 3-12 3-14 4-10 2-14 1-10 0-11 0-11-1-13-1-13-3-13-4-12-6-10-5-9-5-13-9-8-5-9-5-13-6-11-2-11-3-12-2-14-4-44-25 0 0 0 0 45-3 12 3 12 2 13 3 12 3 12 3 13 6 10 6 9 5 12 8 12 7 13 7 15 4 10 1 12 0 10 1 13-1 12 0 13-3 11-3 9-2 12-3 11-3 11-3 10-3 12-2 10-2 10-5 8-8 8-10 6-11 4-10 3-5 1-2 1-1 1-1 2-1 2 0 2 0 2 0 1 2 1 1 1 2 1 1 0 2-1 2z"  fill="#005bbb" /><path d="M97-170l4-3 9-5 11-9 8-8 6-9 5-11 4-11 4-12 3-10 2-10-1-10-3-11-7-8-9-11-8-9-7-7-9-8-8-7-9-7-9-8-9-7-8-10-7-10-6-11-4-10-6-10-6-13-6-13-6-12-7-10-3-27 0 0 0 0 27 8 8 10 7 14 6 13 5 11 7 11 5 12 6 11 6 9 9 9 9 8 9 7 8 7 8 7 9 9 8 9 6 8 7 9 8 11 5 14 2 15-1 15-3 14-5 12-5 11-6 13-8 13-7 7-8 7-8 6-10 5-10 5-6 2-1 0-2 0-2 0-2-1-1-1-2-1-1-2 0-2 0-2 1-1 1-2 1-2 1-1z"  fill="#fff" /><path d="M108-164l1 6 3 11 2 11 2 11 2 11 3 11 2 11 3 10 4 10 3 10 4 9 5 13 6 11 9 13 5 9 6 10 3 12 0 13-2 12-4 12-6 12-6 11-7 11-9 10-11 10-10 7-10 7-11 8-11 7-11 7-12 7-12 6-12 5-11 5-10 4-12 5-8 5-8 8-4 10-6 8-18 10 0 0 0 0-5-26 4-10 7-11 9-8 10-7 12-6 14-5 10-4 10-5 11-5 11-6 11-7 11-7 10-6 9-7 10-8 9-6 7-8 6-8 5-9 5-9 5-14 3-13-3-9-7-12-6-9-6-10-5-10-3-10-5-14-3-10-3-11-3-12-2-11-1-13-2-11-1-11-1-11 0-11-1-6 0-2 0-2 1-2 1-1 2-1 2-1 2-1 2 1 1 0 2 1 1 2 1 1 1 2z"  fill="#fff" /><path d="M108-162l0 7-1 13-1 14-1 12-2 12-1 12-3 12-2 12-1 11-3 14-3 14-4 14-6 15-9 15-8 14-10 15-12 15-10 15-11 15-11 16-13 14-12 12-10 11-10 11-9 11-10 11-9 10-10 11-8 10-7 11-7 10-7 10-7 10-8 9-10 7-10 5-10 4-10 2-13 3-13 2-14 1-14 0-13 0-32-12 0 0 0 0 24-17 13 0 12 0 13 0 12-1 11-1 12-2 11-4 10-4 9-9 7-8 6-9 8-10 8-11 9-12 10-11 10-10 9-10 10-11 10-12 11-11 12-11 11-12 11-15 10-16 11-16 10-14 9-14 8-14 7-14 5-12 4-13 3-12 2-12 2-13 3-12 3-12 3-11 2-11 2-12 3-12 2-14 1-6 0-2 1-2 1-1 2-2 2 0 2-1 2 1 2 0 1 1 1 2 1 2 1 1 0 2z"  fill="#005bbb" /><path d="M93-167l3-5 6-11 5-10 6-11 6-11 6-10 6-12 3-11 1-13-2-10-2-13-3-11-3-13-1-12 0-12 0-12 1-10-1-11 1-14 2-13 2-13 2-11 1-12 2-11 4-12 5-10 5-13 5-13 4-9 3-11 0-10 0-11-2-9 0 0 0 0 9-1 12 3 8 8 3 10 0 11-3 11-3 10-5 10-5 11-6 14-4 9-4 12-1 11-2 11-2 13-2 12-1 11 0 12 0 12-1 14 1 16 1 10 3 11 3 12 1 10 1 14-2 15-4 13-5 9-5 11-7 9-7 10-6 10-7 10-8 10-3 5-2 1-1 2-2 0-2 1-2-1-2 0-1-1-2-2-1-1 0-2 0-2 0-2 1-2z"  fill="#fff" /><path d="M92-164l1-8 5-16 6-15 4-15 4-16 4-18 5-18 5-17 1-16 1-15-1-13-2-12-3-9-5-13-6-12-6-10-7-10-5-9-5-11-2-12 1-11 3-10 3-11 9-8 10-2 12 0 0 0 0 0 0 7-4 11 0 10-4 10 0 11 5 10 5 9 6 11 6 13 4 10 3 11 3 12 1 13 1 16-1 16-3 19-4 18-6 17-4 17-4 18-6 16-7 14-5 14-2 7-1 2-1 2-1 1-2 1-2 0-2 0-2 0-1-1-2-1-1-1-1-2 0-2 0-2z"  fill="#fff500" /><path d="M96-155l-6-3-12-5-12-5-12-4-13-4-13-6-13-5-15-6-15-6-16-5-15-5-15-4-13-2-12-2-12-3-10-2-14-2-14-1-12-2-11-2-12-1-10 2-11 1-10-3-10-4-5-2 0 0 0 0 8-10 6-9 10-3 11 0 11-1 10 1 11 2 10 3 12 2 14 2 11 2 11 3 11 3 12 2 14 4 15 4 16 5 16 5 17 6 15 6 13 7 12 5 12 5 13 6 12 6 12 7 6 3 1 2 2 1 1 2 0 2 0 2-1 1-1 2-1 2-1 1-2 0-2 1-2-1-2 0z"  fill="#fff500" /><path d="M106-168l5 5 10 10 11 12 12 14 12 17 6 9 6 10 7 11 7 10 8 10 9 10 10 10 12 10 12 8 12 8 12 8 12 8 13 8 12 10 12 9 12 10 10 10 11 10 10 10 11 10 10 10 10 11 10 11 10 12 10 13 10 13 9 13 9 13 8 13 8 12 8 13 8 13 7 14 6 13 6 13 7 14 5 13 6 13 4 14 3 15 2 15 1 15 2 15 2 16 2 15 1 16 0 16 1 15-1 15-1 15-3 13-3 14-4 13-4 12-6 12-5 11-7 11-6 11-6 10-7 9-6 9-6 9-6 8-12 15-12 13-12 11-12 11-10 10-11 10-10 9-9 8-10 8-10 7-12 7-46 14 0 0 0 0 29-33 10-6 10-5 9-7 9-7 10-8 11-8 10-9 12-10 12-11 13-11 12-11 12-15 6-8 7-9 6-9 7-9 6-10 7-10 5-11 6-11 4-11 4-12 4-13 3-13 1-13 1-15 0-15-1-15-1-16-2-15-2-16-2-15-2-15-2-14-2-14-4-13-5-13-6-13-6-13-6-13-6-13-6-14-8-13-7-12-8-13-8-12-9-13-9-13-10-12-10-12-10-12-11-11-10-10-10-10-10-10-10-10-11-10-10-10-11-10-11-9-13-8-12-8-13-8-12-8-13-8-13-8-13-10-11-9-11-11-10-10-8-11-7-11-6-9-7-9-10-16-11-14-10-12-9-11-5-5-1-1-1-2 0-2 0-2 1-2 1-1 1-2 2-1 2 0 2 0 1 0 2 1 2 1z"  fill="#fff500" /><path d="M94-157l-5-5-12-9-11-9-12-6-14-5-15-5-18-5-18-6-10-4-18-9-9-5-16-10-15-8-18-5-10-3-11-3-12-4-11-3-12-4-13-3-13-2-14-1-14 2-14 3-15 6-17 7-17 10-16 12-15 16-15 19-16 21-15 24-15 27-14 29-13 33-13 36-14 36-15 38-16 40-16 41-19 41-20 39-21 39-20 36-22 33-20 32-20 31-19 30-18 30-17 31-16 32-13 32-14 33-11 34-12 34-11 35-12 35-14 34-15 33-15 30-16 29-17 27-15 27-15 26-14 24-14 24-13 23-13 22-12 21-12 21-10 21-10 21-9 20-9 20-8 20-7 21-6 21-5 21-5 22-5 23-6 23-5 23-29 155 0 0 0 0 27-155 5-24 6-23 5-22 6-22 4-21 6-22 7-20 8-21 9-20 9-20 10-21 10-21 12-21 12-21 13-22 13-23 14-24 14-24 15-26 16-27 16-27 16-28 16-31 14-33 14-34 12-35 11-35 12-34 12-34 13-33 14-32 15-32 18-31 18-30 19-30 19-31 21-32 21-33 21-36 20-39 20-39 19-41 16-41 16-40 15-38 14-36 13-36 12-33 15-30 15-26 14-25 16-22 15-20 14-17 16-14 17-12 16-9 16-7 16-5 16-3 16 0 15 1 14 3 12 3 12 2 11 3 11 3 11 3 10 3 11 3 18 9 15 10 16 9 17 7 17 6 18 5 17 5 15 7 15 9 12 10 11 12 5 5 1 1 1 2 0 2 0 2-1 2-1 2-1 1-2 1-2 0-1 1-2-1-2-1-2-1z"  fill="#005bbb" /><path d="M104-170l6 3 12 5 12 3 10 1 13-1 11-3 14-4 13-3 13-1 12-2 13-2 10-2 10-3 12-3 9-4 11-4 10-4 7-8 0-10 6-10 19-10 0 0 0 0 8 20 0 11-3 11-5 9-9 8-8 6-11 5-11 3-11 4-11 3-11 2-10 2-11 2-12 1-12 1-11 1-12 1-13 3-10 2-11 1-12-1-13-3-13-5-13-7-6-3-1-1-2-2-1-2 0-1 0-2 0-2 1-2 2-1 1-2 2 0 2-1 2 1 2 0z"  fill="#c2e1ff" /><path d="M92-164l1-5 0-11 0-14 0-12-3-10-4-10-6-12-7-9-7-8-8-6-10-6-10-6-10-1-12 3-11 3-12 3-12 3-11 4-9 4-11 4-9 8-28 8 0 0 0 0 6-31 10-9 10-6 13-5 11-5 11-4 12-2 11-3 11-3 12-3 10-1 11 2 10 4 10 6 8 6 10 7 8 8 8 10 6 10 5 11 4 12 4 13 1 10-1 15-3 15-2 10-1 6-1 1-1 2-1 2-1 1-2 0-2 0-2 0-2-1-1-1-2-1 0-2-1-2 0-2z"  fill="#c2e1ff" /><path d="M105-169l5 4 10 8 9 9 8 10 6 9 6 9 7 9 9 9 9 8 10 7 12 6 9 5 14 5 10 3 10 4 13 4 10 3 13 0 11 0 11-2 12-2 11 0 11 0 12 1 11-1 10-5 29-1 0 0 0 0-10 28-9 5-10 4-11 1-11 0-11 0-10-1-10 0-11 1-10 2-11 0-12-1-12-1-12-4-14-5-9-4-10-3-11-4-10-5-10-5-10-6-8-6-11-10-10-11-6-8-8-13-7-13-5-9-7-9-8-8-4-4-2-2-1-2 0-1 0-2 0-2 1-2 2-1 1-2 2 0 2 0 2 0 2 0 1 1z"  fill="#005bbb" /><path d="M93-166l4-8 9-16 10-15 6-8 7-9 7-8 8-7 8-7 9-7 8-5 18-9 16-8 15-8 12-7 10-8 9-9 10-9 10-10 11-10 10-9 9-9 9-9 8-10 10-11 9-11 8-11 8-13 9-13 8-14 9-14 9-15 11-16 12-16 7-8 8-8 8-8 9-7 11-7 12-7 14-6 16-5 17-4 18-3 19-3 18-4 18-6 18-6 19-6 18-7 18-7 18-6 18-7 17-7 17-7 17-7 15-6 16-8 14-7 14-8 13-9 13-10 12-10 13-9 12-10 11-10 11-11 10-10 11-11 9-10 69-69 0 0 0 0-61 76-10 10-11 11-11 10-11 11-12 9-12 10-13 10-13 9-13 10-13 8-15 8-15 8-16 6-16 7-16 6-17 7-17 6-18 7-18 7-18 8-19 7-18 7-18 7-18 7-18 5-18 5-17 5-15 6-15 7-11 5-10 7-9 7-16 14-6 7-12 15-10 16-9 15-9 15-8 14-9 14-8 13-9 14-10 12-9 11-9 10-10 11-10 9-10 9-10 10-11 9-11 10-10 9-12 9-13 8-15 7-15 8-17 7-15 9-15 11-14 14-12 15-10 15-10 14-4 7-1 2-2 1-1 1-2 0-2 0-2 0-2-1-1-1-1-2-1-2 0-2 1-1 0-2z"  fill="#fff500" /><path d="M107-167l4 6 9 13 8 15 7 15 3 16 1 17 1 16 3 15 4 14 6 15 8 16 9 17 10 16 13 14 16 12 9 5 18 10 17 7 19 5 10 3 18 4 16 2 16 0 16-1 15-1 13-2 11-4 10-4 12-8 8-9 2-10 0-16-2-13-2-14-3-14-2-16-1-16-1-15-2-12-3-10-5-9-6-11-7-10-8-8-8-7-5-26 0 0 0 0 25 6 8 8 9 11 8 12 6 9 4 11 5 12 3 15 2 15 1 15 1 14 2 14 3 15 3 15 1 15 0 14-4 14-8 12-10 9-11 7-12 5-13 5-15 3-16 1-16 0-17-1-18-1-19-4-19-5-10-3-10-3-10-3-10-5-10-4-10-6-10-6-9-6-9-7-8-8-8-9-7-9-6-9-9-17-8-17-7-17-5-17-3-17-1-17 0-15-2-13-4-13-6-13-8-14-4-6-1-2 0-2 0-2 1-2 1-1 1-2 1-1 2 0 2-1 2 1 2 0 2 2 1 1z"  fill="#fff" /><path d="M108-161l-1 7-3 12-4 12-4 11-5 10-8 11-9 10-10 8-10 4-10 5-11 5-11 5-12 4-11 3-10 2-12 2-11 0-11-1-9-5-6-9-2-12 0 0 0 0 11-2 10-4 11 2 10 0 10-2 11-3 10-2 10-4 12-4 10-4 10-4 9-6 8-8 7-10 5-9 4-10 4-11 2-6 1-2 1-2 1-1 2-1 2 0 2 0 2 0 2 1 1 1 1 2 1 2 0 2 0 2z"  fill="#fff500" /><path d="M108-160l-2 6-2 11 0 11 0 12 1 12 1 13-1 12 0 12-1 11-1 12-3 13-3 11-2 10-3 12-4 13-4 12-4 11-5 11-6 10-6 10-8 8-9 9-8 8-9 8-7 7-10 5-11 5-11 5-9 4-9 6-8 5-10 7-8 7-9 5-22 2 0 0 0 0 4-26 9-8 9-7 9-7 10-5 9-5 10-5 10-5 10-3 11-6 8-6 10-9 9-7 8-9 7-11 7-13 4-9 4-12 3-11 3-12 3-12 3-9 3-10 1-11 1-11 2-12 1-11 0-12 0-13 1-13 2-13 4-13 2-5 1-2 1-1 2-2 2 0 2-1 2 1 1 0 2 1 1 2 1 1 1 2 0 2 0 2z"  fill="#005bbb" /><path d="M96-170l5-3 11-6 11-6 11-6 10-6 10-6 9-5 11-6 11-5 10-3 13-3 11-2 9-5 6-12 4-12 2-12 1-12 1-12 2-10 3-12 5-11 6-10 6-10 5-10 3-12 0-12-3-9 6-28 0 0 0 0 25 21 4 13 0 13-2 12-3 10-5 12-4 8-6 10-6 10-4 10-2 12-1 11-1 13-3 15-5 12-5 9-6 11-9 8-10 5-12 3-11 1-10 1-11 3-10 4-13 7-10 5-12 5-11 5-12 4-11 5-5 3-2 0-2 1-2-1-2 0-1-1-2-2-1-1 0-2 0-2 0-2 1-2 1-1 2-2z"  fill="#005bbb" /><path d="M104-170l6 3 12 6 10 6 11 5 10 5 11 4 11 4 10 3 11 3 14 3 12 2 11 2 11 3 12 4 9 4 9 5 14 4 11 3 10 2 15 0 10 0 15-2 11-2 12-4 12-4 13-4 10-3 10-3 10-5 10-6 9-6 12-9 9-9 9-11 8-10 5-10 1-11 13-22 0 0 0 0 16 18 1 10-3 11-4 12-6 9-6 8-10 11-7 8-8 7-9 8-11 7-10 7-12 6-12 6-11 4-14 4-13 3-12 4-10 2-11 2-10 1-11 1-12 0-13-1-13-2-11-3-13-4-10-5-14-6-11-5-10-3-11-2-12-2-12-3-10-4-12-4-11-5-12-6-11-6-10-6-10-7-10-7-6-3-1-1-2-2-1-2 0-2 0-2 0-1 1-2 2-2 1-1 2 0 2-1 2 1 2 0z"  fill="#fff" /><path d="M104-155l-5 3-8 6-9 10-6 10-3 12-1 12 0 12 1 11 1 11 0 13 0 12-1 13-1 12-1 12-1 12-2 13-3 14-1 11 2 13 4 12 3 10 7 9 9 9 9 7 9 6 15 5 12 2 12 2 15 1 14 2 13 2 12 2 11 1 10 1 14 1 29 16 0 0 0 0-41 10-15-2-11-1-12-1-14-2-13-2-13-1-15-1-15-3-15-4-13-7-12-7-10-9-8-8-8-10-5-11-4-14-4-12-1-11 0-11 1-11 3-13 1-11 2-12 1-11 1-13 2-11 0-12 1-10-1-11 0-12 1-14 2-15 3-11 5-9 6-8 8-8 9-8 11-5 5-3 2 0 2-1 2 1 2 0 1 2 2 1 0 2 1 2 0 1-1 2 0 2-2 1-1 2z"  fill="#fff500" /><path d="M96-156l-6-3-12-5-12-5-11-3-12-2-12-2-10 0-12 1-11 5-8 7-8 8-7 7 1 10 0 10 2 9 0 1 0 0-12 0-11-3-7-7-4-11 1-12 3-10 6-8 9-7 8-6 8-6 9-6 13-4 10-2 11 0 12 2 14 2 13 4 13 5 13 6 12 8 5 4 2 1 1 1 1 2 0 2 0 2-1 2-1 2-1 1-2 1-2 1-2 0-2-1-1-1z"  fill="#fff" /><path d="M108-160l-2 7-5 13-4 14-5 14-5 13-5 15-6 13-6 15-9 15-9 14-8 13-8 13-7 13-4 11 0 12 3 10 7 12 9 13 13 15 15 13 17 9 17 5 20 2 10 0 12-1 11 0 12-1 11-1 11-2 11-1 12-2 12-1 14-1 14 0 15 2 14 3 15 6 13 7 14 10 13 11 14 13 13 14 13 16 12 18 13 18 11 19 10 21 8 22 7 22 8 24 8 24 9 24 12 25 11 26 12 26 11 25 12 24 13 22 13 21 14 18 15 18 15 16 14 15 15 14 15 13 16 11 16 8 16 7 17 6 17 5 18 4 17 3 122 4 0 0 0 0-122 1-18-3-18-4-17-6-17-6-16-8-16-9-16-11-16-13-14-14-15-16-15-16-14-18-15-18-13-21-13-22-12-24-11-26-12-25-11-26-12-25-9-24-8-24-8-24-8-22-8-21-10-21-12-18-13-18-13-16-14-15-14-13-14-11-13-9-13-8-13-7-12-4-13-3-13-1-13 1-13 1-12 2-11 2-11 1-12 2-12 1-11 1-12 2-12 0-12 1-12 0-11-2-11-3-11-3-10-5-11-6-10-7-8-8-8-7-7-8-12-16-9-16-4-18 1-18 6-17 8-13 8-13 8-14 10-14 7-12 6-13 6-14 6-13 5-14 6-13 6-14 6-12 2-6 1-2 1-1 2-2 2 0 2-1 2 1 2 0 1 1 1 2 1 1 1 2 0 2 0 2z"  fill="#fff" /><path d="M108-163l1 6 2 12 2 11 4 13 4 14 0 13 0 12 0 13-1 13-2 12-2 11-4 11-4 10-1 11-1 10-5 10-4 11-4 9-7 8-11 13 0 0 0 0-10-12-6-8 2-11 5-8 4-11 6-9 1-11 3-10 3-9 5-10 4-11 2-10 1-10 1-12 1-13 1-13-2-13-2-10-1-12-1-12 0-7 0-2 1-2 1-1 1-2 2-1 1 0 2 0 2 0 2 1 2 1 1 1 1 2 0 2z"  fill="#fff500" /><path d="M95-168l4-5 8-7 8-7 12-7 12-6 12-4 10-4 10-6 9-8 5-9 3-11-2-11-6-10-9-7-9-5-11-4-13 0-10 4-9 5-11 7-8 8-6 8-6 11-5 12-3 11-3 12-1 13 0 14 3 14 2 15 4 17 3 16 3 15 3 16 1 16-23 49 0 0 0 0-2-44 1-11-2-13-3-15-4-16-3-16-4-17-3-15-2-17 0-17 2-16 4-15 5-13 6-13 8-14 10-12 13-11 12-8 13-6 12-3 13-1 11 2 10 3 10 4 10 6 9 8 8 8 6 10 4 11 1 11-1 10-4 13-6 13-10 11-10 7-13 7-12 3-10 3-11 3-10 4-12 6-8 6-5 3-1 1-2 1-2 0-2 0-2-1-1-1-1-1-1-2-1-2 0-2 1-1 1-2 1-1z"  fill="#005bbb" /><path d="M105-156l-5 4-8 9-6 9-5 10-4 11-2 10-2 14-1 13 0 14-1 13 0 14 3 11 5 10 6 10 6 8 8 8 10 5 12 3 10 1 11 2 10-3 10 2 9 3 7 7 0 0 0 0-9 10-7 8-10 3-12 1-11-1-11-3-13-2-12-5-9-6-10-8-9-11-7-11-6-13-4-10-3-11-1-12 0-11 1-10 2-13 1-14 2-11 3-11 4-12 5-13 8-12 9-11 11-8 5-4 2-1 2 0 2-1 2 1 1 1 2 1 1 1 1 2 0 2 0 2-1 2-1 2-1 1z"  fill="#fff" /><path d="M92-162l-1-6-1-12-3-11-3-13-5-10-6-9-7-11-9-11-6-11-5-10-7-11-7-8-10-9-9-8-11-7-11-6-9-6-10-8-8-7-9-4-8-7-6-10 0 0 0 0 13-6 9-6 11 3 9 5 8 8 8 7 8 6 10 7 10 6 11 10 10 9 7 7 7 9 6 10 5 10 6 12 6 8 5 9 6 12 6 12 4 14 1 11 1 12 0 13 0 6 0 2-1 2-1 2-1 1-2 1-2 0-2 1-1-1-2-1-2-1-1-1-1-2 0-2z"  fill="#005bbb" /><path d="M99-155l-6 1-13-2-15-2-14-3-13-1-13 0-13 1-13 1-10 1-13 3-13 5-10 2-14 4-12 5-9 4-10 4-12 5-12 5-8 8-7 8-6 8-3 10-5 10-4 11-6 9-23 7 0 0 0 0-1-15-2-10 4-9 5-11 5-11 4-9 7-8 8-8 7-7 9-6 11-6 11-4 13-4 13-6 11-5 11-3 14-2 13-4 10-2 11-2 12-1 13 0 14 0 15 0 16 3 14 3 13 4 12 3 6 1 2 0 1 1 2 1 1 2 1 1 0 2 0 2-1 2-1 2-1 1-2 1-2 1-2-1z"  fill="#fff" /><path d="M94-167l3-6 6-10 4-9 4-9 4-10 5-14 3-13 4-13 0-11-2-11-6-9-8-8-10-7-11-8-10-6-9-5-11-2-10 2-11 5-9 4-11 4-10 5-9 6-10 7-9 5-12 3-11-5-11-16 0 0 0 0 20-12 10-5 9-6 8-6 11-5 11-3 10-4 10-4 11-4 13 0 13 2 13 4 13 8 11 7 11 9 8 6 8 7 7 9 5 10 3 11 2 13-2 11-4 15-5 14-4 10-4 9-5 9-5 10-6 10-8 11-5 4-1 2-2 1-2 0-2 0-1 0-2-1-2-1-1-1-1-2 0-2 0-2 1-2 1-1z"  fill="#c2e1ff" /><path d="M99-154l-7-1-15 0-13-1-14-2-12-2-12-2-11-3-11-3-10-3-11-5-10-4-10-5-12-4-12-3-11-1-13 2-11 3-10 2-8 5-11 5-12 2-11 1-9 4-12 0-16-1 0 0 0 0 5-21 10-8 10-4 10-3 11 0 10-2 10-5 11-3 12-2 13-2 11-1 13 1 13 4 10 3 11 5 10 5 9 5 13 5 14 6 10 3 12 3 11 3 12 2 13 2 15 2 7 1 2 1 1 1 2 1 1 2 1 1 0 2 0 2-1 2-1 2-1 1-2 1-2 0-2 1z"  fill="#c2e1ff" /><path d="M94-167l3-6 5-11 4-12 4-14 5-15 4-17 4-17 5-17 4-14 3-15 5-16 7-17 9-17 9-16 11-15 7-9 7-7 7-8 14-14 6-8 7-8 6-9 8-9 6-9 7-8 6-9 9-17 8-15 7-14 9-13 8-10 7-8 7-8 9-8 11-6 12-4 11-2 11-2 10-2 14-2 11-2 11-2 10-3 7-7-6-10-3-30 0 0 0 0 28 14 7 11 3 11 0 11-4 10-7 9-13 7-12 4-12 2-13 2-13 1-14 2-10 1-14 3-11 4-9 8-7 7-8 8-8 9-7 11-8 15-10 17-5 9-7 9-6 9-7 9-7 9-6 9-7 9-7 8-6 8-14 15-12 14-10 15-9 15-7 14-6 16-5 14-4 16-4 15-5 15-4 18-5 17-5 16-5 13-6 14-8 13-5 5-1 2-1 1-2 0-2 1-2-1-2 0-1-2-2-1-1-2 0-2 0-2 0-1 1-2z"  fill="#fff" /><path d="M93-158l-4-6-7-9-8-8-9-8-12-10-12-7-12-6-11-5-9-3-14 1-10 3-10 5-9 5-11 9-7 10-8 12-5 9-7 9-6 9-8 9-7 8-7 8-7 10-8 11-7 11-6 11-3 12 0 13 2 11 2 11-1 10 8 7 0 0 0 0-10 7-11 1-10-5-4-10-3-10-2-13 0-12 0-14 2-11 4-10 8-13 8-12 7-11 7-9 7-8 7-8 10-11 9-12 8-12 6-9 6-9 9-10 9-8 12-7 12-5 13-5 15-2 15 1 14 4 12 7 13 7 13 10 12 10 11 11 8 11 7 11 3 5 1 2 0 2 0 2-1 2-1 1-1 2-2 1-2 0-2 0-1 0-2-1-2-1-1-1z"  fill="#fff" /><path d="M106-168l4 4 8 11 6 10 6 13 5 12 6 11 7 13 7 11 7 11 7 8 11 9 10 7 11 5 11 6 11 5 11 6 8 7 9 6 11 4 14 6 9 5 10 5 8 6 12 8 7 7 7 7 5 12 3 13 1 10 3 10 6 9 10 4 11 2 28 14 0 0 0 0-24 17-14 0-13-3-10-4-11-10-8-9-5-12-3-11-1-13-3-12-7-7-11-8-11-7-11-6-11-5-14-5-11-8-11-9-10-6-11-6-11-6-9-5-9-6-8-7-8-9-8-11-8-11-7-13-7-13-7-14-4-13-4-11-4-10-5-9-3-4-1-2-1-2 0-2 0-2 1-1 1-2 2-1 1-1 2 0 2 0 2 0 2 1 1 1z"  fill="#fff500" /><path d="M108-160l-1 5-3 11-3 11-1 12-2 14-2 14-4 13-4 11-3 10-4 10-6 13-4 10-6 9-7 12-6 10-4 11-2 12-2 11 0 12 2 11 2 12 1 11 1 11 1 11 2 10-4 10 2 10 0 0 0 0-10 1-10-4-9-6-2-10-2-10 0-11-1-11 0-11-2-11-1-11 0-13 2-12 3-12 3-12 6-13 7-12 8-10 6-11 7-14 6-12 4-9 4-10 4-11 3-13 2-13 3-13 4-13 4-10 2-5 1-2 1-1 2-1 2-1 1 0 2 0 2 0 2 1 1 2 1 1 1 2 0 2 0 2z"  fill="#005bbb" /><path d="M107-159l-2 5-3 12-1 10 0 11 1 14 1 12 1 12 1 10 1 12 0 11 1 10-3 12-3 11-2 11-3 12-5 9-8 9-9 5-9 7-7 8-7 10-7 8-6 10-8 12-6 12-7 11-5 10-32 28 0 0 0 0 5-37 5-9 5-11 6-12 7-13 7-13 7-11 6-9 9-11 7-7 9-8 10-5 5-9 3-11 3-11 4-9 1-11 0-11 0-12 0-11 0-12 0-14 1-11 1-12 4-13 5-12 3-6 1-1 1-2 2-1 1 0 2-1 2 1 2 1 2 1 1 1 1 2 0 2 0 2-1 2z"  fill="#c2e1ff" /><path d="M98-170l6-3 12-4 13-5 13-4 12-4 12-3 11-3 12-4 11-5 10-4 10-8 11-6 11-7 13-8 12-7 8-5 10-5 13-7 13-8 10-9 7-8 9-9 9-13 10-14 10-16 6-18 3-19-2-19-3-11-4-11-5-12-6-12-7-13-8-12-9-13-9-12-10-13-9-13-10-13-10-12-11-11-11-10-11-9-11-9-12-7-11-6-12-5-11-4-13-3-13-2-13-3-13-4-14-5-13-5-82-50 0 0 0 0 87 38 12 5 13 4 13 4 13 3 13 3 13 3 13 5 13 5 12 7 12 9 11 9 11 9 11 11 11 11 11 12 11 13 10 13 10 12 10 12 10 12 10 13 8 13 8 13 6 12 5 12 4 13 2 12 1 12 0 13-2 11-3 12-3 11-5 10-5 9-5 9-10 14-9 13-8 10-9 9-11 9-10 6-13 7-9 5-12 7-9 5-12 6-10 7-12 6-10 6-12 6-12 5-13 3-10 3-11 2-11 2-13 3-12 3-14 4-12 3-7 1-2 1-1 0-2-1-2-1-1-1-1-2-1-2 0-2 0-2 1-2 1-1 2-1 1-1z"  fill="#005bbb" /><path d="M98-155l-8-2-16-5-16-7-16-10-14-10-13-8-13-9-12-10-11-9-10-9-9-8-8-8-10-8-10-7-8-7-8-8-7-9-6-8-5-9-3-10-2-11-1-12-1-10 0-11 4-10 15-7 0 0 0 0 2 12 9 5 3 10 0 12 0 11 2 10 5 10 6 8 6 8 8 8 10 8 8 8 7 7 9 9 10 9 9 9 11 10 12 8 13 10 14 10 12 9 14 7 15 6 7 3 2 1 2 1 1 1 1 2 0 2 0 2-1 2-1 1-1 2-2 1-2 0-2 0-1 0z"  fill="#fff500" /><path d="M99-155l-8-1-18-3-20-4-10-2-10-2-20 0-12 1-11 0-12 1-11 1-13 1-11 0-12 1-12 0-12 0-12-1-11-1-11-1-11-1-10-2-18-3-18-3-17-4-18-6-10-5-9-4-9-5-17-10-9-5-10-7-10-7-11-8-12-8-11-7-12-7-13-7-14-8-13-8-14-7-15-8-15-7-15-5-16-3-15-2-15 1-15 2-15 2-15 4-16 5-16 7-17 8-15 10-15 10-15 9-14 10-14 10-12 11-12 11-11 10-11 10-11 9-9 9-9 9-9 8-8 7-7 8-14 14-12 12-12 10-10 10-11 8-8 7-10 10-9 10-7 9-26 12 0 0 0 0 7-28 8-9 10-10 9-8 9-7 10-7 11-7 11-8 13-10 14-12 7-7 9-6 8-7 9-8 10-8 10-8 11-9 11-9 12-10 12-10 13-11 14-10 15-10 14-10 15-10 16-10 16-9 17-8 16-6 16-4 16-3 16-2 16 0 16 1 17 4 16 5 16 6 15 7 15 7 14 7 14 7 13 6 13 7 13 7 12 7 11 7 10 6 10 6 9 5 9 5 17 10 16 8 16 5 17 5 16 4 18 4 19 3 11 1 11 1 11 0 12 0 11 0 12 0 12-1 11 0 12-1 12-2 12 0 11-1 12 0 12 0 11 2 11 2 19 6 16 4 8 1 2 1 1 0 2 2 1 1 0 2 0 2 0 1 0 2-1 2-2 1-1 1-2 0-2 0z"  fill="#fff500" /><path d="M97-155l-5-1-14-3-14-2-12-3-10-2-11-2-12-4-9-6-11-7-10-7-10 0-10 3-9 5-10 4-9 3-11-1-8-7-8-1 0 0 0 0 8-15 9-6 10-3 9-4 10-4 11-3 11-1 11 1 10 5 9 5 9 8 10 8 9 4 11 3 11 4 12 4 13 4 11 4 5 2 1 1 2 1 1 2 1 2 0 1 0 2-1 2-1 2-2 1-1 1-2 0-2 0-2 0z"  fill="#fff500" /><path d="M108-164l2 6 3 12 4 11 5 9 6 8 8 8 8 9 8 10 6 11 6 11 3 13 2 11 2 14 4 13 5 11 6 11 6 9 6 9 5 11 4 11 3 11 3 11 2 10 1 12 0 13-1 12-2 11-3 12-4 10-5 14-5 10-4 13-4 10-4 14-4 12-4 14-5 13-3 13-3 10-2 10-20 25 0 0 0 0-9-31 2-11 4-12 4-12 3-10 4-12 2-10 5-14 5-13 3-9 4-11 6-14 5-13 4-13 3-15 0-13-2-15-3-14-4-14-6-12-7-13-6-8-5-10-4-10-4-10-2-10-2-11-1-15-3-13-7-13-6-9-7-9-8-10-7-11-6-12-3-14-2-13-1-6 0-2 0-2 1-2 1-1 2-1 2-1 1 0 2 0 2 0 2 1 1 1 1 2 1 2z"  fill="#c2e1ff" /><path d="M108-165l3 7 5 15 7 16 6 17 5 19 1 11-1 11-1 12-4 11-4 12-7 12-8 11-8 12-8 12-8 13-9 13-8 15-9 16-8 17-6 18-4 20-4 21-4 24-5 24-3 24-5 27-6 27-6 27-8 28-8 28-10 28-11 28-13 29-16 29-19 26-21 25-24 21-23 20-25 17-24 14-24 11-23 9-22 7-23 5-21 4-21 3-21 3-20 3-20 3-19 2-19 3-19 4-19 3-19 4-17 3-17 4-16 5-16 6-13 6-13 6-13 6-12 6-11 7-10 6-9 6-9 6-7 7-13 13-8 13-6 12-3 11-2 14 2 12 4 10 6 8 8 6 21 24 0 0 0 0-39-5-9-8-7-11-5-10-2-11-1-11 2-12 3-12 5-13 8-13 12-15 7-7 8-6 9-7 9-6 11-5 10-6 12-5 12-6 13-5 14-5 15-6 15-5 17-4 17-4 18-3 18-3 19-3 19-3 20-3 19-2 20-3 20-3 20-2 21-4 22-4 22-5 22-7 23-9 24-10 24-15 25-17 23-19 23-22 21-24 19-26 16-29 13-29 11-28 10-28 8-28 7-27 7-28 6-27 4-26 3-25 4-24 3-24 3-21 4-21 5-19 6-18 7-18 8-16 7-14 8-14 7-12 7-12 7-11 5-10 3-10 4-19 0-17-3-17-6-16-6-17-4-15-2-8-1-2 0-2 1-2 1-1 1-2 2-1 1 0 2 0 2 0 2 1 1 1 2 1 1 2z"  fill="#fff500" /><path d="M105-169l5 4 11 8 11 7 11 7 12 6 12 5 11 6 10 6 12 6 10 6 10 3 12 2 11 0 11 0 14 2 16 2 18 5 17 2 19 2 11 0 11 0 10-1 12-1 12-3 11-3 12-3 12-5 12-5 13-6 12-6 12-6 11-6 10-6 10-6 10-6 11-6 10-5 9-4 10-4 17-7 16-5 13-5 13-4 12-4 13-5 8-6 7-8 7-7 9-10 9-6 27 3 0 0 0 0-13 21-8 6-7 7-9 8-11 8-10 5-11 4-11 3-12 3-13 3-15 4-16 5-18 6-10 4-9 4-10 5-10 6-10 6-10 6-12 7-12 6-12 6-13 7-13 6-12 6-13 5-12 3-12 4-13 2-12 2-12 1-11 0-11 0-10 0-10-1-10-1-17-3-15-2-16-1-15 0-10-1-13-4-12-5-12-7-12-8-8-6-10-5-12-7-13-7-12-8-11-10-9-9-5-4-2-2 0-1-1-2 0-2 0-2 1-2 1-1 2-2 2 0 2-1 2 1 1 0 2 1z"  fill="#fff500" /><path d="M95-169l5-5 11-11 9-12 9-13 10-13 9-13 8-11 7-12 5-12 3-12 0-13-1-16-1-17 0-19 1-18 0-17 0-17 1-20 1-10 0-10 1-10 0-20-1-19-1-10-3-21-2-10-1-12 0-13-1-13-2-13-2-15-1-17-3-18-3-19-3-19-1-20-1-19 0-19 0-19 1-18 0-19 0-19-1-18-2-18-2-17-5-18-6-17-7-16-10-15-13-15-15-13-15-13-16-12-16-11-14-13-15-11-15-13-15-12-15-12-15-11-16-9-15-9-15-7-15-5-14-5-15-4-16-5-17-5-17-8-19-9-19-10-18-13-17-15-15-15-103-109 0 0 0 0 105 107 15 15 17 14 19 12 19 9 19 8 17 7 16 5 16 5 15 5 15 5 15 6 14 8 16 9 15 10 15 11 16 12 15 13 14 12 15 12 14 12 16 12 16 12 16 12 15 13 14 15 10 16 8 17 7 17 4 18 2 18 2 18 0 18 1 19 0 19-1 18 0 19 1 19 2 19 2 19 4 18 5 19 5 18 4 16 3 15 3 15 2 13 1 12 1 11 2 11 1 10 2 10 1 10 1 11 1 10 0 11 0 11 0 10-1 20 0 18 0 18 0 19-1 17 0 17 2 17 0 16 0 17-4 17-7 16-9 13-9 12-10 11-9 13-11 13-11 13-13 11-6 5-1 1-2 0-2 1-2-1-2 0-1-2-2-1 0-2-1-2 0-2 1-1 1-2 1-2z"  fill="#005bbb" /><path d="M92-164l1-7 2-13 0-13-1-12-2-10-6-13-8-8-11-7-15-4-14-2-16-2-17-3-16-2-16-3-15-1-16-2-17-2-16-1-18-1-19 0-17 2-16 5-14 6-13 7-11 7-11 7-12 6-10 5-10 5-10 6-10 4-11 4-11 2-12 3-10 4-8 7-3 11-1 11-13 21 0 0 0 0-17-27 2-13 3-10 5-10 9-9 10-5 12-6 9-2 14-2 12-3 14-5 9-5 11-6 11-4 10-5 12-7 13-8 15-7 18-6 10-3 11-1 10-1 19-1 19 0 18 2 17 1 15 2 17 1 16 3 16 2 16 2 16 2 16 2 15 4 12 6 10 8 9 10 7 12 4 13 1 14 0 13-2 14-3 14-2 7-1 2-1 2-1 1-2 1-2 0-2 1-2-1-1-1-2-1-1-1-1-2 0-2 0-2z"  fill="#005bbb" /><path d="M107-165l3 6 5 12 9 12 12 13 7 8 7 8 7 8 6 8 6 8 12 15 13 14 13 12 15 12 8 7 16 12 8 7 8 6 8 7 9 6 9 6 17 9 17 5 17 1 16-1 13-5 11-6 10-9 10-10 10-12 11-13 10-12 9-12 8-12 6-13 7-12 6-11 7-11 5-9 6-13 7-13 5-11 6-11 7-12 8-9 8-9 9-9 6-10 26-11 0 0 0 0-1 28-6 8-8 9-8 9-9 9-7 10-7 11-6 11-6 12-5 9-6 10-6 10-7 10-6 11-7 12-9 14-9 13-10 13-11 12-11 13-11 12-13 12-14 9-16 6-19 3-10 0-10-1-11-1-10-3-10-4-10-5-10-5-9-6-9-6-9-7-9-7-8-6-8-7-8-6-15-12-8-6-8-7-7-8-13-15-13-15-11-16-6-7-7-8-7-8-7-7-6-8-10-16-5-14-1-6-1-2 0-2 1-2 1-1 1-2 2-1 2 0 2 0 1 0 2 1 2 1 1 2 0 1z"  fill="#005bbb" /><path d="M108-161l-1 8-4 16-5 17-6 15-7 13-8 13-9 13-10 11-10 10-10 9-11 6-10 5-13 6-12 5-14 5-11 3-11 3-13 1-13 0-12-1-10 0-11 0-10 3-6 8-7 9-10 4-10 2-12-3 0 0 0 0 5-13 2-11 6-8 7-7 9-9 12-4 12-2 11 1 12 0 12 1 11 2 12-1 11-3 11-2 11-4 13-5 12-5 12-6 9-6 9-8 9-10 8-11 8-12 8-12 6-12 5-14 5-16 2-7 1-2 1-2 1-1 2-1 2-1 2 0 2 1 1 1 2 1 1 2 1 1 0 2 0 2z"  fill="#c2e1ff" /><path d="M93-167l4-6 9-13 12-12 13-11 16-10 18-9 17-8 15-10 14-10 12-10 10-10 9-10 9-10 9-9 8-9 7-10 6-9 6-11 5-10 4-9 3-12 3-13 1-13 0-14 0-11 0-12 2-11 3-11 5-12 5-14 7-13 8-12 7-11 4-11 3-13 2-12 0-11-1-12-1-12 10-32 0 0 0 0 19 30 1 11 1 13 1 11-1 10-2 10-3 10-3 11-5 12-6 9-7 11-6 10-5 10-5 13-3 10-2 13-1 15 1 11-1 11-1 11-4 15-3 10-5 10-5 11-6 11-7 12-9 11-9 10-9 9-9 9-10 9-10 10-12 11-14 11-17 11-8 5-10 5-9 4-15 8-15 8-12 9-11 10-9 10-4 6-2 1-1 2-2 0-2 0-2 0-2 0-1-2-2-1 0-2-1-2 0-1 1-2 0-2z"  fill="#fff500" /><path d="M93-167l4-6 8-13 7-13 5-13 3-13 2-16 2-19 1-10 2-12 2-12 2-13 3-13 2-13 2-14 2-14 2-17 3-18 6-18 6-19 6-21 5-22 6-22 7-23 8-24 7-24 7-25 7-24 6-24 5-25 7-25 5-24 5-25 3-25 3-24 1-24-2-23-5-22-8-21-10-19-12-18-13-17-14-17-16-15-18-16-19-14-19-14-20-12-19-10-19-8-20-6-20-5-22-2-21 0-22 1-22 2-23 1-22 1-23-1-23-1-24 0-23 0-24 0-24 0-24 0-23 0-23-1-22-1-22-1-22-1-22-1-22-1-23-4-23-2-23-3-23-3-23-3-24-5-24-6-26-4-27-4-28-2-29-3-29-3-30-4-30-4-30-4-30-6-30-8-200-69 0 0 0 0 201 67 29 8 31 6 30 4 29 4 30 4 29 3 29 3 29 3 26 3 26 4 25 6 23 5 23 3 23 3 23 3 23 2 23 4 23 1 21 1 22 1 22 1 22 1 23 1 23 0 24 0 24 0 24 0 24 0 23 0 23 1 23 1 22-1 22-1 23-2 22-1 21 0 22 2 21 5 19 6 20 8 19 10 20 12 20 14 19 15 17 15 17 16 14 17 13 17 12 18 10 19 8 21 5 23 2 23-1 24-3 24-3 25-5 25-5 25-6 25-6 25-6 24-6 24-8 24-6 25-7 24-7 23-5 23-5 22-4 21-4 19-3 18-2 17 0 17-1 15-1 14-1 14-2 14-2 12-1 11-1 11-1 11-1 20-3 17-5 17-7 15-9 13-9 12-4 6-2 1-1 1-2 1-2 0-2 0-2 0-1-1-2-2 0-2-1-1 0-2 0-2 1-2z"  fill="#fff500" /><path d="M97-155l-8-3-16-4-17-3-18-1-21 1-11 0-12 0-11 0-11 0-12 1-11 2-12 3-11 3-12 4-10 5-11 5-10 6-9 6-10 6-9 6-9 6-9 6-16 11-14 11-11 10-11 10-10 9-10 8-10 7-10 6-9 5-12 5-9 5-12 5-12 3-12 2-12 0-11 1-12 2-13 6-9 7-9 9-9 11-6 8-6 9-6 11-37 37 0 0 0 0 12-50 6-13 7-11 7-10 7-9 11-11 8-7 10-7 9-5 10-4 13-3 12-1 12 1 10 0 11-2 11-4 9-3 11-4 13-6 9-5 10-7 9-7 11-8 12-10 14-10 16-11 8-6 10-6 9-5 9-6 10-6 10-7 11-5 11-6 11-5 13-5 12-4 13-3 12-2 13-2 12-1 11 0 11 0 11 0 11-1 11 0 21 2 19 4 17 6 8 3 1 1 2 1 1 2 0 2 1 1-1 2 0 2-1 1-2 2-1 1-2 0-2 0-2 0z"  fill="#fff" /><path d="M106-168l4 4 10 10 8 13 5 16 4 17 2 19-2 20-2 11-4 10-5 10-6 9-6 9-6 8-8 9-8 8-9 8-9 8-9 8-9 9-8 10-7 10-6 10-6 11-4 11-3 11-4 12-3 13-2 13-3 14-4 15-3 15-2 16-1 15-1 15 0 15 0 15 0 15 0 15 0 14 1 14 0 13 2 14 1 13 1 13 2 12 1 12 2 11 1 11 1 11 0 11 1 11 0 11 1 11 1 11 1 12 1 12 0 12 0 12 1 12 0 12-1 12-2 12-2 11-4 12-4 10-4 11-5 10-5 12-7 11-7 11-7 11-9 11-10 11-9 10-10 11-10 11-10 11-10 12-10 12-11 12-10 12-10 12-9 11-8 11-7 11-6 10-6 10-46 65 0-1 0 1 34-72 7-10 7-10 8-11 9-11 9-11 10-12 10-12 10-12 9-13 10-12 10-12 9-12 10-11 9-10 8-11 8-10 7-11 6-10 6-11 5-11 5-10 4-10 4-10 3-10 3-10 1-10 1-11 0-12 0-12-1-11 0-12-1-12-1-12-1-11 0-12-1-11 0-11 0-10 0-11-1-11-1-11-1-12-1-12 0-13-2-13-1-14 0-14 0-14 0-15 0-14 0-15 0-15 0-15 0-16 1-16 1-16 3-16 3-15 2-14 2-14 3-13 3-12 4-13 5-12 5-12 7-12 8-11 8-11 9-10 9-9 9-9 8-8 13-14 11-16 9-15 5-16 2-17-2-16-2-15-4-13-5-10-7-10-4-5-1-2-1-1 0-2 0-2 1-2 1-2 1-1 2-1 2 0 2-1 2 1 1 1 2 1z"  fill="#c2e1ff" /><path d="M96-169l5-4 10-6 10-10 8-10 6-11 1-12-9-9-12-5-13-3-11-1-11 0-11 0-12 0-11 0-11 0-12 0-13-1-11-1-11-2-13-3-11-2-10-3-10-3-10 0-10 4-11 0-12 3 0 0 0 0-2-8 2-10 4-10 11-5 10-4 13-1 11 2 10 3 12 4 10 3 12 3 14 2 10 1 11 1 11 0 12-1 10 1 12-1 13 0 13 2 13 1 12 4 11 4 10 7 9 9 6 13 0 12-2 10-6 13-7 9-7 7-9 7-10 7-10 5-6 2-2 1-2 0-2 0-1 0-2-1-1-2-1-1-1-2 0-2 0-2 1-2 2-1 1-1z"  fill="#fff500" /><path d="M102-170l7 0 14 2 15 2 15 3 14 4 14 3 15 3 15 4 15 4 14 4 12 4 11 2 15 2 14 1 14 1 11 2 13 3 12 3 9 5 10 5 12 1 11 1 11 0 11 2 12 3 10 2 10 2 11 3 10 2 11 3 25 25 0 0 0 0-37 5-12-3-10-2-13-3-11-3-11-3-10-2-13-1-11-1-10-1-11-4-9-5-10-5-10-4-12-2-11-2-14-2-12-1-11-3-12-4-12-4-13-4-15-4-15-4-14-4-14-4-14-4-13-4-15-3-15-3-7-2-1 0-2-1-1-2-1-1-1-2 0-2 0-2 1-2 1-1 2-1 2-1 2-1 2 1z"  fill="#fff500" /><path d="M108-162l0 6 0 10 0 11-1 14-1 15-1 11-2 10-4 13-4 12-4 10-5 10-7 9-8 8-8 9-8 7-9 6-7 7-6 10-7 10-10 10-11 8-10 4-12 3-14 0-11-2-10-3-12-7-11-8-7-8-1-11 4-16 0 0 0 0 14 7 11 5 8 6 11 5 12 0 9-2 11-6 7-9 5-9 7-9 8-7 10-6 9-7 8-7 7-8 7-8 5-11 5-10 4-11 3-13 3-14 2-15 3-14 1-11 1-5 0-2 1-2 1-1 2-1 2-1 2 0 2 0 1 0 2 1 1 2 1 1 1 2 0 2z"  fill="#c2e1ff" /><path d="M96-170l6-3 9-7 8-7 5-9 5-9 2-14-2-11-3-14-5-14-7-17-7-18-4-10-4-10-5-10-6-11-6-10-7-11-7-10-9-11-8-10-9-10-10-9-10-8-12-8-12-6-13-6-14-6-14-4-15-3-17-3-16-3-17-2-15-3-15-2-15-2-13-1-14-1-12-1-12-2-12-1-11-3-11-3-11-3-10-3-10-3-10-3-19-4-18-2-15 0-15 4-16 5-15 6-15 7-12 9-12 9-12 10-12 10-12 9-10 8-10 6-11 6-12 4-10 4-11 3-42 1 0 0 0 0 35-26 10-3 10-3 14-5 9-5 9-5 11-7 12-9 12-10 13-10 14-10 15-8 17-8 18-6 18-4 18-1 19 2 9 2 10 3 10 2 10 4 10 3 11 3 10 4 10 4 10 2 11 3 12 2 12 2 14 1 14 2 14 2 15 3 16 2 16 3 17 2 17 2 16 3 16 4 14 5 14 6 13 6 13 8 13 8 10 10 10 10 9 11 9 10 9 11 8 11 7 11 7 11 6 10 5 11 4 9 5 9 7 18 7 17 5 17 3 16-1 15-4 14-7 12-9 11-12 9-12 6-5 3-2 0-2 1-2-1-2 0-1-1-2-2-1-2 0-2 0-2 0-1 1-2 2-2 1-1z"  fill="#fff" /><path d="M95-156l-6-4-11-7-12-7-12-7-14-6-16-7-19-9-9-4-11-5-12-5-13-7-13-7-14-7-14-7-16-6-16-4-16-3-17-2-17-2-18-1-18-2-18-1-19-2-18-1-20-1-19 1-19 2-20 2-19 2-19 1-18 2-17 2-16 1-17 1-17 0-16 0-17 0-17 1-16 0-16 1-16 1-16 2-16 3-16 3-15 5-15 5-15 6-14 7-14 7-14 7-14 7-15 9-15 9-14 10-14 11-13 12-13 12-13 13-12 14-11 15-11 17-11 18-10 20-9 20-8 20-9 20-9 20-8 18-8 17-7 17-7 15-7 16-7 15-7 15-6 14-4 14-4 14-3 13-1 13 1 13 1 13 4 12 5 13 6 13 6 15 6 17 5 17 5 19 27 130 0 0 0 0-35-128-5-18-6-16-7-16-7-15-6-14-5-14-4-14-1-14 0-14 2-14 3-13 5-15 6-14 7-14 7-15 7-14 8-15 8-16 8-16 8-17 8-18 9-19 8-21 9-20 8-21 10-19 10-19 11-18 11-16 12-14 12-14 13-12 14-13 14-11 14-11 15-10 15-8 14-8 14-8 14-7 15-6 15-6 15-5 17-5 16-3 16-3 17-2 16-1 16 0 16 0 17-1 17 0 16 0 17 0 16 0 17 0 17-1 18-1 18-2 20-2 19-2 20-3 19-1 20 0 19 1 18 1 18 1 19 1 18 1 17 0 17 2 18 2 17 4 17 4 15 6 15 6 14 6 13 5 12 4 11 5 10 4 18 8 16 7 16 8 13 8 12 8 11 9 5 5 1 2 1 1 1 2 0 2 0 2-1 2-1 1-2 1-2 1-2 0-2 0-1 0-2-1z"  fill="#005bbb" /><path d="M94-158l-5-5-12-12-12-9-15-9-16-9-16-7-15-7-15-4-16-3-17-2-16-1-15 0-14 0-12 0-12 0-12 1-10 4-8 7-5 8-4 10-2 11-7 7-1 9 0 0 0 0-6-1-9-6-6-9 0-10 3-10 4-10 5-9 7-8 9-8 9-6 13-3 10-2 11 1 11 0 13 1 14 0 16 1 17 2 17 2 18 3 18 6 16 7 16 8 17 10 16 10 14 13 12 13 4 6 1 2 1 2 0 2 0 2-1 1-1 2-2 1-1 1-2 0-2 0-2 0-2-1-1-2z"  fill="#fff500" /><path d="M93-167l3-5 3-10 3-11 3-11 2-10 1-14 0-12-2-13-2-12 0-13 0-11 0-11 0-11 2-11 7-7 2-9 0 0 0 0 9 2 8 7 4 10-1 10-2 10 0 10-2 11 0 10 1 12 1 12-1 13-1 10-3 11-3 12-4 11-5 11-6 12-3 6-1 1-2 1-1 1-2 1-2 0-2-1-2-1-1-1-1-2-1-2 0-2 0-2 1-1z"  fill="#fff500" /><path d="M108-161l-1 7-2 16-3 18-6 20-4 10-5 10-6 10-6 9-7 9-7 8-6 8-7 9-6 8-6 8-10 16-6 16-5 19-3 10-3 10-3 9-4 10-8 18-9 16-10 15-11 12-8 11-8 9-7 9-7 12-6 12-3 11-3 10-2 11-1 11 10 2 5 9 8 15 0 0 0 0-10 3-11 1-10-2-10-5-8-10-3-13 1-11 3-12 3-10 4-12 6-13 6-10 6-10 7-8 8-9 9-10 11-11 9-11 9-13 8-16 7-17 6-18 3-10 3-11 3-9 3-10 4-10 6-9 6-8 6-9 6-8 7-9 7-8 12-15 10-17 9-18 5-18 4-17 3-16 2-7 1-2 1-1 1-2 2-1 2 0 2 0 1 0 2 1 1 1 2 2 0 1 1 2 0 2z"  fill="#fff500" /><path d="M108-160l-2 6-2 13-1 12-1 14-1 13-3 14-6 16-11 14-13 11-14 8-14 8-15 8-16 8-19 6-11 1-19 3-18 3-19 5-9 3-11 2-11 1-11 2-11 1-12 1-12 1-11 2-12 2-12 3-12 2-12 3-12 2-12 3-13 3-12 2-13 2-11 3-12 3-12 2-11 3-12 2-12 2-12 1-12 1-13 0-13 0-13 0-13 0-15-2-15-2-16-2-16-4-15-4-16-6-16-8-15-9-16-10-16-11-18-11-19-12-20-11-21-10-23-8-24-6-24-5-24-1-25 1-25 4-27 6-28 7-28 7-30 10-29 14-30 18-28 23-27 28-22 33-22 37-18 42-108 316 0 0 0 0 107-317 18-42 21-37 23-33 27-28 28-24 30-18 30-14 29-10 29-8 27-6 28-6 25-4 25-2 24 2 25 4 24 6 23 8 22 10 21 10 19 11 18 10 17 10 16 9 16 7 15 7 15 6 15 3 15 3 16 1 14 1 14 1 13 0 13 0 13 0 12-1 12-1 11-1 11-1 12-2 11-3 11-2 12-3 12-2 12-3 13-2 12-3 12-4 13-2 12-3 11-3 12-2 12-4 13-2 12-2 12-1 10-1 21-4 19-5 19-5 20-4 10-2 17-3 15-4 15-7 14-9 14-8 12-7 10-7 7-8 5-11 3-13 2-13 2-12 3-14 4-14 2-6 1-2 1-1 2-1 2-1 1-1 2 0 2 1 2 1 1 1 1 2 1 2 0 2 0 2z"  fill="#005bbb" /></svg>