<svg width="1200" height="675" viewBox="-500 -500 1200 675" xmlns="http://www.w3.org/2000/svg"><path d="M-500-500h1200v675h-1200z" fill="#000"/><path d="M93-167l3-5 6-11 6-11 3-11 2-14-1-12-6-12-6-10-8-14-9-14-10-17-5-9-4-10-5-10-4-10-4-10-4-9-7-18-6-15-6-15-4-15-3-14-2-14 0-12 0-11 1-10 3-12 6-10 7-9 8-7 8-6 12-7 9-6 8-6 9-8 6-10 6-10 3-10 6-8 17-10 0 0 0 0 8 22-3 10-5 11-5 9-6 9-8 9-8 7-9 6-11 7-10 6-9 6-9 8-7 9-2 12-1 14 0 11 2 12 2 13 4 14 5 15 7 16 7 18 4 9 5 10 9 18 10 16 10 15 10 15 6 12 7 12 4 13 1 13-2 12-3 13-6 12-7 11-8 11-3 5-1 1-2 1-2 1-2 1-2-1-1 0-2-1-1-2-1-1-1-2 0-2 0-2 1-2z"  fill="#fff" /><path d="M99-170l6-2 11-2 11-2 14-2 14-3 11-1 11-1 11-2 10-1 10-3 14-5 9-5 10-5 10-5 11-4 12-4 10-3 11-4 10-4 10-4 11-6 10-7 6-9 8 6-8 7-11 8-9 5-37 4 0 0 0-1 22-31 9-6 10-7 9-6 10-4 11 1 10 6 6 9 0 12-5 11-6 9-9 10-9 6-9 4-9 4-10 4-11 4-11 5-12 3-10 3-14 6-9 4-11 6-11 5-12 3-12 3-11 1-12 1-12 1-10 0-14 1-14 1-10 1-12 0-6 0-2 0-2 0-2-1-1-1-1-2-1-2 0-2 0-2 1-1 1-2 2-1 1-1 2 0z"  fill="#c2e1ff" /><path d="M104-156l-5 4-10 8-11 7-11 6-10 6-11 4-10 4-10 5-10 4-12 5-12 3-11 2-11 1-12 0-14-1-13 2-11 3-10 7-7 11-4 13-1 11-2 13-1 13-2 16-4 16-3 17-4 19-3 20-3 19-1 17 1 16 3 15 6 14 10 13 11 14 14 11 15 10 18 9 17 8 17 6 15 4 14 3 13 2 11 0 41 9 0 0 0 0-35 14-13 0-14-2-15-3-16-5-17-6-18-7-9-4-9-5-10-5-10-5-9-6-8-6-8-7-13-16-6-8-6-8-7-19-4-18-1-19 1-19 2-19 1-11 2-10 3-19 2-18 2-15 2-14 1-14 2-13 1-13 4-14 7-14 9-12 11-8 13-6 12-3 11-1 11 0 14 2 13-1 15-2 13-4 11-5 11-4 11-4 10-3 10-4 10-4 11-6 11-6 6-3 1-1 2 0 2 0 2 0 2 1 1 2 1 1 1 2 0 2 0 2-1 2-1 1-2 1z"  fill="#fff" /><path d="M94-167l3-5 6-10 6-9 6-12 5-9 5-11 9-10 9-8 8-7 8-10 5-11 0-11-1-13-1-14 0-14-1-11-1-14-2-13-2-15 0-11 0-12 1-12 4-13 3-12 3-12 1-10 0-14-3-14-4-14-1-10-3-15-3-12-3-14 2-37 0 0 0 0 26 29 2 10 3 10 2 15 2 14 3 13 3 10 2 12 0 13-1 13-2 13-3 13-3 11-2 14 1 15 1 13 2 15 2 13 1 10-1 14 1 11 1 12 1 12-1 12-3 13-7 12-8 10-10 9-9 7-9 7-7 9-6 11-9 11-7 9-8 9-4 4-1 2-2 1-1 0-2 0-2 0-2-1-2-1-1-1-1-2 0-2 0-2 1-2 1-1z"  fill="#fff" /><path d="M99-171l6-1 15-2 16-2 15-1 15-1 15-3 14-2 13-4 12-5 14-6 14-6 14-6 12-6 11-8 8-9 6-11 3-14 2-17 1-18 0-19-2-20-1-11-1-11-1-10-5-19-5-18-6-17-8-16-9-15-10-13-9-15-8-14-7-14-7-13-7-15-6-16-4-16-3-16-2-14-1-13 0-12 1-12 2-11 1-11 4-13 7-14 10-11 13-11 14-8 56-18 0 0 0 0-42 40-12 7-9 8-7 8-7 12-2 10-3 15-1 15 0 11 0 12 2 13 3 14 5 15 5 14 7 14 7 14 5 12 8 13 9 14 11 16 9 18 7 18 6 18 3 10 2 10 3 11 2 11 1 11 1 10 2 11 1 11 0 11 0 19 0 20-1 10-5 19-9 16-13 14-14 9-14 7-14 6-14 5-14 6-14 5-16 5-15 2-16 2-16 1-15 0-15 0-14 1-7 0-2 0-2 0-1-1-2-1-1-2-1-1 0-2 0-2 1-2 1-2 1-1 2-1 2-1z"  fill="#fff500" /><path d="M93-166l3-6 6-14 10-13 12-12 13-10 12-8 11-8 8-7 6-9 5-10 5-11 7-12 8-12 9-11 7-11 8-11 7-12 9-14 8-15 4-14 0-15-3-17-4-19-4-18-3-18-3-17 0-19 1-18 2-19 6-19 4-10 5-10 6-9 7-9 7-9 7-8 7-9 7-8 8-8 9-8 8-8 10-8 10-7 10-6 9-6 9-5 18-9 15-8 15-8 12-8 14-8 14-8 12-8 11-7 10-9 42-19-1 0 1 0-27 38-11 8-13 9-14 7-13 8-14 7-14 8-15 8-16 7-17 8-9 5-8 5-9 6-9 7-9 7-8 8-8 7-7 8-7 8-6 8-7 9-6 8-11 16-7 17-5 16-2 16-1 17 0 16 2 17 4 16 4 18 4 19 2 10 2 10 1 11-1 11-2 10-4 10-8 16-8 14-8 14-8 12-8 12-9 10-7 10-6 10-5 11-7 12-9 12-12 10-12 8-12 7-12 8-11 9-8 9-7 12-4 6-1 2-1 1-2 1-2 1-2 0-2-1-2-1-1-1-1-2-1-1 0-2 0-2 1-2z"  fill="#005bbb" /><path d="M107-158l-3 4-5 10-6 8-8 11-7 9-8 9-8 8-8 10-7 11-6 10-5 10-1 12 3 10 4 9 2 11 1 11 6 10 8 7 10 8 9 8 8 7 10 7 15 29 0 0 0 0-33-2-9-7-10-8-9-8-9-8-10-8-8-9-7-11-2-10-1-10-1-12-4-10-2-12 0-12 3-13 6-11 6-9 8-11 7-9 10-9 10-8 7-7 9-9 9-10 9-11 3-4 2-1 1-1 2-1 2 0 2 0 1 0 2 1 1 2 1 1 1 2 0 2 0 2-1 2z"  fill="#c2e1ff" /><path d="M105-156l-5 4-7 9-6 12-5 14-6 17-7 17-9 17-10 15-9 15-10 15-11 13-10 13-9 12-10 11-9 12-6 11-6 12-4 13-4 12-3 11-3 10-3 10-5 14-6 11-4 10-5 9-5 10-5 10-5 10-3 10-2 12-1 11 0 12 2 12 3 12-13 25 0 0 0 0-19-19-2-12-2-12 0-11 0-13 2-13 3-13 3-12 5-9 6-9 5-9 6-11 5-9 5-10 6-11 5-13 3-9 4-11 4-14 6-14 6-13 9-15 10-12 9-11 10-11 10-12 10-13 10-14 9-15 10-14 8-14 6-16 7-17 7-16 9-14 10-11 6-4 2-1 1 0 2-1 2 1 2 1 2 1 1 1 1 2 0 2 0 2-1 2-1 1-1 2z"  fill="#c2e1ff" /><path d="M108-161l-1 7 0 11 1 11 3 14 3 13 2 12 3 12 1 10 1 11 2 9 5 10 7 8 18 1 0 0 0 0-1 12-2 11-8 7-11 1-10-4-8-7-7-9-5-9-4-9-2-11-1-11 0-11-1-13-1-12-2-12-1-10-1-12 0-13 3-13 1-7 1-2 1-1 1-2 2-1 2 0 1 0 2 0 2 1 2 1 1 1 1 2 0 2 0 2z"  fill="#c2e1ff" /><path d="M96-155l-6-3-11-4-13-3-12-4-12-3-11-1-10-1-10 0-16 3-13 2-15 1-16-1-18-4-18-9-14-11-13-12-10-12-10-13-9-11-10-12-9-13-8-13-6-15-5-14-4-15-4-14-3-14-5-12-6-14-6-12-9-11-12-14-7-8-7-7-8-8-8-7-8-6-9-7-10-6-9-6-10-6-10-5-10-6-10-5-10-4-10-3-10-3-11-3-19-3-19-1-10 0-11 1-12 2-12 2-14 4-15 3-16 3-17 2-17 2-17 1-123 1 1 0-1 0 122-11 17-2 16-3 16-4 15-4 15-4 14-5 13-3 13-2 12-1 11-1 11 0 11 2 11 2 10 2 11 3 11 3 10 4 12 4 10 5 11 5 10 6 11 5 10 6 10 7 10 6 10 7 9 8 9 7 8 8 7 7 7 8 13 13 9 15 7 14 6 15 5 15 3 14 3 14 4 13 5 12 6 12 7 11 9 12 10 12 8 11 10 11 10 11 11 10 11 7 13 5 13 1 14 0 12-1 12-2 13-1 12 0 13 2 13 3 12 4 13 5 13 5 12 6 6 3 1 1 2 2 1 2 0 1 0 2 0 2-1 2-2 1-1 2-2 0-2 1-2-1-2 0z"  fill="#c2e1ff" /><path d="M95-169l5-4 10-10 11-9 9-7 9-7-4-9-9 4-9 5-14 6 0 0 0 0-3-6-2-11 0-10 7-8 8-7 11-4 12 0 11 3 8 5 9 7 6 11 0 12-4 10-7 8-9 6-11 5-9 6-12 8-9 6-4 3-2 1-2 0-2 0-2 0-1-1-2-1-1-2-1-2 0-1 0-2 1-2 1-2 1-1z"  fill="#c2e1ff" /><path d="M94-157l-4-3-8-7-9-6-10-4-11-6-12-8-14-10-12-11-10-14-8-15-5-17-4-17-1-17 3-16 5-15 9-13 11-10 11-8 12-6 11-4 12-4 10-3 10-4 11-6 10-7 9-7 10-6 11-5 8-7 7-9 6-9 10-5 16-6 0 0 0 0 2 16-1 12-7 9-7 9-8 8-9 7-12 6-12 6-10 7-8 5-11 5-13 5-10 3-10 3-10 3-14 6-12 8-10 11-4 10-2 11 1 13 2 14 5 15 6 11 7 11 9 9 12 9 11 8 10 6 11 7 10 8 8 9 4 4 1 1 1 2 0 2 0 2-1 2-1 1-1 2-2 1-1 0-2 1-2-1-2 0-2-2z"  fill="#fff500" /><path d="M107-158l-3 5-6 11-7 11-10 11-9 10-9 11-9 12-11 11-12 9-13 8-11 7-12 5-10 3-10 2-10 1-10-1-13-1-14-2-11-1-10-2-10-3-10-3-13-4-13-3-10-2-14 0-12 1-13 1-14 1-13 2-15 2-15 2-16 4-17 4-16 5-16 6-14 6-13 6-13 7-12 7-11 6-12 7-11 6-10 6-10 5-39 5 0 0 0 0 27-27 9-5 11-6 11-6 12-6 12-7 12-6 13-7 14-7 16-6 16-6 17-6 17-5 17-5 17-3 15-3 15-3 14-1 13-1 13-2 14 0 12 2 10 2 10 2 14 5 13 4 13 3 14 2 10 1 12 3 13 0 12-2 13-4 10-5 11-6 10-8 10-10 9-10 10-11 10-11 9-8 7-10 8-9 3-5 2-1 1-2 2 0 2-1 2 1 2 0 1 1 2 2 1 1 0 2 0 2 0 2-1 2z"  fill="#fff500" /><path d="M92-160l-2-5-4-12-3-12-3-14-1-14-2-13-1-14-2-12-4-11-9-10-9-6-10-7-12-6-11-5-10-3-11-1-13 0-14 0-14 0-13 2-12 2-13 3-13 4-14 3-13 3-13 4-12 4-12 4-10 4-11 4-12 4-13 3-14 2-13 1-13 1-12 2-11 2-12 2-10 3-10 3-14 6-10 4-9 5-10 5-9 6-10 5-36 5 0 0 0 0 22-29 9-5 10-6 11-6 11-5 11-5 10-4 11-3 12-4 12-2 12-2 13-2 13-2 13-1 12-1 11-2 11-3 10-4 11-4 12-3 12-4 13-4 14-4 14-3 13-4 14-4 14-2 14-3 15-1 15 0 15 0 15 1 14 3 14 6 12 6 13 8 12 8 11 10 8 14 5 14 2 15 1 14 1 13 0 13 2 13 2 12 1 11 2 5 0 2 0 2-1 2-1 2-1 1-2 1-2 0-2 1-1-1-2-1-2-1-1-1-1-2z"  fill="#fff" /><path d="M92-164l1-8 2-17 3-16 2-15 0-12-2-11-3-13-4-12-5-12-7-10-7-9-8-9-8-8-8-8-11-8-11-7-13-7-10-7-8-7-9-9-6-9-5-11-5-10-5-10-7-11-7-13-6-10-7-10-9-10-9-9-10-8-10-9-10-10-10-11-8-12-7-12-6-12-6-13-4-17-2-18-1-17-2-17-1-19-3-17-5-17-6-17-14-58 0 0 0 0 34 50 8 18 3 9 2 10 3 10 1 10 3 18 1 18 2 17 2 14 4 13 5 12 5 10 6 11 6 9 8 10 9 8 11 9 10 9 11 10 10 11 9 12 7 12 7 12 7 11 6 12 7 14 7 11 7 8 11 8 12 8 9 6 9 6 8 8 8 8 10 9 8 11 9 11 7 13 6 14 4 15 3 14 2 15-2 16-3 15-4 16-3 16-2 8 0 2-1 1-2 2-1 1-2 0-2 1-2-1-2 0-1-2-2-1-1-2 0-2 0-2z"  fill="#c2e1ff" /><path d="M95-157l-4-3-12-6-13-1-11 6-11 6-13 6-12 6-9 3-14 5-13 7-8 5-11 8-10 8-7 10-8 10-9 10-5 9-3 11-1 16 0 12 1 13 3 14 3 14 6 16 8 18 5 10 5 11 5 11 6 12 5 13 4 15 3 15 1 15 2 16 0 16 0 16-2 16-2 16-1 16-2 17-2 17-2 18-2 18-3 20-3 21-3 23-3 24-3 26-3 25-1 25-2 26-9 167 0 0 0 0 7-168 1-25 2-25 2-26 2-25 3-25 2-23 2-21 2-19 1-19 1-18 1-17 1-17 1-16 1-16 1-15 0-16-2-15-2-14-2-14-4-14-4-12-6-12-6-11-6-11-6-11-6-9-5-10-5-9-8-18-5-17-3-16-2-15 0-14 0-14 2-13 4-13 6-10 9-10 8-9 9-11 7-8 8-7 10-7 10-6 10-5 10-5 15-5 12-4 12-5 12-5 12-5 11-3 12-1 10 3 11 6 8 7 4 4 1 1 1 2 1 1 0 2-1 2-1 2-1 1-1 1-2 1-2 0-2 0-2 0-1-1z"  fill="#fff" /><path d="M107-158l-4 6-8 12-8 12-8 11-7 12-5 12-4 13-4 12-4 14-6 14-7 14-8 12-6 11-4 11-5 11-5 12-5 11-5 12-3 12-4 11-4 12-5 11-6 11-7 11-9 12-10 11-12 11-14 11-13 10-11 10-9 11-5 10-3 11-1 14 0 19 0 11 0 12-1 14-1 16-1 16-1 17-2 18-1 18 0 18 0 17 0 17 1 17 0 16 0 16 1 16 1 15 2 15 2 15 2 15 3 14 3 14 4 15 4 13 5 14 4 13 24 86 0 0 0 0-35-83-4-13-4-14-5-14-3-15-3-14-3-15-2-15-2-15-1-15-1-16 0-16 0-16 0-16-1-16 0-18-1-17-1-18-1-18 0-18-1-17-1-17 0-14-1-14-2-12 0-11-1-20 1-19 5-16 8-15 11-13 12-12 14-12 12-9 10-9 8-10 8-10 6-10 5-10 5-9 3-10 4-11 4-12 5-13 5-13 6-11 5-11 5-12 7-13 8-12 6-11 5-12 5-13 4-13 6-14 7-13 8-13 9-13 9-10 9-11 4-5 2-2 1-1 2 0 2-1 2 1 2 0 1 2 2 1 1 2 0 2 0 2-1 1 0 2z"  fill="#c2e1ff" /><path d="M108-165l2 6 5 12 5 12 4 14 4 16 1 16 1 17-2 19-6 18-8 18-9 15-10 14-12 13-11 11-8 11-8 10-8 11-8 9-8 10-6 10-4 10-4 11-3 14-1 10-2 10-3 12-2 10-1 10-1 13 0 14 0 10 0 11 0 12-3 12-7 11-7 7-12 7-24-7 0 0 0 0 11-19 8-7 4-11 0-12 0-11 0-12 1-11 2-11 2-10 2-12 4-12 3-13 2-12 3-12 4-11 6-14 8-12 9-11 8-9 8-9 9-11 9-12 11-11 11-11 9-12 8-14 7-14 4-15 2-15 0-16 0-14-3-13-3-14-4-13-3-12-2-6 0-2 0-2 0-1 1-2 2-2 1-1 2 0 2-1 2 1 2 1 1 1 2 1 1 2z"  fill="#fff500" /><path d="M93-161l-2-9-2-10-2-10-3-11-4-11-4-12-4-12-5-12-5-13-4-13-3-14-2-15-2-16-1-16-2-18-2-17-4-17-3-18-3-19-4-18-4-19-6-18-7-18-7-16-8-15-8-14-9-14-9-13-9-14-8-14-8-15-8-17-7-18-8-19-10-19-11-20-12-20-13-20-15-20-15-21-14-23-14-25-14-26-14-28-14-30-15-32-14-32-14-35-12-37-11-40-10-42-10-45-11-46-11-45-13-44-13-43-14-43-16-41-18-39-22-39-23-40-24-41-29-42-29-42-33-40-37-38-39-37-42-35-47-34-51-36-52-38-54-42-59-43-60-45-62-49-67-48-67-45-72-37-72-33-74-34-73-34-70-36-69-37-66-37-62-37-59-36-56-38-51-38-49-38-44-39-41-39-39-38-38-37-35-37-220-239 0 0 0 0 221 238 35 36 38 37 39 38 41 40 44 38 49 38 51 38 57 38 58 37 63 36 65 37 69 38 70 35 73 34 74 34 72 34 72 37 68 44 66 49 63 48 59 45 59 43 54 42 53 39 50 35 47 34 42 36 39 37 38 37 32 41 30 42 29 42 24 41 23 40 21 39 19 39 16 41 14 43 13 43 12 44 12 46 11 46 9 44 11 42 11 40 12 37 14 35 14 33 15 31 14 30 14 28 14 26 14 25 14 22 15 22 15 20 13 19 13 20 12 19 11 20 9 19 8 17 8 16 8 15 8 14 8 14 9 14 8 14 8 14 8 16 7 16 7 18 6 18 5 19 5 19 3 18 5 18 4 18 4 17 3 17 2 17 2 15 3 14 3 12 4 13 5 12 5 13 5 12 5 12 3 12 3 11 3 21 2 9 0 2-1 1 0 2-1 1-1 1-2 1-2 0-1 0-2 0-1-1-1-1-1-2-1-1z"  fill="#fff500" /><path d="M92-165l1-6 4-12 3-11 4-11 6-14 5-9 6-10 7-10 8-8 8-10 8-11 6-11 6-14 4-10 5-12 5-11 7-12 7-11 7-12 8-12 9-12 8-14 6-15 5-16 3-17 3-20 1-10 2-11 3-10 4-10 5-9 7-8 7-8 8-6 17-10 16-6 16-6 15-4 14-2 14-2 12-2 13-2 11-3 10-3 9-4 9-5 12-7 37-10 0 0 0 0-15 28-13 7-9 5-11 5-11 5-13 3-12 3-13 2-13 1-13 2-13 2-14 3-14 4-15 6-12 6-12 11-9 13-6 15-2 19-2 20-1 10-2 10-2 10-3 10-7 18-8 16-9 13-7 11-7 12-7 11-5 10-5 10-4 10-5 12-4 10-5 10-6 9-7 9-6 8-11 10-9 10-8 13-7 12-7 13-5 10-4 11-2 5-1 2-1 2-1 1-2 1-2 0-2 0-2 0-2-1-1-1-1-2-1-2 0-2 0-2z"  fill="#fff" /><path d="M94-167l3-5 7-12 5-10 3-10 3-11 5-11 5-9 6-11 4-10 2-12 2-11 4-13 5-11 7-12 9-9 9-7 10-5 4-9-19-8 0 0 0 0 10-22 10-5 11 3 9 6 8 11 4 9 1 10-2 12-6 9-9 7-9 5-10 6-8 6-5 11-4 9-2 10-3 12-4 10-4 10-6 10-7 11-6 10-5 10-6 12-8 12-7 8-4 3-1 2-2 1-2 0-1 0-2 0-2-1-2-1-1-2 0-1-1-2 0-2 1-2 1-1z"  fill="#fff" /><path d="M107-165l3 4 4 11 3 11 2 12 1 11 3 9 4 10 7 13 9 15 6 10 5 10 6 10 7 11 8 11 9 12 11 11 13 11 15 10 16 8 18 7 18 6 19 7 19 8 20 7 22 6 22 5 23 5 22 5 21 4 20 6 19 5 19 6 19 6 19 7 18 8 18 8 20 10 19 11 21 13 20 12 21 13 20 12 21 12 20 11 21 11 21 10 21 9 20 9 21 8 21 6 19 5 21 4 19 3 20 2 20 2 20 0 19-1 19-2 18-4 19-5 19-6 20-7 20-8 21-9 21-9 23-9 23-9 23-11 23-10 25-11 26-10 27-10 29-10 30-8 30-6 31-3 32-2 34 0 36 2 38 5 39 7 40 9 40 8 42 9 45 8 300 51 0 0 0 0-301-50-44-7-42-9-41-8-40-9-38-7-38-5-36-2-34 0-32 2-31 3-30 6-30 8-28 10-28 10-26 10-24 11-23 10-23 11-24 9-22 9-21 9-21 10-20 8-20 7-19 6-19 5-19 4-19 2-19 0-20 0-20-2-20-2-20-3-20-4-20-5-21-7-21-7-20-9-21-10-21-10-21-10-20-11-21-12-20-13-21-12-21-13-20-12-19-11-20-10-18-8-18-8-19-7-18-6-19-6-20-5-20-5-21-5-22-5-22-4-23-5-22-5-21-7-19-7-19-6-19-5-18-6-19-7-17-9-15-10-14-11-11-12-9-11-8-11-7-10-7-10-5-8-6-9-8-15-7-13-4-15-1-13 0-10-1-14-3-9-1-6-1-1 0-2 0-2 1-2 2-1 1-2 2 0 2 0 2 0 2 0 1 2 1 1 1 2z"  fill="#fff" /><path d="M108-164l1 7 3 13 4 12 5 12 6 11 7 11 8 9 8 10 7 9 8 7 11 9 11 8 10 5 9 7 9 8 10 6 10 7 10 5 11 4 13 4 12 6 10 8 8 8 7 9 7 8 8 9 8 6 11 6 11 5 10 4 10 6 12 9 11 6 10 5 12 5 12 7 12 10 30 48 0 0 0 0-44-23-9-8-8-5-10-5-12-5-11-5-10-6-8-6-10-6-12-5-9-5-9-4-9-6-9-7-8-8-6-8-8-11-10-8-9-6-12-4-13-4-12-6-9-6-10-8-11-9-7-7-10-7-10-8-8-7-9-7-9-9-8-10-8-11-8-12-7-11-7-14-4-15-3-14-2-14 0-7 0-2 0-1 1-2 2-2 1-1 2 0 2-1 2 1 2 0 1 1 2 2 1 2 0 1z"  fill="#005bbb" /><path d="M98-156l-8-2-20-2-11-2-12-2-12-2-13-4-13-4-13-5-13-5-14-6-13-6-13-5-12-6-13-5-12-5-12-6-12-5-11-6-11-6-11-6-11-5-11-5-10-5-11-4-10-4-10-3-18-5-18-4-18-3-16-1-16 2-16 4-16 5-14 6-13 8-14 9-14 9-16 10-9 4-9 5-11 4-10 6-12 5-14 6-14 5-15 6-16 6-16 5-15 6-16 5-16 5-17 4-18 4-17 4-17 5-18 5-17 5-16 5-16 5-16 5-14 5-14 7-13 8-12 7-12 9-10 9-8 9-7 10-6 9-4 10-3 18 3 16 8 17 9 18 4 10 5 10 6 10 39 76 0 0 0 0-54-67-7-11-5-10-4-10-5-9-4-10-4-10-4-10-2-11 0-11 2-11 4-11 5-11 8-10 8-9 10-10 11-9 12-8 13-8 14-7 14-7 15-5 16-5 16-5 16-4 17-5 18-6 17-6 17-5 18-4 16-4 16-6 15-6 15-6 15-7 15-7 14-6 13-7 13-7 11-6 11-7 10-5 9-4 15-9 15-9 14-9 15-9 16-8 17-6 17-4 19-3 20 0 19 3 18 4 19 6 9 3 11 4 10 4 11 5 11 5 11 5 11 6 11 6 11 6 10 6 11 6 12 5 12 6 12 5 13 5 14 5 13 6 13 5 13 5 13 4 12 4 12 3 12 2 12 2 11 2 10 2 10 2 9 3 1 0 1 1 2 2 0 1 1 2 0 1-1 2 0 1-1 2-2 1-1 0-2 0-2 0z"  fill="#005bbb" /><path d="M101-171l6 1 13 1 12 2 12 2 13 2 14 4 14 6 15 8 15 7 15 6 14 4 15 0 15-1 16-5 15-6 16-8 10-4 11-4 10-3 11-4 10-3 11-3 11-3 11-4 11-2 11-4 11-3 12-5 12-4 14-4 14-5 15-4 16-4 16-6 17-6 18-7 18-6 17-6 19-7 17-7 18-7 17-9 17-7 16-8 14-7 14-8 14-8 13-7 12-7 11-7 11-6 12-7 12-5 11-5 12-4 11-5 11-4 12-4 11-4 12-3 11-3 10-3 10-3 9-2 19-4 16-2 13-1 12-3 10-2 13-3 35 2 0 0 0 0-29 21-10 2-10 1-12 1-13 1-15 1-16 1-18 3-10 3-11 2-11 3-11 2-11 3-11 4-11 4-11 4-12 4-12 4-11 5-12 5-11 6-12 6-13 6-13 7-14 6-14 8-15 7-16 7-17 7-17 9-18 8-17 8-18 7-18 7-17 7-17 8-16 8-17 7-15 6-15 5-14 5-12 5-13 5-11 5-12 4-12 4-11 3-11 3-10 3-10 4-10 4-10 3-19 8-18 9-9 4-18 7-18 5-20 2-19-1-17-5-17-6-15-8-15-7-12-5-11-4-12-4-11-3-12-2-12-3-6-1-2-1-2-1-1-1-1-2-1-2 0-2 0-2 1-1 1-2 2-1 1-1 2 0 2 0z"  fill="#fff500" /><path d="M106-157l-4 5-7 8-7 10-6 9-6 9-5 9-8 12-8 10-6 9-7 11-6 8-5 9-3 13-3 11 1 11 1 10-1 11-1 10-2 10-3 11-7 7-14 11 0 0 0 0-8-16-3-12 3-11 2-10 2-11 0-10 0-11 2-10 3-10 4-13 4-9 7-9 7-8 6-8 7-9 8-10 9-10 6-8 7-10 7-9 9-9 9-8 4-4 2-1 2-1 2 0 2 0 1 0 2 1 1 2 1 1 1 2 0 2 0 2-1 2-1 1z"  fill="#fff" /><path d="M107-166l4 7 8 13 9 13 10 12 12 13 15 13 16 10 18 8 17 3 19 3 10 1 10 2 10 1 10 0 11-2 11-1 11-3 10-4 11-4 11-4 10-5 9-6 10-5 9-5 9-5 18-8 18-6 18-4 16-2 14-2 15 0 15 0 14 2 14 2 12 3 12 3 10 3 14 3 11 3 11 0 11-2 11-3 10-2 11 0 18 13 0 0 0 0-10 9-9 7-10 1-10 3-12 1-13 1-11-1-11-4-13-4-9-2-11-4-11-3-13-3-12-2-13-1-13-1-13 0-14 1-16 2-16 4-16 5-17 9-10 4-9 6-10 6-11 5-12 5-11 4-11 4-13 4-12 2-13 2-12 0-11 0-10-2-20-3-10-1-10-2-10-3-10-4-10-5-10-5-10-6-8-7-8-7-14-15-10-15-9-14-7-15-3-7-1-2 0-2 0-2 1-2 1-1 2-1 2-1 1 0 2 0 2 0 2 1 1 1 1 2z"  fill="#c2e1ff" /><path d="M108-163l1 7 2 14 2 14 3 13 4 12 3 11 5 10 4 9 6 9 9 11 10 11 8 8 11 7 9 6 10 6 9 5 10-1 8-5 11-3 17-3 0 0 0 0 0 15-2 11-8 7-10 6-10 3-11 1-12 0-9-5-8-6-10-7-11-7-9-8-10-9-9-11-7-9-7-10-6-11-5-12-4-11-3-13-3-13-3-15-1-15 0-14 0-7 0-2 1-2 1-1 1-2 2-1 2 0 1-1 2 1 2 1 2 1 1 1 1 2 0 2z"  fill="#005bbb" /><path d="M93-161l-2-5-4-9-6-9-9-8-8-9-8-10-9-9-8-5-12 0-12 4-10 3-10 3-13 5-11 6-9 10-5 8-8 10-8 11-9 10-11 9-10 11-10 11-10 11-9 13-10 13-12 13-14 15-8 8-9 8-9 8-9 8-9 9-8 9-9 10-8 10-8 10-9 11-9 11-9 11-9 13-12 12-12 13-15 13-15 14-16 15-16 15-14 16-13 17-10 18-10 18-55 129 0 0 0 0 53-130 9-18 10-19 13-17 14-17 15-16 15-16 14-15 13-14 11-14 10-12 9-13 8-12 8-12 9-11 8-11 8-10 8-11 8-10 9-10 9-9 8-9 8-8 7-7 6-8 12-15 10-11 9-13 10-14 10-12 11-13 11-11 8-8 7-8 7-9 6-11 9-11 10-9 11-7 11-5 10-3 15-4 12-4 10-3 11 0 11 2 10 6 9 7 8 8 6 8 7 12 7 7 7 10 5 11 2 14 1 4 0 2-1 2-1 2-1 1-1 1-2 1-2 0-2 0-1-1-2-1-1-1-1-2 0-1z"  fill="#c2e1ff" /><path d="M108-162l-1 8 0 14 2 14 5 14 7 14 9 14 11 14 13 11 16 12 9 7 10 5 11 6 11 7 11 7 10 7 10 7 9 7 8 5 17 11 16 9 16 9 15 10 15 10 17 10 8 6 9 6 8 7 8 6 15 12 15 8 15 7 15 2 16-2 21-4 10-3 11-3 10-3 11-4 10-5 11-4 11-5 12-5 13-5 15-4 15-4 16-3 17-2 18-1 17 0 17 1 17 0 16 0 16 0 17 2 16 1 16 3 14 3 14 4 12 3 12 4 11 4 10 3 10 3 10 3 19 5 19 2 11 1 11 2 11 2 10 3 11 4 10 4 61 36 0 0 0 0-68-19-10-4-18-6-10-3-10-2-11-1-10-1-11-2-10-3-10-3-10-4-9-4-11-4-10-4-11-5-12-4-13-4-14-4-15-3-16-1-16-1-16-1-16 0-17 0-16 0-17 1-17 2-16 3-15 4-15 4-13 5-12 6-12 5-11 6-11 5-10 4-11 5-11 4-11 3-12 4-11 2-10 3-11 2-11 0-10-1-10-3-10-3-17-10-16-11-8-6-15-13-16-10-17-11-16-11-13-10-15-9-16-10-9-5-9-6-8-6-10-7-9-7-10-6-10-7-11-5-11-6-11-6-11-6-9-6-8-7-8-6-8-8-7-7-6-9-10-16-7-17-5-17-1-17 2-16 1-8 1-1 1-2 1-2 1-1 2 0 2-1 2 1 2 0 1 2 2 1 1 2 0 2 0 1z"  fill="#005bbb" /><path d="M92-161l-2-8-4-13-6-12-7-10-9-7-12-6-13-3-15-3-16-2-17-3-18-7-16-8-16-8-15-7-12-7-11-5-10-4-13-3-13-3-11-1-11 0-11 0-12 0-11-1-13 0-12 1-13-1-11-3-10-4-10-4-10-5-9-4-10-6-12-5-12-3-13-1-35-20 0 0 0 0 34-12 11 1 12 2 12 3 11 5 12 7 12 5 11 6 9 5 10 4 11 2 12 0 15 0 10 1 11 0 13 1 12 0 12 2 11 2 10 3 11 4 10 5 11 6 13 7 14 7 15 8 16 7 14 5 15 4 17 2 16 3 17 5 15 8 14 12 9 15 5 15 3 16 1 7 0 2 0 2-1 2-1 1-2 2-2 0-2 1-2-1-1 0-2-1-1-2-1-1-1-2z"  fill="#c2e1ff" /><path d="M95-157l-5-3-10-8-9-8-9-8-8-8-9-7-8-6-9-7-13-8-9-4-11-5-11-4-13-5-12-4-14-2-13-1-12 1-11 2-10 3-11 6-9 6-8 8-9 8-8 9-7 9-6 10-4 10-1 10-16 24 0 0 0 0-16-21 1-11 2-10 4-10 5-10 8-10 7-9 8-8 8-7 9-8 10-8 9-6 11-5 11-4 14-3 14-1 16 0 16 2 16 3 14 5 13 5 12 5 10 6 11 6 11 7 8 7 8 8 9 8 8 9 8 9 8 8 8 9 5 5 1 1 1 2 0 2 0 2 0 2-1 1-2 2-1 1-2 0-2 1-2-1-2 0-1-2z"  fill="#fff500" /><path d="M92-161l-2-5-4-13-4-12-2-15 1-13 3-14 5-11 4-10 8-13 7-10 6-10 8-9 7-8 7-7 7-8 6-10 3-12 1-14 4-11 5-12 8-10 7-9 12-10 11-8 9-9 8-11 8-14 9-17 10-18 9-17 7-17 4-20 2-12 0-12 0-12-2-14-1-14-3-14-5-14-6-14-7-14-8-14-11-12-12-11-13-8-14-7-15-6-17-6-17-5-122-24 1 0-1 0 123 17 19 4 17 6 16 6 15 7 14 9 14 11 12 13 10 14 8 15 7 14 6 16 4 15 3 14 3 14 1 14 1 14-1 13-2 12-3 12-3 11-4 10-4 9-9 17-8 17-8 18-4 9-11 15-12 12-10 9-11 10-7 10-5 11-2 11-2 13-4 13-7 11-8 9-7 7-9 9-9 10-7 8-7 9-7 11-7 12-5 13-1 10 0 11 2 12 3 13 1 7 0 2 0 1-1 2-1 2-1 1-2 1-2 1-2 0-2-1-2-1-1-1-1-2-1-2z"  fill="#c2e1ff" /><path d="M107-158l-3 5-4 10-3 9-3 15 1 12 3 12 3 10 6 9 10 8 8 7 8 7 9 8 6 9 6 10 5 9 6 8 5 9 4 10 4 10 2 12-1 11-3 10-2 10-3 12-21 14 0 0 0 0-9-30 2-11 4-12-2-11-3-11-6-9-5-10-5-9-5-9-7-8-8-9-9-9-7-7-8-10-6-14-3-14-1-10 0-11 2-12 4-13 5-11 7-10 3-5 2-1 1-1 2-1 2 0 2 0 2 0 1 1 2 2 0 2 1 1 0 2 0 2-1 2z"  fill="#005bbb" /><path d="M95-157l-5-3-8-6-7-7-7-8-6-8-6-13-4-11-5-11-7-9-6-8-8-7-9-8-7-7-10-6-9-4-10-1-11 0-11 0-10-4-7-7-4-9-1-14 2-9 17-20 0 0 0 0 14 19-2 12 12-1 13 2 11 3 10 5 10 6 8 8 8 9 8 8 9 9 6 9 6 11 5 10 3 12 3 12 5 10 7 10 10 11 3 4 2 1 0 2 1 2 0 2-1 2-1 1-1 2-2 1-1 0-2 0-2 0-2-1-1-1z"  fill="#fff" /><path d="M104-169l7 3 14 5 17 3 17 2 19 2 18 2 18 1 17-1 16-3 13-6 12-8 10-9 11-10 11-9 9-9 8-9 7-10 8-10 8-10 8-10 8-9 10-9 12-8 14-9 14-7 17-7 18-7 17-8 18-9 16-11 16-12 8-7 8-7 7-7 8-6 7-7 8-7 15-12 8-6 17-10 15-7 16-6 15-6 13-5 13-5 13-6 12-6 13-6 11-5 13-5 14-3 44 6 0 0 0 0-45 20-11 3-11 4-11 4-13 6-13 6-14 6-14 5-15 5-14 5-14 5-15 7-15 10-14 11-14 13-8 7-7 7-9 8-8 7-8 7-9 7-8 6-9 6-9 5-9 5-19 9-9 5-16 7-14 7-13 7-10 8-9 7-8 7-8 8-7 9-8 10-8 10-10 11-10 10-10 9-12 10-11 9-14 9-15 8-19 6-10 2-10 1-10 0-20-2-17-3-19-2-19-2-19-5-16-8-7-4-1-1-2-1 0-2-1-2 0-2 1-2 1-1 1-2 2-1 1 0 2 0 2 0 2 1z"  fill="#c2e1ff" /><path d="M96-169l7-4 15-11 16-14 8-8 8-9 9-9 9-9 9-10 8-10 8-12 10-12 11-13 12-14 12-13 14-13 13-12 15-12 16-10 16-8 16-6 15-5 15-3 14-2 14-1 13-1 12 0 12 0 12 0 11 1 10 2 11 3 10 3 9 5 18 8 9 5 9 6 10 6 9 7 10 8 10 7 9 8 10 8 9 8 8 7 9 7 8 7 8 7 17 10 9 6 10 5 10 6 10 6 9 7 10 6 9 6 10 6 9 6 10 6 9 5 10 6 9 5 10 5 10 5 10 6 10 6 9 6 8 6 15 11 13 7 13 7 13 6 11 6 10 4 10 5 13 5 13 4 13 4 21 24 0 0 0 0-38-2-14-5-9-4-10-5-9-5-11-5-11-7-12-7-13-7-14-10-15-11-15-12-9-5-10-6-10-5-11-5-10-6-9-5-9-6-10-6-9-6-10-6-10-6-9-6-10-6-9-6-10-6-9-6-10-5-10-6-9-7-9-6-8-8-8-7-8-7-9-8-9-8-10-7-10-7-9-7-9-7-9-6-17-10-17-9-17-8-18-6-10-1-11-2-12-1-12 0-12 0-14 0-14 1-14 2-15 4-15 6-16 8-15 10-14 11-13 13-12 13-11 14-11 14-9 14-9 13-8 12-8 12-9 10-9 10-9 9-8 9-9 9-8 8-9 7-17 10-7 4-2 0-1 1-2 0-2-1-1-1-1-1-1-1-1-2 0-2 0-1 1-2 1-1 1-1z"  fill="#c2e1ff" /><path d="M93-159l-4-7-7-13-8-13-10-13-11-13-11-13-12-15-11-15-9-17-5-9-4-9-5-11-5-11-6-12-5-14-4-14-4-16-3-17-2-18 0-17-1-18 0-18 0-18 1-17 2-18 2-17 2-17 2-17 1-18-1-17-3-16-4-16-6-16-7-14-9-14-10-14-10-14-11-15-11-14-12-14-10-14-10-13-10-13-8-13-9-12-8-12-7-13-8-12-8-12-10-11-9-10-10-9-10-10-10-9-10-8-10-8-10-6-10-7-11-6-11-5-11-6-10-5-10-7-9-6-9-8-8-7-6-8-11-15-8-15-5-16-3-16-3-13-2-12-1-11-1-11-1-10 16-30 0 0 0 0 10 28-1 11 0 14 2 11 1 13 1 14 3 13 5 14 7 13 10 14 13 14 8 6 9 6 10 6 11 6 11 6 11 7 11 7 10 7 10 9 10 8 10 10 10 9 10 11 10 11 9 11 9 13 7 12 7 13 8 12 7 13 8 13 9 13 9 13 11 14 11 14 12 14 11 14 11 15 10 14 9 14 7 16 6 16 5 17 3 17 1 18-1 17-2 18-2 17-2 17-1 17 0 18 0 17 0 17 2 18 2 17 3 16 4 16 5 14 5 14 6 12 6 11 6 11 5 10 9 18 9 15 10 14 10 14 12 14 11 14 10 15 8 15 7 14 2 7 1 2 0 2 0 2-1 2-1 1-2 1-2 1-2 0-2 0-1 0-2-1-1-2-1-1z"  fill="#005bbb" /><path d="M107-166l4 6 8 12 8 10 10 8 12 8 13 8 14 8 15 8 14 5 15 4 17 5 16 5 17 7 16 8 15 9 14 9 12 10 9 8 9 8 10 8 9 8 8 7 8 8 6 10 6 10 4 10 2 11 0 12-4 10-11 14 0 0 0 0-14-17-2-10 0-11-4-10-4-10-6-8-8-9-10-8-8-8-7-7-9-9-9-8-13-9-13-8-15-7-15-6-16-6-16-4-16-5-17-6-16-9-14-8-14-9-13-10-12-11-9-13-7-14-3-7-1-2 0-2 0-1 1-2 1-2 1-1 2-1 2-1 2 0 2 1 2 1 1 1 1 2z"  fill="#005bbb" /><path d="M95-168l3-4 7-10 6-10 5-10 3-10 5-11 3-11 4-12 1-12-1-10-8-11-8-8-7-9-8-8-9-5-11 0-9 6-8 9-8 11-6 9-7 10-5 11-25 26 0 0 0 0-5-36 4-11 8-12 6-9 6-9 6-10 9-9 9-8 9-5 10-4 11-1 10 1 10 3 9 5 9 9 7 7 8 9 8 10 8 10 5 9 2 15-1 10-2 11-4 12-5 11-5 11-5 9-5 10-8 11-9 11-8 7-4 3-1 1-2 1-2 0-2 0-1 0-2-1-1-2-1-2-1-1 0-2 1-2 1-2 1-1z"  fill="#fff500" /><path d="M95-168l4-5 6-8 9-12 8-11 6-11 7-11 6-12 5-10 6-8 9-12 7-9 8-9 9-9 10-9 8-9 10-10 12-9 12-9 14-8 14-9 13-8 12-10 13-12 17-11 17-10 10-4 10-4 11-2 11-2 11-2 11-2 11-2 11-3 11-3 10-3 11-3 10-4 10-3 10-3 18-6 17-6 15-7 14-7 10-9 7-9 7-11 8-16 4-9 6-10 7-10 7-10 7-10 7-11 7-11 7-11 7-11 53-68 0 0 0 0-39 76-7 12-6 11-7 12-6 11-6 11-6 10-6 10-5 9-8 17-8 16-11 14-12 10-14 9-17 7-17 6-19 6-18 6-10 3-10 4-11 3-11 4-11 3-12 3-11 3-11 3-11 1-10 3-17 5-16 8-14 10-13 11-13 12-15 11-14 9-13 9-12 8-10 8-9 8-9 10-10 9-8 8-8 8-10 12-9 11-7 11-8 12-7 12-9 11-8 11-7 8-8 8-9 8-5 3-1 2-2 0-2 1-2-1-2 0-1-1-1-2-1-2-1-1 0-2 1-2 0-2 2-1z"  fill="#fff" /><path d="M107-160l-2 8-5 16-1 15 0 14 1 15 2 14 2 13 1 13 1 13 3 10 5 13 7 12 7 7 8 8 10 6 10 7 10 5 10 5 11 3 11 0 10-2 9-5 10 2 5-6 0 0 0 0 6 8 1 11-4 11-9 6-10 4-10 2-12 0-12-2-11-3-12-5-11-6-10-7-12-7-11-10-10-10-6-9-6-10-4-10-4-13-2-13-1-13-1-12-1-13-1-16 0-16 0-17 4-17 6-17 4-7 1-2 1-2 1-1 2 0 2-1 2 1 2 0 1 2 2 1 1 2 0 2 0 2-1 1z"  fill="#fff500" /><path d="M103-155l-5 3-12 6-12 6-12 6-13 7-12 8-15 8-14 11-8 5-9 6-9 6-9 6-10 5-9 4-10 4-18 8-17 6-15 5-14 7-14 6-14 6-14 6-14 6-14 6-14 6-13 4-13 3-10 2-14 3-15 2-14 0-12 0-12 3-9 3-12 4-12 4-11 5-11 4-11 6-12 5-12 1-20-12 1 0-1 0 16-15 10-4 11-5 11-5 11-4 12-5 12-4 13-4 12-3 14-1 13 0 11 0 13-1 14-2 14-2 11-3 13-4 14-5 13-6 15-6 14-6 14-6 15-5 15-7 17-5 16-6 17-7 18-9 8-6 9-6 16-11 16-12 14-8 14-8 14-7 13-5 12-5 13-5 6-2 2 0 2 0 1 0 2 1 2 1 1 1 1 2 0 2 0 2-1 2-1 2-1 1-2 1z"  fill="#fff" /><path d="M104-155l-6 3-12 6-11 6-10 5-10 5-10 5-10 4-12 4-12 3-11 1-12 0-11 0-12-1-12-2-12-1-11 0-12 1-13 1-13 1-10 0-14 1-9 5-1 11 1 12 2 13 0 14-3 12-4 10-5 10-6 11-8 13-11 13-12 12-12 12-11 13-10 15-7 16-3 14 0 13 3 13 6 53 0 0 0 0-29-47-3-17 0-19 5-19 3-9 5-10 5-9 5-9 6-9 12-14 11-12 9-10 7-11 6-11 5-10 5-11 1-10-1-10-1-11 0-14 1-11 4-10 7-8 10-7 12-3 12-2 12 0 11 0 11-1 13-1 14-1 14 1 12 2 11 1 10 1 15 1 14-2 14-3 10-4 10-4 10-3 11-4 12-5 11-4 6-3 2 0 2-1 2 1 2 0 1 2 2 1 1 2 0 2 0 2-1 1-1 2-1 2-1 1z"  fill="#fff" /><path d="M106-167l5 6 11 13 6 8 7 9 6 9 7 10 7 10 7 12 6 13 6 13 5 14 5 15 4 16 4 17 1 18 2 19 1 18 0 18 1 19 2 18 3 18 4 18 5 19 4 19 4 19 3 19 3 18 3 18 3 17 2 16 3 17 2 16 3 14 2 14 3 13 3 13 4 11 3 10 4 10 3 9 4 10 3 10 8 18 9 18 4 9 9 17 9 15 10 12 10 8 10 6 11 4 12 3 12 2 11 0 11-2 11-3 11-4 10-4 12-7 10-9 11-10 8-8 7-6 8-7 12-10 8-10 30-22 0 0 0 0-7 38-8 10-9 9-8 7-12 9-11 9-7 7-8 7-9 7-11 7-12 5-12 4-13 4-14 2-15 1-15-2-14-4-13-5-14-7-13-10-10-13-11-16-5-8-4-9-4-10-8-18-4-10-4-9-3-10-4-10-3-10-2-10-3-11-3-11-2-11-2-13-2-13-2-15-2-15-2-15-1-17-2-17-2-17-3-17-3-19-3-19-4-19-5-18-5-19-5-18-3-19-3-18-1-18-1-18-2-18-3-18-3-18-4-15-5-16-5-14-6-13-6-12-6-11-7-11-7-10-7-10-7-9-11-16-10-15-5-6-1-2 0-1 0-2 0-2 1-1 1-2 1-1 2 0 1-1 2 0 2 1 1 1 2 1z"  fill="#c2e1ff" /><path d="M98-170l7-3 18-3 17-3 17-4 17-4 17-5 19-5 18-5 18-4 15-5 14-6 13-5 11-5 9-5 12-8 8-6 9-10 8-8 9-10 10-9 9-9 12-11 14-10 15-10 16-9 16-8 13-7 12-9 12-11 14-12 15-12 9-5 9-5 10-4 10-3 10-3 11-3 11-2 12-1 12-2 12-2 13-1 12-2 12-3 13-2 12-3 12-2 11-3 10-3 10-3 18-6 18-4 17-4 18-1 17-1 17 0 55 12 0 0 0 0-55 9-16 0-17 0-16 1-16 2-17 4-19 5-10 2-10 3-11 3-12 3-13 2-12 3-13 3-12 3-13 2-12 2-12 2-11 3-10 2-10 3-9 3-16 5-15 9-14 12-13 11-13 12-15 11-15 9-14 7-15 8-13 10-12 10-10 10-10 9-9 9-9 8-7 9-9 8-9 8-10 6-10 6-11 5-12 4-13 5-15 5-17 5-18 4-18 5-19 5-17 4-18 4-18 3-18 3-15 2-8 1-2 0-2 0-1 0-2-1-1-2-1-1-1-2 0-2 1-2 0-2 2-1 1-1 2-1z"  fill="#005bbb" /><path d="M92-165l1-6 3-13 1-11 1-11-2-14-5-9-10-1-9 6-8 11-8 10-10 12-7 8-7 12-4 12 0 11 1 14 0 14 0 12-1 14-1 14 1 14 2 11 3 14 2 14 3 14 2 13 3 13 3 11 3 10 4 11 7 9 12 24 0 0 0 0-27 1-10-11-7-11-4-10-3-11-3-11-3-13-3-13-3-14-2-13-3-14-4-13-2-14 0-13 1-14 1-11 0-14 0-12-1-13 0-12 2-14 5-12 7-12 7-10 7-8 10-11 9-11 8-10 11-7 14-4 13 1 11 6 10 11 4 10 2 12 0 13-2 12-3 13-4 12-2 7-1 1-1 2-2 1-1 1-2 1-2 0-2-1-2-1-1-1-1-2-1-2 0-2 0-1z"  fill="#005bbb" /><path d="M105-169l5 3 11 6 12 5 14 4 14 2 17 2 18 3 20 5 9 3 10 4 9 5 10 5 11 5 10 6 11 6 10 6 10 7 10 7 10 8 9 10 9 10 8 10 9 9 9 9 9 8 9 9 10 9 9 9 9 9 9 9 10 10 10 11 8 13 7 14 6 16 5 15 5 15 4 15 5 16 5 15 6 16 6 16 6 15 7 16 7 16 7 17 6 16 7 17 5 16 5 16 5 15 5 14 6 13 5 13 6 12 6 12 6 11 6 10 6 10 6 9 6 8 11 16 9 15 8 15 7 15 8 17 7 18 4 10 5 10 4 11 5 10 5 10 6 9 5 10 5 9 5 10 4 9 8 18 5 18 2 57 0 0 0 0-24-60-5-17-7-17-4-9-5-9-6-10-5-10-6-10-5-10-5-10-5-11-5-10-7-19-7-16-6-15-7-14-7-15-10-17-5-9-5-10-6-10-5-11-6-12-5-12-6-12-5-14-5-14-4-14-5-15-4-16-6-16-6-16-7-17-7-16-8-16-7-15-7-16-6-16-6-15-6-16-5-16-5-15-5-14-5-15-6-14-7-12-8-12-9-10-10-9-10-9-9-9-9-9-9-8-10-9-9-9-10-9-9-9-9-10-8-9-9-8-9-7-9-7-10-6-10-6-10-5-10-5-10-5-10-4-9-4-17-7-18-4-17-3-17-2-17-3-15-6-15-7-11-8-5-4-1-1-1-2-1-2 0-2 0-1 1-2 1-2 1-1 2-1 2-1 2 0 2 1 2 1z"  fill="#005bbb" /><path d="M106-158l-3 5-6 10-9 11-8 12-10 14-7 14-5 14-2 13-1 12 1 11 2 14 4 12 5 11 6 12 5 8 8 10 7 9 9 6 10 4 10 2 10 1 11 0 11 1 18 9 0 0 0 0-8 11-7 9-11 3-10 0-11-2-11-1-10-3-10-4-10-5-8-8-8-9-6-8-8-10-6-11-5-11-4-12-4-14-2-11-1-12 1-13 1-15 4-15 6-17 9-17 10-14 10-13 9-10 8-8 4-4 1-2 2-1 1 0 2 0 2 0 2 1 2 1 1 1 1 2 0 2 0 2-1 2-1 1z"  fill="#c2e1ff" /><path d="M102-155l-4 2-13 4-13 4-13 3-12 0-10 1-12 2-12 0-10 0-12-1-10-1-8 8-8 7-7 10-3 11-1 12 0 13 2 10 2 11-3 10-9 12 0 0 0 0-7-8-8-5-5-10-3-12-1-11 1-11 1-12 2-12 5-13 6-10 9-9 8-8 8-6 12-5 13 0 10 1 11 2 12 1 11 0 13-1 14 1 10 0 13-2 12-2 5-1 1 0 2 0 2 0 2 1 1 2 1 1 1 2 0 2-1 2 0 2-2 1-1 1-2 1z"  fill="#c2e1ff" /><path d="M107-166l4 6 6 11 6 11 5 12 4 11 4 12 6 11 8 10 11 11 12 9 11 6 11 5 9 4 11 2 13 1 12-2 10-2 10-5-3-4 0 0 0 0-1-10 7-9 11-2 10 3 7 10 2 12-4 11-6 8-8 6-10 5-11 3-12 2-12 1-12-1-13-3-10-3-11-5-11-6-14-8-14-11-13-13-11-14-7-15-4-13-3-11-2-10-5-11-5-12-2-6-1-2 0-2 0-2 1-1 1-2 1-1 2-1 2 0 2 0 2 0 2 1 1 1 1 2z"  fill="#fff500" /><path d="M98-170l6-3 13-5 11-8 12-8 11-10 12-12 14-14 9-7 9-7 9-7 9-8 9-7 7-8 8-7 7-8 7-8 7-9 7-9 7-10 8-10 7-10 9-11 8-11 9-12 9-11 9-10 10-10 9-9 10-8 10-8 9-7 11-8 10-6 11-7 12-5 13-4 14-4 14-2 14-1 16 0 16 0 16 2 17 2 18 4 18 4 18 3 18 4 18 4 17 4 17 3 18 2 19 1 20-1 20-1 20-3 19-5 18-6 16-8 14-9 14-9 13-11 12-10 11-11 11-11 10-11 10-10 10-11 10-10 10-9 10-8 10-8 10-7 9-7 9-6 9-6 15-11 14-11 11-11 10-12 9-12 9-14 9-15 39-41 0 0 0 0-21 53-9 14-10 15-11 13-12 13-14 11-15 11-16 10-9 5-9 6-10 6-9 6-11 7-10 8-10 8-10 9-11 10-10 10-10 11-12 10-12 11-13 10-13 10-14 9-16 9-16 7-18 6-19 6-20 3-21 2-20 1-19 0-19-1-17-3-18-4-17-4-18-3-18-3-18-3-18-2-17-1-15-1-16 1-15 1-13 1-13 2-12 3-11 4-11 5-11 6-10 6-10 7-9 7-10 7-9 8-9 8-9 9-8 10-9 11-8 12-8 11-8 11-7 11-7 11-7 10-8 10-7 9-7 8-8 9-8 8-8 8-8 8-9 8-9 7-9 7-14 14-7 7-13 13-13 11-14 8-14 8-15 5-7 1-2 0-2 0-1 0-2-1-1-2-1-1-1-2 0-2 0-2 1-2 2-1 1-2 2 0z"  fill="#005bbb" /><path d="M106-158l-3 6-7 12-5 12-2 12 0 12 3 12 4 12 6 10 7 12 8 9 8 9 8 7 8 7 12 9 13 7 10 6 9 5 9 6 12 7 9 5 9 6 8 8 7 10 4 11 3 12 1 12-1 11-1 11-2 10-2 10-1 14 2 12 3 11 5 11 5 9 5 11 4 10 3 10 3 11-4 9-11 14 0 0 0 0-15-17-2-10-3-11-4-10-5-10-6-13-4-10-2-10-2-12 0-12 1-12 2-10 2-15 1-12-1-11-3-10-7-9-10-8-9-5-9-5-8-6-9-5-9-6-10-5-9-7-10-8-9-8-8-9-9-10-9-11-7-13-8-14-4-16-2-16 1-16 4-15 7-15 9-12 5-6 1-1 2-1 2 0 2-1 1 1 2 1 2 1 1 1 1 2 0 2 0 2-1 2-1 1z"  fill="#fff" /><path d="M95-157l-5-3-11-8-10-7-10-5-11-5-14-3-12 0-11 5-10 6-13 7-15 8-17 7-15 9-13 10-10 12-8 11-6 13-5 13-2 13-3 15-2 17 1 18 4 19 3 10 3 10 3 10 4 12 3 11 4 12 4 13 3 13 3 14 3 13 1 14 1 14-1 15-1 14-2 14-1 13-1 13-1 13 0 13-1 13-1 13-2 13-1 13-2 13 0 11-1 11 0 11 1 10 0 10 1 10 1 20 1 19 1 20 2 17 1 17 0 16 1 13 3 12 4 48 0 0 0 0-28-50-1-16 0-14 0-16-1-18 0-18-1-19 0-11-1-10 0-20 0-10 0-11 1-11 1-11 1-12 1-12 2-13 1-14 2-13 1-12 0-13 1-13 1-13 1-14 1-13 2-14 0-13-1-13-2-13-3-13-3-12-4-13-4-12-5-12-4-11-4-11-4-10-4-11-3-11-3-11-2-11-2-11 0-11 2-19 2-16 4-15 6-15 7-16 11-15 12-13 15-12 9-6 17-9 15-8 14-8 12-7 12-5 12-4 13 0 13 2 12 5 12 6 12 8 10 9 10 9 4 5 2 1 1 2 0 2 0 2-1 1 0 2-2 2-1 1-2 0-2 1-2-1-2 0-1-1z"  fill="#fff500" /><path d="M95-156l-5-4-9-4-13-1-10 2-11 3-10 3-13 7-11 6-9 5-8 7-4 11-1 11-2 11 0 12 1 11-1 11-1 10-2 10-2 10-5 10-6 9-18 11 0 0 0 0-9-20 2-11 5-11 2-10 3-10 1-11 0-12 0-12 2-12 2-11 4-12 7-11 8-7 9-7 11-5 12-5 10-5 11-3 13-3 14-2 14 0 14 5 11 7 4 4 1 2 1 1 1 2 0 2 0 2-1 2-1 1-2 2-2 0-2 1-2-1-1 0-2-1z"  fill="#005bbb" /><path d="M92-164l1-7 2-12 0-14-1-13-3-12-5-11-6-11-7-9-8-9-8-9-8-9-7-9-6-9-9-11-7-11-6-10-3-13-2-13-1-11-2-12-5-11-6-9-8-8-12-4-10-2-9-5-9-3 0 0 0 0 5-7 6-9 9-6 10 0 10 2 10 4 8 5 8 7 8 10 7 11 5 11 3 12 1 12 1 14 1 11 5 11 5 9 7 11 6 8 7 9 7 9 7 9 8 10 9 12 6 13 6 15 3 16 0 16-2 16-3 13-2 6-1 2-1 2-1 1-2 1-2 0-2 0-2 0-2-1-1-1-1-2-1-2 0-1 0-2z"  fill="#005bbb" /><path d="M105-169l6 4 11 9 11 8 11 8 12 8 12 5 12 4 12 4 11 3 12 3 11 4 10 6 9 7 9 9 9 6 11 6 9 4 10 4 11 3 6 8 10 6 0 0 0 0-4 8-10 5-10 2-10-3-10-4-10-5-9-5-10-6-11-9-9-10-8-7-12-6-10-3-12-4-13-4-13-6-15-7-12-9-12-10-10-9-11-10-4-4-2-2-1-1 0-2 0-2 0-2 1-2 2-1 1-2 2 0 2-1 2 1 2 0 1 1z"  fill="#005bbb" /><path d="M104-169l5 2 9 4 13 4 11 1 10-6 10-5 12-6 10-5 12-3 10-3 11-4 10-1 9-6 9-6 11-3 10-3 11-1 8 6 11 3 0 0 0 0-6 12-7 7-10 5-10 2-10 4-8 6-12 3-11 2-11 3-10 1-12 4-11 4-11 4-10 5-14 3-10-1-14-5-9-5-9-6-5-3-1-1-2-1 0-2-1-2 0-2 1-1 1-2 1-2 1-1 2 0 2 0 2 0 2 1z"  fill="#fff" /><path d="M99-155l-5 0-15 2-14 1-12 0-12-2-12-5-11-7-9-7-12-9-7-7-10-10-10-12-8-9-6-9-8-11-8-12-5-13-5-11-5-12-5-8-7-9-8-8-8-7-7-8-6-10-6-10-6-9-8-9-10-9-9-8-9-9-25-42 0 0 0 0 46 21 8 7 12 10 9 8 8 8 7 9 7 11 6 11 6 8 8 7 9 10 7 10 6 10 5 10 4 11 4 10 4 9 7 11 8 12 9 12 10 11 9 10 8 9 10 8 9 7 10 7 11 3 11 1 14 1 12 1 6 1 2 0 1 1 2 1 1 2 1 1 0 2 0 2-1 2-1 2-1 1-2 1-2 0-2 0z"  fill="#fff" /><path d="M102-170l6 1 12 3 10 3 12 7 10 8 9 7 10 9 8 8 8 10 5 10 3 11 3 12 5 11 7 11 7 10 8 8 9 6 11 5 10 3 10 2 12 5 10 6 7 7 2 11-4 17 0 0 0 0-14-6-10-3-10-6-10-2-11-4-11-5-10-5-9-6-8-8-7-8-7-10-7-12-5-11-4-12-2-12-4-11-7-9-7-10-8-8-9-9-8-7-10-6-10-4-6-2-1 0-2-1-1-2-1-1-1-2 0-2 1-2 0-2 2-1 1-1 2-1 2 0 2 0z"  fill="#c2e1ff" /><path d="M103-170l4 2 13 3 10 4 11 6 10 7 8 8 7 8 7 9 10 3 11 1 12 3 11 3 11 5 9 4 11 7 8 7 7 10 4 12 3 11 4 10 9 7 9 7 16 28 0 0 0 0-36-2-8-6-10-7-8-10-5-10-3-13-3-12-7-7-9-6-9-5-11-3-11-4-11-2-11-3-9-6-8-9-5-8-6-9-7-8-9-6-9-7-11-5-5-2-1-1-2-1-1-2 0-2-1-1 1-2 0-2 1-1 2-2 1-1 2 0 2 0 2 0z"  fill="#fff500" /></svg>