<svg width="1200" height="675" viewBox="-500 -500 1200 675" xmlns="http://www.w3.org/2000/svg"><path d="M-500-500h1200v675h-1200z" fill="#000"/><path d="M95-156l-5-3-9-7-10-8-8-9-8-8-8-8-12-8-13-8-9-5-9-7-8-6-9-6-10-10-6-9-6-11-5-9-8-7-10-5-10 3-5 10 0 0 0 0-5-3-8-7-4-9 2-10 7-9 9-5 10-1 12 3 11 4 9 6 10 9 7 11 5 11 5 10 7 8 11 8 12 10 9 5 8 6 9 7 10 8 8 9 8 9 7 9 6 8 8 7 5 4 1 1 1 2 1 2 0 2 0 2-1 2-1 1-2 1-1 1-2 1-2-1-2 0-2-1z"  fill="#c2e1ff" /><path d="M108-160l-2 5-3 11-3 10-4 9-7 12-7 10-7 9-7 9-7 10-7 10-10 10-9 6-13 5-12 3-13 1-11 2-11 2-12 2-13 3-13 1-12 0-12 1-10 3-11 2-12 1-11 1-10-2-10-5-5-10-6-14 0 0 0 0 16-3 10-1 11 3 11-1 11-2 11-2 11-1 13 0 13-1 11-2 13-3 13-2 13-1 10-1 12-2 11-6 7-7 8-10 8-9 7-8 8-9 7-8 7-10 6-12 4-9 3-5 0-2 2-1 1-1 2-1 2 0 2 0 1 0 2 1 1 2 1 1 1 2 0 2 0 2z"  fill="#fff500" /><path d="M99-170l6-2 13-5 13-5 15-7 17-6 18-7 11-2 11-2 11-2 11-1 10-1 10 0 19 1 17 2 16 3 17 4 14 6 12 7 10 8 9 9 8 11 5 13 3 12 1 14-2 13-3 12-2 10-3 10-4 11-5 15-9 14-13 16-7 7-8 6-9 6-9 4-18 8-18 7-18 7-10 4-11 2-11 2-11 1-11 0-10-1-11-2-10-3-19-6-10-3-10-4-9-4-18-7-18-6-19-5-10-2-10-3-19-5-18-6-17-7-43-36 0 0 0 0 52 17 15 6 17 6 18 6 19 5 10 2 11 2 10 3 10 4 18 8 17 6 10 3 19 6 17 4 17 1 18-2 19-6 18-8 17-7 16-8 14-8 11-11 9-12 7-13 4-10 4-12 4-14 3-10 2-13 0-14-4-12-7-11-12-11-8-6-11-5-14-4-15-3-16-2-17-2-18 1-10 1-10 2-20 4-18 6-15 6-16 6-14 5-16 3-7 1-1 0-2 0-2-1-2-1-1-1-1-2 0-2 0-2 1-2 1-1 1-2 2-1 2 0z"  fill="#005bbb" /><path d="M107-167l4 5 7 11 8 11 10 9 10 7 11 4 13 3 14 2 15 1 15 0 14-2 14-4 14-5 13-7 13-6 12-7 9-6 9-7 8-7 8-7 9-8 9-9 1-11-5-10-4-11-3-10-3-10 4-10 5-14 0 0 0 0 17 11 6 10 3 11 3 10 4 10 3 10 1 11-4 10-7 10-9 9-10 9-12 8-9 7-9 8-12 7-13 7-13 6-15 7-16 7-18 4-17 2-17 0-16-2-16-2-15-4-16-7-13-10-11-13-8-12-6-12-3-5-1-2 0-2 0-2 0-1 1-2 2-2 1-1 2 0 2-1 2 1 2 0 1 1 2 2z"  fill="#fff" /><path d="M103-155l-6 3-9 6-10 6-10 7-11 7-9 7-10 6-9 5-13 7-11 8-8 8-7 8-8 8-8 7-9 6-11 6-12 7-12 7-10 4-10 3-11 1-13-1-12-4-12-4-11-4-12-3-13-4-12-3-13-2-13-3-14-2-15-2-14-2-14-2-16-4-15-6-13-5-13-6-13-5-12-7-12-6-36-34 0 0 0-1 42 10 11 6 12 6 12 5 12 5 14 6 12 5 12 4 13 2 14 2 16 2 13 2 15 2 14 2 13 2 14 4 12 3 14 3 12 4 13 4 12 1 10-3 10-6 10-6 10-5 10-5 9-5 7-7 9-9 7-6 9-7 10-6 9-5 13-6 10-5 10-6 10-6 11-6 12-6 12-5 6-2 2-1 2 0 2 1 2 1 1 1 1 2 1 1 0 2 0 2-1 2-1 2-1 1-2 1z"  fill="#fff" /><path d="M100-154l-6 0-13 1-15-1-14-1-14-1-13 1-14 3-13 2-14 2-14 2-13 2-12 3-12 6-13 7-14 8-14 9-14 10-14 12-13 12-13 12-13 11-13 12-14 12-8 7-9 7-9 8-10 8-11 7-10 8-11 7-11 6-11 6-12 6-11 4-10 4-10 4-19 5-15 5-14 4-14 4-11 5-12 4-10 6-11 8-7 9-6 10-7 11-10 11-10 9-13 7-30-8 0 0 0 0 26-22 10-8 7-7 7-11 9-12 9-8 10-7 11-6 13-5 13-5 13-3 15-4 14-3 17-4 19-5 10-3 10-5 11-5 10-5 10-6 10-8 10-8 9-7 10-9 9-8 8-7 7-7 14-13 13-11 13-12 13-11 13-13 14-13 15-12 16-10 14-9 14-7 15-7 16-4 15-2 13-1 13-2 14-2 15-2 16-1 16 2 14 3 12 1 13 1 6 0 2 1 2 0 1 1 2 2 1 1 0 2 0 2 0 2-1 2-1 1-2 1-2 1-2 1z"  fill="#fff" /><path d="M107-167l4 5 9 11 7 11 7 10 7 10 5 9 3 10 5 12 5 12 5 11 7 11 8 8 11 7 13 8 12 6 13 4 13 0 13 0 14-3 10-3 13-6 13-8 8-5 9-6 12-7 9-6 9-9 3-10-3-12-5-13-5-10-6-12-8-13-8-17-4-10-8-19-4-10-22-74 0 0 0 0 43 64 5 10 5 10 4 9 8 15 9 15 8 12 7 12 5 12 4 10 4 12 0 14-3 12-6 10-7 9-8 7-12 7-12 7-11 7-9 6-11 6-12 6-13 4-10 3-12 2-12 1-11-1-12-1-12-3-11-5-10-5-9-6-10-6-9-7-9-8-6-9-6-10-5-14-5-13-4-14-3-11-6-12-6-11-7-11-7-12-4-6-1-1 0-2 0-2 0-2 1-2 2-1 1-2 2 0 2-1 2 1 2 0 1 1 2 2z"  fill="#fff500" /><path d="M107-159l-2 6-5 13-2 12-2 13-1 14 1 14 0 16 1 16 1 15 2 14 4 14 5 15 5 14 5 13 5 11 4 11 8 13 7 10 8 9 7 10 6 8 5 10 4 10 1 13-2 10-4 10-6 9-6 9-11 4-11-1-9-10 0 0 0 0 7-3-1-10 7-9 6-9-1-11-5-11-6-10-7-9-8-12-6-9-5-11-5-11-5-13-5-13-4-15-6-16-4-16-2-16-1-17 0-15 0-16 0-17 1-15 3-15 5-14 6-13 4-6 1-2 1-1 2-1 2 0 2-1 1 1 2 1 2 1 1 1 1 2 0 2 0 2-1 2z"  fill="#fff" /><path d="M102-155l-6 2-12 4-12 2-11 3-11 3-11 2-11 2-12 5-10 8-8 8-10 9-13 8-14 7-18 4-10 2-12 1-12 1-14 2-13 1-15 2-15 1-15 3-16 3-16 6-17 6-18 6-17 7-19 5-18 3-18 2-17 2-18 0-18-1-19-2-18-3-18-5-18-5-18-7-18-6-19-7-19-8-19-8-18-7-18-7-18-8-17-7-16-6-15-8-14-7-13-8-13-7-12-6-12-5-12-5-12-5-11-4-12-4-11-3-11-2-12-2-11-1-12-1-12-1-11-1-10 1-10 1-11 1-10 2-10 2-11 3-11 3-11 4-11 5-11 5-11 7-10 6-9 7-9 8-62 49 0 0 0 0 52-61 9-8 11-8 10-7 11-7 12-6 12-6 12-5 12-3 11-2 11-3 12-1 10-1 12-1 11 0 12 0 12 2 12 1 12 2 12 2 12 4 12 3 11 5 12 5 11 5 12 6 12 6 12 7 13 8 12 8 14 9 14 8 16 7 16 8 18 7 18 7 18 8 19 7 19 7 19 7 19 6 18 6 17 5 18 4 18 3 18 2 18 1 17 0 18-2 17-2 18-4 17-5 17-7 17-8 17-8 16-7 17-6 15-4 15-3 14-3 14-3 14-3 12-2 19-4 14-4 11-5 9-6 9-8 10-8 10-8 12-6 12-4 11-1 11-1 11-2 12-2 11-1 12-1 6-1 2-1 2 1 2 0 1 1 2 2 0 2 1 2 0 1 0 2-1 2-2 2-1 1-2 0z"  fill="#c2e1ff" /><path d="M97-155l-6-2-12-5-13-6-14-7-15-10-17-10-9-4-10-5-10-4-11-4-11-3-10-4-11-3-9-4-10-3-10-4-9-5-9-6-9-7-9-8-7-8-7-9-5-10-6-9-6-9-5-9-6-9-5-9-9-17-7-17-5-16-4-15-4-14-5-14-5-16-4-16-4-18-3-19-1-19 0-19-1-17-1-16 0-15 0-15 2-13 2-13 1-11 1-15-1-13-1-12-3-13-6-8-27-18 0 0 0 0 23-14 10 2 9 5 7 7 6 9 4 9 3 14 1 13 1 10-1 11 0 11-2 11-2 12-2 12-2 12 0 14 0 15 0 17 1 18 0 18 2 17 4 16 5 17 3 16 5 15 4 14 4 15 3 15 5 15 7 16 8 16 6 9 5 9 6 9 6 9 11 16 13 14 15 11 17 8 18 7 10 4 11 3 11 3 11 4 12 4 11 4 10 5 10 6 9 5 14 9 12 8 12 6 11 6 5 3 2 1 1 2 1 1 1 2 0 2 0 2-1 2-1 1-2 1-2 1-1 1-2-1-2 0z"  fill="#fff" /><path d="M97-155l-7-2-13-7-14-8-14-10-13-11-12-10-12-8-13-6-12-5-13-6-12-5-11-5-11-4-10-3-11-5-13-4-12-3-12 0-11 0-14 2-14 4-10 3-13 5-10 8-11 8-12 10-9 7-13 6-15 5-14 1-13 0-14 0-13-1-13-1-11 0-12 1-12 1-12 2-10 2-10 4-12 8-8 8-28 19 0 0 0 0 7-37 9-9 9-7 12-7 14-5 13-3 13-2 13-1 13-1 14 0 13 1 12 1 12 0 12-1 11-1 12-4 9-6 11-8 12-10 8-6 10-6 12-6 11-4 10-2 12-3 12-2 12-1 11 0 11 1 11 3 10 3 11 5 9 4 10 4 12 5 12 5 11 6 12 6 14 6 13 8 14 9 14 11 11 11 12 9 13 9 10 7 6 3 2 1 1 2 1 1 1 2 0 2 0 2-1 2-1 1-2 1-2 1-1 1-2-1-2 0z"  fill="#fff" /><path d="M93-166l2-4 3-12 2-12 2-13 2-14 1-10 0-11 1-12 1-13 3-14 4-15 6-17 3-16 0-17 0-19-4-19-5-18-7-15-10-15-11-15-13-14-13-11-15-8-14-4-14-3-13-1-12-1-12 0-11 2-12 3-11 5-11 5-10 6-10 6-12 6-11 8-8 6-9 8-7 8-6 10-25 11 0 0 0 0 2-30 6-8 7-9 10-8 9-7 8-6 12-6 12-6 10-5 10-5 13-7 14-6 15-3 15-2 13 1 14 1 14 2 16 4 17 6 17 10 9 6 8 7 8 8 7 8 6 8 6 8 11 17 4 9 4 10 4 9 3 10 2 11 2 11 1 10 1 11 0 10 0 10-2 10-4 19-4 15-3 12-2 12-2 12-1 12-1 11-2 10-2 10-4 14-4 12-6 13-3 5-1 1-1 2-2 1-2 0-1 0-2 0-2-1-1-1-2-2 0-1-1-2 0-2 1-2z"  fill="#005bbb" /><path d="M100-155l-8 1-15 3-14 5-12 8-12 10-12 12-11 14-10 16-9 19-5 10-4 10-4 9-6 19-6 18-4 10-4 9-5 10-5 8-6 9-7 9-6 8-7 8-7 8-6 8-7 9-7 7-12 16-13 15-7 8-14 13-13 11-11 11-7 11-3 11-1 10 2 11 4 13 7 17 3 11 3 11 3 12 3 11 3 11 4 12 3 12 4 11 4 11 4 12 4 12 3 11 3 12 2 12 2 10 1 10 2 19 1 18 1 17 0 16 0 15 0 14 1 13 1 13 0 14-13 48 0 0 0 0-11-42 0-12 0-13 0-14 0-15 1-15 1-14 0-16 0-16-1-18-2-19-1-10-2-11-2-11-3-11-4-11-5-11-4-12-5-12-4-12-3-11-4-11-4-12-3-10-4-10-3-10-8-18-6-17-1-16 2-16 6-15 11-14 12-13 14-11 13-11 13-14 12-15 6-8 7-8 6-8 7-8 7-8 6-8 6-8 11-16 10-16 7-17 6-18 3-10 4-10 4-10 4-10 5-10 4-11 5-10 5-10 6-9 13-15 14-14 14-11 16-9 18-5 18-2 8 0 2 1 2 0 1 1 1 2 1 2 1 1 0 2-1 2 0 2-2 1-1 1-2 1-2 0z"  fill="#005bbb" /><path d="M93-159l-3-5-5-9-7-11-7-9-9-9-9-9-9-6-11-3-10 2-9 6-8 8-8 7-9 5-9 6-9 6-9 4-4 6 0 0 0 0-9-11-2-11 3-11 8-7 9-6 10-5 9-7 7-7 11-6 10-5 12-3 12 1 11 3 10 6 10 8 8 10 7 8 7 10 7 13 4 9 3 10 2 5 1 2 0 2 0 2-1 2-1 1-2 1-2 1-2 0-1 0-2 0-2-1-1-2-1-1z"  fill="#005bbb" /><path d="M94-167l3-6 4-10 3-10 2-11 1-11 0-11-1-12 0-11 1-10 0-13-4-12-5-9-8-11-8-10-9-8-12-5-12-4-11-4-11-3-11-2-10 1-11 7-9 6-8 7-10 9-9 8-9 6-11 7-14 5-15 4-16 2-14 3-12 4-12 5-12 4-43 2 1 0-1 0 40-29 11-4 14-6 15-4 15-3 13-4 11-3 13-7 11-9 9-9 11-10 8-6 10-6 12-7 10-4 14 1 10 1 10 3 11 4 10 4 11 4 10 4 10 6 9 7 8 9 6 8 8 13 7 14 3 10 1 10 0 10-1 15-1 11 0 12-1 13-3 12-3 13-5 12-7 12-5 5-1 2-1 1-2 0-2 1-2-1-2 0-2-2-1-1-1-2 0-2 0-2 0-1 1-2z"  fill="#c2e1ff" /><path d="M92-162l-1-8-3-16-5-16-6-14-9-14-12-14-6-8-7-8-7-8-6-9-7-8-7-9-6-8-7-8-7-8-8-9-7-9-7-8-8-10-7-10-7-10-7-9-8-10-7-10-6-12-6-11-6-11-7-12-9-12-9-11-10-11-11-11-11-11-12-10-12-9-14-8-15-6-18-6-19-6-20-6-20-8-23-7-25-6-26-5-28-3-29-4-29-6-32-6-32-6-33-6-34-6-36-6-39-5-41-7-44-6-43-5-44-4-45-3-47-2-49 0-50 1-50 4-50 10-46 15-46 19-44 23-46 26-46 27-46 26-45 25-43 24-42 23-41 22-40 21-40 18-41 14-40 14-38 12-39 9-37 5-36 2-36 0-35-2-35-3-36-6-36-9-35-12-34-14-33-16-210-135 1 0-1 0 211 133 33 17 34 13 35 12 36 9 36 6 34 3 35 2 36 0 36-2 37-5 38-9 39-12 40-13 40-15 41-18 40-21 40-21 42-23 43-25 45-25 46-26 46-27 46-26 45-23 45-19 47-15 50-10 50-5 50-1 49 1 47 2 46 3 43 3 44 6 43 6 41 7 39 5 36 6 34 6 33 6 33 5 31 7 30 6 29 3 28 4 26 4 25 5 23 7 21 6 20 6 19 4 19 5 17 6 15 8 14 9 12 11 12 10 11 11 11 11 11 11 10 12 8 13 7 11 6 11 6 10 6 10 7 9 8 10 7 9 7 10 7 9 8 8 8 9 7 8 8 8 7 9 6 8 7 8 8 9 6 8 7 8 6 8 7 8 6 8 7 8 10 16 7 18 4 18 1 18 1 8 0 2-1 1 0 2-2 2-1 1-2 0-2 0-2 0-2 0-1-2-2-1 0-2-1-2z"  fill="#005bbb" /><path d="M108-161l-1 6-1 13-1 12-2 11 0 11-1 10 1 14 1 13 1 10 2 12 2 13 0 10-2 11-6 11-9 10-8 8-9 8-10 7-8 5-9 6-8 8-6 9-7 8-10 6-10 3-11-5-14-5 0 0 0 0 11-18 10-5 8-6 6-8 8-8 8-6 11-6 10-7 11-8 8-8 8-10 1-11-2-13-1-11-1-13 1-15 0-10 2-11 2-12 2-11 3-12 3-13 1-6 1-2 1-1 1-2 2-1 2 0 1 0 2 0 2 1 2 1 1 1 1 2 0 2 0 2z"  fill="#fff500" /><path d="M100-170l5-1 14-2 12-3 12-5 14-6 13-4 11-4 11-6 8-8 7-8 5-9 4-9 6-12 4-11 3-10 3-10 1-12 3-10 4-9 7-11 5-9 6-8 6-8 2-13 2-13 2-13 1-11-2-12 4-38 0 0 0 0 26 31 2 12 1 12 0 11-2 10-2 11-1 11-3 12-6 11-8 10-5 9-7 10-4 9-2 10-3 12-3 11-5 11-5 11-5 11-7 12-8 12-9 9-12 9-12 6-12 3-12 4-13 4-15 4-14 3-11 0-11 0-5-1-2 0-2-1-1-1-1-1-1-2-1-2 0-2 1-1 1-2 1-1 1-2 2 0 2 0z"  fill="#fff500" /><path d="M92-164l1-7 2-15 4-17 4-17 5-17 4-19 4-17 3-18 3-16 1-18 2-17 5-16 6-14 9-14 11-12 12-10 12-9 12-8 11-7 11-7 13-6 12-4 11-3 11-2 10-2 11-2 13 0 12-1 10 0 11-2 12-2 11-1 10-2 12-5 10-6 10-6 12-2 20 3 0 0 0 0-7 14-4 10-11 5-11 5-10 5-13 5-14 3-13 2-10 1-12 1-13 1-12-1-12 1-12 1-10 1-10 2-14 4-10 5-11 6-11 7-11 7-12 8-10 8-8 8-7 11-6 12-4 12-3 15-1 18-3 19-4 18-4 17-5 19-4 18-5 16-5 15-4 15-1 7-1 2-1 1-1 2-2 1-2 0-1 0-2 0-2-1-2-1-1-1-1-2 0-2 0-2z"  fill="#fff" /><path d="M103-169l7 2 17 5 10 3 10 2 10 2 12 2 12 1 12 0 12-1 14-2 14-2 15-2 17-1 18-1 18-1 21-1 20-3 20-4 20-4 20-4 21-4 21-3 23-1 24 1 25 0 26 0 27 2 26 1 27 3 26 4 25 4 26 4 25 4 24 3 24 2 24 1 23 0 23 0 23 0 24 1 24 1 23 2 23 2 21 3 21 3 20 3 19 2 19 2 17 1 17 0 17-2 16-3 15-4 15-5 14-5 13-7 12-7 12-7 12-7 11-8 11-8 10-8 9-8 8-9 8-10 8-8 7-9 7-8 13-14 13-12 15-10 14-9 14-6 12-6 10-7 9-10 6-10 3-9 16-25 0 0 0 0 8 33-6 13-5 9-9 10-10 8-12 7-14 6-13 6-13 6-13 8-13 10-14 13-7 7-8 8-8 8-8 10-9 9-11 9-10 8-12 8-12 7-12 6-12 7-14 7-13 6-15 5-16 5-15 3-17 2-17 1-17 0-18-2-18-2-19-3-20-3-21-4-21-2-23-2-23-2-24-1-24-1-23 0-23 0-23 0-24-1-24-2-25-3-24-4-26-4-26-4-26-4-26-2-26-2-27-1-26-1-25 0-24 0-22 1-22 3-20 4-20 5-20 5-20 5-21 4-20 3-18 3-18 2-15 3-15 3-15 3-14 2-14 2-14 0-13-1-12-1-12-3-20-6-17-7-7-3-2-1-1-1-1-1-1-2 0-1 0-2 1-2 1-1 1-1 1-1 2-1 2 0 2 1z"  fill="#fff500" /><path d="M92-162l-1-4-3-13-2-10-3-10-5-10-6-9-4-9-3-8 0 0 0 0 7-2 10 1 10 3 6 9 4 11 2 10 2 11 1 10 1 14 0 5 0 1-1 2-1 2-1 1-1 1-2 1-2 0-2 0-2-1-1-1-1-1-1-2-1-2z"  fill="#c2e1ff" /><path d="M101-171l7 1 13 0 13 2 12 1 11 1 10 0 11 0 10 0 14-1 10-2 11-1 11 0 10 1 10 0 11 0 14 0 13 0 12-2 12-5 10-5 9-6 6-8 1-11 3-10 6-15 0 0 0 0 6 3 9 6 7 7 2 9-1 11-4 11-5 10-7 8-9 6-11 6-11 5-12 4-10 2-11 2-10 0-15 0-11-1-10 0-11-1-13-1-14 1-11 2-12 0-10-1-11-1-12-1-12-2-11-3-12-2-13-2-7-1-2-1-1-1-2-1-1-1-1-2 0-2 0-2 1-2 1-2 1-1 2-1 2 0 2 0z"  fill="#fff" /><path d="M92-165l2-7 3-12 4-13 5-15 4-12 3-12 2-10 1-13 1-14 3-14 2-13 4-13 5-10 4-11 1-12 0-11-1-11-3-10-6-10-5-10-5-14-3-13-4-13-6-12-9-11-8-10-7-8-7-8-8-7-7-8-8-8-8-6-12-27 0 0 0 0 30 3 10 9 9 10 10 10 8 8 9 9 8 9 7 9 8 10 7 11 5 12 3 10 3 13 5 11 6 11 4 10 4 11 1 12 0 10 0 11-1 10-3 11-6 11-5 12-4 10-3 13-2 12-2 14-2 10-4 11-4 13-5 13-5 13-5 13-5 12-2 6-1 2-2 1-1 2-2 0-2 1-2-1-2 0-1-1-2-2 0-2-1-2 0-1 0-2z"  fill="#c2e1ff" /><path d="M103-155l-5 2-12 5-9 5-8 6-9 8-7 7-9 9-8 6-9 6-10 3-8 6-11 4-10-1-11-1-8-1 0 0 0 0 5-16 7-8 11-2 9-5 10-4 10-3 9-7 8-6 10-7 9-6 11-6 12-5 13-3 4-1 2 0 2 0 2 0 2 1 1 2 1 1 1 2 0 2-1 2 0 1-1 2-2 1-2 1z"  fill="#c2e1ff" /><path d="M92-162l-1-7-2-12-2-13-2-14-2-13-2-13-2-12-3-11-4-11-5-10-6-11-6-10-7-11-8-9-8-9-8-9-7-9-7-9-8-11-7-9-7-9-10-10-9-6-11-5-11-3-15-3-10-2-9-3-12-4-10-3-10-3-13-4-9-6-8-8-7-9-3-23 0 0 0 0 19 1 11 6 6 8 9 5 11 4 10 3 11 4 11 4 14 3 10 2 10 2 11 4 13 7 11 9 10 9 7 10 7 10 8 11 7 12 7 8 8 9 8 10 8 11 8 11 7 12 7 12 5 13 4 14 3 12 1 13 2 13 1 14 1 14 1 13 0 14 0 6 0 2-1 2-1 1-1 2-2 1-1 0-3 1-1-1-2-1-2-1-1-1-1-2 0-2z"  fill="#fff500" /><path d="M92-164l1-6 1-14 1-15 0-14 0-15 0-14-1-13-4-12-4-14-4-17-1-18 1-19 2-18 2-17 1-18-1-16-3-17-5-17-8-18-9-17-12-16-13-14-15-13-7-7-14-13-14-12-14-11-14-11-15-11-15-8-14-7-14-7-14-6-13-5-12-4-10-5-10-3-10-4-9-5-12-6-10-7-11-9-10-10-10-11-9-15-7-17-5-17-2-17 4-54 0 0 0 0 22 59 2 14 5 13 7 12 7 10 9 9 9 8 9 7 12 8 10 4 9 5 9 4 10 5 12 5 13 5 14 7 14 7 16 8 16 10 15 12 15 11 15 12 14 12 13 14 15 13 8 7 7 7 7 8 8 9 6 9 6 10 6 10 4 9 4 10 4 10 2 9 4 20 1 19-1 18-1 18-2 18-1 15 1 15 4 15 4 15 3 15 1 16-1 15 0 14-2 16-2 15-3 14-1 7-1 1 0 2-2 2-1 1-2 0-2 1-2-1-2 0-1-1-2-2-1-2 0-2 0-2z"  fill="#c2e1ff" /><path d="M107-158l-4 6-8 13-6 12-3 11-3 11-2 14 0 13 0 12 3 12 4 11 7 9 6 9 8 9 7 9 6 10 6 11 6 12 4 10 3 12 0 12-2 12-3 10-2 10-1 14-3 13-8 12-9 9-11 5-29-8 0 0 0 0 20-23 7-8 2-10 1-13 2-10 4-10 1-11-3-11-5-11-5-9-5-10-7-9-7-10-6-9-6-11-5-10-4-12-1-11 0-14 2-15 1-10 3-10 4-12 5-14 8-13 10-13 4-5 2-2 1-1 2 0 2-1 2 1 2 0 1 1 2 2 1 2 0 2 0 1-1 2 0 2z"  fill="#fff" /><path d="M93-166l2-6 5-11 6-10 5-10 7-9 9-8 10-7 10-4 10-3 13-4 12-2 10-2 10-5 10-6 10-5 13 0 11 4 9 6 7 8 5 11 3 12 1 10 2 17 0 0 0 0-17 3-11-5-5-9-2-10-2-11-9-6-10 6-12 5-11 2-11 2-12 2-12 2-11 3-10 6-9 9-6 8-6 9-7 10-3 5-1 2-1 1-2 1-2 0-2 0-2 0-2-1-1-1-1-2-1-2 0-2 0-2 1-1z"  fill="#fff500" /><path d="M107-166l4 7 6 13 6 15 6 14 7 14 7 13 8 11 8 9 9 8 9 7 9 6 11 8 10 8 9 7 8 6 10 6 11 5 11 5 11 5 10 9 8 11 6 10 5 8 5 12 3 12 2 12 1 14 2 13 5 11 6 9 8 10 8 10 9 10 8 7 9 9 8 8 9 30 0 0 0 0-32-9-7-8-7-7-9-9-10-11-10-12-8-10-6-8-5-10-4-10-2-10-1-14-2-10-2-13-4-11-6-11-6-9-7-8-9-6-10-4-10-5-10-8-12-9-9-8-9-7-10-8-10-7-10-9-10-10-10-11-8-14-7-14-7-15-5-15-6-15-4-14-2-6-1-2 0-2 0-2 1-2 2-1 1-2 2 0 2 0 2 0 2 0 1 1 2 2 0 1z"  fill="#005bbb" /><path d="M99-155l-6 0-14-1-14 0-11 0-13 2-13 1-13 2-12 3-10 3-9 5-7 8-7 9-8 9-9 8-10 8-10 7-9 9-8 7-10 7-10 6-11 4-13 4-12 4-9 7-5 10-1 12 1 11 2 11 5 13 7 10 9 9 42 42 0 0 0 0-60-23-13-12-10-15-7-16-4-15-2-15 1-15 4-13 6-11 8-8 9-7 11-5 9-3 13-4 10-4 9-6 10-10 11-9 9-7 11-8 9-9 8-8 6-8 8-7 11-6 11-4 13-2 14-2 15-1 12 0 15 0 14 1 14 3 10 2 5 2 2 0 2 1 1 2 1 1 1 2 0 2-1 2 0 2-1 1-2 1-2 1-2 0-1 0z"  fill="#c2e1ff" /><path d="M92-165l2-7 3-13 3-15 3-13 3-13 2-11 1-10 2-15 1-13 2-10 1-11 3-13 4-9 7-11 6-9 6-10 8-10 7-8 5-9 4-11 2-10-6-8-9-8-11-16 0 0 0 0 22-10 11 3 9 6 9 9 5 9 2 12-1 10-2 10-4 11-5 11-8 10-7 8-8 10-7 9-6 10-7 10-3 12-2 11-2 11-3 12-2 10-2 11-3 13-4 12-4 14-4 13-5 14-2 7-1 2-1 1-2 1-2 1-2 1-2-1-1 0-2-1-1-2-1-1-1-2 0-2 0-2z"  fill="#fff500" /><path d="M108-166l2 6 6 11 6 10 7 9 8 8 8 8 8 6 10 8 8 10 8 9 6 10 6 8 8 9 8 9 8 8 10 5 14 6 17 7 18 8 9 4 9 4 19 5 11 3 10 2 10 2 20 1 18-2 16-5 16-9 16-12 9-5 8-6 17-10 15-10 14-9 14-9 12-9 11-8 10-10 8-9 8-9 6-8 6-10 2-13 0-11 1-14 1-14 15-34 0 0 0 0 13 28-1 13-1 13-1 13-2 15-2 10-5 11-7 9-8 8-8 9-10 10-11 10-12 9-14 9-14 9-14 9-16 9-16 10-17 11-8 6-9 6-9 5-9 5-10 4-11 3-11 2-11 0-11 0-11-1-11-1-11-2-11-3-11-2-11-3-10-4-18-7-17-6-18-6-15-8-14-10-9-10-9-9-7-10-7-10-5-9-9-11-8-7-9-9-9-9-8-11-8-11-6-13-4-12-2-5 0-2 0-2 0-2 1-2 1-1 2-1 2-1 2-1 2 1 1 0 2 1 1 2 1 1z"  fill="#fff" /><path d="M108-164l1 8 5 14 6 18 7 18 6 18 5 17 5 15 5 16 3 14 1 14 0 13-4 13-6 12-8 9-9 8-11 8-8 8-6 8-7 10-5 10-5 11-3 9-6 12-7 14-7 9-9 11-9 10-5 9-5 12-7 14-5 9-7 9-8 10-11 10-13 8-12 6-14 5-14 0-12-2-27-23 0 0 0 0 33-4 10 1 12-2 10-5 8-5 8-8 6-8 8-11 5-11 6-14 5-9 6-11 9-10 8-9 7-10 6-12 4-9 4-9 5-10 5-9 7-11 8-9 9-8 11-10 10-7 9-8 6-11 2-12 0-11-2-13-4-15-4-15-5-17-6-18-5-18-6-18-4-18-1-7 0-2 1-2 1-2 1-1 1-1 2-1 2 0 2 0 2 1 1 1 1 1 1 2 1 2z"  fill="#c2e1ff" /><path d="M98-170l7-3 17-4 16-3 18-2 11 0 10 1 19 0 10 0 21 0 20-1 19-2 18-4 17-5 15-6 15-6 14-6 12-6 9-6 11-9 10-10 11-11 10-10 6-8 4-10 2-10-2-12-6-10-10-8-8-6-11-4-10-3-11-3-12-3-11-4-9-4-11-4-13-2-12-3-10-5-15-8 0 0 0 0 13-12 12-5 11 3 10 2 12 4 13 5 13 5 10 3 12 3 12 3 13 5 14 7 11 8 10 10 8 13 4 13 0 13-1 13-4 10-5 10-7 9-7 8-8 6-11 10-11 10-9 7-11 7-13 7-14 5-14 5-16 6-18 6-9 3-10 2-10 1-11 2-10 1-10 1-11 0-11 0-20 0-10 0-10 0-18-1-17 1-16 2-15 2-8 2-2 0-2 0-2 0-1-1-1-2-1-1-1-2 0-2 1-2 0-2 2-1 1-1 2-1z"  fill="#005bbb" /><path d="M97-155l-5-2-14-3-11 0-10 3-9 6-8 8-7 8-6 8-9 7-9 5-10 4-10 3-11 1-11-1-11-2-10-4-9-7-8-7-7-8-10-5-10-4-9-3-13-22 0 0 0 0 25-9 11 4 11 4 9 6 8 6 9 9 8 8 10 3 10 2 11-2 10-4 9-7 6-7 8-7 9-7 9-6 12-3 12-1 10 1 11 3 10 5 5 2 2 1 1 1 1 2 1 2 0 2-1 2 0 1-1 2-2 1-2 1-1 0-2 0-2 0z"  fill="#c2e1ff" /><path d="M95-157l-6-4-11-12-9-12-9-13-8-13-8-12-9-11-11-9-11-8-11-6-10-6-13-5-13 1-10 6-6 8-7 8-8 10-9 7-9 6-9 5-11 6-8 5-4 10-3 11 0 11 2 10 2 10-12 27 0 0 0 0-20-18-2-12-2-12-1-13 2-12 4-11 3-9 5-10 9-8 10-6 11-5 10-5 9-6 9-9 8-9 9-9 9-6 10-5 11-2 12 1 12 3 11 6 12 6 12 8 12 10 12 11 11 14 8 13 8 13 8 13 8 12 7 11 5 5 1 1 1 2 0 2 0 2 0 2-1 1-2 2-1 1-2 0-2 1-2-1-2 0-1-2z"  fill="#c2e1ff" /><path d="M92-161l-2-6-4-11-5-11-8-10-9-9-11-7-14-6-20-6-12-4-12-3-12-4-13-4-12-3-12-4-13-5-12-5-12-4-12-5-13-4-12-4-12-6-11-5-11-6-10-5-10-5-9-5-10-4-10-4-9-4-19-5-19-3-17-1-19 1-10 0-10 1-11 1-10 2-11 3-10 4-10 5-9 5-10 6-10 5-10 6-10 6-10 5-10 6-10 6-9 5-16 10-13 9-12 7-10 7-9 5-10 8-8 7-7 11-6 10-7 10-8 8-9 7-29-6 0 0 0 0 15-19 9-6 7-8 6-9 8-12 12-10 12-8 9-5 9-4 11-6 13-8 16-9 9-5 9-5 9-5 10-6 10-6 10-5 10-6 10-6 10-6 10-6 11-5 12-5 12-3 12-3 11-1 11-1 11-1 19 0 11 0 20 4 9 2 10 3 11 3 10 4 10 4 10 5 10 6 10 5 9 5 11 6 10 5 12 5 11 5 13 4 13 4 12 4 12 5 12 4 12 3 12 3 12 3 13 3 13 3 12 3 11 3 10 2 19 8 15 11 10 12 9 14 5 13 3 14 1 6 0 2 0 2-1 1-1 2-2 1-1 1-2 0-2 0-2 0-2-1-1-1-1-2-1-2z"  fill="#005bbb" /><path d="M96-169l4-4 8-7 8-9 7-9 9-10 10-9 10-9 10-9 12-9 12-10 13-8 11-7 9-6 11-8 9-10 6-8 8-10 9-9 9-8 9-7 9-7 12-6 13-4 11-1 12 2 10 5 7 8 8 9 8 10 7 10 6 12 4 11 4 11 6 11 7 8 9 9 7 9 7 10 0 27 0 0 0 0-27-11-7-10-7-8-8-9-8-10-5-11-4-11-5-11-5-11-6-9-6-8-7-10-9-5-10 2-12 6-8 7-9 6-11 11-7 8-7 9-8 9-9 8-10 6-10 6-11 6-11 7-11 8-11 9-11 10-11 8-9 7-8 8-9 9-10 9-10 7-5 3-2 1-2 1-2 0-2-1-2-1-1-1-1-2-1-2 0-2 0-1 1-2 1-2 2-1z"  fill="#fff500" /><path d="M101-171l5 1 12-1 12 0 16 2 17 6 15 7 15 7 13 5 13 3 13 2 13 1 13 2 14 2 16 2 19 2 19-1 10-1 10 0 12-1 11 0 11-1 11-2 12-4 12-5 12-7 11-9 10-10 8-12 6-14 5-15 2-16 0-16-2-18-4-19-5-19-7-21-7-22-10-23-13-23-15-22-17-22-19-24-21-25-20-28-19-30-17-33-18-36-18-39-17-41-17-44-17-44-17-45-14-44-12-44-9-43-9-42-8-42-10-41-12-41-15-39-18-38-22-36-24-34-29-30-33-27-37-23-40-21-39-21-40-22-39-20-40-17-41-15-41-12-41-7-41-3-42 0-43 2-44 4-43 5-280 50 0 0 0 0 280-52 43-5 44-4 43-2 42 0 41 3 41 8 42 11 41 15 40 18 39 19 40 22 39 21 40 22 37 23 34 26 28 31 25 34 21 36 19 38 15 40 12 40 10 41 8 42 9 43 9 42 12 44 14 45 16 44 18 44 17 44 17 41 18 39 17 36 17 33 19 30 21 28 21 25 19 23 18 22 15 23 13 23 10 23 9 22 7 20 7 20 5 19 3 18 2 18-2 18-5 17-6 15-9 15-10 12-12 11-13 9-14 7-14 6-13 3-12 2-12 0-10 1-10 1-10 1-11 2-12 0-19-1-17-2-14-2-14-2-13-2-14-3-15-4-16-6-15-7-14-8-12-5-12-2-13-1-12-2-6-1-2 0-1-1-2-1-1-2-1-1 0-2 0-2 1-2 1-2 1-1 2-1 2 0 2-1z"  fill="#005bbb" /><path d="M100-171l7 0 13-1 15-1 15 2 16 3 16 3 15 0 13-1 13-3 13-3 12-4 13-4 13-3 14-3 15-3 13-2 12-2 10-3 10-3 10-4 9-4 12-6 12-8 13-7 14-5 10-2 11 0 15 2 11 2 11 4 10 5 10 5 9 3 11 3 13 2 12 1 11-1 13-3 12-4 11-4 12-9 9-7 9-8 8-6 41-16 0 1 0-1-24 36-8 7-9 7-9 8-11 9-14 6-13 5-15 4-16 3-16 0-14-2-15-2-13-4-12-5-13-6-11-4-13-2-12 0-10 2-10 5-13 7-8 5-10 5-11 4-11 4-12 3-12 3-13 2-13 2-12 2-13 3-14 3-12 3-13 4-14 2-15 3-16 1-18-1-17-3-15-4-13-2-14-1-13 0-7-1-2 0-2 0-1-2-2-1 0-2-1-2 0-2 1-1 0-2 2-2 1-1 2 0 2-1z"  fill="#fff500" /><path d="M93-158l-4-7-8-14-6-13-7-12-6-13-4-13-4-14-2-13-1-14-1-15 0-15 0-15 0-15 1-15 1-13 0-11-2-13-3-13-4-12-5-10-6-12-6-14-3-13 0-12-1-11 0-10-1-12-5-13-7-12-11-10-10-7-12-8-13-11-13-12-12-13-10-16-8-15-6-14-5-13-2-12-1-10 1-15 20-20 0 0 0 0 6 25-1 12 1 13 3 11 6 12 7 13 8 12 11 12 11 10 12 9 12 7 13 9 10 9 9 11 7 12 5 14 2 13 2 12 0 12 0 15 3 10 5 12 6 12 4 10 3 9 3 15 1 10 1 12 0 12-1 14-1 14-1 14 0 15 1 15 0 14 1 12 1 12 2 12 3 11 5 12 6 13 5 13 5 13 4 7 1 2 0 2 0 2-1 2-1 1-1 2-2 1-2 0-2 1-2-1-1-1-2-1-1-1z"  fill="#fff500" /><path d="M95-156l-5-3-10-7-11-7-10-8-9-9-8-8-7-8-7-8-8-9-6-9-5-9-5-9-9-10-10-8-11-5-14-3-11-2-11-2-11-2-11-2-11-2-12-2-12-3-12-3-11-4-10-3-14-4-14-3-13-3-10-2-12 0-11 2-10 3-11 1-12 0-12-2-12-2-30-26 0 0 0 0 32-6 12 3 13 2 11 0 10-2 13-2 12 0 12 1 12 2 12 3 10 2 10 3 10 3 11 4 10 3 11 3 11 3 10 2 12 2 10 2 12 2 12 2 11 2 11 3 12 4 11 6 10 8 9 8 7 11 6 9 6 13 8 12 7 8 7 8 6 8 7 8 8 8 10 8 9 8 5 4 1 2 1 1 1 2 0 2 0 2-1 2-1 1-2 1-2 1-1 1-2-1-2 0-2-1z"  fill="#005bbb" /><path d="M96-156l-7-4-13-7-14-8-15-9-16-7-18-7-10-5-9-5-10-4-10-5-9-6-9-5-10-5-9-4-18-5-17-5-17-4-14-3-14-4-12-4-12-4-10-6-8-6-8-7-10-10-8-9-6-9-5-9-5-11-3-10-4-9-6-8-3-10-5-7 0 0 0 0 4-4 10-3 11 0 9 7 7 10 4 11 3 11 4 10 4 10 7 10 7 8 9 9 9 8 13 7 11 4 12 4 15 4 16 5 18 5 10 3 10 4 10 4 10 5 9 5 9 5 10 5 9 4 19 9 18 7 18 9 15 9 14 9 13 10 5 4 2 1 1 2 1 2 0 2 0 1-1 2-1 2-2 1-1 1-2 0-2 0-2 0-2-1z"  fill="#fff" /><path d="M94-168l4-5 9-9 11-9 12-7 14-6 15-6 17-5 15-5 15-6 13-7 10-8 9-9 7-9 6-12 6-12 6-13 6-13 4-14 3-14 2-14 1-15-1-14-2-13-4-11-7-11-8-11-9-13-10-12-10-12-10-10-10-11-11-8-12-8-13-8-13-7-15-5-16-3-17-3-17-3-15-1-14-1-13-1-11 0-15 2-13 2-40-9 1 0-1 0 32-16 13-2 11-1 12 0 12 0 13 1 15 2 16 1 17 3 18 3 19 3 18 7 15 7 15 8 13 9 13 11 11 11 11 12 10 12 10 12 10 13 9 13 8 14 6 16 3 16 0 17-1 17-2 16-3 16-5 15-6 15-7 14-7 13-7 13-10 12-11 11-13 10-16 8-17 7-16 5-15 4-15 6-13 5-11 4-9 6-9 7-4 4-1 1-2 1-2 0-2 0-2 0-2-1-1-1-1-2-1-2 0-2 0-2 1-1 1-2z"  fill="#c2e1ff" /><path d="M94-157l-5-5-10-10-11-11-13-14-13-14-7-9-6-9-6-10-6-11-5-12-3-11-3-11-2-11-1-11-1-10-1-10 0-11 1-10 3-11 3-11 3-11 5-11 4-11 5-11 6-11 6-10 7-11 8-10 9-10 9-10 9-10 9-10 10-9 11-10 9-9 10-10 9-10 9-10 8-11 8-11 7-11 7-11 6-11 7-11 6-12 6-11 7-11 8-10 8-9 8-9 7-9 8-9 8-9 8-8 9-9 10-9 9-11 11-12 10-12 10-14 10-15 10-17 10-16 10-18 10-18 9-20 11-21 11-21 13-20 13-19 15-19 16-19 17-19 19-20 20-20 20-19 22-19 22-18 23-20 24-20 25-21 22-21 21-22 18-22 16-22 13-24 10-24 7-25 2-27-3-27-52-190 0 1 0-1 54 190 3 27-2 27-7 26-10 24-13 24-16 22-19 23-20 21-23 22-24 21-25 20-22 19-22 19-22 18-21 19-19 20-19 21-17 19-16 18-15 19-13 19-12 20-11 22-10 21-9 20-10 19-8 18-9 17-9 18-9 16-9 15-10 14-9 13-10 11-9 10-9 9-8 8-8 8-8 9-8 9-8 8-7 9-8 9-6 10-7 11-6 12-7 11-7 11-7 12-7 11-8 12-9 11-9 11-9 10-10 10-9 10-10 10-10 9-8 9-9 10-8 10-8 10-7 10-6 9-6 10-5 10-5 11-4 10-3 10-3 11-3 10-3 18 0 18 2 19 1 10 3 10 3 10 4 10 5 9 6 9 12 17 12 14 12 13 11 12 10 12 4 5 1 2 1 2 0 1 0 2-1 2-1 2-1 1-2 1-2 0-2 0-2 0-1-1-2-1z"  fill="#005bbb" /><path d="M93-167l3-5 7-12 8-12 8-11 9-9 10-8 9-6 13-7 12-5 10-4 11-3 11-4 11-3 12-1 12 1 9 4 10-1 11 5 0 0 0 0-5 9-4 10-9 4-11 0-10-3-10 0-10 2-11 3-12 3-10 3-10 4-12 6-12 7-8 7-8 9-9 10-7 11-4 5-1 1-2 1-2 1-2 1-2-1-1 0-2-1-1-2-1-1-1-2 0-2 0-2 1-2z"  fill="#fff" /><path d="M93-165l1-7 6-14 6-15 8-16 9-17 5-9 6-9 6-8 7-8 6-8 7-8 11-16 6-8 12-15 11-15 12-12 13-11 14-11 16-8 16-6 16-2 17-2 15 0 16 0 14 1 14 1 13 1 11 0 14-1 12 0 12-2 11-2 9-4 9-6 8-7 9-12 0 0 0 0 9 7 5 11 0 10-7 11-8 6-9 5-11 4-10 3-12 2-11 0-11 0-14 0-11-1-12 0-14-1-15-1-14-2-14 0-14 1-15 1-12 3-13 5-13 8-12 9-12 10-11 12-11 14-12 15-5 8-7 9-6 8-6 8-12 15-10 16-9 17-8 15-7 14-7 13-3 6 0 2-2 1-1 1-2 1-2 0-2 0-2 0-1-1-1-2-1-1-1-2 0-2 0-2z"  fill="#fff" /><path d="M107-159l-3 6-5 12-5 11-3 12-2 11-2 12-1 10-1 11 1 11 0 10 1 11 2 12 4 12 5 13 5 11 4 11 7 11 7 11 6 10 7 8 9 4 10 2 11 2 12 1 11 0 10-1 13-1 10 0 10 4 15 11 0 0 0 0-12 11-9 6-12 0-12 1-11 1-11 0-14 0-12-3-13-3-12-4-10-6-8-7-7-10-6-11-5-8-6-10-5-12-4-11-5-13-3-9-3-10-3-11 0-11-1-10 0-12 0-12 1-12 2-13 3-12 4-13 5-13 7-12 6-11 4-5 1-2 2-1 1-1 2 0 2 0 2 0 2 1 1 1 1 2 1 2 0 2 0 2-1 1z"  fill="#005bbb" /><path d="M98-155l-6-1-15-3-16-4-15-5-14-6-14-5-12-4-13-4-14-3-13-2-13-3-11-2-14-2-14-2-14-1-15-1-11 0-13-2-14-5-12-7-14-6-14-7-15-10-13-10-12-10-11-9-10-9-10-9-8-8-10-9-9-6-12-6-10-4-12-5-13-5-11-3-10-2-10 0-12 1-14 3-32-10 0 0 0 0 36-21 10-2 11-1 15 1 15 3 13 5 12 5 12 5 14 6 11 7 8 5 10 7 7 8 7 8 9 8 10 9 10 9 11 9 12 9 12 8 14 6 14 6 12 5 13 5 10 1 11 0 10 1 11 1 10 2 14 2 11 2 11 3 12 3 13 4 14 3 15 4 14 6 13 6 13 6 15 5 14 6 13 4 7 2 2 0 1 1 1 2 1 2 1 1 0 2 0 2-1 2-2 1-1 2-2 0-2 1-2-1z"  fill="#fff500" /><path d="M92-163l1-8 0-18-1-19-4-18-6-16-10-14-11-12-13-10-14-9-15-6-16-7-19-6-19-7-11-4-10-4-11-4-10-4-10-5-11-5-10-5-10-7-11-7-9-9-10-11-8-12-8-11-7-13-8-12-9-11-9-10-9-11-10-10-11-10-11-10-12-10-13-9-14-7-15-5-16-3-18-2-17-1-19-1-19 0-21 0-21-1-21-1-21-1-21-1-21 0-21 0-21 2-22 3-21 3-21 5-21 5-22 6-21 8-20 8-20 8-18 10-17 10-15 10-15 11-14 12-13 11-12 10-10 10-9 10-9 10-7 10-6 9-6 9-8 18-6 17-5 16-4 15-4 13-25 38 0 0 0 0 6-44 5-13 5-14 7-17 8-17 5-9 6-9 7-10 7-9 9-9 9-9 10-10 12-9 12-10 14-10 14-11 15-11 16-10 17-10 19-9 19-9 21-8 21-8 21-6 21-5 21-5 22-3 22-3 21-2 21 0 21 0 21 0 21 0 21 1 21 0 21-1 19 0 19 0 18 0 18 1 18 3 17 5 16 7 14 9 13 10 11 10 12 10 10 10 10 11 9 11 9 11 9 12 9 12 7 11 8 10 9 8 8 8 9 7 10 5 9 5 10 5 10 4 11 3 10 4 10 4 10 3 10 4 20 6 18 7 18 7 16 9 15 11 14 13 6 8 6 9 5 9 4 10 3 10 3 10 1 11 0 21-1 18-1 8-1 2 0 2-2 1-1 1-2 1-2 0-2 0-1-1-2-1-1-1-1-2-1-1 0-2z"  fill="#c2e1ff" /><path d="M105-157l-4 5-9 10-12 10-14 9-15 8-16 8-17 8-10 4-9 5-10 4-10 4-9 5-9 5-15 11-15 14-13 15-7 9-6 9-8 11-6 11-5 12-4 13-2 13 0 14 1 14 3 13 5 13 5 14 7 14 6 15 7 15 6 14 7 15 7 16 6 16 6 18 5 18 5 18 7 18 7 17 7 18 7 16 6 16 7 16 6 15 5 14 4 14 5 13 4 13 4 11 4 11 4 11 4 10 5 10 4 9 4 10 4 10 3 9 4 9 10 17 11 16 11 13 12 14 12 12 10 12 10 10 12 9 12 10 12 9 12 7 14 6 14 3 54 18 0 0 0 0-58 5-18-4-16-7-16-9-13-11-11-10-12-10-12-12-10-13-11-13-11-13-12-16-6-8-6-9-5-10-4-9-4-10-7-19-3-10-4-10-4-10-3-11-3-11-4-12-3-12-3-12-4-14-4-13-4-15-5-15-6-16-6-16-7-17-7-17-7-17-8-18-6-18-6-18-6-17-6-15-7-16-8-14-7-15-7-15-7-14-7-14-7-14-5-15-4-15-2-15 0-16 2-15 4-15 5-14 6-13 7-11 7-11 7-9 7-9 7-8 8-8 8-7 9-7 10-6 9-6 10-5 10-5 9-4 9-5 9-4 17-8 16-8 15-7 12-6 11-9 11-9 5-4 1-1 2 0 2-1 2 1 2 0 1 1 2 2 0 2 1 1 0 2-1 2 0 2-2 1z"  fill="#fff" /><path d="M102-170l6 1 12 0 10-1 14-3 12-5 11-5 10-4 9-5 10-6 10-3 12-3 11 1 9 4 9 8 6 11 2 13-2 12-4 11-4 9-3 12 4 9 9 5 13 20 0 0 0 0-17 7-10 2-9-4-9-6-7-8-5-9-2-13 2-11 3-13 5-11 5-11-6-9-11 2-10 4-10 5-10 4-13 4-10 3-11 2-12 1-13 0-14-3-6-2-2 0-1-1-2-2 0-2-1-1 0-2 0-2 1-2 1-1 2-2 2 0 2-1 2 1z"  fill="#005bbb" /><path d="M105-157l-6 6-13 11-16 12-8 6-9 7-8 8-9 7-10 8-9 7-11 7-11 9-12 8-12 10-11 10-12 13-11 14-10 15-7 15-5 17-3 16-2 17-1 17 1 18 2 17 4 18 5 17 7 17 9 15 11 15 14 15 14 16 17 16 18 15 20 14 21 12 22 11 23 11 24 12 25 12 25 11 26 10 27 10 29 7 29 8 29 9 30 10 30 13 30 15 31 15 30 16 30 17 30 17 31 18 32 17 31 16 29 16 28 15 26 14 25 15 23 15 23 15 22 15 23 15 21 15 21 16 21 15 20 14 20 12 19 12 19 11 19 9 19 9 18 7 19 6 18 6 19 5 17 4 18 4 17 4 17 3 16 4 17 3 16 3 15 2 15 1 14 1 14 1 13-1 13-1 12-1 12-2 12-2 84-8 0 0 0 0-82 21-12 1-13 2-13 1-13 0-13-1-14-1-15-1-15-3-15-2-16-4-17-4-17-4-16-4-17-4-18-5-17-4-18-6-19-6-18-6-19-7-18-9-20-9-19-11-19-12-20-13-20-13-21-15-21-16-21-15-23-16-22-15-23-14-23-15-25-15-26-15-28-15-29-15-31-16-31-18-32-17-30-17-30-17-30-16-31-16-30-15-30-12-29-11-30-8-28-8-29-7-27-10-27-10-25-11-25-12-24-12-22-10-23-12-21-12-20-14-19-15-17-15-16-16-14-15-11-15-10-16-8-17-5-18-4-18-3-18-1-18 1-18 2-17 3-17 5-18 7-17 9-16 10-16 12-14 11-12 12-11 11-9 11-9 10-8 10-7 8-7 9-8 9-8 9-7 9-7 15-11 14-10 6-4 2-1 1-1 2 0 2 0 2 1 1 1 1 1 1 2 0 2 0 2 0 1-1 2-1 1z"  fill="#fff500" /><path d="M107-166l3 5 6 12 5 10 5 9 4 10 6 11 6 12 6 9 7 11 4 10 4 11 3 10 4 10 3 11 4 10 3 11 4 12 6 12 6 12 5 10 7 9 7 11 6 11 5 11 4 10 4 10 5 12 4 9 8 10 7 8 9 10 8 12 6 11 6 8 6 8 9 9 12 30 0 0 0 0-33-9-9-9-10-11-7-11-6-10-6-9-6-8-9-9-8-10-7-13-4-9-4-10-4-13-5-10-5-10-5-10-7-10-7-12-5-11-6-13-4-10-4-10-3-11-3-10-3-10-3-10-4-11-4-13-5-11-6-11-5-12-6-13-5-13-3-10-4-11-4-11-2-6-1-2 0-2 0-2 1-2 1-1 2-1 2-1 2-1 1 1 2 0 2 1 1 1 1 2z"  fill="#c2e1ff" /><path d="M101-171l6 1 11 0 13 2 13 2 13 3 13 4 12 5 11 5 10 5 9 5 10 4 14 5 14 6 12 4 13 5 11 2 12 1 13 0 12 2 11 1 10 3 10 4 9 4 10 5 10 7 8 7 7 8 8 8 10 6 11 4 10-2 10-4 9-6 28-3 0 0 0 0-6 24-9 8-9 5-10 4-13 3-10 1-11-2-10-4-10-5-9-7-8-7-9-10-8-7-10-6-10-3-13-5-11-2-11-2-11 0-12-2-13-3-13-4-10-4-14-6-13-6-10-4-9-5-10-5-10-5-10-6-10-5-11-4-12-4-12-3-11-3-11-2-6-1-2 0-1-1-2-1-1-2-1-1 0-2 0-2 1-2 1-2 1-1 2-1 2 0 2-1z"  fill="#fff500" /><path d="M94-168l4-5 11-12 11-11 11-12 14-13 12-14 7-8 8-8 9-8 9-8 8-8 8-8 8-8 7-9 8-8 8-9 8-9 8-8 8-8 7-8 7-9 7-8 8-8 8-8 7-7 8-7 8-7 14-13 15-14 13-15 7-8 7-8 7-8 8-8 7-7 12-13 11-13 10-13 11-13 11-11 12-10 10-9 9-7 8-8 7-9 5-9 7-12 6-12 5-12 5-14 2-14 1-16-1-17-1-18-4-18-1-10-2-10-3-11-2-11-1-12-1-12 0-12 1-13 0-13 2-14 2-13 1-14 19-90 0 1 0-1-3 92-1 13-1 14-1 12 0 13 0 12 1 12 1 11 2 10 2 10 3 11 2 11 3 10 3 19 3 19 1 19 0 19-4 19-5 15-6 14-6 13-7 12-8 13-9 10-10 9-10 8-10 7-11 9-10 9-10 12-11 13-12 13-14 14-14 14-7 7-7 8-7 8-7 9-7 8-7 7-8 7-8 7-15 13-7 6-8 7-7 7-8 8-7 8-7 8-8 9-7 8-8 8-8 9-7 8-8 9-8 9-8 9-8 9-8 8-9 8-8 8-7 7-7 8-6 8-7 7-13 13-12 12-12 10-11 10-5 5-2 1-1 1-2 0-2 0-2 0-1-1-2-1-1-2-1-2 0-2 0-1 1-2 1-2z"  fill="#fff500" /><path d="M103-170l5 2 13 6 11 6 10 4 10 2 11 0 11-2 10-2 10-2 10-2 11-3 12-3 12-1 13 0 12-1 15 0 10 1 11 1 10 2 10 3 9 6 9 9 7 9 6 10 6 10 6 10 7 10 7 8 5 9-5 25 0 0 0 0-21-10-7-8-8-10-6-10-6-11-5-8-6-11-8-9-10-4-12-2-14 0-13 0-13 1-11 0-11 1-10 2-11 2-13 2-11 1-12 2-13 0-14-3-13-5-9-6-9-7-10-7-4-2-2-1-1-2-1-1-1-2 0-2 1-2 0-1 2-2 1-1 2-1 2 0 1 0 2 0z"  fill="#fff" /><path d="M92-164l1-6 2-11 2-13 3-11 5-11 5-10 7-8 9-4 10 2 4-1 0 0 0 0-4 11-1 10-8 8-5 9-5 11-5 12-3 9-1 6-1 2-1 1-1 2-2 1-2 0-2 0-1 0-2-1-2-1-1-2 0-1-1-2 0-2z"  fill="#fff" /><path d="M101-170l8 0 18 1 18 0 19 0 18 0 18-2 16-5 15-7 14-11 8-7 8-7 8-9 9-8 10-9 10-8 12-8 11-9 12-9 13-10 14-9 14-9 16-10 18-9 19-10 19-9 21-10 22-9 24-9 26-9 28-7 30-7 31-5 32-4 34-4 35-7 36-7 38-9 38-12 40-14 38-15 37-15 35-16 33-16 33-16 32-18 31-19 29-20 28-19 26-20 25-20 22-22 21-25 20-24 20-25 18-27 17-29 13-33 13-35 11-37 9-40 8-40 5-41 4-41 4-40 5-39 5-38 4-37 2-37-1-36-2-37-1-38 0-38 0-38-1-39-1-38-3-38-2-39-4-41-2-44 0-47-2-50-3-51-5-54-6-56-9-58-14-62-123-429 0 0 0 0 125 428 14 62 9 59 6 56 5 54 3 51 2 50 0 47 2 44 4 40 2 40 3 38 1 38 1 39 0 38 0 38 1 38 2 37 1 36-2 37-4 38-5 38-5 38-4 40-4 41-5 41-8 41-9 40-11 37-13 35-13 32-17 30-19 27-19 25-21 25-21 24-22 22-24 21-27 20-28 19-29 19-31 19-32 18-33 17-33 16-35 16-37 15-39 15-39 14-39 12-37 9-37 7-34 7-34 4-32 4-31 5-30 7-28 8-26 9-24 9-22 10-20 10-18 10-18 11-16 11-15 11-14 10-13 10-12 10-11 10-11 10-10 8-10 9-9 8-8 8-8 9-9 9-8 8-9 7-8 6-9 5-10 4-9 3-20 3-10 1-20 0-19-1-18-1-18-3-9-1-1 0-2-1-2-1-1-2 0-1-1-2 0-2 1-2 1-2 1-1 2-1 2 0 2 0z"  fill="#fff" /><path d="M93-160l-3-5-5-10-4-10-5-10-5-9-4-10-4-9-4-10-3-10-3-15-1-12-3-11-4-15-2-12-1-12-1-13-1-13-1-12-2-11-3-14-7-13-7-10-8-10-9-7-11-9-12-10-14-13-8-7-7-7-7-8-8-8-7-9-7-8-14-12-14-10-15-7-14-2-15 0-19 0-19-2-10-2-18-5-18-6-17-5-16-5-16-5-14-5-39-35 0 0 0 0 42 11 12 6 14 5 15 5 17 5 18 5 17 5 16 4 16 2 19 0 18 1 19 4 18 8 8 6 9 6 8 7 8 7 7 8 7 7 8 8 7 7 8 7 14 12 13 9 12 10 12 9 11 11 9 12 8 12 6 13 3 12 2 12 2 12 1 13 1 13 1 12 2 15 3 14 3 14 1 13 2 13 2 12 5 14 3 9 4 10 4 11 4 11 3 10 1 6 1 2 0 2-1 1 0 2-2 2-1 1-2 0-2 1-2-1-2 0-1-1-2-2-1-2z"  fill="#c2e1ff" /><path d="M93-164l0-7 0-16-1-18-1-10-1-11-3-10-3-11-4-10-4-10-5-11-4-9-5-9-9-17-9-16-8-14-9-14-9-17-8-17-9-18-5-9-5-9-5-9-6-8-7-9-7-8-7-8-7-8-6-8-7-8-6-8-6-9-5-8-6-9-5-9-5-9-11-16-10-15-11-13-10-11-12-10-13-13-7-7-7-7-8-8-8-7-8-8-7-7-7-8-7-8-13-14-15-12-8-5-9-7-8-5-9-6-8-6-16-12-15-12-13-13-13-13-11-11-11-10-12-10-10-9-9-8-11-9-17-29 0 1 0-1 29 7 11 10 8 7 10 9 10 10 11 11 12 12 12 12 11 13 13 12 14 11 9 6 8 5 8 6 9 6 8 6 9 6 8 7 9 7 7 7 7 8 13 15 8 7 7 7 8 7 8 7 8 7 7 7 13 13 12 12 12 12 10 15 11 15 5 8 6 9 5 9 10 17 5 8 11 16 13 15 6 8 8 8 7 9 8 9 7 10 6 9 5 9 10 19 9 17 8 17 8 14 8 15 8 16 8 17 5 9 5 9 5 10 4 10 5 11 5 12 3 12 3 12 1 11 1 11 0 20-1 17-2 8 0 1-1 2-1 1-2 1-1 1-2 0-2 0-2-1-1-1-1-1-1-2-1-2 1-2z"  fill="#c2e1ff" /></svg>