<svg width="1200" height="675" viewBox="-500 -500 1200 675" xmlns="http://www.w3.org/2000/svg"><path d="M-500-500h1200v675h-1200z" fill="#000"/><path d="M92-161l-2-7-5-13-6-13-6-16-5-15-3-15-2-15 1-14 2-15 3-14 4-13 3-12 1-11-1-11-4-9-5-11-7-11-8-12-7-11-9-9-10-9-10-8-10-7-9-7-8-6-11-7-11-5-14-7-9-6-12-8-10-8-9-6-9-5-10-2-12 2-12 2-12 1-11 1-22-17 0 0 0 0 23-15 11 0 12-1 9-2 12-1 13 1 11 4 11 6 9 7 9 7 11 8 11 8 11 6 9 4 10 6 8 6 8 7 9 7 9 7 12 9 11 10 11 12 9 13 7 11 8 13 7 13 5 15 1 16-2 15-4 14-4 12-3 13-2 12-1 11 0 12 2 13 4 14 5 15 6 15 4 16 1 7 0 2 0 2-1 2-1 1-2 1-2 1-1 0-2 0-2 0-2-1-1-2-1-1-1-2z"  fill="#005bbb" /><path d="M92-164l1-8 3-16 4-17 5-16 7-16 9-14 9-12 11-11 10-8 10-7 10-6 11-4 10-3 14-3 12-3 9-5 11-8 10-6 12-7 11-4 11-3 11-2 11-3 11-2 12-4 12-2 13 2 11 2 11 1 11-2 9-3 10-5 24-3 0 0 0 0-9 32-12 6-12 3-10 3-12 0-12 0-12-2-12-2-10 3-12 3-11 1-12 2-11 3-12 4-11 6-10 7-9 5-14 6-14 3-13 3-12 2-12 5-9 5-9 7-9 9-8 9-8 12-7 13-6 15-4 15-4 16-2 7-1 2-1 2-1 1-2 1-2 0-2 1-1-1-2-1-2-1-1-1-1-2 0-2 0-2z"  fill="#005bbb" /><path d="M105-157l-3 5-8 8-8 9-9 8-9 8-10 7-11 6-11 5-11 4-9 4-14 4-11 4-11 6-9 8-10 7-9 7-8 9-4 10-2 12 2 12 4 11 5 10 5 11 2 13 1 14 2 12 3 11 5 10 7 8 8 10 10 36 0 0 0 0-36-19-8-10-7-9-6-10-4-11-3-10-1-11-2-13-2-11-4-10-5-9-3-10-2-12-1-11 1-13 2-11 5-11 9-12 10-9 10-7 9-7 10-7 14-8 12-4 14-3 13-4 10-3 10-4 9-5 9-5 9-6 8-7 9-7 9-8 5-3 1-1 2-1 2 0 2 0 2 0 1 1 2 2 1 2 0 1 0 2 0 2-1 2-2 1z"  fill="#fff500" /><path d="M99-155l-7 0-16-2-15-3-15-4-13-4-12-4-12-4-10-3-15-2-10-1-11 0-10-1-11-1-15-1-10 0-16 4-14 4-15 4-16 6-17 6-16 4-18 4-17 5-16 5-16 3-16 2-15 1-16 2-15 0-15 1-13 1-13 2-11 3-10 5-9 5-10 10-9 11-6 10-4 10-3 11-1 10 0 12 1 14 1 14 3 16 2 60 0-1 0 1-27-55-4-17-2-17 0-14-1-14 2-15 4-14 6-14 8-12 8-11 8-8 10-8 12-6 12-6 15-5 16-2 15 0 14-1 15 0 15-1 15-2 13-1 15-3 16-4 17-6 17-4 16-5 15-5 16-7 17-6 14-4 15-4 14-1 11 1 15 2 11 1 11 1 11 1 11 1 12 3 12 4 12 5 11 5 13 4 13 5 14 4 14 3 7 1 2 1 2 1 1 1 1 2 1 1 0 2 0 2-1 2-1 2-1 1-2 1-2 0-2 0z"  fill="#c2e1ff" /><path d="M96-170l6-3 13-7 13-7 10-8 8-7 7-10 7-10 7-10 6-9 6-13 2-11-1-11-1-10-3-13-6-10-11-5-11-5-10-6-9-6-8-9-6-10-4-10 3-10 2-13 0 0 0 0 15 5 8 5 4 10 6 9 10 7 11 6 12 6 9 7 6 8 4 9 4 13 2 12 0 14-1 11-2 11-5 11-6 11-7 9-7 10-8 11-9 11-12 9-13 8-14 6-13 6-6 3-2 0-2 1-2-1-2 0-1-1-2-2-1-2 0-2 0-2 1-1 0-2 2-2 1-1z"  fill="#c2e1ff" /><path d="M93-166l2-6 5-14 5-14 4-14 2-13 0-12 0-13-2-11-3-10-3-11-4-10-6-14-3-10-3-11-3-13-5-12-6-12-7-12-5-11-4-14-2-13 1-15 3-13 6-13 6-12 9-12 9-11 9-10 10-11 8-9 7-10 6-10 4-11 4-11 2-12 0-12-2-12-4-14-6-13-7-13-9-13-9-15-9-13-10-13-12-12-44-46 0 0 0 0 53 24 14 12 13 14 10 14 10 14 9 14 10 14 7 16 6 15 5 17 1 18-1 16-4 14-5 14-6 13-8 12-9 11-9 11-9 9-8 10-8 10-6 9-4 10-4 14-1 13 3 14 7 12 5 9 5 10 4 10 3 10 2 10 3 13 4 13 4 11 3 11 3 12 3 13 1 13 1 14-1 15-4 16-6 15-6 15-6 13-4 6 0 1-2 2-1 1-2 0-2 1-2-1-2 0-1-2-2-1-1-2 0-2 0-2 1-2z"  fill="#fff500" /><path d="M98-170l6-2 13-6 10-4 11-4 13-2 11-1 12-1 13 0 13 2 13 3 13 5 12 6 11 7 9 8 8 8 8 11 7 13 6 13 6 11 5 10 7 10 8 9 6 8 8 9 8 6 10 4 11 4 7 7 11 11 0 0 0 0-8 7-10 5-11 0-10-4-10-4-9-4-8-7-7-8-8-10-6-8-7-9-6-11-7-12-6-14-5-11-4-9-7-10-8-9-11-9-9-4-11-4-11-3-10-2-10-1-11 0-11 0-14 2-10 3-10 3-12 3-5 0-2 0-2 0-2-1-2-1-1-1-1-2 0-2 0-2 1-2 1-1 1-2 1-1 2 0z"  fill="#c2e1ff" /><path d="M106-168l5 5 11 11 9 11 7 11 5 11 4 10 3 11 2 10 1 12-3 12-1 10 0 14 1 14 2 10 6 10 9 7 12 3 12-2 10-7 9-6 11-5 11-2 11-2 11-1 11-2 10 2 15 3 0 0 0 0-1 7-5 10-8 8-10 2-12 1-10 1-11 2-11 4-9 6-11 6-13 4-10 1-14-3-11-4-11-9-8-8-5-9-4-9-2-10-2-11 0-11 1-12 1-12 3-10 1-10-2-14-3-13-4-9-4-10-7-10-9-11-5-6-1-1-1-2 0-2 0-2 1-2 1-1 1-2 2-1 2 0 2-1 1 1 2 1 2 1z"  fill="#fff" /><path d="M93-158l-3-5-7-9-7-8-11-9-12-6-13-4-13-3-14-1-13 2-10 4-11 6-10 7-11 10-10 10-11 10-10 10-11 9-11 7-11 7-10 5-13 5-15 3-15-1-15-3-14-7-12-11-9-15-7-18-3-10-3-11-3-12-4-11-5-11-5-12-6-12-5-11-6-12-6-11-6-12-6-12-6-11-7-9-6-9-6-9-7-7-14-14-14-11-13-9-14-8-13-7-11-6-10-6-30-29 0 0 0 0 36 7 10 6 10 6 12 8 13 8 15 10 14 12 8 7 7 7 7 8 7 9 6 9 7 9 6 11 7 11 6 11 6 12 7 11 6 12 6 11 7 11 7 12 6 12 5 12 5 12 3 10 4 10 6 13 9 13 11 7 14 3 10 0 14-4 10-5 9-5 9-7 10-7 9-9 11-10 11-11 12-11 13-10 14-7 15-6 14-2 12 1 11 2 11 2 10 4 10 4 10 6 10 8 8 9 7 11 6 10 3 5 1 2 0 2 0 2-1 2-1 1-1 2-2 1-1 0-2 0-2 0-2-1-2-1-1-1z"  fill="#fff" /><path d="M99-155l-6 0-12 0-12 0-10-2-14-2-13-4-11-4-10-2-10 1-15 4-13 2-13 1-13-1-14-1-13-3-12-2-12-3-13-3-11-4-12-4-12-6-12-5-12-4-14-5-15-7-15-10-12-10-11-9-10-6-11-7-10-7-9-6-8-6-12-10-9-9-9-12-9-11-10-12-9-10-9-8-13-30 0 0 0 0 32 9 10 9 7 7 7 9 8 9 6 8 7 11 7 8 9 9 10 8 8 6 10 6 10 7 13 8 11 10 11 8 11 8 13 5 14 5 13 4 13 6 11 5 10 4 10 3 11 3 12 3 12 2 12 2 11 1 11 1 11-1 10-1 11-3 12-2 12 1 10 2 13 5 9 5 11 4 13 3 11 2 12 2 7 1 2 0 1 1 2 1 1 2 1 1 0 2 0 2-1 2-1 2-1 1-2 1-2 0-2 0z"  fill="#005bbb" /><path d="M93-166l3-6 5-11 4-10 3-10 4-12 4-10 3-13 1-10 0-11 0-11 2-13 3-12 3-12 2-12 3-12 1-10 0-11 0-12-2-12-4-11-7-12-7-10-5-11-4-12-3-11-1-13 0-12 2-11 2-11 3-14 1-11 2-11 1-11 2-12 1-11 1-11 2-12 1-11 23-38 0 0 0 0 5 41-1 11-2 11-1 12-1 12-1 10-1 13-2 12-2 11-2 11-3 13-1 13 0 12 4 13 6 13 5 9 7 10 5 11 4 12 2 11 1 14 0 14-1 14-3 13-3 11-3 12-4 10-2 11-1 10-2 12-1 13-3 10-4 11-4 10-5 10-5 11-6 11-7 10-3 5-1 2-1 1-2 1-2 0-2 0-2 0-2-1-1-1-1-2-1-2 0-2 0-2 1-1z"  fill="#005bbb" /><path d="M106-168l3 4 10 8 10 10 7 8 6 9 5 11 4 11 4 11 4 13 2 12 1 11 1 14 0 12 0 12 0 12 1 12 4 10 10 4 12 1 11 1 13 3 11 4 10 3 10 2 13-2 10-1 16-1 10 1 14-1 11-2 14-4 55-3 0 0 0 0-47 30-14 5-14 4-15 2-11 0-15 0-11 2-10 1-14 0-11-3-11-4-12-4-12-2-11-1-10-2-11-4-11-7-8-11-5-14 0-12 0-12 0-11 1-12 0-12 0-13-2-14-2-11-4-11-3-11-5-12-7-11-7-10-9-10-3-4-1-2-1-2 0-1 0-2 1-2 1-2 2-1 1-1 2 0 2 0 2 0 2 1 1 1z"  fill="#fff" /><path d="M105-156l-5 4-8 9-7 10-7 12-7 12-9 14-11 15-7 8-7 7-8 7-8 7-9 7-9 6-11 6-11 6-11 6-11 6-11 6-10 6-10 7-10 8-10 7-10 7-9 7-10 6-9 7-9 7-8 9-8 9-7 10-5 11-5 13-4 13-4 13-3 14-2 15-1 15 0 15 0 16 2 16 4 14 6 14 7 14 8 13 10 12 10 12 12 12 12 13 13 13 12 13 11 12 12 12 12 11 12 12 13 11 12 10 11 12 11 11 10 11 10 12 10 11 10 11 11 11 11 11 10 12 9 12 8 12 8 13 8 13 8 13 7 13 8 12 8 12 7 11 7 11 6 11 7 10 7 11 6 10 6 11 5 11 5 11 4 10 4 10 3 10 7 17 14 64 0 0 0 0-31-58-5-18-6-19-4-10-4-10-5-11-5-11-6-10-6-11-7-11-6-11-6-11-7-11-7-12-8-12-8-13-7-14-8-13-7-12-8-12-9-12-10-11-10-11-11-11-10-11-10-12-10-12-10-11-10-12-11-11-12-11-12-11-12-11-12-12-12-12-12-12-12-13-12-12-13-13-13-12-11-12-10-13-9-14-7-14-7-15-4-16-3-17-1-16 0-16 0-16 2-15 2-15 4-15 4-14 5-13 6-13 7-12 9-11 9-9 10-9 10-7 9-6 10-7 9-6 10-7 10-8 10-8 12-8 11-6 10-6 10-7 11-6 9-6 16-12 14-13 12-14 11-13 8-13 8-12 9-13 10-11 11-9 5-4 2-1 2 0 2 0 2 0 1 1 2 1 1 1 1 2 0 2 0 2-1 2-1 2-1 1z"  fill="#fff" /><path d="M104-169l7 3 13 9 15 11 15 10 16 11 8 6 8 6 8 6 8 7 14 14 8 7 7 6 15 13 8 7 9 7 8 7 8 7 8 8 8 8 8 8 7 8 7 7 8 6 9 6 10 6 10 5 10 4 11 4 12 3 11 3 12 1 11-1 12-1 13-2 13-4 14-6 16-6 17-9 16-11 16-14 18-18 20-20 22-19 26-18 29-19 31-17 30-18 31-19 28-19 28-21 28-21 27-19 26-18 28-17 26-15 27-15 26-15 25-15 25-13 25-13 24-10 23-9 22-7 21-7 20-5 20-4 19-3 19-2 18-2 19-2 17-3 17-3 17-4 16-5 16-4 15-4 15-3 16-4 16-2 14-3 15-3 14-4 14-2 14-2 15-1 14 1 15 1 14 2 96 18 0 0 0 0-97-6-14-2-14-2-14-1-13 0-14 2-14 2-14 3-15 2-15 3-15 2-16 3-15 3-16 3-16 4-16 4-17 4-17 3-18 2-18 1-19 2-19 1-19 3-19 4-21 5-21 7-21 7-23 9-24 10-25 12-25 14-25 15-26 15-27 15-26 15-27 17-27 17-27 20-27 21-28 20-29 20-30 19-31 18-30 18-29 18-25 18-22 20-20 21-17 18-15 16-16 13-17 11-16 9-15 7-14 5-14 3-14 2-13 0-13-1-13-2-12-3-13-4-11-5-11-5-11-7-10-6-9-7-9-8-7-8-8-8-7-7-7-7-8-7-8-7-9-7-8-6-8-7-8-7-15-13-15-14-14-13-15-11-16-11-16-11-13-12-12-9-6-4-1-1-2-1 0-2-1-2 0-2 1-2 1-1 1-2 2-1 2 0 1 0 2 0 2 1z"  fill="#fff500" /><path d="M104-170l5 3 10 3 14 3 13 0 12 0 10-3 12-5 11-6 9-5 10-7 9-6 9-5 7-9 7-9 5-9 5-8 6-10 8-8 6-8 5-10 8-6 9-10 0 0 0 0 8 9 5 8 0 12-5 11-6 9-9 10-7 8-5 9-6 10-7 9-8 8-8 7-10 7-10 5-9 5-11 6-9 4-11 5-13 3-14 2-15 0-10-2-11-3-11-4-11-5-5-4-1-1-2-1 0-2-1-2 0-2 1-2 1-1 1-2 2-1 1 0 2-1 2 1 2 0z"  fill="#005bbb" /><path d="M100-171l6 0 13-2 14-2 15 0 16-1 19 1 11-1 11-2 12-2 12-3 14-4 13-4 12-6 13-6 14-6 14-5 15-5 15-3 15-2 15-1 14 0 14 1 13 1 14 2 13 4 13 4 11 7 11 7 9 8 9 9 8 9 7 9 7 9 7 9 7 8 14 14 14 11 14 11 15 10 16 11 17 8 17 6 18 2 10 0 11-1 10-3 10-3 11-4 10-5 11-5 10-6 10-6 10-6 10-6 10-6 9-5 9-6 9-6 8-6 9-6 9-6 10-5 10-5 11-4 10-4 11-3 11-3 11-3 10-2 11-2 9-3 20-5 9-3 18-6 14-8 14-8 53-24 0 0 0 0-43 42-14 8-17 8-10 3-10 3-9 3-10 2-10 3-10 2-11 3-10 2-10 3-11 3-10 3-19 6-9 5-9 5-9 5-9 6-9 6-9 6-9 5-10 6-10 6-9 6-10 5-10 6-11 7-11 6-11 6-11 4-12 5-12 3-13 1-12 1-12-1-11-2-10-3-10-4-10-4-8-6-9-5-8-6-16-11-14-12-14-13-7-7-8-8-7-9-6-9-7-9-7-9-7-9-8-8-8-7-8-7-11-6-11-5-11-3-13-2-13-2-13 0-14 0-14 0-14 2-13 3-14 5-13 6-13 7-14 6-13 7-13 5-14 5-13 4-13 4-13 2-12 2-19 0-17-1-14 0-13 0-13 1-7-1-1 0-2 0-2-1-1-2-1-1-1-2 0-2 0-2 1-2 1-1 2-1 2-1 1-1z"  fill="#c2e1ff" /><path d="M92-161l-2-6-3-14-2-15 0-14 2-13 4-11 5-14 6-14 7-10 9-10 9-6 10-6 11-5 12-3 11-1 12 1 10 2 14 3 12 2 11 2 13 4 12 8 9 6 10 9 8 10 6 8 7 9 7 8 8 6 11 5 10 4 8 8 1 24 0 0 0 0-27-5-9-4-10-5-8-5-8-8-8-10-7-10-7-10-7-7-9-7-9-7-11-4-11-2-12-3-14-3-11-2-11 1-11 4-12 7-9 7-7 11-6 12-6 12-4 14-1 11 0 13 2 13 1 7 0 2 0 2-1 1-1 2-1 1-2 1-2 1-2 0-2-1-2-1-1-1-1-2-1-2z"  fill="#fff500" /><path d="M95-169l6-5 12-10 15-9 16-8 15-8 15-9 15-10 13-11 11-12 9-14 8-14 6-14 4-13 3-14 3-14 2-14 2-15 2-15 4-14 3-15 2-13 2-13 1-13 1-14 0-13 0-15-4-14-7-16-9-17-11-13-14-11-15-10-18-6-10-2-11-2-11-1-12-2-11-1-11 0-12 0-12 1-12 1-12 2-13 4-13 4-13 5-13 5-12 5-12 6-10 7-11 8-10 9-10 9-10 10-8 10-7 11-6 12-5 12-6 12-5 11-5 12-4 11-41 73 0 0 0 0 27-78 5-12 5-11 6-12 5-12 6-12 7-13 7-12 9-11 10-11 11-10 11-9 11-8 12-8 12-7 13-6 13-5 13-6 14-5 13-4 14-3 13-2 12-1 13-1 12 0 13 1 11 1 12 2 12 1 11 2 12 3 10 5 10 5 9 5 8 7 9 7 7 8 7 8 6 10 10 18 4 9 3 10 3 18 0 17-1 14-1 14-2 14-2 14-3 15-3 14-3 14-3 14-2 15-3 15-3 15-5 15-6 15-8 16-10 15-12 16-7 7-15 13-16 10-16 9-16 8-16 7-13 7-13 9-6 4-2 1-2 0-1 0-2 0-2-1-2-1-1-1-1-2 0-2 0-2 1-2 1-1 1-2z"  fill="#fff" /><path d="M102-155l-7 2-14 3-14 3-16 1-16 1-17 0-16-1-16 1-14 4-12 5-14 7-12 8-11 10-9 11-9 14-8 16-6 15-8 16-7 16-8 18-5 9-6 9-6 9-7 8-7 8-7 8-8 6-16 11-18 8-19 4-19 2-10 0-11 0-10-1-11-3-11-3-10-4-10-4-9-6-9-5-17-9-18-6-19-3-20 0-11 1-11 1-11 1-12 1-12 1-12-1-11 0-12-1-11-1-10-1-10-1-20-1-18-1-18 0-18 1-19 1-10 0-10 0-70-7 0 0 0 0 69-13 10 0 20-1 18-1 19 0 19 1 19 2 10 1 11 1 10 1 10 1 11 1 11 0 11 0 11 0 12-2 11-1 12-1 11-1 11-1 12 0 11 1 11 3 11 3 11 4 9 5 9 5 17 9 17 7 18 5 18 1 18-2 16-2 15-4 14-7 13-10 13-13 11-16 9-16 8-18 7-17 7-15 7-17 9-16 9-16 12-15 14-12 15-9 14-7 16-7 18-4 18-1 17 1 16 1 16 0 14-1 14-1 13-1 6-1 2 0 2 0 2 1 2 1 1 1 1 2 0 2 0 2-1 2-1 1-1 2-2 1-1 0z"  fill="#fff500" /><path d="M100-171l6 0 11-1 11-3 12-2 12-1 12-1 11 2 11 2 12 6 11 5 14 6 13 6 11 4 10 5 10 6 9 6 12 7 9 5 11 5 10 1 13 1 10-2 10-4 11-6 9-8 6-9 3-10 3-11 1-11 2-13 1-13 1-14 13-40 0 0 0 0 17 34 0 13-1 14-1 14-1 13-3 14-3 13-6 12-7 11-9 10-10 8-12 7-12 3-12 4-14 1-12-1-13-3-11-4-11-5-12-8-11-8-12-7-14-7-11-4-9-5-13-6-12-7-9-5-10-3-13-1-11 0-12 1-13 1-12 0-6 0-2-1-2 0-1-1-2-2-1-2 0-1 0-2 0-2 1-2 2-1 1-2 2 0 2-1z"  fill="#005bbb" /><path d="M102-170l7 1 13 3 15 2 14 2 16 1 15 1 15 0 13-1 12-2 10-3 11-6 11-10 7-7 8-7 10-7 7-10 6-9 4-10 2-11 0-12 1-12 2-12 5-9 7-8 10-7 10-5 9-6 10-4 12-3 13-2 11 2 10 3 22 26 0 0 0 0-35 3-10-1-12 2-9 4-9 5-9 5-6 8-2 10-1 11-1 12-3 13-4 9-8 12-8 10-11 9-10 8-11 9-9 7-10 8-13 5-13 3-14 2-15 1-16-1-16-2-17-2-15-3-15-3-14-5-6-2-2 0-2-2-1-1-1-2 0-2 0-2 1-2 0-1 2-2 1-1 2 0 2 0 2 0z"  fill="#fff" /><path d="M108-164l1 6 2 10 3 12 5 11 7 9 8 7 7 8 5 9 3 11-2 10-7 10-8 7-8 7-9 9-9 6-10 5-10 4-27-3 0 0 0 0 8-22 9-6 11-4 9-6 8-7 8-6 8-7-6-9-7-9-6-8-4-10-2-12-2-14 0-10-1-5 0-2 1-2 1-2 1-1 1-1 2-1 2 0 2 0 2 1 1 1 1 1 1 2 1 2z"  fill="#fff" /><path d="M100-170l7-1 14-2 14-2 16-3 19-5 10-2 11-3 11-2 11-3 11-3 11-2 9-3 18-7 14-10 17-11 17-11 8-6 9-5 9-5 10-5 9-5 9-5 9-6 10-5 9-6 9-6 8-7 8-7 8-6 8-7 8-8 7-7 8-8 9-7 9-7 8-7 8-7 7-7 12-14 9-14 7-14 5-15 4-13 1-14 0-14 0-14-2-13-2-12-2-12-1-13-2-13 0-14 0-16 3-16 4-15 3-13 2-11 2-11 0-13-3-14-3-9 3-39 0 0 0 0 23 31 3 11 3 12 1 13-1 13-3 11-3 13-3 13-4 13-2 12 0 13 0 14 1 13 1 11 2 12 2 14 1 14 0 15-1 16-2 17-5 16-7 15-8 16-11 16-7 8-7 7-8 8-8 7-9 7-8 7-8 7-8 7-7 8-8 7-8 8-9 7-8 7-9 7-10 7-9 6-10 6-9 6-10 5-9 5-9 5-17 10-17 11-8 6-17 11-8 5-9 5-10 4-10 4-10 3-11 3-11 2-11 3-11 3-11 3-10 3-20 5-18 3-15 0-15 1-7-1-2 0-1 0-2-1-1-2-1-1-1-2 0-2 1-2 0-2 2-1 1-1 2-1 2 0z"  fill="#c2e1ff" /><path d="M103-155l-6 3-9 5-9 6-8 7-9 9-8 11-8 15-8 15-7 16-7 16-8 16-8 15-8 13-9 12-9 11-10 10-10 11-10 10-9 9-9 9-9 9-8 8-10 7-9 7-9 6-9 5-10 5-10 5-11 3-14 3-13 2-12 1-13 1-10 0-13 2-14 1-12-1-10-4-9-7-5-11 2-19 0 0 0 0 17 5 11 5 10 2 11-2 10 0 12 0 11-1 11-1 11-1 13-2 11-3 12-6 13-8 9-5 12-9 8-7 8-7 9-9 10-10 10-10 10-9 9-10 9-10 8-10 8-12 8-13 7-15 7-16 7-17 9-16 9-16 10-14 11-11 11-7 11-6 12-4 6-2 2-1 2 0 2 1 2 1 1 1 1 2 1 2 0 2 0 1-1 2-1 2-1 1-2 1z"  fill="#c2e1ff" /><path d="M108-162l0 6 0 11 1 14 0 10 0 14 1 11 3 11 3 12 3 11 2 10 3 12 2 13-1 13-3 10-5 10-7 9-6 8-5 10-6 9-7 9-7 9-9 12-12 14-12 13-12 11-10 12-9 12-9 11-9 11-10 10-11 9-12 8-15 6-13 5-15 5-15 5-20 6-18 3-62 0 0 0 0 0 66-24 17-5 16-6 15-5 14-5 11-5 10-5 10-7 9-7 8-9 9-11 9-12 10-12 11-13 11-12 10-13 8-12 8-13 10-13 6-10 7-12 9-10 5-9 2-10-1-11-2-12-2-10-2-12-2-12-2-14 1-14 1-14 0-10 1-11 2-11 1-5 0-2 1-2 2-1 1-1 2-1 2-1 2 1 1 0 2 1 1 2 1 1 1 2 0 2z"  fill="#fff500" /><path d="M101-155l-5 2-13 5-10 4-10 3-14 2-12 2-12 1-12 1-12 1-11-1-10-4-9-5-7 8-8 7-10 1-15 2 0 0 0 0 1-13 1-11 7-8 10-6 9-5 10-4 11 1 11 6 9 5 12 0 12 0 10 0 12-1 13-1 13-1 9-3 12-3 6 0 2 0 1 0 2 1 2 1 1 2 1 1 0 2 0 2-1 2-1 2-1 1-2 1-2 0z"  fill="#fff500" /><path d="M98-170l5-2 11-4 11-3 10-2 11-2 12-3 12-3 12-4 13-5 12-6 12-6 10-7 10-8 10-8 8-7 9-7 10-8 10-9 8-8 5-8 7-12 4-10 5-10 4-11 1-12 1-13 0-11-2-11-3-13-3-12-1-10-1-12-1-14 5-12 23-12-1 0 1 0 4 30 0 12 2 12 2 11 3 11 2 12 0 13 0 12-1 12-1 11-3 11-6 12-5 10-6 10-7 12-8 11-10 9-11 10-8 6-12 8-9 7-10 7-11 9-13 8-12 7-14 6-14 6-14 4-14 3-12 2-12 1-10 1-10 1-10 2-6 1-2 1-2-1-1 0-2-1-1-2-1-1-1-2 0-2 0-2 1-2 1-1 2-1 2-1z"  fill="#c2e1ff" /><path d="M108-162l0 7 2 11 5 11 4 13 5 15 2 17 3 18 2 10 1 10 1 10 2 11 1 10 3 19 4 16 4 16 4 15 5 15 4 13 6 14 6 16 3 17 3 17 2 16 3 15 3 14 6 13 6 13 8 10 8 6 10 6 11 4 11 3 12 3 10 0 12 0 13 1 13 1 12 3 12 3 11 4 12 4 11 7 10 8 7 10 6 9 5 10 4 14 4 11-5 39 0 0 0 0-21-27-4-10-4-13-3-10-7-11-7-8-12-6-10-4-10-3-10-3-11-2-10-1-12 0-14 0-13-3-14-3-13-5-13-7-13-9-12-12-8-15-7-16-5-16-3-16-3-15-2-17-3-15-3-14-6-14-6-16-4-15-4-15-3-16-4-16-4-19-1-10-2-10-1-11-2-10-3-20-3-18-2-15-3-14-4-13-4-14-1-15 1-7 0-2 1-1 1-2 2-1 1-1 2 0 2 0 2 0 2 1 1 1 1 2 1 2 0 2z"  fill="#fff" /><path d="M106-157l-5 6-10 10-9 10-10 10-13 12-15 9-19 9-10 3-11 2-11 1-11 1-11 1-11 0-11-1-11-1-12-2-11-3-10-3-10-3-10-3-10-3-10-4-10-4-10-4-18-8-18-6-18-5-18-5-17-6-15-6-14-7-14-8-12-8-12-9-11-8-11-8-13-7-14-8-12-9-12-10-11-10-10-11-9-11-8-12-8-12-10-13-9-13-8-15-7-14-8-16-7-15-8-18-4-9-4-10-4-10-4-11-3-13-2-13-2-13-1-13 7-85 0 0 0 0 11 84 2 12 2 11 2 12 4 11 4 10 4 9 8 19 9 16 8 16 7 15 8 14 7 12 8 13 9 12 10 13 7 11 8 10 8 10 9 8 11 9 12 9 12 7 13 8 13 9 12 9 10 8 11 8 12 8 13 6 14 7 15 6 17 5 19 5 10 3 10 4 9 4 10 4 18 8 18 7 10 3 20 5 10 2 10 2 10 1 20 0 10 0 19-3 18-4 16-7 13-8 12-9 10-10 10-9 11-9 5-5 2-1 1-1 2 0 2 0 2 0 2 1 1 1 1 2 1 2 0 2 0 2-1 2-1 1z"  fill="#fff" /><path d="M107-158l-4 5-8 11-10 10-11 9-11 7-11 5-11 5-10 3-11 2-11 1-11 0-10-1-10-2-11-3-13-5-11-4-12-1-10 1-12 3-14 0-13-1-14-3-9-6-7-8-7-13-3-13-1-14-1-14 0-12-1-11-2-11 0-10 4-10 0-15 0 0 0 0 13 3 10 6 4 10 0 12 1 11 1 11 0 12 0 11 2 12 2 12 5 9 10 2 12 1 11-2 15-1 10 0 10 1 10 3 12 5 10 5 13 3 12 1 12 0 14-2 13-3 10-5 9-5 10-6 10-7 7-8 4-5 2-2 1-1 2 0 2-1 2 1 2 0 1 1 2 2 1 2 0 2 0 1-1 2 0 2z"  fill="#c2e1ff" /><path d="M95-156l-5-4-10-7-9-7-12-8-8-6-7-7-9-12-4-10-3-11-1-11 1-12 3-13 3-11 2-13 5-14 6-14 7-14 8-16 9-15 9-16 10-14 8-15 8-16 7-17 8-18 5-16 5-15 3-13 2-13 1-12 1-11-1-11-1-11-2-10-3-10-6-11-10-11-12-9-9-7-9-8-8-7-13-7-11-4-14-7-33-33 0 0 0 0 51 12 12 5 13 6 11 7 10 7 8 8 9 7 9 8 9 8 8 9 7 13 5 13 2 12 2 13 0 13 0 13-2 12-2 14-4 14-4 15-6 16-7 18-6 18-4 9-4 10-9 16-9 16-9 14-8 15-7 15-7 15-5 13-5 12-3 11-3 13-2 11-2 13 0 14 5 11 7 9 10 9 8 7 8 8 9 8 4 4 1 2 1 1 1 2 0 2 0 2-1 2-1 1-2 1-2 1-2 0-2 0-1 0-2-1z"  fill="#005bbb" /><path d="M102-170l5 1 14 2 13 0 13 1 12 2 12 5 10 5 10 7 9 7 13 7 13 6 13 8 10 6 9 9 9 11 7 12 5 12 4 14 3 14 4 15 4 16 4 16 2 16 2 14 3 13 4 11 5 11 6 11 6 11 8 13 7 14 7 12 7 11 7 13 7 11 7 13 7 14 6 14 4 14 2 15-1 15-22 42 0 0 0 0-4-45 1-15-2-11-4-12-6-13-6-12-7-11-8-13-7-11-7-13-7-13-7-13-8-12-6-12-6-12-5-14-4-14-2-15-3-14-3-15-4-15-5-16-4-15-3-11-4-11-7-12-8-11-11-8-13-7-12-6-9-5-11-8-10-9-8-6-12-6-10-2-13-3-10-2-14-4-5-2-2 0-1-2-1-1-1-2-1-1 0-2 1-2 0-2 2-1 1-1 2-1 2 0 2 0z"  fill="#fff" /><path d="M107-159l-1 5-3 10-1 15 4 11 8 13 9 10 11 10 13 10 14 11 16 9 19 8 10 5 12 5 12 6 12 5 13 5 12 6 12 6 12 7 11 8 10 9 9 10 8 10 7 11 6 10 6 10 6 9 6 9 7 8 7 8 7 7 8 8 7 7 15 12 8 7 8 7 8 7 8 6 8 7 9 6 9 7 10 6 9 6 11 5 10 6 12 5 14 5 15 6 15 5 16 3 16 3 16 2 16 2 17 1 16-1 16-1 17-3 18-3 17-3 18-5 17-6 19-8 19-10 20-11 20-12 20-12 20-12 19-14 20-15 19-16 18-16 17-16 16-16 15-16 16-15 15-15 15-14 15-13 15-11 16-11 111-70 0 0 0 0-109 72-16 11-16 11-15 13-15 13-15 15-15 15-15 16-16 17-18 16-18 16-19 16-20 15-19 14-20 12-20 13-20 12-19 11-19 11-19 9-17 7-18 6-18 4-18 4-17 3-17 1-17 1-17 0-16-1-17-2-17-2-16-3-16-4-16-4-14-5-14-5-12-5-11-6-10-6-10-6-10-7-9-6-9-7-9-7-15-14-7-7-8-7-8-7-7-7-8-8-8-8-8-9-6-9-7-9-5-10-6-10-6-9-7-10-7-9-8-9-9-8-9-7-11-6-12-6-12-5-12-4-13-5-13-5-11-4-11-4-11-4-10-4-10-5-18-11-13-11-14-11-12-12-9-12-6-13-3-13 0-14 3-12 5-11 3-6 1-1 1-2 2-1 1 0 2-1 2 1 2 1 2 1 1 1 1 2 0 2 0 2-1 2z"  fill="#fff500" /><path d="M92-165l2-6 3-12 2-12 3-14 3-17 3-15 1-15-2-12-5-11-7-9-8-8-9-6-14-4-11 2-10 6-10 9-7 13-6 9-3 10-4 11-2 12-3 14-4 13-3 12-4 13-4 13-4 12-2 11-1 13-2 15-3 16-4 17-4 17-5 17-4 17-5 18-4 17-4 16-3 14-2 13-1 13-2 13 0 13 0 14 1 14-10 50 0 0 0 0-15-55-1-16 0-15 2-14 2-14 2-14 3-15 4-15 4-16 4-17 4-18 4-17 4-18 4-16 2-15 2-14 1-14 2-16 4-14 4-12 3-12 4-13 4-11 3-12 2-13 3-15 5-13 6-12 6-10 8-12 9-8 11-8 12-6 15-2 15 2 15 6 13 9 10 12 8 13 7 16 2 18-2 17-3 17-4 16-3 15-4 13-5 12-2 5-1 2-1 1-2 1-2 1-2 0-2 0-1 0-2-1-1-2-1-2-1-1 0-2 0-2z"  fill="#fff" /><path d="M106-167l4 4 8 10 7 11 4 11 4 10 5 11 6 13 4 12 4 9 6 11 5 9 7 11 8 8 9 8 7 7 9 7 7 9 6 10 4 11 3 13 1 10 0 11 3 9 4 11 4 10 3 11-3 9-10 16 0 0 0 0-9-10-9-7-4-11-4-10-3-10-3-11-1-10-1-11-2-12-4-10-7-9-8-8-8-8-8-7-7-10-7-10-5-10-5-10-4-11-4-11-3-11-4-13-5-14-3-14-4-10-6-10-3-5-1-1-1-2 0-2 0-2 1-2 2-1 1-2 2 0 2-1 2 1 2 0 1 1 1 2z"  fill="#c2e1ff" /><path d="M99-155l-7 0-14 0-14 1-13 2-12 5-14 5-13 6-12 6-12 8-10 10-9 11-10 12-8 13-8 13-8 15-8 16-9 15-10 16-7 8-7 8-7 7-9 7-9 7-8 6-10 5-9 5-10 3-18 6-18 6-18 7-9 4-18 8-15 10-13 12-11 13-10 16-10 17-6 9-7 9-7 8-8 8-9 8-9 6-9 6-9 5-10 5-9 4-10 4-18 6-18 7-16 8-13 9-10 9-7 9-3 12-1 11 0 11-15 31 0 0 0 0-9-37 0-11 2-12 5-11 8-12 11-12 15-10 17-10 18-7 19-7 17-6 17-8 16-10 16-12 13-15 12-16 10-16 5-9 6-9 6-8 6-8 8-7 8-7 9-6 9-5 10-5 9-4 19-8 18-7 19-6 16-5 16-8 15-12 14-13 11-14 10-15 8-14 8-15 7-15 9-16 10-14 10-13 11-13 13-12 14-9 14-7 15-6 14-4 15-5 16-2 16 0 15 2 7 1 2 1 2 1 1 1 1 2 1 1 0 2 0 2-1 2-1 2-1 1-2 1-2 0-2 0z"  fill="#fff500" /><path d="M99-155l-8 0-14-1-15 0-14 1-14 3-12 4-12 5-10 4-10 6-11 9-7 9-3 11 4 10 7 10 8 8 8 8 8 8 8 6 9 7 4 9 5 0 0 0 0 0-3 10-10 5-11 2-10-6-9-6-7-8-8-8-7-8-7-8-6-10-5-9-5-13 0-11 3-11 6-11 7-10 10-7 11-7 12-6 12-5 13-4 14-4 15-2 17-1 17 2 15 2 7 1 2 1 2 1 1 1 1 2 1 2 0 1 0 3-1 1-1 2-1 1-2 1-2 1-2 0z"  fill="#c2e1ff" /><path d="M92-162l-1-6-2-10-4-13-5-11-5-12-5-11-4-10-7-8-11-7-7-8-9-7-10-5-10-3-10-5-11-1-10 2-11 2-11-4-13-13 0 0 0 0 13-10 8-6 10-2 12-1 10 0 11 2 9 4 10 5 10 3 10 6 8 8 8 9 8 8 8 7 7 10 5 12 3 11 4 12 3 13 3 10 1 10 1 12 0 6 0 2-1 2-1 1-1 2-2 1-2 0-2 0-1 0-2-1-2-1-1-1-1-2 0-2z"  fill="#fff" /><path d="M107-167l4 6 7 11 8 8 12 9 9 5 10 4 11 3 12 2 15 4 13 4 15 4 14 5 14 6 15 7 13 8 12 10 10 11 8 11 8 14 7 13 8 11 8 10 10 9 10 7 11 5 11 4 12 4 10 1 14 0 12-1 12-1 11 0 10 2 11 3 12 1 10 2 7 7 9 8 0 0 0 0-16 10-10 3-11-1-12-3-10-3-10-1-11 0-14 1-11-1-13-1-14-3-14-5-13-6-13-9-13-10-10-11-11-13-8-14-6-12-7-10-7-9-8-8-10-8-11-6-13-6-14-5-14-4-14-5-12-4-13-3-14-3-13-5-12-6-10-9-10-9-8-11-6-12-3-6-1-2 0-2 0-2 1-2 1-2 1-1 2-1 2 0 2 0 2 0 1 1 2 1 1 2z"  fill="#fff" /><path d="M96-156l-5-2-10-5-9-5-12-7-12-7-8-6-10-9-11-10-10-10-6-8-9-12-6-10-5-10-5-9-5-10-5-9-6-10-4-10-3-10-2-11-3-10-6-9 0-11 6-18 0 0 0 0 13 8 10 5 6 9 5 11 1 10 1 11 4 10 4 9 5 10 4 10 5 10 5 10 5 10 6 9 8 10 9 11 9 9 8 9 10 7 11 8 12 9 8 6 5 4 2 1 1 1 1 2 0 2 0 2-1 2-1 1-1 2-2 1-1 0-2 0-2 0-2-1z"  fill="#fff500" /><path d="M95-168l5-5 14-13 9-5 10-5 10-5 11-5 12-5 13-5 12-7 13-7 12-8 12-9 11-10 11-11 11-12 12-13 11-13 12-14 10-15 11-14 11-14 10-14 11-15 12-14 11-14 10-14 11-13 10-11 12-11 12-10 12-9 13-9 13-7 13-8 12-7 13-8 13-7 12-6 13-5 12-4 12-4 11-3 11-2 11-1 19-2 17-1 16 0 14-1 15 0 15-1 15-1 19 3 19 6 9 4 10 5 9 5 9 6 10 8 8 9 8 10 6 10 4 9 4 10 5 19 0 18-2 18-3 17-6 18-7 18-5 11-5 11-6 10-5 11-6 11-7 12-7 12-8 11-7 13-8 12-57 86 0 0 0 0 44-93 7-13 7-13 7-12 6-11 6-12 5-12 6-11 5-10 4-10 4-10 3-9 6-18 4-15 3-15 1-15-1-14-5-16-8-16-13-15-16-11-17-9-17-6-15-4-14-1-15 1-15 0-15-1-15 0-17-1-17 0-19 1-10 1-11 2-11 2-12 4-12 4-12 6-13 6-12 7-13 8-13 7-13 7-13 8-12 9-12 8-11 10-11 12-11 12-11 14-10 14-12 14-11 15-10 14-10 14-11 15-10 15-11 14-11 15-10 13-12 13-11 12-11 11-12 10-12 9-13 9-13 7-13 7-12 6-11 4-9 4-17 9-13 10-6 5-2 1-1 0-2 1-2 0-1-1-2-1-1-1-1-2 0-1 0-2 0-2 1-1 1-2z"  fill="#c2e1ff" /><path d="M98-170l6-2 11-5 9-4 12-7 10-7 7-9 5-11 0-10-9-6-11-2-10 4-12 6-13 4-12 3-9 5-10 5-11 6-8 6-10 6-9 7-8 6-10 6-10 5-11 0-19-7 0 0 0 0 9-14 6-8 10-3 9-6 8-7 11-7 10-7 9-6 11-5 9-5 10-5 11-3 10-3 12-4 12-6 10-2 14 0 13 4 10 6 9 7 6 10 2 11-1 10-5 12-6 10-8 9-12 9-13 7-10 4-11 4-13 3-6 1-2 0-2 0-2 0-1-2-2-1-1-2 0-2 0-1 0-2 1-2 2-2 1-1 2 0z"  fill="#005bbb" /><path d="M92-164l1-6 0-12 0-12 1-13 1-13 2-10 1-11 3-12 5-11 4-10 7-10 7-8 8-8 8-8 9-7 10-7 12-5 12-2 12 1 12 3 12 6 10 6 10 8 8 8 9 7 9 8 9 7 8 6 13 8 12 5 11 1 11 0 12-5 11-4 11-5 12-7 13-9 14-12 12-14 7-9 6-9 6-10 8-11 7-11 7-11 6-11 6-11 7-12 6-11 8-13 7-11 59-73-1 0 1 0-46 80-7 12-7 12-6 12-6 12-6 12-6 11-6 12-6 11-7 11-6 11-6 11-6 10-7 9-7 8-7 8-15 13-15 11-13 7-12 6-12 4-12 4-13 1-11-1-11-3-11-4-10-6-10-6-11-7-9-8-9-7-10-8-7-7-8-7-11-7-10-3-10-1-12 4-11 9-8 7-11 10-7 9-7 12-4 13-3 10-2 11-2 11-2 12-1 13-3 13-1 6 0 2-1 1-2 2-1 1-2 0-2 1-2-1-2 0-1-2-2-1-1-2 0-2 0-2z"  fill="#fff500" /><path d="M102-155l-6 2-10 4-10 6-10 5-9 6-11 6-9 6-12 8-9 6-9 5-12 6-12 6-12 6-11 6-13 4-13 4-13 1-11 1-11 1-10 0-11 0-13-1-11-3-11-2-10-2-13-4-11-2-11-1-11 1-10 1-11 4-9 3-9 3 0 0 0-1-1-8 0-10 4-12 9-5 12-4 10-1 10 0 12 0 11 2 12 3 13 3 10 3 10 2 10 2 13 1 14 0 11-1 11 0 14-2 11-3 9-5 10-4 9-5 12-5 11-5 12-6 8-5 10-6 10-5 10-5 11-6 12-5 11-4 13-3 6-1 2-1 2 1 2 1 1 1 2 1 1 2 0 2 0 2-1 2-1 1-1 2-1 1-2 0z"  fill="#c2e1ff" /><path d="M95-156l-6-4-11-7-12-9-13-11-12-13-6-9-5-10-4-10-4-11-3-10-4-11-3-11-3-10-2-10-5-19-3-17-1-17 0-16 1-16 0-14-2-13-6-14-9-13-10-14-11-14-10-13-9-13-8-13-7-14-7-13-5-15-4-15-2-15-2-14-3-16-2-17 1-17 2-18 3-16 4-16 3-15 3-14 3-13 3-11 1-10 2-14 0-13 1-12 1-12 19-23 0 0 0 0 10 22-2 12-2 11-1 13-2 15-2 10-3 12-3 12-3 14-3 14-4 15-3 16-3 14-1 15 1 15 2 15 3 15 2 15 2 13 3 12 5 12 7 13 7 12 7 12 9 13 10 13 11 14 12 16 9 17 5 19 1 17-1 15-1 15 0 15 1 15 3 17 4 18 3 10 3 11 4 10 4 10 7 19 9 15 10 12 10 10 11 9 10 9 6 4 1 1 1 2 1 2 0 2 0 2-1 1-1 2-2 1-1 1-2 1-2-1-2 0-2-1z"  fill="#fff" /><path d="M93-166l3-7 7-13 7-15 5-17 3-19-1-21-2-11-3-11-4-13-7-13-9-13-13-12-15-14-16-13-18-14-21-14-22-14-24-15-25-13-25-13-25-14-25-13-25-14-25-14-24-15-23-15-20-16-19-16-17-17-15-17-13-18-11-18-11-18-11-17-12-19-12-18-14-18-16-16-18-17-19-17-19-15-19-16-18-16-18-16-17-16-16-16-14-17-13-16-12-18-10-17-9-17-8-16-7-16-6-15-5-14-4-14-3-13-2-12-2-13 0-12 0-11 1-12 1-11 2-11 1-11 1-12 1-12 2-11 2-12 2-12 2-11 3-11 2-11 3-10 3-11 4-10 4-10 4-9 5-9 9-17 8-17 7-18 4-19 1-10 1-10 15-71 0 0 0 0 4 73-1 10-1 12-2 11-3 11-4 10-4 10-9 17-9 17-9 16-8 18-3 10-2 10-3 11-3 10-2 11-2 11-2 12-2 11-1 12-2 12-1 11-2 11-3 11-1 10-1 11-1 12 1 11 0 13 2 12 3 14 4 14 5 15 6 16 7 17 9 17 10 17 12 17 12 17 15 17 16 15 16 16 18 16 18 16 19 16 20 16 19 16 18 17 16 17 14 18 12 18 11 19 12 17 11 18 11 18 13 17 14 17 17 17 19 16 20 16 23 16 24 14 25 14 25 13 25 14 26 13 25 14 25 13 24 13 23 15 21 13 19 12 17 13 17 12 16 12 12 14 9 14 7 14 4 13 2 13 1 12 0 12-1 11-3 11-2 11-4 9-8 15-8 13-4 6-1 2-2 1-1 1-2 0-2 0-2 0-2-1-1-1-1-2-1-2 0-2 0-1 1-2z"  fill="#fff" /><path d="M105-156l-5 4-9 7-9 8-11 7-12 6-12 5-13 2-14 0-12-1-12-2-12-4-11-4-9-5-12-6-12-3-11-4-11-2-11-2-13-1-12-4-12-6-11-7-8-6-10-10-10-6-11-7-12-9-12-8-11-7-12-4-11-2-11-2-15-1-14 1-11 1-13 4-37-3 1 0-1 0 21-22 14-4 10-3 12-1 13-2 12 0 12 1 13 2 11 2 13 4 12 5 10 7 11 8 11 7 12 8 12 9 11 9 8 6 9 5 9 5 10 2 11 2 11 2 12 4 12 4 10 4 9 4 12 7 13 6 14 4 10 1 15 0 14-3 10-4 10-5 10-6 10-7 5-3 2-1 2-1 2 0 2 1 2 1 1 1 1 2 1 2 0 2 0 1-1 2-1 2-2 1z"  fill="#fff500" /><path d="M97-156l-5-1-10-5-10-9-7-8-8-9-9-9-8-9-7-8-8-8-8-6-9-5-13-1-10-2-12 0-12-1-10-4-11-6-11-4-13-2-10-3-10 1-36-10 0 0 0 0 23-21 13-2 15 0 12 3 12 2 11 3 11 6 9 5 11 2 11 0 11 2 10 2 12 3 9 6 8 7 8 8 9 9 8 11 6 9 7 10 7 11 7 9 9 8 4 3 2 1 1 1 1 2 1 2 0 1-1 2-1 2-1 1-1 1-2 1-2 0-2 0-2-1z"  fill="#005bbb" /><path d="M104-156l-6 4-13 8-12 7-11 7-10 9-8 10-5 11-4 12-2 12-1 14 2 14 4 17 4 18 5 17 7 15 7 11 8 9 10 6 9 6 10 4 10 3 14 3 12 1 11 1 11 1 11 4 10 7 7 9 0 10-4 10-5 8 0 0 0 0-4-3-7-8-9-7-10-4-10-1-13-2-10-2-12-3-11-4-13-6-11-7-11-9-12-13-9-15-7-17-6-18-5-18-4-19-3-19 2-17 3-15 6-15 8-15 11-12 12-10 14-8 13-6 13-5 6-3 2-1 2-1 2 1 1 0 2 1 1 2 1 1 1 2 0 2 0 2-1 2-1 1-2 2z"  fill="#fff500" /><path d="M102-170l7 2 17 4 18 3 21 2 10 1 11 1 12 1 12 2 12 1 12 1 12 1 11-1 12 0 11-1 12 0 12 0 13 0 13 2 12 2 13 1 13 1 14 1 13 2 15 1 14-1 15-1 15-4 13-5 12-7 12-7 11-7 10-9 10-9 10-10 9-10 8-11 8-10 6-11 5-11 4-11 2-12 2-12 0-12-1-12-2-12-3-12-4-12-4-12-4-12-4-12-3-12-2-12-2-12-1-10-1-11-1-10 1-18 1-18 3-18 1-17 1-16-1-16-1-19-1-19-3-18-2-10-3-10-3-11-4-11-4-10-4-11-4-11-5-11-5-10-5-11-7-10-6-9-6-9-7-9-6-8-6-9-6-9-26-66 0 0 0 0 47 65 6 8 6 9 6 9 6 9 7 10 7 11 6 11 6 11 5 11 4 11 5 11 4 11 5 11 4 11 3 11 3 10 2 11 1 10 1 20 1 18 1 18-1 18-3 18-3 17-2 17-1 17 0 19 0 10 2 11 1 11 3 11 4 12 4 12 4 13 4 13 3 12 2 14 2 14-1 13-2 13-3 13-5 13-6 12-7 12-8 11-9 10-9 10-10 11-11 10-11 9-12 8-12 7-14 7-14 6-16 4-16 3-16 1-15-1-14 0-13-1-14-1-13-1-12-2-12-1-12 0-11 0-12 0-12 1-12 1-12 0-12-1-13 0-12-2-12-1-12 0-11-2-11-1-10-1-10-1-11-2-9-2-17-6-7-2-2-1-1-1-1-2-1-1-1-2 0-2 1-2 1-1 1-1 2-1 1-1 2 0 2 0z"  fill="#fff500" /><path d="M93-160l-3-7-7-16-7-18-3-10-4-11-3-11-3-11-2-12-3-11-3-11-3-11-3-10-9-17-10-14-14-10-14-7-15-4-16-2-16-1-15 3-13 4-9 6-8 7-8 7-8 10-4 10-5 12-5 10-5 10-4 9-2 13-1 11 0 12-1 13-1 13 0 12 0 12 0 13 1 13 0 13 1 10 3 15 6 11 6 12 5 11 6 8 13 27 0 0 0 0-33-6-7-9-6-11-5-11-6-14-5-12-2-12-2-12-1-13 0-12-1-13 0-14 0-13 1-14 0-12 1-12 0-12 1-13 4-14 5-12 6-9 6-12 5-13 6-10 8-9 8-7 10-8 12-8 16-6 17-4 19-1 19 2 18 4 18 8 9 5 8 7 8 7 6 8 6 9 5 10 5 10 3 11 3 12 3 11 3 11 3 11 3 11 3 11 3 10 3 10 7 18 5 17 2 7 1 2-1 1 0 2-1 2-1 1-2 1-1 1-2 0-2 0-2-1-1-1-1-1-1-2z"  fill="#fff" /><path d="M99-155l-6 0-14-1-16-4-16-6-14-8-11-11-8-12-6-11-5-11-4-10-4-9-7-12-9-11-9-9-9-9-9-8-8-8-8-8-12-8-11-7-11-6-11-6-11-5-10-4-11-3-13-2-13 0-13-2-13-3-10-2-11 2-12 4-9 4-8 8-7 9-28 7 0 0 0 0 2-25 8-8 8-9 11-9 13-6 14-4 11-2 11 0 14 2 13 3 12 1 14 1 10 1 13 4 12 5 12 6 13 6 10 7 13 8 8 6 10 8 8 7 9 9 9 8 10 10 8 10 8 9 7 10 6 11 3 10 4 10 3 10 5 9 5 9 7 8 10 8 13 6 13 4 12 2 7 2 2 0 1 1 2 1 1 2 1 1 0 2 0 2-1 2-1 2-1 1-2 1-2 1-2 0z"  fill="#005bbb" /><path d="M94-168l4-5 10-12 12-11 10-11 7-12 5-11 4-12 1-14-2-14-2-12-1-13 0-13 1-12 1-11 1-14 0-12 1-12 1-11-1-14-2-10-4-14-4-12-4-12-4-12-3-11-2-10-1-12 0-12 0-11-2-10 5-10 2-12 0 0 0 0 17 7 8 8 1 11 0 12 0 10-1 11 1 11 3 10 3 11 4 12 4 14 3 10 2 11 2 13 0 13-1 12-1 10-1 11 0 11-1 11-2 11-1 11 0 15 2 12 1 12 0 13-3 14-5 14-7 14-10 14-12 12-12 10-10 9-5 5-1 1-2 1-2 1-2 0-2-1-1-1-2-1-1-2-1-1 0-2 0-2 1-2 1-2z"  fill="#fff" /><path d="M108-162l0 8 0 14 2 14 4 16 5 15 8 15 6 14 5 13 4 12 3 12 2 12 0 12-2 10-2 12-2 11-3 10-5 13-5 9-7 10-10 7-10 3-11 3-10 1-10 0-11 1-11-1-19-19 0 0 0 0 24-14 11 1 11 0 12 0 10-3 8-7 6-9 3-11 3-10 3-12 2-11 0-13-2-10-3-12-4-12-6-14-7-15-6-18-3-18-1-18 1-15 1-7 1-2 0-2 2-1 1-1 2-1 2 0 2 0 2 0 1 1 1 2 1 2 1 1 0 2z"  fill="#fff" /><path d="M97-170l7-3 14-7 17-8 18-7 18-8 10-4 10-4 10-4 11-4 11-4 11-5 11-4 11-5 10-4 10-5 11-5 11-5 13-5 12-4 12-5 12-6 11-6 11-8 11-7 11-8 11-9 10-9 10-10 8-11 8-11 8-12 7-13 5-13 4-14 4-16 3-17 2-18 0-19-2-20-6-20-7-20-9-20-9-21-10-22-9-24-9-25-8-26-7-26-6-26-5-25-7-25-6-24-7-22-8-21-8-19-8-19-8-17-7-16-7-15-8-14-7-13-6-13-6-12-6-11-7-10-7-10-6-9-7-10-6-9-6-10-5-9-5-10-5-9-6-9-10-16-13-13-13-12-14-10-15-8-16-6-15-5-14-2-45-20 0 0 0 0 49-2 16 4 17 5 17 8 17 10 16 12 14 13 7 8 6 8 6 9 5 9 5 10 5 9 4 9 5 10 5 9 5 10 6 10 7 10 6 10 6 12 5 11 5 13 6 13 5 14 7 15 6 15 7 16 7 18 8 18 8 19 8 21 7 23 6 24 7 24 5 26 6 26 7 26 8 25 9 25 9 24 11 22 10 21 9 20 8 20 6 20 4 20 1 21 0 18-3 18-2 17-4 16-6 14-7 14-8 13-8 12-9 11-10 11-11 10-11 9-11 9-12 8-11 8-12 7-13 7-12 5-12 5-11 5-11 5-11 5-11 6-10 4-11 4-11 5-11 5-11 4-10 4-11 5-10 4-9 4-19 8-18 7-16 6-16 6-7 3-2 0-2 0-2 0-1-1-2-1-1-2 0-2-1-1 0-2 1-2 1-2 2-1 1-1z"  fill="#005bbb" /><path d="M108-165l2 5 5 11 7 11 8 11 7 11 5 9 6 11 6 11 7 11 6 8 7 11 10 8 9 7 10 9 10 8 11 9 8 7 9 8 10 10 9 9 8 9 9 7 10 9 8 7 10 8 8 8 11 9 10 5 12 0 12-4 9-6 14-8 42-7 0 0 0 0-28 33-12 6-9 6-14 6-10 3-11 0-11-1-11-5-10-6-8-7-9-7-8-8-9-8-9-7-10-8-10-9-9-9-9-9-8-8-12-9-9-7-11-9-8-8-9-7-10-8-9-10-5-9-7-11-6-9-5-11-5-11-4-9-5-13-6-11-5-9-4-11-4-11-2-6 0-2 0-2 1-1 0-2 2-2 1-1 2 0 2-1 2 1 2 0 1 2 2 1 0 2z"  fill="#fff500" /><path d="M104-170l6 3 12 5 12 5 13 6 13 6 13 8 12 7 14 7 15 8 17 10 16 10 9 5 18 10 9 4 9 5 17 7 16 6 13 2 13 0 13-3 15-4 14-5 13-5 12-6 11-6 8-8 8-9 7-9 5-9 6-11 4-11 1-12 1-12-2-10-6-9-10-9-8-8-9-7-10-6-10-7-13-7-14-9-44-44 0 0 0 0 59 22 12 7 13 7 13 7 11 7 10 8 10 8 9 7 8 9 5 9 4 10 1 13-1 13-1 10-4 13-6 12-5 9-6 9-7 11-9 10-11 11-13 9-14 7-14 6-14 4-16 5-16 4-18 2-16-3-17-5-18-7-9-5-9-4-10-4-9-5-10-5-9-5-17-10-15-9-15-7-16-8-13-8-11-8-11-6-12-7-12-6-12-7-5-3-2-1-1-2-1-1-1-2 0-2 0-2 1-2 1-1 2-2 2 0 2-1 2 1 2 0z"  fill="#c2e1ff" /><path d="M102-155l-6 2-11 3-10 4-11 4-11 3-9 2-14 3-12 3-14 5-9 4-10 6-9 7-9 8-11 9-11 9-12 8-13 6-12 6-12 4-12 4-12 3-12 2-11 2-11 1-10 1-10 1-14 0-12-1-12 1-8 6 1 11 3 9-11 29 0 0 0 0-21-24-3-9-2-12 2-12 6-11 10-8 10-6 13-3 10 0 11 2 11 0 14 0 14-1 11-2 15-2 10-2 11-3 11-5 11-4 10-6 10-6 10-8 10-8 11-10 12-9 12-6 11-5 11-4 11-3 14-2 14-1 13-2 11-3 12-3 12-2 5 0 2 0 2 0 2 1 2 1 1 1 1 2 0 2 0 2-1 2-1 1-1 2-1 1-2 0z"  fill="#c2e1ff" /><path d="M106-168l5 4 12 11 11 11 12 13 12 13 12 12 12 13 14 12 12 13 14 12 14 13 13 13 13 12 13 12 12 10 13 7 13 5 13 3 12 1 12 1 11-1 13-4 10-6 6-7 8-13 6-8 10-10 12-8 13-4 11-1 10 0 13 3 12 4 9 5 10 7 8 9 6 10 4 10-2 10-14 16 0 0 0 0-10-14-7-10-7-10-9-6-10-3-12-2-10 1-11 6-7 7-8 12-7 9-10 9-10 6-12 4-13 2-14 1-14-2-14-2-16-4-15-6-16-10-14-11-13-13-12-12-14-12-14-13-14-13-12-13-13-12-14-13-12-14-11-13-11-12-11-13-10-11-5-5-1-1-1-2 0-2 0-2 1-2 1-1 1-2 2-1 1 0 2-1 2 1 2 1 1 1z"  fill="#fff" /><path d="M101-171l5 0 11 0 11-1 12-2 15-2 15-1 14-1 11-2 12-3 10-2 12-6 8-7 8-9 10-10 9-10 7-10 7-9 8-9 7-7 7-8 5-13 4-10 3-13 2-11 0-10 0-13-1-15 0-15-1-15 0-14-1-13-2-10-6-9-8-7-11-8-10-8-8-8-5-26 0 0 0 0 26 6 7 7 7 7 11 9 8 7 9 11 5 12 3 14 2 15 0 15 1 14 1 15 1 14 1 15 0 14-2 12-2 13-5 13-3 10-7 14-9 9-8 7-9 10-7 9-10 11-10 10-9 10-8 7-9 7-10 5-11 4-12 3-13 2-14 2-14 0-13 1-15 1-15 1-12 0-11-2-5 0-2-1-2-1-2-1-1-1-1-2 0-2 0-2 1-2 1-1 1-2 2-1 2 0 2 0z"  fill="#005bbb" /><path d="M102-155l-5 2-11 4-10 3-14 6-12 3-13 2-15-1-14-5-12-6-13-7-16-10-8-6-8-7-7-6-8-7-8-6-10-6-9-7-9-6-10-5-9-5-11-4-10-3-10-2-19-2-15 2-14 6-16 7-15 7-14 9-13 8-14 8-15 6-15 5-14 3-14 1-14 1-15 0-17-1-19-3-17-3-17-3-19-2-17 0-16 2-15 5-15 5-14 9-13 11-14 14-7 8-6 9-10 17-5 19-17 71 0 0 0 0-4-65 2-11 3-11 4-11 5-11 6-10 7-10 6-8 7-9 8-8 7-7 8-7 9-6 18-8 17-5 19-4 19-2 10 0 20 2 18 3 18 3 15 2 15 1 15 0 13-1 12-1 12-2 13-3 13-5 13-7 14-8 15-8 16-8 16-7 18-6 10-2 11 0 10 1 12 1 11 3 11 3 12 5 11 5 10 5 10 6 10 6 10 6 10 6 8 7 15 12 15 9 13 8 12 6 9 5 13 3 15-1 10-3 10-3 11-2 11-2 6-1 2-1 2 1 2 0 1 1 1 2 1 1 1 2 0 2-1 2 0 2-2 1-1 1-2 1z"  fill="#fff" /></svg>