<svg width="1200" height="675" viewBox="-500 -500 1200 675" xmlns="http://www.w3.org/2000/svg"><path d="M-500-500h1200v675h-1200z" fill="#000"/><path d="M92-163l0-6 1-14 0-15-1-15-3-16-2-17-2-15-2-15-3-13-5-12-4-13-5-14-2-15 0-15 1-15 2-14 4-14 6-14 7-11 7-9 6-9 7-8 10-10 10-7 8-7 8-6 10-6 12-7 10-6 11-7 7-7 7-9 7-12 6-10 6-10 7-13 7-15 8-17 7-18 8-18 31-74-1 1 1-1-7 71-3 10-3 10-3 10-7 19-6 18-7 16-6 14-6 13-6 10-6 10-8 12-11 11-8 7-9 5-12 6-10 6-10 5-10 7-9 6-8 7-8 7-9 11-7 9-5 8-5 9-3 12-2 12-2 13 0 11 2 12 3 12 5 13 4 14 3 16 2 15 2 16 1 16 2 18 1 17-2 16-2 13-1 6 0 2-1 2-1 1-2 2-2 0-2 1-2-1-1 0-2-1-1-2-1-1-1-2 0-2z"  fill="#c2e1ff" /><path d="M96-155l-6-3-13-6-15-6-14-5-16-5-15-7-14-7-15-6-14-6-14-4-16-4-17-5-18-4-17-4-15-1-14 1-12 1-10 2-13 4-12 4-10 5-11 5-9 5-8 5-12 5-10 3-13 2-10 1-10-6-5-8-5-9 0 0 0 0 8-2 10-3 10-2 11-2 11-4 10-5 11-5 11-4 12-5 9-3 10-3 11-1 11-2 14-1 16 0 18 1 19 4 18 5 16 4 17 4 17 5 15 6 15 8 14 7 13 6 15 6 15 6 15 8 13 7 6 3 1 1 2 2 0 2 1 1 0 2-1 2 0 2-2 1-1 2-2 0-2 0-2 0-2 0z"  fill="#fff500" /><path d="M104-155l-6 3-13 7-13 5-14 5-15 4-16 4-15 4-14 4-12 6-9 6-7 8-7 10-6 10-5 10-3 10-3 11-3 15-3 14-3 10-2 11-1 10 1 11 0 10 1 12 0 13-1 11 2 11 2 11 2 11 1 10 0 11 0 11-5 11-10 12 0 0 0 0-14-15-3-9 0-11 0-11-1-11-2-11-2-12 0-13 2-12 0-10-1-11 0-12 1-13 2-14 4-13 3-14 3-9 3-11 3-11 4-13 7-13 7-12 9-11 11-10 13-9 15-6 16-5 16-3 15-4 15-3 12-3 13-4 12-5 6-3 2 0 2-1 2 1 2 0 1 1 2 2 0 2 1 1 0 2 0 2-1 2-2 1-1 2z"  fill="#fff" /><path d="M99-170l5-2 11-3 12-5 11-6 11-8 11-10 10-12 9-12 8-13 8-13 7-13 6-13 5-13 5-12 4-13 5-12 4-13 5-12 7-13 7-12 9-10 9-9 8-9 6-8 7-12 3-14 2-10 1-12 0-14 1-15 1-14-1-13-3-13-6-12-8-14-10-15-8-17-7-15-6-16-6-14-5-12-5-14-5-13-4-14-5-14-6-14-13-60 0 0 0 0 35 50 7 15 6 16 4 13 4 13 4 12 5 14 6 14 6 14 6 15 8 14 10 14 10 16 7 17 4 17 1 17 0 14 0 15 0 14-1 14-3 14-3 12-5 12-7 11-8 10-9 9-8 8-7 9-6 8-6 11-5 12-4 11-5 13-5 13-5 12-6 14-7 13-7 14-9 15-9 14-10 13-12 12-13 12-14 9-15 7-14 4-12 2-6 0-2 1-1-1-2-1-2-1-1-1-1-2 0-2 0-2 1-2 1-1 1-2 2-1 1 0z"  fill="#c2e1ff" /><path d="M108-161l-1 5-3 11-4 11-5 9-7 13-4 11-3 14-2 10-1 12-1 11 0 10 2 11 2 11 3 10 4 13 3 14 2 15 1 16-2 19-1 11-3 11-3 12-4 13-4 14-4 14-5 13-4 14-5 14-4 14-3 13-3 13-4 13-3 12-4 12-4 12-4 12-5 12-6 11-6 11-6 11-6 11-5 10-5 11-4 11-3 12-3 12-2 13-3 13-2 14-4 14-4 14-4 13-4 14-5 14-6 15-5 14-6 14-5 14-6 13-6 14-5 14-6 14-6 13-5 14-5 15-5 14-5 15-4 14-5 15-3 14-4 15-3 14-17 96 0 0 0 0 7-98 3-15 3-15 4-14 4-15 5-15 5-14 5-15 4-15 6-14 5-14 6-14 5-13 6-14 6-13 5-14 5-14 6-14 5-15 4-14 4-13 4-14 3-13 3-13 3-14 2-14 2-13 3-13 3-13 5-12 5-12 6-11 6-10 6-11 6-10 5-11 5-12 4-11 4-12 4-11 4-12 3-12 3-13 3-14 4-14 3-14 4-14 3-14 4-14 2-13 2-13 2-12 3-19 0-17-1-15-2-12-2-12-4-12-4-13-2-12-2-13 0-14 1-13 2-12 3-11 3-12 4-11 5-9 8-12 8-11 6-12 1-5 1-2 1-2 1-1 2-1 2 0 2 0 2 0 1 1 2 1 1 2 1 1 0 2 0 2z"  fill="#fff500" /><path d="M96-169l4-3 11-10 6-9 2-11-2-14 0-11-1-12-6-8-11 2-12 4-11 5-13 7-12 9-8 9-6 11-4 12-2 12 2 11 2 12 3 13 2 12 2 12 3 13 4 12 3 10 2 10 4 13 3 40 0 0 0 0-29-26-4-10-3-15-4-12-3-10-4-14-3-14-1-12-2-11-3-14-2-10 0-12 1-11 2-12 4-11 6-12 8-11 10-9 9-6 10-7 9-5 10-5 13-5 11-3 13-1 13 3 11 7 7 12 3 11 0 13-1 13 0 13-3 14-4 10-7 9-9 7-10 6-5 2-2 1-2 0-2 0-1 0-2-1-1-2-1-1-1-2 0-2 0-2 1-2 1-1 2-1z"  fill="#fff500" /><path d="M103-155l-6 3-10 5-9 6-13 9-8 6-8 7-8 6-8 7-9 7-10 7-9 5-11 7-10 6-10 6-12 5-12 5-12 4-11 3-11 3-11 3-11 3-10 4-10 6-11 5-12 2-10 2-16 5 0 0 0 0-3-18 4-12 8-5 11-4 11-2 10-5 10-4 11-4 10-3 12-2 12-3 12-3 10-3 12-5 12-5 10-5 11-6 12-7 13-8 9-7 9-6 9-6 9-6 9-6 10-5 11-5 12-5 6-2 2-1 2 0 2 1 2 1 1 1 1 2 1 1 0 2 0 2-1 2-1 2-1 1-2 1z"  fill="#fff" /><path d="M107-167l4 6 8 12 8 10 9 9 8 9 8 8 8 10 9 12 8 15 6 16 6 17 6 16 6 18 5 17 5 17 5 17 5 17 5 18 4 17 3 17 1 16-1 15-2 16 0 18 1 19 1 12 0 12 2 13 3 14 3 13 4 14 5 14 5 14 5 15 6 16 7 15 7 14 7 14 9 12 9 11 10 10 11 9 11 8 13 8 13 7 14 6 15 6 15 5 17 6 16 4 17 2 17 1 15-1 16-1 16-2 16-2 15-2 16-3 15-3 15-4 14-4 13-4 14-4 12-5 12-4 13-4 11-5 12-4 11-6 11-5 74-28-1 0 1 0-68 41-11 5-12 5-13 5-12 4-12 3-12 4-13 4-14 4-13 4-15 4-15 3-15 3-16 2-16 3-16 2-17 2-16 1-16 0-17-1-17-2-18-4-17-5-16-5-16-5-15-6-14-8-12-8-12-9-11-10-11-10-9-12-10-13-8-14-7-15-8-15-6-15-7-15-6-14-6-15-5-14-4-13-4-14-3-14-2-13-2-12-1-11-1-11 0-19 2-16 1-13 0-14-2-14-5-16-5-17-5-18-5-17-5-17-5-17-5-16-7-16-6-17-6-14-6-12-7-11-7-9-8-9-7-9-9-11-7-12-8-13-3-6-1-2 0-2 0-2 1-2 1-2 1-1 2-1 2-1 2 0 2 1 1 1 2 1 1 1z"  fill="#fff500" /><path d="M102-155l-6 2-12 4-13 2-12 2-12 1-12-1-12-2-11-4-10-4-10-6-9-8-9-7-8-6-10-6-9-6-12-4-12-3-12-3-11-1-12 2-9 10-6 8-3 10-2 10-3 11-3 11-4 10-5 12-2 11-3 13 0 10 2 12 4 10 6 11 6 10 7 10-5 27 0 0 0 0-25-18-6-9-7-11-6-14-2-10-2-11-1-11 0-11 3-14 2-10 6-14 5-12 3-14 2-11 3-11 5-13 6-8 10-11 8-7 11-5 10-1 15 0 12 3 14 3 10 3 11 4 11 6 10 7 10 7 10 8 11 10 10 7 13 5 13 3 15 1 11-1 11-1 12-1 6-1 2-1 2 1 2 0 2 2 1 1 1 2 0 2 0 2 0 1-1 2-2 2-1 1-2 0z"  fill="#fff500" /><path d="M101-171l6 1 13 1 12 2 12 3 11 2 14 3 11 1 10 0 14 1 11 2 13 3 12 5 11 3 12 1 12 1 10 3 10 2 11 1 12 2 10 3 11 1 9 7 12 7 0 0 0 0-13 15-11 4-11-1-10-3-11-3-10-1-10-2-11-4-11-2-11-1-11-3-9-3-13-5-11-4-12-3-10-1-12-1-14-3-10-3-11-4-11-3-11-4-11-2-6-2-2 0-2-1-1-1-1-2-1-2 0-2 0-2 1-1 1-2 2-1 1-1 2-1 2 0z"  fill="#fff" /><path d="M102-170l6 0 12 2 11 2 11 3 11 2 11 3 11 3 10 2 13 3 12 1 14-2 13-4 11-5 9-7 8-7 6-8 5-9 3-12 0-10-3-10 0-11-3-8 0 0 0 0 6-3 10-1 10 3 7 10 2 10 1 12 0 11-3 12-5 12-8 13-8 9-11 9-8 6-10 5-11 5-11 2-12 3-12 1-11-1-11-2-11-3-9-4-10-3-11-3-10-4-11-3-10-4-12-3-6-2-2 0-1-1-1-2-1-1-1-2 0-2 0-2 1-2 1-1 2-2 2 0 2-1 2 1z"  fill="#fff" /><path d="M95-168l3-4 9-11 6-10 4-11 4-11 1-11-1-13-1-13-2-12-1-12 0-11 3-10 3-10-1-12-6-9-6-9-6-10-5-9-4-10-1-13 2-11 7-10 21-8 0 0 0 0 4 22-2 10 4 10 6 11 5 9 7 10 5 11 2 10-2 11-4 12-4 10-1 11 2 12 1 14 0 10 0 10-2 12-3 10-6 13-9 12-10 11-7 7-5 3-1 1-2 1-2 0-2 0-1 0-2-1-1-2-1-1-1-2 0-2 1-2 0-2 2-1z"  fill="#005bbb" /><path d="M108-161l-1 7 0 12 0 12 1 11 5 13 6 9 8 8 11 8 9 8 9 8 10 2 10-3 10-4 11-1 11 2 9 8 10 16 0 0 0 0-15 5-10 3-11-2-9 4-11 2-11 0-11-3-10-6-7-7-9-9-7-7-9-8-8-11-5-9-4-11-3-13 0-13 1-14 2-14 2-6 1-2 1-2 1-1 2-1 2-1 2 0 2 1 1 1 2 1 1 1 1 2 0 2 0 2z"  fill="#fff500" /><path d="M96-155l-6-3-13-7-12-7-13-7-14-4-14-2-16-1-18 0-10-1-11-1-11-1-11-2-11-3-10-3-10-4-18-7-10-5-9-5-8-6-8-6-15-11-15-13-8-7-8-7-7-7-15-11-17-9-18-5-17 0-18 5-10 3-10 5-11 6-12 7-12 8-12 9-13 10-12 10-13 10-12 12-12 12-11 12-11 14-11 14-11 14-13 15-13 15-12 15-13 15-12 15-12 15-11 15-11 14-10 14-10 14-10 13-10 12-10 11-9 10-10 9-10 8-10 8-10 6-9 6-10 6-10 5-9 5-10 4-9 4-11 4-10 3-10 3-10 3-10 3-10 3-10 3-10 3-11 2-11 3-79 7 1 0-1 0 75-25 11-3 10-2 10-3 10-2 10-3 10-3 10-3 10-2 10-3 19-6 9-4 10-4 10-5 9-4 10-6 10-5 10-7 10-7 10-7 10-9 10-10 10-12 10-12 11-14 11-14 11-14 11-15 12-15 12-14 12-16 12-15 12-16 12-16 11-14 11-14 10-14 11-14 12-13 12-12 12-11 12-11 12-11 12-11 12-9 12-8 11-8 12-6 11-4 12-3 11-2 11-1 12 1 11 3 10 3 10 5 10 5 9 7 9 7 8 6 14 14 14 12 15 11 15 11 16 8 17 7 18 6 10 2 10 2 10 1 19 1 19 0 18 1 18 4 16 6 14 8 12 8 11 8 6 3 1 2 2 1 1 2 0 2 0 2 0 2-1 1-2 2-1 1-2 0-2 1-2-1-2 0z"  fill="#fff500" /><path d="M92-162l-1-5-2-11-2-11-2-12-4-12-9-7-11-7-10-9-8-10-7-10-6-11-6-12-2-14-2-12-2-13-2-11-4-11-5-10-8-11-7-10-7-13-7-14-5-15-2-15-1-14 1-12 1-12 2-10 4-13 4-12 4-12 4-13 5-12 3-10 20-23 0 1 0-1 7 36-4 12-5 11-4 13-4 12-5 12-3 9-2 13-1 11 1 10 2 12 4 11 5 11 7 10 6 9 7 9 6 9 5 10 3 10 3 10 2 10 1 12 2 12 2 12 5 11 6 10 7 10 7 7 9 6 10 10 7 13 3 14 0 14 0 10 1 11 0 6 0 2-1 1-1 2-1 1-1 2-2 0-2 0-2 0-2 0-1-2-2-1 0-2-1-1z"  fill="#005bbb" /><path d="M96-169l3-3 10-9 9-8 8-8 9-9 6-8 6-8 6-8 7-8 0-10-2-11-3-10-8-7-10-6-6-7-3-11-4-8 0 0 0 0 15-4 10-1 10 7 9 6 9 9 7 10 3 12 2 11 1 10-1 11-3 11-7 9-8 8-7 8-8 8-7 6-9 7-9 7-10 7-12 8-5 2-1 1-2 0-2 0-2 0-1-1-2-1-1-2-1-2 0-2 1-2 0-1 1-2 2-1z"  fill="#fff" /><path d="M92-163l0-5 1-14 1-14 1-13 0-12-1-11-1-12 1-12 4-12 5-12 5-10 7-10 7-8 9-6 12-4 10 0 10 3 10 6 8 7 8 7 9 7 9 6 8 7 4 10 4 10 0 0 0 0-11 2-11 2-11-3-9-6-8-7-9-7-8-7-8-7-10 6-6 8-5 9-5 10-3 11 0 10 0 14-2 14-3 13-3 14-2 12-1 5 0 2-1 2-1 1-2 1-2 1-2 0-1 0-2 0-2-1-1-2-1-1-1-2 0-2z"  fill="#fff" /><path d="M95-156l-5-4-10-7-11-7-12-7-12-8-13-8-13-6-15-7-13-5-13-2-10 1-12 7-6 8-7 9-5 10-3 11-2 11-3 10-3 11-3 12-2 13 0 10 1 13 2 11 6 11 7 13 9 11 8 7 10 8 10 10 9 10 7 10 7 8 6 8 6 9 8 12 8 7 9 7 10 6 14 27 0 0 0 0-31-3-10-7-10-8-9-8-7-9-8-13-8-11-7-8-6-9-8-8-8-8-10-8-10-9-10-11-6-10-6-10-5-11-4-11-2-11 0-14 1-15 3-15 2-9 3-10 3-10 3-10 4-13 5-14 8-13 10-11 13-10 15-6 17-1 17 4 16 6 14 7 16 7 13 9 12 9 12 8 10 8 10 9 4 4 1 2 1 1 1 2 0 2 0 2-1 2-2 1-1 2-2 0-2 1-2-1-2 0-1-1z"  fill="#fff500" /><path d="M92-161l-2-7-4-16-4-16-6-15-9-13-9-12-9-9-8-6-13-7-12-3-12 0-10 1-11 1-12 0-12 1-13 0-14-2-14-3-12-2-16-3-18-3-10-2-12-2-12-4-12-4-12-5-12-6-12-5-11-6-11-7-10-7-9-8-9-7-10-9-9-9-9-10-9-10-10-10-9-10-9-12-8-11-6-13-6-12-5-13-5-14-3-14-4-13-3-14-4-13-3-14-4-13-5-14-4-15-3-15-3-16-3-16-2-16-3-16-2-17-3-16-2-17-4-15-4-15-4-15-6-13-5-11-7-11-6-10-7-9-7-8-6-8-37-56 0 0 0 0 48 47 6 9 7 9 6 10 6 11 6 11 6 13 5 14 4 14 4 16 4 16 2 16 3 17 3 16 3 16 3 16 3 16 3 15 4 15 5 14 4 14 4 14 4 14 4 13 3 13 4 14 4 13 4 12 4 13 6 11 6 12 7 10 9 10 9 10 10 10 10 9 9 10 9 8 9 8 9 8 9 7 9 6 9 6 11 5 11 5 12 4 12 4 11 3 10 2 11 2 20 2 17 2 16 2 12 3 11 2 11 1 12-1 11 0 11-1 12-1 12 0 12 2 11 4 11 5 10 7 11 9 10 11 10 14 9 16 6 18 4 18 2 15 2 8 0 2 0 1-1 2-1 2-2 1-1 1-2 0-2 0-2 0-2-1-1-1-1-2-1-2z"  fill="#c2e1ff" /><path d="M108-164l1 7 4 12 5 12 6 9 10 10 11 4 11 1 10 0 15-3 10-3 9-3 10-4 9-3 14-4 12-2 13 0 12 1 12 4 9 8 7 8 5 10 4 11 4 10 4 11 7 8 9 7 10 4 9 5 9 4 11 4 10 2 27 15 0 0 0 0-21 17-12 0-10-3-11-4-11-4-11-6-10-4-11-7-9-8-10-11-5-9-5-11-4-13-5-11-6-8-12-2-12 1-10 2-13 3-10 4-11 3-12 3-13 2-12 1-12-1-12-2-13-6-10-9-8-11-7-13-4-14-3-15 0-6 0-2 0-2 1-2 1-1 2-2 2 0 2-1 2 1 2 0 1 1 2 2 0 2 1 1z"  fill="#c2e1ff" /><path d="M103-170l7 2 13 3 12 2 13 1 13 2 14 2 13 3 12 3 11 2 12 2 11-2 14-4 20-7 11-3 11-3 11-4 11-4 12-6 13-6 11-8 11-10 10-11 8-12 6-13 5-14 4-17 4-17 3-18 5-18 4-19 4-20 3-21 2-21 2-22 3-22 3-21 5-21 5-21 7-19 6-19 7-20 6-20 6-20 5-20 4-19 4-19 3-19 1-18 1-18-1-19-1-19-1-19-2-19-2-19-2-18-4-19-5-18-6-19-6-18-8-19-8-18-9-18-10-17-11-18-12-17-12-18-12-20-13-20-13-20-14-21-15-21-16-21-16-21-17-22-17-22-18-23-18-24-17-25-18-27-17-26-16-27-15-27-101-180 0 0 0 0 103 179 15 27 16 27 17 26 17 27 18 25 18 24 18 23 17 22 16 21 17 21 16 21 15 22 14 21 13 20 13 20 12 19 12 18 12 18 11 18 10 17 9 18 9 18 8 19 7 18 6 19 5 18 4 19 2 19 2 19 2 19 1 19 1 19 0 19 0 18-3 19-3 18-4 19-4 20-5 20-6 20-6 20-7 19-6 20-7 19-5 20-4 21-4 22-2 21-1 22-2 22-3 21-2 20-3 19-3 19-3 18-3 18-3 17-5 16-6 15-9 14-10 13-11 11-13 11-12 8-13 7-12 5-11 5-11 4-11 4-9 4-9 4-18 6-18 1-15-2-12-3-12-4-11-3-13-3-13-2-13-2-15-4-13-5-7-3-2-1-1-1-1-2-1-1 0-2 0-2 1-2 1-2 1-1 2-1 2 0 2 0 2 0z"  fill="#fff" /><path d="M92-161l-1-8-5-14-6-15-7-15-9-15-10-14-11-15-12-13-12-11-13-10-12-9-13-8-13-7-13-7-13-7-14-7-13-7-12-8-12-7-13-7-12-8-11-7-10-6-10-6-8-6-12-8-9-5-9-6-10-4-10-5-11-5-11-6-11-5-11-3-12-2-10 1-25-8 0 0 0 0 13-19 9-4 11-1 11 1 12 3 11 3 9 4 12 6 11 6 11 6 11 6 10 6 11 7 10 8 12 9 8 6 10 6 12 7 11 8 12 7 13 8 11 7 12 7 14 7 13 7 13 8 14 8 13 9 13 10 14 11 14 13 12 15 12 15 10 16 9 16 8 17 6 17 3 17 1 7 0 2 0 2-1 2-2 1-1 1-2 1-2 0-2 0-1 0-2-1-1-2-1-2-1-1z"  fill="#fff500" /><path d="M108-165l2 6 5 14 5 13 3 15 3 13 2 11 2 10 2 14 2 11 2 11 3 10 2 11 2 9 5 10 8 10 6 11 5 12 5 13 4 9 9 8 11 6 10 4 11-1 10-3 13-4 11-4 11-7 7-7 9-8 37-4 0 0 0 0-15 25-9 9-10 9-9 7-10 4-12 5-12 4-12 3-13 2-10 1-11-3-11-5-10-6-11-8-7-8-6-9-5-13-4-11-6-12-6-10-6-9-4-10-2-12-2-12-2-11-1-12-2-12-1-14-1-10-1-11-1-12-2-13-3-14-4-13-2-7 0-2 0-2 1-2 1-1 1-2 2-1 1 0 2-1 2 1 2 0 2 2 1 1 1 2z"  fill="#fff" /><path d="M95-156l-6-4-10-9-10-11-7-10-6-11-4-12-2-12-2-12 1-13 1-11 1-12 3-13 3-11 4-14 3-14 4-14 4-12 4-11 5-10 6-10 7-9 5-8 3-11 1-10 2-10 5-11 6-8 8-7 7-9 26-8 0 0 0 0 1 26-6 9-7 7-8 7-3 10-1 11-4 11-6 12-7 10-7 8-5 9-6 12-4 11-4 12-3 13-3 11-3 10-3 10-2 10-2 11-1 10 0 14 2 15 5 13 5 9 7 10 8 9 5 4 1 2 1 1 1 2 0 2 0 2-1 2-1 1-2 2-2 0-2 1-2-1-1 0-2-1z"  fill="#c2e1ff" /><path d="M92-164l0-6 1-13 0-13 1-14 0-13 2-12 0-10 0-15-1-10-3-12-6-11-12-4-12 0-15 2-10 1-11 1-12 0-11-1-10 0-11 1-9 2-4 10 1 11 4 12 7 10 7 8 9 10 9 10 9 10 8 9 8 11 5 46 0 0 0 0-33-34-9-10-7-7-7-8-9-10-7-8-10-10-8-12-4-12-3-12-1-13 3-12 4-11 6-8 12-7 12-3 14-1 10 0 10 0 16 0 14 0 11-2 11 0 12 0 12 2 12 4 10 9 6 9 4 11 3 12 0 11 0 11 0 12-2 11-2 11-2 12-1 14-2 14-2 13-1 7-1 2 0 1-2 2-1 1-2 0-2 1-2-1-2 0-1-1-2-2-1-2 0-2 0-2z"  fill="#005bbb" /><path d="M101-155l-7 2-17 2-16 2-17 2-17 3-18 3-18 2-17 1-17 2-18 1-19-1-19-3-19-4-19-3-19-1-10-1-11 0-10 1-11 1-12 2-11 3-12 4-11 6-12 6-11 8-10 9-11 10-10 11-8 12-8 13-5 12-4 12-2 13-2 12 0 12 0 12 1 11 1 11 1 11 1 11 2 11 1 11 2 11 1 11 1 12 1 11 0 13 0 13 0 13-1 14-1 15 0 14-1 14-1 15 0 14 0 16 0 16 1 18 2 19 4 19 5 21 6 20 6 20 7 19 8 19 8 19 8 18 8 19 9 18 9 18 10 19 10 18 12 19 14 19 14 17 15 19 15 19 15 21 16 23 16 25 100 176 0 0 0 0-101-175-16-24-16-23-16-22-15-19-15-18-14-18-13-19-13-19-10-18-10-19-9-18-9-18-9-19-8-18-8-19-8-19-8-19-6-20-7-20-6-20-6-20-4-19-2-18-2-17 0-16-1-15 1-14 0-15 1-14 0-14 0-14-1-13 0-13 0-12 0-11-2-11-1-11-1-11-1-11-1-11-1-12-1-11-1-11 0-12 0-13 1-13 2-13 3-13 5-14 6-13 7-14 9-13 10-13 11-11 11-10 12-9 12-8 13-7 13-5 13-4 12-3 12-2 12-1 11 0 11 0 11 0 10 1 20 3 19 3 17 3 16 1 17-1 17-1 18-1 17-2 17-2 18-3 17-1 17-1 15-1 8 0 2 0 2 0 1 1 2 1 1 2 1 1 0 2 0 2-1 2-1 2-1 1-2 1-2 0z"  fill="#fff" /><path d="M94-168l4-5 7-9 7-8 6-8 6-8 6-9 5-9 4-10 4-9 4-12 4-15 4-11 6-11 7-9 7-8 7-8 9-7 10-7 10-4 12-5 10-3 10-3 12-3 11-2 11-2 12-2 8-6 6-8 5-10 6-10 30-9 0 0 0 0-2 22-4 11-6 10-6 10-8 9-10 6-9 4-12 3-12 1-10 2-11 2-12 3-10 2-10 4-10 4-10 8-10 10-8 10-6 11-5 13-3 10-4 10-5 10-5 10-7 11-7 9-8 9-8 8-7 7-9 8-4 4-2 1-1 1-2 0-2 0-2 0-2-1-1-1-1-2-1-2 0-2 0-2 1-1 1-2z"  fill="#fff" /><path d="M92-163l0-6 0-11 0-12 3-12 3-12 6-11 5-9 8-11 6-11 5-9 3-10 3-10 1-11-2-12-3-10-7-8-7-8-7-7-6-11-3-9-2-12-1-10-4-10 3-25 0 0 0 0 20 6 8 8 5 12 2 12 1 12 5 9 6 8 7 8 6 9 4 10 3 11 1 12 0 10-2 12-4 10-4 11-6 12-8 12-9 11-8 10-6 12-5 13-2 11-1 11-1 6 0 2-1 1-1 2-2 1-2 1-1 0-2 0-2 0-2-1-1-1-1-2-1-2 0-2z"  fill="#c2e1ff" /><path d="M93-160l-3-7-8-14-10-15-13-16-7-8-7-7-9-7-9-7-10-6-10-8-10-7-11-9-10-9-10-9-10-10-9-12-8-13-6-15-5-17-5-18-4-19-3-19-3-20-3-20-3-21-2-20-2-21-2-21 0-21 0-19 0-18 1-19 1-17 2-17 3-15 5-15 5-14 6-13 8-13 8-14 8-13 9-14 9-13 11-14 11-12 12-11 13-11 14-9 13-10 12-10 12-10 12-10 11-12 10-11 9-12 8-11 8-11 6-11 6-11 6-10 6-9 6-9 5-9 10-17 10-16 9-15 7-16 5-15 4-17 3-16 1-15 1-17 1-16 1-17 0-16 0-18 0-18 15-65 0 0 0 0 7 66 0 17 0 18 0 17-1 18-1 17-2 15-2 18-3 17-5 18-6 18-9 16-11 16-10 15-11 16-6 9-6 8-7 9-6 10-7 10-7 11-8 11-9 12-10 11-11 12-11 11-12 11-12 10-13 10-13 10-14 9-12 10-11 10-11 13-10 13-9 13-9 14-8 13-8 13-8 13-6 12-7 13-5 14-3 15-3 16-2 18-1 18-1 18 0 19 0 21 2 20 2 21 3 21 4 20 4 20 4 20 5 18 5 18 6 17 6 15 6 14 8 11 8 10 9 9 10 9 10 8 10 8 11 7 10 7 11 7 10 7 10 8 8 8 8 9 7 8 6 9 11 17 7 17 2 7 1 2 0 1-1 2-1 2-1 1-2 1-1 1-2 0-2 0-2-1-1-1-1-1-1-2z"  fill="#fff" /><path d="M96-170l6-3 13-6 14-4 14-3 14-3 13-3 12-4 12-5 10-5 9-6 10-10 6-9 7-9 6-10 6-10 7-11 8-9 7-8 9-12 10-10 10-9 11-8 14-7 13-3 10-2 12 1 13 1 14 4 17 6 18 11 9 7 9 8 9 7 10 9 11 10 12 11 12 12 12 13 12 12 12 12 12 11 13 13 14 13 15 12 17 11 18 10 19 10 22 8 24 8 26 10 27 11 28 14 30 14 31 14 32 13 32 13 32 13 31 12 203 77 0 0 0 0-204-75-31-12-32-13-32-13-32-13-31-14-30-14-28-13-27-11-26-10-24-8-22-8-20-9-19-10-18-10-16-11-14-12-14-12-13-11-13-12-13-11-13-11-13-10-12-9-13-8-10-8-11-7-8-6-15-9-15-6-12-3-12-2-12 0-11 1-10 3-9 6-8 6-9 8-9 11-7 7-7 8-7 8-6 9-6 10-7 11-8 11-9 10-10 8-12 8-13 5-13 5-13 3-15 3-14 3-14 2-12 2-11 3-6 3-2 0-2 1-2-1-2 0-1-1-2-2 0-1-1-2 0-2 0-2 1-2 2-1 1-2z"  fill="#fff500" /><path d="M98-155l-6-1-12-2-12-4-12-7-12-7-11-7-11-8-11-6-14-3-13 3-10 4-9 6-9 5-11 8-8 7-5 9-5 11-1 10 4 10 8-8 12-6 13-2 11-1 12-2 12-1 40 5 0 0 0 0-23 24-10 2-13 2-12 2-11 1-10 2-10 5-11 5-11 1-12-2-9-9-6-10-3-11-1-10 2-12 4-10 5-10 8-10 10-10 9-6 8-6 10-6 11-5 13-6 16-3 16 1 14 5 13 8 11 9 10 7 10 7 10 6 10 5 10 4 6 2 2 0 2 2 1 1 1 2 0 2 0 2 0 2-1 1-2 2-1 1-2 0-2 1-2-1z"  fill="#005bbb" /><path d="M94-168l4-4 6-8 8-12 7-10 6-8 7-10 8-10 10-11 9-8 12-7 14-5 16-1 17 1 17 5 16 9 14 11 15 13 7 8 7 8 6 9 6 9 5 8 12 16 12 13 14 10 13 6 14 5 14 5 15 5 14 5 15 5 15 6 16 6 15 7 13 5 14 7 12 8 11 9 10 8 9 8 8 7 10 8 9 7 12 7 11 6 23 24 0 0 0 0-31 2-12-6-10-5-9-7-10-8-9-8-10-9-8-8-9-8-8-7-11-7-11-6-14-6-13-6-16-6-15-6-15-6-14-5-13-5-16-5-15-6-16-9-8-5-8-7-8-7-7-8-7-8-6-9-11-16-12-14-13-12-14-10-11-8-12-4-12-3-16 1-13 5-11 7-9 9-8 9-7 8-8 10-9 8-9 10-8 8-4 4-2 1-1 1-2 0-2 0-2 0-2-1-1-1-1-2-1-2 0-2 0-2 1-1 1-2z"  fill="#fff" /><path d="M107-167l3 5 8 7 8 8 7 8 9 7 8 8 8 7 9 6 9 4 10 5 10 5 10 3 9 4 14 6 11 5 12 3 11 0 11-6 9-7 10-6 9-6 11-5 13-4 11-4 12-5 11-3 11-3 12-2 12 1 13 2 11 6 8 6 8 29 0 0 0 0-29-5-10-6-11-1-10 1-12 3-10 4-10 4-12 3-9 3-10 5-9 6-9 6-10 7-13 5-12 1-12-1-13-4-13-6-12-6-13-6-10-4-11-5-11-6-10-6-11-8-9-8-8-9-8-8-8-9-7-10-7-10-3-5-1-2 0-2 0-2 1-2 1-1 1-2 1-1 2 0 2-1 2 1 2 0 1 2 2 1z"  fill="#fff" /><path d="M105-169l5 3 11 6 13 8 14 11 13 12 13 12 14 14 7 7 8 8 8 7 8 8 9 6 9 8 9 6 9 6 10 5 10 5 12 6 11 5 11 5 12 4 12 5 11 5 12 5 11 5 11 6 11 6 10 7 10 7 10 9 8 11 9 12 7 13 6 13 5 13 5 13 4 13 5 12 4 12 4 12 4 12 4 13 4 12 5 13 5 12 5 13 4 12 6 13 5 13 5 14 5 12 6 14 6 14 7 13 7 14 9 13 8 14 9 13 8 14 9 13 8 14 9 14 10 13 10 14 10 14 9 13 9 13 9 11 9 12 9 10 10 10 9 9 9 8 10 7 10 5 10 4 19 3 18 0 14-5 12-9 11-13 8-7 55-52-1 0 1 0-35 57-7 8-13 14-7 7-8 7-9 4-10 4-10 1-11 0-11-1-10-2-12-4-10-5-11-6-11-8-10-9-9-10-9-10-9-11-8-12-9-12-9-13-9-13-10-14-10-13-11-14-9-14-9-14-8-13-9-13-8-13-9-14-9-13-9-14-8-14-6-14-6-13-6-14-5-13-5-13-6-12-5-13-4-13-5-12-5-13-5-13-4-12-4-13-4-11-4-12-4-12-5-13-4-12-6-13-5-11-7-12-8-11-8-9-8-8-9-7-10-6-9-6-11-5-10-5-12-5-11-5-12-4-12-5-12-5-12-4-11-5-11-5-12-6-10-7-10-6-9-7-10-7-8-8-9-7-8-8-8-7-14-14-12-12-12-12-12-10-11-8-11-8-5-4-2-1-1-2-1-1 0-2 0-2 1-2 1-2 1-1 2-1 2 0 2 0 2 0 2 1z"  fill="#005bbb" /><path d="M96-169l4-4 9-6 8-6 9-6 8-6 10-9 6-9 2-13 1-13 1-14 1-11 3-11 5-11 6-9 7-8 8-7 11-7 11-6 11-6 12-5 9-6 7-10 6-8 9-9 8-7 8-8 7-8 7-9 1-11 16-26 0 0 0 0 17 21 0 10-1 11-4 9-7 10-7 8-8 8-9 8-11 9-6 8-7 9-10 10-13 8-11 5-11 5-9 4-9 6-9 8-6 9-4 11-2 13-1 14-1 10-3 11-4 11-7 9-9 8-9 6-9 6-9 5-9 4-10 6-5 2-1 1-2 0-2 0-2 0-2-1-1-1-1-2-1-2 0-2 0-2 1-1 1-2 2-1z"  fill="#c2e1ff" /><path d="M99-170l5-2 14-4 13-5 12-4 11-5 14-7 13-3 14 0 15 1 14 0 14 1 15 2 12 2 11 3 10 2 13 2 10 1 10 2 11 2 13 2 12 1 12-1 11-1 14-3 13-3 13-2 12-4 12-3 13-3 10-1 12-2 13-2 11-3 10 1 18 5-1 0 1 0-12 18-8 6-11 3-12 2-11 1-13 2-12 2-13 3-13 3-13 3-13 2-14 3-10 1-10 1-10 0-15-1-11-2-14-3-14-3-10-1-10-2-10-3-10-2-12-2-12-2-13-1-15-1-14-1-13 1-13 4-13 5-14 4-14 2-10 2-10 2-6 0-1 0-2 0-2-1-2-1-1-2-1-1 0-2 0-2 1-2 1-1 1-2 2-1 2 0z"  fill="#fff" /><path d="M100-155l-6 1-12 0-12-1-13 0-12-1-12-1-12-1-10-1-10 1-13 3-10 5-10 8-8 9-6 10-6 12-5 10-4 9-5 15-3 11-4 12-4 11-5 12-5 11-5 10-6 9-7 13-9 12-7 8-8 9-7 8-9 6-10 5-12 3-13 0-13-1-10-3-10-3-16-16 0 0 0 0 27-13 10 3 11 2 11 0 11-4 8-7 8-9 7-7 7-8 8-12 6-12 5-10 5-11 4-9 3-11 4-12 3-11 4-12 5-11 5-9 5-9 5-9 6-10 8-8 9-8 10-6 11-5 10-3 12-2 13 0 13 2 11 1 11 2 12 2 13 1 12 2 11 2 6 0 1 1 2 1 2 1 1 1 1 2 0 2 0 2-1 2-1 1-1 2-2 1-1 0-3 0z"  fill="#fff500" /><path d="M94-168l3-4 8-8 7-8 8-7 7-7 8-7 11-9 11-7 9-7 9-7 12-8 9-6 8-8 10-9 8-8 11-7 10-4 10-1 11 1 10 5 8 8 7 8 7 8 10 8 13 15 0 0 0 0-17 10-11 2-9-5-10-7-7-9-6-8-10-5-9 5-9 7-8 7-10 8-12 9-9 5-11 8-11 6-10 6-11 7-11 8-8 7-9 6-11 9-4 4-2 1-1 1-2 0-2 0-2 0-2-1-1-1-1-2-1-2 0-2 0-2 1-1 1-2z"  fill="#fff500" /><path d="M103-155l-7 3-14 4-14 2-11 4-11 4-10 4-9 4-11 6-8 7-6 12-5 10-5 8-8 10-7 8-7 8-5 9 1 12-2 10 1 11 0 0 0 0-12 3-9-5-8-7-2-11 0-11 2-11 5-11 7-9 8-8 7-8 8-7 6-10 6-11 7-9 9-8 9-5 10-5 10-3 11-4 12-4 14-2 14-2 12-2 6-1 2-1 2 0 2 1 2 1 1 1 1 2 1 2 0 2 0 2-1 1-1 2-2 1-1 1z"  fill="#fff" /><path d="M104-170l6 3 11 6 11 4 10 3 10 0 14-1 14-3 11-2 10-3 12-2 10-2 14-5 13-4 13-3 11-2 11-2 11-2 12-2 10-2 11-1 10 0 11 0 11-1 11-1 11-2 10-3 9-5 11-6 10-6 9-6 9-6 9-6 10-5 9-5 10-5 9-7 9-7 9-8 9-9 10-9 10-8 9-6 38-7 0 0 0 0-19 27-12 8-8 6-9 9-9 8-10 10-11 9-10 7-11 7-11 6-12 6-13 7-10 7-10 7-11 6-13 7-14 5-13 2-13 2-11 1-11 0-15 1-12 1-14 3-11 1-14 2-10 2-11 2-14 4-11 3-11 2-11 2-11 2-11 2-11 2-12 1-12-1-13-2-13-5-12-6-11-7-5-4-2-1-1-1-1-2 0-2 0-2 1-2 1-1 1-2 2-1 1 0 2-1 2 1 2 0z"  fill="#fff500" /><path d="M105-169l4 3 12 6 9 4 10 5 12 6 10 4 13 6 13 3 10 3 13 2 13 0 12 0 11-2 11-3 12-5 11-2 13-1 13 0 13-1 12 0 12-1 11-2 9-3 12-5 10-4 9-4 13-5 11-5 13-6 9-5 45-3 0 0 0 0-31 30-13 7-9 5-10 5-10 4-12 5-10 4-12 5-11 4-10 2-10 2-12 1-14 0-11 0-14 0-10 0-11 2-9 3-12 4-13 1-13 0-11 0-11-1-11-2-9-3-10-3-11-3-11-5-13-8-9-5-8-5-9-6-8-5-9-7-4-3-1-1-1-2-1-2 0-2 0-2 1-1 1-2 2-1 1-1 2 0 2 0 2 0 2 1z"  fill="#005bbb" /><path d="M108-164l2 7 2 14 2 16 1 14 2 16 1 15 2 16 2 15 2 15 0 16-2 17-4 18-6 17-8 17-10 16-13 14-16 11-15 8-14 7-14 6-12 7-10 7-9 7-9 8-10 9-11 7-10 5-10 4-9 3-11 3-14 5-10 3-12 4-11 4-11 3-10 5-10 5-8 6-9 8-8 10-9 11-8 11-5 10-4 10-19 24 0 0 0 0-9-33 4-10 7-13 9-13 9-10 6-9 7-7 9-8 10-7 10-7 12-6 13-5 12-4 11-3 10-3 11-4 15-4 13-4 12-4 13-7 8-7 10-9 11-8 13-8 13-7 14-6 14-7 13-6 12-8 11-11 8-13 6-15 5-15 4-16 2-13 0-14-2-15-1-15-1-16-2-16-1-16 0-15 0-14-1-13-1-7 0-2 0-2 1-1 1-2 2-1 1-1 2 0 2 0 2 0 2 1 1 1 1 2 1 2z"  fill="#c2e1ff" /><path d="M98-170l5-2 12-5 10-3 12-5 10-5 12-6 12-3 9-2 10-4 9-4 11-1 10 0 12 2 11 3 9 6 10 6 7 8 4 10 1 10 0 10 0 0 0 0-14-2-10-2-7-7-8-7-10-5-10-2-10 0-10 4-11 2-11 1-11 2-9 3-13 4-10 3-10 2-12 3-6 1-1 0-2 0-2 0-2-1-1-1-1-2-1-2 0-2 0-2 1-2 1-1 2-1 2-1z"  fill="#fff500" /><path d="M98-170l7-2 12-5 14-3 14-3 12-2 12-3 12-3 13-4 13-4 12-6 13-5 11-7 12-7 15-7 14-6 13-5 10-5 12-4 12-4 12-2 12-3 11-4 12-4 11-3 10-5 11-6 8-8 6-8 6-13 5-11 5-11 5-10 7-11 7-7 8-7 11-8 10-5 10-4 9-4 38-1 0 0 0 0-26 28-10 5-10 4-10 7-10 9-7 9-6 11-6 12-6 11-5 10-6 9-8 8-11 8-10 5-10 5-12 5-12 3-12 4-13 4-13 2-15 4-10 4-11 4-13 5-13 5-12 6-13 8-13 7-13 5-14 6-15 5-13 4-14 2-13 2-13 2-12 1-13 2-14 3-6 1-2 1-2-1-2 0-2-2-1-1-1-2 0-2 0-2 0-2 1-1 2-2 1-1 2 0z"  fill="#005bbb" /><path d="M93-159l-3-7-9-12-10-16-5-9-5-10-5-12-5-11-4-10-5-10-5-11-6-10-5-9-6-10-6-10-5-11-6-10-6-12-6-13-6-12-8-14-8-15-8-15-9-15-9-15-10-15-10-15-10-16-10-16-10-17-9-18-9-18-8-17-8-17-8-17-7-16-7-15-6-16-6-15-6-15-5-15-5-14-4-13-5-13-4-12-5-11-4-11-5-10-6-9-6-8-6-8-7-8-15-13-15-12-15-12-14-9-13-8-13-8-14-10-13-13-13-15-6-9-6-9-6-9-7-10-6-11-7-12-6-13-6-13-7-14-8-13-8-13-9-12-9-13-9-13-9-13-9-13-9-14-8-15-9-14-8-15-9-14-9-14-9-13-62-85 0 0 0 0 69 80 9 14 9 13 9 14 9 15 9 14 9 14 9 14 9 13 9 12 9 13 10 13 10 12 9 13 9 13 8 13 7 13 7 12 7 11 7 10 7 9 6 9 12 16 11 14 12 11 12 10 12 8 13 9 14 11 15 12 8 7 8 6 7 8 8 8 7 8 6 9 7 10 5 11 4 11 4 11 4 12 4 12 4 13 4 14 4 14 4 15 5 15 5 15 6 16 6 15 7 17 8 17 8 17 8 17 9 17 9 17 11 17 10 16 11 15 11 15 10 14 10 15 10 14 10 15 9 14 9 13 8 13 6 12 6 11 7 11 5 11 5 9 6 10 6 10 6 11 5 10 5 11 5 10 4 11 5 10 5 9 5 10 9 16 8 14 3 7 0 2 0 2 0 2-1 1-1 2-1 1-2 1-1 0-2 0-2-1-2-1-1-1-1-1z"  fill="#005bbb" /><path d="M97-170l5-3 9-5 11-8 9-7 6-10 4-12 3-10 4-12 2-11 3-11 4-11 4-9 5-9 6-9 8-8 10-4 10-2 9 6 14 5 0 0 0 0-8 13-8 7-10 3-6 8-5 9-5 9-3 10-3 10-4 10-4 10-4 10-5 10-9 11-8 7-12 7-9 4-11 5-6 2-2 0-2 0-2 0-1-1-2-1-1-2-1-1 0-2 0-2 1-2 1-2 1-1 2-1z"  fill="#c2e1ff" /><path d="M102-170l7 1 13 4 13 4 13 5 11 5 12 5 13 7 13 6 14 7 13 8 16 9 16 11 16 12 14 12 15 11 15 10 14 9 13 8 14 5 15 4 14 2 13 0 11-1 10-3 11-6 9-10 7-9 6-11 5-12 4-14 3-14 2-18 1-10 1-11 2-11 3-12 3-11 3-11 2-11 2-12 1-10 0-11 0-11 0-11 0-11 0-11-1-10 0-10-2-20-3-19-4-19-4-17-5-17-3-17 2-56 0 0 0 0 20 61 3 16 4 17 4 19 3 20 2 10 1 10 1 11 0 11 0 10 1 11 0 11 0 11 0 12-1 11 0 12-2 12-1 12-3 12-2 10-2 11-1 10-1 11 0 10-2 19-3 18-4 16-6 15-8 14-9 11-8 9-12 8-12 5-13 3-15 1-16 0-16-3-17-5-17-6-15-9-15-10-15-10-15-12-15-11-15-11-15-10-15-8-14-8-13-7-12-7-12-6-12-6-12-6-10-5-12-5-12-5-6-3-2-1-2-1-1-1-1-2 0-2 0-2 1-2 1-1 1-2 2-1 2 0 2-1 1 1z"  fill="#c2e1ff" /><path d="M95-169l4-4 11-9 10-7 11-6 10-5 12-4 11-2 13 0 11 2 11 4 9 3 13 7 11 6 9 5 9 6 7 9 4 10 2 11 4 12 1 12-3 12-5 12-7 10-7 9-6 11-6 9-8 12-9 9-9 8-10 7-8 8-7 9-25 30 0 0 0 0-7-30 3-10 5-9 6-9 7-7 9-9 10-7 9-7 6-9 7-11 6-10 7-10 7-9 4-11-1-10-3-11-3-10-9-7-9-6-10-6-12-5-12-4-12-2-12 1-13 4-10 5-10 5-10 7-6 4-1 1-2 0-2 1-2-1-2 0-1-2-2-1-1-2 0-2 0-2 1-1 1-2 1-2z"  fill="#fff" /><path d="M92-165l2-6 2-13 2-12 2-11 1-11 2-10 3-11 4-10 5-10 6-10 8-10 8-10 8-10 9-9 8-9 8-9 9-9 8-7 9-9 9-9 10-9 10-9 12-7 10-5 11-5 7-8 10-7 9-6 8-7 10-7 10-6 9-4 10-4 10-4 10-3 14-3 35 3 0 0 0 0-22 24-14 4-13 5-13 5-10 5-11 7-10 6-9 6-8 6-8 7-9 6-10 5-10 5-11 5-9 7-9 8-9 8-10 10-12 10-7 8-9 9-8 10-9 8-7 9-7 9-7 9-7 11-5 12-4 13-3 11-3 12-3 11-4 13-2 7-1 1-1 2-2 1-1 1-2 1-2 0-2-1-2-1-1-1-1-2-1-2 0-2 0-2z"  fill="#fff500" /><path d="M94-157l-5-5-10-8-11-7-11-6-11-4-12-5-12-2-11-2-13-2-12-1-11-1-15 1-12 1-12 1-11 1-10 1-11 0-10 1-10 6-4 10-2 12-2 11-3 11-3 12-3 12-4 12-3 10-3 13-3 15-4 15-4 13-4 12-3 12-2 10-3 10-5 11-23 13 0 0 0 0-5-24 4-11 4-10 2-10 4-11 4-10 4-13 3-13 3-14 2-11 3-10 4-12 3-10 3-11 2-12 2-10 2-10 4-14 4-10 7-9 9-7 10-3 10-3 10 0 14 0 10 0 12-1 12-1 12-1 12 0 13 1 13 2 12 2 14 3 14 4 12 6 13 6 12 8 12 9 10 10 5 6 1 1 1 2 0 2 0 2-1 2-1 2-1 1-2 1-2 0-2 1-2-1-1-1-2-1z"  fill="#fff500" /><path d="M105-156l-4 4-9 8-8 8-8 8-10 11-7 11-5 12-3 12 0 12 3 12 3 11 7 14 7 9 7 9 7 8 9 7 10 8 10 8 11 6 14 7 17 9 9 6 10 7 10 8 10 9 10 10 9 10 11 10 10 12 11 12 12 11 14 11 16 11 20 10 22 11 22 10 23 10 24 10 25 10 25 11 25 11 24 13 25 14 25 14 25 16 26 17 25 17 25 17 25 17 24 16 23 16 21 16 21 16 20 16 19 16 19 15 18 17 17 16 16 15 17 15 16 15 17 14 18 13 17 14 19 13 19 13 20 12 145 69 0 0 0 0-146-67-20-12-19-13-19-14-17-13-18-14-17-14-17-14-16-15-17-16-17-16-18-16-18-16-20-16-20-16-20-16-21-15-23-16-24-16-25-17-25-18-25-17-26-16-25-16-25-14-25-14-24-13-25-11-25-10-25-10-24-10-24-9-23-10-22-9-21-9-18-10-16-9-14-11-12-11-11-10-11-10-11-9-9-8-9-8-10-6-10-5-16-9-17-7-15-7-13-9-10-8-10-8-10-10-9-10-8-11-7-12-6-13-4-12-2-12-1-12 1-12 3-11 4-10 6-11 7-9 8-8 8-8 9-7 9-7 10-7 5-4 2-1 2 0 1 0 2 0 2 1 2 1 1 1 1 2 0 2 0 2-1 2-1 1-1 2z"  fill="#005bbb" /><path d="M94-168l3-5 9-12 8-12 6-12 3-11 0-11-2-13-4-9-6-10-7-8-8-10-9-11-9-10-11-11-12-8-12-8-12-7-13-8-13-8-12-10-12-11-11-11-11-11-12-13-12-13-13-9-14-7-17-8-10-5-10-5-10-5-10-7-9-9-10-9-9-10-10-10-10-11-11-11-12-11-14-11-14-13-16-13-15-16-14-16-14-18-14-18-12-19-12-19-11-18-11-19-12-20-11-20-11-20-11-20-10-19-11-19-12-18-12-17-13-17-12-16-12-15-12-16-11-15-11-16-10-14-11-14-69-90 0 0 0 0 72 88 11 14 10 15 10 15 11 16 11 15 12 16 12 16 13 16 13 18 12 18 11 19 10 19 11 20 11 20 11 20 12 20 11 19 11 18 12 18 13 19 14 18 14 17 15 15 16 14 16 12 16 11 15 10 14 11 12 10 12 10 10 9 9 9 9 8 9 7 8 5 10 5 9 4 9 4 18 8 18 9 8 5 15 13 13 13 11 11 11 12 10 10 10 9 12 7 12 8 13 8 13 7 14 10 13 11 12 11 9 12 9 10 8 11 8 12 5 13 4 13 1 13-2 14-5 16-9 15-10 12-9 10-5 6-1 1-2 1-2 0-2 1-1-1-2-1-2-1-1-1-1-2 0-2 0-2 1-2 1-1z"  fill="#fff" /><path d="M100-155l-6 1-12 0-11 1-11 0-10 1-14 1-13 0-11 0-10-1-9 6-2 11 10 4 12 1 9 4 15 9 0 0 0 0-17 19-12 1-11-2-11-3-11-5-7-7-5-9-3-10 0-11 4-11 6-8 8-7 11-6 10-2 13 1 13 2 10 1 14 0 11 0 11 1 12 1 12 1 5 1 2 0 2 1 2 1 1 1 1 2 0 2 0 2-1 2-1 1-1 2-2 1-2 0-1 1z"  fill="#fff500" /><path d="M92-163l0-5-4-14-6-14-6-13-5-12-4-10-6-9-7-8-10-4-10-3-11-3-12-3-10-4-9-4-9-6-11-1-11-3-10-4-10-5-9-9-7-10-5-10 7-24 0 0 0 0 27 18 8 9 11 5 11 2 9 2 10 5 9 6 11 5 9 3 10 3 10 3 10 5 10 7 7 8 7 9 4 11 4 11 3 12 5 14 3 11 3 12 0 12 0 6 0 2-1 1-1 2-2 1-1 1-2 0-2 0-2 0-2-1-1-1-1-2-1-2 0-2z"  fill="#fff" /><path d="M92-163l0-6-1-12 0-11-1-13-1-12-1-10 0-10-1-13 2-11 3-11 7-11 10-9 10-6 9-5 8-6 11-8 9-8 12-6 13-5 11-2 13-3 11-2 12-1 12-2 11-2 13-3 9-6 7-9 5-10 1-12-1-12-2-11-1-12-1-11 9-40 0 0 0 0 20 37 1 11 1 15 2 11 1 11 0 12-3 12-5 11-7 10-9 9-10 8-13 5-12 3-12 2-11 2-12 2-13 3-13 3-12 2-9 5-8 6-10 8-10 6-11 6-10 6-8 8-3 11-1 12-1 12 0 11 0 13-1 10-1 11-1 12-1 6 0 2-1 1-1 2-2 1-1 1-2 0-2 0-2 0-2-1-1-1-1-2-1-2 0-2z"  fill="#fff" /><path d="M107-158l-4 6-7 13-6 12-4 13-3 16-5 18-4 17-3 18-2 18 0 17 0 18 3 17 2 17 2 17 1 18 2 17 1 18 1 17 0 16 2 17 3 19 5 19 2 11 2 11 3 11 2 13 2 13 3 13 2 15 2 14 1 14 1 14 1 14 0 14 0 14-1 14-1 14-1 15-3 14-4 14-4 14-6 15-6 15-7 14-8 15-10 16-11 15-11 15-14 14-15 13-15 12-16 11-16 9-16 9-16 8-17 7-18 7-19 8-18 7-18 8-19 8-18 7-18 8-18 8-18 9-18 9-17 10-16 10-15 12-14 12-16 14-15 14-15 16-99 113 0 0 0 0 98-115 14-15 16-15 15-14 15-13 15-11 16-10 17-10 18-10 18-8 18-8 18-8 18-8 19-8 18-8 18-8 18-8 18-7 16-7 17-8 16-9 16-9 15-11 15-11 14-14 12-14 10-16 10-15 8-15 8-15 6-15 6-14 4-14 4-14 4-14 2-13 2-14 1-14 0-13 0-14 0-13-1-14-2-13-1-14-3-13-3-14-3-14-3-12-4-12-2-11-3-11-3-10-3-11-2-10-2-10-2-10-2-19-1-16 0-17-1-17-2-18-1-17-2-16-2-17-2-19-1-19 1-20 2-19 3-19 5-18 4-17 4-17 6-16 8-13 9-13 4-5 2-2 1-1 2 0 2-1 2 1 2 0 1 1 2 2 0 2 1 1 0 2-1 2 0 2z"  fill="#fff" /><path d="M107-159l-3 7-6 15-4 14-6 16-7 17-7 19-5 10-4 9-5 10-5 10-5 10-5 10-5 10-5 10-4 10-3 10-6 18-4 16-2 14 0 14-1 14 0 12 1 11 1 10 3 12 4 14 2 10 3 14 3 13 3 12 4 10 4 10 5 9 4 10 5 11 4 10 4 12 1 11 2 12 2 11 2 11-3 24 0 0 0 0-20-7-7-9-3-13-2-13-1-10-1-11-3-10-5-11-4-12-5-10-4-11-5-12-3-13-3-14-2-15-2-13-4-13-2-11-1-11 0-12 0-13 1-14 2-14 2-16 4-16 6-18 3-10 4-10 4-10 5-11 5-10 4-11 5-10 5-10 5-9 8-19 7-18 7-17 6-15 7-16 7-14 4-7 1-2 1-1 2-1 2 0 2 0 2 0 1 1 2 1 1 2 1 1 0 2 0 2-1 2z"  fill="#c2e1ff" /><path d="M97-170l6-3 15-5 17-6 20-6 10-2 10-2 19-5 10-2 10-1 19-4 10-1 11-2 10 0 10-1 11-2 12 0 12 0 13 1 13 2 12 3 13 4 12 6 12 7 10 9 9 11 7 10 6 11 4 11 4 12 3 11 3 12 2 12 3 11 3 12 5 12 6 11 7 10 8 10 9 9 9 8 9 7 9 6 9 5 9 4 18 7 16 6 15 3 15 4 15 3 14 4 14 5 11 6 10 7 8 7 10 9 8 9 8 8 9 4 25 10-1 0 1 0-15 15-10 4-11-2-10-5-7-7-7-7-6-8-8-9-10-9-10-9-10-5-12-4-14-4-15-4-15-5-17-6-17-8-9-4-10-5-9-6-10-7-10-8-10-8-9-10-9-11-9-12-7-12-5-13-5-13-3-12-2-11-2-11-3-11-3-10-4-10-5-10-6-9-7-8-8-8-10-6-10-4-12-4-11-2-12-2-11 0-11 0-11 1-11 1-20 2-19 3-20 3-19 4-19 4-19 4-19 5-17 5-15 4-6 2-2 0-2 0-2 0-1-1-2-1-1-2-1-1 0-2 0-2 1-2 1-1 1-2 2-1z"  fill="#fff500" /><path d="M103-170l5 2 10 4 12 6 11 5 12 5 13 5 11 4 13 1 14-1 13-2 12-2 11-2 11-4 10-4 9-4 10-5 11-5 10-3 10-6 8-7 11-5 11-1 21 10 0 0 0 0-16 21-10 4-8 6-11 6-11 3-10 4-11 4-9 4-11 4-12 4-11 2-12 2-14 1-10 1-11 1-12-1-13-2-10-4-12-6-13-6-12-7-11-7-11-8-4-2-2-1-1-2-1-1-1-2 0-2 0-2 1-1 1-2 2-1 2-1 1 0 2 0 2 0z"  fill="#005bbb" /><path d="M106-157l-4 5-8 9-10 9-11 7-14 5-15 0-14-2-12-4-12-3-12-3-11-4-11-4-10-6-9-6-7-7-7-8-7-11-7-11-6-9-7-8-8-7-10-2-11 0-14 1-15 3-11 2-14 0-15-3-12-5-10-4-12-5-12-1-12 0-10 1-11 3-12 3-14 3-40-12 0 0 0 0 34-17 13-3 12-3 14-3 13-1 15 0 11 1 12 3 11 4 10 5 11 4 13 1 10-2 11-2 12-2 11-1 10 0 15 2 14 6 9 8 8 8 8 11 5 10 6 11 6 9 7 7 9 7 12 6 11 4 11 4 12 3 12 4 14 4 12-2 9-5 9-7 9-7 4-4 1-1 2-1 2 0 2 0 2 0 1 1 2 1 1 2 1 2 0 2 0 1-1 2-1 2z"  fill="#fff" /><path d="M93-166l2-5 3-12 5-12 4-12 5-13 5-14 4-14 5-14 5-13 3-13 2-13 0-14-3-14-5-15-9-16-6-9-7-8-6-8-7-8-8-8-7-7-8-7-9-6-9-6-10-7-10-6-10-6-10-6-10-5-11-4-10-4-10-5-11-4-10-4-10-3-10-4-10-3-10-2-19-2-18 0-16 5-14 7-13 11-12 14-6 8-6 10-5 11-6 11-5 12-5 13-5 12-4 13-4 14-6 13-6 14-6 14-6 14-7 14-7 14-8 13-7 13-8 12-9 12-9 11-9 12-9 11-8 11-7 11-7 11-7 11-6 12-7 12-6 12-55 69 0 0 0 0 43-76 7-11 6-12 7-13 7-11 7-12 8-11 9-11 9-11 9-11 9-11 8-12 8-12 7-12 7-13 7-13 6-14 6-14 6-14 5-14 5-13 3-13 4-14 4-13 5-13 5-13 5-12 6-12 5-11 7-11 7-9 8-8 8-6 8-6 9-5 10-4 10-3 10-2 11 0 10 0 11 2 10 2 11 2 11 3 10 4 10 4 11 4 10 4 11 5 10 4 11 5 11 5 11 5 11 6 10 7 10 6 10 6 10 7 10 7 8 8 8 8 7 8 8 9 8 9 6 9 7 9 5 9 4 10 4 9 3 19 0 18-2 16-5 15-5 13-5 14-5 14-6 14-5 13-6 12-5 11-6 11-3 6-1 1-1 2-2 1-1 0-2 0-2 0-2-1-2-1-1-1-1-2 0-2 0-2 1-2z"  fill="#fff" /></svg>