<svg width="1200" height="675" viewBox="-500 -500 1200 675" xmlns="http://www.w3.org/2000/svg"><path d="M-500-500h1200v675h-1200z" fill="#000"/><path d="M93-166l1-5 4-12 3-12 3-13 1-14 1-12-1-13-2-12-3-12-3-13-3-13-3-13-5-13-5-11-6-10-7-9-12-8-12-1-12 3-12 9-6 9-6 12-5 13-1 12 0 15 2 13 4 11 6 12 6 11 8 9 8 9 8 9 7 7 11 8 10 4 11 5 13 5 13 6 13 6 13 8 15 13 13 14 8 9 8 10 9 10 9 12 9 12 66 80 0-1 0 1-79-69-10-11-10-10-10-9-9-9-15-15-12-11-11-8-12-6-12-5-12-5-13-5-11-5-13-7-10-8-9-9-8-10-8-9-9-12-8-13-6-14-5-15-3-17-1-18 3-18 6-16 7-14 10-15 13-11 14-6 15-2 17 2 14 7 12 10 9 11 8 13 6 14 4 14 4 15 3 13 2 12 3 13 2 15 0 16-1 15-3 14-4 14-4 13-6 12-3 6-1 1-1 2-2 1-1 0-2 1-2-1-2-1-2-1-1-1-1-2 0-2 0-2 1-2z"  fill="#c2e1ff" /><path d="M93-166l2-6 6-12 7-11 7-10 7-9 7-9 5-8 9-12 5-9 3-10-1-10-3-11-3-11-2-12-1-11 1-12 3-12 4-11 5-11 4-10 7-11 9-9 8-6 9-5 12-5 11-3 12-1 10 0 11 1 10 2 12 2 11 2 25 23 0 0 0 0-35 8-10-1-10-2-10-2-10-1-13 1-11 4-10 5-9 9-6 11-4 10-4 11-2 11 0 11 1 12 3 10 2 13 1 11-2 10-6 14-8 11-9 10-6 9-8 9-8 8-7 8-7 9-7 10-3 5-1 2-1 1-2 1-2 1-2 0-2-1-1-1-2-1-1-1-1-2 0-2 0-2 1-2z"  fill="#c2e1ff" /><path d="M100-155l-8 0-17-1-21-3-12-1-12-2-13-1-12-1-13-2-12-1-13-1-12-1-13 0-13 1-12 1-12 1-13 3-12 2-12 3-11 4-11 4-11 5-11 6-12 7-13 6-13 8-14 7-14 8-14 7-14 7-14 7-14 7-13 7-13 7-12 8-12 7-11 7-10 7-10 7-10 6-9 7-9 6-8 7-7 8-11 16-4 10-3 11-2 11-2 12-1 13-1 14 0 12 1 13 2 12 2 12 3 13 3 11 4 12 3 11 4 11 4 12 4 11 4 11 3 11 3 11 3 11 4 10 3 10 3 11 3 11 4 10 3 11 4 10 3 11 3 11 4 11 3 11 5 12 4 13 4 12 5 12 5 10 6 11 6 9 7 10 6 8 7 8 7 7 13 13 13 12 49 48 0 0 0 0-61-34-14-13-7-7-7-8-6-8-7-8-7-9-6-10-7-11-6-10-6-12-5-12-5-13-4-12-5-12-4-11-4-12-3-11-3-10-3-11-4-11-3-11-3-10-3-11-3-10-4-11-3-10-3-11-2-11-4-11-4-11-3-12-4-11-4-12-4-12-3-12-3-13-2-13-2-13-1-13 0-14 0-14 1-13 1-14 3-13 4-13 5-11 6-11 8-9 8-7 9-8 10-6 10-6 10-7 10-6 11-7 12-6 12-7 12-7 13-7 14-7 13-7 14-8 13-7 14-8 13-8 14-8 13-8 13-7 12-7 11-6 12-6 12-5 12-4 13-3 13-2 12-3 13-2 14-1 13 0 14 0 13 0 12 1 13 1 12 1 13 1 13 1 12 1 12 2 21 3 16 2 7 1 2 1 2 0 1 1 1 2 1 1 0 2 0 2-1 1 0 2-2 1-1 1-2 1-2 0z"  fill="#fff" /><path d="M97-170l6-2 10-5 12-6 9-7 8-8 6-10 4-10 2-11 3-11 3-10 3-12 1-13 0-11 0-15-1-15-2-13-2-14-3-13-1-15 1-16 2-15 3-15 1-16 0-20-1-10 0-10 0-11-1-12 1-11 1-12 2-11 3-12 4-11 4-10 5-10 4-10 4-10 5-9 5-9 5-9 5-9 6-9 11-15 12-15 11-14 11-15 11-16 7-18 23-72 0 0 0 0-2 68-2 10-4 11-5 11-5 10-12 16-12 15-12 14-11 14-10 15-10 17-9 17-5 9-4 10-8 19-3 10-2 10-2 10 0 10 0 11 0 10 1 11 1 11 1 11 1 10 1 10-1 20-2 15-2 14-1 12 1 11 3 13 3 14 2 16 2 16 1 15 0 14-1 12-3 14-4 12-3 10-4 13-5 12-6 9-8 9-9 8-12 7-9 4-10 3-11 3-5 2-2 0-2 0-2 0-2-1-1-1-1-2-1-2 0-2 0-2 1-1 1-2 2-1 1-1z"  fill="#005bbb" /><path d="M106-168l5 5 8 9 8 9 7 8 6 9 8 11 6 10 7 12 6 9 6 9 6 9 6 8 8 6 11 1 10-2 9-7 20-8 0 0 0 0 3 17 0 11-7 10-8 6-10 4-12 1-11 0-10-2-11-4-8-6-8-8-5-9-5-9-6-10-5-10-5-11-5-11-6-11-7-12-6-9-6-10-7-9-4-5-1-2-1-2 0-2 0-2 1-1 1-2 1-1 2-1 2-1 2 0 2 1 2 1 1 1z"  fill="#005bbb" /><path d="M93-159l-4-6-8-13-9-11-11-10-11-8-12-6-13-5-14-4-17-5-18-6-17-8-15-7-14-6-12-5-12-3-14-1-14-1-14-1-13-1-13 0-12 1-12 1-14 3-17 3-17 4-17 6-17 8-16 10-9 5-9 6-8 7-9 8-9 10-9 10-11 11-12 10-12 11-13 10-15 9-15 9-16 8-18 8-18 6-19 6-19 7-19 8-20 8-21 8-21 8-21 7-20 5-21 4-20 4-20 3-19 2-19 1-18 0-17-1-16-2-15-3-14-4-15-4-15-4-15-5-14-5-14-6-13-5-90-38 0 0 0 0 94 29 13 5 13 6 14 5 15 5 14 5 15 5 14 4 14 4 16 3 16 2 18 1 18-1 20-1 19-3 21-4 20-4 21-6 20-6 21-8 21-9 19-9 19-9 19-8 19-7 17-7 16-8 15-9 15-9 13-10 12-10 11-11 10-11 10-12 9-11 9-10 9-10 9-9 9-6 9-6 9-6 9-6 9-5 10-4 18-7 10-4 9-2 17-4 15-3 15-1 14-1 14 1 13 1 14 1 15 1 15 2 16 4 14 6 14 7 15 7 15 7 16 6 17 4 17 5 14 7 14 8 13 10 12 13 10 14 7 14 3 7 1 2 0 2 0 2-1 1-1 2-2 1-1 1-2 0-2 0-2 0-2-1-1-1-1-2z"  fill="#005bbb" /><path d="M106-168l4 4 9 8 10 9 10 6 10 6 10 5 11 4 12 4 10 3 11 3 15 1 13-3 13-3 12-5 8-9 5-10 4-11 6-13 6-13 7-14 4-10 4-13 6-12 6-12 6-11 8-11 10-9 8-8 9-8 8-9 8-7 7-8 7-11 5-12 3-12 2-13 3-10 23-18 0 0 0 0 5 30-3 11-3 11-3 12-6 12-6 9-7 9-7 9-9 8-8 8-8 8-9 8-7 8-6 8-6 9-5 10-4 11-4 12-5 13-5 10-6 13-6 12-5 12-5 10-5 9-8 9-10 7-10 4-11 4-11 2-12 2-13 0-13-2-13-3-12-4-12-5-12-5-12-7-11-8-11-9-9-10-8-9-4-5-1-2-1-2 0-1 0-2 1-2 1-2 1-1 2-1 2-1 2 0 2 1 1 1 2 1z"  fill="#005bbb" /><path d="M95-169l4-4 11-7 13-4 13-1 13 4 12 5 11 6 10 6 10 6 10 5 9 6 9 5 10 9 11 6 9 6 8 6 7 9 10 4 12-1 11-1 12 2 11 4 9 4 10-3 10-6 26 4 0 0 0 0-8 23-9 6-10 5-11 4-12 0-13-4-10-5-11-2-12 1-11 0-11-4-11-7-8-10-7-7-9-6-9-8-10-8-10-7-10-6-10-6-9-6-10-7-10-5-11-6-12 0-12 4-5 3-1 2-2 0-2 0-2 0-2 0-1-2-2-1 0-2-1-2 0-2 1-1 0-2 2-2z"  fill="#fff" /><path d="M103-155l-7 3-14 6-16 6-15 6-17 9-10 5-10 5-10 5-11 4-11 4-11 4-12 3-11 3-12 2-11 2-11 2-11 1-12 1-11 1-10 2-11 2-11 2-12 2-11 1-12 1-11 1-11 1-11 0-10 0-10 1-10 1-11 1-11 1-11 1-10 2-10 2-11 2-12 1-11 1-10 1-11 0-10-1-19-2-18-3-18-2-17-2-16-3-14-1-13 0-13 1-12 1-13 2-12 1-10 2-12 5-10 6-8 7-9 8-8 5-7 10 0 0 0 0-11-14 0-12 6-8 9-8 10-8 9-5 9-5 11-4 12-2 13-2 12-1 14-1 13 0 14 0 16 1 16 2 16 3 17 3 18 3 18 3 18 2 19 0 10-1 11-1 10-2 11-2 11-2 11-1 11-1 11-1 11-1 11-1 10 0 10 0 11-1 11 0 10-1 12-2 11-2 11-2 11-2 12-2 11-1 11-1 10-1 11-1 11-3 11-2 10-3 11-3 11-3 10-4 10-4 9-5 10-6 10-5 9-5 9-4 17-6 16-5 14-4 7-3 2 0 2 0 2 0 1 1 2 1 1 2 1 1 0 2 0 2-1 2-1 2-1 1-2 1z"  fill="#005bbb" /><path d="M108-160l-2 6 0 10-1 11 0 11 1 10 1 10 1 12 0 11 1 10 1 11 1 11 1 11 1 11 2 10 2 13 1 13 0 13 0 13 1 13 2 14 0 15-1 15-4 14-6 14-9 13-11 12-12 11-11 12-10 11-8 11-8 11-10 14-11 13-9 12-8 13-6 11-5 12-3 12-5 12-5 11-4 10-5 14-3 11-2 12-3 13-22 28 0 0 0 0-5-36 3-11 3-13 5-14 5-13 5-11 5-10 4-11 5-13 5-13 7-14 9-14 10-13 10-13 9-12 8-13 10-13 11-12 11-11 11-12 9-10 7-9 4-10 3-9 1-12 0-12-2-14-2-16 1-13-1-11 0-11-2-11-2-13-1-12-1-11 0-11-1-10-1-13 1-11 0-10 0-11 0-12 1-12 2-12 3-12 2-6 1-2 1-1 2-1 2-1 2 0 1 0 2 0 2 1 1 2 1 1 1 2 0 2 0 2z"  fill="#fff500" /><path d="M92-161l-2-8-2-18-3-16-5-15-6-12-8-11-10-9-12-10-13-9-11-10-12-10-10-8-10-10-10-10-10-11-10-11-10-10-10-9-11-8-12-6-13-4-15-4-16-4-17-3-17-4-17-3-17-5-18-4-17-4-16-3-16-1-15 1-15 3-12 4-11 5-9 7-9 9-7 8-7 10-9 11-9 9-12 9-11 7-12 7-11 7-8 7-9 8-37 24 0 0 0 0 19-43 10-9 11-9 12-7 11-7 11-7 8-6 8-7 8-9 8-10 9-11 11-10 13-8 14-7 15-5 17-3 19-1 18 2 18 3 18 4 17 4 17 4 17 3 16 3 17 4 18 3 16 4 16 6 16 8 13 9 11 10 12 12 10 11 9 11 8 9 10 9 10 9 10 9 12 10 12 10 13 11 11 12 10 14 7 16 5 17 2 18 1 17 1 8 0 2-1 2 0 2-2 1-1 1-2 1-2 0-2 0-2 0-1-1-1-2-1-2-1-1z"  fill="#005bbb" /><path d="M93-167l3-6 7-11 5-11 4-10 2-10 2-10 1-11 1-12 0-14 0-16 2-16 2-15 2-15 2-15 2-13 2-13 2-11-1-13-3-15-2-10-4-9-3-10-6-12-8-8-10-9-8-6-9-8-8-9-8-9-7-10-6-10-4-10-5-13-4-13-4-10-5-12-3-12-3-11 6-30 0 0 0 0 24 22 2 11 3 11 4 11 3 11 4 12 5 13 5 12 6 10 7 8 11 11 8 6 8 7 9 7 7 9 7 11 5 11 3 10 3 11 3 12 2 11 2 13-1 13-3 12-2 12-2 13-2 14-2 15-2 15-1 15-1 14 0 15-1 14-2 13-3 11-4 12-6 12-7 11-8 11-4 5-1 1-2 1-2 1-2 1-2-1-2 0-1-1-1-2-1-1-1-2 0-2 0-2 1-2z"  fill="#fff500" /><path d="M103-155l-6 3-11 5-10 5-10 6-10 6-11 7-11 6-10 5-9 7-10 7-12 9-10 8-9 9-11 11-12 13-13 13-12 16-6 8-13 15-12 13-12 13-11 13-10 12-10 12-10 13-8 11-7 12-8 13-7 12-5 14-5 17-7 20-4 10-3 11-3 12-2 13-3 14-2 14-1 14 0 15 0 15 1 16 2 15 3 15 5 15 7 14 7 14 9 13 10 12 10 11 12 11 12 9 14 9 13 8 13 10 13 9 13 10 13 11 13 12 13 13 13 14 13 13 13 14 12 15 79 102 0 0 0 0-83-99-12-14-14-14-13-13-13-13-13-12-14-11-13-11-13-9-13-10-12-9-14-9-13-9-14-9-12-11-11-12-10-13-10-13-8-15-7-15-6-15-4-16-3-16-2-16-1-16 0-15 0-16 1-15 1-14 2-14 2-13 3-12 3-11 5-19 6-18 6-17 8-15 7-12 9-13 9-13 10-12 10-13 12-12 11-12 12-13 11-13 12-15 6-8 6-8 7-9 12-14 12-13 11-12 11-12 12-9 11-8 11-7 11-7 12-6 10-5 11-6 11-6 12-5 12-5 11-3 6-2 2-1 2 0 2 1 2 1 1 1 1 2 1 2 0 1 0 2-1 2-1 2-1 1-2 1z"  fill="#005bbb" /><path d="M103-169l8 3 16 8 18 9 9 7 9 7 9 9 9 9 8 11 10 11 9 13 9 15 9 15 7 15 8 15 8 16 7 15 8 15 8 15 10 14 10 13 10 13 11 13 10 13 9 12 9 13 9 12 8 12 9 11 8 10 9 10 9 9 9 8 10 8 9 8 9 8 9 8 8 9 8 9 6 10 6 11 4 11 4 11 2 11 1 11 0 11-1 11-3 10-3 11-5 11-5 11-6 11-6 11-8 10-7 10-8 8-9 8-8 8-10 7-9 7-10 6-10 6-9 7-9 6-8 7-7 7-12 16-6 15-1 17 1 19 2 11 2 10 2 10 3 11 4 10 3 11 4 10 4 10 4 11 4 10 4 12 4 11 4 12 4 13 3 12 4 13 5 14 4 14 5 15 21 108 0 0 0 0-34-104-5-14-6-14-5-14-4-13-5-13-3-11-5-12-4-11-4-11-4-11-4-10-4-11-4-10-4-11-4-11-3-11-3-11-2-12-2-11-1-11 0-11 0-11 2-11 4-10 5-10 7-9 8-9 8-8 9-7 9-7 10-7 10-6 9-5 9-7 8-6 8-8 8-7 7-7 7-9 7-9 5-10 6-11 4-10 8-19 4-17 0-19-2-9-6-20-4-9-6-9-7-9-8-9-8-8-8-8-9-8-9-9-10-9-9-10-9-10-8-11-8-12-8-12-8-12-9-13-9-13-10-12-10-13-11-13-10-14-10-14-8-15-9-15-8-15-8-15-8-15-9-14-9-14-9-13-10-11-10-11-9-10-9-9-7-7-16-12-16-10-16-9-7-4-2-1-1-1-1-2 0-1 0-2 0-2 1-2 1-1 1-1 2-1 2 0 2 0 1 1z"  fill="#c2e1ff" /><path d="M107-167l4 5 7 11 8 10 8 11 8 10 9 12 9 12 8 13 9 14 9 15 6 16 5 15 2 16 2 16 1 17 0 19 0 11-1 11 0 12-1 12-2 12 0 12-1 11-1 11-1 11 0 10 1 20 2 18 2 18 4 18 5 19 2 10 2 11 2 9 3 11 3 10 3 9 7 18 6 17 6 16 5 15 4 16 3 16 2 15 2 15 3 14 3 12 2 11 2 10 1 13 0 12 0 10-4 12-18 15 0 0 0 0-8-24 3-10 1-11 0-10-1-13-2-11-2-12-2-14-2-16-2-15-2-14-3-15-5-15-5-15-6-17-6-18-4-10-3-11-3-11-3-11-2-10-4-19-4-19-4-19-2-20-1-10 0-10 0-10 1-11 0-11 1-11 0-11 1-12 0-12 1-11 0-12-1-11 0-10-1-19 0-16-2-15-2-13-4-14-5-13-7-13-9-13-8-13-9-12-8-12-8-11-7-12-7-12-5-10-4-6-1-1 0-2 0-2 0-2 1-2 2-1 1-2 2 0 2-1 2 1 2 0 1 1 2 2z"  fill="#fff500" /><path d="M101-155l-6 1-13 2-12 2-10 3-11 4-10 6-11 6-12 8-14 8-13 6-12 6-9 7-10 8-9 9-9 9-8 9-6 10-6 12-7 12-5 14-3 14-3 18-2 17 2 18 1 11 1 10 5 19 5 18 9 14 10 14 12 15 7 9 8 8 7 9 8 10 8 10 8 11 8 10 8 11 10 11 9 12 10 13 10 13 11 12 11 12 13 12 12 10 13 11 14 10 15 10 16 10 17 10 20 9 19 10 20 10 21 9 21 10 20 11 22 13 21 13 22 14 23 14 24 14 24 14 24 14 25 14 171 96-1 0 1 0-172-94-25-14-24-14-24-14-24-14-23-14-22-14-21-13-22-13-20-11-21-9-21-9-20-10-20-9-20-8-18-9-17-9-16-10-14-10-14-10-13-11-13-11-12-12-12-12-11-12-11-12-10-12-10-10-9-11-9-11-8-10-8-9-8-9-8-9-8-8-7-8-13-16-6-8-11-16-5-10-4-10-3-10-2-10-3-11-2-10-1-11-2-10-1-11 0-11 1-10 3-18 3-18 7-17 6-13 7-13 8-12 10-12 10-10 10-9 11-9 13-8 13-6 13-6 12-7 12-7 13-8 13-5 13-4 13-2 13-1 13-1 5 1 2 0 2 0 2 1 1 1 1 2 1 2 0 2 0 2-1 2-1 1-2 1-1 1-2 1z"  fill="#fff" /><path d="M100-171l7 0 16 1 16 2 16 4 14 6 13 5 13 5 13 4 13 3 16 2 17 3 16 2 17 3 16 3 14 3 15 2 13 1 14 1 13 1 15 1 13 2 13 3 13 3 13 3 12 4 11 5 10 5 12 5 10 2 12 1 12 0 11 1 8 6 6 9 2 10 0 0 0 0-15 3-10 2-11-2-12-1-11-2-13-4-9-4-13-7-9-5-10-3-12-4-12-3-12-2-13-2-13-2-13-1-14-1-15-2-14-2-16-3-16-3-16-3-16-2-16-3-17-2-16-4-15-5-13-6-12-6-12-5-13-4-15-3-14-3-7 0-2-1-2 0-2-2-1-1-1-2 0-2 0-2 1-2 1-1 1-2 2-1 1 0 2-1z"  fill="#fff" /><path d="M107-158l-3 6-11 14-12 12-15 10-14 10-14 10-13 11-10 12-8 12-6 14-5 15-3 16-2 18-1 11 0 10 0 21 1 10 1 12 1 12 1 11 0 12 1 10 2 11 4 19 5 17 6 17 5 15 5 15 2 15 1 14-1 14-3 14-7 13-9 11-11 9-11 9-11 7-11 7-12 6-11 6-10 6-12 8-8 5-9 5-10 6-9 7-9 9-8 9-27 13 0 0 0 0 4-32 8-8 8-8 10-8 12-8 11-5 12-7 9-7 11-5 10-6 11-5 11-7 11-7 10-6 9-7 7-7 8-11 3-9 1-11 0-11-1-12-4-15-4-15-6-18-5-18-2-10-1-11-2-11-1-11-1-11-1-11-1-12-2-11-1-12-1-11 0-11 0-11 1-11 0-10 1-10 4-19 5-17 8-16 10-16 13-14 15-12 15-10 14-9 13-9 12-10 9-9 4-7 1-1 2-1 2-1 1-1 2 1 2 0 2 1 1 1 1 2 1 2 0 2 0 2-1 2z"  fill="#fff" /><path d="M102-170l8 2 14 4 17 2 17 3 18 0 18 1 18-1 17-1 17 0 15 0 14 0 12 0 10 0 10-1 11-2 11-1 11-1 11 1 14 0 10-2 9-2 10-4 9-7 7-10 6-10 5-10 7-10 8-8 8-8 10-7 10-4 12-1 12 6 8 20 0 0 0 0-23 6-9 5-7 6-7 8-6 10-5 9-6 9-8 9-8 7-10 6-12 4-11 3-14 2-11 0-14-1-14 0-10 1-11 0-12 1-12 0-13-1-13-1-14-1-16 0-18 1-18 0-19-1-19-1-19-3-18-4-15-5-6-3-2-1-2-1-1-2 0-1-1-2 0-2 1-2 1-1 1-2 2-1 2 0 2 0 1 0z"  fill="#c2e1ff" /><path d="M101-171l5 1 13 1 12 4 10 6 9 6 12 8 12 8 11 7 10 5 11 6 9 4 10 4 9-5 10-4 10 2 8 7 3 9 0 0 0 0-11 4-5 10-9 4-10 3-12-2-11-4-10-6-10-6-9-5-10-8-11-8-8-6-12-9-11-9-11-7-10-3-6-1-1 0-2-1-2-1-1-2-1-1 0-2 0-2 1-2 1-2 1-1 2-1 2 0 2-1z"  fill="#fff500" /><path d="M103-155l-6 3-15 5-17 2-16 0-15 0-15 0-16 1-17 1-19-1-20 0-11 0-11 0-12 1-11 1-12 2-12 2-10 4-11 4-12 4-12 4-12 4-12 4-12 3-11 4-12 3-11 4-11 3-11 2-10 3-19 4-18 5-17 6-15 8-10 11-4 12 2 11 7 12 11 17 6 9 6 10 6 11 6 11 6 10 7 10 8 10 8 9 9 9 10 10 10 11 10 10 9 10 10 10 9 10 9 10 7 11 7 11 6 11 5 11 4 11 3 10 2 10 2 19 0 18 0 15 1 15 0 15 1 14 2 12-3 47-1 0 0 0-19-43-2-15 0-16 1-14 0-15 1-15 1-17-1-17-3-18-3-10-4-10-5-11-6-10-7-10-8-10-9-9-10-10-10-10-10-10-10-10-10-9-10-9-9-10-9-10-8-11-8-11-6-10-6-10-6-10-6-9-7-9-5-8-6-9-3-9-2-11 0-10 3-10 6-10 7-8 8-7 9-5 19-7 18-5 19-4 10-2 10-2 11-3 10-2 11-3 12-4 12-3 11-4 12-4 12-4 11-4 11-5 12-4 12-4 13-3 12-3 12-2 13-1 11-1 12-1 11 0 10 0 18 0 16 0 17-1 16 0 15 1 14 2 14-1 12-2 7-3 2 0 2 0 1 0 2 1 2 1 1 1 1 2 0 2 0 2-1 2-1 2-1 1-2 1z"  fill="#c2e1ff" /><path d="M100-171l7 0 13 0 13-1 13-2 13-1 14 0 14 0 14 0 12 1 11 0 12 1 11 0 12 2 10 1 14 2 14 5 11 6 9 7 7 9 5 10 1 13-3 10-6 9-9 8-12 5-10 0-10-3-9-5-8-8-6-19 0 0 0 0 10-2 11-1 10 3 11 0-3-9-8-7-10-5-12-2-11-2-10-1-11-1-11-1-12-1-12-1-12-1-14 0-13-1-13 0-14 1-13-1-14-1-6 0-2-1-2 0-1-2-2-1-1-2 0-2 0-2 1-2 1-1 1-2 1-1 2 0 2-1z"  fill="#fff" /><path d="M106-168l4 3 9 6 10 4 9 3 10 1 11 0 11-2 12-1 12-2 13-1 13 0 13-1 12-1 15-1 15 0 15 1 14 1 14 0 13-2 10-4 11-5 12-6 15-6 18-4 17 0 17 2 16 4 15 4 15 6 15 7 15 9 14 9 13 9 12 7 13 7 12 7 11 7 12 8 10 9 11 8 10 9 11 8 12 5 15 6 17 8 15 8 15 8 46 37-1 1 1 0-57-17-15-8-14-8-15-6-16-6-18-7-13-10-10-9-9-8-10-7-10-8-11-7-12-7-12-7-13-8-14-9-12-8-14-8-13-6-14-5-14-5-13-3-13-1-14 0-12 2-13 5-11 6-14 7-15 5-17 2-15 0-14-1-14-1-14 0-13 1-14 1-13 1-13 0-12 1-12 1-12 1-13 0-13 0-13-3-13-4-12-7-9-9-5-5-1-1-1-2 0-2 0-2 1-2 0-1 2-2 1-1 2 0 2-1 2 1 2 0 1 2z"  fill="#fff500" /><path d="M95-156l-5-3-11-6-11-2-13-1-14-1-14 0-14 2-15 2-15 1-16 1-19 0-10-2-10-1-11-2-11-2-13-3-13-3-14-3-16-5-17-5-17-6-17-6-16-5-17-4-16-3-18-3-18-2-18-1-19-2-18-1-19-1-19 0-19 1-19 1-18 3-18 3-18 6-17 6-15 8-14 9-13 11-12 11-10 11-9 11-7 13-6 12-5 13-5 12-4 14-5 13-4 13-5 12-4 13-5 13-4 12-4 13-3 12-2 13-3 14-3 13-4 14-5 13-5 13-6 12-6 12-7 12-7 10-7 10-8 10-7 9-8 9-7 9-7 9-8 9-7 10-6 9-7 10-8 10-8 10-8 10-9 11-10 10-11 10-11 9-76 49 0 0 0 0 67-60 10-9 10-9 9-10 8-10 9-11 7-10 8-9 6-10 7-10 8-10 7-9 8-10 7-9 8-8 8-9 7-9 7-9 7-10 7-10 6-12 5-11 6-12 4-13 4-13 3-13 3-13 2-14 3-13 5-13 4-13 5-13 5-12 5-12 4-13 5-13 5-13 5-13 6-13 7-13 9-13 10-12 11-11 12-10 14-10 15-9 16-8 17-7 18-5 18-4 19-2 19-2 19-1 19 0 19 1 19 0 18 1 19 1 18 1 18 2 17 3 17 4 17 4 17 4 18 5 16 3 16 3 14 1 14 2 12 2 11 1 11 2 18 2 16 0 16-1 15-1 15-2 16-1 15 1 16 1 15 2 15 6 12 8 5 4 1 1 1 2 1 2 0 2 0 2-1 1-1 2-2 1-1 1-2 0-2 0-2 0-2-1z"  fill="#fff" /><path d="M100-171l6 0 10-3 14-4 14-5 14-5 15-4 10-2 10-2 12-1 11 0 11-1 13-2 14-1 13-2 13-2 13-2 12-2 12-3 11-2 11-3 11-2 11-3 10-2 10-2 15-2 14-2 13-1 13-1 11-2 12-1 11-3 12-4 11-3 10-3 11-2 12-1 9 8 9 14 0 0 0 0-24 9-11 1-11 3-11 4-14 4-14 3-13 1-12 1-12 1-13 1-14 1-13 2-10 2-11 2-10 2-11 2-12 3-12 2-13 3-13 2-13 2-14 2-14 2-13 1-13 2-12 0-15 1-13 1-14 3-14 3-14 3-10 3-12 2-12 1-7 0-2-1-1 0-2-1-1-2-1-1-1-2 0-2 0-2 1-2 1-1 2-1 2-1 2 0z"  fill="#fff500" /><path d="M103-155l-7 3-12 4-12 5-14 3-15 2-14-2-14-3-16-5-16-4-16-5-18-4-18-4-18-4-18-4-17-3-18-3-18-2-17-1-18-1-11-1-10-1-11-2-12-3-11-4-12-5-10-6-10-6-10-6-9-7-8-6-8-6-14-13-13-12-12-11-13-10-13-9-13-8-13-9-14-10-13-11-13-11-14-12-15-13-15-13-14-13-15-9-16-6-15-5-16-5-16-6-15-4-14-3-14-1-54-5 0 0 0 0 55-18 17 2 16 3 17 5 15 6 16 5 17 6 17 8 9 5 8 6 9 6 15 13 8 7 14 12 15 12 14 11 12 11 11 8 13 9 14 9 13 10 14 11 12 12 13 13 13 12 14 12 8 6 9 6 10 5 9 5 10 4 10 3 10 2 10 2 20 2 18 0 19 1 19 2 18 3 18 4 17 4 18 3 19 3 19 4 17 5 16 5 14 4 13 3 11 3 10 0 12-2 13-3 12-4 6-1 2-1 2 0 2 1 2 1 1 1 1 2 1 2 0 2 0 2-1 1-1 2-2 1-1 1z"  fill="#005bbb" /><path d="M95-169l4-4 8-7 8-7 8-10 6-10 4-11 7-12 7-9 9-11 8-11 5-15 4-13 2-11 1-11-4-14-4-11-5-10-8-12-7-7-11-10-8-8-8-9-6-10-5-10-4-10-7-12-5-8-6-10-6-10-6-9-7-9-7-7-8-7-9-5-9-5-12-7-10-4-12-3-12-3-16-18 0 0 0 0 23-11 9 3 11 3 12 4 12 7 9 5 9 5 11 7 11 9 10 10 8 10 7 11 5 9 6 9 7 9 6 11 4 10 5 12 7 10 10 11 8 8 8 8 8 10 7 11 5 12 5 13 4 14 1 15-2 15-3 15-5 13-5 13-8 12-7 7-8 10-7 9-6 11-8 12-7 8-9 7-8 6-9 6-5 4-1 1-2 0-2 0-2 0-2-1-1-1-2-1 0-2-1-2 0-2 1-2 1-1 1-2z"  fill="#fff" /><path d="M108-163l1 6 1 10 3 9 3 11 4 13 2 13 0 12 0 11 0 15 0 13 0 10 1 14 2 15 1 10 3 12 2 12 3 11 2 12 1 10 3 14 2 13 2 14 1 13-1 14-2 14-3 12-5 10-5 11-4 13-3 11-1 12 0 11-6 9-11 13 0 0 0 0-11-15-4-11 1-10 2-13 2-13 4-10 4-12 5-10 5-10 3-11 1-10 0-12-1-11-2-13-2-14-2-10-1-10-2-11-3-12-2-12-2-13-2-10-1-11 0-10 0-11 1-15 1-14 1-15 0-10-1-11-2-11-2-12-2-12 0-12 0-5 0-2 1-2 1-2 1-1 2-1 2 0 2-1 2 1 1 1 2 1 1 1 1 2 0 2z"  fill="#c2e1ff" /><path d="M108-163l0 8 2 15 1 18 1 18 2 19 4 18 7 18 9 18 5 9 4 10 4 10 6 18 5 18 2 17 1 17-1 18-2 19-4 18-3 16-3 14-4 14-5 13-6 13-6 11-7 10-6 9-8 9-12 10-10 6-10 6-11 6-14 5-15 4-16 3-17 2-15 1-17-1-16-3-16-5-16-6-17-7-10-4-9-3-19-7-18-7-17-5-15-6-15-7-14-8-36-43 0 0 0 0 49 24 11 7 12 6 15 6 18 6 17 6 10 3 10 3 18 7 18 6 16 5 14 4 13 3 12 1 15-2 14-2 15-3 12-3 11-4 10-5 9-6 11-7 10-8 9-10 5-9 6-10 6-10 5-11 4-12 3-14 4-15 3-17 2-17 1-16 0-16-1-15-4-16-5-17-7-18-5-9-5-10-5-9-4-10-4-11-3-10-2-11-2-20 0-19 0-17 0-16 0-7 0-2 1-2 1-1 1-2 2-1 2 0 2 0 2 0 1 1 2 1 1 2 1 1 0 2z"  fill="#fff500" /><path d="M93-167l3-5 4-10 5-10 5-12 6-12 8-12 11-13 12-13 14-13 7-6 8-7 9-7 9-7 10-6 10-7 11-6 10-7 9-8 11-9 10-9 11-11 10-11 10-13 9-13 9-14 7-15 7-15 8-14 8-15 8-15 7-14 7-13 6-13 6-13 6-12 4-11 4-12 3-11 4-12 3-11 2-10 2-10 1-18-2-17-3-17-4-17-4-18-2-10-2-11-2-10-2-10-2-10-3-10-6-17-7-15-9-13-8-11-9-11-9-11-9-9-8-8-8-8-8-9-7-7-10-8-11-3-26-20 0 0 0 0 34-6 11 4 11 7 9 8 8 9 7 8 8 8 8 10 8 10 9 11 9 12 9 13 9 15 7 17 4 9 3 10 3 10 3 11 2 11 1 10 4 19 4 19 4 18 2 18 1 20-1 10-2 10-2 11-4 11-4 10-3 11-4 12-5 12-5 12-6 12-7 13-7 12-7 14-8 14-7 14-8 15-7 15-7 15-7 15-8 15-9 15-10 14-10 12-10 12-10 11-10 9-10 10-11 8-10 7-9 6-9 7-8 7-8 6-15 14-13 12-11 12-9 11-8 11-7 10-5 10-7 11-6 10-3 4-1 2-2 1-2 1-1 0-2 0-2 0-2-1-1-1-1-2-1-2 0-2 0-2 1-2z"  fill="#fff" /><path d="M97-155l-7-2-13-4-13-3-14-4-12-2-13-2-12-3-12-3-10-3-11-3-10-3-10-4-14-6-12-8-10-8-9-9-8-9-6-8-8-9-7-11-6-11-6-11-7-12-8-11-11-8-11-7-10-5-12-6-11-5-12-6-13-8-10-10-7-11-6-10-4-10-3-10-4-14-4-14-5-11-5-34 0 0 0 0 29 17 5 10 4 15 4 13 4 14 4 12 6 11 9 10 8 6 11 5 12 5 12 6 12 6 12 6 12 9 10 10 8 10 7 12 6 12 6 10 7 11 7 9 8 10 6 8 8 8 8 6 10 5 12 6 10 3 10 4 10 3 11 4 11 3 12 3 13 3 14 4 14 5 14 6 6 3 2 1 1 1 1 2 1 2 0 2 0 1-1 2-1 2-2 1-1 1-2 0-2 0-2 0z"  fill="#005bbb" /><path d="M108-164l1 6 4 12 3 11 4 10 7 12 8 12 8 12 5 9 6 8 6 9 8 11 8 8 11 5 10 4 15 6 10 5 13 7 14 5 12 3 12 4 12 4 12 6 10 6 11 8 9 8 10 10 8 10 7 10 5 10 6 11 3 11 3 10 2 14 3 14 2 13 1 15 1 15 1 11 1 15-14 59 0 0 0 0-14-51 0-13-2-12-2-12 0-11-1-12-2-13-2-13-2-14-3-11-5-12-5-9-5-9-6-8-7-7-9-7-9-7-9-5-13-6-11-3-12-3-12-4-11-4-11-5-13-7-13-6-12-5-13-7-8-7-7-8-6-8-6-9-6-10-5-9-7-13-7-13-5-9-5-11-3-12-2-12-2-13-1-6 0-2 0-2 1-2 1-1 2-2 2 0 2-1 2 1 1 0 2 1 1 2 1 1 1 2z"  fill="#c2e1ff" /><path d="M105-156l-5 4-10 9-11 8-11 6-11 4-10 1-14 0-12-3-11-4-12-6-10-5-11-5-10-4-11-4-10-4-10 2-10 1-11 0-10-3-6-8-8-4 0 0 0 0 2-6 8-7 10-4 11 0 10-1 11-2 12 2 10 5 9 5 9 4 11 6 10 5 10 5 10 5 10 5 11 2 11-1 13-4 10-6 10-7 6-4 2-1 1 0 2 0 2 0 2 1 2 1 1 1 1 2 0 2 0 2-1 2-1 1-1 2z"  fill="#fff" /><path d="M100-171l6 0 12-1 11-2 14-5 9-5 10-4 13-5 11-6 12-8 9-6 9-5 11-6 13-6 12-4 13-2 13-1 12-1 13 2 12 5 10 7 9 8 8 10 6 9 7 12 6 9 9 8 10 2 13 3 10 4 11 5 12 6 11 2 13-1 11-2 35 6 0 0 0 0-24 23-14 4-14 1-13 0-14-4-10-4-9-4-11-5-11-4-10-2-12-6-10-8-9-11-7-12-7-11-7-11-9-7-11-6-14 0-10 0-11 3-10 2-9 4-10 6-10 5-8 5-13 8-10 5-9 3-15 5-9 3-11 4-13 2-13 1-13 0-6-1-2 0-2 0-1-1-2-2-1-2 0-1 0-2 0-2 1-2 1-1 2-2 2 0 2-1z"  fill="#fff" /><path d="M92-160l-2-6-5-12-4-13-3-12-4-12-3-13-3-13-2-13-3-13-3-12-4-12-4-10-5-13-4-12-4-12-3-13-3-12-3-12-4-12-3-15-2-15-3-14-4-15-7-17-9-18-5-10-5-10-5-11-5-12-6-12-7-12-7-14-6-14-5-15-5-16-3-17-2-18-4-18-5-18-5-18-7-19-8-18-8-18-8-17-9-18-8-16-9-15-10-13-9-13-10-11-10-10-10-10-10-7-11-7-10-5-11-5-11-5-11-5-11-6-11-5-10-6-11-5-11-4-12-4-12-5-12-3-14-4-13-4-15-4-16-5-106-35 0 0 0 0 110 23 15 4 15 4 14 3 14 4 13 3 13 4 12 5 12 5 11 5 10 6 10 6 10 6 11 5 12 6 11 5 11 7 10 8 10 9 10 10 9 11 10 12 9 14 9 14 8 15 8 17 9 17 9 18 9 18 8 17 8 19 7 18 5 18 6 18 4 18 4 15 4 15 6 14 7 12 8 13 8 12 7 12 7 12 5 10 5 10 5 9 6 9 5 10 5 9 4 10 6 17 3 16 3 14 2 13 4 12 3 13 3 12 3 12 3 11 4 12 4 11 5 12 4 13 3 15 2 13 2 13 2 13 3 12 2 12 3 12 2 12 3 13 2 6 0 2 0 2-1 2-1 1-1 2-2 1-1 0-2 1-2-1-2 0-2-2-1-1-1-2z"  fill="#fff" /><path d="M98-155l-6 0-16-5-15-6-14-7-13-7-12-9-11-10-9-9-8-9-9-8-8-10-8-10-8-9-9-10-8-11-8-12-7-11-7-11-5-10-6-10-8-12-6-9-6-9-6-13-4-12-2-11-2-11-1-9-4-12-4-10-4-10-3-10-5-11 10-26 0 0 0 0 20 14 4 10 3 11 4 10 4 11 3 10 2 11 1 13 1 10 3 11 5 11 6 11 6 9 6 10 6 10 5 10 6 10 7 11 7 10 7 11 8 9 9 11 7 9 7 9 8 9 9 9 7 9 8 9 10 7 13 8 12 7 13 7 12 5 7 2 1 0 2 1 1 2 1 1 1 2 0 2 0 2-1 2-1 1-2 1-2 1-2 0-2 0z"  fill="#fff500" /><path d="M101-155l-6 2-11 3-10 4-11 3-13 4-12 4-11 4-10 4-10 5-9 4-2 10 0 12-3 10-10 8-11-1-7-6-5-5 0 0 0 0 5-11 1-10 2-10 4-12 9-8 9-5 11-3 10-4 11-3 10-3 12-2 14-3 10-2 12-2 12-2 7 0 2 0 2 0 1 1 2 1 1 1 1 2 0 2 0 2-1 2-1 2-1 1-2 1-2 0z"  fill="#fff" /><path d="M107-161l0 7-1 16-1 19 0 10 1 10 2 11 2 11 3 12 2 13 1 13 1 14 0 15 0 15-1 17-2 17-2 17-2 17-2 17-1 17-2 17-1 17-2 18-2 19-2 18 0 18 0 17 0 17 1 16 1 16 1 15 1 14 1 14 1 13 0 14 0 13 0 12 1 13 0 12 1 13 1 12 1 12 3 12 4 11 3 12 5 11 4 10 5 9 4 10 8 17 7 15 8 12 7 10 8 11 6 10 7 9 8 8 9 7 9 7 10 8 10 8 8 9 8 11 6 11 5 12 3 15-1 16-5 17-4 15-4 18-3 16-17 53 0 0 0 0-7-56 3-18 3-18 4-18 4-13 0-14-4-13-7-13-10-11-8-8-9-7-9-8-11-9-9-11-8-11-6-11-6-10-7-12-7-14-7-16-7-18-4-9-4-10-5-11-4-11-3-12-4-13-3-13-1-13-1-13 0-12 0-13 0-13 0-13 1-12 0-13 0-14-1-14 0-14 0-15 0-16 0-16 0-17 0-18 0-18 1-18 2-18 1-18 1-18 1-17 1-17 1-17 2-17 0-17 1-16 0-16-1-16-1-14-1-13-2-12-3-12-2-12-3-12-2-12-1-12 0-11 1-20 3-17 2-7 0-1 1-2 1-1 2-1 2-1 1 0 2 0 2 1 1 1 1 2 1 1 1 2-1 2z"  fill="#c2e1ff" /><path d="M97-170l5-3 12-5 11-5 12-6 10-6 9-6 12-11 8-8 7-8 8-8 7-8 6-9 6-13 6-11 6-11 7-10 7-8 6-9 9-12 6-8 8-10 9-9 10-8 8-7 9-6 10-6 9-4 14-7 9-3 11-2 14 0 10 0 14 1 11 1 11 3 9 4 12 8 7 6 8 10-2 25 0 0 0 0-23-8-8-8-9-6-10-5-11-1-10 0-11-1-12 0-10 3-11 5-13 6-11 7-8 7-11 9-11 12-6 8-6 9-7 8-6 9-7 8-8 12-5 10-5 11-8 11-7 10-9 9-8 8-9 8-9 8-10 8-11 6-12 6-13 5-13 5-11 3-6 2-2 0-2 0-2 0-1-1-2-1-1-2-1-1 0-2 0-2 1-2 1-2 1-1 2-1z"  fill="#005bbb" /><path d="M96-156l-6-2-12-6-12-5-11-5-11-4-13-5-12-4-10-3-10-1-11 0-12 0-11 0-14 3-11 4-12 7-12 6-10 5-10 7-11 6-11 5-11 5-13 4-11 4-8 5-8 8-8 8-7 7-6 9-3 9-6 12-6 11-7 8-10 2-15 0 0 0 0 0 3-16 3-11 5-10 5-11 5-10 8-12 8-8 9-9 10-9 12-8 10-4 11-4 11-4 11-4 10-5 9-5 11-6 12-6 12-6 9-4 11-4 12-3 12-1 13-1 12 1 13 1 13 2 13 4 12 6 12 5 12 5 11 6 12 6 11 8 6 4 1 1 2 1 1 2 0 2 0 2-1 2-1 1-1 2-2 1-1 0-2 1-2-1-2-1z"  fill="#fff500" /><path d="M104-169l5 2 11 6 9 5 9 7 9 8 7 7 7 8 5 11 0 11-2 12-6 10-6 8-9 5-11 3-11-3-10-7-9-8-4-10 2-11 7-8 6-4 0 0 0 0 4 7 9 5 7 9 6-9-1-10-7-9-6-7-7-8-8-6-10-8-4-3-2-1-1-2 0-2-1-1 1-2 0-2 1-2 2-1 1-1 2 0 2 0 2 0 1 1z"  fill="#c2e1ff" /><path d="M94-167l2-4 4-12 3-10 0-11 0-12 1-10 3-11 3-11 5-8-4-10-1-7 0 0 0 0 11 0 11 0 8 8 1 11-3 10-3 11-5 10-3 10-2 11-1 10-4 13-5 9-6 8-2 4-2 1-1 1-2 1-2 0-2 0-1 0-2-1-1-2-1-1-1-2 0-2 1-2 1-2z"  fill="#fff500" /><path d="M104-156l-5 4-11 8-11 8-11 8-10 8-11 9-9 9-10 9-9 8-9 8-11 7-11 5-12 3-11 1-11 1-12 0-12-1-11-2-11-3-11-6-10-7-9-7-9-9-7-12-6-13-4-14-3-13-3-17-2-17-2-19 1-19 2-17 3-16 4-16 6-15 7-14 10-13 9-12 11-10 10-10 11-9 11-9 12-8 14-7 13-6 14-4 13-4 50-1 0 0 0 0-50 28-12 3-12 4-11 5-10 6-11 8-10 8-10 9-10 9-9 10-8 10-7 11-5 12-5 13-3 14-3 15 0 15 1 16 3 17 3 16 4 14 3 12 3 10 6 11 10 10 11 8 10 5 13 3 13 1 10 0 15-1 11-2 12-6 8-7 9-7 10-10 11-8 12-9 12-8 11-8 12-7 12-6 6-3 2-1 2-1 1 1 2 0 2 1 1 2 1 1 1 2 0 2 0 2-1 2-1 1-2 1z"  fill="#005bbb" /><path d="M93-166l2-5 2-10 2-10 1-13-1-11-4-10-8-7-9-6-10-7-9-6-8-9-8-9-6-9-7-10-6-11-4-11-3-10-4-10-3-11-3-13-3-10-7-10-10-9-11-7-11-6-9-3-12-2-11-2-13-3-49-24 0 0 0 0 48-6 13 2 11 2 10 1 11 2 11 4 12 6 11 6 13 8 10 11 9 11 5 12 3 10 2 11 4 13 3 11 3 11 5 10 5 9 6 10 7 9 9 8 8 7 10 7 7 6 9 12 4 9 2 10 0 11-1 10-3 11-3 10-5 12-3 5-1 1-1 2-2 1-1 0-2 1-2-1-2-1-1-1-2-1-1-2 0-2 0-2 1-2z"  fill="#fff500" /><path d="M95-156l-5-4-11-9-11-9-12-9-11-11-12-12-11-11-10-12-8-12-8-11-10-12-9-12-10-17-8-17-5-9-5-9-5-8-6-10-5-9-5-10-6-10-7-10-7-9-9-9-9-9-9-8-9-9-9-8-9-8-8-8-8-8-7-8-7-8-7-7-7-8-6-8-7-8-5-8-9-17-7-14-7-10-7-9-10-7-11-4-11 4-9 9-8 8-9 8-9 6-10 7-10 6-30 3 1 0-1 0 20-32 10-6 9-7 10-6 8-8 9-8 11-6 14-3 10 1 9 3 10 5 10 8 9 10 7 13 7 13 6 15 8 15 12 15 6 8 7 8 7 7 6 8 8 8 7 8 9 8 8 8 10 8 10 9 10 9 10 9 9 10 8 10 6 11 6 9 5 9 6 9 6 9 5 9 6 9 9 17 8 14 9 12 9 12 9 12 7 11 9 11 10 11 11 12 10 10 11 10 11 11 8 9 5 4 1 2 1 1 1 2 0 2 0 2-1 2-1 1-2 2-2 0-2 1-2-1-1 0-2-1z"  fill="#c2e1ff" /><path d="M103-170l7 3 13 4 13 5 14 5 16 6 14 8 13 11 10 13 9 14 9 13 10 17 5 9 4 10 5 11 3 11 4 12 2 12 1 12 0 11 1 11 1 11-1 11-1 10-1 10-4 19-3 17-4 18-4 16-3 16-1 16 0 17-1 16 0 15 1 14 3 12 3 10 6 10 7 10 8 8 10 7 11 7 12 6 13 7 13 6 13 7 12 7 11 8 10 7 10 8 9 7 9 8 8 8 8 11 7 10 6 40 0 0 0 0-30-26-5-9-9-11-7-7-8-7-9-8-9-7-10-7-9-7-12-6-13-7-13-6-13-7-14-8-12-8-11-10-10-12-8-13-5-14-4-15-1-15 0-16 0-16 1-16 1-18 3-18 4-17 4-16 4-17 4-18 3-17 1-19 0-10-1-11-1-11-1-11-2-10-3-10-4-10-4-9-9-18-10-15-10-14-8-13-8-10-8-9-11-7-13-6-15-5-14-7-12-6-6-3-2-1-1-2-1-1-1-2 0-2 0-2 1-2 1-1 2-2 2 0 2-1 2 1 1 0z"  fill="#c2e1ff" /><path d="M95-157l-6-4-13-7-15-6-15-3-18-3-18-1-10-1-12-1-12-1-12-3-12-5-12-6-11-7-11-8-9-9-8-9-9-9-7-9-6-10-6-9-6-9-5-10-5-8-5-9-9-17-8-17-7-15-5-14-3-14-2-12-5-13-7-9-9-7-12-2-11 2-9 6-11 6-10 4-11 5-11 5-13 4-12 3-10 5-9 7-10 7-10 9-9 8-11 11-12 13-7 7-15 13-8 7-58 38 0 0 0 0 43-55 7-7 13-14 12-13 12-13 11-12 10-9 11-8 11-9 13-7 13-6 12-4 11-4 10-4 10-5 12-6 9-6 12-5 15-1 13 2 13 6 11 8 9 12 5 10 3 11 2 12 2 12 2 12 5 14 6 15 8 17 8 17 5 9 5 8 6 10 5 8 6 9 7 9 7 8 8 8 9 8 8 7 10 6 10 5 10 3 11 2 11 2 10 0 11 0 20 2 19 3 18 5 17 8 15 10 5 6 1 1 1 2 1 1 0 2-1 2 0 2-2 1-1 1-2 1-2 0-2 0-2 0-1-1z"  fill="#005bbb" /><path d="M103-155l-6 3-13 3-12 2-13 1-12 1-10 1-11 1-13 2-13 1-12 2-12 2-12 3-11 2-11 3-13 4-11 4-10 6-9 6-8 10-7 8-9 11-8 7-11 10-11 11-9 12-7 9-7 9-10 9-9 8-9 7-9 8-11 7-10 6-10 7-9 8-8 8-7 9-7 9-6 10-32 29 0 0 0 0 3-35 6-10 7-9 7-11 9-11 10-10 11-9 10-8 11-7 8-6 9-7 9-7 8-7 10-10 6-8 7-10 8-10 8-9 8-7 10-10 8-8 8-9 7-9 9-7 8-7 10-5 13-5 13-4 11-2 10-3 12-2 12-2 13-3 14-1 13-1 12-1 12-1 13-1 11 1 11 1 11-1 10-2 6-1 2-1 2 0 2 1 2 1 1 1 1 2 1 2 0 2 0 2-1 1-1 2-2 1-1 1z"  fill="#c2e1ff" /><path d="M108-165l2 7 5 13 4 15 4 17 2 17 3 17 3 17 3 16 2 16 0 15-1 15-3 13-3 13-2 11-1 10-1 12-2 13-1 12-2 12-1 13-1 10 2 13 1 14 1 12 3 10 6 11 6 9 11 4 11 2 12 1 10 2 12 1 19 18 0 0 0 0-17 11-12 2-11-2-11-1-10-2-13-2-11-4-10-7-8-10-6-11-5-10-2-12-2-11 0-13-2-14 0-12 1-12 1-13 2-12 2-13 1-11 1-13 3-12 2-12 4-12 2-12 2-12 1-12-2-14-2-16-3-18-2-17-3-17-2-16-3-14-3-13-2-7 0-2 0-2 1-2 1-2 1-1 2-1 2 0 1-1 2 1 2 1 2 1 1 1 1 2z"  fill="#fff500" /><path d="M108-161l-1 6-2 10-1 14 1 11 4 12 6 10 6 9 7 10 6 11 3 12 1 13-1 12-1 12-3 12-4 9-6 9-8 7-9 7-8 7-7 7-4 10-8 7-17 8 0 0 0 0-7-20 2-11 5-10 8-10 9-9 9-6 9-5 6-8 4-11 1-10 1-11-1-12-4-9-6-10-7-13-4-10-3-11-1-11 2-16 2-10 3-10 2-6 1-1 1-2 2-1 1-1 2 0 2 0 2 0 2 1 1 1 1 2 1 2 0 2 0 1z"  fill="#005bbb" /><path d="M93-167l3-5 4-11 3-10 3-11 0-13-2-15-4-13-4-10-5-11-5-11-5-9-4-10-7-13-6-12-7-11-6-10-5-11-5-9-7-9-7-8-9-7-10-7-13-5-12-3-13-1-15 0-14-1-14-2-12 0-13 2-9 5-13 6-16 6-17 5-17 2-18 4-18 4-19 5-19 6-10 3-19 6-19 6-19 6-18 7-70 27 0 0 0 0 53-41 9-5 10-4 10-4 9-3 19-6 19-6 10-4 9-3 10-3 10-3 19-6 10-3 18-5 18-4 15-3 13-4 13-6 13-7 14-5 14-1 14 1 12 1 14 1 15 0 17 2 17 4 15 6 15 8 12 10 10 11 7 11 7 11 5 10 5 9 7 12 6 13 5 9 4 9 4 11 5 10 5 11 4 12 4 12 3 12 1 12 0 13-3 12-4 11-5 12-6 11-4 6-1 1-2 1-1 1-2 0-2 0-2 0-2-1-1-2-1-1-1-2 0-2 0-2 1-2z"  fill="#fff500" /><path d="M101-170l6 0 12 1 11 0 13-2 13-3 9-5 7-8 5-10 3-13 1-11-4-10-6-10-9-4-15-2-11-3-12-3-11-3-9-3-13-2-12-1-11 0-12 0-15 0-11 0-14 2-12 2-12 1-10 2-14 6-10 4-12 6-40-2 0 0 0 0 28-24 13-6 9-4 13-5 12-4 13-2 12-2 11-2 13-2 11 0 14 0 13 0 13 1 13 1 11 2 11 2 11 3 11 3 13 3 14 2 14 4 12 8 8 11 5 11 4 13 1 10-2 15-3 12-6 13-9 11-8 7-9 5-10 3-11 2-10 1-12 0-12-2-12-2-6-2-2 0-2-1-1-1-1-2-1-2 0-2 0-2 1-2 1-1 2-1 1-1 2-1 2 1z"  fill="#c2e1ff" /><path d="M102-155l-6 2-12 5-14 4-15 2-16 0-16-2-18-3-11-2-10-2-11-2-12-4-12-3-11-4-11-4-12-5-11-5-11-6-11-6-10-7-11-7-10-7-10-7-9-7-9-6-9-6-17-9-16-6-15-3-14 0-13 3-13 4-13 6-13 6-12 6-15 7-17 7-10 3-11 3-11 1-12 1-11 1-11 0-12 1-12 1-11 1-12 0-11 0-11-1-10 0-19-1-18 0-16 0-14 2-13 2-13 3-11 4-11 5-9 7-9 9-11 10-10 12-8 11-8 11-33 30 0 0 0 0 13-44 8-12 10-12 11-12 10-11 13-12 13-9 13-5 14-4 14-3 15-2 16-1 17 1 18 1 18 1 11 1 10 0 11 0 10 0 12-1 11-1 12-2 12-1 11-1 19-3 17-5 16-7 14-7 14-6 13-6 15-6 15-4 17-2 18 1 19 4 18 8 9 5 9 6 9 6 9 6 9 7 10 7 10 7 10 6 10 7 10 5 10 5 11 5 11 4 11 4 11 3 11 3 11 2 11 2 20 4 18 2 14 2 14 1 12-1 12-2 13-3 7-1 2-1 2 1 1 0 2 1 1 2 1 1 1 2 0 2 0 2-1 2-1 1-2 1-2 1z"  fill="#c2e1ff" /><path d="M98-170l6-2 12-5 10-5 9-6 8-7 8-11 4-10-1-13-4-14-3-11-4-12-6-10-9-12-12-11-12-12-13-9-13-7-13-6-13-5-12-5-13-4-11-6-10-4-12-4-11-3-11-3-10-3-13-3-10-3-11-2-11-3-12-1-19-8 0 0 0 0 14-19 10-3 11 1 11 3 11 3 10 3 12 4 12 3 10 3 12 4 13 6 9 4 11 5 10 5 12 5 13 5 15 6 15 8 15 9 15 12 13 12 13 13 11 15 6 15 4 12 3 13 2 10 1 12-2 12-5 12-7 10-9 9-11 8-12 6-13 5-13 3-6 1-2 1-2-1-1 0-2-1-1-2-1-1-1-2 0-2 0-2 1-2 1-1 2-1 2-1z"  fill="#c2e1ff" /><path d="M92-165l2-7 4-14 5-15 5-15 5-16 6-16 6-16 6-15 4-13 1-13 0-13-2-12-2-13-3-13-4-14-5-15-3-15-4-13-5-11-7-10-9-10-11-11-12-11-14-10-16-10-16-10-16-9-17-8-16-6-16-6-16-6-16-6-17-6-15-7-16-7-16-7-16-7-17-8-17-7-16-7-16-6-16-5-17-4-18-1-18 0-17 0-17 2-69-3 0 0 0 0 58-18 18-2 18-1 18 0 10 0 20 2 10 1 19 5 17 6 16 7 17 7 18 8 16 7 16 7 15 7 17 7 15 6 15 6 17 6 16 6 16 7 18 7 17 9 9 4 18 11 16 10 16 11 14 11 12 12 11 12 9 14 6 14 4 16 4 14 4 14 4 15 4 14 2 15 1 15 0 15-3 17-4 15-7 15-6 16-6 15-6 15-6 15-5 15-6 14-2 6-1 2-1 1-2 2-2 0-2 1-2-1-1 0-2-1-1-2-1-1-1-2 0-2 0-2z"  fill="#005bbb" /><path d="M92-162l-1-5-3-10-6-13-5-10-6-10-5-10-5-10-4-11-3-10-5-14-5-13-5-12-6-10-6-12-5-13-3-11-5-10-5-10-7-8-9-5-11-2-10-5-6-9-7-17 0 0 0 0 13-3 11-1 11 5 10 2 11 5 9 8 6 8 6 8 6 12 3 10 4 11 3 10 4 10 6 12 6 13 4 14 3 10 3 10 3 10 4 13 4 10 5 10 4 11 5 11 3 12 2 12 0 6 0 2 0 1-1 2-2 2-1 1-2 0-2 1-2-1-2 0-1-1-2-2 0-2-1-2z"  fill="#005bbb" /><path d="M99-171l7-1 13-2 12-3 10-3 10-4 11-5 10-6 9-8 10-6 10-6 6-7 1-10 0-11 0-11 3-11 9-6 10-2 10 0 0 0 0 0-3 12 2 10-1 10 0 10-1 11-3 9-7 11-9 7-9 5-11 5-10 7-10 6-11 4-10 3-10 3-12 2-14 2-13 1-7 0-2 0-2 0-2-1-1-1-1-2-1-2 0-2 0-1 1-2 1-2 1-1 2-1 2-1z"  fill="#fff500" /><path d="M101-155l-6 2-13 4-11 4-12 5-10 7-13 8-16 8-16 6-16 4-16 4-17 5-19 7-9 4-9 5-8 6-8 6-8 8-8 8-7 9-8 10-8 9-8 10-8 10-8 11-8 12-6 12-7 13-5 14-3 15-2 14 0 14 1 15 2 16 2 16 3 16 2 16 2 17 1 17 0 17 1 17-1 17-1 15-2 16-4 14-5 13-5 13-6 12-5 11-7 11-6 10-7 9-7 8-14 12-15 8-15 5-16 1-15-4-13-7-10-9-9-10-6-12-4-12-2-12-1-11 1-11 1-12 4-12 29-37 0 0 0 0-2 40-4 14-3 13 0 14 2 12 5 12 8 11 12 9 14 4 11-1 12-4 13-6 13-12 7-8 6-9 7-10 6-11 6-11 5-12 5-12 5-13 2-14 2-16 0-16 0-17-1-16-1-17-3-16-2-16-3-16-3-16-2-17-2-16 0-16 2-15 3-16 5-15 6-15 6-14 8-12 8-12 8-11 7-10 8-10 7-9 8-10 8-10 9-9 9-8 10-7 10-6 10-5 10-5 10-3 18-6 17-4 14-4 14-5 13-6 13-8 14-7 14-5 13-4 14-2 7-1 2 0 2 1 1 1 2 1 1 1 1 2 0 2 0 2-1 2-1 2-1 1-2 1-2 0z"  fill="#c2e1ff" /><path d="M108-161l-1 7-2 15-3 14-3 14-1 12 0 12 2 13 3 14 6 13 7 13 9 13 11 14 12 13 12 11 11 9 11 7 11 6 9 6 13 5 9 2 11 0 10 1 11 3 10 4 9 5 10 9 7 9 8 7 10 6 10 6 10 4 13 0 11-2 15-3 13-3 53-3-1 0 1 0-45 30-15 4-13 4-15 4-14 1-12-2-14-5-9-5-9-7-10-6-9-9-6-10-8-7-9-5-11-3-11-1-14-3-11-4-10-5-10-6-11-7-12-9-13-10-13-13-12-14-13-14-11-15-8-16-6-16-4-17-1-15 0-16 3-14 4-13 4-14 3-14 2-7 1-2 1-1 1-2 2-1 1 0 2-1 2 1 2 1 2 1 1 1 1 2 0 2 0 2z"  fill="#c2e1ff" /><path d="M108-162l0 6-1 13-2 11-2 11-2 11-2 12-1 10-1 12-2 13-4 14-7 14-9 13-9 12-7 11-7 12-5 12-4 11-2 11-2 14-1 12-2 13-2 10-5 12-7 8-10 2-10 1-4 0 0 0 0 0 1-12 2-11 5-8 3-10 3-13 2-13 2-11 3-12 4-14 7-14 8-14 9-13 8-11 7-10 6-10 3-11 2-11 2-12 2-12 3-12 3-11 3-10 3-10 2-11 1-6 0-2 1-2 2-1 1-1 2-1 2 0 2 0 2 0 1 1 2 2 0 2 1 1 0 2z"  fill="#c2e1ff" /><path d="M94-167l4-7 9-13 9-15 9-15 9-16 9-17 5-9 5-10 5-9 5-11 5-11 6-11 7-11 7-11 6-11 6-10 6-10 5-10 5-9 8-17 6-17 8-17 9-16 7-15 7-15 7-15 10-16 13-15 14-14 11-15 7-15 3-14 0-12-6-13-6-8-8-10-8-10-9-11-10-9-11-8-13-5-16-3-19-3-10-1-10 0-11 1-11 1-10 2-10 3-11 3-10 3-10 3-10 2-11 3-10 3-11 3-12 3-11 4-11 5-10 5-8 7-8 8-6 8-8 9-6 10-50 65 0 0 0 0 36-75 7-10 7-10 8-9 9-9 10-8 11-7 13-6 12-4 12-4 11-3 10-3 11-3 10-3 10-2 10-4 10-3 12-3 11-3 12-2 12-1 12-1 11 1 11 0 10 1 19 4 10 3 17 9 13 11 10 12 9 10 8 11 8 12 7 13 4 15-1 17-5 18-3 9-6 10-6 9-6 8-7 8-13 14-9 12-8 14-8 14-7 16-9 16-8 15-8 16-8 17-5 9-5 9-5 10-6 10-6 11-6 10-7 11-6 11-5 11-5 11-5 11-4 10-5 10-5 9-5 9-4 10-10 15-10 15-11 15-10 13-5 6-1 1-1 1-2 1-2 0-2 0-2-1-1-1-2-1 0-2-1-2 0-2 1-1 1-2z"  fill="#fff" /></svg>