<svg width="1200" height="675" viewBox="-500 -500 1200 675" xmlns="http://www.w3.org/2000/svg"><path d="M-500-500h1200v675h-1200z" fill="#000"/><path d="M94-157l-4-5-9-8-8-9-8-9-7-7-10-8-8-6-13-7-12-5-11-2-11-1-13-1-11 0-11 0-11 2-9 6-6 9-4 10-2 10-3 10-9 7-10 8 0 0 0 0-6-10-5-10 1-11 2-9 3-11 5-10 8-10 9-8 8-5 10-4 12-2 13-1 10 1 13 1 11 2 10 1 11 2 10 4 10 5 10 6 10 7 8 7 8 8 7 9 6 9 7 10 8 10 3 4 1 2 1 2 0 2 0 2-1 1-1 2-2 1-2 1-1 0-2 0-2 0-2-1-1-1z"  fill="#073b4c" /><path d="M107-167l4 6 9 9 9 9 10 7 11 7 11 8 11 8 9 9 9 9 7 12 4 11 3 12 0 11-1 13-3 15-5 14-5 10-7 9-6 10-5 10-6 11-6 12-6 13-6 11-4 12-4 13-4 14-2 14-1 15 0 13 3 15 3 18 2 19 2 18 2 19 2 19 2 10 2 10 4 10 9 16 14 13 14 9 16 5 15 2 17 0 16-2 15-4 60-13 0 0 0 0-54 34-18 4-19 2-19 0-19-4-10-3-9-4-10-5-8-6-9-8-8-8-7-10-5-11-5-11-3-11-3-11-1-11-2-10-2-18-2-18-3-18-3-17-3-17-1-18 1-16 2-17 4-15 4-14 5-14 6-13 5-12 6-13 6-12 6-12 7-11 8-11 4-10 3-10 2-12 1-11-2-10-5-11-7-8-8-8-8-8-10-7-12-9-11-10-10-11-8-12-4-6-1-2 0-2 0-2 0-1 1-2 2-2 1-1 2 0 2-1 2 1 2 0 1 2 2 1z"  fill="#073b4c" /><path d="M94-168l4-6 6-12 6-13 6-12 5-11 5-10 4-9 4-10 5-15 3-11 5-12 4-12 6-14 9-14 9-12 8-12 8-12 8-12 10-12 12-13 13-10 13-10 12-9 10-10 8-9 7-9 7-9 5-8 6-10 7-10 6-9 6-10 6-8 9-12 7-7 10-10 11-7 11-6 9-6 12-7 10-6 11-7 35-2 0 0 0 0-14 25-10 5-10 6-11 6-11 7-10 6-12 7-8 6-9 9-9 9-8 11-6 10-6 9-7 10-6 10-7 9-8 9-9 10-11 11-12 11-12 9-12 10-11 9-9 11-8 11-8 12-9 13-8 12-7 10-6 12-5 12-4 11-4 12-4 11-5 11-5 10-5 10-6 10-6 10-6 11-8 13-9 14-5 5-1 2-2 1-2 0-2 1-1-1-2-1-2-1-1-1-1-2 0-2 0-2 1-2 1-2z"  fill="#073b4c" /><path d="M108-165l2 5 6 12 4 13 4 11 5 11 4 11 2 10 2 13 1 12 0 10 1 11 5 9 3 10-5 9 5 7 0 0 0 0-3 3-11 1-9-4-6-8-3-10-4-10 0-12 1-10 0-11 0-12-1-11-3-10-4-12-3-12-3-12-4-13-2-6 0-2 0-2 0-1 1-2 2-2 1-1 2 0 2-1 2 1 2 0 1 1 2 2 0 2z"  fill="#ffd166" /><path d="M95-169l4-4 7-8 6-9 7-9 7-10 8-9 8-9 9-10 8-11 9-11 10-10 10-9 12-8 12-5 12-3 12-1 13 0 13 1 11 0 11 1 14 1 13 2 14 2 15 1 14-1 14-2 13-4 13-8 13-11 13-16 7-10 7-10 8-11 8-11 8-10 6-10 7-10 5-9 5-10 6-9 5-9 8-16 5-15 3-12 1-12-2-11-2-13-3-13-4-15-5-15-8-17-4-10-5-10-3-13-3-13-2-91 0 0 0 0 22 87 2 11 4 10 4 10 5 9 5 9 4 9 6 18 5 16 3 14 2 14 0 15-2 15-5 15-7 16-9 17-5 9-6 9-5 9-6 10-6 11-7 10-7 11-7 11-7 11-7 11-7 11-6 9-7 10-8 8-8 7-9 6-18 9-17 4-17 1-16 0-16-1-14-1-12-2-12 0-12-1-11-1-11-1-14 1-13 3-12 7-9 6-8 9-9 10-9 12-10 10-8 9-8 8-8 8-7 9-8 9-10 8-5 4-2 1-1 0-2 0-2 0-2-1-2-1-1-1-1-2 0-2 0-2 1-2 0-1 2-2z"  fill="#118ab2" /><path d="M99-155l-6 0-11 0-15 3-13 3-12 4-11 4-11 4-11 3-10 3-10 4-9 5-7 8 2 11 9 6 7 8 4 10-5 9-1 11 0 0 0 0-12-2-9-7-8-7-7-7-8-9-3-11 0-10 2-10 7-11 6-7 10-8 10-4 11-4 11-2 11-3 10-3 12-3 13-3 14-2 11-1 12 0 13 1 6 2 2 0 2 1 1 1 1 2 1 2 0 2 0 2-1 2-1 1-2 1-1 1-2 1-2-1z"  fill="#073b4c" /><path d="M93-159l-3-4-4-10-4-9-3-14-3-12-2-9-2-11-1-12-2-11-1-11-3-10-4-11 4-10 5-9-1 0 1 0 7 0 7 7 7 8 3 9 2 12 1 11 0 13 0 11 1 13 1 11 1 12 2 12 3 12 2 5 1 2 0 2 0 1-1 2-1 2-2 1-1 1-2 0-2 0-2 0-2-1-1-1-1-2z"  fill="#118ab2" /><path d="M92-161l-1-6-3-11-2-10-4-14-2-10-3-11-2-10-3-10-3-14-1-14 0-12 0-11 0-11 2-11 2-10-2-12-8-7-8-7-4-10 0 0 0 0 15-7 10-2 10 3 8 7 6 11 2 10 1 11-1 10-3 11-2 11-1 12 0 10-1 13 3 13 2 11 2 12 2 14 1 10 2 11 1 11 0 11 1 5 0 2 0 2-1 2-1 1-2 1-2 1-2 1-2-1-1 0-2-1-1-2-1-1-1-2z"  fill="#ef476f" /><path d="M97-170l6-3 13-6 12-7 12-8 13-8 13-10 10-12 8-14 4-15 1-15-2-13-6-13-6-11-8-9-10-7-10-4-11-1-12 1-12 2-14 2-16 2-15 2-15-1-14-2-13-3-12-4-12-4-14-5-14-6-13-6-12-4-12-4-11-2-11-3-10-3-13-2-11-2-10-2-11-3-10-5-9-8-8-21 0 0 0 0 26-1 10 7 9 4 11 3 12 2 11 2 10 3 11 3 12 4 12 4 13 5 14 5 13 6 12 5 13 3 12 4 11 3 10 3 11 0 14-1 14-2 15-3 14-2 16 0 16 3 16 6 14 11 10 13 8 14 6 16 3 19-2 20-2 10-4 9-4 10-6 9-14 15-15 11-13 8-14 7-13 6-15 6-6 2-2 0-2 0-2 0-2-1-1-1-1-2-1-2 0-1 0-2 1-2 1-2 1-1 2-1z"  fill="#06d6a0" /><path d="M101-170l6-1 13 0 15-2 17-2 18-3 18-3 18-5 17-8 9-4 10-4 9-5 9-4 10-3 10-4 10-4 9-3 10-4 10-4 10-4 12-3 11-3 12-3 12-2 12-2 11-2 12-1 11-1 10-1 10 0 19 0 18-2 17-4 15-8 13-12 12-14 6-8 7-8 7-8 7-7 13-14 11-14 9-12 6-12 4-13 3-13 1-14-1-15-1-15-3-16-5-14-6-13-8-13-9-14-10-12-10-11-10-7-12-6-13-4-13-5-13-5-38-31 0 0 0 0 47 8 13 5 13 5 14 6 15 7 13 11 12 12 11 14 10 15 9 14 7 16 5 17 4 18 1 17 1 17-2 17-3 16-7 16-8 14-10 14-12 13-13 14-7 8-6 7-7 8-6 8-7 8-7 8-8 7-8 7-10 5-10 4-10 4-11 2-10 1-19 0-19 0-10 0-10 1-11 1-11 1-12 3-11 2-11 3-10 3-11 3-10 4-10 4-9 4-10 4-10 3-19 8-18 8-18 8-10 5-10 4-10 4-10 2-19 4-19 2-17 2-16 0-15-1-6-1-2 0-2-1-2-1-1-1-1-2 0-2 0-2 1-2 1-1 1-2 2-1 2 0 2 0z"  fill="#06d6a0" /><path d="M99-155l-6 0-13-1-12-2-11-5-11-4-10-3-10-4-10-3-11-3-11-1-13-2-13 0-13 1-14 2-13 5-12 7-8 7-7 10-5 11-7 14-9 15-8 14-9 14-8 15-8 14-10 14-12 14-13 14-8 7-8 6-15 12-12 12-12 12-8 12-8 12-8 15-9 16-9 14-9 14-7 14-6 14-5 13-4 13-2 12 0 11 0 12 1 11 1 14-12 44 0 0 0 0-13-49-2-13 0-13 1-14 2-14 4-14 5-15 6-15 8-15 8-15 10-14 8-14 8-15 9-15 10-15 11-13 13-12 14-13 15-13 13-12 11-12 9-13 9-13 8-14 8-15 8-14 8-14 7-14 7-14 8-14 11-12 14-10 17-7 17-5 17-2 15 0 14 1 14 2 13 3 12 4 10 4 11 5 10 5 14 6 9 4 12 2 6 1 2 1 2 1 1 1 1 2 1 2 0 1 0 2-1 2-1 2-1 1-2 1-2 0-2 0z"  fill="#118ab2" /><path d="M97-155l-5-2-13-4-13-3-12-1-10 0-13 2-10 2-10 3-11 4-9 5-10 4-10 5-10 4-12 1-11 1-11-1-13 3-11 2-14 3-12 1-12 1-10 1-15 3-37-6 0 0 0 0 30-23 11-3 13-2 12-1 10-1 12-2 12-4 12-2 12-2 11 1 11 0 11-3 10-4 11-3 10-4 10-4 13-2 10-2 11-1 13 0 14 2 14 4 14 6 9 5 4 2 2 1 1 2 1 1 1 2 0 2 0 2-1 2-1 1-2 1-2 1-2 0-1 0-2 0z"  fill="#ef476f" /><path d="M103-170l6 1 11 3 10 1 10 2 10 2 14 4 11 1 12 2 10 2 11 1 11 0 12 1 11-1 10-1 12-2 11-4 10-3 12-1 11 1 11 2 13 3 11 3 10 4 11 6 9 7 9 8 11 10 10 7 11 6 12 6 12 5 11 3 12 3 25 20 0 0 0 0-29 10-11-3-13-4-14-5-9-4-14-6-10-6-9-6-8-7-8-7-11-9-8-6-11-3-11-3-13-3-12-1-11 2-11 3-11 2-11 2-12 0-13 0-12-1-12-2-13-2-11-3-11-2-14-4-13-5-14-4-11-3-12-4-6-3-1-1-2-1-1-1-1-2 0-2 0-2 1-2 1-1 1-2 2-1 2 0 2 0 1 0z"  fill="#118ab2" /><path d="M108-165l2 7 6 14 7 14 6 15 6 15 6 15 6 16 7 15 6 17 5 19 4 19 4 19 4 18 4 18 3 16 1 17-1 17-2 15-4 16-6 16-8 16-7 14-8 15-9 14-9 14-9 14-10 14-8 14-6 12-3 11 0 15 2 11 4 9 9 11 10 9 9 6 9 8 9 8 9 10 7 10 7 12 6 12 7 13 6 13 8 11 7 10 23 38 0 0 0 0-47-27-9-13-8-13-7-13-7-12-5-11-6-9-6-8-8-8-8-7-7-6-10-7-9-9-8-11-6-13-5-15-1-15 2-15 5-15 7-14 9-15 9-14 10-14 8-14 9-13 7-13 7-15 7-14 6-13 3-14 3-14 1-13-1-14-2-16-4-17-4-19-4-19-4-18-5-17-5-15-7-16-6-17-5-14-6-15-5-15-6-16-5-15-2-7 0-2 0-2 1-2 1-1 1-2 2-1 1 0 2 0 2 0 2 1 1 1 2 1 1 2z"  fill="#118ab2" /><path d="M107-159l-3 6-5 9-7 13-7 11-8 10-10 9-10 5-11 4-11 1-10 1-11 1-11-1-13-2-10-2-10-3-11-3-14-3-11-2-11-4-10-3-13-6-12-8-11-8-11-7-13-10-10-10-9-9-8-9-7-8-7-7-7-8-8-9-8-10-8-10-10-11-10-11-11-12-10-8-12-7-12-7-12-8-11-9-10-11-9-10-22-48 0 0 0 0 46 36 8 9 9 8 9 7 11 7 13 8 14 10 12 11 11 12 11 11 10 11 8 10 7 8 8 8 7 8 8 9 6 8 8 8 8 9 9 7 11 8 12 7 10 7 9 5 10 4 10 3 13 4 11 2 11 3 15 4 11 3 12 1 13 1 14-1 13-3 10-6 7-7 8-10 9-11 6-8 3-5 1-1 2-1 1-1 2 0 2 0 2 0 2 1 1 1 1 2 1 2 0 2 0 2-1 1z"  fill="#06d6a0" /><path d="M96-169l5-4 11-6 10-5 10-4 10-3 12-3 12-4 10-6 8-6 11-4 12 0 10 2 10 6 5 9 1 10-3 5 0 0 0 0-8-3-10 3-10-4-10 3-10 5-11 5-12 2-13 2-12 2-14 4-10 5-6 2-2 1-2 0-2 0-1 0-2-1-1-2-1-1-1-2 0-2 0-2 1-2 2-1 1-1z"  fill="#ef476f" /><path d="M92-164l1-5 1-15 1-12-1-11-1-11-1-10-2-11-1-11-5-12-8-12-6-9-6-10-6-9-6-8-10-10-9-6-11-7-12-9-11-12-9-14-6-14-5-14-3-13-3-14-2-14 0-14 0-13 0-12-1-12-1-12 0-11 0-13-3-11-6-10-7-8-6-11-1-33 0 0 0 0 26 16 5 10 6 9 7 11 4 12 2 14 0 14 0 10 0 11 1 13 0 13 0 13 0 12 1 11 3 12 4 12 3 12 5 11 6 10 8 8 10 7 11 7 11 7 12 10 7 10 7 10 6 10 5 8 6 10 6 9 5 10 3 16 0 11 1 12 0 12-1 11-1 13-3 14-3 10-1 5-1 2-1 1-1 2-2 1-2 0-2 0-1 0-2-1-2-1-1-2-1-1 0-2 0-2z"  fill="#073b4c" /><path d="M92-161l-2-7-5-16-7-14-9-10-11-9-15-8-17-8-10-3-11-4-10-4-10-3-10-4-10-3-11-3-10-4-10-2-19-5-17-6-14-5-13-5-11-5-11-7-9-7-8-9-7-9-7-12-4-11-3-11-4-12-2-12-2-13-2-11-1-11-1-11-1-12 0-11 1-13 1-14 4-15 4-12 4-12 4-9 6-10 7-8 9-11 8-9 10-9 8-7 10-7 23 0 0 0 0 0-13 29-9 7-8 7-8 9-9 9-7 8-6 12-3 9-4 11-3 11-1 12 0 11 0 12 0 10 1 11 1 10 1 10 2 11 2 11 3 11 3 11 5 13 7 11 9 10 10 9 10 5 12 5 13 6 16 6 18 5 10 3 11 4 10 3 11 3 11 3 10 4 10 3 10 4 11 3 10 4 10 4 17 10 14 13 11 15 7 17 4 17 2 8 0 2 0 1-1 2-1 2-1 1-2 1-2 0-2 0-2 0-2-1-1-1-1-2-1-2z"  fill="#ffd166" /><path d="M97-155l-6-2-13-6-11-7-9-8-8-9-7-8-6-10-4-12 0-11 1-10 5-13 9-12 8-6 12-6 12-4 10-2 14-2 11-1 15-1 14-3 9-3 12-4 11-4 11-5 12-5 11-5 10-5 13-7 9-7 7-8 7-9 3-10 1-11 4-9 10-14 0 0 0 0 12 14 4 9-1 11-1 10-5 12-8 11-8 9-11 9-9 7-9 5-11 6-11 5-11 4-12 6-13 6-12 4-11 4-11 3-12 3-13 1-14 1-12 1-12 3-10 4-9 6-6 10 0 11 4 11 8 11 9 11 9 7 9 6 6 3 2 1 1 1 1 2 1 2 0 2 0 1-1 2-1 2-2 1-1 1-2 0-2 0-2 0z"  fill="#ffd166" /><path d="M100-155l-6 1-11 1-11 1-10 2-11 2-11 1-11 1-12 2-10 3-9 7-4 11-4 12-6 12-8 12-10 11-8 11-8 11-8 13-9 15-10 16-9 17-7 19-3 9-3 10-5 19-4 17-3 18-3 10-2 11-3 10-3 10-3 10-2 11-3 11-2 11-2 11-1 11-1 10-1 11 0 10 0 11 2 19 2 20 3 17 2 16 3 14 3 14 3 15 3 13 3 12 5 49 0 0 0 0-28-43-3-13-2-15-2-13-3-15-2-15-2-16-2-18-1-10-1-10-1-10-1-11 0-11 1-11 0-11 1-12 1-11 2-12 2-11 2-12 3-11 2-10 3-11 5-19 3-19 4-19 5-18 2-10 3-10 3-10 3-11 4-10 4-10 5-9 9-18 8-15 8-14 8-13 10-13 8-10 8-12 4-12 5-13 8-12 9-8 12-5 14-3 10-1 11 0 14 0 11-1 11-1 12 0 12 1 6 1 2 0 2 0 1 2 2 1 1 2 0 2 0 2-1 2-1 1-1 2-2 1-1 0-2 0z"  fill="#073b4c" /><path d="M107-158l-4 6-7 10-8 10-8 9-10 8-11 5-11 2-10 1-14-3-10-1-13 2-10 0-14 3-12 2-12 2-13 0-14-1-15-3-14-3-15-3-18-6-18-9-9-5-9-5-10-5-9-5-10-6-9-6-10-7-8-7-8-6-8-7-8-7-8-7-8-6-16-11-9-5-10-5-9-4-11-5-10-5-10-4-9-3-19-6-18-3-18-1-17-1-16-1-16-2-14-4-13-5-12-5-12-8-12-9-12-13-38-63 0 0 0 0 56 47 10 10 10 9 9 6 10 5 11 5 11 3 14 3 15 2 17 1 19 2 11 2 10 2 10 3 10 3 10 4 10 4 11 5 10 4 11 5 10 5 10 5 10 6 9 6 8 7 15 14 16 12 9 6 8 6 9 5 9 5 9 5 10 5 10 4 17 8 14 5 15 3 15 3 13 3 12 1 11 1 10-1 11-2 10-2 13-2 15-1 11 0 14 3 13 2 13-1 11-5 7-7 8-8 8-9 4-5 2-2 1-1 2 0 2 0 2 0 2 1 1 1 2 1 1 2 0 2 0 2-1 2-1 1z"  fill="#ef476f" /><path d="M102-170l6 1 12 1 11 0 12-2 10-2 10-4 9-6 6-8 5-9 2-10 0-10 1-12-4-11 0 0 0 0 10-5 11 2 10 6 3 12 1 12-2 10-3 10-3 10-6 9-8 8-7 7-11 7-12 3-11 2-14 1-10 0-12-2-13-3-7-2-1 0-2-1-1-2-1-2-1-1 0-2 1-2 0-2 2-1 1-2 2 0 2-1 2 1z"  fill="#073b4c" /><path d="M93-167l3-5 6-13 4-12 3-10-1-11-3-10-4-10-6-9-7-7-11-1-8-6-14-3 0 0 0 0 5-10 6-9 9-4 10 1 11 2 9 5 8 8 6 9 6 10 3 11 3 10 2 11-1 11-3 12-6 12-7 13-6 9-3 5-2 1-1 1-2 1-2 0-2 0-1 0-2-2-1-1-1-2-1-1 0-2 1-2 0-2z"  fill="#ffd166" /><path d="M108-165l2 8 4 14 4 15 2 14 3 13 2 12 3 12 3 13 2 13 2 13 0 12 1 11 1 11 0 12-1 13-1 14 0 16-3 18-4 17-6 17-4 16-4 15-4 16-6 15-8 15-9 12-10 11-10 10-11 9-13 7-14 5-13 4-12 3-11 3-9 4-11 4-11 4-12 3-11 3-10 3-12 4-13 4-15 4-11 2-11 3-26-8 0 0 0 0 23-21 12-3 12-2 12-3 12-4 10-2 10-3 11-3 10-2 10-4 11-4 12-4 12-3 12-3 11-3 11-4 9-4 9-7 9-8 9-10 8-10 6-11 5-13 4-14 4-17 4-16 5-15 3-17 2-14 0-16 1-14 1-12 0-11 0-11-1-11 0-11-1-12-1-12-3-13-2-12-2-13-1-13-2-14-2-14-2-14-2-7 0-2 0-2 1-2 1-2 1-1 2-1 2 0 2 0 2 0 1 1 2 1 1 2 1 2z"  fill="#ffd166" /><path d="M94-168l5-6 12-13 13-11 16-12 9-5 10-6 9-6 10-5 8-6 9-5 8-6 8-6 9-6 16-10 13-11 11-11 8-11 6-12 6-13 7-13 6-11 5-11 3-10 3-9 3-10 3-11 4-12 3-10 2-10 3-12 6-11 7-8 7-8 7-8 8-8 8-8 8-8 8-7 8-6 10-7 11-4 21 4 0 0 0 0-14 26-9 7-8 6-8 6-8 7-9 8-9 9-9 10-7 8-4 10-2 11-4 12-5 13-5 13-3 10-5 12-5 11-7 11-6 12-7 12-7 14-9 14-12 13-15 12-15 10-17 11-8 5-9 6-9 7-9 5-9 6-9 5-9 6-9 5-15 10-13 11-12 10-5 6-2 1-1 1-2 0-2 0-2 0-1-1-2-1-1-2 0-2-1-1 1-2 0-2 1-2z"  fill="#ffd166" /><path d="M105-169l4 3 12 5 12 5 10 3 11 1 10-1 7-8 2-10 1-11-1-11-3-10-11-2-9 5-8 9-10 7-8 7-8 6-27-2 0 0 0 0 8-25 8-7 9-6 9-7 8-8 11-6 12-4 12 0 12 3 11 7 7 8 5 14 2 12 1 11-2 12-3 11-4 11-8 9-10 8-11 2-11 1-11-2-12-4-12-6-12-8-9-6-4-3-1-1-1-2-1-2 0-2 0-1 1-2 1-2 2-1 1-1 2 0 2 0 2 0 1 1z"  fill="#ef476f" /><path d="M108-165l2 6 6 12 7 10 8 9 7 9 6 11 4 9 4 11 3 12 0 12-2 11 0 10-2 13-2 10-4 12-5 11 0 10 2 11 3 15 2 12-1 12-3 12-5 10-5 10-6 9-6 12-1 12 0 15 2 10 3 11 3 10 7 11 31 56 0 0 0 0-49-34-10-14-8-15-3-14-3-11-2-13-1-14 2-14 4-13 6-10 5-9 6-11 3-13 0-11-4-14-2-11-1-11 1-12 4-12 5-12 3-11 1-11 2-12 2-12-1-10-3-10-4-11-6-11-7-10-5-9-4-10-4-11-1-5 0-2 0-2 1-2 1-1 1-2 2-1 2 0 2 0 1 0 2 1 2 1 1 2 1 1z"  fill="#ef476f" /><path d="M107-158l-4 6-9 13-9 12-11 11-10 11-12 10-12 11-12 12-10 13-11 16-9 16-6 17-4 17-2 17-1 16 0 16 0 17 0 16-2 15-2 13-3 11-4 11-6 11-4 13-2 13-3 10-4 9-4 11-1 10 2 11-1 10-3 12-7 10-10 7-24-6 0 0 0 0 9-16 4-11-1-11-1-12 4-12 4-10 5-9 4-9 2-11 4-12 6-12 7-11 4-12 3-11 1-13 1-15 1-17 0-17 1-18 3-19 4-18 3-10 4-10 5-10 10-17 6-9 12-15 13-14 13-11 11-9 11-9 10-10 10-10 9-11 4-6 1-1 2-1 2-1 2-1 2 1 1 0 2 1 1 2 1 1 1 2 0 2 0 2-1 2z"  fill="#118ab2" /><path d="M93-160l-3-6-6-13-7-13-7-15-8-15-8-15-10-13-10-13-12-13-12-15-12-15-8-7-8-6-10-7-10-5-11-5-12-6-11-4-11-3-11-4-11-2-11-3-11-2-12-2-12-3-12-2-14-2-14-2-14-2-15-1-14-1-16-2-16-1-16-1-16 1-15 2-15 3-14 3-14 5-14 5-15 5-14 5-13 6-13 6-11 8-11 8-11 8-8 9-8 9-7 9-6 10-5 10-6 11-5 11-5 11-4 12-5 13-4 13-4 13-5 15-5 15-4 17-4 18-2 19-1 20-1 21 0 20 0 22-1 22-2 23-3 24-6 26-5 27-7 28-8 29-11 28-14 30-15 31-18 33-20 32-22 32-25 30-25 31-26 33-167 223 0 0 0 0 165-224 26-33 26-31 24-31 22-31 21-32 18-33 14-31 14-29 11-29 8-28 6-28 6-28 5-26 4-23 1-23 0-22 0-22-1-20 0-21 0-20 0-20 2-19 4-18 4-16 4-14 3-15 4-13 5-13 4-13 6-12 5-11 6-11 6-11 7-10 8-10 9-10 10-9 11-8 12-8 12-7 14-7 14-6 14-5 14-5 15-5 14-5 15-3 15-4 17-2 16-1 17 0 16 1 15 1 15 0 15 1 15 1 15 1 13 2 13 2 13 2 11 2 12 2 11 3 12 3 11 3 12 4 12 4 12 5 12 5 13 6 11 7 10 7 8 7 8 8 7 8 12 14 12 14 10 14 10 15 10 16 7 17 7 15 6 14 4 14 2 7 1 1 0 2-1 2 0 2-2 1-1 1-2 1-2 0-2 0-2 0-1-2-2-1 0-2z"  fill="#ef476f" /><path d="M92-161l-1-6-5-13-7-14-5-9-8-13-5-10-5-11-5-11-4-11-3-11-3-9-3-13-1-12 2-12 2-12 4-9 3-10 6-9 1-13 0 0 0 0 13 3 9 7 3 11-2 10-4 11-5 9-3 10-1 12 2 10 3 14 3 10 4 11 3 10 4 9 5 9 5 10 4 11 4 10 4 11 2 12 0 5 0 2-1 2 0 2-2 1-1 1-2 1-2 0-2 0-2 0-1-1-2-2 0-2-1-1z"  fill="#118ab2" /><path d="M100-171l7 0 15 1 15 2 16 3 15 5 15 5 15 5 15 6 14 5 15 5 14 3 15 2 16 3 15 3 16 3 14 4 13 2 12 3 10 4 13 5 12 6 11 8 8 7 6 9 8 12 5 14 4 13 2 12 0 15-3 10-5 12-6 13-4 14-3 11-2 10-2 13-3 14-7 15-10 14-12 12-13 9-15 8-58 11 0 0 0 0 46-35 12-6 11-8 7-7 7-10 4-11 3-11 2-12 2-13 2-12 4-11 3-12 6-13 5-11-1-12-2-9-3-10-5-10-6-9-9-9-9-5-10-5-13-6-10-3-13-3-13-4-15-3-16-3-15-3-16-2-16-4-16-5-15-6-14-6-14-5-15-6-13-5-14-3-14-3-13-3-7 0-2-1-2 0-1-2-2-1-1-2 0-2 0-2 1-2 1-1 1-2 1-1 2 0 2-1z"  fill="#ffd166" /><path d="M97-155l-6-3-11-3-10-4-11-4-10-2-11-3-11-2-12-2-12-1-12-2-11-1-10-1-10-2-10-3-13-6-10-7-9-8-7-10-4-12-1-10 1-12 3-10-1-12-2-12-4-11-7-9-10-8-8-6-9-7-9-7-10-5-22-27 0 0 0 0 35-2 11 6 10 7 10 8 8 6 10 8 10 9 8 11 5 9 3 10 2 11 0 12 1 11-3 12-2 11 3 10 9 8 11 7 11 3 13 3 11 2 12 1 13 2 13 3 12 3 11 4 11 4 11 4 11 6 10 5 6 3 1 1 2 2 0 1 1 2 0 2 0 2-1 2-1 1-2 1-2 1-2 0-2 0-1 0z"  fill="#ffd166" /><path d="M102-170l6 1 14 2 14 4 15 7 12 10 12 13 9 16 4 18 1 18-1 17 0 17 1 18 2 17 2 16 3 15 3 12 3 11 7 11 9 9 9 6 10 3 13 2 15 1 10 1 13-1 13-2 10-4 11-5 10-6 9-7 9-6 8-7 9-6 15-9 0 0 0 0 5 9 2 11-2 10-9 7-8 7-9 6-10 6-11 8-13 6-10 5-11 3-10 1-11 1-11 0-11 0-11-1-10-2-11-1-12-4-11-7-8-7-8-8-7-10-5-12-4-13-3-15-2-15-2-16-2-19-2-18 0-19 0-17 1-14-3-12-5-11-9-11-10-8-10-7-11-4-13-4-7-2-2 0-1-1-2-2-1-2 0-1 0-2 0-2 1-2 1-1 2-2 2 0 2-1 2 1z"  fill="#06d6a0" /><path d="M105-169l5 4 11 6 10 6 10 4 14 3 12 1 11-1 11 0 12-1 12-1 11-1 11-3 11-6 12-5 9-4 10-3 10-4 10-5 6-9 6-9 8-6 11 0 18 9 0 0 0 0-7 9-5 9-6 9-7 8-9 7-9 6-11 3-11 3-11 5-10 4-11 4-11 4-11 2-10 0-13 1-11 0-12 0-12-1-14-2-11-3-11-4-12-6-11-8-10-8-5-4-1-2-1-1-1-2 0-2 0-2 1-2 1-1 2-1 2-1 2-1 1 1 2 0 2 1z"  fill="#ffd166" /><path d="M92-163l0-6-2-11-1-11-2-11-2-10-3-13-3-10-3-10-7-13-10-11-8-9-9-9-7-8-10-10-10-9-14-7-10-5-11-6-11-6-11-5-11-5-11-4-12-2-13-2-16-4-16-5-18-7-19-6-19-3-10 0-11 1-11 2-12 2-13 3-13 3-12 5-13 6-11 7-13 9-13 11-13 12-14 14-15 16-16 17-16 17-17 18-18 18-17 20-18 20-16 22-13 24-11 24-8 25-6 24-6 25-6 24-7 23-8 22-8 22-7 20-43 136 1 0-1 0 41-136 7-21 8-21 8-22 7-24 6-24 6-24 6-25 8-24 11-25 13-24 16-22 18-21 17-20 17-18 17-19 15-17 15-18 14-17 13-16 12-14 13-13 13-10 12-9 14-7 13-6 14-5 13-3 12-4 13-3 13-1 12-1 12 0 12 2 10 3 10 3 17 6 15 4 13 2 15 2 15 4 13 4 13 5 11 6 11 6 11 5 11 6 10 5 12 8 8 8 7 7 7 8 7 8 9 9 9 10 8 12 6 12 4 12 2 10 2 10 2 11 1 11 1 11 0 12 0 12-1 7 0 2-1 1-1 2-2 1-1 1-2 0-2 0-2 0-2-1-1-1-1-2-1-2 0-2z"  fill="#ef476f" /><path d="M94-158l-4-4-9-8-10-6-13-7-16-6-16-4-17-2-16 1-16 3-16 6-15 7-17 9-9 5-10 3-10 4-18 5-16 6-16 7-16 7-15 7-13 7-14 9-14 8-13 8-12 8-13 9-14 8-14 7-13 8-12 9-12 13-7 7-9 8-9 7-10 7-10 5-12 5-11 3-10 1-11 0-10-2-10-3-9-5-8-5-9-6-8-7-8-7-9-8-10-7-9-8-10-8-10-8-11-10-10-9-11-10-11-10-11-10-11-9-10-10-9-10-9-11-8-11-8-12-6-12-5-12-4-12-4-13-7-78 0 0 0 0 22 75 2 11 4 12 5 11 5 11 7 11 7 10 9 10 9 10 10 10 10 9 11 9 11 10 12 9 11 9 10 8 11 8 11 7 9 8 10 7 9 7 17 13 14 10 13 6 14 2 17-3 17-8 9-6 7-7 8-7 13-15 14-13 15-11 14-7 13-7 13-8 12-8 14-9 14-8 14-7 14-9 15-8 16-7 17-7 17-6 18-6 17-5 17-7 17-9 8-5 10-5 18-5 19-4 10-1 10 0 20 3 18 5 18 7 15 8 12 10 9 11 3 5 1 1 1 2 0 2 0 2-1 2-1 1-2 1-2 1-2 0-1 0-2 0-2-1-1-2z"  fill="#073b4c" /><path d="M93-159l-4-5-6-12-7-12-6-12-7-11-6-10-7-9-6-10-6-8-7-13-6-13-5-12-4-11-6-12-8-8-9-7-10-6-11-7-9-6-11-2-12 1-11 2-12 2-12 2-13 2-12 4-12 4-12 5-12 5-14 5-16 3-15 1-15 1-14-1-14-1-13-2-12 1-15 2-17 2-59-2 0 0 0 0 56-23 16-2 16-3 17-1 14 2 13 1 12 1 13-1 13-1 12-2 12-4 11-5 13-6 13-5 15-5 13-3 13-3 12-2 13-2 11-2 12 1 11 3 13 7 11 7 10 6 11 8 10 9 8 11 6 12 5 13 3 11 4 11 5 11 7 13 6 9 6 10 6 11 7 13 5 13 5 12 5 12 3 6 1 1 0 2 0 2-1 2-1 2-1 1-2 1-2 1-2 0-2-1-2-1-1-1-1-2z"  fill="#06d6a0" /><path d="M93-167l3-5 6-10 5-8 5-13 4-9 5-9 5-9 8-13 8-12 5-9 5-13 4-14 6-14 3-12 4-11 4-10 5-12 6-9 0-10-6-10-6-10-5-11-2-9-1-10 0-12 3-11 4-10 7-8 15-12 0 0 0 0 6 14 4 11-3 9-4 10 0 12 3 12 5 9 7 10 5 12 0 14-5 12-6 10-5 9-4 10-4 11-5 12-5 12-4 10-4 10-4 11-6 10-6 9-6 9-8 11-8 11-7 12-5 10-7 9-7 9-3 4-2 1-1 2-2 0-2 0-2 0-2 0-1-2-2-1 0-2-1-2 0-1 1-2 0-2z"  fill="#ef476f" /><path d="M105-157l-3 4-7 8-7 10-4 10-3 10-3 12-4 9-8 10-11 8-13 5-13 4-13 1-11 2-14 4-11 1-11 0-11-2-11-4-9-5-10-4-11-3-12-1-13 1-14 3-12 6-11 7-9 8-9 9-7 10-9 8-20 7 0 0 0 0 0-27 7-9 7-10 9-8 10-8 8-6 10-7 12-6 12-4 12-2 12-1 12 0 11 1 10 3 10 3 13 7 12 4 10 1 11-2 10-2 10-3 12 0 12-3 11-3 8-7 5-11 3-10 7-12 6-8 8-9 10-8 4-2 2-1 2-1 1 0 2 0 2 1 1 1 1 2 1 1 1 2-1 2 0 2-1 1-1 1z"  fill="#118ab2" /><path d="M107-166l2 5 7 11 5 10 5 12 1 11 2 12 1 13 1 12-2 11-4 11-6 11-7 8-8 9-8 6-9 6-10 2-11 2-11 1-10 1-11-1-10-7-8-17 0 0 0 0 13-4 9-5 11 1 11-1 11 0 10-4 7-7 8-8 5-9 3-11 0-12 0-12 0-12-2-11-3-11-4-12-2-4-1-2 0-2 1-2 0-1 2-2 1-1 2-1 2 0 1 0 2 1 2 0 1 2 1 1z"  fill="#073b4c" /><path d="M108-161l0 6-1 12-1 13-2 13-3 12-5 11-6 10-7 10-11 9-12 7-14 4-13 3-13 2-15 1-14 0-11-1-15 0-13 0-12-1-10-1-11-4-12-5-9-6-9-6-12-7-9-6-10-5-9-6-11-7-9-6-10-5-12-7-11-4-12-3-14-3-33-20 0 0 0 0 33-11 11 2 11 2 10 2 14 5 12 6 11 6 9 5 9 6 11 7 9 6 10 6 11 7 10 6 10 8 10 6 10 3 12 2 11 1 14 1 12 0 11 1 12 0 12-1 13-2 14-4 12-7 9-9 8-12 6-13 3-10 2-12 2-13 1-7 1-2 0-1 2-2 1-1 2 0 2-1 2 1 2 0 1 1 2 2 1 2 0 2 0 2z"  fill="#06d6a0" /><path d="M108-161l-1 7-2 15-1 14-1 14-1 15-1 14-1 15-1 13 0 13 0 12 0 11 0 10-1 14 0 13-1 12-2 12-4 10-5 10-6 9-5 8-8 7-6 8-9 4-9 10 0 0 0 0-3-5-6-8-2-11 4-11 7-7 8-7 6-8 7-9 5-10 2-11 1-13 1-13 1-15 1-11 0-12 1-13 1-14 1-15 2-15 2-13 2-16 3-15 3-14 2-7 1-2 1-1 1-2 2-1 2 0 2-1 1 1 2 1 2 1 1 1 1 2 0 2 0 2z"  fill="#073b4c" /><path d="M93-167l4-5 7-10 8-9 8-7 11-9 12-8 9-6 8-5 10-9 8-9 13-9 10-5 14-6 10-3 13-5 14-4 12-5 13-6 13-7 9-9 9-9 7-10 5-10 3-12-3-11-6-8-9-8-10-6-10-6-9-8-4-11 1-13 0 0 0 0 12 3 11 0 9 7 9 5 9 6 9 9 10 11 5 10 2 11 1 12-3 14-6 12-7 14-10 13-11 11-12 10-12 7-14 6-14 5-13 4-10 4-13 4-13 5-12 6-9 8-10 8-10 7-10 6-10 5-11 5-11 8-11 9-8 7-3 5-2 2-1 1-2 0-2 1-2-1-2 0-1-1-2-2 0-2-1-2 0-1 1-2 0-2z"  fill="#ffd166" /><path d="M92-164l1-5 0-11 2-13 1-11 1-10 0-11 1-12 0-10-1-11 0-11 1-12 0-11-2-12 0-11 1-11 1-10-2-13-2-11-3-12-4-11-6-10-9-6-12-2-14-4-10-4-10-6-9-7-12-31 0 0 0 0 34 10 9 6 12 4 10 3 13 3 10 5 9 7 8 9 5 10 4 10 4 14 3 13 3 14 0 13-1 11-1 11 1 10 0 11-1 12-1 12-1 12 0 10-1 11-2 12-2 11-3 10-3 10-3 12-2 10-1 6-1 1-1 2-1 1-2 2-1 0-2 0-2 0-2-1-1-1-2-1 0-2-1-2 0-2z"  fill="#073b4c" /><path d="M92-164l2-8 3-15 4-15 6-16 6-16 6-16 6-16 5-17 4-17 4-17 3-16 1-17 2-16 2-14 1-14 3-13 1-12 3-13 3-11 2-10 2-12-2-13-3-11-5-9-10-6-9-3-10-1-9 7-24 8 0 0 0 0-2-28 9-8 9-6 11-4 10-1 12 2 11 5 10 4 10 7 8 11 5 10 3 10 2 13 0 10-1 11-2 10-3 11-3 10-3 11-2 12-2 13-3 13-2 14-2 15-2 18-3 18-4 17-4 18-6 17-6 18-6 16-7 16-6 15-6 13-4 14-2 7-1 2-1 2-1 1-2 1-2 0-2 0-2 0-1-1-2-1-1-2-1-2 0-2 0-1z"  fill="#118ab2" /><path d="M99-170l5-2 12-3 14-3 16-4 15-7 16-7 15-10 17-10 8-5 10-4 10-4 19-6 16-7 16-8 14-9 12-11 11-11 11-12 9-12 9-11 10-11 10-10 10-10 10-9 8-11 6-11 4-12 3-14 1-13-1-13-4-12-6-10-8-8-11-9-11-10-11-12-10-12-10-11-9-10-8-9-9-9-9-9-9-7-11-6-12-6-12-4-11-3-14 0-40-3 1 0-1 0 32-22 13-1 15 1 14 4 14 5 13 7 13 7 13 9 10 11 8 9 9 10 9 10 9 11 10 12 10 10 11 9 11 11 11 12 9 14 5 17 1 17-1 18-3 16-6 17-9 14-10 12-10 11-11 9-10 9-9 10-9 10-10 12-11 13-13 12-14 12-16 10-18 9-17 7-19 7-17 7-15 9-17 10-8 5-18 9-18 6-17 5-15 1-12 2-6 0-2 0-2 0-1-1-2-1-1-2-1-1 0-2 0-2 1-2 1-2 1-1 2-1 2 0z"  fill="#ef476f" /><path d="M100-155l-8 1-20 0-19-1-19 0-18 3-20 3-10 2-19 5-11 2-11 2-11 1-11 0-12 0-11 0-13-1-13-1-13-2-13-2-13-3-13-4-13-4-13-6-12-6-11-6-12-6-11-6-11-6-11-6-11-6-10-7-10-7-9-9-8-9-8-9-8-8-8-9-8-10-9-9-8-9-9-9-9-8-9-8-9-7-9-6-9-6-16-9-15-6-14-3-12-2-13-2-11-1-11 0-11-2-15 0-11-1-14-1-11-2-12-1-11-2-12-4-7-9-5-16 0 0 0 0 20-1 11 2 11 3 12 2 12 2 13 2 10 1 12 2 10 1 11 2 13 2 12 3 14 3 15 5 17 8 9 5 9 5 9 7 9 7 9 7 10 9 9 8 9 9 9 9 9 10 8 9 8 9 8 9 8 8 7 9 8 7 8 7 10 7 11 6 11 6 10 6 11 6 12 6 11 6 11 5 12 5 12 4 12 3 13 2 12 2 12 2 13 0 12 0 11 0 21 0 20-3 10-2 10-3 10-2 11-2 10-2 10-1 11-2 10 0 10 0 10 0 19 2 18 1 9 0 1 0 2 0 2 1 1 2 1 1 1 2 0 2-1 2 0 1-2 2-1 1-2 1-2 0z"  fill="#118ab2" /><path d="M104-169l5 2 13 6 11 5 9 4 11 4 11 0 10-6 7-8 10-9 10-7 13-5 11-2 14 1 10 1 11 1 12 0 11 1 14 3 10 1 11 0 11-1 9-4 10-6 10-7 8-7 29-4 0 0 0 0-4 23-9 8-9 8-9 6-10 5-10 5-13 4-13 1-13-1-10-1-14-2-11-1-12-1-11-1-12-1-12-1-10 4-8 6-7 7-10 8-10 5-10 2-10 1-13-3-12-6-10-7-10-6-13-9-4-3-1-1-2-1 0-2-1-2 0-2 1-2 1-1 1-1 2-1 2-1 1 0 2 0 2 1z"  fill="#073b4c" /><path d="M101-170l7 1 15 0 17 1 19 1 11 2 11 1 10 1 11 1 11 1 12 1 13 1 12 0 13 0 13 0 12 0 13 0 12 0 12 1 13 0 12 0 13-1 13-1 13-1 14-1 14-1 13-1 14-1 13 0 13-2 11-1 12-2 12-1 11-1 12-2 12-1 12 0 11-1 12 0 11 0 12 0 11-1 10-1 10-1 20-2 18-4 17-5 16-6 16-5 14-6 13-5 11-6 10-7 9-11 8-12 7-14 5-9 7-13 5-12 5-13 4-12 2-11 2-12 1-13 2-16 20-51 0 0 0 0 6 62-1 15-2 14-2 12-2 12-4 10-6 14-4 9-5 9-5 9-5 9-6 9-6 9-7 10-9 10-12 8-13 8-14 6-14 5-16 5-15 5-18 5-10 3-10 1-20 3-10 1-11 1-11 0-11 0-12 1-11 0-11 0-11 0-12 0-11 1-12 1-12 1-11 1-12 1-12 2-13 1-13 0-13 1-14 2-14 1-14 1-13 1-13 2-14 1-13 0-12 0-12 0-12 0-13 0-12 0-13 0-13 1-13 0-13 0-12-1-12-1-11-1-10-1-11-1-10-1-19-2-18-2-16-2-6-2-2 0-2-1-1-2-1-1-1-2 0-2 1-2 0-1 2-2 1-1 2-1 1 0 2 0z"  fill="#06d6a0" /><path d="M106-168l6 6 12 10 13 10 13 10 12 9 11 8 12 7 12 7 11 6 12 4 13 3 12 2 13 1 14 0 13 1 14 0 14-1 15-2 18-3 19-4 10-2 10-1 11-2 11-2 11-2 11-1 11-2 10-2 11-2 10-3 11-2 11-1 10-1 19-1 16 0 13-2 13-2 12-2 12-2 11-1 14-1 14-3 12 0 12-1 10 0 14-1 12-1 12-1 11-2 10-1 29 10 0 0 0 0-21 18-12 2-10 1-12 1-13 0-15 1-10 0-10 0-16 0-10 1-15 1-15 1-11 1-12 1-13 2-16 1-16-1-17 0-19 2-10 2-11 2-11 3-11 3-11 2-11 2-10 1-11 3-10 2-11 2-19 5-10 2-18 4-17 2-16 2-14 0-15-1-13-1-14-1-16-2-15-4-14-6-14-8-11-7-12-9-12-9-12-10-12-10-13-11-13-13-5-6-1-2-1-1 0-2 0-2 1-2 1-2 1-1 2-1 2 0 2 0 2 0 2 1 1 1z"  fill="#073b4c" /><path d="M104-169l7 4 16 7 16 6 18 3 17-1 17-3 15-7 13-10 12-12 12-14 10-14 9-16 10-16 5-9 7-9 5-8 6-9 5-9 10-16 10-15 10-13 10-11 11-9 13-7 14-6 14-4 14-4 13-4 13-4 11-4 12-7 11-7 10-7 9-8 8-8 8-7 8-10 5-9 5-10 4-11 4-13 3-15 3-13 27-34 0 0 0 0-1 46-1 11-2 12-3 11-3 10-6 11-5 12-8 11-8 9-8 8-9 7-10 9-12 8-12 7-10 6-10 4-12 4-13 5-14 4-14 4-14 3-11 4-10 4-9 7-9 9-9 11-9 14-11 16-5 9-6 9-5 9-6 8-10 17-10 16-10 16-13 16-13 14-8 7-8 7-8 5-10 5-9 3-10 2-11 2-10 0-11 0-11-2-10-3-18-7-16-9-7-5-1-1-2-1 0-2-1-2 0-2 1-1 1-2 1-1 2-1 1-1 2 0 2 0 2 1z"  fill="#06d6a0" /><path d="M106-157l-4 5-11 11-13 9-11 8-11 7-13 8-14 8-14 7-13 8-14 9-14 11-14 11-13 14-6 8-7 9-7 9-7 9-5 10-4 10-4 10-3 9-2 10-1 11 0 11 0 10 0 12 1 11 1 11 3 11 3 11 5 10 5 10 6 10 6 9 7 9 8 8 7 8 16 11 9 6 9 5 10 4 9 4 10 3 11 3 12 3 12 3 12 2 14 2 14 1 14 1 13 0 14 0 14 0 13-1 13 0 13 0 12 1 11 0 10 0 20 1 17 1 16 1 16 2 18 2 18 5 18 7 17 11 7 7 13 15 12 15 7 9 36 60 0 0 0 0-53-47-6-8-7-8-12-15-10-11-13-9-15-6-16-4-17-3-15-3-16-2-17-2-19-2-10-1-11-1-12 0-12-1-13 0-13 0-14 1-14 0-14 0-14 0-15 0-14-1-14-2-13-3-12-3-11-3-12-3-10-5-11-5-10-5-8-6-10-7-9-7-8-8-8-10-7-9-7-10-7-11-6-11-5-12-4-12-3-12-2-13-1-12 0-12-1-11 1-12 1-12 2-12 4-11 4-11 4-11 6-11 6-11 7-10 7-9 7-10 7-8 8-7 14-13 15-12 15-9 15-9 14-7 13-7 12-7 12-7 12-7 11-6 10-8 5-5 1-1 2-1 2 0 2 0 2 0 1 1 2 1 1 2 1 2 0 1 0 2-1 2-1 2z"  fill="#118ab2" /><path d="M93-158l-4-6-10-11-11-12-12-13-11-15-10-15-12-16-7-8-6-8-7-8-6-8-13-13-15-12-14-11-14-8-12-6-13-5-13-6-12-5-10-3-10-4-14-4-12-5-12-5-10-4-12-4-12-2-11-1-11 0-10 3-10 4-10-4-12 1 0 0 0 0 0-6 3-10 7-9 10-4 11-3 10-2 11 0 10 1 11 2 10 3 12 4 11 5 11 5 11 5 12 5 9 4 11 5 11 5 12 5 13 6 14 7 14 9 15 10 16 12 7 7 8 7 7 8 7 8 6 8 7 8 7 9 7 8 6 8 10 16 9 13 11 13 11 13 10 14 4 6 1 2 0 2 0 2-1 1 0 2-2 2-1 1-2 0-2 1-2-1-2 0-1-2-2-1z"  fill="#ef476f" /><path d="M95-169l5-4 7-8 6-8 6-10 7-12 9-13 9-12 9-12 9-11 9-11 8-9 7-9 9-9 11-9 11-7 13-7 11-6 13-7 13-6 13-6 14-6 15-4 14-3 13-3 12-2 11-4 13-4 13-5 13-4 14-4 14-3 13-3 13-3 14-4 14-5 15-4 13-5 12-7 12-8 8-9 6-12 2-13 0-12-1-12-2-11-6-12-11-37 0 0 0 0 36 29 6 13 3 15 1 15 0 15-2 13-5 14-9 12-11 11-14 10-15 9-16 6-14 5-15 4-15 5-13 3-13 3-14 3-12 4-13 4-13 4-13 4-13 5-13 2-13 3-12 2-13 4-12 5-13 6-12 6-12 7-13 6-10 6-10 6-8 6-8 7-8 9-8 9-9 10-9 10-9 12-9 12-9 11-7 11-8 11-9 10-10 8-5 3-2 1-2 0-2 0-2 0-1-1-2-1-1-1-1-2 0-2 0-2 1-2 1-2 1-1z"  fill="#073b4c" /><path d="M97-170l6-3 12-4 12-4 11-5 14-4 13-4 14-4 14-4 12-4 12-6 12-8 14-9 16-9 16-8 18-9 10-4 9-3 19-5 19-4 18-2 18-2 17-5 19-6 9-2 20-4 10-2 11-1 11-2 11-1 10 0 11-1 10 0 20-1 18-1 17 1 17 1 14 2 13 3 14 4 12 5 11 5 11 5 9 4 13 5 11 5 11 6 10 7 4 9 3 17 0 0 0 0-17-2-10-3-9-7-10-6-12-6-10-4-9-5-10-6-11-5-11-4-11-3-13-3-13-3-16-1-17 0-18 0-20 1-10 1-11 1-10 0-10 2-11 2-18 3-18 5-19 6-9 2-10 3-20 3-17 2-16 3-17 4-17 8-17 9-16 8-14 8-13 9-14 9-16 7-14 5-14 3-14 4-13 3-13 3-13 4-12 3-11 2-6 2-2 1-2 0-2-1-2-1-1-1-1-2-1-2 0-1 0-2 1-2 1-2 1-1 2-1z"  fill="#ffd166" /><path d="M94-167l2-4 5-11 6-11 5-9 7-11 5-9-5-10-7-8-7-11-5-12-2-10-2-10-2-10-1-12 2-12 3-10 8-8 4-11 0 0 0 0 14 10 5 10-1 11-3 11 1 11 2 11 1 11 4 10 6 9 7 10 5 12-1 11-6 12-6 8-8 10-7 9-6 9-8 9-3 4-1 1-1 1-2 1-2 0-2 0-1-1-2-1-1-1-1-2-1-1 0-2 1-2 1-2z"  fill="#06d6a0" /><path d="M93-158l-4-5-7-9-9-8-9-6-10-4-10-4-11-4-14-5-12-4-13-2-13-2-10 0-11 0-12 1-13 2-11 3-9 5-8 6-7 8-6 9-6 14-3 10-3 12-2 11-1 12-1 13-2 13-2 13-2 12-2 12-2 12-2 13-3 14-4 14-4 14-3 14-2 12-2 13 0 11 0 12 1 10 1 11 2 13 1 12-11 24 0 0 0 0-16-21-1-12-2-14 0-11-1-12 0-13 1-13 1-14 3-14 3-14 3-15 4-13 3-13 2-12 1-12 2-13 3-12 2-12 1-12 1-12 2-14 2-13 3-13 4-12 5-13 7-13 10-11 11-10 13-7 14-6 15-3 13-2 15-1 12 0 11 1 11 2 10 2 14 5 9 4 10 5 9 4 11 5 12 7 11 8 10 11 8 12 3 5 1 2 0 2 0 2-1 2-1 2-1 1-2 1-2 1-2 0-2-1-1-1-2-1-1-1z"  fill="#ffd166" /><path d="M105-157l-5 5-9 11-11 11-15 12-15 10-16 8-15 10-16 12-15 11-14 12-14 12-16 11-16 9-14 7-14 6-11 6-11 6-10 6-10 5-12 6-11 5-9 7-7 8-5 9-5 10-5 10-6 10-3 11-2 11 2 10 7 10 6 10 6 11-2 43 0-1 0 1-30-38-8-11-6-9-4-9-2-13 0-10 2-12 3-10 5-9 6-10 6-9 5-10 7-12 7-8 10-8 10-5 12-6 13-5 14-6 10-5 12-6 14-6 13-6 14-7 15-9 13-10 15-12 15-12 16-12 8-6 17-11 16-8 13-8 13-10 12-10 11-10 6-4 1-2 2 0 2 0 2 0 2 1 1 1 2 1 1 2 0 2 0 2-1 1 0 2-2 2z"  fill="#06d6a0" /><path d="M105-156l-4 4-8 7-8 8-9 7-8 7-11 10-9 10-9 12-8 10-8 8-9 9-8 7-7 8-9 12-7 8-7 8-9 10-8 10-7 9-7 8-9 10-10 9-9 7-7 9-5 9-6 8-3 11-1 11 1 11 5 10 8 7 12 1 20 13-1 1 1 0-28 17-12-3-10-4-8-6-8-9-6-11-3-10-2-15 0-10 2-11 3-11 6-11 6-9 6-9 9-10 12-9 9-8 7-8 9-10 8-9 9-11 9-9 10-11 6-9 9-9 8-8 9-8 7-7 7-7 7-9 7-8 9-8 8-7 8-6 9-6 9-7 9-6 9-6 5-4 1-1 2 0 2-1 2 1 2 0 1 2 2 1 0 2 1 2 0 2-1 1-1 2-1 2z"  fill="#118ab2" /><path d="M98-170l7-3 14-5 16-6 16-6 18-8 10-5 11-4 11-4 12-3 13-2 13-2 14-1 14 0 15 0 15 0 15 0 14-1 15-1 14-1 15-1 16 0 15 1 16 2 16 2 16 1 17 3 17 3 15 5 15 5 13 6 13 8 12 8 11 9 10 9 10 10 9 11 9 10 7 11 8 10 7 10 7 9 7 9 7 9 6 9 8 8 7 8 7 7 8 7 8 7 8 7 9 6 8 7 8 6 8 7 8 8 7 7 11 15 10 14 8 13 7 11 9 10 8 9 8 7 8 7 8 6 11 8 12 7 9 5 10 7 10 9 7 10 6 11-5 34 0 0 0 0-21-27-7-9-10-9-8-5-10-6-11-9-10-6-7-8-9-7-9-10-8-10-9-12-8-13-7-13-8-13-9-13-13-14-7-7-8-6-8-7-8-7-9-7-9-7-8-8-8-8-7-9-7-9-7-9-6-9-7-9-7-10-6-10-7-10-7-11-8-10-9-10-9-10-10-9-10-9-10-8-12-7-13-7-13-5-15-4-16-3-17-2-16-2-16-1-16-1-14-1-15 0-15 2-14 1-15 1-15 1-15 1-14 1-15 1-14 1-13 2-12 2-11 2-11 3-10 3-10 5-10 4-9 5-10 4-17 7-17 4-15 4-7 2-2 0-2 0-1 0-2-1-1-2-1-1-1-2 0-2 1-2 0-2 1-1 2-1 2-1z"  fill="#ffd166" /><path d="M96-156l-6-3-11-8-11-8-9-7-9-5-12-4-13-1-14-2-14-2-12-2-13 0-12 0-12 0-12 0-10 0-11-2-10-3-11-6-9-7-6-9 2-10-15-2 0 0 0 0 3-9 4-9 11-5 10 3 8 7 5 10 7 7 11 5 10 1 10 0 12 0 10 0 10 1 13 2 13 2 12 3 13 2 10 2 12 3 11 6 11 7 10 9 9 9 8 8 5 4 2 1 1 1 1 2 0 2 0 2-1 2-1 2-1 1-2 1-2 1-2 0-2-1-1-1z"  fill="#ffd166" /></svg>