<svg width="1200" height="675" viewBox="-500 -500 1200 675" xmlns="http://www.w3.org/2000/svg"><path d="M-500-500h1200v675h-1200z" fill="#000"/><path d="M106-168l4 4 9 7 10 8 8 6 9 5 14 4 10 4 10 4 14 6 12 7 10 8 8 10 7 13 5 12 4 13 3 11 0 13 0 12 0 12-1 12 0 11-1 11-2 11-2 11-4 13-2 11-3 12-3 13-4 9-7 11-6 10-4 11 0 11 2 10 4 10 6 9 7 27 0 0 0 0-30-7-6-8-5-10-5-14-3-14 0-10 1-11 5-14 7-12 5-10 6-11 3-10 2-12 4-13 3-13 2-12 1-10 1-11 0-12 0-12 0-14-1-13-4-12-5-13-5-9-8-8-10-6-11-7-13-6-10-4-11-5-11-7-10-9-8-8-9-9-4-5-1-1-1-2 0-2 0-2 1-2 1-1 1-2 2-1 2 0 2 0 1 0 2 1 2 1z"  fill="#fff500" /><path d="M107-167l4 5 7 9 7 8 8 9 7 7 8 7 9 9 9 8 9 9 9 9 9 8 10 8 11 9 11 11 8 12 6 11 5 10 5 10 5 10 4 11 3 11 2 12 1 11 2 11 2 11 1 10 1 14 2 12 1 13 0 13-2 14-3 12-4 13-8 12-10 8-10 5-12 4-10 2-11 5-37 6 0 0 0 0 14-29 13-7 9-4 15-3 10-4 8-6 5-10 3-10 1-12 0-11-1-12-1-13-1-13-1-11-2-11-2-11-2-15-3-13-6-14-4-9-5-10-5-10-6-9-8-8-9-8-12-9-10-10-8-9-9-9-8-9-9-8-9-9-7-9-6-9-7-10-7-11-3-5-1-2 0-2 0-2 1-2 0-1 2-2 1-1 2 0 2-1 2 1 2 0 1 2 2 1z"  fill="#005bbb" /><path d="M107-159l-3 6-5 11-5 9-6 13-4 13-4 12-1 11-1 14-1 10-2 11-5 11-5 10-5 12-2 11 0 12 3 13 5 13 3 10 5 14 5 10 5 9 7 9 9 12 10 12 12 12 16 12 10 5 12 5 13 6 14 6 15 8 15 7 16 8 18 8 20 7 21 4 21 4 24 3 24 3 26 3 28 4 29 2 29 2 28 1 28 0 26-2 27-3 26-3 28-3 29-4 29-7 29-8 27-10 27-11 26-12 25-13 25-14 23-14 143-94 0 0 0 0-142 96-23 14-25 13-25 14-26 12-27 11-28 10-29 8-29 6-29 5-27 3-27 3-26 3-27 2-28 0-28-1-30-1-28-3-28-3-26-3-25-2-23-3-22-2-22-4-21-5-19-6-17-6-16-5-15-6-15-5-14-4-14-4-12-6-11-6-10-6-8-7-14-14-8-11-10-11-9-12-5-11-6-12-3-10-5-14-3-11-3-11-2-14 1-11 2-12 4-11 7-13 6-11 3-13 2-13 2-14 3-10 3-10 5-9 4-9 6-9 6-9 7-9 3-5 1-2 2-1 1-1 2 0 2 0 2 0 2 1 1 1 1 2 1 2 0 2 0 2-1 1z"  fill="#fff500" /><path d="M104-170l5 3 11 5 10 4 11 4 9 3 10 3 14 3 11 1 11-3 10-5 7-7 8-7 9-6 10-7 8-9 6-9 7-8 8-9 9-8 10-4 10-3 11-2 10 0 12-1 12 1 13 1 12 2 12 3 32 25 0 0 0 0-44 2-10-1-10-1-11 0-10 0-15 1-11 3-11 6-7 8-6 8-7 8-7 8-11 7-8 5-11 7-8 7-10 6-10 5-13 2-14-1-14-3-10-3-11-4-11-4-10-6-11-6-10-6-5-3-1-1-2-2-1-2 0-2 0-1 0-2 1-2 2-1 1-2 2 0 2 0 2 0 2 0z"  fill="#005bbb" /><path d="M108-162l0 7 2 14 2 14 3 15 3 14 5 15 6 15 8 13 12 12 12 15 6 7 12 17 5 9 4 10 3 10 1 11 1 11 1 11-1 11-1 11 0 10-1 19 0 19 0 18 0 17 1 19 0 11-1 12 0 12 1 12 1 12 2 13 3 13 3 14 3 14 2 14 1 16 1 17 1 17 1 16 3 16 2 17 4 17 4 17 3 17 2 19 1 19 0 20 0 21 0 23-1 25-3 27-5 29-6 29-9 29-11 30-13 30-13 31-14 30-13 31-11 31-10 33-8 34-5 34-2 34 2 33 5 31 8 30 10 27 12 25 14 24 14 23 14 23 15 22 15 23 14 21 15 21 14 21 13 20 84 131 0-1 0 1-85-130-13-20-15-21-15-21-14-21-15-22-14-23-15-23-14-23-13-24-13-25-10-28-8-29-5-32-2-33 2-34 5-35 8-34 10-33 11-31 13-31 14-30 13-31 13-30 11-29 9-30 6-29 4-28 3-27 0-25 0-23-1-21-2-20-1-19-3-17-3-18-5-16-4-17-3-17-3-17-2-17-2-16-2-16-2-15-3-14-3-13-4-14-4-14-3-14-2-13-1-13-1-12 0-11 0-11-1-10 0-19 0-17 1-19 0-19 1-10 0-10 1-10 0-20-3-18-5-16-9-15-11-14-12-14-14-15-10-17-7-16-4-17-4-16-1-15-2-15 0-17 1-7 0-2 1-2 1-1 2-1 2-1 1 0 2 0 2 0 2 1 1 2 1 1 1 2 0 2z"  fill="#fff500" /><path d="M95-156l-5-3-10-7-10-6-12-5-12 0-10 1-10 5-1 11 4 11 5 11 7 12 5 11 5 9 6 8 9 5 12 1 11-3 7-6 9-9 7-8 5-8 2-11 18-28 0 0 0 0 14 32-2 13-4 10-6 9-7 9-7 7-8 9-10 7-11 5-13 3-12 0-12-2-13-6-10-8-9-11-6-11-6-12-5-10-5-11-4-11-3-12-1-12 1-10 9-12 12-8 14-3 14 0 11 1 12 4 11 6 10 8 9 8 5 4 1 1 1 2 1 2 0 1 0 2-1 2-1 2-1 1-2 1-2 0-2 0-2 0-2-1z"  fill="#005bbb" /><path d="M105-156l-6 5-11 9-12 9-11 9-10 8-8 7-9 9-6 9-6 9-5 10-5 9-2 10 2 12 3 11 4 11 3 11 6 10 8 7 11 4 10 2 8 7 10 15 0 0 0 0-17 8-11 1-12-2-12-5-10-7-9-9-6-10-5-11-5-11-2-10-4-11-1-12-1-11 1-10 5-11 6-9 6-10 7-8 6-9 9-9 9-7 9-7 11-8 12-8 12-8 12-8 6-4 2-1 2-1 2 0 2 1 1 1 2 1 1 2 1 1 0 2 0 2-1 2-1 2-1 1z"  fill="#c2e1ff" /><path d="M95-157l-5-3-10-8-10-5-11-5-11-3-10-4-12-4-12-6-11-6-11-6-10-5-14-5-12-3-12-1-11 2-12 3-10 4-10 4-7 8-1 11-5 10-8 14 0 0 0 0-17-14-3-11 2-11 2-11 5-10 8-7 9-5 9-5 10-3 10-3 13-2 12-1 13 0 14 3 10 3 11 4 10 6 12 6 10 6 11 5 10 5 10 4 9 4 13 6 11 7 11 9 7 8 3 4 2 1 0 2 1 2 0 2-1 2-1 1-1 2-2 1-2 0-2 0-1 0-2-1-2-1z"  fill="#fff500" /><path d="M96-156l-5-2-10-3-12-3-13 2-10 2-13 4-11 3-12 4-12 3-13 4-13 1-13 1-13-1-11-1-12-3-9-2-10-2-12-2-11-1-11 6-10 6-12 7-11 5-10 3-10 5-10 5-10 7-8 7-9 7-10 8-10 6-38 8 0 0 0 0 21-31 9-7 9-7 9-8 8-7 9-6 9-6 11-6 12-5 12-5 11-5 10-7 10-5 12-4 15-1 12 2 12 2 12 3 12 3 12 3 13 1 11-1 10-1 12-3 12-3 12-3 13-2 12-3 14-1 11 0 10 3 10 4 10 5 5 3 1 2 1 1 1 2 1 1 0 2-1 2-1 2-1 1-1 1-2 1-2 0-2 0-2-1z"  fill="#005bbb" /><path d="M108-163l1 6 0 12-1 13-2 12-1 11-1 12 1 13 2 14 2 16 1 16 2 17 0 18 1 17 2 17 3 14 5 12 6 13 6 11 7 10 6 8 10 10 9 10 8 8 8 8 8 7 10 7 9 8 11 5 9 2 12 3 11 1 10-1 11 1 12 2 19 22 0 0 0 0-24 9-11-2-11 0-12 0-11-2-13-3-11-4-11-4-11-7-8-7-7-6-9-8-8-8-6-8-7-9-9-10-8-9-6-10-7-11-7-13-6-14-6-16-4-16-2-18-1-18-1-18-1-16-2-16-1-15-2-16 0-15 1-14 3-12 2-11 2-11 1-11 1-5 0-2 1-2 1-2 1-1 2-1 2 0 2 0 2 0 1 1 2 1 1 2 1 2 0 1z"  fill="#005bbb" /><path d="M98-170l7-2 15-4 14-2 15-2 15-1 14 0 16-1 16-4 16-4 17-7 16-9 15-12 8-6 8-8 8-7 10-7 9-6 10-7 9-6 10-5 9-6 9-6 9-5 15-13 16-13 8-6 10-7 9-6 10-5 10-5 9-4 17-9 16-10 14-10 14-11 15-11 13-11 14-11 12-10 12-9 12-7 12-7 11-5 9-6 9-5 9-7 9-7 9-7 11-6 11-6 13-5 13-4 15-5 17-4 18-4 10-3 11-2 72-5 0 0 0 0-66 27-10 3-10 3-19 6-15 4-15 5-13 4-9 3-10 6-9 5-9 6-9 7-10 7-11 6-11 6-11 4-10 6-11 6-12 8-12 9-13 10-15 11-14 11-15 11-16 11-16 9-9 5-10 5-9 4-9 5-9 4-8 6-9 6-8 6-8 7-8 7-8 6-9 6-9 7-9 5-9 6-10 5-9 6-8 6-9 7-8 6-8 7-8 8-8 7-9 8-8 6-10 6-9 5-19 8-18 5-19 4-17 1-15 0-13 0-14 0-14 2-14 1-7 1-2 1-2-1-2-1-2-1-1-1-1-2 0-2 0-2 0-2 1-1 2-2 1-1 2 0z"  fill="#005bbb" /><path d="M106-167l4 4 7 8 10 9 9 6 9 8 8 7 8 9 7 7 9 6 9 5 10 6 8 6 9 6 11-1 10-3 11-4 10-2 12 2 8 8 7 8 0 0 0 0-15 9-8 5-10 3-11 3-9 3-13 2-12-3-10-6-9-7-9-7-10-7-9-6-9-8-7-9-7-9-7-9-8-8-9-10-7-8-6-9-3-5-1-1-1-2 0-2 1-2 0-2 2-1 1-1 2-1 2 0 2 0 1 0 2 1 1 2z"  fill="#c2e1ff" /><path d="M97-155l-7-3-15-6-16-8-18-7-19-5-10-3-11-2-11-3-11-3-12-4-11-4-12-5-11-5-12-6-13-5-13-6-13-5-13-5-14-4-13-4-13-4-12-2-12-2-13-2-12-1-12-1-13-1-12-1-13-2-13-2-12-3-12-3-12-3-12-4-10-3-10-4-9-6-9-5-13-14-11-15-9-16-9-15-10-13-12-12-11-12-10-13-9-13-8-13-8-11-9-11-9-8-10-8-11-6-11-6-10-5-12-3-11-3-11-2-10-1-12-1-12-3-12-4-10-3-11-3-32-22 0 0 0 0 40-4 10 4 11 3 15 4 10 2 11 2 12 2 13 3 13 4 13 5 13 6 12 8 12 8 11 10 11 12 9 12 9 14 7 12 8 12 9 12 12 12 12 14 11 16 8 16 8 15 9 12 11 11 16 9 10 4 11 3 11 3 12 3 12 3 12 3 12 1 12 2 13 1 13 1 12 1 13 2 13 2 13 3 13 4 14 4 13 4 14 4 14 5 13 5 13 5 13 5 12 5 10 4 11 4 10 3 11 3 11 3 11 2 11 2 11 3 10 3 9 4 10 4 16 9 14 7 6 3 2 1 1 2 1 1 1 2 0 2-1 2 0 2-2 1-1 1-2 1-2 0-1 0-2 0z"  fill="#005bbb" /><path d="M104-169l6 3 13 5 14 5 15 3 15 2 16 3 16 3 16 3 15 2 17-1 18-3 19-3 20-5 19-4 19-3 18-4 20-6 12-3 12-4 14-3 14-4 15-5 15-5 18-6 17-8 18-9 18-10 19-11 20-10 21-11 22-11 22-11 22-13 23-11 22-11 22-10 21-11 21-11 20-11 20-11 22-13 23-13 26-12 27-11 28-12 29-13 28-14 29-14 27-16 26-17 27-18 25-21 22-23 22-25 21-26 23-27 23-29 23-29 26-31 27-31 27-32 26-33 23-32 22-32 22-31 22-29 23-30 22-30 24-29 26-28 30-27 32-29 35-31 39-30 42-30 47-28 50-29 52-27 366-164 0 0 0 0-365 165-52 27-50 30-47 28-42 30-39 30-35 30-32 29-30 27-26 28-23 29-23 31-22 29-23 29-21 31-22 32-24 33-26 32-27 32-26 32-26 30-24 30-23 28-22 27-22 27-21 25-23 23-25 21-27 18-26 17-28 15-28 15-29 14-28 13-28 11-27 12-26 12-23 13-22 12-20 12-20 11-21 11-21 11-22 10-22 11-22 12-23 12-22 12-22 11-21 11-19 11-18 12-18 12-17 10-17 10-17 8-15 7-15 7-14 5-13 4-12 4-12 4-10 4-11 3-10 3-19 3-19 4-18 4-10 2-10 3-10 2-10 2-10 1-20 1-18-2-17-4-15-3-15-3-16-3-17-5-15-6-15-8-5-4-2-1-1-1-1-2 0-2 0-2 1-2 1-2 1-1 2-1 2 0 2-1 1 1 2 1z"  fill="#c2e1ff" /><path d="M94-168l4-5 10-10 12-9 11-7 13-8 14-8 14-6 16-6 17-5 14-6 16-5 15-3 14-1 14-1 12 0 11 1 15 2 12 3 11 4 12 6 11 5 10 6 10 6 9 7 9 6 10 7 11 7 10 8 11 8 10 8 10 8 9 9 8 10 7 10 4 11 2 12 2 12 0 15-2 14-3 18-3 9-5 10-5 10-6 9-6 10-7 9-7 10-6 9-6 10-44 67 0 0 0 0 27-76 6-11 6-11 6-10 5-9 6-9 8-18 5-15 2-14 1-13 0-16-2-10-4-13-8-11-8-7-8-8-10-7-11-8-10-7-10-7-11-6-9-7-10-6-8-6-11-6-11-6-12-6-9-3-11-3-14-2-11 0-12 0-12 0-13 3-14 4-15 5-16 5-15 5-14 6-12 7-13 6-12 7-10 6-9 7-5 5-2 1-1 1-2 0-2 0-2 0-2-1-1-1-1-2-1-2 0-2 0-2 1-1 1-2z"  fill="#fff" /><path d="M107-158l-3 5-6 9-6 9-6 8-6 9-6 11-6 13-7 12-5 10-5 11-4 12-2 13-1 13-2 12-1 12 0 12-1 13-2 11-3 11-5 12-6 10 3 10 0 11 0 12 0 0 0 0-12-3-10-1-8-7-4-9-2-12 4-13 6-10 5-10 3-10 2-11 0-11 1-12 2-13 2-12 2-13 2-13 5-12 5-10 5-9 7-11 7-11 7-12 6-10 7-8 7-8 7-7 7-8 3-4 2-1 1-2 2 0 2 0 2 0 2 0 1 2 1 1 1 2 1 1 0 2-1 2 0 2z"  fill="#fff500" /><path d="M99-170l8-2 17-4 18-5 10-3 19-5 16-6 15-7 15-6 15-4 14-3 13-2 10-3 10-5 10-6 9-6 9-7 9-7 9-7 11-6 9-5 13-6 9-5 12-7 13-5 14 0 13 2 14 3 10 2 14 0 14 0 11 1 10 1 12 1 12 1 10 0 11 0 11 0 12 3 27 22 0 0 0 0-32 8-13-3-11 0-13 0-12-1-14-1-12-2-14-1-14 0-10 0-11-1-10-2-11-3-12-2-9 4-11 6-9 4-13 5-11 6-9 6-9 6-9 7-11 7-11 6-13 7-13 4-14 3-13 2-13 2-13 3-15 6-17 7-9 3-10 2-19 5-19 4-19 3-8 1-2 0-1 0-2-1-2-1-1-2 0-1-1-2 0-2 1-2 1-1 1-2 2-1 2 0z"  fill="#fff500" /><path d="M106-158l-4 7-10 14-11 14-8 15-10 18-5 9-8 16-9 16-10 15-10 15-8 16-7 15-8 17-7 18-4 9-4 10-4 11-3 11-4 12-5 13-5 13-6 14-4 13-5 14-4 14-4 14-4 14-4 14-3 14-4 14-3 13-2 13-2 13 0 12 0 12 0 12 1 12 2 12 2 12 4 12 5 12 6 11 7 10 8 10 8 9 10 9 10 8 11 6 11 5 13 5 14 3 16 2 17 2 18 0 19 1 21 2 21 2 22 1 23 2 24 3 25 2 28 3 28 3 30 1 29-1 30-3 31-4 32-5 32-8 34-8 35-9 36-10 34-13 32-15 32-16 31-14 30-15 29-16 31-17 31-19 34-19 37-21 255-147-1 1 1-1-254 149-37 21-34 19-31 19-31 16-30 17-30 15-30 14-32 16-33 15-34 13-35 10-35 9-34 8-33 8-32 5-30 4-31 4-30 0-29-1-29-3-27-2-25-2-24-3-23-1-22 0-22-1-20 0-19 1-18 0-18 0-17-1-16-3-14-5-14-6-12-7-11-9-10-9-10-10-8-11-8-11-7-13-5-13-4-13-2-13-2-13-1-12 0-13 0-13 1-13 2-13 3-14 3-13 4-14 3-14 3-14 4-14 4-15 3-14 4-14 5-15 4-13 4-14 4-13 3-12 3-12 4-11 4-11 7-19 8-18 7-16 9-16 9-17 10-15 10-14 9-16 9-17 10-17 10-17 12-14 11-13 5-6 1-2 1-1 2 0 2 0 2 0 2 1 1 1 1 1 1 2 1 2 0 2-1 1-1 2z"  fill="#fff" /><path d="M93-158l-4-6-8-13-7-11-8-8-9-7-11-8-11-8-10-9-8-11-7-11-6-11-4-13-2-13-1-13 1-15 3-15 5-13 6-13 7-11 6-11 7-10 6-9 5-9 5-9 7-12 5-11 4-11 2-15 1-11 0-13 1-13-1-11-1-14-1-14-1-11-2-11-3-11-4-12-4-11-5-10-3-28 0 0 0 0 25 9 7 11 5 12 4 10 3 12 3 12 2 13 1 14 1 12 1 11 0 11 0 13 0 14-1 13-1 13-2 11-3 12-7 14-7 12-8 13-6 9-6 9-6 10-7 11-6 9-5 10-4 11-2 10-1 12 1 11 2 14 6 14 5 9 6 8 7 8 10 8 10 9 11 10 9 11 8 13 6 13 3 6 1 2 0 2 0 2-1 2-1 1-1 2-2 1-2 0-2 1-1-1-2-1-2-1-1-1z"  fill="#fff500" /><path d="M108-162l0 8-2 15-2 16-5 15-5 14-7 13-10 11-10 10-12 8-10 7-9 7-7 7-7 9-8 11-7 11-8 13-8 14-10 15-10 14-10 15-11 16-6 9-6 9-6 9-6 9-6 10-6 10-7 12-8 12-8 11-7 11-7 12-5 11-4 11-3 11-2 11-2 10 1 18 2 16 5 13 6 10 8 8 9 8 11 8 12 8 12 8 12 9 10 9 10 10 9 9 10 9 10 9 13 9 14 12 15 13 8 7 49 56 0 0 0 0-63-39-9-6-16-12-13-11-14-10-11-10-11-10-9-9-8-9-10-9-9-8-12-8-12-8-12-10-11-10-9-12-8-14-4-17-2-18 0-10 1-11 2-11 3-12 4-12 4-12 6-12 6-13 7-12 7-12 7-11 6-12 6-11 6-11 6-10 5-9 6-9 5-9 10-17 10-15 10-15 9-14 8-14 7-13 9-13 8-12 9-11 10-9 11-8 11-6 9-6 8-7 8-8 6-10 6-12 5-13 3-13 3-15 1-7 0-2 1-2 2-1 1-2 2 0 2-1 2 1 2 0 1 1 2 2 1 2 0 1 0 2z"  fill="#005bbb" /><path d="M101-170l6 0 10 2 14 2 12 4 9 3 10 4 10 5 9 6 8 8 5 9 1 11-5 10-8 8-8 8-8 6-11 6-11 4-9 6-12 9-11 7-11 7-14 7-15 5-19 2-10-1-10-3-11-5-10-6-10-6-11-6-12-6-13-8-14-8-14-9-14-9-14-10-13-10-12-9-13-10-12-9-12-10-13-10-13-9-14-9-96-60 0 0 0 0 101 52 15 8 14 10 12 10 12 9 12 10 13 9 13 9 13 9 14 8 14 8 15 8 14 6 14 5 13 6 11 5 20 9 14 4 12 0 12-3 10-5 11-6 10-7 8-6 9-7 8-6 13-6 10-4 8-6 9-6-8-7-8-6-10-5-11-6-12-4-13-4-5-2-2 0-2-1-1-2-1-1-1-2 0-2 1-2 0-1 2-2 1-1 2-1 2 0 1 0z"  fill="#fff500" /><path d="M107-166l4 7 8 15 7 18 5 18 4 18 1 19-2 18-3 17-6 16-6 14-6 12-6 12-5 12-4 14-2 14-1 14 1 14 3 16 4 16 5 13 6 14 7 12 9 11 10 10 11 10 11 8 13 7 15 6 18 8 9 5 9 6 9 8 9 7 8 9 9 9 8 10 7 11 7 11 6 11 7 10 7 10 8 10 9 11 9 12 9 12 8 12 7 12 8 13 6 13 6 14 5 13 6 13 6 13 5 14 5 14 6 13 5 12 6 12 7 11 7 11 7 10 7 9 7 9 8 8 8 6 8 7 51 45 0 0 0 0-61-33-9-7-8-8-8-9-7-10-7-10-7-10-7-12-7-12-6-12-6-13-5-13-5-13-5-14-6-13-6-13-6-13-6-13-6-12-7-12-8-12-8-12-8-11-10-11-9-10-9-11-9-10-7-11-7-10-6-10-7-9-8-9-8-8-8-8-16-12-16-9-17-7-17-7-15-8-14-10-12-11-11-12-11-13-8-15-7-15-6-17-4-16-3-18-2-18 1-17 3-16 5-15 6-16 7-12 6-11 6-11 5-14 3-15 2-16 0-15-3-16-4-17-6-16-6-16-3-7-1-2 0-2 0-2 1-2 1-1 2-1 1-1 2 0 2 0 2 0 2 1 1 1 1 2z"  fill="#c2e1ff" /><path d="M103-170l7 2 15 7 14 9 13 10 11 9 12 9 13 10 12 11 12 13 10 11 9 11 10 11 10 11 10 9 9 8 9 8 9 6 9 6 12 6 13 4 14 6 9 4 10 5 8 6 13 6 9 5 14 5 13 3 11 0 10-2 12-1 11-1 9-6 10-1 11-4 0 0 0 0 1 19-4 11-10 6-11 5-11 1-11 0-11 2-13 0-10-1-11-3-11-3-11-5-10-5-10-5-12-8-12-6-12-6-13-5-10-5-11-5-10-7-10-8-9-9-10-9-10-10-10-11-10-11-10-12-10-11-10-12-10-10-12-10-12-10-12-10-10-10-11-8-13-7-7-3-2-1-1-1-1-2-1-2 0-2 0-1 1-2 1-2 1-1 2-1 2-1 2 0 2 1z"  fill="#005bbb" /><path d="M94-168l5-5 9-10 8-10 10-10 9-9 10-11 10-10 9-11 8-13 9-15 10-15 9-15 7-16 5-17 4-17 2-18 3-19 2-11 2-11 2-12 1-11 2-11 1-12 0-12 0-12 0-12-1-13 0-12-2-12-2-12-3-10-3-10-4-10-4-9-3-10-4-10-4-10-7-18-6-18-5-18-3-17-2-17-2-16-4-17-3-21 0-11 0-12 0-11 1-12 0-12 1-12 0-12 2-12 1-11 2-11 2-10 2-10 3-19 2-19-1-16-3-15-4-16-6-15-17-51 0 0 0 0 36 43 7 17 4 18 3 18 0 19-2 19-2 10-2 10-2 10-2 11-2 10-1 10-1 11-1 12 0 12 0 11 0 12 0 11 1 10 2 20 3 19 3 17 2 17 2 16 2 17 4 16 7 18 3 9 4 10 3 10 4 9 3 10 4 11 4 11 2 11 3 13 1 12 1 13 1 13 1 13 0 12 0 13 0 13-1 12-2 11-1 11-1 11-2 12-1 10-2 19-4 18-4 19-3 10-8 18-10 17-9 15-10 15-9 15-10 13-11 10-10 10-10 9-10 9-10 9-10 9-5 4-2 1-2 1-2 1-2-1-1 0-2-1-1-2-1-1-1-2 0-2 0-2 1-2 1-1z"  fill="#fff500" /><path d="M93-158l-4-7-8-14-7-14-7-15-9-14-10-14-12-12-13-10-14-9-14-7-14-3-13-2-13-1-12-1-12 0-13-1-13-2-12-2-12-1-11 0-10 2-11 2-11 4-11 7-13 8-15 11-15 11-14 14-8 8-9 7-8 7-9 5-18 9-18 5-17 3-18 3-19 2-18 2-19 2-18 1-19-2-16-3-15-5-12-4-12-4-11-4-12-2-11 1-36-5 0 0 0 0 34-21 11 0 11 1 11 3 11 4 12 5 12 4 13 5 13 4 15 1 18-1 17-1 19-2 18-3 17-2 17-3 14-4 14-6 15-11 8-7 7-7 7-8 8-8 8-8 15-11 14-11 15-10 14-7 14-4 14-2 13-1 13 1 14 2 12 2 12 2 12 1 12 1 12 2 15 2 16 3 17 7 17 10 15 11 14 13 13 15 6 8 9 16 7 16 6 14 5 14 4 6 1 2 0 2 0 2-1 2-1 1-1 2-2 1-2 0-2 0-1 0-2-1-2-1-1-1z"  fill="#c2e1ff" /><path d="M94-168l5-5 10-10 14-9 14-7 16-6 17-7 19-6 19-9 10-5 11-4 12-5 12-4 11-4 12-4 12-3 13-2 13-1 14-1 13-1 14 1 12 0 13 1 12 1 12 0 11 1 10 1 10 0 20 2 10 2 10 3 10 3 18 4 17 2 15-1 12-4 10-5 11-9 8-10 4-12 1-13 2-15 4-15 6-14 9-11 9-9 10-7 9-4 12-6 10-5 9-5 10-5 10-6 28 1 0 0 0 0-9 22-11 6-11 6-10 4-10 5-12 5-11 5-10 7-9 10-5 9-3 11-2 13-2 15-4 16-8 12-9 9-10 7-12 6-15 5-18 2-19-1-10-2-10-2-19-6-17-5-19-3-10 0-11-1-10-2-12-1-12 0-12-1-13-1-12 0-13 1-13 1-12 2-11 2-12 3-11 4-11 4-11 4-11 5-10 5-10 5-10 5-11 5-19 7-16 6-16 6-13 5-11 6-10 8-5 4-2 1-2 1-2 1-1-1-2 0-2-1-1-2-1-1-1-2 0-2 0-2 1-2 1-1z"  fill="#005bbb" /><path d="M106-168l5 5 8 10 8 10 7 11 8 9 7 10 8 11 7 13 6 15 3 15 1 15-1 13-3 13-4 11-5 12-7 12-8 11-11 10-12 9-12 6-14 5-15 2-15 0-15 0-14-1-14-1-14-2-14-2-14-4-14-6-13-8-12-11-9-12-6-13-5-14-2-15-3-15-3-18-1-10-1-11 0-11 0-12 0-12 1-12 0-12-1-12-1-11-2-12-3-12-3-13-4-13-4-12-4-13-5-13-3-14-2-13-2-14-3-85 0 0 0 0 17 84 2 12 2 13 4 12 4 13 5 13 5 13 4 13 4 13 3 13 3 12 2 13 1 12 1 13 1 12 0 12 1 11 1 10 2 19 4 17 3 16 3 13 2 9 7 14 8 8 9 7 10 6 10 3 12 3 13 2 12 1 14 0 14 1 14 0 10-1 11-2 9-4 9-5 9-7 7-8 6-9 5-9 4-9 3-10 3-14-1-11-2-12-4-11-5-11-7-11-7-10-7-11-7-11-6-10-7-10-3-5-1-2-1-2 0-2 0-2 1-2 1-1 2-1 2-1 2-1 2 1 1 0 2 1 1 2z"  fill="#c2e1ff" /><path d="M107-167l4 6 10 10 10 9 10 7 10 4 12 2 16 1 19-3 11-2 11-3 12-2 12-3 12-2 12-1 13 0 12 0 12 2 12 2 11 2 11 3 13 2 12 4 13 3 13 4 13 3 14 2 13 3 13 3 13 4 12 4 11 4 10 5 11 5 10 5 9 4 10 5 10 5 10 4 10 4 11 3 19 3 19 2 11 1 10 1 18-1 19-4 17-5 18-8 18-11 9-6 10-7 10-8 10-7 10-9 10-10 10-9 11-10 12-10 12-10 12-10 13-9 12-9 11-9 10-9 11-8 10-8 10-8 9-7 9-8 9-7 9-7 9-6 9-6 10-6 10-4 10-5 10-4 9-5 10-5 8-6 64-32 0 0 0 0-54 47-10 7-10 5-10 5-10 4-10 4-18 9-9 5-9 6-9 6-9 7-10 6-9 8-10 7-11 7-10 8-11 9-11 9-12 10-12 9-12 10-11 10-11 10-10 11-10 10-10 10-10 10-10 9-10 7-10 8-10 7-9 6-11 6-10 5-10 4-9 3-10 3-10 2-11 2-11 0-11 0-10-1-11-1-10-1-10-1-11-2-11-3-11-3-10-4-11-5-10-5-10-5-10-5-10-5-9-5-10-5-10-4-11-4-12-4-12-3-14-2-14-2-14-3-13-3-13-3-12-3-12-2-12-2-10-2-11-2-11-2-10-1-11 1-12 1-11 3-12 3-11 3-11 3-12 3-11 3-12 1-18-1-18-4-14-7-12-10-10-11-10-13-4-6-1-1 0-2 0-2 0-2 1-2 2-1 1-2 2 0 2-1 2 1 2 0 1 1 2 2z"  fill="#fff" /><path d="M105-169l6 5 12 12 11 14 10 16 10 15 11 13 12 10 12 7 12 3 12 0 16-1 18 0 20 2 10 2 10 3 10 3 10 4 11 4 11 5 12 6 11 6 11 7 11 6 10 7 9 6 10 7 9 6 8 6 9 5 18 9 16 6 15 2 14 0 16-2 15-1 16-1 17-3 19-4 20-3 10-1 10-1 19-2 16-1 15-2 13-2 13-3 12-2 13-1 12 0 12 1 12 0 11-1 12 0 10 0 15-4 10-3 46 0 0 0 0 0-34 25-10 3-12 3-12 2-13 1-11-1-13 1-12-1-12-1-11-1-15 1-12 2-14 2-16 2-15 1-18 1-18 2-19 3-20 3-18 4-18 2-16 1-16 1-17 0-18-2-18-5-10-4-9-5-9-5-9-6-9-6-9-7-9-6-10-6-9-6-11-7-10-6-11-5-11-5-11-4-11-3-18-6-18-4-17-2-17 1-17 0-17-1-16-5-16-9-14-13-13-16-10-16-9-15-8-13-10-11-5-6-1-1-1-2-1-1 0-2 1-2 0-2 2-1 1-1 2-1 2 0 2 0 2 0 1 1z"  fill="#fff500" /><path d="M107-166l3 5 5 9 4 10 3 11 2 14 3 11 3 11 5 10 5 10 6 8 9 10 10 11 11 13 8 12 9 10 9 10 8 10 7 8 8 9 6 10 6 8 8 13 6 13 5 13 4 13 3 13 1 14 0 12 0 12-1 12-2 13-3 12-4 12-4 11-7 10-25 7 0 0 0 0 0-21 4-9 4-11 4-10 3-13 0-12 1-10 1-14-1-10-2-11-3-12-3-10-5-11-7-11-7-13-6-8-7-9-7-9-8-9-9-11-10-12-9-11-10-11-10-11-10-12-7-12-5-10-3-10-3-13-1-13-1-13-2-12-4-14-2-5-1-2 0-2 0-2 1-1 1-2 2-1 1-1 2 0 2 0 2 0 2 1 1 1 1 2z"  fill="#c2e1ff" /><path d="M92-161l-2-5-4-11-5-9-6-9-9-9-12-8-9-6-10-6-11-6-9-5-10-5-12-6-13-8-12-12-10-13-10-12-11-14-11-14-12-15-6-8-7-9-6-9-7-9-7-8-8-9-8-8-8-8-9-8-9-8-8-6-17-9-15-4-15-2-15 1-14 4-13 5-16 6-18 4-20 3-11 0-12-2-11-2-11-3-12-3-12-3-12-2-12-2-14-3-14-3-15-5-15-4-15-5-16-4-17-2-18-2-18-2-18 0-19 1-19 1-19 2-19 1-19 2-19 3-19 3-123 18 0 0 0 0 123-22 18-3 19-3 19-3 20-1 19-2 19-3 19-1 18-1 19 1 18 1 18 1 17 3 16 3 15 4 14 3 14 3 13 2 13 1 13 2 13 2 11 2 11 2 10 2 18 1 17-2 15-4 16-6 16-5 17-3 18-1 18 3 19 6 10 5 9 6 10 7 9 8 9 8 9 8 9 8 9 9 8 9 8 9 6 8 7 8 7 8 12 15 12 14 11 13 11 13 9 11 8 8 10 6 11 6 11 5 11 7 10 6 10 7 10 7 9 7 8 8 7 9 7 12 5 12 3 13 1 6 0 2 0 1-1 2-1 2-1 1-2 1-2 1-2 0-2-1-2-1-1-1-1-2-1-2z"  fill="#fff" /><path d="M93-159l-3-5-5-8-6-9-7-11-7-12-4-10-5-9-5-12-3-14 0-10 1-12 3-11 6-12 7-10 6-9 8-9 8-8 10-7 11-7 9-6 12-8 15-9 16-7 18-6 18-5 10-2 10-3 11-2 11-2 12-2 13-1 15-1 15 1 16 2 16 1 17 0 16-1 15-3 15-5 15-5 13-7 12-7 12-8 12-9 10-8 10-9 9-9 11-9 10-10 9-11 10-12 11-13 12-14 12-14 13-14 13-14 13-14 13-13 12-13 12-12 13-12 14-10 16-10 108-67 0 0 0 0-105 71-15 10-14 11-13 11-12 12-13 12-12 14-12 14-13 15-12 14-11 14-11 15-10 14-10 13-10 12-10 10-10 10-11 8-10 9-11 8-12 8-12 8-14 8-14 7-15 6-16 5-16 4-17 3-17 1-17 0-16 0-13 0-13 2-12 3-11 3-11 2-11 3-18 5-17 6-16 6-14 7-11 7-11 8-12 8-12 9-11 9-8 9-9 12-5 11-2 11 0 13 3 12 5 10 3 11 4 10 6 12 5 10 4 10 2 5 1 2 0 2 0 2-1 1-1 2-2 1-1 1-2 0-2 0-2 0-2-1-1-1-1-2z"  fill="#fff" /><path d="M97-155l-6-2-13-4-14-5-15-6-14-8-13-9-13-9-12-7-13-6-13-6-12-6-13-5-14-6-14-4-14-3-12 0-14 3-14 5-14 6-14 6-13 4-14 3-15 1-15 0-15-3-14-4-14-3-14-2-16-2-16-2-16-1-17-1-19 0-20 1-11 1-11 0-11 2-10 2-11 2-11 3-12 3-11 2-12 4-11 4-12 4-12 5-12 6-13 6-12 8-13 9-14 10-13 12-13 13-12 14-11 16-10 16-9 18-8 19-7 20-8 20-7 22-39 152 0 0 0 0 37-153 7-22 7-20 7-20 7-20 9-18 9-18 10-17 12-15 12-14 13-14 13-12 13-10 13-9 13-7 12-7 13-6 12-5 12-4 12-4 12-4 11-3 11-3 11-3 12-2 12-2 11-2 11-1 11-1 11-1 19 0 18 0 18 1 16 2 16 1 16 3 16 3 13 4 11 2 11 1 13-2 11-2 12-3 13-4 14-7 16-6 19-4 19 0 16 4 16 5 14 6 13 6 13 5 13 7 14 7 14 9 13 9 12 9 11 7 13 7 14 5 12 6 6 3 2 1 1 1 1 2 1 2 0 1 0 2-1 2-1 2-1 1-2 1-2 0-2 0-2 0z"  fill="#005bbb" /><path d="M99-170l7-2 11-2 13-5 8-6 8-7 7-8 8-8 8-9 7-8 5-10 5-11 4-9 1-10-3-11-3-9-2-13 0-14 2-13 3-13 5-13 6-9 8-8 12-8 9-5 11-4 9-4 42 2 0 0 0 0-31 27-10 4-10 4-9 6-9 9-4 10-2 13 0 12 2 12 3 12 2 10-1 14-3 11-5 10-5 9-5 10-7 8-7 7-8 7-7 7-9 8-11 8-12 7-10 4-12 2-13 1-6 0-2 0-2 0-2-1-1-1-1-2-1-2 0-2 0-2 1-1 1-2 1-1 2-1 2 0z"  fill="#005bbb" /><path d="M98-170l5-2 12-4 13-3 12-2 13 1 13 3 10 3 10 2 10 2 15 2 12 0 12-3 12-5 10-4 14-3 12 1 11 0 11 1 15 1 14 3 10 2 13 2 12 0 13-4 14-5 13-4 12-4 10-3 13-1 12-2 12-1 14 2 10 2 8 6 12 14 0 0 0 0-16 8-11 2-11-3-11 0-11 1-11 1-10 2-13 4-12 4-13 5-11 4-11 2-11 0-11-1-12-2-14-3-11-2-11-1-12 0-11-1-13 0-11 4-11 4-14 3-11 1-11-1-11-2-11-3-10-3-11-3-10-4-13-2-11-1-10 2-12 2-6 1-2 1-2-1-1 0-2-1-1-2-1-1-1-2 0-2 0-2 1-2 2-1 1-1 2-1z"  fill="#fff500" /><path d="M103-170l7 3 15 6 15 8 15 9 16 8 17 6 17 6 10 3 20 5 10 3 10 2 11 2 10 2 12 1 12-1 12-1 13-4 13-6 14-7 15-8 16-8 15-9 15-8 14-9 14-8 13-7 12-8 11-7 10-8 11-8 10-8 10-9 9-8 9-9 7-9 7-10 6-10 6-10 4-11 6-10 5-12 6-11 6-12 7-12 7-12 6-12 7-12 7-12 9-13 9-12 9-13 9-14 9-14 10-14 10-15 11-15 10-17 10-18 11-18 12-19 12-19 13-18 13-19 13-18 14-19 14-18 13-17 12-18 10-17 11-18 11-17 10-17 11-16 11-17 10-17 11-17 11-16 11-16 11-16 12-16 11-18 11-19 10-19 8-20 5-20 3-19 1-20-1-133 0 0 0 0 4 133-1 20-4 20-5 19-8 21-10 19-11 20-11 17-12 17-11 16-11 16-11 16-11 16-10 17-11 17-11 17-11 16-10 17-11 18-11 18-12 17-13 18-13 18-14 18-13 19-13 18-12 19-12 19-11 19-11 19-9 18-9 18-9 16-10 15-9 15-9 14-8 14-9 14-8 12-8 13-7 12-6 12-7 12-6 12-7 12-6 12-5 11-6 11-5 11-5 11-7 11-7 11-7 9-9 10-9 9-10 9-10 8-11 8-11 8-11 8-12 7-13 7-13 7-13 8-15 9-14 9-15 9-15 10-14 9-15 9-15 8-14 5-14 2-14 1-13 0-12-2-11-1-11-3-10-2-11-3-20-5-9-3-19-7-9-4-17-9-15-9-13-8-13-8-7-3-2-1-1-1-1-2-1-2 0-2 0-2 1-1 1-2 2-1 1-1 2 0 2 0 2 0z"  fill="#fff" /><path d="M104-170l5 3 11 3 12 4 11 2 11 3 10 1 11 2 10 1 10 3 11 3 10 3 10 5 10 6 9 6 9 6 10 6 10 8 10 10 9 14 6 15 3 13 3 14 3 14 3 12 4 11 5 10 6 10 5 11 6 9 8 8 8 10 10 10 8 8 8 7 13 8 13 6 11 6 10 6 9 5 10 5 10 6 9 7 8 8 8 8 7 8 6 8 11 37 0 0 0 0-36-23-9-11-9-10-11-9-11-7-10-5-11-6-9-6-10-5-11-6-9-6-10-8-10-9-9-9-9-9-10-11-9-12-6-11-6-11-5-12-5-12-5-14-3-14-3-13-3-12-4-11-4-10-7-8-11-9-9-6-10-6-9-6-12-8-12-5-12-4-14-4-11-2-11-3-12-3-12-5-12-5-12-5-5-3-1-1-2-2-1-1 0-2 0-2 0-2 1-2 1-1 2-1 2-1 2-1 2 1 2 0z"  fill="#c2e1ff" /><path d="M101-171l6 1 12 0 11 0 10 0 14-1 15-2 10-3 13-2 12-1 13 0 11 0 13 0 11 1 14-2 12-3 12-6 10-5 10-6 11-6 12-6 12-5 13-5 13-3 10-4 11-4 12-5 12-5 13-7 15-9 13-10 14-12 11-12 10-11 6-11 5-13 0-11-4-11-6-10-7-11-9-11-8-11-8-11-9-9-21-42 0 0 0 0 45 30 9 11 9 11 8 11 9 12 8 12 7 13 3 14-1 14-3 12-7 13-8 12-11 13-13 13-13 13-8 7-15 11-15 10-14 7-13 6-12 4-12 5-12 3-10 4-12 4-11 5-11 6-10 7-11 5-10 5-10 5-11 3-13 2-12 0-11-1-12 0-12 0-11 0-10 0-11 1-12 2-12 2-10-1-11 0-10-1-11-2-12-2-7-1-2 0-1-1-2-1-1-2-1-1 0-2 0-2 1-2 1-2 1-1 2-1 2 0 2-1z"  fill="#c2e1ff" /><path d="M96-169l4-4 8-6 7-10 4-11 1-12 0-11-3-10-5-10-4-12-3-13-1-14 1-13 2-13 4-12 2-11 1-12-3-11-6-8-5-9-5-9-2-11-2-12 1-10 5-9 19-12 0 0 0 0 9 26 0 11 2 11 5 8 6 9 3 10 3 11 0 12-2 12-3 14-3 9-3 12-1 13 3 13 3 10 4 12 3 12 0 12-1 12-4 12-6 13-6 8-9 7-10 6-5 3-1 1-2 0-2 0-2 0-2-1-1-1-1-2-1-2 0-2 0-2 1-1 1-2 2-1z"  fill="#fff500" /><path d="M103-170l6 2 12 4 12 5 12 5 10 3 12 3 11 3 12 6 12 5 13 5 14 7 13 7 14 7 12 8 12 7 11 7 9 7 8 7 8 9 6 8 8 12 5 9 5 10 2 12 3 10 2 11 1 11 2 13 0 13 0 11-1 11-2 11-1 10-2 10-1 13 1 11 3 10 4 11 5 12 6 8 6 9 8 8 17 32 0 0 0 0-37-10-10-10-9-12-6-9-5-14-5-12-4-14-2-10 0-11 1-11 2-15 2-15 2-14 0-15 0-10-2-12-2-10-3-15-3-11-6-12-7-11-6-10-9-9-8-6-10-7-10-7-12-7-13-7-13-7-13-6-13-6-12-6-10-5-10-3-11-4-13-5-12-6-10-6-11-5-6-3-2-1-1-1-1-2-1-2 0-1 0-2 1-2 1-2 1-1 2-1 2 0 2 0 2 0z"  fill="#fff500" /><path d="M92-165l2-6 1-13 1-14 0-13-3-13-3-11-4-10-5-9-5-9-7-12-7-10-6-11-5-10-4-10-6-10-9-10-9-8-9-9-10-8-9-7-10-5-10-4-11-3-13-4-11-2-10 0-11 1-11 3-10 3-10 5-10 9-9 9-8 11-5 12-5 11-5 11-5 9-8 11-31 9 0 0 0 0 6-26 7-9 5-8 5-10 5-9 5-12 7-11 10-12 8-7 10-8 11-6 14-6 13-4 14-3 15 0 15 2 13 3 12 3 13 5 13 5 13 8 11 9 10 9 10 8 10 9 8 10 5 10 6 12 5 13 4 9 6 11 6 12 5 10 5 11 5 13 3 14 1 16 0 15-2 15-4 14-2 7-1 1-1 2-2 1-1 1-2 1-2 0-2-1-2-1-1-1-1-2-1-2 0-2 0-2z"  fill="#005bbb" /><path d="M105-156l-6 5-13 8-16 8-15 8-17 9-9 4-9 3-10 3-19 4-17 2-16-1-15-2-15-2-16-3-15-2-17-2-16-3-15-2-14-2-11 0-13 1-12 3-10 4-10 5-8 8-7 8-2 11 2 11 1 13-1 11-1 10-19 21 0 0 0 0-13-24 1-12 1-10-1-12 0-10 1-11 3-9 7-10 8-8 8-7 10-5 12-5 12-4 14-3 12-1 13 1 13 2 16 2 15 3 15 2 17 2 17 3 14 2 15 3 12 2 14 0 16-2 17-4 17-7 16-8 16-7 15-7 12-6 6-4 2-1 2 0 2 0 2 0 1 1 2 1 1 2 1 1 0 2 0 2-1 2-1 2-1 1z"  fill="#005bbb" /><path d="M106-167l4 4 10 9 10 11 9 8 10 9 9 8 9 8 9 10 8 9 7 8 8 6 10 6 12 3 13 0 11-4 14-7 10-6 10-7 9-6 8-7 8-7 10-10 5-9 2-14 1-13-1-14-2-12-4-13-2-10-2-10-2-11-1-11 0-11 0-12 20-54 0 0 0 0 9 53 0 12 1 15 1 13 3 14 4 14 2 10 1 11 1 10 0 11 0 12-2 10-4 12-6 11-8 9-8 8-8 7-9 8-10 7-11 7-11 7-11 7-12 6-14 3-13 0-11-1-11-3-13-7-11-8-9-10-8-10-7-8-6-8-9-9-8-9-9-10-10-11-8-12-7-8-2-5-1-1-1-2 0-2 1-2 0-2 2-1 1-1 2-1 2 0 2 0 2 0 1 2 1 1z"  fill="#fff500" /><path d="M106-158l-2 5-4 11 1 10 2 14 3 12 5 14 4 13 6 12 6 10 6 11 7 9 8 7 13 7 11 5 12 4 12 2 12 1 13-1 14-2 14-4 15-5 13-6 11-7 8-7 7-12 4-14 3-13 0-12 0-11-2-11-1-12 0-10 0-12 6-9 9-6 11-2 0 0 0 0 1 14 2 10 0 11 0 10 1 11 0 13 0 14-2 11-3 11-4 12-6 12-8 12-12 10-14 9-15 7-17 6-17 5-16 3-15 1-16-1-16-3-14-5-12-5-14-7-12-10-9-11-8-11-6-11-5-10-5-11-3-10-2-10-3-10-2-10-1-11 0-10 1-11 3-11 6-10 4-4 1-2 1-1 2 0 2 0 2 0 2 1 1 1 2 1 0 2 1 2 0 2-1 1-1 2z"  fill="#005bbb" /><path d="M100-155l-6 1-11 2-11 3-12 5-12 6-10 7-10 10-9 10-11 11-11 9-10 9-11 9-12 9-12 8-13 7-15 6-16 2-16 2-17 2-17 4-17 5-17 8-16 9-17 10-9 5-18 8-18 9-18 9-11 5-10 5-12 6-12 5-12 6-13 6-13 6-13 5-13 4-14 4-15 1-14 0-15 0-16-2-17-2-17-3-17-3-18-4-19-4-19-6-20-5-19-6-20-5-21-5-21-6-20-7-19-6-19-7-18-6-19-5-19-4-20-3-21-2-21 0-22 2-20 3-19 5-18 6-17 6-16 7-106 48 0 0 0 0 104-52 17-6 17-5 19-6 19-5 20-4 22-1 21 0 21 2 20 2 20 4 19 6 18 6 19 6 19 7 20 6 21 6 20 5 21 4 19 5 20 5 19 4 19 3 18 3 18 2 16 1 17 1 15 1 14 0 14 0 12-1 13-3 12-5 12-5 13-7 12-7 13-6 11-6 11-6 10-6 10-5 10-6 18-9 18-8 16-8 17-10 8-5 9-6 9-5 10-4 19-7 19-5 18-3 16-2 12-2 11-3 11-6 11-7 10-8 11-8 11-10 10-8 10-9 10-10 12-11 14-9 14-7 15-5 14-2 13 0 6 0 2 1 2 0 1 2 2 1 1 2 0 2 0 2-1 2-1 1-1 2-2 1-1 0-2 0z"  fill="#fff500" /><path d="M107-166l4 6 8 12 10 14 11 11 12 9 14 8 15 6 16 3 18 2 18 0 17-3 17-5 18-8 10-4 10-4 10-3 10-4 10-4 10-4 10-5 9-5 9-6 9-7 9-7 10-8 8-9 9-9 7-9 8-10 8-9 8-10 6-9 7-10 6-9 7-10 7-10 7-10 8-10 7-10 7-11 6-10 4-11 4-10 3-11 2-10 1-10 0-19-3-18-6-17-8-18-12-17-8-8-8-9-9-9-10-8-10-9-11-9-10-10-11-9-11-9-11-10-11-10-10-10-11-9-10-8-10-7-11-8-10-7-10-6-10-7-11-7-10-6-10-5-11-5-10-4-11-3-12-3-12-1-85-11 0 0 0 0 87-5 13 2 13 3 12 3 12 5 11 5 11 6 10 7 11 7 10 7 10 7 10 7 11 8 10 8 11 8 10 9 11 10 10 10 11 9 12 9 11 9 11 9 11 9 11 8 10 9 10 9 10 9 8 9 8 9 6 10 6 10 4 11 3 10 3 10 2 10 0 10 1 11-1 11-2 11-2 12-4 12-4 11-6 12-6 11-7 11-7 11-8 10-7 10-6 9-7 10-7 9-6 10-8 10-7 10-8 10-8 10-8 9-9 10-9 10-9 8-10 9-9 7-10 7-10 6-11 6-11 5-10 4-10 4-10 3-19 8-9 4-10 4-10 4-10 3-10 2-10 1-11 0-20-1-19-3-10-2-18-8-16-9-14-12-12-14-10-14-9-15-2-7-1-2 0-2 0-2 1-2 1-1 2-1 2-1 1 0 2 0 2 0 2 1 1 1 1 2z"  fill="#c2e1ff" /><path d="M103-170l6 2 11 3 10 4 10 3 11 5 9 4 9 4 13 5 13 5 11 3 10 2 11-2 10-2 11-4 9-5 10-5 12-5 11-5 10-6 8-6 9-5 9-6 10-7 10-6 10-6 10-6 10-6 10-6 10-7 11-3 19-1 0 0 0 0-5 22-8 8-8 6-10 6-9 5-10 6-11 7-9 6-9 6-10 6-9 6-8 5-10 6-10 5-12 5-10 5-10 4-11 5-11 3-11 2-13 2-10-1-13-3-13-4-13-6-9-4-10-5-9-5-13-7-9-5-10-4-11-5-5-3-2-1-1-1-1-2-1-2 0-2 0-2 1-1 1-2 2-1 1-1 2-1 2 1 2 0z"  fill="#fff500" /><path d="M98-170l7-2 13-3 13-2 11 0 10 2 13 4 10 5 9 5 11 0 10-5 9-6 8-6 9-7 5-10 1-10 0-10 1-13 3-14 2-11 0-12 0-13-3-12-4-14-4-11-7-13-11-44 0 0 0 0 35 26 5 9 4 9 5 11 3 9 4 11 2 11 2 16 0 10 0 10-1 11-3 12-2 12 1 11-2 13-4 12-7 12-8 8-10 7-10 7-9 5-11 5-12 2-11-1-11-3-11-7-8-6-11-5-13-2-10 0-12 1-7 1-2 0-2 0-2-1-1-1-2-1 0-2-1-2 0-2 1-2 1-1 1-2 1-1 2 0z"  fill="#fff500" /><path d="M107-167l4 6 9 10 10 11 11 13 10 14 8 16 5 18 3 20 0 10 0 11 0 11-1 11-1 11-1 10-1 11-2 10-1 11 0 19 3 19 4 17 4 15 5 11 6 9 9 11 10 9 11 8 11 5 11 3 12 4 12 5 11 5 11 4 9 3 12 3 12 3 11 2 13 1 12 2 11 0 13 1 10 0 14-1 14-3 11-1 11 0 11 1 12 4 12 7 9 10 13 43 0-1 0 1-40-31-10-5-11-1-13 1-10 1-11 2-12 0-12 0-12-1-13-1-12-1-13-2-14-2-14-3-12-3-12-4-11-5-10-5-10-4-12-4-12-3-12-6-10-7-8-7-7-8-7-8-7-10-6-12-6-14-4-17-3-18-2-10-1-11-1-11 1-11 1-11 1-11 1-10 0-10 1-11 1-10 0-10-1-19-2-17-4-15-6-13-8-12-10-13-10-12-9-13-3-6-1-2 0-2 0-2 1-2 1-2 1-1 2-1 2 0 2 0 2 0 1 1 2 1 1 2z"  fill="#fff" /><path d="M92-160l-2-6-6-13-7-13-6-9-9-9-9-6-12-2-10 1-13 2-15 3-11 1-11-1-14 0-15 0-12 0-12 0-12 1-11 1-12 2-12 3-11 2-11 1-10 2-11-1-9-6-8-10 0 0 0 0 10-4 6-9 10-2 10-1 12-1 10-2 12-2 11-1 12-1 13-1 13 0 13 1 14 0 10 0 13 1 14-2 15-2 10-1 11 0 15 2 13 6 11 8 8 11 8 13 4 13 4 9 3 12 2 5 0 2 0 2-1 2-1 2-1 1-2 1-2 0-2 0-1 0-2-1-2-1-1-1-1-2z"  fill="#fff" /><path d="M106-157l-5 5-10 10-10 10-9 10-12 12-14 12-8 7-8 6-9 5-9 6-10 5-9 6-8 6-10 7-9 7-8 8-9 9-8 9-8 9-9 9-9 9-10 10-11 10-10 9-11 10-11 10-11 8-11 8-12 8-11 7-12 5-12 5-14 4-14 3-14 2-13 3-14 4-13 4-11 4-11 6-9 6-8 7-13 14-7 14-4 16-2 16-1 16 0 15 3 15 3 15 5 13 5 13 6 11 7 8 9 7 9 4 13 4 16 4 15 1 14-1 13-3 12-5 10-9 12-11 12-11 60-40 0 0 0 0-37 50-13 12-12 12-14 13-15 9-17 6-18 2-18-1-18-3-16-4-16-5-13-10-11-11-8-14-6-14-5-15-4-15-2-17-2-18 2-17 2-18 5-18 8-18 6-9 7-8 9-7 9-7 11-7 12-5 12-5 14-4 14-4 14-3 14-3 13-3 12-3 11-4 11-5 11-7 11-7 11-7 10-9 10-9 11-10 10-10 10-10 9-10 9-9 8-9 8-10 8-9 9-10 9-9 10-8 9-8 10-7 9-6 9-6 17-10 14-11 13-13 12-11 11-10 11-9 10-8 6-4 1-1 2-1 2 0 2 0 2 0 1 1 2 2 0 2 1 1 0 2 0 2-1 2-1 1z"  fill="#c2e1ff" /><path d="M106-168l4 4 11 8 12 7 10 6 10 4 12 2 10 0 12-3 12-2 10-1 11 0 11-1 10-2 10-5 10-4 12-5 11-5 11-3 11-1 9 7 12 9 0 0 0 0-15 13-10 4-10 3-11 4-11 5-9 4-11 4-10 2-11 1-10 0-13-1-11 1-12 2-13 1-11-2-11-4-12-5-12-8-11-9-8-7-8-8-3-4-1-2-1-2 0-2 0-1 1-2 1-2 2-1 1-1 2 0 2 0 2 0 2 1 1 1z"  fill="#c2e1ff" /><path d="M108-163l1 6 1 14 1 14 1 16 2 17 2 20-1 11 0 11-1 12-1 11-1 10 0 10 0 11 0 11-1 10 0 10-1 11 0 10 0 19-1 19 1 16 1 16 0 15 1 12 1 12 2 12 2 11 2 11 4 14 5 12 6 11 8 10 7 10 8 8 9 10 8 10 7 11 6 10 5 10 6 11 3 10 4 10 4 11 6 11 6 13-1 34 0 0 0 0-30-28-7-14-4-9-4-12-4-12-5-11-5-9-5-10-6-9-6-9-7-8-9-10-9-12-8-12-5-9-4-10-4-11-3-11-2-11-1-12-1-12-2-13 0-13 0-15 0-15 0-16 1-18 0-19 1-10 0-10 1-10 0-11 0-10 1-10 0-11 0-11 0-11 1-11 0-11 1-10 0-10-1-19-2-18-1-16 0-15 1-13 0-6 0-2 1-2 1-2 1-1 2-1 2 0 2-1 2 1 1 1 2 1 1 1 1 2 0 2z"  fill="#005bbb" /><path d="M96-170l6-3 14-8 13-8 11-9 11-9 9-9 8-9 6-9 8-12 5-10 5-11 7-13 8-12 10-10 10-9 10-8 7-7 8-10 6-8 8-13 7-11 7-10 7-10 8-9 7-9 4-10-2-11-7-17 0 0 0 0 18-4 10 2 7 8 4 10 1 10-1 12-5 10-5 9-8 8-8 8-8 9-6 9-8 11-5 8-7 10-8 10-9 11-11 9-9 7-8 6-7 9-6 10-6 11-6 12-6 10-7 10-8 9-10 9-11 10-12 10-13 9-15 7-13 6-7 4-2 0-2 1-2-1-2 0-1-1-2-2-1-1 0-2 0-2 0-2 1-2 2-1 1-2z"  fill="#005bbb" /><path d="M95-156l-5-4-10-7-9-6-12-8-10-6-9-6-10-7-8-7-8-6-11-6-12-4-12-3-10-1-11 1-10 4-11 4-9 5-10 5-11 4-11 0-10-4-10-4 0-1 0 0 5-8 6-8 9-6 11-3 9-4 10-5 10-3 11-4 12-2 14-1 11 3 12 2 12 5 10 5 12 7 9 8 8 8 9 8 9 7 11 8 7 7 8 8 9 8 5 4 1 2 1 1 1 2 0 2 0 2-1 2-1 1-2 1-2 1-2 1-1-1-2 0-2-1z"  fill="#005bbb" /><path d="M94-168l4-4 7-9 6-9 7-11 8-10 11-10 11-11 12-11 13-11 14-11 12-12 11-12 9-12 8-13 6-12 6-12 4-10 2-12 0-11-1-14 1-14 3-15 3-13 2-12 4-12 3-10 5-11 5-9 6-10 5-9 6-11 4-10 4-10 4-14 2-14 2-14 1-12 17-31 0 0 0 0 13 29-1 13-2 15-1 10-2 11-3 11-3 10-4 12-6 12-5 10-6 10-6 9-5 9-5 10-4 12-3 13-3 13-3 11-1 12 0 12 0 10-2 11-4 12-5 12-6 12-7 13-9 14-11 14-12 13-13 13-14 12-13 10-11 11-12 10-10 9-8 9-7 8-8 10-9 8-4 4-2 1-1 1-2 1-2-1-2 0-2-1-1-1-1-2-1-2 0-2 0-2 1-2 1-1z"  fill="#fff" /><path d="M108-162l0 8-1 18-1 18-3 16-2 15-2 15 1 14 4 13 5 15 8 15 9 16 8 16 8 16 8 14 9 14 10 14 11 12 10 9 10 6 10 4 11 1 12 0 12-1 12 0 12 2 14 5 9 5 11 10 8 10 9 12 6 10 5 12 4 11 4 12 6 14 8 15 10 15 15 15 8 8 9 6 10 7 10 6 10 4 9 4 19 3 10 1 68 12 0 0 0 0-69 7-11-1-11-2-12-3-11-3-12-5-11-6-11-7-11-7-9-7-9-8-10-8-7-9-7-9-5-9-8-14-7-15-5-11-5-14-7-12-7-9-8-9-10-7-11-3-10-1-11 0-13-1-10-1-12-3-13-6-13-9-12-11-11-14-11-14-10-16-8-15-8-15-9-16-9-16-8-18-7-17-4-18 0-17 2-16 3-16 4-15 2-16 2-17 1-9 0-2 1-2 1-1 2-1 2-1 1 0 2 0 2 0 2 1 1 2 1 1 1 2 0 2z"  fill="#fff" /><path d="M108-161l0 6-4 16-6 15-7 15-5 15-3 14-1 12 0 13 1 11 2 10 2 12 2 10 2 12 3 12 4 15 2 15 2 15 2 15 1 16 0 17-1 14-1 15-1 14 0 13 0 13 1 12 2 12 2 11 6 14 7 11 6 10 6 10 6 12 5 13 4 12 5 13 5 12 4 13 3 11 3 13 2 12 3 12-3 12-6 15 0 0 0 0-18-16-2-11-2-11-2-11-3-14-2-11-4-11-5-12-5-12-5-12-4-11-6-10-7-13-6-10-6-11-4-13-2-13-2-13-1-14 0-14 0-14 1-15 1-15 1-14 0-13-1-14-2-16-2-14-2-14-4-13-3-14-2-13-2-11-1-11-2-12 0-13 0-14 3-16 4-17 7-15 7-15 7-13 4-12 1-7 1-1 1-2 1-2 1-1 2 0 2-1 2 1 2 0 1 2 2 1 1 2 0 2 0 2z"  fill="#fff500" /><path d="M106-158l-3 6-6 10-6 10-5 11-4 12-1 11 0 13 2 13 3 13 5 11 5 12 7 12 9 10 12 12 14 12 15 12 8 6 16 11 16 10 10 4 9 5 9 5 9 5 10 4 10 5 10 6 10 6 10 5 11 6 9 5 9 6 9 6 9 7 9 6 8 7 9 8 9 7 8 6 9 7 9 8 8 7 7 9 7 9 6 10 5 10 5 10 4 11 4 11 3 12 2 12 2 11 3 12 2 12 3 12 3 12 3 13 3 14 2 15 2 15 2 17 1 17 1 17 0 18 0 18 0 19 1 20 1 20 1 21 0 21 0 21-1 21-1 22-1 22 0 22 0 22 0 22-10 150 0 0 0 0 8-150 0-22-1-22 0-22 1-22 1-22 1-21 0-21-1-21-1-21-3-20-2-20-1-19-1-18-1-17-2-17-3-16-2-16-4-16-3-14-3-13-3-13-4-12-3-13-3-11-3-12-2-12-2-11-3-10-3-10-3-10-5-9-5-9-5-9-12-15-7-7-8-7-9-7-9-7-9-7-8-7-8-7-9-6-8-6-8-6-9-6-9-5-10-5-11-6-10-5-10-5-10-5-9-4-10-5-9-4-10-5-9-5-10-5-9-5-17-11-9-6-8-6-8-6-15-13-13-12-12-14-8-14-7-14-5-14-3-16-2-16 0-15 3-16 6-15 7-11 8-10 7-10 5-5 1-2 2-1 1 0 2-1 2 1 2 1 2 1 1 1 1 2 0 2 0 2-1 2-1 1z"  fill="#c2e1ff" /><path d="M107-160l-1 5-6 14-6 12-9 11-7 9-9 9-9 6-10 5-11 3-10 3-12 6-13 4-13 1-13-2-12-6-9-10-5-10-6-12-2-11-1-12 2-11 5-11 6-8 7-8 10-8 9-6 10-7 26-3 0 0 0 0-4 26-8 7-9 6-10 6-7 8-5 11 1 10 4 11 6 9 12 2 10-4 10-4 12-3 11-2 10-5 10-7 8-7 8-8 7-10 7-10 2-5 1-1 1-2 2-1 1 0 2 0 2 0 2 1 1 1 2 1 0 2 1 2 0 2-1 1z"  fill="#005bbb" /><path d="M100-170l7-1 14-1 14-4 17-4 19-4 19-2 20 1 11 1 11 2 12 3 12 2 13 3 14 4 13 4 14 3 14 5 14 5 14 4 14 5 15 5 14 4 15 5 15 5 15 5 15 4 15 2 15 2 15 1 15 0 14 1 14 0 13-1 13 1 13 0 12 2 12 2 11 3 11 3 10 4 11 3 10 4 11 4 11 5 10 6 11 7 10 7 10 8 9 7 9 7 9 7 8 7 9 7 7 8 7 9 7 9 5 9 6 9 11 16 11 16 11 16 13 15 12 14 12 11 12 11 12 10 13 9 14 8 15 8 16 8 17 8 17 10 15 8 56 34 0 0 0 0-57-11-17-8-16-9-16-8-17-8-16-9-16-8-15-10-13-11-13-11-12-12-12-14-13-15-6-8-12-17-11-16-10-17-6-9-11-17-12-15-8-7-7-7-9-7-9-7-9-7-9-7-10-7-10-6-9-6-10-4-11-4-10-5-10-3-10-4-10-4-10-3-11-3-11-2-12-1-13-1-13 0-14-1-15 0-15-1-15-1-16-2-15-2-16-4-15-4-16-4-14-5-15-4-15-4-14-5-14-4-14-4-14-3-14-4-13-3-13-2-13-2-13-2-11-2-20-2-18-1-17 1-17 3-17 4-18 3-15 0-7-1-2 0-2-1-1-1-2-1 0-2-1-2 0-2 1-1 1-2 1-2 2-1 1 0 2 0z"  fill="#005bbb" /></svg>