<svg width="1200" height="675" viewBox="-500 -500 1200 675" xmlns="http://www.w3.org/2000/svg"><path d="M-500-500h1200v675h-1200z" fill="#000"/><path d="M93-167l4-5 7-11 9-10 11-9 11-7 12-6 13-5 10-4 9-5 12-7 8-10 7-12 5-10 4-14 2-12 1-12 0-11 1-12 0-12-1-12-2-12-3-13-5-13-6-13-5-11-6-11-4-11-4-12-2-11-1-10 0-14 2-13 4-12 5-10 6-10 5-9 4-10 4-10 8-15 0 0 0 0 17 16 1 12-3 11-6 12-6 11-6 9-5 10-2 10-1 10 1 12 3 13 4 10 5 11 6 12 6 14 6 14 4 15 3 16 1 15-1 12 0 12 0 13-2 14-2 13-4 13-5 12-5 10-8 12-8 9-11 8-10 5-11 5-12 4-11 4-10 4-10 5-9 6-8 8-8 8-4 5-2 2-1 1-2 0-2 1-2-1-2 0-1-1-2-2-1-2 0-2 0-2 1-1 0-2z"  fill="#fff" /><path d="M107-159l-3 6-6 13-8 12-8 11-9 11-11 11-11 9-11 10-10 10-7 11-7 12-3 13-1 12 2 15 3 20 1 11 0 12-1 13-1 12-2 14-2 16-3 16-2 18-2 19-2 20-1 22-1 22-1 24-1 24 0 25 0 25 1 26 0 28 1 29 0 29-3 31-4 32-5 34-5 36-6 37-5 38-5 41-4 43-6 47-10 49-15 49-19 52-20 53-20 54-18 58-16 58-15 58-16 61-18 61-20 62-24 61-26 60-24 60-21 58-17 56-13 53-7 51-4 49-2 49-1 49 0 47 2 48 2 49 3 47 4 47 4 45 4 43 5 44 5 42 4 43 6 44 7 44 8 44 8 44 7 45 53 312 0 0 0 0-55-312-7-45-8-44-8-44-7-44-6-44-4-43-5-42-5-43-4-44-4-45-4-47-3-47-2-49-2-48 0-48 1-48 2-49 4-49 7-51 13-54 17-55 22-58 24-60 25-61 24-61 20-61 18-62 16-60 15-59 16-58 19-58 19-54 20-53 19-51 15-50 10-49 6-46 4-44 5-40 5-39 6-37 5-36 5-34 4-32 2-30 1-29-1-29-1-28-1-26 0-26 0-24 0-24 0-24-1-22 0-22 0-20 0-20-1-18 1-17 1-15 0-14 0-13 0-11 0-10-1-10-4-19-3-19 2-18 5-17 8-15 10-15 12-11 12-10 10-8 10-8 9-10 8-10 8-10 7-11 4-5 1-2 1-1 2-1 2-1 2 0 2 1 2 1 1 1 1 2 1 2 0 2 0 1-1 2z"  fill="#c2e1ff" /><path d="M95-157l-4-2-11-6-9-6-9-5-8-7-7-10-4-10 1-11 4-11 7-10 8-7 8-7 8-6 10-3 7-3 0 0 0 0 2 6 0 11 0 10-8 8-9 7-8 6-4 9 5 9 9 8 8 6 10 9 4 3 1 2 1 1 1 2 0 2-1 2 0 1-2 2-1 1-2 1-1 0-2 0-2-1-2-1z"  fill="#005bbb" /><path d="M104-169l7 3 15 7 18 7 19 6 10 4 18 5 18 4 18 5 17 6 18 8 9 5 9 7 8 7 7 7 7 9 6 9 6 9 4 10 3 10 2 10 1 11 0 10-1 11-1 10-2 10-3 11-3 10-4 10-5 10-4 10-5 9-9 17-9 15-8 13-6 12-4 11-3 12-2 11-3 14 0 12 0 11 0 11 1 11 1 10 0 11 0 11-3 11-6 8-19 10 0 0 0 0-5-20 3-12 1-10 0-11-1-13 1-10 1-11 0-13 2-10 2-11 3-11 3-12 5-13 7-14 8-13 9-13 9-15 9-17 4-9 4-9 3-10 6-17 3-19 0-17-2-17-5-16-9-15-13-14-13-11-16-8-16-7-17-6-17-4-19-5-9-4-10-3-10-3-10-4-18-8-16-8-7-5-1-1-2-1 0-2-1-2 0-2 1-1 1-2 1-1 2-1 1-1 2 0 2 0 2 1z"  fill="#c2e1ff" /><path d="M102-170l6 0 11 1 12 0 13 1 12 1 14 4 15 7 15 10 8 7 15 12 8 8 9 9 7 8 8 8 8 9 9 9 8 10 9 11 8 12 7 13 6 13 6 12 5 13 4 12 4 11 4 12 4 11 3 12 3 12 2 12 2 12 1 11 0 11 0 11 0 11-2 11-4 19-6 17-8 16-9 12-10 11-10 8-11 7-10 6-12 6-11 5-12 5-13 6-14 6-13 6-14 6-13 5-13 5-11 4-10 4-11 4-13 5-12 4-14 4-15 4-12 5-47 9 0 0 0 0 45-36 14-5 14-4 13-4 11-4 12-4 11-5 11-3 12-4 12-4 12-5 14-7 15-7 13-5 13-6 11-4 10-5 10-4 10-6 9-5 8-7 9-9 7-11 7-13 5-16 4-19 2-19 0-11-1-10-1-11-2-11-3-12-3-11-3-11-4-12-4-11-4-12-5-12-5-11-6-12-7-11-8-11-9-10-9-9-9-9-8-8-8-8-8-7-8-8-8-6-8-7-15-11-13-9-10-6-11-3-11-2-11-2-12-2-14-2-6-2-1 0-2-1-1-2-1-1-1-2 0-2 0-2 1-2 1-1 2-2 2 0 2-1 2 1z"  fill="#c2e1ff" /><path d="M106-157l-3 4-8 9-6 8-8 7-8 8-8 6-9 6-9 6-13 5-12 4-11 1-11-3-10-8-4-12 0-11 0-11-4-9 1-11 0-12 0 0 0 0 6-1 9 4 10 3 5 10 3 10 0 12 1 12 12-3 11-4 11-6 12-8 11-9 8-7 8-7 4-4 2-1 1-1 2 0 2 0 2 0 2 1 1 1 1 2 1 2 0 2 0 2-1 1-1 2z"  fill="#005bbb" /><path d="M107-159l-4 7-8 16-10 15-9 15-10 15-11 16-14 15-7 6-17 11-18 5-16 3-16 1-16-1-15-1-15 1-15 1-15 2-13 1-11 2-13 4-10 5-9 6-9 7-8 8-6 10-7 10-7 8-6 8-6 9-5 12-5 12-4 10-4 9-5 10-6 9-7 9-9 7-12 7-28-4 0 0 0 0 17-24 10-6 6-8 6-13 4-9 5-12 5-13 6-12 8-11 7-9 7-9 7-9 7-10 8-7 10-7 10-7 12-6 10-4 11-3 12-2 13-1 14-2 15-1 17-1 17 0 15 1 13 1 14-1 14-2 13-5 13-10 12-13 11-14 10-15 9-14 11-15 9-14 4-7 1-1 2-1 1-1 2 0 2 0 2 0 2 1 1 1 1 2 1 2 0 2 0 2-1 1z"  fill="#c2e1ff" /><path d="M93-160l-3-6-7-13-7-16-6-17-5-18-5-17-7-13-9-12-9-10-9-9-10-7-10-7-9-6-11-4-14-2-12-1-12 3-11 7-9 8-11 8-9 8-8 9-9 9-10 7-9 8-7 9-4 10-4 13-2 10-2 12-3 11-5 12-5 12-5 11-4 10-22 26 0 0 0 0-7-31 4-13 5-12 6-11 5-12 3-14 2-11 2-12 3-11 5-11 6-11 7-8 11-10 11-7 7-7 8-9 10-8 10-7 10-7 12-9 9-5 12-3 12-1 10 1 15 3 11 4 12 5 10 7 11 9 11 9 10 10 10 12 10 15 8 17 5 18 4 17 5 16 6 15 5 15 2 7 1 1 0 2-1 2 0 2-2 1-1 1-2 1-2 0-2 0-2 0-1-1-1-2-1-2z"  fill="#c2e1ff" /><path d="M107-159l-2 7-5 15-4 15-4 14-2 12-4 13-3 12-5 11-4 10-6 13-2 13-2 11-2 12-2 11-2 13-4 14-2 14-3 16-2 16-1 17 0 19 1 18 4 17 6 16 7 14 9 14 9 14 10 14 11 12 13 10 14 10 16 11 16 10 8 6 8 7 8 6 9 8 8 7 8 8 8 7 7 8 13 14 11 10 11 9 10 8 10 8 8 8 9 9 6 10 6 10 5 44 0 0 0 0-30-37-7-12-9-11-8-8-9-8-10-9-12-11-12-13-13-14-8-7-7-8-9-7-8-6-8-7-15-11-16-10-16-11-16-10-15-13-12-14-12-14-9-15-9-15-9-17-4-9-3-10-2-10-2-10-2-10-1-20 0-18 0-20 3-16 2-16 3-14 3-13 2-12 2-11 2-12 2-12 4-11 4-11 7-13 5-9 4-10 4-12 4-13 4-14 6-15 6-16 4-7 1-1 1-2 2-1 1 0 2-1 2 1 2 1 2 1 1 1 1 2 0 2 0 2-1 2z"  fill="#fff" /><path d="M92-165l2-6 2-11 2-11 1-12 0-10-1-15-2-13-3-10-5-10-8-6-12-4-9-2-10-4-13-4-12-3-13-5-13-6-12-8-11-8-10-8-9-8-9-9-9-9-9-10-10-11-8-9-9-8-9-6-9-6-11-5-10-4-10-3-14-3-14 0-10 2-12 3-11 8-8 6-41 13 0 0 0 0 20-32 8-7 10-6 11-7 13-4 12-2 12-1 13 0 13 2 12 4 12 4 11 6 12 6 12 8 11 8 10 10 9 10 9 10 9 9 9 8 8 8 8 7 10 8 9 6 10 5 10 4 11 4 12 3 10 3 12 4 12 4 13 5 9 8 7 9 5 12 3 13 1 15 0 10 0 11-1 13-2 12-3 12-5 13-2 5-1 2-2 1-1 2-2 0-2 1-2-1-2 0-1-1-2-2 0-2-1-2 0-1 0-2z"  fill="#fff" /><path d="M92-162l-1-6 0-12 0-11 1-11 0-11-1-13-4-12-3-12-2-11-5-12-6-9-9-8-10-4-9-4-11-5-12-6-10-5-11-5-9-5-10-4-11-5-10-5-10-4-12-7-9-7-8-8-7-8-6-10-4-10 0-31 0 0 0 0 32 25 5 9 7 7 8 7 12 6 11 5 10 4 12 6 11 6 11 5 11 6 11 6 12 6 12 6 11 6 10 9 7 9 6 11 4 12 3 13 2 12 2 13 1 11 0 12-1 11-2 11-2 10-1 10 0 6 0 2-1 2-1 2-1 1-2 1-2 0-1 1-2-1-2-1-2-1-1-1-1-2 0-2z"  fill="#005bbb" /><path d="M107-167l3 5 7 8 9 10 11 10 11 8 9 6 9 6 13 7 11 3 13 2 12 0 12 1 11 2 10 2 12 2 10 0 11-3 5-9 2-12 3-10 5-11 6-9 10-3 19 2 0 0 0 0-5 12 0 12-5 9-2 10-2 10-4 10-7 9-10 7-10 4-13 2-10 0-12-1-10-2-10-2-11-3-10-1-13-1-10-2-10-3-10-5-9-5-10-7-9-7-9-7-9-8-6-7-8-9-6-9-5-9-3-5 0-2-1-2 0-2 1-2 1-1 1-2 2-1 1 0 2-1 2 1 2 1 2 1 1 1z"  fill="#fff500" /><path d="M108-164l2 5 4 10 6 10 7 10 9 8 10 6 11 5 11 1 10 0 14-3 12-6 10-6 9-7 10-6 9-7 10-7 9-6 10-11 8-11 9-11 10-13 10-12 9-13 9-13 9-14 7-15 10-14 10-15 9-13 11-14 13-12 13-10 14-6 13-4 14-3 11 0 11 0 13 2 10 0 11-1 13 1 11 1 19 18 0 0 0 0-30 10-10-1-12 0-11-1-13-2-12-2-13 0-11 3-10 3-11 6-10 8-10 11-10 13-9 13-9 14-7 14-9 16-9 14-10 15-9 13-10 12-8 12-9 12-9 11-11 10-9 7-9 6-10 7-10 7-10 7-11 6-12 6-13 4-13 1-14 0-16-4-15-7-13-9-11-12-8-13-5-12-4-13-1-6 0-2 0-2 1-1 1-2 2-1 1-1 2-1 2 0 2 1 2 1 1 1 1 2 1 2z"  fill="#c2e1ff" /><path d="M98-155l-6-1-14-5-13-7-14-11-13-12-13-10-13-9-13-8-14-7-14-8-13-7-14-8-14-8-15-5-15-3-16-4-16-4-14-3-13-2-12 0-12 0-11 2-12 5-10 8-9 12-6 9-5 10-3 9-3 12-3 14-4 16-3 16-4 18-4 18-3 19-2 19-2 19-2 18-1 17-2 16-2 16-2 16-2 14-1 13 0 10-7 41 0 0 0 0-17-29-1-12 1-12 2-14 2-15 3-15 2-15 2-16 2-17 1-18 2-19 2-20 1-10 3-19 3-19 2-17 3-18 4-14 3-13 3-14 6-13 8-12 7-10 8-9 10-9 12-7 14-4 13-1 15-1 15 2 14 2 15 4 15 4 16 3 17 4 18 7 16 8 14 8 13 8 13 7 14 8 15 9 14 10 14 12 11 12 11 9 11 7 10 6 6 2 2 0 2 2 1 1 1 2 0 2 0 2-1 1 0 2-2 2-1 1-2 0-2 0-2 0z"  fill="#c2e1ff" /><path d="M106-168l4 4 9 8 10 7 9 7 10 6 11 5 10 4 11 1 11 0 14-3 12-6 10-8 9-9 4-9-3-10-10 1-7 8-10 5-11 0-7-3 0 0 0 0 5-11-2-10 7-9 9-9 10-4 10-1 11 2 9 4 10 9 6 10 3 10-1 13-4 10-6 9-9 9-11 9-9 6-11 5-14 5-14 1-14 0-15-3-13-5-12-7-11-8-11-9-9-9-8-9-4-5-1-1-1-2 0-2 0-2 1-2 1-2 1-1 2-1 2 0 2 0 1 0 2 1 2 1z"  fill="#fff500" /><path d="M101-155l-6 2-14 4-13 3-12 3-12 4-13 3-14 5-16 4-20 3-19 5-11 3-11 3-11 5-12 5-12 5-13 5-12 6-12 6-11 7-11 7-9 8-9 9-7 9-7 10-7 11-7 10-7 10-7 11-8 12-6 11-6 12-4 13-4 13-3 13-3 13-3 12-3 12-3 11-2 12-3 11-3 12-3 11-2 12-2 11-1 11 0 12-1 12-1 13-1 13-1 12-2 13-1 13-1 13-1 14 0 13-2 14-1 13-2 12-2 12-2 11-2 11-2 11-1 10-2 20-1 19 0 18-1 19-2 19 0 17-1 20-1 18-2 18-2 17-1 13-13 45 0 0 0 0-8-54 2-15 3-16 1-18 1-18 1-20 1-18 2-18 1-19 2-19 1-10 1-10 1-11 2-10 2-11 3-11 2-11 2-11 2-12 2-13 1-13 0-13 1-14 1-13 1-13 1-13 2-13 1-12 0-13 0-12 1-13 2-12 2-12 2-11 3-12 3-12 3-11 3-12 3-11 4-12 3-12 3-12 3-14 4-13 4-14 6-14 7-12 7-12 7-11 7-11 7-10 8-10 7-11 9-11 9-9 11-9 11-9 12-7 12-6 12-7 12-6 13-6 11-6 13-6 11-4 11-4 11-3 10-3 18-4 16-4 14-4 14-3 12-2 13-3 14-2 14-2 7-1 2 0 2 1 1 1 2 1 1 1 1 2 0 2 0 2-1 2-1 2-1 1-2 1-2 0z"  fill="#fff500" /><path d="M92-161l-2-7-1-17 0-17 2-17 5-16 6-15 6-13 6-12 6-11 5-10 5-9 8-12 7-9 6-9 5-9 5-11 6-10 8-8 6-9 3-10 8-10 9-6 12-2 11 2 10 5 9 25 0 0 0 0-30 1-4 10-6 10-8 7-8 8-5 9-7 10-6 9-8 10-8 9-7 10-5 10-6 10-7 12-6 12-6 13-5 13-3 15-1 14 0 15 1 7 0 2 0 2-1 2-1 1-2 1-2 1-2 1-2-1-1 0-2-1-1-2-1-1-1-2z"  fill="#fff" /><path d="M103-155l-6 3-15 5-16 2-17-3-16-6-15-9-13-13-11-13-8-16-6-18-3-19-1-18-2-16-3-18-6-15-9-16-11-16-6-7-8-8-9-7-9-7-9-8-9-6-9-5-10-5-19-4-17 0-15 3-15 7-16 9-14 11-13 13-12 17-5 9-6 11-6 13-5 12-6 13-5 12-5 13-4 13-3 12-4 13-4 13-2 13-2 12-2 13-2 12-1 11-1 12-2 10-2 11-2 10-6 18-6 15-6 13-7 13-9 11-10 10-9 8-9 9-36 24 0 0 0 0 20-42 9-8 10-8 8-8 8-8 7-11 7-12 6-13 7-16 5-18 1-11 2-11 2-11 2-12 2-13 2-13 3-14 3-13 4-13 3-13 4-13 5-13 5-13 5-13 5-14 5-13 5-12 6-11 6-10 7-9 7-9 8-7 8-6 9-6 9-6 18-8 19-6 10-1 10 0 11 1 11 2 12 4 11 5 10 6 10 6 10 8 10 7 9 8 10 8 8 8 7 9 6 9 5 9 5 9 4 10 4 9 4 20 2 18 1 17 2 15 4 14 7 13 8 11 9 10 11 7 13 6 12 3 12 0 12-3 7-2 2 0 2 0 2 0 1 1 2 1 1 2 1 1 0 2 0 2-1 2-1 2-1 1-2 1z"  fill="#fff500" /><path d="M107-167l3 5 8 9 8 6 9 6 10 6 9 5 10 6 10 7 10 7 12 8 11 9 10 10 10 10 10 10 10 11 11 10 11 8 14 7 16 7 18 4 19 2 19-2 19-6 11-4 12-3 13-4 13-4 13-6 12-6 14-8 13-7 14-8 14-8 13-8 13-7 13-8 12-8 13-7 11-9 10-8 8-10 7-10 4-11 3-11 2-13 1-14 1-15 0-17 2-17 3-18 3-19 3-20 3-21 5-22 6-22 7-23 7-24 8-25 9-27 11-27 15-27 19-28 21-28 24-29 24-29 26-29 29-30 29-31 29-30 27-30 27-30 26-29 174-190 0 0 0 0-172 191-27 29-26 30-28 31-29 30-29 30-28 30-26 30-24 29-24 28-22 28-18 28-15 27-11 27-9 27-7 25-7 24-7 23-5 22-4 22-2 21-1 20-2 19-1 18-1 17 0 16 0 16-1 15-2 14-4 14-6 12-8 11-9 11-11 9-12 8-13 8-12 8-13 7-13 8-13 8-14 8-13 9-13 8-13 9-14 8-13 6-13 6-13 5-12 4-11 4-10 4-12 3-11 2-11 1-12 0-11-1-11-2-10-2-19-7-17-8-15-10-12-11-10-11-10-10-10-10-9-9-9-8-11-8-10-7-9-7-9-6-9-7-10-7-10-8-10-10-7-11-3-5-1-2 0-2 0-2 1-2 1-1 1-2 2-1 2 0 2 0 1 0 2 1 2 1 1 1z"  fill="#c2e1ff" /><path d="M103-170l6 2 13 4 14 5 13 5 12 4 13 2 14 2 14 2 11 1 14-1 11-4 9-6 9-6 7-9 7-8 8-10 7-8 9-7 10-8 9-5 8-9 2-11 0-14 0-11 1-11-1-10-2-15-1-13 0-13 1-12-1-12-2-11-2-13-2-13-4-16-3-15-8-61 0 0 0 0 33 55 4 16 4 14 4 15 2 13 2 14 1 14 0 13 0 15 2 11 2 12 0 12 0 12 0 15 0 11-1 11-3 9-8 13-7 7-11 8-11 6-8 7-8 9-9 9-8 9-9 8-10 7-13 5-10 4-12 2-13 0-14-2-14-2-14-3-15-4-14-5-14-6-11-6-13-5-6-3-1-1-2-1-1-2-1-1 0-2 0-2 1-2 1-2 1-1 2-1 2 0 2 0 2 0z"  fill="#fff" /><path d="M95-169l6-4 10-9 9-8 7-8 7-8 6-9 5-8 7-12 5-12 5-13 4-9 4-10 3-10 3-10 2-10 3-13 4-14 5-12 4-9 7-9 10-8 10-4 12-2 12 2 12 5 9 9 7 10 8 9 8 7 10 9 11 9 10 8 12 6 9 5 13 3 12 2 42 21 0 0 0 0-46 8-13-2-14-3-11-5-11-4-10-6-9-6-11-10-10-8-11-9-10-10-8-11-8-8-10 1-8 7-5 11-4 10-3 13-3 11-3 10-3 11-5 11-5 14-4 9-7 14-5 9-6 8-7 9-8 9-8 9-10 8-10 8-11 8-6 3-2 1-2 1-2-1-2 0-1-1-2-1-1-2-1-2 0-1 0-2 1-2 1-2 1-1z"  fill="#c2e1ff" /><path d="M93-159l-3-6-7-9-8-9-9-10-9-12-8-12-8-13-8-12-7-13-7-11-7-9-6-8-10-9-9-10-7-8-10-9-7-9-9-5-13-2-10-1-11-1-10-2-11-4-11-5-10-6-9-6-11-5-10-3-10-3-13-1-11-1-21-19 0 0 0 0 24-13 11 1 12 1 13 3 12 4 10 4 10 5 9 6 9 6 10 5 12 3 10 1 11 1 11 2 9 4 10 5 10 10 9 10 8 9 7 9 8 9 7 8 7 9 7 11 8 13 6 12 8 13 7 12 7 12 7 10 9 11 8 12 6 12 2 6 1 2 0 2 0 2-1 2-1 1-2 1-1 1-2 1-2 0-2-1-2-1-1-1-1-2z"  fill="#fff" /><path d="M92-165l2-6 1-13-1-12-3-11-5-12-6-14-7-15-5-17-4-17-4-16-5-14-7-13-9-12-11-10-11-6-12-4-14-1-14 0-12 2-10 6-8 10-7 14-3 16 3 17 3 10 4 10 5 10 7 9 9 10 12 11 13 11 14 10 15 9 16 11 17 10 17 11 18 12 17 11 18 11 18 11 18 11 18 10 19 10 18 9 18 10 17 9 16 10 15 10 14 10 14 10 12 11 12 11 12 10 12 9 11 8 11 6 10 6 10 6 9 5 10 4 9 4 10 4 10 5 9 4 9 6 9 5 9 5 8 7 8 7 14 13 40 53 0 0 0 0-53-39-13-14-14-12-16-11-17-10-9-5-10-4-10-5-9-6-10-6-9-6-10-7-11-8-10-9-12-10-11-10-12-12-12-11-12-10-14-11-14-11-16-10-17-9-18-10-19-9-18-10-19-10-18-10-18-11-18-10-18-12-18-11-17-9-18-9-17-9-16-9-16-9-15-9-14-11-12-10-9-11-7-12-5-12-4-11-3-12-1-12 1-11 2-11 5-11 5-9 6-9 8-7 17-9 17-3 18 0 17 3 16 5 16 10 13 13 11 15 9 16 6 17 4 16 4 16 4 15 6 14 6 14 5 16 3 15-1 16-3 15-2 6-1 2-1 1-2 1-1 1-2 1-2 0-2-1-2-1-1-1-1-2-1-2 0-2 0-2z"  fill="#005bbb" /><path d="M104-156l-5 3-8 6-11 7-9 8-8 6-8 6-11 7-9 7-9 9-7 7-10 7-10 5-12 5-9 4-12 5-11 6-12 6-12 5-11 4-11 4-9 5-10 6-13 5-14 3-12 0-11-2-11-4-10-4-15-3-11-1-11 0-11 1-11 2-48-3 0 0 0 0 48-25 14-3 14-1 14 0 13 2 14 3 14 5 11 2 13-1 11-5 11-6 14-6 10-4 11-3 10-5 11-5 12-7 11-5 11-4 11-5 11-5 8-7 8-6 11-8 10-6 12-6 9-6 10-6 13-6 9-4 5-2 2-1 2 0 2 0 2 1 1 1 1 1 1 2 1 2 0 1-1 2 0 2-2 1-1 1z"  fill="#c2e1ff" /><path d="M95-169l5-4 9-10 6-11 7-12 6-12 5-12 4-14 6-14 5-9 8-12 9-9 7-7 8-7 10-7 14-3 10 0 12 3 10 1 8-7 7-9 10-2 16 1 0 0 0 0 0 10-4 11-4 11-7 8-10 5-12 3-11 0-11-2-10-3-11 3-8 7-10 9-7 7-5 9-6 12-5 13-4 10-5 9-5 9-9 12-7 8-7 8-10 7-4 3-2 1-2 0-2 0-2 0-1-1-2-1-1-2-1-2 0-1 0-2 1-2 1-2 1-1z"  fill="#005bbb" /><path d="M103-155l-5 3-10 5-9 4-10 5-10 6-10 5-10 5-10 6-10 6-9 6-10 6-9 7-9 9-10 9-9 10-9 11-9 11-8 12-5 11-3 10-3 11-1 10 0 12 3 10 7 11 9 8 10 5 10 3 11 3 10 3 11 3 14 4 12 6 10 8 6 8 8 11-11 27 0 0 0 0-20-17-7-8-8-6-12-4-13-4-10-3-12-3-12-5-11-6-11-9-7-7-6-9-4-10-3-11-1-11 1-12 2-13 3-12 5-14 7-13 8-13 10-13 10-12 10-11 11-10 10-10 11-8 11-7 10-6 11-5 10-6 11-5 11-4 10-5 11-4 10-3 10-4 6-2 2 0 2 0 1 0 2 1 2 1 1 2 1 1 0 2 0 2-1 2-1 2-1 1-2 1z"  fill="#c2e1ff" /><path d="M99-170l5-2 14-1 14 2 14 2 13 2 15 5 14 7 13 10 11 13 10 13 7 13 7 11 6 10 7 10 7 8 7 7 8 8 13 8 11 4 11 2 12 1 11-1 12-4 11-5 9-5 8-7 4-11 5-10 2-11-3-10 0-11-1-10 0 0 0 0 10 0 11 3 8 6 4 11 1 10-1 12-3 12-5 9-6 10-6 10-9 8-12 7-13 6-11 3-12 3-15 1-15-1-16-3-14-6-13-8-10-9-8-8-8-9-8-11-7-11-6-11-7-12-7-12-9-11-8-9-10-7-10-4-13-4-13-3-13-3-15-2-6 0-2 0-1 0-2-1-2-1-1-1-1-2 0-2 0-2 1-2 1-2 1-1 2-1 2 0z"  fill="#fff" /><path d="M96-156l-6-2-10-5-11-4-14-5-13-7-13-7-13-10-10-12-9-13-8-12-8-13-8-15-7-15-8-14-10-11-12-9-13-8-12-6-12-5-13-3-12-3-12-2-13-2-11 0-11 1-11 3-11 5-9 4-10 5-9 4-9 6-10 2-13 8 0 0 0 0-5-14 0-10 6-10 9-5 9-5 10-4 10-4 11-4 12-4 11-3 13-2 12 0 14 2 11 3 11 3 13 3 14 4 15 5 14 8 15 9 14 12 13 14 10 16 8 15 6 13 8 13 8 12 8 12 7 9 9 8 11 7 12 7 12 5 12 6 11 7 5 4 2 1 1 1 1 2 0 2 0 2-1 2-1 1-1 2-2 1-1 0-2 1-2-1-2-1z"  fill="#fff500" /><path d="M105-168l5 3 9 6 13 7 11 6 12 5 11 5 12 5 11 5 9 5 8 7 8 8 6 10 5 12 2 9 1 10-1 12-1 11-2 11-4 11-7 10-10 5-11-1-12-10 0 0 0 0 6-4 2-10 5-9 3-10 1-11 0-11-3-11-5-10-8-7-10-6-10-5-11-6-10-6-11-7-12-8-9-7-9-8-4-5-2-1 0-2-1-2 0-2 1-2 1-1 1-2 2-1 1 0 2 0 2 0 2 1 1 1z"  fill="#c2e1ff" /><path d="M94-167l3-5 6-10 8-9 9-9 11-8 10-5 11-5 12-4 12-4 13-2 13-1 14 1 14 4 15 5 16 8 16 9 13 12 14 11 15 10 9 6 17 9 15 5 15 2 16 1 16-1 14-3 13-4 10-5 11-9 6-10 1-13-4-10-8-11-7-8-8-6-8-6-12-5-14-9-15-10-14-13-13-13-12-13-12-12-12-11-41-46 0 0 0-1 56 29 13 12 13 13 12 12 13 12 12 10 13 9 13 7 13 6 13 8 10 9 9 10 7 10 6 13 3 13-1 13-4 12-7 11-9 10-13 9-14 5-15 4-16 3-18 1-18-1-20-3-18-7-9-4-10-5-9-5-9-6-9-5-14-12-12-9-13-8-14-6-13-4-12-3-14-2-10 1-11 2-10 3-10 4-10 4-13 6-8 6-7 8-8 8-3 4-2 2-1 1-2 0-2 1-2-1-2 0-1-2-2-1-1-2 0-2 0-2 1-1 1-2z"  fill="#005bbb" /><path d="M105-169l4 3 9 6 13 5 14 0 15 0 11 0 12 1 11 3 12 5 9 8 9 9 9 8 8 7 9 6 13 7 14 8 15 11 15 10 14 11 13 10 12 9 11 8 12 8 13 8 11 10 9 9 7 10 8 10 9 10 9 10 8 9 9 7 8 7 8 6 9 6 12 8 10 5 12 2 12 2 11 3 11 2 27 21 0 0 0 0-30 9-11-3-11-3-10-2-13-3-10-3-9-5-8-5-9-7-8-6-9-7-9-7-10-9-10-10-9-11-9-10-8-10-7-9-6-8-9-8-11-8-12-8-13-9-11-9-13-10-14-10-15-10-13-8-14-8-14-7-13-8-11-9-8-9-7-7-9-8-11-4-13-2-10 0-11-1-13-1-12-4-11-7-9-8-4-3-1-2-1-1-1-2 0-2 0-2 1-2 1-1 2-1 2-1 2 0 2 0 1 0 2 1z"  fill="#c2e1ff" /><path d="M93-166l2-7 6-13 6-15 6-13 6-13 6-12 6-10 4-10 6-9 7-12 5-10 6-11 2-10-1-12-2-10-1-11-5-12-7-13-4-10-6-12-7-11-8-12-7-11-5-10-6-11-7-12-8-12-9-11-8-10-10-9-9-7-10-5-11-5-11-7-10-5-9-6-8-7-9-8-7-9-2-33 0 0 0 0 29 23 9 9 11 8 9 5 10 6 11 6 12 7 13 9 10 10 11 11 10 12 10 13 8 13 7 12 7 13 8 12 7 9 5 9 5 9 6 14 7 12 4 11 3 10 1 12 2 10 0 12-1 12-4 13-6 10-6 10-8 11-8 11-5 10-6 10-7 11-6 12-7 13-7 14-7 13-4 6-1 2-1 1-2 1-2 0-2 0-2 0-1-1-2-1-1-2-1-1 0-2 0-2 1-2z"  fill="#c2e1ff" /><path d="M105-156l-5 4-12 8-12 6-13 4-14 2-17 1-19-2-19-3-18-4-15-4-14-3-12-4-10-2-14-2-13-3-11-2-11-1-12-2-11-5-8-6-6-9-4-10-7-8-5-8 1-11-1-11 0 0 0 0 8 1 10 3 10 5 6 8 6 9 4 10 8 5 11 3 10 2 12 3 12 3 10 3 12 3 11 4 13 4 16 4 16 4 17 2 17 1 15 0 11 0 11-3 10-3 11-6 5-3 2-1 2-1 2 0 2 1 1 1 2 1 1 2 1 1 0 2 0 2-1 2-1 2-1 1z"  fill="#005bbb" /><path d="M106-168l4 3 10 9 10 9 10 10 10 11 9 10 8 12 8 12 8 13 8 11 9 9 10 8 11 8 11 9 11 9 11 9 11 9 9 10 9 10 9 10 9 9 11 9 11 9 13 7 14 5 14 3 15-1 13-3 16-4 16-6 18-5 10-3 9-2 11-3 10-3 10-3 18-6 17-7 16-8 14-9 13-11 12-13 10-12 7-13 7-15 5-15 5-17 10-19 5-8 7-9 7-9 53-43 0 0 0 0-37 56-11 16-9 15-7 16-5 17-7 17-8 17-11 14-12 14-14 13-16 12-17 10-18 7-18 7-10 3-10 3-10 3-10 4-20 6-17 5-17 6-16 5-18 4-19 0-18-3-18-6-16-8-14-11-11-10-10-10-10-10-8-9-9-10-9-8-10-9-11-8-11-9-11-9-12-10-11-12-10-13-7-12-7-12-7-11-8-10-8-11-9-10-9-10-8-9-4-5-2-1-1-2 0-2 0-2 1-2 1-1 1-2 1-1 2 0 2-1 2 1 2 0 2 2z"  fill="#fff500" /><path d="M93-160l-3-5-5-10-5-9-7-10-6-11-5-13-6-13-7-13-8-13-11-14-10-11-14-13-7-7-14-15-8-8-7-8-8-8-8-7-8-7-8-7-8-6-16-10-17-8-16-5-16-3-17 0-20 3-11 1-11 2-12 1-11 0-11 0-10 0-11-1-10-1-10-2-20-4-10-3-10-3-9-4-10-3-17-7-17-6-18-8-18-8-10-5-10-6-10-6-10-6-10-8-10-8-10-9-9-9-10-9-11-9-11-9-11-8-12-8-14-8-13-9-14-9-14-8-13-8-13-7-13-6-13-5-12-5-12-4-11-3-12-2-78-13 0 0 0 0 80 0 13 2 13 4 12 5 12 6 13 6 12 6 14 7 14 8 14 8 14 8 14 8 14 7 13 8 13 8 11 9 11 9 11 8 10 9 9 8 10 7 9 7 9 5 10 6 10 5 9 4 9 4 18 8 17 7 17 7 18 7 18 6 18 5 18 4 19 2 20 0 11-1 10-1 11-1 11-2 11-2 11-1 10-1 20 2 10 2 19 7 17 9 10 5 9 6 9 7 8 7 9 7 8 8 8 7 8 8 8 8 7 7 15 14 14 13 12 13 11 14 11 16 8 15 5 14 4 11 5 11 5 10 5 12 4 11 1 6 1 2 0 2-1 1 0 2-2 2-1 1-2 0-2 1-2-1-2 0-1-1-2-2-1-2z"  fill="#fff500" /><path d="M107-167l3 5 8 11 8 14 7 15 4 18 4 19 1 11 1 10 1 12 0 12 0 13 0 14-1 15-2 16-2 18-1 18 1 21 1 21 3 23 4 24 4 25 3 27 4 29 5 31 4 32 1 35-1 38-4 40-5 41-9 45-10 45-15 46-20 48-23 51-25 55-33 60-36 64-42 69-49 69-52 65-54 65-58 62-61 60-64 62-63 65-58 72-55 76-53 80-52 84-48 87-41 91-33 94-26 98-20 103-10 105 5 108 13 110 24 107 33 107 35 106 35 105 37 104 42 103 46 104 44 113 51 120 64 125 68 133 78 141 84 145 84 146 79 145 81 143 83 137 79 130 77 124 69 119 61 115 51 111 43 108 39 104 31 101 27 102 25 100 19 100 12 98 8 96 8 95 4 93-2 604 0 0 0 0 0-604-4-93-8-95-8-96-12-98-19-99-25-101-27-101-31-102-39-103-43-108-51-111-60-115-70-119-76-124-80-130-82-137-82-143-79-145-84-146-83-145-78-141-69-133-63-126-51-119-45-113-45-105-43-102-37-105-35-104-35-106-33-107-24-107-13-111-5-108 10-106 20-103 26-98 33-94 42-91 48-87 51-85 54-79 55-77 57-71 63-66 64-62 62-60 58-62 53-64 53-65 49-69 42-69 35-64 33-59 25-56 23-51 20-47 15-47 10-45 9-44 5-42 3-39 2-38-2-34-4-33-5-31-4-29-4-26-4-26-5-23-4-23-3-22-3-20-2-20 0-18 0-16 0-14 0-13-1-12-1-12-2-11-2-21-3-17-4-16-5-14-5-12-6-12-4-5-1-2 0-2 0-1 0-2 1-2 2-2 1-1 2 0 2-1 2 1 2 0 1 1 2 2z"  fill="#fff500" /><path d="M96-156l-4-1-12-4-11-4-11-4-11-4-13 0-11 3-12 4-11 5-14 8-11 7-10 7-11 9-10 9-10 10-11 12-15 14-9 6-9 5-9 5-9 4-11 3-10 1-10 2-11 1-11 1-12 0-12 0-13-2-14-2-15-2-16-2-17-4-17-5-16-5-16-7-16-7-15-6-16-7-16-7-16-7-16-6-15-5-15-4-14-3-15-4-14-2-15-1-15-2-15-2-16-2-15-3-15-3-15-4-14-4-15-5-14-5-13-6-14-5-14-5-15-5-14-4-15-4-16-4-16-4-16-3-16-2-112-7 0 0 0 0 112-2 18 2 16 3 17 3 15 4 16 4 15 4 14 5 15 5 14 5 13 6 13 5 14 5 15 4 14 4 15 3 15 3 15 2 15 2 15 2 15 2 15 2 15 4 15 4 14 5 16 5 16 6 16 6 16 7 16 6 16 7 15 6 16 5 16 5 16 3 16 2 16 1 15 0 14 1 12 0 12 0 10 0 10-1 20-4 16-3 15-8 14-10 12-12 11-12 11-12 11-10 12-10 12-9 11-7 11-6 9-5 10-4 10-3 10-3 12-1 11 0 10 3 11 5 11 6 10 5 13 7 4 3 1 1 1 1 1 2 1 2 0 1-1 2-1 2-1 1-1 1-2 1-2 0-2 0-2-1z"  fill="#005bbb" /><path d="M93-158l-3-5-6-11-2-13-1-12 2-13 4-11 5-10 7-10 8-10 9-10 11-8 11-6 12-3 12-2 12-2 13 0 12 0 12 0 12-1 13-1 13-1 13-2 13-2 13-1 12-2 12-1 12-1 13 0 12-1 13-2 13-1 11-2 11-1 11-2 14-1 10-1 14-1 15-2 11-1 10-1 11 1 14 0 11 0 13 1 34 18 0 0 0 0-39 11-13-1-13 0-13-1-13 0-10 1-10 1-10 1-10 1-14 1-15 1-10 1-11 1-12 2-13 1-14 2-14 1-12 0-11 1-11 1-12 1-12 2-15 2-13 2-13 1-13 1-14 1-13 0-11 0-15 1-14 2-11 5-12 8-7 8-9 12-7 11-4 12 0 14 2 12 3 5 1 2 0 2 0 2-1 2-1 1-1 2-2 1-2 0-1 0-2 0-2-1-2-1-1-1z"  fill="#005bbb" /><path d="M102-170l7 1 13 3 13 4 14 5 13 5 11 7 11 6 9 6 10 5 10 5 14 6 12 4 11 5 12 6 11 7 10 8 10 8 9 9 9 9 8 10 6 10 5 10 4 13 3 12 0 12-3 10-7 9-10 7-9 2-11 2-10 2-11-4-13-15 0 0 0 0 13-7 9-6 10-1 11 0 2-10-2-11-5-12-7-11-7-9-7-7-9-8-8-7-9-6-9-5-11-5-10-5-12-4-11-6-10-6-10-6-10-6-10-7-9-6-11-6-12-5-12-5-13-4-6-3-2-1-2-1-1-1-1-2 0-2 0-2 1-2 1-1 1-2 2-1 2 0 2-1 1 1z"  fill="#fff" /><path d="M94-157l-5-4-10-11-9-12-7-12-6-13-6-14-5-14-7-16-3-10-2-10-2-10-2-11-1-10-1-10-1-10 0-11 0-11 2-11 3-10 3-10 4-10 4-11 3-10 3-12 3-13 4-13 3-14 4-14 6-16 4-15 5-16 3-16 3-17 5-19 3-20 3-21 2-21 0-22-1-21-4-21-6-19-8-20-10-20-11-22-14-24-18-23-20-24-23-24-24-25-24-25-23-25-22-28-20-29-17-32-14-33-10-34-6-36-4-36-3-37-2-39-1-37 0-38 2-38 1-38 0-39 0-40-1-42-2-42-4-43-5-42-9-41-11-41-13-40-14-41-14-40-14-41-12-41-13-42-12-43-11-43-11-43-12-43-12-43-14-41-14-39-15-38-101-240 1 0-1 0 103 240 15 37 14 39 14 42 12 43 12 42 11 44 11 43 12 42 13 42 12 41 14 41 14 40 14 41 13 41 11 40 9 42 5 42 4 43 2 42 1 42 0 40 0 39-2 38-1 38 0 38 1 37 2 38 3 38 4 36 6 35 10 35 14 32 17 32 19 29 22 27 24 26 24 25 24 24 22 25 21 23 18 24 14 24 11 22 10 20 9 20 6 20 4 21 2 21 1 22-1 22-2 21-2 21-3 18-2 18-3 17-3 17-4 15-4 15-3 15-3 14-2 13-2 13-3 13-3 12-4 10-3 10-5 18-3 17 2 19 3 20 3 19 6 17 6 16 6 15 4 12 5 13 5 11 7 11 7 10 5 5 1 1 1 2 0 2 0 2-1 2-1 1-1 2-2 1-2 0-1 1-2-1-2-1-2-1z"  fill="#c2e1ff" /><path d="M100-171l6 0 11-2 10-3 9-4 12-7 8-6 10-9 6-10 1-11-1-10-3-11-3-10-3-11-1-11-2-11-4-9-8-9-8-6-10-5-14-5-10-2-11-3-10-3-14-3-13-3-12-3-12-2-11-1-12-1-12-1-13 1-13 4-34 1 0 0 0 0 23-29 14-5 10-2 11 0 13 1 12 1 11 1 13 1 12 3 12 4 12 3 10 2 10 3 11 2 12 3 12 4 11 4 12 8 9 6 7 8 6 8 4 9 4 13 1 11 1 11 2 12 3 13 2 10 0 12-2 12-5 12-8 11-10 9-10 6-10 5-11 5-11 3-13 2-13 1-6 0-2-1-2 0-1-1-2-2 0-1-1-2 0-2 0-2 1-2 2-1 1-1 2-1 2 0z"  fill="#fff" /><path d="M94-157l-4-5-9-8-8-6-13-6-14-3-15-3-14-2-14 0-11 1-11 4-6 8-2 11 4 9 6 9 4 10 4 9 7 14 0 0 0 0-17 8-11-2-7-7-6-9-3-10-5-9-4-9-2-11 1-11 4-11 5-10 9-10 13-6 13-3 10-1 10 0 12 1 12 2 10 3 10 2 11 4 11 5 11 7 10 9 7 10 4 5 1 2 1 2 0 2 0 2-1 1-1 2-2 1-1 1-2 0-2 0-2 0-2-1-1-1z"  fill="#c2e1ff" /><path d="M105-167l6 5 13 14 8 9 7 11 6 12 4 14 4 14 2 16 2 16 0 18-2 19-3 19-4 21-4 21-5 21-4 22-4 22-3 22-4 23-3 23-4 24-3 25-5 23-5 24-5 24-4 23-3 23-4 25-2 25-1 26 2 25 6 26 7 25 10 26 11 27 12 27 13 27 13 26 13 26 13 26 15 25 18 24 19 22 21 20 22 17 23 16 22 14 22 12 22 10 21 9 21 8 20 7 19 4 18 3 18 1 17 1 17 1 15 0 15-1 14 0 13-2 12-2 12-2 11-3 10-3 16-8 13-8 11-8 9-8 8-7 9-9 6-9 6-10 6-11 3-9 14-22 0 0 0 0 13 21-2 11-6 12-7 11-7 11-10 11-8 7-8 6-10 7-12 7-14 7-17 8-10 3-11 2-12 2-12 2-13 1-13 0-14 0-15-1-16-1-16-2-17-1-18-2-18-4-19-5-21-6-20-8-22-9-22-10-22-13-23-13-22-16-22-18-22-20-19-22-18-24-15-25-13-26-12-26-14-26-13-27-12-27-11-27-9-26-8-26-5-26-3-25 1-26 2-26 4-24 3-23 4-24 5-23 5-24 5-24 3-24 3-24 4-24 3-23 3-22 3-22 4-22 4-21 3-21 2-21 1-19 1-18-2-16-2-16-3-14-4-13-5-12-5-10-5-10-7-8-13-15-5-6-1-1 0-2-1-1 1-2 0-1 1-2 1-1 1-1 2 0 2 0 1 0 2 1 1 1z"  fill="#fff500" /><path d="M102-170l6 1 12 2 12 2 10 3 10 4 13 5 12 4 10 3 11 3 10 3 12 5 10 3 10 3 10 3 11 0 10-1 12 1 10 4 9 6 7 7 3 11 5 9 0 0 0 0-11 4-11 1-11-4-9-6-10-1-10 0-10-1-10-3-10-4-11-4-10-4-9-4-12-4-9-5-10-4-12-6-13-6-13-6-10-3-12-4-6-2-2 0-1-1-2-2 0-2-1-1 0-2 0-2 1-2 2-1 1-2 2 0 2-1 2 1z"  fill="#005bbb" /><path d="M97-155l-6-2-12-3-11-2-14 3-9 5-10 8-12 9-11 5-14 3-15-2-14-6-11-7-12-9-11-9-10-8-10-7-10-6-10-5-10-3-11-3-11-1-12-2-11-3-11-4-9-5-9-7-10-10-8-8-9-7-10-7-9-7-12-7-9-7-9-9-7-13-2-10 0-11 3-15 4-10 33-29 0 0 0 0-6 44-2 10 0 12 7 9 9 7 10 6 9 7 9 7 10 9 10 10 10 11 11 7 13 3 11 2 13 3 12 2 14 5 12 6 12 8 11 8 11 8 10 8 10 7 10 6 11 5 10 0 10-4 11-8 9-6 11-5 12-2 15 0 13 3 13 5 6 3 2 1 1 1 1 2 1 2 0 2 0 2-1 1-1 2-2 1-1 1-2 1-2 0-2-1z"  fill="#c2e1ff" /><path d="M100-171l6 0 12-2 12-2 12-2 12-2 11-3 11-3 9-3 11-7 7-8 8-10 10-11 9-11 9-8 10-9 11-8 10-10 11-10 12-10 10-10 9-9 7-10 7-10 6-8 5-9 7-13 6-12 6-14 6-10 6-11 6-9 5-10 5-9 7-9 8-9 7-8 6-9 7-9 10-6 20-1 0 0 0 0-3 18-5 10-7 8-6 8-7 7-9 9-7 9-5 9-5 10-6 10-7 14-5 9-5 10-7 13-8 13-6 10-8 9-8 11-9 11-10 11-12 10-10 10-11 11-11 10-11 9-11 10-10 10-8 10-10 10-8 8-9 7-11 5-12 4-12 3-14 2-12 1-12 1-13 0-12 1-7 0-1-1-2 0-2-1-1-1-1-2-1-2 0-2 0-2 1-2 1-1 2-1 2-1 1-1z"  fill="#fff500" /><path d="M92-164l1-6 2-12 1-11 1-11 2-13 3-13 3-13 4-13 6-15 5-14 5-16 4-19 3-11 2-12 3-12 2-12 1-11 1-11-2-11-2-11-3-11-4-12-5-11-6-13-7-13-5-13-6-14-5-14-5-14-4-14-5-14-4-15-4-15-4-15-3-16-3-15-3-15-2-15-1-15-2-15 0-15 0-14 1-15 1-15 3-16 4-15 5-14 7-15 8-14 10-13 11-12 12-11 12-10 13-10 14-9 14-8 15-8 14-7 14-8 15-8 15-8 15-7 16-8 16-8 15-9 15-9 14-10 16-9 15-10 16-10 17-11 17-11 18-13 18-14 18-17 18-19 17-20 19-21 19-20 20-22 21-22 22-25 21-27 146-185 0 0 0 0-144 187-21 27-22 24-21 23-20 21-19 21-19 21-18 20-17 19-18 17-18 15-18 13-17 12-16 12-16 11-15 10-15 9-15 9-14 10-16 9-15 9-16 8-15 8-15 8-14 8-15 8-14 8-14 7-14 8-13 9-12 10-12 10-11 10-11 12-9 11-7 14-6 13-5 14-4 15-3 14-1 14-1 15 0 14 0 14 1 14 2 15 2 15 2 15 3 15 4 15 5 15 4 14 4 15 5 14 4 14 5 13 6 13 6 14 6 13 7 12 6 13 7 12 5 13 4 13 3 12 1 13 0 12-1 13-2 12-1 12-2 12-2 12-2 11-2 10-4 18-6 16-5 12-4 13-4 12-4 11-2 12-2 11-3 12-3 12-2 5-1 2-1 2-1 1-2 1-2 1-2 0-2-1-1-1-2-1-1-2-1-1 0-2 0-2z"  fill="#005bbb" /><path d="M100-154l-7 0-14 2-15 1-13 1-14 2-12 1-13 1-12 1-12 0-10-1-11 0-14-2-12-2-13-2-13-3-10-1-12 1-13 2-10 3-9 5-7 8-7 13-7 16-7 19-4 10-5 11-5 12-6 12-6 12-6 12-7 12-6 11-5 12-5 12-5 12-6 12-6 12-5 12-5 12-6 14-6 15-5 15-5 17-5 18-6 19-6 19-5 18-4 18-3 18-3 17-1 16 0 15 0 15 0 14 1 13 1 12 2 11 4 10 7 17 10 15 9 12 23 44 0 0 0 0-38-34-9-14-8-17-4-10-3-10-2-11-2-12 0-13 0-13 1-14 1-15 1-15 2-16 3-18 3-18 4-18 5-19 4-19 5-19 3-18 4-18 4-17 5-15 5-14 5-13 5-13 6-12 5-11 5-12 5-12 5-13 6-12 6-12 5-12 5-13 5-11 4-12 3-10 4-10 2-10 3-11 4-9 3-10 10-17 13-15 15-8 12-5 12-2 11-1 11 0 10 1 13 3 12 3 11 2 13 2 13 2 10 1 11 1 11 0 12 0 13-1 13 0 15-1 14 0 14 0 8 0 2 1 1 0 2 1 1 2 1 1 1 2 0 2 0 2-1 2-1 1-2 1-2 1-2 1z"  fill="#c2e1ff" /><path d="M105-169l5 4 9 5 10 7 11 7 9 9 8 10 6 9 6 10 6 12 6 13 5 11 4 12 4 11 3 12 2 11 3 12 2 10 3 11 4 11 4 9 4 10 4 10 6 10 7 9 10 7 12 5 11 2 13 0 10 2 13 5 13 4 10 3 39 22 0 0 0 0-40 9-12-3-11-3-14-4-12-4-11 0-13-3-12-3-12-6-11-7-8-7-6-9-7-13-5-10-5-11-4-11-4-12-3-11-4-13-2-12-2-11-1-10-4-13-3-11-5-11-4-12-5-12-6-13-8-12-7-8-8-7-10-7-9-8-4-4-1-2-1-1-1-2 0-2 0-2 1-2 1-1 2-1 2-1 2 0 2 0 1 0 2 1z"  fill="#fff" /><path d="M93-161l-2-7-6-17-3-10-4-10-5-11-7-10-7-11-9-9-9-9-11-9-11-8-11-8-11-9-11-8-11-9-12-9-11-8-10-7-11-8-10-6-10-8-10-7-9-8-9-9-8-8-8-9-6-9-7-9-5-8-10-17-7-17-5-16-2-16-1-16 1-16 1-17 0-15 0-14 0-14-1-16 1-16 1-15-1-13-1-12-2-12-2-12-1-11-1-11-1-10-2-12-2-10-2-12-1-10 1-12 3-13 7-7 16-8 1 0 0 0 3 20-1 12-1 10 0 10 2 11 2 14 1 10 1 11 0 10 1 11 1 12 2 13 0 14 0 16-1 15 0 15 0 15 0 14 0 16-1 16-1 16-1 15 0 13 2 14 4 14 7 16 9 16 6 8 6 9 6 8 8 8 8 8 8 8 9 8 10 7 10 7 10 8 11 8 11 8 12 8 11 9 11 8 11 8 12 8 11 9 12 9 11 9 10 11 8 11 7 12 7 12 4 11 3 11 4 17 2 8 0 1 0 2-1 1-1 2-1 1-1 1-2 0-1 0-2 0-2-1-1-1-1-1-1-2z"  fill="#c2e1ff" /><path d="M107-159l-3 8-8 17-4 10-4 9-8 18-5 19-3 10-4 10-3 10-3 10-6 18-4 17-4 16-3 17-4 18-5 16-5 16-4 14-3 15-3 15-2 15-2 13-1 13-2 13-3 15-6 13-7 14-7 13-8 13-9 13-9 12-10 11-10 11-11 11-11 11-12 12-11 12-8 12-6 11-4 11-1 14 2 13 1 10 2 11 2 11 1 12 1 11 2 11 1 11-10 38 0 0 0 1-17-36-1-10-2-12-1-12-1-11-1-10-1-11-2-10-1-12 0-13 3-14 6-14 7-13 10-14 12-14 11-12 12-12 10-10 9-10 9-10 9-11 8-12 7-12 8-14 6-11 4-10 3-11 2-13 2-13 2-15 3-14 3-16 4-16 4-15 5-15 5-16 5-16 3-17 5-17 5-18 6-18 3-10 3-10 4-10 3-10 3-10 3-10 4-9 4-10 10-18 8-17 4-8 1-1 1-2 2 0 2-1 2 0 1 0 2 1 2 1 1 2 0 1 1 2 0 2-1 2z"  fill="#005bbb" /><path d="M108-165l2 7 6 11 9 9 13 8 15 7 15 4 17-1 20-3 11-2 11-2 13-1 14-1 14-2 15-2 15-3 15-3 15-5 14-7 15-7 14-9 14-9 15-11 15-11 16-12 16-13 18-14 19-16 20-16 19-16 19-17 19-15 18-16 18-16 16-15 17-15 16-15 15-13 15-14 15-13 14-13 13-13 11-12 11-13 10-14 9-14 8-14 7-14 7-14 8-14 7-14 7-15 7-16 6-16 7-16 6-16 7-16 5-15 5-15 4-15 4-15 4-14 2-13 3-14 2-12 2-12 1-11 1-10 0-18-1-15-2-13-1-13-1-11 1-11 2-14 3-14 24-32 0 0 0 0 1 35-4 12-3 12-2 12-1 11 0 12 0 14 0 16-2 18-2 11-2 11-3 12-3 13-3 13-3 14-4 14-5 14-5 15-5 15-6 16-6 16-6 16-6 17-7 15-7 16-6 16-8 14-8 14-7 13-9 14-8 14-10 14-10 14-12 13-12 12-13 12-14 13-15 13-15 13-16 14-16 14-16 15-17 16-18 16-18 16-18 16-19 16-19 17-20 16-19 16-17 15-16 14-15 13-14 12-14 11-15 11-14 9-15 9-15 7-15 6-16 5-15 4-15 4-15 2-13 3-12 1-12 3-11 2-11 2-11 2-11 1-11-1-10-2-18-7-17-10-8-6-11-14-6-15-2-7 0-2 0-2 1-2 1-1 1-2 2-1 1 0 2 0 2 0 2 1 2 1 1 1 1 2z"  fill="#fff500" /><path d="M93-166l3-6 6-13 9-13 8-15 6-16 2-19 0-10-1-11-3-11-4-12-6-12-7-12-9-12-10-12-11-13-11-13-13-12-14-10-15-10-15-10-16-9-15-10-14-9-15-10-14-11-13-10-13-10-13-9-12-9-12-8-13-7-11-7-12-7-12-7-11-7-12-6-11-6-11-5-11-5-10-3-11-4-11-5-11-3-10-4-10-3-10-3-18-3-18 0-18 1-20 0-18-1-18-1-16-2-15-4-15-4-14-1-16-1-14 2-13 4-12 5-10 7-9 10-3 12 1 11 2 14-5 37 0 0 0 0-22-32-1-12-1-10 1-11 2-12 7-12 9-11 12-8 14-7 16-6 17-3 18 0 17 1 18 3 14 5 13 4 15 2 17 1 19 0 19 0 19 1 10 1 10 1 11 3 10 3 10 4 11 4 10 4 11 5 11 4 11 5 11 5 11 6 11 6 12 7 11 7 12 7 11 8 12 7 12 9 12 8 12 9 12 10 13 10 13 11 14 10 14 10 15 10 15 9 15 9 16 10 16 9 16 10 13 12 13 12 12 12 11 12 10 13 10 13 7 13 5 13 5 13 2 14 0 13-1 11-2 11-3 10-4 9-10 17-9 12-8 11-3 5-1 2-2 1-1 1-2 0-2 0-2 0-2-1-1-1-1-2-1-2 0-2 0-2 1-1z"  fill="#c2e1ff" /><path d="M95-169l4-4 9-9 7-9 9-12 7-12 7-14 5-10 6-10 7-13 6-14 5-12 7-13 8-14 7-13 5-12 4-13 4-13 4-12 4-11 3-10 3-10 3-11 4-11 3-9 2-14 1-12 1-11 2-12 2-10 0-11-1-12-4-11-4-11-4-9-6-8-8-9-6-32 0 0 0 0 30 12 8 10 6 9 6 11 4 12 4 12 3 13 0 14 0 10-2 10-3 15-1 11-1 11-1 13-4 12-4 11-3 9-3 10-4 11-3 11-5 11-4 12-4 13-5 16-7 14-8 14-7 12-5 11-4 12-5 10-5 10-6 9-6 9-5 9-6 9-6 10-7 9-8 9-10 8-9 7-6 5-1 1-2 0-2 1-2-1-2 0-1-1-2-2-1-2 0-1 0-2 0-2 1-2 2-1z"  fill="#c2e1ff" /><path d="M92-163l0-6 0-15 1-15 2-15 2-16 1-13 0-12 0-11 0-13 0-11 0-11 2-11 4-11 6-10 6-9 7-8 7-8 9-8 10-8 12-7 9-6 12-4 12-1 11 0 11 0 15 0 14 2 14 3 13 4 13 1 13 0 10-3 9-5 11-11 9-11 12-13 12-13 14-12 14-10 13-9 50-23 0 0 0 0-36 43-13 9-13 9-11 10-11 12-10 13-10 12-10 11-14 10-16 6-16 2-17 0-17-2-13-4-14-2-11 1-11 0-13 0-13 2-9 6-10 7-11 8-8 9-9 9-6 9-5 12-1 11-1 11-1 13-1 11-1 13-2 15-3 15-2 14-3 14-1 14-1 6 0 2-1 2-1 2-1 1-2 1-2 0-2 0-2 0-2-1-1-1-1-2-1-2 0-2z"  fill="#c2e1ff" /><path d="M94-157l-5-5-11-9-12-9-12-8-13-7-14-4-16-1-17 4-17 6-10 4-17 10-14 11-10 12-10 13-11 14-11 14-10 13-7 12-7 13-7 12-7 12-8 11-8 9-7 13-4 11 1 13 2 15 2 14 0 13 0 12 0 12 4 11 6 10 9 6 8 6 11 17 0 0 0 0-19 7-12-1-10-6-9-8-7-9-5-10-4-12-1-12 0-12 1-11 0-11-1-13-1-13-2-12 2-13 4-11 6-11 7-10 7-9 8-10 7-10 7-11 8-13 9-14 10-14 11-13 11-14 11-14 13-14 8-6 9-6 9-6 10-5 10-5 10-4 10-4 11-2 10-2 11 0 11 1 19 6 15 9 13 10 12 11 10 10 5 6 1 1 1 2 0 2 0 2-1 2-1 1-1 2-2 1-2 0-1 0-2 0-2-1-2-1z"  fill="#fff500" /><path d="M101-171l7 1 16 0 15 0 17-1 17 2 18 3 17 5 17 6 19 7 9 4 19 8 10 5 10 6 10 6 11 6 9 6 10 5 9 4 18 7 10 3 20 3 18 2 15-1 14-2 10-3 11-7 6-8 7-11 6-11 6-10 6-11 7-9 8-7 9-4 11-1 10 0 9 5 10 3 0 0 0 0-7 12-8 7-11 3-12 3-6 8-8 11-6 10-8 12-7 9-8 8-12 7-13 4-15 2-17 1-18-2-10-1-11-2-11-2-10-3-11-3-10-4-10-5-10-6-10-5-10-6-10-5-10-5-9-5-10-3-19-8-17-7-16-5-16-5-15-4-15-1-16-1-17-1-16-1-8-1-2-1-1-1-2-1-1-1-1-2 0-2 0-2 1-2 1-1 1-2 2-1 2 0 2 0z"  fill="#005bbb" /><path d="M108-164l1 5 5 13 5 12 9 9 9 7 10 9 9 9 9 8 8 8 10 8 8 7 10 8 8 8 6 8 6 9-2 10 4 5 0 0 0 0-6 6-10 0-9-5-7-8-6-9-7-8-9-8-10-10-7-7-8-9-9-8-9-9-9-8-9-9-8-12-3-11-3-10-1-10-1-5 0-2 0-2 1-2 1-1 2-1 2-1 2 0 1 0 2 0 2 1 1 2 1 1 1 2z"  fill="#c2e1ff" /><path d="M104-169l6 3 13 8 12 10 11 10 12 10 12 11 11 13 8 14 7 14 6 12 5 10 5 11 5 11 4 10 3 10 4 10 9 13 8 10 8 11 10 9 11 8 13 7 15 8 15 7 15 7 14 8 17 9 9 5 9 3 10 3 10 2 10 1 10 0 10 0 19-4 17-7 17-9 8-7 8-8 9-10 9-11 9-12 9-12 8-13 8-13 9-14 9-15 10-14 11-15 12-15 14-16 15-16 16-17 15-18 14-20 14-21 13-21 11-21 9-22 7-20 7-20 5-18 3-18 3-18 10-108 0 0 0 0-7 109-3 17-4 18-5 19-7 20-7 20-9 22-11 22-13 21-13 21-14 20-15 19-16 17-14 16-12 17-11 16-10 15-9 15-8 15-8 14-8 14-7 14-9 13-8 13-9 12-9 11-9 10-9 9-10 7-10 5-10 4-10 3-11 3-12 1-11 1-11 0-12-1-12-1-12-3-12-4-10-4-9-5-16-8-13-7-15-7-16-7-16-8-14-8-13-11-12-12-9-11-8-12-7-12-4-11-3-10-3-10-4-9-5-11-5-12-5-12-5-12-7-12-8-11-11-10-11-11-12-11-9-10-11-8-5-4-2-1-1-1-1-2 0-2 0-2 1-2 1-1 1-2 2-1 2 0 2 0 1 0 2 1z"  fill="#fff" /><path d="M93-166l3-7 4-11 2-11 1-11 0-12-1-13-2-14-2-14-3-17 0-17-1-15 0-13-2-12-4-11-7-10-11-6-13-2-11 0-13 1-15 1-13 3-10 5-8 7-9 9-9 10-8 11-8 10-7 10-7 11-8 12-11 10-10 9-7 9-4 9-4 13-1 13 1 10 1 11 3 10 3 11 2 13-14 31 0 0 0 0-15-30-3-11-2-11-2-11-1-12 0-14 1-10 3-11 4-13 7-13 10-12 10-10 8-8 7-9 8-11 8-12 8-11 9-10 9-11 10-11 14-10 16-7 16-4 16-2 15-2 14 0 13 3 12 4 10 7 10 10 6 13 4 14 2 15 1 15 0 15 1 15 2 15 2 15 2 16 0 14-1 13-2 15-5 13-6 13-4 5-1 2-2 1-1 1-2 1-2 0-2-1-2-1-1-1-1-2-1-2 0-2 0-2 1-1z"  fill="#005bbb" /><path d="M101-155l-6 1-10 3-12 4-11 2-11 3-10 2-14 4-14 4-12 4-9 6-10 7-7 9-4 10-4 10-4 9-6 9-7 8-10 7-10 4-10 1-10-7-10-14 0 0 0 0 16-10 10-3 8-7 5-10 5-9 4-10 6-8 9-9 9-7 10-5 9-5 11-3 10-3 14-3 11-2 10-1 11-1 11-2 11-2 14-1 5 0 2 0 2 0 2 1 1 1 1 2 1 2 0 2 0 2-1 2-1 1-2 1-2 1-1 1z"  fill="#005bbb" /></svg>