<svg width="1200" height="675" viewBox="-500 -500 1200 675" xmlns="http://www.w3.org/2000/svg"><path d="M-500-500h1200v675h-1200z" fill="#000"/><path d="M101-155l-6 2-12 2-12 0-11-2-10-3-11-3-10-2-14-1-11-1-14-1-10-1-14-3-11-5-10-7-9-9-7-9-8-9-8-8-9-7-9-5-9-8-7-8-7-8-10-5-10-4-13-16 0 0 0 0 13-12 12-3 9 4 10 5 8 5 9 8 7 10 8 7 10 6 7 7 7 7 7 8 7 9 7 9 8 9 9 4 11 3 14 1 10 1 11 2 12 2 11 3 10 4 14 5 12 2 11 0 6 0 2 0 2 0 1 1 2 1 1 2 1 1 0 2 0 2-1 2-1 2-1 1-2 1-2 0z"  fill="#fff" /><path d="M107-167l3 5 8 8 7 8 8 7 8 7 12 8 10 5 12 6 12 8 11 9 12 9 11 9 11 9 11 8 11 8 10 5 10 4 12 4 11-2 11-3 10-4 9-8 7-10 6-8 9-11 8-9 7-8 7-9 3-11 7-21 0 0 0 0 21 12 3 12-2 12-5 10-6 8-6 9-8 9-9 10-6 8-6 8-7 8-10 9-12 7-12 4-10 3-14 1-11-1-12-3-11-4-12-7-12-8-12-9-10-8-12-9-12-10-10-8-10-7-11-7-11-6-10-7-10-8-8-8-8-9-7-9-7-11-3-5-1-2 0-2 0-2 1-2 1-1 1-2 2-1 1 0 2-1 2 1 2 0 2 2 1 1z"  fill="#c2e1ff" /><path d="M108-164l2 6 2 12 2 13 3 11 3 11 4 13 5 13 4 11 4 11 2 10 3 10 8 9 8 5 10 4 10 5 9 3 10 5 8 2 0 0 0 0-4 10-6 8-9 5-11-1-10-3-10-5-10-5-9-6-8-6-8-9-5-11-2-11-1-10-2-10-3-10-3-12-3-10-3-10-2-12-1-13-1-12-1-12-1-6 0-2 0-2 1-1 1-2 2-1 1-1 2 0 2 0 2 0 2 1 1 1 1 2 1 2z"  fill="#fff500" /><path d="M108-162l0 6 1 12 2 12 3 14 3 13 4 15 4 14 4 16 4 14 4 13 3 14 1 15-1 13-2 13-2 11-2 11-3 11-2 12-1 10-1 10 2 12 7 12 9 7 9 6 11 7 10 6 11 6 10 6 11 5 13 5 12 5 11 6 11 5 10 5 11 5 11 5 10 6 12 7 10 8 10 9 9 8 8 8 9 7 8 8 9 9 28 41 0 0 0 0-46-22-9-8-9-8-8-7-9-8-8-8-8-7-10-7-9-6-10-6-10-5-9-5-12-5-11-5-10-5-12-5-12-5-13-6-12-6-11-6-11-7-11-6-10-7-11-9-8-10-6-11-2-12-1-12 0-13 2-13 3-11 2-11 3-12 2-11 3-10 1-10-1-11-2-12-4-14-3-14-4-15-3-15-4-14-3-15-2-15-1-15 1-13 1-6 0-2 1-2 1-1 2-1 2-1 2 0 1 0 2 0 2 1 1 2 1 1 1 2 0 2z"  fill="#fff500" /><path d="M97-170l5-2 9-5 9-3 14-4 13-1 11-1 11-1 11-1 13-4 13-6 11-5 14-5 15-3 15 0 17 2 16 5 17 7 18 8 16 8 15 9 14 7 14 8 12 8 10 8 10 6 10 6 10 3 11 2 11 1 10-1 13-1 13-1 12 0 13-1 11 0 12 0 14 0 13 2 14 2 16 6 15 10 14 12 10 14 22 51-1 0 1 0-46-41-9-11-11-8-11-5-11-3-12-1-12-1-12-1-11 1-12 0-12 0-12 0-12 1-13 1-15 0-13-2-14-4-13-6-12-8-10-7-11-8-11-7-13-8-14-7-16-8-15-8-16-6-15-4-13-3-12 0-11 0-10 3-10 5-11 5-10 5-12 3-13 1-11 0-11 0-12 0-11 0-11 1-14 4-5 2-2 0-2 0-2 0-1-1-2-1-1-2-1-2 0-1 0-2 1-2 1-2 1-1 2-1z"  fill="#c2e1ff" /><path d="M108-162l0 6 1 12 1 11 2 11 1 12 1 11 1 13-1 12-3 11-5 12-7 11-9 9-10 8-9 6-9 7-10 10-9 13-8 10-8 10-8 9-7 8-7 10-6 8-5 11-3 10 1 11 3 10 3 12 3 11 4 14 3 12 2 12 5 12 6 12 8 14 9 13 12 12 13 11 38 46 0 0 0 0-54-28-14-11-14-13-7-8-11-15-8-14-8-15-5-15-3-12-4-14-4-12-3-12-3-11-2-13 0-11 3-12 5-12 6-10 7-10 10-12 7-7 7-8 7-9 7-10 8-10 8-10 10-8 10-7 9-7 10-8 8-10 6-11 2-13 0-10 0-12 0-11-1-12 0-12 1-13 1-6 0-2 1-2 1-1 2-1 2-1 2-1 2 1 1 0 2 1 1 1 1 2 1 2 0 2z"  fill="#fff500" /><path d="M108-162l0 6 0 13 0 12-2 13 0 10 1 14 2 13 2 14 1 12 4 12 6 9 7 7 7 7 8 7 9 7 10 9 9 9 9 11 8 11 8 10 8 7 10 9 11 8 12 5 13 6 12 7 10 5 10 6 9 7 7 9 7 18 0 0 0 0-21 4-11-5-8-7-9-6-9-6-9-5-13-6-10-4-10-6-9-6-8-7-9-7-7-8-8-10-8-10-6-9-9-9-8-7-9-7-8-7-8-8-8-10-7-10-5-13-3-14-1-13-1-13-1-10 0-10 1-11 2-12 2-12 1-11 2-13 1-6 0-2 1-2 1-1 2-1 2-1 2-1 1 1 2 0 2 1 1 2 1 1 1 2 0 2z"  fill="#fff" /><path d="M107-159l-2 6-5 12-2 13-3 15-3 16-4 19-3 10-3 10-4 11-6 11-6 10-7 11-8 10-8 9-8 9-9 8-10 8-8 6-9 7-8 7-8 7-9 7-8 7-8 7-7 7-8 6-14 14-11 13-9 13-7 13-5 13-6 12-5 12-7 11-8 11-10 11-11 8-8 8-9 11-5 11-5 10-2 12 1 13 2 10 6 12 5 9 7 10 6 9 6 8 1 32 0 0 0 0-23-10-6-10-7-9-7-11-6-11-6-12-5-14-2-14 0-11 2-14 5-14 7-13 6-9 7-8 9-9 11-9 9-7 7-8 6-9 6-10 6-11 6-13 8-14 9-15 12-13 14-14 8-7 7-7 8-7 8-7 9-7 8-7 8-7 9-7 9-7 8-6 9-7 8-7 7-8 7-9 7-9 6-10 5-10 5-9 3-10 5-19 4-17 4-17 4-16 4-15 7-12 3-6 1-2 1-1 2-1 2 0 2 0 2 0 1 1 2 1 1 2 1 1 0 2 0 2-1 2z"  fill="#fff" /><path d="M107-166l3 5 5 9 4 9 6 14 5 9 4 12 4 11 3 11 4 14 6 11 7 10 8 5 10 4 11 1 12-1 11-3 13-5 9-4 12-6 12-5 11-5 10-6 7-8 5-8-14-10 0 0 0 0 9-21 10-5 13 3 10 8 4 11 1 10-2 11-5 10-7 10-7 8-10 8-12 6-11 5-12 5-11 6-12 5-11 3-13 4-14 2-10 0-11-1-11-4-11-5-10-7-8-9-6-10-5-10-3-11-3-10-2-11-3-10-3-10-4-11-3-9-4-14-3-9-2-5-1-2 0-2 0-2 1-2 1-1 2-1 2-1 1 0 2 0 2 0 2 1 1 1 1 2z"  fill="#fff" /><path d="M106-157l-4 5-5 9-5 11-7 14-7 17-9 17-4 10-3 10-5 10-4 10-5 10-5 9-6 9-6 9-6 8-13 15-11 12-12 9-12 7-12 6-14 6-15 3-17 0-16-3-16-4-14-3-13-3-12-2-12-1-12-2-11-1-10-2-11-1-12-2-13-2-13-2-11-1-11 0-11 0-10 1-14 1-11 2-11 3-9 4-11-2-8 4 0 0 0 0-2-9 2-9 6-10 10-4 10-3 13-3 14-1 15 0 11-1 12 0 14 1 13 2 13 2 13 2 10 2 11 1 11 2 11 2 11 2 13 2 14 3 13 3 15 4 15 3 12 2 11-1 11-4 12-4 10-5 10-6 11-8 11-12 12-14 11-17 9-17 4-9 4-10 3-10 4-10 5-11 4-9 8-16 7-13 7-13 9-11 4-4 2-1 1-1 2 0 2 0 2 0 2 1 1 1 1 2 1 2 0 2 0 2-1 1-1 2z"  fill="#005bbb" /><path d="M102-170l6 1 14 4 13 6 11 6 11 5 10 5 10 4 11 3 10 2 11 1 13 2 12 1 12 1 12 2 11-1 13 0 15 1 17 1 17 2 10 1 11 2 11 2 11 3 10 2 12 4 12 4 11 5 12 6 13 7 14 6 15 7 16 7 17 8 18 7 20 5 20 2 20-1 22-3 23-4 24-5 25-6 26-7 26-7 26-8 26-9 27-9 27-9 26-9 27-10 27-10 27-11 26-11 27-11 27-11 27-10 29-9 29-9 28-8 26-8 26-7 26-5 25-6 25-4 25-6 25-5 25-5 27-5 26-6 27-6 28-7 28-6 27-6 28-5 27-5 26-5 25-5 160-38 0 0 0 0-160 40-25 5-26 5-27 5-27 5-28 6-28 6-27 7-28 6-26 6-26 5-26 5-25 5-24 5-26 5-25 5-25 6-26 7-27 8-28 8-29 9-28 8-28 11-26 11-27 11-26 11-27 11-27 10-27 10-26 9-27 9-27 9-26 9-26 8-26 8-26 7-26 6-24 5-23 5-22 4-21 1-21-1-20-4-19-5-19-6-17-5-15-5-15-6-13-5-12-5-11-4-10-3-11-3-11-2-20-3-19-1-19-1-15-1-13-1-13 1-14-1-12-1-13-1-13-2-12-2-12-2-13-3-13-4-11-6-11-6-10-6-10-7-11-6-11-5-6-2-2 0-1-2-2-1-1-2 0-2 0-2 1-1 0-2 2-2 1-1 2 0 2-1 2 1z"  fill="#fff" /><path d="M92-162l-1-7-1-14-1-14 0-13-1-12 0-11-1-11-2-13-4-9-8-6-11-2-12-1-11-1-12 1-11-1-11 0-10 2-10 3-11 5-7 7 2 11 2 12-12 22 0 0 0 0-16-15-5-9-3-11 0-11 3-13 8-11 10-7 11-7 10-4 11-3 13-2 10 0 11 1 11 0 12 0 11 2 11 2 11 2 11 4 8 8 7 9 5 13 1 10 1 11 0 11-1 12 0 12-1 13 0 14-1 13 0 7 0 2-1 2-1 2-1 1-2 1-2 0-2 1-2-1-1-1-2-1-1-2-1-1 0-2z"  fill="#fff" /><path d="M94-157l-5-6-11-12-11-13-12-12-15-12-9-6-9-7-10-6-10-6-11-7-11-8-12-9-11-8-12-9-12-9-12-11-11-11-12-11-11-11-10-11-10-10-11-10-10-9-11-8-10-7-11-6-10-6-11-4-10-5-11-4-10-4-10-2-10-3-20-3-10-1-20-1-20 2-10 1-11 2-11 0-11 1-12-1-11-2-11-3-11-4-10-3-9-4-18-8-17-10-16-12-13-14-12-13-13-12-16-12-16-11-19-5-10-1-11-1-12 1-12 2-14 2-14 4-14 4-13 5-15 6-15 6-14 5-14 6-14 5-14 5-14 5-15 4-15 3-14 3-15 3-15 3-15 2-16 2-106 0 1 0-1 0 105-11 15-2 15-2 15-3 14-3 15-3 14-3 14-4 14-5 14-5 14-5 13-5 15-6 14-7 14-6 15-7 14-5 15-5 14-4 14-2 13-1 13 0 13 1 12 3 11 4 11 5 9 6 9 7 7 6 15 14 13 13 11 13 12 10 15 9 17 8 18 8 19 5 20 3 10 0 10-1 10-1 11-1 11-1 11-1 12 1 11 1 10 1 10 2 11 3 11 2 10 4 11 4 11 5 11 5 11 5 11 7 10 7 11 8 10 8 11 10 11 10 10 10 11 11 10 11 12 10 12 10 12 10 12 9 12 8 12 7 11 8 11 7 11 6 11 6 10 7 10 6 10 7 9 7 7 6 14 14 10 14 9 12 5 6 1 2 1 2 0 1 0 2-1 2-1 2-2 1-1 1-2 0-2 0-2 0-1-1-2-1z"  fill="#005bbb" /><path d="M108-165l2 6 4 11 4 11 5 10 3 11 4 9 3 10 5 13 3 15 1 14-1 13-4 12-4 10-7 10-6 10-6 10-9 9-11 6-10 3-10 0-11-6-7-7-3-10-6 1 0 0 0 0 0-6 7-7 10-3 10 1 9 6 8-7 6-9 7-9 7-10 4-12 1-12-2-11-2-13-4-14-3-10-3-10-3-11-3-12-2-11-2-6 0-2 0-2 1-2 1-1 1-2 2-1 1 0 2-1 2 1 2 0 2 2 1 1 1 2z"  fill="#fff500" /><path d="M93-166l2-7 4-12 1-11-2-14-1-15-2-15-2-14-2-13-3-11-3-11-3-12-2-12 0-13 1-12 3-12 4-11 6-9 8-12 11-10 13-6 11-3 12-3 10-2 10-1 10-3 11-3 10 3 17 8 0 0 0 0-5 9-7 8-10 4-10 2-10 2-11 1-11 2-11 2-12 3-9 8-7 9-5 10-3 12-1 14 1 10 2 10 3 12 3 13 2 15 1 15 1 14 1 16 1 16-3 15-6 15-4 6-1 2-1 1-2 1-2 1-2 0-2-1-1-1-2-1-1-1-1-2 0-2 0-2 1-2z"  fill="#005bbb" /><path d="M94-157l-5-5-9-8-9-7-11-7-10-6-11-6-10-3-11-3-12-3-14-3-15-5-15-4-17-6-9-4-10-5-10-5-10-5-10-6-11-7-11-7-10-7-10-6-10-8-10-8-10-7-11-8-11-7-12-7-11-5-12-5-11-3-11-3-12-2-11-2-11-1-11-1-10 0-19 2-16 4-16 6-13 7-14 8-15 9-15 8-17 7-15 6-14 5-14 5-11 6-9 6-11 13-8 11-8 12-8 14-6 13-7 14-7 13-5 13-5 15-28 53 0 0 0 0 5-60 5-16 7-16 7-14 6-12 7-15 8-14 9-14 9-13 10-11 12-10 13-6 14-6 14-5 15-5 15-5 15-7 14-8 15-7 15-9 18-6 18-5 10-1 10-1 10 0 12 0 11 1 12 2 11 2 12 2 12 3 13 4 12 5 13 6 12 6 13 7 11 8 10 7 10 8 10 6 10 7 10 6 11 6 10 5 10 5 11 5 10 4 17 7 16 5 15 5 14 4 13 4 13 3 12 4 13 5 12 7 11 8 11 8 10 9 9 11 4 5 1 2 1 2 0 2 0 2-1 2-1 1-2 1-2 1-1 1-2 0-2-1-2-1-1-1z"  fill="#c2e1ff" /><path d="M104-156l-4 3-10 9-9 7-9 9-8 9-5 10-6 11-4 9-2 10-3 13-3 13 0 14 0 11 0 12-2 14-2 13-3 13-3 15-4 17-6 18-9 18-6 8-8 8-7 7-9 6-10 6-10 6-11 5-12 5-12 4-12 4-13 3-13 4-13 4-13 4-13 3-12 5-12 6-11 6-12 6-11 6-11 6-11 6-10 5-10 5-10 4-10 4-18 6-19 4-10 2-19 0-62-15 0 0 0 0 54-5 16 1 18-1 17-3 18-5 18-7 10-4 10-4 11-6 11-6 11-6 12-6 12-7 13-6 13-5 13-5 12-4 13-4 13-5 12-4 11-5 11-4 10-5 10-5 9-6 15-10 11-12 8-13 6-15 3-16 3-15 2-15 2-12 2-11 0-11 0-12 0-11 1-12 2-10 3-14 3-12 5-14 7-10 6-10 8-10 8-7 8-6 9-5 10-7 9-5 5-2 2-1 1 0 2 0 2 0 2 1 1 2 1 1 1 2 0 2-1 2 0 1-2 2-1 1z"  fill="#fff" /><path d="M104-169l6 3 11 5 11 4 11 3 11 3 12 4 11 3 12 3 13 5 12 4 12 5 13 4 12 4 12 3 12 1 12 1 13 0 13 0 11 0 13-2 14-5 10-5 10-7 13-8 14-9 12-10 10-12 9-13 8-13 8-13 8-12 10-10 12-10 12-7 11-5 9-5 9-5 9-6 9-6 9-6 9-9 9-11 10-12 8-10 29-13 0 0 0 0-13 38-9 10-10 12-8 9-10 8-9 7-11 6-9 6-10 5-11 5-9 4-10 5-8 7-8 9-8 10-8 12-9 13-9 15-12 14-14 14-14 10-13 8-12 8-12 7-12 4-13 4-13 0-12 0-13-1-12 0-15 0-14-2-15-4-12-4-13-5-13-5-12-4-11-4-12-4-12-4-11-5-11-4-12-5-12-6-11-7-5-4-2-1-1-1-1-2 0-2 0-2 1-2 1-2 1-1 2-1 2 0 1-1 2 1 2 1z"  fill="#005bbb" /><path d="M107-166l3 6 5 10 5 11 5 11 5 12 3 10 4 11 2 10 2 10 5 13 4 13 6 11 6 9 9 10 8 8 11 7 10 4 11 1 11-1 15-3 13-1 16 1 17 2 19 3 19 1 17-2 17-5 14-8 11-10 9-11 7-10 6-10 5-11 6-11 7-11 7-9 6-9 6-12 5-15 4-11 29-38 0 0 0 0-4 47-4 12-4 11-5 10-6 10-6 10-7 9-6 8-6 11-7 11-7 12-9 11-11 12-14 12-9 6-9 5-10 3-10 3-11 3-11 1-11 0-21 0-18-2-14-1-10 1-10 1-11 3-15 1-15-1-10-4-10-5-10-6-9-7-7-8-9-10-6-9-6-10-4-11-3-9-4-14-2-11-2-10-3-14-2-11-4-10-3-12-4-11-4-11-1-5-1-2 0-2 0-2 1-2 2-1 1-1 2-1 2 0 2 0 2 0 1 1 2 2 0 2z"  fill="#005bbb" /><path d="M101-155l-5 1-14 3-13 3-14 4-11 2-12 2-12 3-13 4-14 6-14 6-13 7-9 7-7 8-8 9-7 9-6 10-5 11-5 9-5 14-3 11-1 12-3 11-3 12-2 10-3 11-4 12-4 10-4 10-4 9-5 9-6 10-6 9-4 11-4 12-23 19 0 0 0 0-8-23 3-13 5-12 4-11 6-8 6-9 6-10 5-11 4-10 5-12 3-10 3-11 3-10 2-11 3-12 4-14 4-10 5-11 6-11 7-12 8-11 8-10 9-10 12-10 14-8 14-7 15-7 15-5 16-5 13-1 11-2 10-1 13-2 15-1 10 0 5 0 2 0 2 0 2 1 1 2 1 1 1 2 0 2 0 2-1 1-1 2-2 1-2 1-1 0z"  fill="#fff" /><path d="M93-159l-4-5-6-11-6-12-4-13-2-14 1-13 1-13 2-13 2-14 2-15 2-15 1-17-2-18-4-18-7-15-11-17-12-16-6-8-8-9-8-9-9-10-8-9-10-10-9-11-10-10-9-10-10-11-9-10-9-10-8-11-7-11-5-11-5-11-5-11-4-10-3-10-7-18-6-16-6-15-5-13-5-13-4-14-3-15-3-14-3-17-4-18-6-18-8-18-8-17-9-16-11-12-12-8-12-6-12-4-11-3-14 0-38-3 0 0 0 0 31-20 13-1 13 2 14 3 14 6 14 8 15 11 7 8 6 8 6 8 5 10 5 9 8 18 4 9 4 10 4 10 3 10 3 18 4 15 2 15 2 13 4 13 3 13 5 14 5 16 6 18 3 9 2 10 3 9 4 11 5 10 5 10 6 10 7 10 9 11 9 9 9 10 10 10 10 10 10 10 10 9 10 10 9 9 9 9 8 9 8 8 6 9 7 8 6 9 6 9 5 10 4 10 3 10 3 11 1 10 1 10 0 20-2 17-2 15-2 13-3 13-1 12-1 10 0 11 2 10 3 10 6 12 2 6 1 1 0 2 0 2-1 2-1 2-1 1-2 1-2 0-2 0-2 0-1-1-2-1-1-2z"  fill="#fff500" /><path d="M92-163l0-5-4-14-5-9-11-6-11-4-10-1-10 4-5 9 1 10 0 11 1 10 0 10 5 10 0 11 2 14 0 0 0 0-9 3-11-3-10-6-4-9-4-12-1-10 1-11 0-11 0-11 0-12 4-11 7-10 10-6 12-5 14-1 12 3 10 4 10 5 8 6 7 8 5 10 2 12 0 12 0 5 0 2-1 2-1 2-2 1-1 1-2 0-2 0-2 0-1-1-2-1-1-2-1-2 0-2z"  fill="#fff500" /><path d="M101-170l5 0 11 0 10-6 4-9 5-11 5-11 3-10 1-12-3-10-8-8-11-6-9-5-11-5-12-6-10-4-9-6-13-8-11-9-10-8-9-8-9-8-12-8-8-5-9-7-9-6-12-9-9-5-13-7-26-28 0 0 0 0 34 0 10 4 10 6 9 5 10 7 10 6 8 6 8 6 12 8 8 6 12 9 8 8 9 7 9 7 12 7 12 6 13 6 12 6 9 5 10 5 10 8 8 10 6 13 2 12-1 12-2 10-4 10-5 10-6 10-5 9-7 9-12 8-13 2-15-2-4-1-2-1-2 0-1-2-1-1-1-2 0-2 1-2 0-1 1-2 2-1 2-1 1 0 2 0z"  fill="#005bbb" /><path d="M92-162l0-8-2-15-4-16-5-19-3-9-3-10-2-11-2-10-1-11-1-10 1-10 1-20 1-17 0-16 0-15-1-14-1-13-2-11-4-13-5-12-6-16-6-16-6-17-5-17-5-15-4-16-3-14-3-14-3-11-4-11-5-11-8-12-8-7-10-8-11-8-13-10-12-11-12-12-11-13-10-14-10-16-7-18-5-17-6-16-8-15-10-13-15-12-9-5-10-4-11-5-11-5-12-4-12-4-12-2-82-19 0 0 0 0 85 2 14 2 13 4 12 4 13 4 11 4 11 5 11 6 11 6 9 8 7 8 7 8 9 18 7 17 5 17 6 14 9 14 8 12 10 12 11 10 12 10 12 9 12 9 11 9 11 10 8 12 5 12 5 12 4 13 3 14 3 14 3 14 4 15 5 16 5 15 6 17 6 16 6 14 5 15 3 13 2 15 0 15-1 14 0 16-1 18-2 18-1 18 1 18 4 19 3 10 3 11 4 19 4 18 0 16 0 8 0 2-1 2-1 1-1 2-2 1-2 0-2 0-2 0-1-1-2-1-1-2 0-2-1-1z"  fill="#c2e1ff" /><path d="M108-161l-1 6-2 12-2 12-2 13-2 13 1 11 2 10 3 10 6 12 6 8 9 7 9 6 10 6 10 6 10 3 8-5 6-9 2-11 2-12 8-8 10-5 8-2 0 0 0 0 3 17 1 12-1 11-4 12-5 9-8 9-8 6-11 5-12 2-12-2-11-6-9-5-8-6-8-6-8-7-9-8-8-11-5-10-4-11-3-12-2-14 1-15 3-15 3-12 3-12 3-12 2-5 1-2 1-2 1-1 2-1 2 0 2 0 2 0 1 1 2 1 1 2 1 1 0 2 0 2z"  fill="#fff" /><path d="M92-165l1-5 4-13 5-12 6-12 6-11 8-10 8-10 8-10 8-10 8-9 7-10 7-10 7-12 6-11 5-12 6-14 6-13 5-14 3-16 6-19 6-18 4-18 4-16 5-17 4-16 5-16 5-15 5-14 5-14 7-16 7-17 5-10 4-10 5-11 5-11 4-11 4-12 4-12 5-13 4-12 5-12 4-12 4-12 4-11 5-10 3-10 7-18 7-17 6-16 7-13 7-12 5-11 6-10 5-9 31-24 1 0 0 0-6 30-8 11-6 9-6 9-7 11-7 12-7 13-8 15-7 17-4 9-4 10-4 10-5 11-4 11-4 12-4 12-4 13-4 12-3 13-4 12-4 12-4 12-4 11-4 10-4 10-7 18-6 15-5 14-5 14-5 14-5 15-4 16-5 16-4 17-5 18-5 18-4 17-3 19-6 16-6 15-6 13-6 14-7 13-7 12-8 11-8 10-8 10-8 10-9 10-8 8-7 8-7 10-6 10-6 10-4 10-2 6-1 2-1 1-2 1-2 1-1 0-2 0-2 0-2-1-1-1-1-2-1-2 0-2 0-2z"  fill="#c2e1ff" /><path d="M108-162l0 8-2 17-2 17-2 17-3 16-2 14-4 14-4 12-2 10 0 11 2 11 5 14 6 17 6 17 6 17 6 18 6 17 6 17 5 15 4 13 6 11 9 10 11 6 13 3 14 1 14 0 15-1 12 0 11 1 10 1 12 5 10 7 9 8 6 8 7 10-7 29 0 0 0 0-22-15-4-9-8-7-8-7-10-2-11-1-11 0-15 0-11 0-12-1-13-3-12-4-11-7-10-9-9-12-6-14-5-14-5-15-5-17-6-17-6-17-6-17-7-17-7-17-5-16-3-16 1-16 3-14 5-12 4-10 3-14 3-15 3-17 3-16 3-16 1-8 1-2 0-2 2-1 1-1 2-1 2 0 2 0 2 0 1 1 2 2 0 2 1 1 0 2z"  fill="#005bbb" /><path d="M108-163l1 6 2 10 4 11 8 7 11 5 9 5 13 6 12 6 13 3 11 0 12-2 13-3 10-5 8-9 7-13 6-10 5-11 3-12 3-11 1-11 2-12 1-12 1-12 2-14 2-14 6-15 9-15 10-13 13-12 14-10 13-9 13-9 10-9 10-10 9-10 8-10 9-10 9-8 10-9 33-8 0 0 0 0-11 24-9 7-10 8-7 7-9 10-9 11-10 11-12 10-13 11-13 9-13 9-10 9-9 11-8 10-5 10-3 11-1 12-1 13-1 13-2 13-2 12-2 13-4 14-4 14-6 12-6 11-7 12-9 10-12 8-11 5-11 3-11 1-10 1-12 0-11-3-11-3-10-4-10-5-12-8-12-8-9-6-7-9-5-10-2-11 0-12 0-6 0-2 1-2 1-2 1-1 2-1 2 0 2 0 2 0 1 1 2 1 1 2 1 1 0 2z"  fill="#fff500" /><path d="M92-162l-1-7-2-12-2-12-1-11-2-11-3-13-3-12-3-11-4-12-3-15 1-15 1-10 4-11 5-10 7-13 6-9 7-12 5-10 5-11 6-11 6-10 6-8 7-7 9-5 10-4 10 2 7-4 0 0 0 0 3 11-2 11-5 8-10 5-8 6-6 9-6 10-5 9-5 10-8 12-7 12-7 12-5 11-3 10-1 13 2 10 4 13 2 13 2 14 1 10 1 10 0 11 1 13 0 13 0 7 0 2-1 2-1 2-1 1-2 1-2 0-2 1-2-1-1-1-2-1-1-1-1-2 0-2z"  fill="#fff500" /><path d="M108-163l1 7 1 12 0 13 1 11 0 11 0 10-1 15-3 13-5 11-5 9-7 8-7 10-6 8 3 10 12 3 11 3 12 4 11 3 11 6 5 9 1 14 0 0 0 0-18 3-11-2-12-3-9-3-11-3-12-3-10-6-8-7-8-10-1-13 3-10 6-11 7-8 8-8 7-9 7-8 4-10 2-12 2-13 0-11 1-11 1-13 1-12 0-6 0-2 1-2 1-2 1-1 2-1 2 0 2 0 2 0 1 1 2 1 1 2 1 1 0 2z"  fill="#fff500" /><path d="M108-161l0 6-2 12-2 11-2 11-2 11-1 14-1 13 0 11 0 14-2 14-2 14-1 11 1 14 2 10 4 12 6 11 7 10 7 12 5 10 4 10 4 10 4 10 7 12 6 8 7 8 7 8 9 11 8 10 8 10 8 11 6 8 7 13 5 14 2 11 1 14-18 23 0 0 0 0-12-27-1-12-4-10-6-11-6-9-8-10-7-10-8-10-9-11-8-9-7-8-8-11-6-12-5-11-3-9-5-12-7-11-7-12-6-11-5-12-4-12-2-12-1-14 1-10 2-15 2-12 2-12 0-12 2-14 3-14 2-10 2-11 3-11 4-12 3-10 1-6 1-2 1-1 1-2 1-1 2 0 2-1 2 1 2 0 1 2 2 1 1 2 0 2 0 2z"  fill="#005bbb" /><path d="M108-160l-2 6-4 13-5 12-5 10-7 10-8 9-11 8-10 6-10 5-11 5-10 3-11 2-10 5-8 7-9 7-11 6-12 3-11 1-13-2-12-8-7-9-6-9-6-11-3-11-3-10-5-9 0-12 5-18 0 0 0 0 21 10 6 9 4 10 3 12 4 10 5 10 9 7 10-2 9-6 9-7 10-6 12-5 11-2 10-1 10-3 11-5 9-4 9-6 9-9 5-9 5-10 6-11 2-6 1-2 2-1 1-2 2 0 2-1 2 1 2 0 1 1 2 2 0 1 1 2 0 2 0 2z"  fill="#fff500" /><path d="M101-170l6 0 12 0 10 0 13-2 12-2 12-3 10-4 12-5 9-5 9-8 9-7 9-7 7-8 5-12 3-11 4-10 5-8 8-11 8-8 9-10 7-9 5-9 4-10 2-11 1-12 2-10 6-9 17-12 0 0 0 0 8 20-1 13-1 10-2 11-3 10-4 10-5 11-7 9-7 9-9 11-7 7-7 8-5 12-4 13-6 12-7 9-8 7-9 7-9 6-10 7-12 7-13 5-13 4-13 3-14 2-10 0-11 0-11-1-12-3-6-1-2 0-1-1-2-1-1-2-1-2 0-1 0-2 1-2 1-2 1-1 2-1 2 0 2 0z"  fill="#fff" /><path d="M98-170l7-2 14-3 14-3 14-4 13-4 10-5 10-8 6-8 4-12 2-13 0-10-2-11-6-10-10-4-10 2-10 2-11 3-12 2-11 3-12 3-12 1-10-3-10-3-10-3-13-3-11-3-11-5-18-24 0 0 0 0 36-3 10 3 11 3 10 2 10 3 12 4 10-2 10-3 12-2 11-3 11-2 13-2 12 0 13 5 10 8 7 9 6 12 2 12 0 13-1 13-3 13-3 10-6 9-6 8-10 8-11 7-13 5-14 3-15 3-15 2-14 1-6 1-2 1-2-1-2-1-2-1-1-1-1-2 0-2 0-2 0-2 1-1 2-2 1-1 2 0z"  fill="#005bbb" /><path d="M94-157l-4-4-8-8-8-9-8-11-7-10-6-11-5-11-5-10-6-11-6-11-5-13-2-13-2-11-1-14-1-13-1-12-3-11-5-10-8-8-8-6-11-5-5-9-5-14 0 0 0 0 8 0 10-4 11 1 9 5 10 7 8 7 6 9 5 12 3 10 3 10 1 10 0 11 0 12 1 14 1 14 4 10 5 11 6 11 5 11 4 11 5 10 5 10 6 10 6 9 7 9 3 4 1 2 1 2 0 2 0 2-1 1-1 2-1 1-2 1-2 1-2 0-2-1-2-1-1-1z"  fill="#fff500" /><path d="M93-166l3-7 8-15 9-15 9-14 10-16 11-16 6-8 6-9 7-8 8-8 7-8 14-13 11-13 11-13 8-12 5-10 3-10 2-14 0-13-1-12-2-12-2-12-2-12-1-11 0-14-2-14-1-10-1-12-1-11-1-11-1-12-1-11-3-10-3-11-6-10-8-11-9-13-9-13-7-14-7-12-6-13-6-12-4-12-3-11-3-11-1-11 15-39 0 0 0 0 12 41 2 13 3 10 3 10 5 11 6 12 6 13 7 11 8 11 9 13 10 12 8 15 5 13 4 14 1 12 1 12 1 12 1 11 2 15 1 11 1 11 1 14 0 12 2 13 1 12 1 13 0 14-1 12-2 12-4 12-6 13-9 13-10 13-12 14-14 13-14 13-13 15-11 16-11 17-10 15-10 14-9 14-9 13-4 6-1 2-2 1-1 1-2 0-2 0-2 0-2-1-1-1-1-2-1-2 0-2 0-2 1-1z"  fill="#005bbb" /><path d="M106-167l5 6 10 15 12 15 6 8 6 8 14 14 16 10 10 6 10 5 12 6 13 4 14 4 15 3 15 2 16 0 18-1 18-1 20-2 21-2 21-2 21-2 23-1 23 1 23 2 23 2 23 4 23 5 21 6 21 9 20 11 20 14 21 14 22 16 23 17 22 19 23 19 22 20 24 20 25 20 25 18 25 16 24 14 25 14 24 13 23 13 24 12 23 12 24 12 24 11 24 10 23 9 23 9 22 8 22 8 21 9 22 9 20 10 22 11 21 13 21 12 21 13 21 13 19 15 19 15 19 16 20 16 21 16 20 15 20 14 20 13 20 13 21 13 20 13 20 12 20 12 19 11 17 10 17 9 15 9 15 8 13 8 12 8 11 8 10 8 9 9 8 9 8 10 7 10 8 8 7 9 9 9 54 67 0 0 0 0-65-57-8-10-8-9-7-10-7-10-7-9-7-10-7-9-9-8-10-9-11-9-13-9-13-9-15-10-17-9-17-11-19-10-20-12-20-13-20-13-21-13-20-12-20-14-20-14-21-15-20-15-20-16-19-16-19-16-19-14-21-14-21-12-21-13-21-12-21-12-21-10-21-9-22-8-22-8-22-8-23-9-23-9-24-10-23-11-24-12-24-12-24-12-23-13-24-13-25-14-24-15-26-16-25-18-24-20-24-20-22-19-23-20-22-18-23-17-22-16-21-15-20-13-20-11-20-9-22-6-22-5-23-3-23-3-23-1-23 0-22 1-22 2-21 4-20 3-20 4-19 3-17 1-17 1-18 0-16-2-15-3-14-5-13-5-12-5-11-6-10-6-9-7-8-7-7-8-7-9-6-8-11-17-9-14-4-7-1-2-1-1 0-2 1-2 1-2 1-1 1-1 2-1 2 0 2 0 1 1 2 1 1 1z"  fill="#005bbb" /><path d="M96-170l5-3 10-6 10-5 9-6 12-5 12-4 10-3 13-3 10-3 11-5 8-6 5-10 5-10 7-8 7-9 10-3 12-7 0 0 0 0 4 6 2 10-1 12-7 8-8 7-6 9-5 9-7 8-11 6-10 5-12 3-13 3-14 2-14 3-10 4-10 4-10 5-11 4-5 3-2 0-2 1-2-1-2 0-1-1-2-2-1-1 0-2 0-2 0-2 1-2 2-1 1-1z"  fill="#fff" /><path d="M108-165l2 6 4 11 4 11 3 12 3 12 3 12 1 11 1 11 0 10-1 10-1 13-2 14-3 11-5 10-6 11-8 9-4 9 2 11 4 11 6 8 9 7 9 8 7 10 2 10-8 22 0 0 0 0-17-10-7-8-7-7-9-6-7-9-5-10-5-11-3-11-1-10 0-12 4-10 6-10 8-8 6-9 4-9 3-11 2-11 2-13 1-13-1-15-1-11-2-11-2-12-2-11-3-11-2-6 0-2 0-2 1-2 1-2 1-1 2-1 2 0 2-1 2 1 1 1 2 1 1 1 1 2z"  fill="#fff500" /><path d="M95-156l-6-4-14-9-13-7-12-5-12-5-11-4-11-3-11-2-12-1-14-1-16-1-18-1-18-1-17-1-18 0-16 0-17 3-15 3-16 4-14 5-14 5-13 7-14 8-16 7-14 8-13 8-13 8-11 8-10 9-11 10-13 11-15 10-17 9-10 4-10 4-11 3-9 4-12 4-10 5-12 5-12 5-12 5-11 5-10 6-9 6-10 5-8 6-16 11-17 10-17 7-18 6-18 4-18 2-18 2-72-3 0 0 0 0 60-17 19-2 17-2 17-2 16-4 15-5 16-7 16-10 8-5 9-6 10-5 10-6 10-6 12-6 11-6 12-6 11-5 12-6 11-5 10-4 10-4 17-7 15-9 13-9 12-10 11-10 12-10 12-8 13-8 15-9 15-9 15-7 14-7 15-8 15-6 16-5 17-4 17-4 18-2 18-1 19 0 18 0 18 1 17 1 16 1 15 1 15 2 12 3 13 4 12 5 12 6 13 7 14 9 13 10 6 5 1 1 1 2 1 2 0 2 0 2-1 2-1 1-2 1-1 1-2 1-2 0-2-1-2-1z"  fill="#fff500" /><path d="M94-157l-5-4-10-10-9-7-9-7-10-6-9-7-9-7-10-10-9-8-8-10-7-8-10-1-11 1-11-1-8-6-10-4 0 0 0 0 4-6 6-9 10-6 10 1 10 0 10-1 11 3 9 8 6 10 7 9 6 8 8 9 10 10 8 7 10 7 9 9 10 9 9 11 4 5 1 1 1 2 0 2 0 2-1 2-1 2-1 1-2 1-2 0-2 1-1-1-2-1-2-1z"  fill="#fff" /><path d="M96-169l6-5 16-9 15-7 16-5 16-4 17-3 19-2 11-1 10 0 11 1 11 1 11 2 11 3 9 5 9 4 9 5 9 6 8 6 8 6 17 11 9 5 9 5 17 7 19 5 18 3 17 2 17 2 15 2 15 1 14 0 15 0 15 1 14 0 12-2 16-3 17-5 19-8 9-4 9-5 11-6 11-6 12-5 13-5 13-5 13-4 15-4 14-3 14-4 14-2 15-2 13-1 14-1 13 1 13 1 13 1 13 0 13 0 13-1 15-2 15-3 16-4 17-5 15-6 14-8 14-9 12-10 11-11 10-11 9-12 8-13 7-14 7-14 44-95 0 0 0 0-35 99-7 15-8 14-8 13-10 13-11 12-11 11-13 10-14 10-15 8-16 8-17 6-17 5-15 4-15 2-15 2-14 0-13 0-13-1-13-1-12-1-13 0-13 1-13 2-13 3-14 4-14 4-13 5-13 4-12 5-12 5-11 6-10 7-10 6-10 6-10 5-10 5-10 5-10 3-18 5-17 3-16 1-15-1-14-1-15-1-15-1-16-2-16-2-17-3-19-3-10-2-10-2-10-3-11-4-10-4-10-6-9-5-9-6-8-5-17-12-15-10-16-7-17-5-19-1-20 1-18 2-16 3-15 3-14 3-14 6-15 6-7 4-2 1-2 0-1 0-2 0-2-1-1-2-1-1-1-2 0-2 0-2 1-2 1-1 2-1z"  fill="#c2e1ff" /><path d="M105-156l-4 4-7 7-8 10-6 11-6 11-6 12-8 10-6 13-6 10-7 9-9 9-8 8-9 6-12 4-12 1-10-2-10-2-11-3-9-6-3-11 4-19 0 0 0 0 16 7 10 1 11 3 11 1 9-5 7-7 8-8 7-9 6-11 8-10 6-9 7-10 8-12 7-8 8-8 9-7 5-3 2-1 2 0 1 0 2 0 2 1 2 1 1 1 1 2 0 2 0 2-1 2-1 1-1 2z"  fill="#c2e1ff" /><path d="M107-166l4 6 7 11 7 11 9 9 8 8 8 7 12 8 13 8 10 6 10 6 9 6 13 6 14-1 10-2 12-8 8-10 6-11 5-13 4-10 4-9 4-12 2-13 0-14 0-10-3-11-6-10-4-11-4-11-2-13 0-11 1-12 2-12 2-13 3-11 22-17 0 0 0 0 6 33-2 12-2 11-2 12 1 12 4 13 5 11 5 12 2 13 1 14-1 15-2 12-2 12-5 11-6 13-6 13-4 10-6 10-8 11-12 10-15 7-14 3-15 1-16-3-13-7-10-7-10-6-8-7-9-5-9-7-10-8-8-8-8-10-9-11-7-12-7-14-2-6-1-2 0-2 0-2 1-1 1-2 2-1 1-1 2-1 2 1 2 0 2 1 1 1 1 2z"  fill="#c2e1ff" /><path d="M92-164l1-6 0-12-1-12 0-12-1-11 0-14 0-13-1-13-2-12-4-15-3-17-3-17-3-15-5-13-6-12-8-10-9-6-10-4-11-3-12 0-11 0-11 2-11 3-10 3-12 3-12 3-10 3-13 7-9 7-10 9-11 9-11 9-11 8-10 8-10 10-12 10-13 10-14 9-14 8-17 6-16 3-15 0-14-1-13-2-13-2-12-2-13-3-38-22 0 0 0 0 51-2 11 3 12 2 12 2 12 2 11 0 12 0 12-3 12-6 13-9 12-8 11-9 11-10 11-10 11-9 10-8 10-9 11-9 11-9 12-8 12-6 13-4 11-2 11-3 12-3 13-3 13-2 14 0 15 1 15 4 16 7 13 11 11 13 7 16 6 16 3 16 3 16 4 16 4 16 2 16 0 15-1 13 0 12 0 12-1 12-1 14-2 13-1 6-1 2-1 1-1 2-2 1-1 0-2 1-2-1-2 0-2-2-1-1-1-2 0-2 0-2z"  fill="#c2e1ff" /><path d="M96-156l-6-2-11-8-10-11-7-11-5-12-3-13-3-12-2-11-6-13-8-10-10-6-14-7-10-4-10-4-10-2-12-2-13-2-13-2-13-1-13 0-13 1-14 0-15-1-14 0-15-1-14 1-16-1-15 0-16-1-13 1-14 4-16 6-16 8-16 12-8 8-8 8-8 9-8 9-9 9-10 8-11 8-12 7-12 5-12 5-12 5-14 4-14 5-14 5-16 5-16 5-16 5-15 6-14 6-14 7-12 7-13 7-12 7-81 42 0 0 0 0 76-52 12-7 13-7 13-7 14-7 14-6 16-6 16-6 15-6 15-6 14-6 14-5 13-5 12-5 11-5 11-5 10-6 9-7 9-8 8-9 8-9 7-9 8-10 9-9 9-8 9-7 10-6 18-9 18-7 18-3 16 0 15 1 15 0 15 0 15 0 15 0 14 1 13 0 14-1 14 0 14 0 15 1 15 2 12 2 13 3 12 4 11 4 11 5 11 6 11 7 10 10 7 11 5 12 3 13 2 12 1 11 3 10 5 13 6 9 8 7 5 3 2 2 1 1 1 2 0 2 0 2-1 2 0 1-2 2-1 1-2 0-2 1-2-1-2-1z"  fill="#c2e1ff" /><path d="M107-166l3 6 7 12 4 13 4 14 2 14 2 13 1 11 5 13 6 12 6 11 8 9 8 7 10 7 9 5 10 6 11 3 11 4 11-1 10-3 11-3 10 0 9 7 8 7 4 2 0 0 0 0-4 6-9 6-10 5-10 0-11 3-10 2-12-1-12-4-12-4-11-5-9-6-11-7-11-8-10-10-6-8-6-9-5-10-4-9-4-11-3-12-1-13-1-12-1-13-2-13-3-11-4-12-2-6-1-2 0-2 0-2 1-2 1-1 2-1 1-1 2-1 2 0 2 1 2 1 1 1 1 2z"  fill="#fff" /><path d="M105-157l-4 5-7 7-11 10-9 8-7 7-9 11-9 7-9 7-7 8-7 8-8 10-7 8-5 9-4 12-1 10 1 15 1 10 4 14 6 11 12 6 14 3 11-2 13-4 12-5 12-8 7-7 4-10-4-10-10-5-9-5-13-21 0 0 0 0 21-7 11 4 9 4 10 6 9 10 5 13 0 15-3 9-5 10-7 9-9 8-10 7-10 5-11 5-11 3-12 3-13 0-13-2-14-4-13-9-9-11-6-12-4-13-2-13-1-11 0-12 2-14 4-14 7-13 7-10 8-9 8-9 9-10 10-8 12-9 9-9 11-9 10-6 11-8 8-6 5-3 1-1 2-1 2 0 2 0 2 1 1 1 2 1 0 2 1 2 0 1-1 2 0 2-2 1z"  fill="#005bbb" /><path d="M97-170l5-3 11-6 11-7 10-9 9-9 7-10 5-12 4-13 4-14 2-12 1-14-1-13 0-15 0-15-1-17-1-16-1-16-2-16-3-14-5-13-6-13-7-12-8-13-8-11-9-11-8-12-7-14-6-13-5-12-5-12-7-11-7-10-9-7-10-5-12-4-13-2-16-4-17-3-18-2-20-1-10 0-10 0-11 0-11 0-12-1-12 0-12 0-11 0-13 1-14 1-15 0-14-2-15-1-14-2-98-15 0 0 0 0 99 1 15 1 14 1 13 0 14 0 13-2 13-1 13-1 12-1 12 0 11 0 11 0 11 0 11-1 11-1 11 0 10 1 20 1 18 3 15 3 16 3 16 5 14 8 13 11 10 13 7 13 6 13 5 13 5 11 5 11 7 11 9 11 9 13 8 13 8 14 7 16 5 15 4 17 2 17 2 16 1 17 1 17 0 16 1 14 0 16-1 15-4 16-4 14-5 15-7 15-10 13-12 11-12 8-13 7-13 6-6 2-2 0-2 1-1-1-2-1-2-1-1-1-1-2 0-2 0-2 1-2 1-2 1-1 2-1z"  fill="#fff" /><path d="M101-171l7 1 15 2 15 1 13 1 14 1 12 0 11-1 10 0 11 0 12 1 11 2 11 3 10 2 13 2 15 2 14 1 14 1 13 1 12 0 11 1 12 1 11 1 11 1 13 1 12 1 11 2 10 3 11 4 5 8 5 10 2 7 0 0 0 0-9 1-9 2-11-1-10-4-11-2-11-1-11-1-11-2-12-1-10-1-11-1-12-1-12-1-15-1-11-1-10-1-10-2-15-3-10-3-10-3-15-3-14-1-10 0-12-1-12-1-14-1-15-2-15-3-14-3-7-1-2-1-2-1-1-1-1-2-1-2 0-2 0-2 1-1 1-2 1-1 2-1 2 0 2 0z"  fill="#fff500" /><path d="M100-155l-6 1-12 1-12-1-13-3-12-4-13-4-11-5-12-5-10-5-9-4-11-5-10-6-9-7-8-6-8-7-8-6-8-8-9-10-8-12-6-9-5-10-4-11-2-12-2-14-2-12-3-12-1-11-1-10-1-10-3-14-3-12-6-10-11 0-9 5-8 8-10 11-36 19 0 0 0 0 13-38 6-8 6-8 9-8 13-7 11-4 13-1 13 3 11 8 9 12 4 9 3 15 2 10 2 11 1 11 2 15 3 14 2 10 1 10 1 12 5 11 6 11 7 10 8 10 8 9 11 9 12 9 11 8 10 5 10 5 9 5 10 5 11 6 12 5 10 4 10 3 10 2 11 1 6 1 2 0 2 0 1 2 2 1 1 2 0 2 0 2 0 1-1 2-2 2-1 1-2 0-2 1z"  fill="#c2e1ff" /><path d="M102-155l-5 2-11 4-11 4-13 5-13 5-10 5-9 7-7 9-3 10-1 11 7 10 5 9 5 13 5 11 6 12 7 11 8 11 9 10 7 8 8 7 7 7 8 9 7 9 7 9 6 10 5 10 4 10 4 10 5 13 5 13 5 10 1 43 0 0 0 0-28-31-6-12-4-13-5-13-3-9-6-12-7-12-8-12-10-11-8-7-8-8-7-7-7-8-8-8-7-10-5-9-7-13-7-13-4-11-5-10-6-11-4-12 0-11 3-10 4-11 6-10 8-8 9-7 12-7 14-5 14-3 10-3 11-2 11-2 6-1 2-1 1 1 2 0 2 1 1 2 1 1 1 2 0 2 0 2-1 2-1 1-2 1-2 1z"  fill="#fff500" /><path d="M92-162l0-8-3-15-7-15-9-16-6-8-5-9-6-8-7-9-6-9-5-9-6-9-6-8-7-8-6-8-7-8-12-14-12-15-9-16-7-16-4-14-4-15-3-15-4-13-6-12-7-12-9-8-8-6-13-6-10-4-11-2-10-3-14-3-10-2-10-2-10-2-10-3-10 1-10-4-9-5-5-5 0 0 0 0 10-8 6-8 11-1 11 1 10 3 12 4 13 3 12 3 14 4 12 3 12 4 11 5 12 7 11 9 11 12 9 14 7 16 4 16 3 14 3 14 3 13 5 14 7 13 11 14 12 15 7 8 6 8 7 9 6 8 7 10 6 9 5 8 6 9 6 9 6 8 6 9 5 9 9 19 3 10 2 18 0 7-1 2 0 2-1 1-2 2-1 1-2 0-2 0-2 0-1-1-2-1-1-2 0-2-1-1z"  fill="#c2e1ff" /><path d="M107-160l-1 5-3 14-3 14 0 12 1 17 0 14-2 14-2 13-4 14-4 13-7 14-9 12-10 12-12 10-10 9-11 8-10 6-11 4-10 2-11 2-10 2-11 1-8 7-4 12-3 10-6 8-11 2-15 0 0 0 0 0 2-14 1-11 4-10 3-10 6-11 9-6 10-4 10-2 11-1 11 0 11-2 10-2 12-7 10-8 9-8 9-9 9-10 6-9 4-12 4-11 3-12 2-12 1-12 1-11-1-12 2-11 2-11 5-13 4-11 3-4 0-2 2-1 1-2 2 0 2 0 2 0 2 0 1 1 2 2 0 2 1 1 0 2-1 2z"  fill="#c2e1ff" /><path d="M106-158l-3 6-9 13-10 14-9 16-7 18-4 10-4 10-4 9-6 18-7 19-7 17-7 18-4 10-5 12-6 12-6 12-5 14-5 14-6 14-5 15-4 16-5 16-3 16-3 17-3 17-3 16-4 16-4 16-4 17-5 17-5 17-4 18-4 17-3 18-4 18-4 19-5 19-5 21-4 21-4 22-3 22-3 23-2 22-2 22-1 22-1 23 0 24 0 25 1 27 1 28 3 28 3 29 6 30 8 28 9 27 13 25 13 23 14 23 16 22 16 21 16 21 19 20 21 18 22 17 22 15 24 14 23 14 23 12 24 12 24 12 25 11 26 13 28 12 29 12 30 11 31 9 29 6 29 4 29 4 27 2 28 0 27-2 26-3 25-7 25-9 23-10 22-12 141-83 0 0 0 0-140 85-22 12-24 10-24 9-26 7-26 3-27 2-28 0-28-2-28-4-29-4-30-6-31-9-30-11-29-12-27-12-26-13-26-11-24-12-24-13-23-12-23-13-24-14-22-16-23-16-20-19-19-20-17-21-16-21-15-22-15-23-13-23-12-25-10-27-8-29-6-30-3-29-3-28-1-28-1-27 0-25 0-24 1-23 1-22 2-22 2-23 2-22 4-22 3-22 3-22 5-21 4-19 3-19 3-18 4-18 4-18 4-17 3-18 5-17 4-17 4-16 4-15 3-17 2-16 2-18 3-16 3-17 4-16 4-16 5-15 4-15 5-14 5-13 4-12 4-11 4-11 4-10 7-18 7-16 7-18 3-10 4-10 4-9 4-10 4-10 4-10 5-10 6-8 11-14 9-12 5-5 1-1 2-1 1-1 2 0 2 0 2 1 1 1 1 1 1 2 1 2 0 2-1 1-1 2z"  fill="#fff" /><path d="M92-164l1-7 3-14 4-14 5-14 5-15 5-16 7-13 6-13 5-11 7-12 5-11 4-10 0-14-3-16-3-13-3-15-4-15-6-13-8-10-10-10-10-10-10-8-10-6-10-6-10-6-11-6-13-6-12-6-12-3-13-3-15-3-17-4-19-5-11-3-11-2-13-3-13-2-12-2-13-2-12-2-12-2-13-3-11-1-12-3-12-2-12-4-13-3-13-4-13-4-12-4-13-4-13-5-12-4-13-5-14-5-14-6-14-5-16-5-17-5-17-6-120-38 0 0 0 0 123 30 17 4 17 4 16 4 16 5 14 4 14 5 13 5 12 4 12 4 13 4 13 4 13 3 13 4 12 3 11 3 12 3 11 2 12 2 12 2 13 1 12 2 13 1 12 2 13 1 13 2 13 1 12 2 19 4 16 4 14 2 15 3 16 5 14 6 13 7 12 6 10 6 11 7 11 8 11 9 11 10 11 12 11 15 9 16 5 18 3 15 3 13 3 13 1 15-3 14-5 13-6 12-7 11-6 12-6 11-6 12-6 14-5 16-6 14-5 12-4 12-2 7-1 2-1 2-1 1-2 1-2 0-2 0-2 0-1-1-2-1-1-2-1-1 0-2 0-2z"  fill="#fff" /><path d="M106-157l-4 5-8 9-8 9-9 8-8 8-8 7-8 7-10 9-7 11-5 11-3 11-1 12 1 17 1 19 1 10 1 11 0 11 0 11-1 10-2 20-1 11-2 10-3 20-3 10-4 19-2 10-5 18-4 16-3 15-2 12 0 12-1 12-1 11-2 14-2 13-2 12-1 12 0 11 1 12 2 10 4 13 5 13 3 11 4 11-9 24 0 0 0 0-22-23-3-11-4-11-4-12-4-14-1-12 0-12 1-13 2-12 2-13 3-13 2-14 2-10 2-11 1-12 3-15 4-15 4-17 5-17 4-19 4-19 4-19 2-19 1-10 0-10 1-20-1-19-2-10-2-10-1-10-1-19 1-18 5-16 6-13 7-10 9-9 8-7 9-6 8-6 9-7 8-7 9-7 9-8 4-4 2-1 1-1 2 0 2 0 2 0 2 1 1 1 1 2 1 2 0 2 0 2-1 1-1 2z"  fill="#fff" /><path d="M92-165l2-7 3-15 2-16 2-17 0-18 0-17 1-17 0-17 1-17 1-18-2-17-6-16-12-17-7-7-9-8-10-8-13-8-13-7-16-7-18-8-20-8-20-8-22-10-22-11-22-10-24-10-25-8-24-7-24-5-24-4-23-4-24-4-22-4-23-4-22-3-22-2-21-1-21 0-20 1-20 0-20 0-21 0-20-1-20-1-21 0-21-1-21-2-21-3-21-5-19-5-19-5-19-6-18-6-17-6-17-7-17-6-18-6-18-7-18-6-20-7-22-6-24-6-26-6-30-6-34-7-39-9-42-13-43-18-43-23-42-26-42-28-40-29-38-30-36-29-34-27-33-24-30-22-30-18-30-16-30-13-29-11-29-11-199-76 0 0 0 0 199 74 29 11 30 12 29 12 31 16 30 19 31 21 32 25 34 27 36 28 38 30 40 29 42 28 43 26 42 23 43 18 42 13 38 9 34 7 30 6 27 6 24 5 22 6 20 6 19 6 18 7 17 6 17 7 17 7 17 6 18 7 18 6 19 5 20 5 20 5 21 3 21 2 21 1 21 0 20 1 21 1 20 0 20 0 20 0 20-1 21 0 21 1 22 2 23 3 22 4 23 4 23 4 24 4 23 4 25 4 24 7 25 8 24 9 23 10 22 10 22 9 21 7 20 6 19 5 18 6 16 6 13 8 13 7 11 9 9 9 8 9 7 11 5 10 3 12 2 10 1 11-1 18-1 17-1 17-1 16 0 18-2 19-2 18-3 17-5 16-2 7-1 2-1 1-2 1-1 1-2 0-2 0-2 0-2-1-1-1-1-2-1-2 0-2 0-2z"  fill="#c2e1ff" /><path d="M108-160l-2 7-3 14-3 15-2 15-1 14-2 14-1 14 1 12 2 14 3 13 4 13 4 11 4 12 3 11 3 11 3 10 5 11 6 12 7 12 9 12 13 11 16 10 17 9 9 5 8 5 9 5 9 5 10 5 8 5 16 11 12 13 10 15 6 14 5 12 4 10 6 13 7 13 5 10 6 9 6 11 5 10 5 11 4 10 7 11 9 9 8 7 10 8 22 35 0 0 0 0-37-10-10-10-8-7-7-7-9-9-7-10-5-11-4-10-5-10-4-10-6-10-5-10-7-14-5-10-4-11-3-10-4-12-5-11-6-12-10-10-13-10-16-10-9-4-10-5-18-9-9-4-9-5-9-5-9-6-9-6-8-7-13-15-9-14-6-14-5-13-4-12-3-10-2-11-4-11-3-13-4-14-3-15-2-15 0-15 1-15 2-15 3-15 3-15 4-16 5-14 2-7 1-2 1-1 2-1 2-1 2-1 2 1 1 0 2 1 1 2 1 1 1 2 0 2 0 2z"  fill="#005bbb" /><path d="M106-157l-4 5-10 12-11 10-13 10-15 9-13 8-11 7-8 7-7 13-5 12-4 13-3 13-2 15-2 17-3 18-4 17-4 16-5 15-6 13-7 12-7 11-7 9-7 10-8 10-6 9-6 10-5 11-4 10-2 11 1 12 4 13 4 11 6 10 5 11 3 13 0 12 0 11-1 10-4 11-9 7-16 5 0 0 0 0-3-24 3-11 0-12 0-12-5-12-6-12-4-10-3-12-1-11-1-12 2-13 5-12 5-11 7-12 7-12 8-11 7-8 7-9 7-9 6-10 6-11 5-11 5-13 3-16 3-16 2-18 2-17 3-16 4-15 5-14 7-13 9-13 12-9 13-8 13-6 13-8 12-8 11-9 10-9 5-5 2-1 1-1 2-1 2 0 2 1 2 1 1 1 1 2 1 2 0 1 0 2-1 2-1 2z"  fill="#fff500" /><path d="M107-159l-2 5-5 10-6 10-8 8-10 6-12 7-13 7-8 5-12 7-9 6-10 5-11 5-10 4-12 6-10 6-8 8-7 9-6 8-10 11-8 7-9 6-9 6-13 6-11 5-9 5-13 6-10 6-10 7-8 9-4 11 1 11 5 11 8 10 7 8 8 8 9 7 10 8 11 9 27 39-1 0 1 0-49-22-10-7-12-9-10-9-8-9-9-9-7-11-6-11-4-15 0-14 4-13 7-11 7-9 9-8 10-7 9-5 11-6 12-6 14-6 10-5 10-6 9-7 9-10 8-9 9-11 11-10 13-7 9-4 10-4 10-4 13-6 8-5 10-5 13-7 9-4 13-6 11-4 9-8 8-11 3-5 1-1 1-2 2-1 2 0 1 0 2 0 2 1 2 1 1 1 1 2 0 2 0 2-1 2z"  fill="#fff500" /></svg>